pitch,velocity,duration,pos,boundary,bar,instrument,velocity_bucket,duration_bucket,song_id,pred_prob,pred_boundary
52,100,0.4818181818181818,730,1,0,DL_Guitar,6,8,koumoururiko,0.9792566299438477,0
52,100,0.21818181818181817,105,1,1,DL_Guitar,6,3,koumoururiko,0.9983004927635193,1
67,100,0.1409090909090909,175,0,1,DL_Guitar,6,2,koumoururiko,0.044664058834314346,0
62,100,0.1409090909090909,276,0,1,DL_Guitar,6,2,koumoururiko,0.03315024450421333,0
52,100,0.2590909090909091,348,0,1,DL_Guitar,6,4,koumoururiko,0.02658054418861866,0
67,100,0.5181818181818182,414,0,1,DL_Guitar,6,8,koumoururiko,0.0235958993434906,0
69,100,0.2636363636363636,597,0,1,DL_Guitar,6,4,koumoururiko,0.024315694347023964,0
69,100,0.18181818181818182,686,0,1,DL_Guitar,6,3,koumoururiko,0.029690833762288094,0
52,100,0.11818181818181818,744,0,1,DL_Guitar,6,2,koumoururiko,0.040079690515995026,0
59,100,0.32272727272727275,849,0,1,DL_Guitar,6,5,koumoururiko,0.0709305927157402,0
69,100,0.1409090909090909,185,1,2,DL_Guitar,6,2,koumoururiko,0.9983004927635193,1
59,100,0.3,229,0,2,DL_Guitar,6,5,koumoururiko,0.04466501623392105,0
74,100,0.1,299,0,2,DL_Guitar,6,2,koumoururiko,0.033151064068078995,0
57,100,0.2818181818181818,488,0,2,DL_Guitar,6,5,koumoururiko,0.026581136509776115,0
67,100,0.1409090909090909,571,0,2,DL_Guitar,6,2,koumoururiko,0.023596717044711113,0
69,100,0.37727272727272726,602,0,2,DL_Guitar,6,6,koumoururiko,0.024315964430570602,0
55,100,0.11818181818181818,721,0,2,DL_Guitar,6,2,koumoururiko,0.029692498967051506,0
67,100,0.2409090909090909,748,0,2,DL_Guitar,6,4,koumoururiko,0.040077872574329376,0
67,100,0.1,831,0,2,DL_Guitar,6,2,koumoururiko,0.07093127071857452,0
64,100,0.11818181818181818,373,1,3,DL_Guitar,6,2,koumoururiko,0.9986500144004822,1
67,100,0.2818181818181818,443,0,3,DL_Guitar,6,5,koumoururiko,0.08780840784311295,0
64,100,0.1,629,0,3,DL_Guitar,6,2,koumoururiko,0.09181959182024002,0
52,100,0.1409090909090909,651,0,3,DL_Guitar,6,2,koumoururiko,0.10748644918203354,0
67,100,0.5181818181818182,700,0,3,DL_Guitar,6,8,koumoururiko,0.12483485788106918,0
69,100,0.5,831,0,3,DL_Guitar,6,8,koumoururiko,0.17903971672058105,0
59,100,0.759090909090909,163,1,4,DL_Guitar,6,12,koumoururiko,0.9988419413566589,1
74,100,0.2,348,0,4,DL_Guitar,6,3,koumoururiko,0.1372523456811905,0
69,100,0.1590909090909091,462,0,4,DL_Guitar,6,3,koumoururiko,0.15978215634822845,0
59,100,0.3409090909090909,514,0,4,DL_Guitar,6,5,koumoururiko,0.18645398318767548,0
62,100,0.11818181818181818,757,1,4,DL_Guitar,6,2,koumoururiko,0.2581709921360016,0
62,100,0.3409090909090909,122,1,5,DL_Guitar,6,5,koumoururiko,0.9990057349205017,1
55,100,0.3409090909090909,263,0,5,DL_Guitar,6,5,koumoururiko,0.23121455311775208,0
55,100,0.3409090909090909,360,0,5,DL_Guitar,6,5,koumoururiko,0.26592516899108887,0
55,100,0.4818181818181818,496,0,5,DL_Guitar,6,8,koumoururiko,0.3541887700557709,0
56,100,0.35909090909090907,0,1,6,DL_Guitar,6,6,koumoururiko,0.9990057349205017,1
56,100,0.12272727272727273,245,1,6,DL_Guitar,6,2,koumoururiko,0.2312091439962387,0
52,100,0.18181818181818182,452,0,6,DL_Guitar,6,3,koumoururiko,0.26593202352523804,0
57,100,0.759090909090909,651,0,6,DL_Guitar,6,12,koumoururiko,0.3541949689388275,0
59,100,0.17727272727272728,470,1,7,DL_Guitar,6,3,koumoururiko,0.9990229606628418,1
62,100,0.11818181818181818,603,0,7,DL_Guitar,6,2,koumoururiko,0.36662060022354126,0
55,100,0.2,774,0,7,DL_Guitar,6,3,koumoururiko,0.45330309867858887,0
64,100,0.1409090909090909,48,1,8,DL_Guitar,6,2,koumoururiko,0.9990229606628418,1
60,100,0.2,79,0,8,DL_Guitar,6,3,koumoururiko,0.36662557721138,0
55,100,0.3181818181818182,405,1,8,DL_Guitar,6,5,koumoururiko,0.4532877206802368,0
59,100,0.21818181818181817,747,1,9,DL_Guitar,6,3,koumoururiko,0.9792561531066895,0
59,100,0.4590909090909091,185,1,10,DL_Guitar,6,7,koumoururiko,0.9988419413566589,1
64,100,0.32272727272727275,378,0,10,DL_Guitar,6,5,koumoururiko,0.1372460275888443,0
59,100,0.4,567,0,10,DL_Guitar,6,6,koumoururiko,0.15977831184864044,0
59,100,0.5363636363636364,699,0,10,DL_Guitar,6,9,koumoururiko,0.18645410239696503,0
67,100,0.11818181818181818,845,0,10,DL_Guitar,6,2,koumoururiko,0.25816255807876587,0
59,100,0.2409090909090909,13,1,11,DL_Guitar,6,4,koumoururiko,0.9984880685806274,1
57,100,0.17727272727272728,414,1,11,DL_Guitar,6,3,koumoururiko,0.06334670633077621,0
57,100,0.12272727272727273,474,0,11,DL_Guitar,6,2,koumoururiko,0.05774318799376488,0
67,100,0.11818181818181818,704,0,11,DL_Guitar,6,2,koumoururiko,0.06020653247833252,0
55,100,0.12272727272727273,730,0,11,DL_Guitar,6,2,koumoururiko,0.06970593333244324,0
67,100,0.3,756,0,11,DL_Guitar,6,5,koumoururiko,0.08189886808395386,0
59,100,0.1409090909090909,871,0,11,DL_Guitar,6,2,koumoururiko,0.12402434647083282,0
59,100,0.22272727272727272,25,1,12,DL_Guitar,6,4,koumoururiko,0.9988419413566589,1
55,100,0.2409090909090909,92,0,12,DL_Guitar,6,4,koumoururiko,0.13724744319915771,0
55,100,0.2409090909090909,163,0,12,DL_Guitar,6,4,koumoururiko,0.1597748100757599,0
60,100,0.1,682,1,12,DL_Guitar,6,2,koumoururiko,0.18645113706588745,0
55,100,0.2818181818181818,795,0,12,DL_Guitar,6,5,koumoururiko,0.25815603137016296,0
55,100,0.16363636363636364,3,1,13,DL_Guitar,6,3,koumoururiko,0.9990229606628418,1
60,100,0.1,202,0,13,DL_Guitar,6,2,koumoururiko,0.3666219413280487,0
55,100,0.1,391,0,13,DL_Guitar,6,2,koumoururiko,0.4532814025878906,0
55,100,0.2590909090909091,194,1,14,DL_Guitar,6,4,koumoururiko,0.9990229606628418,1
57,100,0.2409090909090909,409,0,14,DL_Guitar,6,4,koumoururiko,0.36661842465400696,0
62,100,0.37727272727272726,809,1,14,DL_Guitar,6,6,koumoururiko,0.45329350233078003,0
55,100,0.21818181818181817,220,1,15,DL_Guitar,6,3,koumoururiko,0.979256272315979,0
62,100,0.23636363636363636,281,1,16,DL_Guitar,6,4,koumoururiko,0.9988419413566589,1
56,100,0.17727272727272728,492,0,16,DL_Guitar,6,3,koumoururiko,0.13724961876869202,0
55,100,0.2590909090909091,550,0,16,DL_Guitar,6,4,koumoururiko,0.15978215634822845,0
55,100,0.21818181818181817,611,0,16,DL_Guitar,6,3,koumoururiko,0.18645232915878296,0
55,100,0.5636363636363636,796,0,16,DL_Guitar,6,9,koumoururiko,0.2581641376018524,0
52,100,0.22272727272727272,48,1,17,DL_Guitar,6,4,koumoururiko,0.9986500144004822,1
52,100,0.1409090909090909,246,0,17,DL_Guitar,6,2,koumoururiko,0.08780553191900253,0
57,100,0.1,430,0,17,DL_Guitar,6,2,koumoururiko,0.09181800484657288,0
81,100,0.1590909090909091,515,0,17,DL_Guitar,6,3,koumoururiko,0.10748650133609772,0
57,100,0.22272727272727272,729,0,17,DL_Guitar,6,4,koumoururiko,0.12483576685190201,0
57,100,0.5181818181818182,814,0,17,DL_Guitar,6,8,koumoururiko,0.1790393888950348,0
62,100,0.1590909090909091,409,1,19,DL_Guitar,6,3,koumoururiko,0.9990229606628418,1
59,100,0.5181818181818182,602,0,19,DL_Guitar,6,8,koumoururiko,0.36662817001342773,0
62,100,0.21818181818181817,858,1,19,DL_Guitar,6,3,koumoururiko,0.45329347252845764,0
59,100,0.2409090909090909,48,1,20,DL_Guitar,6,4,koumoururiko,0.9986500144004822,1
62,100,0.5409090909090909,229,0,20,DL_Guitar,6,9,koumoururiko,0.08780430257320404,0
62,100,0.11818181818181818,370,0,20,DL_Guitar,6,2,koumoururiko,0.09181935340166092,0
62,100,0.11818181818181818,436,0,20,DL_Guitar,6,2,koumoururiko,0.10748457908630371,0
62,100,0.22272727272727272,739,1,20,DL_Guitar,6,4,koumoururiko,0.12483759224414825,0
62,100,0.7227272727272728,870,0,20,DL_Guitar,6,12,koumoururiko,0.17904919385910034,0
57,100,0.11818181818181818,150,1,21,DL_Guitar,6,2,koumoururiko,0.9990057349205017,1
62,100,0.11818181818181818,175,0,21,DL_Guitar,6,2,koumoururiko,0.23120766878128052,0
62,100,0.2,501,1,21,DL_Guitar,6,3,koumoururiko,0.26592445373535156,0
62,100,0.13636363636363635,567,0,21,DL_Guitar,6,2,koumoururiko,0.3542064130306244,0
60,100,0.1590909090909091,237,1,22,DL_Guitar,6,3,koumoururiko,0.9990057349205017,1
60,100,0.12272727272727273,312,0,22,DL_Guitar,6,2,koumoururiko,0.23120161890983582,0
60,100,0.3409090909090909,443,0,22,DL_Guitar,6,5,koumoururiko,0.26592499017715454,0
55,100,0.1590909090909091,646,0,22,DL_Guitar,6,3,koumoururiko,0.3541888892650604,0
59,100,0.12272727272727273,158,1,23,DL_Guitar,6,2,koumoururiko,0.9983003735542297,1
59,100,0.4590909090909091,250,0,23,DL_Guitar,6,7,koumoururiko,0.0446632094681263,0
59,100,0.1409090909090909,430,0,23,DL_Guitar,6,2,koumoururiko,0.03314923867583275,0
59,100,0.17727272727272728,492,0,23,DL_Guitar,6,3,koumoururiko,0.026579156517982483,0
59,100,0.2590909090909091,571,0,23,DL_Guitar,6,4,koumoururiko,0.023594597354531288,0
59,100,0.2,633,0,23,DL_Guitar,6,3,koumoururiko,0.024314744397997856,0
59,100,0.5,681,0,23,DL_Guitar,6,8,koumoururiko,0.02968939207494259,0
59,100,0.1409090909090909,801,0,23,DL_Guitar,6,2,koumoururiko,0.040077175945043564,0
59,100,0.2,862,0,23,DL_Guitar,6,3,koumoururiko,0.07093095779418945,0
64,100,0.1590909090909091,44,1,24,DL_Guitar,6,3,koumoururiko,0.9986500144004822,1
59,100,0.8363636363636363,127,0,24,DL_Guitar,6,13,koumoururiko,0.08780086785554886,0
52,100,0.3,320,0,24,DL_Guitar,6,5,koumoururiko,0.091816246509552,0
59,100,0.17727272727272728,413,0,24,DL_Guitar,6,3,koumoururiko,0.10747959464788437,0
59,100,0.9,567,0,24,DL_Guitar,6,14,koumoururiko,0.1248275488615036,0
59,100,0.3409090909090909,801,1,24,DL_Guitar,6,5,koumoururiko,0.17903561890125275,0
59,100,0.2,281,1,25,DL_Guitar,6,3,koumoururiko,0.9986500144004822,1
59,100,0.17727272727272728,413,0,25,DL_Guitar,6,3,koumoururiko,0.08780262619256973,0
62,100,0.2590909090909091,567,0,25,DL_Guitar,6,4,koumoururiko,0.09181344509124756,0
59,100,0.5772727272727273,625,0,25,DL_Guitar,6,9,koumoururiko,0.10747934132814407,0
62,100,0.3,756,0,25,DL_Guitar,6,5,koumoururiko,0.1248294934630394,0
59,100,0.16363636363636364,862,0,25,DL_Guitar,6,3,koumoururiko,0.17903867363929749,0
60,100,0.2409090909090909,387,1,26,DL_Guitar,6,4,koumoururiko,0.9988419413566589,1
60,100,0.4,480,0,26,DL_Guitar,6,6,koumoururiko,0.13724835216999054,0
55,100,0.22272727272727272,584,0,26,DL_Guitar,6,4,koumoururiko,0.15977734327316284,0
60,100,0.1590909090909091,760,0,26,DL_Guitar,6,3,koumoururiko,0.1864514946937561,0
60,100,0.2,839,0,26,DL_Guitar,6,3,koumoururiko,0.25816524028778076,0
60,100,0.740909090909091,57,1,27,DL_Guitar,6,12,koumoururiko,0.9988419413566589,1
55,100,0.11818181818181818,250,0,27,DL_Guitar,6,2,koumoururiko,0.1372498869895935,0
60,100,0.1590909090909091,285,0,27,DL_Guitar,6,3,koumoururiko,0.15978126227855682,0
57,100,0.1590909090909091,735,1,27,DL_Guitar,6,3,koumoururiko,0.1864490807056427,0
57,100,0.35909090909090907,835,0,27,DL_Guitar,6,6,koumoururiko,0.25816476345062256,0
62,100,0.2409090909090909,44,1,28,DL_Guitar,6,4,koumoururiko,0.9988419413566589,1
62,100,0.4409090909090909,131,0,28,DL_Guitar,6,7,koumoururiko,0.1372555047273636,0
57,100,0.5590909090909091,360,0,28,DL_Guitar,6,9,koumoururiko,0.15978321433067322,0
57,100,0.17727272727272728,515,0,28,DL_Guitar,6,3,koumoururiko,0.18646270036697388,0
62,100,0.740909090909091,725,0,28,DL_Guitar,6,12,koumoururiko,0.25817304849624634,0
62,100,0.11818181818181818,40,1,29,DL_Guitar,6,2,koumoururiko,0.9983736276626587,1
59,100,0.17727272727272728,75,0,29,DL_Guitar,6,3,koumoururiko,0.05106149986386299,0
62,100,0.42272727272727273,202,0,29,DL_Guitar,6,7,koumoururiko,0.04130466282367706,0
55,100,0.5409090909090909,382,0,29,DL_Guitar,6,9,koumoururiko,0.03738727048039436,0
59,100,0.11818181818181818,523,0,29,DL_Guitar,6,2,koumoururiko,0.038331497460603714,0
62,100,0.23636363636363636,567,0,29,DL_Guitar,6,4,koumoururiko,0.04475479573011398,0
62,100,0.3409090909090909,629,0,29,DL_Guitar,6,5,koumoururiko,0.05523356422781944,0
57,100,0.6181818181818182,756,0,29,DL_Guitar,6,10,koumoururiko,0.09026896953582764,0
57,100,0.5590909090909091,144,1,30,DL_Guitar,6,9,koumoururiko,0.9990057349205017,1
57,100,0.37727272727272726,339,0,30,DL_Guitar,6,6,koumoururiko,0.23120872676372528,0
62,100,0.2409090909090909,422,0,30,DL_Guitar,6,4,koumoururiko,0.2659296691417694,0
57,100,0.6181818181818182,660,1,30,DL_Guitar,6,10,koumoururiko,0.35419633984565735,0
57,100,0.4636363636363636,48,1,31,DL_Guitar,6,7,koumoururiko,0.9986500144004822,1
57,100,0.2409090909090909,223,0,31,DL_Guitar,6,4,koumoururiko,0.0878058522939682,0
57,100,0.6409090909090909,285,0,31,DL_Guitar,6,10,koumoururiko,0.09181755781173706,0
57,100,0.3,474,0,31,DL_Guitar,6,5,koumoururiko,0.1074831634759903,0
57,100,0.12272727272727273,629,0,31,DL_Guitar,6,2,koumoururiko,0.12483419477939606,0
57,100,0.5181818181818182,810,0,31,DL_Guitar,6,8,koumoururiko,0.17903608083724976,0
57,100,0.1409090909090909,48,1,32,DL_Guitar,6,2,koumoururiko,0.9983736276626587,1
57,100,0.2,114,0,32,DL_Guitar,6,3,koumoururiko,0.05106208845973015,0
59,100,0.22272727272727272,246,0,32,DL_Guitar,6,4,koumoururiko,0.04130353033542633,0
59,100,0.11818181818181818,316,0,32,DL_Guitar,6,2,koumoururiko,0.03738706186413765,0
59,100,0.3,361,0,32,DL_Guitar,6,5,koumoururiko,0.03833024203777313,0
62,100,0.11818181818181818,590,0,32,DL_Guitar,6,2,koumoururiko,0.04475264996290207,0
57,100,0.18181818181818182,641,0,32,DL_Guitar,6,3,koumoururiko,0.05522980913519859,0
55,100,0.21818181818181817,691,0,32,DL_Guitar,6,3,koumoururiko,0.09026799350976944,0
55,100,0.1409090909090909,21,1,33,DL_Guitar,6,2,koumoururiko,0.9986500144004822,1
59,100,0.11818181818181818,131,0,33,DL_Guitar,6,2,koumoururiko,0.08780205249786377,0
57,100,0.3,241,0,33,DL_Guitar,6,5,koumoururiko,0.091812364757061,0
60,100,0.35909090909090907,581,1,33,DL_Guitar,6,6,koumoururiko,0.10747640579938889,0
60,100,0.2636363636363636,708,0,33,DL_Guitar,6,4,koumoururiko,0.1248253807425499,0
59,100,0.2,778,0,33,DL_Guitar,6,3,koumoururiko,0.17903128266334534,0
65,100,0.11818181818181818,435,1,34,DL_Guitar,6,2,koumoururiko,0.979256272315979,0
62,100,0.2772727272727273,31,1,35,DL_Guitar,6,4,koumoururiko,0.9988419413566589,1
52,100,0.38181818181818183,110,0,35,DL_Guitar,6,6,koumoururiko,0.13725195825099945,0
52,100,0.21818181818181817,251,0,35,DL_Guitar,6,3,koumoururiko,0.15978358685970306,0
59,100,0.6409090909090909,466,0,35,DL_Guitar,6,10,koumoururiko,0.1864573210477829,0
57,100,1.059090909090909,628,0,35,DL_Guitar,6,15,koumoururiko,0.2581670582294464,0
52,100,0.2409090909090909,4,1,36,DL_Guitar,6,4,koumoururiko,0.9990230798721313,1
57,100,0.9818181818181818,110,0,36,DL_Guitar,6,15,koumoururiko,0.36661937832832336,0
59,100,0.5,761,1,36,DL_Guitar,6,8,koumoururiko,0.4532911479473114,0
67,100,0.2590909090909091,13,1,37,DL_Guitar,6,4,koumoururiko,0.9984880685806274,1
55,100,0.22272727272727272,78,0,37,DL_Guitar,6,4,koumoururiko,0.06334533542394638,0
62,100,0.2,131,0,37,DL_Guitar,6,3,koumoururiko,0.05774197354912758,0
64,100,0.38181818181818183,179,0,37,DL_Guitar,6,6,koumoururiko,0.06020228937268257,0
64,100,0.35909090909090907,435,1,37,DL_Guitar,6,6,koumoururiko,0.06970304995775223,0
67,100,0.1,531,0,37,DL_Guitar,6,2,koumoururiko,0.08189617097377777,0
55,100,0.21818181818181817,655,0,37,DL_Guitar,6,3,koumoururiko,0.12402113527059555,0
71,100,0.37727272727272726,53,1,38,DL_Guitar,6,6,koumoururiko,0.9983736276626587,1
55,100,0.11818181818181818,150,0,38,DL_Guitar,6,2,koumoururiko,0.051060810685157776,0
62,100,0.18181818181818182,220,0,38,DL_Guitar,6,3,koumoururiko,0.041302964091300964,0
69,100,0.17727272727272728,281,0,38,DL_Guitar,6,3,koumoururiko,0.037386614829301834,0
71,100,0.18181818181818182,334,0,38,DL_Guitar,6,3,koumoururiko,0.038330934941768646,0
74,100,0.3,396,0,38,DL_Guitar,6,5,koumoururiko,0.04475441202521324,0
69,100,0.22272727272727272,563,0,38,DL_Guitar,6,4,koumoururiko,0.05523109808564186,0
69,100,0.18181818181818182,616,0,38,DL_Guitar,6,3,koumoururiko,0.090269073843956,0
62,100,0.2,131,1,39,DL_Guitar,6,3,koumoururiko,0.9984880685806274,1
67,100,0.2,303,0,39,DL_Guitar,6,3,koumoururiko,0.0633465051651001,0
55,100,0.3181818181818182,348,0,39,DL_Guitar,6,5,koumoururiko,0.05774416774511337,0
62,100,0.1590909090909091,435,0,39,DL_Guitar,6,3,koumoururiko,0.06020355224609375,0
64,100,0.35909090909090907,474,0,39,DL_Guitar,6,6,koumoururiko,0.06970452517271042,0
67,100,0.21818181818181817,558,0,39,DL_Guitar,6,3,koumoururiko,0.08189649879932404,0
64,100,0.3,738,0,39,DL_Guitar,6,5,koumoururiko,0.12402673810720444,0
64,100,0.2,88,1,40,DL_Guitar,6,3,koumoururiko,0.9984880685806274,1
64,100,0.16363636363636364,136,0,40,DL_Guitar,6,3,koumoururiko,0.06334611028432846,0
55,100,0.1,201,0,40,DL_Guitar,6,2,koumoururiko,0.05774705484509468,0
69,100,0.2590909090909091,563,1,40,DL_Guitar,6,4,koumoururiko,0.060203779488801956,0
59,100,0.1409090909090909,646,0,40,DL_Guitar,6,2,koumoururiko,0.06970687210559845,0
74,100,0.2818181818181818,694,0,40,DL_Guitar,6,5,koumoururiko,0.08190015703439713,0
69,100,0.6181818181818182,858,0,40,DL_Guitar,6,10,koumoururiko,0.12401934713125229,0
62,100,0.5590909090909091,321,1,41,DL_Guitar,6,9,koumoururiko,0.9990057349205017,1
55,100,0.2,584,1,41,DL_Guitar,6,3,koumoururiko,0.23120731115341187,0
59,100,0.5590909090909091,713,0,41,DL_Guitar,6,9,koumoururiko,0.26593074202537537,0
55,100,0.2,839,0,41,DL_Guitar,6,3,koumoururiko,0.3541942834854126,0
55,100,0.2,101,1,42,DL_Guitar,6,3,koumoururiko,0.9984880685806274,1
55,100,0.1590909090909091,150,0,42,DL_Guitar,6,3,koumoururiko,0.06334557384252548,0
55,100,0.3409090909090909,201,0,42,DL_Guitar,6,5,koumoururiko,0.057742565870285034,0
59,100,0.6409090909090909,351,0,42,DL_Guitar,6,10,koumoururiko,0.06020118296146393,0
55,100,0.2772727272727273,515,0,42,DL_Guitar,6,4,koumoururiko,0.06970382481813431,0
57,100,1.1409090909090909,606,0,42,DL_Guitar,6,15,koumoururiko,0.0818934515118599,0
64,100,1.1409090909090909,871,1,42,DL_Guitar,6,15,koumoururiko,0.12402475625276566,0
57,100,0.1409090909090909,241,1,43,DL_Guitar,6,2,koumoururiko,0.9986500144004822,1
81,100,0.3181818181818182,273,0,43,DL_Guitar,6,5,koumoururiko,0.08780483901500702,0
57,100,0.3,413,0,43,DL_Guitar,6,5,koumoururiko,0.09181807935237885,0
57,100,0.16363636363636364,509,0,43,DL_Guitar,6,3,koumoururiko,0.10748504102230072,0
55,100,0.6,611,0,43,DL_Guitar,6,10,koumoururiko,0.1248306855559349,0
60,100,0.1590909090909091,875,1,43,DL_Guitar,6,3,koumoururiko,0.17904068529605865,0
60,100,0.5590909090909091,61,1,44,DL_Guitar,6,9,koumoururiko,0.9988419413566589,1
60,100,0.16363636363636364,224,0,44,DL_Guitar,6,3,koumoururiko,0.1372501105070114,0
62,100,0.33636363636363636,348,0,44,DL_Guitar,6,5,koumoururiko,0.15978027880191803,0
60,100,0.5590909090909091,496,0,44,DL_Guitar,6,9,koumoururiko,0.18644964694976807,0
74,100,0.35909090909090907,660,0,44,DL_Guitar,6,6,koumoururiko,0.258168488740921,0
60,100,0.12272727272727273,69,1,51,DL_Guitar,6,2,koumoururiko,0.9792566299438477,1
62,100,0.1,361,1,52,DL_Guitar,6,2,koumoururiko,0.9792560338973999,0
60,100,0.38181818181818183,311,1,53,DL_Guitar,6,6,koumoururiko,0.9990230798721313,1
60,100,1.1409090909090909,471,0,53,DL_Guitar,6,15,koumoururiko,0.36661675572395325,0
60,100,0.2,861,1,53,DL_Guitar,6,3,koumoururiko,0.453298419713974,0
60,100,0.4772727272727273,53,1,54,DL_Guitar,6,8,koumoururiko,0.9990229606628418,1
59,100,0.16363636363636364,224,0,54,DL_Guitar,6,3,koumoururiko,0.36662235856056213,0
59,100,0.11818181818181818,743,1,54,DL_Guitar,6,2,koumoururiko,0.4532921314239502,0
62,100,0.2590909090909091,123,1,57,DL_Guitar,6,4,koumoururiko,0.9792560338973999,0
59,100,0.2636363636363636,114,1,63,DL_Guitar,6,4,koumoururiko,0.9983165264129639,1
58,100,0.13636363636363635,501,1,63,DL_Guitar,6,2,koumoururiko,0.5445581078529358,0
59,100,0.1,360,1,65,DL_Guitar,6,2,koumoururiko,0.9988419413566589,1
59,100,0.1,386,0,65,DL_Guitar,6,2,koumoururiko,0.13725027441978455,0
59,100,0.2636363636363636,422,0,65,DL_Guitar,6,4,koumoururiko,0.15977659821510315,0
59,100,0.4409090909090909,506,0,65,DL_Guitar,6,7,koumoururiko,0.18644832074642181,0
59,100,0.5409090909090909,624,0,65,DL_Guitar,6,9,koumoururiko,0.2581633925437927,0
57,100,0.41818181818181815,9,1,66,DL_Guitar,6,7,koumoururiko,0.9792558550834656,0
59,100,0.2409090909090909,443,1,77,DL_Guitar,6,4,koumoururiko,0.9983165264129639,1
57,100,0.23636363636363636,700,1,77,DL_Guitar,6,4,koumoururiko,0.5445587038993835,0
57,100,0.2409090909090909,0,1,78,DL_Guitar,6,4,koumoururiko,0.9988419413566589,1
57,100,0.1,83,0,78,DL_Guitar,6,2,koumoururiko,0.13725024461746216,0
57,100,0.22272727272727272,145,0,78,DL_Guitar,6,4,koumoururiko,0.15977753698825836,0
57,100,0.11818181818181818,294,0,78,DL_Guitar,6,2,koumoururiko,0.18645070493221283,0
59,100,0.1,360,0,78,DL_Guitar,6,2,koumoururiko,0.25817230343818665,0
62,100,0.2818181818181818,0,1,94,DL_Guitar,6,5,koumoururiko,0.9982553124427795,1
62,100,0.11818181818181818,110,0,94,DL_Guitar,6,2,koumoururiko,0.04128851741552353,0
62,100,0.1409090909090909,229,0,94,DL_Guitar,6,2,koumoururiko,0.028935404494404793,0
64,100,0.35909090909090907,260,0,94,DL_Guitar,6,6,koumoururiko,0.021289777010679245,0
55,100,0.17727272727272728,347,0,94,DL_Guitar,6,3,koumoururiko,0.016746319830417633,0
62,100,0.21818181818181817,413,0,94,DL_Guitar,6,3,koumoururiko,0.014919392764568329,0
62,100,0.13636363636363635,480,0,94,DL_Guitar,6,2,koumoururiko,0.016017133370041847,0
64,100,0.3409090909090909,514,0,94,DL_Guitar,6,5,koumoururiko,0.02118057571351528,0
67,100,0.5590909090909091,590,0,94,DL_Guitar,6,9,koumoururiko,0.03156775236129761,0
66,100,0.13636363636363635,876,1,94,DL_Guitar,6,2,koumoururiko,0.060062654316425323,0
71,100,0.3,47,1,95,DL_Guitar,6,5,koumoururiko,0.9984880685806274,1
71,100,0.3,150,0,95,DL_Guitar,6,5,koumoururiko,0.06334588676691055,0
66,100,0.2,233,0,95,DL_Guitar,6,3,koumoururiko,0.05774284526705742,0
62,100,0.1,307,0,95,DL_Guitar,6,2,koumoururiko,0.06020241975784302,0
71,100,0.17727272727272728,413,0,95,DL_Guitar,6,3,koumoururiko,0.06970574706792831,0
69,100,0.22272727272727272,805,1,95,DL_Guitar,6,4,koumoururiko,0.08189850300550461,0
67,100,1.259090909090909,876,0,95,DL_Guitar,6,15,koumoururiko,0.12402264773845673,0
62,100,0.12272727272727273,365,1,96,DL_Guitar,6,2,koumoururiko,0.9984880685806274,1
64,100,0.13636363636363635,392,0,96,DL_Guitar,6,2,koumoururiko,0.06334667652845383,0
62,100,0.1409090909090909,506,0,96,DL_Guitar,6,2,koumoururiko,0.057743754237890244,0
64,100,0.38181818181818183,540,0,96,DL_Guitar,6,6,koumoururiko,0.06020470708608627,0
62,100,0.11818181818181818,726,0,96,DL_Guitar,6,2,koumoururiko,0.06970405578613281,0
62,100,0.17727272727272728,756,0,96,DL_Guitar,6,3,koumoururiko,0.0818992555141449,0
64,100,0.3409090909090909,796,0,96,DL_Guitar,6,5,koumoururiko,0.12402757257223129,0
67,100,0.5818181818181818,0,1,97,DL_Guitar,6,9,koumoururiko,0.9986500144004822,1
69,100,0.21818181818181817,132,0,97,DL_Guitar,6,3,koumoururiko,0.08780457079410553,0
71,100,0.8,330,0,97,DL_Guitar,6,13,koumoururiko,0.09181343019008636,0
66,100,0.1,536,0,97,DL_Guitar,6,2,koumoururiko,0.1074787825345993,0
62,100,0.2590909090909091,567,0,97,DL_Guitar,6,4,koumoururiko,0.1248251274228096,0
69,100,0.1409090909090909,650,0,97,DL_Guitar,6,2,koumoururiko,0.1790340393781662,0
69,100,0.18181818181818182,233,1,98,DL_Guitar,6,3,koumoururiko,0.9983165264129639,1
67,100,0.12272727272727273,399,0,98,DL_Guitar,6,2,koumoururiko,0.5445585250854492,0
57,100,0.18181818181818182,356,1,0,DL_JapaneseFolk_Guitar,6,3,koumouJapaneseFolk,0.9990057349205017,1
61,100,0.17727272727272728,524,0,0,DL_JapaneseFolk_Guitar,6,3,koumouJapaneseFolk,0.23120354115962982,0
54,100,0.18181818181818182,717,0,0,DL_JapaneseFolk_Guitar,6,3,koumouJapaneseFolk,0.26592111587524414,0
52,100,0.2590909090909091,849,0,0,DL_JapaneseFolk_Guitar,6,4,koumouJapaneseFolk,0.3541960120201111,0
57,100,0.3181818181818182,30,1,1,DL_JapaneseFolk_Guitar,6,5,koumouJapaneseFolk,0.9986500144004822,1
59,100,0.37727272727272726,149,0,1,DL_JapaneseFolk_Guitar,6,6,koumouJapaneseFolk,0.08780553191900253,0
59,100,0.2409090909090909,290,0,1,DL_JapaneseFolk_Guitar,6,4,koumouJapaneseFolk,0.09181530028581619,0
57,100,0.2772727272727273,479,0,1,DL_JapaneseFolk_Guitar,6,4,koumouJapaneseFolk,0.10747817903757095,0
57,100,0.7,673,0,1,DL_JapaneseFolk_Guitar,6,11,koumouJapaneseFolk,0.12482566386461258,0
54,100,0.3,866,0,1,DL_JapaneseFolk_Guitar,6,5,koumouJapaneseFolk,0.1790405511856079,0
52,100,0.5590909090909091,57,1,2,DL_JapaneseFolk_Guitar,6,9,koumouJapaneseFolk,0.9988419413566589,1
57,100,0.2818181818181818,180,0,2,DL_JapaneseFolk_Guitar,6,5,koumouJapaneseFolk,0.13725070655345917,0
57,100,0.2590909090909091,633,1,2,DL_JapaneseFolk_Guitar,6,4,koumouJapaneseFolk,0.1597837209701538,0
59,100,0.2590909090909091,703,0,2,DL_JapaneseFolk_Guitar,6,4,koumouJapaneseFolk,0.1864558756351471,0
57,100,0.740909090909091,822,0,2,DL_JapaneseFolk_Guitar,6,12,koumouJapaneseFolk,0.2581648826599121,0
54,100,0.1409090909090909,144,1,3,DL_JapaneseFolk_Guitar,6,2,koumouJapaneseFolk,0.9988420605659485,1
57,100,0.9,201,0,3,DL_JapaneseFolk_Guitar,6,14,koumouJapaneseFolk,0.13724669814109802,0
52,100,0.2409090909090909,466,1,3,DL_JapaneseFolk_Guitar,6,4,koumouJapaneseFolk,0.1597801297903061,0
52,100,0.1590909090909091,611,0,3,DL_JapaneseFolk_Guitar,6,3,koumouJapaneseFolk,0.1864483505487442,0
52,100,0.11818181818181818,788,0,3,DL_JapaneseFolk_Guitar,6,2,koumouJapaneseFolk,0.258172869682312,0
59,100,0.6409090909090909,91,1,4,DL_JapaneseFolk_Guitar,6,10,koumouJapaneseFolk,0.9986500144004822,1
56,100,0.2,307,0,4,DL_JapaneseFolk_Guitar,6,3,koumouJapaneseFolk,0.08779997378587723,0
64,100,0.21818181818181817,373,0,4,DL_JapaneseFolk_Guitar,6,3,koumouJapaneseFolk,0.0918126106262207,0
52,100,0.22272727272727272,421,0,4,DL_JapaneseFolk_Guitar,6,4,koumouJapaneseFolk,0.10747447609901428,0
59,100,0.1409090909090909,509,0,4,DL_JapaneseFolk_Guitar,6,2,koumouJapaneseFolk,0.12482432276010513,0
59,100,0.6590909090909091,637,0,4,DL_JapaneseFolk_Guitar,6,11,koumouJapaneseFolk,0.17902612686157227,0
61,100,0.1590909090909091,128,1,5,DL_JapaneseFolk_Guitar,6,3,koumouJapaneseFolk,0.9986500144004822,1
57,100,0.740909090909091,242,0,5,DL_JapaneseFolk_Guitar,6,12,koumouJapaneseFolk,0.08780542016029358,0
52,100,0.1590909090909091,452,0,5,DL_JapaneseFolk_Guitar,6,3,koumouJapaneseFolk,0.09182041883468628,0
52,100,0.3409090909090909,496,0,5,DL_JapaneseFolk_Guitar,6,5,koumouJapaneseFolk,0.10748396068811417,0
52,100,0.38181818181818183,761,1,5,DL_JapaneseFolk_Guitar,6,6,koumouJapaneseFolk,0.12483472377061844,0
57,100,0.5181818181818182,844,0,5,DL_JapaneseFolk_Guitar,6,8,koumouJapaneseFolk,0.17903544008731842,0
57,100,0.4,207,1,6,DL_JapaneseFolk_Guitar,6,6,koumouJapaneseFolk,0.9990057349205017,1
52,100,0.1,307,0,6,DL_JapaneseFolk_Guitar,6,2,koumouJapaneseFolk,0.2312081754207611,0
57,100,0.8772727272727273,391,0,6,DL_JapaneseFolk_Guitar,6,14,koumouJapaneseFolk,0.26591506600379944,0
52,100,0.6181818181818182,593,0,6,DL_JapaneseFolk_Guitar,6,10,koumouJapaneseFolk,0.35419905185699463,0
57,100,0.3181818181818182,40,1,7,DL_JapaneseFolk_Guitar,6,5,koumouJapaneseFolk,0.9990230798721313,1
52,100,0.2590909090909091,110,0,7,DL_JapaneseFolk_Guitar,6,4,koumouJapaneseFolk,0.36663398146629333,0
57,100,0.3181818181818182,545,1,7,DL_JapaneseFolk_Guitar,6,5,koumouJapaneseFolk,0.4532894790172577,0
59,100,0.36363636363636365,180,1,8,DL_JapaneseFolk_Guitar,6,6,koumouJapaneseFolk,0.9792556166648865,0
57,100,0.23636363636363636,17,1,9,DL_JapaneseFolk_Guitar,6,4,koumouJapaneseFolk,0.9990230798721313,1
62,100,0.3181818181818182,646,1,9,DL_JapaneseFolk_Guitar,6,5,koumouJapaneseFolk,0.3666297197341919,0
57,100,0.5590909090909091,876,0,9,DL_JapaneseFolk_Guitar,6,9,koumouJapaneseFolk,0.4532966911792755,0
62,100,0.5409090909090909,233,1,10,DL_JapaneseFolk_Guitar,6,9,koumouJapaneseFolk,0.9990057349205017,1
57,100,0.2818181818181818,355,0,10,DL_JapaneseFolk_Guitar,6,5,koumouJapaneseFolk,0.2312021553516388,0
62,100,0.11818181818181818,470,0,10,DL_JapaneseFolk_Guitar,6,2,koumouJapaneseFolk,0.2659252882003784,0
52,100,0.3,818,1,10,DL_JapaneseFolk_Guitar,6,5,koumouJapaneseFolk,0.3542081415653229,0
56,100,0.7,395,1,11,DL_JapaneseFolk_Guitar,6,11,koumouJapaneseFolk,0.979255735874176,0
66,100,0.12272727272727273,79,1,12,DL_JapaneseFolk_Guitar,6,2,koumouJapaneseFolk,0.9986500144004822,1
66,100,0.1409090909090909,110,0,12,DL_JapaneseFolk_Guitar,6,2,koumouJapaneseFolk,0.08780369162559509,0
69,100,0.2636363636363636,202,0,12,DL_JapaneseFolk_Guitar,6,4,koumouJapaneseFolk,0.09181404858827591,0
57,100,0.35909090909090907,259,0,12,DL_JapaneseFolk_Guitar,6,6,koumouJapaneseFolk,0.10748112946748734,0
56,100,0.1409090909090909,488,0,12,DL_JapaneseFolk_Guitar,6,2,koumouJapaneseFolk,0.12482801079750061,0
68,100,0.2409090909090909,730,1,12,DL_JapaneseFolk_Guitar,6,4,koumouJapaneseFolk,0.17902801930904388,0
71,100,0.2818181818181818,355,1,13,DL_JapaneseFolk_Guitar,6,5,koumouJapaneseFolk,0.9988419413566589,1
56,100,0.18181818181818182,440,0,13,DL_JapaneseFolk_Guitar,6,3,koumouJapaneseFolk,0.13724848628044128,0
57,100,0.2590909090909091,625,0,13,DL_JapaneseFolk_Guitar,6,4,koumouJapaneseFolk,0.15977707505226135,0
56,100,0.2,818,0,13,DL_JapaneseFolk_Guitar,6,3,koumouJapaneseFolk,0.18644748628139496,0
64,100,0.2772727272727273,876,0,13,DL_JapaneseFolk_Guitar,6,4,koumouJapaneseFolk,0.25817203521728516,0
56,100,0.17727272727272728,75,1,14,DL_JapaneseFolk_Guitar,6,3,koumouJapaneseFolk,0.9988419413566589,1
57,100,0.2409090909090909,448,1,14,DL_JapaneseFolk_Guitar,6,4,koumouJapaneseFolk,0.13724792003631592,0
62,100,0.2409090909090909,510,0,14,DL_JapaneseFolk_Guitar,6,4,koumouJapaneseFolk,0.15978077054023743,0
57,100,0.32272727272727275,642,0,14,DL_JapaneseFolk_Guitar,6,5,koumouJapaneseFolk,0.1864507645368576,0
52,100,0.1409090909090909,770,0,14,DL_JapaneseFolk_Guitar,6,2,koumouJapaneseFolk,0.2581787407398224,0
71,100,0.2,140,1,15,DL_JapaneseFolk_Guitar,6,3,koumouJapaneseFolk,0.9986500144004822,1
57,100,0.12272727272727273,189,0,15,DL_JapaneseFolk_Guitar,6,2,koumouJapaneseFolk,0.0878034383058548,0
57,100,0.6,254,0,15,DL_JapaneseFolk_Guitar,6,10,koumouJapaneseFolk,0.09181568771600723,0
52,100,0.6409090909090909,465,0,15,DL_JapaneseFolk_Guitar,6,10,koumouJapaneseFolk,0.1074838936328888,0
57,100,0.1,716,1,15,DL_JapaneseFolk_Guitar,6,2,koumouJapaneseFolk,0.12482765316963196,0
52,100,0.6363636363636364,766,0,15,DL_JapaneseFolk_Guitar,6,10,koumouJapaneseFolk,0.17904561758041382,0
52,100,0.2,119,1,16,DL_JapaneseFolk_Guitar,6,3,koumouJapaneseFolk,0.9988419413566589,1
64,100,0.2772727272727273,216,0,16,DL_JapaneseFolk_Guitar,6,4,koumouJapaneseFolk,0.1372472047805786,0
52,100,0.13636363636363635,326,0,16,DL_JapaneseFolk_Guitar,6,2,koumouJapaneseFolk,0.15977367758750916,0
64,100,0.1409090909090909,374,0,16,DL_JapaneseFolk_Guitar,6,2,koumouJapaneseFolk,0.1864510178565979,0
52,100,0.37727272727272726,413,0,16,DL_JapaneseFolk_Guitar,6,6,koumouJapaneseFolk,0.25817471742630005,0
52,100,0.5,299,1,17,DL_JapaneseFolk_Guitar,6,8,koumouJapaneseFolk,0.9990229606628418,1
52,100,0.6409090909090909,430,0,17,DL_JapaneseFolk_Guitar,6,10,koumouJapaneseFolk,0.3666219413280487,0
64,100,0.11818181818181818,625,0,17,DL_JapaneseFolk_Guitar,6,2,koumouJapaneseFolk,0.45329928398132324,0
57,100,0.2590909090909091,198,1,18,DL_JapaneseFolk_Guitar,6,4,koumouJapaneseFolk,0.9990057349205017,1
61,100,0.3181818181818182,326,0,18,DL_JapaneseFolk_Guitar,6,5,koumouJapaneseFolk,0.23119878768920898,0
61,100,0.4,509,0,18,DL_JapaneseFolk_Guitar,6,6,koumouJapaneseFolk,0.2659194767475128,0
52,100,0.5409090909090909,845,1,18,DL_JapaneseFolk_Guitar,6,9,koumouJapaneseFolk,0.35419222712516785,0
68,100,0.4772727272727273,119,1,19,DL_JapaneseFolk_Guitar,6,8,koumouJapaneseFolk,0.9983003735542297,1
52,100,0.1409090909090909,241,0,19,DL_JapaneseFolk_Guitar,6,2,koumouJapaneseFolk,0.04466415196657181,0
59,100,0.2,303,0,19,DL_JapaneseFolk_Guitar,6,3,koumouJapaneseFolk,0.03314926102757454,0
52,100,0.4,382,0,19,DL_JapaneseFolk_Guitar,6,6,koumouJapaneseFolk,0.02657967060804367,0
59,100,0.4,480,0,19,DL_JapaneseFolk_Guitar,6,6,koumouJapaneseFolk,0.023595329374074936,0
59,100,0.11818181818181818,581,0,19,DL_JapaneseFolk_Guitar,6,2,koumouJapaneseFolk,0.024314722046256065,0
68,100,0.18181818181818182,619,0,19,DL_JapaneseFolk_Guitar,6,3,koumouJapaneseFolk,0.02968939207494259,0
62,100,0.2818181818181818,673,0,19,DL_JapaneseFolk_Guitar,6,5,koumouJapaneseFolk,0.040078140795230865,0
59,100,0.32272727272727275,796,0,19,DL_JapaneseFolk_Guitar,6,5,koumouJapaneseFolk,0.07093062251806259,0
54,100,0.5818181818181818,113,1,20,DL_JapaneseFolk_Guitar,6,9,koumouJapaneseFolk,0.9983737468719482,1
66,100,0.2590909090909091,260,0,20,DL_JapaneseFolk_Guitar,6,4,koumouJapaneseFolk,0.05106133967638016,0
54,100,0.1409090909090909,316,0,20,DL_JapaneseFolk_Guitar,6,2,koumouJapaneseFolk,0.04130396991968155,0
66,100,0.11818181818181818,347,0,20,DL_JapaneseFolk_Guitar,6,2,koumouJapaneseFolk,0.03738635405898094,0
54,100,0.2590909090909091,374,0,20,DL_JapaneseFolk_Guitar,6,4,koumouJapaneseFolk,0.038330428302288055,0
61,100,0.3181818181818182,436,0,20,DL_JapaneseFolk_Guitar,6,5,koumouJapaneseFolk,0.04475240781903267,0
69,100,0.4772727272727273,646,0,20,DL_JapaneseFolk_Guitar,6,8,koumouJapaneseFolk,0.05522999167442322,0
66,100,0.3181818181818182,845,0,20,DL_JapaneseFolk_Guitar,6,5,koumouJapaneseFolk,0.09026916325092316,0
66,100,0.1590909090909091,65,1,21,DL_JapaneseFolk_Guitar,6,3,koumouJapaneseFolk,0.9984880685806274,1
66,100,0.2,106,0,21,DL_JapaneseFolk_Guitar,6,3,koumouJapaneseFolk,0.06334387511014938,0
66,100,0.2,210,0,21,DL_JapaneseFolk_Guitar,6,3,koumouJapaneseFolk,0.057741135358810425,0
59,100,0.3409090909090909,409,0,21,DL_JapaneseFolk_Guitar,6,5,koumouJapaneseFolk,0.060198914259672165,0
59,100,0.18181818181818182,528,0,21,DL_JapaneseFolk_Guitar,6,3,koumouJapaneseFolk,0.06969904899597168,0
59,100,0.2590909090909091,594,0,21,DL_JapaneseFolk_Guitar,6,4,koumouJapaneseFolk,0.0818912610411644,0
59,100,0.1,694,0,21,DL_JapaneseFolk_Guitar,6,2,koumouJapaneseFolk,0.12401580810546875,0
68,100,0.1409090909090909,48,1,22,DL_JapaneseFolk_Guitar,6,2,koumouJapaneseFolk,0.9988419413566589,1
59,100,0.21818181818181817,83,0,22,DL_JapaneseFolk_Guitar,6,3,koumouJapaneseFolk,0.13724945485591888,0
59,100,0.12272727272727273,144,0,22,DL_JapaneseFolk_Guitar,6,2,koumouJapaneseFolk,0.15977825224399567,0
59,100,0.6181818181818182,216,0,22,DL_JapaneseFolk_Guitar,6,10,koumouJapaneseFolk,0.1864500194787979,0
69,100,0.18181818181818182,686,1,22,DL_JapaneseFolk_Guitar,6,3,koumouJapaneseFolk,0.2581646740436554,0
52,100,0.1590909090909091,144,1,23,DL_JapaneseFolk_Guitar,6,3,koumouJapaneseFolk,0.9983736276626587,1
59,100,0.2409090909090909,229,0,23,DL_JapaneseFolk_Guitar,6,4,koumouJapaneseFolk,0.05105992406606674,0
52,100,0.1590909090909091,320,0,23,DL_JapaneseFolk_Guitar,6,3,koumouJapaneseFolk,0.04130341112613678,0
62,100,0.1590909090909091,387,0,23,DL_JapaneseFolk_Guitar,6,3,koumouJapaneseFolk,0.03738556429743767,0
52,100,0.4590909090909091,440,0,23,DL_JapaneseFolk_Guitar,6,7,koumouJapaneseFolk,0.03833068907260895,0
53,100,0.6409090909090909,553,0,23,DL_JapaneseFolk_Guitar,6,10,koumouJapaneseFolk,0.04475124552845955,0
65,100,0.1,694,0,23,DL_JapaneseFolk_Guitar,6,2,koumouJapaneseFolk,0.05523109808564186,0
61,100,0.4590909090909091,779,0,23,DL_JapaneseFolk_Guitar,6,7,koumouJapaneseFolk,0.09026481956243515,0
68,100,0.1,3,1,24,DL_JapaneseFolk_Guitar,6,2,koumouJapaneseFolk,0.9983736276626587,1
53,100,0.1,69,0,24,DL_JapaneseFolk_Guitar,6,2,koumouJapaneseFolk,0.05106097832322121,0
54,100,0.5818181818181818,189,0,24,DL_JapaneseFolk_Guitar,6,9,koumouJapaneseFolk,0.041303686797618866,0
66,100,0.6772727272727272,316,0,24,DL_JapaneseFolk_Guitar,6,11,koumouJapaneseFolk,0.0373862162232399,0
54,100,0.1590909090909091,571,1,24,DL_JapaneseFolk_Guitar,6,3,koumouJapaneseFolk,0.03832991048693657,0
54,100,0.1,615,0,24,DL_JapaneseFolk_Guitar,6,2,koumouJapaneseFolk,0.04475206136703491,0
54,100,0.1409090909090909,642,0,24,DL_JapaneseFolk_Guitar,6,2,koumouJapaneseFolk,0.05522909015417099,0
66,100,0.18181818181818182,673,0,24,DL_JapaneseFolk_Guitar,6,3,koumouJapaneseFolk,0.0902666226029396,0
54,100,0.23636363636363636,40,1,25,DL_JapaneseFolk_Guitar,6,4,koumouJapaneseFolk,0.9986500144004822,1
57,100,0.38181818181818183,154,0,25,DL_JapaneseFolk_Guitar,6,6,koumouJapaneseFolk,0.08780106157064438,0
54,100,0.2818181818181818,550,1,25,DL_JapaneseFolk_Guitar,6,5,koumouJapaneseFolk,0.09181477874517441,0
62,100,0.2818181818181818,619,0,25,DL_JapaneseFolk_Guitar,6,5,koumouJapaneseFolk,0.10747671127319336,0
62,100,0.21818181818181817,756,0,25,DL_JapaneseFolk_Guitar,6,3,koumouJapaneseFolk,0.12482678890228271,0
52,100,0.6,866,0,25,DL_JapaneseFolk_Guitar,6,10,koumouJapaneseFolk,0.17903214693069458,0
52,100,0.3,123,1,26,DL_JapaneseFolk_Guitar,6,5,koumouJapaneseFolk,0.9984880685806274,1
52,100,0.18181818181818182,223,0,26,DL_JapaneseFolk_Guitar,6,3,koumouJapaneseFolk,0.06334565579891205,0
64,100,0.11818181818181818,295,0,26,DL_JapaneseFolk_Guitar,6,2,koumouJapaneseFolk,0.05774237588047981,0
52,100,0.5818181818181818,374,0,26,DL_JapaneseFolk_Guitar,6,9,koumouJapaneseFolk,0.06020379438996315,0
59,100,0.4590909090909091,515,0,26,DL_JapaneseFolk_Guitar,6,7,koumouJapaneseFolk,0.06970622390508652,0
64,100,0.35909090909090907,677,0,26,DL_JapaneseFolk_Guitar,6,6,koumouJapaneseFolk,0.08189892768859863,0
68,100,0.2,766,0,26,DL_JapaneseFolk_Guitar,6,3,koumouJapaneseFolk,0.12402714788913727,0
52,100,0.3,17,1,27,DL_JapaneseFolk_Guitar,6,5,koumouJapaneseFolk,0.9988419413566589,1
57,100,0.2409090909090909,136,0,27,DL_JapaneseFolk_Guitar,6,4,koumouJapaneseFolk,0.1372506469488144,0
57,100,0.1590909090909091,260,0,27,DL_JapaneseFolk_Guitar,6,3,koumouJapaneseFolk,0.15978506207466125,0
57,100,0.1590909090909091,528,1,27,DL_JapaneseFolk_Guitar,6,3,koumouJapaneseFolk,0.18645809590816498,0
61,100,0.38181818181818183,835,1,27,DL_JapaneseFolk_Guitar,6,6,koumouJapaneseFolk,0.2581718862056732,0
61,100,0.2,88,1,28,DL_JapaneseFolk_Guitar,6,3,koumouJapaneseFolk,0.9986500144004822,1
52,100,0.5409090909090909,285,0,28,DL_JapaneseFolk_Guitar,6,9,koumouJapaneseFolk,0.08780542016029358,0
59,100,0.3181818181818182,470,0,28,DL_JapaneseFolk_Guitar,6,5,koumouJapaneseFolk,0.09181597828865051,0
52,100,0.2818181818181818,550,0,28,DL_JapaneseFolk_Guitar,6,5,koumouJapaneseFolk,0.10748042166233063,0
52,100,0.4772727272727273,691,0,28,DL_JapaneseFolk_Guitar,6,8,koumouJapaneseFolk,0.12483364343643188,0
62,100,0.2,804,0,28,DL_JapaneseFolk_Guitar,6,3,koumouJapaneseFolk,0.17904216051101685,0
69,100,0.4590909090909091,65,1,29,DL_JapaneseFolk_Guitar,6,7,koumouJapaneseFolk,0.9983736276626587,1
68,100,0.2,189,0,29,DL_JapaneseFolk_Guitar,6,3,koumouJapaneseFolk,0.05106101185083389,0
59,100,0.23636363636363636,237,0,29,DL_JapaneseFolk_Guitar,6,4,koumouJapaneseFolk,0.04130428284406662,0
52,100,0.1,382,0,29,DL_JapaneseFolk_Guitar,6,2,koumouJapaneseFolk,0.037387195974588394,0
66,100,0.3181818181818182,457,0,29,DL_JapaneseFolk_Guitar,6,5,koumouJapaneseFolk,0.03833167627453804,0
54,100,0.11818181818181818,528,0,29,DL_JapaneseFolk_Guitar,6,2,koumouJapaneseFolk,0.044752832502126694,0
66,100,0.740909090909091,584,0,29,DL_JapaneseFolk_Guitar,6,12,koumouJapaneseFolk,0.05523168668150902,0
61,100,0.36363636363636365,752,0,29,DL_JapaneseFolk_Guitar,6,6,koumouJapaneseFolk,0.09026286005973816,0
61,100,0.1590909090909091,40,1,30,DL_JapaneseFolk_Guitar,6,3,koumouJapaneseFolk,0.9986500144004822,1
54,100,0.35909090909090907,110,0,30,DL_JapaneseFolk_Guitar,6,6,koumouJapaneseFolk,0.08780542016029358,0
69,100,0.2818181818181818,198,0,30,DL_JapaneseFolk_Guitar,6,5,koumouJapaneseFolk,0.09181787818670273,0
66,100,0.1409090909090909,333,0,30,DL_JapaneseFolk_Guitar,6,2,koumouJapaneseFolk,0.10748028010129929,0
54,100,0.3409090909090909,453,0,30,DL_JapaneseFolk_Guitar,6,5,koumouJapaneseFolk,0.12483074516057968,0
57,100,0.22272727272727272,532,0,30,DL_JapaneseFolk_Guitar,6,4,koumouJapaneseFolk,0.17903470993041992,0
59,100,0.2409090909090909,44,1,31,DL_JapaneseFolk_Guitar,6,4,koumouJapaneseFolk,0.9990230798721313,1
59,100,0.42272727272727273,399,1,31,DL_JapaneseFolk_Guitar,6,7,koumouJapaneseFolk,0.3666224777698517,0
59,100,0.6181818181818182,559,0,31,DL_JapaneseFolk_Guitar,6,10,koumouJapaneseFolk,0.45328488945961,0
61,100,0.3181818181818182,176,1,32,DL_JapaneseFolk_Guitar,6,5,koumouJapaneseFolk,0.9986500144004822,1
57,100,0.2409090909090909,263,0,32,DL_JapaneseFolk_Guitar,6,4,koumouJapaneseFolk,0.08780553191900253,0
57,100,0.2,330,0,32,DL_JapaneseFolk_Guitar,6,3,koumouJapaneseFolk,0.09181445837020874,0
52,100,0.5590909090909091,383,0,32,DL_JapaneseFolk_Guitar,6,9,koumouJapaneseFolk,0.10747919231653214,0
59,100,0.12272727272727273,598,0,32,DL_JapaneseFolk_Guitar,6,2,koumouJapaneseFolk,0.12483380734920502,0
52,100,0.17727272727272728,845,1,32,DL_JapaneseFolk_Guitar,6,3,koumouJapaneseFolk,0.17903892695903778,0
56,100,0.4818181818181818,166,1,33,DL_JapaneseFolk_Guitar,6,8,koumouJapaneseFolk,0.9988419413566589,1
61,100,0.21818181818181817,316,0,33,DL_JapaneseFolk_Guitar,6,3,koumouJapaneseFolk,0.13724678754806519,0
61,100,0.32272727272727275,431,0,33,DL_JapaneseFolk_Guitar,6,5,koumouJapaneseFolk,0.1597728729248047,0
57,100,0.21818181818181817,791,1,33,DL_JapaneseFolk_Guitar,6,3,koumouJapaneseFolk,0.18644104897975922,0
66,100,0.2590909090909091,853,0,33,DL_JapaneseFolk_Guitar,6,4,koumouJapaneseFolk,0.25816357135772705,0
54,100,0.2772727272727273,31,1,34,DL_JapaneseFolk_Guitar,6,4,koumouJapaneseFolk,0.9988419413566589,1
57,100,0.21818181818181817,105,0,34,DL_JapaneseFolk_Guitar,6,3,koumouJapaneseFolk,0.13724733889102936,0
62,100,0.2636363636363636,289,0,34,DL_JapaneseFolk_Guitar,6,4,koumouJapaneseFolk,0.1597815901041031,0
57,100,0.38181818181818183,378,0,34,DL_JapaneseFolk_Guitar,6,6,koumouJapaneseFolk,0.18644648790359497,0
62,100,0.4590909090909091,545,0,34,DL_JapaneseFolk_Guitar,6,7,koumouJapaneseFolk,0.2581689953804016,0
64,100,0.13636363636363635,18,1,35,DL_JapaneseFolk_Guitar,6,2,koumouJapaneseFolk,0.9988419413566589,1
64,100,0.17727272727272728,171,0,35,DL_JapaneseFolk_Guitar,6,3,koumouJapaneseFolk,0.13724946975708008,0
64,100,0.2,273,0,35,DL_JapaneseFolk_Guitar,6,3,koumouJapaneseFolk,0.15978465974330902,0
57,100,0.2409090909090909,316,0,35,DL_JapaneseFolk_Guitar,6,4,koumouJapaneseFolk,0.1864549219608307,0
61,100,1.240909090909091,444,0,35,DL_JapaneseFolk_Guitar,6,15,koumouJapaneseFolk,0.2581709921360016,0
57,100,0.16363636363636364,334,1,36,DL_JapaneseFolk_Guitar,6,3,koumouJapaneseFolk,0.9988419413566589,1
57,100,0.1409090909090909,444,0,36,DL_JapaneseFolk_Guitar,6,2,koumouJapaneseFolk,0.13725316524505615,0
66,100,0.35909090909090907,651,0,36,DL_JapaneseFolk_Guitar,6,6,koumouJapaneseFolk,0.15978659689426422,0
66,100,0.2,788,0,36,DL_JapaneseFolk_Guitar,6,3,koumouJapaneseFolk,0.1864580661058426,0
57,100,0.5636363636363636,839,0,36,DL_JapaneseFolk_Guitar,6,9,koumouJapaneseFolk,0.25816184282302856,0
57,100,0.4409090909090909,198,1,37,DL_JapaneseFolk_Guitar,6,7,koumouJapaneseFolk,0.9990230798721313,1
52,100,0.6,606,1,37,DL_JapaneseFolk_Guitar,6,10,koumouJapaneseFolk,0.36663350462913513,0
68,100,0.2772727272727273,756,0,37,DL_JapaneseFolk_Guitar,6,4,koumouJapaneseFolk,0.45329195261001587,0
54,100,0.5818181818181818,110,1,38,DL_JapaneseFolk_Guitar,6,9,koumouJapaneseFolk,0.9984880685806274,1
54,100,0.3409090909090909,246,0,38,DL_JapaneseFolk_Guitar,6,5,koumouJapaneseFolk,0.063345767557621,0
57,100,0.1590909090909091,330,0,38,DL_JapaneseFolk_Guitar,6,3,koumouJapaneseFolk,0.05774187296628952,0
64,100,0.2772727272727273,383,0,38,DL_JapaneseFolk_Guitar,6,4,koumouJapaneseFolk,0.06020256504416466,0
54,100,0.1590909090909091,461,0,38,DL_JapaneseFolk_Guitar,6,3,koumouJapaneseFolk,0.06970393657684326,0
54,100,0.4772727272727273,568,0,38,DL_JapaneseFolk_Guitar,6,8,koumouJapaneseFolk,0.08189438283443451,0
54,100,0.1409090909090909,694,0,38,DL_JapaneseFolk_Guitar,6,2,koumouJapaneseFolk,0.12402351200580597,0
66,100,0.22272727272727272,101,1,39,DL_JapaneseFolk_Guitar,6,4,koumouJapaneseFolk,0.9990230798721313,1
66,100,0.2409090909090909,201,0,39,DL_JapaneseFolk_Guitar,6,4,koumouJapaneseFolk,0.36663439869880676,0
69,100,0.1590909090909091,260,0,39,DL_JapaneseFolk_Guitar,6,3,koumouJapaneseFolk,0.4532845914363861,0
52,100,0.5409090909090909,34,1,40,DL_JapaneseFolk_Guitar,6,9,koumouJapaneseFolk,0.9986500144004822,1
59,100,0.32272727272727275,356,1,40,DL_JapaneseFolk_Guitar,6,5,koumouJapaneseFolk,0.08780243247747421,0
52,100,0.18181818181818182,496,0,40,DL_JapaneseFolk_Guitar,6,3,koumouJapaneseFolk,0.09181326627731323,0
59,100,0.36363636363636365,554,0,40,DL_JapaneseFolk_Guitar,6,6,koumouJapaneseFolk,0.10747730731964111,0
59,100,0.1409090909090909,641,0,40,DL_JapaneseFolk_Guitar,6,2,koumouJapaneseFolk,0.12482820451259613,0
68,100,0.2,748,0,40,DL_JapaneseFolk_Guitar,6,3,koumouJapaneseFolk,0.17902813851833344,0
52,100,0.1409090909090909,141,1,41,DL_JapaneseFolk_Guitar,6,2,koumouJapaneseFolk,0.9990229606628418,1
66,100,0.2590909090909091,386,1,41,DL_JapaneseFolk_Guitar,6,4,koumouJapaneseFolk,0.3666203022003174,0
66,100,0.1590909090909091,518,0,41,DL_JapaneseFolk_Guitar,6,3,koumouJapaneseFolk,0.4532983601093292,0
54,100,0.6590909090909091,703,1,42,DL_JapaneseFolk_Guitar,6,11,koumouJapaneseFolk,0.9983165264129639,1
54,100,0.3,853,0,42,DL_JapaneseFolk_Guitar,6,5,koumouJapaneseFolk,0.5445573329925537,0
57,100,0.13636363636363635,61,1,43,DL_JapaneseFolk_Guitar,6,2,koumouJapaneseFolk,0.9984880685806274,1
64,100,0.3181818181818182,105,0,43,DL_JapaneseFolk_Guitar,6,5,koumouJapaneseFolk,0.06334631145000458,0
61,100,0.2409090909090909,176,0,43,DL_JapaneseFolk_Guitar,6,4,koumouJapaneseFolk,0.05774352699518204,0
54,100,0.3409090909090909,276,0,43,DL_JapaneseFolk_Guitar,6,5,koumouJapaneseFolk,0.060206130146980286,0
54,100,0.16363636363636364,356,0,43,DL_JapaneseFolk_Guitar,6,3,koumouJapaneseFolk,0.06970671564340591,0
54,100,0.1590909090909091,431,0,43,DL_JapaneseFolk_Guitar,6,3,koumouJapaneseFolk,0.0818990096449852,0
57,100,0.2,611,0,43,DL_JapaneseFolk_Guitar,6,3,koumouJapaneseFolk,0.12402422726154327,0
61,100,0.38181818181818183,13,1,44,DL_JapaneseFolk_Guitar,6,6,koumouJapaneseFolk,0.9990057349205017,1
64,100,0.13636363636363635,435,1,44,DL_JapaneseFolk_Guitar,6,2,koumouJapaneseFolk,0.23120200634002686,0
52,100,0.11818181818181818,501,0,44,DL_JapaneseFolk_Guitar,6,2,koumouJapaneseFolk,0.2659173309803009,0
52,100,0.4,531,0,44,DL_JapaneseFolk_Guitar,6,6,koumouJapaneseFolk,0.35420334339141846,0
57,100,0.37727272727272726,426,1,46,DL_JapaneseFolk_Guitar,6,6,koumouJapaneseFolk,0.9983165264129639,1
57,100,0.5181818181818182,743,1,46,DL_JapaneseFolk_Guitar,6,8,koumouJapaneseFolk,0.5445610284805298,0
57,100,0.8590909090909091,348,1,47,DL_JapaneseFolk_Guitar,6,14,koumouJapaneseFolk,0.9983165264129639,1
57,100,0.18181818181818182,571,0,47,DL_JapaneseFolk_Guitar,6,3,koumouJapaneseFolk,0.5445618033409119,0
57,100,0.3409090909090909,13,1,48,DL_JapaneseFolk_Guitar,6,5,koumouJapaneseFolk,0.9990057349205017,1
56,100,0.2409090909090909,408,1,48,DL_JapaneseFolk_Guitar,6,4,koumouJapaneseFolk,0.231209859251976,0
59,100,0.1,581,0,48,DL_JapaneseFolk_Guitar,6,2,koumouJapaneseFolk,0.26592329144477844,0
56,100,0.18181818181818182,791,0,48,DL_JapaneseFolk_Guitar,6,3,koumouJapaneseFolk,0.35418701171875,0
56,100,0.18181818181818182,26,1,49,DL_JapaneseFolk_Guitar,6,3,koumouJapaneseFolk,0.9990229606628418,1
59,100,0.1409090909090909,163,0,49,DL_JapaneseFolk_Guitar,6,2,koumouJapaneseFolk,0.3666279911994934,0
54,100,0.4772727272727273,545,1,49,DL_JapaneseFolk_Guitar,6,8,koumouJapaneseFolk,0.45328831672668457,0
54,100,0.21818181818181817,193,1,50,DL_JapaneseFolk_Guitar,6,3,koumouJapaneseFolk,0.9990229606628418,1
61,100,0.2,325,0,50,DL_JapaneseFolk_Guitar,6,3,koumouJapaneseFolk,0.36661458015441895,0
61,100,0.11818181818181818,405,0,50,DL_JapaneseFolk_Guitar,6,2,koumouJapaneseFolk,0.4532892107963562,0
59,100,0.21818181818181817,480,1,51,DL_JapaneseFolk_Guitar,6,3,koumouJapaneseFolk,0.9983165264129639,1
59,100,0.13636363636363635,875,1,51,DL_JapaneseFolk_Guitar,6,2,koumouJapaneseFolk,0.5445569753646851,0
59,100,0.2772727272727273,105,1,52,DL_JapaneseFolk_Guitar,6,4,koumouJapaneseFolk,0.9990057349205017,1
56,100,0.22272727272727272,298,0,52,DL_JapaneseFolk_Guitar,6,4,koumouJapaneseFolk,0.23119455575942993,0
61,100,0.12272727272727273,576,1,52,DL_JapaneseFolk_Guitar,6,2,koumouJapaneseFolk,0.2659217119216919,0
59,100,0.17727272727272728,625,0,52,DL_JapaneseFolk_Guitar,6,3,koumouJapaneseFolk,0.3541947305202484,0
57,100,0.4409090909090909,440,1,53,DL_JapaneseFolk_Guitar,6,7,koumouJapaneseFolk,0.9983165264129639,1
57,100,0.2590909090909091,761,1,53,DL_JapaneseFolk_Guitar,6,4,koumouJapaneseFolk,0.5445578098297119,0
52,100,0.8181818181818182,83,1,54,DL_JapaneseFolk_Guitar,6,13,koumouJapaneseFolk,0.9990057349205017,1
52,100,0.11818181818181818,361,1,54,DL_JapaneseFolk_Guitar,6,2,koumouJapaneseFolk,0.23120082914829254,0
66,100,0.2,518,0,54,DL_JapaneseFolk_Guitar,6,3,koumouJapaneseFolk,0.26592081785202026,0
52,100,0.11818181818181818,836,1,54,DL_JapaneseFolk_Guitar,6,2,koumouJapaneseFolk,0.35419797897338867,0
66,100,0.1409090909090909,53,1,55,DL_JapaneseFolk_Guitar,6,2,koumouJapaneseFolk,0.9792566299438477,0
66,100,0.1590909090909091,123,1,56,DL_JapaneseFolk_Guitar,6,3,koumouJapaneseFolk,0.9990229606628418,1
57,100,0.2772727272727273,370,1,56,DL_JapaneseFolk_Guitar,6,4,koumouJapaneseFolk,0.36662814021110535,0
57,100,0.5,694,1,56,DL_JapaneseFolk_Guitar,6,8,koumouJapaneseFolk,0.45329394936561584,0
57,100,0.21818181818181817,0,1,57,DL_JapaneseFolk_Guitar,6,3,koumouJapaneseFolk,0.9983164072036743,1
61,100,0.6409090909090909,330,1,57,DL_JapaneseFolk_Guitar,6,10,koumouJapaneseFolk,0.5445542931556702,0
59,100,0.22272727272727272,364,1,58,DL_JapaneseFolk_Guitar,6,4,koumouJapaneseFolk,0.9792565107345581,0
61,100,0.2,141,1,59,DL_JapaneseFolk_Guitar,6,3,koumouJapaneseFolk,0.9984880685806274,1
54,100,0.11818181818181818,185,0,59,DL_JapaneseFolk_Guitar,6,2,koumouJapaneseFolk,0.06334653496742249,0
54,100,0.1,215,0,59,DL_JapaneseFolk_Guitar,6,2,koumouJapaneseFolk,0.057743340730667114,0
61,100,0.1409090909090909,276,0,59,DL_JapaneseFolk_Guitar,6,2,koumouJapaneseFolk,0.06020209565758705,0
64,100,0.1590909090909091,453,0,59,DL_JapaneseFolk_Guitar,6,3,koumouJapaneseFolk,0.06970333307981491,0
64,100,0.32272727272727275,751,1,59,DL_JapaneseFolk_Guitar,6,5,koumouJapaneseFolk,0.08189667761325836,0
54,100,0.1,826,0,59,DL_JapaneseFolk_Guitar,6,2,koumouJapaneseFolk,0.12402478605508804,0
62,100,0.38181818181818183,136,1,60,DL_JapaneseFolk_Guitar,6,6,koumouJapaneseFolk,0.9990229606628418,1
62,100,0.3,788,1,60,DL_JapaneseFolk_Guitar,6,5,koumouJapaneseFolk,0.36663633584976196,0
73,100,0.5,858,0,60,DL_JapaneseFolk_Guitar,6,8,koumouJapaneseFolk,0.4532915949821472,0
57,100,0.1590909090909091,386,1,61,DL_JapaneseFolk_Guitar,6,3,koumouJapaneseFolk,0.9983165264129639,1
57,100,0.21818181818181817,875,1,61,DL_JapaneseFolk_Guitar,6,3,koumouJapaneseFolk,0.5445600152015686,0
66,100,0.32272727272727275,56,1,62,DL_JapaneseFolk_Guitar,6,5,koumouJapaneseFolk,0.9988419413566589,1
52,100,0.4409090909090909,233,0,62,DL_JapaneseFolk_Guitar,6,7,koumouJapaneseFolk,0.13724927604198456,0
52,100,0.2409090909090909,619,1,62,DL_JapaneseFolk_Guitar,6,4,koumouJapaneseFolk,0.15977999567985535,0
52,100,0.11818181818181818,726,0,62,DL_JapaneseFolk_Guitar,6,2,koumouJapaneseFolk,0.18645590543746948,0
56,100,0.1409090909090909,845,0,62,DL_JapaneseFolk_Guitar,6,2,koumouJapaneseFolk,0.2581614553928375,0
52,100,0.1409090909090909,8,1,63,DL_JapaneseFolk_Guitar,6,2,koumouJapaneseFolk,0.9984880685806274,1
52,100,0.11818181818181818,75,0,63,DL_JapaneseFolk_Guitar,6,2,koumouJapaneseFolk,0.06334414333105087,0
64,100,0.18181818181818182,220,0,63,DL_JapaneseFolk_Guitar,6,3,koumouJapaneseFolk,0.05774153023958206,0
52,100,0.4,263,0,63,DL_JapaneseFolk_Guitar,6,6,koumouJapaneseFolk,0.06020238995552063,0
69,100,0.5,584,1,63,DL_JapaneseFolk_Guitar,6,8,koumouJapaneseFolk,0.06970343738794327,0
71,100,0.38181818181818183,791,0,63,DL_JapaneseFolk_Guitar,6,6,koumouJapaneseFolk,0.08189649879932404,0
59,100,0.1590909090909091,875,0,63,DL_JapaneseFolk_Guitar,6,3,koumouJapaneseFolk,0.12402466684579849,0
59,100,0.6227272727272727,136,1,64,DL_JapaneseFolk_Guitar,6,10,koumouJapaneseFolk,0.9990229606628418,1
59,100,0.5590909090909091,383,1,64,DL_JapaneseFolk_Guitar,6,9,koumouJapaneseFolk,0.3666297495365143,0
57,100,1.1636363636363636,553,0,64,DL_JapaneseFolk_Guitar,6,15,koumouJapaneseFolk,0.45329126715660095,0
61,100,0.3,303,1,65,DL_JapaneseFolk_Guitar,6,5,koumouJapaneseFolk,0.9986500144004822,1
61,100,0.1590909090909091,404,0,65,DL_JapaneseFolk_Guitar,6,3,koumouJapaneseFolk,0.08780369162559509,0
57,100,0.1590909090909091,449,0,65,DL_JapaneseFolk_Guitar,6,3,koumouJapaneseFolk,0.09181477874517441,0
61,100,0.3,496,0,65,DL_JapaneseFolk_Guitar,6,5,koumouJapaneseFolk,0.10747730731964111,0
57,100,0.22272727272727272,576,0,65,DL_JapaneseFolk_Guitar,6,4,koumouJapaneseFolk,0.12482988089323044,0
68,100,0.2,832,1,65,DL_JapaneseFolk_Guitar,6,3,koumouJapaneseFolk,0.17903195321559906,0
59,100,0.1590909090909091,9,1,66,DL_JapaneseFolk_Guitar,6,3,koumouJapaneseFolk,0.9984880685806274,1
68,100,0.21818181818181817,62,0,66,DL_JapaneseFolk_Guitar,6,3,koumouJapaneseFolk,0.06334526091814041,0
68,100,0.1,113,0,66,DL_JapaneseFolk_Guitar,6,2,koumouJapaneseFolk,0.05774330347776413,0
68,100,0.1590909090909091,166,0,66,DL_JapaneseFolk_Guitar,6,3,koumouJapaneseFolk,0.0602010153234005,0
52,100,0.1590909090909091,206,0,66,DL_JapaneseFolk_Guitar,6,3,koumouJapaneseFolk,0.06970274448394775,0
59,100,0.22272727272727272,673,1,66,DL_JapaneseFolk_Guitar,6,4,koumouJapaneseFolk,0.0818929523229599,0
52,100,0.42272727272727273,729,0,66,DL_JapaneseFolk_Guitar,6,7,koumouJapaneseFolk,0.12402337789535522,0
61,100,0.3,223,1,67,DL_JapaneseFolk_Guitar,6,5,koumouJapaneseFolk,0.9988419413566589,1
57,100,0.1,523,1,67,DL_JapaneseFolk_Guitar,6,2,koumouJapaneseFolk,0.1372474879026413,0
57,100,0.2409090909090909,550,0,67,DL_JapaneseFolk_Guitar,6,4,koumouJapaneseFolk,0.15978029370307922,0
57,100,0.21818181818181817,810,1,67,DL_JapaneseFolk_Guitar,6,3,koumouJapaneseFolk,0.1864556223154068,0
54,100,0.18181818181818182,862,0,67,DL_JapaneseFolk_Guitar,6,3,koumouJapaneseFolk,0.2581828534603119,0
54,100,0.2,26,1,68,DL_JapaneseFolk_Guitar,6,3,koumouJapaneseFolk,0.9986500144004822,1
61,100,0.1590909090909091,206,0,68,DL_JapaneseFolk_Guitar,6,3,koumouJapaneseFolk,0.08780142664909363,0
59,100,0.3181818181818182,250,0,68,DL_JapaneseFolk_Guitar,6,5,koumouJapaneseFolk,0.09181171655654907,0
61,100,0.12272727272727273,365,0,68,DL_JapaneseFolk_Guitar,6,2,koumouJapaneseFolk,0.10747289657592773,0
59,100,0.2818181818181818,773,1,68,DL_JapaneseFolk_Guitar,6,5,koumouJapaneseFolk,0.12482524663209915,0
59,100,0.22272727272727272,839,0,68,DL_JapaneseFolk_Guitar,6,4,koumouJapaneseFolk,0.17902988195419312,0
61,100,0.22272727272727272,166,1,69,DL_JapaneseFolk_Guitar,6,4,koumouJapaneseFolk,0.9990229606628418,1
54,100,0.1409090909090909,826,1,69,DL_JapaneseFolk_Guitar,6,2,koumouJapaneseFolk,0.3666212558746338,0
54,100,0.12272727272727273,862,0,69,DL_JapaneseFolk_Guitar,6,2,koumouJapaneseFolk,0.45329585671424866,0
57,100,0.3409090909090909,53,1,70,DL_JapaneseFolk_Guitar,6,5,koumouJapaneseFolk,0.9983165264129639,1
56,100,0.1590909090909091,546,1,70,DL_JapaneseFolk_Guitar,6,3,koumouJapaneseFolk,0.5445542931556702,0
61,100,0.1590909090909091,206,1,71,DL_JapaneseFolk_Guitar,6,3,koumouJapaneseFolk,0.9990057349205017,1
54,100,0.1,440,1,71,DL_JapaneseFolk_Guitar,6,2,koumouJapaneseFolk,0.23120832443237305,0
54,100,0.11818181818181818,593,0,71,DL_JapaneseFolk_Guitar,6,2,koumouJapaneseFolk,0.2659217119216919,0
57,100,0.21818181818181817,703,0,71,DL_JapaneseFolk_Guitar,6,3,koumouJapaneseFolk,0.3541952073574066,0
52,100,0.6772727272727272,722,1,72,DL_JapaneseFolk_Guitar,6,11,koumouJapaneseFolk,0.9792569875717163,0
52,100,0.2409090909090909,96,1,73,DL_JapaneseFolk_Guitar,6,4,koumouJapaneseFolk,0.9984880685806274,1
59,100,0.11818181818181818,184,0,73,DL_JapaneseFolk_Guitar,6,2,koumouJapaneseFolk,0.06334749609231949,0
52,100,0.3181818181818182,220,0,73,DL_JapaneseFolk_Guitar,6,5,koumouJapaneseFolk,0.057742223143577576,0
52,100,0.1,294,0,73,DL_JapaneseFolk_Guitar,6,2,koumouJapaneseFolk,0.060203105211257935,0
52,100,0.5227272727272727,356,0,73,DL_JapaneseFolk_Guitar,6,8,koumouJapaneseFolk,0.06970436871051788,0
52,100,0.5,673,1,73,DL_JapaneseFolk_Guitar,6,8,koumouJapaneseFolk,0.0818968415260315,0
52,100,0.22272727272727272,817,0,73,DL_JapaneseFolk_Guitar,6,4,koumouJapaneseFolk,0.12402688711881638,0
61,100,0.35909090909090907,166,1,74,DL_JapaneseFolk_Guitar,6,6,koumouJapaneseFolk,0.9990057349205017,1
57,100,0.35909090909090907,260,0,74,DL_JapaneseFolk_Guitar,6,6,koumouJapaneseFolk,0.23120230436325073,0
61,100,0.32272727272727275,443,0,74,DL_JapaneseFolk_Guitar,6,5,koumouJapaneseFolk,0.26592737436294556,0
61,100,0.2409090909090909,637,0,74,DL_JapaneseFolk_Guitar,6,4,koumouJapaneseFolk,0.35419410467147827,0
52,100,0.2772727272727273,140,1,75,DL_JapaneseFolk_Guitar,6,4,koumouJapaneseFolk,0.9984880685806274,1
52,100,0.1,206,0,75,DL_JapaneseFolk_Guitar,6,2,koumouJapaneseFolk,0.063345767557621,0
52,100,0.1409090909090909,242,0,75,DL_JapaneseFolk_Guitar,6,2,koumouJapaneseFolk,0.05774276703596115,0
52,100,0.7363636363636363,282,0,75,DL_JapaneseFolk_Guitar,6,12,koumouJapaneseFolk,0.06020195782184601,0
52,100,0.2590909090909091,449,0,75,DL_JapaneseFolk_Guitar,6,4,koumouJapaneseFolk,0.06970483064651489,0
52,100,0.2409090909090909,646,0,75,DL_JapaneseFolk_Guitar,6,4,koumouJapaneseFolk,0.0818958505988121,0
52,100,0.1590909090909091,766,0,75,DL_JapaneseFolk_Guitar,6,3,koumouJapaneseFolk,0.12402848154306412,0
52,100,0.2409090909090909,233,1,76,DL_JapaneseFolk_Guitar,6,4,koumouJapaneseFolk,0.9990057349205017,1
54,100,0.1590909090909091,430,0,76,DL_JapaneseFolk_Guitar,6,3,koumouJapaneseFolk,0.2312050610780716,0
66,100,0.3181818181818182,483,0,76,DL_JapaneseFolk_Guitar,6,5,koumouJapaneseFolk,0.2659275233745575,0
66,100,0.3,612,0,76,DL_JapaneseFolk_Guitar,6,5,koumouJapaneseFolk,0.35419875383377075,0
61,100,0.2772727272727273,119,1,77,DL_JapaneseFolk_Guitar,6,4,koumouJapaneseFolk,0.9988419413566589,1
54,100,0.2,303,0,77,DL_JapaneseFolk_Guitar,6,3,koumouJapaneseFolk,0.1372460573911667,0
56,100,0.5181818181818182,580,1,77,DL_JapaneseFolk_Guitar,6,8,koumouJapaneseFolk,0.1597701609134674,0
59,100,0.2409090909090909,695,0,77,DL_JapaneseFolk_Guitar,6,4,koumouJapaneseFolk,0.18644912540912628,0
59,100,0.35909090909090907,756,0,77,DL_JapaneseFolk_Guitar,6,6,koumouJapaneseFolk,0.2581610679626465,0
59,100,0.12272727272727273,47,1,78,DL_JapaneseFolk_Guitar,6,2,koumouJapaneseFolk,0.9983164072036743,1
61,100,0.2409090909090909,140,0,78,DL_JapaneseFolk_Guitar,6,4,koumouJapaneseFolk,0.5445512533187866,0
52,100,0.17727272727272728,229,1,79,DL_JapaneseFolk_Guitar,6,3,koumouJapaneseFolk,0.9988419413566589,1
59,100,0.32272727272727275,409,0,79,DL_JapaneseFolk_Guitar,6,5,koumouJapaneseFolk,0.1372498869895935,0
52,100,0.11818181818181818,502,0,79,DL_JapaneseFolk_Guitar,6,2,koumouJapaneseFolk,0.1597827970981598,0
52,100,0.2636363636363636,532,0,79,DL_JapaneseFolk_Guitar,6,4,koumouJapaneseFolk,0.18646250665187836,0
56,100,1.1181818181818182,747,0,79,DL_JapaneseFolk_Guitar,6,15,koumouJapaneseFolk,0.25816428661346436,0
61,100,0.5363636363636364,127,1,80,DL_JapaneseFolk_Guitar,6,9,koumouJapaneseFolk,0.9990229606628418,1
64,100,0.3,509,1,80,DL_JapaneseFolk_Guitar,6,5,koumouJapaneseFolk,0.3666324019432068,0
54,100,0.4,629,0,80,DL_JapaneseFolk_Guitar,6,6,koumouJapaneseFolk,0.45329418778419495,0
62,100,0.1,263,1,81,DL_JapaneseFolk_Guitar,6,2,koumouJapaneseFolk,0.9990229606628418,1
66,100,0.11818181818181818,383,0,81,DL_JapaneseFolk_Guitar,6,2,koumouJapaneseFolk,0.36662963032722473,0
59,100,0.5227272727272727,783,1,81,DL_JapaneseFolk_Guitar,6,8,koumouJapaneseFolk,0.4532906711101532,0
61,100,0.1,17,1,82,DL_JapaneseFolk_Guitar,6,2,koumouJapaneseFolk,0.9990057349205017,1
66,100,0.11818181818181818,153,0,82,DL_JapaneseFolk_Guitar,6,2,koumouJapaneseFolk,0.23120997846126556,0
52,100,0.2,506,1,82,DL_JapaneseFolk_Guitar,6,3,koumouJapaneseFolk,0.2659313380718231,0
57,100,0.42272727272727273,716,0,82,DL_JapaneseFolk_Guitar,6,7,koumouJapaneseFolk,0.3541959524154663,0
54,100,0.11818181818181818,339,1,83,DL_JapaneseFolk_Guitar,6,2,koumouJapaneseFolk,0.9792568683624268,0
52,100,0.38181818181818183,453,1,84,DL_JapaneseFolk_Guitar,6,6,koumouJapaneseFolk,0.9990229606628418,1
52,100,0.5227272727272727,597,0,84,DL_JapaneseFolk_Guitar,6,8,koumouJapaneseFolk,0.3666238486766815,0
52,100,0.38181818181818183,849,1,84,DL_JapaneseFolk_Guitar,6,6,koumouJapaneseFolk,0.4532943069934845,0
59,100,0.1590909090909091,193,1,85,DL_JapaneseFolk_Guitar,6,3,koumouJapaneseFolk,0.9792559146881104,0
64,100,0.1409090909090909,220,1,86,DL_JapaneseFolk_Guitar,6,2,koumouJapaneseFolk,0.9990229606628418,1
64,100,0.8590909090909091,307,0,86,DL_JapaneseFolk_Guitar,6,14,koumouJapaneseFolk,0.366621196269989,0
64,100,0.4,616,1,86,DL_JapaneseFolk_Guitar,6,6,koumouJapaneseFolk,0.4532918334007263,0
68,100,0.2818181818181818,153,1,87,DL_JapaneseFolk_Guitar,6,5,koumouJapaneseFolk,0.9986500144004822,1
68,100,0.5590909090909091,220,0,87,DL_JapaneseFolk_Guitar,6,9,koumouJapaneseFolk,0.08780316263437271,0
66,100,0.1590909090909091,396,0,87,DL_JapaneseFolk_Guitar,6,3,koumouJapaneseFolk,0.09181573241949081,0
57,100,0.5227272727272727,532,0,87,DL_JapaneseFolk_Guitar,6,8,koumouJapaneseFolk,0.10747570544481277,0
52,100,0.6818181818181818,660,0,87,DL_JapaneseFolk_Guitar,6,11,koumouJapaneseFolk,0.12482581287622452,0
57,100,0.17727272727272728,866,0,87,DL_JapaneseFolk_Guitar,6,3,koumouJapaneseFolk,0.17903052270412445,0
57,100,0.5772727272727273,294,1,88,DL_JapaneseFolk_Guitar,6,9,koumouJapaneseFolk,0.9990057349205017,1
52,100,0.6,540,1,88,DL_JapaneseFolk_Guitar,6,10,koumouJapaneseFolk,0.2312101572751999,0
52,100,0.21818181818181817,682,0,88,DL_JapaneseFolk_Guitar,6,3,koumouJapaneseFolk,0.26592427492141724,0
52,100,0.3181818181818182,734,0,88,DL_JapaneseFolk_Guitar,6,5,koumouJapaneseFolk,0.3542003631591797,0
64,100,0.2409090909090909,13,1,89,DL_JapaneseFolk_Guitar,6,4,koumouJapaneseFolk,0.9990057349205017,1
64,100,0.22272727272727272,92,0,89,DL_JapaneseFolk_Guitar,6,4,koumouJapaneseFolk,0.23120412230491638,0
64,100,0.2590909090909091,184,0,89,DL_JapaneseFolk_Guitar,6,4,koumouJapaneseFolk,0.26592808961868286,0
64,100,0.5590909090909091,603,1,89,DL_JapaneseFolk_Guitar,6,9,koumouJapaneseFolk,0.3541995882987976,0
58,100,0.33636363636363636,876,1,0,DL_MelancholicFolk_Guitar,6,5,sinpen_melancholic,0.9792567491531372,0
58,100,0.21818181818181817,325,1,1,DL_MelancholicFolk_Guitar,6,3,sinpen_melancholic,0.9983165264129639,1
65,100,0.5409090909090909,669,1,1,DL_MelancholicFolk_Guitar,6,9,sinpen_melancholic,0.5445568561553955,0
58,100,0.17727272727272728,39,1,2,DL_MelancholicFolk_Guitar,6,3,sinpen_melancholic,0.9983736276626587,1
60,100,0.4590909090909091,83,0,2,DL_MelancholicFolk_Guitar,6,7,sinpen_melancholic,0.0510609932243824,0
60,100,0.1590909090909091,232,0,2,DL_MelancholicFolk_Guitar,6,3,sinpen_melancholic,0.04130278155207634,0
60,100,0.740909090909091,382,0,2,DL_MelancholicFolk_Guitar,6,12,sinpen_melancholic,0.037384770810604095,0
63,100,0.1409090909090909,550,0,2,DL_MelancholicFolk_Guitar,6,2,sinpen_melancholic,0.038327693939208984,0
60,100,0.2409090909090909,638,0,2,DL_MelancholicFolk_Guitar,6,4,sinpen_melancholic,0.0447518564760685,0
60,100,0.12272727272727273,773,0,2,DL_MelancholicFolk_Guitar,6,2,sinpen_melancholic,0.055228810757398605,0
60,100,0.2818181818181818,818,0,2,DL_MelancholicFolk_Guitar,6,5,sinpen_melancholic,0.09026572108268738,0
60,100,0.5409090909090909,30,1,3,DL_MelancholicFolk_Guitar,6,9,sinpen_melancholic,0.9990057349205017,1
60,100,0.21818181818181817,216,0,3,DL_MelancholicFolk_Guitar,6,3,sinpen_melancholic,0.23121377825737,0
63,100,0.2,268,0,3,DL_MelancholicFolk_Guitar,6,3,sinpen_melancholic,0.2659263014793396,0
56,100,1.3409090909090908,553,1,3,DL_MelancholicFolk_Guitar,6,15,sinpen_melancholic,0.3541950285434723,0
56,100,0.1409090909090909,101,1,4,DL_MelancholicFolk_Guitar,6,2,sinpen_melancholic,0.9990229606628418,1
60,100,1.5,355,1,4,DL_MelancholicFolk_Guitar,6,15,sinpen_melancholic,0.366622656583786,0
58,100,0.2772727272727273,721,1,4,DL_MelancholicFolk_Guitar,6,4,sinpen_melancholic,0.45329320430755615,0
65,100,0.1,128,1,6,DL_MelancholicFolk_Guitar,6,2,sinpen_melancholic,0.9983165264129639,1
65,100,0.2772727272727273,458,1,6,DL_MelancholicFolk_Guitar,6,4,sinpen_melancholic,0.5445505380630493,0
58,100,0.6590909090909091,716,1,7,DL_MelancholicFolk_Guitar,6,11,sinpen_melancholic,0.9792560338973999,0
58,100,0.3409090909090909,53,1,8,DL_MelancholicFolk_Guitar,6,5,sinpen_melancholic,0.979256272315979,0
58,100,1.2818181818181817,110,1,9,DL_MelancholicFolk_Guitar,6,15,sinpen_melancholic,0.9983165264129639,1
58,100,0.6409090909090909,685,1,9,DL_MelancholicFolk_Guitar,6,10,sinpen_melancholic,0.5445610284805298,0
58,100,1.3409090909090908,386,1,10,DL_MelancholicFolk_Guitar,6,15,sinpen_melancholic,0.9792561531066895,0
60,100,0.3,440,1,11,DL_MelancholicFolk_Guitar,6,5,sinpen_melancholic,0.9990230798721313,1
60,100,0.6772727272727272,646,0,11,DL_MelancholicFolk_Guitar,6,11,sinpen_melancholic,0.366620808839798,0
53,100,0.22272727272727272,871,0,11,DL_MelancholicFolk_Guitar,6,4,sinpen_melancholic,0.45329439640045166,0
55,100,0.6590909090909091,61,1,12,DL_MelancholicFolk_Guitar,6,11,sinpen_melancholic,0.9986500144004822,1
63,100,0.1,527,1,12,DL_MelancholicFolk_Guitar,6,2,sinpen_melancholic,0.08780472725629807,0
63,100,0.23636363636363636,567,0,12,DL_MelancholicFolk_Guitar,6,4,sinpen_melancholic,0.09181827306747437,0
56,100,0.2772727272727273,656,0,12,DL_MelancholicFolk_Guitar,6,4,sinpen_melancholic,0.10748456418514252,0
56,100,0.11818181818181818,814,0,12,DL_MelancholicFolk_Guitar,6,2,sinpen_melancholic,0.12483154982328415,0
56,100,0.3,849,0,12,DL_MelancholicFolk_Guitar,6,5,sinpen_melancholic,0.17903807759284973,0
63,100,0.12272727272727273,575,1,13,DL_MelancholicFolk_Guitar,6,2,sinpen_melancholic,0.9792552590370178,0
55,100,0.18181818181818182,34,1,14,DL_MelancholicFolk_Guitar,6,3,sinpen_melancholic,0.9986500144004822,1
60,100,0.3,216,0,14,DL_MelancholicFolk_Guitar,6,5,sinpen_melancholic,0.08780574053525925,0
60,100,0.2818181818181818,343,0,14,DL_MelancholicFolk_Guitar,6,5,sinpen_melancholic,0.09181545674800873,0
53,100,0.1590909090909091,524,0,14,DL_MelancholicFolk_Guitar,6,3,sinpen_melancholic,0.10747846215963364,0
62,100,0.1590909090909091,778,1,14,DL_MelancholicFolk_Guitar,6,3,sinpen_melancholic,0.12482735514640808,0
62,100,0.2590909090909091,826,0,14,DL_MelancholicFolk_Guitar,6,4,sinpen_melancholic,0.17903350293636322,0
62,100,0.4818181818181818,34,1,15,DL_MelancholicFolk_Guitar,6,8,sinpen_melancholic,0.9984880685806274,1
58,100,0.11818181818181818,175,0,15,DL_MelancholicFolk_Guitar,6,2,sinpen_melancholic,0.06334513425827026,0
53,100,0.12272727272727273,268,0,15,DL_MelancholicFolk_Guitar,6,2,sinpen_melancholic,0.05774037912487984,0
58,100,0.7,417,0,15,DL_MelancholicFolk_Guitar,6,11,sinpen_melancholic,0.06019996479153633,0
58,100,0.3,594,0,15,DL_MelancholicFolk_Guitar,6,5,sinpen_melancholic,0.06970099359750748,0
58,100,0.13636363636363635,721,0,15,DL_MelancholicFolk_Guitar,6,2,sinpen_melancholic,0.0818919986486435,0
70,100,0.2,752,0,15,DL_MelancholicFolk_Guitar,6,3,sinpen_melancholic,0.12401212751865387,0
55,100,0.32272727272727275,167,1,16,DL_MelancholicFolk_Guitar,6,5,sinpen_melancholic,0.9988419413566589,1
55,100,0.11818181818181818,360,0,16,DL_MelancholicFolk_Guitar,6,2,sinpen_melancholic,0.13725030422210693,0
63,100,0.1409090909090909,638,1,16,DL_MelancholicFolk_Guitar,6,2,sinpen_melancholic,0.15978212654590607,0
56,100,0.5181818181818182,725,0,16,DL_MelancholicFolk_Guitar,6,8,sinpen_melancholic,0.18645019829273224,0
56,100,1.1772727272727272,866,0,16,DL_MelancholicFolk_Guitar,6,15,sinpen_melancholic,0.2581605315208435,0
56,100,0.1,382,1,17,DL_MelancholicFolk_Guitar,6,2,sinpen_melancholic,0.9990230798721313,1
56,100,0.2,536,0,17,DL_MelancholicFolk_Guitar,6,3,sinpen_melancholic,0.3666229844093323,0
53,100,0.2818181818181818,773,1,17,DL_MelancholicFolk_Guitar,6,5,sinpen_melancholic,0.45328786969184875,0
58,100,1.459090909090909,57,1,18,DL_MelancholicFolk_Guitar,6,15,sinpen_melancholic,0.9990229606628418,1
58,100,0.3409090909090909,735,1,18,DL_MelancholicFolk_Guitar,6,5,sinpen_melancholic,0.36662471294403076,0
58,100,0.3181818181818182,822,0,18,DL_MelancholicFolk_Guitar,6,5,sinpen_melancholic,0.45328399538993835,0
63,100,0.3,638,1,19,DL_MelancholicFolk_Guitar,6,5,sinpen_melancholic,0.9792561531066895,0
62,100,0.1,21,1,20,DL_MelancholicFolk_Guitar,6,2,sinpen_melancholic,0.9988419413566589,1
53,100,0.2,422,1,20,DL_MelancholicFolk_Guitar,6,3,sinpen_melancholic,0.1372460126876831,0
60,100,0.2590909090909091,484,0,20,DL_MelancholicFolk_Guitar,6,4,sinpen_melancholic,0.1597789227962494,0
60,100,0.1409090909090909,607,0,20,DL_MelancholicFolk_Guitar,6,2,sinpen_melancholic,0.18645265698432922,0
63,100,0.21818181818181817,712,0,20,DL_MelancholicFolk_Guitar,6,3,sinpen_melancholic,0.25816625356674194,0
55,100,0.5590909090909091,185,1,21,DL_MelancholicFolk_Guitar,6,9,sinpen_melancholic,0.9990057349205017,1
55,100,0.5,347,0,21,DL_MelancholicFolk_Guitar,6,8,sinpen_melancholic,0.2312043011188507,0
65,100,0.5590909090909091,484,0,21,DL_MelancholicFolk_Guitar,6,9,sinpen_melancholic,0.2659229040145874,0
56,100,0.17727272727272728,853,1,21,DL_MelancholicFolk_Guitar,6,3,sinpen_melancholic,0.35419395565986633,0
56,100,0.36363636363636365,223,1,22,DL_MelancholicFolk_Guitar,6,6,sinpen_melancholic,0.9990057349205017,1
55,100,0.7818181818181819,430,0,22,DL_MelancholicFolk_Guitar,6,13,sinpen_melancholic,0.23120659589767456,0
55,100,0.2818181818181818,673,1,22,DL_MelancholicFolk_Guitar,6,5,sinpen_melancholic,0.2659229636192322,0
58,100,0.2590909090909091,814,0,22,DL_MelancholicFolk_Guitar,6,4,sinpen_melancholic,0.35419443249702454,0
58,100,0.2590909090909091,13,1,23,DL_MelancholicFolk_Guitar,6,4,sinpen_melancholic,0.9986500144004822,1
56,100,0.6818181818181818,277,1,23,DL_MelancholicFolk_Guitar,6,11,sinpen_melancholic,0.08780078589916229,0
56,100,0.1409090909090909,484,0,23,DL_MelancholicFolk_Guitar,6,2,sinpen_melancholic,0.0918133482336998,0
56,100,0.2,519,0,23,DL_MelancholicFolk_Guitar,6,3,sinpen_melancholic,0.10747719556093216,0
56,100,0.2818181818181818,576,0,23,DL_MelancholicFolk_Guitar,6,5,sinpen_melancholic,0.12482557445764542,0
53,100,0.1590909090909091,691,0,23,DL_MelancholicFolk_Guitar,6,3,sinpen_melancholic,0.17902688682079315,0
58,100,0.1590909090909091,83,1,24,DL_MelancholicFolk_Guitar,6,3,sinpen_melancholic,0.9990230798721313,1
58,100,0.6181818181818182,250,0,24,DL_MelancholicFolk_Guitar,6,10,sinpen_melancholic,0.36661839485168457,0
58,100,0.11818181818181818,550,1,24,DL_MelancholicFolk_Guitar,6,2,sinpen_melancholic,0.45328381657600403,0
58,100,0.1409090909090909,119,1,25,DL_MelancholicFolk_Guitar,6,2,sinpen_melancholic,0.9986500144004822,1
58,100,0.11818181818181818,285,0,25,DL_MelancholicFolk_Guitar,6,2,sinpen_melancholic,0.08780316263437271,0
58,100,0.1590909090909091,343,0,25,DL_MelancholicFolk_Guitar,6,3,sinpen_melancholic,0.09181438386440277,0
58,100,0.2772727272727273,391,0,25,DL_MelancholicFolk_Guitar,6,4,sinpen_melancholic,0.10747923702001572,0
58,100,0.4409090909090909,505,0,25,DL_MelancholicFolk_Guitar,6,7,sinpen_melancholic,0.12482453137636185,0
55,100,1.0818181818181818,717,0,25,DL_MelancholicFolk_Guitar,6,15,sinpen_melancholic,0.1790243238210678,0
60,100,0.6590909090909091,83,1,26,DL_MelancholicFolk_Guitar,6,11,sinpen_melancholic,0.9988419413566589,1
63,100,0.11818181818181818,326,1,26,DL_MelancholicFolk_Guitar,6,2,sinpen_melancholic,0.13724443316459656,0
55,100,0.6409090909090909,509,0,26,DL_MelancholicFolk_Guitar,6,10,sinpen_melancholic,0.15977714955806732,0
65,100,0.32272727272727275,717,0,26,DL_MelancholicFolk_Guitar,6,5,sinpen_melancholic,0.18644410371780396,0
55,100,0.3,810,0,26,DL_MelancholicFolk_Guitar,6,5,sinpen_melancholic,0.2581590712070465,0
56,100,0.8363636363636363,106,1,27,DL_MelancholicFolk_Guitar,6,13,sinpen_melancholic,0.9990229606628418,1
56,100,0.759090909090909,374,1,27,DL_MelancholicFolk_Guitar,6,12,sinpen_melancholic,0.36661919951438904,0
58,100,0.1,650,1,27,DL_MelancholicFolk_Guitar,6,2,sinpen_melancholic,0.45329803228378296,0
65,100,0.2818181818181818,69,1,28,DL_MelancholicFolk_Guitar,6,5,sinpen_melancholic,0.9990229606628418,1
58,100,0.3409090909090909,598,1,28,DL_MelancholicFolk_Guitar,6,5,sinpen_melancholic,0.36662766337394714,0
65,100,0.2409090909090909,673,0,28,DL_MelancholicFolk_Guitar,6,4,sinpen_melancholic,0.4532844126224518,0
63,100,0.2,30,1,29,DL_MelancholicFolk_Guitar,6,3,sinpen_melancholic,0.9990229606628418,1
63,100,0.8590909090909091,216,0,29,DL_MelancholicFolk_Guitar,6,14,sinpen_melancholic,0.366622656583786,0
63,100,0.12272727272727273,584,1,29,DL_MelancholicFolk_Guitar,6,2,sinpen_melancholic,0.45330649614334106,0
58,100,0.41818181818181815,193,1,30,DL_MelancholicFolk_Guitar,6,7,sinpen_melancholic,0.9990057349205017,1
53,100,0.6409090909090909,285,0,30,DL_MelancholicFolk_Guitar,6,10,sinpen_melancholic,0.23119482398033142,0
53,100,0.16363636363636364,818,1,30,DL_MelancholicFolk_Guitar,6,3,sinpen_melancholic,0.26591843366622925,0
55,100,0.22272727272727272,862,0,30,DL_MelancholicFolk_Guitar,6,4,sinpen_melancholic,0.3541969060897827,0
55,100,0.1,34,1,31,DL_MelancholicFolk_Guitar,6,2,sinpen_melancholic,0.9990058541297913,1
55,100,0.1590909090909091,106,0,31,DL_MelancholicFolk_Guitar,6,3,sinpen_melancholic,0.2312028706073761,0
55,100,0.2409090909090909,673,1,31,DL_MelancholicFolk_Guitar,6,4,sinpen_melancholic,0.26591458916664124,0
55,100,0.16363636363636364,729,0,31,DL_MelancholicFolk_Guitar,6,3,sinpen_melancholic,0.3541944921016693,0
58,100,0.3409090909090909,21,1,32,DL_MelancholicFolk_Guitar,6,5,sinpen_melancholic,0.9988419413566589,1
56,100,0.1590909090909091,251,0,32,DL_MelancholicFolk_Guitar,6,3,sinpen_melancholic,0.13724838197231293,0
56,100,0.37727272727272726,545,1,32,DL_MelancholicFolk_Guitar,6,6,sinpen_melancholic,0.1597757637500763,0
56,100,0.2409090909090909,761,0,32,DL_MelancholicFolk_Guitar,6,4,sinpen_melancholic,0.18644049763679504,0
58,100,0.6818181818181818,826,0,32,DL_MelancholicFolk_Guitar,6,11,sinpen_melancholic,0.2581527829170227,0
56,100,0.18181818181818182,69,1,34,DL_MelancholicFolk_Guitar,6,3,sinpen_melancholic,0.9986500144004822,1
53,100,0.2590909090909091,153,0,34,DL_MelancholicFolk_Guitar,6,4,sinpen_melancholic,0.08780163526535034,0
53,100,0.5181818181818182,215,0,34,DL_MelancholicFolk_Guitar,6,8,sinpen_melancholic,0.09181090444326401,0
53,100,0.2772727272727273,361,0,34,DL_MelancholicFolk_Guitar,6,4,sinpen_melancholic,0.10747481882572174,0
58,100,0.5818181818181818,440,0,34,DL_MelancholicFolk_Guitar,6,9,sinpen_melancholic,0.12482637166976929,0
56,100,0.5181818181818182,810,1,34,DL_MelancholicFolk_Guitar,6,8,sinpen_melancholic,0.17902179062366486,0
56,100,0.11818181818181818,220,1,35,DL_MelancholicFolk_Guitar,6,2,sinpen_melancholic,0.9988419413566589,1
56,100,0.2590909090909091,254,0,35,DL_MelancholicFolk_Guitar,6,4,sinpen_melancholic,0.13724826276302338,0
58,100,0.5818181818181818,418,0,35,DL_MelancholicFolk_Guitar,6,9,sinpen_melancholic,0.159779354929924,0
65,100,0.3409090909090909,581,0,35,DL_MelancholicFolk_Guitar,6,5,sinpen_melancholic,0.186447873711586,0
58,100,0.7,761,0,35,DL_MelancholicFolk_Guitar,6,11,sinpen_melancholic,0.25816085934638977,0
53,100,0.3,40,1,36,DL_MelancholicFolk_Guitar,6,5,sinpen_melancholic,0.9988419413566589,1
58,100,0.1409090909090909,110,0,36,DL_MelancholicFolk_Guitar,6,2,sinpen_melancholic,0.13724927604198456,0
53,100,0.21818181818181817,176,0,36,DL_MelancholicFolk_Guitar,6,3,sinpen_melancholic,0.15977723896503448,0
55,100,0.5181818181818182,351,0,36,DL_MelancholicFolk_Guitar,6,8,sinpen_melancholic,0.18644990026950836,0
55,100,0.1590909090909091,783,1,36,DL_MelancholicFolk_Guitar,6,3,sinpen_melancholic,0.2581614553928375,0
60,100,0.9772727272727273,8,1,37,DL_MelancholicFolk_Guitar,6,15,sinpen_melancholic,0.9984880685806274,1
60,100,0.11818181818181818,228,0,37,DL_MelancholicFolk_Guitar,6,2,sinpen_melancholic,0.0633450374007225,0
55,100,0.12272727272727273,321,0,37,DL_MelancholicFolk_Guitar,6,2,sinpen_melancholic,0.05774129182100296,0
53,100,1.3818181818181818,440,0,37,DL_MelancholicFolk_Guitar,6,15,sinpen_melancholic,0.0602005310356617,0
53,100,0.1590909090909091,765,1,37,DL_MelancholicFolk_Guitar,6,3,sinpen_melancholic,0.06970099359750748,0
53,100,0.18181818181818182,804,0,37,DL_MelancholicFolk_Guitar,6,3,sinpen_melancholic,0.08189220726490021,0
65,100,0.11818181818181818,875,0,37,DL_MelancholicFolk_Guitar,6,2,sinpen_melancholic,0.12401765584945679,0
65,100,0.12272727272727273,101,1,38,DL_MelancholicFolk_Guitar,6,2,sinpen_melancholic,0.9984880685806274,1
65,100,0.2409090909090909,201,0,38,DL_MelancholicFolk_Guitar,6,4,sinpen_melancholic,0.06334469467401505,0
65,100,0.11818181818181818,273,0,38,DL_MelancholicFolk_Guitar,6,2,sinpen_melancholic,0.05773972347378731,0
65,100,0.11818181818181818,303,0,38,DL_MelancholicFolk_Guitar,6,2,sinpen_melancholic,0.060199074447155,0
58,100,0.2,361,0,38,DL_MelancholicFolk_Guitar,6,3,sinpen_melancholic,0.06969943642616272,0
58,100,0.17727272727272728,536,0,38,DL_MelancholicFolk_Guitar,6,3,sinpen_melancholic,0.0818893313407898,0
58,100,0.17727272727272728,633,0,38,DL_MelancholicFolk_Guitar,6,3,sinpen_melancholic,0.12401323020458221,0
53,100,0.21818181818181817,348,1,39,DL_MelancholicFolk_Guitar,6,3,sinpen_melancholic,0.9988419413566589,1
58,100,0.2,509,0,39,DL_MelancholicFolk_Guitar,6,3,sinpen_melancholic,0.13724640011787415,0
53,100,0.5409090909090909,554,0,39,DL_MelancholicFolk_Guitar,6,9,sinpen_melancholic,0.15977135300636292,0
58,100,0.5,721,0,39,DL_MelancholicFolk_Guitar,6,8,sinpen_melancholic,0.18644781410694122,0
58,100,0.4,853,0,39,DL_MelancholicFolk_Guitar,6,6,sinpen_melancholic,0.25816038250923157,0
56,100,0.4,418,1,41,DL_MelancholicFolk_Guitar,6,6,sinpen_melancholic,0.9990229606628418,1
56,100,0.3,558,0,41,DL_MelancholicFolk_Guitar,6,5,sinpen_melancholic,0.36662036180496216,0
58,100,0.2,655,0,41,DL_MelancholicFolk_Guitar,6,3,sinpen_melancholic,0.45329195261001587,0
60,100,0.18181818181818182,21,1,42,DL_MelancholicFolk_Guitar,6,3,sinpen_melancholic,0.9986500144004822,1
65,100,0.5227272727272727,211,0,42,DL_MelancholicFolk_Guitar,6,8,sinpen_melancholic,0.08779938519001007,0
65,100,0.2590909090909091,448,1,42,DL_MelancholicFolk_Guitar,6,4,sinpen_melancholic,0.09181545674800873,0
65,100,0.1590909090909091,563,0,42,DL_MelancholicFolk_Guitar,6,3,sinpen_melancholic,0.1074766218662262,0
56,100,0.2409090909090909,641,0,42,DL_MelancholicFolk_Guitar,6,4,sinpen_melancholic,0.12482316792011261,0
63,100,0.1590909090909091,866,0,42,DL_MelancholicFolk_Guitar,6,3,sinpen_melancholic,0.17903032898902893,0
58,100,0.4590909090909091,198,1,43,DL_MelancholicFolk_Guitar,6,7,sinpen_melancholic,0.9988420605659485,1
65,100,0.42272727272727273,386,0,43,DL_MelancholicFolk_Guitar,6,7,sinpen_melancholic,0.13724733889102936,0
58,100,0.1409090909090909,581,0,43,DL_MelancholicFolk_Guitar,6,2,sinpen_melancholic,0.15977878868579865,0
58,100,0.4590909090909091,646,0,43,DL_MelancholicFolk_Guitar,6,7,sinpen_melancholic,0.18644452095031738,0
63,100,0.1409090909090909,866,0,43,DL_MelancholicFolk_Guitar,6,2,sinpen_melancholic,0.2581641972064972,0
63,100,0.8181818181818182,150,1,44,DL_MelancholicFolk_Guitar,6,13,sinpen_melancholic,0.9990057349205017,1
63,100,0.1590909090909091,461,1,44,DL_MelancholicFolk_Guitar,6,3,sinpen_melancholic,0.23120775818824768,0
58,100,0.11818181818181818,528,0,44,DL_MelancholicFolk_Guitar,6,2,sinpen_melancholic,0.2659311592578888,0
58,100,0.8363636363636363,875,1,44,DL_MelancholicFolk_Guitar,6,13,sinpen_melancholic,0.35419607162475586,0
58,100,0.11818181818181818,228,1,45,DL_MelancholicFolk_Guitar,6,2,sinpen_melancholic,0.9990057349205017,1
55,100,0.2,399,0,45,DL_MelancholicFolk_Guitar,6,3,sinpen_melancholic,0.2312060296535492,0
55,100,0.2772727272727273,721,1,45,DL_MelancholicFolk_Guitar,6,4,sinpen_melancholic,0.26592081785202026,0
65,100,0.2,791,0,45,DL_MelancholicFolk_Guitar,6,3,sinpen_melancholic,0.3541874289512634,0
55,100,0.2590909090909091,131,1,46,DL_MelancholicFolk_Guitar,6,4,sinpen_melancholic,0.9984880685806274,1
58,100,0.16363636363636364,289,0,46,DL_MelancholicFolk_Guitar,6,3,sinpen_melancholic,0.06334486603736877,0
58,100,0.3409090909090909,330,0,46,DL_MelancholicFolk_Guitar,6,5,sinpen_melancholic,0.05774039030075073,0
65,100,0.2772727272727273,405,0,46,DL_MelancholicFolk_Guitar,6,4,sinpen_melancholic,0.06019953638315201,0
58,100,0.3,480,0,46,DL_MelancholicFolk_Guitar,6,5,sinpen_melancholic,0.0697018951177597,0
70,100,0.5,581,0,46,DL_MelancholicFolk_Guitar,6,8,sinpen_melancholic,0.08189011365175247,0
70,100,0.12272727272727273,694,0,46,DL_MelancholicFolk_Guitar,6,2,sinpen_melancholic,0.12401918321847916,0
70,100,0.12272727272727273,179,1,47,DL_MelancholicFolk_Guitar,6,2,sinpen_melancholic,0.9988419413566589,1
65,100,0.17727272727272728,303,0,47,DL_MelancholicFolk_Guitar,6,3,sinpen_melancholic,0.13724112510681152,0
65,100,0.2,399,0,47,DL_MelancholicFolk_Guitar,6,3,sinpen_melancholic,0.15977247059345245,0
58,100,0.32272727272727275,541,0,47,DL_MelancholicFolk_Guitar,6,5,sinpen_melancholic,0.18644079566001892,0
58,100,0.21818181818181817,801,1,47,DL_MelancholicFolk_Guitar,6,3,sinpen_melancholic,0.25815528631210327,0
58,100,0.11818181818181818,0,1,48,DL_MelancholicFolk_Guitar,6,2,sinpen_melancholic,0.9990229606628418,1
63,100,0.3409090909090909,660,1,48,DL_MelancholicFolk_Guitar,6,5,sinpen_melancholic,0.36662015318870544,0
65,100,0.6409090909090909,804,0,48,DL_MelancholicFolk_Guitar,6,10,sinpen_melancholic,0.45328769087791443,0
55,100,0.11818181818181818,66,1,49,DL_MelancholicFolk_Guitar,6,2,sinpen_melancholic,0.9986500144004822,1
56,100,0.5181818181818182,241,0,49,DL_MelancholicFolk_Guitar,6,8,sinpen_melancholic,0.08780296891927719,0
56,100,0.4,509,1,49,DL_MelancholicFolk_Guitar,6,6,sinpen_melancholic,0.09181290864944458,0
56,100,0.2409090909090909,646,0,49,DL_MelancholicFolk_Guitar,6,4,sinpen_melancholic,0.10747323930263519,0
65,100,0.18181818181818182,751,0,49,DL_MelancholicFolk_Guitar,6,3,sinpen_melancholic,0.12482637166976929,0
58,100,1.1636363636363636,818,0,49,DL_MelancholicFolk_Guitar,6,15,sinpen_melancholic,0.1790258139371872,0
58,100,0.38181818181818183,201,1,50,DL_MelancholicFolk_Guitar,6,6,sinpen_melancholic,0.9990230798721313,1
58,100,0.740909090909091,295,0,50,DL_MelancholicFolk_Guitar,6,12,sinpen_melancholic,0.3666122555732727,0
65,100,0.4409090909090909,515,0,50,DL_MelancholicFolk_Guitar,6,7,sinpen_melancholic,0.4532889127731323,0
53,100,0.33636363636363636,105,1,51,DL_MelancholicFolk_Guitar,6,5,sinpen_melancholic,0.9983165264129639,1
55,100,0.1590909090909091,185,0,51,DL_MelancholicFolk_Guitar,6,3,sinpen_melancholic,0.5445531010627747,0
58,100,0.1409090909090909,405,1,52,DL_MelancholicFolk_Guitar,6,2,sinpen_melancholic,0.9990230798721313,1
65,100,0.17727272727272728,721,1,52,DL_MelancholicFolk_Guitar,6,3,sinpen_melancholic,0.3666268289089203,0
58,100,1.1409090909090909,761,0,52,DL_MelancholicFolk_Guitar,6,15,sinpen_melancholic,0.4532780349254608,0
70,100,0.17727272727272728,435,1,53,DL_MelancholicFolk_Guitar,6,3,sinpen_melancholic,0.9990230798721313,1
70,100,0.12272727272727273,774,1,53,DL_MelancholicFolk_Guitar,6,2,sinpen_melancholic,0.3666231632232666,0
65,100,0.2,818,0,53,DL_MelancholicFolk_Guitar,6,3,sinpen_melancholic,0.45328959822654724,0
58,100,0.21818181818181817,141,1,54,DL_MelancholicFolk_Guitar,6,3,sinpen_melancholic,0.9983165264129639,1
58,100,0.4772727272727273,273,0,54,DL_MelancholicFolk_Guitar,6,8,sinpen_melancholic,0.5445554852485657,0
53,100,0.18181818181818182,48,1,55,DL_MelancholicFolk_Guitar,6,3,sinpen_melancholic,0.9986500144004822,1
58,100,1.3,105,0,55,DL_MelancholicFolk_Guitar,6,15,sinpen_melancholic,0.08780300617218018,0
58,100,0.6818181818181818,396,1,55,DL_MelancholicFolk_Guitar,6,11,sinpen_melancholic,0.09181461483240128,0
58,100,0.18181818181818182,563,0,55,DL_MelancholicFolk_Guitar,6,3,sinpen_melancholic,0.10747447609901428,0
55,100,0.4590909090909091,673,0,55,DL_MelancholicFolk_Guitar,6,7,sinpen_melancholic,0.12481912225484848,0
70,100,0.18181818181818182,813,0,55,DL_MelancholicFolk_Guitar,6,3,sinpen_melancholic,0.1790248155593872,0
53,100,0.2590909090909091,303,1,56,DL_MelancholicFolk_Guitar,6,4,sinpen_melancholic,0.9986500144004822,1
60,100,0.11818181818181818,383,0,56,DL_MelancholicFolk_Guitar,6,2,sinpen_melancholic,0.08780434727668762,0
55,100,0.2,458,0,56,DL_MelancholicFolk_Guitar,6,3,sinpen_melancholic,0.09181378036737442,0
55,100,0.22272727272727272,694,1,56,DL_MelancholicFolk_Guitar,6,4,sinpen_melancholic,0.10747882723808289,0
65,100,0.1590909090909091,788,0,56,DL_MelancholicFolk_Guitar,6,3,sinpen_melancholic,0.12482301890850067,0
53,100,0.2636363636363636,861,0,56,DL_MelancholicFolk_Guitar,6,4,sinpen_melancholic,0.1790311634540558,0
65,100,0.37727272727272726,40,1,57,DL_MelancholicFolk_Guitar,6,6,sinpen_melancholic,0.9984880685806274,1
65,100,0.3,128,0,57,DL_MelancholicFolk_Guitar,6,5,sinpen_melancholic,0.06334415823221207,0
53,100,0.5,215,0,57,DL_MelancholicFolk_Guitar,6,8,sinpen_melancholic,0.057740721851587296,0
53,100,0.8772727272727273,348,0,57,DL_MelancholicFolk_Guitar,6,14,sinpen_melancholic,0.06020176783204079,0
65,100,0.7227272727272728,628,1,57,DL_MelancholicFolk_Guitar,6,12,sinpen_melancholic,0.06970144808292389,0
53,100,0.21818181818181817,788,0,57,DL_MelancholicFolk_Guitar,6,3,sinpen_melancholic,0.08189333975315094,0
53,100,0.21818181818181817,858,0,57,DL_MelancholicFolk_Guitar,6,3,sinpen_melancholic,0.12401586771011353,0
53,100,0.1590909090909091,40,1,58,DL_MelancholicFolk_Guitar,6,3,sinpen_melancholic,0.9990230798721313,1
58,100,1.0636363636363637,334,1,58,DL_MelancholicFolk_Guitar,6,15,sinpen_melancholic,0.36661919951438904,0
65,100,0.1590909090909091,778,1,58,DL_MelancholicFolk_Guitar,6,3,sinpen_melancholic,0.45328792929649353,0
65,100,0.7,738,1,59,DL_MelancholicFolk_Guitar,6,11,sinpen_melancholic,0.9792558550834656,0
65,100,0.2,136,1,60,DL_MelancholicFolk_Guitar,6,3,sinpen_melancholic,0.9988419413566589,1
58,100,0.13636363636363635,238,0,60,DL_MelancholicFolk_Guitar,6,2,sinpen_melancholic,0.13725046813488007,0
63,100,0.36363636363636365,311,0,60,DL_MelancholicFolk_Guitar,6,6,sinpen_melancholic,0.1597788780927658,0
63,100,0.5,458,0,60,DL_MelancholicFolk_Guitar,6,8,sinpen_melancholic,0.18644855916500092,0
58,100,1.2636363636363637,861,1,60,DL_MelancholicFolk_Guitar,6,15,sinpen_melancholic,0.2581682503223419,0
65,100,0.21818181818181817,263,1,61,DL_MelancholicFolk_Guitar,6,3,sinpen_melancholic,0.9988419413566589,1
58,100,0.5,334,0,61,DL_MelancholicFolk_Guitar,6,8,sinpen_melancholic,0.13724969327449799,0
55,100,0.2409090909090909,691,1,61,DL_MelancholicFolk_Guitar,6,4,sinpen_melancholic,0.15978051722049713,0
55,100,0.11818181818181818,778,0,61,DL_MelancholicFolk_Guitar,6,2,sinpen_melancholic,0.18644803762435913,0
58,100,0.5227272727272727,871,0,61,DL_MelancholicFolk_Guitar,6,8,sinpen_melancholic,0.2581641674041748,0
65,100,0.12272727272727273,356,1,62,DL_MelancholicFolk_Guitar,6,2,sinpen_melancholic,0.9990229606628418,1
65,100,0.4409090909090909,399,0,62,DL_MelancholicFolk_Guitar,6,7,sinpen_melancholic,0.3666229844093323,0
58,100,0.6227272727272727,686,1,62,DL_MelancholicFolk_Guitar,6,10,sinpen_melancholic,0.4532865583896637,0
58,100,0.2409090909090909,461,1,63,DL_MelancholicFolk_Guitar,6,4,sinpen_melancholic,0.9990057349205017,1
63,100,0.2409090909090909,531,0,63,DL_MelancholicFolk_Guitar,6,4,sinpen_melancholic,0.2312072515487671,0
63,100,0.1590909090909091,638,0,63,DL_MelancholicFolk_Guitar,6,3,sinpen_melancholic,0.26592668890953064,0
63,100,0.5181818181818182,681,0,63,DL_MelancholicFolk_Guitar,6,8,sinpen_melancholic,0.3542042672634125,0
58,100,0.3,140,1,64,DL_MelancholicFolk_Guitar,6,5,sinpen_melancholic,0.9983164072036743,1
56,100,0.2772727272727273,559,1,64,DL_MelancholicFolk_Guitar,6,4,sinpen_melancholic,0.5445459485054016,0
65,100,0.1,56,1,65,DL_MelancholicFolk_Guitar,6,2,sinpen_melancholic,0.9986500144004822,1
58,100,0.7227272727272728,189,0,65,DL_MelancholicFolk_Guitar,6,12,sinpen_melancholic,0.08780388534069061,0
65,100,0.21818181818181817,352,0,65,DL_MelancholicFolk_Guitar,6,3,sinpen_melancholic,0.09181419759988785,0
56,100,0.2,580,0,65,DL_MelancholicFolk_Guitar,6,3,sinpen_melancholic,0.10748064517974854,0
56,100,0.21818181818181817,633,0,65,DL_MelancholicFolk_Guitar,6,3,sinpen_melancholic,0.12483056634664536,0
56,100,0.1409090909090909,686,0,65,DL_MelancholicFolk_Guitar,6,2,sinpen_melancholic,0.17902886867523193,0
56,100,0.37727272727272726,30,1,66,DL_MelancholicFolk_Guitar,6,6,sinpen_melancholic,0.9986500144004822,1
58,100,0.1590909090909091,276,1,66,DL_MelancholicFolk_Guitar,6,3,sinpen_melancholic,0.08780377358198166,0
65,100,0.36363636363636365,312,0,66,DL_MelancholicFolk_Guitar,6,6,sinpen_melancholic,0.09181258827447891,0
53,100,0.11818181818181818,483,0,66,DL_MelancholicFolk_Guitar,6,2,sinpen_melancholic,0.10748009383678436,0
58,100,1.0,509,0,66,DL_MelancholicFolk_Guitar,6,15,sinpen_melancholic,0.12482818961143494,0
55,100,1.240909090909091,747,1,66,DL_MelancholicFolk_Guitar,6,15,sinpen_melancholic,0.17903009057044983,0
55,100,0.12272727272727273,157,1,67,DL_MelancholicFolk_Guitar,6,2,sinpen_melancholic,0.9988419413566589,1
55,100,0.21818181818181817,216,0,67,DL_MelancholicFolk_Guitar,6,3,sinpen_melancholic,0.13724952936172485,0
55,100,0.3,326,0,67,DL_MelancholicFolk_Guitar,6,5,sinpen_melancholic,0.15977302193641663,0
55,100,0.12272727272727273,409,0,67,DL_MelancholicFolk_Guitar,6,2,sinpen_melancholic,0.18644405901432037,0
58,100,0.2,650,1,67,DL_MelancholicFolk_Guitar,6,3,sinpen_melancholic,0.2581588923931122,0
58,100,0.3,62,1,68,DL_MelancholicFolk_Guitar,6,5,sinpen_melancholic,0.9983737468719482,1
56,100,0.22272727272727272,145,0,68,DL_MelancholicFolk_Guitar,6,4,sinpen_melancholic,0.051060114055871964,0
56,100,0.12272727272727273,255,0,68,DL_MelancholicFolk_Guitar,6,2,sinpen_melancholic,0.04130354896187782,0
56,100,0.4,320,0,68,DL_MelancholicFolk_Guitar,6,6,sinpen_melancholic,0.037386175245046616,0
56,100,0.2,506,0,68,DL_MelancholicFolk_Guitar,6,3,sinpen_melancholic,0.03832835331559181,0
63,100,0.1590909090909091,590,0,68,DL_MelancholicFolk_Guitar,6,3,sinpen_melancholic,0.0447501465678215,0
58,100,0.22272727272727272,650,0,68,DL_MelancholicFolk_Guitar,6,4,sinpen_melancholic,0.05522926151752472,0
58,100,0.7,703,0,68,DL_MelancholicFolk_Guitar,6,11,sinpen_melancholic,0.09026211500167847,0
58,100,0.3181818181818182,184,1,69,DL_MelancholicFolk_Guitar,6,5,sinpen_melancholic,0.9990058541297913,1
58,100,0.5772727272727273,273,0,69,DL_MelancholicFolk_Guitar,6,9,sinpen_melancholic,0.23120442032814026,0
63,100,0.21818181818181817,572,1,69,DL_MelancholicFolk_Guitar,6,3,sinpen_melancholic,0.2659175992012024,0
58,100,0.18181818181818182,849,1,69,DL_MelancholicFolk_Guitar,6,3,sinpen_melancholic,0.3542014956474304,0
63,100,0.1,83,1,70,DL_MelancholicFolk_Guitar,6,2,sinpen_melancholic,0.9990229606628418,1
58,100,0.11818181818181818,140,0,70,DL_MelancholicFolk_Guitar,6,2,sinpen_melancholic,0.3666248321533203,0
58,100,0.23636363636363636,237,0,70,DL_MelancholicFolk_Guitar,6,4,sinpen_melancholic,0.4532924294471741,0
63,100,0.35909090909090907,206,1,71,DL_MelancholicFolk_Guitar,6,6,sinpen_melancholic,0.979255735874176,0
56,100,0.2636363636363636,422,1,76,DL_MelancholicFolk_Guitar,6,4,sinpen_melancholic,0.9988419413566589,1
53,100,0.16363636363636364,509,0,76,DL_MelancholicFolk_Guitar,6,3,sinpen_melancholic,0.13724680244922638,0
58,100,0.3409090909090909,553,0,76,DL_MelancholicFolk_Guitar,6,5,sinpen_melancholic,0.15977774560451508,0
58,100,0.37727272727272726,669,0,76,DL_MelancholicFolk_Guitar,6,6,sinpen_melancholic,0.18644855916500092,0
58,100,1.018181818181818,756,0,76,DL_MelancholicFolk_Guitar,6,15,sinpen_melancholic,0.2581598162651062,0
58,100,0.2409090909090909,110,1,77,DL_MelancholicFolk_Guitar,6,4,sinpen_melancholic,0.9990058541297913,1
58,100,0.18181818181818182,176,0,77,DL_MelancholicFolk_Guitar,6,3,sinpen_melancholic,0.23121137917041779,0
55,100,1.0636363636363637,289,0,77,DL_MelancholicFolk_Guitar,6,15,sinpen_melancholic,0.26591596007347107,0
58,100,0.4772727272727273,656,1,77,DL_MelancholicFolk_Guitar,6,8,sinpen_melancholic,0.3541991710662842,0
70,100,0.5818181818181818,22,1,78,DL_MelancholicFolk_Guitar,6,9,sinpen_melancholic,0.9983003735542297,1
55,100,0.16363636363636364,246,0,78,DL_MelancholicFolk_Guitar,6,3,sinpen_melancholic,0.04466349259018898,0
65,100,0.35909090909090907,282,0,78,DL_MelancholicFolk_Guitar,6,6,sinpen_melancholic,0.033148813992738724,0
55,100,0.3409090909090909,360,0,78,DL_MelancholicFolk_Guitar,6,5,sinpen_melancholic,0.02657853625714779,0
65,100,0.1409090909090909,440,0,78,DL_MelancholicFolk_Guitar,6,2,sinpen_melancholic,0.023594480007886887,0
56,100,0.5227272727272727,519,0,78,DL_MelancholicFolk_Guitar,6,8,sinpen_melancholic,0.024312419816851616,0
63,100,0.1590909090909091,660,0,78,DL_MelancholicFolk_Guitar,6,3,sinpen_melancholic,0.02968813106417656,0
65,100,0.2818181818181818,703,0,78,DL_MelancholicFolk_Guitar,6,5,sinpen_melancholic,0.0400749109685421,0
65,100,0.5363636363636364,832,0,78,DL_MelancholicFolk_Guitar,6,9,sinpen_melancholic,0.07092757523059845,0
65,100,0.4772727272727273,96,1,79,DL_MelancholicFolk_Guitar,6,8,sinpen_melancholic,0.9988419413566589,1
55,100,0.32272727272727275,365,1,79,DL_MelancholicFolk_Guitar,6,5,sinpen_melancholic,0.13725075125694275,0
55,100,0.21818181818181817,440,0,79,DL_MelancholicFolk_Guitar,6,3,sinpen_melancholic,0.15978436172008514,0
55,100,0.2,509,0,79,DL_MelancholicFolk_Guitar,6,3,sinpen_melancholic,0.18644922971725464,0
65,100,0.4818181818181818,673,0,79,DL_MelancholicFolk_Guitar,6,8,sinpen_melancholic,0.258160799741745,0
63,100,0.32272727272727275,26,1,80,DL_MelancholicFolk_Guitar,6,5,sinpen_melancholic,0.9986500144004822,1
63,100,0.1409090909090909,153,0,80,DL_MelancholicFolk_Guitar,6,2,sinpen_melancholic,0.08780483901500702,0
63,100,0.22272727272727272,365,0,80,DL_MelancholicFolk_Guitar,6,4,sinpen_melancholic,0.09181500971317291,0
58,100,1.0,475,0,80,DL_MelancholicFolk_Guitar,6,15,sinpen_melancholic,0.10748016834259033,0
53,100,0.2409090909090909,703,0,80,DL_MelancholicFolk_Guitar,6,4,sinpen_melancholic,0.12482720613479614,0
53,100,0.8590909090909091,766,0,80,DL_MelancholicFolk_Guitar,6,14,sinpen_melancholic,0.17903470993041992,0
53,100,0.18181818181818182,79,1,81,DL_MelancholicFolk_Guitar,6,3,sinpen_melancholic,0.9984880685806274,1
60,100,0.11818181818181818,193,0,81,DL_MelancholicFolk_Guitar,6,2,sinpen_melancholic,0.06334628164768219,0
60,100,0.5363636363636364,303,0,81,DL_MelancholicFolk_Guitar,6,9,sinpen_melancholic,0.05774250626564026,0
60,100,0.13636363636363635,436,0,81,DL_MelancholicFolk_Guitar,6,2,sinpen_melancholic,0.060204632580280304,0
55,100,0.4409090909090909,475,0,81,DL_MelancholicFolk_Guitar,6,7,sinpen_melancholic,0.06970442831516266,0
60,100,0.4,603,0,81,DL_MelancholicFolk_Guitar,6,6,sinpen_melancholic,0.0818977952003479,0
56,100,0.1,857,1,81,DL_MelancholicFolk_Guitar,6,2,sinpen_melancholic,0.1240210309624672,0
58,100,0.33636363636363636,480,1,82,DL_MelancholicFolk_Guitar,6,5,sinpen_melancholic,0.9990230798721313,1
58,100,0.8,590,0,82,DL_MelancholicFolk_Guitar,6,13,sinpen_melancholic,0.36661669611930847,0
58,100,0.6181818181818182,832,1,82,DL_MelancholicFolk_Guitar,6,10,sinpen_melancholic,0.45329341292381287,0
70,100,0.2409090909090909,87,1,83,DL_MelancholicFolk_Guitar,6,4,sinpen_melancholic,0.9983737468719482,1
63,100,0.11818181818181818,140,0,83,DL_MelancholicFolk_Guitar,6,2,sinpen_melancholic,0.05106060951948166,0
58,100,0.11818181818181818,307,0,83,DL_MelancholicFolk_Guitar,6,2,sinpen_melancholic,0.0413023978471756,0
58,100,0.2772727272727273,339,0,83,DL_MelancholicFolk_Guitar,6,4,sinpen_melancholic,0.03738545626401901,0
62,100,0.6409090909090909,426,0,83,DL_MelancholicFolk_Guitar,6,10,sinpen_melancholic,0.03832748532295227,0
62,100,0.2,572,0,83,DL_MelancholicFolk_Guitar,6,3,sinpen_melancholic,0.04474939405918121,0
58,100,0.2409090909090909,650,0,83,DL_MelancholicFolk_Guitar,6,4,sinpen_melancholic,0.05522725358605385,0
60,100,0.11818181818181818,787,0,83,DL_MelancholicFolk_Guitar,6,2,sinpen_melancholic,0.0902637466788292,0
60,100,0.37727272727272726,184,1,84,DL_MelancholicFolk_Guitar,6,6,sinpen_melancholic,0.9986500144004822,1
60,100,0.3,273,0,84,DL_MelancholicFolk_Guitar,6,5,sinpen_melancholic,0.08780427277088165,0
60,100,0.2,343,0,84,DL_MelancholicFolk_Guitar,6,3,sinpen_melancholic,0.09181827306747437,0
63,100,0.1590909090909091,519,0,84,DL_MelancholicFolk_Guitar,6,3,sinpen_melancholic,0.10748724639415741,0
56,100,0.22272727272727272,563,0,84,DL_MelancholicFolk_Guitar,6,4,sinpen_melancholic,0.12483128160238266,0
56,100,1.3409090909090908,823,1,84,DL_MelancholicFolk_Guitar,6,15,sinpen_melancholic,0.17903479933738708,0
56,100,0.11818181818181818,392,1,85,DL_MelancholicFolk_Guitar,6,2,sinpen_melancholic,0.9988419413566589,1
56,100,0.1,576,0,85,DL_MelancholicFolk_Guitar,6,2,sinpen_melancholic,0.13724790513515472,0
58,100,0.1590909090909091,616,0,85,DL_MelancholicFolk_Guitar,6,3,sinpen_melancholic,0.1597720831632614,0
60,100,0.18181818181818182,773,0,85,DL_MelancholicFolk_Guitar,6,3,sinpen_melancholic,0.18644702434539795,0
53,100,0.11818181818181818,823,0,85,DL_MelancholicFolk_Guitar,6,2,sinpen_melancholic,0.2581619322299957,0
53,100,0.17727272727272728,30,1,86,DL_MelancholicFolk_Guitar,6,3,sinpen_melancholic,0.9984880685806274,1
53,100,0.1590909090909091,189,0,86,DL_MelancholicFolk_Guitar,6,3,sinpen_melancholic,0.06334469467401505,0
58,100,0.4772727272727273,229,0,86,DL_MelancholicFolk_Guitar,6,8,sinpen_melancholic,0.057741839438676834,0
60,100,0.38181818181818183,409,0,86,DL_MelancholicFolk_Guitar,6,6,sinpen_melancholic,0.060201797634363174,0
60,100,0.2,519,0,86,DL_MelancholicFolk_Guitar,6,3,sinpen_melancholic,0.06970245391130447,0
60,100,0.1,567,0,86,DL_MelancholicFolk_Guitar,6,2,sinpen_melancholic,0.08189431577920914,0
60,100,0.8,752,0,86,DL_MelancholicFolk_Guitar,6,13,sinpen_melancholic,0.12401613593101501,0
56,100,0.5409090909090909,69,1,87,DL_MelancholicFolk_Guitar,6,9,sinpen_melancholic,0.9983164072036743,1
58,100,1.259090909090909,637,1,87,DL_MelancholicFolk_Guitar,6,15,sinpen_melancholic,0.5445552468299866,0
58,100,0.1590909090909091,53,1,88,DL_MelancholicFolk_Guitar,6,3,sinpen_melancholic,0.9984880685806274,1
58,100,0.7,100,0,88,DL_MelancholicFolk_Guitar,6,11,sinpen_melancholic,0.06334475427865982,0
70,100,0.12272727272727273,289,0,88,DL_MelancholicFolk_Guitar,6,2,sinpen_melancholic,0.05774225294589996,0
63,100,0.11818181818181818,330,0,88,DL_MelancholicFolk_Guitar,6,2,sinpen_melancholic,0.0602007620036602,0
63,100,0.6,453,0,88,DL_MelancholicFolk_Guitar,6,10,sinpen_melancholic,0.06970176845788956,0
62,100,0.3181818181818182,612,0,88,DL_MelancholicFolk_Guitar,6,5,sinpen_melancholic,0.08189556747674942,0
62,100,0.13636363636363635,722,0,88,DL_MelancholicFolk_Guitar,6,2,sinpen_melancholic,0.12402475625276566,0
60,100,0.5409090909090909,30,1,89,DL_MelancholicFolk_Guitar,6,9,sinpen_melancholic,0.9983165264129639,1
60,100,0.17727272727272728,493,1,89,DL_MelancholicFolk_Guitar,6,3,sinpen_melancholic,0.5445613861083984,0
70,100,0.2409090909090909,220,1,90,DL_MelancholicFolk_Guitar,6,4,sinpen_melancholic,0.9990229606628418,1
58,100,1.6409090909090909,299,0,90,DL_MelancholicFolk_Guitar,6,15,sinpen_melancholic,0.36661258339881897,0
58,100,0.11818181818181818,677,1,90,DL_MelancholicFolk_Guitar,6,2,sinpen_melancholic,0.45329180359840393,0
63,100,0.1,519,1,0,DL_Guitar,6,2,umon_kokounohito_ruriko,0.9792559146881104,0
58,100,0.1590909090909091,704,1,1,DL_Guitar,6,3,umon_kokounohito_ruriko,0.9792565107345581,0
56,100,0.12272727272727273,311,1,2,DL_Guitar,6,2,umon_kokounohito_ruriko,0.9983165264129639,1
63,100,1.3590909090909091,537,0,2,DL_Guitar,6,15,umon_kokounohito_ruriko,0.5445476770401001,0
63,100,1.0,836,1,4,DL_Guitar,6,15,umon_kokounohito_ruriko,0.9792554974555969,0
53,100,0.7181818181818181,373,1,5,DL_Guitar,6,11,umon_kokounohito_ruriko,0.9983164072036743,1
56,100,0.9818181818181818,593,0,5,DL_Guitar,6,15,umon_kokounohito_ruriko,0.5445480346679688,0
53,100,0.7,854,1,6,DL_Guitar,6,11,umon_kokounohito_ruriko,0.9792560338973999,0
53,100,0.1409090909090909,158,1,7,DL_Guitar,6,2,umon_kokounohito_ruriko,0.9988419413566589,1
53,100,0.4,311,0,7,DL_Guitar,6,6,umon_kokounohito_ruriko,0.1372499316930771,0
63,100,0.2818181818181818,747,1,7,DL_Guitar,6,5,umon_kokounohito_ruriko,0.15977880358695984,0
63,100,0.1590909090909091,831,0,7,DL_Guitar,6,3,umon_kokounohito_ruriko,0.18645457923412323,0
63,100,0.1409090909090909,871,0,7,DL_Guitar,6,2,umon_kokounohito_ruriko,0.2581765353679657,0
53,100,0.18181818181818182,527,1,8,DL_Guitar,6,3,umon_kokounohito_ruriko,0.9990057349205017,1
53,100,0.4590909090909091,581,0,8,DL_Guitar,6,7,umon_kokounohito_ruriko,0.2312038391828537,0
53,100,0.22272727272727272,685,0,8,DL_Guitar,6,4,umon_kokounohito_ruriko,0.26592230796813965,0
63,100,0.8590909090909091,787,0,8,DL_Guitar,6,14,umon_kokounohito_ruriko,0.3541927635669708,0
63,100,0.21818181818181817,448,1,13,DL_Guitar,6,3,umon_kokounohito_ruriko,0.9792559146881104,0
56,100,1.740909090909091,92,1,14,DL_Guitar,6,15,umon_kokounohito_ruriko,0.9990057349205017,1
56,100,0.2818181818181818,519,1,14,DL_Guitar,6,5,umon_kokounohito_ruriko,0.23120883107185364,0
56,100,0.1409090909090909,735,0,14,DL_Guitar,6,2,umon_kokounohito_ruriko,0.2659207284450531,0
63,100,0.2409090909090909,783,0,14,DL_Guitar,6,4,umon_kokounohito_ruriko,0.35418733954429626,0
56,100,0.2409090909090909,22,1,15,DL_Guitar,6,4,umon_kokounohito_ruriko,0.9984880685806274,1
56,100,0.1590909090909091,96,0,15,DL_Guitar,6,3,umon_kokounohito_ruriko,0.06334319710731506,0
53,100,0.3,144,0,15,DL_Guitar,6,5,umon_kokounohito_ruriko,0.057741738855838776,0
53,100,0.2,276,0,15,DL_Guitar,6,3,umon_kokounohito_ruriko,0.060201000422239304,0
63,100,0.4,386,0,15,DL_Guitar,6,6,umon_kokounohito_ruriko,0.0697007030248642,0
53,100,0.1,536,0,15,DL_Guitar,6,2,umon_kokounohito_ruriko,0.08189377188682556,0
55,100,0.1,778,1,15,DL_Guitar,6,2,umon_kokounohito_ruriko,0.12401732057332993,0
63,100,0.4818181818181818,210,1,16,DL_Guitar,6,8,umon_kokounohito_ruriko,0.9990057349205017,1
53,100,0.12272727272727273,356,0,16,DL_Guitar,6,2,umon_kokounohito_ruriko,0.23120521008968353,0
58,100,0.2,391,0,16,DL_Guitar,6,3,umon_kokounohito_ruriko,0.26592692732810974,0
63,100,0.3,804,1,16,DL_Guitar,6,5,umon_kokounohito_ruriko,0.354193776845932,0
56,100,0.11818181818181818,461,1,17,DL_Guitar,6,2,umon_kokounohito_ruriko,0.9990057349205017,1
53,100,0.2590909090909091,519,0,17,DL_Guitar,6,4,umon_kokounohito_ruriko,0.23120802640914917,0
53,100,0.1590909090909091,646,0,17,DL_Guitar,6,3,umon_kokounohito_ruriko,0.2659186124801636,0
63,100,0.33636363636363636,831,0,17,DL_Guitar,6,5,umon_kokounohito_ruriko,0.35419508814811707,0
53,100,0.2409090909090909,44,1,18,DL_Guitar,6,4,umon_kokounohito_ruriko,0.9986500144004822,1
55,100,0.3181818181818182,216,0,18,DL_Guitar,6,5,umon_kokounohito_ruriko,0.0878058671951294,0
55,100,0.9227272727272727,356,0,18,DL_Guitar,6,15,umon_kokounohito_ruriko,0.09181187301874161,0
55,100,0.22272727272727272,642,1,18,DL_Guitar,6,4,umon_kokounohito_ruriko,0.10747817903757095,0
60,100,0.1409090909090909,748,0,18,DL_Guitar,6,2,umon_kokounohito_ruriko,0.12482291460037231,0
60,100,0.18181818181818182,783,0,18,DL_Guitar,6,3,umon_kokounohito_ruriko,0.17902952432632446,0
63,100,0.12272727272727273,79,1,19,DL_Guitar,6,2,umon_kokounohito_ruriko,0.9990057349205017,1
53,100,0.5227272727272727,356,1,19,DL_Guitar,6,8,umon_kokounohito_ruriko,0.23120605945587158,0
53,100,0.2590909090909091,492,0,19,DL_Guitar,6,4,umon_kokounohito_ruriko,0.2659267485141754,0
53,100,0.2590909090909091,563,0,19,DL_Guitar,6,4,umon_kokounohito_ruriko,0.35419130325317383,0
53,100,0.11818181818181818,17,1,20,DL_Guitar,6,2,umon_kokounohito_ruriko,0.9983736276626587,1
55,100,0.2590909090909091,285,1,20,DL_Guitar,6,4,umon_kokounohito_ruriko,0.05106078460812569,0
53,100,0.11818181818181818,351,0,20,DL_Guitar,6,2,umon_kokounohito_ruriko,0.04130346328020096,0
55,100,0.5818181818181818,399,0,20,DL_Guitar,6,9,umon_kokounohito_ruriko,0.037387143820524216,0
56,100,0.21818181818181817,567,0,20,DL_Guitar,6,3,umon_kokounohito_ruriko,0.03833039477467537,0
56,100,0.12272727272727273,642,0,20,DL_Guitar,6,2,umon_kokounohito_ruriko,0.044752612709999084,0
56,100,0.21818181818181817,691,0,20,DL_Guitar,6,3,umon_kokounohito_ruriko,0.05522988364100456,0
56,100,0.3,801,0,20,DL_Guitar,6,5,umon_kokounohito_ruriko,0.09026242047548294,0
56,100,0.17727272727272728,9,1,21,DL_Guitar,6,3,umon_kokounohito_ruriko,0.9990057349205017,1
63,100,0.2590909090909091,303,1,21,DL_Guitar,6,4,umon_kokounohito_ruriko,0.2312023639678955,0
63,100,0.4,515,0,21,DL_Guitar,6,6,umon_kokounohito_ruriko,0.2659251093864441,0
63,100,0.8590909090909091,743,0,21,DL_Guitar,6,14,umon_kokounohito_ruriko,0.3541979193687439,0
63,100,0.35909090909090907,96,1,22,DL_Guitar,6,6,umon_kokounohito_ruriko,0.9990229606628418,1
63,100,0.4,260,0,22,DL_Guitar,6,6,umon_kokounohito_ruriko,0.366632342338562,0
63,100,0.17727272727272728,480,0,22,DL_Guitar,6,3,umon_kokounohito_ruriko,0.45330458879470825,0
58,100,0.12272727272727273,223,1,26,DL_Guitar,6,2,umon_kokounohito_ruriko,0.9982276558876038,1
53,100,0.2409090909090909,254,0,26,DL_Guitar,6,4,umon_kokounohito_ruriko,0.0393972173333168,0
58,100,0.1590909090909091,351,0,26,DL_Guitar,6,3,umon_kokounohito_ruriko,0.02667267993092537,0
53,100,0.11818181818181818,395,0,26,DL_Guitar,6,2,umon_kokounohito_ruriko,0.018587306141853333,0
53,100,0.17727272727272728,449,0,26,DL_Guitar,6,3,umon_kokounohito_ruriko,0.013413159176707268,0
58,100,0.2818181818181818,519,0,26,DL_Guitar,6,5,umon_kokounohito_ruriko,0.010586649179458618,0
53,100,0.1590909090909091,602,0,26,DL_Guitar,6,3,umon_kokounohito_ruriko,0.009838895872235298,0
58,100,0.2,673,0,26,DL_Guitar,6,3,umon_kokounohito_ruriko,0.011416686698794365,0
53,100,0.2,725,0,26,DL_Guitar,6,3,umon_kokounohito_ruriko,0.016511179506778717,0
58,100,0.3,783,0,26,DL_Guitar,6,5,umon_kokounohito_ruriko,0.026816319674253464,0
74,100,0.11818181818181818,866,0,26,DL_Guitar,6,2,umon_kokounohito_ruriko,0.053914062678813934,0
63,100,0.6590909090909091,501,1,27,DL_Guitar,6,11,umon_kokounohito_ruriko,0.9990229606628418,1
58,100,0.11818181818181818,725,0,27,DL_Guitar,6,2,umon_kokounohito_ruriko,0.3666342496871948,0
58,100,1.0,827,0,27,DL_Guitar,6,15,umon_kokounohito_ruriko,0.4532914459705353,0
63,100,0.1409090909090909,175,1,28,DL_Guitar,6,2,umon_kokounohito_ruriko,0.9990057349205017,1
58,100,0.3181818181818182,360,0,28,DL_Guitar,6,5,umon_kokounohito_ruriko,0.23121464252471924,0
63,100,1.040909090909091,474,0,28,DL_Guitar,6,15,umon_kokounohito_ruriko,0.26592132449150085,0
63,100,0.2590909090909091,783,1,28,DL_Guitar,6,4,umon_kokounohito_ruriko,0.3541980981826782,0
55,100,0.5409090909090909,100,1,29,DL_Guitar,6,9,umon_kokounohito_ruriko,0.9986500144004822,1
58,100,0.18181818181818182,246,0,29,DL_Guitar,6,3,umon_kokounohito_ruriko,0.08780182152986526,0
55,100,0.1409090909090909,312,0,29,DL_Guitar,6,2,umon_kokounohito_ruriko,0.09181421995162964,0
63,100,1.040909090909091,378,0,29,DL_Guitar,6,15,umon_kokounohito_ruriko,0.10747135430574417,0
63,100,0.32272727272727275,642,1,29,DL_Guitar,6,5,umon_kokounohito_ruriko,0.1248270720243454,0
63,100,0.13636363636363635,876,1,29,DL_Guitar,6,2,umon_kokounohito_ruriko,0.17903397977352142,0
63,100,0.1590909090909091,57,1,30,DL_Guitar,6,3,umon_kokounohito_ruriko,0.9983164072036743,1
63,100,0.21818181818181817,193,0,30,DL_Guitar,6,3,umon_kokounohito_ruriko,0.544562041759491,0
58,100,0.41818181818181815,52,1,31,DL_Guitar,6,7,umon_kokounohito_ruriko,0.9990057349205017,1
58,100,0.740909090909091,272,0,31,DL_Guitar,6,12,umon_kokounohito_ruriko,0.23120169341564178,0
58,100,0.4818181818181818,509,1,31,DL_Guitar,6,8,umon_kokounohito_ruriko,0.2659190595149994,0
58,100,0.2590909090909091,660,0,31,DL_Guitar,6,4,umon_kokounohito_ruriko,0.3541920483112335,0
63,100,0.2,66,1,32,DL_Guitar,6,3,umon_kokounohito_ruriko,0.9983736276626587,1
63,100,0.17727272727272728,206,0,32,DL_Guitar,6,3,umon_kokounohito_ruriko,0.05106126517057419,0
58,100,0.1409090909090909,321,0,32,DL_Guitar,6,2,umon_kokounohito_ruriko,0.041303716599941254,0
63,100,0.11818181818181818,493,0,32,DL_Guitar,6,2,umon_kokounohito_ruriko,0.03738611564040184,0
63,100,0.1,606,0,32,DL_Guitar,6,2,umon_kokounohito_ruriko,0.038331061601638794,0
53,100,0.21818181818181817,638,0,32,DL_Guitar,6,3,umon_kokounohito_ruriko,0.044753771275281906,0
58,100,0.4,686,0,32,DL_Guitar,6,6,umon_kokounohito_ruriko,0.05523155257105827,0
58,100,0.2,796,0,32,DL_Guitar,6,3,umon_kokounohito_ruriko,0.09026764333248138,0
53,100,0.11818181818181818,53,1,33,DL_Guitar,6,2,umon_kokounohito_ruriko,0.9988419413566589,1
53,100,0.22272727272727272,114,0,33,DL_Guitar,6,4,umon_kokounohito_ruriko,0.1372493952512741,0
55,100,0.18181818181818182,386,1,33,DL_Guitar,6,3,umon_kokounohito_ruriko,0.1597800999879837,0
59,100,0.4818181818181818,453,0,33,DL_Guitar,6,8,umon_kokounohito_ruriko,0.18645413219928741,0
55,100,0.5,563,0,33,DL_Guitar,6,8,umon_kokounohito_ruriko,0.258157342672348,0
55,100,0.2,26,1,34,DL_Guitar,6,3,umon_kokounohito_ruriko,0.9988419413566589,1
63,100,0.11818181818181818,105,0,34,DL_Guitar,6,2,umon_kokounohito_ruriko,0.13724902272224426,0
55,100,0.16363636363636364,268,0,34,DL_Guitar,6,3,umon_kokounohito_ruriko,0.15977934002876282,0
58,100,0.1590909090909091,364,0,34,DL_Guitar,6,3,umon_kokounohito_ruriko,0.1864505261182785,0
56,100,0.1590909090909091,756,1,34,DL_Guitar,6,3,umon_kokounohito_ruriko,0.2581585943698883,0
58,100,0.3,201,1,35,DL_Guitar,6,5,umon_kokounohito_ruriko,0.9988419413566589,1
58,100,0.37727272727272726,458,1,35,DL_Guitar,6,6,umon_kokounohito_ruriko,0.1372428983449936,0
53,100,0.1,545,0,35,DL_Guitar,6,2,umon_kokounohito_ruriko,0.15977008640766144,0
58,100,0.2818181818181818,576,0,35,DL_Guitar,6,5,umon_kokounohito_ruriko,0.1864466369152069,0
58,100,0.4,729,0,35,DL_Guitar,6,6,umon_kokounohito_ruriko,0.25815898180007935,0
63,100,0.17727272727272728,426,1,36,DL_Guitar,6,3,umon_kokounohito_ruriko,0.9983164072036743,1
63,100,0.43636363636363634,655,0,36,DL_Guitar,6,7,umon_kokounohito_ruriko,0.544560432434082,0
56,100,0.11818181818181818,96,1,37,DL_Guitar,6,2,umon_kokounohito_ruriko,0.9988419413566589,1
63,100,0.2772727272727273,370,1,37,DL_Guitar,6,4,umon_kokounohito_ruriko,0.1372523307800293,0
63,100,0.41818181818181815,435,0,37,DL_Guitar,6,7,umon_kokounohito_ruriko,0.1597837656736374,0
63,100,0.11818181818181818,655,0,37,DL_Guitar,6,2,umon_kokounohito_ruriko,0.18645775318145752,0
63,100,0.38181818181818183,748,0,37,DL_Guitar,6,6,umon_kokounohito_ruriko,0.25817200541496277,0
63,100,0.35909090909090907,88,1,38,DL_Guitar,6,6,umon_kokounohito_ruriko,0.979255735874176,0
65,100,0.4818181818181818,233,1,39,DL_Guitar,6,8,umon_kokounohito_ruriko,0.9988419413566589,1
56,100,0.4636363636363636,421,0,39,DL_Guitar,6,7,umon_kokounohito_ruriko,0.13724644482135773,0
63,100,0.36363636363636365,531,0,39,DL_Guitar,6,6,umon_kokounohito_ruriko,0.15977881848812103,0
63,100,0.35909090909090907,748,0,39,DL_Guitar,6,6,umon_kokounohito_ruriko,0.18644748628139496,0
58,100,0.1409090909090909,861,0,39,DL_Guitar,6,2,umon_kokounohito_ruriko,0.25817713141441345,0
53,100,0.23636363636363636,18,1,40,DL_Guitar,6,4,umon_kokounohito_ruriko,0.9990057349205017,1
58,100,0.16363636363636364,114,0,40,DL_Guitar,6,3,umon_kokounohito_ruriko,0.23120516538619995,0
58,100,0.759090909090909,163,0,40,DL_Guitar,6,12,umon_kokounohito_ruriko,0.26591676473617554,0
58,100,0.2590909090909091,351,0,40,DL_Guitar,6,4,umon_kokounohito_ruriko,0.35419613122940063,0
53,100,0.3181818181818182,198,1,41,DL_Guitar,6,5,umon_kokounohito_ruriko,0.9988419413566589,1
58,100,0.9409090909090909,273,0,41,DL_Guitar,6,15,umon_kokounohito_ruriko,0.13724486529827118,0
58,100,0.4818181818181818,483,0,41,DL_Guitar,6,8,umon_kokounohito_ruriko,0.15977753698825836,0
58,100,0.1590909090909091,593,0,41,DL_Guitar,6,3,umon_kokounohito_ruriko,0.18644839525222778,0
63,100,0.41818181818181815,770,0,41,DL_Guitar,6,7,umon_kokounohito_ruriko,0.25816139578819275,0
63,100,0.32272727272727275,34,1,42,DL_Guitar,6,5,umon_kokounohito_ruriko,0.9983165264129639,1
63,100,0.5,188,0,42,DL_Guitar,6,8,umon_kokounohito_ruriko,0.5445666313171387,0
63,100,0.11818181818181818,110,1,43,DL_Guitar,6,2,umon_kokounohito_ruriko,0.9990229606628418,1
58,100,0.2,263,0,43,DL_Guitar,6,3,umon_kokounohito_ruriko,0.3666267395019531,0
65,100,0.13636363636363635,523,1,43,DL_Guitar,6,2,umon_kokounohito_ruriko,0.4532887935638428,0
65,100,0.37727272727272726,105,1,44,DL_Guitar,6,6,umon_kokounohito_ruriko,0.9990229606628418,1
63,100,0.1590909090909091,418,1,44,DL_Guitar,6,3,umon_kokounohito_ruriko,0.36662447452545166,0
63,100,0.11818181818181818,681,1,44,DL_Guitar,6,2,umon_kokounohito_ruriko,0.4532945454120636,0
63,100,0.8590909090909091,198,1,45,DL_Guitar,6,14,umon_kokounohito_ruriko,0.9990057349205017,1
56,100,0.2409090909090909,399,0,45,DL_Guitar,6,4,umon_kokounohito_ruriko,0.2312077432870865,0
56,100,0.13636363636363635,458,0,45,DL_Guitar,6,2,umon_kokounohito_ruriko,0.2659217417240143,0
56,100,0.16363636363636364,509,0,45,DL_Guitar,6,3,umon_kokounohito_ruriko,0.35419097542762756,0
62,100,0.5181818181818182,0,1,47,DL_Guitar,6,8,umon_kokounohito_ruriko,0.9983164072036743,1
63,100,1.8,370,1,47,DL_Guitar,6,15,umon_kokounohito_ruriko,0.5445566177368164,0
58,100,0.5181818181818182,308,1,48,DL_Guitar,6,8,umon_kokounohito_ruriko,0.9792560338973999,0
58,100,0.2,21,1,49,DL_Guitar,6,3,umon_kokounohito_ruriko,0.9792565107345581,0
58,100,0.16363636363636364,224,1,50,DL_Guitar,6,3,umon_kokounohito_ruriko,0.9983165264129639,1
56,100,0.21818181818181817,273,0,50,DL_Guitar,6,3,umon_kokounohito_ruriko,0.5445541143417358,0
62,100,0.16363636363636364,136,1,51,DL_Guitar,6,3,umon_kokounohito_ruriko,0.9792560338973999,0
63,100,0.11818181818181818,501,1,52,DL_Guitar,6,2,umon_kokounohito_ruriko,0.9990229606628418,1
63,100,0.1,531,0,52,DL_Guitar,6,2,umon_kokounohito_ruriko,0.366629421710968,0
63,100,0.21818181818181817,558,0,52,DL_Guitar,6,3,umon_kokounohito_ruriko,0.4532985985279083,0
58,100,0.12272727272727273,796,1,53,DL_Guitar,6,2,umon_kokounohito_ruriko,0.9792565107345581,1
58,100,0.2,681,1,55,DL_Guitar,6,3,umon_kokounohito_ruriko,0.9792563915252686,0
58,100,0.2772727272727273,8,1,56,DL_Guitar,6,4,umon_kokounohito_ruriko,0.9983165264129639,1
55,100,0.5409090909090909,603,1,56,DL_Guitar,6,9,umon_kokounohito_ruriko,0.5445501208305359,0
55,100,0.18181818181818182,4,1,57,DL_Guitar,6,3,umon_kokounohito_ruriko,0.9990057349205017,1
55,100,0.11818181818181818,413,1,57,DL_Guitar,6,2,umon_kokounohito_ruriko,0.2312072068452835,0
63,100,0.11818181818181818,703,1,57,DL_Guitar,6,2,umon_kokounohito_ruriko,0.265918493270874,0
63,100,0.3409090909090909,778,0,57,DL_Guitar,6,5,umon_kokounohito_ruriko,0.3541961908340454,0
58,100,0.2,153,1,58,DL_Guitar,6,3,umon_kokounohito_ruriko,0.9990057349205017,1
53,100,0.38181818181818183,431,1,58,DL_Guitar,6,6,umon_kokounohito_ruriko,0.2311972677707672,0
65,100,0.11818181818181818,528,0,58,DL_Guitar,6,2,umon_kokounohito_ruriko,0.26591193675994873,0
58,100,0.2409090909090909,576,0,58,DL_Guitar,6,4,umon_kokounohito_ruriko,0.3541930019855499,0
63,100,0.1,483,1,59,DL_Guitar,6,2,umon_kokounohito_ruriko,0.979256272315979,0
58,100,0.3,801,1,60,DL_Guitar,6,5,umon_kokounohito_ruriko,0.9983165264129639,1
53,100,0.17727272727272728,875,0,60,DL_Guitar,6,3,umon_kokounohito_ruriko,0.5445544719696045,0
53,100,0.18181818181818182,298,1,63,DL_Guitar,6,3,umon_kokounohito_ruriko,0.9983164072036743,1
53,100,0.18181818181818182,373,0,63,DL_Guitar,6,3,umon_kokounohito_ruriko,0.5445554852485657,0
53,100,0.1409090909090909,163,1,64,DL_Guitar,6,2,umon_kokounohito_ruriko,0.9792558550834656,0
53,100,0.17727272727272728,612,1,65,DL_Guitar,6,3,umon_kokounohito_ruriko,0.9983164072036743,1
53,100,0.2,826,0,65,DL_Guitar,6,3,umon_kokounohito_ruriko,0.5445572137832642,0
53,100,0.2818181818181818,189,1,66,DL_Guitar,6,5,umon_kokounohito_ruriko,0.9990057349205017,1
53,100,0.2772727272727273,392,0,66,DL_Guitar,6,4,umon_kokounohito_ruriko,0.2311992049217224,0
53,100,0.5409090909090909,466,0,66,DL_Guitar,6,9,umon_kokounohito_ruriko,0.265920490026474,0
55,100,0.11818181818181818,747,1,66,DL_Guitar,6,2,umon_kokounohito_ruriko,0.354194313287735,0
53,100,0.17727272727272728,184,1,67,DL_Guitar,6,3,umon_kokounohito_ruriko,0.9983165264129639,1
56,100,0.2,536,1,67,DL_Guitar,6,3,umon_kokounohito_ruriko,0.5445545315742493,0
58,100,0.1409090909090909,629,1,69,DL_Guitar,6,2,umon_kokounohito_ruriko,0.9983165264129639,1
58,100,0.2818181818181818,663,0,69,DL_Guitar,6,5,umon_kokounohito_ruriko,0.5445524454116821,0
53,100,0.18181818181818182,422,1,70,DL_Guitar,6,3,umon_kokounohito_ruriko,0.9990057349205017,1
58,100,0.1590909090909091,546,0,70,DL_Guitar,6,3,umon_kokounohito_ruriko,0.2312016785144806,0
58,100,0.1590909090909091,585,0,70,DL_Guitar,6,3,umon_kokounohito_ruriko,0.2659161686897278,0
53,100,0.12272727272727273,619,0,70,DL_Guitar,6,2,umon_kokounohito_ruriko,0.35418426990509033,0
58,100,0.3409090909090909,462,1,71,DL_Guitar,6,5,umon_kokounohito_ruriko,0.9983165264129639,1
58,100,0.4772727272727273,743,1,71,DL_Guitar,6,8,umon_kokounohito_ruriko,0.5445581674575806,0
53,100,0.1409090909090909,0,1,72,DL_Guitar,6,2,umon_kokounohito_ruriko,0.9983164072036743,1
58,100,0.3,792,1,72,DL_Guitar,6,5,umon_kokounohito_ruriko,0.544556736946106,0
58,100,0.1,13,1,73,DL_Guitar,6,2,umon_kokounohito_ruriko,0.9988419413566589,1
65,100,0.38181818181818183,330,1,73,DL_Guitar,6,6,umon_kokounohito_ruriko,0.13724301755428314,0
65,100,0.1,417,0,73,DL_Guitar,6,2,umon_kokounohito_ruriko,0.15977226197719574,0
65,100,0.12272727272727273,629,0,73,DL_Guitar,6,2,umon_kokounohito_ruriko,0.18644317984580994,0
65,100,0.18181818181818182,770,0,73,DL_Guitar,6,3,umon_kokounohito_ruriko,0.25815486907958984,0
65,100,0.13636363636363635,83,1,74,DL_Guitar,6,2,umon_kokounohito_ruriko,0.9990229606628418,1
63,100,0.2818181818181818,597,1,74,DL_Guitar,6,5,umon_kokounohito_ruriko,0.3666253387928009,0
63,100,0.3181818181818182,669,0,74,DL_Guitar,6,5,umon_kokounohito_ruriko,0.45329371094703674,0
58,100,0.2,263,1,75,DL_Guitar,6,3,umon_kokounohito_ruriko,0.9990057349205017,1
62,100,0.2,352,0,75,DL_Guitar,6,3,umon_kokounohito_ruriko,0.23119701445102692,0
53,100,0.2409090909090909,756,1,75,DL_Guitar,6,4,umon_kokounohito_ruriko,0.2659245431423187,0
53,100,0.18181818181818182,813,0,75,DL_Guitar,6,3,umon_kokounohito_ruriko,0.3541978895664215,0
53,100,0.1409090909090909,9,1,76,DL_Guitar,6,2,umon_kokounohito_ruriko,0.9990057349205017,1
53,100,0.1590909090909091,66,0,76,DL_Guitar,6,3,umon_kokounohito_ruriko,0.23120133578777313,0
65,100,0.1,282,0,76,DL_Guitar,6,2,umon_kokounohito_ruriko,0.2659161686897278,0
55,100,0.1,673,1,76,DL_Guitar,6,2,umon_kokounohito_ruriko,0.3541964292526245,0
58,100,0.2409090909090909,532,1,77,DL_Guitar,6,4,umon_kokounohito_ruriko,0.9983165264129639,1
58,100,0.21818181818181817,590,0,77,DL_Guitar,6,3,umon_kokounohito_ruriko,0.544553816318512,0
58,100,0.1,83,1,78,DL_Guitar,6,2,umon_kokounohito_ruriko,0.9983165264129639,1
58,100,0.21818181818181817,339,1,78,DL_Guitar,6,3,umon_kokounohito_ruriko,0.5445565581321716,0
58,100,0.13636363636363635,83,1,79,DL_Guitar,6,2,umon_kokounohito_ruriko,0.9983165264129639,1
60,100,0.32272727272727275,519,1,79,DL_Guitar,6,5,umon_kokounohito_ruriko,0.5445566177368164,0
58,100,0.1,3,1,80,DL_Guitar,6,2,umon_kokounohito_ruriko,0.9990229606628418,1
58,100,1.0772727272727274,40,0,80,DL_Guitar,6,15,umon_kokounohito_ruriko,0.36661970615386963,0
58,100,0.1409090909090909,462,1,80,DL_Guitar,6,2,umon_kokounohito_ruriko,0.45329251885414124,0
58,100,0.2818181818181818,839,1,82,DL_Guitar,6,5,umon_kokounohito_ruriko,0.979256272315979,1
58,100,1.2818181818181817,466,1,84,DL_Guitar,6,15,umon_kokounohito_ruriko,0.9792561531066895,0
58,100,0.4409090909090909,817,1,86,DL_Guitar,6,7,umon_kokounohito_ruriko,0.9792565107345581,0
58,100,0.4772727272727273,62,1,87,DL_Guitar,6,8,umon_kokounohito_ruriko,0.9983165264129639,1
58,100,0.2818181818181818,179,0,87,DL_Guitar,6,5,umon_kokounohito_ruriko,0.544559895992279,0
58,100,1.2363636363636363,853,1,89,DL_Guitar,6,15,umon_kokounohito_ruriko,0.9792560338973999,0
63,100,0.11818181818181818,703,1,90,DL_Guitar,6,2,umon_kokounohito_ruriko,0.9983164072036743,1
58,100,0.2818181818181818,739,0,90,DL_Guitar,6,5,umon_kokounohito_ruriko,0.5445632934570312,0
58,100,0.11818181818181818,43,1,91,DL_Guitar,6,2,umon_kokounohito_ruriko,0.9990057349205017,1
58,100,0.32272727272727275,123,0,91,DL_Guitar,6,5,umon_kokounohito_ruriko,0.23120246827602386,0
58,100,0.2409090909090909,356,1,91,DL_Guitar,6,4,umon_kokounohito_ruriko,0.2659193277359009,0
58,100,1.0227272727272727,650,1,91,DL_Guitar,6,15,umon_kokounohito_ruriko,0.35418954491615295,0
58,100,0.4818181818181818,3,1,92,DL_Guitar,6,8,umon_kokounohito_ruriko,0.9990057349205017,1
58,100,0.1590909090909091,373,1,92,DL_Guitar,6,3,umon_kokounohito_ruriko,0.23120440542697906,0
58,100,0.1,440,0,92,DL_Guitar,6,2,umon_kokounohito_ruriko,0.265921413898468,0
53,100,0.18181818181818182,593,0,92,DL_Guitar,6,3,umon_kokounohito_ruriko,0.35418763756752014,0
53,100,0.18181818181818182,246,1,93,DL_Guitar,6,3,umon_kokounohito_ruriko,0.9792561531066895,0
58,100,0.3409090909090909,22,1,94,DL_Guitar,6,5,umon_kokounohito_ruriko,0.9990057349205017,1
58,100,0.17727272727272728,250,0,94,DL_Guitar,6,3,umon_kokounohito_ruriko,0.23120185732841492,0
58,100,0.5181818181818182,713,1,94,DL_Guitar,6,8,umon_kokounohito_ruriko,0.26591944694519043,0
58,100,0.7181818181818181,853,0,94,DL_Guitar,6,11,umon_kokounohito_ruriko,0.35418900847435,0
56,100,0.5409090909090909,145,1,95,DL_Guitar,6,9,umon_kokounohito_ruriko,0.9990229606628418,1
56,100,0.18181818181818182,267,0,95,DL_Guitar,6,3,umon_kokounohito_ruriko,0.36662644147872925,0
62,100,0.3181818181818182,690,1,95,DL_Guitar,6,5,umon_kokounohito_ruriko,0.45329439640045166,0
63,100,0.2772727272727273,787,1,96,DL_Guitar,6,4,umon_kokounohito_ruriko,0.9792561531066895,1
63,100,0.18181818181818182,862,1,97,DL_Guitar,6,3,umon_kokounohito_ruriko,0.9792559146881104,0
60,100,0.33636363636363636,348,1,1,DL_Guitar,6,5,ninjyou,0.9988420605659485,1
55,100,0.1409090909090909,431,0,1,DL_Guitar,6,2,ninjyou,0.1372472047805786,0
60,100,0.1,487,0,1,DL_Guitar,6,2,ninjyou,0.15977968275547028,0
52,100,0.2,590,0,1,DL_Guitar,6,3,ninjyou,0.18644751608371735,0
55,100,0.38181818181818183,849,1,1,DL_Guitar,6,6,ninjyou,0.2581630051136017,0
53,100,0.11818181818181818,712,1,3,DL_Guitar,6,2,ninjyou,0.9792565107345581,0
53,100,0.1409090909090909,74,1,4,DL_Guitar,6,2,ninjyou,0.9990230798721313,1
55,100,0.3,114,0,4,DL_Guitar,6,5,ninjyou,0.36662712693214417,0
60,100,0.37727272727272726,678,1,4,DL_Guitar,6,6,ninjyou,0.45329007506370544,0
60,100,0.3181818181818182,220,1,5,DL_Guitar,6,5,ninjyou,0.9986500144004822,1
60,100,0.1409090909090909,311,0,5,DL_Guitar,6,2,ninjyou,0.08780720829963684,0
57,100,0.3,360,0,5,DL_Guitar,6,5,ninjyou,0.09181561321020126,0
55,100,0.2,431,0,5,DL_Guitar,6,3,ninjyou,0.10748343914747238,0
55,100,0.2409090909090909,716,1,5,DL_Guitar,6,4,ninjyou,0.1248275488615036,0
55,100,0.3409090909090909,774,0,5,DL_Guitar,6,5,ninjyou,0.17903867363929749,0
55,100,0.6227272727272727,465,1,6,DL_Guitar,6,10,ninjyou,0.9983165264129639,1
57,100,0.3409090909090909,606,0,6,DL_Guitar,6,5,ninjyou,0.5445601940155029,0
60,100,0.1,40,1,7,DL_Guitar,6,2,ninjyou,0.9990057349205017,1
55,100,0.2818181818181818,79,0,7,DL_Guitar,6,5,ninjyou,0.23120282590389252,0
59,100,0.4818181818181818,703,1,7,DL_Guitar,6,8,ninjyou,0.26592153310775757,0
55,100,0.2772727272727273,844,0,7,DL_Guitar,6,4,ninjyou,0.35418635606765747,0
55,100,0.3,333,1,8,DL_Guitar,6,5,ninjyou,0.9990229606628418,1
55,100,0.17727272727272728,470,0,8,DL_Guitar,6,3,ninjyou,0.3666175901889801,0
54,100,0.1,656,0,8,DL_Guitar,6,2,ninjyou,0.4532877206802368,0
60,100,0.1409090909090909,65,1,9,DL_Guitar,6,2,ninjyou,0.9990229606628418,1
60,100,0.2818181818181818,135,0,9,DL_Guitar,6,5,ninjyou,0.36662745475769043,0
57,100,0.3409090909090909,211,0,9,DL_Guitar,6,5,ninjyou,0.45328396558761597,0
60,100,0.2,677,1,10,DL_Guitar,6,3,ninjyou,0.9983165264129639,1
55,100,0.4818181818181818,818,0,10,DL_Guitar,6,8,ninjyou,0.5445531606674194,0
54,100,0.2818181818181818,355,1,11,DL_Guitar,6,5,ninjyou,0.9792568683624268,0
55,100,0.3,180,1,12,DL_Guitar,6,5,ninjyou,0.9984880685806274,1
55,100,0.2,250,0,12,DL_Guitar,6,3,ninjyou,0.0633460283279419,0
52,100,0.7181818181818181,360,0,12,DL_Guitar,6,11,ninjyou,0.05774237588047981,0
55,100,0.2818181818181818,527,0,12,DL_Guitar,6,5,ninjyou,0.06020257994532585,0
57,100,0.6,594,0,12,DL_Guitar,6,10,ninjyou,0.06970337778329849,0
52,100,0.3,739,0,12,DL_Guitar,6,5,ninjyou,0.0818977952003479,0
55,100,0.9409090909090909,804,0,12,DL_Guitar,6,15,ninjyou,0.12402024120092392,0
52,100,0.3,140,1,13,DL_Guitar,6,5,ninjyou,0.9990057349205017,1
55,100,1.2818181818181817,211,0,13,DL_Guitar,6,15,ninjyou,0.23120205104351044,0
55,100,0.1409090909090909,505,1,13,DL_Guitar,6,2,ninjyou,0.26592445373535156,0
60,100,0.1590909090909091,783,1,13,DL_Guitar,6,3,ninjyou,0.3541933596134186,0
54,100,0.21818181818181817,175,1,14,DL_Guitar,6,3,ninjyou,0.9988419413566589,1
62,100,0.1,338,0,14,DL_Guitar,6,2,ninjyou,0.1372448056936264,0
52,100,0.4409090909090909,448,0,14,DL_Guitar,6,7,ninjyou,0.15977637469768524,0
52,100,0.3409090909090909,584,0,14,DL_Guitar,6,5,ninjyou,0.18645353615283966,0
59,100,0.6,663,0,14,DL_Guitar,6,10,ninjyou,0.2581675946712494,0
57,100,0.32272727272727275,409,1,15,DL_Guitar,6,5,ninjyou,0.9983164072036743,1
59,100,0.3181818181818182,479,0,15,DL_Guitar,6,5,ninjyou,0.5445569753646851,0
57,100,0.3,656,1,16,DL_Guitar,6,5,ninjyou,0.9983165264129639,1
59,100,0.33636363636363636,721,0,16,DL_Guitar,6,5,ninjyou,0.5445589423179626,0
55,100,0.1409090909090909,268,1,17,DL_Guitar,6,2,ninjyou,0.9986500144004822,1
57,100,0.6,343,0,17,DL_Guitar,6,10,ninjyou,0.08780266344547272,0
59,100,0.6,480,0,17,DL_Guitar,6,10,ninjyou,0.09181652218103409,0
62,100,0.4,611,0,17,DL_Guitar,6,6,ninjyou,0.10747767239809036,0
62,100,0.1409090909090909,804,0,17,DL_Guitar,6,2,ninjyou,0.12482970207929611,0
62,100,0.18181818181818182,870,0,17,DL_Guitar,6,3,ninjyou,0.17903965711593628,0
55,100,0.1590909090909091,119,1,18,DL_Guitar,6,3,ninjyou,0.9988419413566589,1
62,100,0.21818181818181817,237,0,18,DL_Guitar,6,3,ninjyou,0.13725170493125916,0
67,100,0.11818181818181818,326,0,18,DL_Guitar,6,2,ninjyou,0.15978172421455383,0
55,100,0.3,356,0,18,DL_Guitar,6,5,ninjyou,0.18645118176937103,0
79,100,0.12272727272727273,422,0,18,DL_Guitar,6,2,ninjyou,0.2581632733345032,0
55,100,0.8409090909090909,540,1,19,DL_Guitar,6,13,ninjyou,0.9792561531066895,0
62,100,0.6636363636363637,223,1,20,DL_Guitar,6,11,ninjyou,0.9986500144004822,1
57,100,0.2772727272727273,413,0,20,DL_Guitar,6,4,ninjyou,0.0878070741891861,0
62,100,0.1409090909090909,474,0,20,DL_Guitar,6,2,ninjyou,0.09181923419237137,0
62,100,0.1409090909090909,686,0,20,DL_Guitar,6,2,ninjyou,0.10748782753944397,0
55,100,0.3,725,0,20,DL_Guitar,6,5,ninjyou,0.1248372495174408,0
52,100,0.5409090909090909,814,0,20,DL_Guitar,6,9,ninjyou,0.17904694378376007,0
55,100,0.6409090909090909,57,1,21,DL_Guitar,6,10,ninjyou,0.9983736276626587,1
55,100,0.18181818181818182,289,1,21,DL_Guitar,6,3,ninjyou,0.051061730831861496,0
55,100,0.38181818181818183,333,0,21,DL_Guitar,6,6,ninjyou,0.041301429271698,0
55,100,0.1409090909090909,426,0,21,DL_Guitar,6,2,ninjyou,0.03738517314195633,0
55,100,0.12272727272727273,466,0,21,DL_Guitar,6,2,ninjyou,0.03832782432436943,0
54,100,0.11818181818181818,756,1,21,DL_Guitar,6,2,ninjyou,0.04474902153015137,0
62,100,0.1,787,0,21,DL_Guitar,6,2,ninjyou,0.05522540211677551,0
54,100,0.2590909090909091,810,0,21,DL_Guitar,6,4,ninjyou,0.09026137739419937,0
55,100,0.3181818181818182,83,1,22,DL_Guitar,6,5,ninjyou,0.9990230798721313,1
55,100,0.4,440,1,22,DL_Guitar,6,6,ninjyou,0.3666287362575531,0
55,100,0.2818181818181818,642,0,22,DL_Guitar,6,5,ninjyou,0.45328855514526367,0
62,100,0.1,21,1,23,DL_Guitar,6,2,ninjyou,0.9986500144004822,1
62,100,0.1,237,0,23,DL_Guitar,6,2,ninjyou,0.08780740201473236,0
55,100,0.3409090909090909,330,0,23,DL_Guitar,6,5,ninjyou,0.0918181985616684,0
64,100,0.5772727272727273,426,0,23,DL_Guitar,6,9,ninjyou,0.10748554766178131,0
55,100,0.2409090909090909,752,1,23,DL_Guitar,6,4,ninjyou,0.12482775747776031,0
52,100,0.5,814,0,23,DL_Guitar,6,8,ninjyou,0.17903780937194824,0
62,100,0.2,220,1,24,DL_Guitar,6,3,ninjyou,0.9990057349205017,1
55,100,0.2772727272727273,567,1,24,DL_Guitar,6,4,ninjyou,0.23121556639671326,0
55,100,0.3,642,0,24,DL_Guitar,6,5,ninjyou,0.26592808961868286,0
62,100,0.5227272727272727,796,0,24,DL_Guitar,6,8,ninjyou,0.3542040288448334,0
55,100,0.6,44,1,25,DL_Guitar,6,10,ninjyou,0.9983165264129639,1
62,100,0.32272727272727275,179,0,25,DL_Guitar,6,5,ninjyou,0.544563889503479,0
64,100,0.2818181818181818,3,1,26,DL_Guitar,6,5,ninjyou,0.9983736276626587,1
52,100,0.3181818181818182,75,0,26,DL_Guitar,6,5,ninjyou,0.05106054246425629,0
55,100,0.5590909090909091,144,0,26,DL_Guitar,6,9,ninjyou,0.04130449891090393,0
55,100,1.1,281,0,26,DL_Guitar,6,15,ninjyou,0.03738563507795334,0
54,100,0.1,540,1,26,DL_Guitar,6,2,ninjyou,0.038330499082803726,0
54,100,0.11818181818181818,602,0,26,DL_Guitar,6,2,ninjyou,0.04475032910704613,0
54,100,0.6409090909090909,691,0,26,DL_Guitar,6,10,ninjyou,0.055227670818567276,0
62,100,0.1409090909090909,862,0,26,DL_Guitar,6,2,ninjyou,0.09026403725147247,0
62,100,0.43636363636363634,17,1,27,DL_Guitar,6,7,ninjyou,0.9988419413566589,1
54,100,0.22272727272727272,113,0,27,DL_Guitar,6,4,ninjyou,0.1372535526752472,0
55,100,0.41818181818181815,162,0,27,DL_Guitar,6,7,ninjyou,0.15978188812732697,0
55,100,0.5181818181818182,413,1,27,DL_Guitar,6,8,ninjyou,0.18645432591438293,0
55,100,0.11818181818181818,756,1,27,DL_Guitar,6,2,ninjyou,0.2581706941127777,0
62,100,0.12272727272727273,179,1,28,DL_Guitar,6,2,ninjyou,0.9983165264129639,1
55,100,1.4181818181818182,418,1,28,DL_Guitar,6,15,ninjyou,0.5445539355278015,0
62,100,0.1,285,1,29,DL_Guitar,6,2,ninjyou,0.9990229606628418,1
69,100,0.42272727272727273,532,1,29,DL_Guitar,6,7,ninjyou,0.3666251003742218,0
69,100,0.2590909090909091,633,0,29,DL_Guitar,6,4,ninjyou,0.4532965123653412,0
67,100,1.2181818181818183,66,1,39,DL_Guitar,6,15,ninjyou,0.9988419413566589,1
67,100,0.3,356,1,39,DL_Guitar,6,5,ninjyou,0.13725119829177856,0
67,100,0.7363636363636363,480,0,39,DL_Guitar,6,12,ninjyou,0.15978173911571503,0
67,100,0.8,678,0,39,DL_Guitar,6,13,ninjyou,0.18644548952579498,0
67,100,0.18181818181818182,858,0,39,DL_Guitar,6,3,ninjyou,0.25815609097480774,0
55,100,0.6409090909090909,316,1,40,DL_Guitar,6,10,ninjyou,0.9792559146881104,0
62,100,0.5818181818181818,153,1,41,DL_Guitar,6,9,ninjyou,0.9990057349205017,1
52,100,1.2,286,0,41,DL_Guitar,6,15,ninjyou,0.23120760917663574,0
52,100,0.18181818181818182,619,1,41,DL_Guitar,6,3,ninjyou,0.2659244239330292,0
52,100,0.4818181818181818,664,0,41,DL_Guitar,6,8,ninjyou,0.3542070686817169,0
55,100,0.35909090909090907,343,1,43,DL_Guitar,6,6,ninjyou,0.9990230798721313,1
55,100,0.5227272727272727,453,0,43,DL_Guitar,6,8,ninjyou,0.3666248619556427,0
62,100,0.5409090909090909,641,0,43,DL_Guitar,6,9,ninjyou,0.45328831672668457,0
57,100,0.1409090909090909,251,1,44,DL_Guitar,6,2,ninjyou,0.9990229606628418,1
69,100,0.1409090909090909,453,0,44,DL_Guitar,6,2,ninjyou,0.36662209033966064,0
69,100,0.1,606,0,44,DL_Guitar,6,2,ninjyou,0.4532944858074188,0
59,100,0.12272727272727273,254,1,45,DL_Guitar,6,2,ninjyou,0.9990057349205017,1
55,100,0.5181818181818182,303,0,45,DL_Guitar,6,8,ninjyou,0.2312019318342209,0
67,100,0.1590909090909091,440,0,45,DL_Guitar,6,3,ninjyou,0.2659294009208679,0
62,100,0.2409090909090909,641,0,45,DL_Guitar,6,4,ninjyou,0.3541931211948395,0
52,100,1.9181818181818182,383,1,46,DL_Guitar,6,15,ninjyou,0.9792556166648865,0
62,100,0.1409090909090909,21,1,47,DL_Guitar,6,2,ninjyou,0.9990057349205017,1
55,100,0.17727272727272728,348,1,47,DL_Guitar,6,3,ninjyou,0.23120778799057007,0
55,100,1.018181818181818,391,0,47,DL_Guitar,6,15,ninjyou,0.2659132480621338,0
60,100,0.1590909090909091,813,1,47,DL_Guitar,6,3,ninjyou,0.3541991710662842,0
62,100,0.23636363636363636,238,1,48,DL_Guitar,6,4,ninjyou,0.9983164072036743,1
62,100,0.4,871,1,48,DL_Guitar,6,6,ninjyou,0.544564962387085,0
62,100,1.6,101,1,49,DL_Guitar,6,15,ninjyou,0.9990229606628418,1
67,100,0.2590909090909091,453,1,49,DL_Guitar,6,4,ninjyou,0.36663079261779785,0
62,100,0.18181818181818182,791,1,49,DL_Guitar,6,3,ninjyou,0.4532943069934845,0
62,100,1.040909090909091,0,1,50,DL_Guitar,6,15,ninjyou,0.9983164072036743,1
74,100,0.12272727272727273,254,1,50,DL_Guitar,6,2,ninjyou,0.5445656776428223,0
67,100,0.7818181818181819,220,1,76,DL_Guitar,6,13,ninjyou,0.9990229606628418,1
67,100,0.32272727272727275,422,0,76,DL_Guitar,6,5,ninjyou,0.36662259697914124,0
67,100,0.4,832,1,76,DL_Guitar,6,6,ninjyou,0.4532906115055084,0
62,100,0.1,43,1,77,DL_Guitar,6,2,ninjyou,0.9986500144004822,1
62,100,0.35909090909090907,150,0,77,DL_Guitar,6,6,ninjyou,0.08780686557292938,0
55,100,0.11818181818181818,360,0,77,DL_Guitar,6,2,ninjyou,0.091816246509552,0
55,100,0.17727272727272728,392,0,77,DL_Guitar,6,3,ninjyou,0.10748343914747238,0
62,100,0.3409090909090909,690,1,77,DL_Guitar,6,5,ninjyou,0.12483152002096176,0
67,100,0.7818181818181819,770,0,77,DL_Guitar,6,13,ninjyou,0.17904093861579895,0
62,100,0.32272727272727275,69,1,78,DL_Guitar,6,5,ninjyou,0.9990057349205017,1
62,100,0.16363636363636364,422,1,78,DL_Guitar,6,3,ninjyou,0.23121120035648346,0
55,100,0.4590909090909091,475,0,78,DL_Guitar,6,7,ninjyou,0.2659265100955963,0
55,100,0.5227272727272727,597,0,78,DL_Guitar,6,8,ninjyou,0.35420113801956177,0
55,100,0.1590909090909091,22,1,79,DL_Guitar,6,3,ninjyou,0.9986500144004822,1
52,100,0.13636363636363635,62,0,79,DL_Guitar,6,2,ninjyou,0.08780785650014877,0
55,100,0.759090909090909,110,0,79,DL_Guitar,6,12,ninjyou,0.09181644767522812,0
55,100,0.5,286,0,79,DL_Guitar,6,8,ninjyou,0.10748285055160522,0
55,100,0.2772727272727273,480,0,79,DL_Guitar,6,4,ninjyou,0.12482832372188568,0
55,100,0.2636363636363636,839,1,79,DL_Guitar,6,4,ninjyou,0.17902696132659912,0
55,100,0.16363636363636364,47,1,80,DL_Guitar,6,3,ninjyou,0.9986500144004822,1
62,100,0.9409090909090909,233,0,80,DL_Guitar,6,15,ninjyou,0.08780422806739807,0
67,100,0.3,453,0,80,DL_Guitar,6,5,ninjyou,0.09181545674800873,0
62,100,0.5181818181818182,523,0,80,DL_Guitar,6,8,ninjyou,0.10747995972633362,0
67,100,0.1409090909090909,660,0,80,DL_Guitar,6,2,ninjyou,0.12483303248882294,0
62,100,0.13636363636363635,810,0,80,DL_Guitar,6,2,ninjyou,0.17903994023799896,0
55,100,0.3181818181818182,40,1,81,DL_Guitar,6,5,ninjyou,0.9990230798721313,1
55,100,0.2772727272727273,470,1,81,DL_Guitar,6,4,ninjyou,0.3666302561759949,0
55,100,1.3590909090909091,590,0,81,DL_Guitar,6,15,ninjyou,0.4532744586467743,0
55,100,0.3,87,1,82,DL_Guitar,6,5,ninjyou,0.9986500144004822,1
62,100,0.5,312,0,82,DL_Guitar,6,8,ninjyou,0.08780483901500702,0
62,100,0.5590909090909091,436,0,82,DL_Guitar,6,9,ninjyou,0.09181670844554901,0
62,100,0.2,722,1,82,DL_Guitar,6,3,ninjyou,0.10748518258333206,0
62,100,0.13636363636363635,810,0,82,DL_Guitar,6,2,ninjyou,0.12483431398868561,0
57,100,0.2409090909090909,839,0,82,DL_Guitar,6,4,ninjyou,0.17904186248779297,0
67,100,0.4818181818181818,13,1,83,DL_Guitar,6,8,ninjyou,0.9990229606628418,1
57,100,1.3227272727272728,386,1,83,DL_Guitar,6,15,ninjyou,0.3666176497936249,0
62,100,0.13636363636363635,787,1,83,DL_Guitar,6,2,ninjyou,0.4532985985279083,0
59,100,0.37727272727272726,83,1,84,DL_Guitar,6,6,ninjyou,0.9988419413566589,1
59,100,0.2590909090909091,303,0,84,DL_Guitar,6,4,ninjyou,0.1372452974319458,0
59,100,0.2772727272727273,404,0,84,DL_Guitar,6,4,ninjyou,0.15977707505226135,0
59,100,0.41818181818181815,502,0,84,DL_Guitar,6,7,ninjyou,0.18644724786281586,0
62,100,0.9,716,0,84,DL_Guitar,6,14,ninjyou,0.2581614553928375,0
55,100,0.17727272727272728,127,1,85,DL_Guitar,6,3,ninjyou,0.9990229606628418,1
57,100,0.2590909090909091,616,1,85,DL_Guitar,6,4,ninjyou,0.36662548780441284,0
57,100,0.17727272727272728,700,0,85,DL_Guitar,6,3,ninjyou,0.45329993963241577,0
55,100,0.5409090909090909,0,1,86,DL_Guitar,6,9,ninjyou,0.9984880685806274,1
67,100,0.2,123,0,86,DL_Guitar,6,3,ninjyou,0.06334588676691055,0
67,100,0.8363636363636363,172,0,86,DL_Guitar,6,13,ninjyou,0.057742271572351456,0
55,100,0.1409090909090909,377,0,86,DL_Guitar,6,2,ninjyou,0.06020449846982956,0
55,100,1.6181818181818182,449,0,86,DL_Guitar,6,15,ninjyou,0.06969975680112839,0
67,100,0.1590909090909091,805,1,86,DL_Guitar,6,3,ninjyou,0.08189671486616135,0
55,100,0.6,853,0,86,DL_Guitar,6,10,ninjyou,0.12401777505874634,0
67,100,0.3,242,1,87,DL_Guitar,6,5,ninjyou,0.9983165264129639,1
67,100,0.2590909090909091,475,1,87,DL_Guitar,6,4,ninjyou,0.5445540547370911,0
57,100,0.5818181818181818,220,1,88,DL_Guitar,6,9,ninjyou,0.9983164072036743,1
55,100,0.13636363636363635,612,1,88,DL_Guitar,6,2,ninjyou,0.5445579886436462,0
59,100,0.2590909090909091,106,1,89,DL_Guitar,6,4,ninjyou,0.9990229606628418,1
59,100,0.6,176,0,89,DL_Guitar,6,10,ninjyou,0.36661496758461,0
59,100,0.1590909090909091,320,0,89,DL_Guitar,6,3,ninjyou,0.4532982110977173,0
64,100,0.3409090909090909,79,1,0,_Remastered_Guitar,6,5,yuumoyanonaka,0.9983003735542297,1
66,100,0.2636363636363636,158,0,0,_Remastered_Guitar,6,4,yuumoyanonaka,0.04466450959444046,0
69,100,0.23636363636363636,238,0,0,_Remastered_Guitar,6,4,yuumoyanonaka,0.033148977905511856,0
73,100,0.22272727272727272,299,0,0,_Remastered_Guitar,6,4,yuumoyanonaka,0.026579514145851135,0
71,100,0.22272727272727272,356,0,0,_Remastered_Guitar,6,4,yuumoyanonaka,0.023594729602336884,0
73,100,0.6363636363636364,414,0,0,_Remastered_Guitar,6,10,yuumoyanonaka,0.024314414709806442,0
71,100,0.8227272727272728,563,0,0,_Remastered_Guitar,6,13,yuumoyanonaka,0.029689516872167587,0
71,100,0.1,757,0,0,_Remastered_Guitar,6,2,yuumoyanonaka,0.04007904604077339,0
73,100,1.018181818181818,792,0,0,_Remastered_Guitar,6,15,yuumoyanonaka,0.07092870771884918,0
71,100,1.0818181818181818,157,1,1,_Remastered_Guitar,6,15,yuumoyanonaka,0.9983003735542297,1
69,100,0.2590909090909091,414,1,1,_Remastered_Guitar,6,4,yuumoyanonaka,0.0446639209985733,0
71,100,0.41818181818181815,470,0,1,_Remastered_Guitar,6,7,yuumoyanonaka,0.033149830996990204,0
72,100,0.1,563,0,1,_Remastered_Guitar,6,2,yuumoyanonaka,0.02657969295978546,0
73,100,0.35909090909090907,585,0,1,_Remastered_Guitar,6,6,yuumoyanonaka,0.023594669997692108,0
71,100,0.17727272727272728,669,0,1,_Remastered_Guitar,6,3,yuumoyanonaka,0.02431461773812771,0
73,100,0.1,707,0,1,_Remastered_Guitar,6,2,yuumoyanonaka,0.029689116403460503,0
71,100,0.2590909090909091,744,0,1,_Remastered_Guitar,6,4,yuumoyanonaka,0.04007826745510101,0
69,100,0.5227272727272727,817,0,1,_Remastered_Guitar,6,8,yuumoyanonaka,0.07092902064323425,0
66,100,2.359090909090909,61,1,2,_Remastered_Guitar,6,15,yuumoyanonaka,0.9988419413566589,1
64,100,0.2772727272727273,590,1,2,_Remastered_Guitar,6,4,yuumoyanonaka,0.1372469663619995,0
66,100,0.2590909090909091,660,0,2,_Remastered_Guitar,6,4,yuumoyanonaka,0.1597740799188614,0
71,100,0.18181818181818182,726,0,2,_Remastered_Guitar,6,3,yuumoyanonaka,0.18644177913665771,0
73,100,0.6227272727272727,782,0,2,_Remastered_Guitar,6,10,yuumoyanonaka,0.2581566870212555,0
71,100,1.040909090909091,43,1,3,_Remastered_Guitar,6,15,yuumoyanonaka,0.9988420605659485,1
73,100,0.9636363636363636,290,1,3,_Remastered_Guitar,6,15,yuumoyanonaka,0.13725750148296356,0
71,100,0.5181818181818182,528,1,3,_Remastered_Guitar,6,8,yuumoyanonaka,0.15980017185211182,0
69,100,0.5409090909090909,651,0,3,_Remastered_Guitar,6,9,yuumoyanonaka,0.1864851862192154,0
69,100,4.463636363636364,796,0,3,_Remastered_Guitar,6,15,yuumoyanonaka,0.25812000036239624,0
69,100,1.4181818181818182,30,1,5,_Remastered_Guitar,6,15,yuumoyanonaka,0.9983164072036743,1
69,100,0.1,399,1,5,_Remastered_Guitar,6,2,yuumoyanonaka,0.5445625185966492,0
66,100,0.16363636363636364,839,1,50,_Remastered_Guitar,6,3,yuumoyanonaka,0.9792565107345581,0
64,100,0.36363636363636365,4,1,51,_Remastered_Guitar,6,6,yuumoyanonaka,0.9982276558876038,1
66,100,0.23636363636363636,83,0,51,_Remastered_Guitar,6,4,yuumoyanonaka,0.03939790651202202,0
69,100,0.32272727272727275,136,0,51,_Remastered_Guitar,6,5,yuumoyanonaka,0.026672685518860817,0
73,100,0.2772727272727273,206,0,51,_Remastered_Guitar,6,4,yuumoyanonaka,0.018587933853268623,0
71,100,0.2,268,0,51,_Remastered_Guitar,6,3,yuumoyanonaka,0.013413947075605392,0
73,100,0.35909090909090907,330,0,51,_Remastered_Guitar,6,6,yuumoyanonaka,0.010586968623101711,0
69,100,0.2590909090909091,408,0,51,_Remastered_Guitar,6,4,yuumoyanonaka,0.009839908219873905,0
71,100,0.2818181818181818,466,0,51,_Remastered_Guitar,6,5,yuumoyanonaka,0.01141735352575779,0
73,100,0.3181818181818182,528,0,51,_Remastered_Guitar,6,5,yuumoyanonaka,0.016511861234903336,0
71,100,0.18181818181818182,664,0,51,_Remastered_Guitar,6,3,yuumoyanonaka,0.0268192607909441,0
73,100,0.9363636363636364,721,0,51,_Remastered_Guitar,6,15,yuumoyanonaka,0.053914256393909454,0
72,100,0.12272727272727273,48,1,52,_Remastered_Guitar,6,2,yuumoyanonaka,0.9990230798721313,1
71,100,0.5409090909090909,75,0,52,_Remastered_Guitar,6,9,yuumoyanonaka,0.36673295497894287,0
69,100,5.636363636363637,193,0,52,_Remastered_Guitar,6,15,yuumoyanonaka,0.4531678855419159,0
57,100,0.3409090909090909,751,1,60,_Remastered_Guitar,6,5,yuumoyanonaka,0.9983165264129639,1
54,100,0.2,836,0,60,_Remastered_Guitar,6,3,yuumoyanonaka,0.5445619821548462,0
71,100,0.22272727272727272,4,1,61,_Remastered_Guitar,6,4,yuumoyanonaka,0.9983736276626587,1
73,100,0.6181818181818182,61,0,61,_Remastered_Guitar,6,10,yuumoyanonaka,0.05105986073613167,0
71,100,0.3409090909090909,201,0,61,_Remastered_Guitar,6,5,yuumoyanonaka,0.04130390286445618,0
73,100,0.41818181818181815,281,0,61,_Remastered_Guitar,6,7,yuumoyanonaka,0.03738489747047424,0
71,100,0.21818181818181817,391,0,61,_Remastered_Guitar,6,3,yuumoyanonaka,0.038330093026161194,0
73,100,0.9590909090909091,453,0,61,_Remastered_Guitar,6,15,yuumoyanonaka,0.044751375913619995,0
71,100,0.5,691,1,61,_Remastered_Guitar,6,8,yuumoyanonaka,0.05523308739066124,0
69,100,1.5,804,0,61,_Remastered_Guitar,6,15,yuumoyanonaka,0.09026335179805756,0
69,100,2.640909090909091,295,1,62,_Remastered_Guitar,6,15,yuumoyanonaka,0.9792537689208984,0
69,100,0.3409090909090909,114,1,63,_Remastered_Guitar,6,5,yuumoyanonaka,0.9792565107345581,0
64,100,0.3409090909090909,56,1,97,_Remastered_Guitar,6,5,yuumoyanonaka,0.9982553124427795,1
66,100,0.2590909090909091,132,0,97,_Remastered_Guitar,6,4,yuumoyanonaka,0.041287440806627274,0
69,100,0.2590909090909091,197,0,97,_Remastered_Guitar,6,4,yuumoyanonaka,0.02893359586596489,0
73,100,0.2818181818181818,263,0,97,_Remastered_Guitar,6,5,yuumoyanonaka,0.021287579089403152,0
71,100,0.21818181818181817,330,0,97,_Remastered_Guitar,6,3,yuumoyanonaka,0.016744710505008698,0
73,100,0.6181818181818182,396,0,97,_Remastered_Guitar,6,10,yuumoyanonaka,0.014917346648871899,0
71,100,0.4409090909090909,536,0,97,_Remastered_Guitar,6,7,yuumoyanonaka,0.016015706583857536,0
71,100,0.3181818181818182,646,0,97,_Remastered_Guitar,6,5,yuumoyanonaka,0.02117842435836792,0
71,100,0.1409090909090909,726,0,97,_Remastered_Guitar,6,2,yuumoyanonaka,0.03156793862581253,0
73,100,1.0,770,0,97,_Remastered_Guitar,6,15,yuumoyanonaka,0.06005801633000374,0
71,100,0.6409090909090909,136,1,98,_Remastered_Guitar,6,10,yuumoyanonaka,0.9982553124427795,1
73,100,0.2590909090909091,282,0,98,_Remastered_Guitar,6,4,yuumoyanonaka,0.041287612169981,0
71,100,0.1,343,0,98,_Remastered_Guitar,6,2,yuumoyanonaka,0.028935376554727554,0
69,100,0.2636363636363636,377,0,98,_Remastered_Guitar,6,4,yuumoyanonaka,0.021288573741912842,0
71,100,0.5,436,0,98,_Remastered_Guitar,6,8,yuumoyanonaka,0.016745315864682198,0
73,100,0.35909090909090907,559,0,98,_Remastered_Guitar,6,6,yuumoyanonaka,0.014917990192770958,0
71,100,0.1409090909090909,646,0,98,_Remastered_Guitar,6,2,yuumoyanonaka,0.01601593941450119,0
73,100,0.1409090909090909,682,0,98,_Remastered_Guitar,6,2,yuumoyanonaka,0.021179508417844772,0
71,100,0.2409090909090909,716,0,98,_Remastered_Guitar,6,4,yuumoyanonaka,0.03156780079007149,0
69,100,0.6,779,0,98,_Remastered_Guitar,6,10,yuumoyanonaka,0.06006010249257088,0
66,100,1.559090909090909,35,1,99,_Remastered_Guitar,6,15,yuumoyanonaka,0.9986500144004822,1
66,100,0.7181818181818181,396,1,99,_Remastered_Guitar,6,11,yuumoyanonaka,0.08780373632907867,0
64,100,0.3,563,0,99,_Remastered_Guitar,6,5,yuumoyanonaka,0.09181276708841324,0
66,100,0.2,650,0,99,_Remastered_Guitar,6,3,yuumoyanonaka,0.1074790433049202,0
71,100,0.17727272727272728,700,0,99,_Remastered_Guitar,6,3,yuumoyanonaka,0.12482950836420059,0
73,100,0.6409090909090909,752,0,99,_Remastered_Guitar,6,10,yuumoyanonaka,0.1790245920419693,0
71,100,0.5818181818181818,22,1,100,_Remastered_Guitar,6,9,yuumoyanonaka,0.9986500144004822,1
71,100,0.1590909090909091,220,0,100,_Remastered_Guitar,6,3,yuumoyanonaka,0.08781091123819351,0
73,100,1.0818181818181818,267,0,100,_Remastered_Guitar,6,15,yuumoyanonaka,0.09182670712471008,0
71,100,0.4590909090909091,514,1,100,_Remastered_Guitar,6,7,yuumoyanonaka,0.10751153528690338,0
69,100,0.5636363636363636,619,0,100,_Remastered_Guitar,6,9,yuumoyanonaka,0.12487691640853882,0
69,100,4.840909090909091,752,0,100,_Remastered_Guitar,6,15,yuumoyanonaka,0.17898276448249817,0
53,100,0.12272727272727273,400,1,0,_Guitar,6,2,watasino,0.9990229606628418,1
60,100,0.1,686,1,0,_Guitar,6,2,watasino,0.36662018299102783,0
60,100,0.6772727272727272,713,0,0,_Guitar,6,11,watasino,0.4532950818538666,0
53,100,0.12272727272727273,597,1,1,_Guitar,6,2,watasino,0.9983165264129639,1
60,100,0.2,651,0,1,_Guitar,6,3,watasino,0.5445616245269775,0
60,100,0.12272727272727273,254,1,3,_Guitar,6,2,watasino,0.9990057349205017,1
62,100,0.1590909090909091,387,0,3,_Guitar,6,3,watasino,0.23120605945587158,0
55,100,0.4409090909090909,660,1,3,_Guitar,6,7,watasino,0.2659236788749695,0
55,100,0.1409090909090909,773,0,3,_Guitar,6,2,watasino,0.35419851541519165,0
60,100,1.7772727272727273,228,1,4,_Guitar,6,15,watasino,0.9983165264129639,1
60,100,2.081818181818182,672,1,4,_Guitar,6,15,watasino,0.5445579290390015,0
53,100,0.2636363636363636,289,1,5,_Guitar,6,4,watasino,0.9988419413566589,1
65,100,0.11818181818181818,527,1,5,_Guitar,6,2,watasino,0.13724420964717865,0
58,100,0.38181818181818183,585,0,5,_Guitar,6,6,watasino,0.15977491438388824,0
53,100,0.17727272727272728,744,0,5,_Guitar,6,3,watasino,0.18644320964813232,0
53,100,0.2590909090909091,788,0,5,_Guitar,6,4,watasino,0.25815683603286743,0
60,100,0.2409090909090909,554,1,6,_Guitar,6,4,watasino,0.9990229606628418,1
53,100,0.1409090909090909,682,0,6,_Guitar,6,2,watasino,0.3666207492351532,0
53,100,0.7,805,0,6,_Guitar,6,11,watasino,0.45328930020332336,0
53,100,0.3181818181818182,150,1,7,_Guitar,6,5,watasino,0.9988419413566589,1
65,100,0.2818181818181818,224,0,7,_Guitar,6,5,watasino,0.13724738359451294,0
57,100,0.2590909090909091,307,0,7,_Guitar,6,4,watasino,0.15976843237876892,0
60,100,0.1409090909090909,452,0,7,_Guitar,6,2,watasino,0.18644629418849945,0
53,100,0.2,713,1,7,_Guitar,6,3,watasino,0.2581574320793152,0
53,100,0.11818181818181818,8,1,8,_Guitar,6,2,watasino,0.9986500144004822,1
60,100,0.1590909090909091,118,0,8,_Guitar,6,3,watasino,0.08780296891927719,0
58,100,0.17727272727272728,194,0,8,_Guitar,6,3,watasino,0.09181187301874161,0
53,100,0.12272727272727273,312,0,8,_Guitar,6,2,watasino,0.10747470706701279,0
60,100,0.2409090909090909,713,1,8,_Guitar,6,4,watasino,0.12482690811157227,0
55,100,0.2590909090909091,787,0,8,_Guitar,6,4,watasino,0.1790306568145752,0
60,100,0.35909090909090907,211,1,9,_Guitar,6,6,watasino,0.9988419413566589,1
60,100,0.12272727272727273,333,0,9,_Guitar,6,2,watasino,0.13724881410598755,0
53,100,0.1590909090909091,558,0,9,_Guitar,6,3,watasino,0.1597767025232315,0
53,100,0.1590909090909091,603,0,9,_Guitar,6,3,watasino,0.18644659221172333,0
60,100,0.3181818181818182,756,0,9,_Guitar,6,5,watasino,0.25817230343818665,0
53,100,0.5590909090909091,84,1,10,_Guitar,6,9,watasino,0.9988419413566589,1
53,100,0.3,276,0,10,_Guitar,6,5,watasino,0.13724970817565918,0
53,100,0.1,479,0,10,_Guitar,6,2,watasino,0.15978074073791504,0
69,100,0.2,668,0,10,_Guitar,6,3,watasino,0.18645106256008148,0
69,100,0.6409090909090909,756,0,10,_Guitar,6,10,watasino,0.25817006826400757,0
69,100,0.16363636363636364,202,1,11,_Guitar,6,3,watasino,0.9988419413566589,1
53,100,0.16363636363636364,443,1,11,_Guitar,6,3,watasino,0.13724865019321442,0
60,100,0.2818181818181818,527,0,11,_Guitar,6,5,watasino,0.15977415442466736,0
53,100,0.3181818181818182,594,0,11,_Guitar,6,5,watasino,0.1864476203918457,0
60,100,1.4772727272727273,721,0,11,_Guitar,6,15,watasino,0.258159875869751,0
53,100,0.18181818181818182,180,1,12,_Guitar,6,3,watasino,0.9990229606628418,1
72,100,0.3,536,1,12,_Guitar,6,5,watasino,0.3666263222694397,0
65,100,0.11818181818181818,634,0,12,_Guitar,6,2,watasino,0.453283429145813,0
53,100,0.22272727272727272,13,1,13,_Guitar,6,4,watasino,0.9986500144004822,1
53,100,0.12272727272727273,79,0,13,_Guitar,6,2,watasino,0.08780401945114136,0
60,100,0.6,154,0,13,_Guitar,6,10,watasino,0.09181047976016998,0
65,100,0.12272727272727273,453,1,13,_Guitar,6,2,watasino,0.10747454315423965,0
60,100,0.11818181818181818,615,0,13,_Guitar,6,2,watasino,0.12482316792011261,0
53,100,0.13636363636363635,831,0,13,_Guitar,6,2,watasino,0.17902423441410065,0
53,100,0.4590909090909091,166,1,14,_Guitar,6,7,watasino,0.9988419413566589,1
60,100,0.12272727272727273,290,0,14,_Guitar,6,2,watasino,0.13724491000175476,0
60,100,0.1,567,1,14,_Guitar,6,2,watasino,0.15977121889591217,0
60,100,0.11818181818181818,699,0,14,_Guitar,6,2,watasino,0.18644379079341888,0
60,100,0.11818181818181818,766,0,14,_Guitar,6,2,watasino,0.2581624984741211,0
60,100,0.2409090909090909,312,1,15,_Guitar,6,4,watasino,0.9986500144004822,1
60,100,0.1409090909090909,400,0,15,_Guitar,6,2,watasino,0.08780480176210403,0
60,100,0.12272727272727273,496,0,15,_Guitar,6,2,watasino,0.09181350469589233,0
60,100,0.5590909090909091,615,0,15,_Guitar,6,9,watasino,0.10747770965099335,0
53,100,0.1409090909090909,792,0,15,_Guitar,6,2,watasino,0.12482494860887527,0
53,100,0.2590909090909091,857,0,15,_Guitar,6,4,watasino,0.17902708053588867,0
60,100,0.22272727272727272,100,1,16,_Guitar,6,4,watasino,0.9983736276626587,1
60,100,0.18181818181818182,233,0,16,_Guitar,6,3,watasino,0.05106175318360329,0
53,100,0.21818181818181817,281,0,16,_Guitar,6,3,watasino,0.041302431374788284,0
60,100,0.2590909090909091,351,0,16,_Guitar,6,4,watasino,0.03738618269562721,0
60,100,0.41818181818181815,550,0,16,_Guitar,6,7,watasino,0.03832942619919777,0
60,100,0.1409090909090909,673,0,16,_Guitar,6,2,watasino,0.04475264996290207,0
57,100,0.11818181818181818,721,0,16,_Guitar,6,2,watasino,0.055228911340236664,0
60,100,0.35909090909090907,831,0,16,_Guitar,6,6,watasino,0.09026431292295456,0
60,100,0.2409090909090909,119,1,17,_Guitar,6,4,watasino,0.9984880685806274,1
65,100,0.18181818181818182,198,0,17,_Guitar,6,3,watasino,0.06334558129310608,0
65,100,0.11818181818181818,264,0,17,_Guitar,6,2,watasino,0.05774198845028877,0
57,100,1.1772727272727272,316,0,17,_Guitar,6,15,watasino,0.06020044907927513,0
57,100,0.2409090909090909,650,1,17,_Guitar,6,4,watasino,0.06970306485891342,0
57,100,0.4409090909090909,739,0,17,_Guitar,6,7,watasino,0.08189406245946884,0
53,100,0.2,858,0,17,_Guitar,6,3,watasino,0.12401746958494186,0
53,100,0.21818181818181817,30,1,18,_Guitar,6,3,watasino,0.9988419413566589,1
58,100,0.4,175,0,18,_Guitar,6,6,watasino,0.13724884390830994,0
58,100,0.38181818181818183,268,0,18,_Guitar,6,6,watasino,0.15977570414543152,0
60,100,0.5409090909090909,615,1,18,_Guitar,6,9,watasino,0.18644647300243378,0
60,100,0.21818181818181817,756,0,18,_Guitar,6,3,watasino,0.2581656873226166,0
60,100,0.22272727272727272,233,1,19,_Guitar,6,4,watasino,0.9983165264129639,1
55,100,0.18181818181818182,299,0,19,_Guitar,6,3,watasino,0.5445525646209717,0
55,100,0.11818181818181818,281,1,20,_Guitar,6,2,watasino,0.9988419413566589,1
60,100,0.2,378,0,20,_Guitar,6,3,watasino,0.1372474730014801,0
60,100,0.3,430,0,20,_Guitar,6,5,watasino,0.15977756679058075,0
53,100,0.11818181818181818,581,0,20,_Guitar,6,2,watasino,0.1864466369152069,0
58,100,0.7818181818181819,619,0,20,_Guitar,6,13,watasino,0.2581593990325928,0
53,100,0.2409090909090909,44,1,21,_Guitar,6,4,watasino,0.9986500144004822,1
53,100,0.17727272727272728,119,0,21,_Guitar,6,3,watasino,0.0878029316663742,0
60,100,0.6,206,0,21,_Guitar,6,10,watasino,0.0918145626783371,0
58,100,0.3409090909090909,399,0,21,_Guitar,6,5,watasino,0.10747808963060379,0
53,100,0.1590909090909091,546,0,21,_Guitar,6,3,watasino,0.12482088059186935,0
60,100,0.1,646,0,21,_Guitar,6,2,watasino,0.17902669310569763,0
53,100,0.12272727272727273,13,1,22,_Guitar,6,2,watasino,0.9983736276626587,1
60,100,0.41818181818181815,119,0,22,_Guitar,6,7,watasino,0.051060620695352554,0
65,100,0.1590909090909091,241,0,22,_Guitar,6,3,watasino,0.041302282363176346,0
60,100,0.12272727272727273,378,0,22,_Guitar,6,2,watasino,0.0373850017786026,0
60,100,0.2818181818181818,474,0,22,_Guitar,6,5,watasino,0.038328055292367935,0
65,100,0.18181818181818182,650,0,22,_Guitar,6,3,watasino,0.04474993050098419,0
53,100,0.2590909090909091,691,0,22,_Guitar,6,4,watasino,0.05522836372256279,0
53,100,0.4409090909090909,752,0,22,_Guitar,6,7,watasino,0.09026023745536804,0
53,100,0.17727272727272728,96,1,23,_Guitar,6,3,watasino,0.9990229606628418,1
60,100,0.7181818181818181,602,1,23,_Guitar,6,11,watasino,0.3666268289089203,0
57,100,0.2590909090909091,791,0,23,_Guitar,6,4,watasino,0.4532860517501831,0
57,100,0.21818181818181817,9,1,24,_Guitar,6,3,watasino,0.9986500144004822,1
57,100,0.11818181818181818,131,0,24,_Guitar,6,2,watasino,0.08780598640441895,0
57,100,0.2,343,0,24,_Guitar,6,3,watasino,0.09181607514619827,0
60,100,0.11818181818181818,492,0,24,_Guitar,6,2,watasino,0.10748288780450821,0
57,100,0.3,598,0,24,_Guitar,6,5,watasino,0.1248319000005722,0
57,100,0.8636363636363636,796,0,24,_Guitar,6,14,watasino,0.17903566360473633,0
57,100,0.11818181818181818,110,1,25,_Guitar,6,2,watasino,0.9986500144004822,1
62,100,0.2,422,1,25,_Guitar,6,3,watasino,0.08780371397733688,0
53,100,0.2409090909090909,563,0,25,_Guitar,6,4,watasino,0.09181177616119385,0
60,100,0.2818181818181818,663,0,25,_Guitar,6,5,watasino,0.10747760534286499,0
60,100,0.2,787,0,25,_Guitar,6,3,watasino,0.12482530623674393,0
53,100,0.18181818181818182,839,0,25,_Guitar,6,3,watasino,0.17902427911758423,0
53,100,0.22272727272727272,34,1,26,_Guitar,6,4,watasino,0.9988419413566589,1
58,100,0.7181818181818181,229,0,26,_Guitar,6,11,watasino,0.13724303245544434,0
58,100,0.2818181818181818,395,0,26,_Guitar,6,5,watasino,0.15977436304092407,0
58,100,0.1409090909090909,466,0,26,_Guitar,6,2,watasino,0.18644315004348755,0
58,100,0.1,567,0,26,_Guitar,6,2,watasino,0.2581579089164734,0
58,100,0.11818181818181818,0,1,27,_Guitar,6,2,watasino,0.9990230798721313,1
58,100,0.6818181818181818,34,0,27,_Guitar,6,11,watasino,0.36662065982818604,0
58,100,0.7,413,1,27,_Guitar,6,11,watasino,0.4532877206802368,0
55,100,0.37727272727272726,480,1,28,_Guitar,6,6,watasino,0.9983165264129639,1
55,100,0.9,625,0,28,_Guitar,6,14,watasino,0.5445577502250671,0
55,100,0.41818181818181815,154,1,29,_Guitar,6,7,watasino,0.9990057349205017,1
60,100,0.11818181818181818,264,0,29,_Guitar,6,2,watasino,0.2312033623456955,0
65,100,0.13636363636363635,523,1,29,_Guitar,6,2,watasino,0.26591241359710693,0
60,100,0.3409090909090909,773,1,29,_Guitar,6,5,watasino,0.35419797897338867,0
60,100,0.4409090909090909,92,1,30,_Guitar,6,7,watasino,0.9990230798721313,1
60,100,0.33636363636363636,546,1,30,_Guitar,6,5,watasino,0.36662304401397705,0
53,100,0.2590909090909091,673,0,30,_Guitar,6,4,watasino,0.45328548550605774,0
60,100,0.37727272727272726,326,1,31,_Guitar,6,6,watasino,0.9990229606628418,1
60,100,0.759090909090909,449,0,31,_Guitar,6,12,watasino,0.3666209280490875,0
53,100,0.18181818181818182,858,1,31,_Guitar,6,3,watasino,0.4532826244831085,0
58,100,0.2818181818181818,254,1,32,_Guitar,6,5,watasino,0.9984880685806274,1
60,100,0.38181818181818183,334,0,32,_Guitar,6,6,watasino,0.06334426999092102,0
58,100,0.17727272727272728,448,0,32,_Guitar,6,3,watasino,0.057741839438676834,0
58,100,0.1409090909090909,493,0,32,_Guitar,6,2,watasino,0.060201797634363174,0
53,100,0.2818181818181818,716,0,32,_Guitar,6,5,watasino,0.06970065832138062,0
60,100,0.1409090909090909,823,0,32,_Guitar,6,2,watasino,0.08189546316862106,0
53,100,0.22272727272727272,871,0,32,_Guitar,6,4,watasino,0.124018594622612,0
60,100,0.1409090909090909,188,1,33,_Guitar,6,2,watasino,0.9983165264129639,1
60,100,0.2590909090909091,826,1,33,_Guitar,6,4,watasino,0.544559121131897,0
55,100,0.21818181818181817,215,1,34,_Guitar,6,3,watasino,0.9990229606628418,1
60,100,0.6227272727272727,563,1,34,_Guitar,6,10,watasino,0.36662036180496216,0
53,100,0.17727272727272728,721,0,34,_Guitar,6,3,watasino,0.4532870352268219,0
60,100,0.11818181818181818,153,1,35,_Guitar,6,2,watasino,0.9983165264129639,1
60,100,0.1590909090909091,810,1,35,_Guitar,6,3,watasino,0.5445546507835388,0
60,100,0.4818181818181818,298,1,36,_Guitar,6,8,watasino,0.9988419413566589,1
53,100,0.1590909090909091,474,0,36,_Guitar,6,3,watasino,0.1372433751821518,0
60,100,0.5227272727272727,554,0,36,_Guitar,6,8,watasino,0.15977533161640167,0
69,100,0.1,703,0,36,_Guitar,6,2,watasino,0.1864425241947174,0
60,100,0.3181818181818182,823,0,36,_Guitar,6,5,watasino,0.2581665813922882,0
60,100,0.17727272727272728,18,1,37,_Guitar,6,3,watasino,0.9990057349205017,1
53,100,0.2409090909090909,286,1,37,_Guitar,6,4,watasino,0.23120057582855225,0
53,100,0.1590909090909091,493,0,37,_Guitar,6,3,watasino,0.2659170925617218,0
60,100,0.1409090909090909,668,0,37,_Guitar,6,2,watasino,0.3541935980319977,0
53,100,0.1590909090909091,21,1,38,_Guitar,6,3,watasino,0.9988419413566589,1
65,100,0.18181818181818182,78,0,38,_Guitar,6,3,watasino,0.13724373281002045,0
53,100,0.1409090909090909,444,1,38,_Guitar,6,2,watasino,0.15977540612220764,0
53,100,0.2590909090909091,716,1,38,_Guitar,6,4,watasino,0.18644112348556519,0
53,100,0.16363636363636364,861,0,38,_Guitar,6,3,watasino,0.25816255807876587,0
53,100,0.2818181818181818,34,1,39,_Guitar,6,5,watasino,0.9990230798721313,1
60,100,0.21818181818181817,131,0,39,_Guitar,6,3,watasino,0.3666250705718994,0
60,100,0.22272727272727272,431,1,39,_Guitar,6,4,watasino,0.4532870352268219,0
60,100,0.3,69,1,40,_Guitar,6,5,watasino,0.9990230798721313,1
58,100,0.1409090909090909,356,1,40,_Guitar,6,2,watasino,0.3666241466999054,0
53,100,0.2409090909090909,708,1,40,_Guitar,6,4,watasino,0.4532872438430786,0
58,100,0.36363636363636365,26,1,41,_Guitar,6,6,watasino,0.9988419413566589,1
58,100,0.35909090909090907,303,1,41,_Guitar,6,6,watasino,0.13724708557128906,0
53,100,0.3181818181818182,506,0,41,_Guitar,6,5,watasino,0.15977415442466736,0
60,100,0.11818181818181818,581,0,41,_Guitar,6,2,watasino,0.18644648790359497,0
57,100,0.2409090909090909,735,0,41,_Guitar,6,4,watasino,0.25815442204475403,0
53,100,0.1409090909090909,351,1,43,_Guitar,6,2,watasino,0.9990057349205017,1
53,100,0.17727272727272728,611,1,43,_Guitar,6,3,watasino,0.23120124638080597,0
53,100,0.11818181818181818,770,0,43,_Guitar,6,2,watasino,0.2659190893173218,0
60,100,0.1,826,0,43,_Guitar,6,2,watasino,0.35419461131095886,0
53,100,0.3181818181818182,96,1,44,_Guitar,6,5,watasino,0.9990229606628418,1
60,100,0.3409090909090909,166,0,44,_Guitar,6,5,watasino,0.3666251301765442,0
60,100,0.3409090909090909,444,1,44,_Guitar,6,5,watasino,0.45329418778419495,0
53,100,0.11818181818181818,480,1,45,_Guitar,6,2,watasino,0.9792558550834656,0
53,100,0.3181818181818182,88,1,46,_Guitar,6,5,watasino,0.9983164072036743,1
62,100,0.18181818181818182,373,1,46,_Guitar,6,3,watasino,0.5445608496665955,0
60,100,0.8,166,1,47,_Guitar,6,13,watasino,0.9792563915252686,0
60,100,0.18181818181818182,254,1,48,_Guitar,6,3,watasino,0.9990057349205017,1
58,100,0.2,418,0,48,_Guitar,6,3,watasino,0.23120373487472534,0
58,100,0.18181818181818182,509,0,48,_Guitar,6,3,watasino,0.26591965556144714,0
65,100,0.4,694,0,48,_Guitar,6,6,watasino,0.3541947305202484,0
60,100,0.3409090909090909,53,1,49,_Guitar,6,5,watasino,0.9983165264129639,1
57,100,0.9590909090909091,633,1,49,_Guitar,6,15,watasino,0.5445536971092224,0
60,100,0.3409090909090909,91,1,50,_Guitar,6,5,watasino,0.9986500144004822,1
57,100,1.1818181818181819,188,0,50,_Guitar,6,15,watasino,0.08780354261398315,0
57,100,0.2818181818181818,453,1,50,_Guitar,6,5,watasino,0.09181629121303558,0
57,100,0.18181818181818182,528,0,50,_Guitar,6,3,watasino,0.10748142749071121,0
57,100,0.5772727272727273,590,0,50,_Guitar,6,9,watasino,0.1248285323381424,0
60,100,0.6,721,0,50,_Guitar,6,10,watasino,0.1790415644645691,0
60,100,0.1409090909090909,246,1,51,_Guitar,6,2,watasino,0.9986500144004822,1
60,100,0.2409090909090909,334,0,51,_Guitar,6,4,watasino,0.08780428767204285,0
53,100,0.4590909090909091,396,0,51,_Guitar,6,7,watasino,0.09181445837020874,0
65,100,0.1409090909090909,496,0,51,_Guitar,6,2,watasino,0.10747744888067245,0
60,100,1.2636363636363637,531,0,51,_Guitar,6,15,watasino,0.12482675909996033,0
57,100,0.8,853,1,51,_Guitar,6,13,watasino,0.17902851104736328,0
65,100,0.7181818181818181,458,1,52,_Guitar,6,11,watasino,0.9983164072036743,1
62,100,0.7818181818181819,651,0,52,_Guitar,6,13,watasino,0.5445588827133179,0
57,100,0.16363636363636364,48,1,53,_Guitar,6,3,watasino,0.9990057349205017,1
60,100,0.5,268,0,53,_Guitar,6,8,watasino,0.231209397315979,0
60,100,0.2590909090909091,523,1,53,_Guitar,6,4,watasino,0.26592567563056946,0
53,100,0.1590909090909091,655,0,53,_Guitar,6,3,watasino,0.3541996479034424,0
53,100,0.1590909090909091,43,1,54,_Guitar,6,3,watasino,0.9990229606628418,1
58,100,0.6,179,0,54,_Guitar,6,10,watasino,0.36661919951438904,0
53,100,0.2,515,1,54,_Guitar,6,3,watasino,0.453285276889801,0
53,100,0.1409090909090909,75,1,55,_Guitar,6,2,watasino,0.9984880685806274,1
53,100,0.35909090909090907,110,0,55,_Guitar,6,6,watasino,0.0633455440402031,0
53,100,0.3181818181818182,206,0,55,_Guitar,6,5,watasino,0.05774163082242012,0
60,100,0.3181818181818182,281,0,55,_Guitar,6,5,watasino,0.06020093336701393,0
60,100,0.5181818181818182,506,0,55,_Guitar,6,8,watasino,0.06969927996397018,0
60,100,0.3181818181818182,713,0,55,_Guitar,6,5,watasino,0.08189108967781067,0
60,100,0.3181818181818182,831,0,55,_Guitar,6,5,watasino,0.12401129305362701,0
62,100,0.21818181818181817,176,1,56,_Guitar,6,3,watasino,0.9986500144004822,1
60,100,0.6772727272727272,281,0,56,_Guitar,6,11,watasino,0.08780617266893387,0
53,100,0.21818181818181817,448,0,56,_Guitar,6,3,watasino,0.09181688725948334,0
65,100,0.22272727272727272,509,0,56,_Guitar,6,4,watasino,0.10748329758644104,0
57,100,0.2772727272727273,590,0,56,_Guitar,6,4,watasino,0.12483035773038864,0
60,100,0.9818181818181818,703,0,56,_Guitar,6,15,watasino,0.17903989553451538,0
60,100,0.6,118,1,57,_Guitar,6,10,watasino,0.9988419413566589,1
65,100,0.5590909090909091,471,1,57,_Guitar,6,9,watasino,0.1372455656528473,0
58,100,0.33636363636363636,655,0,57,_Guitar,6,5,watasino,0.15977677702903748,0
60,100,0.1590909090909091,765,0,57,_Guitar,6,3,watasino,0.18644718825817108,0
53,100,0.3181818181818182,810,0,57,_Guitar,6,5,watasino,0.25815916061401367,0
60,100,0.2818181818181818,4,1,58,_Guitar,6,5,watasino,0.9988419413566589,1
53,100,0.4818181818181818,78,0,58,_Guitar,6,8,watasino,0.1372406780719757,0
53,100,0.13636363636363635,215,0,58,_Guitar,6,2,watasino,0.15977075695991516,0
53,100,0.12272727272727273,298,0,58,_Guitar,6,2,watasino,0.1864415854215622,0
60,100,0.18181818181818182,378,0,58,_Guitar,6,3,watasino,0.2581614851951599,0
60,100,0.9181818181818182,105,1,59,_Guitar,6,15,watasino,0.9988419413566589,1
55,100,0.1,361,1,59,_Guitar,6,2,watasino,0.13724686205387115,0
60,100,0.22272727272727272,619,1,59,_Guitar,6,4,watasino,0.15977470576763153,0
60,100,0.1409090909090909,694,0,59,_Guitar,6,2,watasino,0.18644677102565765,0
60,100,0.8,748,0,59,_Guitar,6,13,watasino,0.25815460085868835,0
53,100,0.2,43,1,60,_Guitar,6,3,watasino,0.9990057349205017,1
60,100,0.5409090909090909,141,0,60,_Guitar,6,9,watasino,0.23120450973510742,0
60,100,1.3590909090909091,308,0,60,_Guitar,6,15,watasino,0.2659139335155487,0
60,100,0.4409090909090909,726,1,60,_Guitar,6,7,watasino,0.3541952073574066,0
60,100,0.35909090909090907,263,1,61,_Guitar,6,6,watasino,0.9990229606628418,1
62,100,0.35909090909090907,351,0,61,_Guitar,6,6,watasino,0.36662086844444275,0
60,100,0.6590909090909091,703,1,61,_Guitar,6,11,watasino,0.4532966911792755,0
60,100,0.6181818181818182,171,1,62,_Guitar,6,10,watasino,0.9988419413566589,1
58,100,0.1590909090909091,405,1,62,_Guitar,6,3,watasino,0.13724762201309204,0
60,100,0.5,461,0,62,_Guitar,6,8,watasino,0.15977522730827332,0
58,100,0.13636363636363635,678,0,62,_Guitar,6,2,watasino,0.18644584715366364,0
60,100,1.0227272727272727,774,0,62,_Guitar,6,15,watasino,0.25816577672958374,0
60,100,0.2818181818181818,289,1,63,_Guitar,6,5,watasino,0.9990057349205017,1
60,100,0.22272727272727272,444,0,63,_Guitar,6,4,watasino,0.23120853304862976,0
58,100,0.5409090909090909,563,0,63,_Guitar,6,9,watasino,0.2659115493297577,0
60,100,0.5,818,1,63,_Guitar,6,8,watasino,0.35419654846191406,0
58,100,0.5227272727272727,430,1,64,_Guitar,6,8,watasino,0.9990230798721313,1
60,100,0.36363636363636365,553,0,64,_Guitar,6,6,watasino,0.36662420630455017,0
60,100,0.1,870,1,64,_Guitar,6,2,watasino,0.4532950818538666,0
57,100,0.3181818181818182,163,1,65,_Guitar,6,5,watasino,0.9990229606628418,1
60,100,0.5227272727272727,629,1,65,_Guitar,6,8,watasino,0.3666321337223053,0
53,100,0.12272727272727273,870,1,65,_Guitar,6,2,watasino,0.4532897472381592,0
60,100,0.1590909090909091,79,1,66,_Guitar,6,3,watasino,0.9988419413566589,1
58,100,0.8,136,0,66,_Guitar,6,13,watasino,0.13724593818187714,0
58,100,0.2409090909090909,316,0,66,_Guitar,6,4,watasino,0.15977700054645538,0
58,100,0.12272727272727273,650,1,66,_Guitar,6,2,watasino,0.186448335647583,0
65,100,0.2818181818181818,849,0,66,_Guitar,6,5,watasino,0.25816017389297485,0
58,100,0.2,157,1,67,_Guitar,6,3,watasino,0.9984880685806274,1
53,100,0.1409090909090909,286,0,67,_Guitar,6,2,watasino,0.06334535032510757,0
57,100,0.33636363636363636,392,0,67,_Guitar,6,5,watasino,0.05774044618010521,0
53,100,0.3181818181818182,493,0,67,_Guitar,6,5,watasino,0.06020238995552063,0
53,100,0.18181818181818182,585,0,67,_Guitar,6,3,watasino,0.06970268487930298,0
60,100,0.5,650,0,67,_Guitar,6,8,watasino,0.08189595490694046,0
60,100,1.1409090909090909,770,0,67,_Guitar,6,15,watasino,0.12402059137821198,0
60,100,0.1409090909090909,233,1,68,_Guitar,6,2,watasino,0.9990230798721313,1
60,100,0.4772727272727273,392,0,68,_Guitar,6,8,watasino,0.3666234016418457,0
65,100,0.35909090909090907,624,1,68,_Guitar,6,6,watasino,0.45329031348228455,0
60,100,0.35909090909090907,233,1,69,_Guitar,6,6,watasino,0.9983737468719482,1
53,100,0.2409090909090909,399,0,69,_Guitar,6,4,watasino,0.05106073617935181,0
60,100,0.18181818181818182,487,0,69,_Guitar,6,3,watasino,0.04130329191684723,0
60,100,0.12272727272727273,673,0,69,_Guitar,6,2,watasino,0.0373862124979496,0
60,100,0.1590909090909091,713,0,69,_Guitar,6,3,watasino,0.038330547511577606,0
53,100,0.1590909090909091,756,0,69,_Guitar,6,3,watasino,0.04475181922316551,0
53,100,0.12272727272727273,826,0,69,_Guitar,6,2,watasino,0.055229127407073975,0
57,100,0.37727272727272726,853,0,69,_Guitar,6,6,watasino,0.09026681631803513,0
60,100,0.2,166,1,70,_Guitar,6,3,watasino,0.9984880685806274,1
60,100,0.21818181818181817,273,0,70,_Guitar,6,3,watasino,0.06334492564201355,0
53,100,0.12272727272727273,356,0,70,_Guitar,6,2,watasino,0.057740334421396255,0
57,100,0.1,550,0,70,_Guitar,6,2,watasino,0.06019924581050873,0
53,100,0.1,633,0,70,_Guitar,6,2,watasino,0.0697024017572403,0
53,100,0.16363636363636364,663,0,70,_Guitar,6,3,watasino,0.0818905234336853,0
60,100,0.2,826,0,70,_Guitar,6,3,watasino,0.12401887774467468,0
53,100,0.2409090909090909,35,1,71,_Guitar,6,4,watasino,0.9986500144004822,1
58,100,0.1,184,0,71,_Guitar,6,2,watasino,0.08780602365732193,0
58,100,1.0227272727272727,210,0,71,_Guitar,6,15,watasino,0.09181375801563263,0
60,100,0.2590909090909091,519,1,71,_Guitar,6,4,watasino,0.10747857391834259,0
60,100,0.3,734,0,71,_Guitar,6,5,watasino,0.12482548505067825,0
60,100,0.8181818181818182,844,0,71,_Guitar,6,13,watasino,0.17903085052967072,0
60,100,0.12272727272727273,157,1,72,_Guitar,6,2,watasino,0.9990057349205017,1
53,100,0.12272727272727273,276,0,72,_Guitar,6,2,watasino,0.23119978606700897,0
53,100,0.12272727272727273,399,0,72,_Guitar,6,2,watasino,0.2659159004688263,0
65,100,0.3,426,0,72,_Guitar,6,5,watasino,0.3541902005672455,0
53,100,0.2590909090909091,210,1,73,_Guitar,6,4,watasino,0.9990057349205017,1
60,100,0.21818181818181817,303,0,73,_Guitar,6,3,watasino,0.23119774460792542,0
53,100,0.18181818181818182,487,0,73,_Guitar,6,3,watasino,0.2659164369106293,0
55,100,0.37727272727272726,832,1,73,_Guitar,6,6,watasino,0.35419735312461853,0
60,100,0.4590909090909091,56,1,74,_Guitar,6,7,watasino,0.9983165264129639,1
64,100,0.17727272727272728,392,1,74,_Guitar,6,3,watasino,0.5445547103881836,0
60,100,0.4772727272727273,40,1,75,_Guitar,6,8,watasino,0.9990057349205017,1
60,100,0.9590909090909091,299,1,75,_Guitar,6,15,watasino,0.23120233416557312,0
53,100,0.1409090909090909,550,1,75,_Guitar,6,2,watasino,0.26591596007347107,0
60,100,1.6409090909090909,682,0,75,_Guitar,6,15,watasino,0.35419294238090515,0
65,100,0.21818181818181817,787,1,76,_Guitar,6,3,watasino,0.979256272315979,0
60,100,0.8590909090909091,96,1,77,_Guitar,6,14,watasino,0.9990057349205017,1
53,100,0.12272727272727273,443,1,77,_Guitar,6,2,watasino,0.23121482133865356,0
58,100,0.13636363636363635,480,0,77,_Guitar,6,2,watasino,0.2659374177455902,0
58,100,1.3590909090909091,563,0,77,_Guitar,6,15,watasino,0.3541807532310486,0
58,100,0.1409090909090909,22,1,78,_Guitar,6,2,watasino,0.9988419413566589,1
55,100,0.1,263,1,78,_Guitar,6,2,watasino,0.13724856078624725,0
55,100,0.1,289,0,78,_Guitar,6,2,watasino,0.1597760170698166,0
60,100,0.5590909090909091,493,0,78,_Guitar,6,9,watasino,0.18644990026950836,0
60,100,2.2590909090909093,677,0,78,_Guitar,6,15,watasino,0.2581561207771301,0
60,100,0.8636363636363636,356,1,79,_Guitar,6,14,watasino,0.9792563915252686,0
60,100,0.1,123,1,80,_Guitar,6,2,watasino,0.9792568683624268,0
60,100,0.38181818181818183,386,1,81,_Guitar,6,6,watasino,0.9990230798721313,1
60,100,0.5227272727272727,519,0,81,_Guitar,6,8,watasino,0.36662450432777405,0
60,100,0.6772727272727272,669,0,81,_Guitar,6,11,watasino,0.4532909691333771,0
60,100,0.9409090909090909,3,1,82,_Guitar,6,15,watasino,0.9988419413566589,1
65,100,0.11818181818181818,373,1,82,_Guitar,6,2,watasino,0.13724781572818756,0
65,100,0.17727272727272728,413,0,82,_Guitar,6,3,watasino,0.15977512300014496,0
62,100,0.5,493,0,82,_Guitar,6,8,watasino,0.18644900619983673,0
60,100,1.1818181818181819,637,0,82,_Guitar,6,15,watasino,0.25816237926483154,0
53,100,0.2,26,1,83,_Guitar,6,3,watasino,0.9988419413566589,1
60,100,0.8409090909090909,229,0,83,_Guitar,6,13,watasino,0.13724765181541443,0
53,100,0.1,466,1,83,_Guitar,6,2,watasino,0.15977881848812103,0
53,100,0.22272727272727272,716,1,83,_Guitar,6,4,watasino,0.1864442378282547,0
60,100,0.35909090909090907,783,0,83,_Guitar,6,6,watasino,0.2581664025783539,0
58,100,0.13636363636363635,40,1,84,_Guitar,6,2,watasino,0.9988419413566589,1
60,100,0.2409090909090909,189,0,84,_Guitar,6,4,watasino,0.13724550604820251,0
53,100,0.11818181818181818,326,0,84,_Guitar,6,2,watasino,0.15977194905281067,0
60,100,0.9409090909090909,466,0,84,_Guitar,6,15,watasino,0.18644803762435913,0
60,100,0.6,677,0,84,_Guitar,6,10,watasino,0.25816380977630615,0
65,100,0.1,3,1,85,_Guitar,6,2,watasino,0.9983736276626587,1
65,100,0.17727272727272728,30,0,85,_Guitar,6,3,watasino,0.051060840487480164,0
58,100,0.1,184,0,85,_Guitar,6,2,watasino,0.04130310192704201,0
62,100,0.2409090909090909,220,0,85,_Guitar,6,4,watasino,0.03738480061292648,0
58,100,0.6181818181818182,370,0,85,_Guitar,6,10,watasino,0.03833018243312836,0
58,100,0.5636363636363636,509,0,85,_Guitar,6,9,watasino,0.04475095868110657,0
64,100,0.22272727272727272,642,0,85,_Guitar,6,4,watasino,0.05522886663675308,0
60,100,0.5818181818181818,695,0,85,_Guitar,6,9,watasino,0.0902666226029396,0
65,100,0.21818181818181817,176,1,86,_Guitar,6,3,watasino,0.9990057349205017,1
53,100,0.35909090909090907,237,0,86,_Guitar,6,6,watasino,0.2312062829732895,0
60,100,0.6181818181818182,373,0,86,_Guitar,6,10,watasino,0.26592716574668884,0
60,100,0.18181818181818182,839,1,86,_Guitar,6,3,watasino,0.35419756174087524,0
64,100,0.35909090909090907,386,1,87,_Guitar,6,6,watasino,0.9990057349205017,1
60,100,0.17727272727272728,493,0,87,_Guitar,6,3,watasino,0.23120979964733124,0
57,100,0.1590909090909091,612,0,87,_Guitar,6,3,watasino,0.26591941714286804,0
60,100,0.2818181818181818,686,0,87,_Guitar,6,5,watasino,0.35420504212379456,0
53,100,0.2,66,1,88,_Guitar,6,3,watasino,0.9984880685806274,1
65,100,0.2,189,0,88,_Guitar,6,3,watasino,0.06334497779607773,0
53,100,0.37727272727272726,347,0,88,_Guitar,6,6,watasino,0.05774050951004028,0
65,100,0.1409090909090909,430,0,88,_Guitar,6,2,watasino,0.06020120903849602,0
65,100,0.3,637,0,88,_Guitar,6,5,watasino,0.06969922035932541,0
60,100,0.21818181818181817,703,0,88,_Guitar,6,3,watasino,0.08189208805561066,0
53,100,0.11818181818181818,766,0,88,_Guitar,6,2,watasino,0.1240156814455986,0
60,100,0.17727272727272728,40,1,89,_Guitar,6,3,watasino,0.9986500144004822,1
65,100,0.4,92,0,89,_Guitar,6,6,watasino,0.08780156075954437,0
60,100,0.4772727272727273,193,0,89,_Guitar,6,8,watasino,0.09181175380945206,0
58,100,0.1590909090909091,303,0,89,_Guitar,6,3,watasino,0.1074737161397934,0
60,100,0.2409090909090909,409,0,89,_Guitar,6,4,watasino,0.12482108175754547,0
64,100,0.11818181818181818,677,1,89,_Guitar,6,2,watasino,0.17902933061122894,0
65,100,0.22272727272727272,56,1,90,_Guitar,6,4,watasino,0.9983003735542297,1
53,100,0.5,294,1,90,_Guitar,6,8,watasino,0.04466334730386734,0
65,100,0.3181818181818182,404,0,90,_Guitar,6,5,watasino,0.0331495963037014,0
65,100,0.2409090909090909,483,0,90,_Guitar,6,4,watasino,0.026579398661851883,0
77,100,0.11818181818181818,550,0,90,_Guitar,6,2,watasino,0.02359420619904995,0
60,100,0.2409090909090909,593,0,90,_Guitar,6,4,watasino,0.024314166978001595,0
60,100,0.1,686,0,90,_Guitar,6,2,watasino,0.029688691720366478,0
55,100,0.2,743,0,90,_Guitar,6,3,watasino,0.04007454216480255,0
60,100,0.18181818181818182,813,0,90,_Guitar,6,3,watasino,0.07092612981796265,0
84,100,0.2409090909090909,9,1,91,_Guitar,6,4,watasino,0.9983736276626587,1
60,100,0.42272727272727273,113,0,91,_Guitar,6,7,watasino,0.05106060206890106,0
77,100,0.21818181818181817,220,0,91,_Guitar,6,3,watasino,0.041302185505628586,0
55,100,0.2818181818181818,276,0,91,_Guitar,6,5,watasino,0.03738557547330856,0
58,100,0.2590909090909091,360,0,91,_Guitar,6,4,watasino,0.03832836449146271,0
81,100,0.1,426,0,91,_Guitar,6,2,watasino,0.04475045204162598,0
65,100,0.2409090909090909,650,0,91,_Guitar,6,4,watasino,0.05522746965289116,0
76,100,0.2636363636363636,752,0,91,_Guitar,6,4,watasino,0.09026376157999039,0
72,100,0.17727272727272728,106,1,92,_Guitar,6,3,watasino,0.9982553124427795,1
72,100,0.3,229,0,92,_Guitar,6,5,watasino,0.04128731042146683,0
53,100,0.1590909090909091,409,0,92,_Guitar,6,3,watasino,0.028934050351381302,0
77,100,0.1590909090909091,457,0,92,_Guitar,6,3,watasino,0.02128843404352665,0
81,100,0.1,553,0,92,_Guitar,6,2,watasino,0.016744961962103844,0
60,100,0.1409090909090909,616,0,92,_Guitar,6,2,watasino,0.014918160624802113,0
79,100,0.16363636363636364,663,0,92,_Guitar,6,3,watasino,0.016015660017728806,0
84,100,0.1590909090909091,716,0,92,_Guitar,6,3,watasino,0.02117892913520336,0
53,100,0.38181818181818183,760,0,92,_Guitar,6,6,watasino,0.031566321849823,0
65,100,0.2409090909090909,870,0,92,_Guitar,6,4,watasino,0.060058191418647766,0
77,100,0.2,69,1,93,_Guitar,6,3,watasino,0.9983003735542297,1
53,100,0.18181818181818182,136,0,93,_Guitar,6,3,watasino,0.04466312751173973,0
60,100,0.32272727272727275,179,0,93,_Guitar,6,5,watasino,0.033149514347314835,0
60,100,0.2409090909090909,267,0,93,_Guitar,6,4,watasino,0.026579013094305992,0
60,100,0.3181818181818182,396,0,93,_Guitar,6,5,watasino,0.023594751954078674,0
84,100,0.2,466,0,93,_Guitar,6,3,watasino,0.024314280599355698,0
60,100,0.6409090909090909,532,0,93,_Guitar,6,10,watasino,0.02968856878578663,0
60,100,0.1409090909090909,726,0,93,_Guitar,6,2,watasino,0.040075965225696564,0
55,100,0.21818181818181817,756,0,93,_Guitar,6,3,watasino,0.07092795521020889,0
60,100,0.11818181818181818,22,1,94,_Guitar,6,2,watasino,0.9983004927635193,1
58,100,0.4,113,0,94,_Guitar,6,6,watasino,0.0446639209985733,0
65,100,0.1409090909090909,210,0,94,_Guitar,6,2,watasino,0.03314986452460289,0
77,100,0.1,282,0,94,_Guitar,6,2,watasino,0.026579035446047783,0
76,100,0.1,356,0,94,_Guitar,6,2,watasino,0.02359531819820404,0
57,100,0.2,436,0,94,_Guitar,6,3,watasino,0.024314003065228462,0
57,100,0.13636363636363635,656,0,94,_Guitar,6,2,watasino,0.029689529910683632,0
72,100,0.2590909090909091,695,0,94,_Guitar,6,4,watasino,0.04007754102349281,0
76,100,0.1,844,0,94,_Guitar,6,2,watasino,0.07092826813459396,0
79,100,0.1,113,1,95,_Guitar,6,2,watasino,0.9983004927635193,1
81,100,0.1,140,0,95,_Guitar,6,2,watasino,0.0446632094681263,0
84,100,0.1590909090909091,294,0,95,_Guitar,6,3,watasino,0.0331491157412529,0
53,100,0.18181818181818182,462,0,95,_Guitar,6,3,watasino,0.026579013094305992,0
77,100,0.21818181818181817,536,0,95,_Guitar,6,3,watasino,0.023594187572598457,0
53,100,0.22272727272727272,585,0,95,_Guitar,6,4,watasino,0.024313263595104218,0
60,100,0.21818181818181817,660,0,95,_Guitar,6,3,watasino,0.02968885749578476,0
86,100,0.12272727272727273,752,0,95,_Guitar,6,2,watasino,0.040074240416288376,0
60,100,0.6181818181818182,787,0,95,_Guitar,6,10,watasino,0.07092738896608353,0
84,100,0.2636363636363636,47,1,96,_Guitar,6,4,watasino,0.9984880685806274,1
81,100,0.2,106,0,96,_Guitar,6,3,watasino,0.0633455142378807,0
60,100,0.4,172,0,96,_Guitar,6,6,watasino,0.05774350091814995,0
76,100,0.12272727272727273,343,0,96,_Guitar,6,2,watasino,0.06020364165306091,0
53,100,0.12272727272727273,409,0,96,_Guitar,6,2,watasino,0.06970489025115967,0
65,100,0.2409090909090909,449,0,96,_Guitar,6,4,watasino,0.08189859986305237,0
57,100,1.5818181818181818,673,0,96,_Guitar,6,15,watasino,0.12402015179395676,0
53,100,0.5590909090909091,343,1,97,_Guitar,6,9,watasino,0.9983165264129639,1
57,100,0.2409090909090909,739,1,97,_Guitar,6,4,watasino,0.544559121131897,0
57,100,0.33636363636363636,347,1,98,_Guitar,6,5,watasino,0.9792559146881104,1
62,100,0.16363636363636364,487,1,1,_Remix_Guitar,6,3, (Remix) Stems,0.9983165264129639,1
60,100,0.1,801,1,1,_Remix_Guitar,6,2, (Remix) Stems,0.5445647835731506,0
60,100,0.12272727272727273,122,1,2,_Remix_Guitar,6,2, (Remix) Stems,0.9983165264129639,1
55,100,0.1409090909090909,616,1,2,_Remix_Guitar,6,2, (Remix) Stems,0.5445489883422852,0
56,100,0.21818181818181817,229,1,3,_Remix_Guitar,6,3, (Remix) Stems,0.9990229606628418,1
56,100,0.1409090909090909,364,0,3,_Remix_Guitar,6,2, (Remix) Stems,0.36662811040878296,0
63,100,0.2409090909090909,730,1,3,_Remix_Guitar,6,4, (Remix) Stems,0.45328488945961,0
62,100,0.17727272727272728,118,1,6,_Remix_Guitar,6,3, (Remix) Stems,0.9983165264129639,1
63,100,0.11818181818181818,747,1,6,_Remix_Guitar,6,2, (Remix) Stems,0.5445659756660461,0
56,100,0.22272727272727272,25,1,7,_Remix_Guitar,6,4, (Remix) Stems,0.979255735874176,0
62,100,0.1409090909090909,374,1,8,_Remix_Guitar,6,2, (Remix) Stems,0.9983165264129639,1
63,100,0.1,761,1,8,_Remix_Guitar,6,2, (Remix) Stems,0.5445625185966492,0
56,100,0.13636363636363635,171,1,9,_Remix_Guitar,6,2, (Remix) Stems,0.9990230798721313,1
56,100,0.12272727272727273,290,0,9,_Remix_Guitar,6,2, (Remix) Stems,0.36662566661834717,0
56,100,0.12272727272727273,804,1,9,_Remix_Guitar,6,2, (Remix) Stems,0.4532855153083801,0
56,100,0.1409090909090909,175,1,10,_Remix_Guitar,6,2, (Remix) Stems,0.9983165264129639,1
63,100,0.5818181818181818,792,1,10,_Remix_Guitar,6,9, (Remix) Stems,0.5445549488067627,0
65,100,0.17727272727272728,118,1,11,_Remix_Guitar,6,3, (Remix) Stems,0.9984880685806274,1
67,100,0.2590909090909091,163,0,11,_Remix_Guitar,6,4, (Remix) Stems,0.06334500759840012,0
70,100,0.3409090909090909,285,0,11,_Remix_Guitar,6,5, (Remix) Stems,0.05774243175983429,0
67,100,0.2409090909090909,360,0,11,_Remix_Guitar,6,4, (Remix) Stems,0.060200463980436325,0
56,100,0.2409090909090909,426,0,11,_Remix_Guitar,6,4, (Remix) Stems,0.06970074772834778,0
65,100,0.2818181818181818,795,1,11,_Remix_Guitar,6,5, (Remix) Stems,0.08188977837562561,0
67,100,0.2409090909090909,862,0,11,_Remix_Guitar,6,4, (Remix) Stems,0.12401856482028961,0
70,100,0.1,79,1,12,_Remix_Guitar,6,2, (Remix) Stems,0.9982103109359741,1
70,100,0.1590909090909091,175,0,12,_Remix_Guitar,6,3, (Remix) Stems,0.03827815130352974,0
67,100,0.17727272727272728,237,0,12,_Remix_Guitar,6,3, (Remix) Stems,0.025408538058400154,0
65,100,0.33636363636363636,281,0,12,_Remix_Guitar,6,5, (Remix) Stems,0.017132410779595375,0
63,100,0.2,360,0,12,_Remix_Guitar,6,3, (Remix) Stems,0.011699998751282692,0
60,100,0.21818181818181817,414,0,12,_Remix_Guitar,6,3, (Remix) Stems,0.008470260538160801,0
58,100,0.1,501,0,12,_Remix_Guitar,6,2, (Remix) Stems,0.0069722458720207214,0
60,100,0.36363636363636365,532,0,12,_Remix_Guitar,6,6, (Remix) Stems,0.00700550340116024,0
63,100,0.1409090909090909,620,0,12,_Remix_Guitar,6,2, (Remix) Stems,0.008908410556614399,0
65,100,0.3,660,0,12,_Remix_Guitar,6,5, (Remix) Stems,0.013944080099463463,0
67,100,0.3181818181818182,787,0,12,_Remix_Guitar,6,5, (Remix) Stems,0.02411544695496559,0
53,100,0.1,876,0,12,_Remix_Guitar,6,2, (Remix) Stems,0.050319284200668335,0
65,100,0.38181818181818183,22,1,13,_Remix_Guitar,6,6, (Remix) Stems,0.9982553124427795,1
63,100,0.1,135,0,13,_Remix_Guitar,6,2, (Remix) Stems,0.04128782078623772,0
63,100,0.41818181818181815,185,0,13,_Remix_Guitar,6,7, (Remix) Stems,0.028934625908732414,0
63,100,0.3181818181818182,281,0,13,_Remix_Guitar,6,5, (Remix) Stems,0.021288448944687843,0
65,100,0.12272727272727273,355,0,13,_Remix_Guitar,6,2, (Remix) Stems,0.016745315864682198,0
55,100,0.1,505,0,13,_Remix_Guitar,6,2, (Remix) Stems,0.014918321743607521,0
70,100,0.3,532,0,13,_Remix_Guitar,6,5, (Remix) Stems,0.016015976667404175,0
67,100,0.2,615,0,13,_Remix_Guitar,6,3, (Remix) Stems,0.021179256960749626,0
56,100,0.3409090909090909,663,0,13,_Remix_Guitar,6,5, (Remix) Stems,0.031565941870212555,0
72,100,0.2590909090909091,787,0,13,_Remix_Guitar,6,4, (Remix) Stems,0.060061343014240265,0
70,100,0.2772727272727273,30,1,14,_Remix_Guitar,6,4, (Remix) Stems,0.9983004927635193,1
65,100,0.3,163,0,14,_Remix_Guitar,6,5, (Remix) Stems,0.04466322064399719,0
63,100,0.22272727272727272,233,0,14,_Remix_Guitar,6,4, (Remix) Stems,0.0331498458981514,0
65,100,0.3,295,0,14,_Remix_Guitar,6,5, (Remix) Stems,0.026579374447464943,0
65,100,0.12272727272727273,400,0,14,_Remix_Guitar,6,2, (Remix) Stems,0.023595096543431282,0
67,100,0.18181818181818182,488,0,14,_Remix_Guitar,6,3, (Remix) Stems,0.024314088746905327,0
67,100,0.1409090909090909,550,0,14,_Remix_Guitar,6,2, (Remix) Stems,0.029688552021980286,0
65,100,0.3409090909090909,660,0,14,_Remix_Guitar,6,5, (Remix) Stems,0.04007595032453537,0
65,100,0.2772727272727273,744,0,14,_Remix_Guitar,6,4, (Remix) Stems,0.07092751562595367,0
58,100,0.22272727272727272,233,1,16,_Remix_Guitar,6,4, (Remix) Stems,0.9792563915252686,1
58,100,0.18181818181818182,233,1,19,_Remix_Guitar,6,3, (Remix) Stems,0.9792563915252686,0
56,100,0.16363636363636364,158,1,20,_Remix_Guitar,6,3, (Remix) Stems,0.9990229606628418,1
56,100,0.1590909090909091,364,0,20,_Remix_Guitar,6,3, (Remix) Stems,0.3666169047355652,0
58,100,0.1409090909090909,870,1,20,_Remix_Guitar,6,2, (Remix) Stems,0.4532912075519562,0
58,100,0.1409090909090909,113,1,21,_Remix_Guitar,6,2, (Remix) Stems,0.9792568683624268,1
56,100,0.2409090909090909,474,1,22,_Remix_Guitar,6,4, (Remix) Stems,0.9792556166648865,0
58,100,0.1590909090909091,229,1,23,_Remix_Guitar,6,3, (Remix) Stems,0.9792563915252686,0
56,100,0.1590909090909091,656,1,24,_Remix_Guitar,6,3, (Remix) Stems,0.9983165264129639,1
56,100,0.13636363636363635,876,0,24,_Remix_Guitar,6,2, (Remix) Stems,0.5445524454116821,0
63,100,0.42272727272727273,387,1,25,_Remix_Guitar,6,7, (Remix) Stems,0.9990229606628418,1
55,100,0.2772727272727273,721,1,25,_Remix_Guitar,6,4, (Remix) Stems,0.3666357100009918,0
67,100,0.38181818181818183,804,0,25,_Remix_Guitar,6,6, (Remix) Stems,0.45329007506370544,0
67,100,0.17727272727272728,40,1,26,_Remix_Guitar,6,3, (Remix) Stems,0.9988419413566589,1
58,100,0.2409090909090909,167,0,26,_Remix_Guitar,6,4, (Remix) Stems,0.13724607229232788,0
63,100,0.35909090909090907,370,0,26,_Remix_Guitar,6,6, (Remix) Stems,0.15977700054645538,0
63,100,0.2818181818181818,461,0,26,_Remix_Guitar,6,5, (Remix) Stems,0.186446413397789,0
53,100,0.2409090909090909,791,1,26,_Remix_Guitar,6,4, (Remix) Stems,0.25816628336906433,0
56,100,0.1590909090909091,79,1,27,_Remix_Guitar,6,3, (Remix) Stems,0.9990057349205017,1
63,100,0.2409090909090909,198,0,27,_Remix_Guitar,6,4, (Remix) Stems,0.23120450973510742,0
63,100,0.12272727272727273,254,0,27,_Remix_Guitar,6,2, (Remix) Stems,0.2659216821193695,0
58,100,0.11818181818181818,735,1,27,_Remix_Guitar,6,2, (Remix) Stems,0.3542024791240692,0
67,100,0.5590909090909091,34,1,28,_Remix_Guitar,6,9, (Remix) Stems,0.9986500144004822,1
67,100,0.18181818181818182,202,0,28,_Remix_Guitar,6,3, (Remix) Stems,0.08780427277088165,0
67,100,0.1409090909090909,272,0,28,_Remix_Guitar,6,2, (Remix) Stems,0.09181414544582367,0
67,100,0.2772727272727273,347,0,28,_Remix_Guitar,6,4, (Remix) Stems,0.10747568309307098,0
67,100,0.3,453,0,28,_Remix_Guitar,6,5, (Remix) Stems,0.1248234361410141,0
67,100,0.5772727272727273,536,0,28,_Remix_Guitar,6,9, (Remix) Stems,0.1790250688791275,0
58,100,0.35909090909090907,57,1,29,_Remix_Guitar,6,6, (Remix) Stems,0.9990230798721313,1
58,100,0.11818181818181818,625,1,29,_Remix_Guitar,6,2, (Remix) Stems,0.3666267693042755,0
53,100,0.2,770,0,29,_Remix_Guitar,6,3, (Remix) Stems,0.45328399538993835,0
58,100,0.1409090909090909,119,1,30,_Remix_Guitar,6,2, (Remix) Stems,0.9986500144004822,1
67,100,0.8636363636363636,289,0,30,_Remix_Guitar,6,14, (Remix) Stems,0.08780024200677872,0
53,100,0.1590909090909091,484,0,30,_Remix_Guitar,6,3, (Remix) Stems,0.0918116346001625,0
67,100,0.2590909090909091,536,0,30,_Remix_Guitar,6,4, (Remix) Stems,0.10747590661048889,0
53,100,0.12272727272727273,598,0,30,_Remix_Guitar,6,2, (Remix) Stems,0.12482354789972305,0
63,100,0.8227272727272728,796,0,30,_Remix_Guitar,6,13, (Remix) Stems,0.17902357876300812,0
63,100,0.1,210,1,31,_Remix_Guitar,6,2, (Remix) Stems,0.9984880685806274,1
63,100,0.2409090909090909,295,0,31,_Remix_Guitar,6,4, (Remix) Stems,0.06334396451711655,0
53,100,0.5409090909090909,418,0,31,_Remix_Guitar,6,9, (Remix) Stems,0.05774271860718727,0
53,100,0.2590909090909091,611,0,31,_Remix_Guitar,6,4, (Remix) Stems,0.060201529413461685,0
53,100,0.16363636363636364,818,0,31,_Remix_Guitar,6,3, (Remix) Stems,0.06970327347517014,0
54,100,0.1,853,0,31,_Remix_Guitar,6,2, (Remix) Stems,0.08189716190099716,0
53,100,0.43636363636363634,876,0,31,_Remix_Guitar,6,7, (Remix) Stems,0.12402155995368958,0
63,100,0.18181818181818182,188,1,32,_Remix_Guitar,6,3, (Remix) Stems,0.9990229606628418,1
52,100,0.1409090909090909,421,1,32,_Remix_Guitar,6,2, (Remix) Stems,0.3666331171989441,0
62,100,1.5772727272727274,568,0,32,_Remix_Guitar,6,15, (Remix) Stems,0.45329469442367554,0
62,100,0.5409090909090909,69,1,33,_Remix_Guitar,6,9, (Remix) Stems,0.9990229606628418,1
62,100,1.1227272727272728,233,0,33,_Remix_Guitar,6,15, (Remix) Stems,0.3666309714317322,0
53,100,0.1409090909090909,619,1,33,_Remix_Guitar,6,2, (Remix) Stems,0.4532987177371979,0
53,100,0.21818181818181817,493,1,34,_Remix_Guitar,6,3, (Remix) Stems,0.9983165264129639,1
56,100,0.1409090909090909,646,0,34,_Remix_Guitar,6,2, (Remix) Stems,0.5445491075515747,0
53,100,0.2,611,1,35,_Remix_Guitar,6,3, (Remix) Stems,0.9983165264129639,1
62,100,0.12272727272727273,818,0,35,_Remix_Guitar,6,2, (Remix) Stems,0.5445612072944641,0
55,100,0.1,56,1,36,_Remix_Guitar,6,2, (Remix) Stems,0.9990229606628418,1
55,100,0.18181818181818182,298,1,36,_Remix_Guitar,6,3, (Remix) Stems,0.36661824584007263,0
58,100,0.3181818181818182,660,1,36,_Remix_Guitar,6,5, (Remix) Stems,0.45328715443611145,0
56,100,0.2409090909090909,298,1,37,_Remix_Guitar,6,4, (Remix) Stems,0.9983164072036743,1
56,100,0.12272727272727273,378,0,37,_Remix_Guitar,6,2, (Remix) Stems,0.5445495843887329,0
53,100,0.1409090909090909,53,1,40,_Remix_Guitar,6,2, (Remix) Stems,0.9984880685806274,1
58,100,0.18181818181818182,224,0,40,_Remix_Guitar,6,3, (Remix) Stems,0.06334690749645233,0
58,100,0.1409090909090909,386,0,40,_Remix_Guitar,6,2, (Remix) Stems,0.05774350091814995,0
55,100,0.5181818181818182,550,0,40,_Remix_Guitar,6,8, (Remix) Stems,0.060201678425073624,0
58,100,0.1,703,0,40,_Remix_Guitar,6,2, (Remix) Stems,0.06970470398664474,0
55,100,0.2818181818181818,748,0,40,_Remix_Guitar,6,5, (Remix) Stems,0.08189316093921661,0
58,100,0.21818181818181817,858,0,40,_Remix_Guitar,6,3, (Remix) Stems,0.1240200325846672,0
58,100,0.2,224,1,41,_Remix_Guitar,6,3, (Remix) Stems,0.9990230798721313,1
63,100,0.2818181818181818,408,0,41,_Remix_Guitar,6,5, (Remix) Stems,0.366626113653183,0
53,100,0.4,664,1,41,_Remix_Guitar,6,6, (Remix) Stems,0.45329731702804565,0
58,100,0.2,678,1,42,_Remix_Guitar,6,3, (Remix) Stems,0.9983165264129639,1
58,100,0.13636363636363635,743,0,42,_Remix_Guitar,6,2, (Remix) Stems,0.5445584654808044,0
62,100,0.13636363636363635,303,1,43,_Remix_Guitar,6,2, (Remix) Stems,0.9983164072036743,1
53,100,0.1409090909090909,625,1,43,_Remix_Guitar,6,2, (Remix) Stems,0.5445607304573059,0
56,100,0.11818181818181818,373,1,46,_Remix_Guitar,6,2, (Remix) Stems,0.9983165264129639,1
53,100,0.12272727272727273,783,1,46,_Remix_Guitar,6,2, (Remix) Stems,0.5445533394813538,0
55,100,0.1590909090909091,536,1,47,_Remix_Guitar,6,3, (Remix) Stems,0.9983165264129639,1
55,100,0.18181818181818182,576,0,47,_Remix_Guitar,6,3, (Remix) Stems,0.5445587038993835,0
56,100,0.2590909090909091,558,1,48,_Remix_Guitar,6,4, (Remix) Stems,0.9983164072036743,1
56,100,0.3,721,0,48,_Remix_Guitar,6,5, (Remix) Stems,0.5445578694343567,0
53,100,0.5,796,1,50,_Remix_Guitar,6,8, (Remix) Stems,0.9792558550834656,1
56,100,0.5636363636363636,179,1,52,_Remix_Guitar,6,9, (Remix) Stems,0.9792558550834656,0
56,100,0.11818181818181818,263,1,53,_Remix_Guitar,6,2, (Remix) Stems,0.9983165264129639,1
58,100,0.2,823,1,53,_Remix_Guitar,6,3, (Remix) Stems,0.544559895992279,0
58,100,0.18181818181818182,0,1,54,_Remix_Guitar,6,3, (Remix) Stems,0.9988419413566589,1
53,100,0.18181818181818182,91,0,54,_Remix_Guitar,6,3, (Remix) Stems,0.1372492015361786,0
55,100,0.32272727272727275,289,0,54,_Remix_Guitar,6,5, (Remix) Stems,0.15977993607521057,0
55,100,0.11818181818181818,506,0,54,_Remix_Guitar,6,2, (Remix) Stems,0.18644781410694122,0
55,100,0.2772727272727273,668,0,54,_Remix_Guitar,6,4, (Remix) Stems,0.25815463066101074,0
63,100,0.21818181818181817,96,1,55,_Remix_Guitar,6,3, (Remix) Stems,0.9990057349205017,1
53,100,0.4772727272727273,426,1,55,_Remix_Guitar,6,8, (Remix) Stems,0.2312084585428238,0
53,100,0.3409090909090909,584,0,55,_Remix_Guitar,6,5, (Remix) Stems,0.2659260630607605,0
53,100,0.12272727272727273,826,1,55,_Remix_Guitar,6,2, (Remix) Stems,0.3542003929615021,0
53,100,0.2409090909090909,26,1,56,_Remix_Guitar,6,4, (Remix) Stems,0.9990057349205017,1
65,100,0.11818181818181818,88,0,56,_Remix_Guitar,6,2, (Remix) Stems,0.23120354115962982,0
53,100,0.1409090909090909,311,0,56,_Remix_Guitar,6,2, (Remix) Stems,0.26591891050338745,0
63,100,0.2409090909090909,729,1,56,_Remix_Guitar,6,4, (Remix) Stems,0.35419636964797974,0
53,100,0.11818181818181818,286,1,58,_Remix_Guitar,6,2, (Remix) Stems,0.9983165264129639,1
58,100,0.11818181818181818,853,1,58,_Remix_Guitar,6,2, (Remix) Stems,0.5445619821548462,0
55,100,0.2772727272727273,105,1,59,_Remix_Guitar,6,4, (Remix) Stems,0.9792565107345581,0
53,100,0.4590909090909091,166,1,60,_Remix_Guitar,6,7, (Remix) Stems,0.9983165264129639,1
53,100,0.1409090909090909,364,0,60,_Remix_Guitar,6,2, (Remix) Stems,0.5445549488067627,0
53,100,0.1409090909090909,110,1,61,_Remix_Guitar,6,2, (Remix) Stems,0.9990229606628418,1
53,100,0.33636363636363636,171,0,61,_Remix_Guitar,6,5, (Remix) Stems,0.3666231632232666,0
63,100,0.1409090909090909,703,1,61,_Remix_Guitar,6,2, (Remix) Stems,0.45328468084335327,0
53,100,0.3,163,1,62,_Remix_Guitar,6,5, (Remix) Stems,0.9990057349205017,1
53,100,0.2,289,0,62,_Remix_Guitar,6,3, (Remix) Stems,0.23119807243347168,0
53,100,0.13636363636363635,435,0,62,_Remix_Guitar,6,2, (Remix) Stems,0.26591408252716064,0
53,100,0.22272727272727272,584,0,62,_Remix_Guitar,6,4, (Remix) Stems,0.3541910946369171,0
63,100,0.38181818181818183,694,1,63,_Remix_Guitar,6,6, (Remix) Stems,0.9792561531066895,1
56,100,0.22272727272727272,540,1,64,_Remix_Guitar,6,4, (Remix) Stems,0.9792558550834656,0
56,100,0.1409090909090909,30,1,65,_Remix_Guitar,6,2, (Remix) Stems,0.9988420605659485,1
63,100,0.1,113,0,65,_Remix_Guitar,6,2, (Remix) Stems,0.13725511729717255,0
58,100,0.7227272727272728,356,1,65,_Remix_Guitar,6,12, (Remix) Stems,0.15978889167308807,0
56,100,0.8,536,0,65,_Remix_Guitar,6,13, (Remix) Stems,0.18645808100700378,0
56,100,0.4,783,1,65,_Remix_Guitar,6,6, (Remix) Stems,0.2581622898578644,0
63,100,0.1409090909090909,66,1,66,_Remix_Guitar,6,2, (Remix) Stems,0.9983164072036743,1
56,100,0.2409090909090909,157,0,66,_Remix_Guitar,6,4, (Remix) Stems,0.5445612072944641,0
63,100,0.1,100,1,67,_Remix_Guitar,6,2, (Remix) Stems,0.9990229606628418,1
63,100,0.2409090909090909,136,0,67,_Remix_Guitar,6,4, (Remix) Stems,0.36662527918815613,0
58,100,0.1409090909090909,273,0,67,_Remix_Guitar,6,2, (Remix) Stems,0.453301340341568,0
58,100,0.35909090909090907,176,1,68,_Remix_Guitar,6,6, (Remix) Stems,0.9983164072036743,1
56,100,0.32272727272727275,430,1,68,_Remix_Guitar,6,5, (Remix) Stems,0.5445549488067627,0
56,100,0.16363636363636364,157,1,69,_Remix_Guitar,6,3, (Remix) Stems,0.9990229606628418,1
60,100,0.2590909090909091,726,1,69,_Remix_Guitar,6,4, (Remix) Stems,0.36662057042121887,0
60,100,0.2409090909090909,796,0,69,_Remix_Guitar,6,4, (Remix) Stems,0.45329129695892334,0
60,100,0.12272727272727273,69,1,70,_Remix_Guitar,6,2, (Remix) Stems,0.9986500144004822,1
54,100,0.11818181818181818,119,0,70,_Remix_Guitar,6,2, (Remix) Stems,0.0878051370382309,0
60,100,0.1409090909090909,365,1,70,_Remix_Guitar,6,2, (Remix) Stems,0.09181723743677139,0
63,100,0.5,475,0,70,_Remix_Guitar,6,8, (Remix) Stems,0.10748215019702911,0
56,100,0.5227272727272727,663,0,70,_Remix_Guitar,6,8, (Remix) Stems,0.12483011931180954,0
56,100,0.18181818181818182,826,0,70,_Remix_Guitar,6,3, (Remix) Stems,0.17903658747673035,0
56,100,0.2409090909090909,475,1,71,_Remix_Guitar,6,4, (Remix) Stems,0.9983165264129639,1
63,100,0.22272727272727272,673,0,71,_Remix_Guitar,6,4, (Remix) Stems,0.5445588827133179,0
55,100,0.2,853,1,72,_Remix_Guitar,6,3, (Remix) Stems,0.9792566299438477,0
55,100,0.1409090909090909,113,1,73,_Remix_Guitar,6,2, (Remix) Stems,0.9990058541297913,1
63,100,0.18181818181818182,286,0,73,_Remix_Guitar,6,3, (Remix) Stems,0.23121197521686554,0
55,100,0.23636363636363636,546,1,73,_Remix_Guitar,6,4, (Remix) Stems,0.2659243047237396,0
56,100,0.11818181818181818,836,1,73,_Remix_Guitar,6,2, (Remix) Stems,0.35419079661369324,0
53,100,0.23636363636363636,502,1,74,_Remix_Guitar,6,4, (Remix) Stems,0.9983165264129639,1
60,100,0.1409090909090909,839,1,74,_Remix_Guitar,6,2, (Remix) Stems,0.5445597171783447,0
55,100,0.1,123,1,75,_Remix_Guitar,6,2, (Remix) Stems,0.9988419413566589,1
55,100,0.1409090909090909,299,0,75,_Remix_Guitar,6,2, (Remix) Stems,0.1372484415769577,0
63,100,0.23636363636363636,392,0,75,_Remix_Guitar,6,4, (Remix) Stems,0.15977562963962555,0
55,100,0.5,669,1,75,_Remix_Guitar,6,8, (Remix) Stems,0.18645037710666656,0
55,100,0.2590909090909091,800,0,75,_Remix_Guitar,6,4, (Remix) Stems,0.25816380977630615,0
60,100,0.1,250,1,76,_Remix_Guitar,6,2, (Remix) Stems,0.9990057349205017,1
63,100,0.1590909090909091,299,0,76,_Remix_Guitar,6,3, (Remix) Stems,0.23120379447937012,0
56,100,0.13636363636363635,743,1,76,_Remix_Guitar,6,2, (Remix) Stems,0.2659260630607605,0
63,100,0.2409090909090909,800,0,76,_Remix_Guitar,6,4, (Remix) Stems,0.35419991612434387,0
62,100,0.3,462,1,77,_Remix_Guitar,6,5, (Remix) Stems,0.9990229606628418,1
62,100,0.3,590,0,77,_Remix_Guitar,6,5, (Remix) Stems,0.36663028597831726,0
62,100,0.37727272727272726,690,0,77,_Remix_Guitar,6,6, (Remix) Stems,0.4532969295978546,0
62,100,0.21818181818181817,119,1,78,_Remix_Guitar,6,3, (Remix) Stems,0.9983165264129639,1
63,100,0.2409090909090909,470,1,78,_Remix_Guitar,6,4, (Remix) Stems,0.5445553064346313,0
63,100,0.2,96,1,79,_Remix_Guitar,6,3, (Remix) Stems,0.9983164072036743,1
63,100,0.21818181818181817,352,1,79,_Remix_Guitar,6,3, (Remix) Stems,0.5445621013641357,0
56,100,0.1,796,1,80,_Remix_Guitar,6,2, (Remix) Stems,0.9792559146881104,0
58,100,0.1409090909090909,286,1,81,_Remix_Guitar,6,2, (Remix) Stems,0.9983165264129639,1
58,100,0.1409090909090909,320,0,81,_Remix_Guitar,6,2, (Remix) Stems,0.5445621013641357,0
63,100,0.3409090909090909,330,1,82,_Remix_Guitar,6,5, (Remix) Stems,0.9792566299438477,0
62,100,0.22272727272727272,475,1,83,_Remix_Guitar,6,4, (Remix) Stems,0.9990057349205017,1
53,100,0.1409090909090909,619,0,83,_Remix_Guitar,6,2, (Remix) Stems,0.231205016374588,0
62,100,0.2409090909090909,729,0,83,_Remix_Guitar,6,4, (Remix) Stems,0.2659260034561157,0
62,100,0.1409090909090909,817,0,83,_Remix_Guitar,6,2, (Remix) Stems,0.354203999042511,0
63,100,0.3181818181818182,30,1,85,_Remix_Guitar,6,5, (Remix) Stems,0.9990229606628418,1
63,100,0.21818181818181817,294,1,85,_Remix_Guitar,6,3, (Remix) Stems,0.3666282892227173,0
63,100,0.3,347,0,85,_Remix_Guitar,6,5, (Remix) Stems,0.45330101251602173,0
62,100,0.11818181818181818,74,1,86,_Remix_Guitar,6,2, (Remix) Stems,0.9990057349205017,1
55,100,0.11818181818181818,237,0,86,_Remix_Guitar,6,2, (Remix) Stems,0.2312130630016327,0
55,100,0.22272727272727272,343,0,86,_Remix_Guitar,6,4, (Remix) Stems,0.2659253180027008,0
58,100,0.4,800,1,86,_Remix_Guitar,6,6, (Remix) Stems,0.3542018532752991,0
63,100,0.16363636363636364,223,1,87,_Remix_Guitar,6,3, (Remix) Stems,0.9988419413566589,1
63,100,0.4590909090909091,303,0,87,_Remix_Guitar,6,7, (Remix) Stems,0.1372511386871338,0
56,100,0.11818181818181818,436,0,87,_Remix_Guitar,6,2, (Remix) Stems,0.15978679060935974,0
63,100,0.18181818181818182,686,1,87,_Remix_Guitar,6,3, (Remix) Stems,0.18645857274532318,0
63,100,0.38181818181818183,796,0,87,_Remix_Guitar,6,6, (Remix) Stems,0.258179634809494,0
56,100,0.12272727272727273,35,1,88,_Remix_Guitar,6,2, (Remix) Stems,0.9983165264129639,1
56,100,0.2,83,0,88,_Remix_Guitar,6,3, (Remix) Stems,0.544555127620697,0
53,100,0.2409090909090909,113,1,90,_Remix_Guitar,6,4, (Remix) Stems,0.9983165264129639,1
54,100,0.1,237,0,90,_Remix_Guitar,6,2, (Remix) Stems,0.5445601940155029,0
63,100,0.11818181818181818,62,1,91,_Remix_Guitar,6,2, (Remix) Stems,0.9990229606628418,1
63,100,0.2409090909090909,163,0,91,_Remix_Guitar,6,4, (Remix) Stems,0.3666306436061859,0
63,100,0.2590909090909091,726,1,91,_Remix_Guitar,6,4, (Remix) Stems,0.45330339670181274,0
58,100,0.2,677,1,92,_Remix_Guitar,6,3, (Remix) Stems,0.9792565107345581,0
63,100,0.5409090909090909,157,1,93,_Remix_Guitar,6,9, (Remix) Stems,0.9983164072036743,1
56,100,0.1590909090909091,787,1,93,_Remix_Guitar,6,3, (Remix) Stems,0.544563889503479,0
62,100,0.2590909090909091,559,1,94,_Remix_Guitar,6,4, (Remix) Stems,0.9983164072036743,1
55,100,0.18181818181818182,805,1,94,_Remix_Guitar,6,3, (Remix) Stems,0.5445627570152283,0
55,100,0.2,540,1,95,_Remix_Guitar,6,3, (Remix) Stems,0.9792565107345581,0
63,100,0.18181818181818182,110,1,96,_Remix_Guitar,6,3, (Remix) Stems,0.9990057349205017,1
63,100,0.11818181818181818,197,0,96,_Remix_Guitar,6,2, (Remix) Stems,0.2312058061361313,0
63,100,0.35909090909090907,263,0,96,_Remix_Guitar,6,6, (Remix) Stems,0.265927255153656,0
55,100,0.1409090909090909,673,1,96,_Remix_Guitar,6,2, (Remix) Stems,0.3542052209377289,0
62,100,0.37727272727272726,193,1,97,_Remix_Guitar,6,6, (Remix) Stems,0.9990229606628418,1
62,100,1.0636363636363637,289,0,97,_Remix_Guitar,6,15, (Remix) Stems,0.3666273057460785,0
62,100,0.7772727272727272,800,1,97,_Remix_Guitar,6,12, (Remix) Stems,0.4533028304576874,0
53,100,0.1590909090909091,145,1,98,_Remix_Guitar,6,3, (Remix) Stems,0.9990057349205017,1
62,100,0.1590909090909091,193,0,98,_Remix_Guitar,6,3, (Remix) Stems,0.2312079668045044,0
62,100,1.9772727272727273,339,0,98,_Remix_Guitar,6,15, (Remix) Stems,0.2659192979335785,0
62,100,0.11818181818181818,779,1,98,_Remix_Guitar,6,2, (Remix) Stems,0.3542095720767975,0
62,100,0.1409090909090909,356,1,99,_Remix_Guitar,6,2, (Remix) Stems,0.9792559146881104,0
55,100,0.35909090909090907,540,1,100,_Remix_Guitar,6,6, (Remix) Stems,0.9792565107345581,1
55,100,0.3,157,1,101,_Remix_Guitar,6,5, (Remix) Stems,0.9792565107345581,0
63,100,0.1590909090909091,580,1,102,_Remix_Guitar,6,3, (Remix) Stems,0.9792560338973999,0
56,100,0.2590909090909091,163,1,104,_Remix_Guitar,6,4, (Remix) Stems,0.9983165264129639,1
63,100,0.3,320,0,104,_Remix_Guitar,6,5, (Remix) Stems,0.5445654392242432,0
53,100,0.36363636363636365,157,1,105,_Remix_Guitar,6,6, (Remix) Stems,0.9990229606628418,1
62,100,0.1,466,1,105,_Remix_Guitar,6,2, (Remix) Stems,0.3666280508041382,0
63,100,0.2409090909090909,739,1,105,_Remix_Guitar,6,4, (Remix) Stems,0.4532969295978546,0
60,100,0.17727272727272728,193,1,106,_Remix_Guitar,6,3, (Remix) Stems,0.9983165264129639,1
63,100,0.1,690,1,106,_Remix_Guitar,6,2, (Remix) Stems,0.5445476174354553,0
62,100,0.2,436,1,107,_Remix_Guitar,6,3, (Remix) Stems,0.9990229606628418,1
62,100,0.4,509,0,107,_Remix_Guitar,6,6, (Remix) Stems,0.3666298985481262,0
62,100,0.2590909090909091,695,0,107,_Remix_Guitar,6,4, (Remix) Stems,0.4533065855503082,0
62,100,0.4,13,1,108,_Remix_Guitar,6,6, (Remix) Stems,0.9990057349205017,1
62,100,0.17727272727272728,106,0,108,_Remix_Guitar,6,3, (Remix) Stems,0.2312069982290268,0
62,100,0.2,430,1,108,_Remix_Guitar,6,3, (Remix) Stems,0.26592615246772766,0
53,100,0.18181818181818182,862,1,108,_Remix_Guitar,6,3, (Remix) Stems,0.3542115092277527,0
53,100,0.11818181818181818,30,1,109,_Remix_Guitar,6,2, (Remix) Stems,0.9983164072036743,1
63,100,0.6,857,1,109,_Remix_Guitar,6,10, (Remix) Stems,0.5445535182952881,0
63,100,0.1,113,1,110,_Remix_Guitar,6,2, (Remix) Stems,0.9983165264129639,1
53,100,0.1,294,0,110,_Remix_Guitar,6,2, (Remix) Stems,0.5445597171783447,0
63,100,0.3409090909090909,496,1,111,_Remix_Guitar,6,5, (Remix) Stems,0.9983164072036743,1
63,100,0.1409090909090909,650,0,111,_Remix_Guitar,6,2, (Remix) Stems,0.5445665121078491,0
65,100,0.3,320,1,112,_Remix_Guitar,6,5, (Remix) Stems,0.9983165264129639,1
65,100,0.3409090909090909,399,0,112,_Remix_Guitar,6,5, (Remix) Stems,0.5445512533187866,0
58,100,0.2,686,1,113,_Remix_Guitar,6,3, (Remix) Stems,0.9983165264129639,1
82,100,0.5181818181818182,779,0,113,_Remix_Guitar,6,8, (Remix) Stems,0.5445589423179626,0
53,100,0.3181818181818182,677,1,115,_Remix_Guitar,6,5, (Remix) Stems,0.9792560338973999,0
55,100,0.1590909090909091,62,1,116,_Remix_Guitar,6,3, (Remix) Stems,0.9990229606628418,1
55,100,0.1590909090909091,360,1,116,_Remix_Guitar,6,3, (Remix) Stems,0.3666175603866577,0
53,100,0.2,677,1,116,_Remix_Guitar,6,3, (Remix) Stems,0.453290730714798,0
53,100,0.1590909090909091,426,1,117,_Remix_Guitar,6,3, (Remix) Stems,0.9792566299438477,0
53,100,0.11818181818181818,237,1,119,_Remix_Guitar,6,2, (Remix) Stems,0.9983165264129639,1
55,100,0.1,457,0,119,_Remix_Guitar,6,2, (Remix) Stems,0.5445594787597656,0
53,100,0.12272727272727273,210,1,121,_Remix_Guitar,6,2, (Remix) Stems,0.9792563915252686,1
53,100,0.1409090909090909,660,1,122,_Remix_Guitar,6,2, (Remix) Stems,0.9792560338973999,0
63,100,0.1,839,1,124,_Remix_Guitar,6,2, (Remix) Stems,0.9792558550834656,1
53,100,0.3,40,1,127,_Remix_Guitar,6,5, (Remix) Stems,0.9792556166648865,0
57,100,0.2,232,1,128,_Remix_Guitar,6,3, (Remix) Stems,0.9792565107345581,1
53,100,0.1409090909090909,295,1,129,_Remix_Guitar,6,2, (Remix) Stems,0.979256272315979,0
53,100,0.41818181818181815,413,1,130,_Remix_Guitar,6,7, (Remix) Stems,0.9990229606628418,1
53,100,0.1,682,1,130,_Remix_Guitar,6,2, (Remix) Stems,0.36662402749061584,0
53,100,0.38181818181818183,796,0,130,_Remix_Guitar,6,6, (Remix) Stems,0.45328742265701294,0
53,100,0.1590909090909091,238,1,131,_Remix_Guitar,6,3, (Remix) Stems,0.9792558550834656,0
60,100,0.1,228,1,135,_Remix_Guitar,6,2, (Remix) Stems,0.9792567491531372,0
53,100,0.1409090909090909,79,1,136,_Remix_Guitar,6,2, (Remix) Stems,0.9983164072036743,1
53,100,0.18181818181818182,180,0,136,_Remix_Guitar,6,3, (Remix) Stems,0.5445549488067627,0
60,100,0.1590909090909091,185,1,142,_Remix_Guitar,6,3, (Remix) Stems,0.9792565107345581,1
58,100,1.481818181818182,343,1,1,DL_MelancholicFolk_Guitar,6,15,hanamokatanamoMelancholicFolk,0.9983165264129639,1
58,100,2.7181818181818183,681,1,1,DL_MelancholicFolk_Guitar,6,15,hanamokatanamoMelancholicFolk,0.5445454716682434,0
70,100,0.21818181818181817,413,1,2,DL_MelancholicFolk_Guitar,6,3,hanamokatanamoMelancholicFolk,0.9990230798721313,1
58,100,1.2818181818181817,461,0,2,DL_MelancholicFolk_Guitar,6,15,hanamokatanamoMelancholicFolk,0.36662834882736206,0
53,100,0.7227272727272728,752,1,2,DL_MelancholicFolk_Guitar,6,12,hanamokatanamoMelancholicFolk,0.45328155159950256,0
60,100,0.8409090909090909,34,1,3,DL_MelancholicFolk_Guitar,6,13,hanamokatanamoMelancholicFolk,0.9990230798721313,1
60,100,2.6227272727272726,223,0,3,DL_MelancholicFolk_Guitar,6,15,hanamokatanamoMelancholicFolk,0.36661067605018616,0
60,100,0.2,827,1,3,DL_MelancholicFolk_Guitar,6,3,hanamokatanamoMelancholicFolk,0.4532954692840576,0
60,100,0.3181818181818182,194,1,4,DL_MelancholicFolk_Guitar,6,5,hanamokatanamoMelancholicFolk,0.9988419413566589,1
55,100,0.8227272727272728,276,0,4,DL_MelancholicFolk_Guitar,6,13,hanamokatanamoMelancholicFolk,0.13724586367607117,0
62,100,0.7,462,0,4,DL_MelancholicFolk_Guitar,6,11,hanamokatanamoMelancholicFolk,0.1597767025232315,0
65,100,0.1409090909090909,619,0,4,DL_MelancholicFolk_Guitar,6,2,hanamokatanamoMelancholicFolk,0.18644464015960693,0
62,100,0.21818181818181817,682,0,4,DL_MelancholicFolk_Guitar,6,3,hanamokatanamoMelancholicFolk,0.2581641376018524,0
65,100,0.12272727272727273,48,1,5,DL_MelancholicFolk_Guitar,6,2,hanamokatanamoMelancholicFolk,0.9983164072036743,1
62,100,0.5409090909090909,558,1,5,DL_MelancholicFolk_Guitar,6,9,hanamokatanamoMelancholicFolk,0.5445576906204224,0
58,100,0.11818181818181818,128,1,6,DL_MelancholicFolk_Guitar,6,2,hanamokatanamoMelancholicFolk,0.9983165264129639,1
58,100,0.2409090909090909,184,0,6,DL_MelancholicFolk_Guitar,6,4,hanamokatanamoMelancholicFolk,0.5445595979690552,0
58,100,0.1590909090909091,541,1,7,DL_MelancholicFolk_Guitar,6,3,hanamokatanamoMelancholicFolk,0.9792565107345581,1
53,100,0.8227272727272728,620,1,8,DL_MelancholicFolk_Guitar,6,13,hanamokatanamoMelancholicFolk,0.9792560338973999,0
60,100,0.8409090909090909,206,1,9,DL_MelancholicFolk_Guitar,6,13,hanamokatanamoMelancholicFolk,0.979256272315979,0
60,100,0.4409090909090909,25,1,10,DL_MelancholicFolk_Guitar,6,7,hanamokatanamoMelancholicFolk,0.9792565107345581,0
58,100,0.1,56,1,13,DL_MelancholicFolk_Guitar,6,2,hanamokatanamoMelancholicFolk,0.9990057349205017,1
65,100,0.2409090909090909,409,1,13,DL_MelancholicFolk_Guitar,6,4,hanamokatanamoMelancholicFolk,0.23119834065437317,0
62,100,0.11818181818181818,831,1,13,DL_MelancholicFolk_Guitar,6,2,hanamokatanamoMelancholicFolk,0.26592037081718445,0
62,100,0.12272727272727273,862,0,13,DL_MelancholicFolk_Guitar,6,2,hanamokatanamoMelancholicFolk,0.3542053997516632,0
65,100,0.8590909090909091,166,1,14,DL_MelancholicFolk_Guitar,6,14,hanamokatanamoMelancholicFolk,0.9988419413566589,1
58,100,0.1409090909090909,355,0,14,DL_MelancholicFolk_Guitar,6,2,hanamokatanamoMelancholicFolk,0.13724495470523834,0
58,100,0.1,391,0,14,DL_MelancholicFolk_Guitar,6,2,hanamokatanamoMelancholicFolk,0.15977227687835693,0
65,100,0.1,465,0,14,DL_MelancholicFolk_Guitar,6,2,hanamokatanamoMelancholicFolk,0.18644119799137115,0
58,100,0.4636363636363636,795,1,14,DL_MelancholicFolk_Guitar,6,7,hanamokatanamoMelancholicFolk,0.2581488788127899,0
65,100,0.2,44,1,15,DL_MelancholicFolk_Guitar,6,3,hanamokatanamoMelancholicFolk,0.9990057349205017,1
58,100,0.7,106,0,15,DL_MelancholicFolk_Guitar,6,11,hanamokatanamoMelancholicFolk,0.23120947182178497,0
58,100,0.4818181818181818,422,1,15,DL_MelancholicFolk_Guitar,6,8,hanamokatanamoMelancholicFolk,0.2659260034561157,0
65,100,0.8409090909090909,716,1,15,DL_MelancholicFolk_Guitar,6,13,hanamokatanamoMelancholicFolk,0.35418900847435,0
65,100,0.2,113,1,17,DL_MelancholicFolk_Guitar,6,3,hanamokatanamoMelancholicFolk,0.9983165264129639,1
65,100,0.18181818181818182,223,0,17,DL_MelancholicFolk_Guitar,6,3,hanamokatanamoMelancholicFolk,0.5445535182952881,0
65,100,1.459090909090909,515,1,18,DL_MelancholicFolk_Guitar,6,15,hanamokatanamoMelancholicFolk,0.9792554974555969,0
58,100,0.6181818181818182,457,1,19,DL_MelancholicFolk_Guitar,6,10,hanamokatanamoMelancholicFolk,0.9990230798721313,1
53,100,0.8409090909090909,598,0,19,DL_MelancholicFolk_Guitar,6,13,hanamokatanamoMelancholicFolk,0.36661919951438904,0
53,100,0.18181818181818182,858,1,19,DL_MelancholicFolk_Guitar,6,3,hanamokatanamoMelancholicFolk,0.4532831311225891,0
65,100,0.12272727272727273,48,1,20,DL_MelancholicFolk_Guitar,6,2,hanamokatanamoMelancholicFolk,0.9990057349205017,1
53,100,0.4,75,0,20,DL_MelancholicFolk_Guitar,6,6,hanamokatanamoMelancholicFolk,0.23120257258415222,0
65,100,0.23636363636363636,171,0,20,DL_MelancholicFolk_Guitar,6,4,hanamokatanamoMelancholicFolk,0.26592299342155457,0
65,100,0.3409090909090909,691,1,20,DL_MelancholicFolk_Guitar,6,5,hanamokatanamoMelancholicFolk,0.35419535636901855,0
70,100,0.740909090909091,581,1,21,DL_MelancholicFolk_Guitar,6,12,hanamokatanamoMelancholicFolk,0.9792559146881104,0
58,100,0.35909090909090907,52,1,22,DL_MelancholicFolk_Guitar,6,6,hanamokatanamoMelancholicFolk,0.9986500144004822,1
65,100,0.8590909090909091,229,0,22,DL_MelancholicFolk_Guitar,6,14,hanamokatanamoMelancholicFolk,0.08780205249786377,0
63,100,0.12272727272727273,422,0,22,DL_MelancholicFolk_Guitar,6,2,hanamokatanamoMelancholicFolk,0.09181354939937592,0
53,100,0.3181818181818182,461,0,22,DL_MelancholicFolk_Guitar,6,5,hanamokatanamoMelancholicFolk,0.10747666656970978,0
53,100,0.1,540,0,22,DL_MelancholicFolk_Guitar,6,2,hanamokatanamoMelancholicFolk,0.12482456117868423,0
60,100,0.1,835,1,22,DL_MelancholicFolk_Guitar,6,2,hanamokatanamoMelancholicFolk,0.17902903258800507,0
65,100,0.33636363636363636,193,1,23,DL_MelancholicFolk_Guitar,6,5,hanamokatanamoMelancholicFolk,0.9988419413566589,1
55,100,0.6,370,0,23,DL_MelancholicFolk_Guitar,6,10,hanamokatanamoMelancholicFolk,0.1372513622045517,0
55,100,0.11818181818181818,546,0,23,DL_MelancholicFolk_Guitar,6,2,hanamokatanamoMelancholicFolk,0.1597772091627121,0
53,100,0.1590909090909091,625,0,23,DL_MelancholicFolk_Guitar,6,3,hanamokatanamoMelancholicFolk,0.1864495426416397,0
65,100,1.240909090909091,663,0,23,DL_MelancholicFolk_Guitar,6,15,hanamokatanamoMelancholicFolk,0.2581496238708496,0
53,100,0.1,65,1,24,DL_MelancholicFolk_Guitar,6,2,hanamokatanamoMelancholicFolk,0.9990229606628418,1
65,100,1.1,395,1,24,DL_MelancholicFolk_Guitar,6,15,hanamokatanamoMelancholicFolk,0.36661580204963684,0
65,100,0.21818181818181817,656,1,24,DL_MelancholicFolk_Guitar,6,3,hanamokatanamoMelancholicFolk,0.45328810811042786,0
58,100,0.2590909090909091,83,1,25,DL_MelancholicFolk_Guitar,6,4,hanamokatanamoMelancholicFolk,0.9990057349205017,1
65,100,0.43636363636363634,171,0,25,DL_MelancholicFolk_Guitar,6,7,hanamokatanamoMelancholicFolk,0.23119889199733734,0
53,100,0.2409090909090909,409,1,25,DL_MelancholicFolk_Guitar,6,4,hanamokatanamoMelancholicFolk,0.2659132480621338,0
60,100,0.2409090909090909,712,1,25,DL_MelancholicFolk_Guitar,6,4,hanamokatanamoMelancholicFolk,0.3541921377182007,0
69,100,0.2636363636363636,48,1,26,DL_MelancholicFolk_Guitar,6,4,hanamokatanamoMelancholicFolk,0.9984880685806274,1
53,100,0.2818181818181818,241,0,26,DL_MelancholicFolk_Guitar,6,5,hanamokatanamoMelancholicFolk,0.06334591656923294,0
53,100,0.35909090909090907,480,1,26,DL_MelancholicFolk_Guitar,6,6,hanamokatanamoMelancholicFolk,0.05774198845028877,0
58,100,0.5,590,0,26,DL_MelancholicFolk_Guitar,6,8,hanamokatanamoMelancholicFolk,0.0602005310356617,0
53,100,0.2818181818181818,729,0,26,DL_MelancholicFolk_Guitar,6,5,hanamokatanamoMelancholicFolk,0.06970138847827911,0
65,100,0.11818181818181818,791,0,26,DL_MelancholicFolk_Guitar,6,2,hanamokatanamoMelancholicFolk,0.0818905457854271,0
53,100,0.16363636363636364,818,0,26,DL_MelancholicFolk_Guitar,6,3,hanamokatanamoMelancholicFolk,0.12401804327964783,0
65,100,1.1409090909090909,88,1,28,DL_MelancholicFolk_Guitar,6,15,hanamokatanamoMelancholicFolk,0.9983164072036743,1
53,100,0.1409090909090909,339,1,28,DL_MelancholicFolk_Guitar,6,2,hanamokatanamoMelancholicFolk,0.5445594191551208,0
55,100,1.059090909090909,254,1,29,DL_MelancholicFolk_Guitar,6,15,hanamokatanamoMelancholicFolk,0.9990229606628418,1
58,100,0.5,523,1,29,DL_MelancholicFolk_Guitar,6,8,hanamokatanamoMelancholicFolk,0.3666227161884308,0
65,100,0.5,694,0,29,DL_MelancholicFolk_Guitar,6,8,hanamokatanamoMelancholicFolk,0.45329156517982483,0
65,100,0.17727272727272728,391,1,30,DL_MelancholicFolk_Guitar,6,3,hanamokatanamoMelancholicFolk,0.9990057349205017,1
53,100,0.18181818181818182,430,0,30,DL_MelancholicFolk_Guitar,6,3,hanamokatanamoMelancholicFolk,0.23120078444480896,0
65,100,0.1409090909090909,470,0,30,DL_MelancholicFolk_Guitar,6,2,hanamokatanamoMelancholicFolk,0.26591575145721436,0
53,100,0.2590909090909091,501,0,30,DL_MelancholicFolk_Guitar,6,4,hanamokatanamoMelancholicFolk,0.3541923761367798,0
58,100,0.6363636363636364,40,1,31,DL_MelancholicFolk_Guitar,6,10,hanamokatanamoMelancholicFolk,0.9988419413566589,1
65,100,0.1,254,0,31,DL_MelancholicFolk_Guitar,6,2,hanamokatanamoMelancholicFolk,0.13724397122859955,0
53,100,0.13636363636363635,303,0,31,DL_MelancholicFolk_Guitar,6,2,hanamokatanamoMelancholicFolk,0.1597692221403122,0
60,100,0.1590909090909091,791,1,31,DL_MelancholicFolk_Guitar,6,3,hanamokatanamoMelancholicFolk,0.18644510209560394,0
65,100,0.1,870,0,31,DL_MelancholicFolk_Guitar,6,2,hanamokatanamoMelancholicFolk,0.25816091895103455,0
65,100,0.22272727272727272,641,1,32,DL_MelancholicFolk_Guitar,6,4,hanamokatanamoMelancholicFolk,0.9990229606628418,1
58,100,0.1590909090909091,765,0,32,DL_MelancholicFolk_Guitar,6,3,hanamokatanamoMelancholicFolk,0.3666291832923889,0
55,100,1.1409090909090909,818,0,32,DL_MelancholicFolk_Guitar,6,15,hanamokatanamoMelancholicFolk,0.45328283309936523,0
53,100,0.11818181818181818,193,1,33,DL_MelancholicFolk_Guitar,6,2,hanamokatanamoMelancholicFolk,0.9990057349205017,1
53,100,0.1409090909090909,361,0,33,DL_MelancholicFolk_Guitar,6,2,hanamokatanamoMelancholicFolk,0.23119644820690155,0
53,100,0.1409090909090909,453,0,33,DL_MelancholicFolk_Guitar,6,2,hanamokatanamoMelancholicFolk,0.26591596007347107,0
63,100,0.2772727272727273,765,1,33,DL_MelancholicFolk_Guitar,6,4,hanamokatanamoMelancholicFolk,0.35419154167175293,0
55,100,0.32272727272727275,48,1,34,DL_MelancholicFolk_Guitar,6,5,hanamokatanamoMelancholicFolk,0.9984880685806274,1
55,100,0.6,136,0,34,DL_MelancholicFolk_Guitar,6,10,hanamokatanamoMelancholicFolk,0.06334495544433594,0
62,100,0.4818181818181818,298,0,34,DL_MelancholicFolk_Guitar,6,8,hanamokatanamoMelancholicFolk,0.057742394506931305,0
60,100,0.6409090909090909,616,1,34,DL_MelancholicFolk_Guitar,6,10,hanamokatanamoMelancholicFolk,0.060202717781066895,0
53,100,0.1590909090909091,765,0,34,DL_MelancholicFolk_Guitar,6,3,hanamokatanamoMelancholicFolk,0.0697033479809761,0
65,100,0.17727272727272728,801,0,34,DL_MelancholicFolk_Guitar,6,3,hanamokatanamoMelancholicFolk,0.08189327269792557,0
53,100,0.2,861,0,34,DL_MelancholicFolk_Guitar,6,3,hanamokatanamoMelancholicFolk,0.12402217835187912,0
65,100,0.6227272727272727,56,1,35,DL_MelancholicFolk_Guitar,6,10,hanamokatanamoMelancholicFolk,0.9986500144004822,1
65,100,0.1409090909090909,211,0,35,DL_MelancholicFolk_Guitar,6,2,hanamokatanamoMelancholicFolk,0.08780210465192795,0
65,100,0.6818181818181818,378,0,35,DL_MelancholicFolk_Guitar,6,11,hanamokatanamoMelancholicFolk,0.0918109193444252,0
65,100,0.2,584,0,35,DL_MelancholicFolk_Guitar,6,3,hanamokatanamoMelancholicFolk,0.10747808963060379,0
53,100,0.2409090909090909,628,0,35,DL_MelancholicFolk_Guitar,6,4,hanamokatanamoMelancholicFolk,0.12482354789972305,0
53,100,0.8363636363636363,765,0,35,DL_MelancholicFolk_Guitar,6,13,hanamokatanamoMelancholicFolk,0.17902794480323792,0
53,100,0.1590909090909091,118,1,36,DL_MelancholicFolk_Guitar,6,3,hanamokatanamoMelancholicFolk,0.9990229606628418,1
53,100,0.22272727272727272,311,0,36,DL_MelancholicFolk_Guitar,6,4,hanamokatanamoMelancholicFolk,0.36663365364074707,0
53,100,0.9409090909090909,474,0,36,DL_MelancholicFolk_Guitar,6,15,hanamokatanamoMelancholicFolk,0.45328429341316223,0
53,100,0.17727272727272728,523,1,37,DL_MelancholicFolk_Guitar,6,3,hanamokatanamoMelancholicFolk,0.9983165264129639,1
60,100,0.11818181818181818,611,0,37,DL_MelancholicFolk_Guitar,6,2,hanamokatanamoMelancholicFolk,0.5445625185966492,0
65,100,0.2,0,1,38,DL_MelancholicFolk_Guitar,6,3,hanamokatanamoMelancholicFolk,0.9984880685806274,1
58,100,0.4636363636363636,69,0,38,DL_MelancholicFolk_Guitar,6,7,hanamokatanamoMelancholicFolk,0.06334472447633743,0
65,100,0.18181818181818182,268,0,38,DL_MelancholicFolk_Guitar,6,3,hanamokatanamoMelancholicFolk,0.05773979797959328,0
65,100,0.3181818181818182,625,1,38,DL_MelancholicFolk_Guitar,6,5,hanamokatanamoMelancholicFolk,0.06019953638315201,0
65,100,0.2,756,0,38,DL_MelancholicFolk_Guitar,6,3,hanamokatanamoMelancholicFolk,0.06970009952783585,0
65,100,0.11818181818181818,813,0,38,DL_MelancholicFolk_Guitar,6,2,hanamokatanamoMelancholicFolk,0.08189097046852112,0
65,100,0.2,845,0,38,DL_MelancholicFolk_Guitar,6,3,hanamokatanamoMelancholicFolk,0.12401100248098373,0
65,100,1.518181818181818,53,1,39,DL_MelancholicFolk_Guitar,6,15,hanamokatanamoMelancholicFolk,0.9988419413566589,1
53,100,0.4,444,1,39,DL_MelancholicFolk_Guitar,6,6,hanamokatanamoMelancholicFolk,0.13724838197231293,0
65,100,0.4,531,0,39,DL_MelancholicFolk_Guitar,6,6,hanamokatanamoMelancholicFolk,0.1597743183374405,0
60,100,0.22272727272727272,694,0,39,DL_MelancholicFolk_Guitar,6,4,hanamokatanamoMelancholicFolk,0.18645025789737701,0
60,100,0.21818181818181817,748,0,39,DL_MelancholicFolk_Guitar,6,3,hanamokatanamoMelancholicFolk,0.2581614851951599,0
65,100,0.2,61,1,40,DL_MelancholicFolk_Guitar,6,3,hanamokatanamoMelancholicFolk,0.9988419413566589,1
65,100,0.11818181818181818,206,0,40,DL_MelancholicFolk_Guitar,6,2,hanamokatanamoMelancholicFolk,0.13724620640277863,0
53,100,0.22272727272727272,651,1,40,DL_MelancholicFolk_Guitar,6,4,hanamokatanamoMelancholicFolk,0.1597742885351181,0
65,100,0.37727272727272726,700,0,40,DL_MelancholicFolk_Guitar,6,6,hanamokatanamoMelancholicFolk,0.18644587695598602,0
55,100,1.3409090909090908,813,0,40,DL_MelancholicFolk_Guitar,6,15,hanamokatanamoMelancholicFolk,0.25815752148628235,0
58,100,0.7227272727272728,246,1,41,DL_MelancholicFolk_Guitar,6,12,hanamokatanamoMelancholicFolk,0.9990229606628418,1
58,100,0.4,550,1,41,DL_MelancholicFolk_Guitar,6,6,hanamokatanamoMelancholicFolk,0.3666202127933502,0
55,100,0.6590909090909091,735,0,41,DL_MelancholicFolk_Guitar,6,11,hanamokatanamoMelancholicFolk,0.45328617095947266,0
65,100,0.11818181818181818,131,1,42,DL_MelancholicFolk_Guitar,6,2,hanamokatanamoMelancholicFolk,0.9988419413566589,1
58,100,0.18181818181818182,179,0,42,DL_MelancholicFolk_Guitar,6,3,hanamokatanamoMelancholicFolk,0.13724878430366516,0
65,100,0.35909090909090907,228,0,42,DL_MelancholicFolk_Guitar,6,6,hanamokatanamoMelancholicFolk,0.15977491438388824,0
63,100,0.2818181818181818,334,0,42,DL_MelancholicFolk_Guitar,6,5,hanamokatanamoMelancholicFolk,0.1864459067583084,0
58,100,0.13636363636363635,545,0,42,DL_MelancholicFolk_Guitar,6,2,hanamokatanamoMelancholicFolk,0.25816744565963745,0
63,100,0.11818181818181818,241,1,43,DL_MelancholicFolk_Guitar,6,2,hanamokatanamoMelancholicFolk,0.9990057349205017,1
58,100,0.35909090909090907,581,1,43,DL_MelancholicFolk_Guitar,6,6,hanamokatanamoMelancholicFolk,0.231207937002182,0
65,100,0.12272727272727273,694,0,43,DL_MelancholicFolk_Guitar,6,2,hanamokatanamoMelancholicFolk,0.2659316956996918,0
55,100,1.040909090909091,756,0,43,DL_MelancholicFolk_Guitar,6,15,hanamokatanamoMelancholicFolk,0.3541945219039917,0
55,100,0.4,364,1,44,DL_MelancholicFolk_Guitar,6,6,hanamokatanamoMelancholicFolk,0.9990229606628418,1
58,100,0.2409090909090909,606,1,44,DL_MelancholicFolk_Guitar,6,4,hanamokatanamoMelancholicFolk,0.3666233718395233,0
58,100,0.6181818181818182,836,0,44,DL_MelancholicFolk_Guitar,6,10,hanamokatanamoMelancholicFolk,0.4532831311225891,0
53,100,0.1590909090909091,101,1,45,DL_MelancholicFolk_Guitar,6,3,hanamokatanamoMelancholicFolk,0.9984879493713379,1
65,100,0.3,136,0,45,DL_MelancholicFolk_Guitar,6,5,hanamokatanamoMelancholicFolk,0.06334299594163895,0
58,100,0.1409090909090909,220,0,45,DL_MelancholicFolk_Guitar,6,2,hanamokatanamoMelancholicFolk,0.0577404610812664,0
65,100,0.740909090909091,298,0,45,DL_MelancholicFolk_Guitar,6,12,hanamokatanamoMelancholicFolk,0.06019792705774307,0
65,100,0.5227272727272727,466,0,45,DL_MelancholicFolk_Guitar,6,8,hanamokatanamoMelancholicFolk,0.0696999803185463,0
53,100,0.1590909090909091,584,0,45,DL_MelancholicFolk_Guitar,6,3,hanamokatanamoMelancholicFolk,0.08189114928245544,0
65,100,0.4818181818181818,628,0,45,DL_MelancholicFolk_Guitar,6,8,hanamokatanamoMelancholicFolk,0.12401510775089264,0
60,100,0.8772727272727273,8,1,46,DL_MelancholicFolk_Guitar,6,14,hanamokatanamoMelancholicFolk,0.9990229606628418,1
60,100,0.5818181818181818,373,1,46,DL_MelancholicFolk_Guitar,6,9,hanamokatanamoMelancholicFolk,0.36662304401397705,0
53,100,0.4,515,0,46,DL_MelancholicFolk_Guitar,6,6,hanamokatanamoMelancholicFolk,0.4532815217971802,0
58,100,0.12272727272727273,276,1,47,DL_MelancholicFolk_Guitar,6,2,hanamokatanamoMelancholicFolk,0.9983165264129639,1
65,100,0.16363636363636364,774,1,47,DL_MelancholicFolk_Guitar,6,3,hanamokatanamoMelancholicFolk,0.5445586442947388,0
58,100,0.6227272727272727,48,1,48,DL_MelancholicFolk_Guitar,6,10,hanamokatanamoMelancholicFolk,0.9986500144004822,1
53,100,0.4,188,0,48,DL_MelancholicFolk_Guitar,6,6,hanamokatanamoMelancholicFolk,0.08780381083488464,0
60,100,0.5,413,0,48,DL_MelancholicFolk_Guitar,6,8,hanamokatanamoMelancholicFolk,0.0918157771229744,0
53,100,0.2772727272727273,603,0,48,DL_MelancholicFolk_Guitar,6,4,hanamokatanamoMelancholicFolk,0.1074778139591217,0
53,100,0.2,668,0,48,DL_MelancholicFolk_Guitar,6,3,hanamokatanamoMelancholicFolk,0.12482735514640808,0
65,100,0.12272727272727273,716,0,48,DL_MelancholicFolk_Guitar,6,2,hanamokatanamoMelancholicFolk,0.17903269827365875,0
65,100,0.21818181818181817,40,1,49,DL_MelancholicFolk_Guitar,6,3,hanamokatanamoMelancholicFolk,0.9983736276626587,1
53,100,0.8181818181818182,96,0,49,DL_MelancholicFolk_Guitar,6,13,hanamokatanamoMelancholicFolk,0.05105920508503914,0
65,100,0.11818181818181818,281,0,49,DL_MelancholicFolk_Guitar,6,2,hanamokatanamoMelancholicFolk,0.041302621364593506,0
53,100,0.4409090909090909,351,0,49,DL_MelancholicFolk_Guitar,6,7,hanamokatanamoMelancholicFolk,0.037384554743766785,0
53,100,0.23636363636363636,458,0,49,DL_MelancholicFolk_Guitar,6,4,hanamokatanamoMelancholicFolk,0.038328301161527634,0
65,100,0.12272727272727273,509,0,49,DL_MelancholicFolk_Guitar,6,2,hanamokatanamoMelancholicFolk,0.04474959149956703,0
58,100,0.35909090909090907,651,0,49,DL_MelancholicFolk_Guitar,6,6,hanamokatanamoMelancholicFolk,0.05522631108760834,0
65,100,0.1409090909090909,791,0,49,DL_MelancholicFolk_Guitar,6,2,hanamokatanamoMelancholicFolk,0.09025820344686508,0
58,100,0.5409090909090909,716,1,50,DL_MelancholicFolk_Guitar,6,9,hanamokatanamoMelancholicFolk,0.9983164072036743,1
53,100,0.1409090909090909,858,0,50,DL_MelancholicFolk_Guitar,6,2,hanamokatanamoMelancholicFolk,0.5445550680160522,0
58,100,0.17727272727272728,8,1,51,DL_MelancholicFolk_Guitar,6,3,hanamokatanamoMelancholicFolk,0.9986500144004822,1
53,100,0.2,48,0,51,DL_MelancholicFolk_Guitar,6,3,hanamokatanamoMelancholicFolk,0.08780142664909363,0
58,100,0.11818181818181818,96,0,51,DL_MelancholicFolk_Guitar,6,2,hanamokatanamoMelancholicFolk,0.09181120246648788,0
53,100,0.21818181818181817,448,1,51,DL_MelancholicFolk_Guitar,6,3,hanamokatanamoMelancholicFolk,0.1074758768081665,0
53,100,0.17727272727272728,523,0,51,DL_MelancholicFolk_Guitar,6,3,hanamokatanamoMelancholicFolk,0.12482228875160217,0
53,100,0.35909090909090907,568,0,51,DL_MelancholicFolk_Guitar,6,6,hanamokatanamoMelancholicFolk,0.17903123795986176,0
62,100,0.1590909090909091,153,1,52,DL_MelancholicFolk_Guitar,6,3,hanamokatanamoMelancholicFolk,0.9990057349205017,1
60,100,0.12272727272727273,268,0,52,DL_MelancholicFolk_Guitar,6,2,hanamokatanamoMelancholicFolk,0.2312059849500656,0
62,100,0.18181818181818182,466,0,52,DL_MelancholicFolk_Guitar,6,3,hanamokatanamoMelancholicFolk,0.26592227816581726,0
60,100,0.5409090909090909,598,0,52,DL_MelancholicFolk_Guitar,6,9,hanamokatanamoMelancholicFolk,0.3542056679725647,0
65,100,0.21818181818181817,96,1,53,DL_MelancholicFolk_Guitar,6,3,hanamokatanamoMelancholicFolk,0.9986500144004822,1
53,100,0.18181818181818182,224,0,53,DL_MelancholicFolk_Guitar,6,3,hanamokatanamoMelancholicFolk,0.08780327439308167,0
65,100,0.1,263,0,53,DL_MelancholicFolk_Guitar,6,2,hanamokatanamoMelancholicFolk,0.09181218594312668,0
65,100,0.2,399,0,53,DL_MelancholicFolk_Guitar,6,3,hanamokatanamoMelancholicFolk,0.10747522115707397,0
65,100,0.21818181818181817,515,0,53,DL_MelancholicFolk_Guitar,6,3,hanamokatanamoMelancholicFolk,0.12482236325740814,0
65,100,0.8227272727272728,619,0,53,DL_MelancholicFolk_Guitar,6,13,hanamokatanamoMelancholicFolk,0.17902198433876038,0
65,100,0.2818181818181818,0,1,54,DL_MelancholicFolk_Guitar,6,5,hanamokatanamoMelancholicFolk,0.9983003735542297,1
53,100,0.16363636363636364,69,0,54,DL_MelancholicFolk_Guitar,6,3,hanamokatanamoMelancholicFolk,0.044662971049547195,0
65,100,0.21818181818181817,141,0,54,DL_MelancholicFolk_Guitar,6,3,hanamokatanamoMelancholicFolk,0.033148735761642456,0
53,100,0.7181818181818181,215,0,54,DL_MelancholicFolk_Guitar,6,11,hanamokatanamoMelancholicFolk,0.02657845802605152,0
53,100,0.37727272727272726,391,0,54,DL_MelancholicFolk_Guitar,6,6,hanamokatanamoMelancholicFolk,0.0235939659178257,0
53,100,0.2590909090909091,501,0,54,DL_MelancholicFolk_Guitar,6,4,hanamokatanamoMelancholicFolk,0.024313025176525116,0
60,100,0.1409090909090909,606,0,54,DL_MelancholicFolk_Guitar,6,2,hanamokatanamoMelancholicFolk,0.029688706621527672,0
55,100,0.1409090909090909,735,0,54,DL_MelancholicFolk_Guitar,6,2,hanamokatanamoMelancholicFolk,0.040074680000543594,0
65,100,0.11818181818181818,823,0,54,DL_MelancholicFolk_Guitar,6,2,hanamokatanamoMelancholicFolk,0.07092660665512085,0
65,100,0.6772727272727272,171,1,55,DL_MelancholicFolk_Guitar,6,11,hanamokatanamoMelancholicFolk,0.9990229606628418,1
55,100,0.2590909090909091,338,0,55,DL_MelancholicFolk_Guitar,6,4,hanamokatanamoMelancholicFolk,0.36662784218788147,0
55,100,0.21818181818181817,413,0,55,DL_MelancholicFolk_Guitar,6,3,hanamokatanamoMelancholicFolk,0.4532894790172577,0
53,100,0.17727272727272728,75,1,56,DL_MelancholicFolk_Guitar,6,3,hanamokatanamoMelancholicFolk,0.9986500144004822,1
58,100,0.2,114,0,56,DL_MelancholicFolk_Guitar,6,3,hanamokatanamoMelancholicFolk,0.08780483901500702,0
58,100,0.18181818181818182,179,0,56,DL_MelancholicFolk_Guitar,6,3,hanamokatanamoMelancholicFolk,0.09181346744298935,0
58,100,0.18181818181818182,483,1,56,DL_MelancholicFolk_Guitar,6,3,hanamokatanamoMelancholicFolk,0.10747846215963364,0
65,100,0.21818181818181817,616,0,56,DL_MelancholicFolk_Guitar,6,3,hanamokatanamoMelancholicFolk,0.12482242286205292,0
65,100,0.1409090909090909,845,0,56,DL_MelancholicFolk_Guitar,6,2,hanamokatanamoMelancholicFolk,0.17903131246566772,0
60,100,0.41818181818181815,8,1,57,DL_MelancholicFolk_Guitar,6,7,hanamokatanamoMelancholicFolk,0.9990057349205017,1
65,100,0.12272727272727273,334,1,57,DL_MelancholicFolk_Guitar,6,2,hanamokatanamoMelancholicFolk,0.23119746148586273,0
53,100,0.3,488,0,57,DL_MelancholicFolk_Guitar,6,5,hanamokatanamoMelancholicFolk,0.26591378450393677,0
60,100,0.1409090909090909,593,0,57,DL_MelancholicFolk_Guitar,6,2,hanamokatanamoMelancholicFolk,0.35419145226478577,0
65,100,0.2409090909090909,91,1,58,DL_MelancholicFolk_Guitar,6,4,hanamokatanamoMelancholicFolk,0.9990057349205017,1
65,100,0.11818181818181818,163,0,58,DL_MelancholicFolk_Guitar,6,2,hanamokatanamoMelancholicFolk,0.2312067449092865,0
62,100,0.21818181818181817,325,0,58,DL_MelancholicFolk_Guitar,6,3,hanamokatanamoMelancholicFolk,0.2659269869327545,0
60,100,1.440909090909091,418,0,58,DL_MelancholicFolk_Guitar,6,15,hanamokatanamoMelancholicFolk,0.35420122742652893,0
65,100,0.18181818181818182,123,1,59,DL_MelancholicFolk_Guitar,6,3,hanamokatanamoMelancholicFolk,0.9983165264129639,1
58,100,0.2818181818181818,751,1,59,DL_MelancholicFolk_Guitar,6,5,hanamokatanamoMelancholicFolk,0.5445621013641357,0
60,100,0.11818181818181818,21,1,60,DL_MelancholicFolk_Guitar,6,2,hanamokatanamoMelancholicFolk,0.9983736276626587,1
53,100,0.1,91,0,60,DL_MelancholicFolk_Guitar,6,2,hanamokatanamoMelancholicFolk,0.05105932801961899,0
53,100,0.1409090909090909,131,0,60,DL_MelancholicFolk_Guitar,6,2,hanamokatanamoMelancholicFolk,0.041301336139440536,0
60,100,0.4,176,0,60,DL_MelancholicFolk_Guitar,6,6,hanamokatanamoMelancholicFolk,0.03738429397344589,0
53,100,0.1590909090909091,263,0,60,DL_MelancholicFolk_Guitar,6,3,hanamokatanamoMelancholicFolk,0.03832755982875824,0
53,100,0.21818181818181817,330,0,60,DL_MelancholicFolk_Guitar,6,3,hanamokatanamoMelancholicFolk,0.044749125838279724,0
53,100,0.1590909090909091,426,0,60,DL_MelancholicFolk_Guitar,6,3,hanamokatanamoMelancholicFolk,0.055226996541023254,0
55,100,0.41818181818181815,646,0,60,DL_MelancholicFolk_Guitar,6,7,hanamokatanamoMelancholicFolk,0.09025926142930984,0
58,100,0.12272727272727273,246,1,61,DL_MelancholicFolk_Guitar,6,2,hanamokatanamoMelancholicFolk,0.9990057349205017,1
60,100,0.5409090909090909,541,1,61,DL_MelancholicFolk_Guitar,6,9,hanamokatanamoMelancholicFolk,0.23120731115341187,0
60,100,0.7636363636363637,664,0,61,DL_MelancholicFolk_Guitar,6,12,hanamokatanamoMelancholicFolk,0.26593074202537537,0
53,100,0.16363636363636364,839,0,61,DL_MelancholicFolk_Guitar,6,3,hanamokatanamoMelancholicFolk,0.3541920781135559,0
57,100,0.17727272727272728,61,1,62,DL_MelancholicFolk_Guitar,6,3,hanamokatanamoMelancholicFolk,0.9990229606628418,1
58,100,0.11818181818181818,418,1,62,DL_MelancholicFolk_Guitar,6,2,hanamokatanamoMelancholicFolk,0.3666248619556427,0
58,100,0.2,853,1,62,DL_MelancholicFolk_Guitar,6,3,hanamokatanamoMelancholicFolk,0.45329204201698303,0
65,100,0.18181818181818182,408,1,63,DL_MelancholicFolk_Guitar,6,3,hanamokatanamoMelancholicFolk,0.9983165264129639,1
53,100,0.16363636363636364,509,0,63,DL_MelancholicFolk_Guitar,6,3,hanamokatanamoMelancholicFolk,0.5445547699928284,0
53,100,0.1590909090909091,286,1,64,DL_MelancholicFolk_Guitar,6,3,hanamokatanamoMelancholicFolk,0.9984880685806274,1
65,100,0.11818181818181818,370,0,64,DL_MelancholicFolk_Guitar,6,2,hanamokatanamoMelancholicFolk,0.06334523111581802,0
65,100,0.11818181818181818,413,0,64,DL_MelancholicFolk_Guitar,6,2,hanamokatanamoMelancholicFolk,0.05774126201868057,0
53,100,0.1409090909090909,440,0,64,DL_MelancholicFolk_Guitar,6,2,hanamokatanamoMelancholicFolk,0.06020279973745346,0
60,100,0.4,502,0,64,DL_MelancholicFolk_Guitar,6,6,hanamokatanamoMelancholicFolk,0.06970281898975372,0
53,100,0.35909090909090907,760,1,64,DL_MelancholicFolk_Guitar,6,6,hanamokatanamoMelancholicFolk,0.0818953886628151,0
65,100,0.18181818181818182,839,0,64,DL_MelancholicFolk_Guitar,6,3,hanamokatanamoMelancholicFolk,0.12401953339576721,0
58,100,0.35909090909090907,760,1,65,DL_MelancholicFolk_Guitar,6,6,hanamokatanamoMelancholicFolk,0.9983166456222534,1
58,100,0.16363636363636364,862,0,65,DL_MelancholicFolk_Guitar,6,3,hanamokatanamoMelancholicFolk,0.5445587635040283,0
58,100,0.7,106,1,66,DL_MelancholicFolk_Guitar,6,11,hanamokatanamoMelancholicFolk,0.9990057349205017,1
63,100,0.18181818181818182,333,0,66,DL_MelancholicFolk_Guitar,6,3,hanamokatanamoMelancholicFolk,0.23119471967220306,0
53,100,0.17727272727272728,436,0,66,DL_MelancholicFolk_Guitar,6,3,hanamokatanamoMelancholicFolk,0.26592111587524414,0
53,100,0.2590909090909091,519,0,66,DL_MelancholicFolk_Guitar,6,4,hanamokatanamoMelancholicFolk,0.35419154167175293,0
53,100,0.2,127,1,67,DL_MelancholicFolk_Guitar,6,3,hanamokatanamoMelancholicFolk,0.9990057349205017,1
65,100,0.13636363636363635,172,0,67,DL_MelancholicFolk_Guitar,6,2,hanamokatanamoMelancholicFolk,0.2312018722295761,0
53,100,0.12272727272727273,202,0,67,DL_MelancholicFolk_Guitar,6,2,hanamokatanamoMelancholicFolk,0.26591476798057556,0
53,100,0.8409090909090909,862,1,67,DL_MelancholicFolk_Guitar,6,13,hanamokatanamoMelancholicFolk,0.35418951511383057,0
65,100,0.11818181818181818,193,1,68,DL_MelancholicFolk_Guitar,6,2,hanamokatanamoMelancholicFolk,0.9988419413566589,1
65,100,0.2636363636363636,223,0,68,DL_MelancholicFolk_Guitar,6,4,hanamokatanamoMelancholicFolk,0.13724514842033386,0
65,100,0.2,286,0,68,DL_MelancholicFolk_Guitar,6,3,hanamokatanamoMelancholicFolk,0.15977708995342255,0
65,100,0.1,399,0,68,DL_MelancholicFolk_Guitar,6,2,hanamokatanamoMelancholicFolk,0.1864449381828308,0
65,100,1.2227272727272727,487,0,68,DL_MelancholicFolk_Guitar,6,15,hanamokatanamoMelancholicFolk,0.25815507769584656,0
65,100,1.0772727272727274,140,1,69,DL_MelancholicFolk_Guitar,6,15,hanamokatanamoMelancholicFolk,0.9983164072036743,1
58,100,0.1590909090909091,493,1,69,DL_MelancholicFolk_Guitar,6,3,hanamokatanamoMelancholicFolk,0.5445604920387268,0
65,100,0.12272727272727273,320,1,70,DL_MelancholicFolk_Guitar,6,2,hanamokatanamoMelancholicFolk,0.9988419413566589,1
65,100,0.1590909090909091,352,0,70,DL_MelancholicFolk_Guitar,6,3,hanamokatanamoMelancholicFolk,0.13724377751350403,0
65,100,0.2818181818181818,409,0,70,DL_MelancholicFolk_Guitar,6,5,hanamokatanamoMelancholicFolk,0.1597781479358673,0
58,100,1.3772727272727272,470,0,70,DL_MelancholicFolk_Guitar,6,15,hanamokatanamoMelancholicFolk,0.18644273281097412,0
60,100,1.518181818181818,787,1,70,DL_MelancholicFolk_Guitar,6,15,hanamokatanamoMelancholicFolk,0.2581627666950226,0
65,100,0.6,276,1,71,DL_MelancholicFolk_Guitar,6,10,hanamokatanamoMelancholicFolk,0.9990229606628418,1
65,100,0.6,430,0,71,DL_MelancholicFolk_Guitar,6,10,hanamokatanamoMelancholicFolk,0.3666236400604248,0
65,100,1.3636363636363635,576,0,71,DL_MelancholicFolk_Guitar,6,15,hanamokatanamoMelancholicFolk,0.4532918334007263,0
60,100,1.3,0,1,72,DL_MelancholicFolk_Guitar,6,15,hanamokatanamoMelancholicFolk,0.9990229606628418,1
58,100,1.2227272727272727,333,1,72,DL_MelancholicFolk_Guitar,6,15,hanamokatanamoMelancholicFolk,0.3666120767593384,0
55,100,0.1,663,1,72,DL_MelancholicFolk_Guitar,6,2,hanamokatanamoMelancholicFolk,0.4532855749130249,0
62,100,1.518181818181818,83,1,73,DL_MelancholicFolk_Guitar,6,15,hanamokatanamoMelancholicFolk,0.9990057349205017,1
55,100,0.7,426,1,73,DL_MelancholicFolk_Guitar,6,11,hanamokatanamoMelancholicFolk,0.23120908439159393,0
65,100,0.2,663,1,73,DL_MelancholicFolk_Guitar,6,3,hanamokatanamoMelancholicFolk,0.26592233777046204,0
53,100,1.518181818181818,722,0,73,DL_MelancholicFolk_Guitar,6,15,hanamokatanamoMelancholicFolk,0.3541889488697052,0
60,100,0.759090909090909,286,1,74,DL_MelancholicFolk_Guitar,6,12,hanamokatanamoMelancholicFolk,0.9988420605659485,1
69,100,0.1590909090909091,496,0,74,DL_MelancholicFolk_Guitar,6,3,hanamokatanamoMelancholicFolk,0.13724736869335175,0
57,100,0.5181818181818182,546,0,74,DL_MelancholicFolk_Guitar,6,8,hanamokatanamoMelancholicFolk,0.15977273881435394,0
57,100,0.5227272727272727,695,0,74,DL_MelancholicFolk_Guitar,6,8,hanamokatanamoMelancholicFolk,0.18644708395004272,0
65,100,0.759090909090909,813,0,74,DL_MelancholicFolk_Guitar,6,12,hanamokatanamoMelancholicFolk,0.2581586241722107,0
65,100,0.18181818181818182,220,1,75,DL_MelancholicFolk_Guitar,6,3,hanamokatanamoMelancholicFolk,0.9983164072036743,1
65,100,1.018181818181818,580,1,75,DL_MelancholicFolk_Guitar,6,15,hanamokatanamoMelancholicFolk,0.5445511341094971,0
53,100,0.759090909090909,30,1,76,DL_MelancholicFolk_Guitar,6,12,hanamokatanamoMelancholicFolk,0.9988419413566589,1
60,100,0.1409090909090909,316,1,76,DL_MelancholicFolk_Guitar,6,2,hanamokatanamoMelancholicFolk,0.13724681735038757,0
65,100,0.2590909090909091,392,0,76,DL_MelancholicFolk_Guitar,6,4,hanamokatanamoMelancholicFolk,0.1597725749015808,0
65,100,0.1409090909090909,453,0,76,DL_MelancholicFolk_Guitar,6,2,hanamokatanamoMelancholicFolk,0.18644781410694122,0
58,100,0.8181818181818182,514,0,76,DL_MelancholicFolk_Guitar,6,13,hanamokatanamoMelancholicFolk,0.2581632137298584,0
60,100,0.2,119,1,77,DL_MelancholicFolk_Guitar,6,3,hanamokatanamoMelancholicFolk,0.9988419413566589,1
60,100,0.17727272727272728,229,0,77,DL_MelancholicFolk_Guitar,6,3,hanamokatanamoMelancholicFolk,0.1372513622045517,0
60,100,0.5590909090909091,307,0,77,DL_MelancholicFolk_Guitar,6,9,hanamokatanamoMelancholicFolk,0.1597820222377777,0
55,100,1.3590909090909091,449,0,77,DL_MelancholicFolk_Guitar,6,15,hanamokatanamoMelancholicFolk,0.18644577264785767,0
65,100,0.6818181818181818,760,1,77,DL_MelancholicFolk_Guitar,6,11,hanamokatanamoMelancholicFolk,0.2581618130207062,0
65,100,0.7,35,1,78,DL_MelancholicFolk_Guitar,6,11,hanamokatanamoMelancholicFolk,0.9990057349205017,1
65,100,0.7363636363636363,523,1,78,DL_MelancholicFolk_Guitar,6,12,hanamokatanamoMelancholicFolk,0.23120617866516113,0
58,100,0.38181818181818183,752,0,78,DL_MelancholicFolk_Guitar,6,6,hanamokatanamoMelancholicFolk,0.26592472195625305,0
53,100,0.759090909090909,849,0,78,DL_MelancholicFolk_Guitar,6,12,hanamokatanamoMelancholicFolk,0.354190856218338,0
65,100,0.4,282,1,79,DL_MelancholicFolk_Guitar,6,6,hanamokatanamoMelancholicFolk,0.9990057349205017,1
60,100,0.2818181818181818,386,0,79,DL_MelancholicFolk_Guitar,6,5,hanamokatanamoMelancholicFolk,0.2312088906764984,0
58,100,0.4,509,0,79,DL_MelancholicFolk_Guitar,6,6,hanamokatanamoMelancholicFolk,0.2659190595149994,0
65,100,0.18181818181818182,597,0,79,DL_MelancholicFolk_Guitar,6,3,hanamokatanamoMelancholicFolk,0.35419583320617676,0
65,100,0.21818181818181817,163,1,80,DL_MelancholicFolk_Guitar,6,3,hanamokatanamoMelancholicFolk,0.9990057349205017,1
58,100,0.2,440,1,80,DL_MelancholicFolk_Guitar,6,3,hanamokatanamoMelancholicFolk,0.2312108725309372,0
58,100,0.18181818181818182,519,0,80,DL_MelancholicFolk_Guitar,6,3,hanamokatanamoMelancholicFolk,0.2659214735031128,0
60,100,1.1409090909090909,703,0,80,DL_MelancholicFolk_Guitar,6,15,hanamokatanamoMelancholicFolk,0.3541903793811798,0
63,100,0.11818181818181818,660,1,81,DL_MelancholicFolk_Guitar,6,2,hanamokatanamoMelancholicFolk,0.9990057349205017,1
63,100,0.1,690,0,81,DL_MelancholicFolk_Guitar,6,2,hanamokatanamoMelancholicFolk,0.23119767010211945,0
53,100,0.35909090909090907,770,0,81,DL_MelancholicFolk_Guitar,6,6,hanamokatanamoMelancholicFolk,0.2659219801425934,0
53,100,0.12272727272727273,862,0,81,DL_MelancholicFolk_Guitar,6,2,hanamokatanamoMelancholicFolk,0.3541964888572693,0
53,100,0.5772727272727273,30,1,82,DL_MelancholicFolk_Guitar,6,9,hanamokatanamoMelancholicFolk,0.9983736276626587,1
53,100,0.21818181818181817,163,0,82,DL_MelancholicFolk_Guitar,6,3,hanamokatanamoMelancholicFolk,0.05106060951948166,0
60,100,0.5227272727272727,299,0,82,DL_MelancholicFolk_Guitar,6,8,hanamokatanamoMelancholicFolk,0.04130369797348976,0
60,100,0.36363636363636365,443,0,82,DL_MelancholicFolk_Guitar,6,6,hanamokatanamoMelancholicFolk,0.037387095391750336,0
53,100,0.2409090909090909,540,0,82,DL_MelancholicFolk_Guitar,6,4,hanamokatanamoMelancholicFolk,0.038329530507326126,0
58,100,0.2590909090909091,743,0,82,DL_MelancholicFolk_Guitar,6,4,hanamokatanamoMelancholicFolk,0.04475250840187073,0
58,100,0.18181818181818182,805,0,82,DL_MelancholicFolk_Guitar,6,3,hanamokatanamoMelancholicFolk,0.055230844765901566,0
53,100,0.7,857,0,82,DL_MelancholicFolk_Guitar,6,11,hanamokatanamoMelancholicFolk,0.09026284515857697,0
58,100,0.1,193,1,83,DL_MelancholicFolk_Guitar,6,2,hanamokatanamoMelancholicFolk,0.9990057349205017,1
65,100,0.759090909090909,453,1,83,DL_MelancholicFolk_Guitar,6,12,hanamokatanamoMelancholicFolk,0.23120097815990448,0
62,100,0.1409090909090909,800,1,83,DL_MelancholicFolk_Guitar,6,2,hanamokatanamoMelancholicFolk,0.2659258544445038,0
65,100,0.38181818181818183,849,0,83,DL_MelancholicFolk_Guitar,6,6,hanamokatanamoMelancholicFolk,0.35419961810112,0
58,100,0.3,330,1,84,DL_MelancholicFolk_Guitar,6,5,hanamokatanamoMelancholicFolk,0.9990057349205017,1
58,100,0.5181818181818182,502,0,84,DL_MelancholicFolk_Guitar,6,8,hanamokatanamoMelancholicFolk,0.23120315372943878,0
58,100,0.2590909090909091,637,0,84,DL_MelancholicFolk_Guitar,6,4,hanamokatanamoMelancholicFolk,0.26591941714286804,0
53,100,0.5818181818181818,726,0,84,DL_MelancholicFolk_Guitar,6,9,hanamokatanamoMelancholicFolk,0.35418882966041565,0
60,100,0.2590909090909091,30,1,85,DL_MelancholicFolk_Guitar,6,4,hanamokatanamoMelancholicFolk,0.9984880685806274,1
60,100,0.12272727272727273,100,0,85,DL_MelancholicFolk_Guitar,6,2,hanamokatanamoMelancholicFolk,0.06334579735994339,0
57,100,0.4818181818181818,166,0,85,DL_MelancholicFolk_Guitar,6,8,hanamokatanamoMelancholicFolk,0.057740695774555206,0
53,100,0.37727272727272726,316,0,85,DL_MelancholicFolk_Guitar,6,6,hanamokatanamoMelancholicFolk,0.06020120903849602,0
60,100,0.1590909090909091,417,0,85,DL_MelancholicFolk_Guitar,6,3,hanamokatanamoMelancholicFolk,0.06970293074846268,0
53,100,0.2409090909090909,470,0,85,DL_MelancholicFolk_Guitar,6,4,hanamokatanamoMelancholicFolk,0.08189226686954498,0
58,100,0.8818181818181818,817,1,85,DL_MelancholicFolk_Guitar,6,14,hanamokatanamoMelancholicFolk,0.12402059137821198,0
53,100,0.32272727272727275,136,1,86,DL_MelancholicFolk_Guitar,6,5,hanamokatanamoMelancholicFolk,0.9982553124427795,1
55,100,0.3181818181818182,220,0,86,DL_MelancholicFolk_Guitar,6,5,hanamokatanamoMelancholicFolk,0.041287634521722794,0
58,100,0.2409090909090909,339,0,86,DL_MelancholicFolk_Guitar,6,4,hanamokatanamoMelancholicFolk,0.028934545814990997,0
65,100,0.18181818181818182,509,0,86,DL_MelancholicFolk_Guitar,6,3,hanamokatanamoMelancholicFolk,0.021287372335791588,0
53,100,0.1409090909090909,550,0,86,DL_MelancholicFolk_Guitar,6,2,hanamokatanamoMelancholicFolk,0.016744358465075493,0
58,100,0.4590909090909091,612,0,86,DL_MelancholicFolk_Guitar,6,7,hanamokatanamoMelancholicFolk,0.014917591586709023,0
65,100,0.3181818181818182,713,0,86,DL_MelancholicFolk_Guitar,6,5,hanamokatanamoMelancholicFolk,0.01601504348218441,0
58,100,0.13636363636363635,810,0,86,DL_MelancholicFolk_Guitar,6,2,hanamokatanamoMelancholicFolk,0.021177763119339943,0
58,100,0.1,844,0,86,DL_MelancholicFolk_Guitar,6,2,hanamokatanamoMelancholicFolk,0.03156505525112152,0
65,100,0.11818181818181818,866,0,86,DL_MelancholicFolk_Guitar,6,2,hanamokatanamoMelancholicFolk,0.06005783751606941,0
58,100,0.6409090909090909,119,1,87,DL_MelancholicFolk_Guitar,6,10,hanamokatanamoMelancholicFolk,0.9990230798721313,1
53,100,0.759090909090909,633,1,87,DL_MelancholicFolk_Guitar,6,12,hanamokatanamoMelancholicFolk,0.3666154146194458,0
60,100,0.6772727272727272,810,0,87,DL_MelancholicFolk_Guitar,6,11,hanamokatanamoMelancholicFolk,0.4532860517501831,0
57,100,0.2,87,1,88,DL_MelancholicFolk_Guitar,6,3,hanamokatanamoMelancholicFolk,0.9984880685806274,1
57,100,0.37727272727272726,140,0,88,DL_MelancholicFolk_Guitar,6,6,hanamokatanamoMelancholicFolk,0.06334393471479416,0
60,100,0.12272727272727273,223,0,88,DL_MelancholicFolk_Guitar,6,2,hanamokatanamoMelancholicFolk,0.05774121731519699,0
60,100,0.5772727272727273,273,0,88,DL_MelancholicFolk_Guitar,6,9,hanamokatanamoMelancholicFolk,0.06020144373178482,0
53,100,0.7227272727272728,399,0,88,DL_MelancholicFolk_Guitar,6,12,hanamokatanamoMelancholicFolk,0.0697004422545433,0
53,100,0.759090909090909,624,0,88,DL_MelancholicFolk_Guitar,6,12,hanamokatanamoMelancholicFolk,0.08189133554697037,0
58,100,0.2772727272727273,832,0,88,DL_MelancholicFolk_Guitar,6,4,hanamokatanamoMelancholicFolk,0.12402107566595078,0
53,100,0.38181818181818183,22,1,89,DL_MelancholicFolk_Guitar,6,6,hanamokatanamoMelancholicFolk,0.9983736276626587,1
58,100,0.2409090909090909,140,0,89,DL_MelancholicFolk_Guitar,6,4,hanamokatanamoMelancholicFolk,0.05106145143508911,0
60,100,0.4,250,0,89,DL_MelancholicFolk_Guitar,6,6,hanamokatanamoMelancholicFolk,0.041302941739559174,0
58,100,0.18181818181818182,343,0,89,DL_MelancholicFolk_Guitar,6,3,hanamokatanamoMelancholicFolk,0.037385426461696625,0
58,100,0.5,386,0,89,DL_MelancholicFolk_Guitar,6,8,hanamokatanamoMelancholicFolk,0.03832872211933136,0
60,100,0.1409090909090909,559,0,89,DL_MelancholicFolk_Guitar,6,2,hanamokatanamoMelancholicFolk,0.04474997892975807,0
60,100,0.9818181818181818,637,0,89,DL_MelancholicFolk_Guitar,6,15,hanamokatanamoMelancholicFolk,0.05522618815302849,0
60,100,0.5590909090909091,866,0,89,DL_MelancholicFolk_Guitar,6,9,hanamokatanamoMelancholicFolk,0.0902649462223053,0
53,100,0.33636363636363636,260,1,90,DL_MelancholicFolk_Guitar,6,5,hanamokatanamoMelancholicFolk,0.9984880685806274,1
57,100,0.6181818181818182,436,0,90,DL_MelancholicFolk_Guitar,6,10,hanamokatanamoMelancholicFolk,0.06334353983402252,0
53,100,0.22272727272727272,585,0,90,DL_MelancholicFolk_Guitar,6,4,hanamokatanamoMelancholicFolk,0.05773991346359253,0
53,100,0.3,660,0,90,DL_MelancholicFolk_Guitar,6,5,hanamokatanamoMelancholicFolk,0.060198623687028885,0
60,100,0.11818181818181818,726,0,90,DL_MelancholicFolk_Guitar,6,2,hanamokatanamoMelancholicFolk,0.06969860196113586,0
53,100,0.1,770,0,90,DL_MelancholicFolk_Guitar,6,2,hanamokatanamoMelancholicFolk,0.08188846707344055,0
60,100,0.16363636363636364,862,0,90,DL_MelancholicFolk_Guitar,6,3,hanamokatanamoMelancholicFolk,0.12401670217514038,0
60,100,0.5636363636363636,26,1,91,DL_MelancholicFolk_Guitar,6,9,hanamokatanamoMelancholicFolk,0.9983736276626587,1
60,100,0.1,153,0,91,DL_MelancholicFolk_Guitar,6,2,hanamokatanamoMelancholicFolk,0.051060233265161514,0
53,100,0.1409090909090909,286,0,91,DL_MelancholicFolk_Guitar,6,2,hanamokatanamoMelancholicFolk,0.041301727294921875,0
58,100,0.5181818181818182,396,0,91,DL_MelancholicFolk_Guitar,6,8,hanamokatanamoMelancholicFolk,0.037383560091257095,0
58,100,0.12272727272727273,576,0,91,DL_MelancholicFolk_Guitar,6,2,hanamokatanamoMelancholicFolk,0.0383274219930172,0
58,100,0.32272727272727275,606,0,91,DL_MelancholicFolk_Guitar,6,5,hanamokatanamoMelancholicFolk,0.04474767670035362,0
53,100,0.13636363636363635,677,0,91,DL_MelancholicFolk_Guitar,6,2,hanamokatanamoMelancholicFolk,0.05522496625781059,0
58,100,0.2,707,0,91,DL_MelancholicFolk_Guitar,6,3,hanamokatanamoMelancholicFolk,0.0902605652809143,0
58,100,0.2590909090909091,96,1,92,DL_MelancholicFolk_Guitar,6,4,hanamokatanamoMelancholicFolk,0.9984880685806274,1
58,100,0.2,202,0,92,DL_MelancholicFolk_Guitar,6,3,hanamokatanamoMelancholicFolk,0.06334492564201355,0
53,100,0.1,440,1,92,DL_MelancholicFolk_Guitar,6,2,hanamokatanamoMelancholicFolk,0.05774153023958206,0
65,100,0.3181818181818182,462,0,92,DL_MelancholicFolk_Guitar,6,5,hanamokatanamoMelancholicFolk,0.060200173407793045,0
53,100,0.1,593,0,92,DL_MelancholicFolk_Guitar,6,2,hanamokatanamoMelancholicFolk,0.06970107555389404,0
65,100,0.17727272727272728,624,0,92,DL_MelancholicFolk_Guitar,6,3,hanamokatanamoMelancholicFolk,0.08189431577920914,0
57,100,0.3,783,0,92,DL_MelancholicFolk_Guitar,6,5,hanamokatanamoMelancholicFolk,0.12401721626520157,0
53,100,0.6,179,1,93,DL_MelancholicFolk_Guitar,6,10,hanamokatanamoMelancholicFolk,0.9988419413566589,1
65,100,0.4409090909090909,312,0,93,DL_MelancholicFolk_Guitar,6,7,hanamokatanamoMelancholicFolk,0.1372448056936264,0
57,100,0.3409090909090909,453,0,93,DL_MelancholicFolk_Guitar,6,5,hanamokatanamoMelancholicFolk,0.1597740650177002,0
57,100,0.3409090909090909,559,0,93,DL_MelancholicFolk_Guitar,6,5,hanamokatanamoMelancholicFolk,0.18644186854362488,0
60,100,0.9181818181818182,633,0,93,DL_MelancholicFolk_Guitar,6,15,hanamokatanamoMelancholicFolk,0.2581668198108673,0
53,100,0.18181818181818182,113,1,94,DL_MelancholicFolk_Guitar,6,3,hanamokatanamoMelancholicFolk,0.9988419413566589,1
65,100,0.2772727272727273,163,0,94,DL_MelancholicFolk_Guitar,6,4,hanamokatanamoMelancholicFolk,0.13724462687969208,0
65,100,0.11818181818181818,237,0,94,DL_MelancholicFolk_Guitar,6,2,hanamokatanamoMelancholicFolk,0.15977723896503448,0
53,100,0.11818181818181818,603,1,94,DL_MelancholicFolk_Guitar,6,2,hanamokatanamoMelancholicFolk,0.18644295632839203,0
65,100,0.2590909090909091,633,0,94,DL_MelancholicFolk_Guitar,6,4,hanamokatanamoMelancholicFolk,0.25816643238067627,0
65,100,0.3,440,1,95,DL_MelancholicFolk_Guitar,6,5,hanamokatanamoMelancholicFolk,0.9990057349205017,1
53,100,0.38181818181818183,540,0,95,DL_MelancholicFolk_Guitar,6,6,hanamokatanamoMelancholicFolk,0.23120053112506866,0
53,100,0.2,663,0,95,DL_MelancholicFolk_Guitar,6,3,hanamokatanamoMelancholicFolk,0.2659137547016144,0
60,100,0.9636363636363636,796,0,95,DL_MelancholicFolk_Guitar,6,15,hanamokatanamoMelancholicFolk,0.354191392660141,0
53,100,0.9,166,1,96,DL_MelancholicFolk_Guitar,6,14,hanamokatanamoMelancholicFolk,0.9990229606628418,1
60,100,0.2772727272727273,404,1,96,DL_MelancholicFolk_Guitar,6,4,hanamokatanamoMelancholicFolk,0.3666263222694397,0
60,100,1.3590909090909091,470,0,96,DL_MelancholicFolk_Guitar,6,15,hanamokatanamoMelancholicFolk,0.453278511762619,0
53,100,0.7,40,1,97,DL_MelancholicFolk_Guitar,6,11,hanamokatanamoMelancholicFolk,0.9990057349205017,1
65,100,0.1,193,0,97,DL_MelancholicFolk_Guitar,6,2,hanamokatanamoMelancholicFolk,0.231204092502594,0
63,100,0.2,783,1,97,DL_MelancholicFolk_Guitar,6,3,hanamokatanamoMelancholicFolk,0.26591476798057556,0
53,100,0.1590909090909091,849,0,97,DL_MelancholicFolk_Guitar,6,3,hanamokatanamoMelancholicFolk,0.35419759154319763,0
57,100,0.1409090909090909,74,1,98,DL_MelancholicFolk_Guitar,6,2,hanamokatanamoMelancholicFolk,0.9984880685806274,1
53,100,0.1409090909090909,145,0,98,DL_MelancholicFolk_Guitar,6,2,hanamokatanamoMelancholicFolk,0.06334302574396133,0
60,100,0.35909090909090907,216,0,98,DL_MelancholicFolk_Guitar,6,6,hanamokatanamoMelancholicFolk,0.05774049833416939,0
60,100,0.11818181818181818,404,0,98,DL_MelancholicFolk_Guitar,6,2,hanamokatanamoMelancholicFolk,0.060199178755283356,0
53,100,0.4590909090909091,470,0,98,DL_MelancholicFolk_Guitar,6,7,hanamokatanamoMelancholicFolk,0.06969738006591797,0
53,100,0.5,629,0,98,DL_MelancholicFolk_Guitar,6,8,hanamokatanamoMelancholicFolk,0.08189048618078232,0
65,100,0.2,810,0,98,DL_MelancholicFolk_Guitar,6,3,hanamokatanamoMelancholicFolk,0.12401609122753143,0
53,100,0.2,74,1,99,DL_MelancholicFolk_Guitar,6,3,hanamokatanamoMelancholicFolk,0.9990057349205017,1
65,100,0.3181818181818182,119,0,99,DL_MelancholicFolk_Guitar,6,5,hanamokatanamoMelancholicFolk,0.231204554438591,0
58,100,0.33636363636363636,237,0,99,DL_MelancholicFolk_Guitar,6,5,hanamokatanamoMelancholicFolk,0.26592332124710083,0
62,100,0.9590909090909091,506,1,99,DL_MelancholicFolk_Guitar,6,15,hanamokatanamoMelancholicFolk,0.3541935980319977,0
53,100,0.1590909090909091,0,1,100,DL_MelancholicFolk_Guitar,6,3,hanamokatanamoMelancholicFolk,0.9990057349205017,1
58,100,0.12272727272727273,35,0,100,DL_MelancholicFolk_Guitar,6,2,hanamokatanamoMelancholicFolk,0.23120488226413727,0
58,100,0.2,716,1,100,DL_MelancholicFolk_Guitar,6,3,hanamokatanamoMelancholicFolk,0.265914648771286,0
53,100,0.35909090909090907,810,0,100,DL_MelancholicFolk_Guitar,6,6,hanamokatanamoMelancholicFolk,0.3541930019855499,0
60,100,0.3,176,1,101,DL_MelancholicFolk_Guitar,6,5,hanamokatanamoMelancholicFolk,0.9986500144004822,1
53,100,0.2772727272727273,250,0,101,DL_MelancholicFolk_Guitar,6,4,hanamokatanamoMelancholicFolk,0.0878027081489563,0
60,100,0.12272727272727273,333,0,101,DL_MelancholicFolk_Guitar,6,2,hanamokatanamoMelancholicFolk,0.09181246906518936,0
53,100,0.4409090909090909,386,0,101,DL_MelancholicFolk_Guitar,6,7,hanamokatanamoMelancholicFolk,0.10747600346803665,0
53,100,0.16363636363636364,576,0,101,DL_MelancholicFolk_Guitar,6,3,hanamokatanamoMelancholicFolk,0.12482781708240509,0
58,100,0.5181818181818182,770,0,101,DL_MelancholicFolk_Guitar,6,8,hanamokatanamoMelancholicFolk,0.17902928590774536,0
58,100,0.2,43,1,102,DL_MelancholicFolk_Guitar,6,3,hanamokatanamoMelancholicFolk,0.9982553124427795,1
58,100,0.2409090909090909,123,0,102,DL_MelancholicFolk_Guitar,6,4,hanamokatanamoMelancholicFolk,0.04128706827759743,0
53,100,0.12272727272727273,255,0,102,DL_MelancholicFolk_Guitar,6,2,hanamokatanamoMelancholicFolk,0.028934011235833168,0
58,100,0.5409090909090909,286,0,102,DL_MelancholicFolk_Guitar,6,9,hanamokatanamoMelancholicFolk,0.021287355571985245,0
53,100,0.2590909090909091,417,0,102,DL_MelancholicFolk_Guitar,6,4,hanamokatanamoMelancholicFolk,0.016743982210755348,0
58,100,0.23636363636363636,502,0,102,DL_MelancholicFolk_Guitar,6,4,hanamokatanamoMelancholicFolk,0.014917354099452496,0
65,100,0.17727272727272728,590,0,102,DL_MelancholicFolk_Guitar,6,3,hanamokatanamoMelancholicFolk,0.016014743596315384,0
53,100,0.3409090909090909,629,0,102,DL_MelancholicFolk_Guitar,6,5,hanamokatanamoMelancholicFolk,0.021178405731916428,0
58,100,0.3,716,0,102,DL_MelancholicFolk_Guitar,6,5,hanamokatanamoMelancholicFolk,0.03156626597046852,0
65,100,0.17727272727272728,800,0,102,DL_MelancholicFolk_Guitar,6,3,hanamokatanamoMelancholicFolk,0.060059379786252975,0
65,100,0.16363636363636364,686,1,103,DL_MelancholicFolk_Guitar,6,3,hanamokatanamoMelancholicFolk,0.9983165264129639,1
53,100,0.2409090909090909,726,0,103,DL_MelancholicFolk_Guitar,6,4,hanamokatanamoMelancholicFolk,0.5445562601089478,0
60,100,0.2590909090909091,110,1,104,DL_MelancholicFolk_Guitar,6,4,hanamokatanamoMelancholicFolk,0.9983004927635193,1
53,100,0.1,172,0,104,DL_MelancholicFolk_Guitar,6,2,hanamokatanamoMelancholicFolk,0.04466306418180466,0
65,100,0.32272727272727275,255,0,104,DL_MelancholicFolk_Guitar,6,5,hanamokatanamoMelancholicFolk,0.03314923867583275,0
53,100,0.2818181818181818,343,0,104,DL_MelancholicFolk_Guitar,6,5,hanamokatanamoMelancholicFolk,0.02657848596572876,0
65,100,0.1409090909090909,409,0,104,DL_MelancholicFolk_Guitar,6,2,hanamokatanamoMelancholicFolk,0.023593757301568985,0
65,100,0.18181818181818182,443,0,104,DL_MelancholicFolk_Guitar,6,3,hanamokatanamoMelancholicFolk,0.024313658475875854,0
62,100,0.42272727272727273,563,0,104,DL_MelancholicFolk_Guitar,6,7,hanamokatanamoMelancholicFolk,0.0296871867030859,0
62,100,0.1590909090909091,660,0,104,DL_MelancholicFolk_Guitar,6,3,hanamokatanamoMelancholicFolk,0.040075141936540604,0
65,100,1.440909090909091,713,0,104,DL_MelancholicFolk_Guitar,6,15,hanamokatanamoMelancholicFolk,0.07092452794313431,0
65,100,0.9409090909090909,163,1,105,DL_MelancholicFolk_Guitar,6,15,hanamokatanamoMelancholicFolk,0.9990229606628418,1
62,100,0.1409090909090909,713,1,105,DL_MelancholicFolk_Guitar,6,2,hanamokatanamoMelancholicFolk,0.36663708090782166,0
53,100,0.6590909090909091,747,0,105,DL_MelancholicFolk_Guitar,6,11,hanamokatanamoMelancholicFolk,0.4532892405986786,0
53,100,0.18181818181818182,673,1,106,DL_MelancholicFolk_Guitar,6,3,hanamokatanamoMelancholicFolk,0.9990229606628418,1
57,100,0.18181818181818182,726,0,106,DL_MelancholicFolk_Guitar,6,3,hanamokatanamoMelancholicFolk,0.3666225075721741,0
60,100,0.6409090909090909,844,0,106,DL_MelancholicFolk_Guitar,6,10,hanamokatanamoMelancholicFolk,0.4532901644706726,0
53,100,0.11818181818181818,119,1,107,DL_MelancholicFolk_Guitar,6,2,hanamokatanamoMelancholicFolk,0.9986500144004822,1
60,100,0.7772727272727272,250,0,107,DL_MelancholicFolk_Guitar,6,12,hanamokatanamoMelancholicFolk,0.08780229836702347,0
53,100,0.2590909090909091,430,0,107,DL_MelancholicFolk_Guitar,6,4,hanamokatanamoMelancholicFolk,0.09181028604507446,0
65,100,0.1409090909090909,487,0,107,DL_MelancholicFolk_Guitar,6,2,hanamokatanamoMelancholicFolk,0.10747534781694412,0
58,100,0.1590909090909091,677,0,107,DL_MelancholicFolk_Guitar,6,3,hanamokatanamoMelancholicFolk,0.12482395023107529,0
53,100,0.2590909090909091,747,0,107,DL_MelancholicFolk_Guitar,6,4,hanamokatanamoMelancholicFolk,0.17902758717536926,0
65,100,0.36363636363636365,113,1,108,DL_MelancholicFolk_Guitar,6,6,hanamokatanamoMelancholicFolk,0.9988419413566589,1
58,100,0.12272727272727273,386,1,108,DL_MelancholicFolk_Guitar,6,2,hanamokatanamoMelancholicFolk,0.13725145161151886,0
53,100,0.16363636363636364,686,1,108,DL_MelancholicFolk_Guitar,6,3,hanamokatanamoMelancholicFolk,0.15977711975574493,0
65,100,0.2772727272727273,766,0,108,DL_MelancholicFolk_Guitar,6,4,hanamokatanamoMelancholicFolk,0.18645204603672028,0
65,100,0.1409090909090909,857,0,108,DL_MelancholicFolk_Guitar,6,2,hanamokatanamoMelancholicFolk,0.2581630349159241,0
65,100,0.1409090909090909,396,1,109,DL_MelancholicFolk_Guitar,6,2,hanamokatanamoMelancholicFolk,0.9984880685806274,1
65,100,0.2590909090909091,475,0,109,DL_MelancholicFolk_Guitar,6,4,hanamokatanamoMelancholicFolk,0.06334373354911804,0
65,100,0.2,553,0,109,DL_MelancholicFolk_Guitar,6,3,hanamokatanamoMelancholicFolk,0.05774087458848953,0
53,100,0.2,597,0,109,DL_MelancholicFolk_Guitar,6,3,hanamokatanamoMelancholicFolk,0.060200974345207214,0
60,100,0.4590909090909091,650,0,109,DL_MelancholicFolk_Guitar,6,7,hanamokatanamoMelancholicFolk,0.06970170140266418,0
53,100,0.3409090909090909,779,0,109,DL_MelancholicFolk_Guitar,6,5,hanamokatanamoMelancholicFolk,0.08189251273870468,0
53,100,0.1590909090909091,857,0,109,DL_MelancholicFolk_Guitar,6,3,hanamokatanamoMelancholicFolk,0.12401924282312393,0
53,100,0.5181818181818182,43,1,110,DL_MelancholicFolk_Guitar,6,8,hanamokatanamoMelancholicFolk,0.9988419413566589,1
53,100,0.6636363636363637,179,0,110,DL_MelancholicFolk_Guitar,6,11,hanamokatanamoMelancholicFolk,0.1372433304786682,0
53,100,0.2772727272727273,370,0,110,DL_MelancholicFolk_Guitar,6,4,hanamokatanamoMelancholicFolk,0.15977360308170319,0
58,100,0.6818181818181818,443,0,110,DL_MelancholicFolk_Guitar,6,11,hanamokatanamoMelancholicFolk,0.18644560873508453,0
58,100,0.2,853,1,110,DL_MelancholicFolk_Guitar,6,3,hanamokatanamoMelancholicFolk,0.2581632137298584,0
65,100,0.17727272727272728,40,1,111,DL_MelancholicFolk_Guitar,6,3,hanamokatanamoMelancholicFolk,0.9983003735542297,1
65,100,0.11818181818181818,83,0,111,DL_MelancholicFolk_Guitar,6,2,hanamokatanamoMelancholicFolk,0.04466351121664047,0
65,100,0.4590909090909091,193,0,111,DL_MelancholicFolk_Guitar,6,7,hanamokatanamoMelancholicFolk,0.03314825892448425,0
58,100,0.1590909090909091,409,0,111,DL_MelancholicFolk_Guitar,6,3,hanamokatanamoMelancholicFolk,0.026578476652503014,0
58,100,0.6,493,0,111,DL_MelancholicFolk_Guitar,6,10,hanamokatanamoMelancholicFolk,0.02359338477253914,0
53,100,0.1409090909090909,624,0,111,DL_MelancholicFolk_Guitar,6,2,hanamokatanamoMelancholicFolk,0.024312324821949005,0
58,100,0.1590909090909091,656,0,111,DL_MelancholicFolk_Guitar,6,3,hanamokatanamoMelancholicFolk,0.029688335955142975,0
65,100,0.1590909090909091,690,0,111,DL_MelancholicFolk_Guitar,6,3,hanamokatanamoMelancholicFolk,0.04007350653409958,0
58,100,0.1590909090909091,726,0,111,DL_MelancholicFolk_Guitar,6,3,hanamokatanamoMelancholicFolk,0.07092809677124023,0
65,100,0.11818181818181818,263,1,112,DL_MelancholicFolk_Guitar,6,2,hanamokatanamoMelancholicFolk,0.9988419413566589,1
53,100,0.16363636363636364,532,1,112,DL_MelancholicFolk_Guitar,6,3,hanamokatanamoMelancholicFolk,0.13724569976329803,0
53,100,0.5590909090909091,593,0,112,DL_MelancholicFolk_Guitar,6,9,hanamokatanamoMelancholicFolk,0.1597735434770584,0
65,100,0.12272727272727273,817,0,112,DL_MelancholicFolk_Guitar,6,2,hanamokatanamoMelancholicFolk,0.18644864857196808,0
65,100,0.1409090909090909,849,0,112,DL_MelancholicFolk_Guitar,6,2,hanamokatanamoMelancholicFolk,0.2581610381603241,0
53,100,0.2590909090909091,0,1,113,DL_MelancholicFolk_Guitar,6,4,hanamokatanamoMelancholicFolk,0.9983003735542297,1
65,100,0.2409090909090909,56,0,113,DL_MelancholicFolk_Guitar,6,4,hanamokatanamoMelancholicFolk,0.04466351121664047,0
53,100,0.41818181818181815,110,0,113,DL_MelancholicFolk_Guitar,6,7,hanamokatanamoMelancholicFolk,0.03314819559454918,0
65,100,0.17727272727272728,206,0,113,DL_MelancholicFolk_Guitar,6,3,hanamokatanamoMelancholicFolk,0.02657860703766346,0
65,100,0.18181818181818182,307,0,113,DL_MelancholicFolk_Guitar,6,3,hanamokatanamoMelancholicFolk,0.023592999204993248,0
65,100,0.21818181818181817,352,0,113,DL_MelancholicFolk_Guitar,6,3,hanamokatanamoMelancholicFolk,0.02431241236627102,0
58,100,0.5227272727272727,399,0,113,DL_MelancholicFolk_Guitar,6,8,hanamokatanamoMelancholicFolk,0.0296880342066288,0
53,100,0.2409090909090909,624,0,113,DL_MelancholicFolk_Guitar,6,4,hanamokatanamoMelancholicFolk,0.040074560791254044,0
65,100,0.6227272727272727,783,0,113,DL_MelancholicFolk_Guitar,6,10,hanamokatanamoMelancholicFolk,0.0709235742688179,0
58,100,0.2,145,1,114,DL_MelancholicFolk_Guitar,6,3,hanamokatanamoMelancholicFolk,0.9986500144004822,1
58,100,0.8,220,0,114,DL_MelancholicFolk_Guitar,6,13,hanamokatanamoMelancholicFolk,0.08780243247747421,0
58,100,0.6227272727272727,409,0,114,DL_MelancholicFolk_Guitar,6,10,hanamokatanamoMelancholicFolk,0.09181059896945953,0
53,100,0.1,553,0,114,DL_MelancholicFolk_Guitar,6,2,hanamokatanamoMelancholicFolk,0.10747390240430832,0
65,100,0.1,673,0,114,DL_MelancholicFolk_Guitar,6,2,hanamokatanamoMelancholicFolk,0.1248205229640007,0
65,100,0.2636363636363636,729,0,114,DL_MelancholicFolk_Guitar,6,4,hanamokatanamoMelancholicFolk,0.17903068661689758,0
60,100,0.2636363636363636,487,1,115,DL_MelancholicFolk_Guitar,6,4,hanamokatanamoMelancholicFolk,0.9983165264129639,1
60,100,0.23636363636363636,787,1,115,DL_MelancholicFolk_Guitar,6,4,hanamokatanamoMelancholicFolk,0.5445598363876343,0
60,100,0.23636363636363636,656,1,116,DL_MelancholicFolk_Guitar,6,4,hanamokatanamoMelancholicFolk,0.9983165264129639,1
60,100,2.7,734,0,116,DL_MelancholicFolk_Guitar,6,15,hanamokatanamoMelancholicFolk,0.5445433855056763,0
65,100,0.2409090909090909,92,1,118,DL_MelancholicFolk_Guitar,6,4,hanamokatanamoMelancholicFolk,0.9990229606628418,1
65,100,0.35909090909090907,176,0,118,DL_MelancholicFolk_Guitar,6,6,hanamokatanamoMelancholicFolk,0.3666205406188965,0
65,100,0.11818181818181818,734,1,118,DL_MelancholicFolk_Guitar,6,2,hanamokatanamoMelancholicFolk,0.453291654586792,0
65,100,0.5,210,1,119,DL_MelancholicFolk_Guitar,6,8,hanamokatanamoMelancholicFolk,0.9983165264129639,1
65,100,0.2409090909090909,483,1,119,DL_MelancholicFolk_Guitar,6,4,hanamokatanamoMelancholicFolk,0.5445565581321716,0
65,100,2.7181818181818183,426,1,120,DL_MelancholicFolk_Guitar,6,15,hanamokatanamoMelancholicFolk,0.9792543649673462,1
53,100,0.2818181818181818,510,1,0,DL_heartfullpop_2_Guitar,6,5,koumou_heartfullpop_ruriko,0.9988419413566589,1
60,100,0.1409090909090909,673,0,0,DL_heartfullpop_2_Guitar,6,2,koumou_heartfullpop_ruriko,0.1372472047805786,0
60,100,0.16363636363636364,708,0,0,DL_heartfullpop_2_Guitar,6,3,koumou_heartfullpop_ruriko,0.15977641940116882,0
60,100,0.2,748,0,0,DL_heartfullpop_2_Guitar,6,3,koumou_heartfullpop_ruriko,0.18644379079341888,0
60,100,0.1,801,0,0,DL_heartfullpop_2_Guitar,6,2,koumou_heartfullpop_ruriko,0.2581656277179718,0
60,100,0.1590909090909091,343,1,1,DL_heartfullpop_2_Guitar,6,3,koumou_heartfullpop_ruriko,0.9990230798721313,1
60,100,0.3,695,1,1,DL_heartfullpop_2_Guitar,6,5,koumou_heartfullpop_ruriko,0.36662375926971436,0
53,100,0.16363636363636364,796,0,1,DL_heartfullpop_2_Guitar,6,3,koumou_heartfullpop_ruriko,0.45328617095947266,0
60,100,0.21818181818181817,106,1,2,DL_heartfullpop_2_Guitar,6,3,koumou_heartfullpop_ruriko,0.9990057349205017,1
60,100,0.3409090909090909,616,1,2,DL_heartfullpop_2_Guitar,6,5,koumou_heartfullpop_ruriko,0.23119792342185974,0
53,100,0.12272727272727273,694,0,2,DL_heartfullpop_2_Guitar,6,2,koumou_heartfullpop_ruriko,0.26592138409614563,0
60,100,0.3,761,0,2,DL_heartfullpop_2_Guitar,6,5,koumou_heartfullpop_ruriko,0.35419365763664246,0
65,100,0.21818181818181817,43,1,4,DL_heartfullpop_2_Guitar,6,3,koumou_heartfullpop_ruriko,0.9983165264129639,1
53,100,0.13636363636363635,875,1,4,DL_heartfullpop_2_Guitar,6,2,koumou_heartfullpop_ruriko,0.5445523858070374,0
65,100,0.21818181818181817,40,1,5,DL_heartfullpop_2_Guitar,6,3,koumou_heartfullpop_ruriko,0.9988419413566589,1
65,100,0.2409090909090909,189,0,5,DL_heartfullpop_2_Guitar,6,4,koumou_heartfullpop_ruriko,0.1372438371181488,0
58,100,0.2,391,0,5,DL_heartfullpop_2_Guitar,6,3,koumou_heartfullpop_ruriko,0.15977460145950317,0
53,100,0.1590909090909091,721,1,5,DL_heartfullpop_2_Guitar,6,3,koumou_heartfullpop_ruriko,0.18644534051418304,0
53,100,0.4409090909090909,770,0,5,DL_heartfullpop_2_Guitar,6,7,koumou_heartfullpop_ruriko,0.25815528631210327,0
53,100,0.1590909090909091,150,1,6,DL_heartfullpop_2_Guitar,6,3,koumou_heartfullpop_ruriko,0.9986500144004822,1
53,100,0.17727272727272728,545,1,6,DL_heartfullpop_2_Guitar,6,3,koumou_heartfullpop_ruriko,0.08779968321323395,0
53,100,0.12272727272727273,598,0,6,DL_heartfullpop_2_Guitar,6,2,koumou_heartfullpop_ruriko,0.09181103855371475,0
53,100,0.11818181818181818,721,0,6,DL_heartfullpop_2_Guitar,6,2,koumou_heartfullpop_ruriko,0.10747392475605011,0
65,100,0.1,774,0,6,DL_heartfullpop_2_Guitar,6,2,koumou_heartfullpop_ruriko,0.12482137978076935,0
53,100,0.11818181818181818,801,0,6,DL_heartfullpop_2_Guitar,6,2,koumou_heartfullpop_ruriko,0.17902669310569763,0
53,100,0.38181818181818183,506,1,7,DL_heartfullpop_2_Guitar,6,6,koumou_heartfullpop_ruriko,0.979256272315979,1
65,100,0.1,0,1,8,DL_heartfullpop_2_Guitar,6,2,koumou_heartfullpop_ruriko,0.9792561531066895,0
65,100,0.21818181818181817,171,1,9,DL_heartfullpop_2_Guitar,6,3,koumou_heartfullpop_ruriko,0.9792560338973999,0
53,100,0.3409090909090909,13,1,10,DL_heartfullpop_2_Guitar,6,5,koumou_heartfullpop_ruriko,0.9984880685806274,1
53,100,0.4,118,0,10,DL_heartfullpop_2_Guitar,6,6,koumou_heartfullpop_ruriko,0.06334435939788818,0
60,100,0.4772727272727273,216,0,10,DL_heartfullpop_2_Guitar,6,8,koumou_heartfullpop_ruriko,0.05774276703596115,0
60,100,0.5590909090909091,391,0,10,DL_heartfullpop_2_Guitar,6,9,koumou_heartfullpop_ruriko,0.06020166724920273,0
53,100,0.23636363636363636,524,0,10,DL_heartfullpop_2_Guitar,6,4,koumou_heartfullpop_ruriko,0.06970152258872986,0
60,100,0.5409090909090909,584,0,10,DL_heartfullpop_2_Guitar,6,9,koumou_heartfullpop_ruriko,0.08189613372087479,0
53,100,0.3,756,0,10,DL_heartfullpop_2_Guitar,6,5,koumou_heartfullpop_ruriko,0.12402097135782242,0
53,100,0.2772727272727273,17,1,11,DL_heartfullpop_2_Guitar,6,4,koumou_heartfullpop_ruriko,0.9986500144004822,1
65,100,0.1590909090909091,79,0,11,DL_heartfullpop_2_Guitar,6,3,koumou_heartfullpop_ruriko,0.08780156075954437,0
53,100,0.12272727272727273,113,0,11,DL_heartfullpop_2_Guitar,6,2,koumou_heartfullpop_ruriko,0.09181209653615952,0
53,100,0.3181818181818182,149,0,11,DL_heartfullpop_2_Guitar,6,5,koumou_heartfullpop_ruriko,0.10747583955526352,0
60,100,0.5363636363636364,281,0,11,DL_heartfullpop_2_Guitar,6,9,koumou_heartfullpop_ruriko,0.12482432276010513,0
60,100,0.1,422,0,11,DL_heartfullpop_2_Guitar,6,2,koumou_heartfullpop_ruriko,0.17903190851211548,0
57,100,0.5,61,1,12,DL_heartfullpop_2_Guitar,6,8,koumou_heartfullpop_ruriko,0.9988419413566589,1
62,100,0.2,206,0,12,DL_heartfullpop_2_Guitar,6,3,koumou_heartfullpop_ruriko,0.1372469663619995,0
61,100,0.1409090909090909,250,0,12,DL_heartfullpop_2_Guitar,6,2,koumou_heartfullpop_ruriko,0.15977565944194794,0
53,100,0.3181818181818182,307,0,12,DL_heartfullpop_2_Guitar,6,5,koumou_heartfullpop_ruriko,0.18643952906131744,0
58,100,0.5181818181818182,594,1,12,DL_heartfullpop_2_Guitar,6,8,koumou_heartfullpop_ruriko,0.2581618130207062,0
58,100,0.2409090909090909,233,1,13,DL_heartfullpop_2_Guitar,6,4,koumou_heartfullpop_ruriko,0.9983165264129639,1
53,100,0.21818181818181817,589,1,13,DL_heartfullpop_2_Guitar,6,3,koumou_heartfullpop_ruriko,0.5445497632026672,0
53,100,0.22272727272727272,708,1,14,DL_heartfullpop_2_Guitar,6,4,koumou_heartfullpop_ruriko,0.9990229606628418,1
60,100,0.2409090909090909,773,0,14,DL_heartfullpop_2_Guitar,6,4,koumou_heartfullpop_ruriko,0.36662691831588745,0
60,100,0.23636363636363636,831,0,14,DL_heartfullpop_2_Guitar,6,4,koumou_heartfullpop_ruriko,0.45329225063323975,0
53,100,0.2409090909090909,70,1,15,DL_heartfullpop_2_Guitar,6,4,koumou_heartfullpop_ruriko,0.9983736276626587,1
53,100,0.42272727272727273,158,0,15,DL_heartfullpop_2_Guitar,6,7,koumou_heartfullpop_ruriko,0.05106060206890106,0
53,100,0.35909090909090907,254,0,15,DL_heartfullpop_2_Guitar,6,6,koumou_heartfullpop_ruriko,0.04130231961607933,0
53,100,0.35909090909090907,391,0,15,DL_heartfullpop_2_Guitar,6,6,koumou_heartfullpop_ruriko,0.0373845100402832,0
60,100,0.33636363636363636,656,1,15,DL_heartfullpop_2_Guitar,6,5,koumou_heartfullpop_ruriko,0.038328688591718674,0
60,100,0.11818181818181818,756,0,15,DL_heartfullpop_2_Guitar,6,2,koumou_heartfullpop_ruriko,0.044750187546014786,0
60,100,0.1,840,0,15,DL_heartfullpop_2_Guitar,6,2,koumou_heartfullpop_ruriko,0.05522662401199341,0
60,100,0.1409090909090909,866,0,15,DL_heartfullpop_2_Guitar,6,2,koumou_heartfullpop_ruriko,0.09026236087083817,0
53,100,0.22272727272727272,26,1,16,DL_heartfullpop_2_Guitar,6,4,koumou_heartfullpop_ruriko,0.9983003735542297,1
60,100,0.12272727272727273,92,0,16,DL_heartfullpop_2_Guitar,6,2,koumou_heartfullpop_ruriko,0.04466477036476135,0
60,100,0.2590909090909091,220,0,16,DL_heartfullpop_2_Guitar,6,4,koumou_heartfullpop_ruriko,0.033149223774671555,0
60,100,0.18181818181818182,308,0,16,DL_heartfullpop_2_Guitar,6,3,koumou_heartfullpop_ruriko,0.026579178869724274,0
53,100,0.21818181818181817,347,0,16,DL_heartfullpop_2_Guitar,6,3,koumou_heartfullpop_ruriko,0.023594098165631294,0
60,100,0.17727272727272728,501,0,16,DL_heartfullpop_2_Guitar,6,3,koumou_heartfullpop_ruriko,0.024314122274518013,0
53,100,0.35909090909090907,540,0,16,DL_heartfullpop_2_Guitar,6,6,koumou_heartfullpop_ruriko,0.029688691720366478,0
53,100,0.4,669,0,16,DL_heartfullpop_2_Guitar,6,6,koumou_heartfullpop_ruriko,0.04007554426789284,0
65,100,0.2409090909090909,756,0,16,DL_heartfullpop_2_Guitar,6,4,koumou_heartfullpop_ruriko,0.07092756032943726,0
53,100,0.11818181818181818,9,1,17,DL_heartfullpop_2_Guitar,6,2,koumou_heartfullpop_ruriko,0.9983003735542297,1
53,100,0.4590909090909091,57,0,17,DL_heartfullpop_2_Guitar,6,7,koumou_heartfullpop_ruriko,0.04466359317302704,0
62,100,0.1409090909090909,175,0,17,DL_heartfullpop_2_Guitar,6,2,koumou_heartfullpop_ruriko,0.03314986452460289,0
62,100,0.11818181818181818,216,0,17,DL_heartfullpop_2_Guitar,6,2,koumou_heartfullpop_ruriko,0.026579730212688446,0
65,100,0.12272727272727273,488,1,17,DL_heartfullpop_2_Guitar,6,2,koumou_heartfullpop_ruriko,0.023595040664076805,0
57,100,0.32272727272727275,576,0,17,DL_heartfullpop_2_Guitar,6,5,koumou_heartfullpop_ruriko,0.024314774200320244,0
62,100,0.18181818181818182,663,0,17,DL_heartfullpop_2_Guitar,6,3,koumou_heartfullpop_ruriko,0.029689818620681763,0
62,100,0.1409090909090909,783,0,17,DL_heartfullpop_2_Guitar,6,2,koumou_heartfullpop_ruriko,0.040077414363622665,0
65,100,0.35909090909090907,858,0,17,DL_heartfullpop_2_Guitar,6,6,koumou_heartfullpop_ruriko,0.07092927396297455,0
57,100,0.11818181818181818,295,1,18,DL_heartfullpop_2_Guitar,6,2,koumou_heartfullpop_ruriko,0.9990057349205017,1
62,100,0.2818181818181818,443,0,18,DL_heartfullpop_2_Guitar,6,5,koumou_heartfullpop_ruriko,0.23121480643749237,0
53,100,0.3,607,0,18,DL_heartfullpop_2_Guitar,6,5,koumou_heartfullpop_ruriko,0.26592525839805603,0
62,100,0.21818181818181817,858,1,18,DL_heartfullpop_2_Guitar,6,3,koumou_heartfullpop_ruriko,0.354204922914505,0
65,100,0.2409090909090909,57,1,19,DL_heartfullpop_2_Guitar,6,4,koumou_heartfullpop_ruriko,0.9986500144004822,1
65,100,0.4590909090909091,131,0,19,DL_heartfullpop_2_Guitar,6,7,koumou_heartfullpop_ruriko,0.08780111372470856,0
60,100,0.2409090909090909,405,1,19,DL_heartfullpop_2_Guitar,6,4,koumou_heartfullpop_ruriko,0.09181218594312668,0
53,100,0.2636363636363636,488,0,19,DL_heartfullpop_2_Guitar,6,4,koumou_heartfullpop_ruriko,0.1074737161397934,0
53,100,0.35909090909090907,681,0,19,DL_heartfullpop_2_Guitar,6,6,koumou_heartfullpop_ruriko,0.12482022494077682,0
62,100,0.11818181818181818,810,0,19,DL_heartfullpop_2_Guitar,6,2,koumou_heartfullpop_ruriko,0.17903004586696625,0
53,100,0.9409090909090909,9,1,20,DL_heartfullpop_2_Guitar,6,15,koumou_heartfullpop_ruriko,0.9982553124427795,1
65,100,0.17727272727272728,216,0,20,DL_heartfullpop_2_Guitar,6,3,koumou_heartfullpop_ruriko,0.041287634521722794,0
53,100,0.2,254,0,20,DL_heartfullpop_2_Guitar,6,3,koumou_heartfullpop_ruriko,0.02893359586596489,0
62,100,0.2590909090909091,320,0,20,DL_heartfullpop_2_Guitar,6,4,koumou_heartfullpop_ruriko,0.021287987008690834,0
53,100,0.2,391,0,20,DL_heartfullpop_2_Guitar,6,3,koumou_heartfullpop_ruriko,0.016744578257203102,0
65,100,0.1409090909090909,449,0,20,DL_heartfullpop_2_Guitar,6,2,koumou_heartfullpop_ruriko,0.014917830936610699,0
53,100,0.36363636363636365,509,0,20,DL_heartfullpop_2_Guitar,6,6,koumou_heartfullpop_ruriko,0.016015464439988136,0
62,100,0.1409090909090909,602,0,20,DL_heartfullpop_2_Guitar,6,2,koumou_heartfullpop_ruriko,0.021178701892495155,0
53,100,0.740909090909091,642,0,20,DL_heartfullpop_2_Guitar,6,12,koumou_heartfullpop_ruriko,0.031566161662340164,0
65,100,0.18181818181818182,818,0,20,DL_heartfullpop_2_Guitar,6,3,koumou_heartfullpop_ruriko,0.060059819370508194,0
65,100,0.4409090909090909,52,1,21,DL_heartfullpop_2_Guitar,6,7,koumou_heartfullpop_ruriko,0.9982553124427795,1
53,100,0.33636363636363636,150,0,21,DL_heartfullpop_2_Guitar,6,5,koumou_heartfullpop_ruriko,0.04128751903772354,0
62,100,0.11818181818181818,241,0,21,DL_heartfullpop_2_Guitar,6,2,koumou_heartfullpop_ruriko,0.028934264555573463,0
62,100,0.18181818181818182,299,0,21,DL_heartfullpop_2_Guitar,6,3,koumou_heartfullpop_ruriko,0.021288016811013222,0
65,100,0.3,356,0,21,DL_heartfullpop_2_Guitar,6,5,koumou_heartfullpop_ruriko,0.016744837164878845,0
53,100,0.2,422,0,21,DL_heartfullpop_2_Guitar,6,3,koumou_heartfullpop_ruriko,0.014917781576514244,0
65,100,0.11818181818181818,550,0,21,DL_heartfullpop_2_Guitar,6,2,koumou_heartfullpop_ruriko,0.016015224158763885,0
65,100,0.12272727272727273,642,0,21,DL_heartfullpop_2_Guitar,6,2,koumou_heartfullpop_ruriko,0.02117892913520336,0
53,100,0.4,669,0,21,DL_heartfullpop_2_Guitar,6,6,koumou_heartfullpop_ruriko,0.03156617656350136,0
53,100,0.1409090909090909,804,0,21,DL_heartfullpop_2_Guitar,6,2,koumou_heartfullpop_ruriko,0.06005765497684479,0
55,100,0.3,30,1,22,DL_heartfullpop_2_Guitar,6,5,koumou_heartfullpop_ruriko,0.9984880685806274,1
62,100,0.5590909090909091,171,0,22,DL_heartfullpop_2_Guitar,6,9,koumou_heartfullpop_ruriko,0.0633459985256195,0
53,100,0.2409090909090909,316,0,22,DL_heartfullpop_2_Guitar,6,4,koumou_heartfullpop_ruriko,0.0577428974211216,0
62,100,0.18181818181818182,528,0,22,DL_heartfullpop_2_Guitar,6,3,koumou_heartfullpop_ruriko,0.06020287051796913,0
62,100,0.4590909090909091,594,0,22,DL_heartfullpop_2_Guitar,6,7,koumou_heartfullpop_ruriko,0.06970513612031937,0
62,100,0.12272727272727273,729,0,22,DL_heartfullpop_2_Guitar,6,2,koumou_heartfullpop_ruriko,0.08189868927001953,0
53,100,0.1409090909090909,801,0,22,DL_heartfullpop_2_Guitar,6,2,koumou_heartfullpop_ruriko,0.12402422726154327,0
53,100,0.21818181818181817,0,1,23,DL_heartfullpop_2_Guitar,6,3,koumou_heartfullpop_ruriko,0.9983736276626587,1
53,100,0.22272727272727272,79,0,23,DL_heartfullpop_2_Guitar,6,4,koumou_heartfullpop_ruriko,0.051059745252132416,0
60,100,0.1590909090909091,150,0,23,DL_heartfullpop_2_Guitar,6,3,koumou_heartfullpop_ruriko,0.04130234941840172,0
65,100,0.18181818181818182,356,0,23,DL_heartfullpop_2_Guitar,6,3,koumou_heartfullpop_ruriko,0.03738335520029068,0
53,100,0.4590909090909091,453,0,23,DL_heartfullpop_2_Guitar,6,7,koumou_heartfullpop_ruriko,0.03832713142037392,0
53,100,0.2772727272727273,590,0,23,DL_heartfullpop_2_Guitar,6,4,koumou_heartfullpop_ruriko,0.04474841058254242,0
60,100,0.3,779,0,23,DL_heartfullpop_2_Guitar,6,5,koumou_heartfullpop_ruriko,0.055226899683475494,0
53,100,0.2,862,0,23,DL_heartfullpop_2_Guitar,6,3,koumou_heartfullpop_ruriko,0.09026259183883667,0
53,100,0.7181818181818181,119,1,24,DL_heartfullpop_2_Guitar,6,11,koumou_heartfullpop_ruriko,0.9988419413566589,1
60,100,0.4590909090909091,347,0,24,DL_heartfullpop_2_Guitar,6,7,koumou_heartfullpop_ruriko,0.13724492490291595,0
53,100,0.13636363636363635,567,0,24,DL_heartfullpop_2_Guitar,6,2,koumou_heartfullpop_ruriko,0.15977253019809723,0
53,100,0.11818181818181818,656,0,24,DL_heartfullpop_2_Guitar,6,2,koumou_heartfullpop_ruriko,0.18644209206104279,0
53,100,0.37727272727272726,735,0,24,DL_heartfullpop_2_Guitar,6,6,koumou_heartfullpop_ruriko,0.2581566572189331,0
60,100,0.13636363636363635,61,1,25,DL_heartfullpop_2_Guitar,6,2,koumou_heartfullpop_ruriko,0.9983736276626587,1
53,100,0.1409090909090909,144,0,25,DL_heartfullpop_2_Guitar,6,2,koumou_heartfullpop_ruriko,0.051060061901807785,0
53,100,0.4409090909090909,206,0,25,DL_heartfullpop_2_Guitar,6,7,koumou_heartfullpop_ruriko,0.041301753371953964,0
60,100,0.4590909090909091,440,1,25,DL_heartfullpop_2_Guitar,6,7,koumou_heartfullpop_ruriko,0.037386201322078705,0
60,100,0.1409090909090909,563,0,25,DL_heartfullpop_2_Guitar,6,2,koumou_heartfullpop_ruriko,0.03832777589559555,0
60,100,0.16363636363636364,729,0,25,DL_heartfullpop_2_Guitar,6,3,koumou_heartfullpop_ruriko,0.04475083574652672,0
53,100,0.23636363636363636,766,0,25,DL_heartfullpop_2_Guitar,6,4,koumou_heartfullpop_ruriko,0.055226944386959076,0
60,100,0.1,839,0,25,DL_heartfullpop_2_Guitar,6,2,koumou_heartfullpop_ruriko,0.09026318043470383,0
53,100,0.6227272727272727,26,1,26,DL_heartfullpop_2_Guitar,6,10,koumou_heartfullpop_ruriko,0.9988419413566589,1
53,100,0.1590909090909091,175,0,26,DL_heartfullpop_2_Guitar,6,3,koumou_heartfullpop_ruriko,0.13724428415298462,0
60,100,0.13636363636363635,216,0,26,DL_heartfullpop_2_Guitar,6,2,koumou_heartfullpop_ruriko,0.15977229177951813,0
53,100,0.7,370,0,26,DL_heartfullpop_2_Guitar,6,11,koumou_heartfullpop_ruriko,0.18643920123577118,0
60,100,0.4772727272727273,779,1,26,DL_heartfullpop_2_Guitar,6,8,koumou_heartfullpop_ruriko,0.25816085934638977,0
65,100,0.3409090909090909,162,1,27,DL_heartfullpop_2_Guitar,6,5,koumou_heartfullpop_ruriko,0.9792560338973999,0
65,100,0.2,113,1,28,DL_heartfullpop_2_Guitar,6,3,koumou_heartfullpop_ruriko,0.9990057349205017,1
57,100,0.18181818181818182,356,1,28,DL_heartfullpop_2_Guitar,6,3,koumou_heartfullpop_ruriko,0.23120103776454926,0
62,100,0.4,584,0,28,DL_heartfullpop_2_Guitar,6,6,koumou_heartfullpop_ruriko,0.26592588424682617,0
53,100,0.5,796,0,28,DL_heartfullpop_2_Guitar,6,8,koumou_heartfullpop_ruriko,0.3541982173919678,0
60,100,1.2818181818181817,88,1,29,DL_heartfullpop_2_Guitar,6,15,koumou_heartfullpop_ruriko,0.9988419413566589,1
53,100,0.3409090909090909,492,1,29,DL_heartfullpop_2_Guitar,6,5,koumou_heartfullpop_ruriko,0.13724462687969208,0
65,100,0.2,567,0,29,DL_heartfullpop_2_Guitar,6,3,koumou_heartfullpop_ruriko,0.15977588295936584,0
53,100,0.32272727272727275,629,0,29,DL_heartfullpop_2_Guitar,6,5,koumou_heartfullpop_ruriko,0.18644440174102783,0
65,100,0.18181818181818182,708,0,29,DL_heartfullpop_2_Guitar,6,3,koumou_heartfullpop_ruriko,0.2581588327884674,0
60,100,0.2818181818181818,3,1,30,DL_heartfullpop_2_Guitar,6,5,koumou_heartfullpop_ruriko,0.9984880685806274,1
53,100,0.4409090909090909,131,0,30,DL_heartfullpop_2_Guitar,6,7,koumou_heartfullpop_ruriko,0.06334370374679565,0
65,100,0.4409090909090909,229,0,30,DL_heartfullpop_2_Guitar,6,7,koumou_heartfullpop_ruriko,0.05774009972810745,0
53,100,0.2590909090909091,326,0,30,DL_heartfullpop_2_Guitar,6,4,koumou_heartfullpop_ruriko,0.06019935756921768,0
65,100,0.33636363636363636,413,0,30,DL_heartfullpop_2_Guitar,6,5,koumou_heartfullpop_ruriko,0.0696992501616478,0
60,100,0.2,650,1,30,DL_heartfullpop_2_Guitar,6,3,koumou_heartfullpop_ruriko,0.08189135044813156,0
60,100,0.2636363636363636,708,0,30,DL_heartfullpop_2_Guitar,6,4,koumou_heartfullpop_ruriko,0.124016672372818,0
62,100,0.35909090909090907,21,1,31,DL_heartfullpop_2_Guitar,6,6,koumou_heartfullpop_ruriko,0.9990057349205017,1
60,100,0.33636363636363636,150,0,31,DL_heartfullpop_2_Guitar,6,5,koumou_heartfullpop_ruriko,0.2312079668045044,0
53,100,0.22272727272727272,223,0,31,DL_heartfullpop_2_Guitar,6,4,koumou_heartfullpop_ruriko,0.26591596007347107,0
62,100,0.1590909090909091,501,1,31,DL_heartfullpop_2_Guitar,6,3,koumou_heartfullpop_ruriko,0.3541991710662842,0
53,100,0.3,748,1,32,DL_heartfullpop_2_Guitar,6,5,koumou_heartfullpop_ruriko,0.9983164072036743,1
60,100,0.43636363636363634,875,0,32,DL_heartfullpop_2_Guitar,6,7,koumou_heartfullpop_ruriko,0.5445610284805298,0
53,100,0.2,330,1,33,DL_heartfullpop_2_Guitar,6,3,koumou_heartfullpop_ruriko,0.9792567491531372,0
53,100,0.1,91,1,34,DL_heartfullpop_2_Guitar,6,2,koumou_heartfullpop_ruriko,0.9983736276626587,1
65,100,0.2,114,0,34,DL_heartfullpop_2_Guitar,6,3,koumou_heartfullpop_ruriko,0.05106182396411896,0
62,100,0.2590909090909091,228,0,34,DL_heartfullpop_2_Guitar,6,4,koumou_heartfullpop_ruriko,0.04130324348807335,0
62,100,0.21818181818181817,295,0,34,DL_heartfullpop_2_Guitar,6,3,koumou_heartfullpop_ruriko,0.03738768398761749,0
53,100,0.2636363636363636,356,0,34,DL_heartfullpop_2_Guitar,6,4,koumou_heartfullpop_ruriko,0.038331348448991776,0
62,100,0.3,418,0,34,DL_heartfullpop_2_Guitar,6,5,koumou_heartfullpop_ruriko,0.044753916561603546,0
53,100,0.12272727272727273,628,0,34,DL_heartfullpop_2_Guitar,6,2,koumou_heartfullpop_ruriko,0.05523097515106201,0
58,100,0.13636363636363635,700,0,34,DL_heartfullpop_2_Guitar,6,2,koumou_heartfullpop_ruriko,0.09026877582073212,0
62,100,0.17727272727272728,8,1,35,DL_heartfullpop_2_Guitar,6,3,koumou_heartfullpop_ruriko,0.9983003735542297,1
53,100,0.3,78,0,35,DL_heartfullpop_2_Guitar,6,5,koumou_heartfullpop_ruriko,0.04466349259018898,0
65,100,0.1590909090909091,144,0,35,DL_heartfullpop_2_Guitar,6,3,koumou_heartfullpop_ruriko,0.03314989432692528,0
62,100,0.9,251,0,35,DL_heartfullpop_2_Guitar,6,14,koumou_heartfullpop_ruriko,0.026579178869724274,0
62,100,0.1409090909090909,471,0,35,DL_heartfullpop_2_Guitar,6,2,koumou_heartfullpop_ruriko,0.023594802245497704,0
53,100,0.2590909090909091,528,0,35,DL_heartfullpop_2_Guitar,6,4,koumou_heartfullpop_ruriko,0.0243141520768404,0
69,100,0.1409090909090909,593,0,35,DL_heartfullpop_2_Guitar,6,2,koumou_heartfullpop_ruriko,0.02968948893249035,0
62,100,0.6590909090909091,691,0,35,DL_heartfullpop_2_Guitar,6,11,koumou_heartfullpop_ruriko,0.040077246725559235,0
65,100,0.1409090909090909,836,0,35,DL_heartfullpop_2_Guitar,6,2,koumou_heartfullpop_ruriko,0.07092880457639694,0
64,100,0.8,13,1,36,DL_heartfullpop_2_Guitar,6,13,koumou_heartfullpop_ruriko,0.9984880685806274,1
60,100,0.21818181818181817,228,0,36,DL_heartfullpop_2_Guitar,6,3,koumou_heartfullpop_ruriko,0.06334653496742249,0
60,100,0.4636363636363636,289,0,36,DL_heartfullpop_2_Guitar,6,7,koumou_heartfullpop_ruriko,0.05774302780628204,0
64,100,0.35909090909090907,453,0,36,DL_heartfullpop_2_Guitar,6,6,koumou_heartfullpop_ruriko,0.06020341441035271,0
60,100,0.2409090909090909,554,0,36,DL_heartfullpop_2_Guitar,6,4,koumou_heartfullpop_ruriko,0.0697062686085701,0
57,100,0.2590909090909091,611,0,36,DL_heartfullpop_2_Guitar,6,4,koumou_heartfullpop_ruriko,0.08189792931079865,0
60,100,0.5181818181818182,748,0,36,DL_heartfullpop_2_Guitar,6,8,koumou_heartfullpop_ruriko,0.12402892112731934,0
57,100,0.1409090909090909,4,1,37,DL_heartfullpop_2_Guitar,6,2,koumou_heartfullpop_ruriko,0.9990229606628418,1
69,100,0.21818181818181817,110,0,37,DL_heartfullpop_2_Guitar,6,3,koumou_heartfullpop_ruriko,0.3666279911994934,0
62,100,0.13636363636363635,655,1,37,DL_heartfullpop_2_Guitar,6,2,koumou_heartfullpop_ruriko,0.45329606533050537,0
62,100,0.1590909090909091,43,1,38,DL_heartfullpop_2_Guitar,6,3,koumou_heartfullpop_ruriko,0.9984880685806274,1
64,100,0.11818181818181818,241,0,38,DL_heartfullpop_2_Guitar,6,2,koumou_heartfullpop_ruriko,0.06334615498781204,0
65,100,0.22272727272727272,268,0,38,DL_heartfullpop_2_Guitar,6,4,koumou_heartfullpop_ruriko,0.05774126201868057,0
53,100,0.11818181818181818,330,0,38,DL_heartfullpop_2_Guitar,6,2,koumou_heartfullpop_ruriko,0.06020141765475273,0
53,100,0.22272727272727272,541,0,38,DL_heartfullpop_2_Guitar,6,4,koumou_heartfullpop_ruriko,0.06970082968473434,0
53,100,0.1409090909090909,713,0,38,DL_heartfullpop_2_Guitar,6,2,koumou_heartfullpop_ruriko,0.0818941667675972,0
62,100,0.11818181818181818,756,0,38,DL_heartfullpop_2_Guitar,6,2,koumou_heartfullpop_ruriko,0.12401815503835678,0
65,100,0.3181818181818182,31,1,39,DL_heartfullpop_2_Guitar,6,5,koumou_heartfullpop_ruriko,0.9988419413566589,1
53,100,0.37727272727272726,105,0,39,DL_heartfullpop_2_Guitar,6,6,koumou_heartfullpop_ruriko,0.13724415004253387,0
58,100,0.1409090909090909,276,0,39,DL_heartfullpop_2_Guitar,6,2,koumou_heartfullpop_ruriko,0.15977363288402557,0
65,100,0.2409090909090909,364,0,39,DL_heartfullpop_2_Guitar,6,4,koumou_heartfullpop_ruriko,0.18643862009048462,0
60,100,0.4409090909090909,861,1,39,DL_heartfullpop_2_Guitar,6,7,koumou_heartfullpop_ruriko,0.2581580579280853,0
60,100,0.5636363636363636,268,1,40,DL_heartfullpop_2_Guitar,6,9,koumou_heartfullpop_ruriko,0.9986500144004822,1
60,100,0.1,421,0,40,DL_heartfullpop_2_Guitar,6,2,koumou_heartfullpop_ruriko,0.08780243247747421,0
65,100,0.12272727272727273,606,0,40,DL_heartfullpop_2_Guitar,6,2,koumou_heartfullpop_ruriko,0.09181240946054459,0
53,100,0.3181818181818182,638,0,40,DL_heartfullpop_2_Guitar,6,5,koumou_heartfullpop_ruriko,0.10747604817152023,0
53,100,0.2590909090909091,765,0,40,DL_heartfullpop_2_Guitar,6,4,koumou_heartfullpop_ruriko,0.12482548505067825,0
53,100,0.3,839,0,40,DL_heartfullpop_2_Guitar,6,5,koumou_heartfullpop_ruriko,0.17902635037899017,0
62,100,0.4,61,1,41,DL_heartfullpop_2_Guitar,6,6,koumou_heartfullpop_ruriko,0.9990057349205017,1
62,100,0.4409090909090909,440,1,41,DL_heartfullpop_2_Guitar,6,7,koumou_heartfullpop_ruriko,0.23121319711208344,0
62,100,0.2818181818181818,563,0,41,DL_heartfullpop_2_Guitar,6,5,koumou_heartfullpop_ruriko,0.2659248411655426,0
60,100,0.5590909090909091,668,0,41,DL_heartfullpop_2_Guitar,6,9,koumou_heartfullpop_ruriko,0.354203999042511,0
53,100,0.17727272727272728,75,1,43,DL_heartfullpop_2_Guitar,6,3,koumou_heartfullpop_ruriko,0.9983003735542297,1
57,100,0.33636363636363636,193,0,43,DL_heartfullpop_2_Guitar,6,5,koumou_heartfullpop_ruriko,0.04466371238231659,0
65,100,0.12272727272727273,356,0,43,DL_heartfullpop_2_Guitar,6,2,koumou_heartfullpop_ruriko,0.0331488698720932,0
53,100,0.2772727272727273,383,0,43,DL_heartfullpop_2_Guitar,6,4,koumou_heartfullpop_ruriko,0.026578126475214958,0
53,100,0.32272727272727275,453,0,43,DL_heartfullpop_2_Guitar,6,5,koumou_heartfullpop_ruriko,0.023593904450535774,0
57,100,0.17727272727272728,545,0,43,DL_heartfullpop_2_Guitar,6,3,koumou_heartfullpop_ruriko,0.024312730878591537,0
53,100,0.22272727272727272,598,0,43,DL_heartfullpop_2_Guitar,6,4,koumou_heartfullpop_ruriko,0.029688440263271332,0
53,100,0.32272727272727275,716,0,43,DL_heartfullpop_2_Guitar,6,5,koumou_heartfullpop_ruriko,0.04007389023900032,0
53,100,0.23636363636363636,853,0,43,DL_heartfullpop_2_Guitar,6,4,koumou_heartfullpop_ruriko,0.07092763483524323,0
57,100,0.32272727272727275,144,1,44,DL_heartfullpop_2_Guitar,6,5,koumou_heartfullpop_ruriko,0.9983003735542297,1
53,100,0.3409090909090909,228,0,44,DL_heartfullpop_2_Guitar,6,5,koumou_heartfullpop_ruriko,0.04466395080089569,0
57,100,0.18181818181818182,378,0,44,DL_heartfullpop_2_Guitar,6,3,koumou_heartfullpop_ruriko,0.033149007707834244,0
53,100,0.2,493,0,44,DL_heartfullpop_2_Guitar,6,3,koumou_heartfullpop_ruriko,0.02657928876578808,0
53,100,0.6590909090909091,545,0,44,DL_heartfullpop_2_Guitar,6,11,koumou_heartfullpop_ruriko,0.023593692108988762,0
53,100,0.18181818181818182,751,0,44,DL_heartfullpop_2_Guitar,6,3,koumou_heartfullpop_ruriko,0.024313533678650856,0
65,100,0.1409090909090909,791,0,44,DL_heartfullpop_2_Guitar,6,2,koumou_heartfullpop_ruriko,0.0296882726252079,0
53,100,0.1409090909090909,823,0,44,DL_heartfullpop_2_Guitar,6,2,koumou_heartfullpop_ruriko,0.04007638618350029,0
53,100,0.8181818181818182,875,0,44,DL_heartfullpop_2_Guitar,6,13,koumou_heartfullpop_ruriko,0.070925273001194,0
53,100,0.4409090909090909,211,1,45,DL_heartfullpop_2_Guitar,6,7,koumou_heartfullpop_ruriko,0.9990229606628418,1
62,100,0.2590909090909091,496,1,45,DL_heartfullpop_2_Guitar,6,4,koumou_heartfullpop_ruriko,0.3666291832923889,0
62,100,0.1590909090909091,558,0,45,DL_heartfullpop_2_Guitar,6,3,koumou_heartfullpop_ruriko,0.4532964527606964,0
62,100,0.37727272727272726,348,1,46,DL_heartfullpop_2_Guitar,6,6,koumou_heartfullpop_ruriko,0.9988419413566589,1
62,100,0.2409090909090909,474,0,46,DL_heartfullpop_2_Guitar,6,4,koumou_heartfullpop_ruriko,0.13725240528583527,0
65,100,0.22272727272727272,619,0,46,DL_heartfullpop_2_Guitar,6,4,koumou_heartfullpop_ruriko,0.1597815603017807,0
62,100,0.4,694,0,46,DL_heartfullpop_2_Guitar,6,6,koumou_heartfullpop_ruriko,0.18645453453063965,0
62,100,0.1409090909090909,861,0,46,DL_heartfullpop_2_Guitar,6,2,koumou_heartfullpop_ruriko,0.2581731379032135,0
62,100,0.13636363636363635,61,1,47,DL_heartfullpop_2_Guitar,6,2,koumou_heartfullpop_ruriko,0.9990229606628418,1
62,100,0.3,496,1,47,DL_heartfullpop_2_Guitar,6,5,koumou_heartfullpop_ruriko,0.36662861704826355,0
53,100,0.3,638,0,47,DL_heartfullpop_2_Guitar,6,5,koumou_heartfullpop_ruriko,0.453292578458786,0
53,100,0.12272727272727273,201,1,48,DL_heartfullpop_2_Guitar,6,2,koumou_heartfullpop_ruriko,0.9988419413566589,1
53,100,0.22272727272727272,453,1,48,DL_heartfullpop_2_Guitar,6,4,koumou_heartfullpop_ruriko,0.13724350929260254,0
53,100,0.1590909090909091,506,0,48,DL_heartfullpop_2_Guitar,6,3,koumou_heartfullpop_ruriko,0.15977324545383453,0
53,100,0.41818181818181815,655,0,48,DL_heartfullpop_2_Guitar,6,7,koumou_heartfullpop_ruriko,0.18643970787525177,0
53,100,0.2590909090909091,853,0,48,DL_heartfullpop_2_Guitar,6,4,koumou_heartfullpop_ruriko,0.25815650820732117,0
53,100,0.2818181818181818,179,1,49,DL_heartfullpop_2_Guitar,6,5,koumou_heartfullpop_ruriko,0.9986500144004822,1
62,100,0.11818181818181818,458,1,49,DL_heartfullpop_2_Guitar,6,2,koumou_heartfullpop_ruriko,0.08780262619256973,0
60,100,0.1409090909090909,515,0,49,DL_heartfullpop_2_Guitar,6,2,koumou_heartfullpop_ruriko,0.09181539714336395,0
53,100,0.17727272727272728,558,0,49,DL_heartfullpop_2_Guitar,6,3,koumou_heartfullpop_ruriko,0.10747616738080978,0
53,100,0.5590909090909091,738,0,49,DL_heartfullpop_2_Guitar,6,9,koumou_heartfullpop_ruriko,0.12482403963804245,0
53,100,0.1590909090909091,871,0,49,DL_heartfullpop_2_Guitar,6,3,koumou_heartfullpop_ruriko,0.17903436720371246,0
65,100,0.18181818181818182,26,1,50,DL_heartfullpop_2_Guitar,6,3,koumou_heartfullpop_ruriko,0.9988419413566589,1
53,100,0.1409090909090909,66,0,50,DL_heartfullpop_2_Guitar,6,2,koumou_heartfullpop_ruriko,0.13724493980407715,0
62,100,0.4409090909090909,185,0,50,DL_heartfullpop_2_Guitar,6,7,koumou_heartfullpop_ruriko,0.1597730815410614,0
60,100,0.3,396,0,50,DL_heartfullpop_2_Guitar,6,5,koumou_heartfullpop_ruriko,0.18644893169403076,0
60,100,0.12272727272727273,474,0,50,DL_heartfullpop_2_Guitar,6,2,koumou_heartfullpop_ruriko,0.25816404819488525,0
62,100,0.4,114,1,51,DL_heartfullpop_2_Guitar,6,6,koumou_heartfullpop_ruriko,0.9990229606628418,1
60,100,0.1409090909090909,211,0,51,DL_heartfullpop_2_Guitar,6,2,koumou_heartfullpop_ruriko,0.3666306138038635,0
65,100,0.38181818181818183,330,0,51,DL_heartfullpop_2_Guitar,6,6,koumou_heartfullpop_ruriko,0.4532994031906128,0
58,100,0.1590909090909091,651,1,52,DL_heartfullpop_2_Guitar,6,3,koumou_heartfullpop_ruriko,0.9983165264129639,1
53,100,0.1,691,0,52,DL_heartfullpop_2_Guitar,6,2,koumou_heartfullpop_ruriko,0.5445549488067627,0
58,100,0.3409090909090909,66,1,53,DL_heartfullpop_2_Guitar,6,5,koumou_heartfullpop_ruriko,0.9990229606628418,1
53,100,0.12272727272727273,408,1,53,DL_heartfullpop_2_Guitar,6,2,koumou_heartfullpop_ruriko,0.3666304051876068,0
62,100,0.4,616,0,53,DL_heartfullpop_2_Guitar,6,6,koumou_heartfullpop_ruriko,0.453286349773407,0
62,100,0.4590909090909091,853,1,54,DL_heartfullpop_2_Guitar,6,7,koumou_heartfullpop_ruriko,0.979255735874176,0
62,100,0.1409090909090909,166,1,55,DL_heartfullpop_2_Guitar,6,2,koumou_heartfullpop_ruriko,0.9986500144004822,1
62,100,0.759090909090909,286,0,55,DL_heartfullpop_2_Guitar,6,12,koumou_heartfullpop_ruriko,0.08780582994222641,0
55,100,0.5590909090909091,518,1,55,DL_heartfullpop_2_Guitar,6,9,koumou_heartfullpop_ruriko,0.0918181985616684,0
55,100,0.43636363636363634,655,0,55,DL_heartfullpop_2_Guitar,6,7,koumou_heartfullpop_ruriko,0.10748092085123062,0
53,100,0.11818181818181818,765,0,55,DL_heartfullpop_2_Guitar,6,2,koumou_heartfullpop_ruriko,0.1248294934630394,0
55,100,0.1409090909090909,804,0,55,DL_heartfullpop_2_Guitar,6,2,koumou_heartfullpop_ruriko,0.179036483168602,0
55,100,0.12272727272727273,48,1,56,DL_heartfullpop_2_Guitar,6,2,koumou_heartfullpop_ruriko,0.9990229606628418,1
60,100,0.7,351,1,56,DL_heartfullpop_2_Guitar,6,11,koumou_heartfullpop_ruriko,0.3666272759437561,0
60,100,1.040909090909091,571,0,56,DL_heartfullpop_2_Guitar,6,15,koumou_heartfullpop_ruriko,0.45329272747039795,0
53,100,0.11818181818181818,153,1,57,DL_heartfullpop_2_Guitar,6,2,koumou_heartfullpop_ruriko,0.9792559146881104,0
65,100,0.18181818181818182,56,1,58,DL_heartfullpop_2_Guitar,6,3,koumou_heartfullpop_ruriko,0.9990229606628418,1
65,100,0.3409090909090909,233,0,58,DL_heartfullpop_2_Guitar,6,5,koumou_heartfullpop_ruriko,0.36661675572395325,0
60,100,0.4636363636363636,774,1,58,DL_heartfullpop_2_Guitar,6,7,koumou_heartfullpop_ruriko,0.45329752564430237,0
60,100,0.18181818181818182,136,1,59,DL_heartfullpop_2_Guitar,6,3,koumou_heartfullpop_ruriko,0.9983736276626587,1
60,100,0.2636363636363636,179,0,59,DL_heartfullpop_2_Guitar,6,4,koumou_heartfullpop_ruriko,0.05106101185083389,0
60,100,0.1409090909090909,311,0,59,DL_heartfullpop_2_Guitar,6,2,koumou_heartfullpop_ruriko,0.041302941739559174,0
53,100,0.5409090909090909,474,0,59,DL_heartfullpop_2_Guitar,6,9,koumou_heartfullpop_ruriko,0.03738440200686455,0
53,100,0.3,606,0,59,DL_heartfullpop_2_Guitar,6,5,koumou_heartfullpop_ruriko,0.03832912817597389,0
65,100,0.12272727272727273,673,0,59,DL_heartfullpop_2_Guitar,6,2,koumou_heartfullpop_ruriko,0.04475056380033493,0
53,100,0.5363636363636364,743,0,59,DL_heartfullpop_2_Guitar,6,9,koumou_heartfullpop_ruriko,0.055227916687726974,0
53,100,0.2818181818181818,871,0,59,DL_heartfullpop_2_Guitar,6,5,koumou_heartfullpop_ruriko,0.09026356786489487,0
53,100,0.35909090909090907,128,1,60,DL_heartfullpop_2_Guitar,6,6,koumou_heartfullpop_ruriko,0.9982553124427795,1
53,100,0.18181818181818182,276,0,60,DL_heartfullpop_2_Guitar,6,3,koumou_heartfullpop_ruriko,0.04128683730959892,0
60,100,0.2,330,0,60,DL_heartfullpop_2_Guitar,6,3,koumou_heartfullpop_ruriko,0.028933526948094368,0
53,100,0.2409090909090909,386,0,60,DL_heartfullpop_2_Guitar,6,4,koumou_heartfullpop_ruriko,0.02128702402114868,0
65,100,0.11818181818181818,440,0,60,DL_heartfullpop_2_Guitar,6,2,koumou_heartfullpop_ruriko,0.01674431934952736,0
53,100,0.16363636363636364,466,0,60,DL_heartfullpop_2_Guitar,6,3,koumou_heartfullpop_ruriko,0.014917192049324512,0
53,100,0.16363636363636364,509,0,60,DL_heartfullpop_2_Guitar,6,3,koumou_heartfullpop_ruriko,0.016014549881219864,0
60,100,0.1,606,0,60,DL_heartfullpop_2_Guitar,6,2,koumou_heartfullpop_ruriko,0.021178144961595535,0
53,100,0.33636363636363636,633,0,60,DL_heartfullpop_2_Guitar,6,5,koumou_heartfullpop_ruriko,0.03156541660428047,0
53,100,0.1590909090909091,716,0,60,DL_heartfullpop_2_Guitar,6,3,koumou_heartfullpop_ruriko,0.060055796056985855,0
53,100,0.2590909090909091,18,1,61,DL_heartfullpop_2_Guitar,6,4,koumou_heartfullpop_ruriko,0.9982276558876038,1
53,100,0.2590909090909091,78,0,61,DL_heartfullpop_2_Guitar,6,4,koumou_heartfullpop_ruriko,0.03939660266041756,0
53,100,0.2,153,0,61,DL_heartfullpop_2_Guitar,6,3,koumou_heartfullpop_ruriko,0.02667255513370037,0
53,100,0.2818181818181818,289,0,61,DL_heartfullpop_2_Guitar,6,5,koumou_heartfullpop_ruriko,0.018586819991469383,0
65,100,0.2409090909090909,351,0,61,DL_heartfullpop_2_Guitar,6,4,koumou_heartfullpop_ruriko,0.013412926346063614,0
53,100,0.3,405,0,61,DL_heartfullpop_2_Guitar,6,5,koumou_heartfullpop_ruriko,0.010586420074105263,0
53,100,0.23636363636363636,545,0,61,DL_heartfullpop_2_Guitar,6,4,koumou_heartfullpop_ruriko,0.00983881764113903,0
53,100,0.11818181818181818,625,0,61,DL_heartfullpop_2_Guitar,6,2,koumou_heartfullpop_ruriko,0.011416427791118622,0
53,100,0.16363636363636364,664,0,61,DL_heartfullpop_2_Guitar,6,3,koumou_heartfullpop_ruriko,0.016511132940649986,0
53,100,0.17727272727272728,713,0,61,DL_heartfullpop_2_Guitar,6,3,koumou_heartfullpop_ruriko,0.026816142722964287,0
62,100,1.1636363636363636,796,0,61,DL_heartfullpop_2_Guitar,6,15,koumou_heartfullpop_ruriko,0.053910281509160995,0
65,100,0.18181818181818182,188,1,62,DL_heartfullpop_2_Guitar,6,3,koumou_heartfullpop_ruriko,0.9986500144004822,1
65,100,0.1,263,0,62,DL_heartfullpop_2_Guitar,6,2,koumou_heartfullpop_ruriko,0.08780360221862793,0
62,100,0.2,361,0,62,DL_heartfullpop_2_Guitar,6,3,koumou_heartfullpop_ruriko,0.0918131023645401,0
62,100,0.21818181818181817,506,0,62,DL_heartfullpop_2_Guitar,6,3,koumou_heartfullpop_ruriko,0.10747857391834259,0
62,100,0.5590909090909091,568,0,62,DL_heartfullpop_2_Guitar,6,9,koumou_heartfullpop_ruriko,0.12482768297195435,0
65,100,0.22272727272727272,761,0,62,DL_heartfullpop_2_Guitar,6,4,koumou_heartfullpop_ruriko,0.17903511226177216,0
62,100,0.22272727272727272,13,1,63,DL_heartfullpop_2_Guitar,6,4,koumou_heartfullpop_ruriko,0.9988419413566589,1
62,100,0.3181818181818182,198,0,63,DL_heartfullpop_2_Guitar,6,5,koumou_heartfullpop_ruriko,0.1372547149658203,0
65,100,0.3,268,0,63,DL_heartfullpop_2_Guitar,6,5,koumou_heartfullpop_ruriko,0.1597827523946762,0
62,100,0.11818181818181818,603,1,63,DL_heartfullpop_2_Guitar,6,2,koumou_heartfullpop_ruriko,0.1864556223154068,0
65,100,0.22272727272727272,664,0,63,DL_heartfullpop_2_Guitar,6,4,koumou_heartfullpop_ruriko,0.2581796646118164,0
65,100,0.17727272727272728,62,1,64,DL_heartfullpop_2_Guitar,6,3,koumou_heartfullpop_ruriko,0.9982276558876038,1
62,100,0.1590909090909091,176,0,64,DL_heartfullpop_2_Guitar,6,3,koumou_heartfullpop_ruriko,0.0393972173333168,0
53,100,0.3,237,0,64,DL_heartfullpop_2_Guitar,6,5,koumou_heartfullpop_ruriko,0.026673395186662674,0
62,100,0.5,316,0,64,DL_heartfullpop_2_Guitar,6,8,koumou_heartfullpop_ruriko,0.018587784841656685,0
65,100,0.2590909090909091,430,0,64,DL_heartfullpop_2_Guitar,6,4,koumou_heartfullpop_ruriko,0.013413871638476849,0
58,100,0.2,519,0,64,DL_heartfullpop_2_Guitar,6,3,koumou_heartfullpop_ruriko,0.01058715395629406,0
53,100,0.3,619,0,64,DL_heartfullpop_2_Guitar,6,5,koumou_heartfullpop_ruriko,0.009839259088039398,0
65,100,0.3,686,0,64,DL_heartfullpop_2_Guitar,6,5,koumou_heartfullpop_ruriko,0.011416981928050518,0
53,100,0.32272727272727275,752,0,64,DL_heartfullpop_2_Guitar,6,5,koumou_heartfullpop_ruriko,0.016511574387550354,0
65,100,0.21818181818181817,823,0,64,DL_heartfullpop_2_Guitar,6,3,koumou_heartfullpop_ruriko,0.026817599311470985,0
53,100,0.35909090909090907,876,0,64,DL_heartfullpop_2_Guitar,6,6,koumou_heartfullpop_ruriko,0.053914234042167664,0
65,100,0.4636363636363636,113,1,65,DL_heartfullpop_2_Guitar,6,7,koumou_heartfullpop_ruriko,0.9983736276626587,1
53,100,0.5181818181818182,250,0,65,DL_heartfullpop_2_Guitar,6,8,koumou_heartfullpop_ruriko,0.05105902999639511,0
53,100,0.32272727272727275,377,0,65,DL_heartfullpop_2_Guitar,6,5,koumou_heartfullpop_ruriko,0.04130120575428009,0
58,100,0.3409090909090909,475,0,65,DL_heartfullpop_2_Guitar,6,5,koumou_heartfullpop_ruriko,0.03738333657383919,0
65,100,0.11818181818181818,580,0,65,DL_heartfullpop_2_Guitar,6,2,koumou_heartfullpop_ruriko,0.03832625970244408,0
53,100,0.42272727272727273,642,0,65,DL_heartfullpop_2_Guitar,6,7,koumou_heartfullpop_ruriko,0.04474853351712227,0
53,100,0.2,773,0,65,DL_heartfullpop_2_Guitar,6,3,koumou_heartfullpop_ruriko,0.055226024240255356,0
62,100,0.3,823,0,65,DL_heartfullpop_2_Guitar,6,5,koumou_heartfullpop_ruriko,0.0902625098824501,0
53,100,0.11818181818181818,150,1,66,DL_heartfullpop_2_Guitar,6,2,koumou_heartfullpop_ruriko,0.9986500144004822,1
60,100,0.35909090909090907,193,0,66,DL_heartfullpop_2_Guitar,6,6,koumou_heartfullpop_ruriko,0.08780179917812347,0
53,100,0.4409090909090909,396,0,66,DL_heartfullpop_2_Guitar,6,7,koumou_heartfullpop_ruriko,0.0918109193444252,0
53,100,0.1590909090909091,496,0,66,DL_heartfullpop_2_Guitar,6,3,koumou_heartfullpop_ruriko,0.10747284442186356,0
53,100,0.1409090909090909,540,0,66,DL_heartfullpop_2_Guitar,6,2,koumou_heartfullpop_ruriko,0.12482055276632309,0
60,100,0.8181818181818182,572,0,66,DL_heartfullpop_2_Guitar,6,13,koumou_heartfullpop_ruriko,0.17902152240276337,0
53,100,0.1,56,1,67,DL_heartfullpop_2_Guitar,6,2,koumou_heartfullpop_ruriko,0.9983736276626587,1
65,100,0.3409090909090909,100,0,67,DL_heartfullpop_2_Guitar,6,5,koumou_heartfullpop_ruriko,0.05105988308787346,0
60,100,0.32272727272727275,179,0,67,DL_heartfullpop_2_Guitar,6,5,koumou_heartfullpop_ruriko,0.04130261018872261,0
65,100,0.17727272727272728,260,0,67,DL_heartfullpop_2_Guitar,6,3,koumou_heartfullpop_ruriko,0.03738414868712425,0
60,100,0.2,365,0,67,DL_heartfullpop_2_Guitar,6,3,koumou_heartfullpop_ruriko,0.03832835331559181,0
60,100,0.7,413,0,67,DL_heartfullpop_2_Guitar,6,11,koumou_heartfullpop_ruriko,0.04474984109401703,0
60,100,0.3,612,0,67,DL_heartfullpop_2_Guitar,6,5,koumou_heartfullpop_ruriko,0.05522682145237923,0
65,100,0.3,832,0,67,DL_heartfullpop_2_Guitar,6,5,koumou_heartfullpop_ruriko,0.0902630165219307,0
60,100,0.21818181818181817,30,1,68,DL_heartfullpop_2_Guitar,6,3,koumou_heartfullpop_ruriko,0.9983737468719482,1
65,100,0.38181818181818183,113,0,68,DL_heartfullpop_2_Guitar,6,6,koumou_heartfullpop_ruriko,0.05106017366051674,0
53,100,0.12272727272727273,202,0,68,DL_heartfullpop_2_Guitar,6,2,koumou_heartfullpop_ruriko,0.041302602738142014,0
65,100,0.4,242,0,68,DL_heartfullpop_2_Guitar,6,6,koumou_heartfullpop_ruriko,0.03738531842827797,0
60,100,0.5409090909090909,330,0,68,DL_heartfullpop_2_Guitar,6,9,koumou_heartfullpop_ruriko,0.038329292088747025,0
65,100,0.3181818181818182,457,0,68,DL_heartfullpop_2_Guitar,6,5,koumou_heartfullpop_ruriko,0.04475155100226402,0
60,100,0.7818181818181819,593,0,68,DL_heartfullpop_2_Guitar,6,13,koumou_heartfullpop_ruriko,0.055228590965270996,0
53,100,0.9409090909090909,839,1,68,DL_heartfullpop_2_Guitar,6,15,koumou_heartfullpop_ruriko,0.09026183187961578,0
65,100,0.2818181818181818,166,1,69,DL_heartfullpop_2_Guitar,6,5,koumou_heartfullpop_ruriko,0.9986500144004822,1
53,100,0.11818181818181818,263,0,69,DL_heartfullpop_2_Guitar,6,2,koumou_heartfullpop_ruriko,0.0878015011548996,0
53,100,0.1590909090909091,294,0,69,DL_heartfullpop_2_Guitar,6,3,koumou_heartfullpop_ruriko,0.09181063622236252,0
53,100,0.2590909090909091,352,0,69,DL_heartfullpop_2_Guitar,6,4,koumou_heartfullpop_ruriko,0.10747651010751724,0
53,100,0.3,496,0,69,DL_heartfullpop_2_Guitar,6,5,koumou_heartfullpop_ruriko,0.12482420355081558,0
65,100,0.22272727272727272,563,0,69,DL_heartfullpop_2_Guitar,6,4,koumou_heartfullpop_ruriko,0.179022416472435,0
60,100,0.1590909090909091,40,1,70,DL_heartfullpop_2_Guitar,6,3,koumou_heartfullpop_ruriko,0.9982553124427795,1
60,100,0.11818181818181818,87,0,70,DL_heartfullpop_2_Guitar,6,2,koumou_heartfullpop_ruriko,0.04128730297088623,0
53,100,0.2818181818181818,123,0,70,DL_heartfullpop_2_Guitar,6,5,koumou_heartfullpop_ruriko,0.028933389112353325,0
65,100,0.3,330,0,70,DL_heartfullpop_2_Guitar,6,5,koumou_heartfullpop_ruriko,0.02128743752837181,0
53,100,0.2818181818181818,396,0,70,DL_heartfullpop_2_Guitar,6,5,koumou_heartfullpop_ruriko,0.01674405299127102,0
53,100,0.11818181818181818,470,0,70,DL_heartfullpop_2_Guitar,6,2,koumou_heartfullpop_ruriko,0.01491698157042265,0
53,100,0.36363636363636365,509,0,70,DL_heartfullpop_2_Guitar,6,6,koumou_heartfullpop_ruriko,0.01601445861160755,0
60,100,0.2409090909090909,597,0,70,DL_heartfullpop_2_Guitar,6,4,koumou_heartfullpop_ruriko,0.021177753806114197,0
53,100,0.4772727272727273,656,0,70,DL_heartfullpop_2_Guitar,6,8,koumou_heartfullpop_ruriko,0.03156452998518944,0
53,100,0.5772727272727273,766,0,70,DL_heartfullpop_2_Guitar,6,9,koumou_heartfullpop_ruriko,0.06005661562085152,0
60,100,0.21818181818181817,40,1,71,DL_heartfullpop_2_Guitar,6,3,koumou_heartfullpop_ruriko,0.9983004927635193,1
53,100,0.11818181818181818,106,0,71,DL_heartfullpop_2_Guitar,6,2,koumou_heartfullpop_ruriko,0.04466375708580017,0
53,100,0.1409090909090909,157,0,71,DL_heartfullpop_2_Guitar,6,2,koumou_heartfullpop_ruriko,0.03314968943595886,0
60,100,0.21818181818181817,197,0,71,DL_heartfullpop_2_Guitar,6,3,koumou_heartfullpop_ruriko,0.0265803225338459,0
62,100,0.2590909090909091,276,0,71,DL_heartfullpop_2_Guitar,6,4,koumou_heartfullpop_ruriko,0.023595623672008514,0
62,100,0.6181818181818182,339,0,71,DL_heartfullpop_2_Guitar,6,10,koumou_heartfullpop_ruriko,0.024315232411026955,0
62,100,0.2590909090909091,480,0,71,DL_heartfullpop_2_Guitar,6,4,koumou_heartfullpop_ruriko,0.02969101257622242,0
62,100,0.2409090909090909,603,0,71,DL_heartfullpop_2_Guitar,6,4,koumou_heartfullpop_ruriko,0.04007779061794281,0
65,100,0.2590909090909091,870,1,71,DL_heartfullpop_2_Guitar,6,4,koumou_heartfullpop_ruriko,0.0709320679306984,0
65,100,0.4409090909090909,69,1,72,DL_heartfullpop_2_Guitar,6,7,koumou_heartfullpop_ruriko,0.9983736276626587,1
62,100,0.3,233,0,72,DL_heartfullpop_2_Guitar,6,5,koumou_heartfullpop_ruriko,0.05106107145547867,0
65,100,0.17727272727272728,370,0,72,DL_heartfullpop_2_Guitar,6,3,koumou_heartfullpop_ruriko,0.041303638368844986,0
62,100,0.36363636363636365,553,0,72,DL_heartfullpop_2_Guitar,6,6,koumou_heartfullpop_ruriko,0.03738674893975258,0
65,100,0.3181818181818182,633,0,72,DL_heartfullpop_2_Guitar,6,5,koumou_heartfullpop_ruriko,0.03833123669028282,0
53,100,0.2,716,0,72,DL_heartfullpop_2_Guitar,6,3,koumou_heartfullpop_ruriko,0.04475244879722595,0
62,100,0.11818181818181818,823,0,72,DL_heartfullpop_2_Guitar,6,2,koumou_heartfullpop_ruriko,0.0552310049533844,0
62,100,0.4,866,0,72,DL_heartfullpop_2_Guitar,6,6,koumou_heartfullpop_ruriko,0.09026680141687393,0
57,100,0.1590909090909091,79,1,73,DL_heartfullpop_2_Guitar,6,3,koumou_heartfullpop_ruriko,0.9986500144004822,1
65,100,0.1590909090909091,145,0,73,DL_heartfullpop_2_Guitar,6,3,koumou_heartfullpop_ruriko,0.08780250698328018,0
57,100,0.13636363636363635,216,0,73,DL_heartfullpop_2_Guitar,6,2,koumou_heartfullpop_ruriko,0.0918147936463356,0
65,100,0.2818181818181818,386,0,73,DL_heartfullpop_2_Guitar,6,5,koumou_heartfullpop_ruriko,0.10747828334569931,0
62,100,0.12272727272727273,453,0,73,DL_heartfullpop_2_Guitar,6,2,koumou_heartfullpop_ruriko,0.1248272955417633,0
53,100,0.18181818181818182,593,0,73,DL_heartfullpop_2_Guitar,6,3,koumou_heartfullpop_ruriko,0.17903658747673035,0
60,100,0.32272727272727275,13,1,74,DL_heartfullpop_2_Guitar,6,5,koumou_heartfullpop_ruriko,0.9983004927635193,1
53,100,0.2590909090909091,100,0,74,DL_heartfullpop_2_Guitar,6,4,koumou_heartfullpop_ruriko,0.04466280713677406,0
53,100,0.35909090909090907,352,1,74,DL_heartfullpop_2_Guitar,6,6,koumou_heartfullpop_ruriko,0.03314776346087456,0
53,100,0.2,436,0,74,DL_heartfullpop_2_Guitar,6,3,koumou_heartfullpop_ruriko,0.026578372344374657,0
65,100,0.1,502,0,74,DL_heartfullpop_2_Guitar,6,2,koumou_heartfullpop_ruriko,0.023593218997120857,0
65,100,0.1,536,0,74,DL_heartfullpop_2_Guitar,6,2,koumou_heartfullpop_ruriko,0.0243129450827837,0
53,100,0.1409090909090909,619,0,74,DL_heartfullpop_2_Guitar,6,2,koumou_heartfullpop_ruriko,0.02968720905482769,0
53,100,0.2,747,0,74,DL_heartfullpop_2_Guitar,6,3,koumou_heartfullpop_ruriko,0.040074001997709274,0
60,100,0.2,849,0,74,DL_heartfullpop_2_Guitar,6,3,koumou_heartfullpop_ruriko,0.07092537730932236,0
65,100,0.2,22,1,75,DL_heartfullpop_2_Guitar,6,3,koumou_heartfullpop_ruriko,0.9983003735542297,1
53,100,0.2409090909090909,69,0,75,DL_heartfullpop_2_Guitar,6,4,koumou_heartfullpop_ruriko,0.04466339200735092,0
60,100,0.41818181818181815,150,0,75,DL_heartfullpop_2_Guitar,6,7,koumou_heartfullpop_ruriko,0.033149827271699905,0
60,100,0.4818181818181818,286,0,75,DL_heartfullpop_2_Guitar,6,8,koumou_heartfullpop_ruriko,0.026579231023788452,0
65,100,0.3,392,0,75,DL_heartfullpop_2_Guitar,6,5,koumou_heartfullpop_ruriko,0.023593923076987267,0
60,100,0.12272727272727273,466,0,75,DL_heartfullpop_2_Guitar,6,2,koumou_heartfullpop_ruriko,0.024314550682902336,0
53,100,0.16363636363636364,509,0,75,DL_heartfullpop_2_Guitar,6,3,koumou_heartfullpop_ruriko,0.02968849055469036,0
65,100,0.4409090909090909,597,0,75,DL_heartfullpop_2_Guitar,6,7,koumou_heartfullpop_ruriko,0.04007640480995178,0
53,100,0.4409090909090909,844,1,75,DL_heartfullpop_2_Guitar,6,7,koumou_heartfullpop_ruriko,0.07092633843421936,0
53,100,0.2590909090909091,83,1,76,DL_heartfullpop_2_Guitar,6,4,koumou_heartfullpop_ruriko,0.9988419413566589,1
53,100,0.18181818181818182,176,0,76,DL_heartfullpop_2_Guitar,6,3,koumou_heartfullpop_ruriko,0.1372435837984085,0
53,100,1.1,229,0,76,DL_heartfullpop_2_Guitar,6,15,koumou_heartfullpop_ruriko,0.1597679704427719,0
60,100,0.1409090909090909,713,1,76,DL_heartfullpop_2_Guitar,6,2,koumou_heartfullpop_ruriko,0.1864514946937561,0
53,100,0.23636363636363636,876,0,76,DL_heartfullpop_2_Guitar,6,4,koumou_heartfullpop_ruriko,0.258156418800354,0
53,100,0.5590909090909091,127,1,77,DL_heartfullpop_2_Guitar,6,9,koumou_heartfullpop_ruriko,0.9986500144004822,1
60,100,0.1,413,1,77,DL_heartfullpop_2_Guitar,6,2,koumou_heartfullpop_ruriko,0.08780434727668762,0
53,100,0.5,440,0,77,DL_heartfullpop_2_Guitar,6,8,koumou_heartfullpop_ruriko,0.09181438386440277,0
53,100,0.18181818181818182,563,0,77,DL_heartfullpop_2_Guitar,6,3,koumou_heartfullpop_ruriko,0.10747351497411728,0
65,100,0.11818181818181818,656,0,77,DL_heartfullpop_2_Guitar,6,2,koumou_heartfullpop_ruriko,0.12482471019029617,0
60,100,0.3181818181818182,734,0,77,DL_heartfullpop_2_Guitar,6,5,koumou_heartfullpop_ruriko,0.17902909219264984,0
53,100,0.12272727272727273,69,1,78,DL_heartfullpop_2_Guitar,6,2,koumou_heartfullpop_ruriko,0.9983736276626587,1
60,100,0.11818181818181818,119,0,78,DL_heartfullpop_2_Guitar,6,2,koumou_heartfullpop_ruriko,0.05106094479560852,0
53,100,0.8772727272727273,273,0,78,DL_heartfullpop_2_Guitar,6,14,koumou_heartfullpop_ruriko,0.04130113124847412,0
65,100,0.22272727272727272,532,1,78,DL_heartfullpop_2_Guitar,6,4,koumou_heartfullpop_ruriko,0.03738474100828171,0
65,100,0.36363636363636365,597,0,78,DL_heartfullpop_2_Guitar,6,6,koumou_heartfullpop_ruriko,0.038327816873788834,0
65,100,0.18181818181818182,682,0,78,DL_heartfullpop_2_Guitar,6,3,koumou_heartfullpop_ruriko,0.04474930837750435,0
53,100,0.1,722,0,78,DL_heartfullpop_2_Guitar,6,2,koumou_heartfullpop_ruriko,0.05522644892334938,0
65,100,0.3,743,0,78,DL_heartfullpop_2_Guitar,6,5,koumou_heartfullpop_ruriko,0.09025974571704865,0
53,100,0.1,110,1,79,DL_heartfullpop_2_Guitar,6,2,koumou_heartfullpop_ruriko,0.9990230798721313,1
55,100,0.21818181818181817,457,1,79,DL_heartfullpop_2_Guitar,6,3,koumou_heartfullpop_ruriko,0.3666350245475769,0
55,100,1.3,673,0,79,DL_heartfullpop_2_Guitar,6,15,koumou_heartfullpop_ruriko,0.45327794551849365,0
55,100,0.42272727272727273,453,1,80,DL_heartfullpop_2_Guitar,6,7,koumou_heartfullpop_ruriko,0.9990229606628418,1
53,100,0.1409090909090909,637,0,80,DL_heartfullpop_2_Guitar,6,2,koumou_heartfullpop_ruriko,0.3666217029094696,0
65,100,0.38181818181818183,673,0,80,DL_heartfullpop_2_Guitar,6,6,koumou_heartfullpop_ruriko,0.45328959822654724,0
53,100,0.11818181818181818,153,1,81,DL_heartfullpop_2_Guitar,6,2,koumou_heartfullpop_ruriko,0.9990229606628418,1
65,100,0.12272727272727273,532,1,81,DL_heartfullpop_2_Guitar,6,2,koumou_heartfullpop_ruriko,0.3666199743747711,0
62,100,0.1,743,0,81,DL_heartfullpop_2_Guitar,6,2,koumou_heartfullpop_ruriko,0.4532909691333771,0
53,100,0.13636363636363635,303,1,82,DL_heartfullpop_2_Guitar,6,2,koumou_heartfullpop_ruriko,0.9792551398277283,0
55,100,0.1,197,1,84,DL_heartfullpop_2_Guitar,6,2,koumou_heartfullpop_ruriko,0.9990229606628418,1
60,100,0.1409090909090909,426,0,84,DL_heartfullpop_2_Guitar,6,2,koumou_heartfullpop_ruriko,0.36663126945495605,0
60,100,1.8772727272727272,480,0,84,DL_heartfullpop_2_Guitar,6,15,koumou_heartfullpop_ruriko,0.45328444242477417,0
53,100,0.1,330,1,85,DL_heartfullpop_2_Guitar,6,2,koumou_heartfullpop_ruriko,0.9986500144004822,1
53,100,0.2772727272727273,392,0,85,DL_heartfullpop_2_Guitar,6,4,koumou_heartfullpop_ruriko,0.08780216425657272,0
53,100,0.3,462,0,85,DL_heartfullpop_2_Guitar,6,5,koumou_heartfullpop_ruriko,0.09181370586156845,0
53,100,0.2772727272727273,567,0,85,DL_heartfullpop_2_Guitar,6,4,koumou_heartfullpop_ruriko,0.10747730731964111,0
53,100,0.2409090909090909,800,1,85,DL_heartfullpop_2_Guitar,6,4,koumou_heartfullpop_ruriko,0.12482363730669022,0
57,100,0.1,866,0,85,DL_heartfullpop_2_Guitar,6,2,koumou_heartfullpop_ruriko,0.1790316253900528,0
60,100,0.17727272727272728,273,1,86,DL_heartfullpop_2_Guitar,6,3,koumou_heartfullpop_ruriko,0.9986500144004822,1
60,100,0.18181818181818182,320,0,86,DL_heartfullpop_2_Guitar,6,3,koumou_heartfullpop_ruriko,0.08780457079410553,0
60,100,0.4,392,0,86,DL_heartfullpop_2_Guitar,6,6,koumou_heartfullpop_ruriko,0.0918131023645401,0
53,100,0.3181818181818182,480,0,86,DL_heartfullpop_2_Guitar,6,5,koumou_heartfullpop_ruriko,0.10747940838336945,0
60,100,0.2409090909090909,559,0,86,DL_heartfullpop_2_Guitar,6,4,koumou_heartfullpop_ruriko,0.12482702732086182,0
60,100,0.2772727272727273,844,1,86,DL_heartfullpop_2_Guitar,6,4,koumou_heartfullpop_ruriko,0.17903360724449158,0
60,100,0.2,30,1,87,DL_heartfullpop_2_Guitar,6,3,koumou_heartfullpop_ruriko,0.9990057349205017,1
60,100,0.11818181818181818,87,0,87,DL_heartfullpop_2_Guitar,6,2,koumou_heartfullpop_ruriko,0.2312023937702179,0
60,100,0.11818181818181818,197,0,87,DL_heartfullpop_2_Guitar,6,2,koumou_heartfullpop_ruriko,0.2659231424331665,0
53,100,0.8590909090909091,703,1,87,DL_heartfullpop_2_Guitar,6,14,koumou_heartfullpop_ruriko,0.35419073700904846,0
65,100,0.42272727272727273,13,1,88,DL_heartfullpop_2_Guitar,6,7,koumou_heartfullpop_ruriko,0.9983736276626587,1
53,100,0.21818181818181817,140,0,88,DL_heartfullpop_2_Guitar,6,3,koumou_heartfullpop_ruriko,0.051060233265161514,0
53,100,0.1409090909090909,202,0,88,DL_heartfullpop_2_Guitar,6,2,koumou_heartfullpop_ruriko,0.04130161926150322,0
65,100,0.1590909090909091,260,0,88,DL_heartfullpop_2_Guitar,6,3,koumou_heartfullpop_ruriko,0.03738424554467201,0
65,100,0.17727272727272728,413,0,88,DL_heartfullpop_2_Guitar,6,3,koumou_heartfullpop_ruriko,0.03832761570811272,0
53,100,0.21818181818181817,480,0,88,DL_heartfullpop_2_Guitar,6,3,koumou_heartfullpop_ruriko,0.044749096035957336,0
62,100,0.11818181818181818,580,0,88,DL_heartfullpop_2_Guitar,6,2,koumou_heartfullpop_ruriko,0.05522515997290611,0
65,100,0.18181818181818182,673,0,88,DL_heartfullpop_2_Guitar,6,3,koumou_heartfullpop_ruriko,0.09025976806879044,0
60,100,0.2409090909090909,35,1,89,DL_heartfullpop_2_Guitar,6,4,koumou_heartfullpop_ruriko,0.9983004927635193,1
65,100,0.6818181818181818,87,0,89,DL_heartfullpop_2_Guitar,6,11,koumou_heartfullpop_ruriko,0.04466349259018898,0
53,100,0.13636363636363635,282,0,89,DL_heartfullpop_2_Guitar,6,2,koumou_heartfullpop_ruriko,0.033149175345897675,0
60,100,0.6590909090909091,370,0,89,DL_heartfullpop_2_Guitar,6,11,koumou_heartfullpop_ruriko,0.02657998912036419,0
60,100,0.35909090909090907,536,0,89,DL_heartfullpop_2_Guitar,6,6,koumou_heartfullpop_ruriko,0.023594597354531288,0
65,100,0.4636363636363636,619,0,89,DL_heartfullpop_2_Guitar,6,7,koumou_heartfullpop_ruriko,0.024312809109687805,0
60,100,0.11818181818181818,792,0,89,DL_heartfullpop_2_Guitar,6,2,koumou_heartfullpop_ruriko,0.02968856878578663,0
65,100,0.1,832,0,89,DL_heartfullpop_2_Guitar,6,2,koumou_heartfullpop_ruriko,0.04007437080144882,0
53,100,0.1590909090909091,866,0,89,DL_heartfullpop_2_Guitar,6,3,koumou_heartfullpop_ruriko,0.07092399150133133,0
60,100,1.2227272727272727,123,1,90,DL_heartfullpop_2_Guitar,6,15,koumou_heartfullpop_ruriko,0.9990229606628418,1
60,100,1.1818181818181819,506,1,90,DL_heartfullpop_2_Guitar,6,15,koumou_heartfullpop_ruriko,0.36662447452545166,0
65,100,0.41818181818181815,792,1,90,DL_heartfullpop_2_Guitar,6,7,koumou_heartfullpop_ruriko,0.45328646898269653,0
65,100,0.1590909090909091,56,1,91,DL_heartfullpop_2_Guitar,6,3,koumou_heartfullpop_ruriko,0.9982553124427795,1
60,100,0.1409090909090909,100,0,91,DL_heartfullpop_2_Guitar,6,2,koumou_heartfullpop_ruriko,0.04128680005669594,0
65,100,0.18181818181818182,179,0,91,DL_heartfullpop_2_Guitar,6,3,koumou_heartfullpop_ruriko,0.028932616114616394,0
53,100,0.11818181818181818,220,0,91,DL_heartfullpop_2_Guitar,6,2,koumou_heartfullpop_ruriko,0.021286457777023315,0
53,100,0.6181818181818182,273,0,91,DL_heartfullpop_2_Guitar,6,10,koumou_heartfullpop_ruriko,0.016743550077080727,0
53,100,0.2590909090909091,426,0,91,DL_heartfullpop_2_Guitar,6,4,koumou_heartfullpop_ruriko,0.014916840940713882,0
53,100,0.38181818181818183,519,0,91,DL_heartfullpop_2_Guitar,6,6,koumou_heartfullpop_ruriko,0.016014136373996735,0
53,100,0.23636363636363636,633,0,91,DL_heartfullpop_2_Guitar,6,4,koumou_heartfullpop_ruriko,0.02117730677127838,0
53,100,0.3409090909090909,695,0,91,DL_heartfullpop_2_Guitar,6,5,koumou_heartfullpop_ruriko,0.031564876437187195,0
53,100,0.32272727272727275,870,0,91,DL_heartfullpop_2_Guitar,6,5,koumou_heartfullpop_ruriko,0.06005570665001869,0
53,100,0.1409090909090909,92,1,92,DL_heartfullpop_2_Guitar,6,2,koumou_heartfullpop_ruriko,0.9986500144004822,1
53,100,0.759090909090909,172,0,92,DL_heartfullpop_2_Guitar,6,12,koumou_heartfullpop_ruriko,0.08780189603567123,0
53,100,0.16363636363636364,399,0,92,DL_heartfullpop_2_Guitar,6,3,koumou_heartfullpop_ruriko,0.09181215614080429,0
53,100,0.38181818181818183,440,0,92,DL_heartfullpop_2_Guitar,6,6,koumou_heartfullpop_ruriko,0.10747568309307098,0
53,100,0.12272727272727273,629,0,92,DL_heartfullpop_2_Guitar,6,2,koumou_heartfullpop_ruriko,0.12481991201639175,0
53,100,0.6,826,0,92,DL_heartfullpop_2_Guitar,6,10,koumou_heartfullpop_ruriko,0.1790207475423813,0
53,100,0.3,399,1,93,DL_heartfullpop_2_Guitar,6,5,koumou_heartfullpop_ruriko,0.979255735874176,1
55,100,0.2590909090909091,475,1,0,_Guitar,6,4,rocky_japanesefolk,0.9990057349205017,1
52,100,0.1590909090909091,704,0,0,_Guitar,6,3,rocky_japanesefolk,0.2312038391828537,0
52,100,0.17727272727272728,757,0,0,_Guitar,6,3,rocky_japanesefolk,0.2659212350845337,0
55,100,0.35909090909090907,871,0,0,_Guitar,6,6,rocky_japanesefolk,0.35419803857803345,0
55,100,0.18181818181818182,597,1,1,_Guitar,6,3,rocky_japanesefolk,0.9983165264129639,1
55,100,0.3,642,0,1,_Guitar,6,5,rocky_japanesefolk,0.5445585250854492,0
55,100,0.11818181818181818,339,1,2,_Guitar,6,2,rocky_japanesefolk,0.9983165264129639,1
60,100,0.2590909090909091,474,0,2,_Guitar,6,4,rocky_japanesefolk,0.5445578694343567,0
55,100,0.32272727272727275,136,1,3,_Guitar,6,5,rocky_japanesefolk,0.9988419413566589,1
53,100,0.2590909090909091,351,0,3,_Guitar,6,4,rocky_japanesefolk,0.1372479945421219,0
53,100,0.1409090909090909,537,0,3,_Guitar,6,2,rocky_japanesefolk,0.15977945923805237,0
57,100,0.5,571,0,3,_Guitar,6,8,rocky_japanesefolk,0.18644961714744568,0
57,100,0.2590909090909091,703,0,3,_Guitar,6,4,rocky_japanesefolk,0.2581685781478882,0
57,100,0.1590909090909091,61,1,4,_Guitar,6,3,rocky_japanesefolk,0.9986500144004822,1
53,100,0.35909090909090907,101,0,4,_Guitar,6,6,rocky_japanesefolk,0.08780357986688614,0
52,100,0.2,179,0,4,_Guitar,6,3,rocky_japanesefolk,0.09181533008813858,0
52,100,0.2,238,0,4,_Guitar,6,3,rocky_japanesefolk,0.10747968405485153,0
55,100,0.1409090909090909,317,0,4,_Guitar,6,2,rocky_japanesefolk,0.12482751905918121,0
60,100,0.4,496,0,4,_Guitar,6,6,rocky_japanesefolk,0.1790330559015274,0
57,100,0.5,317,1,5,_Guitar,6,8,rocky_japanesefolk,0.9983165264129639,1
55,100,1.0,744,1,5,_Guitar,6,15,rocky_japanesefolk,0.5445539355278015,0
55,100,0.1409090909090909,135,1,6,_Guitar,6,2,rocky_japanesefolk,0.9990229606628418,1
52,100,0.5590909090909091,352,0,6,_Guitar,6,9,rocky_japanesefolk,0.3666243255138397,0
55,100,1.3818181818181818,483,0,6,_Guitar,6,15,rocky_japanesefolk,0.4532892405986786,0
55,100,0.8590909090909091,220,1,7,_Guitar,6,14,rocky_japanesefolk,0.9792559146881104,0
52,100,0.7181818181818181,250,1,8,_Guitar,6,11,rocky_japanesefolk,0.9986500144004822,1
55,100,0.33636363636363636,436,0,8,_Guitar,6,5,rocky_japanesefolk,0.08780407905578613,0
55,100,0.1590909090909091,515,0,8,_Guitar,6,3,rocky_japanesefolk,0.09181584417819977,0
57,100,0.7772727272727272,567,0,8,_Guitar,6,12,rocky_japanesefolk,0.10747811198234558,0
57,100,0.4,744,0,8,_Guitar,6,6,rocky_japanesefolk,0.12482759356498718,0
53,100,0.759090909090909,871,0,8,_Guitar,6,12,rocky_japanesefolk,0.17903412878513336,0
53,100,0.18181818181818182,166,1,9,_Guitar,6,3,rocky_japanesefolk,0.9990229606628418,1
53,100,0.11818181818181818,259,0,9,_Guitar,6,2,rocky_japanesefolk,0.36663156747817993,0
57,100,1.3590909090909091,295,0,9,_Guitar,6,15,rocky_japanesefolk,0.4532765746116638,0
52,100,0.6818181818181818,44,1,10,_Guitar,6,11,rocky_japanesefolk,0.9983165264129639,1
55,100,0.9818181818181818,660,1,10,_Guitar,6,15,rocky_japanesefolk,0.5445536375045776,0
55,100,0.3,0,1,11,_Guitar,6,5,rocky_japanesefolk,0.9984880685806274,1
52,100,0.6181818181818182,228,0,11,_Guitar,6,10,rocky_japanesefolk,0.06334560364484787,0
55,100,0.4590909090909091,383,0,11,_Guitar,6,7,rocky_japanesefolk,0.05774230509996414,0
55,100,0.11818181818181818,493,0,11,_Guitar,6,2,rocky_japanesefolk,0.06020401045680046,0
53,100,0.3181818181818182,646,0,11,_Guitar,6,5,rocky_japanesefolk,0.06970255821943283,0
57,100,0.2409090909090909,783,0,11,_Guitar,6,4,rocky_japanesefolk,0.08189572393894196,0
53,100,0.18181818181818182,849,0,11,_Guitar,6,3,rocky_japanesefolk,0.12402496486902237,0
55,100,0.1,352,1,12,_Guitar,6,2,rocky_japanesefolk,0.9990057349205017,1
55,100,0.38181818181818183,462,0,12,_Guitar,6,6,rocky_japanesefolk,0.23121057450771332,0
55,100,0.21818181818181817,634,0,12,_Guitar,6,3,rocky_japanesefolk,0.2659187316894531,0
55,100,0.4,871,1,12,_Guitar,6,6,rocky_japanesefolk,0.3541913628578186,0
52,100,0.21818181818181817,110,1,13,_Guitar,6,3,rocky_japanesefolk,0.9990057349205017,1
52,100,0.6,171,0,13,_Guitar,6,10,rocky_japanesefolk,0.2312001734972,0
60,100,0.32272727272727275,321,0,13,_Guitar,6,5,rocky_japanesefolk,0.26592275500297546,0
55,100,0.2409090909090909,663,1,13,_Guitar,6,4,rocky_japanesefolk,0.3541903793811798,0
57,100,0.35909090909090907,206,1,14,_Guitar,6,6,rocky_japanesefolk,0.9990057349205017,1
60,100,0.2818181818181818,386,0,14,_Guitar,6,5,rocky_japanesefolk,0.23121219873428345,0
53,100,0.21818181818181817,493,0,14,_Guitar,6,3,rocky_japanesefolk,0.2659255862236023,0
62,100,0.37727272727272726,546,0,14,_Guitar,6,6,rocky_japanesefolk,0.35420000553131104,0
52,100,0.35909090909090907,189,1,15,_Guitar,6,6,rocky_japanesefolk,0.9990229606628418,1
64,100,0.2,716,1,15,_Guitar,6,3,rocky_japanesefolk,0.3666157126426697,0
64,100,0.1,766,0,15,_Guitar,6,2,rocky_japanesefolk,0.45329880714416504,0
57,100,0.3181818181818182,281,1,16,_Guitar,6,5,rocky_japanesefolk,0.9990057349205017,1
52,100,0.2,598,1,16,_Guitar,6,3,rocky_japanesefolk,0.23120954632759094,0
52,100,0.18181818181818182,650,0,16,_Guitar,6,3,rocky_japanesefolk,0.26592639088630676,0
57,100,0.12272727272727273,804,0,16,_Guitar,6,2,rocky_japanesefolk,0.3542018532752991,0
59,100,1.2,9,1,17,_Guitar,6,15,rocky_japanesefolk,0.9990229606628418,1
53,100,0.18181818181818182,285,1,17,_Guitar,6,3,rocky_japanesefolk,0.3666238784790039,0
57,100,0.21818181818181817,470,0,17,_Guitar,6,3,rocky_japanesefolk,0.45328807830810547,0
56,100,0.7181818181818181,656,1,18,_Guitar,6,11,rocky_japanesefolk,0.9792558550834656,0
56,100,0.2409090909090909,88,1,19,_Guitar,6,4,rocky_japanesefolk,0.9983164072036743,1
56,100,0.8590909090909091,144,0,19,_Guitar,6,14,rocky_japanesefolk,0.5445549488067627,0
57,100,0.18181818181818182,88,1,20,_Guitar,6,3,rocky_japanesefolk,0.9792563915252686,0
55,100,0.2590909090909091,131,1,22,_Guitar,6,4,rocky_japanesefolk,0.9988420605659485,1
55,100,0.3409090909090909,210,0,22,_Guitar,6,5,rocky_japanesefolk,0.1372525840997696,0
55,100,0.1409090909090909,333,0,22,_Guitar,6,2,rocky_japanesefolk,0.15977536141872406,0
55,100,0.5409090909090909,405,0,22,_Guitar,6,9,rocky_japanesefolk,0.18644516170024872,0
52,100,0.33636363636363636,831,1,22,_Guitar,6,5,rocky_japanesefolk,0.25815847516059875,0
52,100,0.2590909090909091,61,1,23,_Guitar,6,4,rocky_japanesefolk,0.9984880685806274,1
52,100,0.5590909090909091,123,0,23,_Guitar,6,9,rocky_japanesefolk,0.06334506720304489,0
52,100,0.2818181818181818,277,0,23,_Guitar,6,5,rocky_japanesefolk,0.0577436201274395,0
55,100,0.32272727272727275,356,0,23,_Guitar,6,5,rocky_japanesefolk,0.06020331010222435,0
52,100,0.3409090909090909,426,0,23,_Guitar,6,5,rocky_japanesefolk,0.06970693171024323,0
55,100,0.5181818181818182,581,0,23,_Guitar,6,8,rocky_japanesefolk,0.08189553022384644,0
55,100,0.37727272727272726,779,0,23,_Guitar,6,6,rocky_japanesefolk,0.12402540445327759,0
55,100,0.16363636363636364,113,1,24,_Guitar,6,3,rocky_japanesefolk,0.9983004927635193,1
55,100,0.22272727272727272,246,0,24,_Guitar,6,4,rocky_japanesefolk,0.04466329887509346,0
53,100,0.4409090909090909,308,0,24,_Guitar,6,7,rocky_japanesefolk,0.0331488698720932,0
53,100,0.4,430,0,24,_Guitar,6,6,rocky_japanesefolk,0.026578865945339203,0
53,100,0.4,594,0,24,_Guitar,6,6,rocky_japanesefolk,0.023594383150339127,0
57,100,0.3,694,0,24,_Guitar,6,5,rocky_japanesefolk,0.024313705042004585,0
53,100,0.2,770,0,24,_Guitar,6,3,rocky_japanesefolk,0.029688507318496704,0
57,100,0.1,822,0,24,_Guitar,6,2,rocky_japanesefolk,0.040074627846479416,0
53,100,0.1590909090909091,853,0,24,_Guitar,6,3,rocky_japanesefolk,0.0709284096956253,0
55,100,0.5636363636363636,69,1,25,_Guitar,6,9,rocky_japanesefolk,0.9983736276626587,1
52,100,0.12272727272727273,210,0,25,_Guitar,6,2,rocky_japanesefolk,0.051062215119600296,0
52,100,0.17727272727272728,250,0,25,_Guitar,6,3,rocky_japanesefolk,0.041302841156721115,0
52,100,0.21818181818181817,374,0,25,_Guitar,6,3,rocky_japanesefolk,0.03738662973046303,0
52,100,0.1,457,0,25,_Guitar,6,2,rocky_japanesefolk,0.03833248093724251,0
55,100,0.11818181818181818,492,0,25,_Guitar,6,2,rocky_japanesefolk,0.04475383460521698,0
52,100,0.6227272727272727,663,0,25,_Guitar,6,10,rocky_japanesefolk,0.05523364245891571,0
57,100,0.3,839,0,25,_Guitar,6,5,rocky_japanesefolk,0.09026835113763809,0
52,100,0.18181818181818182,443,1,26,_Guitar,6,3,rocky_japanesefolk,0.9990057349205017,1
52,100,0.35909090909090907,501,0,26,_Guitar,6,6,rocky_japanesefolk,0.23120003938674927,0
52,100,0.42272727272727273,752,1,26,_Guitar,6,7,rocky_japanesefolk,0.26591742038726807,0
52,100,0.5818181818181818,862,0,26,_Guitar,6,9,rocky_japanesefolk,0.3541998267173767,0
53,100,0.12272727272727273,123,1,27,_Guitar,6,2,rocky_japanesefolk,0.9984880685806274,1
53,100,0.2818181818181818,154,0,27,_Guitar,6,5,rocky_japanesefolk,0.06334275752305984,0
53,100,0.2590909090909091,220,0,27,_Guitar,6,4,rocky_japanesefolk,0.057739678770303726,0
53,100,0.4590909090909091,413,0,27,_Guitar,6,7,rocky_japanesefolk,0.060197968035936356,0
57,100,0.1590909090909091,615,0,27,_Guitar,6,3,rocky_japanesefolk,0.06969784200191498,0
53,100,0.2818181818181818,660,0,27,_Guitar,6,5,rocky_japanesefolk,0.0818890929222107,0
55,100,0.1,791,0,27,_Guitar,6,2,rocky_japanesefolk,0.12401356548070908,0
55,100,0.11818181818181818,285,1,28,_Guitar,6,2,rocky_japanesefolk,0.9990057349205017,1
52,100,0.11818181818181818,470,0,28,_Guitar,6,2,rocky_japanesefolk,0.2312011867761612,0
52,100,0.2,717,1,28,_Guitar,6,3,rocky_japanesefolk,0.26591894030570984,0
52,100,0.3409090909090909,773,0,28,_Guitar,6,5,rocky_japanesefolk,0.35420119762420654,0
55,100,0.1590909090909091,17,1,29,_Guitar,6,3,rocky_japanesefolk,0.9986500144004822,1
55,100,0.5,206,0,29,_Guitar,6,8,rocky_japanesefolk,0.08780308812856674,0
55,100,0.3181818181818182,426,0,29,_Guitar,6,5,rocky_japanesefolk,0.09181294590234756,0
62,100,0.1409090909090909,584,0,29,_Guitar,6,2,rocky_japanesefolk,0.10747744888067245,0
55,100,0.11818181818181818,735,0,29,_Guitar,6,2,rocky_japanesefolk,0.12482557445764542,0
53,100,0.3,818,0,29,_Guitar,6,5,rocky_japanesefolk,0.17903240025043488,0
53,100,0.2818181818181818,92,1,30,_Guitar,6,5,rocky_japanesefolk,0.9988419413566589,1
53,100,0.32272727272727275,223,0,30,_Guitar,6,5,rocky_japanesefolk,0.13724450767040253,0
53,100,0.37727272727272726,303,0,30,_Guitar,6,6,rocky_japanesefolk,0.15977129340171814,0
53,100,0.11818181818181818,413,0,30,_Guitar,6,2,rocky_japanesefolk,0.18644633889198303,0
53,100,0.32272727272727275,474,0,30,_Guitar,6,5,rocky_japanesefolk,0.25815409421920776,0
52,100,0.1590909090909091,285,1,31,_Guitar,6,3,rocky_japanesefolk,0.9986500144004822,1
52,100,0.1,333,0,31,_Guitar,6,2,rocky_japanesefolk,0.08780460804700851,0
52,100,0.5,430,0,31,_Guitar,6,8,rocky_japanesefolk,0.091817706823349,0
52,100,0.8409090909090909,576,0,31,_Guitar,6,13,rocky_japanesefolk,0.1074867993593216,0
57,100,0.1590909090909091,760,0,31,_Guitar,6,3,rocky_japanesefolk,0.12483389675617218,0
57,100,0.11818181818181818,801,0,31,_Guitar,6,2,rocky_japanesefolk,0.17904089391231537,0
62,100,0.13636363636363635,348,1,32,_Guitar,6,2,rocky_japanesefolk,0.9983165264129639,1
55,100,0.7181818181818181,778,1,32,_Guitar,6,11,rocky_japanesefolk,0.5445566773414612,0
55,100,0.11818181818181818,206,1,33,_Guitar,6,2,rocky_japanesefolk,0.9986500144004822,1
52,100,0.2,295,0,33,_Guitar,6,3,rocky_japanesefolk,0.08780337125062943,0
52,100,0.2,461,0,33,_Guitar,6,3,rocky_japanesefolk,0.09181486070156097,0
52,100,0.1,691,0,33,_Guitar,6,2,rocky_japanesefolk,0.10748165845870972,0
67,100,0.1590909090909091,783,0,33,_Guitar,6,3,rocky_japanesefolk,0.12482708692550659,0
55,100,0.5409090909090909,818,0,33,_Guitar,6,9,rocky_japanesefolk,0.17903685569763184,0
60,100,0.1409090909090909,541,1,34,_Guitar,6,2,rocky_japanesefolk,0.9983165264129639,1
55,100,0.18181818181818182,871,1,34,_Guitar,6,3,rocky_japanesefolk,0.5445566773414612,0
62,100,1.018181818181818,141,1,35,_Guitar,6,15,rocky_japanesefolk,0.9988419413566589,1
57,100,0.16363636363636364,444,1,35,_Guitar,6,3,rocky_japanesefolk,0.13725408911705017,0
57,100,0.4,660,0,35,_Guitar,6,6,rocky_japanesefolk,0.15978220105171204,0
60,100,0.11818181818181818,765,0,35,_Guitar,6,2,rocky_japanesefolk,0.1864597201347351,0
57,100,0.12272727272727273,826,0,35,_Guitar,6,2,rocky_japanesefolk,0.2581712603569031,0
57,100,0.22272727272727272,26,1,36,_Guitar,6,4,rocky_japanesefolk,0.9983165264129639,1
62,100,0.3409090909090909,554,1,36,_Guitar,6,5,rocky_japanesefolk,0.5445606708526611,0
53,100,0.11818181818181818,220,1,37,_Guitar,6,2,rocky_japanesefolk,0.9990229606628418,1
52,100,0.13636363636363635,700,1,37,_Guitar,6,2,rocky_japanesefolk,0.3666238784790039,0
52,100,0.3181818181818182,866,0,37,_Guitar,6,5,rocky_japanesefolk,0.4532952606678009,0
52,100,0.3409090909090909,96,1,38,_Guitar,6,5,rocky_japanesefolk,0.9984880685806274,1
60,100,0.4,171,0,38,_Guitar,6,6,rocky_japanesefolk,0.06334777921438217,0
57,100,0.35909090909090907,260,0,38,_Guitar,6,6,rocky_japanesefolk,0.05774310603737831,0
57,100,0.740909090909091,386,0,38,_Guitar,6,12,rocky_japanesefolk,0.06020449846982956,0
62,100,0.3181818181818182,646,1,38,_Guitar,6,5,rocky_japanesefolk,0.06970500200986862,0
57,100,0.12272727272727273,738,0,38,_Guitar,6,2,rocky_japanesefolk,0.08189746737480164,0
53,100,0.3181818181818182,810,0,38,_Guitar,6,5,rocky_japanesefolk,0.1240258738398552,0
62,100,0.17727272727272728,361,1,39,_Guitar,6,3,rocky_japanesefolk,0.9990229606628418,1
59,100,0.2,471,0,39,_Guitar,6,3,rocky_japanesefolk,0.36662206053733826,0
52,100,0.6227272727272727,774,1,39,_Guitar,6,10,rocky_japanesefolk,0.4533011019229889,0
60,100,0.5181818181818182,75,1,40,_Guitar,6,8,rocky_japanesefolk,0.9988419413566589,1
52,100,0.2818181818181818,201,0,40,_Guitar,6,5,rocky_japanesefolk,0.13725179433822632,0
55,100,0.13636363636363635,303,0,40,_Guitar,6,2,rocky_japanesefolk,0.15977632999420166,0
55,100,0.2409090909090909,488,0,40,_Guitar,6,4,rocky_japanesefolk,0.18645060062408447,0
55,100,0.36363636363636365,796,1,40,_Guitar,6,6,rocky_japanesefolk,0.25816160440444946,0
67,100,0.2,0,1,41,_Guitar,6,3,rocky_japanesefolk,0.9990057349205017,1
60,100,0.6409090909090909,396,1,41,_Guitar,6,10,rocky_japanesefolk,0.23120811581611633,0
57,100,0.12272727272727273,541,0,41,_Guitar,6,2,rocky_japanesefolk,0.2659227252006531,0
57,100,0.33636363636363636,611,0,41,_Guitar,6,5,rocky_japanesefolk,0.35419613122940063,0
62,100,0.3,211,1,42,_Guitar,6,5,rocky_japanesefolk,0.9988419413566589,1
57,100,0.6590909090909091,426,0,42,_Guitar,6,11,rocky_japanesefolk,0.13725179433822632,0
57,100,0.41818181818181815,633,0,42,_Guitar,6,7,rocky_japanesefolk,0.15978172421455383,0
60,100,0.16363636363636364,751,0,42,_Guitar,6,3,rocky_japanesefolk,0.186457097530365,0
60,100,0.22272727272727272,839,0,42,_Guitar,6,4,rocky_japanesefolk,0.25817349553108215,0
60,100,0.38181818181818183,43,1,43,_Guitar,6,6,rocky_japanesefolk,0.9990230798721313,1
55,100,0.3181818181818182,383,1,43,_Guitar,6,5,rocky_japanesefolk,0.3666187524795532,0
55,100,0.16363636363636364,509,0,43,_Guitar,6,3,rocky_japanesefolk,0.4532906711101532,0
52,100,0.4818181818181818,48,1,44,_Guitar,6,8,rocky_japanesefolk,0.9986500144004822,1
60,100,0.18181818181818182,351,1,44,_Guitar,6,3,rocky_japanesefolk,0.08780647814273834,0
60,100,0.2818181818181818,408,0,44,_Guitar,6,5,rocky_japanesefolk,0.09182170033454895,0
55,100,0.3181818181818182,515,0,44,_Guitar,6,5,rocky_japanesefolk,0.10748375952243805,0
55,100,0.2590909090909091,616,0,44,_Guitar,6,4,rocky_japanesefolk,0.12482967227697372,0
52,100,1.7,678,0,44,_Guitar,6,15,rocky_japanesefolk,0.17903566360473633,0
60,100,0.12272727272727273,201,1,45,_Guitar,6,2,rocky_japanesefolk,0.9990230798721313,1
53,100,0.11818181818181818,238,0,45,_Guitar,6,2,rocky_japanesefolk,0.36661162972450256,0
53,100,0.18181818181818182,791,1,45,_Guitar,6,3,rocky_japanesefolk,0.45328304171562195,0
59,100,0.8227272727272728,276,1,46,_Guitar,6,13,rocky_japanesefolk,0.9983165264129639,1
52,100,0.8,581,1,46,_Guitar,6,13,rocky_japanesefolk,0.5445562601089478,0
52,100,0.2772727272727273,31,1,47,_Guitar,6,4,rocky_japanesefolk,0.9983164072036743,1
62,100,0.9,105,0,47,_Guitar,6,14,rocky_japanesefolk,0.544557511806488,0
53,100,0.2636363636363636,686,1,50,_Guitar,6,4,rocky_japanesefolk,0.9983165264129639,1
53,100,1.4,748,0,50,_Guitar,6,15,rocky_japanesefolk,0.5445535182952881,0
60,100,0.759090909090909,185,1,51,_Guitar,6,12,rocky_japanesefolk,0.9990229606628418,1
53,100,0.4,391,0,51,_Guitar,6,6,rocky_japanesefolk,0.36661863327026367,0
59,100,0.4409090909090909,550,0,51,_Guitar,6,7,rocky_japanesefolk,0.45328718423843384,0
55,100,0.1,276,1,52,_Guitar,6,2,rocky_japanesefolk,0.9990229606628418,1
52,100,1.0818181818181818,528,1,52,_Guitar,6,15,rocky_japanesefolk,0.3666222095489502,0
52,100,0.5818181818181818,826,1,52,_Guitar,6,9,rocky_japanesefolk,0.4532928168773651,0
52,100,0.1590909090909091,96,1,53,_Guitar,6,3,rocky_japanesefolk,0.9986500144004822,1
52,100,0.22272727272727272,166,0,53,_Guitar,6,4,rocky_japanesefolk,0.08780537545681,0
60,100,0.4590909090909091,308,0,53,_Guitar,6,7,rocky_japanesefolk,0.09181720018386841,0
55,100,0.2772727272727273,493,0,53,_Guitar,6,4,rocky_japanesefolk,0.10748306661844254,0
57,100,0.18181818181818182,703,0,53,_Guitar,6,3,rocky_japanesefolk,0.12482922524213791,0
57,100,0.21818181818181817,770,0,53,_Guitar,6,3,rocky_japanesefolk,0.1790367215871811,0
57,100,0.18181818181818182,616,1,54,_Guitar,6,3,rocky_japanesefolk,0.979255735874176,0
55,100,0.4590909090909091,383,1,55,_Guitar,6,7,rocky_japanesefolk,0.9792561531066895,0
57,100,0.1409090909090909,541,1,56,_Guitar,6,2,rocky_japanesefolk,0.979256272315979,1
57,100,1.0818181818181818,748,1,57,_Guitar,6,15,rocky_japanesefolk,0.9792552590370178,0
55,100,0.18181818181818182,399,1,58,_Guitar,6,3,rocky_japanesefolk,0.9990230798721313,1
55,100,0.11818181818181818,506,0,58,_Guitar,6,2,rocky_japanesefolk,0.3666269779205322,0
55,100,1.9227272727272726,598,0,58,_Guitar,6,15,rocky_japanesefolk,0.45327842235565186,0
53,100,0.8181818181818182,193,1,59,_Guitar,6,13,rocky_japanesefolk,0.9990057349205017,1
60,100,0.2590909090909091,418,0,59,_Guitar,6,4,rocky_japanesefolk,0.23121032118797302,0
55,100,1.2181818181818183,506,0,59,_Guitar,6,15,rocky_japanesefolk,0.2659086585044861,0
52,100,0.18181818181818182,813,1,59,_Guitar,6,3,rocky_japanesefolk,0.3541976809501648,0
57,100,0.4,0,1,61,_Guitar,6,6,rocky_japanesefolk,0.9792563915252686,0
55,100,0.12272727272727273,861,1,62,_Guitar,6,2,rocky_japanesefolk,0.9792568683624268,0
55,100,0.7181818181818181,370,1,63,_Guitar,6,11,rocky_japanesefolk,0.9990057349205017,1
55,100,0.13636363636363635,633,1,63,_Guitar,6,2,rocky_japanesefolk,0.23121191561222076,0
55,100,0.6772727272727272,668,0,63,_Guitar,6,11,rocky_japanesefolk,0.26591989398002625,0
55,100,0.6181818181818182,823,0,63,_Guitar,6,10,rocky_japanesefolk,0.3541969060897827,0
55,100,0.1,96,1,64,_Guitar,6,2,rocky_japanesefolk,0.9792563915252686,0
52,100,0.11818181818181818,197,1,65,_Guitar,6,2,rocky_japanesefolk,0.9982553124427795,1
52,100,0.1,250,0,65,_Guitar,6,2,rocky_japanesefolk,0.04128861427307129,0
57,100,0.13636363636363635,282,0,65,_Guitar,6,2,rocky_japanesefolk,0.028934398666024208,0
55,100,0.1590909090909091,457,0,65,_Guitar,6,3,rocky_japanesefolk,0.021289538592100143,0
55,100,0.1409090909090909,496,0,65,_Guitar,6,2,rocky_japanesefolk,0.016745135188102722,0
55,100,0.18181818181818182,540,0,65,_Guitar,6,3,rocky_japanesefolk,0.014918550848960876,0
55,100,0.11818181818181818,590,0,65,_Guitar,6,2,rocky_japanesefolk,0.01601576618850231,0
55,100,0.5409090909090909,619,0,65,_Guitar,6,9,rocky_japanesefolk,0.021178830415010452,0
55,100,0.11818181818181818,756,0,65,_Guitar,6,2,rocky_japanesefolk,0.031567543745040894,0
52,100,0.5363636363636364,787,0,65,_Guitar,6,9,rocky_japanesefolk,0.060059353709220886,0
55,100,0.4818181818181818,35,1,66,_Guitar,6,8,rocky_japanesefolk,0.9988419413566589,1
53,100,0.2590909090909091,184,0,66,_Guitar,6,4,rocky_japanesefolk,0.13724616169929504,0
53,100,0.2772727272727273,470,1,66,_Guitar,6,4,rocky_japanesefolk,0.15977023541927338,0
53,100,0.2409090909090909,572,0,66,_Guitar,6,4,rocky_japanesefolk,0.18644209206104279,0
55,100,0.41818181818181815,726,0,66,_Guitar,6,7,rocky_japanesefolk,0.258155882358551,0
52,100,0.12272727272727273,13,1,67,_Guitar,6,2,rocky_japanesefolk,0.9990230798721313,1
55,100,0.1590909090909091,66,0,67,_Guitar,6,3,rocky_japanesefolk,0.3666297197341919,0
57,100,0.6818181818181818,540,1,67,_Guitar,6,11,rocky_japanesefolk,0.45328792929649353,0
62,100,0.1409090909090909,66,1,68,_Guitar,6,2,rocky_japanesefolk,0.9983164072036743,1
57,100,0.3,110,0,68,_Guitar,6,5,rocky_japanesefolk,0.5445578098297119,0
52,100,0.3,330,1,69,_Guitar,6,5,rocky_japanesefolk,0.9990057349205017,1
57,100,0.12272727272727273,475,0,69,_Guitar,6,2,rocky_japanesefolk,0.2312067449092865,0
55,100,0.1409090909090909,624,0,69,_Guitar,6,2,rocky_japanesefolk,0.26592937111854553,0
55,100,0.6772727272727272,756,0,69,_Guitar,6,11,rocky_japanesefolk,0.35419899225234985,0
52,100,0.759090909090909,35,1,70,_Guitar,6,12,rocky_japanesefolk,0.9988419413566589,1
55,100,0.37727272727272726,229,0,70,_Guitar,6,6,rocky_japanesefolk,0.13724446296691895,0
53,100,0.41818181818181815,347,0,70,_Guitar,6,7,rocky_japanesefolk,0.15977071225643158,0
60,100,0.1590909090909091,457,0,70,_Guitar,6,3,rocky_japanesefolk,0.18645040690898895,0
53,100,0.11818181818181818,590,0,70,_Guitar,6,2,rocky_japanesefolk,0.25815364718437195,0
52,100,0.6409090909090909,92,1,71,_Guitar,6,10,rocky_japanesefolk,0.9990230798721313,1
55,100,0.3409090909090909,550,1,71,_Guitar,6,5,rocky_japanesefolk,0.36662235856056213,0
55,100,0.2409090909090909,629,0,71,_Guitar,6,4,rocky_japanesefolk,0.4532898962497711,0
57,100,0.5818181818181818,3,1,72,_Guitar,6,9,rocky_japanesefolk,0.9983004927635193,1
57,100,0.4,202,0,72,_Guitar,6,6,rocky_japanesefolk,0.044664252549409866,0
52,100,0.1,316,0,72,_Guitar,6,2,rocky_japanesefolk,0.033150702714920044,0
52,100,0.3409090909090909,426,0,72,_Guitar,6,5,rocky_japanesefolk,0.02658105082809925,0
55,100,0.2409090909090909,509,0,72,_Guitar,6,4,rocky_japanesefolk,0.0235958993434906,0
52,100,0.1409090909090909,585,0,72,_Guitar,6,2,rocky_japanesefolk,0.024315308779478073,0
52,100,0.4590909090909091,633,0,72,_Guitar,6,7,rocky_japanesefolk,0.02969057857990265,0
52,100,0.12272727272727273,817,0,72,_Guitar,6,2,rocky_japanesefolk,0.04007737711071968,0
52,100,0.12272727272727273,849,0,72,_Guitar,6,2,rocky_japanesefolk,0.07092912495136261,0
53,100,0.5409090909090909,166,1,73,_Guitar,6,9,rocky_japanesefolk,0.9990229606628418,1
53,100,0.18181818181818182,487,1,73,_Guitar,6,3,rocky_japanesefolk,0.3666297197341919,0
53,100,0.6,783,1,73,_Guitar,6,10,rocky_japanesefolk,0.4532841145992279,0
53,100,0.7181818181818181,43,1,74,_Guitar,6,11,rocky_japanesefolk,0.9986500144004822,1
53,100,0.5409090909090909,242,0,74,_Guitar,6,9,rocky_japanesefolk,0.08780128508806229,0
53,100,0.2,502,1,74,_Guitar,6,3,rocky_japanesefolk,0.09181135147809982,0
53,100,0.2818181818181818,593,0,74,_Guitar,6,5,rocky_japanesefolk,0.10747790336608887,0
57,100,0.5181818181818182,690,0,74,_Guitar,6,8,rocky_japanesefolk,0.12482099235057831,0
53,100,0.3,817,0,74,_Guitar,6,5,rocky_japanesefolk,0.1790354996919632,0
53,100,0.2409090909090909,92,1,75,_Guitar,6,4,rocky_japanesefolk,0.9986500144004822,1
53,100,0.2636363636363636,223,0,75,_Guitar,6,4,rocky_japanesefolk,0.08780205249786377,0
64,100,0.2772727272727273,326,0,75,_Guitar,6,4,rocky_japanesefolk,0.0918126329779625,0
53,100,0.4772727272727273,392,0,75,_Guitar,6,8,rocky_japanesefolk,0.10747583955526352,0
53,100,0.2,532,0,75,_Guitar,6,3,rocky_japanesefolk,0.12482497841119766,0
53,100,0.6818181818181818,686,0,75,_Guitar,6,11,rocky_japanesefolk,0.1790260225534439,0
55,100,0.2590909090909091,62,1,76,_Guitar,6,4,rocky_japanesefolk,0.9792565107345581,0
64,100,0.6772727272727272,119,1,77,_Guitar,6,11,rocky_japanesefolk,0.9986500144004822,1
55,100,0.2590909090909091,457,1,77,_Guitar,6,4,rocky_japanesefolk,0.08780443668365479,0
55,100,0.2409090909090909,642,0,77,_Guitar,6,4,rocky_japanesefolk,0.09181275218725204,0
60,100,0.1409090909090909,703,0,77,_Guitar,6,2,rocky_japanesefolk,0.10747644305229187,0
60,100,0.18181818181818182,739,0,77,_Guitar,6,3,rocky_japanesefolk,0.12482517212629318,0
55,100,0.4,805,0,77,_Guitar,6,6,rocky_japanesefolk,0.17903219163417816,0
55,100,0.11818181818181818,373,1,78,_Guitar,6,2,rocky_japanesefolk,0.9990057349205017,1
55,100,0.1,523,0,78,_Guitar,6,2,rocky_japanesefolk,0.23119759559631348,0
53,100,0.4,677,0,78,_Guitar,6,6,rocky_japanesefolk,0.265916645526886,0
53,100,0.1590909090909091,770,0,78,_Guitar,6,3,rocky_japanesefolk,0.3541906476020813,0
53,100,0.4409090909090909,100,1,79,_Guitar,6,7,rocky_japanesefolk,0.9986500144004822,1
53,100,0.2818181818181818,263,0,79,_Guitar,6,5,rocky_japanesefolk,0.0878041461110115,0
52,100,0.3,417,0,79,_Guitar,6,5,rocky_japanesefolk,0.09181604534387589,0
55,100,0.11818181818181818,546,0,79,_Guitar,6,2,rocky_japanesefolk,0.1074773371219635,0
52,100,0.12272727272727273,629,0,79,_Guitar,6,2,rocky_japanesefolk,0.12482675909996033,0
55,100,0.2,703,0,79,_Guitar,6,3,rocky_japanesefolk,0.17902712523937225,0
55,100,0.22272727272727272,35,1,80,_Guitar,6,4,rocky_japanesefolk,0.9988419413566589,1
57,100,1.2181818181818183,140,0,80,_Guitar,6,15,rocky_japanesefolk,0.1372452825307846,0
57,100,1.0636363636363637,422,1,80,_Guitar,6,15,rocky_japanesefolk,0.1597726196050644,0
57,100,0.11818181818181818,677,1,80,_Guitar,6,2,rocky_japanesefolk,0.18644748628139496,0
52,100,0.5590909090909091,756,0,80,_Guitar,6,9,rocky_japanesefolk,0.2581638991832733,0
55,100,0.1,136,1,81,_Guitar,6,2,rocky_japanesefolk,0.9990057349205017,1
52,100,1.059090909090909,172,0,81,_Guitar,6,15,rocky_japanesefolk,0.23120322823524475,0
52,100,0.2,436,1,81,_Guitar,6,3,rocky_japanesefolk,0.2659236192703247,0
53,100,0.3,480,0,81,_Guitar,6,5,rocky_japanesefolk,0.35419660806655884,0
55,100,0.5409090909090909,220,1,82,_Guitar,6,9,rocky_japanesefolk,0.9990229606628418,1
62,100,0.1409090909090909,703,1,82,_Guitar,6,2,rocky_japanesefolk,0.36662864685058594,0
55,100,0.5590909090909091,826,0,82,_Guitar,6,9,rocky_japanesefolk,0.4532896876335144,0
55,100,0.38181818181818183,289,1,84,_Guitar,6,6,rocky_japanesefolk,0.9990057349205017,1
52,100,0.13636363636363635,436,0,84,_Guitar,6,2,rocky_japanesefolk,0.2312072515487671,0
55,100,0.6818181818181818,606,0,84,_Guitar,6,11,rocky_japanesefolk,0.26592057943344116,0
52,100,0.6181818181818182,770,0,84,_Guitar,6,10,rocky_japanesefolk,0.3541986048221588,0
52,100,0.13636363636363635,106,1,85,_Guitar,6,2,rocky_japanesefolk,0.9792567491531372,0
60,100,0.11818181818181818,96,1,86,_Guitar,6,2,rocky_japanesefolk,0.9988419413566589,1
60,100,0.2818181818181818,307,0,86,_Guitar,6,5,rocky_japanesefolk,0.13725170493125916,0
55,100,0.6818181818181818,377,0,86,_Guitar,6,11,rocky_japanesefolk,0.15978147089481354,0
67,100,0.2590909090909091,766,1,86,_Guitar,6,4,rocky_japanesefolk,0.1864522248506546,0
60,100,0.5,844,0,86,_Guitar,6,8,rocky_japanesefolk,0.25816187262535095,0
53,100,0.5,119,1,87,_Guitar,6,8,rocky_japanesefolk,0.9990229606628418,1
59,100,0.2636363636363636,443,1,87,_Guitar,6,4,rocky_japanesefolk,0.36662599444389343,0
59,100,0.8818181818181818,509,0,87,_Guitar,6,14,rocky_japanesefolk,0.4532857835292816,0
62,100,0.8818181818181818,0,1,89,_Guitar,6,14,rocky_japanesefolk,0.9990229606628418,1
53,100,0.6181818181818182,360,1,89,_Guitar,6,10,rocky_japanesefolk,0.36661848425865173,0
67,100,0.17727272727272728,866,1,89,_Guitar,6,3,rocky_japanesefolk,0.453298419713974,0
55,100,0.11818181818181818,339,1,92,_Guitar,6,2,rocky_japanesefolk,0.9990230798721313,1
55,100,0.37727272727272726,493,0,92,_Guitar,6,6,rocky_japanesefolk,0.3666297495365143,0
55,100,0.4590909090909091,646,0,92,_Guitar,6,7,rocky_japanesefolk,0.45328086614608765,0
52,100,0.2636363636363636,333,1,93,_Guitar,6,4,rocky_japanesefolk,0.9990057349205017,1
52,100,0.22272727272727272,553,0,93,_Guitar,6,4,rocky_japanesefolk,0.2312019318342209,0
57,100,0.2,677,0,93,_Guitar,6,3,rocky_japanesefolk,0.26591652631759644,0
52,100,0.18181818181818182,729,0,93,_Guitar,6,3,rocky_japanesefolk,0.35420551896095276,0
52,100,0.11818181818181818,66,1,94,_Guitar,6,2,rocky_japanesefolk,0.9990229606628418,1
52,100,0.5,276,0,94,_Guitar,6,8,rocky_japanesefolk,0.36662349104881287,0
52,100,1.0,417,0,94,_Guitar,6,15,rocky_japanesefolk,0.45329004526138306,0
53,100,0.1409090909090909,100,1,95,_Guitar,6,2,rocky_japanesefolk,0.9990057349205017,1
53,100,0.2590909090909091,303,0,95,_Guitar,6,4,rocky_japanesefolk,0.23120149970054626,0
55,100,0.41818181818181815,449,0,95,_Guitar,6,7,rocky_japanesefolk,0.26591840386390686,0
60,100,0.5,624,0,95,_Guitar,6,8,rocky_japanesefolk,0.35419484972953796,0
57,100,0.2,184,1,96,_Guitar,6,3,rocky_japanesefolk,0.9990058541297913,1
55,100,0.11818181818181818,770,1,96,_Guitar,6,2,rocky_japanesefolk,0.23120416700839996,0
55,100,0.11818181818181818,823,0,96,_Guitar,6,2,rocky_japanesefolk,0.2659204304218292,0
55,100,0.22272727272727272,862,0,96,_Guitar,6,4,rocky_japanesefolk,0.35419347882270813,0
52,100,0.12272727272727273,509,1,97,_Guitar,6,2,rocky_japanesefolk,0.9792569875717163,1
70,100,0.11818181818181818,304,1,1,_Remix_Guitar,6,2, (Remix) Stems (1),0.9990229606628418,1
58,100,0.2818181818181818,421,0,1,_Remix_Guitar,6,5, (Remix) Stems (1),0.3666279911994934,0
63,100,0.1590909090909091,673,1,1,_Remix_Guitar,6,3, (Remix) Stems (1),0.45328962802886963,0
70,100,0.1409090909090909,12,1,2,_Remix_Guitar,6,2, (Remix) Stems (1),0.9986500144004822,1
58,100,0.2590909090909091,57,0,2,_Remix_Guitar,6,4, (Remix) Stems (1),0.08780193328857422,0
63,100,0.18181818181818182,443,1,2,_Remix_Guitar,6,3, (Remix) Stems (1),0.09181418269872665,0
63,100,0.3409090909090909,488,0,2,_Remix_Guitar,6,5, (Remix) Stems (1),0.10747616738080978,0
58,100,0.2772727272727273,568,0,2,_Remix_Guitar,6,4, (Remix) Stems (1),0.12482786178588867,0
62,100,0.1409090909090909,845,1,2,_Remix_Guitar,6,2, (Remix) Stems (1),0.1790311336517334,0
58,100,0.23636363636363636,216,1,3,_Remix_Guitar,6,4, (Remix) Stems (1),0.9983165264129639,1
63,100,0.21818181818181817,461,1,3,_Remix_Guitar,6,3, (Remix) Stems (1),0.5445574522018433,0
63,100,0.22272727272727272,114,1,4,_Remix_Guitar,6,4, (Remix) Stems (1),0.9988419413566589,1
63,100,0.41818181818181815,184,0,4,_Remix_Guitar,6,7, (Remix) Stems (1),0.1372537463903427,0
58,100,0.2590909090909091,348,0,4,_Remix_Guitar,6,4, (Remix) Stems (1),0.15979012846946716,0
63,100,0.5409090909090909,629,1,4,_Remix_Guitar,6,9, (Remix) Stems (1),0.18645693361759186,0
63,100,0.2818181818181818,862,1,4,_Remix_Guitar,6,5, (Remix) Stems (1),0.2581827938556671,0
58,100,0.18181818181818182,409,1,5,_Remix_Guitar,6,3, (Remix) Stems (1),0.9983165264129639,1
63,100,0.2590909090909091,867,1,5,_Remix_Guitar,6,4, (Remix) Stems (1),0.5445535778999329,0
56,100,0.38181818181818183,201,1,6,_Remix_Guitar,6,6, (Remix) Stems (1),0.9990229606628418,1
63,100,0.7181818181818181,396,0,6,_Remix_Guitar,6,11, (Remix) Stems (1),0.3666110634803772,0
70,100,0.22272727272727272,739,1,6,_Remix_Guitar,6,4, (Remix) Stems (1),0.4532954692840576,0
63,100,0.1409090909090909,8,1,7,_Remix_Guitar,6,2, (Remix) Stems (1),0.9990229606628418,1
63,100,0.1,220,0,7,_Remix_Guitar,6,2, (Remix) Stems (1),0.3666268289089203,0
62,100,0.1,629,1,7,_Remix_Guitar,6,2, (Remix) Stems (1),0.45330026745796204,0
63,100,0.2636363636363636,422,1,8,_Remix_Guitar,6,4, (Remix) Stems (1),0.9990229606628418,1
56,100,0.35909090909090907,505,0,8,_Remix_Guitar,6,6, (Remix) Stems (1),0.36662065982818604,0
63,100,0.2772727272727273,744,1,8,_Remix_Guitar,6,4, (Remix) Stems (1),0.45329126715660095,0
63,100,0.13636363636363635,17,1,9,_Remix_Guitar,6,2, (Remix) Stems (1),0.9983165264129639,1
63,100,0.38181818181818183,637,1,9,_Remix_Guitar,6,6, (Remix) Stems (1),0.544559121131897,0
63,100,0.23636363636363636,39,1,10,_Remix_Guitar,6,4, (Remix) Stems (1),0.9988419413566589,1
58,100,0.1,211,0,10,_Remix_Guitar,6,2, (Remix) Stems (1),0.13725145161151886,0
58,100,0.32272727272727275,584,1,10,_Remix_Guitar,6,5, (Remix) Stems (1),0.15978646278381348,0
58,100,0.22272727272727272,716,0,10,_Remix_Guitar,6,4, (Remix) Stems (1),0.18645529448986053,0
56,100,0.4772727272727273,787,0,10,_Remix_Guitar,6,8, (Remix) Stems (1),0.2581755816936493,0
56,100,0.1590909090909091,30,1,11,_Remix_Guitar,6,3, (Remix) Stems (1),0.9986500144004822,1
58,100,0.2590909090909091,343,1,11,_Remix_Guitar,6,4, (Remix) Stems (1),0.0878022089600563,0
63,100,0.1,642,1,11,_Remix_Guitar,6,2, (Remix) Stems (1),0.09181112051010132,0
58,100,0.18181818181818182,739,0,11,_Remix_Guitar,6,3, (Remix) Stems (1),0.10747717320919037,0
58,100,0.1,795,0,11,_Remix_Guitar,6,2, (Remix) Stems (1),0.12482065707445145,0
58,100,0.2772727272727273,854,0,11,_Remix_Guitar,6,4, (Remix) Stems (1),0.17903143167495728,0
58,100,0.21818181818181817,493,1,12,_Remix_Guitar,6,3, (Remix) Stems (1),0.9983165264129639,1
55,100,0.5181818181818182,756,1,12,_Remix_Guitar,6,8, (Remix) Stems (1),0.5445562601089478,0
55,100,0.18181818181818182,65,1,13,_Remix_Guitar,6,3, (Remix) Stems (1),0.9986500144004822,1
56,100,0.11818181818181818,316,1,13,_Remix_Guitar,6,2, (Remix) Stems (1),0.0878010243177414,0
56,100,0.6,369,0,13,_Remix_Guitar,6,10, (Remix) Stems (1),0.0918109193444252,0
58,100,0.2590909090909091,634,1,13,_Remix_Guitar,6,4, (Remix) Stems (1),0.10747222602367401,0
58,100,0.1,694,0,13,_Remix_Guitar,6,2, (Remix) Stems (1),0.12482049316167831,0
58,100,0.22272727272727272,840,0,13,_Remix_Guitar,6,4, (Remix) Stems (1),0.17902126908302307,0
63,100,0.5409090909090909,13,1,14,_Remix_Guitar,6,9, (Remix) Stems (1),0.9986500144004822,1
58,100,0.3,140,0,14,_Remix_Guitar,6,5, (Remix) Stems (1),0.08780582994222641,0
58,100,0.32272727272727275,268,0,14,_Remix_Guitar,6,5, (Remix) Stems (1),0.09181421995162964,0
62,100,0.2,603,1,14,_Remix_Guitar,6,3, (Remix) Stems (1),0.10747846215963364,0
58,100,0.1409090909090909,730,0,14,_Remix_Guitar,6,2, (Remix) Stems (1),0.12482845783233643,0
58,100,0.2772727272727273,778,0,14,_Remix_Guitar,6,4, (Remix) Stems (1),0.1790352314710617,0
63,100,0.1590909090909091,383,1,15,_Remix_Guitar,6,3, (Remix) Stems (1),0.9990229606628418,1
56,100,0.12272727272727273,474,0,15,_Remix_Guitar,6,2, (Remix) Stems (1),0.366626113653183,0
58,100,0.1,795,1,15,_Remix_Guitar,6,2, (Remix) Stems (1),0.45329219102859497,0
58,100,0.2590909090909091,40,1,16,_Remix_Guitar,6,4, (Remix) Stems (1),0.9990057349205017,1
55,100,0.4818181818181818,223,0,16,_Remix_Guitar,6,8, (Remix) Stems (1),0.2311992198228836,0
65,100,0.8181818181818182,351,0,16,_Remix_Guitar,6,13, (Remix) Stems (1),0.2659124433994293,0
58,100,0.2,567,0,16,_Remix_Guitar,6,3, (Remix) Stems (1),0.3541964590549469,0
53,100,0.2,391,1,17,_Remix_Guitar,6,3, (Remix) Stems (1),0.9990057349205017,1
53,100,0.3,440,0,17,_Remix_Guitar,6,5, (Remix) Stems (1),0.23120549321174622,0
56,100,0.2,656,0,17,_Remix_Guitar,6,3, (Remix) Stems (1),0.26591742038726807,0
58,100,0.17727272727272728,712,0,17,_Remix_Guitar,6,3, (Remix) Stems (1),0.3541950285434723,0
58,100,0.1590909090909091,52,1,18,_Remix_Guitar,6,3, (Remix) Stems (1),0.9986500144004822,1
60,100,0.2409090909090909,96,0,18,_Remix_Guitar,6,4, (Remix) Stems (1),0.0878051221370697,0
58,100,0.8,154,0,18,_Remix_Guitar,6,13, (Remix) Stems (1),0.09181202948093414,0
58,100,0.2590909090909091,339,0,18,_Remix_Guitar,6,4, (Remix) Stems (1),0.10748019069433212,0
58,100,0.2,729,1,18,_Remix_Guitar,6,3, (Remix) Stems (1),0.12482605129480362,0
63,100,0.12272727272727273,827,0,18,_Remix_Guitar,6,2, (Remix) Stems (1),0.17902742326259613,0
63,100,0.2,550,1,19,_Remix_Guitar,6,3, (Remix) Stems (1),0.9983164072036743,1
60,100,0.11818181818181818,779,0,19,_Remix_Guitar,6,2, (Remix) Stems (1),0.5445663332939148,0
63,100,0.2,343,1,20,_Remix_Guitar,6,3, (Remix) Stems (1),0.979256272315979,1
53,100,0.2409090909090909,144,1,21,_Remix_Guitar,6,4, (Remix) Stems (1),0.979256272315979,0
56,100,0.1,351,1,22,_Remix_Guitar,6,2, (Remix) Stems (1),0.9983165264129639,1
53,100,0.1409090909090909,822,1,22,_Remix_Guitar,6,2, (Remix) Stems (1),0.5445581674575806,0
65,100,0.11818181818181818,9,1,23,_Remix_Guitar,6,2, (Remix) Stems (1),0.9988419413566589,1
53,100,0.1,34,0,23,_Remix_Guitar,6,2, (Remix) Stems (1),0.13724392652511597,0
65,100,0.37727272727272726,140,0,23,_Remix_Guitar,6,6, (Remix) Stems (1),0.15976911783218384,0
65,100,0.2409090909090909,312,0,23,_Remix_Guitar,6,4, (Remix) Stems (1),0.18643899261951447,0
65,100,0.2,426,0,23,_Remix_Guitar,6,3, (Remix) Stems (1),0.25815489888191223,0
63,100,0.3181818181818182,0,1,24,_Remix_Guitar,6,5, (Remix) Stems (1),0.9990057349205017,1
55,100,0.12272727272727273,79,0,24,_Remix_Guitar,6,2, (Remix) Stems (1),0.2312096506357193,0
63,100,0.1409090909090909,461,1,24,_Remix_Guitar,6,2, (Remix) Stems (1),0.26592060923576355,0
60,100,0.1,602,0,24,_Remix_Guitar,6,2, (Remix) Stems (1),0.3542024493217468,0
62,100,0.11818181818181818,171,1,25,_Remix_Guitar,6,2, (Remix) Stems (1),0.9983165264129639,1
53,100,0.17727272727272728,250,0,25,_Remix_Guitar,6,3, (Remix) Stems (1),0.5445606112480164,0
63,100,0.16363636363636364,69,1,26,_Remix_Guitar,6,3, (Remix) Stems (1),0.9983003735542297,1
63,100,0.2590909090909091,140,0,26,_Remix_Guitar,6,4, (Remix) Stems (1),0.044663894921541214,0
60,100,0.3,223,0,26,_Remix_Guitar,6,5, (Remix) Stems (1),0.03315030783414841,0
55,100,0.21818181818181817,360,0,26,_Remix_Guitar,6,3, (Remix) Stems (1),0.02657928876578808,0
53,100,0.1409090909090909,509,0,26,_Remix_Guitar,6,2, (Remix) Stems (1),0.023595096543431282,0
53,100,0.12272727272727273,553,0,26,_Remix_Guitar,6,2, (Remix) Stems (1),0.02431471087038517,0
63,100,0.4818181818181818,663,0,26,_Remix_Guitar,6,8, (Remix) Stems (1),0.029689693823456764,0
63,100,0.1409090909090909,818,0,26,_Remix_Guitar,6,2, (Remix) Stems (1),0.040078260004520416,0
63,100,0.1,853,0,26,_Remix_Guitar,6,2, (Remix) Stems (1),0.07093191146850586,0
63,100,0.1409090909090909,277,1,27,_Remix_Guitar,6,2, (Remix) Stems (1),0.9986500144004822,1
63,100,0.22272727272727272,312,0,27,_Remix_Guitar,6,4, (Remix) Stems (1),0.08780506998300552,0
63,100,0.1,382,0,27,_Remix_Guitar,6,2, (Remix) Stems (1),0.09181537479162216,0
63,100,0.2590909090909091,484,0,27,_Remix_Guitar,6,4, (Remix) Stems (1),0.10748064517974854,0
53,100,0.22272727272727272,673,0,27,_Remix_Guitar,6,4, (Remix) Stems (1),0.12483333051204681,0
60,100,0.12272727272727273,839,0,27,_Remix_Guitar,6,2, (Remix) Stems (1),0.17904286086559296,0
53,100,0.3409090909090909,44,1,28,_Remix_Guitar,6,5, (Remix) Stems (1),0.9986500144004822,1
53,100,0.1590909090909091,185,0,28,_Remix_Guitar,6,3, (Remix) Stems (1),0.08780090510845184,0
53,100,0.17727272727272728,260,0,28,_Remix_Guitar,6,3, (Remix) Stems (1),0.09181085973978043,0
62,100,0.11818181818181818,418,0,28,_Remix_Guitar,6,2, (Remix) Stems (1),0.10747598111629486,0
53,100,0.2,519,0,28,_Remix_Guitar,6,3, (Remix) Stems (1),0.12482363730669022,0
53,100,0.1,567,0,28,_Remix_Guitar,6,2, (Remix) Stems (1),0.17902980744838715,0
55,100,0.18181818181818182,88,1,29,_Remix_Guitar,6,3, (Remix) Stems (1),0.9984880685806274,1
53,100,1.1,202,0,29,_Remix_Guitar,6,15, (Remix) Stems (1),0.06334342062473297,0
58,100,0.12272727272727273,474,1,29,_Remix_Guitar,6,2, (Remix) Stems (1),0.05774139612913132,0
58,100,0.12272727272727273,563,0,29,_Remix_Guitar,6,2, (Remix) Stems (1),0.0601983480155468,0
58,100,0.13636363636363635,656,0,29,_Remix_Guitar,6,2, (Remix) Stems (1),0.0696982592344284,0
58,100,0.3409090909090909,694,0,29,_Remix_Guitar,6,5, (Remix) Stems (1),0.08188778907060623,0
60,100,0.16363636363636364,862,0,29,_Remix_Guitar,6,3, (Remix) Stems (1),0.1240118071436882,0
58,100,0.21818181818181817,40,1,30,_Remix_Guitar,6,3, (Remix) Stems (1),0.9984880685806274,1
53,100,0.2772727272727273,96,0,30,_Remix_Guitar,6,4, (Remix) Stems (1),0.06334288418292999,0
58,100,0.11818181818181818,171,0,30,_Remix_Guitar,6,2, (Remix) Stems (1),0.05774196237325668,0
53,100,0.6,216,0,30,_Remix_Guitar,6,10, (Remix) Stems (1),0.06020050495862961,0
58,100,0.12272727272727273,422,0,30,_Remix_Guitar,6,2, (Remix) Stems (1),0.06970023363828659,0
53,100,0.1,492,0,30,_Remix_Guitar,6,2, (Remix) Stems (1),0.08189001679420471,0
55,100,0.5181818181818182,766,1,30,_Remix_Guitar,6,8, (Remix) Stems (1),0.12401830404996872,0
55,100,0.12272727272727273,179,1,31,_Remix_Guitar,6,2, (Remix) Stems (1),0.9983165264129639,1
53,100,0.1409090909090909,646,1,31,_Remix_Guitar,6,2, (Remix) Stems (1),0.5445496439933777,0
53,100,0.37727272727272726,383,1,32,_Remix_Guitar,6,6, (Remix) Stems (1),0.9990229606628418,1
53,100,0.2,471,0,32,_Remix_Guitar,6,3, (Remix) Stems (1),0.36662086844444275,0
53,100,0.13636363636363635,765,1,32,_Remix_Guitar,6,2, (Remix) Stems (1),0.4532899856567383,0
55,100,0.21818181818181817,581,1,33,_Remix_Guitar,6,3, (Remix) Stems (1),0.9983165264129639,1
55,100,0.6,726,0,33,_Remix_Guitar,6,10, (Remix) Stems (1),0.5445539951324463,0
58,100,0.2772727272727273,413,1,34,_Remix_Guitar,6,4, (Remix) Stems (1),0.9990229606628418,1
53,100,0.11818181818181818,681,1,34,_Remix_Guitar,6,2, (Remix) Stems (1),0.3666217029094696,0
53,100,0.2818181818181818,804,0,34,_Remix_Guitar,6,5, (Remix) Stems (1),0.45329031348228455,0
53,100,0.1409090909090909,75,1,35,_Remix_Guitar,6,2, (Remix) Stems (1),0.9986500144004822,1
53,100,0.1409090909090909,179,0,35,_Remix_Guitar,6,2, (Remix) Stems (1),0.08780304342508316,0
58,100,0.1,215,0,35,_Remix_Guitar,6,2, (Remix) Stems (1),0.0918135792016983,0
58,100,0.18181818181818182,241,0,35,_Remix_Guitar,6,3, (Remix) Stems (1),0.10748064517974854,0
55,100,0.6,311,0,35,_Remix_Guitar,6,10, (Remix) Stems (1),0.12482405453920364,0
53,100,0.17727272727272728,823,1,35,_Remix_Guitar,6,3, (Remix) Stems (1),0.17903180420398712,0
53,100,0.1590909090909091,18,1,36,_Remix_Guitar,6,3, (Remix) Stems (1),0.9988419413566589,1
53,100,0.2,338,1,36,_Remix_Guitar,6,3, (Remix) Stems (1),0.13724437355995178,0
53,100,0.2409090909090909,466,0,36,_Remix_Guitar,6,4, (Remix) Stems (1),0.15977656841278076,0
53,100,0.7227272727272728,541,0,36,_Remix_Guitar,6,12, (Remix) Stems (1),0.1864427626132965,0
53,100,0.3,778,1,36,_Remix_Guitar,6,5, (Remix) Stems (1),0.25816285610198975,0
55,100,0.18181818181818182,263,1,37,_Remix_Guitar,6,3, (Remix) Stems (1),0.9983165264129639,1
55,100,0.5,804,1,37,_Remix_Guitar,6,8, (Remix) Stems (1),0.5445537567138672,0
56,100,0.4590909090909091,361,1,38,_Remix_Guitar,6,7, (Remix) Stems (1),0.9983165264129639,1
53,100,0.5181818181818182,748,1,38,_Remix_Guitar,6,8, (Remix) Stems (1),0.5445569753646851,0
53,100,0.23636363636363636,40,1,39,_Remix_Guitar,6,4, (Remix) Stems (1),0.9986500144004822,1
58,100,0.2772727272727273,185,0,39,_Remix_Guitar,6,4, (Remix) Stems (1),0.087802954018116,0
58,100,0.2636363636363636,268,0,39,_Remix_Guitar,6,4, (Remix) Stems (1),0.09181233495473862,0
53,100,0.1590909090909091,515,1,39,_Remix_Guitar,6,3, (Remix) Stems (1),0.10747537016868591,0
53,100,0.2,703,0,39,_Remix_Guitar,6,3, (Remix) Stems (1),0.12482090294361115,0
53,100,0.1590909090909091,756,0,39,_Remix_Guitar,6,3, (Remix) Stems (1),0.17902836203575134,0
63,100,0.11818181818181818,215,1,40,_Remix_Guitar,6,2, (Remix) Stems (1),0.9988419413566589,1
53,100,0.3,528,1,40,_Remix_Guitar,6,5, (Remix) Stems (1),0.13725151121616364,0
53,100,0.2409090909090909,646,0,40,_Remix_Guitar,6,4, (Remix) Stems (1),0.15978209674358368,0
56,100,0.1590909090909091,783,0,40,_Remix_Guitar,6,3, (Remix) Stems (1),0.1864512860774994,0
53,100,0.11818181818181818,858,0,40,_Remix_Guitar,6,2, (Remix) Stems (1),0.2581685185432434,0
53,100,0.4,153,1,41,_Remix_Guitar,6,6, (Remix) Stems (1),0.9983736276626587,1
58,100,0.1409090909090909,241,0,41,_Remix_Guitar,6,2, (Remix) Stems (1),0.051061153411865234,0
53,100,0.2409090909090909,276,0,41,_Remix_Guitar,6,4, (Remix) Stems (1),0.04130125045776367,0
53,100,0.16363636363636364,334,0,41,_Remix_Guitar,6,3, (Remix) Stems (1),0.037383437156677246,0
65,100,0.2,370,0,41,_Remix_Guitar,6,3, (Remix) Stems (1),0.038327597081661224,0
53,100,0.23636363636363636,413,0,41,_Remix_Guitar,6,4, (Remix) Stems (1),0.044748228043317795,0
53,100,0.13636363636363635,501,0,41,_Remix_Guitar,6,2, (Remix) Stems (1),0.05522488057613373,0
53,100,0.1590909090909091,541,0,41,_Remix_Guitar,6,3, (Remix) Stems (1),0.09025980532169342,0
53,100,0.1409090909090909,123,1,42,_Remix_Guitar,6,2, (Remix) Stems (1),0.9986500144004822,1
63,100,0.13636363636363635,391,1,42,_Remix_Guitar,6,2, (Remix) Stems (1),0.08780331164598465,0
55,100,0.32272727272727275,554,0,42,_Remix_Guitar,6,5, (Remix) Stems (1),0.09181410074234009,0
60,100,0.12272727272727273,641,0,42,_Remix_Guitar,6,2, (Remix) Stems (1),0.10747987031936646,0
60,100,0.2,761,0,42,_Remix_Guitar,6,3, (Remix) Stems (1),0.12482661008834839,0
56,100,0.21818181818181817,866,0,42,_Remix_Guitar,6,3, (Remix) Stems (1),0.17903167009353638,0
53,100,0.2818181818181818,440,1,43,_Remix_Guitar,6,5, (Remix) Stems (1),0.9986500144004822,1
53,100,0.3,581,0,43,_Remix_Guitar,6,5, (Remix) Stems (1),0.08780123293399811,0
58,100,0.2,651,0,43,_Remix_Guitar,6,3, (Remix) Stems (1),0.09181429445743561,0
53,100,0.1590909090909091,703,0,43,_Remix_Guitar,6,3, (Remix) Stems (1),0.10747415572404861,0
53,100,0.13636363636363635,788,0,43,_Remix_Guitar,6,2, (Remix) Stems (1),0.1248222291469574,0
53,100,0.1590909090909091,826,0,43,_Remix_Guitar,6,3, (Remix) Stems (1),0.17902664840221405,0
53,100,0.13636363636363635,18,1,44,_Remix_Guitar,6,2, (Remix) Stems (1),0.9988419413566589,1
53,100,0.5,83,0,44,_Remix_Guitar,6,8, (Remix) Stems (1),0.13724416494369507,0
53,100,0.2409090909090909,206,0,44,_Remix_Guitar,6,4, (Remix) Stems (1),0.15977472066879272,0
53,100,0.18181818181818182,431,0,44,_Remix_Guitar,6,3, (Remix) Stems (1),0.18644171953201294,0
60,100,0.33636363636363636,765,1,44,_Remix_Guitar,6,5, (Remix) Stems (1),0.2581607699394226,0
53,100,0.18181818181818182,220,1,45,_Remix_Guitar,6,3, (Remix) Stems (1),0.9990229606628418,1
53,100,0.36363636363636365,356,0,45,_Remix_Guitar,6,6, (Remix) Stems (1),0.3666202127933502,0
53,100,0.12272727272727273,871,1,45,_Remix_Guitar,6,2, (Remix) Stems (1),0.4532914459705353,0
53,100,0.2,185,1,46,_Remix_Guitar,6,3, (Remix) Stems (1),0.9986500144004822,1
58,100,0.3181818181818182,391,0,46,_Remix_Guitar,6,5, (Remix) Stems (1),0.08780346065759659,0
53,100,0.2,501,0,46,_Remix_Guitar,6,3, (Remix) Stems (1),0.0918116346001625,0
53,100,0.17727272727272728,558,0,46,_Remix_Guitar,6,3, (Remix) Stems (1),0.10747501254081726,0
53,100,0.2,700,0,46,_Remix_Guitar,6,3, (Remix) Stems (1),0.12482551485300064,0
53,100,0.5,751,0,46,_Remix_Guitar,6,8, (Remix) Stems (1),0.17903085052967072,0
53,100,0.1590909090909091,8,1,47,_Remix_Guitar,6,3, (Remix) Stems (1),0.9986500144004822,1
53,100,0.2409090909090909,69,0,47,_Remix_Guitar,6,4, (Remix) Stems (1),0.08780140429735184,0
53,100,0.12272727272727273,136,0,47,_Remix_Guitar,6,2, (Remix) Stems (1),0.091811403632164,0
58,100,0.22272727272727272,321,0,47,_Remix_Guitar,6,4, (Remix) Stems (1),0.10747717320919037,0
53,100,0.22272727272727272,386,0,47,_Remix_Guitar,6,4, (Remix) Stems (1),0.12482306361198425,0
58,100,0.2818181818181818,616,0,47,_Remix_Guitar,6,5, (Remix) Stems (1),0.17902813851833344,0
55,100,0.1,153,1,49,_Remix_Guitar,6,2, (Remix) Stems (1),0.9990229606628418,1
55,100,0.2590909090909091,558,1,49,_Remix_Guitar,6,4, (Remix) Stems (1),0.3666217625141144,0
53,100,0.2772727272727273,823,1,49,_Remix_Guitar,6,4, (Remix) Stems (1),0.45328959822654724,0
53,100,0.4,43,1,50,_Remix_Guitar,6,6, (Remix) Stems (1),0.9983003735542297,1
58,100,0.2409090909090909,131,0,50,_Remix_Guitar,6,4, (Remix) Stems (1),0.04466332867741585,0
53,100,0.18181818181818182,188,0,50,_Remix_Guitar,6,3, (Remix) Stems (1),0.033148519694805145,0
53,100,0.21818181818181817,260,0,50,_Remix_Guitar,6,3, (Remix) Stems (1),0.026578150689601898,0
53,100,0.18181818181818182,311,0,50,_Remix_Guitar,6,3, (Remix) Stems (1),0.023593954741954803,0
53,100,0.1409090909090909,399,0,50,_Remix_Guitar,6,2, (Remix) Stems (1),0.024312956258654594,0
53,100,0.6,545,0,50,_Remix_Guitar,6,10, (Remix) Stems (1),0.029687363654375076,0
53,100,0.17727272727272728,765,0,50,_Remix_Guitar,6,3, (Remix) Stems (1),0.040075160562992096,0
53,100,0.16363636363636364,818,0,50,_Remix_Guitar,6,3, (Remix) Stems (1),0.07092615962028503,0
55,100,0.11818181818181818,281,1,51,_Remix_Guitar,6,2, (Remix) Stems (1),0.9792565107345581,0
55,100,0.1,91,1,52,_Remix_Guitar,6,2, (Remix) Stems (1),0.9990230798721313,1
55,100,0.1,166,0,52,_Remix_Guitar,6,2, (Remix) Stems (1),0.36662542819976807,0
55,100,0.3181818181818182,853,1,52,_Remix_Guitar,6,5, (Remix) Stems (1),0.4532873332500458,0
55,100,0.2590909090909091,171,1,53,_Remix_Guitar,6,4, (Remix) Stems (1),0.9990057349205017,1
53,100,0.1590909090909091,303,0,53,_Remix_Guitar,6,3, (Remix) Stems (1),0.231204092502594,0
56,100,0.2409090909090909,396,0,53,_Remix_Guitar,6,4, (Remix) Stems (1),0.26591771841049194,0
56,100,0.11818181818181818,853,1,53,_Remix_Guitar,6,2, (Remix) Stems (1),0.35418981313705444,0
63,100,0.1409090909090909,461,1,54,_Remix_Guitar,6,2, (Remix) Stems (1),0.9983165264129639,1
58,100,0.2409090909090909,528,0,54,_Remix_Guitar,6,4, (Remix) Stems (1),0.5445665121078491,0
63,100,0.2,75,1,55,_Remix_Guitar,6,3, (Remix) Stems (1),0.9990229606628418,1
55,100,0.11818181818181818,458,1,55,_Remix_Guitar,6,2, (Remix) Stems (1),0.3666272759437561,0
53,100,0.2590909090909091,606,0,55,_Remix_Guitar,6,4, (Remix) Stems (1),0.45329174399375916,0
53,100,0.12272727272727273,166,1,56,_Remix_Guitar,6,2, (Remix) Stems (1),0.9986500144004822,1
53,100,0.1590909090909091,220,0,56,_Remix_Guitar,6,3, (Remix) Stems (1),0.08779968321323395,0
53,100,0.17727272727272728,338,0,56,_Remix_Guitar,6,3, (Remix) Stems (1),0.0918097272515297,0
53,100,0.2,554,0,56,_Remix_Guitar,6,3, (Remix) Stems (1),0.10747130960226059,0
53,100,0.22272727272727272,606,0,56,_Remix_Guitar,6,4, (Remix) Stems (1),0.12482212483882904,0
53,100,0.4590909090909091,801,0,56,_Remix_Guitar,6,7, (Remix) Stems (1),0.17902439832687378,0
53,100,0.21818181818181817,40,1,57,_Remix_Guitar,6,3, (Remix) Stems (1),0.9986500144004822,1
53,100,0.16363636363636364,114,0,57,_Remix_Guitar,6,3, (Remix) Stems (1),0.08780205249786377,0
53,100,0.17727272727272728,185,0,57,_Remix_Guitar,6,3, (Remix) Stems (1),0.09181002527475357,0
53,100,0.1409090909090909,254,0,57,_Remix_Guitar,6,2, (Remix) Stems (1),0.10747600346803665,0
53,100,0.1,373,0,57,_Remix_Guitar,6,2, (Remix) Stems (1),0.12482224404811859,0
53,100,0.42272727272727273,421,0,57,_Remix_Guitar,6,7, (Remix) Stems (1),0.1790270060300827,0
53,100,0.1409090909090909,201,1,59,_Remix_Guitar,6,2, (Remix) Stems (1),0.9983736276626587,1
53,100,0.12272727272727273,298,0,59,_Remix_Guitar,6,2, (Remix) Stems (1),0.051059696823358536,0
53,100,0.18181818181818182,343,0,59,_Remix_Guitar,6,3, (Remix) Stems (1),0.04130196198821068,0
58,100,0.38181818181818183,440,0,59,_Remix_Guitar,6,6, (Remix) Stems (1),0.03738574683666229,0
58,100,0.2,536,0,59,_Remix_Guitar,6,3, (Remix) Stems (1),0.03832796588540077,0
53,100,0.5590909090909091,590,0,59,_Remix_Guitar,6,9, (Remix) Stems (1),0.04474761709570885,0
58,100,0.5772727272727273,721,0,59,_Remix_Guitar,6,9, (Remix) Stems (1),0.055226247757673264,0
58,100,0.21818181818181817,866,0,59,_Remix_Guitar,6,3, (Remix) Stems (1),0.09025946259498596,0
53,100,0.18181818181818182,114,1,60,_Remix_Guitar,6,3, (Remix) Stems (1),0.9983165264129639,1
53,100,0.12272727272727273,311,0,60,_Remix_Guitar,6,2, (Remix) Stems (1),0.544557511806488,0
53,100,0.12272727272727273,466,1,61,_Remix_Guitar,6,2, (Remix) Stems (1),0.9990057349205017,1
53,100,1.059090909090909,501,0,61,_Remix_Guitar,6,15, (Remix) Stems (1),0.23119257390499115,0
53,100,0.22272727272727272,761,1,61,_Remix_Guitar,6,4, (Remix) Stems (1),0.2659095525741577,0
53,100,0.21818181818181817,813,0,61,_Remix_Guitar,6,3, (Remix) Stems (1),0.35418611764907837,0
53,100,0.11818181818181818,8,1,62,_Remix_Guitar,6,2, (Remix) Stems (1),0.9984879493713379,1
53,100,0.1409090909090909,56,0,62,_Remix_Guitar,6,2, (Remix) Stems (1),0.06334390491247177,0
53,100,0.21818181818181817,260,0,62,_Remix_Guitar,6,3, (Remix) Stems (1),0.05773882567882538,0
53,100,0.32272727272727275,321,0,62,_Remix_Guitar,6,5, (Remix) Stems (1),0.060198478400707245,0
53,100,0.17727272727272728,413,0,62,_Remix_Guitar,6,3, (Remix) Stems (1),0.0696980282664299,0
53,100,0.16363636363636364,466,0,62,_Remix_Guitar,6,3, (Remix) Stems (1),0.08188915252685547,0
53,100,0.22272727272727272,576,0,62,_Remix_Guitar,6,4, (Remix) Stems (1),0.12401292473077774,0
53,100,0.4409090909090909,289,1,63,_Remix_Guitar,6,7, (Remix) Stems (1),0.9990057349205017,1
58,100,0.7636363636363637,421,0,63,_Remix_Guitar,6,12, (Remix) Stems (1),0.23119601607322693,0
53,100,0.32272727272727275,598,0,63,_Remix_Guitar,6,5, (Remix) Stems (1),0.265913188457489,0
55,100,0.2818181818181818,813,0,63,_Remix_Guitar,6,5, (Remix) Stems (1),0.3541885316371918,0
55,100,0.4590909090909091,87,1,64,_Remix_Guitar,6,7, (Remix) Stems (1),0.9990230798721313,1
55,100,0.17727272727272728,502,1,64,_Remix_Guitar,6,3, (Remix) Stems (1),0.3666200339794159,0
55,100,0.11818181818181818,853,1,64,_Remix_Guitar,6,2, (Remix) Stems (1),0.4532887041568756,0
53,100,0.13636363636363635,62,1,65,_Remix_Guitar,6,2, (Remix) Stems (1),0.9988419413566589,1
53,100,0.2772727272727273,96,0,65,_Remix_Guitar,6,4, (Remix) Stems (1),0.13724395632743835,0
53,100,0.1590909090909091,606,1,65,_Remix_Guitar,6,3, (Remix) Stems (1),0.15977925062179565,0
53,100,0.6590909090909091,700,0,65,_Remix_Guitar,6,11, (Remix) Stems (1),0.18644917011260986,0
53,100,0.1590909090909091,849,0,65,_Remix_Guitar,6,3, (Remix) Stems (1),0.258167028427124,0
53,100,0.3181818181818182,150,1,66,_Remix_Guitar,6,5, (Remix) Stems (1),0.9983736276626587,1
58,100,0.36363636363636365,223,0,66,_Remix_Guitar,6,6, (Remix) Stems (1),0.05106017366051674,0
53,100,0.6181818181818182,330,0,66,_Remix_Guitar,6,10, (Remix) Stems (1),0.04130109027028084,0
58,100,0.18181818181818182,466,0,66,_Remix_Guitar,6,3, (Remix) Stems (1),0.0373850017786026,0
53,100,0.23636363636363636,523,0,66,_Remix_Guitar,6,4, (Remix) Stems (1),0.038326483219861984,0
53,100,0.4409090909090909,593,0,66,_Remix_Guitar,6,7, (Remix) Stems (1),0.04474934935569763,0
53,100,0.4409090909090909,695,0,66,_Remix_Guitar,6,7, (Remix) Stems (1),0.055227842181921005,0
53,100,0.1590909090909091,849,0,66,_Remix_Guitar,6,3, (Remix) Stems (1),0.09026160836219788,0
53,100,0.5636363636363636,26,1,67,_Remix_Guitar,6,9, (Remix) Stems (1),0.9990057349205017,1
58,100,0.12272727272727273,246,0,67,_Remix_Guitar,6,2, (Remix) Stems (1),0.23120850324630737,0
55,100,0.11818181818181818,690,1,67,_Remix_Guitar,6,2, (Remix) Stems (1),0.2659153342247009,0
55,100,0.11818181818181818,779,0,67,_Remix_Guitar,6,2, (Remix) Stems (1),0.35419318079948425,0
53,100,0.1,624,1,68,_Remix_Guitar,6,2, (Remix) Stems (1),0.9792561531066895,0
58,100,0.1590909090909091,87,1,69,_Remix_Guitar,6,3, (Remix) Stems (1),0.9990230798721313,1
55,100,0.13636363636363635,392,1,69,_Remix_Guitar,6,2, (Remix) Stems (1),0.3666214644908905,0
55,100,0.41818181818181815,426,0,69,_Remix_Guitar,6,7, (Remix) Stems (1),0.45328694581985474,0
56,100,0.11818181818181818,603,1,70,_Remix_Guitar,6,2, (Remix) Stems (1),0.9792556166648865,0
63,100,0.5227272727272727,409,1,71,_Remix_Guitar,6,8, (Remix) Stems (1),0.9983164072036743,1
63,100,0.4,832,1,71,_Remix_Guitar,6,6, (Remix) Stems (1),0.5445668697357178,0
63,100,0.21818181818181817,83,1,72,_Remix_Guitar,6,3, (Remix) Stems (1),0.9990057349205017,1
55,100,0.2772727272727273,250,0,72,_Remix_Guitar,6,4, (Remix) Stems (1),0.23121072351932526,0
55,100,0.3,333,0,72,_Remix_Guitar,6,5, (Remix) Stems (1),0.26591938734054565,0
55,100,0.1409090909090909,422,0,72,_Remix_Guitar,6,2, (Remix) Stems (1),0.3541916012763977,0
53,100,0.6,176,1,73,_Remix_Guitar,6,10, (Remix) Stems (1),0.9984880685806274,1
53,100,0.11818181818181818,330,0,73,_Remix_Guitar,6,2, (Remix) Stems (1),0.0633459985256195,0
58,100,0.6181818181818182,436,0,73,_Remix_Guitar,6,10, (Remix) Stems (1),0.057742197066545486,0
70,100,0.1,619,0,73,_Remix_Guitar,6,2, (Remix) Stems (1),0.060201287269592285,0
58,100,0.2,650,0,73,_Remix_Guitar,6,3, (Remix) Stems (1),0.06970129162073135,0
58,100,0.2590909090909091,722,0,73,_Remix_Guitar,6,4, (Remix) Stems (1),0.08189348876476288,0
53,100,1.018181818181818,787,0,73,_Remix_Guitar,6,15, (Remix) Stems (1),0.12401627749204636,0
58,100,0.22272727272727272,145,1,74,_Remix_Guitar,6,4, (Remix) Stems (1),0.9983165264129639,1
58,100,0.38181818181818183,246,0,74,_Remix_Guitar,6,6, (Remix) Stems (1),0.5445565581321716,0
53,100,0.1,179,1,75,_Remix_Guitar,6,2, (Remix) Stems (1),0.9986500144004822,1
60,100,0.1,443,1,75,_Remix_Guitar,6,2, (Remix) Stems (1),0.08780684322118759,0
55,100,0.3181818181818182,483,0,75,_Remix_Guitar,6,5, (Remix) Stems (1),0.09181557595729828,0
55,100,0.1590909090909091,559,0,75,_Remix_Guitar,6,3, (Remix) Stems (1),0.1074790433049202,0
55,100,0.1590909090909091,766,0,75,_Remix_Guitar,6,3, (Remix) Stems (1),0.12482934445142746,0
58,100,0.4590909090909091,866,0,75,_Remix_Guitar,6,7, (Remix) Stems (1),0.17903397977352142,0
55,100,0.2409090909090909,250,1,76,_Remix_Guitar,6,4, (Remix) Stems (1),0.9792566299438477,1
63,100,0.3,449,1,77,_Remix_Guitar,6,5, (Remix) Stems (1),0.9792558550834656,0
55,100,0.11818181818181818,294,1,78,_Remix_Guitar,6,2, (Remix) Stems (1),0.9990057349205017,1
55,100,0.13636363636363635,326,0,78,_Remix_Guitar,6,2, (Remix) Stems (1),0.23120741546154022,0
55,100,0.4,430,0,78,_Remix_Guitar,6,6, (Remix) Stems (1),0.265922874212265,0
55,100,0.8,729,1,78,_Remix_Guitar,6,13, (Remix) Stems (1),0.3541940748691559,0
63,100,0.1409090909090909,606,1,79,_Remix_Guitar,6,2, (Remix) Stems (1),0.9792559146881104,0
53,100,0.4818181818181818,22,1,80,_Remix_Guitar,6,8, (Remix) Stems (1),0.9990229606628418,1
53,100,0.11818181818181818,506,1,80,_Remix_Guitar,6,2, (Remix) Stems (1),0.36662036180496216,0
53,100,0.2590909090909091,567,0,80,_Remix_Guitar,6,4, (Remix) Stems (1),0.45328488945961,0
53,100,0.1409090909090909,22,1,81,_Remix_Guitar,6,2, (Remix) Stems (1),0.9990229606628418,1
53,100,0.1,136,0,81,_Remix_Guitar,6,2, (Remix) Stems (1),0.36661893129348755,0
53,100,0.5409090909090909,202,0,81,_Remix_Guitar,6,9, (Remix) Stems (1),0.45328283309936523,0
58,100,0.2,436,1,83,_Remix_Guitar,6,3, (Remix) Stems (1),0.9990057349205017,1
53,100,0.12272727272727273,496,0,83,_Remix_Guitar,6,2, (Remix) Stems (1),0.2311992049217224,0
53,100,0.3,532,0,83,_Remix_Guitar,6,5, (Remix) Stems (1),0.2659180760383606,0
53,100,0.35909090909090907,646,0,83,_Remix_Guitar,6,6, (Remix) Stems (1),0.35418349504470825,0
53,100,0.2,79,1,84,_Remix_Guitar,6,3, (Remix) Stems (1),0.9984880685806274,1
53,100,0.1590909090909091,153,0,84,_Remix_Guitar,6,3, (Remix) Stems (1),0.06334345042705536,0
53,100,0.1409090909090909,210,0,84,_Remix_Guitar,6,2, (Remix) Stems (1),0.05774059519171715,0
53,100,0.1409090909090909,250,0,84,_Remix_Guitar,6,2, (Remix) Stems (1),0.060198403894901276,0
53,100,0.2590909090909091,299,0,84,_Remix_Guitar,6,4, (Remix) Stems (1),0.06969772279262543,0
53,100,0.2,377,0,84,_Remix_Guitar,6,3, (Remix) Stems (1),0.08188948780298233,0
53,100,0.11818181818181818,593,0,84,_Remix_Guitar,6,2, (Remix) Stems (1),0.1240118071436882,0
55,100,0.1409090909090909,289,1,85,_Remix_Guitar,6,2, (Remix) Stems (1),0.9983164072036743,1
67,100,0.1,333,0,85,_Remix_Guitar,6,2, (Remix) Stems (1),0.5445511341094971,0
55,100,0.1409090909090909,417,1,86,_Remix_Guitar,6,2, (Remix) Stems (1),0.9792563915252686,0
53,100,0.16363636363636364,707,1,88,_Remix_Guitar,6,3, (Remix) Stems (1),0.9983165264129639,1
53,100,0.1,760,0,88,_Remix_Guitar,6,2, (Remix) Stems (1),0.5445559620857239,0
58,100,0.12272727272727273,13,1,89,_Remix_Guitar,6,2, (Remix) Stems (1),0.9990230798721313,1
53,100,0.2409090909090909,462,1,89,_Remix_Guitar,6,4, (Remix) Stems (1),0.36661869287490845,0
53,100,0.1590909090909091,823,1,89,_Remix_Guitar,6,3, (Remix) Stems (1),0.4532887935638428,0
53,100,0.1,140,1,90,_Remix_Guitar,6,2, (Remix) Stems (1),0.9990057349205017,1
58,100,0.11818181818181818,633,1,90,_Remix_Guitar,6,2, (Remix) Stems (1),0.23120032250881195,0
53,100,0.1590909090909091,726,0,90,_Remix_Guitar,6,3, (Remix) Stems (1),0.26590800285339355,0
53,100,0.5409090909090909,862,0,90,_Remix_Guitar,6,9, (Remix) Stems (1),0.35418906807899475,0
53,100,0.12272727272727273,202,1,91,_Remix_Guitar,6,2, (Remix) Stems (1),0.9983736276626587,1
53,100,0.38181818181818183,242,0,91,_Remix_Guitar,6,6, (Remix) Stems (1),0.05105895921587944,0
53,100,0.1409090909090909,330,0,91,_Remix_Guitar,6,2, (Remix) Stems (1),0.04130042716860771,0
53,100,0.1,373,0,91,_Remix_Guitar,6,2, (Remix) Stems (1),0.037382788956165314,0
53,100,0.18181818181818182,440,0,91,_Remix_Guitar,6,3, (Remix) Stems (1),0.03832583129405975,0
53,100,0.2,514,0,91,_Remix_Guitar,6,3, (Remix) Stems (1),0.04474574327468872,0
53,100,0.35909090909090907,590,0,91,_Remix_Guitar,6,6, (Remix) Stems (1),0.05522117391228676,0
53,100,0.11818181818181818,713,0,91,_Remix_Guitar,6,2, (Remix) Stems (1),0.09025782346725464,0
53,100,0.7363636363636363,40,1,93,_Remix_Guitar,6,12, (Remix) Stems (1),0.9984880685806274,1
53,100,0.3181818181818182,250,0,93,_Remix_Guitar,6,5, (Remix) Stems (1),0.0633438378572464,0
53,100,0.2590909090909091,404,0,93,_Remix_Guitar,6,4, (Remix) Stems (1),0.057738617062568665,0
53,100,0.11818181818181818,483,0,93,_Remix_Guitar,6,2, (Remix) Stems (1),0.060197968035936356,0
53,100,0.1,540,0,93,_Remix_Guitar,6,2, (Remix) Stems (1),0.06969762593507767,0
53,100,0.2,606,0,93,_Remix_Guitar,6,3, (Remix) Stems (1),0.08188825845718384,0
53,100,0.4590909090909091,669,0,93,_Remix_Guitar,6,7, (Remix) Stems (1),0.12401220202445984,0
53,100,0.2409090909090909,43,1,94,_Remix_Guitar,6,4, (Remix) Stems (1),0.9983165264129639,1
58,100,0.22272727272727272,100,0,94,_Remix_Guitar,6,4, (Remix) Stems (1),0.5445553064346313,0
55,100,0.12272727272727273,13,1,95,_Remix_Guitar,6,2, (Remix) Stems (1),0.9990229606628418,1
55,100,0.18181818181818182,47,0,95,_Remix_Guitar,6,3, (Remix) Stems (1),0.36661630868911743,0
53,100,0.1409090909090909,312,1,95,_Remix_Guitar,6,2, (Remix) Stems (1),0.4532860517501831,0
60,100,0.1,496,1,96,_Remix_Guitar,6,2, (Remix) Stems (1),0.9792561531066895,0
53,100,0.18181818181818182,220,1,97,_Remix_Guitar,6,3, (Remix) Stems (1),0.9983164072036743,1
53,100,0.1590909090909091,475,1,97,_Remix_Guitar,6,3, (Remix) Stems (1),0.5445535182952881,0
53,100,0.11818181818181818,770,1,98,_Remix_Guitar,6,2, (Remix) Stems (1),0.9792563915252686,0
53,100,0.11818181818181818,700,1,99,_Remix_Guitar,6,2, (Remix) Stems (1),0.9983165264129639,1
53,100,0.1409090909090909,773,0,99,_Remix_Guitar,6,2, (Remix) Stems (1),0.5445607900619507,0
53,100,0.36363636363636365,157,1,100,_Remix_Guitar,6,6, (Remix) Stems (1),0.9984879493713379,1
53,100,0.18181818181818182,267,0,100,_Remix_Guitar,6,3, (Remix) Stems (1),0.06334410607814789,0
53,100,0.1409090909090909,352,0,100,_Remix_Guitar,6,2, (Remix) Stems (1),0.05774098262190819,0
53,100,0.2818181818181818,386,0,100,_Remix_Guitar,6,5, (Remix) Stems (1),0.06020288169384003,0
53,100,0.4409090909090909,470,0,100,_Remix_Guitar,6,7, (Remix) Stems (1),0.06970173865556717,0
53,100,1.1409090909090909,593,0,100,_Remix_Guitar,6,15, (Remix) Stems (1),0.08189205080270767,0
53,100,0.1590909090909091,853,1,100,_Remix_Guitar,6,3, (Remix) Stems (1),0.1240227222442627,0
53,100,0.3,22,1,101,_Remix_Guitar,6,5, (Remix) Stems (1),0.9990229606628418,1
53,100,0.2,106,0,101,_Remix_Guitar,6,3, (Remix) Stems (1),0.36662426590919495,0
63,100,0.11818181818181818,330,0,101,_Remix_Guitar,6,2, (Remix) Stems (1),0.45328715443611145,0
63,100,0.3409090909090909,92,1,102,_Remix_Guitar,6,5, (Remix) Stems (1),0.9990057349205017,1
53,100,0.33636363636363636,326,1,102,_Remix_Guitar,6,5, (Remix) Stems (1),0.2312038391828537,0
53,100,0.2590909090909091,426,0,102,_Remix_Guitar,6,4, (Remix) Stems (1),0.2659240961074829,0
53,100,0.36363636363636365,619,0,102,_Remix_Guitar,6,6, (Remix) Stems (1),0.3541906476020813,0
65,100,0.2818181818181818,123,1,103,_Remix_Guitar,6,5, (Remix) Stems (1),0.9983165264129639,1
60,100,0.4818181818181818,817,1,103,_Remix_Guitar,6,8, (Remix) Stems (1),0.5445630550384521,0
63,100,0.1,140,1,104,_Remix_Guitar,6,2, (Remix) Stems (1),0.9990229606628418,1
63,100,0.1409090909090909,206,0,104,_Remix_Guitar,6,2, (Remix) Stems (1),0.36663055419921875,0
63,100,0.7636363636363637,267,0,104,_Remix_Guitar,6,12, (Remix) Stems (1),0.4532944858074188,0
56,100,0.1,96,1,105,_Remix_Guitar,6,2, (Remix) Stems (1),0.9984879493713379,1
60,100,0.43636363636363634,260,0,105,_Remix_Guitar,6,7, (Remix) Stems (1),0.06334629654884338,0
58,100,0.11818181818181818,493,1,105,_Remix_Guitar,6,2, (Remix) Stems (1),0.05774228647351265,0
58,100,0.18181818181818182,553,0,105,_Remix_Guitar,6,3, (Remix) Stems (1),0.06020268797874451,0
70,100,0.2,603,0,105,_Remix_Guitar,6,3, (Remix) Stems (1),0.06970254331827164,0
58,100,0.1590909090909091,690,0,105,_Remix_Guitar,6,3, (Remix) Stems (1),0.08189281076192856,0
53,100,0.16363636363636364,729,0,105,_Remix_Guitar,6,3, (Remix) Stems (1),0.12402266263961792,0
58,100,0.11818181818181818,326,1,106,_Remix_Guitar,6,2, (Remix) Stems (1),0.9990057349205017,1
63,100,0.2590909090909091,656,1,106,_Remix_Guitar,6,4, (Remix) Stems (1),0.23120562732219696,0
63,100,0.2,770,0,106,_Remix_Guitar,6,3, (Remix) Stems (1),0.2659207284450531,0
53,100,0.1,826,0,106,_Remix_Guitar,6,2, (Remix) Stems (1),0.35419532656669617,0
53,100,0.2,132,1,107,_Remix_Guitar,6,3, (Remix) Stems (1),0.9986500144004822,1
63,100,0.8409090909090909,189,0,107,_Remix_Guitar,6,13, (Remix) Stems (1),0.08779945969581604,0
53,100,0.12272727272727273,377,0,107,_Remix_Guitar,6,2, (Remix) Stems (1),0.09181314706802368,0
65,100,0.12272727272727273,409,0,107,_Remix_Guitar,6,2, (Remix) Stems (1),0.10747304558753967,0
60,100,0.11818181818181818,590,0,107,_Remix_Guitar,6,2, (Remix) Stems (1),0.12482243776321411,0
60,100,0.18181818181818182,660,0,107,_Remix_Guitar,6,3, (Remix) Stems (1),0.17902763187885284,0
63,100,0.11818181818181818,43,1,108,_Remix_Guitar,6,2, (Remix) Stems (1),0.9990229606628418,1
63,100,0.1590909090909091,347,1,108,_Remix_Guitar,6,3, (Remix) Stems (1),0.3666266202926636,0
63,100,0.2,386,0,108,_Remix_Guitar,6,3, (Remix) Stems (1),0.4533036947250366,0
53,100,0.2,823,1,109,_Remix_Guitar,6,3, (Remix) Stems (1),0.9792567491531372,0
53,100,0.16363636363636364,179,1,110,_Remix_Guitar,6,3, (Remix) Stems (1),0.9990057349205017,1
53,100,0.2,312,0,110,_Remix_Guitar,6,3, (Remix) Stems (1),0.23119552433490753,0
58,100,0.1,360,0,110,_Remix_Guitar,6,2, (Remix) Stems (1),0.2659100294113159,0
70,100,0.1,650,1,110,_Remix_Guitar,6,2, (Remix) Stems (1),0.3541938364505768,0
63,100,0.41818181818181815,462,1,111,_Remix_Guitar,6,7, (Remix) Stems (1),0.979255735874176,0
63,100,0.12272727272727273,386,1,112,_Remix_Guitar,6,2, (Remix) Stems (1),0.979256272315979,0
56,100,0.11818181818181818,9,1,113,_Remix_Guitar,6,2, (Remix) Stems (1),0.9984880685806274,1
70,100,0.16363636363636364,267,1,113,_Remix_Guitar,6,3, (Remix) Stems (1),0.06334447115659714,0
53,100,0.740909090909091,312,0,113,_Remix_Guitar,6,12, (Remix) Stems (1),0.05773947387933731,0
53,100,0.18181818181818182,483,0,113,_Remix_Guitar,6,3, (Remix) Stems (1),0.06019996479153633,0
53,100,0.18181818181818182,527,0,113,_Remix_Guitar,6,3, (Remix) Stems (1),0.06969843059778214,0
53,100,0.1590909090909091,747,0,113,_Remix_Guitar,6,3, (Remix) Stems (1),0.08189068734645844,0
53,100,0.11818181818181818,810,0,113,_Remix_Guitar,6,2, (Remix) Stems (1),0.12401548773050308,0
55,100,0.22272727272727272,13,1,114,_Remix_Guitar,6,4, (Remix) Stems (1),0.9792566299438477,0
56,100,0.1590909090909091,216,1,115,_Remix_Guitar,6,3, (Remix) Stems (1),0.9990057349205017,1
53,100,0.1,650,1,115,_Remix_Guitar,6,2, (Remix) Stems (1),0.2312048375606537,0
53,100,0.1409090909090909,747,0,115,_Remix_Guitar,6,2, (Remix) Stems (1),0.2659232020378113,0
53,100,0.1590909090909091,857,0,115,_Remix_Guitar,6,3, (Remix) Stems (1),0.35419410467147827,0
53,100,0.1590909090909091,30,1,116,_Remix_Guitar,6,3, (Remix) Stems (1),0.9983165264129639,1
58,100,0.16363636363636364,69,0,116,_Remix_Guitar,6,3, (Remix) Stems (1),0.5445587635040283,0
55,100,0.4,26,1,117,_Remix_Guitar,6,6, (Remix) Stems (1),0.9983165264129639,1
55,100,0.3,127,0,117,_Remix_Guitar,6,5, (Remix) Stems (1),0.5445570349693298,0
58,100,0.3,106,1,118,_Remix_Guitar,6,5, (Remix) Stems (1),0.9986500144004822,1
53,100,0.1409090909090909,184,0,118,_Remix_Guitar,6,2, (Remix) Stems (1),0.08780422806739807,0
53,100,0.1409090909090909,386,0,118,_Remix_Guitar,6,2, (Remix) Stems (1),0.09181404858827591,0
53,100,0.13636363636363635,457,0,118,_Remix_Guitar,6,2, (Remix) Stems (1),0.10747919231653214,0
62,100,0.1590909090909091,792,1,118,_Remix_Guitar,6,3, (Remix) Stems (1),0.12482476979494095,0
62,100,0.37727272727272726,832,0,118,_Remix_Guitar,6,6, (Remix) Stems (1),0.17903399467468262,0
55,100,0.38181818181818183,223,1,119,_Remix_Guitar,6,6, (Remix) Stems (1),0.9983165264129639,1
53,100,0.12272727272727273,739,1,119,_Remix_Guitar,6,2, (Remix) Stems (1),0.5445563793182373,0
60,100,0.2590909090909091,110,1,120,_Remix_Guitar,6,4, (Remix) Stems (1),0.9983165264129639,1
53,100,0.1,866,1,120,_Remix_Guitar,6,2, (Remix) Stems (1),0.5445549488067627,0
53,100,0.38181818181818183,22,1,121,_Remix_Guitar,6,6, (Remix) Stems (1),0.9983003735542297,1
53,100,0.18181818181818182,113,0,121,_Remix_Guitar,6,3, (Remix) Stems (1),0.04466383904218674,0
58,100,0.8818181818181818,153,0,121,_Remix_Guitar,6,14, (Remix) Stems (1),0.03314807638525963,0
53,100,0.18181818181818182,377,0,121,_Remix_Guitar,6,3, (Remix) Stems (1),0.026578471064567566,0
53,100,0.3,440,0,121,_Remix_Guitar,6,5, (Remix) Stems (1),0.023593608289957047,0
53,100,0.3,519,0,121,_Remix_Guitar,6,5, (Remix) Stems (1),0.024312607944011688,0
53,100,0.1590909090909091,637,0,121,_Remix_Guitar,6,3, (Remix) Stems (1),0.029687676578760147,0
53,100,0.2409090909090909,752,0,121,_Remix_Guitar,6,4, (Remix) Stems (1),0.04007449746131897,0
53,100,0.1409090909090909,826,0,121,_Remix_Guitar,6,2, (Remix) Stems (1),0.07092611491680145,0
53,100,0.2409090909090909,0,1,122,_Remix_Guitar,6,4, (Remix) Stems (1),0.9990229606628418,1
53,100,0.1409090909090909,56,0,122,_Remix_Guitar,6,2, (Remix) Stems (1),0.36661818623542786,0
63,100,0.2818181818181818,729,1,122,_Remix_Guitar,6,5, (Remix) Stems (1),0.45329105854034424,0
63,100,0.2772727272727273,722,1,123,_Remix_Guitar,6,4, (Remix) Stems (1),0.9792563915252686,0
63,100,0.12272727272727273,312,1,124,_Remix_Guitar,6,2, (Remix) Stems (1),0.9990229606628418,1
65,100,0.18181818181818182,637,1,124,_Remix_Guitar,6,3, (Remix) Stems (1),0.3666226267814636,0
65,100,0.21818181818181817,682,0,124,_Remix_Guitar,6,3, (Remix) Stems (1),0.45329704880714417,0
65,100,0.1409090909090909,286,1,125,_Remix_Guitar,6,2, (Remix) Stems (1),0.9792561531066895,0
60,100,0.4409090909090909,87,1,126,_Remix_Guitar,6,7, (Remix) Stems (1),0.9990230798721313,1
60,100,0.1,193,0,126,_Remix_Guitar,6,2, (Remix) Stems (1),0.36662229895591736,0
63,100,0.1409090909090909,663,1,126,_Remix_Guitar,6,2, (Remix) Stems (1),0.45328274369239807,0
58,100,0.17727272727272728,163,1,127,_Remix_Guitar,6,3, (Remix) Stems (1),0.9990057349205017,1
63,100,0.21818181818181817,546,1,127,_Remix_Guitar,6,3, (Remix) Stems (1),0.2312047779560089,0
58,100,0.2,734,0,127,_Remix_Guitar,6,3, (Remix) Stems (1),0.26592516899108887,0
56,100,0.1,876,0,127,_Remix_Guitar,6,2, (Remix) Stems (1),0.3541915714740753,0
58,100,0.2,436,1,128,_Remix_Guitar,6,3, (Remix) Stems (1),0.9792561531066895,0
53,100,0.1,285,1,130,_Remix_Guitar,6,2, (Remix) Stems (1),0.9988419413566589,1
53,100,0.1590909090909091,321,0,130,_Remix_Guitar,6,3, (Remix) Stems (1),0.1372447907924652,0
60,100,0.4772727272727273,479,0,130,_Remix_Guitar,6,8, (Remix) Stems (1),0.159774512052536,0
60,100,0.2818181818181818,704,0,130,_Remix_Guitar,6,5, (Remix) Stems (1),0.18644927442073822,0
53,100,0.6,773,0,130,_Remix_Guitar,6,10, (Remix) Stems (1),0.2581624388694763,0
56,100,0.17727272727272728,39,1,131,_Remix_Guitar,6,3, (Remix) Stems (1),0.9990057349205017,1
60,100,0.2590909090909091,338,1,131,_Remix_Guitar,6,4, (Remix) Stems (1),0.23120702803134918,0
58,100,0.12272727272727273,400,0,131,_Remix_Guitar,6,2, (Remix) Stems (1),0.265922486782074,0
58,100,0.18181818181818182,431,0,131,_Remix_Guitar,6,3, (Remix) Stems (1),0.35419395565986633,0
58,100,0.16363636363636364,751,1,132,_Remix_Guitar,6,3, (Remix) Stems (1),0.9792566299438477,0
53,100,0.1409090909090909,603,1,133,_Remix_Guitar,6,2, (Remix) Stems (1),0.9983164072036743,1
58,100,0.2772727272727273,831,0,133,_Remix_Guitar,6,4, (Remix) Stems (1),0.5445622205734253,0
58,100,0.1409090909090909,30,1,134,_Remix_Guitar,6,2, (Remix) Stems (1),0.9983737468719482,1
58,100,0.2636363636363636,70,0,134,_Remix_Guitar,6,4, (Remix) Stems (1),0.051059696823358536,0
58,100,0.2409090909090909,273,0,134,_Remix_Guitar,6,4, (Remix) Stems (1),0.04130247235298157,0
58,100,0.41818181818181815,352,0,134,_Remix_Guitar,6,7, (Remix) Stems (1),0.03738421946763992,0
53,100,0.1,479,0,134,_Remix_Guitar,6,2, (Remix) Stems (1),0.03832847625017166,0
53,100,0.1,546,0,134,_Remix_Guitar,6,2, (Remix) Stems (1),0.04474935680627823,0
62,100,0.13636363636363635,678,0,134,_Remix_Guitar,6,2, (Remix) Stems (1),0.05522632226347923,0
58,100,0.11818181818181818,721,0,134,_Remix_Guitar,6,2, (Remix) Stems (1),0.09026158601045609,0
63,100,0.1,694,1,135,_Remix_Guitar,6,2, (Remix) Stems (1),0.9983165264129639,1
63,100,0.1409090909090909,747,0,135,_Remix_Guitar,6,2, (Remix) Stems (1),0.5445597767829895,0
63,100,0.38181818181818183,840,1,136,_Remix_Guitar,6,6, (Remix) Stems (1),0.979256272315979,0
58,100,0.4772727272727273,53,1,138,_Remix_Guitar,6,8, (Remix) Stems (1),0.9990057349205017,1
58,100,0.17727272727272728,273,0,138,_Remix_Guitar,6,3, (Remix) Stems (1),0.231204554438591,0
58,100,0.2818181818181818,725,1,138,_Remix_Guitar,6,5, (Remix) Stems (1),0.2659186124801636,0
53,100,0.1,796,0,138,_Remix_Guitar,6,2, (Remix) Stems (1),0.35419198870658875,0
63,100,0.5,264,1,139,_Remix_Guitar,6,8, (Remix) Stems (1),0.9990057349205017,1
55,100,0.12272727272727273,466,0,139,_Remix_Guitar,6,2, (Remix) Stems (1),0.23120440542697906,0
53,100,0.12272727272727273,562,0,139,_Remix_Guitar,6,2, (Remix) Stems (1),0.26591378450393677,0
53,100,0.11818181818181818,594,0,139,_Remix_Guitar,6,2, (Remix) Stems (1),0.35419589281082153,0
53,100,0.1,185,1,140,_Remix_Guitar,6,2, (Remix) Stems (1),0.9988419413566589,1
53,100,0.2590909090909091,211,0,140,_Remix_Guitar,6,4, (Remix) Stems (1),0.13724493980407715,0
53,100,0.13636363636363635,611,1,140,_Remix_Guitar,6,2, (Remix) Stems (1),0.15977591276168823,0
58,100,0.18181818181818182,694,0,140,_Remix_Guitar,6,3, (Remix) Stems (1),0.1864531934261322,0
53,100,0.2409090909090909,823,0,140,_Remix_Guitar,6,4, (Remix) Stems (1),0.2581627368927002,0
58,100,0.2590909090909091,12,1,141,_Remix_Guitar,6,4, (Remix) Stems (1),0.9986500144004822,1
58,100,0.2,75,0,141,_Remix_Guitar,6,3, (Remix) Stems (1),0.0878007560968399,0
53,100,0.4,166,0,141,_Remix_Guitar,6,6, (Remix) Stems (1),0.0918094739317894,0
53,100,0.35909090909090907,452,1,141,_Remix_Guitar,6,6, (Remix) Stems (1),0.10747253894805908,0
53,100,0.1,576,0,141,_Remix_Guitar,6,2, (Remix) Stems (1),0.12482146918773651,0
58,100,0.2,660,0,141,_Remix_Guitar,6,3, (Remix) Stems (1),0.1790221929550171,0
58,100,0.1409090909090909,818,1,142,_Remix_Guitar,6,2, (Remix) Stems (1),0.9792567491531372,1
58,100,0.21818181818181817,436,1,143,_Remix_Guitar,6,3, (Remix) Stems (1),0.9792561531066895,0
63,100,0.18181818181818182,871,1,145,_Remix_Guitar,6,3, (Remix) Stems (1),0.9792561531066895,0
55,100,0.4818181818181818,158,1,146,_Remix_Guitar,6,8, (Remix) Stems (1),0.9990230798721313,1
55,100,0.1,342,0,146,_Remix_Guitar,6,2, (Remix) Stems (1),0.36663156747817993,0
53,100,0.1,546,0,146,_Remix_Guitar,6,2, (Remix) Stems (1),0.45328283309936523,0
61,100,0.38181818181818183,0,1,34,DL_Nostalgic_Guitar,6,6,nostalgic_ninjyou,0.9990057349205017,1
58,100,2.459090909090909,83,0,34,DL_Nostalgic_Guitar,6,15,nostalgic_ninjyou,0.23120272159576416,0
58,100,0.2590909090909091,646,1,34,DL_Nostalgic_Guitar,6,4,nostalgic_ninjyou,0.265929639339447,0
58,100,1.3,708,0,34,DL_Nostalgic_Guitar,6,15,nostalgic_ninjyou,0.3541858494281769,0
61,100,0.2409090909090909,114,1,35,DL_Nostalgic_Guitar,6,4,nostalgic_ninjyou,0.9988419413566589,1
60,100,0.23636363636363636,260,0,35,DL_Nostalgic_Guitar,6,4,nostalgic_ninjyou,0.1372583955526352,0
63,100,1.5772727272727274,413,0,35,DL_Nostalgic_Guitar,6,15,nostalgic_ninjyou,0.1597854197025299,0
56,100,0.2772727272727273,765,1,35,DL_Nostalgic_Guitar,6,4,nostalgic_ninjyou,0.18646784126758575,0
63,100,1.1227272727272728,826,0,35,DL_Nostalgic_Guitar,6,15,nostalgic_ninjyou,0.25817450881004333,0
63,100,0.8409090909090909,241,1,36,DL_Nostalgic_Guitar,6,13,nostalgic_ninjyou,0.9988419413566589,1
63,100,0.6,471,0,36,DL_Nostalgic_Guitar,6,10,nostalgic_ninjyou,0.13725478947162628,0
63,100,0.3,611,0,36,DL_Nostalgic_Guitar,6,5,nostalgic_ninjyou,0.1597912758588791,0
63,100,0.6590909090909091,681,0,36,DL_Nostalgic_Guitar,6,11,nostalgic_ninjyou,0.1864684373140335,0
63,100,1.7818181818181817,871,0,36,DL_Nostalgic_Guitar,6,15,nostalgic_ninjyou,0.25818032026290894,0
58,100,0.5409090909090909,386,1,37,DL_Nostalgic_Guitar,6,9,nostalgic_ninjyou,0.9990058541297913,1
58,100,0.2409090909090909,558,0,37,DL_Nostalgic_Guitar,6,4,nostalgic_ninjyou,0.2312111109495163,0
63,100,0.18181818181818182,638,0,37,DL_Nostalgic_Guitar,6,3,nostalgic_ninjyou,0.26592814922332764,0
58,100,1.6590909090909092,770,0,37,DL_Nostalgic_Guitar,6,15,nostalgic_ninjyou,0.3541930019855499,0
65,100,1.9,254,1,38,DL_Nostalgic_Guitar,6,15,nostalgic_ninjyou,0.9990229606628418,1
58,100,0.3,796,1,38,DL_Nostalgic_Guitar,6,5,nostalgic_ninjyou,0.3666425943374634,0
58,100,2.118181818181818,875,0,38,DL_Nostalgic_Guitar,6,15,nostalgic_ninjyou,0.4532685875892639,0
63,100,0.9,619,1,39,DL_Nostalgic_Guitar,6,14,nostalgic_ninjyou,0.9983164072036743,1
63,100,0.37727272727272726,823,0,39,DL_Nostalgic_Guitar,6,6,nostalgic_ninjyou,0.5445671081542969,0
63,100,3.4,43,1,40,DL_Nostalgic_Guitar,6,15,nostalgic_ninjyou,0.9990229606628418,1
65,100,0.17727272727272728,801,1,40,DL_Nostalgic_Guitar,6,3,nostalgic_ninjyou,0.3666525185108185,0
63,100,1.1227272727272728,839,0,40,DL_Nostalgic_Guitar,6,15,nostalgic_ninjyou,0.4532722532749176,0
63,100,0.2772727272727273,383,1,41,DL_Nostalgic_Guitar,6,4,nostalgic_ninjyou,0.9990057349205017,1
63,100,0.12272727272727273,488,0,41,DL_Nostalgic_Guitar,6,2,nostalgic_ninjyou,0.2312169373035431,0
63,100,0.5772727272727273,668,0,41,DL_Nostalgic_Guitar,6,9,nostalgic_ninjyou,0.2659321129322052,0
63,100,1.040909090909091,848,0,41,DL_Nostalgic_Guitar,6,15,nostalgic_ninjyou,0.3542028069496155,0
58,100,1.1181818181818182,198,1,42,DL_Nostalgic_Guitar,6,15,nostalgic_ninjyou,0.9990230798721313,1
56,100,1.559090909090909,448,1,42,DL_Nostalgic_Guitar,6,15,nostalgic_ninjyou,0.3666260838508606,0
56,100,1.2363636363636363,810,1,42,DL_Nostalgic_Guitar,6,15,nostalgic_ninjyou,0.4532812535762787,0
58,100,2.922727272727273,201,1,43,DL_Nostalgic_Guitar,6,15,nostalgic_ninjyou,0.9983164072036743,1
56,100,0.759090909090909,848,1,43,DL_Nostalgic_Guitar,6,12,nostalgic_ninjyou,0.5445488095283508,0
53,100,0.35909090909090907,141,1,44,DL_Nostalgic_Guitar,6,6,nostalgic_ninjyou,0.9988419413566589,1
56,100,0.5409090909090909,220,0,44,DL_Nostalgic_Guitar,6,9,nostalgic_ninjyou,0.13724620640277863,0
53,100,0.22272727272727272,356,0,44,DL_Nostalgic_Guitar,6,4,nostalgic_ninjyou,0.15977948904037476,0
56,100,0.7818181818181819,431,0,44,DL_Nostalgic_Guitar,6,13,nostalgic_ninjyou,0.18643659353256226,0
58,100,0.1409090909090909,606,0,44,DL_Nostalgic_Guitar,6,2,nostalgic_ninjyou,0.2581605613231659,0
63,100,0.3,26,1,45,DL_Nostalgic_Guitar,6,5,nostalgic_ninjyou,0.9990057349205017,1
58,100,0.8818181818181818,131,0,45,DL_Nostalgic_Guitar,6,14,nostalgic_ninjyou,0.2312292605638504,0
56,100,0.4590909090909091,383,1,45,DL_Nostalgic_Guitar,6,7,nostalgic_ninjyou,0.26594921946525574,0
56,100,3.3227272727272728,606,0,45,DL_Nostalgic_Guitar,6,15,nostalgic_ninjyou,0.35417014360427856,0
56,100,0.7,783,1,46,DL_Nostalgic_Guitar,6,11,nostalgic_ninjyou,0.9792550206184387,0
53,100,0.3409090909090909,66,1,47,DL_Nostalgic_Guitar,6,5,nostalgic_ninjyou,0.9988419413566589,1
56,100,0.38181818181818183,144,0,47,DL_Nostalgic_Guitar,6,6,nostalgic_ninjyou,0.13724954426288605,0
56,100,1.1409090909090909,289,0,47,DL_Nostalgic_Guitar,6,15,nostalgic_ninjyou,0.15977196395397186,0
58,100,0.9818181818181818,541,1,47,DL_Nostalgic_Guitar,6,15,nostalgic_ninjyou,0.1864476203918457,0
58,100,0.4409090909090909,783,1,47,DL_Nostalgic_Guitar,6,7,nostalgic_ninjyou,0.25815320014953613,0
70,100,0.1590909090909091,83,1,48,DL_Nostalgic_Guitar,6,3,nostalgic_ninjyou,0.9983004927635193,1
58,100,0.17727272727272728,118,0,48,DL_Nostalgic_Guitar,6,3,nostalgic_ninjyou,0.0446639209985733,0
53,100,0.23636363636363636,391,1,48,DL_Nostalgic_Guitar,6,4,nostalgic_ninjyou,0.03314952924847603,0
53,100,0.4590909090909091,448,0,48,DL_Nostalgic_Guitar,6,7,nostalgic_ninjyou,0.02658027410507202,0
56,100,0.3181818181818182,550,0,48,DL_Nostalgic_Guitar,6,5,nostalgic_ninjyou,0.023595087230205536,0
53,100,0.2590909090909091,628,0,48,DL_Nostalgic_Guitar,6,4,nostalgic_ninjyou,0.024315789341926575,0
56,100,0.5409090909090909,703,0,48,DL_Nostalgic_Guitar,6,9,nostalgic_ninjyou,0.029689956456422806,0
56,100,0.1590909090909091,826,0,48,DL_Nostalgic_Guitar,6,3,nostalgic_ninjyou,0.04007778316736221,0
58,100,0.35909090909090907,871,0,48,DL_Nostalgic_Guitar,6,6,nostalgic_ninjyou,0.07093162834644318,0
56,100,0.2,351,1,49,DL_Nostalgic_Guitar,6,3,nostalgic_ninjyou,0.9983164072036743,1
61,100,0.5,756,1,49,DL_Nostalgic_Guitar,6,8,nostalgic_ninjyou,0.5445599555969238,0
56,100,0.9818181818181818,166,1,50,DL_Nostalgic_Guitar,6,15,nostalgic_ninjyou,0.9988419413566589,1
58,100,0.1590909090909091,405,1,50,DL_Nostalgic_Guitar,6,3,nostalgic_ninjyou,0.13724622130393982,0
70,100,0.11818181818181818,440,0,50,DL_Nostalgic_Guitar,6,2,nostalgic_ninjyou,0.1597738116979599,0
58,100,0.3,729,1,50,DL_Nostalgic_Guitar,6,5,nostalgic_ninjyou,0.18644079566001892,0
70,100,0.1590909090909091,813,0,50,DL_Nostalgic_Guitar,6,3,nostalgic_ninjyou,0.25815844535827637,0
58,100,0.38181818181818183,4,1,51,DL_Nostalgic_Guitar,6,6,nostalgic_ninjyou,0.9990057349205017,1
63,100,0.12272727272727273,136,0,51,DL_Nostalgic_Guitar,6,2,nostalgic_ninjyou,0.23120903968811035,0
56,100,1.059090909090909,405,1,51,DL_Nostalgic_Guitar,6,15,nostalgic_ninjyou,0.2659207880496979,0
61,100,0.4409090909090909,703,1,51,DL_Nostalgic_Guitar,6,7,nostalgic_ninjyou,0.35419607162475586,0
60,100,1.1,8,1,52,DL_Nostalgic_Guitar,6,15,nostalgic_ninjyou,0.9990229606628418,1
63,100,0.1409090909090909,263,1,52,DL_Nostalgic_Guitar,6,2,nostalgic_ninjyou,0.366632342338562,0
63,100,1.0772727272727274,413,0,52,DL_Nostalgic_Guitar,6,15,nostalgic_ninjyou,0.4532860517501831,0
56,100,0.3409090909090909,91,1,53,DL_Nostalgic_Guitar,6,5,nostalgic_ninjyou,0.9988419413566589,1
56,100,0.38181818181818183,179,0,53,DL_Nostalgic_Guitar,6,6,nostalgic_ninjyou,0.13724948465824127,0
63,100,1.059090909090909,263,0,53,DL_Nostalgic_Guitar,6,15,nostalgic_ninjyou,0.15977507829666138,0
58,100,0.7818181818181819,638,1,53,DL_Nostalgic_Guitar,6,13,nostalgic_ninjyou,0.18644742667675018,0
63,100,0.2636363636363636,818,0,53,DL_Nostalgic_Guitar,6,4,nostalgic_ninjyou,0.25816085934638977,0
63,100,0.11818181818181818,61,1,54,DL_Nostalgic_Guitar,6,2,nostalgic_ninjyou,0.9990230798721313,1
56,100,0.2590909090909091,338,1,54,DL_Nostalgic_Guitar,6,4,nostalgic_ninjyou,0.3666452467441559,0
63,100,0.740909090909091,563,0,54,DL_Nostalgic_Guitar,6,12,nostalgic_ninjyou,0.45328038930892944,0
55,100,0.13636363636363635,150,1,55,DL_Nostalgic_Guitar,6,2,nostalgic_ninjyou,0.9990230798721313,1
63,100,0.1,703,1,55,DL_Nostalgic_Guitar,6,2,nostalgic_ninjyou,0.3666225075721741,0
56,100,0.36363636363636365,751,0,55,DL_Nostalgic_Guitar,6,6,nostalgic_ninjyou,0.45329219102859497,0
56,100,0.9590909090909091,31,1,56,DL_Nostalgic_Guitar,6,15,nostalgic_ninjyou,0.9986500144004822,1
56,100,0.12272727272727273,268,1,56,DL_Nostalgic_Guitar,6,2,nostalgic_ninjyou,0.08780537545681,0
56,100,0.7,338,0,56,DL_Nostalgic_Guitar,6,11,nostalgic_ninjyou,0.09181609004735947,0
56,100,0.8590909090909091,501,0,56,DL_Nostalgic_Guitar,6,14,nostalgic_ninjyou,0.10747753828763962,0
56,100,0.12272727272727273,694,0,56,DL_Nostalgic_Guitar,6,2,nostalgic_ninjyou,0.12482983618974686,0
56,100,0.2590909090909091,761,0,56,DL_Nostalgic_Guitar,6,4,nostalgic_ninjyou,0.1790226250886917,0
56,100,1.4,26,1,57,DL_Nostalgic_Guitar,6,15,nostalgic_ninjyou,0.9983164072036743,1
56,100,0.8409090909090909,338,1,57,DL_Nostalgic_Guitar,6,13,nostalgic_ninjyou,0.5445600748062134,0
58,100,0.2590909090909091,118,1,58,DL_Nostalgic_Guitar,6,4,nostalgic_ninjyou,0.9990057349205017,1
58,100,0.7636363636363637,179,0,58,DL_Nostalgic_Guitar,6,12,nostalgic_ninjyou,0.23120838403701782,0
58,100,0.1590909090909091,448,1,58,DL_Nostalgic_Guitar,6,3,nostalgic_ninjyou,0.2659299969673157,0
56,100,0.9,681,1,58,DL_Nostalgic_Guitar,6,14,nostalgic_ninjyou,0.3541887104511261,0
56,100,0.9409090909090909,26,1,59,DL_Nostalgic_Guitar,6,15,nostalgic_ninjyou,0.9986500144004822,1
58,100,0.2409090909090909,298,1,59,DL_Nostalgic_Guitar,6,4,nostalgic_ninjyou,0.08780600130558014,0
58,100,0.2409090909090909,378,0,59,DL_Nostalgic_Guitar,6,4,nostalgic_ninjyou,0.09181243181228638,0
55,100,0.21818181818181817,448,0,59,DL_Nostalgic_Guitar,6,3,nostalgic_ninjyou,0.10747724026441574,0
58,100,1.4,518,0,59,DL_Nostalgic_Guitar,6,15,nostalgic_ninjyou,0.12482218444347382,0
58,100,0.2,853,1,59,DL_Nostalgic_Guitar,6,3,nostalgic_ninjyou,0.1790323406457901,0
60,100,0.7227272727272728,48,1,60,DL_Nostalgic_Guitar,6,12,nostalgic_ninjyou,0.9986500144004822,1
56,100,0.5590909090909091,241,0,60,DL_Nostalgic_Guitar,6,9,nostalgic_ninjyou,0.0878044068813324,0
60,100,0.11818181818181818,405,0,60,DL_Nostalgic_Guitar,6,2,nostalgic_ninjyou,0.09181907027959824,0
56,100,0.23636363636363636,545,0,60,DL_Nostalgic_Guitar,6,4,nostalgic_ninjyou,0.10748165845870972,0
56,100,0.3181818181818182,616,0,60,DL_Nostalgic_Guitar,6,5,nostalgic_ninjyou,0.12482818961143494,0
56,100,0.6,848,1,60,DL_Nostalgic_Guitar,6,10,nostalgic_ninjyou,0.1790328472852707,0
56,100,0.6818181818181818,289,1,61,DL_Nostalgic_Guitar,6,11,nostalgic_ninjyou,0.9990229606628418,1
56,100,0.12272727272727273,453,0,61,DL_Nostalgic_Guitar,6,2,nostalgic_ninjyou,0.3666267693042755,0
56,100,0.3,700,1,61,DL_Nostalgic_Guitar,6,5,nostalgic_ninjyou,0.4532890021800995,0
56,100,0.1,43,1,62,DL_Nostalgic_Guitar,6,2,nostalgic_ninjyou,0.9988419413566589,1
56,100,0.5818181818181818,91,0,62,DL_Nostalgic_Guitar,6,9,nostalgic_ninjyou,0.13724291324615479,0
58,100,0.2,228,0,62,DL_Nostalgic_Guitar,6,3,nostalgic_ninjyou,0.15977703034877777,0
58,100,0.1,483,1,62,DL_Nostalgic_Guitar,6,2,nostalgic_ninjyou,0.1864483505487442,0
58,100,1.559090909090909,518,0,62,DL_Nostalgic_Guitar,6,15,nostalgic_ninjyou,0.2581600248813629,0
63,100,0.35909090909090907,677,1,64,DL_Nostalgic_Guitar,6,6,nostalgic_ninjyou,0.9792559146881104,1
60,100,0.2,188,1,45,DL_Guitar,6,3,synjyu_upbeat_poprock,0.9983165264129639,1
71,100,0.2,584,1,45,DL_Guitar,6,3,synjyu_upbeat_poprock,0.5445581078529358,0
52,100,0.1409090909090909,136,1,46,DL_Guitar,6,2,synjyu_upbeat_poprock,0.9986500144004822,1
52,100,0.1590909090909091,185,0,46,DL_Guitar,6,3,synjyu_upbeat_poprock,0.08780469000339508,0
52,100,0.16363636363636364,311,0,46,DL_Guitar,6,3,synjyu_upbeat_poprock,0.0918174758553505,0
52,100,0.2409090909090909,373,0,46,DL_Guitar,6,4,synjyu_upbeat_poprock,0.10748257488012314,0
52,100,0.2818181818181818,681,1,46,DL_Guitar,6,5,synjyu_upbeat_poprock,0.12483204901218414,0
52,100,1.1590909090909092,756,0,46,DL_Guitar,6,15,synjyu_upbeat_poprock,0.17904266715049744,0
52,100,0.38181818181818183,136,1,47,DL_Guitar,6,6,synjyu_upbeat_poprock,0.9990229606628418,1
69,100,0.2772727272727273,536,1,47,DL_Guitar,6,4,synjyu_upbeat_poprock,0.3666228950023651,0
52,100,0.21818181818181817,845,1,47,DL_Guitar,6,3,synjyu_upbeat_poprock,0.4532912075519562,0
52,100,0.4590909090909091,18,1,48,DL_Guitar,6,7,synjyu_upbeat_poprock,0.9990057349205017,1
52,100,0.1409090909090909,136,0,48,DL_Guitar,6,2,synjyu_upbeat_poprock,0.23119749128818512,0
52,100,0.6409090909090909,188,0,48,DL_Guitar,6,10,synjyu_upbeat_poprock,0.2659197747707367,0
52,100,0.1409090909090909,338,0,48,DL_Guitar,6,2,synjyu_upbeat_poprock,0.3542046844959259,0
71,100,0.3,228,1,49,DL_Guitar,6,5,synjyu_upbeat_poprock,0.9792560338973999,0
55,100,0.2590909090909091,75,1,50,DL_Guitar,6,4,synjyu_upbeat_poprock,0.9990229606628418,1
71,100,0.16363636363636364,421,1,50,DL_Guitar,6,3,synjyu_upbeat_poprock,0.36661824584007263,0
52,100,0.18181818181818182,796,1,50,DL_Guitar,6,3,synjyu_upbeat_poprock,0.45328953862190247,0
52,100,0.11818181818181818,96,1,51,DL_Guitar,6,2,synjyu_upbeat_poprock,0.9988419413566589,1
52,100,0.37727272727272726,171,0,51,DL_Guitar,6,6,synjyu_upbeat_poprock,0.13725078105926514,0
60,100,0.16363636363636364,268,0,51,DL_Guitar,6,3,synjyu_upbeat_poprock,0.1597813367843628,0
52,100,0.1,545,1,51,DL_Guitar,6,2,synjyu_upbeat_poprock,0.18645162880420685,0
52,100,1.2181818181818183,590,0,51,DL_Guitar,6,15,synjyu_upbeat_poprock,0.25816610455513,0
69,100,0.2,171,1,52,DL_Guitar,6,3,synjyu_upbeat_poprock,0.9986500144004822,1
69,100,0.22272727272727272,224,0,52,DL_Guitar,6,4,synjyu_upbeat_poprock,0.08780617266893387,0
69,100,0.1590909090909091,361,0,52,DL_Guitar,6,3,synjyu_upbeat_poprock,0.09181459248065948,0
52,100,0.5227272727272727,641,1,52,DL_Guitar,6,8,synjyu_upbeat_poprock,0.10748115181922913,0
64,100,0.11818181818181818,791,0,52,DL_Guitar,6,2,synjyu_upbeat_poprock,0.12483074516057968,0
52,100,0.8227272727272728,839,0,52,DL_Guitar,6,13,synjyu_upbeat_poprock,0.17903682589530945,0
71,100,0.1590909090909091,56,1,54,DL_Guitar,6,3,synjyu_upbeat_poprock,0.9792558550834656,0
64,100,0.1409090909090909,598,1,60,DL_Guitar,6,2,synjyu_upbeat_poprock,0.9792569875717163,0
62,100,0.2,246,1,61,DL_Guitar,6,3,synjyu_upbeat_poprock,0.9983165264129639,1
52,100,0.1590909090909091,845,1,61,DL_Guitar,6,3,synjyu_upbeat_poprock,0.5445595979690552,0
52,100,0.12272727272727273,158,1,62,DL_Guitar,6,2,synjyu_upbeat_poprock,0.9988419413566589,1
52,100,0.1409090909090909,418,1,62,DL_Guitar,6,2,synjyu_upbeat_poprock,0.13724954426288605,0
52,100,0.35909090909090907,536,0,62,DL_Guitar,6,6,synjyu_upbeat_poprock,0.159780815243721,0
52,100,0.2818181818181818,729,0,62,DL_Guitar,6,5,synjyu_upbeat_poprock,0.18645599484443665,0
53,100,0.1409090909090909,804,0,62,DL_Guitar,6,2,synjyu_upbeat_poprock,0.2581721246242523,0
60,100,0.2,8,1,63,DL_Guitar,6,3,synjyu_upbeat_poprock,0.9990057349205017,1
60,100,0.2409090909090909,56,0,63,DL_Guitar,6,4,synjyu_upbeat_poprock,0.23119889199733734,0
53,100,0.22272727272727272,136,0,63,DL_Guitar,6,4,synjyu_upbeat_poprock,0.26590994000434875,0
52,100,0.5409090909090909,466,1,63,DL_Guitar,6,9,synjyu_upbeat_poprock,0.354196697473526,0
52,100,0.18181818181818182,13,1,64,DL_Guitar,6,3,synjyu_upbeat_poprock,0.9990057349205017,1
62,100,0.2,229,0,64,DL_Guitar,6,3,synjyu_upbeat_poprock,0.23120588064193726,0
62,100,0.5772727272727273,559,1,64,DL_Guitar,6,9,synjyu_upbeat_poprock,0.26592525839805603,0
62,100,0.1409090909090909,792,1,64,DL_Guitar,6,2,synjyu_upbeat_poprock,0.35421091318130493,0
62,100,0.11818181818181818,106,1,65,DL_Guitar,6,2,synjyu_upbeat_poprock,0.9983165264129639,1
55,100,0.35909090909090907,413,1,65,DL_Guitar,6,6,synjyu_upbeat_poprock,0.5445592403411865,0
62,100,0.8409090909090909,462,1,66,DL_Guitar,6,13,synjyu_upbeat_poprock,0.9983164072036743,1
62,100,0.9409090909090909,713,1,66,DL_Guitar,6,15,synjyu_upbeat_poprock,0.5445653796195984,0
52,100,0.3,106,1,67,DL_Guitar,6,5,synjyu_upbeat_poprock,0.9988419413566589,1
60,100,0.1590909090909091,250,0,67,DL_Guitar,6,3,synjyu_upbeat_poprock,0.13724705576896667,0
52,100,0.4818181818181818,320,0,67,DL_Guitar,6,8,synjyu_upbeat_poprock,0.15977761149406433,0
65,100,0.2,700,1,67,DL_Guitar,6,3,synjyu_upbeat_poprock,0.18644846975803375,0
53,100,0.36363636363636365,817,0,67,DL_Guitar,6,6,synjyu_upbeat_poprock,0.2581680715084076,0
53,100,0.4590909090909091,22,1,68,DL_Guitar,6,7,synjyu_upbeat_poprock,0.9982553124427795,1
53,100,0.13636363636363635,216,0,68,DL_Guitar,6,2,synjyu_upbeat_poprock,0.04128842428326607,0
52,100,0.2772727272727273,282,0,68,DL_Guitar,6,4,synjyu_upbeat_poprock,0.028934238478541374,0
52,100,0.2,417,0,68,DL_Guitar,6,3,synjyu_upbeat_poprock,0.02128884196281433,0
52,100,0.37727272727272726,493,0,68,DL_Guitar,6,6,synjyu_upbeat_poprock,0.016745716333389282,0
52,100,0.1,580,0,68,DL_Guitar,6,2,synjyu_upbeat_poprock,0.014918796718120575,0
52,100,0.1,606,0,68,DL_Guitar,6,2,synjyu_upbeat_poprock,0.01601666770875454,0
52,100,0.13636363636363635,633,0,68,DL_Guitar,6,2,synjyu_upbeat_poprock,0.021180272102355957,0
62,100,0.12272727272727273,817,0,68,DL_Guitar,6,2,synjyu_upbeat_poprock,0.03156837821006775,0
62,100,0.3409090909090909,849,0,68,DL_Guitar,6,5,synjyu_upbeat_poprock,0.06006021797657013,0
62,100,0.36363636363636365,69,1,69,DL_Guitar,6,6,synjyu_upbeat_poprock,0.9983736276626587,1
62,100,0.11818181818181818,172,0,69,DL_Guitar,6,2,synjyu_upbeat_poprock,0.051062118262052536,0
62,100,0.2636363636363636,202,0,69,DL_Guitar,6,4,synjyu_upbeat_poprock,0.04130391404032707,0
62,100,0.1409090909090909,383,0,69,DL_Guitar,6,2,synjyu_upbeat_poprock,0.03738699108362198,0
52,100,0.2818181818181818,593,0,69,DL_Guitar,6,5,synjyu_upbeat_poprock,0.03833186998963356,0
52,100,0.1590909090909091,673,0,69,DL_Guitar,6,3,synjyu_upbeat_poprock,0.044754527509212494,0
52,100,0.5363636363636364,722,0,69,DL_Guitar,6,9,synjyu_upbeat_poprock,0.05523299053311348,0
60,100,0.1409090909090909,870,0,69,DL_Guitar,6,2,synjyu_upbeat_poprock,0.0902710035443306,0
53,100,0.38181818181818183,307,1,70,DL_Guitar,6,6,synjyu_upbeat_poprock,0.9986500144004822,1
53,100,0.3,396,0,70,DL_Guitar,6,5,synjyu_upbeat_poprock,0.08780346065759659,0
60,100,0.2818181818181818,506,0,70,DL_Guitar,6,5,synjyu_upbeat_poprock,0.09181375801563263,0
52,100,0.5636363636363636,642,0,70,DL_Guitar,6,9,synjyu_upbeat_poprock,0.10747696459293365,0
52,100,0.18181818181818182,770,0,70,DL_Guitar,6,3,synjyu_upbeat_poprock,0.12482640147209167,0
52,100,0.8,839,0,70,DL_Guitar,6,13,synjyu_upbeat_poprock,0.1790286898612976,0
62,100,0.1,417,1,71,DL_Guitar,6,2,synjyu_upbeat_poprock,0.9990057349205017,1
62,100,0.21818181818181817,493,0,71,DL_Guitar,6,3,synjyu_upbeat_poprock,0.23121215403079987,0
62,100,0.6409090909090909,650,0,71,DL_Guitar,6,10,synjyu_upbeat_poprock,0.26593151688575745,0
62,100,0.1590909090909091,823,0,71,DL_Guitar,6,3,synjyu_upbeat_poprock,0.3542180061340332,0
52,100,0.2,399,1,72,DL_Guitar,6,3,synjyu_upbeat_poprock,0.9988419413566589,1
53,100,0.33636363636363636,457,0,72,DL_Guitar,6,5,synjyu_upbeat_poprock,0.1372440904378891,0
53,100,0.16363636363636364,576,0,72,DL_Guitar,6,3,synjyu_upbeat_poprock,0.1597733497619629,0
53,100,0.1590909090909091,660,0,72,DL_Guitar,6,3,synjyu_upbeat_poprock,0.1864406019449234,0
60,100,0.1,734,0,72,DL_Guitar,6,2,synjyu_upbeat_poprock,0.2581607699394226,0
53,100,0.2,30,1,73,DL_Guitar,6,3,synjyu_upbeat_poprock,0.9990057349205017,1
55,100,0.6181818181818182,413,1,73,DL_Guitar,6,10,synjyu_upbeat_poprock,0.2312094271183014,0
55,100,0.35909090909090907,590,0,73,DL_Guitar,6,6,synjyu_upbeat_poprock,0.26592379808425903,0
55,100,0.5,722,0,73,DL_Guitar,6,8,synjyu_upbeat_poprock,0.3541991114616394,0
53,100,0.42272727272727273,796,1,74,DL_Guitar,6,7,synjyu_upbeat_poprock,0.9792558550834656,0
53,100,0.4590909090909091,62,1,75,DL_Guitar,6,7,synjyu_upbeat_poprock,0.9988419413566589,1
60,100,0.17727272727272728,250,0,75,DL_Guitar,6,3,synjyu_upbeat_poprock,0.13724875450134277,0
53,100,0.1,303,0,75,DL_Guitar,6,2,synjyu_upbeat_poprock,0.15977256000041962,0
53,100,0.12272727272727273,356,0,75,DL_Guitar,6,2,synjyu_upbeat_poprock,0.18644413352012634,0
53,100,0.1590909090909091,417,0,75,DL_Guitar,6,3,synjyu_upbeat_poprock,0.2581605017185211,0
52,100,0.2818181818181818,92,1,76,DL_Guitar,6,5,synjyu_upbeat_poprock,0.9983736276626587,1
52,100,0.1,263,0,76,DL_Guitar,6,2,synjyu_upbeat_poprock,0.05106106400489807,0
52,100,0.2,352,0,76,DL_Guitar,6,3,synjyu_upbeat_poprock,0.04130285978317261,0
52,100,0.2636363636363636,399,0,76,DL_Guitar,6,4,synjyu_upbeat_poprock,0.037387143820524216,0
52,100,0.17727272727272728,480,0,76,DL_Guitar,6,3,synjyu_upbeat_poprock,0.03833090141415596,0
52,100,0.1409090909090909,563,0,76,DL_Guitar,6,2,synjyu_upbeat_poprock,0.044752124696969986,0
52,100,0.2,624,0,76,DL_Guitar,6,3,synjyu_upbeat_poprock,0.05523035302758217,0
53,100,0.12272727272727273,729,0,76,DL_Guitar,6,2,synjyu_upbeat_poprock,0.09026779979467392,0
52,100,0.2,157,1,77,DL_Guitar,6,3,synjyu_upbeat_poprock,0.9984880685806274,1
53,100,0.35909090909090907,263,0,77,DL_Guitar,6,6,synjyu_upbeat_poprock,0.0633438229560852,0
53,100,0.1590909090909091,417,0,77,DL_Guitar,6,3,synjyu_upbeat_poprock,0.05773988738656044,0
53,100,0.11818181818181818,457,0,77,DL_Guitar,6,2,synjyu_upbeat_poprock,0.06020067632198334,0
53,100,0.6,523,0,77,DL_Guitar,6,10,synjyu_upbeat_poprock,0.06969817727804184,0
53,100,0.16363636363636364,663,0,77,DL_Guitar,6,3,synjyu_upbeat_poprock,0.08189187198877335,0
60,100,0.11818181818181818,713,0,77,DL_Guitar,6,2,synjyu_upbeat_poprock,0.12402082979679108,0
53,100,0.12272727272727273,35,1,78,DL_Guitar,6,2,synjyu_upbeat_poprock,0.9990057349205017,1
64,100,0.13636363636363635,260,0,78,DL_Guitar,6,2,synjyu_upbeat_poprock,0.23120847344398499,0
52,100,0.1409090909090909,316,0,78,DL_Guitar,6,2,synjyu_upbeat_poprock,0.2659284174442291,0
57,100,0.42272727272727273,466,0,78,DL_Guitar,6,7,synjyu_upbeat_poprock,0.3542037606239319,0
52,100,0.7181818181818181,810,1,80,DL_Guitar,6,11,synjyu_upbeat_poprock,0.9792565107345581,0
52,100,0.1409090909090909,189,1,81,DL_Guitar,6,2,synjyu_upbeat_poprock,0.9986500144004822,1
52,100,0.7181818181818181,263,0,81,DL_Guitar,6,11,synjyu_upbeat_poprock,0.0878048837184906,0
52,100,0.6363636363636364,436,0,81,DL_Guitar,6,10,synjyu_upbeat_poprock,0.09181612730026245,0
52,100,0.6,656,0,81,DL_Guitar,6,10,synjyu_upbeat_poprock,0.1074821949005127,0
52,100,0.1,800,0,81,DL_Guitar,6,2,synjyu_upbeat_poprock,0.12483200430870056,0
52,100,0.5,849,0,81,DL_Guitar,6,8,synjyu_upbeat_poprock,0.17904211580753326,0
53,100,0.35909090909090907,140,1,82,DL_Guitar,6,6,synjyu_upbeat_poprock,0.9986500144004822,1
53,100,0.1590909090909091,326,0,82,DL_Guitar,6,3,synjyu_upbeat_poprock,0.08780205249786377,0
53,100,0.3181818181818182,383,0,82,DL_Guitar,6,5,synjyu_upbeat_poprock,0.09181226789951324,0
53,100,0.2409090909090909,527,0,82,DL_Guitar,6,4,synjyu_upbeat_poprock,0.10747644305229187,0
52,100,0.9,629,0,82,DL_Guitar,6,14,synjyu_upbeat_poprock,0.12482544034719467,0
52,100,0.7636363636363637,839,0,82,DL_Guitar,6,12,synjyu_upbeat_poprock,0.17902697622776031,0
52,100,0.4772727272727273,150,1,83,DL_Guitar,6,8,synjyu_upbeat_poprock,0.9792572855949402,0
52,100,0.7636363636363637,466,1,84,DL_Guitar,6,12,synjyu_upbeat_poprock,0.9990230798721313,1
52,100,0.4590909090909091,682,0,84,DL_Guitar,6,7,synjyu_upbeat_poprock,0.36662206053733826,0
52,100,0.6181818181818182,810,0,84,DL_Guitar,6,10,synjyu_upbeat_poprock,0.4532899856567383,0
52,100,0.2590909090909091,229,1,85,DL_Guitar,6,4,synjyu_upbeat_poprock,0.9990229606628418,1
52,100,0.8,316,0,85,DL_Guitar,6,13,synjyu_upbeat_poprock,0.3666212558746338,0
52,100,0.1409090909090909,514,0,85,DL_Guitar,6,2,synjyu_upbeat_poprock,0.45329880714416504,0
55,100,0.1409090909090909,417,1,86,DL_Guitar,6,2,synjyu_upbeat_poprock,0.9792563915252686,1
65,100,0.3409090909090909,286,1,89,DL_Guitar,6,5,synjyu_upbeat_poprock,0.9792560338973999,0
55,100,0.6818181818181818,572,1,93,DL_Guitar,6,11,synjyu_upbeat_poprock,0.9983164072036743,1
55,100,0.18181818181818182,849,1,93,DL_Guitar,6,3,synjyu_upbeat_poprock,0.5445569753646851,0
78,100,0.17727272727272728,250,1,94,DL_Guitar,6,3,synjyu_upbeat_poprock,0.9990057349205017,1
53,100,0.21818181818181817,360,0,94,DL_Guitar,6,3,synjyu_upbeat_poprock,0.2311956137418747,0
53,100,0.1590909090909091,493,0,94,DL_Guitar,6,3,synjyu_upbeat_poprock,0.2659188210964203,0
61,100,0.2,779,1,94,DL_Guitar,6,3,synjyu_upbeat_poprock,0.3541906476020813,0
53,100,0.12272727272727273,3,1,96,DL_Guitar,6,2,synjyu_upbeat_poprock,0.9986500144004822,1
53,100,0.1590909090909091,140,0,96,DL_Guitar,6,3,synjyu_upbeat_poprock,0.08780140429735184,0
53,100,0.1409090909090909,320,0,96,DL_Guitar,6,2,synjyu_upbeat_poprock,0.09181362390518188,0
53,100,0.2,373,0,96,DL_Guitar,6,3,synjyu_upbeat_poprock,0.10747641324996948,0
56,100,0.1,619,1,96,DL_Guitar,6,2,synjyu_upbeat_poprock,0.1248188242316246,0
61,100,0.1590909090909091,866,1,96,DL_Guitar,6,3,synjyu_upbeat_poprock,0.1790270060300827,0
61,100,0.16363636363636364,47,1,97,DL_Guitar,6,3,synjyu_upbeat_poprock,0.9990057349205017,1
54,100,0.17727272727272728,163,0,97,DL_Guitar,6,3,synjyu_upbeat_poprock,0.23120592534542084,0
54,100,0.3,242,0,97,DL_Guitar,6,5,synjyu_upbeat_poprock,0.2659248113632202,0
53,100,0.1,330,0,97,DL_Guitar,6,2,synjyu_upbeat_poprock,0.3541972041130066,0
61,100,0.12272727272727273,92,1,98,DL_Guitar,6,2,synjyu_upbeat_poprock,0.9990057349205017,1
61,100,0.32272727272727275,202,0,98,DL_Guitar,6,5,synjyu_upbeat_poprock,0.2312030792236328,0
61,100,0.13636363636363635,303,0,98,DL_Guitar,6,2,synjyu_upbeat_poprock,0.2659175992012024,0
61,100,0.2,440,0,98,DL_Guitar,6,3,synjyu_upbeat_poprock,0.354198694229126,0
53,100,0.17727272727272728,370,1,100,DL_Guitar,6,3,synjyu_upbeat_poprock,0.9988419413566589,1
53,100,0.1,502,0,100,DL_Guitar,6,2,synjyu_upbeat_poprock,0.13724541664123535,0
53,100,0.1409090909090909,637,0,100,DL_Guitar,6,2,synjyu_upbeat_poprock,0.1597752720117569,0
53,100,0.21818181818181817,779,0,100,DL_Guitar,6,3,synjyu_upbeat_poprock,0.1864490509033203,0
53,100,0.2590909090909091,870,0,100,DL_Guitar,6,4,synjyu_upbeat_poprock,0.2581700086593628,0
53,100,0.11818181818181818,150,1,101,DL_Guitar,6,2,synjyu_upbeat_poprock,0.9990057349205017,1
53,100,0.1,307,0,101,DL_Guitar,6,2,synjyu_upbeat_poprock,0.23119749128818512,0
53,100,0.2818181818181818,409,0,101,DL_Guitar,6,5,synjyu_upbeat_poprock,0.2659136950969696,0
54,100,0.1,734,1,101,DL_Guitar,6,2,synjyu_upbeat_poprock,0.35419008135795593,0
54,100,0.1590909090909091,9,1,102,DL_Guitar,6,3,synjyu_upbeat_poprock,0.9990229606628418,1
53,100,0.1409090909090909,43,0,102,DL_Guitar,6,2,synjyu_upbeat_poprock,0.3666124641895294,0
53,100,0.17727272727272728,633,1,102,DL_Guitar,6,3,synjyu_upbeat_poprock,0.45328572392463684,0
52,100,0.7227272727272728,48,1,0,_tunecore_Remastered_Guitar,6,12,ninjyouuranagaya,0.9988419413566589,1
59,100,0.2,370,1,0,_tunecore_Remastered_Guitar,6,3,ninjyouuranagaya,0.13724851608276367,0
59,100,0.1,559,0,0,_tunecore_Remastered_Guitar,6,2,ninjyouuranagaya,0.15977467596530914,0
59,100,0.2,713,0,0,_tunecore_Remastered_Guitar,6,3,ninjyouuranagaya,0.1864534467458725,0
61,100,0.4,801,0,0,_tunecore_Remastered_Guitar,6,6,ninjyouuranagaya,0.2581598162651062,0
64,100,0.6181818181818182,18,1,1,_tunecore_Remastered_Guitar,6,10,ninjyouuranagaya,0.9983003735542297,1
61,100,0.1590909090909091,241,0,1,_tunecore_Remastered_Guitar,6,3,ninjyouuranagaya,0.04466383904218674,0
66,100,0.2409090909090909,299,0,1,_tunecore_Remastered_Guitar,6,4,ninjyouuranagaya,0.033150214701890945,0
68,100,0.3181818181818182,369,0,1,_tunecore_Remastered_Guitar,6,5,ninjyouuranagaya,0.02657950669527054,0
66,100,0.4818181818181818,475,0,1,_tunecore_Remastered_Guitar,6,8,ninjyouuranagaya,0.023595064878463745,0
66,100,0.1590909090909091,669,0,1,_tunecore_Remastered_Guitar,6,3,ninjyouuranagaya,0.024314360693097115,0
59,100,0.1590909090909091,744,0,1,_tunecore_Remastered_Guitar,6,3,ninjyouuranagaya,0.029689639806747437,0
61,100,0.3181818181818182,791,0,1,_tunecore_Remastered_Guitar,6,5,ninjyouuranagaya,0.040076009929180145,0
59,100,0.759090909090909,871,0,1,_tunecore_Remastered_Guitar,6,12,ninjyouuranagaya,0.07093004137277603,0
59,100,0.6772727272727272,193,1,2,_tunecore_Remastered_Guitar,6,11,ninjyouuranagaya,0.9984880685806274,1
64,100,0.21818181818181817,348,0,2,_tunecore_Remastered_Guitar,6,3,ninjyouuranagaya,0.06334636360406876,0
59,100,0.2409090909090909,427,0,2,_tunecore_Remastered_Guitar,6,4,ninjyouuranagaya,0.05774310603737831,0
64,100,0.2409090909090909,488,0,2,_tunecore_Remastered_Guitar,6,4,ninjyouuranagaya,0.060203712433576584,0
52,100,0.6409090909090909,541,0,2,_tunecore_Remastered_Guitar,6,10,ninjyouuranagaya,0.06970340758562088,0
64,100,0.1,779,1,2,_tunecore_Remastered_Guitar,6,2,ninjyouuranagaya,0.08189739286899567,0
64,100,0.1,849,0,2,_tunecore_Remastered_Guitar,6,2,ninjyouuranagaya,0.12402722239494324,0
59,100,0.2,34,1,3,_tunecore_Remastered_Guitar,6,3,ninjyouuranagaya,0.9982276558876038,1
61,100,0.2818181818181818,100,0,3,_tunecore_Remastered_Guitar,6,5,ninjyouuranagaya,0.039396803826093674,0
64,100,0.3181818181818182,176,0,3,_tunecore_Remastered_Guitar,6,5,ninjyouuranagaya,0.026673704385757446,0
61,100,0.35909090909090907,369,0,3,_tunecore_Remastered_Guitar,6,6,ninjyouuranagaya,0.018588099628686905,0
64,100,0.2,458,0,3,_tunecore_Remastered_Guitar,6,3,ninjyouuranagaya,0.013414617627859116,0
68,100,0.17727272727272728,537,0,3,_tunecore_Remastered_Guitar,6,3,ninjyouuranagaya,0.010587378405034542,0
66,100,0.2590909090909091,593,0,3,_tunecore_Remastered_Guitar,6,4,ninjyouuranagaya,0.009840109385550022,0
64,100,0.23636363636363636,656,0,3,_tunecore_Remastered_Guitar,6,4,ninjyouuranagaya,0.011417633853852749,0
61,100,0.2636363636363636,708,0,3,_tunecore_Remastered_Guitar,6,4,ninjyouuranagaya,0.016512280330061913,0
57,100,0.13636363636363635,810,0,3,_tunecore_Remastered_Guitar,6,2,ninjyouuranagaya,0.02681853249669075,0
66,100,0.8181818181818182,853,0,3,_tunecore_Remastered_Guitar,6,13,ninjyouuranagaya,0.053917672485113144,0
66,100,0.7,158,1,4,_tunecore_Remastered_Guitar,6,11,ninjyouuranagaya,0.9990230798721313,1
64,100,1.2636363636363637,334,0,4,_tunecore_Remastered_Guitar,6,15,ninjyouuranagaya,0.3666214346885681,0
63,100,0.1409090909090909,836,1,4,_tunecore_Remastered_Guitar,6,2,ninjyouuranagaya,0.4532902240753174,0
64,100,0.12272727272727273,135,1,5,_tunecore_Remastered_Guitar,6,2,ninjyouuranagaya,0.9990229606628418,1
52,100,0.740909090909091,163,0,5,_tunecore_Remastered_Guitar,6,12,ninjyouuranagaya,0.36662158370018005,0
61,100,0.4590909090909091,854,1,5,_tunecore_Remastered_Guitar,6,7,ninjyouuranagaya,0.45329469442367554,0
64,100,0.1409090909090909,74,1,6,_tunecore_Remastered_Guitar,6,2,ninjyouuranagaya,0.9984880685806274,1
64,100,0.42272727272727273,145,0,6,_tunecore_Remastered_Guitar,6,7,ninjyouuranagaya,0.06334426999092102,0
61,100,0.1,550,1,6,_tunecore_Remastered_Guitar,6,2,ninjyouuranagaya,0.057741083204746246,0
61,100,0.1,598,0,6,_tunecore_Remastered_Guitar,6,2,ninjyouuranagaya,0.06020355224609375,0
61,100,0.2,721,0,6,_tunecore_Remastered_Guitar,6,3,ninjyouuranagaya,0.06970413029193878,0
57,100,0.1409090909090909,826,0,6,_tunecore_Remastered_Guitar,6,2,ninjyouuranagaya,0.08189592510461807,0
61,100,0.3409090909090909,871,0,6,_tunecore_Remastered_Guitar,6,5,ninjyouuranagaya,0.1240258440375328,0
63,100,0.4,220,1,7,_tunecore_Remastered_Guitar,6,6,ninjyouuranagaya,0.9990229606628418,1
52,100,0.6363636363636364,634,1,7,_tunecore_Remastered_Guitar,6,10,ninjyouuranagaya,0.36662280559539795,0
52,100,0.22272727272727272,818,0,7,_tunecore_Remastered_Guitar,6,4,ninjyouuranagaya,0.4532991945743561,0
68,100,0.2409090909090909,110,1,8,_tunecore_Remastered_Guitar,6,4,ninjyouuranagaya,0.9990229606628418,1
64,100,0.2590909090909091,462,1,8,_tunecore_Remastered_Guitar,6,4,ninjyouuranagaya,0.36662232875823975,0
64,100,0.1590909090909091,558,0,8,_tunecore_Remastered_Guitar,6,3,ninjyouuranagaya,0.45328837633132935,0
61,100,0.1590909090909091,194,1,9,_tunecore_Remastered_Guitar,6,3,ninjyouuranagaya,0.9990057349205017,1
64,100,0.1,369,0,9,_tunecore_Remastered_Guitar,6,2,ninjyouuranagaya,0.23120573163032532,0
59,100,0.11818181818181818,527,0,9,_tunecore_Remastered_Guitar,6,2,ninjyouuranagaya,0.26592057943344116,0
63,100,0.2590909090909091,677,0,9,_tunecore_Remastered_Guitar,6,4,ninjyouuranagaya,0.354200541973114,0
52,100,0.5818181818181818,245,1,10,_tunecore_Remastered_Guitar,6,9,ninjyouuranagaya,0.9792566299438477,0
61,100,0.5,65,1,11,_tunecore_Remastered_Guitar,6,8,ninjyouuranagaya,0.9990057349205017,1
61,100,0.42272727272727273,343,1,11,_tunecore_Remastered_Guitar,6,7,ninjyouuranagaya,0.23120659589767456,0
61,100,0.36363636363636365,663,1,11,_tunecore_Remastered_Guitar,6,6,ninjyouuranagaya,0.2659249007701874,0
57,100,0.2,849,0,11,_tunecore_Remastered_Guitar,6,3,ninjyouuranagaya,0.3541972041130066,0
57,100,0.1409090909090909,48,1,12,_tunecore_Remastered_Guitar,6,2,ninjyouuranagaya,0.9988419413566589,1
61,100,0.12272727272727273,135,0,12,_tunecore_Remastered_Guitar,6,2,ninjyouuranagaya,0.13724879920482635,0
59,100,0.11818181818181818,307,0,12,_tunecore_Remastered_Guitar,6,2,ninjyouuranagaya,0.15977826714515686,0
63,100,0.2,378,0,12,_tunecore_Remastered_Guitar,6,3,ninjyouuranagaya,0.18644310534000397,0
52,100,0.6,730,1,12,_tunecore_Remastered_Guitar,6,10,ninjyouuranagaya,0.25816667079925537,0
52,100,0.12272727272727273,48,1,13,_tunecore_Remastered_Guitar,6,2,ninjyouuranagaya,0.9986500144004822,1
52,100,0.1409090909090909,285,1,13,_tunecore_Remastered_Guitar,6,2,ninjyouuranagaya,0.08780331164598465,0
61,100,0.18181818181818182,615,1,13,_tunecore_Remastered_Guitar,6,3,ninjyouuranagaya,0.09181410074234009,0
64,100,0.2818181818181818,716,0,13,_tunecore_Remastered_Guitar,6,5,ninjyouuranagaya,0.10747882723808289,0
61,100,0.1,787,0,13,_tunecore_Remastered_Guitar,6,2,ninjyouuranagaya,0.12482814490795135,0
61,100,0.12272727272727273,840,0,13,_tunecore_Remastered_Guitar,6,2,ninjyouuranagaya,0.17903923988342285,0
61,100,0.3181818181818182,295,1,14,_tunecore_Remastered_Guitar,6,5,ninjyouuranagaya,0.9988419413566589,1
61,100,0.3409090909090909,395,0,14,_tunecore_Remastered_Guitar,6,5,ninjyouuranagaya,0.13724790513515472,0
64,100,0.1,470,0,14,_tunecore_Remastered_Guitar,6,2,ninjyouuranagaya,0.15977826714515686,0
57,100,0.2590909090909091,519,0,14,_tunecore_Remastered_Guitar,6,4,ninjyouuranagaya,0.18644917011260986,0
63,100,0.32272727272727275,840,1,14,_tunecore_Remastered_Guitar,6,5,ninjyouuranagaya,0.25817158818244934,0
59,100,0.18181818181818182,276,1,15,_tunecore_Remastered_Guitar,6,3,ninjyouuranagaya,0.9986500144004822,1
57,100,0.2,426,0,15,_tunecore_Remastered_Guitar,6,3,ninjyouuranagaya,0.0878022089600563,0
61,100,0.4409090909090909,510,0,15,_tunecore_Remastered_Guitar,6,7,ninjyouuranagaya,0.09181337058544159,0
61,100,0.2,656,0,15,_tunecore_Remastered_Guitar,6,3,ninjyouuranagaya,0.10747991502285004,0
57,100,0.16363636363636364,773,0,15,_tunecore_Remastered_Guitar,6,3,ninjyouuranagaya,0.12482946366071701,0
61,100,0.21818181818181817,823,0,15,_tunecore_Remastered_Guitar,6,3,ninjyouuranagaya,0.17904172837734222,0
59,100,0.1409090909090909,3,1,16,_tunecore_Remastered_Guitar,6,2,ninjyouuranagaya,0.9986500144004822,1
63,100,0.6772727272727272,61,0,16,_tunecore_Remastered_Guitar,6,11,ninjyouuranagaya,0.08780144900083542,0
64,100,0.3181818181818182,505,1,16,_tunecore_Remastered_Guitar,6,5,ninjyouuranagaya,0.09181565791368484,0
57,100,0.5818181818181818,584,0,16,_tunecore_Remastered_Guitar,6,9,ninjyouuranagaya,0.10748078674077988,0
57,100,0.2,721,0,16,_tunecore_Remastered_Guitar,6,3,ninjyouuranagaya,0.1248321682214737,0
61,100,0.35909090909090907,783,0,16,_tunecore_Remastered_Guitar,6,6,ninjyouuranagaya,0.1790345460176468,0
57,100,0.6,0,1,17,_tunecore_Remastered_Guitar,6,10,ninjyouuranagaya,0.9990057349205017,1
61,100,0.41818181818181815,405,1,17,_tunecore_Remastered_Guitar,6,7,ninjyouuranagaya,0.2312055230140686,0
61,100,0.2,686,1,17,_tunecore_Remastered_Guitar,6,3,ninjyouuranagaya,0.2659212052822113,0
52,100,0.6181818181818182,831,0,17,_tunecore_Remastered_Guitar,6,10,ninjyouuranagaya,0.3542030453681946,0
52,100,0.32272727272727275,233,1,18,_tunecore_Remastered_Guitar,6,5,ninjyouuranagaya,0.9990229606628418,1
52,100,0.21818181818181817,316,0,18,_tunecore_Remastered_Guitar,6,3,ninjyouuranagaya,0.3666214048862457,0
52,100,0.1409090909090909,440,0,18,_tunecore_Remastered_Guitar,6,2,ninjyouuranagaya,0.453300803899765,0
59,100,0.22272727272727272,69,1,19,_tunecore_Remastered_Guitar,6,4,ninjyouuranagaya,0.9988419413566589,1
57,100,0.21818181818181817,193,0,19,_tunecore_Remastered_Guitar,6,3,ninjyouuranagaya,0.13724690675735474,0
57,100,0.35909090909090907,382,0,19,_tunecore_Remastered_Guitar,6,6,ninjyouuranagaya,0.15977634489536285,0
57,100,0.6,470,0,19,_tunecore_Remastered_Guitar,6,10,ninjyouuranagaya,0.18644395470619202,0
61,100,0.2590909090909091,677,0,19,_tunecore_Remastered_Guitar,6,4,ninjyouuranagaya,0.2581643760204315,0
61,100,0.5,9,1,20,_tunecore_Remastered_Guitar,6,8,ninjyouuranagaya,0.9988419413566589,1
61,100,0.13636363636363635,150,0,20,_tunecore_Remastered_Guitar,6,2,ninjyouuranagaya,0.13724765181541443,0
52,100,0.6590909090909091,449,1,20,_tunecore_Remastered_Guitar,6,11,ninjyouuranagaya,0.15977491438388824,0
52,100,0.1409090909090909,814,1,20,_tunecore_Remastered_Guitar,6,2,ninjyouuranagaya,0.1864502727985382,0
52,100,0.42272727272727273,862,0,20,_tunecore_Remastered_Guitar,6,7,ninjyouuranagaya,0.258175790309906,0
59,100,0.1,113,1,21,_tunecore_Remastered_Guitar,6,2,ninjyouuranagaya,0.9990057349205017,1
63,100,0.22272727272727272,584,1,21,_tunecore_Remastered_Guitar,6,4,ninjyouuranagaya,0.23121093213558197,0
57,100,0.5818181818181818,681,0,21,_tunecore_Remastered_Guitar,6,9,ninjyouuranagaya,0.26592883467674255,0
61,100,0.3181818181818182,831,0,21,_tunecore_Remastered_Guitar,6,5,ninjyouuranagaya,0.3542061150074005,0
57,100,0.32272727272727275,69,1,22,_tunecore_Remastered_Guitar,6,5,ninjyouuranagaya,0.9990229606628418,1
57,100,0.6818181818181818,144,0,22,_tunecore_Remastered_Guitar,6,11,ninjyouuranagaya,0.3666262626647949,0
61,100,0.2409090909090909,509,1,22,_tunecore_Remastered_Guitar,6,4,ninjyouuranagaya,0.4532914459705353,0
59,100,0.1409090909090909,110,1,23,_tunecore_Remastered_Guitar,6,2,ninjyouuranagaya,0.9988419413566589,1
63,100,0.13636363636363635,237,0,23,_tunecore_Remastered_Guitar,6,2,ninjyouuranagaya,0.13724690675735474,0
59,100,0.2772727272727273,405,0,23,_tunecore_Remastered_Guitar,6,4,ninjyouuranagaya,0.1597847193479538,0
63,100,0.5181818181818182,546,0,23,_tunecore_Remastered_Guitar,6,8,ninjyouuranagaya,0.18644574284553528,0
59,100,0.11818181818181818,866,1,23,_tunecore_Remastered_Guitar,6,2,ninjyouuranagaya,0.2581723928451538,0
61,100,0.21818181818181817,480,1,24,_tunecore_Remastered_Guitar,6,3,ninjyouuranagaya,0.9990229606628418,1
57,100,0.22272727272727272,576,0,24,_tunecore_Remastered_Guitar,6,4,ninjyouuranagaya,0.3666210472583771,0
64,100,0.2,862,1,24,_tunecore_Remastered_Guitar,6,3,ninjyouuranagaya,0.4532967507839203,0
61,100,0.17727272727272728,52,1,25,_tunecore_Remastered_Guitar,6,3,ninjyouuranagaya,0.9983736276626587,1
64,100,0.4409090909090909,100,0,25,_tunecore_Remastered_Guitar,6,7,ninjyouuranagaya,0.051061779260635376,0
61,100,0.3,220,0,25,_tunecore_Remastered_Guitar,6,5,ninjyouuranagaya,0.041303303092718124,0
61,100,0.4,289,0,25,_tunecore_Remastered_Guitar,6,6,ninjyouuranagaya,0.037386100739240646,0
61,100,0.16363636363636364,488,0,25,_tunecore_Remastered_Guitar,6,3,ninjyouuranagaya,0.03832966461777687,0
52,100,0.17727272727272728,633,0,25,_tunecore_Remastered_Guitar,6,3,ninjyouuranagaya,0.04475236311554909,0
52,100,0.1590909090909091,760,0,25,_tunecore_Remastered_Guitar,6,3,ninjyouuranagaya,0.055229730904102325,0
59,100,0.17727272727272728,801,0,25,_tunecore_Remastered_Guitar,6,3,ninjyouuranagaya,0.09026443213224411,0
52,100,0.1,34,1,26,_tunecore_Remastered_Guitar,6,2,ninjyouuranagaya,0.9990058541297913,1
63,100,0.2818181818181818,285,1,26,_tunecore_Remastered_Guitar,6,5,ninjyouuranagaya,0.23120766878128052,0
63,100,0.3409090909090909,694,1,26,_tunecore_Remastered_Guitar,6,5,ninjyouuranagaya,0.26593637466430664,0
57,100,0.21818181818181817,858,0,26,_tunecore_Remastered_Guitar,6,3,ninjyouuranagaya,0.3542008399963379,0
57,100,0.2,30,1,27,_tunecore_Remastered_Guitar,6,3,ninjyouuranagaya,0.9983004927635193,1
57,100,0.1590909090909091,79,0,27,_tunecore_Remastered_Guitar,6,3,ninjyouuranagaya,0.04466428980231285,0
57,100,0.1,127,0,27,_tunecore_Remastered_Guitar,6,2,ninjyouuranagaya,0.03315000236034393,0
57,100,0.4590909090909091,198,0,27,_tunecore_Remastered_Guitar,6,7,ninjyouuranagaya,0.02658117562532425,0
64,100,0.5181818181818182,461,1,27,_tunecore_Remastered_Guitar,6,8,ninjyouuranagaya,0.023595480248332024,0
64,100,0.2,598,0,27,_tunecore_Remastered_Guitar,6,3,ninjyouuranagaya,0.024315353482961655,0
64,100,0.11818181818181818,677,0,27,_tunecore_Remastered_Guitar,6,2,ninjyouuranagaya,0.02969069592654705,0
61,100,0.38181818181818183,704,0,27,_tunecore_Remastered_Guitar,6,6,ninjyouuranagaya,0.04007808491587639,0
61,100,0.38181818181818183,791,0,27,_tunecore_Remastered_Guitar,6,6,ninjyouuranagaya,0.07093068957328796,0
52,100,0.2,154,1,28,_tunecore_Remastered_Guitar,6,3,ninjyouuranagaya,0.9984880685806274,1
52,100,0.3,206,0,28,_tunecore_Remastered_Guitar,6,5,ninjyouuranagaya,0.06334585696458817,0
52,100,0.11818181818181818,281,0,28,_tunecore_Remastered_Guitar,6,2,ninjyouuranagaya,0.05774228647351265,0
52,100,0.5409090909090909,430,0,28,_tunecore_Remastered_Guitar,6,9,ninjyouuranagaya,0.060203034430742264,0
59,100,0.12272727272727273,553,0,28,_tunecore_Remastered_Guitar,6,2,ninjyouuranagaya,0.06970574706792831,0
59,100,0.11818181818181818,646,0,28,_tunecore_Remastered_Guitar,6,2,ninjyouuranagaya,0.08189637213945389,0
59,100,0.11818181818181818,835,0,28,_tunecore_Remastered_Guitar,6,2,ninjyouuranagaya,0.12402518093585968,0
59,100,0.1,210,1,29,_tunecore_Remastered_Guitar,6,2,ninjyouuranagaya,0.9990057349205017,1
52,100,0.7227272727272728,364,0,29,_tunecore_Remastered_Guitar,6,12,ninjyouuranagaya,0.23119604587554932,0
52,100,0.5818181818181818,576,0,29,_tunecore_Remastered_Guitar,6,9,ninjyouuranagaya,0.2659209072589874,0
52,100,0.2636363636363636,818,1,29,_tunecore_Remastered_Guitar,6,4,ninjyouuranagaya,0.3541983962059021,0
64,100,0.23636363636363636,281,1,30,_tunecore_Remastered_Guitar,6,4,ninjyouuranagaya,0.9990229606628418,1
61,100,0.37727272727272726,515,1,30,_tunecore_Remastered_Guitar,6,6,ninjyouuranagaya,0.36661970615386963,0
61,100,0.1,822,1,30,_tunecore_Remastered_Guitar,6,2,ninjyouuranagaya,0.45328518748283386,0
71,100,0.11818181818181818,30,1,31,_tunecore_Remastered_Guitar,6,2,ninjyouuranagaya,0.9983736276626587,1
52,100,0.22272727272727272,179,0,31,_tunecore_Remastered_Guitar,6,4,ninjyouuranagaya,0.05106078460812569,0
52,100,0.1590909090909091,260,0,31,_tunecore_Remastered_Guitar,6,3,ninjyouuranagaya,0.04130318760871887,0
59,100,0.12272727272727273,453,0,31,_tunecore_Remastered_Guitar,6,2,ninjyouuranagaya,0.03738730773329735,0
63,100,0.2590909090909091,646,0,31,_tunecore_Remastered_Guitar,6,4,ninjyouuranagaya,0.0383296012878418,0
54,100,0.12272727272727273,739,0,31,_tunecore_Remastered_Guitar,6,2,ninjyouuranagaya,0.0447549968957901,0
59,100,0.16363636363636364,818,0,31,_tunecore_Remastered_Guitar,6,3,ninjyouuranagaya,0.05523102730512619,0
52,100,0.8409090909090909,862,0,31,_tunecore_Remastered_Guitar,6,13,ninjyouuranagaya,0.09026940166950226,0
68,100,0.13636363636363635,281,1,32,_tunecore_Remastered_Guitar,6,2,ninjyouuranagaya,0.9990057349205017,1
59,100,0.16363636363636364,421,0,32,_tunecore_Remastered_Guitar,6,3,ninjyouuranagaya,0.23120000958442688,0
59,100,0.11818181818181818,506,0,32,_tunecore_Remastered_Guitar,6,2,ninjyouuranagaya,0.26591259241104126,0
64,100,0.2,778,1,32,_tunecore_Remastered_Guitar,6,3,ninjyouuranagaya,0.35419026017189026,0
61,100,0.4772727272727273,105,1,33,_tunecore_Remastered_Guitar,6,8,ninjyouuranagaya,0.9986500144004822,1
64,100,0.1590909090909091,211,0,33,_tunecore_Remastered_Guitar,6,3,ninjyouuranagaya,0.0878046452999115,0
64,100,0.3409090909090909,268,0,33,_tunecore_Remastered_Guitar,6,5,ninjyouuranagaya,0.09181851893663406,0
61,100,0.1409090909090909,351,0,33,_tunecore_Remastered_Guitar,6,2,ninjyouuranagaya,0.10748261213302612,0
68,100,0.17727272727272728,448,0,33,_tunecore_Remastered_Guitar,6,3,ninjyouuranagaya,0.12483591586351395,0
68,100,0.5,509,0,33,_tunecore_Remastered_Guitar,6,8,ninjyouuranagaya,0.17904098331928253,0
52,100,0.6590909090909091,461,1,34,_tunecore_Remastered_Guitar,6,11,ninjyouuranagaya,0.9792565107345581,0
61,100,0.12272727272727273,364,1,35,_tunecore_Remastered_Guitar,6,2,ninjyouuranagaya,0.9988419413566589,1
64,100,0.16363636363636364,399,0,35,_tunecore_Remastered_Guitar,6,3,ninjyouuranagaya,0.137247696518898,0
64,100,0.1409090909090909,474,0,35,_tunecore_Remastered_Guitar,6,2,ninjyouuranagaya,0.1597755253314972,0
61,100,0.2,641,0,35,_tunecore_Remastered_Guitar,6,3,ninjyouuranagaya,0.1864451766014099,0
52,100,0.2590909090909091,866,0,35,_tunecore_Remastered_Guitar,6,4,ninjyouuranagaya,0.25817492604255676,0
52,100,0.5227272727272727,268,1,36,_tunecore_Remastered_Guitar,6,8,ninjyouuranagaya,0.9990229606628418,1
59,100,0.1590909090909091,545,1,36,_tunecore_Remastered_Guitar,6,3,ninjyouuranagaya,0.36661845445632935,0
59,100,0.32272727272727275,606,0,36,_tunecore_Remastered_Guitar,6,5,ninjyouuranagaya,0.4532901644706726,0
52,100,0.6181818181818182,75,1,37,_tunecore_Remastered_Guitar,6,10,ninjyouuranagaya,0.9990229606628418,1
61,100,0.1409090909090909,708,1,37,_tunecore_Remastered_Guitar,6,2,ninjyouuranagaya,0.36662036180496216,0
61,100,0.2590909090909091,791,0,37,_tunecore_Remastered_Guitar,6,4,ninjyouuranagaya,0.45328590273857117,0
64,100,0.1409090909090909,0,1,38,_tunecore_Remastered_Guitar,6,2,ninjyouuranagaya,0.9983003735542297,1
61,100,0.18181818181818182,56,0,38,_tunecore_Remastered_Guitar,6,3,ninjyouuranagaya,0.044663816690444946,0
64,100,0.12272727272727273,123,0,38,_tunecore_Remastered_Guitar,6,2,ninjyouuranagaya,0.03315000981092453,0
61,100,0.3,215,0,38,_tunecore_Remastered_Guitar,6,5,ninjyouuranagaya,0.02657998912036419,0
64,100,0.17727272727272728,281,0,38,_tunecore_Remastered_Guitar,6,3,ninjyouuranagaya,0.023596296086907387,0
57,100,0.3,330,0,38,_tunecore_Remastered_Guitar,6,5,ninjyouuranagaya,0.024315455928444862,0
57,100,0.1,471,0,38,_tunecore_Remastered_Guitar,6,2,ninjyouuranagaya,0.029691383242607117,0
61,100,0.23636363636363636,765,1,38,_tunecore_Remastered_Guitar,6,4,ninjyouuranagaya,0.040078599005937576,0
52,100,0.17727272727272728,831,0,38,_tunecore_Remastered_Guitar,6,3,ninjyouuranagaya,0.07093184441328049,0
59,100,0.5818181818181818,136,1,39,_tunecore_Remastered_Guitar,6,9,ninjyouuranagaya,0.9984880685806274,1
59,100,0.13636363636363635,281,0,39,_tunecore_Remastered_Guitar,6,2,ninjyouuranagaya,0.0633465051651001,0
63,100,0.1590909090909091,321,0,39,_tunecore_Remastered_Guitar,6,3,ninjyouuranagaya,0.05774307996034622,0
57,100,0.17727272727272728,700,1,39,_tunecore_Remastered_Guitar,6,3,ninjyouuranagaya,0.06020498275756836,0
57,100,0.12272727272727273,751,0,39,_tunecore_Remastered_Guitar,6,2,ninjyouuranagaya,0.06970645487308502,0
52,100,0.2409090909090909,778,0,39,_tunecore_Remastered_Guitar,6,4,ninjyouuranagaya,0.08190062642097473,0
64,100,0.6818181818181818,839,0,39,_tunecore_Remastered_Guitar,6,11,ninjyouuranagaya,0.12402678281068802,0
52,100,0.11818181818181818,150,1,40,_tunecore_Remastered_Guitar,6,2,ninjyouuranagaya,0.9984880685806274,1
64,100,0.9,188,0,40,_tunecore_Remastered_Guitar,6,14,ninjyouuranagaya,0.06334410607814789,0
61,100,0.11818181818181818,391,0,40,_tunecore_Remastered_Guitar,6,2,ninjyouuranagaya,0.057741928845644,0
61,100,0.3,431,0,40,_tunecore_Remastered_Guitar,6,5,ninjyouuranagaya,0.060201749205589294,0
61,100,0.5227272727272727,541,0,40,_tunecore_Remastered_Guitar,6,8,ninjyouuranagaya,0.06970228254795074,0
61,100,0.5772727272727273,668,0,40,_tunecore_Remastered_Guitar,6,9,ninjyouuranagaya,0.08189348876476288,0
52,100,0.7,801,0,40,_tunecore_Remastered_Guitar,6,11,ninjyouuranagaya,0.1240248754620552,0
64,100,0.6227272727272727,201,1,41,_tunecore_Remastered_Guitar,6,10,ninjyouuranagaya,0.9990057349205017,1
64,100,0.13636363636363635,458,1,41,_tunecore_Remastered_Guitar,6,2,ninjyouuranagaya,0.23120664060115814,0
63,100,1.040909090909091,628,0,41,_tunecore_Remastered_Guitar,6,15,ninjyouuranagaya,0.265915185213089,0
64,100,0.1590909090909091,858,0,41,_tunecore_Remastered_Guitar,6,3,ninjyouuranagaya,0.35420382022857666,0
59,100,0.2409090909090909,26,1,42,_tunecore_Remastered_Guitar,6,4,ninjyouuranagaya,0.9990057349205017,1
59,100,0.4818181818181818,91,0,42,_tunecore_Remastered_Guitar,6,8,ninjyouuranagaya,0.2311977744102478,0
61,100,0.2,370,1,42,_tunecore_Remastered_Guitar,6,3,ninjyouuranagaya,0.2659180164337158,0
64,100,0.32272727272727275,796,1,42,_tunecore_Remastered_Guitar,6,5,ninjyouuranagaya,0.3541964590549469,0
66,100,0.37727272727272726,413,1,43,_tunecore_Remastered_Guitar,6,6,ninjyouuranagaya,0.9990057349205017,1
68,100,0.4590909090909091,584,0,43,_tunecore_Remastered_Guitar,6,7,ninjyouuranagaya,0.23119956254959106,0
59,100,0.1,801,0,43,_tunecore_Remastered_Guitar,6,2,ninjyouuranagaya,0.2659187614917755,0
52,100,0.6181818181818182,836,0,43,_tunecore_Remastered_Guitar,6,10,ninjyouuranagaya,0.3541959226131439,0
59,100,0.3,171,1,44,_tunecore_Remastered_Guitar,6,5,ninjyouuranagaya,0.9988419413566589,1
61,100,0.5590909090909091,241,0,44,_tunecore_Remastered_Guitar,6,9,ninjyouuranagaya,0.13724790513515472,0
64,100,0.4818181818181818,373,0,44,_tunecore_Remastered_Guitar,6,8,ninjyouuranagaya,0.1597803235054016,0
66,100,0.4818181818181818,509,0,44,_tunecore_Remastered_Guitar,6,8,ninjyouuranagaya,0.1864510029554367,0
66,100,0.9636363636363636,664,0,44,_tunecore_Remastered_Guitar,6,15,ninjyouuranagaya,0.25816935300827026,0
64,100,0.4772727272727273,185,1,45,_tunecore_Remastered_Guitar,6,8,ninjyouuranagaya,0.9983736276626587,1
61,100,0.17727272727272728,295,0,45,_tunecore_Remastered_Guitar,6,3,ninjyouuranagaya,0.0510602630674839,0
59,100,0.16363636363636364,334,0,45,_tunecore_Remastered_Guitar,6,3,ninjyouuranagaya,0.041303057223558426,0
59,100,0.1409090909090909,373,0,45,_tunecore_Remastered_Guitar,6,2,ninjyouuranagaya,0.037386346608400345,0
59,100,1.2818181818181817,418,0,45,_tunecore_Remastered_Guitar,6,15,ninjyouuranagaya,0.03832807391881943,0
64,100,0.2590909090909091,700,1,45,_tunecore_Remastered_Guitar,6,4,ninjyouuranagaya,0.04475187882781029,0
61,100,0.23636363636363636,765,0,45,_tunecore_Remastered_Guitar,6,4,ninjyouuranagaya,0.05522790551185608,0
64,100,0.2590909090909091,836,0,45,_tunecore_Remastered_Guitar,6,4,ninjyouuranagaya,0.09026693552732468,0
59,100,0.3181818181818182,370,1,46,_tunecore_Remastered_Guitar,6,5,ninjyouuranagaya,0.9990057349205017,1
61,100,0.3,440,0,46,_tunecore_Remastered_Guitar,6,5,ninjyouuranagaya,0.23120883107185364,0
64,100,0.21818181818181817,528,0,46,_tunecore_Remastered_Guitar,6,3,ninjyouuranagaya,0.2659308612346649,0
61,100,0.42272727272727273,716,0,46,_tunecore_Remastered_Guitar,6,7,ninjyouuranagaya,0.3542001247406006,0
68,100,0.18181818181818182,4,1,47,_tunecore_Remastered_Guitar,6,3,ninjyouuranagaya,0.9986500144004822,1
66,100,0.2590909090909091,56,0,47,_tunecore_Remastered_Guitar,6,4,ninjyouuranagaya,0.08780612051486969,0
64,100,0.7772727272727272,141,0,47,_tunecore_Remastered_Guitar,6,12,ninjyouuranagaya,0.09181676059961319,0
66,100,1.6,316,0,47,_tunecore_Remastered_Guitar,6,15,ninjyouuranagaya,0.1074785366654396,0
64,100,0.6409090909090909,673,1,47,_tunecore_Remastered_Guitar,6,10,ninjyouuranagaya,0.12483246624469757,0
63,100,0.22272727272727272,839,0,47,_tunecore_Remastered_Guitar,6,4,ninjyouuranagaya,0.17903254926204681,0
64,100,1.9,75,1,48,_tunecore_Remastered_Guitar,6,15,ninjyouuranagaya,0.9983164072036743,1
52,100,0.740909090909091,493,1,48,_tunecore_Remastered_Guitar,6,12,ninjyouuranagaya,0.544562816619873,0
52,100,0.21818181818181817,96,1,49,_tunecore_Remastered_Guitar,6,3,ninjyouuranagaya,0.9990057349205017,1
61,100,0.1590909090909091,351,1,49,_tunecore_Remastered_Guitar,6,3,ninjyouuranagaya,0.2312009334564209,0
61,100,0.11818181818181818,506,0,49,_tunecore_Remastered_Guitar,6,2,ninjyouuranagaya,0.2659198045730591,0
61,100,0.5227272727272727,598,0,49,_tunecore_Remastered_Guitar,6,8,ninjyouuranagaya,0.35419589281082153,0
64,100,0.2,185,1,50,_tunecore_Remastered_Guitar,6,3,ninjyouuranagaya,0.9990057349205017,1
52,100,0.13636363636363635,348,0,50,_tunecore_Remastered_Guitar,6,2,ninjyouuranagaya,0.23120272159576416,0
59,100,0.1,421,0,50,_tunecore_Remastered_Guitar,6,2,ninjyouuranagaya,0.26592206954956055,0
59,100,0.11818181818181818,558,0,50,_tunecore_Remastered_Guitar,6,2,ninjyouuranagaya,0.35419797897338867,0
52,100,0.740909090909091,110,1,51,_tunecore_Remastered_Guitar,6,12,ninjyouuranagaya,0.9983165264129639,1
52,100,0.2772727272727273,458,1,51,_tunecore_Remastered_Guitar,6,4,ninjyouuranagaya,0.5445582270622253,0
61,100,0.41818181818181815,198,1,52,_tunecore_Remastered_Guitar,6,7,ninjyouuranagaya,0.9988419413566589,1
57,100,0.33636363636363636,370,0,52,_tunecore_Remastered_Guitar,6,5,ninjyouuranagaya,0.13724979758262634,0
52,100,0.1590909090909091,448,0,52,_tunecore_Remastered_Guitar,6,3,ninjyouuranagaya,0.1597830057144165,0
52,100,0.21818181818181817,581,0,52,_tunecore_Remastered_Guitar,6,3,ninjyouuranagaya,0.18645578622817993,0
59,100,0.2,651,0,52,_tunecore_Remastered_Guitar,6,3,ninjyouuranagaya,0.25817734003067017,0
59,100,0.1409090909090909,176,1,53,_tunecore_Remastered_Guitar,6,2,ninjyouuranagaya,0.9990057349205017,1
59,100,0.35909090909090907,238,0,53,_tunecore_Remastered_Guitar,6,6,ninjyouuranagaya,0.23119938373565674,0
59,100,0.16363636363636364,554,1,53,_tunecore_Remastered_Guitar,6,3,ninjyouuranagaya,0.26591894030570984,0
52,100,0.3,818,1,53,_tunecore_Remastered_Guitar,6,5,ninjyouuranagaya,0.3542020916938782,0
52,100,0.2,88,1,54,_tunecore_Remastered_Guitar,6,3,ninjyouuranagaya,0.9988419413566589,1
61,100,0.17727272727272728,141,0,54,_tunecore_Remastered_Guitar,6,3,ninjyouuranagaya,0.13724443316459656,0
52,100,0.22272727272727272,201,0,54,_tunecore_Remastered_Guitar,6,4,ninjyouuranagaya,0.1597815901041031,0
54,100,0.4,276,0,54,_tunecore_Remastered_Guitar,6,6,ninjyouuranagaya,0.18645060062408447,0
54,100,0.2409090909090909,761,1,54,_tunecore_Remastered_Guitar,6,4,ninjyouuranagaya,0.2581682801246643,0
52,100,0.12272727272727273,56,1,55,_tunecore_Remastered_Guitar,6,2,ninjyouuranagaya,0.9983165264129639,1
57,100,0.1409090909090909,628,1,55,_tunecore_Remastered_Guitar,6,2,ninjyouuranagaya,0.5445562601089478,0
54,100,0.2,158,1,56,_tunecore_Remastered_Guitar,6,3,ninjyouuranagaya,0.9792571067810059,0
57,100,0.3,593,1,57,_tunecore_Remastered_Guitar,6,5,ninjyouuranagaya,0.9983164072036743,1
54,100,0.23636363636363636,875,1,57,_tunecore_Remastered_Guitar,6,4,ninjyouuranagaya,0.5445612668991089,0
61,100,0.4590909090909091,823,1,58,_tunecore_Remastered_Guitar,6,7,ninjyouuranagaya,0.9792559146881104,0
68,100,0.1409090909090909,118,1,59,_tunecore_Remastered_Guitar,6,2,ninjyouuranagaya,0.9983736276626587,1
66,100,0.21818181818181817,171,0,59,_tunecore_Remastered_Guitar,6,3,ninjyouuranagaya,0.0510626882314682,0
64,100,0.23636363636363636,238,0,59,_tunecore_Remastered_Guitar,6,4,ninjyouuranagaya,0.04130375385284424,0
66,100,0.3,303,0,59,_tunecore_Remastered_Guitar,6,5,ninjyouuranagaya,0.03738633915781975,0
64,100,0.32272727272727275,444,0,59,_tunecore_Remastered_Guitar,6,5,ninjyouuranagaya,0.038330744951963425,0
59,100,0.1409090909090909,681,1,59,_tunecore_Remastered_Guitar,6,2,ninjyouuranagaya,0.04475327208638191,0
63,100,0.12272727272727273,804,0,59,_tunecore_Remastered_Guitar,6,2,ninjyouuranagaya,0.05523107573390007,0
63,100,0.1,861,0,59,_tunecore_Remastered_Guitar,6,2,ninjyouuranagaya,0.09027136117219925,0
57,100,0.1409090909090909,48,1,60,_tunecore_Remastered_Guitar,6,2,ninjyouuranagaya,0.9990229606628418,1
56,100,0.12272727272727273,606,1,60,_tunecore_Remastered_Guitar,6,2,ninjyouuranagaya,0.36663562059402466,0
63,100,0.11818181818181818,831,0,60,_tunecore_Remastered_Guitar,6,2,ninjyouuranagaya,0.45329684019088745,0
57,100,0.12272727272727273,224,1,61,_tunecore_Remastered_Guitar,6,2,ninjyouuranagaya,0.9988420605659485,1
66,100,0.13636363636363635,413,0,61,_tunecore_Remastered_Guitar,6,2,ninjyouuranagaya,0.13725188374519348,0
66,100,0.2,756,1,61,_tunecore_Remastered_Guitar,6,3,ninjyouuranagaya,0.15978386998176575,0
66,100,0.1,826,0,61,_tunecore_Remastered_Guitar,6,2,ninjyouuranagaya,0.18645310401916504,0
63,100,0.1409090909090909,858,0,61,_tunecore_Remastered_Guitar,6,2,ninjyouuranagaya,0.2581673264503479,0
63,100,0.9590909090909091,13,1,62,_tunecore_Remastered_Guitar,6,15,ninjyouuranagaya,0.9990229606628418,1
63,100,0.1,386,1,62,_tunecore_Remastered_Guitar,6,2,ninjyouuranagaya,0.3666309416294098,0
63,100,0.3,448,0,62,_tunecore_Remastered_Guitar,6,5,ninjyouuranagaya,0.4533020257949829,0
61,100,0.12272727272727273,13,1,63,_tunecore_Remastered_Guitar,6,2,ninjyouuranagaya,0.9988419413566589,1
54,100,0.9,325,1,63,_tunecore_Remastered_Guitar,6,14,ninjyouuranagaya,0.13724680244922638,0
54,100,0.32272727272727275,554,0,63,_tunecore_Remastered_Guitar,6,5,ninjyouuranagaya,0.15977945923805237,0
56,100,0.22272727272727272,641,0,63,_tunecore_Remastered_Guitar,6,4,ninjyouuranagaya,0.18644507229328156,0
54,100,0.18181818181818182,726,0,63,_tunecore_Remastered_Guitar,6,3,ninjyouuranagaya,0.2581655979156494,0
59,100,0.1590909090909091,832,1,64,_tunecore_Remastered_Guitar,6,3,ninjyouuranagaya,0.979256272315979,0
64,100,0.35909090909090907,475,1,65,_tunecore_Remastered_Guitar,6,6,ninjyouuranagaya,0.9983165264129639,1
52,100,0.38181818181818183,572,0,65,_tunecore_Remastered_Guitar,6,6,ninjyouuranagaya,0.5445570945739746,0
59,100,0.5772727272727273,119,1,66,_tunecore_Remastered_Guitar,6,9,ninjyouuranagaya,0.9990057349205017,1
54,100,0.2772727272727273,260,0,66,_tunecore_Remastered_Guitar,6,4,ninjyouuranagaya,0.23119741678237915,0
61,100,0.18181818181818182,532,1,66,_tunecore_Remastered_Guitar,6,3,ninjyouuranagaya,0.2659105658531189,0
52,100,0.21818181818181817,836,1,66,_tunecore_Remastered_Guitar,6,3,ninjyouuranagaya,0.35419222712516785,0
61,100,0.2409090909090909,220,1,67,_tunecore_Remastered_Guitar,6,4,ninjyouuranagaya,0.9983164072036743,1
68,100,0.1,593,1,67,_tunecore_Remastered_Guitar,6,2,ninjyouuranagaya,0.5445547103881836,0
56,100,0.1409090909090909,43,1,68,_tunecore_Remastered_Guitar,6,2,ninjyouuranagaya,0.9990229606628418,1
61,100,0.4409090909090909,316,1,68,_tunecore_Remastered_Guitar,6,7,ninjyouuranagaya,0.36661580204963684,0
59,100,0.18181818181818182,796,1,68,_tunecore_Remastered_Guitar,6,3,ninjyouuranagaya,0.45329082012176514,0
52,100,0.21818181818181817,74,1,69,_tunecore_Remastered_Guitar,6,3,ninjyouuranagaya,0.9990229606628418,1
52,100,0.3,197,0,69,_tunecore_Remastered_Guitar,6,5,ninjyouuranagaya,0.3666186034679413,0
52,100,0.4,426,0,69,_tunecore_Remastered_Guitar,6,6,ninjyouuranagaya,0.45329567790031433,0
56,100,0.3409090909090909,13,1,70,_tunecore_Remastered_Guitar,6,5,ninjyouuranagaya,0.9984880685806274,1
52,100,0.12272727272727273,267,1,70,_tunecore_Remastered_Guitar,6,2,ninjyouuranagaya,0.0633460283279419,0
52,100,0.18181818181818182,333,0,70,_tunecore_Remastered_Guitar,6,3,ninjyouuranagaya,0.05774237588047981,0
52,100,0.3409090909090909,443,0,70,_tunecore_Remastered_Guitar,6,5,ninjyouuranagaya,0.06020403653383255,0
52,100,0.17727272727272728,559,0,70,_tunecore_Remastered_Guitar,6,3,ninjyouuranagaya,0.06970198452472687,0
52,100,0.1409090909090909,713,0,70,_tunecore_Remastered_Guitar,6,2,ninjyouuranagaya,0.08189839869737625,0
52,100,0.18181818181818182,760,0,70,_tunecore_Remastered_Guitar,6,3,ninjyouuranagaya,0.12402446568012238,0
63,100,0.1409090909090909,396,1,71,_tunecore_Remastered_Guitar,6,2,ninjyouuranagaya,0.9990229606628418,1
57,100,0.12272727272727273,576,0,71,_tunecore_Remastered_Guitar,6,2,ninjyouuranagaya,0.36662542819976807,0
52,100,0.21818181818181817,703,0,71,_tunecore_Remastered_Guitar,6,3,ninjyouuranagaya,0.45329350233078003,0
52,100,0.4409090909090909,53,1,72,_tunecore_Remastered_Guitar,6,7,ninjyouuranagaya,0.9983165264129639,1
57,100,0.21818181818181817,747,1,72,_tunecore_Remastered_Guitar,6,3,ninjyouuranagaya,0.5445581078529358,0
59,100,0.12272727272727273,686,1,73,_tunecore_Remastered_Guitar,6,2,ninjyouuranagaya,0.9983165264129639,1
59,100,0.4,743,0,73,_tunecore_Remastered_Guitar,6,6,ninjyouuranagaya,0.5445616245269775,0
57,100,0.1,179,1,74,_tunecore_Remastered_Guitar,6,2,ninjyouuranagaya,0.9990230798721313,1
59,100,0.2409090909090909,383,0,74,_tunecore_Remastered_Guitar,6,4,ninjyouuranagaya,0.3666263818740845,0
57,100,0.37727272727272726,523,0,74,_tunecore_Remastered_Guitar,6,6,ninjyouuranagaya,0.4532918334007263,0
57,100,0.11818181818181818,127,1,75,_tunecore_Remastered_Guitar,6,2,ninjyouuranagaya,0.9990057349205017,1
59,100,0.12272727272727273,532,1,75,_tunecore_Remastered_Guitar,6,2,ninjyouuranagaya,0.23120440542697906,0
54,100,0.4,606,0,75,_tunecore_Remastered_Guitar,6,6,ninjyouuranagaya,0.265918493270874,0
52,100,0.3,810,0,75,_tunecore_Remastered_Guitar,6,5,ninjyouuranagaya,0.35419654846191406,0
59,100,0.4,53,1,76,_tunecore_Remastered_Guitar,6,6,ninjyouuranagaya,0.9988419413566589,1
59,100,0.7363636363636363,172,0,76,_tunecore_Remastered_Guitar,6,12,ninjyouuranagaya,0.13724565505981445,0
59,100,0.2409090909090909,360,0,76,_tunecore_Remastered_Guitar,6,4,ninjyouuranagaya,0.15977220237255096,0
59,100,0.41818181818181815,426,0,76,_tunecore_Remastered_Guitar,6,7,ninjyouuranagaya,0.1864462047815323,0
52,100,0.18181818181818182,682,1,76,_tunecore_Remastered_Guitar,6,3,ninjyouuranagaya,0.2581654489040375,0
52,100,0.2409090909090909,53,1,77,_tunecore_Remastered_Guitar,6,4,ninjyouuranagaya,0.9982553124427795,1
52,100,0.17727272727272728,119,0,77,_tunecore_Remastered_Guitar,6,3,ninjyouuranagaya,0.04128770902752876,0
52,100,0.37727272727272726,163,0,77,_tunecore_Remastered_Guitar,6,6,ninjyouuranagaya,0.02893461473286152,0
64,100,0.1409090909090909,299,0,77,_tunecore_Remastered_Guitar,6,2,ninjyouuranagaya,0.021288970485329628,0
64,100,0.3181818181818182,370,0,77,_tunecore_Remastered_Guitar,6,5,ninjyouuranagaya,0.01674593612551689,0
61,100,0.1590909090909091,462,0,77,_tunecore_Remastered_Guitar,6,3,ninjyouuranagaya,0.014918635599315166,0
64,100,0.11818181818181818,502,0,77,_tunecore_Remastered_Guitar,6,2,ninjyouuranagaya,0.016016464680433273,0
61,100,0.35909090909090907,673,0,77,_tunecore_Remastered_Guitar,6,6,ninjyouuranagaya,0.02117961272597313,0
52,100,0.1409090909090909,770,0,77,_tunecore_Remastered_Guitar,6,2,ninjyouuranagaya,0.03156864643096924,0
52,100,0.12272727272727273,849,0,77,_tunecore_Remastered_Guitar,6,2,ninjyouuranagaya,0.060060590505599976,0
52,100,0.38181818181818183,145,1,78,_tunecore_Remastered_Guitar,6,6,ninjyouuranagaya,0.9983165264129639,1
54,100,0.5818181818181818,783,1,78,_tunecore_Remastered_Guitar,6,9,ninjyouuranagaya,0.5445556640625,0
52,100,0.2590909090909091,282,1,79,_tunecore_Remastered_Guitar,6,4,ninjyouuranagaya,0.9990229606628418,1
52,100,0.2636363636363636,377,0,79,_tunecore_Remastered_Guitar,6,4,ninjyouuranagaya,0.3666246831417084,0
52,100,0.2,700,1,79,_tunecore_Remastered_Guitar,6,3,ninjyouuranagaya,0.45329469442367554,0
52,100,0.2636363636363636,289,1,80,_tunecore_Remastered_Guitar,6,4,ninjyouuranagaya,0.9988419413566589,1
52,100,0.17727272727272728,567,1,80,_tunecore_Remastered_Guitar,6,3,ninjyouuranagaya,0.13724759221076965,0
52,100,0.22272727272727272,650,0,80,_tunecore_Remastered_Guitar,6,4,ninjyouuranagaya,0.15977659821510315,0
52,100,0.1,716,0,80,_tunecore_Remastered_Guitar,6,2,ninjyouuranagaya,0.18644924461841583,0
52,100,0.17727272727272728,832,0,80,_tunecore_Remastered_Guitar,6,3,ninjyouuranagaya,0.2581777572631836,0
54,100,0.18181818181818182,386,1,81,_tunecore_Remastered_Guitar,6,3,ninjyouuranagaya,0.9990057349205017,1
59,100,0.18181818181818182,430,0,81,_tunecore_Remastered_Guitar,6,3,ninjyouuranagaya,0.23120133578777313,0
52,100,0.1590909090909091,673,1,81,_tunecore_Remastered_Guitar,6,3,ninjyouuranagaya,0.26591983437538147,0
52,100,0.3,739,0,81,_tunecore_Remastered_Guitar,6,5,ninjyouuranagaya,0.354204922914505,0
52,100,0.22272727272727272,3,1,82,_tunecore_Remastered_Guitar,6,4,ninjyouuranagaya,0.9990229606628418,1
52,100,0.33636363636363636,127,0,82,_tunecore_Remastered_Guitar,6,5,ninjyouuranagaya,0.3666297197341919,0
56,100,0.2590909090909091,229,0,82,_tunecore_Remastered_Guitar,6,4,ninjyouuranagaya,0.4532880187034607,0
52,100,0.21818181818181817,307,1,83,_tunecore_Remastered_Guitar,6,3,ninjyouuranagaya,0.9990057349205017,1
52,100,0.4,392,0,83,_tunecore_Remastered_Guitar,6,6,ninjyouuranagaya,0.23119983077049255,0
52,100,0.1590909090909091,483,0,83,_tunecore_Remastered_Guitar,6,3,ninjyouuranagaya,0.26592543721199036,0
54,100,0.5590909090909091,590,0,83,_tunecore_Remastered_Guitar,6,9,ninjyouuranagaya,0.3541971743106842,0
54,100,0.32272727272727275,145,1,84,_tunecore_Remastered_Guitar,6,5,ninjyouuranagaya,0.9990057349205017,1
52,100,0.12272727272727273,343,0,84,_tunecore_Remastered_Guitar,6,2,ninjyouuranagaya,0.2312001734972,0
52,100,0.3409090909090909,470,0,84,_tunecore_Remastered_Guitar,6,5,ninjyouuranagaya,0.26591771841049194,0
52,100,0.4818181818181818,707,1,84,_tunecore_Remastered_Guitar,6,8,ninjyouuranagaya,0.3541967570781708,0
61,100,0.12272727272727273,157,1,85,_tunecore_Remastered_Guitar,6,2,ninjyouuranagaya,0.9792556166648865,0
54,100,0.1409090909090909,189,1,86,_tunecore_Remastered_Guitar,6,2,ninjyouuranagaya,0.9990057349205017,1
63,100,0.35909090909090907,373,0,86,_tunecore_Remastered_Guitar,6,6,ninjyouuranagaya,0.2311946600675583,0
59,100,0.1,663,1,86,_tunecore_Remastered_Guitar,6,2,ninjyouuranagaya,0.265915185213089,0
52,100,0.17727272727272728,787,0,86,_tunecore_Remastered_Guitar,6,3,ninjyouuranagaya,0.35419437289237976,0
57,100,0.5409090909090909,210,1,87,_tunecore_Remastered_Guitar,6,9,ninjyouuranagaya,0.9983165264129639,1
52,100,0.1590909090909091,383,0,87,_tunecore_Remastered_Guitar,6,3,ninjyouuranagaya,0.5445588827133179,0
52,100,0.3181818181818182,30,1,88,_tunecore_Remastered_Guitar,6,5,ninjyouuranagaya,0.9983165264129639,1
59,100,0.2590909090909091,857,1,88,_tunecore_Remastered_Guitar,6,4,ninjyouuranagaya,0.5445581674575806,0
59,100,0.1409090909090909,176,1,89,_tunecore_Remastered_Guitar,6,2,ninjyouuranagaya,0.9990057349205017,1
52,100,1.0,352,0,89,_tunecore_Remastered_Guitar,6,15,ninjyouuranagaya,0.2312011420726776,0
64,100,0.11818181818181818,800,1,89,_tunecore_Remastered_Guitar,6,2,ninjyouuranagaya,0.2659285366535187,0
64,100,0.21818181818181817,832,0,89,_tunecore_Remastered_Guitar,6,3,ninjyouuranagaya,0.35421252250671387,0
64,100,0.4,480,1,90,_tunecore_Remastered_Guitar,6,6,ninjyouuranagaya,0.9990057349205017,1
59,100,0.1590909090909091,603,0,90,_tunecore_Remastered_Guitar,6,3,ninjyouuranagaya,0.2312011420726776,0
52,100,0.7227272727272728,673,0,90,_tunecore_Remastered_Guitar,6,12,ninjyouuranagaya,0.2659192979335785,0
59,100,0.22272727272727272,862,0,90,_tunecore_Remastered_Guitar,6,4,ninjyouuranagaya,0.35420241951942444,0
59,100,0.12272727272727273,35,1,91,_tunecore_Remastered_Guitar,6,2,ninjyouuranagaya,0.9988419413566589,1
59,100,0.6,113,0,91,_tunecore_Remastered_Guitar,6,10,ninjyouuranagaya,0.13724613189697266,0
54,100,0.12272727272727273,289,0,91,_tunecore_Remastered_Guitar,6,2,ninjyouuranagaya,0.15977472066879272,0
59,100,0.1590909090909091,787,1,91,_tunecore_Remastered_Guitar,6,3,ninjyouuranagaya,0.18644855916500092,0
52,100,0.21818181818181817,844,0,91,_tunecore_Remastered_Guitar,6,3,ninjyouuranagaya,0.2581646144390106,0
59,100,0.4,22,1,92,_tunecore_Remastered_Guitar,6,6,ninjyouuranagaya,0.9990057349205017,1
52,100,0.2,250,0,92,_tunecore_Remastered_Guitar,6,3,ninjyouuranagaya,0.23120282590389252,0
52,100,0.3409090909090909,386,0,92,_tunecore_Remastered_Guitar,6,5,ninjyouuranagaya,0.2659193277359009,0
52,100,0.35909090909090907,480,0,92,_tunecore_Remastered_Guitar,6,6,ninjyouuranagaya,0.35420191287994385,0
52,100,0.2,74,1,93,_tunecore_Remastered_Guitar,6,3,ninjyouuranagaya,0.9986500144004822,1
52,100,1.1181818181818182,193,0,93,_tunecore_Remastered_Guitar,6,15,ninjyouuranagaya,0.08780189603567123,0
52,100,0.21818181818181817,493,1,93,_tunecore_Remastered_Guitar,6,3,ninjyouuranagaya,0.09181489795446396,0
52,100,0.1,646,0,93,_tunecore_Remastered_Guitar,6,2,ninjyouuranagaya,0.10747857391834259,0
54,100,0.11818181818181818,779,0,93,_tunecore_Remastered_Guitar,6,2,ninjyouuranagaya,0.12483114749193192,0
54,100,0.11818181818181818,823,0,93,_tunecore_Remastered_Guitar,6,2,ninjyouuranagaya,0.17904171347618103,0
54,100,0.11818181818181818,330,1,94,_tunecore_Remastered_Guitar,6,2,ninjyouuranagaya,0.9990230798721313,1
52,100,0.2,462,0,94,_tunecore_Remastered_Guitar,6,3,ninjyouuranagaya,0.3666180372238159,0
52,100,0.1590909090909091,739,1,94,_tunecore_Remastered_Guitar,6,3,ninjyouuranagaya,0.45329320430755615,0
52,100,0.7181818181818181,0,1,95,_tunecore_Remastered_Guitar,6,11,ninjyouuranagaya,0.9990229606628418,1
52,100,0.18181818181818182,563,1,95,_tunecore_Remastered_Guitar,6,3,ninjyouuranagaya,0.3666198253631592,0
52,100,1.0227272727272727,695,0,95,_tunecore_Remastered_Guitar,6,15,ninjyouuranagaya,0.45329225063323975,0
52,100,0.1,100,1,96,_tunecore_Remastered_Guitar,6,2,ninjyouuranagaya,0.9988419413566589,1
52,100,0.3,242,0,96,_tunecore_Remastered_Guitar,6,5,ninjyouuranagaya,0.1372469961643219,0
53,100,0.11818181818181818,326,0,96,_tunecore_Remastered_Guitar,6,2,ninjyouuranagaya,0.15977530181407928,0
54,100,0.2818181818181818,352,0,96,_tunecore_Remastered_Guitar,6,5,ninjyouuranagaya,0.18644806742668152,0
54,100,0.2409090909090909,800,1,96,_tunecore_Remastered_Guitar,6,4,ninjyouuranagaya,0.25816771388053894,0
52,100,0.5636363636363636,47,1,97,_tunecore_Remastered_Guitar,6,9,ninjyouuranagaya,0.9990229606628418,1
52,100,0.22272727272727272,210,0,97,_tunecore_Remastered_Guitar,6,4,ninjyouuranagaya,0.366625040769577,0
52,100,0.1590909090909091,343,0,97,_tunecore_Remastered_Guitar,6,3,ninjyouuranagaya,0.4532916843891144,0
54,100,0.38181818181818183,26,1,98,_tunecore_Remastered_Guitar,6,6,ninjyouuranagaya,0.9984880685806274,1
54,100,0.1409090909090909,119,0,98,_tunecore_Remastered_Guitar,6,2,ninjyouuranagaya,0.06334495544433594,0
59,100,0.4,202,0,98,_tunecore_Remastered_Guitar,6,6,ninjyouuranagaya,0.057740066200494766,0
52,100,0.759090909090909,299,0,98,_tunecore_Remastered_Guitar,6,12,ninjyouuranagaya,0.06019999459385872,0
59,100,0.35909090909090907,502,0,98,_tunecore_Remastered_Guitar,6,6,ninjyouuranagaya,0.06970097124576569,0
54,100,0.35909090909090907,593,0,98,_tunecore_Remastered_Guitar,6,6,ninjyouuranagaya,0.0818934366106987,0
54,100,0.1,870,1,98,_tunecore_Remastered_Guitar,6,2,ninjyouuranagaya,0.12402314692735672,0
54,100,0.2,176,1,99,_tunecore_Remastered_Guitar,6,3,ninjyouuranagaya,0.9990057349205017,1
52,100,0.21818181818181817,550,1,99,_tunecore_Remastered_Guitar,6,3,ninjyouuranagaya,0.2311989963054657,0
52,100,0.4,673,0,99,_tunecore_Remastered_Guitar,6,6,ninjyouuranagaya,0.2659231126308441,0
52,100,0.2590909090909091,836,0,99,_tunecore_Remastered_Guitar,6,4,ninjyouuranagaya,0.3542051613330841,0
52,100,0.11818181818181818,197,1,100,_tunecore_Remastered_Guitar,6,2,ninjyouuranagaya,0.9986500144004822,1
52,100,0.2,303,0,100,_tunecore_Remastered_Guitar,6,3,ninjyouuranagaya,0.08780193328857422,0
61,100,0.11818181818181818,396,0,100,_tunecore_Remastered_Guitar,6,2,ninjyouuranagaya,0.09181221574544907,0
52,100,0.17727272727272728,580,0,100,_tunecore_Remastered_Guitar,6,3,ninjyouuranagaya,0.10747785866260529,0
61,100,0.4,646,0,100,_tunecore_Remastered_Guitar,6,6,ninjyouuranagaya,0.12482202053070068,0
64,100,0.12272727272727273,783,0,100,_tunecore_Remastered_Guitar,6,2,ninjyouuranagaya,0.17903821170330048,0
64,100,0.11818181818181818,127,1,101,_tunecore_Remastered_Guitar,6,2,ninjyouuranagaya,0.9986500144004822,1
64,100,0.1,172,0,101,_tunecore_Remastered_Guitar,6,2,ninjyouuranagaya,0.08780553191900253,0
64,100,0.3409090909090909,206,0,101,_tunecore_Remastered_Guitar,6,5,ninjyouuranagaya,0.09181580692529678,0
52,100,0.16363636363636364,356,0,101,_tunecore_Remastered_Guitar,6,3,ninjyouuranagaya,0.10748060047626495,0
52,100,0.1409090909090909,426,0,101,_tunecore_Remastered_Guitar,6,2,ninjyouuranagaya,0.1248307004570961,0
53,100,0.11818181818181818,462,0,101,_tunecore_Remastered_Guitar,6,2,ninjyouuranagaya,0.17903633415699005,0
52,100,0.11818181818181818,303,1,102,_tunecore_Remastered_Guitar,6,2,ninjyouuranagaya,0.9990057349205017,1
52,100,0.6,590,1,102,_tunecore_Remastered_Guitar,6,10,ninjyouuranagaya,0.231205016374588,0
59,100,0.2409090909090909,800,0,102,_tunecore_Remastered_Guitar,6,4,ninjyouuranagaya,0.2659282386302948,0
61,100,0.1,857,0,102,_tunecore_Remastered_Guitar,6,2,ninjyouuranagaya,0.35419371724128723,0
64,100,0.32272727272727275,123,1,103,_tunecore_Remastered_Guitar,6,5,ninjyouuranagaya,0.9984880685806274,1
66,100,0.1590909090909091,396,1,103,_tunecore_Remastered_Guitar,6,3,ninjyouuranagaya,0.06334634870290756,0
68,100,0.37727272727272726,449,0,103,_tunecore_Remastered_Guitar,6,6,ninjyouuranagaya,0.05774053558707237,0
66,100,0.37727272727272726,559,0,103,_tunecore_Remastered_Guitar,6,6,ninjyouuranagaya,0.06020095944404602,0
66,100,0.17727272727272728,677,0,103,_tunecore_Remastered_Guitar,6,3,ninjyouuranagaya,0.06970099359750748,0
64,100,0.1,800,0,103,_tunecore_Remastered_Guitar,6,2,ninjyouuranagaya,0.08189108967781067,0
64,100,0.18181818181818182,862,0,103,_tunecore_Remastered_Guitar,6,3,ninjyouuranagaya,0.12402012199163437,0
61,100,0.18181818181818182,26,1,104,_tunecore_Remastered_Guitar,6,3,ninjyouuranagaya,0.9988419413566589,1
59,100,0.7,69,0,104,_tunecore_Remastered_Guitar,6,11,ninjyouuranagaya,0.137248232960701,0
59,100,0.2590909090909091,255,0,104,_tunecore_Remastered_Guitar,6,4,ninjyouuranagaya,0.1597788780927658,0
64,100,0.2590909090909091,440,0,104,_tunecore_Remastered_Guitar,6,4,ninjyouuranagaya,0.1864502876996994,0
64,100,0.3,593,0,104,_tunecore_Remastered_Guitar,6,5,ninjyouuranagaya,0.25816628336906433,0
59,100,0.2,123,1,105,_tunecore_Remastered_Guitar,6,3,ninjyouuranagaya,0.9983736276626587,1
61,100,0.37727272727272726,172,0,105,_tunecore_Remastered_Guitar,6,6,ninjyouuranagaya,0.051060646772384644,0
64,100,0.2636363636363636,267,0,105,_tunecore_Remastered_Guitar,6,4,ninjyouuranagaya,0.04130315035581589,0
59,100,0.1590909090909091,550,1,105,_tunecore_Remastered_Guitar,6,3,ninjyouuranagaya,0.03738699108362198,0
66,100,0.1,593,0,105,_tunecore_Remastered_Guitar,6,2,ninjyouuranagaya,0.03833191841840744,0
68,100,0.1409090909090909,637,0,105,_tunecore_Remastered_Guitar,6,2,ninjyouuranagaya,0.04475267231464386,0
66,100,0.2,690,0,105,_tunecore_Remastered_Guitar,6,3,ninjyouuranagaya,0.055231645703315735,0
64,100,0.42272727272727273,739,0,105,_tunecore_Remastered_Guitar,6,7,ninjyouuranagaya,0.09027102589607239,0
64,100,0.2409090909090909,0,1,106,_tunecore_Remastered_Guitar,6,4,ninjyouuranagaya,0.9986500144004822,1
54,100,0.6,66,0,106,_tunecore_Remastered_Guitar,6,10,ninjyouuranagaya,0.08780434727668762,0
66,100,0.6181818181818182,263,0,106,_tunecore_Remastered_Guitar,6,10,ninjyouuranagaya,0.09181469678878784,0
52,100,0.38181818181818183,422,0,106,_tunecore_Remastered_Guitar,6,6,ninjyouuranagaya,0.10747804492712021,0
59,100,0.11818181818181818,792,1,106,_tunecore_Remastered_Guitar,6,2,ninjyouuranagaya,0.12482918053865433,0
59,100,0.5227272727272727,839,0,106,_tunecore_Remastered_Guitar,6,8,ninjyouuranagaya,0.17902971804141998,0
56,100,0.12272727272727273,575,1,4,_Remix_Guitar,6,2,watasino Stems,0.9792550206184387,0
58,100,0.18181818181818182,66,1,5,_Remix_Guitar,6,3,watasino Stems,0.9984880685806274,1
58,100,0.1,128,0,5,_Remix_Guitar,6,2,watasino Stems,0.06334458291530609,0
58,100,0.12272727272727273,232,0,5,_Remix_Guitar,6,2,watasino Stems,0.05774245783686638,0
56,100,0.13636363636363635,391,0,5,_Remix_Guitar,6,2,watasino Stems,0.06020071730017662,0
63,100,0.12272727272727273,431,0,5,_Remix_Guitar,6,2,watasino Stems,0.06970175355672836,0
56,100,0.2590909090909091,550,0,5,_Remix_Guitar,6,4,watasino Stems,0.08189129829406738,0
65,100,0.1409090909090909,778,0,5,_Remix_Guitar,6,2,watasino Stems,0.12402044236660004,0
58,100,0.22272727272727272,12,1,6,_Remix_Guitar,6,4,watasino Stems,0.9988420605659485,1
65,100,0.38181818181818183,286,1,6,_Remix_Guitar,6,6,watasino Stems,0.13725052773952484,0
55,100,0.2,399,0,6,_Remix_Guitar,6,3,watasino Stems,0.15977872908115387,0
55,100,0.21818181818181817,493,0,6,_Remix_Guitar,6,3,watasino Stems,0.18644846975803375,0
55,100,0.13636363636363635,678,0,6,_Remix_Guitar,6,2,watasino Stems,0.2581581473350525,0
70,100,0.1409090909090909,342,1,7,_Remix_Guitar,6,2,watasino Stems,0.9990058541297913,1
55,100,0.1409090909090909,581,1,7,_Remix_Guitar,6,2,watasino Stems,0.2312069684267044,0
55,100,0.1,810,0,7,_Remix_Guitar,6,2,watasino Stems,0.2659260928630829,0
63,100,0.22272727272727272,871,0,7,_Remix_Guitar,6,4,watasino Stems,0.3541984558105469,0
56,100,0.4818181818181818,254,1,8,_Remix_Guitar,6,8,watasino Stems,0.9983165264129639,1
58,100,0.11818181818181818,814,1,8,_Remix_Guitar,6,2,watasino Stems,0.5445573925971985,0
55,100,0.11818181818181818,22,1,9,_Remix_Guitar,6,2,watasino Stems,0.9792567491531372,0
58,100,0.12272727272727273,553,1,10,_Remix_Guitar,6,2,watasino Stems,0.9792569875717163,0
58,100,0.12272727272727273,101,1,13,_Remix_Guitar,6,2,watasino Stems,0.9983165264129639,1
56,100,0.16363636363636364,465,1,13,_Remix_Guitar,6,3,watasino Stems,0.5445539355278015,0
58,100,0.2590909090909091,326,1,14,_Remix_Guitar,6,4,watasino Stems,0.9983165264129639,1
63,100,0.18181818181818182,474,0,14,_Remix_Guitar,6,3,watasino Stems,0.5445525646209717,0
53,100,0.11818181818181818,876,1,15,_Remix_Guitar,6,2,watasino Stems,0.9792565107345581,1
53,100,0.11818181818181818,44,1,16,_Remix_Guitar,6,2,watasino Stems,0.9792565107345581,0
58,100,0.4772727272727273,449,1,18,_Remix_Guitar,6,8,watasino Stems,0.979256272315979,0
58,100,0.5,246,1,19,_Remix_Guitar,6,8,watasino Stems,0.9983165264129639,1
63,100,0.7,660,1,19,_Remix_Guitar,6,11,watasino Stems,0.5445517301559448,0
58,100,0.41818181818181815,528,1,20,_Remix_Guitar,6,7,watasino Stems,0.9792565107345581,0
58,100,0.18181818181818182,34,1,21,_Remix_Guitar,6,3,watasino Stems,0.9990230798721313,1
58,100,0.1590909090909091,119,0,21,_Remix_Guitar,6,3,watasino Stems,0.36662477254867554,0
58,100,0.41818181818181815,615,1,21,_Remix_Guitar,6,7,watasino Stems,0.45328906178474426,0
56,100,0.1409090909090909,405,1,22,_Remix_Guitar,6,2,watasino Stems,0.9983164072036743,1
56,100,0.3,602,0,22,_Remix_Guitar,6,5,watasino Stems,0.5445523858070374,0
53,100,0.18181818181818182,268,1,23,_Remix_Guitar,6,3,watasino Stems,0.9990229606628418,1
58,100,0.21818181818181817,316,0,23,_Remix_Guitar,6,3,watasino Stems,0.36661940813064575,0
58,100,0.1409090909090909,818,1,23,_Remix_Guitar,6,2,watasino Stems,0.45328909158706665,0
58,100,0.2590909090909091,743,1,24,_Remix_Guitar,6,4,watasino Stems,0.9792560338973999,0
53,100,0.41818181818181815,52,1,25,_Remix_Guitar,6,7,watasino Stems,0.9988419413566589,1
53,100,0.11818181818181818,206,0,25,_Remix_Guitar,6,2,watasino Stems,0.13724686205387115,0
58,100,0.4,246,0,25,_Remix_Guitar,6,6,watasino Stems,0.15977530181407928,0
53,100,0.18181818181818182,474,0,25,_Remix_Guitar,6,3,watasino Stems,0.18644355237483978,0
58,100,0.11818181818181818,700,0,25,_Remix_Guitar,6,2,watasino Stems,0.25816574692726135,0
58,100,0.3,61,1,26,_Remix_Guitar,6,5,watasino Stems,0.9990057349205017,1
53,100,0.17727272727272728,140,0,26,_Remix_Guitar,6,3,watasino Stems,0.23120185732841492,0
58,100,0.8227272727272728,422,1,26,_Remix_Guitar,6,13,watasino Stems,0.2659144699573517,0
58,100,0.2,849,1,26,_Remix_Guitar,6,3,watasino Stems,0.35419052839279175,0
63,100,0.1590909090909091,88,1,27,_Remix_Guitar,6,3,watasino Stems,0.9990057349205017,1
58,100,0.21818181818181817,281,0,27,_Remix_Guitar,6,3,watasino Stems,0.23120476305484772,0
65,100,0.17727272727272728,633,1,27,_Remix_Guitar,6,3,watasino Stems,0.2659253776073456,0
58,100,0.41818181818181815,822,0,27,_Remix_Guitar,6,7,watasino Stems,0.35419613122940063,0
55,100,0.1409090909090909,113,1,28,_Remix_Guitar,6,2,watasino Stems,0.9983165264129639,1
58,100,0.22272727272727272,752,1,28,_Remix_Guitar,6,4,watasino Stems,0.544553816318512,0
58,100,0.1409090909090909,131,1,29,_Remix_Guitar,6,2,watasino Stems,0.9983165264129639,1
58,100,0.22272727272727272,320,0,29,_Remix_Guitar,6,4,watasino Stems,0.5445593595504761,0
58,100,0.2,44,1,30,_Remix_Guitar,6,3,watasino Stems,0.9990057349205017,1
58,100,0.38181818181818183,285,1,30,_Remix_Guitar,6,6,watasino Stems,0.23120097815990448,0
63,100,0.21818181818181817,567,1,30,_Remix_Guitar,6,3,watasino Stems,0.2659158408641815,0
70,100,0.1,633,0,30,_Remix_Guitar,6,2,watasino Stems,0.354201078414917,0
58,100,0.1409090909090909,69,1,31,_Remix_Guitar,6,2,watasino Stems,0.9990230798721313,1
56,100,0.2,167,0,31,_Remix_Guitar,6,3,watasino Stems,0.3666136562824249,0
58,100,0.2,796,1,31,_Remix_Guitar,6,3,watasino Stems,0.4532891511917114,0
58,100,0.2409090909090909,311,1,32,_Remix_Guitar,6,4,watasino Stems,0.9990058541297913,1
63,100,0.21818181818181817,391,0,32,_Remix_Guitar,6,3,watasino Stems,0.23120521008968353,0
63,100,0.21818181818181817,678,1,32,_Remix_Guitar,6,3,watasino Stems,0.2659280002117157,0
63,100,0.18181818181818182,783,0,32,_Remix_Guitar,6,3,watasino Stems,0.35419830679893494,0
53,100,0.1590909090909091,743,1,33,_Remix_Guitar,6,3,watasino Stems,0.9983165264129639,1
53,100,0.1409090909090909,804,0,33,_Remix_Guitar,6,2,watasino Stems,0.5445579886436462,0
53,100,0.4818181818181818,43,1,34,_Remix_Guitar,6,8,watasino Stems,0.9984880685806274,1
53,100,0.18181818181818182,158,0,34,_Remix_Guitar,6,3,watasino Stems,0.06334532052278519,0
53,100,0.3181818181818182,215,0,34,_Remix_Guitar,6,5,watasino Stems,0.057741548866033554,0
53,100,0.2,295,0,34,_Remix_Guitar,6,3,watasino Stems,0.0602019838988781,0
63,100,0.1,606,1,34,_Remix_Guitar,6,2,watasino Stems,0.06970428675413132,0
60,100,0.32272727272727275,708,0,34,_Remix_Guitar,6,5,watasino Stems,0.08189746737480164,0
53,100,0.5772727272727273,831,0,34,_Remix_Guitar,6,9,watasino Stems,0.12401962280273438,0
53,100,0.1590909090909091,128,1,35,_Remix_Guitar,6,3,watasino Stems,0.9990229606628418,1
58,100,0.1409090909090909,373,1,35,_Remix_Guitar,6,2,watasino Stems,0.3666263222694397,0
58,100,0.2818181818181818,431,0,35,_Remix_Guitar,6,5,watasino Stems,0.4532811641693115,0
58,100,0.21818181818181817,163,1,37,_Remix_Guitar,6,3,watasino Stems,0.9990229606628418,1
58,100,0.12272727272727273,584,1,37,_Remix_Guitar,6,2,watasino Stems,0.3666324019432068,0
63,100,0.1409090909090909,770,0,37,_Remix_Guitar,6,2,watasino Stems,0.45328906178474426,0
62,100,0.17727272727272728,185,1,38,_Remix_Guitar,6,3,watasino Stems,0.9990229606628418,1
58,100,0.37727272727272726,448,1,38,_Remix_Guitar,6,6,watasino Stems,0.3666272759437561,0
58,100,0.3,536,0,38,_Remix_Guitar,6,5,watasino Stems,0.4532962441444397,0
58,100,0.2,338,1,39,_Remix_Guitar,6,3,watasino Stems,0.9990230798721313,1
58,100,0.2590909090909091,748,1,39,_Remix_Guitar,6,4,watasino Stems,0.36662405729293823,0
56,100,0.1409090909090909,823,0,39,_Remix_Guitar,6,2,watasino Stems,0.4532889127731323,0
58,100,0.16363636363636364,246,1,40,_Remix_Guitar,6,3,watasino Stems,0.9984880685806274,1
53,100,0.18181818181818182,308,0,40,_Remix_Guitar,6,3,watasino Stems,0.06334379315376282,0
65,100,0.18181818181818182,373,0,40,_Remix_Guitar,6,3,watasino Stems,0.05774066969752312,0
58,100,0.2,418,0,40,_Remix_Guitar,6,3,watasino Stems,0.060199372470378876,0
58,100,0.11818181818181818,550,0,40,_Remix_Guitar,6,2,watasino Stems,0.06969817727804184,0
53,100,0.2,655,0,40,_Remix_Guitar,6,3,watasino Stems,0.08188918232917786,0
58,100,0.1590909090909091,703,0,40,_Remix_Guitar,6,3,watasino Stems,0.1240137442946434,0
58,100,0.1590909090909091,496,1,41,_Remix_Guitar,6,3,watasino Stems,0.9983165264129639,1
58,100,0.3181818181818182,536,0,41,_Remix_Guitar,6,5,watasino Stems,0.5445594191551208,0
58,100,0.1590909090909091,21,1,42,_Remix_Guitar,6,3,watasino Stems,0.9990229606628418,1
58,100,0.2818181818181818,638,1,42,_Remix_Guitar,6,5,watasino Stems,0.36661675572395325,0
58,100,0.21818181818181817,823,0,42,_Remix_Guitar,6,3,watasino Stems,0.45328742265701294,0
58,100,0.2,179,1,43,_Remix_Guitar,6,3,watasino Stems,0.9983165264129639,1
58,100,0.18181818181818182,298,0,43,_Remix_Guitar,6,3,watasino Stems,0.5445535182952881,0
58,100,0.21818181818181817,31,1,45,_Remix_Guitar,6,3,watasino Stems,0.9986500144004822,1
56,100,0.18181818181818182,114,0,45,_Remix_Guitar,6,3,watasino Stems,0.08780311793088913,0
58,100,0.2590909090909091,228,0,45,_Remix_Guitar,6,4,watasino Stems,0.09181410074234009,0
58,100,0.1590909090909091,338,0,45,_Remix_Guitar,6,3,watasino Stems,0.10748165845870972,0
58,100,0.2818181818181818,378,0,45,_Remix_Guitar,6,5,watasino Stems,0.12482554465532303,0
63,100,0.1409090909090909,461,0,45,_Remix_Guitar,6,2,watasino Stems,0.17903374135494232,0
56,100,0.1,56,1,46,_Remix_Guitar,6,2,watasino Stems,0.9990057349205017,1
63,100,0.2,171,0,46,_Remix_Guitar,6,3,watasino Stems,0.23120929300785065,0
56,100,0.6,474,1,46,_Remix_Guitar,6,10,watasino Stems,0.2659173309803009,0
58,100,0.3,770,1,46,_Remix_Guitar,6,5,watasino Stems,0.35419824719429016,0
58,100,0.22272727272727272,123,1,47,_Remix_Guitar,6,4,watasino Stems,0.9990229606628418,1
63,100,0.2,303,0,47,_Remix_Guitar,6,3,watasino Stems,0.36661186814308167,0
58,100,0.1590909090909091,810,1,47,_Remix_Guitar,6,3,watasino Stems,0.4532921314239502,0
55,100,0.3181818181818182,150,1,48,_Remix_Guitar,6,5,watasino Stems,0.9990057349205017,1
58,100,0.4818181818181818,289,0,48,_Remix_Guitar,6,8,watasino Stems,0.23120088875293732,0
53,100,0.12272727272727273,554,1,48,_Remix_Guitar,6,2,watasino Stems,0.2659158408641815,0
53,100,0.2590909090909091,646,0,48,_Remix_Guitar,6,4,watasino Stems,0.35418516397476196,0
58,100,0.2,356,1,50,_Remix_Guitar,6,3,watasino Stems,0.9990230798721313,1
58,100,0.16363636363636364,444,0,50,_Remix_Guitar,6,3,watasino Stems,0.3666290044784546,0
58,100,0.32272727272727275,651,0,50,_Remix_Guitar,6,5,watasino Stems,0.45329251885414124,0
58,100,0.1409090909090909,518,1,51,_Remix_Guitar,6,2,watasino Stems,0.9990230798721313,1
63,100,0.2,576,0,51,_Remix_Guitar,6,3,watasino Stems,0.3666307330131531,0
63,100,0.18181818181818182,871,1,51,_Remix_Guitar,6,3,watasino Stems,0.4532955288887024,0
63,100,0.16363636363636364,69,1,52,_Remix_Guitar,6,3,watasino Stems,0.9990230798721313,1
63,100,0.11818181818181818,198,0,52,_Remix_Guitar,6,2,watasino Stems,0.3666379749774933,0
63,100,0.5,778,1,52,_Remix_Guitar,6,8,watasino Stems,0.45329582691192627,0
63,100,0.37727272727272726,171,1,53,_Remix_Guitar,6,6,watasino Stems,0.9988419413566589,1
56,100,0.1409090909090909,268,0,53,_Remix_Guitar,6,2,watasino Stems,0.13724692165851593,0
58,100,0.21818181818181817,483,0,53,_Remix_Guitar,6,3,watasino Stems,0.15977945923805237,0
58,100,0.21818181818181817,568,0,53,_Remix_Guitar,6,3,watasino Stems,0.18644914031028748,0
58,100,0.5590909090909091,646,0,53,_Remix_Guitar,6,9,watasino Stems,0.2581597864627838,0
58,100,0.1409090909090909,474,1,55,_Remix_Guitar,6,2,watasino Stems,0.9990057349205017,1
58,100,0.1409090909090909,673,0,55,_Remix_Guitar,6,2,watasino Stems,0.2312021106481552,0
58,100,0.2409090909090909,796,0,55,_Remix_Guitar,6,4,watasino Stems,0.26591646671295166,0
58,100,0.13636363636363635,853,0,55,_Remix_Guitar,6,2,watasino Stems,0.35419169068336487,0
58,100,0.1590909090909091,83,1,56,_Remix_Guitar,6,3,watasino Stems,0.9990057349205017,1
60,100,0.5,141,0,56,_Remix_Guitar,6,8,watasino Stems,0.2312026470899582,0
60,100,0.2818181818181818,431,1,56,_Remix_Guitar,6,5,watasino Stems,0.26591941714286804,0
53,100,0.1,641,0,56,_Remix_Guitar,6,2,watasino Stems,0.35418930649757385,0
58,100,0.22272727272727272,101,1,57,_Remix_Guitar,6,4,watasino Stems,0.9983165264129639,1
55,100,0.1,826,1,57,_Remix_Guitar,6,2,watasino Stems,0.5445555448532104,0
60,100,0.16363636363636364,488,1,58,_Remix_Guitar,6,3,watasino Stems,0.9983165264129639,1
58,100,0.1,581,0,58,_Remix_Guitar,6,2,watasino Stems,0.5445525050163269,0
55,100,0.11818181818181818,625,1,59,_Remix_Guitar,6,2,watasino Stems,0.9983165264129639,1
58,100,0.1409090909090909,770,0,59,_Remix_Guitar,6,2,watasino Stems,0.5445576906204224,0
53,100,0.12272727272727273,584,1,60,_Remix_Guitar,6,2,watasino Stems,0.979256272315979,1
74,100,0.5,726,1,61,_Remix_Guitar,6,8,watasino Stems,0.979255735874176,0
58,100,0.3,96,1,62,_Remix_Guitar,6,5,watasino Stems,0.9990229606628418,1
58,100,0.1409090909090909,364,1,62,_Remix_Guitar,6,2,watasino Stems,0.3666228652000427,0
58,100,0.18181818181818182,738,1,62,_Remix_Guitar,6,3,watasino Stems,0.4532855749130249,0
58,100,0.22272727272727272,136,1,63,_Remix_Guitar,6,4,watasino Stems,0.9990057349205017,1
58,100,0.22272727272727272,233,0,63,_Remix_Guitar,6,4,watasino Stems,0.23120617866516113,0
58,100,0.3181818181818182,616,1,63,_Remix_Guitar,6,5,watasino Stems,0.26591482758522034,0
55,100,0.2,743,0,63,_Remix_Guitar,6,3,watasino Stems,0.35419994592666626,0
58,100,0.21818181818181817,176,1,64,_Remix_Guitar,6,3,watasino Stems,0.9792566299438477,0
58,100,0.4,267,1,65,_Remix_Guitar,6,6,watasino Stems,0.9990229606628418,1
58,100,0.33636363636363636,567,1,65,_Remix_Guitar,6,5,watasino Stems,0.36662304401397705,0
58,100,0.21818181818181817,713,0,65,_Remix_Guitar,6,3,watasino Stems,0.45329469442367554,0
58,100,0.1409090909090909,343,1,66,_Remix_Guitar,6,2,watasino Stems,0.9983165264129639,1
55,100,0.1409090909090909,839,1,66,_Remix_Guitar,6,2,watasino Stems,0.5445528626441956,0
55,100,0.1,303,1,67,_Remix_Guitar,6,2,watasino Stems,0.9988419413566589,1
55,100,0.11818181818181818,360,0,67,_Remix_Guitar,6,2,watasino Stems,0.13724778592586517,0
56,100,0.1409090909090909,422,0,67,_Remix_Guitar,6,2,watasino Stems,0.15977421402931213,0
58,100,0.1409090909090909,550,0,67,_Remix_Guitar,6,2,watasino Stems,0.18644581735134125,0
53,100,0.16363636363636364,839,1,67,_Remix_Guitar,6,3,watasino Stems,0.2581560015678406,0
53,100,0.2,30,1,68,_Remix_Guitar,6,3,watasino Stems,0.9988419413566589,1
58,100,0.3409090909090909,223,0,68,_Remix_Guitar,6,5,watasino Stems,0.13724786043167114,0
58,100,0.3181818181818182,339,0,68,_Remix_Guitar,6,5,watasino Stems,0.15977948904037476,0
58,100,0.3181818181818182,436,0,68,_Remix_Guitar,6,5,watasino Stems,0.18644987046718597,0
58,100,0.3,527,0,68,_Remix_Guitar,6,5,watasino Stems,0.25816279649734497,0
58,100,0.17727272727272728,163,1,69,_Remix_Guitar,6,3,watasino Stems,0.9988419413566589,1
53,100,0.17727272727272728,347,0,69,_Remix_Guitar,6,3,watasino Stems,0.13724730908870697,0
56,100,0.1409090909090909,637,1,69,_Remix_Guitar,6,2,watasino Stems,0.1597725749015808,0
53,100,0.2590909090909091,722,0,69,_Remix_Guitar,6,4,watasino Stems,0.18644769489765167,0
53,100,0.1590909090909091,832,0,69,_Remix_Guitar,6,3,watasino Stems,0.2581614553928375,0
53,100,0.18181818181818182,47,1,70,_Remix_Guitar,6,3,watasino Stems,0.9988419413566589,1
53,100,0.4,127,0,70,_Remix_Guitar,6,6,watasino Stems,0.13724398612976074,0
58,100,0.11818181818181818,417,1,70,_Remix_Guitar,6,2,watasino Stems,0.1597781479358673,0
70,100,0.1590909090909091,470,0,70,_Remix_Guitar,6,3,watasino Stems,0.18644602596759796,0
58,100,0.12272727272727273,783,1,70,_Remix_Guitar,6,2,watasino Stems,0.25816044211387634,0
58,100,0.1,30,1,71,_Remix_Guitar,6,2,watasino Stems,0.9986500144004822,1
58,100,0.1590909090909091,140,0,71,_Remix_Guitar,6,3,watasino Stems,0.0878031998872757,0
58,100,0.3409090909090909,184,0,71,_Remix_Guitar,6,5,watasino Stems,0.09181740134954453,0
58,100,0.12272727272727273,333,0,71,_Remix_Guitar,6,2,watasino Stems,0.1074800193309784,0
56,100,0.1590909090909091,496,0,71,_Remix_Guitar,6,3,watasino Stems,0.12482322752475739,0
58,100,0.12272727272727273,752,1,71,_Remix_Guitar,6,2,watasino Stems,0.17902910709381104,0
58,100,0.18181818181818182,43,1,72,_Remix_Guitar,6,3,watasino Stems,0.9988419413566589,1
58,100,0.1590909090909091,189,0,72,_Remix_Guitar,6,3,watasino Stems,0.13724571466445923,0
58,100,0.1409090909090909,462,1,72,_Remix_Guitar,6,2,watasino Stems,0.15977545082569122,0
58,100,0.1,619,0,72,_Remix_Guitar,6,2,watasino Stems,0.18644310534000397,0
55,100,0.17727272727272728,722,0,72,_Remix_Guitar,6,3,watasino Stems,0.25816085934638977,0
58,100,0.2,0,1,73,_Remix_Guitar,6,3,watasino Stems,0.9988419413566589,1
55,100,0.12272727272727273,365,1,73,_Remix_Guitar,6,2,watasino Stems,0.13724736869335175,0
70,100,0.1590909090909091,493,0,73,_Remix_Guitar,6,3,watasino Stems,0.15978172421455383,0
56,100,0.2,779,1,73,_Remix_Guitar,6,3,watasino Stems,0.18644705414772034,0
56,100,0.1590909090909091,836,0,73,_Remix_Guitar,6,3,watasino Stems,0.2581656873226166,0
58,100,0.2818181818181818,47,1,74,_Remix_Guitar,6,5,watasino Stems,0.9984880685806274,1
58,100,0.2409090909090909,136,0,74,_Remix_Guitar,6,4,watasino Stems,0.06334387511014938,0
58,100,0.1,250,0,74,_Remix_Guitar,6,2,watasino Stems,0.057740289717912674,0
58,100,0.22272727272727272,276,0,74,_Remix_Guitar,6,4,watasino Stems,0.060198888182640076,0
53,100,0.2409090909090909,449,0,74,_Remix_Guitar,6,4,watasino Stems,0.0696968287229538,0
58,100,0.2409090909090909,726,1,74,_Remix_Guitar,6,4,watasino Stems,0.0818893313407898,0
55,100,0.18181818181818182,813,0,74,_Remix_Guitar,6,3,watasino Stems,0.12401583790779114,0
58,100,0.18181818181818182,0,1,75,_Remix_Guitar,6,3,watasino Stems,0.9990057349205017,1
55,100,0.35909090909090907,237,1,75,_Remix_Guitar,6,6,watasino Stems,0.23120802640914917,0
56,100,0.1409090909090909,796,1,75,_Remix_Guitar,6,2,watasino Stems,0.2659226357936859,0
56,100,0.17727272727272728,876,0,75,_Remix_Guitar,6,3,watasino Stems,0.354187935590744,0
58,100,0.2409090909090909,399,1,76,_Remix_Guitar,6,4,watasino Stems,0.9990057349205017,1
58,100,0.12272727272727273,553,0,76,_Remix_Guitar,6,2,watasino Stems,0.23120057582855225,0
58,100,0.22272727272727272,597,0,76,_Remix_Guitar,6,4,watasino Stems,0.2659163773059845,0
55,100,0.17727272727272728,832,1,76,_Remix_Guitar,6,3,watasino Stems,0.3541949689388275,0
58,100,0.1409090909090909,43,1,77,_Remix_Guitar,6,2,watasino Stems,0.9990230798721313,1
63,100,0.23636363636363636,436,1,77,_Remix_Guitar,6,4,watasino Stems,0.36662617325782776,0
63,100,0.3,593,0,77,_Remix_Guitar,6,5,watasino Stems,0.45329394936561584,0
53,100,0.3181818181818182,0,1,78,_Remix_Guitar,6,5,watasino Stems,0.9983736276626587,1
53,100,0.13636363636363635,106,0,78,_Remix_Guitar,6,2,watasino Stems,0.051060713827610016,0
53,100,0.4590909090909091,166,0,78,_Remix_Guitar,6,7,watasino Stems,0.0413019061088562,0
53,100,0.7,343,0,78,_Remix_Guitar,6,11,watasino Stems,0.03738489747047424,0
53,100,0.4818181818181818,619,1,78,_Remix_Guitar,6,8,watasino Stems,0.038327984511852264,0
53,100,0.11818181818181818,770,0,78,_Remix_Guitar,6,2,watasino Stems,0.04474947229027748,0
53,100,0.1,800,0,78,_Remix_Guitar,6,2,watasino Stems,0.05522540211677551,0
53,100,0.11818181818181818,857,0,78,_Remix_Guitar,6,2,watasino Stems,0.09025838226079941,0
58,100,0.12272727272727273,79,1,79,_Remix_Guitar,6,2,watasino Stems,0.9990057349205017,1
58,100,0.1590909090909091,119,0,79,_Remix_Guitar,6,3,watasino Stems,0.23120488226413727,0
63,100,0.7,246,0,79,_Remix_Guitar,6,11,watasino Stems,0.265913188457489,0
53,100,0.35909090909090907,660,1,79,_Remix_Guitar,6,6,watasino Stems,0.35419875383377075,0
53,100,0.2,22,1,80,_Remix_Guitar,6,3,watasino Stems,0.9986500144004822,1
58,100,0.1409090909090909,333,1,80,_Remix_Guitar,6,2,watasino Stems,0.08780216425657272,0
53,100,0.2409090909090909,409,0,80,_Remix_Guitar,6,4,watasino Stems,0.09181059896945953,0
53,100,0.21818181818181817,506,0,80,_Remix_Guitar,6,3,watasino Stems,0.10747332870960236,0
53,100,0.11818181818181818,616,0,80,_Remix_Guitar,6,2,watasino Stems,0.12481650710105896,0
53,100,0.1409090909090909,686,0,80,_Remix_Guitar,6,2,watasino Stems,0.1790236383676529,0
55,100,0.1,800,1,81,_Remix_Guitar,6,2,watasino Stems,0.9792567491531372,1
55,100,0.38181818181818183,166,1,82,_Remix_Guitar,6,6,watasino Stems,0.979256272315979,0
63,100,0.2,13,1,83,_Remix_Guitar,6,3,watasino Stems,0.9983165264129639,1
58,100,0.11818181818181818,792,1,83,_Remix_Guitar,6,2,watasino Stems,0.5445638298988342,0
58,100,0.1409090909090909,823,1,84,_Remix_Guitar,6,2,watasino Stems,0.9983165264129639,1
58,100,0.1590909090909091,857,0,84,_Remix_Guitar,6,3,watasino Stems,0.5445555448532104,0
58,100,0.2772727272727273,216,1,85,_Remix_Guitar,6,4,watasino Stems,0.9990229606628418,1
58,100,0.5,299,0,85,_Remix_Guitar,6,8,watasino Stems,0.3666272759437561,0
56,100,0.2409090909090909,550,1,85,_Remix_Guitar,6,4,watasino Stems,0.4532853662967682,0
58,100,0.17727272727272728,62,1,86,_Remix_Guitar,6,3,watasino Stems,0.9990057349205017,1
53,100,0.42272727272727273,255,0,86,_Remix_Guitar,6,7,watasino Stems,0.23120169341564178,0
53,100,0.1590909090909091,453,0,86,_Remix_Guitar,6,3,watasino Stems,0.26591745018959045,0
55,100,0.2,673,0,86,_Remix_Guitar,6,3,watasino Stems,0.35419490933418274,0
60,100,0.1,289,1,87,_Remix_Guitar,6,2,watasino Stems,0.9986500144004822,1
60,100,0.2,413,0,87,_Remix_Guitar,6,3,watasino Stems,0.08780203014612198,0
60,100,0.18181818181818182,462,0,87,_Remix_Guitar,6,3,watasino Stems,0.09181234985589981,0
60,100,0.2,519,0,87,_Remix_Guitar,6,3,watasino Stems,0.10747553408145905,0
60,100,0.11818181818181818,743,0,87,_Remix_Guitar,6,2,watasino Stems,0.12482426315546036,0
60,100,0.11818181818181818,876,0,87,_Remix_Guitar,6,2,watasino Stems,0.17903339862823486,0
60,100,0.13636363636363635,62,1,88,_Remix_Guitar,6,2,watasino Stems,0.9792566299438477,0
58,100,0.3,179,1,89,_Remix_Guitar,6,5,watasino Stems,0.9792567491531372,0
60,100,0.12272727272727273,145,1,90,_Remix_Guitar,6,2,watasino Stems,0.9990057349205017,1
60,100,0.41818181818181815,193,0,90,_Remix_Guitar,6,7,watasino Stems,0.23119904100894928,0
53,100,0.21818181818181817,470,1,90,_Remix_Guitar,6,3,watasino Stems,0.2659105956554413,0
65,100,0.11818181818181818,787,1,90,_Remix_Guitar,6,2,watasino Stems,0.35419341921806335,0
67,100,0.11818181818181818,184,1,91,_Remix_Guitar,6,2,watasino Stems,0.9792567491531372,0
63,100,0.1590909090909091,339,1,92,_Remix_Guitar,6,3,watasino Stems,0.9990057349205017,1
58,100,0.13636363636363635,567,0,92,_Remix_Guitar,6,2,watasino Stems,0.23120950162410736,0
58,100,0.2590909090909091,637,0,92,_Remix_Guitar,6,4,watasino Stems,0.2659192383289337,0
58,100,0.13636363636363635,700,0,92,_Remix_Guitar,6,2,watasino Stems,0.3542040288448334,0
58,100,0.12272727272727273,466,1,93,_Remix_Guitar,6,2,watasino Stems,0.9983165264129639,1
63,100,0.21818181818181817,523,0,93,_Remix_Guitar,6,3,watasino Stems,0.544553816318512,0
58,100,0.1,17,1,94,_Remix_Guitar,6,2,watasino Stems,0.9988419413566589,1
63,100,0.1590909090909091,176,0,94,_Remix_Guitar,6,3,watasino Stems,0.13724492490291595,0
63,100,0.3181818181818182,216,0,94,_Remix_Guitar,6,5,watasino Stems,0.15978126227855682,0
53,100,0.1,289,0,94,_Remix_Guitar,6,2,watasino Stems,0.18645106256008148,0
53,100,0.3409090909090909,660,1,94,_Remix_Guitar,6,5,watasino Stems,0.25816982984542847,0
58,100,0.4772727272727273,83,1,95,_Remix_Guitar,6,8,watasino Stems,0.9990057349205017,1
58,100,0.17727272727272728,206,0,95,_Remix_Guitar,6,3,watasino Stems,0.2312062829732895,0
53,100,0.1,303,0,95,_Remix_Guitar,6,2,watasino Stems,0.2659178376197815,0
63,100,0.4772727272727273,624,1,95,_Remix_Guitar,6,8,watasino Stems,0.35419273376464844,0
67,100,0.2818181818181818,506,1,96,_Remix_Guitar,6,5,watasino Stems,0.9792566299438477,0
53,100,0.2818181818181818,166,1,97,_Remix_Guitar,6,5,watasino Stems,0.9990057349205017,1
58,100,0.23636363636363636,480,1,97,_Remix_Guitar,6,4,watasino Stems,0.2312120795249939,0
63,100,0.2,550,0,97,_Remix_Guitar,6,3,watasino Stems,0.2659212648868561,0
63,100,0.759090909090909,716,0,97,_Remix_Guitar,6,12,watasino Stems,0.35419780015945435,0
58,100,0.13636363636363635,83,1,98,_Remix_Guitar,6,2,watasino Stems,0.9990230798721313,1
63,100,0.1409090909090909,443,1,98,_Remix_Guitar,6,2,watasino Stems,0.36662426590919495,0
63,100,0.2,876,1,98,_Remix_Guitar,6,3,watasino Stems,0.4532899260520935,0
53,100,0.21818181818181817,96,1,99,_Remix_Guitar,6,3,watasino Stems,0.9983736276626587,1
63,100,0.23636363636363636,150,0,99,_Remix_Guitar,6,4,watasino Stems,0.05106025189161301,0
53,100,0.33636363636363636,216,0,99,_Remix_Guitar,6,5,watasino Stems,0.041302528232336044,0
53,100,0.2409090909090909,333,0,99,_Remix_Guitar,6,4,watasino Stems,0.03738372027873993,0
53,100,0.1590909090909091,449,0,99,_Remix_Guitar,6,3,watasino Stems,0.03832751885056496,0
53,100,0.17727272727272728,502,0,99,_Remix_Guitar,6,3,watasino Stems,0.04474886134266853,0
58,100,0.6227272727272727,695,0,99,_Remix_Guitar,6,10,watasino Stems,0.0552273690700531,0
53,100,0.42272727272727273,870,0,99,_Remix_Guitar,6,7,watasino Stems,0.09026014059782028,0
58,100,0.3409090909090909,179,1,100,_Remix_Guitar,6,5,watasino Stems,0.9990230798721313,1
58,100,0.1409090909090909,365,0,100,_Remix_Guitar,6,2,watasino Stems,0.36661675572395325,0
53,100,0.3,470,0,100,_Remix_Guitar,6,5,watasino Stems,0.453283429145813,0
58,100,0.12272727272727273,540,1,101,_Remix_Guitar,6,2,watasino Stems,0.9990230798721313,1
67,100,0.2772727272727273,612,0,101,_Remix_Guitar,6,4,watasino Stems,0.36661696434020996,0
58,100,0.1590909090909091,703,0,101,_Remix_Guitar,6,3,watasino Stems,0.45328763127326965,0
53,100,0.18181818181818182,532,1,103,_Remix_Guitar,6,3,watasino Stems,0.9983164072036743,1
62,100,1.018181818181818,722,0,103,_Remix_Guitar,6,15,watasino Stems,0.5445583462715149,0
63,100,0.1409090909090909,197,1,104,_Remix_Guitar,6,2,watasino Stems,0.9990057349205017,1
58,100,1.3772727272727272,360,0,104,_Remix_Guitar,6,15,watasino Stems,0.23120450973510742,0
58,100,0.11818181818181818,669,1,104,_Remix_Guitar,6,2,watasino Stems,0.2659355401992798,0
58,100,1.459090909090909,703,0,104,_Remix_Guitar,6,15,watasino Stems,0.3541887104511261,0
56,100,0.21818181818181817,567,1,105,_Remix_Guitar,6,3,watasino Stems,0.9983165264129639,1
62,100,0.1409090909090909,695,0,105,_Remix_Guitar,6,2,watasino Stems,0.5445634126663208,0
58,100,0.1590909090909091,826,1,107,_Remix_Guitar,6,3,watasino Stems,0.9792561531066895,0
63,100,0.3,260,1,108,_Remix_Guitar,6,5,watasino Stems,0.9990229606628418,1
58,100,0.5,343,0,108,_Remix_Guitar,6,8,watasino Stems,0.3666302561759949,0
58,100,1.3772727272727272,633,1,108,_Remix_Guitar,6,15,watasino Stems,0.45329251885414124,0
63,100,0.4,713,1,109,_Remix_Guitar,6,6,watasino Stems,0.9983165264129639,1
63,100,0.21818181818181817,832,0,109,_Remix_Guitar,6,3,watasino Stems,0.544563353061676,0
58,100,0.12272727272727273,47,1,110,_Remix_Guitar,6,2,watasino Stems,0.9986500144004822,1
70,100,0.4636363636363636,92,0,110,_Remix_Guitar,6,7,watasino Stems,0.08780448883771896,0
58,100,0.13636363636363635,260,0,110,_Remix_Guitar,6,2,watasino Stems,0.09181474149227142,0
63,100,0.759090909090909,506,1,110,_Remix_Guitar,6,12,watasino Stems,0.10747498273849487,0
58,100,0.3,695,0,110,_Remix_Guitar,6,5,watasino Stems,0.12482983618974686,0
63,100,0.21818181818181817,792,0,110,_Remix_Guitar,6,3,watasino Stems,0.17903056740760803,0
63,100,0.2,92,1,111,_Remix_Guitar,6,3,watasino Stems,0.9988419413566589,1
58,100,0.1,179,0,111,_Remix_Guitar,6,2,watasino Stems,0.1372525542974472,0
63,100,0.13636363636363635,237,0,111,_Remix_Guitar,6,2,watasino Stems,0.15977910161018372,0
63,100,0.2818181818181818,377,0,111,_Remix_Guitar,6,5,watasino Stems,0.1864563673734665,0
63,100,0.42272727272727273,443,0,111,_Remix_Guitar,6,7,watasino Stems,0.2581770420074463,0
63,100,0.7227272727272728,443,1,112,_Remix_Guitar,6,12,watasino Stems,0.9990229606628418,1
62,100,0.1409090909090909,616,0,112,_Remix_Guitar,6,2,watasino Stems,0.3666255474090576,0
58,100,0.2818181818181818,770,0,112,_Remix_Guitar,6,5,watasino Stems,0.4533030092716217,0
60,100,0.7818181818181819,839,1,113,_Remix_Guitar,6,13,watasino Stems,0.9792561531066895,0
58,100,0.2,157,1,114,_Remix_Guitar,6,3,watasino Stems,0.9984880685806274,1
63,100,0.3409090909090909,206,0,114,_Remix_Guitar,6,5,watasino Stems,0.06334520876407623,0
63,100,0.4,312,0,114,_Remix_Guitar,6,6,watasino Stems,0.05774266645312309,0
70,100,0.1409090909090909,443,0,114,_Remix_Guitar,6,2,watasino Stems,0.06020598113536835,0
58,100,0.4,593,0,114,_Remix_Guitar,6,6,watasino Stems,0.06970507651567459,0
63,100,0.6,686,0,114,_Remix_Guitar,6,10,watasino Stems,0.08189697563648224,0
58,100,0.4590909090909091,826,0,114,_Remix_Guitar,6,7,watasino Stems,0.12402869015932083,0
63,100,0.6,294,1,115,_Remix_Guitar,6,10,watasino Stems,0.9986500144004822,1
63,100,0.3,449,0,115,_Remix_Guitar,6,5,watasino Stems,0.08780663460493088,0
55,100,0.4818181818181818,540,0,115,_Remix_Guitar,6,8,watasino Stems,0.0918169617652893,0
58,100,0.11818181818181818,656,0,115,_Remix_Guitar,6,2,watasino Stems,0.1074824407696724,0
58,100,0.4,686,0,115,_Remix_Guitar,6,6,watasino Stems,0.12482928484678268,0
63,100,0.4409090909090909,792,0,115,_Remix_Guitar,6,7,watasino Stems,0.17903606593608856,0
58,100,0.43636363636363634,17,1,116,_Remix_Guitar,6,7,watasino Stems,0.9983737468719482,1
60,100,0.6227272727272727,123,0,116,_Remix_Guitar,6,10,watasino Stems,0.051060549914836884,0
58,100,0.4590909090909091,263,0,116,_Remix_Guitar,6,7,watasino Stems,0.04130295291543007,0
63,100,0.5590909090909091,370,0,116,_Remix_Guitar,6,9,watasino Stems,0.03738649562001228,0
63,100,0.23636363636363636,546,0,116,_Remix_Guitar,6,4,watasino Stems,0.0383295938372612,0
58,100,0.5409090909090909,606,0,116,_Remix_Guitar,6,9,watasino Stems,0.0447530671954155,0
58,100,0.4,760,0,116,_Remix_Guitar,6,6,watasino Stems,0.05522967875003815,0
65,100,0.4409090909090909,866,0,116,_Remix_Guitar,6,7,watasino Stems,0.09026423841714859,0
62,100,0.5181818181818182,87,1,117,_Remix_Guitar,6,8,watasino Stems,0.9988419413566589,1
55,100,0.4,242,0,117,_Remix_Guitar,6,6,watasino Stems,0.13724996149539948,0
63,100,1.059090909090909,453,0,117,_Remix_Guitar,6,15,watasino Stems,0.15977662801742554,0
55,100,0.4818181818181818,703,1,117,_Remix_Guitar,6,8,watasino Stems,0.1864517480134964,0
58,100,0.4772727272727273,823,0,117,_Remix_Guitar,6,8,watasino Stems,0.2581678628921509,0
63,100,0.4409090909090909,69,1,118,_Remix_Guitar,6,7,watasino Stems,0.9983003735542297,1
58,100,0.5181818181818182,176,0,118,_Remix_Guitar,6,8,watasino Stems,0.04466536268591881,0
53,100,0.1590909090909091,303,0,118,_Remix_Guitar,6,3,watasino Stems,0.03315011039376259,0
53,100,0.3,343,0,118,_Remix_Guitar,6,5,watasino Stems,0.026580089703202248,0
58,100,0.41818181818181815,417,0,118,_Remix_Guitar,6,7,watasino Stems,0.023595646023750305,0
62,100,0.5818181818181818,527,0,118,_Remix_Guitar,6,9,watasino Stems,0.02431458793580532,0
58,100,0.1409090909090909,663,0,118,_Remix_Guitar,6,2,watasino Stems,0.029691150411963463,0
62,100,0.2636363636363636,707,0,118,_Remix_Guitar,6,4,watasino Stems,0.04007798433303833,0
63,100,0.1,857,0,118,_Remix_Guitar,6,2,watasino Stems,0.07092919200658798,0
58,100,0.11818181818181818,17,1,119,_Remix_Guitar,6,2,watasino Stems,0.9983737468719482,1
63,100,0.7,119,0,119,_Remix_Guitar,6,11,watasino Stems,0.05106094479560852,0
63,100,0.11818181818181818,326,0,119,_Remix_Guitar,6,2,watasino Stems,0.04130362346768379,0
55,100,0.4409090909090909,396,0,119,_Remix_Guitar,6,7,watasino Stems,0.037386972457170486,0
58,100,0.4590909090909091,502,0,119,_Remix_Guitar,6,7,watasino Stems,0.03833037614822388,0
63,100,0.5772727272727273,612,0,119,_Remix_Guitar,6,9,watasino Stems,0.04475114122033119,0
58,100,0.41818181818181815,743,0,119,_Remix_Guitar,6,7,watasino Stems,0.055231500416994095,0
55,100,0.4409090909090909,866,0,119,_Remix_Guitar,6,7,watasino Stems,0.09026564657688141,0
63,100,0.5,216,1,120,_Remix_Guitar,6,8,watasino Stems,0.9986500144004822,1
58,100,0.5,330,0,120,_Remix_Guitar,6,8,watasino Stems,0.08780789375305176,0
56,100,0.2409090909090909,466,0,120,_Remix_Guitar,6,4,watasino Stems,0.0918198674917221,0
56,100,0.7,523,0,120,_Remix_Guitar,6,11,watasino Stems,0.10748185217380524,0
63,100,0.5409090909090909,695,0,120,_Remix_Guitar,6,9,watasino Stems,0.12483838200569153,0
58,100,0.4,826,0,120,_Remix_Guitar,6,6,watasino Stems,0.17904682457447052,0
56,100,0.5181818181818182,53,1,121,_Remix_Guitar,6,8,watasino Stems,0.9983736276626587,1
58,100,0.2,176,0,121,_Remix_Guitar,6,3,watasino Stems,0.05106189474463463,0
58,100,0.3,223,0,121,_Remix_Guitar,6,5,watasino Stems,0.04130348190665245,0
58,100,0.3,436,0,121,_Remix_Guitar,6,5,watasino Stems,0.0373874194920063,0
56,100,0.3409090909090909,585,0,121,_Remix_Guitar,6,5,watasino Stems,0.038330595940351486,0
56,100,0.1590909090909091,734,0,121,_Remix_Guitar,6,3,watasino Stems,0.044753383845090866,0
56,100,0.2,810,0,121,_Remix_Guitar,6,3,watasino Stems,0.05523194745182991,0
56,100,0.1409090909090909,857,0,121,_Remix_Guitar,6,2,watasino Stems,0.09026654809713364,0
58,100,0.3,43,1,122,_Remix_Guitar,6,5,watasino Stems,0.9983004927635193,1
56,100,0.1,136,0,122,_Remix_Guitar,6,2,watasino Stems,0.04466312751173973,0
55,100,0.2,193,0,122,_Remix_Guitar,6,3,watasino Stems,0.03314967826008797,0
58,100,0.1409090909090909,255,0,122,_Remix_Guitar,6,2,watasino Stems,0.026579909026622772,0
58,100,0.3409090909090909,289,0,122,_Remix_Guitar,6,5,watasino Stems,0.02359425090253353,0
63,100,0.5227272727272727,377,0,122,_Remix_Guitar,6,8,watasino Stems,0.02431390807032585,0
58,100,0.43636363636363634,502,0,122,_Remix_Guitar,6,7,watasino Stems,0.02968984842300415,0
58,100,1.018181818181818,624,0,122,_Remix_Guitar,6,15,watasino Stems,0.04007739946246147,0
63,100,0.5590909090909091,849,0,122,_Remix_Guitar,6,9,watasino Stems,0.07092980295419693,0
62,100,0.6227272727272727,92,1,123,_Remix_Guitar,6,10,watasino Stems,0.9988419413566589,1
62,100,0.4,255,0,123,_Remix_Guitar,6,6,watasino Stems,0.137247696518898,0
62,100,0.11818181818181818,370,0,123,_Remix_Guitar,6,2,watasino Stems,0.1597789227962494,0
58,100,0.1,593,0,123,_Remix_Guitar,6,2,watasino Stems,0.18645206093788147,0
58,100,0.2772727272727273,823,0,123,_Remix_Guitar,6,4,watasino Stems,0.2581760585308075,0
58,100,0.18181818181818182,66,1,125,_Remix_Guitar,6,3,watasino Stems,0.9986500144004822,1
58,100,0.3181818181818182,172,0,125,_Remix_Guitar,6,5,watasino Stems,0.0878027081489563,0
58,100,0.1,333,0,125,_Remix_Guitar,6,2,watasino Stems,0.09181123971939087,0
70,100,0.3,360,0,125,_Remix_Guitar,6,5,watasino Stems,0.10747509449720383,0
63,100,0.2772727272727273,502,0,125,_Remix_Guitar,6,4,watasino Stems,0.12482181191444397,0
58,100,0.1409090909090909,817,1,125,_Remix_Guitar,6,2,watasino Stems,0.17903132736682892,0
70,100,0.33636363636363636,17,1,126,_Remix_Guitar,6,5,watasino Stems,0.9984880685806274,1
70,100,0.2,132,0,126,_Remix_Guitar,6,3,watasino Stems,0.06334543228149414,0
70,100,0.1,210,0,126,_Remix_Guitar,6,2,watasino Stems,0.057742808014154434,0
70,100,0.2,282,0,126,_Remix_Guitar,6,3,watasino Stems,0.0602012574672699,0
70,100,0.5,356,0,126,_Remix_Guitar,6,8,watasino Stems,0.06970204412937164,0
62,100,0.17727272727272728,779,1,126,_Remix_Guitar,6,3,watasino Stems,0.08189386129379272,0
62,100,0.2,876,0,126,_Remix_Guitar,6,3,watasino Stems,0.12402370572090149,0
63,100,0.41818181818181815,316,1,127,_Remix_Guitar,6,7,watasino Stems,0.9983164072036743,1
70,100,0.2590909090909091,519,0,127,_Remix_Guitar,6,4,watasino Stems,0.5445649027824402,0
70,100,0.5590909090909091,128,1,128,_Remix_Guitar,6,9,watasino Stems,0.9986500144004822,1
58,100,0.2409090909090909,264,0,128,_Remix_Guitar,6,4,watasino Stems,0.08780371397733688,0
70,100,0.5409090909090909,427,0,128,_Remix_Guitar,6,9,watasino Stems,0.09181458503007889,0
70,100,0.11818181818181818,603,0,128,_Remix_Guitar,6,2,watasino Stems,0.1074766218662262,0
58,100,0.33636363636363636,633,0,128,_Remix_Guitar,6,5,watasino Stems,0.12482612580060959,0
62,100,0.7227272727272728,773,0,128,_Remix_Guitar,6,12,watasino Stems,0.17902788519859314,0
65,100,0.1,185,1,129,_Remix_Guitar,6,2,watasino Stems,0.9984880685806274,1
70,100,0.2818181818181818,211,0,129,_Remix_Guitar,6,5,watasino Stems,0.06334459781646729,0
65,100,0.1590909090909091,276,0,129,_Remix_Guitar,6,3,watasino Stems,0.057741839438676834,0
70,100,0.1409090909090909,311,0,129,_Remix_Guitar,6,2,watasino Stems,0.06020328402519226,0
70,100,1.1,356,0,129,_Remix_Guitar,6,15,watasino Stems,0.06970053166151047,0
58,100,0.1590909090909091,611,1,129,_Remix_Guitar,6,3,watasino Stems,0.08189444988965988,0
58,100,0.1,778,0,129,_Remix_Guitar,6,2,watasino Stems,0.12401910871267319,0
70,100,0.1,12,1,130,_Remix_Guitar,6,2,watasino Stems,0.9984880685806274,1
58,100,0.2,242,0,130,_Remix_Guitar,6,3,watasino Stems,0.06334401667118073,0
58,100,0.1,452,0,130,_Remix_Guitar,6,2,watasino Stems,0.05774014815688133,0
60,100,0.17727272727272728,501,0,130,_Remix_Guitar,6,3,watasino Stems,0.06019902601838112,0
58,100,0.3,606,0,130,_Remix_Guitar,6,5,watasino Stems,0.06969955563545227,0
70,100,0.1,690,0,130,_Remix_Guitar,6,2,watasino Stems,0.0818890929222107,0
58,100,0.2636363636363636,818,0,130,_Remix_Guitar,6,4,watasino Stems,0.12401950359344482,0
63,100,0.1,158,1,131,_Remix_Guitar,6,2,watasino Stems,0.9983003735542297,1
63,100,0.1409090909090909,211,0,131,_Remix_Guitar,6,2,watasino Stems,0.04466375708580017,0
58,100,0.17727272727272728,250,0,131,_Remix_Guitar,6,3,watasino Stems,0.03315143659710884,0
58,100,0.35909090909090907,364,0,131,_Remix_Guitar,6,6,watasino Stems,0.026580212637782097,0
70,100,0.12272727272727273,466,0,131,_Remix_Guitar,6,2,watasino Stems,0.023595957085490227,0
70,100,0.7818181818181819,496,0,131,_Remix_Guitar,6,13,watasino Stems,0.02431403286755085,0
70,100,0.2,747,1,131,_Remix_Guitar,6,3,watasino Stems,0.02969018928706646,0
70,100,0.18181818181818182,814,0,131,_Remix_Guitar,6,3,watasino Stems,0.04007675498723984,0
65,100,0.1409090909090909,861,0,131,_Remix_Guitar,6,2,watasino Stems,0.07092921435832977,0
70,100,0.3409090909090909,140,1,132,_Remix_Guitar,6,5,watasino Stems,0.9990229606628418,1
70,100,0.18181818181818182,220,0,132,_Remix_Guitar,6,3,watasino Stems,0.36662253737449646,0
70,100,0.11818181818181818,264,0,132,_Remix_Guitar,6,2,watasino Stems,0.45328131318092346,0
58,100,0.3,83,1,133,_Remix_Guitar,6,5,watasino Stems,0.9990057349205017,1
58,100,0.1,189,0,133,_Remix_Guitar,6,2,watasino Stems,0.23119860887527466,0
58,100,0.18181818181818182,400,0,133,_Remix_Guitar,6,3,watasino Stems,0.2659164369106293,0
70,100,0.12272727272727273,553,0,133,_Remix_Guitar,6,2,watasino Stems,0.3541945219039917,0
60,100,0.11818181818181818,140,1,134,_Remix_Guitar,6,2,watasino Stems,0.9983165264129639,1
63,100,1.2,611,1,134,_Remix_Guitar,6,15,watasino Stems,0.5445454120635986,0
63,100,0.4818181818181818,0,1,135,_Remix_Guitar,6,8,watasino Stems,0.9990057349205017,1
70,100,0.1,268,1,135,_Remix_Guitar,6,2,watasino Stems,0.2312023937702179,0
70,100,0.18181818181818182,598,1,135,_Remix_Guitar,6,3,watasino Stems,0.2659204304218292,0
58,100,0.17727272727272728,656,0,135,_Remix_Guitar,6,3,watasino Stems,0.3541957437992096,0
58,100,0.11818181818181818,18,1,136,_Remix_Guitar,6,2,watasino Stems,0.9983736276626587,1
58,100,0.2,122,0,136,_Remix_Guitar,6,3,watasino Stems,0.051059696823358536,0
70,100,0.3181818181818182,238,0,136,_Remix_Guitar,6,5,watasino Stems,0.041301678866147995,0
63,100,0.18181818181818182,421,0,136,_Remix_Guitar,6,3,watasino Stems,0.03738433122634888,0
58,100,0.11818181818181818,493,0,136,_Remix_Guitar,6,2,watasino Stems,0.0383288599550724,0
58,100,0.4409090909090909,541,0,136,_Remix_Guitar,6,7,watasino Stems,0.04475048929452896,0
63,100,0.1409090909090909,682,0,136,_Remix_Guitar,6,2,watasino Stems,0.055228091776371,0
63,100,0.1590909090909091,721,0,136,_Remix_Guitar,6,3,watasino Stems,0.09026481956243515,0
58,100,0.1409090909090909,166,1,137,_Remix_Guitar,6,2,watasino Stems,0.9990057349205017,1
58,100,0.1,378,0,137,_Remix_Guitar,6,2,watasino Stems,0.2312021106481552,0
58,100,0.7818181818181819,553,0,137,_Remix_Guitar,6,13,watasino Stems,0.26591965556144714,0
63,100,0.21818181818181817,747,0,137,_Remix_Guitar,6,3,watasino Stems,0.35419031977653503,0
58,100,0.18181818181818182,3,1,138,_Remix_Guitar,6,3,watasino Stems,0.9990229606628418,1
58,100,0.6409090909090909,185,0,138,_Remix_Guitar,6,10,watasino Stems,0.3666212260723114,0
63,100,0.1409090909090909,409,0,138,_Remix_Guitar,6,2,watasino Stems,0.45328497886657715,0
58,100,0.1409090909090909,307,1,139,_Remix_Guitar,6,2,watasino Stems,0.9990230798721313,1
70,100,0.1,369,0,139,_Remix_Guitar,6,2,watasino Stems,0.3666260540485382,0
70,100,0.1,831,1,139,_Remix_Guitar,6,2,watasino Stems,0.45328742265701294,0
58,100,0.2,739,1,140,_Remix_Guitar,6,3,watasino Stems,0.9983165264129639,1
58,100,0.41818181818181815,800,0,140,_Remix_Guitar,6,7,watasino Stems,0.5445569753646851,0
58,100,0.2409090909090909,158,1,141,_Remix_Guitar,6,4,watasino Stems,0.9792568683624268,0
58,100,0.1,30,1,142,_Remix_Guitar,6,2,watasino Stems,0.9986500144004822,1
58,100,0.2590909090909091,110,0,142,_Remix_Guitar,6,4,watasino Stems,0.08780276775360107,0
58,100,0.2409090909090909,223,0,142,_Remix_Guitar,6,4,watasino Stems,0.0918145403265953,0
63,100,0.1,496,1,142,_Remix_Guitar,6,2,watasino Stems,0.10747500509023666,0
63,100,0.12272727272727273,576,0,142,_Remix_Guitar,6,2,watasino Stems,0.12482772767543793,0
63,100,0.1,792,0,142,_Remix_Guitar,6,2,watasino Stems,0.17902961373329163,0
58,100,0.17727272727272728,18,1,143,_Remix_Guitar,6,3,watasino Stems,0.9990057349205017,1
58,100,0.17727272727272728,140,0,143,_Remix_Guitar,6,3,watasino Stems,0.2312019020318985,0
58,100,0.2,326,0,143,_Remix_Guitar,6,3,watasino Stems,0.265915185213089,0
58,100,0.17727272727272728,436,0,143,_Remix_Guitar,6,3,watasino Stems,0.35419121384620667,0
63,100,0.2,338,1,144,_Remix_Guitar,6,3,watasino Stems,0.9986500144004822,1
70,100,0.1590909090909091,409,0,144,_Remix_Guitar,6,3,watasino Stems,0.0878043845295906,0
58,100,0.2,505,0,144,_Remix_Guitar,6,3,watasino Stems,0.09181314706802368,0
58,100,0.1409090909090909,594,0,144,_Remix_Guitar,6,2,watasino Stems,0.10747870802879333,0
58,100,0.3409090909090909,735,0,144,_Remix_Guitar,6,5,watasino Stems,0.12482304871082306,0
58,100,0.2818181818181818,826,0,144,_Remix_Guitar,6,5,watasino Stems,0.17903035879135132,0
70,100,0.12272727272727273,553,1,145,_Remix_Guitar,6,2,watasino Stems,0.9983165264129639,1
58,100,0.11818181818181818,704,0,145,_Remix_Guitar,6,2,watasino Stems,0.5445582866668701,0
70,100,0.1,405,1,146,_Remix_Guitar,6,2,watasino Stems,0.9990230798721313,1
58,100,0.2409090909090909,431,0,146,_Remix_Guitar,6,4,watasino Stems,0.3666225075721741,0
58,100,0.2772727272727273,537,0,146,_Remix_Guitar,6,4,watasino Stems,0.45328664779663086,0
53,100,0.5818181818181818,532,1,0,_Guitar,6,9,Rocky,0.9990229606628418,1
55,100,0.17727272727272728,722,0,0,_Guitar,6,3,Rocky,0.3666306436061859,0
53,100,0.3409090909090909,783,0,0,_Guitar,6,5,Rocky,0.4532836079597473,0
55,100,0.2409090909090909,47,1,1,_Guitar,6,4,Rocky,0.9983164072036743,1
60,100,0.2818181818181818,571,1,1,_Guitar,6,5,Rocky,0.5445622801780701,0
53,100,0.32272727272727275,144,1,2,_Guitar,6,5,Rocky,0.9983165264129639,1
53,100,0.3,272,0,2,_Guitar,6,5,Rocky,0.5445539355278015,0
53,100,0.4,3,1,3,_Guitar,6,6,Rocky,0.9988419413566589,1
55,100,0.2,189,0,3,_Guitar,6,3,Rocky,0.13724395632743835,0
53,100,0.5590909090909091,259,0,3,_Guitar,6,9,Rocky,0.15977169573307037,0
60,100,0.1409090909090909,717,1,3,_Guitar,6,2,Rocky,0.18644443154335022,0
60,100,0.1409090909090909,761,0,3,_Guitar,6,2,Rocky,0.25815871357917786,0
53,100,0.1590909090909091,496,1,4,_Guitar,6,3,Rocky,0.9983164072036743,1
53,100,0.22272727272727272,642,0,4,_Guitar,6,4,Rocky,0.5445609092712402,0
55,100,0.41818181818181815,352,1,5,_Guitar,6,7,Rocky,0.9988419413566589,1
53,100,0.6227272727272727,465,0,5,_Guitar,6,10,Rocky,0.1372450441122055,0
53,100,0.2409090909090909,637,0,5,_Guitar,6,4,Rocky,0.15976759791374207,0
53,100,0.1,695,0,5,_Guitar,6,2,Rocky,0.18644501268863678,0
55,100,0.2772727272727273,810,0,5,_Guitar,6,4,Rocky,0.2581554353237152,0
60,100,0.1,493,1,6,_Guitar,6,2,Rocky,0.9983165264129639,1
60,100,0.13636363636363635,721,0,6,_Guitar,6,2,Rocky,0.5445585250854492,0
53,100,0.2590909090909091,35,1,7,_Guitar,6,4,Rocky,0.9990229606628418,1
60,100,0.1,619,1,7,_Guitar,6,2,Rocky,0.3666260838508606,0
53,100,0.9,700,0,7,_Guitar,6,14,Rocky,0.453285813331604,0
53,100,0.5818181818181818,87,1,8,_Guitar,6,9,Rocky,0.9990230798721313,1
55,100,0.3,285,0,8,_Guitar,6,5,Rocky,0.3666248321533203,0
55,100,0.2409090909090909,804,1,8,_Guitar,6,4,Rocky,0.4532882273197174,0
53,100,0.21818181818181817,127,1,9,_Guitar,6,3,Rocky,0.9990229606628418,1
53,100,0.3181818181818182,326,0,9,_Guitar,6,5,Rocky,0.3666194677352905,0
53,100,0.3,443,0,9,_Guitar,6,5,Rocky,0.4532926678657532,0
60,100,0.2,369,1,10,_Guitar,6,3,Rocky,0.9990057349205017,1
53,100,0.3181818181818182,436,0,10,_Guitar,6,5,Rocky,0.23120807111263275,0
55,100,0.5181818181818182,505,0,10,_Guitar,6,8,Rocky,0.26591840386390686,0
55,100,0.37727272727272726,625,0,10,_Guitar,6,6,Rocky,0.35419437289237976,0
65,100,0.2772727272727273,17,1,11,_Guitar,6,4,Rocky,0.9984880685806274,1
55,100,0.6,158,0,11,_Guitar,6,10,Rocky,0.0633455440402031,0
55,100,0.12272727272727273,343,0,11,_Guitar,6,2,Rocky,0.057742081582546234,0
55,100,0.32272727272727275,409,0,11,_Guitar,6,5,Rocky,0.0602005310356617,0
60,100,0.2818181818181818,541,0,11,_Guitar,6,5,Rocky,0.06970136612653732,0
60,100,0.1590909090909091,629,0,11,_Guitar,6,3,Rocky,0.0818929672241211,0
55,100,0.3181818181818182,677,0,11,_Guitar,6,5,Rocky,0.12401633709669113,0
60,100,0.13636363636363635,391,1,12,_Guitar,6,2,Rocky,0.9986500144004822,1
60,100,0.17727272727272728,426,0,12,_Guitar,6,3,Rocky,0.08780276775360107,0
55,100,0.1409090909090909,515,0,12,_Guitar,6,2,Rocky,0.09181267023086548,0
55,100,0.6590909090909091,572,0,12,_Guitar,6,11,Rocky,0.1074741780757904,0
53,100,0.35909090909090907,770,0,12,_Guitar,6,6,Rocky,0.12482213973999023,0
55,100,0.35909090909090907,854,0,12,_Guitar,6,6,Rocky,0.17902794480323792,0
65,100,0.2,378,1,13,_Guitar,6,3,Rocky,0.9792561531066895,0
65,100,0.1590909090909091,17,1,14,_Guitar,6,3,Rocky,0.9990057349205017,1
55,100,0.1409090909090909,101,0,14,_Guitar,6,2,Rocky,0.23121260106563568,0
55,100,0.8590909090909091,149,0,14,_Guitar,6,14,Rocky,0.2659284770488739,0
60,100,2.081818181818182,343,0,14,_Guitar,6,15,Rocky,0.35418859124183655,0
53,100,0.17727272727272728,810,1,25,_Guitar,6,3,Rocky,0.9983164072036743,1
53,100,0.17727272727272728,853,0,25,_Guitar,6,3,Rocky,0.5445567965507507,0
53,100,0.13636363636363635,17,1,26,_Guitar,6,2,Rocky,0.9792561531066895,1
53,100,0.1,839,1,27,_Guitar,6,2,Rocky,0.9792558550834656,0
53,100,0.1409090909090909,9,1,28,_Guitar,6,2,Rocky,0.9988419413566589,1
53,100,0.3,61,0,28,_Guitar,6,5,Rocky,0.13724416494369507,0
53,100,0.5590909090909091,144,0,28,_Guitar,6,9,Rocky,0.15977485477924347,0
53,100,0.8227272727272728,277,0,28,_Guitar,6,13,Rocky,0.1864425092935562,0
53,100,1.3227272727272728,466,0,28,_Guitar,6,15,Rocky,0.2581566870212555,0
53,100,0.7636363636363637,443,1,29,_Guitar,6,12,Rocky,0.9983165264129639,1
53,100,0.11818181818181818,615,0,29,_Guitar,6,2,Rocky,0.5445582866668701,0
57,100,0.23636363636363636,150,1,45,_Guitar,6,4,Rocky,0.9990057349205017,1
60,100,0.6,201,0,45,_Guitar,6,10,Rocky,0.23120935261249542,0
60,100,0.18181818181818182,791,1,45,_Guitar,6,3,Rocky,0.2659221589565277,0
57,100,0.1590909090909091,875,0,45,_Guitar,6,3,Rocky,0.3541956841945648,0
57,100,0.4,53,1,46,_Guitar,6,6,Rocky,0.9792558550834656,0
60,100,0.4590909090909091,721,1,48,_Guitar,6,7,Rocky,0.9792566299438477,0
60,100,0.4,370,1,49,_Guitar,6,6,Rocky,0.9990229606628418,1
60,100,0.18181818181818182,474,0,49,_Guitar,6,3,Rocky,0.3666224777698517,0
55,100,0.11818181818181818,691,0,49,_Guitar,6,2,Rocky,0.45329251885414124,0
55,100,0.2818181818181818,179,1,50,_Guitar,6,5,Rocky,0.9990230798721313,1
55,100,0.1409090909090909,246,0,50,_Guitar,6,2,Rocky,0.36662164330482483,0
55,100,0.1409090909090909,686,1,50,_Guitar,6,2,Rocky,0.4532875716686249,0
60,100,0.5590909090909091,198,1,51,_Guitar,6,9,Rocky,0.9983166456222534,1
60,100,0.2409090909090909,756,1,51,_Guitar,6,4,Rocky,0.5445613265037537,0
60,100,0.5636363636363636,378,1,52,_Guitar,6,9,Rocky,0.9792566299438477,0
60,100,0.2818181818181818,21,1,53,_Guitar,6,5,Rocky,0.9988419413566589,1
55,100,1.0227272727272727,144,0,53,_Guitar,6,15,Rocky,0.13724589347839355,0
60,100,0.4590909090909091,558,1,53,_Guitar,6,7,Rocky,0.1597781628370285,0
55,100,0.17727272727272728,678,0,53,_Guitar,6,3,Rocky,0.18644824624061584,0
55,100,0.6409090909090909,726,0,53,_Guitar,6,10,Rocky,0.25815629959106445,0
60,100,0.5818181818181818,198,1,54,_Guitar,6,9,Rocky,0.9990058541297913,1
55,100,0.33636363636363636,325,0,54,_Guitar,6,5,Rocky,0.23120556771755219,0
55,100,0.2818181818181818,431,0,54,_Guitar,6,5,Rocky,0.2659186124801636,0
60,100,0.5,721,1,54,_Guitar,6,8,Rocky,0.3541918098926544,0
55,100,0.4,716,1,55,_Guitar,6,6,Rocky,0.979256272315979,1
57,100,0.6181818181818182,875,1,62,_Guitar,6,10,Rocky,0.9792559146881104,0
60,100,0.6409090909090909,188,1,63,_Guitar,6,10,Rocky,0.9990230798721313,1
57,100,0.3409090909090909,334,0,63,_Guitar,6,5,Rocky,0.3666229248046875,0
60,100,0.6590909090909091,716,1,63,_Guitar,6,11,Rocky,0.45329493284225464,0
60,100,0.4,13,1,64,_Guitar,6,6,Rocky,0.9983737468719482,1
55,100,0.2772727272727273,106,0,64,_Guitar,6,4,Rocky,0.05106082931160927,0
57,100,0.2409090909090909,179,0,64,_Guitar,6,4,Rocky,0.041303038597106934,0
60,100,0.6227272727272727,365,0,64,_Guitar,6,10,Rocky,0.037386614829301834,0
60,100,0.1590909090909091,546,0,64,_Guitar,6,3,Rocky,0.038330499082803726,0
55,100,0.37727272727272726,612,0,64,_Guitar,6,6,Rocky,0.0447513721883297,0
55,100,0.42272727272727273,760,0,64,_Guitar,6,7,Rocky,0.05522957444190979,0
55,100,0.1,866,0,64,_Guitar,6,2,Rocky,0.09026533365249634,0
60,100,0.6409090909090909,22,1,65,_Guitar,6,10,Rocky,0.9990057349205017,1
55,100,0.6818181818181818,197,0,65,_Guitar,6,11,Rocky,0.23120617866516113,0
60,100,0.6590909090909091,540,1,65,_Guitar,6,11,Rocky,0.26592931151390076,0
57,100,0.5409090909090909,686,0,65,_Guitar,6,9,Rocky,0.35418960452079773,0
59,100,0.6409090909090909,47,1,66,_Guitar,6,10,Rocky,0.9990229606628418,1
60,100,1.540909090909091,189,0,66,_Guitar,6,15,Rocky,0.36662542819976807,0
55,100,0.5818181818181818,870,1,66,_Guitar,6,9,Rocky,0.4532918930053711,0
55,100,0.11818181818181818,153,1,67,_Guitar,6,2,Rocky,0.9988419413566589,1
55,100,0.1590909090909091,233,0,67,_Guitar,6,3,Rocky,0.1372472047805786,0
60,100,0.33636363636363636,370,0,67,_Guitar,6,5,Rocky,0.15978021919727325,0
55,100,0.8772727272727273,502,0,67,_Guitar,6,14,Rocky,0.18644244968891144,0
53,100,0.22272727272727272,805,1,67,_Guitar,6,4,Rocky,0.2581682801246643,0
60,100,0.8772727272727273,9,1,68,_Guitar,6,14,Rocky,0.9988419413566589,1
57,100,0.38181818181818183,202,0,68,_Guitar,6,6,Rocky,0.1372436136007309,0
53,100,0.2409090909090909,294,0,68,_Guitar,6,4,Rocky,0.1597718745470047,0
60,100,1.0,540,1,68,_Guitar,6,15,Rocky,0.18644647300243378,0
59,100,0.17727272727272728,779,1,68,_Guitar,6,3,Rocky,0.2581605315208435,0
59,100,0.1409090909090909,100,1,69,_Guitar,6,2,Rocky,0.9988419413566589,1
60,100,0.6,189,0,69,_Guitar,6,10,Rocky,0.13724909722805023,0
55,100,0.9,339,0,69,_Guitar,6,14,Rocky,0.15977638959884644,0
60,100,0.5409090909090909,726,1,69,_Guitar,6,9,Rocky,0.1864495873451233,0
55,100,0.8590909090909091,866,0,69,_Guitar,6,14,Rocky,0.2581636607646942,0
57,100,0.2,184,1,70,_Guitar,6,3,Rocky,0.9984880685806274,1
60,100,0.37727272727272726,360,0,70,_Guitar,6,6,Rocky,0.06334452331066132,0
57,100,0.16363636363636364,443,0,70,_Guitar,6,3,Rocky,0.057742197066545486,0
60,100,0.11818181818181818,483,0,70,_Guitar,6,2,Rocky,0.060202233493328094,0
57,100,0.2,519,0,70,_Guitar,6,3,Rocky,0.06970192492008209,0
53,100,0.1590909090909091,580,0,70,_Guitar,6,3,Rocky,0.08189517259597778,0
59,100,0.5227272727272727,773,0,70,_Guitar,6,8,Rocky,0.12402458488941193,0
60,100,1.1,13,1,71,_Guitar,6,15,Rocky,0.9988420605659485,1
55,100,0.759090909090909,365,1,71,_Guitar,6,12,Rocky,0.13724972307682037,0
60,100,0.5818181818181818,540,0,71,_Guitar,6,9,Rocky,0.1597861796617508,0
55,100,0.2590909090909091,682,0,71,_Guitar,6,4,Rocky,0.18645398318767548,0
55,100,1.981818181818182,870,0,71,_Guitar,6,15,Rocky,0.2581518888473511,0
61,100,0.1590909090909091,541,1,0,DL_Guitar,6,3,sinjyufujin_warm_ruriko_Stems,0.9792554974555969,0
53,100,0.13636363636363635,172,1,1,DL_Guitar,6,2,sinjyufujin_warm_ruriko_Stems,0.9983164072036743,1
53,100,0.16363636363636364,224,0,1,DL_Guitar,6,3,sinjyufujin_warm_ruriko_Stems,0.5445544123649597,0
56,100,0.2772727272727273,625,1,2,DL_Guitar,6,4,sinjyufujin_warm_ruriko_Stems,0.9792561531066895,0
80,100,0.12272727272727273,223,1,3,DL_Guitar,6,2,sinjyufujin_warm_ruriko_Stems,0.9983164072036743,1
53,100,0.38181818181818183,461,1,3,DL_Guitar,6,6,sinjyufujin_warm_ruriko_Stems,0.5445542931556702,0
61,100,0.12272727272727273,818,1,4,DL_Guitar,6,2,sinjyufujin_warm_ruriko_Stems,0.9792559146881104,0
61,100,0.16363636363636364,179,1,5,DL_Guitar,6,3,sinjyufujin_warm_ruriko_Stems,0.9986500144004822,1
65,100,0.11818181818181818,215,0,5,DL_Guitar,6,2,sinjyufujin_warm_ruriko_Stems,0.08780296891927719,0
61,100,0.2,260,0,5,DL_Guitar,6,3,sinjyufujin_warm_ruriko_Stems,0.09181448072195053,0
61,100,0.2818181818181818,355,0,5,DL_Guitar,6,5,sinjyufujin_warm_ruriko_Stems,0.107479527592659,0
65,100,0.1409090909090909,581,0,5,DL_Guitar,6,2,sinjyufujin_warm_ruriko_Stems,0.12482889741659164,0
61,100,0.4590909090909091,660,0,5,DL_Guitar,6,7,sinjyufujin_warm_ruriko_Stems,0.17903250455856323,0
61,100,0.16363636363636364,201,1,6,DL_Guitar,6,3,sinjyufujin_warm_ruriko_Stems,0.9986500144004822,1
66,100,0.4818181818181818,268,0,6,DL_Guitar,6,8,sinjyufujin_warm_ruriko_Stems,0.08780304342508316,0
61,100,0.11818181818181818,383,0,6,DL_Guitar,6,2,sinjyufujin_warm_ruriko_Stems,0.09181344509124756,0
66,100,0.1590909090909091,475,0,6,DL_Guitar,6,3,sinjyufujin_warm_ruriko_Stems,0.10748255252838135,0
61,100,0.5409090909090909,703,0,6,DL_Guitar,6,9,sinjyufujin_warm_ruriko_Stems,0.1248258575797081,0
61,100,0.12272727272727273,839,0,6,DL_Guitar,6,2,sinjyufujin_warm_ruriko_Stems,0.1790338158607483,0
53,100,0.17727272727272728,734,1,7,DL_Guitar,6,3,sinjyufujin_warm_ruriko_Stems,0.9792559146881104,0
56,100,0.18181818181818182,598,1,8,DL_Guitar,6,3,sinjyufujin_warm_ruriko_Stems,0.979256272315979,0
54,100,0.1590909090909091,374,1,9,DL_Guitar,6,3,sinjyufujin_warm_ruriko_Stems,0.9990230798721313,1
54,100,0.11818181818181818,426,0,9,DL_Guitar,6,2,sinjyufujin_warm_ruriko_Stems,0.366626501083374,0
54,100,0.5227272727272727,849,1,9,DL_Guitar,6,8,sinjyufujin_warm_ruriko_Stems,0.45329028367996216,0
56,100,0.5,660,1,10,DL_Guitar,6,8,sinjyufujin_warm_ruriko_Stems,0.9983165264129639,1
53,100,0.11818181818181818,823,0,10,DL_Guitar,6,2,sinjyufujin_warm_ruriko_Stems,0.5445578098297119,0
61,100,0.17727272727272728,338,1,11,DL_Guitar,6,3,sinjyufujin_warm_ruriko_Stems,0.9990057349205017,1
61,100,0.1,391,0,11,DL_Guitar,6,2,sinjyufujin_warm_ruriko_Stems,0.23120369017124176,0
54,100,0.1409090909090909,505,0,11,DL_Guitar,6,2,sinjyufujin_warm_ruriko_Stems,0.2659226059913635,0
54,100,0.5636363636363636,575,0,11,DL_Guitar,6,9,sinjyufujin_warm_ruriko_Stems,0.35419735312461853,0
54,100,0.21818181818181817,501,1,12,DL_Guitar,6,3,sinjyufujin_warm_ruriko_Stems,0.9983165264129639,1
53,100,0.2590909090909091,550,0,12,DL_Guitar,6,4,sinjyufujin_warm_ruriko_Stems,0.5445492267608643,0
56,100,0.2409090909090909,8,1,13,DL_Guitar,6,4,sinjyufujin_warm_ruriko_Stems,0.9990229606628418,1
61,100,0.4409090909090909,527,1,13,DL_Guitar,6,7,sinjyufujin_warm_ruriko_Stems,0.3666183352470398,0
61,100,0.12272727272727273,642,0,13,DL_Guitar,6,2,sinjyufujin_warm_ruriko_Stems,0.4532901346683502,0
56,100,0.2590909090909091,44,1,14,DL_Guitar,6,4,sinjyufujin_warm_ruriko_Stems,0.9990057349205017,1
56,100,0.37727272727272726,391,1,14,DL_Guitar,6,6,sinjyufujin_warm_ruriko_Stems,0.23120297491550446,0
60,100,0.12272727272727273,510,0,14,DL_Guitar,6,2,sinjyufujin_warm_ruriko_Stems,0.2659316658973694,0
56,100,0.4,801,1,14,DL_Guitar,6,6,sinjyufujin_warm_ruriko_Stems,0.3541852831840515,0
56,100,0.1590909090909091,118,1,15,DL_Guitar,6,3,sinjyufujin_warm_ruriko_Stems,0.9990230798721313,1
56,100,0.2409090909090909,166,0,15,DL_Guitar,6,4,sinjyufujin_warm_ruriko_Stems,0.36663150787353516,0
68,100,0.21818181818181817,634,1,15,DL_Guitar,6,3,sinjyufujin_warm_ruriko_Stems,0.4532829225063324,0
54,100,0.2,123,1,16,DL_Guitar,6,3,sinjyufujin_warm_ruriko_Stems,0.9988419413566589,1
61,100,0.2,466,1,16,DL_Guitar,6,3,sinjyufujin_warm_ruriko_Stems,0.137246236205101,0
53,100,0.1,540,0,16,DL_Guitar,6,2,sinjyufujin_warm_ruriko_Stems,0.1597757190465927,0
61,100,0.43636363636363634,677,0,16,DL_Guitar,6,7,sinjyufujin_warm_ruriko_Stems,0.18644365668296814,0
61,100,0.1,835,0,16,DL_Guitar,6,2,sinjyufujin_warm_ruriko_Stems,0.25816094875335693,0
61,100,0.35909090909090907,0,1,17,DL_Guitar,6,6,sinjyufujin_warm_ruriko_Stems,0.9986500144004822,1
61,100,0.1590909090909091,96,0,17,DL_Guitar,6,3,sinjyufujin_warm_ruriko_Stems,0.08780327439308167,0
63,100,0.1409090909090909,272,0,17,DL_Guitar,6,2,sinjyufujin_warm_ruriko_Stems,0.09181669354438782,0
56,100,0.17727272727272728,470,0,17,DL_Guitar,6,3,sinjyufujin_warm_ruriko_Stems,0.10748255252838135,0
56,100,0.2772727272727273,515,0,17,DL_Guitar,6,4,sinjyufujin_warm_ruriko_Stems,0.12483154982328415,0
56,100,0.17727272727272728,810,1,17,DL_Guitar,6,3,sinjyufujin_warm_ruriko_Stems,0.17903517186641693,0
56,100,0.12272727272727273,13,1,18,DL_Guitar,6,2,sinjyufujin_warm_ruriko_Stems,0.9982276558876038,1
56,100,0.11818181818181818,44,0,18,DL_Guitar,6,2,sinjyufujin_warm_ruriko_Stems,0.03939790651202202,0
61,100,0.16363636363636364,92,0,18,DL_Guitar,6,3,sinjyufujin_warm_ruriko_Stems,0.02667398937046528,0
53,100,0.1590909090909091,272,0,18,DL_Guitar,6,3,sinjyufujin_warm_ruriko_Stems,0.018588081002235413,0
61,100,0.1590909090909091,360,0,18,DL_Guitar,6,3,sinjyufujin_warm_ruriko_Stems,0.013414035551249981,0
54,100,0.12272727272727273,453,0,18,DL_Guitar,6,2,sinjyufujin_warm_ruriko_Stems,0.010587548837065697,0
54,100,0.38181818181818183,484,0,18,DL_Guitar,6,6,sinjyufujin_warm_ruriko_Stems,0.00983989518135786,0
61,100,0.2772727272727273,581,0,18,DL_Guitar,6,4,sinjyufujin_warm_ruriko_Stems,0.011417387053370476,0
54,100,0.2,650,0,18,DL_Guitar,6,3,sinjyufujin_warm_ruriko_Stems,0.016513217240571976,0
54,100,0.1590909090909091,712,0,18,DL_Guitar,6,3,sinjyufujin_warm_ruriko_Stems,0.02681909315288067,0
61,100,0.1409090909090909,752,0,18,DL_Guitar,6,2,sinjyufujin_warm_ruriko_Stems,0.053915027529001236,0
61,100,0.13636363636363635,216,1,19,DL_Guitar,6,2,sinjyufujin_warm_ruriko_Stems,0.9990229606628418,1
61,100,0.43636363636363634,281,0,19,DL_Guitar,6,7,sinjyufujin_warm_ruriko_Stems,0.3666210472583771,0
63,100,0.2590909090909091,700,1,19,DL_Guitar,6,4,sinjyufujin_warm_ruriko_Stems,0.4533042013645172,0
61,100,0.5,193,1,20,DL_Guitar,6,8,sinjyufujin_warm_ruriko_Stems,0.9990229606628418,1
60,100,0.11818181818181818,501,1,20,DL_Guitar,6,2,sinjyufujin_warm_ruriko_Stems,0.3666289448738098,0
61,100,0.18181818181818182,835,1,20,DL_Guitar,6,3,sinjyufujin_warm_ruriko_Stems,0.4532868564128876,0
63,100,0.2,497,1,21,DL_Guitar,6,3,sinjyufujin_warm_ruriko_Stems,0.9792563915252686,0
61,100,0.1409090909090909,581,1,22,DL_Guitar,6,2,sinjyufujin_warm_ruriko_Stems,0.9990229606628418,1
61,100,0.2409090909090909,638,0,22,DL_Guitar,6,4,sinjyufujin_warm_ruriko_Stems,0.36661845445632935,0
61,100,0.2409090909090909,735,0,22,DL_Guitar,6,4,sinjyufujin_warm_ruriko_Stems,0.453286737203598,0
56,100,0.22272727272727272,233,1,23,DL_Guitar,6,4,sinjyufujin_warm_ruriko_Stems,0.979255735874176,0
61,100,0.21818181818181817,339,1,24,DL_Guitar,6,3,sinjyufujin_warm_ruriko_Stems,0.9988419413566589,1
61,100,0.43636363636363634,413,0,24,DL_Guitar,6,7,sinjyufujin_warm_ruriko_Stems,0.1372484415769577,0
61,100,0.5772727272727273,625,0,24,DL_Guitar,6,9,sinjyufujin_warm_ruriko_Stems,0.15978029370307922,0
61,100,0.11818181818181818,770,0,24,DL_Guitar,6,2,sinjyufujin_warm_ruriko_Stems,0.18645299971103668,0
61,100,0.5818181818181818,835,0,24,DL_Guitar,6,9,sinjyufujin_warm_ruriko_Stems,0.2581644058227539,0
61,100,0.2409090909090909,88,1,25,DL_Guitar,6,4,sinjyufujin_warm_ruriko_Stems,0.9988419413566589,1
54,100,0.5409090909090909,144,0,25,DL_Guitar,6,9,sinjyufujin_warm_ruriko_Stems,0.13725003600120544,0
54,100,0.4,295,0,25,DL_Guitar,6,6,sinjyufujin_warm_ruriko_Stems,0.15977743268013,0
54,100,0.5590909090909091,413,0,25,DL_Guitar,6,9,sinjyufujin_warm_ruriko_Stems,0.1864512860774994,0
54,100,0.11818181818181818,550,0,25,DL_Guitar,6,2,sinjyufujin_warm_ruriko_Stems,0.25816765427589417,0
57,100,0.1,272,1,26,DL_Guitar,6,2,sinjyufujin_warm_ruriko_Stems,0.9792563915252686,0
61,100,1.0636363636363637,26,1,27,DL_Guitar,6,15,sinjyufujin_warm_ruriko_Stems,0.9990057349205017,1
61,100,0.11818181818181818,339,1,27,DL_Guitar,6,2,sinjyufujin_warm_ruriko_Stems,0.23120807111263275,0
61,100,0.2,638,1,27,DL_Guitar,6,3,sinjyufujin_warm_ruriko_Stems,0.2659178674221039,0
61,100,0.4,773,0,27,DL_Guitar,6,6,sinjyufujin_warm_ruriko_Stems,0.3541957139968872,0
60,100,0.2590909090909091,250,1,28,DL_Guitar,6,4,sinjyufujin_warm_ruriko_Stems,0.9988419413566589,1
60,100,0.2590909090909091,382,0,28,DL_Guitar,6,4,sinjyufujin_warm_ruriko_Stems,0.13724656403064728,0
60,100,0.13636363636363635,457,0,28,DL_Guitar,6,2,sinjyufujin_warm_ruriko_Stems,0.15977850556373596,0
53,100,0.5772727272727273,501,0,28,DL_Guitar,6,9,sinjyufujin_warm_ruriko_Stems,0.1864408254623413,0
53,100,0.22272727272727272,673,0,28,DL_Guitar,6,4,sinjyufujin_warm_ruriko_Stems,0.2581644058227539,0
53,100,0.11818181818181818,0,1,29,DL_Guitar,6,2,sinjyufujin_warm_ruriko_Stems,0.9990057349205017,1
54,100,0.11818181818181818,611,1,29,DL_Guitar,6,2,sinjyufujin_warm_ruriko_Stems,0.23120608925819397,0
54,100,0.12272727272727273,686,0,29,DL_Guitar,6,2,sinjyufujin_warm_ruriko_Stems,0.26592522859573364,0
54,100,0.41818181818181815,725,0,29,DL_Guitar,6,7,sinjyufujin_warm_ruriko_Stems,0.3541947305202484,0
54,100,0.7181818181818181,65,1,30,DL_Guitar,6,11,sinjyufujin_warm_ruriko_Stems,0.9988419413566589,1
54,100,0.2,246,0,30,DL_Guitar,6,3,sinjyufujin_warm_ruriko_Stems,0.1372467428445816,0
53,100,0.23636363636363636,721,1,30,DL_Guitar,6,4,sinjyufujin_warm_ruriko_Stems,0.1597769409418106,0
60,100,0.1,787,0,30,DL_Guitar,6,2,sinjyufujin_warm_ruriko_Stems,0.18644773960113525,0
53,100,0.5363636363636364,831,0,30,DL_Guitar,6,9,sinjyufujin_warm_ruriko_Stems,0.2581581175327301,0
65,100,0.12272727272727273,100,1,31,DL_Guitar,6,2,sinjyufujin_warm_ruriko_Stems,0.9988419413566589,1
53,100,0.9181818181818182,127,0,31,DL_Guitar,6,15,sinjyufujin_warm_ruriko_Stems,0.1372438669204712,0
53,100,0.4,356,0,31,DL_Guitar,6,6,sinjyufujin_warm_ruriko_Stems,0.15977641940116882,0
61,100,0.4,488,0,31,DL_Guitar,6,6,sinjyufujin_warm_ruriko_Stems,0.18644587695598602,0
61,100,0.8,642,0,31,DL_Guitar,6,13,sinjyufujin_warm_ruriko_Stems,0.258159339427948,0
61,100,0.18181818181818182,0,1,32,DL_Guitar,6,3,sinjyufujin_warm_ruriko_Stems,0.9988419413566589,1
61,100,0.13636363636363635,171,0,32,DL_Guitar,6,2,sinjyufujin_warm_ruriko_Stems,0.13724826276302338,0
54,100,0.1409090909090909,453,1,32,DL_Guitar,6,2,sinjyufujin_warm_ruriko_Stems,0.15978233516216278,0
61,100,0.11818181818181818,668,0,32,DL_Guitar,6,2,sinjyufujin_warm_ruriko_Stems,0.18645276129245758,0
56,100,0.11818181818181818,845,0,32,DL_Guitar,6,2,sinjyufujin_warm_ruriko_Stems,0.25816553831100464,0
53,100,0.22272727272727272,211,1,33,DL_Guitar,6,4,sinjyufujin_warm_ruriko_Stems,0.9986498951911926,1
53,100,0.5409090909090909,321,0,33,DL_Guitar,6,9,sinjyufujin_warm_ruriko_Stems,0.08780224621295929,0
53,100,0.42272727272727273,444,0,33,DL_Guitar,6,7,sinjyufujin_warm_ruriko_Stems,0.09181167185306549,0
61,100,0.2590909090909091,633,0,33,DL_Guitar,6,4,sinjyufujin_warm_ruriko_Stems,0.1074754074215889,0
53,100,0.11818181818181818,713,0,33,DL_Guitar,6,2,sinjyufujin_warm_ruriko_Stems,0.12482384592294693,0
70,100,0.12272727272727273,774,0,33,DL_Guitar,6,2,sinjyufujin_warm_ruriko_Stems,0.17903217673301697,0
56,100,0.11818181818181818,31,1,34,DL_Guitar,6,2,sinjyufujin_warm_ruriko_Stems,0.9986500144004822,1
70,100,0.1,105,0,34,DL_Guitar,6,2,sinjyufujin_warm_ruriko_Stems,0.08780472725629807,0
54,100,0.18181818181818182,201,0,34,DL_Guitar,6,3,sinjyufujin_warm_ruriko_Stems,0.0918160080909729,0
54,100,0.6227272727272727,289,0,34,DL_Guitar,6,10,sinjyufujin_warm_ruriko_Stems,0.10747560113668442,0
54,100,0.1409090909090909,619,1,34,DL_Guitar,6,2,sinjyufujin_warm_ruriko_Stems,0.12482337653636932,0
54,100,0.3409090909090909,694,0,34,DL_Guitar,6,5,sinjyufujin_warm_ruriko_Stems,0.17903117835521698,0
61,100,0.11818181818181818,118,1,35,DL_Guitar,6,2,sinjyufujin_warm_ruriko_Stems,0.9984880685806274,1
53,100,0.2409090909090909,308,0,35,DL_Guitar,6,4,sinjyufujin_warm_ruriko_Stems,0.06334563344717026,0
53,100,0.4,421,0,35,DL_Guitar,6,6,sinjyufujin_warm_ruriko_Stems,0.05774243175983429,0
65,100,0.12272727272727273,509,0,35,DL_Guitar,6,2,sinjyufujin_warm_ruriko_Stems,0.06020176783204079,0
60,100,0.2,576,0,35,DL_Guitar,6,3,sinjyufujin_warm_ruriko_Stems,0.0697041004896164,0
60,100,0.1409090909090909,625,0,35,DL_Guitar,6,2,sinjyufujin_warm_ruriko_Stems,0.08189409226179123,0
53,100,1.018181818181818,691,0,35,DL_Guitar,6,15,sinjyufujin_warm_ruriko_Stems,0.12401707470417023,0
61,100,0.38181818181818183,69,1,36,DL_Guitar,6,6,sinjyufujin_warm_ruriko_Stems,0.9990229606628418,1
61,100,0.2636363636363636,356,1,36,DL_Guitar,6,4,sinjyufujin_warm_ruriko_Stems,0.36661848425865173,0
54,100,0.8227272727272728,421,0,36,DL_Guitar,6,13,sinjyufujin_warm_ruriko_Stems,0.4532921314239502,0
54,100,0.2409090909090909,153,1,37,DL_Guitar,6,4,sinjyufujin_warm_ruriko_Stems,0.9990057349205017,1
54,100,0.11818181818181818,238,0,37,DL_Guitar,6,2,sinjyufujin_warm_ruriko_Stems,0.2311992049217224,0
54,100,0.1590909090909091,298,0,37,DL_Guitar,6,3,sinjyufujin_warm_ruriko_Stems,0.2659156024456024,0
54,100,0.11818181818181818,418,0,37,DL_Guitar,6,2,sinjyufujin_warm_ruriko_Stems,0.3541940152645111,0
56,100,0.5,40,1,38,DL_Guitar,6,8,sinjyufujin_warm_ruriko_Stems,0.9990229606628418,1
54,100,0.1590909090909091,713,1,38,DL_Guitar,6,3,sinjyufujin_warm_ruriko_Stems,0.3666340708732605,0
61,100,0.7818181818181819,791,0,38,DL_Guitar,6,13,sinjyufujin_warm_ruriko_Stems,0.45327872037887573,0
61,100,0.5590909090909091,141,1,39,DL_Guitar,6,9,sinjyufujin_warm_ruriko_Stems,0.9990057349205017,1
61,100,0.3409090909090909,364,0,39,DL_Guitar,6,5,sinjyufujin_warm_ruriko_Stems,0.23120014369487762,0
65,100,0.16363636363636364,531,0,39,DL_Guitar,6,3,sinjyufujin_warm_ruriko_Stems,0.26591989398002625,0
61,100,0.6181818181818182,568,0,39,DL_Guitar,6,10,sinjyufujin_warm_ruriko_Stems,0.3541918694972992,0
56,100,0.12272727272727273,48,1,40,DL_Guitar,6,2,sinjyufujin_warm_ruriko_Stems,0.9990057349205017,1
60,100,0.11818181818181818,295,1,40,DL_Guitar,6,2,sinjyufujin_warm_ruriko_Stems,0.23120811581611633,0
53,100,0.5409090909090909,399,0,40,DL_Guitar,6,9,sinjyufujin_warm_ruriko_Stems,0.2659198045730591,0
61,100,0.5181818181818182,703,1,40,DL_Guitar,6,8,sinjyufujin_warm_ruriko_Stems,0.3541892468929291,0
61,100,0.5590909090909091,193,1,41,DL_Guitar,6,9,sinjyufujin_warm_ruriko_Stems,0.9990057349205017,1
61,100,0.3,396,0,41,DL_Guitar,6,5,sinjyufujin_warm_ruriko_Stems,0.23120221495628357,0
61,100,0.41818181818181815,691,1,41,DL_Guitar,6,7,sinjyufujin_warm_ruriko_Stems,0.26592379808425903,0
61,100,0.9409090909090909,804,0,41,DL_Guitar,6,15,sinjyufujin_warm_ruriko_Stems,0.354191392660141,0
56,100,0.11818181818181818,303,1,42,DL_Guitar,6,2,sinjyufujin_warm_ruriko_Stems,0.9983164072036743,1
53,100,0.5,638,1,42,DL_Guitar,6,8,sinjyufujin_warm_ruriko_Stems,0.5445540547370911,0
53,100,0.21818181818181817,0,1,43,DL_Guitar,6,3,sinjyufujin_warm_ruriko_Stems,0.9990057349205017,1
61,100,0.4636363636363636,48,0,43,DL_Guitar,6,7,sinjyufujin_warm_ruriko_Stems,0.23120157420635223,0
61,100,0.1590909090909091,373,1,43,DL_Guitar,6,3,sinjyufujin_warm_ruriko_Stems,0.2659214735031128,0
61,100,0.11818181818181818,448,0,43,DL_Guitar,6,2,sinjyufujin_warm_ruriko_Stems,0.3541947305202484,0
56,100,0.16363636363636364,311,1,44,DL_Guitar,6,3,sinjyufujin_warm_ruriko_Stems,0.9990229606628418,1
61,100,0.1409090909090909,660,1,44,DL_Guitar,6,2,sinjyufujin_warm_ruriko_Stems,0.3666165769100189,0
61,100,0.2409090909090909,694,0,44,DL_Guitar,6,4,sinjyufujin_warm_ruriko_Stems,0.4532885253429413,0
61,100,0.4409090909090909,118,1,45,DL_Guitar,6,7,sinjyufujin_warm_ruriko_Stems,0.9990057349205017,1
61,100,0.2,426,1,45,DL_Guitar,6,3,sinjyufujin_warm_ruriko_Stems,0.2312079221010208,0
54,100,0.1409090909090909,603,0,45,DL_Guitar,6,2,sinjyufujin_warm_ruriko_Stems,0.2659219205379486,0
54,100,0.1,751,0,45,DL_Guitar,6,2,sinjyufujin_warm_ruriko_Stems,0.35420653223991394,0
56,100,0.1590909090909091,96,1,46,DL_Guitar,6,3,sinjyufujin_warm_ruriko_Stems,0.9983164072036743,1
56,100,0.2,466,1,46,DL_Guitar,6,3,sinjyufujin_warm_ruriko_Stems,0.5445597767829895,0
58,100,0.1409090909090909,224,1,47,DL_Guitar,6,2,sinjyufujin_warm_ruriko_Stems,0.9990230798721313,1
61,100,0.18181818181818182,396,0,47,DL_Guitar,6,3,sinjyufujin_warm_ruriko_Stems,0.3666131794452667,0
58,100,0.1,593,0,47,DL_Guitar,6,2,sinjyufujin_warm_ruriko_Stems,0.4532906711101532,0
56,100,0.1590909090909091,260,1,48,DL_Guitar,6,3,sinjyufujin_warm_ruriko_Stems,0.9988419413566589,1
56,100,0.2818181818181818,518,1,48,DL_Guitar,6,5,sinjyufujin_warm_ruriko_Stems,0.1372489333152771,0
56,100,0.17727272727272728,633,0,48,DL_Guitar,6,3,sinjyufujin_warm_ruriko_Stems,0.15977680683135986,0
61,100,0.1409090909090909,694,0,48,DL_Guitar,6,2,sinjyufujin_warm_ruriko_Stems,0.18644945323467255,0
63,100,0.18181818181818182,770,0,48,DL_Guitar,6,3,sinjyufujin_warm_ruriko_Stems,0.2581627666950226,0
56,100,0.2590909090909091,260,1,49,DL_Guitar,6,4,sinjyufujin_warm_ruriko_Stems,0.9983164072036743,1
61,100,0.2590909090909091,633,1,49,DL_Guitar,6,4,sinjyufujin_warm_ruriko_Stems,0.5445578694343567,0
54,100,0.3409090909090909,188,1,50,DL_Guitar,6,5,sinjyufujin_warm_ruriko_Stems,0.9986500144004822,1
54,100,0.1590909090909091,405,0,50,DL_Guitar,6,3,sinjyufujin_warm_ruriko_Stems,0.08780395984649658,0
66,100,0.12272727272727273,444,0,50,DL_Guitar,6,2,sinjyufujin_warm_ruriko_Stems,0.09181728959083557,0
56,100,0.16363636363636364,509,0,50,DL_Guitar,6,3,sinjyufujin_warm_ruriko_Stems,0.10747978091239929,0
56,100,0.5227272727272727,751,1,50,DL_Guitar,6,8,sinjyufujin_warm_ruriko_Stems,0.12482991069555283,0
61,100,0.2590909090909091,875,0,50,DL_Guitar,6,4,sinjyufujin_warm_ruriko_Stems,0.17903558909893036,0
56,100,0.2590909090909091,56,1,51,DL_Guitar,6,4,sinjyufujin_warm_ruriko_Stems,0.9986500144004822,1
56,100,0.5181818181818182,308,1,51,DL_Guitar,6,8,sinjyufujin_warm_ruriko_Stems,0.08780395984649658,0
56,100,0.3,444,0,51,DL_Guitar,6,5,sinjyufujin_warm_ruriko_Stems,0.09181839972734451,0
56,100,0.4409090909090909,550,0,51,DL_Guitar,6,7,sinjyufujin_warm_ruriko_Stems,0.10748037695884705,0
56,100,0.38181818181818183,686,0,51,DL_Guitar,6,6,sinjyufujin_warm_ruriko_Stems,0.12483114749193192,0
56,100,0.4590909090909091,791,0,51,DL_Guitar,6,7,sinjyufujin_warm_ruriko_Stems,0.17903214693069458,0
56,100,0.4772727272727273,61,1,52,DL_Guitar,6,8,sinjyufujin_warm_ruriko_Stems,0.9990229606628418,1
56,100,0.18181818181818182,233,0,52,DL_Guitar,6,3,sinjyufujin_warm_ruriko_Stems,0.36662301421165466,0
54,100,0.3,311,0,52,DL_Guitar,6,5,sinjyufujin_warm_ruriko_Stems,0.4532924294471741,0
56,100,0.2,40,1,53,DL_Guitar,6,3,sinjyufujin_warm_ruriko_Stems,0.9986500144004822,1
56,100,0.18181818181818182,110,0,53,DL_Guitar,6,3,sinjyufujin_warm_ruriko_Stems,0.08780448883771896,0
56,100,0.2590909090909091,281,0,53,DL_Guitar,6,4,sinjyufujin_warm_ruriko_Stems,0.09181386232376099,0
63,100,0.11818181818181818,373,0,53,DL_Guitar,6,2,sinjyufujin_warm_ruriko_Stems,0.10747889429330826,0
56,100,0.16363636363636364,774,1,53,DL_Guitar,6,3,sinjyufujin_warm_ruriko_Stems,0.12482649087905884,0
56,100,0.22272727272727272,848,0,53,DL_Guitar,6,4,sinjyufujin_warm_ruriko_Stems,0.1790236383676529,0
61,100,0.2409090909090909,48,1,54,DL_Guitar,6,4,sinjyufujin_warm_ruriko_Stems,0.9988419413566589,1
56,100,0.2,110,0,54,DL_Guitar,6,3,sinjyufujin_warm_ruriko_Stems,0.13724593818187714,0
66,100,0.11818181818181818,703,1,54,DL_Guitar,6,2,sinjyufujin_warm_ruriko_Stems,0.15977664291858673,0
61,100,0.2,810,0,54,DL_Guitar,6,3,sinjyufujin_warm_ruriko_Stems,0.186441570520401,0
54,100,0.38181818181818183,861,0,54,DL_Guitar,6,6,sinjyufujin_warm_ruriko_Stems,0.2581671178340912,0
56,100,0.36363636363636365,818,1,55,DL_Guitar,6,6,sinjyufujin_warm_ruriko_Stems,0.9792561531066895,0
61,100,2.040909090909091,268,1,56,DL_Guitar,6,15,sinjyufujin_warm_ruriko_Stems,0.9983162879943848,1
61,100,0.5772727272727273,866,1,56,DL_Guitar,6,9,sinjyufujin_warm_ruriko_Stems,0.5445635914802551,0
56,100,0.21818181818181817,361,1,58,DL_Guitar,6,3,sinjyufujin_warm_ruriko_Stems,0.9983165264129639,1
61,100,1.759090909090909,550,0,58,DL_Guitar,6,15,sinjyufujin_warm_ruriko_Stems,0.5445464253425598,0
61,100,0.1590909090909091,215,1,59,DL_Guitar,6,3,sinjyufujin_warm_ruriko_Stems,0.9986500144004822,1
61,100,0.1409090909090909,373,0,59,DL_Guitar,6,2,sinjyufujin_warm_ruriko_Stems,0.08780495077371597,0
56,100,0.22272727272727272,541,0,59,DL_Guitar,6,4,sinjyufujin_warm_ruriko_Stems,0.09181378036737442,0
57,100,0.1590909090909091,726,0,59,DL_Guitar,6,3,sinjyufujin_warm_ruriko_Stems,0.1074800193309784,0
57,100,0.35909090909090907,783,0,59,DL_Guitar,6,6,sinjyufujin_warm_ruriko_Stems,0.12482672929763794,0
53,100,0.2,875,0,59,DL_Guitar,6,3,sinjyufujin_warm_ruriko_Stems,0.1790371835231781,0
57,100,0.2409090909090909,48,1,60,DL_Guitar,6,4,sinjyufujin_warm_ruriko_Stems,0.9990057349205017,1
61,100,0.23636363636363636,171,0,60,DL_Guitar,6,4,sinjyufujin_warm_ruriko_Stems,0.23121947050094604,0
61,100,1.1181818181818182,228,0,60,DL_Guitar,6,15,sinjyufujin_warm_ruriko_Stems,0.2659352421760559,0
61,100,2.2409090909090907,673,1,60,DL_Guitar,6,15,sinjyufujin_warm_ruriko_Stems,0.35419270396232605,0
61,100,0.5818181818181818,364,1,61,DL_Guitar,6,9,sinjyufujin_warm_ruriko_Stems,0.9983164072036743,1
61,100,0.3409090909090909,531,0,61,DL_Guitar,6,5,sinjyufujin_warm_ruriko_Stems,0.544556736946106,0
61,100,0.8818181818181818,461,1,62,DL_Guitar,6,14,sinjyufujin_warm_ruriko_Stems,0.9990229606628418,1
61,100,0.5,681,0,62,DL_Guitar,6,8,sinjyufujin_warm_ruriko_Stems,0.366622656583786,0
61,100,0.2636363636363636,796,0,62,DL_Guitar,6,4,sinjyufujin_warm_ruriko_Stems,0.45329320430755615,0
61,100,1.9636363636363636,48,1,63,DL_Guitar,6,15,sinjyufujin_warm_ruriko_Stems,0.9983164072036743,1
61,100,0.2409090909090909,576,1,63,DL_Guitar,6,4,sinjyufujin_warm_ruriko_Stems,0.5445659756660461,0
61,100,0.5409090909090909,440,1,64,DL_Guitar,6,9,sinjyufujin_warm_ruriko_Stems,0.9990230798721313,1
56,100,0.4,713,1,64,DL_Guitar,6,6,sinjyufujin_warm_ruriko_Stems,0.3666314482688904,0
56,100,0.2772727272727273,853,0,64,DL_Guitar,6,4,sinjyufujin_warm_ruriko_Stems,0.4532930552959442,0
53,100,0.9590909090909091,470,1,65,DL_Guitar,6,15,sinjyufujin_warm_ruriko_Stems,0.9983164072036743,1
54,100,0.1590909090909091,805,1,65,DL_Guitar,6,3,sinjyufujin_warm_ruriko_Stems,0.5445640087127686,0
54,100,0.11818181818181818,40,1,66,DL_Guitar,6,2,sinjyufujin_warm_ruriko_Stems,0.9988419413566589,1
54,100,0.3,106,0,66,DL_Guitar,6,5,sinjyufujin_warm_ruriko_Stems,0.13724574446678162,0
54,100,0.2590909090909091,273,0,66,DL_Guitar,6,4,sinjyufujin_warm_ruriko_Stems,0.15977607667446136,0
54,100,0.1409090909090909,404,0,66,DL_Guitar,6,2,sinjyufujin_warm_ruriko_Stems,0.18644799292087555,0
56,100,0.18181818181818182,729,1,66,DL_Guitar,6,3,sinjyufujin_warm_ruriko_Stems,0.25816258788108826,0
56,100,0.740909090909091,113,1,67,DL_Guitar,6,12,sinjyufujin_warm_ruriko_Stems,0.9990057349205017,1
63,100,0.2409090909090909,377,1,67,DL_Guitar,6,4,sinjyufujin_warm_ruriko_Stems,0.2312076836824417,0
56,100,0.22272727272727272,487,0,67,DL_Guitar,6,4,sinjyufujin_warm_ruriko_Stems,0.26592355966567993,0
65,100,0.1409090909090909,760,1,67,DL_Guitar,6,2,sinjyufujin_warm_ruriko_Stems,0.35420042276382446,0
54,100,0.4,163,1,68,DL_Guitar,6,6,sinjyufujin_warm_ruriko_Stems,0.9990057349205017,1
54,100,0.9590909090909091,263,0,68,DL_Guitar,6,15,sinjyufujin_warm_ruriko_Stems,0.2312053143978119,0
54,100,0.3,480,0,68,DL_Guitar,6,5,sinjyufujin_warm_ruriko_Stems,0.2659238278865814,0
54,100,0.11818181818181818,624,0,68,DL_Guitar,6,2,sinjyufujin_warm_ruriko_Stems,0.35419750213623047,0
53,100,0.18181818181818182,110,1,70,DL_Guitar,6,3,sinjyufujin_warm_ruriko_Stems,0.9986500144004822,1
53,100,0.4590909090909091,176,0,70,DL_Guitar,6,7,sinjyufujin_warm_ruriko_Stems,0.08780182152986526,0
53,100,0.2590909090909091,316,0,70,DL_Guitar,6,4,sinjyufujin_warm_ruriko_Stems,0.09181283414363861,0
54,100,0.2,633,1,70,DL_Guitar,6,3,sinjyufujin_warm_ruriko_Stems,0.10747972875833511,0
54,100,0.1409090909090909,760,0,70,DL_Guitar,6,2,sinjyufujin_warm_ruriko_Stems,0.12482456117868423,0
54,100,0.3,813,0,70,DL_Guitar,6,5,sinjyufujin_warm_ruriko_Stems,0.1790301501750946,0
56,100,0.7227272727272728,356,1,71,DL_Guitar,6,12,sinjyufujin_warm_ruriko_Stems,0.9983164072036743,1
56,100,0.2,800,1,71,DL_Guitar,6,3,sinjyufujin_warm_ruriko_Stems,0.5445612072944641,0
54,100,0.3181818181818182,0,1,73,DL_Guitar,6,5,sinjyufujin_warm_ruriko_Stems,0.9990057349205017,1
54,100,0.11818181818181818,83,0,73,DL_Guitar,6,2,sinjyufujin_warm_ruriko_Stems,0.23119866847991943,0
61,100,0.3,606,1,73,DL_Guitar,6,5,sinjyufujin_warm_ruriko_Stems,0.2659115195274353,0
61,100,0.18181818181818182,695,0,73,DL_Guitar,6,3,sinjyufujin_warm_ruriko_Stems,0.3541944622993469,0
65,100,0.1409090909090909,449,1,74,DL_Guitar,6,2,sinjyufujin_warm_ruriko_Stems,0.9990229606628418,1
61,100,0.4,506,0,74,DL_Guitar,6,6,sinjyufujin_warm_ruriko_Stems,0.3666219413280487,0
61,100,0.2409090909090909,783,1,74,DL_Guitar,6,4,sinjyufujin_warm_ruriko_Stems,0.45328253507614136,0
57,100,0.35909090909090907,140,1,75,DL_Guitar,6,6,sinjyufujin_warm_ruriko_Stems,0.9986500144004822,1
54,100,0.12272727272727273,255,0,75,DL_Guitar,6,2,sinjyufujin_warm_ruriko_Stems,0.08780499547719955,0
54,100,0.22272727272727272,422,0,75,DL_Guitar,6,4,sinjyufujin_warm_ruriko_Stems,0.09181343019008636,0
54,100,0.3,546,0,75,DL_Guitar,6,5,sinjyufujin_warm_ruriko_Stems,0.10747549682855606,0
61,100,0.1409090909090909,650,0,75,DL_Guitar,6,2,sinjyufujin_warm_ruriko_Stems,0.12482142448425293,0
61,100,0.17727272727272728,722,0,75,DL_Guitar,6,3,sinjyufujin_warm_ruriko_Stems,0.17902956902980804,0
56,100,0.11818181818181818,0,1,76,DL_Guitar,6,2,sinjyufujin_warm_ruriko_Stems,0.9984880685806274,1
53,100,1.1,100,0,76,DL_Guitar,6,15,sinjyufujin_warm_ruriko_Stems,0.06334291398525238,0
60,100,0.4772727272727273,370,1,76,DL_Guitar,6,8,sinjyufujin_warm_ruriko_Stems,0.05774253234267235,0
57,100,0.12272727272727273,509,0,76,DL_Guitar,6,2,sinjyufujin_warm_ruriko_Stems,0.06020033732056618,0
63,100,0.1,550,0,76,DL_Guitar,6,2,sinjyufujin_warm_ruriko_Stems,0.06970146298408508,0
61,100,0.3181818181818182,770,0,76,DL_Guitar,6,5,sinjyufujin_warm_ruriko_Stems,0.08189602941274643,0
60,100,0.2409090909090909,839,0,76,DL_Guitar,6,4,sinjyufujin_warm_ruriko_Stems,0.12402333319187164,0
56,100,0.3409090909090909,110,1,77,DL_Guitar,6,5,sinjyufujin_warm_ruriko_Stems,0.9984880685806274,1
61,100,0.2,356,1,77,DL_Guitar,6,3,sinjyufujin_warm_ruriko_Stems,0.0633440911769867,0
54,100,0.1590909090909091,413,0,77,DL_Guitar,6,3,sinjyufujin_warm_ruriko_Stems,0.0577416829764843,0
54,100,0.1,466,0,77,DL_Guitar,6,2,sinjyufujin_warm_ruriko_Stems,0.06020238995552063,0
54,100,0.3409090909090909,514,0,77,DL_Guitar,6,5,sinjyufujin_warm_ruriko_Stems,0.06970170140266418,0
61,100,0.17727272727272728,603,0,77,DL_Guitar,6,3,sinjyufujin_warm_ruriko_Stems,0.08189143985509872,0
61,100,0.21818181818181817,779,0,77,DL_Guitar,6,3,sinjyufujin_warm_ruriko_Stems,0.12402208894491196,0
61,100,0.9181818181818182,119,1,78,DL_Guitar,6,15,sinjyufujin_warm_ruriko_Stems,0.9983164072036743,1
56,100,0.12272727272727273,466,1,78,DL_Guitar,6,2,sinjyufujin_warm_ruriko_Stems,0.5445569753646851,0
61,100,0.2818181818181818,333,1,79,DL_Guitar,6,5,sinjyufujin_warm_ruriko_Stems,0.9988419413566589,1
61,100,0.16363636363636364,399,0,79,DL_Guitar,6,3,sinjyufujin_warm_ruriko_Stems,0.13724608719348907,0
54,100,0.3181818181818182,449,0,79,DL_Guitar,6,5,sinjyufujin_warm_ruriko_Stems,0.15977349877357483,0
54,100,0.11818181818181818,580,0,79,DL_Guitar,6,2,sinjyufujin_warm_ruriko_Stems,0.18644531071186066,0
54,100,0.1,624,0,79,DL_Guitar,6,2,sinjyufujin_warm_ruriko_Stems,0.2581620216369629,0
54,100,0.35909090909090907,9,1,80,DL_Guitar,6,6,sinjyufujin_warm_ruriko_Stems,0.9990057349205017,1
54,100,0.21818181818181817,153,0,80,DL_Guitar,6,3,sinjyufujin_warm_ruriko_Stems,0.2312004715204239,0
61,100,0.13636363636363635,436,1,80,DL_Guitar,6,2,sinjyufujin_warm_ruriko_Stems,0.26591596007347107,0
63,100,0.32272727272727275,606,0,80,DL_Guitar,6,5,sinjyufujin_warm_ruriko_Stems,0.3541957437992096,0
56,100,0.2409090909090909,307,1,81,DL_Guitar,6,4,sinjyufujin_warm_ruriko_Stems,0.9990229606628418,1
56,100,0.1,553,1,81,DL_Guitar,6,2,sinjyufujin_warm_ruriko_Stems,0.36663106083869934,0
56,100,0.33636363636363636,590,0,81,DL_Guitar,6,5,sinjyufujin_warm_ruriko_Stems,0.45327889919281006,0
54,100,0.1409090909090909,47,1,84,DL_Guitar,6,2,sinjyufujin_warm_ruriko_Stems,0.9983165264129639,1
54,100,0.22272727272727272,136,0,84,DL_Guitar,6,4,sinjyufujin_warm_ruriko_Stems,0.5445550084114075,0
56,100,0.1,153,1,85,DL_Guitar,6,2,sinjyufujin_warm_ruriko_Stems,0.979255735874176,0
59,100,0.2,443,1,86,DL_Guitar,6,3,sinjyufujin_warm_ruriko_Stems,0.9990230798721313,1
55,100,0.1409090909090909,572,0,86,DL_Guitar,6,2,sinjyufujin_warm_ruriko_Stems,0.366624653339386,0
57,100,0.36363636363636365,796,0,86,DL_Guitar,6,6,sinjyufujin_warm_ruriko_Stems,0.45329058170318604,0
57,100,0.42272727272727273,136,1,87,DL_Guitar,6,7,sinjyufujin_warm_ruriko_Stems,0.9990229606628418,1
57,100,0.1,413,1,87,DL_Guitar,6,2,sinjyufujin_warm_ruriko_Stems,0.36663326621055603,0
57,100,0.16363636363636364,443,0,87,DL_Guitar,6,3,sinjyufujin_warm_ruriko_Stems,0.45330214500427246,0
59,100,0.2590909090909091,373,1,88,DL_Guitar,6,4,sinjyufujin_warm_ruriko_Stems,0.9990229606628418,1
55,100,0.18181818181818182,550,0,88,DL_Guitar,6,3,sinjyufujin_warm_ruriko_Stems,0.3666200041770935,0
62,100,0.2818181818181818,637,0,88,DL_Guitar,6,5,sinjyufujin_warm_ruriko_Stems,0.4532896876335144,0
57,100,0.9409090909090909,110,1,89,DL_Guitar,6,15,sinjyufujin_warm_ruriko_Stems,0.9990057349205017,1
57,100,0.6818181818181818,619,1,89,DL_Guitar,6,11,sinjyufujin_warm_ruriko_Stems,0.23120465874671936,0
57,100,0.16363636363636364,773,0,89,DL_Guitar,6,3,sinjyufujin_warm_ruriko_Stems,0.2659214735031128,0
57,100,0.1,866,0,89,DL_Guitar,6,2,sinjyufujin_warm_ruriko_Stems,0.3541989326477051,0
57,100,0.21818181818181817,53,1,90,DL_Guitar,6,3,sinjyufujin_warm_ruriko_Stems,0.9988419413566589,1
62,100,0.2409090909090909,157,0,90,DL_Guitar,6,4,sinjyufujin_warm_ruriko_Stems,0.13725000619888306,0
57,100,0.1590909090909091,294,0,90,DL_Guitar,6,3,sinjyufujin_warm_ruriko_Stems,0.15977805852890015,0
57,100,0.1,540,1,90,DL_Guitar,6,2,sinjyufujin_warm_ruriko_Stems,0.18645748496055603,0
55,100,0.41818181818181815,779,1,90,DL_Guitar,6,7,sinjyufujin_warm_ruriko_Stems,0.2581707239151001,0
61,100,0.759090909090909,347,1,91,DL_Guitar,6,12,sinjyufujin_warm_ruriko_Stems,0.9983164072036743,1
54,100,0.9409090909090909,836,1,91,DL_Guitar,6,15,sinjyufujin_warm_ruriko_Stems,0.5445617437362671,0
54,100,0.6818181818181818,255,1,92,DL_Guitar,6,11,sinjyufujin_warm_ruriko_Stems,0.9984880685806274,1
62,100,0.12272727272727273,430,0,92,DL_Guitar,6,2,sinjyufujin_warm_ruriko_Stems,0.06334517896175385,0
54,100,0.3,466,0,92,DL_Guitar,6,5,sinjyufujin_warm_ruriko_Stems,0.05774465203285217,0
59,100,0.1409090909090909,536,0,92,DL_Guitar,6,2,sinjyufujin_warm_ruriko_Stems,0.060204099863767624,0
54,100,0.1,612,0,92,DL_Guitar,6,2,sinjyufujin_warm_ruriko_Stems,0.06970398128032684,0
54,100,0.1590909090909091,656,0,92,DL_Guitar,6,3,sinjyufujin_warm_ruriko_Stems,0.08189743012189865,0
66,100,0.1,826,0,92,DL_Guitar,6,2,sinjyufujin_warm_ruriko_Stems,0.12402461469173431,0
55,100,0.2409090909090909,453,1,93,DL_Guitar,6,4,sinjyufujin_warm_ruriko_Stems,0.9990229606628418,1
57,100,0.21818181818181817,603,0,93,DL_Guitar,6,3,sinjyufujin_warm_ruriko_Stems,0.3666183352470398,0
57,100,0.11818181818181818,713,0,93,DL_Guitar,6,2,sinjyufujin_warm_ruriko_Stems,0.453298419713974,0
54,100,0.2590909090909091,210,1,94,DL_Guitar,6,4,sinjyufujin_warm_ruriko_Stems,0.9986500144004822,1
59,100,0.18181818181818182,276,0,94,DL_Guitar,6,3,sinjyufujin_warm_ruriko_Stems,0.0878019705414772,0
54,100,0.2409090909090909,320,0,94,DL_Guitar,6,4,sinjyufujin_warm_ruriko_Stems,0.09181465953588486,0
59,100,0.1,457,0,94,DL_Guitar,6,2,sinjyufujin_warm_ruriko_Stems,0.1074792742729187,0
54,100,0.2818181818181818,637,0,94,DL_Guitar,6,5,sinjyufujin_warm_ruriko_Stems,0.12482354789972305,0
54,100,0.2818181818181818,826,0,94,DL_Guitar,6,5,sinjyufujin_warm_ruriko_Stems,0.17903508245944977,0
59,100,0.4409090909090909,197,1,95,DL_Guitar,6,7,sinjyufujin_warm_ruriko_Stems,0.9983164072036743,1
59,100,0.42272727272727273,826,1,95,DL_Guitar,6,7,sinjyufujin_warm_ruriko_Stems,0.544557511806488,0
57,100,0.2818181818181818,110,1,96,DL_Guitar,6,5,sinjyufujin_warm_ruriko_Stems,0.9990230798721313,1
57,100,0.1,179,0,96,DL_Guitar,6,2,sinjyufujin_warm_ruriko_Stems,0.36662986874580383,0
57,100,0.4590909090909091,206,0,96,DL_Guitar,6,7,sinjyufujin_warm_ruriko_Stems,0.45328909158706665,0
57,100,0.17727272727272728,492,1,0,DL_Guitar,6,3,umon_taturo_upbeat,0.9792558550834656,0
69,100,0.33636363636363636,39,1,1,DL_Guitar,6,5,umon_taturo_upbeat,0.9986500144004822,1
52,100,0.7,166,0,1,DL_Guitar,6,11,umon_taturo_upbeat,0.08780377358198166,0
52,100,0.1,351,0,1,DL_Guitar,6,2,umon_taturo_upbeat,0.09181481599807739,0
59,100,0.1409090909090909,449,0,1,DL_Guitar,6,2,umon_taturo_upbeat,0.1074802353978157,0
52,100,0.11818181818181818,638,0,1,DL_Guitar,6,2,umon_taturo_upbeat,0.1248302087187767,0
54,100,0.4409090909090909,796,0,1,DL_Guitar,6,7,umon_taturo_upbeat,0.17903737723827362,0
59,100,0.2,12,1,2,DL_Guitar,6,3,umon_taturo_upbeat,0.9990230798721313,1
54,100,0.3409090909090909,421,1,2,DL_Guitar,6,5,umon_taturo_upbeat,0.36662688851356506,0
57,100,0.33636363636363636,501,0,2,DL_Guitar,6,5,umon_taturo_upbeat,0.4532873332500458,0
57,100,0.1409090909090909,70,1,3,DL_Guitar,6,2,umon_taturo_upbeat,0.9990057349205017,1
69,100,0.2772727272727273,295,0,3,DL_Guitar,6,4,umon_taturo_upbeat,0.2311982363462448,0
59,100,0.3,550,1,3,DL_Guitar,6,5,umon_taturo_upbeat,0.26591798663139343,0
64,100,0.2818181818181818,629,0,3,DL_Guitar,6,5,umon_taturo_upbeat,0.3541994094848633,0
61,100,0.2590909090909091,255,1,4,DL_Guitar,6,4,umon_taturo_upbeat,0.9983164072036743,1
64,100,0.3,871,1,4,DL_Guitar,6,5,umon_taturo_upbeat,0.5445638298988342,0
52,100,0.3,56,1,5,DL_Guitar,6,5,umon_taturo_upbeat,0.9990057349205017,1
69,100,0.11818181818181818,514,1,5,DL_Guitar,6,2,umon_taturo_upbeat,0.23119935393333435,0
52,100,0.5772727272727273,678,0,5,DL_Guitar,6,9,umon_taturo_upbeat,0.2659159004688263,0
52,100,0.2636363636363636,862,0,5,DL_Guitar,6,4,umon_taturo_upbeat,0.3541988432407379,0
64,100,0.1,79,1,6,DL_Guitar,6,2,umon_taturo_upbeat,0.9990057349205017,1
52,100,0.8,105,0,6,DL_Guitar,6,13,umon_taturo_upbeat,0.23120075464248657,0
54,100,0.43636363636363634,414,1,6,DL_Guitar,6,7,umon_taturo_upbeat,0.26592525839805603,0
59,100,0.2409090909090909,514,0,6,DL_Guitar,6,4,umon_taturo_upbeat,0.3541974723339081,0
54,100,0.1409090909090909,87,1,7,DL_Guitar,6,2,umon_taturo_upbeat,0.9990230798721313,1
57,100,0.32272727272727275,122,0,7,DL_Guitar,6,5,umon_taturo_upbeat,0.36661195755004883,0
54,100,0.1409090909090909,317,0,7,DL_Guitar,6,2,umon_taturo_upbeat,0.4532892107963562,0
59,100,0.1,34,1,8,DL_Guitar,6,2,umon_taturo_upbeat,0.9984880685806274,1
52,100,0.1,127,0,8,DL_Guitar,6,2,umon_taturo_upbeat,0.0633450374007225,0
59,100,0.37727272727272726,347,0,8,DL_Guitar,6,6,umon_taturo_upbeat,0.057742640376091,0
54,100,0.3409090909090909,448,0,8,DL_Guitar,6,5,umon_taturo_upbeat,0.06020301952958107,0
52,100,0.38181818181818183,673,0,8,DL_Guitar,6,6,umon_taturo_upbeat,0.06970254331827164,0
57,100,0.3,766,0,8,DL_Guitar,6,5,umon_taturo_upbeat,0.08189433068037033,0
52,100,0.1,840,0,8,DL_Guitar,6,2,umon_taturo_upbeat,0.12402596324682236,0
57,100,0.21818181818181817,0,1,9,DL_Guitar,6,3,umon_taturo_upbeat,0.9984880685806274,1
61,100,0.23636363636363636,106,0,9,DL_Guitar,6,4,umon_taturo_upbeat,0.06334524601697922,0
57,100,0.2590909090909091,163,0,9,DL_Guitar,6,4,umon_taturo_upbeat,0.05774178355932236,0
61,100,0.2772727272727273,405,1,9,DL_Guitar,6,4,umon_taturo_upbeat,0.06020360067486763,0
57,100,0.11818181818181818,484,0,9,DL_Guitar,6,2,umon_taturo_upbeat,0.06970424205064774,0
57,100,0.1409090909090909,515,0,9,DL_Guitar,6,2,umon_taturo_upbeat,0.08189857751131058,0
52,100,0.23636363636363636,809,1,9,DL_Guitar,6,4,umon_taturo_upbeat,0.12402860075235367,0
52,100,0.2409090909090909,113,1,10,DL_Guitar,6,4,umon_taturo_upbeat,0.9984880685806274,1
52,100,0.2409090909090909,299,0,10,DL_Guitar,6,4,umon_taturo_upbeat,0.06334541738033295,0
64,100,0.1,400,0,10,DL_Guitar,6,2,umon_taturo_upbeat,0.057743754237890244,0
59,100,0.32272727272727275,431,0,10,DL_Guitar,6,5,umon_taturo_upbeat,0.06020278483629227,0
52,100,0.1590909090909091,611,0,10,DL_Guitar,6,3,umon_taturo_upbeat,0.0697028711438179,0
52,100,0.43636363636363634,656,0,10,DL_Guitar,6,7,umon_taturo_upbeat,0.08189657330513,0
52,100,0.4409090909090909,795,0,10,DL_Guitar,6,7,umon_taturo_upbeat,0.1240229532122612,0
52,100,0.11818181818181818,264,1,11,DL_Guitar,6,2,umon_taturo_upbeat,0.9792565107345581,0
66,100,0.17727272727272728,185,1,12,DL_Guitar,6,3,umon_taturo_upbeat,0.9990230798721313,1
52,100,0.1,572,1,12,DL_Guitar,6,2,umon_taturo_upbeat,0.36663028597831726,0
68,100,0.2590909090909091,756,0,12,DL_Guitar,6,4,umon_taturo_upbeat,0.4532914459705353,0
54,100,0.2590909090909091,189,1,13,DL_Guitar,6,4,umon_taturo_upbeat,0.9983165264129639,1
54,100,0.1,691,1,13,DL_Guitar,6,2,umon_taturo_upbeat,0.5445574522018433,0
64,100,0.11818181818181818,457,1,14,DL_Guitar,6,2,umon_taturo_upbeat,0.9988419413566589,1
71,100,0.18181818181818182,496,0,14,DL_Guitar,6,3,umon_taturo_upbeat,0.13724534213542938,0
72,100,0.16363636363636364,553,0,14,DL_Guitar,6,3,umon_taturo_upbeat,0.1597786247730255,0
68,100,0.11818181818181818,625,0,14,DL_Guitar,6,2,umon_taturo_upbeat,0.18644438683986664,0
64,100,0.2590909090909091,871,1,14,DL_Guitar,6,4,umon_taturo_upbeat,0.2581673264503479,0
54,100,0.1,694,1,15,DL_Guitar,6,2,umon_taturo_upbeat,0.9983165264129639,1
55,100,0.1,747,0,15,DL_Guitar,6,2,umon_taturo_upbeat,0.5445510745048523,0
52,100,0.2,52,1,16,DL_Guitar,6,3,umon_taturo_upbeat,0.9990229606628418,1
52,100,0.35909090909090907,100,0,16,DL_Guitar,6,6,umon_taturo_upbeat,0.3666231632232666,0
52,100,0.1409090909090909,638,1,16,DL_Guitar,6,2,umon_taturo_upbeat,0.45329591631889343,0
52,100,0.2,193,1,17,DL_Guitar,6,3,umon_taturo_upbeat,0.9990229606628418,1
52,100,0.2409090909090909,250,0,17,DL_Guitar,6,4,umon_taturo_upbeat,0.36662107706069946,0
55,100,0.16363636363636364,443,0,17,DL_Guitar,6,3,umon_taturo_upbeat,0.4532933235168457,0
55,100,0.1,492,1,18,DL_Guitar,6,2,umon_taturo_upbeat,0.979256272315979,0
57,100,0.2590909090909091,430,1,19,DL_Guitar,6,4,umon_taturo_upbeat,0.9990057349205017,1
52,100,0.2636363636363636,488,0,19,DL_Guitar,6,4,umon_taturo_upbeat,0.23120519518852234,0
64,100,0.1,677,0,19,DL_Guitar,6,2,umon_taturo_upbeat,0.2659207284450531,0
64,100,0.2,704,0,19,DL_Guitar,6,3,umon_taturo_upbeat,0.35420486330986023,0
54,100,1.0818181818181818,57,1,20,DL_Guitar,6,15,umon_taturo_upbeat,0.9988419413566589,1
54,100,0.17727272727272728,382,1,20,DL_Guitar,6,3,umon_taturo_upbeat,0.13725189864635468,0
54,100,0.1409090909090909,426,0,20,DL_Guitar,6,2,umon_taturo_upbeat,0.15978197753429413,0
57,100,0.2636363636363636,686,1,20,DL_Guitar,6,4,umon_taturo_upbeat,0.18644839525222778,0
57,100,0.18181818181818182,760,0,20,DL_Guitar,6,3,umon_taturo_upbeat,0.25816890597343445,0
57,100,0.23636363636363636,106,1,21,DL_Guitar,6,4,umon_taturo_upbeat,0.9988419413566589,1
57,100,0.1,179,0,21,DL_Guitar,6,2,umon_taturo_upbeat,0.13724848628044128,0
57,100,0.38181818181818183,285,0,21,DL_Guitar,6,6,umon_taturo_upbeat,0.15977893769741058,0
61,100,0.21818181818181817,505,0,21,DL_Guitar,6,3,umon_taturo_upbeat,0.18645094335079193,0
57,100,0.11818181818181818,590,0,21,DL_Guitar,6,2,umon_taturo_upbeat,0.2581683099269867,0
54,100,1.0772727272727274,326,1,22,DL_Guitar,6,15,umon_taturo_upbeat,0.9990229606628418,1
54,100,0.2818181818181818,694,1,22,DL_Guitar,6,5,umon_taturo_upbeat,0.36662864685058594,0
62,100,0.1409090909090909,791,0,22,DL_Guitar,6,2,umon_taturo_upbeat,0.45328518748283386,0
57,100,0.1,206,1,23,DL_Guitar,6,2,umon_taturo_upbeat,0.9988419413566589,1
57,100,0.35909090909090907,299,0,23,DL_Guitar,6,6,umon_taturo_upbeat,0.1372493952512741,0
57,100,0.1590909090909091,382,0,23,DL_Guitar,6,3,umon_taturo_upbeat,0.15977956354618073,0
52,100,0.6,546,0,23,DL_Guitar,6,10,umon_taturo_upbeat,0.18644975125789642,0
52,100,0.12272727272727273,717,0,23,DL_Guitar,6,2,umon_taturo_upbeat,0.25816744565963745,0
64,100,0.1409090909090909,9,1,24,DL_Guitar,6,2,umon_taturo_upbeat,0.9983736276626587,1
54,100,0.4,48,0,24,DL_Guitar,6,6,umon_taturo_upbeat,0.051061246544122696,0
54,100,0.2409090909090909,189,0,24,DL_Guitar,6,4,umon_taturo_upbeat,0.0413038469851017,0
52,100,0.2590909090909091,308,0,24,DL_Guitar,6,4,umon_taturo_upbeat,0.037387385964393616,0
68,100,0.1590909090909091,461,0,24,DL_Guitar,6,3,umon_taturo_upbeat,0.03833058476448059,0
54,100,0.1409090909090909,515,0,24,DL_Guitar,6,2,umon_taturo_upbeat,0.044754508882761,0
54,100,0.7772727272727272,567,0,24,DL_Guitar,6,12,umon_taturo_upbeat,0.055230602622032166,0
54,100,0.21818181818181817,748,0,24,DL_Guitar,6,3,umon_taturo_upbeat,0.0902671292424202,0
54,100,0.11818181818181818,52,1,25,DL_Guitar,6,2,umon_taturo_upbeat,0.9986500144004822,1
54,100,0.11818181818181818,131,0,25,DL_Guitar,6,2,umon_taturo_upbeat,0.08780348300933838,0
62,100,0.2409090909090909,316,0,25,DL_Guitar,6,4,umon_taturo_upbeat,0.09181258827447891,0
62,100,0.2818181818181818,374,0,25,DL_Guitar,6,5,umon_taturo_upbeat,0.10747959464788437,0
57,100,0.11818181818181818,677,1,25,DL_Guitar,6,2,umon_taturo_upbeat,0.12483231723308563,0
61,100,0.1409090909090909,818,0,25,DL_Guitar,6,2,umon_taturo_upbeat,0.17904247343540192,0
57,100,0.5363636363636364,61,1,26,DL_Guitar,6,9,umon_taturo_upbeat,0.9990057349205017,1
52,100,0.35909090909090907,409,1,26,DL_Guitar,6,6,umon_taturo_upbeat,0.23120233416557312,0
52,100,0.1590909090909091,515,0,26,DL_Guitar,6,3,umon_taturo_upbeat,0.26592186093330383,0
52,100,0.5227272727272727,686,0,26,DL_Guitar,6,8,umon_taturo_upbeat,0.35419803857803345,0
54,100,0.1409090909090909,57,1,27,DL_Guitar,6,2,umon_taturo_upbeat,0.9990057349205017,1
62,100,0.1409090909090909,625,1,27,DL_Guitar,6,2,umon_taturo_upbeat,0.23120638728141785,0
62,100,0.12272727272727273,739,0,27,DL_Guitar,6,2,umon_taturo_upbeat,0.2659299373626709,0
57,100,0.2590909090909091,814,0,27,DL_Guitar,6,4,umon_taturo_upbeat,0.35420241951942444,0
52,100,0.8,52,1,28,DL_Guitar,6,13,umon_taturo_upbeat,0.9990229606628418,1
52,100,0.42272727272727273,443,1,28,DL_Guitar,6,7,umon_taturo_upbeat,0.3666316270828247,0
52,100,0.5409090909090909,686,1,28,DL_Guitar,6,9,umon_taturo_upbeat,0.4532943069934845,0
52,100,0.3,13,1,29,DL_Guitar,6,5,umon_taturo_upbeat,0.9990229606628418,1
52,100,0.1590909090909091,83,0,29,DL_Guitar,6,3,umon_taturo_upbeat,0.3666195273399353,0
64,100,0.2,119,0,29,DL_Guitar,6,3,umon_taturo_upbeat,0.4532949924468994,0
57,100,0.4818181818181818,320,1,30,DL_Guitar,6,8,umon_taturo_upbeat,0.9984880685806274,1
57,100,0.38181818181818183,440,0,30,DL_Guitar,6,6,umon_taturo_upbeat,0.06334623694419861,0
69,100,0.1409090909090909,694,1,30,DL_Guitar,6,2,umon_taturo_upbeat,0.05774426832795143,0
69,100,0.11818181818181818,735,0,30,DL_Guitar,6,2,umon_taturo_upbeat,0.06020444631576538,0
57,100,0.1590909090909091,770,0,30,DL_Guitar,6,3,umon_taturo_upbeat,0.06970705837011337,0
69,100,0.1,804,0,30,DL_Guitar,6,2,umon_taturo_upbeat,0.08189886808395386,0
57,100,0.8409090909090909,866,0,30,DL_Guitar,6,13,umon_taturo_upbeat,0.12402664870023727,0
57,100,0.5181818181818182,185,1,31,DL_Guitar,6,8,umon_taturo_upbeat,0.9984880685806274,1
57,100,0.5409090909090909,308,0,31,DL_Guitar,6,9,umon_taturo_upbeat,0.06334519386291504,0
52,100,0.18181818181818182,453,0,31,DL_Guitar,6,3,umon_taturo_upbeat,0.05774331092834473,0
52,100,0.13636363636363635,523,0,31,DL_Guitar,6,2,umon_taturo_upbeat,0.06020355224609375,0
59,100,0.35909090909090907,571,0,31,DL_Guitar,6,6,umon_taturo_upbeat,0.06970615684986115,0
59,100,0.2590909090909091,700,0,31,DL_Guitar,6,4,umon_taturo_upbeat,0.08190083503723145,0
52,100,0.1,822,0,31,DL_Guitar,6,2,umon_taturo_upbeat,0.12402836978435516,0
59,100,0.5,188,1,32,DL_Guitar,6,8,umon_taturo_upbeat,0.9986500144004822,1
54,100,0.1590909090909091,426,1,32,DL_Guitar,6,3,umon_taturo_upbeat,0.08780407905578613,0
54,100,0.2636363636363636,488,0,32,DL_Guitar,6,4,umon_taturo_upbeat,0.09181438386440277,0
59,100,0.1,593,0,32,DL_Guitar,6,2,umon_taturo_upbeat,0.10747790336608887,0
54,100,0.3409090909090909,691,0,32,DL_Guitar,6,5,umon_taturo_upbeat,0.12482783198356628,0
59,100,0.4772727272727273,831,0,32,DL_Guitar,6,8,umon_taturo_upbeat,0.17903214693069458,0
57,100,0.2409090909090909,118,1,33,DL_Guitar,6,4,umon_taturo_upbeat,0.9988419413566589,1
52,100,0.5181818181818182,308,0,33,DL_Guitar,6,8,umon_taturo_upbeat,0.13725030422210693,0
52,100,0.1590909090909091,453,0,33,DL_Guitar,6,3,umon_taturo_upbeat,0.15978172421455383,0
52,100,0.2,571,0,33,DL_Guitar,6,3,umon_taturo_upbeat,0.18645742535591125,0
69,100,0.12272727272727273,818,1,33,DL_Guitar,6,2,umon_taturo_upbeat,0.2581804096698761,0
69,100,0.2,69,1,34,DL_Guitar,6,3,umon_taturo_upbeat,0.9986500144004822,1
57,100,0.2,188,0,34,DL_Guitar,6,3,umon_taturo_upbeat,0.08780728280544281,0
57,100,0.22272727272727272,254,0,34,DL_Guitar,6,4,umon_taturo_upbeat,0.09181831777095795,0
52,100,0.2,480,0,34,DL_Guitar,6,3,umon_taturo_upbeat,0.10748817771673203,0
69,100,0.3,616,0,34,DL_Guitar,6,5,umon_taturo_upbeat,0.12483277916908264,0
57,100,1.0818181818181818,818,0,34,DL_Guitar,6,15,umon_taturo_upbeat,0.1790475696325302,0
57,100,0.5590909090909091,298,1,35,DL_Guitar,6,9,umon_taturo_upbeat,0.9988419413566589,1
52,100,0.3,488,0,35,DL_Guitar,6,5,umon_taturo_upbeat,0.13724899291992188,0
52,100,0.5772727272727273,558,0,35,DL_Guitar,6,9,umon_taturo_upbeat,0.15977443754673004,0
59,100,0.3181818181818182,735,0,35,DL_Guitar,6,5,umon_taturo_upbeat,0.18644946813583374,0
52,100,0.1409090909090909,826,0,35,DL_Guitar,6,2,umon_taturo_upbeat,0.2581709921360016,0
57,100,0.22272727272727272,4,1,36,DL_Guitar,6,4,umon_taturo_upbeat,0.9983736276626587,1
53,100,0.4818181818181818,66,0,36,DL_Guitar,6,8,umon_taturo_upbeat,0.05106085538864136,0
53,100,0.5409090909090909,179,0,36,DL_Guitar,6,9,umon_taturo_upbeat,0.04130256175994873,0
59,100,0.1590909090909091,325,0,36,DL_Guitar,6,3,umon_taturo_upbeat,0.03738539293408394,0
53,100,0.37727272727272726,435,0,36,DL_Guitar,6,6,umon_taturo_upbeat,0.038328491151332855,0
54,100,0.42272727272727273,554,0,36,DL_Guitar,6,7,umon_taturo_upbeat,0.04475032910704613,0
54,100,0.1409090909090909,813,1,36,DL_Guitar,6,2,umon_taturo_upbeat,0.05522867292165756,0
54,100,0.5409090909090909,871,0,36,DL_Guitar,6,9,umon_taturo_upbeat,0.09026192128658295,0
54,100,0.5409090909090909,179,1,37,DL_Guitar,6,9,umon_taturo_upbeat,0.9986500144004822,1
54,100,0.5,311,0,37,DL_Guitar,6,8,umon_taturo_upbeat,0.08780185878276825,0
59,100,0.13636363636363635,523,0,37,DL_Guitar,6,2,umon_taturo_upbeat,0.09181179851293564,0
59,100,0.1409090909090909,584,0,37,DL_Guitar,6,2,umon_taturo_upbeat,0.10748037695884705,0
57,100,0.22272727272727272,628,0,37,DL_Guitar,6,4,umon_taturo_upbeat,0.12482646107673645,0
59,100,0.2,708,0,37,DL_Guitar,6,3,umon_taturo_upbeat,0.17903879284858704,0
59,100,0.2818181818181818,48,1,38,DL_Guitar,6,5,umon_taturo_upbeat,0.9988419413566589,1
59,100,0.2,198,0,38,DL_Guitar,6,3,umon_taturo_upbeat,0.13725237548351288,0
57,100,0.1590909090909091,260,0,38,DL_Guitar,6,3,umon_taturo_upbeat,0.1597783863544464,0
57,100,0.1590909090909091,571,1,38,DL_Guitar,6,3,umon_taturo_upbeat,0.18645450472831726,0
69,100,0.3,606,0,38,DL_Guitar,6,5,umon_taturo_upbeat,0.25817811489105225,0
62,100,0.2,461,1,39,DL_Guitar,6,3,umon_taturo_upbeat,0.9983165264129639,1
57,100,0.5590909090909091,804,1,39,DL_Guitar,6,9,umon_taturo_upbeat,0.544562041759491,0
52,100,0.8772727272727273,75,1,40,DL_Guitar,6,14,umon_taturo_upbeat,0.9988419413566589,1
52,100,0.13636363636363635,413,1,40,DL_Guitar,6,2,umon_taturo_upbeat,0.1372501403093338,0
52,100,0.17727272727272728,448,0,40,DL_Guitar,6,3,umon_taturo_upbeat,0.1597813218832016,0
65,100,0.2772727272727273,603,0,40,DL_Guitar,6,4,umon_taturo_upbeat,0.1864500492811203,0
53,100,0.6,681,0,40,DL_Guitar,6,10,umon_taturo_upbeat,0.2581713795661926,0
53,100,0.2636363636363636,48,1,41,DL_Guitar,6,4,umon_taturo_upbeat,0.9983736276626587,1
59,100,0.18181818181818182,224,0,41,DL_Guitar,6,3,umon_taturo_upbeat,0.05106210336089134,0
54,100,0.4772727272727273,316,0,41,DL_Guitar,6,8,umon_taturo_upbeat,0.041302889585494995,0
59,100,0.2590909090909091,435,0,41,DL_Guitar,6,4,umon_taturo_upbeat,0.03738625347614288,0
54,100,0.3,501,0,41,DL_Guitar,6,5,umon_taturo_upbeat,0.038328949362039566,0
54,100,0.2409090909090909,576,0,41,DL_Guitar,6,4,umon_taturo_upbeat,0.04475187882781029,0
54,100,0.2772727272727273,678,0,41,DL_Guitar,6,4,umon_taturo_upbeat,0.05522731691598892,0
54,100,0.4590909090909091,813,0,41,DL_Guitar,6,7,umon_taturo_upbeat,0.09026505053043365,0
59,100,0.2409090909090909,66,1,42,DL_Guitar,6,4,umon_taturo_upbeat,0.9984880685806274,1
62,100,0.2,128,0,42,DL_Guitar,6,3,umon_taturo_upbeat,0.0633459985256195,0
57,100,0.2,254,0,42,DL_Guitar,6,3,umon_taturo_upbeat,0.05774357169866562,0
52,100,0.4818181818181818,321,0,42,DL_Guitar,6,8,umon_taturo_upbeat,0.06020476296544075,0
59,100,0.2818181818181818,616,1,42,DL_Guitar,6,5,umon_taturo_upbeat,0.06970470398664474,0
52,100,0.16363636363636364,708,0,42,DL_Guitar,6,3,umon_taturo_upbeat,0.08189943432807922,0
52,100,0.11818181818181818,831,0,42,DL_Guitar,6,2,umon_taturo_upbeat,0.12402486056089401,0
57,100,0.2818181818181818,48,1,43,DL_Guitar,6,5,umon_taturo_upbeat,0.9990229606628418,1
69,100,0.3181818181818182,743,1,43,DL_Guitar,6,5,umon_taturo_upbeat,0.3666335642337799,0
57,100,0.5181818181818182,813,0,43,DL_Guitar,6,8,umon_taturo_upbeat,0.4532991945743561,0
64,100,0.1590909090909091,721,1,44,DL_Guitar,6,3,umon_taturo_upbeat,0.9990230798721313,1
64,100,0.35909090909090907,788,0,44,DL_Guitar,6,6,umon_taturo_upbeat,0.3666217029094696,0
64,100,0.32272727272727275,871,0,44,DL_Guitar,6,5,umon_taturo_upbeat,0.45329606533050537,0
53,100,0.12272727272727273,211,1,45,DL_Guitar,6,2,umon_taturo_upbeat,0.9988419413566589,1
65,100,0.18181818181818182,334,0,45,DL_Guitar,6,3,umon_taturo_upbeat,0.13724809885025024,0
54,100,0.36363636363636365,686,1,45,DL_Guitar,6,6,umon_taturo_upbeat,0.15977804362773895,0
54,100,0.23636363636363636,810,0,45,DL_Guitar,6,4,umon_taturo_upbeat,0.18644721806049347,0
66,100,0.1409090909090909,866,0,45,DL_Guitar,6,2,umon_taturo_upbeat,0.2581680715084076,0
62,100,0.3181818181818182,668,1,46,DL_Guitar,6,5,umon_taturo_upbeat,0.9983165264129639,1
52,100,0.2818181818181818,826,0,46,DL_Guitar,6,5,umon_taturo_upbeat,0.5445666313171387,0
52,100,0.12272727272727273,13,1,47,DL_Guitar,6,2,umon_taturo_upbeat,0.9990057349205017,1
52,100,0.4409090909090909,43,0,47,DL_Guitar,6,7,umon_taturo_upbeat,0.231204554438591,0
52,100,0.5818181818181818,179,0,47,DL_Guitar,6,9,umon_taturo_upbeat,0.265926331281662,0
53,100,1.240909090909091,426,1,47,DL_Guitar,6,15,umon_taturo_upbeat,0.35419341921806335,0
54,100,0.42272727272727273,48,1,48,DL_Guitar,6,7,umon_taturo_upbeat,0.9990229606628418,1
61,100,0.2,163,0,48,DL_Guitar,6,3,umon_taturo_upbeat,0.36662301421165466,0
61,100,0.4818181818181818,440,1,48,DL_Guitar,6,8,umon_taturo_upbeat,0.4532954692840576,0
62,100,0.4,34,1,49,DL_Guitar,6,6,umon_taturo_upbeat,0.9988420605659485,1
52,100,1.3590909090909091,176,0,49,DL_Guitar,6,15,umon_taturo_upbeat,0.13725008070468903,0
52,100,0.2,480,1,49,DL_Guitar,6,3,umon_taturo_upbeat,0.15978971123695374,0
52,100,0.1590909090909091,638,0,49,DL_Guitar,6,3,umon_taturo_upbeat,0.18646365404129028,0
53,100,1.6363636363636365,678,0,49,DL_Guitar,6,15,umon_taturo_upbeat,0.25816747546195984,0
54,100,0.23636363636363636,303,1,50,DL_Guitar,6,4,umon_taturo_upbeat,0.9988419413566589,1
61,100,0.2409090909090909,440,0,50,DL_Guitar,6,4,umon_taturo_upbeat,0.13724790513515472,0
61,100,0.4818181818181818,571,0,50,DL_Guitar,6,8,umon_taturo_upbeat,0.1597748100757599,0
61,100,0.3,691,0,50,DL_Guitar,6,5,umon_taturo_upbeat,0.18645291030406952,0
57,100,0.13636363636363635,788,0,50,DL_Guitar,6,2,umon_taturo_upbeat,0.25816822052001953,0
52,100,0.5,431,1,51,DL_Guitar,6,8,umon_taturo_upbeat,0.9990229606628418,1
52,100,0.1,545,0,51,DL_Guitar,6,2,umon_taturo_upbeat,0.3666199743747711,0
52,100,0.11818181818181818,691,0,51,DL_Guitar,6,2,umon_taturo_upbeat,0.453292578458786,0
54,100,0.1590909090909091,0,1,52,DL_Guitar,6,3,umon_taturo_upbeat,0.9986500144004822,1
54,100,0.1,56,0,52,DL_Guitar,6,2,umon_taturo_upbeat,0.08780641108751297,0
61,100,0.7,91,0,52,DL_Guitar,6,11,umon_taturo_upbeat,0.0918143168091774,0
54,100,0.3,254,0,52,DL_Guitar,6,5,umon_taturo_upbeat,0.1074867993593216,0
54,100,0.1,325,0,52,DL_Guitar,6,2,umon_taturo_upbeat,0.12483484297990799,0
61,100,2.640909090909091,426,0,52,DL_Guitar,6,15,umon_taturo_upbeat,0.17902418971061707,0
57,100,1.440909090909091,158,1,53,DL_Guitar,6,15,umon_taturo_upbeat,0.9983164072036743,1
52,100,2.1,681,1,53,DL_Guitar,6,15,umon_taturo_upbeat,0.5445576310157776,0
52,100,0.11818181818181818,303,1,54,DL_Guitar,6,2,umon_taturo_upbeat,0.9792560338973999,0
57,100,0.18181818181818182,418,1,55,DL_Guitar,6,3,umon_taturo_upbeat,0.9988419413566589,1
57,100,0.1409090909090909,518,0,55,DL_Guitar,6,2,umon_taturo_upbeat,0.13725179433822632,0
57,100,0.37727272727272726,558,0,55,DL_Guitar,6,6,umon_taturo_upbeat,0.1597798615694046,0
57,100,0.21818181818181817,660,0,55,DL_Guitar,6,3,umon_taturo_upbeat,0.18645739555358887,0
57,100,0.38181818181818183,726,0,55,DL_Guitar,6,6,umon_taturo_upbeat,0.2581700086593628,0
57,100,0.2409090909090909,625,1,56,DL_Guitar,6,4,umon_taturo_upbeat,0.9983165264129639,1
57,100,0.4818181818181818,703,0,56,DL_Guitar,6,8,umon_taturo_upbeat,0.5445560812950134,0
57,100,0.22272727272727272,4,1,57,DL_Guitar,6,4,umon_taturo_upbeat,0.9984880685806274,1
57,100,0.4,91,0,57,DL_Guitar,6,6,umon_taturo_upbeat,0.06334546208381653,0
57,100,0.4818181818181818,330,1,57,DL_Guitar,6,8,umon_taturo_upbeat,0.05774178355932236,0
57,100,0.2590909090909091,453,0,57,DL_Guitar,6,4,umon_taturo_upbeat,0.0602014996111393,0
69,100,0.1409090909090909,531,0,57,DL_Guitar,6,2,umon_taturo_upbeat,0.0697031021118164,0
61,100,0.5,691,0,57,DL_Guitar,6,8,umon_taturo_upbeat,0.08189453184604645,0
59,100,0.6,810,0,57,DL_Guitar,6,10,umon_taturo_upbeat,0.12402278929948807,0
59,100,0.18181818181818182,153,1,58,DL_Guitar,6,3,umon_taturo_upbeat,0.9990057349205017,1
59,100,0.1,215,0,58,DL_Guitar,6,2,umon_taturo_upbeat,0.23120230436325073,0
52,100,0.4409090909090909,330,0,58,DL_Guitar,6,7,umon_taturo_upbeat,0.2659205496311188,0
52,100,0.11818181818181818,536,0,58,DL_Guitar,6,2,umon_taturo_upbeat,0.35420364141464233,0
61,100,0.1409090909090909,48,1,59,DL_Guitar,6,2,umon_taturo_upbeat,0.9990229606628418,1
61,100,0.3,110,0,59,DL_Guitar,6,5,umon_taturo_upbeat,0.3666270077228546,0
57,100,0.1409090909090909,770,1,59,DL_Guitar,6,2,umon_taturo_upbeat,0.45329418778419495,0
57,100,0.11818181818181818,330,1,60,DL_Guitar,6,2,umon_taturo_upbeat,0.9990229606628418,1
61,100,0.5636363636363636,421,0,60,DL_Guitar,6,9,umon_taturo_upbeat,0.36662426590919495,0
61,100,0.3181818181818182,678,1,60,DL_Guitar,6,5,umon_taturo_upbeat,0.4532880187034607,0
57,100,0.4636363636363636,444,1,61,DL_Guitar,6,7,umon_taturo_upbeat,0.9990229606628418,1
54,100,0.35909090909090907,550,0,61,DL_Guitar,6,6,umon_taturo_upbeat,0.3666212558746338,0
57,100,0.13636363636363635,633,0,61,DL_Guitar,6,2,umon_taturo_upbeat,0.4532938003540039,0
57,100,0.11818181818181818,316,1,62,DL_Guitar,6,2,umon_taturo_upbeat,0.9990057349205017,1
57,100,0.1,471,0,62,DL_Guitar,6,2,umon_taturo_upbeat,0.23120373487472534,0
57,100,0.18181818181818182,628,0,62,DL_Guitar,6,3,umon_taturo_upbeat,0.26592332124710083,0
59,100,0.4590909090909091,810,0,62,DL_Guitar,6,7,umon_taturo_upbeat,0.35420119762420654,0
61,100,0.13636363636363635,171,1,63,DL_Guitar,6,2,umon_taturo_upbeat,0.9983736276626587,1
59,100,0.35909090909090907,316,0,63,DL_Guitar,6,6,umon_taturo_upbeat,0.05106247588992119,0
57,100,0.2409090909090909,431,0,63,DL_Guitar,6,4,umon_taturo_upbeat,0.041303157806396484,0
54,100,0.1,691,1,63,DL_Guitar,6,2,umon_taturo_upbeat,0.037386879324913025,0
54,100,0.17727272727272728,721,0,63,DL_Guitar,6,3,umon_taturo_upbeat,0.038329776376485825,0
57,100,0.12272727272727273,774,0,63,DL_Guitar,6,2,umon_taturo_upbeat,0.04475116357207298,0
54,100,0.11818181818181818,813,0,63,DL_Guitar,6,2,umon_taturo_upbeat,0.05523012578487396,0
54,100,0.12272727272727273,848,0,63,DL_Guitar,6,2,umon_taturo_upbeat,0.09026388078927994,0
57,100,0.1590909090909091,0,1,64,DL_Guitar,6,3,umon_taturo_upbeat,0.9990229606628418,1
57,100,0.7181818181818181,550,1,64,DL_Guitar,6,11,umon_taturo_upbeat,0.366627037525177,0
57,100,0.4,849,1,64,DL_Guitar,6,6,umon_taturo_upbeat,0.45329684019088745,0
57,100,0.2409090909090909,66,1,65,DL_Guitar,6,4,umon_taturo_upbeat,0.9990229606628418,1
59,100,0.8363636363636363,172,0,65,DL_Guitar,6,13,umon_taturo_upbeat,0.36662301421165466,0
61,100,0.2409090909090909,404,1,65,DL_Guitar,6,4,umon_taturo_upbeat,0.4532844126224518,0
59,100,0.8590909090909091,426,1,66,DL_Guitar,6,14,umon_taturo_upbeat,0.9990229606628418,1
69,100,0.1,796,1,66,DL_Guitar,6,2,umon_taturo_upbeat,0.36662670969963074,0
62,100,0.12272727272727273,849,0,66,DL_Guitar,6,2,umon_taturo_upbeat,0.453291654586792,0
62,100,0.1590909090909091,0,1,67,DL_Guitar,6,3,umon_taturo_upbeat,0.9983003735542297,1
64,100,0.5181818181818182,40,0,67,DL_Guitar,6,8,umon_taturo_upbeat,0.04466504976153374,0
64,100,0.3409090909090909,176,0,67,DL_Guitar,6,5,umon_taturo_upbeat,0.03315116465091705,0
52,100,0.37727272727272726,436,1,67,DL_Guitar,6,6,umon_taturo_upbeat,0.026581956073641777,0
52,100,0.17727272727272728,546,0,67,DL_Guitar,6,3,umon_taturo_upbeat,0.02359706349670887,0
52,100,0.1590909090909091,603,0,67,DL_Guitar,6,3,umon_taturo_upbeat,0.02431633323431015,0
52,100,0.13636363636363635,656,0,67,DL_Guitar,6,2,umon_taturo_upbeat,0.029692428186535835,0
52,100,0.3409090909090909,690,0,67,DL_Guitar,6,5,umon_taturo_upbeat,0.04007880762219429,0
52,100,0.38181818181818183,849,0,67,DL_Guitar,6,6,umon_taturo_upbeat,0.07093455642461777,0
52,100,0.2,233,1,68,DL_Guitar,6,3,umon_taturo_upbeat,0.9990229606628418,1
52,100,0.37727272727272726,294,0,68,DL_Guitar,6,6,umon_taturo_upbeat,0.36661413311958313,0
59,100,0.13636363636363635,457,0,68,DL_Guitar,6,2,umon_taturo_upbeat,0.4532987177371979,0
57,100,0.4,189,1,69,DL_Guitar,6,6,umon_taturo_upbeat,0.9990229606628418,1
52,100,0.2,686,1,69,DL_Guitar,6,3,umon_taturo_upbeat,0.3666231036186218,0
52,100,0.1590909090909091,832,0,69,DL_Guitar,6,3,umon_taturo_upbeat,0.4533006548881531,0
52,100,0.2590909090909091,56,1,70,DL_Guitar,6,4,umon_taturo_upbeat,0.9986500144004822,1
59,100,0.1409090909090909,140,0,70,DL_Guitar,6,2,umon_taturo_upbeat,0.08780427277088165,0
53,100,0.5818181818181818,307,0,70,DL_Guitar,6,9,umon_taturo_upbeat,0.09180945158004761,0
53,100,0.1590909090909091,453,0,70,DL_Guitar,6,3,umon_taturo_upbeat,0.1074765995144844,0
53,100,0.1409090909090909,642,0,70,DL_Guitar,6,2,umon_taturo_upbeat,0.12482506781816483,0
56,100,0.11818181818181818,734,0,70,DL_Guitar,6,2,umon_taturo_upbeat,0.1790274679660797,0
61,100,0.11818181818181818,153,1,71,DL_Guitar,6,2,umon_taturo_upbeat,0.9990229606628418,1
57,100,0.1590909090909091,673,1,71,DL_Guitar,6,3,umon_taturo_upbeat,0.3666284680366516,0
57,100,0.2,823,0,71,DL_Guitar,6,3,umon_taturo_upbeat,0.4532987177371979,0
57,100,0.1590909090909091,9,1,72,DL_Guitar,6,3,umon_taturo_upbeat,0.9990057349205017,1
59,100,1.059090909090909,193,0,72,DL_Guitar,6,15,umon_taturo_upbeat,0.23120592534542084,0
69,100,0.21818181818181817,502,1,72,DL_Guitar,6,3,umon_taturo_upbeat,0.26592379808425903,0
57,100,0.33636363636363636,743,1,72,DL_Guitar,6,5,umon_taturo_upbeat,0.3542023301124573,0
61,100,0.11818181818181818,514,1,73,DL_Guitar,6,2,umon_taturo_upbeat,0.9990229606628418,1
61,100,0.42272727272727273,585,0,73,DL_Guitar,6,7,umon_taturo_upbeat,0.3666229844093323,0
57,100,0.3409090909090909,870,1,73,DL_Guitar,6,5,umon_taturo_upbeat,0.45329371094703674,0
57,100,0.21818181818181817,132,1,74,DL_Guitar,6,3,umon_taturo_upbeat,0.9986500144004822,1
57,100,0.2772727272727273,237,0,74,DL_Guitar,6,4,umon_taturo_upbeat,0.08780361711978912,0
52,100,0.2590909090909091,559,1,74,DL_Guitar,6,4,umon_taturo_upbeat,0.09181448072195053,0
52,100,0.18181818181818182,619,0,74,DL_Guitar,6,3,umon_taturo_upbeat,0.1074800193309784,0
64,100,0.18181818181818182,682,0,74,DL_Guitar,6,3,umon_taturo_upbeat,0.12482952326536179,0
59,100,0.2818181818181818,726,0,74,DL_Guitar,6,5,umon_taturo_upbeat,0.1790354996919632,0
61,100,0.1,17,1,75,DL_Guitar,6,2,umon_taturo_upbeat,0.9988419413566589,1
53,100,1.1409090909090909,47,0,75,DL_Guitar,6,15,umon_taturo_upbeat,0.13724297285079956,0
61,100,0.6409090909090909,316,1,75,DL_Guitar,6,10,umon_taturo_upbeat,0.1597745418548584,0
61,100,0.12272727272727273,606,1,75,DL_Guitar,6,2,umon_taturo_upbeat,0.18644732236862183,0
61,100,0.3,739,0,75,DL_Guitar,6,5,umon_taturo_upbeat,0.2581641376018524,0
59,100,0.17727272727272728,9,1,76,DL_Guitar,6,3,umon_taturo_upbeat,0.9988419413566589,1
52,100,0.18181818181818182,550,1,76,DL_Guitar,6,3,umon_taturo_upbeat,0.13724352419376373,0
52,100,0.1409090909090909,739,0,76,DL_Guitar,6,2,umon_taturo_upbeat,0.15977734327316284,0
52,100,0.16363636363636364,773,0,76,DL_Guitar,6,3,umon_taturo_upbeat,0.18645109236240387,0
59,100,0.21818181818181817,813,0,76,DL_Guitar,6,3,umon_taturo_upbeat,0.2581743896007538,0
59,100,0.3,176,1,77,DL_Guitar,6,5,umon_taturo_upbeat,0.9988419413566589,1
59,100,0.5590909090909091,307,0,77,DL_Guitar,6,9,umon_taturo_upbeat,0.13724516332149506,0
64,100,0.18181818181818182,440,0,77,DL_Guitar,6,3,umon_taturo_upbeat,0.1597810685634613,0
59,100,0.17727272727272728,502,0,77,DL_Guitar,6,3,umon_taturo_upbeat,0.18644897639751434,0
59,100,0.4409090909090909,559,0,77,DL_Guitar,6,7,umon_taturo_upbeat,0.25816580653190613,0
57,100,0.3,289,1,78,DL_Guitar,6,5,umon_taturo_upbeat,0.9792560338973999,0
65,100,0.1409090909090909,449,1,79,DL_Guitar,6,2,umon_taturo_upbeat,0.9986500144004822,1
65,100,0.18181818181818182,550,0,79,DL_Guitar,6,3,umon_taturo_upbeat,0.08780021965503693,0
65,100,0.2,597,0,79,DL_Guitar,6,3,umon_taturo_upbeat,0.09181370586156845,0
65,100,0.6636363636363637,663,0,79,DL_Guitar,6,11,umon_taturo_upbeat,0.10747428983449936,0
65,100,0.1409090909090909,813,0,79,DL_Guitar,6,2,umon_taturo_upbeat,0.12482551485300064,0
65,100,0.5227272727272727,849,0,79,DL_Guitar,6,8,umon_taturo_upbeat,0.17902378737926483,0
59,100,0.2,246,1,80,DL_Guitar,6,3,umon_taturo_upbeat,0.9990057349205017,1
59,100,0.17727272727272728,294,0,80,DL_Guitar,6,3,umon_taturo_upbeat,0.23120039701461792,0
59,100,0.2,496,0,80,DL_Guitar,6,3,umon_taturo_upbeat,0.2659159302711487,0
52,100,0.2772727272727273,722,0,80,DL_Guitar,6,4,umon_taturo_upbeat,0.35419878363609314,0
52,100,0.6227272727272727,47,1,81,DL_Guitar,6,10,umon_taturo_upbeat,0.9983164072036743,1
61,100,1.7818181818181817,263,0,81,DL_Guitar,6,15,umon_taturo_upbeat,0.5445476770401001,0
57,100,0.2590909090909091,127,1,82,DL_Guitar,6,4,umon_taturo_upbeat,0.9990057349205017,1
57,100,0.2409090909090909,263,0,82,DL_Guitar,6,4,umon_taturo_upbeat,0.23121574521064758,0
57,100,0.1,320,0,82,DL_Guitar,6,2,umon_taturo_upbeat,0.2659372091293335,0
57,100,0.759090909090909,440,0,82,DL_Guitar,6,12,umon_taturo_upbeat,0.35420408844947815,0
57,100,0.12272727272727273,13,1,83,DL_Guitar,6,2,umon_taturo_upbeat,0.9990229606628418,1
57,100,0.2,303,1,83,DL_Guitar,6,3,umon_taturo_upbeat,0.3666178584098816,0
52,100,0.1,857,1,83,DL_Guitar,6,2,umon_taturo_upbeat,0.45329341292381287,0
61,100,0.3,197,1,84,DL_Guitar,6,5,umon_taturo_upbeat,0.9990057349205017,1
61,100,1.0,347,0,84,DL_Guitar,6,15,umon_taturo_upbeat,0.23119841516017914,0
61,100,0.5227272727272727,707,1,84,DL_Guitar,6,8,umon_taturo_upbeat,0.2659207880496979,0
61,100,0.38181818181818183,836,0,84,DL_Guitar,6,6,umon_taturo_upbeat,0.3541925847530365,0
52,100,0.4818181818181818,166,1,85,DL_Guitar,6,8,umon_taturo_upbeat,0.9986500144004822,1
52,100,0.6,286,0,85,DL_Guitar,6,10,umon_taturo_upbeat,0.0878046452999115,0
52,100,0.3,422,0,85,DL_Guitar,6,5,umon_taturo_upbeat,0.09181414544582367,0
52,100,0.35909090909090907,603,0,85,DL_Guitar,6,6,umon_taturo_upbeat,0.10747923702001572,0
59,100,0.32272727272727275,729,0,85,DL_Guitar,6,5,umon_taturo_upbeat,0.12483116239309311,0
59,100,0.18181818181818182,817,0,85,DL_Guitar,6,3,umon_taturo_upbeat,0.17903783917427063,0
64,100,0.2409090909090909,113,1,86,DL_Guitar,6,4,umon_taturo_upbeat,0.9986500144004822,1
59,100,0.42272727272727273,202,0,86,DL_Guitar,6,7,umon_taturo_upbeat,0.0878041461110115,0
57,100,0.1409090909090909,493,1,86,DL_Guitar,6,2,umon_taturo_upbeat,0.0918167233467102,0
57,100,0.35909090909090907,527,0,86,DL_Guitar,6,6,umon_taturo_upbeat,0.10748136043548584,0
57,100,0.2772727272727273,624,0,86,DL_Guitar,6,4,umon_taturo_upbeat,0.12483415007591248,0
57,100,1.1590909090909092,813,0,86,DL_Guitar,6,15,umon_taturo_upbeat,0.17904026806354523,0
57,100,0.2409090909090909,250,1,87,DL_Guitar,6,4,umon_taturo_upbeat,0.9792566299438477,0
59,100,0.1409090909090909,506,1,90,DL_Guitar,6,2,umon_taturo_upbeat,0.9990229606628418,1
59,100,0.1,646,0,90,DL_Guitar,6,2,umon_taturo_upbeat,0.36661842465400696,0
59,100,0.4590909090909091,823,0,90,DL_Guitar,6,7,umon_taturo_upbeat,0.45329028367996216,0
59,100,0.5,79,1,91,DL_Guitar,6,8,umon_taturo_upbeat,0.9990229606628418,1
52,100,0.17727272727272728,316,1,91,DL_Guitar,6,3,umon_taturo_upbeat,0.3666202127933502,0
52,100,0.4,817,1,91,DL_Guitar,6,6,umon_taturo_upbeat,0.45329567790031433,0
57,100,0.22272727272727272,100,1,92,DL_Guitar,6,4,umon_taturo_upbeat,0.9984880685806274,1
66,100,0.18181818181818182,197,0,92,DL_Guitar,6,3,umon_taturo_upbeat,0.06334631145000458,0
55,100,0.11818181818181818,426,0,92,DL_Guitar,6,2,umon_taturo_upbeat,0.05774230509996414,0
55,100,0.11818181818181818,480,0,92,DL_Guitar,6,2,umon_taturo_upbeat,0.06020315736532211,0
56,100,0.1409090909090909,506,0,92,DL_Guitar,6,2,umon_taturo_upbeat,0.06970133632421494,0
52,100,0.4,572,0,92,DL_Guitar,6,6,umon_taturo_upbeat,0.08189499378204346,0
59,100,0.32272727272727275,707,0,92,DL_Guitar,6,5,umon_taturo_upbeat,0.12402062118053436,0
64,100,0.16363636363636364,3,1,93,DL_Guitar,6,3,umon_taturo_upbeat,0.9988419413566589,1
59,100,0.11818181818181818,150,0,93,DL_Guitar,6,2,umon_taturo_upbeat,0.1372520625591278,0
65,100,0.4590909090909091,320,0,93,DL_Guitar,6,7,umon_taturo_upbeat,0.1597827523946762,0
65,100,0.2772727272727273,426,0,93,DL_Guitar,6,4,umon_taturo_upbeat,0.18645548820495605,0
57,100,0.5181818181818182,844,1,93,DL_Guitar,6,8,umon_taturo_upbeat,0.25816184282302856,0
59,100,0.3181818181818182,813,1,94,DL_Guitar,6,5,umon_taturo_upbeat,0.9792561531066895,0
59,100,0.32272727272727275,92,1,95,DL_Guitar,6,5,umon_taturo_upbeat,0.9983165264129639,1
59,100,0.1409090909090909,223,0,95,DL_Guitar,6,2,umon_taturo_upbeat,0.544553279876709,0
54,100,0.1590909090909091,53,1,96,DL_Guitar,6,3,umon_taturo_upbeat,0.9983165264129639,1
57,100,0.6181818181818182,734,1,96,DL_Guitar,6,10,umon_taturo_upbeat,0.5445543527603149,0
57,100,0.21818181818181817,0,1,97,DL_Guitar,6,3,umon_taturo_upbeat,0.9990057349205017,1
59,100,0.4818181818181818,189,0,97,DL_Guitar,6,8,umon_taturo_upbeat,0.23120975494384766,0
64,100,0.11818181818181818,493,1,97,DL_Guitar,6,2,umon_taturo_upbeat,0.2659323811531067,0
57,100,0.8409090909090909,823,1,97,DL_Guitar,6,13,umon_taturo_upbeat,0.35420024394989014,0
57,100,0.12272727272727273,157,1,98,DL_Guitar,6,2,umon_taturo_upbeat,0.9792561531066895,0
57,100,0.2409090909090909,443,1,100,DL_Guitar,6,4,umon_taturo_upbeat,0.9990057349205017,1
57,100,0.2409090909090909,563,0,100,DL_Guitar,6,4,umon_taturo_upbeat,0.2311953455209732,0
57,100,0.2,633,0,100,DL_Guitar,6,3,umon_taturo_upbeat,0.2659211754798889,0
59,100,0.5590909090909091,810,0,100,DL_Guitar,6,9,umon_taturo_upbeat,0.35418903827667236,0
59,100,0.11818181818181818,83,1,101,DL_Guitar,6,2,umon_taturo_upbeat,0.9986500144004822,1
59,100,0.4,153,0,101,DL_Guitar,6,6,umon_taturo_upbeat,0.08780156075954437,0
59,100,0.2,260,0,101,DL_Guitar,6,3,umon_taturo_upbeat,0.09181255102157593,0
59,100,0.5227272727272727,430,0,101,DL_Guitar,6,8,umon_taturo_upbeat,0.10747625678777695,0
53,100,0.3,677,1,101,DL_Guitar,6,5,umon_taturo_upbeat,0.12482473999261856,0
59,100,0.2,756,0,101,DL_Guitar,6,3,umon_taturo_upbeat,0.17903538048267365,0
57,100,0.4772727272727273,193,1,102,DL_Guitar,6,8,umon_taturo_upbeat,0.9990057349205017,1
57,100,0.18181818181818182,597,1,102,DL_Guitar,6,3,umon_taturo_upbeat,0.23121273517608643,0
57,100,0.4636363636363636,707,0,102,DL_Guitar,6,7,umon_taturo_upbeat,0.26592716574668884,0
57,100,0.1,839,0,102,DL_Guitar,6,2,umon_taturo_upbeat,0.3541986346244812,0
57,100,0.12272727272727273,35,1,103,DL_Guitar,6,2,umon_taturo_upbeat,0.9990057349205017,1
59,100,0.5181818181818182,184,0,103,DL_Guitar,6,8,umon_taturo_upbeat,0.23120476305484772,0
59,100,0.7227272727272728,312,0,103,DL_Guitar,6,12,umon_taturo_upbeat,0.2659159004688263,0
52,100,0.13636363636363635,502,0,103,DL_Guitar,6,2,umon_taturo_upbeat,0.3541986346244812,0
57,100,0.1,282,1,104,DL_Guitar,6,2,umon_taturo_upbeat,0.9983004927635193,1
57,100,0.18181818181818182,466,0,104,DL_Guitar,6,3,umon_taturo_upbeat,0.0446653850376606,0
57,100,0.1,514,0,104,DL_Guitar,6,2,umon_taturo_upbeat,0.03315013647079468,0
57,100,0.2590909090909091,540,0,104,DL_Guitar,6,4,umon_taturo_upbeat,0.026580333709716797,0
57,100,0.11818181818181818,616,0,104,DL_Guitar,6,2,umon_taturo_upbeat,0.023594822734594345,0
57,100,0.2409090909090909,682,0,104,DL_Guitar,6,4,umon_taturo_upbeat,0.02431522123515606,0
57,100,0.1,743,0,104,DL_Guitar,6,2,umon_taturo_upbeat,0.029690520837903023,0
57,100,0.1590909090909091,770,0,104,DL_Guitar,6,3,umon_taturo_upbeat,0.04007747769355774,0
57,100,0.1,813,0,104,DL_Guitar,6,2,umon_taturo_upbeat,0.07093047350645065,0
57,100,0.11818181818181818,9,1,105,DL_Guitar,6,2,umon_taturo_upbeat,0.9792559146881104,1
56,100,0.18181818181818182,651,1,0,DL_Guitar,6,3,hanamokatanamo,0.9792560338973999,1
61,100,0.9,655,1,1,DL_Guitar,6,14,hanamokatanamo,0.9792546629905701,0
63,100,0.41818181818181815,140,1,5,DL_Guitar,6,7,hanamokatanamo,0.9990057349205017,1
56,100,0.1409090909090909,541,1,5,DL_Guitar,6,2,hanamokatanamo,0.2312101572751999,0
56,100,0.38181818181818183,575,0,5,DL_Guitar,6,6,hanamokatanamo,0.2659304738044739,0
56,100,0.3181818181818182,721,0,5,DL_Guitar,6,5,hanamokatanamo,0.3542032241821289,0
63,100,0.3409090909090909,153,1,6,DL_Guitar,6,5,hanamokatanamo,0.9988419413566589,1
63,100,0.1409090909090909,311,0,6,DL_Guitar,6,2,hanamokatanamo,0.13724757730960846,0
60,100,0.1590909090909091,386,0,6,DL_Guitar,6,3,hanamokatanamo,0.15978112816810608,0
53,100,0.42272727272727273,695,1,6,DL_Guitar,6,7,hanamokatanamo,0.18645140528678894,0
53,100,0.23636363636363636,810,0,6,DL_Guitar,6,4,hanamokatanamo,0.25817155838012695,0
63,100,0.2772727272727273,325,1,7,DL_Guitar,6,4,hanamokatanamo,0.9983165264129639,1
63,100,0.6,818,1,7,DL_Guitar,6,10,hanamokatanamo,0.544564425945282,0
63,100,0.32272727272727275,321,1,8,DL_Guitar,6,5,hanamokatanamo,0.9990229606628418,1
63,100,0.17727272727272728,426,0,8,DL_Guitar,6,3,hanamokatanamo,0.3666251599788666,0
53,100,0.12272727272727273,795,1,8,DL_Guitar,6,2,hanamokatanamo,0.4532899856567383,0
63,100,0.2636363636363636,862,1,9,DL_Guitar,6,4,hanamokatanamo,0.9792559146881104,0
56,100,0.1590909090909091,364,1,10,DL_Guitar,6,3,hanamokatanamo,0.9990057349205017,1
56,100,0.13636363636363635,457,0,10,DL_Guitar,6,2,hanamokatanamo,0.2312197983264923,0
56,100,0.740909090909091,527,0,10,DL_Guitar,6,12,hanamokatanamo,0.26591992378234863,0
56,100,0.5590909090909091,716,0,10,DL_Guitar,6,9,hanamokatanamo,0.35419121384620667,0
63,100,0.11818181818181818,110,1,11,DL_Guitar,6,2,hanamokatanamo,0.9988419413566589,1
56,100,0.2409090909090909,250,0,11,DL_Guitar,6,4,hanamokatanamo,0.1372453272342682,0
63,100,0.22272727272727272,443,0,11,DL_Guitar,6,4,hanamokatanamo,0.1597786694765091,0
63,100,0.1,691,1,11,DL_Guitar,6,2,hanamokatanamo,0.1864498257637024,0
63,100,0.3,876,0,11,DL_Guitar,6,5,hanamokatanamo,0.25816747546195984,0
56,100,0.22272727272727272,70,1,12,DL_Guitar,6,4,hanamokatanamo,0.9988419413566589,1
63,100,0.1,144,0,12,DL_Guitar,6,2,hanamokatanamo,0.13724759221076965,0
63,100,0.2,273,0,12,DL_Guitar,6,3,hanamokatanamo,0.15977910161018372,0
56,100,0.2818181818181818,378,0,12,DL_Guitar,6,5,hanamokatanamo,0.18644340336322784,0
63,100,0.3,598,0,12,DL_Guitar,6,5,hanamokatanamo,0.2581673264503479,0
63,100,0.23636363636363636,149,1,13,DL_Guitar,6,4,hanamokatanamo,0.9990057349205017,1
63,100,0.1409090909090909,333,0,13,DL_Guitar,6,2,hanamokatanamo,0.23120850324630737,0
56,100,0.17727272727272728,436,0,13,DL_Guitar,6,3,hanamokatanamo,0.26593318581581116,0
63,100,0.8,660,0,13,DL_Guitar,6,13,hanamokatanamo,0.35419905185699463,0
63,100,1.6590909090909092,56,1,14,DL_Guitar,6,15,hanamokatanamo,0.9990057349205017,1
63,100,0.3409090909090909,488,1,14,DL_Guitar,6,5,hanamokatanamo,0.23121428489685059,0
56,100,0.22272727272727272,685,0,14,DL_Guitar,6,4,hanamokatanamo,0.2659284472465515,0
63,100,0.42272727272727273,849,0,14,DL_Guitar,6,7,hanamokatanamo,0.35420018434524536,0
63,100,0.2409090909090909,140,1,15,DL_Guitar,6,4,hanamokatanamo,0.9990229606628418,1
63,100,0.22272727272727272,355,0,15,DL_Guitar,6,4,hanamokatanamo,0.36663106083869934,0
63,100,0.1,835,1,15,DL_Guitar,6,2,hanamokatanamo,0.45329880714416504,0
56,100,0.1590909090909091,13,1,16,DL_Guitar,6,3,hanamokatanamo,0.9982553124427795,1
63,100,0.6227272727272727,69,0,16,DL_Guitar,6,10,hanamokatanamo,0.04128682240843773,0
63,100,0.18181818181818182,210,0,16,DL_Guitar,6,3,hanamokatanamo,0.028935149312019348,0
63,100,0.1409090909090909,308,0,16,DL_Guitar,6,2,hanamokatanamo,0.021287918090820312,0
63,100,0.16363636363636364,378,0,16,DL_Guitar,6,3,hanamokatanamo,0.016745181754231453,0
63,100,0.4772727272727273,449,0,16,DL_Guitar,6,8,hanamokatanamo,0.014918371103703976,0
63,100,0.36363636363636365,576,0,16,DL_Guitar,6,6,hanamokatanamo,0.016016751527786255,0
56,100,0.2,660,0,16,DL_Guitar,6,3,hanamokatanamo,0.02117982879281044,0
63,100,0.41818181818181815,725,0,16,DL_Guitar,6,7,hanamokatanamo,0.03156882897019386,0
63,100,0.1409090909090909,822,0,16,DL_Guitar,6,2,hanamokatanamo,0.06006249040365219,0
63,100,0.5409090909090909,21,1,17,DL_Guitar,6,9,hanamokatanamo,0.9986500144004822,1
63,100,0.3409090909090909,206,0,17,DL_Guitar,6,5,hanamokatanamo,0.0878039076924324,0
53,100,0.1590909090909091,480,1,17,DL_Guitar,6,3,hanamokatanamo,0.09181573241949081,0
53,100,0.3,532,0,17,DL_Guitar,6,5,hanamokatanamo,0.10747797787189484,0
52,100,0.3,611,0,17,DL_Guitar,6,5,hanamokatanamo,0.12482720613479614,0
52,100,0.2590909090909091,681,0,17,DL_Guitar,6,4,hanamokatanamo,0.17903777956962585,0
53,100,0.2409090909090909,119,1,18,DL_Guitar,6,4,hanamokatanamo,0.9986500144004822,1
63,100,0.2409090909090909,356,1,18,DL_Guitar,6,4,hanamokatanamo,0.08780411630868912,0
63,100,0.23636363636363636,436,0,18,DL_Guitar,6,4,hanamokatanamo,0.09181684255599976,0
63,100,0.22272727272727272,497,0,18,DL_Guitar,6,4,hanamokatanamo,0.10748487710952759,0
63,100,0.7,625,0,18,DL_Guitar,6,11,hanamokatanamo,0.1248333603143692,0
56,100,0.35909090909090907,804,0,18,DL_Guitar,6,6,hanamokatanamo,0.17904148995876312,0
63,100,0.5181818181818182,21,1,19,DL_Guitar,6,8,hanamokatanamo,0.9986500144004822,1
63,100,0.3181818181818182,370,1,19,DL_Guitar,6,5,hanamokatanamo,0.08780571818351746,0
56,100,0.18181818181818182,453,0,19,DL_Guitar,6,3,hanamokatanamo,0.09181710332632065,0
56,100,0.2590909090909091,501,0,19,DL_Guitar,6,4,hanamokatanamo,0.10748280584812164,0
56,100,0.2636363636363636,576,0,19,DL_Guitar,6,4,hanamokatanamo,0.12483594566583633,0
63,100,0.7818181818181819,791,0,19,DL_Guitar,6,13,hanamokatanamo,0.1790355145931244,0
56,100,0.7818181818181819,88,1,20,DL_Guitar,6,13,hanamokatanamo,0.9990229606628418,1
63,100,0.2409090909090909,272,0,20,DL_Guitar,6,4,hanamokatanamo,0.36662757396698,0
63,100,0.41818181818181815,449,0,20,DL_Guitar,6,7,hanamokatanamo,0.45329105854034424,0
56,100,0.23636363636363636,40,1,21,DL_Guitar,6,4,hanamokatanamo,0.9988419413566589,1
63,100,0.2590909090909091,106,0,21,DL_Guitar,6,4,hanamokatanamo,0.13724936544895172,0
63,100,0.22272727272727272,422,1,21,DL_Guitar,6,4,hanamokatanamo,0.15977901220321655,0
63,100,0.1409090909090909,550,0,21,DL_Guitar,6,2,hanamokatanamo,0.1864517778158188,0
63,100,0.6181818181818182,700,0,21,DL_Guitar,6,10,hanamokatanamo,0.25817635655403137,0
60,100,0.1409090909090909,198,1,22,DL_Guitar,6,2,hanamokatanamo,0.9983737468719482,1
63,100,0.12272727272727273,246,0,22,DL_Guitar,6,2,hanamokatanamo,0.051059238612651825,0
63,100,0.1409090909090909,285,0,22,DL_Guitar,6,2,hanamokatanamo,0.041303716599941254,0
63,100,0.17727272727272728,326,0,22,DL_Guitar,6,3,hanamokatanamo,0.03738618269562721,0
53,100,0.17727272727272728,370,0,22,DL_Guitar,6,3,hanamokatanamo,0.03833162039518356,0
63,100,0.1,523,0,22,DL_Guitar,6,2,hanamokatanamo,0.04475316032767296,0
63,100,0.1590909090909091,779,1,22,DL_Guitar,6,3,hanamokatanamo,0.05523410066962242,0
63,100,0.11818181818181818,845,0,22,DL_Guitar,6,2,hanamokatanamo,0.09027168899774551,0
63,100,0.1409090909090909,308,1,23,DL_Guitar,6,2,hanamokatanamo,0.9988419413566589,1
63,100,0.3,581,1,23,DL_Guitar,6,5,hanamokatanamo,0.13725128769874573,0
56,100,0.1409090909090909,669,0,23,DL_Guitar,6,2,hanamokatanamo,0.15978659689426422,0
56,100,0.1590909090909091,760,0,23,DL_Guitar,6,3,hanamokatanamo,0.18645690381526947,0
63,100,0.2,810,0,23,DL_Guitar,6,3,hanamokatanamo,0.2581726014614105,0
63,100,0.3,3,1,24,DL_Guitar,6,5,hanamokatanamo,0.9983736276626587,1
56,100,0.3409090909090909,79,0,24,DL_Guitar,6,5,hanamokatanamo,0.05106103792786598,0
60,100,0.1590909090909091,175,0,24,DL_Guitar,6,3,hanamokatanamo,0.04130394384264946,0
63,100,0.13636363636363635,391,0,24,DL_Guitar,6,2,hanamokatanamo,0.0373857207596302,0
60,100,0.8590909090909091,453,0,24,DL_Guitar,6,14,hanamokatanamo,0.03833125904202461,0
56,100,0.1409090909090909,717,1,24,DL_Guitar,6,2,hanamokatanamo,0.044753480702638626,0
68,100,0.18181818181818182,748,0,24,DL_Guitar,6,3,hanamokatanamo,0.05523141473531723,0
56,100,0.2590909090909091,876,0,24,DL_Guitar,6,4,hanamokatanamo,0.09026936441659927,0
63,100,0.3181818181818182,171,1,25,DL_Guitar,6,5,hanamokatanamo,0.9988419413566589,1
63,100,0.1,347,0,25,DL_Guitar,6,2,hanamokatanamo,0.13724951446056366,0
63,100,0.2818181818181818,378,0,25,DL_Guitar,6,5,hanamokatanamo,0.15977804362773895,0
63,100,0.2636363636363636,443,0,25,DL_Guitar,6,4,hanamokatanamo,0.18645590543746948,0
61,100,0.3181818181818182,735,1,25,DL_Guitar,6,5,hanamokatanamo,0.2581678032875061,0
63,100,0.4590909090909091,17,1,26,DL_Guitar,6,7,hanamokatanamo,0.9983165264129639,1
56,100,0.32272727272727275,642,1,26,DL_Guitar,6,5,hanamokatanamo,0.5445632338523865,0
63,100,0.2,88,1,27,DL_Guitar,6,3,hanamokatanamo,0.9988419413566589,1
60,100,0.2409090909090909,333,1,27,DL_Guitar,6,4,hanamokatanamo,0.1372518688440323,0
60,100,0.3,519,0,27,DL_Guitar,6,5,hanamokatanamo,0.159786656498909,0
63,100,0.5181818181818182,611,0,27,DL_Guitar,6,8,hanamokatanamo,0.1864512860774994,0
63,100,0.1590909090909091,743,0,27,DL_Guitar,6,3,hanamokatanamo,0.25817975401878357,0
63,100,0.3,216,1,28,DL_Guitar,6,5,hanamokatanamo,0.9983164072036743,1
63,100,0.17727272727272728,303,0,28,DL_Guitar,6,3,hanamokatanamo,0.5445617437362671,0
63,100,0.1590909090909091,0,1,29,DL_Guitar,6,3,hanamokatanamo,0.9983164072036743,1
63,100,0.9181818181818182,743,1,29,DL_Guitar,6,15,hanamokatanamo,0.5445619225502014,0
56,100,0.3,83,1,30,DL_Guitar,6,5,hanamokatanamo,0.9984880685806274,1
56,100,0.1409090909090909,154,0,30,DL_Guitar,6,2,hanamokatanamo,0.06334240734577179,0
63,100,0.740909090909091,320,0,30,DL_Guitar,6,12,hanamokatanamo,0.05774176865816116,0
56,100,0.13636363636363635,523,0,30,DL_Guitar,6,2,hanamokatanamo,0.06019926071166992,0
63,100,0.17727272727272728,602,0,30,DL_Guitar,6,3,hanamokatanamo,0.06970109045505524,0
60,100,0.11818181818181818,691,0,30,DL_Guitar,6,2,hanamokatanamo,0.08189592510461807,0
63,100,0.3409090909090909,783,0,30,DL_Guitar,6,5,hanamokatanamo,0.12401530891656876,0
63,100,0.3181818181818182,9,1,31,DL_Guitar,6,5,hanamokatanamo,0.9986500144004822,1
63,100,0.3,83,0,31,DL_Guitar,6,5,hanamokatanamo,0.08780654519796371,0
63,100,0.8227272727272728,189,0,31,DL_Guitar,6,13,hanamokatanamo,0.09181839972734451,0
63,100,1.1818181818181819,443,1,31,DL_Guitar,6,15,hanamokatanamo,0.10748867690563202,0
56,100,0.13636363636363635,721,1,31,DL_Guitar,6,2,hanamokatanamo,0.12484032660722733,0
63,100,0.36363636363636365,752,0,31,DL_Guitar,6,6,hanamokatanamo,0.17904046177864075,0
63,100,0.32272727272727275,26,1,32,DL_Guitar,6,5,hanamokatanamo,0.9984880685806274,1
63,100,0.4818181818181818,158,0,32,DL_Guitar,6,8,hanamokatanamo,0.06334677338600159,0
56,100,0.2409090909090909,298,0,32,DL_Guitar,6,4,hanamokatanamo,0.05774274468421936,0
63,100,0.1590909090909091,396,0,32,DL_Guitar,6,3,hanamokatanamo,0.060203712433576584,0
61,100,0.2772727272727273,536,0,32,DL_Guitar,6,4,hanamokatanamo,0.06970526278018951,0
53,100,0.2590909090909091,611,0,32,DL_Guitar,6,4,hanamokatanamo,0.08189657330513,0
63,100,0.2772727272727273,735,0,32,DL_Guitar,6,4,hanamokatanamo,0.12402499467134476,0
63,100,0.6363636363636364,105,1,33,DL_Guitar,6,10,hanamokatanamo,0.9988419413566589,1
56,100,0.5227272727272727,444,1,33,DL_Guitar,6,8,hanamokatanamo,0.137252539396286,0
63,100,0.35909090909090907,558,0,33,DL_Guitar,6,6,hanamokatanamo,0.15978121757507324,0
63,100,0.12272727272727273,751,0,33,DL_Guitar,6,2,hanamokatanamo,0.18646104633808136,0
63,100,0.6409090909090909,866,0,33,DL_Guitar,6,10,hanamokatanamo,0.25818103551864624,0
63,100,0.2590909090909091,518,1,34,DL_Guitar,6,4,hanamokatanamo,0.9990057349205017,1
63,100,0.2,619,0,34,DL_Guitar,6,3,hanamokatanamo,0.2312091439962387,0
63,100,0.2,770,0,34,DL_Guitar,6,3,hanamokatanamo,0.265927255153656,0
61,100,0.4818181818181818,861,0,34,DL_Guitar,6,8,hanamokatanamo,0.3542017936706543,0
61,100,0.1409090909090909,241,1,35,DL_Guitar,6,2,hanamokatanamo,0.9990057349205017,1
63,100,0.1,361,0,35,DL_Guitar,6,2,hanamokatanamo,0.2312096804380417,0
63,100,0.9227272727272727,408,0,35,DL_Guitar,6,15,hanamokatanamo,0.26593151688575745,0
63,100,0.3,738,1,35,DL_Guitar,6,5,hanamokatanamo,0.35420387983322144,0
63,100,0.21818181818181817,8,1,36,DL_Guitar,6,3,hanamokatanamo,0.9990057349205017,1
53,100,0.13636363636363635,678,1,36,DL_Guitar,6,2,hanamokatanamo,0.23120397329330444,0
61,100,0.22272727272727272,751,0,36,DL_Guitar,6,4,hanamokatanamo,0.26592257618904114,0
53,100,0.5590909090909091,801,0,36,DL_Guitar,6,9,hanamokatanamo,0.3541955351829529,0
65,100,0.5409090909090909,53,1,37,DL_Guitar,6,9,hanamokatanamo,0.9988419413566589,1
65,100,0.2818181818181818,241,0,37,DL_Guitar,6,5,hanamokatanamo,0.13724704086780548,0
53,100,0.2636363636363636,311,0,37,DL_Guitar,6,4,hanamokatanamo,0.15977522730827332,0
53,100,0.21818181818181817,373,0,37,DL_Guitar,6,3,hanamokatanamo,0.1864462047815323,0
63,100,0.5590909090909091,545,0,37,DL_Guitar,6,9,hanamokatanamo,0.2581547498703003,0
55,100,0.2772727272727273,141,1,38,DL_Guitar,6,4,hanamokatanamo,0.9983165264129639,1
55,100,0.21818181818181817,418,1,38,DL_Guitar,6,3,hanamokatanamo,0.5445572137832642,0
53,100,0.2,163,1,39,DL_Guitar,6,3,hanamokatanamo,0.9986498951911926,1
53,100,0.1590909090909091,211,0,39,DL_Guitar,6,3,hanamokatanamo,0.08780274540185928,0
53,100,0.2818181818181818,276,0,39,DL_Guitar,6,5,hanamokatanamo,0.09181497246026993,0
53,100,0.43636363636363634,348,0,39,DL_Guitar,6,7,hanamokatanamo,0.10748151689767838,0
63,100,0.6227272727272727,474,0,39,DL_Guitar,6,10,hanamokatanamo,0.1248246505856514,0
61,100,0.11818181818181818,765,1,39,DL_Guitar,6,2,hanamokatanamo,0.1790381520986557,0
63,100,0.1409090909090909,361,1,40,DL_Guitar,6,2,hanamokatanamo,0.9990057349205017,1
63,100,0.1409090909090909,405,0,40,DL_Guitar,6,2,hanamokatanamo,0.23121005296707153,0
63,100,0.18181818181818182,664,1,40,DL_Guitar,6,3,hanamokatanamo,0.2659338712692261,0
63,100,0.12272727272727273,861,0,40,DL_Guitar,6,2,hanamokatanamo,0.35421037673950195,0
63,100,0.21818181818181817,75,1,41,DL_Guitar,6,3,hanamokatanamo,0.9983003735542297,1
53,100,0.3409090909090909,246,0,41,DL_Guitar,6,5,hanamokatanamo,0.0446641631424427,0
63,100,0.12272727272727273,334,0,41,DL_Guitar,6,2,hanamokatanamo,0.03314943611621857,0
63,100,0.18181818181818182,399,0,41,DL_Guitar,6,3,hanamokatanamo,0.026579532772302628,0
53,100,0.2,448,0,41,DL_Guitar,6,3,hanamokatanamo,0.023595109581947327,0
56,100,0.2,619,0,41,DL_Guitar,6,3,hanamokatanamo,0.02431381493806839,0
63,100,0.1409090909090909,691,0,41,DL_Guitar,6,2,hanamokatanamo,0.029689930379390717,0
63,100,0.11818181818181818,735,0,41,DL_Guitar,6,2,hanamokatanamo,0.04007699340581894,0
63,100,0.33636363636363636,765,0,41,DL_Guitar,6,5,hanamokatanamo,0.07093047350645065,0
63,100,0.21818181818181817,0,1,42,DL_Guitar,6,3,hanamokatanamo,0.9990229606628418,1
63,100,0.2818181818181818,198,0,42,DL_Guitar,6,5,hanamokatanamo,0.36663082242012024,0
63,100,0.16363636363636364,774,1,42,DL_Guitar,6,3,hanamokatanamo,0.45330458879470825,0
63,100,0.3,295,1,43,DL_Guitar,6,5,hanamokatanamo,0.9990229606628418,1
63,100,0.6,399,0,43,DL_Guitar,6,10,hanamokatanamo,0.36662834882736206,0
53,100,0.18181818181818182,673,1,43,DL_Guitar,6,3,hanamokatanamo,0.45329803228378296,0
63,100,0.12272727272727273,136,1,44,DL_Guitar,6,2,hanamokatanamo,0.9990057349205017,1
63,100,0.12272727272727273,268,0,44,DL_Guitar,6,2,hanamokatanamo,0.2312123030424118,0
63,100,0.1409090909090909,550,1,44,DL_Guitar,6,2,hanamokatanamo,0.26593121886253357,0
63,100,0.2409090909090909,616,0,44,DL_Guitar,6,4,hanamokatanamo,0.3542093336582184,0
58,100,0.18181818181818182,21,1,45,DL_Guitar,6,3,hanamokatanamo,0.9986500144004822,1
53,100,0.5409090909090909,321,1,45,DL_Guitar,6,9,hanamokatanamo,0.08780138194561005,0
60,100,0.16363636363636364,444,0,45,DL_Guitar,6,3,hanamokatanamo,0.09181497246026993,0
53,100,0.1590909090909091,506,0,45,DL_Guitar,6,3,hanamokatanamo,0.10747641324996948,0
63,100,0.18181818181818182,729,0,45,DL_Guitar,6,3,hanamokatanamo,0.12482612580060959,0
63,100,0.4,861,0,45,DL_Guitar,6,6,hanamokatanamo,0.17903190851211548,0
63,100,0.6818181818181818,254,1,46,DL_Guitar,6,11,hanamokatanamo,0.9988419413566589,1
61,100,0.13636363636363635,458,0,46,DL_Guitar,6,2,hanamokatanamo,0.1372472196817398,0
61,100,0.5,493,0,46,DL_Guitar,6,8,hanamokatanamo,0.15977708995342255,0
61,100,0.21818181818181817,678,0,46,DL_Guitar,6,3,hanamokatanamo,0.1864481419324875,0
61,100,0.16363636363636364,774,0,46,DL_Guitar,6,3,hanamokatanamo,0.2581726610660553,0
64,100,0.1590909090909091,810,1,47,DL_Guitar,6,3,hanamokatanamo,0.9792566299438477,0
53,100,0.18181818181818182,56,1,48,DL_Guitar,6,3,hanamokatanamo,0.9986500144004822,1
53,100,0.2818181818181818,263,0,48,DL_Guitar,6,5,hanamokatanamo,0.08780284970998764,0
56,100,0.1,421,0,48,DL_Guitar,6,2,hanamokatanamo,0.09181243181228638,0
63,100,0.2,483,0,48,DL_Guitar,6,3,hanamokatanamo,0.10747795552015305,0
53,100,0.16363636363636364,554,0,48,DL_Guitar,6,3,hanamokatanamo,0.12482759356498718,0
61,100,0.2,845,1,48,DL_Guitar,6,3,hanamokatanamo,0.17903149127960205,0
56,100,0.5590909090909091,251,1,49,DL_Guitar,6,9,hanamokatanamo,0.9990229606628418,1
63,100,0.9181818181818182,396,0,49,DL_Guitar,6,15,hanamokatanamo,0.3666205406188965,0
63,100,0.11818181818181818,770,1,49,DL_Guitar,6,2,hanamokatanamo,0.4532892107963562,0
63,100,0.41818181818181815,118,1,50,DL_Guitar,6,7,hanamokatanamo,0.9988419413566589,1
63,100,0.6590909090909091,263,0,50,DL_Guitar,6,11,hanamokatanamo,0.13725024461746216,0
53,100,0.18181818181818182,606,1,50,DL_Guitar,6,3,hanamokatanamo,0.15978440642356873,0
63,100,0.35909090909090907,655,0,50,DL_Guitar,6,6,hanamokatanamo,0.18645305931568146,0
63,100,0.1,765,0,50,DL_Guitar,6,2,hanamokatanamo,0.25817689299583435,0
56,100,0.5590909090909091,31,1,51,DL_Guitar,6,9,hanamokatanamo,0.9990057349205017,1
63,100,0.7227272727272728,254,0,51,DL_Guitar,6,12,hanamokatanamo,0.2312108278274536,0
63,100,0.6,531,1,51,DL_Guitar,6,10,hanamokatanamo,0.26593104004859924,0
63,100,0.2409090909090909,668,0,51,DL_Guitar,6,4,hanamokatanamo,0.3542044460773468,0
63,100,0.5818181818181818,110,1,52,DL_Guitar,6,9,hanamokatanamo,0.9990057349205017,1
63,100,0.5181818181818182,435,1,52,DL_Guitar,6,8,hanamokatanamo,0.2312087118625641,0
63,100,0.37727272727272726,721,1,52,DL_Guitar,6,6,hanamokatanamo,0.26592791080474854,0
63,100,0.1409090909090909,861,0,52,DL_Guitar,6,2,hanamokatanamo,0.3542056381702423,0
63,100,0.9181818181818182,18,1,53,DL_Guitar,6,15,hanamokatanamo,0.9988419413566589,1
56,100,0.1590909090909091,254,1,53,DL_Guitar,6,3,hanamokatanamo,0.13725081086158752,0
63,100,0.18181818181818182,289,0,53,DL_Guitar,6,3,hanamokatanamo,0.15978118777275085,0
63,100,0.3409090909090909,378,0,53,DL_Guitar,6,5,hanamokatanamo,0.18645045161247253,0
63,100,0.5590909090909091,480,0,53,DL_Guitar,6,9,hanamokatanamo,0.25817394256591797,0
53,100,0.3,26,1,54,DL_Guitar,6,5,hanamokatanamo,0.9990057349205017,1
61,100,0.8363636363636363,150,0,54,DL_Guitar,6,13,hanamokatanamo,0.23120228946208954,0
61,100,0.21818181818181817,370,0,54,DL_Guitar,6,3,hanamokatanamo,0.26592567563056946,0
63,100,0.42272727272727273,848,1,54,DL_Guitar,6,7,hanamokatanamo,0.3541896641254425,0
63,100,1.559090909090909,166,1,55,DL_Guitar,6,15,hanamokatanamo,0.9990057349205017,1
60,100,0.21818181818181817,523,1,55,DL_Guitar,6,3,hanamokatanamo,0.23120631277561188,0
53,100,0.1409090909090909,694,0,55,DL_Guitar,6,2,hanamokatanamo,0.2659231424331665,0
53,100,0.21818181818181817,735,0,55,DL_Guitar,6,3,hanamokatanamo,0.3541945815086365,0
56,100,0.1590909090909091,273,1,56,DL_Guitar,6,3,hanamokatanamo,0.9983165264129639,1
61,100,0.9227272727272727,421,0,56,DL_Guitar,6,15,hanamokatanamo,0.544553816318512,0
63,100,0.11818181818181818,593,1,57,DL_Guitar,6,2,hanamokatanamo,0.9983164072036743,1
63,100,0.759090909090909,625,0,57,DL_Guitar,6,12,hanamokatanamo,0.5445661544799805,0
63,100,0.13636363636363635,370,1,58,DL_Guitar,6,2,hanamokatanamo,0.9990057349205017,1
63,100,0.11818181818181818,528,0,58,DL_Guitar,6,2,hanamokatanamo,0.2312069684267044,0
53,100,0.4,655,0,58,DL_Guitar,6,6,hanamokatanamo,0.2659302055835724,0
61,100,0.42272727272727273,774,0,58,DL_Guitar,6,7,hanamokatanamo,0.35421156883239746,0
61,100,0.3,34,1,59,DL_Guitar,6,5,hanamokatanamo,0.979255735874176,0
63,100,1.040909090909091,553,1,64,DL_Guitar,6,15,hanamokatanamo,0.9983164072036743,1
63,100,0.7181818181818181,853,1,64,DL_Guitar,6,11,hanamokatanamo,0.5445659160614014,0
63,100,0.1409090909090909,176,1,65,DL_Guitar,6,2,hanamokatanamo,0.9983164072036743,1
63,100,0.38181818181818183,220,0,65,DL_Guitar,6,6,hanamokatanamo,0.5445672273635864,0
53,100,0.6,113,1,68,DL_Guitar,6,10,hanamokatanamo,0.9990230798721313,1
53,100,0.6409090909090909,307,0,68,DL_Guitar,6,10,hanamokatanamo,0.3666156232357025,0
77,100,0.1590909090909091,593,1,68,DL_Guitar,6,3,hanamokatanamo,0.45328769087791443,0
63,100,0.35909090909090907,193,1,69,DL_Guitar,6,6,hanamokatanamo,0.9986500144004822,1
63,100,0.5590909090909091,276,0,69,DL_Guitar,6,9,hanamokatanamo,0.08780499547719955,0
63,100,0.2,443,0,69,DL_Guitar,6,3,hanamokatanamo,0.09182041883468628,0
63,100,0.1,612,0,69,DL_Guitar,6,2,hanamokatanamo,0.10748445242643356,0
63,100,0.1,650,0,69,DL_Guitar,6,2,hanamokatanamo,0.12483903765678406,0
63,100,1.6181818181818182,700,0,69,DL_Guitar,6,15,hanamokatanamo,0.17904429137706757,0
53,100,0.2590909090909091,343,1,70,DL_Guitar,6,4,hanamokatanamo,0.9990057349205017,1
53,100,0.9,462,0,70,DL_Guitar,6,14,hanamokatanamo,0.23119889199733734,0
65,100,0.35909090909090907,682,0,70,DL_Guitar,6,6,hanamokatanamo,0.2659153640270233,0
53,100,0.11818181818181818,766,0,70,DL_Guitar,6,2,hanamokatanamo,0.35419151186943054,0
65,100,0.16363636363636364,3,1,71,DL_Guitar,6,3,hanamokatanamo,0.9988419413566589,1
77,100,0.23636363636363636,260,1,71,DL_Guitar,6,4,hanamokatanamo,0.13724389672279358,0
77,100,0.4,320,0,71,DL_Guitar,6,6,hanamokatanamo,0.1597767025232315,0
77,100,0.3,413,0,71,DL_Guitar,6,5,hanamokatanamo,0.1864449828863144,0
63,100,0.2636363636363636,509,0,71,DL_Guitar,6,4,hanamokatanamo,0.25816166400909424,0
63,100,0.11818181818181818,96,1,72,DL_Guitar,6,2,hanamokatanamo,0.9986500144004822,1
63,100,0.21818181818181817,700,1,72,DL_Guitar,6,3,hanamokatanamo,0.08780733495950699,0
63,100,0.1,756,0,72,DL_Guitar,6,2,hanamokatanamo,0.09181994944810867,0
75,100,0.1,783,0,72,DL_Guitar,6,2,hanamokatanamo,0.10748325288295746,0
63,100,0.3,805,0,72,DL_Guitar,6,5,hanamokatanamo,0.12483890354633331,0
75,100,0.1,870,0,72,DL_Guitar,6,2,hanamokatanamo,0.17904971539974213,0
75,100,0.2,30,1,73,DL_Guitar,6,3,hanamokatanamo,0.9990229606628418,1
63,100,0.35909090909090907,74,0,73,DL_Guitar,6,6,hanamokatanamo,0.3666357696056366,0
63,100,0.8636363636363636,157,0,73,DL_Guitar,6,14,hanamokatanamo,0.4533020257949829,0
62,100,0.8409090909090909,466,1,74,DL_Guitar,6,13,hanamokatanamo,0.9983165264129639,1
62,100,0.22272727272727272,663,0,74,DL_Guitar,6,4,hanamokatanamo,0.5445619821548462,0
62,100,0.1590909090909091,9,1,75,DL_Guitar,6,3,hanamokatanamo,0.9990057349205017,1
59,100,1.0818181818181818,92,0,75,DL_Guitar,6,15,hanamokatanamo,0.23121076822280884,0
61,100,1.0363636363636364,567,1,75,DL_Guitar,6,15,hanamokatanamo,0.2659228444099426,0
59,100,1.1590909090909092,823,1,75,DL_Guitar,6,15,hanamokatanamo,0.35420286655426025,0
61,100,1.2,202,1,76,DL_Guitar,6,15,hanamokatanamo,0.9983162879943848,1
61,100,3.2,509,1,76,DL_Guitar,6,15,hanamokatanamo,0.5445343255996704,0
62,100,1.2227272727272727,343,1,77,DL_Guitar,6,15,hanamokatanamo,0.9983164072036743,1
62,100,0.5,853,1,77,DL_Guitar,6,8,hanamokatanamo,0.5445666909217834,0
57,100,0.4590909090909091,132,1,78,DL_Guitar,6,7,hanamokatanamo,0.9990229606628418,1
62,100,0.8181818181818182,502,1,78,DL_Guitar,6,13,hanamokatanamo,0.3666285574436188,0
62,100,0.3,826,1,78,DL_Guitar,6,5,hanamokatanamo,0.45330026745796204,0
54,100,0.12272727272727273,26,1,79,DL_Guitar,6,2,hanamokatanamo,0.9986500144004822,1
62,100,0.13636363636363635,83,0,79,DL_Guitar,6,2,hanamokatanamo,0.08780528604984283,0
68,100,0.2,123,0,79,DL_Guitar,6,3,hanamokatanamo,0.0918131023645401,0
68,100,0.12272727272727273,377,1,79,DL_Guitar,6,2,hanamokatanamo,0.10748234391212463,0
68,100,0.5227272727272727,509,0,79,DL_Guitar,6,8,hanamokatanamo,0.12482402473688126,0
61,100,0.8363636363636363,633,0,79,DL_Guitar,6,13,hanamokatanamo,0.17903171479701996,0
59,100,0.41818181818181815,9,1,80,DL_Guitar,6,7,hanamokatanamo,0.9986500144004822,1
59,100,0.11818181818181818,132,0,80,DL_Guitar,6,2,hanamokatanamo,0.0878039225935936,0
64,100,0.7363636363636363,303,0,80,DL_Guitar,6,12,hanamokatanamo,0.09181270748376846,0
61,100,0.17727272727272728,646,1,80,DL_Guitar,6,3,hanamokatanamo,0.10747722536325455,0
69,100,0.2590909090909091,713,0,80,DL_Guitar,6,4,hanamokatanamo,0.1248314306139946,0
62,100,0.4409090909090909,779,0,80,DL_Guitar,6,7,hanamokatanamo,0.1790369302034378,0
62,100,0.13636363636363635,17,1,81,DL_Guitar,6,2,hanamokatanamo,0.9988419413566589,1
62,100,0.5772727272727273,53,0,81,DL_Guitar,6,9,hanamokatanamo,0.13724909722805023,0
59,100,0.3,597,1,81,DL_Guitar,6,5,hanamokatanamo,0.15978491306304932,0
68,100,0.6181818181818182,677,0,81,DL_Guitar,6,10,hanamokatanamo,0.18644914031028748,0
52,100,0.12272727272727273,817,0,81,DL_Guitar,6,2,hanamokatanamo,0.25817832350730896,0
68,100,0.18181818181818182,3,1,82,DL_Guitar,6,3,hanamokatanamo,0.9982553124427795,1
57,100,0.3181818181818182,66,0,82,DL_Guitar,6,5,hanamokatanamo,0.04128757491707802,0
61,100,0.2,166,0,82,DL_Guitar,6,3,hanamokatanamo,0.02893407829105854,0
61,100,0.2590909090909091,273,0,82,DL_Guitar,6,4,hanamokatanamo,0.021287977695465088,0
64,100,0.2818181818181818,330,0,82,DL_Guitar,6,5,hanamokatanamo,0.016745174303650856,0
57,100,0.37727272727272726,436,0,82,DL_Guitar,6,6,hanamokatanamo,0.014917990192770958,0
61,100,0.2772727272727273,567,0,82,DL_Guitar,6,4,hanamokatanamo,0.016016021370887756,0
57,100,0.2590909090909091,633,0,82,DL_Guitar,6,4,hanamokatanamo,0.021179620176553726,0
61,100,0.2590909090909091,700,0,82,DL_Guitar,6,4,hanamokatanamo,0.03156759962439537,0
61,100,0.4409090909090909,826,0,82,DL_Guitar,6,7,hanamokatanamo,0.060058917850255966,0
59,100,0.12272727272727273,92,1,83,DL_Guitar,6,2,hanamokatanamo,0.9986500144004822,1
64,100,0.17727272727272728,127,0,83,DL_Guitar,6,3,hanamokatanamo,0.08780399709939957,0
57,100,0.33636363636363636,193,0,83,DL_Guitar,6,5,hanamokatanamo,0.09181609004735947,0
61,100,0.5227272727272727,320,0,83,DL_Guitar,6,8,hanamokatanamo,0.10748399049043655,0
57,100,0.9590909090909091,483,0,83,DL_Guitar,6,15,hanamokatanamo,0.12482952326536179,0
62,100,1.2,703,0,83,DL_Guitar,6,15,hanamokatanamo,0.17903776466846466,0
62,100,0.1409090909090909,263,1,84,DL_Guitar,6,2,hanamokatanamo,0.9990057349205017,1
52,100,0.1,663,1,84,DL_Guitar,6,2,hanamokatanamo,0.23120743036270142,0
64,100,0.16363636363636364,752,0,84,DL_Guitar,6,3,hanamokatanamo,0.2659256160259247,0
68,100,0.1590909090909091,810,0,84,DL_Guitar,6,3,hanamokatanamo,0.35419514775276184,0
64,100,0.18181818181818182,66,1,85,DL_Guitar,6,3,hanamokatanamo,0.9984880685806274,1
64,100,0.11818181818181818,197,0,85,DL_Guitar,6,2,hanamokatanamo,0.06334608793258667,0
59,100,0.23636363636363636,237,0,85,DL_Guitar,6,4,hanamokatanamo,0.05774429067969322,0
64,100,0.16363636363636364,289,0,85,DL_Guitar,6,3,hanamokatanamo,0.060206249356269836,0
57,100,0.3181818181818182,493,0,85,DL_Guitar,6,5,hanamokatanamo,0.0697091743350029,0
57,100,0.759090909090909,567,0,85,DL_Guitar,6,12,hanamokatanamo,0.08190374076366425,0
57,100,0.8409090909090909,752,0,85,DL_Guitar,6,13,hanamokatanamo,0.12402607500553131,0
61,100,0.32272727272727275,56,1,86,DL_Guitar,6,5,hanamokatanamo,0.9988419413566589,1
61,100,1.0,140,0,86,DL_Guitar,6,15,hanamokatanamo,0.13724830746650696,0
64,100,0.2772727272727273,559,1,86,DL_Guitar,6,4,hanamokatanamo,0.1597822606563568,0
62,100,1.0,624,0,86,DL_Guitar,6,15,hanamokatanamo,0.18645471334457397,0
62,100,0.1409090909090909,849,0,86,DL_Guitar,6,2,hanamokatanamo,0.25817951560020447,0
57,100,0.21818181818181817,17,1,87,DL_Guitar,6,3,hanamokatanamo,0.9990057349205017,1
62,100,0.6590909090909091,210,0,87,DL_Guitar,6,11,hanamokatanamo,0.23121234774589539,0
68,100,0.32272727272727275,773,1,87,DL_Guitar,6,5,hanamokatanamo,0.2659248113632202,0
68,100,0.1409090909090909,862,0,87,DL_Guitar,6,2,hanamokatanamo,0.35420480370521545,0
68,100,1.459090909090909,87,1,88,DL_Guitar,6,15,hanamokatanamo,0.9983164072036743,1
68,100,0.18181818181818182,417,1,88,DL_Guitar,6,3,hanamokatanamo,0.5445594787597656,0
62,100,0.12272727272727273,509,1,89,DL_Guitar,6,2,hanamokatanamo,0.979256272315979,0
61,100,0.3,480,1,90,DL_Guitar,6,5,hanamokatanamo,0.9988419413566589,1
64,100,0.2818181818181818,553,0,90,DL_Guitar,6,5,hanamokatanamo,0.13725091516971588,0
64,100,0.3,619,0,90,DL_Guitar,6,5,hanamokatanamo,0.15978564321994781,0
61,100,0.5,690,0,90,DL_Guitar,6,8,hanamokatanamo,0.18645216524600983,0
57,100,1.7363636363636363,810,0,90,DL_Guitar,6,15,hanamokatanamo,0.2581682801246643,0
62,100,0.3181818181818182,316,1,91,DL_Guitar,6,5,hanamokatanamo,0.979255735874176,0
68,100,0.17727272727272728,546,1,92,DL_Guitar,6,3,hanamokatanamo,0.9988419413566589,1
69,100,0.4590909090909091,646,0,92,DL_Guitar,6,7,hanamokatanamo,0.13724775612354279,0
57,100,0.2,747,0,92,DL_Guitar,6,3,hanamokatanamo,0.1597817987203598,0
64,100,0.2,805,0,92,DL_Guitar,6,3,hanamokatanamo,0.1864563226699829,0
57,100,0.5590909090909091,853,0,92,DL_Guitar,6,9,hanamokatanamo,0.2581673264503479,0
61,100,0.3181818181818182,110,1,93,DL_Guitar,6,5,hanamokatanamo,0.9990229606628418,1
57,100,0.4,229,0,93,DL_Guitar,6,6,hanamokatanamo,0.3666212558746338,0
61,100,0.17727272727272728,383,0,93,DL_Guitar,6,3,hanamokatanamo,0.45329251885414124,0
68,100,0.12272727272727273,255,1,94,DL_Guitar,6,2,hanamokatanamo,0.9990057349205017,1
68,100,0.1,509,1,94,DL_Guitar,6,2,hanamokatanamo,0.2312011569738388,0
59,100,0.36363636363636365,663,0,94,DL_Guitar,6,6,hanamokatanamo,0.2659206986427307,0
61,100,0.2409090909090909,773,0,94,DL_Guitar,6,4,hanamokatanamo,0.3541923463344574,0
64,100,0.3181818181818182,140,1,95,DL_Guitar,6,5,hanamokatanamo,0.9988419413566589,1
57,100,0.5409090909090909,210,0,95,DL_Guitar,6,9,hanamokatanamo,0.13725152611732483,0
64,100,0.2,347,0,95,DL_Guitar,6,3,hanamokatanamo,0.15978528559207916,0
57,100,1.0772727272727274,413,0,95,DL_Guitar,6,15,hanamokatanamo,0.1864546239376068,0
56,100,0.9181818181818182,656,1,95,DL_Guitar,6,15,hanamokatanamo,0.2581714391708374,0
62,100,0.12272727272727273,26,1,96,DL_Guitar,6,2,hanamokatanamo,0.9983165264129639,1
52,100,0.1590909090909091,550,1,96,DL_Guitar,6,3,hanamokatanamo,0.5445613861083984,0
57,100,1.8,233,1,97,DL_Guitar,6,15,hanamokatanamo,0.9983164072036743,1
57,100,0.2590909090909091,823,1,97,DL_Guitar,6,4,hanamokatanamo,0.5445674061775208,0
57,100,0.6590909090909091,166,1,98,DL_Guitar,6,11,hanamokatanamo,0.9983736276626587,1
62,100,0.3,320,0,98,DL_Guitar,6,5,hanamokatanamo,0.05106194689869881,0
62,100,0.2590909090909091,430,0,98,DL_Guitar,6,4,hanamokatanamo,0.04130353033542633,0
57,100,0.2409090909090909,527,0,98,DL_Guitar,6,4,hanamokatanamo,0.03738674893975258,0
62,100,0.11818181818181818,580,0,98,DL_Guitar,6,2,hanamokatanamo,0.03833123669028282,0
62,100,0.1,633,0,98,DL_Guitar,6,2,hanamokatanamo,0.044754303991794586,0
57,100,0.12272727272727273,695,0,98,DL_Guitar,6,2,hanamokatanamo,0.05523224547505379,0
68,100,0.11818181818181818,876,0,98,DL_Guitar,6,2,hanamokatanamo,0.09026788175106049,0
68,100,0.2,53,1,99,DL_Guitar,6,3,hanamokatanamo,0.9983736276626587,1
68,100,0.2,110,0,99,DL_Guitar,6,3,hanamokatanamo,0.05105959624052048,0
68,100,0.1409090909090909,197,0,99,DL_Guitar,6,2,hanamokatanamo,0.04130128026008606,0
59,100,0.35909090909090907,316,0,99,DL_Guitar,6,6,hanamokatanamo,0.03738488256931305,0
68,100,0.11818181818181818,726,1,99,DL_Guitar,6,2,hanamokatanamo,0.03832761570811272,0
61,100,0.3181818181818182,770,0,99,DL_Guitar,6,5,hanamokatanamo,0.044750552624464035,0
68,100,0.1409090909090909,844,0,99,DL_Guitar,6,2,hanamokatanamo,0.055225640535354614,0
61,100,0.2,876,0,99,DL_Guitar,6,3,hanamokatanamo,0.09026490151882172,0
64,100,0.23636363636363636,40,1,100,DL_Guitar,6,4,hanamokatanamo,0.9990057349205017,1
61,100,0.5,96,0,100,DL_Guitar,6,8,hanamokatanamo,0.23119685053825378,0
61,100,0.6181818181818182,237,0,100,DL_Guitar,6,10,hanamokatanamo,0.2659189999103546,0
64,100,0.5181818181818182,483,1,100,DL_Guitar,6,8,hanamokatanamo,0.35420429706573486,0
57,100,0.18181818181818182,189,1,101,DL_Guitar,6,3,hanamokatanamo,0.9990057349205017,1
52,100,0.1,282,0,101,DL_Guitar,6,2,hanamokatanamo,0.23120154440402985,0
52,100,0.1,330,0,101,DL_Guitar,6,2,hanamokatanamo,0.26592347025871277,0
52,100,0.38181818181818183,813,1,101,DL_Guitar,6,6,hanamokatanamo,0.3542032837867737,0
64,100,0.11818181818181818,87,1,104,DL_Guitar,6,2,hanamokatanamo,0.9983737468719482,1
57,100,0.2,255,0,104,DL_Guitar,6,3,hanamokatanamo,0.05106164887547493,0
57,100,0.13636363636363635,370,0,104,DL_Guitar,6,2,hanamokatanamo,0.041304562240839005,0
57,100,0.2590909090909091,413,0,104,DL_Guitar,6,4,hanamokatanamo,0.03738712891936302,0
52,100,0.2590909090909091,480,0,104,DL_Guitar,6,4,hanamokatanamo,0.03833239898085594,0
57,100,0.21818181818181817,536,0,104,DL_Guitar,6,3,hanamokatanamo,0.044754087924957275,0
57,100,0.3,597,0,104,DL_Guitar,6,5,hanamokatanamo,0.055232029408216476,0
57,100,0.8409090909090909,695,0,104,DL_Guitar,6,13,hanamokatanamo,0.09026861935853958,0
64,100,0.18181818181818182,202,1,105,DL_Guitar,6,3,hanamokatanamo,0.9792567491531372,1
57,100,0.17727272727272728,492,1,0,DL_Guitar,6,3,umontaturo_upbeat,0.9792558550834656,0
69,100,0.33636363636363636,39,1,1,DL_Guitar,6,5,umontaturo_upbeat,0.9986500144004822,1
52,100,0.7,166,0,1,DL_Guitar,6,11,umontaturo_upbeat,0.08780377358198166,0
52,100,0.1,351,0,1,DL_Guitar,6,2,umontaturo_upbeat,0.09181481599807739,0
59,100,0.1409090909090909,449,0,1,DL_Guitar,6,2,umontaturo_upbeat,0.1074802353978157,0
52,100,0.11818181818181818,638,0,1,DL_Guitar,6,2,umontaturo_upbeat,0.1248302087187767,0
54,100,0.4409090909090909,796,0,1,DL_Guitar,6,7,umontaturo_upbeat,0.17903737723827362,0
59,100,0.2,12,1,2,DL_Guitar,6,3,umontaturo_upbeat,0.9990230798721313,1
54,100,0.3409090909090909,421,1,2,DL_Guitar,6,5,umontaturo_upbeat,0.36662688851356506,0
57,100,0.33636363636363636,501,0,2,DL_Guitar,6,5,umontaturo_upbeat,0.4532873332500458,0
57,100,0.1409090909090909,70,1,3,DL_Guitar,6,2,umontaturo_upbeat,0.9990057349205017,1
69,100,0.2772727272727273,295,0,3,DL_Guitar,6,4,umontaturo_upbeat,0.2311982363462448,0
59,100,0.3,550,1,3,DL_Guitar,6,5,umontaturo_upbeat,0.26591798663139343,0
64,100,0.2818181818181818,629,0,3,DL_Guitar,6,5,umontaturo_upbeat,0.3541994094848633,0
61,100,0.2590909090909091,255,1,4,DL_Guitar,6,4,umontaturo_upbeat,0.9983164072036743,1
64,100,0.3,871,1,4,DL_Guitar,6,5,umontaturo_upbeat,0.5445638298988342,0
52,100,0.3,56,1,5,DL_Guitar,6,5,umontaturo_upbeat,0.9990057349205017,1
69,100,0.11818181818181818,514,1,5,DL_Guitar,6,2,umontaturo_upbeat,0.23119935393333435,0
52,100,0.5772727272727273,678,0,5,DL_Guitar,6,9,umontaturo_upbeat,0.2659159004688263,0
52,100,0.2636363636363636,862,0,5,DL_Guitar,6,4,umontaturo_upbeat,0.3541988432407379,0
64,100,0.1,79,1,6,DL_Guitar,6,2,umontaturo_upbeat,0.9990057349205017,1
52,100,0.8,105,0,6,DL_Guitar,6,13,umontaturo_upbeat,0.23120075464248657,0
54,100,0.43636363636363634,414,1,6,DL_Guitar,6,7,umontaturo_upbeat,0.26592525839805603,0
59,100,0.2409090909090909,514,0,6,DL_Guitar,6,4,umontaturo_upbeat,0.3541974723339081,0
54,100,0.1409090909090909,87,1,7,DL_Guitar,6,2,umontaturo_upbeat,0.9990230798721313,1
57,100,0.32272727272727275,122,0,7,DL_Guitar,6,5,umontaturo_upbeat,0.36661195755004883,0
54,100,0.1409090909090909,317,0,7,DL_Guitar,6,2,umontaturo_upbeat,0.4532892107963562,0
59,100,0.1,34,1,8,DL_Guitar,6,2,umontaturo_upbeat,0.9984880685806274,1
52,100,0.1,127,0,8,DL_Guitar,6,2,umontaturo_upbeat,0.0633450374007225,0
59,100,0.37727272727272726,347,0,8,DL_Guitar,6,6,umontaturo_upbeat,0.057742640376091,0
54,100,0.3409090909090909,448,0,8,DL_Guitar,6,5,umontaturo_upbeat,0.06020301952958107,0
52,100,0.38181818181818183,673,0,8,DL_Guitar,6,6,umontaturo_upbeat,0.06970254331827164,0
57,100,0.3,766,0,8,DL_Guitar,6,5,umontaturo_upbeat,0.08189433068037033,0
52,100,0.1,840,0,8,DL_Guitar,6,2,umontaturo_upbeat,0.12402596324682236,0
57,100,0.21818181818181817,0,1,9,DL_Guitar,6,3,umontaturo_upbeat,0.9984880685806274,1
61,100,0.23636363636363636,106,0,9,DL_Guitar,6,4,umontaturo_upbeat,0.06334524601697922,0
57,100,0.2590909090909091,163,0,9,DL_Guitar,6,4,umontaturo_upbeat,0.05774178355932236,0
61,100,0.2772727272727273,405,1,9,DL_Guitar,6,4,umontaturo_upbeat,0.06020360067486763,0
57,100,0.11818181818181818,484,0,9,DL_Guitar,6,2,umontaturo_upbeat,0.06970424205064774,0
57,100,0.1409090909090909,515,0,9,DL_Guitar,6,2,umontaturo_upbeat,0.08189857751131058,0
52,100,0.23636363636363636,809,1,9,DL_Guitar,6,4,umontaturo_upbeat,0.12402860075235367,0
52,100,0.2409090909090909,113,1,10,DL_Guitar,6,4,umontaturo_upbeat,0.9984880685806274,1
52,100,0.2409090909090909,299,0,10,DL_Guitar,6,4,umontaturo_upbeat,0.06334541738033295,0
64,100,0.1,400,0,10,DL_Guitar,6,2,umontaturo_upbeat,0.057743754237890244,0
59,100,0.32272727272727275,431,0,10,DL_Guitar,6,5,umontaturo_upbeat,0.06020278483629227,0
52,100,0.1590909090909091,611,0,10,DL_Guitar,6,3,umontaturo_upbeat,0.0697028711438179,0
52,100,0.43636363636363634,656,0,10,DL_Guitar,6,7,umontaturo_upbeat,0.08189657330513,0
52,100,0.4409090909090909,795,0,10,DL_Guitar,6,7,umontaturo_upbeat,0.1240229532122612,0
52,100,0.11818181818181818,264,1,11,DL_Guitar,6,2,umontaturo_upbeat,0.9792565107345581,0
66,100,0.17727272727272728,185,1,12,DL_Guitar,6,3,umontaturo_upbeat,0.9990230798721313,1
52,100,0.1,572,1,12,DL_Guitar,6,2,umontaturo_upbeat,0.36663028597831726,0
68,100,0.2590909090909091,756,0,12,DL_Guitar,6,4,umontaturo_upbeat,0.4532914459705353,0
54,100,0.2590909090909091,189,1,13,DL_Guitar,6,4,umontaturo_upbeat,0.9983165264129639,1
54,100,0.1,691,1,13,DL_Guitar,6,2,umontaturo_upbeat,0.5445574522018433,0
64,100,0.11818181818181818,457,1,14,DL_Guitar,6,2,umontaturo_upbeat,0.9988419413566589,1
71,100,0.18181818181818182,496,0,14,DL_Guitar,6,3,umontaturo_upbeat,0.13724534213542938,0
72,100,0.16363636363636364,553,0,14,DL_Guitar,6,3,umontaturo_upbeat,0.1597786247730255,0
68,100,0.11818181818181818,625,0,14,DL_Guitar,6,2,umontaturo_upbeat,0.18644438683986664,0
64,100,0.2590909090909091,871,1,14,DL_Guitar,6,4,umontaturo_upbeat,0.2581673264503479,0
54,100,0.1,694,1,15,DL_Guitar,6,2,umontaturo_upbeat,0.9983165264129639,1
55,100,0.1,747,0,15,DL_Guitar,6,2,umontaturo_upbeat,0.5445510745048523,0
52,100,0.2,52,1,16,DL_Guitar,6,3,umontaturo_upbeat,0.9990229606628418,1
52,100,0.35909090909090907,100,0,16,DL_Guitar,6,6,umontaturo_upbeat,0.3666231632232666,0
52,100,0.1409090909090909,638,1,16,DL_Guitar,6,2,umontaturo_upbeat,0.45329591631889343,0
52,100,0.2,193,1,17,DL_Guitar,6,3,umontaturo_upbeat,0.9990229606628418,1
52,100,0.2409090909090909,250,0,17,DL_Guitar,6,4,umontaturo_upbeat,0.36662107706069946,0
55,100,0.16363636363636364,443,0,17,DL_Guitar,6,3,umontaturo_upbeat,0.4532933235168457,0
55,100,0.1,492,1,18,DL_Guitar,6,2,umontaturo_upbeat,0.979256272315979,0
57,100,0.2590909090909091,430,1,19,DL_Guitar,6,4,umontaturo_upbeat,0.9990057349205017,1
52,100,0.2636363636363636,488,0,19,DL_Guitar,6,4,umontaturo_upbeat,0.23120519518852234,0
64,100,0.1,677,0,19,DL_Guitar,6,2,umontaturo_upbeat,0.2659207284450531,0
64,100,0.2,704,0,19,DL_Guitar,6,3,umontaturo_upbeat,0.35420486330986023,0
54,100,1.0818181818181818,57,1,20,DL_Guitar,6,15,umontaturo_upbeat,0.9988419413566589,1
54,100,0.17727272727272728,382,1,20,DL_Guitar,6,3,umontaturo_upbeat,0.13725189864635468,0
54,100,0.1409090909090909,426,0,20,DL_Guitar,6,2,umontaturo_upbeat,0.15978197753429413,0
57,100,0.2636363636363636,686,1,20,DL_Guitar,6,4,umontaturo_upbeat,0.18644839525222778,0
57,100,0.18181818181818182,760,0,20,DL_Guitar,6,3,umontaturo_upbeat,0.25816890597343445,0
57,100,0.23636363636363636,106,1,21,DL_Guitar,6,4,umontaturo_upbeat,0.9988419413566589,1
57,100,0.1,179,0,21,DL_Guitar,6,2,umontaturo_upbeat,0.13724848628044128,0
57,100,0.38181818181818183,285,0,21,DL_Guitar,6,6,umontaturo_upbeat,0.15977893769741058,0
61,100,0.21818181818181817,505,0,21,DL_Guitar,6,3,umontaturo_upbeat,0.18645094335079193,0
57,100,0.11818181818181818,590,0,21,DL_Guitar,6,2,umontaturo_upbeat,0.2581683099269867,0
54,100,1.0772727272727274,326,1,22,DL_Guitar,6,15,umontaturo_upbeat,0.9990229606628418,1
54,100,0.2818181818181818,694,1,22,DL_Guitar,6,5,umontaturo_upbeat,0.36662864685058594,0
62,100,0.1409090909090909,791,0,22,DL_Guitar,6,2,umontaturo_upbeat,0.45328518748283386,0
57,100,0.1,206,1,23,DL_Guitar,6,2,umontaturo_upbeat,0.9988419413566589,1
57,100,0.35909090909090907,299,0,23,DL_Guitar,6,6,umontaturo_upbeat,0.1372493952512741,0
57,100,0.1590909090909091,382,0,23,DL_Guitar,6,3,umontaturo_upbeat,0.15977956354618073,0
52,100,0.6,546,0,23,DL_Guitar,6,10,umontaturo_upbeat,0.18644975125789642,0
52,100,0.12272727272727273,717,0,23,DL_Guitar,6,2,umontaturo_upbeat,0.25816744565963745,0
64,100,0.1409090909090909,9,1,24,DL_Guitar,6,2,umontaturo_upbeat,0.9983736276626587,1
54,100,0.4,48,0,24,DL_Guitar,6,6,umontaturo_upbeat,0.051061246544122696,0
54,100,0.2409090909090909,189,0,24,DL_Guitar,6,4,umontaturo_upbeat,0.0413038469851017,0
52,100,0.2590909090909091,308,0,24,DL_Guitar,6,4,umontaturo_upbeat,0.037387385964393616,0
68,100,0.1590909090909091,461,0,24,DL_Guitar,6,3,umontaturo_upbeat,0.03833058476448059,0
54,100,0.1409090909090909,515,0,24,DL_Guitar,6,2,umontaturo_upbeat,0.044754508882761,0
54,100,0.7772727272727272,567,0,24,DL_Guitar,6,12,umontaturo_upbeat,0.055230602622032166,0
54,100,0.21818181818181817,748,0,24,DL_Guitar,6,3,umontaturo_upbeat,0.0902671292424202,0
54,100,0.11818181818181818,52,1,25,DL_Guitar,6,2,umontaturo_upbeat,0.9986500144004822,1
54,100,0.11818181818181818,131,0,25,DL_Guitar,6,2,umontaturo_upbeat,0.08780348300933838,0
62,100,0.2409090909090909,316,0,25,DL_Guitar,6,4,umontaturo_upbeat,0.09181258827447891,0
62,100,0.2818181818181818,374,0,25,DL_Guitar,6,5,umontaturo_upbeat,0.10747959464788437,0
57,100,0.11818181818181818,677,1,25,DL_Guitar,6,2,umontaturo_upbeat,0.12483231723308563,0
61,100,0.1409090909090909,818,0,25,DL_Guitar,6,2,umontaturo_upbeat,0.17904247343540192,0
57,100,0.5363636363636364,61,1,26,DL_Guitar,6,9,umontaturo_upbeat,0.9990057349205017,1
52,100,0.35909090909090907,409,1,26,DL_Guitar,6,6,umontaturo_upbeat,0.23120233416557312,0
52,100,0.1590909090909091,515,0,26,DL_Guitar,6,3,umontaturo_upbeat,0.26592186093330383,0
52,100,0.5227272727272727,686,0,26,DL_Guitar,6,8,umontaturo_upbeat,0.35419803857803345,0
54,100,0.1409090909090909,57,1,27,DL_Guitar,6,2,umontaturo_upbeat,0.9990057349205017,1
62,100,0.1409090909090909,625,1,27,DL_Guitar,6,2,umontaturo_upbeat,0.23120638728141785,0
62,100,0.12272727272727273,739,0,27,DL_Guitar,6,2,umontaturo_upbeat,0.2659299373626709,0
57,100,0.2590909090909091,814,0,27,DL_Guitar,6,4,umontaturo_upbeat,0.35420241951942444,0
52,100,0.8,52,1,28,DL_Guitar,6,13,umontaturo_upbeat,0.9990229606628418,1
52,100,0.42272727272727273,443,1,28,DL_Guitar,6,7,umontaturo_upbeat,0.3666316270828247,0
52,100,0.5409090909090909,686,1,28,DL_Guitar,6,9,umontaturo_upbeat,0.4532943069934845,0
52,100,0.3,13,1,29,DL_Guitar,6,5,umontaturo_upbeat,0.9990229606628418,1
52,100,0.1590909090909091,83,0,29,DL_Guitar,6,3,umontaturo_upbeat,0.3666195273399353,0
64,100,0.2,119,0,29,DL_Guitar,6,3,umontaturo_upbeat,0.4532949924468994,0
57,100,0.4818181818181818,320,1,30,DL_Guitar,6,8,umontaturo_upbeat,0.9984880685806274,1
57,100,0.38181818181818183,440,0,30,DL_Guitar,6,6,umontaturo_upbeat,0.06334623694419861,0
69,100,0.1409090909090909,694,1,30,DL_Guitar,6,2,umontaturo_upbeat,0.05774426832795143,0
69,100,0.11818181818181818,735,0,30,DL_Guitar,6,2,umontaturo_upbeat,0.06020444631576538,0
57,100,0.1590909090909091,770,0,30,DL_Guitar,6,3,umontaturo_upbeat,0.06970705837011337,0
69,100,0.1,804,0,30,DL_Guitar,6,2,umontaturo_upbeat,0.08189886808395386,0
57,100,0.8409090909090909,866,0,30,DL_Guitar,6,13,umontaturo_upbeat,0.12402664870023727,0
57,100,0.5181818181818182,185,1,31,DL_Guitar,6,8,umontaturo_upbeat,0.9984880685806274,1
57,100,0.5409090909090909,308,0,31,DL_Guitar,6,9,umontaturo_upbeat,0.06334519386291504,0
52,100,0.18181818181818182,453,0,31,DL_Guitar,6,3,umontaturo_upbeat,0.05774331092834473,0
52,100,0.13636363636363635,523,0,31,DL_Guitar,6,2,umontaturo_upbeat,0.06020355224609375,0
59,100,0.35909090909090907,571,0,31,DL_Guitar,6,6,umontaturo_upbeat,0.06970615684986115,0
59,100,0.2590909090909091,700,0,31,DL_Guitar,6,4,umontaturo_upbeat,0.08190083503723145,0
52,100,0.1,822,0,31,DL_Guitar,6,2,umontaturo_upbeat,0.12402836978435516,0
59,100,0.5,188,1,32,DL_Guitar,6,8,umontaturo_upbeat,0.9986500144004822,1
54,100,0.1590909090909091,426,1,32,DL_Guitar,6,3,umontaturo_upbeat,0.08780407905578613,0
54,100,0.2636363636363636,488,0,32,DL_Guitar,6,4,umontaturo_upbeat,0.09181438386440277,0
59,100,0.1,593,0,32,DL_Guitar,6,2,umontaturo_upbeat,0.10747790336608887,0
54,100,0.3409090909090909,691,0,32,DL_Guitar,6,5,umontaturo_upbeat,0.12482783198356628,0
59,100,0.4772727272727273,831,0,32,DL_Guitar,6,8,umontaturo_upbeat,0.17903214693069458,0
57,100,0.2409090909090909,118,1,33,DL_Guitar,6,4,umontaturo_upbeat,0.9988419413566589,1
52,100,0.5181818181818182,308,0,33,DL_Guitar,6,8,umontaturo_upbeat,0.13725030422210693,0
52,100,0.1590909090909091,453,0,33,DL_Guitar,6,3,umontaturo_upbeat,0.15978172421455383,0
52,100,0.2,571,0,33,DL_Guitar,6,3,umontaturo_upbeat,0.18645742535591125,0
69,100,0.12272727272727273,818,1,33,DL_Guitar,6,2,umontaturo_upbeat,0.2581804096698761,0
69,100,0.2,69,1,34,DL_Guitar,6,3,umontaturo_upbeat,0.9986500144004822,1
57,100,0.2,188,0,34,DL_Guitar,6,3,umontaturo_upbeat,0.08780728280544281,0
57,100,0.22272727272727272,254,0,34,DL_Guitar,6,4,umontaturo_upbeat,0.09181831777095795,0
52,100,0.2,480,0,34,DL_Guitar,6,3,umontaturo_upbeat,0.10748817771673203,0
69,100,0.3,616,0,34,DL_Guitar,6,5,umontaturo_upbeat,0.12483277916908264,0
57,100,1.0818181818181818,818,0,34,DL_Guitar,6,15,umontaturo_upbeat,0.1790475696325302,0
57,100,0.5590909090909091,298,1,35,DL_Guitar,6,9,umontaturo_upbeat,0.9988419413566589,1
52,100,0.3,488,0,35,DL_Guitar,6,5,umontaturo_upbeat,0.13724899291992188,0
52,100,0.5772727272727273,558,0,35,DL_Guitar,6,9,umontaturo_upbeat,0.15977443754673004,0
59,100,0.3181818181818182,735,0,35,DL_Guitar,6,5,umontaturo_upbeat,0.18644946813583374,0
52,100,0.1409090909090909,826,0,35,DL_Guitar,6,2,umontaturo_upbeat,0.2581709921360016,0
57,100,0.22272727272727272,4,1,36,DL_Guitar,6,4,umontaturo_upbeat,0.9983736276626587,1
53,100,0.4818181818181818,66,0,36,DL_Guitar,6,8,umontaturo_upbeat,0.05106085538864136,0
53,100,0.5409090909090909,179,0,36,DL_Guitar,6,9,umontaturo_upbeat,0.04130256175994873,0
59,100,0.1590909090909091,325,0,36,DL_Guitar,6,3,umontaturo_upbeat,0.03738539293408394,0
53,100,0.37727272727272726,435,0,36,DL_Guitar,6,6,umontaturo_upbeat,0.038328491151332855,0
54,100,0.42272727272727273,554,0,36,DL_Guitar,6,7,umontaturo_upbeat,0.04475032910704613,0
54,100,0.1409090909090909,813,1,36,DL_Guitar,6,2,umontaturo_upbeat,0.05522867292165756,0
54,100,0.5409090909090909,871,0,36,DL_Guitar,6,9,umontaturo_upbeat,0.09026192128658295,0
54,100,0.5409090909090909,179,1,37,DL_Guitar,6,9,umontaturo_upbeat,0.9986500144004822,1
54,100,0.5,311,0,37,DL_Guitar,6,8,umontaturo_upbeat,0.08780185878276825,0
59,100,0.13636363636363635,523,0,37,DL_Guitar,6,2,umontaturo_upbeat,0.09181179851293564,0
59,100,0.1409090909090909,584,0,37,DL_Guitar,6,2,umontaturo_upbeat,0.10748037695884705,0
57,100,0.22272727272727272,628,0,37,DL_Guitar,6,4,umontaturo_upbeat,0.12482646107673645,0
59,100,0.2,708,0,37,DL_Guitar,6,3,umontaturo_upbeat,0.17903879284858704,0
59,100,0.2818181818181818,48,1,38,DL_Guitar,6,5,umontaturo_upbeat,0.9988419413566589,1
59,100,0.2,198,0,38,DL_Guitar,6,3,umontaturo_upbeat,0.13725237548351288,0
57,100,0.1590909090909091,260,0,38,DL_Guitar,6,3,umontaturo_upbeat,0.1597783863544464,0
57,100,0.1590909090909091,571,1,38,DL_Guitar,6,3,umontaturo_upbeat,0.18645450472831726,0
69,100,0.3,606,0,38,DL_Guitar,6,5,umontaturo_upbeat,0.25817811489105225,0
62,100,0.2,461,1,39,DL_Guitar,6,3,umontaturo_upbeat,0.9983165264129639,1
57,100,0.5590909090909091,804,1,39,DL_Guitar,6,9,umontaturo_upbeat,0.544562041759491,0
52,100,0.8772727272727273,75,1,40,DL_Guitar,6,14,umontaturo_upbeat,0.9988419413566589,1
52,100,0.13636363636363635,413,1,40,DL_Guitar,6,2,umontaturo_upbeat,0.1372501403093338,0
52,100,0.17727272727272728,448,0,40,DL_Guitar,6,3,umontaturo_upbeat,0.1597813218832016,0
65,100,0.2772727272727273,603,0,40,DL_Guitar,6,4,umontaturo_upbeat,0.1864500492811203,0
53,100,0.6,681,0,40,DL_Guitar,6,10,umontaturo_upbeat,0.2581713795661926,0
53,100,0.2636363636363636,48,1,41,DL_Guitar,6,4,umontaturo_upbeat,0.9983736276626587,1
59,100,0.18181818181818182,224,0,41,DL_Guitar,6,3,umontaturo_upbeat,0.05106210336089134,0
54,100,0.4772727272727273,316,0,41,DL_Guitar,6,8,umontaturo_upbeat,0.041302889585494995,0
59,100,0.2590909090909091,435,0,41,DL_Guitar,6,4,umontaturo_upbeat,0.03738625347614288,0
54,100,0.3,501,0,41,DL_Guitar,6,5,umontaturo_upbeat,0.038328949362039566,0
54,100,0.2409090909090909,576,0,41,DL_Guitar,6,4,umontaturo_upbeat,0.04475187882781029,0
54,100,0.2772727272727273,678,0,41,DL_Guitar,6,4,umontaturo_upbeat,0.05522731691598892,0
54,100,0.4590909090909091,813,0,41,DL_Guitar,6,7,umontaturo_upbeat,0.09026505053043365,0
59,100,0.2409090909090909,66,1,42,DL_Guitar,6,4,umontaturo_upbeat,0.9984880685806274,1
62,100,0.2,128,0,42,DL_Guitar,6,3,umontaturo_upbeat,0.0633459985256195,0
57,100,0.2,254,0,42,DL_Guitar,6,3,umontaturo_upbeat,0.05774357169866562,0
52,100,0.4818181818181818,321,0,42,DL_Guitar,6,8,umontaturo_upbeat,0.06020476296544075,0
59,100,0.2818181818181818,616,1,42,DL_Guitar,6,5,umontaturo_upbeat,0.06970470398664474,0
52,100,0.16363636363636364,708,0,42,DL_Guitar,6,3,umontaturo_upbeat,0.08189943432807922,0
52,100,0.11818181818181818,831,0,42,DL_Guitar,6,2,umontaturo_upbeat,0.12402486056089401,0
57,100,0.2818181818181818,48,1,43,DL_Guitar,6,5,umontaturo_upbeat,0.9990229606628418,1
69,100,0.3181818181818182,743,1,43,DL_Guitar,6,5,umontaturo_upbeat,0.3666335642337799,0
57,100,0.5181818181818182,813,0,43,DL_Guitar,6,8,umontaturo_upbeat,0.4532991945743561,0
64,100,0.1590909090909091,721,1,44,DL_Guitar,6,3,umontaturo_upbeat,0.9990230798721313,1
64,100,0.35909090909090907,788,0,44,DL_Guitar,6,6,umontaturo_upbeat,0.3666217029094696,0
64,100,0.32272727272727275,871,0,44,DL_Guitar,6,5,umontaturo_upbeat,0.45329606533050537,0
53,100,0.12272727272727273,211,1,45,DL_Guitar,6,2,umontaturo_upbeat,0.9988419413566589,1
65,100,0.18181818181818182,334,0,45,DL_Guitar,6,3,umontaturo_upbeat,0.13724809885025024,0
54,100,0.36363636363636365,686,1,45,DL_Guitar,6,6,umontaturo_upbeat,0.15977804362773895,0
54,100,0.23636363636363636,810,0,45,DL_Guitar,6,4,umontaturo_upbeat,0.18644721806049347,0
66,100,0.1409090909090909,866,0,45,DL_Guitar,6,2,umontaturo_upbeat,0.2581680715084076,0
62,100,0.3181818181818182,668,1,46,DL_Guitar,6,5,umontaturo_upbeat,0.9983165264129639,1
52,100,0.2818181818181818,826,0,46,DL_Guitar,6,5,umontaturo_upbeat,0.5445666313171387,0
52,100,0.12272727272727273,13,1,47,DL_Guitar,6,2,umontaturo_upbeat,0.9990057349205017,1
52,100,0.4409090909090909,43,0,47,DL_Guitar,6,7,umontaturo_upbeat,0.231204554438591,0
52,100,0.5818181818181818,179,0,47,DL_Guitar,6,9,umontaturo_upbeat,0.265926331281662,0
53,100,1.240909090909091,426,1,47,DL_Guitar,6,15,umontaturo_upbeat,0.35419341921806335,0
54,100,0.42272727272727273,48,1,48,DL_Guitar,6,7,umontaturo_upbeat,0.9990229606628418,1
61,100,0.2,163,0,48,DL_Guitar,6,3,umontaturo_upbeat,0.36662301421165466,0
61,100,0.4818181818181818,440,1,48,DL_Guitar,6,8,umontaturo_upbeat,0.4532954692840576,0
62,100,0.4,34,1,49,DL_Guitar,6,6,umontaturo_upbeat,0.9988420605659485,1
52,100,1.3590909090909091,176,0,49,DL_Guitar,6,15,umontaturo_upbeat,0.13725008070468903,0
52,100,0.2,480,1,49,DL_Guitar,6,3,umontaturo_upbeat,0.15978971123695374,0
52,100,0.1590909090909091,638,0,49,DL_Guitar,6,3,umontaturo_upbeat,0.18646365404129028,0
53,100,1.6363636363636365,678,0,49,DL_Guitar,6,15,umontaturo_upbeat,0.25816747546195984,0
54,100,0.23636363636363636,303,1,50,DL_Guitar,6,4,umontaturo_upbeat,0.9988419413566589,1
61,100,0.2409090909090909,440,0,50,DL_Guitar,6,4,umontaturo_upbeat,0.13724790513515472,0
61,100,0.4818181818181818,571,0,50,DL_Guitar,6,8,umontaturo_upbeat,0.1597748100757599,0
61,100,0.3,691,0,50,DL_Guitar,6,5,umontaturo_upbeat,0.18645291030406952,0
57,100,0.13636363636363635,788,0,50,DL_Guitar,6,2,umontaturo_upbeat,0.25816822052001953,0
52,100,0.5,431,1,51,DL_Guitar,6,8,umontaturo_upbeat,0.9990229606628418,1
52,100,0.1,545,0,51,DL_Guitar,6,2,umontaturo_upbeat,0.3666199743747711,0
52,100,0.11818181818181818,691,0,51,DL_Guitar,6,2,umontaturo_upbeat,0.453292578458786,0
54,100,0.1590909090909091,0,1,52,DL_Guitar,6,3,umontaturo_upbeat,0.9986500144004822,1
54,100,0.1,56,0,52,DL_Guitar,6,2,umontaturo_upbeat,0.08780641108751297,0
61,100,0.7,91,0,52,DL_Guitar,6,11,umontaturo_upbeat,0.0918143168091774,0
54,100,0.3,254,0,52,DL_Guitar,6,5,umontaturo_upbeat,0.1074867993593216,0
54,100,0.1,325,0,52,DL_Guitar,6,2,umontaturo_upbeat,0.12483484297990799,0
61,100,2.640909090909091,426,0,52,DL_Guitar,6,15,umontaturo_upbeat,0.17902418971061707,0
57,100,1.440909090909091,158,1,53,DL_Guitar,6,15,umontaturo_upbeat,0.9983164072036743,1
52,100,2.1,681,1,53,DL_Guitar,6,15,umontaturo_upbeat,0.5445576310157776,0
52,100,0.11818181818181818,303,1,54,DL_Guitar,6,2,umontaturo_upbeat,0.9792560338973999,0
57,100,0.18181818181818182,418,1,55,DL_Guitar,6,3,umontaturo_upbeat,0.9988419413566589,1
57,100,0.1409090909090909,518,0,55,DL_Guitar,6,2,umontaturo_upbeat,0.13725179433822632,0
57,100,0.37727272727272726,558,0,55,DL_Guitar,6,6,umontaturo_upbeat,0.1597798615694046,0
57,100,0.21818181818181817,660,0,55,DL_Guitar,6,3,umontaturo_upbeat,0.18645739555358887,0
57,100,0.38181818181818183,726,0,55,DL_Guitar,6,6,umontaturo_upbeat,0.2581700086593628,0
57,100,0.2409090909090909,625,1,56,DL_Guitar,6,4,umontaturo_upbeat,0.9983165264129639,1
57,100,0.4818181818181818,703,0,56,DL_Guitar,6,8,umontaturo_upbeat,0.5445560812950134,0
57,100,0.22272727272727272,4,1,57,DL_Guitar,6,4,umontaturo_upbeat,0.9984880685806274,1
57,100,0.4,91,0,57,DL_Guitar,6,6,umontaturo_upbeat,0.06334546208381653,0
57,100,0.4818181818181818,330,1,57,DL_Guitar,6,8,umontaturo_upbeat,0.05774178355932236,0
57,100,0.2590909090909091,453,0,57,DL_Guitar,6,4,umontaturo_upbeat,0.0602014996111393,0
69,100,0.1409090909090909,531,0,57,DL_Guitar,6,2,umontaturo_upbeat,0.0697031021118164,0
61,100,0.5,691,0,57,DL_Guitar,6,8,umontaturo_upbeat,0.08189453184604645,0
59,100,0.6,810,0,57,DL_Guitar,6,10,umontaturo_upbeat,0.12402278929948807,0
59,100,0.18181818181818182,153,1,58,DL_Guitar,6,3,umontaturo_upbeat,0.9990057349205017,1
59,100,0.1,215,0,58,DL_Guitar,6,2,umontaturo_upbeat,0.23120230436325073,0
52,100,0.4409090909090909,330,0,58,DL_Guitar,6,7,umontaturo_upbeat,0.2659205496311188,0
52,100,0.11818181818181818,536,0,58,DL_Guitar,6,2,umontaturo_upbeat,0.35420364141464233,0
61,100,0.1409090909090909,48,1,59,DL_Guitar,6,2,umontaturo_upbeat,0.9990229606628418,1
61,100,0.3,110,0,59,DL_Guitar,6,5,umontaturo_upbeat,0.3666270077228546,0
57,100,0.1409090909090909,770,1,59,DL_Guitar,6,2,umontaturo_upbeat,0.45329418778419495,0
57,100,0.11818181818181818,330,1,60,DL_Guitar,6,2,umontaturo_upbeat,0.9990229606628418,1
61,100,0.5636363636363636,421,0,60,DL_Guitar,6,9,umontaturo_upbeat,0.36662426590919495,0
61,100,0.3181818181818182,678,1,60,DL_Guitar,6,5,umontaturo_upbeat,0.4532880187034607,0
57,100,0.4636363636363636,444,1,61,DL_Guitar,6,7,umontaturo_upbeat,0.9990229606628418,1
54,100,0.35909090909090907,550,0,61,DL_Guitar,6,6,umontaturo_upbeat,0.3666212558746338,0
57,100,0.13636363636363635,633,0,61,DL_Guitar,6,2,umontaturo_upbeat,0.4532938003540039,0
57,100,0.11818181818181818,316,1,62,DL_Guitar,6,2,umontaturo_upbeat,0.9990057349205017,1
57,100,0.1,471,0,62,DL_Guitar,6,2,umontaturo_upbeat,0.23120373487472534,0
57,100,0.18181818181818182,628,0,62,DL_Guitar,6,3,umontaturo_upbeat,0.26592332124710083,0
59,100,0.4590909090909091,810,0,62,DL_Guitar,6,7,umontaturo_upbeat,0.35420119762420654,0
61,100,0.13636363636363635,171,1,63,DL_Guitar,6,2,umontaturo_upbeat,0.9983736276626587,1
59,100,0.35909090909090907,316,0,63,DL_Guitar,6,6,umontaturo_upbeat,0.05106247588992119,0
57,100,0.2409090909090909,431,0,63,DL_Guitar,6,4,umontaturo_upbeat,0.041303157806396484,0
54,100,0.1,691,1,63,DL_Guitar,6,2,umontaturo_upbeat,0.037386879324913025,0
54,100,0.17727272727272728,721,0,63,DL_Guitar,6,3,umontaturo_upbeat,0.038329776376485825,0
57,100,0.12272727272727273,774,0,63,DL_Guitar,6,2,umontaturo_upbeat,0.04475116357207298,0
54,100,0.11818181818181818,813,0,63,DL_Guitar,6,2,umontaturo_upbeat,0.05523012578487396,0
54,100,0.12272727272727273,848,0,63,DL_Guitar,6,2,umontaturo_upbeat,0.09026388078927994,0
57,100,0.1590909090909091,0,1,64,DL_Guitar,6,3,umontaturo_upbeat,0.9990229606628418,1
57,100,0.7181818181818181,550,1,64,DL_Guitar,6,11,umontaturo_upbeat,0.366627037525177,0
57,100,0.4,849,1,64,DL_Guitar,6,6,umontaturo_upbeat,0.45329684019088745,0
57,100,0.2409090909090909,66,1,65,DL_Guitar,6,4,umontaturo_upbeat,0.9990229606628418,1
59,100,0.8363636363636363,172,0,65,DL_Guitar,6,13,umontaturo_upbeat,0.36662301421165466,0
61,100,0.2409090909090909,404,1,65,DL_Guitar,6,4,umontaturo_upbeat,0.4532844126224518,0
59,100,0.8590909090909091,426,1,66,DL_Guitar,6,14,umontaturo_upbeat,0.9990229606628418,1
69,100,0.1,796,1,66,DL_Guitar,6,2,umontaturo_upbeat,0.36662670969963074,0
62,100,0.12272727272727273,849,0,66,DL_Guitar,6,2,umontaturo_upbeat,0.453291654586792,0
62,100,0.1590909090909091,0,1,67,DL_Guitar,6,3,umontaturo_upbeat,0.9983003735542297,1
64,100,0.5181818181818182,40,0,67,DL_Guitar,6,8,umontaturo_upbeat,0.04466504976153374,0
64,100,0.3409090909090909,176,0,67,DL_Guitar,6,5,umontaturo_upbeat,0.03315116465091705,0
52,100,0.37727272727272726,436,1,67,DL_Guitar,6,6,umontaturo_upbeat,0.026581956073641777,0
52,100,0.17727272727272728,546,0,67,DL_Guitar,6,3,umontaturo_upbeat,0.02359706349670887,0
52,100,0.1590909090909091,603,0,67,DL_Guitar,6,3,umontaturo_upbeat,0.02431633323431015,0
52,100,0.13636363636363635,656,0,67,DL_Guitar,6,2,umontaturo_upbeat,0.029692428186535835,0
52,100,0.3409090909090909,690,0,67,DL_Guitar,6,5,umontaturo_upbeat,0.04007880762219429,0
52,100,0.38181818181818183,849,0,67,DL_Guitar,6,6,umontaturo_upbeat,0.07093455642461777,0
52,100,0.2,233,1,68,DL_Guitar,6,3,umontaturo_upbeat,0.9990229606628418,1
52,100,0.37727272727272726,294,0,68,DL_Guitar,6,6,umontaturo_upbeat,0.36661413311958313,0
59,100,0.13636363636363635,457,0,68,DL_Guitar,6,2,umontaturo_upbeat,0.4532987177371979,0
57,100,0.4,189,1,69,DL_Guitar,6,6,umontaturo_upbeat,0.9990229606628418,1
52,100,0.2,686,1,69,DL_Guitar,6,3,umontaturo_upbeat,0.3666231036186218,0
52,100,0.1590909090909091,832,0,69,DL_Guitar,6,3,umontaturo_upbeat,0.4533006548881531,0
52,100,0.2590909090909091,56,1,70,DL_Guitar,6,4,umontaturo_upbeat,0.9986500144004822,1
59,100,0.1409090909090909,140,0,70,DL_Guitar,6,2,umontaturo_upbeat,0.08780427277088165,0
53,100,0.5818181818181818,307,0,70,DL_Guitar,6,9,umontaturo_upbeat,0.09180945158004761,0
53,100,0.1590909090909091,453,0,70,DL_Guitar,6,3,umontaturo_upbeat,0.1074765995144844,0
53,100,0.1409090909090909,642,0,70,DL_Guitar,6,2,umontaturo_upbeat,0.12482506781816483,0
56,100,0.11818181818181818,734,0,70,DL_Guitar,6,2,umontaturo_upbeat,0.1790274679660797,0
61,100,0.11818181818181818,153,1,71,DL_Guitar,6,2,umontaturo_upbeat,0.9990229606628418,1
57,100,0.1590909090909091,673,1,71,DL_Guitar,6,3,umontaturo_upbeat,0.3666284680366516,0
57,100,0.2,823,0,71,DL_Guitar,6,3,umontaturo_upbeat,0.4532987177371979,0
57,100,0.1590909090909091,9,1,72,DL_Guitar,6,3,umontaturo_upbeat,0.9990057349205017,1
59,100,1.059090909090909,193,0,72,DL_Guitar,6,15,umontaturo_upbeat,0.23120592534542084,0
69,100,0.21818181818181817,502,1,72,DL_Guitar,6,3,umontaturo_upbeat,0.26592379808425903,0
57,100,0.33636363636363636,743,1,72,DL_Guitar,6,5,umontaturo_upbeat,0.3542023301124573,0
61,100,0.11818181818181818,514,1,73,DL_Guitar,6,2,umontaturo_upbeat,0.9990229606628418,1
61,100,0.42272727272727273,585,0,73,DL_Guitar,6,7,umontaturo_upbeat,0.3666229844093323,0
57,100,0.3409090909090909,870,1,73,DL_Guitar,6,5,umontaturo_upbeat,0.45329371094703674,0
57,100,0.21818181818181817,132,1,74,DL_Guitar,6,3,umontaturo_upbeat,0.9986500144004822,1
57,100,0.2772727272727273,237,0,74,DL_Guitar,6,4,umontaturo_upbeat,0.08780361711978912,0
52,100,0.2590909090909091,559,1,74,DL_Guitar,6,4,umontaturo_upbeat,0.09181448072195053,0
52,100,0.18181818181818182,619,0,74,DL_Guitar,6,3,umontaturo_upbeat,0.1074800193309784,0
64,100,0.18181818181818182,682,0,74,DL_Guitar,6,3,umontaturo_upbeat,0.12482952326536179,0
59,100,0.2818181818181818,726,0,74,DL_Guitar,6,5,umontaturo_upbeat,0.1790354996919632,0
61,100,0.1,17,1,75,DL_Guitar,6,2,umontaturo_upbeat,0.9988419413566589,1
53,100,1.1409090909090909,47,0,75,DL_Guitar,6,15,umontaturo_upbeat,0.13724297285079956,0
61,100,0.6409090909090909,316,1,75,DL_Guitar,6,10,umontaturo_upbeat,0.1597745418548584,0
61,100,0.12272727272727273,606,1,75,DL_Guitar,6,2,umontaturo_upbeat,0.18644732236862183,0
61,100,0.3,739,0,75,DL_Guitar,6,5,umontaturo_upbeat,0.2581641376018524,0
59,100,0.17727272727272728,9,1,76,DL_Guitar,6,3,umontaturo_upbeat,0.9988419413566589,1
52,100,0.18181818181818182,550,1,76,DL_Guitar,6,3,umontaturo_upbeat,0.13724352419376373,0
52,100,0.1409090909090909,739,0,76,DL_Guitar,6,2,umontaturo_upbeat,0.15977734327316284,0
52,100,0.16363636363636364,773,0,76,DL_Guitar,6,3,umontaturo_upbeat,0.18645109236240387,0
59,100,0.21818181818181817,813,0,76,DL_Guitar,6,3,umontaturo_upbeat,0.2581743896007538,0
59,100,0.3,176,1,77,DL_Guitar,6,5,umontaturo_upbeat,0.9988419413566589,1
59,100,0.5590909090909091,307,0,77,DL_Guitar,6,9,umontaturo_upbeat,0.13724516332149506,0
64,100,0.18181818181818182,440,0,77,DL_Guitar,6,3,umontaturo_upbeat,0.1597810685634613,0
59,100,0.17727272727272728,502,0,77,DL_Guitar,6,3,umontaturo_upbeat,0.18644897639751434,0
59,100,0.4409090909090909,559,0,77,DL_Guitar,6,7,umontaturo_upbeat,0.25816580653190613,0
57,100,0.3,289,1,78,DL_Guitar,6,5,umontaturo_upbeat,0.9792560338973999,0
65,100,0.1409090909090909,449,1,79,DL_Guitar,6,2,umontaturo_upbeat,0.9986500144004822,1
65,100,0.18181818181818182,550,0,79,DL_Guitar,6,3,umontaturo_upbeat,0.08780021965503693,0
65,100,0.2,597,0,79,DL_Guitar,6,3,umontaturo_upbeat,0.09181370586156845,0
65,100,0.6636363636363637,663,0,79,DL_Guitar,6,11,umontaturo_upbeat,0.10747428983449936,0
65,100,0.1409090909090909,813,0,79,DL_Guitar,6,2,umontaturo_upbeat,0.12482551485300064,0
65,100,0.5227272727272727,849,0,79,DL_Guitar,6,8,umontaturo_upbeat,0.17902378737926483,0
59,100,0.2,246,1,80,DL_Guitar,6,3,umontaturo_upbeat,0.9990057349205017,1
59,100,0.17727272727272728,294,0,80,DL_Guitar,6,3,umontaturo_upbeat,0.23120039701461792,0
59,100,0.2,496,0,80,DL_Guitar,6,3,umontaturo_upbeat,0.2659159302711487,0
52,100,0.2772727272727273,722,0,80,DL_Guitar,6,4,umontaturo_upbeat,0.35419878363609314,0
52,100,0.6227272727272727,47,1,81,DL_Guitar,6,10,umontaturo_upbeat,0.9983164072036743,1
61,100,1.7818181818181817,263,0,81,DL_Guitar,6,15,umontaturo_upbeat,0.5445476770401001,0
57,100,0.2590909090909091,127,1,82,DL_Guitar,6,4,umontaturo_upbeat,0.9990057349205017,1
57,100,0.2409090909090909,263,0,82,DL_Guitar,6,4,umontaturo_upbeat,0.23121574521064758,0
57,100,0.1,320,0,82,DL_Guitar,6,2,umontaturo_upbeat,0.2659372091293335,0
57,100,0.759090909090909,440,0,82,DL_Guitar,6,12,umontaturo_upbeat,0.35420408844947815,0
57,100,0.12272727272727273,13,1,83,DL_Guitar,6,2,umontaturo_upbeat,0.9990229606628418,1
57,100,0.2,303,1,83,DL_Guitar,6,3,umontaturo_upbeat,0.3666178584098816,0
52,100,0.1,857,1,83,DL_Guitar,6,2,umontaturo_upbeat,0.45329341292381287,0
61,100,0.3,197,1,84,DL_Guitar,6,5,umontaturo_upbeat,0.9990057349205017,1
61,100,1.0,347,0,84,DL_Guitar,6,15,umontaturo_upbeat,0.23119841516017914,0
61,100,0.5227272727272727,707,1,84,DL_Guitar,6,8,umontaturo_upbeat,0.2659207880496979,0
61,100,0.38181818181818183,836,0,84,DL_Guitar,6,6,umontaturo_upbeat,0.3541925847530365,0
52,100,0.4818181818181818,166,1,85,DL_Guitar,6,8,umontaturo_upbeat,0.9986500144004822,1
52,100,0.6,286,0,85,DL_Guitar,6,10,umontaturo_upbeat,0.0878046452999115,0
52,100,0.3,422,0,85,DL_Guitar,6,5,umontaturo_upbeat,0.09181414544582367,0
52,100,0.35909090909090907,603,0,85,DL_Guitar,6,6,umontaturo_upbeat,0.10747923702001572,0
59,100,0.32272727272727275,729,0,85,DL_Guitar,6,5,umontaturo_upbeat,0.12483116239309311,0
59,100,0.18181818181818182,817,0,85,DL_Guitar,6,3,umontaturo_upbeat,0.17903783917427063,0
64,100,0.2409090909090909,113,1,86,DL_Guitar,6,4,umontaturo_upbeat,0.9986500144004822,1
59,100,0.42272727272727273,202,0,86,DL_Guitar,6,7,umontaturo_upbeat,0.0878041461110115,0
57,100,0.1409090909090909,493,1,86,DL_Guitar,6,2,umontaturo_upbeat,0.0918167233467102,0
57,100,0.35909090909090907,527,0,86,DL_Guitar,6,6,umontaturo_upbeat,0.10748136043548584,0
57,100,0.2772727272727273,624,0,86,DL_Guitar,6,4,umontaturo_upbeat,0.12483415007591248,0
57,100,1.1590909090909092,813,0,86,DL_Guitar,6,15,umontaturo_upbeat,0.17904026806354523,0
57,100,0.2409090909090909,250,1,87,DL_Guitar,6,4,umontaturo_upbeat,0.9792566299438477,0
59,100,0.1409090909090909,506,1,90,DL_Guitar,6,2,umontaturo_upbeat,0.9990229606628418,1
59,100,0.1,646,0,90,DL_Guitar,6,2,umontaturo_upbeat,0.36661842465400696,0
59,100,0.4590909090909091,823,0,90,DL_Guitar,6,7,umontaturo_upbeat,0.45329028367996216,0
59,100,0.5,79,1,91,DL_Guitar,6,8,umontaturo_upbeat,0.9990229606628418,1
52,100,0.17727272727272728,316,1,91,DL_Guitar,6,3,umontaturo_upbeat,0.3666202127933502,0
52,100,0.4,817,1,91,DL_Guitar,6,6,umontaturo_upbeat,0.45329567790031433,0
57,100,0.22272727272727272,100,1,92,DL_Guitar,6,4,umontaturo_upbeat,0.9984880685806274,1
66,100,0.18181818181818182,197,0,92,DL_Guitar,6,3,umontaturo_upbeat,0.06334631145000458,0
55,100,0.11818181818181818,426,0,92,DL_Guitar,6,2,umontaturo_upbeat,0.05774230509996414,0
55,100,0.11818181818181818,480,0,92,DL_Guitar,6,2,umontaturo_upbeat,0.06020315736532211,0
56,100,0.1409090909090909,506,0,92,DL_Guitar,6,2,umontaturo_upbeat,0.06970133632421494,0
52,100,0.4,572,0,92,DL_Guitar,6,6,umontaturo_upbeat,0.08189499378204346,0
59,100,0.32272727272727275,707,0,92,DL_Guitar,6,5,umontaturo_upbeat,0.12402062118053436,0
64,100,0.16363636363636364,3,1,93,DL_Guitar,6,3,umontaturo_upbeat,0.9988419413566589,1
59,100,0.11818181818181818,150,0,93,DL_Guitar,6,2,umontaturo_upbeat,0.1372520625591278,0
65,100,0.4590909090909091,320,0,93,DL_Guitar,6,7,umontaturo_upbeat,0.1597827523946762,0
65,100,0.2772727272727273,426,0,93,DL_Guitar,6,4,umontaturo_upbeat,0.18645548820495605,0
57,100,0.5181818181818182,844,1,93,DL_Guitar,6,8,umontaturo_upbeat,0.25816184282302856,0
59,100,0.3181818181818182,813,1,94,DL_Guitar,6,5,umontaturo_upbeat,0.9792561531066895,0
59,100,0.32272727272727275,92,1,95,DL_Guitar,6,5,umontaturo_upbeat,0.9983165264129639,1
59,100,0.1409090909090909,223,0,95,DL_Guitar,6,2,umontaturo_upbeat,0.544553279876709,0
54,100,0.1590909090909091,53,1,96,DL_Guitar,6,3,umontaturo_upbeat,0.9983165264129639,1
57,100,0.6181818181818182,734,1,96,DL_Guitar,6,10,umontaturo_upbeat,0.5445543527603149,0
57,100,0.21818181818181817,0,1,97,DL_Guitar,6,3,umontaturo_upbeat,0.9990057349205017,1
59,100,0.4818181818181818,189,0,97,DL_Guitar,6,8,umontaturo_upbeat,0.23120975494384766,0
64,100,0.11818181818181818,493,1,97,DL_Guitar,6,2,umontaturo_upbeat,0.2659323811531067,0
57,100,0.8409090909090909,823,1,97,DL_Guitar,6,13,umontaturo_upbeat,0.35420024394989014,0
57,100,0.12272727272727273,157,1,98,DL_Guitar,6,2,umontaturo_upbeat,0.9792561531066895,0
57,100,0.2409090909090909,443,1,100,DL_Guitar,6,4,umontaturo_upbeat,0.9990057349205017,1
57,100,0.2409090909090909,563,0,100,DL_Guitar,6,4,umontaturo_upbeat,0.2311953455209732,0
57,100,0.2,633,0,100,DL_Guitar,6,3,umontaturo_upbeat,0.2659211754798889,0
59,100,0.5590909090909091,810,0,100,DL_Guitar,6,9,umontaturo_upbeat,0.35418903827667236,0
59,100,0.11818181818181818,83,1,101,DL_Guitar,6,2,umontaturo_upbeat,0.9986500144004822,1
59,100,0.4,153,0,101,DL_Guitar,6,6,umontaturo_upbeat,0.08780156075954437,0
59,100,0.2,260,0,101,DL_Guitar,6,3,umontaturo_upbeat,0.09181255102157593,0
59,100,0.5227272727272727,430,0,101,DL_Guitar,6,8,umontaturo_upbeat,0.10747625678777695,0
53,100,0.3,677,1,101,DL_Guitar,6,5,umontaturo_upbeat,0.12482473999261856,0
59,100,0.2,756,0,101,DL_Guitar,6,3,umontaturo_upbeat,0.17903538048267365,0
57,100,0.4772727272727273,193,1,102,DL_Guitar,6,8,umontaturo_upbeat,0.9990057349205017,1
57,100,0.18181818181818182,597,1,102,DL_Guitar,6,3,umontaturo_upbeat,0.23121273517608643,0
57,100,0.4636363636363636,707,0,102,DL_Guitar,6,7,umontaturo_upbeat,0.26592716574668884,0
57,100,0.1,839,0,102,DL_Guitar,6,2,umontaturo_upbeat,0.3541986346244812,0
57,100,0.12272727272727273,35,1,103,DL_Guitar,6,2,umontaturo_upbeat,0.9990057349205017,1
59,100,0.5181818181818182,184,0,103,DL_Guitar,6,8,umontaturo_upbeat,0.23120476305484772,0
59,100,0.7227272727272728,312,0,103,DL_Guitar,6,12,umontaturo_upbeat,0.2659159004688263,0
52,100,0.13636363636363635,502,0,103,DL_Guitar,6,2,umontaturo_upbeat,0.3541986346244812,0
57,100,0.1,282,1,104,DL_Guitar,6,2,umontaturo_upbeat,0.9983004927635193,1
57,100,0.18181818181818182,466,0,104,DL_Guitar,6,3,umontaturo_upbeat,0.0446653850376606,0
57,100,0.1,514,0,104,DL_Guitar,6,2,umontaturo_upbeat,0.03315013647079468,0
57,100,0.2590909090909091,540,0,104,DL_Guitar,6,4,umontaturo_upbeat,0.026580333709716797,0
57,100,0.11818181818181818,616,0,104,DL_Guitar,6,2,umontaturo_upbeat,0.023594822734594345,0
57,100,0.2409090909090909,682,0,104,DL_Guitar,6,4,umontaturo_upbeat,0.02431522123515606,0
57,100,0.1,743,0,104,DL_Guitar,6,2,umontaturo_upbeat,0.029690520837903023,0
57,100,0.1590909090909091,770,0,104,DL_Guitar,6,3,umontaturo_upbeat,0.04007747769355774,0
57,100,0.1,813,0,104,DL_Guitar,6,2,umontaturo_upbeat,0.07093047350645065,0
57,100,0.11818181818181818,9,1,105,DL_Guitar,6,2,umontaturo_upbeat,0.9792559146881104,1
61,100,0.41818181818181815,39,1,15,DL_deepemotion_Guitar,6,7,omokagedeepemotionruriko,0.979255735874176,0
54,100,0.2,712,1,17,DL_deepemotion_Guitar,6,3,omokagedeepemotionruriko,0.9983165264129639,1
56,100,0.7,801,0,17,DL_deepemotion_Guitar,6,11,omokagedeepemotionruriko,0.5445454716682434,0
56,100,0.2,83,1,18,DL_deepemotion_Guitar,6,3,omokagedeepemotionruriko,0.9792560338973999,0
54,100,0.4818181818181818,34,1,20,DL_deepemotion_Guitar,6,8,omokagedeepemotionruriko,0.9983165264129639,1
54,100,0.22272727272727272,179,0,20,DL_deepemotion_Guitar,6,4,omokagedeepemotionruriko,0.544559121131897,0
54,100,0.32272727272727275,409,1,21,DL_deepemotion_Guitar,6,5,omokagedeepemotionruriko,0.9792565107345581,0
54,100,0.11818181818181818,326,1,22,DL_deepemotion_Guitar,6,2,omokagedeepemotionruriko,0.9792567491531372,0
63,100,0.2818181818181818,189,1,23,DL_deepemotion_Guitar,6,5,omokagedeepemotionruriko,0.9983164072036743,1
61,100,0.1409090909090909,866,1,23,DL_deepemotion_Guitar,6,2,omokagedeepemotionruriko,0.5445622801780701,0
54,100,0.11818181818181818,326,1,24,DL_deepemotion_Guitar,6,2,omokagedeepemotionruriko,0.9792567491531372,0
59,100,0.740909090909091,65,1,25,DL_deepemotion_Guitar,6,12,omokagedeepemotionruriko,0.9990057349205017,1
59,100,0.11818181818181818,295,0,25,DL_deepemotion_Guitar,6,2,omokagedeepemotionruriko,0.2312035858631134,0
56,100,0.11818181818181818,656,1,25,DL_deepemotion_Guitar,6,2,omokagedeepemotionruriko,0.26592445373535156,0
56,100,0.2818181818181818,818,0,25,DL_deepemotion_Guitar,6,5,omokagedeepemotionruriko,0.35419490933418274,0
56,100,0.37727272727272726,61,1,26,DL_deepemotion_Guitar,6,6,omokagedeepemotionruriko,0.9983165264129639,1
56,100,0.2409090909090909,223,0,26,DL_deepemotion_Guitar,6,4,omokagedeepemotionruriko,0.5445526838302612,0
62,100,0.18181818181818182,202,1,27,DL_deepemotion_Guitar,6,3,omokagedeepemotionruriko,0.9792559146881104,1
63,100,0.23636363636363636,810,1,28,DL_deepemotion_Guitar,6,4,omokagedeepemotionruriko,0.9792559146881104,0
52,100,0.11818181818181818,382,1,29,DL_deepemotion_Guitar,6,2,omokagedeepemotionruriko,0.9990057349205017,1
54,100,0.12272727272727273,422,0,29,DL_deepemotion_Guitar,6,2,omokagedeepemotionruriko,0.23119939863681793,0
66,100,0.12272727272727273,453,0,29,DL_deepemotion_Guitar,6,2,omokagedeepemotionruriko,0.26591765880584717,0
54,100,0.2,567,0,29,DL_deepemotion_Guitar,6,3,omokagedeepemotionruriko,0.35419562458992004,0
54,100,0.759090909090909,189,1,0,DL_EnglishEdition_Remastered_Guitar,6,12,umon_EnglishEdition,0.9988419413566589,1
54,100,0.2,374,0,0,DL_EnglishEdition_Remastered_Guitar,6,3,umon_EnglishEdition,0.13724775612354279,0
54,100,0.22272727272727272,466,0,0,DL_EnglishEdition_Remastered_Guitar,6,4,umon_EnglishEdition,0.15977999567985535,0
59,100,0.12272727272727273,673,0,0,DL_EnglishEdition_Remastered_Guitar,6,2,umon_EnglishEdition,0.18644997477531433,0
61,100,0.3,770,0,0,DL_EnglishEdition_Remastered_Guitar,6,5,umon_EnglishEdition,0.25816553831100464,0
61,100,0.3,18,1,1,DL_EnglishEdition_Remastered_Guitar,6,5,umon_EnglishEdition,0.9988419413566589,1
59,100,0.1590909090909091,238,0,1,DL_EnglishEdition_Remastered_Guitar,6,3,umon_EnglishEdition,0.13724711537361145,0
66,100,0.12272727272727273,444,0,1,DL_EnglishEdition_Remastered_Guitar,6,2,umon_EnglishEdition,0.1597803235054016,0
66,100,0.38181818181818183,475,0,1,DL_EnglishEdition_Remastered_Guitar,6,6,umon_EnglishEdition,0.18644851446151733,0
59,100,0.4409090909090909,625,0,1,DL_EnglishEdition_Remastered_Guitar,6,7,umon_EnglishEdition,0.2581663131713867,0
52,100,0.41818181818181815,140,1,2,DL_EnglishEdition_Remastered_Guitar,6,7,umon_EnglishEdition,0.9990229606628418,1
52,100,0.35909090909090907,364,0,2,DL_EnglishEdition_Remastered_Guitar,6,6,umon_EnglishEdition,0.36662331223487854,0
54,100,0.6181818181818182,770,1,2,DL_EnglishEdition_Remastered_Guitar,6,10,umon_EnglishEdition,0.45328620076179504,0
59,100,0.2636363636363636,26,1,3,DL_EnglishEdition_Remastered_Guitar,6,4,umon_EnglishEdition,0.9988419413566589,1
61,100,0.12272727272727273,210,0,3,DL_EnglishEdition_Remastered_Guitar,6,2,umon_EnglishEdition,0.13724686205387115,0
61,100,0.5227272727272727,246,0,3,DL_EnglishEdition_Remastered_Guitar,6,8,umon_EnglishEdition,0.15977312624454498,0
61,100,0.17727272727272728,458,0,3,DL_EnglishEdition_Remastered_Guitar,6,3,umon_EnglishEdition,0.1864481419324875,0
59,100,1.2,681,0,3,DL_EnglishEdition_Remastered_Guitar,6,15,umon_EnglishEdition,0.2581635117530823,0
59,100,0.8,87,1,4,DL_EnglishEdition_Remastered_Guitar,6,13,umon_EnglishEdition,0.9990057349205017,1
59,100,0.22272727272727272,276,0,4,DL_EnglishEdition_Remastered_Guitar,6,4,umon_EnglishEdition,0.2312006801366806,0
52,100,0.16363636363636364,795,1,4,DL_EnglishEdition_Remastered_Guitar,6,3,umon_EnglishEdition,0.2659144401550293,0
54,100,0.22272727272727272,849,0,4,DL_EnglishEdition_Remastered_Guitar,6,4,umon_EnglishEdition,0.35419341921806335,0
54,100,0.5,232,1,5,DL_EnglishEdition_Remastered_Guitar,6,8,umon_EnglishEdition,0.9988419413566589,1
54,100,0.21818181818181817,370,0,5,DL_EnglishEdition_Remastered_Guitar,6,3,umon_EnglishEdition,0.13724865019321442,0
61,100,0.12272727272727273,541,0,5,DL_EnglishEdition_Remastered_Guitar,6,2,umon_EnglishEdition,0.1597757488489151,0
54,100,0.11818181818181818,581,0,5,DL_EnglishEdition_Remastered_Guitar,6,2,umon_EnglishEdition,0.18645137548446655,0
66,100,0.2,672,0,5,DL_EnglishEdition_Remastered_Guitar,6,3,umon_EnglishEdition,0.2581671476364136,0
59,100,0.11818181818181818,18,1,6,DL_EnglishEdition_Remastered_Guitar,6,2,umon_EnglishEdition,0.9988419413566589,1
59,100,0.13636363636363635,61,0,6,DL_EnglishEdition_Remastered_Guitar,6,2,umon_EnglishEdition,0.13724489510059357,0
52,100,0.3409090909090909,163,0,6,DL_EnglishEdition_Remastered_Guitar,6,5,umon_EnglishEdition,0.1597755402326584,0
59,100,0.3,409,1,6,DL_EnglishEdition_Remastered_Guitar,6,5,umon_EnglishEdition,0.18644925951957703,0
61,100,0.2409090909090909,792,1,6,DL_EnglishEdition_Remastered_Guitar,6,4,umon_EnglishEdition,0.2581658661365509,0
59,100,0.18181818181818182,289,1,7,DL_EnglishEdition_Remastered_Guitar,6,3,umon_EnglishEdition,0.9988419413566589,1
59,100,0.1409090909090909,360,0,7,DL_EnglishEdition_Remastered_Guitar,6,2,umon_EnglishEdition,0.1372453272342682,0
54,100,0.1590909090909091,572,0,7,DL_EnglishEdition_Remastered_Guitar,6,3,umon_EnglishEdition,0.15977700054645538,0
59,100,0.11818181818181818,734,0,7,DL_EnglishEdition_Remastered_Guitar,6,2,umon_EnglishEdition,0.1864456683397293,0
59,100,0.1590909090909091,778,0,7,DL_EnglishEdition_Remastered_Guitar,6,3,umon_EnglishEdition,0.25816643238067627,0
54,100,0.2409090909090909,3,1,8,DL_EnglishEdition_Remastered_Guitar,6,4,umon_EnglishEdition,0.9986500144004822,1
54,100,0.7,206,0,8,DL_EnglishEdition_Remastered_Guitar,6,11,umon_EnglishEdition,0.08780156075954437,0
66,100,0.2409090909090909,378,0,8,DL_EnglishEdition_Remastered_Guitar,6,4,umon_EnglishEdition,0.09180948883295059,0
59,100,0.3409090909090909,453,0,8,DL_EnglishEdition_Remastered_Guitar,6,5,umon_EnglishEdition,0.1074736937880516,0
59,100,0.11818181818181818,589,0,8,DL_EnglishEdition_Remastered_Guitar,6,2,umon_EnglishEdition,0.12481983751058578,0
59,100,0.1,682,0,8,DL_EnglishEdition_Remastered_Guitar,6,2,umon_EnglishEdition,0.17902973294258118,0
52,100,0.5,245,1,9,DL_EnglishEdition_Remastered_Guitar,6,8,umon_EnglishEdition,0.9988419413566589,1
54,100,0.11818181818181818,374,0,9,DL_EnglishEdition_Remastered_Guitar,6,2,umon_EnglishEdition,0.1372475028038025,0
52,100,0.1590909090909091,519,0,9,DL_EnglishEdition_Remastered_Guitar,6,3,umon_EnglishEdition,0.15977928042411804,0
57,100,0.1,620,0,9,DL_EnglishEdition_Remastered_Guitar,6,2,umon_EnglishEdition,0.18644969165325165,0
57,100,0.5590909090909091,677,0,9,DL_EnglishEdition_Remastered_Guitar,6,9,umon_EnglishEdition,0.2581692636013031,0
61,100,0.18181818181818182,268,1,10,DL_EnglishEdition_Remastered_Guitar,6,3,umon_EnglishEdition,0.9988419413566589,1
59,100,0.1590909090909091,395,0,10,DL_EnglishEdition_Remastered_Guitar,6,3,umon_EnglishEdition,0.13724559545516968,0
59,100,0.1590909090909091,457,0,10,DL_EnglishEdition_Remastered_Guitar,6,3,umon_EnglishEdition,0.1597762107849121,0
59,100,0.38181818181818183,532,0,10,DL_EnglishEdition_Remastered_Guitar,6,6,umon_EnglishEdition,0.18644465506076813,0
59,100,0.5409090909090909,795,1,10,DL_EnglishEdition_Remastered_Guitar,6,9,umon_EnglishEdition,0.258157879114151,0
59,100,0.2409090909090909,110,1,11,DL_EnglishEdition_Remastered_Guitar,6,4,umon_EnglishEdition,0.9990057349205017,1
52,100,0.2590909090909091,364,1,11,DL_EnglishEdition_Remastered_Guitar,6,4,umon_EnglishEdition,0.2312009036540985,0
54,100,0.1590909090909091,436,0,11,DL_EnglishEdition_Remastered_Guitar,6,3,umon_EnglishEdition,0.2659195363521576,0
59,100,0.4,470,0,11,DL_EnglishEdition_Remastered_Guitar,6,6,umon_EnglishEdition,0.3541928827762604,0
52,100,0.6409090909090909,87,1,12,DL_EnglishEdition_Remastered_Guitar,6,10,umon_EnglishEdition,0.9984880685806274,1
59,100,0.1,242,0,12,DL_EnglishEdition_Remastered_Guitar,6,2,umon_EnglishEdition,0.06334510445594788,0
59,100,0.2636363636363636,268,0,12,DL_EnglishEdition_Remastered_Guitar,6,4,umon_EnglishEdition,0.057741548866033554,0
59,100,0.37727272727272726,347,0,12,DL_EnglishEdition_Remastered_Guitar,6,6,umon_EnglishEdition,0.06020042300224304,0
64,100,0.1,620,1,12,DL_EnglishEdition_Remastered_Guitar,6,2,umon_EnglishEdition,0.06970155984163284,0
59,100,0.41818181818181815,656,0,12,DL_EnglishEdition_Remastered_Guitar,6,7,umon_EnglishEdition,0.08189226686954498,0
59,100,0.8772727272727273,866,0,12,DL_EnglishEdition_Remastered_Guitar,6,14,umon_EnglishEdition,0.12401881814002991,0
54,100,0.11818181818181818,194,1,13,DL_EnglishEdition_Remastered_Guitar,6,2,umon_EnglishEdition,0.9983165264129639,1
54,100,0.2772727272727273,250,0,13,DL_EnglishEdition_Remastered_Guitar,6,4,umon_EnglishEdition,0.5445558428764343,0
59,100,0.5409090909090909,496,1,14,DL_EnglishEdition_Remastered_Guitar,6,9,umon_EnglishEdition,0.9990229606628418,1
59,100,0.41818181818181815,660,0,14,DL_EnglishEdition_Remastered_Guitar,6,7,umon_EnglishEdition,0.3666212260723114,0
59,100,0.1409090909090909,756,0,14,DL_EnglishEdition_Remastered_Guitar,6,2,umon_EnglishEdition,0.4532911479473114,0
54,100,0.8409090909090909,113,1,15,DL_EnglishEdition_Remastered_Guitar,6,13,umon_EnglishEdition,0.9988419413566589,1
54,100,0.22272727272727272,333,0,15,DL_EnglishEdition_Remastered_Guitar,6,4,umon_EnglishEdition,0.1372436285018921,0
61,100,0.17727272727272728,426,0,15,DL_EnglishEdition_Remastered_Guitar,6,3,umon_EnglishEdition,0.1597740203142166,0
59,100,0.35909090909090907,501,0,15,DL_EnglishEdition_Remastered_Guitar,6,6,umon_EnglishEdition,0.18644371628761292,0
59,100,0.42272727272727273,673,0,15,DL_EnglishEdition_Remastered_Guitar,6,7,umon_EnglishEdition,0.25816038250923157,0
54,100,0.1590909090909091,175,1,16,DL_EnglishEdition_Remastered_Guitar,6,3,umon_EnglishEdition,0.9990230798721313,1
59,100,0.2409090909090909,594,1,16,DL_EnglishEdition_Remastered_Guitar,6,4,umon_EnglishEdition,0.3666171431541443,0
54,100,0.2590909090909091,677,0,16,DL_EnglishEdition_Remastered_Guitar,6,4,umon_EnglishEdition,0.45328670740127563,0
54,100,0.2,326,1,17,DL_EnglishEdition_Remastered_Guitar,6,3,umon_EnglishEdition,0.9984880685806274,1
54,100,0.2,457,0,17,DL_EnglishEdition_Remastered_Guitar,6,3,umon_EnglishEdition,0.06334592401981354,0
61,100,0.12272727272727273,509,0,17,DL_EnglishEdition_Remastered_Guitar,6,2,umon_EnglishEdition,0.05774040147662163,0
61,100,0.42272727272727273,540,0,17,DL_EnglishEdition_Remastered_Guitar,6,7,umon_EnglishEdition,0.06020122393965721,0
54,100,0.5772727272727273,646,0,17,DL_EnglishEdition_Remastered_Guitar,6,9,umon_EnglishEdition,0.06969937682151794,0
59,100,0.11818181818181818,835,0,17,DL_EnglishEdition_Remastered_Guitar,6,2,umon_EnglishEdition,0.081892229616642,0
52,100,0.1,866,0,17,DL_EnglishEdition_Remastered_Guitar,6,2,umon_EnglishEdition,0.12401927262544632,0
59,100,0.5590909090909091,21,1,18,DL_EnglishEdition_Remastered_Guitar,6,9,umon_EnglishEdition,0.9988419413566589,1
59,100,1.059090909090909,193,0,18,DL_EnglishEdition_Remastered_Guitar,6,15,umon_EnglishEdition,0.13724078238010406,0
59,100,0.2,515,1,18,DL_EnglishEdition_Remastered_Guitar,6,3,umon_EnglishEdition,0.15977244079113007,0
59,100,0.1590909090909091,677,0,18,DL_EnglishEdition_Remastered_Guitar,6,3,umon_EnglishEdition,0.18644234538078308,0
54,100,0.4590909090909091,814,0,18,DL_EnglishEdition_Remastered_Guitar,6,7,umon_EnglishEdition,0.2581564784049988,0
59,100,0.32272727272727275,113,1,19,DL_EnglishEdition_Remastered_Guitar,6,5,umon_EnglishEdition,0.9986500144004822,1
59,100,0.2,395,1,19,DL_EnglishEdition_Remastered_Guitar,6,3,umon_EnglishEdition,0.08780264109373093,0
54,100,0.1,461,0,19,DL_EnglishEdition_Remastered_Guitar,6,2,umon_EnglishEdition,0.09181207418441772,0
54,100,0.1,646,0,19,DL_EnglishEdition_Remastered_Guitar,6,2,umon_EnglishEdition,0.10747487843036652,0
59,100,0.4,770,0,19,DL_EnglishEdition_Remastered_Guitar,6,6,umon_EnglishEdition,0.1248236671090126,0
54,100,0.22272727272727272,862,0,19,DL_EnglishEdition_Remastered_Guitar,6,4,umon_EnglishEdition,0.17903178930282593,0
59,100,0.11818181818181818,65,1,20,DL_EnglishEdition_Remastered_Guitar,6,2,umon_EnglishEdition,0.9986500144004822,1
54,100,0.2409090909090909,110,0,20,DL_EnglishEdition_Remastered_Guitar,6,4,umon_EnglishEdition,0.08780239522457123,0
59,100,0.2818181818181818,220,0,20,DL_EnglishEdition_Remastered_Guitar,6,5,umon_EnglishEdition,0.09181272983551025,0
59,100,0.21818181818181817,360,0,20,DL_EnglishEdition_Remastered_Guitar,6,3,umon_EnglishEdition,0.10747522115707397,0
59,100,0.8818181818181818,430,0,20,DL_EnglishEdition_Remastered_Guitar,6,14,umon_EnglishEdition,0.1248234212398529,0
52,100,0.2636363636363636,773,1,20,DL_EnglishEdition_Remastered_Guitar,6,4,umon_EnglishEdition,0.17903393507003784,0
52,100,0.2,9,1,21,DL_EnglishEdition_Remastered_Guitar,6,3,umon_EnglishEdition,0.9986500144004822,1
52,100,0.2818181818181818,65,0,21,DL_EnglishEdition_Remastered_Guitar,6,5,umon_EnglishEdition,0.08780365437269211,0
54,100,0.1409090909090909,154,0,21,DL_EnglishEdition_Remastered_Guitar,6,2,umon_EnglishEdition,0.09181215614080429,0
54,100,0.11818181818181818,480,1,21,DL_EnglishEdition_Remastered_Guitar,6,2,umon_EnglishEdition,0.10747995972633362,0
59,100,0.18181818181818182,708,0,21,DL_EnglishEdition_Remastered_Guitar,6,3,umon_EnglishEdition,0.12482330203056335,0
59,100,0.2590909090909091,866,0,21,DL_EnglishEdition_Remastered_Guitar,6,4,umon_EnglishEdition,0.17903073132038116,0
54,100,0.1,100,1,22,DL_EnglishEdition_Remastered_Guitar,6,2,umon_EnglishEdition,0.9984880685806274,1
59,100,0.1409090909090909,179,0,22,DL_EnglishEdition_Remastered_Guitar,6,2,umon_EnglishEdition,0.06334549188613892,0
54,100,0.8,237,0,22,DL_EnglishEdition_Remastered_Guitar,6,13,umon_EnglishEdition,0.05774201825261116,0
54,100,0.6590909090909091,426,0,22,DL_EnglishEdition_Remastered_Guitar,6,11,umon_EnglishEdition,0.06020321324467659,0
66,100,0.11818181818181818,581,0,22,DL_EnglishEdition_Remastered_Guitar,6,2,umon_EnglishEdition,0.06970372051000595,0
59,100,0.4,611,0,22,DL_EnglishEdition_Remastered_Guitar,6,6,umon_EnglishEdition,0.08189523965120316,0
59,100,0.1590909090909091,725,0,22,DL_EnglishEdition_Remastered_Guitar,6,3,umon_EnglishEdition,0.12402185052633286,0
64,100,0.1,193,1,23,DL_EnglishEdition_Remastered_Guitar,6,2,umon_EnglishEdition,0.9986500144004822,1
52,100,0.2818181818181818,268,0,23,DL_EnglishEdition_Remastered_Guitar,6,5,umon_EnglishEdition,0.08780381083488464,0
59,100,0.1409090909090909,387,0,23,DL_EnglishEdition_Remastered_Guitar,6,2,umon_EnglishEdition,0.09181509912014008,0
52,100,0.4409090909090909,484,0,23,DL_EnglishEdition_Remastered_Guitar,6,7,umon_EnglishEdition,0.1074797585606575,0
54,100,0.41818181818181815,602,0,23,DL_EnglishEdition_Remastered_Guitar,6,7,umon_EnglishEdition,0.12482889741659164,0
54,100,0.1590909090909091,814,0,23,DL_EnglishEdition_Remastered_Guitar,6,3,umon_EnglishEdition,0.17903821170330048,0
52,100,0.1,34,1,24,DL_EnglishEdition_Remastered_Guitar,6,2,umon_EnglishEdition,0.9986500144004822,1
59,100,0.2409090909090909,382,1,24,DL_EnglishEdition_Remastered_Guitar,6,4,umon_EnglishEdition,0.08780019730329514,0
59,100,0.2409090909090909,440,0,24,DL_EnglishEdition_Remastered_Guitar,6,4,umon_EnglishEdition,0.09181318432092667,0
59,100,0.5636363636363636,619,0,24,DL_EnglishEdition_Remastered_Guitar,6,9,umon_EnglishEdition,0.10747279226779938,0
59,100,0.2,773,0,24,DL_EnglishEdition_Remastered_Guitar,6,3,umon_EnglishEdition,0.12482331693172455,0
59,100,0.4590909090909091,827,0,24,DL_EnglishEdition_Remastered_Guitar,6,7,umon_EnglishEdition,0.1790301352739334,0
59,100,0.2772727272727273,52,1,25,DL_EnglishEdition_Remastered_Guitar,6,4,umon_EnglishEdition,0.9986500144004822,1
63,100,0.2590909090909091,216,0,25,DL_EnglishEdition_Remastered_Guitar,6,4,umon_EnglishEdition,0.08780411630868912,0
59,100,0.6,272,0,25,DL_EnglishEdition_Remastered_Guitar,6,10,umon_EnglishEdition,0.0918145403265953,0
59,100,0.6,409,0,25,DL_EnglishEdition_Remastered_Guitar,6,10,umon_EnglishEdition,0.10747966170310974,0
59,100,0.5,686,1,25,DL_EnglishEdition_Remastered_Guitar,6,8,umon_EnglishEdition,0.12482922524213791,0
54,100,0.2636363636363636,796,0,25,DL_EnglishEdition_Remastered_Guitar,6,4,umon_EnglishEdition,0.1790383905172348,0
54,100,0.4,52,1,26,DL_EnglishEdition_Remastered_Guitar,6,6,umon_EnglishEdition,0.9990057349205017,1
52,100,0.4,241,0,26,DL_EnglishEdition_Remastered_Guitar,6,6,umon_EnglishEdition,0.23120653629302979,0
52,100,0.6772727272727272,382,0,26,DL_EnglishEdition_Remastered_Guitar,6,11,umon_EnglishEdition,0.26592132449150085,0
59,100,0.3181818181818182,700,1,26,DL_EnglishEdition_Remastered_Guitar,6,5,umon_EnglishEdition,0.3542031943798065,0
59,100,0.4590909090909091,100,1,27,DL_EnglishEdition_Remastered_Guitar,6,7,umon_EnglishEdition,0.9990229606628418,1
59,100,0.5590909090909091,216,0,27,DL_EnglishEdition_Remastered_Guitar,6,9,umon_EnglishEdition,0.36662420630455017,0
59,100,0.6227272727272727,773,1,27,DL_EnglishEdition_Remastered_Guitar,6,10,umon_EnglishEdition,0.45329105854034424,0
59,100,0.35909090909090907,65,1,28,DL_EnglishEdition_Remastered_Guitar,6,6,umon_EnglishEdition,0.9983165264129639,1
59,100,0.1409090909090909,791,1,28,DL_EnglishEdition_Remastered_Guitar,6,2,umon_EnglishEdition,0.5445507764816284,0
59,100,0.16363636363636364,26,1,29,DL_EnglishEdition_Remastered_Guitar,6,3,umon_EnglishEdition,0.9990229606628418,1
52,100,0.21818181818181817,154,0,29,DL_EnglishEdition_Remastered_Guitar,6,3,umon_EnglishEdition,0.36661913990974426,0
52,100,0.2590909090909091,206,0,29,DL_EnglishEdition_Remastered_Guitar,6,4,umon_EnglishEdition,0.4532926380634308,0
54,100,0.6363636363636364,61,1,30,DL_EnglishEdition_Remastered_Guitar,6,10,umon_EnglishEdition,0.9983165264129639,1
56,100,0.3409090909090909,739,1,30,DL_EnglishEdition_Remastered_Guitar,6,5,umon_EnglishEdition,0.5445542931556702,0
52,100,0.2590909090909091,272,1,31,DL_EnglishEdition_Remastered_Guitar,6,4,umon_EnglishEdition,0.9983165264129639,1
59,100,0.11818181818181818,501,0,31,DL_EnglishEdition_Remastered_Guitar,6,2,umon_EnglishEdition,0.5445582866668701,0
59,100,0.12272727272727273,34,1,32,DL_EnglishEdition_Remastered_Guitar,6,2,umon_EnglishEdition,0.9988419413566589,1
59,100,0.2409090909090909,141,0,32,DL_EnglishEdition_Remastered_Guitar,6,4,umon_EnglishEdition,0.13724394142627716,0
61,100,0.22272727272727272,276,0,32,DL_EnglishEdition_Remastered_Guitar,6,4,umon_EnglishEdition,0.15977263450622559,0
54,100,0.4409090909090909,364,0,32,DL_EnglishEdition_Remastered_Guitar,6,7,umon_EnglishEdition,0.18644528090953827,0
54,100,0.6409090909090909,518,0,32,DL_EnglishEdition_Remastered_Guitar,6,10,umon_EnglishEdition,0.25816404819488525,0
61,100,0.2,128,1,33,DL_EnglishEdition_Remastered_Guitar,6,3,umon_EnglishEdition,0.9983736276626587,1
61,100,0.11818181818181818,193,0,33,DL_EnglishEdition_Remastered_Guitar,6,2,umon_EnglishEdition,0.05106039345264435,0
61,100,0.3,295,0,33,DL_EnglishEdition_Remastered_Guitar,6,5,umon_EnglishEdition,0.04130198806524277,0
59,100,0.22272727272727272,509,0,33,DL_EnglishEdition_Remastered_Guitar,6,4,umon_EnglishEdition,0.037386998534202576,0
59,100,0.4818181818181818,563,0,33,DL_EnglishEdition_Remastered_Guitar,6,8,umon_EnglishEdition,0.03832900524139404,0
59,100,0.23636363636363636,700,0,33,DL_EnglishEdition_Remastered_Guitar,6,4,umon_EnglishEdition,0.04475264996290207,0
52,100,0.1590909090909091,761,0,33,DL_EnglishEdition_Remastered_Guitar,6,3,umon_EnglishEdition,0.05522933602333069,0
59,100,0.4818181818181818,839,0,33,DL_EnglishEdition_Remastered_Guitar,6,8,umon_EnglishEdition,0.09026360511779785,0
59,100,0.6227272727272727,101,1,34,DL_EnglishEdition_Remastered_Guitar,6,10,umon_EnglishEdition,0.9988419413566589,1
54,100,0.3,325,0,34,DL_EnglishEdition_Remastered_Guitar,6,5,umon_EnglishEdition,0.1372484415769577,0
54,100,0.18181818181818182,681,1,34,DL_EnglishEdition_Remastered_Guitar,6,3,umon_EnglishEdition,0.1597791314125061,0
54,100,0.4590909090909091,726,0,34,DL_EnglishEdition_Remastered_Guitar,6,7,umon_EnglishEdition,0.18644538521766663,0
54,100,0.2590909090909091,831,0,34,DL_EnglishEdition_Remastered_Guitar,6,4,umon_EnglishEdition,0.25816482305526733,0
54,100,0.3409090909090909,13,1,35,DL_EnglishEdition_Remastered_Guitar,6,5,umon_EnglishEdition,0.9983737468719482,1
54,100,0.2818181818181818,166,0,35,DL_EnglishEdition_Remastered_Guitar,6,5,umon_EnglishEdition,0.05106046050786972,0
56,100,0.2,391,0,35,DL_EnglishEdition_Remastered_Guitar,6,3,umon_EnglishEdition,0.041301336139440536,0
59,100,0.2,458,0,35,DL_EnglishEdition_Remastered_Guitar,6,3,umon_EnglishEdition,0.03738473355770111,0
59,100,0.11818181818181818,536,0,35,DL_EnglishEdition_Remastered_Guitar,6,2,umon_EnglishEdition,0.038327667862176895,0
59,100,0.32272727272727275,641,0,35,DL_EnglishEdition_Remastered_Guitar,6,5,umon_EnglishEdition,0.0447484515607357,0
59,100,0.1409090909090909,751,0,35,DL_EnglishEdition_Remastered_Guitar,6,2,umon_EnglishEdition,0.055226881057024,0
52,100,0.5818181818181818,871,0,35,DL_EnglishEdition_Remastered_Guitar,6,9,umon_EnglishEdition,0.09026221930980682,0
59,100,0.5590909090909091,150,1,36,DL_EnglishEdition_Remastered_Guitar,6,9,umon_EnglishEdition,0.9986500144004822,1
59,100,0.38181818181818183,286,0,36,DL_EnglishEdition_Remastered_Guitar,6,6,umon_EnglishEdition,0.08780384808778763,0
61,100,0.12272727272727273,466,0,36,DL_EnglishEdition_Remastered_Guitar,6,2,umon_EnglishEdition,0.09181465953588486,0
54,100,0.6363636363636364,655,0,36,DL_EnglishEdition_Remastered_Guitar,6,10,umon_EnglishEdition,0.10747804492712021,0
54,100,0.2409090909090909,818,0,36,DL_EnglishEdition_Remastered_Guitar,6,4,umon_EnglishEdition,0.1248278021812439,0
54,100,0.2590909090909091,875,0,36,DL_EnglishEdition_Remastered_Guitar,6,4,umon_EnglishEdition,0.1790326088666916,0
59,100,0.2,171,1,37,DL_EnglishEdition_Remastered_Guitar,6,3,umon_EnglishEdition,0.9988419413566589,1
54,100,0.1409090909090909,426,1,37,DL_EnglishEdition_Remastered_Guitar,6,2,umon_EnglishEdition,0.13725075125694275,0
54,100,0.38181818181818183,506,0,37,DL_EnglishEdition_Remastered_Guitar,6,6,umon_EnglishEdition,0.1597777009010315,0
54,100,0.3,603,0,37,DL_EnglishEdition_Remastered_Guitar,6,5,umon_EnglishEdition,0.18644404411315918,0
54,100,0.2,694,0,37,DL_EnglishEdition_Remastered_Guitar,6,3,umon_EnglishEdition,0.2581670880317688,0
54,100,0.1590909090909091,413,1,38,DL_EnglishEdition_Remastered_Guitar,6,3,umon_EnglishEdition,0.9983165264129639,1
54,100,0.6409090909090909,471,0,38,DL_EnglishEdition_Remastered_Guitar,6,10,umon_EnglishEdition,0.5445553064346313,0
59,100,0.18181818181818182,114,1,39,DL_EnglishEdition_Remastered_Guitar,6,3,umon_EnglishEdition,0.9988419413566589,1
52,100,0.2818181818181818,188,0,39,DL_EnglishEdition_Remastered_Guitar,6,5,umon_EnglishEdition,0.13724851608276367,0
59,100,0.6409090909090909,628,1,39,DL_EnglishEdition_Remastered_Guitar,6,10,umon_EnglishEdition,0.15977826714515686,0
59,100,0.13636363636363635,810,0,39,DL_EnglishEdition_Remastered_Guitar,6,2,umon_EnglishEdition,0.18645182251930237,0
54,100,0.1590909090909091,866,0,39,DL_EnglishEdition_Remastered_Guitar,6,3,umon_EnglishEdition,0.2581764757633209,0
52,100,0.12272727272727273,144,1,40,DL_EnglishEdition_Remastered_Guitar,6,2,umon_EnglishEdition,0.9988419413566589,1
54,100,0.2818181818181818,483,1,40,DL_EnglishEdition_Remastered_Guitar,6,5,umon_EnglishEdition,0.13724654912948608,0
54,100,0.21818181818181817,550,0,40,DL_EnglishEdition_Remastered_Guitar,6,3,umon_EnglishEdition,0.15977415442466736,0
59,100,0.1,641,0,40,DL_EnglishEdition_Remastered_Guitar,6,2,umon_EnglishEdition,0.18644721806049347,0
59,100,0.41818181818181815,853,0,40,DL_EnglishEdition_Remastered_Guitar,6,7,umon_EnglishEdition,0.25816500186920166,0
52,100,0.5181818181818182,308,1,41,DL_EnglishEdition_Remastered_Guitar,6,8,umon_EnglishEdition,0.9792563915252686,0
54,100,0.1409090909090909,88,1,42,DL_EnglishEdition_Remastered_Guitar,6,2,umon_EnglishEdition,0.9990230798721313,1
54,100,0.5227272727272727,276,0,42,DL_EnglishEdition_Remastered_Guitar,6,8,umon_EnglishEdition,0.366626501083374,0
59,100,1.040909090909091,638,1,42,DL_EnglishEdition_Remastered_Guitar,6,15,umon_EnglishEdition,0.4532829225063324,0
54,100,0.4409090909090909,399,1,43,DL_EnglishEdition_Remastered_Guitar,6,7,umon_EnglishEdition,0.9990229606628418,1
52,100,0.7,509,0,43,DL_EnglishEdition_Remastered_Guitar,6,11,umon_EnglishEdition,0.3666192591190338,0
52,100,0.37727272727272726,823,1,43,DL_EnglishEdition_Remastered_Guitar,6,6,umon_EnglishEdition,0.45329341292381287,0
59,100,0.5181818181818182,413,1,44,DL_EnglishEdition_Remastered_Guitar,6,8,umon_EnglishEdition,0.9990229606628418,1
59,100,0.11818181818181818,593,0,44,DL_EnglishEdition_Remastered_Guitar,6,2,umon_EnglishEdition,0.36661234498023987,0
59,100,0.13636363636363635,633,0,44,DL_EnglishEdition_Remastered_Guitar,6,2,umon_EnglishEdition,0.45329219102859497,0
59,100,0.3409090909090909,220,1,45,DL_EnglishEdition_Remastered_Guitar,6,5,umon_EnglishEdition,0.9988419413566589,1
59,100,0.5181818181818182,303,0,45,DL_EnglishEdition_Remastered_Guitar,6,8,umon_EnglishEdition,0.13724559545516968,0
59,100,0.2772727272727273,501,0,45,DL_EnglishEdition_Remastered_Guitar,6,4,umon_EnglishEdition,0.1597771942615509,0
54,100,0.4,770,1,45,DL_EnglishEdition_Remastered_Guitar,6,6,umon_EnglishEdition,0.18644624948501587,0
54,100,0.1409090909090909,861,0,45,DL_EnglishEdition_Remastered_Guitar,6,2,umon_EnglishEdition,0.2581663131713867,0
54,100,0.16363636363636364,224,1,46,DL_EnglishEdition_Remastered_Guitar,6,3,umon_EnglishEdition,0.9990057349205017,1
59,100,0.5818181818181818,364,0,46,DL_EnglishEdition_Remastered_Guitar,6,9,umon_EnglishEdition,0.23119789361953735,0
54,100,0.2,673,1,46,DL_EnglishEdition_Remastered_Guitar,6,3,umon_EnglishEdition,0.26591727137565613,0
59,100,0.2772727272727273,823,0,46,DL_EnglishEdition_Remastered_Guitar,6,4,umon_EnglishEdition,0.3541949689388275,0
59,100,0.2409090909090909,53,1,47,DL_EnglishEdition_Remastered_Guitar,6,4,umon_EnglishEdition,0.9986500144004822,1
66,100,0.17727272727272728,448,1,47,DL_EnglishEdition_Remastered_Guitar,6,3,umon_EnglishEdition,0.08780249208211899,0
54,100,0.2818181818181818,506,0,47,DL_EnglishEdition_Remastered_Guitar,6,5,umon_EnglishEdition,0.09181100130081177,0
59,100,0.2409090909090909,584,0,47,DL_EnglishEdition_Remastered_Guitar,6,4,umon_EnglishEdition,0.10747511684894562,0
59,100,0.5181818181818182,735,0,47,DL_EnglishEdition_Remastered_Guitar,6,8,umon_EnglishEdition,0.12482111155986786,0
54,100,0.23636363636363636,853,0,47,DL_EnglishEdition_Remastered_Guitar,6,4,umon_EnglishEdition,0.17903417348861694,0
59,100,1.0,31,1,48,DL_EnglishEdition_Remastered_Guitar,6,15,umon_EnglishEdition,0.9983164072036743,1
59,100,0.2409090909090909,748,1,48,DL_EnglishEdition_Remastered_Guitar,6,4,umon_EnglishEdition,0.5445590615272522,0
59,100,0.13636363636363635,150,1,49,DL_EnglishEdition_Remastered_Guitar,6,2,umon_EnglishEdition,0.9986500144004822,1
54,100,0.3,215,0,49,DL_EnglishEdition_Remastered_Guitar,6,5,umon_EnglishEdition,0.08780140429735184,0
54,100,0.21818181818181817,286,0,49,DL_EnglishEdition_Remastered_Guitar,6,3,umon_EnglishEdition,0.09181344509124756,0
59,100,0.4772727272727273,568,1,49,DL_EnglishEdition_Remastered_Guitar,6,8,umon_EnglishEdition,0.10747553408145905,0
59,100,0.17727272727272728,678,0,49,DL_EnglishEdition_Remastered_Guitar,6,3,umon_EnglishEdition,0.12482348829507828,0
59,100,0.3,774,0,49,DL_EnglishEdition_Remastered_Guitar,6,5,umon_EnglishEdition,0.17903484404087067,0
59,100,0.18181818181818182,48,1,50,DL_EnglishEdition_Remastered_Guitar,6,3,umon_EnglishEdition,0.9990057349205017,1
59,100,0.5818181818181818,364,1,50,DL_EnglishEdition_Remastered_Guitar,6,9,umon_EnglishEdition,0.23120124638080597,0
59,100,0.17727272727272728,545,0,50,DL_EnglishEdition_Remastered_Guitar,6,3,umon_EnglishEdition,0.2659168541431427,0
59,100,0.7,735,0,50,DL_EnglishEdition_Remastered_Guitar,6,11,umon_EnglishEdition,0.3541910946369171,0
52,100,0.7818181818181819,26,1,51,DL_EnglishEdition_Remastered_Guitar,6,13,umon_EnglishEdition,0.9983165264129639,1
54,100,0.2590909090909091,783,1,51,DL_EnglishEdition_Remastered_Guitar,6,4,umon_EnglishEdition,0.5445590019226074,0
59,100,0.6409090909090909,26,1,52,DL_EnglishEdition_Remastered_Guitar,6,10,umon_EnglishEdition,0.9988419413566589,1
54,100,0.23636363636363636,171,0,52,DL_EnglishEdition_Remastered_Guitar,6,4,umon_EnglishEdition,0.1372493952512741,0
54,100,0.7181818181818181,308,0,52,DL_EnglishEdition_Remastered_Guitar,6,11,umon_EnglishEdition,0.1597735434770584,0
54,100,0.3409090909090909,681,1,52,DL_EnglishEdition_Remastered_Guitar,6,5,umon_EnglishEdition,0.186446413397789,0
59,100,0.11818181818181818,823,0,52,DL_EnglishEdition_Remastered_Guitar,6,2,umon_EnglishEdition,0.25816214084625244,0
59,100,0.11818181818181818,198,1,53,DL_EnglishEdition_Remastered_Guitar,6,2,umon_EnglishEdition,0.9990057349205017,1
52,100,0.4818181818181818,334,0,53,DL_EnglishEdition_Remastered_Guitar,6,8,umon_EnglishEdition,0.23119910061359406,0
54,100,0.3409090909090909,735,1,53,DL_EnglishEdition_Remastered_Guitar,6,5,umon_EnglishEdition,0.2659202814102173,0
59,100,0.5,875,0,53,DL_EnglishEdition_Remastered_Guitar,6,8,umon_EnglishEdition,0.35419225692749023,0
54,100,0.18181818181818182,110,1,54,DL_EnglishEdition_Remastered_Guitar,6,3,umon_EnglishEdition,0.9990057349205017,1
54,100,0.2590909090909091,153,0,54,DL_EnglishEdition_Remastered_Guitar,6,4,umon_EnglishEdition,0.23120057582855225,0
59,100,0.7,536,1,54,DL_EnglishEdition_Remastered_Guitar,6,11,umon_EnglishEdition,0.26591843366622925,0
54,100,0.2409090909090909,708,0,54,DL_EnglishEdition_Remastered_Guitar,6,4,umon_EnglishEdition,0.354190856218338,0
59,100,0.2,78,1,55,DL_EnglishEdition_Remastered_Guitar,6,3,umon_EnglishEdition,0.9984880685806274,1
54,100,0.1,141,0,55,DL_EnglishEdition_Remastered_Guitar,6,2,umon_EnglishEdition,0.06334537267684937,0
54,100,0.2409090909090909,198,0,55,DL_EnglishEdition_Remastered_Guitar,6,4,umon_EnglishEdition,0.057742953300476074,0
66,100,0.2,373,0,55,DL_EnglishEdition_Remastered_Guitar,6,3,umon_EnglishEdition,0.06020169332623482,0
59,100,0.35909090909090907,536,0,55,DL_EnglishEdition_Remastered_Guitar,6,6,umon_EnglishEdition,0.06970139592885971,0
59,100,0.9590909090909091,651,0,55,DL_EnglishEdition_Remastered_Guitar,6,15,umon_EnglishEdition,0.08189158141613007,0
54,100,0.1,861,0,55,DL_EnglishEdition_Remastered_Guitar,6,2,umon_EnglishEdition,0.1240212544798851,0
54,100,0.35909090909090907,40,1,56,DL_EnglishEdition_Remastered_Guitar,6,6,umon_EnglishEdition,0.9988420605659485,1
54,100,0.5227272727272727,166,0,56,DL_EnglishEdition_Remastered_Guitar,6,8,umon_EnglishEdition,0.13724806904792786,0
56,100,0.21818181818181817,633,1,56,DL_EnglishEdition_Remastered_Guitar,6,3,umon_EnglishEdition,0.15978004038333893,0
56,100,0.33636363636363636,700,0,56,DL_EnglishEdition_Remastered_Guitar,6,5,umon_EnglishEdition,0.18644917011260986,0
56,100,0.5636363636363636,818,0,56,DL_EnglishEdition_Remastered_Guitar,6,9,umon_EnglishEdition,0.25816088914871216,0
63,100,0.2409090909090909,158,1,57,DL_EnglishEdition_Remastered_Guitar,6,4,umon_EnglishEdition,0.9990229606628418,1
56,100,0.1590909090909091,295,0,57,DL_EnglishEdition_Remastered_Guitar,6,3,umon_EnglishEdition,0.3666195273399353,0
59,100,0.42272727272727273,774,1,57,DL_EnglishEdition_Remastered_Guitar,6,7,umon_EnglishEdition,0.4533045291900635,0
54,100,0.1409090909090909,254,1,58,DL_EnglishEdition_Remastered_Guitar,6,2,umon_EnglishEdition,0.9990057349205017,1
54,100,0.16363636363636364,531,1,58,DL_EnglishEdition_Remastered_Guitar,6,3,umon_EnglishEdition,0.23120388388633728,0
54,100,0.22272727272727272,628,0,58,DL_EnglishEdition_Remastered_Guitar,6,4,umon_EnglishEdition,0.2659206688404083,0
54,100,0.1590909090909091,703,0,58,DL_EnglishEdition_Remastered_Guitar,6,3,umon_EnglishEdition,0.3541962504386902,0
59,100,0.21818181818181817,31,1,59,DL_EnglishEdition_Remastered_Guitar,6,3,umon_EnglishEdition,0.9986500144004822,1
59,100,0.2590909090909091,141,0,59,DL_EnglishEdition_Remastered_Guitar,6,4,umon_EnglishEdition,0.08780499547719955,0
59,100,0.4409090909090909,316,0,59,DL_EnglishEdition_Remastered_Guitar,6,7,umon_EnglishEdition,0.09181567281484604,0
66,100,0.3,531,0,59,DL_EnglishEdition_Remastered_Guitar,6,5,umon_EnglishEdition,0.10748348385095596,0
66,100,0.17727272727272728,603,0,59,DL_EnglishEdition_Remastered_Guitar,6,3,umon_EnglishEdition,0.12483002990484238,0
66,100,1.259090909090909,778,0,59,DL_EnglishEdition_Remastered_Guitar,6,15,umon_EnglishEdition,0.1790364682674408,0
61,100,0.5181818181818182,198,1,60,DL_EnglishEdition_Remastered_Guitar,6,8,umon_EnglishEdition,0.9986500144004822,1
66,100,0.21818181818181817,383,0,60,DL_EnglishEdition_Remastered_Guitar,6,3,umon_EnglishEdition,0.08780311793088913,0
61,100,0.6181818181818182,440,0,60,DL_EnglishEdition_Remastered_Guitar,6,10,umon_EnglishEdition,0.09181507676839828,0
54,100,0.2409090909090909,641,0,60,DL_EnglishEdition_Remastered_Guitar,6,4,umon_EnglishEdition,0.10747817903757095,0
64,100,0.12272727272727273,729,0,60,DL_EnglishEdition_Remastered_Guitar,6,2,umon_EnglishEdition,0.1248294934630394,0
66,100,0.5409090909090909,836,0,60,DL_EnglishEdition_Remastered_Guitar,6,9,umon_EnglishEdition,0.17903392016887665,0
66,100,0.5409090909090909,78,1,61,DL_EnglishEdition_Remastered_Guitar,6,9,umon_EnglishEdition,0.9986500144004822,1
66,100,0.2590909090909091,220,0,61,DL_EnglishEdition_Remastered_Guitar,6,4,umon_EnglishEdition,0.0878036767244339,0
59,100,0.1,325,0,61,DL_EnglishEdition_Remastered_Guitar,6,2,umon_EnglishEdition,0.09181366115808487,0
66,100,0.5590909090909091,474,0,61,DL_EnglishEdition_Remastered_Guitar,6,9,umon_EnglishEdition,0.10747479647397995,0
52,100,0.18181818181818182,606,0,61,DL_EnglishEdition_Remastered_Guitar,6,3,umon_EnglishEdition,0.12482593208551407,0
52,100,0.9409090909090909,871,1,61,DL_EnglishEdition_Remastered_Guitar,6,15,umon_EnglishEdition,0.17903053760528564,0
52,100,0.1409090909090909,211,1,62,DL_EnglishEdition_Remastered_Guitar,6,2,umon_EnglishEdition,0.9990229606628418,1
52,100,0.6,251,0,62,DL_EnglishEdition_Remastered_Guitar,6,10,umon_EnglishEdition,0.36663052439689636,0
59,100,0.6,641,1,62,DL_EnglishEdition_Remastered_Guitar,6,10,umon_EnglishEdition,0.45329105854034424,0
59,100,0.6,18,1,63,DL_EnglishEdition_Remastered_Guitar,6,10,umon_EnglishEdition,0.9990229606628418,1
54,100,0.1590909090909091,606,1,63,DL_EnglishEdition_Remastered_Guitar,6,3,umon_EnglishEdition,0.3666289150714874,0
56,100,0.9818181818181818,694,0,63,DL_EnglishEdition_Remastered_Guitar,6,15,umon_EnglishEdition,0.4532870352268219,0
56,100,0.8409090909090909,66,1,64,DL_EnglishEdition_Remastered_Guitar,6,13,umon_EnglishEdition,0.9986500144004822,1
52,100,0.8818181818181818,320,1,64,DL_EnglishEdition_Remastered_Guitar,6,14,umon_EnglishEdition,0.08780448138713837,0
59,100,0.22272727272727272,519,0,64,DL_EnglishEdition_Remastered_Guitar,6,4,umon_EnglishEdition,0.09181461483240128,0
59,100,0.8590909090909091,590,0,64,DL_EnglishEdition_Remastered_Guitar,6,14,umon_EnglishEdition,0.10747722536325455,0
59,100,0.12272727272727273,817,0,64,DL_EnglishEdition_Remastered_Guitar,6,2,umon_EnglishEdition,0.12482982128858566,0
54,100,0.4409090909090909,857,0,64,DL_EnglishEdition_Remastered_Guitar,6,7,umon_EnglishEdition,0.1790292114019394,0
59,100,0.32272727272727275,157,1,65,DL_EnglishEdition_Remastered_Guitar,6,5,umon_EnglishEdition,0.9988419413566589,1
59,100,0.4409090909090909,255,0,65,DL_EnglishEdition_Remastered_Guitar,6,7,umon_EnglishEdition,0.13724970817565918,0
54,100,0.2,480,0,65,DL_EnglishEdition_Remastered_Guitar,6,3,umon_EnglishEdition,0.15977968275547028,0
54,100,0.12272727272727273,597,0,65,DL_EnglishEdition_Remastered_Guitar,6,2,umon_EnglishEdition,0.18645282089710236,0
54,100,0.5772727272727273,756,0,65,DL_EnglishEdition_Remastered_Guitar,6,9,umon_EnglishEdition,0.2581697702407837,0
54,100,0.5409090909090909,132,1,66,DL_EnglishEdition_Remastered_Guitar,6,9,umon_EnglishEdition,0.9984880685806274,1
54,100,0.23636363636363636,326,0,66,DL_EnglishEdition_Remastered_Guitar,6,4,umon_EnglishEdition,0.06334345042705536,0
54,100,0.2,396,0,66,DL_EnglishEdition_Remastered_Guitar,6,3,umon_EnglishEdition,0.057739924639463425,0
54,100,0.5181818181818182,527,0,66,DL_EnglishEdition_Remastered_Guitar,6,8,umon_EnglishEdition,0.06019683554768562,0
52,100,0.18181818181818182,660,0,66,DL_EnglishEdition_Remastered_Guitar,6,3,umon_EnglishEdition,0.06969790905714035,0
59,100,0.1409090909090909,726,0,66,DL_EnglishEdition_Remastered_Guitar,6,2,umon_EnglishEdition,0.0818878561258316,0
59,100,0.5181818181818182,779,0,66,DL_EnglishEdition_Remastered_Guitar,6,8,umon_EnglishEdition,0.12401571869850159,0
52,100,0.36363636363636365,47,1,67,DL_EnglishEdition_Remastered_Guitar,6,6,umon_EnglishEdition,0.9986500144004822,1
59,100,0.2,189,0,67,DL_EnglishEdition_Remastered_Guitar,6,3,umon_EnglishEdition,0.08780323714017868,0
54,100,0.18181818181818182,246,0,67,DL_EnglishEdition_Remastered_Guitar,6,3,umon_EnglishEdition,0.09181414544582367,0
54,100,0.17727272727272728,294,0,67,DL_EnglishEdition_Remastered_Guitar,6,3,umon_EnglishEdition,0.10747931897640228,0
54,100,0.22272727272727272,760,1,67,DL_EnglishEdition_Remastered_Guitar,6,4,umon_EnglishEdition,0.12483026832342148,0
54,100,0.3,823,0,67,DL_EnglishEdition_Remastered_Guitar,6,5,umon_EnglishEdition,0.17903581261634827,0
56,100,2.040909090909091,466,1,68,DL_EnglishEdition_Remastered_Guitar,6,15,umon_EnglishEdition,0.9792544841766357,0
54,100,0.13636363636363635,40,1,69,DL_EnglishEdition_Remastered_Guitar,6,2,umon_EnglishEdition,0.9984880685806274,1
52,100,1.7181818181818183,110,0,69,DL_EnglishEdition_Remastered_Guitar,6,15,umon_EnglishEdition,0.06334356218576431,0
52,100,0.1590909090909091,527,1,69,DL_EnglishEdition_Remastered_Guitar,6,3,umon_EnglishEdition,0.057742640376091,0
54,100,0.1590909090909091,616,0,69,DL_EnglishEdition_Remastered_Guitar,6,3,umon_EnglishEdition,0.060202162712812424,0
54,100,0.2772727272727273,677,0,69,DL_EnglishEdition_Remastered_Guitar,6,4,umon_EnglishEdition,0.06970467418432236,0
61,100,0.12272727272727273,752,0,69,DL_EnglishEdition_Remastered_Guitar,6,2,umon_EnglishEdition,0.08189298957586288,0
61,100,0.35909090909090907,783,0,69,DL_EnglishEdition_Remastered_Guitar,6,6,umon_EnglishEdition,0.12402037531137466,0
54,100,0.6590909090909091,9,1,70,DL_EnglishEdition_Remastered_Guitar,6,11,umon_EnglishEdition,0.9986500144004822,1
59,100,0.16363636363636364,179,0,70,DL_EnglishEdition_Remastered_Guitar,6,3,umon_EnglishEdition,0.08780325949192047,0
59,100,0.1,453,1,70,DL_EnglishEdition_Remastered_Guitar,6,2,umon_EnglishEdition,0.091813825070858,0
54,100,0.3,590,0,70,DL_EnglishEdition_Remastered_Guitar,6,5,umon_EnglishEdition,0.10747813433408737,0
54,100,0.2409090909090909,739,0,70,DL_EnglishEdition_Remastered_Guitar,6,4,umon_EnglishEdition,0.12482946366071701,0
52,100,1.7818181818181817,796,0,70,DL_EnglishEdition_Remastered_Guitar,6,15,umon_EnglishEdition,0.1790318638086319,0
52,100,0.2590909090909091,316,1,71,DL_EnglishEdition_Remastered_Guitar,6,4,umon_EnglishEdition,0.9990057349205017,1
52,100,0.740909090909091,399,0,71,DL_EnglishEdition_Remastered_Guitar,6,12,umon_EnglishEdition,0.23120036721229553,0
52,100,0.4409090909090909,597,0,71,DL_EnglishEdition_Remastered_Guitar,6,7,umon_EnglishEdition,0.2659187912940979,0
52,100,0.6181818181818182,713,0,71,DL_EnglishEdition_Remastered_Guitar,6,10,umon_EnglishEdition,0.3542017936706543,0
54,100,0.1,210,1,72,DL_EnglishEdition_Remastered_Guitar,6,2,umon_EnglishEdition,0.9988420605659485,1
59,100,0.17727272727272728,457,1,72,DL_EnglishEdition_Remastered_Guitar,6,3,umon_EnglishEdition,0.13724765181541443,0
59,100,0.2,509,0,72,DL_EnglishEdition_Remastered_Guitar,6,3,umon_EnglishEdition,0.1597776561975479,0
54,100,0.4590909090909091,612,0,72,DL_EnglishEdition_Remastered_Guitar,6,7,umon_EnglishEdition,0.18644733726978302,0
54,100,0.1590909090909091,716,0,72,DL_EnglishEdition_Remastered_Guitar,6,3,umon_EnglishEdition,0.25816553831100464,0
54,100,0.2818181818181818,166,1,73,DL_EnglishEdition_Remastered_Guitar,6,5,umon_EnglishEdition,0.9990058541297913,1
56,100,0.6409090909090909,242,0,73,DL_EnglishEdition_Remastered_Guitar,6,10,umon_EnglishEdition,0.23120200634002686,0
56,100,0.7818181818181819,506,1,73,DL_EnglishEdition_Remastered_Guitar,6,13,umon_EnglishEdition,0.2659112215042114,0
52,100,0.1590909090909091,770,1,73,DL_EnglishEdition_Remastered_Guitar,6,3,umon_EnglishEdition,0.3541918694972992,0
59,100,0.11818181818181818,30,1,74,DL_EnglishEdition_Remastered_Guitar,6,2,umon_EnglishEdition,0.9984880685806274,1
52,100,0.3409090909090909,153,0,74,DL_EnglishEdition_Remastered_Guitar,6,5,umon_EnglishEdition,0.06334469467401505,0
52,100,0.1,233,0,74,DL_EnglishEdition_Remastered_Guitar,6,2,umon_EnglishEdition,0.05774341896176338,0
59,100,0.12272727272727273,255,0,74,DL_EnglishEdition_Remastered_Guitar,6,2,umon_EnglishEdition,0.060204166918992996,0
52,100,0.2,303,0,74,DL_EnglishEdition_Remastered_Guitar,6,3,umon_EnglishEdition,0.06970402598381042,0
54,100,0.2590909090909091,783,1,74,DL_EnglishEdition_Remastered_Guitar,6,4,umon_EnglishEdition,0.08189821988344193,0
54,100,0.17727272727272728,876,0,74,DL_EnglishEdition_Remastered_Guitar,6,3,umon_EnglishEdition,0.12402915954589844,0
54,100,0.5227272727272727,56,1,75,DL_EnglishEdition_Remastered_Guitar,6,8,umon_EnglishEdition,0.9986500144004822,1
54,100,0.3,202,0,75,DL_EnglishEdition_Remastered_Guitar,6,5,umon_EnglishEdition,0.08780331164598465,0
54,100,0.18181818181818182,289,0,75,DL_EnglishEdition_Remastered_Guitar,6,3,umon_EnglishEdition,0.09181394428014755,0
54,100,0.2772727272727273,404,0,75,DL_EnglishEdition_Remastered_Guitar,6,4,umon_EnglishEdition,0.10747857391834259,0
54,100,0.7181818181818181,572,0,75,DL_EnglishEdition_Remastered_Guitar,6,11,umon_EnglishEdition,0.124823197722435,0
54,100,0.4409090909090909,849,1,75,DL_EnglishEdition_Remastered_Guitar,6,7,umon_EnglishEdition,0.1790323406457901,0
54,100,0.5,92,1,76,DL_EnglishEdition_Remastered_Guitar,6,8,umon_EnglishEdition,0.9986500144004822,1
59,100,0.4590909090909091,242,0,76,DL_EnglishEdition_Remastered_Guitar,6,7,umon_EnglishEdition,0.08780262619256973,0
54,100,0.2409090909090909,365,0,76,DL_EnglishEdition_Remastered_Guitar,6,4,umon_EnglishEdition,0.09181283414363861,0
54,100,0.5181818181818182,436,0,76,DL_EnglishEdition_Remastered_Guitar,6,8,umon_EnglishEdition,0.10747625678777695,0
59,100,0.4818181818181818,629,0,76,DL_EnglishEdition_Remastered_Guitar,6,8,umon_EnglishEdition,0.12482206523418427,0
54,100,0.22272727272727272,739,0,76,DL_EnglishEdition_Remastered_Guitar,6,4,umon_EnglishEdition,0.179029643535614,0
59,100,0.3181818181818182,17,1,77,DL_EnglishEdition_Remastered_Guitar,6,5,umon_EnglishEdition,0.9984880685806274,1
59,100,0.13636363636363635,216,0,77,DL_EnglishEdition_Remastered_Guitar,6,2,umon_EnglishEdition,0.06334614008665085,0
54,100,0.12272727272727273,255,0,77,DL_EnglishEdition_Remastered_Guitar,6,2,umon_EnglishEdition,0.057743094861507416,0
54,100,0.11818181818181818,303,0,77,DL_EnglishEdition_Remastered_Guitar,6,2,umon_EnglishEdition,0.06020161136984825,0
52,100,0.6,383,0,77,DL_EnglishEdition_Remastered_Guitar,6,10,umon_EnglishEdition,0.06970224529504776,0
59,100,0.12272727272727273,540,0,77,DL_EnglishEdition_Remastered_Guitar,6,2,umon_EnglishEdition,0.08189769834280014,0
52,100,0.9181818181818182,637,0,77,DL_EnglishEdition_Remastered_Guitar,6,15,umon_EnglishEdition,0.1240217536687851,0
54,100,0.21818181818181817,150,1,78,DL_EnglishEdition_Remastered_Guitar,6,3,umon_EnglishEdition,0.9988420605659485,1
59,100,0.4,250,0,78,DL_EnglishEdition_Remastered_Guitar,6,6,umon_EnglishEdition,0.13724598288536072,0
54,100,0.2818181818181818,475,0,78,DL_EnglishEdition_Remastered_Guitar,6,5,umon_EnglishEdition,0.15977638959884644,0
59,100,0.8363636363636363,612,0,78,DL_EnglishEdition_Remastered_Guitar,6,13,umon_EnglishEdition,0.18644171953201294,0
54,100,0.18181818181818182,817,0,78,DL_EnglishEdition_Remastered_Guitar,6,3,umon_EnglishEdition,0.258163720369339,0
54,100,0.11818181818181818,119,1,79,DL_EnglishEdition_Remastered_Guitar,6,2,umon_EnglishEdition,0.9984880685806274,1
54,100,0.2772727272727273,193,0,79,DL_EnglishEdition_Remastered_Guitar,6,4,umon_EnglishEdition,0.06334342062473297,0
59,100,0.2409090909090909,263,0,79,DL_EnglishEdition_Remastered_Guitar,6,4,umon_EnglishEdition,0.057740021497011185,0
54,100,0.1409090909090909,320,0,79,DL_EnglishEdition_Remastered_Guitar,6,2,umon_EnglishEdition,0.060201168060302734,0
54,100,0.3409090909090909,365,0,79,DL_EnglishEdition_Remastered_Guitar,6,5,umon_EnglishEdition,0.06969884783029556,0
59,100,0.17727272727272728,449,0,79,DL_EnglishEdition_Remastered_Guitar,6,3,umon_EnglishEdition,0.08189137279987335,0
59,100,0.4636363636363636,729,1,79,DL_EnglishEdition_Remastered_Guitar,6,7,umon_EnglishEdition,0.12402015179395676,0
52,100,0.6409090909090909,79,1,80,DL_EnglishEdition_Remastered_Guitar,6,10,umon_EnglishEdition,0.9990057349205017,1
52,100,0.2818181818181818,409,1,80,DL_EnglishEdition_Remastered_Guitar,6,5,umon_EnglishEdition,0.23120133578777313,0
54,100,0.3181818181818182,747,1,80,DL_EnglishEdition_Remastered_Guitar,6,5,umon_EnglishEdition,0.26592063903808594,0
54,100,0.11818181818181818,823,0,80,DL_EnglishEdition_Remastered_Guitar,6,2,umon_EnglishEdition,0.35419946908950806,0
54,100,0.5227272727272727,3,1,81,DL_EnglishEdition_Remastered_Guitar,6,8,umon_EnglishEdition,0.9986500144004822,1
59,100,0.2409090909090909,163,0,81,DL_EnglishEdition_Remastered_Guitar,6,4,umon_EnglishEdition,0.08780227601528168,0
54,100,0.6,396,1,81,DL_EnglishEdition_Remastered_Guitar,6,10,umon_EnglishEdition,0.09181258827447891,0
59,100,0.12272727272727273,629,1,81,DL_EnglishEdition_Remastered_Guitar,6,2,umon_EnglishEdition,0.10747645795345306,0
59,100,0.4,700,0,81,DL_EnglishEdition_Remastered_Guitar,6,6,umon_EnglishEdition,0.12482298910617828,0
59,100,0.21818181818181817,853,0,81,DL_EnglishEdition_Remastered_Guitar,6,3,umon_EnglishEdition,0.17903102934360504,0
54,100,0.3,30,1,82,DL_EnglishEdition_Remastered_Guitar,6,5,umon_EnglishEdition,0.9984880685806274,1
52,100,0.4409090909090909,163,0,82,DL_EnglishEdition_Remastered_Guitar,6,7,umon_EnglishEdition,0.0633450374007225,0
59,100,0.35909090909090907,276,0,82,DL_EnglishEdition_Remastered_Guitar,6,6,umon_EnglishEdition,0.0577431321144104,0
52,100,0.4818181818181818,430,0,82,DL_EnglishEdition_Remastered_Guitar,6,8,umon_EnglishEdition,0.06020200997591019,0
52,100,0.11818181818181818,660,0,82,DL_EnglishEdition_Remastered_Guitar,6,2,umon_EnglishEdition,0.06970350444316864,0
52,100,0.1590909090909091,713,0,82,DL_EnglishEdition_Remastered_Guitar,6,3,umon_EnglishEdition,0.08189626783132553,0
54,100,0.17727272727272728,832,0,82,DL_EnglishEdition_Remastered_Guitar,6,3,umon_EnglishEdition,0.12402454018592834,0
54,100,0.16363636363636364,3,1,83,DL_EnglishEdition_Remastered_Guitar,6,3,umon_EnglishEdition,0.9988419413566589,1
54,100,0.3409090909090909,123,0,83,DL_EnglishEdition_Remastered_Guitar,6,5,umon_EnglishEdition,0.13724523782730103,0
54,100,0.18181818181818182,312,0,83,DL_EnglishEdition_Remastered_Guitar,6,3,umon_EnglishEdition,0.15977656841278076,0
54,100,0.41818181818181815,426,0,83,DL_EnglishEdition_Remastered_Guitar,6,7,umon_EnglishEdition,0.18644443154335022,0
54,100,0.4409090909090909,713,1,83,DL_EnglishEdition_Remastered_Guitar,6,7,umon_EnglishEdition,0.25816506147384644,0
54,100,0.2818181818181818,110,1,84,DL_EnglishEdition_Remastered_Guitar,6,5,umon_EnglishEdition,0.9990057349205017,1
54,100,0.1590909090909091,347,1,84,DL_EnglishEdition_Remastered_Guitar,6,3,umon_EnglishEdition,0.23120354115962982,0
59,100,0.4818181818181818,386,0,84,DL_EnglishEdition_Remastered_Guitar,6,8,umon_EnglishEdition,0.26592570543289185,0
54,100,0.8227272727272728,496,0,84,DL_EnglishEdition_Remastered_Guitar,6,13,umon_EnglishEdition,0.35418522357940674,0
54,100,0.17727272727272728,470,1,85,DL_EnglishEdition_Remastered_Guitar,6,3,umon_EnglishEdition,0.9792566299438477,1
67,100,0.11818181818181818,722,1,0,Guitar,6,2,Stems,0.9983165264129639,1
58,100,0.1590909090909091,823,0,0,Guitar,6,3,Stems,0.5445591807365417,0
67,100,0.1590909090909091,339,1,1,Guitar,6,3,Stems,0.9983165264129639,1
63,100,0.2409090909090909,686,1,1,Guitar,6,4,Stems,0.5445574522018433,0
70,100,0.18181818181818182,144,1,2,Guitar,6,3,Stems,0.9990057349205017,1
70,100,0.16363636363636364,223,0,2,Guitar,6,3,Stems,0.23120276629924774,0
65,100,0.11818181818181818,373,0,2,Guitar,6,2,Stems,0.26591756939888,0
62,100,0.1409090909090909,782,1,2,Guitar,6,2,Stems,0.35419321060180664,0
63,100,0.3181818181818182,83,1,3,Guitar,6,5,Stems,0.9990057349205017,1
63,100,0.17727272727272728,171,0,3,Guitar,6,3,Stems,0.2312035858631134,0
58,100,0.1,391,0,3,Guitar,6,2,Stems,0.2659258544445038,0
65,100,0.2818181818181818,620,0,3,Guitar,6,5,Stems,0.3541964590549469,0
62,100,0.11818181818181818,128,1,4,Guitar,6,2,Stems,0.9983736276626587,1
62,100,0.16363636363636364,179,0,4,Guitar,6,3,Stems,0.05106085538864136,0
63,100,0.1,263,0,4,Guitar,6,2,Stems,0.04130318760871887,0
63,100,0.4772727272727273,317,0,4,Guitar,6,8,Stems,0.03738613426685333,0
63,100,0.1409090909090909,554,1,4,Guitar,6,2,Stems,0.038330934941768646,0
63,100,0.11818181818181818,611,0,4,Guitar,6,2,Stems,0.044753897935152054,0
63,100,0.1590909090909091,695,0,4,Guitar,6,3,Stems,0.055234309285879135,0
63,100,0.11818181818181818,792,0,4,Guitar,6,2,Stems,0.09027155488729477,0
63,100,0.18181818181818182,145,1,5,Guitar,6,3,Stems,0.9990229606628418,1
63,100,0.1409090909090909,211,0,5,Guitar,6,2,Stems,0.36663201451301575,0
63,100,0.2772727272727273,655,1,5,Guitar,6,4,Stems,0.4533044397830963,0
63,100,0.13636363636363635,348,1,6,Guitar,6,2,Stems,0.9983165264129639,1
63,100,0.1590909090909091,739,1,6,Guitar,6,3,Stems,0.5445635914802551,0
55,100,0.2,123,1,8,Guitar,6,3,Stems,0.9792565107345581,0
56,100,0.12272727272727273,211,1,9,Guitar,6,2,Stems,0.9990229606628418,1
63,100,0.11818181818181818,259,0,9,Guitar,6,2,Stems,0.36663150787353516,0
63,100,0.12272727272727273,355,0,9,Guitar,6,2,Stems,0.4532930254936218,0
65,100,0.12272727272727273,642,1,10,Guitar,6,2,Stems,0.9792563915252686,0
63,100,0.16363636363636364,180,1,13,Guitar,6,3,Stems,0.9990057349205017,1
63,100,0.1,268,0,13,Guitar,6,2,Stems,0.23121678829193115,0
56,100,0.3409090909090909,360,0,13,Guitar,6,5,Stems,0.2659282386302948,0
56,100,0.18181818181818182,663,1,13,Guitar,6,3,Stems,0.354205459356308,0
58,100,0.2,44,1,14,Guitar,6,3,Stems,0.9983165264129639,1
63,100,0.1590909090909091,118,0,14,Guitar,6,3,Stems,0.5445624589920044,0
55,100,0.17727272727272728,52,1,16,Guitar,6,3,Stems,0.9986500144004822,1
63,100,0.11818181818181818,220,0,16,Guitar,6,2,Stems,0.08780403435230255,0
55,100,0.1,254,0,16,Guitar,6,2,Stems,0.09181791543960571,0
63,100,0.11818181818181818,351,0,16,Guitar,6,2,Stems,0.10748092085123062,0
63,100,0.13636363636363635,436,0,16,Guitar,6,2,Stems,0.12483511120080948,0
63,100,0.21818181818181817,492,0,16,Guitar,6,3,Stems,0.17904244363307953,0
58,100,0.11818181818181818,845,1,17,Guitar,6,2,Stems,0.9792561531066895,0
56,100,0.11818181818181818,700,1,18,Guitar,6,2,Stems,0.9983165264129639,1
56,100,0.11818181818181818,735,0,18,Guitar,6,2,Stems,0.5445541739463806,0
56,100,0.3181818181818182,88,1,19,Guitar,6,5,Stems,0.9983164072036743,1
56,100,0.1,347,1,19,Guitar,6,2,Stems,0.5445517897605896,0
56,100,0.1590909090909091,65,1,21,Guitar,6,3,Stems,0.9988419413566589,1
63,100,0.1590909090909091,185,0,21,Guitar,6,3,Stems,0.13724762201309204,0
63,100,0.22272727272727272,268,0,21,Guitar,6,4,Stems,0.15977995097637177,0
63,100,0.11818181818181818,339,0,21,Guitar,6,2,Stems,0.18645338714122772,0
63,100,0.17727272727272728,735,1,21,Guitar,6,3,Stems,0.25816866755485535,0
63,100,0.12272727272727273,553,1,22,Guitar,6,2,Stems,0.9792565107345581,0
63,100,0.1,633,1,23,Guitar,6,2,Stems,0.9983165264129639,1
63,100,0.5772727272727273,876,1,23,Guitar,6,9,Stems,0.5445548892021179,0
63,100,0.11818181818181818,131,1,24,Guitar,6,2,Stems,0.9983165264129639,1
63,100,0.18181818181818182,285,0,24,Guitar,6,3,Stems,0.5445621013641357,0
58,100,0.1590909090909091,691,1,25,Guitar,6,3,Stems,0.9792567491531372,0
63,100,0.11818181818181818,590,1,26,Guitar,6,2,Stems,0.9990229606628418,1
64,100,0.1590909090909091,625,0,26,Guitar,6,3,Stems,0.36663874983787537,0
68,100,0.32272727272727275,804,0,26,Guitar,6,5,Stems,0.4532894492149353,0
63,100,0.1409090909090909,822,1,27,Guitar,6,2,Stems,0.9792558550834656,0
62,100,0.12272727272727273,202,1,29,Guitar,6,2,Stems,0.9983164072036743,1
63,100,0.1590909090909091,810,1,29,Guitar,6,3,Stems,0.5445539355278015,0
67,100,0.11818181818181818,0,1,30,Guitar,6,2,Stems,0.9983164072036743,1
63,100,0.21818181818181817,866,1,30,Guitar,6,3,Stems,0.5445575714111328,0
63,100,0.2818181818181818,113,1,31,Guitar,6,5,Stems,0.9986500144004822,1
63,100,0.22272727272727272,254,0,31,Guitar,6,4,Stems,0.08780667185783386,0
63,100,0.18181818181818182,422,0,31,Guitar,6,3,Stems,0.09181791543960571,0
63,100,0.2590909090909091,528,0,31,Guitar,6,4,Stems,0.10748425871133804,0
63,100,0.6,598,0,31,Guitar,6,10,Stems,0.1248386800289154,0
56,100,0.17727272727272728,822,0,31,Guitar,6,3,Stems,0.17904424667358398,0
63,100,0.11818181818181818,303,1,32,Guitar,6,2,Stems,0.9792550206184387,0
63,100,0.3,408,1,33,Guitar,6,5,Stems,0.9792560338973999,0
63,100,0.1590909090909091,391,1,34,Guitar,6,3,Stems,0.9792561531066895,0
65,100,0.17727272727272728,163,1,35,Guitar,6,3,Stems,0.9990057349205017,1
58,100,0.2818181818181818,298,0,35,Guitar,6,5,Stems,0.23120567202568054,0
58,100,0.12272727272727273,474,0,35,Guitar,6,2,Stems,0.26592153310775757,0
63,100,0.11818181818181818,735,1,35,Guitar,6,2,Stems,0.3541935086250305,0
63,100,0.11818181818181818,110,1,36,Guitar,6,2,Stems,0.9990057349205017,1
63,100,0.2,246,0,36,Guitar,6,3,Stems,0.2312072068452835,0
58,100,0.2,316,0,36,Guitar,6,3,Stems,0.2659333646297455,0
63,100,0.18181818181818182,651,1,36,Guitar,6,3,Stems,0.35420528054237366,0
63,100,0.22272727272727272,179,1,37,Guitar,6,4,Stems,0.9990057349205017,1
63,100,0.11818181818181818,295,0,37,Guitar,6,2,Stems,0.23120297491550446,0
58,100,0.1590909090909091,743,1,37,Guitar,6,3,Stems,0.26593372225761414,0
58,100,0.22272727272727272,871,0,37,Guitar,6,4,Stems,0.3542085587978363,0
58,100,0.2,66,1,38,Guitar,6,3,Stems,0.9986500144004822,1
58,100,0.3,118,0,38,Guitar,6,5,Stems,0.08780290931463242,0
58,100,0.11818181818181818,215,0,38,Guitar,6,2,Stems,0.0918145626783371,0
58,100,0.11818181818181818,295,0,38,Guitar,6,2,Stems,0.10747919231653214,0
58,100,0.1590909090909091,343,0,38,Guitar,6,3,Stems,0.12482739984989166,0
58,100,0.18181818181818182,396,0,38,Guitar,6,3,Stems,0.1790315955877304,0
53,100,0.2409090909090909,66,1,39,Guitar,6,4,Stems,0.9986500144004822,1
63,100,0.22272727272727272,211,0,39,Guitar,6,4,Stems,0.08780451118946075,0
55,100,0.1409090909090909,289,0,39,Guitar,6,2,Stems,0.09182006865739822,0
55,100,0.18181818181818182,351,0,39,Guitar,6,3,Stems,0.10748355090618134,0
62,100,0.37727272727272726,480,0,39,Guitar,6,6,Stems,0.12483442574739456,0
63,100,0.21818181818181817,748,1,39,Guitar,6,3,Stems,0.17903858423233032,0
58,100,0.16363636363636364,26,1,40,Guitar,6,3,Stems,0.9988419413566589,1
58,100,0.17727272727272728,83,0,40,Guitar,6,3,Stems,0.13724590837955475,0
53,100,0.2409090909090909,286,0,40,Guitar,6,4,Stems,0.15977169573307037,0
53,100,0.18181818181818182,364,0,40,Guitar,6,3,Stems,0.1864406019449234,0
55,100,0.11818181818181818,493,0,40,Guitar,6,2,Stems,0.25815755128860474,0
63,100,0.2772727272727273,141,1,41,Guitar,6,4,Stems,0.9990229606628418,1
65,100,0.22272727272727272,496,1,41,Guitar,6,4,Stems,0.3666277825832367,0
67,100,0.18181818181818182,783,1,41,Guitar,6,3,Stems,0.4532887041568756,0
62,100,0.21818181818181817,31,1,42,Guitar,6,3,Stems,0.9990057349205017,1
62,100,0.22272727272727272,166,0,42,Guitar,6,4,Stems,0.2312117964029312,0
63,100,0.41818181818181815,286,0,42,Guitar,6,7,Stems,0.2659291923046112,0
63,100,0.3181818181818182,625,1,42,Guitar,6,5,Stems,0.35421016812324524,0
58,100,0.1,166,1,43,Guitar,6,2,Stems,0.9990229606628418,1
63,100,0.18181818181818182,421,1,43,Guitar,6,3,Stems,0.36661961674690247,0
63,100,0.2409090909090909,726,1,43,Guitar,6,4,Stems,0.45328831672668457,0
58,100,0.1590909090909091,53,1,44,Guitar,6,3,Stems,0.9986500144004822,1
58,100,0.22272727272727272,453,1,44,Guitar,6,4,Stems,0.08780266344547272,0
58,100,0.18181818181818182,593,0,44,Guitar,6,3,Stems,0.09181380271911621,0
58,100,0.1409090909090909,716,0,44,Guitar,6,2,Stems,0.10747797787189484,0
57,100,0.11818181818181818,748,0,44,Guitar,6,2,Stems,0.12482212483882904,0
58,100,0.2,853,0,44,Guitar,6,3,Stems,0.17903581261634827,0
53,100,0.4590909090909091,53,1,45,Guitar,6,7,Stems,0.9983736276626587,1
53,100,0.21818181818181817,193,0,45,Guitar,6,3,Stems,0.051061082631349564,0
53,100,0.11818181818181818,281,0,45,Guitar,6,2,Stems,0.04130317643284798,0
56,100,0.11818181818181818,413,0,45,Guitar,6,2,Stems,0.037386391311883926,0
56,100,0.11818181818181818,536,0,45,Guitar,6,2,Stems,0.03833026811480522,0
53,100,0.3409090909090909,581,0,45,Guitar,6,5,Stems,0.044751282781362534,0
55,100,0.3,664,0,45,Guitar,6,5,Stems,0.05522928386926651,0
55,100,0.2772727272727273,801,0,45,Guitar,6,4,Stems,0.09026141464710236,0
55,100,0.4818181818181818,56,1,46,Guitar,6,8,Stems,0.9988419413566589,1
55,100,0.22272727272727272,188,0,46,Guitar,6,4,Stems,0.13725346326828003,0
56,100,0.2409090909090909,466,1,46,Guitar,6,4,Stems,0.15978296101093292,0
56,100,0.22272727272727272,606,0,46,Guitar,6,4,Stems,0.18645299971103668,0
56,100,0.3409090909090909,871,1,46,Guitar,6,5,Stems,0.25816580653190613,0
56,100,0.36363636363636365,136,1,47,Guitar,6,6,Stems,0.9986500144004822,1
56,100,0.2409090909090909,273,0,47,Guitar,6,4,Stems,0.08780214935541153,0
58,100,0.22272727272727272,488,0,47,Guitar,6,4,Stems,0.09181378036737442,0
58,100,0.4772727272727273,545,0,47,Guitar,6,8,Stems,0.1074736937880516,0
58,100,0.3,673,0,47,Guitar,6,5,Stems,0.12482155859470367,0
58,100,0.17727272727272728,823,0,47,Guitar,6,3,Stems,0.1790282428264618,0
53,100,0.1409090909090909,21,1,48,Guitar,6,2,Stems,0.9986500144004822,1
58,100,0.3,69,0,48,Guitar,6,5,Stems,0.08780129998922348,0
58,100,0.5636363636363636,201,0,48,Guitar,6,9,Stems,0.0918131023645401,0
58,100,0.12272727272727273,334,0,48,Guitar,6,2,Stems,0.10747415572404861,0
58,100,0.3,405,0,48,Guitar,6,5,Stems,0.12482330203056335,0
58,100,0.3,474,0,48,Guitar,6,5,Stems,0.17902451753616333,0
53,100,0.5181818181818182,40,1,50,Guitar,6,8,Stems,0.9983165264129639,1
53,100,0.2818181818181818,444,1,50,Guitar,6,5,Stems,0.5445597767829895,0
53,100,0.11818181818181818,853,1,51,Guitar,6,2,Stems,0.9792561531066895,0
58,100,0.1590909090909091,628,1,52,Guitar,6,3,Stems,0.9983165264129639,1
63,100,0.21818181818181817,735,0,52,Guitar,6,3,Stems,0.5445522665977478,0
63,100,0.11818181818181818,198,1,53,Guitar,6,2,Stems,0.9990230798721313,1
63,100,0.2,268,0,53,Guitar,6,3,Stems,0.36662939190864563,0
63,100,0.3409090909090909,408,0,53,Guitar,6,5,Stems,0.4533030688762665,0
63,100,0.18181818181818182,708,1,54,Guitar,6,3,Stems,0.9792561531066895,1
63,100,0.2409090909090909,153,1,55,Guitar,6,4,Stems,0.9792556166648865,0
63,100,0.12272727272727273,444,1,58,Guitar,6,2,Stems,0.979256272315979,0
63,100,0.1409090909090909,343,1,61,Guitar,6,2,Stems,0.9983165264129639,1
63,100,0.18181818181818182,751,1,61,Guitar,6,3,Stems,0.5445655584335327,0
63,100,0.4590909090909091,848,1,63,Guitar,6,7,Stems,0.979255735874176,0
63,100,0.1,87,1,64,Guitar,6,2,Stems,0.9990229606628418,1
63,100,0.2818181818181818,145,0,64,Guitar,6,5,Stems,0.3666241466999054,0
56,100,0.35909090909090907,866,1,64,Guitar,6,6,Stems,0.45329850912094116,0
56,100,0.17727272727272728,713,1,65,Guitar,6,3,Stems,0.9792565107345581,0
58,100,0.1,74,1,69,Guitar,6,2,Stems,0.9990057349205017,1
63,100,0.2,140,0,69,Guitar,6,3,Stems,0.2311975657939911,0
53,100,0.1,282,0,69,Guitar,6,2,Stems,0.2659136950969696,0
53,100,0.11818181818181818,677,1,69,Guitar,6,2,Stems,0.35419508814811707,0
53,100,0.2,153,1,70,Guitar,6,3,Stems,0.9990229606628418,1
53,100,0.12272727272727273,356,0,70,Guitar,6,2,Stems,0.36662164330482483,0
53,100,0.18181818181818182,422,0,70,Guitar,6,3,Stems,0.4532862603664398,0
70,100,0.17727272727272728,17,1,71,Guitar,6,3,Stems,0.9983165264129639,1
58,100,0.2,96,0,71,Guitar,6,3,Stems,0.5445530414581299,0
58,100,0.1,136,1,73,Guitar,6,2,Stems,0.9983165264129639,1
62,100,0.1,734,1,73,Guitar,6,2,Stems,0.5445582866668701,0
63,100,0.1590909090909091,233,1,77,Guitar,6,3,Stems,0.9792559146881104,0
63,100,0.11818181818181818,792,1,78,Guitar,6,2,Stems,0.979256272315979,1
63,100,0.1,246,1,79,Guitar,6,2,Stems,0.9792561531066895,0
63,100,0.11818181818181818,726,1,81,Guitar,6,2,Stems,0.9792558550834656,0
53,100,0.17727272727272728,127,1,82,Guitar,6,3,Stems,0.9990229606628418,1
53,100,0.2,184,0,82,Guitar,6,3,Stems,0.3666278123855591,0
53,100,0.18181818181818182,663,1,82,Guitar,6,3,Stems,0.45328450202941895,0
63,100,0.12272727272727273,3,1,83,Guitar,6,2,Stems,0.9983164072036743,1
58,100,0.2,677,1,83,Guitar,6,3,Stems,0.5445628762245178,0
67,100,0.2818181818181818,132,1,84,Guitar,6,5,Stems,0.9990057349205017,1
62,100,0.3181818181818182,263,0,84,Guitar,6,5,Stems,0.23120424151420593,0
63,100,0.6818181818181818,483,0,84,Guitar,6,11,Stems,0.2659199833869934,0
70,100,0.1,686,0,84,Guitar,6,2,Stems,0.35420340299606323,0
70,100,0.1,26,1,85,Guitar,6,2,Stems,0.9983736276626587,1
65,100,0.1,220,0,85,Guitar,6,2,Stems,0.0510607585310936,0
67,100,0.2,289,0,85,Guitar,6,3,Stems,0.04130244255065918,0
67,100,0.2590909090909091,404,0,85,Guitar,6,4,Stems,0.037385378032922745,0
62,100,0.2590909090909091,480,0,85,Guitar,6,4,Stems,0.038329143077135086,0
62,100,0.5227272727272727,553,0,85,Guitar,6,8,Stems,0.04475193843245506,0
63,100,0.3409090909090909,703,0,85,Guitar,6,5,Stems,0.055230483412742615,0
63,100,0.4,783,0,85,Guitar,6,6,Stems,0.09026772528886795,0
63,100,0.2590909090909091,13,1,86,Guitar,6,4,Stems,0.9990057349205017,1
56,100,0.1409090909090909,365,1,86,Guitar,6,2,Stems,0.23120354115962982,0
63,100,0.1,443,0,86,Guitar,6,2,Stems,0.26592952013015747,0
65,100,0.11818181818181818,734,1,86,Guitar,6,2,Stems,0.3542003035545349,0
63,100,0.11818181818181818,722,1,88,Guitar,6,2,Stems,0.9792565107345581,1
63,100,0.2590909090909091,106,1,89,Guitar,6,4,Stems,0.9792558550834656,0
55,100,0.5363636363636364,523,1,90,Guitar,6,9,Stems,0.9983164072036743,1
55,100,0.7772727272727272,646,0,90,Guitar,6,12,Stems,0.5445535182952881,0
58,100,0.18181818181818182,597,1,97,Guitar,6,3,Stems,0.9792565107345581,0
58,100,0.2409090909090909,870,1,105,Guitar,6,4,Stems,0.9792569875717163,0
65,100,0.1590909090909091,197,1,106,Guitar,6,3,Stems,0.9990229606628418,1
65,100,0.17727272727272728,273,0,106,Guitar,6,3,Stems,0.36662477254867554,0
62,100,0.2,616,1,106,Guitar,6,3,Stems,0.4532906711101532,0
63,100,0.5181818181818182,22,1,107,Guitar,6,8,Stems,0.9983164072036743,1
62,100,0.2590909090909091,823,1,107,Guitar,6,4,Stems,0.5445670485496521,0
62,100,0.2409090909090909,13,1,108,Guitar,6,4,Stems,0.9990229606628418,1
65,100,0.2,637,1,108,Guitar,6,3,Stems,0.3666256368160248,0
65,100,0.2590909090909091,690,0,108,Guitar,6,4,Stems,0.45328935980796814,0
62,100,0.3,163,1,109,Guitar,6,5,Stems,0.9988419413566589,1
62,100,0.1409090909090909,242,0,109,Guitar,6,2,Stems,0.13725250959396362,0
63,100,0.21818181818181817,383,0,109,Guitar,6,3,Stems,0.15978096425533295,0
63,100,0.16363636363636364,443,0,109,Guitar,6,3,Stems,0.1864650547504425,0
63,100,0.1,509,0,109,Guitar,6,2,Stems,0.25818389654159546,0
58,100,0.1409090909090909,163,1,110,Guitar,6,2,Stems,0.9983165264129639,1
63,100,0.17727272727272728,237,0,110,Guitar,6,3,Stems,0.5445606112480164,0
70,100,0.11818181818181818,417,1,111,Guitar,6,2,Stems,0.9792563915252686,1
58,100,0.38181818181818183,817,1,1,DL_warm_Guitar,6,6,omokagewarmruriko,0.9792566299438477,0
58,100,0.17727272727272728,259,1,2,DL_warm_Guitar,6,3,omokagewarmruriko,0.9988419413566589,1
58,100,0.2818181818181818,330,0,2,DL_warm_Guitar,6,5,omokagewarmruriko,0.13724714517593384,0
55,100,0.1,501,0,2,DL_warm_Guitar,6,2,omokagewarmruriko,0.15977449715137482,0
58,100,0.18181818181818182,528,0,2,DL_warm_Guitar,6,3,omokagewarmruriko,0.18644516170024872,0
58,100,0.759090909090909,607,0,2,DL_warm_Guitar,6,12,omokagewarmruriko,0.2581556737422943,0
58,100,0.7227272727272728,510,1,3,DL_warm_Guitar,6,12,omokagewarmruriko,0.9983165264129639,1
58,100,0.36363636363636365,840,1,3,DL_warm_Guitar,6,6,omokagewarmruriko,0.5445582866668701,0
58,100,0.1409090909090909,43,1,4,DL_warm_Guitar,6,2,omokagewarmruriko,0.9983165264129639,1
58,100,0.5818181818181818,770,1,4,DL_warm_Guitar,6,9,omokagewarmruriko,0.5445529818534851,0
58,100,0.5,43,1,5,DL_warm_Guitar,6,8,omokagewarmruriko,0.9990229606628418,1
58,100,0.2409090909090909,232,0,5,DL_warm_Guitar,6,4,omokagewarmruriko,0.3666181266307831,0
58,100,0.2636363636363636,818,1,5,DL_warm_Guitar,6,4,omokagewarmruriko,0.4532873332500458,0
58,100,0.8409090909090909,56,1,6,DL_warm_Guitar,6,13,omokagewarmruriko,0.9988419413566589,1
58,100,0.5227272727272727,268,0,6,DL_warm_Guitar,6,8,omokagewarmruriko,0.13724581897258759,0
58,100,0.16363636363636364,399,0,6,DL_warm_Guitar,6,3,omokagewarmruriko,0.15977421402931213,0
58,100,0.2,440,0,6,DL_warm_Guitar,6,3,omokagewarmruriko,0.18644650280475616,0
58,100,0.2590909090909091,770,1,6,DL_warm_Guitar,6,4,omokagewarmruriko,0.25815558433532715,0
58,100,0.3409090909090909,69,1,7,DL_warm_Guitar,6,5,omokagewarmruriko,0.9990057349205017,1
58,100,0.2409090909090909,299,0,7,DL_warm_Guitar,6,4,omokagewarmruriko,0.2312050610780716,0
58,100,0.32272727272727275,355,0,7,DL_warm_Guitar,6,5,omokagewarmruriko,0.26591622829437256,0
58,100,0.16363636363636364,444,0,7,DL_warm_Guitar,6,3,omokagewarmruriko,0.35419508814811707,0
58,100,0.13636363636363635,171,1,8,DL_warm_Guitar,6,2,omokagewarmruriko,0.9990230798721313,1
58,100,0.11818181818181818,646,1,8,DL_warm_Guitar,6,2,omokagewarmruriko,0.36662548780441284,0
56,100,0.1,721,0,8,DL_warm_Guitar,6,2,omokagewarmruriko,0.45328831672668457,0
58,100,0.1,391,1,9,DL_warm_Guitar,6,2,omokagewarmruriko,0.9990230798721313,1
58,100,0.5409090909090909,651,1,9,DL_warm_Guitar,6,9,omokagewarmruriko,0.36662164330482483,0
58,100,0.3,818,0,9,DL_warm_Guitar,6,5,omokagewarmruriko,0.4532889127731323,0
58,100,0.5772727272727273,75,1,10,DL_warm_Guitar,6,9,omokagewarmruriko,0.9792568683624268,0
58,100,0.5,53,1,11,DL_warm_Guitar,6,8,omokagewarmruriko,0.9988420605659485,1
58,100,0.6,166,0,11,DL_warm_Guitar,6,10,omokagewarmruriko,0.13724909722805023,0
58,100,0.5818181818181818,307,0,11,DL_warm_Guitar,6,9,omokagewarmruriko,0.1597723513841629,0
58,100,0.32272727272727275,443,0,11,DL_warm_Guitar,6,5,omokagewarmruriko,0.1864480972290039,0
60,100,0.740909090909091,826,1,11,DL_warm_Guitar,6,12,omokagewarmruriko,0.25815409421920776,0
58,100,1.1590909090909092,132,1,12,DL_warm_Guitar,6,15,omokagewarmruriko,0.9988420605659485,1
58,100,0.41818181818181815,414,1,12,DL_warm_Guitar,6,7,omokagewarmruriko,0.1372518539428711,0
55,100,0.12272727272727273,541,0,12,DL_warm_Guitar,6,2,omokagewarmruriko,0.1597806066274643,0
55,100,0.1409090909090909,572,0,12,DL_warm_Guitar,6,2,omokagewarmruriko,0.18645082414150238,0
55,100,0.13636363636363635,611,0,12,DL_warm_Guitar,6,2,omokagewarmruriko,0.2581646740436554,0
60,100,0.3,158,1,13,DL_warm_Guitar,6,5,omokagewarmruriko,0.9983165264129639,1
58,100,0.1409090909090909,862,1,13,DL_warm_Guitar,6,2,omokagewarmruriko,0.5445568561553955,0
58,100,0.21818181818181817,660,1,14,DL_warm_Guitar,6,3,omokagewarmruriko,0.9983165264129639,1
58,100,0.11818181818181818,854,0,14,DL_warm_Guitar,6,2,omokagewarmruriko,0.5445564389228821,0
58,100,0.4818181818181818,3,1,15,DL_warm_Guitar,6,8,omokagewarmruriko,0.9990057349205017,1
67,100,0.1409090909090909,189,0,15,DL_warm_Guitar,6,2,omokagewarmruriko,0.23120072484016418,0
58,100,0.8,254,0,15,DL_warm_Guitar,6,13,omokagewarmruriko,0.26591870188713074,0
58,100,0.11818181818181818,876,1,15,DL_warm_Guitar,6,2,omokagewarmruriko,0.3541938364505768,0
58,100,0.6818181818181818,110,1,16,DL_warm_Guitar,6,11,omokagewarmruriko,0.9990057349205017,1
58,100,0.1409090909090909,364,1,16,DL_warm_Guitar,6,2,omokagewarmruriko,0.23120343685150146,0
58,100,0.22272727272727272,430,0,16,DL_warm_Guitar,6,4,omokagewarmruriko,0.26591694355010986,0
58,100,0.3409090909090909,691,1,16,DL_warm_Guitar,6,5,omokagewarmruriko,0.3541933000087738,0
58,100,0.1409090909090909,21,1,17,DL_warm_Guitar,6,2,omokagewarmruriko,0.9990057349205017,1
58,100,0.5409090909090909,246,0,17,DL_warm_Guitar,6,9,omokagewarmruriko,0.2311975210905075,0
58,100,0.9590909090909091,497,1,17,DL_warm_Guitar,6,15,omokagewarmruriko,0.26591670513153076,0
58,100,0.16363636363636364,729,1,17,DL_warm_Guitar,6,3,omokagewarmruriko,0.35419732332229614,0
58,100,0.1590909090909091,260,1,18,DL_warm_Guitar,6,3,omokagewarmruriko,0.9990230798721313,1
56,100,0.17727272727272728,691,1,18,DL_warm_Guitar,6,3,omokagewarmruriko,0.3666282892227173,0
58,100,0.6409090909090909,752,0,18,DL_warm_Guitar,6,10,omokagewarmruriko,0.45328155159950256,0
58,100,0.11818181818181818,30,1,19,DL_warm_Guitar,6,2,omokagewarmruriko,0.9986500144004822,1
58,100,0.38181818181818183,92,0,19,DL_warm_Guitar,6,6,omokagewarmruriko,0.0878031998872757,0
58,100,0.16363636363636364,179,0,19,DL_warm_Guitar,6,3,omokagewarmruriko,0.09181380271911621,0
58,100,0.1590909090909091,320,0,19,DL_warm_Guitar,6,3,omokagewarmruriko,0.10747929662466049,0
58,100,0.5818181818181818,488,0,19,DL_warm_Guitar,6,9,omokagewarmruriko,0.12482330203056335,0
58,100,0.5772727272727273,721,1,19,DL_warm_Guitar,6,9,omokagewarmruriko,0.1790326088666916,0
58,100,0.740909090909091,92,1,20,DL_warm_Guitar,6,12,omokagewarmruriko,0.9988419413566589,1
58,100,0.1409090909090909,268,0,20,DL_warm_Guitar,6,2,omokagewarmruriko,0.13724811375141144,0
58,100,0.1409090909090909,316,0,20,DL_warm_Guitar,6,2,omokagewarmruriko,0.1597772091627121,0
58,100,0.8409090909090909,351,0,20,DL_warm_Guitar,6,13,omokagewarmruriko,0.1864449679851532,0
58,100,1.018181818181818,669,1,20,DL_warm_Guitar,6,15,omokagewarmruriko,0.2581591010093689,0
58,100,0.2590909090909091,61,1,21,DL_warm_Guitar,6,4,omokagewarmruriko,0.9988420605659485,1
58,100,1.3,123,0,21,DL_warm_Guitar,6,15,omokagewarmruriko,0.13724631071090698,0
63,100,0.21818181818181817,413,1,21,DL_warm_Guitar,6,3,omokagewarmruriko,0.1597784012556076,0
67,100,0.1409090909090909,470,0,21,DL_warm_Guitar,6,2,omokagewarmruriko,0.1864481419324875,0
55,100,0.2,540,0,21,DL_warm_Guitar,6,3,omokagewarmruriko,0.25816231966018677,0
60,100,0.11818181818181818,330,1,22,DL_warm_Guitar,6,2,omokagewarmruriko,0.9983165264129639,1
60,100,0.2590909090909091,559,0,22,DL_warm_Guitar,6,4,omokagewarmruriko,0.5445535182952881,0
67,100,0.2818181818181818,607,1,23,DL_warm_Guitar,6,5,omokagewarmruriko,0.9792560338973999,0
58,100,0.2,61,1,24,DL_warm_Guitar,6,3,omokagewarmruriko,0.9988419413566589,1
58,100,0.3,343,1,24,DL_warm_Guitar,6,5,omokagewarmruriko,0.13724717497825623,0
58,100,0.1,540,0,24,DL_warm_Guitar,6,2,omokagewarmruriko,0.15977753698825836,0
58,100,0.2,743,0,24,DL_warm_Guitar,6,3,omokagewarmruriko,0.1864469349384308,0
58,100,0.6772727272727272,822,0,24,DL_warm_Guitar,6,11,omokagewarmruriko,0.25815707445144653,0
58,100,0.37727272727272726,162,1,25,DL_warm_Guitar,6,6,omokagewarmruriko,0.9986500144004822,1
58,100,0.9590909090909091,277,0,25,DL_warm_Guitar,6,15,omokagewarmruriko,0.08780144900083542,0
62,100,0.11818181818181818,528,1,25,DL_warm_Guitar,6,2,omokagewarmruriko,0.09181243181228638,0
58,100,0.2772727272727273,567,0,25,DL_warm_Guitar,6,4,omokagewarmruriko,0.1074795052409172,0
62,100,0.1409090909090909,669,0,25,DL_warm_Guitar,6,2,omokagewarmruriko,0.1248268336057663,0
58,100,0.6,770,0,25,DL_warm_Guitar,6,10,omokagewarmruriko,0.17903335392475128,0
58,100,0.2,123,1,26,DL_warm_Guitar,6,3,omokagewarmruriko,0.9984880685806274,1
58,100,0.3181818181818182,175,0,26,DL_warm_Guitar,6,5,omokagewarmruriko,0.06334560364484787,0
58,100,0.5772727272727273,272,0,26,DL_warm_Guitar,6,9,omokagewarmruriko,0.057740770280361176,0
58,100,0.11818181818181818,413,0,26,DL_warm_Guitar,6,2,omokagewarmruriko,0.06020163744688034,0
58,100,0.5,461,0,26,DL_warm_Guitar,6,8,omokagewarmruriko,0.06970015913248062,0
58,100,0.2636363636363636,619,0,26,DL_warm_Guitar,6,4,omokagewarmruriko,0.08189007639884949,0
58,100,0.2590909090909091,831,0,26,DL_warm_Guitar,6,4,omokagewarmruriko,0.12401469796895981,0
58,100,0.6227272727272727,69,1,27,DL_warm_Guitar,6,10,omokagewarmruriko,0.9988419413566589,1
60,100,0.17727272727272728,260,0,27,DL_warm_Guitar,6,3,omokagewarmruriko,0.137254998087883,0
58,100,0.6227272727272727,333,0,27,DL_warm_Guitar,6,10,omokagewarmruriko,0.15978121757507324,0
58,100,1.4636363636363636,488,0,27,DL_warm_Guitar,6,15,omokagewarmruriko,0.18645015358924866,0
56,100,0.43636363636363634,831,1,27,DL_warm_Guitar,6,7,omokagewarmruriko,0.25815942883491516,0
68,100,0.35909090909090907,144,1,28,DL_warm_Guitar,6,6,omokagewarmruriko,0.9988419413566589,1
68,100,0.4772727272727273,237,0,28,DL_warm_Guitar,6,8,omokagewarmruriko,0.13724800944328308,0
68,100,0.4590909090909091,387,0,28,DL_warm_Guitar,6,7,omokagewarmruriko,0.15977393090724945,0
58,100,0.13636363636363635,677,1,28,DL_warm_Guitar,6,2,omokagewarmruriko,0.18644900619983673,0
56,100,0.1590909090909091,787,0,28,DL_warm_Guitar,6,3,omokagewarmruriko,0.2581576406955719,0
68,100,0.2590909090909091,96,1,29,DL_warm_Guitar,6,4,omokagewarmruriko,0.9990229606628418,1
58,100,0.1409090909090909,229,0,29,DL_warm_Guitar,6,2,omokagewarmruriko,0.3666256070137024,0
58,100,0.4,804,1,29,DL_warm_Guitar,6,6,omokagewarmruriko,0.45329058170318604,0
58,100,0.3409090909090909,57,1,30,DL_warm_Guitar,6,5,omokagewarmruriko,0.9990057349205017,1
58,100,0.2590909090909091,254,0,30,DL_warm_Guitar,6,4,omokagewarmruriko,0.23121392726898193,0
58,100,0.6409090909090909,387,0,30,DL_warm_Guitar,6,10,omokagewarmruriko,0.26592791080474854,0
58,100,2.0,804,1,30,DL_warm_Guitar,6,15,omokagewarmruriko,0.35418352484703064,0
58,100,0.7227272727272728,453,1,31,DL_warm_Guitar,6,12,omokagewarmruriko,0.9990057349205017,1
58,100,0.5818181818181818,619,0,31,DL_warm_Guitar,6,9,omokagewarmruriko,0.23120225965976715,0
60,100,0.17727272727272728,801,0,31,DL_warm_Guitar,6,3,omokagewarmruriko,0.2659214735031128,0
70,100,0.2590909090909091,845,0,31,DL_warm_Guitar,6,4,omokagewarmruriko,0.3541859984397888,0
63,100,0.36363636363636365,48,1,32,DL_warm_Guitar,6,6,omokagewarmruriko,0.9990057349205017,1
58,100,0.5590909090909091,166,0,32,DL_warm_Guitar,6,9,omokagewarmruriko,0.23120996356010437,0
58,100,1.018181818181818,435,1,32,DL_warm_Guitar,6,15,omokagewarmruriko,0.26592379808425903,0
58,100,0.7227272727272728,694,1,32,DL_warm_Guitar,6,12,omokagewarmruriko,0.3542014956474304,0
68,100,0.36363636363636365,69,1,33,DL_warm_Guitar,6,6,omokagewarmruriko,0.9988419413566589,1
68,100,0.1409090909090909,188,0,33,DL_warm_Guitar,6,2,omokagewarmruriko,0.1372515857219696,0
60,100,0.9636363636363636,268,0,33,DL_warm_Guitar,6,15,omokagewarmruriko,0.15977910161018372,0
58,100,0.6227272727272727,673,1,33,DL_warm_Guitar,6,10,omokagewarmruriko,0.18644973635673523,0
68,100,0.2409090909090909,823,0,33,DL_warm_Guitar,6,4,omokagewarmruriko,0.25816166400909424,0
58,100,0.12272727272727273,201,1,34,DL_warm_Guitar,6,2,omokagewarmruriko,0.9983165264129639,1
58,100,0.5409090909090909,581,1,34,DL_warm_Guitar,6,9,omokagewarmruriko,0.5445510149002075,0
58,100,0.1,251,1,35,DL_warm_Guitar,6,2,omokagewarmruriko,0.9986500144004822,1
58,100,0.7818181818181819,364,0,35,DL_warm_Guitar,6,13,omokagewarmruriko,0.08780266344547272,0
70,100,0.3,655,1,35,DL_warm_Guitar,6,5,omokagewarmruriko,0.09181252121925354,0
62,100,0.17727272727272728,778,0,35,DL_warm_Guitar,6,3,omokagewarmruriko,0.10747501254081726,0
62,100,0.1590909090909091,823,0,35,DL_warm_Guitar,6,3,omokagewarmruriko,0.12482438236474991,0
58,100,0.740909090909091,866,0,35,DL_warm_Guitar,6,12,omokagewarmruriko,0.17903222143650055,0
70,100,0.3,193,1,36,DL_warm_Guitar,6,5,omokagewarmruriko,0.9984880685806274,1
58,100,0.4590909090909091,260,0,36,DL_warm_Guitar,6,7,omokagewarmruriko,0.0633455440402031,0
58,100,0.4636363636363636,378,0,36,DL_warm_Guitar,6,7,omokagewarmruriko,0.057741422206163406,0
58,100,0.6,515,0,36,DL_warm_Guitar,6,10,omokagewarmruriko,0.06020209565758705,0
70,100,0.11818181818181818,646,0,36,DL_warm_Guitar,6,2,omokagewarmruriko,0.0697002187371254,0
55,100,0.2818181818181818,686,0,36,DL_warm_Guitar,6,5,omokagewarmruriko,0.08189129829406738,0
60,100,0.11818181818181818,801,0,36,DL_warm_Guitar,6,2,omokagewarmruriko,0.12401656061410904,0
58,100,0.3,8,1,37,DL_warm_Guitar,6,5,omokagewarmruriko,0.9984880685806274,1
58,100,0.1590909090909091,166,0,37,DL_warm_Guitar,6,3,omokagewarmruriko,0.06334571540355682,0
58,100,1.0227272727272727,211,0,37,DL_warm_Guitar,6,15,omokagewarmruriko,0.057740360498428345,0
70,100,0.2,435,0,37,DL_warm_Guitar,6,3,omokagewarmruriko,0.060202743858098984,0
58,100,0.4409090909090909,483,0,37,DL_warm_Guitar,6,7,omokagewarmruriko,0.0697016790509224,0
55,100,0.11818181818181818,633,0,37,DL_warm_Guitar,6,2,omokagewarmruriko,0.08189373463392258,0
58,100,0.9,703,0,37,DL_warm_Guitar,6,14,omokagewarmruriko,0.12401501834392548,0
58,100,0.2409090909090909,34,1,38,DL_warm_Guitar,6,4,omokagewarmruriko,0.9986500144004822,1
68,100,0.17727272727272728,141,0,38,DL_warm_Guitar,6,3,omokagewarmruriko,0.0878010243177414,0
58,100,0.2590909090909091,281,0,38,DL_warm_Guitar,6,4,omokagewarmruriko,0.09181348234415054,0
58,100,0.2,444,0,38,DL_warm_Guitar,6,3,omokagewarmruriko,0.1074787825345993,0
68,100,0.16363636363636364,554,0,38,DL_warm_Guitar,6,3,omokagewarmruriko,0.12482118606567383,0
58,100,0.5818181818181818,726,0,38,DL_warm_Guitar,6,9,omokagewarmruriko,0.17902997136116028,0
68,100,0.6818181818181818,48,1,39,DL_warm_Guitar,6,11,omokagewarmruriko,0.9990229606628418,1
68,100,0.17727272727272728,206,0,39,DL_warm_Guitar,6,3,omokagewarmruriko,0.3666298985481262,0
58,100,0.6409090909090909,668,1,39,DL_warm_Guitar,6,10,omokagewarmruriko,0.45328742265701294,0
58,100,0.4590909090909091,0,1,40,DL_warm_Guitar,6,7,omokagewarmruriko,0.9988419413566589,1
58,100,0.3,383,1,40,DL_warm_Guitar,6,5,omokagewarmruriko,0.1372448205947876,0
70,100,0.1590909090909091,448,0,40,DL_warm_Guitar,6,3,omokagewarmruriko,0.1597767472267151,0
58,100,0.5,483,0,40,DL_warm_Guitar,6,8,omokagewarmruriko,0.18644656240940094,0
70,100,0.2409090909090909,703,0,40,DL_warm_Guitar,6,4,omokagewarmruriko,0.258162260055542,0
58,100,0.740909090909091,31,1,41,DL_warm_Guitar,6,12,omokagewarmruriko,0.9986500144004822,1
70,100,0.22272727272727272,246,0,41,DL_warm_Guitar,6,4,omokagewarmruriko,0.08780325949192047,0
58,100,0.5,295,0,41,DL_warm_Guitar,6,8,omokagewarmruriko,0.09181252121925354,0
58,100,0.6590909090909091,435,0,41,DL_warm_Guitar,6,11,omokagewarmruriko,0.10747784376144409,0
70,100,0.2590909090909091,660,0,41,DL_warm_Guitar,6,4,omokagewarmruriko,0.12482475489377975,0
58,100,0.8227272727272728,716,0,41,DL_warm_Guitar,6,13,omokagewarmruriko,0.1790243536233902,0
58,100,0.4,75,1,42,DL_warm_Guitar,6,6,omokagewarmruriko,0.9990230798721313,1
60,100,0.12272727272727273,224,0,42,DL_warm_Guitar,6,2,omokagewarmruriko,0.36664387583732605,0
58,100,2.2772727272727273,260,0,42,DL_warm_Guitar,6,15,omokagewarmruriko,0.4532703459262848,0
58,100,0.2818181818181818,4,1,43,DL_warm_Guitar,6,5,omokagewarmruriko,0.9983736276626587,1
58,100,0.35909090909090907,83,0,43,DL_warm_Guitar,6,6,omokagewarmruriko,0.05106143280863762,0
68,100,0.3409090909090909,286,0,43,DL_warm_Guitar,6,5,omokagewarmruriko,0.04130224138498306,0
60,100,0.5,373,0,43,DL_warm_Guitar,6,8,omokagewarmruriko,0.03738560155034065,0
58,100,0.21818181818181817,501,0,43,DL_warm_Guitar,6,3,omokagewarmruriko,0.03832828253507614,0
68,100,0.12272727272727273,664,0,43,DL_warm_Guitar,6,2,omokagewarmruriko,0.04475022479891777,0
60,100,0.2590909090909091,703,0,43,DL_warm_Guitar,6,4,omokagewarmruriko,0.055227894335985184,0
58,100,0.6818181818181818,770,0,43,DL_warm_Guitar,6,11,omokagewarmruriko,0.09026231616735458,0
68,100,0.6,40,1,44,DL_warm_Guitar,6,10,omokagewarmruriko,0.9983165264129639,1
58,100,0.5409090909090909,716,1,44,DL_warm_Guitar,6,9,omokagewarmruriko,0.5445594191551208,0
58,100,0.33636363636363636,40,1,45,DL_warm_Guitar,6,5,omokagewarmruriko,0.9988419413566589,1
58,100,0.18181818181818182,131,0,45,DL_warm_Guitar,6,3,omokagewarmruriko,0.13724853098392487,0
58,100,0.2409090909090909,276,0,45,DL_warm_Guitar,6,4,omokagewarmruriko,0.15977780520915985,0
58,100,0.18181818181818182,483,0,45,DL_warm_Guitar,6,3,omokagewarmruriko,0.18645216524600983,0
58,100,1.8590909090909091,545,0,45,DL_warm_Guitar,6,15,omokagewarmruriko,0.25815126299858093,0
58,100,1.8,96,1,46,DL_warm_Guitar,6,15,omokagewarmruriko,0.9990057349205017,1
58,100,0.8,518,1,46,DL_warm_Guitar,6,13,omokagewarmruriko,0.23121021687984467,0
58,100,0.2,708,0,46,DL_warm_Guitar,6,3,omokagewarmruriko,0.26592186093330383,0
58,100,0.4590909090909091,848,0,46,DL_warm_Guitar,6,7,omokagewarmruriko,0.35419002175331116,0
60,100,0.6,171,1,47,DL_warm_Guitar,6,10,omokagewarmruriko,0.9990057349205017,1
58,100,0.7181818181818181,383,0,47,DL_warm_Guitar,6,11,omokagewarmruriko,0.23119716346263885,0
58,100,0.6181818181818182,593,0,47,DL_warm_Guitar,6,10,omokagewarmruriko,0.2659144699573517,0
58,100,0.3181818181818182,813,0,47,DL_warm_Guitar,6,5,omokagewarmruriko,0.3541947305202484,0
58,100,0.35909090909090907,118,1,48,DL_warm_Guitar,6,6,omokagewarmruriko,0.9990230798721313,1
60,100,0.22272727272727272,343,0,48,DL_warm_Guitar,6,4,omokagewarmruriko,0.3666263222694397,0
60,100,0.2818181818181818,708,1,48,DL_warm_Guitar,6,5,omokagewarmruriko,0.45329567790031433,0
60,100,0.16363636363636364,641,1,49,DL_warm_Guitar,6,3,omokagewarmruriko,0.9792567491531372,0
60,100,0.42272727272727273,69,1,50,DL_warm_Guitar,6,7,omokagewarmruriko,0.9990229606628418,1
53,100,0.2590909090909091,176,0,50,DL_warm_Guitar,6,4,omokagewarmruriko,0.36661794781684875,0
53,100,0.2409090909090909,241,0,50,DL_warm_Guitar,6,4,omokagewarmruriko,0.4532943367958069,0
58,100,0.41818181818181815,831,1,51,DL_warm_Guitar,6,7,omokagewarmruriko,0.9792556166648865,0
53,100,0.5181818181818182,426,1,52,DL_warm_Guitar,6,8,omokagewarmruriko,0.9792563915252686,0
58,100,2.340909090909091,163,1,53,DL_warm_Guitar,6,15,omokagewarmruriko,0.9983164072036743,1
58,100,0.5590909090909091,845,1,53,DL_warm_Guitar,6,9,omokagewarmruriko,0.544559121131897,0
58,100,0.5636363636363636,114,1,54,DL_warm_Guitar,6,9,omokagewarmruriko,0.9983164072036743,1
58,100,5.318181818181818,295,0,54,DL_warm_Guitar,6,15,omokagewarmruriko,0.5444777607917786,0
60,100,1.8227272727272728,641,1,55,DL_warm_Guitar,6,15,omokagewarmruriko,0.9792558550834656,0
58,100,0.5181818181818182,171,1,56,DL_warm_Guitar,6,8,omokagewarmruriko,0.9988419413566589,1
58,100,0.21818181818181817,396,0,56,DL_warm_Guitar,6,3,omokagewarmruriko,0.137247696518898,0
58,100,1.1181818181818182,448,0,56,DL_warm_Guitar,6,15,omokagewarmruriko,0.1597748100757599,0
58,100,0.4,703,1,56,DL_warm_Guitar,6,6,omokagewarmruriko,0.18644477427005768,0
58,100,0.4,871,0,56,DL_warm_Guitar,6,6,omokagewarmruriko,0.258161723613739,0
58,100,0.3181818181818182,678,1,57,DL_warm_Guitar,6,5,omokagewarmruriko,0.9983165264129639,1
58,100,0.5,810,0,57,DL_warm_Guitar,6,8,omokagewarmruriko,0.5445535182952881,0
58,100,0.2,386,1,58,DL_warm_Guitar,6,3,omokagewarmruriko,0.9990058541297913,1
58,100,0.7,435,0,58,DL_warm_Guitar,6,11,omokagewarmruriko,0.23120644688606262,0
58,100,0.5181818181818182,625,0,58,DL_warm_Guitar,6,8,omokagewarmruriko,0.26592496037483215,0
58,100,0.3,839,0,58,DL_warm_Guitar,6,5,omokagewarmruriko,0.3541927635669708,0
58,100,1.759090909090909,31,1,59,DL_warm_Guitar,6,15,omokagewarmruriko,0.9990057349205017,1
58,100,0.36363636363636365,444,1,59,DL_warm_Guitar,6,6,omokagewarmruriko,0.23121801018714905,0
58,100,0.36363636363636365,531,0,59,DL_warm_Guitar,6,6,omokagewarmruriko,0.26593947410583496,0
58,100,2.459090909090909,638,0,59,DL_warm_Guitar,6,15,omokagewarmruriko,0.35417571663856506,0
58,100,0.4590909090909091,303,1,60,DL_warm_Guitar,6,7,omokagewarmruriko,0.9990229606628418,1
58,100,1.1,426,0,60,DL_warm_Guitar,6,15,omokagewarmruriko,0.3666260540485382,0
60,100,1.3818181818181818,791,1,60,DL_warm_Guitar,6,15,omokagewarmruriko,0.453286349773407,0
60,100,0.4409090909090909,334,1,61,DL_warm_Guitar,6,7,omokagewarmruriko,0.9990057349205017,1
58,100,0.6409090909090909,483,0,61,DL_warm_Guitar,6,10,omokagewarmruriko,0.23120582103729248,0
58,100,0.6409090909090909,638,0,61,DL_warm_Guitar,6,10,omokagewarmruriko,0.2659173905849457,0
58,100,0.21818181818181817,858,0,61,DL_warm_Guitar,6,3,omokagewarmruriko,0.3541911542415619,0
60,100,0.6181818181818182,96,1,62,DL_warm_Guitar,6,10,omokagewarmruriko,0.9984880685806274,1
58,100,0.3409090909090909,246,0,62,DL_warm_Guitar,6,5,omokagewarmruriko,0.06334537267684937,0
58,100,0.21818181818181817,351,0,62,DL_warm_Guitar,6,3,omokagewarmruriko,0.05774172022938728,0
58,100,0.4409090909090909,440,0,62,DL_warm_Guitar,6,7,omokagewarmruriko,0.060202986001968384,0
60,100,0.11818181818181818,703,1,62,DL_warm_Guitar,6,2,omokagewarmruriko,0.06970146298408508,0
60,100,0.18181818181818182,813,0,62,DL_warm_Guitar,6,3,omokagewarmruriko,0.08189444988965988,0
58,100,0.8590909090909091,858,0,62,DL_warm_Guitar,6,14,omokagewarmruriko,0.12401365488767624,0
58,100,0.18181818181818182,92,1,64,DL_warm_Guitar,6,3,omokagewarmruriko,0.9988419413566589,1
58,100,0.6409090909090909,145,0,64,DL_warm_Guitar,6,10,omokagewarmruriko,0.13724473118782043,0
58,100,0.6,487,1,64,DL_warm_Guitar,6,10,omokagewarmruriko,0.1597764641046524,0
70,100,0.1590909090909091,743,1,64,DL_warm_Guitar,6,3,omokagewarmruriko,0.18644696474075317,0
58,100,0.13636363636363635,787,0,64,DL_warm_Guitar,6,2,omokagewarmruriko,0.25816473364830017,0
58,100,0.2772727272727273,30,1,65,DL_warm_Guitar,6,4,omokagewarmruriko,0.9990230798721313,1
58,100,0.2590909090909091,100,0,65,DL_warm_Guitar,6,4,omokagewarmruriko,0.3666176497936249,0
60,100,0.11818181818181818,787,1,65,DL_warm_Guitar,6,2,omokagewarmruriko,0.4532949924468994,0
60,100,0.12272727272727273,26,1,66,DL_warm_Guitar,6,2,omokagewarmruriko,0.9988419413566589,1
60,100,0.2409090909090909,123,0,66,DL_warm_Guitar,6,4,omokagewarmruriko,0.13724800944328308,0
60,100,1.3636363636363635,179,0,66,DL_warm_Guitar,6,15,omokagewarmruriko,0.15977606177330017,0
60,100,0.23636363636363636,546,1,66,DL_warm_Guitar,6,4,omokagewarmruriko,0.18644575774669647,0
60,100,0.7181818181818181,787,1,66,DL_warm_Guitar,6,11,omokagewarmruriko,0.25816261768341064,0
60,100,0.9409090909090909,79,1,67,DL_warm_Guitar,6,15,omokagewarmruriko,0.9990229606628418,1
60,100,0.4772727272727273,502,1,67,DL_warm_Guitar,6,8,omokagewarmruriko,0.3666199743747711,0
60,100,0.3409090909090909,629,0,67,DL_warm_Guitar,6,5,omokagewarmruriko,0.45329293608665466,0
58,100,0.22272727272727272,26,1,68,DL_warm_Guitar,6,4,omokagewarmruriko,0.9990229606628418,1
58,100,0.2590909090909091,303,1,68,DL_warm_Guitar,6,4,omokagewarmruriko,0.36661824584007263,0
58,100,0.22272727272727272,597,1,68,DL_warm_Guitar,6,4,omokagewarmruriko,0.45329129695892334,0
58,100,0.2409090909090909,255,1,69,DL_warm_Guitar,6,4,omokagewarmruriko,0.9990230798721313,1
58,100,0.6772727272727272,536,1,69,DL_warm_Guitar,6,11,omokagewarmruriko,0.3666195273399353,0
58,100,0.5818181818181818,739,0,69,DL_warm_Guitar,6,9,omokagewarmruriko,0.45329058170318604,0
58,100,0.38181818181818183,440,1,70,DL_warm_Guitar,6,6,omokagewarmruriko,0.9983166456222534,1
60,100,0.6409090909090909,760,1,70,DL_warm_Guitar,6,10,omokagewarmruriko,0.544561505317688,0
60,100,0.17727272727272728,172,1,71,DL_warm_Guitar,6,3,omokagewarmruriko,0.9990057349205017,1
60,100,0.18181818181818182,263,0,71,DL_warm_Guitar,6,3,omokagewarmruriko,0.23120243847370148,0
60,100,0.9409090909090909,316,0,71,DL_warm_Guitar,6,15,omokagewarmruriko,0.2659161686897278,0
70,100,0.43636363636363634,523,0,71,DL_warm_Guitar,6,7,omokagewarmruriko,0.35419535636901855,0
58,100,0.2409090909090909,343,1,73,DL_warm_Guitar,6,4,omokagewarmruriko,0.9990230798721313,1
58,100,0.7,559,0,73,DL_warm_Guitar,6,11,omokagewarmruriko,0.3666151165962219,0
58,100,0.740909090909091,729,0,73,DL_warm_Guitar,6,12,omokagewarmruriko,0.453291654586792,0
58,100,0.13636363636363635,83,1,74,DL_warm_Guitar,6,2,omokagewarmruriko,0.9988419413566589,1
58,100,1.518181818181818,140,0,74,DL_warm_Guitar,6,15,omokagewarmruriko,0.13724477589130402,0
58,100,1.1181818181818182,502,1,74,DL_warm_Guitar,6,15,omokagewarmruriko,0.15977394580841064,0
70,100,0.11818181818181818,792,1,74,DL_warm_Guitar,6,2,omokagewarmruriko,0.18644876778125763,0
58,100,0.8636363636363636,817,0,74,DL_warm_Guitar,6,14,omokagewarmruriko,0.25815349817276,0
58,100,0.21818181818181817,132,1,75,DL_warm_Guitar,6,3,omokagewarmruriko,0.9990057349205017,1
58,100,0.7636363636363637,487,1,75,DL_warm_Guitar,6,12,omokagewarmruriko,0.23120872676372528,0
58,100,0.2409090909090909,660,0,75,DL_warm_Guitar,6,4,omokagewarmruriko,0.26593056321144104,0
58,100,1.3636363636363635,752,0,75,DL_warm_Guitar,6,15,omokagewarmruriko,0.3541792035102844,0
70,100,0.17727272727272728,172,1,76,DL_warm_Guitar,6,3,omokagewarmruriko,0.9984880685806274,1
58,100,0.41818181818181815,347,0,76,DL_warm_Guitar,6,7,omokagewarmruriko,0.06334373354911804,0
60,100,0.37727272727272726,470,0,76,DL_warm_Guitar,6,6,omokagewarmruriko,0.05774063989520073,0
70,100,0.11818181818181818,593,0,76,DL_warm_Guitar,6,2,omokagewarmruriko,0.060199614614248276,0
58,100,0.33636363636363636,633,0,76,DL_warm_Guitar,6,5,omokagewarmruriko,0.0697004571557045,0
58,100,0.2,783,0,76,DL_warm_Guitar,6,3,omokagewarmruriko,0.08188915252685547,0
60,100,0.11818181818181818,853,0,76,DL_warm_Guitar,6,2,omokagewarmruriko,0.12401959300041199,0
58,100,0.759090909090909,172,1,77,DL_warm_Guitar,6,12,omokagewarmruriko,0.9988419413566589,1
58,100,0.9,386,0,77,DL_warm_Guitar,6,14,omokagewarmruriko,0.13724669814109802,0
58,100,0.2818181818181818,593,0,77,DL_warm_Guitar,6,5,omokagewarmruriko,0.15977507829666138,0
60,100,0.5,743,0,77,DL_warm_Guitar,6,8,omokagewarmruriko,0.18644806742668152,0
58,100,0.6181818181818182,866,0,77,DL_warm_Guitar,6,10,omokagewarmruriko,0.25816425681114197,0
58,100,0.5409090909090909,136,1,78,DL_warm_Guitar,6,9,omokagewarmruriko,0.9988419413566589,1
58,100,0.11818181818181818,316,0,78,DL_warm_Guitar,6,2,omokagewarmruriko,0.1372477114200592,0
58,100,1.018181818181818,396,0,78,DL_warm_Guitar,6,15,omokagewarmruriko,0.1597723364830017,0
70,100,0.36363636363636365,619,0,78,DL_warm_Guitar,6,6,omokagewarmruriko,0.18644100427627563,0
58,100,0.37727272727272726,766,0,78,DL_warm_Guitar,6,6,omokagewarmruriko,0.25815773010253906,0
70,100,0.18181818181818182,176,1,79,DL_warm_Guitar,6,3,omokagewarmruriko,0.9983165264129639,1
58,100,1.240909090909091,220,0,79,DL_warm_Guitar,6,15,omokagewarmruriko,0.5445555448532104,0
58,100,0.2409090909090909,119,1,80,DL_warm_Guitar,6,4,omokagewarmruriko,0.9990057349205017,1
58,100,0.11818181818181818,220,0,80,DL_warm_Guitar,6,2,omokagewarmruriko,0.23120398819446564,0
58,100,0.32272727272727275,707,1,80,DL_warm_Guitar,6,5,omokagewarmruriko,0.2659202218055725,0
58,100,0.8818181818181818,783,0,80,DL_warm_Guitar,6,14,omokagewarmruriko,0.35418465733528137,0
70,100,0.37727272727272726,184,1,81,DL_warm_Guitar,6,6,omokagewarmruriko,0.9986500144004822,1
58,100,0.5409090909090909,396,0,81,DL_warm_Guitar,6,9,omokagewarmruriko,0.08780113607645035,0
60,100,0.2772727272727273,536,0,81,DL_warm_Guitar,6,4,omokagewarmruriko,0.09181348234415054,0
70,100,0.2772727272727273,612,0,81,DL_warm_Guitar,6,4,omokagewarmruriko,0.1074741780757904,0
58,100,0.6227272727272727,673,0,81,DL_warm_Guitar,6,10,omokagewarmruriko,0.12482073158025742,0
60,100,0.6590909090909091,813,0,81,DL_warm_Guitar,6,11,omokagewarmruriko,0.17903035879135132,0
58,100,0.2409090909090909,206,1,82,DL_warm_Guitar,6,4,omokagewarmruriko,0.9990057349205017,1
63,100,0.18181818181818182,453,1,82,DL_warm_Guitar,6,3,omokagewarmruriko,0.23120613396167755,0
63,100,0.1,496,0,82,DL_warm_Guitar,6,2,omokagewarmruriko,0.26592424511909485,0
63,100,0.4,619,0,82,DL_warm_Guitar,6,6,omokagewarmruriko,0.3541962504386902,0
58,100,0.11818181818181818,40,1,83,DL_warm_Guitar,6,2,omokagewarmruriko,0.9990230798721313,1
58,100,0.11818181818181818,83,0,83,DL_warm_Guitar,6,2,omokagewarmruriko,0.3666232228279114,0
58,100,0.5636363636363636,113,0,83,DL_warm_Guitar,6,9,omokagewarmruriko,0.4532892405986786,0
52,100,0.6227272727272727,246,1,0,DL_Remix_emotional_folk_Guitar,6,10,omokage_emotionalfolk,0.9986500144004822,1
59,100,0.2590909090909091,396,0,0,DL_Remix_emotional_folk_Guitar,6,4,omokage_emotionalfolk,0.08780357986688614,0
59,100,0.2,492,0,0,DL_Remix_emotional_folk_Guitar,6,3,omokage_emotionalfolk,0.09181314706802368,0
59,100,0.21818181818181817,559,0,0,DL_Remix_emotional_folk_Guitar,6,3,omokage_emotionalfolk,0.10747767239809036,0
59,100,0.18181818181818182,752,0,0,DL_Remix_emotional_folk_Guitar,6,3,omokage_emotionalfolk,0.1248248890042305,0
59,100,0.3,867,0,0,DL_Remix_emotional_folk_Guitar,6,5,omokage_emotionalfolk,0.17903073132038116,0
59,100,0.3409090909090909,136,1,1,DL_Remix_emotional_folk_Guitar,6,5,omokage_emotionalfolk,0.9990057349205017,1
52,100,0.32272727272727275,356,0,1,DL_Remix_emotional_folk_Guitar,6,5,omokage_emotionalfolk,0.23120266199111938,0
59,100,0.4590909090909091,458,0,1,DL_Remix_emotional_folk_Guitar,6,7,omokage_emotionalfolk,0.2659202516078949,0
61,100,0.18181818181818182,606,0,1,DL_Remix_emotional_folk_Guitar,6,3,omokage_emotionalfolk,0.3541971445083618,0
66,100,0.2,663,1,2,DL_Remix_emotional_folk_Guitar,6,3,omokage_emotionalfolk,0.9792565107345581,0
54,100,0.42272727272727273,34,1,3,DL_Remix_emotional_folk_Guitar,6,7,omokage_emotionalfolk,0.9984880685806274,1
54,100,0.1409090909090909,131,0,3,DL_Remix_emotional_folk_Guitar,6,2,omokage_emotionalfolk,0.06334568560123444,0
54,100,0.41818181818181815,396,1,3,DL_Remix_emotional_folk_Guitar,6,7,omokage_emotionalfolk,0.057741548866033554,0
54,100,0.1590909090909091,506,0,3,DL_Remix_emotional_folk_Guitar,6,3,omokage_emotionalfolk,0.060201071202754974,0
54,100,0.2818181818181818,553,0,3,DL_Remix_emotional_folk_Guitar,6,5,omokage_emotionalfolk,0.06970124691724777,0
54,100,0.1590909090909091,629,0,3,DL_Remix_emotional_folk_Guitar,6,3,omokage_emotionalfolk,0.08189316093921661,0
54,100,0.7,858,0,3,DL_Remix_emotional_folk_Guitar,6,11,omokage_emotionalfolk,0.12401601672172546,0
54,100,0.38181818181818183,135,1,4,DL_Remix_emotional_folk_Guitar,6,6,omokage_emotionalfolk,0.9986500144004822,1
54,100,0.1409090909090909,383,1,4,DL_Remix_emotional_folk_Guitar,6,2,omokage_emotionalfolk,0.08780227601528168,0
54,100,0.17727272727272728,427,0,4,DL_Remix_emotional_folk_Guitar,6,3,omokage_emotionalfolk,0.09181418269872665,0
59,100,0.6181818181818182,470,0,4,DL_Remix_emotional_folk_Guitar,6,10,omokage_emotionalfolk,0.10747511684894562,0
54,100,0.11818181818181818,624,0,4,DL_Remix_emotional_folk_Guitar,6,2,omokage_emotionalfolk,0.12482523173093796,0
59,100,0.6227272727272727,739,0,4,DL_Remix_emotional_folk_Guitar,6,10,omokage_emotionalfolk,0.17903277277946472,0
59,100,0.1409090909090909,0,1,5,DL_Remix_emotional_folk_Guitar,6,2,omokage_emotionalfolk,0.9990229606628418,1
54,100,0.18181818181818182,189,0,5,DL_Remix_emotional_folk_Guitar,6,3,omokage_emotionalfolk,0.36662131547927856,0
59,100,0.1,782,1,5,DL_Remix_emotional_folk_Guitar,6,2,omokage_emotionalfolk,0.45329320430755615,0
52,100,0.1409090909090909,0,1,6,DL_Remix_emotional_folk_Guitar,6,2,omokage_emotionalfolk,0.9990057349205017,1
59,100,0.2409090909090909,245,1,6,DL_Remix_emotional_folk_Guitar,6,4,omokage_emotionalfolk,0.23120369017124176,0
52,100,0.41818181818181815,440,0,6,DL_Remix_emotional_folk_Guitar,6,7,omokage_emotionalfolk,0.26592692732810974,0
52,100,1.1227272727272728,871,1,6,DL_Remix_emotional_folk_Guitar,6,15,omokage_emotionalfolk,0.35420018434524536,0
59,100,0.11818181818181818,263,1,7,DL_Remix_emotional_folk_Guitar,6,2,omokage_emotionalfolk,0.9986500144004822,1
63,100,0.12272727272727273,541,1,7,DL_Remix_emotional_folk_Guitar,6,2,omokage_emotionalfolk,0.08780333399772644,0
63,100,0.1,585,0,7,DL_Remix_emotional_folk_Guitar,6,2,omokage_emotionalfolk,0.0918174758553505,0
63,100,0.2772727272727273,647,0,7,DL_Remix_emotional_folk_Guitar,6,4,omokage_emotionalfolk,0.10748320817947388,0
63,100,0.22272727272727272,739,0,7,DL_Remix_emotional_folk_Guitar,6,4,omokage_emotionalfolk,0.1248362734913826,0
63,100,0.2,826,0,7,DL_Remix_emotional_folk_Guitar,6,3,omokage_emotionalfolk,0.17904509603977203,0
59,100,0.7,53,1,8,DL_Remix_emotional_folk_Guitar,6,11,omokage_emotionalfolk,0.9990057349205017,1
59,100,0.4772727272727273,237,0,8,DL_Remix_emotional_folk_Guitar,6,8,omokage_emotionalfolk,0.23120936751365662,0
56,100,0.22272727272727272,519,1,8,DL_Remix_emotional_folk_Guitar,6,4,omokage_emotionalfolk,0.265922486782074,0
56,100,0.2636363636363636,818,1,8,DL_Remix_emotional_folk_Guitar,6,4,omokage_emotionalfolk,0.3541945219039917,0
56,100,0.4818181818181818,3,1,9,DL_Remix_emotional_folk_Guitar,6,8,omokage_emotionalfolk,0.9990057349205017,1
56,100,0.33636363636363636,259,1,9,DL_Remix_emotional_folk_Guitar,6,5,omokage_emotionalfolk,0.2312157154083252,0
56,100,0.7636363636363637,553,1,9,DL_Remix_emotional_folk_Guitar,6,12,omokage_emotionalfolk,0.2659299969673157,0
56,100,0.9818181818181818,725,0,9,DL_Remix_emotional_folk_Guitar,6,15,omokage_emotionalfolk,0.35418349504470825,0
57,100,0.3409090909090909,144,1,10,DL_Remix_emotional_folk_Guitar,6,5,omokage_emotionalfolk,0.9988419413566589,1
52,100,0.17727272727272728,369,0,10,DL_Remix_emotional_folk_Guitar,6,3,omokage_emotionalfolk,0.13724608719348907,0
52,100,0.1,440,0,10,DL_Remix_emotional_folk_Guitar,6,2,omokage_emotionalfolk,0.15977786481380463,0
64,100,0.18181818181818182,620,0,10,DL_Remix_emotional_folk_Guitar,6,3,omokage_emotionalfolk,0.18644733726978302,0
64,100,0.12272727272727273,663,0,10,DL_Remix_emotional_folk_Guitar,6,2,omokage_emotionalfolk,0.2581689953804016,0
59,100,0.12272727272727273,519,1,11,DL_Remix_emotional_folk_Guitar,6,2,omokage_emotionalfolk,0.9983165264129639,1
59,100,0.5590909090909091,845,1,11,DL_Remix_emotional_folk_Guitar,6,9,omokage_emotionalfolk,0.544548749923706,0
59,100,0.2,259,1,12,DL_Remix_emotional_folk_Guitar,6,3,omokage_emotionalfolk,0.9990229606628418,1
52,100,0.11818181818181818,589,1,12,DL_Remix_emotional_folk_Guitar,6,2,omokage_emotionalfolk,0.36661696434020996,0
59,100,0.18181818181818182,804,0,12,DL_Remix_emotional_folk_Guitar,6,3,omokage_emotionalfolk,0.4532904624938965,0
63,100,0.7227272727272728,443,1,13,DL_Remix_emotional_folk_Guitar,6,12,omokage_emotionalfolk,0.9990230798721313,1
59,100,0.2,606,0,13,DL_Remix_emotional_folk_Guitar,6,3,omokage_emotionalfolk,0.36663758754730225,0
63,100,1.0,673,0,13,DL_Remix_emotional_folk_Guitar,6,15,omokage_emotionalfolk,0.4532882273197174,0
56,100,1.3636363636363635,510,1,14,DL_Remix_emotional_folk_Guitar,6,15,omokage_emotionalfolk,0.9792559146881104,0
56,100,0.3,273,1,15,DL_Remix_emotional_folk_Guitar,6,5,omokage_emotionalfolk,0.9990057349205017,1
54,100,0.1409090909090909,629,1,15,DL_Remix_emotional_folk_Guitar,6,2,omokage_emotionalfolk,0.2312031239271164,0
59,100,0.5363636363636364,744,0,15,DL_Remix_emotional_folk_Guitar,6,9,omokage_emotionalfolk,0.265912801027298,0
52,100,0.7181818181818181,866,0,15,DL_Remix_emotional_folk_Guitar,6,11,omokage_emotionalfolk,0.35419222712516785,0
57,100,0.7,144,1,16,DL_Remix_emotional_folk_Guitar,6,11,omokage_emotionalfolk,0.9990229606628418,1
64,100,0.5409090909090909,299,0,16,DL_Remix_emotional_folk_Guitar,6,9,omokage_emotionalfolk,0.3666239082813263,0
54,100,0.2409090909090909,440,0,16,DL_Remix_emotional_folk_Guitar,6,4,omokage_emotionalfolk,0.45329615473747253,0
59,100,0.4409090909090909,52,1,17,DL_Remix_emotional_folk_Guitar,6,7,omokage_emotionalfolk,0.9990057349205017,1
52,100,0.2,220,0,17,DL_Remix_emotional_folk_Guitar,6,3,omokage_emotionalfolk,0.231205016374588,0
52,100,0.6818181818181818,351,0,17,DL_Remix_emotional_folk_Guitar,6,11,omokage_emotionalfolk,0.2659243047237396,0
61,100,0.7,660,1,17,DL_Remix_emotional_folk_Guitar,6,11,omokage_emotionalfolk,0.35419702529907227,0
54,100,0.2409090909090909,92,1,18,DL_Remix_emotional_folk_Guitar,6,4,omokage_emotionalfolk,0.9988420605659485,1
54,100,0.1409090909090909,154,0,18,DL_Remix_emotional_folk_Guitar,6,2,omokage_emotionalfolk,0.13724385201931,0
64,100,0.35909090909090907,395,1,18,DL_Remix_emotional_folk_Guitar,6,6,omokage_emotionalfolk,0.15977631509304047,0
63,100,0.1409090909090909,515,0,18,DL_Remix_emotional_folk_Guitar,6,2,omokage_emotionalfolk,0.18644236028194427,0
52,100,0.7,708,0,18,DL_Remix_emotional_folk_Guitar,6,11,omokage_emotionalfolk,0.2581636905670166,0
57,100,0.2818181818181818,0,1,19,DL_Remix_emotional_folk_Guitar,6,5,omokage_emotionalfolk,0.9983164072036743,1
64,100,0.5590909090909091,140,0,19,DL_Remix_emotional_folk_Guitar,6,9,omokage_emotionalfolk,0.5445573925971985,0
59,100,0.2,351,1,20,DL_Remix_emotional_folk_Guitar,6,3,omokage_emotionalfolk,0.9990057349205017,1
64,100,0.2590909090909091,492,0,20,DL_Remix_emotional_folk_Guitar,6,4,omokage_emotionalfolk,0.2312077432870865,0
64,100,0.1590909090909091,650,0,20,DL_Remix_emotional_folk_Guitar,6,3,omokage_emotionalfolk,0.26592952013015747,0
59,100,0.17727272727272728,831,0,20,DL_Remix_emotional_folk_Guitar,6,3,omokage_emotionalfolk,0.35420534014701843,0
59,100,0.33636363636363636,106,1,21,DL_Remix_emotional_folk_Guitar,6,5,omokage_emotionalfolk,0.9983165264129639,1
59,100,0.2818181818181818,708,1,21,DL_Remix_emotional_folk_Guitar,6,5,omokage_emotionalfolk,0.5445556044578552,0
54,100,0.1,457,1,22,DL_Remix_emotional_folk_Guitar,6,2,omokage_emotionalfolk,0.9986500144004822,1
66,100,0.2590909090909091,480,0,22,DL_Remix_emotional_folk_Guitar,6,4,omokage_emotionalfolk,0.08780258893966675,0
59,100,0.18181818181818182,540,0,22,DL_Remix_emotional_folk_Guitar,6,3,omokage_emotionalfolk,0.09181275218725204,0
66,100,0.2,625,0,22,DL_Remix_emotional_folk_Guitar,6,3,omokage_emotionalfolk,0.10747528076171875,0
66,100,0.11818181818181818,704,0,22,DL_Remix_emotional_folk_Guitar,6,2,omokage_emotionalfolk,0.12482357770204544,0
52,100,0.4590909090909091,791,0,22,DL_Remix_emotional_folk_Guitar,6,7,omokage_emotionalfolk,0.17903047800064087,0
52,100,0.2,44,1,23,DL_Remix_emotional_folk_Guitar,6,3,omokage_emotionalfolk,0.9986500144004822,1
57,100,0.7227272727272728,113,0,23,DL_Remix_emotional_folk_Guitar,6,12,omokage_emotionalfolk,0.08780304342508316,0
64,100,0.2818181818181818,505,1,23,DL_Remix_emotional_folk_Guitar,6,5,omokage_emotionalfolk,0.09181708842515945,0
57,100,0.16363636363636364,663,0,23,DL_Remix_emotional_folk_Guitar,6,3,omokage_emotionalfolk,0.10748099535703659,0
57,100,0.3,717,0,23,DL_Remix_emotional_folk_Guitar,6,5,omokage_emotionalfolk,0.12482892721891403,0
64,100,0.6590909090909091,822,0,23,DL_Remix_emotional_folk_Guitar,6,11,omokage_emotionalfolk,0.17903821170330048,0
59,100,0.13636363636363635,106,1,24,DL_Remix_emotional_folk_Guitar,6,2,omokage_emotionalfolk,0.9990229606628418,1
59,100,0.11818181818181818,303,0,24,DL_Remix_emotional_folk_Guitar,6,2,omokage_emotionalfolk,0.3666163682937622,0
64,100,1.0772727272727274,700,1,24,DL_Remix_emotional_folk_Guitar,6,15,omokage_emotionalfolk,0.45329350233078003,0
59,100,0.13636363636363635,260,1,25,DL_Remix_emotional_folk_Guitar,6,2,omokage_emotionalfolk,0.9990057349205017,1
64,100,0.7181818181818181,308,0,25,DL_Remix_emotional_folk_Guitar,6,11,omokage_emotionalfolk,0.2312043011188507,0
57,100,0.1,646,1,25,DL_Remix_emotional_folk_Guitar,6,2,omokage_emotionalfolk,0.26591888070106506,0
64,100,0.35909090909090907,673,0,25,DL_Remix_emotional_folk_Guitar,6,6,omokage_emotionalfolk,0.35420629382133484,0
64,100,0.1409090909090909,343,1,26,DL_Remix_emotional_folk_Guitar,6,2,omokage_emotionalfolk,0.9986500144004822,1
59,100,0.3409090909090909,497,0,26,DL_Remix_emotional_folk_Guitar,6,5,omokage_emotionalfolk,0.08780325949192047,0
54,100,0.18181818181818182,660,0,26,DL_Remix_emotional_folk_Guitar,6,3,omokage_emotionalfolk,0.09181316941976547,0
66,100,0.1409090909090909,739,0,26,DL_Remix_emotional_folk_Guitar,6,2,omokage_emotionalfolk,0.10747813433408737,0
66,100,0.12272727272727273,773,0,26,DL_Remix_emotional_folk_Guitar,6,2,omokage_emotionalfolk,0.12482599169015884,0
66,100,0.3,804,0,26,DL_Remix_emotional_folk_Guitar,6,5,omokage_emotionalfolk,0.17903432250022888,0
52,100,0.3181818181818182,17,1,27,DL_Remix_emotional_folk_Guitar,6,5,omokage_emotionalfolk,0.9990230798721313,1
56,100,0.1409090909090909,268,1,27,DL_Remix_emotional_folk_Guitar,6,2,omokage_emotionalfolk,0.36661702394485474,0
54,100,0.1,870,1,27,DL_Remix_emotional_folk_Guitar,6,2,omokage_emotionalfolk,0.4532952606678009,0
56,100,0.2409090909090909,88,1,28,DL_Remix_emotional_folk_Guitar,6,4,omokage_emotionalfolk,0.9983164072036743,1
61,100,0.2,378,1,28,DL_Remix_emotional_folk_Guitar,6,3,omokage_emotionalfolk,0.5445521473884583,0
59,100,0.3409090909090909,52,1,29,DL_Remix_emotional_folk_Guitar,6,5,omokage_emotionalfolk,0.9990057349205017,1
63,100,0.3,360,1,29,DL_Remix_emotional_folk_Guitar,6,5,omokage_emotionalfolk,0.23120707273483276,0
63,100,0.3,656,1,29,DL_Remix_emotional_folk_Guitar,6,5,omokage_emotionalfolk,0.2659386098384857,0
56,100,0.1409090909090909,752,0,29,DL_Remix_emotional_folk_Guitar,6,2,omokage_emotionalfolk,0.35419589281082153,0
59,100,0.17727272727272728,30,1,30,DL_Remix_emotional_folk_Guitar,6,3,omokage_emotionalfolk,0.9986500144004822,1
57,100,0.21818181818181817,206,0,30,DL_Remix_emotional_folk_Guitar,6,3,omokage_emotionalfolk,0.08780690282583237,0
57,100,0.1590909090909091,264,0,30,DL_Remix_emotional_folk_Guitar,6,3,omokage_emotionalfolk,0.09181815385818481,0
57,100,0.3181818181818182,505,1,30,DL_Remix_emotional_folk_Guitar,6,5,omokage_emotionalfolk,0.1074850857257843,0
57,100,0.2,646,0,30,DL_Remix_emotional_folk_Guitar,6,3,omokage_emotionalfolk,0.1248331218957901,0
57,100,0.7818181818181819,804,0,30,DL_Remix_emotional_folk_Guitar,6,13,omokage_emotionalfolk,0.17904053628444672,0
57,100,0.1,193,1,31,DL_Remix_emotional_folk_Guitar,6,2,omokage_emotionalfolk,0.9983164072036743,1
57,100,0.21818181818181817,241,0,31,DL_Remix_emotional_folk_Guitar,6,3,omokage_emotionalfolk,0.5445594191551208,0
54,100,0.1,201,1,32,DL_Remix_emotional_folk_Guitar,6,2,omokage_emotionalfolk,0.9983165264129639,1
63,100,0.2,531,1,32,DL_Remix_emotional_folk_Guitar,6,3,omokage_emotionalfolk,0.5445531606674194,0
57,100,0.2409090909090909,228,1,33,DL_Remix_emotional_folk_Guitar,6,4,omokage_emotionalfolk,0.9986500144004822,1
57,100,0.6181818181818182,426,0,33,DL_Remix_emotional_folk_Guitar,6,10,omokage_emotionalfolk,0.08780606836080551,0
64,100,0.5,584,0,33,DL_Remix_emotional_folk_Guitar,6,8,omokage_emotionalfolk,0.09181831777095795,0
64,100,0.2590909090909091,716,0,33,DL_Remix_emotional_folk_Guitar,6,4,omokage_emotionalfolk,0.10748285055160522,0
59,100,0.22272727272727272,774,0,33,DL_Remix_emotional_folk_Guitar,6,4,omokage_emotionalfolk,0.12483609467744827,0
64,100,0.5818181818181818,826,0,33,DL_Remix_emotional_folk_Guitar,6,9,omokage_emotionalfolk,0.17904452979564667,0
52,100,0.2,110,1,34,DL_Remix_emotional_folk_Guitar,6,3,omokage_emotionalfolk,0.9983004927635193,1
52,100,0.22272727272727272,158,0,34,DL_Remix_emotional_folk_Guitar,6,4,omokage_emotionalfolk,0.04466373845934868,0
59,100,0.11818181818181818,295,0,34,DL_Remix_emotional_folk_Guitar,6,2,omokage_emotionalfolk,0.03314971178770065,0
52,100,0.12272727272727273,378,0,34,DL_Remix_emotional_folk_Guitar,6,2,omokage_emotionalfolk,0.026579855009913445,0
52,100,0.1409090909090909,418,0,34,DL_Remix_emotional_folk_Guitar,6,2,omokage_emotionalfolk,0.02359539456665516,0
59,100,0.4,461,0,34,DL_Remix_emotional_folk_Guitar,6,6,omokage_emotionalfolk,0.02431451715528965,0
59,100,0.3181818181818182,681,0,34,DL_Remix_emotional_folk_Guitar,6,5,omokage_emotionalfolk,0.02968987263739109,0
59,100,0.1590909090909091,765,0,34,DL_Remix_emotional_folk_Guitar,6,3,omokage_emotionalfolk,0.04007689282298088,0
52,100,0.2590909090909091,801,0,34,DL_Remix_emotional_folk_Guitar,6,4,omokage_emotionalfolk,0.07092849165201187,0
52,100,0.4590909090909091,40,1,35,DL_Remix_emotional_folk_Guitar,6,7,omokage_emotionalfolk,0.9984880685806274,1
64,100,0.13636363636363635,150,0,35,DL_Remix_emotional_folk_Guitar,6,2,omokage_emotionalfolk,0.06334565579891205,0
64,100,0.18181818181818182,321,0,35,DL_Remix_emotional_folk_Guitar,6,3,omokage_emotionalfolk,0.05774194374680519,0
64,100,0.1409090909090909,440,0,35,DL_Remix_emotional_folk_Guitar,6,2,omokage_emotionalfolk,0.06020409241318703,0
52,100,0.1409090909090909,471,0,35,DL_Remix_emotional_folk_Guitar,6,2,omokage_emotionalfolk,0.06970356404781342,0
59,100,0.1409090909090909,664,0,35,DL_Remix_emotional_folk_Guitar,6,2,omokage_emotionalfolk,0.08189865201711655,0
59,100,0.3181818181818182,743,0,35,DL_Remix_emotional_folk_Guitar,6,5,omokage_emotionalfolk,0.12402361631393433,0
64,100,0.13636363636363635,150,1,36,DL_Remix_emotional_folk_Guitar,6,2,omokage_emotionalfolk,0.9986500144004822,1
59,100,0.12272727272727273,399,1,36,DL_Remix_emotional_folk_Guitar,6,2,omokage_emotionalfolk,0.08780373632907867,0
59,100,0.3,496,0,36,DL_Remix_emotional_folk_Guitar,6,5,omokage_emotionalfolk,0.09181179851293564,0
60,100,0.17727272727272728,603,0,36,DL_Remix_emotional_folk_Guitar,6,3,omokage_emotionalfolk,0.10747607052326202,0
60,100,0.2590909090909091,668,0,36,DL_Remix_emotional_folk_Guitar,6,4,omokage_emotionalfolk,0.12482242286205292,0
61,100,0.1409090909090909,866,0,36,DL_Remix_emotional_folk_Guitar,6,2,omokage_emotionalfolk,0.1790284663438797,0
61,100,0.3,144,1,37,DL_Remix_emotional_folk_Guitar,6,5,omokage_emotionalfolk,0.979255735874176,0
66,100,0.1590909090909091,34,1,38,DL_Remix_emotional_folk_Guitar,6,3,omokage_emotionalfolk,0.9988420605659485,1
66,100,0.1590909090909091,150,0,38,DL_Remix_emotional_folk_Guitar,6,3,omokage_emotionalfolk,0.13724680244922638,0
66,100,0.1590909090909091,241,0,38,DL_Remix_emotional_folk_Guitar,6,3,omokage_emotionalfolk,0.15977847576141357,0
63,100,0.21818181818181817,461,0,38,DL_Remix_emotional_folk_Guitar,6,3,omokage_emotionalfolk,0.1864427626132965,0
63,100,0.32272727272727275,598,0,38,DL_Remix_emotional_folk_Guitar,6,5,omokage_emotionalfolk,0.2581678628921509,0
56,100,0.4,241,1,39,DL_Remix_emotional_folk_Guitar,6,6,omokage_emotionalfolk,0.9988419413566589,1
56,100,0.1,373,0,39,DL_Remix_emotional_folk_Guitar,6,2,omokage_emotionalfolk,0.13724932074546814,0
56,100,1.0227272727272727,399,0,39,DL_Remix_emotional_folk_Guitar,6,15,omokage_emotionalfolk,0.15976986289024353,0
57,100,0.1590909090909091,735,1,39,DL_Remix_emotional_folk_Guitar,6,3,omokage_emotionalfolk,0.1864415556192398,0
57,100,0.3409090909090909,866,0,39,DL_Remix_emotional_folk_Guitar,6,5,omokage_emotionalfolk,0.2581539750099182,0
57,100,0.4590909090909091,150,1,40,DL_Remix_emotional_folk_Guitar,6,7,omokage_emotionalfolk,0.9984880685806274,1
57,100,0.12272727272727273,268,0,40,DL_Remix_emotional_folk_Guitar,6,2,omokage_emotionalfolk,0.06334684044122696,0
64,100,0.7181818181818181,303,0,40,DL_Remix_emotional_folk_Guitar,6,11,omokage_emotionalfolk,0.0577436201274395,0
64,100,0.3409090909090909,576,1,40,DL_Remix_emotional_folk_Guitar,6,5,omokage_emotionalfolk,0.06020725145936012,0
57,100,0.5590909090909091,651,0,40,DL_Remix_emotional_folk_Guitar,6,9,omokage_emotionalfolk,0.06970622390508652,0
52,100,0.2590909090909091,778,0,40,DL_Remix_emotional_folk_Guitar,6,4,omokage_emotionalfolk,0.08190198242664337,0
57,100,0.37727272727272726,845,0,40,DL_Remix_emotional_folk_Guitar,6,6,omokage_emotionalfolk,0.1240231916308403,0
57,100,0.2,61,1,41,DL_Remix_emotional_folk_Guitar,6,3,omokage_emotionalfolk,0.9983737468719482,1
57,100,0.3,123,0,41,DL_Remix_emotional_folk_Guitar,6,5,omokage_emotionalfolk,0.05106135085225105,0
59,100,0.18181818181818182,241,0,41,DL_Remix_emotional_folk_Guitar,6,3,omokage_emotionalfolk,0.04130515083670616,0
59,100,0.7363636363636363,348,0,41,DL_Remix_emotional_folk_Guitar,6,12,omokage_emotionalfolk,0.03738723322749138,0
64,100,0.3181818181818182,616,1,41,DL_Remix_emotional_folk_Guitar,6,5,omokage_emotionalfolk,0.038330111652612686,0
52,100,0.11818181818181818,713,0,41,DL_Remix_emotional_folk_Guitar,6,2,omokage_emotionalfolk,0.04475381225347519,0
64,100,0.22272727272727272,738,0,41,DL_Remix_emotional_folk_Guitar,6,4,omokage_emotionalfolk,0.05522941052913666,0
52,100,0.4,796,0,41,DL_Remix_emotional_folk_Guitar,6,6,omokage_emotionalfolk,0.09026830643415451,0
64,100,0.3,4,1,42,DL_Remix_emotional_folk_Guitar,6,5,omokage_emotionalfolk,0.9983003735542297,1
52,100,0.21818181818181817,75,0,42,DL_Remix_emotional_folk_Guitar,6,3,omokage_emotionalfolk,0.04466395825147629,0
64,100,0.3,163,0,42,DL_Remix_emotional_folk_Guitar,6,5,omokage_emotionalfolk,0.03315049037337303,0
52,100,0.42272727272727273,254,0,42,DL_Remix_emotional_folk_Guitar,6,7,omokage_emotionalfolk,0.02658122405409813,0
52,100,0.1590909090909091,351,0,42,DL_Remix_emotional_folk_Guitar,6,3,omokage_emotionalfolk,0.023596234619617462,0
52,100,0.759090909090909,396,0,42,DL_Remix_emotional_folk_Guitar,6,12,omokage_emotionalfolk,0.024316024035215378,0
57,100,0.1409090909090909,571,0,42,DL_Remix_emotional_folk_Guitar,6,2,omokage_emotionalfolk,0.029691658914089203,0
61,100,0.2818181818181818,791,0,42,DL_Remix_emotional_folk_Guitar,6,5,omokage_emotionalfolk,0.0400795079767704,0
54,100,0.11818181818181818,858,0,42,DL_Remix_emotional_folk_Guitar,6,2,omokage_emotionalfolk,0.0709337368607521,0
54,100,0.2,18,1,43,DL_Remix_emotional_folk_Guitar,6,3,omokage_emotionalfolk,0.9986500144004822,1
54,100,0.2,91,0,43,DL_Remix_emotional_folk_Guitar,6,3,omokage_emotionalfolk,0.08780300617218018,0
54,100,1.7772727272727273,141,0,43,DL_Remix_emotional_folk_Guitar,6,15,omokage_emotionalfolk,0.09181131422519684,0
54,100,0.13636363636363635,590,1,43,DL_Remix_emotional_folk_Guitar,6,2,omokage_emotionalfolk,0.1074770838022232,0
66,100,0.2818181818181818,619,0,43,DL_Remix_emotional_folk_Guitar,6,5,omokage_emotionalfolk,0.12482073158025742,0
54,100,0.1409090909090909,726,0,43,DL_Remix_emotional_folk_Guitar,6,2,omokage_emotionalfolk,0.17902609705924988,0
52,100,0.1409090909090909,43,1,44,DL_Remix_emotional_folk_Guitar,6,2,omokage_emotionalfolk,0.9988419413566589,1
64,100,0.2590909090909091,351,1,44,DL_Remix_emotional_folk_Guitar,6,4,omokage_emotionalfolk,0.13724897801876068,0
57,100,0.4,418,0,44,DL_Remix_emotional_folk_Guitar,6,6,omokage_emotionalfolk,0.1597798764705658,0
66,100,0.2,729,1,44,DL_Remix_emotional_folk_Guitar,6,3,omokage_emotionalfolk,0.18645735085010529,0
66,100,0.11818181818181818,831,0,44,DL_Remix_emotional_folk_Guitar,6,2,omokage_emotionalfolk,0.25817039608955383,0
66,100,0.11818181818181818,43,1,45,DL_Remix_emotional_folk_Guitar,6,2,omokage_emotionalfolk,0.9990057349205017,1
64,100,0.6409090909090909,431,1,45,DL_Remix_emotional_folk_Guitar,6,10,omokage_emotionalfolk,0.2312016785144806,0
59,100,0.5590909090909091,628,0,45,DL_Remix_emotional_folk_Guitar,6,9,omokage_emotionalfolk,0.26591891050338745,0
64,100,0.8,861,1,45,DL_Remix_emotional_folk_Guitar,6,13,omokage_emotionalfolk,0.35419732332229614,0
64,100,0.37727272727272726,193,1,46,DL_Remix_emotional_folk_Guitar,6,6,omokage_emotionalfolk,0.9990057349205017,1
59,100,0.7,289,0,46,DL_Remix_emotional_folk_Guitar,6,11,omokage_emotionalfolk,0.2312043458223343,0
64,100,1.3181818181818181,448,0,46,DL_Remix_emotional_folk_Guitar,6,15,omokage_emotionalfolk,0.265921413898468,0
52,100,0.11818181818181818,831,1,46,DL_Remix_emotional_folk_Guitar,6,2,omokage_emotionalfolk,0.35420283675193787,0
57,100,0.5818181818181818,373,1,47,DL_Remix_emotional_folk_Guitar,6,9,omokage_emotionalfolk,0.979256272315979,0
54,100,0.1590909090909091,198,1,48,DL_Remix_emotional_folk_Guitar,6,3,omokage_emotionalfolk,0.9990057349205017,1
63,100,0.12272727272727273,298,0,48,DL_Remix_emotional_folk_Guitar,6,2,omokage_emotionalfolk,0.23119895160198212,0
63,100,0.5590909090909091,523,0,48,DL_Remix_emotional_folk_Guitar,6,9,omokage_emotionalfolk,0.2659202218055725,0
54,100,0.1590909090909091,703,0,48,DL_Remix_emotional_folk_Guitar,6,3,omokage_emotionalfolk,0.3542080223560333,0
59,100,0.4,118,1,49,DL_Remix_emotional_folk_Guitar,6,6,omokage_emotionalfolk,0.9990229606628418,1
59,100,0.11818181818181818,260,0,49,DL_Remix_emotional_folk_Guitar,6,2,omokage_emotionalfolk,0.3666253387928009,0
54,100,0.2409090909090909,295,0,49,DL_Remix_emotional_folk_Guitar,6,4,omokage_emotionalfolk,0.45329320430755615,0
56,100,0.2,83,1,50,DL_Remix_emotional_folk_Guitar,6,3,omokage_emotionalfolk,0.9990229606628418,1
56,100,0.5590909090909091,515,1,50,DL_Remix_emotional_folk_Guitar,6,9,omokage_emotionalfolk,0.36662644147872925,0
56,100,0.759090909090909,700,0,50,DL_Remix_emotional_folk_Guitar,6,12,omokage_emotionalfolk,0.45328488945961,0
59,100,0.2636363636363636,378,1,53,DL_Remix_emotional_folk_Guitar,6,4,omokage_emotionalfolk,0.9990229606628418,1
59,100,0.1409090909090909,440,0,53,DL_Remix_emotional_folk_Guitar,6,2,omokage_emotionalfolk,0.36663106083869934,0
57,100,0.6409090909090909,506,0,53,DL_Remix_emotional_folk_Guitar,6,10,omokage_emotionalfolk,0.4532824456691742,0
63,100,0.11818181818181818,440,1,54,DL_Remix_emotional_folk_Guitar,6,2,omokage_emotionalfolk,0.9983165264129639,1
57,100,0.2409090909090909,584,0,54,DL_Remix_emotional_folk_Guitar,6,4,omokage_emotionalfolk,0.5445687174797058,0
57,100,0.6818181818181818,0,1,55,DL_Remix_emotional_folk_Guitar,6,11,omokage_emotionalfolk,0.9986500144004822,1
64,100,0.7,163,0,55,DL_Remix_emotional_folk_Guitar,6,11,omokage_emotionalfolk,0.08780521899461746,0
64,100,0.5181818181818182,483,1,55,DL_Remix_emotional_folk_Guitar,6,8,omokage_emotionalfolk,0.09181835502386093,0
52,100,0.11818181818181818,616,0,55,DL_Remix_emotional_folk_Guitar,6,2,omokage_emotionalfolk,0.1074843555688858,0
57,100,0.11818181818181818,646,0,55,DL_Remix_emotional_folk_Guitar,6,2,omokage_emotionalfolk,0.12483297288417816,0
57,100,0.5,729,0,55,DL_Remix_emotional_folk_Guitar,6,8,omokage_emotionalfolk,0.1790492981672287,0
59,100,0.12272727272727273,233,1,56,DL_Remix_emotional_folk_Guitar,6,2,omokage_emotionalfolk,0.9983165264129639,1
59,100,0.11818181818181818,330,0,56,DL_Remix_emotional_folk_Guitar,6,2,omokage_emotionalfolk,0.5445586442947388,0
64,100,0.2818181818181818,0,1,57,DL_Remix_emotional_folk_Guitar,6,5,omokage_emotionalfolk,0.9983736276626587,1
64,100,0.8,118,0,57,DL_Remix_emotional_folk_Guitar,6,13,omokage_emotionalfolk,0.051061082631349564,0
76,100,0.1590909090909091,295,0,57,DL_Remix_emotional_folk_Guitar,6,3,omokage_emotionalfolk,0.04130430147051811,0
52,100,0.2636363636363636,334,0,57,DL_Remix_emotional_folk_Guitar,6,4,omokage_emotionalfolk,0.03738772124052048,0
52,100,0.6,405,0,57,DL_Remix_emotional_folk_Guitar,6,10,omokage_emotionalfolk,0.038331709802150726,0
64,100,0.33636363636363636,611,0,57,DL_Remix_emotional_folk_Guitar,6,5,omokage_emotionalfolk,0.044753871858119965,0
52,100,0.21818181818181817,721,0,57,DL_Remix_emotional_folk_Guitar,6,3,omokage_emotionalfolk,0.05523316562175751,0
52,100,0.1409090909090909,796,0,57,DL_Remix_emotional_folk_Guitar,6,2,omokage_emotionalfolk,0.09026967734098434,0
59,100,0.21818181818181817,75,1,58,DL_Remix_emotional_folk_Guitar,6,3,omokage_emotionalfolk,0.9986500144004822,1
54,100,0.1590909090909091,298,0,58,DL_Remix_emotional_folk_Guitar,6,3,omokage_emotionalfolk,0.08780338615179062,0
64,100,0.2818181818181818,386,0,58,DL_Remix_emotional_folk_Guitar,6,5,omokage_emotionalfolk,0.09181414544582367,0
52,100,0.35909090909090907,483,0,58,DL_Remix_emotional_folk_Guitar,6,6,omokage_emotionalfolk,0.10747861862182617,0
64,100,0.33636363636363636,678,0,58,DL_Remix_emotional_folk_Guitar,6,5,omokage_emotionalfolk,0.12482768297195435,0
61,100,0.11818181818181818,813,0,58,DL_Remix_emotional_folk_Guitar,6,2,omokage_emotionalfolk,0.17903748154640198,0
66,100,0.12272727272727273,598,1,59,DL_Remix_emotional_folk_Guitar,6,2,omokage_emotionalfolk,0.9792571067810059,0
59,100,0.4590909090909091,144,1,60,DL_Remix_emotional_folk_Guitar,6,7,omokage_emotionalfolk,0.9988419413566589,1
59,100,0.2590909090909091,493,1,60,DL_Remix_emotional_folk_Guitar,6,4,omokage_emotionalfolk,0.1372455209493637,0
59,100,0.3,633,0,60,DL_Remix_emotional_folk_Guitar,6,5,omokage_emotionalfolk,0.1597762405872345,0
64,100,0.1409090909090909,708,0,60,DL_Remix_emotional_folk_Guitar,6,2,omokage_emotionalfolk,0.18644660711288452,0
64,100,0.17727272727272728,801,0,60,DL_Remix_emotional_folk_Guitar,6,3,omokage_emotionalfolk,0.25816696882247925,0
52,100,0.1590909090909091,40,1,61,DL_Remix_emotional_folk_Guitar,6,3,omokage_emotionalfolk,0.9990057349205017,1
66,100,0.2818181818181818,466,1,61,DL_Remix_emotional_folk_Guitar,6,5,omokage_emotionalfolk,0.23120608925819397,0
66,100,0.12272727272727273,576,0,61,DL_Remix_emotional_folk_Guitar,6,2,omokage_emotionalfolk,0.26592785120010376,0
61,100,0.42272727272727273,738,0,61,DL_Remix_emotional_folk_Guitar,6,7,omokage_emotionalfolk,0.3541897237300873,0
57,100,0.41818181818181815,43,1,62,DL_Remix_emotional_folk_Guitar,6,7,omokage_emotionalfolk,0.9990057349205017,1
61,100,0.2818181818181818,408,1,62,DL_Remix_emotional_folk_Guitar,6,5,omokage_emotionalfolk,0.23121102154254913,0
64,100,0.1409090909090909,668,1,62,DL_Remix_emotional_folk_Guitar,6,2,omokage_emotionalfolk,0.26592546701431274,0
57,100,0.2,788,0,62,DL_Remix_emotional_folk_Guitar,6,3,omokage_emotionalfolk,0.35419827699661255,0
76,100,1.3590909090909091,145,1,64,DL_Remix_emotional_folk_Guitar,6,15,omokage_emotionalfolk,0.9990229606628418,1
52,100,1.3227272727272728,453,1,64,DL_Remix_emotional_folk_Guitar,6,15,omokage_emotionalfolk,0.36662009358406067,0
52,100,0.11818181818181818,792,1,64,DL_Remix_emotional_folk_Guitar,6,2,omokage_emotionalfolk,0.45329827070236206,0
59,100,0.6227272727272727,333,1,65,DL_Remix_emotional_folk_Guitar,6,10,omokage_emotionalfolk,0.9990057349205017,1
52,100,0.12272727272727273,540,0,65,DL_Remix_emotional_folk_Guitar,6,2,omokage_emotionalfolk,0.23120297491550446,0
52,100,0.38181818181818183,663,0,65,DL_Remix_emotional_folk_Guitar,6,6,omokage_emotionalfolk,0.26591232419013977,0
64,100,0.1590909090909091,832,0,65,DL_Remix_emotional_folk_Guitar,6,3,omokage_emotionalfolk,0.3541993796825409,0
59,100,0.2818181818181818,430,1,66,DL_Remix_emotional_folk_Guitar,6,5,omokage_emotionalfolk,0.9792559146881104,0
64,100,0.1,360,1,67,DL_Remix_emotional_folk_Guitar,6,2,omokage_emotionalfolk,0.9990057349205017,1
61,100,0.3,383,0,67,DL_Remix_emotional_folk_Guitar,6,5,omokage_emotionalfolk,0.2312002182006836,0
61,100,0.18181818181818182,519,0,67,DL_Remix_emotional_folk_Guitar,6,3,omokage_emotionalfolk,0.26592347025871277,0
61,100,0.2818181818181818,642,0,67,DL_Remix_emotional_folk_Guitar,6,5,omokage_emotionalfolk,0.3541964888572693,0
61,100,0.21818181818181817,612,1,68,DL_Remix_emotional_folk_Guitar,6,3,omokage_emotionalfolk,0.9983164072036743,1
56,100,0.35909090909090907,844,1,68,DL_Remix_emotional_folk_Guitar,6,6,omokage_emotionalfolk,0.5445516109466553,0
59,100,0.8590909090909091,110,1,69,DL_Remix_emotional_folk_Guitar,6,14,omokage_emotionalfolk,0.9988419413566589,1
59,100,0.1,443,1,69,DL_Remix_emotional_folk_Guitar,6,2,omokage_emotionalfolk,0.13724760711193085,0
56,100,0.12272727272727273,585,0,69,DL_Remix_emotional_folk_Guitar,6,2,omokage_emotionalfolk,0.15977101027965546,0
59,100,0.8227272727272728,695,0,69,DL_Remix_emotional_folk_Guitar,6,13,omokage_emotionalfolk,0.18645019829273224,0
63,100,0.21818181818181817,876,0,69,DL_Remix_emotional_folk_Guitar,6,3,omokage_emotionalfolk,0.258161723613739,0
63,100,0.12272727272727273,56,1,70,DL_Remix_emotional_folk_Guitar,6,2,omokage_emotionalfolk,0.9988419413566589,1
64,100,0.17727272727272728,83,0,70,DL_Remix_emotional_folk_Guitar,6,3,omokage_emotionalfolk,0.13725070655345917,0
64,100,0.42272727272727273,386,1,70,DL_Remix_emotional_folk_Guitar,6,7,omokage_emotionalfolk,0.15978270769119263,0
57,100,0.11818181818181818,536,0,70,DL_Remix_emotional_folk_Guitar,6,2,omokage_emotionalfolk,0.18645521998405457,0
64,100,0.8181818181818182,580,0,70,DL_Remix_emotional_folk_Guitar,6,13,omokage_emotionalfolk,0.2581757605075836,0
57,100,0.4590909090909091,127,1,71,DL_Remix_emotional_folk_Guitar,6,7,omokage_emotionalfolk,0.9990229606628418,1
64,100,0.16363636363636364,729,1,71,DL_Remix_emotional_folk_Guitar,6,3,omokage_emotionalfolk,0.3666295111179352,0
64,100,0.1,832,0,71,DL_Remix_emotional_folk_Guitar,6,2,omokage_emotionalfolk,0.45329761505126953,0
59,100,0.2636363636363636,179,1,72,DL_Remix_emotional_folk_Guitar,6,4,omokage_emotionalfolk,0.9986500144004822,1
59,100,1.1590909090909092,260,0,72,DL_Remix_emotional_folk_Guitar,6,15,omokage_emotionalfolk,0.08779945969581604,0
59,100,0.43636363636363634,567,1,72,DL_Remix_emotional_folk_Guitar,6,7,omokage_emotionalfolk,0.0918116346001625,0
64,100,0.1409090909090909,663,0,72,DL_Remix_emotional_folk_Guitar,6,2,omokage_emotionalfolk,0.10747459530830383,0
59,100,0.21818181818181817,726,0,72,DL_Remix_emotional_folk_Guitar,6,3,omokage_emotionalfolk,0.12482264637947083,0
66,100,0.11818181818181818,823,0,72,DL_Remix_emotional_folk_Guitar,6,2,omokage_emotionalfolk,0.1790335327386856,0
54,100,0.41818181818181815,30,1,73,DL_Remix_emotional_folk_Guitar,6,7,omokage_emotionalfolk,0.9990057349205017,1
54,100,0.2590909090909091,172,0,73,DL_Remix_emotional_folk_Guitar,6,4,omokage_emotionalfolk,0.23120251297950745,0
54,100,0.1590909090909091,286,0,73,DL_Remix_emotional_folk_Guitar,6,3,omokage_emotionalfolk,0.2659218907356262,0
66,100,0.22272727272727272,430,0,73,DL_Remix_emotional_folk_Guitar,6,4,omokage_emotionalfolk,0.35419732332229614,0
61,100,0.17727272727272728,260,1,74,DL_Remix_emotional_folk_Guitar,6,3,omokage_emotionalfolk,0.9983164072036743,1
64,100,0.1409090909090909,792,1,74,DL_Remix_emotional_folk_Guitar,6,2,omokage_emotionalfolk,0.5445617437362671,0
61,100,0.21818181818181817,30,1,75,DL_Remix_emotional_folk_Guitar,6,3,omokage_emotionalfolk,0.9983003735542297,1
59,100,0.17727272727272728,250,0,75,DL_Remix_emotional_folk_Guitar,6,3,omokage_emotionalfolk,0.04466422274708748,0
59,100,0.11818181818181818,303,0,75,DL_Remix_emotional_folk_Guitar,6,2,omokage_emotionalfolk,0.033149924129247665,0
59,100,0.38181818181818183,333,0,75,DL_Remix_emotional_folk_Guitar,6,6,omokage_emotionalfolk,0.02657940983772278,0
71,100,0.1409090909090909,487,0,75,DL_Remix_emotional_folk_Guitar,6,2,omokage_emotionalfolk,0.023595646023750305,0
59,100,0.2409090909090909,563,0,75,DL_Remix_emotional_folk_Guitar,6,4,omokage_emotionalfolk,0.024314099922776222,0
52,100,0.1590909090909091,722,0,75,DL_Remix_emotional_folk_Guitar,6,3,omokage_emotionalfolk,0.02969057485461235,0
61,100,0.12272727272727273,783,0,75,DL_Remix_emotional_folk_Guitar,6,2,omokage_emotionalfolk,0.040075287222862244,0
52,100,0.1,866,0,75,DL_Remix_emotional_folk_Guitar,6,2,omokage_emotionalfolk,0.07093203812837601,0
52,100,0.3,56,1,76,DL_Remix_emotional_folk_Guitar,6,5,omokage_emotionalfolk,0.9983736276626587,1
57,100,0.4409090909090909,157,0,76,DL_Remix_emotional_folk_Guitar,6,7,omokage_emotionalfolk,0.05106138810515404,0
76,100,0.2590909090909091,273,0,76,DL_Remix_emotional_folk_Guitar,6,4,omokage_emotionalfolk,0.04130543768405914,0
57,100,0.5181818181818182,339,0,76,DL_Remix_emotional_folk_Guitar,6,8,omokage_emotionalfolk,0.037388090044260025,0
52,100,0.4409090909090909,509,0,76,DL_Remix_emotional_folk_Guitar,6,7,omokage_emotionalfolk,0.03833237662911415,0
52,100,0.2409090909090909,747,1,76,DL_Remix_emotional_folk_Guitar,6,4,omokage_emotionalfolk,0.044754527509212494,0
64,100,0.17727272727272728,800,0,76,DL_Remix_emotional_folk_Guitar,6,3,omokage_emotionalfolk,0.055232372134923935,0
64,100,1.0,849,0,76,DL_Remix_emotional_folk_Guitar,6,15,omokage_emotionalfolk,0.09026861935853958,0
54,100,0.11818181818181818,193,1,77,DL_Remix_emotional_folk_Guitar,6,2,omokage_emotionalfolk,0.9988419413566589,1
63,100,0.2409090909090909,255,0,77,DL_Remix_emotional_folk_Guitar,6,4,omokage_emotionalfolk,0.13724678754806519,0
64,100,0.11818181818181818,480,0,77,DL_Remix_emotional_folk_Guitar,6,2,omokage_emotionalfolk,0.15978029370307922,0
64,100,0.2409090909090909,585,0,77,DL_Remix_emotional_folk_Guitar,6,4,omokage_emotionalfolk,0.18645349144935608,0
64,100,0.5409090909090909,690,0,77,DL_Remix_emotional_folk_Guitar,6,9,omokage_emotionalfolk,0.25817084312438965,0
56,100,0.3181818181818182,150,1,78,DL_Remix_emotional_folk_Guitar,6,5,omokage_emotionalfolk,0.9988419413566589,1
61,100,0.1,307,0,78,DL_Remix_emotional_folk_Guitar,6,2,omokage_emotionalfolk,0.13724064826965332,0
64,100,0.23636363636363636,502,0,78,DL_Remix_emotional_folk_Guitar,6,4,omokage_emotionalfolk,0.15977193415164948,0
61,100,0.11818181818181818,660,0,78,DL_Remix_emotional_folk_Guitar,6,2,omokage_emotionalfolk,0.1864408254623413,0
64,100,0.2,866,0,78,DL_Remix_emotional_folk_Guitar,6,3,omokage_emotionalfolk,0.25816377997398376,0
57,100,0.2772727272727273,40,1,79,DL_Remix_emotional_folk_Guitar,6,4,omokage_emotionalfolk,0.9983737468719482,1
57,100,0.2590909090909091,110,0,79,DL_Remix_emotional_folk_Guitar,6,4,omokage_emotionalfolk,0.05106122046709061,0
64,100,0.11818181818181818,176,0,79,DL_Remix_emotional_folk_Guitar,6,2,omokage_emotionalfolk,0.04130402207374573,0
57,100,0.37727272727272726,206,0,79,DL_Remix_emotional_folk_Guitar,6,6,omokage_emotionalfolk,0.03738662227988243,0
52,100,0.2409090909090909,470,1,79,DL_Remix_emotional_folk_Guitar,6,4,omokage_emotionalfolk,0.038330357521772385,0
64,100,0.6590909090909091,624,0,79,DL_Remix_emotional_folk_Guitar,6,11,omokage_emotionalfolk,0.04475214332342148,0
52,100,0.1,773,0,79,DL_Remix_emotional_folk_Guitar,6,2,omokage_emotionalfolk,0.055231161415576935,0
64,100,0.4818181818181818,796,0,79,DL_Remix_emotional_folk_Guitar,6,8,omokage_emotionalfolk,0.09026830643415451,0
64,100,0.2409090909090909,422,1,80,DL_Remix_emotional_folk_Guitar,6,4,omokage_emotionalfolk,0.9990057349205017,1
76,100,0.17727272727272728,580,0,80,DL_Remix_emotional_folk_Guitar,6,3,omokage_emotionalfolk,0.23120085895061493,0
64,100,0.16363636363636364,619,0,80,DL_Remix_emotional_folk_Guitar,6,3,omokage_emotionalfolk,0.2659180164337158,0
64,100,0.22272727272727272,760,0,80,DL_Remix_emotional_folk_Guitar,6,4,omokage_emotionalfolk,0.35419997572898865,0
61,100,0.3,9,1,81,DL_Remix_emotional_folk_Guitar,6,5,omokage_emotionalfolk,0.9990057349205017,1
61,100,0.2636363636363636,729,1,81,DL_Remix_emotional_folk_Guitar,6,4,omokage_emotionalfolk,0.231205016374588,0
59,100,0.12272727272727273,817,0,81,DL_Remix_emotional_folk_Guitar,6,2,omokage_emotionalfolk,0.2659272253513336,0
61,100,0.12272727272727273,870,0,81,DL_Remix_emotional_folk_Guitar,6,2,omokage_emotionalfolk,0.3541991710662842,0
64,100,0.13636363636363635,17,1,82,DL_Remix_emotional_folk_Guitar,6,2,omokage_emotionalfolk,0.9990057349205017,1
66,100,0.3409090909090909,255,1,82,DL_Remix_emotional_folk_Guitar,6,5,omokage_emotionalfolk,0.23120935261249542,0
66,100,0.2590909090909091,404,0,82,DL_Remix_emotional_folk_Guitar,6,4,omokage_emotionalfolk,0.26592525839805603,0
63,100,0.38181818181818183,673,1,82,DL_Remix_emotional_folk_Guitar,6,6,omokage_emotionalfolk,0.35419324040412903,0
60,100,0.1409090909090909,289,1,83,DL_Remix_emotional_folk_Guitar,6,2,omokage_emotionalfolk,0.9990057349205017,1
60,100,0.32272727272727275,386,0,83,DL_Remix_emotional_folk_Guitar,6,5,omokage_emotionalfolk,0.231207937002182,0
63,100,0.1409090909090909,466,0,83,DL_Remix_emotional_folk_Guitar,6,2,omokage_emotionalfolk,0.2659231126308441,0
61,100,0.6409090909090909,536,0,83,DL_Remix_emotional_folk_Guitar,6,10,omokage_emotionalfolk,0.35419762134552,0
64,100,0.1590909090909091,79,1,84,DL_Remix_emotional_folk_Guitar,6,3,omokage_emotionalfolk,0.9986500144004822,1
61,100,0.22272727272727272,157,0,84,DL_Remix_emotional_folk_Guitar,6,4,omokage_emotionalfolk,0.08780430257320404,0
57,100,0.6363636363636364,413,1,84,DL_Remix_emotional_folk_Guitar,6,10,omokage_emotionalfolk,0.09181573241949081,0
59,100,0.11818181818181818,616,0,84,DL_Remix_emotional_folk_Guitar,6,2,omokage_emotionalfolk,0.1074824407696724,0
59,100,0.18181818181818182,716,0,84,DL_Remix_emotional_folk_Guitar,6,3,omokage_emotionalfolk,0.12483192980289459,0
57,100,0.3181818181818182,787,0,84,DL_Remix_emotional_folk_Guitar,6,5,omokage_emotionalfolk,0.17904019355773926,0
64,100,0.8181818181818182,9,1,85,DL_Remix_emotional_folk_Guitar,6,13,omokage_emotionalfolk,0.9990229606628418,1
64,100,0.1,193,0,85,DL_Remix_emotional_folk_Guitar,6,2,omokage_emotionalfolk,0.3666267395019531,0
63,100,0.4409090909090909,506,1,85,DL_Remix_emotional_folk_Guitar,6,7,omokage_emotionalfolk,0.4532875418663025,0
59,100,0.12272727272727273,123,1,86,DL_Remix_emotional_folk_Guitar,6,2,omokage_emotionalfolk,0.9983165264129639,1
64,100,0.7636363636363637,796,1,86,DL_Remix_emotional_folk_Guitar,6,12,omokage_emotionalfolk,0.5445597171783447,0
59,100,0.740909090909091,246,1,87,DL_Remix_emotional_folk_Guitar,6,12,omokage_emotionalfolk,0.9990229606628418,1
59,100,0.3181818181818182,493,1,87,DL_Remix_emotional_folk_Guitar,6,5,omokage_emotionalfolk,0.3666227161884308,0
66,100,0.17727272727272728,677,0,87,DL_Remix_emotional_folk_Guitar,6,3,omokage_emotionalfolk,0.45329371094703674,0
63,100,0.1409090909090909,184,1,88,DL_Remix_emotional_folk_Guitar,6,2,omokage_emotionalfolk,0.9990057349205017,1
63,100,0.35909090909090907,220,0,88,DL_Remix_emotional_folk_Guitar,6,6,omokage_emotionalfolk,0.23120416700839996,0
59,100,0.7,299,0,88,DL_Remix_emotional_folk_Guitar,6,11,omokage_emotionalfolk,0.26592931151390076,0
52,100,0.4818181818181818,496,0,88,DL_Remix_emotional_folk_Guitar,6,8,omokage_emotionalfolk,0.35420262813568115,0
64,100,0.2,43,1,89,DL_Remix_emotional_folk_Guitar,6,3,omokage_emotionalfolk,0.9990057349205017,1
64,100,0.3,237,0,89,DL_Remix_emotional_folk_Guitar,6,5,omokage_emotionalfolk,0.23121291399002075,0
69,100,0.2,356,0,89,DL_Remix_emotional_folk_Guitar,6,3,omokage_emotionalfolk,0.2659304141998291,0
66,100,1.2818181818181817,496,0,89,DL_Remix_emotional_folk_Guitar,6,15,omokage_emotionalfolk,0.35419002175331116,0
53,100,0.22272727272727272,488,1,0,DL_Remix_Guitar,6,4,omokage,0.9990229606628418,1
58,100,0.21818181818181817,682,0,0,DL_Remix_Guitar,6,3,omokage,0.36662715673446655,0
58,100,0.5818181818181818,748,0,0,DL_Remix_Guitar,6,9,omokage,0.4532857835292816,0
62,100,0.6636363636363637,4,1,1,DL_Remix_Guitar,6,11,omokage,0.9986500144004822,1
53,100,0.37727272727272726,163,0,1,DL_Remix_Guitar,6,6,omokage,0.08780425041913986,0
58,100,0.18181818181818182,255,0,1,DL_Remix_Guitar,6,3,omokage,0.09181807935237885,0
63,100,0.12272727272727273,597,1,1,DL_Remix_Guitar,6,2,omokage,0.10747972875833511,0
63,100,0.5,651,0,1,DL_Remix_Guitar,6,8,omokage,0.1248290166258812,0
58,100,0.3409090909090909,823,0,1,DL_Remix_Guitar,6,5,omokage,0.17904196679592133,0
53,100,0.2818181818181818,21,1,2,DL_Remix_Guitar,6,5,omokage,0.9990057349205017,1
60,100,0.3409090909090909,220,0,2,DL_Remix_Guitar,6,5,omokage,0.23120032250881195,0
65,100,0.6772727272727272,348,0,2,DL_Remix_Guitar,6,11,omokage,0.2659143805503845,0
60,100,0.32272727272727275,541,0,2,DL_Remix_Guitar,6,5,omokage,0.35419461131095886,0
53,100,0.9,61,1,3,DL_Remix_Guitar,6,14,omokage,0.9990057349205017,1
58,100,0.3409090909090909,263,0,3,DL_Remix_Guitar,6,5,omokage,0.23120129108428955,0
53,100,0.12272727272727273,364,0,3,DL_Remix_Guitar,6,2,omokage,0.265911728143692,0
53,100,0.32272727272727275,818,1,3,DL_Remix_Guitar,6,5,omokage,0.35418573021888733,0
58,100,0.12272727272727273,56,1,4,DL_Remix_Guitar,6,2,omokage,0.9988419413566589,1
58,100,0.1409090909090909,255,0,4,DL_Remix_Guitar,6,2,omokage,0.13724757730960846,0
63,100,0.5409090909090909,532,1,4,DL_Remix_Guitar,6,9,omokage,0.15976925194263458,0
53,100,0.2,695,0,4,DL_Remix_Guitar,6,3,omokage,0.18644742667675018,0
53,100,0.8818181818181818,813,0,4,DL_Remix_Guitar,6,14,omokage,0.2581588923931122,0
65,100,0.2409090909090909,263,1,5,DL_Remix_Guitar,6,4,omokage,0.9983164072036743,1
65,100,1.3181818181818181,637,1,5,DL_Remix_Guitar,6,15,omokage,0.5445452928543091,0
62,100,0.1590909090909091,220,1,10,DL_Remix_Guitar,6,3,omokage,0.9983165264129639,1
69,100,0.2772727272727273,744,1,10,DL_Remix_Guitar,6,4,omokage,0.5445613265037537,0
65,100,0.6181818181818182,457,1,13,DL_Remix_Guitar,6,10,omokage,0.9983165264129639,1
65,100,0.22272727272727272,598,0,13,DL_Remix_Guitar,6,4,omokage,0.5445541143417358,0
62,100,0.6227272727272727,166,1,14,DL_Remix_Guitar,6,10,omokage,0.9990229606628418,1
62,100,0.21818181818181817,307,0,14,DL_Remix_Guitar,6,3,omokage,0.3666219413280487,0
58,100,0.22272727272727272,862,1,14,DL_Remix_Guitar,6,4,omokage,0.45329752564430237,0
62,100,0.21818181818181817,360,1,15,DL_Remix_Guitar,6,3,omokage,0.9990229606628418,1
58,100,0.6409090909090909,563,0,15,DL_Remix_Guitar,6,10,omokage,0.36663034558296204,0
53,100,0.32272727272727275,716,0,15,DL_Remix_Guitar,6,5,omokage,0.45329099893569946,0
58,100,0.35909090909090907,162,1,16,DL_Remix_Guitar,6,6,omokage,0.9990229606628418,1
53,100,1.018181818181818,413,1,16,DL_Remix_Guitar,6,15,omokage,0.3666231036186218,0
60,100,1.0,822,1,16,DL_Remix_Guitar,6,15,omokage,0.45329028367996216,0
53,100,0.1409090909090909,34,1,18,DL_Remix_Guitar,6,2,omokage,0.9990057349205017,1
53,100,0.1409090909090909,430,1,18,DL_Remix_Guitar,6,2,omokage,0.23120230436325073,0
53,100,0.2,474,0,18,DL_Remix_Guitar,6,3,omokage,0.26591745018959045,0
58,100,0.4590909090909091,835,1,18,DL_Remix_Guitar,6,7,omokage,0.354191392660141,0
53,100,0.1409090909090909,804,1,19,DL_Remix_Guitar,6,2,omokage,0.9792565107345581,0
53,100,0.5181818181818182,492,1,20,DL_Remix_Guitar,6,8,omokage,0.9983164072036743,1
53,100,0.11818181818181818,725,1,20,DL_Remix_Guitar,6,2,omokage,0.5445589423179626,0
58,100,0.35909090909090907,611,1,21,DL_Remix_Guitar,6,6,omokage,0.9990230798721313,1
58,100,0.1,694,0,21,DL_Remix_Guitar,6,2,omokage,0.3666328191757202,0
62,100,0.8181818181818182,770,0,21,DL_Remix_Guitar,6,13,omokage,0.45328742265701294,0
58,100,0.6772727272727272,347,1,22,DL_Remix_Guitar,6,11,omokage,0.979255735874176,1
65,100,0.6409090909090909,96,1,23,DL_Remix_Guitar,6,10,omokage,0.979255735874176,0
58,100,0.1590909090909091,413,1,24,DL_Remix_Guitar,6,3,omokage,0.9792566299438477,0
65,100,0.5772727272727273,127,1,25,DL_Remix_Guitar,6,9,omokage,0.9990229606628418,1
58,100,0.2,370,1,25,DL_Remix_Guitar,6,3,omokage,0.3666370213031769,0
65,100,0.6,725,1,25,DL_Remix_Guitar,6,10,omokage,0.4532841145992279,0
63,100,0.9409090909090909,449,1,27,DL_Remix_Guitar,6,15,omokage,0.9983164072036743,1
63,100,0.3409090909090909,708,1,27,DL_Remix_Guitar,6,5,omokage,0.5445624589920044,0
63,100,0.11818181818181818,65,1,28,DL_Remix_Guitar,6,2,omokage,0.9988419413566589,1
63,100,0.21818181818181817,119,0,28,DL_Remix_Guitar,6,3,omokage,0.1372472494840622,0
53,100,0.18181818181818182,202,0,28,DL_Remix_Guitar,6,3,omokage,0.1597781926393509,0
65,100,0.2,241,0,28,DL_Remix_Guitar,6,3,omokage,0.18645240366458893,0
65,100,0.35909090909090907,739,1,28,DL_Remix_Guitar,6,6,omokage,0.2581702470779419,0
65,100,1.0,260,1,29,DL_Remix_Guitar,6,15,omokage,0.9988419413566589,1
65,100,0.1409090909090909,515,1,29,DL_Remix_Guitar,6,2,omokage,0.1372472196817398,0
53,100,0.2409090909090909,553,0,29,DL_Remix_Guitar,6,4,omokage,0.1597730964422226,0
53,100,0.1,787,1,29,DL_Remix_Guitar,6,2,omokage,0.18644562363624573,0
53,100,0.3409090909090909,858,0,29,DL_Remix_Guitar,6,5,omokage,0.2581559121608734,0
53,100,0.1,289,1,30,DL_Remix_Guitar,6,2,omokage,0.9988419413566589,1
53,100,0.5363636363636364,413,0,30,DL_Remix_Guitar,6,9,omokage,0.1372462511062622,0
53,100,0.4590909090909091,581,0,30,DL_Remix_Guitar,6,7,omokage,0.15977424383163452,0
53,100,0.12272727272727273,760,0,30,DL_Remix_Guitar,6,2,omokage,0.18644846975803375,0
53,100,0.2818181818181818,791,0,30,DL_Remix_Guitar,6,5,omokage,0.25815799832344055,0
58,100,0.5227272727272727,201,1,32,DL_Remix_Guitar,6,8,omokage,0.9990230798721313,1
53,100,0.1409090909090909,804,1,32,DL_Remix_Guitar,6,2,omokage,0.3666144609451294,0
58,100,0.2590909090909091,836,0,32,DL_Remix_Guitar,6,4,omokage,0.4532880187034607,0
53,100,0.38181818181818183,13,1,33,DL_Remix_Guitar,6,6,omokage,0.9986500144004822,1
53,100,0.5590909090909091,105,0,33,DL_Remix_Guitar,6,9,omokage,0.08780179917812347,0
53,100,0.38181818181818183,378,1,33,DL_Remix_Guitar,6,6,omokage,0.09181112051010132,0
65,100,0.41818181818181815,461,0,33,DL_Remix_Guitar,6,7,omokage,0.10747423022985458,0
53,100,0.4636363636363636,554,0,33,DL_Remix_Guitar,6,7,omokage,0.12482123076915741,0
55,100,0.43636363636363634,678,0,33,DL_Remix_Guitar,6,7,omokage,0.17902550101280212,0
55,100,0.2772727272727273,215,1,34,DL_Remix_Guitar,6,4,omokage,0.9990057349205017,1
53,100,0.18181818181818182,321,0,34,DL_Remix_Guitar,6,3,omokage,0.23119935393333435,0
60,100,0.16363636363636364,421,0,34,DL_Remix_Guitar,6,3,omokage,0.2659227252006531,0
53,100,1.2,681,1,34,DL_Remix_Guitar,6,15,omokage,0.35418546199798584,0
53,100,0.18181818181818182,69,1,35,DL_Remix_Guitar,6,3,omokage,0.9988419413566589,1
65,100,0.37727272727272726,435,1,35,DL_Remix_Guitar,6,6,omokage,0.13724534213542938,0
65,100,0.32272727272727275,738,1,35,DL_Remix_Guitar,6,5,omokage,0.15977132320404053,0
65,100,0.11818181818181818,845,0,35,DL_Remix_Guitar,6,2,omokage,0.18644027411937714,0
65,100,0.2590909090909091,875,0,35,DL_Remix_Guitar,6,4,omokage,0.25815480947494507,0
63,100,0.1409090909090909,75,1,36,DL_Remix_Guitar,6,2,omokage,0.9988419413566589,1
53,100,0.6409090909090909,311,1,36,DL_Remix_Guitar,6,10,omokage,0.13725100457668304,0
53,100,0.8590909090909091,458,0,36,DL_Remix_Guitar,6,14,omokage,0.15977609157562256,0
53,100,0.2590909090909091,694,1,36,DL_Remix_Guitar,6,4,omokage,0.1864539235830307,0
53,100,0.9,756,0,36,DL_Remix_Guitar,6,14,omokage,0.2581612169742584,0
53,100,0.1590909090909091,88,1,37,DL_Remix_Guitar,6,3,omokage,0.9983164072036743,1
53,100,0.2590909090909091,721,1,37,DL_Remix_Guitar,6,4,omokage,0.5445570945739746,0
63,100,0.17727272727272728,163,1,38,DL_Remix_Guitar,6,3,omokage,0.9990057349205017,1
53,100,0.1590909090909091,518,1,38,DL_Remix_Guitar,6,3,omokage,0.23121444880962372,0
53,100,0.1409090909090909,638,0,38,DL_Remix_Guitar,6,2,omokage,0.2659245729446411,0
53,100,0.5409090909090909,694,0,38,DL_Remix_Guitar,6,9,omokage,0.3542053997516632,0
58,100,0.1409090909090909,233,1,39,DL_Remix_Guitar,6,2,omokage,0.9792563915252686,0
60,100,0.5818181818181818,431,1,40,DL_Remix_Guitar,6,9,omokage,0.9792565107345581,0
65,100,0.2818181818181818,176,1,41,DL_Remix_Guitar,6,5,omokage,0.9990229606628418,1
58,100,0.11818181818181818,251,0,41,DL_Remix_Guitar,6,2,omokage,0.36662790179252625,0
58,100,0.41818181818181815,801,1,41,DL_Remix_Guitar,6,7,omokage,0.4532887637615204,0
53,100,0.2590909090909091,31,1,42,DL_Remix_Guitar,6,4,omokage,0.9990057349205017,1
53,100,0.18181818181818182,91,0,42,DL_Remix_Guitar,6,3,omokage,0.23120222985744476,0
53,100,0.1409090909090909,638,1,42,DL_Remix_Guitar,6,2,omokage,0.26591968536376953,0
53,100,0.740909090909091,791,0,42,DL_Remix_Guitar,6,12,omokage,0.35418570041656494,0
53,100,0.42272727272727273,334,1,43,DL_Remix_Guitar,6,7,omokage,0.9990229606628418,1
53,100,0.11818181818181818,700,1,43,DL_Remix_Guitar,6,2,omokage,0.3666212558746338,0
65,100,0.1590909090909091,836,0,43,DL_Remix_Guitar,6,3,omokage,0.45328444242477417,0
53,100,0.2590909090909091,13,1,44,DL_Remix_Guitar,6,4,omokage,0.9984880685806274,1
55,100,0.2590909090909091,144,0,44,DL_Remix_Guitar,6,4,omokage,0.06334475427865982,0
53,100,0.1409090909090909,233,0,44,DL_Remix_Guitar,6,2,omokage,0.0577407032251358,0
55,100,0.21818181818181817,303,0,44,DL_Remix_Guitar,6,3,omokage,0.060200005769729614,0
65,100,0.36363636363636365,399,0,44,DL_Remix_Guitar,6,6,omokage,0.06970080733299255,0
65,100,0.22272727272727272,496,0,44,DL_Remix_Guitar,6,4,omokage,0.08188921958208084,0
53,100,0.11818181818181818,545,0,44,DL_Remix_Guitar,6,2,omokage,0.12401527911424637,0
65,100,0.35909090909090907,351,1,45,DL_Remix_Guitar,6,6,omokage,0.9990057349205017,1
65,100,0.1409090909090909,461,0,45,DL_Remix_Guitar,6,2,omokage,0.231204092502594,0
58,100,0.6590909090909091,668,0,45,DL_Remix_Guitar,6,11,omokage,0.26592016220092773,0
58,100,0.4772727272727273,875,0,45,DL_Remix_Guitar,6,8,omokage,0.35419410467147827,0
58,100,0.1409090909090909,550,1,46,DL_Remix_Guitar,6,2,omokage,0.9990229606628418,1
58,100,0.12272727272727273,619,0,46,DL_Remix_Guitar,6,2,omokage,0.3666256070137024,0
53,100,0.8,761,0,46,DL_Remix_Guitar,6,13,omokage,0.4532775282859802,0
53,100,0.22272727272727272,408,1,47,DL_Remix_Guitar,6,4,omokage,0.9983165264129639,1
53,100,0.2818181818181818,804,1,47,DL_Remix_Guitar,6,5,omokage,0.5445550680160522,0
60,100,0.2,373,1,48,DL_Remix_Guitar,6,3,omokage,0.9990229606628418,1
57,100,0.1,703,1,48,DL_Remix_Guitar,6,2,omokage,0.3666130006313324,0
53,100,0.12272727272727273,751,0,48,DL_Remix_Guitar,6,2,omokage,0.4532898962497711,0
53,100,0.2409090909090909,418,1,49,DL_Remix_Guitar,6,4,omokage,0.9792561531066895,0
58,100,0.41818181818181815,43,1,50,DL_Remix_Guitar,6,7,omokage,0.9988419413566589,1
55,100,0.32272727272727275,364,1,50,DL_Remix_Guitar,6,5,omokage,0.13724736869335175,0
55,100,0.41818181818181815,440,0,50,DL_Remix_Guitar,6,7,omokage,0.15977910161018372,0
65,100,0.8818181818181818,619,0,50,DL_Remix_Guitar,6,14,omokage,0.18643762171268463,0
53,100,0.4409090909090909,861,1,50,DL_Remix_Guitar,6,7,omokage,0.2581591010093689,0
58,100,0.1590909090909091,144,1,51,DL_Remix_Guitar,6,3,omokage,0.9990057349205017,1
58,100,0.9772727272727273,383,1,51,DL_Remix_Guitar,6,15,omokage,0.23119859397411346,0
53,100,0.16363636363636364,751,1,51,DL_Remix_Guitar,6,3,omokage,0.26592347025871277,0
53,100,0.5409090909090909,801,0,51,DL_Remix_Guitar,6,9,omokage,0.3541903793811798,0
65,100,0.3181818181818182,40,1,52,DL_Remix_Guitar,6,5,omokage,0.9983004927635193,1
53,100,0.35909090909090907,188,0,52,DL_Remix_Guitar,6,6,omokage,0.04466395825147629,0
53,100,0.16363636363636364,334,0,52,DL_Remix_Guitar,6,3,omokage,0.03314903751015663,0
53,100,0.3,386,0,52,DL_Remix_Guitar,6,5,omokage,0.02657945267856121,0
53,100,0.21818181818181817,480,0,52,DL_Remix_Guitar,6,3,omokage,0.02359451726078987,0
53,100,0.2,536,0,52,DL_Remix_Guitar,6,3,omokage,0.024313611909747124,0
53,100,0.2590909090909091,646,0,52,DL_Remix_Guitar,6,4,omokage,0.02968793548643589,0
65,100,0.2409090909090909,804,0,52,DL_Remix_Guitar,6,4,omokage,0.04007616639137268,0
53,100,0.5,858,0,52,DL_Remix_Guitar,6,8,omokage,0.07092556357383728,0
53,100,0.4818181818181818,373,1,53,DL_Remix_Guitar,6,8,omokage,0.9986500144004822,1
53,100,0.23636363636363636,523,0,53,DL_Remix_Guitar,6,4,omokage,0.0877993032336235,0
53,100,0.11818181818181818,593,0,53,DL_Remix_Guitar,6,2,omokage,0.0918102040886879,0
53,100,0.1409090909090909,668,0,53,DL_Remix_Guitar,6,2,omokage,0.10747192800045013,0
53,100,0.12272727272727273,751,0,53,DL_Remix_Guitar,6,2,omokage,0.12482230365276337,0
53,100,0.1590909090909091,813,0,53,DL_Remix_Guitar,6,3,omokage,0.17902922630310059,0
53,100,0.3409090909090909,88,1,54,DL_Remix_Guitar,6,5,omokage,0.9990229606628418,1
53,100,0.17727272727272728,348,1,54,DL_Remix_Guitar,6,3,omokage,0.3666227161884308,0
58,100,0.22272727272727272,541,0,54,DL_Remix_Guitar,6,4,omokage,0.4532904624938965,0
55,100,0.2409090909090909,488,1,55,DL_Remix_Guitar,6,4,omokage,0.9983164072036743,1
53,100,0.1590909090909091,678,0,55,DL_Remix_Guitar,6,3,omokage,0.5445536971092224,0
58,100,0.18181818181818182,321,1,56,DL_Remix_Guitar,6,3,omokage,0.9990230798721313,1
53,100,0.2409090909090909,466,0,56,DL_Remix_Guitar,6,4,omokage,0.36662378907203674,0
53,100,0.9590909090909091,756,1,56,DL_Remix_Guitar,6,15,omokage,0.45328521728515625,0
53,100,0.2,91,1,57,DL_Remix_Guitar,6,3,omokage,0.9986500144004822,1
53,100,0.5590909090909091,141,0,57,DL_Remix_Guitar,6,9,omokage,0.08780145645141602,0
58,100,0.1409090909090909,263,0,57,DL_Remix_Guitar,6,2,omokage,0.09181275218725204,0
53,100,0.6,334,0,57,DL_Remix_Guitar,6,10,omokage,0.10747077316045761,0
53,100,0.23636363636363636,633,1,57,DL_Remix_Guitar,6,4,omokage,0.12482252717018127,0
53,100,0.2590909090909091,726,0,57,DL_Remix_Guitar,6,4,omokage,0.1790221780538559,0
65,100,0.16363636363636364,26,1,58,DL_Remix_Guitar,6,3,omokage,0.9986500144004822,1
53,100,0.11818181818181818,61,0,58,DL_Remix_Guitar,6,2,omokage,0.08780212700366974,0
65,100,0.4590909090909091,88,0,58,DL_Remix_Guitar,6,7,omokage,0.09181100130081177,0
53,100,0.22272727272727272,188,0,58,DL_Remix_Guitar,6,4,omokage,0.10747484862804413,0
53,100,0.4,241,0,58,DL_Remix_Guitar,6,6,omokage,0.12482309341430664,0
53,100,0.1590909090909091,458,0,58,DL_Remix_Guitar,6,3,omokage,0.17902806401252747,0
53,100,0.3181818181818182,18,1,59,DL_Remix_Guitar,6,5,omokage,0.9990057349205017,1
53,100,0.42272727272727273,101,0,59,DL_Remix_Guitar,6,7,omokage,0.23119975626468658,0
53,100,0.35909090909090907,558,1,59,DL_Remix_Guitar,6,6,omokage,0.26591652631759644,0
53,100,0.23636363636363636,788,0,59,DL_Remix_Guitar,6,4,omokage,0.3541923463344574,0
58,100,0.18181818181818182,91,1,60,DL_Remix_Guitar,6,3,omokage,0.9990057349205017,1
58,100,0.3181818181818182,501,1,60,DL_Remix_Guitar,6,5,omokage,0.2312009334564209,0
58,100,0.4,633,0,60,DL_Remix_Guitar,6,6,omokage,0.26591867208480835,0
58,100,0.1409090909090909,801,0,60,DL_Remix_Guitar,6,2,omokage,0.3541887700557709,0
53,100,0.18181818181818182,0,1,61,DL_Remix_Guitar,6,3,omokage,0.9983164072036743,1
53,100,0.16363636363636364,246,1,61,DL_Remix_Guitar,6,3,omokage,0.5445532202720642,0
58,100,0.11818181818181818,105,1,62,DL_Remix_Guitar,6,2,omokage,0.9990229606628418,1
53,100,0.5181818181818182,348,1,62,DL_Remix_Guitar,6,8,omokage,0.3666176497936249,0
53,100,0.1409090909090909,584,1,62,DL_Remix_Guitar,6,2,omokage,0.45329076051712036,0
63,100,0.2,4,1,63,DL_Remix_Guitar,6,3,omokage,0.9988419413566589,1
58,100,0.4,118,0,63,DL_Remix_Guitar,6,6,omokage,0.13725239038467407,0
58,100,0.18181818181818182,308,0,63,DL_Remix_Guitar,6,3,omokage,0.1597818285226822,0
53,100,0.5,378,0,63,DL_Remix_Guitar,6,8,omokage,0.18644654750823975,0
53,100,0.21818181818181817,493,0,63,DL_Remix_Guitar,6,3,omokage,0.2581700384616852,0
63,100,0.32272727272727275,189,1,65,DL_Remix_Guitar,6,5,omokage,0.9792556166648865,0
53,100,0.2,92,1,66,DL_Remix_Guitar,6,3,omokage,0.9983165264129639,1
58,100,0.37727272727272726,612,1,66,DL_Remix_Guitar,6,6,omokage,0.544555127620697,0
53,100,0.2590909090909091,493,1,67,DL_Remix_Guitar,6,4,omokage,0.9990057349205017,1
53,100,0.16363636363636364,553,0,67,DL_Remix_Guitar,6,3,omokage,0.23119986057281494,0
53,100,0.11818181818181818,593,0,67,DL_Remix_Guitar,6,2,omokage,0.2659153640270233,0
53,100,0.11818181818181818,624,0,67,DL_Remix_Guitar,6,2,omokage,0.35419538617134094,0
58,100,0.11818181818181818,66,1,68,DL_Remix_Guitar,6,2,omokage,0.9983165264129639,1
53,100,0.5409090909090909,686,1,68,DL_Remix_Guitar,6,9,omokage,0.5445519089698792,0
53,100,0.1409090909090909,273,1,69,DL_Remix_Guitar,6,2,omokage,0.9990057349205017,1
58,100,0.1409090909090909,399,0,69,DL_Remix_Guitar,6,2,omokage,0.23120398819446564,0
53,100,0.18181818181818182,430,0,69,DL_Remix_Guitar,6,3,omokage,0.2659161388874054,0
58,100,0.2409090909090909,470,0,69,DL_Remix_Guitar,6,4,omokage,0.3541937470436096,0
60,100,0.1409090909090909,316,1,70,DL_Remix_Guitar,6,2,omokage,0.9792566299438477,0
55,100,0.4818181818181818,682,1,71,DL_Remix_Guitar,6,8,omokage,0.9983165264129639,1
58,100,0.4,800,0,71,DL_Remix_Guitar,6,6,omokage,0.544561505317688,0
55,100,0.22272727272727272,69,1,72,DL_Remix_Guitar,6,4,omokage,0.9990057349205017,1
58,100,0.3409090909090909,179,0,72,DL_Remix_Guitar,6,5,omokage,0.23120294511318207,0
65,100,0.2818181818181818,267,0,72,DL_Remix_Guitar,6,5,omokage,0.26591095328330994,0
65,100,0.21818181818181817,876,1,72,DL_Remix_Guitar,6,3,omokage,0.3541924059391022,0
65,100,0.18181818181818182,153,1,73,DL_Remix_Guitar,6,3,omokage,0.9792559146881104,0
65,100,0.2,326,1,74,DL_Remix_Guitar,6,3,omokage,0.9990057349205017,1
53,100,0.1,413,0,74,DL_Remix_Guitar,6,2,omokage,0.2312059849500656,0
55,100,0.1590909090909091,475,0,74,DL_Remix_Guitar,6,3,omokage,0.26591992378234863,0
65,100,0.2590909090909091,800,1,74,DL_Remix_Guitar,6,4,omokage,0.35419222712516785,0
65,100,0.5409090909090909,0,1,75,DL_Remix_Guitar,6,9,omokage,0.9990057349205017,1
53,100,0.11818181818181818,656,1,75,DL_Remix_Guitar,6,2,omokage,0.2312035858631134,0
65,100,0.1590909090909091,682,0,75,DL_Remix_Guitar,6,3,omokage,0.2659197449684143,0
53,100,0.35909090909090907,734,0,75,DL_Remix_Guitar,6,6,omokage,0.35419023036956787,0
63,100,0.2772727272727273,303,1,76,DL_Remix_Guitar,6,4,omokage,0.9988419413566589,1
53,100,0.22272727272727272,619,1,76,DL_Remix_Guitar,6,4,omokage,0.1372474730014801,0
53,100,0.11818181818181818,770,0,76,DL_Remix_Guitar,6,2,omokage,0.159775048494339,0
53,100,0.11818181818181818,800,0,76,DL_Remix_Guitar,6,2,omokage,0.18644534051418304,0
53,100,0.4590909090909091,836,0,76,DL_Remix_Guitar,6,7,omokage,0.25816065073013306,0
53,100,0.33636363636363636,502,1,77,DL_Remix_Guitar,6,5,omokage,0.9990229606628418,1
53,100,0.4,637,0,77,DL_Remix_Guitar,6,6,omokage,0.36661726236343384,0
53,100,0.18181818181818182,729,0,77,DL_Remix_Guitar,6,3,omokage,0.45329615473747253,0
58,100,0.35909090909090907,119,1,78,DL_Remix_Guitar,6,6,omokage,0.9988419413566589,1
53,100,0.2772727272727273,383,1,78,DL_Remix_Guitar,6,4,omokage,0.13724328577518463,0
53,100,0.3409090909090909,527,0,78,DL_Remix_Guitar,6,5,omokage,0.15977320075035095,0
53,100,0.1409090909090909,703,0,78,DL_Remix_Guitar,6,2,omokage,0.1864449828863144,0
53,100,0.7,817,0,78,DL_Remix_Guitar,6,11,omokage,0.25815698504447937,0
53,100,0.3,106,1,79,DL_Remix_Guitar,6,5,omokage,0.9988419413566589,1
53,100,0.3,567,1,79,DL_Remix_Guitar,6,5,omokage,0.13724550604820251,0
53,100,0.17727272727272728,677,0,79,DL_Remix_Guitar,6,3,omokage,0.15977700054645538,0
57,100,0.3,716,0,79,DL_Remix_Guitar,6,5,omokage,0.18644487857818604,0
57,100,0.11818181818181818,813,0,79,DL_Remix_Guitar,6,2,omokage,0.25816968083381653,0
53,100,0.3,157,1,81,DL_Remix_Guitar,6,5,omokage,0.9986500144004822,1
58,100,0.22272727272727272,246,0,81,DL_Remix_Guitar,6,4,omokage,0.08780237287282944,0
53,100,0.2590909090909091,316,0,81,DL_Remix_Guitar,6,4,omokage,0.09181077033281326,0
53,100,0.32272727272727275,453,0,81,DL_Remix_Guitar,6,5,omokage,0.10747428983449936,0
53,100,0.2,597,0,81,DL_Remix_Guitar,6,3,omokage,0.12482309341430664,0
53,100,0.3,766,0,81,DL_Remix_Guitar,6,5,omokage,0.17903004586696625,0
53,100,0.6818181818181818,26,1,82,DL_Remix_Guitar,6,11,omokage,0.9983736276626587,1
53,100,0.1590909090909091,193,0,82,DL_Remix_Guitar,6,3,omokage,0.0510605052113533,0
53,100,0.1,233,0,82,DL_Remix_Guitar,6,2,omokage,0.04130173474550247,0
53,100,0.1,343,0,82,DL_Remix_Guitar,6,2,omokage,0.03738415986299515,0
53,100,0.3181818181818182,506,0,82,DL_Remix_Guitar,6,5,omokage,0.038327403366565704,0
53,100,0.11818181818181818,612,0,82,DL_Remix_Guitar,6,2,omokage,0.04474865645170212,0
60,100,0.18181818181818182,770,0,82,DL_Remix_Guitar,6,3,omokage,0.05522651597857475,0
65,100,0.1590909090909091,857,0,82,DL_Remix_Guitar,6,3,omokage,0.09025686979293823,0
53,100,0.2409090909090909,13,1,83,DL_Remix_Guitar,6,4,omokage,0.9983165264129639,1
65,100,0.9818181818181818,100,0,83,DL_Remix_Guitar,6,15,omokage,0.5445505976676941,0
65,100,0.6409090909090909,739,1,85,DL_Remix_Guitar,6,10,omokage,0.9792560338973999,0
53,100,0.3181818181818182,303,1,86,DL_Remix_Guitar,6,5,omokage,0.9990229606628418,1
65,100,0.1,443,0,86,DL_Remix_Guitar,6,2,omokage,0.36662593483924866,0
65,100,0.5590909090909091,585,0,86,DL_Remix_Guitar,6,9,omokage,0.45328590273857117,0
65,100,0.17727272727272728,514,1,87,DL_Remix_Guitar,6,3,omokage,0.9988419413566589,1
53,100,0.22272727272727272,553,0,87,DL_Remix_Guitar,6,4,omokage,0.1372440606355667,0
53,100,0.38181818181818183,606,0,87,DL_Remix_Guitar,6,6,omokage,0.15977337956428528,0
65,100,0.42272727272727273,773,0,87,DL_Remix_Guitar,6,7,omokage,0.18644292652606964,0
53,100,0.5181818181818182,866,0,87,DL_Remix_Guitar,6,8,omokage,0.2581624388694763,0
65,100,0.4818181818181818,377,1,88,DL_Remix_Guitar,6,8,omokage,0.9990229606628418,1
70,100,0.18181818181818182,506,0,88,DL_Remix_Guitar,6,3,omokage,0.3666180968284607,0
53,100,0.23636363636363636,832,1,88,DL_Remix_Guitar,6,4,omokage,0.453286737203598,0
55,100,0.5181818181818182,537,1,0,DL_Warm_Pop_Rock_Guitar,6,8,ruriko_tyusingura_warm_pop,0.9983164072036743,1
55,100,0.6590909090909091,845,1,0,DL_Warm_Pop_Rock_Guitar,6,11,ruriko_tyusingura_warm_pop,0.5445489883422852,0
62,100,0.4636363636363636,576,1,1,DL_Warm_Pop_Rock_Guitar,6,7,ruriko_tyusingura_warm_pop,0.9983165264129639,1
52,100,0.740909090909091,862,1,1,DL_Warm_Pop_Rock_Guitar,6,12,ruriko_tyusingura_warm_pop,0.5445600748062134,0
55,100,0.1,629,1,2,DL_Warm_Pop_Rock_Guitar,6,2,ruriko_tyusingura_warm_pop,0.9983165264129639,1
55,100,0.21818181818181817,660,0,2,DL_Warm_Pop_Rock_Guitar,6,3,ruriko_tyusingura_warm_pop,0.544552206993103,0
55,100,0.2,91,1,3,DL_Warm_Pop_Rock_Guitar,6,3,ruriko_tyusingura_warm_pop,0.9990229606628418,1
52,100,0.6772727272727272,590,1,3,DL_Warm_Pop_Rock_Guitar,6,11,ruriko_tyusingura_warm_pop,0.36662209033966064,0
52,100,0.12272727272727273,761,0,3,DL_Warm_Pop_Rock_Guitar,6,2,ruriko_tyusingura_warm_pop,0.4532889127731323,0
52,100,0.740909090909091,35,1,4,DL_Warm_Pop_Rock_Guitar,6,12,ruriko_tyusingura_warm_pop,0.9983165264129639,1
52,100,0.2,330,1,4,DL_Warm_Pop_Rock_Guitar,6,3,ruriko_tyusingura_warm_pop,0.5445605516433716,0
64,100,0.2,8,1,5,DL_Warm_Pop_Rock_Guitar,6,3,ruriko_tyusingura_warm_pop,0.9988420605659485,1
55,100,0.5636363636363636,135,0,5,DL_Warm_Pop_Rock_Guitar,6,9,ruriko_tyusingura_warm_pop,0.1372513622045517,0
55,100,0.2818181818181818,330,0,5,DL_Warm_Pop_Rock_Guitar,6,5,ruriko_tyusingura_warm_pop,0.15978199243545532,0
67,100,0.17727272727272728,458,0,5,DL_Warm_Pop_Rock_Guitar,6,3,ruriko_tyusingura_warm_pop,0.18644979596138,0
57,100,0.17727272727272728,823,1,5,DL_Warm_Pop_Rock_Guitar,6,3,ruriko_tyusingura_warm_pop,0.2581610381603241,0
62,100,0.1409090909090909,56,1,6,DL_Warm_Pop_Rock_Guitar,6,2,ruriko_tyusingura_warm_pop,0.9988419413566589,1
62,100,0.2409090909090909,132,0,6,DL_Warm_Pop_Rock_Guitar,6,4,ruriko_tyusingura_warm_pop,0.1372564136981964,0
62,100,0.9818181818181818,330,0,6,DL_Warm_Pop_Rock_Guitar,6,15,ruriko_tyusingura_warm_pop,0.15978704392910004,0
62,100,0.1409090909090909,581,1,6,DL_Warm_Pop_Rock_Guitar,6,2,ruriko_tyusingura_warm_pop,0.18646562099456787,0
57,100,0.6409090909090909,691,0,6,DL_Warm_Pop_Rock_Guitar,6,10,ruriko_tyusingura_warm_pop,0.25818219780921936,0
62,100,0.38181818181818183,606,1,7,DL_Warm_Pop_Rock_Guitar,6,6,ruriko_tyusingura_warm_pop,0.9983165264129639,1
52,100,0.2818181818181818,826,0,7,DL_Warm_Pop_Rock_Guitar,6,5,ruriko_tyusingura_warm_pop,0.5445625185966492,0
52,100,0.42272727272727273,245,1,8,DL_Warm_Pop_Rock_Guitar,6,7,ruriko_tyusingura_warm_pop,0.9792567491531372,0
60,100,0.1590909090909091,140,1,9,DL_Warm_Pop_Rock_Guitar,6,3,ruriko_tyusingura_warm_pop,0.9988419413566589,1
62,100,0.5409090909090909,185,0,9,DL_Warm_Pop_Rock_Guitar,6,9,ruriko_tyusingura_warm_pop,0.1372510939836502,0
62,100,0.4,347,0,9,DL_Warm_Pop_Rock_Guitar,6,6,ruriko_tyusingura_warm_pop,0.15978693962097168,0
62,100,0.11818181818181818,524,0,9,DL_Warm_Pop_Rock_Guitar,6,2,ruriko_tyusingura_warm_pop,0.18646526336669922,0
62,100,0.8590909090909091,563,0,9,DL_Warm_Pop_Rock_Guitar,6,14,ruriko_tyusingura_warm_pop,0.2581723630428314,0
57,100,0.17727272727272728,171,1,10,DL_Warm_Pop_Rock_Guitar,6,3,ruriko_tyusingura_warm_pop,0.979256272315979,0
55,100,0.1,211,1,11,DL_Warm_Pop_Rock_Guitar,6,2,ruriko_tyusingura_warm_pop,0.9983164072036743,1
62,100,0.32272727272727275,519,1,11,DL_Warm_Pop_Rock_Guitar,6,5,ruriko_tyusingura_warm_pop,0.5445623397827148,0
62,100,1.059090909090909,536,1,12,DL_Warm_Pop_Rock_Guitar,6,15,ruriko_tyusingura_warm_pop,0.9792558550834656,0
55,100,0.2409090909090909,321,1,13,DL_Warm_Pop_Rock_Guitar,6,4,ruriko_tyusingura_warm_pop,0.9990057349205017,1
62,100,0.1,479,0,13,DL_Warm_Pop_Rock_Guitar,6,2,ruriko_tyusingura_warm_pop,0.23120838403701782,0
55,100,0.4590909090909091,694,0,13,DL_Warm_Pop_Rock_Guitar,6,7,ruriko_tyusingura_warm_pop,0.26593151688575745,0
57,100,0.2590909090909091,814,0,13,DL_Warm_Pop_Rock_Guitar,6,4,ruriko_tyusingura_warm_pop,0.35419604182243347,0
57,100,0.740909090909091,3,1,14,DL_Warm_Pop_Rock_Guitar,6,12,ruriko_tyusingura_warm_pop,0.9988419413566589,1
57,100,0.6,194,0,14,DL_Warm_Pop_Rock_Guitar,6,10,ruriko_tyusingura_warm_pop,0.1372509002685547,0
57,100,1.3,347,0,14,DL_Warm_Pop_Rock_Guitar,6,15,ruriko_tyusingura_warm_pop,0.15977460145950317,0
57,100,0.5772727272727273,691,1,14,DL_Warm_Pop_Rock_Guitar,6,9,ruriko_tyusingura_warm_pop,0.18645386397838593,0
57,100,0.2,862,0,14,DL_Warm_Pop_Rock_Guitar,6,3,ruriko_tyusingura_warm_pop,0.2581654191017151,0
55,100,0.38181818181818183,123,1,15,DL_Warm_Pop_Rock_Guitar,6,6,ruriko_tyusingura_warm_pop,0.9986500144004822,1
55,100,0.36363636363636365,268,0,15,DL_Warm_Pop_Rock_Guitar,6,6,ruriko_tyusingura_warm_pop,0.08780384808778763,0
52,100,0.1,383,0,15,DL_Warm_Pop_Rock_Guitar,6,2,ruriko_tyusingura_warm_pop,0.09181326627731323,0
52,100,0.2818181818181818,550,0,15,DL_Warm_Pop_Rock_Guitar,6,5,ruriko_tyusingura_warm_pop,0.10747859627008438,0
55,100,0.22272727272727272,651,0,15,DL_Warm_Pop_Rock_Guitar,6,4,ruriko_tyusingura_warm_pop,0.12482918053865433,0
55,100,0.1,761,0,15,DL_Warm_Pop_Rock_Guitar,6,2,ruriko_tyusingura_warm_pop,0.17903080582618713,0
62,100,0.5772727272727273,391,1,16,DL_Warm_Pop_Rock_Guitar,6,9,ruriko_tyusingura_warm_pop,0.9990230798721313,1
57,100,0.1,712,1,16,DL_Warm_Pop_Rock_Guitar,6,2,ruriko_tyusingura_warm_pop,0.36663201451301575,0
57,100,0.2772727272727273,756,0,16,DL_Warm_Pop_Rock_Guitar,6,4,ruriko_tyusingura_warm_pop,0.4532991945743561,0
52,100,0.2409090909090909,96,1,17,DL_Warm_Pop_Rock_Guitar,6,4,ruriko_tyusingura_warm_pop,0.9983165264129639,1
64,100,0.4,250,0,17,DL_Warm_Pop_Rock_Guitar,6,6,ruriko_tyusingura_warm_pop,0.5445592999458313,0
62,100,0.18181818181818182,528,1,18,DL_Warm_Pop_Rock_Guitar,6,3,ruriko_tyusingura_warm_pop,0.9990057349205017,1
62,100,0.2,660,0,18,DL_Warm_Pop_Rock_Guitar,6,3,ruriko_tyusingura_warm_pop,0.2312125563621521,0
62,100,0.3,748,0,18,DL_Warm_Pop_Rock_Guitar,6,5,ruriko_tyusingura_warm_pop,0.26593080163002014,0
62,100,0.5818181818181818,839,0,18,DL_Warm_Pop_Rock_Guitar,6,9,ruriko_tyusingura_warm_pop,0.35420969128608704,0
62,100,0.5590909090909091,154,1,19,DL_Warm_Pop_Rock_Guitar,6,9,ruriko_tyusingura_warm_pop,0.9792556166648865,0
62,100,0.1590909090909091,519,1,21,DL_Warm_Pop_Rock_Guitar,6,3,ruriko_tyusingura_warm_pop,0.9990057349205017,1
52,100,0.35909090909090907,567,0,21,DL_Warm_Pop_Rock_Guitar,6,6,ruriko_tyusingura_warm_pop,0.23120485246181488,0
52,100,0.1,677,0,21,DL_Warm_Pop_Rock_Guitar,6,2,ruriko_tyusingura_warm_pop,0.2659241855144501,0
62,100,0.5,810,0,21,DL_Warm_Pop_Rock_Guitar,6,8,ruriko_tyusingura_warm_pop,0.3542037606239319,0
62,100,0.1409090909090909,57,1,22,DL_Warm_Pop_Rock_Guitar,6,2,ruriko_tyusingura_warm_pop,0.9990057349205017,1
62,100,0.4818181818181818,92,0,22,DL_Warm_Pop_Rock_Guitar,6,8,ruriko_tyusingura_warm_pop,0.23121462762355804,0
55,100,0.3181818181818182,360,1,22,DL_Warm_Pop_Rock_Guitar,6,5,ruriko_tyusingura_warm_pop,0.265924334526062,0
60,100,0.11818181818181818,638,1,22,DL_Warm_Pop_Rock_Guitar,6,2,ruriko_tyusingura_warm_pop,0.3542083501815796,0
62,100,0.5,158,1,23,DL_Warm_Pop_Rock_Guitar,6,8,ruriko_tyusingura_warm_pop,0.9988419413566589,1
62,100,0.2409090909090909,343,0,23,DL_Warm_Pop_Rock_Guitar,6,4,ruriko_tyusingura_warm_pop,0.13725124299526215,0
55,100,0.1,443,0,23,DL_Warm_Pop_Rock_Guitar,6,2,ruriko_tyusingura_warm_pop,0.1597866415977478,0
62,100,0.11818181818181818,501,0,23,DL_Warm_Pop_Rock_Guitar,6,2,ruriko_tyusingura_warm_pop,0.1864539235830307,0
62,100,0.1409090909090909,607,0,23,DL_Warm_Pop_Rock_Guitar,6,2,ruriko_tyusingura_warm_pop,0.2581767141819,0
55,100,0.32272727272727275,92,1,24,DL_Warm_Pop_Rock_Guitar,6,5,ruriko_tyusingura_warm_pop,0.9990057349205017,1
62,100,0.2818181818181818,461,1,24,DL_Warm_Pop_Rock_Guitar,6,5,ruriko_tyusingura_warm_pop,0.23120878636837006,0
62,100,0.2409090909090909,704,1,24,DL_Warm_Pop_Rock_Guitar,6,4,ruriko_tyusingura_warm_pop,0.2659301161766052,0
62,100,0.2,835,0,24,DL_Warm_Pop_Rock_Guitar,6,3,ruriko_tyusingura_warm_pop,0.3542059063911438,0
61,100,0.11818181818181818,0,1,25,DL_Warm_Pop_Rock_Guitar,6,2,ruriko_tyusingura_warm_pop,0.9990057349205017,1
55,100,0.12272727272727273,277,1,25,DL_Warm_Pop_Rock_Guitar,6,2,ruriko_tyusingura_warm_pop,0.23120370507240295,0
62,100,0.3409090909090909,497,0,25,DL_Warm_Pop_Rock_Guitar,6,5,ruriko_tyusingura_warm_pop,0.26592445373535156,0
62,100,0.2409090909090909,712,0,25,DL_Warm_Pop_Rock_Guitar,6,4,ruriko_tyusingura_warm_pop,0.35420167446136475,0
62,100,0.2818181818181818,13,1,26,DL_Warm_Pop_Rock_Guitar,6,5,ruriko_tyusingura_warm_pop,0.9990057349205017,1
62,100,0.2636363636363636,136,0,26,DL_Warm_Pop_Rock_Guitar,6,4,ruriko_tyusingura_warm_pop,0.23120516538619995,0
66,100,0.1,646,1,26,DL_Warm_Pop_Rock_Guitar,6,2,ruriko_tyusingura_warm_pop,0.26592573523521423,0
52,100,0.2818181818181818,708,0,26,DL_Warm_Pop_Rock_Guitar,6,5,ruriko_tyusingura_warm_pop,0.3542080819606781,0
62,100,0.3409090909090909,48,1,27,DL_Warm_Pop_Rock_Guitar,6,5,ruriko_tyusingura_warm_pop,0.9984880685806274,1
57,100,0.2409090909090909,158,0,27,DL_Warm_Pop_Rock_Guitar,6,4,ruriko_tyusingura_warm_pop,0.06334786862134933,0
52,100,0.6,260,0,27,DL_Warm_Pop_Rock_Guitar,6,10,ruriko_tyusingura_warm_pop,0.05774497613310814,0
55,100,0.23636363636363636,413,0,27,DL_Warm_Pop_Rock_Guitar,6,4,ruriko_tyusingura_warm_pop,0.06020637974143028,0
55,100,0.3409090909090909,484,0,27,DL_Warm_Pop_Rock_Guitar,6,5,ruriko_tyusingura_warm_pop,0.06970728933811188,0
62,100,0.2590909090909091,567,0,27,DL_Warm_Pop_Rock_Guitar,6,4,ruriko_tyusingura_warm_pop,0.08190176635980606,0
67,100,0.42272727272727273,629,0,27,DL_Warm_Pop_Rock_Guitar,6,7,ruriko_tyusingura_warm_pop,0.12402885407209396,0
62,100,0.21818181818181817,162,1,28,DL_Warm_Pop_Rock_Guitar,6,3,ruriko_tyusingura_warm_pop,0.9988419413566589,1
54,100,0.4636363636363636,443,1,28,DL_Warm_Pop_Rock_Guitar,6,7,ruriko_tyusingura_warm_pop,0.13725164532661438,0
66,100,0.21818181818181817,546,0,28,DL_Warm_Pop_Rock_Guitar,6,3,ruriko_tyusingura_warm_pop,0.15977410972118378,0
66,100,0.1409090909090909,660,0,28,DL_Warm_Pop_Rock_Guitar,6,2,ruriko_tyusingura_warm_pop,0.1864464432001114,0
59,100,0.13636363636363635,810,0,28,DL_Warm_Pop_Rock_Guitar,6,2,ruriko_tyusingura_warm_pop,0.25816065073013306,0
64,100,0.23636363636363636,61,1,29,DL_Warm_Pop_Rock_Guitar,6,4,ruriko_tyusingura_warm_pop,0.9986500144004822,1
52,100,0.5818181818181818,113,0,29,DL_Warm_Pop_Rock_Guitar,6,9,ruriko_tyusingura_warm_pop,0.08780497312545776,0
52,100,0.3,333,0,29,DL_Warm_Pop_Rock_Guitar,6,5,ruriko_tyusingura_warm_pop,0.09181474149227142,0
62,100,0.37727272727272726,625,1,29,DL_Warm_Pop_Rock_Guitar,6,6,ruriko_tyusingura_warm_pop,0.10748204588890076,0
64,100,0.4,708,0,29,DL_Warm_Pop_Rock_Guitar,6,6,ruriko_tyusingura_warm_pop,0.1248321533203125,0
62,100,0.11818181818181818,801,0,29,DL_Warm_Pop_Rock_Guitar,6,2,ruriko_tyusingura_warm_pop,0.1790405809879303,0
62,100,0.3181818181818182,150,1,30,DL_Warm_Pop_Rock_Guitar,6,5,ruriko_tyusingura_warm_pop,0.9990057349205017,1
62,100,0.2,594,1,30,DL_Warm_Pop_Rock_Guitar,6,3,ruriko_tyusingura_warm_pop,0.23121266067028046,0
62,100,0.2772727272727273,646,0,30,DL_Warm_Pop_Rock_Guitar,6,4,ruriko_tyusingura_warm_pop,0.2659299969673157,0
57,100,0.4,739,0,30,DL_Warm_Pop_Rock_Guitar,6,6,ruriko_tyusingura_warm_pop,0.3542158007621765,0
57,100,0.36363636363636365,48,1,31,DL_Warm_Pop_Rock_Guitar,6,6,ruriko_tyusingura_warm_pop,0.9984880685806274,1
62,100,0.5363636363636364,171,0,31,DL_Warm_Pop_Rock_Guitar,6,9,ruriko_tyusingura_warm_pop,0.06334882974624634,0
53,100,0.11818181818181818,461,1,31,DL_Warm_Pop_Rock_Guitar,6,2,ruriko_tyusingura_warm_pop,0.05774484947323799,0
62,100,0.4772727272727273,523,0,31,DL_Warm_Pop_Rock_Guitar,6,8,ruriko_tyusingura_warm_pop,0.060205698013305664,0
62,100,0.11818181818181818,638,0,31,DL_Warm_Pop_Rock_Guitar,6,2,ruriko_tyusingura_warm_pop,0.06970931589603424,0
62,100,0.18181818181818182,694,0,31,DL_Warm_Pop_Rock_Guitar,6,3,ruriko_tyusingura_warm_pop,0.08190176635980606,0
62,100,0.33636363636363636,853,0,31,DL_Warm_Pop_Rock_Guitar,6,5,ruriko_tyusingura_warm_pop,0.124028779566288,0
62,100,0.38181818181818183,201,1,32,DL_Warm_Pop_Rock_Guitar,6,6,ruriko_tyusingura_warm_pop,0.979256272315979,0
62,100,0.21818181818181817,185,1,33,DL_Warm_Pop_Rock_Guitar,6,3,ruriko_tyusingura_warm_pop,0.9988419413566589,1
62,100,0.2,289,0,33,DL_Warm_Pop_Rock_Guitar,6,3,ruriko_tyusingura_warm_pop,0.13725246489048004,0
57,100,0.33636363636363636,370,0,33,DL_Warm_Pop_Rock_Guitar,6,5,ruriko_tyusingura_warm_pop,0.15978777408599854,0
55,100,0.1409090909090909,668,1,33,DL_Warm_Pop_Rock_Guitar,6,2,ruriko_tyusingura_warm_pop,0.18645747005939484,0
62,100,0.13636363636363635,721,0,33,DL_Warm_Pop_Rock_Guitar,6,2,ruriko_tyusingura_warm_pop,0.25817984342575073,0
62,100,0.8,774,1,34,DL_Warm_Pop_Rock_Guitar,6,13,ruriko_tyusingura_warm_pop,0.9792568683624268,0
57,100,0.2409090909090909,571,1,35,DL_Warm_Pop_Rock_Guitar,6,4,ruriko_tyusingura_warm_pop,0.9988419413566589,1
52,100,0.3,655,0,35,DL_Warm_Pop_Rock_Guitar,6,5,ruriko_tyusingura_warm_pop,0.13725100457668304,0
62,100,0.11818181818181818,721,0,35,DL_Warm_Pop_Rock_Guitar,6,2,ruriko_tyusingura_warm_pop,0.15977931022644043,0
62,100,0.1409090909090909,823,0,35,DL_Warm_Pop_Rock_Guitar,6,2,ruriko_tyusingura_warm_pop,0.18645121157169342,0
52,100,0.21818181818181817,866,0,35,DL_Warm_Pop_Rock_Guitar,6,3,ruriko_tyusingura_warm_pop,0.2581774592399597,0
52,100,0.21818181818181817,40,1,36,DL_Warm_Pop_Rock_Guitar,6,3,ruriko_tyusingura_warm_pop,0.9988419413566589,1
52,100,0.17727272727272728,206,0,36,DL_Warm_Pop_Rock_Guitar,6,3,ruriko_tyusingura_warm_pop,0.13725286722183228,0
62,100,1.0,321,0,36,DL_Warm_Pop_Rock_Guitar,6,15,ruriko_tyusingura_warm_pop,0.15978264808654785,0
52,100,0.21818181818181817,545,0,36,DL_Warm_Pop_Rock_Guitar,6,3,ruriko_tyusingura_warm_pop,0.18645918369293213,0
62,100,1.1818181818181819,716,0,36,DL_Warm_Pop_Rock_Guitar,6,15,ruriko_tyusingura_warm_pop,0.25817134976387024,0
60,100,0.11818181818181818,118,1,37,DL_Warm_Pop_Rock_Guitar,6,2,ruriko_tyusingura_warm_pop,0.9990057349205017,1
62,100,0.2818181818181818,201,0,37,DL_Warm_Pop_Rock_Guitar,6,5,ruriko_tyusingura_warm_pop,0.23121348023414612,0
62,100,0.2,545,1,37,DL_Warm_Pop_Rock_Guitar,6,3,ruriko_tyusingura_warm_pop,0.26592588424682617,0
62,100,0.4,721,0,37,DL_Warm_Pop_Rock_Guitar,6,6,ruriko_tyusingura_warm_pop,0.35421010851860046,0
62,100,0.8227272727272728,56,1,38,DL_Warm_Pop_Rock_Guitar,6,13,ruriko_tyusingura_warm_pop,0.9986500144004822,1
57,100,0.1590909090909091,325,1,38,DL_Warm_Pop_Rock_Guitar,6,3,ruriko_tyusingura_warm_pop,0.08780448138713837,0
62,100,0.1590909090909091,396,0,38,DL_Warm_Pop_Rock_Guitar,6,3,ruriko_tyusingura_warm_pop,0.09181617200374603,0
62,100,0.2772727272727273,471,0,38,DL_Warm_Pop_Rock_Guitar,6,4,ruriko_tyusingura_warm_pop,0.10748014599084854,0
62,100,0.13636363636363635,810,1,38,DL_Warm_Pop_Rock_Guitar,6,2,ruriko_tyusingura_warm_pop,0.12483198940753937,0
52,100,0.38181818181818183,861,0,38,DL_Warm_Pop_Rock_Guitar,6,6,ruriko_tyusingura_warm_pop,0.17904797196388245,0
62,100,0.32272727272727275,298,1,39,DL_Warm_Pop_Rock_Guitar,6,5,ruriko_tyusingura_warm_pop,0.9990229606628418,1
55,100,0.4409090909090909,421,0,39,DL_Warm_Pop_Rock_Guitar,6,7,ruriko_tyusingura_warm_pop,0.36662426590919495,0
55,100,0.22272727272727272,584,0,39,DL_Warm_Pop_Rock_Guitar,6,4,ruriko_tyusingura_warm_pop,0.45329636335372925,0
60,100,0.2409090909090909,48,1,40,DL_Warm_Pop_Rock_Guitar,6,4,ruriko_tyusingura_warm_pop,0.9986500144004822,1
62,100,0.3,220,0,40,DL_Warm_Pop_Rock_Guitar,6,5,ruriko_tyusingura_warm_pop,0.08780381083488464,0
62,100,0.1409090909090909,289,0,40,DL_Warm_Pop_Rock_Guitar,6,2,ruriko_tyusingura_warm_pop,0.0918160080909729,0
62,100,0.38181818181818183,474,0,40,DL_Warm_Pop_Rock_Guitar,6,6,ruriko_tyusingura_warm_pop,0.10748106241226196,0
57,100,0.2772727272727273,691,0,40,DL_Warm_Pop_Rock_Guitar,6,4,ruriko_tyusingura_warm_pop,0.12483233213424683,0
52,100,0.4818181818181818,783,0,40,DL_Warm_Pop_Rock_Guitar,6,8,ruriko_tyusingura_warm_pop,0.1790420413017273,0
52,100,0.4772727272727273,18,1,41,DL_Warm_Pop_Rock_Guitar,6,8,ruriko_tyusingura_warm_pop,0.9986500144004822,1
52,100,0.16363636363636364,158,0,41,DL_Warm_Pop_Rock_Guitar,6,3,ruriko_tyusingura_warm_pop,0.08780378848314285,0
52,100,0.22272727272727272,201,0,41,DL_Warm_Pop_Rock_Guitar,6,4,ruriko_tyusingura_warm_pop,0.09181720018386841,0
52,100,0.3,260,0,41,DL_Warm_Pop_Rock_Guitar,6,5,ruriko_tyusingura_warm_pop,0.10748076438903809,0
52,100,0.38181818181818183,396,0,41,DL_Warm_Pop_Rock_Guitar,6,6,ruriko_tyusingura_warm_pop,0.12483175098896027,0
64,100,0.6590909090909091,496,0,41,DL_Warm_Pop_Rock_Guitar,6,11,ruriko_tyusingura_warm_pop,0.1790378987789154,0
57,100,0.35909090909090907,206,1,43,DL_Warm_Pop_Rock_Guitar,6,6,ruriko_tyusingura_warm_pop,0.9990229606628418,1
54,100,0.22272727272727272,421,0,43,DL_Warm_Pop_Rock_Guitar,6,4,ruriko_tyusingura_warm_pop,0.3666224777698517,0
66,100,0.4,471,0,43,DL_Warm_Pop_Rock_Guitar,6,6,ruriko_tyusingura_warm_pop,0.4532906711101532,0
62,100,0.21818181818181817,571,1,44,DL_Warm_Pop_Rock_Guitar,6,3,ruriko_tyusingura_warm_pop,0.9990229606628418,1
52,100,0.2409090909090909,625,0,44,DL_Warm_Pop_Rock_Guitar,6,4,ruriko_tyusingura_warm_pop,0.3666335642337799,0
52,100,0.2818181818181818,738,0,44,DL_Warm_Pop_Rock_Guitar,6,5,ruriko_tyusingura_warm_pop,0.4533001780509949,0
62,100,0.2818181818181818,198,1,45,DL_Warm_Pop_Rock_Guitar,6,5,ruriko_tyusingura_warm_pop,0.9792551398277283,0
52,100,0.1409090909090909,13,1,46,DL_Warm_Pop_Rock_Guitar,6,2,ruriko_tyusingura_warm_pop,0.9988419413566589,1
52,100,0.6818181818181818,69,0,46,DL_Warm_Pop_Rock_Guitar,6,11,ruriko_tyusingura_warm_pop,0.1372472494840622,0
52,100,0.1590909090909091,241,0,46,DL_Warm_Pop_Rock_Guitar,6,3,ruriko_tyusingura_warm_pop,0.15978191792964935,0
52,100,0.7,471,0,46,DL_Warm_Pop_Rock_Guitar,6,11,ruriko_tyusingura_warm_pop,0.18645137548446655,0
52,100,0.9772727272727273,668,0,46,DL_Warm_Pop_Rock_Guitar,6,15,ruriko_tyusingura_warm_pop,0.25817304849624634,0
62,100,0.1590909090909091,276,1,47,DL_Warm_Pop_Rock_Guitar,6,3,ruriko_tyusingura_warm_pop,0.9983165264129639,1
62,100,0.6818181818181818,606,1,47,DL_Warm_Pop_Rock_Guitar,6,11,ruriko_tyusingura_warm_pop,0.5445621609687805,0
57,100,0.2409090909090909,871,1,56,DL_Warm_Pop_Rock_Guitar,6,4,ruriko_tyusingura_warm_pop,0.9792560338973999,0
52,100,0.2409090909090909,431,1,60,DL_Warm_Pop_Rock_Guitar,6,4,ruriko_tyusingura_warm_pop,0.9990057349205017,1
52,100,0.11818181818181818,493,0,60,DL_Warm_Pop_Rock_Guitar,6,2,ruriko_tyusingura_warm_pop,0.2312028706073761,0
52,100,0.1,531,0,60,DL_Warm_Pop_Rock_Guitar,6,2,ruriko_tyusingura_warm_pop,0.2659229040145874,0
52,100,0.42272727272727273,826,1,60,DL_Warm_Pop_Rock_Guitar,6,7,ruriko_tyusingura_warm_pop,0.35420095920562744,0
62,100,0.21818181818181817,198,1,61,DL_Warm_Pop_Rock_Guitar,6,3,ruriko_tyusingura_warm_pop,0.9983165264129639,1
55,100,0.17727272727272728,691,1,61,DL_Warm_Pop_Rock_Guitar,6,3,ruriko_tyusingura_warm_pop,0.5445623397827148,0
62,100,0.7,9,1,66,DL_Warm_Pop_Rock_Guitar,6,11,ruriko_tyusingura_warm_pop,0.9983164072036743,1
62,100,2.081818181818182,716,1,66,DL_Warm_Pop_Rock_Guitar,6,15,ruriko_tyusingura_warm_pop,0.544556200504303,0
62,100,0.2,603,1,67,DL_Warm_Pop_Rock_Guitar,6,3,ruriko_tyusingura_warm_pop,0.979255735874176,0
62,100,0.1,756,1,70,DL_Warm_Pop_Rock_Guitar,6,2,ruriko_tyusingura_warm_pop,0.9792560338973999,1
62,100,0.2590909090909091,743,1,74,DL_Warm_Pop_Rock_Guitar,6,4,ruriko_tyusingura_warm_pop,0.9792553782463074,0
52,100,0.6818181818181818,35,1,75,DL_Warm_Pop_Rock_Guitar,6,11,ruriko_tyusingura_warm_pop,0.9986500144004822,1
64,100,0.1,330,1,75,DL_Warm_Pop_Rock_Guitar,6,2,ruriko_tyusingura_warm_pop,0.08780793845653534,0
62,100,0.759090909090909,365,0,75,DL_Warm_Pop_Rock_Guitar,6,12,ruriko_tyusingura_warm_pop,0.09181855618953705,0
52,100,0.21818181818181817,546,0,75,DL_Warm_Pop_Rock_Guitar,6,3,ruriko_tyusingura_warm_pop,0.10748755931854248,0
62,100,0.5,734,0,75,DL_Warm_Pop_Rock_Guitar,6,8,ruriko_tyusingura_warm_pop,0.12483368813991547,0
62,100,1.0,849,0,75,DL_Warm_Pop_Rock_Guitar,6,15,ruriko_tyusingura_warm_pop,0.1790456771850586,0
62,100,0.35909090909090907,426,1,76,DL_Warm_Pop_Rock_Guitar,6,6,ruriko_tyusingura_warm_pop,0.9983165264129639,1
62,100,0.2,590,0,76,DL_Warm_Pop_Rock_Guitar,6,3,ruriko_tyusingura_warm_pop,0.5445619225502014,0
62,100,0.11818181818181818,282,1,77,DL_Warm_Pop_Rock_Guitar,6,2,ruriko_tyusingura_warm_pop,0.9983165264129639,1
62,100,0.3181818181818182,572,1,77,DL_Warm_Pop_Rock_Guitar,6,5,ruriko_tyusingura_warm_pop,0.5445631742477417,0
52,100,0.3,206,1,78,DL_Warm_Pop_Rock_Guitar,6,5,ruriko_tyusingura_warm_pop,0.9988419413566589,1
52,100,0.2818181818181818,276,0,78,DL_Warm_Pop_Rock_Guitar,6,5,ruriko_tyusingura_warm_pop,0.1372474879026413,0
67,100,0.1590909090909091,370,0,78,DL_Warm_Pop_Rock_Guitar,6,3,ruriko_tyusingura_warm_pop,0.15977869927883148,0
62,100,0.18181818181818182,695,1,78,DL_Warm_Pop_Rock_Guitar,6,3,ruriko_tyusingura_warm_pop,0.1864514797925949,0
62,100,0.12272727272727273,739,0,78,DL_Warm_Pop_Rock_Guitar,6,2,ruriko_tyusingura_warm_pop,0.2581740915775299,0
62,100,0.3,163,1,79,DL_Warm_Pop_Rock_Guitar,6,5,ruriko_tyusingura_warm_pop,0.9792556166648865,0
52,100,0.4590909090909091,193,1,80,DL_Warm_Pop_Rock_Guitar,6,7,ruriko_tyusingura_warm_pop,0.9792566299438477,0
62,100,0.5181818181818182,440,1,81,DL_Warm_Pop_Rock_Guitar,6,8,ruriko_tyusingura_warm_pop,0.9983165264129639,1
62,100,0.7,624,0,81,DL_Warm_Pop_Rock_Guitar,6,11,ruriko_tyusingura_warm_pop,0.5445671081542969,0
52,100,0.22272727272727272,532,1,82,DL_Warm_Pop_Rock_Guitar,6,4,ruriko_tyusingura_warm_pop,0.9990229606628418,1
62,100,0.1,839,1,82,DL_Warm_Pop_Rock_Guitar,6,2,ruriko_tyusingura_warm_pop,0.3666248619556427,0
62,100,0.1,866,0,82,DL_Warm_Pop_Rock_Guitar,6,2,ruriko_tyusingura_warm_pop,0.45329952239990234,0
62,100,0.13636363636363635,150,1,83,DL_Warm_Pop_Rock_Guitar,6,2,ruriko_tyusingura_warm_pop,0.9792563915252686,1
52,100,0.37727272727272726,414,1,0,Dl_Nostalgic_2_Guitar,6,6,zenigata_nostalgic,0.9990229606628418,1
54,100,0.3181818181818182,502,0,0,Dl_Nostalgic_2_Guitar,6,5,zenigata_nostalgic,0.3666257858276367,0
57,100,0.2818181818181818,585,0,0,Dl_Nostalgic_2_Guitar,6,5,zenigata_nostalgic,0.4532921314239502,0
61,100,0.2,157,1,1,Dl_Nostalgic_2_Guitar,6,3,zenigata_nostalgic,0.9990229606628418,1
61,100,0.17727272727272728,206,0,1,Dl_Nostalgic_2_Guitar,6,3,zenigata_nostalgic,0.3666222095489502,0
52,100,0.2,752,1,1,Dl_Nostalgic_2_Guitar,6,3,zenigata_nostalgic,0.45329439640045166,0
61,100,0.1409090909090909,220,1,2,Dl_Nostalgic_2_Guitar,6,2,zenigata_nostalgic,0.9990057349205017,1
52,100,0.12272727272727273,342,0,2,Dl_Nostalgic_2_Guitar,6,2,zenigata_nostalgic,0.23120684921741486,0
61,100,0.2,440,0,2,Dl_Nostalgic_2_Guitar,6,3,zenigata_nostalgic,0.2659260034561157,0
54,100,1.1590909090909092,804,1,2,Dl_Nostalgic_2_Guitar,6,15,zenigata_nostalgic,0.3542006015777588,0
66,100,0.1409090909090909,268,1,3,Dl_Nostalgic_2_Guitar,6,2,zenigata_nostalgic,0.9990230798721313,1
54,100,0.2409090909090909,421,0,3,Dl_Nostalgic_2_Guitar,6,4,zenigata_nostalgic,0.36661863327026367,0
54,100,0.21818181818181817,703,1,3,Dl_Nostalgic_2_Guitar,6,3,zenigata_nostalgic,0.4532857835292816,0
54,100,0.12272727272727273,48,1,4,Dl_Nostalgic_2_Guitar,6,2,zenigata_nostalgic,0.9986500144004822,1
54,100,0.4,435,1,4,Dl_Nostalgic_2_Guitar,6,6,zenigata_nostalgic,0.08780419081449509,0
57,100,0.17727272727272728,524,0,4,Dl_Nostalgic_2_Guitar,6,3,zenigata_nostalgic,0.09181183576583862,0
57,100,0.2409090909090909,606,0,4,Dl_Nostalgic_2_Guitar,6,4,zenigata_nostalgic,0.10747836530208588,0
57,100,0.21818181818181817,691,0,4,Dl_Nostalgic_2_Guitar,6,3,zenigata_nostalgic,0.12482663989067078,0
57,100,0.1409090909090909,813,0,4,Dl_Nostalgic_2_Guitar,6,2,zenigata_nostalgic,0.1790347546339035,0
52,100,0.1409090909090909,8,1,5,Dl_Nostalgic_2_Guitar,6,2,zenigata_nostalgic,0.9990229606628418,1
57,100,0.2409090909090909,338,1,5,Dl_Nostalgic_2_Guitar,6,4,zenigata_nostalgic,0.36662548780441284,0
57,100,0.2772727272727273,810,1,5,Dl_Nostalgic_2_Guitar,6,4,zenigata_nostalgic,0.45328959822654724,0
57,100,0.16363636363636364,4,1,6,Dl_Nostalgic_2_Guitar,6,3,zenigata_nostalgic,0.9983165264129639,1
69,100,0.18181818181818182,431,1,6,Dl_Nostalgic_2_Guitar,6,3,zenigata_nostalgic,0.5445583462715149,0
69,100,0.2590909090909091,18,1,7,Dl_Nostalgic_2_Guitar,6,4,zenigata_nostalgic,0.9988419413566589,1
57,100,0.1590909090909091,74,0,7,Dl_Nostalgic_2_Guitar,6,3,zenigata_nostalgic,0.13724657893180847,0
61,100,0.22272727272727272,158,0,7,Dl_Nostalgic_2_Guitar,6,4,zenigata_nostalgic,0.1597791612148285,0
66,100,0.17727272727272728,721,1,7,Dl_Nostalgic_2_Guitar,6,3,zenigata_nostalgic,0.18645644187927246,0
54,100,0.9409090909090909,761,0,7,Dl_Nostalgic_2_Guitar,6,15,zenigata_nostalgic,0.25816136598587036,0
57,100,0.2,110,1,8,Dl_Nostalgic_2_Guitar,6,3,zenigata_nostalgic,0.9984880685806274,1
54,100,0.2,154,0,8,Dl_Nostalgic_2_Guitar,6,3,zenigata_nostalgic,0.06334537267684937,0
66,100,0.5,211,0,8,Dl_Nostalgic_2_Guitar,6,8,zenigata_nostalgic,0.0577416829764843,0
52,100,0.13636363636363635,326,0,8,Dl_Nostalgic_2_Guitar,6,2,zenigata_nostalgic,0.060202065855264664,0
52,100,0.8636363636363636,378,0,8,Dl_Nostalgic_2_Guitar,6,14,zenigata_nostalgic,0.06970103085041046,0
54,100,0.1590909090909091,625,1,8,Dl_Nostalgic_2_Guitar,6,3,zenigata_nostalgic,0.08189531415700912,0
52,100,0.9,792,0,8,Dl_Nostalgic_2_Guitar,6,14,zenigata_nostalgic,0.12401975691318512,0
64,100,0.22272727272727272,123,1,9,Dl_Nostalgic_2_Guitar,6,4,zenigata_nostalgic,0.9986500144004822,1
57,100,0.1409090909090909,202,0,9,Dl_Nostalgic_2_Guitar,6,2,zenigata_nostalgic,0.08780316263437271,0
52,100,0.2,259,0,9,Dl_Nostalgic_2_Guitar,6,3,zenigata_nostalgic,0.09181754291057587,0
59,100,0.33636363636363636,326,0,9,Dl_Nostalgic_2_Guitar,6,5,zenigata_nostalgic,0.1074812039732933,0
57,100,1.1818181818181819,400,0,9,Dl_Nostalgic_2_Guitar,6,15,zenigata_nostalgic,0.12482982128858566,0
57,100,0.22272727272727272,761,1,9,Dl_Nostalgic_2_Guitar,6,4,zenigata_nostalgic,0.179037407040596,0
57,100,0.12272727272727273,25,1,10,Dl_Nostalgic_2_Guitar,6,2,zenigata_nostalgic,0.9988419413566589,1
69,100,0.1,254,0,10,Dl_Nostalgic_2_Guitar,6,2,zenigata_nostalgic,0.1372516006231308,0
57,100,0.6409090909090909,276,0,10,Dl_Nostalgic_2_Guitar,6,10,zenigata_nostalgic,0.15978017449378967,0
57,100,0.1,470,0,10,Dl_Nostalgic_2_Guitar,6,2,zenigata_nostalgic,0.18645210564136505,0
57,100,0.740909090909091,735,1,10,Dl_Nostalgic_2_Guitar,6,12,zenigata_nostalgic,0.2581646740436554,0
57,100,0.2590909090909091,233,1,11,Dl_Nostalgic_2_Guitar,6,4,zenigata_nostalgic,0.9988419413566589,1
57,100,0.5,295,0,11,Dl_Nostalgic_2_Guitar,6,8,zenigata_nostalgic,0.1372494250535965,0
57,100,0.5363636363636364,414,0,11,Dl_Nostalgic_2_Guitar,6,9,zenigata_nostalgic,0.15978620946407318,0
54,100,1.240909090909091,541,0,11,Dl_Nostalgic_2_Guitar,6,15,zenigata_nostalgic,0.18645605444908142,0
57,100,0.2818181818181818,818,1,11,Dl_Nostalgic_2_Guitar,6,5,zenigata_nostalgic,0.25817641615867615,0
54,100,0.4,175,1,12,Dl_Nostalgic_2_Guitar,6,6,zenigata_nostalgic,0.9986500144004822,1
54,100,0.1,268,0,12,Dl_Nostalgic_2_Guitar,6,2,zenigata_nostalgic,0.08780258893966675,0
57,100,0.4590909090909091,414,0,12,Dl_Nostalgic_2_Guitar,6,7,zenigata_nostalgic,0.0918121188879013,0
61,100,0.17727272727272728,536,0,12,Dl_Nostalgic_2_Guitar,6,3,zenigata_nostalgic,0.10747767239809036,0
54,100,0.5409090909090909,660,0,12,Dl_Nostalgic_2_Guitar,6,9,zenigata_nostalgic,0.12482523173093796,0
57,100,0.1,809,0,12,Dl_Nostalgic_2_Guitar,6,2,zenigata_nostalgic,0.17903171479701996,0
57,100,0.1590909090909091,13,1,13,Dl_Nostalgic_2_Guitar,6,3,zenigata_nostalgic,0.9988419413566589,1
69,100,0.3,79,0,13,Dl_Nostalgic_2_Guitar,6,5,zenigata_nostalgic,0.1372535526752472,0
69,100,0.2409090909090909,163,0,13,Dl_Nostalgic_2_Guitar,6,4,zenigata_nostalgic,0.15978781878948212,0
57,100,0.2636363636363636,290,0,13,Dl_Nostalgic_2_Guitar,6,4,zenigata_nostalgic,0.18646015226840973,0
57,100,0.6818181818181818,527,1,13,Dl_Nostalgic_2_Guitar,6,11,zenigata_nostalgic,0.25816819071769714,0
57,100,0.3409090909090909,96,1,14,Dl_Nostalgic_2_Guitar,6,5,zenigata_nostalgic,0.9983165264129639,1
57,100,0.8363636363636363,567,1,14,Dl_Nostalgic_2_Guitar,6,13,zenigata_nostalgic,0.5445619225502014,0
57,100,0.35909090909090907,171,1,15,Dl_Nostalgic_2_Guitar,6,6,zenigata_nostalgic,0.9986500144004822,1
57,100,0.2590909090909091,254,0,15,Dl_Nostalgic_2_Guitar,6,4,zenigata_nostalgic,0.08780746906995773,0
57,100,0.38181818181818183,321,0,15,Dl_Nostalgic_2_Guitar,6,6,zenigata_nostalgic,0.09181878715753555,0
57,100,0.1409090909090909,558,1,15,Dl_Nostalgic_2_Guitar,6,2,zenigata_nostalgic,0.10748540610074997,0
57,100,0.42272727272727273,651,0,15,Dl_Nostalgic_2_Guitar,6,7,zenigata_nostalgic,0.12483754754066467,0
57,100,0.38181818181818183,804,0,15,Dl_Nostalgic_2_Guitar,6,6,zenigata_nostalgic,0.17904286086559296,0
57,100,0.1,100,1,16,Dl_Nostalgic_2_Guitar,6,2,zenigata_nostalgic,0.9986500144004822,1
57,100,0.38181818181818183,254,0,16,Dl_Nostalgic_2_Guitar,6,6,zenigata_nostalgic,0.0878068208694458,0
57,100,0.21818181818181817,347,0,16,Dl_Nostalgic_2_Guitar,6,3,zenigata_nostalgic,0.09181662648916245,0
57,100,0.3,426,0,16,Dl_Nostalgic_2_Guitar,6,5,zenigata_nostalgic,0.10748414695262909,0
57,100,0.2818181818181818,550,0,16,Dl_Nostalgic_2_Guitar,6,5,zenigata_nostalgic,0.12482988089323044,0
57,100,0.6409090909090909,729,0,16,Dl_Nostalgic_2_Guitar,6,10,zenigata_nostalgic,0.17904509603977203,0
57,100,1.3818181818181818,3,1,17,Dl_Nostalgic_2_Guitar,6,15,zenigata_nostalgic,0.9984880685806274,1
57,100,0.5590909090909091,326,1,17,Dl_Nostalgic_2_Guitar,6,9,zenigata_nostalgic,0.0633455440402031,0
57,100,0.4590909090909091,457,0,17,Dl_Nostalgic_2_Guitar,6,7,zenigata_nostalgic,0.0577436201274395,0
57,100,0.2409090909090909,594,0,17,Dl_Nostalgic_2_Guitar,6,4,zenigata_nostalgic,0.06020336598157883,0
57,100,0.1409090909090909,660,0,17,Dl_Nostalgic_2_Guitar,6,2,zenigata_nostalgic,0.06970543414354324,0
57,100,0.2,700,0,17,Dl_Nostalgic_2_Guitar,6,3,zenigata_nostalgic,0.08189911395311356,0
57,100,0.38181818181818183,804,0,17,Dl_Nostalgic_2_Guitar,6,6,zenigata_nostalgic,0.12402443587779999,0
69,100,0.2,9,1,18,Dl_Nostalgic_2_Guitar,6,3,zenigata_nostalgic,0.9990057349205017,1
57,100,0.5,52,0,18,Dl_Nostalgic_2_Guitar,6,8,zenigata_nostalgic,0.23120467364788055,0
52,100,0.3409090909090909,185,0,18,Dl_Nostalgic_2_Guitar,6,5,zenigata_nostalgic,0.26593196392059326,0
57,100,0.3409090909090909,409,0,18,Dl_Nostalgic_2_Guitar,6,5,zenigata_nostalgic,0.3541971445083618,0
59,100,0.22272727272727272,3,1,19,Dl_Nostalgic_2_Guitar,6,4,zenigata_nostalgic,0.9986500144004822,1
64,100,0.2818181818181818,110,0,19,Dl_Nostalgic_2_Guitar,6,5,zenigata_nostalgic,0.08780250698328018,0
61,100,0.2590909090909091,189,0,19,Dl_Nostalgic_2_Guitar,6,4,zenigata_nostalgic,0.09181270748376846,0
61,100,0.2409090909090909,673,1,19,Dl_Nostalgic_2_Guitar,6,4,zenigata_nostalgic,0.10747954994440079,0
59,100,0.2,752,0,19,Dl_Nostalgic_2_Guitar,6,3,zenigata_nostalgic,0.12482765316963196,0
59,100,0.9,814,0,19,Dl_Nostalgic_2_Guitar,6,14,zenigata_nostalgic,0.1790311187505722,0
59,100,0.1409090909090909,136,1,20,Dl_Nostalgic_2_Guitar,6,2,zenigata_nostalgic,0.9983736276626587,1
59,100,0.21818181818181817,175,0,20,Dl_Nostalgic_2_Guitar,6,3,zenigata_nostalgic,0.05106092244386673,0
64,100,0.1409090909090909,295,0,20,Dl_Nostalgic_2_Guitar,6,2,zenigata_nostalgic,0.04130292311310768,0
61,100,0.2409090909090909,409,0,20,Dl_Nostalgic_2_Guitar,6,4,zenigata_nostalgic,0.037385471165180206,0
64,100,0.18181818181818182,488,0,20,Dl_Nostalgic_2_Guitar,6,3,zenigata_nostalgic,0.03833077847957611,0
61,100,0.3,638,0,20,Dl_Nostalgic_2_Guitar,6,5,zenigata_nostalgic,0.044751428067684174,0
61,100,0.2590909090909091,756,0,20,Dl_Nostalgic_2_Guitar,6,4,zenigata_nostalgic,0.055230867117643356,0
61,100,0.2772727272727273,866,0,20,Dl_Nostalgic_2_Guitar,6,4,zenigata_nostalgic,0.09026560187339783,0
61,100,0.3181818181818182,162,1,21,Dl_Nostalgic_2_Guitar,6,5,zenigata_nostalgic,0.9986500144004822,1
61,100,0.35909090909090907,330,0,21,Dl_Nostalgic_2_Guitar,6,6,zenigata_nostalgic,0.08780333399772644,0
61,100,0.4818181818181818,430,0,21,Dl_Nostalgic_2_Guitar,6,8,zenigata_nostalgic,0.09181391447782516,0
61,100,0.1590909090909091,611,0,21,Dl_Nostalgic_2_Guitar,6,3,zenigata_nostalgic,0.10747874528169632,0
61,100,0.43636363636363634,656,0,21,Dl_Nostalgic_2_Guitar,6,7,zenigata_nostalgic,0.12482915073633194,0
61,100,0.37727272727272726,810,0,21,Dl_Nostalgic_2_Guitar,6,6,zenigata_nostalgic,0.17903681099414825,0
52,100,0.1409090909090909,220,1,22,Dl_Nostalgic_2_Guitar,6,2,zenigata_nostalgic,0.9983165264129639,1
57,100,0.11818181818181818,748,1,22,Dl_Nostalgic_2_Guitar,6,2,zenigata_nostalgic,0.5445554256439209,0
52,100,0.1,21,1,23,Dl_Nostalgic_2_Guitar,6,2,zenigata_nostalgic,0.9988419413566589,1
61,100,0.759090909090909,339,1,23,Dl_Nostalgic_2_Guitar,6,12,zenigata_nostalgic,0.1372460424900055,0
62,100,0.3,584,1,23,Dl_Nostalgic_2_Guitar,6,5,zenigata_nostalgic,0.15978029370307922,0
62,100,0.8590909090909091,673,0,23,Dl_Nostalgic_2_Guitar,6,14,zenigata_nostalgic,0.18645079433918,0
62,100,0.1409090909090909,870,0,23,Dl_Nostalgic_2_Guitar,6,2,zenigata_nostalgic,0.25817930698394775,0
62,100,0.12272727272727273,144,1,24,Dl_Nostalgic_2_Guitar,6,2,zenigata_nostalgic,0.9990057349205017,1
59,100,0.1590909090909091,320,0,24,Dl_Nostalgic_2_Guitar,6,3,zenigata_nostalgic,0.23121115565299988,0
59,100,0.6,436,0,24,Dl_Nostalgic_2_Guitar,6,10,zenigata_nostalgic,0.26592394709587097,0
61,100,0.4,717,1,24,Dl_Nostalgic_2_Guitar,6,6,zenigata_nostalgic,0.35419589281082153,0
57,100,0.4590909090909091,30,1,25,Dl_Nostalgic_2_Guitar,6,7,zenigata_nostalgic,0.9990057349205017,1
58,100,0.2818181818181818,179,0,25,Dl_Nostalgic_2_Guitar,6,5,zenigata_nostalgic,0.2312096506357193,0
61,100,0.21818181818181817,339,0,25,Dl_Nostalgic_2_Guitar,6,3,zenigata_nostalgic,0.2659212350845337,0
62,100,0.6181818181818182,756,1,25,Dl_Nostalgic_2_Guitar,6,10,zenigata_nostalgic,0.35420316457748413,0
57,100,0.12272727272727273,48,1,26,Dl_Nostalgic_2_Guitar,6,2,zenigata_nostalgic,0.9986500144004822,1
62,100,0.2,100,0,26,Dl_Nostalgic_2_Guitar,6,3,zenigata_nostalgic,0.08780701458454132,0
57,100,0.6181818181818182,150,0,26,Dl_Nostalgic_2_Guitar,6,10,zenigata_nostalgic,0.09181736409664154,0
59,100,0.1590909090909091,656,1,26,Dl_Nostalgic_2_Guitar,6,3,zenigata_nostalgic,0.10748568177223206,0
59,100,0.12272727272727273,708,0,26,Dl_Nostalgic_2_Guitar,6,2,zenigata_nostalgic,0.12483423948287964,0
57,100,0.1590909090909091,822,0,26,Dl_Nostalgic_2_Guitar,6,3,zenigata_nostalgic,0.17903973162174225,0
61,100,0.3409090909090909,92,1,27,Dl_Nostalgic_2_Guitar,6,5,zenigata_nostalgic,0.9986500144004822,1
61,100,0.3,316,0,27,Dl_Nostalgic_2_Guitar,6,5,zenigata_nostalgic,0.0878017470240593,0
52,100,0.4,488,0,27,Dl_Nostalgic_2_Guitar,6,6,zenigata_nostalgic,0.09181352704763412,0
52,100,0.11818181818181818,602,0,27,Dl_Nostalgic_2_Guitar,6,2,zenigata_nostalgic,0.10747640579938889,0
61,100,0.2590909090909091,700,0,27,Dl_Nostalgic_2_Guitar,6,4,zenigata_nostalgic,0.12482450157403946,0
64,100,0.12272727272727273,862,0,27,Dl_Nostalgic_2_Guitar,6,2,zenigata_nostalgic,0.1790391057729721,0
61,100,0.11818181818181818,9,1,28,Dl_Nostalgic_2_Guitar,6,2,zenigata_nostalgic,0.9986500144004822,1
61,100,0.1409090909090909,44,0,28,Dl_Nostalgic_2_Guitar,6,2,zenigata_nostalgic,0.08780521899461746,0
57,100,0.3181818181818182,281,1,28,Dl_Nostalgic_2_Guitar,6,5,zenigata_nostalgic,0.09181541204452515,0
57,100,0.2409090909090909,387,0,28,Dl_Nostalgic_2_Guitar,6,4,zenigata_nostalgic,0.10748151689767838,0
61,100,0.1590909090909091,691,1,28,Dl_Nostalgic_2_Guitar,6,3,zenigata_nostalgic,0.1248316615819931,0
57,100,0.5409090909090909,791,0,28,Dl_Nostalgic_2_Guitar,6,9,zenigata_nostalgic,0.1790355145931244,0
61,100,0.2409090909090909,123,1,29,Dl_Nostalgic_2_Guitar,6,4,zenigata_nostalgic,0.9990229606628418,1
52,100,0.11818181818181818,501,1,29,Dl_Nostalgic_2_Guitar,6,2,zenigata_nostalgic,0.36663156747817993,0
69,100,0.1409090909090909,827,1,29,Dl_Nostalgic_2_Guitar,6,2,zenigata_nostalgic,0.45329469442367554,0
57,100,0.1409090909090909,167,1,30,Dl_Nostalgic_2_Guitar,6,2,zenigata_nostalgic,0.9990057349205017,1
57,100,0.2,202,0,30,Dl_Nostalgic_2_Guitar,6,3,zenigata_nostalgic,0.23120608925819397,0
69,100,0.21818181818181817,418,0,30,Dl_Nostalgic_2_Guitar,6,3,zenigata_nostalgic,0.26592352986335754,0
57,100,0.1409090909090909,466,0,30,Dl_Nostalgic_2_Guitar,6,2,zenigata_nostalgic,0.3542000353336334,0
57,100,0.1409090909090909,48,1,31,Dl_Nostalgic_2_Guitar,6,2,zenigata_nostalgic,0.9990057349205017,1
61,100,0.1409090909090909,532,1,31,Dl_Nostalgic_2_Guitar,6,2,zenigata_nostalgic,0.2312047779560089,0
61,100,0.17727272727272728,567,0,31,Dl_Nostalgic_2_Guitar,6,3,zenigata_nostalgic,0.26592180132865906,0
61,100,0.1,646,0,31,Dl_Nostalgic_2_Guitar,6,2,zenigata_nostalgic,0.3541930615901947,0
69,100,0.21818181818181817,105,1,32,Dl_Nostalgic_2_Guitar,6,3,zenigata_nostalgic,0.9990057349205017,1
57,100,0.7227272727272728,334,0,32,Dl_Nostalgic_2_Guitar,6,12,zenigata_nostalgic,0.23121313750743866,0
69,100,0.1409090909090909,576,1,32,Dl_Nostalgic_2_Guitar,6,2,zenigata_nostalgic,0.265945166349411,0
57,100,1.8227272727272728,651,0,32,Dl_Nostalgic_2_Guitar,6,15,zenigata_nostalgic,0.35419175028800964,0
69,100,0.18181818181818182,176,1,33,Dl_Nostalgic_2_Guitar,6,3,zenigata_nostalgic,0.9988419413566589,1
57,100,0.9181818181818182,215,0,33,Dl_Nostalgic_2_Guitar,6,15,zenigata_nostalgic,0.13725030422210693,0
57,100,0.6227272727272727,509,1,33,Dl_Nostalgic_2_Guitar,6,10,zenigata_nostalgic,0.1597842127084732,0
57,100,0.33636363636363636,655,0,33,Dl_Nostalgic_2_Guitar,6,5,zenigata_nostalgic,0.18645428121089935,0
64,100,0.2,765,0,33,Dl_Nostalgic_2_Guitar,6,3,zenigata_nostalgic,0.25817739963531494,0
61,100,0.11818181818181818,0,1,34,Dl_Nostalgic_2_Guitar,6,2,zenigata_nostalgic,0.9986500144004822,1
57,100,1.018181818181818,263,1,34,Dl_Nostalgic_2_Guitar,6,15,zenigata_nostalgic,0.0878041461110115,0
54,100,0.2409090909090909,496,1,34,Dl_Nostalgic_2_Guitar,6,4,zenigata_nostalgic,0.09181533008813858,0
54,100,0.12272727272727273,619,0,34,Dl_Nostalgic_2_Guitar,6,2,zenigata_nostalgic,0.10747849196195602,0
69,100,0.11818181818181818,756,0,34,Dl_Nostalgic_2_Guitar,6,2,zenigata_nostalgic,0.12482599169015884,0
54,100,0.2409090909090909,804,0,34,Dl_Nostalgic_2_Guitar,6,4,zenigata_nostalgic,0.17903117835521698,0
54,100,0.3409090909090909,21,1,35,Dl_Nostalgic_2_Guitar,6,5,zenigata_nostalgic,0.9983736276626587,1
69,100,0.11818181818181818,348,1,35,Dl_Nostalgic_2_Guitar,6,2,zenigata_nostalgic,0.051061708480119705,0
54,100,0.42272727272727273,399,0,35,Dl_Nostalgic_2_Guitar,6,7,zenigata_nostalgic,0.04130377247929573,0
54,100,0.11818181818181818,506,0,35,Dl_Nostalgic_2_Guitar,6,2,zenigata_nostalgic,0.03738575428724289,0
52,100,0.4,576,0,35,Dl_Nostalgic_2_Guitar,6,6,zenigata_nostalgic,0.038329143077135086,0
61,100,0.16363636363636364,664,0,35,Dl_Nostalgic_2_Guitar,6,3,zenigata_nostalgic,0.04475013539195061,0
52,100,0.3409090909090909,729,0,35,Dl_Nostalgic_2_Guitar,6,5,zenigata_nostalgic,0.055227916687726974,0
52,100,0.2590909090909091,810,0,35,Dl_Nostalgic_2_Guitar,6,4,zenigata_nostalgic,0.09026319533586502,0
52,100,0.4,8,1,36,Dl_Nostalgic_2_Guitar,6,6,zenigata_nostalgic,0.9983003735542297,1
61,100,0.21818181818181817,96,0,36,Dl_Nostalgic_2_Guitar,6,3,zenigata_nostalgic,0.04466341435909271,0
52,100,0.2,185,0,36,Dl_Nostalgic_2_Guitar,6,3,zenigata_nostalgic,0.03315085545182228,0
52,100,0.3181818181818182,308,0,36,Dl_Nostalgic_2_Guitar,6,5,zenigata_nostalgic,0.026580702513456345,0
57,100,0.1409090909090909,421,0,36,Dl_Nostalgic_2_Guitar,6,2,zenigata_nostalgic,0.0235962625592947,0
52,100,0.1409090909090909,619,0,36,Dl_Nostalgic_2_Guitar,6,2,zenigata_nostalgic,0.02431562729179859,0
61,100,0.13636363636363635,700,0,36,Dl_Nostalgic_2_Guitar,6,2,zenigata_nostalgic,0.029690561816096306,0
52,100,0.2,778,0,36,Dl_Nostalgic_2_Guitar,6,3,zenigata_nostalgic,0.040078334510326385,0
52,100,0.17727272727272728,845,0,36,Dl_Nostalgic_2_Guitar,6,3,zenigata_nostalgic,0.07093001157045364,0
69,100,0.1409090909090909,21,1,37,Dl_Nostalgic_2_Guitar,6,2,zenigata_nostalgic,0.9983736276626587,1
52,100,0.1409090909090909,185,0,37,Dl_Nostalgic_2_Guitar,6,2,zenigata_nostalgic,0.051060620695352554,0
59,100,0.2772727272727273,238,0,37,Dl_Nostalgic_2_Guitar,6,4,zenigata_nostalgic,0.0413019135594368,0
59,100,0.3,348,0,37,Dl_Nostalgic_2_Guitar,6,5,zenigata_nostalgic,0.037385325878858566,0
52,100,0.2,426,0,37,Dl_Nostalgic_2_Guitar,6,3,zenigata_nostalgic,0.03832855448126793,0
52,100,0.2,506,0,37,Dl_Nostalgic_2_Guitar,6,3,zenigata_nostalgic,0.04475051164627075,0
61,100,0.2590909090909091,660,0,37,Dl_Nostalgic_2_Guitar,6,4,zenigata_nostalgic,0.055227894335985184,0
61,100,0.3181818181818182,823,0,37,Dl_Nostalgic_2_Guitar,6,5,zenigata_nostalgic,0.09026481956243515,0
61,100,0.2,179,1,38,Dl_Nostalgic_2_Guitar,6,3,zenigata_nostalgic,0.9983004927635193,1
57,100,0.1,263,0,38,Dl_Nostalgic_2_Guitar,6,2,zenigata_nostalgic,0.0446648970246315,0
61,100,0.1409090909090909,298,0,38,Dl_Nostalgic_2_Guitar,6,2,zenigata_nostalgic,0.03315095603466034,0
56,100,0.4,338,0,38,Dl_Nostalgic_2_Guitar,6,6,zenigata_nostalgic,0.026581892743706703,0
56,100,0.3,431,0,38,Dl_Nostalgic_2_Guitar,6,5,zenigata_nostalgic,0.02359633892774582,0
59,100,0.11818181818181818,536,0,38,Dl_Nostalgic_2_Guitar,6,2,zenigata_nostalgic,0.02431640774011612,0
64,100,0.18181818181818182,783,1,38,Dl_Nostalgic_2_Guitar,6,3,zenigata_nostalgic,0.029690833762288094,0
52,100,0.11818181818181818,831,0,38,Dl_Nostalgic_2_Guitar,6,2,zenigata_nostalgic,0.040079161524772644,0
57,100,0.8227272727272728,871,0,38,Dl_Nostalgic_2_Guitar,6,13,zenigata_nostalgic,0.07092886418104172,0
57,100,0.2,246,1,39,Dl_Nostalgic_2_Guitar,6,3,zenigata_nostalgic,0.9988419413566589,1
57,100,0.11818181818181818,295,0,39,Dl_Nostalgic_2_Guitar,6,2,zenigata_nostalgic,0.13725446164608002,0
57,100,0.7818181818181819,364,0,39,Dl_Nostalgic_2_Guitar,6,13,zenigata_nostalgic,0.15978677570819855,0
61,100,0.17727272727272728,611,1,39,Dl_Nostalgic_2_Guitar,6,3,zenigata_nostalgic,0.18645930290222168,0
57,100,1.040909090909091,664,0,39,Dl_Nostalgic_2_Guitar,6,15,zenigata_nostalgic,0.2581733763217926,0
61,100,0.21818181818181817,118,1,40,Dl_Nostalgic_2_Guitar,6,3,zenigata_nostalgic,0.9986500144004822,1
61,100,0.41818181818181815,418,1,40,Dl_Nostalgic_2_Guitar,6,7,zenigata_nostalgic,0.08780620992183685,0
56,100,0.6,515,0,40,Dl_Nostalgic_2_Guitar,6,10,zenigata_nostalgic,0.09181533008813858,0
64,100,0.1409090909090909,686,0,40,Dl_Nostalgic_2_Guitar,6,2,zenigata_nostalgic,0.10748229920864105,0
57,100,0.2,748,0,40,Dl_Nostalgic_2_Guitar,6,3,zenigata_nostalgic,0.12482661008834839,0
64,100,0.5,796,0,40,Dl_Nostalgic_2_Guitar,6,8,zenigata_nostalgic,0.1790432333946228,0
57,100,0.2590909090909091,131,1,41,Dl_Nostalgic_2_Guitar,6,4,zenigata_nostalgic,0.9990057349205017,1
57,100,0.1590909090909091,506,1,41,Dl_Nostalgic_2_Guitar,6,3,zenigata_nostalgic,0.2312079668045044,0
57,100,1.0,598,0,41,Dl_Nostalgic_2_Guitar,6,15,zenigata_nostalgic,0.26592376828193665,0
61,100,0.12272727272727273,839,1,41,Dl_Nostalgic_2_Guitar,6,2,zenigata_nostalgic,0.3541920483112335,0
57,100,0.23636363636363636,40,1,42,Dl_Nostalgic_2_Guitar,6,4,zenigata_nostalgic,0.9988419413566589,1
62,100,0.35909090909090907,330,1,42,Dl_Nostalgic_2_Guitar,6,6,zenigata_nostalgic,0.1372493952512741,0
62,100,0.38181818181818183,571,1,42,Dl_Nostalgic_2_Guitar,6,6,zenigata_nostalgic,0.159780353307724,0
59,100,0.36363636363636365,664,0,42,Dl_Nostalgic_2_Guitar,6,6,zenigata_nostalgic,0.18646037578582764,0
64,100,0.11818181818181818,858,0,42,Dl_Nostalgic_2_Guitar,6,2,zenigata_nostalgic,0.25817549228668213,0
57,100,0.9227272727272727,254,1,43,Dl_Nostalgic_2_Guitar,6,15,zenigata_nostalgic,0.9990057349205017,1
57,100,0.2,506,1,43,Dl_Nostalgic_2_Guitar,6,3,zenigata_nostalgic,0.23120659589767456,0
58,100,0.740909090909091,651,0,43,Dl_Nostalgic_2_Guitar,6,12,zenigata_nostalgic,0.26592347025871277,0
58,100,0.37727272727272726,875,0,43,Dl_Nostalgic_2_Guitar,6,6,zenigata_nostalgic,0.35419079661369324,0
54,100,0.12272727272727273,364,1,44,Dl_Nostalgic_2_Guitar,6,2,zenigata_nostalgic,0.9990057349205017,1
57,100,0.2590909090909091,625,1,44,Dl_Nostalgic_2_Guitar,6,4,zenigata_nostalgic,0.23120205104351044,0
57,100,0.2590909090909091,756,0,44,Dl_Nostalgic_2_Guitar,6,4,zenigata_nostalgic,0.2659238278865814,0
59,100,0.21818181818181817,823,0,44,Dl_Nostalgic_2_Guitar,6,3,zenigata_nostalgic,0.3541980981826782,0
52,100,0.35909090909090907,298,1,45,Dl_Nostalgic_2_Guitar,6,6,zenigata_nostalgic,0.9990057349205017,1
61,100,1.1,418,0,45,Dl_Nostalgic_2_Guitar,6,15,zenigata_nostalgic,0.23119930922985077,0
52,100,0.1409090909090909,716,1,45,Dl_Nostalgic_2_Guitar,6,2,zenigata_nostalgic,0.26592209935188293,0
61,100,0.2590909090909091,813,0,45,Dl_Nostalgic_2_Guitar,6,4,zenigata_nostalgic,0.35419797897338867,0
61,100,0.2409090909090909,166,1,46,Dl_Nostalgic_2_Guitar,6,4,zenigata_nostalgic,0.9988419413566589,1
61,100,0.1,496,1,46,Dl_Nostalgic_2_Guitar,6,2,zenigata_nostalgic,0.13724443316459656,0
61,100,0.4,523,0,46,Dl_Nostalgic_2_Guitar,6,6,zenigata_nostalgic,0.15977276861667633,0
61,100,0.17727272727272728,655,0,46,Dl_Nostalgic_2_Guitar,6,3,zenigata_nostalgic,0.18644516170024872,0
62,100,0.41818181818181815,813,0,46,Dl_Nostalgic_2_Guitar,6,7,zenigata_nostalgic,0.25816643238067627,0
61,100,0.32272727272727275,26,1,47,Dl_Nostalgic_2_Guitar,6,5,zenigata_nostalgic,0.9986500144004822,1
56,100,0.9,110,0,47,Dl_Nostalgic_2_Guitar,6,14,zenigata_nostalgic,0.08780399709939957,0
52,100,0.1590909090909091,528,1,47,Dl_Nostalgic_2_Guitar,6,3,zenigata_nostalgic,0.09181537479162216,0
52,100,0.11818181818181818,568,0,47,Dl_Nostalgic_2_Guitar,6,2,zenigata_nostalgic,0.10748078674077988,0
57,100,0.11818181818181818,625,0,47,Dl_Nostalgic_2_Guitar,6,2,zenigata_nostalgic,0.12482940405607224,0
57,100,0.4,678,0,47,Dl_Nostalgic_2_Guitar,6,6,zenigata_nostalgic,0.17903341352939606,0
57,100,0.3,31,1,48,Dl_Nostalgic_2_Guitar,6,5,zenigata_nostalgic,0.9988419413566589,1
57,100,0.6590909090909091,101,0,48,Dl_Nostalgic_2_Guitar,6,11,zenigata_nostalgic,0.1372545212507248,0
57,100,0.8590909090909091,343,1,48,Dl_Nostalgic_2_Guitar,6,14,zenigata_nostalgic,0.15978305041790009,0
61,100,1.0,646,1,48,Dl_Nostalgic_2_Guitar,6,15,zenigata_nostalgic,0.18644942343235016,0
61,100,0.12272727272727273,871,0,48,Dl_Nostalgic_2_Guitar,6,2,zenigata_nostalgic,0.25817227363586426,0
61,100,0.1409090909090909,53,1,49,Dl_Nostalgic_2_Guitar,6,2,zenigata_nostalgic,0.9984880685806274,1
62,100,0.1409090909090909,179,0,49,Dl_Nostalgic_2_Guitar,6,2,zenigata_nostalgic,0.06334707140922546,0
62,100,0.1,215,0,49,Dl_Nostalgic_2_Guitar,6,2,zenigata_nostalgic,0.05774576589465141,0
56,100,0.32272727272727275,268,0,49,Dl_Nostalgic_2_Guitar,6,5,zenigata_nostalgic,0.06020630523562431,0
59,100,1.1409090909090909,383,0,49,Dl_Nostalgic_2_Guitar,6,15,zenigata_nostalgic,0.0697074607014656,0
52,100,0.18181818181818182,694,1,49,Dl_Nostalgic_2_Guitar,6,3,zenigata_nostalgic,0.08190370351076126,0
61,100,1.1227272727272728,738,0,49,Dl_Nostalgic_2_Guitar,6,15,zenigata_nostalgic,0.1240222379565239,0
57,100,0.1590909090909091,123,1,50,Dl_Nostalgic_2_Guitar,6,3,zenigata_nostalgic,0.9988419413566589,1
61,100,0.2409090909090909,268,0,50,Dl_Nostalgic_2_Guitar,6,4,zenigata_nostalgic,0.13724996149539948,0
57,100,0.5181818181818182,325,0,50,Dl_Nostalgic_2_Guitar,6,8,zenigata_nostalgic,0.15977418422698975,0
52,100,0.17727272727272728,448,0,50,Dl_Nostalgic_2_Guitar,6,3,zenigata_nostalgic,0.18645155429840088,0
52,100,0.11818181818181818,743,1,50,Dl_Nostalgic_2_Guitar,6,2,zenigata_nostalgic,0.258168488740921,0
62,100,0.3,144,1,51,Dl_Nostalgic_2_Guitar,6,5,zenigata_nostalgic,0.9988419413566589,1
62,100,0.1590909090909091,316,0,51,Dl_Nostalgic_2_Guitar,6,3,zenigata_nostalgic,0.13725228607654572,0
56,100,0.4,483,0,51,Dl_Nostalgic_2_Guitar,6,6,zenigata_nostalgic,0.1597844511270523,0
64,100,0.12272727272727273,686,0,51,Dl_Nostalgic_2_Guitar,6,2,zenigata_nostalgic,0.1864614486694336,0
61,100,0.22272727272727272,839,0,51,Dl_Nostalgic_2_Guitar,6,4,zenigata_nostalgic,0.2581713795661926,0
57,100,0.11818181818181818,31,1,52,Dl_Nostalgic_2_Guitar,6,2,zenigata_nostalgic,0.9986500144004822,1
57,100,0.13636363636363635,61,0,52,Dl_Nostalgic_2_Guitar,6,2,zenigata_nostalgic,0.08780492097139359,0
57,100,0.5227272727272727,123,0,52,Dl_Nostalgic_2_Guitar,6,8,zenigata_nostalgic,0.09181362390518188,0
61,100,0.37727272727272726,238,0,52,Dl_Nostalgic_2_Guitar,6,6,zenigata_nostalgic,0.10747841000556946,0
61,100,0.36363636363636365,421,0,52,Dl_Nostalgic_2_Guitar,6,6,zenigata_nostalgic,0.12482714653015137,0
61,100,0.41818181818181815,545,0,52,Dl_Nostalgic_2_Guitar,6,7,zenigata_nostalgic,0.17903156578540802,0
57,100,0.1409090909090909,13,1,53,Dl_Nostalgic_2_Guitar,6,2,zenigata_nostalgic,0.9983736276626587,1
61,100,0.1,43,0,53,Dl_Nostalgic_2_Guitar,6,2,zenigata_nostalgic,0.05106129124760628,0
54,100,0.35909090909090907,101,0,53,Dl_Nostalgic_2_Guitar,6,6,zenigata_nostalgic,0.04130354896187782,0
57,100,0.1409090909090909,220,0,53,Dl_Nostalgic_2_Guitar,6,2,zenigata_nostalgic,0.03738618269562721,0
57,100,0.1,276,0,53,Dl_Nostalgic_2_Guitar,6,2,zenigata_nostalgic,0.03833112120628357,0
57,100,0.1409090909090909,506,0,53,Dl_Nostalgic_2_Guitar,6,2,zenigata_nostalgic,0.044754158705472946,0
56,100,0.11818181818181818,590,0,53,Dl_Nostalgic_2_Guitar,6,2,zenigata_nostalgic,0.05523247271776199,0
56,100,0.8409090909090909,619,0,53,Dl_Nostalgic_2_Guitar,6,13,zenigata_nostalgic,0.09026578068733215,0
61,100,0.2590909090909091,96,1,54,Dl_Nostalgic_2_Guitar,6,4,zenigata_nostalgic,0.9990057349205017,1
57,100,0.5590909090909091,163,0,54,Dl_Nostalgic_2_Guitar,6,9,zenigata_nostalgic,0.23121148347854614,0
57,100,0.3,480,1,54,Dl_Nostalgic_2_Guitar,6,5,zenigata_nostalgic,0.2659364640712738,0
57,100,1.0,584,0,54,Dl_Nostalgic_2_Guitar,6,15,zenigata_nostalgic,0.35420843958854675,0
57,100,0.21818181818181817,40,1,55,Dl_Nostalgic_2_Guitar,6,3,zenigata_nostalgic,0.9983165264129639,1
52,100,0.13636363636363635,875,1,55,Dl_Nostalgic_2_Guitar,6,2,zenigata_nostalgic,0.544561505317688,0
52,100,0.6,31,1,56,Dl_Nostalgic_2_Guitar,6,10,zenigata_nostalgic,0.9988419413566589,1
52,100,0.4818181818181818,188,0,56,Dl_Nostalgic_2_Guitar,6,8,zenigata_nostalgic,0.1372506469488144,0
61,100,0.5363636363636364,325,0,56,Dl_Nostalgic_2_Guitar,6,9,zenigata_nostalgic,0.15977533161640167,0
61,100,0.1590909090909091,448,0,56,Dl_Nostalgic_2_Guitar,6,3,zenigata_nostalgic,0.18645255267620087,0
61,100,0.9590909090909091,866,1,56,Dl_Nostalgic_2_Guitar,6,15,zenigata_nostalgic,0.2581664025783539,0
61,100,0.2,211,1,57,Dl_Nostalgic_2_Guitar,6,3,zenigata_nostalgic,0.9990057349205017,1
64,100,0.21818181818181817,273,0,57,Dl_Nostalgic_2_Guitar,6,3,zenigata_nostalgic,0.23120714724063873,0
61,100,0.2590909090909091,321,0,57,Dl_Nostalgic_2_Guitar,6,4,zenigata_nostalgic,0.2659214437007904,0
62,100,0.1409090909090909,848,1,57,Dl_Nostalgic_2_Guitar,6,2,zenigata_nostalgic,0.3542027473449707,0
52,100,0.32272727272727275,188,1,58,Dl_Nostalgic_2_Guitar,6,5,zenigata_nostalgic,0.9990230798721313,1
52,100,0.5590909090909091,386,0,58,Dl_Nostalgic_2_Guitar,6,9,zenigata_nostalgic,0.36663439869880676,0
57,100,1.540909090909091,515,0,58,Dl_Nostalgic_2_Guitar,6,15,zenigata_nostalgic,0.4532894790172577,0
57,100,0.3181818181818182,21,1,59,Dl_Nostalgic_2_Guitar,6,5,zenigata_nostalgic,0.9990057349205017,1
61,100,0.6181818181818182,96,0,59,Dl_Nostalgic_2_Guitar,6,10,zenigata_nostalgic,0.23119860887527466,0
52,100,0.1409090909090909,431,1,59,Dl_Nostalgic_2_Guitar,6,2,zenigata_nostalgic,0.2659265398979187,0
61,100,0.2,506,0,59,Dl_Nostalgic_2_Guitar,6,3,zenigata_nostalgic,0.35419172048568726,0
62,100,0.18181818181818182,91,1,60,Dl_Nostalgic_2_Guitar,6,3,zenigata_nostalgic,0.9986500144004822,1
56,100,0.4409090909090909,166,0,60,Dl_Nostalgic_2_Guitar,6,7,zenigata_nostalgic,0.08780314028263092,0
56,100,0.1409090909090909,273,0,60,Dl_Nostalgic_2_Guitar,6,2,zenigata_nostalgic,0.09181620925664902,0
56,100,0.3181818181818182,308,0,60,Dl_Nostalgic_2_Guitar,6,5,zenigata_nostalgic,0.10747744888067245,0
59,100,0.9409090909090909,638,1,60,Dl_Nostalgic_2_Guitar,6,15,zenigata_nostalgic,0.12482453137636185,0
59,100,0.11818181818181818,866,0,60,Dl_Nostalgic_2_Guitar,6,2,zenigata_nostalgic,0.1790318787097931,0
61,100,0.5,105,1,61,Dl_Nostalgic_2_Guitar,6,8,zenigata_nostalgic,0.9988419413566589,1
61,100,0.3409090909090909,251,0,61,Dl_Nostalgic_2_Guitar,6,5,zenigata_nostalgic,0.13725101947784424,0
61,100,0.11818181818181818,536,1,61,Dl_Nostalgic_2_Guitar,6,2,zenigata_nostalgic,0.1597820222377777,0
57,100,0.12272727272727273,686,0,61,Dl_Nostalgic_2_Guitar,6,2,zenigata_nostalgic,0.18645188212394714,0
62,100,1.5818181818181818,729,0,61,Dl_Nostalgic_2_Guitar,6,15,zenigata_nostalgic,0.2581745386123657,0
62,100,0.4409090909090909,220,1,62,Dl_Nostalgic_2_Guitar,6,7,zenigata_nostalgic,0.9990229606628418,1
52,100,1.1772727272727272,338,0,62,Dl_Nostalgic_2_Guitar,6,15,zenigata_nostalgic,0.36662963032722473,0
64,100,0.42272727272727273,804,1,62,Dl_Nostalgic_2_Guitar,6,7,zenigata_nostalgic,0.4533008933067322,0
59,100,0.3,96,1,63,Dl_Nostalgic_2_Guitar,6,5,zenigata_nostalgic,0.9990229606628418,1
52,100,0.4409090909090909,201,0,63,Dl_Nostalgic_2_Guitar,6,7,zenigata_nostalgic,0.36662688851356506,0
52,100,0.43636363636363634,303,0,63,Dl_Nostalgic_2_Guitar,6,7,zenigata_nostalgic,0.4532875418663025,0
68,100,0.2,153,1,64,Dl_Nostalgic_2_Guitar,6,3,zenigata_nostalgic,0.9983165264129639,1
59,100,0.21818181818181817,546,1,64,Dl_Nostalgic_2_Guitar,6,3,zenigata_nostalgic,0.5445578098297119,0
61,100,0.22272727272727272,377,1,65,Dl_Nostalgic_2_Guitar,6,4,zenigata_nostalgic,0.9983164072036743,1
56,100,1.0,585,0,65,Dl_Nostalgic_2_Guitar,6,15,zenigata_nostalgic,0.5445484519004822,0
68,100,0.35909090909090907,87,1,66,Dl_Nostalgic_2_Guitar,6,6,zenigata_nostalgic,0.9983003735542297,1
61,100,0.1409090909090909,202,0,66,Dl_Nostalgic_2_Guitar,6,2,zenigata_nostalgic,0.0446634516119957,0
64,100,0.41818181818181815,260,0,66,Dl_Nostalgic_2_Guitar,6,7,zenigata_nostalgic,0.033149603754282,0
61,100,0.35909090909090907,352,0,66,Dl_Nostalgic_2_Guitar,6,6,zenigata_nostalgic,0.026579029858112335,0
57,100,0.12272727272727273,443,0,66,Dl_Nostalgic_2_Guitar,6,2,zenigata_nostalgic,0.023595888167619705,0
61,100,0.11818181818181818,590,0,66,Dl_Nostalgic_2_Guitar,6,2,zenigata_nostalgic,0.024313755333423615,0
64,100,0.1,673,0,66,Dl_Nostalgic_2_Guitar,6,2,zenigata_nostalgic,0.029690023511648178,0
59,100,0.21818181818181817,722,0,66,Dl_Nostalgic_2_Guitar,6,3,zenigata_nostalgic,0.04007723182439804,0
61,100,0.5409090909090909,817,0,66,Dl_Nostalgic_2_Guitar,6,9,zenigata_nostalgic,0.0709262415766716,0
62,100,0.7181818181818181,567,1,67,Dl_Nostalgic_2_Guitar,6,11,zenigata_nostalgic,0.9983165264129639,1
56,100,0.9590909090909091,726,0,67,Dl_Nostalgic_2_Guitar,6,15,zenigata_nostalgic,0.5445532202720642,0
68,100,0.18181818181818182,92,1,68,Dl_Nostalgic_2_Guitar,6,3,zenigata_nostalgic,0.9982276558876038,1
59,100,0.12272727272727273,136,0,68,Dl_Nostalgic_2_Guitar,6,2,zenigata_nostalgic,0.03939810395240784,0
68,100,0.1590909090909091,197,0,68,Dl_Nostalgic_2_Guitar,6,3,zenigata_nostalgic,0.026673370972275734,0
52,100,0.12272727272727273,255,0,68,Dl_Nostalgic_2_Guitar,6,2,zenigata_nostalgic,0.01858845166862011,0
52,100,0.1,294,0,68,Dl_Nostalgic_2_Guitar,6,2,zenigata_nostalgic,0.013413947075605392,0
64,100,0.1,316,0,68,Dl_Nostalgic_2_Guitar,6,2,zenigata_nostalgic,0.010587627999484539,0
61,100,0.22272727272727272,343,0,68,Dl_Nostalgic_2_Guitar,6,4,zenigata_nostalgic,0.009839826263487339,0
61,100,0.21818181818181817,457,0,68,Dl_Nostalgic_2_Guitar,6,3,zenigata_nostalgic,0.01141765620559454,0
61,100,0.2409090909090909,509,0,68,Dl_Nostalgic_2_Guitar,6,4,zenigata_nostalgic,0.016512123867869377,0
61,100,0.12272727272727273,576,0,68,Dl_Nostalgic_2_Guitar,6,2,zenigata_nostalgic,0.02681855857372284,0
57,100,0.7,792,0,68,Dl_Nostalgic_2_Guitar,6,11,zenigata_nostalgic,0.053913719952106476,0
57,100,0.13636363636363635,83,1,69,Dl_Nostalgic_2_Guitar,6,2,zenigata_nostalgic,0.9990229606628418,1
57,100,0.17727272727272728,119,0,69,Dl_Nostalgic_2_Guitar,6,3,zenigata_nostalgic,0.36662691831588745,0
57,100,0.2,650,1,69,Dl_Nostalgic_2_Guitar,6,3,zenigata_nostalgic,0.45329296588897705,0
68,100,0.1409090909090909,267,1,70,Dl_Nostalgic_2_Guitar,6,2,zenigata_nostalgic,0.9986500144004822,1
52,100,0.21818181818181817,440,0,70,Dl_Nostalgic_2_Guitar,6,3,zenigata_nostalgic,0.08780660480260849,0
61,100,1.1,502,0,70,Dl_Nostalgic_2_Guitar,6,15,zenigata_nostalgic,0.09181209653615952,0
61,100,0.1409090909090909,770,1,70,Dl_Nostalgic_2_Guitar,6,2,zenigata_nostalgic,0.1074807196855545,0
61,100,0.1590909090909091,805,0,70,Dl_Nostalgic_2_Guitar,6,3,zenigata_nostalgic,0.12482866644859314,0
61,100,0.1409090909090909,844,0,70,Dl_Nostalgic_2_Guitar,6,2,zenigata_nostalgic,0.17903214693069458,0
61,100,0.4590909090909091,87,1,71,Dl_Nostalgic_2_Guitar,6,7,zenigata_nostalgic,0.9988419413566589,1
57,100,0.5409090909090909,210,0,71,Dl_Nostalgic_2_Guitar,6,9,zenigata_nostalgic,0.1372508406639099,0
61,100,0.7,413,0,71,Dl_Nostalgic_2_Guitar,6,11,zenigata_nostalgic,0.1597772091627121,0
62,100,0.2818181818181818,619,0,71,Dl_Nostalgic_2_Guitar,6,5,zenigata_nostalgic,0.1864502876996994,0
62,100,0.1,787,0,71,Dl_Nostalgic_2_Guitar,6,2,zenigata_nostalgic,0.25817185640335083,0
62,100,0.12272727272727273,56,1,72,Dl_Nostalgic_2_Guitar,6,2,zenigata_nostalgic,0.9988419413566589,1
52,100,0.12272727272727273,166,0,72,Dl_Nostalgic_2_Guitar,6,2,zenigata_nostalgic,0.13725197315216064,0
59,100,0.3181818181818182,347,0,72,Dl_Nostalgic_2_Guitar,6,5,zenigata_nostalgic,0.1597827523946762,0
56,100,0.1,483,0,72,Dl_Nostalgic_2_Guitar,6,2,zenigata_nostalgic,0.18645580112934113,0
57,100,0.11818181818181818,656,0,72,Dl_Nostalgic_2_Guitar,6,2,zenigata_nostalgic,0.25817418098449707,0
59,100,0.17727272727272728,216,1,73,Dl_Nostalgic_2_Guitar,6,3,zenigata_nostalgic,0.9986500144004822,1
61,100,0.8772727272727273,260,0,73,Dl_Nostalgic_2_Guitar,6,14,zenigata_nostalgic,0.08780373632907867,0
61,100,0.18181818181818182,466,0,73,Dl_Nostalgic_2_Guitar,6,3,zenigata_nostalgic,0.09181923419237137,0
57,100,0.4818181818181818,553,0,73,Dl_Nostalgic_2_Guitar,6,8,zenigata_nostalgic,0.10748235881328583,0
64,100,0.1409090909090909,703,0,73,Dl_Nostalgic_2_Guitar,6,2,zenigata_nostalgic,0.12483478337526321,0
61,100,0.5590909090909091,743,0,73,Dl_Nostalgic_2_Guitar,6,9,zenigata_nostalgic,0.1790405660867691,0
57,100,0.11818181818181818,119,1,74,Dl_Nostalgic_2_Guitar,6,2,zenigata_nostalgic,0.9986500144004822,1
61,100,0.7181818181818181,163,0,74,Dl_Nostalgic_2_Guitar,6,11,zenigata_nostalgic,0.08780445903539658,0
68,100,0.42272727272727273,343,0,74,Dl_Nostalgic_2_Guitar,6,7,zenigata_nostalgic,0.09181597828865051,0
68,100,0.1,580,1,74,Dl_Nostalgic_2_Guitar,6,2,zenigata_nostalgic,0.10748007893562317,0
59,100,0.2409090909090909,752,0,74,Dl_Nostalgic_2_Guitar,6,4,zenigata_nostalgic,0.1248258575797081,0
57,100,0.3,832,0,74,Dl_Nostalgic_2_Guitar,6,5,zenigata_nostalgic,0.17903128266334534,0
61,100,0.38181818181818183,87,1,75,Dl_Nostalgic_2_Guitar,6,6,zenigata_nostalgic,0.9988419413566589,1
57,100,0.2818181818181818,286,0,75,Dl_Nostalgic_2_Guitar,6,5,zenigata_nostalgic,0.1372469663619995,0
59,100,0.5590909090909091,370,0,75,Dl_Nostalgic_2_Guitar,6,9,zenigata_nostalgic,0.1597795933485031,0
57,100,0.2772727272727273,502,0,75,Dl_Nostalgic_2_Guitar,6,4,zenigata_nostalgic,0.18644684553146362,0
59,100,0.9,677,0,75,Dl_Nostalgic_2_Guitar,6,14,zenigata_nostalgic,0.25817161798477173,0
61,100,1.0636363636363637,3,1,76,Dl_Nostalgic_2_Guitar,6,15,zenigata_nostalgic,0.9986500144004822,1
61,100,0.9409090909090909,276,1,76,Dl_Nostalgic_2_Guitar,6,15,zenigata_nostalgic,0.0878043845295906,0
56,100,0.2590909090909091,493,0,76,Dl_Nostalgic_2_Guitar,6,4,zenigata_nostalgic,0.09181438386440277,0
52,100,0.2,603,0,76,Dl_Nostalgic_2_Guitar,6,3,zenigata_nostalgic,0.10747959464788437,0
52,100,0.11818181818181818,660,0,76,Dl_Nostalgic_2_Guitar,6,2,zenigata_nostalgic,0.12483201920986176,0
56,100,0.6181818181818182,779,0,76,Dl_Nostalgic_2_Guitar,6,10,zenigata_nostalgic,0.17903198301792145,0
61,100,0.7181818181818181,110,1,77,Dl_Nostalgic_2_Guitar,6,11,zenigata_nostalgic,0.9990057349205017,1
61,100,0.4,399,1,77,Dl_Nostalgic_2_Guitar,6,6,zenigata_nostalgic,0.2312079668045044,0
57,100,0.4,493,0,77,Dl_Nostalgic_2_Guitar,6,6,zenigata_nostalgic,0.2659243643283844,0
57,100,0.37727272727272726,656,0,77,Dl_Nostalgic_2_Guitar,6,6,zenigata_nostalgic,0.35420143604278564,0
57,100,0.41818181818181815,184,1,78,Dl_Nostalgic_2_Guitar,6,7,zenigata_nostalgic,0.9990230798721313,1
57,100,0.1409090909090909,440,1,78,Dl_Nostalgic_2_Guitar,6,2,zenigata_nostalgic,0.36662447452545166,0
52,100,0.1,796,1,78,Dl_Nostalgic_2_Guitar,6,2,zenigata_nostalgic,0.4532996416091919,0
59,100,0.16363636363636364,69,1,79,Dl_Nostalgic_2_Guitar,6,3,zenigata_nostalgic,0.9984880685806274,1
56,100,0.38181818181818183,145,0,79,Dl_Nostalgic_2_Guitar,6,6,zenigata_nostalgic,0.06334330886602402,0
61,100,0.759090909090909,263,0,79,Dl_Nostalgic_2_Guitar,6,12,zenigata_nostalgic,0.057740796357393265,0
61,100,0.21818181818181817,436,0,79,Dl_Nostalgic_2_Guitar,6,3,zenigata_nostalgic,0.06020032614469528,0
61,100,0.5409090909090909,506,0,79,Dl_Nostalgic_2_Guitar,6,9,zenigata_nostalgic,0.06969936192035675,0
61,100,0.5181818181818182,633,0,79,Dl_Nostalgic_2_Guitar,6,8,zenigata_nostalgic,0.08189254999160767,0
54,100,0.4818181818181818,747,0,79,Dl_Nostalgic_2_Guitar,6,8,zenigata_nostalgic,0.12401790916919708,0
62,100,0.8,333,1,80,Dl_Nostalgic_2_Guitar,6,13,zenigata_nostalgic,0.9988419413566589,1
62,100,0.5590909090909091,563,0,80,Dl_Nostalgic_2_Guitar,6,9,zenigata_nostalgic,0.13724848628044128,0
59,100,0.1409090909090909,734,0,80,Dl_Nostalgic_2_Guitar,6,2,zenigata_nostalgic,0.15978075563907623,0
59,100,0.1590909090909091,770,0,80,Dl_Nostalgic_2_Guitar,6,3,zenigata_nostalgic,0.18645505607128143,0
68,100,0.4409090909090909,817,0,80,Dl_Nostalgic_2_Guitar,6,7,zenigata_nostalgic,0.2581610381603241,0
68,100,0.41818181818181815,193,1,81,Dl_Nostalgic_2_Guitar,6,7,zenigata_nostalgic,0.9986500144004822,1
64,100,0.2409090909090909,343,0,81,Dl_Nostalgic_2_Guitar,6,4,zenigata_nostalgic,0.08780282735824585,0
61,100,0.2818181818181818,396,0,81,Dl_Nostalgic_2_Guitar,6,5,zenigata_nostalgic,0.09181218594312668,0
61,100,0.33636363636363636,502,0,81,Dl_Nostalgic_2_Guitar,6,5,zenigata_nostalgic,0.10747640579938889,0
57,100,0.11818181818181818,669,0,81,Dl_Nostalgic_2_Guitar,6,2,zenigata_nostalgic,0.12482616305351257,0
57,100,0.41818181818181815,713,0,81,Dl_Nostalgic_2_Guitar,6,7,zenigata_nostalgic,0.17903420329093933,0
57,100,0.2,202,1,82,Dl_Nostalgic_2_Guitar,6,3,zenigata_nostalgic,0.9990229606628418,1
59,100,1.240909090909091,255,0,82,Dl_Nostalgic_2_Guitar,6,15,zenigata_nostalgic,0.36662405729293823,0
73,100,0.1409090909090909,559,1,82,Dl_Nostalgic_2_Guitar,6,2,zenigata_nostalgic,0.4532823860645294,0
54,100,0.2,0,1,21,_Remix_Guitar,6,3,sumimaru_ruriko,0.9990229606628418,1
54,100,0.1,712,1,21,_Remix_Guitar,6,2,sumimaru_ruriko,0.3666228652000427,0
54,100,0.22272727272727272,752,0,21,_Remix_Guitar,6,4,sumimaru_ruriko,0.4532819986343384,0
53,100,0.6,814,1,23,_Remix_Guitar,6,10,sumimaru_ruriko,0.9792556166648865,0
53,100,0.18181818181818182,113,1,24,_Remix_Guitar,6,3,sumimaru_ruriko,0.9990229606628418,1
53,100,0.8,272,0,24,_Remix_Guitar,6,13,sumimaru_ruriko,0.36661723256111145,0
53,100,0.12272727272727273,509,1,24,_Remix_Guitar,6,2,sumimaru_ruriko,0.45329058170318604,0
54,100,0.8818181818181818,113,1,25,_Remix_Guitar,6,14,sumimaru_ruriko,0.9792567491531372,0
54,100,0.1409090909090909,13,1,27,_Remix_Guitar,6,2,sumimaru_ruriko,0.9990057349205017,1
54,100,0.2,347,1,27,_Remix_Guitar,6,3,sumimaru_ruriko,0.23120221495628357,0
54,100,0.17727272727272728,801,1,27,_Remix_Guitar,6,3,sumimaru_ruriko,0.2659187912940979,0
54,100,0.3,849,0,27,_Remix_Guitar,6,5,sumimaru_ruriko,0.3541927933692932,0
54,100,0.2409090909090909,373,1,89,_Remix_Guitar,6,4,sumimaru_ruriko,0.9990057349205017,1
54,100,0.2590909090909091,475,0,89,_Remix_Guitar,6,4,sumimaru_ruriko,0.23120243847370148,0
54,100,0.2818181818181818,663,0,89,_Remix_Guitar,6,5,sumimaru_ruriko,0.26591864228248596,0
54,100,0.2,857,0,89,_Remix_Guitar,6,3,sumimaru_ruriko,0.35419073700904846,0
54,100,0.1590909090909091,184,1,90,_Remix_Guitar,6,3,sumimaru_ruriko,0.9988420605659485,1
54,100,0.3409090909090909,267,0,90,_Remix_Guitar,6,5,sumimaru_ruriko,0.13724473118782043,0
54,100,0.1,392,0,90,_Remix_Guitar,6,2,sumimaru_ruriko,0.15977764129638672,0
54,100,0.21818181818181817,462,0,90,_Remix_Guitar,6,3,sumimaru_ruriko,0.1864490658044815,0
54,100,0.37727272727272726,523,0,90,_Remix_Guitar,6,6,sumimaru_ruriko,0.2581673562526703,0
54,100,0.2,356,1,91,_Remix_Guitar,6,3,sumimaru_ruriko,0.9983165264129639,1
56,100,0.1409090909090909,616,1,91,_Remix_Guitar,6,2,sumimaru_ruriko,0.5445502996444702,0
56,100,0.13636363636363635,216,1,92,_Remix_Guitar,6,2,sumimaru_ruriko,0.9792554974555969,0
53,100,0.2409090909090909,580,1,93,_Remix_Guitar,6,4,sumimaru_ruriko,0.979256272315979,0
54,100,0.11818181818181818,140,1,94,_Remix_Guitar,6,2,sumimaru_ruriko,0.9990057349205017,1
54,100,0.3,466,1,94,_Remix_Guitar,6,5,sumimaru_ruriko,0.2312047779560089,0
55,100,0.1,826,1,94,_Remix_Guitar,6,2,sumimaru_ruriko,0.26591747999191284,0
54,100,0.1590909090909091,870,0,94,_Remix_Guitar,6,3,sumimaru_ruriko,0.35419970750808716,0
56,100,0.1590909090909091,263,1,95,_Remix_Guitar,6,3,sumimaru_ruriko,0.9988419413566589,1
54,100,0.11818181818181818,396,0,95,_Remix_Guitar,6,2,sumimaru_ruriko,0.13724936544895172,0
54,100,0.1409090909090909,716,1,95,_Remix_Guitar,6,2,sumimaru_ruriko,0.1597772091627121,0
54,100,0.1409090909090909,760,0,95,_Remix_Guitar,6,2,sumimaru_ruriko,0.1864500492811203,0
56,100,0.17727272727272728,832,0,95,_Remix_Guitar,6,3,sumimaru_ruriko,0.2581620514392853,0
52,100,0.2409090909090909,528,1,0,DL_Guitar,6,4,DL.   Stems,0.9990229606628418,1
52,100,0.3,660,0,0,DL_Guitar,6,5,DL.   Stems,0.36662060022354126,0
52,100,0.42272727272727273,761,0,0,DL_Guitar,6,7,DL.   Stems,0.45328840613365173,0
64,100,0.16363636363636364,4,1,1,DL_Guitar,6,3,DL.   Stems,0.9792566299438477,0
52,100,0.17727272727272728,229,1,2,DL_Guitar,6,3,DL.   Stems,0.9983165264129639,1
52,100,0.38181818181818183,409,0,2,DL_Guitar,6,6,DL.   Stems,0.5445572137832642,0
56,100,0.2,488,1,3,DL_Guitar,6,3,DL.   Stems,0.9983164072036743,1
56,100,0.1590909090909091,546,0,3,DL_Guitar,6,3,DL.   Stems,0.5445496439933777,0
52,100,0.17727272727272728,184,1,4,DL_Guitar,6,3,DL.   Stems,0.9990230798721313,1
52,100,0.17727272727272728,317,0,4,DL_Guitar,6,3,DL.   Stems,0.36661890149116516,0
52,100,0.1590909090909091,458,0,4,DL_Guitar,6,3,DL.   Stems,0.45329272747039795,0
52,100,0.2772727272727273,700,1,5,DL_Guitar,6,4,DL.   Stems,0.9792568683624268,0
64,100,0.2,757,1,6,DL_Guitar,6,3,DL.   Stems,0.9983165264129639,1
64,100,0.12272727272727273,839,0,6,DL_Guitar,6,2,DL.   Stems,0.5445568561553955,0
57,100,0.13636363636363635,238,1,7,DL_Guitar,6,2,DL.   Stems,0.9990229606628418,1
52,100,0.12272727272727273,629,1,7,DL_Guitar,6,2,DL.   Stems,0.3666236102581024,0
52,100,0.17727272727272728,757,0,7,DL_Guitar,6,3,DL.   Stems,0.45328792929649353,0
64,100,0.1,8,1,8,DL_Guitar,6,2,DL.   Stems,0.9983736276626587,1
52,100,0.1,92,0,8,DL_Guitar,6,2,DL.   Stems,0.051061686128377914,0
52,100,0.2772727272727273,127,0,8,DL_Guitar,6,4,DL.   Stems,0.041303303092718124,0
52,100,0.11818181818181818,237,0,8,DL_Guitar,6,2,DL.   Stems,0.03738837316632271,0
57,100,0.2590909090909091,285,0,8,DL_Guitar,6,4,DL.   Stems,0.038331903517246246,0
57,100,1.0,369,0,8,DL_Guitar,6,15,DL.   Stems,0.044754527509212494,0
52,100,0.2,708,1,8,DL_Guitar,6,3,DL.   Stems,0.05523389205336571,0
52,100,0.2590909090909091,857,0,8,DL_Guitar,6,4,DL.   Stems,0.09026940166950226,0
57,100,0.1590909090909091,34,1,9,DL_Guitar,6,3,DL.   Stems,0.9983165264129639,1
56,100,0.2590909090909091,835,1,9,DL_Guitar,6,4,DL.   Stems,0.5445548892021179,0
52,100,0.2,48,1,10,DL_Guitar,6,3,DL.   Stems,0.9988419413566589,1
52,100,0.1,118,0,10,DL_Guitar,6,2,DL.   Stems,0.13724753260612488,0
52,100,0.1,144,0,10,DL_Guitar,6,2,DL.   Stems,0.15978172421455383,0
54,100,0.1,330,0,10,DL_Guitar,6,2,DL.   Stems,0.18645204603672028,0
54,100,0.1590909090909091,854,1,10,DL_Guitar,6,3,DL.   Stems,0.25817546248435974,0
54,100,0.2,30,1,11,DL_Guitar,6,3,DL.   Stems,0.9983165264129639,1
64,100,0.1,770,1,11,DL_Guitar,6,2,DL.   Stems,0.5445582270622253,0
52,100,0.22272727272727272,826,1,12,DL_Guitar,6,4,DL.   Stems,0.9792565107345581,0
52,100,0.5,598,1,13,DL_Guitar,6,8,DL.   Stems,0.9990230798721313,1
52,100,0.42272727272727273,730,0,13,DL_Guitar,6,7,DL.   Stems,0.36662063002586365,0
52,100,0.18181818181818182,835,0,13,DL_Guitar,6,3,DL.   Stems,0.45329517126083374,0
52,100,0.21818181818181817,22,1,14,DL_Guitar,6,3,DL.   Stems,0.9983165264129639,1
64,100,0.1409090909090909,835,1,14,DL_Guitar,6,2,DL.   Stems,0.5445588231086731,0
71,100,0.12272727272727273,233,1,15,DL_Guitar,6,2,DL.   Stems,0.9990230798721313,1
54,100,0.13636363636363635,766,1,15,DL_Guitar,6,2,DL.   Stems,0.3666233718395233,0
54,100,0.11818181818181818,809,0,15,DL_Guitar,6,2,DL.   Stems,0.45329418778419495,0
56,100,0.2,663,1,17,DL_Guitar,6,3,DL.   Stems,0.979255735874176,0
60,100,0.37727272727272726,96,1,19,DL_Guitar,6,6,DL.   Stems,0.9792565107345581,0
66,100,0.2772727272727273,40,1,20,DL_Guitar,6,4,DL.   Stems,0.9988420605659485,1
54,100,0.4409090909090909,140,0,20,DL_Guitar,6,7,DL.   Stems,0.1372496783733368,0
54,100,0.4,272,0,20,DL_Guitar,6,6,DL.   Stems,0.15978071093559265,0
56,100,0.2818181818181818,550,1,20,DL_Guitar,6,5,DL.   Stems,0.18644708395004272,0
56,100,0.37727272727272726,756,0,20,DL_Guitar,6,6,DL.   Stems,0.25816547870635986,0
52,100,0.16363636363636364,3,1,21,DL_Guitar,6,3,DL.   Stems,0.9983003735542297,1
59,100,0.1,241,1,21,DL_Guitar,6,2,DL.   Stems,0.044664815068244934,0
52,100,0.3,339,0,21,DL_Guitar,6,5,DL.   Stems,0.03315087407827377,0
57,100,0.17727272727272728,413,0,21,DL_Guitar,6,3,DL.   Stems,0.02658059261739254,0
52,100,0.3,453,0,21,DL_Guitar,6,5,DL.   Stems,0.023596372455358505,0
52,100,0.21818181818181817,523,0,21,DL_Guitar,6,3,DL.   Stems,0.024315841495990753,0
52,100,0.11818181818181818,712,0,21,DL_Guitar,6,2,DL.   Stems,0.029691584408283234,0
64,100,0.2,787,0,21,DL_Guitar,6,3,DL.   Stems,0.04007875546813011,0
52,100,0.13636363636363635,831,0,21,DL_Guitar,6,2,DL.   Stems,0.0709303691983223,0
52,100,0.21818181818181817,0,1,22,DL_Guitar,6,3,DL.   Stems,0.9988419413566589,1
52,100,0.1,52,0,22,DL_Guitar,6,2,DL.   Stems,0.13725069165229797,0
57,100,0.17727272727272728,75,0,22,DL_Guitar,6,3,DL.   Stems,0.1597832441329956,0
57,100,0.38181818181818183,175,0,22,DL_Guitar,6,6,DL.   Stems,0.18645614385604858,0
57,100,0.1,567,1,22,DL_Guitar,6,2,DL.   Stems,0.2581753730773926,0
54,100,0.1409090909090909,308,1,23,DL_Guitar,6,2,DL.   Stems,0.9983165264129639,1
54,100,0.1409090909090909,550,1,23,DL_Guitar,6,2,DL.   Stems,0.5445547699928284,0
59,100,0.16363636363636364,466,1,24,DL_Guitar,6,3,DL.   Stems,0.9990230798721313,1
54,100,0.1409090909090909,571,0,24,DL_Guitar,6,2,DL.   Stems,0.3666200339794159,0
55,100,0.1409090909090909,691,0,24,DL_Guitar,6,2,DL.   Stems,0.45329126715660095,0
64,100,0.3,167,1,25,DL_Guitar,6,5,DL.   Stems,0.9990229606628418,1
52,100,0.22272727272727272,320,0,25,DL_Guitar,6,4,DL.   Stems,0.3666301667690277,0
59,100,0.11818181818181818,831,1,25,DL_Guitar,6,2,DL.   Stems,0.45328983664512634,0
52,100,0.22272727272727272,57,1,26,DL_Guitar,6,4,DL.   Stems,0.9983165264129639,1
52,100,0.6,206,0,26,DL_Guitar,6,10,DL.   Stems,0.5445593595504761,0
52,100,0.16363636363636364,3,1,27,DL_Guitar,6,3,DL.   Stems,0.9990057349205017,1
52,100,0.2636363636363636,48,0,27,DL_Guitar,6,4,DL.   Stems,0.23119884729385376,0
59,100,0.2636363636363636,223,0,27,DL_Guitar,6,4,DL.   Stems,0.26591747999191284,0
52,100,0.12272727272727273,299,0,27,DL_Guitar,6,2,DL.   Stems,0.3541998863220215,0
56,100,0.1409090909090909,246,1,29,DL_Guitar,6,2,DL.   Stems,0.9983165264129639,1
52,100,0.2409090909090909,607,1,29,DL_Guitar,6,4,DL.   Stems,0.544559121131897,0
62,100,0.32272727272727275,752,1,30,DL_Guitar,6,5,DL.   Stems,0.9792551398277283,0
54,100,0.2,215,1,32,DL_Guitar,6,3,DL.   Stems,0.9792566299438477,0
66,100,0.1409090909090909,311,1,33,DL_Guitar,6,2,DL.   Stems,0.9990230798721313,1
66,100,0.22272727272727272,488,0,33,DL_Guitar,6,4,DL.   Stems,0.36661747097969055,0
54,100,0.1,801,1,33,DL_Guitar,6,2,DL.   Stems,0.4532870352268219,0
52,100,0.18181818181818182,69,1,34,DL_Guitar,6,3,DL.   Stems,0.9986500144004822,1
64,100,0.2590909090909091,123,0,34,DL_Guitar,6,4,DL.   Stems,0.08780614286661148,0
59,100,0.12272727272727273,254,0,34,DL_Guitar,6,2,DL.   Stems,0.09181994944810867,0
59,100,0.2,373,0,34,DL_Guitar,6,3,DL.   Stems,0.10748462378978729,0
52,100,0.22272727272727272,716,1,34,DL_Guitar,6,4,DL.   Stems,0.12483160197734833,0
56,100,0.1590909090909091,831,0,34,DL_Guitar,6,3,DL.   Stems,0.1790378987789154,0
52,100,0.1590909090909091,13,1,35,DL_Guitar,6,3,DL.   Stems,0.9983736276626587,1
64,100,0.11818181818181818,105,0,35,DL_Guitar,6,2,DL.   Stems,0.0510605052113533,0
52,100,0.11818181818181818,150,0,35,DL_Guitar,6,2,DL.   Stems,0.04130396246910095,0
52,100,0.22272727272727272,378,0,35,DL_Guitar,6,4,DL.   Stems,0.03738626837730408,0
57,100,0.21818181818181817,483,0,35,DL_Guitar,6,3,DL.   Stems,0.03833014890551567,0
52,100,0.1409090909090909,584,0,35,DL_Guitar,6,2,DL.   Stems,0.044753119349479675,0
64,100,0.1,655,0,35,DL_Guitar,6,2,DL.   Stems,0.055229831486940384,0
52,100,0.21818181818181817,735,0,35,DL_Guitar,6,3,DL.   Stems,0.09026698023080826,0
52,100,0.2590909090909091,56,1,36,DL_Guitar,6,4,DL.   Stems,0.9986500144004822,1
64,100,0.1409090909090909,251,0,36,DL_Guitar,6,2,DL.   Stems,0.08780209720134735,0
64,100,0.2818181818181818,576,1,36,DL_Guitar,6,5,DL.   Stems,0.09181410074234009,0
61,100,0.21818181818181817,660,0,36,DL_Guitar,6,3,DL.   Stems,0.10747645795345306,0
61,100,0.1,716,0,36,DL_Guitar,6,2,DL.   Stems,0.12482408434152603,0
64,100,0.32272727272727275,738,0,36,DL_Guitar,6,5,DL.   Stems,0.17903967201709747,0
64,100,0.18181818181818182,34,1,37,DL_Guitar,6,3,DL.   Stems,0.9983165264129639,1
64,100,0.1,105,0,37,DL_Guitar,6,2,DL.   Stems,0.544557511806488,0
54,100,0.13636363636363635,193,1,38,DL_Guitar,6,2,DL.   Stems,0.9990057349205017,1
52,100,0.12272727272727273,311,0,38,DL_Guitar,6,2,DL.   Stems,0.23120222985744476,0
64,100,0.1590909090909091,735,1,38,DL_Guitar,6,3,DL.   Stems,0.26591959595680237,0
61,100,0.12272727272727273,861,0,38,DL_Guitar,6,2,DL.   Stems,0.35419902205467224,0
61,100,0.3181818181818182,110,1,39,DL_Guitar,6,5,DL.   Stems,0.9983164072036743,1
56,100,0.1590909090909091,351,1,39,DL_Guitar,6,3,DL.   Stems,0.5445550680160522,0
64,100,0.12272727272727273,91,1,40,DL_Guitar,6,2,DL.   Stems,0.9983165264129639,1
52,100,0.13636363636363635,150,0,40,DL_Guitar,6,2,DL.   Stems,0.5445646047592163,0
54,100,0.5,220,1,41,DL_Guitar,6,8,DL.   Stems,0.9983165264129639,1
54,100,0.1409090909090909,418,0,41,DL_Guitar,6,2,DL.   Stems,0.544558048248291,0
66,100,0.12272727272727273,4,1,42,DL_Guitar,6,2,DL.   Stems,0.9990230798721313,1
59,100,0.13636363636363635,171,0,42,DL_Guitar,6,2,DL.   Stems,0.36662450432777405,0
54,100,0.5772727272727273,391,0,42,DL_Guitar,6,9,DL.   Stems,0.453286349773407,0
52,100,0.2590909090909091,171,1,43,DL_Guitar,6,4,DL.   Stems,0.9990057349205017,1
52,100,0.2,260,0,43,DL_Guitar,6,3,DL.   Stems,0.2312064915895462,0
52,100,0.4772727272727273,480,0,43,DL_Guitar,6,8,DL.   Stems,0.26592567563056946,0
52,100,0.3409090909090909,593,0,43,DL_Guitar,6,5,DL.   Stems,0.354204386472702,0
62,100,0.9181818181818182,31,1,44,DL_Guitar,6,15,DL.   Stems,0.9990229606628418,1
61,100,0.1590909090909091,448,1,44,DL_Guitar,6,3,DL.   Stems,0.3666245937347412,0
64,100,0.5590909090909091,493,0,44,DL_Guitar,6,9,DL.   Stems,0.4532991349697113,0
54,100,0.4409090909090909,26,1,45,DL_Guitar,6,7,DL.   Stems,0.9988419413566589,1
54,100,0.2,131,0,45,DL_Guitar,6,3,DL.   Stems,0.13724666833877563,0
52,100,0.13636363636363635,545,1,45,DL_Guitar,6,2,DL.   Stems,0.1597728729248047,0
59,100,0.12272727272727273,651,0,45,DL_Guitar,6,2,DL.   Stems,0.18644429743289948,0
52,100,0.33636363636363636,721,0,45,DL_Guitar,6,5,DL.   Stems,0.25816184282302856,0
54,100,0.2818181818181818,211,1,46,DL_Guitar,6,5,DL.   Stems,0.9990057349205017,1
52,100,0.1409090909090909,571,1,46,DL_Guitar,6,2,DL.   Stems,0.23120419681072235,0
52,100,0.1409090909090909,756,0,46,DL_Guitar,6,2,DL.   Stems,0.2659277319908142,0
52,100,0.11818181818181818,875,0,46,DL_Guitar,6,2,DL.   Stems,0.3542022109031677,0
57,100,0.2772727272727273,40,1,47,DL_Guitar,6,4,DL.   Stems,0.9990057349205017,1
52,100,0.2,101,0,47,DL_Guitar,6,3,DL.   Stems,0.23120276629924774,0
52,100,0.11818181818181818,523,1,47,DL_Guitar,6,2,DL.   Stems,0.26591938734054565,0
52,100,0.2590909090909091,584,0,47,DL_Guitar,6,4,DL.   Stems,0.354207843542099,0
52,100,0.42272727272727273,26,1,48,DL_Guitar,6,7,DL.   Stems,0.9983165264129639,1
57,100,0.1,361,1,48,DL_Guitar,6,2,DL.   Stems,0.5445581078529358,0
59,100,0.2772727272727273,251,1,49,DL_Guitar,6,4,DL.   Stems,0.9988419413566589,1
52,100,0.1,545,1,49,DL_Guitar,6,2,DL.   Stems,0.1372470259666443,0
56,100,0.11818181818181818,721,0,49,DL_Guitar,6,2,DL.   Stems,0.1597745716571808,0
52,100,0.2,804,0,49,DL_Guitar,6,3,DL.   Stems,0.18644551932811737,0
52,100,0.11818181818181818,866,0,49,DL_Guitar,6,2,DL.   Stems,0.25816720724105835,0
52,100,0.1409090909090909,69,1,50,DL_Guitar,6,2,DL.   Stems,0.9988419413566589,1
64,100,0.12272727272727273,123,0,50,DL_Guitar,6,2,DL.   Stems,0.13724938035011292,0
52,100,0.1,166,0,50,DL_Guitar,6,2,DL.   Stems,0.15978239476680756,0
56,100,0.1590909090909091,506,1,50,DL_Guitar,6,3,DL.   Stems,0.1864502876996994,0
56,100,0.12272727272727273,554,0,50,DL_Guitar,6,2,DL.   Stems,0.258164644241333,0
54,100,0.6,136,1,52,DL_Guitar,6,10,DL.   Stems,0.9986500144004822,1
57,100,0.3,325,0,52,DL_Guitar,6,5,DL.   Stems,0.08780182152986526,0
59,100,0.1590909090909091,515,0,52,DL_Guitar,6,3,DL.   Stems,0.09181521087884903,0
59,100,0.1590909090909091,568,0,52,DL_Guitar,6,3,DL.   Stems,0.10747817903757095,0
54,100,0.4590909090909091,703,0,52,DL_Guitar,6,7,DL.   Stems,0.12482473999261856,0
54,100,0.3409090909090909,826,0,52,DL_Guitar,6,5,DL.   Stems,0.17903384566307068,0
54,100,0.18181818181818182,408,1,53,DL_Guitar,6,3,DL.   Stems,0.9990057349205017,1
61,100,0.22272727272727272,651,1,53,DL_Guitar,6,4,DL.   Stems,0.2311956286430359,0
61,100,0.1590909090909091,721,0,53,DL_Guitar,6,3,DL.   Stems,0.26591432094573975,0
61,100,0.1,765,0,53,DL_Guitar,6,2,DL.   Stems,0.3541889488697052,0
59,100,0.2,0,1,54,DL_Guitar,6,3,DL.   Stems,0.9990229606628418,1
61,100,0.4,206,0,54,DL_Guitar,6,6,DL.   Stems,0.3666212856769562,0
57,100,0.17727272727272728,743,1,54,DL_Guitar,6,3,DL.   Stems,0.4532943367958069,0
57,100,0.1,215,1,55,DL_Guitar,6,2,DL.   Stems,0.9990229606628418,1
52,100,0.5,678,1,55,DL_Guitar,6,8,DL.   Stems,0.36662426590919495,0
52,100,0.6181818181818182,791,0,55,DL_Guitar,6,10,DL.   Stems,0.4532927870750427,0
52,100,0.18181818181818182,136,1,56,DL_Guitar,6,3,DL.   Stems,0.9984880685806274,1
64,100,0.16363636363636364,179,0,56,DL_Guitar,6,3,DL.   Stems,0.06334656476974487,0
52,100,0.6363636363636364,391,0,56,DL_Guitar,6,10,DL.   Stems,0.05774224177002907,0
52,100,0.11818181818181818,568,0,56,DL_Guitar,6,2,DL.   Stems,0.06020351126790047,0
52,100,0.16363636363636364,598,0,56,DL_Guitar,6,3,DL.   Stems,0.06970510631799698,0
52,100,0.5590909090909091,700,0,56,DL_Guitar,6,9,DL.   Stems,0.08189787715673447,0
52,100,0.5818181818181818,839,0,56,DL_Guitar,6,9,DL.   Stems,0.12402625381946564,0
52,100,1.059090909090909,286,1,57,DL_Guitar,6,15,DL.   Stems,0.9990229606628418,1
52,100,0.4409090909090909,541,1,57,DL_Guitar,6,7,DL.   Stems,0.36662182211875916,0
52,100,0.18181818181818182,770,0,57,DL_Guitar,6,3,DL.   Stems,0.4532972276210785,0
52,100,0.12272727272727273,114,1,58,DL_Guitar,6,2,DL.   Stems,0.9990229606628418,1
52,100,0.2,603,1,58,DL_Guitar,6,3,DL.   Stems,0.3666236102581024,0
52,100,0.3,678,0,58,DL_Guitar,6,5,DL.   Stems,0.4532991945743561,0
52,100,0.11818181818181818,523,1,59,DL_Guitar,6,2,DL.   Stems,0.9983165264129639,1
56,100,0.22272727272727272,606,0,59,DL_Guitar,6,4,DL.   Stems,0.5445583462715149,0
57,100,0.3,185,1,60,DL_Guitar,6,5,DL.   Stems,0.9988419413566589,1
52,100,0.18181818181818182,444,1,60,DL_Guitar,6,3,DL.   Stems,0.13724815845489502,0
52,100,0.18181818181818182,488,0,60,DL_Guitar,6,3,DL.   Stems,0.15977723896503448,0
52,100,0.4590909090909091,660,0,60,DL_Guitar,6,7,DL.   Stems,0.18644867837429047,0
52,100,0.11818181818181818,810,0,60,DL_Guitar,6,2,DL.   Stems,0.25817134976387024,0
52,100,0.2,176,1,61,DL_Guitar,6,3,DL.   Stems,0.9988419413566589,1
52,100,0.37727272727272726,361,0,61,DL_Guitar,6,6,DL.   Stems,0.1372484266757965,0
52,100,0.2590909090909091,458,0,61,DL_Guitar,6,4,DL.   Stems,0.15978145599365234,0
64,100,0.42272727272727273,563,0,61,DL_Guitar,6,7,DL.   Stems,0.18645022809505463,0
52,100,0.11818181818181818,655,0,61,DL_Guitar,6,2,DL.   Stems,0.2581731379032135,0
64,100,0.2409090909090909,603,1,62,DL_Guitar,6,4,DL.   Stems,0.9990229606628418,1
64,100,0.11818181818181818,660,0,62,DL_Guitar,6,2,DL.   Stems,0.3666203022003174,0
52,100,0.18181818181818182,751,0,62,DL_Guitar,6,3,DL.   Stems,0.45329105854034424,0
52,100,0.11818181818181818,75,1,63,DL_Guitar,6,2,DL.   Stems,0.9990229606628418,1
57,100,0.3409090909090909,246,0,63,DL_Guitar,6,5,DL.   Stems,0.36662688851356506,0
56,100,0.1590909090909091,673,1,63,DL_Guitar,6,3,DL.   Stems,0.4532921314239502,0
54,100,0.21818181818181817,260,1,64,DL_Guitar,6,3,DL.   Stems,0.9988419413566589,1
66,100,0.1409090909090909,462,0,64,DL_Guitar,6,2,DL.   Stems,0.13724888861179352,0
54,100,0.4,563,0,64,DL_Guitar,6,6,DL.   Stems,0.15977071225643158,0
66,100,0.2409090909090909,695,0,64,DL_Guitar,6,4,DL.   Stems,0.18644776940345764,0
54,100,0.1409090909090909,756,0,64,DL_Guitar,6,2,DL.   Stems,0.2581600844860077,0
52,100,0.1,373,1,65,DL_Guitar,6,2,DL.   Stems,0.9983165264129639,1
52,100,0.3181818181818182,770,1,65,DL_Guitar,6,5,DL.   Stems,0.5445555448532104,0
52,100,0.16363636363636364,92,1,66,DL_Guitar,6,3,DL.   Stems,0.9984880685806274,1
52,100,0.2772727272727273,184,0,66,DL_Guitar,6,4,DL.   Stems,0.06334632635116577,0
52,100,0.2409090909090909,273,0,66,DL_Guitar,6,4,DL.   Stems,0.05774284526705742,0
52,100,0.2409090909090909,356,0,66,DL_Guitar,6,4,DL.   Stems,0.06020325422286987,0
52,100,0.13636363636363635,413,0,66,DL_Guitar,6,2,DL.   Stems,0.06970439851284027,0
64,100,0.12272727272727273,509,0,66,DL_Guitar,6,2,DL.   Stems,0.08189617097377777,0
54,100,0.3409090909090909,576,0,66,DL_Guitar,6,5,DL.   Stems,0.12402516603469849,0
52,100,0.3409090909090909,563,1,67,DL_Guitar,6,5,DL.   Stems,0.9990230798721313,1
52,100,0.2818181818181818,686,0,67,DL_Guitar,6,5,DL.   Stems,0.36662179231643677,0
52,100,0.4590909090909091,766,0,67,DL_Guitar,6,7,DL.   Stems,0.45329704880714417,0
59,100,0.18181818181818182,79,1,68,DL_Guitar,6,3,DL.   Stems,0.9983165264129639,1
52,100,0.17727272727272728,523,1,68,DL_Guitar,6,3,DL.   Stems,0.5445558428764343,0
56,100,0.11818181818181818,74,1,69,DL_Guitar,6,2,DL.   Stems,0.9990057349205017,1
59,100,0.4590909090909091,189,0,69,DL_Guitar,6,7,DL.   Stems,0.2312099039554596,0
56,100,0.4409090909090909,430,1,69,DL_Guitar,6,7,DL.   Stems,0.2659178376197815,0
52,100,0.13636363636363635,612,0,69,DL_Guitar,6,2,DL.   Stems,0.35420292615890503,0
52,100,0.1409090909090909,35,1,70,DL_Guitar,6,2,DL.   Stems,0.9990057349205017,1
54,100,0.3,140,0,70,DL_Guitar,6,5,DL.   Stems,0.23120549321174622,0
54,100,0.2409090909090909,399,1,70,DL_Guitar,6,4,DL.   Stems,0.2659236192703247,0
54,100,1.3409090909090908,747,1,70,DL_Guitar,6,15,DL.   Stems,0.3541868031024933,0
54,100,0.2409090909090909,220,1,71,DL_Guitar,6,4,DL.   Stems,0.9988419413566589,1
54,100,0.18181818181818182,286,0,71,DL_Guitar,6,3,DL.   Stems,0.1372470259666443,0
54,100,0.1,453,0,71,DL_Guitar,6,2,DL.   Stems,0.15977440774440765,0
54,100,0.1590909090909091,580,0,71,DL_Guitar,6,3,DL.   Stems,0.18644528090953827,0
61,100,0.1,796,0,71,DL_Guitar,6,2,DL.   Stems,0.25816115736961365,0
61,100,0.42272727272727273,540,1,72,DL_Guitar,6,7,DL.   Stems,0.9792552590370178,0
57,100,0.21818181818181817,242,1,73,DL_Guitar,6,3,DL.   Stems,0.9792565107345581,0
52,100,0.11818181818181818,66,1,74,DL_Guitar,6,2,DL.   Stems,0.9983736276626587,1
52,100,0.2772727272727273,150,0,74,DL_Guitar,6,4,DL.   Stems,0.05106196179986,0
52,100,0.12272727272727273,289,0,74,DL_Guitar,6,2,DL.   Stems,0.041303735226392746,0
64,100,0.1409090909090909,320,0,74,DL_Guitar,6,2,DL.   Stems,0.03738803789019585,0
52,100,0.12272727272727273,386,0,74,DL_Guitar,6,2,DL.   Stems,0.03833135962486267,0
64,100,0.13636363636363635,413,0,74,DL_Guitar,6,2,DL.   Stems,0.04475344717502594,0
52,100,0.1409090909090909,603,0,74,DL_Guitar,6,2,DL.   Stems,0.05523023381829262,0
52,100,0.2590909090909091,787,0,74,DL_Guitar,6,4,DL.   Stems,0.09026967734098434,0
52,100,0.2590909090909091,79,1,75,DL_Guitar,6,4,DL.   Stems,0.9984880685806274,1
52,100,0.11818181818181818,184,0,75,DL_Guitar,6,2,DL.   Stems,0.06334619969129562,0
52,100,0.1,223,0,75,DL_Guitar,6,2,DL.   Stems,0.05774209648370743,0
52,100,0.12272727272727273,267,0,75,DL_Guitar,6,2,DL.   Stems,0.060202986001968384,0
64,100,0.11818181818181818,316,0,75,DL_Guitar,6,2,DL.   Stems,0.06970540434122086,0
52,100,0.2818181818181818,409,0,75,DL_Guitar,6,5,DL.   Stems,0.08189685642719269,0
52,100,0.22272727272727272,540,0,75,DL_Guitar,6,4,DL.   Stems,0.12402746081352234,0
52,100,0.3409090909090909,462,1,76,DL_Guitar,6,5,DL.   Stems,0.9990229606628418,1
52,100,0.12272727272727273,650,0,76,DL_Guitar,6,2,DL.   Stems,0.3666199743747711,0
53,100,0.1,677,0,76,DL_Guitar,6,2,DL.   Stems,0.4532908797264099,0
64,100,0.1,576,1,77,DL_Guitar,6,2,DL.   Stems,0.9792571067810059,1
54,100,0.2,360,1,78,DL_Guitar,6,3,DL.   Stems,0.9792565107345581,0
54,100,0.3,443,1,79,DL_Guitar,6,5,DL.   Stems,0.9983165264129639,1
54,100,0.3409090909090909,682,1,79,DL_Guitar,6,5,DL.   Stems,0.5445559024810791,0
69,100,0.2590909090909091,22,1,80,DL_Guitar,6,4,DL.   Stems,0.9990057349205017,1
54,100,0.12272727272727273,166,0,80,DL_Guitar,6,2,DL.   Stems,0.23120218515396118,0
54,100,0.4590909090909091,519,1,80,DL_Guitar,6,7,DL.   Stems,0.26591557264328003,0
54,100,0.1,633,0,80,DL_Guitar,6,2,DL.   Stems,0.3541928827762604,0
52,100,0.2,106,1,81,DL_Guitar,6,3,DL.   Stems,0.9990057349205017,1
56,100,0.2590909090909091,220,0,81,DL_Guitar,6,4,DL.   Stems,0.23120257258415222,0
52,100,0.8818181818181818,333,0,81,DL_Guitar,6,14,DL.   Stems,0.2659209072589874,0
61,100,0.2590909090909091,760,1,81,DL_Guitar,6,4,DL.   Stems,0.3541962504386902,0
57,100,0.1409090909090909,136,1,82,DL_Guitar,6,2,DL.   Stems,0.9983003735542297,1
61,100,0.18181818181818182,246,0,82,DL_Guitar,6,3,DL.   Stems,0.04466564580798149,0
61,100,0.2772727272727273,347,0,82,DL_Guitar,6,4,DL.   Stems,0.03315113112330437,0
54,100,0.1409090909090909,553,0,82,DL_Guitar,6,2,DL.   Stems,0.026582002639770508,0
54,100,0.3,646,0,82,DL_Guitar,6,5,DL.   Stems,0.02359624207019806,0
54,100,0.1590909090909091,716,0,82,DL_Guitar,6,3,DL.   Stems,0.024316463619470596,0
57,100,0.18181818181818182,752,0,82,DL_Guitar,6,3,DL.   Stems,0.029690561816096306,0
62,100,0.1,826,0,82,DL_Guitar,6,2,DL.   Stems,0.040078457444906235,0
62,100,0.1,853,0,82,DL_Guitar,6,2,DL.   Stems,0.07093165814876556,0
54,100,0.32272727272727275,136,1,83,DL_Guitar,6,5,DL.   Stems,0.9990229606628418,1
57,100,0.4,233,0,83,DL_Guitar,6,6,DL.   Stems,0.36662203073501587,0
52,100,0.1,839,1,83,DL_Guitar,6,2,DL.   Stems,0.45329752564430237,0
52,100,0.43636363636363634,83,1,84,DL_Guitar,6,7,DL.   Stems,0.9988419413566589,1
59,100,0.1409090909090909,210,0,84,DL_Guitar,6,2,DL.   Stems,0.13724663853645325,0
64,100,0.1590909090909091,713,1,84,DL_Guitar,6,3,DL.   Stems,0.15977641940116882,0
54,100,0.1,787,0,84,DL_Guitar,6,2,DL.   Stems,0.18644998967647552,0
63,100,0.1409090909090909,836,0,84,DL_Guitar,6,2,DL.   Stems,0.25816524028778076,0
63,100,0.1,26,1,85,DL_Guitar,6,2,DL.   Stems,0.9986500144004822,1
54,100,0.1,87,0,85,DL_Guitar,6,2,DL.   Stems,0.08780575543642044,0
54,100,0.2409090909090909,163,0,85,DL_Guitar,6,4,DL.   Stems,0.09181469678878784,0
66,100,0.11818181818181818,242,0,85,DL_Guitar,6,2,DL.   Stems,0.10747906565666199,0
54,100,0.1409090909090909,299,0,85,DL_Guitar,6,2,DL.   Stems,0.12482614070177078,0
54,100,0.2,729,1,85,DL_Guitar,6,3,DL.   Stems,0.17903734743595123,0
63,100,0.2818181818181818,35,1,86,DL_Guitar,6,5,DL.   Stems,0.9986500144004822,1
63,100,0.23636363636363636,106,0,86,DL_Guitar,6,4,DL.   Stems,0.08780399709939957,0
59,100,0.1409090909090909,267,0,86,DL_Guitar,6,2,DL.   Stems,0.09181636571884155,0
66,100,0.1,619,1,86,DL_Guitar,6,2,DL.   Stems,0.10748380422592163,0
54,100,0.3,690,0,86,DL_Guitar,6,5,DL.   Stems,0.12482928484678268,0
66,100,0.18181818181818182,770,0,86,DL_Guitar,6,3,DL.   Stems,0.1790420114994049,0
52,100,0.4590909090909091,163,1,87,DL_Guitar,6,7,DL.   Stems,0.9983165264129639,1
52,100,0.1409090909090909,470,1,87,DL_Guitar,6,2,DL.   Stems,0.5445607900619507,0
61,100,0.12272727272727273,26,1,88,DL_Guitar,6,2,DL.   Stems,0.9983164072036743,1
66,100,0.1590909090909091,506,1,88,DL_Guitar,6,3,DL.   Stems,0.5445616841316223,0
54,100,0.21818181818181817,30,1,89,DL_Guitar,6,3,DL.   Stems,0.9984880685806274,1
64,100,0.11818181818181818,176,0,89,DL_Guitar,6,2,DL.   Stems,0.0633457601070404,0
64,100,0.21818181818181817,237,0,89,DL_Guitar,6,3,DL.   Stems,0.05774424597620964,0
64,100,0.11818181818181818,330,0,89,DL_Guitar,6,2,DL.   Stems,0.06020519882440567,0
52,100,0.5590909090909091,417,0,89,DL_Guitar,6,9,DL.   Stems,0.06970610469579697,0
64,100,0.1,593,0,89,DL_Guitar,6,2,DL.   Stems,0.0819004476070404,0
54,100,0.2,857,1,89,DL_Guitar,6,3,DL.   Stems,0.12402930855751038,0
63,100,0.2409090909090909,307,1,90,DL_Guitar,6,4,DL.   Stems,0.9990229606628418,1
63,100,0.37727272727272726,404,0,90,DL_Guitar,6,6,DL.   Stems,0.36662137508392334,0
59,100,0.3181818181818182,726,1,90,DL_Guitar,6,5,DL.   Stems,0.45329052209854126,0
63,100,0.1,233,1,91,DL_Guitar,6,2,DL.   Stems,0.9983736276626587,1
54,100,0.1,276,0,91,DL_Guitar,6,2,DL.   Stems,0.05106278508901596,0
64,100,0.2818181818181818,333,0,91,DL_Guitar,6,5,DL.   Stems,0.04130333662033081,0
64,100,0.12272727272727273,443,0,91,DL_Guitar,6,2,DL.   Stems,0.03738805279135704,0
52,100,0.2590909090909091,502,0,91,DL_Guitar,6,4,DL.   Stems,0.038330428302288055,0
52,100,0.2409090909090909,572,0,91,DL_Guitar,6,4,DL.   Stems,0.04475422203540802,0
52,100,0.21818181818181817,747,0,91,DL_Guitar,6,3,DL.   Stems,0.05523217096924782,0
52,100,0.2,870,0,91,DL_Guitar,6,3,DL.   Stems,0.09027040004730225,0
64,100,0.1409090909090909,206,1,92,DL_Guitar,6,2,DL.   Stems,0.9988419413566589,1
59,100,0.1590909090909091,276,0,92,DL_Guitar,6,3,DL.   Stems,0.13724848628044128,0
54,100,0.3181818181818182,436,0,92,DL_Guitar,6,5,DL.   Stems,0.1597784012556076,0
54,100,0.2409090909090909,572,0,92,DL_Guitar,6,4,DL.   Stems,0.18644742667675018,0
52,100,0.5,700,0,92,DL_Guitar,6,8,DL.   Stems,0.2581688463687897,0
54,100,0.2636363636363636,47,1,93,DL_Guitar,6,4,DL.   Stems,0.9983165264129639,1
54,100,0.18181818181818182,132,0,93,DL_Guitar,6,3,DL.   Stems,0.5445584654808044,0
54,100,0.1409090909090909,110,1,94,DL_Guitar,6,2,DL.   Stems,0.9990058541297913,1
54,100,0.41818181818181815,307,0,94,DL_Guitar,6,7,DL.   Stems,0.2312002182006836,0
63,100,0.11818181818181818,612,1,94,DL_Guitar,6,2,DL.   Stems,0.26591360569000244,0
59,100,0.42272727272727273,796,0,94,DL_Guitar,6,7,DL.   Stems,0.354191392660141,0
63,100,0.1590909090909091,206,1,95,DL_Guitar,6,3,DL.   Stems,0.9986500144004822,1
54,100,0.23636363636363636,392,0,95,DL_Guitar,6,4,DL.   Stems,0.08780542016029358,0
54,100,0.2409090909090909,475,0,95,DL_Guitar,6,4,DL.   Stems,0.09181530028581619,0
52,100,0.2590909090909091,606,0,95,DL_Guitar,6,4,DL.   Stems,0.10748051106929779,0
52,100,0.2409090909090909,716,0,95,DL_Guitar,6,4,DL.   Stems,0.12482839822769165,0
52,100,0.9181818181818182,813,0,95,DL_Guitar,6,15,DL.   Stems,0.17904254794120789,0
54,100,0.11818181818181818,176,1,96,DL_Guitar,6,2,DL.   Stems,0.9990229606628418,1
54,100,0.1409090909090909,404,0,96,DL_Guitar,6,2,DL.   Stems,0.3666209280490875,0
54,100,0.12272727272727273,629,0,96,DL_Guitar,6,2,DL.   Stems,0.45329058170318604,0
54,100,0.11818181818181818,132,1,97,DL_Guitar,6,2,DL.   Stems,0.9990057349205017,1
54,100,0.1590909090909091,453,1,97,DL_Guitar,6,3,DL.   Stems,0.2311999648809433,0
54,100,0.4818181818181818,509,0,97,DL_Guitar,6,8,DL.   Stems,0.2659164369106293,0
52,100,0.4,805,1,97,DL_Guitar,6,6,DL.   Stems,0.35419896245002747,0
52,100,0.3181818181818182,153,1,98,DL_Guitar,6,5,DL.   Stems,0.9990057349205017,1
54,100,0.22272727272727272,475,1,98,DL_Guitar,6,4,DL.   Stems,0.23120254278182983,0
61,100,0.2409090909090909,650,0,98,DL_Guitar,6,4,DL.   Stems,0.2659185528755188,0
63,100,0.35909090909090907,779,0,98,DL_Guitar,6,6,DL.   Stems,0.35419654846191406,0
56,100,0.2409090909090909,9,1,99,DL_Guitar,6,4,DL.   Stems,0.9986500144004822,1
63,100,0.1409090909090909,74,0,99,DL_Guitar,6,2,DL.   Stems,0.08780308812856674,0
59,100,0.1590909090909091,119,0,99,DL_Guitar,6,3,DL.   Stems,0.09181700646877289,0
63,100,0.5818181818181818,176,0,99,DL_Guitar,6,9,DL.   Stems,0.1074812039732933,0
63,100,0.6181818181818182,527,1,99,DL_Guitar,6,10,DL.   Stems,0.124832883477211,0
63,100,0.41818181818181815,722,0,99,DL_Guitar,6,7,DL.   Stems,0.17904943227767944,0
52,100,0.3409090909090909,849,1,100,DL_Guitar,6,5,DL.   Stems,0.9792563915252686,0
61,100,0.3,136,1,101,DL_Guitar,6,5,DL.   Stems,0.9990057349205017,1
54,100,0.23636363636363636,282,0,101,DL_Guitar,6,4,DL.   Stems,0.23120419681072235,0
54,100,0.4590909090909091,624,1,101,DL_Guitar,6,7,DL.   Stems,0.26592347025871277,0
54,100,0.5590909090909091,787,0,101,DL_Guitar,6,9,DL.   Stems,0.354202538728714,0
54,100,0.1,153,1,102,DL_Guitar,6,2,DL.   Stems,0.9792566299438477,0
54,100,0.1409090909090909,92,1,103,DL_Guitar,6,2,DL.   Stems,0.9988420605659485,1
66,100,0.2409090909090909,307,0,103,DL_Guitar,6,4,DL.   Stems,0.13724489510059357,0
63,100,0.38181818181818183,386,0,103,DL_Guitar,6,6,DL.   Stems,0.15977418422698975,0
54,100,0.21818181818181817,527,0,103,DL_Guitar,6,3,DL.   Stems,0.18644385039806366,0
54,100,0.11818181818181818,832,1,103,DL_Guitar,6,2,DL.   Stems,0.258164644241333,0
59,100,0.12272727272727273,267,1,104,DL_Guitar,6,2,DL.   Stems,0.9990229606628418,1
59,100,0.7227272727272728,343,0,104,DL_Guitar,6,12,DL.   Stems,0.3666219413280487,0
54,100,0.1409090909090909,550,0,104,DL_Guitar,6,2,DL.   Stems,0.45329219102859497,0
54,100,0.3,100,1,105,DL_Guitar,6,5,DL.   Stems,0.9990057349205017,1
54,100,0.2772727272727273,172,0,105,DL_Guitar,6,4,DL.   Stems,0.23120325803756714,0
66,100,0.2,487,1,105,DL_Guitar,6,3,DL.   Stems,0.2659222185611725,0
63,100,0.2818181818181818,739,1,105,DL_Guitar,6,5,DL.   Stems,0.3541973829269409,0
64,100,0.3409090909090909,110,1,106,DL_Guitar,6,5,DL.   Stems,0.9984880685806274,1
64,100,0.11818181818181818,250,0,106,DL_Guitar,6,2,DL.   Stems,0.06334452331066132,0
64,100,0.11818181818181818,303,0,106,DL_Guitar,6,2,DL.   Stems,0.057740747928619385,0
64,100,0.12272727272727273,365,0,106,DL_Guitar,6,2,DL.   Stems,0.06020217761397362,0
66,100,0.1,567,0,106,DL_Guitar,6,2,DL.   Stems,0.06970389932394028,0
66,100,0.4,593,0,106,DL_Guitar,6,6,DL.   Stems,0.08189444988965988,0
66,100,0.1409090909090909,747,0,106,DL_Guitar,6,2,DL.   Stems,0.12402414530515671,0
66,100,0.1,330,1,107,DL_Guitar,6,2,DL.   Stems,0.9990057349205017,1
64,100,0.2818181818181818,386,0,107,DL_Guitar,6,5,DL.   Stems,0.23120354115962982,0
63,100,0.1,633,1,107,DL_Guitar,6,2,DL.   Stems,0.26592302322387695,0
54,100,0.4818181818181818,760,0,107,DL_Guitar,6,8,DL.   Stems,0.35419967770576477,0
54,100,0.12272727272727273,3,1,108,DL_Guitar,6,2,DL.   Stems,0.9988419413566589,1
54,100,0.759090909090909,123,0,108,DL_Guitar,6,12,DL.   Stems,0.1372442990541458,0
64,100,0.2409090909090909,726,1,108,DL_Guitar,6,4,DL.   Stems,0.15977393090724945,0
64,100,0.1409090909090909,792,0,108,DL_Guitar,6,2,DL.   Stems,0.18644599616527557,0
66,100,0.13636363636363635,832,0,108,DL_Guitar,6,2,DL.   Stems,0.2581664025783539,0
66,100,0.11818181818181818,216,1,109,DL_Guitar,6,2,DL.   Stems,0.9984880685806274,1
56,100,0.4,316,0,109,DL_Guitar,6,6,DL.   Stems,0.0633433386683464,0
66,100,0.2,449,0,109,DL_Guitar,6,3,DL.   Stems,0.05774249508976936,0
66,100,0.18181818181818182,509,0,109,DL_Guitar,6,3,DL.   Stems,0.06020231544971466,0
63,100,0.3181818181818182,593,0,109,DL_Guitar,6,5,DL.   Stems,0.06970156729221344,0
63,100,0.13636363636363635,677,0,109,DL_Guitar,6,2,DL.   Stems,0.08189736306667328,0
54,100,0.11818181818181818,770,0,109,DL_Guitar,6,2,DL.   Stems,0.12402748316526413,0
63,100,0.1409090909090909,87,1,110,DL_Guitar,6,2,DL.   Stems,0.9986500144004822,1
63,100,0.18181818181818182,153,0,110,DL_Guitar,6,3,DL.   Stems,0.08780258893966675,0
54,100,0.12272727272727273,320,0,110,DL_Guitar,6,2,DL.   Stems,0.09181943535804749,0
63,100,0.1409090909090909,383,0,110,DL_Guitar,6,2,DL.   Stems,0.1074809730052948,0
59,100,0.1590909090909091,563,0,110,DL_Guitar,6,3,DL.   Stems,0.12483576685190201,0
63,100,0.12272727272727273,752,0,110,DL_Guitar,6,2,DL.   Stems,0.1790374517440796,0
54,100,0.2590909090909091,83,1,111,DL_Guitar,6,4,DL.   Stems,0.9990057349205017,1
54,100,0.5590909090909091,220,0,111,DL_Guitar,6,9,DL.   Stems,0.23119960725307465,0
61,100,0.38181818181818183,475,1,111,DL_Guitar,6,6,DL.   Stems,0.265912264585495,0
54,100,0.18181818181818182,637,0,111,DL_Guitar,6,3,DL.   Stems,0.3541906774044037,0
66,100,0.1409090909090909,140,1,112,DL_Guitar,6,2,DL.   Stems,0.9990230798721313,1
66,100,0.1,282,0,112,DL_Guitar,6,2,DL.   Stems,0.3666193187236786,0
54,100,0.32272727272727275,422,0,112,DL_Guitar,6,5,DL.   Stems,0.45328783988952637,0
54,100,0.18181818181818182,255,1,113,DL_Guitar,6,3,DL.   Stems,0.9986500144004822,1
54,100,0.18181818181818182,299,0,113,DL_Guitar,6,3,DL.   Stems,0.08780300617218018,0
66,100,0.21818181818181817,352,0,113,DL_Guitar,6,3,DL.   Stems,0.0918128713965416,0
54,100,0.22272727272727272,409,0,113,DL_Guitar,6,4,DL.   Stems,0.10747739672660828,0
66,100,0.11818181818181818,457,0,113,DL_Guitar,6,2,DL.   Stems,0.12482866644859314,0
59,100,0.12272727272727273,496,0,113,DL_Guitar,6,2,DL.   Stems,0.17902669310569763,0
59,100,0.1409090909090909,686,1,0,DL_warmFolk_Guitar,6,2,omokagewarmfolk,0.9792559146881104,0
67,100,0.18181818181818182,0,1,1,DL_warmFolk_Guitar,6,3,omokagewarmfolk,0.9990229606628418,1
57,100,0.22272727272727272,554,1,1,DL_warmFolk_Guitar,6,4,omokagewarmfolk,0.36662548780441284,0
56,100,0.1409090909090909,603,0,1,DL_warmFolk_Guitar,6,2,omokagewarmfolk,0.45328372716903687,0
59,100,0.18181818181818182,672,1,2,DL_warmFolk_Guitar,6,3,omokagewarmfolk,0.9792559146881104,0
55,100,0.35909090909090907,198,1,3,DL_warmFolk_Guitar,6,6,omokagewarmfolk,0.9990057349205017,1
61,100,0.1590909090909091,739,1,3,DL_warmFolk_Guitar,6,3,omokagewarmfolk,0.23120132088661194,0
57,100,0.2590909090909091,782,0,3,DL_warmFolk_Guitar,6,4,omokagewarmfolk,0.2659222185611725,0
56,100,0.18181818181818182,840,0,3,DL_warmFolk_Guitar,6,3,omokagewarmfolk,0.3541981875896454,0
64,100,0.22272727272727272,532,1,4,DL_warmFolk_Guitar,6,4,omokagewarmfolk,0.9983165264129639,1
57,100,0.17727272727272728,655,0,4,DL_warmFolk_Guitar,6,3,omokagewarmfolk,0.5445548295974731,0
57,100,0.1,114,1,5,DL_warmFolk_Guitar,6,2,omokagewarmfolk,0.9990057349205017,1
55,100,0.1590909090909091,145,0,5,DL_warmFolk_Guitar,6,3,omokagewarmfolk,0.23120485246181488,0
59,100,0.32272727272727275,268,0,5,DL_warmFolk_Guitar,6,5,omokagewarmfolk,0.26592370867729187,0
55,100,0.2,435,0,5,DL_warmFolk_Guitar,6,3,omokagewarmfolk,0.35419803857803345,0
57,100,0.2636363636363636,135,1,6,DL_warmFolk_Guitar,6,4,omokagewarmfolk,0.9983165264129639,1
56,100,0.2,201,0,6,DL_warmFolk_Guitar,6,3,omokagewarmfolk,0.5445596575737,0
54,100,0.5409090909090909,255,1,7,DL_warmFolk_Guitar,6,9,omokagewarmfolk,0.9983165264129639,1
59,100,0.3,506,1,7,DL_warmFolk_Guitar,6,5,omokagewarmfolk,0.544556736946106,0
57,100,0.2818181818181818,378,1,8,DL_warmFolk_Guitar,6,5,omokagewarmfolk,0.9990229606628418,1
56,100,0.2,440,0,8,DL_warmFolk_Guitar,6,3,omokagewarmfolk,0.3666260838508606,0
54,100,0.1409090909090909,615,0,8,DL_warmFolk_Guitar,6,2,omokagewarmfolk,0.4532936215400696,0
62,100,0.22272727272727272,312,1,9,DL_warmFolk_Guitar,6,4,omokagewarmfolk,0.9986500144004822,1
57,100,0.8772727272727273,369,0,9,DL_warmFolk_Guitar,6,14,omokagewarmfolk,0.08780401945114136,0
57,100,0.1,572,0,9,DL_warmFolk_Guitar,6,2,omokagewarmfolk,0.09181547909975052,0
55,100,0.1,615,0,9,DL_warmFolk_Guitar,6,2,omokagewarmfolk,0.1074812188744545,0
59,100,0.2772727272727273,735,0,9,DL_warmFolk_Guitar,6,4,omokagewarmfolk,0.12482723593711853,0
62,100,0.2,809,0,9,DL_warmFolk_Guitar,6,3,omokagewarmfolk,0.17903795838356018,0
55,100,0.21818181818181817,30,1,10,DL_warmFolk_Guitar,6,3,omokagewarmfolk,0.9990057349205017,1
55,100,0.23636363636363636,106,0,10,DL_warmFolk_Guitar,6,4,omokagewarmfolk,0.23120631277561188,0
57,100,0.2,527,1,10,DL_warmFolk_Guitar,6,3,omokagewarmfolk,0.265915185213089,0
61,100,0.1,694,0,10,DL_warmFolk_Guitar,6,2,omokagewarmfolk,0.35419946908950806,0
62,100,0.11818181818181818,615,1,12,DL_warmFolk_Guitar,6,2,omokagewarmfolk,0.9990057349205017,1
57,100,0.1409090909090909,730,0,12,DL_warmFolk_Guitar,6,2,omokagewarmfolk,0.23120379447937012,0
59,100,0.21818181818181817,787,0,12,DL_warmFolk_Guitar,6,3,omokagewarmfolk,0.2659320831298828,0
62,100,0.1409090909090909,845,0,12,DL_warmFolk_Guitar,6,2,omokagewarmfolk,0.3542015552520752,0
57,100,0.2818181818181818,268,1,13,DL_warmFolk_Guitar,6,5,omokagewarmfolk,0.9990057349205017,1
57,100,0.13636363636363635,414,0,13,DL_warmFolk_Guitar,6,2,omokagewarmfolk,0.23121057450771332,0
59,100,0.2409090909090909,581,0,13,DL_warmFolk_Guitar,6,4,omokagewarmfolk,0.2659280300140381,0
61,100,0.2409090909090909,835,1,13,DL_warmFolk_Guitar,6,4,omokagewarmfolk,0.3541955053806305,0
57,100,0.2,25,1,14,DL_warmFolk_Guitar,6,3,omokagewarmfolk,0.9990057349205017,1
52,100,0.11818181818181818,87,0,14,DL_warmFolk_Guitar,6,2,omokagewarmfolk,0.23120644688606262,0
62,100,0.22272727272727272,386,1,14,DL_warmFolk_Guitar,6,4,omokagewarmfolk,0.265926718711853,0
55,100,0.1,527,0,14,DL_warmFolk_Guitar,6,2,omokagewarmfolk,0.35419961810112,0
57,100,0.5590909090909091,519,1,80,DL_warmFolk_Guitar,6,9,omokagewarmfolk,0.9990229606628418,1
62,100,0.5590909090909091,646,0,80,DL_warmFolk_Guitar,6,9,omokagewarmfolk,0.36662110686302185,0
64,100,0.2590909090909091,770,0,80,DL_warmFolk_Guitar,6,4,omokagewarmfolk,0.45330139994621277,0
69,100,0.1,17,1,81,DL_warmFolk_Guitar,6,2,omokagewarmfolk,0.9986500144004822,1
71,100,0.6590909090909091,53,0,81,DL_warmFolk_Guitar,6,11,omokagewarmfolk,0.08780591189861298,0
74,100,0.3181818181818182,206,0,81,DL_warmFolk_Guitar,6,5,omokagewarmfolk,0.09181791543960571,0
71,100,1.2181818181818183,370,0,81,DL_warmFolk_Guitar,6,15,omokagewarmfolk,0.10748614370822906,0
69,100,0.5,642,1,81,DL_warmFolk_Guitar,6,8,omokagewarmfolk,0.12483441084623337,0
69,100,0.5772727272727273,756,0,81,DL_warmFolk_Guitar,6,9,omokagewarmfolk,0.17904627323150635,0
67,100,0.5590909090909091,9,1,82,DL_warmFolk_Guitar,6,9,omokagewarmfolk,0.9988419413566589,1
66,100,0.740909090909091,132,0,82,DL_warmFolk_Guitar,6,12,omokagewarmfolk,0.13725468516349792,0
69,100,0.5590909090909091,316,0,82,DL_warmFolk_Guitar,6,9,omokagewarmfolk,0.1597810834646225,0
69,100,0.17727272727272728,457,0,82,DL_warmFolk_Guitar,6,3,omokagewarmfolk,0.1864636391401291,0
62,100,2.9,502,0,82,DL_warmFolk_Guitar,6,15,omokagewarmfolk,0.25815486907958984,0
74,100,0.2772727272727273,260,1,83,DL_warmFolk_Guitar,6,4,omokagewarmfolk,0.9984880685806274,1
62,100,0.4818181818181818,320,0,83,DL_warmFolk_Guitar,6,8,omokagewarmfolk,0.06334744393825531,0
74,100,0.3409090909090909,426,0,83,DL_warmFolk_Guitar,6,5,omokagewarmfolk,0.05774360150098801,0
76,100,0.1,502,0,83,DL_warmFolk_Guitar,6,2,omokagewarmfolk,0.06020522490143776,0
74,100,0.4,527,0,83,DL_warmFolk_Guitar,6,6,omokagewarmfolk,0.06970786303281784,0
78,100,1.018181818181818,624,0,83,DL_warmFolk_Guitar,6,15,omokagewarmfolk,0.0819026455283165,0
74,100,0.5181818181818182,876,1,83,DL_warmFolk_Guitar,6,8,omokagewarmfolk,0.12403373420238495,0
76,100,0.5818181818181818,113,1,84,DL_warmFolk_Guitar,6,9,omokagewarmfolk,0.9984880685806274,1
73,100,0.5409090909090909,242,0,84,DL_warmFolk_Guitar,6,9,omokagewarmfolk,0.06334639340639114,0
78,100,0.8227272727272728,365,0,84,DL_warmFolk_Guitar,6,13,omokagewarmfolk,0.05774402245879173,0
74,100,0.1,550,0,84,DL_warmFolk_Guitar,6,2,omokagewarmfolk,0.06020470708608627,0
76,100,0.35909090909090907,572,0,84,DL_warmFolk_Guitar,6,6,omokagewarmfolk,0.06970933079719543,0
78,100,0.1590909090909091,690,0,84,DL_warmFolk_Guitar,6,3,omokagewarmfolk,0.08190260827541351,0
74,100,2.8181818181818183,734,0,84,DL_warmFolk_Guitar,6,15,omokagewarmfolk,0.12402361631393433,0
78,100,0.5590909090909091,527,1,85,DL_warmFolk_Guitar,6,9,omokagewarmfolk,0.9990057349205017,1
57,100,0.5409090909090909,713,0,85,DL_warmFolk_Guitar,6,9,omokagewarmfolk,0.23120564222335815,0
69,100,0.11818181818181818,832,0,85,DL_warmFolk_Guitar,6,2,omokagewarmfolk,0.2659246325492859,0
74,100,0.38181818181818183,870,0,85,DL_warmFolk_Guitar,6,6,omokagewarmfolk,0.3542000651359558,0
76,100,0.1590909090909091,96,1,86,DL_warmFolk_Guitar,6,3,omokagewarmfolk,0.9983003735542297,1
57,100,0.38181818181818183,132,0,86,DL_warmFolk_Guitar,6,6,omokagewarmfolk,0.04466501623392105,0
69,100,0.6,216,0,86,DL_warmFolk_Guitar,6,10,omokagewarmfolk,0.033150963485240936,0
74,100,0.5,352,0,86,DL_warmFolk_Guitar,6,8,omokagewarmfolk,0.026580533012747765,0
76,100,0.18181818181818182,466,0,86,DL_warmFolk_Guitar,6,3,omokagewarmfolk,0.02359771728515625,0
78,100,0.3,514,0,86,DL_warmFolk_Guitar,6,5,omokagewarmfolk,0.02431643195450306,0
76,100,0.9,590,0,86,DL_warmFolk_Guitar,6,14,omokagewarmfolk,0.029691604897379875,0
81,100,0.3181818181818182,792,0,86,DL_warmFolk_Guitar,6,5,omokagewarmfolk,0.0400795079767704,0
57,100,0.4409090909090909,862,0,86,DL_warmFolk_Guitar,6,7,omokagewarmfolk,0.07093175500631332,0
74,100,1.1409090909090909,87,1,87,DL_warmFolk_Guitar,6,15,omokagewarmfolk,0.9986500144004822,1
66,100,0.2818181818181818,343,1,87,DL_warmFolk_Guitar,6,5,omokagewarmfolk,0.0878048986196518,0
66,100,0.7772727272727272,470,0,87,DL_warmFolk_Guitar,6,12,omokagewarmfolk,0.09181258827447891,0
66,100,0.12272727272727273,695,0,87,DL_warmFolk_Guitar,6,2,omokagewarmfolk,0.10747919976711273,0
62,100,0.43636363636363634,722,0,87,DL_warmFolk_Guitar,6,7,omokagewarmfolk,0.12482511252164841,0
64,100,0.740909090909091,836,0,87,DL_warmFolk_Guitar,6,12,omokagewarmfolk,0.17903368175029755,0
66,100,0.6,132,1,88,DL_warmFolk_Guitar,6,10,omokagewarmfolk,0.9986500144004822,1
61,100,0.5590909090909091,299,0,88,DL_warmFolk_Guitar,6,9,omokagewarmfolk,0.0878036767244339,0
62,100,0.32272727272727275,453,0,88,DL_warmFolk_Guitar,6,5,omokagewarmfolk,0.09181652218103409,0
62,100,0.1590909090909091,536,0,88,DL_warmFolk_Guitar,6,3,omokagewarmfolk,0.10748564451932907,0
61,100,0.5590909090909091,572,0,88,DL_warmFolk_Guitar,6,9,omokagewarmfolk,0.1248319149017334,0
62,100,2.459090909090909,700,0,88,DL_warmFolk_Guitar,6,15,omokagewarmfolk,0.17903931438922882,0
60,100,0.18181818181818182,378,1,0,DL_Remix_Guitar,6,3,katyan_taturo,0.9990230798721313,1
55,100,0.37727272727272726,546,0,0,DL_Remix_Guitar,6,6,katyan_taturo,0.36661818623542786,0
55,100,0.3409090909090909,796,1,0,DL_Remix_Guitar,6,5,katyan_taturo,0.45328420400619507,0
52,100,0.1,267,1,1,DL_Remix_Guitar,6,2,katyan_taturo,0.9986500144004822,1
53,100,0.18181818181818182,290,0,1,DL_Remix_Guitar,6,3,katyan_taturo,0.08780300617218018,0
60,100,0.1,360,0,1,DL_Remix_Guitar,6,2,katyan_taturo,0.09181265532970428,0
60,100,0.11818181818181818,405,0,1,DL_Remix_Guitar,6,2,katyan_taturo,0.10747703164815903,0
60,100,0.2636363636363636,487,0,1,DL_Remix_Guitar,6,4,katyan_taturo,0.12482420355081558,0
60,100,0.1590909090909091,700,0,1,DL_Remix_Guitar,6,3,katyan_taturo,0.17903384566307068,0
62,100,0.4409090909090909,34,1,2,DL_Remix_Guitar,6,7,katyan_taturo,0.9986500144004822,1
55,100,0.2772727272727273,281,1,2,DL_Remix_Guitar,6,4,katyan_taturo,0.0878034383058548,0
62,100,0.18181818181818182,421,0,2,DL_Remix_Guitar,6,3,katyan_taturo,0.09181620925664902,0
62,100,0.2818181818181818,528,0,2,DL_Remix_Guitar,6,5,katyan_taturo,0.10748009383678436,0
62,100,0.11818181818181818,611,0,2,DL_Remix_Guitar,6,2,katyan_taturo,0.12483154982328415,0
62,100,0.5227272727272727,642,0,2,DL_Remix_Guitar,6,8,katyan_taturo,0.17904254794120789,0
61,100,0.1590909090909091,83,1,3,DL_Remix_Guitar,6,3,katyan_taturo,0.9984880685806274,1
61,100,0.18181818181818182,122,0,3,DL_Remix_Guitar,6,3,katyan_taturo,0.06334511935710907,0
61,100,0.2818181818181818,254,0,3,DL_Remix_Guitar,6,5,katyan_taturo,0.05774346739053726,0
57,100,0.37727272727272726,427,0,3,DL_Remix_Guitar,6,6,katyan_taturo,0.060203202068805695,0
57,100,0.32272727272727275,607,0,3,DL_Remix_Guitar,6,5,katyan_taturo,0.06970380991697311,0
60,100,0.2,694,0,3,DL_Remix_Guitar,6,3,katyan_taturo,0.08190067112445831,0
57,100,0.38181818181818183,836,0,3,DL_Remix_Guitar,6,6,katyan_taturo,0.12402153015136719,0
57,100,0.22272727272727272,48,1,4,DL_Remix_Guitar,6,4,katyan_taturo,0.9986500144004822,1
62,100,0.6772727272727272,260,0,4,DL_Remix_Guitar,6,11,katyan_taturo,0.08780453354120255,0
59,100,0.2818181818181818,465,0,4,DL_Remix_Guitar,6,5,katyan_taturo,0.09181664884090424,0
60,100,0.1,527,0,4,DL_Remix_Guitar,6,2,katyan_taturo,0.10747770965099335,0
60,100,0.18181818181818182,575,0,4,DL_Remix_Guitar,6,3,katyan_taturo,0.1248280256986618,0
60,100,0.5772727272727273,765,0,4,DL_Remix_Guitar,6,9,katyan_taturo,0.17903763055801392,0
53,100,0.1,444,1,5,DL_Remix_Guitar,6,2,katyan_taturo,0.9990230798721313,1
55,100,0.2590909090909091,545,0,5,DL_Remix_Guitar,6,4,katyan_taturo,0.3666229844093323,0
60,100,0.2590909090909091,849,1,5,DL_Remix_Guitar,6,4,katyan_taturo,0.4532945454120636,0
57,100,0.4,150,1,6,DL_Remix_Guitar,6,6,katyan_taturo,0.9986500144004822,1
60,100,0.11818181818181818,360,0,6,DL_Remix_Guitar,6,2,katyan_taturo,0.08780434727668762,0
56,100,0.2409090909090909,399,0,6,DL_Remix_Guitar,6,4,katyan_taturo,0.09181195497512817,0
60,100,0.1,458,0,6,DL_Remix_Guitar,6,2,katyan_taturo,0.10747785866260529,0
57,100,0.18181818181818182,708,1,6,DL_Remix_Guitar,6,3,katyan_taturo,0.12482134997844696,0
52,100,0.36363636363636365,795,0,6,DL_Remix_Guitar,6,6,katyan_taturo,0.179030179977417,0
52,100,0.42272727272727273,4,1,7,DL_Remix_Guitar,6,7,katyan_taturo,0.9990230798721313,1
55,100,0.3,726,1,7,DL_Remix_Guitar,6,5,katyan_taturo,0.3666248321533203,0
57,100,0.11818181818181818,836,0,7,DL_Remix_Guitar,6,2,katyan_taturo,0.45328840613365173,0
57,100,0.4590909090909091,84,1,8,DL_Remix_Guitar,6,7,katyan_taturo,0.9986500144004822,1
57,100,0.21818181818181817,338,1,8,DL_Remix_Guitar,6,3,katyan_taturo,0.08780521899461746,0
57,100,0.18181818181818182,400,0,8,DL_Remix_Guitar,6,3,katyan_taturo,0.09181895107030869,0
57,100,0.1409090909090909,462,0,8,DL_Remix_Guitar,6,2,katyan_taturo,0.10748794674873352,0
57,100,0.6818181818181818,563,0,8,DL_Remix_Guitar,6,11,katyan_taturo,0.12483035773038864,0
56,100,0.12272727272727273,761,0,8,DL_Remix_Guitar,6,2,katyan_taturo,0.17904019355773926,0
60,100,0.1409090909090909,56,1,9,DL_Remix_Guitar,6,2,katyan_taturo,0.9990057349205017,1
55,100,0.1,211,0,9,DL_Remix_Guitar,6,2,katyan_taturo,0.2312062680721283,0
55,100,0.1409090909090909,426,0,9,DL_Remix_Guitar,6,2,katyan_taturo,0.26592814922332764,0
53,100,0.3,804,1,9,DL_Remix_Guitar,6,5,katyan_taturo,0.3541962504386902,0
53,100,0.16363636363636364,48,1,10,DL_Remix_Guitar,6,3,katyan_taturo,0.9990229606628418,1
53,100,0.12272727272727273,101,0,10,DL_Remix_Guitar,6,2,katyan_taturo,0.3666229248046875,0
58,100,0.2409090909090909,756,1,10,DL_Remix_Guitar,6,4,katyan_taturo,0.4532943069934845,0
53,100,0.3,668,1,11,DL_Remix_Guitar,6,5,katyan_taturo,0.9990229606628418,1
53,100,0.16363636363636364,752,0,11,DL_Remix_Guitar,6,3,katyan_taturo,0.36662226915359497,0
53,100,0.4,826,0,11,DL_Remix_Guitar,6,6,katyan_taturo,0.4532872438430786,0
60,100,0.1590909090909091,61,1,12,DL_Remix_Guitar,6,3,katyan_taturo,0.9984880685806274,1
53,100,0.21818181818181817,96,0,12,DL_Remix_Guitar,6,3,katyan_taturo,0.06334448605775833,0
53,100,0.2,163,0,12,DL_Remix_Guitar,6,3,katyan_taturo,0.05774230509996414,0
52,100,0.3181818181818182,316,0,12,DL_Remix_Guitar,6,5,katyan_taturo,0.06020306050777435,0
52,100,0.2,493,0,12,DL_Remix_Guitar,6,3,katyan_taturo,0.06970337778329849,0
52,100,0.2409090909090909,625,0,12,DL_Remix_Guitar,6,4,katyan_taturo,0.08189564198255539,0
52,100,0.3,685,0,12,DL_Remix_Guitar,6,5,katyan_taturo,0.12402266263961792,0
52,100,0.3,44,1,13,DL_Remix_Guitar,6,5,katyan_taturo,0.9986500144004822,1
52,100,0.1409090909090909,132,0,13,DL_Remix_Guitar,6,2,katyan_taturo,0.08780545741319656,0
52,100,0.22272727272727272,180,0,13,DL_Remix_Guitar,6,4,katyan_taturo,0.0918181985616684,0
57,100,0.18181818181818182,355,0,13,DL_Remix_Guitar,6,3,katyan_taturo,0.10748264938592911,0
57,100,0.1,519,0,13,DL_Remix_Guitar,6,2,katyan_taturo,0.12483543902635574,0
57,100,0.740909090909091,801,1,13,DL_Remix_Guitar,6,12,katyan_taturo,0.17903676629066467,0
57,100,0.8818181818181818,123,1,14,DL_Remix_Guitar,6,14,katyan_taturo,0.9990057349205017,1
74,100,0.5227272727272727,321,0,14,DL_Remix_Guitar,6,8,katyan_taturo,0.23120883107185364,0
74,100,0.12272727272727273,510,0,14,DL_Remix_Guitar,6,2,katyan_taturo,0.26592859625816345,0
52,100,0.5590909090909091,611,0,14,DL_Remix_Guitar,6,9,katyan_taturo,0.35420629382133484,0
52,100,0.18181818181818182,25,1,15,DL_Remix_Guitar,6,3,katyan_taturo,0.9990229606628418,1
52,100,0.5,233,0,15,DL_Remix_Guitar,6,8,katyan_taturo,0.36662331223487854,0
52,100,0.2772727272727273,347,0,15,DL_Remix_Guitar,6,4,katyan_taturo,0.453291654586792,0
53,100,0.21818181818181817,440,1,16,DL_Remix_Guitar,6,3,katyan_taturo,0.9792560338973999,0
58,100,0.2,343,1,17,DL_Remix_Guitar,6,3,katyan_taturo,0.9990230798721313,1
55,100,0.2409090909090909,519,0,17,DL_Remix_Guitar,6,4,katyan_taturo,0.3666289448738098,0
57,100,0.3,669,0,17,DL_Remix_Guitar,6,5,katyan_taturo,0.45328715443611145,0
53,100,0.2,17,1,18,DL_Remix_Guitar,6,3,katyan_taturo,0.9990229606628418,1
53,100,0.4636363636363636,488,1,18,DL_Remix_Guitar,6,7,katyan_taturo,0.36661824584007263,0
53,100,0.16363636363636364,619,0,18,DL_Remix_Guitar,6,3,katyan_taturo,0.45328518748283386,0
52,100,0.2772727272727273,229,1,19,DL_Remix_Guitar,6,4,katyan_taturo,0.9988419413566589,1
52,100,0.12272727272727273,364,0,19,DL_Remix_Guitar,6,2,katyan_taturo,0.13724784553050995,0
59,100,0.12272727272727273,488,0,19,DL_Remix_Guitar,6,2,katyan_taturo,0.15977822244167328,0
52,100,0.4,590,0,19,DL_Remix_Guitar,6,6,katyan_taturo,0.18644845485687256,0
52,100,0.32272727272727275,708,0,19,DL_Remix_Guitar,6,5,katyan_taturo,0.258171409368515,0
55,100,0.11818181818181818,559,1,20,DL_Remix_Guitar,6,2,katyan_taturo,0.9983164072036743,1
55,100,0.17727272727272728,810,1,20,DL_Remix_Guitar,6,3,katyan_taturo,0.5445533990859985,0
56,100,0.2,656,1,21,DL_Remix_Guitar,6,3,katyan_taturo,0.9983165264129639,1
62,100,0.1409090909090909,773,0,21,DL_Remix_Guitar,6,2,katyan_taturo,0.5445629954338074,0
57,100,0.16363636363636364,422,1,22,DL_Remix_Guitar,6,3,katyan_taturo,0.9990057349205017,1
57,100,0.22272727272727272,497,0,22,DL_Remix_Guitar,6,4,katyan_taturo,0.23120702803134918,0
57,100,0.1,756,1,22,DL_Remix_Guitar,6,2,katyan_taturo,0.2659261226654053,0
57,100,0.11818181818181818,876,0,22,DL_Remix_Guitar,6,2,katyan_taturo,0.35419538617134094,0
65,100,0.23636363636363636,766,1,23,DL_Remix_Guitar,6,4,katyan_taturo,0.9983165264129639,1
65,100,0.18181818181818182,827,0,23,DL_Remix_Guitar,6,3,katyan_taturo,0.5445553064346313,0
57,100,0.4409090909090909,65,1,24,DL_Remix_Guitar,6,7,katyan_taturo,0.9990229606628418,1
55,100,0.2818181818181818,532,1,24,DL_Remix_Guitar,6,5,katyan_taturo,0.3666223883628845,0
53,100,0.22272727272727272,796,1,24,DL_Remix_Guitar,6,4,katyan_taturo,0.4532865583896637,0
55,100,0.12272727272727273,26,1,25,DL_Remix_Guitar,6,2,katyan_taturo,0.9988419413566589,1
55,100,0.5,150,0,25,DL_Remix_Guitar,6,8,katyan_taturo,0.13725276291370392,0
53,100,0.12272727272727273,378,0,25,DL_Remix_Guitar,6,2,katyan_taturo,0.15977750718593597,0
55,100,0.3,611,1,25,DL_Remix_Guitar,6,5,katyan_taturo,0.18644680082798004,0
55,100,0.43636363636363634,831,0,25,DL_Remix_Guitar,6,7,katyan_taturo,0.2581585645675659,0
60,100,0.18181818181818182,351,1,26,DL_Remix_Guitar,6,3,katyan_taturo,0.9988419413566589,1
53,100,0.1590909090909091,602,1,26,DL_Remix_Guitar,6,3,katyan_taturo,0.13725219666957855,0
57,100,0.16363636363636364,663,0,26,DL_Remix_Guitar,6,3,katyan_taturo,0.159785196185112,0
57,100,0.5409090909090909,708,0,26,DL_Remix_Guitar,6,9,katyan_taturo,0.18645676970481873,0
57,100,0.759090909090909,858,0,26,DL_Remix_Guitar,6,12,katyan_taturo,0.25816431641578674,0
57,100,0.12272727272727273,223,1,27,DL_Remix_Guitar,6,2,katyan_taturo,0.9990057349205017,1
57,100,0.4818181818181818,285,0,27,DL_Remix_Guitar,6,8,katyan_taturo,0.2312059849500656,0
53,100,0.1409090909090909,453,0,27,DL_Remix_Guitar,6,2,katyan_taturo,0.2659302055835724,0
57,100,0.11818181818181818,581,0,27,DL_Remix_Guitar,6,2,katyan_taturo,0.3541988134384155,0
81,100,0.11818181818181818,295,1,28,DL_Remix_Guitar,6,2,katyan_taturo,0.9988419413566589,1
53,100,0.21818181818181817,581,1,28,DL_Remix_Guitar,6,3,katyan_taturo,0.13724593818187714,0
53,100,0.22272727272727272,663,0,28,DL_Remix_Guitar,6,4,katyan_taturo,0.15977266430854797,0
52,100,0.23636363636363636,787,0,28,DL_Remix_Guitar,6,4,katyan_taturo,0.18644730746746063,0
52,100,0.23636363636363636,876,0,28,DL_Remix_Guitar,6,4,katyan_taturo,0.2581656873226166,0
52,100,0.2,189,1,29,DL_Remix_Guitar,6,3,katyan_taturo,0.9990229606628418,1
59,100,0.11818181818181818,405,0,29,DL_Remix_Guitar,6,2,katyan_taturo,0.3666236400604248,0
62,100,0.1590909090909091,461,0,29,DL_Remix_Guitar,6,3,katyan_taturo,0.45329105854034424,0
53,100,0.5590909090909091,611,1,44,DL_Remix_Guitar,6,9,katyan_taturo,0.9792559146881104,0
55,100,0.1590909090909091,131,1,46,DL_Remix_Guitar,6,3,katyan_taturo,0.9990057349205017,1
55,100,0.3181818181818182,338,0,46,DL_Remix_Guitar,6,5,katyan_taturo,0.23120710253715515,0
57,100,0.8409090909090909,440,0,46,DL_Remix_Guitar,6,13,katyan_taturo,0.2659207880496979,0
60,100,0.11818181818181818,668,0,46,DL_Remix_Guitar,6,2,katyan_taturo,0.35419583320617676,0
52,100,0.13636363636363635,18,1,47,DL_Remix_Guitar,6,2,katyan_taturo,0.9983165264129639,1
60,100,0.11818181818181818,370,1,47,DL_Remix_Guitar,6,2,katyan_taturo,0.544559895992279,0
62,100,0.1409090909090909,298,1,48,DL_Remix_Guitar,6,2,katyan_taturo,0.9990229606628418,1
52,100,0.1409090909090909,378,0,48,DL_Remix_Guitar,6,2,katyan_taturo,0.3666400909423828,0
57,100,0.8818181818181818,616,1,48,DL_Remix_Guitar,6,14,katyan_taturo,0.4532850980758667,0
62,100,0.18181818181818182,576,1,49,DL_Remix_Guitar,6,3,katyan_taturo,0.9983165264129639,1
53,100,0.18181818181818182,638,0,49,DL_Remix_Guitar,6,3,katyan_taturo,0.5445550680160522,0
59,100,0.1590909090909091,541,1,50,DL_Remix_Guitar,6,3,katyan_taturo,0.9792561531066895,0
57,100,0.21818181818181817,506,1,51,DL_Remix_Guitar,6,3,katyan_taturo,0.9983165264129639,1
57,100,0.12272727272727273,716,0,51,DL_Remix_Guitar,6,2,katyan_taturo,0.5445569753646851,0
59,100,0.2,738,1,52,DL_Remix_Guitar,6,3,katyan_taturo,0.9792561531066895,0
57,100,0.4636363636363636,311,1,53,DL_Remix_Guitar,6,7,katyan_taturo,0.9990230798721313,1
57,100,0.4,673,1,53,DL_Remix_Guitar,6,6,katyan_taturo,0.36662542819976807,0
57,100,0.17727272727272728,765,0,53,DL_Remix_Guitar,6,3,katyan_taturo,0.4532977342605591,0
64,100,0.37727272727272726,193,1,54,DL_Remix_Guitar,6,6,katyan_taturo,0.9792566299438477,0
67,100,0.5636363636363636,69,1,55,DL_Remix_Guitar,6,9,katyan_taturo,0.9986500144004822,1
55,100,0.1409090909090909,206,0,55,DL_Remix_Guitar,6,2,katyan_taturo,0.0878051221370697,0
57,100,0.8,276,0,55,DL_Remix_Guitar,6,13,katyan_taturo,0.09181258827447891,0
57,100,0.11818181818181818,458,0,55,DL_Remix_Guitar,6,2,katyan_taturo,0.1074775904417038,0
53,100,1.1181818181818182,568,0,55,DL_Remix_Guitar,6,15,katyan_taturo,0.12482297420501709,0
57,100,0.2590909090909091,848,1,55,DL_Remix_Guitar,6,4,katyan_taturo,0.17902791500091553,0
57,100,0.3,171,1,56,DL_Remix_Guitar,6,5,katyan_taturo,0.9988419413566589,1
52,100,0.1409090909090909,295,0,56,DL_Remix_Guitar,6,2,katyan_taturo,0.1372482031583786,0
52,100,0.4409090909090909,405,0,56,DL_Remix_Guitar,6,7,katyan_taturo,0.15977975726127625,0
52,100,0.7,628,0,56,DL_Remix_Guitar,6,11,katyan_taturo,0.18645060062408447,0
52,100,0.2409090909090909,836,0,56,DL_Remix_Guitar,6,4,katyan_taturo,0.25817424058914185,0
52,100,0.36363636363636365,224,1,57,DL_Remix_Guitar,6,6,katyan_taturo,0.9983165264129639,1
64,100,0.2590909090909091,364,0,57,DL_Remix_Guitar,6,4,katyan_taturo,0.5445600748062134,0
53,100,0.2772727272727273,206,1,58,DL_Remix_Guitar,6,4,katyan_taturo,0.9792559146881104,0
55,100,0.2409090909090909,66,1,59,DL_Remix_Guitar,6,4,katyan_taturo,0.9990057349205017,1
52,100,0.17727272727272728,568,1,59,DL_Remix_Guitar,6,3,katyan_taturo,0.23119966685771942,0
57,100,0.11818181818181818,735,0,59,DL_Remix_Guitar,6,2,katyan_taturo,0.2659122049808502,0
60,100,0.17727272727272728,875,0,59,DL_Remix_Guitar,6,3,katyan_taturo,0.35419589281082153,0
57,100,0.21818181818181817,105,1,60,DL_Remix_Guitar,6,3,katyan_taturo,0.9988419413566589,1
57,100,0.12272727272727273,179,0,60,DL_Remix_Guitar,6,2,katyan_taturo,0.137252539396286,0
60,100,0.3,396,0,60,DL_Remix_Guitar,6,5,katyan_taturo,0.15978313982486725,0
64,100,0.13636363636363635,633,1,60,DL_Remix_Guitar,6,2,katyan_taturo,0.18646012246608734,0
57,100,1.040909090909091,716,0,60,DL_Remix_Guitar,6,15,katyan_taturo,0.2581624388694763,0
60,100,0.12272727272727273,158,1,61,DL_Remix_Guitar,6,2,katyan_taturo,0.9983165264129639,1
57,100,1.440909090909091,311,0,61,DL_Remix_Guitar,6,15,katyan_taturo,0.544550895690918,0
57,100,0.2,584,1,62,DL_Remix_Guitar,6,3,katyan_taturo,0.9792565107345581,0
57,100,0.2409090909090909,8,1,63,DL_Remix_Guitar,6,4,katyan_taturo,0.9988419413566589,1
57,100,0.1590909090909091,273,1,63,DL_Remix_Guitar,6,3,katyan_taturo,0.1372486799955368,0
57,100,0.1590909090909091,364,0,63,DL_Remix_Guitar,6,3,katyan_taturo,0.15977728366851807,0
57,100,0.12272727272727273,453,0,63,DL_Remix_Guitar,6,2,katyan_taturo,0.18644806742668152,0
57,100,0.1409090909090909,515,0,63,DL_Remix_Guitar,6,2,katyan_taturo,0.25816962122917175,0
55,100,0.3,546,1,65,DL_Remix_Guitar,6,5,katyan_taturo,0.9792567491531372,0
52,100,0.9409090909090909,307,1,66,DL_Remix_Guitar,6,15,katyan_taturo,0.9990229606628418,1
52,100,0.2772727272727273,633,1,66,DL_Remix_Guitar,6,4,katyan_taturo,0.36662355065345764,0
52,100,0.33636363636363636,743,0,66,DL_Remix_Guitar,6,5,katyan_taturo,0.4532901644706726,0
62,100,0.5409090909090909,9,1,67,DL_Remix_Guitar,6,9,katyan_taturo,0.9990057349205017,1
59,100,0.22272727272727272,166,0,67,DL_Remix_Guitar,6,4,katyan_taturo,0.23120373487472534,0
60,100,0.2409090909090909,550,1,67,DL_Remix_Guitar,6,4,katyan_taturo,0.26592180132865906,0
57,100,0.3,813,1,67,DL_Remix_Guitar,6,5,katyan_taturo,0.3542003035545349,0
57,100,0.2,96,1,68,DL_Remix_Guitar,6,3,katyan_taturo,0.9990057349205017,1
57,100,0.12272727272727273,189,0,68,DL_Remix_Guitar,6,2,katyan_taturo,0.2312103658914566,0
57,100,0.3,470,1,68,DL_Remix_Guitar,6,5,katyan_taturo,0.2659247815608978,0
57,100,0.38181818181818183,606,0,68,DL_Remix_Guitar,6,6,katyan_taturo,0.35420602560043335,0
57,100,0.13636363636363635,347,1,69,DL_Remix_Guitar,6,2,katyan_taturo,0.9990229606628418,1
57,100,0.11818181818181818,462,0,69,DL_Remix_Guitar,6,2,katyan_taturo,0.36662349104881287,0
64,100,0.12272727272727273,540,0,69,DL_Remix_Guitar,6,2,katyan_taturo,0.45329636335372925,0
57,100,0.1590909090909091,462,1,70,DL_Remix_Guitar,6,3,katyan_taturo,0.9792560338973999,0
58,100,0.5636363636363636,157,1,71,DL_Remix_Guitar,6,9,katyan_taturo,0.9792563915252686,0
57,100,0.1590909090909091,30,1,72,DL_Remix_Guitar,6,3,katyan_taturo,0.9983165264129639,1
57,100,0.11818181818181818,150,0,72,DL_Remix_Guitar,6,2,katyan_taturo,0.5445636510848999,0
64,100,0.1,343,1,73,DL_Remix_Guitar,6,2,katyan_taturo,0.9990057349205017,1
64,100,0.4,377,0,73,DL_Remix_Guitar,6,6,katyan_taturo,0.2312053143978119,0
52,100,0.1,606,0,73,DL_Remix_Guitar,6,2,katyan_taturo,0.2659272253513336,0
57,100,0.6590909090909091,660,0,73,DL_Remix_Guitar,6,11,katyan_taturo,0.35419344902038574,0
56,100,0.2,53,1,74,DL_Remix_Guitar,6,3,katyan_taturo,0.9988419413566589,1
56,100,1.2227272727272727,100,0,74,DL_Remix_Guitar,6,15,katyan_taturo,0.13724327087402344,0
52,100,0.2409090909090909,383,1,74,DL_Remix_Guitar,6,4,katyan_taturo,0.1597776561975479,0
57,100,0.11818181818181818,483,0,74,DL_Remix_Guitar,6,2,katyan_taturo,0.1864488571882248,0
57,100,0.22272727272727272,519,0,74,DL_Remix_Guitar,6,4,katyan_taturo,0.25816208124160767,0
57,100,0.8,96,1,75,DL_Remix_Guitar,6,13,katyan_taturo,0.9990057349205017,1
57,100,0.2818181818181818,352,1,75,DL_Remix_Guitar,6,5,katyan_taturo,0.23121047019958496,0
57,100,0.2,417,0,75,DL_Remix_Guitar,6,3,katyan_taturo,0.265933632850647,0
55,100,0.3,839,1,75,DL_Remix_Guitar,6,5,katyan_taturo,0.3542026877403259,0
62,100,0.6818181818181818,773,1,76,DL_Remix_Guitar,6,11,katyan_taturo,0.9792561531066895,0
57,100,0.5818181818181818,263,1,77,DL_Remix_Guitar,6,9,katyan_taturo,0.9983165264129639,1
57,100,0.6,752,1,77,DL_Remix_Guitar,6,10,katyan_taturo,0.5445502400398254,0
57,100,0.2590909090909091,404,1,78,DL_Remix_Guitar,6,4,katyan_taturo,0.9792560338973999,0
53,100,0.12272727272727273,466,1,79,DL_Remix_Guitar,6,2,katyan_taturo,0.9983165264129639,1
57,100,0.12272727272727273,553,0,79,DL_Remix_Guitar,6,2,katyan_taturo,0.544557511806488,0
57,100,0.4590909090909091,56,1,80,DL_Remix_Guitar,6,7,katyan_taturo,0.9983164072036743,1
57,100,0.5,550,1,80,DL_Remix_Guitar,6,8,katyan_taturo,0.5445537567138672,0
57,100,0.35909090909090907,633,1,81,DL_Remix_Guitar,6,6,katyan_taturo,0.979256272315979,1
57,100,0.35909090909090907,30,1,82,DL_Remix_Guitar,6,6,katyan_taturo,0.979256272315979,0
58,100,0.18181818181818182,157,1,83,DL_Remix_Guitar,6,3,katyan_taturo,0.9990057349205017,1
58,100,0.8772727272727273,326,0,83,DL_Remix_Guitar,6,14,katyan_taturo,0.23120146989822388,0
63,100,0.33636363636363636,567,1,83,DL_Remix_Guitar,6,5,katyan_taturo,0.2659207284450531,0
52,100,0.17727272727272728,844,1,83,DL_Remix_Guitar,6,3,katyan_taturo,0.35419631004333496,0
52,100,0.38181818181818183,396,1,84,DL_Remix_Guitar,6,6,katyan_taturo,0.9792565107345581,0
62,100,0.2818181818181818,35,1,85,DL_Remix_Guitar,6,5,katyan_taturo,0.9990229606628418,1
62,100,0.35909090909090907,150,0,85,DL_Remix_Guitar,6,6,katyan_taturo,0.3666294515132904,0
59,100,0.2772727272727273,480,1,85,DL_Remix_Guitar,6,4,katyan_taturo,0.45330095291137695,0
57,100,0.17727272727272728,184,1,86,DL_Remix_Guitar,6,3,katyan_taturo,0.9983165264129639,1
57,100,0.3409090909090909,229,0,86,DL_Remix_Guitar,6,5,katyan_taturo,0.5445587038993835,0
55,100,0.16363636363636364,817,1,87,DL_Remix_Guitar,6,3,katyan_taturo,0.9792567491531372,0
55,100,0.1,43,1,88,DL_Remix_Guitar,6,2,katyan_taturo,0.9983165264129639,1
55,100,0.1,69,0,88,DL_Remix_Guitar,6,2,katyan_taturo,0.5445524454116821,0
56,100,0.1,356,1,89,DL_Remix_Guitar,6,2,katyan_taturo,0.9983164072036743,1
57,100,0.2590909090909091,743,1,89,DL_Remix_Guitar,6,4,katyan_taturo,0.5445629358291626,0
57,100,0.1409090909090909,22,1,90,DL_Remix_Guitar,6,2,katyan_taturo,0.9990057349205017,1
57,100,0.21818181818181817,216,0,90,DL_Remix_Guitar,6,3,katyan_taturo,0.23120929300785065,0
55,100,0.21818181818181817,766,1,90,DL_Remix_Guitar,6,3,katyan_taturo,0.26592817902565,0
55,100,0.4,817,0,90,DL_Remix_Guitar,6,6,katyan_taturo,0.3541980981826782,0
55,100,0.22272727272727272,862,1,91,DL_Remix_Guitar,6,4,katyan_taturo,0.9792567491531372,1
55,100,0.2409090909090909,66,1,92,DL_Remix_Guitar,6,4,katyan_taturo,0.9792566299438477,0
57,100,0.8,83,1,97,DL_Remix_Guitar,6,13,katyan_taturo,0.9990057349205017,1
52,100,0.2,707,1,97,DL_Remix_Guitar,6,3,katyan_taturo,0.23120398819446564,0
52,100,0.13636363636363635,766,0,97,DL_Remix_Guitar,6,2,katyan_taturo,0.2659249007701874,0
52,100,0.16363636363636364,839,0,97,DL_Remix_Guitar,6,3,katyan_taturo,0.3541988730430603,0
57,100,3.3,462,1,99,DL_Remix_Guitar,6,15,katyan_taturo,0.9792526364326477,0
55,100,0.2590909090909091,483,1,101,DL_Remix_Guitar,6,4,katyan_taturo,0.9983165264129639,1
67,100,0.4818181818181818,716,1,101,DL_Remix_Guitar,6,8,katyan_taturo,0.5445526242256165,0
67,100,0.4,857,1,102,DL_Remix_Guitar,6,6,katyan_taturo,0.9792558550834656,0
67,100,0.1,220,1,103,DL_Remix_Guitar,6,2,katyan_taturo,0.9990229606628418,1
67,100,0.1,276,0,103,DL_Remix_Guitar,6,2,katyan_taturo,0.36662378907203674,0
60,100,0.4818181818181818,399,0,103,DL_Remix_Guitar,6,8,katyan_taturo,0.45328792929649353,0
52,100,0.1590909090909091,273,1,104,DL_Remix_Guitar,6,3,katyan_taturo,0.9990230798721313,1
52,100,0.22272727272727272,540,1,104,DL_Remix_Guitar,6,4,katyan_taturo,0.36663001775741577,0
53,100,0.7772727272727272,756,0,104,DL_Remix_Guitar,6,12,katyan_taturo,0.45328930020332336,0
60,100,0.1,136,1,105,DL_Remix_Guitar,6,2,katyan_taturo,0.9988419413566589,1
53,100,0.4590909090909091,233,0,105,DL_Remix_Guitar,6,7,katyan_taturo,0.1372460573911667,0
53,100,0.5181818181818182,457,0,105,DL_Remix_Guitar,6,8,katyan_taturo,0.15977877378463745,0
53,100,0.5181818181818182,590,0,105,DL_Remix_Guitar,6,8,katyan_taturo,0.18644291162490845,0
52,100,0.11818181818181818,857,1,105,DL_Remix_Guitar,6,2,katyan_taturo,0.25816524028778076,0
52,100,0.3,66,1,106,DL_Remix_Guitar,6,5,katyan_taturo,0.9990229606628418,1
52,100,0.23636363636363636,567,1,106,DL_Remix_Guitar,6,4,katyan_taturo,0.3666251301765442,0
55,100,0.17727272727272728,853,1,106,DL_Remix_Guitar,6,3,katyan_taturo,0.4532921016216278,0
55,100,0.5181818181818182,404,1,107,DL_Remix_Guitar,6,8,katyan_taturo,0.9983165264129639,1
55,100,0.1,523,0,107,DL_Remix_Guitar,6,2,katyan_taturo,0.5445541143417358,0
57,100,0.12272727272727273,386,1,108,DL_Remix_Guitar,6,2,katyan_taturo,0.9983165264129639,1
55,100,0.6,567,0,108,DL_Remix_Guitar,6,10,katyan_taturo,0.5445607304573059,0
55,100,0.5409090909090909,3,1,109,DL_Remix_Guitar,6,9,katyan_taturo,0.9990057349205017,1
55,100,0.2636363636363636,136,0,109,DL_Remix_Guitar,6,4,katyan_taturo,0.2312028706073761,0
55,100,0.18181818181818182,519,1,109,DL_Remix_Guitar,6,3,katyan_taturo,0.2659199833869934,0
55,100,0.11818181818181818,590,0,109,DL_Remix_Guitar,6,2,katyan_taturo,0.3541862964630127,0
55,100,0.18181818181818182,87,1,110,DL_Remix_Guitar,6,3,katyan_taturo,0.9792566299438477,0
55,100,0.12272727272727273,399,1,111,DL_Remix_Guitar,6,2,katyan_taturo,0.9990230798721313,1
55,100,0.21818181818181817,436,0,111,DL_Remix_Guitar,6,3,katyan_taturo,0.366622656583786,0
67,100,0.11818181818181818,656,0,111,DL_Remix_Guitar,6,2,katyan_taturo,0.4532886743545532,0
56,100,0.1,426,1,112,DL_Remix_Guitar,6,2,katyan_taturo,0.9983165264129639,1
57,100,0.16363636363636364,532,0,112,DL_Remix_Guitar,6,3,katyan_taturo,0.5445584654808044,0
55,100,0.2409090909090909,642,1,113,DL_Remix_Guitar,6,4,katyan_taturo,0.9983165264129639,1
67,100,0.1409090909090909,857,0,113,DL_Remix_Guitar,6,2,katyan_taturo,0.5445564389228821,0
55,100,0.1590909090909091,9,1,114,DL_Remix_Guitar,6,3,katyan_taturo,0.9990229606628418,1
55,100,0.16363636363636364,47,0,114,DL_Remix_Guitar,6,3,katyan_taturo,0.3666190803050995,0
55,100,0.1409090909090909,179,0,114,DL_Remix_Guitar,6,2,katyan_taturo,0.4532903730869293,0
53,100,0.35909090909090907,17,1,115,DL_Remix_Guitar,6,6,katyan_taturo,0.9988419413566589,1
53,100,0.1590909090909091,282,1,115,DL_Remix_Guitar,6,3,katyan_taturo,0.13724569976329803,0
53,100,0.5818181818181818,320,0,115,DL_Remix_Guitar,6,9,katyan_taturo,0.15977978706359863,0
67,100,0.1,453,0,115,DL_Remix_Guitar,6,2,katyan_taturo,0.18644632399082184,0
60,100,0.5590909090909091,536,0,115,DL_Remix_Guitar,6,9,katyan_taturo,0.2581665515899658,0
67,100,0.2772727272727273,163,1,116,DL_Remix_Guitar,6,4,katyan_taturo,0.9990229606628418,1
55,100,0.1590909090909091,320,0,116,DL_Remix_Guitar,6,3,katyan_taturo,0.36663129925727844,0
67,100,0.1,540,0,116,DL_Remix_Guitar,6,2,katyan_taturo,0.45328792929649353,0
59,100,0.3181818181818182,713,1,117,DL_Remix_Guitar,6,5,katyan_taturo,0.9792563915252686,0
53,100,0.6363636363636364,83,1,118,DL_Remix_Guitar,6,10,katyan_taturo,0.9986500144004822,1
53,100,0.5409090909090909,299,0,118,DL_Remix_Guitar,6,9,katyan_taturo,0.08780338615179062,0
53,100,0.1409090909090909,426,0,118,DL_Remix_Guitar,6,2,katyan_taturo,0.09181506186723709,0
55,100,0.4,572,0,118,DL_Remix_Guitar,6,6,katyan_taturo,0.10747676342725754,0
67,100,0.1409090909090909,703,0,118,DL_Remix_Guitar,6,2,katyan_taturo,0.12482475489377975,0
53,100,0.7636363636363637,796,0,118,DL_Remix_Guitar,6,12,katyan_taturo,0.1790252923965454,0
53,100,0.35909090909090907,233,1,119,DL_Remix_Guitar,6,6,katyan_taturo,0.9986500144004822,1
53,100,0.18181818181818182,330,0,119,DL_Remix_Guitar,6,3,katyan_taturo,0.08780237287282944,0
53,100,0.1,466,0,119,DL_Remix_Guitar,6,2,katyan_taturo,0.09181322902441025,0
53,100,0.4636363636363636,576,0,119,DL_Remix_Guitar,6,7,katyan_taturo,0.10747698694467545,0
53,100,0.3,729,0,119,DL_Remix_Guitar,6,5,katyan_taturo,0.12482482939958572,0
67,100,0.1590909090909091,800,0,119,DL_Remix_Guitar,6,3,katyan_taturo,0.1790313720703125,0
53,100,0.1409090909090909,26,1,120,DL_Remix_Guitar,6,2,katyan_taturo,0.9990229606628418,1
52,100,0.3,722,1,120,DL_Remix_Guitar,6,5,katyan_taturo,0.3666245937347412,0
52,100,0.3,792,0,120,DL_Remix_Guitar,6,5,katyan_taturo,0.4532921314239502,0
52,100,0.2818181818181818,110,1,121,DL_Remix_Guitar,6,5,katyan_taturo,0.9983165264129639,1
55,100,0.2409090909090909,836,1,121,DL_Remix_Guitar,6,4,katyan_taturo,0.5445556640625,0
55,100,0.2772727272727273,426,1,122,DL_Remix_Guitar,6,4,katyan_taturo,0.9792569875717163,1
57,100,0.11818181818181818,638,1,0,_Guitar,6,2,ninjyouupbeat+,0.9792563915252686,0
52,100,0.32272727272727275,122,1,5,_Guitar,6,5,ninjyouupbeat+,0.9984880685806274,1
52,100,0.36363636363636365,201,0,5,_Guitar,6,6,ninjyouupbeat+,0.0633459985256195,0
53,100,0.1,373,0,5,_Guitar,6,2,ninjyouupbeat+,0.05774087458848953,0
52,100,0.2818181818181818,396,0,5,_Guitar,6,5,ninjyouupbeat+,0.060200124979019165,0
52,100,0.3409090909090909,475,0,5,_Guitar,6,5,ninjyouupbeat+,0.06969988346099854,0
52,100,0.3,568,0,5,_Guitar,6,5,ninjyouupbeat+,0.0818919837474823,0
52,100,0.3,647,0,5,_Guitar,6,5,ninjyouupbeat+,0.12402018159627914,0
59,100,0.5590909090909091,79,1,6,_Guitar,6,9,ninjyouupbeat+,0.9990057349205017,1
59,100,0.1590909090909091,276,0,6,_Guitar,6,3,ninjyouupbeat+,0.2312016487121582,0
52,100,0.8181818181818182,634,1,6,_Guitar,6,13,ninjyouupbeat+,0.265912264585495,0
52,100,0.2772727272727273,823,0,6,_Guitar,6,4,ninjyouupbeat+,0.35420066118240356,0
52,100,0.4409090909090909,12,1,7,_Guitar,6,7,ninjyouupbeat+,0.9988419413566589,1
52,100,1.1409090909090909,118,0,7,_Guitar,6,15,ninjyouupbeat+,0.13724765181541443,0
52,100,1.459090909090909,383,1,7,_Guitar,6,15,ninjyouupbeat+,0.1597767472267151,0
52,100,0.4409090909090909,726,1,7,_Guitar,6,7,ninjyouupbeat+,0.1864556521177292,0
52,100,0.7,836,0,7,_Guitar,6,11,ninjyouupbeat+,0.25817349553108215,0
52,100,0.1409090909090909,113,1,8,_Guitar,6,2,ninjyouupbeat+,0.9792571067810059,1
59,100,0.16363636363636364,70,1,9,_Guitar,6,3,ninjyouupbeat+,0.9792561531066895,0
59,100,0.11818181818181818,44,1,12,_Guitar,6,2,ninjyouupbeat+,0.9792566299438477,0
57,100,0.37727272727272726,53,1,13,_Guitar,6,6,ninjyouupbeat+,0.9990057349205017,1
57,100,0.22272727272727272,409,1,13,_Guitar,6,4,ninjyouupbeat+,0.23119889199733734,0
59,100,0.11818181818181818,766,1,13,_Guitar,6,2,ninjyouupbeat+,0.26592183113098145,0
59,100,0.2409090909090909,840,0,13,_Guitar,6,4,ninjyouupbeat+,0.35419660806655884,0
64,100,0.11818181818181818,53,1,14,_Guitar,6,2,ninjyouupbeat+,0.9984880685806274,1
59,100,0.1,92,0,14,_Guitar,6,2,ninjyouupbeat+,0.0633459985256195,0
59,100,0.4,285,0,14,_Guitar,6,6,ninjyouupbeat+,0.05774145945906639,0
64,100,0.2409090909090909,383,0,14,_Guitar,6,4,ninjyouupbeat+,0.0602010153234005,0
64,100,0.17727272727272728,536,0,14,_Guitar,6,3,ninjyouupbeat+,0.06970322132110596,0
64,100,0.6227272727272727,598,0,14,_Guitar,6,10,ninjyouupbeat+,0.0818944126367569,0
52,100,0.21818181818181817,823,0,14,_Guitar,6,3,ninjyouupbeat+,0.12402354180812836,0
52,100,0.1,56,1,15,_Guitar,6,2,ninjyouupbeat+,0.9986500144004822,1
52,100,0.3,132,0,15,_Guitar,6,5,ninjyouupbeat+,0.0878024697303772,0
64,100,0.8818181818181818,197,0,15,_Guitar,6,14,ninjyouupbeat+,0.09181187301874161,0
59,100,0.2,395,0,15,_Guitar,6,3,ninjyouupbeat+,0.10747870802879333,0
59,100,0.11818181818181818,493,0,15,_Guitar,6,2,ninjyouupbeat+,0.1248258426785469,0
64,100,0.18181818181818182,553,0,15,_Guitar,6,3,ninjyouupbeat+,0.1790372133255005,0
59,100,0.2,123,1,16,_Guitar,6,3,ninjyouupbeat+,0.9988419413566589,1
59,100,0.2409090909090909,175,0,16,_Guitar,6,4,ninjyouupbeat+,0.13724669814109802,0
52,100,0.2,326,0,16,_Guitar,6,3,ninjyouupbeat+,0.15977263450622559,0
64,100,0.1,413,0,16,_Guitar,6,2,ninjyouupbeat+,0.1864471435546875,0
64,100,0.12272727272727273,729,1,16,_Guitar,6,2,ninjyouupbeat+,0.2581694722175598,0
59,100,0.1,303,1,17,_Guitar,6,2,ninjyouupbeat+,0.9986500144004822,1
59,100,0.18181818181818182,333,0,17,_Guitar,6,3,ninjyouupbeat+,0.0878014788031578,0
59,100,0.22272727272727272,519,0,17,_Guitar,6,4,ninjyouupbeat+,0.09181340038776398,0
59,100,0.4,646,0,17,_Guitar,6,6,ninjyouupbeat+,0.1074742004275322,0
59,100,0.18181818181818182,739,0,17,_Guitar,6,3,ninjyouupbeat+,0.12482839822769165,0
59,100,0.21818181818181817,845,0,17,_Guitar,6,3,ninjyouupbeat+,0.17902901768684387,0
64,100,0.12272727272727273,113,1,18,_Guitar,6,2,ninjyouupbeat+,0.9984880685806274,1
52,100,0.2590909090909091,140,0,18,_Guitar,6,4,ninjyouupbeat+,0.06334475427865982,0
52,100,0.11818181818181818,220,0,18,_Guitar,6,2,ninjyouupbeat+,0.05774204432964325,0
52,100,0.35909090909090907,308,0,18,_Guitar,6,6,ninjyouupbeat+,0.0602024681866169,0
52,100,0.17727272727272728,413,0,18,_Guitar,6,3,ninjyouupbeat+,0.06970478594303131,0
64,100,0.2,752,1,18,_Guitar,6,3,ninjyouupbeat+,0.08189613372087479,0
61,100,0.1409090909090909,870,0,18,_Guitar,6,2,ninjyouupbeat+,0.12402351200580597,0
64,100,0.4,26,1,19,_Guitar,6,6,ninjyouupbeat+,0.9984880685806274,1
64,100,0.1590909090909091,140,0,19,_Guitar,6,3,ninjyouupbeat+,0.06334517896175385,0
64,100,0.32272727272727275,210,0,19,_Guitar,6,5,ninjyouupbeat+,0.05774262920022011,0
59,100,0.1,351,0,19,_Guitar,6,2,ninjyouupbeat+,0.060202065855264664,0
52,100,0.21818181818181817,505,0,19,_Guitar,6,3,ninjyouupbeat+,0.06970453262329102,0
64,100,0.35909090909090907,563,0,19,_Guitar,6,6,ninjyouupbeat+,0.08189607411623001,0
57,100,0.2,766,0,19,_Guitar,6,3,ninjyouupbeat+,0.12402499467134476,0
57,100,0.17727272727272728,30,1,20,_Guitar,6,3,ninjyouupbeat+,0.9988419413566589,1
64,100,0.1409090909090909,113,0,20,_Guitar,6,2,ninjyouupbeat+,0.13724800944328308,0
59,100,0.11818181818181818,162,0,20,_Guitar,6,2,ninjyouupbeat+,0.1597786694765091,0
59,100,0.11818181818181818,206,0,20,_Guitar,6,2,ninjyouupbeat+,0.18645209074020386,0
59,100,0.3181818181818182,492,1,20,_Guitar,6,5,ninjyouupbeat+,0.2581682503223419,0
52,100,0.3,136,1,21,_Guitar,6,5,ninjyouupbeat+,0.9986500144004822,1
64,100,0.11818181818181818,241,0,21,_Guitar,6,2,ninjyouupbeat+,0.08780457079410553,0
59,100,0.13636363636363635,326,0,21,_Guitar,6,2,ninjyouupbeat+,0.09181296825408936,0
64,100,0.2409090909090909,364,0,21,_Guitar,6,4,ninjyouupbeat+,0.10747795552015305,0
52,100,0.38181818181818183,466,0,21,_Guitar,6,6,ninjyouupbeat+,0.12482622265815735,0
64,100,0.2772727272727273,766,1,21,_Guitar,6,4,ninjyouupbeat+,0.17903651297092438,0
52,100,0.22272727272727272,752,1,22,_Guitar,6,4,ninjyouupbeat+,0.9990229606628418,1
64,100,0.1409090909090909,801,0,22,_Guitar,6,2,ninjyouupbeat+,0.36662572622299194,0
64,100,0.3409090909090909,839,0,22,_Guitar,6,5,ninjyouupbeat+,0.4532930254936218,0
64,100,0.1409090909090909,382,1,23,_Guitar,6,2,ninjyouupbeat+,0.9984880685806274,1
64,100,0.21818181818181817,436,0,23,_Guitar,6,3,ninjyouupbeat+,0.06334557384252548,0
64,100,0.1409090909090909,571,0,23,_Guitar,6,2,ninjyouupbeat+,0.05774271860718727,0
64,100,0.11818181818181818,615,0,23,_Guitar,6,2,ninjyouupbeat+,0.060204681009054184,0
52,100,0.35909090909090907,681,0,23,_Guitar,6,6,ninjyouupbeat+,0.06970594823360443,0
52,100,0.1409090909090909,791,0,23,_Guitar,6,2,ninjyouupbeat+,0.08189982920885086,0
59,100,0.18181818181818182,839,0,23,_Guitar,6,3,ninjyouupbeat+,0.12402743101119995,0
64,100,0.11818181818181818,40,1,24,_Guitar,6,2,ninjyouupbeat+,0.9990057349205017,1
64,100,0.1409090909090909,69,0,24,_Guitar,6,2,ninjyouupbeat+,0.23120467364788055,0
64,100,0.1409090909090909,233,0,24,_Guitar,6,2,ninjyouupbeat+,0.26592767238616943,0
57,100,0.22272727272727272,364,0,24,_Guitar,6,4,ninjyouupbeat+,0.3541991710662842,0
59,100,0.2590909090909091,233,1,25,_Guitar,6,4,ninjyouupbeat+,0.9990057349205017,1
59,100,0.2,378,0,25,_Guitar,6,3,ninjyouupbeat+,0.23120003938674927,0
59,100,0.3409090909090909,466,0,25,_Guitar,6,5,ninjyouupbeat+,0.26592424511909485,0
71,100,0.1,839,1,25,_Guitar,6,2,ninjyouupbeat+,0.3541935682296753,0
52,100,0.11818181818181818,61,1,27,_Guitar,6,2,ninjyouupbeat+,0.9983003735542297,1
52,100,0.3,299,1,27,_Guitar,6,5,ninjyouupbeat+,0.0446631982922554,0
59,100,0.13636363636363635,391,0,27,_Guitar,6,2,ninjyouupbeat+,0.0331491157412529,0
59,100,0.2590909090909091,430,0,27,_Guitar,6,4,ninjyouupbeat+,0.026579083874821663,0
59,100,0.18181818181818182,497,0,27,_Guitar,6,3,ninjyouupbeat+,0.023594778031110764,0
59,100,0.1,584,0,27,_Guitar,6,2,ninjyouupbeat+,0.02431400679051876,0
59,100,0.1409090909090909,691,0,27,_Guitar,6,2,ninjyouupbeat+,0.029689129441976547,0
64,100,0.1590909090909091,756,0,27,_Guitar,6,3,ninjyouupbeat+,0.040076956152915955,0
64,100,0.2,853,0,27,_Guitar,6,3,ninjyouupbeat+,0.07092905789613724,0
59,100,0.21818181818181817,131,1,28,_Guitar,6,3,ninjyouupbeat+,0.9984880685806274,1
59,100,0.1409090909090909,289,0,28,_Guitar,6,2,ninjyouupbeat+,0.06334444135427475,0
59,100,0.4,378,0,28,_Guitar,6,6,ninjyouupbeat+,0.05773991346359253,0
59,100,0.5,474,0,28,_Guitar,6,8,ninjyouupbeat+,0.06019926071166992,0
59,100,0.1590909090909091,590,0,28,_Guitar,6,3,ninjyouupbeat+,0.0696990042924881,0
59,100,0.3,656,0,28,_Guitar,6,5,ninjyouupbeat+,0.08189099282026291,0
64,100,0.2636363636363636,729,0,28,_Guitar,6,4,ninjyouupbeat+,0.12401966750621796,0
59,100,0.2,57,1,29,_Guitar,6,3,ninjyouupbeat+,0.9990229606628418,1
59,100,0.41818181818181815,127,0,29,_Guitar,6,7,ninjyouupbeat+,0.36661824584007263,0
59,100,0.1409090909090909,818,1,29,_Guitar,6,2,ninjyouupbeat+,0.4532916843891144,0
61,100,0.2409090909090909,223,1,30,_Guitar,6,4,ninjyouupbeat+,0.9988419413566589,1
64,100,0.2409090909090909,576,1,30,_Guitar,6,4,ninjyouupbeat+,0.13724997639656067,0
59,100,0.17727272727272728,721,0,30,_Guitar,6,3,ninjyouupbeat+,0.15977956354618073,0
59,100,0.1409090909090909,796,0,30,_Guitar,6,2,ninjyouupbeat+,0.18644979596138,0
54,100,0.5181818181818182,831,0,30,_Guitar,6,8,ninjyouupbeat+,0.2581663727760315,0
59,100,0.4590909090909091,96,1,31,_Guitar,6,7,ninjyouupbeat+,0.9983165264129639,1
64,100,0.11818181818181818,440,1,31,_Guitar,6,2,ninjyouupbeat+,0.5445634722709656,0
57,100,0.2409090909090909,123,1,32,_Guitar,6,4,ninjyouupbeat+,0.9983165264129639,1
59,100,0.1590909090909091,590,1,32,_Guitar,6,3,ninjyouupbeat+,0.5445602536201477,0
64,100,0.11818181818181818,18,1,33,_Guitar,6,2,ninjyouupbeat+,0.9990057349205017,1
57,100,0.1590909090909091,233,0,33,_Guitar,6,3,ninjyouupbeat+,0.23120205104351044,0
52,100,0.3,303,0,33,_Guitar,6,5,ninjyouupbeat+,0.2659202814102173,0
64,100,0.2409090909090909,664,1,33,_Guitar,6,4,ninjyouupbeat+,0.35420843958854675,0
59,100,0.1590909090909091,330,1,34,_Guitar,6,3,ninjyouupbeat+,0.9990057349205017,1
59,100,0.3409090909090909,471,0,34,_Guitar,6,5,ninjyouupbeat+,0.23120205104351044,0
59,100,0.12272727272727273,686,0,34,_Guitar,6,2,ninjyouupbeat+,0.2659241259098053,0
66,100,0.1409090909090909,783,0,34,_Guitar,6,2,ninjyouupbeat+,0.35419774055480957,0
59,100,0.18181818181818182,386,1,35,_Guitar,6,3,ninjyouupbeat+,0.9792565107345581,0
64,100,0.22272727272727272,201,1,36,_Guitar,6,4,ninjyouupbeat+,0.9990230798721313,1
64,100,0.12272727272727273,783,1,36,_Guitar,6,2,ninjyouupbeat+,0.3666243553161621,0
57,100,0.2818181818181818,836,0,36,_Guitar,6,5,ninjyouupbeat+,0.4532899856567383,0
64,100,0.2590909090909091,761,1,37,_Guitar,6,4,ninjyouupbeat+,0.9983164072036743,1
52,100,0.3181818181818182,831,0,37,_Guitar,6,5,ninjyouupbeat+,0.5445577502250671,0
52,100,0.13636363636363635,238,1,38,_Guitar,6,2,ninjyouupbeat+,0.9792567491531372,0
64,100,0.35909090909090907,383,1,39,_Guitar,6,6,ninjyouupbeat+,0.9990229606628418,1
52,100,0.17727272727272728,646,1,39,_Guitar,6,3,ninjyouupbeat+,0.3666236698627472,0
52,100,0.12272727272727273,826,0,39,_Guitar,6,2,ninjyouupbeat+,0.45329684019088745,0
52,100,0.2,206,1,40,_Guitar,6,3,ninjyouupbeat+,0.9990229606628418,1
52,100,0.12272727272727273,474,1,40,_Guitar,6,2,ninjyouupbeat+,0.3666183352470398,0
52,100,0.13636363636363635,743,1,40,_Guitar,6,2,ninjyouupbeat+,0.45329439640045166,0
59,100,0.16363636363636364,554,1,42,_Guitar,6,3,ninjyouupbeat+,0.9792561531066895,1
61,100,0.11818181818181818,110,1,43,_Guitar,6,2,ninjyouupbeat+,0.9792549014091492,0
61,100,0.2,114,1,44,_Guitar,6,3,ninjyouupbeat+,0.9986500144004822,1
61,100,0.33636363636363636,171,0,44,_Guitar,6,5,ninjyouupbeat+,0.08780686557292938,0
57,100,0.21818181818181817,330,0,44,_Guitar,6,3,ninjyouupbeat+,0.09181815385818481,0
57,100,0.42272727272727273,584,1,44,_Guitar,6,7,ninjyouupbeat+,0.10748663544654846,0
57,100,0.11818181818181818,691,0,44,_Guitar,6,2,ninjyouupbeat+,0.12483726441860199,0
57,100,0.12272727272727273,738,0,44,_Guitar,6,2,ninjyouupbeat+,0.1790452003479004,0
57,100,0.2,408,1,45,_Guitar,6,3,ninjyouupbeat+,0.9983165264129639,1
57,100,0.2818181818181818,576,0,45,_Guitar,6,5,ninjyouupbeat+,0.5445593595504761,0
64,100,0.35909090909090907,364,1,46,_Guitar,6,6,ninjyouupbeat+,0.9990229606628418,1
59,100,0.2772727272727273,646,1,46,_Guitar,6,4,ninjyouupbeat+,0.3666216731071472,0
59,100,0.1590909090909091,845,0,46,_Guitar,6,3,ninjyouupbeat+,0.45328769087791443,0
59,100,0.16363636363636364,91,1,47,_Guitar,6,3,ninjyouupbeat+,0.9990230798721313,1
59,100,0.4,466,1,47,_Guitar,6,6,ninjyouupbeat+,0.3666325807571411,0
68,100,0.3181818181818182,823,1,47,_Guitar,6,5,ninjyouupbeat+,0.4532868564128876,0
68,100,0.16363636363636364,26,1,48,_Guitar,6,3,ninjyouupbeat+,0.9990229606628418,1
61,100,0.1590909090909091,211,0,48,_Guitar,6,3,ninjyouupbeat+,0.3666185438632965,0
59,100,0.2,334,0,48,_Guitar,6,3,ninjyouupbeat+,0.45329251885414124,0
61,100,0.12272727272727273,48,1,49,_Guitar,6,2,ninjyouupbeat+,0.9990057349205017,1
57,100,0.22272727272727272,224,0,49,_Guitar,6,4,ninjyouupbeat+,0.2312111109495163,0
59,100,0.2,496,1,49,_Guitar,6,3,ninjyouupbeat+,0.2659249007701874,0
57,100,0.17727272727272728,735,1,49,_Guitar,6,3,ninjyouupbeat+,0.35419610142707825,0
54,100,0.21818181818181817,61,1,50,_Guitar,6,3,ninjyouupbeat+,0.9990230798721313,1
57,100,0.2409090909090909,131,0,50,_Guitar,6,4,ninjyouupbeat+,0.3666159212589264,0
54,100,0.2409090909090909,576,1,50,_Guitar,6,4,ninjyouupbeat+,0.4532955586910248,0
59,100,0.12272727272727273,861,1,51,_Guitar,6,2,ninjyouupbeat+,0.979256272315979,0
52,100,0.13636363636363635,523,1,52,_Guitar,6,2,ninjyouupbeat+,0.9983165264129639,1
52,100,0.1590909090909091,633,0,52,_Guitar,6,3,ninjyouupbeat+,0.5445606112480164,0
52,100,0.1590909090909091,88,1,53,_Guitar,6,3,ninjyouupbeat+,0.9984880685806274,1
64,100,0.1,386,1,53,_Guitar,6,2,ninjyouupbeat+,0.0633462518453598,0
52,100,0.17727272727272728,633,1,53,_Guitar,6,3,ninjyouupbeat+,0.057743556797504425,0
64,100,0.13636363636363635,721,0,53,_Guitar,6,2,ninjyouupbeat+,0.06020427867770195,0
52,100,0.3,765,0,53,_Guitar,6,5,ninjyouupbeat+,0.06970436871051788,0
64,100,0.11818181818181818,831,0,53,_Guitar,6,2,ninjyouupbeat+,0.08189771324396133,0
52,100,0.2590909090909091,858,0,53,_Guitar,6,4,ninjyouupbeat+,0.12402693182229996,0
52,100,0.3,40,1,54,_Guitar,6,5,ninjyouupbeat+,0.9988419413566589,1
52,100,0.17727272727272728,215,0,54,_Guitar,6,3,ninjyouupbeat+,0.13724780082702637,0
57,100,0.2409090909090909,295,0,54,_Guitar,6,4,ninjyouupbeat+,0.15977592766284943,0
64,100,0.1590909090909091,550,1,54,_Guitar,6,3,ninjyouupbeat+,0.18645216524600983,0
52,100,0.35909090909090907,593,0,54,_Guitar,6,6,ninjyouupbeat+,0.2581738531589508,0
52,100,0.21818181818181817,128,1,55,_Guitar,6,3,ninjyouupbeat+,0.9792567491531372,1
59,100,0.43636363636363634,633,1,56,_Guitar,6,7,ninjyouupbeat+,0.9792559146881104,0
52,100,0.18181818181818182,166,1,57,_Guitar,6,3,ninjyouupbeat+,0.9792567491531372,0
52,100,0.1590909090909091,413,1,58,_Guitar,6,3,ninjyouupbeat+,0.9983165264129639,1
52,100,0.13636363636363635,853,1,58,_Guitar,6,2,ninjyouupbeat+,0.5445596575737,0
52,100,0.1590909090909091,78,1,59,_Guitar,6,3,ninjyouupbeat+,0.9986500144004822,1
52,100,0.1409090909090909,153,0,59,_Guitar,6,2,ninjyouupbeat+,0.08780185878276825,0
52,100,0.1409090909090909,220,0,59,_Guitar,6,2,ninjyouupbeat+,0.09181322902441025,0
52,100,0.2,308,0,59,_Guitar,6,3,ninjyouupbeat+,0.10747756063938141,0
64,100,0.1590909090909091,351,0,59,_Guitar,6,3,ninjyouupbeat+,0.12482644617557526,0
59,100,0.11818181818181818,480,0,59,_Guitar,6,2,ninjyouupbeat+,0.1790354996919632,0
61,100,0.2818181818181818,748,1,61,_Guitar,6,5,ninjyouupbeat+,0.9792551398277283,0
68,100,0.2590909090909091,584,1,62,_Guitar,6,4,ninjyouupbeat+,0.9983165264129639,1
59,100,0.1,655,0,62,_Guitar,6,2,ninjyouupbeat+,0.5445577502250671,0
64,100,0.22272727272727272,123,1,63,_Guitar,6,4,ninjyouupbeat+,0.9990057349205017,1
54,100,0.2590909090909091,298,0,63,_Guitar,6,4,ninjyouupbeat+,0.23120011389255524,0
64,100,0.12272727272727273,408,0,63,_Guitar,6,2,ninjyouupbeat+,0.2659223675727844,0
64,100,0.22272727272727272,488,0,63,_Guitar,6,4,ninjyouupbeat+,0.3541989326477051,0
59,100,0.2,62,1,64,_Guitar,6,3,ninjyouupbeat+,0.9983165264129639,1
59,100,0.17727272727272728,713,1,64,_Guitar,6,3,ninjyouupbeat+,0.5445596575737,0
64,100,0.3409090909090909,289,1,65,_Guitar,6,5,ninjyouupbeat+,0.9983164072036743,1
57,100,0.3,377,0,65,_Guitar,6,5,ninjyouupbeat+,0.5445573329925537,0
61,100,0.17727272727272728,656,1,67,_Guitar,6,3,ninjyouupbeat+,0.9983164072036743,1
61,100,0.18181818181818182,826,0,67,_Guitar,6,3,ninjyouupbeat+,0.5445554852485657,0
52,100,0.11818181818181818,417,1,68,_Guitar,6,2,ninjyouupbeat+,0.9983165264129639,1
64,100,0.4590909090909091,726,1,68,_Guitar,6,7,ninjyouupbeat+,0.5445569753646851,0
59,100,0.1,140,1,69,_Guitar,6,2,ninjyouupbeat+,0.9986500144004822,1
59,100,0.22272727272727272,166,0,69,_Guitar,6,4,ninjyouupbeat+,0.08779918402433395,0
59,100,0.33636363636363636,392,0,69,_Guitar,6,5,ninjyouupbeat+,0.09181002527475357,0
59,100,0.1,496,0,69,_Guitar,6,2,ninjyouupbeat+,0.10747332870960236,0
59,100,0.21818181818181817,567,0,69,_Guitar,6,3,ninjyouupbeat+,0.12482164800167084,0
59,100,0.1409090909090909,779,0,69,_Guitar,6,2,ninjyouupbeat+,0.1790274679660797,0
61,100,0.17727272727272728,229,1,70,_Guitar,6,3,ninjyouupbeat+,0.9983164072036743,1
56,100,0.1590909090909091,660,1,70,_Guitar,6,3,ninjyouupbeat+,0.5445554852485657,0
56,100,0.2,303,1,71,_Guitar,6,3,ninjyouupbeat+,0.9983164072036743,1
52,100,0.13636363636363635,787,1,71,_Guitar,6,2,ninjyouupbeat+,0.5445600152015686,0
57,100,0.11818181818181818,127,1,72,_Guitar,6,2,ninjyouupbeat+,0.9792559146881104,0
61,100,0.1590909090909091,307,1,73,_Guitar,6,3,ninjyouupbeat+,0.9990057349205017,1
61,100,0.33636363636363636,480,0,73,_Guitar,6,5,ninjyouupbeat+,0.2312038093805313,0
61,100,0.11818181818181818,590,0,73,_Guitar,6,2,ninjyouupbeat+,0.26591524481773376,0
61,100,0.18181818181818182,739,0,73,_Guitar,6,3,ninjyouupbeat+,0.3541974723339081,0
59,100,0.18181818181818182,572,1,74,_Guitar,6,3,ninjyouupbeat+,0.9983165264129639,1
61,100,0.4590909090909091,726,0,74,_Guitar,6,7,ninjyouupbeat+,0.5445502996444702,0
61,100,0.11818181818181818,74,1,75,_Guitar,6,2,ninjyouupbeat+,0.9990229606628418,1
54,100,0.2590909090909091,233,0,75,_Guitar,6,4,ninjyouupbeat+,0.3666289150714874,0
56,100,0.3,483,1,75,_Guitar,6,5,ninjyouupbeat+,0.45329156517982483,0
52,100,0.2,409,1,76,_Guitar,6,3,ninjyouupbeat+,0.9990229606628418,1
59,100,0.17727272727272728,493,0,76,_Guitar,6,3,ninjyouupbeat+,0.3666203022003174,0
64,100,0.2409090909090909,576,0,76,_Guitar,6,4,ninjyouupbeat+,0.4532957673072815,0
59,100,0.1,289,1,77,_Guitar,6,2,ninjyouupbeat+,0.9983165264129639,1
59,100,0.1,813,1,77,_Guitar,6,2,ninjyouupbeat+,0.5445565581321716,0
59,100,0.18181818181818182,475,1,78,_Guitar,6,3,ninjyouupbeat+,0.9792559146881104,0
64,100,0.1409090909090909,475,1,79,_Guitar,6,2,ninjyouupbeat+,0.9990229606628418,1
64,100,0.1590909090909091,519,0,79,_Guitar,6,3,ninjyouupbeat+,0.36662548780441284,0
59,100,0.4590909090909091,572,0,79,_Guitar,6,7,ninjyouupbeat+,0.45328742265701294,0
52,100,0.1409090909090909,0,1,80,_Guitar,6,2,ninjyouupbeat+,0.9984880685806274,1
52,100,0.1,62,0,80,_Guitar,6,2,ninjyouupbeat+,0.06334608793258667,0
52,100,0.12272727272727273,233,0,80,_Guitar,6,2,ninjyouupbeat+,0.05774398893117905,0
64,100,0.2,422,0,80,_Guitar,6,3,ninjyouupbeat+,0.060204584151506424,0
52,100,0.4772727272727273,546,0,80,_Guitar,6,8,ninjyouupbeat+,0.0697053074836731,0
52,100,0.17727272727272728,743,0,80,_Guitar,6,3,ninjyouupbeat+,0.08189847320318222,0
59,100,0.42272727272727273,805,0,80,_Guitar,6,7,ninjyouupbeat+,0.12402629852294922,0
59,100,0.38181818181818183,637,1,81,_Guitar,6,6,ninjyouupbeat+,0.9792556166648865,0
59,100,0.18181818181818182,299,1,82,_Guitar,6,3,ninjyouupbeat+,0.9990057349205017,1
59,100,0.2772727272727273,404,0,82,_Guitar,6,4,ninjyouupbeat+,0.23119860887527466,0
59,100,0.2772727272727273,470,0,82,_Guitar,6,4,ninjyouupbeat+,0.265912801027298,0
64,100,0.3409090909090909,734,1,82,_Guitar,6,5,ninjyouupbeat+,0.3541931211948395,0
64,100,0.5,26,1,83,_Guitar,6,8,ninjyouupbeat+,0.9988419413566589,1
64,100,0.6,157,0,83,_Guitar,6,10,ninjyouupbeat+,0.13724857568740845,0
64,100,0.1590909090909091,559,1,83,_Guitar,6,3,ninjyouupbeat+,0.15977656841278076,0
64,100,0.2,646,0,83,_Guitar,6,3,ninjyouupbeat+,0.18644979596138,0
64,100,0.11818181818181818,743,0,83,_Guitar,6,2,ninjyouupbeat+,0.2581750154495239,0
64,100,0.2,123,1,84,_Guitar,6,3,ninjyouupbeat+,0.9983003735542297,1
64,100,0.13636363636363635,172,0,84,_Guitar,6,2,ninjyouupbeat+,0.044663943350315094,0
64,100,0.3,242,0,84,_Guitar,6,5,ninjyouupbeat+,0.0331493616104126,0
64,100,0.2409090909090909,312,0,84,_Guitar,6,4,ninjyouupbeat+,0.026580050587654114,0
64,100,0.3181818181818182,373,0,84,_Guitar,6,5,ninjyouupbeat+,0.023595646023750305,0
59,100,0.1,470,0,84,_Guitar,6,2,ninjyouupbeat+,0.024314722046256065,0
52,100,0.3,663,0,84,_Guitar,6,5,ninjyouupbeat+,0.029690297320485115,0
52,100,0.11818181818181818,787,0,84,_Guitar,6,2,ninjyouupbeat+,0.04007882997393608,0
59,100,0.18181818181818182,839,0,84,_Guitar,6,3,ninjyouupbeat+,0.07092975825071335,0
59,100,0.1,30,1,85,_Guitar,6,2,ninjyouupbeat+,0.9990230798721313,1
59,100,0.2409090909090909,756,1,85,_Guitar,6,4,ninjyouupbeat+,0.3666251599788666,0
64,100,0.22272727272727272,826,0,85,_Guitar,6,4,ninjyouupbeat+,0.45329347252845764,0
64,100,0.11818181818181818,30,1,86,_Guitar,6,2,ninjyouupbeat+,0.9986500144004822,1
64,100,0.1409090909090909,74,0,86,_Guitar,6,2,ninjyouupbeat+,0.08780054748058319,0
52,100,0.32272727272727275,377,1,86,_Guitar,6,5,ninjyouupbeat+,0.09181275218725204,0
59,100,0.41818181818181815,470,0,86,_Guitar,6,7,ninjyouupbeat+,0.10747534781694412,0
59,100,0.1,663,0,86,_Guitar,6,2,ninjyouupbeat+,0.1248253807425499,0
59,100,0.2409090909090909,813,0,86,_Guitar,6,4,ninjyouupbeat+,0.1790345162153244,0
59,100,0.22272727272727272,13,1,87,_Guitar,6,4,ninjyouupbeat+,0.9986500144004822,1
59,100,0.2409090909090909,74,0,87,_Guitar,6,4,ninjyouupbeat+,0.0878024697303772,0
59,100,0.1,197,0,87,_Guitar,6,2,ninjyouupbeat+,0.09181256592273712,0
59,100,0.1,294,0,87,_Guitar,6,2,ninjyouupbeat+,0.10747598111629486,0
64,100,0.35909090909090907,483,0,87,_Guitar,6,6,ninjyouupbeat+,0.12482838332653046,0
61,100,0.2409090909090909,747,1,87,_Guitar,6,4,ninjyouupbeat+,0.17903269827365875,0
68,100,0.16363636363636364,817,1,88,_Guitar,6,3,ninjyouupbeat+,0.9792561531066895,1
59,100,0.32272727272727275,453,1,89,_Guitar,6,5,ninjyouupbeat+,0.9792556166648865,0
59,100,0.22272727272727272,145,1,90,_Guitar,6,4,ninjyouupbeat+,0.9988419413566589,1
59,100,0.2,352,0,90,_Guitar,6,3,ninjyouupbeat+,0.13724640011787415,0
59,100,0.1590909090909091,404,0,90,_Guitar,6,3,ninjyouupbeat+,0.15978114306926727,0
59,100,0.2590909090909091,590,0,90,_Guitar,6,4,ninjyouupbeat+,0.18645113706588745,0
68,100,0.18181818181818182,673,0,90,_Guitar,6,3,ninjyouupbeat+,0.25816306471824646,0
64,100,0.2590909090909091,87,1,91,_Guitar,6,4,ninjyouupbeat+,0.9990229606628418,1
59,100,0.21818181818181817,392,1,91,_Guitar,6,3,ninjyouupbeat+,0.366616427898407,0
64,100,0.1409090909090909,483,0,91,_Guitar,6,2,ninjyouupbeat+,0.45329272747039795,0
52,100,0.1,62,1,92,_Guitar,6,2,ninjyouupbeat+,0.9983736276626587,1
64,100,0.1,140,0,92,_Guitar,6,2,ninjyouupbeat+,0.0510609932243824,0
59,100,0.1409090909090909,197,0,92,_Guitar,6,2,ninjyouupbeat+,0.041303280740976334,0
59,100,0.2409090909090909,233,0,92,_Guitar,6,4,ninjyouupbeat+,0.03738659620285034,0
52,100,0.2818181818181818,299,0,92,_Guitar,6,5,ninjyouupbeat+,0.03832996264100075,0
64,100,0.1590909090909091,360,0,92,_Guitar,6,3,ninjyouupbeat+,0.04475151002407074,0
52,100,0.16363636363636364,399,0,92,_Guitar,6,3,ninjyouupbeat+,0.05523017793893814,0
64,100,0.22272727272727272,553,0,92,_Guitar,6,4,ninjyouupbeat+,0.09026720374822617,0
59,100,0.4409090909090909,210,1,93,_Guitar,6,7,ninjyouupbeat+,0.9990057349205017,1
59,100,0.22272727272727272,377,0,93,_Guitar,6,4,ninjyouupbeat+,0.23120221495628357,0
59,100,0.1590909090909091,603,0,93,_Guitar,6,3,ninjyouupbeat+,0.2659159004688263,0
59,100,0.2409090909090909,770,0,93,_Guitar,6,4,ninjyouupbeat+,0.3541952073574066,0
64,100,0.2818181818181818,132,1,94,_Guitar,6,5,ninjyouupbeat+,0.9990229606628418,1
64,100,0.1409090909090909,220,0,94,_Guitar,6,2,ninjyouupbeat+,0.3666202127933502,0
64,100,0.22272727272727272,430,0,94,_Guitar,6,4,ninjyouupbeat+,0.45329350233078003,0
64,100,0.1590909090909091,123,1,95,_Guitar,6,3,ninjyouupbeat+,0.9990229606628418,1
64,100,0.11818181818181818,303,0,95,_Guitar,6,2,ninjyouupbeat+,0.366615355014801,0
52,100,0.12272727272727273,650,1,95,_Guitar,6,2,ninjyouupbeat+,0.4532953202724457,0
59,100,0.42272727272727273,356,1,96,_Guitar,6,7,ninjyouupbeat+,0.9983165264129639,1
59,100,0.3409090909090909,585,0,96,_Guitar,6,5,ninjyouupbeat+,0.544559121131897,0
59,100,0.13636363636363635,83,1,97,_Guitar,6,2,ninjyouupbeat+,0.9988419413566589,1
64,100,0.13636363636363635,260,0,97,_Guitar,6,2,ninjyouupbeat+,0.1372484564781189,0
64,100,0.1409090909090909,496,1,97,_Guitar,6,2,ninjyouupbeat+,0.15977735817432404,0
64,100,0.2636363636363636,597,0,97,_Guitar,6,4,ninjyouupbeat+,0.18645070493221283,0
64,100,0.5818181818181818,826,0,97,_Guitar,6,9,ninjyouupbeat+,0.2581685781478882,0
64,100,0.2590909090909091,100,1,98,_Guitar,6,4,ninjyouupbeat+,0.9990057349205017,1
52,100,0.1409090909090909,157,0,98,_Guitar,6,2,ninjyouupbeat+,0.23121093213558197,0
64,100,0.22272727272727272,189,0,98,_Guitar,6,4,ninjyouupbeat+,0.26593199372291565,0
57,100,0.12272727272727273,783,1,98,_Guitar,6,2,ninjyouupbeat+,0.35420072078704834,0
64,100,0.1,197,1,99,_Guitar,6,2,ninjyouupbeat+,0.9988419413566589,1
52,100,0.35909090909090907,220,0,99,_Guitar,6,6,ninjyouupbeat+,0.13724686205387115,0
52,100,0.13636363636363635,326,0,99,_Guitar,6,2,ninjyouupbeat+,0.15977920591831207,0
59,100,0.1,690,1,99,_Guitar,6,2,ninjyouupbeat+,0.18644937872886658,0
59,100,0.1590909090909091,716,0,99,_Guitar,6,3,ninjyouupbeat+,0.25817060470581055,0
64,100,0.11818181818181818,514,1,100,_Guitar,6,2,ninjyouupbeat+,0.9990057349205017,1
68,100,0.2772727272727273,559,0,100,_Guitar,6,4,ninjyouupbeat+,0.23118913173675537,0
59,100,0.12272727272727273,695,0,100,_Guitar,6,2,ninjyouupbeat+,0.26591813564300537,0
64,100,0.2,832,0,100,_Guitar,6,3,ninjyouupbeat+,0.3541933000087738,0
68,100,0.21818181818181817,119,1,101,_Guitar,6,3,ninjyouupbeat+,0.9990229606628418,1
59,100,0.11818181818181818,612,1,101,_Guitar,6,2,ninjyouupbeat+,0.36661797761917114,0
59,100,0.1590909090909091,787,0,101,_Guitar,6,3,ninjyouupbeat+,0.4532896876335144,0
59,100,0.1590909090909091,172,1,102,_Guitar,6,3,ninjyouupbeat+,0.9983165264129639,1
56,100,0.6818181818181818,660,1,102,_Guitar,6,11,ninjyouupbeat+,0.5445461869239807,0
59,100,0.1409090909090909,255,1,103,_Guitar,6,2,ninjyouupbeat+,0.9983165264129639,1
59,100,0.1590909090909091,470,0,103,_Guitar,6,3,ninjyouupbeat+,0.5445551872253418,0
59,100,0.1409090909090909,69,1,104,_Guitar,6,2,ninjyouupbeat+,0.9983165264129639,1
59,100,0.4409090909090909,343,1,104,_Guitar,6,7,ninjyouupbeat+,0.5445559024810791,0
71,100,0.1409090909090909,862,1,105,_Guitar,6,2,ninjyouupbeat+,0.979256272315979,0
83,100,0.12272727272727273,26,1,106,_Guitar,6,2,ninjyouupbeat+,0.9983165264129639,1
83,100,0.1590909090909091,140,0,106,_Guitar,6,3,ninjyouupbeat+,0.5445571541786194,0
59,100,0.7,62,1,107,_Guitar,6,11,ninjyouupbeat+,0.9983165264129639,1
59,100,0.32272727272727275,233,0,107,_Guitar,6,5,ninjyouupbeat+,0.5445585250854492,0
59,100,0.2590909090909091,779,1,108,_Guitar,6,4,ninjyouupbeat+,0.9792566299438477,1
54,100,0.1,857,1,109,_Guitar,6,2,ninjyouupbeat+,0.979256272315979,0
54,100,1.7,179,1,110,_Guitar,6,15,ninjyouupbeat+,0.9983165264129639,1
56,100,0.1590909090909091,572,1,110,_Guitar,6,3,ninjyouupbeat+,0.5445518493652344,0
59,100,0.12272727272727273,255,1,111,_Guitar,6,2,ninjyouupbeat+,0.9792560338973999,0
59,100,0.17727272727272728,83,1,112,_Guitar,6,3,ninjyouupbeat+,0.9983165264129639,1
64,100,1.1636363636363636,729,1,112,_Guitar,6,15,ninjyouupbeat+,0.5445586442947388,0
52,100,0.2,210,1,113,_Guitar,6,3,ninjyouupbeat+,0.9983165264129639,1
59,100,0.2818181818181818,747,1,113,_Guitar,6,5,ninjyouupbeat+,0.5445557832717896,0
59,100,0.3181818181818182,127,1,114,_Guitar,6,5,ninjyouupbeat+,0.9983165264129639,1
59,100,0.1,606,1,114,_Guitar,6,2,ninjyouupbeat+,0.5445601940155029,0
64,100,0.18181818181818182,66,1,115,_Guitar,6,3,ninjyouupbeat+,0.9988419413566589,1
64,100,0.4409090909090909,206,0,115,_Guitar,6,7,ninjyouupbeat+,0.13724705576896667,0
64,100,0.3,386,0,115,_Guitar,6,5,ninjyouupbeat+,0.15977825224399567,0
64,100,0.4409090909090909,726,1,115,_Guitar,6,7,ninjyouupbeat+,0.18644727766513824,0
64,100,0.2,832,0,115,_Guitar,6,3,ninjyouupbeat+,0.25817450881004333,0
64,100,0.3409090909090909,22,1,116,_Guitar,6,5,ninjyouupbeat+,0.9988419413566589,1
64,100,0.1,127,0,116,_Guitar,6,2,ninjyouupbeat+,0.13724443316459656,0
64,100,0.1,197,0,116,_Guitar,6,2,ninjyouupbeat+,0.1597776710987091,0
59,100,0.22272727272727272,233,0,116,_Guitar,6,4,ninjyouupbeat+,0.186451718211174,0
54,100,0.1409090909090909,646,1,116,_Guitar,6,2,ninjyouupbeat+,0.25816774368286133,0
59,100,0.42272727272727273,35,1,117,_Guitar,6,7,ninjyouupbeat+,0.9990229606628418,1
59,100,0.3,132,0,117,_Guitar,6,5,ninjyouupbeat+,0.36662527918815613,0
59,100,0.1,716,1,117,_Guitar,6,2,ninjyouupbeat+,0.45328977704048157,0
59,100,0.37727272727272726,119,1,118,_Guitar,6,6,ninjyouupbeat+,0.9988419413566589,1
64,100,0.2409090909090909,233,0,118,_Guitar,6,4,ninjyouupbeat+,0.13724638521671295,0
59,100,0.3409090909090909,383,0,118,_Guitar,6,5,ninjyouupbeat+,0.1597740203142166,0
52,100,0.22272727272727272,496,0,118,_Guitar,6,4,ninjyouupbeat+,0.18644660711288452,0
64,100,0.1409090909090909,660,0,118,_Guitar,6,2,ninjyouupbeat+,0.2581667900085449,0
59,100,0.2590909090909091,756,1,119,_Guitar,6,4,ninjyouupbeat+,0.9792561531066895,0
52,100,0.2409090909090909,56,1,120,_Guitar,6,4,ninjyouupbeat+,0.9986500144004822,1
59,100,0.2636363636363636,202,0,120,_Guitar,6,4,ninjyouupbeat+,0.08780086785554886,0
59,100,0.21818181818181817,426,0,120,_Guitar,6,3,ninjyouupbeat+,0.09181128442287445,0
59,100,0.1409090909090909,739,1,120,_Guitar,6,2,ninjyouupbeat+,0.10747583955526352,0
59,100,0.1,796,0,120,_Guitar,6,2,ninjyouupbeat+,0.12482453137636185,0
59,100,0.4409090909090909,823,0,120,_Guitar,6,7,ninjyouupbeat+,0.17903020977973938,0
64,100,0.23636363636363636,392,1,121,_Guitar,6,4,ninjyouupbeat+,0.9983165264129639,1
64,100,0.1590909090909091,475,0,121,_Guitar,6,3,ninjyouupbeat+,0.5445578694343567,0
59,100,0.3181818181818182,43,1,122,_Guitar,6,5,ninjyouupbeat+,0.9986500144004822,1
64,100,0.18181818181818182,123,0,122,_Guitar,6,3,ninjyouupbeat+,0.08780205249786377,0
64,100,0.36363636363636365,289,0,122,_Guitar,6,6,ninjyouupbeat+,0.0918126329779625,0
64,100,0.21818181818181817,404,0,122,_Guitar,6,3,ninjyouupbeat+,0.10747882723808289,0
59,100,0.2,695,1,122,_Guitar,6,3,ninjyouupbeat+,0.1248294934630394,0
59,100,0.2,752,0,122,_Guitar,6,3,ninjyouupbeat+,0.17903269827365875,0
59,100,0.2636363636363636,399,1,123,_Guitar,6,4,ninjyouupbeat+,0.9990229606628418,1
64,100,0.1590909090909091,800,1,123,_Guitar,6,3,ninjyouupbeat+,0.3666214942932129,0
64,100,0.2590909090909091,849,0,123,_Guitar,6,4,ninjyouupbeat+,0.45329248905181885,0
59,100,0.1,30,1,124,_Guitar,6,2,ninjyouupbeat+,0.9984880685806274,1
59,100,0.2590909090909091,62,0,124,_Guitar,6,4,ninjyouupbeat+,0.06334514915943146,0
59,100,0.21818181818181817,417,1,124,_Guitar,6,3,ninjyouupbeat+,0.05774284526705742,0
59,100,0.11818181818181818,483,0,124,_Guitar,6,2,ninjyouupbeat+,0.060203906148672104,0
59,100,0.1,576,0,124,_Guitar,6,2,ninjyouupbeat+,0.06970681250095367,0
59,100,0.5772727272727273,603,0,124,_Guitar,6,9,ninjyouupbeat+,0.08189602941274643,0
59,100,0.2772727272727273,756,0,124,_Guitar,6,4,ninjyouupbeat+,0.1240294799208641,0
59,100,0.2,153,1,125,_Guitar,6,3,ninjyouupbeat+,0.9792559146881104,0
59,100,0.6590909090909091,172,1,126,_Guitar,6,11,ninjyouupbeat+,0.9990229606628418,1
59,100,0.5409090909090909,365,0,126,_Guitar,6,9,ninjyouupbeat+,0.3666156530380249,0
54,100,0.6363636363636364,722,1,126,_Guitar,6,10,ninjyouupbeat+,0.4532926380634308,0
59,100,1.4772727272727273,546,1,128,_Guitar,6,15,ninjyouupbeat+,0.9792554974555969,0
59,100,0.12272727272727273,70,1,129,_Guitar,6,2,ninjyouupbeat+,0.9990057349205017,1
52,100,1.940909090909091,118,0,129,_Guitar,6,15,ninjyouupbeat+,0.23119781911373138,0
52,100,0.1590909090909091,580,1,129,_Guitar,6,3,ninjyouupbeat+,0.2659236788749695,0
52,100,0.13636363636363635,743,0,129,_Guitar,6,2,ninjyouupbeat+,0.35420310497283936,0
59,100,0.1,527,1,130,_Guitar,6,2,ninjyouupbeat+,0.9792560338973999,0
64,100,0.6818181818181818,232,1,131,_Guitar,6,11,ninjyouupbeat+,0.9990057349205017,1
64,100,0.13636363636363635,436,0,131,_Guitar,6,2,ninjyouupbeat+,0.2312023639678955,0
64,100,0.35909090909090907,656,0,131,_Guitar,6,6,ninjyouupbeat+,0.26592159271240234,0
59,100,0.2,751,0,131,_Guitar,6,3,ninjyouupbeat+,0.3542027771472931,0
64,100,0.4409090909090909,189,1,132,_Guitar,6,7,ninjyouupbeat+,0.9990229606628418,1
52,100,1.3,285,0,132,_Guitar,6,15,ninjyouupbeat+,0.3666139543056488,0
52,100,0.3,633,1,132,_Guitar,6,5,ninjyouupbeat+,0.4532982110977173,0
66,100,0.18181818181818182,835,1,133,_Guitar,6,3,ninjyouupbeat+,0.9792566299438477,0
52,100,0.2818181818181818,197,1,134,_Guitar,6,5,ninjyouupbeat+,0.9983165264129639,1
59,100,0.11818181818181818,690,1,134,_Guitar,6,2,ninjyouupbeat+,0.5445545315742493,0
64,100,0.6818181818181818,770,1,135,_Guitar,6,11,ninjyouupbeat+,0.9792569875717163,0
64,100,0.1409090909090909,44,1,136,_Guitar,6,2,ninjyouupbeat+,0.9983165264129639,1
59,100,0.3,840,1,136,_Guitar,6,5,ninjyouupbeat+,0.5445607304573059,0
52,100,0.35909090909090907,207,1,137,_Guitar,6,6,ninjyouupbeat+,0.9988419413566589,1
59,100,0.21818181818181817,458,1,137,_Guitar,6,3,ninjyouupbeat+,0.13724879920482635,0
59,100,0.1409090909090909,510,0,137,_Guitar,6,2,ninjyouupbeat+,0.15978334844112396,0
56,100,0.13636363636363635,678,0,137,_Guitar,6,2,ninjyouupbeat+,0.18644879758358002,0
56,100,0.1590909090909091,747,0,137,_Guitar,6,3,ninjyouupbeat+,0.25816309452056885,0
57,100,0.4590909090909091,53,1,138,_Guitar,6,7,ninjyouupbeat+,0.9990230798721313,1
57,100,0.3409090909090909,207,0,138,_Guitar,6,5,ninjyouupbeat+,0.36662617325782776,0
52,100,0.21818181818181817,835,1,138,_Guitar,6,3,ninjyouupbeat+,0.45329567790031433,0
57,100,0.17727272727272728,118,1,139,_Guitar,6,3,ninjyouupbeat+,0.9983736276626587,1
57,100,0.41818181818181815,197,0,139,_Guitar,6,7,ninjyouupbeat+,0.05106175318360329,0
59,100,0.2818181818181818,311,0,139,_Guitar,6,5,ninjyouupbeat+,0.041304487735033035,0
59,100,0.1590909090909091,562,1,139,_Guitar,6,3,ninjyouupbeat+,0.03738732635974884,0
59,100,0.11818181818181818,603,0,139,_Guitar,6,2,ninjyouupbeat+,0.03833100572228432,0
52,100,0.11818181818181818,678,0,139,_Guitar,6,2,ninjyouupbeat+,0.04475301876664162,0
64,100,0.1,735,0,139,_Guitar,6,2,ninjyouupbeat+,0.055230703204870224,0
52,100,0.11818181818181818,800,0,139,_Guitar,6,2,ninjyouupbeat+,0.09026885032653809,0
52,100,0.7,106,1,140,_Guitar,6,11,ninjyouupbeat+,0.9990229606628418,1
56,100,0.2409090909090909,299,0,140,_Guitar,6,4,ninjyouupbeat+,0.36661913990974426,0
59,100,0.18181818181818182,826,1,140,_Guitar,6,3,ninjyouupbeat+,0.4532913565635681,0
52,100,0.4590909090909091,391,1,141,_Guitar,6,7,ninjyouupbeat+,0.9990229606628418,1
52,100,0.1409090909090909,505,0,141,_Guitar,6,2,ninjyouupbeat+,0.366630882024765,0
57,100,0.1,589,0,141,_Guitar,6,2,ninjyouupbeat+,0.4532835781574249,0
59,100,0.42272727272727273,246,1,142,_Guitar,6,7,ninjyouupbeat+,0.9990057349205017,1
52,100,0.1,699,1,142,_Guitar,6,2,ninjyouupbeat+,0.23120827972888947,0
52,100,0.1,804,0,142,_Guitar,6,2,ninjyouupbeat+,0.2659226357936859,0
52,100,0.759090909090909,849,0,142,_Guitar,6,12,ninjyouupbeat+,0.3542026877403259,0
52,100,0.1409090909090909,158,1,143,_Guitar,6,2,ninjyouupbeat+,0.9990057349205017,1
52,100,0.11818181818181818,307,0,143,_Guitar,6,2,ninjyouupbeat+,0.2311994880437851,0
52,100,0.2409090909090909,405,0,143,_Guitar,6,4,ninjyouupbeat+,0.2659209072589874,0
52,100,0.38181818181818183,519,0,143,_Guitar,6,6,ninjyouupbeat+,0.35419929027557373,0
64,100,0.1,30,1,144,_Guitar,6,2,ninjyouupbeat+,0.9983165264129639,1
52,100,0.13636363636363635,479,1,144,_Guitar,6,2,ninjyouupbeat+,0.544557511806488,0
58,100,0.17727272727272728,273,1,6,_Guitar,6,3, Stems,0.9983165264129639,1
58,100,0.13636363636363635,590,1,6,_Guitar,6,2, Stems,0.5445541143417358,0
58,100,0.2,40,1,7,_Guitar,6,3, Stems,0.9990057349205017,1
56,100,0.12272727272727273,268,0,7,_Guitar,6,2, Stems,0.23119999468326569,0
58,100,0.5181818181818182,360,0,7,_Guitar,6,8, Stems,0.26591408252716064,0
58,100,0.1409090909090909,685,1,7,_Guitar,6,2, Stems,0.3541937470436096,0
58,100,0.2590909090909091,123,1,8,_Guitar,6,4, Stems,0.9990230798721313,1
58,100,0.3181818181818182,440,1,8,_Guitar,6,5, Stems,0.3666347861289978,0
58,100,0.5409090909090909,752,1,8,_Guitar,6,9, Stems,0.4532819390296936,0
58,100,0.6181818181818182,185,1,9,_Guitar,6,10, Stems,0.9990229606628418,1
58,100,0.5,524,1,9,_Guitar,6,8, Stems,0.3666250705718994,0
58,100,0.18181818181818182,857,1,9,_Guitar,6,3, Stems,0.4532875418663025,0
58,100,0.1,25,1,10,_Guitar,6,2, Stems,0.9990230798721313,1
58,100,0.5227272727272727,290,1,10,_Guitar,6,8, Stems,0.3666200041770935,0
58,100,0.5,625,1,10,_Guitar,6,8, Stems,0.45328783988952637,0
58,100,0.11818181818181818,53,1,11,_Guitar,6,2, Stems,0.9990230798721313,1
58,100,0.6,374,1,11,_Guitar,6,10, Stems,0.3666243851184845,0
58,100,0.5590909090909091,682,1,11,_Guitar,6,9, Stems,0.45329445600509644,0
58,100,0.38181818181818183,792,1,12,_Guitar,6,6, Stems,0.9792567491531372,0
56,100,0.18181818181818182,135,1,13,_Guitar,6,3, Stems,0.9990057349205017,1
58,100,0.5772727272727273,216,0,13,_Guitar,6,9, Stems,0.2312053143978119,0
58,100,0.5181818181818182,550,1,13,_Guitar,6,8, Stems,0.2659130096435547,0
58,100,0.3409090909090909,871,1,13,_Guitar,6,5, Stems,0.35419782996177673,0
58,100,0.1,312,1,14,_Guitar,6,2, Stems,0.9990229606628418,1
58,100,0.21818181818181817,338,0,14,_Guitar,6,3, Stems,0.3666245937347412,0
58,100,0.2818181818181818,637,1,14,_Guitar,6,5, Stems,0.45328494906425476,0
63,100,0.18181818181818182,817,1,74,_Guitar,6,3, Stems,0.979256272315979,0
55,100,0.11818181818181818,457,1,75,_Guitar,6,2, Stems,0.9990057349205017,1
63,100,0.12272727272727273,597,0,75,_Guitar,6,2, Stems,0.23120445013046265,0
63,100,0.2818181818181818,637,0,75,_Guitar,6,5, Stems,0.2659194767475128,0
63,100,0.2409090909090909,729,0,75,_Guitar,6,4, Stems,0.3542093336582184,0
55,100,0.1,17,1,77,_Guitar,6,2, Stems,0.9988419413566589,1
63,100,0.8409090909090909,163,0,77,_Guitar,6,13, Stems,0.1372486650943756,0
63,100,0.18181818181818182,352,0,77,_Guitar,6,3, Stems,0.15978573262691498,0
56,100,0.2,669,1,77,_Guitar,6,3, Stems,0.1864631026983261,0
63,100,0.4,857,0,77,_Guitar,6,6, Stems,0.2581709921360016,0
56,100,0.2590909090909091,189,1,78,_Guitar,6,4, Stems,0.9990229606628418,1
55,100,0.1409090909090909,426,1,78,_Guitar,6,2, Stems,0.36662495136260986,0
58,100,0.3181818181818182,660,1,78,_Guitar,6,5, Stems,0.45328769087791443,0
58,100,0.1409090909090909,294,1,79,_Guitar,6,2, Stems,0.9988419413566589,1
58,100,0.2,360,0,79,_Guitar,6,3, Stems,0.13725067675113678,0
58,100,0.2,514,0,79,_Guitar,6,3, Stems,0.15978147089481354,0
74,100,0.4818181818181818,637,0,79,_Guitar,6,8, Stems,0.18644583225250244,0
74,100,0.3,747,0,79,_Guitar,6,5, Stems,0.25816941261291504,0
63,100,1.3,9,1,80,_Guitar,6,15, Stems,0.9990057349205017,1
58,100,0.12272727272727273,299,1,80,_Guitar,6,2, Stems,0.23122133314609528,0
63,100,0.6590909090909091,343,0,80,_Guitar,6,11, Stems,0.26592928171157837,0
53,100,1.7227272727272727,663,1,80,_Guitar,6,15, Stems,0.35419172048568726,0
63,100,0.2,527,1,81,_Guitar,6,3, Stems,0.9990229606628418,1
56,100,0.3181818181818182,743,0,81,_Guitar,6,5, Stems,0.3666360080242157,0
58,100,0.42272727272727273,826,0,81,_Guitar,6,7, Stems,0.45329979062080383,0
58,100,0.18181818181818182,56,1,82,_Guitar,6,3, Stems,0.9990057349205017,1
53,100,0.4,286,0,82,_Guitar,6,6, Stems,0.2312137335538864,0
68,100,0.35909090909090907,493,0,82,_Guitar,6,6, Stems,0.2659313976764679,0
68,100,0.5409090909090909,839,1,82,_Guitar,6,9, Stems,0.35418859124183655,0
82,100,0.1409090909090909,356,1,83,_Guitar,6,2, Stems,0.9990057349205017,1
58,100,0.18181818181818182,399,0,83,_Guitar,6,3, Stems,0.23120899498462677,0
55,100,0.1409090909090909,619,0,83,_Guitar,6,2, Stems,0.2659194767475128,0
55,100,0.11818181818181818,690,0,83,_Guitar,6,2, Stems,0.3541845679283142,0
58,100,0.21818181818181817,83,1,84,_Guitar,6,3, Stems,0.9988419413566589,1
58,100,0.6818181818181818,197,0,84,_Guitar,6,11, Stems,0.13724501430988312,0
55,100,0.2,373,0,84,_Guitar,6,3, Stems,0.15977367758750916,0
58,100,0.1409090909090909,422,0,84,_Guitar,6,2, Stems,0.1864417940378189,0
58,100,0.1,567,0,84,_Guitar,6,2, Stems,0.2581581175327301,0
58,100,0.18181818181818182,312,1,85,_Guitar,6,3, Stems,0.9990057349205017,1
58,100,0.3,462,0,85,_Guitar,6,5, Stems,0.2312072515487671,0
55,100,0.1590909090909091,536,0,85,_Guitar,6,3, Stems,0.2659212052822113,0
58,100,0.21818181818181817,703,0,85,_Guitar,6,3, Stems,0.35419121384620667,0
58,100,0.2590909090909091,74,1,86,_Guitar,6,4, Stems,0.9990057349205017,1
55,100,0.12272727272727273,509,1,86,_Guitar,6,2, Stems,0.23120085895061493,0
63,100,0.21818181818181817,550,0,86,_Guitar,6,3, Stems,0.26591044664382935,0
58,100,0.13636363636363635,876,1,86,_Guitar,6,2, Stems,0.35420042276382446,0
55,100,0.17727272727272728,119,1,87,_Guitar,6,3, Stems,0.9990230798721313,1
55,100,0.17727272727272728,184,0,87,_Guitar,6,3, Stems,0.3666260540485382,0
58,100,0.18181818181818182,399,0,87,_Guitar,6,3, Stems,0.4532865881919861,0
58,100,0.5,66,1,88,_Guitar,6,8, Stems,0.9986500144004822,1
62,100,0.21818181818181817,176,0,88,_Guitar,6,3, Stems,0.08780298382043839,0
58,100,0.2772727272727273,237,0,88,_Guitar,6,4, Stems,0.09181703627109528,0
58,100,0.1590909090909091,409,0,88,_Guitar,6,3, Stems,0.1074800193309784,0
55,100,0.12272727272727273,475,0,88,_Guitar,6,2, Stems,0.1248272955417633,0
58,100,0.2,650,0,88,_Guitar,6,3, Stems,0.17903396487236023,0
58,100,0.13636363636363635,106,1,89,_Guitar,6,2, Stems,0.9792563915252686,1
53,100,0.11818181818181818,282,1,0,DL_Guitar,6,2,omokage_stem,0.9990057349205017,1
55,100,0.4409090909090909,317,0,0,DL_Guitar,6,7,omokage_stem,0.23119999468326569,0
58,100,0.13636363636363635,634,1,0,DL_Guitar,6,2,omokage_stem,0.26591140031814575,0
67,100,0.22272727272727272,695,0,0,DL_Guitar,6,4,omokage_stem,0.3541892468929291,0
58,100,0.36363636363636365,180,1,1,DL_Guitar,6,6,omokage_stem,0.9983165264129639,1
53,100,0.3409090909090909,559,1,1,DL_Guitar,6,5,omokage_stem,0.5445526838302612,0
70,100,0.2818181818181818,330,1,2,DL_Guitar,6,5,omokage_stem,0.9986500144004822,1
72,100,0.2409090909090909,396,0,2,DL_Guitar,6,4,omokage_stem,0.08780243247747421,0
70,100,0.2772727272727273,523,0,2,DL_Guitar,6,4,omokage_stem,0.0918116346001625,0
72,100,0.2772727272727273,590,0,2,DL_Guitar,6,4,omokage_stem,0.10747698694467545,0
53,100,0.12272727272727273,651,0,2,DL_Guitar,6,2,omokage_stem,0.12482482939958572,0
70,100,0.8,726,0,2,DL_Guitar,6,13,omokage_stem,0.179026797413826,0
58,100,0.2590909090909091,21,1,3,DL_Guitar,6,4,omokage_stem,0.9984880685806274,1
70,100,0.21818181818181817,83,0,3,DL_Guitar,6,3,omokage_stem,0.06334421783685684,0
70,100,0.3181818181818182,140,0,3,DL_Guitar,6,5,omokage_stem,0.0577397346496582,0
65,100,0.2772727272727273,470,1,3,DL_Guitar,6,4,omokage_stem,0.06019892916083336,0
67,100,0.2772727272727273,537,0,3,DL_Guitar,6,4,omokage_stem,0.06969951093196869,0
65,100,0.2818181818181818,663,0,3,DL_Guitar,6,5,omokage_stem,0.08189065009355545,0
67,100,0.2409090909090909,730,0,3,DL_Guitar,6,4,omokage_stem,0.12401460856199265,0
53,100,0.2409090909090909,0,1,4,DL_Guitar,6,4,omokage_stem,0.9982553124427795,1
53,100,0.6227272727272727,79,0,4,DL_Guitar,6,10,omokage_stem,0.041286855936050415,0
65,100,0.37727272727272726,215,0,4,DL_Guitar,6,6,omokage_stem,0.028933482244610786,0
53,100,0.4590909090909091,299,0,4,DL_Guitar,6,7,omokage_stem,0.021287161856889725,0
53,100,0.11818181818181818,493,0,4,DL_Guitar,6,2,omokage_stem,0.016744302585721016,0
53,100,0.3181818181818182,527,0,4,DL_Guitar,6,5,omokage_stem,0.014917094260454178,0
53,100,0.17727272727272728,611,0,4,DL_Guitar,6,3,omokage_stem,0.016014857217669487,0
65,100,0.4,651,0,4,DL_Guitar,6,6,omokage_stem,0.02117801643908024,0
53,100,0.2,739,0,4,DL_Guitar,6,3,omokage_stem,0.031565360724925995,0
65,100,0.4590909090909091,782,0,4,DL_Guitar,6,7,omokage_stem,0.06005612015724182,0
53,100,0.1409090909090909,493,1,5,DL_Guitar,6,2,omokage_stem,0.9983165264129639,1
58,100,0.2,524,0,5,DL_Guitar,6,3,omokage_stem,0.5445566773414612,0
53,100,0.3,255,1,6,DL_Guitar,6,5,omokage_stem,0.9983165264129639,1
53,100,0.17727272727272728,647,1,6,DL_Guitar,6,3,omokage_stem,0.5445552468299866,0
58,100,0.5181818181818182,457,1,9,DL_Guitar,6,8,omokage_stem,0.9792567491531372,0
53,100,0.18181818181818182,783,1,10,DL_Guitar,6,3,omokage_stem,0.9983164072036743,1
53,100,0.2590909090909091,835,0,10,DL_Guitar,6,4,omokage_stem,0.5445578098297119,0
63,100,0.1,259,1,13,DL_Guitar,6,2,omokage_stem,0.9792560338973999,1
53,100,0.11818181818181818,668,1,14,DL_Guitar,6,2,omokage_stem,0.9792552590370178,0
55,100,0.5636363636363636,290,1,15,DL_Guitar,6,9,omokage_stem,0.9990057349205017,1
53,100,0.38181818181818183,519,0,15,DL_Guitar,6,6,omokage_stem,0.23119741678237915,0
53,100,0.18181818181818182,739,0,15,DL_Guitar,6,3,omokage_stem,0.2659132778644562,0
53,100,0.17727272727272728,801,0,15,DL_Guitar,6,3,omokage_stem,0.35418516397476196,0
53,100,0.22272727272727272,48,1,16,DL_Guitar,6,4,omokage_stem,0.9988419413566589,1
53,100,0.11818181818181818,308,1,16,DL_Guitar,6,2,omokage_stem,0.1372474879026413,0
53,100,0.12272727272727273,343,0,16,DL_Guitar,6,2,omokage_stem,0.15977641940116882,0
53,100,0.2590909090909091,436,0,16,DL_Guitar,6,4,omokage_stem,0.1864462047815323,0
53,100,0.2772727272727273,700,1,16,DL_Guitar,6,4,omokage_stem,0.2581624984741211,0
53,100,0.17727272727272728,546,1,18,DL_Guitar,6,3,omokage_stem,0.9792563915252686,0
53,100,0.2409090909090909,505,1,19,DL_Guitar,6,4,omokage_stem,0.9983164072036743,1
53,100,0.2590909090909091,681,0,19,DL_Guitar,6,4,omokage_stem,0.544553279876709,0
53,100,0.13636363636363635,150,1,20,DL_Guitar,6,2,omokage_stem,0.9983165264129639,1
58,100,0.2818181818181818,461,1,20,DL_Guitar,6,5,omokage_stem,0.5445584654808044,0
53,100,0.43636363636363634,810,1,21,DL_Guitar,6,7,omokage_stem,0.9792559146881104,0
53,100,0.2,162,1,22,DL_Guitar,6,3,omokage_stem,0.9990229606628418,1
53,100,0.2,299,0,22,DL_Guitar,6,3,omokage_stem,0.36662036180496216,0
53,100,0.13636363636363635,436,0,22,DL_Guitar,6,2,omokage_stem,0.4532857835292816,0
58,100,0.11818181818181818,0,1,23,DL_Guitar,6,2,omokage_stem,0.9990229606628418,1
63,100,0.22272727272727272,100,0,23,DL_Guitar,6,4,omokage_stem,0.3666211664676666,0
63,100,0.18181818181818182,179,0,23,DL_Guitar,6,3,omokage_stem,0.45329567790031433,0
53,100,0.1590909090909091,430,1,26,DL_Guitar,6,3,omokage_stem,0.9986500144004822,1
53,100,0.4818181818181818,474,0,26,DL_Guitar,6,8,omokage_stem,0.0878012478351593,0
53,100,0.11818181818181818,700,0,26,DL_Guitar,6,2,omokage_stem,0.09181370586156845,0
53,100,0.1,756,0,26,DL_Guitar,6,2,omokage_stem,0.10747749358415604,0
53,100,0.2590909090909091,801,0,26,DL_Guitar,6,4,omokage_stem,0.12482074648141861,0
53,100,0.2818181818181818,870,0,26,DL_Guitar,6,5,omokage_stem,0.17903004586696625,0
53,100,0.21818181818181817,131,1,27,DL_Guitar,6,3,omokage_stem,0.9792565107345581,0
63,100,0.33636363636363636,106,1,28,DL_Guitar,6,5,omokage_stem,0.9990229606628418,1
70,100,0.2772727272727273,260,0,28,DL_Guitar,6,4,omokage_stem,0.3666256070137024,0
53,100,0.1,426,0,28,DL_Guitar,6,2,omokage_stem,0.4532957077026367,0
70,100,0.1409090909090909,409,1,29,DL_Guitar,6,2,omokage_stem,0.9792563915252686,0
53,100,0.2409090909090909,607,1,30,DL_Guitar,6,4,omokage_stem,0.9983164072036743,1
58,100,0.8409090909090909,866,1,30,DL_Guitar,6,13,omokage_stem,0.5445595383644104,0
58,100,0.1409090909090909,405,1,31,DL_Guitar,6,2,omokage_stem,0.9792568683624268,0
58,100,0.11818181818181818,43,1,33,DL_Guitar,6,2,omokage_stem,0.9988419413566589,1
58,100,1.0,118,0,33,DL_Guitar,6,15,omokage_stem,0.13724489510059357,0
53,100,0.2,364,1,33,DL_Guitar,6,3,omokage_stem,0.15977515280246735,0
58,100,0.21818181818181817,616,1,33,DL_Guitar,6,3,omokage_stem,0.18644218146800995,0
58,100,0.17727272727272728,765,0,33,DL_Guitar,6,3,omokage_stem,0.2581658363342285,0
53,100,0.2818181818181818,123,1,35,DL_Guitar,6,5,omokage_stem,0.9792560338973999,0
55,100,0.1409090909090909,483,1,36,DL_Guitar,6,2,omokage_stem,0.9983165264129639,1
55,100,0.2,818,1,36,DL_Guitar,6,3,omokage_stem,0.5445558428764343,0
55,100,0.2409090909090909,34,1,37,DL_Guitar,6,4,omokage_stem,0.9988419413566589,1
55,100,0.1409090909090909,228,0,37,DL_Guitar,6,2,omokage_stem,0.1372455507516861,0
53,100,0.1590909090909091,616,1,37,DL_Guitar,6,3,omokage_stem,0.1597720980644226,0
53,100,0.2,678,0,37,DL_Guitar,6,3,omokage_stem,0.18644286692142487,0
53,100,0.2,866,0,37,DL_Guitar,6,3,omokage_stem,0.25815850496292114,0
53,100,0.2,114,1,38,DL_Guitar,6,3,omokage_stem,0.9990229606628418,1
53,100,0.2590909090909091,298,0,38,DL_Guitar,6,4,omokage_stem,0.3666221499443054,0
53,100,0.32272727272727275,431,0,38,DL_Guitar,6,5,omokage_stem,0.45329007506370544,0
53,100,0.22272727272727272,518,1,39,DL_Guitar,6,4,omokage_stem,0.9792571067810059,0
53,100,0.3,13,1,40,DL_Guitar,6,5,omokage_stem,0.9990229606628418,1
58,100,0.3181818181818182,338,1,40,DL_Guitar,6,5,omokage_stem,0.3666258752346039,0
58,100,0.38181818181818183,571,1,40,DL_Guitar,6,6,omokage_stem,0.4532887935638428,0
53,100,0.2409090909090909,813,1,41,DL_Guitar,6,4,omokage_stem,0.979256272315979,1
53,100,0.2,298,1,42,DL_Guitar,6,3,omokage_stem,0.9792560338973999,0
53,100,0.4636363636363636,378,1,44,DL_Guitar,6,7,omokage_stem,0.9983164072036743,1
53,100,0.1409090909090909,483,0,44,DL_Guitar,6,2,omokage_stem,0.5445556044578552,0
53,100,0.17727272727272728,193,1,46,DL_Guitar,6,3,omokage_stem,0.9983164072036743,1
53,100,0.3409090909090909,246,0,46,DL_Guitar,6,5,omokage_stem,0.5445525050163269,0
53,100,0.4590909090909091,396,1,47,DL_Guitar,6,7,omokage_stem,0.9990229606628418,1
53,100,0.7181818181818181,655,1,47,DL_Guitar,6,11,omokage_stem,0.366625040769577,0
53,100,0.6818181818181818,839,0,47,DL_Guitar,6,11,omokage_stem,0.45327919721603394,0
58,100,0.5409090909090909,289,1,48,DL_Guitar,6,9,omokage_stem,0.9990229606628418,1
53,100,0.17727272727272728,536,1,48,DL_Guitar,6,3,omokage_stem,0.36662426590919495,0
57,100,0.21818181818181817,791,1,48,DL_Guitar,6,3,omokage_stem,0.4532826244831085,0
53,100,0.21818181818181817,286,1,49,DL_Guitar,6,3,omokage_stem,0.9990229606628418,1
54,100,0.11818181818181818,616,1,49,DL_Guitar,6,2,omokage_stem,0.36662259697914124,0
53,100,0.2590909090909091,678,0,49,DL_Guitar,6,4,omokage_stem,0.4532909095287323,0
53,100,0.2,128,1,50,DL_Guitar,6,3,omokage_stem,0.9988419413566589,1
53,100,0.18181818181818182,286,0,50,DL_Guitar,6,3,omokage_stem,0.13724446296691895,0
53,100,0.11818181818181818,330,0,50,DL_Guitar,6,2,omokage_stem,0.15976816415786743,0
53,100,0.1590909090909091,370,0,50,DL_Guitar,6,3,omokage_stem,0.18644170463085175,0
70,100,0.11818181818181818,791,1,50,DL_Guitar,6,2,omokage_stem,0.2581552267074585,0
58,100,0.1409090909090909,681,1,56,DL_Guitar,6,2,omokage_stem,0.9792563915252686,0
53,100,0.11818181818181818,396,1,58,DL_Guitar,6,2,omokage_stem,0.9990057349205017,1
53,100,0.1409090909090909,509,0,58,DL_Guitar,6,2,omokage_stem,0.23120103776454926,0
53,100,0.37727272727272726,646,0,58,DL_Guitar,6,6,omokage_stem,0.26591238379478455,0
58,100,0.11818181818181818,858,0,58,DL_Guitar,6,2,omokage_stem,0.3541928827762604,0
53,100,0.4,150,1,59,DL_Guitar,6,6,omokage_stem,0.9983165264129639,1
58,100,0.12272727272727273,276,0,59,DL_Guitar,6,2,omokage_stem,0.5445597767829895,0
63,100,0.4409090909090909,703,1,74,DL_Guitar,6,7,omokage_stem,0.9983164072036743,1
63,100,0.3409090909090909,826,0,74,DL_Guitar,6,5,omokage_stem,0.5445611476898193,0
53,100,0.3409090909090909,487,1,75,DL_Guitar,6,5,omokage_stem,0.9990229606628418,1
53,100,0.12272727272727273,805,1,75,DL_Guitar,6,2,omokage_stem,0.366622656583786,0
53,100,0.23636363636363636,876,0,75,DL_Guitar,6,4,omokage_stem,0.4532896876335144,0
58,100,0.1409090909090909,770,1,86,DL_Guitar,6,2,omokage_stem,0.9792568683624268,0
58,100,0.4590909090909091,132,1,87,DL_Guitar,6,7,omokage_stem,0.9983165264129639,1
60,100,0.18181818181818182,487,1,87,DL_Guitar,6,3,omokage_stem,0.5445597767829895,0
53,100,0.1590909090909091,153,1,88,DL_Guitar,6,3,omokage_stem,0.9988419413566589,1
53,100,0.22272727272727272,202,0,88,DL_Guitar,6,4,omokage_stem,0.137247696518898,0
53,100,0.3,286,0,88,DL_Guitar,6,5,omokage_stem,0.15977869927883148,0
62,100,0.33636363636363636,523,1,88,DL_Guitar,6,5,omokage_stem,0.18644979596138,0
53,100,0.16363636363636364,839,1,88,DL_Guitar,6,3,omokage_stem,0.25816768407821655,0
58,100,0.5409090909090909,197,1,90,DL_Guitar,6,9,omokage_stem,0.9990229606628418,1
58,100,0.1,509,1,90,DL_Guitar,6,2,omokage_stem,0.3666217625141144,0
62,100,0.1590909090909091,810,1,90,DL_Guitar,6,3,omokage_stem,0.4532894492149353,0
62,100,0.22272727272727272,246,1,91,DL_Guitar,6,4,omokage_stem,0.9983165264129639,1
53,100,1.040909090909091,703,1,91,DL_Guitar,6,15,omokage_stem,0.5445559024810791,0
53,100,0.18181818181818182,289,1,92,DL_Guitar,6,3,omokage_stem,0.9983164072036743,1
53,100,0.4,430,0,92,DL_Guitar,6,6,omokage_stem,0.5445556044578552,0
52,100,0.20454545454545456,384,1,0,DL_Guitar_1,6,3,DL_Guitar_1,0.9990057349205017,1
60,100,0.09090909090909091,732,1,0,DL_Guitar_1,6,1,DL_Guitar_1,0.23120251297950745,0
64,100,0.12727272727272726,809,0,0,DL_Guitar_1,6,2,DL_Guitar_1,0.26592037081718445,0
64,100,0.2590909090909091,845,0,0,DL_Guitar_1,6,4,DL_Guitar_1,0.354195237159729,0
52,100,0.36818181818181817,73,1,1,DL_Guitar_1,6,6,DL_Guitar_1,0.9983736276626587,1
59,100,0.14545454545454545,183,0,1,DL_Guitar_1,6,2,DL_Guitar_1,0.05106154456734657,0
52,100,0.5909090909090909,244,0,1,DL_Guitar_1,6,9,DL_Guitar_1,0.04130354896187782,0
53,100,0.09090909090909091,386,0,1,DL_Guitar_1,6,1,DL_Guitar_1,0.0373867005109787,0
60,100,0.40454545454545454,620,1,1,DL_Guitar_1,6,6,DL_Guitar_1,0.03833061829209328,0
65,100,0.1318181818181818,713,0,1,DL_Guitar_1,6,2,DL_Guitar_1,0.04475335404276848,0
57,100,0.16363636363636364,778,0,1,DL_Guitar_1,6,3,DL_Guitar_1,0.05523040518164635,0
57,100,0.2590909090909091,863,0,1,DL_Guitar_1,6,4,DL_Guitar_1,0.09026717394590378,0
53,100,0.23636363636363636,60,1,2,DL_Guitar_1,6,4,DL_Guitar_1,0.9983003735542297,1
53,100,0.11363636363636363,116,0,2,DL_Guitar_1,6,2,DL_Guitar_1,0.04466472193598747,0
53,100,0.16363636363636364,222,0,2,DL_Guitar_1,6,3,DL_Guitar_1,0.03315013647079468,0
60,100,0.40454545454545454,290,0,2,DL_Guitar_1,6,6,DL_Guitar_1,0.02658044546842575,0
57,100,0.40454545454545454,428,0,2,DL_Guitar_1,6,6,DL_Guitar_1,0.023594915866851807,0
62,100,0.15,573,0,2,DL_Guitar_1,6,2,DL_Guitar_1,0.02431475557386875,0
62,100,0.2772727272727273,638,0,2,DL_Guitar_1,6,4,DL_Guitar_1,0.029690641909837723,0
57,100,0.18181818181818182,776,0,2,DL_Guitar_1,6,3,DL_Guitar_1,0.040076661854982376,0
62,100,0.31363636363636366,852,0,2,DL_Guitar_1,6,5,DL_Guitar_1,0.0709313154220581,0
62,100,0.10909090909090909,210,1,3,DL_Guitar_1,6,2,DL_Guitar_1,0.9990230798721313,1
60,100,0.12727272727272726,663,1,3,DL_Guitar_1,6,2,DL_Guitar_1,0.36662447452545166,0
60,100,0.20454545454545456,877,0,3,DL_Guitar_1,6,3,DL_Guitar_1,0.45329195261001587,0
60,100,0.11363636363636363,551,1,4,DL_Guitar_1,6,2,DL_Guitar_1,0.9986500144004822,1
64,100,0.11363636363636363,633,0,4,DL_Guitar_1,6,2,DL_Guitar_1,0.08780453354120255,0
64,100,0.18181818181818182,682,0,4,DL_Guitar_1,6,3,DL_Guitar_1,0.09181481599807739,0
64,100,0.2772727272727273,733,0,4,DL_Guitar_1,6,4,DL_Guitar_1,0.10748053342103958,0
64,100,0.16818181818181818,799,0,4,DL_Guitar_1,6,3,DL_Guitar_1,0.12482575327157974,0
64,100,0.18181818181818182,851,0,4,DL_Guitar_1,6,3,DL_Guitar_1,0.17904092371463776,0
64,100,0.15,16,1,5,DL_Guitar_1,6,2,DL_Guitar_1,0.9988419413566589,1
52,100,0.09090909090909091,80,0,5,DL_Guitar_1,6,1,DL_Guitar_1,0.13724744319915771,0
52,100,0.4818181818181818,226,0,5,DL_Guitar_1,6,8,DL_Guitar_1,0.15977932512760162,0
60,100,0.29545454545454547,654,1,5,DL_Guitar_1,6,5,DL_Guitar_1,0.18645735085010529,0
57,100,0.7545454545454545,735,0,5,DL_Guitar_1,6,12,DL_Guitar_1,0.2581670880317688,0
60,100,0.10909090909090909,22,1,6,DL_Guitar_1,6,2,DL_Guitar_1,0.9990057349205017,1
62,100,0.2772727272727273,446,1,6,DL_Guitar_1,6,4,DL_Guitar_1,0.23120218515396118,0
62,100,0.31363636363636366,526,0,6,DL_Guitar_1,6,5,DL_Guitar_1,0.2659249007701874,0
62,100,0.2409090909090909,704,0,6,DL_Guitar_1,6,4,DL_Guitar_1,0.35420283675193787,0
62,100,0.4954545454545455,75,1,7,DL_Guitar_1,6,8,DL_Guitar_1,0.9986500144004822,1
62,100,0.12727272727272726,218,0,7,DL_Guitar_1,6,2,DL_Guitar_1,0.08780647814273834,0
62,100,0.22272727272727272,625,1,7,DL_Guitar_1,6,4,DL_Guitar_1,0.09181831777095795,0
62,100,0.16363636363636364,686,0,7,DL_Guitar_1,6,3,DL_Guitar_1,0.10748399049043655,0
62,100,0.15,731,0,7,DL_Guitar_1,6,2,DL_Guitar_1,0.12483514100313187,0
62,100,0.10909090909090909,865,0,7,DL_Guitar_1,6,2,DL_Guitar_1,0.17904751002788544,0
62,100,0.12727272727272726,199,1,8,DL_Guitar_1,6,2,DL_Guitar_1,0.9988419413566589,1
62,100,0.09090909090909091,369,0,8,DL_Guitar_1,6,1,DL_Guitar_1,0.13725043833255768,0
60,100,0.8454545454545455,453,0,8,DL_Guitar_1,6,14,DL_Guitar_1,0.159782275557518,0
60,100,0.40454545454545454,648,0,8,DL_Guitar_1,6,6,DL_Guitar_1,0.18645872175693512,0
57,100,0.2409090909090909,842,0,8,DL_Guitar_1,6,4,DL_Guitar_1,0.25817522406578064,0
60,100,0.14545454545454545,22,1,9,DL_Guitar_1,6,2,DL_Guitar_1,0.9983004927635193,1
53,100,0.20454545454545456,70,0,9,DL_Guitar_1,6,3,DL_Guitar_1,0.04466341808438301,0
59,100,0.09090909090909091,120,0,9,DL_Guitar_1,6,1,DL_Guitar_1,0.03314991667866707,0
59,100,0.38636363636363635,305,0,9,DL_Guitar_1,6,6,DL_Guitar_1,0.02657945826649666,0
60,100,0.09090909090909091,398,0,9,DL_Guitar_1,6,1,DL_Guitar_1,0.023595064878463745,0
60,100,0.7545454545454545,458,0,9,DL_Guitar_1,6,12,DL_Guitar_1,0.02431403286755085,0
55,100,0.22272727272727272,737,1,9,DL_Guitar_1,6,4,DL_Guitar_1,0.029689764603972435,0
53,100,0.09090909090909091,790,0,9,DL_Guitar_1,6,1,DL_Guitar_1,0.04007682949304581,0
55,100,0.16818181818181818,819,0,9,DL_Guitar_1,6,3,DL_Guitar_1,0.07092687487602234,0
55,100,0.14545454545454545,146,1,10,DL_Guitar_1,6,2,DL_Guitar_1,0.9988419413566589,1
55,100,0.18181818181818182,182,0,10,DL_Guitar_1,6,3,DL_Guitar_1,0.13724859058856964,0
62,100,0.09090909090909091,278,0,10,DL_Guitar_1,6,1,DL_Guitar_1,0.15977807343006134,0
62,100,0.36818181818181817,307,0,10,DL_Guitar_1,6,6,DL_Guitar_1,0.18644879758358002,0
55,100,0.6636363636363637,477,0,10,DL_Guitar_1,6,11,DL_Guitar_1,0.25817158818244934,0
52,100,0.44545454545454544,82,1,11,DL_Guitar_1,6,7,DL_Guitar_1,0.9988419413566589,1
52,100,0.1318181818181818,247,0,11,DL_Guitar_1,6,2,DL_Guitar_1,0.13724572956562042,0
53,100,0.12727272727272726,362,0,11,DL_Guitar_1,6,2,DL_Guitar_1,0.1597757786512375,0
60,100,0.16363636363636364,498,0,11,DL_Guitar_1,6,3,DL_Guitar_1,0.18645115196704865,0
67,100,0.5318181818181819,644,0,11,DL_Guitar_1,6,9,DL_Guitar_1,0.2581649124622345,0
53,100,0.18181818181818182,75,1,12,DL_Guitar_1,6,3,DL_Guitar_1,0.9984880685806274,1
53,100,0.14545454545454545,254,0,12,DL_Guitar_1,6,2,DL_Guitar_1,0.0633472427725792,0
55,100,0.11363636363636363,371,0,12,DL_Guitar_1,6,2,DL_Guitar_1,0.057743653655052185,0
62,100,0.5681818181818182,508,0,12,DL_Guitar_1,6,9,DL_Guitar_1,0.060203712433576584,0
62,100,0.11363636363636363,665,0,12,DL_Guitar_1,6,2,DL_Guitar_1,0.06970451027154922,0
62,100,0.38636363636363635,694,0,12,DL_Guitar_1,6,6,DL_Guitar_1,0.08189801871776581,0
62,100,0.31363636363636366,792,0,12,DL_Guitar_1,6,5,DL_Guitar_1,0.12402486056089401,0
55,100,0.35,101,1,13,DL_Guitar_1,6,6,DL_Guitar_1,0.9990229606628418,1
55,100,0.12727272727272726,348,1,13,DL_Guitar_1,6,2,DL_Guitar_1,0.3666284680366516,0
64,100,0.33181818181818185,752,1,13,DL_Guitar_1,6,5,DL_Guitar_1,0.4532868564128876,0
62,100,0.22272727272727272,1,1,14,DL_Guitar_1,6,4,DL_Guitar_1,0.9988419413566589,1
62,100,0.3090909090909091,123,0,14,DL_Guitar_1,6,5,DL_Guitar_1,0.13725140690803528,0
55,100,0.7,252,0,14,DL_Guitar_1,6,11,DL_Guitar_1,0.15978437662124634,0
52,100,0.33181818181818185,422,0,14,DL_Guitar_1,6,5,DL_Guitar_1,0.1864573061466217,0
55,100,0.36818181818181817,555,0,14,DL_Guitar_1,6,6,DL_Guitar_1,0.2581723928451538,0
52,100,0.18636363636363637,27,1,15,DL_Guitar_1,6,3,DL_Guitar_1,0.9986500144004822,1
52,100,0.16363636363636364,89,0,15,DL_Guitar_1,6,3,DL_Guitar_1,0.08780427277088165,0
60,100,0.18181818181818182,154,0,15,DL_Guitar_1,6,3,DL_Guitar_1,0.09181416034698486,0
52,100,0.6954545454545454,250,0,15,DL_Guitar_1,6,11,DL_Guitar_1,0.10747792571783066,0
60,100,0.2590909090909091,465,0,15,DL_Guitar_1,6,4,DL_Guitar_1,0.12482895702123642,0
65,100,0.12727272727272726,646,0,15,DL_Guitar_1,6,2,DL_Guitar_1,0.17902740836143494,0
65,100,0.14545454545454545,664,1,16,DL_Guitar_1,6,2,DL_Guitar_1,0.9983165264129639,1
65,100,0.11363636363636363,701,0,16,DL_Guitar_1,6,2,DL_Guitar_1,0.544552743434906,0
53,100,0.16818181818181818,88,1,17,DL_Guitar_1,6,3,DL_Guitar_1,0.9990229606628418,1
53,100,0.10909090909090909,133,0,17,DL_Guitar_1,6,2,DL_Guitar_1,0.36661750078201294,0
64,100,0.29545454545454547,475,1,17,DL_Guitar_1,6,5,DL_Guitar_1,0.45328861474990845,0
52,100,0.23636363636363636,461,1,18,DL_Guitar_1,6,4,DL_Guitar_1,0.9990057349205017,1
60,100,0.6090909090909091,514,0,18,DL_Guitar_1,6,10,DL_Guitar_1,0.23120664060115814,0
55,100,0.14545454545454545,660,0,18,DL_Guitar_1,6,2,DL_Guitar_1,0.26592132449150085,0
55,100,0.7727272727272727,700,0,18,DL_Guitar_1,6,12,DL_Guitar_1,0.3541910946369171,0
55,100,0.16363636363636364,43,1,19,DL_Guitar_1,6,3,DL_Guitar_1,0.9988419413566589,1
55,100,0.22272727272727272,168,0,19,DL_Guitar_1,6,4,DL_Guitar_1,0.13724839687347412,0
52,100,0.5136363636363637,220,0,19,DL_Guitar_1,6,8,DL_Guitar_1,0.15977415442466736,0
52,100,0.1318181818181818,354,0,19,DL_Guitar_1,6,2,DL_Guitar_1,0.1864507496356964,0
55,100,0.4409090909090909,763,1,19,DL_Guitar_1,6,7,DL_Guitar_1,0.2581636309623718,0
55,100,0.29545454545454547,0,1,20,DL_Guitar_1,6,5,DL_Guitar_1,0.9988419413566589,1
62,100,0.12727272727272726,65,0,20,DL_Guitar_1,6,2,DL_Guitar_1,0.13724961876869202,0
55,100,0.18181818181818182,267,0,20,DL_Guitar_1,6,3,DL_Guitar_1,0.15977898240089417,0
55,100,0.34545454545454546,323,0,20,DL_Guitar_1,6,6,DL_Guitar_1,0.1864488124847412,0
52,100,0.2772727272727273,865,1,20,DL_Guitar_1,6,4,DL_Guitar_1,0.25816860795021057,0
52,100,0.18181818181818182,103,1,21,DL_Guitar_1,6,3,DL_Guitar_1,0.9988419413566589,1
52,100,0.2909090909090909,188,0,21,DL_Guitar_1,6,5,DL_Guitar_1,0.13725025951862335,0
52,100,1.3045454545454545,268,0,21,DL_Guitar_1,6,15,DL_Guitar_1,0.15977753698825836,0
55,100,0.11363636363636363,624,1,21,DL_Guitar_1,6,2,DL_Guitar_1,0.1864522397518158,0
52,100,0.2590909090909091,786,0,21,DL_Guitar_1,6,4,DL_Guitar_1,0.25817134976387024,0
55,100,0.2590909090909091,281,1,22,DL_Guitar_1,6,4,DL_Guitar_1,0.9990229606628418,1
56,100,0.10909090909090909,399,0,22,DL_Guitar_1,6,2,DL_Guitar_1,0.3666200339794159,0
60,100,0.8272727272727273,475,0,22,DL_Guitar_1,6,13,DL_Guitar_1,0.4532841145992279,0
52,100,0.4409090909090909,4,1,23,DL_Guitar_1,6,7,DL_Guitar_1,0.9990057349205017,1
55,100,0.2590909090909091,223,0,23,DL_Guitar_1,6,4,DL_Guitar_1,0.2312047779560089,0
55,100,0.22272727272727272,336,0,23,DL_Guitar_1,6,4,DL_Guitar_1,0.2659170627593994,0
59,100,0.23636363636363636,543,0,23,DL_Guitar_1,6,4,DL_Guitar_1,0.3541918098926544,0
52,100,0.29545454545454547,2,1,24,DL_Guitar_1,6,5,DL_Guitar_1,0.9983736276626587,1
52,100,0.5,277,1,24,DL_Guitar_1,6,8,DL_Guitar_1,0.051058635115623474,0
65,100,0.12727272727272726,402,0,24,DL_Guitar_1,6,2,DL_Guitar_1,0.04130109027028084,0
65,100,0.18181818181818182,488,0,24,DL_Guitar_1,6,3,DL_Guitar_1,0.03738420829176903,0
65,100,0.5136363636363637,532,0,24,DL_Guitar_1,6,8,DL_Guitar_1,0.03832687810063362,0
53,100,0.12727272727272726,657,0,24,DL_Guitar_1,6,2,DL_Guitar_1,0.044748783111572266,0
65,100,0.6818181818181818,686,0,24,DL_Guitar_1,6,11,DL_Guitar_1,0.05522632226347923,0
53,100,0.12727272727272726,876,0,24,DL_Guitar_1,6,2,DL_Guitar_1,0.09026315808296204,0
65,100,0.2772727272727273,40,1,25,DL_Guitar_1,6,4,DL_Guitar_1,0.9990057349205017,1
65,100,0.12727272727272726,189,0,25,DL_Guitar_1,6,2,DL_Guitar_1,0.23120318353176117,0
55,100,0.12727272727272726,550,1,25,DL_Guitar_1,6,2,DL_Guitar_1,0.26591888070106506,0
55,100,0.38636363636363635,683,0,25,DL_Guitar_1,6,6,DL_Guitar_1,0.3541947901248932,0
62,100,0.16363636363636364,6,1,26,DL_Guitar_1,6,3,DL_Guitar_1,0.9988419413566589,1
62,100,0.18181818181818182,130,0,26,DL_Guitar_1,6,3,DL_Guitar_1,0.13725198805332184,0
55,100,0.2772727272727273,227,0,26,DL_Guitar_1,6,4,DL_Guitar_1,0.15978412330150604,0
62,100,0.33181818181818185,316,0,26,DL_Guitar_1,6,5,DL_Guitar_1,0.18645481765270233,0
52,100,0.09090909090909091,450,0,26,DL_Guitar_1,6,1,DL_Guitar_1,0.2581815719604492,0
64,100,0.2,246,1,27,DL_Guitar_1,6,3,DL_Guitar_1,0.9792568683624268,0
62,100,0.10909090909090909,324,1,41,DL_Guitar_1,6,2,DL_Guitar_1,0.9983164072036743,1
62,100,0.2590909090909091,410,0,41,DL_Guitar_1,6,4,DL_Guitar_1,0.5445568561553955,0
62,100,0.10909090909090909,60,1,42,DL_Guitar_1,6,2,DL_Guitar_1,0.9986500144004822,1
67,100,0.9181818181818182,83,0,42,DL_Guitar_1,6,15,DL_Guitar_1,0.08780480176210403,0
67,100,0.8090909090909091,297,0,42,DL_Guitar_1,6,13,DL_Guitar_1,0.09181461483240128,0
60,100,0.1318181818181818,483,0,42,DL_Guitar_1,6,2,DL_Guitar_1,0.10748078674077988,0
55,100,0.23636363636363636,702,0,42,DL_Guitar_1,6,4,DL_Guitar_1,0.12482500821352005,0
55,100,0.10909090909090909,799,0,42,DL_Guitar_1,6,2,DL_Guitar_1,0.17903198301792145,0
67,100,0.1318181818181818,142,1,43,DL_Guitar_1,6,2,DL_Guitar_1,0.9983004927635193,1
67,100,0.2590909090909091,194,0,43,DL_Guitar_1,6,4,DL_Guitar_1,0.04466409608721733,0
67,100,0.32727272727272727,255,0,43,DL_Guitar_1,6,5,DL_Guitar_1,0.033150676637887955,0
67,100,0.33181818181818185,336,0,43,DL_Guitar_1,6,5,DL_Guitar_1,0.02657962031662464,0
55,100,0.2,441,0,43,DL_Guitar_1,6,3,DL_Guitar_1,0.023595549166202545,0
55,100,0.2409090909090909,489,0,43,DL_Guitar_1,6,4,DL_Guitar_1,0.02431555837392807,0
55,100,0.2772727272727273,563,0,43,DL_Guitar_1,6,4,DL_Guitar_1,0.029689788818359375,0
55,100,0.16818181818181818,700,0,43,DL_Guitar_1,6,3,DL_Guitar_1,0.04007892310619354,0
62,100,0.2409090909090909,772,0,43,DL_Guitar_1,6,4,DL_Guitar_1,0.0709286481142044,0
67,100,0.11363636363636363,1,1,44,DL_Guitar_1,6,2,DL_Guitar_1,0.9983736276626587,1
62,100,0.10909090909090909,123,0,44,DL_Guitar_1,6,2,DL_Guitar_1,0.051061082631349564,0
67,100,0.16363636363636364,151,0,44,DL_Guitar_1,6,3,DL_Guitar_1,0.04130367934703827,0
67,100,0.2909090909090909,217,0,44,DL_Guitar_1,6,5,DL_Guitar_1,0.037387214601039886,0
67,100,0.8454545454545455,294,0,44,DL_Guitar_1,6,14,DL_Guitar_1,0.0383288599550724,0
65,100,0.36818181818181817,483,0,44,DL_Guitar_1,6,6,DL_Guitar_1,0.04475316032767296,0
65,100,0.5863636363636363,569,0,44,DL_Guitar_1,6,9,DL_Guitar_1,0.05522846430540085,0
65,100,0.7909090909090909,701,0,44,DL_Guitar_1,6,13,DL_Guitar_1,0.0902659147977829,0
64,100,0.5318181818181819,150,1,45,DL_Guitar_1,6,9,DL_Guitar_1,0.9986500144004822,1
64,100,0.4409090909090909,298,0,45,DL_Guitar_1,6,7,DL_Guitar_1,0.08780335634946823,0
67,100,0.10909090909090909,456,0,45,DL_Guitar_1,6,2,DL_Guitar_1,0.09181491285562515,0
60,100,0.31363636363636366,537,0,45,DL_Guitar_1,6,5,DL_Guitar_1,0.10747846961021423,0
60,100,0.18181818181818182,715,0,45,DL_Guitar_1,6,3,DL_Guitar_1,0.12482678890228271,0
60,100,0.8272727272727273,792,0,45,DL_Guitar_1,6,13,DL_Guitar_1,0.17903389036655426,0
60,100,0.10909090909090909,103,1,46,DL_Guitar_1,6,2,DL_Guitar_1,0.9984880685806274,1
60,100,0.29545454545454547,151,0,46,DL_Guitar_1,6,5,DL_Guitar_1,0.06334592401981354,0
60,100,0.8818181818181818,235,0,46,DL_Guitar_1,6,14,DL_Guitar_1,0.05774194374680519,0
60,100,0.10909090909090909,467,1,46,DL_Guitar_1,6,2,DL_Guitar_1,0.06020212173461914,0
55,100,0.6045454545454545,495,0,46,DL_Guitar_1,6,10,DL_Guitar_1,0.0697045847773552,0
55,100,0.4818181818181818,713,0,46,DL_Guitar_1,6,8,DL_Guitar_1,0.08189744502305984,0
55,100,0.6636363636363637,874,0,46,DL_Guitar_1,6,11,DL_Guitar_1,0.12402167916297913,0
55,100,0.2,144,1,47,DL_Guitar_1,6,3,DL_Guitar_1,0.9988420605659485,1
55,100,0.8454545454545455,192,0,47,DL_Guitar_1,6,14,DL_Guitar_1,0.137251079082489,0
67,100,0.15,386,0,47,DL_Guitar_1,6,2,DL_Guitar_1,0.15978503227233887,0
55,100,0.16363636363636364,419,0,47,DL_Guitar_1,6,3,DL_Guitar_1,0.1864556223154068,0
55,100,1.4681818181818183,602,0,47,DL_Guitar_1,6,15,DL_Guitar_1,0.2581562101840973,0
67,100,0.11363636363636363,45,1,48,DL_Guitar_1,6,2,DL_Guitar_1,0.9986500144004822,1
55,100,0.10909090909090909,122,0,48,DL_Guitar_1,6,2,DL_Guitar_1,0.08780250698328018,0
55,100,0.35,153,0,48,DL_Guitar_1,6,6,DL_Guitar_1,0.09181223064661026,0
67,100,0.2590909090909091,295,0,48,DL_Guitar_1,6,4,DL_Guitar_1,0.10747477412223816,0
60,100,0.2590909090909091,603,1,48,DL_Guitar_1,6,4,DL_Guitar_1,0.12482282519340515,0
65,100,0.18181818181818182,797,0,48,DL_Guitar_1,6,3,DL_Guitar_1,0.17902536690235138,0
62,100,0.14545454545454545,14,1,49,DL_Guitar_1,6,2,DL_Guitar_1,0.9983004927635193,1
60,100,0.33181818181818185,55,0,49,DL_Guitar_1,6,5,DL_Guitar_1,0.04466478154063225,0
65,100,0.14545454545454545,139,0,49,DL_Guitar_1,6,2,DL_Guitar_1,0.03315001726150513,0
62,100,0.12727272727272726,225,0,49,DL_Guitar_1,6,2,DL_Guitar_1,0.02658034674823284,0
60,100,0.09090909090909091,294,0,49,DL_Guitar_1,6,1,DL_Guitar_1,0.023595888167619705,0
65,100,0.6818181818181818,337,0,49,DL_Guitar_1,6,11,DL_Guitar_1,0.02431551367044449,0
55,100,0.44545454545454544,556,0,49,DL_Guitar_1,6,7,DL_Guitar_1,0.02969181351363659,0
55,100,0.2590909090909091,709,0,49,DL_Guitar_1,6,4,DL_Guitar_1,0.040078844875097275,0
55,100,0.20454545454545456,795,0,49,DL_Guitar_1,6,3,DL_Guitar_1,0.07093071937561035,0
55,100,0.23636363636363636,56,1,50,DL_Guitar_1,6,4,DL_Guitar_1,0.9988419413566589,1
55,100,0.35,112,0,50,DL_Guitar_1,6,6,DL_Guitar_1,0.13725075125694275,0
55,100,0.7,193,0,50,DL_Guitar_1,6,11,DL_Guitar_1,0.15977880358695984,0
62,100,0.18636363636363637,396,0,50,DL_Guitar_1,6,3,DL_Guitar_1,0.18645285069942474,0
57,100,0.7363636363636363,501,0,50,DL_Guitar_1,6,12,DL_Guitar_1,0.2581620216369629,0
55,100,0.15,57,1,51,DL_Guitar_1,6,2,DL_Guitar_1,0.9983164072036743,1
62,100,0.8272727272727273,284,0,51,DL_Guitar_1,6,13,DL_Guitar_1,0.5445594191551208,0
67,100,0.2727272727272727,404,1,52,DL_Guitar_1,6,4,DL_Guitar_1,0.9990057349205017,1
55,100,0.21818181818181817,508,0,52,DL_Guitar_1,6,3,DL_Guitar_1,0.23121219873428345,0
55,100,0.4409090909090909,653,0,52,DL_Guitar_1,6,7,DL_Guitar_1,0.2659284472465515,0
57,100,0.10909090909090909,819,0,52,DL_Guitar_1,6,2,DL_Guitar_1,0.3541851341724396,0
55,100,0.7363636363636363,178,1,53,DL_Guitar_1,6,12,DL_Guitar_1,0.9986500144004822,1
55,100,0.2727272727272727,357,0,53,DL_Guitar_1,6,4,DL_Guitar_1,0.08780690282583237,0
55,100,0.18181818181818182,449,0,53,DL_Guitar_1,6,3,DL_Guitar_1,0.09181580692529678,0
55,100,0.10909090909090909,680,0,53,DL_Guitar_1,6,2,DL_Guitar_1,0.10748138278722763,0
55,100,0.1318181818181818,792,0,53,DL_Guitar_1,6,2,DL_Guitar_1,0.12482865154743195,0
55,100,0.8454545454545455,825,0,53,DL_Guitar_1,6,14,DL_Guitar_1,0.17902354896068573,0
55,100,0.6272727272727273,148,1,54,DL_Guitar_1,6,10,DL_Guitar_1,0.9990057349205017,1
55,100,0.10909090909090909,330,0,54,DL_Guitar_1,6,2,DL_Guitar_1,0.23120811581611633,0
55,100,0.4409090909090909,378,0,54,DL_Guitar_1,6,7,DL_Guitar_1,0.26591333746910095,0
55,100,0.6272727272727273,698,1,54,DL_Guitar_1,6,10,DL_Guitar_1,0.354183554649353,0
62,100,0.20454545454545456,12,1,55,DL_Guitar_1,6,3,DL_Guitar_1,0.9983736276626587,1
55,100,0.18636363636363637,190,0,55,DL_Guitar_1,6,3,DL_Guitar_1,0.05106110870838165,0
62,100,0.10909090909090909,267,0,55,DL_Guitar_1,6,2,DL_Guitar_1,0.041303884238004684,0
55,100,0.22272727272727272,404,0,55,DL_Guitar_1,6,4,DL_Guitar_1,0.03738860413432121,0
55,100,0.2772727272727273,456,0,55,DL_Guitar_1,6,4,DL_Guitar_1,0.038331709802150726,0
55,100,0.40454545454545454,611,0,55,DL_Guitar_1,6,6,DL_Guitar_1,0.0447537936270237,0
55,100,0.4772727272727273,731,0,55,DL_Guitar_1,6,8,DL_Guitar_1,0.05523207038640976,0
55,100,0.5,857,0,55,DL_Guitar_1,6,8,DL_Guitar_1,0.09026536345481873,0
55,100,0.16818181818181818,151,1,56,DL_Guitar_1,6,3,DL_Guitar_1,0.9984880685806274,1
67,100,0.10909090909090909,196,0,56,DL_Guitar_1,6,2,DL_Guitar_1,0.06334495544433594,0
52,100,0.18181818181818182,296,0,56,DL_Guitar_1,6,3,DL_Guitar_1,0.057742197066545486,0
55,100,0.31363636363636366,421,0,56,DL_Guitar_1,6,5,DL_Guitar_1,0.06020260602235794,0
57,100,0.10909090909090909,648,0,56,DL_Guitar_1,6,2,DL_Guitar_1,0.06970291584730148,0
55,100,0.2772727272727273,782,0,56,DL_Guitar_1,6,4,DL_Guitar_1,0.08189943432807922,0
55,100,1.4863636363636363,846,0,56,DL_Guitar_1,6,15,DL_Guitar_1,0.12401743978261948,0
55,100,0.9409090909090909,297,1,57,DL_Guitar_1,6,15,DL_Guitar_1,0.9990230798721313,1
55,100,1.1045454545454545,521,0,57,DL_Guitar_1,6,15,DL_Guitar_1,0.3666258454322815,0
55,100,0.16363636363636364,776,1,57,DL_Guitar_1,6,3,DL_Guitar_1,0.4532839059829712,0
60,100,0.2590909090909091,13,1,58,DL_Guitar_1,6,4,DL_Guitar_1,0.9990230798721313,1
55,100,0.9545454545454546,206,0,58,DL_Guitar_1,6,15,DL_Guitar_1,0.36661967635154724,0
55,100,0.1318181818181818,428,0,58,DL_Guitar_1,6,2,DL_Guitar_1,0.4532904326915741,0
62,100,0.2909090909090909,14,1,59,DL_Guitar_1,6,5,DL_Guitar_1,0.9988419413566589,1
55,100,1.05,90,0,59,DL_Guitar_1,6,15,DL_Guitar_1,0.13724583387374878,0
62,100,0.22272727272727272,337,1,59,DL_Guitar_1,6,4,DL_Guitar_1,0.15977874398231506,0
62,100,0.2772727272727273,451,0,59,DL_Guitar_1,6,4,DL_Guitar_1,0.18645162880420685,0
60,100,0.14545454545454545,852,1,59,DL_Guitar_1,6,2,DL_Guitar_1,0.258177250623703,0
55,100,0.18181818181818182,93,1,60,DL_Guitar_1,6,3,DL_Guitar_1,0.9990057349205017,1
55,100,0.7,302,0,60,DL_Guitar_1,6,11,DL_Guitar_1,0.23120063543319702,0
57,100,0.38636363636363635,618,1,60,DL_Guitar_1,6,6,DL_Guitar_1,0.26592162251472473,0
55,100,0.9954545454545455,751,0,60,DL_Guitar_1,6,15,DL_Guitar_1,0.35419416427612305,0
55,100,0.31363636363636366,199,1,61,DL_Guitar_1,6,5,DL_Guitar_1,0.9983004927635193,1
55,100,0.2772727272727273,349,0,61,DL_Guitar_1,6,4,DL_Guitar_1,0.044665027409791946,0
67,100,0.20454545454545456,410,0,61,DL_Guitar_1,6,3,DL_Guitar_1,0.03314891457557678,0
55,100,0.21818181818181817,462,0,61,DL_Guitar_1,6,3,DL_Guitar_1,0.026579855009913445,0
55,100,0.09545454545454546,538,0,61,DL_Guitar_1,6,2,DL_Guitar_1,0.023594560101628304,0
55,100,0.12727272727272726,563,0,61,DL_Guitar_1,6,2,DL_Guitar_1,0.024313826113939285,0
55,100,0.2727272727272727,637,0,61,DL_Guitar_1,6,4,DL_Guitar_1,0.0296889990568161,0
55,100,0.40454545454545454,705,0,61,DL_Guitar_1,6,6,DL_Guitar_1,0.04007595032453537,0
60,100,0.15,797,0,61,DL_Guitar_1,6,2,DL_Guitar_1,0.0709288939833641,0
55,100,0.5909090909090909,19,1,62,DL_Guitar_1,6,9,DL_Guitar_1,0.9983736276626587,1
55,100,0.36818181818181817,165,0,62,DL_Guitar_1,6,6,DL_Guitar_1,0.05106114223599434,0
67,100,0.09090909090909091,254,0,62,DL_Guitar_1,6,1,DL_Guitar_1,0.04130389541387558,0
55,100,0.8272727272727273,289,0,62,DL_Guitar_1,6,13,DL_Guitar_1,0.0373852364718914,0
55,100,0.12727272727272726,501,0,62,DL_Guitar_1,6,2,DL_Guitar_1,0.03832923248410225,0
62,100,0.7,541,0,62,DL_Guitar_1,6,11,DL_Guitar_1,0.04475024342536926,0
74,100,0.23636363636363636,796,1,62,DL_Guitar_1,6,4,DL_Guitar_1,0.055229585617780685,0
67,100,0.12727272727272726,873,0,62,DL_Guitar_1,6,2,DL_Guitar_1,0.09026423841714859,0
62,100,0.12727272727272726,206,1,63,DL_Guitar_1,6,2,DL_Guitar_1,0.9990230798721313,1
55,100,0.23636363636363636,364,0,63,DL_Guitar_1,6,4,DL_Guitar_1,0.36662906408309937,0
55,100,1.4681818181818183,547,0,63,DL_Guitar_1,6,15,DL_Guitar_1,0.45328399538993835,0
55,100,0.42272727272727273,11,1,64,DL_Guitar_1,6,7,DL_Guitar_1,0.9982553124427795,1
52,100,0.10909090909090909,115,0,64,DL_Guitar_1,6,2,DL_Guitar_1,0.041289009153842926,0
55,100,0.09545454545454546,188,0,64,DL_Guitar_1,6,2,DL_Guitar_1,0.02893553487956524,0
67,100,0.42272727272727273,212,0,64,DL_Guitar_1,6,7,DL_Guitar_1,0.02128918468952179,0
55,100,1.009090909090909,305,0,64,DL_Guitar_1,6,15,DL_Guitar_1,0.016745708882808685,0
57,100,0.11363636363636363,632,1,64,DL_Guitar_1,6,2,DL_Guitar_1,0.014918691478669643,0
55,100,0.2545454545454545,670,0,64,DL_Guitar_1,6,4,DL_Guitar_1,0.016016509383916855,0
55,100,0.11363636363636363,738,0,64,DL_Guitar_1,6,2,DL_Guitar_1,0.02117946930229664,0
60,100,0.10909090909090909,762,0,64,DL_Guitar_1,6,2,DL_Guitar_1,0.031569018959999084,0
55,100,0.29545454545454547,802,0,64,DL_Guitar_1,6,5,DL_Guitar_1,0.06005920097231865,0
55,100,0.42272727272727273,0,1,65,DL_Guitar_1,6,7,DL_Guitar_1,0.9983736276626587,1
62,100,0.2909090909090909,141,0,65,DL_Guitar_1,6,5,DL_Guitar_1,0.051061660051345825,0
62,100,0.35,218,0,65,DL_Guitar_1,6,6,DL_Guitar_1,0.0413040854036808,0
62,100,0.38636363636363635,299,0,65,DL_Guitar_1,6,6,DL_Guitar_1,0.037388790398836136,0
55,100,0.5318181818181819,412,0,65,DL_Guitar_1,6,9,DL_Guitar_1,0.03833243250846863,0
55,100,0.1318181818181818,577,0,65,DL_Guitar_1,6,2,DL_Guitar_1,0.04475654289126396,0
55,100,1.0272727272727273,627,0,65,DL_Guitar_1,6,15,DL_Guitar_1,0.05523361265659332,0
55,100,2.040909090909091,861,1,65,DL_Guitar_1,6,15,DL_Guitar_1,0.09026799350976944,0
67,100,0.1318181818181818,429,1,66,DL_Guitar_1,6,2,DL_Guitar_1,0.9990057349205017,1
55,100,0.38636363636363635,458,0,66,DL_Guitar_1,6,6,DL_Guitar_1,0.23120000958442688,0
60,100,0.7727272727272727,560,0,66,DL_Guitar_1,6,12,DL_Guitar_1,0.2659175992012024,0
60,100,0.6227272727272727,733,0,66,DL_Guitar_1,6,10,DL_Guitar_1,0.3541993796825409,0
67,100,0.10909090909090909,225,1,67,DL_Guitar_1,6,2,DL_Guitar_1,0.9988420605659485,1
67,100,0.12727272727272726,424,0,67,DL_Guitar_1,6,2,DL_Guitar_1,0.1372484415769577,0
55,100,0.11363636363636363,476,0,67,DL_Guitar_1,6,2,DL_Guitar_1,0.1597760170698166,0
55,100,0.10909090909090909,533,0,67,DL_Guitar_1,6,2,DL_Guitar_1,0.18644684553146362,0
55,100,1.1181818181818182,605,0,67,DL_Guitar_1,6,15,DL_Guitar_1,0.2581559121608734,0
55,100,1.9090909090909092,0,1,68,DL_Guitar_1,6,15,DL_Guitar_1,0.9792552590370178,0
52,100,0.20454545454545456,384,1,0,DL_Guitar_2,6,3,DL_Guitar_2,0.9990057349205017,1
60,100,0.09090909090909091,732,1,0,DL_Guitar_2,6,1,DL_Guitar_2,0.23120251297950745,0
64,100,0.12727272727272726,809,0,0,DL_Guitar_2,6,2,DL_Guitar_2,0.26592037081718445,0
64,100,0.2590909090909091,845,0,0,DL_Guitar_2,6,4,DL_Guitar_2,0.354195237159729,0
52,100,0.36818181818181817,73,1,1,DL_Guitar_2,6,6,DL_Guitar_2,0.9983736276626587,1
59,100,0.14545454545454545,183,0,1,DL_Guitar_2,6,2,DL_Guitar_2,0.05106154456734657,0
52,100,0.5909090909090909,244,0,1,DL_Guitar_2,6,9,DL_Guitar_2,0.04130354896187782,0
53,100,0.09090909090909091,386,0,1,DL_Guitar_2,6,1,DL_Guitar_2,0.0373867005109787,0
60,100,0.40454545454545454,620,1,1,DL_Guitar_2,6,6,DL_Guitar_2,0.03833061829209328,0
65,100,0.1318181818181818,713,0,1,DL_Guitar_2,6,2,DL_Guitar_2,0.04475335404276848,0
57,100,0.16363636363636364,778,0,1,DL_Guitar_2,6,3,DL_Guitar_2,0.05523040518164635,0
57,100,0.2590909090909091,863,0,1,DL_Guitar_2,6,4,DL_Guitar_2,0.09026717394590378,0
53,100,0.23636363636363636,60,1,2,DL_Guitar_2,6,4,DL_Guitar_2,0.9983003735542297,1
53,100,0.11363636363636363,116,0,2,DL_Guitar_2,6,2,DL_Guitar_2,0.04466472193598747,0
53,100,0.16363636363636364,222,0,2,DL_Guitar_2,6,3,DL_Guitar_2,0.03315013647079468,0
60,100,0.40454545454545454,290,0,2,DL_Guitar_2,6,6,DL_Guitar_2,0.02658044546842575,0
57,100,0.40454545454545454,428,0,2,DL_Guitar_2,6,6,DL_Guitar_2,0.023594915866851807,0
62,100,0.15,573,0,2,DL_Guitar_2,6,2,DL_Guitar_2,0.02431475557386875,0
62,100,0.2772727272727273,638,0,2,DL_Guitar_2,6,4,DL_Guitar_2,0.029690641909837723,0
57,100,0.18181818181818182,776,0,2,DL_Guitar_2,6,3,DL_Guitar_2,0.040076661854982376,0
62,100,0.31363636363636366,852,0,2,DL_Guitar_2,6,5,DL_Guitar_2,0.0709313154220581,0
62,100,0.10909090909090909,210,1,3,DL_Guitar_2,6,2,DL_Guitar_2,0.9990230798721313,1
60,100,0.12727272727272726,663,1,3,DL_Guitar_2,6,2,DL_Guitar_2,0.36662447452545166,0
60,100,0.20454545454545456,877,0,3,DL_Guitar_2,6,3,DL_Guitar_2,0.45329195261001587,0
60,100,0.11363636363636363,551,1,4,DL_Guitar_2,6,2,DL_Guitar_2,0.9986500144004822,1
64,100,0.11363636363636363,633,0,4,DL_Guitar_2,6,2,DL_Guitar_2,0.08780453354120255,0
64,100,0.18181818181818182,682,0,4,DL_Guitar_2,6,3,DL_Guitar_2,0.09181481599807739,0
64,100,0.2772727272727273,733,0,4,DL_Guitar_2,6,4,DL_Guitar_2,0.10748053342103958,0
64,100,0.16818181818181818,799,0,4,DL_Guitar_2,6,3,DL_Guitar_2,0.12482575327157974,0
64,100,0.18181818181818182,851,0,4,DL_Guitar_2,6,3,DL_Guitar_2,0.17904092371463776,0
64,100,0.15,16,1,5,DL_Guitar_2,6,2,DL_Guitar_2,0.9988419413566589,1
52,100,0.09090909090909091,80,0,5,DL_Guitar_2,6,1,DL_Guitar_2,0.13724744319915771,0
52,100,0.4818181818181818,226,0,5,DL_Guitar_2,6,8,DL_Guitar_2,0.15977932512760162,0
60,100,0.29545454545454547,654,1,5,DL_Guitar_2,6,5,DL_Guitar_2,0.18645735085010529,0
57,100,0.7545454545454545,735,0,5,DL_Guitar_2,6,12,DL_Guitar_2,0.2581670880317688,0
60,100,0.10909090909090909,22,1,6,DL_Guitar_2,6,2,DL_Guitar_2,0.9990057349205017,1
62,100,0.2772727272727273,446,1,6,DL_Guitar_2,6,4,DL_Guitar_2,0.23120218515396118,0
62,100,0.31363636363636366,526,0,6,DL_Guitar_2,6,5,DL_Guitar_2,0.2659249007701874,0
62,100,0.2409090909090909,704,0,6,DL_Guitar_2,6,4,DL_Guitar_2,0.35420283675193787,0
62,100,0.4954545454545455,75,1,7,DL_Guitar_2,6,8,DL_Guitar_2,0.9986500144004822,1
62,100,0.12727272727272726,218,0,7,DL_Guitar_2,6,2,DL_Guitar_2,0.08780647814273834,0
62,100,0.22272727272727272,625,1,7,DL_Guitar_2,6,4,DL_Guitar_2,0.09181831777095795,0
62,100,0.16363636363636364,686,0,7,DL_Guitar_2,6,3,DL_Guitar_2,0.10748399049043655,0
62,100,0.15,731,0,7,DL_Guitar_2,6,2,DL_Guitar_2,0.12483514100313187,0
62,100,0.10909090909090909,865,0,7,DL_Guitar_2,6,2,DL_Guitar_2,0.17904751002788544,0
62,100,0.12727272727272726,199,1,8,DL_Guitar_2,6,2,DL_Guitar_2,0.9988419413566589,1
62,100,0.09090909090909091,369,0,8,DL_Guitar_2,6,1,DL_Guitar_2,0.13725043833255768,0
60,100,0.8454545454545455,453,0,8,DL_Guitar_2,6,14,DL_Guitar_2,0.159782275557518,0
60,100,0.40454545454545454,648,0,8,DL_Guitar_2,6,6,DL_Guitar_2,0.18645872175693512,0
57,100,0.2409090909090909,842,0,8,DL_Guitar_2,6,4,DL_Guitar_2,0.25817522406578064,0
60,100,0.14545454545454545,22,1,9,DL_Guitar_2,6,2,DL_Guitar_2,0.9983004927635193,1
53,100,0.20454545454545456,70,0,9,DL_Guitar_2,6,3,DL_Guitar_2,0.04466341808438301,0
59,100,0.09090909090909091,120,0,9,DL_Guitar_2,6,1,DL_Guitar_2,0.03314991667866707,0
59,100,0.38636363636363635,305,0,9,DL_Guitar_2,6,6,DL_Guitar_2,0.02657945826649666,0
60,100,0.09090909090909091,398,0,9,DL_Guitar_2,6,1,DL_Guitar_2,0.023595064878463745,0
60,100,0.7545454545454545,458,0,9,DL_Guitar_2,6,12,DL_Guitar_2,0.02431403286755085,0
55,100,0.22272727272727272,737,1,9,DL_Guitar_2,6,4,DL_Guitar_2,0.029689764603972435,0
53,100,0.09090909090909091,790,0,9,DL_Guitar_2,6,1,DL_Guitar_2,0.04007682949304581,0
55,100,0.16818181818181818,819,0,9,DL_Guitar_2,6,3,DL_Guitar_2,0.07092687487602234,0
55,100,0.14545454545454545,146,1,10,DL_Guitar_2,6,2,DL_Guitar_2,0.9988419413566589,1
55,100,0.18181818181818182,182,0,10,DL_Guitar_2,6,3,DL_Guitar_2,0.13724859058856964,0
62,100,0.09090909090909091,278,0,10,DL_Guitar_2,6,1,DL_Guitar_2,0.15977807343006134,0
62,100,0.36818181818181817,307,0,10,DL_Guitar_2,6,6,DL_Guitar_2,0.18644879758358002,0
55,100,0.6636363636363637,477,0,10,DL_Guitar_2,6,11,DL_Guitar_2,0.25817158818244934,0
52,100,0.44545454545454544,82,1,11,DL_Guitar_2,6,7,DL_Guitar_2,0.9988419413566589,1
52,100,0.1318181818181818,247,0,11,DL_Guitar_2,6,2,DL_Guitar_2,0.13724572956562042,0
53,100,0.12727272727272726,362,0,11,DL_Guitar_2,6,2,DL_Guitar_2,0.1597757786512375,0
60,100,0.16363636363636364,498,0,11,DL_Guitar_2,6,3,DL_Guitar_2,0.18645115196704865,0
67,100,0.5318181818181819,644,0,11,DL_Guitar_2,6,9,DL_Guitar_2,0.2581649124622345,0
53,100,0.18181818181818182,75,1,12,DL_Guitar_2,6,3,DL_Guitar_2,0.9984880685806274,1
53,100,0.14545454545454545,254,0,12,DL_Guitar_2,6,2,DL_Guitar_2,0.0633472427725792,0
55,100,0.11363636363636363,371,0,12,DL_Guitar_2,6,2,DL_Guitar_2,0.057743653655052185,0
62,100,0.5681818181818182,508,0,12,DL_Guitar_2,6,9,DL_Guitar_2,0.060203712433576584,0
62,100,0.11363636363636363,665,0,12,DL_Guitar_2,6,2,DL_Guitar_2,0.06970451027154922,0
62,100,0.38636363636363635,694,0,12,DL_Guitar_2,6,6,DL_Guitar_2,0.08189801871776581,0
62,100,0.31363636363636366,792,0,12,DL_Guitar_2,6,5,DL_Guitar_2,0.12402486056089401,0
55,100,0.35,101,1,13,DL_Guitar_2,6,6,DL_Guitar_2,0.9990229606628418,1
55,100,0.12727272727272726,348,1,13,DL_Guitar_2,6,2,DL_Guitar_2,0.3666284680366516,0
64,100,0.33181818181818185,752,1,13,DL_Guitar_2,6,5,DL_Guitar_2,0.4532868564128876,0
62,100,0.22272727272727272,1,1,14,DL_Guitar_2,6,4,DL_Guitar_2,0.9988419413566589,1
62,100,0.3090909090909091,123,0,14,DL_Guitar_2,6,5,DL_Guitar_2,0.13725140690803528,0
55,100,0.7,252,0,14,DL_Guitar_2,6,11,DL_Guitar_2,0.15978437662124634,0
52,100,0.33181818181818185,422,0,14,DL_Guitar_2,6,5,DL_Guitar_2,0.1864573061466217,0
55,100,0.36818181818181817,555,0,14,DL_Guitar_2,6,6,DL_Guitar_2,0.2581723928451538,0
52,100,0.18636363636363637,27,1,15,DL_Guitar_2,6,3,DL_Guitar_2,0.9986500144004822,1
52,100,0.16363636363636364,89,0,15,DL_Guitar_2,6,3,DL_Guitar_2,0.08780427277088165,0
60,100,0.18181818181818182,154,0,15,DL_Guitar_2,6,3,DL_Guitar_2,0.09181416034698486,0
52,100,0.6954545454545454,250,0,15,DL_Guitar_2,6,11,DL_Guitar_2,0.10747792571783066,0
60,100,0.2590909090909091,465,0,15,DL_Guitar_2,6,4,DL_Guitar_2,0.12482895702123642,0
65,100,0.12727272727272726,646,0,15,DL_Guitar_2,6,2,DL_Guitar_2,0.17902740836143494,0
65,100,0.14545454545454545,664,1,16,DL_Guitar_2,6,2,DL_Guitar_2,0.9983165264129639,1
65,100,0.11363636363636363,701,0,16,DL_Guitar_2,6,2,DL_Guitar_2,0.544552743434906,0
53,100,0.16818181818181818,88,1,17,DL_Guitar_2,6,3,DL_Guitar_2,0.9990229606628418,1
53,100,0.10909090909090909,133,0,17,DL_Guitar_2,6,2,DL_Guitar_2,0.36661750078201294,0
64,100,0.29545454545454547,475,1,17,DL_Guitar_2,6,5,DL_Guitar_2,0.45328861474990845,0
52,100,0.23636363636363636,461,1,18,DL_Guitar_2,6,4,DL_Guitar_2,0.9990057349205017,1
60,100,0.6090909090909091,514,0,18,DL_Guitar_2,6,10,DL_Guitar_2,0.23120664060115814,0
55,100,0.14545454545454545,660,0,18,DL_Guitar_2,6,2,DL_Guitar_2,0.26592132449150085,0
55,100,0.7727272727272727,700,0,18,DL_Guitar_2,6,12,DL_Guitar_2,0.3541910946369171,0
55,100,0.16363636363636364,43,1,19,DL_Guitar_2,6,3,DL_Guitar_2,0.9988419413566589,1
55,100,0.22272727272727272,168,0,19,DL_Guitar_2,6,4,DL_Guitar_2,0.13724839687347412,0
52,100,0.5136363636363637,220,0,19,DL_Guitar_2,6,8,DL_Guitar_2,0.15977415442466736,0
52,100,0.1318181818181818,354,0,19,DL_Guitar_2,6,2,DL_Guitar_2,0.1864507496356964,0
55,100,0.4409090909090909,763,1,19,DL_Guitar_2,6,7,DL_Guitar_2,0.2581636309623718,0
55,100,0.29545454545454547,0,1,20,DL_Guitar_2,6,5,DL_Guitar_2,0.9988419413566589,1
62,100,0.12727272727272726,65,0,20,DL_Guitar_2,6,2,DL_Guitar_2,0.13724961876869202,0
55,100,0.18181818181818182,267,0,20,DL_Guitar_2,6,3,DL_Guitar_2,0.15977898240089417,0
55,100,0.34545454545454546,323,0,20,DL_Guitar_2,6,6,DL_Guitar_2,0.1864488124847412,0
52,100,0.2772727272727273,865,1,20,DL_Guitar_2,6,4,DL_Guitar_2,0.25816860795021057,0
52,100,0.18181818181818182,103,1,21,DL_Guitar_2,6,3,DL_Guitar_2,0.9988419413566589,1
52,100,0.2909090909090909,188,0,21,DL_Guitar_2,6,5,DL_Guitar_2,0.13725025951862335,0
52,100,1.3045454545454545,268,0,21,DL_Guitar_2,6,15,DL_Guitar_2,0.15977753698825836,0
55,100,0.11363636363636363,624,1,21,DL_Guitar_2,6,2,DL_Guitar_2,0.1864522397518158,0
52,100,0.2590909090909091,786,0,21,DL_Guitar_2,6,4,DL_Guitar_2,0.25817134976387024,0
55,100,0.2590909090909091,281,1,22,DL_Guitar_2,6,4,DL_Guitar_2,0.9990229606628418,1
56,100,0.10909090909090909,399,0,22,DL_Guitar_2,6,2,DL_Guitar_2,0.3666200339794159,0
60,100,0.8272727272727273,475,0,22,DL_Guitar_2,6,13,DL_Guitar_2,0.4532841145992279,0
52,100,0.4409090909090909,4,1,23,DL_Guitar_2,6,7,DL_Guitar_2,0.9990057349205017,1
55,100,0.2590909090909091,223,0,23,DL_Guitar_2,6,4,DL_Guitar_2,0.2312047779560089,0
55,100,0.22272727272727272,336,0,23,DL_Guitar_2,6,4,DL_Guitar_2,0.2659170627593994,0
59,100,0.23636363636363636,543,0,23,DL_Guitar_2,6,4,DL_Guitar_2,0.3541918098926544,0
52,100,0.29545454545454547,2,1,24,DL_Guitar_2,6,5,DL_Guitar_2,0.9983736276626587,1
52,100,0.5,277,1,24,DL_Guitar_2,6,8,DL_Guitar_2,0.051058635115623474,0
65,100,0.12727272727272726,402,0,24,DL_Guitar_2,6,2,DL_Guitar_2,0.04130109027028084,0
65,100,0.18181818181818182,488,0,24,DL_Guitar_2,6,3,DL_Guitar_2,0.03738420829176903,0
65,100,0.5136363636363637,532,0,24,DL_Guitar_2,6,8,DL_Guitar_2,0.03832687810063362,0
53,100,0.12727272727272726,657,0,24,DL_Guitar_2,6,2,DL_Guitar_2,0.044748783111572266,0
65,100,0.6818181818181818,686,0,24,DL_Guitar_2,6,11,DL_Guitar_2,0.05522632226347923,0
53,100,0.12727272727272726,876,0,24,DL_Guitar_2,6,2,DL_Guitar_2,0.09026315808296204,0
65,100,0.2772727272727273,40,1,25,DL_Guitar_2,6,4,DL_Guitar_2,0.9990057349205017,1
65,100,0.12727272727272726,189,0,25,DL_Guitar_2,6,2,DL_Guitar_2,0.23120318353176117,0
55,100,0.12727272727272726,550,1,25,DL_Guitar_2,6,2,DL_Guitar_2,0.26591888070106506,0
55,100,0.38636363636363635,683,0,25,DL_Guitar_2,6,6,DL_Guitar_2,0.3541947901248932,0
62,100,0.16363636363636364,6,1,26,DL_Guitar_2,6,3,DL_Guitar_2,0.9988419413566589,1
62,100,0.18181818181818182,130,0,26,DL_Guitar_2,6,3,DL_Guitar_2,0.13725198805332184,0
55,100,0.2772727272727273,227,0,26,DL_Guitar_2,6,4,DL_Guitar_2,0.15978412330150604,0
62,100,0.33181818181818185,316,0,26,DL_Guitar_2,6,5,DL_Guitar_2,0.18645481765270233,0
52,100,0.09090909090909091,450,0,26,DL_Guitar_2,6,1,DL_Guitar_2,0.2581815719604492,0
64,100,0.2,246,1,27,DL_Guitar_2,6,3,DL_Guitar_2,0.9792568683624268,0
62,100,0.10909090909090909,324,1,41,DL_Guitar_2,6,2,DL_Guitar_2,0.9983164072036743,1
62,100,0.2590909090909091,410,0,41,DL_Guitar_2,6,4,DL_Guitar_2,0.5445568561553955,0
62,100,0.10909090909090909,60,1,42,DL_Guitar_2,6,2,DL_Guitar_2,0.9986500144004822,1
67,100,0.9181818181818182,83,0,42,DL_Guitar_2,6,15,DL_Guitar_2,0.08780480176210403,0
67,100,0.8090909090909091,297,0,42,DL_Guitar_2,6,13,DL_Guitar_2,0.09181461483240128,0
60,100,0.1318181818181818,483,0,42,DL_Guitar_2,6,2,DL_Guitar_2,0.10748078674077988,0
55,100,0.23636363636363636,702,0,42,DL_Guitar_2,6,4,DL_Guitar_2,0.12482500821352005,0
55,100,0.10909090909090909,799,0,42,DL_Guitar_2,6,2,DL_Guitar_2,0.17903198301792145,0
67,100,0.1318181818181818,142,1,43,DL_Guitar_2,6,2,DL_Guitar_2,0.9983004927635193,1
67,100,0.2590909090909091,194,0,43,DL_Guitar_2,6,4,DL_Guitar_2,0.04466409608721733,0
67,100,0.32727272727272727,255,0,43,DL_Guitar_2,6,5,DL_Guitar_2,0.033150676637887955,0
67,100,0.33181818181818185,336,0,43,DL_Guitar_2,6,5,DL_Guitar_2,0.02657962031662464,0
55,100,0.2,441,0,43,DL_Guitar_2,6,3,DL_Guitar_2,0.023595549166202545,0
55,100,0.2409090909090909,489,0,43,DL_Guitar_2,6,4,DL_Guitar_2,0.02431555837392807,0
55,100,0.2772727272727273,563,0,43,DL_Guitar_2,6,4,DL_Guitar_2,0.029689788818359375,0
55,100,0.16818181818181818,700,0,43,DL_Guitar_2,6,3,DL_Guitar_2,0.04007892310619354,0
62,100,0.2409090909090909,772,0,43,DL_Guitar_2,6,4,DL_Guitar_2,0.0709286481142044,0
67,100,0.11363636363636363,1,1,44,DL_Guitar_2,6,2,DL_Guitar_2,0.9983736276626587,1
62,100,0.10909090909090909,123,0,44,DL_Guitar_2,6,2,DL_Guitar_2,0.051061082631349564,0
67,100,0.16363636363636364,151,0,44,DL_Guitar_2,6,3,DL_Guitar_2,0.04130367934703827,0
67,100,0.2909090909090909,217,0,44,DL_Guitar_2,6,5,DL_Guitar_2,0.037387214601039886,0
67,100,0.8454545454545455,294,0,44,DL_Guitar_2,6,14,DL_Guitar_2,0.0383288599550724,0
65,100,0.36818181818181817,483,0,44,DL_Guitar_2,6,6,DL_Guitar_2,0.04475316032767296,0
65,100,0.5863636363636363,569,0,44,DL_Guitar_2,6,9,DL_Guitar_2,0.05522846430540085,0
65,100,0.7909090909090909,701,0,44,DL_Guitar_2,6,13,DL_Guitar_2,0.0902659147977829,0
64,100,0.5318181818181819,150,1,45,DL_Guitar_2,6,9,DL_Guitar_2,0.9986500144004822,1
64,100,0.4409090909090909,298,0,45,DL_Guitar_2,6,7,DL_Guitar_2,0.08780335634946823,0
67,100,0.10909090909090909,456,0,45,DL_Guitar_2,6,2,DL_Guitar_2,0.09181491285562515,0
60,100,0.31363636363636366,537,0,45,DL_Guitar_2,6,5,DL_Guitar_2,0.10747846961021423,0
60,100,0.18181818181818182,715,0,45,DL_Guitar_2,6,3,DL_Guitar_2,0.12482678890228271,0
60,100,0.8272727272727273,792,0,45,DL_Guitar_2,6,13,DL_Guitar_2,0.17903389036655426,0
60,100,0.10909090909090909,103,1,46,DL_Guitar_2,6,2,DL_Guitar_2,0.9984880685806274,1
60,100,0.29545454545454547,151,0,46,DL_Guitar_2,6,5,DL_Guitar_2,0.06334592401981354,0
60,100,0.8818181818181818,235,0,46,DL_Guitar_2,6,14,DL_Guitar_2,0.05774194374680519,0
60,100,0.10909090909090909,467,1,46,DL_Guitar_2,6,2,DL_Guitar_2,0.06020212173461914,0
55,100,0.6045454545454545,495,0,46,DL_Guitar_2,6,10,DL_Guitar_2,0.0697045847773552,0
55,100,0.4818181818181818,713,0,46,DL_Guitar_2,6,8,DL_Guitar_2,0.08189744502305984,0
55,100,0.6636363636363637,874,0,46,DL_Guitar_2,6,11,DL_Guitar_2,0.12402167916297913,0
55,100,0.2,144,1,47,DL_Guitar_2,6,3,DL_Guitar_2,0.9988420605659485,1
55,100,0.8454545454545455,192,0,47,DL_Guitar_2,6,14,DL_Guitar_2,0.137251079082489,0
67,100,0.15,386,0,47,DL_Guitar_2,6,2,DL_Guitar_2,0.15978503227233887,0
55,100,0.16363636363636364,419,0,47,DL_Guitar_2,6,3,DL_Guitar_2,0.1864556223154068,0
55,100,1.4681818181818183,602,0,47,DL_Guitar_2,6,15,DL_Guitar_2,0.2581562101840973,0
67,100,0.11363636363636363,45,1,48,DL_Guitar_2,6,2,DL_Guitar_2,0.9986500144004822,1
55,100,0.10909090909090909,122,0,48,DL_Guitar_2,6,2,DL_Guitar_2,0.08780250698328018,0
55,100,0.35,153,0,48,DL_Guitar_2,6,6,DL_Guitar_2,0.09181223064661026,0
67,100,0.2590909090909091,295,0,48,DL_Guitar_2,6,4,DL_Guitar_2,0.10747477412223816,0
60,100,0.2590909090909091,603,1,48,DL_Guitar_2,6,4,DL_Guitar_2,0.12482282519340515,0
65,100,0.18181818181818182,797,0,48,DL_Guitar_2,6,3,DL_Guitar_2,0.17902536690235138,0
62,100,0.14545454545454545,14,1,49,DL_Guitar_2,6,2,DL_Guitar_2,0.9983004927635193,1
60,100,0.33181818181818185,55,0,49,DL_Guitar_2,6,5,DL_Guitar_2,0.04466478154063225,0
65,100,0.14545454545454545,139,0,49,DL_Guitar_2,6,2,DL_Guitar_2,0.03315001726150513,0
62,100,0.12727272727272726,225,0,49,DL_Guitar_2,6,2,DL_Guitar_2,0.02658034674823284,0
60,100,0.09090909090909091,294,0,49,DL_Guitar_2,6,1,DL_Guitar_2,0.023595888167619705,0
65,100,0.6818181818181818,337,0,49,DL_Guitar_2,6,11,DL_Guitar_2,0.02431551367044449,0
55,100,0.44545454545454544,556,0,49,DL_Guitar_2,6,7,DL_Guitar_2,0.02969181351363659,0
55,100,0.2590909090909091,709,0,49,DL_Guitar_2,6,4,DL_Guitar_2,0.040078844875097275,0
55,100,0.20454545454545456,795,0,49,DL_Guitar_2,6,3,DL_Guitar_2,0.07093071937561035,0
55,100,0.23636363636363636,56,1,50,DL_Guitar_2,6,4,DL_Guitar_2,0.9988419413566589,1
55,100,0.35,112,0,50,DL_Guitar_2,6,6,DL_Guitar_2,0.13725075125694275,0
55,100,0.7,193,0,50,DL_Guitar_2,6,11,DL_Guitar_2,0.15977880358695984,0
62,100,0.18636363636363637,396,0,50,DL_Guitar_2,6,3,DL_Guitar_2,0.18645285069942474,0
57,100,0.7363636363636363,501,0,50,DL_Guitar_2,6,12,DL_Guitar_2,0.2581620216369629,0
55,100,0.15,57,1,51,DL_Guitar_2,6,2,DL_Guitar_2,0.9983164072036743,1
62,100,0.8272727272727273,284,0,51,DL_Guitar_2,6,13,DL_Guitar_2,0.5445594191551208,0
67,100,0.2727272727272727,404,1,52,DL_Guitar_2,6,4,DL_Guitar_2,0.9990057349205017,1
55,100,0.21818181818181817,508,0,52,DL_Guitar_2,6,3,DL_Guitar_2,0.23121219873428345,0
55,100,0.4409090909090909,653,0,52,DL_Guitar_2,6,7,DL_Guitar_2,0.2659284472465515,0
57,100,0.10909090909090909,819,0,52,DL_Guitar_2,6,2,DL_Guitar_2,0.3541851341724396,0
55,100,0.7363636363636363,178,1,53,DL_Guitar_2,6,12,DL_Guitar_2,0.9986500144004822,1
55,100,0.2727272727272727,357,0,53,DL_Guitar_2,6,4,DL_Guitar_2,0.08780690282583237,0
55,100,0.18181818181818182,449,0,53,DL_Guitar_2,6,3,DL_Guitar_2,0.09181580692529678,0
55,100,0.10909090909090909,680,0,53,DL_Guitar_2,6,2,DL_Guitar_2,0.10748138278722763,0
55,100,0.1318181818181818,792,0,53,DL_Guitar_2,6,2,DL_Guitar_2,0.12482865154743195,0
55,100,0.8454545454545455,825,0,53,DL_Guitar_2,6,14,DL_Guitar_2,0.17902354896068573,0
55,100,0.6272727272727273,148,1,54,DL_Guitar_2,6,10,DL_Guitar_2,0.9990057349205017,1
55,100,0.10909090909090909,330,0,54,DL_Guitar_2,6,2,DL_Guitar_2,0.23120811581611633,0
55,100,0.4409090909090909,378,0,54,DL_Guitar_2,6,7,DL_Guitar_2,0.26591333746910095,0
55,100,0.6272727272727273,698,1,54,DL_Guitar_2,6,10,DL_Guitar_2,0.354183554649353,0
62,100,0.20454545454545456,12,1,55,DL_Guitar_2,6,3,DL_Guitar_2,0.9983736276626587,1
55,100,0.18636363636363637,190,0,55,DL_Guitar_2,6,3,DL_Guitar_2,0.05106110870838165,0
62,100,0.10909090909090909,267,0,55,DL_Guitar_2,6,2,DL_Guitar_2,0.041303884238004684,0
55,100,0.22272727272727272,404,0,55,DL_Guitar_2,6,4,DL_Guitar_2,0.03738860413432121,0
55,100,0.2772727272727273,456,0,55,DL_Guitar_2,6,4,DL_Guitar_2,0.038331709802150726,0
55,100,0.40454545454545454,611,0,55,DL_Guitar_2,6,6,DL_Guitar_2,0.0447537936270237,0
55,100,0.4772727272727273,731,0,55,DL_Guitar_2,6,8,DL_Guitar_2,0.05523207038640976,0
55,100,0.5,857,0,55,DL_Guitar_2,6,8,DL_Guitar_2,0.09026536345481873,0
55,100,0.16818181818181818,151,1,56,DL_Guitar_2,6,3,DL_Guitar_2,0.9984880685806274,1
67,100,0.10909090909090909,196,0,56,DL_Guitar_2,6,2,DL_Guitar_2,0.06334495544433594,0
52,100,0.18181818181818182,296,0,56,DL_Guitar_2,6,3,DL_Guitar_2,0.057742197066545486,0
55,100,0.31363636363636366,421,0,56,DL_Guitar_2,6,5,DL_Guitar_2,0.06020260602235794,0
57,100,0.10909090909090909,648,0,56,DL_Guitar_2,6,2,DL_Guitar_2,0.06970291584730148,0
55,100,0.2772727272727273,782,0,56,DL_Guitar_2,6,4,DL_Guitar_2,0.08189943432807922,0
55,100,1.4863636363636363,846,0,56,DL_Guitar_2,6,15,DL_Guitar_2,0.12401743978261948,0
55,100,0.9409090909090909,297,1,57,DL_Guitar_2,6,15,DL_Guitar_2,0.9990230798721313,1
55,100,1.1045454545454545,521,0,57,DL_Guitar_2,6,15,DL_Guitar_2,0.3666258454322815,0
55,100,0.16363636363636364,776,1,57,DL_Guitar_2,6,3,DL_Guitar_2,0.4532839059829712,0
60,100,0.2590909090909091,13,1,58,DL_Guitar_2,6,4,DL_Guitar_2,0.9990230798721313,1
55,100,0.9545454545454546,206,0,58,DL_Guitar_2,6,15,DL_Guitar_2,0.36661967635154724,0
55,100,0.1318181818181818,428,0,58,DL_Guitar_2,6,2,DL_Guitar_2,0.4532904326915741,0
62,100,0.2909090909090909,14,1,59,DL_Guitar_2,6,5,DL_Guitar_2,0.9988419413566589,1
55,100,1.05,90,0,59,DL_Guitar_2,6,15,DL_Guitar_2,0.13724583387374878,0
62,100,0.22272727272727272,337,1,59,DL_Guitar_2,6,4,DL_Guitar_2,0.15977874398231506,0
62,100,0.2772727272727273,451,0,59,DL_Guitar_2,6,4,DL_Guitar_2,0.18645162880420685,0
60,100,0.14545454545454545,852,1,59,DL_Guitar_2,6,2,DL_Guitar_2,0.258177250623703,0
55,100,0.18181818181818182,93,1,60,DL_Guitar_2,6,3,DL_Guitar_2,0.9990057349205017,1
55,100,0.7,302,0,60,DL_Guitar_2,6,11,DL_Guitar_2,0.23120063543319702,0
57,100,0.38636363636363635,618,1,60,DL_Guitar_2,6,6,DL_Guitar_2,0.26592162251472473,0
55,100,0.9954545454545455,751,0,60,DL_Guitar_2,6,15,DL_Guitar_2,0.35419416427612305,0
55,100,0.31363636363636366,199,1,61,DL_Guitar_2,6,5,DL_Guitar_2,0.9983004927635193,1
55,100,0.2772727272727273,349,0,61,DL_Guitar_2,6,4,DL_Guitar_2,0.044665027409791946,0
67,100,0.20454545454545456,410,0,61,DL_Guitar_2,6,3,DL_Guitar_2,0.03314891457557678,0
55,100,0.21818181818181817,462,0,61,DL_Guitar_2,6,3,DL_Guitar_2,0.026579855009913445,0
55,100,0.09545454545454546,538,0,61,DL_Guitar_2,6,2,DL_Guitar_2,0.023594560101628304,0
55,100,0.12727272727272726,563,0,61,DL_Guitar_2,6,2,DL_Guitar_2,0.024313826113939285,0
55,100,0.2727272727272727,637,0,61,DL_Guitar_2,6,4,DL_Guitar_2,0.0296889990568161,0
55,100,0.40454545454545454,705,0,61,DL_Guitar_2,6,6,DL_Guitar_2,0.04007595032453537,0
60,100,0.15,797,0,61,DL_Guitar_2,6,2,DL_Guitar_2,0.0709288939833641,0
55,100,0.5909090909090909,19,1,62,DL_Guitar_2,6,9,DL_Guitar_2,0.9983736276626587,1
55,100,0.36818181818181817,165,0,62,DL_Guitar_2,6,6,DL_Guitar_2,0.05106114223599434,0
67,100,0.09090909090909091,254,0,62,DL_Guitar_2,6,1,DL_Guitar_2,0.04130389541387558,0
55,100,0.8272727272727273,289,0,62,DL_Guitar_2,6,13,DL_Guitar_2,0.0373852364718914,0
55,100,0.12727272727272726,501,0,62,DL_Guitar_2,6,2,DL_Guitar_2,0.03832923248410225,0
62,100,0.7,541,0,62,DL_Guitar_2,6,11,DL_Guitar_2,0.04475024342536926,0
74,100,0.23636363636363636,796,1,62,DL_Guitar_2,6,4,DL_Guitar_2,0.055229585617780685,0
67,100,0.12727272727272726,873,0,62,DL_Guitar_2,6,2,DL_Guitar_2,0.09026423841714859,0
62,100,0.12727272727272726,206,1,63,DL_Guitar_2,6,2,DL_Guitar_2,0.9990230798721313,1
55,100,0.23636363636363636,364,0,63,DL_Guitar_2,6,4,DL_Guitar_2,0.36662906408309937,0
55,100,1.4681818181818183,547,0,63,DL_Guitar_2,6,15,DL_Guitar_2,0.45328399538993835,0
55,100,0.42272727272727273,11,1,64,DL_Guitar_2,6,7,DL_Guitar_2,0.9982553124427795,1
52,100,0.10909090909090909,115,0,64,DL_Guitar_2,6,2,DL_Guitar_2,0.041289009153842926,0
55,100,0.09545454545454546,188,0,64,DL_Guitar_2,6,2,DL_Guitar_2,0.02893553487956524,0
67,100,0.42272727272727273,212,0,64,DL_Guitar_2,6,7,DL_Guitar_2,0.02128918468952179,0
55,100,1.009090909090909,305,0,64,DL_Guitar_2,6,15,DL_Guitar_2,0.016745708882808685,0
57,100,0.11363636363636363,632,1,64,DL_Guitar_2,6,2,DL_Guitar_2,0.014918691478669643,0
55,100,0.2545454545454545,670,0,64,DL_Guitar_2,6,4,DL_Guitar_2,0.016016509383916855,0
55,100,0.11363636363636363,738,0,64,DL_Guitar_2,6,2,DL_Guitar_2,0.02117946930229664,0
60,100,0.10909090909090909,762,0,64,DL_Guitar_2,6,2,DL_Guitar_2,0.031569018959999084,0
55,100,0.29545454545454547,802,0,64,DL_Guitar_2,6,5,DL_Guitar_2,0.06005920097231865,0
55,100,0.42272727272727273,0,1,65,DL_Guitar_2,6,7,DL_Guitar_2,0.9983736276626587,1
62,100,0.2909090909090909,141,0,65,DL_Guitar_2,6,5,DL_Guitar_2,0.051061660051345825,0
62,100,0.35,218,0,65,DL_Guitar_2,6,6,DL_Guitar_2,0.0413040854036808,0
62,100,0.38636363636363635,299,0,65,DL_Guitar_2,6,6,DL_Guitar_2,0.037388790398836136,0
55,100,0.5318181818181819,412,0,65,DL_Guitar_2,6,9,DL_Guitar_2,0.03833243250846863,0
55,100,0.1318181818181818,577,0,65,DL_Guitar_2,6,2,DL_Guitar_2,0.04475654289126396,0
55,100,1.0272727272727273,627,0,65,DL_Guitar_2,6,15,DL_Guitar_2,0.05523361265659332,0
55,100,2.040909090909091,861,1,65,DL_Guitar_2,6,15,DL_Guitar_2,0.09026799350976944,0
67,100,0.1318181818181818,429,1,66,DL_Guitar_2,6,2,DL_Guitar_2,0.9990057349205017,1
55,100,0.38636363636363635,458,0,66,DL_Guitar_2,6,6,DL_Guitar_2,0.23120000958442688,0
60,100,0.7727272727272727,560,0,66,DL_Guitar_2,6,12,DL_Guitar_2,0.2659175992012024,0
60,100,0.6227272727272727,733,0,66,DL_Guitar_2,6,10,DL_Guitar_2,0.3541993796825409,0
67,100,0.10909090909090909,225,1,67,DL_Guitar_2,6,2,DL_Guitar_2,0.9988420605659485,1
67,100,0.12727272727272726,424,0,67,DL_Guitar_2,6,2,DL_Guitar_2,0.1372484415769577,0
55,100,0.11363636363636363,476,0,67,DL_Guitar_2,6,2,DL_Guitar_2,0.1597760170698166,0
55,100,0.10909090909090909,533,0,67,DL_Guitar_2,6,2,DL_Guitar_2,0.18644684553146362,0
55,100,1.1181818181818182,605,0,67,DL_Guitar_2,6,15,DL_Guitar_2,0.2581559121608734,0
55,100,1.9090909090909092,0,1,68,DL_Guitar_2,6,15,DL_Guitar_2,0.9792552590370178,1
52,100,0.21818181818181817,418,1,0,DL_Guitar,6,3,DL_Guitar,0.9983165264129639,1
60,100,0.1,796,1,0,DL_Guitar,6,2,DL_Guitar,0.544559895992279,0
64,100,0.1409090909090909,0,1,1,DL_Guitar,6,2,DL_Guitar,0.9983736276626587,1
64,100,0.2772727272727273,39,0,1,DL_Guitar,6,4,DL_Guitar,0.05105988308787346,0
52,100,0.4,157,0,1,DL_Guitar,6,6,DL_Guitar,0.04130297899246216,0
59,100,0.1590909090909091,276,0,1,DL_Guitar,6,3,DL_Guitar,0.0373862162232399,0
52,100,0.6409090909090909,343,0,1,DL_Guitar,6,10,DL_Guitar,0.03832956403493881,0
53,100,0.1,496,0,1,DL_Guitar,6,2,DL_Guitar,0.04475149139761925,0
60,100,0.4409090909090909,752,1,1,DL_Guitar,6,7,DL_Guitar,0.05522843822836876,0
65,100,0.13636363636363635,854,0,1,DL_Guitar,6,2,DL_Guitar,0.09026432782411575,0
57,100,0.18181818181818182,43,1,2,DL_Guitar,6,3,DL_Guitar,0.9983003735542297,1
57,100,0.2818181818181818,136,0,2,DL_Guitar,6,5,DL_Guitar,0.044663675129413605,0
53,100,0.2590909090909091,220,0,2,DL_Guitar,6,4,DL_Guitar,0.03315001726150513,0
53,100,0.11818181818181818,281,0,2,DL_Guitar,6,2,DL_Guitar,0.026579705998301506,0
53,100,0.18181818181818182,396,0,2,DL_Guitar,6,3,DL_Guitar,0.02359491027891636,0
60,100,0.4409090909090909,470,0,2,DL_Guitar,6,7,DL_Guitar,0.024314530193805695,0
57,100,0.4409090909090909,620,0,2,DL_Guitar,6,7,DL_Guitar,0.02968943491578102,0
62,100,0.1590909090909091,779,0,2,DL_Guitar,6,3,DL_Guitar,0.04007747396826744,0
62,100,0.3,849,0,2,DL_Guitar,6,5,DL_Guitar,0.07092958688735962,0
57,100,0.2,119,1,3,DL_Guitar,6,3,DL_Guitar,0.9990230798721313,1
62,100,0.3409090909090909,201,0,3,DL_Guitar,6,5,DL_Guitar,0.36663174629211426,0
62,100,0.11818181818181818,461,1,3,DL_Guitar,6,2,DL_Guitar,0.4532954692840576,0
60,100,0.1409090909090909,74,1,4,DL_Guitar,6,2,DL_Guitar,0.9983165264129639,1
60,100,0.21818181818181817,307,1,4,DL_Guitar,6,3,DL_Guitar,0.5445532202720642,0
60,100,0.11818181818181818,30,1,5,DL_Guitar,6,2,DL_Guitar,0.9983004927635193,1
64,100,0.11818181818181818,118,0,5,DL_Guitar,6,2,DL_Guitar,0.044664204120635986,0
64,100,0.2,171,0,5,DL_Guitar,6,3,DL_Guitar,0.03315116465091705,0
64,100,0.3,228,0,5,DL_Guitar,6,5,DL_Guitar,0.02658109925687313,0
64,100,0.18181818181818182,299,0,5,DL_Guitar,6,3,DL_Guitar,0.023596888408064842,0
64,100,0.2,355,0,5,DL_Guitar,6,3,DL_Guitar,0.02431579679250717,0
64,100,0.1590909090909091,404,0,5,DL_Guitar,6,3,DL_Guitar,0.029691597446799278,0
52,100,0.1,475,0,5,DL_Guitar,6,2,DL_Guitar,0.04007836803793907,0
52,100,0.5181818181818182,634,0,5,DL_Guitar,6,8,DL_Guitar,0.07093040645122528,0
60,100,0.3181818181818182,220,1,6,DL_Guitar,6,5,DL_Guitar,0.9990229606628418,1
57,100,0.8181818181818182,307,0,6,DL_Guitar,6,13,DL_Guitar,0.3666055500507355,0
60,100,0.12272727272727273,488,0,6,DL_Guitar,6,2,DL_Guitar,0.4532950818538666,0
62,100,0.3,69,1,7,DL_Guitar,6,5,DL_Guitar,0.9988419413566589,1
62,100,0.3409090909090909,158,0,7,DL_Guitar,6,5,DL_Guitar,0.13725201785564423,0
62,100,0.2590909090909091,352,0,7,DL_Guitar,6,4,DL_Guitar,0.15978215634822845,0
62,100,0.5409090909090909,624,1,7,DL_Guitar,6,9,DL_Guitar,0.18646176159381866,0
62,100,0.1409090909090909,778,0,7,DL_Guitar,6,2,DL_Guitar,0.25818854570388794,0
62,100,0.2409090909090909,343,1,8,DL_Guitar,6,4,DL_Guitar,0.9988419413566589,1
62,100,0.18181818181818182,409,0,8,DL_Guitar,6,3,DL_Guitar,0.13725286722183228,0
62,100,0.1590909090909091,457,0,8,DL_Guitar,6,3,DL_Guitar,0.15979008376598358,0
62,100,0.11818181818181818,603,0,8,DL_Guitar,6,2,DL_Guitar,0.18645887076854706,0
62,100,0.1409090909090909,835,1,8,DL_Guitar,6,2,DL_Guitar,0.25818389654159546,0
62,100,0.1,140,1,9,DL_Guitar,6,2,DL_Guitar,0.9984880685806274,1
60,100,0.9227272727272727,233,0,9,DL_Guitar,6,15,DL_Guitar,0.06334494054317474,0
60,100,0.4409090909090909,443,0,9,DL_Guitar,6,7,DL_Guitar,0.0577431321144104,0
57,100,0.2590909090909091,656,0,9,DL_Guitar,6,4,DL_Guitar,0.06020144373178482,0
60,100,0.1590909090909091,721,0,9,DL_Guitar,6,3,DL_Guitar,0.0697048008441925,0
53,100,0.22272727272727272,773,0,9,DL_Guitar,6,4,DL_Guitar,0.08189402520656586,0
59,100,0.1,826,0,9,DL_Guitar,6,2,DL_Guitar,0.1240253746509552,0
59,100,0.41818181818181815,149,1,10,DL_Guitar,6,7,DL_Guitar,0.9986500144004822,1
60,100,0.1,250,0,10,DL_Guitar,6,2,DL_Guitar,0.08780357986688614,0
60,100,0.8181818181818182,316,0,10,DL_Guitar,6,13,DL_Guitar,0.09181209653615952,0
55,100,0.2409090909090909,620,1,10,DL_Guitar,6,4,DL_Guitar,0.1074758991599083,0
53,100,0.1,677,0,10,DL_Guitar,6,2,DL_Guitar,0.12482438236474991,0
55,100,0.18181818181818182,708,0,10,DL_Guitar,6,3,DL_Guitar,0.17903099954128265,0
55,100,0.1590909090909091,53,1,11,DL_Guitar,6,3,DL_Guitar,0.9988419413566589,1
55,100,0.2,92,0,11,DL_Guitar,6,3,DL_Guitar,0.13724875450134277,0
62,100,0.1,197,0,11,DL_Guitar,6,2,DL_Guitar,0.1597772091627121,0
62,100,0.4,228,0,11,DL_Guitar,6,6,DL_Guitar,0.18645240366458893,0
55,100,0.7181818181818181,414,0,11,DL_Guitar,6,11,DL_Guitar,0.2581758201122284,0
52,100,0.4772727272727273,61,1,12,DL_Guitar,6,8,DL_Guitar,0.9988419413566589,1
52,100,0.1409090909090909,242,0,12,DL_Guitar,6,2,DL_Guitar,0.13724559545516968,0
53,100,0.1409090909090909,364,0,12,DL_Guitar,6,2,DL_Guitar,0.15977329015731812,0
60,100,0.17727272727272728,515,0,12,DL_Guitar,6,3,DL_Guitar,0.1864481121301651,0
67,100,0.5818181818181818,673,0,12,DL_Guitar,6,9,DL_Guitar,0.2581578493118286,0
53,100,0.2,132,1,13,DL_Guitar,6,3,DL_Guitar,0.9986500144004822,1
53,100,0.1590909090909091,326,0,13,DL_Guitar,6,3,DL_Guitar,0.08780377358198166,0
55,100,0.12272727272727273,453,0,13,DL_Guitar,6,2,DL_Guitar,0.09181580692529678,0
62,100,0.6181818181818182,603,0,13,DL_Guitar,6,10,DL_Guitar,0.10747784376144409,0
62,100,0.12272727272727273,773,0,13,DL_Guitar,6,2,DL_Guitar,0.12483059614896774,0
62,100,0.42272727272727273,804,0,13,DL_Guitar,6,7,DL_Guitar,0.17903946340084076,0
62,100,0.3409090909090909,30,1,14,DL_Guitar,6,5,DL_Guitar,0.9990230798721313,1
55,100,0.37727272727272726,237,0,14,DL_Guitar,6,6,DL_Guitar,0.3666316866874695,0
55,100,0.1409090909090909,505,1,14,DL_Guitar,6,2,DL_Guitar,0.45329251885414124,0
64,100,0.35909090909090907,65,1,15,DL_Guitar,6,6,DL_Guitar,0.9986500144004822,1
62,100,0.2409090909090909,206,0,15,DL_Guitar,6,4,DL_Guitar,0.08780323714017868,0
62,100,0.3409090909090909,338,0,15,DL_Guitar,6,5,DL_Guitar,0.09181692451238632,0
55,100,0.759090909090909,479,0,15,DL_Guitar,6,12,DL_Guitar,0.10748080909252167,0
52,100,0.36363636363636365,663,0,15,DL_Guitar,6,6,DL_Guitar,0.12483116239309311,0
55,100,0.4,809,0,15,DL_Guitar,6,6,DL_Guitar,0.17903804779052734,0
52,100,0.2,312,1,16,DL_Guitar,6,3,DL_Guitar,0.9988419413566589,1
52,100,0.18181818181818182,378,0,16,DL_Guitar,6,3,DL_Guitar,0.13724607229232788,0
60,100,0.2,449,0,16,DL_Guitar,6,3,DL_Guitar,0.15977613627910614,0
52,100,0.7636363636363637,553,0,16,DL_Guitar,6,12,DL_Guitar,0.18644709885120392,0
60,100,0.2772727272727273,787,1,16,DL_Guitar,6,4,DL_Guitar,0.25817131996154785,0
65,100,0.13636363636363635,106,1,17,DL_Guitar,6,2,DL_Guitar,0.9792559146881104,0
65,100,0.16363636363636364,202,1,18,DL_Guitar,6,3,DL_Guitar,0.9990057349205017,1
65,100,0.11818181818181818,241,0,18,DL_Guitar,6,2,DL_Guitar,0.23120082914829254,0
53,100,0.18181818181818182,532,1,18,DL_Guitar,6,3,DL_Guitar,0.26591476798057556,0
53,100,0.11818181818181818,581,0,18,DL_Guitar,6,2,DL_Guitar,0.3541852831840515,0
64,100,0.3181818181818182,75,1,19,DL_Guitar,6,5,DL_Guitar,0.9792572259902954,0
52,100,0.2636363636363636,136,1,20,DL_Guitar,6,4,DL_Guitar,0.9984880685806274,1
60,100,0.6590909090909091,193,0,20,DL_Guitar,6,11,DL_Guitar,0.06334716081619263,0
55,100,0.1590909090909091,351,0,20,DL_Guitar,6,3,DL_Guitar,0.05774414911866188,0
55,100,0.8409090909090909,395,0,20,DL_Guitar,6,13,DL_Guitar,0.06020493060350418,0
55,100,0.18181818181818182,638,1,20,DL_Guitar,6,3,DL_Guitar,0.06970477104187012,0
55,100,0.2409090909090909,773,0,20,DL_Guitar,6,4,DL_Guitar,0.08189531415700912,0
52,100,0.5590909090909091,831,0,20,DL_Guitar,6,9,DL_Guitar,0.12402071058750153,0
52,100,0.1409090909090909,96,1,21,DL_Guitar,6,2,DL_Guitar,0.9990057349205017,1
55,100,0.4818181818181818,540,1,21,DL_Guitar,6,8,DL_Guitar,0.2312091886997223,0
55,100,0.3181818181818182,669,0,21,DL_Guitar,6,5,DL_Guitar,0.26592156291007996,0
62,100,0.1409090909090909,739,0,21,DL_Guitar,6,2,DL_Guitar,0.3541969656944275,0
55,100,0.2,79,1,22,DL_Guitar,6,3,DL_Guitar,0.9990057349205017,1
55,100,0.37727272727272726,140,0,22,DL_Guitar,6,6,DL_Guitar,0.23119966685771942,0
52,100,0.3,729,1,22,DL_Guitar,6,5,DL_Guitar,0.265920490026474,0
52,100,0.2,858,0,22,DL_Guitar,6,3,DL_Guitar,0.3541918694972992,0
52,100,0.32272727272727275,69,1,23,DL_Guitar,6,5,DL_Guitar,0.9990057349205017,1
52,100,1.4227272727272726,158,0,23,DL_Guitar,6,15,DL_Guitar,0.23120853304862976,0
55,100,0.11818181818181818,546,1,23,DL_Guitar,6,2,DL_Guitar,0.2659211754798889,0
52,100,0.2772727272727273,721,0,23,DL_Guitar,6,4,DL_Guitar,0.354198694229126,0
55,100,0.2772727272727273,250,1,24,DL_Guitar,6,4,DL_Guitar,0.9990229606628418,1
56,100,0.12272727272727273,378,0,24,DL_Guitar,6,2,DL_Guitar,0.36661669611930847,0
60,100,0.9,461,0,24,DL_Guitar,6,14,DL_Guitar,0.45328468084335327,0
52,100,0.4818181818181818,26,1,25,DL_Guitar,6,8,DL_Guitar,0.9990057349205017,1
55,100,0.2818181818181818,264,1,25,DL_Guitar,6,5,DL_Guitar,0.23120684921741486,0
55,100,0.2409090909090909,387,0,25,DL_Guitar,6,4,DL_Guitar,0.26592394709587097,0
59,100,0.2590909090909091,611,0,25,DL_Guitar,6,4,DL_Guitar,0.3541902005672455,0
52,100,0.32272727272727275,100,1,26,DL_Guitar,6,5,DL_Guitar,0.9984880685806274,1
52,100,0.5409090909090909,399,1,26,DL_Guitar,6,9,DL_Guitar,0.06334464251995087,0
65,100,0.1409090909090909,536,0,26,DL_Guitar,6,2,DL_Guitar,0.05774066969752312,0
65,100,0.2,629,0,26,DL_Guitar,6,3,DL_Guitar,0.060200173407793045,0
65,100,0.5590909090909091,677,0,26,DL_Guitar,6,9,DL_Guitar,0.06969985365867615,0
53,100,0.1409090909090909,814,0,26,DL_Guitar,6,2,DL_Guitar,0.08189284056425095,0
65,100,0.740909090909091,845,0,26,DL_Guitar,6,12,DL_Guitar,0.12401532381772995,0
53,100,0.13636363636363635,171,1,27,DL_Guitar,6,2,DL_Guitar,0.9990057349205017,1
65,100,0.3,220,0,27,DL_Guitar,6,5,DL_Guitar,0.23120078444480896,0
65,100,0.1409090909090909,382,0,27,DL_Guitar,6,2,DL_Guitar,0.2659153640270233,0
55,100,0.1409090909090909,773,1,27,DL_Guitar,6,2,DL_Guitar,0.35419216752052307,0
55,100,0.41818181818181815,40,1,28,DL_Guitar,6,7,DL_Guitar,0.9986500144004822,1
62,100,0.17727272727272728,260,0,28,DL_Guitar,6,3,DL_Guitar,0.08780346065759659,0
62,100,0.2,395,0,28,DL_Guitar,6,3,DL_Guitar,0.09181545674800873,0
55,100,0.3,501,0,28,DL_Guitar,6,5,DL_Guitar,0.10747749358415604,0
62,100,0.36363636363636365,598,0,28,DL_Guitar,6,6,DL_Guitar,0.12482713162899017,0
52,100,0.1,743,0,28,DL_Guitar,6,2,DL_Guitar,0.1790378987789154,0
64,100,0.22272727272727272,598,1,29,DL_Guitar,6,4,DL_Guitar,0.9792569875717163,0
62,100,0.11818181818181818,8,1,45,DL_Guitar,6,2,DL_Guitar,0.9990057349205017,1
62,100,0.2818181818181818,101,0,45,DL_Guitar,6,5,DL_Guitar,0.2312101572751999,0
62,100,0.11818181818181818,678,1,45,DL_Guitar,6,2,DL_Guitar,0.2659327983856201,0
67,100,1.0,703,0,45,DL_Guitar,6,15,DL_Guitar,0.3541984558105469,0
67,100,0.8818181818181818,56,1,46,DL_Guitar,6,14,DL_Guitar,0.9988419413566589,1
60,100,0.13636363636363635,260,0,46,DL_Guitar,6,2,DL_Guitar,0.13725531101226807,0
55,100,0.2590909090909091,496,1,46,DL_Guitar,6,4,DL_Guitar,0.15978027880191803,0
55,100,0.11818181818181818,603,0,46,DL_Guitar,6,2,DL_Guitar,0.1864498406648636,0
67,100,0.1409090909090909,845,1,46,DL_Guitar,6,2,DL_Guitar,0.25815683603286743,0
67,100,0.2818181818181818,21,1,47,DL_Guitar,6,5,DL_Guitar,0.9983003735542297,1
67,100,0.35909090909090907,88,0,47,DL_Guitar,6,6,DL_Guitar,0.04466415196657181,0
67,100,0.35909090909090907,176,0,47,DL_Guitar,6,6,DL_Guitar,0.03314964845776558,0
55,100,0.22272727272727272,289,0,47,DL_Guitar,6,4,DL_Guitar,0.02657986804842949,0
55,100,0.2590909090909091,343,0,47,DL_Guitar,6,4,DL_Guitar,0.023594871163368225,0
55,100,0.3,421,0,47,DL_Guitar,6,5,DL_Guitar,0.02431424893438816,0
55,100,0.18181818181818182,571,0,47,DL_Guitar,6,3,DL_Guitar,0.029689280316233635,0
62,100,0.2590909090909091,651,0,47,DL_Guitar,6,4,DL_Guitar,0.04007727652788162,0
67,100,0.11818181818181818,770,0,47,DL_Guitar,6,2,DL_Guitar,0.07092870771884918,0
62,100,0.11818181818181818,21,1,48,DL_Guitar,6,2,DL_Guitar,0.9984880685806274,1
67,100,0.17727272727272728,53,0,48,DL_Guitar,6,3,DL_Guitar,0.06334639340639114,0
67,100,0.32272727272727275,123,0,48,DL_Guitar,6,5,DL_Guitar,0.05774173140525818,0
67,100,0.9181818181818182,206,0,48,DL_Guitar,6,15,DL_Guitar,0.06020095944404602,0
65,100,0.4,413,0,48,DL_Guitar,6,6,DL_Guitar,0.06970104575157166,0
65,100,0.6409090909090909,506,0,48,DL_Guitar,6,10,DL_Guitar,0.0818907618522644,0
65,100,0.8590909090909091,651,0,48,DL_Guitar,6,14,DL_Guitar,0.12401639670133591,0
64,100,0.5772727272727273,128,1,49,DL_Guitar,6,9,DL_Guitar,0.9986500144004822,1
64,100,0.4818181818181818,289,0,49,DL_Guitar,6,8,DL_Guitar,0.08780448883771896,0
67,100,0.11818181818181818,461,0,49,DL_Guitar,6,2,DL_Guitar,0.0918140634894371,0
60,100,0.3409090909090909,550,0,49,DL_Guitar,6,5,DL_Guitar,0.10747717320919037,0
60,100,0.2,743,0,49,DL_Guitar,6,3,DL_Guitar,0.12482823431491852,0
60,100,0.9,826,0,49,DL_Guitar,6,14,DL_Guitar,0.17903178930282593,0
60,100,0.11818181818181818,153,1,50,DL_Guitar,6,2,DL_Guitar,0.9986500144004822,1
60,100,0.3181818181818182,206,0,50,DL_Guitar,6,5,DL_Guitar,0.08780526369810104,0
60,100,0.9590909090909091,298,0,50,DL_Guitar,6,15,DL_Guitar,0.09181477874517441,0
60,100,0.11818181818181818,550,1,50,DL_Guitar,6,2,DL_Guitar,0.10748302191495895,0
55,100,0.6590909090909091,581,0,50,DL_Guitar,6,11,DL_Guitar,0.12482795119285583,0
55,100,0.5227272727272727,818,1,50,DL_Guitar,6,8,DL_Guitar,0.17903780937194824,0
55,100,0.7227272727272728,114,1,51,DL_Guitar,6,12,DL_Guitar,0.9986500144004822,1
55,100,0.22272727272727272,276,0,51,DL_Guitar,6,4,DL_Guitar,0.0878063291311264,0
55,100,0.9181818181818182,330,0,51,DL_Guitar,6,15,DL_Guitar,0.09181433916091919,0
67,100,0.1590909090909091,541,0,51,DL_Guitar,6,3,DL_Guitar,0.10747936367988586,0
55,100,0.18181818181818182,576,0,51,DL_Guitar,6,3,DL_Guitar,0.12482961267232895,0
55,100,1.6,774,0,51,DL_Guitar,6,15,DL_Guitar,0.17902767658233643,0
67,100,0.12272727272727273,246,1,52,DL_Guitar,6,2,DL_Guitar,0.9988420605659485,1
55,100,0.11818181818181818,330,0,52,DL_Guitar,6,2,DL_Guitar,0.1372511088848114,0
55,100,0.38181818181818183,364,0,52,DL_Guitar,6,6,DL_Guitar,0.1597767025232315,0
67,100,0.2818181818181818,518,0,52,DL_Guitar,6,5,DL_Guitar,0.18644733726978302,0
60,100,0.2772727272727273,853,1,52,DL_Guitar,6,4,DL_Guitar,0.25816431641578674,0
65,100,0.2,185,1,53,DL_Guitar,6,3,DL_Guitar,0.9984880685806274,1
62,100,0.16363636363636364,289,0,53,DL_Guitar,6,3,DL_Guitar,0.06334560364484787,0
60,100,0.36363636363636365,334,0,53,DL_Guitar,6,6,DL_Guitar,0.057742565870285034,0
65,100,0.1590909090909091,426,0,53,DL_Guitar,6,3,DL_Guitar,0.06020251661539078,0
62,100,0.1409090909090909,518,0,53,DL_Guitar,6,2,DL_Guitar,0.06970421224832535,0
60,100,0.1,593,0,53,DL_Guitar,6,2,DL_Guitar,0.08189675211906433,0
65,100,0.740909090909091,641,0,53,DL_Guitar,6,12,DL_Guitar,0.12402131408452988,0
55,100,0.4818181818181818,0,1,54,DL_Guitar,6,8,DL_Guitar,0.9984880685806274,1
55,100,0.2818181818181818,166,0,54,DL_Guitar,6,5,DL_Guitar,0.06334588676691055,0
55,100,0.21818181818181817,260,0,54,DL_Guitar,6,3,DL_Guitar,0.05774281919002533,0
55,100,0.2590909090909091,413,0,54,DL_Guitar,6,4,DL_Guitar,0.06020425260066986,0
55,100,0.38181818181818183,474,0,54,DL_Guitar,6,6,DL_Guitar,0.06970501691102982,0
55,100,0.759090909090909,563,0,54,DL_Guitar,6,12,DL_Guitar,0.08189263194799423,0
62,100,0.2,783,0,54,DL_Guitar,6,3,DL_Guitar,0.12402237951755524,0
57,100,0.8,18,1,55,DL_Guitar,6,13,DL_Guitar,0.9990229606628418,1
55,100,0.1590909090909091,493,1,55,DL_Guitar,6,3,DL_Guitar,0.36663463711738586,0
62,100,0.9,738,1,55,DL_Guitar,6,14,DL_Guitar,0.45329031348228455,0
67,100,0.3,66,1,57,DL_Guitar,6,5,DL_Guitar,0.9988419413566589,1
55,100,0.2409090909090909,179,0,57,DL_Guitar,6,4,DL_Guitar,0.1372489333152771,0
55,100,0.4772727272727273,338,0,57,DL_Guitar,6,8,DL_Guitar,0.1597776859998703,0
57,100,0.12272727272727273,518,0,57,DL_Guitar,6,2,DL_Guitar,0.18645146489143372,0
55,100,0.8,778,1,57,DL_Guitar,6,13,DL_Guitar,0.2581629157066345,0
55,100,0.3,91,1,58,DL_Guitar,6,5,DL_Guitar,0.9986500144004822,1
55,100,0.2,193,0,58,DL_Guitar,6,3,DL_Guitar,0.08780553191900253,0
55,100,0.12272727272727273,444,1,58,DL_Guitar,6,2,DL_Guitar,0.09181738644838333,0
55,100,0.13636363636363635,568,0,58,DL_Guitar,6,2,DL_Guitar,0.1074831634759903,0
55,100,0.9181818181818182,603,0,58,DL_Guitar,6,15,DL_Guitar,0.12482456117868423,0
55,100,0.6772727272727272,823,0,58,DL_Guitar,6,11,DL_Guitar,0.17903636395931244,0
55,100,0.11818181818181818,141,1,59,DL_Guitar,6,2,DL_Guitar,0.9990057349205017,1
55,100,0.4772727272727273,193,0,59,DL_Guitar,6,8,DL_Guitar,0.2312064915895462,0
55,100,0.6818181818181818,541,1,59,DL_Guitar,6,11,DL_Guitar,0.26591843366622925,0
62,100,0.22272727272727272,751,0,59,DL_Guitar,6,4,DL_Guitar,0.3541957139968872,0
55,100,0.2,66,1,60,DL_Guitar,6,3,DL_Guitar,0.9984880685806274,1
62,100,0.11818181818181818,150,0,60,DL_Guitar,6,2,DL_Guitar,0.06334645301103592,0
55,100,0.2409090909090909,298,0,60,DL_Guitar,6,4,DL_Guitar,0.057743653655052185,0
55,100,0.3,356,0,60,DL_Guitar,6,5,DL_Guitar,0.06020441651344299,0
55,100,0.43636363636363634,523,0,60,DL_Guitar,6,7,DL_Guitar,0.06970512121915817,0
55,100,0.5181818181818182,655,0,60,DL_Guitar,6,8,DL_Guitar,0.08189693093299866,0
55,100,0.5409090909090909,791,0,60,DL_Guitar,6,9,DL_Guitar,0.12402138113975525,0
55,100,0.18181818181818182,101,1,61,DL_Guitar,6,3,DL_Guitar,0.9984880685806274,1
67,100,0.11818181818181818,150,0,61,DL_Guitar,6,2,DL_Guitar,0.06334591656923294,0
52,100,0.2,260,0,61,DL_Guitar,6,3,DL_Guitar,0.057742565870285034,0
55,100,0.3409090909090909,396,0,61,DL_Guitar,6,5,DL_Guitar,0.060203712433576584,0
57,100,0.12272727272727273,641,1,61,DL_Guitar,6,2,DL_Guitar,0.06970477104187012,0
55,100,0.3,788,0,61,DL_Guitar,6,5,DL_Guitar,0.0818992555141449,0
55,100,1.6181818181818182,858,0,61,DL_Guitar,6,15,DL_Guitar,0.12401701509952545,0
55,100,1.018181818181818,338,1,62,DL_Guitar,6,15,DL_Guitar,0.9990230798721313,1
55,100,1.2,581,1,62,DL_Guitar,6,15,DL_Guitar,0.36662232875823975,0
55,100,0.18181818181818182,858,1,62,DL_Guitar,6,3,DL_Guitar,0.453286737203598,0
60,100,0.2772727272727273,105,1,63,DL_Guitar,6,4,DL_Guitar,0.9990230798721313,1
55,100,1.040909090909091,316,0,63,DL_Guitar,6,15,DL_Guitar,0.3666185140609741,0
55,100,0.1409090909090909,558,1,63,DL_Guitar,6,2,DL_Guitar,0.45329007506370544,0
62,100,0.3181818181818182,184,1,64,DL_Guitar,6,5,DL_Guitar,0.9990058541297913,1
55,100,1.1409090909090909,267,0,64,DL_Guitar,6,15,DL_Guitar,0.23120424151420593,0
62,100,0.2409090909090909,536,1,64,DL_Guitar,6,4,DL_Guitar,0.2659326493740082,0
62,100,0.3,660,0,64,DL_Guitar,6,5,DL_Guitar,0.35420340299606323,0
60,100,0.1590909090909091,216,1,65,DL_Guitar,6,3,DL_Guitar,0.9990229606628418,1
55,100,0.2,347,0,65,DL_Guitar,6,3,DL_Guitar,0.36661991477012634,0
55,100,0.7636363636363637,576,0,65,DL_Guitar,6,12,DL_Guitar,0.4532987177371979,0
57,100,0.41818181818181815,40,1,66,DL_Guitar,6,7,DL_Guitar,0.9986500144004822,1
55,100,1.0772727272727274,184,0,66,DL_Guitar,6,15,DL_Guitar,0.08780660480260849,0
55,100,0.3409090909090909,540,1,66,DL_Guitar,6,5,DL_Guitar,0.09181688725948334,0
55,100,0.3,703,0,66,DL_Guitar,6,5,DL_Guitar,0.10747889429330826,0
67,100,0.21818181818181817,770,0,66,DL_Guitar,6,3,DL_Guitar,0.12482554465532303,0
55,100,0.2409090909090909,826,0,66,DL_Guitar,6,4,DL_Guitar,0.17902794480323792,0
55,100,0.1,30,1,67,DL_Guitar,6,2,DL_Guitar,0.9983004927635193,1
55,100,0.1409090909090909,56,0,67,DL_Guitar,6,2,DL_Guitar,0.0446639209985733,0
55,100,0.3,136,0,67,DL_Guitar,6,5,DL_Guitar,0.03314971178770065,0
55,100,0.4409090909090909,210,0,67,DL_Guitar,6,7,DL_Guitar,0.026580099016427994,0
60,100,0.16363636363636364,312,0,67,DL_Guitar,6,3,DL_Guitar,0.023595541715621948,0
55,100,0.6409090909090909,422,0,67,DL_Guitar,6,10,DL_Guitar,0.024314381182193756,0
55,100,0.4,580,0,67,DL_Guitar,6,6,DL_Guitar,0.029690273106098175,0
67,100,0.1,677,0,67,DL_Guitar,6,2,DL_Guitar,0.040078770369291306,0
55,100,0.9,716,0,67,DL_Guitar,6,14,DL_Guitar,0.07092845439910889,0
55,100,0.1409090909090909,66,1,68,DL_Guitar,6,2,DL_Guitar,0.9986500144004822,1
62,100,0.759090909090909,110,0,68,DL_Guitar,6,12,DL_Guitar,0.08780278265476227,0
74,100,0.2590909090909091,386,1,68,DL_Guitar,6,4,DL_Guitar,0.0918155312538147,0
67,100,0.1409090909090909,470,0,68,DL_Guitar,6,2,DL_Guitar,0.10747843235731125,0
62,100,0.1409090909090909,703,1,68,DL_Guitar,6,2,DL_Guitar,0.12482769787311554,0
55,100,0.2590909090909091,876,0,68,DL_Guitar,6,4,DL_Guitar,0.17903517186641693,0
55,100,1.6,193,1,69,DL_Guitar,6,15,DL_Guitar,0.9988419413566589,1
55,100,0.4590909090909091,567,1,69,DL_Guitar,6,7,DL_Guitar,0.1372484713792801,0
52,100,0.11818181818181818,682,0,69,DL_Guitar,6,2,DL_Guitar,0.15977846086025238,0
55,100,0.1,760,0,69,DL_Guitar,6,2,DL_Guitar,0.18644672632217407,0
67,100,0.4590909090909091,787,0,69,DL_Guitar,6,7,DL_Guitar,0.258161723613739,0
55,100,1.1,9,1,70,DL_Guitar,6,15,DL_Guitar,0.9983004927635193,1
57,100,0.12272727272727273,365,1,70,DL_Guitar,6,2,DL_Guitar,0.04466450959444046,0
55,100,0.2772727272727273,404,0,70,DL_Guitar,6,4,DL_Guitar,0.03315029293298721,0
55,100,0.11818181818181818,480,0,70,DL_Guitar,6,2,DL_Guitar,0.026579909026622772,0
60,100,0.11818181818181818,506,0,70,DL_Guitar,6,2,DL_Guitar,0.023595087230205536,0
55,100,0.3181818181818182,550,0,70,DL_Guitar,6,5,DL_Guitar,0.024313705042004585,0
55,100,0.4590909090909091,633,0,70,DL_Guitar,6,7,DL_Guitar,0.0296897254884243,0
62,100,0.3181818181818182,787,0,70,DL_Guitar,6,5,DL_Guitar,0.04007641598582268,0
62,100,0.38181818181818183,870,0,70,DL_Guitar,6,6,DL_Guitar,0.07092858105897903,0
62,100,0.42272727272727273,79,1,71,DL_Guitar,6,7,DL_Guitar,0.9988420605659485,1
55,100,0.5818181818181818,202,0,71,DL_Guitar,6,9,DL_Guitar,0.13725630939006805,0
55,100,0.1409090909090909,383,0,71,DL_Guitar,6,2,DL_Guitar,0.15979300439357758,0
55,100,1.1181818181818182,436,0,71,DL_Guitar,6,15,DL_Guitar,0.18646931648254395,0
55,100,2.2181818181818183,690,1,71,DL_Guitar,6,15,DL_Guitar,0.2581486999988556,0
67,100,0.1409090909090909,299,1,72,DL_Guitar,6,2,DL_Guitar,0.9990057349205017,1
55,100,0.41818181818181815,330,0,72,DL_Guitar,6,7,DL_Guitar,0.23120154440402985,0
60,100,0.8409090909090909,440,0,72,DL_Guitar,6,13,DL_Guitar,0.26592227816581726,0
60,100,0.6818181818181818,629,0,72,DL_Guitar,6,11,DL_Guitar,0.3541908264160156,0
67,100,0.11818181818181818,153,1,73,DL_Guitar,6,2,DL_Guitar,0.9986500144004822,1
67,100,0.13636363636363635,370,0,73,DL_Guitar,6,2,DL_Guitar,0.08780770748853683,0
55,100,0.11818181818181818,426,0,73,DL_Guitar,6,2,DL_Guitar,0.0918189138174057,0
55,100,0.12272727272727273,487,0,73,DL_Guitar,6,2,DL_Guitar,0.10748633742332458,0
55,100,1.2181818181818183,567,0,73,DL_Guitar,6,15,DL_Guitar,0.12483132630586624,0
55,100,2.077272727272727,866,1,73,DL_Guitar,6,15,DL_Guitar,0.17903393507003784,0
57,100,0.09545454545454546,525,1,0,_Guitar_1,6,2,_Guitar_1,0.9792565107345581,0
52,100,0.2636363636363636,200,1,4,_Guitar_1,6,4,_Guitar_1,0.9984880685806274,1
52,100,0.29545454545454547,264,0,4,_Guitar_1,6,5,_Guitar_1,0.0633445680141449,0
53,100,0.08181818181818182,405,0,4,_Guitar_1,6,1,_Guitar_1,0.057741809636354446,0
52,100,0.2318181818181818,423,0,4,_Guitar_1,6,4,_Guitar_1,0.060201287269592285,0
52,100,0.2818181818181818,489,0,4,_Guitar_1,6,5,_Guitar_1,0.06970226764678955,0
52,100,0.24545454545454545,564,0,4,_Guitar_1,6,4,_Guitar_1,0.08189355581998825,0
52,100,0.25,629,0,4,_Guitar_1,6,4,_Guitar_1,0.12402340769767761,0
59,100,0.4636363636363636,6,1,5,_Guitar_1,6,7,_Guitar_1,0.9986500144004822,1
59,100,0.1318181818181818,170,0,5,_Guitar_1,6,2,_Guitar_1,0.08780453354120255,0
52,100,0.6772727272727272,463,1,5,_Guitar_1,6,11,_Guitar_1,0.09181346744298935,0
52,100,0.22727272727272727,618,0,5,_Guitar_1,6,4,_Guitar_1,0.10748007893562317,0
52,100,0.35909090909090907,677,0,5,_Guitar_1,6,6,_Guitar_1,0.12482918053865433,0
52,100,0.9409090909090909,763,0,5,_Guitar_1,6,15,_Guitar_1,0.17903849482536316,0
52,100,1.2,101,1,6,_Guitar_1,6,15,_Guitar_1,0.9990057349205017,1
52,100,0.35909090909090907,383,1,6,_Guitar_1,6,6,_Guitar_1,0.231199249625206,0
52,100,0.5772727272727273,472,0,6,_Guitar_1,6,9,_Guitar_1,0.2659209966659546,0
52,100,0.11363636363636363,604,0,6,_Guitar_1,6,2,_Guitar_1,0.354204386472702,0
59,100,0.1318181818181818,410,1,7,_Guitar_1,6,2,_Guitar_1,0.9792558550834656,0
59,100,0.1,799,1,9,_Guitar_1,6,2,_Guitar_1,0.979256272315979,1
57,100,0.31363636363636366,651,1,10,_Guitar_1,6,5,_Guitar_1,0.9792561531066895,0
57,100,0.18181818181818182,63,1,11,_Guitar_1,6,3,_Guitar_1,0.9984880685806274,1
59,100,0.09545454545454546,357,1,11,_Guitar_1,6,2,_Guitar_1,0.06334687769412994,0
59,100,0.19545454545454546,419,0,11,_Guitar_1,6,3,_Guitar_1,0.05774178355932236,0
64,100,0.1,495,0,11,_Guitar_1,6,2,_Guitar_1,0.06020350381731987,0
59,100,0.08181818181818182,527,0,11,_Guitar_1,6,1,_Guitar_1,0.0697038471698761,0
59,100,0.32727272727272727,687,0,11,_Guitar_1,6,5,_Guitar_1,0.08189653605222702,0
64,100,0.2,766,0,11,_Guitar_1,6,3,_Guitar_1,0.12402734160423279,0
64,100,0.15,13,1,12,_Guitar_1,6,2,_Guitar_1,0.9983003735542297,1
64,100,0.509090909090909,63,0,12,_Guitar_1,6,8,_Guitar_1,0.04466288164258003,0
52,100,0.18181818181818182,247,0,12,_Guitar_1,6,3,_Guitar_1,0.03314989432692528,0
52,100,0.08181818181818182,342,0,12,_Guitar_1,6,1,_Guitar_1,0.02658005617558956,0
52,100,0.24545454545454545,403,0,12,_Guitar_1,6,4,_Guitar_1,0.023595234379172325,0
64,100,0.7227272727272728,457,0,12,_Guitar_1,6,12,_Guitar_1,0.024314988404512405,0
59,100,0.16363636363636364,620,0,12,_Guitar_1,6,3,_Guitar_1,0.029689889401197433,0
59,100,0.09545454545454546,701,0,12,_Guitar_1,6,2,_Guitar_1,0.04007723182439804,0
64,100,0.15,751,0,12,_Guitar_1,6,2,_Guitar_1,0.0709305927157402,0
59,100,0.16363636363636364,240,1,13,_Guitar_1,6,3,_Guitar_1,0.9988419413566589,1
59,100,0.19545454545454546,283,0,13,_Guitar_1,6,3,_Guitar_1,0.13724376261234283,0
52,100,0.16363636363636364,407,0,13,_Guitar_1,6,3,_Guitar_1,0.15977467596530914,0
64,100,0.08181818181818182,479,0,13,_Guitar_1,6,1,_Guitar_1,0.18644708395004272,0
64,100,0.09545454545454546,740,1,13,_Guitar_1,6,2,_Guitar_1,0.258169949054718,0
59,100,0.08181818181818182,232,1,14,_Guitar_1,6,1,_Guitar_1,0.9983736276626587,1
59,100,0.14545454545454545,257,0,14,_Guitar_1,6,2,_Guitar_1,0.051061131060123444,0
59,100,0.17727272727272728,410,0,14,_Guitar_1,6,3,_Guitar_1,0.04130198061466217,0
59,100,0.32727272727272727,515,0,14,_Guitar_1,6,5,_Guitar_1,0.03738580644130707,0
59,100,0.14545454545454545,591,0,14,_Guitar_1,6,2,_Guitar_1,0.03832809254527092,0
59,100,0.18181818181818182,677,0,14,_Guitar_1,6,3,_Guitar_1,0.04474973678588867,0
64,100,0.1,799,0,14,_Guitar_1,6,2,_Guitar_1,0.05522657185792923,0
52,100,0.21363636363636362,821,0,14,_Guitar_1,6,3,_Guitar_1,0.09026431292295456,0
52,100,0.1,6,1,15,_Guitar_1,6,2,_Guitar_1,0.9983004927635193,1
52,100,0.29545454545454547,80,0,15,_Guitar_1,6,5,_Guitar_1,0.04466370493173599,0
52,100,0.15,166,0,15,_Guitar_1,6,2,_Guitar_1,0.03315054625272751,0
64,100,0.16363636363636364,445,1,15,_Guitar_1,6,3,_Guitar_1,0.026580804958939552,0
61,100,0.11363636363636363,543,0,15,_Guitar_1,6,2,_Guitar_1,0.02359539456665516,0
64,100,0.32727272727272727,572,0,15,_Guitar_1,6,5,_Guitar_1,0.02431577630341053,0
64,100,0.1318181818181818,665,0,15,_Guitar_1,6,2,_Guitar_1,0.02969050407409668,0
64,100,0.2636363636363636,723,0,15,_Guitar_1,6,4,_Guitar_1,0.040077563375234604,0
59,100,0.08636363636363636,838,0,15,_Guitar_1,6,1,_Guitar_1,0.07093074917793274,0
52,100,0.18181818181818182,85,1,16,_Guitar_1,6,3,_Guitar_1,0.9983736276626587,1
64,100,0.29545454545454547,133,0,16,_Guitar_1,6,5,_Guitar_1,0.051060497760772705,0
57,100,0.16363636363636364,299,0,16,_Guitar_1,6,3,_Guitar_1,0.04130198061466217,0
57,100,0.15,419,0,16,_Guitar_1,6,2,_Guitar_1,0.03738527372479439,0
64,100,0.11363636363636363,488,0,16,_Guitar_1,6,2,_Guitar_1,0.03833060339093208,0
59,100,0.09545454545454546,528,0,16,_Guitar_1,6,2,_Guitar_1,0.04475202038884163,0
59,100,0.09545454545454546,563,0,16,_Guitar_1,6,2,_Guitar_1,0.055229563266038895,0
59,100,0.2636363636363636,798,1,16,_Guitar_1,6,4,_Guitar_1,0.09026814997196198,0
52,100,0.24545454545454545,350,1,17,_Guitar_1,6,4,_Guitar_1,0.9986500144004822,1
64,100,0.1,436,0,17,_Guitar_1,6,2,_Guitar_1,0.08780483901500702,0
59,100,0.11363636363636363,505,0,17,_Guitar_1,6,2,_Guitar_1,0.09181477874517441,0
64,100,0.19545454545454546,538,0,17,_Guitar_1,6,3,_Guitar_1,0.10747889429330826,0
52,100,0.31363636363636366,621,0,17,_Guitar_1,6,5,_Guitar_1,0.12482928484678268,0
64,100,0.2318181818181818,866,1,17,_Guitar_1,6,4,_Guitar_1,0.17904171347618103,0
52,100,0.18181818181818182,700,1,18,_Guitar_1,6,3,_Guitar_1,0.9990230798721313,1
64,100,0.11363636363636363,739,0,18,_Guitar_1,6,2,_Guitar_1,0.3666232228279114,0
64,100,0.2818181818181818,772,0,18,_Guitar_1,6,5,_Guitar_1,0.453294575214386,0
64,100,0.11363636363636363,240,1,19,_Guitar_1,6,2,_Guitar_1,0.9982553124427795,1
64,100,0.18181818181818182,282,0,19,_Guitar_1,6,3,_Guitar_1,0.041287366300821304,0
64,100,0.11363636363636363,395,0,19,_Guitar_1,6,2,_Guitar_1,0.028935248032212257,0
64,100,0.1,430,0,19,_Guitar_1,6,2,_Guitar_1,0.021288683637976646,0
52,100,0.29545454545454547,485,0,19,_Guitar_1,6,5,_Guitar_1,0.016745708882808685,0
52,100,0.11363636363636363,576,0,19,_Guitar_1,6,2,_Guitar_1,0.014919252134859562,0
59,100,0.14545454545454545,615,0,19,_Guitar_1,6,2,_Guitar_1,0.016016434878110886,0
64,100,0.1,680,0,19,_Guitar_1,6,2,_Guitar_1,0.021179869771003723,0
64,100,0.11818181818181818,705,0,19,_Guitar_1,6,2,_Guitar_1,0.031567517668008804,0
64,100,0.11818181818181818,839,0,19,_Guitar_1,6,2,_Guitar_1,0.060060638934373856,0
57,100,0.18181818181818182,68,1,20,_Guitar_1,6,3,_Guitar_1,0.9990057349205017,1
59,100,0.21363636363636362,684,1,20,_Guitar_1,6,3,_Guitar_1,0.23120003938674927,0
59,100,0.16363636363636364,803,0,20,_Guitar_1,6,3,_Guitar_1,0.2659173905849457,0
59,100,0.2772727272727273,876,0,20,_Guitar_1,6,4,_Guitar_1,0.35419201850891113,0
71,100,0.08181818181818182,302,1,21,_Guitar_1,6,1,_Guitar_1,0.9792559146881104,0
52,100,0.1,230,1,22,_Guitar_1,6,2,_Guitar_1,0.9983736276626587,1
52,100,0.24545454545454545,426,0,22,_Guitar_1,6,4,_Guitar_1,0.05105981603264809,0
59,100,0.11363636363636363,501,0,22,_Guitar_1,6,2,_Guitar_1,0.04130154475569725,0
59,100,0.21363636363636362,533,0,22,_Guitar_1,6,3,_Guitar_1,0.03738417848944664,0
59,100,0.15,587,0,22,_Guitar_1,6,2,_Guitar_1,0.03832763060927391,0
59,100,0.08181818181818182,660,0,22,_Guitar_1,6,1,_Guitar_1,0.044750187546014786,0
59,100,0.11363636363636363,748,0,22,_Guitar_1,6,2,_Guitar_1,0.05522676929831505,0
64,100,0.1318181818181818,801,0,22,_Guitar_1,6,2,_Guitar_1,0.09026510268449783,0
64,100,0.16818181818181818,0,1,23,_Guitar_1,6,3,_Guitar_1,0.9982553124427795,1
59,100,0.18181818181818182,131,0,23,_Guitar_1,6,3,_Guitar_1,0.04128740727901459,0
59,100,0.11363636363636363,261,0,23,_Guitar_1,6,2,_Guitar_1,0.028934532776474953,0
59,100,0.33181818181818185,333,0,23,_Guitar_1,6,5,_Guitar_1,0.02128765918314457,0
59,100,0.4090909090909091,413,0,23,_Guitar_1,6,7,_Guitar_1,0.016744891181588173,0
59,100,0.1318181818181818,508,0,23,_Guitar_1,6,2,_Guitar_1,0.014917942695319653,0
59,100,0.25,561,0,23,_Guitar_1,6,4,_Guitar_1,0.016015570610761642,0
64,100,0.21363636363636362,624,0,23,_Guitar_1,6,3,_Guitar_1,0.021179182454943657,0
59,100,0.16363636363636364,794,0,23,_Guitar_1,6,3,_Guitar_1,0.031567372381687164,0
59,100,0.34545454545454546,852,0,23,_Guitar_1,6,6,_Guitar_1,0.060061343014240265,0
59,100,0.11363636363636363,539,1,24,_Guitar_1,6,2,_Guitar_1,0.9983165264129639,1
61,100,0.19545454545454546,774,1,24,_Guitar_1,6,3,_Guitar_1,0.5445588827133179,0
64,100,0.19545454545454546,185,1,25,_Guitar_1,6,3,_Guitar_1,0.9986500144004822,1
59,100,0.15,303,0,25,_Guitar_1,6,2,_Guitar_1,0.08780136704444885,0
59,100,0.11818181818181818,364,0,25,_Guitar_1,6,2,_Guitar_1,0.09181252121925354,0
54,100,0.42727272727272725,394,0,25,_Guitar_1,6,7,_Guitar_1,0.10747583210468292,0
59,100,0.37727272727272726,514,0,25,_Guitar_1,6,6,_Guitar_1,0.1248229593038559,0
64,100,0.1,796,1,25,_Guitar_1,6,2,_Guitar_1,0.17903192341327667,0
57,100,0.2,378,1,26,_Guitar_1,6,3,_Guitar_1,0.9983164072036743,1
59,100,0.1318181818181818,763,1,26,_Guitar_1,6,2,_Guitar_1,0.5445577502250671,0
64,100,0.1,136,1,27,_Guitar_1,6,2,_Guitar_1,0.9990057349205017,1
57,100,0.1318181818181818,312,0,27,_Guitar_1,6,2,_Guitar_1,0.23120078444480896,0
52,100,0.25,371,0,27,_Guitar_1,6,4,_Guitar_1,0.26592394709587097,0
64,100,0.19545454545454546,667,1,27,_Guitar_1,6,3,_Guitar_1,0.3542019724845886,0
59,100,0.1318181818181818,237,1,28,_Guitar_1,6,2,_Guitar_1,0.9990057349205017,1
59,100,0.2818181818181818,351,0,28,_Guitar_1,6,5,_Guitar_1,0.2311968058347702,0
59,100,0.09545454545454546,529,0,28,_Guitar_1,6,2,_Guitar_1,0.26592135429382324,0
66,100,0.11818181818181818,608,0,28,_Guitar_1,6,2,_Guitar_1,0.35419556498527527,0
59,100,0.15,127,1,29,_Guitar_1,6,2,_Guitar_1,0.9983165264129639,1
64,100,0.18181818181818182,698,1,29,_Guitar_1,6,3,_Guitar_1,0.5445586442947388,0
64,100,0.09545454545454546,296,1,30,_Guitar_1,6,2,_Guitar_1,0.9983165264129639,1
57,100,0.2318181818181818,340,0,30,_Guitar_1,6,4,_Guitar_1,0.5445605516433716,0
64,100,0.21363636363636362,121,1,31,_Guitar_1,6,3,_Guitar_1,0.9990229606628418,1
52,100,0.2636363636363636,179,0,31,_Guitar_1,6,4,_Guitar_1,0.3666189908981323,0
52,100,0.11818181818181818,415,1,31,_Guitar_1,6,2,_Guitar_1,0.4532930254936218,0
64,100,0.3,378,1,32,_Guitar_1,6,5,_Guitar_1,0.9990229606628418,1
52,100,0.14545454545454545,596,0,32,_Guitar_1,6,2,_Guitar_1,0.36662226915359497,0
52,100,0.1,743,0,32,_Guitar_1,6,2,_Guitar_1,0.4532957673072815,0
52,100,0.16818181818181818,76,1,33,_Guitar_1,6,3,_Guitar_1,0.9990229606628418,1
52,100,0.1,297,0,33,_Guitar_1,6,2,_Guitar_1,0.36662399768829346,0
52,100,0.11363636363636363,518,0,33,_Guitar_1,6,2,_Guitar_1,0.45329979062080383,0
59,100,0.1318181818181818,50,1,35,_Guitar_1,6,2,_Guitar_1,0.9983165264129639,1
61,100,0.1,408,1,35,_Guitar_1,6,2,_Guitar_1,0.5445603728294373,0
61,100,0.16363636363636364,255,1,36,_Guitar_1,6,3,_Guitar_1,0.9986500144004822,1
61,100,0.2818181818181818,302,0,36,_Guitar_1,6,5,_Guitar_1,0.08780460804700851,0
57,100,0.18181818181818182,433,0,36,_Guitar_1,6,3,_Guitar_1,0.09181835502386093,0
57,100,0.34545454545454546,643,0,36,_Guitar_1,6,6,_Guitar_1,0.1074838936328888,0
57,100,0.1,729,0,36,_Guitar_1,6,2,_Guitar_1,0.12483769655227661,0
57,100,0.1,770,0,36,_Guitar_1,6,2,_Guitar_1,0.17904335260391235,0
57,100,0.16363636363636364,342,1,37,_Guitar_1,6,3,_Guitar_1,0.9983165264129639,1
57,100,0.22727272727272727,480,0,37,_Guitar_1,6,4,_Guitar_1,0.5445579886436462,0
64,100,0.29545454545454547,150,1,38,_Guitar_1,6,5,_Guitar_1,0.9990057349205017,1
59,100,0.2318181818181818,380,0,38,_Guitar_1,6,4,_Guitar_1,0.23120276629924774,0
59,100,0.1318181818181818,543,0,38,_Guitar_1,6,2,_Guitar_1,0.26591408252716064,0
59,100,0.1318181818181818,648,0,38,_Guitar_1,6,2,_Guitar_1,0.35419604182243347,0
59,100,0.32727272727272727,76,1,39,_Guitar_1,6,5,_Guitar_1,0.9988419413566589,1
68,100,0.2636363636363636,370,1,39,_Guitar_1,6,4,_Guitar_1,0.13724875450134277,0
68,100,0.1318181818181818,439,0,39,_Guitar_1,6,2,_Guitar_1,0.15977826714515686,0
61,100,0.12727272727272726,591,0,39,_Guitar_1,6,2,_Guitar_1,0.1864469051361084,0
59,100,0.16363636363636364,692,0,39,_Guitar_1,6,3,_Guitar_1,0.25816646218299866,0
61,100,0.1,300,1,40,_Guitar_1,6,2,_Guitar_1,0.9990057349205017,1
57,100,0.18181818181818182,445,0,40,_Guitar_1,6,3,_Guitar_1,0.23120398819446564,0
59,100,0.16818181818181818,668,0,40,_Guitar_1,6,3,_Guitar_1,0.2659265398979187,0
57,100,0.14545454545454545,865,0,40,_Guitar_1,6,2,_Guitar_1,0.3542044162750244,0
54,100,0.18181818181818182,155,1,41,_Guitar_1,6,3,_Guitar_1,0.9990229606628418,1
57,100,0.19545454545454546,213,0,41,_Guitar_1,6,3,_Guitar_1,0.3666192591190338,0
54,100,0.2,577,1,41,_Guitar_1,6,3,_Guitar_1,0.45329585671424866,0
59,100,0.1,657,1,42,_Guitar_1,6,2,_Guitar_1,0.9792561531066895,0
52,100,0.11818181818181818,221,1,43,_Guitar_1,6,2,_Guitar_1,0.9990057349205017,1
52,100,0.1318181818181818,313,0,43,_Guitar_1,6,2,_Guitar_1,0.23119834065437317,0
52,100,0.1318181818181818,588,1,43,_Guitar_1,6,2,_Guitar_1,0.26591554284095764,0
64,100,0.08181818181818182,833,1,43,_Guitar_1,6,1,_Guitar_1,0.35420048236846924,0
52,100,0.15,156,1,44,_Guitar_1,6,2,_Guitar_1,0.9982553124427795,1
64,100,0.11363636363636363,228,0,44,_Guitar_1,6,2,_Guitar_1,0.04128808528184891,0
52,100,0.24545454545454545,265,0,44,_Guitar_1,6,4,_Guitar_1,0.028935570269823074,0
64,100,0.1,318,0,44,_Guitar_1,6,2,_Guitar_1,0.021289389580488205,0
52,100,0.21363636363636362,341,0,44,_Guitar_1,6,3,_Guitar_1,0.016746265813708305,0
52,100,0.24545454545454545,391,0,44,_Guitar_1,6,4,_Guitar_1,0.014918957836925983,0
52,100,0.15,536,0,44,_Guitar_1,6,2,_Guitar_1,0.016016734763979912,0
57,100,0.2,600,0,44,_Guitar_1,6,3,_Guitar_1,0.02117941901087761,0
64,100,0.1318181818181818,811,0,44,_Guitar_1,6,2,_Guitar_1,0.03156804293394089,0
52,100,0.3,846,0,44,_Guitar_1,6,5,_Guitar_1,0.06005977839231491,0
52,100,0.17727272727272728,308,1,45,_Guitar_1,6,3,_Guitar_1,0.9792566299438477,1
59,100,0.36363636363636365,566,1,46,_Guitar_1,6,6,_Guitar_1,0.9792559146881104,0
52,100,0.14545454545454545,27,1,47,_Guitar_1,6,2,_Guitar_1,0.9792565107345581,0
52,100,0.1318181818181818,74,1,48,_Guitar_1,6,2,_Guitar_1,0.9983736276626587,1
52,100,0.11363636363636363,435,1,48,_Guitar_1,6,2,_Guitar_1,0.051060713827610016,0
52,100,0.12727272727272726,522,0,48,_Guitar_1,6,2,_Guitar_1,0.041303038597106934,0
52,100,0.11363636363636363,584,0,48,_Guitar_1,6,2,_Guitar_1,0.03738704323768616,0
52,100,0.11818181818181818,638,0,48,_Guitar_1,6,2,_Guitar_1,0.03833083063364029,0
52,100,0.16363636363636364,710,0,48,_Guitar_1,6,3,_Guitar_1,0.044754017144441605,0
64,100,0.1318181818181818,747,0,48,_Guitar_1,6,2,_Guitar_1,0.05523122847080231,0
59,100,0.09545454545454546,852,0,48,_Guitar_1,6,2,_Guitar_1,0.09026867896318436,0
61,100,0.2318181818181818,760,1,50,_Guitar_1,6,4,_Guitar_1,0.9792556166648865,0
68,100,0.21363636363636362,469,1,51,_Guitar_1,6,3,_Guitar_1,0.9990229606628418,1
59,100,0.08181818181818182,528,0,51,_Guitar_1,6,1,_Guitar_1,0.36662375926971436,0
64,100,0.18181818181818182,812,1,51,_Guitar_1,6,3,_Guitar_1,0.4532957077026367,0
54,100,0.21363636363636362,77,1,52,_Guitar_1,6,3,_Guitar_1,0.9990057349205017,1
64,100,0.09545454545454546,169,0,52,_Guitar_1,6,2,_Guitar_1,0.23120266199111938,0
64,100,0.18181818181818182,233,0,52,_Guitar_1,6,3,_Guitar_1,0.26592227816581726,0
59,100,0.16818181818181818,605,1,52,_Guitar_1,6,3,_Guitar_1,0.35420116782188416,0
59,100,0.15,261,1,53,_Guitar_1,6,2,_Guitar_1,0.9990229606628418,1
64,100,0.2818181818181818,638,1,53,_Guitar_1,6,5,_Guitar_1,0.36663365364074707,0
57,100,0.24545454545454545,710,0,53,_Guitar_1,6,4,_Guitar_1,0.45330050587654114,0
61,100,0.15,625,1,55,_Guitar_1,6,2,_Guitar_1,0.9983164072036743,1
61,100,0.15,767,0,55,_Guitar_1,6,2,_Guitar_1,0.5445600152015686,0
52,100,0.1,274,1,56,_Guitar_1,6,2,_Guitar_1,0.9990057349205017,1
64,100,0.37727272727272726,528,1,56,_Guitar_1,6,6,_Guitar_1,0.23119884729385376,0
59,100,0.08181818181818182,770,1,56,_Guitar_1,6,1,_Guitar_1,0.26591962575912476,0
59,100,0.18181818181818182,791,0,56,_Guitar_1,6,3,_Guitar_1,0.3541918098926544,0
59,100,0.2818181818181818,96,1,57,_Guitar_1,6,5,_Guitar_1,0.9988419413566589,1
59,100,0.08181818181818182,183,0,57,_Guitar_1,6,1,_Guitar_1,0.1372504085302353,0
59,100,0.18181818181818182,240,0,57,_Guitar_1,6,3,_Guitar_1,0.15977543592453003,0
59,100,0.11363636363636363,414,0,57,_Guitar_1,6,2,_Guitar_1,0.18645025789737701,0
61,100,0.15,686,1,57,_Guitar_1,6,2,_Guitar_1,0.25816020369529724,0
56,100,0.1318181818181818,160,1,58,_Guitar_1,6,2,_Guitar_1,0.9983165264129639,1
56,100,0.16363636363636364,591,1,58,_Guitar_1,6,3,_Guitar_1,0.5445552468299866,0
52,100,0.11818181818181818,109,1,59,_Guitar_1,6,2,_Guitar_1,0.9983165264129639,1
57,100,0.1,289,0,59,_Guitar_1,6,2,_Guitar_1,0.5445568561553955,0
61,100,0.1318181818181818,281,1,60,_Guitar_1,6,2,_Guitar_1,0.9990057349205017,1
61,100,0.2818181818181818,423,0,60,_Guitar_1,6,5,_Guitar_1,0.23119913041591644,0
61,100,0.1,514,0,60,_Guitar_1,6,2,_Guitar_1,0.26591774821281433,0
61,100,0.14545454545454545,637,0,60,_Guitar_1,6,2,_Guitar_1,0.35418498516082764,0
59,100,0.15,343,1,61,_Guitar_1,6,2,_Guitar_1,0.9990057349205017,1
61,100,0.37727272727272726,469,0,61,_Guitar_1,6,6,_Guitar_1,0.23119604587554932,0
61,100,0.1,658,0,61,_Guitar_1,6,2,_Guitar_1,0.265919953584671,0
54,100,0.21363636363636362,788,0,61,_Guitar_1,6,3,_Guitar_1,0.3541978597640991,0
56,100,0.25,114,1,62,_Guitar_1,6,4,_Guitar_1,0.9990229606628418,1
52,100,0.16363636363636364,776,1,62,_Guitar_1,6,3,_Guitar_1,0.3666256070137024,0
59,100,0.15,845,0,62,_Guitar_1,6,2,_Guitar_1,0.45328959822654724,0
64,100,0.19545454545454546,34,1,63,_Guitar_1,6,3,_Guitar_1,0.9983165264129639,1
59,100,0.08636363636363636,522,1,63,_Guitar_1,6,1,_Guitar_1,0.5445581674575806,0
59,100,0.08181818181818182,72,1,64,_Guitar_1,6,1,_Guitar_1,0.9983165264129639,1
59,100,0.15,518,1,64,_Guitar_1,6,2,_Guitar_1,0.5445597171783447,0
64,100,0.11363636363636363,361,1,65,_Guitar_1,6,2,_Guitar_1,0.9988419413566589,1
64,100,0.1318181818181818,398,0,65,_Guitar_1,6,2,_Guitar_1,0.13724340498447418,0
59,100,0.38181818181818183,440,0,65,_Guitar_1,6,6,_Guitar_1,0.159775048494339,0
52,100,0.11363636363636363,695,1,65,_Guitar_1,6,2,_Guitar_1,0.18644626438617706,0
52,100,0.08181818181818182,744,0,65,_Guitar_1,6,1,_Guitar_1,0.2581690549850464,0
52,100,0.09545454545454546,7,1,66,_Guitar_1,6,2,_Guitar_1,0.9988419413566589,1
64,100,0.16363636363636364,162,0,66,_Guitar_1,6,3,_Guitar_1,0.13724838197231293,0
52,100,0.39545454545454545,262,0,66,_Guitar_1,6,6,_Guitar_1,0.15978144109249115,0
52,100,0.15,426,0,66,_Guitar_1,6,2,_Guitar_1,0.1864558458328247,0
59,100,0.34545454545454546,477,0,66,_Guitar_1,6,6,_Guitar_1,0.2581779956817627,0
59,100,0.31363636363636366,182,1,67,_Guitar_1,6,5,_Guitar_1,0.9990057349205017,1
59,100,0.15,628,1,67,_Guitar_1,6,2,_Guitar_1,0.23120175302028656,0
59,100,0.2318181818181818,715,0,67,_Guitar_1,6,4,_Guitar_1,0.26592138409614563,0
59,100,0.2318181818181818,769,0,67,_Guitar_1,6,4,_Guitar_1,0.35419803857803345,0
64,100,0.2818181818181818,106,1,68,_Guitar_1,6,5,_Guitar_1,0.9986500144004822,1
64,100,0.4090909090909091,247,0,68,_Guitar_1,6,7,_Guitar_1,0.0878041461110115,0
64,100,0.4954545454545455,356,0,68,_Guitar_1,6,8,_Guitar_1,0.09181481599807739,0
64,100,0.1318181818181818,685,1,68,_Guitar_1,6,2,_Guitar_1,0.1074812039732933,0
64,100,0.16363636363636364,757,0,68,_Guitar_1,6,3,_Guitar_1,0.12482888251543045,0
64,100,0.1,837,0,68,_Guitar_1,6,2,_Guitar_1,0.17903997004032135,0
64,100,0.16363636363636364,170,1,69,_Guitar_1,6,3,_Guitar_1,0.9982553124427795,1
64,100,0.11363636363636363,210,0,69,_Guitar_1,6,2,_Guitar_1,0.0412878580391407,0
64,100,0.25,267,0,69,_Guitar_1,6,4,_Guitar_1,0.028934787958860397,0
64,100,0.2,326,0,69,_Guitar_1,6,3,_Guitar_1,0.021289151161909103,0
64,100,0.2636363636363636,376,0,69,_Guitar_1,6,4,_Guitar_1,0.016746068373322487,0
59,100,0.08181818181818182,456,0,69,_Guitar_1,6,1,_Guitar_1,0.01491893082857132,0
52,100,0.24545454545454545,616,0,69,_Guitar_1,6,4,_Guitar_1,0.016016321256756783,0
52,100,0.1,716,0,69,_Guitar_1,6,2,_Guitar_1,0.021180100739002228,0
59,100,0.14545454545454545,760,0,69,_Guitar_1,6,2,_Guitar_1,0.03156859800219536,0
59,100,0.08636363636363636,817,0,69,_Guitar_1,6,1,_Guitar_1,0.06006074324250221,0
59,100,0.19545454545454546,536,1,70,_Guitar_1,6,3,_Guitar_1,0.9990057349205017,1
64,100,0.18181818181818182,592,0,70,_Guitar_1,6,3,_Guitar_1,0.2311941534280777,0
64,100,0.1,661,0,70,_Guitar_1,6,2,_Guitar_1,0.2659198045730591,0
64,100,0.11818181818181818,698,0,70,_Guitar_1,6,2,_Guitar_1,0.3541986644268036,0
52,100,0.2636363636363636,68,1,71,_Guitar_1,6,4,_Guitar_1,0.9983003735542297,1
59,100,0.34545454545454546,143,0,71,_Guitar_1,6,6,_Guitar_1,0.04466337338089943,0
59,100,0.08181818181818182,302,0,71,_Guitar_1,6,1,_Guitar_1,0.03314860910177231,0
59,100,0.2,426,0,71,_Guitar_1,6,3,_Guitar_1,0.026579078286886215,0
59,100,0.18181818181818182,491,0,71,_Guitar_1,6,3,_Guitar_1,0.023594021797180176,0
59,100,0.19545454545454546,541,0,71,_Guitar_1,6,3,_Guitar_1,0.024313433095812798,0
59,100,0.08181818181818182,643,0,71,_Guitar_1,6,1,_Guitar_1,0.029688719660043716,0
59,100,0.08181818181818182,723,0,71,_Guitar_1,6,1,_Guitar_1,0.04007524624466896,0
64,100,0.29545454545454547,879,0,71,_Guitar_1,6,5,_Guitar_1,0.07092893123626709,0
61,100,0.19545454545454546,216,1,72,_Guitar_1,6,3,_Guitar_1,0.9792546629905701,0
68,100,0.1318181818181818,117,1,73,_Guitar_1,6,2,_Guitar_1,0.9983165264129639,1
59,100,0.2590909090909091,540,1,73,_Guitar_1,6,4,_Guitar_1,0.5445570349693298,0
59,100,0.18181818181818182,131,1,74,_Guitar_1,6,3,_Guitar_1,0.9986500144004822,1
59,100,0.16363636363636364,301,0,74,_Guitar_1,6,3,_Guitar_1,0.0878041461110115,0
59,100,0.1318181818181818,343,0,74,_Guitar_1,6,2,_Guitar_1,0.09181330353021622,0
59,100,0.21363636363636362,495,0,74,_Guitar_1,6,3,_Guitar_1,0.10748058557510376,0
68,100,0.15,564,0,74,_Guitar_1,6,2,_Guitar_1,0.12482306361198425,0
64,100,0.21363636363636362,808,1,74,_Guitar_1,6,3,_Guitar_1,0.1790367215871811,0
59,100,0.18181818181818182,177,1,75,_Guitar_1,6,3,_Guitar_1,0.9983736276626587,1
64,100,0.11818181818181818,252,0,75,_Guitar_1,6,2,_Guitar_1,0.05106025189161301,0
52,100,0.08181818181818182,630,1,75,_Guitar_1,6,1,_Guitar_1,0.041302263736724854,0
64,100,0.08181818181818182,695,0,75,_Guitar_1,6,1,_Guitar_1,0.03738728165626526,0
59,100,0.11363636363636363,742,0,75,_Guitar_1,6,2,_Guitar_1,0.03833083063364029,0
59,100,0.19545454545454546,770,0,75,_Guitar_1,6,3,_Guitar_1,0.04475318267941475,0
52,100,0.2318181818181818,825,0,75,_Guitar_1,6,4,_Guitar_1,0.05523047223687172,0
64,100,0.1318181818181818,876,0,75,_Guitar_1,6,2,_Guitar_1,0.09027028828859329,0
52,100,0.1318181818181818,27,1,76,_Guitar_1,6,2,_Guitar_1,0.9990057349205017,1
64,100,0.18181818181818182,154,0,76,_Guitar_1,6,3,_Guitar_1,0.23120024800300598,0
59,100,0.36363636363636365,595,1,76,_Guitar_1,6,6,_Guitar_1,0.26592156291007996,0
59,100,0.18181818181818182,733,0,76,_Guitar_1,6,3,_Guitar_1,0.3542012572288513,0
59,100,0.1318181818181818,38,1,77,_Guitar_1,6,2,_Guitar_1,0.9988419413566589,1
59,100,0.19545454545454546,176,0,77,_Guitar_1,6,3,_Guitar_1,0.1372464895248413,0
64,100,0.2318181818181818,374,0,77,_Guitar_1,6,4,_Guitar_1,0.1597772091627121,0
64,100,0.11818181818181818,447,0,77,_Guitar_1,6,2,_Guitar_1,0.18645323812961578,0
64,100,0.18181818181818182,620,0,77,_Guitar_1,6,3,_Guitar_1,0.25817790627479553,0
64,100,0.1318181818181818,210,1,78,_Guitar_1,6,2,_Guitar_1,0.9990230798721313,1
64,100,0.09545454545454546,359,0,78,_Guitar_1,6,2,_Guitar_1,0.36662057042121887,0
52,100,0.09545454545454546,646,1,78,_Guitar_1,6,2,_Guitar_1,0.4532897472381592,0
59,100,0.34545454545454546,247,1,79,_Guitar_1,6,6,_Guitar_1,0.9990229606628418,1
59,100,0.2772727272727273,435,0,79,_Guitar_1,6,4,_Guitar_1,0.3666205406188965,0
59,100,0.11363636363636363,745,1,79,_Guitar_1,6,2,_Guitar_1,0.4532887935638428,0
64,100,0.11363636363636363,11,1,80,_Guitar_1,6,2,_Guitar_1,0.9984880685806274,1
64,100,0.11818181818181818,206,0,80,_Guitar_1,6,2,_Guitar_1,0.06334741413593292,0
64,100,0.21818181818181817,288,0,80,_Guitar_1,6,3,_Guitar_1,0.05774414911866188,0
64,100,0.4772727272727273,478,0,80,_Guitar_1,6,8,_Guitar_1,0.06020406633615494,0
64,100,0.21363636363636362,604,0,80,_Guitar_1,6,3,_Guitar_1,0.06970708817243576,0
52,100,0.11818181818181818,650,0,80,_Guitar_1,6,2,_Guitar_1,0.08189912885427475,0
64,100,0.17727272727272728,676,0,80,_Guitar_1,6,3,_Guitar_1,0.1240306869149208,0
57,100,0.1,285,1,81,_Guitar_1,6,2,_Guitar_1,0.9990057349205017,1
64,100,0.08181818181818182,527,1,81,_Guitar_1,6,1,_Guitar_1,0.23120717704296112,0
52,100,0.29545454545454547,546,0,81,_Guitar_1,6,5,_Guitar_1,0.2659227252006531,0
52,100,0.11818181818181818,632,0,81,_Guitar_1,6,2,_Guitar_1,0.35420262813568115,0
59,100,0.08181818181818182,53,1,82,_Guitar_1,6,1,_Guitar_1,0.9988419413566589,1
59,100,0.12727272727272726,74,0,82,_Guitar_1,6,2,_Guitar_1,0.13724765181541443,0
64,100,0.09545454545454546,632,1,82,_Guitar_1,6,2,_Guitar_1,0.15977907180786133,0
68,100,0.2318181818181818,668,0,82,_Guitar_1,6,4,_Guitar_1,0.18644659221172333,0
59,100,0.1,780,0,82,_Guitar_1,6,2,_Guitar_1,0.2581706941127777,0
64,100,0.16363636363636364,12,1,83,_Guitar_1,6,3,_Guitar_1,0.9990057349205017,1
68,100,0.18181818181818182,150,0,83,_Guitar_1,6,3,_Guitar_1,0.2312002182006836,0
59,100,0.1,554,1,83,_Guitar_1,6,2,_Guitar_1,0.2659175395965576,0
59,100,0.1318181818181818,700,0,83,_Guitar_1,6,2,_Guitar_1,0.3541974425315857,0
59,100,0.1318181818181818,37,1,84,_Guitar_1,6,2,_Guitar_1,0.9990230798721313,1
56,100,0.5590909090909091,439,1,84,_Guitar_1,6,9,_Guitar_1,0.36661970615386963,0
59,100,0.11818181818181818,828,1,84,_Guitar_1,6,2,_Guitar_1,0.4532924294471741,0
59,100,0.1318181818181818,126,1,85,_Guitar_1,6,2,_Guitar_1,0.9990229606628418,1
59,100,0.11363636363636363,521,1,85,_Guitar_1,6,2,_Guitar_1,0.3666157126426697,0
59,100,0.36363636363636365,744,0,85,_Guitar_1,6,6,_Guitar_1,0.4532894790172577,0
71,100,0.11363636363636363,136,1,87,_Guitar_1,6,2,_Guitar_1,0.9990229606628418,1
83,100,0.1,172,0,87,_Guitar_1,6,2,_Guitar_1,0.36661961674690247,0
83,100,0.1318181818181818,265,0,87,_Guitar_1,6,2,_Guitar_1,0.4532893896102905,0
59,100,0.5772727272727273,44,1,88,_Guitar_1,6,9,_Guitar_1,0.9983165264129639,1
59,100,0.2636363636363636,186,0,88,_Guitar_1,6,4,_Guitar_1,0.544558048248291,0
59,100,0.21363636363636362,478,1,89,_Guitar_1,6,3,_Guitar_1,0.9792560338973999,0
54,100,0.08181818181818182,386,1,90,_Guitar_1,6,1,_Guitar_1,0.9990230798721313,1
54,100,1.3954545454545455,553,0,90,_Guitar_1,6,15,_Guitar_1,0.3666241466999054,0
56,100,0.1318181818181818,876,1,90,_Guitar_1,6,2,_Guitar_1,0.45328831672668457,0
59,100,0.1,458,1,91,_Guitar_1,6,2,_Guitar_1,0.9792561531066895,0
59,100,0.15,161,1,92,_Guitar_1,6,2,_Guitar_1,0.9983164072036743,1
64,100,0.9545454545454546,692,1,92,_Guitar_1,6,15,_Guitar_1,0.5445589423179626,0
52,100,0.16363636363636364,110,1,93,_Guitar_1,6,3,_Guitar_1,0.9990229606628418,1
59,100,0.2318181818181818,550,1,93,_Guitar_1,6,4,_Guitar_1,0.3666156232357025,0
59,100,0.2636363636363636,765,0,93,_Guitar_1,6,4,_Guitar_1,0.4532909095287323,0
59,100,0.08181818181818182,278,1,94,_Guitar_1,6,1,_Guitar_1,0.9990057349205017,1
64,100,0.15,558,1,94,_Guitar_1,6,2,_Guitar_1,0.23120179772377014,0
64,100,0.35909090909090907,673,0,94,_Guitar_1,6,6,_Guitar_1,0.2659226655960083,0
64,100,0.24545454545454545,822,0,94,_Guitar_1,6,4,_Guitar_1,0.3542029857635498,0
64,100,0.35909090909090907,220,1,95,_Guitar_1,6,6,_Guitar_1,0.9984880685806274,1
64,100,0.16363636363636364,307,0,95,_Guitar_1,6,3,_Guitar_1,0.06334526091814041,0
64,100,0.2818181818181818,365,0,95,_Guitar_1,6,5,_Guitar_1,0.0577421709895134,0
64,100,0.08181818181818182,452,0,95,_Guitar_1,6,1,_Guitar_1,0.06020338088274002,0
64,100,0.08181818181818182,509,0,95,_Guitar_1,6,1,_Guitar_1,0.06970464438199997,0
59,100,0.18181818181818182,538,0,95,_Guitar_1,6,3,_Guitar_1,0.08189592510461807,0
54,100,0.11818181818181818,879,1,95,_Guitar_1,6,2,_Guitar_1,0.12402646243572235,0
59,100,0.34545454545454546,220,1,96,_Guitar_1,6,6,_Guitar_1,0.9990229606628418,1
59,100,0.24545454545454545,300,0,96,_Guitar_1,6,4,_Guitar_1,0.3666245639324188,0
59,100,0.08181818181818182,781,1,96,_Guitar_1,6,1,_Guitar_1,0.453293114900589,0
59,100,0.31363636363636366,132,1,97,_Guitar_1,6,5,_Guitar_1,0.9988419413566589,1
64,100,0.19545454545454546,227,0,97,_Guitar_1,6,3,_Guitar_1,0.13724440336227417,0
59,100,0.2772727272727273,349,0,97,_Guitar_1,6,4,_Guitar_1,0.15977485477924347,0
52,100,0.17727272727272728,443,0,97,_Guitar_1,6,3,_Guitar_1,0.1864486038684845,0
64,100,0.11363636363636363,577,0,97,_Guitar_1,6,2,_Guitar_1,0.25816747546195984,0
59,100,0.21363636363636362,500,1,98,_Guitar_1,6,3,_Guitar_1,0.9990229606628418,1
52,100,0.2,648,0,98,_Guitar_1,6,3,_Guitar_1,0.3666197955608368,0
59,100,0.21363636363636362,769,0,98,_Guitar_1,6,3,_Guitar_1,0.45329225063323975,0
59,100,0.18181818181818182,72,1,99,_Guitar_1,6,3,_Guitar_1,0.9986500144004822,1
59,100,0.11363636363636363,330,1,99,_Guitar_1,6,2,_Guitar_1,0.08780241757631302,0
59,100,0.08181818181818182,376,0,99,_Guitar_1,6,1,_Guitar_1,0.09181167185306549,0
59,100,0.35909090909090907,398,0,99,_Guitar_1,6,6,_Guitar_1,0.10747668892145157,0
64,100,0.19545454545454546,768,1,99,_Guitar_1,6,3,_Guitar_1,0.12482619285583496,0
64,100,0.1318181818181818,837,0,99,_Guitar_1,6,2,_Guitar_1,0.17903658747673035,0
59,100,0.2636363636363636,326,1,100,_Guitar_1,6,4,_Guitar_1,0.9988419413566589,1
64,100,0.14545454545454545,390,0,100,_Guitar_1,6,2,_Guitar_1,0.13724654912948608,0
64,100,0.29545454545454547,527,0,100,_Guitar_1,6,5,_Guitar_1,0.15977738797664642,0
64,100,0.18181818181818182,621,0,100,_Guitar_1,6,3,_Guitar_1,0.18644998967647552,0
59,100,0.16363636363636364,861,1,100,_Guitar_1,6,3,_Guitar_1,0.25817200541496277,0
59,100,0.16363636363636364,27,1,101,_Guitar_1,6,3,_Guitar_1,0.9990057349205017,1
59,100,0.21363636363636362,462,1,101,_Guitar_1,6,3,_Guitar_1,0.23120272159576416,0
64,100,0.1318181818181818,792,1,101,_Guitar_1,6,2,_Guitar_1,0.2659197151660919,0
64,100,0.21363636363636362,832,0,101,_Guitar_1,6,3,_Guitar_1,0.35420238971710205,0
59,100,0.08181818181818182,1,1,102,_Guitar_1,6,1,_Guitar_1,0.9983736276626587,1
59,100,0.21363636363636362,27,0,102,_Guitar_1,6,3,_Guitar_1,0.051059212535619736,0
59,100,0.17727272727272728,320,1,102,_Guitar_1,6,3,_Guitar_1,0.041302770376205444,0
59,100,0.1,374,0,102,_Guitar_1,6,2,_Guitar_1,0.037385206669569016,0
59,100,0.08181818181818182,451,0,102,_Guitar_1,6,1,_Guitar_1,0.038329530507326126,0
59,100,0.4772727272727273,472,0,102,_Guitar_1,6,8,_Guitar_1,0.04475263133645058,0
59,100,0.2318181818181818,599,0,102,_Guitar_1,6,4,_Guitar_1,0.055229563266038895,0
59,100,0.16363636363636364,826,0,102,_Guitar_1,6,3,_Guitar_1,0.0902659147977829,0
59,100,0.5454545454545454,685,1,103,_Guitar_1,6,9,_Guitar_1,0.9983165264129639,1
59,100,0.4409090909090909,844,0,103,_Guitar_1,6,7,_Guitar_1,0.5445547699928284,0
54,100,0.5227272727272727,258,1,104,_Guitar_1,6,8,_Guitar_1,0.9792567491531372,1
59,100,1.2181818181818183,679,1,105,_Guitar_1,6,15,_Guitar_1,0.9792550206184387,0
59,100,0.1,133,1,106,_Guitar_1,6,2,_Guitar_1,0.9990057349205017,1
52,100,1.5954545454545455,173,0,106,_Guitar_1,6,15,_Guitar_1,0.23119930922985077,0
52,100,0.1318181818181818,552,1,106,_Guitar_1,6,2,_Guitar_1,0.26592445373535156,0
52,100,0.11363636363636363,687,0,106,_Guitar_1,6,2,_Guitar_1,0.3542001247406006,0
59,100,0.08181818181818182,353,1,107,_Guitar_1,6,1,_Guitar_1,0.9983165264129639,1
64,100,0.5590909090909091,834,1,107,_Guitar_1,6,9,_Guitar_1,0.5445544123649597,0
64,100,0.11363636363636363,121,1,108,_Guitar_1,6,2,_Guitar_1,0.9988419413566589,1
64,100,0.29545454545454547,302,0,108,_Guitar_1,6,5,_Guitar_1,0.1372467577457428,0
59,100,0.16818181818181818,381,0,108,_Guitar_1,6,3,_Guitar_1,0.15977869927883148,0
64,100,0.36363636363636365,642,1,108,_Guitar_1,6,6,_Guitar_1,0.18645364046096802,0
52,100,1.0681818181818181,722,0,108,_Guitar_1,6,15,_Guitar_1,0.2581752836704254,0
52,100,0.25,126,1,109,_Guitar_1,6,4,_Guitar_1,0.9792571067810059,0
66,100,0.14545454545454545,137,1,110,_Guitar_1,6,2,_Guitar_1,0.9990229606628418,1
52,100,0.22727272727272727,337,0,110,_Guitar_1,6,4,_Guitar_1,0.36662209033966064,0
59,100,0.09545454545454546,742,1,110,_Guitar_1,6,2,_Guitar_1,0.45329195261001587,0
64,100,0.5590909090909091,650,1,111,_Guitar_1,6,9,_Guitar_1,0.9983165264129639,1
64,100,0.11818181818181818,777,0,111,_Guitar_1,6,2,_Guitar_1,0.5445578098297119,0
59,100,0.24545454545454545,551,1,112,_Guitar_1,6,4,_Guitar_1,0.9983165264129639,1
52,100,0.29545454545454547,755,0,112,_Guitar_1,6,5,_Guitar_1,0.5445602536201477,0
59,100,0.18181818181818182,81,1,113,_Guitar_1,6,3,_Guitar_1,0.9986500144004822,1
59,100,0.11818181818181818,123,0,113,_Guitar_1,6,2,_Guitar_1,0.08780646324157715,0
56,100,0.11363636363636363,261,0,113,_Guitar_1,6,2,_Guitar_1,0.09181710332632065,0
56,100,0.1318181818181818,319,0,113,_Guitar_1,6,2,_Guitar_1,0.10748311877250671,0
57,100,0.37727272727272726,471,0,113,_Guitar_1,6,6,_Guitar_1,0.1248331069946289,0
57,100,0.2818181818181818,597,0,113,_Guitar_1,6,5,_Guitar_1,0.1790454089641571,0
52,100,0.18181818181818182,235,1,114,_Guitar_1,6,3,_Guitar_1,0.9983736276626587,1
57,100,0.14545454545454545,370,0,114,_Guitar_1,6,2,_Guitar_1,0.0510612316429615,0
57,100,0.34545454545454546,435,0,114,_Guitar_1,6,6,_Guitar_1,0.04130318760871887,0
59,100,0.2318181818181818,528,0,114,_Guitar_1,6,4,_Guitar_1,0.03738633915781975,0
59,100,0.1318181818181818,734,0,114,_Guitar_1,6,2,_Guitar_1,0.0383296012878418,0
59,100,0.1,768,0,114,_Guitar_1,6,2,_Guitar_1,0.04475207254290581,0
52,100,0.1,828,0,114,_Guitar_1,6,2,_Guitar_1,0.05522923171520233,0
64,100,0.08181818181818182,876,0,114,_Guitar_1,6,1,_Guitar_1,0.09026772528886795,0
52,100,0.09545454545454546,51,1,115,_Guitar_1,6,2,_Guitar_1,0.9990057349205017,1
52,100,0.5727272727272728,203,0,115,_Guitar_1,6,9,_Guitar_1,0.23120750486850739,0
56,100,0.19545454545454546,361,0,115,_Guitar_1,6,3,_Guitar_1,0.2659187912940979,0
59,100,0.15,796,1,115,_Guitar_1,6,2,_Guitar_1,0.3541993498802185,0
52,100,0.37727272727272726,282,1,116,_Guitar_1,6,6,_Guitar_1,0.9990229606628418,1
52,100,0.11363636363636363,375,0,116,_Guitar_1,6,2,_Guitar_1,0.3666335642337799,0
57,100,0.08181818181818182,443,0,116,_Guitar_1,6,1,_Guitar_1,0.4532967507839203,0
59,100,0.34545454545454546,5,1,117,_Guitar_1,6,6,_Guitar_1,0.9984880685806274,1
52,100,0.08636363636363636,377,1,117,_Guitar_1,6,1,_Guitar_1,0.06334669142961502,0
52,100,0.08181818181818182,465,0,117,_Guitar_1,6,1,_Guitar_1,0.05774359032511711,0
52,100,0.6227272727272727,502,0,117,_Guitar_1,6,10,_Guitar_1,0.06020249426364899,0
52,100,0.11363636363636363,657,0,117,_Guitar_1,6,2,_Guitar_1,0.06970570236444473,0
52,100,0.1,780,0,117,_Guitar_1,6,2,_Guitar_1,0.08189896494150162,0
52,100,0.19545454545454546,860,0,117,_Guitar_1,6,3,_Guitar_1,0.12402912974357605,0
52,100,0.31363636363636366,73,1,118,_Guitar_1,6,5,_Guitar_1,0.9990229606628418,1
64,100,0.08181818181818182,396,1,118,_Guitar_1,6,1,_Guitar_1,0.3666194677352905,0
52,100,0.11363636363636363,765,1,118,_Guitar_1,6,2,_Guitar_1,0.45329320430755615,0
57,100,0.11818181818181818,638,1,0,_Guitar,6,2,_Guitar,0.9792563915252686,0
52,100,0.32272727272727275,122,1,5,_Guitar,6,5,_Guitar,0.9984880685806274,1
52,100,0.36363636363636365,201,0,5,_Guitar,6,6,_Guitar,0.0633459985256195,0
53,100,0.1,373,0,5,_Guitar,6,2,_Guitar,0.05774087458848953,0
52,100,0.2818181818181818,396,0,5,_Guitar,6,5,_Guitar,0.060200124979019165,0
52,100,0.3409090909090909,475,0,5,_Guitar,6,5,_Guitar,0.06969988346099854,0
52,100,0.3,568,0,5,_Guitar,6,5,_Guitar,0.0818919837474823,0
52,100,0.3,647,0,5,_Guitar,6,5,_Guitar,0.12402018159627914,0
59,100,0.5590909090909091,79,1,6,_Guitar,6,9,_Guitar,0.9990057349205017,1
59,100,0.1590909090909091,276,0,6,_Guitar,6,3,_Guitar,0.2312016487121582,0
52,100,0.8181818181818182,634,1,6,_Guitar,6,13,_Guitar,0.265912264585495,0
52,100,0.2772727272727273,823,0,6,_Guitar,6,4,_Guitar,0.35420066118240356,0
52,100,0.4409090909090909,12,1,7,_Guitar,6,7,_Guitar,0.9988419413566589,1
52,100,1.1409090909090909,118,0,7,_Guitar,6,15,_Guitar,0.13724765181541443,0
52,100,1.459090909090909,383,1,7,_Guitar,6,15,_Guitar,0.1597767472267151,0
52,100,0.4409090909090909,726,1,7,_Guitar,6,7,_Guitar,0.1864556521177292,0
52,100,0.7,836,0,7,_Guitar,6,11,_Guitar,0.25817349553108215,0
52,100,0.1409090909090909,113,1,8,_Guitar,6,2,_Guitar,0.9792571067810059,1
59,100,0.16363636363636364,70,1,9,_Guitar,6,3,_Guitar,0.9792561531066895,0
59,100,0.11818181818181818,44,1,12,_Guitar,6,2,_Guitar,0.9792566299438477,0
57,100,0.37727272727272726,53,1,13,_Guitar,6,6,_Guitar,0.9990057349205017,1
57,100,0.22272727272727272,409,1,13,_Guitar,6,4,_Guitar,0.23119889199733734,0
59,100,0.11818181818181818,766,1,13,_Guitar,6,2,_Guitar,0.26592183113098145,0
59,100,0.2409090909090909,840,0,13,_Guitar,6,4,_Guitar,0.35419660806655884,0
64,100,0.11818181818181818,53,1,14,_Guitar,6,2,_Guitar,0.9984880685806274,1
59,100,0.1,92,0,14,_Guitar,6,2,_Guitar,0.0633459985256195,0
59,100,0.4,285,0,14,_Guitar,6,6,_Guitar,0.05774145945906639,0
64,100,0.2409090909090909,383,0,14,_Guitar,6,4,_Guitar,0.0602010153234005,0
64,100,0.17727272727272728,536,0,14,_Guitar,6,3,_Guitar,0.06970322132110596,0
64,100,0.6227272727272727,598,0,14,_Guitar,6,10,_Guitar,0.0818944126367569,0
52,100,0.21818181818181817,823,0,14,_Guitar,6,3,_Guitar,0.12402354180812836,0
52,100,0.1,56,1,15,_Guitar,6,2,_Guitar,0.9986500144004822,1
52,100,0.3,132,0,15,_Guitar,6,5,_Guitar,0.0878024697303772,0
64,100,0.8818181818181818,197,0,15,_Guitar,6,14,_Guitar,0.09181187301874161,0
59,100,0.2,395,0,15,_Guitar,6,3,_Guitar,0.10747870802879333,0
59,100,0.11818181818181818,493,0,15,_Guitar,6,2,_Guitar,0.1248258426785469,0
64,100,0.18181818181818182,553,0,15,_Guitar,6,3,_Guitar,0.1790372133255005,0
59,100,0.2,123,1,16,_Guitar,6,3,_Guitar,0.9988419413566589,1
59,100,0.2409090909090909,175,0,16,_Guitar,6,4,_Guitar,0.13724669814109802,0
52,100,0.2,326,0,16,_Guitar,6,3,_Guitar,0.15977263450622559,0
64,100,0.1,413,0,16,_Guitar,6,2,_Guitar,0.1864471435546875,0
64,100,0.12272727272727273,729,1,16,_Guitar,6,2,_Guitar,0.2581694722175598,0
59,100,0.1,303,1,17,_Guitar,6,2,_Guitar,0.9986500144004822,1
59,100,0.18181818181818182,333,0,17,_Guitar,6,3,_Guitar,0.0878014788031578,0
59,100,0.22272727272727272,519,0,17,_Guitar,6,4,_Guitar,0.09181340038776398,0
59,100,0.4,646,0,17,_Guitar,6,6,_Guitar,0.1074742004275322,0
59,100,0.18181818181818182,739,0,17,_Guitar,6,3,_Guitar,0.12482839822769165,0
59,100,0.21818181818181817,845,0,17,_Guitar,6,3,_Guitar,0.17902901768684387,0
64,100,0.12272727272727273,113,1,18,_Guitar,6,2,_Guitar,0.9984880685806274,1
52,100,0.2590909090909091,140,0,18,_Guitar,6,4,_Guitar,0.06334475427865982,0
52,100,0.11818181818181818,220,0,18,_Guitar,6,2,_Guitar,0.05774204432964325,0
52,100,0.35909090909090907,308,0,18,_Guitar,6,6,_Guitar,0.0602024681866169,0
52,100,0.17727272727272728,413,0,18,_Guitar,6,3,_Guitar,0.06970478594303131,0
64,100,0.2,752,1,18,_Guitar,6,3,_Guitar,0.08189613372087479,0
61,100,0.1409090909090909,870,0,18,_Guitar,6,2,_Guitar,0.12402351200580597,0
64,100,0.4,26,1,19,_Guitar,6,6,_Guitar,0.9984880685806274,1
64,100,0.1590909090909091,140,0,19,_Guitar,6,3,_Guitar,0.06334517896175385,0
64,100,0.32272727272727275,210,0,19,_Guitar,6,5,_Guitar,0.05774262920022011,0
59,100,0.1,351,0,19,_Guitar,6,2,_Guitar,0.060202065855264664,0
52,100,0.21818181818181817,505,0,19,_Guitar,6,3,_Guitar,0.06970453262329102,0
64,100,0.35909090909090907,563,0,19,_Guitar,6,6,_Guitar,0.08189607411623001,0
57,100,0.2,766,0,19,_Guitar,6,3,_Guitar,0.12402499467134476,0
57,100,0.17727272727272728,30,1,20,_Guitar,6,3,_Guitar,0.9988419413566589,1
64,100,0.1409090909090909,113,0,20,_Guitar,6,2,_Guitar,0.13724800944328308,0
59,100,0.11818181818181818,162,0,20,_Guitar,6,2,_Guitar,0.1597786694765091,0
59,100,0.11818181818181818,206,0,20,_Guitar,6,2,_Guitar,0.18645209074020386,0
59,100,0.3181818181818182,492,1,20,_Guitar,6,5,_Guitar,0.2581682503223419,0
52,100,0.3,136,1,21,_Guitar,6,5,_Guitar,0.9986500144004822,1
64,100,0.11818181818181818,241,0,21,_Guitar,6,2,_Guitar,0.08780457079410553,0
59,100,0.13636363636363635,326,0,21,_Guitar,6,2,_Guitar,0.09181296825408936,0
64,100,0.2409090909090909,364,0,21,_Guitar,6,4,_Guitar,0.10747795552015305,0
52,100,0.38181818181818183,466,0,21,_Guitar,6,6,_Guitar,0.12482622265815735,0
64,100,0.2772727272727273,766,1,21,_Guitar,6,4,_Guitar,0.17903651297092438,0
52,100,0.22272727272727272,752,1,22,_Guitar,6,4,_Guitar,0.9990229606628418,1
64,100,0.1409090909090909,801,0,22,_Guitar,6,2,_Guitar,0.36662572622299194,0
64,100,0.3409090909090909,839,0,22,_Guitar,6,5,_Guitar,0.4532930254936218,0
64,100,0.1409090909090909,382,1,23,_Guitar,6,2,_Guitar,0.9984880685806274,1
64,100,0.21818181818181817,436,0,23,_Guitar,6,3,_Guitar,0.06334557384252548,0
64,100,0.1409090909090909,571,0,23,_Guitar,6,2,_Guitar,0.05774271860718727,0
64,100,0.11818181818181818,615,0,23,_Guitar,6,2,_Guitar,0.060204681009054184,0
52,100,0.35909090909090907,681,0,23,_Guitar,6,6,_Guitar,0.06970594823360443,0
52,100,0.1409090909090909,791,0,23,_Guitar,6,2,_Guitar,0.08189982920885086,0
59,100,0.18181818181818182,839,0,23,_Guitar,6,3,_Guitar,0.12402743101119995,0
64,100,0.11818181818181818,40,1,24,_Guitar,6,2,_Guitar,0.9990057349205017,1
64,100,0.1409090909090909,69,0,24,_Guitar,6,2,_Guitar,0.23120467364788055,0
64,100,0.1409090909090909,233,0,24,_Guitar,6,2,_Guitar,0.26592767238616943,0
57,100,0.22272727272727272,364,0,24,_Guitar,6,4,_Guitar,0.3541991710662842,0
59,100,0.2590909090909091,233,1,25,_Guitar,6,4,_Guitar,0.9990057349205017,1
59,100,0.2,378,0,25,_Guitar,6,3,_Guitar,0.23120003938674927,0
59,100,0.3409090909090909,466,0,25,_Guitar,6,5,_Guitar,0.26592424511909485,0
71,100,0.1,839,1,25,_Guitar,6,2,_Guitar,0.3541935682296753,0
52,100,0.11818181818181818,61,1,27,_Guitar,6,2,_Guitar,0.9983003735542297,1
52,100,0.3,299,1,27,_Guitar,6,5,_Guitar,0.0446631982922554,0
59,100,0.13636363636363635,391,0,27,_Guitar,6,2,_Guitar,0.0331491157412529,0
59,100,0.2590909090909091,430,0,27,_Guitar,6,4,_Guitar,0.026579083874821663,0
59,100,0.18181818181818182,497,0,27,_Guitar,6,3,_Guitar,0.023594778031110764,0
59,100,0.1,584,0,27,_Guitar,6,2,_Guitar,0.02431400679051876,0
59,100,0.1409090909090909,691,0,27,_Guitar,6,2,_Guitar,0.029689129441976547,0
64,100,0.1590909090909091,756,0,27,_Guitar,6,3,_Guitar,0.040076956152915955,0
64,100,0.2,853,0,27,_Guitar,6,3,_Guitar,0.07092905789613724,0
59,100,0.21818181818181817,131,1,28,_Guitar,6,3,_Guitar,0.9984880685806274,1
59,100,0.1409090909090909,289,0,28,_Guitar,6,2,_Guitar,0.06334444135427475,0
59,100,0.4,378,0,28,_Guitar,6,6,_Guitar,0.05773991346359253,0
59,100,0.5,474,0,28,_Guitar,6,8,_Guitar,0.06019926071166992,0
59,100,0.1590909090909091,590,0,28,_Guitar,6,3,_Guitar,0.0696990042924881,0
59,100,0.3,656,0,28,_Guitar,6,5,_Guitar,0.08189099282026291,0
64,100,0.2636363636363636,729,0,28,_Guitar,6,4,_Guitar,0.12401966750621796,0
59,100,0.2,57,1,29,_Guitar,6,3,_Guitar,0.9990229606628418,1
59,100,0.41818181818181815,127,0,29,_Guitar,6,7,_Guitar,0.36661824584007263,0
59,100,0.1409090909090909,818,1,29,_Guitar,6,2,_Guitar,0.4532916843891144,0
61,100,0.2409090909090909,223,1,30,_Guitar,6,4,_Guitar,0.9988419413566589,1
64,100,0.2409090909090909,576,1,30,_Guitar,6,4,_Guitar,0.13724997639656067,0
59,100,0.17727272727272728,721,0,30,_Guitar,6,3,_Guitar,0.15977956354618073,0
59,100,0.1409090909090909,796,0,30,_Guitar,6,2,_Guitar,0.18644979596138,0
54,100,0.5181818181818182,831,0,30,_Guitar,6,8,_Guitar,0.2581663727760315,0
59,100,0.4590909090909091,96,1,31,_Guitar,6,7,_Guitar,0.9983165264129639,1
64,100,0.11818181818181818,440,1,31,_Guitar,6,2,_Guitar,0.5445634722709656,0
57,100,0.2409090909090909,123,1,32,_Guitar,6,4,_Guitar,0.9983165264129639,1
59,100,0.1590909090909091,590,1,32,_Guitar,6,3,_Guitar,0.5445602536201477,0
64,100,0.11818181818181818,18,1,33,_Guitar,6,2,_Guitar,0.9990057349205017,1
57,100,0.1590909090909091,233,0,33,_Guitar,6,3,_Guitar,0.23120205104351044,0
52,100,0.3,303,0,33,_Guitar,6,5,_Guitar,0.2659202814102173,0
64,100,0.2409090909090909,664,1,33,_Guitar,6,4,_Guitar,0.35420843958854675,0
59,100,0.1590909090909091,330,1,34,_Guitar,6,3,_Guitar,0.9990057349205017,1
59,100,0.3409090909090909,471,0,34,_Guitar,6,5,_Guitar,0.23120205104351044,0
59,100,0.12272727272727273,686,0,34,_Guitar,6,2,_Guitar,0.2659241259098053,0
66,100,0.1409090909090909,783,0,34,_Guitar,6,2,_Guitar,0.35419774055480957,0
59,100,0.18181818181818182,386,1,35,_Guitar,6,3,_Guitar,0.9792565107345581,0
64,100,0.22272727272727272,201,1,36,_Guitar,6,4,_Guitar,0.9990230798721313,1
64,100,0.12272727272727273,783,1,36,_Guitar,6,2,_Guitar,0.3666243553161621,0
57,100,0.2818181818181818,836,0,36,_Guitar,6,5,_Guitar,0.4532899856567383,0
64,100,0.2590909090909091,761,1,37,_Guitar,6,4,_Guitar,0.9983164072036743,1
52,100,0.3181818181818182,831,0,37,_Guitar,6,5,_Guitar,0.5445577502250671,0
52,100,0.13636363636363635,238,1,38,_Guitar,6,2,_Guitar,0.9792567491531372,0
64,100,0.35909090909090907,383,1,39,_Guitar,6,6,_Guitar,0.9990229606628418,1
52,100,0.17727272727272728,646,1,39,_Guitar,6,3,_Guitar,0.3666236698627472,0
52,100,0.12272727272727273,826,0,39,_Guitar,6,2,_Guitar,0.45329684019088745,0
52,100,0.2,206,1,40,_Guitar,6,3,_Guitar,0.9990229606628418,1
52,100,0.12272727272727273,474,1,40,_Guitar,6,2,_Guitar,0.3666183352470398,0
52,100,0.13636363636363635,743,1,40,_Guitar,6,2,_Guitar,0.45329439640045166,0
59,100,0.16363636363636364,554,1,42,_Guitar,6,3,_Guitar,0.9792561531066895,1
61,100,0.11818181818181818,110,1,43,_Guitar,6,2,_Guitar,0.9792549014091492,0
61,100,0.2,114,1,44,_Guitar,6,3,_Guitar,0.9986500144004822,1
61,100,0.33636363636363636,171,0,44,_Guitar,6,5,_Guitar,0.08780686557292938,0
57,100,0.21818181818181817,330,0,44,_Guitar,6,3,_Guitar,0.09181815385818481,0
57,100,0.42272727272727273,584,1,44,_Guitar,6,7,_Guitar,0.10748663544654846,0
57,100,0.11818181818181818,691,0,44,_Guitar,6,2,_Guitar,0.12483726441860199,0
57,100,0.12272727272727273,738,0,44,_Guitar,6,2,_Guitar,0.1790452003479004,0
57,100,0.2,408,1,45,_Guitar,6,3,_Guitar,0.9983165264129639,1
57,100,0.2818181818181818,576,0,45,_Guitar,6,5,_Guitar,0.5445593595504761,0
64,100,0.35909090909090907,364,1,46,_Guitar,6,6,_Guitar,0.9990229606628418,1
59,100,0.2772727272727273,646,1,46,_Guitar,6,4,_Guitar,0.3666216731071472,0
59,100,0.1590909090909091,845,0,46,_Guitar,6,3,_Guitar,0.45328769087791443,0
59,100,0.16363636363636364,91,1,47,_Guitar,6,3,_Guitar,0.9990230798721313,1
59,100,0.4,466,1,47,_Guitar,6,6,_Guitar,0.3666325807571411,0
68,100,0.3181818181818182,823,1,47,_Guitar,6,5,_Guitar,0.4532868564128876,0
68,100,0.16363636363636364,26,1,48,_Guitar,6,3,_Guitar,0.9990229606628418,1
61,100,0.1590909090909091,211,0,48,_Guitar,6,3,_Guitar,0.3666185438632965,0
59,100,0.2,334,0,48,_Guitar,6,3,_Guitar,0.45329251885414124,0
61,100,0.12272727272727273,48,1,49,_Guitar,6,2,_Guitar,0.9990057349205017,1
57,100,0.22272727272727272,224,0,49,_Guitar,6,4,_Guitar,0.2312111109495163,0
59,100,0.2,496,1,49,_Guitar,6,3,_Guitar,0.2659249007701874,0
57,100,0.17727272727272728,735,1,49,_Guitar,6,3,_Guitar,0.35419610142707825,0
54,100,0.21818181818181817,61,1,50,_Guitar,6,3,_Guitar,0.9990230798721313,1
57,100,0.2409090909090909,131,0,50,_Guitar,6,4,_Guitar,0.3666159212589264,0
54,100,0.2409090909090909,576,1,50,_Guitar,6,4,_Guitar,0.4532955586910248,0
59,100,0.12272727272727273,861,1,51,_Guitar,6,2,_Guitar,0.979256272315979,0
52,100,0.13636363636363635,523,1,52,_Guitar,6,2,_Guitar,0.9983165264129639,1
52,100,0.1590909090909091,633,0,52,_Guitar,6,3,_Guitar,0.5445606112480164,0
52,100,0.1590909090909091,88,1,53,_Guitar,6,3,_Guitar,0.9984880685806274,1
64,100,0.1,386,1,53,_Guitar,6,2,_Guitar,0.0633462518453598,0
52,100,0.17727272727272728,633,1,53,_Guitar,6,3,_Guitar,0.057743556797504425,0
64,100,0.13636363636363635,721,0,53,_Guitar,6,2,_Guitar,0.06020427867770195,0
52,100,0.3,765,0,53,_Guitar,6,5,_Guitar,0.06970436871051788,0
64,100,0.11818181818181818,831,0,53,_Guitar,6,2,_Guitar,0.08189771324396133,0
52,100,0.2590909090909091,858,0,53,_Guitar,6,4,_Guitar,0.12402693182229996,0
52,100,0.3,40,1,54,_Guitar,6,5,_Guitar,0.9988419413566589,1
52,100,0.17727272727272728,215,0,54,_Guitar,6,3,_Guitar,0.13724780082702637,0
57,100,0.2409090909090909,295,0,54,_Guitar,6,4,_Guitar,0.15977592766284943,0
64,100,0.1590909090909091,550,1,54,_Guitar,6,3,_Guitar,0.18645216524600983,0
52,100,0.35909090909090907,593,0,54,_Guitar,6,6,_Guitar,0.2581738531589508,0
52,100,0.21818181818181817,128,1,55,_Guitar,6,3,_Guitar,0.9792567491531372,1
59,100,0.43636363636363634,633,1,56,_Guitar,6,7,_Guitar,0.9792559146881104,0
52,100,0.18181818181818182,166,1,57,_Guitar,6,3,_Guitar,0.9792567491531372,0
52,100,0.1590909090909091,413,1,58,_Guitar,6,3,_Guitar,0.9983165264129639,1
52,100,0.13636363636363635,853,1,58,_Guitar,6,2,_Guitar,0.5445596575737,0
52,100,0.1590909090909091,78,1,59,_Guitar,6,3,_Guitar,0.9986500144004822,1
52,100,0.1409090909090909,153,0,59,_Guitar,6,2,_Guitar,0.08780185878276825,0
52,100,0.1409090909090909,220,0,59,_Guitar,6,2,_Guitar,0.09181322902441025,0
52,100,0.2,308,0,59,_Guitar,6,3,_Guitar,0.10747756063938141,0
64,100,0.1590909090909091,351,0,59,_Guitar,6,3,_Guitar,0.12482644617557526,0
59,100,0.11818181818181818,480,0,59,_Guitar,6,2,_Guitar,0.1790354996919632,0
61,100,0.2818181818181818,748,1,61,_Guitar,6,5,_Guitar,0.9792551398277283,0
68,100,0.2590909090909091,584,1,62,_Guitar,6,4,_Guitar,0.9983165264129639,1
59,100,0.1,655,0,62,_Guitar,6,2,_Guitar,0.5445577502250671,0
64,100,0.22272727272727272,123,1,63,_Guitar,6,4,_Guitar,0.9990057349205017,1
54,100,0.2590909090909091,298,0,63,_Guitar,6,4,_Guitar,0.23120011389255524,0
64,100,0.12272727272727273,408,0,63,_Guitar,6,2,_Guitar,0.2659223675727844,0
64,100,0.22272727272727272,488,0,63,_Guitar,6,4,_Guitar,0.3541989326477051,0
59,100,0.2,62,1,64,_Guitar,6,3,_Guitar,0.9983165264129639,1
59,100,0.17727272727272728,713,1,64,_Guitar,6,3,_Guitar,0.5445596575737,0
64,100,0.3409090909090909,289,1,65,_Guitar,6,5,_Guitar,0.9983164072036743,1
57,100,0.3,377,0,65,_Guitar,6,5,_Guitar,0.5445573329925537,0
61,100,0.17727272727272728,656,1,67,_Guitar,6,3,_Guitar,0.9983164072036743,1
61,100,0.18181818181818182,826,0,67,_Guitar,6,3,_Guitar,0.5445554852485657,0
52,100,0.11818181818181818,417,1,68,_Guitar,6,2,_Guitar,0.9983165264129639,1
64,100,0.4590909090909091,726,1,68,_Guitar,6,7,_Guitar,0.5445569753646851,0
59,100,0.1,140,1,69,_Guitar,6,2,_Guitar,0.9986500144004822,1
59,100,0.22272727272727272,166,0,69,_Guitar,6,4,_Guitar,0.08779918402433395,0
59,100,0.33636363636363636,392,0,69,_Guitar,6,5,_Guitar,0.09181002527475357,0
59,100,0.1,496,0,69,_Guitar,6,2,_Guitar,0.10747332870960236,0
59,100,0.21818181818181817,567,0,69,_Guitar,6,3,_Guitar,0.12482164800167084,0
59,100,0.1409090909090909,779,0,69,_Guitar,6,2,_Guitar,0.1790274679660797,0
61,100,0.17727272727272728,229,1,70,_Guitar,6,3,_Guitar,0.9983164072036743,1
56,100,0.1590909090909091,660,1,70,_Guitar,6,3,_Guitar,0.5445554852485657,0
56,100,0.2,303,1,71,_Guitar,6,3,_Guitar,0.9983164072036743,1
52,100,0.13636363636363635,787,1,71,_Guitar,6,2,_Guitar,0.5445600152015686,0
57,100,0.11818181818181818,127,1,72,_Guitar,6,2,_Guitar,0.9792559146881104,0
61,100,0.1590909090909091,307,1,73,_Guitar,6,3,_Guitar,0.9990057349205017,1
61,100,0.33636363636363636,480,0,73,_Guitar,6,5,_Guitar,0.2312038093805313,0
61,100,0.11818181818181818,590,0,73,_Guitar,6,2,_Guitar,0.26591524481773376,0
61,100,0.18181818181818182,739,0,73,_Guitar,6,3,_Guitar,0.3541974723339081,0
59,100,0.18181818181818182,572,1,74,_Guitar,6,3,_Guitar,0.9983165264129639,1
61,100,0.4590909090909091,726,0,74,_Guitar,6,7,_Guitar,0.5445502996444702,0
61,100,0.11818181818181818,74,1,75,_Guitar,6,2,_Guitar,0.9990229606628418,1
54,100,0.2590909090909091,233,0,75,_Guitar,6,4,_Guitar,0.3666289150714874,0
56,100,0.3,483,1,75,_Guitar,6,5,_Guitar,0.45329156517982483,0
52,100,0.2,409,1,76,_Guitar,6,3,_Guitar,0.9990229606628418,1
59,100,0.17727272727272728,493,0,76,_Guitar,6,3,_Guitar,0.3666203022003174,0
64,100,0.2409090909090909,576,0,76,_Guitar,6,4,_Guitar,0.4532957673072815,0
59,100,0.1,289,1,77,_Guitar,6,2,_Guitar,0.9983165264129639,1
59,100,0.1,813,1,77,_Guitar,6,2,_Guitar,0.5445565581321716,0
59,100,0.18181818181818182,475,1,78,_Guitar,6,3,_Guitar,0.9792559146881104,0
64,100,0.1409090909090909,475,1,79,_Guitar,6,2,_Guitar,0.9990229606628418,1
64,100,0.1590909090909091,519,0,79,_Guitar,6,3,_Guitar,0.36662548780441284,0
59,100,0.4590909090909091,572,0,79,_Guitar,6,7,_Guitar,0.45328742265701294,0
52,100,0.1409090909090909,0,1,80,_Guitar,6,2,_Guitar,0.9984880685806274,1
52,100,0.1,62,0,80,_Guitar,6,2,_Guitar,0.06334608793258667,0
52,100,0.12272727272727273,233,0,80,_Guitar,6,2,_Guitar,0.05774398893117905,0
64,100,0.2,422,0,80,_Guitar,6,3,_Guitar,0.060204584151506424,0
52,100,0.4772727272727273,546,0,80,_Guitar,6,8,_Guitar,0.0697053074836731,0
52,100,0.17727272727272728,743,0,80,_Guitar,6,3,_Guitar,0.08189847320318222,0
59,100,0.42272727272727273,805,0,80,_Guitar,6,7,_Guitar,0.12402629852294922,0
59,100,0.38181818181818183,637,1,81,_Guitar,6,6,_Guitar,0.9792556166648865,0
59,100,0.18181818181818182,299,1,82,_Guitar,6,3,_Guitar,0.9990057349205017,1
59,100,0.2772727272727273,404,0,82,_Guitar,6,4,_Guitar,0.23119860887527466,0
59,100,0.2772727272727273,470,0,82,_Guitar,6,4,_Guitar,0.265912801027298,0
64,100,0.3409090909090909,734,1,82,_Guitar,6,5,_Guitar,0.3541931211948395,0
64,100,0.5,26,1,83,_Guitar,6,8,_Guitar,0.9988419413566589,1
64,100,0.6,157,0,83,_Guitar,6,10,_Guitar,0.13724857568740845,0
64,100,0.1590909090909091,559,1,83,_Guitar,6,3,_Guitar,0.15977656841278076,0
64,100,0.2,646,0,83,_Guitar,6,3,_Guitar,0.18644979596138,0
64,100,0.11818181818181818,743,0,83,_Guitar,6,2,_Guitar,0.2581750154495239,0
64,100,0.2,123,1,84,_Guitar,6,3,_Guitar,0.9983003735542297,1
64,100,0.13636363636363635,172,0,84,_Guitar,6,2,_Guitar,0.044663943350315094,0
64,100,0.3,242,0,84,_Guitar,6,5,_Guitar,0.0331493616104126,0
64,100,0.2409090909090909,312,0,84,_Guitar,6,4,_Guitar,0.026580050587654114,0
64,100,0.3181818181818182,373,0,84,_Guitar,6,5,_Guitar,0.023595646023750305,0
59,100,0.1,470,0,84,_Guitar,6,2,_Guitar,0.024314722046256065,0
52,100,0.3,663,0,84,_Guitar,6,5,_Guitar,0.029690297320485115,0
52,100,0.11818181818181818,787,0,84,_Guitar,6,2,_Guitar,0.04007882997393608,0
59,100,0.18181818181818182,839,0,84,_Guitar,6,3,_Guitar,0.07092975825071335,0
59,100,0.1,30,1,85,_Guitar,6,2,_Guitar,0.9990230798721313,1
59,100,0.2409090909090909,756,1,85,_Guitar,6,4,_Guitar,0.3666251599788666,0
64,100,0.22272727272727272,826,0,85,_Guitar,6,4,_Guitar,0.45329347252845764,0
64,100,0.11818181818181818,30,1,86,_Guitar,6,2,_Guitar,0.9986500144004822,1
64,100,0.1409090909090909,74,0,86,_Guitar,6,2,_Guitar,0.08780054748058319,0
52,100,0.32272727272727275,377,1,86,_Guitar,6,5,_Guitar,0.09181275218725204,0
59,100,0.41818181818181815,470,0,86,_Guitar,6,7,_Guitar,0.10747534781694412,0
59,100,0.1,663,0,86,_Guitar,6,2,_Guitar,0.1248253807425499,0
59,100,0.2409090909090909,813,0,86,_Guitar,6,4,_Guitar,0.1790345162153244,0
59,100,0.22272727272727272,13,1,87,_Guitar,6,4,_Guitar,0.9986500144004822,1
59,100,0.2409090909090909,74,0,87,_Guitar,6,4,_Guitar,0.0878024697303772,0
59,100,0.1,197,0,87,_Guitar,6,2,_Guitar,0.09181256592273712,0
59,100,0.1,294,0,87,_Guitar,6,2,_Guitar,0.10747598111629486,0
64,100,0.35909090909090907,483,0,87,_Guitar,6,6,_Guitar,0.12482838332653046,0
61,100,0.2409090909090909,747,1,87,_Guitar,6,4,_Guitar,0.17903269827365875,0
68,100,0.16363636363636364,817,1,88,_Guitar,6,3,_Guitar,0.9792561531066895,1
59,100,0.32272727272727275,453,1,89,_Guitar,6,5,_Guitar,0.9792556166648865,0
59,100,0.22272727272727272,145,1,90,_Guitar,6,4,_Guitar,0.9988419413566589,1
59,100,0.2,352,0,90,_Guitar,6,3,_Guitar,0.13724640011787415,0
59,100,0.1590909090909091,404,0,90,_Guitar,6,3,_Guitar,0.15978114306926727,0
59,100,0.2590909090909091,590,0,90,_Guitar,6,4,_Guitar,0.18645113706588745,0
68,100,0.18181818181818182,673,0,90,_Guitar,6,3,_Guitar,0.25816306471824646,0
64,100,0.2590909090909091,87,1,91,_Guitar,6,4,_Guitar,0.9990229606628418,1
59,100,0.21818181818181817,392,1,91,_Guitar,6,3,_Guitar,0.366616427898407,0
64,100,0.1409090909090909,483,0,91,_Guitar,6,2,_Guitar,0.45329272747039795,0
52,100,0.1,62,1,92,_Guitar,6,2,_Guitar,0.9983736276626587,1
64,100,0.1,140,0,92,_Guitar,6,2,_Guitar,0.0510609932243824,0
59,100,0.1409090909090909,197,0,92,_Guitar,6,2,_Guitar,0.041303280740976334,0
59,100,0.2409090909090909,233,0,92,_Guitar,6,4,_Guitar,0.03738659620285034,0
52,100,0.2818181818181818,299,0,92,_Guitar,6,5,_Guitar,0.03832996264100075,0
64,100,0.1590909090909091,360,0,92,_Guitar,6,3,_Guitar,0.04475151002407074,0
52,100,0.16363636363636364,399,0,92,_Guitar,6,3,_Guitar,0.05523017793893814,0
64,100,0.22272727272727272,553,0,92,_Guitar,6,4,_Guitar,0.09026720374822617,0
59,100,0.4409090909090909,210,1,93,_Guitar,6,7,_Guitar,0.9990057349205017,1
59,100,0.22272727272727272,377,0,93,_Guitar,6,4,_Guitar,0.23120221495628357,0
59,100,0.1590909090909091,603,0,93,_Guitar,6,3,_Guitar,0.2659159004688263,0
59,100,0.2409090909090909,770,0,93,_Guitar,6,4,_Guitar,0.3541952073574066,0
64,100,0.2818181818181818,132,1,94,_Guitar,6,5,_Guitar,0.9990229606628418,1
64,100,0.1409090909090909,220,0,94,_Guitar,6,2,_Guitar,0.3666202127933502,0
64,100,0.22272727272727272,430,0,94,_Guitar,6,4,_Guitar,0.45329350233078003,0
64,100,0.1590909090909091,123,1,95,_Guitar,6,3,_Guitar,0.9990229606628418,1
64,100,0.11818181818181818,303,0,95,_Guitar,6,2,_Guitar,0.366615355014801,0
52,100,0.12272727272727273,650,1,95,_Guitar,6,2,_Guitar,0.4532953202724457,0
59,100,0.42272727272727273,356,1,96,_Guitar,6,7,_Guitar,0.9983165264129639,1
59,100,0.3409090909090909,585,0,96,_Guitar,6,5,_Guitar,0.544559121131897,0
59,100,0.13636363636363635,83,1,97,_Guitar,6,2,_Guitar,0.9988419413566589,1
64,100,0.13636363636363635,260,0,97,_Guitar,6,2,_Guitar,0.1372484564781189,0
64,100,0.1409090909090909,496,1,97,_Guitar,6,2,_Guitar,0.15977735817432404,0
64,100,0.2636363636363636,597,0,97,_Guitar,6,4,_Guitar,0.18645070493221283,0
64,100,0.5818181818181818,826,0,97,_Guitar,6,9,_Guitar,0.2581685781478882,0
64,100,0.2590909090909091,100,1,98,_Guitar,6,4,_Guitar,0.9990057349205017,1
52,100,0.1409090909090909,157,0,98,_Guitar,6,2,_Guitar,0.23121093213558197,0
64,100,0.22272727272727272,189,0,98,_Guitar,6,4,_Guitar,0.26593199372291565,0
57,100,0.12272727272727273,783,1,98,_Guitar,6,2,_Guitar,0.35420072078704834,0
64,100,0.1,197,1,99,_Guitar,6,2,_Guitar,0.9988419413566589,1
52,100,0.35909090909090907,220,0,99,_Guitar,6,6,_Guitar,0.13724686205387115,0
52,100,0.13636363636363635,326,0,99,_Guitar,6,2,_Guitar,0.15977920591831207,0
59,100,0.1,690,1,99,_Guitar,6,2,_Guitar,0.18644937872886658,0
59,100,0.1590909090909091,716,0,99,_Guitar,6,3,_Guitar,0.25817060470581055,0
64,100,0.11818181818181818,514,1,100,_Guitar,6,2,_Guitar,0.9990057349205017,1
68,100,0.2772727272727273,559,0,100,_Guitar,6,4,_Guitar,0.23118913173675537,0
59,100,0.12272727272727273,695,0,100,_Guitar,6,2,_Guitar,0.26591813564300537,0
64,100,0.2,832,0,100,_Guitar,6,3,_Guitar,0.3541933000087738,0
68,100,0.21818181818181817,119,1,101,_Guitar,6,3,_Guitar,0.9990229606628418,1
59,100,0.11818181818181818,612,1,101,_Guitar,6,2,_Guitar,0.36661797761917114,0
59,100,0.1590909090909091,787,0,101,_Guitar,6,3,_Guitar,0.4532896876335144,0
59,100,0.1590909090909091,172,1,102,_Guitar,6,3,_Guitar,0.9983165264129639,1
56,100,0.6818181818181818,660,1,102,_Guitar,6,11,_Guitar,0.5445461869239807,0
59,100,0.1409090909090909,255,1,103,_Guitar,6,2,_Guitar,0.9983165264129639,1
59,100,0.1590909090909091,470,0,103,_Guitar,6,3,_Guitar,0.5445551872253418,0
59,100,0.1409090909090909,69,1,104,_Guitar,6,2,_Guitar,0.9983165264129639,1
59,100,0.4409090909090909,343,1,104,_Guitar,6,7,_Guitar,0.5445559024810791,0
71,100,0.1409090909090909,862,1,105,_Guitar,6,2,_Guitar,0.979256272315979,0
83,100,0.12272727272727273,26,1,106,_Guitar,6,2,_Guitar,0.9983165264129639,1
83,100,0.1590909090909091,140,0,106,_Guitar,6,3,_Guitar,0.5445571541786194,0
59,100,0.7,62,1,107,_Guitar,6,11,_Guitar,0.9983165264129639,1
59,100,0.32272727272727275,233,0,107,_Guitar,6,5,_Guitar,0.5445585250854492,0
59,100,0.2590909090909091,779,1,108,_Guitar,6,4,_Guitar,0.9792566299438477,1
54,100,0.1,857,1,109,_Guitar,6,2,_Guitar,0.979256272315979,0
54,100,1.7,179,1,110,_Guitar,6,15,_Guitar,0.9983165264129639,1
56,100,0.1590909090909091,572,1,110,_Guitar,6,3,_Guitar,0.5445518493652344,0
59,100,0.12272727272727273,255,1,111,_Guitar,6,2,_Guitar,0.9792560338973999,0
59,100,0.17727272727272728,83,1,112,_Guitar,6,3,_Guitar,0.9983165264129639,1
64,100,1.1636363636363636,729,1,112,_Guitar,6,15,_Guitar,0.5445586442947388,0
52,100,0.2,210,1,113,_Guitar,6,3,_Guitar,0.9983165264129639,1
59,100,0.2818181818181818,747,1,113,_Guitar,6,5,_Guitar,0.5445557832717896,0
59,100,0.3181818181818182,127,1,114,_Guitar,6,5,_Guitar,0.9983165264129639,1
59,100,0.1,606,1,114,_Guitar,6,2,_Guitar,0.5445601940155029,0
64,100,0.18181818181818182,66,1,115,_Guitar,6,3,_Guitar,0.9988419413566589,1
64,100,0.4409090909090909,206,0,115,_Guitar,6,7,_Guitar,0.13724705576896667,0
64,100,0.3,386,0,115,_Guitar,6,5,_Guitar,0.15977825224399567,0
64,100,0.4409090909090909,726,1,115,_Guitar,6,7,_Guitar,0.18644727766513824,0
64,100,0.2,832,0,115,_Guitar,6,3,_Guitar,0.25817450881004333,0
64,100,0.3409090909090909,22,1,116,_Guitar,6,5,_Guitar,0.9988419413566589,1
64,100,0.1,127,0,116,_Guitar,6,2,_Guitar,0.13724443316459656,0
64,100,0.1,197,0,116,_Guitar,6,2,_Guitar,0.1597776710987091,0
59,100,0.22272727272727272,233,0,116,_Guitar,6,4,_Guitar,0.186451718211174,0
54,100,0.1409090909090909,646,1,116,_Guitar,6,2,_Guitar,0.25816774368286133,0
59,100,0.42272727272727273,35,1,117,_Guitar,6,7,_Guitar,0.9990229606628418,1
59,100,0.3,132,0,117,_Guitar,6,5,_Guitar,0.36662527918815613,0
59,100,0.1,716,1,117,_Guitar,6,2,_Guitar,0.45328977704048157,0
59,100,0.37727272727272726,119,1,118,_Guitar,6,6,_Guitar,0.9988419413566589,1
64,100,0.2409090909090909,233,0,118,_Guitar,6,4,_Guitar,0.13724638521671295,0
59,100,0.3409090909090909,383,0,118,_Guitar,6,5,_Guitar,0.1597740203142166,0
52,100,0.22272727272727272,496,0,118,_Guitar,6,4,_Guitar,0.18644660711288452,0
64,100,0.1409090909090909,660,0,118,_Guitar,6,2,_Guitar,0.2581667900085449,0
59,100,0.2590909090909091,756,1,119,_Guitar,6,4,_Guitar,0.9792561531066895,0
52,100,0.2409090909090909,56,1,120,_Guitar,6,4,_Guitar,0.9986500144004822,1
59,100,0.2636363636363636,202,0,120,_Guitar,6,4,_Guitar,0.08780086785554886,0
59,100,0.21818181818181817,426,0,120,_Guitar,6,3,_Guitar,0.09181128442287445,0
59,100,0.1409090909090909,739,1,120,_Guitar,6,2,_Guitar,0.10747583955526352,0
59,100,0.1,796,0,120,_Guitar,6,2,_Guitar,0.12482453137636185,0
59,100,0.4409090909090909,823,0,120,_Guitar,6,7,_Guitar,0.17903020977973938,0
64,100,0.23636363636363636,392,1,121,_Guitar,6,4,_Guitar,0.9983165264129639,1
64,100,0.1590909090909091,475,0,121,_Guitar,6,3,_Guitar,0.5445578694343567,0
59,100,0.3181818181818182,43,1,122,_Guitar,6,5,_Guitar,0.9986500144004822,1
64,100,0.18181818181818182,123,0,122,_Guitar,6,3,_Guitar,0.08780205249786377,0
64,100,0.36363636363636365,289,0,122,_Guitar,6,6,_Guitar,0.0918126329779625,0
64,100,0.21818181818181817,404,0,122,_Guitar,6,3,_Guitar,0.10747882723808289,0
59,100,0.2,695,1,122,_Guitar,6,3,_Guitar,0.1248294934630394,0
59,100,0.2,752,0,122,_Guitar,6,3,_Guitar,0.17903269827365875,0
59,100,0.2636363636363636,399,1,123,_Guitar,6,4,_Guitar,0.9990229606628418,1
64,100,0.1590909090909091,800,1,123,_Guitar,6,3,_Guitar,0.3666214942932129,0
64,100,0.2590909090909091,849,0,123,_Guitar,6,4,_Guitar,0.45329248905181885,0
59,100,0.1,30,1,124,_Guitar,6,2,_Guitar,0.9984880685806274,1
59,100,0.2590909090909091,62,0,124,_Guitar,6,4,_Guitar,0.06334514915943146,0
59,100,0.21818181818181817,417,1,124,_Guitar,6,3,_Guitar,0.05774284526705742,0
59,100,0.11818181818181818,483,0,124,_Guitar,6,2,_Guitar,0.060203906148672104,0
59,100,0.1,576,0,124,_Guitar,6,2,_Guitar,0.06970681250095367,0
59,100,0.5772727272727273,603,0,124,_Guitar,6,9,_Guitar,0.08189602941274643,0
59,100,0.2772727272727273,756,0,124,_Guitar,6,4,_Guitar,0.1240294799208641,0
59,100,0.2,153,1,125,_Guitar,6,3,_Guitar,0.9792559146881104,0
59,100,0.6590909090909091,172,1,126,_Guitar,6,11,_Guitar,0.9990229606628418,1
59,100,0.5409090909090909,365,0,126,_Guitar,6,9,_Guitar,0.3666156530380249,0
54,100,0.6363636363636364,722,1,126,_Guitar,6,10,_Guitar,0.4532926380634308,0
59,100,1.4772727272727273,546,1,128,_Guitar,6,15,_Guitar,0.9792554974555969,0
59,100,0.12272727272727273,70,1,129,_Guitar,6,2,_Guitar,0.9990057349205017,1
52,100,1.940909090909091,118,0,129,_Guitar,6,15,_Guitar,0.23119781911373138,0
52,100,0.1590909090909091,580,1,129,_Guitar,6,3,_Guitar,0.2659236788749695,0
52,100,0.13636363636363635,743,0,129,_Guitar,6,2,_Guitar,0.35420310497283936,0
59,100,0.1,527,1,130,_Guitar,6,2,_Guitar,0.9792560338973999,0
64,100,0.6818181818181818,232,1,131,_Guitar,6,11,_Guitar,0.9990057349205017,1
64,100,0.13636363636363635,436,0,131,_Guitar,6,2,_Guitar,0.2312023639678955,0
64,100,0.35909090909090907,656,0,131,_Guitar,6,6,_Guitar,0.26592159271240234,0
59,100,0.2,751,0,131,_Guitar,6,3,_Guitar,0.3542027771472931,0
64,100,0.4409090909090909,189,1,132,_Guitar,6,7,_Guitar,0.9990229606628418,1
52,100,1.3,285,0,132,_Guitar,6,15,_Guitar,0.3666139543056488,0
52,100,0.3,633,1,132,_Guitar,6,5,_Guitar,0.4532982110977173,0
66,100,0.18181818181818182,835,1,133,_Guitar,6,3,_Guitar,0.9792566299438477,0
52,100,0.2818181818181818,197,1,134,_Guitar,6,5,_Guitar,0.9983165264129639,1
59,100,0.11818181818181818,690,1,134,_Guitar,6,2,_Guitar,0.5445545315742493,0
64,100,0.6818181818181818,770,1,135,_Guitar,6,11,_Guitar,0.9792569875717163,0
64,100,0.1409090909090909,44,1,136,_Guitar,6,2,_Guitar,0.9983165264129639,1
59,100,0.3,840,1,136,_Guitar,6,5,_Guitar,0.5445607304573059,0
52,100,0.35909090909090907,207,1,137,_Guitar,6,6,_Guitar,0.9988419413566589,1
59,100,0.21818181818181817,458,1,137,_Guitar,6,3,_Guitar,0.13724879920482635,0
59,100,0.1409090909090909,510,0,137,_Guitar,6,2,_Guitar,0.15978334844112396,0
56,100,0.13636363636363635,678,0,137,_Guitar,6,2,_Guitar,0.18644879758358002,0
56,100,0.1590909090909091,747,0,137,_Guitar,6,3,_Guitar,0.25816309452056885,0
57,100,0.4590909090909091,53,1,138,_Guitar,6,7,_Guitar,0.9990230798721313,1
57,100,0.3409090909090909,207,0,138,_Guitar,6,5,_Guitar,0.36662617325782776,0
52,100,0.21818181818181817,835,1,138,_Guitar,6,3,_Guitar,0.45329567790031433,0
57,100,0.17727272727272728,118,1,139,_Guitar,6,3,_Guitar,0.9983736276626587,1
57,100,0.41818181818181815,197,0,139,_Guitar,6,7,_Guitar,0.05106175318360329,0
59,100,0.2818181818181818,311,0,139,_Guitar,6,5,_Guitar,0.041304487735033035,0
59,100,0.1590909090909091,562,1,139,_Guitar,6,3,_Guitar,0.03738732635974884,0
59,100,0.11818181818181818,603,0,139,_Guitar,6,2,_Guitar,0.03833100572228432,0
52,100,0.11818181818181818,678,0,139,_Guitar,6,2,_Guitar,0.04475301876664162,0
64,100,0.1,735,0,139,_Guitar,6,2,_Guitar,0.055230703204870224,0
52,100,0.11818181818181818,800,0,139,_Guitar,6,2,_Guitar,0.09026885032653809,0
52,100,0.7,106,1,140,_Guitar,6,11,_Guitar,0.9990229606628418,1
56,100,0.2409090909090909,299,0,140,_Guitar,6,4,_Guitar,0.36661913990974426,0
59,100,0.18181818181818182,826,1,140,_Guitar,6,3,_Guitar,0.4532913565635681,0
52,100,0.4590909090909091,391,1,141,_Guitar,6,7,_Guitar,0.9990229606628418,1
52,100,0.1409090909090909,505,0,141,_Guitar,6,2,_Guitar,0.366630882024765,0
57,100,0.1,589,0,141,_Guitar,6,2,_Guitar,0.4532835781574249,0
59,100,0.42272727272727273,246,1,142,_Guitar,6,7,_Guitar,0.9990057349205017,1
52,100,0.1,699,1,142,_Guitar,6,2,_Guitar,0.23120827972888947,0
52,100,0.1,804,0,142,_Guitar,6,2,_Guitar,0.2659226357936859,0
52,100,0.759090909090909,849,0,142,_Guitar,6,12,_Guitar,0.3542026877403259,0
52,100,0.1409090909090909,158,1,143,_Guitar,6,2,_Guitar,0.9990057349205017,1
52,100,0.11818181818181818,307,0,143,_Guitar,6,2,_Guitar,0.2311994880437851,0
52,100,0.2409090909090909,405,0,143,_Guitar,6,4,_Guitar,0.2659209072589874,0
52,100,0.38181818181818183,519,0,143,_Guitar,6,6,_Guitar,0.35419929027557373,0
64,100,0.1,30,1,144,_Guitar,6,2,_Guitar,0.9983165264129639,1
52,100,0.13636363636363635,479,1,144,_Guitar,6,2,_Guitar,0.544557511806488,0
58,100,0.17727272727272728,273,1,6,_Guitar,6,3,_Guitar,0.9983165264129639,1
58,100,0.13636363636363635,590,1,6,_Guitar,6,2,_Guitar,0.5445541143417358,0
58,100,0.2,40,1,7,_Guitar,6,3,_Guitar,0.9990057349205017,1
56,100,0.12272727272727273,268,0,7,_Guitar,6,2,_Guitar,0.23119999468326569,0
58,100,0.5181818181818182,360,0,7,_Guitar,6,8,_Guitar,0.26591408252716064,0
58,100,0.1409090909090909,685,1,7,_Guitar,6,2,_Guitar,0.3541937470436096,0
58,100,0.2590909090909091,123,1,8,_Guitar,6,4,_Guitar,0.9990230798721313,1
58,100,0.3181818181818182,440,1,8,_Guitar,6,5,_Guitar,0.3666347861289978,0
58,100,0.5409090909090909,752,1,8,_Guitar,6,9,_Guitar,0.4532819390296936,0
58,100,0.6181818181818182,185,1,9,_Guitar,6,10,_Guitar,0.9990229606628418,1
58,100,0.5,524,1,9,_Guitar,6,8,_Guitar,0.3666250705718994,0
58,100,0.18181818181818182,857,1,9,_Guitar,6,3,_Guitar,0.4532875418663025,0
58,100,0.1,25,1,10,_Guitar,6,2,_Guitar,0.9990230798721313,1
58,100,0.5227272727272727,290,1,10,_Guitar,6,8,_Guitar,0.3666200041770935,0
58,100,0.5,625,1,10,_Guitar,6,8,_Guitar,0.45328783988952637,0
58,100,0.11818181818181818,53,1,11,_Guitar,6,2,_Guitar,0.9990230798721313,1
58,100,0.6,374,1,11,_Guitar,6,10,_Guitar,0.3666243851184845,0
58,100,0.5590909090909091,682,1,11,_Guitar,6,9,_Guitar,0.45329445600509644,0
58,100,0.38181818181818183,792,1,12,_Guitar,6,6,_Guitar,0.9792567491531372,0
56,100,0.18181818181818182,135,1,13,_Guitar,6,3,_Guitar,0.9990057349205017,1
58,100,0.5772727272727273,216,0,13,_Guitar,6,9,_Guitar,0.2312053143978119,0
58,100,0.5181818181818182,550,1,13,_Guitar,6,8,_Guitar,0.2659130096435547,0
58,100,0.3409090909090909,871,1,13,_Guitar,6,5,_Guitar,0.35419782996177673,0
58,100,0.1,312,1,14,_Guitar,6,2,_Guitar,0.9990229606628418,1
58,100,0.21818181818181817,338,0,14,_Guitar,6,3,_Guitar,0.3666245937347412,0
58,100,0.2818181818181818,637,1,14,_Guitar,6,5,_Guitar,0.45328494906425476,0
63,100,0.18181818181818182,817,1,74,_Guitar,6,3,_Guitar,0.979256272315979,0
55,100,0.11818181818181818,457,1,75,_Guitar,6,2,_Guitar,0.9990057349205017,1
63,100,0.12272727272727273,597,0,75,_Guitar,6,2,_Guitar,0.23120445013046265,0
63,100,0.2818181818181818,637,0,75,_Guitar,6,5,_Guitar,0.2659194767475128,0
63,100,0.2409090909090909,729,0,75,_Guitar,6,4,_Guitar,0.3542093336582184,0
55,100,0.1,17,1,77,_Guitar,6,2,_Guitar,0.9988419413566589,1
63,100,0.8409090909090909,163,0,77,_Guitar,6,13,_Guitar,0.1372486650943756,0
63,100,0.18181818181818182,352,0,77,_Guitar,6,3,_Guitar,0.15978573262691498,0
56,100,0.2,669,1,77,_Guitar,6,3,_Guitar,0.1864631026983261,0
63,100,0.4,857,0,77,_Guitar,6,6,_Guitar,0.2581709921360016,0
56,100,0.2590909090909091,189,1,78,_Guitar,6,4,_Guitar,0.9990229606628418,1
55,100,0.1409090909090909,426,1,78,_Guitar,6,2,_Guitar,0.36662495136260986,0
58,100,0.3181818181818182,660,1,78,_Guitar,6,5,_Guitar,0.45328769087791443,0
58,100,0.1409090909090909,294,1,79,_Guitar,6,2,_Guitar,0.9988419413566589,1
58,100,0.2,360,0,79,_Guitar,6,3,_Guitar,0.13725067675113678,0
58,100,0.2,514,0,79,_Guitar,6,3,_Guitar,0.15978147089481354,0
74,100,0.4818181818181818,637,0,79,_Guitar,6,8,_Guitar,0.18644583225250244,0
74,100,0.3,747,0,79,_Guitar,6,5,_Guitar,0.25816941261291504,0
63,100,1.3,9,1,80,_Guitar,6,15,_Guitar,0.9990057349205017,1
58,100,0.12272727272727273,299,1,80,_Guitar,6,2,_Guitar,0.23122133314609528,0
63,100,0.6590909090909091,343,0,80,_Guitar,6,11,_Guitar,0.26592928171157837,0
53,100,1.7227272727272727,663,1,80,_Guitar,6,15,_Guitar,0.35419172048568726,0
63,100,0.2,527,1,81,_Guitar,6,3,_Guitar,0.9990229606628418,1
56,100,0.3181818181818182,743,0,81,_Guitar,6,5,_Guitar,0.3666360080242157,0
58,100,0.42272727272727273,826,0,81,_Guitar,6,7,_Guitar,0.45329979062080383,0
58,100,0.18181818181818182,56,1,82,_Guitar,6,3,_Guitar,0.9990057349205017,1
53,100,0.4,286,0,82,_Guitar,6,6,_Guitar,0.2312137335538864,0
68,100,0.35909090909090907,493,0,82,_Guitar,6,6,_Guitar,0.2659313976764679,0
68,100,0.5409090909090909,839,1,82,_Guitar,6,9,_Guitar,0.35418859124183655,0
82,100,0.1409090909090909,356,1,83,_Guitar,6,2,_Guitar,0.9990057349205017,1
58,100,0.18181818181818182,399,0,83,_Guitar,6,3,_Guitar,0.23120899498462677,0
55,100,0.1409090909090909,619,0,83,_Guitar,6,2,_Guitar,0.2659194767475128,0
55,100,0.11818181818181818,690,0,83,_Guitar,6,2,_Guitar,0.3541845679283142,0
58,100,0.21818181818181817,83,1,84,_Guitar,6,3,_Guitar,0.9988419413566589,1
58,100,0.6818181818181818,197,0,84,_Guitar,6,11,_Guitar,0.13724501430988312,0
55,100,0.2,373,0,84,_Guitar,6,3,_Guitar,0.15977367758750916,0
58,100,0.1409090909090909,422,0,84,_Guitar,6,2,_Guitar,0.1864417940378189,0
58,100,0.1,567,0,84,_Guitar,6,2,_Guitar,0.2581581175327301,0
58,100,0.18181818181818182,312,1,85,_Guitar,6,3,_Guitar,0.9990057349205017,1
58,100,0.3,462,0,85,_Guitar,6,5,_Guitar,0.2312072515487671,0
55,100,0.1590909090909091,536,0,85,_Guitar,6,3,_Guitar,0.2659212052822113,0
58,100,0.21818181818181817,703,0,85,_Guitar,6,3,_Guitar,0.35419121384620667,0
58,100,0.2590909090909091,74,1,86,_Guitar,6,4,_Guitar,0.9990057349205017,1
55,100,0.12272727272727273,509,1,86,_Guitar,6,2,_Guitar,0.23120085895061493,0
63,100,0.21818181818181817,550,0,86,_Guitar,6,3,_Guitar,0.26591044664382935,0
58,100,0.13636363636363635,876,1,86,_Guitar,6,2,_Guitar,0.35420042276382446,0
55,100,0.17727272727272728,119,1,87,_Guitar,6,3,_Guitar,0.9990230798721313,1
55,100,0.17727272727272728,184,0,87,_Guitar,6,3,_Guitar,0.3666260540485382,0
58,100,0.18181818181818182,399,0,87,_Guitar,6,3,_Guitar,0.4532865881919861,0
58,100,0.5,66,1,88,_Guitar,6,8,_Guitar,0.9986500144004822,1
62,100,0.21818181818181817,176,0,88,_Guitar,6,3,_Guitar,0.08780298382043839,0
58,100,0.2772727272727273,237,0,88,_Guitar,6,4,_Guitar,0.09181703627109528,0
58,100,0.1590909090909091,409,0,88,_Guitar,6,3,_Guitar,0.1074800193309784,0
55,100,0.12272727272727273,475,0,88,_Guitar,6,2,_Guitar,0.1248272955417633,0
58,100,0.2,650,0,88,_Guitar,6,3,_Guitar,0.17903396487236023,0
58,100,0.13636363636363635,106,1,89,_Guitar,6,2,_Guitar,0.9792563915252686,0
52,100,0.4818181818181818,730,1,0,DL_Guitar,6,8,DL_Guitar,0.9792566299438477,0
52,100,0.21818181818181817,105,1,1,DL_Guitar,6,3,DL_Guitar,0.9983004927635193,1
67,100,0.1409090909090909,175,0,1,DL_Guitar,6,2,DL_Guitar,0.044664058834314346,0
62,100,0.1409090909090909,276,0,1,DL_Guitar,6,2,DL_Guitar,0.03315024450421333,0
52,100,0.2590909090909091,348,0,1,DL_Guitar,6,4,DL_Guitar,0.02658054418861866,0
67,100,0.5181818181818182,414,0,1,DL_Guitar,6,8,DL_Guitar,0.0235958993434906,0
69,100,0.2636363636363636,597,0,1,DL_Guitar,6,4,DL_Guitar,0.024315694347023964,0
69,100,0.18181818181818182,686,0,1,DL_Guitar,6,3,DL_Guitar,0.029690833762288094,0
52,100,0.11818181818181818,744,0,1,DL_Guitar,6,2,DL_Guitar,0.040079690515995026,0
59,100,0.32272727272727275,849,0,1,DL_Guitar,6,5,DL_Guitar,0.0709305927157402,0
69,100,0.1409090909090909,185,1,2,DL_Guitar,6,2,DL_Guitar,0.9983004927635193,1
59,100,0.3,229,0,2,DL_Guitar,6,5,DL_Guitar,0.04466501623392105,0
74,100,0.1,299,0,2,DL_Guitar,6,2,DL_Guitar,0.033151064068078995,0
57,100,0.2818181818181818,488,0,2,DL_Guitar,6,5,DL_Guitar,0.026581136509776115,0
67,100,0.1409090909090909,571,0,2,DL_Guitar,6,2,DL_Guitar,0.023596717044711113,0
69,100,0.37727272727272726,602,0,2,DL_Guitar,6,6,DL_Guitar,0.024315964430570602,0
55,100,0.11818181818181818,721,0,2,DL_Guitar,6,2,DL_Guitar,0.029692498967051506,0
67,100,0.2409090909090909,748,0,2,DL_Guitar,6,4,DL_Guitar,0.040077872574329376,0
67,100,0.1,831,0,2,DL_Guitar,6,2,DL_Guitar,0.07093127071857452,0
64,100,0.11818181818181818,373,1,3,DL_Guitar,6,2,DL_Guitar,0.9986500144004822,1
67,100,0.2818181818181818,443,0,3,DL_Guitar,6,5,DL_Guitar,0.08780840784311295,0
64,100,0.1,629,0,3,DL_Guitar,6,2,DL_Guitar,0.09181959182024002,0
52,100,0.1409090909090909,651,0,3,DL_Guitar,6,2,DL_Guitar,0.10748644918203354,0
67,100,0.5181818181818182,700,0,3,DL_Guitar,6,8,DL_Guitar,0.12483485788106918,0
69,100,0.5,831,0,3,DL_Guitar,6,8,DL_Guitar,0.17903971672058105,0
59,100,0.759090909090909,163,1,4,DL_Guitar,6,12,DL_Guitar,0.9988419413566589,1
74,100,0.2,348,0,4,DL_Guitar,6,3,DL_Guitar,0.1372523456811905,0
69,100,0.1590909090909091,462,0,4,DL_Guitar,6,3,DL_Guitar,0.15978215634822845,0
59,100,0.3409090909090909,514,0,4,DL_Guitar,6,5,DL_Guitar,0.18645398318767548,0
62,100,0.11818181818181818,757,1,4,DL_Guitar,6,2,DL_Guitar,0.2581709921360016,0
62,100,0.3409090909090909,122,1,5,DL_Guitar,6,5,DL_Guitar,0.9990057349205017,1
55,100,0.3409090909090909,263,0,5,DL_Guitar,6,5,DL_Guitar,0.23121455311775208,0
55,100,0.3409090909090909,360,0,5,DL_Guitar,6,5,DL_Guitar,0.26592516899108887,0
55,100,0.4818181818181818,496,0,5,DL_Guitar,6,8,DL_Guitar,0.3541887700557709,0
56,100,0.35909090909090907,0,1,6,DL_Guitar,6,6,DL_Guitar,0.9990057349205017,1
56,100,0.12272727272727273,245,1,6,DL_Guitar,6,2,DL_Guitar,0.2312091439962387,0
52,100,0.18181818181818182,452,0,6,DL_Guitar,6,3,DL_Guitar,0.26593202352523804,0
57,100,0.759090909090909,651,0,6,DL_Guitar,6,12,DL_Guitar,0.3541949689388275,0
59,100,0.17727272727272728,470,1,7,DL_Guitar,6,3,DL_Guitar,0.9990229606628418,1
62,100,0.11818181818181818,603,0,7,DL_Guitar,6,2,DL_Guitar,0.36662060022354126,0
55,100,0.2,774,0,7,DL_Guitar,6,3,DL_Guitar,0.45330309867858887,0
64,100,0.1409090909090909,48,1,8,DL_Guitar,6,2,DL_Guitar,0.9990229606628418,1
60,100,0.2,79,0,8,DL_Guitar,6,3,DL_Guitar,0.36662557721138,0
55,100,0.3181818181818182,405,1,8,DL_Guitar,6,5,DL_Guitar,0.4532877206802368,0
59,100,0.21818181818181817,747,1,9,DL_Guitar,6,3,DL_Guitar,0.9792561531066895,0
59,100,0.4590909090909091,185,1,10,DL_Guitar,6,7,DL_Guitar,0.9988419413566589,1
64,100,0.32272727272727275,378,0,10,DL_Guitar,6,5,DL_Guitar,0.1372460275888443,0
59,100,0.4,567,0,10,DL_Guitar,6,6,DL_Guitar,0.15977831184864044,0
59,100,0.5363636363636364,699,0,10,DL_Guitar,6,9,DL_Guitar,0.18645410239696503,0
67,100,0.11818181818181818,845,0,10,DL_Guitar,6,2,DL_Guitar,0.25816255807876587,0
59,100,0.2409090909090909,13,1,11,DL_Guitar,6,4,DL_Guitar,0.9984880685806274,1
57,100,0.17727272727272728,414,1,11,DL_Guitar,6,3,DL_Guitar,0.06334670633077621,0
57,100,0.12272727272727273,474,0,11,DL_Guitar,6,2,DL_Guitar,0.05774318799376488,0
67,100,0.11818181818181818,704,0,11,DL_Guitar,6,2,DL_Guitar,0.06020653247833252,0
55,100,0.12272727272727273,730,0,11,DL_Guitar,6,2,DL_Guitar,0.06970593333244324,0
67,100,0.3,756,0,11,DL_Guitar,6,5,DL_Guitar,0.08189886808395386,0
59,100,0.1409090909090909,871,0,11,DL_Guitar,6,2,DL_Guitar,0.12402434647083282,0
59,100,0.22272727272727272,25,1,12,DL_Guitar,6,4,DL_Guitar,0.9988419413566589,1
55,100,0.2409090909090909,92,0,12,DL_Guitar,6,4,DL_Guitar,0.13724744319915771,0
55,100,0.2409090909090909,163,0,12,DL_Guitar,6,4,DL_Guitar,0.1597748100757599,0
60,100,0.1,682,1,12,DL_Guitar,6,2,DL_Guitar,0.18645113706588745,0
55,100,0.2818181818181818,795,0,12,DL_Guitar,6,5,DL_Guitar,0.25815603137016296,0
55,100,0.16363636363636364,3,1,13,DL_Guitar,6,3,DL_Guitar,0.9990229606628418,1
60,100,0.1,202,0,13,DL_Guitar,6,2,DL_Guitar,0.3666219413280487,0
55,100,0.1,391,0,13,DL_Guitar,6,2,DL_Guitar,0.4532814025878906,0
55,100,0.2590909090909091,194,1,14,DL_Guitar,6,4,DL_Guitar,0.9990229606628418,1
57,100,0.2409090909090909,409,0,14,DL_Guitar,6,4,DL_Guitar,0.36661842465400696,0
62,100,0.37727272727272726,809,1,14,DL_Guitar,6,6,DL_Guitar,0.45329350233078003,0
55,100,0.21818181818181817,220,1,15,DL_Guitar,6,3,DL_Guitar,0.979256272315979,0
62,100,0.23636363636363636,281,1,16,DL_Guitar,6,4,DL_Guitar,0.9988419413566589,1
56,100,0.17727272727272728,492,0,16,DL_Guitar,6,3,DL_Guitar,0.13724961876869202,0
55,100,0.2590909090909091,550,0,16,DL_Guitar,6,4,DL_Guitar,0.15978215634822845,0
55,100,0.21818181818181817,611,0,16,DL_Guitar,6,3,DL_Guitar,0.18645232915878296,0
55,100,0.5636363636363636,796,0,16,DL_Guitar,6,9,DL_Guitar,0.2581641376018524,0
52,100,0.22272727272727272,48,1,17,DL_Guitar,6,4,DL_Guitar,0.9986500144004822,1
52,100,0.1409090909090909,246,0,17,DL_Guitar,6,2,DL_Guitar,0.08780553191900253,0
57,100,0.1,430,0,17,DL_Guitar,6,2,DL_Guitar,0.09181800484657288,0
81,100,0.1590909090909091,515,0,17,DL_Guitar,6,3,DL_Guitar,0.10748650133609772,0
57,100,0.22272727272727272,729,0,17,DL_Guitar,6,4,DL_Guitar,0.12483576685190201,0
57,100,0.5181818181818182,814,0,17,DL_Guitar,6,8,DL_Guitar,0.1790393888950348,0
62,100,0.1590909090909091,409,1,19,DL_Guitar,6,3,DL_Guitar,0.9990229606628418,1
59,100,0.5181818181818182,602,0,19,DL_Guitar,6,8,DL_Guitar,0.36662817001342773,0
62,100,0.21818181818181817,858,1,19,DL_Guitar,6,3,DL_Guitar,0.45329347252845764,0
59,100,0.2409090909090909,48,1,20,DL_Guitar,6,4,DL_Guitar,0.9986500144004822,1
62,100,0.5409090909090909,229,0,20,DL_Guitar,6,9,DL_Guitar,0.08780430257320404,0
62,100,0.11818181818181818,370,0,20,DL_Guitar,6,2,DL_Guitar,0.09181935340166092,0
62,100,0.11818181818181818,436,0,20,DL_Guitar,6,2,DL_Guitar,0.10748457908630371,0
62,100,0.22272727272727272,739,1,20,DL_Guitar,6,4,DL_Guitar,0.12483759224414825,0
62,100,0.7227272727272728,870,0,20,DL_Guitar,6,12,DL_Guitar,0.17904919385910034,0
57,100,0.11818181818181818,150,1,21,DL_Guitar,6,2,DL_Guitar,0.9990057349205017,1
62,100,0.11818181818181818,175,0,21,DL_Guitar,6,2,DL_Guitar,0.23120766878128052,0
62,100,0.2,501,1,21,DL_Guitar,6,3,DL_Guitar,0.26592445373535156,0
62,100,0.13636363636363635,567,0,21,DL_Guitar,6,2,DL_Guitar,0.3542064130306244,0
60,100,0.1590909090909091,237,1,22,DL_Guitar,6,3,DL_Guitar,0.9990057349205017,1
60,100,0.12272727272727273,312,0,22,DL_Guitar,6,2,DL_Guitar,0.23120161890983582,0
60,100,0.3409090909090909,443,0,22,DL_Guitar,6,5,DL_Guitar,0.26592499017715454,0
55,100,0.1590909090909091,646,0,22,DL_Guitar,6,3,DL_Guitar,0.3541888892650604,0
59,100,0.12272727272727273,158,1,23,DL_Guitar,6,2,DL_Guitar,0.9983003735542297,1
59,100,0.4590909090909091,250,0,23,DL_Guitar,6,7,DL_Guitar,0.0446632094681263,0
59,100,0.1409090909090909,430,0,23,DL_Guitar,6,2,DL_Guitar,0.03314923867583275,0
59,100,0.17727272727272728,492,0,23,DL_Guitar,6,3,DL_Guitar,0.026579156517982483,0
59,100,0.2590909090909091,571,0,23,DL_Guitar,6,4,DL_Guitar,0.023594597354531288,0
59,100,0.2,633,0,23,DL_Guitar,6,3,DL_Guitar,0.024314744397997856,0
59,100,0.5,681,0,23,DL_Guitar,6,8,DL_Guitar,0.02968939207494259,0
59,100,0.1409090909090909,801,0,23,DL_Guitar,6,2,DL_Guitar,0.040077175945043564,0
59,100,0.2,862,0,23,DL_Guitar,6,3,DL_Guitar,0.07093095779418945,0
64,100,0.1590909090909091,44,1,24,DL_Guitar,6,3,DL_Guitar,0.9986500144004822,1
59,100,0.8363636363636363,127,0,24,DL_Guitar,6,13,DL_Guitar,0.08780086785554886,0
52,100,0.3,320,0,24,DL_Guitar,6,5,DL_Guitar,0.091816246509552,0
59,100,0.17727272727272728,413,0,24,DL_Guitar,6,3,DL_Guitar,0.10747959464788437,0
59,100,0.9,567,0,24,DL_Guitar,6,14,DL_Guitar,0.1248275488615036,0
59,100,0.3409090909090909,801,1,24,DL_Guitar,6,5,DL_Guitar,0.17903561890125275,0
59,100,0.2,281,1,25,DL_Guitar,6,3,DL_Guitar,0.9986500144004822,1
59,100,0.17727272727272728,413,0,25,DL_Guitar,6,3,DL_Guitar,0.08780262619256973,0
62,100,0.2590909090909091,567,0,25,DL_Guitar,6,4,DL_Guitar,0.09181344509124756,0
59,100,0.5772727272727273,625,0,25,DL_Guitar,6,9,DL_Guitar,0.10747934132814407,0
62,100,0.3,756,0,25,DL_Guitar,6,5,DL_Guitar,0.1248294934630394,0
59,100,0.16363636363636364,862,0,25,DL_Guitar,6,3,DL_Guitar,0.17903867363929749,0
60,100,0.2409090909090909,387,1,26,DL_Guitar,6,4,DL_Guitar,0.9988419413566589,1
60,100,0.4,480,0,26,DL_Guitar,6,6,DL_Guitar,0.13724835216999054,0
55,100,0.22272727272727272,584,0,26,DL_Guitar,6,4,DL_Guitar,0.15977734327316284,0
60,100,0.1590909090909091,760,0,26,DL_Guitar,6,3,DL_Guitar,0.1864514946937561,0
60,100,0.2,839,0,26,DL_Guitar,6,3,DL_Guitar,0.25816524028778076,0
60,100,0.740909090909091,57,1,27,DL_Guitar,6,12,DL_Guitar,0.9988419413566589,1
55,100,0.11818181818181818,250,0,27,DL_Guitar,6,2,DL_Guitar,0.1372498869895935,0
60,100,0.1590909090909091,285,0,27,DL_Guitar,6,3,DL_Guitar,0.15978126227855682,0
57,100,0.1590909090909091,735,1,27,DL_Guitar,6,3,DL_Guitar,0.1864490807056427,0
57,100,0.35909090909090907,835,0,27,DL_Guitar,6,6,DL_Guitar,0.25816476345062256,0
62,100,0.2409090909090909,44,1,28,DL_Guitar,6,4,DL_Guitar,0.9988419413566589,1
62,100,0.4409090909090909,131,0,28,DL_Guitar,6,7,DL_Guitar,0.1372555047273636,0
57,100,0.5590909090909091,360,0,28,DL_Guitar,6,9,DL_Guitar,0.15978321433067322,0
57,100,0.17727272727272728,515,0,28,DL_Guitar,6,3,DL_Guitar,0.18646270036697388,0
62,100,0.740909090909091,725,0,28,DL_Guitar,6,12,DL_Guitar,0.25817304849624634,0
62,100,0.11818181818181818,40,1,29,DL_Guitar,6,2,DL_Guitar,0.9983736276626587,1
59,100,0.17727272727272728,75,0,29,DL_Guitar,6,3,DL_Guitar,0.05106149986386299,0
62,100,0.42272727272727273,202,0,29,DL_Guitar,6,7,DL_Guitar,0.04130466282367706,0
55,100,0.5409090909090909,382,0,29,DL_Guitar,6,9,DL_Guitar,0.03738727048039436,0
59,100,0.11818181818181818,523,0,29,DL_Guitar,6,2,DL_Guitar,0.038331497460603714,0
62,100,0.23636363636363636,567,0,29,DL_Guitar,6,4,DL_Guitar,0.04475479573011398,0
62,100,0.3409090909090909,629,0,29,DL_Guitar,6,5,DL_Guitar,0.05523356422781944,0
57,100,0.6181818181818182,756,0,29,DL_Guitar,6,10,DL_Guitar,0.09026896953582764,0
57,100,0.5590909090909091,144,1,30,DL_Guitar,6,9,DL_Guitar,0.9990057349205017,1
57,100,0.37727272727272726,339,0,30,DL_Guitar,6,6,DL_Guitar,0.23120872676372528,0
62,100,0.2409090909090909,422,0,30,DL_Guitar,6,4,DL_Guitar,0.2659296691417694,0
57,100,0.6181818181818182,660,1,30,DL_Guitar,6,10,DL_Guitar,0.35419633984565735,0
57,100,0.4636363636363636,48,1,31,DL_Guitar,6,7,DL_Guitar,0.9986500144004822,1
57,100,0.2409090909090909,223,0,31,DL_Guitar,6,4,DL_Guitar,0.0878058522939682,0
57,100,0.6409090909090909,285,0,31,DL_Guitar,6,10,DL_Guitar,0.09181755781173706,0
57,100,0.3,474,0,31,DL_Guitar,6,5,DL_Guitar,0.1074831634759903,0
57,100,0.12272727272727273,629,0,31,DL_Guitar,6,2,DL_Guitar,0.12483419477939606,0
57,100,0.5181818181818182,810,0,31,DL_Guitar,6,8,DL_Guitar,0.17903608083724976,0
57,100,0.1409090909090909,48,1,32,DL_Guitar,6,2,DL_Guitar,0.9983736276626587,1
57,100,0.2,114,0,32,DL_Guitar,6,3,DL_Guitar,0.05106208845973015,0
59,100,0.22272727272727272,246,0,32,DL_Guitar,6,4,DL_Guitar,0.04130353033542633,0
59,100,0.11818181818181818,316,0,32,DL_Guitar,6,2,DL_Guitar,0.03738706186413765,0
59,100,0.3,361,0,32,DL_Guitar,6,5,DL_Guitar,0.03833024203777313,0
62,100,0.11818181818181818,590,0,32,DL_Guitar,6,2,DL_Guitar,0.04475264996290207,0
57,100,0.18181818181818182,641,0,32,DL_Guitar,6,3,DL_Guitar,0.05522980913519859,0
55,100,0.21818181818181817,691,0,32,DL_Guitar,6,3,DL_Guitar,0.09026799350976944,0
55,100,0.1409090909090909,21,1,33,DL_Guitar,6,2,DL_Guitar,0.9986500144004822,1
59,100,0.11818181818181818,131,0,33,DL_Guitar,6,2,DL_Guitar,0.08780205249786377,0
57,100,0.3,241,0,33,DL_Guitar,6,5,DL_Guitar,0.091812364757061,0
60,100,0.35909090909090907,581,1,33,DL_Guitar,6,6,DL_Guitar,0.10747640579938889,0
60,100,0.2636363636363636,708,0,33,DL_Guitar,6,4,DL_Guitar,0.1248253807425499,0
59,100,0.2,778,0,33,DL_Guitar,6,3,DL_Guitar,0.17903128266334534,0
65,100,0.11818181818181818,435,1,34,DL_Guitar,6,2,DL_Guitar,0.979256272315979,0
62,100,0.2772727272727273,31,1,35,DL_Guitar,6,4,DL_Guitar,0.9988419413566589,1
52,100,0.38181818181818183,110,0,35,DL_Guitar,6,6,DL_Guitar,0.13725195825099945,0
52,100,0.21818181818181817,251,0,35,DL_Guitar,6,3,DL_Guitar,0.15978358685970306,0
59,100,0.6409090909090909,466,0,35,DL_Guitar,6,10,DL_Guitar,0.1864573210477829,0
57,100,1.059090909090909,628,0,35,DL_Guitar,6,15,DL_Guitar,0.2581670582294464,0
52,100,0.2409090909090909,4,1,36,DL_Guitar,6,4,DL_Guitar,0.9990230798721313,1
57,100,0.9818181818181818,110,0,36,DL_Guitar,6,15,DL_Guitar,0.36661937832832336,0
59,100,0.5,761,1,36,DL_Guitar,6,8,DL_Guitar,0.4532911479473114,0
67,100,0.2590909090909091,13,1,37,DL_Guitar,6,4,DL_Guitar,0.9984880685806274,1
55,100,0.22272727272727272,78,0,37,DL_Guitar,6,4,DL_Guitar,0.06334533542394638,0
62,100,0.2,131,0,37,DL_Guitar,6,3,DL_Guitar,0.05774197354912758,0
64,100,0.38181818181818183,179,0,37,DL_Guitar,6,6,DL_Guitar,0.06020228937268257,0
64,100,0.35909090909090907,435,1,37,DL_Guitar,6,6,DL_Guitar,0.06970304995775223,0
67,100,0.1,531,0,37,DL_Guitar,6,2,DL_Guitar,0.08189617097377777,0
55,100,0.21818181818181817,655,0,37,DL_Guitar,6,3,DL_Guitar,0.12402113527059555,0
71,100,0.37727272727272726,53,1,38,DL_Guitar,6,6,DL_Guitar,0.9983736276626587,1
55,100,0.11818181818181818,150,0,38,DL_Guitar,6,2,DL_Guitar,0.051060810685157776,0
62,100,0.18181818181818182,220,0,38,DL_Guitar,6,3,DL_Guitar,0.041302964091300964,0
69,100,0.17727272727272728,281,0,38,DL_Guitar,6,3,DL_Guitar,0.037386614829301834,0
71,100,0.18181818181818182,334,0,38,DL_Guitar,6,3,DL_Guitar,0.038330934941768646,0
74,100,0.3,396,0,38,DL_Guitar,6,5,DL_Guitar,0.04475441202521324,0
69,100,0.22272727272727272,563,0,38,DL_Guitar,6,4,DL_Guitar,0.05523109808564186,0
69,100,0.18181818181818182,616,0,38,DL_Guitar,6,3,DL_Guitar,0.090269073843956,0
62,100,0.2,131,1,39,DL_Guitar,6,3,DL_Guitar,0.9984880685806274,1
67,100,0.2,303,0,39,DL_Guitar,6,3,DL_Guitar,0.0633465051651001,0
55,100,0.3181818181818182,348,0,39,DL_Guitar,6,5,DL_Guitar,0.05774416774511337,0
62,100,0.1590909090909091,435,0,39,DL_Guitar,6,3,DL_Guitar,0.06020355224609375,0
64,100,0.35909090909090907,474,0,39,DL_Guitar,6,6,DL_Guitar,0.06970452517271042,0
67,100,0.21818181818181817,558,0,39,DL_Guitar,6,3,DL_Guitar,0.08189649879932404,0
64,100,0.3,738,0,39,DL_Guitar,6,5,DL_Guitar,0.12402673810720444,0
64,100,0.2,88,1,40,DL_Guitar,6,3,DL_Guitar,0.9984880685806274,1
64,100,0.16363636363636364,136,0,40,DL_Guitar,6,3,DL_Guitar,0.06334611028432846,0
55,100,0.1,201,0,40,DL_Guitar,6,2,DL_Guitar,0.05774705484509468,0
69,100,0.2590909090909091,563,1,40,DL_Guitar,6,4,DL_Guitar,0.060203779488801956,0
59,100,0.1409090909090909,646,0,40,DL_Guitar,6,2,DL_Guitar,0.06970687210559845,0
74,100,0.2818181818181818,694,0,40,DL_Guitar,6,5,DL_Guitar,0.08190015703439713,0
69,100,0.6181818181818182,858,0,40,DL_Guitar,6,10,DL_Guitar,0.12401934713125229,0
62,100,0.5590909090909091,321,1,41,DL_Guitar,6,9,DL_Guitar,0.9990057349205017,1
55,100,0.2,584,1,41,DL_Guitar,6,3,DL_Guitar,0.23120731115341187,0
59,100,0.5590909090909091,713,0,41,DL_Guitar,6,9,DL_Guitar,0.26593074202537537,0
55,100,0.2,839,0,41,DL_Guitar,6,3,DL_Guitar,0.3541942834854126,0
55,100,0.2,101,1,42,DL_Guitar,6,3,DL_Guitar,0.9984880685806274,1
55,100,0.1590909090909091,150,0,42,DL_Guitar,6,3,DL_Guitar,0.06334557384252548,0
55,100,0.3409090909090909,201,0,42,DL_Guitar,6,5,DL_Guitar,0.057742565870285034,0
59,100,0.6409090909090909,351,0,42,DL_Guitar,6,10,DL_Guitar,0.06020118296146393,0
55,100,0.2772727272727273,515,0,42,DL_Guitar,6,4,DL_Guitar,0.06970382481813431,0
57,100,1.1409090909090909,606,0,42,DL_Guitar,6,15,DL_Guitar,0.0818934515118599,0
64,100,1.1409090909090909,871,1,42,DL_Guitar,6,15,DL_Guitar,0.12402475625276566,0
57,100,0.1409090909090909,241,1,43,DL_Guitar,6,2,DL_Guitar,0.9986500144004822,1
81,100,0.3181818181818182,273,0,43,DL_Guitar,6,5,DL_Guitar,0.08780483901500702,0
57,100,0.3,413,0,43,DL_Guitar,6,5,DL_Guitar,0.09181807935237885,0
57,100,0.16363636363636364,509,0,43,DL_Guitar,6,3,DL_Guitar,0.10748504102230072,0
55,100,0.6,611,0,43,DL_Guitar,6,10,DL_Guitar,0.1248306855559349,0
60,100,0.1590909090909091,875,1,43,DL_Guitar,6,3,DL_Guitar,0.17904068529605865,0
60,100,0.5590909090909091,61,1,44,DL_Guitar,6,9,DL_Guitar,0.9988419413566589,1
60,100,0.16363636363636364,224,0,44,DL_Guitar,6,3,DL_Guitar,0.1372501105070114,0
62,100,0.33636363636363636,348,0,44,DL_Guitar,6,5,DL_Guitar,0.15978027880191803,0
60,100,0.5590909090909091,496,0,44,DL_Guitar,6,9,DL_Guitar,0.18644964694976807,0
74,100,0.35909090909090907,660,0,44,DL_Guitar,6,6,DL_Guitar,0.258168488740921,0
60,100,0.12272727272727273,69,1,51,DL_Guitar,6,2,DL_Guitar,0.9792566299438477,1
62,100,0.1,361,1,52,DL_Guitar,6,2,DL_Guitar,0.9792560338973999,0
60,100,0.38181818181818183,311,1,53,DL_Guitar,6,6,DL_Guitar,0.9990230798721313,1
60,100,1.1409090909090909,471,0,53,DL_Guitar,6,15,DL_Guitar,0.36661675572395325,0
60,100,0.2,861,1,53,DL_Guitar,6,3,DL_Guitar,0.453298419713974,0
60,100,0.4772727272727273,53,1,54,DL_Guitar,6,8,DL_Guitar,0.9990229606628418,1
59,100,0.16363636363636364,224,0,54,DL_Guitar,6,3,DL_Guitar,0.36662235856056213,0
59,100,0.11818181818181818,743,1,54,DL_Guitar,6,2,DL_Guitar,0.4532921314239502,0
62,100,0.2590909090909091,123,1,57,DL_Guitar,6,4,DL_Guitar,0.9792560338973999,0
59,100,0.2636363636363636,114,1,63,DL_Guitar,6,4,DL_Guitar,0.9983165264129639,1
58,100,0.13636363636363635,501,1,63,DL_Guitar,6,2,DL_Guitar,0.5445581078529358,0
59,100,0.1,360,1,65,DL_Guitar,6,2,DL_Guitar,0.9988419413566589,1
59,100,0.1,386,0,65,DL_Guitar,6,2,DL_Guitar,0.13725027441978455,0
59,100,0.2636363636363636,422,0,65,DL_Guitar,6,4,DL_Guitar,0.15977659821510315,0
59,100,0.4409090909090909,506,0,65,DL_Guitar,6,7,DL_Guitar,0.18644832074642181,0
59,100,0.5409090909090909,624,0,65,DL_Guitar,6,9,DL_Guitar,0.2581633925437927,0
57,100,0.41818181818181815,9,1,66,DL_Guitar,6,7,DL_Guitar,0.9792558550834656,0
59,100,0.2409090909090909,443,1,77,DL_Guitar,6,4,DL_Guitar,0.9983165264129639,1
57,100,0.23636363636363636,700,1,77,DL_Guitar,6,4,DL_Guitar,0.5445587038993835,0
57,100,0.2409090909090909,0,1,78,DL_Guitar,6,4,DL_Guitar,0.9988419413566589,1
57,100,0.1,83,0,78,DL_Guitar,6,2,DL_Guitar,0.13725024461746216,0
57,100,0.22272727272727272,145,0,78,DL_Guitar,6,4,DL_Guitar,0.15977753698825836,0
57,100,0.11818181818181818,294,0,78,DL_Guitar,6,2,DL_Guitar,0.18645070493221283,0
59,100,0.1,360,0,78,DL_Guitar,6,2,DL_Guitar,0.25817230343818665,0
62,100,0.2818181818181818,0,1,94,DL_Guitar,6,5,DL_Guitar,0.9982553124427795,1
62,100,0.11818181818181818,110,0,94,DL_Guitar,6,2,DL_Guitar,0.04128851741552353,0
62,100,0.1409090909090909,229,0,94,DL_Guitar,6,2,DL_Guitar,0.028935404494404793,0
64,100,0.35909090909090907,260,0,94,DL_Guitar,6,6,DL_Guitar,0.021289777010679245,0
55,100,0.17727272727272728,347,0,94,DL_Guitar,6,3,DL_Guitar,0.016746319830417633,0
62,100,0.21818181818181817,413,0,94,DL_Guitar,6,3,DL_Guitar,0.014919392764568329,0
62,100,0.13636363636363635,480,0,94,DL_Guitar,6,2,DL_Guitar,0.016017133370041847,0
64,100,0.3409090909090909,514,0,94,DL_Guitar,6,5,DL_Guitar,0.02118057571351528,0
67,100,0.5590909090909091,590,0,94,DL_Guitar,6,9,DL_Guitar,0.03156775236129761,0
66,100,0.13636363636363635,876,1,94,DL_Guitar,6,2,DL_Guitar,0.060062654316425323,0
71,100,0.3,47,1,95,DL_Guitar,6,5,DL_Guitar,0.9984880685806274,1
71,100,0.3,150,0,95,DL_Guitar,6,5,DL_Guitar,0.06334588676691055,0
66,100,0.2,233,0,95,DL_Guitar,6,3,DL_Guitar,0.05774284526705742,0
62,100,0.1,307,0,95,DL_Guitar,6,2,DL_Guitar,0.06020241975784302,0
71,100,0.17727272727272728,413,0,95,DL_Guitar,6,3,DL_Guitar,0.06970574706792831,0
69,100,0.22272727272727272,805,1,95,DL_Guitar,6,4,DL_Guitar,0.08189850300550461,0
67,100,1.259090909090909,876,0,95,DL_Guitar,6,15,DL_Guitar,0.12402264773845673,0
62,100,0.12272727272727273,365,1,96,DL_Guitar,6,2,DL_Guitar,0.9984880685806274,1
64,100,0.13636363636363635,392,0,96,DL_Guitar,6,2,DL_Guitar,0.06334667652845383,0
62,100,0.1409090909090909,506,0,96,DL_Guitar,6,2,DL_Guitar,0.057743754237890244,0
64,100,0.38181818181818183,540,0,96,DL_Guitar,6,6,DL_Guitar,0.06020470708608627,0
62,100,0.11818181818181818,726,0,96,DL_Guitar,6,2,DL_Guitar,0.06970405578613281,0
62,100,0.17727272727272728,756,0,96,DL_Guitar,6,3,DL_Guitar,0.0818992555141449,0
64,100,0.3409090909090909,796,0,96,DL_Guitar,6,5,DL_Guitar,0.12402757257223129,0
67,100,0.5818181818181818,0,1,97,DL_Guitar,6,9,DL_Guitar,0.9986500144004822,1
69,100,0.21818181818181817,132,0,97,DL_Guitar,6,3,DL_Guitar,0.08780457079410553,0
71,100,0.8,330,0,97,DL_Guitar,6,13,DL_Guitar,0.09181343019008636,0
66,100,0.1,536,0,97,DL_Guitar,6,2,DL_Guitar,0.1074787825345993,0
62,100,0.2590909090909091,567,0,97,DL_Guitar,6,4,DL_Guitar,0.1248251274228096,0
69,100,0.1409090909090909,650,0,97,DL_Guitar,6,2,DL_Guitar,0.1790340393781662,0
69,100,0.18181818181818182,233,1,98,DL_Guitar,6,3,DL_Guitar,0.9983165264129639,1
67,100,0.12272727272727273,399,0,98,DL_Guitar,6,2,DL_Guitar,0.5445585250854492,0
70,100,0.11818181818181818,304,1,1,_Remix_Guitar,6,2,_Remix_Guitar,0.9990229606628418,1
58,100,0.2818181818181818,421,0,1,_Remix_Guitar,6,5,_Remix_Guitar,0.3666279911994934,0
63,100,0.1590909090909091,673,1,1,_Remix_Guitar,6,3,_Remix_Guitar,0.45328962802886963,0
70,100,0.1409090909090909,12,1,2,_Remix_Guitar,6,2,_Remix_Guitar,0.9986500144004822,1
58,100,0.2590909090909091,57,0,2,_Remix_Guitar,6,4,_Remix_Guitar,0.08780193328857422,0
63,100,0.18181818181818182,443,1,2,_Remix_Guitar,6,3,_Remix_Guitar,0.09181418269872665,0
63,100,0.3409090909090909,488,0,2,_Remix_Guitar,6,5,_Remix_Guitar,0.10747616738080978,0
58,100,0.2772727272727273,568,0,2,_Remix_Guitar,6,4,_Remix_Guitar,0.12482786178588867,0
62,100,0.1409090909090909,845,1,2,_Remix_Guitar,6,2,_Remix_Guitar,0.1790311336517334,0
58,100,0.23636363636363636,216,1,3,_Remix_Guitar,6,4,_Remix_Guitar,0.9983165264129639,1
63,100,0.21818181818181817,461,1,3,_Remix_Guitar,6,3,_Remix_Guitar,0.5445574522018433,0
63,100,0.22272727272727272,114,1,4,_Remix_Guitar,6,4,_Remix_Guitar,0.9988419413566589,1
63,100,0.41818181818181815,184,0,4,_Remix_Guitar,6,7,_Remix_Guitar,0.1372537463903427,0
58,100,0.2590909090909091,348,0,4,_Remix_Guitar,6,4,_Remix_Guitar,0.15979012846946716,0
63,100,0.5409090909090909,629,1,4,_Remix_Guitar,6,9,_Remix_Guitar,0.18645693361759186,0
63,100,0.2818181818181818,862,1,4,_Remix_Guitar,6,5,_Remix_Guitar,0.2581827938556671,0
58,100,0.18181818181818182,409,1,5,_Remix_Guitar,6,3,_Remix_Guitar,0.9983165264129639,1
63,100,0.2590909090909091,867,1,5,_Remix_Guitar,6,4,_Remix_Guitar,0.5445535778999329,0
56,100,0.38181818181818183,201,1,6,_Remix_Guitar,6,6,_Remix_Guitar,0.9990229606628418,1
63,100,0.7181818181818181,396,0,6,_Remix_Guitar,6,11,_Remix_Guitar,0.3666110634803772,0
70,100,0.22272727272727272,739,1,6,_Remix_Guitar,6,4,_Remix_Guitar,0.4532954692840576,0
63,100,0.1409090909090909,8,1,7,_Remix_Guitar,6,2,_Remix_Guitar,0.9990229606628418,1
63,100,0.1,220,0,7,_Remix_Guitar,6,2,_Remix_Guitar,0.3666268289089203,0
62,100,0.1,629,1,7,_Remix_Guitar,6,2,_Remix_Guitar,0.45330026745796204,0
63,100,0.2636363636363636,422,1,8,_Remix_Guitar,6,4,_Remix_Guitar,0.9990229606628418,1
56,100,0.35909090909090907,505,0,8,_Remix_Guitar,6,6,_Remix_Guitar,0.36662065982818604,0
63,100,0.2772727272727273,744,1,8,_Remix_Guitar,6,4,_Remix_Guitar,0.45329126715660095,0
63,100,0.13636363636363635,17,1,9,_Remix_Guitar,6,2,_Remix_Guitar,0.9983165264129639,1
63,100,0.38181818181818183,637,1,9,_Remix_Guitar,6,6,_Remix_Guitar,0.544559121131897,0
63,100,0.23636363636363636,39,1,10,_Remix_Guitar,6,4,_Remix_Guitar,0.9988419413566589,1
58,100,0.1,211,0,10,_Remix_Guitar,6,2,_Remix_Guitar,0.13725145161151886,0
58,100,0.32272727272727275,584,1,10,_Remix_Guitar,6,5,_Remix_Guitar,0.15978646278381348,0
58,100,0.22272727272727272,716,0,10,_Remix_Guitar,6,4,_Remix_Guitar,0.18645529448986053,0
56,100,0.4772727272727273,787,0,10,_Remix_Guitar,6,8,_Remix_Guitar,0.2581755816936493,0
56,100,0.1590909090909091,30,1,11,_Remix_Guitar,6,3,_Remix_Guitar,0.9986500144004822,1
58,100,0.2590909090909091,343,1,11,_Remix_Guitar,6,4,_Remix_Guitar,0.0878022089600563,0
63,100,0.1,642,1,11,_Remix_Guitar,6,2,_Remix_Guitar,0.09181112051010132,0
58,100,0.18181818181818182,739,0,11,_Remix_Guitar,6,3,_Remix_Guitar,0.10747717320919037,0
58,100,0.1,795,0,11,_Remix_Guitar,6,2,_Remix_Guitar,0.12482065707445145,0
58,100,0.2772727272727273,854,0,11,_Remix_Guitar,6,4,_Remix_Guitar,0.17903143167495728,0
58,100,0.21818181818181817,493,1,12,_Remix_Guitar,6,3,_Remix_Guitar,0.9983165264129639,1
55,100,0.5181818181818182,756,1,12,_Remix_Guitar,6,8,_Remix_Guitar,0.5445562601089478,0
55,100,0.18181818181818182,65,1,13,_Remix_Guitar,6,3,_Remix_Guitar,0.9986500144004822,1
56,100,0.11818181818181818,316,1,13,_Remix_Guitar,6,2,_Remix_Guitar,0.0878010243177414,0
56,100,0.6,369,0,13,_Remix_Guitar,6,10,_Remix_Guitar,0.0918109193444252,0
58,100,0.2590909090909091,634,1,13,_Remix_Guitar,6,4,_Remix_Guitar,0.10747222602367401,0
58,100,0.1,694,0,13,_Remix_Guitar,6,2,_Remix_Guitar,0.12482049316167831,0
58,100,0.22272727272727272,840,0,13,_Remix_Guitar,6,4,_Remix_Guitar,0.17902126908302307,0
63,100,0.5409090909090909,13,1,14,_Remix_Guitar,6,9,_Remix_Guitar,0.9986500144004822,1
58,100,0.3,140,0,14,_Remix_Guitar,6,5,_Remix_Guitar,0.08780582994222641,0
58,100,0.32272727272727275,268,0,14,_Remix_Guitar,6,5,_Remix_Guitar,0.09181421995162964,0
62,100,0.2,603,1,14,_Remix_Guitar,6,3,_Remix_Guitar,0.10747846215963364,0
58,100,0.1409090909090909,730,0,14,_Remix_Guitar,6,2,_Remix_Guitar,0.12482845783233643,0
58,100,0.2772727272727273,778,0,14,_Remix_Guitar,6,4,_Remix_Guitar,0.1790352314710617,0
63,100,0.1590909090909091,383,1,15,_Remix_Guitar,6,3,_Remix_Guitar,0.9990229606628418,1
56,100,0.12272727272727273,474,0,15,_Remix_Guitar,6,2,_Remix_Guitar,0.366626113653183,0
58,100,0.1,795,1,15,_Remix_Guitar,6,2,_Remix_Guitar,0.45329219102859497,0
58,100,0.2590909090909091,40,1,16,_Remix_Guitar,6,4,_Remix_Guitar,0.9990057349205017,1
55,100,0.4818181818181818,223,0,16,_Remix_Guitar,6,8,_Remix_Guitar,0.2311992198228836,0
65,100,0.8181818181818182,351,0,16,_Remix_Guitar,6,13,_Remix_Guitar,0.2659124433994293,0
58,100,0.2,567,0,16,_Remix_Guitar,6,3,_Remix_Guitar,0.3541964590549469,0
53,100,0.2,391,1,17,_Remix_Guitar,6,3,_Remix_Guitar,0.9990057349205017,1
53,100,0.3,440,0,17,_Remix_Guitar,6,5,_Remix_Guitar,0.23120549321174622,0
56,100,0.2,656,0,17,_Remix_Guitar,6,3,_Remix_Guitar,0.26591742038726807,0
58,100,0.17727272727272728,712,0,17,_Remix_Guitar,6,3,_Remix_Guitar,0.3541950285434723,0
58,100,0.1590909090909091,52,1,18,_Remix_Guitar,6,3,_Remix_Guitar,0.9986500144004822,1
60,100,0.2409090909090909,96,0,18,_Remix_Guitar,6,4,_Remix_Guitar,0.0878051221370697,0
58,100,0.8,154,0,18,_Remix_Guitar,6,13,_Remix_Guitar,0.09181202948093414,0
58,100,0.2590909090909091,339,0,18,_Remix_Guitar,6,4,_Remix_Guitar,0.10748019069433212,0
58,100,0.2,729,1,18,_Remix_Guitar,6,3,_Remix_Guitar,0.12482605129480362,0
63,100,0.12272727272727273,827,0,18,_Remix_Guitar,6,2,_Remix_Guitar,0.17902742326259613,0
63,100,0.2,550,1,19,_Remix_Guitar,6,3,_Remix_Guitar,0.9983164072036743,1
60,100,0.11818181818181818,779,0,19,_Remix_Guitar,6,2,_Remix_Guitar,0.5445663332939148,0
63,100,0.2,343,1,20,_Remix_Guitar,6,3,_Remix_Guitar,0.979256272315979,1
53,100,0.2409090909090909,144,1,21,_Remix_Guitar,6,4,_Remix_Guitar,0.979256272315979,0
56,100,0.1,351,1,22,_Remix_Guitar,6,2,_Remix_Guitar,0.9983165264129639,1
53,100,0.1409090909090909,822,1,22,_Remix_Guitar,6,2,_Remix_Guitar,0.5445581674575806,0
65,100,0.11818181818181818,9,1,23,_Remix_Guitar,6,2,_Remix_Guitar,0.9988419413566589,1
53,100,0.1,34,0,23,_Remix_Guitar,6,2,_Remix_Guitar,0.13724392652511597,0
65,100,0.37727272727272726,140,0,23,_Remix_Guitar,6,6,_Remix_Guitar,0.15976911783218384,0
65,100,0.2409090909090909,312,0,23,_Remix_Guitar,6,4,_Remix_Guitar,0.18643899261951447,0
65,100,0.2,426,0,23,_Remix_Guitar,6,3,_Remix_Guitar,0.25815489888191223,0
63,100,0.3181818181818182,0,1,24,_Remix_Guitar,6,5,_Remix_Guitar,0.9990057349205017,1
55,100,0.12272727272727273,79,0,24,_Remix_Guitar,6,2,_Remix_Guitar,0.2312096506357193,0
63,100,0.1409090909090909,461,1,24,_Remix_Guitar,6,2,_Remix_Guitar,0.26592060923576355,0
60,100,0.1,602,0,24,_Remix_Guitar,6,2,_Remix_Guitar,0.3542024493217468,0
62,100,0.11818181818181818,171,1,25,_Remix_Guitar,6,2,_Remix_Guitar,0.9983165264129639,1
53,100,0.17727272727272728,250,0,25,_Remix_Guitar,6,3,_Remix_Guitar,0.5445606112480164,0
63,100,0.16363636363636364,69,1,26,_Remix_Guitar,6,3,_Remix_Guitar,0.9983003735542297,1
63,100,0.2590909090909091,140,0,26,_Remix_Guitar,6,4,_Remix_Guitar,0.044663894921541214,0
60,100,0.3,223,0,26,_Remix_Guitar,6,5,_Remix_Guitar,0.03315030783414841,0
55,100,0.21818181818181817,360,0,26,_Remix_Guitar,6,3,_Remix_Guitar,0.02657928876578808,0
53,100,0.1409090909090909,509,0,26,_Remix_Guitar,6,2,_Remix_Guitar,0.023595096543431282,0
53,100,0.12272727272727273,553,0,26,_Remix_Guitar,6,2,_Remix_Guitar,0.02431471087038517,0
63,100,0.4818181818181818,663,0,26,_Remix_Guitar,6,8,_Remix_Guitar,0.029689693823456764,0
63,100,0.1409090909090909,818,0,26,_Remix_Guitar,6,2,_Remix_Guitar,0.040078260004520416,0
63,100,0.1,853,0,26,_Remix_Guitar,6,2,_Remix_Guitar,0.07093191146850586,0
63,100,0.1409090909090909,277,1,27,_Remix_Guitar,6,2,_Remix_Guitar,0.9986500144004822,1
63,100,0.22272727272727272,312,0,27,_Remix_Guitar,6,4,_Remix_Guitar,0.08780506998300552,0
63,100,0.1,382,0,27,_Remix_Guitar,6,2,_Remix_Guitar,0.09181537479162216,0
63,100,0.2590909090909091,484,0,27,_Remix_Guitar,6,4,_Remix_Guitar,0.10748064517974854,0
53,100,0.22272727272727272,673,0,27,_Remix_Guitar,6,4,_Remix_Guitar,0.12483333051204681,0
60,100,0.12272727272727273,839,0,27,_Remix_Guitar,6,2,_Remix_Guitar,0.17904286086559296,0
53,100,0.3409090909090909,44,1,28,_Remix_Guitar,6,5,_Remix_Guitar,0.9986500144004822,1
53,100,0.1590909090909091,185,0,28,_Remix_Guitar,6,3,_Remix_Guitar,0.08780090510845184,0
53,100,0.17727272727272728,260,0,28,_Remix_Guitar,6,3,_Remix_Guitar,0.09181085973978043,0
62,100,0.11818181818181818,418,0,28,_Remix_Guitar,6,2,_Remix_Guitar,0.10747598111629486,0
53,100,0.2,519,0,28,_Remix_Guitar,6,3,_Remix_Guitar,0.12482363730669022,0
53,100,0.1,567,0,28,_Remix_Guitar,6,2,_Remix_Guitar,0.17902980744838715,0
55,100,0.18181818181818182,88,1,29,_Remix_Guitar,6,3,_Remix_Guitar,0.9984880685806274,1
53,100,1.1,202,0,29,_Remix_Guitar,6,15,_Remix_Guitar,0.06334342062473297,0
58,100,0.12272727272727273,474,1,29,_Remix_Guitar,6,2,_Remix_Guitar,0.05774139612913132,0
58,100,0.12272727272727273,563,0,29,_Remix_Guitar,6,2,_Remix_Guitar,0.0601983480155468,0
58,100,0.13636363636363635,656,0,29,_Remix_Guitar,6,2,_Remix_Guitar,0.0696982592344284,0
58,100,0.3409090909090909,694,0,29,_Remix_Guitar,6,5,_Remix_Guitar,0.08188778907060623,0
60,100,0.16363636363636364,862,0,29,_Remix_Guitar,6,3,_Remix_Guitar,0.1240118071436882,0
58,100,0.21818181818181817,40,1,30,_Remix_Guitar,6,3,_Remix_Guitar,0.9984880685806274,1
53,100,0.2772727272727273,96,0,30,_Remix_Guitar,6,4,_Remix_Guitar,0.06334288418292999,0
58,100,0.11818181818181818,171,0,30,_Remix_Guitar,6,2,_Remix_Guitar,0.05774196237325668,0
53,100,0.6,216,0,30,_Remix_Guitar,6,10,_Remix_Guitar,0.06020050495862961,0
58,100,0.12272727272727273,422,0,30,_Remix_Guitar,6,2,_Remix_Guitar,0.06970023363828659,0
53,100,0.1,492,0,30,_Remix_Guitar,6,2,_Remix_Guitar,0.08189001679420471,0
55,100,0.5181818181818182,766,1,30,_Remix_Guitar,6,8,_Remix_Guitar,0.12401830404996872,0
55,100,0.12272727272727273,179,1,31,_Remix_Guitar,6,2,_Remix_Guitar,0.9983165264129639,1
53,100,0.1409090909090909,646,1,31,_Remix_Guitar,6,2,_Remix_Guitar,0.5445496439933777,0
53,100,0.37727272727272726,383,1,32,_Remix_Guitar,6,6,_Remix_Guitar,0.9990229606628418,1
53,100,0.2,471,0,32,_Remix_Guitar,6,3,_Remix_Guitar,0.36662086844444275,0
53,100,0.13636363636363635,765,1,32,_Remix_Guitar,6,2,_Remix_Guitar,0.4532899856567383,0
55,100,0.21818181818181817,581,1,33,_Remix_Guitar,6,3,_Remix_Guitar,0.9983165264129639,1
55,100,0.6,726,0,33,_Remix_Guitar,6,10,_Remix_Guitar,0.5445539951324463,0
58,100,0.2772727272727273,413,1,34,_Remix_Guitar,6,4,_Remix_Guitar,0.9990229606628418,1
53,100,0.11818181818181818,681,1,34,_Remix_Guitar,6,2,_Remix_Guitar,0.3666217029094696,0
53,100,0.2818181818181818,804,0,34,_Remix_Guitar,6,5,_Remix_Guitar,0.45329031348228455,0
53,100,0.1409090909090909,75,1,35,_Remix_Guitar,6,2,_Remix_Guitar,0.9986500144004822,1
53,100,0.1409090909090909,179,0,35,_Remix_Guitar,6,2,_Remix_Guitar,0.08780304342508316,0
58,100,0.1,215,0,35,_Remix_Guitar,6,2,_Remix_Guitar,0.0918135792016983,0
58,100,0.18181818181818182,241,0,35,_Remix_Guitar,6,3,_Remix_Guitar,0.10748064517974854,0
55,100,0.6,311,0,35,_Remix_Guitar,6,10,_Remix_Guitar,0.12482405453920364,0
53,100,0.17727272727272728,823,1,35,_Remix_Guitar,6,3,_Remix_Guitar,0.17903180420398712,0
53,100,0.1590909090909091,18,1,36,_Remix_Guitar,6,3,_Remix_Guitar,0.9988419413566589,1
53,100,0.2,338,1,36,_Remix_Guitar,6,3,_Remix_Guitar,0.13724437355995178,0
53,100,0.2409090909090909,466,0,36,_Remix_Guitar,6,4,_Remix_Guitar,0.15977656841278076,0
53,100,0.7227272727272728,541,0,36,_Remix_Guitar,6,12,_Remix_Guitar,0.1864427626132965,0
53,100,0.3,778,1,36,_Remix_Guitar,6,5,_Remix_Guitar,0.25816285610198975,0
55,100,0.18181818181818182,263,1,37,_Remix_Guitar,6,3,_Remix_Guitar,0.9983165264129639,1
55,100,0.5,804,1,37,_Remix_Guitar,6,8,_Remix_Guitar,0.5445537567138672,0
56,100,0.4590909090909091,361,1,38,_Remix_Guitar,6,7,_Remix_Guitar,0.9983165264129639,1
53,100,0.5181818181818182,748,1,38,_Remix_Guitar,6,8,_Remix_Guitar,0.5445569753646851,0
53,100,0.23636363636363636,40,1,39,_Remix_Guitar,6,4,_Remix_Guitar,0.9986500144004822,1
58,100,0.2772727272727273,185,0,39,_Remix_Guitar,6,4,_Remix_Guitar,0.087802954018116,0
58,100,0.2636363636363636,268,0,39,_Remix_Guitar,6,4,_Remix_Guitar,0.09181233495473862,0
53,100,0.1590909090909091,515,1,39,_Remix_Guitar,6,3,_Remix_Guitar,0.10747537016868591,0
53,100,0.2,703,0,39,_Remix_Guitar,6,3,_Remix_Guitar,0.12482090294361115,0
53,100,0.1590909090909091,756,0,39,_Remix_Guitar,6,3,_Remix_Guitar,0.17902836203575134,0
63,100,0.11818181818181818,215,1,40,_Remix_Guitar,6,2,_Remix_Guitar,0.9988419413566589,1
53,100,0.3,528,1,40,_Remix_Guitar,6,5,_Remix_Guitar,0.13725151121616364,0
53,100,0.2409090909090909,646,0,40,_Remix_Guitar,6,4,_Remix_Guitar,0.15978209674358368,0
56,100,0.1590909090909091,783,0,40,_Remix_Guitar,6,3,_Remix_Guitar,0.1864512860774994,0
53,100,0.11818181818181818,858,0,40,_Remix_Guitar,6,2,_Remix_Guitar,0.2581685185432434,0
53,100,0.4,153,1,41,_Remix_Guitar,6,6,_Remix_Guitar,0.9983736276626587,1
58,100,0.1409090909090909,241,0,41,_Remix_Guitar,6,2,_Remix_Guitar,0.051061153411865234,0
53,100,0.2409090909090909,276,0,41,_Remix_Guitar,6,4,_Remix_Guitar,0.04130125045776367,0
53,100,0.16363636363636364,334,0,41,_Remix_Guitar,6,3,_Remix_Guitar,0.037383437156677246,0
65,100,0.2,370,0,41,_Remix_Guitar,6,3,_Remix_Guitar,0.038327597081661224,0
53,100,0.23636363636363636,413,0,41,_Remix_Guitar,6,4,_Remix_Guitar,0.044748228043317795,0
53,100,0.13636363636363635,501,0,41,_Remix_Guitar,6,2,_Remix_Guitar,0.05522488057613373,0
53,100,0.1590909090909091,541,0,41,_Remix_Guitar,6,3,_Remix_Guitar,0.09025980532169342,0
53,100,0.1409090909090909,123,1,42,_Remix_Guitar,6,2,_Remix_Guitar,0.9986500144004822,1
63,100,0.13636363636363635,391,1,42,_Remix_Guitar,6,2,_Remix_Guitar,0.08780331164598465,0
55,100,0.32272727272727275,554,0,42,_Remix_Guitar,6,5,_Remix_Guitar,0.09181410074234009,0
60,100,0.12272727272727273,641,0,42,_Remix_Guitar,6,2,_Remix_Guitar,0.10747987031936646,0
60,100,0.2,761,0,42,_Remix_Guitar,6,3,_Remix_Guitar,0.12482661008834839,0
56,100,0.21818181818181817,866,0,42,_Remix_Guitar,6,3,_Remix_Guitar,0.17903167009353638,0
53,100,0.2818181818181818,440,1,43,_Remix_Guitar,6,5,_Remix_Guitar,0.9986500144004822,1
53,100,0.3,581,0,43,_Remix_Guitar,6,5,_Remix_Guitar,0.08780123293399811,0
58,100,0.2,651,0,43,_Remix_Guitar,6,3,_Remix_Guitar,0.09181429445743561,0
53,100,0.1590909090909091,703,0,43,_Remix_Guitar,6,3,_Remix_Guitar,0.10747415572404861,0
53,100,0.13636363636363635,788,0,43,_Remix_Guitar,6,2,_Remix_Guitar,0.1248222291469574,0
53,100,0.1590909090909091,826,0,43,_Remix_Guitar,6,3,_Remix_Guitar,0.17902664840221405,0
53,100,0.13636363636363635,18,1,44,_Remix_Guitar,6,2,_Remix_Guitar,0.9988419413566589,1
53,100,0.5,83,0,44,_Remix_Guitar,6,8,_Remix_Guitar,0.13724416494369507,0
53,100,0.2409090909090909,206,0,44,_Remix_Guitar,6,4,_Remix_Guitar,0.15977472066879272,0
53,100,0.18181818181818182,431,0,44,_Remix_Guitar,6,3,_Remix_Guitar,0.18644171953201294,0
60,100,0.33636363636363636,765,1,44,_Remix_Guitar,6,5,_Remix_Guitar,0.2581607699394226,0
53,100,0.18181818181818182,220,1,45,_Remix_Guitar,6,3,_Remix_Guitar,0.9990229606628418,1
53,100,0.36363636363636365,356,0,45,_Remix_Guitar,6,6,_Remix_Guitar,0.3666202127933502,0
53,100,0.12272727272727273,871,1,45,_Remix_Guitar,6,2,_Remix_Guitar,0.4532914459705353,0
53,100,0.2,185,1,46,_Remix_Guitar,6,3,_Remix_Guitar,0.9986500144004822,1
58,100,0.3181818181818182,391,0,46,_Remix_Guitar,6,5,_Remix_Guitar,0.08780346065759659,0
53,100,0.2,501,0,46,_Remix_Guitar,6,3,_Remix_Guitar,0.0918116346001625,0
53,100,0.17727272727272728,558,0,46,_Remix_Guitar,6,3,_Remix_Guitar,0.10747501254081726,0
53,100,0.2,700,0,46,_Remix_Guitar,6,3,_Remix_Guitar,0.12482551485300064,0
53,100,0.5,751,0,46,_Remix_Guitar,6,8,_Remix_Guitar,0.17903085052967072,0
53,100,0.1590909090909091,8,1,47,_Remix_Guitar,6,3,_Remix_Guitar,0.9986500144004822,1
53,100,0.2409090909090909,69,0,47,_Remix_Guitar,6,4,_Remix_Guitar,0.08780140429735184,0
53,100,0.12272727272727273,136,0,47,_Remix_Guitar,6,2,_Remix_Guitar,0.091811403632164,0
58,100,0.22272727272727272,321,0,47,_Remix_Guitar,6,4,_Remix_Guitar,0.10747717320919037,0
53,100,0.22272727272727272,386,0,47,_Remix_Guitar,6,4,_Remix_Guitar,0.12482306361198425,0
58,100,0.2818181818181818,616,0,47,_Remix_Guitar,6,5,_Remix_Guitar,0.17902813851833344,0
55,100,0.1,153,1,49,_Remix_Guitar,6,2,_Remix_Guitar,0.9990229606628418,1
55,100,0.2590909090909091,558,1,49,_Remix_Guitar,6,4,_Remix_Guitar,0.3666217625141144,0
53,100,0.2772727272727273,823,1,49,_Remix_Guitar,6,4,_Remix_Guitar,0.45328959822654724,0
53,100,0.4,43,1,50,_Remix_Guitar,6,6,_Remix_Guitar,0.9983003735542297,1
58,100,0.2409090909090909,131,0,50,_Remix_Guitar,6,4,_Remix_Guitar,0.04466332867741585,0
53,100,0.18181818181818182,188,0,50,_Remix_Guitar,6,3,_Remix_Guitar,0.033148519694805145,0
53,100,0.21818181818181817,260,0,50,_Remix_Guitar,6,3,_Remix_Guitar,0.026578150689601898,0
53,100,0.18181818181818182,311,0,50,_Remix_Guitar,6,3,_Remix_Guitar,0.023593954741954803,0
53,100,0.1409090909090909,399,0,50,_Remix_Guitar,6,2,_Remix_Guitar,0.024312956258654594,0
53,100,0.6,545,0,50,_Remix_Guitar,6,10,_Remix_Guitar,0.029687363654375076,0
53,100,0.17727272727272728,765,0,50,_Remix_Guitar,6,3,_Remix_Guitar,0.040075160562992096,0
53,100,0.16363636363636364,818,0,50,_Remix_Guitar,6,3,_Remix_Guitar,0.07092615962028503,0
55,100,0.11818181818181818,281,1,51,_Remix_Guitar,6,2,_Remix_Guitar,0.9792565107345581,0
55,100,0.1,91,1,52,_Remix_Guitar,6,2,_Remix_Guitar,0.9990230798721313,1
55,100,0.1,166,0,52,_Remix_Guitar,6,2,_Remix_Guitar,0.36662542819976807,0
55,100,0.3181818181818182,853,1,52,_Remix_Guitar,6,5,_Remix_Guitar,0.4532873332500458,0
55,100,0.2590909090909091,171,1,53,_Remix_Guitar,6,4,_Remix_Guitar,0.9990057349205017,1
53,100,0.1590909090909091,303,0,53,_Remix_Guitar,6,3,_Remix_Guitar,0.231204092502594,0
56,100,0.2409090909090909,396,0,53,_Remix_Guitar,6,4,_Remix_Guitar,0.26591771841049194,0
56,100,0.11818181818181818,853,1,53,_Remix_Guitar,6,2,_Remix_Guitar,0.35418981313705444,0
63,100,0.1409090909090909,461,1,54,_Remix_Guitar,6,2,_Remix_Guitar,0.9983165264129639,1
58,100,0.2409090909090909,528,0,54,_Remix_Guitar,6,4,_Remix_Guitar,0.5445665121078491,0
63,100,0.2,75,1,55,_Remix_Guitar,6,3,_Remix_Guitar,0.9990229606628418,1
55,100,0.11818181818181818,458,1,55,_Remix_Guitar,6,2,_Remix_Guitar,0.3666272759437561,0
53,100,0.2590909090909091,606,0,55,_Remix_Guitar,6,4,_Remix_Guitar,0.45329174399375916,0
53,100,0.12272727272727273,166,1,56,_Remix_Guitar,6,2,_Remix_Guitar,0.9986500144004822,1
53,100,0.1590909090909091,220,0,56,_Remix_Guitar,6,3,_Remix_Guitar,0.08779968321323395,0
53,100,0.17727272727272728,338,0,56,_Remix_Guitar,6,3,_Remix_Guitar,0.0918097272515297,0
53,100,0.2,554,0,56,_Remix_Guitar,6,3,_Remix_Guitar,0.10747130960226059,0
53,100,0.22272727272727272,606,0,56,_Remix_Guitar,6,4,_Remix_Guitar,0.12482212483882904,0
53,100,0.4590909090909091,801,0,56,_Remix_Guitar,6,7,_Remix_Guitar,0.17902439832687378,0
53,100,0.21818181818181817,40,1,57,_Remix_Guitar,6,3,_Remix_Guitar,0.9986500144004822,1
53,100,0.16363636363636364,114,0,57,_Remix_Guitar,6,3,_Remix_Guitar,0.08780205249786377,0
53,100,0.17727272727272728,185,0,57,_Remix_Guitar,6,3,_Remix_Guitar,0.09181002527475357,0
53,100,0.1409090909090909,254,0,57,_Remix_Guitar,6,2,_Remix_Guitar,0.10747600346803665,0
53,100,0.1,373,0,57,_Remix_Guitar,6,2,_Remix_Guitar,0.12482224404811859,0
53,100,0.42272727272727273,421,0,57,_Remix_Guitar,6,7,_Remix_Guitar,0.1790270060300827,0
53,100,0.1409090909090909,201,1,59,_Remix_Guitar,6,2,_Remix_Guitar,0.9983736276626587,1
53,100,0.12272727272727273,298,0,59,_Remix_Guitar,6,2,_Remix_Guitar,0.051059696823358536,0
53,100,0.18181818181818182,343,0,59,_Remix_Guitar,6,3,_Remix_Guitar,0.04130196198821068,0
58,100,0.38181818181818183,440,0,59,_Remix_Guitar,6,6,_Remix_Guitar,0.03738574683666229,0
58,100,0.2,536,0,59,_Remix_Guitar,6,3,_Remix_Guitar,0.03832796588540077,0
53,100,0.5590909090909091,590,0,59,_Remix_Guitar,6,9,_Remix_Guitar,0.04474761709570885,0
58,100,0.5772727272727273,721,0,59,_Remix_Guitar,6,9,_Remix_Guitar,0.055226247757673264,0
58,100,0.21818181818181817,866,0,59,_Remix_Guitar,6,3,_Remix_Guitar,0.09025946259498596,0
53,100,0.18181818181818182,114,1,60,_Remix_Guitar,6,3,_Remix_Guitar,0.9983165264129639,1
53,100,0.12272727272727273,311,0,60,_Remix_Guitar,6,2,_Remix_Guitar,0.544557511806488,0
53,100,0.12272727272727273,466,1,61,_Remix_Guitar,6,2,_Remix_Guitar,0.9990057349205017,1
53,100,1.059090909090909,501,0,61,_Remix_Guitar,6,15,_Remix_Guitar,0.23119257390499115,0
53,100,0.22272727272727272,761,1,61,_Remix_Guitar,6,4,_Remix_Guitar,0.2659095525741577,0
53,100,0.21818181818181817,813,0,61,_Remix_Guitar,6,3,_Remix_Guitar,0.35418611764907837,0
53,100,0.11818181818181818,8,1,62,_Remix_Guitar,6,2,_Remix_Guitar,0.9984879493713379,1
53,100,0.1409090909090909,56,0,62,_Remix_Guitar,6,2,_Remix_Guitar,0.06334390491247177,0
53,100,0.21818181818181817,260,0,62,_Remix_Guitar,6,3,_Remix_Guitar,0.05773882567882538,0
53,100,0.32272727272727275,321,0,62,_Remix_Guitar,6,5,_Remix_Guitar,0.060198478400707245,0
53,100,0.17727272727272728,413,0,62,_Remix_Guitar,6,3,_Remix_Guitar,0.0696980282664299,0
53,100,0.16363636363636364,466,0,62,_Remix_Guitar,6,3,_Remix_Guitar,0.08188915252685547,0
53,100,0.22272727272727272,576,0,62,_Remix_Guitar,6,4,_Remix_Guitar,0.12401292473077774,0
53,100,0.4409090909090909,289,1,63,_Remix_Guitar,6,7,_Remix_Guitar,0.9990057349205017,1
58,100,0.7636363636363637,421,0,63,_Remix_Guitar,6,12,_Remix_Guitar,0.23119601607322693,0
53,100,0.32272727272727275,598,0,63,_Remix_Guitar,6,5,_Remix_Guitar,0.265913188457489,0
55,100,0.2818181818181818,813,0,63,_Remix_Guitar,6,5,_Remix_Guitar,0.3541885316371918,0
55,100,0.4590909090909091,87,1,64,_Remix_Guitar,6,7,_Remix_Guitar,0.9990230798721313,1
55,100,0.17727272727272728,502,1,64,_Remix_Guitar,6,3,_Remix_Guitar,0.3666200339794159,0
55,100,0.11818181818181818,853,1,64,_Remix_Guitar,6,2,_Remix_Guitar,0.4532887041568756,0
53,100,0.13636363636363635,62,1,65,_Remix_Guitar,6,2,_Remix_Guitar,0.9988419413566589,1
53,100,0.2772727272727273,96,0,65,_Remix_Guitar,6,4,_Remix_Guitar,0.13724395632743835,0
53,100,0.1590909090909091,606,1,65,_Remix_Guitar,6,3,_Remix_Guitar,0.15977925062179565,0
53,100,0.6590909090909091,700,0,65,_Remix_Guitar,6,11,_Remix_Guitar,0.18644917011260986,0
53,100,0.1590909090909091,849,0,65,_Remix_Guitar,6,3,_Remix_Guitar,0.258167028427124,0
53,100,0.3181818181818182,150,1,66,_Remix_Guitar,6,5,_Remix_Guitar,0.9983736276626587,1
58,100,0.36363636363636365,223,0,66,_Remix_Guitar,6,6,_Remix_Guitar,0.05106017366051674,0
53,100,0.6181818181818182,330,0,66,_Remix_Guitar,6,10,_Remix_Guitar,0.04130109027028084,0
58,100,0.18181818181818182,466,0,66,_Remix_Guitar,6,3,_Remix_Guitar,0.0373850017786026,0
53,100,0.23636363636363636,523,0,66,_Remix_Guitar,6,4,_Remix_Guitar,0.038326483219861984,0
53,100,0.4409090909090909,593,0,66,_Remix_Guitar,6,7,_Remix_Guitar,0.04474934935569763,0
53,100,0.4409090909090909,695,0,66,_Remix_Guitar,6,7,_Remix_Guitar,0.055227842181921005,0
53,100,0.1590909090909091,849,0,66,_Remix_Guitar,6,3,_Remix_Guitar,0.09026160836219788,0
53,100,0.5636363636363636,26,1,67,_Remix_Guitar,6,9,_Remix_Guitar,0.9990057349205017,1
58,100,0.12272727272727273,246,0,67,_Remix_Guitar,6,2,_Remix_Guitar,0.23120850324630737,0
55,100,0.11818181818181818,690,1,67,_Remix_Guitar,6,2,_Remix_Guitar,0.2659153342247009,0
55,100,0.11818181818181818,779,0,67,_Remix_Guitar,6,2,_Remix_Guitar,0.35419318079948425,0
53,100,0.1,624,1,68,_Remix_Guitar,6,2,_Remix_Guitar,0.9792561531066895,0
58,100,0.1590909090909091,87,1,69,_Remix_Guitar,6,3,_Remix_Guitar,0.9990230798721313,1
55,100,0.13636363636363635,392,1,69,_Remix_Guitar,6,2,_Remix_Guitar,0.3666214644908905,0
55,100,0.41818181818181815,426,0,69,_Remix_Guitar,6,7,_Remix_Guitar,0.45328694581985474,0
56,100,0.11818181818181818,603,1,70,_Remix_Guitar,6,2,_Remix_Guitar,0.9792556166648865,0
63,100,0.5227272727272727,409,1,71,_Remix_Guitar,6,8,_Remix_Guitar,0.9983164072036743,1
63,100,0.4,832,1,71,_Remix_Guitar,6,6,_Remix_Guitar,0.5445668697357178,0
63,100,0.21818181818181817,83,1,72,_Remix_Guitar,6,3,_Remix_Guitar,0.9990057349205017,1
55,100,0.2772727272727273,250,0,72,_Remix_Guitar,6,4,_Remix_Guitar,0.23121072351932526,0
55,100,0.3,333,0,72,_Remix_Guitar,6,5,_Remix_Guitar,0.26591938734054565,0
55,100,0.1409090909090909,422,0,72,_Remix_Guitar,6,2,_Remix_Guitar,0.3541916012763977,0
53,100,0.6,176,1,73,_Remix_Guitar,6,10,_Remix_Guitar,0.9984880685806274,1
53,100,0.11818181818181818,330,0,73,_Remix_Guitar,6,2,_Remix_Guitar,0.0633459985256195,0
58,100,0.6181818181818182,436,0,73,_Remix_Guitar,6,10,_Remix_Guitar,0.057742197066545486,0
70,100,0.1,619,0,73,_Remix_Guitar,6,2,_Remix_Guitar,0.060201287269592285,0
58,100,0.2,650,0,73,_Remix_Guitar,6,3,_Remix_Guitar,0.06970129162073135,0
58,100,0.2590909090909091,722,0,73,_Remix_Guitar,6,4,_Remix_Guitar,0.08189348876476288,0
53,100,1.018181818181818,787,0,73,_Remix_Guitar,6,15,_Remix_Guitar,0.12401627749204636,0
58,100,0.22272727272727272,145,1,74,_Remix_Guitar,6,4,_Remix_Guitar,0.9983165264129639,1
58,100,0.38181818181818183,246,0,74,_Remix_Guitar,6,6,_Remix_Guitar,0.5445565581321716,0
53,100,0.1,179,1,75,_Remix_Guitar,6,2,_Remix_Guitar,0.9986500144004822,1
60,100,0.1,443,1,75,_Remix_Guitar,6,2,_Remix_Guitar,0.08780684322118759,0
55,100,0.3181818181818182,483,0,75,_Remix_Guitar,6,5,_Remix_Guitar,0.09181557595729828,0
55,100,0.1590909090909091,559,0,75,_Remix_Guitar,6,3,_Remix_Guitar,0.1074790433049202,0
55,100,0.1590909090909091,766,0,75,_Remix_Guitar,6,3,_Remix_Guitar,0.12482934445142746,0
58,100,0.4590909090909091,866,0,75,_Remix_Guitar,6,7,_Remix_Guitar,0.17903397977352142,0
55,100,0.2409090909090909,250,1,76,_Remix_Guitar,6,4,_Remix_Guitar,0.9792566299438477,1
63,100,0.3,449,1,77,_Remix_Guitar,6,5,_Remix_Guitar,0.9792558550834656,0
55,100,0.11818181818181818,294,1,78,_Remix_Guitar,6,2,_Remix_Guitar,0.9990057349205017,1
55,100,0.13636363636363635,326,0,78,_Remix_Guitar,6,2,_Remix_Guitar,0.23120741546154022,0
55,100,0.4,430,0,78,_Remix_Guitar,6,6,_Remix_Guitar,0.265922874212265,0
55,100,0.8,729,1,78,_Remix_Guitar,6,13,_Remix_Guitar,0.3541940748691559,0
63,100,0.1409090909090909,606,1,79,_Remix_Guitar,6,2,_Remix_Guitar,0.9792559146881104,0
53,100,0.4818181818181818,22,1,80,_Remix_Guitar,6,8,_Remix_Guitar,0.9990229606628418,1
53,100,0.11818181818181818,506,1,80,_Remix_Guitar,6,2,_Remix_Guitar,0.36662036180496216,0
53,100,0.2590909090909091,567,0,80,_Remix_Guitar,6,4,_Remix_Guitar,0.45328488945961,0
53,100,0.1409090909090909,22,1,81,_Remix_Guitar,6,2,_Remix_Guitar,0.9990229606628418,1
53,100,0.1,136,0,81,_Remix_Guitar,6,2,_Remix_Guitar,0.36661893129348755,0
53,100,0.5409090909090909,202,0,81,_Remix_Guitar,6,9,_Remix_Guitar,0.45328283309936523,0
58,100,0.2,436,1,83,_Remix_Guitar,6,3,_Remix_Guitar,0.9990057349205017,1
53,100,0.12272727272727273,496,0,83,_Remix_Guitar,6,2,_Remix_Guitar,0.2311992049217224,0
53,100,0.3,532,0,83,_Remix_Guitar,6,5,_Remix_Guitar,0.2659180760383606,0
53,100,0.35909090909090907,646,0,83,_Remix_Guitar,6,6,_Remix_Guitar,0.35418349504470825,0
53,100,0.2,79,1,84,_Remix_Guitar,6,3,_Remix_Guitar,0.9984880685806274,1
53,100,0.1590909090909091,153,0,84,_Remix_Guitar,6,3,_Remix_Guitar,0.06334345042705536,0
53,100,0.1409090909090909,210,0,84,_Remix_Guitar,6,2,_Remix_Guitar,0.05774059519171715,0
53,100,0.1409090909090909,250,0,84,_Remix_Guitar,6,2,_Remix_Guitar,0.060198403894901276,0
53,100,0.2590909090909091,299,0,84,_Remix_Guitar,6,4,_Remix_Guitar,0.06969772279262543,0
53,100,0.2,377,0,84,_Remix_Guitar,6,3,_Remix_Guitar,0.08188948780298233,0
53,100,0.11818181818181818,593,0,84,_Remix_Guitar,6,2,_Remix_Guitar,0.1240118071436882,0
55,100,0.1409090909090909,289,1,85,_Remix_Guitar,6,2,_Remix_Guitar,0.9983164072036743,1
67,100,0.1,333,0,85,_Remix_Guitar,6,2,_Remix_Guitar,0.5445511341094971,0
55,100,0.1409090909090909,417,1,86,_Remix_Guitar,6,2,_Remix_Guitar,0.9792563915252686,0
53,100,0.16363636363636364,707,1,88,_Remix_Guitar,6,3,_Remix_Guitar,0.9983165264129639,1
53,100,0.1,760,0,88,_Remix_Guitar,6,2,_Remix_Guitar,0.5445559620857239,0
58,100,0.12272727272727273,13,1,89,_Remix_Guitar,6,2,_Remix_Guitar,0.9990230798721313,1
53,100,0.2409090909090909,462,1,89,_Remix_Guitar,6,4,_Remix_Guitar,0.36661869287490845,0
53,100,0.1590909090909091,823,1,89,_Remix_Guitar,6,3,_Remix_Guitar,0.4532887935638428,0
53,100,0.1,140,1,90,_Remix_Guitar,6,2,_Remix_Guitar,0.9990057349205017,1
58,100,0.11818181818181818,633,1,90,_Remix_Guitar,6,2,_Remix_Guitar,0.23120032250881195,0
53,100,0.1590909090909091,726,0,90,_Remix_Guitar,6,3,_Remix_Guitar,0.26590800285339355,0
53,100,0.5409090909090909,862,0,90,_Remix_Guitar,6,9,_Remix_Guitar,0.35418906807899475,0
53,100,0.12272727272727273,202,1,91,_Remix_Guitar,6,2,_Remix_Guitar,0.9983736276626587,1
53,100,0.38181818181818183,242,0,91,_Remix_Guitar,6,6,_Remix_Guitar,0.05105895921587944,0
53,100,0.1409090909090909,330,0,91,_Remix_Guitar,6,2,_Remix_Guitar,0.04130042716860771,0
53,100,0.1,373,0,91,_Remix_Guitar,6,2,_Remix_Guitar,0.037382788956165314,0
53,100,0.18181818181818182,440,0,91,_Remix_Guitar,6,3,_Remix_Guitar,0.03832583129405975,0
53,100,0.2,514,0,91,_Remix_Guitar,6,3,_Remix_Guitar,0.04474574327468872,0
53,100,0.35909090909090907,590,0,91,_Remix_Guitar,6,6,_Remix_Guitar,0.05522117391228676,0
53,100,0.11818181818181818,713,0,91,_Remix_Guitar,6,2,_Remix_Guitar,0.09025782346725464,0
53,100,0.7363636363636363,40,1,93,_Remix_Guitar,6,12,_Remix_Guitar,0.9984880685806274,1
53,100,0.3181818181818182,250,0,93,_Remix_Guitar,6,5,_Remix_Guitar,0.0633438378572464,0
53,100,0.2590909090909091,404,0,93,_Remix_Guitar,6,4,_Remix_Guitar,0.057738617062568665,0
53,100,0.11818181818181818,483,0,93,_Remix_Guitar,6,2,_Remix_Guitar,0.060197968035936356,0
53,100,0.1,540,0,93,_Remix_Guitar,6,2,_Remix_Guitar,0.06969762593507767,0
53,100,0.2,606,0,93,_Remix_Guitar,6,3,_Remix_Guitar,0.08188825845718384,0
53,100,0.4590909090909091,669,0,93,_Remix_Guitar,6,7,_Remix_Guitar,0.12401220202445984,0
53,100,0.2409090909090909,43,1,94,_Remix_Guitar,6,4,_Remix_Guitar,0.9983165264129639,1
58,100,0.22272727272727272,100,0,94,_Remix_Guitar,6,4,_Remix_Guitar,0.5445553064346313,0
55,100,0.12272727272727273,13,1,95,_Remix_Guitar,6,2,_Remix_Guitar,0.9990229606628418,1
55,100,0.18181818181818182,47,0,95,_Remix_Guitar,6,3,_Remix_Guitar,0.36661630868911743,0
53,100,0.1409090909090909,312,1,95,_Remix_Guitar,6,2,_Remix_Guitar,0.4532860517501831,0
60,100,0.1,496,1,96,_Remix_Guitar,6,2,_Remix_Guitar,0.9792561531066895,0
53,100,0.18181818181818182,220,1,97,_Remix_Guitar,6,3,_Remix_Guitar,0.9983164072036743,1
53,100,0.1590909090909091,475,1,97,_Remix_Guitar,6,3,_Remix_Guitar,0.5445535182952881,0
53,100,0.11818181818181818,770,1,98,_Remix_Guitar,6,2,_Remix_Guitar,0.9792563915252686,0
53,100,0.11818181818181818,700,1,99,_Remix_Guitar,6,2,_Remix_Guitar,0.9983165264129639,1
53,100,0.1409090909090909,773,0,99,_Remix_Guitar,6,2,_Remix_Guitar,0.5445607900619507,0
53,100,0.36363636363636365,157,1,100,_Remix_Guitar,6,6,_Remix_Guitar,0.9984879493713379,1
53,100,0.18181818181818182,267,0,100,_Remix_Guitar,6,3,_Remix_Guitar,0.06334410607814789,0
53,100,0.1409090909090909,352,0,100,_Remix_Guitar,6,2,_Remix_Guitar,0.05774098262190819,0
53,100,0.2818181818181818,386,0,100,_Remix_Guitar,6,5,_Remix_Guitar,0.06020288169384003,0
53,100,0.4409090909090909,470,0,100,_Remix_Guitar,6,7,_Remix_Guitar,0.06970173865556717,0
53,100,1.1409090909090909,593,0,100,_Remix_Guitar,6,15,_Remix_Guitar,0.08189205080270767,0
53,100,0.1590909090909091,853,1,100,_Remix_Guitar,6,3,_Remix_Guitar,0.1240227222442627,0
53,100,0.3,22,1,101,_Remix_Guitar,6,5,_Remix_Guitar,0.9990229606628418,1
53,100,0.2,106,0,101,_Remix_Guitar,6,3,_Remix_Guitar,0.36662426590919495,0
63,100,0.11818181818181818,330,0,101,_Remix_Guitar,6,2,_Remix_Guitar,0.45328715443611145,0
63,100,0.3409090909090909,92,1,102,_Remix_Guitar,6,5,_Remix_Guitar,0.9990057349205017,1
53,100,0.33636363636363636,326,1,102,_Remix_Guitar,6,5,_Remix_Guitar,0.2312038391828537,0
53,100,0.2590909090909091,426,0,102,_Remix_Guitar,6,4,_Remix_Guitar,0.2659240961074829,0
53,100,0.36363636363636365,619,0,102,_Remix_Guitar,6,6,_Remix_Guitar,0.3541906476020813,0
65,100,0.2818181818181818,123,1,103,_Remix_Guitar,6,5,_Remix_Guitar,0.9983165264129639,1
60,100,0.4818181818181818,817,1,103,_Remix_Guitar,6,8,_Remix_Guitar,0.5445630550384521,0
63,100,0.1,140,1,104,_Remix_Guitar,6,2,_Remix_Guitar,0.9990229606628418,1
63,100,0.1409090909090909,206,0,104,_Remix_Guitar,6,2,_Remix_Guitar,0.36663055419921875,0
63,100,0.7636363636363637,267,0,104,_Remix_Guitar,6,12,_Remix_Guitar,0.4532944858074188,0
56,100,0.1,96,1,105,_Remix_Guitar,6,2,_Remix_Guitar,0.9984879493713379,1
60,100,0.43636363636363634,260,0,105,_Remix_Guitar,6,7,_Remix_Guitar,0.06334629654884338,0
58,100,0.11818181818181818,493,1,105,_Remix_Guitar,6,2,_Remix_Guitar,0.05774228647351265,0
58,100,0.18181818181818182,553,0,105,_Remix_Guitar,6,3,_Remix_Guitar,0.06020268797874451,0
70,100,0.2,603,0,105,_Remix_Guitar,6,3,_Remix_Guitar,0.06970254331827164,0
58,100,0.1590909090909091,690,0,105,_Remix_Guitar,6,3,_Remix_Guitar,0.08189281076192856,0
53,100,0.16363636363636364,729,0,105,_Remix_Guitar,6,3,_Remix_Guitar,0.12402266263961792,0
58,100,0.11818181818181818,326,1,106,_Remix_Guitar,6,2,_Remix_Guitar,0.9990057349205017,1
63,100,0.2590909090909091,656,1,106,_Remix_Guitar,6,4,_Remix_Guitar,0.23120562732219696,0
63,100,0.2,770,0,106,_Remix_Guitar,6,3,_Remix_Guitar,0.2659207284450531,0
53,100,0.1,826,0,106,_Remix_Guitar,6,2,_Remix_Guitar,0.35419532656669617,0
53,100,0.2,132,1,107,_Remix_Guitar,6,3,_Remix_Guitar,0.9986500144004822,1
63,100,0.8409090909090909,189,0,107,_Remix_Guitar,6,13,_Remix_Guitar,0.08779945969581604,0
53,100,0.12272727272727273,377,0,107,_Remix_Guitar,6,2,_Remix_Guitar,0.09181314706802368,0
65,100,0.12272727272727273,409,0,107,_Remix_Guitar,6,2,_Remix_Guitar,0.10747304558753967,0
60,100,0.11818181818181818,590,0,107,_Remix_Guitar,6,2,_Remix_Guitar,0.12482243776321411,0
60,100,0.18181818181818182,660,0,107,_Remix_Guitar,6,3,_Remix_Guitar,0.17902763187885284,0
63,100,0.11818181818181818,43,1,108,_Remix_Guitar,6,2,_Remix_Guitar,0.9990229606628418,1
63,100,0.1590909090909091,347,1,108,_Remix_Guitar,6,3,_Remix_Guitar,0.3666266202926636,0
63,100,0.2,386,0,108,_Remix_Guitar,6,3,_Remix_Guitar,0.4533036947250366,0
53,100,0.2,823,1,109,_Remix_Guitar,6,3,_Remix_Guitar,0.9792567491531372,0
53,100,0.16363636363636364,179,1,110,_Remix_Guitar,6,3,_Remix_Guitar,0.9990057349205017,1
53,100,0.2,312,0,110,_Remix_Guitar,6,3,_Remix_Guitar,0.23119552433490753,0
58,100,0.1,360,0,110,_Remix_Guitar,6,2,_Remix_Guitar,0.2659100294113159,0
70,100,0.1,650,1,110,_Remix_Guitar,6,2,_Remix_Guitar,0.3541938364505768,0
63,100,0.41818181818181815,462,1,111,_Remix_Guitar,6,7,_Remix_Guitar,0.979255735874176,0
63,100,0.12272727272727273,386,1,112,_Remix_Guitar,6,2,_Remix_Guitar,0.979256272315979,0
56,100,0.11818181818181818,9,1,113,_Remix_Guitar,6,2,_Remix_Guitar,0.9984880685806274,1
70,100,0.16363636363636364,267,1,113,_Remix_Guitar,6,3,_Remix_Guitar,0.06334447115659714,0
53,100,0.740909090909091,312,0,113,_Remix_Guitar,6,12,_Remix_Guitar,0.05773947387933731,0
53,100,0.18181818181818182,483,0,113,_Remix_Guitar,6,3,_Remix_Guitar,0.06019996479153633,0
53,100,0.18181818181818182,527,0,113,_Remix_Guitar,6,3,_Remix_Guitar,0.06969843059778214,0
53,100,0.1590909090909091,747,0,113,_Remix_Guitar,6,3,_Remix_Guitar,0.08189068734645844,0
53,100,0.11818181818181818,810,0,113,_Remix_Guitar,6,2,_Remix_Guitar,0.12401548773050308,0
55,100,0.22272727272727272,13,1,114,_Remix_Guitar,6,4,_Remix_Guitar,0.9792566299438477,0
56,100,0.1590909090909091,216,1,115,_Remix_Guitar,6,3,_Remix_Guitar,0.9990057349205017,1
53,100,0.1,650,1,115,_Remix_Guitar,6,2,_Remix_Guitar,0.2312048375606537,0
53,100,0.1409090909090909,747,0,115,_Remix_Guitar,6,2,_Remix_Guitar,0.2659232020378113,0
53,100,0.1590909090909091,857,0,115,_Remix_Guitar,6,3,_Remix_Guitar,0.35419410467147827,0
53,100,0.1590909090909091,30,1,116,_Remix_Guitar,6,3,_Remix_Guitar,0.9983165264129639,1
58,100,0.16363636363636364,69,0,116,_Remix_Guitar,6,3,_Remix_Guitar,0.5445587635040283,0
55,100,0.4,26,1,117,_Remix_Guitar,6,6,_Remix_Guitar,0.9983165264129639,1
55,100,0.3,127,0,117,_Remix_Guitar,6,5,_Remix_Guitar,0.5445570349693298,0
58,100,0.3,106,1,118,_Remix_Guitar,6,5,_Remix_Guitar,0.9986500144004822,1
53,100,0.1409090909090909,184,0,118,_Remix_Guitar,6,2,_Remix_Guitar,0.08780422806739807,0
53,100,0.1409090909090909,386,0,118,_Remix_Guitar,6,2,_Remix_Guitar,0.09181404858827591,0
53,100,0.13636363636363635,457,0,118,_Remix_Guitar,6,2,_Remix_Guitar,0.10747919231653214,0
62,100,0.1590909090909091,792,1,118,_Remix_Guitar,6,3,_Remix_Guitar,0.12482476979494095,0
62,100,0.37727272727272726,832,0,118,_Remix_Guitar,6,6,_Remix_Guitar,0.17903399467468262,0
55,100,0.38181818181818183,223,1,119,_Remix_Guitar,6,6,_Remix_Guitar,0.9983165264129639,1
53,100,0.12272727272727273,739,1,119,_Remix_Guitar,6,2,_Remix_Guitar,0.5445563793182373,0
60,100,0.2590909090909091,110,1,120,_Remix_Guitar,6,4,_Remix_Guitar,0.9983165264129639,1
53,100,0.1,866,1,120,_Remix_Guitar,6,2,_Remix_Guitar,0.5445549488067627,0
53,100,0.38181818181818183,22,1,121,_Remix_Guitar,6,6,_Remix_Guitar,0.9983003735542297,1
53,100,0.18181818181818182,113,0,121,_Remix_Guitar,6,3,_Remix_Guitar,0.04466383904218674,0
58,100,0.8818181818181818,153,0,121,_Remix_Guitar,6,14,_Remix_Guitar,0.03314807638525963,0
53,100,0.18181818181818182,377,0,121,_Remix_Guitar,6,3,_Remix_Guitar,0.026578471064567566,0
53,100,0.3,440,0,121,_Remix_Guitar,6,5,_Remix_Guitar,0.023593608289957047,0
53,100,0.3,519,0,121,_Remix_Guitar,6,5,_Remix_Guitar,0.024312607944011688,0
53,100,0.1590909090909091,637,0,121,_Remix_Guitar,6,3,_Remix_Guitar,0.029687676578760147,0
53,100,0.2409090909090909,752,0,121,_Remix_Guitar,6,4,_Remix_Guitar,0.04007449746131897,0
53,100,0.1409090909090909,826,0,121,_Remix_Guitar,6,2,_Remix_Guitar,0.07092611491680145,0
53,100,0.2409090909090909,0,1,122,_Remix_Guitar,6,4,_Remix_Guitar,0.9990229606628418,1
53,100,0.1409090909090909,56,0,122,_Remix_Guitar,6,2,_Remix_Guitar,0.36661818623542786,0
63,100,0.2818181818181818,729,1,122,_Remix_Guitar,6,5,_Remix_Guitar,0.45329105854034424,0
63,100,0.2772727272727273,722,1,123,_Remix_Guitar,6,4,_Remix_Guitar,0.9792563915252686,0
63,100,0.12272727272727273,312,1,124,_Remix_Guitar,6,2,_Remix_Guitar,0.9990229606628418,1
65,100,0.18181818181818182,637,1,124,_Remix_Guitar,6,3,_Remix_Guitar,0.3666226267814636,0
65,100,0.21818181818181817,682,0,124,_Remix_Guitar,6,3,_Remix_Guitar,0.45329704880714417,0
65,100,0.1409090909090909,286,1,125,_Remix_Guitar,6,2,_Remix_Guitar,0.9792561531066895,0
60,100,0.4409090909090909,87,1,126,_Remix_Guitar,6,7,_Remix_Guitar,0.9990230798721313,1
60,100,0.1,193,0,126,_Remix_Guitar,6,2,_Remix_Guitar,0.36662229895591736,0
63,100,0.1409090909090909,663,1,126,_Remix_Guitar,6,2,_Remix_Guitar,0.45328274369239807,0
58,100,0.17727272727272728,163,1,127,_Remix_Guitar,6,3,_Remix_Guitar,0.9990057349205017,1
63,100,0.21818181818181817,546,1,127,_Remix_Guitar,6,3,_Remix_Guitar,0.2312047779560089,0
58,100,0.2,734,0,127,_Remix_Guitar,6,3,_Remix_Guitar,0.26592516899108887,0
56,100,0.1,876,0,127,_Remix_Guitar,6,2,_Remix_Guitar,0.3541915714740753,0
58,100,0.2,436,1,128,_Remix_Guitar,6,3,_Remix_Guitar,0.9792561531066895,0
53,100,0.1,285,1,130,_Remix_Guitar,6,2,_Remix_Guitar,0.9988419413566589,1
53,100,0.1590909090909091,321,0,130,_Remix_Guitar,6,3,_Remix_Guitar,0.1372447907924652,0
60,100,0.4772727272727273,479,0,130,_Remix_Guitar,6,8,_Remix_Guitar,0.159774512052536,0
60,100,0.2818181818181818,704,0,130,_Remix_Guitar,6,5,_Remix_Guitar,0.18644927442073822,0
53,100,0.6,773,0,130,_Remix_Guitar,6,10,_Remix_Guitar,0.2581624388694763,0
56,100,0.17727272727272728,39,1,131,_Remix_Guitar,6,3,_Remix_Guitar,0.9990057349205017,1
60,100,0.2590909090909091,338,1,131,_Remix_Guitar,6,4,_Remix_Guitar,0.23120702803134918,0
58,100,0.12272727272727273,400,0,131,_Remix_Guitar,6,2,_Remix_Guitar,0.265922486782074,0
58,100,0.18181818181818182,431,0,131,_Remix_Guitar,6,3,_Remix_Guitar,0.35419395565986633,0
58,100,0.16363636363636364,751,1,132,_Remix_Guitar,6,3,_Remix_Guitar,0.9792566299438477,0
53,100,0.1409090909090909,603,1,133,_Remix_Guitar,6,2,_Remix_Guitar,0.9983164072036743,1
58,100,0.2772727272727273,831,0,133,_Remix_Guitar,6,4,_Remix_Guitar,0.5445622205734253,0
58,100,0.1409090909090909,30,1,134,_Remix_Guitar,6,2,_Remix_Guitar,0.9983737468719482,1
58,100,0.2636363636363636,70,0,134,_Remix_Guitar,6,4,_Remix_Guitar,0.051059696823358536,0
58,100,0.2409090909090909,273,0,134,_Remix_Guitar,6,4,_Remix_Guitar,0.04130247235298157,0
58,100,0.41818181818181815,352,0,134,_Remix_Guitar,6,7,_Remix_Guitar,0.03738421946763992,0
53,100,0.1,479,0,134,_Remix_Guitar,6,2,_Remix_Guitar,0.03832847625017166,0
53,100,0.1,546,0,134,_Remix_Guitar,6,2,_Remix_Guitar,0.04474935680627823,0
62,100,0.13636363636363635,678,0,134,_Remix_Guitar,6,2,_Remix_Guitar,0.05522632226347923,0
58,100,0.11818181818181818,721,0,134,_Remix_Guitar,6,2,_Remix_Guitar,0.09026158601045609,0
63,100,0.1,694,1,135,_Remix_Guitar,6,2,_Remix_Guitar,0.9983165264129639,1
63,100,0.1409090909090909,747,0,135,_Remix_Guitar,6,2,_Remix_Guitar,0.5445597767829895,0
63,100,0.38181818181818183,840,1,136,_Remix_Guitar,6,6,_Remix_Guitar,0.979256272315979,0
58,100,0.4772727272727273,53,1,138,_Remix_Guitar,6,8,_Remix_Guitar,0.9990057349205017,1
58,100,0.17727272727272728,273,0,138,_Remix_Guitar,6,3,_Remix_Guitar,0.231204554438591,0
58,100,0.2818181818181818,725,1,138,_Remix_Guitar,6,5,_Remix_Guitar,0.2659186124801636,0
53,100,0.1,796,0,138,_Remix_Guitar,6,2,_Remix_Guitar,0.35419198870658875,0
63,100,0.5,264,1,139,_Remix_Guitar,6,8,_Remix_Guitar,0.9990057349205017,1
55,100,0.12272727272727273,466,0,139,_Remix_Guitar,6,2,_Remix_Guitar,0.23120440542697906,0
53,100,0.12272727272727273,562,0,139,_Remix_Guitar,6,2,_Remix_Guitar,0.26591378450393677,0
53,100,0.11818181818181818,594,0,139,_Remix_Guitar,6,2,_Remix_Guitar,0.35419589281082153,0
53,100,0.1,185,1,140,_Remix_Guitar,6,2,_Remix_Guitar,0.9988419413566589,1
53,100,0.2590909090909091,211,0,140,_Remix_Guitar,6,4,_Remix_Guitar,0.13724493980407715,0
53,100,0.13636363636363635,611,1,140,_Remix_Guitar,6,2,_Remix_Guitar,0.15977591276168823,0
58,100,0.18181818181818182,694,0,140,_Remix_Guitar,6,3,_Remix_Guitar,0.1864531934261322,0
53,100,0.2409090909090909,823,0,140,_Remix_Guitar,6,4,_Remix_Guitar,0.2581627368927002,0
58,100,0.2590909090909091,12,1,141,_Remix_Guitar,6,4,_Remix_Guitar,0.9986500144004822,1
58,100,0.2,75,0,141,_Remix_Guitar,6,3,_Remix_Guitar,0.0878007560968399,0
53,100,0.4,166,0,141,_Remix_Guitar,6,6,_Remix_Guitar,0.0918094739317894,0
53,100,0.35909090909090907,452,1,141,_Remix_Guitar,6,6,_Remix_Guitar,0.10747253894805908,0
53,100,0.1,576,0,141,_Remix_Guitar,6,2,_Remix_Guitar,0.12482146918773651,0
58,100,0.2,660,0,141,_Remix_Guitar,6,3,_Remix_Guitar,0.1790221929550171,0
58,100,0.1409090909090909,818,1,142,_Remix_Guitar,6,2,_Remix_Guitar,0.9792567491531372,1
58,100,0.21818181818181817,436,1,143,_Remix_Guitar,6,3,_Remix_Guitar,0.9792561531066895,0
63,100,0.18181818181818182,871,1,145,_Remix_Guitar,6,3,_Remix_Guitar,0.9792561531066895,0
55,100,0.4818181818181818,158,1,146,_Remix_Guitar,6,8,_Remix_Guitar,0.9990230798721313,1
55,100,0.1,342,0,146,_Remix_Guitar,6,2,_Remix_Guitar,0.36663156747817993,0
53,100,0.1,546,0,146,_Remix_Guitar,6,2,_Remix_Guitar,0.45328283309936523,0
59,100,0.1409090909090909,686,1,0,DL_warmFolk_Guitar,6,2,DL_warmFolk_Guitar,0.9792559146881104,0
67,100,0.18181818181818182,0,1,1,DL_warmFolk_Guitar,6,3,DL_warmFolk_Guitar,0.9990229606628418,1
57,100,0.22272727272727272,554,1,1,DL_warmFolk_Guitar,6,4,DL_warmFolk_Guitar,0.36662548780441284,0
56,100,0.1409090909090909,603,0,1,DL_warmFolk_Guitar,6,2,DL_warmFolk_Guitar,0.45328372716903687,0
59,100,0.18181818181818182,672,1,2,DL_warmFolk_Guitar,6,3,DL_warmFolk_Guitar,0.9792559146881104,0
55,100,0.35909090909090907,198,1,3,DL_warmFolk_Guitar,6,6,DL_warmFolk_Guitar,0.9990057349205017,1
61,100,0.1590909090909091,739,1,3,DL_warmFolk_Guitar,6,3,DL_warmFolk_Guitar,0.23120132088661194,0
57,100,0.2590909090909091,782,0,3,DL_warmFolk_Guitar,6,4,DL_warmFolk_Guitar,0.2659222185611725,0
56,100,0.18181818181818182,840,0,3,DL_warmFolk_Guitar,6,3,DL_warmFolk_Guitar,0.3541981875896454,0
64,100,0.22272727272727272,532,1,4,DL_warmFolk_Guitar,6,4,DL_warmFolk_Guitar,0.9983165264129639,1
57,100,0.17727272727272728,655,0,4,DL_warmFolk_Guitar,6,3,DL_warmFolk_Guitar,0.5445548295974731,0
57,100,0.1,114,1,5,DL_warmFolk_Guitar,6,2,DL_warmFolk_Guitar,0.9990057349205017,1
55,100,0.1590909090909091,145,0,5,DL_warmFolk_Guitar,6,3,DL_warmFolk_Guitar,0.23120485246181488,0
59,100,0.32272727272727275,268,0,5,DL_warmFolk_Guitar,6,5,DL_warmFolk_Guitar,0.26592370867729187,0
55,100,0.2,435,0,5,DL_warmFolk_Guitar,6,3,DL_warmFolk_Guitar,0.35419803857803345,0
57,100,0.2636363636363636,135,1,6,DL_warmFolk_Guitar,6,4,DL_warmFolk_Guitar,0.9983165264129639,1
56,100,0.2,201,0,6,DL_warmFolk_Guitar,6,3,DL_warmFolk_Guitar,0.5445596575737,0
54,100,0.5409090909090909,255,1,7,DL_warmFolk_Guitar,6,9,DL_warmFolk_Guitar,0.9983165264129639,1
59,100,0.3,506,1,7,DL_warmFolk_Guitar,6,5,DL_warmFolk_Guitar,0.544556736946106,0
57,100,0.2818181818181818,378,1,8,DL_warmFolk_Guitar,6,5,DL_warmFolk_Guitar,0.9990229606628418,1
56,100,0.2,440,0,8,DL_warmFolk_Guitar,6,3,DL_warmFolk_Guitar,0.3666260838508606,0
54,100,0.1409090909090909,615,0,8,DL_warmFolk_Guitar,6,2,DL_warmFolk_Guitar,0.4532936215400696,0
62,100,0.22272727272727272,312,1,9,DL_warmFolk_Guitar,6,4,DL_warmFolk_Guitar,0.9986500144004822,1
57,100,0.8772727272727273,369,0,9,DL_warmFolk_Guitar,6,14,DL_warmFolk_Guitar,0.08780401945114136,0
57,100,0.1,572,0,9,DL_warmFolk_Guitar,6,2,DL_warmFolk_Guitar,0.09181547909975052,0
55,100,0.1,615,0,9,DL_warmFolk_Guitar,6,2,DL_warmFolk_Guitar,0.1074812188744545,0
59,100,0.2772727272727273,735,0,9,DL_warmFolk_Guitar,6,4,DL_warmFolk_Guitar,0.12482723593711853,0
62,100,0.2,809,0,9,DL_warmFolk_Guitar,6,3,DL_warmFolk_Guitar,0.17903795838356018,0
55,100,0.21818181818181817,30,1,10,DL_warmFolk_Guitar,6,3,DL_warmFolk_Guitar,0.9990057349205017,1
55,100,0.23636363636363636,106,0,10,DL_warmFolk_Guitar,6,4,DL_warmFolk_Guitar,0.23120631277561188,0
57,100,0.2,527,1,10,DL_warmFolk_Guitar,6,3,DL_warmFolk_Guitar,0.265915185213089,0
61,100,0.1,694,0,10,DL_warmFolk_Guitar,6,2,DL_warmFolk_Guitar,0.35419946908950806,0
62,100,0.11818181818181818,615,1,12,DL_warmFolk_Guitar,6,2,DL_warmFolk_Guitar,0.9990057349205017,1
57,100,0.1409090909090909,730,0,12,DL_warmFolk_Guitar,6,2,DL_warmFolk_Guitar,0.23120379447937012,0
59,100,0.21818181818181817,787,0,12,DL_warmFolk_Guitar,6,3,DL_warmFolk_Guitar,0.2659320831298828,0
62,100,0.1409090909090909,845,0,12,DL_warmFolk_Guitar,6,2,DL_warmFolk_Guitar,0.3542015552520752,0
57,100,0.2818181818181818,268,1,13,DL_warmFolk_Guitar,6,5,DL_warmFolk_Guitar,0.9990057349205017,1
57,100,0.13636363636363635,414,0,13,DL_warmFolk_Guitar,6,2,DL_warmFolk_Guitar,0.23121057450771332,0
59,100,0.2409090909090909,581,0,13,DL_warmFolk_Guitar,6,4,DL_warmFolk_Guitar,0.2659280300140381,0
61,100,0.2409090909090909,835,1,13,DL_warmFolk_Guitar,6,4,DL_warmFolk_Guitar,0.3541955053806305,0
57,100,0.2,25,1,14,DL_warmFolk_Guitar,6,3,DL_warmFolk_Guitar,0.9990057349205017,1
52,100,0.11818181818181818,87,0,14,DL_warmFolk_Guitar,6,2,DL_warmFolk_Guitar,0.23120644688606262,0
62,100,0.22272727272727272,386,1,14,DL_warmFolk_Guitar,6,4,DL_warmFolk_Guitar,0.265926718711853,0
55,100,0.1,527,0,14,DL_warmFolk_Guitar,6,2,DL_warmFolk_Guitar,0.35419961810112,0
57,100,0.5590909090909091,519,1,80,DL_warmFolk_Guitar,6,9,DL_warmFolk_Guitar,0.9990229606628418,1
62,100,0.5590909090909091,646,0,80,DL_warmFolk_Guitar,6,9,DL_warmFolk_Guitar,0.36662110686302185,0
64,100,0.2590909090909091,770,0,80,DL_warmFolk_Guitar,6,4,DL_warmFolk_Guitar,0.45330139994621277,0
69,100,0.1,17,1,81,DL_warmFolk_Guitar,6,2,DL_warmFolk_Guitar,0.9986500144004822,1
71,100,0.6590909090909091,53,0,81,DL_warmFolk_Guitar,6,11,DL_warmFolk_Guitar,0.08780591189861298,0
74,100,0.3181818181818182,206,0,81,DL_warmFolk_Guitar,6,5,DL_warmFolk_Guitar,0.09181791543960571,0
71,100,1.2181818181818183,370,0,81,DL_warmFolk_Guitar,6,15,DL_warmFolk_Guitar,0.10748614370822906,0
69,100,0.5,642,1,81,DL_warmFolk_Guitar,6,8,DL_warmFolk_Guitar,0.12483441084623337,0
69,100,0.5772727272727273,756,0,81,DL_warmFolk_Guitar,6,9,DL_warmFolk_Guitar,0.17904627323150635,0
67,100,0.5590909090909091,9,1,82,DL_warmFolk_Guitar,6,9,DL_warmFolk_Guitar,0.9988419413566589,1
66,100,0.740909090909091,132,0,82,DL_warmFolk_Guitar,6,12,DL_warmFolk_Guitar,0.13725468516349792,0
69,100,0.5590909090909091,316,0,82,DL_warmFolk_Guitar,6,9,DL_warmFolk_Guitar,0.1597810834646225,0
69,100,0.17727272727272728,457,0,82,DL_warmFolk_Guitar,6,3,DL_warmFolk_Guitar,0.1864636391401291,0
62,100,2.9,502,0,82,DL_warmFolk_Guitar,6,15,DL_warmFolk_Guitar,0.25815486907958984,0
74,100,0.2772727272727273,260,1,83,DL_warmFolk_Guitar,6,4,DL_warmFolk_Guitar,0.9984880685806274,1
62,100,0.4818181818181818,320,0,83,DL_warmFolk_Guitar,6,8,DL_warmFolk_Guitar,0.06334744393825531,0
74,100,0.3409090909090909,426,0,83,DL_warmFolk_Guitar,6,5,DL_warmFolk_Guitar,0.05774360150098801,0
76,100,0.1,502,0,83,DL_warmFolk_Guitar,6,2,DL_warmFolk_Guitar,0.06020522490143776,0
74,100,0.4,527,0,83,DL_warmFolk_Guitar,6,6,DL_warmFolk_Guitar,0.06970786303281784,0
78,100,1.018181818181818,624,0,83,DL_warmFolk_Guitar,6,15,DL_warmFolk_Guitar,0.0819026455283165,0
74,100,0.5181818181818182,876,1,83,DL_warmFolk_Guitar,6,8,DL_warmFolk_Guitar,0.12403373420238495,0
76,100,0.5818181818181818,113,1,84,DL_warmFolk_Guitar,6,9,DL_warmFolk_Guitar,0.9984880685806274,1
73,100,0.5409090909090909,242,0,84,DL_warmFolk_Guitar,6,9,DL_warmFolk_Guitar,0.06334639340639114,0
78,100,0.8227272727272728,365,0,84,DL_warmFolk_Guitar,6,13,DL_warmFolk_Guitar,0.05774402245879173,0
74,100,0.1,550,0,84,DL_warmFolk_Guitar,6,2,DL_warmFolk_Guitar,0.06020470708608627,0
76,100,0.35909090909090907,572,0,84,DL_warmFolk_Guitar,6,6,DL_warmFolk_Guitar,0.06970933079719543,0
78,100,0.1590909090909091,690,0,84,DL_warmFolk_Guitar,6,3,DL_warmFolk_Guitar,0.08190260827541351,0
74,100,2.8181818181818183,734,0,84,DL_warmFolk_Guitar,6,15,DL_warmFolk_Guitar,0.12402361631393433,0
78,100,0.5590909090909091,527,1,85,DL_warmFolk_Guitar,6,9,DL_warmFolk_Guitar,0.9990057349205017,1
57,100,0.5409090909090909,713,0,85,DL_warmFolk_Guitar,6,9,DL_warmFolk_Guitar,0.23120564222335815,0
69,100,0.11818181818181818,832,0,85,DL_warmFolk_Guitar,6,2,DL_warmFolk_Guitar,0.2659246325492859,0
74,100,0.38181818181818183,870,0,85,DL_warmFolk_Guitar,6,6,DL_warmFolk_Guitar,0.3542000651359558,0
76,100,0.1590909090909091,96,1,86,DL_warmFolk_Guitar,6,3,DL_warmFolk_Guitar,0.9983003735542297,1
57,100,0.38181818181818183,132,0,86,DL_warmFolk_Guitar,6,6,DL_warmFolk_Guitar,0.04466501623392105,0
69,100,0.6,216,0,86,DL_warmFolk_Guitar,6,10,DL_warmFolk_Guitar,0.033150963485240936,0
74,100,0.5,352,0,86,DL_warmFolk_Guitar,6,8,DL_warmFolk_Guitar,0.026580533012747765,0
76,100,0.18181818181818182,466,0,86,DL_warmFolk_Guitar,6,3,DL_warmFolk_Guitar,0.02359771728515625,0
78,100,0.3,514,0,86,DL_warmFolk_Guitar,6,5,DL_warmFolk_Guitar,0.02431643195450306,0
76,100,0.9,590,0,86,DL_warmFolk_Guitar,6,14,DL_warmFolk_Guitar,0.029691604897379875,0
81,100,0.3181818181818182,792,0,86,DL_warmFolk_Guitar,6,5,DL_warmFolk_Guitar,0.0400795079767704,0
57,100,0.4409090909090909,862,0,86,DL_warmFolk_Guitar,6,7,DL_warmFolk_Guitar,0.07093175500631332,0
74,100,1.1409090909090909,87,1,87,DL_warmFolk_Guitar,6,15,DL_warmFolk_Guitar,0.9986500144004822,1
66,100,0.2818181818181818,343,1,87,DL_warmFolk_Guitar,6,5,DL_warmFolk_Guitar,0.0878048986196518,0
66,100,0.7772727272727272,470,0,87,DL_warmFolk_Guitar,6,12,DL_warmFolk_Guitar,0.09181258827447891,0
66,100,0.12272727272727273,695,0,87,DL_warmFolk_Guitar,6,2,DL_warmFolk_Guitar,0.10747919976711273,0
62,100,0.43636363636363634,722,0,87,DL_warmFolk_Guitar,6,7,DL_warmFolk_Guitar,0.12482511252164841,0
64,100,0.740909090909091,836,0,87,DL_warmFolk_Guitar,6,12,DL_warmFolk_Guitar,0.17903368175029755,0
66,100,0.6,132,1,88,DL_warmFolk_Guitar,6,10,DL_warmFolk_Guitar,0.9986500144004822,1
61,100,0.5590909090909091,299,0,88,DL_warmFolk_Guitar,6,9,DL_warmFolk_Guitar,0.0878036767244339,0
62,100,0.32272727272727275,453,0,88,DL_warmFolk_Guitar,6,5,DL_warmFolk_Guitar,0.09181652218103409,0
62,100,0.1590909090909091,536,0,88,DL_warmFolk_Guitar,6,3,DL_warmFolk_Guitar,0.10748564451932907,0
61,100,0.5590909090909091,572,0,88,DL_warmFolk_Guitar,6,9,DL_warmFolk_Guitar,0.1248319149017334,0
62,100,2.459090909090909,700,0,88,DL_warmFolk_Guitar,6,15,DL_warmFolk_Guitar,0.17903931438922882,0
55,100,0.2590909090909091,475,1,0,_Guitar,6,4,_Guitar,0.9990057349205017,1
52,100,0.1590909090909091,704,0,0,_Guitar,6,3,_Guitar,0.2312038391828537,0
52,100,0.17727272727272728,757,0,0,_Guitar,6,3,_Guitar,0.2659212350845337,0
55,100,0.35909090909090907,871,0,0,_Guitar,6,6,_Guitar,0.35419803857803345,0
55,100,0.18181818181818182,597,1,1,_Guitar,6,3,_Guitar,0.9983165264129639,1
55,100,0.3,642,0,1,_Guitar,6,5,_Guitar,0.5445585250854492,0
55,100,0.11818181818181818,339,1,2,_Guitar,6,2,_Guitar,0.9983165264129639,1
60,100,0.2590909090909091,474,0,2,_Guitar,6,4,_Guitar,0.5445578694343567,0
55,100,0.32272727272727275,136,1,3,_Guitar,6,5,_Guitar,0.9988419413566589,1
53,100,0.2590909090909091,351,0,3,_Guitar,6,4,_Guitar,0.1372479945421219,0
53,100,0.1409090909090909,537,0,3,_Guitar,6,2,_Guitar,0.15977945923805237,0
57,100,0.5,571,0,3,_Guitar,6,8,_Guitar,0.18644961714744568,0
57,100,0.2590909090909091,703,0,3,_Guitar,6,4,_Guitar,0.2581685781478882,0
57,100,0.1590909090909091,61,1,4,_Guitar,6,3,_Guitar,0.9986500144004822,1
53,100,0.35909090909090907,101,0,4,_Guitar,6,6,_Guitar,0.08780357986688614,0
52,100,0.2,179,0,4,_Guitar,6,3,_Guitar,0.09181533008813858,0
52,100,0.2,238,0,4,_Guitar,6,3,_Guitar,0.10747968405485153,0
55,100,0.1409090909090909,317,0,4,_Guitar,6,2,_Guitar,0.12482751905918121,0
60,100,0.4,496,0,4,_Guitar,6,6,_Guitar,0.1790330559015274,0
57,100,0.5,317,1,5,_Guitar,6,8,_Guitar,0.9983165264129639,1
55,100,1.0,744,1,5,_Guitar,6,15,_Guitar,0.5445539355278015,0
55,100,0.1409090909090909,135,1,6,_Guitar,6,2,_Guitar,0.9990229606628418,1
52,100,0.5590909090909091,352,0,6,_Guitar,6,9,_Guitar,0.3666243255138397,0
55,100,1.3818181818181818,483,0,6,_Guitar,6,15,_Guitar,0.4532892405986786,0
55,100,0.8590909090909091,220,1,7,_Guitar,6,14,_Guitar,0.9792559146881104,0
52,100,0.7181818181818181,250,1,8,_Guitar,6,11,_Guitar,0.9986500144004822,1
55,100,0.33636363636363636,436,0,8,_Guitar,6,5,_Guitar,0.08780407905578613,0
55,100,0.1590909090909091,515,0,8,_Guitar,6,3,_Guitar,0.09181584417819977,0
57,100,0.7772727272727272,567,0,8,_Guitar,6,12,_Guitar,0.10747811198234558,0
57,100,0.4,744,0,8,_Guitar,6,6,_Guitar,0.12482759356498718,0
53,100,0.759090909090909,871,0,8,_Guitar,6,12,_Guitar,0.17903412878513336,0
53,100,0.18181818181818182,166,1,9,_Guitar,6,3,_Guitar,0.9990229606628418,1
53,100,0.11818181818181818,259,0,9,_Guitar,6,2,_Guitar,0.36663156747817993,0
57,100,1.3590909090909091,295,0,9,_Guitar,6,15,_Guitar,0.4532765746116638,0
52,100,0.6818181818181818,44,1,10,_Guitar,6,11,_Guitar,0.9983165264129639,1
55,100,0.9818181818181818,660,1,10,_Guitar,6,15,_Guitar,0.5445536375045776,0
55,100,0.3,0,1,11,_Guitar,6,5,_Guitar,0.9984880685806274,1
52,100,0.6181818181818182,228,0,11,_Guitar,6,10,_Guitar,0.06334560364484787,0
55,100,0.4590909090909091,383,0,11,_Guitar,6,7,_Guitar,0.05774230509996414,0
55,100,0.11818181818181818,493,0,11,_Guitar,6,2,_Guitar,0.06020401045680046,0
53,100,0.3181818181818182,646,0,11,_Guitar,6,5,_Guitar,0.06970255821943283,0
57,100,0.2409090909090909,783,0,11,_Guitar,6,4,_Guitar,0.08189572393894196,0
53,100,0.18181818181818182,849,0,11,_Guitar,6,3,_Guitar,0.12402496486902237,0
55,100,0.1,352,1,12,_Guitar,6,2,_Guitar,0.9990057349205017,1
55,100,0.38181818181818183,462,0,12,_Guitar,6,6,_Guitar,0.23121057450771332,0
55,100,0.21818181818181817,634,0,12,_Guitar,6,3,_Guitar,0.2659187316894531,0
55,100,0.4,871,1,12,_Guitar,6,6,_Guitar,0.3541913628578186,0
52,100,0.21818181818181817,110,1,13,_Guitar,6,3,_Guitar,0.9990057349205017,1
52,100,0.6,171,0,13,_Guitar,6,10,_Guitar,0.2312001734972,0
60,100,0.32272727272727275,321,0,13,_Guitar,6,5,_Guitar,0.26592275500297546,0
55,100,0.2409090909090909,663,1,13,_Guitar,6,4,_Guitar,0.3541903793811798,0
57,100,0.35909090909090907,206,1,14,_Guitar,6,6,_Guitar,0.9990057349205017,1
60,100,0.2818181818181818,386,0,14,_Guitar,6,5,_Guitar,0.23121219873428345,0
53,100,0.21818181818181817,493,0,14,_Guitar,6,3,_Guitar,0.2659255862236023,0
62,100,0.37727272727272726,546,0,14,_Guitar,6,6,_Guitar,0.35420000553131104,0
52,100,0.35909090909090907,189,1,15,_Guitar,6,6,_Guitar,0.9990229606628418,1
64,100,0.2,716,1,15,_Guitar,6,3,_Guitar,0.3666157126426697,0
64,100,0.1,766,0,15,_Guitar,6,2,_Guitar,0.45329880714416504,0
57,100,0.3181818181818182,281,1,16,_Guitar,6,5,_Guitar,0.9990057349205017,1
52,100,0.2,598,1,16,_Guitar,6,3,_Guitar,0.23120954632759094,0
52,100,0.18181818181818182,650,0,16,_Guitar,6,3,_Guitar,0.26592639088630676,0
57,100,0.12272727272727273,804,0,16,_Guitar,6,2,_Guitar,0.3542018532752991,0
59,100,1.2,9,1,17,_Guitar,6,15,_Guitar,0.9990229606628418,1
53,100,0.18181818181818182,285,1,17,_Guitar,6,3,_Guitar,0.3666238784790039,0
57,100,0.21818181818181817,470,0,17,_Guitar,6,3,_Guitar,0.45328807830810547,0
56,100,0.7181818181818181,656,1,18,_Guitar,6,11,_Guitar,0.9792558550834656,0
56,100,0.2409090909090909,88,1,19,_Guitar,6,4,_Guitar,0.9983164072036743,1
56,100,0.8590909090909091,144,0,19,_Guitar,6,14,_Guitar,0.5445549488067627,0
57,100,0.18181818181818182,88,1,20,_Guitar,6,3,_Guitar,0.9792563915252686,0
55,100,0.2590909090909091,131,1,22,_Guitar,6,4,_Guitar,0.9988420605659485,1
55,100,0.3409090909090909,210,0,22,_Guitar,6,5,_Guitar,0.1372525840997696,0
55,100,0.1409090909090909,333,0,22,_Guitar,6,2,_Guitar,0.15977536141872406,0
55,100,0.5409090909090909,405,0,22,_Guitar,6,9,_Guitar,0.18644516170024872,0
52,100,0.33636363636363636,831,1,22,_Guitar,6,5,_Guitar,0.25815847516059875,0
52,100,0.2590909090909091,61,1,23,_Guitar,6,4,_Guitar,0.9984880685806274,1
52,100,0.5590909090909091,123,0,23,_Guitar,6,9,_Guitar,0.06334506720304489,0
52,100,0.2818181818181818,277,0,23,_Guitar,6,5,_Guitar,0.0577436201274395,0
55,100,0.32272727272727275,356,0,23,_Guitar,6,5,_Guitar,0.06020331010222435,0
52,100,0.3409090909090909,426,0,23,_Guitar,6,5,_Guitar,0.06970693171024323,0
55,100,0.5181818181818182,581,0,23,_Guitar,6,8,_Guitar,0.08189553022384644,0
55,100,0.37727272727272726,779,0,23,_Guitar,6,6,_Guitar,0.12402540445327759,0
55,100,0.16363636363636364,113,1,24,_Guitar,6,3,_Guitar,0.9983004927635193,1
55,100,0.22272727272727272,246,0,24,_Guitar,6,4,_Guitar,0.04466329887509346,0
53,100,0.4409090909090909,308,0,24,_Guitar,6,7,_Guitar,0.0331488698720932,0
53,100,0.4,430,0,24,_Guitar,6,6,_Guitar,0.026578865945339203,0
53,100,0.4,594,0,24,_Guitar,6,6,_Guitar,0.023594383150339127,0
57,100,0.3,694,0,24,_Guitar,6,5,_Guitar,0.024313705042004585,0
53,100,0.2,770,0,24,_Guitar,6,3,_Guitar,0.029688507318496704,0
57,100,0.1,822,0,24,_Guitar,6,2,_Guitar,0.040074627846479416,0
53,100,0.1590909090909091,853,0,24,_Guitar,6,3,_Guitar,0.0709284096956253,0
55,100,0.5636363636363636,69,1,25,_Guitar,6,9,_Guitar,0.9983736276626587,1
52,100,0.12272727272727273,210,0,25,_Guitar,6,2,_Guitar,0.051062215119600296,0
52,100,0.17727272727272728,250,0,25,_Guitar,6,3,_Guitar,0.041302841156721115,0
52,100,0.21818181818181817,374,0,25,_Guitar,6,3,_Guitar,0.03738662973046303,0
52,100,0.1,457,0,25,_Guitar,6,2,_Guitar,0.03833248093724251,0
55,100,0.11818181818181818,492,0,25,_Guitar,6,2,_Guitar,0.04475383460521698,0
52,100,0.6227272727272727,663,0,25,_Guitar,6,10,_Guitar,0.05523364245891571,0
57,100,0.3,839,0,25,_Guitar,6,5,_Guitar,0.09026835113763809,0
52,100,0.18181818181818182,443,1,26,_Guitar,6,3,_Guitar,0.9990057349205017,1
52,100,0.35909090909090907,501,0,26,_Guitar,6,6,_Guitar,0.23120003938674927,0
52,100,0.42272727272727273,752,1,26,_Guitar,6,7,_Guitar,0.26591742038726807,0
52,100,0.5818181818181818,862,0,26,_Guitar,6,9,_Guitar,0.3541998267173767,0
53,100,0.12272727272727273,123,1,27,_Guitar,6,2,_Guitar,0.9984880685806274,1
53,100,0.2818181818181818,154,0,27,_Guitar,6,5,_Guitar,0.06334275752305984,0
53,100,0.2590909090909091,220,0,27,_Guitar,6,4,_Guitar,0.057739678770303726,0
53,100,0.4590909090909091,413,0,27,_Guitar,6,7,_Guitar,0.060197968035936356,0
57,100,0.1590909090909091,615,0,27,_Guitar,6,3,_Guitar,0.06969784200191498,0
53,100,0.2818181818181818,660,0,27,_Guitar,6,5,_Guitar,0.0818890929222107,0
55,100,0.1,791,0,27,_Guitar,6,2,_Guitar,0.12401356548070908,0
55,100,0.11818181818181818,285,1,28,_Guitar,6,2,_Guitar,0.9990057349205017,1
52,100,0.11818181818181818,470,0,28,_Guitar,6,2,_Guitar,0.2312011867761612,0
52,100,0.2,717,1,28,_Guitar,6,3,_Guitar,0.26591894030570984,0
52,100,0.3409090909090909,773,0,28,_Guitar,6,5,_Guitar,0.35420119762420654,0
55,100,0.1590909090909091,17,1,29,_Guitar,6,3,_Guitar,0.9986500144004822,1
55,100,0.5,206,0,29,_Guitar,6,8,_Guitar,0.08780308812856674,0
55,100,0.3181818181818182,426,0,29,_Guitar,6,5,_Guitar,0.09181294590234756,0
62,100,0.1409090909090909,584,0,29,_Guitar,6,2,_Guitar,0.10747744888067245,0
55,100,0.11818181818181818,735,0,29,_Guitar,6,2,_Guitar,0.12482557445764542,0
53,100,0.3,818,0,29,_Guitar,6,5,_Guitar,0.17903240025043488,0
53,100,0.2818181818181818,92,1,30,_Guitar,6,5,_Guitar,0.9988419413566589,1
53,100,0.32272727272727275,223,0,30,_Guitar,6,5,_Guitar,0.13724450767040253,0
53,100,0.37727272727272726,303,0,30,_Guitar,6,6,_Guitar,0.15977129340171814,0
53,100,0.11818181818181818,413,0,30,_Guitar,6,2,_Guitar,0.18644633889198303,0
53,100,0.32272727272727275,474,0,30,_Guitar,6,5,_Guitar,0.25815409421920776,0
52,100,0.1590909090909091,285,1,31,_Guitar,6,3,_Guitar,0.9986500144004822,1
52,100,0.1,333,0,31,_Guitar,6,2,_Guitar,0.08780460804700851,0
52,100,0.5,430,0,31,_Guitar,6,8,_Guitar,0.091817706823349,0
52,100,0.8409090909090909,576,0,31,_Guitar,6,13,_Guitar,0.1074867993593216,0
57,100,0.1590909090909091,760,0,31,_Guitar,6,3,_Guitar,0.12483389675617218,0
57,100,0.11818181818181818,801,0,31,_Guitar,6,2,_Guitar,0.17904089391231537,0
62,100,0.13636363636363635,348,1,32,_Guitar,6,2,_Guitar,0.9983165264129639,1
55,100,0.7181818181818181,778,1,32,_Guitar,6,11,_Guitar,0.5445566773414612,0
55,100,0.11818181818181818,206,1,33,_Guitar,6,2,_Guitar,0.9986500144004822,1
52,100,0.2,295,0,33,_Guitar,6,3,_Guitar,0.08780337125062943,0
52,100,0.2,461,0,33,_Guitar,6,3,_Guitar,0.09181486070156097,0
52,100,0.1,691,0,33,_Guitar,6,2,_Guitar,0.10748165845870972,0
67,100,0.1590909090909091,783,0,33,_Guitar,6,3,_Guitar,0.12482708692550659,0
55,100,0.5409090909090909,818,0,33,_Guitar,6,9,_Guitar,0.17903685569763184,0
60,100,0.1409090909090909,541,1,34,_Guitar,6,2,_Guitar,0.9983165264129639,1
55,100,0.18181818181818182,871,1,34,_Guitar,6,3,_Guitar,0.5445566773414612,0
62,100,1.018181818181818,141,1,35,_Guitar,6,15,_Guitar,0.9988419413566589,1
57,100,0.16363636363636364,444,1,35,_Guitar,6,3,_Guitar,0.13725408911705017,0
57,100,0.4,660,0,35,_Guitar,6,6,_Guitar,0.15978220105171204,0
60,100,0.11818181818181818,765,0,35,_Guitar,6,2,_Guitar,0.1864597201347351,0
57,100,0.12272727272727273,826,0,35,_Guitar,6,2,_Guitar,0.2581712603569031,0
57,100,0.22272727272727272,26,1,36,_Guitar,6,4,_Guitar,0.9983165264129639,1
62,100,0.3409090909090909,554,1,36,_Guitar,6,5,_Guitar,0.5445606708526611,0
53,100,0.11818181818181818,220,1,37,_Guitar,6,2,_Guitar,0.9990229606628418,1
52,100,0.13636363636363635,700,1,37,_Guitar,6,2,_Guitar,0.3666238784790039,0
52,100,0.3181818181818182,866,0,37,_Guitar,6,5,_Guitar,0.4532952606678009,0
52,100,0.3409090909090909,96,1,38,_Guitar,6,5,_Guitar,0.9984880685806274,1
60,100,0.4,171,0,38,_Guitar,6,6,_Guitar,0.06334777921438217,0
57,100,0.35909090909090907,260,0,38,_Guitar,6,6,_Guitar,0.05774310603737831,0
57,100,0.740909090909091,386,0,38,_Guitar,6,12,_Guitar,0.06020449846982956,0
62,100,0.3181818181818182,646,1,38,_Guitar,6,5,_Guitar,0.06970500200986862,0
57,100,0.12272727272727273,738,0,38,_Guitar,6,2,_Guitar,0.08189746737480164,0
53,100,0.3181818181818182,810,0,38,_Guitar,6,5,_Guitar,0.1240258738398552,0
62,100,0.17727272727272728,361,1,39,_Guitar,6,3,_Guitar,0.9990229606628418,1
59,100,0.2,471,0,39,_Guitar,6,3,_Guitar,0.36662206053733826,0
52,100,0.6227272727272727,774,1,39,_Guitar,6,10,_Guitar,0.4533011019229889,0
60,100,0.5181818181818182,75,1,40,_Guitar,6,8,_Guitar,0.9988419413566589,1
52,100,0.2818181818181818,201,0,40,_Guitar,6,5,_Guitar,0.13725179433822632,0
55,100,0.13636363636363635,303,0,40,_Guitar,6,2,_Guitar,0.15977632999420166,0
55,100,0.2409090909090909,488,0,40,_Guitar,6,4,_Guitar,0.18645060062408447,0
55,100,0.36363636363636365,796,1,40,_Guitar,6,6,_Guitar,0.25816160440444946,0
67,100,0.2,0,1,41,_Guitar,6,3,_Guitar,0.9990057349205017,1
60,100,0.6409090909090909,396,1,41,_Guitar,6,10,_Guitar,0.23120811581611633,0
57,100,0.12272727272727273,541,0,41,_Guitar,6,2,_Guitar,0.2659227252006531,0
57,100,0.33636363636363636,611,0,41,_Guitar,6,5,_Guitar,0.35419613122940063,0
62,100,0.3,211,1,42,_Guitar,6,5,_Guitar,0.9988419413566589,1
57,100,0.6590909090909091,426,0,42,_Guitar,6,11,_Guitar,0.13725179433822632,0
57,100,0.41818181818181815,633,0,42,_Guitar,6,7,_Guitar,0.15978172421455383,0
60,100,0.16363636363636364,751,0,42,_Guitar,6,3,_Guitar,0.186457097530365,0
60,100,0.22272727272727272,839,0,42,_Guitar,6,4,_Guitar,0.25817349553108215,0
60,100,0.38181818181818183,43,1,43,_Guitar,6,6,_Guitar,0.9990230798721313,1
55,100,0.3181818181818182,383,1,43,_Guitar,6,5,_Guitar,0.3666187524795532,0
55,100,0.16363636363636364,509,0,43,_Guitar,6,3,_Guitar,0.4532906711101532,0
52,100,0.4818181818181818,48,1,44,_Guitar,6,8,_Guitar,0.9986500144004822,1
60,100,0.18181818181818182,351,1,44,_Guitar,6,3,_Guitar,0.08780647814273834,0
60,100,0.2818181818181818,408,0,44,_Guitar,6,5,_Guitar,0.09182170033454895,0
55,100,0.3181818181818182,515,0,44,_Guitar,6,5,_Guitar,0.10748375952243805,0
55,100,0.2590909090909091,616,0,44,_Guitar,6,4,_Guitar,0.12482967227697372,0
52,100,1.7,678,0,44,_Guitar,6,15,_Guitar,0.17903566360473633,0
60,100,0.12272727272727273,201,1,45,_Guitar,6,2,_Guitar,0.9990230798721313,1
53,100,0.11818181818181818,238,0,45,_Guitar,6,2,_Guitar,0.36661162972450256,0
53,100,0.18181818181818182,791,1,45,_Guitar,6,3,_Guitar,0.45328304171562195,0
59,100,0.8227272727272728,276,1,46,_Guitar,6,13,_Guitar,0.9983165264129639,1
52,100,0.8,581,1,46,_Guitar,6,13,_Guitar,0.5445562601089478,0
52,100,0.2772727272727273,31,1,47,_Guitar,6,4,_Guitar,0.9983164072036743,1
62,100,0.9,105,0,47,_Guitar,6,14,_Guitar,0.544557511806488,0
53,100,0.2636363636363636,686,1,50,_Guitar,6,4,_Guitar,0.9983165264129639,1
53,100,1.4,748,0,50,_Guitar,6,15,_Guitar,0.5445535182952881,0
60,100,0.759090909090909,185,1,51,_Guitar,6,12,_Guitar,0.9990229606628418,1
53,100,0.4,391,0,51,_Guitar,6,6,_Guitar,0.36661863327026367,0
59,100,0.4409090909090909,550,0,51,_Guitar,6,7,_Guitar,0.45328718423843384,0
55,100,0.1,276,1,52,_Guitar,6,2,_Guitar,0.9990229606628418,1
52,100,1.0818181818181818,528,1,52,_Guitar,6,15,_Guitar,0.3666222095489502,0
52,100,0.5818181818181818,826,1,52,_Guitar,6,9,_Guitar,0.4532928168773651,0
52,100,0.1590909090909091,96,1,53,_Guitar,6,3,_Guitar,0.9986500144004822,1
52,100,0.22272727272727272,166,0,53,_Guitar,6,4,_Guitar,0.08780537545681,0
60,100,0.4590909090909091,308,0,53,_Guitar,6,7,_Guitar,0.09181720018386841,0
55,100,0.2772727272727273,493,0,53,_Guitar,6,4,_Guitar,0.10748306661844254,0
57,100,0.18181818181818182,703,0,53,_Guitar,6,3,_Guitar,0.12482922524213791,0
57,100,0.21818181818181817,770,0,53,_Guitar,6,3,_Guitar,0.1790367215871811,0
57,100,0.18181818181818182,616,1,54,_Guitar,6,3,_Guitar,0.979255735874176,0
55,100,0.4590909090909091,383,1,55,_Guitar,6,7,_Guitar,0.9792561531066895,0
57,100,0.1409090909090909,541,1,56,_Guitar,6,2,_Guitar,0.979256272315979,1
57,100,1.0818181818181818,748,1,57,_Guitar,6,15,_Guitar,0.9792552590370178,0
55,100,0.18181818181818182,399,1,58,_Guitar,6,3,_Guitar,0.9990230798721313,1
55,100,0.11818181818181818,506,0,58,_Guitar,6,2,_Guitar,0.3666269779205322,0
55,100,1.9227272727272726,598,0,58,_Guitar,6,15,_Guitar,0.45327842235565186,0
53,100,0.8181818181818182,193,1,59,_Guitar,6,13,_Guitar,0.9990057349205017,1
60,100,0.2590909090909091,418,0,59,_Guitar,6,4,_Guitar,0.23121032118797302,0
55,100,1.2181818181818183,506,0,59,_Guitar,6,15,_Guitar,0.2659086585044861,0
52,100,0.18181818181818182,813,1,59,_Guitar,6,3,_Guitar,0.3541976809501648,0
57,100,0.4,0,1,61,_Guitar,6,6,_Guitar,0.9792563915252686,0
55,100,0.12272727272727273,861,1,62,_Guitar,6,2,_Guitar,0.9792568683624268,0
55,100,0.7181818181818181,370,1,63,_Guitar,6,11,_Guitar,0.9990057349205017,1
55,100,0.13636363636363635,633,1,63,_Guitar,6,2,_Guitar,0.23121191561222076,0
55,100,0.6772727272727272,668,0,63,_Guitar,6,11,_Guitar,0.26591989398002625,0
55,100,0.6181818181818182,823,0,63,_Guitar,6,10,_Guitar,0.3541969060897827,0
55,100,0.1,96,1,64,_Guitar,6,2,_Guitar,0.9792563915252686,0
52,100,0.11818181818181818,197,1,65,_Guitar,6,2,_Guitar,0.9982553124427795,1
52,100,0.1,250,0,65,_Guitar,6,2,_Guitar,0.04128861427307129,0
57,100,0.13636363636363635,282,0,65,_Guitar,6,2,_Guitar,0.028934398666024208,0
55,100,0.1590909090909091,457,0,65,_Guitar,6,3,_Guitar,0.021289538592100143,0
55,100,0.1409090909090909,496,0,65,_Guitar,6,2,_Guitar,0.016745135188102722,0
55,100,0.18181818181818182,540,0,65,_Guitar,6,3,_Guitar,0.014918550848960876,0
55,100,0.11818181818181818,590,0,65,_Guitar,6,2,_Guitar,0.01601576618850231,0
55,100,0.5409090909090909,619,0,65,_Guitar,6,9,_Guitar,0.021178830415010452,0
55,100,0.11818181818181818,756,0,65,_Guitar,6,2,_Guitar,0.031567543745040894,0
52,100,0.5363636363636364,787,0,65,_Guitar,6,9,_Guitar,0.060059353709220886,0
55,100,0.4818181818181818,35,1,66,_Guitar,6,8,_Guitar,0.9988419413566589,1
53,100,0.2590909090909091,184,0,66,_Guitar,6,4,_Guitar,0.13724616169929504,0
53,100,0.2772727272727273,470,1,66,_Guitar,6,4,_Guitar,0.15977023541927338,0
53,100,0.2409090909090909,572,0,66,_Guitar,6,4,_Guitar,0.18644209206104279,0
55,100,0.41818181818181815,726,0,66,_Guitar,6,7,_Guitar,0.258155882358551,0
52,100,0.12272727272727273,13,1,67,_Guitar,6,2,_Guitar,0.9990230798721313,1
55,100,0.1590909090909091,66,0,67,_Guitar,6,3,_Guitar,0.3666297197341919,0
57,100,0.6818181818181818,540,1,67,_Guitar,6,11,_Guitar,0.45328792929649353,0
62,100,0.1409090909090909,66,1,68,_Guitar,6,2,_Guitar,0.9983164072036743,1
57,100,0.3,110,0,68,_Guitar,6,5,_Guitar,0.5445578098297119,0
52,100,0.3,330,1,69,_Guitar,6,5,_Guitar,0.9990057349205017,1
57,100,0.12272727272727273,475,0,69,_Guitar,6,2,_Guitar,0.2312067449092865,0
55,100,0.1409090909090909,624,0,69,_Guitar,6,2,_Guitar,0.26592937111854553,0
55,100,0.6772727272727272,756,0,69,_Guitar,6,11,_Guitar,0.35419899225234985,0
52,100,0.759090909090909,35,1,70,_Guitar,6,12,_Guitar,0.9988419413566589,1
55,100,0.37727272727272726,229,0,70,_Guitar,6,6,_Guitar,0.13724446296691895,0
53,100,0.41818181818181815,347,0,70,_Guitar,6,7,_Guitar,0.15977071225643158,0
60,100,0.1590909090909091,457,0,70,_Guitar,6,3,_Guitar,0.18645040690898895,0
53,100,0.11818181818181818,590,0,70,_Guitar,6,2,_Guitar,0.25815364718437195,0
52,100,0.6409090909090909,92,1,71,_Guitar,6,10,_Guitar,0.9990230798721313,1
55,100,0.3409090909090909,550,1,71,_Guitar,6,5,_Guitar,0.36662235856056213,0
55,100,0.2409090909090909,629,0,71,_Guitar,6,4,_Guitar,0.4532898962497711,0
57,100,0.5818181818181818,3,1,72,_Guitar,6,9,_Guitar,0.9983004927635193,1
57,100,0.4,202,0,72,_Guitar,6,6,_Guitar,0.044664252549409866,0
52,100,0.1,316,0,72,_Guitar,6,2,_Guitar,0.033150702714920044,0
52,100,0.3409090909090909,426,0,72,_Guitar,6,5,_Guitar,0.02658105082809925,0
55,100,0.2409090909090909,509,0,72,_Guitar,6,4,_Guitar,0.0235958993434906,0
52,100,0.1409090909090909,585,0,72,_Guitar,6,2,_Guitar,0.024315308779478073,0
52,100,0.4590909090909091,633,0,72,_Guitar,6,7,_Guitar,0.02969057857990265,0
52,100,0.12272727272727273,817,0,72,_Guitar,6,2,_Guitar,0.04007737711071968,0
52,100,0.12272727272727273,849,0,72,_Guitar,6,2,_Guitar,0.07092912495136261,0
53,100,0.5409090909090909,166,1,73,_Guitar,6,9,_Guitar,0.9990229606628418,1
53,100,0.18181818181818182,487,1,73,_Guitar,6,3,_Guitar,0.3666297197341919,0
53,100,0.6,783,1,73,_Guitar,6,10,_Guitar,0.4532841145992279,0
53,100,0.7181818181818181,43,1,74,_Guitar,6,11,_Guitar,0.9986500144004822,1
53,100,0.5409090909090909,242,0,74,_Guitar,6,9,_Guitar,0.08780128508806229,0
53,100,0.2,502,1,74,_Guitar,6,3,_Guitar,0.09181135147809982,0
53,100,0.2818181818181818,593,0,74,_Guitar,6,5,_Guitar,0.10747790336608887,0
57,100,0.5181818181818182,690,0,74,_Guitar,6,8,_Guitar,0.12482099235057831,0
53,100,0.3,817,0,74,_Guitar,6,5,_Guitar,0.1790354996919632,0
53,100,0.2409090909090909,92,1,75,_Guitar,6,4,_Guitar,0.9986500144004822,1
53,100,0.2636363636363636,223,0,75,_Guitar,6,4,_Guitar,0.08780205249786377,0
64,100,0.2772727272727273,326,0,75,_Guitar,6,4,_Guitar,0.0918126329779625,0
53,100,0.4772727272727273,392,0,75,_Guitar,6,8,_Guitar,0.10747583955526352,0
53,100,0.2,532,0,75,_Guitar,6,3,_Guitar,0.12482497841119766,0
53,100,0.6818181818181818,686,0,75,_Guitar,6,11,_Guitar,0.1790260225534439,0
55,100,0.2590909090909091,62,1,76,_Guitar,6,4,_Guitar,0.9792565107345581,0
64,100,0.6772727272727272,119,1,77,_Guitar,6,11,_Guitar,0.9986500144004822,1
55,100,0.2590909090909091,457,1,77,_Guitar,6,4,_Guitar,0.08780443668365479,0
55,100,0.2409090909090909,642,0,77,_Guitar,6,4,_Guitar,0.09181275218725204,0
60,100,0.1409090909090909,703,0,77,_Guitar,6,2,_Guitar,0.10747644305229187,0
60,100,0.18181818181818182,739,0,77,_Guitar,6,3,_Guitar,0.12482517212629318,0
55,100,0.4,805,0,77,_Guitar,6,6,_Guitar,0.17903219163417816,0
55,100,0.11818181818181818,373,1,78,_Guitar,6,2,_Guitar,0.9990057349205017,1
55,100,0.1,523,0,78,_Guitar,6,2,_Guitar,0.23119759559631348,0
53,100,0.4,677,0,78,_Guitar,6,6,_Guitar,0.265916645526886,0
53,100,0.1590909090909091,770,0,78,_Guitar,6,3,_Guitar,0.3541906476020813,0
53,100,0.4409090909090909,100,1,79,_Guitar,6,7,_Guitar,0.9986500144004822,1
53,100,0.2818181818181818,263,0,79,_Guitar,6,5,_Guitar,0.0878041461110115,0
52,100,0.3,417,0,79,_Guitar,6,5,_Guitar,0.09181604534387589,0
55,100,0.11818181818181818,546,0,79,_Guitar,6,2,_Guitar,0.1074773371219635,0
52,100,0.12272727272727273,629,0,79,_Guitar,6,2,_Guitar,0.12482675909996033,0
55,100,0.2,703,0,79,_Guitar,6,3,_Guitar,0.17902712523937225,0
55,100,0.22272727272727272,35,1,80,_Guitar,6,4,_Guitar,0.9988419413566589,1
57,100,1.2181818181818183,140,0,80,_Guitar,6,15,_Guitar,0.1372452825307846,0
57,100,1.0636363636363637,422,1,80,_Guitar,6,15,_Guitar,0.1597726196050644,0
57,100,0.11818181818181818,677,1,80,_Guitar,6,2,_Guitar,0.18644748628139496,0
52,100,0.5590909090909091,756,0,80,_Guitar,6,9,_Guitar,0.2581638991832733,0
55,100,0.1,136,1,81,_Guitar,6,2,_Guitar,0.9990057349205017,1
52,100,1.059090909090909,172,0,81,_Guitar,6,15,_Guitar,0.23120322823524475,0
52,100,0.2,436,1,81,_Guitar,6,3,_Guitar,0.2659236192703247,0
53,100,0.3,480,0,81,_Guitar,6,5,_Guitar,0.35419660806655884,0
55,100,0.5409090909090909,220,1,82,_Guitar,6,9,_Guitar,0.9990229606628418,1
62,100,0.1409090909090909,703,1,82,_Guitar,6,2,_Guitar,0.36662864685058594,0
55,100,0.5590909090909091,826,0,82,_Guitar,6,9,_Guitar,0.4532896876335144,0
55,100,0.38181818181818183,289,1,84,_Guitar,6,6,_Guitar,0.9990057349205017,1
52,100,0.13636363636363635,436,0,84,_Guitar,6,2,_Guitar,0.2312072515487671,0
55,100,0.6818181818181818,606,0,84,_Guitar,6,11,_Guitar,0.26592057943344116,0
52,100,0.6181818181818182,770,0,84,_Guitar,6,10,_Guitar,0.3541986048221588,0
52,100,0.13636363636363635,106,1,85,_Guitar,6,2,_Guitar,0.9792567491531372,0
60,100,0.11818181818181818,96,1,86,_Guitar,6,2,_Guitar,0.9988419413566589,1
60,100,0.2818181818181818,307,0,86,_Guitar,6,5,_Guitar,0.13725170493125916,0
55,100,0.6818181818181818,377,0,86,_Guitar,6,11,_Guitar,0.15978147089481354,0
67,100,0.2590909090909091,766,1,86,_Guitar,6,4,_Guitar,0.1864522248506546,0
60,100,0.5,844,0,86,_Guitar,6,8,_Guitar,0.25816187262535095,0
53,100,0.5,119,1,87,_Guitar,6,8,_Guitar,0.9990229606628418,1
59,100,0.2636363636363636,443,1,87,_Guitar,6,4,_Guitar,0.36662599444389343,0
59,100,0.8818181818181818,509,0,87,_Guitar,6,14,_Guitar,0.4532857835292816,0
62,100,0.8818181818181818,0,1,89,_Guitar,6,14,_Guitar,0.9990229606628418,1
53,100,0.6181818181818182,360,1,89,_Guitar,6,10,_Guitar,0.36661848425865173,0
67,100,0.17727272727272728,866,1,89,_Guitar,6,3,_Guitar,0.453298419713974,0
55,100,0.11818181818181818,339,1,92,_Guitar,6,2,_Guitar,0.9990230798721313,1
55,100,0.37727272727272726,493,0,92,_Guitar,6,6,_Guitar,0.3666297495365143,0
55,100,0.4590909090909091,646,0,92,_Guitar,6,7,_Guitar,0.45328086614608765,0
52,100,0.2636363636363636,333,1,93,_Guitar,6,4,_Guitar,0.9990057349205017,1
52,100,0.22272727272727272,553,0,93,_Guitar,6,4,_Guitar,0.2312019318342209,0
57,100,0.2,677,0,93,_Guitar,6,3,_Guitar,0.26591652631759644,0
52,100,0.18181818181818182,729,0,93,_Guitar,6,3,_Guitar,0.35420551896095276,0
52,100,0.11818181818181818,66,1,94,_Guitar,6,2,_Guitar,0.9990229606628418,1
52,100,0.5,276,0,94,_Guitar,6,8,_Guitar,0.36662349104881287,0
52,100,1.0,417,0,94,_Guitar,6,15,_Guitar,0.45329004526138306,0
53,100,0.1409090909090909,100,1,95,_Guitar,6,2,_Guitar,0.9990057349205017,1
53,100,0.2590909090909091,303,0,95,_Guitar,6,4,_Guitar,0.23120149970054626,0
55,100,0.41818181818181815,449,0,95,_Guitar,6,7,_Guitar,0.26591840386390686,0
60,100,0.5,624,0,95,_Guitar,6,8,_Guitar,0.35419484972953796,0
57,100,0.2,184,1,96,_Guitar,6,3,_Guitar,0.9990058541297913,1
55,100,0.11818181818181818,770,1,96,_Guitar,6,2,_Guitar,0.23120416700839996,0
55,100,0.11818181818181818,823,0,96,_Guitar,6,2,_Guitar,0.2659204304218292,0
55,100,0.22272727272727272,862,0,96,_Guitar,6,4,_Guitar,0.35419347882270813,0
52,100,0.12272727272727273,509,1,97,_Guitar,6,2,_Guitar,0.9792569875717163,0
67,100,0.11818181818181818,722,1,0,Guitar,6,2,Guitar,0.9983165264129639,1
58,100,0.1590909090909091,823,0,0,Guitar,6,3,Guitar,0.5445591807365417,0
67,100,0.1590909090909091,339,1,1,Guitar,6,3,Guitar,0.9983165264129639,1
63,100,0.2409090909090909,686,1,1,Guitar,6,4,Guitar,0.5445574522018433,0
70,100,0.18181818181818182,144,1,2,Guitar,6,3,Guitar,0.9990057349205017,1
70,100,0.16363636363636364,223,0,2,Guitar,6,3,Guitar,0.23120276629924774,0
65,100,0.11818181818181818,373,0,2,Guitar,6,2,Guitar,0.26591756939888,0
62,100,0.1409090909090909,782,1,2,Guitar,6,2,Guitar,0.35419321060180664,0
63,100,0.3181818181818182,83,1,3,Guitar,6,5,Guitar,0.9990057349205017,1
63,100,0.17727272727272728,171,0,3,Guitar,6,3,Guitar,0.2312035858631134,0
58,100,0.1,391,0,3,Guitar,6,2,Guitar,0.2659258544445038,0
65,100,0.2818181818181818,620,0,3,Guitar,6,5,Guitar,0.3541964590549469,0
62,100,0.11818181818181818,128,1,4,Guitar,6,2,Guitar,0.9983736276626587,1
62,100,0.16363636363636364,179,0,4,Guitar,6,3,Guitar,0.05106085538864136,0
63,100,0.1,263,0,4,Guitar,6,2,Guitar,0.04130318760871887,0
63,100,0.4772727272727273,317,0,4,Guitar,6,8,Guitar,0.03738613426685333,0
63,100,0.1409090909090909,554,1,4,Guitar,6,2,Guitar,0.038330934941768646,0
63,100,0.11818181818181818,611,0,4,Guitar,6,2,Guitar,0.044753897935152054,0
63,100,0.1590909090909091,695,0,4,Guitar,6,3,Guitar,0.055234309285879135,0
63,100,0.11818181818181818,792,0,4,Guitar,6,2,Guitar,0.09027155488729477,0
63,100,0.18181818181818182,145,1,5,Guitar,6,3,Guitar,0.9990229606628418,1
63,100,0.1409090909090909,211,0,5,Guitar,6,2,Guitar,0.36663201451301575,0
63,100,0.2772727272727273,655,1,5,Guitar,6,4,Guitar,0.4533044397830963,0
63,100,0.13636363636363635,348,1,6,Guitar,6,2,Guitar,0.9983165264129639,1
63,100,0.1590909090909091,739,1,6,Guitar,6,3,Guitar,0.5445635914802551,0
55,100,0.2,123,1,8,Guitar,6,3,Guitar,0.9792565107345581,0
56,100,0.12272727272727273,211,1,9,Guitar,6,2,Guitar,0.9990229606628418,1
63,100,0.11818181818181818,259,0,9,Guitar,6,2,Guitar,0.36663150787353516,0
63,100,0.12272727272727273,355,0,9,Guitar,6,2,Guitar,0.4532930254936218,0
65,100,0.12272727272727273,642,1,10,Guitar,6,2,Guitar,0.9792563915252686,0
63,100,0.16363636363636364,180,1,13,Guitar,6,3,Guitar,0.9990057349205017,1
63,100,0.1,268,0,13,Guitar,6,2,Guitar,0.23121678829193115,0
56,100,0.3409090909090909,360,0,13,Guitar,6,5,Guitar,0.2659282386302948,0
56,100,0.18181818181818182,663,1,13,Guitar,6,3,Guitar,0.354205459356308,0
58,100,0.2,44,1,14,Guitar,6,3,Guitar,0.9983165264129639,1
63,100,0.1590909090909091,118,0,14,Guitar,6,3,Guitar,0.5445624589920044,0
55,100,0.17727272727272728,52,1,16,Guitar,6,3,Guitar,0.9986500144004822,1
63,100,0.11818181818181818,220,0,16,Guitar,6,2,Guitar,0.08780403435230255,0
55,100,0.1,254,0,16,Guitar,6,2,Guitar,0.09181791543960571,0
63,100,0.11818181818181818,351,0,16,Guitar,6,2,Guitar,0.10748092085123062,0
63,100,0.13636363636363635,436,0,16,Guitar,6,2,Guitar,0.12483511120080948,0
63,100,0.21818181818181817,492,0,16,Guitar,6,3,Guitar,0.17904244363307953,0
58,100,0.11818181818181818,845,1,17,Guitar,6,2,Guitar,0.9792561531066895,0
56,100,0.11818181818181818,700,1,18,Guitar,6,2,Guitar,0.9983165264129639,1
56,100,0.11818181818181818,735,0,18,Guitar,6,2,Guitar,0.5445541739463806,0
56,100,0.3181818181818182,88,1,19,Guitar,6,5,Guitar,0.9983164072036743,1
56,100,0.1,347,1,19,Guitar,6,2,Guitar,0.5445517897605896,0
56,100,0.1590909090909091,65,1,21,Guitar,6,3,Guitar,0.9988419413566589,1
63,100,0.1590909090909091,185,0,21,Guitar,6,3,Guitar,0.13724762201309204,0
63,100,0.22272727272727272,268,0,21,Guitar,6,4,Guitar,0.15977995097637177,0
63,100,0.11818181818181818,339,0,21,Guitar,6,2,Guitar,0.18645338714122772,0
63,100,0.17727272727272728,735,1,21,Guitar,6,3,Guitar,0.25816866755485535,0
63,100,0.12272727272727273,553,1,22,Guitar,6,2,Guitar,0.9792565107345581,0
63,100,0.1,633,1,23,Guitar,6,2,Guitar,0.9983165264129639,1
63,100,0.5772727272727273,876,1,23,Guitar,6,9,Guitar,0.5445548892021179,0
63,100,0.11818181818181818,131,1,24,Guitar,6,2,Guitar,0.9983165264129639,1
63,100,0.18181818181818182,285,0,24,Guitar,6,3,Guitar,0.5445621013641357,0
58,100,0.1590909090909091,691,1,25,Guitar,6,3,Guitar,0.9792567491531372,0
63,100,0.11818181818181818,590,1,26,Guitar,6,2,Guitar,0.9990229606628418,1
64,100,0.1590909090909091,625,0,26,Guitar,6,3,Guitar,0.36663874983787537,0
68,100,0.32272727272727275,804,0,26,Guitar,6,5,Guitar,0.4532894492149353,0
63,100,0.1409090909090909,822,1,27,Guitar,6,2,Guitar,0.9792558550834656,0
62,100,0.12272727272727273,202,1,29,Guitar,6,2,Guitar,0.9983164072036743,1
63,100,0.1590909090909091,810,1,29,Guitar,6,3,Guitar,0.5445539355278015,0
67,100,0.11818181818181818,0,1,30,Guitar,6,2,Guitar,0.9983164072036743,1
63,100,0.21818181818181817,866,1,30,Guitar,6,3,Guitar,0.5445575714111328,0
63,100,0.2818181818181818,113,1,31,Guitar,6,5,Guitar,0.9986500144004822,1
63,100,0.22272727272727272,254,0,31,Guitar,6,4,Guitar,0.08780667185783386,0
63,100,0.18181818181818182,422,0,31,Guitar,6,3,Guitar,0.09181791543960571,0
63,100,0.2590909090909091,528,0,31,Guitar,6,4,Guitar,0.10748425871133804,0
63,100,0.6,598,0,31,Guitar,6,10,Guitar,0.1248386800289154,0
56,100,0.17727272727272728,822,0,31,Guitar,6,3,Guitar,0.17904424667358398,0
63,100,0.11818181818181818,303,1,32,Guitar,6,2,Guitar,0.9792550206184387,0
63,100,0.3,408,1,33,Guitar,6,5,Guitar,0.9792560338973999,0
63,100,0.1590909090909091,391,1,34,Guitar,6,3,Guitar,0.9792561531066895,0
65,100,0.17727272727272728,163,1,35,Guitar,6,3,Guitar,0.9990057349205017,1
58,100,0.2818181818181818,298,0,35,Guitar,6,5,Guitar,0.23120567202568054,0
58,100,0.12272727272727273,474,0,35,Guitar,6,2,Guitar,0.26592153310775757,0
63,100,0.11818181818181818,735,1,35,Guitar,6,2,Guitar,0.3541935086250305,0
63,100,0.11818181818181818,110,1,36,Guitar,6,2,Guitar,0.9990057349205017,1
63,100,0.2,246,0,36,Guitar,6,3,Guitar,0.2312072068452835,0
58,100,0.2,316,0,36,Guitar,6,3,Guitar,0.2659333646297455,0
63,100,0.18181818181818182,651,1,36,Guitar,6,3,Guitar,0.35420528054237366,0
63,100,0.22272727272727272,179,1,37,Guitar,6,4,Guitar,0.9990057349205017,1
63,100,0.11818181818181818,295,0,37,Guitar,6,2,Guitar,0.23120297491550446,0
58,100,0.1590909090909091,743,1,37,Guitar,6,3,Guitar,0.26593372225761414,0
58,100,0.22272727272727272,871,0,37,Guitar,6,4,Guitar,0.3542085587978363,0
58,100,0.2,66,1,38,Guitar,6,3,Guitar,0.9986500144004822,1
58,100,0.3,118,0,38,Guitar,6,5,Guitar,0.08780290931463242,0
58,100,0.11818181818181818,215,0,38,Guitar,6,2,Guitar,0.0918145626783371,0
58,100,0.11818181818181818,295,0,38,Guitar,6,2,Guitar,0.10747919231653214,0
58,100,0.1590909090909091,343,0,38,Guitar,6,3,Guitar,0.12482739984989166,0
58,100,0.18181818181818182,396,0,38,Guitar,6,3,Guitar,0.1790315955877304,0
53,100,0.2409090909090909,66,1,39,Guitar,6,4,Guitar,0.9986500144004822,1
63,100,0.22272727272727272,211,0,39,Guitar,6,4,Guitar,0.08780451118946075,0
55,100,0.1409090909090909,289,0,39,Guitar,6,2,Guitar,0.09182006865739822,0
55,100,0.18181818181818182,351,0,39,Guitar,6,3,Guitar,0.10748355090618134,0
62,100,0.37727272727272726,480,0,39,Guitar,6,6,Guitar,0.12483442574739456,0
63,100,0.21818181818181817,748,1,39,Guitar,6,3,Guitar,0.17903858423233032,0
58,100,0.16363636363636364,26,1,40,Guitar,6,3,Guitar,0.9988419413566589,1
58,100,0.17727272727272728,83,0,40,Guitar,6,3,Guitar,0.13724590837955475,0
53,100,0.2409090909090909,286,0,40,Guitar,6,4,Guitar,0.15977169573307037,0
53,100,0.18181818181818182,364,0,40,Guitar,6,3,Guitar,0.1864406019449234,0
55,100,0.11818181818181818,493,0,40,Guitar,6,2,Guitar,0.25815755128860474,0
63,100,0.2772727272727273,141,1,41,Guitar,6,4,Guitar,0.9990229606628418,1
65,100,0.22272727272727272,496,1,41,Guitar,6,4,Guitar,0.3666277825832367,0
67,100,0.18181818181818182,783,1,41,Guitar,6,3,Guitar,0.4532887041568756,0
62,100,0.21818181818181817,31,1,42,Guitar,6,3,Guitar,0.9990057349205017,1
62,100,0.22272727272727272,166,0,42,Guitar,6,4,Guitar,0.2312117964029312,0
63,100,0.41818181818181815,286,0,42,Guitar,6,7,Guitar,0.2659291923046112,0
63,100,0.3181818181818182,625,1,42,Guitar,6,5,Guitar,0.35421016812324524,0
58,100,0.1,166,1,43,Guitar,6,2,Guitar,0.9990229606628418,1
63,100,0.18181818181818182,421,1,43,Guitar,6,3,Guitar,0.36661961674690247,0
63,100,0.2409090909090909,726,1,43,Guitar,6,4,Guitar,0.45328831672668457,0
58,100,0.1590909090909091,53,1,44,Guitar,6,3,Guitar,0.9986500144004822,1
58,100,0.22272727272727272,453,1,44,Guitar,6,4,Guitar,0.08780266344547272,0
58,100,0.18181818181818182,593,0,44,Guitar,6,3,Guitar,0.09181380271911621,0
58,100,0.1409090909090909,716,0,44,Guitar,6,2,Guitar,0.10747797787189484,0
57,100,0.11818181818181818,748,0,44,Guitar,6,2,Guitar,0.12482212483882904,0
58,100,0.2,853,0,44,Guitar,6,3,Guitar,0.17903581261634827,0
53,100,0.4590909090909091,53,1,45,Guitar,6,7,Guitar,0.9983736276626587,1
53,100,0.21818181818181817,193,0,45,Guitar,6,3,Guitar,0.051061082631349564,0
53,100,0.11818181818181818,281,0,45,Guitar,6,2,Guitar,0.04130317643284798,0
56,100,0.11818181818181818,413,0,45,Guitar,6,2,Guitar,0.037386391311883926,0
56,100,0.11818181818181818,536,0,45,Guitar,6,2,Guitar,0.03833026811480522,0
53,100,0.3409090909090909,581,0,45,Guitar,6,5,Guitar,0.044751282781362534,0
55,100,0.3,664,0,45,Guitar,6,5,Guitar,0.05522928386926651,0
55,100,0.2772727272727273,801,0,45,Guitar,6,4,Guitar,0.09026141464710236,0
55,100,0.4818181818181818,56,1,46,Guitar,6,8,Guitar,0.9988419413566589,1
55,100,0.22272727272727272,188,0,46,Guitar,6,4,Guitar,0.13725346326828003,0
56,100,0.2409090909090909,466,1,46,Guitar,6,4,Guitar,0.15978296101093292,0
56,100,0.22272727272727272,606,0,46,Guitar,6,4,Guitar,0.18645299971103668,0
56,100,0.3409090909090909,871,1,46,Guitar,6,5,Guitar,0.25816580653190613,0
56,100,0.36363636363636365,136,1,47,Guitar,6,6,Guitar,0.9986500144004822,1
56,100,0.2409090909090909,273,0,47,Guitar,6,4,Guitar,0.08780214935541153,0
58,100,0.22272727272727272,488,0,47,Guitar,6,4,Guitar,0.09181378036737442,0
58,100,0.4772727272727273,545,0,47,Guitar,6,8,Guitar,0.1074736937880516,0
58,100,0.3,673,0,47,Guitar,6,5,Guitar,0.12482155859470367,0
58,100,0.17727272727272728,823,0,47,Guitar,6,3,Guitar,0.1790282428264618,0
53,100,0.1409090909090909,21,1,48,Guitar,6,2,Guitar,0.9986500144004822,1
58,100,0.3,69,0,48,Guitar,6,5,Guitar,0.08780129998922348,0
58,100,0.5636363636363636,201,0,48,Guitar,6,9,Guitar,0.0918131023645401,0
58,100,0.12272727272727273,334,0,48,Guitar,6,2,Guitar,0.10747415572404861,0
58,100,0.3,405,0,48,Guitar,6,5,Guitar,0.12482330203056335,0
58,100,0.3,474,0,48,Guitar,6,5,Guitar,0.17902451753616333,0
53,100,0.5181818181818182,40,1,50,Guitar,6,8,Guitar,0.9983165264129639,1
53,100,0.2818181818181818,444,1,50,Guitar,6,5,Guitar,0.5445597767829895,0
53,100,0.11818181818181818,853,1,51,Guitar,6,2,Guitar,0.9792561531066895,0
58,100,0.1590909090909091,628,1,52,Guitar,6,3,Guitar,0.9983165264129639,1
63,100,0.21818181818181817,735,0,52,Guitar,6,3,Guitar,0.5445522665977478,0
63,100,0.11818181818181818,198,1,53,Guitar,6,2,Guitar,0.9990230798721313,1
63,100,0.2,268,0,53,Guitar,6,3,Guitar,0.36662939190864563,0
63,100,0.3409090909090909,408,0,53,Guitar,6,5,Guitar,0.4533030688762665,0
63,100,0.18181818181818182,708,1,54,Guitar,6,3,Guitar,0.9792561531066895,1
63,100,0.2409090909090909,153,1,55,Guitar,6,4,Guitar,0.9792556166648865,0
63,100,0.12272727272727273,444,1,58,Guitar,6,2,Guitar,0.979256272315979,0
63,100,0.1409090909090909,343,1,61,Guitar,6,2,Guitar,0.9983165264129639,1
63,100,0.18181818181818182,751,1,61,Guitar,6,3,Guitar,0.5445655584335327,0
63,100,0.4590909090909091,848,1,63,Guitar,6,7,Guitar,0.979255735874176,0
63,100,0.1,87,1,64,Guitar,6,2,Guitar,0.9990229606628418,1
63,100,0.2818181818181818,145,0,64,Guitar,6,5,Guitar,0.3666241466999054,0
56,100,0.35909090909090907,866,1,64,Guitar,6,6,Guitar,0.45329850912094116,0
56,100,0.17727272727272728,713,1,65,Guitar,6,3,Guitar,0.9792565107345581,0
58,100,0.1,74,1,69,Guitar,6,2,Guitar,0.9990057349205017,1
63,100,0.2,140,0,69,Guitar,6,3,Guitar,0.2311975657939911,0
53,100,0.1,282,0,69,Guitar,6,2,Guitar,0.2659136950969696,0
53,100,0.11818181818181818,677,1,69,Guitar,6,2,Guitar,0.35419508814811707,0
53,100,0.2,153,1,70,Guitar,6,3,Guitar,0.9990229606628418,1
53,100,0.12272727272727273,356,0,70,Guitar,6,2,Guitar,0.36662164330482483,0
53,100,0.18181818181818182,422,0,70,Guitar,6,3,Guitar,0.4532862603664398,0
70,100,0.17727272727272728,17,1,71,Guitar,6,3,Guitar,0.9983165264129639,1
58,100,0.2,96,0,71,Guitar,6,3,Guitar,0.5445530414581299,0
58,100,0.1,136,1,73,Guitar,6,2,Guitar,0.9983165264129639,1
62,100,0.1,734,1,73,Guitar,6,2,Guitar,0.5445582866668701,0
63,100,0.1590909090909091,233,1,77,Guitar,6,3,Guitar,0.9792559146881104,0
63,100,0.11818181818181818,792,1,78,Guitar,6,2,Guitar,0.979256272315979,1
63,100,0.1,246,1,79,Guitar,6,2,Guitar,0.9792561531066895,0
63,100,0.11818181818181818,726,1,81,Guitar,6,2,Guitar,0.9792558550834656,0
53,100,0.17727272727272728,127,1,82,Guitar,6,3,Guitar,0.9990229606628418,1
53,100,0.2,184,0,82,Guitar,6,3,Guitar,0.3666278123855591,0
53,100,0.18181818181818182,663,1,82,Guitar,6,3,Guitar,0.45328450202941895,0
63,100,0.12272727272727273,3,1,83,Guitar,6,2,Guitar,0.9983164072036743,1
58,100,0.2,677,1,83,Guitar,6,3,Guitar,0.5445628762245178,0
67,100,0.2818181818181818,132,1,84,Guitar,6,5,Guitar,0.9990057349205017,1
62,100,0.3181818181818182,263,0,84,Guitar,6,5,Guitar,0.23120424151420593,0
63,100,0.6818181818181818,483,0,84,Guitar,6,11,Guitar,0.2659199833869934,0
70,100,0.1,686,0,84,Guitar,6,2,Guitar,0.35420340299606323,0
70,100,0.1,26,1,85,Guitar,6,2,Guitar,0.9983736276626587,1
65,100,0.1,220,0,85,Guitar,6,2,Guitar,0.0510607585310936,0
67,100,0.2,289,0,85,Guitar,6,3,Guitar,0.04130244255065918,0
67,100,0.2590909090909091,404,0,85,Guitar,6,4,Guitar,0.037385378032922745,0
62,100,0.2590909090909091,480,0,85,Guitar,6,4,Guitar,0.038329143077135086,0
62,100,0.5227272727272727,553,0,85,Guitar,6,8,Guitar,0.04475193843245506,0
63,100,0.3409090909090909,703,0,85,Guitar,6,5,Guitar,0.055230483412742615,0
63,100,0.4,783,0,85,Guitar,6,6,Guitar,0.09026772528886795,0
63,100,0.2590909090909091,13,1,86,Guitar,6,4,Guitar,0.9990057349205017,1
56,100,0.1409090909090909,365,1,86,Guitar,6,2,Guitar,0.23120354115962982,0
63,100,0.1,443,0,86,Guitar,6,2,Guitar,0.26592952013015747,0
65,100,0.11818181818181818,734,1,86,Guitar,6,2,Guitar,0.3542003035545349,0
63,100,0.11818181818181818,722,1,88,Guitar,6,2,Guitar,0.9792565107345581,1
63,100,0.2590909090909091,106,1,89,Guitar,6,4,Guitar,0.9792558550834656,0
55,100,0.5363636363636364,523,1,90,Guitar,6,9,Guitar,0.9983164072036743,1
55,100,0.7772727272727272,646,0,90,Guitar,6,12,Guitar,0.5445535182952881,0
58,100,0.18181818181818182,597,1,97,Guitar,6,3,Guitar,0.9792565107345581,0
58,100,0.2409090909090909,870,1,105,Guitar,6,4,Guitar,0.9792569875717163,0
65,100,0.1590909090909091,197,1,106,Guitar,6,3,Guitar,0.9990229606628418,1
65,100,0.17727272727272728,273,0,106,Guitar,6,3,Guitar,0.36662477254867554,0
62,100,0.2,616,1,106,Guitar,6,3,Guitar,0.4532906711101532,0
63,100,0.5181818181818182,22,1,107,Guitar,6,8,Guitar,0.9983164072036743,1
62,100,0.2590909090909091,823,1,107,Guitar,6,4,Guitar,0.5445670485496521,0
62,100,0.2409090909090909,13,1,108,Guitar,6,4,Guitar,0.9990229606628418,1
65,100,0.2,637,1,108,Guitar,6,3,Guitar,0.3666256368160248,0
65,100,0.2590909090909091,690,0,108,Guitar,6,4,Guitar,0.45328935980796814,0
62,100,0.3,163,1,109,Guitar,6,5,Guitar,0.9988419413566589,1
62,100,0.1409090909090909,242,0,109,Guitar,6,2,Guitar,0.13725250959396362,0
63,100,0.21818181818181817,383,0,109,Guitar,6,3,Guitar,0.15978096425533295,0
63,100,0.16363636363636364,443,0,109,Guitar,6,3,Guitar,0.1864650547504425,0
63,100,0.1,509,0,109,Guitar,6,2,Guitar,0.25818389654159546,0
58,100,0.1409090909090909,163,1,110,Guitar,6,2,Guitar,0.9983165264129639,1
63,100,0.17727272727272728,237,0,110,Guitar,6,3,Guitar,0.5445606112480164,0
70,100,0.11818181818181818,417,1,111,Guitar,6,2,Guitar,0.9792563915252686,1
53,100,0.22272727272727272,488,1,0,DL_Remix_Guitar,6,4,DL_Remix_Guitar,0.9990229606628418,1
58,100,0.21818181818181817,682,0,0,DL_Remix_Guitar,6,3,DL_Remix_Guitar,0.36662715673446655,0
58,100,0.5818181818181818,748,0,0,DL_Remix_Guitar,6,9,DL_Remix_Guitar,0.4532857835292816,0
62,100,0.6636363636363637,4,1,1,DL_Remix_Guitar,6,11,DL_Remix_Guitar,0.9986500144004822,1
53,100,0.37727272727272726,163,0,1,DL_Remix_Guitar,6,6,DL_Remix_Guitar,0.08780425041913986,0
58,100,0.18181818181818182,255,0,1,DL_Remix_Guitar,6,3,DL_Remix_Guitar,0.09181807935237885,0
63,100,0.12272727272727273,597,1,1,DL_Remix_Guitar,6,2,DL_Remix_Guitar,0.10747972875833511,0
63,100,0.5,651,0,1,DL_Remix_Guitar,6,8,DL_Remix_Guitar,0.1248290166258812,0
58,100,0.3409090909090909,823,0,1,DL_Remix_Guitar,6,5,DL_Remix_Guitar,0.17904196679592133,0
53,100,0.2818181818181818,21,1,2,DL_Remix_Guitar,6,5,DL_Remix_Guitar,0.9990057349205017,1
60,100,0.3409090909090909,220,0,2,DL_Remix_Guitar,6,5,DL_Remix_Guitar,0.23120032250881195,0
65,100,0.6772727272727272,348,0,2,DL_Remix_Guitar,6,11,DL_Remix_Guitar,0.2659143805503845,0
60,100,0.32272727272727275,541,0,2,DL_Remix_Guitar,6,5,DL_Remix_Guitar,0.35419461131095886,0
53,100,0.9,61,1,3,DL_Remix_Guitar,6,14,DL_Remix_Guitar,0.9990057349205017,1
58,100,0.3409090909090909,263,0,3,DL_Remix_Guitar,6,5,DL_Remix_Guitar,0.23120129108428955,0
53,100,0.12272727272727273,364,0,3,DL_Remix_Guitar,6,2,DL_Remix_Guitar,0.265911728143692,0
53,100,0.32272727272727275,818,1,3,DL_Remix_Guitar,6,5,DL_Remix_Guitar,0.35418573021888733,0
58,100,0.12272727272727273,56,1,4,DL_Remix_Guitar,6,2,DL_Remix_Guitar,0.9988419413566589,1
58,100,0.1409090909090909,255,0,4,DL_Remix_Guitar,6,2,DL_Remix_Guitar,0.13724757730960846,0
63,100,0.5409090909090909,532,1,4,DL_Remix_Guitar,6,9,DL_Remix_Guitar,0.15976925194263458,0
53,100,0.2,695,0,4,DL_Remix_Guitar,6,3,DL_Remix_Guitar,0.18644742667675018,0
53,100,0.8818181818181818,813,0,4,DL_Remix_Guitar,6,14,DL_Remix_Guitar,0.2581588923931122,0
65,100,0.2409090909090909,263,1,5,DL_Remix_Guitar,6,4,DL_Remix_Guitar,0.9983164072036743,1
65,100,1.3181818181818181,637,1,5,DL_Remix_Guitar,6,15,DL_Remix_Guitar,0.5445452928543091,0
62,100,0.1590909090909091,220,1,10,DL_Remix_Guitar,6,3,DL_Remix_Guitar,0.9983165264129639,1
69,100,0.2772727272727273,744,1,10,DL_Remix_Guitar,6,4,DL_Remix_Guitar,0.5445613265037537,0
65,100,0.6181818181818182,457,1,13,DL_Remix_Guitar,6,10,DL_Remix_Guitar,0.9983165264129639,1
65,100,0.22272727272727272,598,0,13,DL_Remix_Guitar,6,4,DL_Remix_Guitar,0.5445541143417358,0
62,100,0.6227272727272727,166,1,14,DL_Remix_Guitar,6,10,DL_Remix_Guitar,0.9990229606628418,1
62,100,0.21818181818181817,307,0,14,DL_Remix_Guitar,6,3,DL_Remix_Guitar,0.3666219413280487,0
58,100,0.22272727272727272,862,1,14,DL_Remix_Guitar,6,4,DL_Remix_Guitar,0.45329752564430237,0
62,100,0.21818181818181817,360,1,15,DL_Remix_Guitar,6,3,DL_Remix_Guitar,0.9990229606628418,1
58,100,0.6409090909090909,563,0,15,DL_Remix_Guitar,6,10,DL_Remix_Guitar,0.36663034558296204,0
53,100,0.32272727272727275,716,0,15,DL_Remix_Guitar,6,5,DL_Remix_Guitar,0.45329099893569946,0
58,100,0.35909090909090907,162,1,16,DL_Remix_Guitar,6,6,DL_Remix_Guitar,0.9990229606628418,1
53,100,1.018181818181818,413,1,16,DL_Remix_Guitar,6,15,DL_Remix_Guitar,0.3666231036186218,0
60,100,1.0,822,1,16,DL_Remix_Guitar,6,15,DL_Remix_Guitar,0.45329028367996216,0
53,100,0.1409090909090909,34,1,18,DL_Remix_Guitar,6,2,DL_Remix_Guitar,0.9990057349205017,1
53,100,0.1409090909090909,430,1,18,DL_Remix_Guitar,6,2,DL_Remix_Guitar,0.23120230436325073,0
53,100,0.2,474,0,18,DL_Remix_Guitar,6,3,DL_Remix_Guitar,0.26591745018959045,0
58,100,0.4590909090909091,835,1,18,DL_Remix_Guitar,6,7,DL_Remix_Guitar,0.354191392660141,0
53,100,0.1409090909090909,804,1,19,DL_Remix_Guitar,6,2,DL_Remix_Guitar,0.9792565107345581,0
53,100,0.5181818181818182,492,1,20,DL_Remix_Guitar,6,8,DL_Remix_Guitar,0.9983164072036743,1
53,100,0.11818181818181818,725,1,20,DL_Remix_Guitar,6,2,DL_Remix_Guitar,0.5445589423179626,0
58,100,0.35909090909090907,611,1,21,DL_Remix_Guitar,6,6,DL_Remix_Guitar,0.9990230798721313,1
58,100,0.1,694,0,21,DL_Remix_Guitar,6,2,DL_Remix_Guitar,0.3666328191757202,0
62,100,0.8181818181818182,770,0,21,DL_Remix_Guitar,6,13,DL_Remix_Guitar,0.45328742265701294,0
58,100,0.6772727272727272,347,1,22,DL_Remix_Guitar,6,11,DL_Remix_Guitar,0.979255735874176,1
65,100,0.6409090909090909,96,1,23,DL_Remix_Guitar,6,10,DL_Remix_Guitar,0.979255735874176,0
58,100,0.1590909090909091,413,1,24,DL_Remix_Guitar,6,3,DL_Remix_Guitar,0.9792566299438477,0
65,100,0.5772727272727273,127,1,25,DL_Remix_Guitar,6,9,DL_Remix_Guitar,0.9990229606628418,1
58,100,0.2,370,1,25,DL_Remix_Guitar,6,3,DL_Remix_Guitar,0.3666370213031769,0
65,100,0.6,725,1,25,DL_Remix_Guitar,6,10,DL_Remix_Guitar,0.4532841145992279,0
63,100,0.9409090909090909,449,1,27,DL_Remix_Guitar,6,15,DL_Remix_Guitar,0.9983164072036743,1
63,100,0.3409090909090909,708,1,27,DL_Remix_Guitar,6,5,DL_Remix_Guitar,0.5445624589920044,0
63,100,0.11818181818181818,65,1,28,DL_Remix_Guitar,6,2,DL_Remix_Guitar,0.9988419413566589,1
63,100,0.21818181818181817,119,0,28,DL_Remix_Guitar,6,3,DL_Remix_Guitar,0.1372472494840622,0
53,100,0.18181818181818182,202,0,28,DL_Remix_Guitar,6,3,DL_Remix_Guitar,0.1597781926393509,0
65,100,0.2,241,0,28,DL_Remix_Guitar,6,3,DL_Remix_Guitar,0.18645240366458893,0
65,100,0.35909090909090907,739,1,28,DL_Remix_Guitar,6,6,DL_Remix_Guitar,0.2581702470779419,0
65,100,1.0,260,1,29,DL_Remix_Guitar,6,15,DL_Remix_Guitar,0.9988419413566589,1
65,100,0.1409090909090909,515,1,29,DL_Remix_Guitar,6,2,DL_Remix_Guitar,0.1372472196817398,0
53,100,0.2409090909090909,553,0,29,DL_Remix_Guitar,6,4,DL_Remix_Guitar,0.1597730964422226,0
53,100,0.1,787,1,29,DL_Remix_Guitar,6,2,DL_Remix_Guitar,0.18644562363624573,0
53,100,0.3409090909090909,858,0,29,DL_Remix_Guitar,6,5,DL_Remix_Guitar,0.2581559121608734,0
53,100,0.1,289,1,30,DL_Remix_Guitar,6,2,DL_Remix_Guitar,0.9988419413566589,1
53,100,0.5363636363636364,413,0,30,DL_Remix_Guitar,6,9,DL_Remix_Guitar,0.1372462511062622,0
53,100,0.4590909090909091,581,0,30,DL_Remix_Guitar,6,7,DL_Remix_Guitar,0.15977424383163452,0
53,100,0.12272727272727273,760,0,30,DL_Remix_Guitar,6,2,DL_Remix_Guitar,0.18644846975803375,0
53,100,0.2818181818181818,791,0,30,DL_Remix_Guitar,6,5,DL_Remix_Guitar,0.25815799832344055,0
58,100,0.5227272727272727,201,1,32,DL_Remix_Guitar,6,8,DL_Remix_Guitar,0.9990230798721313,1
53,100,0.1409090909090909,804,1,32,DL_Remix_Guitar,6,2,DL_Remix_Guitar,0.3666144609451294,0
58,100,0.2590909090909091,836,0,32,DL_Remix_Guitar,6,4,DL_Remix_Guitar,0.4532880187034607,0
53,100,0.38181818181818183,13,1,33,DL_Remix_Guitar,6,6,DL_Remix_Guitar,0.9986500144004822,1
53,100,0.5590909090909091,105,0,33,DL_Remix_Guitar,6,9,DL_Remix_Guitar,0.08780179917812347,0
53,100,0.38181818181818183,378,1,33,DL_Remix_Guitar,6,6,DL_Remix_Guitar,0.09181112051010132,0
65,100,0.41818181818181815,461,0,33,DL_Remix_Guitar,6,7,DL_Remix_Guitar,0.10747423022985458,0
53,100,0.4636363636363636,554,0,33,DL_Remix_Guitar,6,7,DL_Remix_Guitar,0.12482123076915741,0
55,100,0.43636363636363634,678,0,33,DL_Remix_Guitar,6,7,DL_Remix_Guitar,0.17902550101280212,0
55,100,0.2772727272727273,215,1,34,DL_Remix_Guitar,6,4,DL_Remix_Guitar,0.9990057349205017,1
53,100,0.18181818181818182,321,0,34,DL_Remix_Guitar,6,3,DL_Remix_Guitar,0.23119935393333435,0
60,100,0.16363636363636364,421,0,34,DL_Remix_Guitar,6,3,DL_Remix_Guitar,0.2659227252006531,0
53,100,1.2,681,1,34,DL_Remix_Guitar,6,15,DL_Remix_Guitar,0.35418546199798584,0
53,100,0.18181818181818182,69,1,35,DL_Remix_Guitar,6,3,DL_Remix_Guitar,0.9988419413566589,1
65,100,0.37727272727272726,435,1,35,DL_Remix_Guitar,6,6,DL_Remix_Guitar,0.13724534213542938,0
65,100,0.32272727272727275,738,1,35,DL_Remix_Guitar,6,5,DL_Remix_Guitar,0.15977132320404053,0
65,100,0.11818181818181818,845,0,35,DL_Remix_Guitar,6,2,DL_Remix_Guitar,0.18644027411937714,0
65,100,0.2590909090909091,875,0,35,DL_Remix_Guitar,6,4,DL_Remix_Guitar,0.25815480947494507,0
63,100,0.1409090909090909,75,1,36,DL_Remix_Guitar,6,2,DL_Remix_Guitar,0.9988419413566589,1
53,100,0.6409090909090909,311,1,36,DL_Remix_Guitar,6,10,DL_Remix_Guitar,0.13725100457668304,0
53,100,0.8590909090909091,458,0,36,DL_Remix_Guitar,6,14,DL_Remix_Guitar,0.15977609157562256,0
53,100,0.2590909090909091,694,1,36,DL_Remix_Guitar,6,4,DL_Remix_Guitar,0.1864539235830307,0
53,100,0.9,756,0,36,DL_Remix_Guitar,6,14,DL_Remix_Guitar,0.2581612169742584,0
53,100,0.1590909090909091,88,1,37,DL_Remix_Guitar,6,3,DL_Remix_Guitar,0.9983164072036743,1
53,100,0.2590909090909091,721,1,37,DL_Remix_Guitar,6,4,DL_Remix_Guitar,0.5445570945739746,0
63,100,0.17727272727272728,163,1,38,DL_Remix_Guitar,6,3,DL_Remix_Guitar,0.9990057349205017,1
53,100,0.1590909090909091,518,1,38,DL_Remix_Guitar,6,3,DL_Remix_Guitar,0.23121444880962372,0
53,100,0.1409090909090909,638,0,38,DL_Remix_Guitar,6,2,DL_Remix_Guitar,0.2659245729446411,0
53,100,0.5409090909090909,694,0,38,DL_Remix_Guitar,6,9,DL_Remix_Guitar,0.3542053997516632,0
58,100,0.1409090909090909,233,1,39,DL_Remix_Guitar,6,2,DL_Remix_Guitar,0.9792563915252686,0
60,100,0.5818181818181818,431,1,40,DL_Remix_Guitar,6,9,DL_Remix_Guitar,0.9792565107345581,0
65,100,0.2818181818181818,176,1,41,DL_Remix_Guitar,6,5,DL_Remix_Guitar,0.9990229606628418,1
58,100,0.11818181818181818,251,0,41,DL_Remix_Guitar,6,2,DL_Remix_Guitar,0.36662790179252625,0
58,100,0.41818181818181815,801,1,41,DL_Remix_Guitar,6,7,DL_Remix_Guitar,0.4532887637615204,0
53,100,0.2590909090909091,31,1,42,DL_Remix_Guitar,6,4,DL_Remix_Guitar,0.9990057349205017,1
53,100,0.18181818181818182,91,0,42,DL_Remix_Guitar,6,3,DL_Remix_Guitar,0.23120222985744476,0
53,100,0.1409090909090909,638,1,42,DL_Remix_Guitar,6,2,DL_Remix_Guitar,0.26591968536376953,0
53,100,0.740909090909091,791,0,42,DL_Remix_Guitar,6,12,DL_Remix_Guitar,0.35418570041656494,0
53,100,0.42272727272727273,334,1,43,DL_Remix_Guitar,6,7,DL_Remix_Guitar,0.9990229606628418,1
53,100,0.11818181818181818,700,1,43,DL_Remix_Guitar,6,2,DL_Remix_Guitar,0.3666212558746338,0
65,100,0.1590909090909091,836,0,43,DL_Remix_Guitar,6,3,DL_Remix_Guitar,0.45328444242477417,0
53,100,0.2590909090909091,13,1,44,DL_Remix_Guitar,6,4,DL_Remix_Guitar,0.9984880685806274,1
55,100,0.2590909090909091,144,0,44,DL_Remix_Guitar,6,4,DL_Remix_Guitar,0.06334475427865982,0
53,100,0.1409090909090909,233,0,44,DL_Remix_Guitar,6,2,DL_Remix_Guitar,0.0577407032251358,0
55,100,0.21818181818181817,303,0,44,DL_Remix_Guitar,6,3,DL_Remix_Guitar,0.060200005769729614,0
65,100,0.36363636363636365,399,0,44,DL_Remix_Guitar,6,6,DL_Remix_Guitar,0.06970080733299255,0
65,100,0.22272727272727272,496,0,44,DL_Remix_Guitar,6,4,DL_Remix_Guitar,0.08188921958208084,0
53,100,0.11818181818181818,545,0,44,DL_Remix_Guitar,6,2,DL_Remix_Guitar,0.12401527911424637,0
65,100,0.35909090909090907,351,1,45,DL_Remix_Guitar,6,6,DL_Remix_Guitar,0.9990057349205017,1
65,100,0.1409090909090909,461,0,45,DL_Remix_Guitar,6,2,DL_Remix_Guitar,0.231204092502594,0
58,100,0.6590909090909091,668,0,45,DL_Remix_Guitar,6,11,DL_Remix_Guitar,0.26592016220092773,0
58,100,0.4772727272727273,875,0,45,DL_Remix_Guitar,6,8,DL_Remix_Guitar,0.35419410467147827,0
58,100,0.1409090909090909,550,1,46,DL_Remix_Guitar,6,2,DL_Remix_Guitar,0.9990229606628418,1
58,100,0.12272727272727273,619,0,46,DL_Remix_Guitar,6,2,DL_Remix_Guitar,0.3666256070137024,0
53,100,0.8,761,0,46,DL_Remix_Guitar,6,13,DL_Remix_Guitar,0.4532775282859802,0
53,100,0.22272727272727272,408,1,47,DL_Remix_Guitar,6,4,DL_Remix_Guitar,0.9983165264129639,1
53,100,0.2818181818181818,804,1,47,DL_Remix_Guitar,6,5,DL_Remix_Guitar,0.5445550680160522,0
60,100,0.2,373,1,48,DL_Remix_Guitar,6,3,DL_Remix_Guitar,0.9990229606628418,1
57,100,0.1,703,1,48,DL_Remix_Guitar,6,2,DL_Remix_Guitar,0.3666130006313324,0
53,100,0.12272727272727273,751,0,48,DL_Remix_Guitar,6,2,DL_Remix_Guitar,0.4532898962497711,0
53,100,0.2409090909090909,418,1,49,DL_Remix_Guitar,6,4,DL_Remix_Guitar,0.9792561531066895,0
58,100,0.41818181818181815,43,1,50,DL_Remix_Guitar,6,7,DL_Remix_Guitar,0.9988419413566589,1
55,100,0.32272727272727275,364,1,50,DL_Remix_Guitar,6,5,DL_Remix_Guitar,0.13724736869335175,0
55,100,0.41818181818181815,440,0,50,DL_Remix_Guitar,6,7,DL_Remix_Guitar,0.15977910161018372,0
65,100,0.8818181818181818,619,0,50,DL_Remix_Guitar,6,14,DL_Remix_Guitar,0.18643762171268463,0
53,100,0.4409090909090909,861,1,50,DL_Remix_Guitar,6,7,DL_Remix_Guitar,0.2581591010093689,0
58,100,0.1590909090909091,144,1,51,DL_Remix_Guitar,6,3,DL_Remix_Guitar,0.9990057349205017,1
58,100,0.9772727272727273,383,1,51,DL_Remix_Guitar,6,15,DL_Remix_Guitar,0.23119859397411346,0
53,100,0.16363636363636364,751,1,51,DL_Remix_Guitar,6,3,DL_Remix_Guitar,0.26592347025871277,0
53,100,0.5409090909090909,801,0,51,DL_Remix_Guitar,6,9,DL_Remix_Guitar,0.3541903793811798,0
65,100,0.3181818181818182,40,1,52,DL_Remix_Guitar,6,5,DL_Remix_Guitar,0.9983004927635193,1
53,100,0.35909090909090907,188,0,52,DL_Remix_Guitar,6,6,DL_Remix_Guitar,0.04466395825147629,0
53,100,0.16363636363636364,334,0,52,DL_Remix_Guitar,6,3,DL_Remix_Guitar,0.03314903751015663,0
53,100,0.3,386,0,52,DL_Remix_Guitar,6,5,DL_Remix_Guitar,0.02657945267856121,0
53,100,0.21818181818181817,480,0,52,DL_Remix_Guitar,6,3,DL_Remix_Guitar,0.02359451726078987,0
53,100,0.2,536,0,52,DL_Remix_Guitar,6,3,DL_Remix_Guitar,0.024313611909747124,0
53,100,0.2590909090909091,646,0,52,DL_Remix_Guitar,6,4,DL_Remix_Guitar,0.02968793548643589,0
65,100,0.2409090909090909,804,0,52,DL_Remix_Guitar,6,4,DL_Remix_Guitar,0.04007616639137268,0
53,100,0.5,858,0,52,DL_Remix_Guitar,6,8,DL_Remix_Guitar,0.07092556357383728,0
53,100,0.4818181818181818,373,1,53,DL_Remix_Guitar,6,8,DL_Remix_Guitar,0.9986500144004822,1
53,100,0.23636363636363636,523,0,53,DL_Remix_Guitar,6,4,DL_Remix_Guitar,0.0877993032336235,0
53,100,0.11818181818181818,593,0,53,DL_Remix_Guitar,6,2,DL_Remix_Guitar,0.0918102040886879,0
53,100,0.1409090909090909,668,0,53,DL_Remix_Guitar,6,2,DL_Remix_Guitar,0.10747192800045013,0
53,100,0.12272727272727273,751,0,53,DL_Remix_Guitar,6,2,DL_Remix_Guitar,0.12482230365276337,0
53,100,0.1590909090909091,813,0,53,DL_Remix_Guitar,6,3,DL_Remix_Guitar,0.17902922630310059,0
53,100,0.3409090909090909,88,1,54,DL_Remix_Guitar,6,5,DL_Remix_Guitar,0.9990229606628418,1
53,100,0.17727272727272728,348,1,54,DL_Remix_Guitar,6,3,DL_Remix_Guitar,0.3666227161884308,0
58,100,0.22272727272727272,541,0,54,DL_Remix_Guitar,6,4,DL_Remix_Guitar,0.4532904624938965,0
55,100,0.2409090909090909,488,1,55,DL_Remix_Guitar,6,4,DL_Remix_Guitar,0.9983164072036743,1
53,100,0.1590909090909091,678,0,55,DL_Remix_Guitar,6,3,DL_Remix_Guitar,0.5445536971092224,0
58,100,0.18181818181818182,321,1,56,DL_Remix_Guitar,6,3,DL_Remix_Guitar,0.9990230798721313,1
53,100,0.2409090909090909,466,0,56,DL_Remix_Guitar,6,4,DL_Remix_Guitar,0.36662378907203674,0
53,100,0.9590909090909091,756,1,56,DL_Remix_Guitar,6,15,DL_Remix_Guitar,0.45328521728515625,0
53,100,0.2,91,1,57,DL_Remix_Guitar,6,3,DL_Remix_Guitar,0.9986500144004822,1
53,100,0.5590909090909091,141,0,57,DL_Remix_Guitar,6,9,DL_Remix_Guitar,0.08780145645141602,0
58,100,0.1409090909090909,263,0,57,DL_Remix_Guitar,6,2,DL_Remix_Guitar,0.09181275218725204,0
53,100,0.6,334,0,57,DL_Remix_Guitar,6,10,DL_Remix_Guitar,0.10747077316045761,0
53,100,0.23636363636363636,633,1,57,DL_Remix_Guitar,6,4,DL_Remix_Guitar,0.12482252717018127,0
53,100,0.2590909090909091,726,0,57,DL_Remix_Guitar,6,4,DL_Remix_Guitar,0.1790221780538559,0
65,100,0.16363636363636364,26,1,58,DL_Remix_Guitar,6,3,DL_Remix_Guitar,0.9986500144004822,1
53,100,0.11818181818181818,61,0,58,DL_Remix_Guitar,6,2,DL_Remix_Guitar,0.08780212700366974,0
65,100,0.4590909090909091,88,0,58,DL_Remix_Guitar,6,7,DL_Remix_Guitar,0.09181100130081177,0
53,100,0.22272727272727272,188,0,58,DL_Remix_Guitar,6,4,DL_Remix_Guitar,0.10747484862804413,0
53,100,0.4,241,0,58,DL_Remix_Guitar,6,6,DL_Remix_Guitar,0.12482309341430664,0
53,100,0.1590909090909091,458,0,58,DL_Remix_Guitar,6,3,DL_Remix_Guitar,0.17902806401252747,0
53,100,0.3181818181818182,18,1,59,DL_Remix_Guitar,6,5,DL_Remix_Guitar,0.9990057349205017,1
53,100,0.42272727272727273,101,0,59,DL_Remix_Guitar,6,7,DL_Remix_Guitar,0.23119975626468658,0
53,100,0.35909090909090907,558,1,59,DL_Remix_Guitar,6,6,DL_Remix_Guitar,0.26591652631759644,0
53,100,0.23636363636363636,788,0,59,DL_Remix_Guitar,6,4,DL_Remix_Guitar,0.3541923463344574,0
58,100,0.18181818181818182,91,1,60,DL_Remix_Guitar,6,3,DL_Remix_Guitar,0.9990057349205017,1
58,100,0.3181818181818182,501,1,60,DL_Remix_Guitar,6,5,DL_Remix_Guitar,0.2312009334564209,0
58,100,0.4,633,0,60,DL_Remix_Guitar,6,6,DL_Remix_Guitar,0.26591867208480835,0
58,100,0.1409090909090909,801,0,60,DL_Remix_Guitar,6,2,DL_Remix_Guitar,0.3541887700557709,0
53,100,0.18181818181818182,0,1,61,DL_Remix_Guitar,6,3,DL_Remix_Guitar,0.9983164072036743,1
53,100,0.16363636363636364,246,1,61,DL_Remix_Guitar,6,3,DL_Remix_Guitar,0.5445532202720642,0
58,100,0.11818181818181818,105,1,62,DL_Remix_Guitar,6,2,DL_Remix_Guitar,0.9990229606628418,1
53,100,0.5181818181818182,348,1,62,DL_Remix_Guitar,6,8,DL_Remix_Guitar,0.3666176497936249,0
53,100,0.1409090909090909,584,1,62,DL_Remix_Guitar,6,2,DL_Remix_Guitar,0.45329076051712036,0
63,100,0.2,4,1,63,DL_Remix_Guitar,6,3,DL_Remix_Guitar,0.9988419413566589,1
58,100,0.4,118,0,63,DL_Remix_Guitar,6,6,DL_Remix_Guitar,0.13725239038467407,0
58,100,0.18181818181818182,308,0,63,DL_Remix_Guitar,6,3,DL_Remix_Guitar,0.1597818285226822,0
53,100,0.5,378,0,63,DL_Remix_Guitar,6,8,DL_Remix_Guitar,0.18644654750823975,0
53,100,0.21818181818181817,493,0,63,DL_Remix_Guitar,6,3,DL_Remix_Guitar,0.2581700384616852,0
63,100,0.32272727272727275,189,1,65,DL_Remix_Guitar,6,5,DL_Remix_Guitar,0.9792556166648865,0
53,100,0.2,92,1,66,DL_Remix_Guitar,6,3,DL_Remix_Guitar,0.9983165264129639,1
58,100,0.37727272727272726,612,1,66,DL_Remix_Guitar,6,6,DL_Remix_Guitar,0.544555127620697,0
53,100,0.2590909090909091,493,1,67,DL_Remix_Guitar,6,4,DL_Remix_Guitar,0.9990057349205017,1
53,100,0.16363636363636364,553,0,67,DL_Remix_Guitar,6,3,DL_Remix_Guitar,0.23119986057281494,0
53,100,0.11818181818181818,593,0,67,DL_Remix_Guitar,6,2,DL_Remix_Guitar,0.2659153640270233,0
53,100,0.11818181818181818,624,0,67,DL_Remix_Guitar,6,2,DL_Remix_Guitar,0.35419538617134094,0
58,100,0.11818181818181818,66,1,68,DL_Remix_Guitar,6,2,DL_Remix_Guitar,0.9983165264129639,1
53,100,0.5409090909090909,686,1,68,DL_Remix_Guitar,6,9,DL_Remix_Guitar,0.5445519089698792,0
53,100,0.1409090909090909,273,1,69,DL_Remix_Guitar,6,2,DL_Remix_Guitar,0.9990057349205017,1
58,100,0.1409090909090909,399,0,69,DL_Remix_Guitar,6,2,DL_Remix_Guitar,0.23120398819446564,0
53,100,0.18181818181818182,430,0,69,DL_Remix_Guitar,6,3,DL_Remix_Guitar,0.2659161388874054,0
58,100,0.2409090909090909,470,0,69,DL_Remix_Guitar,6,4,DL_Remix_Guitar,0.3541937470436096,0
60,100,0.1409090909090909,316,1,70,DL_Remix_Guitar,6,2,DL_Remix_Guitar,0.9792566299438477,0
55,100,0.4818181818181818,682,1,71,DL_Remix_Guitar,6,8,DL_Remix_Guitar,0.9983165264129639,1
58,100,0.4,800,0,71,DL_Remix_Guitar,6,6,DL_Remix_Guitar,0.544561505317688,0
55,100,0.22272727272727272,69,1,72,DL_Remix_Guitar,6,4,DL_Remix_Guitar,0.9990057349205017,1
58,100,0.3409090909090909,179,0,72,DL_Remix_Guitar,6,5,DL_Remix_Guitar,0.23120294511318207,0
65,100,0.2818181818181818,267,0,72,DL_Remix_Guitar,6,5,DL_Remix_Guitar,0.26591095328330994,0
65,100,0.21818181818181817,876,1,72,DL_Remix_Guitar,6,3,DL_Remix_Guitar,0.3541924059391022,0
65,100,0.18181818181818182,153,1,73,DL_Remix_Guitar,6,3,DL_Remix_Guitar,0.9792559146881104,0
65,100,0.2,326,1,74,DL_Remix_Guitar,6,3,DL_Remix_Guitar,0.9990057349205017,1
53,100,0.1,413,0,74,DL_Remix_Guitar,6,2,DL_Remix_Guitar,0.2312059849500656,0
55,100,0.1590909090909091,475,0,74,DL_Remix_Guitar,6,3,DL_Remix_Guitar,0.26591992378234863,0
65,100,0.2590909090909091,800,1,74,DL_Remix_Guitar,6,4,DL_Remix_Guitar,0.35419222712516785,0
65,100,0.5409090909090909,0,1,75,DL_Remix_Guitar,6,9,DL_Remix_Guitar,0.9990057349205017,1
53,100,0.11818181818181818,656,1,75,DL_Remix_Guitar,6,2,DL_Remix_Guitar,0.2312035858631134,0
65,100,0.1590909090909091,682,0,75,DL_Remix_Guitar,6,3,DL_Remix_Guitar,0.2659197449684143,0
53,100,0.35909090909090907,734,0,75,DL_Remix_Guitar,6,6,DL_Remix_Guitar,0.35419023036956787,0
63,100,0.2772727272727273,303,1,76,DL_Remix_Guitar,6,4,DL_Remix_Guitar,0.9988419413566589,1
53,100,0.22272727272727272,619,1,76,DL_Remix_Guitar,6,4,DL_Remix_Guitar,0.1372474730014801,0
53,100,0.11818181818181818,770,0,76,DL_Remix_Guitar,6,2,DL_Remix_Guitar,0.159775048494339,0
53,100,0.11818181818181818,800,0,76,DL_Remix_Guitar,6,2,DL_Remix_Guitar,0.18644534051418304,0
53,100,0.4590909090909091,836,0,76,DL_Remix_Guitar,6,7,DL_Remix_Guitar,0.25816065073013306,0
53,100,0.33636363636363636,502,1,77,DL_Remix_Guitar,6,5,DL_Remix_Guitar,0.9990229606628418,1
53,100,0.4,637,0,77,DL_Remix_Guitar,6,6,DL_Remix_Guitar,0.36661726236343384,0
53,100,0.18181818181818182,729,0,77,DL_Remix_Guitar,6,3,DL_Remix_Guitar,0.45329615473747253,0
58,100,0.35909090909090907,119,1,78,DL_Remix_Guitar,6,6,DL_Remix_Guitar,0.9988419413566589,1
53,100,0.2772727272727273,383,1,78,DL_Remix_Guitar,6,4,DL_Remix_Guitar,0.13724328577518463,0
53,100,0.3409090909090909,527,0,78,DL_Remix_Guitar,6,5,DL_Remix_Guitar,0.15977320075035095,0
53,100,0.1409090909090909,703,0,78,DL_Remix_Guitar,6,2,DL_Remix_Guitar,0.1864449828863144,0
53,100,0.7,817,0,78,DL_Remix_Guitar,6,11,DL_Remix_Guitar,0.25815698504447937,0
53,100,0.3,106,1,79,DL_Remix_Guitar,6,5,DL_Remix_Guitar,0.9988419413566589,1
53,100,0.3,567,1,79,DL_Remix_Guitar,6,5,DL_Remix_Guitar,0.13724550604820251,0
53,100,0.17727272727272728,677,0,79,DL_Remix_Guitar,6,3,DL_Remix_Guitar,0.15977700054645538,0
57,100,0.3,716,0,79,DL_Remix_Guitar,6,5,DL_Remix_Guitar,0.18644487857818604,0
57,100,0.11818181818181818,813,0,79,DL_Remix_Guitar,6,2,DL_Remix_Guitar,0.25816968083381653,0
53,100,0.3,157,1,81,DL_Remix_Guitar,6,5,DL_Remix_Guitar,0.9986500144004822,1
58,100,0.22272727272727272,246,0,81,DL_Remix_Guitar,6,4,DL_Remix_Guitar,0.08780237287282944,0
53,100,0.2590909090909091,316,0,81,DL_Remix_Guitar,6,4,DL_Remix_Guitar,0.09181077033281326,0
53,100,0.32272727272727275,453,0,81,DL_Remix_Guitar,6,5,DL_Remix_Guitar,0.10747428983449936,0
53,100,0.2,597,0,81,DL_Remix_Guitar,6,3,DL_Remix_Guitar,0.12482309341430664,0
53,100,0.3,766,0,81,DL_Remix_Guitar,6,5,DL_Remix_Guitar,0.17903004586696625,0
53,100,0.6818181818181818,26,1,82,DL_Remix_Guitar,6,11,DL_Remix_Guitar,0.9983736276626587,1
53,100,0.1590909090909091,193,0,82,DL_Remix_Guitar,6,3,DL_Remix_Guitar,0.0510605052113533,0
53,100,0.1,233,0,82,DL_Remix_Guitar,6,2,DL_Remix_Guitar,0.04130173474550247,0
53,100,0.1,343,0,82,DL_Remix_Guitar,6,2,DL_Remix_Guitar,0.03738415986299515,0
53,100,0.3181818181818182,506,0,82,DL_Remix_Guitar,6,5,DL_Remix_Guitar,0.038327403366565704,0
53,100,0.11818181818181818,612,0,82,DL_Remix_Guitar,6,2,DL_Remix_Guitar,0.04474865645170212,0
60,100,0.18181818181818182,770,0,82,DL_Remix_Guitar,6,3,DL_Remix_Guitar,0.05522651597857475,0
65,100,0.1590909090909091,857,0,82,DL_Remix_Guitar,6,3,DL_Remix_Guitar,0.09025686979293823,0
53,100,0.2409090909090909,13,1,83,DL_Remix_Guitar,6,4,DL_Remix_Guitar,0.9983165264129639,1
65,100,0.9818181818181818,100,0,83,DL_Remix_Guitar,6,15,DL_Remix_Guitar,0.5445505976676941,0
65,100,0.6409090909090909,739,1,85,DL_Remix_Guitar,6,10,DL_Remix_Guitar,0.9792560338973999,0
53,100,0.3181818181818182,303,1,86,DL_Remix_Guitar,6,5,DL_Remix_Guitar,0.9990229606628418,1
65,100,0.1,443,0,86,DL_Remix_Guitar,6,2,DL_Remix_Guitar,0.36662593483924866,0
65,100,0.5590909090909091,585,0,86,DL_Remix_Guitar,6,9,DL_Remix_Guitar,0.45328590273857117,0
65,100,0.17727272727272728,514,1,87,DL_Remix_Guitar,6,3,DL_Remix_Guitar,0.9988419413566589,1
53,100,0.22272727272727272,553,0,87,DL_Remix_Guitar,6,4,DL_Remix_Guitar,0.1372440606355667,0
53,100,0.38181818181818183,606,0,87,DL_Remix_Guitar,6,6,DL_Remix_Guitar,0.15977337956428528,0
65,100,0.42272727272727273,773,0,87,DL_Remix_Guitar,6,7,DL_Remix_Guitar,0.18644292652606964,0
53,100,0.5181818181818182,866,0,87,DL_Remix_Guitar,6,8,DL_Remix_Guitar,0.2581624388694763,0
65,100,0.4818181818181818,377,1,88,DL_Remix_Guitar,6,8,DL_Remix_Guitar,0.9990229606628418,1
70,100,0.18181818181818182,506,0,88,DL_Remix_Guitar,6,3,DL_Remix_Guitar,0.3666180968284607,0
53,100,0.23636363636363636,832,1,88,DL_Remix_Guitar,6,4,DL_Remix_Guitar,0.453286737203598,0
61,100,0.1590909090909091,541,1,0,DL_Guitar,6,3,DL_Guitar,0.9792554974555969,0
53,100,0.13636363636363635,172,1,1,DL_Guitar,6,2,DL_Guitar,0.9983164072036743,1
53,100,0.16363636363636364,224,0,1,DL_Guitar,6,3,DL_Guitar,0.5445544123649597,0
56,100,0.2772727272727273,625,1,2,DL_Guitar,6,4,DL_Guitar,0.9792561531066895,0
80,100,0.12272727272727273,223,1,3,DL_Guitar,6,2,DL_Guitar,0.9983164072036743,1
53,100,0.38181818181818183,461,1,3,DL_Guitar,6,6,DL_Guitar,0.5445542931556702,0
61,100,0.12272727272727273,818,1,4,DL_Guitar,6,2,DL_Guitar,0.9792559146881104,0
61,100,0.16363636363636364,179,1,5,DL_Guitar,6,3,DL_Guitar,0.9986500144004822,1
65,100,0.11818181818181818,215,0,5,DL_Guitar,6,2,DL_Guitar,0.08780296891927719,0
61,100,0.2,260,0,5,DL_Guitar,6,3,DL_Guitar,0.09181448072195053,0
61,100,0.2818181818181818,355,0,5,DL_Guitar,6,5,DL_Guitar,0.107479527592659,0
65,100,0.1409090909090909,581,0,5,DL_Guitar,6,2,DL_Guitar,0.12482889741659164,0
61,100,0.4590909090909091,660,0,5,DL_Guitar,6,7,DL_Guitar,0.17903250455856323,0
61,100,0.16363636363636364,201,1,6,DL_Guitar,6,3,DL_Guitar,0.9986500144004822,1
66,100,0.4818181818181818,268,0,6,DL_Guitar,6,8,DL_Guitar,0.08780304342508316,0
61,100,0.11818181818181818,383,0,6,DL_Guitar,6,2,DL_Guitar,0.09181344509124756,0
66,100,0.1590909090909091,475,0,6,DL_Guitar,6,3,DL_Guitar,0.10748255252838135,0
61,100,0.5409090909090909,703,0,6,DL_Guitar,6,9,DL_Guitar,0.1248258575797081,0
61,100,0.12272727272727273,839,0,6,DL_Guitar,6,2,DL_Guitar,0.1790338158607483,0
53,100,0.17727272727272728,734,1,7,DL_Guitar,6,3,DL_Guitar,0.9792559146881104,0
56,100,0.18181818181818182,598,1,8,DL_Guitar,6,3,DL_Guitar,0.979256272315979,0
54,100,0.1590909090909091,374,1,9,DL_Guitar,6,3,DL_Guitar,0.9990230798721313,1
54,100,0.11818181818181818,426,0,9,DL_Guitar,6,2,DL_Guitar,0.366626501083374,0
54,100,0.5227272727272727,849,1,9,DL_Guitar,6,8,DL_Guitar,0.45329028367996216,0
56,100,0.5,660,1,10,DL_Guitar,6,8,DL_Guitar,0.9983165264129639,1
53,100,0.11818181818181818,823,0,10,DL_Guitar,6,2,DL_Guitar,0.5445578098297119,0
61,100,0.17727272727272728,338,1,11,DL_Guitar,6,3,DL_Guitar,0.9990057349205017,1
61,100,0.1,391,0,11,DL_Guitar,6,2,DL_Guitar,0.23120369017124176,0
54,100,0.1409090909090909,505,0,11,DL_Guitar,6,2,DL_Guitar,0.2659226059913635,0
54,100,0.5636363636363636,575,0,11,DL_Guitar,6,9,DL_Guitar,0.35419735312461853,0
54,100,0.21818181818181817,501,1,12,DL_Guitar,6,3,DL_Guitar,0.9983165264129639,1
53,100,0.2590909090909091,550,0,12,DL_Guitar,6,4,DL_Guitar,0.5445492267608643,0
56,100,0.2409090909090909,8,1,13,DL_Guitar,6,4,DL_Guitar,0.9990229606628418,1
61,100,0.4409090909090909,527,1,13,DL_Guitar,6,7,DL_Guitar,0.3666183352470398,0
61,100,0.12272727272727273,642,0,13,DL_Guitar,6,2,DL_Guitar,0.4532901346683502,0
56,100,0.2590909090909091,44,1,14,DL_Guitar,6,4,DL_Guitar,0.9990057349205017,1
56,100,0.37727272727272726,391,1,14,DL_Guitar,6,6,DL_Guitar,0.23120297491550446,0
60,100,0.12272727272727273,510,0,14,DL_Guitar,6,2,DL_Guitar,0.2659316658973694,0
56,100,0.4,801,1,14,DL_Guitar,6,6,DL_Guitar,0.3541852831840515,0
56,100,0.1590909090909091,118,1,15,DL_Guitar,6,3,DL_Guitar,0.9990230798721313,1
56,100,0.2409090909090909,166,0,15,DL_Guitar,6,4,DL_Guitar,0.36663150787353516,0
68,100,0.21818181818181817,634,1,15,DL_Guitar,6,3,DL_Guitar,0.4532829225063324,0
54,100,0.2,123,1,16,DL_Guitar,6,3,DL_Guitar,0.9988419413566589,1
61,100,0.2,466,1,16,DL_Guitar,6,3,DL_Guitar,0.137246236205101,0
53,100,0.1,540,0,16,DL_Guitar,6,2,DL_Guitar,0.1597757190465927,0
61,100,0.43636363636363634,677,0,16,DL_Guitar,6,7,DL_Guitar,0.18644365668296814,0
61,100,0.1,835,0,16,DL_Guitar,6,2,DL_Guitar,0.25816094875335693,0
61,100,0.35909090909090907,0,1,17,DL_Guitar,6,6,DL_Guitar,0.9986500144004822,1
61,100,0.1590909090909091,96,0,17,DL_Guitar,6,3,DL_Guitar,0.08780327439308167,0
63,100,0.1409090909090909,272,0,17,DL_Guitar,6,2,DL_Guitar,0.09181669354438782,0
56,100,0.17727272727272728,470,0,17,DL_Guitar,6,3,DL_Guitar,0.10748255252838135,0
56,100,0.2772727272727273,515,0,17,DL_Guitar,6,4,DL_Guitar,0.12483154982328415,0
56,100,0.17727272727272728,810,1,17,DL_Guitar,6,3,DL_Guitar,0.17903517186641693,0
56,100,0.12272727272727273,13,1,18,DL_Guitar,6,2,DL_Guitar,0.9982276558876038,1
56,100,0.11818181818181818,44,0,18,DL_Guitar,6,2,DL_Guitar,0.03939790651202202,0
61,100,0.16363636363636364,92,0,18,DL_Guitar,6,3,DL_Guitar,0.02667398937046528,0
53,100,0.1590909090909091,272,0,18,DL_Guitar,6,3,DL_Guitar,0.018588081002235413,0
61,100,0.1590909090909091,360,0,18,DL_Guitar,6,3,DL_Guitar,0.013414035551249981,0
54,100,0.12272727272727273,453,0,18,DL_Guitar,6,2,DL_Guitar,0.010587548837065697,0
54,100,0.38181818181818183,484,0,18,DL_Guitar,6,6,DL_Guitar,0.00983989518135786,0
61,100,0.2772727272727273,581,0,18,DL_Guitar,6,4,DL_Guitar,0.011417387053370476,0
54,100,0.2,650,0,18,DL_Guitar,6,3,DL_Guitar,0.016513217240571976,0
54,100,0.1590909090909091,712,0,18,DL_Guitar,6,3,DL_Guitar,0.02681909315288067,0
61,100,0.1409090909090909,752,0,18,DL_Guitar,6,2,DL_Guitar,0.053915027529001236,0
61,100,0.13636363636363635,216,1,19,DL_Guitar,6,2,DL_Guitar,0.9990229606628418,1
61,100,0.43636363636363634,281,0,19,DL_Guitar,6,7,DL_Guitar,0.3666210472583771,0
63,100,0.2590909090909091,700,1,19,DL_Guitar,6,4,DL_Guitar,0.4533042013645172,0
61,100,0.5,193,1,20,DL_Guitar,6,8,DL_Guitar,0.9990229606628418,1
60,100,0.11818181818181818,501,1,20,DL_Guitar,6,2,DL_Guitar,0.3666289448738098,0
61,100,0.18181818181818182,835,1,20,DL_Guitar,6,3,DL_Guitar,0.4532868564128876,0
63,100,0.2,497,1,21,DL_Guitar,6,3,DL_Guitar,0.9792563915252686,0
61,100,0.1409090909090909,581,1,22,DL_Guitar,6,2,DL_Guitar,0.9990229606628418,1
61,100,0.2409090909090909,638,0,22,DL_Guitar,6,4,DL_Guitar,0.36661845445632935,0
61,100,0.2409090909090909,735,0,22,DL_Guitar,6,4,DL_Guitar,0.453286737203598,0
56,100,0.22272727272727272,233,1,23,DL_Guitar,6,4,DL_Guitar,0.979255735874176,0
61,100,0.21818181818181817,339,1,24,DL_Guitar,6,3,DL_Guitar,0.9988419413566589,1
61,100,0.43636363636363634,413,0,24,DL_Guitar,6,7,DL_Guitar,0.1372484415769577,0
61,100,0.5772727272727273,625,0,24,DL_Guitar,6,9,DL_Guitar,0.15978029370307922,0
61,100,0.11818181818181818,770,0,24,DL_Guitar,6,2,DL_Guitar,0.18645299971103668,0
61,100,0.5818181818181818,835,0,24,DL_Guitar,6,9,DL_Guitar,0.2581644058227539,0
61,100,0.2409090909090909,88,1,25,DL_Guitar,6,4,DL_Guitar,0.9988419413566589,1
54,100,0.5409090909090909,144,0,25,DL_Guitar,6,9,DL_Guitar,0.13725003600120544,0
54,100,0.4,295,0,25,DL_Guitar,6,6,DL_Guitar,0.15977743268013,0
54,100,0.5590909090909091,413,0,25,DL_Guitar,6,9,DL_Guitar,0.1864512860774994,0
54,100,0.11818181818181818,550,0,25,DL_Guitar,6,2,DL_Guitar,0.25816765427589417,0
57,100,0.1,272,1,26,DL_Guitar,6,2,DL_Guitar,0.9792563915252686,0
61,100,1.0636363636363637,26,1,27,DL_Guitar,6,15,DL_Guitar,0.9990057349205017,1
61,100,0.11818181818181818,339,1,27,DL_Guitar,6,2,DL_Guitar,0.23120807111263275,0
61,100,0.2,638,1,27,DL_Guitar,6,3,DL_Guitar,0.2659178674221039,0
61,100,0.4,773,0,27,DL_Guitar,6,6,DL_Guitar,0.3541957139968872,0
60,100,0.2590909090909091,250,1,28,DL_Guitar,6,4,DL_Guitar,0.9988419413566589,1
60,100,0.2590909090909091,382,0,28,DL_Guitar,6,4,DL_Guitar,0.13724656403064728,0
60,100,0.13636363636363635,457,0,28,DL_Guitar,6,2,DL_Guitar,0.15977850556373596,0
53,100,0.5772727272727273,501,0,28,DL_Guitar,6,9,DL_Guitar,0.1864408254623413,0
53,100,0.22272727272727272,673,0,28,DL_Guitar,6,4,DL_Guitar,0.2581644058227539,0
53,100,0.11818181818181818,0,1,29,DL_Guitar,6,2,DL_Guitar,0.9990057349205017,1
54,100,0.11818181818181818,611,1,29,DL_Guitar,6,2,DL_Guitar,0.23120608925819397,0
54,100,0.12272727272727273,686,0,29,DL_Guitar,6,2,DL_Guitar,0.26592522859573364,0
54,100,0.41818181818181815,725,0,29,DL_Guitar,6,7,DL_Guitar,0.3541947305202484,0
54,100,0.7181818181818181,65,1,30,DL_Guitar,6,11,DL_Guitar,0.9988419413566589,1
54,100,0.2,246,0,30,DL_Guitar,6,3,DL_Guitar,0.1372467428445816,0
53,100,0.23636363636363636,721,1,30,DL_Guitar,6,4,DL_Guitar,0.1597769409418106,0
60,100,0.1,787,0,30,DL_Guitar,6,2,DL_Guitar,0.18644773960113525,0
53,100,0.5363636363636364,831,0,30,DL_Guitar,6,9,DL_Guitar,0.2581581175327301,0
65,100,0.12272727272727273,100,1,31,DL_Guitar,6,2,DL_Guitar,0.9988419413566589,1
53,100,0.9181818181818182,127,0,31,DL_Guitar,6,15,DL_Guitar,0.1372438669204712,0
53,100,0.4,356,0,31,DL_Guitar,6,6,DL_Guitar,0.15977641940116882,0
61,100,0.4,488,0,31,DL_Guitar,6,6,DL_Guitar,0.18644587695598602,0
61,100,0.8,642,0,31,DL_Guitar,6,13,DL_Guitar,0.258159339427948,0
61,100,0.18181818181818182,0,1,32,DL_Guitar,6,3,DL_Guitar,0.9988419413566589,1
61,100,0.13636363636363635,171,0,32,DL_Guitar,6,2,DL_Guitar,0.13724826276302338,0
54,100,0.1409090909090909,453,1,32,DL_Guitar,6,2,DL_Guitar,0.15978233516216278,0
61,100,0.11818181818181818,668,0,32,DL_Guitar,6,2,DL_Guitar,0.18645276129245758,0
56,100,0.11818181818181818,845,0,32,DL_Guitar,6,2,DL_Guitar,0.25816553831100464,0
53,100,0.22272727272727272,211,1,33,DL_Guitar,6,4,DL_Guitar,0.9986498951911926,1
53,100,0.5409090909090909,321,0,33,DL_Guitar,6,9,DL_Guitar,0.08780224621295929,0
53,100,0.42272727272727273,444,0,33,DL_Guitar,6,7,DL_Guitar,0.09181167185306549,0
61,100,0.2590909090909091,633,0,33,DL_Guitar,6,4,DL_Guitar,0.1074754074215889,0
53,100,0.11818181818181818,713,0,33,DL_Guitar,6,2,DL_Guitar,0.12482384592294693,0
70,100,0.12272727272727273,774,0,33,DL_Guitar,6,2,DL_Guitar,0.17903217673301697,0
56,100,0.11818181818181818,31,1,34,DL_Guitar,6,2,DL_Guitar,0.9986500144004822,1
70,100,0.1,105,0,34,DL_Guitar,6,2,DL_Guitar,0.08780472725629807,0
54,100,0.18181818181818182,201,0,34,DL_Guitar,6,3,DL_Guitar,0.0918160080909729,0
54,100,0.6227272727272727,289,0,34,DL_Guitar,6,10,DL_Guitar,0.10747560113668442,0
54,100,0.1409090909090909,619,1,34,DL_Guitar,6,2,DL_Guitar,0.12482337653636932,0
54,100,0.3409090909090909,694,0,34,DL_Guitar,6,5,DL_Guitar,0.17903117835521698,0
61,100,0.11818181818181818,118,1,35,DL_Guitar,6,2,DL_Guitar,0.9984880685806274,1
53,100,0.2409090909090909,308,0,35,DL_Guitar,6,4,DL_Guitar,0.06334563344717026,0
53,100,0.4,421,0,35,DL_Guitar,6,6,DL_Guitar,0.05774243175983429,0
65,100,0.12272727272727273,509,0,35,DL_Guitar,6,2,DL_Guitar,0.06020176783204079,0
60,100,0.2,576,0,35,DL_Guitar,6,3,DL_Guitar,0.0697041004896164,0
60,100,0.1409090909090909,625,0,35,DL_Guitar,6,2,DL_Guitar,0.08189409226179123,0
53,100,1.018181818181818,691,0,35,DL_Guitar,6,15,DL_Guitar,0.12401707470417023,0
61,100,0.38181818181818183,69,1,36,DL_Guitar,6,6,DL_Guitar,0.9990229606628418,1
61,100,0.2636363636363636,356,1,36,DL_Guitar,6,4,DL_Guitar,0.36661848425865173,0
54,100,0.8227272727272728,421,0,36,DL_Guitar,6,13,DL_Guitar,0.4532921314239502,0
54,100,0.2409090909090909,153,1,37,DL_Guitar,6,4,DL_Guitar,0.9990057349205017,1
54,100,0.11818181818181818,238,0,37,DL_Guitar,6,2,DL_Guitar,0.2311992049217224,0
54,100,0.1590909090909091,298,0,37,DL_Guitar,6,3,DL_Guitar,0.2659156024456024,0
54,100,0.11818181818181818,418,0,37,DL_Guitar,6,2,DL_Guitar,0.3541940152645111,0
56,100,0.5,40,1,38,DL_Guitar,6,8,DL_Guitar,0.9990229606628418,1
54,100,0.1590909090909091,713,1,38,DL_Guitar,6,3,DL_Guitar,0.3666340708732605,0
61,100,0.7818181818181819,791,0,38,DL_Guitar,6,13,DL_Guitar,0.45327872037887573,0
61,100,0.5590909090909091,141,1,39,DL_Guitar,6,9,DL_Guitar,0.9990057349205017,1
61,100,0.3409090909090909,364,0,39,DL_Guitar,6,5,DL_Guitar,0.23120014369487762,0
65,100,0.16363636363636364,531,0,39,DL_Guitar,6,3,DL_Guitar,0.26591989398002625,0
61,100,0.6181818181818182,568,0,39,DL_Guitar,6,10,DL_Guitar,0.3541918694972992,0
56,100,0.12272727272727273,48,1,40,DL_Guitar,6,2,DL_Guitar,0.9990057349205017,1
60,100,0.11818181818181818,295,1,40,DL_Guitar,6,2,DL_Guitar,0.23120811581611633,0
53,100,0.5409090909090909,399,0,40,DL_Guitar,6,9,DL_Guitar,0.2659198045730591,0
61,100,0.5181818181818182,703,1,40,DL_Guitar,6,8,DL_Guitar,0.3541892468929291,0
61,100,0.5590909090909091,193,1,41,DL_Guitar,6,9,DL_Guitar,0.9990057349205017,1
61,100,0.3,396,0,41,DL_Guitar,6,5,DL_Guitar,0.23120221495628357,0
61,100,0.41818181818181815,691,1,41,DL_Guitar,6,7,DL_Guitar,0.26592379808425903,0
61,100,0.9409090909090909,804,0,41,DL_Guitar,6,15,DL_Guitar,0.354191392660141,0
56,100,0.11818181818181818,303,1,42,DL_Guitar,6,2,DL_Guitar,0.9983164072036743,1
53,100,0.5,638,1,42,DL_Guitar,6,8,DL_Guitar,0.5445540547370911,0
53,100,0.21818181818181817,0,1,43,DL_Guitar,6,3,DL_Guitar,0.9990057349205017,1
61,100,0.4636363636363636,48,0,43,DL_Guitar,6,7,DL_Guitar,0.23120157420635223,0
61,100,0.1590909090909091,373,1,43,DL_Guitar,6,3,DL_Guitar,0.2659214735031128,0
61,100,0.11818181818181818,448,0,43,DL_Guitar,6,2,DL_Guitar,0.3541947305202484,0
56,100,0.16363636363636364,311,1,44,DL_Guitar,6,3,DL_Guitar,0.9990229606628418,1
61,100,0.1409090909090909,660,1,44,DL_Guitar,6,2,DL_Guitar,0.3666165769100189,0
61,100,0.2409090909090909,694,0,44,DL_Guitar,6,4,DL_Guitar,0.4532885253429413,0
61,100,0.4409090909090909,118,1,45,DL_Guitar,6,7,DL_Guitar,0.9990057349205017,1
61,100,0.2,426,1,45,DL_Guitar,6,3,DL_Guitar,0.2312079221010208,0
54,100,0.1409090909090909,603,0,45,DL_Guitar,6,2,DL_Guitar,0.2659219205379486,0
54,100,0.1,751,0,45,DL_Guitar,6,2,DL_Guitar,0.35420653223991394,0
56,100,0.1590909090909091,96,1,46,DL_Guitar,6,3,DL_Guitar,0.9983164072036743,1
56,100,0.2,466,1,46,DL_Guitar,6,3,DL_Guitar,0.5445597767829895,0
58,100,0.1409090909090909,224,1,47,DL_Guitar,6,2,DL_Guitar,0.9990230798721313,1
61,100,0.18181818181818182,396,0,47,DL_Guitar,6,3,DL_Guitar,0.3666131794452667,0
58,100,0.1,593,0,47,DL_Guitar,6,2,DL_Guitar,0.4532906711101532,0
56,100,0.1590909090909091,260,1,48,DL_Guitar,6,3,DL_Guitar,0.9988419413566589,1
56,100,0.2818181818181818,518,1,48,DL_Guitar,6,5,DL_Guitar,0.1372489333152771,0
56,100,0.17727272727272728,633,0,48,DL_Guitar,6,3,DL_Guitar,0.15977680683135986,0
61,100,0.1409090909090909,694,0,48,DL_Guitar,6,2,DL_Guitar,0.18644945323467255,0
63,100,0.18181818181818182,770,0,48,DL_Guitar,6,3,DL_Guitar,0.2581627666950226,0
56,100,0.2590909090909091,260,1,49,DL_Guitar,6,4,DL_Guitar,0.9983164072036743,1
61,100,0.2590909090909091,633,1,49,DL_Guitar,6,4,DL_Guitar,0.5445578694343567,0
54,100,0.3409090909090909,188,1,50,DL_Guitar,6,5,DL_Guitar,0.9986500144004822,1
54,100,0.1590909090909091,405,0,50,DL_Guitar,6,3,DL_Guitar,0.08780395984649658,0
66,100,0.12272727272727273,444,0,50,DL_Guitar,6,2,DL_Guitar,0.09181728959083557,0
56,100,0.16363636363636364,509,0,50,DL_Guitar,6,3,DL_Guitar,0.10747978091239929,0
56,100,0.5227272727272727,751,1,50,DL_Guitar,6,8,DL_Guitar,0.12482991069555283,0
61,100,0.2590909090909091,875,0,50,DL_Guitar,6,4,DL_Guitar,0.17903558909893036,0
56,100,0.2590909090909091,56,1,51,DL_Guitar,6,4,DL_Guitar,0.9986500144004822,1
56,100,0.5181818181818182,308,1,51,DL_Guitar,6,8,DL_Guitar,0.08780395984649658,0
56,100,0.3,444,0,51,DL_Guitar,6,5,DL_Guitar,0.09181839972734451,0
56,100,0.4409090909090909,550,0,51,DL_Guitar,6,7,DL_Guitar,0.10748037695884705,0
56,100,0.38181818181818183,686,0,51,DL_Guitar,6,6,DL_Guitar,0.12483114749193192,0
56,100,0.4590909090909091,791,0,51,DL_Guitar,6,7,DL_Guitar,0.17903214693069458,0
56,100,0.4772727272727273,61,1,52,DL_Guitar,6,8,DL_Guitar,0.9990229606628418,1
56,100,0.18181818181818182,233,0,52,DL_Guitar,6,3,DL_Guitar,0.36662301421165466,0
54,100,0.3,311,0,52,DL_Guitar,6,5,DL_Guitar,0.4532924294471741,0
56,100,0.2,40,1,53,DL_Guitar,6,3,DL_Guitar,0.9986500144004822,1
56,100,0.18181818181818182,110,0,53,DL_Guitar,6,3,DL_Guitar,0.08780448883771896,0
56,100,0.2590909090909091,281,0,53,DL_Guitar,6,4,DL_Guitar,0.09181386232376099,0
63,100,0.11818181818181818,373,0,53,DL_Guitar,6,2,DL_Guitar,0.10747889429330826,0
56,100,0.16363636363636364,774,1,53,DL_Guitar,6,3,DL_Guitar,0.12482649087905884,0
56,100,0.22272727272727272,848,0,53,DL_Guitar,6,4,DL_Guitar,0.1790236383676529,0
61,100,0.2409090909090909,48,1,54,DL_Guitar,6,4,DL_Guitar,0.9988419413566589,1
56,100,0.2,110,0,54,DL_Guitar,6,3,DL_Guitar,0.13724593818187714,0
66,100,0.11818181818181818,703,1,54,DL_Guitar,6,2,DL_Guitar,0.15977664291858673,0
61,100,0.2,810,0,54,DL_Guitar,6,3,DL_Guitar,0.186441570520401,0
54,100,0.38181818181818183,861,0,54,DL_Guitar,6,6,DL_Guitar,0.2581671178340912,0
56,100,0.36363636363636365,818,1,55,DL_Guitar,6,6,DL_Guitar,0.9792561531066895,0
61,100,2.040909090909091,268,1,56,DL_Guitar,6,15,DL_Guitar,0.9983162879943848,1
61,100,0.5772727272727273,866,1,56,DL_Guitar,6,9,DL_Guitar,0.5445635914802551,0
56,100,0.21818181818181817,361,1,58,DL_Guitar,6,3,DL_Guitar,0.9983165264129639,1
61,100,1.759090909090909,550,0,58,DL_Guitar,6,15,DL_Guitar,0.5445464253425598,0
61,100,0.1590909090909091,215,1,59,DL_Guitar,6,3,DL_Guitar,0.9986500144004822,1
61,100,0.1409090909090909,373,0,59,DL_Guitar,6,2,DL_Guitar,0.08780495077371597,0
56,100,0.22272727272727272,541,0,59,DL_Guitar,6,4,DL_Guitar,0.09181378036737442,0
57,100,0.1590909090909091,726,0,59,DL_Guitar,6,3,DL_Guitar,0.1074800193309784,0
57,100,0.35909090909090907,783,0,59,DL_Guitar,6,6,DL_Guitar,0.12482672929763794,0
53,100,0.2,875,0,59,DL_Guitar,6,3,DL_Guitar,0.1790371835231781,0
57,100,0.2409090909090909,48,1,60,DL_Guitar,6,4,DL_Guitar,0.9990057349205017,1
61,100,0.23636363636363636,171,0,60,DL_Guitar,6,4,DL_Guitar,0.23121947050094604,0
61,100,1.1181818181818182,228,0,60,DL_Guitar,6,15,DL_Guitar,0.2659352421760559,0
61,100,2.2409090909090907,673,1,60,DL_Guitar,6,15,DL_Guitar,0.35419270396232605,0
61,100,0.5818181818181818,364,1,61,DL_Guitar,6,9,DL_Guitar,0.9983164072036743,1
61,100,0.3409090909090909,531,0,61,DL_Guitar,6,5,DL_Guitar,0.544556736946106,0
61,100,0.8818181818181818,461,1,62,DL_Guitar,6,14,DL_Guitar,0.9990229606628418,1
61,100,0.5,681,0,62,DL_Guitar,6,8,DL_Guitar,0.366622656583786,0
61,100,0.2636363636363636,796,0,62,DL_Guitar,6,4,DL_Guitar,0.45329320430755615,0
61,100,1.9636363636363636,48,1,63,DL_Guitar,6,15,DL_Guitar,0.9983164072036743,1
61,100,0.2409090909090909,576,1,63,DL_Guitar,6,4,DL_Guitar,0.5445659756660461,0
61,100,0.5409090909090909,440,1,64,DL_Guitar,6,9,DL_Guitar,0.9990230798721313,1
56,100,0.4,713,1,64,DL_Guitar,6,6,DL_Guitar,0.3666314482688904,0
56,100,0.2772727272727273,853,0,64,DL_Guitar,6,4,DL_Guitar,0.4532930552959442,0
53,100,0.9590909090909091,470,1,65,DL_Guitar,6,15,DL_Guitar,0.9983164072036743,1
54,100,0.1590909090909091,805,1,65,DL_Guitar,6,3,DL_Guitar,0.5445640087127686,0
54,100,0.11818181818181818,40,1,66,DL_Guitar,6,2,DL_Guitar,0.9988419413566589,1
54,100,0.3,106,0,66,DL_Guitar,6,5,DL_Guitar,0.13724574446678162,0
54,100,0.2590909090909091,273,0,66,DL_Guitar,6,4,DL_Guitar,0.15977607667446136,0
54,100,0.1409090909090909,404,0,66,DL_Guitar,6,2,DL_Guitar,0.18644799292087555,0
56,100,0.18181818181818182,729,1,66,DL_Guitar,6,3,DL_Guitar,0.25816258788108826,0
56,100,0.740909090909091,113,1,67,DL_Guitar,6,12,DL_Guitar,0.9990057349205017,1
63,100,0.2409090909090909,377,1,67,DL_Guitar,6,4,DL_Guitar,0.2312076836824417,0
56,100,0.22272727272727272,487,0,67,DL_Guitar,6,4,DL_Guitar,0.26592355966567993,0
65,100,0.1409090909090909,760,1,67,DL_Guitar,6,2,DL_Guitar,0.35420042276382446,0
54,100,0.4,163,1,68,DL_Guitar,6,6,DL_Guitar,0.9990057349205017,1
54,100,0.9590909090909091,263,0,68,DL_Guitar,6,15,DL_Guitar,0.2312053143978119,0
54,100,0.3,480,0,68,DL_Guitar,6,5,DL_Guitar,0.2659238278865814,0
54,100,0.11818181818181818,624,0,68,DL_Guitar,6,2,DL_Guitar,0.35419750213623047,0
53,100,0.18181818181818182,110,1,70,DL_Guitar,6,3,DL_Guitar,0.9986500144004822,1
53,100,0.4590909090909091,176,0,70,DL_Guitar,6,7,DL_Guitar,0.08780182152986526,0
53,100,0.2590909090909091,316,0,70,DL_Guitar,6,4,DL_Guitar,0.09181283414363861,0
54,100,0.2,633,1,70,DL_Guitar,6,3,DL_Guitar,0.10747972875833511,0
54,100,0.1409090909090909,760,0,70,DL_Guitar,6,2,DL_Guitar,0.12482456117868423,0
54,100,0.3,813,0,70,DL_Guitar,6,5,DL_Guitar,0.1790301501750946,0
56,100,0.7227272727272728,356,1,71,DL_Guitar,6,12,DL_Guitar,0.9983164072036743,1
56,100,0.2,800,1,71,DL_Guitar,6,3,DL_Guitar,0.5445612072944641,0
54,100,0.3181818181818182,0,1,73,DL_Guitar,6,5,DL_Guitar,0.9990057349205017,1
54,100,0.11818181818181818,83,0,73,DL_Guitar,6,2,DL_Guitar,0.23119866847991943,0
61,100,0.3,606,1,73,DL_Guitar,6,5,DL_Guitar,0.2659115195274353,0
61,100,0.18181818181818182,695,0,73,DL_Guitar,6,3,DL_Guitar,0.3541944622993469,0
65,100,0.1409090909090909,449,1,74,DL_Guitar,6,2,DL_Guitar,0.9990229606628418,1
61,100,0.4,506,0,74,DL_Guitar,6,6,DL_Guitar,0.3666219413280487,0
61,100,0.2409090909090909,783,1,74,DL_Guitar,6,4,DL_Guitar,0.45328253507614136,0
57,100,0.35909090909090907,140,1,75,DL_Guitar,6,6,DL_Guitar,0.9986500144004822,1
54,100,0.12272727272727273,255,0,75,DL_Guitar,6,2,DL_Guitar,0.08780499547719955,0
54,100,0.22272727272727272,422,0,75,DL_Guitar,6,4,DL_Guitar,0.09181343019008636,0
54,100,0.3,546,0,75,DL_Guitar,6,5,DL_Guitar,0.10747549682855606,0
61,100,0.1409090909090909,650,0,75,DL_Guitar,6,2,DL_Guitar,0.12482142448425293,0
61,100,0.17727272727272728,722,0,75,DL_Guitar,6,3,DL_Guitar,0.17902956902980804,0
56,100,0.11818181818181818,0,1,76,DL_Guitar,6,2,DL_Guitar,0.9984880685806274,1
53,100,1.1,100,0,76,DL_Guitar,6,15,DL_Guitar,0.06334291398525238,0
60,100,0.4772727272727273,370,1,76,DL_Guitar,6,8,DL_Guitar,0.05774253234267235,0
57,100,0.12272727272727273,509,0,76,DL_Guitar,6,2,DL_Guitar,0.06020033732056618,0
63,100,0.1,550,0,76,DL_Guitar,6,2,DL_Guitar,0.06970146298408508,0
61,100,0.3181818181818182,770,0,76,DL_Guitar,6,5,DL_Guitar,0.08189602941274643,0
60,100,0.2409090909090909,839,0,76,DL_Guitar,6,4,DL_Guitar,0.12402333319187164,0
56,100,0.3409090909090909,110,1,77,DL_Guitar,6,5,DL_Guitar,0.9984880685806274,1
61,100,0.2,356,1,77,DL_Guitar,6,3,DL_Guitar,0.0633440911769867,0
54,100,0.1590909090909091,413,0,77,DL_Guitar,6,3,DL_Guitar,0.0577416829764843,0
54,100,0.1,466,0,77,DL_Guitar,6,2,DL_Guitar,0.06020238995552063,0
54,100,0.3409090909090909,514,0,77,DL_Guitar,6,5,DL_Guitar,0.06970170140266418,0
61,100,0.17727272727272728,603,0,77,DL_Guitar,6,3,DL_Guitar,0.08189143985509872,0
61,100,0.21818181818181817,779,0,77,DL_Guitar,6,3,DL_Guitar,0.12402208894491196,0
61,100,0.9181818181818182,119,1,78,DL_Guitar,6,15,DL_Guitar,0.9983164072036743,1
56,100,0.12272727272727273,466,1,78,DL_Guitar,6,2,DL_Guitar,0.5445569753646851,0
61,100,0.2818181818181818,333,1,79,DL_Guitar,6,5,DL_Guitar,0.9988419413566589,1
61,100,0.16363636363636364,399,0,79,DL_Guitar,6,3,DL_Guitar,0.13724608719348907,0
54,100,0.3181818181818182,449,0,79,DL_Guitar,6,5,DL_Guitar,0.15977349877357483,0
54,100,0.11818181818181818,580,0,79,DL_Guitar,6,2,DL_Guitar,0.18644531071186066,0
54,100,0.1,624,0,79,DL_Guitar,6,2,DL_Guitar,0.2581620216369629,0
54,100,0.35909090909090907,9,1,80,DL_Guitar,6,6,DL_Guitar,0.9990057349205017,1
54,100,0.21818181818181817,153,0,80,DL_Guitar,6,3,DL_Guitar,0.2312004715204239,0
61,100,0.13636363636363635,436,1,80,DL_Guitar,6,2,DL_Guitar,0.26591596007347107,0
63,100,0.32272727272727275,606,0,80,DL_Guitar,6,5,DL_Guitar,0.3541957437992096,0
56,100,0.2409090909090909,307,1,81,DL_Guitar,6,4,DL_Guitar,0.9990229606628418,1
56,100,0.1,553,1,81,DL_Guitar,6,2,DL_Guitar,0.36663106083869934,0
56,100,0.33636363636363636,590,0,81,DL_Guitar,6,5,DL_Guitar,0.45327889919281006,0
54,100,0.1409090909090909,47,1,84,DL_Guitar,6,2,DL_Guitar,0.9983165264129639,1
54,100,0.22272727272727272,136,0,84,DL_Guitar,6,4,DL_Guitar,0.5445550084114075,0
56,100,0.1,153,1,85,DL_Guitar,6,2,DL_Guitar,0.979255735874176,0
59,100,0.2,443,1,86,DL_Guitar,6,3,DL_Guitar,0.9990230798721313,1
55,100,0.1409090909090909,572,0,86,DL_Guitar,6,2,DL_Guitar,0.366624653339386,0
57,100,0.36363636363636365,796,0,86,DL_Guitar,6,6,DL_Guitar,0.45329058170318604,0
57,100,0.42272727272727273,136,1,87,DL_Guitar,6,7,DL_Guitar,0.9990229606628418,1
57,100,0.1,413,1,87,DL_Guitar,6,2,DL_Guitar,0.36663326621055603,0
57,100,0.16363636363636364,443,0,87,DL_Guitar,6,3,DL_Guitar,0.45330214500427246,0
59,100,0.2590909090909091,373,1,88,DL_Guitar,6,4,DL_Guitar,0.9990229606628418,1
55,100,0.18181818181818182,550,0,88,DL_Guitar,6,3,DL_Guitar,0.3666200041770935,0
62,100,0.2818181818181818,637,0,88,DL_Guitar,6,5,DL_Guitar,0.4532896876335144,0
57,100,0.9409090909090909,110,1,89,DL_Guitar,6,15,DL_Guitar,0.9990057349205017,1
57,100,0.6818181818181818,619,1,89,DL_Guitar,6,11,DL_Guitar,0.23120465874671936,0
57,100,0.16363636363636364,773,0,89,DL_Guitar,6,3,DL_Guitar,0.2659214735031128,0
57,100,0.1,866,0,89,DL_Guitar,6,2,DL_Guitar,0.3541989326477051,0
57,100,0.21818181818181817,53,1,90,DL_Guitar,6,3,DL_Guitar,0.9988419413566589,1
62,100,0.2409090909090909,157,0,90,DL_Guitar,6,4,DL_Guitar,0.13725000619888306,0
57,100,0.1590909090909091,294,0,90,DL_Guitar,6,3,DL_Guitar,0.15977805852890015,0
57,100,0.1,540,1,90,DL_Guitar,6,2,DL_Guitar,0.18645748496055603,0
55,100,0.41818181818181815,779,1,90,DL_Guitar,6,7,DL_Guitar,0.2581707239151001,0
61,100,0.759090909090909,347,1,91,DL_Guitar,6,12,DL_Guitar,0.9983164072036743,1
54,100,0.9409090909090909,836,1,91,DL_Guitar,6,15,DL_Guitar,0.5445617437362671,0
54,100,0.6818181818181818,255,1,92,DL_Guitar,6,11,DL_Guitar,0.9984880685806274,1
62,100,0.12272727272727273,430,0,92,DL_Guitar,6,2,DL_Guitar,0.06334517896175385,0
54,100,0.3,466,0,92,DL_Guitar,6,5,DL_Guitar,0.05774465203285217,0
59,100,0.1409090909090909,536,0,92,DL_Guitar,6,2,DL_Guitar,0.060204099863767624,0
54,100,0.1,612,0,92,DL_Guitar,6,2,DL_Guitar,0.06970398128032684,0
54,100,0.1590909090909091,656,0,92,DL_Guitar,6,3,DL_Guitar,0.08189743012189865,0
66,100,0.1,826,0,92,DL_Guitar,6,2,DL_Guitar,0.12402461469173431,0
55,100,0.2409090909090909,453,1,93,DL_Guitar,6,4,DL_Guitar,0.9990229606628418,1
57,100,0.21818181818181817,603,0,93,DL_Guitar,6,3,DL_Guitar,0.3666183352470398,0
57,100,0.11818181818181818,713,0,93,DL_Guitar,6,2,DL_Guitar,0.453298419713974,0
54,100,0.2590909090909091,210,1,94,DL_Guitar,6,4,DL_Guitar,0.9986500144004822,1
59,100,0.18181818181818182,276,0,94,DL_Guitar,6,3,DL_Guitar,0.0878019705414772,0
54,100,0.2409090909090909,320,0,94,DL_Guitar,6,4,DL_Guitar,0.09181465953588486,0
59,100,0.1,457,0,94,DL_Guitar,6,2,DL_Guitar,0.1074792742729187,0
54,100,0.2818181818181818,637,0,94,DL_Guitar,6,5,DL_Guitar,0.12482354789972305,0
54,100,0.2818181818181818,826,0,94,DL_Guitar,6,5,DL_Guitar,0.17903508245944977,0
59,100,0.4409090909090909,197,1,95,DL_Guitar,6,7,DL_Guitar,0.9983164072036743,1
59,100,0.42272727272727273,826,1,95,DL_Guitar,6,7,DL_Guitar,0.544557511806488,0
57,100,0.2818181818181818,110,1,96,DL_Guitar,6,5,DL_Guitar,0.9990230798721313,1
57,100,0.1,179,0,96,DL_Guitar,6,2,DL_Guitar,0.36662986874580383,0
57,100,0.4590909090909091,206,0,96,DL_Guitar,6,7,DL_Guitar,0.45328909158706665,0
60,100,0.18181818181818182,378,1,0,DL_Remix_Guitar,6,3,DL_Remix_Guitar,0.9990230798721313,1
55,100,0.37727272727272726,546,0,0,DL_Remix_Guitar,6,6,DL_Remix_Guitar,0.36661818623542786,0
55,100,0.3409090909090909,796,1,0,DL_Remix_Guitar,6,5,DL_Remix_Guitar,0.45328420400619507,0
52,100,0.1,267,1,1,DL_Remix_Guitar,6,2,DL_Remix_Guitar,0.9986500144004822,1
53,100,0.18181818181818182,290,0,1,DL_Remix_Guitar,6,3,DL_Remix_Guitar,0.08780300617218018,0
60,100,0.1,360,0,1,DL_Remix_Guitar,6,2,DL_Remix_Guitar,0.09181265532970428,0
60,100,0.11818181818181818,405,0,1,DL_Remix_Guitar,6,2,DL_Remix_Guitar,0.10747703164815903,0
60,100,0.2636363636363636,487,0,1,DL_Remix_Guitar,6,4,DL_Remix_Guitar,0.12482420355081558,0
60,100,0.1590909090909091,700,0,1,DL_Remix_Guitar,6,3,DL_Remix_Guitar,0.17903384566307068,0
62,100,0.4409090909090909,34,1,2,DL_Remix_Guitar,6,7,DL_Remix_Guitar,0.9986500144004822,1
55,100,0.2772727272727273,281,1,2,DL_Remix_Guitar,6,4,DL_Remix_Guitar,0.0878034383058548,0
62,100,0.18181818181818182,421,0,2,DL_Remix_Guitar,6,3,DL_Remix_Guitar,0.09181620925664902,0
62,100,0.2818181818181818,528,0,2,DL_Remix_Guitar,6,5,DL_Remix_Guitar,0.10748009383678436,0
62,100,0.11818181818181818,611,0,2,DL_Remix_Guitar,6,2,DL_Remix_Guitar,0.12483154982328415,0
62,100,0.5227272727272727,642,0,2,DL_Remix_Guitar,6,8,DL_Remix_Guitar,0.17904254794120789,0
61,100,0.1590909090909091,83,1,3,DL_Remix_Guitar,6,3,DL_Remix_Guitar,0.9984880685806274,1
61,100,0.18181818181818182,122,0,3,DL_Remix_Guitar,6,3,DL_Remix_Guitar,0.06334511935710907,0
61,100,0.2818181818181818,254,0,3,DL_Remix_Guitar,6,5,DL_Remix_Guitar,0.05774346739053726,0
57,100,0.37727272727272726,427,0,3,DL_Remix_Guitar,6,6,DL_Remix_Guitar,0.060203202068805695,0
57,100,0.32272727272727275,607,0,3,DL_Remix_Guitar,6,5,DL_Remix_Guitar,0.06970380991697311,0
60,100,0.2,694,0,3,DL_Remix_Guitar,6,3,DL_Remix_Guitar,0.08190067112445831,0
57,100,0.38181818181818183,836,0,3,DL_Remix_Guitar,6,6,DL_Remix_Guitar,0.12402153015136719,0
57,100,0.22272727272727272,48,1,4,DL_Remix_Guitar,6,4,DL_Remix_Guitar,0.9986500144004822,1
62,100,0.6772727272727272,260,0,4,DL_Remix_Guitar,6,11,DL_Remix_Guitar,0.08780453354120255,0
59,100,0.2818181818181818,465,0,4,DL_Remix_Guitar,6,5,DL_Remix_Guitar,0.09181664884090424,0
60,100,0.1,527,0,4,DL_Remix_Guitar,6,2,DL_Remix_Guitar,0.10747770965099335,0
60,100,0.18181818181818182,575,0,4,DL_Remix_Guitar,6,3,DL_Remix_Guitar,0.1248280256986618,0
60,100,0.5772727272727273,765,0,4,DL_Remix_Guitar,6,9,DL_Remix_Guitar,0.17903763055801392,0
53,100,0.1,444,1,5,DL_Remix_Guitar,6,2,DL_Remix_Guitar,0.9990230798721313,1
55,100,0.2590909090909091,545,0,5,DL_Remix_Guitar,6,4,DL_Remix_Guitar,0.3666229844093323,0
60,100,0.2590909090909091,849,1,5,DL_Remix_Guitar,6,4,DL_Remix_Guitar,0.4532945454120636,0
57,100,0.4,150,1,6,DL_Remix_Guitar,6,6,DL_Remix_Guitar,0.9986500144004822,1
60,100,0.11818181818181818,360,0,6,DL_Remix_Guitar,6,2,DL_Remix_Guitar,0.08780434727668762,0
56,100,0.2409090909090909,399,0,6,DL_Remix_Guitar,6,4,DL_Remix_Guitar,0.09181195497512817,0
60,100,0.1,458,0,6,DL_Remix_Guitar,6,2,DL_Remix_Guitar,0.10747785866260529,0
57,100,0.18181818181818182,708,1,6,DL_Remix_Guitar,6,3,DL_Remix_Guitar,0.12482134997844696,0
52,100,0.36363636363636365,795,0,6,DL_Remix_Guitar,6,6,DL_Remix_Guitar,0.179030179977417,0
52,100,0.42272727272727273,4,1,7,DL_Remix_Guitar,6,7,DL_Remix_Guitar,0.9990230798721313,1
55,100,0.3,726,1,7,DL_Remix_Guitar,6,5,DL_Remix_Guitar,0.3666248321533203,0
57,100,0.11818181818181818,836,0,7,DL_Remix_Guitar,6,2,DL_Remix_Guitar,0.45328840613365173,0
57,100,0.4590909090909091,84,1,8,DL_Remix_Guitar,6,7,DL_Remix_Guitar,0.9986500144004822,1
57,100,0.21818181818181817,338,1,8,DL_Remix_Guitar,6,3,DL_Remix_Guitar,0.08780521899461746,0
57,100,0.18181818181818182,400,0,8,DL_Remix_Guitar,6,3,DL_Remix_Guitar,0.09181895107030869,0
57,100,0.1409090909090909,462,0,8,DL_Remix_Guitar,6,2,DL_Remix_Guitar,0.10748794674873352,0
57,100,0.6818181818181818,563,0,8,DL_Remix_Guitar,6,11,DL_Remix_Guitar,0.12483035773038864,0
56,100,0.12272727272727273,761,0,8,DL_Remix_Guitar,6,2,DL_Remix_Guitar,0.17904019355773926,0
60,100,0.1409090909090909,56,1,9,DL_Remix_Guitar,6,2,DL_Remix_Guitar,0.9990057349205017,1
55,100,0.1,211,0,9,DL_Remix_Guitar,6,2,DL_Remix_Guitar,0.2312062680721283,0
55,100,0.1409090909090909,426,0,9,DL_Remix_Guitar,6,2,DL_Remix_Guitar,0.26592814922332764,0
53,100,0.3,804,1,9,DL_Remix_Guitar,6,5,DL_Remix_Guitar,0.3541962504386902,0
53,100,0.16363636363636364,48,1,10,DL_Remix_Guitar,6,3,DL_Remix_Guitar,0.9990229606628418,1
53,100,0.12272727272727273,101,0,10,DL_Remix_Guitar,6,2,DL_Remix_Guitar,0.3666229248046875,0
58,100,0.2409090909090909,756,1,10,DL_Remix_Guitar,6,4,DL_Remix_Guitar,0.4532943069934845,0
53,100,0.3,668,1,11,DL_Remix_Guitar,6,5,DL_Remix_Guitar,0.9990229606628418,1
53,100,0.16363636363636364,752,0,11,DL_Remix_Guitar,6,3,DL_Remix_Guitar,0.36662226915359497,0
53,100,0.4,826,0,11,DL_Remix_Guitar,6,6,DL_Remix_Guitar,0.4532872438430786,0
60,100,0.1590909090909091,61,1,12,DL_Remix_Guitar,6,3,DL_Remix_Guitar,0.9984880685806274,1
53,100,0.21818181818181817,96,0,12,DL_Remix_Guitar,6,3,DL_Remix_Guitar,0.06334448605775833,0
53,100,0.2,163,0,12,DL_Remix_Guitar,6,3,DL_Remix_Guitar,0.05774230509996414,0
52,100,0.3181818181818182,316,0,12,DL_Remix_Guitar,6,5,DL_Remix_Guitar,0.06020306050777435,0
52,100,0.2,493,0,12,DL_Remix_Guitar,6,3,DL_Remix_Guitar,0.06970337778329849,0
52,100,0.2409090909090909,625,0,12,DL_Remix_Guitar,6,4,DL_Remix_Guitar,0.08189564198255539,0
52,100,0.3,685,0,12,DL_Remix_Guitar,6,5,DL_Remix_Guitar,0.12402266263961792,0
52,100,0.3,44,1,13,DL_Remix_Guitar,6,5,DL_Remix_Guitar,0.9986500144004822,1
52,100,0.1409090909090909,132,0,13,DL_Remix_Guitar,6,2,DL_Remix_Guitar,0.08780545741319656,0
52,100,0.22272727272727272,180,0,13,DL_Remix_Guitar,6,4,DL_Remix_Guitar,0.0918181985616684,0
57,100,0.18181818181818182,355,0,13,DL_Remix_Guitar,6,3,DL_Remix_Guitar,0.10748264938592911,0
57,100,0.1,519,0,13,DL_Remix_Guitar,6,2,DL_Remix_Guitar,0.12483543902635574,0
57,100,0.740909090909091,801,1,13,DL_Remix_Guitar,6,12,DL_Remix_Guitar,0.17903676629066467,0
57,100,0.8818181818181818,123,1,14,DL_Remix_Guitar,6,14,DL_Remix_Guitar,0.9990057349205017,1
74,100,0.5227272727272727,321,0,14,DL_Remix_Guitar,6,8,DL_Remix_Guitar,0.23120883107185364,0
74,100,0.12272727272727273,510,0,14,DL_Remix_Guitar,6,2,DL_Remix_Guitar,0.26592859625816345,0
52,100,0.5590909090909091,611,0,14,DL_Remix_Guitar,6,9,DL_Remix_Guitar,0.35420629382133484,0
52,100,0.18181818181818182,25,1,15,DL_Remix_Guitar,6,3,DL_Remix_Guitar,0.9990229606628418,1
52,100,0.5,233,0,15,DL_Remix_Guitar,6,8,DL_Remix_Guitar,0.36662331223487854,0
52,100,0.2772727272727273,347,0,15,DL_Remix_Guitar,6,4,DL_Remix_Guitar,0.453291654586792,0
53,100,0.21818181818181817,440,1,16,DL_Remix_Guitar,6,3,DL_Remix_Guitar,0.9792560338973999,0
58,100,0.2,343,1,17,DL_Remix_Guitar,6,3,DL_Remix_Guitar,0.9990230798721313,1
55,100,0.2409090909090909,519,0,17,DL_Remix_Guitar,6,4,DL_Remix_Guitar,0.3666289448738098,0
57,100,0.3,669,0,17,DL_Remix_Guitar,6,5,DL_Remix_Guitar,0.45328715443611145,0
53,100,0.2,17,1,18,DL_Remix_Guitar,6,3,DL_Remix_Guitar,0.9990229606628418,1
53,100,0.4636363636363636,488,1,18,DL_Remix_Guitar,6,7,DL_Remix_Guitar,0.36661824584007263,0
53,100,0.16363636363636364,619,0,18,DL_Remix_Guitar,6,3,DL_Remix_Guitar,0.45328518748283386,0
52,100,0.2772727272727273,229,1,19,DL_Remix_Guitar,6,4,DL_Remix_Guitar,0.9988419413566589,1
52,100,0.12272727272727273,364,0,19,DL_Remix_Guitar,6,2,DL_Remix_Guitar,0.13724784553050995,0
59,100,0.12272727272727273,488,0,19,DL_Remix_Guitar,6,2,DL_Remix_Guitar,0.15977822244167328,0
52,100,0.4,590,0,19,DL_Remix_Guitar,6,6,DL_Remix_Guitar,0.18644845485687256,0
52,100,0.32272727272727275,708,0,19,DL_Remix_Guitar,6,5,DL_Remix_Guitar,0.258171409368515,0
55,100,0.11818181818181818,559,1,20,DL_Remix_Guitar,6,2,DL_Remix_Guitar,0.9983164072036743,1
55,100,0.17727272727272728,810,1,20,DL_Remix_Guitar,6,3,DL_Remix_Guitar,0.5445533990859985,0
56,100,0.2,656,1,21,DL_Remix_Guitar,6,3,DL_Remix_Guitar,0.9983165264129639,1
62,100,0.1409090909090909,773,0,21,DL_Remix_Guitar,6,2,DL_Remix_Guitar,0.5445629954338074,0
57,100,0.16363636363636364,422,1,22,DL_Remix_Guitar,6,3,DL_Remix_Guitar,0.9990057349205017,1
57,100,0.22272727272727272,497,0,22,DL_Remix_Guitar,6,4,DL_Remix_Guitar,0.23120702803134918,0
57,100,0.1,756,1,22,DL_Remix_Guitar,6,2,DL_Remix_Guitar,0.2659261226654053,0
57,100,0.11818181818181818,876,0,22,DL_Remix_Guitar,6,2,DL_Remix_Guitar,0.35419538617134094,0
65,100,0.23636363636363636,766,1,23,DL_Remix_Guitar,6,4,DL_Remix_Guitar,0.9983165264129639,1
65,100,0.18181818181818182,827,0,23,DL_Remix_Guitar,6,3,DL_Remix_Guitar,0.5445553064346313,0
57,100,0.4409090909090909,65,1,24,DL_Remix_Guitar,6,7,DL_Remix_Guitar,0.9990229606628418,1
55,100,0.2818181818181818,532,1,24,DL_Remix_Guitar,6,5,DL_Remix_Guitar,0.3666223883628845,0
53,100,0.22272727272727272,796,1,24,DL_Remix_Guitar,6,4,DL_Remix_Guitar,0.4532865583896637,0
55,100,0.12272727272727273,26,1,25,DL_Remix_Guitar,6,2,DL_Remix_Guitar,0.9988419413566589,1
55,100,0.5,150,0,25,DL_Remix_Guitar,6,8,DL_Remix_Guitar,0.13725276291370392,0
53,100,0.12272727272727273,378,0,25,DL_Remix_Guitar,6,2,DL_Remix_Guitar,0.15977750718593597,0
55,100,0.3,611,1,25,DL_Remix_Guitar,6,5,DL_Remix_Guitar,0.18644680082798004,0
55,100,0.43636363636363634,831,0,25,DL_Remix_Guitar,6,7,DL_Remix_Guitar,0.2581585645675659,0
60,100,0.18181818181818182,351,1,26,DL_Remix_Guitar,6,3,DL_Remix_Guitar,0.9988419413566589,1
53,100,0.1590909090909091,602,1,26,DL_Remix_Guitar,6,3,DL_Remix_Guitar,0.13725219666957855,0
57,100,0.16363636363636364,663,0,26,DL_Remix_Guitar,6,3,DL_Remix_Guitar,0.159785196185112,0
57,100,0.5409090909090909,708,0,26,DL_Remix_Guitar,6,9,DL_Remix_Guitar,0.18645676970481873,0
57,100,0.759090909090909,858,0,26,DL_Remix_Guitar,6,12,DL_Remix_Guitar,0.25816431641578674,0
57,100,0.12272727272727273,223,1,27,DL_Remix_Guitar,6,2,DL_Remix_Guitar,0.9990057349205017,1
57,100,0.4818181818181818,285,0,27,DL_Remix_Guitar,6,8,DL_Remix_Guitar,0.2312059849500656,0
53,100,0.1409090909090909,453,0,27,DL_Remix_Guitar,6,2,DL_Remix_Guitar,0.2659302055835724,0
57,100,0.11818181818181818,581,0,27,DL_Remix_Guitar,6,2,DL_Remix_Guitar,0.3541988134384155,0
81,100,0.11818181818181818,295,1,28,DL_Remix_Guitar,6,2,DL_Remix_Guitar,0.9988419413566589,1
53,100,0.21818181818181817,581,1,28,DL_Remix_Guitar,6,3,DL_Remix_Guitar,0.13724593818187714,0
53,100,0.22272727272727272,663,0,28,DL_Remix_Guitar,6,4,DL_Remix_Guitar,0.15977266430854797,0
52,100,0.23636363636363636,787,0,28,DL_Remix_Guitar,6,4,DL_Remix_Guitar,0.18644730746746063,0
52,100,0.23636363636363636,876,0,28,DL_Remix_Guitar,6,4,DL_Remix_Guitar,0.2581656873226166,0
52,100,0.2,189,1,29,DL_Remix_Guitar,6,3,DL_Remix_Guitar,0.9990229606628418,1
59,100,0.11818181818181818,405,0,29,DL_Remix_Guitar,6,2,DL_Remix_Guitar,0.3666236400604248,0
62,100,0.1590909090909091,461,0,29,DL_Remix_Guitar,6,3,DL_Remix_Guitar,0.45329105854034424,0
53,100,0.5590909090909091,611,1,44,DL_Remix_Guitar,6,9,DL_Remix_Guitar,0.9792559146881104,0
55,100,0.1590909090909091,131,1,46,DL_Remix_Guitar,6,3,DL_Remix_Guitar,0.9990057349205017,1
55,100,0.3181818181818182,338,0,46,DL_Remix_Guitar,6,5,DL_Remix_Guitar,0.23120710253715515,0
57,100,0.8409090909090909,440,0,46,DL_Remix_Guitar,6,13,DL_Remix_Guitar,0.2659207880496979,0
60,100,0.11818181818181818,668,0,46,DL_Remix_Guitar,6,2,DL_Remix_Guitar,0.35419583320617676,0
52,100,0.13636363636363635,18,1,47,DL_Remix_Guitar,6,2,DL_Remix_Guitar,0.9983165264129639,1
60,100,0.11818181818181818,370,1,47,DL_Remix_Guitar,6,2,DL_Remix_Guitar,0.544559895992279,0
62,100,0.1409090909090909,298,1,48,DL_Remix_Guitar,6,2,DL_Remix_Guitar,0.9990229606628418,1
52,100,0.1409090909090909,378,0,48,DL_Remix_Guitar,6,2,DL_Remix_Guitar,0.3666400909423828,0
57,100,0.8818181818181818,616,1,48,DL_Remix_Guitar,6,14,DL_Remix_Guitar,0.4532850980758667,0
62,100,0.18181818181818182,576,1,49,DL_Remix_Guitar,6,3,DL_Remix_Guitar,0.9983165264129639,1
53,100,0.18181818181818182,638,0,49,DL_Remix_Guitar,6,3,DL_Remix_Guitar,0.5445550680160522,0
59,100,0.1590909090909091,541,1,50,DL_Remix_Guitar,6,3,DL_Remix_Guitar,0.9792561531066895,0
57,100,0.21818181818181817,506,1,51,DL_Remix_Guitar,6,3,DL_Remix_Guitar,0.9983165264129639,1
57,100,0.12272727272727273,716,0,51,DL_Remix_Guitar,6,2,DL_Remix_Guitar,0.5445569753646851,0
59,100,0.2,738,1,52,DL_Remix_Guitar,6,3,DL_Remix_Guitar,0.9792561531066895,0
57,100,0.4636363636363636,311,1,53,DL_Remix_Guitar,6,7,DL_Remix_Guitar,0.9990230798721313,1
57,100,0.4,673,1,53,DL_Remix_Guitar,6,6,DL_Remix_Guitar,0.36662542819976807,0
57,100,0.17727272727272728,765,0,53,DL_Remix_Guitar,6,3,DL_Remix_Guitar,0.4532977342605591,0
64,100,0.37727272727272726,193,1,54,DL_Remix_Guitar,6,6,DL_Remix_Guitar,0.9792566299438477,0
67,100,0.5636363636363636,69,1,55,DL_Remix_Guitar,6,9,DL_Remix_Guitar,0.9986500144004822,1
55,100,0.1409090909090909,206,0,55,DL_Remix_Guitar,6,2,DL_Remix_Guitar,0.0878051221370697,0
57,100,0.8,276,0,55,DL_Remix_Guitar,6,13,DL_Remix_Guitar,0.09181258827447891,0
57,100,0.11818181818181818,458,0,55,DL_Remix_Guitar,6,2,DL_Remix_Guitar,0.1074775904417038,0
53,100,1.1181818181818182,568,0,55,DL_Remix_Guitar,6,15,DL_Remix_Guitar,0.12482297420501709,0
57,100,0.2590909090909091,848,1,55,DL_Remix_Guitar,6,4,DL_Remix_Guitar,0.17902791500091553,0
57,100,0.3,171,1,56,DL_Remix_Guitar,6,5,DL_Remix_Guitar,0.9988419413566589,1
52,100,0.1409090909090909,295,0,56,DL_Remix_Guitar,6,2,DL_Remix_Guitar,0.1372482031583786,0
52,100,0.4409090909090909,405,0,56,DL_Remix_Guitar,6,7,DL_Remix_Guitar,0.15977975726127625,0
52,100,0.7,628,0,56,DL_Remix_Guitar,6,11,DL_Remix_Guitar,0.18645060062408447,0
52,100,0.2409090909090909,836,0,56,DL_Remix_Guitar,6,4,DL_Remix_Guitar,0.25817424058914185,0
52,100,0.36363636363636365,224,1,57,DL_Remix_Guitar,6,6,DL_Remix_Guitar,0.9983165264129639,1
64,100,0.2590909090909091,364,0,57,DL_Remix_Guitar,6,4,DL_Remix_Guitar,0.5445600748062134,0
53,100,0.2772727272727273,206,1,58,DL_Remix_Guitar,6,4,DL_Remix_Guitar,0.9792559146881104,0
55,100,0.2409090909090909,66,1,59,DL_Remix_Guitar,6,4,DL_Remix_Guitar,0.9990057349205017,1
52,100,0.17727272727272728,568,1,59,DL_Remix_Guitar,6,3,DL_Remix_Guitar,0.23119966685771942,0
57,100,0.11818181818181818,735,0,59,DL_Remix_Guitar,6,2,DL_Remix_Guitar,0.2659122049808502,0
60,100,0.17727272727272728,875,0,59,DL_Remix_Guitar,6,3,DL_Remix_Guitar,0.35419589281082153,0
57,100,0.21818181818181817,105,1,60,DL_Remix_Guitar,6,3,DL_Remix_Guitar,0.9988419413566589,1
57,100,0.12272727272727273,179,0,60,DL_Remix_Guitar,6,2,DL_Remix_Guitar,0.137252539396286,0
60,100,0.3,396,0,60,DL_Remix_Guitar,6,5,DL_Remix_Guitar,0.15978313982486725,0
64,100,0.13636363636363635,633,1,60,DL_Remix_Guitar,6,2,DL_Remix_Guitar,0.18646012246608734,0
57,100,1.040909090909091,716,0,60,DL_Remix_Guitar,6,15,DL_Remix_Guitar,0.2581624388694763,0
60,100,0.12272727272727273,158,1,61,DL_Remix_Guitar,6,2,DL_Remix_Guitar,0.9983165264129639,1
57,100,1.440909090909091,311,0,61,DL_Remix_Guitar,6,15,DL_Remix_Guitar,0.544550895690918,0
57,100,0.2,584,1,62,DL_Remix_Guitar,6,3,DL_Remix_Guitar,0.9792565107345581,0
57,100,0.2409090909090909,8,1,63,DL_Remix_Guitar,6,4,DL_Remix_Guitar,0.9988419413566589,1
57,100,0.1590909090909091,273,1,63,DL_Remix_Guitar,6,3,DL_Remix_Guitar,0.1372486799955368,0
57,100,0.1590909090909091,364,0,63,DL_Remix_Guitar,6,3,DL_Remix_Guitar,0.15977728366851807,0
57,100,0.12272727272727273,453,0,63,DL_Remix_Guitar,6,2,DL_Remix_Guitar,0.18644806742668152,0
57,100,0.1409090909090909,515,0,63,DL_Remix_Guitar,6,2,DL_Remix_Guitar,0.25816962122917175,0
55,100,0.3,546,1,65,DL_Remix_Guitar,6,5,DL_Remix_Guitar,0.9792567491531372,0
52,100,0.9409090909090909,307,1,66,DL_Remix_Guitar,6,15,DL_Remix_Guitar,0.9990229606628418,1
52,100,0.2772727272727273,633,1,66,DL_Remix_Guitar,6,4,DL_Remix_Guitar,0.36662355065345764,0
52,100,0.33636363636363636,743,0,66,DL_Remix_Guitar,6,5,DL_Remix_Guitar,0.4532901644706726,0
62,100,0.5409090909090909,9,1,67,DL_Remix_Guitar,6,9,DL_Remix_Guitar,0.9990057349205017,1
59,100,0.22272727272727272,166,0,67,DL_Remix_Guitar,6,4,DL_Remix_Guitar,0.23120373487472534,0
60,100,0.2409090909090909,550,1,67,DL_Remix_Guitar,6,4,DL_Remix_Guitar,0.26592180132865906,0
57,100,0.3,813,1,67,DL_Remix_Guitar,6,5,DL_Remix_Guitar,0.3542003035545349,0
57,100,0.2,96,1,68,DL_Remix_Guitar,6,3,DL_Remix_Guitar,0.9990057349205017,1
57,100,0.12272727272727273,189,0,68,DL_Remix_Guitar,6,2,DL_Remix_Guitar,0.2312103658914566,0
57,100,0.3,470,1,68,DL_Remix_Guitar,6,5,DL_Remix_Guitar,0.2659247815608978,0
57,100,0.38181818181818183,606,0,68,DL_Remix_Guitar,6,6,DL_Remix_Guitar,0.35420602560043335,0
57,100,0.13636363636363635,347,1,69,DL_Remix_Guitar,6,2,DL_Remix_Guitar,0.9990229606628418,1
57,100,0.11818181818181818,462,0,69,DL_Remix_Guitar,6,2,DL_Remix_Guitar,0.36662349104881287,0
64,100,0.12272727272727273,540,0,69,DL_Remix_Guitar,6,2,DL_Remix_Guitar,0.45329636335372925,0
57,100,0.1590909090909091,462,1,70,DL_Remix_Guitar,6,3,DL_Remix_Guitar,0.9792560338973999,0
58,100,0.5636363636363636,157,1,71,DL_Remix_Guitar,6,9,DL_Remix_Guitar,0.9792563915252686,0
57,100,0.1590909090909091,30,1,72,DL_Remix_Guitar,6,3,DL_Remix_Guitar,0.9983165264129639,1
57,100,0.11818181818181818,150,0,72,DL_Remix_Guitar,6,2,DL_Remix_Guitar,0.5445636510848999,0
64,100,0.1,343,1,73,DL_Remix_Guitar,6,2,DL_Remix_Guitar,0.9990057349205017,1
64,100,0.4,377,0,73,DL_Remix_Guitar,6,6,DL_Remix_Guitar,0.2312053143978119,0
52,100,0.1,606,0,73,DL_Remix_Guitar,6,2,DL_Remix_Guitar,0.2659272253513336,0
57,100,0.6590909090909091,660,0,73,DL_Remix_Guitar,6,11,DL_Remix_Guitar,0.35419344902038574,0
56,100,0.2,53,1,74,DL_Remix_Guitar,6,3,DL_Remix_Guitar,0.9988419413566589,1
56,100,1.2227272727272727,100,0,74,DL_Remix_Guitar,6,15,DL_Remix_Guitar,0.13724327087402344,0
52,100,0.2409090909090909,383,1,74,DL_Remix_Guitar,6,4,DL_Remix_Guitar,0.1597776561975479,0
57,100,0.11818181818181818,483,0,74,DL_Remix_Guitar,6,2,DL_Remix_Guitar,0.1864488571882248,0
57,100,0.22272727272727272,519,0,74,DL_Remix_Guitar,6,4,DL_Remix_Guitar,0.25816208124160767,0
57,100,0.8,96,1,75,DL_Remix_Guitar,6,13,DL_Remix_Guitar,0.9990057349205017,1
57,100,0.2818181818181818,352,1,75,DL_Remix_Guitar,6,5,DL_Remix_Guitar,0.23121047019958496,0
57,100,0.2,417,0,75,DL_Remix_Guitar,6,3,DL_Remix_Guitar,0.265933632850647,0
55,100,0.3,839,1,75,DL_Remix_Guitar,6,5,DL_Remix_Guitar,0.3542026877403259,0
62,100,0.6818181818181818,773,1,76,DL_Remix_Guitar,6,11,DL_Remix_Guitar,0.9792561531066895,0
57,100,0.5818181818181818,263,1,77,DL_Remix_Guitar,6,9,DL_Remix_Guitar,0.9983165264129639,1
57,100,0.6,752,1,77,DL_Remix_Guitar,6,10,DL_Remix_Guitar,0.5445502400398254,0
57,100,0.2590909090909091,404,1,78,DL_Remix_Guitar,6,4,DL_Remix_Guitar,0.9792560338973999,0
53,100,0.12272727272727273,466,1,79,DL_Remix_Guitar,6,2,DL_Remix_Guitar,0.9983165264129639,1
57,100,0.12272727272727273,553,0,79,DL_Remix_Guitar,6,2,DL_Remix_Guitar,0.544557511806488,0
57,100,0.4590909090909091,56,1,80,DL_Remix_Guitar,6,7,DL_Remix_Guitar,0.9983164072036743,1
57,100,0.5,550,1,80,DL_Remix_Guitar,6,8,DL_Remix_Guitar,0.5445537567138672,0
57,100,0.35909090909090907,633,1,81,DL_Remix_Guitar,6,6,DL_Remix_Guitar,0.979256272315979,1
57,100,0.35909090909090907,30,1,82,DL_Remix_Guitar,6,6,DL_Remix_Guitar,0.979256272315979,0
58,100,0.18181818181818182,157,1,83,DL_Remix_Guitar,6,3,DL_Remix_Guitar,0.9990057349205017,1
58,100,0.8772727272727273,326,0,83,DL_Remix_Guitar,6,14,DL_Remix_Guitar,0.23120146989822388,0
63,100,0.33636363636363636,567,1,83,DL_Remix_Guitar,6,5,DL_Remix_Guitar,0.2659207284450531,0
52,100,0.17727272727272728,844,1,83,DL_Remix_Guitar,6,3,DL_Remix_Guitar,0.35419631004333496,0
52,100,0.38181818181818183,396,1,84,DL_Remix_Guitar,6,6,DL_Remix_Guitar,0.9792565107345581,0
62,100,0.2818181818181818,35,1,85,DL_Remix_Guitar,6,5,DL_Remix_Guitar,0.9990229606628418,1
62,100,0.35909090909090907,150,0,85,DL_Remix_Guitar,6,6,DL_Remix_Guitar,0.3666294515132904,0
59,100,0.2772727272727273,480,1,85,DL_Remix_Guitar,6,4,DL_Remix_Guitar,0.45330095291137695,0
57,100,0.17727272727272728,184,1,86,DL_Remix_Guitar,6,3,DL_Remix_Guitar,0.9983165264129639,1
57,100,0.3409090909090909,229,0,86,DL_Remix_Guitar,6,5,DL_Remix_Guitar,0.5445587038993835,0
55,100,0.16363636363636364,817,1,87,DL_Remix_Guitar,6,3,DL_Remix_Guitar,0.9792567491531372,0
55,100,0.1,43,1,88,DL_Remix_Guitar,6,2,DL_Remix_Guitar,0.9983165264129639,1
55,100,0.1,69,0,88,DL_Remix_Guitar,6,2,DL_Remix_Guitar,0.5445524454116821,0
56,100,0.1,356,1,89,DL_Remix_Guitar,6,2,DL_Remix_Guitar,0.9983164072036743,1
57,100,0.2590909090909091,743,1,89,DL_Remix_Guitar,6,4,DL_Remix_Guitar,0.5445629358291626,0
57,100,0.1409090909090909,22,1,90,DL_Remix_Guitar,6,2,DL_Remix_Guitar,0.9990057349205017,1
57,100,0.21818181818181817,216,0,90,DL_Remix_Guitar,6,3,DL_Remix_Guitar,0.23120929300785065,0
55,100,0.21818181818181817,766,1,90,DL_Remix_Guitar,6,3,DL_Remix_Guitar,0.26592817902565,0
55,100,0.4,817,0,90,DL_Remix_Guitar,6,6,DL_Remix_Guitar,0.3541980981826782,0
55,100,0.22272727272727272,862,1,91,DL_Remix_Guitar,6,4,DL_Remix_Guitar,0.9792567491531372,1
55,100,0.2409090909090909,66,1,92,DL_Remix_Guitar,6,4,DL_Remix_Guitar,0.9792566299438477,0
57,100,0.8,83,1,97,DL_Remix_Guitar,6,13,DL_Remix_Guitar,0.9990057349205017,1
52,100,0.2,707,1,97,DL_Remix_Guitar,6,3,DL_Remix_Guitar,0.23120398819446564,0
52,100,0.13636363636363635,766,0,97,DL_Remix_Guitar,6,2,DL_Remix_Guitar,0.2659249007701874,0
52,100,0.16363636363636364,839,0,97,DL_Remix_Guitar,6,3,DL_Remix_Guitar,0.3541988730430603,0
57,100,3.3,462,1,99,DL_Remix_Guitar,6,15,DL_Remix_Guitar,0.9792526364326477,0
55,100,0.2590909090909091,483,1,101,DL_Remix_Guitar,6,4,DL_Remix_Guitar,0.9983165264129639,1
67,100,0.4818181818181818,716,1,101,DL_Remix_Guitar,6,8,DL_Remix_Guitar,0.5445526242256165,0
67,100,0.4,857,1,102,DL_Remix_Guitar,6,6,DL_Remix_Guitar,0.9792558550834656,0
67,100,0.1,220,1,103,DL_Remix_Guitar,6,2,DL_Remix_Guitar,0.9990229606628418,1
67,100,0.1,276,0,103,DL_Remix_Guitar,6,2,DL_Remix_Guitar,0.36662378907203674,0
60,100,0.4818181818181818,399,0,103,DL_Remix_Guitar,6,8,DL_Remix_Guitar,0.45328792929649353,0
52,100,0.1590909090909091,273,1,104,DL_Remix_Guitar,6,3,DL_Remix_Guitar,0.9990230798721313,1
52,100,0.22272727272727272,540,1,104,DL_Remix_Guitar,6,4,DL_Remix_Guitar,0.36663001775741577,0
53,100,0.7772727272727272,756,0,104,DL_Remix_Guitar,6,12,DL_Remix_Guitar,0.45328930020332336,0
60,100,0.1,136,1,105,DL_Remix_Guitar,6,2,DL_Remix_Guitar,0.9988419413566589,1
53,100,0.4590909090909091,233,0,105,DL_Remix_Guitar,6,7,DL_Remix_Guitar,0.1372460573911667,0
53,100,0.5181818181818182,457,0,105,DL_Remix_Guitar,6,8,DL_Remix_Guitar,0.15977877378463745,0
53,100,0.5181818181818182,590,0,105,DL_Remix_Guitar,6,8,DL_Remix_Guitar,0.18644291162490845,0
52,100,0.11818181818181818,857,1,105,DL_Remix_Guitar,6,2,DL_Remix_Guitar,0.25816524028778076,0
52,100,0.3,66,1,106,DL_Remix_Guitar,6,5,DL_Remix_Guitar,0.9990229606628418,1
52,100,0.23636363636363636,567,1,106,DL_Remix_Guitar,6,4,DL_Remix_Guitar,0.3666251301765442,0
55,100,0.17727272727272728,853,1,106,DL_Remix_Guitar,6,3,DL_Remix_Guitar,0.4532921016216278,0
55,100,0.5181818181818182,404,1,107,DL_Remix_Guitar,6,8,DL_Remix_Guitar,0.9983165264129639,1
55,100,0.1,523,0,107,DL_Remix_Guitar,6,2,DL_Remix_Guitar,0.5445541143417358,0
57,100,0.12272727272727273,386,1,108,DL_Remix_Guitar,6,2,DL_Remix_Guitar,0.9983165264129639,1
55,100,0.6,567,0,108,DL_Remix_Guitar,6,10,DL_Remix_Guitar,0.5445607304573059,0
55,100,0.5409090909090909,3,1,109,DL_Remix_Guitar,6,9,DL_Remix_Guitar,0.9990057349205017,1
55,100,0.2636363636363636,136,0,109,DL_Remix_Guitar,6,4,DL_Remix_Guitar,0.2312028706073761,0
55,100,0.18181818181818182,519,1,109,DL_Remix_Guitar,6,3,DL_Remix_Guitar,0.2659199833869934,0
55,100,0.11818181818181818,590,0,109,DL_Remix_Guitar,6,2,DL_Remix_Guitar,0.3541862964630127,0
55,100,0.18181818181818182,87,1,110,DL_Remix_Guitar,6,3,DL_Remix_Guitar,0.9792566299438477,0
55,100,0.12272727272727273,399,1,111,DL_Remix_Guitar,6,2,DL_Remix_Guitar,0.9990230798721313,1
55,100,0.21818181818181817,436,0,111,DL_Remix_Guitar,6,3,DL_Remix_Guitar,0.366622656583786,0
67,100,0.11818181818181818,656,0,111,DL_Remix_Guitar,6,2,DL_Remix_Guitar,0.4532886743545532,0
56,100,0.1,426,1,112,DL_Remix_Guitar,6,2,DL_Remix_Guitar,0.9983165264129639,1
57,100,0.16363636363636364,532,0,112,DL_Remix_Guitar,6,3,DL_Remix_Guitar,0.5445584654808044,0
55,100,0.2409090909090909,642,1,113,DL_Remix_Guitar,6,4,DL_Remix_Guitar,0.9983165264129639,1
67,100,0.1409090909090909,857,0,113,DL_Remix_Guitar,6,2,DL_Remix_Guitar,0.5445564389228821,0
55,100,0.1590909090909091,9,1,114,DL_Remix_Guitar,6,3,DL_Remix_Guitar,0.9990229606628418,1
55,100,0.16363636363636364,47,0,114,DL_Remix_Guitar,6,3,DL_Remix_Guitar,0.3666190803050995,0
55,100,0.1409090909090909,179,0,114,DL_Remix_Guitar,6,2,DL_Remix_Guitar,0.4532903730869293,0
53,100,0.35909090909090907,17,1,115,DL_Remix_Guitar,6,6,DL_Remix_Guitar,0.9988419413566589,1
53,100,0.1590909090909091,282,1,115,DL_Remix_Guitar,6,3,DL_Remix_Guitar,0.13724569976329803,0
53,100,0.5818181818181818,320,0,115,DL_Remix_Guitar,6,9,DL_Remix_Guitar,0.15977978706359863,0
67,100,0.1,453,0,115,DL_Remix_Guitar,6,2,DL_Remix_Guitar,0.18644632399082184,0
60,100,0.5590909090909091,536,0,115,DL_Remix_Guitar,6,9,DL_Remix_Guitar,0.2581665515899658,0
67,100,0.2772727272727273,163,1,116,DL_Remix_Guitar,6,4,DL_Remix_Guitar,0.9990229606628418,1
55,100,0.1590909090909091,320,0,116,DL_Remix_Guitar,6,3,DL_Remix_Guitar,0.36663129925727844,0
67,100,0.1,540,0,116,DL_Remix_Guitar,6,2,DL_Remix_Guitar,0.45328792929649353,0
59,100,0.3181818181818182,713,1,117,DL_Remix_Guitar,6,5,DL_Remix_Guitar,0.9792563915252686,0
53,100,0.6363636363636364,83,1,118,DL_Remix_Guitar,6,10,DL_Remix_Guitar,0.9986500144004822,1
53,100,0.5409090909090909,299,0,118,DL_Remix_Guitar,6,9,DL_Remix_Guitar,0.08780338615179062,0
53,100,0.1409090909090909,426,0,118,DL_Remix_Guitar,6,2,DL_Remix_Guitar,0.09181506186723709,0
55,100,0.4,572,0,118,DL_Remix_Guitar,6,6,DL_Remix_Guitar,0.10747676342725754,0
67,100,0.1409090909090909,703,0,118,DL_Remix_Guitar,6,2,DL_Remix_Guitar,0.12482475489377975,0
53,100,0.7636363636363637,796,0,118,DL_Remix_Guitar,6,12,DL_Remix_Guitar,0.1790252923965454,0
53,100,0.35909090909090907,233,1,119,DL_Remix_Guitar,6,6,DL_Remix_Guitar,0.9986500144004822,1
53,100,0.18181818181818182,330,0,119,DL_Remix_Guitar,6,3,DL_Remix_Guitar,0.08780237287282944,0
53,100,0.1,466,0,119,DL_Remix_Guitar,6,2,DL_Remix_Guitar,0.09181322902441025,0
53,100,0.4636363636363636,576,0,119,DL_Remix_Guitar,6,7,DL_Remix_Guitar,0.10747698694467545,0
53,100,0.3,729,0,119,DL_Remix_Guitar,6,5,DL_Remix_Guitar,0.12482482939958572,0
67,100,0.1590909090909091,800,0,119,DL_Remix_Guitar,6,3,DL_Remix_Guitar,0.1790313720703125,0
53,100,0.1409090909090909,26,1,120,DL_Remix_Guitar,6,2,DL_Remix_Guitar,0.9990229606628418,1
52,100,0.3,722,1,120,DL_Remix_Guitar,6,5,DL_Remix_Guitar,0.3666245937347412,0
52,100,0.3,792,0,120,DL_Remix_Guitar,6,5,DL_Remix_Guitar,0.4532921314239502,0
52,100,0.2818181818181818,110,1,121,DL_Remix_Guitar,6,5,DL_Remix_Guitar,0.9983165264129639,1
55,100,0.2409090909090909,836,1,121,DL_Remix_Guitar,6,4,DL_Remix_Guitar,0.5445556640625,0
55,100,0.2772727272727273,426,1,122,DL_Remix_Guitar,6,4,DL_Remix_Guitar,0.9792569875717163,1
53,100,0.5818181818181818,532,1,0,_Guitar,6,9,_Guitar,0.9990229606628418,1
55,100,0.17727272727272728,722,0,0,_Guitar,6,3,_Guitar,0.3666306436061859,0
53,100,0.3409090909090909,783,0,0,_Guitar,6,5,_Guitar,0.4532836079597473,0
55,100,0.2409090909090909,47,1,1,_Guitar,6,4,_Guitar,0.9983164072036743,1
60,100,0.2818181818181818,571,1,1,_Guitar,6,5,_Guitar,0.5445622801780701,0
53,100,0.32272727272727275,144,1,2,_Guitar,6,5,_Guitar,0.9983165264129639,1
53,100,0.3,272,0,2,_Guitar,6,5,_Guitar,0.5445539355278015,0
53,100,0.4,3,1,3,_Guitar,6,6,_Guitar,0.9988419413566589,1
55,100,0.2,189,0,3,_Guitar,6,3,_Guitar,0.13724395632743835,0
53,100,0.5590909090909091,259,0,3,_Guitar,6,9,_Guitar,0.15977169573307037,0
60,100,0.1409090909090909,717,1,3,_Guitar,6,2,_Guitar,0.18644443154335022,0
60,100,0.1409090909090909,761,0,3,_Guitar,6,2,_Guitar,0.25815871357917786,0
53,100,0.1590909090909091,496,1,4,_Guitar,6,3,_Guitar,0.9983164072036743,1
53,100,0.22272727272727272,642,0,4,_Guitar,6,4,_Guitar,0.5445609092712402,0
55,100,0.41818181818181815,352,1,5,_Guitar,6,7,_Guitar,0.9988419413566589,1
53,100,0.6227272727272727,465,0,5,_Guitar,6,10,_Guitar,0.1372450441122055,0
53,100,0.2409090909090909,637,0,5,_Guitar,6,4,_Guitar,0.15976759791374207,0
53,100,0.1,695,0,5,_Guitar,6,2,_Guitar,0.18644501268863678,0
55,100,0.2772727272727273,810,0,5,_Guitar,6,4,_Guitar,0.2581554353237152,0
60,100,0.1,493,1,6,_Guitar,6,2,_Guitar,0.9983165264129639,1
60,100,0.13636363636363635,721,0,6,_Guitar,6,2,_Guitar,0.5445585250854492,0
53,100,0.2590909090909091,35,1,7,_Guitar,6,4,_Guitar,0.9990229606628418,1
60,100,0.1,619,1,7,_Guitar,6,2,_Guitar,0.3666260838508606,0
53,100,0.9,700,0,7,_Guitar,6,14,_Guitar,0.453285813331604,0
53,100,0.5818181818181818,87,1,8,_Guitar,6,9,_Guitar,0.9990230798721313,1
55,100,0.3,285,0,8,_Guitar,6,5,_Guitar,0.3666248321533203,0
55,100,0.2409090909090909,804,1,8,_Guitar,6,4,_Guitar,0.4532882273197174,0
53,100,0.21818181818181817,127,1,9,_Guitar,6,3,_Guitar,0.9990229606628418,1
53,100,0.3181818181818182,326,0,9,_Guitar,6,5,_Guitar,0.3666194677352905,0
53,100,0.3,443,0,9,_Guitar,6,5,_Guitar,0.4532926678657532,0
60,100,0.2,369,1,10,_Guitar,6,3,_Guitar,0.9990057349205017,1
53,100,0.3181818181818182,436,0,10,_Guitar,6,5,_Guitar,0.23120807111263275,0
55,100,0.5181818181818182,505,0,10,_Guitar,6,8,_Guitar,0.26591840386390686,0
55,100,0.37727272727272726,625,0,10,_Guitar,6,6,_Guitar,0.35419437289237976,0
65,100,0.2772727272727273,17,1,11,_Guitar,6,4,_Guitar,0.9984880685806274,1
55,100,0.6,158,0,11,_Guitar,6,10,_Guitar,0.0633455440402031,0
55,100,0.12272727272727273,343,0,11,_Guitar,6,2,_Guitar,0.057742081582546234,0
55,100,0.32272727272727275,409,0,11,_Guitar,6,5,_Guitar,0.0602005310356617,0
60,100,0.2818181818181818,541,0,11,_Guitar,6,5,_Guitar,0.06970136612653732,0
60,100,0.1590909090909091,629,0,11,_Guitar,6,3,_Guitar,0.0818929672241211,0
55,100,0.3181818181818182,677,0,11,_Guitar,6,5,_Guitar,0.12401633709669113,0
60,100,0.13636363636363635,391,1,12,_Guitar,6,2,_Guitar,0.9986500144004822,1
60,100,0.17727272727272728,426,0,12,_Guitar,6,3,_Guitar,0.08780276775360107,0
55,100,0.1409090909090909,515,0,12,_Guitar,6,2,_Guitar,0.09181267023086548,0
55,100,0.6590909090909091,572,0,12,_Guitar,6,11,_Guitar,0.1074741780757904,0
53,100,0.35909090909090907,770,0,12,_Guitar,6,6,_Guitar,0.12482213973999023,0
55,100,0.35909090909090907,854,0,12,_Guitar,6,6,_Guitar,0.17902794480323792,0
65,100,0.2,378,1,13,_Guitar,6,3,_Guitar,0.9792561531066895,0
65,100,0.1590909090909091,17,1,14,_Guitar,6,3,_Guitar,0.9990057349205017,1
55,100,0.1409090909090909,101,0,14,_Guitar,6,2,_Guitar,0.23121260106563568,0
55,100,0.8590909090909091,149,0,14,_Guitar,6,14,_Guitar,0.2659284770488739,0
60,100,2.081818181818182,343,0,14,_Guitar,6,15,_Guitar,0.35418859124183655,0
53,100,0.17727272727272728,810,1,25,_Guitar,6,3,_Guitar,0.9983164072036743,1
53,100,0.17727272727272728,853,0,25,_Guitar,6,3,_Guitar,0.5445567965507507,0
53,100,0.13636363636363635,17,1,26,_Guitar,6,2,_Guitar,0.9792561531066895,1
53,100,0.1,839,1,27,_Guitar,6,2,_Guitar,0.9792558550834656,0
53,100,0.1409090909090909,9,1,28,_Guitar,6,2,_Guitar,0.9988419413566589,1
53,100,0.3,61,0,28,_Guitar,6,5,_Guitar,0.13724416494369507,0
53,100,0.5590909090909091,144,0,28,_Guitar,6,9,_Guitar,0.15977485477924347,0
53,100,0.8227272727272728,277,0,28,_Guitar,6,13,_Guitar,0.1864425092935562,0
53,100,1.3227272727272728,466,0,28,_Guitar,6,15,_Guitar,0.2581566870212555,0
53,100,0.7636363636363637,443,1,29,_Guitar,6,12,_Guitar,0.9983165264129639,1
53,100,0.11818181818181818,615,0,29,_Guitar,6,2,_Guitar,0.5445582866668701,0
57,100,0.23636363636363636,150,1,45,_Guitar,6,4,_Guitar,0.9990057349205017,1
60,100,0.6,201,0,45,_Guitar,6,10,_Guitar,0.23120935261249542,0
60,100,0.18181818181818182,791,1,45,_Guitar,6,3,_Guitar,0.2659221589565277,0
57,100,0.1590909090909091,875,0,45,_Guitar,6,3,_Guitar,0.3541956841945648,0
57,100,0.4,53,1,46,_Guitar,6,6,_Guitar,0.9792558550834656,0
60,100,0.4590909090909091,721,1,48,_Guitar,6,7,_Guitar,0.9792566299438477,0
60,100,0.4,370,1,49,_Guitar,6,6,_Guitar,0.9990229606628418,1
60,100,0.18181818181818182,474,0,49,_Guitar,6,3,_Guitar,0.3666224777698517,0
55,100,0.11818181818181818,691,0,49,_Guitar,6,2,_Guitar,0.45329251885414124,0
55,100,0.2818181818181818,179,1,50,_Guitar,6,5,_Guitar,0.9990230798721313,1
55,100,0.1409090909090909,246,0,50,_Guitar,6,2,_Guitar,0.36662164330482483,0
55,100,0.1409090909090909,686,1,50,_Guitar,6,2,_Guitar,0.4532875716686249,0
60,100,0.5590909090909091,198,1,51,_Guitar,6,9,_Guitar,0.9983166456222534,1
60,100,0.2409090909090909,756,1,51,_Guitar,6,4,_Guitar,0.5445613265037537,0
60,100,0.5636363636363636,378,1,52,_Guitar,6,9,_Guitar,0.9792566299438477,0
60,100,0.2818181818181818,21,1,53,_Guitar,6,5,_Guitar,0.9988419413566589,1
55,100,1.0227272727272727,144,0,53,_Guitar,6,15,_Guitar,0.13724589347839355,0
60,100,0.4590909090909091,558,1,53,_Guitar,6,7,_Guitar,0.1597781628370285,0
55,100,0.17727272727272728,678,0,53,_Guitar,6,3,_Guitar,0.18644824624061584,0
55,100,0.6409090909090909,726,0,53,_Guitar,6,10,_Guitar,0.25815629959106445,0
60,100,0.5818181818181818,198,1,54,_Guitar,6,9,_Guitar,0.9990058541297913,1
55,100,0.33636363636363636,325,0,54,_Guitar,6,5,_Guitar,0.23120556771755219,0
55,100,0.2818181818181818,431,0,54,_Guitar,6,5,_Guitar,0.2659186124801636,0
60,100,0.5,721,1,54,_Guitar,6,8,_Guitar,0.3541918098926544,0
55,100,0.4,716,1,55,_Guitar,6,6,_Guitar,0.979256272315979,1
57,100,0.6181818181818182,875,1,62,_Guitar,6,10,_Guitar,0.9792559146881104,0
60,100,0.6409090909090909,188,1,63,_Guitar,6,10,_Guitar,0.9990230798721313,1
57,100,0.3409090909090909,334,0,63,_Guitar,6,5,_Guitar,0.3666229248046875,0
60,100,0.6590909090909091,716,1,63,_Guitar,6,11,_Guitar,0.45329493284225464,0
60,100,0.4,13,1,64,_Guitar,6,6,_Guitar,0.9983737468719482,1
55,100,0.2772727272727273,106,0,64,_Guitar,6,4,_Guitar,0.05106082931160927,0
57,100,0.2409090909090909,179,0,64,_Guitar,6,4,_Guitar,0.041303038597106934,0
60,100,0.6227272727272727,365,0,64,_Guitar,6,10,_Guitar,0.037386614829301834,0
60,100,0.1590909090909091,546,0,64,_Guitar,6,3,_Guitar,0.038330499082803726,0
55,100,0.37727272727272726,612,0,64,_Guitar,6,6,_Guitar,0.0447513721883297,0
55,100,0.42272727272727273,760,0,64,_Guitar,6,7,_Guitar,0.05522957444190979,0
55,100,0.1,866,0,64,_Guitar,6,2,_Guitar,0.09026533365249634,0
60,100,0.6409090909090909,22,1,65,_Guitar,6,10,_Guitar,0.9990057349205017,1
55,100,0.6818181818181818,197,0,65,_Guitar,6,11,_Guitar,0.23120617866516113,0
60,100,0.6590909090909091,540,1,65,_Guitar,6,11,_Guitar,0.26592931151390076,0
57,100,0.5409090909090909,686,0,65,_Guitar,6,9,_Guitar,0.35418960452079773,0
59,100,0.6409090909090909,47,1,66,_Guitar,6,10,_Guitar,0.9990229606628418,1
60,100,1.540909090909091,189,0,66,_Guitar,6,15,_Guitar,0.36662542819976807,0
55,100,0.5818181818181818,870,1,66,_Guitar,6,9,_Guitar,0.4532918930053711,0
55,100,0.11818181818181818,153,1,67,_Guitar,6,2,_Guitar,0.9988419413566589,1
55,100,0.1590909090909091,233,0,67,_Guitar,6,3,_Guitar,0.1372472047805786,0
60,100,0.33636363636363636,370,0,67,_Guitar,6,5,_Guitar,0.15978021919727325,0
55,100,0.8772727272727273,502,0,67,_Guitar,6,14,_Guitar,0.18644244968891144,0
53,100,0.22272727272727272,805,1,67,_Guitar,6,4,_Guitar,0.2581682801246643,0
60,100,0.8772727272727273,9,1,68,_Guitar,6,14,_Guitar,0.9988419413566589,1
57,100,0.38181818181818183,202,0,68,_Guitar,6,6,_Guitar,0.1372436136007309,0
53,100,0.2409090909090909,294,0,68,_Guitar,6,4,_Guitar,0.1597718745470047,0
60,100,1.0,540,1,68,_Guitar,6,15,_Guitar,0.18644647300243378,0
59,100,0.17727272727272728,779,1,68,_Guitar,6,3,_Guitar,0.2581605315208435,0
59,100,0.1409090909090909,100,1,69,_Guitar,6,2,_Guitar,0.9988419413566589,1
60,100,0.6,189,0,69,_Guitar,6,10,_Guitar,0.13724909722805023,0
55,100,0.9,339,0,69,_Guitar,6,14,_Guitar,0.15977638959884644,0
60,100,0.5409090909090909,726,1,69,_Guitar,6,9,_Guitar,0.1864495873451233,0
55,100,0.8590909090909091,866,0,69,_Guitar,6,14,_Guitar,0.2581636607646942,0
57,100,0.2,184,1,70,_Guitar,6,3,_Guitar,0.9984880685806274,1
60,100,0.37727272727272726,360,0,70,_Guitar,6,6,_Guitar,0.06334452331066132,0
57,100,0.16363636363636364,443,0,70,_Guitar,6,3,_Guitar,0.057742197066545486,0
60,100,0.11818181818181818,483,0,70,_Guitar,6,2,_Guitar,0.060202233493328094,0
57,100,0.2,519,0,70,_Guitar,6,3,_Guitar,0.06970192492008209,0
53,100,0.1590909090909091,580,0,70,_Guitar,6,3,_Guitar,0.08189517259597778,0
59,100,0.5227272727272727,773,0,70,_Guitar,6,8,_Guitar,0.12402458488941193,0
60,100,1.1,13,1,71,_Guitar,6,15,_Guitar,0.9988420605659485,1
55,100,0.759090909090909,365,1,71,_Guitar,6,12,_Guitar,0.13724972307682037,0
60,100,0.5818181818181818,540,0,71,_Guitar,6,9,_Guitar,0.1597861796617508,0
55,100,0.2590909090909091,682,0,71,_Guitar,6,4,_Guitar,0.18645398318767548,0
55,100,1.981818181818182,870,0,71,_Guitar,6,15,_Guitar,0.2581518888473511,0
54,100,0.759090909090909,189,1,0,DL_EnglishEdition_Remastered_Guitar,6,12,DL_EnglishEdition_Remastered_Guitar,0.9988419413566589,1
54,100,0.2,374,0,0,DL_EnglishEdition_Remastered_Guitar,6,3,DL_EnglishEdition_Remastered_Guitar,0.13724775612354279,0
54,100,0.22272727272727272,466,0,0,DL_EnglishEdition_Remastered_Guitar,6,4,DL_EnglishEdition_Remastered_Guitar,0.15977999567985535,0
59,100,0.12272727272727273,673,0,0,DL_EnglishEdition_Remastered_Guitar,6,2,DL_EnglishEdition_Remastered_Guitar,0.18644997477531433,0
61,100,0.3,770,0,0,DL_EnglishEdition_Remastered_Guitar,6,5,DL_EnglishEdition_Remastered_Guitar,0.25816553831100464,0
61,100,0.3,18,1,1,DL_EnglishEdition_Remastered_Guitar,6,5,DL_EnglishEdition_Remastered_Guitar,0.9988419413566589,1
59,100,0.1590909090909091,238,0,1,DL_EnglishEdition_Remastered_Guitar,6,3,DL_EnglishEdition_Remastered_Guitar,0.13724711537361145,0
66,100,0.12272727272727273,444,0,1,DL_EnglishEdition_Remastered_Guitar,6,2,DL_EnglishEdition_Remastered_Guitar,0.1597803235054016,0
66,100,0.38181818181818183,475,0,1,DL_EnglishEdition_Remastered_Guitar,6,6,DL_EnglishEdition_Remastered_Guitar,0.18644851446151733,0
59,100,0.4409090909090909,625,0,1,DL_EnglishEdition_Remastered_Guitar,6,7,DL_EnglishEdition_Remastered_Guitar,0.2581663131713867,0
52,100,0.41818181818181815,140,1,2,DL_EnglishEdition_Remastered_Guitar,6,7,DL_EnglishEdition_Remastered_Guitar,0.9990229606628418,1
52,100,0.35909090909090907,364,0,2,DL_EnglishEdition_Remastered_Guitar,6,6,DL_EnglishEdition_Remastered_Guitar,0.36662331223487854,0
54,100,0.6181818181818182,770,1,2,DL_EnglishEdition_Remastered_Guitar,6,10,DL_EnglishEdition_Remastered_Guitar,0.45328620076179504,0
59,100,0.2636363636363636,26,1,3,DL_EnglishEdition_Remastered_Guitar,6,4,DL_EnglishEdition_Remastered_Guitar,0.9988419413566589,1
61,100,0.12272727272727273,210,0,3,DL_EnglishEdition_Remastered_Guitar,6,2,DL_EnglishEdition_Remastered_Guitar,0.13724686205387115,0
61,100,0.5227272727272727,246,0,3,DL_EnglishEdition_Remastered_Guitar,6,8,DL_EnglishEdition_Remastered_Guitar,0.15977312624454498,0
61,100,0.17727272727272728,458,0,3,DL_EnglishEdition_Remastered_Guitar,6,3,DL_EnglishEdition_Remastered_Guitar,0.1864481419324875,0
59,100,1.2,681,0,3,DL_EnglishEdition_Remastered_Guitar,6,15,DL_EnglishEdition_Remastered_Guitar,0.2581635117530823,0
59,100,0.8,87,1,4,DL_EnglishEdition_Remastered_Guitar,6,13,DL_EnglishEdition_Remastered_Guitar,0.9990057349205017,1
59,100,0.22272727272727272,276,0,4,DL_EnglishEdition_Remastered_Guitar,6,4,DL_EnglishEdition_Remastered_Guitar,0.2312006801366806,0
52,100,0.16363636363636364,795,1,4,DL_EnglishEdition_Remastered_Guitar,6,3,DL_EnglishEdition_Remastered_Guitar,0.2659144401550293,0
54,100,0.22272727272727272,849,0,4,DL_EnglishEdition_Remastered_Guitar,6,4,DL_EnglishEdition_Remastered_Guitar,0.35419341921806335,0
54,100,0.5,232,1,5,DL_EnglishEdition_Remastered_Guitar,6,8,DL_EnglishEdition_Remastered_Guitar,0.9988419413566589,1
54,100,0.21818181818181817,370,0,5,DL_EnglishEdition_Remastered_Guitar,6,3,DL_EnglishEdition_Remastered_Guitar,0.13724865019321442,0
61,100,0.12272727272727273,541,0,5,DL_EnglishEdition_Remastered_Guitar,6,2,DL_EnglishEdition_Remastered_Guitar,0.1597757488489151,0
54,100,0.11818181818181818,581,0,5,DL_EnglishEdition_Remastered_Guitar,6,2,DL_EnglishEdition_Remastered_Guitar,0.18645137548446655,0
66,100,0.2,672,0,5,DL_EnglishEdition_Remastered_Guitar,6,3,DL_EnglishEdition_Remastered_Guitar,0.2581671476364136,0
59,100,0.11818181818181818,18,1,6,DL_EnglishEdition_Remastered_Guitar,6,2,DL_EnglishEdition_Remastered_Guitar,0.9988419413566589,1
59,100,0.13636363636363635,61,0,6,DL_EnglishEdition_Remastered_Guitar,6,2,DL_EnglishEdition_Remastered_Guitar,0.13724489510059357,0
52,100,0.3409090909090909,163,0,6,DL_EnglishEdition_Remastered_Guitar,6,5,DL_EnglishEdition_Remastered_Guitar,0.1597755402326584,0
59,100,0.3,409,1,6,DL_EnglishEdition_Remastered_Guitar,6,5,DL_EnglishEdition_Remastered_Guitar,0.18644925951957703,0
61,100,0.2409090909090909,792,1,6,DL_EnglishEdition_Remastered_Guitar,6,4,DL_EnglishEdition_Remastered_Guitar,0.2581658661365509,0
59,100,0.18181818181818182,289,1,7,DL_EnglishEdition_Remastered_Guitar,6,3,DL_EnglishEdition_Remastered_Guitar,0.9988419413566589,1
59,100,0.1409090909090909,360,0,7,DL_EnglishEdition_Remastered_Guitar,6,2,DL_EnglishEdition_Remastered_Guitar,0.1372453272342682,0
54,100,0.1590909090909091,572,0,7,DL_EnglishEdition_Remastered_Guitar,6,3,DL_EnglishEdition_Remastered_Guitar,0.15977700054645538,0
59,100,0.11818181818181818,734,0,7,DL_EnglishEdition_Remastered_Guitar,6,2,DL_EnglishEdition_Remastered_Guitar,0.1864456683397293,0
59,100,0.1590909090909091,778,0,7,DL_EnglishEdition_Remastered_Guitar,6,3,DL_EnglishEdition_Remastered_Guitar,0.25816643238067627,0
54,100,0.2409090909090909,3,1,8,DL_EnglishEdition_Remastered_Guitar,6,4,DL_EnglishEdition_Remastered_Guitar,0.9986500144004822,1
54,100,0.7,206,0,8,DL_EnglishEdition_Remastered_Guitar,6,11,DL_EnglishEdition_Remastered_Guitar,0.08780156075954437,0
66,100,0.2409090909090909,378,0,8,DL_EnglishEdition_Remastered_Guitar,6,4,DL_EnglishEdition_Remastered_Guitar,0.09180948883295059,0
59,100,0.3409090909090909,453,0,8,DL_EnglishEdition_Remastered_Guitar,6,5,DL_EnglishEdition_Remastered_Guitar,0.1074736937880516,0
59,100,0.11818181818181818,589,0,8,DL_EnglishEdition_Remastered_Guitar,6,2,DL_EnglishEdition_Remastered_Guitar,0.12481983751058578,0
59,100,0.1,682,0,8,DL_EnglishEdition_Remastered_Guitar,6,2,DL_EnglishEdition_Remastered_Guitar,0.17902973294258118,0
52,100,0.5,245,1,9,DL_EnglishEdition_Remastered_Guitar,6,8,DL_EnglishEdition_Remastered_Guitar,0.9988419413566589,1
54,100,0.11818181818181818,374,0,9,DL_EnglishEdition_Remastered_Guitar,6,2,DL_EnglishEdition_Remastered_Guitar,0.1372475028038025,0
52,100,0.1590909090909091,519,0,9,DL_EnglishEdition_Remastered_Guitar,6,3,DL_EnglishEdition_Remastered_Guitar,0.15977928042411804,0
57,100,0.1,620,0,9,DL_EnglishEdition_Remastered_Guitar,6,2,DL_EnglishEdition_Remastered_Guitar,0.18644969165325165,0
57,100,0.5590909090909091,677,0,9,DL_EnglishEdition_Remastered_Guitar,6,9,DL_EnglishEdition_Remastered_Guitar,0.2581692636013031,0
61,100,0.18181818181818182,268,1,10,DL_EnglishEdition_Remastered_Guitar,6,3,DL_EnglishEdition_Remastered_Guitar,0.9988419413566589,1
59,100,0.1590909090909091,395,0,10,DL_EnglishEdition_Remastered_Guitar,6,3,DL_EnglishEdition_Remastered_Guitar,0.13724559545516968,0
59,100,0.1590909090909091,457,0,10,DL_EnglishEdition_Remastered_Guitar,6,3,DL_EnglishEdition_Remastered_Guitar,0.1597762107849121,0
59,100,0.38181818181818183,532,0,10,DL_EnglishEdition_Remastered_Guitar,6,6,DL_EnglishEdition_Remastered_Guitar,0.18644465506076813,0
59,100,0.5409090909090909,795,1,10,DL_EnglishEdition_Remastered_Guitar,6,9,DL_EnglishEdition_Remastered_Guitar,0.258157879114151,0
59,100,0.2409090909090909,110,1,11,DL_EnglishEdition_Remastered_Guitar,6,4,DL_EnglishEdition_Remastered_Guitar,0.9990057349205017,1
52,100,0.2590909090909091,364,1,11,DL_EnglishEdition_Remastered_Guitar,6,4,DL_EnglishEdition_Remastered_Guitar,0.2312009036540985,0
54,100,0.1590909090909091,436,0,11,DL_EnglishEdition_Remastered_Guitar,6,3,DL_EnglishEdition_Remastered_Guitar,0.2659195363521576,0
59,100,0.4,470,0,11,DL_EnglishEdition_Remastered_Guitar,6,6,DL_EnglishEdition_Remastered_Guitar,0.3541928827762604,0
52,100,0.6409090909090909,87,1,12,DL_EnglishEdition_Remastered_Guitar,6,10,DL_EnglishEdition_Remastered_Guitar,0.9984880685806274,1
59,100,0.1,242,0,12,DL_EnglishEdition_Remastered_Guitar,6,2,DL_EnglishEdition_Remastered_Guitar,0.06334510445594788,0
59,100,0.2636363636363636,268,0,12,DL_EnglishEdition_Remastered_Guitar,6,4,DL_EnglishEdition_Remastered_Guitar,0.057741548866033554,0
59,100,0.37727272727272726,347,0,12,DL_EnglishEdition_Remastered_Guitar,6,6,DL_EnglishEdition_Remastered_Guitar,0.06020042300224304,0
64,100,0.1,620,1,12,DL_EnglishEdition_Remastered_Guitar,6,2,DL_EnglishEdition_Remastered_Guitar,0.06970155984163284,0
59,100,0.41818181818181815,656,0,12,DL_EnglishEdition_Remastered_Guitar,6,7,DL_EnglishEdition_Remastered_Guitar,0.08189226686954498,0
59,100,0.8772727272727273,866,0,12,DL_EnglishEdition_Remastered_Guitar,6,14,DL_EnglishEdition_Remastered_Guitar,0.12401881814002991,0
54,100,0.11818181818181818,194,1,13,DL_EnglishEdition_Remastered_Guitar,6,2,DL_EnglishEdition_Remastered_Guitar,0.9983165264129639,1
54,100,0.2772727272727273,250,0,13,DL_EnglishEdition_Remastered_Guitar,6,4,DL_EnglishEdition_Remastered_Guitar,0.5445558428764343,0
59,100,0.5409090909090909,496,1,14,DL_EnglishEdition_Remastered_Guitar,6,9,DL_EnglishEdition_Remastered_Guitar,0.9990229606628418,1
59,100,0.41818181818181815,660,0,14,DL_EnglishEdition_Remastered_Guitar,6,7,DL_EnglishEdition_Remastered_Guitar,0.3666212260723114,0
59,100,0.1409090909090909,756,0,14,DL_EnglishEdition_Remastered_Guitar,6,2,DL_EnglishEdition_Remastered_Guitar,0.4532911479473114,0
54,100,0.8409090909090909,113,1,15,DL_EnglishEdition_Remastered_Guitar,6,13,DL_EnglishEdition_Remastered_Guitar,0.9988419413566589,1
54,100,0.22272727272727272,333,0,15,DL_EnglishEdition_Remastered_Guitar,6,4,DL_EnglishEdition_Remastered_Guitar,0.1372436285018921,0
61,100,0.17727272727272728,426,0,15,DL_EnglishEdition_Remastered_Guitar,6,3,DL_EnglishEdition_Remastered_Guitar,0.1597740203142166,0
59,100,0.35909090909090907,501,0,15,DL_EnglishEdition_Remastered_Guitar,6,6,DL_EnglishEdition_Remastered_Guitar,0.18644371628761292,0
59,100,0.42272727272727273,673,0,15,DL_EnglishEdition_Remastered_Guitar,6,7,DL_EnglishEdition_Remastered_Guitar,0.25816038250923157,0
54,100,0.1590909090909091,175,1,16,DL_EnglishEdition_Remastered_Guitar,6,3,DL_EnglishEdition_Remastered_Guitar,0.9990230798721313,1
59,100,0.2409090909090909,594,1,16,DL_EnglishEdition_Remastered_Guitar,6,4,DL_EnglishEdition_Remastered_Guitar,0.3666171431541443,0
54,100,0.2590909090909091,677,0,16,DL_EnglishEdition_Remastered_Guitar,6,4,DL_EnglishEdition_Remastered_Guitar,0.45328670740127563,0
54,100,0.2,326,1,17,DL_EnglishEdition_Remastered_Guitar,6,3,DL_EnglishEdition_Remastered_Guitar,0.9984880685806274,1
54,100,0.2,457,0,17,DL_EnglishEdition_Remastered_Guitar,6,3,DL_EnglishEdition_Remastered_Guitar,0.06334592401981354,0
61,100,0.12272727272727273,509,0,17,DL_EnglishEdition_Remastered_Guitar,6,2,DL_EnglishEdition_Remastered_Guitar,0.05774040147662163,0
61,100,0.42272727272727273,540,0,17,DL_EnglishEdition_Remastered_Guitar,6,7,DL_EnglishEdition_Remastered_Guitar,0.06020122393965721,0
54,100,0.5772727272727273,646,0,17,DL_EnglishEdition_Remastered_Guitar,6,9,DL_EnglishEdition_Remastered_Guitar,0.06969937682151794,0
59,100,0.11818181818181818,835,0,17,DL_EnglishEdition_Remastered_Guitar,6,2,DL_EnglishEdition_Remastered_Guitar,0.081892229616642,0
52,100,0.1,866,0,17,DL_EnglishEdition_Remastered_Guitar,6,2,DL_EnglishEdition_Remastered_Guitar,0.12401927262544632,0
59,100,0.5590909090909091,21,1,18,DL_EnglishEdition_Remastered_Guitar,6,9,DL_EnglishEdition_Remastered_Guitar,0.9988419413566589,1
59,100,1.059090909090909,193,0,18,DL_EnglishEdition_Remastered_Guitar,6,15,DL_EnglishEdition_Remastered_Guitar,0.13724078238010406,0
59,100,0.2,515,1,18,DL_EnglishEdition_Remastered_Guitar,6,3,DL_EnglishEdition_Remastered_Guitar,0.15977244079113007,0
59,100,0.1590909090909091,677,0,18,DL_EnglishEdition_Remastered_Guitar,6,3,DL_EnglishEdition_Remastered_Guitar,0.18644234538078308,0
54,100,0.4590909090909091,814,0,18,DL_EnglishEdition_Remastered_Guitar,6,7,DL_EnglishEdition_Remastered_Guitar,0.2581564784049988,0
59,100,0.32272727272727275,113,1,19,DL_EnglishEdition_Remastered_Guitar,6,5,DL_EnglishEdition_Remastered_Guitar,0.9986500144004822,1
59,100,0.2,395,1,19,DL_EnglishEdition_Remastered_Guitar,6,3,DL_EnglishEdition_Remastered_Guitar,0.08780264109373093,0
54,100,0.1,461,0,19,DL_EnglishEdition_Remastered_Guitar,6,2,DL_EnglishEdition_Remastered_Guitar,0.09181207418441772,0
54,100,0.1,646,0,19,DL_EnglishEdition_Remastered_Guitar,6,2,DL_EnglishEdition_Remastered_Guitar,0.10747487843036652,0
59,100,0.4,770,0,19,DL_EnglishEdition_Remastered_Guitar,6,6,DL_EnglishEdition_Remastered_Guitar,0.1248236671090126,0
54,100,0.22272727272727272,862,0,19,DL_EnglishEdition_Remastered_Guitar,6,4,DL_EnglishEdition_Remastered_Guitar,0.17903178930282593,0
59,100,0.11818181818181818,65,1,20,DL_EnglishEdition_Remastered_Guitar,6,2,DL_EnglishEdition_Remastered_Guitar,0.9986500144004822,1
54,100,0.2409090909090909,110,0,20,DL_EnglishEdition_Remastered_Guitar,6,4,DL_EnglishEdition_Remastered_Guitar,0.08780239522457123,0
59,100,0.2818181818181818,220,0,20,DL_EnglishEdition_Remastered_Guitar,6,5,DL_EnglishEdition_Remastered_Guitar,0.09181272983551025,0
59,100,0.21818181818181817,360,0,20,DL_EnglishEdition_Remastered_Guitar,6,3,DL_EnglishEdition_Remastered_Guitar,0.10747522115707397,0
59,100,0.8818181818181818,430,0,20,DL_EnglishEdition_Remastered_Guitar,6,14,DL_EnglishEdition_Remastered_Guitar,0.1248234212398529,0
52,100,0.2636363636363636,773,1,20,DL_EnglishEdition_Remastered_Guitar,6,4,DL_EnglishEdition_Remastered_Guitar,0.17903393507003784,0
52,100,0.2,9,1,21,DL_EnglishEdition_Remastered_Guitar,6,3,DL_EnglishEdition_Remastered_Guitar,0.9986500144004822,1
52,100,0.2818181818181818,65,0,21,DL_EnglishEdition_Remastered_Guitar,6,5,DL_EnglishEdition_Remastered_Guitar,0.08780365437269211,0
54,100,0.1409090909090909,154,0,21,DL_EnglishEdition_Remastered_Guitar,6,2,DL_EnglishEdition_Remastered_Guitar,0.09181215614080429,0
54,100,0.11818181818181818,480,1,21,DL_EnglishEdition_Remastered_Guitar,6,2,DL_EnglishEdition_Remastered_Guitar,0.10747995972633362,0
59,100,0.18181818181818182,708,0,21,DL_EnglishEdition_Remastered_Guitar,6,3,DL_EnglishEdition_Remastered_Guitar,0.12482330203056335,0
59,100,0.2590909090909091,866,0,21,DL_EnglishEdition_Remastered_Guitar,6,4,DL_EnglishEdition_Remastered_Guitar,0.17903073132038116,0
54,100,0.1,100,1,22,DL_EnglishEdition_Remastered_Guitar,6,2,DL_EnglishEdition_Remastered_Guitar,0.9984880685806274,1
59,100,0.1409090909090909,179,0,22,DL_EnglishEdition_Remastered_Guitar,6,2,DL_EnglishEdition_Remastered_Guitar,0.06334549188613892,0
54,100,0.8,237,0,22,DL_EnglishEdition_Remastered_Guitar,6,13,DL_EnglishEdition_Remastered_Guitar,0.05774201825261116,0
54,100,0.6590909090909091,426,0,22,DL_EnglishEdition_Remastered_Guitar,6,11,DL_EnglishEdition_Remastered_Guitar,0.06020321324467659,0
66,100,0.11818181818181818,581,0,22,DL_EnglishEdition_Remastered_Guitar,6,2,DL_EnglishEdition_Remastered_Guitar,0.06970372051000595,0
59,100,0.4,611,0,22,DL_EnglishEdition_Remastered_Guitar,6,6,DL_EnglishEdition_Remastered_Guitar,0.08189523965120316,0
59,100,0.1590909090909091,725,0,22,DL_EnglishEdition_Remastered_Guitar,6,3,DL_EnglishEdition_Remastered_Guitar,0.12402185052633286,0
64,100,0.1,193,1,23,DL_EnglishEdition_Remastered_Guitar,6,2,DL_EnglishEdition_Remastered_Guitar,0.9986500144004822,1
52,100,0.2818181818181818,268,0,23,DL_EnglishEdition_Remastered_Guitar,6,5,DL_EnglishEdition_Remastered_Guitar,0.08780381083488464,0
59,100,0.1409090909090909,387,0,23,DL_EnglishEdition_Remastered_Guitar,6,2,DL_EnglishEdition_Remastered_Guitar,0.09181509912014008,0
52,100,0.4409090909090909,484,0,23,DL_EnglishEdition_Remastered_Guitar,6,7,DL_EnglishEdition_Remastered_Guitar,0.1074797585606575,0
54,100,0.41818181818181815,602,0,23,DL_EnglishEdition_Remastered_Guitar,6,7,DL_EnglishEdition_Remastered_Guitar,0.12482889741659164,0
54,100,0.1590909090909091,814,0,23,DL_EnglishEdition_Remastered_Guitar,6,3,DL_EnglishEdition_Remastered_Guitar,0.17903821170330048,0
52,100,0.1,34,1,24,DL_EnglishEdition_Remastered_Guitar,6,2,DL_EnglishEdition_Remastered_Guitar,0.9986500144004822,1
59,100,0.2409090909090909,382,1,24,DL_EnglishEdition_Remastered_Guitar,6,4,DL_EnglishEdition_Remastered_Guitar,0.08780019730329514,0
59,100,0.2409090909090909,440,0,24,DL_EnglishEdition_Remastered_Guitar,6,4,DL_EnglishEdition_Remastered_Guitar,0.09181318432092667,0
59,100,0.5636363636363636,619,0,24,DL_EnglishEdition_Remastered_Guitar,6,9,DL_EnglishEdition_Remastered_Guitar,0.10747279226779938,0
59,100,0.2,773,0,24,DL_EnglishEdition_Remastered_Guitar,6,3,DL_EnglishEdition_Remastered_Guitar,0.12482331693172455,0
59,100,0.4590909090909091,827,0,24,DL_EnglishEdition_Remastered_Guitar,6,7,DL_EnglishEdition_Remastered_Guitar,0.1790301352739334,0
59,100,0.2772727272727273,52,1,25,DL_EnglishEdition_Remastered_Guitar,6,4,DL_EnglishEdition_Remastered_Guitar,0.9986500144004822,1
63,100,0.2590909090909091,216,0,25,DL_EnglishEdition_Remastered_Guitar,6,4,DL_EnglishEdition_Remastered_Guitar,0.08780411630868912,0
59,100,0.6,272,0,25,DL_EnglishEdition_Remastered_Guitar,6,10,DL_EnglishEdition_Remastered_Guitar,0.0918145403265953,0
59,100,0.6,409,0,25,DL_EnglishEdition_Remastered_Guitar,6,10,DL_EnglishEdition_Remastered_Guitar,0.10747966170310974,0
59,100,0.5,686,1,25,DL_EnglishEdition_Remastered_Guitar,6,8,DL_EnglishEdition_Remastered_Guitar,0.12482922524213791,0
54,100,0.2636363636363636,796,0,25,DL_EnglishEdition_Remastered_Guitar,6,4,DL_EnglishEdition_Remastered_Guitar,0.1790383905172348,0
54,100,0.4,52,1,26,DL_EnglishEdition_Remastered_Guitar,6,6,DL_EnglishEdition_Remastered_Guitar,0.9990057349205017,1
52,100,0.4,241,0,26,DL_EnglishEdition_Remastered_Guitar,6,6,DL_EnglishEdition_Remastered_Guitar,0.23120653629302979,0
52,100,0.6772727272727272,382,0,26,DL_EnglishEdition_Remastered_Guitar,6,11,DL_EnglishEdition_Remastered_Guitar,0.26592132449150085,0
59,100,0.3181818181818182,700,1,26,DL_EnglishEdition_Remastered_Guitar,6,5,DL_EnglishEdition_Remastered_Guitar,0.3542031943798065,0
59,100,0.4590909090909091,100,1,27,DL_EnglishEdition_Remastered_Guitar,6,7,DL_EnglishEdition_Remastered_Guitar,0.9990229606628418,1
59,100,0.5590909090909091,216,0,27,DL_EnglishEdition_Remastered_Guitar,6,9,DL_EnglishEdition_Remastered_Guitar,0.36662420630455017,0
59,100,0.6227272727272727,773,1,27,DL_EnglishEdition_Remastered_Guitar,6,10,DL_EnglishEdition_Remastered_Guitar,0.45329105854034424,0
59,100,0.35909090909090907,65,1,28,DL_EnglishEdition_Remastered_Guitar,6,6,DL_EnglishEdition_Remastered_Guitar,0.9983165264129639,1
59,100,0.1409090909090909,791,1,28,DL_EnglishEdition_Remastered_Guitar,6,2,DL_EnglishEdition_Remastered_Guitar,0.5445507764816284,0
59,100,0.16363636363636364,26,1,29,DL_EnglishEdition_Remastered_Guitar,6,3,DL_EnglishEdition_Remastered_Guitar,0.9990229606628418,1
52,100,0.21818181818181817,154,0,29,DL_EnglishEdition_Remastered_Guitar,6,3,DL_EnglishEdition_Remastered_Guitar,0.36661913990974426,0
52,100,0.2590909090909091,206,0,29,DL_EnglishEdition_Remastered_Guitar,6,4,DL_EnglishEdition_Remastered_Guitar,0.4532926380634308,0
54,100,0.6363636363636364,61,1,30,DL_EnglishEdition_Remastered_Guitar,6,10,DL_EnglishEdition_Remastered_Guitar,0.9983165264129639,1
56,100,0.3409090909090909,739,1,30,DL_EnglishEdition_Remastered_Guitar,6,5,DL_EnglishEdition_Remastered_Guitar,0.5445542931556702,0
52,100,0.2590909090909091,272,1,31,DL_EnglishEdition_Remastered_Guitar,6,4,DL_EnglishEdition_Remastered_Guitar,0.9983165264129639,1
59,100,0.11818181818181818,501,0,31,DL_EnglishEdition_Remastered_Guitar,6,2,DL_EnglishEdition_Remastered_Guitar,0.5445582866668701,0
59,100,0.12272727272727273,34,1,32,DL_EnglishEdition_Remastered_Guitar,6,2,DL_EnglishEdition_Remastered_Guitar,0.9988419413566589,1
59,100,0.2409090909090909,141,0,32,DL_EnglishEdition_Remastered_Guitar,6,4,DL_EnglishEdition_Remastered_Guitar,0.13724394142627716,0
61,100,0.22272727272727272,276,0,32,DL_EnglishEdition_Remastered_Guitar,6,4,DL_EnglishEdition_Remastered_Guitar,0.15977263450622559,0
54,100,0.4409090909090909,364,0,32,DL_EnglishEdition_Remastered_Guitar,6,7,DL_EnglishEdition_Remastered_Guitar,0.18644528090953827,0
54,100,0.6409090909090909,518,0,32,DL_EnglishEdition_Remastered_Guitar,6,10,DL_EnglishEdition_Remastered_Guitar,0.25816404819488525,0
61,100,0.2,128,1,33,DL_EnglishEdition_Remastered_Guitar,6,3,DL_EnglishEdition_Remastered_Guitar,0.9983736276626587,1
61,100,0.11818181818181818,193,0,33,DL_EnglishEdition_Remastered_Guitar,6,2,DL_EnglishEdition_Remastered_Guitar,0.05106039345264435,0
61,100,0.3,295,0,33,DL_EnglishEdition_Remastered_Guitar,6,5,DL_EnglishEdition_Remastered_Guitar,0.04130198806524277,0
59,100,0.22272727272727272,509,0,33,DL_EnglishEdition_Remastered_Guitar,6,4,DL_EnglishEdition_Remastered_Guitar,0.037386998534202576,0
59,100,0.4818181818181818,563,0,33,DL_EnglishEdition_Remastered_Guitar,6,8,DL_EnglishEdition_Remastered_Guitar,0.03832900524139404,0
59,100,0.23636363636363636,700,0,33,DL_EnglishEdition_Remastered_Guitar,6,4,DL_EnglishEdition_Remastered_Guitar,0.04475264996290207,0
52,100,0.1590909090909091,761,0,33,DL_EnglishEdition_Remastered_Guitar,6,3,DL_EnglishEdition_Remastered_Guitar,0.05522933602333069,0
59,100,0.4818181818181818,839,0,33,DL_EnglishEdition_Remastered_Guitar,6,8,DL_EnglishEdition_Remastered_Guitar,0.09026360511779785,0
59,100,0.6227272727272727,101,1,34,DL_EnglishEdition_Remastered_Guitar,6,10,DL_EnglishEdition_Remastered_Guitar,0.9988419413566589,1
54,100,0.3,325,0,34,DL_EnglishEdition_Remastered_Guitar,6,5,DL_EnglishEdition_Remastered_Guitar,0.1372484415769577,0
54,100,0.18181818181818182,681,1,34,DL_EnglishEdition_Remastered_Guitar,6,3,DL_EnglishEdition_Remastered_Guitar,0.1597791314125061,0
54,100,0.4590909090909091,726,0,34,DL_EnglishEdition_Remastered_Guitar,6,7,DL_EnglishEdition_Remastered_Guitar,0.18644538521766663,0
54,100,0.2590909090909091,831,0,34,DL_EnglishEdition_Remastered_Guitar,6,4,DL_EnglishEdition_Remastered_Guitar,0.25816482305526733,0
54,100,0.3409090909090909,13,1,35,DL_EnglishEdition_Remastered_Guitar,6,5,DL_EnglishEdition_Remastered_Guitar,0.9983737468719482,1
54,100,0.2818181818181818,166,0,35,DL_EnglishEdition_Remastered_Guitar,6,5,DL_EnglishEdition_Remastered_Guitar,0.05106046050786972,0
56,100,0.2,391,0,35,DL_EnglishEdition_Remastered_Guitar,6,3,DL_EnglishEdition_Remastered_Guitar,0.041301336139440536,0
59,100,0.2,458,0,35,DL_EnglishEdition_Remastered_Guitar,6,3,DL_EnglishEdition_Remastered_Guitar,0.03738473355770111,0
59,100,0.11818181818181818,536,0,35,DL_EnglishEdition_Remastered_Guitar,6,2,DL_EnglishEdition_Remastered_Guitar,0.038327667862176895,0
59,100,0.32272727272727275,641,0,35,DL_EnglishEdition_Remastered_Guitar,6,5,DL_EnglishEdition_Remastered_Guitar,0.0447484515607357,0
59,100,0.1409090909090909,751,0,35,DL_EnglishEdition_Remastered_Guitar,6,2,DL_EnglishEdition_Remastered_Guitar,0.055226881057024,0
52,100,0.5818181818181818,871,0,35,DL_EnglishEdition_Remastered_Guitar,6,9,DL_EnglishEdition_Remastered_Guitar,0.09026221930980682,0
59,100,0.5590909090909091,150,1,36,DL_EnglishEdition_Remastered_Guitar,6,9,DL_EnglishEdition_Remastered_Guitar,0.9986500144004822,1
59,100,0.38181818181818183,286,0,36,DL_EnglishEdition_Remastered_Guitar,6,6,DL_EnglishEdition_Remastered_Guitar,0.08780384808778763,0
61,100,0.12272727272727273,466,0,36,DL_EnglishEdition_Remastered_Guitar,6,2,DL_EnglishEdition_Remastered_Guitar,0.09181465953588486,0
54,100,0.6363636363636364,655,0,36,DL_EnglishEdition_Remastered_Guitar,6,10,DL_EnglishEdition_Remastered_Guitar,0.10747804492712021,0
54,100,0.2409090909090909,818,0,36,DL_EnglishEdition_Remastered_Guitar,6,4,DL_EnglishEdition_Remastered_Guitar,0.1248278021812439,0
54,100,0.2590909090909091,875,0,36,DL_EnglishEdition_Remastered_Guitar,6,4,DL_EnglishEdition_Remastered_Guitar,0.1790326088666916,0
59,100,0.2,171,1,37,DL_EnglishEdition_Remastered_Guitar,6,3,DL_EnglishEdition_Remastered_Guitar,0.9988419413566589,1
54,100,0.1409090909090909,426,1,37,DL_EnglishEdition_Remastered_Guitar,6,2,DL_EnglishEdition_Remastered_Guitar,0.13725075125694275,0
54,100,0.38181818181818183,506,0,37,DL_EnglishEdition_Remastered_Guitar,6,6,DL_EnglishEdition_Remastered_Guitar,0.1597777009010315,0
54,100,0.3,603,0,37,DL_EnglishEdition_Remastered_Guitar,6,5,DL_EnglishEdition_Remastered_Guitar,0.18644404411315918,0
54,100,0.2,694,0,37,DL_EnglishEdition_Remastered_Guitar,6,3,DL_EnglishEdition_Remastered_Guitar,0.2581670880317688,0
54,100,0.1590909090909091,413,1,38,DL_EnglishEdition_Remastered_Guitar,6,3,DL_EnglishEdition_Remastered_Guitar,0.9983165264129639,1
54,100,0.6409090909090909,471,0,38,DL_EnglishEdition_Remastered_Guitar,6,10,DL_EnglishEdition_Remastered_Guitar,0.5445553064346313,0
59,100,0.18181818181818182,114,1,39,DL_EnglishEdition_Remastered_Guitar,6,3,DL_EnglishEdition_Remastered_Guitar,0.9988419413566589,1
52,100,0.2818181818181818,188,0,39,DL_EnglishEdition_Remastered_Guitar,6,5,DL_EnglishEdition_Remastered_Guitar,0.13724851608276367,0
59,100,0.6409090909090909,628,1,39,DL_EnglishEdition_Remastered_Guitar,6,10,DL_EnglishEdition_Remastered_Guitar,0.15977826714515686,0
59,100,0.13636363636363635,810,0,39,DL_EnglishEdition_Remastered_Guitar,6,2,DL_EnglishEdition_Remastered_Guitar,0.18645182251930237,0
54,100,0.1590909090909091,866,0,39,DL_EnglishEdition_Remastered_Guitar,6,3,DL_EnglishEdition_Remastered_Guitar,0.2581764757633209,0
52,100,0.12272727272727273,144,1,40,DL_EnglishEdition_Remastered_Guitar,6,2,DL_EnglishEdition_Remastered_Guitar,0.9988419413566589,1
54,100,0.2818181818181818,483,1,40,DL_EnglishEdition_Remastered_Guitar,6,5,DL_EnglishEdition_Remastered_Guitar,0.13724654912948608,0
54,100,0.21818181818181817,550,0,40,DL_EnglishEdition_Remastered_Guitar,6,3,DL_EnglishEdition_Remastered_Guitar,0.15977415442466736,0
59,100,0.1,641,0,40,DL_EnglishEdition_Remastered_Guitar,6,2,DL_EnglishEdition_Remastered_Guitar,0.18644721806049347,0
59,100,0.41818181818181815,853,0,40,DL_EnglishEdition_Remastered_Guitar,6,7,DL_EnglishEdition_Remastered_Guitar,0.25816500186920166,0
52,100,0.5181818181818182,308,1,41,DL_EnglishEdition_Remastered_Guitar,6,8,DL_EnglishEdition_Remastered_Guitar,0.9792563915252686,0
54,100,0.1409090909090909,88,1,42,DL_EnglishEdition_Remastered_Guitar,6,2,DL_EnglishEdition_Remastered_Guitar,0.9990230798721313,1
54,100,0.5227272727272727,276,0,42,DL_EnglishEdition_Remastered_Guitar,6,8,DL_EnglishEdition_Remastered_Guitar,0.366626501083374,0
59,100,1.040909090909091,638,1,42,DL_EnglishEdition_Remastered_Guitar,6,15,DL_EnglishEdition_Remastered_Guitar,0.4532829225063324,0
54,100,0.4409090909090909,399,1,43,DL_EnglishEdition_Remastered_Guitar,6,7,DL_EnglishEdition_Remastered_Guitar,0.9990229606628418,1
52,100,0.7,509,0,43,DL_EnglishEdition_Remastered_Guitar,6,11,DL_EnglishEdition_Remastered_Guitar,0.3666192591190338,0
52,100,0.37727272727272726,823,1,43,DL_EnglishEdition_Remastered_Guitar,6,6,DL_EnglishEdition_Remastered_Guitar,0.45329341292381287,0
59,100,0.5181818181818182,413,1,44,DL_EnglishEdition_Remastered_Guitar,6,8,DL_EnglishEdition_Remastered_Guitar,0.9990229606628418,1
59,100,0.11818181818181818,593,0,44,DL_EnglishEdition_Remastered_Guitar,6,2,DL_EnglishEdition_Remastered_Guitar,0.36661234498023987,0
59,100,0.13636363636363635,633,0,44,DL_EnglishEdition_Remastered_Guitar,6,2,DL_EnglishEdition_Remastered_Guitar,0.45329219102859497,0
59,100,0.3409090909090909,220,1,45,DL_EnglishEdition_Remastered_Guitar,6,5,DL_EnglishEdition_Remastered_Guitar,0.9988419413566589,1
59,100,0.5181818181818182,303,0,45,DL_EnglishEdition_Remastered_Guitar,6,8,DL_EnglishEdition_Remastered_Guitar,0.13724559545516968,0
59,100,0.2772727272727273,501,0,45,DL_EnglishEdition_Remastered_Guitar,6,4,DL_EnglishEdition_Remastered_Guitar,0.1597771942615509,0
54,100,0.4,770,1,45,DL_EnglishEdition_Remastered_Guitar,6,6,DL_EnglishEdition_Remastered_Guitar,0.18644624948501587,0
54,100,0.1409090909090909,861,0,45,DL_EnglishEdition_Remastered_Guitar,6,2,DL_EnglishEdition_Remastered_Guitar,0.2581663131713867,0
54,100,0.16363636363636364,224,1,46,DL_EnglishEdition_Remastered_Guitar,6,3,DL_EnglishEdition_Remastered_Guitar,0.9990057349205017,1
59,100,0.5818181818181818,364,0,46,DL_EnglishEdition_Remastered_Guitar,6,9,DL_EnglishEdition_Remastered_Guitar,0.23119789361953735,0
54,100,0.2,673,1,46,DL_EnglishEdition_Remastered_Guitar,6,3,DL_EnglishEdition_Remastered_Guitar,0.26591727137565613,0
59,100,0.2772727272727273,823,0,46,DL_EnglishEdition_Remastered_Guitar,6,4,DL_EnglishEdition_Remastered_Guitar,0.3541949689388275,0
59,100,0.2409090909090909,53,1,47,DL_EnglishEdition_Remastered_Guitar,6,4,DL_EnglishEdition_Remastered_Guitar,0.9986500144004822,1
66,100,0.17727272727272728,448,1,47,DL_EnglishEdition_Remastered_Guitar,6,3,DL_EnglishEdition_Remastered_Guitar,0.08780249208211899,0
54,100,0.2818181818181818,506,0,47,DL_EnglishEdition_Remastered_Guitar,6,5,DL_EnglishEdition_Remastered_Guitar,0.09181100130081177,0
59,100,0.2409090909090909,584,0,47,DL_EnglishEdition_Remastered_Guitar,6,4,DL_EnglishEdition_Remastered_Guitar,0.10747511684894562,0
59,100,0.5181818181818182,735,0,47,DL_EnglishEdition_Remastered_Guitar,6,8,DL_EnglishEdition_Remastered_Guitar,0.12482111155986786,0
54,100,0.23636363636363636,853,0,47,DL_EnglishEdition_Remastered_Guitar,6,4,DL_EnglishEdition_Remastered_Guitar,0.17903417348861694,0
59,100,1.0,31,1,48,DL_EnglishEdition_Remastered_Guitar,6,15,DL_EnglishEdition_Remastered_Guitar,0.9983164072036743,1
59,100,0.2409090909090909,748,1,48,DL_EnglishEdition_Remastered_Guitar,6,4,DL_EnglishEdition_Remastered_Guitar,0.5445590615272522,0
59,100,0.13636363636363635,150,1,49,DL_EnglishEdition_Remastered_Guitar,6,2,DL_EnglishEdition_Remastered_Guitar,0.9986500144004822,1
54,100,0.3,215,0,49,DL_EnglishEdition_Remastered_Guitar,6,5,DL_EnglishEdition_Remastered_Guitar,0.08780140429735184,0
54,100,0.21818181818181817,286,0,49,DL_EnglishEdition_Remastered_Guitar,6,3,DL_EnglishEdition_Remastered_Guitar,0.09181344509124756,0
59,100,0.4772727272727273,568,1,49,DL_EnglishEdition_Remastered_Guitar,6,8,DL_EnglishEdition_Remastered_Guitar,0.10747553408145905,0
59,100,0.17727272727272728,678,0,49,DL_EnglishEdition_Remastered_Guitar,6,3,DL_EnglishEdition_Remastered_Guitar,0.12482348829507828,0
59,100,0.3,774,0,49,DL_EnglishEdition_Remastered_Guitar,6,5,DL_EnglishEdition_Remastered_Guitar,0.17903484404087067,0
59,100,0.18181818181818182,48,1,50,DL_EnglishEdition_Remastered_Guitar,6,3,DL_EnglishEdition_Remastered_Guitar,0.9990057349205017,1
59,100,0.5818181818181818,364,1,50,DL_EnglishEdition_Remastered_Guitar,6,9,DL_EnglishEdition_Remastered_Guitar,0.23120124638080597,0
59,100,0.17727272727272728,545,0,50,DL_EnglishEdition_Remastered_Guitar,6,3,DL_EnglishEdition_Remastered_Guitar,0.2659168541431427,0
59,100,0.7,735,0,50,DL_EnglishEdition_Remastered_Guitar,6,11,DL_EnglishEdition_Remastered_Guitar,0.3541910946369171,0
52,100,0.7818181818181819,26,1,51,DL_EnglishEdition_Remastered_Guitar,6,13,DL_EnglishEdition_Remastered_Guitar,0.9983165264129639,1
54,100,0.2590909090909091,783,1,51,DL_EnglishEdition_Remastered_Guitar,6,4,DL_EnglishEdition_Remastered_Guitar,0.5445590019226074,0
59,100,0.6409090909090909,26,1,52,DL_EnglishEdition_Remastered_Guitar,6,10,DL_EnglishEdition_Remastered_Guitar,0.9988419413566589,1
54,100,0.23636363636363636,171,0,52,DL_EnglishEdition_Remastered_Guitar,6,4,DL_EnglishEdition_Remastered_Guitar,0.1372493952512741,0
54,100,0.7181818181818181,308,0,52,DL_EnglishEdition_Remastered_Guitar,6,11,DL_EnglishEdition_Remastered_Guitar,0.1597735434770584,0
54,100,0.3409090909090909,681,1,52,DL_EnglishEdition_Remastered_Guitar,6,5,DL_EnglishEdition_Remastered_Guitar,0.186446413397789,0
59,100,0.11818181818181818,823,0,52,DL_EnglishEdition_Remastered_Guitar,6,2,DL_EnglishEdition_Remastered_Guitar,0.25816214084625244,0
59,100,0.11818181818181818,198,1,53,DL_EnglishEdition_Remastered_Guitar,6,2,DL_EnglishEdition_Remastered_Guitar,0.9990057349205017,1
52,100,0.4818181818181818,334,0,53,DL_EnglishEdition_Remastered_Guitar,6,8,DL_EnglishEdition_Remastered_Guitar,0.23119910061359406,0
54,100,0.3409090909090909,735,1,53,DL_EnglishEdition_Remastered_Guitar,6,5,DL_EnglishEdition_Remastered_Guitar,0.2659202814102173,0
59,100,0.5,875,0,53,DL_EnglishEdition_Remastered_Guitar,6,8,DL_EnglishEdition_Remastered_Guitar,0.35419225692749023,0
54,100,0.18181818181818182,110,1,54,DL_EnglishEdition_Remastered_Guitar,6,3,DL_EnglishEdition_Remastered_Guitar,0.9990057349205017,1
54,100,0.2590909090909091,153,0,54,DL_EnglishEdition_Remastered_Guitar,6,4,DL_EnglishEdition_Remastered_Guitar,0.23120057582855225,0
59,100,0.7,536,1,54,DL_EnglishEdition_Remastered_Guitar,6,11,DL_EnglishEdition_Remastered_Guitar,0.26591843366622925,0
54,100,0.2409090909090909,708,0,54,DL_EnglishEdition_Remastered_Guitar,6,4,DL_EnglishEdition_Remastered_Guitar,0.354190856218338,0
59,100,0.2,78,1,55,DL_EnglishEdition_Remastered_Guitar,6,3,DL_EnglishEdition_Remastered_Guitar,0.9984880685806274,1
54,100,0.1,141,0,55,DL_EnglishEdition_Remastered_Guitar,6,2,DL_EnglishEdition_Remastered_Guitar,0.06334537267684937,0
54,100,0.2409090909090909,198,0,55,DL_EnglishEdition_Remastered_Guitar,6,4,DL_EnglishEdition_Remastered_Guitar,0.057742953300476074,0
66,100,0.2,373,0,55,DL_EnglishEdition_Remastered_Guitar,6,3,DL_EnglishEdition_Remastered_Guitar,0.06020169332623482,0
59,100,0.35909090909090907,536,0,55,DL_EnglishEdition_Remastered_Guitar,6,6,DL_EnglishEdition_Remastered_Guitar,0.06970139592885971,0
59,100,0.9590909090909091,651,0,55,DL_EnglishEdition_Remastered_Guitar,6,15,DL_EnglishEdition_Remastered_Guitar,0.08189158141613007,0
54,100,0.1,861,0,55,DL_EnglishEdition_Remastered_Guitar,6,2,DL_EnglishEdition_Remastered_Guitar,0.1240212544798851,0
54,100,0.35909090909090907,40,1,56,DL_EnglishEdition_Remastered_Guitar,6,6,DL_EnglishEdition_Remastered_Guitar,0.9988420605659485,1
54,100,0.5227272727272727,166,0,56,DL_EnglishEdition_Remastered_Guitar,6,8,DL_EnglishEdition_Remastered_Guitar,0.13724806904792786,0
56,100,0.21818181818181817,633,1,56,DL_EnglishEdition_Remastered_Guitar,6,3,DL_EnglishEdition_Remastered_Guitar,0.15978004038333893,0
56,100,0.33636363636363636,700,0,56,DL_EnglishEdition_Remastered_Guitar,6,5,DL_EnglishEdition_Remastered_Guitar,0.18644917011260986,0
56,100,0.5636363636363636,818,0,56,DL_EnglishEdition_Remastered_Guitar,6,9,DL_EnglishEdition_Remastered_Guitar,0.25816088914871216,0
63,100,0.2409090909090909,158,1,57,DL_EnglishEdition_Remastered_Guitar,6,4,DL_EnglishEdition_Remastered_Guitar,0.9990229606628418,1
56,100,0.1590909090909091,295,0,57,DL_EnglishEdition_Remastered_Guitar,6,3,DL_EnglishEdition_Remastered_Guitar,0.3666195273399353,0
59,100,0.42272727272727273,774,1,57,DL_EnglishEdition_Remastered_Guitar,6,7,DL_EnglishEdition_Remastered_Guitar,0.4533045291900635,0
54,100,0.1409090909090909,254,1,58,DL_EnglishEdition_Remastered_Guitar,6,2,DL_EnglishEdition_Remastered_Guitar,0.9990057349205017,1
54,100,0.16363636363636364,531,1,58,DL_EnglishEdition_Remastered_Guitar,6,3,DL_EnglishEdition_Remastered_Guitar,0.23120388388633728,0
54,100,0.22272727272727272,628,0,58,DL_EnglishEdition_Remastered_Guitar,6,4,DL_EnglishEdition_Remastered_Guitar,0.2659206688404083,0
54,100,0.1590909090909091,703,0,58,DL_EnglishEdition_Remastered_Guitar,6,3,DL_EnglishEdition_Remastered_Guitar,0.3541962504386902,0
59,100,0.21818181818181817,31,1,59,DL_EnglishEdition_Remastered_Guitar,6,3,DL_EnglishEdition_Remastered_Guitar,0.9986500144004822,1
59,100,0.2590909090909091,141,0,59,DL_EnglishEdition_Remastered_Guitar,6,4,DL_EnglishEdition_Remastered_Guitar,0.08780499547719955,0
59,100,0.4409090909090909,316,0,59,DL_EnglishEdition_Remastered_Guitar,6,7,DL_EnglishEdition_Remastered_Guitar,0.09181567281484604,0
66,100,0.3,531,0,59,DL_EnglishEdition_Remastered_Guitar,6,5,DL_EnglishEdition_Remastered_Guitar,0.10748348385095596,0
66,100,0.17727272727272728,603,0,59,DL_EnglishEdition_Remastered_Guitar,6,3,DL_EnglishEdition_Remastered_Guitar,0.12483002990484238,0
66,100,1.259090909090909,778,0,59,DL_EnglishEdition_Remastered_Guitar,6,15,DL_EnglishEdition_Remastered_Guitar,0.1790364682674408,0
61,100,0.5181818181818182,198,1,60,DL_EnglishEdition_Remastered_Guitar,6,8,DL_EnglishEdition_Remastered_Guitar,0.9986500144004822,1
66,100,0.21818181818181817,383,0,60,DL_EnglishEdition_Remastered_Guitar,6,3,DL_EnglishEdition_Remastered_Guitar,0.08780311793088913,0
61,100,0.6181818181818182,440,0,60,DL_EnglishEdition_Remastered_Guitar,6,10,DL_EnglishEdition_Remastered_Guitar,0.09181507676839828,0
54,100,0.2409090909090909,641,0,60,DL_EnglishEdition_Remastered_Guitar,6,4,DL_EnglishEdition_Remastered_Guitar,0.10747817903757095,0
64,100,0.12272727272727273,729,0,60,DL_EnglishEdition_Remastered_Guitar,6,2,DL_EnglishEdition_Remastered_Guitar,0.1248294934630394,0
66,100,0.5409090909090909,836,0,60,DL_EnglishEdition_Remastered_Guitar,6,9,DL_EnglishEdition_Remastered_Guitar,0.17903392016887665,0
66,100,0.5409090909090909,78,1,61,DL_EnglishEdition_Remastered_Guitar,6,9,DL_EnglishEdition_Remastered_Guitar,0.9986500144004822,1
66,100,0.2590909090909091,220,0,61,DL_EnglishEdition_Remastered_Guitar,6,4,DL_EnglishEdition_Remastered_Guitar,0.0878036767244339,0
59,100,0.1,325,0,61,DL_EnglishEdition_Remastered_Guitar,6,2,DL_EnglishEdition_Remastered_Guitar,0.09181366115808487,0
66,100,0.5590909090909091,474,0,61,DL_EnglishEdition_Remastered_Guitar,6,9,DL_EnglishEdition_Remastered_Guitar,0.10747479647397995,0
52,100,0.18181818181818182,606,0,61,DL_EnglishEdition_Remastered_Guitar,6,3,DL_EnglishEdition_Remastered_Guitar,0.12482593208551407,0
52,100,0.9409090909090909,871,1,61,DL_EnglishEdition_Remastered_Guitar,6,15,DL_EnglishEdition_Remastered_Guitar,0.17903053760528564,0
52,100,0.1409090909090909,211,1,62,DL_EnglishEdition_Remastered_Guitar,6,2,DL_EnglishEdition_Remastered_Guitar,0.9990229606628418,1
52,100,0.6,251,0,62,DL_EnglishEdition_Remastered_Guitar,6,10,DL_EnglishEdition_Remastered_Guitar,0.36663052439689636,0
59,100,0.6,641,1,62,DL_EnglishEdition_Remastered_Guitar,6,10,DL_EnglishEdition_Remastered_Guitar,0.45329105854034424,0
59,100,0.6,18,1,63,DL_EnglishEdition_Remastered_Guitar,6,10,DL_EnglishEdition_Remastered_Guitar,0.9990229606628418,1
54,100,0.1590909090909091,606,1,63,DL_EnglishEdition_Remastered_Guitar,6,3,DL_EnglishEdition_Remastered_Guitar,0.3666289150714874,0
56,100,0.9818181818181818,694,0,63,DL_EnglishEdition_Remastered_Guitar,6,15,DL_EnglishEdition_Remastered_Guitar,0.4532870352268219,0
56,100,0.8409090909090909,66,1,64,DL_EnglishEdition_Remastered_Guitar,6,13,DL_EnglishEdition_Remastered_Guitar,0.9986500144004822,1
52,100,0.8818181818181818,320,1,64,DL_EnglishEdition_Remastered_Guitar,6,14,DL_EnglishEdition_Remastered_Guitar,0.08780448138713837,0
59,100,0.22272727272727272,519,0,64,DL_EnglishEdition_Remastered_Guitar,6,4,DL_EnglishEdition_Remastered_Guitar,0.09181461483240128,0
59,100,0.8590909090909091,590,0,64,DL_EnglishEdition_Remastered_Guitar,6,14,DL_EnglishEdition_Remastered_Guitar,0.10747722536325455,0
59,100,0.12272727272727273,817,0,64,DL_EnglishEdition_Remastered_Guitar,6,2,DL_EnglishEdition_Remastered_Guitar,0.12482982128858566,0
54,100,0.4409090909090909,857,0,64,DL_EnglishEdition_Remastered_Guitar,6,7,DL_EnglishEdition_Remastered_Guitar,0.1790292114019394,0
59,100,0.32272727272727275,157,1,65,DL_EnglishEdition_Remastered_Guitar,6,5,DL_EnglishEdition_Remastered_Guitar,0.9988419413566589,1
59,100,0.4409090909090909,255,0,65,DL_EnglishEdition_Remastered_Guitar,6,7,DL_EnglishEdition_Remastered_Guitar,0.13724970817565918,0
54,100,0.2,480,0,65,DL_EnglishEdition_Remastered_Guitar,6,3,DL_EnglishEdition_Remastered_Guitar,0.15977968275547028,0
54,100,0.12272727272727273,597,0,65,DL_EnglishEdition_Remastered_Guitar,6,2,DL_EnglishEdition_Remastered_Guitar,0.18645282089710236,0
54,100,0.5772727272727273,756,0,65,DL_EnglishEdition_Remastered_Guitar,6,9,DL_EnglishEdition_Remastered_Guitar,0.2581697702407837,0
54,100,0.5409090909090909,132,1,66,DL_EnglishEdition_Remastered_Guitar,6,9,DL_EnglishEdition_Remastered_Guitar,0.9984880685806274,1
54,100,0.23636363636363636,326,0,66,DL_EnglishEdition_Remastered_Guitar,6,4,DL_EnglishEdition_Remastered_Guitar,0.06334345042705536,0
54,100,0.2,396,0,66,DL_EnglishEdition_Remastered_Guitar,6,3,DL_EnglishEdition_Remastered_Guitar,0.057739924639463425,0
54,100,0.5181818181818182,527,0,66,DL_EnglishEdition_Remastered_Guitar,6,8,DL_EnglishEdition_Remastered_Guitar,0.06019683554768562,0
52,100,0.18181818181818182,660,0,66,DL_EnglishEdition_Remastered_Guitar,6,3,DL_EnglishEdition_Remastered_Guitar,0.06969790905714035,0
59,100,0.1409090909090909,726,0,66,DL_EnglishEdition_Remastered_Guitar,6,2,DL_EnglishEdition_Remastered_Guitar,0.0818878561258316,0
59,100,0.5181818181818182,779,0,66,DL_EnglishEdition_Remastered_Guitar,6,8,DL_EnglishEdition_Remastered_Guitar,0.12401571869850159,0
52,100,0.36363636363636365,47,1,67,DL_EnglishEdition_Remastered_Guitar,6,6,DL_EnglishEdition_Remastered_Guitar,0.9986500144004822,1
59,100,0.2,189,0,67,DL_EnglishEdition_Remastered_Guitar,6,3,DL_EnglishEdition_Remastered_Guitar,0.08780323714017868,0
54,100,0.18181818181818182,246,0,67,DL_EnglishEdition_Remastered_Guitar,6,3,DL_EnglishEdition_Remastered_Guitar,0.09181414544582367,0
54,100,0.17727272727272728,294,0,67,DL_EnglishEdition_Remastered_Guitar,6,3,DL_EnglishEdition_Remastered_Guitar,0.10747931897640228,0
54,100,0.22272727272727272,760,1,67,DL_EnglishEdition_Remastered_Guitar,6,4,DL_EnglishEdition_Remastered_Guitar,0.12483026832342148,0
54,100,0.3,823,0,67,DL_EnglishEdition_Remastered_Guitar,6,5,DL_EnglishEdition_Remastered_Guitar,0.17903581261634827,0
56,100,2.040909090909091,466,1,68,DL_EnglishEdition_Remastered_Guitar,6,15,DL_EnglishEdition_Remastered_Guitar,0.9792544841766357,0
54,100,0.13636363636363635,40,1,69,DL_EnglishEdition_Remastered_Guitar,6,2,DL_EnglishEdition_Remastered_Guitar,0.9984880685806274,1
52,100,1.7181818181818183,110,0,69,DL_EnglishEdition_Remastered_Guitar,6,15,DL_EnglishEdition_Remastered_Guitar,0.06334356218576431,0
52,100,0.1590909090909091,527,1,69,DL_EnglishEdition_Remastered_Guitar,6,3,DL_EnglishEdition_Remastered_Guitar,0.057742640376091,0
54,100,0.1590909090909091,616,0,69,DL_EnglishEdition_Remastered_Guitar,6,3,DL_EnglishEdition_Remastered_Guitar,0.060202162712812424,0
54,100,0.2772727272727273,677,0,69,DL_EnglishEdition_Remastered_Guitar,6,4,DL_EnglishEdition_Remastered_Guitar,0.06970467418432236,0
61,100,0.12272727272727273,752,0,69,DL_EnglishEdition_Remastered_Guitar,6,2,DL_EnglishEdition_Remastered_Guitar,0.08189298957586288,0
61,100,0.35909090909090907,783,0,69,DL_EnglishEdition_Remastered_Guitar,6,6,DL_EnglishEdition_Remastered_Guitar,0.12402037531137466,0
54,100,0.6590909090909091,9,1,70,DL_EnglishEdition_Remastered_Guitar,6,11,DL_EnglishEdition_Remastered_Guitar,0.9986500144004822,1
59,100,0.16363636363636364,179,0,70,DL_EnglishEdition_Remastered_Guitar,6,3,DL_EnglishEdition_Remastered_Guitar,0.08780325949192047,0
59,100,0.1,453,1,70,DL_EnglishEdition_Remastered_Guitar,6,2,DL_EnglishEdition_Remastered_Guitar,0.091813825070858,0
54,100,0.3,590,0,70,DL_EnglishEdition_Remastered_Guitar,6,5,DL_EnglishEdition_Remastered_Guitar,0.10747813433408737,0
54,100,0.2409090909090909,739,0,70,DL_EnglishEdition_Remastered_Guitar,6,4,DL_EnglishEdition_Remastered_Guitar,0.12482946366071701,0
52,100,1.7818181818181817,796,0,70,DL_EnglishEdition_Remastered_Guitar,6,15,DL_EnglishEdition_Remastered_Guitar,0.1790318638086319,0
52,100,0.2590909090909091,316,1,71,DL_EnglishEdition_Remastered_Guitar,6,4,DL_EnglishEdition_Remastered_Guitar,0.9990057349205017,1
52,100,0.740909090909091,399,0,71,DL_EnglishEdition_Remastered_Guitar,6,12,DL_EnglishEdition_Remastered_Guitar,0.23120036721229553,0
52,100,0.4409090909090909,597,0,71,DL_EnglishEdition_Remastered_Guitar,6,7,DL_EnglishEdition_Remastered_Guitar,0.2659187912940979,0
52,100,0.6181818181818182,713,0,71,DL_EnglishEdition_Remastered_Guitar,6,10,DL_EnglishEdition_Remastered_Guitar,0.3542017936706543,0
54,100,0.1,210,1,72,DL_EnglishEdition_Remastered_Guitar,6,2,DL_EnglishEdition_Remastered_Guitar,0.9988420605659485,1
59,100,0.17727272727272728,457,1,72,DL_EnglishEdition_Remastered_Guitar,6,3,DL_EnglishEdition_Remastered_Guitar,0.13724765181541443,0
59,100,0.2,509,0,72,DL_EnglishEdition_Remastered_Guitar,6,3,DL_EnglishEdition_Remastered_Guitar,0.1597776561975479,0
54,100,0.4590909090909091,612,0,72,DL_EnglishEdition_Remastered_Guitar,6,7,DL_EnglishEdition_Remastered_Guitar,0.18644733726978302,0
54,100,0.1590909090909091,716,0,72,DL_EnglishEdition_Remastered_Guitar,6,3,DL_EnglishEdition_Remastered_Guitar,0.25816553831100464,0
54,100,0.2818181818181818,166,1,73,DL_EnglishEdition_Remastered_Guitar,6,5,DL_EnglishEdition_Remastered_Guitar,0.9990058541297913,1
56,100,0.6409090909090909,242,0,73,DL_EnglishEdition_Remastered_Guitar,6,10,DL_EnglishEdition_Remastered_Guitar,0.23120200634002686,0
56,100,0.7818181818181819,506,1,73,DL_EnglishEdition_Remastered_Guitar,6,13,DL_EnglishEdition_Remastered_Guitar,0.2659112215042114,0
52,100,0.1590909090909091,770,1,73,DL_EnglishEdition_Remastered_Guitar,6,3,DL_EnglishEdition_Remastered_Guitar,0.3541918694972992,0
59,100,0.11818181818181818,30,1,74,DL_EnglishEdition_Remastered_Guitar,6,2,DL_EnglishEdition_Remastered_Guitar,0.9984880685806274,1
52,100,0.3409090909090909,153,0,74,DL_EnglishEdition_Remastered_Guitar,6,5,DL_EnglishEdition_Remastered_Guitar,0.06334469467401505,0
52,100,0.1,233,0,74,DL_EnglishEdition_Remastered_Guitar,6,2,DL_EnglishEdition_Remastered_Guitar,0.05774341896176338,0
59,100,0.12272727272727273,255,0,74,DL_EnglishEdition_Remastered_Guitar,6,2,DL_EnglishEdition_Remastered_Guitar,0.060204166918992996,0
52,100,0.2,303,0,74,DL_EnglishEdition_Remastered_Guitar,6,3,DL_EnglishEdition_Remastered_Guitar,0.06970402598381042,0
54,100,0.2590909090909091,783,1,74,DL_EnglishEdition_Remastered_Guitar,6,4,DL_EnglishEdition_Remastered_Guitar,0.08189821988344193,0
54,100,0.17727272727272728,876,0,74,DL_EnglishEdition_Remastered_Guitar,6,3,DL_EnglishEdition_Remastered_Guitar,0.12402915954589844,0
54,100,0.5227272727272727,56,1,75,DL_EnglishEdition_Remastered_Guitar,6,8,DL_EnglishEdition_Remastered_Guitar,0.9986500144004822,1
54,100,0.3,202,0,75,DL_EnglishEdition_Remastered_Guitar,6,5,DL_EnglishEdition_Remastered_Guitar,0.08780331164598465,0
54,100,0.18181818181818182,289,0,75,DL_EnglishEdition_Remastered_Guitar,6,3,DL_EnglishEdition_Remastered_Guitar,0.09181394428014755,0
54,100,0.2772727272727273,404,0,75,DL_EnglishEdition_Remastered_Guitar,6,4,DL_EnglishEdition_Remastered_Guitar,0.10747857391834259,0
54,100,0.7181818181818181,572,0,75,DL_EnglishEdition_Remastered_Guitar,6,11,DL_EnglishEdition_Remastered_Guitar,0.124823197722435,0
54,100,0.4409090909090909,849,1,75,DL_EnglishEdition_Remastered_Guitar,6,7,DL_EnglishEdition_Remastered_Guitar,0.1790323406457901,0
54,100,0.5,92,1,76,DL_EnglishEdition_Remastered_Guitar,6,8,DL_EnglishEdition_Remastered_Guitar,0.9986500144004822,1
59,100,0.4590909090909091,242,0,76,DL_EnglishEdition_Remastered_Guitar,6,7,DL_EnglishEdition_Remastered_Guitar,0.08780262619256973,0
54,100,0.2409090909090909,365,0,76,DL_EnglishEdition_Remastered_Guitar,6,4,DL_EnglishEdition_Remastered_Guitar,0.09181283414363861,0
54,100,0.5181818181818182,436,0,76,DL_EnglishEdition_Remastered_Guitar,6,8,DL_EnglishEdition_Remastered_Guitar,0.10747625678777695,0
59,100,0.4818181818181818,629,0,76,DL_EnglishEdition_Remastered_Guitar,6,8,DL_EnglishEdition_Remastered_Guitar,0.12482206523418427,0
54,100,0.22272727272727272,739,0,76,DL_EnglishEdition_Remastered_Guitar,6,4,DL_EnglishEdition_Remastered_Guitar,0.179029643535614,0
59,100,0.3181818181818182,17,1,77,DL_EnglishEdition_Remastered_Guitar,6,5,DL_EnglishEdition_Remastered_Guitar,0.9984880685806274,1
59,100,0.13636363636363635,216,0,77,DL_EnglishEdition_Remastered_Guitar,6,2,DL_EnglishEdition_Remastered_Guitar,0.06334614008665085,0
54,100,0.12272727272727273,255,0,77,DL_EnglishEdition_Remastered_Guitar,6,2,DL_EnglishEdition_Remastered_Guitar,0.057743094861507416,0
54,100,0.11818181818181818,303,0,77,DL_EnglishEdition_Remastered_Guitar,6,2,DL_EnglishEdition_Remastered_Guitar,0.06020161136984825,0
52,100,0.6,383,0,77,DL_EnglishEdition_Remastered_Guitar,6,10,DL_EnglishEdition_Remastered_Guitar,0.06970224529504776,0
59,100,0.12272727272727273,540,0,77,DL_EnglishEdition_Remastered_Guitar,6,2,DL_EnglishEdition_Remastered_Guitar,0.08189769834280014,0
52,100,0.9181818181818182,637,0,77,DL_EnglishEdition_Remastered_Guitar,6,15,DL_EnglishEdition_Remastered_Guitar,0.1240217536687851,0
54,100,0.21818181818181817,150,1,78,DL_EnglishEdition_Remastered_Guitar,6,3,DL_EnglishEdition_Remastered_Guitar,0.9988420605659485,1
59,100,0.4,250,0,78,DL_EnglishEdition_Remastered_Guitar,6,6,DL_EnglishEdition_Remastered_Guitar,0.13724598288536072,0
54,100,0.2818181818181818,475,0,78,DL_EnglishEdition_Remastered_Guitar,6,5,DL_EnglishEdition_Remastered_Guitar,0.15977638959884644,0
59,100,0.8363636363636363,612,0,78,DL_EnglishEdition_Remastered_Guitar,6,13,DL_EnglishEdition_Remastered_Guitar,0.18644171953201294,0
54,100,0.18181818181818182,817,0,78,DL_EnglishEdition_Remastered_Guitar,6,3,DL_EnglishEdition_Remastered_Guitar,0.258163720369339,0
54,100,0.11818181818181818,119,1,79,DL_EnglishEdition_Remastered_Guitar,6,2,DL_EnglishEdition_Remastered_Guitar,0.9984880685806274,1
54,100,0.2772727272727273,193,0,79,DL_EnglishEdition_Remastered_Guitar,6,4,DL_EnglishEdition_Remastered_Guitar,0.06334342062473297,0
59,100,0.2409090909090909,263,0,79,DL_EnglishEdition_Remastered_Guitar,6,4,DL_EnglishEdition_Remastered_Guitar,0.057740021497011185,0
54,100,0.1409090909090909,320,0,79,DL_EnglishEdition_Remastered_Guitar,6,2,DL_EnglishEdition_Remastered_Guitar,0.060201168060302734,0
54,100,0.3409090909090909,365,0,79,DL_EnglishEdition_Remastered_Guitar,6,5,DL_EnglishEdition_Remastered_Guitar,0.06969884783029556,0
59,100,0.17727272727272728,449,0,79,DL_EnglishEdition_Remastered_Guitar,6,3,DL_EnglishEdition_Remastered_Guitar,0.08189137279987335,0
59,100,0.4636363636363636,729,1,79,DL_EnglishEdition_Remastered_Guitar,6,7,DL_EnglishEdition_Remastered_Guitar,0.12402015179395676,0
52,100,0.6409090909090909,79,1,80,DL_EnglishEdition_Remastered_Guitar,6,10,DL_EnglishEdition_Remastered_Guitar,0.9990057349205017,1
52,100,0.2818181818181818,409,1,80,DL_EnglishEdition_Remastered_Guitar,6,5,DL_EnglishEdition_Remastered_Guitar,0.23120133578777313,0
54,100,0.3181818181818182,747,1,80,DL_EnglishEdition_Remastered_Guitar,6,5,DL_EnglishEdition_Remastered_Guitar,0.26592063903808594,0
54,100,0.11818181818181818,823,0,80,DL_EnglishEdition_Remastered_Guitar,6,2,DL_EnglishEdition_Remastered_Guitar,0.35419946908950806,0
54,100,0.5227272727272727,3,1,81,DL_EnglishEdition_Remastered_Guitar,6,8,DL_EnglishEdition_Remastered_Guitar,0.9986500144004822,1
59,100,0.2409090909090909,163,0,81,DL_EnglishEdition_Remastered_Guitar,6,4,DL_EnglishEdition_Remastered_Guitar,0.08780227601528168,0
54,100,0.6,396,1,81,DL_EnglishEdition_Remastered_Guitar,6,10,DL_EnglishEdition_Remastered_Guitar,0.09181258827447891,0
59,100,0.12272727272727273,629,1,81,DL_EnglishEdition_Remastered_Guitar,6,2,DL_EnglishEdition_Remastered_Guitar,0.10747645795345306,0
59,100,0.4,700,0,81,DL_EnglishEdition_Remastered_Guitar,6,6,DL_EnglishEdition_Remastered_Guitar,0.12482298910617828,0
59,100,0.21818181818181817,853,0,81,DL_EnglishEdition_Remastered_Guitar,6,3,DL_EnglishEdition_Remastered_Guitar,0.17903102934360504,0
54,100,0.3,30,1,82,DL_EnglishEdition_Remastered_Guitar,6,5,DL_EnglishEdition_Remastered_Guitar,0.9984880685806274,1
52,100,0.4409090909090909,163,0,82,DL_EnglishEdition_Remastered_Guitar,6,7,DL_EnglishEdition_Remastered_Guitar,0.0633450374007225,0
59,100,0.35909090909090907,276,0,82,DL_EnglishEdition_Remastered_Guitar,6,6,DL_EnglishEdition_Remastered_Guitar,0.0577431321144104,0
52,100,0.4818181818181818,430,0,82,DL_EnglishEdition_Remastered_Guitar,6,8,DL_EnglishEdition_Remastered_Guitar,0.06020200997591019,0
52,100,0.11818181818181818,660,0,82,DL_EnglishEdition_Remastered_Guitar,6,2,DL_EnglishEdition_Remastered_Guitar,0.06970350444316864,0
52,100,0.1590909090909091,713,0,82,DL_EnglishEdition_Remastered_Guitar,6,3,DL_EnglishEdition_Remastered_Guitar,0.08189626783132553,0
54,100,0.17727272727272728,832,0,82,DL_EnglishEdition_Remastered_Guitar,6,3,DL_EnglishEdition_Remastered_Guitar,0.12402454018592834,0
54,100,0.16363636363636364,3,1,83,DL_EnglishEdition_Remastered_Guitar,6,3,DL_EnglishEdition_Remastered_Guitar,0.9988419413566589,1
54,100,0.3409090909090909,123,0,83,DL_EnglishEdition_Remastered_Guitar,6,5,DL_EnglishEdition_Remastered_Guitar,0.13724523782730103,0
54,100,0.18181818181818182,312,0,83,DL_EnglishEdition_Remastered_Guitar,6,3,DL_EnglishEdition_Remastered_Guitar,0.15977656841278076,0
54,100,0.41818181818181815,426,0,83,DL_EnglishEdition_Remastered_Guitar,6,7,DL_EnglishEdition_Remastered_Guitar,0.18644443154335022,0
54,100,0.4409090909090909,713,1,83,DL_EnglishEdition_Remastered_Guitar,6,7,DL_EnglishEdition_Remastered_Guitar,0.25816506147384644,0
54,100,0.2818181818181818,110,1,84,DL_EnglishEdition_Remastered_Guitar,6,5,DL_EnglishEdition_Remastered_Guitar,0.9990057349205017,1
54,100,0.1590909090909091,347,1,84,DL_EnglishEdition_Remastered_Guitar,6,3,DL_EnglishEdition_Remastered_Guitar,0.23120354115962982,0
59,100,0.4818181818181818,386,0,84,DL_EnglishEdition_Remastered_Guitar,6,8,DL_EnglishEdition_Remastered_Guitar,0.26592570543289185,0
54,100,0.8227272727272728,496,0,84,DL_EnglishEdition_Remastered_Guitar,6,13,DL_EnglishEdition_Remastered_Guitar,0.35418522357940674,0
54,100,0.17727272727272728,470,1,85,DL_EnglishEdition_Remastered_Guitar,6,3,DL_EnglishEdition_Remastered_Guitar,0.9792566299438477,1
56,100,0.12272727272727273,575,1,4,_Remix_Guitar,6,2,_Remix_Guitar,0.9792550206184387,0
58,100,0.18181818181818182,66,1,5,_Remix_Guitar,6,3,_Remix_Guitar,0.9984880685806274,1
58,100,0.1,128,0,5,_Remix_Guitar,6,2,_Remix_Guitar,0.06334458291530609,0
58,100,0.12272727272727273,232,0,5,_Remix_Guitar,6,2,_Remix_Guitar,0.05774245783686638,0
56,100,0.13636363636363635,391,0,5,_Remix_Guitar,6,2,_Remix_Guitar,0.06020071730017662,0
63,100,0.12272727272727273,431,0,5,_Remix_Guitar,6,2,_Remix_Guitar,0.06970175355672836,0
56,100,0.2590909090909091,550,0,5,_Remix_Guitar,6,4,_Remix_Guitar,0.08189129829406738,0
65,100,0.1409090909090909,778,0,5,_Remix_Guitar,6,2,_Remix_Guitar,0.12402044236660004,0
58,100,0.22272727272727272,12,1,6,_Remix_Guitar,6,4,_Remix_Guitar,0.9988420605659485,1
65,100,0.38181818181818183,286,1,6,_Remix_Guitar,6,6,_Remix_Guitar,0.13725052773952484,0
55,100,0.2,399,0,6,_Remix_Guitar,6,3,_Remix_Guitar,0.15977872908115387,0
55,100,0.21818181818181817,493,0,6,_Remix_Guitar,6,3,_Remix_Guitar,0.18644846975803375,0
55,100,0.13636363636363635,678,0,6,_Remix_Guitar,6,2,_Remix_Guitar,0.2581581473350525,0
70,100,0.1409090909090909,342,1,7,_Remix_Guitar,6,2,_Remix_Guitar,0.9990058541297913,1
55,100,0.1409090909090909,581,1,7,_Remix_Guitar,6,2,_Remix_Guitar,0.2312069684267044,0
55,100,0.1,810,0,7,_Remix_Guitar,6,2,_Remix_Guitar,0.2659260928630829,0
63,100,0.22272727272727272,871,0,7,_Remix_Guitar,6,4,_Remix_Guitar,0.3541984558105469,0
56,100,0.4818181818181818,254,1,8,_Remix_Guitar,6,8,_Remix_Guitar,0.9983165264129639,1
58,100,0.11818181818181818,814,1,8,_Remix_Guitar,6,2,_Remix_Guitar,0.5445573925971985,0
55,100,0.11818181818181818,22,1,9,_Remix_Guitar,6,2,_Remix_Guitar,0.9792567491531372,0
58,100,0.12272727272727273,553,1,10,_Remix_Guitar,6,2,_Remix_Guitar,0.9792569875717163,0
58,100,0.12272727272727273,101,1,13,_Remix_Guitar,6,2,_Remix_Guitar,0.9983165264129639,1
56,100,0.16363636363636364,465,1,13,_Remix_Guitar,6,3,_Remix_Guitar,0.5445539355278015,0
58,100,0.2590909090909091,326,1,14,_Remix_Guitar,6,4,_Remix_Guitar,0.9983165264129639,1
63,100,0.18181818181818182,474,0,14,_Remix_Guitar,6,3,_Remix_Guitar,0.5445525646209717,0
53,100,0.11818181818181818,876,1,15,_Remix_Guitar,6,2,_Remix_Guitar,0.9792565107345581,1
53,100,0.11818181818181818,44,1,16,_Remix_Guitar,6,2,_Remix_Guitar,0.9792565107345581,0
58,100,0.4772727272727273,449,1,18,_Remix_Guitar,6,8,_Remix_Guitar,0.979256272315979,0
58,100,0.5,246,1,19,_Remix_Guitar,6,8,_Remix_Guitar,0.9983165264129639,1
63,100,0.7,660,1,19,_Remix_Guitar,6,11,_Remix_Guitar,0.5445517301559448,0
58,100,0.41818181818181815,528,1,20,_Remix_Guitar,6,7,_Remix_Guitar,0.9792565107345581,0
58,100,0.18181818181818182,34,1,21,_Remix_Guitar,6,3,_Remix_Guitar,0.9990230798721313,1
58,100,0.1590909090909091,119,0,21,_Remix_Guitar,6,3,_Remix_Guitar,0.36662477254867554,0
58,100,0.41818181818181815,615,1,21,_Remix_Guitar,6,7,_Remix_Guitar,0.45328906178474426,0
56,100,0.1409090909090909,405,1,22,_Remix_Guitar,6,2,_Remix_Guitar,0.9983164072036743,1
56,100,0.3,602,0,22,_Remix_Guitar,6,5,_Remix_Guitar,0.5445523858070374,0
53,100,0.18181818181818182,268,1,23,_Remix_Guitar,6,3,_Remix_Guitar,0.9990229606628418,1
58,100,0.21818181818181817,316,0,23,_Remix_Guitar,6,3,_Remix_Guitar,0.36661940813064575,0
58,100,0.1409090909090909,818,1,23,_Remix_Guitar,6,2,_Remix_Guitar,0.45328909158706665,0
58,100,0.2590909090909091,743,1,24,_Remix_Guitar,6,4,_Remix_Guitar,0.9792560338973999,0
53,100,0.41818181818181815,52,1,25,_Remix_Guitar,6,7,_Remix_Guitar,0.9988419413566589,1
53,100,0.11818181818181818,206,0,25,_Remix_Guitar,6,2,_Remix_Guitar,0.13724686205387115,0
58,100,0.4,246,0,25,_Remix_Guitar,6,6,_Remix_Guitar,0.15977530181407928,0
53,100,0.18181818181818182,474,0,25,_Remix_Guitar,6,3,_Remix_Guitar,0.18644355237483978,0
58,100,0.11818181818181818,700,0,25,_Remix_Guitar,6,2,_Remix_Guitar,0.25816574692726135,0
58,100,0.3,61,1,26,_Remix_Guitar,6,5,_Remix_Guitar,0.9990057349205017,1
53,100,0.17727272727272728,140,0,26,_Remix_Guitar,6,3,_Remix_Guitar,0.23120185732841492,0
58,100,0.8227272727272728,422,1,26,_Remix_Guitar,6,13,_Remix_Guitar,0.2659144699573517,0
58,100,0.2,849,1,26,_Remix_Guitar,6,3,_Remix_Guitar,0.35419052839279175,0
63,100,0.1590909090909091,88,1,27,_Remix_Guitar,6,3,_Remix_Guitar,0.9990057349205017,1
58,100,0.21818181818181817,281,0,27,_Remix_Guitar,6,3,_Remix_Guitar,0.23120476305484772,0
65,100,0.17727272727272728,633,1,27,_Remix_Guitar,6,3,_Remix_Guitar,0.2659253776073456,0
58,100,0.41818181818181815,822,0,27,_Remix_Guitar,6,7,_Remix_Guitar,0.35419613122940063,0
55,100,0.1409090909090909,113,1,28,_Remix_Guitar,6,2,_Remix_Guitar,0.9983165264129639,1
58,100,0.22272727272727272,752,1,28,_Remix_Guitar,6,4,_Remix_Guitar,0.544553816318512,0
58,100,0.1409090909090909,131,1,29,_Remix_Guitar,6,2,_Remix_Guitar,0.9983165264129639,1
58,100,0.22272727272727272,320,0,29,_Remix_Guitar,6,4,_Remix_Guitar,0.5445593595504761,0
58,100,0.2,44,1,30,_Remix_Guitar,6,3,_Remix_Guitar,0.9990057349205017,1
58,100,0.38181818181818183,285,1,30,_Remix_Guitar,6,6,_Remix_Guitar,0.23120097815990448,0
63,100,0.21818181818181817,567,1,30,_Remix_Guitar,6,3,_Remix_Guitar,0.2659158408641815,0
70,100,0.1,633,0,30,_Remix_Guitar,6,2,_Remix_Guitar,0.354201078414917,0
58,100,0.1409090909090909,69,1,31,_Remix_Guitar,6,2,_Remix_Guitar,0.9990230798721313,1
56,100,0.2,167,0,31,_Remix_Guitar,6,3,_Remix_Guitar,0.3666136562824249,0
58,100,0.2,796,1,31,_Remix_Guitar,6,3,_Remix_Guitar,0.4532891511917114,0
58,100,0.2409090909090909,311,1,32,_Remix_Guitar,6,4,_Remix_Guitar,0.9990058541297913,1
63,100,0.21818181818181817,391,0,32,_Remix_Guitar,6,3,_Remix_Guitar,0.23120521008968353,0
63,100,0.21818181818181817,678,1,32,_Remix_Guitar,6,3,_Remix_Guitar,0.2659280002117157,0
63,100,0.18181818181818182,783,0,32,_Remix_Guitar,6,3,_Remix_Guitar,0.35419830679893494,0
53,100,0.1590909090909091,743,1,33,_Remix_Guitar,6,3,_Remix_Guitar,0.9983165264129639,1
53,100,0.1409090909090909,804,0,33,_Remix_Guitar,6,2,_Remix_Guitar,0.5445579886436462,0
53,100,0.4818181818181818,43,1,34,_Remix_Guitar,6,8,_Remix_Guitar,0.9984880685806274,1
53,100,0.18181818181818182,158,0,34,_Remix_Guitar,6,3,_Remix_Guitar,0.06334532052278519,0
53,100,0.3181818181818182,215,0,34,_Remix_Guitar,6,5,_Remix_Guitar,0.057741548866033554,0
53,100,0.2,295,0,34,_Remix_Guitar,6,3,_Remix_Guitar,0.0602019838988781,0
63,100,0.1,606,1,34,_Remix_Guitar,6,2,_Remix_Guitar,0.06970428675413132,0
60,100,0.32272727272727275,708,0,34,_Remix_Guitar,6,5,_Remix_Guitar,0.08189746737480164,0
53,100,0.5772727272727273,831,0,34,_Remix_Guitar,6,9,_Remix_Guitar,0.12401962280273438,0
53,100,0.1590909090909091,128,1,35,_Remix_Guitar,6,3,_Remix_Guitar,0.9990229606628418,1
58,100,0.1409090909090909,373,1,35,_Remix_Guitar,6,2,_Remix_Guitar,0.3666263222694397,0
58,100,0.2818181818181818,431,0,35,_Remix_Guitar,6,5,_Remix_Guitar,0.4532811641693115,0
58,100,0.21818181818181817,163,1,37,_Remix_Guitar,6,3,_Remix_Guitar,0.9990229606628418,1
58,100,0.12272727272727273,584,1,37,_Remix_Guitar,6,2,_Remix_Guitar,0.3666324019432068,0
63,100,0.1409090909090909,770,0,37,_Remix_Guitar,6,2,_Remix_Guitar,0.45328906178474426,0
62,100,0.17727272727272728,185,1,38,_Remix_Guitar,6,3,_Remix_Guitar,0.9990229606628418,1
58,100,0.37727272727272726,448,1,38,_Remix_Guitar,6,6,_Remix_Guitar,0.3666272759437561,0
58,100,0.3,536,0,38,_Remix_Guitar,6,5,_Remix_Guitar,0.4532962441444397,0
58,100,0.2,338,1,39,_Remix_Guitar,6,3,_Remix_Guitar,0.9990230798721313,1
58,100,0.2590909090909091,748,1,39,_Remix_Guitar,6,4,_Remix_Guitar,0.36662405729293823,0
56,100,0.1409090909090909,823,0,39,_Remix_Guitar,6,2,_Remix_Guitar,0.4532889127731323,0
58,100,0.16363636363636364,246,1,40,_Remix_Guitar,6,3,_Remix_Guitar,0.9984880685806274,1
53,100,0.18181818181818182,308,0,40,_Remix_Guitar,6,3,_Remix_Guitar,0.06334379315376282,0
65,100,0.18181818181818182,373,0,40,_Remix_Guitar,6,3,_Remix_Guitar,0.05774066969752312,0
58,100,0.2,418,0,40,_Remix_Guitar,6,3,_Remix_Guitar,0.060199372470378876,0
58,100,0.11818181818181818,550,0,40,_Remix_Guitar,6,2,_Remix_Guitar,0.06969817727804184,0
53,100,0.2,655,0,40,_Remix_Guitar,6,3,_Remix_Guitar,0.08188918232917786,0
58,100,0.1590909090909091,703,0,40,_Remix_Guitar,6,3,_Remix_Guitar,0.1240137442946434,0
58,100,0.1590909090909091,496,1,41,_Remix_Guitar,6,3,_Remix_Guitar,0.9983165264129639,1
58,100,0.3181818181818182,536,0,41,_Remix_Guitar,6,5,_Remix_Guitar,0.5445594191551208,0
58,100,0.1590909090909091,21,1,42,_Remix_Guitar,6,3,_Remix_Guitar,0.9990229606628418,1
58,100,0.2818181818181818,638,1,42,_Remix_Guitar,6,5,_Remix_Guitar,0.36661675572395325,0
58,100,0.21818181818181817,823,0,42,_Remix_Guitar,6,3,_Remix_Guitar,0.45328742265701294,0
58,100,0.2,179,1,43,_Remix_Guitar,6,3,_Remix_Guitar,0.9983165264129639,1
58,100,0.18181818181818182,298,0,43,_Remix_Guitar,6,3,_Remix_Guitar,0.5445535182952881,0
58,100,0.21818181818181817,31,1,45,_Remix_Guitar,6,3,_Remix_Guitar,0.9986500144004822,1
56,100,0.18181818181818182,114,0,45,_Remix_Guitar,6,3,_Remix_Guitar,0.08780311793088913,0
58,100,0.2590909090909091,228,0,45,_Remix_Guitar,6,4,_Remix_Guitar,0.09181410074234009,0
58,100,0.1590909090909091,338,0,45,_Remix_Guitar,6,3,_Remix_Guitar,0.10748165845870972,0
58,100,0.2818181818181818,378,0,45,_Remix_Guitar,6,5,_Remix_Guitar,0.12482554465532303,0
63,100,0.1409090909090909,461,0,45,_Remix_Guitar,6,2,_Remix_Guitar,0.17903374135494232,0
56,100,0.1,56,1,46,_Remix_Guitar,6,2,_Remix_Guitar,0.9990057349205017,1
63,100,0.2,171,0,46,_Remix_Guitar,6,3,_Remix_Guitar,0.23120929300785065,0
56,100,0.6,474,1,46,_Remix_Guitar,6,10,_Remix_Guitar,0.2659173309803009,0
58,100,0.3,770,1,46,_Remix_Guitar,6,5,_Remix_Guitar,0.35419824719429016,0
58,100,0.22272727272727272,123,1,47,_Remix_Guitar,6,4,_Remix_Guitar,0.9990229606628418,1
63,100,0.2,303,0,47,_Remix_Guitar,6,3,_Remix_Guitar,0.36661186814308167,0
58,100,0.1590909090909091,810,1,47,_Remix_Guitar,6,3,_Remix_Guitar,0.4532921314239502,0
55,100,0.3181818181818182,150,1,48,_Remix_Guitar,6,5,_Remix_Guitar,0.9990057349205017,1
58,100,0.4818181818181818,289,0,48,_Remix_Guitar,6,8,_Remix_Guitar,0.23120088875293732,0
53,100,0.12272727272727273,554,1,48,_Remix_Guitar,6,2,_Remix_Guitar,0.2659158408641815,0
53,100,0.2590909090909091,646,0,48,_Remix_Guitar,6,4,_Remix_Guitar,0.35418516397476196,0
58,100,0.2,356,1,50,_Remix_Guitar,6,3,_Remix_Guitar,0.9990230798721313,1
58,100,0.16363636363636364,444,0,50,_Remix_Guitar,6,3,_Remix_Guitar,0.3666290044784546,0
58,100,0.32272727272727275,651,0,50,_Remix_Guitar,6,5,_Remix_Guitar,0.45329251885414124,0
58,100,0.1409090909090909,518,1,51,_Remix_Guitar,6,2,_Remix_Guitar,0.9990230798721313,1
63,100,0.2,576,0,51,_Remix_Guitar,6,3,_Remix_Guitar,0.3666307330131531,0
63,100,0.18181818181818182,871,1,51,_Remix_Guitar,6,3,_Remix_Guitar,0.4532955288887024,0
63,100,0.16363636363636364,69,1,52,_Remix_Guitar,6,3,_Remix_Guitar,0.9990230798721313,1
63,100,0.11818181818181818,198,0,52,_Remix_Guitar,6,2,_Remix_Guitar,0.3666379749774933,0
63,100,0.5,778,1,52,_Remix_Guitar,6,8,_Remix_Guitar,0.45329582691192627,0
63,100,0.37727272727272726,171,1,53,_Remix_Guitar,6,6,_Remix_Guitar,0.9988419413566589,1
56,100,0.1409090909090909,268,0,53,_Remix_Guitar,6,2,_Remix_Guitar,0.13724692165851593,0
58,100,0.21818181818181817,483,0,53,_Remix_Guitar,6,3,_Remix_Guitar,0.15977945923805237,0
58,100,0.21818181818181817,568,0,53,_Remix_Guitar,6,3,_Remix_Guitar,0.18644914031028748,0
58,100,0.5590909090909091,646,0,53,_Remix_Guitar,6,9,_Remix_Guitar,0.2581597864627838,0
58,100,0.1409090909090909,474,1,55,_Remix_Guitar,6,2,_Remix_Guitar,0.9990057349205017,1
58,100,0.1409090909090909,673,0,55,_Remix_Guitar,6,2,_Remix_Guitar,0.2312021106481552,0
58,100,0.2409090909090909,796,0,55,_Remix_Guitar,6,4,_Remix_Guitar,0.26591646671295166,0
58,100,0.13636363636363635,853,0,55,_Remix_Guitar,6,2,_Remix_Guitar,0.35419169068336487,0
58,100,0.1590909090909091,83,1,56,_Remix_Guitar,6,3,_Remix_Guitar,0.9990057349205017,1
60,100,0.5,141,0,56,_Remix_Guitar,6,8,_Remix_Guitar,0.2312026470899582,0
60,100,0.2818181818181818,431,1,56,_Remix_Guitar,6,5,_Remix_Guitar,0.26591941714286804,0
53,100,0.1,641,0,56,_Remix_Guitar,6,2,_Remix_Guitar,0.35418930649757385,0
58,100,0.22272727272727272,101,1,57,_Remix_Guitar,6,4,_Remix_Guitar,0.9983165264129639,1
55,100,0.1,826,1,57,_Remix_Guitar,6,2,_Remix_Guitar,0.5445555448532104,0
60,100,0.16363636363636364,488,1,58,_Remix_Guitar,6,3,_Remix_Guitar,0.9983165264129639,1
58,100,0.1,581,0,58,_Remix_Guitar,6,2,_Remix_Guitar,0.5445525050163269,0
55,100,0.11818181818181818,625,1,59,_Remix_Guitar,6,2,_Remix_Guitar,0.9983165264129639,1
58,100,0.1409090909090909,770,0,59,_Remix_Guitar,6,2,_Remix_Guitar,0.5445576906204224,0
53,100,0.12272727272727273,584,1,60,_Remix_Guitar,6,2,_Remix_Guitar,0.979256272315979,1
74,100,0.5,726,1,61,_Remix_Guitar,6,8,_Remix_Guitar,0.979255735874176,0
58,100,0.3,96,1,62,_Remix_Guitar,6,5,_Remix_Guitar,0.9990229606628418,1
58,100,0.1409090909090909,364,1,62,_Remix_Guitar,6,2,_Remix_Guitar,0.3666228652000427,0
58,100,0.18181818181818182,738,1,62,_Remix_Guitar,6,3,_Remix_Guitar,0.4532855749130249,0
58,100,0.22272727272727272,136,1,63,_Remix_Guitar,6,4,_Remix_Guitar,0.9990057349205017,1
58,100,0.22272727272727272,233,0,63,_Remix_Guitar,6,4,_Remix_Guitar,0.23120617866516113,0
58,100,0.3181818181818182,616,1,63,_Remix_Guitar,6,5,_Remix_Guitar,0.26591482758522034,0
55,100,0.2,743,0,63,_Remix_Guitar,6,3,_Remix_Guitar,0.35419994592666626,0
58,100,0.21818181818181817,176,1,64,_Remix_Guitar,6,3,_Remix_Guitar,0.9792566299438477,0
58,100,0.4,267,1,65,_Remix_Guitar,6,6,_Remix_Guitar,0.9990229606628418,1
58,100,0.33636363636363636,567,1,65,_Remix_Guitar,6,5,_Remix_Guitar,0.36662304401397705,0
58,100,0.21818181818181817,713,0,65,_Remix_Guitar,6,3,_Remix_Guitar,0.45329469442367554,0
58,100,0.1409090909090909,343,1,66,_Remix_Guitar,6,2,_Remix_Guitar,0.9983165264129639,1
55,100,0.1409090909090909,839,1,66,_Remix_Guitar,6,2,_Remix_Guitar,0.5445528626441956,0
55,100,0.1,303,1,67,_Remix_Guitar,6,2,_Remix_Guitar,0.9988419413566589,1
55,100,0.11818181818181818,360,0,67,_Remix_Guitar,6,2,_Remix_Guitar,0.13724778592586517,0
56,100,0.1409090909090909,422,0,67,_Remix_Guitar,6,2,_Remix_Guitar,0.15977421402931213,0
58,100,0.1409090909090909,550,0,67,_Remix_Guitar,6,2,_Remix_Guitar,0.18644581735134125,0
53,100,0.16363636363636364,839,1,67,_Remix_Guitar,6,3,_Remix_Guitar,0.2581560015678406,0
53,100,0.2,30,1,68,_Remix_Guitar,6,3,_Remix_Guitar,0.9988419413566589,1
58,100,0.3409090909090909,223,0,68,_Remix_Guitar,6,5,_Remix_Guitar,0.13724786043167114,0
58,100,0.3181818181818182,339,0,68,_Remix_Guitar,6,5,_Remix_Guitar,0.15977948904037476,0
58,100,0.3181818181818182,436,0,68,_Remix_Guitar,6,5,_Remix_Guitar,0.18644987046718597,0
58,100,0.3,527,0,68,_Remix_Guitar,6,5,_Remix_Guitar,0.25816279649734497,0
58,100,0.17727272727272728,163,1,69,_Remix_Guitar,6,3,_Remix_Guitar,0.9988419413566589,1
53,100,0.17727272727272728,347,0,69,_Remix_Guitar,6,3,_Remix_Guitar,0.13724730908870697,0
56,100,0.1409090909090909,637,1,69,_Remix_Guitar,6,2,_Remix_Guitar,0.1597725749015808,0
53,100,0.2590909090909091,722,0,69,_Remix_Guitar,6,4,_Remix_Guitar,0.18644769489765167,0
53,100,0.1590909090909091,832,0,69,_Remix_Guitar,6,3,_Remix_Guitar,0.2581614553928375,0
53,100,0.18181818181818182,47,1,70,_Remix_Guitar,6,3,_Remix_Guitar,0.9988419413566589,1
53,100,0.4,127,0,70,_Remix_Guitar,6,6,_Remix_Guitar,0.13724398612976074,0
58,100,0.11818181818181818,417,1,70,_Remix_Guitar,6,2,_Remix_Guitar,0.1597781479358673,0
70,100,0.1590909090909091,470,0,70,_Remix_Guitar,6,3,_Remix_Guitar,0.18644602596759796,0
58,100,0.12272727272727273,783,1,70,_Remix_Guitar,6,2,_Remix_Guitar,0.25816044211387634,0
58,100,0.1,30,1,71,_Remix_Guitar,6,2,_Remix_Guitar,0.9986500144004822,1
58,100,0.1590909090909091,140,0,71,_Remix_Guitar,6,3,_Remix_Guitar,0.0878031998872757,0
58,100,0.3409090909090909,184,0,71,_Remix_Guitar,6,5,_Remix_Guitar,0.09181740134954453,0
58,100,0.12272727272727273,333,0,71,_Remix_Guitar,6,2,_Remix_Guitar,0.1074800193309784,0
56,100,0.1590909090909091,496,0,71,_Remix_Guitar,6,3,_Remix_Guitar,0.12482322752475739,0
58,100,0.12272727272727273,752,1,71,_Remix_Guitar,6,2,_Remix_Guitar,0.17902910709381104,0
58,100,0.18181818181818182,43,1,72,_Remix_Guitar,6,3,_Remix_Guitar,0.9988419413566589,1
58,100,0.1590909090909091,189,0,72,_Remix_Guitar,6,3,_Remix_Guitar,0.13724571466445923,0
58,100,0.1409090909090909,462,1,72,_Remix_Guitar,6,2,_Remix_Guitar,0.15977545082569122,0
58,100,0.1,619,0,72,_Remix_Guitar,6,2,_Remix_Guitar,0.18644310534000397,0
55,100,0.17727272727272728,722,0,72,_Remix_Guitar,6,3,_Remix_Guitar,0.25816085934638977,0
58,100,0.2,0,1,73,_Remix_Guitar,6,3,_Remix_Guitar,0.9988419413566589,1
55,100,0.12272727272727273,365,1,73,_Remix_Guitar,6,2,_Remix_Guitar,0.13724736869335175,0
70,100,0.1590909090909091,493,0,73,_Remix_Guitar,6,3,_Remix_Guitar,0.15978172421455383,0
56,100,0.2,779,1,73,_Remix_Guitar,6,3,_Remix_Guitar,0.18644705414772034,0
56,100,0.1590909090909091,836,0,73,_Remix_Guitar,6,3,_Remix_Guitar,0.2581656873226166,0
58,100,0.2818181818181818,47,1,74,_Remix_Guitar,6,5,_Remix_Guitar,0.9984880685806274,1
58,100,0.2409090909090909,136,0,74,_Remix_Guitar,6,4,_Remix_Guitar,0.06334387511014938,0
58,100,0.1,250,0,74,_Remix_Guitar,6,2,_Remix_Guitar,0.057740289717912674,0
58,100,0.22272727272727272,276,0,74,_Remix_Guitar,6,4,_Remix_Guitar,0.060198888182640076,0
53,100,0.2409090909090909,449,0,74,_Remix_Guitar,6,4,_Remix_Guitar,0.0696968287229538,0
58,100,0.2409090909090909,726,1,74,_Remix_Guitar,6,4,_Remix_Guitar,0.0818893313407898,0
55,100,0.18181818181818182,813,0,74,_Remix_Guitar,6,3,_Remix_Guitar,0.12401583790779114,0
58,100,0.18181818181818182,0,1,75,_Remix_Guitar,6,3,_Remix_Guitar,0.9990057349205017,1
55,100,0.35909090909090907,237,1,75,_Remix_Guitar,6,6,_Remix_Guitar,0.23120802640914917,0
56,100,0.1409090909090909,796,1,75,_Remix_Guitar,6,2,_Remix_Guitar,0.2659226357936859,0
56,100,0.17727272727272728,876,0,75,_Remix_Guitar,6,3,_Remix_Guitar,0.354187935590744,0
58,100,0.2409090909090909,399,1,76,_Remix_Guitar,6,4,_Remix_Guitar,0.9990057349205017,1
58,100,0.12272727272727273,553,0,76,_Remix_Guitar,6,2,_Remix_Guitar,0.23120057582855225,0
58,100,0.22272727272727272,597,0,76,_Remix_Guitar,6,4,_Remix_Guitar,0.2659163773059845,0
55,100,0.17727272727272728,832,1,76,_Remix_Guitar,6,3,_Remix_Guitar,0.3541949689388275,0
58,100,0.1409090909090909,43,1,77,_Remix_Guitar,6,2,_Remix_Guitar,0.9990230798721313,1
63,100,0.23636363636363636,436,1,77,_Remix_Guitar,6,4,_Remix_Guitar,0.36662617325782776,0
63,100,0.3,593,0,77,_Remix_Guitar,6,5,_Remix_Guitar,0.45329394936561584,0
53,100,0.3181818181818182,0,1,78,_Remix_Guitar,6,5,_Remix_Guitar,0.9983736276626587,1
53,100,0.13636363636363635,106,0,78,_Remix_Guitar,6,2,_Remix_Guitar,0.051060713827610016,0
53,100,0.4590909090909091,166,0,78,_Remix_Guitar,6,7,_Remix_Guitar,0.0413019061088562,0
53,100,0.7,343,0,78,_Remix_Guitar,6,11,_Remix_Guitar,0.03738489747047424,0
53,100,0.4818181818181818,619,1,78,_Remix_Guitar,6,8,_Remix_Guitar,0.038327984511852264,0
53,100,0.11818181818181818,770,0,78,_Remix_Guitar,6,2,_Remix_Guitar,0.04474947229027748,0
53,100,0.1,800,0,78,_Remix_Guitar,6,2,_Remix_Guitar,0.05522540211677551,0
53,100,0.11818181818181818,857,0,78,_Remix_Guitar,6,2,_Remix_Guitar,0.09025838226079941,0
58,100,0.12272727272727273,79,1,79,_Remix_Guitar,6,2,_Remix_Guitar,0.9990057349205017,1
58,100,0.1590909090909091,119,0,79,_Remix_Guitar,6,3,_Remix_Guitar,0.23120488226413727,0
63,100,0.7,246,0,79,_Remix_Guitar,6,11,_Remix_Guitar,0.265913188457489,0
53,100,0.35909090909090907,660,1,79,_Remix_Guitar,6,6,_Remix_Guitar,0.35419875383377075,0
53,100,0.2,22,1,80,_Remix_Guitar,6,3,_Remix_Guitar,0.9986500144004822,1
58,100,0.1409090909090909,333,1,80,_Remix_Guitar,6,2,_Remix_Guitar,0.08780216425657272,0
53,100,0.2409090909090909,409,0,80,_Remix_Guitar,6,4,_Remix_Guitar,0.09181059896945953,0
53,100,0.21818181818181817,506,0,80,_Remix_Guitar,6,3,_Remix_Guitar,0.10747332870960236,0
53,100,0.11818181818181818,616,0,80,_Remix_Guitar,6,2,_Remix_Guitar,0.12481650710105896,0
53,100,0.1409090909090909,686,0,80,_Remix_Guitar,6,2,_Remix_Guitar,0.1790236383676529,0
55,100,0.1,800,1,81,_Remix_Guitar,6,2,_Remix_Guitar,0.9792567491531372,1
55,100,0.38181818181818183,166,1,82,_Remix_Guitar,6,6,_Remix_Guitar,0.979256272315979,0
63,100,0.2,13,1,83,_Remix_Guitar,6,3,_Remix_Guitar,0.9983165264129639,1
58,100,0.11818181818181818,792,1,83,_Remix_Guitar,6,2,_Remix_Guitar,0.5445638298988342,0
58,100,0.1409090909090909,823,1,84,_Remix_Guitar,6,2,_Remix_Guitar,0.9983165264129639,1
58,100,0.1590909090909091,857,0,84,_Remix_Guitar,6,3,_Remix_Guitar,0.5445555448532104,0
58,100,0.2772727272727273,216,1,85,_Remix_Guitar,6,4,_Remix_Guitar,0.9990229606628418,1
58,100,0.5,299,0,85,_Remix_Guitar,6,8,_Remix_Guitar,0.3666272759437561,0
56,100,0.2409090909090909,550,1,85,_Remix_Guitar,6,4,_Remix_Guitar,0.4532853662967682,0
58,100,0.17727272727272728,62,1,86,_Remix_Guitar,6,3,_Remix_Guitar,0.9990057349205017,1
53,100,0.42272727272727273,255,0,86,_Remix_Guitar,6,7,_Remix_Guitar,0.23120169341564178,0
53,100,0.1590909090909091,453,0,86,_Remix_Guitar,6,3,_Remix_Guitar,0.26591745018959045,0
55,100,0.2,673,0,86,_Remix_Guitar,6,3,_Remix_Guitar,0.35419490933418274,0
60,100,0.1,289,1,87,_Remix_Guitar,6,2,_Remix_Guitar,0.9986500144004822,1
60,100,0.2,413,0,87,_Remix_Guitar,6,3,_Remix_Guitar,0.08780203014612198,0
60,100,0.18181818181818182,462,0,87,_Remix_Guitar,6,3,_Remix_Guitar,0.09181234985589981,0
60,100,0.2,519,0,87,_Remix_Guitar,6,3,_Remix_Guitar,0.10747553408145905,0
60,100,0.11818181818181818,743,0,87,_Remix_Guitar,6,2,_Remix_Guitar,0.12482426315546036,0
60,100,0.11818181818181818,876,0,87,_Remix_Guitar,6,2,_Remix_Guitar,0.17903339862823486,0
60,100,0.13636363636363635,62,1,88,_Remix_Guitar,6,2,_Remix_Guitar,0.9792566299438477,0
58,100,0.3,179,1,89,_Remix_Guitar,6,5,_Remix_Guitar,0.9792567491531372,0
60,100,0.12272727272727273,145,1,90,_Remix_Guitar,6,2,_Remix_Guitar,0.9990057349205017,1
60,100,0.41818181818181815,193,0,90,_Remix_Guitar,6,7,_Remix_Guitar,0.23119904100894928,0
53,100,0.21818181818181817,470,1,90,_Remix_Guitar,6,3,_Remix_Guitar,0.2659105956554413,0
65,100,0.11818181818181818,787,1,90,_Remix_Guitar,6,2,_Remix_Guitar,0.35419341921806335,0
67,100,0.11818181818181818,184,1,91,_Remix_Guitar,6,2,_Remix_Guitar,0.9792567491531372,0
63,100,0.1590909090909091,339,1,92,_Remix_Guitar,6,3,_Remix_Guitar,0.9990057349205017,1
58,100,0.13636363636363635,567,0,92,_Remix_Guitar,6,2,_Remix_Guitar,0.23120950162410736,0
58,100,0.2590909090909091,637,0,92,_Remix_Guitar,6,4,_Remix_Guitar,0.2659192383289337,0
58,100,0.13636363636363635,700,0,92,_Remix_Guitar,6,2,_Remix_Guitar,0.3542040288448334,0
58,100,0.12272727272727273,466,1,93,_Remix_Guitar,6,2,_Remix_Guitar,0.9983165264129639,1
63,100,0.21818181818181817,523,0,93,_Remix_Guitar,6,3,_Remix_Guitar,0.544553816318512,0
58,100,0.1,17,1,94,_Remix_Guitar,6,2,_Remix_Guitar,0.9988419413566589,1
63,100,0.1590909090909091,176,0,94,_Remix_Guitar,6,3,_Remix_Guitar,0.13724492490291595,0
63,100,0.3181818181818182,216,0,94,_Remix_Guitar,6,5,_Remix_Guitar,0.15978126227855682,0
53,100,0.1,289,0,94,_Remix_Guitar,6,2,_Remix_Guitar,0.18645106256008148,0
53,100,0.3409090909090909,660,1,94,_Remix_Guitar,6,5,_Remix_Guitar,0.25816982984542847,0
58,100,0.4772727272727273,83,1,95,_Remix_Guitar,6,8,_Remix_Guitar,0.9990057349205017,1
58,100,0.17727272727272728,206,0,95,_Remix_Guitar,6,3,_Remix_Guitar,0.2312062829732895,0
53,100,0.1,303,0,95,_Remix_Guitar,6,2,_Remix_Guitar,0.2659178376197815,0
63,100,0.4772727272727273,624,1,95,_Remix_Guitar,6,8,_Remix_Guitar,0.35419273376464844,0
67,100,0.2818181818181818,506,1,96,_Remix_Guitar,6,5,_Remix_Guitar,0.9792566299438477,0
53,100,0.2818181818181818,166,1,97,_Remix_Guitar,6,5,_Remix_Guitar,0.9990057349205017,1
58,100,0.23636363636363636,480,1,97,_Remix_Guitar,6,4,_Remix_Guitar,0.2312120795249939,0
63,100,0.2,550,0,97,_Remix_Guitar,6,3,_Remix_Guitar,0.2659212648868561,0
63,100,0.759090909090909,716,0,97,_Remix_Guitar,6,12,_Remix_Guitar,0.35419780015945435,0
58,100,0.13636363636363635,83,1,98,_Remix_Guitar,6,2,_Remix_Guitar,0.9990230798721313,1
63,100,0.1409090909090909,443,1,98,_Remix_Guitar,6,2,_Remix_Guitar,0.36662426590919495,0
63,100,0.2,876,1,98,_Remix_Guitar,6,3,_Remix_Guitar,0.4532899260520935,0
53,100,0.21818181818181817,96,1,99,_Remix_Guitar,6,3,_Remix_Guitar,0.9983736276626587,1
63,100,0.23636363636363636,150,0,99,_Remix_Guitar,6,4,_Remix_Guitar,0.05106025189161301,0
53,100,0.33636363636363636,216,0,99,_Remix_Guitar,6,5,_Remix_Guitar,0.041302528232336044,0
53,100,0.2409090909090909,333,0,99,_Remix_Guitar,6,4,_Remix_Guitar,0.03738372027873993,0
53,100,0.1590909090909091,449,0,99,_Remix_Guitar,6,3,_Remix_Guitar,0.03832751885056496,0
53,100,0.17727272727272728,502,0,99,_Remix_Guitar,6,3,_Remix_Guitar,0.04474886134266853,0
58,100,0.6227272727272727,695,0,99,_Remix_Guitar,6,10,_Remix_Guitar,0.0552273690700531,0
53,100,0.42272727272727273,870,0,99,_Remix_Guitar,6,7,_Remix_Guitar,0.09026014059782028,0
58,100,0.3409090909090909,179,1,100,_Remix_Guitar,6,5,_Remix_Guitar,0.9990230798721313,1
58,100,0.1409090909090909,365,0,100,_Remix_Guitar,6,2,_Remix_Guitar,0.36661675572395325,0
53,100,0.3,470,0,100,_Remix_Guitar,6,5,_Remix_Guitar,0.453283429145813,0
58,100,0.12272727272727273,540,1,101,_Remix_Guitar,6,2,_Remix_Guitar,0.9990230798721313,1
67,100,0.2772727272727273,612,0,101,_Remix_Guitar,6,4,_Remix_Guitar,0.36661696434020996,0
58,100,0.1590909090909091,703,0,101,_Remix_Guitar,6,3,_Remix_Guitar,0.45328763127326965,0
53,100,0.18181818181818182,532,1,103,_Remix_Guitar,6,3,_Remix_Guitar,0.9983164072036743,1
62,100,1.018181818181818,722,0,103,_Remix_Guitar,6,15,_Remix_Guitar,0.5445583462715149,0
63,100,0.1409090909090909,197,1,104,_Remix_Guitar,6,2,_Remix_Guitar,0.9990057349205017,1
58,100,1.3772727272727272,360,0,104,_Remix_Guitar,6,15,_Remix_Guitar,0.23120450973510742,0
58,100,0.11818181818181818,669,1,104,_Remix_Guitar,6,2,_Remix_Guitar,0.2659355401992798,0
58,100,1.459090909090909,703,0,104,_Remix_Guitar,6,15,_Remix_Guitar,0.3541887104511261,0
56,100,0.21818181818181817,567,1,105,_Remix_Guitar,6,3,_Remix_Guitar,0.9983165264129639,1
62,100,0.1409090909090909,695,0,105,_Remix_Guitar,6,2,_Remix_Guitar,0.5445634126663208,0
58,100,0.1590909090909091,826,1,107,_Remix_Guitar,6,3,_Remix_Guitar,0.9792561531066895,0
63,100,0.3,260,1,108,_Remix_Guitar,6,5,_Remix_Guitar,0.9990229606628418,1
58,100,0.5,343,0,108,_Remix_Guitar,6,8,_Remix_Guitar,0.3666302561759949,0
58,100,1.3772727272727272,633,1,108,_Remix_Guitar,6,15,_Remix_Guitar,0.45329251885414124,0
63,100,0.4,713,1,109,_Remix_Guitar,6,6,_Remix_Guitar,0.9983165264129639,1
63,100,0.21818181818181817,832,0,109,_Remix_Guitar,6,3,_Remix_Guitar,0.544563353061676,0
58,100,0.12272727272727273,47,1,110,_Remix_Guitar,6,2,_Remix_Guitar,0.9986500144004822,1
70,100,0.4636363636363636,92,0,110,_Remix_Guitar,6,7,_Remix_Guitar,0.08780448883771896,0
58,100,0.13636363636363635,260,0,110,_Remix_Guitar,6,2,_Remix_Guitar,0.09181474149227142,0
63,100,0.759090909090909,506,1,110,_Remix_Guitar,6,12,_Remix_Guitar,0.10747498273849487,0
58,100,0.3,695,0,110,_Remix_Guitar,6,5,_Remix_Guitar,0.12482983618974686,0
63,100,0.21818181818181817,792,0,110,_Remix_Guitar,6,3,_Remix_Guitar,0.17903056740760803,0
63,100,0.2,92,1,111,_Remix_Guitar,6,3,_Remix_Guitar,0.9988419413566589,1
58,100,0.1,179,0,111,_Remix_Guitar,6,2,_Remix_Guitar,0.1372525542974472,0
63,100,0.13636363636363635,237,0,111,_Remix_Guitar,6,2,_Remix_Guitar,0.15977910161018372,0
63,100,0.2818181818181818,377,0,111,_Remix_Guitar,6,5,_Remix_Guitar,0.1864563673734665,0
63,100,0.42272727272727273,443,0,111,_Remix_Guitar,6,7,_Remix_Guitar,0.2581770420074463,0
63,100,0.7227272727272728,443,1,112,_Remix_Guitar,6,12,_Remix_Guitar,0.9990229606628418,1
62,100,0.1409090909090909,616,0,112,_Remix_Guitar,6,2,_Remix_Guitar,0.3666255474090576,0
58,100,0.2818181818181818,770,0,112,_Remix_Guitar,6,5,_Remix_Guitar,0.4533030092716217,0
60,100,0.7818181818181819,839,1,113,_Remix_Guitar,6,13,_Remix_Guitar,0.9792561531066895,0
58,100,0.2,157,1,114,_Remix_Guitar,6,3,_Remix_Guitar,0.9984880685806274,1
63,100,0.3409090909090909,206,0,114,_Remix_Guitar,6,5,_Remix_Guitar,0.06334520876407623,0
63,100,0.4,312,0,114,_Remix_Guitar,6,6,_Remix_Guitar,0.05774266645312309,0
70,100,0.1409090909090909,443,0,114,_Remix_Guitar,6,2,_Remix_Guitar,0.06020598113536835,0
58,100,0.4,593,0,114,_Remix_Guitar,6,6,_Remix_Guitar,0.06970507651567459,0
63,100,0.6,686,0,114,_Remix_Guitar,6,10,_Remix_Guitar,0.08189697563648224,0
58,100,0.4590909090909091,826,0,114,_Remix_Guitar,6,7,_Remix_Guitar,0.12402869015932083,0
63,100,0.6,294,1,115,_Remix_Guitar,6,10,_Remix_Guitar,0.9986500144004822,1
63,100,0.3,449,0,115,_Remix_Guitar,6,5,_Remix_Guitar,0.08780663460493088,0
55,100,0.4818181818181818,540,0,115,_Remix_Guitar,6,8,_Remix_Guitar,0.0918169617652893,0
58,100,0.11818181818181818,656,0,115,_Remix_Guitar,6,2,_Remix_Guitar,0.1074824407696724,0
58,100,0.4,686,0,115,_Remix_Guitar,6,6,_Remix_Guitar,0.12482928484678268,0
63,100,0.4409090909090909,792,0,115,_Remix_Guitar,6,7,_Remix_Guitar,0.17903606593608856,0
58,100,0.43636363636363634,17,1,116,_Remix_Guitar,6,7,_Remix_Guitar,0.9983737468719482,1
60,100,0.6227272727272727,123,0,116,_Remix_Guitar,6,10,_Remix_Guitar,0.051060549914836884,0
58,100,0.4590909090909091,263,0,116,_Remix_Guitar,6,7,_Remix_Guitar,0.04130295291543007,0
63,100,0.5590909090909091,370,0,116,_Remix_Guitar,6,9,_Remix_Guitar,0.03738649562001228,0
63,100,0.23636363636363636,546,0,116,_Remix_Guitar,6,4,_Remix_Guitar,0.0383295938372612,0
58,100,0.5409090909090909,606,0,116,_Remix_Guitar,6,9,_Remix_Guitar,0.0447530671954155,0
58,100,0.4,760,0,116,_Remix_Guitar,6,6,_Remix_Guitar,0.05522967875003815,0
65,100,0.4409090909090909,866,0,116,_Remix_Guitar,6,7,_Remix_Guitar,0.09026423841714859,0
62,100,0.5181818181818182,87,1,117,_Remix_Guitar,6,8,_Remix_Guitar,0.9988419413566589,1
55,100,0.4,242,0,117,_Remix_Guitar,6,6,_Remix_Guitar,0.13724996149539948,0
63,100,1.059090909090909,453,0,117,_Remix_Guitar,6,15,_Remix_Guitar,0.15977662801742554,0
55,100,0.4818181818181818,703,1,117,_Remix_Guitar,6,8,_Remix_Guitar,0.1864517480134964,0
58,100,0.4772727272727273,823,0,117,_Remix_Guitar,6,8,_Remix_Guitar,0.2581678628921509,0
63,100,0.4409090909090909,69,1,118,_Remix_Guitar,6,7,_Remix_Guitar,0.9983003735542297,1
58,100,0.5181818181818182,176,0,118,_Remix_Guitar,6,8,_Remix_Guitar,0.04466536268591881,0
53,100,0.1590909090909091,303,0,118,_Remix_Guitar,6,3,_Remix_Guitar,0.03315011039376259,0
53,100,0.3,343,0,118,_Remix_Guitar,6,5,_Remix_Guitar,0.026580089703202248,0
58,100,0.41818181818181815,417,0,118,_Remix_Guitar,6,7,_Remix_Guitar,0.023595646023750305,0
62,100,0.5818181818181818,527,0,118,_Remix_Guitar,6,9,_Remix_Guitar,0.02431458793580532,0
58,100,0.1409090909090909,663,0,118,_Remix_Guitar,6,2,_Remix_Guitar,0.029691150411963463,0
62,100,0.2636363636363636,707,0,118,_Remix_Guitar,6,4,_Remix_Guitar,0.04007798433303833,0
63,100,0.1,857,0,118,_Remix_Guitar,6,2,_Remix_Guitar,0.07092919200658798,0
58,100,0.11818181818181818,17,1,119,_Remix_Guitar,6,2,_Remix_Guitar,0.9983737468719482,1
63,100,0.7,119,0,119,_Remix_Guitar,6,11,_Remix_Guitar,0.05106094479560852,0
63,100,0.11818181818181818,326,0,119,_Remix_Guitar,6,2,_Remix_Guitar,0.04130362346768379,0
55,100,0.4409090909090909,396,0,119,_Remix_Guitar,6,7,_Remix_Guitar,0.037386972457170486,0
58,100,0.4590909090909091,502,0,119,_Remix_Guitar,6,7,_Remix_Guitar,0.03833037614822388,0
63,100,0.5772727272727273,612,0,119,_Remix_Guitar,6,9,_Remix_Guitar,0.04475114122033119,0
58,100,0.41818181818181815,743,0,119,_Remix_Guitar,6,7,_Remix_Guitar,0.055231500416994095,0
55,100,0.4409090909090909,866,0,119,_Remix_Guitar,6,7,_Remix_Guitar,0.09026564657688141,0
63,100,0.5,216,1,120,_Remix_Guitar,6,8,_Remix_Guitar,0.9986500144004822,1
58,100,0.5,330,0,120,_Remix_Guitar,6,8,_Remix_Guitar,0.08780789375305176,0
56,100,0.2409090909090909,466,0,120,_Remix_Guitar,6,4,_Remix_Guitar,0.0918198674917221,0
56,100,0.7,523,0,120,_Remix_Guitar,6,11,_Remix_Guitar,0.10748185217380524,0
63,100,0.5409090909090909,695,0,120,_Remix_Guitar,6,9,_Remix_Guitar,0.12483838200569153,0
58,100,0.4,826,0,120,_Remix_Guitar,6,6,_Remix_Guitar,0.17904682457447052,0
56,100,0.5181818181818182,53,1,121,_Remix_Guitar,6,8,_Remix_Guitar,0.9983736276626587,1
58,100,0.2,176,0,121,_Remix_Guitar,6,3,_Remix_Guitar,0.05106189474463463,0
58,100,0.3,223,0,121,_Remix_Guitar,6,5,_Remix_Guitar,0.04130348190665245,0
58,100,0.3,436,0,121,_Remix_Guitar,6,5,_Remix_Guitar,0.0373874194920063,0
56,100,0.3409090909090909,585,0,121,_Remix_Guitar,6,5,_Remix_Guitar,0.038330595940351486,0
56,100,0.1590909090909091,734,0,121,_Remix_Guitar,6,3,_Remix_Guitar,0.044753383845090866,0
56,100,0.2,810,0,121,_Remix_Guitar,6,3,_Remix_Guitar,0.05523194745182991,0
56,100,0.1409090909090909,857,0,121,_Remix_Guitar,6,2,_Remix_Guitar,0.09026654809713364,0
58,100,0.3,43,1,122,_Remix_Guitar,6,5,_Remix_Guitar,0.9983004927635193,1
56,100,0.1,136,0,122,_Remix_Guitar,6,2,_Remix_Guitar,0.04466312751173973,0
55,100,0.2,193,0,122,_Remix_Guitar,6,3,_Remix_Guitar,0.03314967826008797,0
58,100,0.1409090909090909,255,0,122,_Remix_Guitar,6,2,_Remix_Guitar,0.026579909026622772,0
58,100,0.3409090909090909,289,0,122,_Remix_Guitar,6,5,_Remix_Guitar,0.02359425090253353,0
63,100,0.5227272727272727,377,0,122,_Remix_Guitar,6,8,_Remix_Guitar,0.02431390807032585,0
58,100,0.43636363636363634,502,0,122,_Remix_Guitar,6,7,_Remix_Guitar,0.02968984842300415,0
58,100,1.018181818181818,624,0,122,_Remix_Guitar,6,15,_Remix_Guitar,0.04007739946246147,0
63,100,0.5590909090909091,849,0,122,_Remix_Guitar,6,9,_Remix_Guitar,0.07092980295419693,0
62,100,0.6227272727272727,92,1,123,_Remix_Guitar,6,10,_Remix_Guitar,0.9988419413566589,1
62,100,0.4,255,0,123,_Remix_Guitar,6,6,_Remix_Guitar,0.137247696518898,0
62,100,0.11818181818181818,370,0,123,_Remix_Guitar,6,2,_Remix_Guitar,0.1597789227962494,0
58,100,0.1,593,0,123,_Remix_Guitar,6,2,_Remix_Guitar,0.18645206093788147,0
58,100,0.2772727272727273,823,0,123,_Remix_Guitar,6,4,_Remix_Guitar,0.2581760585308075,0
58,100,0.18181818181818182,66,1,125,_Remix_Guitar,6,3,_Remix_Guitar,0.9986500144004822,1
58,100,0.3181818181818182,172,0,125,_Remix_Guitar,6,5,_Remix_Guitar,0.0878027081489563,0
58,100,0.1,333,0,125,_Remix_Guitar,6,2,_Remix_Guitar,0.09181123971939087,0
70,100,0.3,360,0,125,_Remix_Guitar,6,5,_Remix_Guitar,0.10747509449720383,0
63,100,0.2772727272727273,502,0,125,_Remix_Guitar,6,4,_Remix_Guitar,0.12482181191444397,0
58,100,0.1409090909090909,817,1,125,_Remix_Guitar,6,2,_Remix_Guitar,0.17903132736682892,0
70,100,0.33636363636363636,17,1,126,_Remix_Guitar,6,5,_Remix_Guitar,0.9984880685806274,1
70,100,0.2,132,0,126,_Remix_Guitar,6,3,_Remix_Guitar,0.06334543228149414,0
70,100,0.1,210,0,126,_Remix_Guitar,6,2,_Remix_Guitar,0.057742808014154434,0
70,100,0.2,282,0,126,_Remix_Guitar,6,3,_Remix_Guitar,0.0602012574672699,0
70,100,0.5,356,0,126,_Remix_Guitar,6,8,_Remix_Guitar,0.06970204412937164,0
62,100,0.17727272727272728,779,1,126,_Remix_Guitar,6,3,_Remix_Guitar,0.08189386129379272,0
62,100,0.2,876,0,126,_Remix_Guitar,6,3,_Remix_Guitar,0.12402370572090149,0
63,100,0.41818181818181815,316,1,127,_Remix_Guitar,6,7,_Remix_Guitar,0.9983164072036743,1
70,100,0.2590909090909091,519,0,127,_Remix_Guitar,6,4,_Remix_Guitar,0.5445649027824402,0
70,100,0.5590909090909091,128,1,128,_Remix_Guitar,6,9,_Remix_Guitar,0.9986500144004822,1
58,100,0.2409090909090909,264,0,128,_Remix_Guitar,6,4,_Remix_Guitar,0.08780371397733688,0
70,100,0.5409090909090909,427,0,128,_Remix_Guitar,6,9,_Remix_Guitar,0.09181458503007889,0
70,100,0.11818181818181818,603,0,128,_Remix_Guitar,6,2,_Remix_Guitar,0.1074766218662262,0
58,100,0.33636363636363636,633,0,128,_Remix_Guitar,6,5,_Remix_Guitar,0.12482612580060959,0
62,100,0.7227272727272728,773,0,128,_Remix_Guitar,6,12,_Remix_Guitar,0.17902788519859314,0
65,100,0.1,185,1,129,_Remix_Guitar,6,2,_Remix_Guitar,0.9984880685806274,1
70,100,0.2818181818181818,211,0,129,_Remix_Guitar,6,5,_Remix_Guitar,0.06334459781646729,0
65,100,0.1590909090909091,276,0,129,_Remix_Guitar,6,3,_Remix_Guitar,0.057741839438676834,0
70,100,0.1409090909090909,311,0,129,_Remix_Guitar,6,2,_Remix_Guitar,0.06020328402519226,0
70,100,1.1,356,0,129,_Remix_Guitar,6,15,_Remix_Guitar,0.06970053166151047,0
58,100,0.1590909090909091,611,1,129,_Remix_Guitar,6,3,_Remix_Guitar,0.08189444988965988,0
58,100,0.1,778,0,129,_Remix_Guitar,6,2,_Remix_Guitar,0.12401910871267319,0
70,100,0.1,12,1,130,_Remix_Guitar,6,2,_Remix_Guitar,0.9984880685806274,1
58,100,0.2,242,0,130,_Remix_Guitar,6,3,_Remix_Guitar,0.06334401667118073,0
58,100,0.1,452,0,130,_Remix_Guitar,6,2,_Remix_Guitar,0.05774014815688133,0
60,100,0.17727272727272728,501,0,130,_Remix_Guitar,6,3,_Remix_Guitar,0.06019902601838112,0
58,100,0.3,606,0,130,_Remix_Guitar,6,5,_Remix_Guitar,0.06969955563545227,0
70,100,0.1,690,0,130,_Remix_Guitar,6,2,_Remix_Guitar,0.0818890929222107,0
58,100,0.2636363636363636,818,0,130,_Remix_Guitar,6,4,_Remix_Guitar,0.12401950359344482,0
63,100,0.1,158,1,131,_Remix_Guitar,6,2,_Remix_Guitar,0.9983003735542297,1
63,100,0.1409090909090909,211,0,131,_Remix_Guitar,6,2,_Remix_Guitar,0.04466375708580017,0
58,100,0.17727272727272728,250,0,131,_Remix_Guitar,6,3,_Remix_Guitar,0.03315143659710884,0
58,100,0.35909090909090907,364,0,131,_Remix_Guitar,6,6,_Remix_Guitar,0.026580212637782097,0
70,100,0.12272727272727273,466,0,131,_Remix_Guitar,6,2,_Remix_Guitar,0.023595957085490227,0
70,100,0.7818181818181819,496,0,131,_Remix_Guitar,6,13,_Remix_Guitar,0.02431403286755085,0
70,100,0.2,747,1,131,_Remix_Guitar,6,3,_Remix_Guitar,0.02969018928706646,0
70,100,0.18181818181818182,814,0,131,_Remix_Guitar,6,3,_Remix_Guitar,0.04007675498723984,0
65,100,0.1409090909090909,861,0,131,_Remix_Guitar,6,2,_Remix_Guitar,0.07092921435832977,0
70,100,0.3409090909090909,140,1,132,_Remix_Guitar,6,5,_Remix_Guitar,0.9990229606628418,1
70,100,0.18181818181818182,220,0,132,_Remix_Guitar,6,3,_Remix_Guitar,0.36662253737449646,0
70,100,0.11818181818181818,264,0,132,_Remix_Guitar,6,2,_Remix_Guitar,0.45328131318092346,0
58,100,0.3,83,1,133,_Remix_Guitar,6,5,_Remix_Guitar,0.9990057349205017,1
58,100,0.1,189,0,133,_Remix_Guitar,6,2,_Remix_Guitar,0.23119860887527466,0
58,100,0.18181818181818182,400,0,133,_Remix_Guitar,6,3,_Remix_Guitar,0.2659164369106293,0
70,100,0.12272727272727273,553,0,133,_Remix_Guitar,6,2,_Remix_Guitar,0.3541945219039917,0
60,100,0.11818181818181818,140,1,134,_Remix_Guitar,6,2,_Remix_Guitar,0.9983165264129639,1
63,100,1.2,611,1,134,_Remix_Guitar,6,15,_Remix_Guitar,0.5445454120635986,0
63,100,0.4818181818181818,0,1,135,_Remix_Guitar,6,8,_Remix_Guitar,0.9990057349205017,1
70,100,0.1,268,1,135,_Remix_Guitar,6,2,_Remix_Guitar,0.2312023937702179,0
70,100,0.18181818181818182,598,1,135,_Remix_Guitar,6,3,_Remix_Guitar,0.2659204304218292,0
58,100,0.17727272727272728,656,0,135,_Remix_Guitar,6,3,_Remix_Guitar,0.3541957437992096,0
58,100,0.11818181818181818,18,1,136,_Remix_Guitar,6,2,_Remix_Guitar,0.9983736276626587,1
58,100,0.2,122,0,136,_Remix_Guitar,6,3,_Remix_Guitar,0.051059696823358536,0
70,100,0.3181818181818182,238,0,136,_Remix_Guitar,6,5,_Remix_Guitar,0.041301678866147995,0
63,100,0.18181818181818182,421,0,136,_Remix_Guitar,6,3,_Remix_Guitar,0.03738433122634888,0
58,100,0.11818181818181818,493,0,136,_Remix_Guitar,6,2,_Remix_Guitar,0.0383288599550724,0
58,100,0.4409090909090909,541,0,136,_Remix_Guitar,6,7,_Remix_Guitar,0.04475048929452896,0
63,100,0.1409090909090909,682,0,136,_Remix_Guitar,6,2,_Remix_Guitar,0.055228091776371,0
63,100,0.1590909090909091,721,0,136,_Remix_Guitar,6,3,_Remix_Guitar,0.09026481956243515,0
58,100,0.1409090909090909,166,1,137,_Remix_Guitar,6,2,_Remix_Guitar,0.9990057349205017,1
58,100,0.1,378,0,137,_Remix_Guitar,6,2,_Remix_Guitar,0.2312021106481552,0
58,100,0.7818181818181819,553,0,137,_Remix_Guitar,6,13,_Remix_Guitar,0.26591965556144714,0
63,100,0.21818181818181817,747,0,137,_Remix_Guitar,6,3,_Remix_Guitar,0.35419031977653503,0
58,100,0.18181818181818182,3,1,138,_Remix_Guitar,6,3,_Remix_Guitar,0.9990229606628418,1
58,100,0.6409090909090909,185,0,138,_Remix_Guitar,6,10,_Remix_Guitar,0.3666212260723114,0
63,100,0.1409090909090909,409,0,138,_Remix_Guitar,6,2,_Remix_Guitar,0.45328497886657715,0
58,100,0.1409090909090909,307,1,139,_Remix_Guitar,6,2,_Remix_Guitar,0.9990230798721313,1
70,100,0.1,369,0,139,_Remix_Guitar,6,2,_Remix_Guitar,0.3666260540485382,0
70,100,0.1,831,1,139,_Remix_Guitar,6,2,_Remix_Guitar,0.45328742265701294,0
58,100,0.2,739,1,140,_Remix_Guitar,6,3,_Remix_Guitar,0.9983165264129639,1
58,100,0.41818181818181815,800,0,140,_Remix_Guitar,6,7,_Remix_Guitar,0.5445569753646851,0
58,100,0.2409090909090909,158,1,141,_Remix_Guitar,6,4,_Remix_Guitar,0.9792568683624268,0
58,100,0.1,30,1,142,_Remix_Guitar,6,2,_Remix_Guitar,0.9986500144004822,1
58,100,0.2590909090909091,110,0,142,_Remix_Guitar,6,4,_Remix_Guitar,0.08780276775360107,0
58,100,0.2409090909090909,223,0,142,_Remix_Guitar,6,4,_Remix_Guitar,0.0918145403265953,0
63,100,0.1,496,1,142,_Remix_Guitar,6,2,_Remix_Guitar,0.10747500509023666,0
63,100,0.12272727272727273,576,0,142,_Remix_Guitar,6,2,_Remix_Guitar,0.12482772767543793,0
63,100,0.1,792,0,142,_Remix_Guitar,6,2,_Remix_Guitar,0.17902961373329163,0
58,100,0.17727272727272728,18,1,143,_Remix_Guitar,6,3,_Remix_Guitar,0.9990057349205017,1
58,100,0.17727272727272728,140,0,143,_Remix_Guitar,6,3,_Remix_Guitar,0.2312019020318985,0
58,100,0.2,326,0,143,_Remix_Guitar,6,3,_Remix_Guitar,0.265915185213089,0
58,100,0.17727272727272728,436,0,143,_Remix_Guitar,6,3,_Remix_Guitar,0.35419121384620667,0
63,100,0.2,338,1,144,_Remix_Guitar,6,3,_Remix_Guitar,0.9986500144004822,1
70,100,0.1590909090909091,409,0,144,_Remix_Guitar,6,3,_Remix_Guitar,0.0878043845295906,0
58,100,0.2,505,0,144,_Remix_Guitar,6,3,_Remix_Guitar,0.09181314706802368,0
58,100,0.1409090909090909,594,0,144,_Remix_Guitar,6,2,_Remix_Guitar,0.10747870802879333,0
58,100,0.3409090909090909,735,0,144,_Remix_Guitar,6,5,_Remix_Guitar,0.12482304871082306,0
58,100,0.2818181818181818,826,0,144,_Remix_Guitar,6,5,_Remix_Guitar,0.17903035879135132,0
70,100,0.12272727272727273,553,1,145,_Remix_Guitar,6,2,_Remix_Guitar,0.9983165264129639,1
58,100,0.11818181818181818,704,0,145,_Remix_Guitar,6,2,_Remix_Guitar,0.5445582866668701,0
70,100,0.1,405,1,146,_Remix_Guitar,6,2,_Remix_Guitar,0.9990230798721313,1
58,100,0.2409090909090909,431,0,146,_Remix_Guitar,6,4,_Remix_Guitar,0.3666225075721741,0
58,100,0.2772727272727273,537,0,146,_Remix_Guitar,6,4,_Remix_Guitar,0.45328664779663086,0
64,100,0.3409090909090909,79,1,0,_Remastered_Guitar,6,5,_Remastered_Guitar,0.9983003735542297,1
66,100,0.2636363636363636,158,0,0,_Remastered_Guitar,6,4,_Remastered_Guitar,0.04466450959444046,0
69,100,0.23636363636363636,238,0,0,_Remastered_Guitar,6,4,_Remastered_Guitar,0.033148977905511856,0
73,100,0.22272727272727272,299,0,0,_Remastered_Guitar,6,4,_Remastered_Guitar,0.026579514145851135,0
71,100,0.22272727272727272,356,0,0,_Remastered_Guitar,6,4,_Remastered_Guitar,0.023594729602336884,0
73,100,0.6363636363636364,414,0,0,_Remastered_Guitar,6,10,_Remastered_Guitar,0.024314414709806442,0
71,100,0.8227272727272728,563,0,0,_Remastered_Guitar,6,13,_Remastered_Guitar,0.029689516872167587,0
71,100,0.1,757,0,0,_Remastered_Guitar,6,2,_Remastered_Guitar,0.04007904604077339,0
73,100,1.018181818181818,792,0,0,_Remastered_Guitar,6,15,_Remastered_Guitar,0.07092870771884918,0
71,100,1.0818181818181818,157,1,1,_Remastered_Guitar,6,15,_Remastered_Guitar,0.9983003735542297,1
69,100,0.2590909090909091,414,1,1,_Remastered_Guitar,6,4,_Remastered_Guitar,0.0446639209985733,0
71,100,0.41818181818181815,470,0,1,_Remastered_Guitar,6,7,_Remastered_Guitar,0.033149830996990204,0
72,100,0.1,563,0,1,_Remastered_Guitar,6,2,_Remastered_Guitar,0.02657969295978546,0
73,100,0.35909090909090907,585,0,1,_Remastered_Guitar,6,6,_Remastered_Guitar,0.023594669997692108,0
71,100,0.17727272727272728,669,0,1,_Remastered_Guitar,6,3,_Remastered_Guitar,0.02431461773812771,0
73,100,0.1,707,0,1,_Remastered_Guitar,6,2,_Remastered_Guitar,0.029689116403460503,0
71,100,0.2590909090909091,744,0,1,_Remastered_Guitar,6,4,_Remastered_Guitar,0.04007826745510101,0
69,100,0.5227272727272727,817,0,1,_Remastered_Guitar,6,8,_Remastered_Guitar,0.07092902064323425,0
66,100,2.359090909090909,61,1,2,_Remastered_Guitar,6,15,_Remastered_Guitar,0.9988419413566589,1
64,100,0.2772727272727273,590,1,2,_Remastered_Guitar,6,4,_Remastered_Guitar,0.1372469663619995,0
66,100,0.2590909090909091,660,0,2,_Remastered_Guitar,6,4,_Remastered_Guitar,0.1597740799188614,0
71,100,0.18181818181818182,726,0,2,_Remastered_Guitar,6,3,_Remastered_Guitar,0.18644177913665771,0
73,100,0.6227272727272727,782,0,2,_Remastered_Guitar,6,10,_Remastered_Guitar,0.2581566870212555,0
71,100,1.040909090909091,43,1,3,_Remastered_Guitar,6,15,_Remastered_Guitar,0.9988420605659485,1
73,100,0.9636363636363636,290,1,3,_Remastered_Guitar,6,15,_Remastered_Guitar,0.13725750148296356,0
71,100,0.5181818181818182,528,1,3,_Remastered_Guitar,6,8,_Remastered_Guitar,0.15980017185211182,0
69,100,0.5409090909090909,651,0,3,_Remastered_Guitar,6,9,_Remastered_Guitar,0.1864851862192154,0
69,100,4.463636363636364,796,0,3,_Remastered_Guitar,6,15,_Remastered_Guitar,0.25812000036239624,0
69,100,1.4181818181818182,30,1,5,_Remastered_Guitar,6,15,_Remastered_Guitar,0.9983164072036743,1
69,100,0.1,399,1,5,_Remastered_Guitar,6,2,_Remastered_Guitar,0.5445625185966492,0
66,100,0.16363636363636364,839,1,50,_Remastered_Guitar,6,3,_Remastered_Guitar,0.9792565107345581,0
64,100,0.36363636363636365,4,1,51,_Remastered_Guitar,6,6,_Remastered_Guitar,0.9982276558876038,1
66,100,0.23636363636363636,83,0,51,_Remastered_Guitar,6,4,_Remastered_Guitar,0.03939790651202202,0
69,100,0.32272727272727275,136,0,51,_Remastered_Guitar,6,5,_Remastered_Guitar,0.026672685518860817,0
73,100,0.2772727272727273,206,0,51,_Remastered_Guitar,6,4,_Remastered_Guitar,0.018587933853268623,0
71,100,0.2,268,0,51,_Remastered_Guitar,6,3,_Remastered_Guitar,0.013413947075605392,0
73,100,0.35909090909090907,330,0,51,_Remastered_Guitar,6,6,_Remastered_Guitar,0.010586968623101711,0
69,100,0.2590909090909091,408,0,51,_Remastered_Guitar,6,4,_Remastered_Guitar,0.009839908219873905,0
71,100,0.2818181818181818,466,0,51,_Remastered_Guitar,6,5,_Remastered_Guitar,0.01141735352575779,0
73,100,0.3181818181818182,528,0,51,_Remastered_Guitar,6,5,_Remastered_Guitar,0.016511861234903336,0
71,100,0.18181818181818182,664,0,51,_Remastered_Guitar,6,3,_Remastered_Guitar,0.0268192607909441,0
73,100,0.9363636363636364,721,0,51,_Remastered_Guitar,6,15,_Remastered_Guitar,0.053914256393909454,0
72,100,0.12272727272727273,48,1,52,_Remastered_Guitar,6,2,_Remastered_Guitar,0.9990230798721313,1
71,100,0.5409090909090909,75,0,52,_Remastered_Guitar,6,9,_Remastered_Guitar,0.36673295497894287,0
69,100,5.636363636363637,193,0,52,_Remastered_Guitar,6,15,_Remastered_Guitar,0.4531678855419159,0
57,100,0.3409090909090909,751,1,60,_Remastered_Guitar,6,5,_Remastered_Guitar,0.9983165264129639,1
54,100,0.2,836,0,60,_Remastered_Guitar,6,3,_Remastered_Guitar,0.5445619821548462,0
71,100,0.22272727272727272,4,1,61,_Remastered_Guitar,6,4,_Remastered_Guitar,0.9983736276626587,1
73,100,0.6181818181818182,61,0,61,_Remastered_Guitar,6,10,_Remastered_Guitar,0.05105986073613167,0
71,100,0.3409090909090909,201,0,61,_Remastered_Guitar,6,5,_Remastered_Guitar,0.04130390286445618,0
73,100,0.41818181818181815,281,0,61,_Remastered_Guitar,6,7,_Remastered_Guitar,0.03738489747047424,0
71,100,0.21818181818181817,391,0,61,_Remastered_Guitar,6,3,_Remastered_Guitar,0.038330093026161194,0
73,100,0.9590909090909091,453,0,61,_Remastered_Guitar,6,15,_Remastered_Guitar,0.044751375913619995,0
71,100,0.5,691,1,61,_Remastered_Guitar,6,8,_Remastered_Guitar,0.05523308739066124,0
69,100,1.5,804,0,61,_Remastered_Guitar,6,15,_Remastered_Guitar,0.09026335179805756,0
69,100,2.640909090909091,295,1,62,_Remastered_Guitar,6,15,_Remastered_Guitar,0.9792537689208984,0
69,100,0.3409090909090909,114,1,63,_Remastered_Guitar,6,5,_Remastered_Guitar,0.9792565107345581,0
64,100,0.3409090909090909,56,1,97,_Remastered_Guitar,6,5,_Remastered_Guitar,0.9982553124427795,1
66,100,0.2590909090909091,132,0,97,_Remastered_Guitar,6,4,_Remastered_Guitar,0.041287440806627274,0
69,100,0.2590909090909091,197,0,97,_Remastered_Guitar,6,4,_Remastered_Guitar,0.02893359586596489,0
73,100,0.2818181818181818,263,0,97,_Remastered_Guitar,6,5,_Remastered_Guitar,0.021287579089403152,0
71,100,0.21818181818181817,330,0,97,_Remastered_Guitar,6,3,_Remastered_Guitar,0.016744710505008698,0
73,100,0.6181818181818182,396,0,97,_Remastered_Guitar,6,10,_Remastered_Guitar,0.014917346648871899,0
71,100,0.4409090909090909,536,0,97,_Remastered_Guitar,6,7,_Remastered_Guitar,0.016015706583857536,0
71,100,0.3181818181818182,646,0,97,_Remastered_Guitar,6,5,_Remastered_Guitar,0.02117842435836792,0
71,100,0.1409090909090909,726,0,97,_Remastered_Guitar,6,2,_Remastered_Guitar,0.03156793862581253,0
73,100,1.0,770,0,97,_Remastered_Guitar,6,15,_Remastered_Guitar,0.06005801633000374,0
71,100,0.6409090909090909,136,1,98,_Remastered_Guitar,6,10,_Remastered_Guitar,0.9982553124427795,1
73,100,0.2590909090909091,282,0,98,_Remastered_Guitar,6,4,_Remastered_Guitar,0.041287612169981,0
71,100,0.1,343,0,98,_Remastered_Guitar,6,2,_Remastered_Guitar,0.028935376554727554,0
69,100,0.2636363636363636,377,0,98,_Remastered_Guitar,6,4,_Remastered_Guitar,0.021288573741912842,0
71,100,0.5,436,0,98,_Remastered_Guitar,6,8,_Remastered_Guitar,0.016745315864682198,0
73,100,0.35909090909090907,559,0,98,_Remastered_Guitar,6,6,_Remastered_Guitar,0.014917990192770958,0
71,100,0.1409090909090909,646,0,98,_Remastered_Guitar,6,2,_Remastered_Guitar,0.01601593941450119,0
73,100,0.1409090909090909,682,0,98,_Remastered_Guitar,6,2,_Remastered_Guitar,0.021179508417844772,0
71,100,0.2409090909090909,716,0,98,_Remastered_Guitar,6,4,_Remastered_Guitar,0.03156780079007149,0
69,100,0.6,779,0,98,_Remastered_Guitar,6,10,_Remastered_Guitar,0.06006010249257088,0
66,100,1.559090909090909,35,1,99,_Remastered_Guitar,6,15,_Remastered_Guitar,0.9986500144004822,1
66,100,0.7181818181818181,396,1,99,_Remastered_Guitar,6,11,_Remastered_Guitar,0.08780373632907867,0
64,100,0.3,563,0,99,_Remastered_Guitar,6,5,_Remastered_Guitar,0.09181276708841324,0
66,100,0.2,650,0,99,_Remastered_Guitar,6,3,_Remastered_Guitar,0.1074790433049202,0
71,100,0.17727272727272728,700,0,99,_Remastered_Guitar,6,3,_Remastered_Guitar,0.12482950836420059,0
73,100,0.6409090909090909,752,0,99,_Remastered_Guitar,6,10,_Remastered_Guitar,0.1790245920419693,0
71,100,0.5818181818181818,22,1,100,_Remastered_Guitar,6,9,_Remastered_Guitar,0.9986500144004822,1
71,100,0.1590909090909091,220,0,100,_Remastered_Guitar,6,3,_Remastered_Guitar,0.08781091123819351,0
73,100,1.0818181818181818,267,0,100,_Remastered_Guitar,6,15,_Remastered_Guitar,0.09182670712471008,0
71,100,0.4590909090909091,514,1,100,_Remastered_Guitar,6,7,_Remastered_Guitar,0.10751153528690338,0
69,100,0.5636363636363636,619,0,100,_Remastered_Guitar,6,9,_Remastered_Guitar,0.12487691640853882,0
69,100,4.840909090909091,752,0,100,_Remastered_Guitar,6,15,_Remastered_Guitar,0.17898276448249817,0
56,100,0.18181818181818182,651,1,0,DL_Guitar,6,3,DL_Guitar,0.9792560338973999,1
61,100,0.9,655,1,1,DL_Guitar,6,14,DL_Guitar,0.9792546629905701,0
63,100,0.41818181818181815,140,1,5,DL_Guitar,6,7,DL_Guitar,0.9990057349205017,1
56,100,0.1409090909090909,541,1,5,DL_Guitar,6,2,DL_Guitar,0.2312101572751999,0
56,100,0.38181818181818183,575,0,5,DL_Guitar,6,6,DL_Guitar,0.2659304738044739,0
56,100,0.3181818181818182,721,0,5,DL_Guitar,6,5,DL_Guitar,0.3542032241821289,0
63,100,0.3409090909090909,153,1,6,DL_Guitar,6,5,DL_Guitar,0.9988419413566589,1
63,100,0.1409090909090909,311,0,6,DL_Guitar,6,2,DL_Guitar,0.13724757730960846,0
60,100,0.1590909090909091,386,0,6,DL_Guitar,6,3,DL_Guitar,0.15978112816810608,0
53,100,0.42272727272727273,695,1,6,DL_Guitar,6,7,DL_Guitar,0.18645140528678894,0
53,100,0.23636363636363636,810,0,6,DL_Guitar,6,4,DL_Guitar,0.25817155838012695,0
63,100,0.2772727272727273,325,1,7,DL_Guitar,6,4,DL_Guitar,0.9983165264129639,1
63,100,0.6,818,1,7,DL_Guitar,6,10,DL_Guitar,0.544564425945282,0
63,100,0.32272727272727275,321,1,8,DL_Guitar,6,5,DL_Guitar,0.9990229606628418,1
63,100,0.17727272727272728,426,0,8,DL_Guitar,6,3,DL_Guitar,0.3666251599788666,0
53,100,0.12272727272727273,795,1,8,DL_Guitar,6,2,DL_Guitar,0.4532899856567383,0
63,100,0.2636363636363636,862,1,9,DL_Guitar,6,4,DL_Guitar,0.9792559146881104,0
56,100,0.1590909090909091,364,1,10,DL_Guitar,6,3,DL_Guitar,0.9990057349205017,1
56,100,0.13636363636363635,457,0,10,DL_Guitar,6,2,DL_Guitar,0.2312197983264923,0
56,100,0.740909090909091,527,0,10,DL_Guitar,6,12,DL_Guitar,0.26591992378234863,0
56,100,0.5590909090909091,716,0,10,DL_Guitar,6,9,DL_Guitar,0.35419121384620667,0
63,100,0.11818181818181818,110,1,11,DL_Guitar,6,2,DL_Guitar,0.9988419413566589,1
56,100,0.2409090909090909,250,0,11,DL_Guitar,6,4,DL_Guitar,0.1372453272342682,0
63,100,0.22272727272727272,443,0,11,DL_Guitar,6,4,DL_Guitar,0.1597786694765091,0
63,100,0.1,691,1,11,DL_Guitar,6,2,DL_Guitar,0.1864498257637024,0
63,100,0.3,876,0,11,DL_Guitar,6,5,DL_Guitar,0.25816747546195984,0
56,100,0.22272727272727272,70,1,12,DL_Guitar,6,4,DL_Guitar,0.9988419413566589,1
63,100,0.1,144,0,12,DL_Guitar,6,2,DL_Guitar,0.13724759221076965,0
63,100,0.2,273,0,12,DL_Guitar,6,3,DL_Guitar,0.15977910161018372,0
56,100,0.2818181818181818,378,0,12,DL_Guitar,6,5,DL_Guitar,0.18644340336322784,0
63,100,0.3,598,0,12,DL_Guitar,6,5,DL_Guitar,0.2581673264503479,0
63,100,0.23636363636363636,149,1,13,DL_Guitar,6,4,DL_Guitar,0.9990057349205017,1
63,100,0.1409090909090909,333,0,13,DL_Guitar,6,2,DL_Guitar,0.23120850324630737,0
56,100,0.17727272727272728,436,0,13,DL_Guitar,6,3,DL_Guitar,0.26593318581581116,0
63,100,0.8,660,0,13,DL_Guitar,6,13,DL_Guitar,0.35419905185699463,0
63,100,1.6590909090909092,56,1,14,DL_Guitar,6,15,DL_Guitar,0.9990057349205017,1
63,100,0.3409090909090909,488,1,14,DL_Guitar,6,5,DL_Guitar,0.23121428489685059,0
56,100,0.22272727272727272,685,0,14,DL_Guitar,6,4,DL_Guitar,0.2659284472465515,0
63,100,0.42272727272727273,849,0,14,DL_Guitar,6,7,DL_Guitar,0.35420018434524536,0
63,100,0.2409090909090909,140,1,15,DL_Guitar,6,4,DL_Guitar,0.9990229606628418,1
63,100,0.22272727272727272,355,0,15,DL_Guitar,6,4,DL_Guitar,0.36663106083869934,0
63,100,0.1,835,1,15,DL_Guitar,6,2,DL_Guitar,0.45329880714416504,0
56,100,0.1590909090909091,13,1,16,DL_Guitar,6,3,DL_Guitar,0.9982553124427795,1
63,100,0.6227272727272727,69,0,16,DL_Guitar,6,10,DL_Guitar,0.04128682240843773,0
63,100,0.18181818181818182,210,0,16,DL_Guitar,6,3,DL_Guitar,0.028935149312019348,0
63,100,0.1409090909090909,308,0,16,DL_Guitar,6,2,DL_Guitar,0.021287918090820312,0
63,100,0.16363636363636364,378,0,16,DL_Guitar,6,3,DL_Guitar,0.016745181754231453,0
63,100,0.4772727272727273,449,0,16,DL_Guitar,6,8,DL_Guitar,0.014918371103703976,0
63,100,0.36363636363636365,576,0,16,DL_Guitar,6,6,DL_Guitar,0.016016751527786255,0
56,100,0.2,660,0,16,DL_Guitar,6,3,DL_Guitar,0.02117982879281044,0
63,100,0.41818181818181815,725,0,16,DL_Guitar,6,7,DL_Guitar,0.03156882897019386,0
63,100,0.1409090909090909,822,0,16,DL_Guitar,6,2,DL_Guitar,0.06006249040365219,0
63,100,0.5409090909090909,21,1,17,DL_Guitar,6,9,DL_Guitar,0.9986500144004822,1
63,100,0.3409090909090909,206,0,17,DL_Guitar,6,5,DL_Guitar,0.0878039076924324,0
53,100,0.1590909090909091,480,1,17,DL_Guitar,6,3,DL_Guitar,0.09181573241949081,0
53,100,0.3,532,0,17,DL_Guitar,6,5,DL_Guitar,0.10747797787189484,0
52,100,0.3,611,0,17,DL_Guitar,6,5,DL_Guitar,0.12482720613479614,0
52,100,0.2590909090909091,681,0,17,DL_Guitar,6,4,DL_Guitar,0.17903777956962585,0
53,100,0.2409090909090909,119,1,18,DL_Guitar,6,4,DL_Guitar,0.9986500144004822,1
63,100,0.2409090909090909,356,1,18,DL_Guitar,6,4,DL_Guitar,0.08780411630868912,0
63,100,0.23636363636363636,436,0,18,DL_Guitar,6,4,DL_Guitar,0.09181684255599976,0
63,100,0.22272727272727272,497,0,18,DL_Guitar,6,4,DL_Guitar,0.10748487710952759,0
63,100,0.7,625,0,18,DL_Guitar,6,11,DL_Guitar,0.1248333603143692,0
56,100,0.35909090909090907,804,0,18,DL_Guitar,6,6,DL_Guitar,0.17904148995876312,0
63,100,0.5181818181818182,21,1,19,DL_Guitar,6,8,DL_Guitar,0.9986500144004822,1
63,100,0.3181818181818182,370,1,19,DL_Guitar,6,5,DL_Guitar,0.08780571818351746,0
56,100,0.18181818181818182,453,0,19,DL_Guitar,6,3,DL_Guitar,0.09181710332632065,0
56,100,0.2590909090909091,501,0,19,DL_Guitar,6,4,DL_Guitar,0.10748280584812164,0
56,100,0.2636363636363636,576,0,19,DL_Guitar,6,4,DL_Guitar,0.12483594566583633,0
63,100,0.7818181818181819,791,0,19,DL_Guitar,6,13,DL_Guitar,0.1790355145931244,0
56,100,0.7818181818181819,88,1,20,DL_Guitar,6,13,DL_Guitar,0.9990229606628418,1
63,100,0.2409090909090909,272,0,20,DL_Guitar,6,4,DL_Guitar,0.36662757396698,0
63,100,0.41818181818181815,449,0,20,DL_Guitar,6,7,DL_Guitar,0.45329105854034424,0
56,100,0.23636363636363636,40,1,21,DL_Guitar,6,4,DL_Guitar,0.9988419413566589,1
63,100,0.2590909090909091,106,0,21,DL_Guitar,6,4,DL_Guitar,0.13724936544895172,0
63,100,0.22272727272727272,422,1,21,DL_Guitar,6,4,DL_Guitar,0.15977901220321655,0
63,100,0.1409090909090909,550,0,21,DL_Guitar,6,2,DL_Guitar,0.1864517778158188,0
63,100,0.6181818181818182,700,0,21,DL_Guitar,6,10,DL_Guitar,0.25817635655403137,0
60,100,0.1409090909090909,198,1,22,DL_Guitar,6,2,DL_Guitar,0.9983737468719482,1
63,100,0.12272727272727273,246,0,22,DL_Guitar,6,2,DL_Guitar,0.051059238612651825,0
63,100,0.1409090909090909,285,0,22,DL_Guitar,6,2,DL_Guitar,0.041303716599941254,0
63,100,0.17727272727272728,326,0,22,DL_Guitar,6,3,DL_Guitar,0.03738618269562721,0
53,100,0.17727272727272728,370,0,22,DL_Guitar,6,3,DL_Guitar,0.03833162039518356,0
63,100,0.1,523,0,22,DL_Guitar,6,2,DL_Guitar,0.04475316032767296,0
63,100,0.1590909090909091,779,1,22,DL_Guitar,6,3,DL_Guitar,0.05523410066962242,0
63,100,0.11818181818181818,845,0,22,DL_Guitar,6,2,DL_Guitar,0.09027168899774551,0
63,100,0.1409090909090909,308,1,23,DL_Guitar,6,2,DL_Guitar,0.9988419413566589,1
63,100,0.3,581,1,23,DL_Guitar,6,5,DL_Guitar,0.13725128769874573,0
56,100,0.1409090909090909,669,0,23,DL_Guitar,6,2,DL_Guitar,0.15978659689426422,0
56,100,0.1590909090909091,760,0,23,DL_Guitar,6,3,DL_Guitar,0.18645690381526947,0
63,100,0.2,810,0,23,DL_Guitar,6,3,DL_Guitar,0.2581726014614105,0
63,100,0.3,3,1,24,DL_Guitar,6,5,DL_Guitar,0.9983736276626587,1
56,100,0.3409090909090909,79,0,24,DL_Guitar,6,5,DL_Guitar,0.05106103792786598,0
60,100,0.1590909090909091,175,0,24,DL_Guitar,6,3,DL_Guitar,0.04130394384264946,0
63,100,0.13636363636363635,391,0,24,DL_Guitar,6,2,DL_Guitar,0.0373857207596302,0
60,100,0.8590909090909091,453,0,24,DL_Guitar,6,14,DL_Guitar,0.03833125904202461,0
56,100,0.1409090909090909,717,1,24,DL_Guitar,6,2,DL_Guitar,0.044753480702638626,0
68,100,0.18181818181818182,748,0,24,DL_Guitar,6,3,DL_Guitar,0.05523141473531723,0
56,100,0.2590909090909091,876,0,24,DL_Guitar,6,4,DL_Guitar,0.09026936441659927,0
63,100,0.3181818181818182,171,1,25,DL_Guitar,6,5,DL_Guitar,0.9988419413566589,1
63,100,0.1,347,0,25,DL_Guitar,6,2,DL_Guitar,0.13724951446056366,0
63,100,0.2818181818181818,378,0,25,DL_Guitar,6,5,DL_Guitar,0.15977804362773895,0
63,100,0.2636363636363636,443,0,25,DL_Guitar,6,4,DL_Guitar,0.18645590543746948,0
61,100,0.3181818181818182,735,1,25,DL_Guitar,6,5,DL_Guitar,0.2581678032875061,0
63,100,0.4590909090909091,17,1,26,DL_Guitar,6,7,DL_Guitar,0.9983165264129639,1
56,100,0.32272727272727275,642,1,26,DL_Guitar,6,5,DL_Guitar,0.5445632338523865,0
63,100,0.2,88,1,27,DL_Guitar,6,3,DL_Guitar,0.9988419413566589,1
60,100,0.2409090909090909,333,1,27,DL_Guitar,6,4,DL_Guitar,0.1372518688440323,0
60,100,0.3,519,0,27,DL_Guitar,6,5,DL_Guitar,0.159786656498909,0
63,100,0.5181818181818182,611,0,27,DL_Guitar,6,8,DL_Guitar,0.1864512860774994,0
63,100,0.1590909090909091,743,0,27,DL_Guitar,6,3,DL_Guitar,0.25817975401878357,0
63,100,0.3,216,1,28,DL_Guitar,6,5,DL_Guitar,0.9983164072036743,1
63,100,0.17727272727272728,303,0,28,DL_Guitar,6,3,DL_Guitar,0.5445617437362671,0
63,100,0.1590909090909091,0,1,29,DL_Guitar,6,3,DL_Guitar,0.9983164072036743,1
63,100,0.9181818181818182,743,1,29,DL_Guitar,6,15,DL_Guitar,0.5445619225502014,0
56,100,0.3,83,1,30,DL_Guitar,6,5,DL_Guitar,0.9984880685806274,1
56,100,0.1409090909090909,154,0,30,DL_Guitar,6,2,DL_Guitar,0.06334240734577179,0
63,100,0.740909090909091,320,0,30,DL_Guitar,6,12,DL_Guitar,0.05774176865816116,0
56,100,0.13636363636363635,523,0,30,DL_Guitar,6,2,DL_Guitar,0.06019926071166992,0
63,100,0.17727272727272728,602,0,30,DL_Guitar,6,3,DL_Guitar,0.06970109045505524,0
60,100,0.11818181818181818,691,0,30,DL_Guitar,6,2,DL_Guitar,0.08189592510461807,0
63,100,0.3409090909090909,783,0,30,DL_Guitar,6,5,DL_Guitar,0.12401530891656876,0
63,100,0.3181818181818182,9,1,31,DL_Guitar,6,5,DL_Guitar,0.9986500144004822,1
63,100,0.3,83,0,31,DL_Guitar,6,5,DL_Guitar,0.08780654519796371,0
63,100,0.8227272727272728,189,0,31,DL_Guitar,6,13,DL_Guitar,0.09181839972734451,0
63,100,1.1818181818181819,443,1,31,DL_Guitar,6,15,DL_Guitar,0.10748867690563202,0
56,100,0.13636363636363635,721,1,31,DL_Guitar,6,2,DL_Guitar,0.12484032660722733,0
63,100,0.36363636363636365,752,0,31,DL_Guitar,6,6,DL_Guitar,0.17904046177864075,0
63,100,0.32272727272727275,26,1,32,DL_Guitar,6,5,DL_Guitar,0.9984880685806274,1
63,100,0.4818181818181818,158,0,32,DL_Guitar,6,8,DL_Guitar,0.06334677338600159,0
56,100,0.2409090909090909,298,0,32,DL_Guitar,6,4,DL_Guitar,0.05774274468421936,0
63,100,0.1590909090909091,396,0,32,DL_Guitar,6,3,DL_Guitar,0.060203712433576584,0
61,100,0.2772727272727273,536,0,32,DL_Guitar,6,4,DL_Guitar,0.06970526278018951,0
53,100,0.2590909090909091,611,0,32,DL_Guitar,6,4,DL_Guitar,0.08189657330513,0
63,100,0.2772727272727273,735,0,32,DL_Guitar,6,4,DL_Guitar,0.12402499467134476,0
63,100,0.6363636363636364,105,1,33,DL_Guitar,6,10,DL_Guitar,0.9988419413566589,1
56,100,0.5227272727272727,444,1,33,DL_Guitar,6,8,DL_Guitar,0.137252539396286,0
63,100,0.35909090909090907,558,0,33,DL_Guitar,6,6,DL_Guitar,0.15978121757507324,0
63,100,0.12272727272727273,751,0,33,DL_Guitar,6,2,DL_Guitar,0.18646104633808136,0
63,100,0.6409090909090909,866,0,33,DL_Guitar,6,10,DL_Guitar,0.25818103551864624,0
63,100,0.2590909090909091,518,1,34,DL_Guitar,6,4,DL_Guitar,0.9990057349205017,1
63,100,0.2,619,0,34,DL_Guitar,6,3,DL_Guitar,0.2312091439962387,0
63,100,0.2,770,0,34,DL_Guitar,6,3,DL_Guitar,0.265927255153656,0
61,100,0.4818181818181818,861,0,34,DL_Guitar,6,8,DL_Guitar,0.3542017936706543,0
61,100,0.1409090909090909,241,1,35,DL_Guitar,6,2,DL_Guitar,0.9990057349205017,1
63,100,0.1,361,0,35,DL_Guitar,6,2,DL_Guitar,0.2312096804380417,0
63,100,0.9227272727272727,408,0,35,DL_Guitar,6,15,DL_Guitar,0.26593151688575745,0
63,100,0.3,738,1,35,DL_Guitar,6,5,DL_Guitar,0.35420387983322144,0
63,100,0.21818181818181817,8,1,36,DL_Guitar,6,3,DL_Guitar,0.9990057349205017,1
53,100,0.13636363636363635,678,1,36,DL_Guitar,6,2,DL_Guitar,0.23120397329330444,0
61,100,0.22272727272727272,751,0,36,DL_Guitar,6,4,DL_Guitar,0.26592257618904114,0
53,100,0.5590909090909091,801,0,36,DL_Guitar,6,9,DL_Guitar,0.3541955351829529,0
65,100,0.5409090909090909,53,1,37,DL_Guitar,6,9,DL_Guitar,0.9988419413566589,1
65,100,0.2818181818181818,241,0,37,DL_Guitar,6,5,DL_Guitar,0.13724704086780548,0
53,100,0.2636363636363636,311,0,37,DL_Guitar,6,4,DL_Guitar,0.15977522730827332,0
53,100,0.21818181818181817,373,0,37,DL_Guitar,6,3,DL_Guitar,0.1864462047815323,0
63,100,0.5590909090909091,545,0,37,DL_Guitar,6,9,DL_Guitar,0.2581547498703003,0
55,100,0.2772727272727273,141,1,38,DL_Guitar,6,4,DL_Guitar,0.9983165264129639,1
55,100,0.21818181818181817,418,1,38,DL_Guitar,6,3,DL_Guitar,0.5445572137832642,0
53,100,0.2,163,1,39,DL_Guitar,6,3,DL_Guitar,0.9986498951911926,1
53,100,0.1590909090909091,211,0,39,DL_Guitar,6,3,DL_Guitar,0.08780274540185928,0
53,100,0.2818181818181818,276,0,39,DL_Guitar,6,5,DL_Guitar,0.09181497246026993,0
53,100,0.43636363636363634,348,0,39,DL_Guitar,6,7,DL_Guitar,0.10748151689767838,0
63,100,0.6227272727272727,474,0,39,DL_Guitar,6,10,DL_Guitar,0.1248246505856514,0
61,100,0.11818181818181818,765,1,39,DL_Guitar,6,2,DL_Guitar,0.1790381520986557,0
63,100,0.1409090909090909,361,1,40,DL_Guitar,6,2,DL_Guitar,0.9990057349205017,1
63,100,0.1409090909090909,405,0,40,DL_Guitar,6,2,DL_Guitar,0.23121005296707153,0
63,100,0.18181818181818182,664,1,40,DL_Guitar,6,3,DL_Guitar,0.2659338712692261,0
63,100,0.12272727272727273,861,0,40,DL_Guitar,6,2,DL_Guitar,0.35421037673950195,0
63,100,0.21818181818181817,75,1,41,DL_Guitar,6,3,DL_Guitar,0.9983003735542297,1
53,100,0.3409090909090909,246,0,41,DL_Guitar,6,5,DL_Guitar,0.0446641631424427,0
63,100,0.12272727272727273,334,0,41,DL_Guitar,6,2,DL_Guitar,0.03314943611621857,0
63,100,0.18181818181818182,399,0,41,DL_Guitar,6,3,DL_Guitar,0.026579532772302628,0
53,100,0.2,448,0,41,DL_Guitar,6,3,DL_Guitar,0.023595109581947327,0
56,100,0.2,619,0,41,DL_Guitar,6,3,DL_Guitar,0.02431381493806839,0
63,100,0.1409090909090909,691,0,41,DL_Guitar,6,2,DL_Guitar,0.029689930379390717,0
63,100,0.11818181818181818,735,0,41,DL_Guitar,6,2,DL_Guitar,0.04007699340581894,0
63,100,0.33636363636363636,765,0,41,DL_Guitar,6,5,DL_Guitar,0.07093047350645065,0
63,100,0.21818181818181817,0,1,42,DL_Guitar,6,3,DL_Guitar,0.9990229606628418,1
63,100,0.2818181818181818,198,0,42,DL_Guitar,6,5,DL_Guitar,0.36663082242012024,0
63,100,0.16363636363636364,774,1,42,DL_Guitar,6,3,DL_Guitar,0.45330458879470825,0
63,100,0.3,295,1,43,DL_Guitar,6,5,DL_Guitar,0.9990229606628418,1
63,100,0.6,399,0,43,DL_Guitar,6,10,DL_Guitar,0.36662834882736206,0
53,100,0.18181818181818182,673,1,43,DL_Guitar,6,3,DL_Guitar,0.45329803228378296,0
63,100,0.12272727272727273,136,1,44,DL_Guitar,6,2,DL_Guitar,0.9990057349205017,1
63,100,0.12272727272727273,268,0,44,DL_Guitar,6,2,DL_Guitar,0.2312123030424118,0
63,100,0.1409090909090909,550,1,44,DL_Guitar,6,2,DL_Guitar,0.26593121886253357,0
63,100,0.2409090909090909,616,0,44,DL_Guitar,6,4,DL_Guitar,0.3542093336582184,0
58,100,0.18181818181818182,21,1,45,DL_Guitar,6,3,DL_Guitar,0.9986500144004822,1
53,100,0.5409090909090909,321,1,45,DL_Guitar,6,9,DL_Guitar,0.08780138194561005,0
60,100,0.16363636363636364,444,0,45,DL_Guitar,6,3,DL_Guitar,0.09181497246026993,0
53,100,0.1590909090909091,506,0,45,DL_Guitar,6,3,DL_Guitar,0.10747641324996948,0
63,100,0.18181818181818182,729,0,45,DL_Guitar,6,3,DL_Guitar,0.12482612580060959,0
63,100,0.4,861,0,45,DL_Guitar,6,6,DL_Guitar,0.17903190851211548,0
63,100,0.6818181818181818,254,1,46,DL_Guitar,6,11,DL_Guitar,0.9988419413566589,1
61,100,0.13636363636363635,458,0,46,DL_Guitar,6,2,DL_Guitar,0.1372472196817398,0
61,100,0.5,493,0,46,DL_Guitar,6,8,DL_Guitar,0.15977708995342255,0
61,100,0.21818181818181817,678,0,46,DL_Guitar,6,3,DL_Guitar,0.1864481419324875,0
61,100,0.16363636363636364,774,0,46,DL_Guitar,6,3,DL_Guitar,0.2581726610660553,0
64,100,0.1590909090909091,810,1,47,DL_Guitar,6,3,DL_Guitar,0.9792566299438477,0
53,100,0.18181818181818182,56,1,48,DL_Guitar,6,3,DL_Guitar,0.9986500144004822,1
53,100,0.2818181818181818,263,0,48,DL_Guitar,6,5,DL_Guitar,0.08780284970998764,0
56,100,0.1,421,0,48,DL_Guitar,6,2,DL_Guitar,0.09181243181228638,0
63,100,0.2,483,0,48,DL_Guitar,6,3,DL_Guitar,0.10747795552015305,0
53,100,0.16363636363636364,554,0,48,DL_Guitar,6,3,DL_Guitar,0.12482759356498718,0
61,100,0.2,845,1,48,DL_Guitar,6,3,DL_Guitar,0.17903149127960205,0
56,100,0.5590909090909091,251,1,49,DL_Guitar,6,9,DL_Guitar,0.9990229606628418,1
63,100,0.9181818181818182,396,0,49,DL_Guitar,6,15,DL_Guitar,0.3666205406188965,0
63,100,0.11818181818181818,770,1,49,DL_Guitar,6,2,DL_Guitar,0.4532892107963562,0
63,100,0.41818181818181815,118,1,50,DL_Guitar,6,7,DL_Guitar,0.9988419413566589,1
63,100,0.6590909090909091,263,0,50,DL_Guitar,6,11,DL_Guitar,0.13725024461746216,0
53,100,0.18181818181818182,606,1,50,DL_Guitar,6,3,DL_Guitar,0.15978440642356873,0
63,100,0.35909090909090907,655,0,50,DL_Guitar,6,6,DL_Guitar,0.18645305931568146,0
63,100,0.1,765,0,50,DL_Guitar,6,2,DL_Guitar,0.25817689299583435,0
56,100,0.5590909090909091,31,1,51,DL_Guitar,6,9,DL_Guitar,0.9990057349205017,1
63,100,0.7227272727272728,254,0,51,DL_Guitar,6,12,DL_Guitar,0.2312108278274536,0
63,100,0.6,531,1,51,DL_Guitar,6,10,DL_Guitar,0.26593104004859924,0
63,100,0.2409090909090909,668,0,51,DL_Guitar,6,4,DL_Guitar,0.3542044460773468,0
63,100,0.5818181818181818,110,1,52,DL_Guitar,6,9,DL_Guitar,0.9990057349205017,1
63,100,0.5181818181818182,435,1,52,DL_Guitar,6,8,DL_Guitar,0.2312087118625641,0
63,100,0.37727272727272726,721,1,52,DL_Guitar,6,6,DL_Guitar,0.26592791080474854,0
63,100,0.1409090909090909,861,0,52,DL_Guitar,6,2,DL_Guitar,0.3542056381702423,0
63,100,0.9181818181818182,18,1,53,DL_Guitar,6,15,DL_Guitar,0.9988419413566589,1
56,100,0.1590909090909091,254,1,53,DL_Guitar,6,3,DL_Guitar,0.13725081086158752,0
63,100,0.18181818181818182,289,0,53,DL_Guitar,6,3,DL_Guitar,0.15978118777275085,0
63,100,0.3409090909090909,378,0,53,DL_Guitar,6,5,DL_Guitar,0.18645045161247253,0
63,100,0.5590909090909091,480,0,53,DL_Guitar,6,9,DL_Guitar,0.25817394256591797,0
53,100,0.3,26,1,54,DL_Guitar,6,5,DL_Guitar,0.9990057349205017,1
61,100,0.8363636363636363,150,0,54,DL_Guitar,6,13,DL_Guitar,0.23120228946208954,0
61,100,0.21818181818181817,370,0,54,DL_Guitar,6,3,DL_Guitar,0.26592567563056946,0
63,100,0.42272727272727273,848,1,54,DL_Guitar,6,7,DL_Guitar,0.3541896641254425,0
63,100,1.559090909090909,166,1,55,DL_Guitar,6,15,DL_Guitar,0.9990057349205017,1
60,100,0.21818181818181817,523,1,55,DL_Guitar,6,3,DL_Guitar,0.23120631277561188,0
53,100,0.1409090909090909,694,0,55,DL_Guitar,6,2,DL_Guitar,0.2659231424331665,0
53,100,0.21818181818181817,735,0,55,DL_Guitar,6,3,DL_Guitar,0.3541945815086365,0
56,100,0.1590909090909091,273,1,56,DL_Guitar,6,3,DL_Guitar,0.9983165264129639,1
61,100,0.9227272727272727,421,0,56,DL_Guitar,6,15,DL_Guitar,0.544553816318512,0
63,100,0.11818181818181818,593,1,57,DL_Guitar,6,2,DL_Guitar,0.9983164072036743,1
63,100,0.759090909090909,625,0,57,DL_Guitar,6,12,DL_Guitar,0.5445661544799805,0
63,100,0.13636363636363635,370,1,58,DL_Guitar,6,2,DL_Guitar,0.9990057349205017,1
63,100,0.11818181818181818,528,0,58,DL_Guitar,6,2,DL_Guitar,0.2312069684267044,0
53,100,0.4,655,0,58,DL_Guitar,6,6,DL_Guitar,0.2659302055835724,0
61,100,0.42272727272727273,774,0,58,DL_Guitar,6,7,DL_Guitar,0.35421156883239746,0
61,100,0.3,34,1,59,DL_Guitar,6,5,DL_Guitar,0.979255735874176,0
63,100,1.040909090909091,553,1,64,DL_Guitar,6,15,DL_Guitar,0.9983164072036743,1
63,100,0.7181818181818181,853,1,64,DL_Guitar,6,11,DL_Guitar,0.5445659160614014,0
63,100,0.1409090909090909,176,1,65,DL_Guitar,6,2,DL_Guitar,0.9983164072036743,1
63,100,0.38181818181818183,220,0,65,DL_Guitar,6,6,DL_Guitar,0.5445672273635864,0
53,100,0.6,113,1,68,DL_Guitar,6,10,DL_Guitar,0.9990230798721313,1
53,100,0.6409090909090909,307,0,68,DL_Guitar,6,10,DL_Guitar,0.3666156232357025,0
77,100,0.1590909090909091,593,1,68,DL_Guitar,6,3,DL_Guitar,0.45328769087791443,0
63,100,0.35909090909090907,193,1,69,DL_Guitar,6,6,DL_Guitar,0.9986500144004822,1
63,100,0.5590909090909091,276,0,69,DL_Guitar,6,9,DL_Guitar,0.08780499547719955,0
63,100,0.2,443,0,69,DL_Guitar,6,3,DL_Guitar,0.09182041883468628,0
63,100,0.1,612,0,69,DL_Guitar,6,2,DL_Guitar,0.10748445242643356,0
63,100,0.1,650,0,69,DL_Guitar,6,2,DL_Guitar,0.12483903765678406,0
63,100,1.6181818181818182,700,0,69,DL_Guitar,6,15,DL_Guitar,0.17904429137706757,0
53,100,0.2590909090909091,343,1,70,DL_Guitar,6,4,DL_Guitar,0.9990057349205017,1
53,100,0.9,462,0,70,DL_Guitar,6,14,DL_Guitar,0.23119889199733734,0
65,100,0.35909090909090907,682,0,70,DL_Guitar,6,6,DL_Guitar,0.2659153640270233,0
53,100,0.11818181818181818,766,0,70,DL_Guitar,6,2,DL_Guitar,0.35419151186943054,0
65,100,0.16363636363636364,3,1,71,DL_Guitar,6,3,DL_Guitar,0.9988419413566589,1
77,100,0.23636363636363636,260,1,71,DL_Guitar,6,4,DL_Guitar,0.13724389672279358,0
77,100,0.4,320,0,71,DL_Guitar,6,6,DL_Guitar,0.1597767025232315,0
77,100,0.3,413,0,71,DL_Guitar,6,5,DL_Guitar,0.1864449828863144,0
63,100,0.2636363636363636,509,0,71,DL_Guitar,6,4,DL_Guitar,0.25816166400909424,0
63,100,0.11818181818181818,96,1,72,DL_Guitar,6,2,DL_Guitar,0.9986500144004822,1
63,100,0.21818181818181817,700,1,72,DL_Guitar,6,3,DL_Guitar,0.08780733495950699,0
63,100,0.1,756,0,72,DL_Guitar,6,2,DL_Guitar,0.09181994944810867,0
75,100,0.1,783,0,72,DL_Guitar,6,2,DL_Guitar,0.10748325288295746,0
63,100,0.3,805,0,72,DL_Guitar,6,5,DL_Guitar,0.12483890354633331,0
75,100,0.1,870,0,72,DL_Guitar,6,2,DL_Guitar,0.17904971539974213,0
75,100,0.2,30,1,73,DL_Guitar,6,3,DL_Guitar,0.9990229606628418,1
63,100,0.35909090909090907,74,0,73,DL_Guitar,6,6,DL_Guitar,0.3666357696056366,0
63,100,0.8636363636363636,157,0,73,DL_Guitar,6,14,DL_Guitar,0.4533020257949829,0
62,100,0.8409090909090909,466,1,74,DL_Guitar,6,13,DL_Guitar,0.9983165264129639,1
62,100,0.22272727272727272,663,0,74,DL_Guitar,6,4,DL_Guitar,0.5445619821548462,0
62,100,0.1590909090909091,9,1,75,DL_Guitar,6,3,DL_Guitar,0.9990057349205017,1
59,100,1.0818181818181818,92,0,75,DL_Guitar,6,15,DL_Guitar,0.23121076822280884,0
61,100,1.0363636363636364,567,1,75,DL_Guitar,6,15,DL_Guitar,0.2659228444099426,0
59,100,1.1590909090909092,823,1,75,DL_Guitar,6,15,DL_Guitar,0.35420286655426025,0
61,100,1.2,202,1,76,DL_Guitar,6,15,DL_Guitar,0.9983162879943848,1
61,100,3.2,509,1,76,DL_Guitar,6,15,DL_Guitar,0.5445343255996704,0
62,100,1.2227272727272727,343,1,77,DL_Guitar,6,15,DL_Guitar,0.9983164072036743,1
62,100,0.5,853,1,77,DL_Guitar,6,8,DL_Guitar,0.5445666909217834,0
57,100,0.4590909090909091,132,1,78,DL_Guitar,6,7,DL_Guitar,0.9990229606628418,1
62,100,0.8181818181818182,502,1,78,DL_Guitar,6,13,DL_Guitar,0.3666285574436188,0
62,100,0.3,826,1,78,DL_Guitar,6,5,DL_Guitar,0.45330026745796204,0
54,100,0.12272727272727273,26,1,79,DL_Guitar,6,2,DL_Guitar,0.9986500144004822,1
62,100,0.13636363636363635,83,0,79,DL_Guitar,6,2,DL_Guitar,0.08780528604984283,0
68,100,0.2,123,0,79,DL_Guitar,6,3,DL_Guitar,0.0918131023645401,0
68,100,0.12272727272727273,377,1,79,DL_Guitar,6,2,DL_Guitar,0.10748234391212463,0
68,100,0.5227272727272727,509,0,79,DL_Guitar,6,8,DL_Guitar,0.12482402473688126,0
61,100,0.8363636363636363,633,0,79,DL_Guitar,6,13,DL_Guitar,0.17903171479701996,0
59,100,0.41818181818181815,9,1,80,DL_Guitar,6,7,DL_Guitar,0.9986500144004822,1
59,100,0.11818181818181818,132,0,80,DL_Guitar,6,2,DL_Guitar,0.0878039225935936,0
64,100,0.7363636363636363,303,0,80,DL_Guitar,6,12,DL_Guitar,0.09181270748376846,0
61,100,0.17727272727272728,646,1,80,DL_Guitar,6,3,DL_Guitar,0.10747722536325455,0
69,100,0.2590909090909091,713,0,80,DL_Guitar,6,4,DL_Guitar,0.1248314306139946,0
62,100,0.4409090909090909,779,0,80,DL_Guitar,6,7,DL_Guitar,0.1790369302034378,0
62,100,0.13636363636363635,17,1,81,DL_Guitar,6,2,DL_Guitar,0.9988419413566589,1
62,100,0.5772727272727273,53,0,81,DL_Guitar,6,9,DL_Guitar,0.13724909722805023,0
59,100,0.3,597,1,81,DL_Guitar,6,5,DL_Guitar,0.15978491306304932,0
68,100,0.6181818181818182,677,0,81,DL_Guitar,6,10,DL_Guitar,0.18644914031028748,0
52,100,0.12272727272727273,817,0,81,DL_Guitar,6,2,DL_Guitar,0.25817832350730896,0
68,100,0.18181818181818182,3,1,82,DL_Guitar,6,3,DL_Guitar,0.9982553124427795,1
57,100,0.3181818181818182,66,0,82,DL_Guitar,6,5,DL_Guitar,0.04128757491707802,0
61,100,0.2,166,0,82,DL_Guitar,6,3,DL_Guitar,0.02893407829105854,0
61,100,0.2590909090909091,273,0,82,DL_Guitar,6,4,DL_Guitar,0.021287977695465088,0
64,100,0.2818181818181818,330,0,82,DL_Guitar,6,5,DL_Guitar,0.016745174303650856,0
57,100,0.37727272727272726,436,0,82,DL_Guitar,6,6,DL_Guitar,0.014917990192770958,0
61,100,0.2772727272727273,567,0,82,DL_Guitar,6,4,DL_Guitar,0.016016021370887756,0
57,100,0.2590909090909091,633,0,82,DL_Guitar,6,4,DL_Guitar,0.021179620176553726,0
61,100,0.2590909090909091,700,0,82,DL_Guitar,6,4,DL_Guitar,0.03156759962439537,0
61,100,0.4409090909090909,826,0,82,DL_Guitar,6,7,DL_Guitar,0.060058917850255966,0
59,100,0.12272727272727273,92,1,83,DL_Guitar,6,2,DL_Guitar,0.9986500144004822,1
64,100,0.17727272727272728,127,0,83,DL_Guitar,6,3,DL_Guitar,0.08780399709939957,0
57,100,0.33636363636363636,193,0,83,DL_Guitar,6,5,DL_Guitar,0.09181609004735947,0
61,100,0.5227272727272727,320,0,83,DL_Guitar,6,8,DL_Guitar,0.10748399049043655,0
57,100,0.9590909090909091,483,0,83,DL_Guitar,6,15,DL_Guitar,0.12482952326536179,0
62,100,1.2,703,0,83,DL_Guitar,6,15,DL_Guitar,0.17903776466846466,0
62,100,0.1409090909090909,263,1,84,DL_Guitar,6,2,DL_Guitar,0.9990057349205017,1
52,100,0.1,663,1,84,DL_Guitar,6,2,DL_Guitar,0.23120743036270142,0
64,100,0.16363636363636364,752,0,84,DL_Guitar,6,3,DL_Guitar,0.2659256160259247,0
68,100,0.1590909090909091,810,0,84,DL_Guitar,6,3,DL_Guitar,0.35419514775276184,0
64,100,0.18181818181818182,66,1,85,DL_Guitar,6,3,DL_Guitar,0.9984880685806274,1
64,100,0.11818181818181818,197,0,85,DL_Guitar,6,2,DL_Guitar,0.06334608793258667,0
59,100,0.23636363636363636,237,0,85,DL_Guitar,6,4,DL_Guitar,0.05774429067969322,0
64,100,0.16363636363636364,289,0,85,DL_Guitar,6,3,DL_Guitar,0.060206249356269836,0
57,100,0.3181818181818182,493,0,85,DL_Guitar,6,5,DL_Guitar,0.0697091743350029,0
57,100,0.759090909090909,567,0,85,DL_Guitar,6,12,DL_Guitar,0.08190374076366425,0
57,100,0.8409090909090909,752,0,85,DL_Guitar,6,13,DL_Guitar,0.12402607500553131,0
61,100,0.32272727272727275,56,1,86,DL_Guitar,6,5,DL_Guitar,0.9988419413566589,1
61,100,1.0,140,0,86,DL_Guitar,6,15,DL_Guitar,0.13724830746650696,0
64,100,0.2772727272727273,559,1,86,DL_Guitar,6,4,DL_Guitar,0.1597822606563568,0
62,100,1.0,624,0,86,DL_Guitar,6,15,DL_Guitar,0.18645471334457397,0
62,100,0.1409090909090909,849,0,86,DL_Guitar,6,2,DL_Guitar,0.25817951560020447,0
57,100,0.21818181818181817,17,1,87,DL_Guitar,6,3,DL_Guitar,0.9990057349205017,1
62,100,0.6590909090909091,210,0,87,DL_Guitar,6,11,DL_Guitar,0.23121234774589539,0
68,100,0.32272727272727275,773,1,87,DL_Guitar,6,5,DL_Guitar,0.2659248113632202,0
68,100,0.1409090909090909,862,0,87,DL_Guitar,6,2,DL_Guitar,0.35420480370521545,0
68,100,1.459090909090909,87,1,88,DL_Guitar,6,15,DL_Guitar,0.9983164072036743,1
68,100,0.18181818181818182,417,1,88,DL_Guitar,6,3,DL_Guitar,0.5445594787597656,0
62,100,0.12272727272727273,509,1,89,DL_Guitar,6,2,DL_Guitar,0.979256272315979,0
61,100,0.3,480,1,90,DL_Guitar,6,5,DL_Guitar,0.9988419413566589,1
64,100,0.2818181818181818,553,0,90,DL_Guitar,6,5,DL_Guitar,0.13725091516971588,0
64,100,0.3,619,0,90,DL_Guitar,6,5,DL_Guitar,0.15978564321994781,0
61,100,0.5,690,0,90,DL_Guitar,6,8,DL_Guitar,0.18645216524600983,0
57,100,1.7363636363636363,810,0,90,DL_Guitar,6,15,DL_Guitar,0.2581682801246643,0
62,100,0.3181818181818182,316,1,91,DL_Guitar,6,5,DL_Guitar,0.979255735874176,0
68,100,0.17727272727272728,546,1,92,DL_Guitar,6,3,DL_Guitar,0.9988419413566589,1
69,100,0.4590909090909091,646,0,92,DL_Guitar,6,7,DL_Guitar,0.13724775612354279,0
57,100,0.2,747,0,92,DL_Guitar,6,3,DL_Guitar,0.1597817987203598,0
64,100,0.2,805,0,92,DL_Guitar,6,3,DL_Guitar,0.1864563226699829,0
57,100,0.5590909090909091,853,0,92,DL_Guitar,6,9,DL_Guitar,0.2581673264503479,0
61,100,0.3181818181818182,110,1,93,DL_Guitar,6,5,DL_Guitar,0.9990229606628418,1
57,100,0.4,229,0,93,DL_Guitar,6,6,DL_Guitar,0.3666212558746338,0
61,100,0.17727272727272728,383,0,93,DL_Guitar,6,3,DL_Guitar,0.45329251885414124,0
68,100,0.12272727272727273,255,1,94,DL_Guitar,6,2,DL_Guitar,0.9990057349205017,1
68,100,0.1,509,1,94,DL_Guitar,6,2,DL_Guitar,0.2312011569738388,0
59,100,0.36363636363636365,663,0,94,DL_Guitar,6,6,DL_Guitar,0.2659206986427307,0
61,100,0.2409090909090909,773,0,94,DL_Guitar,6,4,DL_Guitar,0.3541923463344574,0
64,100,0.3181818181818182,140,1,95,DL_Guitar,6,5,DL_Guitar,0.9988419413566589,1
57,100,0.5409090909090909,210,0,95,DL_Guitar,6,9,DL_Guitar,0.13725152611732483,0
64,100,0.2,347,0,95,DL_Guitar,6,3,DL_Guitar,0.15978528559207916,0
57,100,1.0772727272727274,413,0,95,DL_Guitar,6,15,DL_Guitar,0.1864546239376068,0
56,100,0.9181818181818182,656,1,95,DL_Guitar,6,15,DL_Guitar,0.2581714391708374,0
62,100,0.12272727272727273,26,1,96,DL_Guitar,6,2,DL_Guitar,0.9983165264129639,1
52,100,0.1590909090909091,550,1,96,DL_Guitar,6,3,DL_Guitar,0.5445613861083984,0
57,100,1.8,233,1,97,DL_Guitar,6,15,DL_Guitar,0.9983164072036743,1
57,100,0.2590909090909091,823,1,97,DL_Guitar,6,4,DL_Guitar,0.5445674061775208,0
57,100,0.6590909090909091,166,1,98,DL_Guitar,6,11,DL_Guitar,0.9983736276626587,1
62,100,0.3,320,0,98,DL_Guitar,6,5,DL_Guitar,0.05106194689869881,0
62,100,0.2590909090909091,430,0,98,DL_Guitar,6,4,DL_Guitar,0.04130353033542633,0
57,100,0.2409090909090909,527,0,98,DL_Guitar,6,4,DL_Guitar,0.03738674893975258,0
62,100,0.11818181818181818,580,0,98,DL_Guitar,6,2,DL_Guitar,0.03833123669028282,0
62,100,0.1,633,0,98,DL_Guitar,6,2,DL_Guitar,0.044754303991794586,0
57,100,0.12272727272727273,695,0,98,DL_Guitar,6,2,DL_Guitar,0.05523224547505379,0
68,100,0.11818181818181818,876,0,98,DL_Guitar,6,2,DL_Guitar,0.09026788175106049,0
68,100,0.2,53,1,99,DL_Guitar,6,3,DL_Guitar,0.9983736276626587,1
68,100,0.2,110,0,99,DL_Guitar,6,3,DL_Guitar,0.05105959624052048,0
68,100,0.1409090909090909,197,0,99,DL_Guitar,6,2,DL_Guitar,0.04130128026008606,0
59,100,0.35909090909090907,316,0,99,DL_Guitar,6,6,DL_Guitar,0.03738488256931305,0
68,100,0.11818181818181818,726,1,99,DL_Guitar,6,2,DL_Guitar,0.03832761570811272,0
61,100,0.3181818181818182,770,0,99,DL_Guitar,6,5,DL_Guitar,0.044750552624464035,0
68,100,0.1409090909090909,844,0,99,DL_Guitar,6,2,DL_Guitar,0.055225640535354614,0
61,100,0.2,876,0,99,DL_Guitar,6,3,DL_Guitar,0.09026490151882172,0
64,100,0.23636363636363636,40,1,100,DL_Guitar,6,4,DL_Guitar,0.9990057349205017,1
61,100,0.5,96,0,100,DL_Guitar,6,8,DL_Guitar,0.23119685053825378,0
61,100,0.6181818181818182,237,0,100,DL_Guitar,6,10,DL_Guitar,0.2659189999103546,0
64,100,0.5181818181818182,483,1,100,DL_Guitar,6,8,DL_Guitar,0.35420429706573486,0
57,100,0.18181818181818182,189,1,101,DL_Guitar,6,3,DL_Guitar,0.9990057349205017,1
52,100,0.1,282,0,101,DL_Guitar,6,2,DL_Guitar,0.23120154440402985,0
52,100,0.1,330,0,101,DL_Guitar,6,2,DL_Guitar,0.26592347025871277,0
52,100,0.38181818181818183,813,1,101,DL_Guitar,6,6,DL_Guitar,0.3542032837867737,0
64,100,0.11818181818181818,87,1,104,DL_Guitar,6,2,DL_Guitar,0.9983737468719482,1
57,100,0.2,255,0,104,DL_Guitar,6,3,DL_Guitar,0.05106164887547493,0
57,100,0.13636363636363635,370,0,104,DL_Guitar,6,2,DL_Guitar,0.041304562240839005,0
57,100,0.2590909090909091,413,0,104,DL_Guitar,6,4,DL_Guitar,0.03738712891936302,0
52,100,0.2590909090909091,480,0,104,DL_Guitar,6,4,DL_Guitar,0.03833239898085594,0
57,100,0.21818181818181817,536,0,104,DL_Guitar,6,3,DL_Guitar,0.044754087924957275,0
57,100,0.3,597,0,104,DL_Guitar,6,5,DL_Guitar,0.055232029408216476,0
57,100,0.8409090909090909,695,0,104,DL_Guitar,6,13,DL_Guitar,0.09026861935853958,0
64,100,0.18181818181818182,202,1,105,DL_Guitar,6,3,DL_Guitar,0.9792567491531372,1
52,100,0.6227272727272727,246,1,0,DL_Remix_emotional_folk_Guitar,6,10,DL_Remix_emotional_folk_Guitar,0.9986500144004822,1
59,100,0.2590909090909091,396,0,0,DL_Remix_emotional_folk_Guitar,6,4,DL_Remix_emotional_folk_Guitar,0.08780357986688614,0
59,100,0.2,492,0,0,DL_Remix_emotional_folk_Guitar,6,3,DL_Remix_emotional_folk_Guitar,0.09181314706802368,0
59,100,0.21818181818181817,559,0,0,DL_Remix_emotional_folk_Guitar,6,3,DL_Remix_emotional_folk_Guitar,0.10747767239809036,0
59,100,0.18181818181818182,752,0,0,DL_Remix_emotional_folk_Guitar,6,3,DL_Remix_emotional_folk_Guitar,0.1248248890042305,0
59,100,0.3,867,0,0,DL_Remix_emotional_folk_Guitar,6,5,DL_Remix_emotional_folk_Guitar,0.17903073132038116,0
59,100,0.3409090909090909,136,1,1,DL_Remix_emotional_folk_Guitar,6,5,DL_Remix_emotional_folk_Guitar,0.9990057349205017,1
52,100,0.32272727272727275,356,0,1,DL_Remix_emotional_folk_Guitar,6,5,DL_Remix_emotional_folk_Guitar,0.23120266199111938,0
59,100,0.4590909090909091,458,0,1,DL_Remix_emotional_folk_Guitar,6,7,DL_Remix_emotional_folk_Guitar,0.2659202516078949,0
61,100,0.18181818181818182,606,0,1,DL_Remix_emotional_folk_Guitar,6,3,DL_Remix_emotional_folk_Guitar,0.3541971445083618,0
66,100,0.2,663,1,2,DL_Remix_emotional_folk_Guitar,6,3,DL_Remix_emotional_folk_Guitar,0.9792565107345581,0
54,100,0.42272727272727273,34,1,3,DL_Remix_emotional_folk_Guitar,6,7,DL_Remix_emotional_folk_Guitar,0.9984880685806274,1
54,100,0.1409090909090909,131,0,3,DL_Remix_emotional_folk_Guitar,6,2,DL_Remix_emotional_folk_Guitar,0.06334568560123444,0
54,100,0.41818181818181815,396,1,3,DL_Remix_emotional_folk_Guitar,6,7,DL_Remix_emotional_folk_Guitar,0.057741548866033554,0
54,100,0.1590909090909091,506,0,3,DL_Remix_emotional_folk_Guitar,6,3,DL_Remix_emotional_folk_Guitar,0.060201071202754974,0
54,100,0.2818181818181818,553,0,3,DL_Remix_emotional_folk_Guitar,6,5,DL_Remix_emotional_folk_Guitar,0.06970124691724777,0
54,100,0.1590909090909091,629,0,3,DL_Remix_emotional_folk_Guitar,6,3,DL_Remix_emotional_folk_Guitar,0.08189316093921661,0
54,100,0.7,858,0,3,DL_Remix_emotional_folk_Guitar,6,11,DL_Remix_emotional_folk_Guitar,0.12401601672172546,0
54,100,0.38181818181818183,135,1,4,DL_Remix_emotional_folk_Guitar,6,6,DL_Remix_emotional_folk_Guitar,0.9986500144004822,1
54,100,0.1409090909090909,383,1,4,DL_Remix_emotional_folk_Guitar,6,2,DL_Remix_emotional_folk_Guitar,0.08780227601528168,0
54,100,0.17727272727272728,427,0,4,DL_Remix_emotional_folk_Guitar,6,3,DL_Remix_emotional_folk_Guitar,0.09181418269872665,0
59,100,0.6181818181818182,470,0,4,DL_Remix_emotional_folk_Guitar,6,10,DL_Remix_emotional_folk_Guitar,0.10747511684894562,0
54,100,0.11818181818181818,624,0,4,DL_Remix_emotional_folk_Guitar,6,2,DL_Remix_emotional_folk_Guitar,0.12482523173093796,0
59,100,0.6227272727272727,739,0,4,DL_Remix_emotional_folk_Guitar,6,10,DL_Remix_emotional_folk_Guitar,0.17903277277946472,0
59,100,0.1409090909090909,0,1,5,DL_Remix_emotional_folk_Guitar,6,2,DL_Remix_emotional_folk_Guitar,0.9990229606628418,1
54,100,0.18181818181818182,189,0,5,DL_Remix_emotional_folk_Guitar,6,3,DL_Remix_emotional_folk_Guitar,0.36662131547927856,0
59,100,0.1,782,1,5,DL_Remix_emotional_folk_Guitar,6,2,DL_Remix_emotional_folk_Guitar,0.45329320430755615,0
52,100,0.1409090909090909,0,1,6,DL_Remix_emotional_folk_Guitar,6,2,DL_Remix_emotional_folk_Guitar,0.9990057349205017,1
59,100,0.2409090909090909,245,1,6,DL_Remix_emotional_folk_Guitar,6,4,DL_Remix_emotional_folk_Guitar,0.23120369017124176,0
52,100,0.41818181818181815,440,0,6,DL_Remix_emotional_folk_Guitar,6,7,DL_Remix_emotional_folk_Guitar,0.26592692732810974,0
52,100,1.1227272727272728,871,1,6,DL_Remix_emotional_folk_Guitar,6,15,DL_Remix_emotional_folk_Guitar,0.35420018434524536,0
59,100,0.11818181818181818,263,1,7,DL_Remix_emotional_folk_Guitar,6,2,DL_Remix_emotional_folk_Guitar,0.9986500144004822,1
63,100,0.12272727272727273,541,1,7,DL_Remix_emotional_folk_Guitar,6,2,DL_Remix_emotional_folk_Guitar,0.08780333399772644,0
63,100,0.1,585,0,7,DL_Remix_emotional_folk_Guitar,6,2,DL_Remix_emotional_folk_Guitar,0.0918174758553505,0
63,100,0.2772727272727273,647,0,7,DL_Remix_emotional_folk_Guitar,6,4,DL_Remix_emotional_folk_Guitar,0.10748320817947388,0
63,100,0.22272727272727272,739,0,7,DL_Remix_emotional_folk_Guitar,6,4,DL_Remix_emotional_folk_Guitar,0.1248362734913826,0
63,100,0.2,826,0,7,DL_Remix_emotional_folk_Guitar,6,3,DL_Remix_emotional_folk_Guitar,0.17904509603977203,0
59,100,0.7,53,1,8,DL_Remix_emotional_folk_Guitar,6,11,DL_Remix_emotional_folk_Guitar,0.9990057349205017,1
59,100,0.4772727272727273,237,0,8,DL_Remix_emotional_folk_Guitar,6,8,DL_Remix_emotional_folk_Guitar,0.23120936751365662,0
56,100,0.22272727272727272,519,1,8,DL_Remix_emotional_folk_Guitar,6,4,DL_Remix_emotional_folk_Guitar,0.265922486782074,0
56,100,0.2636363636363636,818,1,8,DL_Remix_emotional_folk_Guitar,6,4,DL_Remix_emotional_folk_Guitar,0.3541945219039917,0
56,100,0.4818181818181818,3,1,9,DL_Remix_emotional_folk_Guitar,6,8,DL_Remix_emotional_folk_Guitar,0.9990057349205017,1
56,100,0.33636363636363636,259,1,9,DL_Remix_emotional_folk_Guitar,6,5,DL_Remix_emotional_folk_Guitar,0.2312157154083252,0
56,100,0.7636363636363637,553,1,9,DL_Remix_emotional_folk_Guitar,6,12,DL_Remix_emotional_folk_Guitar,0.2659299969673157,0
56,100,0.9818181818181818,725,0,9,DL_Remix_emotional_folk_Guitar,6,15,DL_Remix_emotional_folk_Guitar,0.35418349504470825,0
57,100,0.3409090909090909,144,1,10,DL_Remix_emotional_folk_Guitar,6,5,DL_Remix_emotional_folk_Guitar,0.9988419413566589,1
52,100,0.17727272727272728,369,0,10,DL_Remix_emotional_folk_Guitar,6,3,DL_Remix_emotional_folk_Guitar,0.13724608719348907,0
52,100,0.1,440,0,10,DL_Remix_emotional_folk_Guitar,6,2,DL_Remix_emotional_folk_Guitar,0.15977786481380463,0
64,100,0.18181818181818182,620,0,10,DL_Remix_emotional_folk_Guitar,6,3,DL_Remix_emotional_folk_Guitar,0.18644733726978302,0
64,100,0.12272727272727273,663,0,10,DL_Remix_emotional_folk_Guitar,6,2,DL_Remix_emotional_folk_Guitar,0.2581689953804016,0
59,100,0.12272727272727273,519,1,11,DL_Remix_emotional_folk_Guitar,6,2,DL_Remix_emotional_folk_Guitar,0.9983165264129639,1
59,100,0.5590909090909091,845,1,11,DL_Remix_emotional_folk_Guitar,6,9,DL_Remix_emotional_folk_Guitar,0.544548749923706,0
59,100,0.2,259,1,12,DL_Remix_emotional_folk_Guitar,6,3,DL_Remix_emotional_folk_Guitar,0.9990229606628418,1
52,100,0.11818181818181818,589,1,12,DL_Remix_emotional_folk_Guitar,6,2,DL_Remix_emotional_folk_Guitar,0.36661696434020996,0
59,100,0.18181818181818182,804,0,12,DL_Remix_emotional_folk_Guitar,6,3,DL_Remix_emotional_folk_Guitar,0.4532904624938965,0
63,100,0.7227272727272728,443,1,13,DL_Remix_emotional_folk_Guitar,6,12,DL_Remix_emotional_folk_Guitar,0.9990230798721313,1
59,100,0.2,606,0,13,DL_Remix_emotional_folk_Guitar,6,3,DL_Remix_emotional_folk_Guitar,0.36663758754730225,0
63,100,1.0,673,0,13,DL_Remix_emotional_folk_Guitar,6,15,DL_Remix_emotional_folk_Guitar,0.4532882273197174,0
56,100,1.3636363636363635,510,1,14,DL_Remix_emotional_folk_Guitar,6,15,DL_Remix_emotional_folk_Guitar,0.9792559146881104,0
56,100,0.3,273,1,15,DL_Remix_emotional_folk_Guitar,6,5,DL_Remix_emotional_folk_Guitar,0.9990057349205017,1
54,100,0.1409090909090909,629,1,15,DL_Remix_emotional_folk_Guitar,6,2,DL_Remix_emotional_folk_Guitar,0.2312031239271164,0
59,100,0.5363636363636364,744,0,15,DL_Remix_emotional_folk_Guitar,6,9,DL_Remix_emotional_folk_Guitar,0.265912801027298,0
52,100,0.7181818181818181,866,0,15,DL_Remix_emotional_folk_Guitar,6,11,DL_Remix_emotional_folk_Guitar,0.35419222712516785,0
57,100,0.7,144,1,16,DL_Remix_emotional_folk_Guitar,6,11,DL_Remix_emotional_folk_Guitar,0.9990229606628418,1
64,100,0.5409090909090909,299,0,16,DL_Remix_emotional_folk_Guitar,6,9,DL_Remix_emotional_folk_Guitar,0.3666239082813263,0
54,100,0.2409090909090909,440,0,16,DL_Remix_emotional_folk_Guitar,6,4,DL_Remix_emotional_folk_Guitar,0.45329615473747253,0
59,100,0.4409090909090909,52,1,17,DL_Remix_emotional_folk_Guitar,6,7,DL_Remix_emotional_folk_Guitar,0.9990057349205017,1
52,100,0.2,220,0,17,DL_Remix_emotional_folk_Guitar,6,3,DL_Remix_emotional_folk_Guitar,0.231205016374588,0
52,100,0.6818181818181818,351,0,17,DL_Remix_emotional_folk_Guitar,6,11,DL_Remix_emotional_folk_Guitar,0.2659243047237396,0
61,100,0.7,660,1,17,DL_Remix_emotional_folk_Guitar,6,11,DL_Remix_emotional_folk_Guitar,0.35419702529907227,0
54,100,0.2409090909090909,92,1,18,DL_Remix_emotional_folk_Guitar,6,4,DL_Remix_emotional_folk_Guitar,0.9988420605659485,1
54,100,0.1409090909090909,154,0,18,DL_Remix_emotional_folk_Guitar,6,2,DL_Remix_emotional_folk_Guitar,0.13724385201931,0
64,100,0.35909090909090907,395,1,18,DL_Remix_emotional_folk_Guitar,6,6,DL_Remix_emotional_folk_Guitar,0.15977631509304047,0
63,100,0.1409090909090909,515,0,18,DL_Remix_emotional_folk_Guitar,6,2,DL_Remix_emotional_folk_Guitar,0.18644236028194427,0
52,100,0.7,708,0,18,DL_Remix_emotional_folk_Guitar,6,11,DL_Remix_emotional_folk_Guitar,0.2581636905670166,0
57,100,0.2818181818181818,0,1,19,DL_Remix_emotional_folk_Guitar,6,5,DL_Remix_emotional_folk_Guitar,0.9983164072036743,1
64,100,0.5590909090909091,140,0,19,DL_Remix_emotional_folk_Guitar,6,9,DL_Remix_emotional_folk_Guitar,0.5445573925971985,0
59,100,0.2,351,1,20,DL_Remix_emotional_folk_Guitar,6,3,DL_Remix_emotional_folk_Guitar,0.9990057349205017,1
64,100,0.2590909090909091,492,0,20,DL_Remix_emotional_folk_Guitar,6,4,DL_Remix_emotional_folk_Guitar,0.2312077432870865,0
64,100,0.1590909090909091,650,0,20,DL_Remix_emotional_folk_Guitar,6,3,DL_Remix_emotional_folk_Guitar,0.26592952013015747,0
59,100,0.17727272727272728,831,0,20,DL_Remix_emotional_folk_Guitar,6,3,DL_Remix_emotional_folk_Guitar,0.35420534014701843,0
59,100,0.33636363636363636,106,1,21,DL_Remix_emotional_folk_Guitar,6,5,DL_Remix_emotional_folk_Guitar,0.9983165264129639,1
59,100,0.2818181818181818,708,1,21,DL_Remix_emotional_folk_Guitar,6,5,DL_Remix_emotional_folk_Guitar,0.5445556044578552,0
54,100,0.1,457,1,22,DL_Remix_emotional_folk_Guitar,6,2,DL_Remix_emotional_folk_Guitar,0.9986500144004822,1
66,100,0.2590909090909091,480,0,22,DL_Remix_emotional_folk_Guitar,6,4,DL_Remix_emotional_folk_Guitar,0.08780258893966675,0
59,100,0.18181818181818182,540,0,22,DL_Remix_emotional_folk_Guitar,6,3,DL_Remix_emotional_folk_Guitar,0.09181275218725204,0
66,100,0.2,625,0,22,DL_Remix_emotional_folk_Guitar,6,3,DL_Remix_emotional_folk_Guitar,0.10747528076171875,0
66,100,0.11818181818181818,704,0,22,DL_Remix_emotional_folk_Guitar,6,2,DL_Remix_emotional_folk_Guitar,0.12482357770204544,0
52,100,0.4590909090909091,791,0,22,DL_Remix_emotional_folk_Guitar,6,7,DL_Remix_emotional_folk_Guitar,0.17903047800064087,0
52,100,0.2,44,1,23,DL_Remix_emotional_folk_Guitar,6,3,DL_Remix_emotional_folk_Guitar,0.9986500144004822,1
57,100,0.7227272727272728,113,0,23,DL_Remix_emotional_folk_Guitar,6,12,DL_Remix_emotional_folk_Guitar,0.08780304342508316,0
64,100,0.2818181818181818,505,1,23,DL_Remix_emotional_folk_Guitar,6,5,DL_Remix_emotional_folk_Guitar,0.09181708842515945,0
57,100,0.16363636363636364,663,0,23,DL_Remix_emotional_folk_Guitar,6,3,DL_Remix_emotional_folk_Guitar,0.10748099535703659,0
57,100,0.3,717,0,23,DL_Remix_emotional_folk_Guitar,6,5,DL_Remix_emotional_folk_Guitar,0.12482892721891403,0
64,100,0.6590909090909091,822,0,23,DL_Remix_emotional_folk_Guitar,6,11,DL_Remix_emotional_folk_Guitar,0.17903821170330048,0
59,100,0.13636363636363635,106,1,24,DL_Remix_emotional_folk_Guitar,6,2,DL_Remix_emotional_folk_Guitar,0.9990229606628418,1
59,100,0.11818181818181818,303,0,24,DL_Remix_emotional_folk_Guitar,6,2,DL_Remix_emotional_folk_Guitar,0.3666163682937622,0
64,100,1.0772727272727274,700,1,24,DL_Remix_emotional_folk_Guitar,6,15,DL_Remix_emotional_folk_Guitar,0.45329350233078003,0
59,100,0.13636363636363635,260,1,25,DL_Remix_emotional_folk_Guitar,6,2,DL_Remix_emotional_folk_Guitar,0.9990057349205017,1
64,100,0.7181818181818181,308,0,25,DL_Remix_emotional_folk_Guitar,6,11,DL_Remix_emotional_folk_Guitar,0.2312043011188507,0
57,100,0.1,646,1,25,DL_Remix_emotional_folk_Guitar,6,2,DL_Remix_emotional_folk_Guitar,0.26591888070106506,0
64,100,0.35909090909090907,673,0,25,DL_Remix_emotional_folk_Guitar,6,6,DL_Remix_emotional_folk_Guitar,0.35420629382133484,0
64,100,0.1409090909090909,343,1,26,DL_Remix_emotional_folk_Guitar,6,2,DL_Remix_emotional_folk_Guitar,0.9986500144004822,1
59,100,0.3409090909090909,497,0,26,DL_Remix_emotional_folk_Guitar,6,5,DL_Remix_emotional_folk_Guitar,0.08780325949192047,0
54,100,0.18181818181818182,660,0,26,DL_Remix_emotional_folk_Guitar,6,3,DL_Remix_emotional_folk_Guitar,0.09181316941976547,0
66,100,0.1409090909090909,739,0,26,DL_Remix_emotional_folk_Guitar,6,2,DL_Remix_emotional_folk_Guitar,0.10747813433408737,0
66,100,0.12272727272727273,773,0,26,DL_Remix_emotional_folk_Guitar,6,2,DL_Remix_emotional_folk_Guitar,0.12482599169015884,0
66,100,0.3,804,0,26,DL_Remix_emotional_folk_Guitar,6,5,DL_Remix_emotional_folk_Guitar,0.17903432250022888,0
52,100,0.3181818181818182,17,1,27,DL_Remix_emotional_folk_Guitar,6,5,DL_Remix_emotional_folk_Guitar,0.9990230798721313,1
56,100,0.1409090909090909,268,1,27,DL_Remix_emotional_folk_Guitar,6,2,DL_Remix_emotional_folk_Guitar,0.36661702394485474,0
54,100,0.1,870,1,27,DL_Remix_emotional_folk_Guitar,6,2,DL_Remix_emotional_folk_Guitar,0.4532952606678009,0
56,100,0.2409090909090909,88,1,28,DL_Remix_emotional_folk_Guitar,6,4,DL_Remix_emotional_folk_Guitar,0.9983164072036743,1
61,100,0.2,378,1,28,DL_Remix_emotional_folk_Guitar,6,3,DL_Remix_emotional_folk_Guitar,0.5445521473884583,0
59,100,0.3409090909090909,52,1,29,DL_Remix_emotional_folk_Guitar,6,5,DL_Remix_emotional_folk_Guitar,0.9990057349205017,1
63,100,0.3,360,1,29,DL_Remix_emotional_folk_Guitar,6,5,DL_Remix_emotional_folk_Guitar,0.23120707273483276,0
63,100,0.3,656,1,29,DL_Remix_emotional_folk_Guitar,6,5,DL_Remix_emotional_folk_Guitar,0.2659386098384857,0
56,100,0.1409090909090909,752,0,29,DL_Remix_emotional_folk_Guitar,6,2,DL_Remix_emotional_folk_Guitar,0.35419589281082153,0
59,100,0.17727272727272728,30,1,30,DL_Remix_emotional_folk_Guitar,6,3,DL_Remix_emotional_folk_Guitar,0.9986500144004822,1
57,100,0.21818181818181817,206,0,30,DL_Remix_emotional_folk_Guitar,6,3,DL_Remix_emotional_folk_Guitar,0.08780690282583237,0
57,100,0.1590909090909091,264,0,30,DL_Remix_emotional_folk_Guitar,6,3,DL_Remix_emotional_folk_Guitar,0.09181815385818481,0
57,100,0.3181818181818182,505,1,30,DL_Remix_emotional_folk_Guitar,6,5,DL_Remix_emotional_folk_Guitar,0.1074850857257843,0
57,100,0.2,646,0,30,DL_Remix_emotional_folk_Guitar,6,3,DL_Remix_emotional_folk_Guitar,0.1248331218957901,0
57,100,0.7818181818181819,804,0,30,DL_Remix_emotional_folk_Guitar,6,13,DL_Remix_emotional_folk_Guitar,0.17904053628444672,0
57,100,0.1,193,1,31,DL_Remix_emotional_folk_Guitar,6,2,DL_Remix_emotional_folk_Guitar,0.9983164072036743,1
57,100,0.21818181818181817,241,0,31,DL_Remix_emotional_folk_Guitar,6,3,DL_Remix_emotional_folk_Guitar,0.5445594191551208,0
54,100,0.1,201,1,32,DL_Remix_emotional_folk_Guitar,6,2,DL_Remix_emotional_folk_Guitar,0.9983165264129639,1
63,100,0.2,531,1,32,DL_Remix_emotional_folk_Guitar,6,3,DL_Remix_emotional_folk_Guitar,0.5445531606674194,0
57,100,0.2409090909090909,228,1,33,DL_Remix_emotional_folk_Guitar,6,4,DL_Remix_emotional_folk_Guitar,0.9986500144004822,1
57,100,0.6181818181818182,426,0,33,DL_Remix_emotional_folk_Guitar,6,10,DL_Remix_emotional_folk_Guitar,0.08780606836080551,0
64,100,0.5,584,0,33,DL_Remix_emotional_folk_Guitar,6,8,DL_Remix_emotional_folk_Guitar,0.09181831777095795,0
64,100,0.2590909090909091,716,0,33,DL_Remix_emotional_folk_Guitar,6,4,DL_Remix_emotional_folk_Guitar,0.10748285055160522,0
59,100,0.22272727272727272,774,0,33,DL_Remix_emotional_folk_Guitar,6,4,DL_Remix_emotional_folk_Guitar,0.12483609467744827,0
64,100,0.5818181818181818,826,0,33,DL_Remix_emotional_folk_Guitar,6,9,DL_Remix_emotional_folk_Guitar,0.17904452979564667,0
52,100,0.2,110,1,34,DL_Remix_emotional_folk_Guitar,6,3,DL_Remix_emotional_folk_Guitar,0.9983004927635193,1
52,100,0.22272727272727272,158,0,34,DL_Remix_emotional_folk_Guitar,6,4,DL_Remix_emotional_folk_Guitar,0.04466373845934868,0
59,100,0.11818181818181818,295,0,34,DL_Remix_emotional_folk_Guitar,6,2,DL_Remix_emotional_folk_Guitar,0.03314971178770065,0
52,100,0.12272727272727273,378,0,34,DL_Remix_emotional_folk_Guitar,6,2,DL_Remix_emotional_folk_Guitar,0.026579855009913445,0
52,100,0.1409090909090909,418,0,34,DL_Remix_emotional_folk_Guitar,6,2,DL_Remix_emotional_folk_Guitar,0.02359539456665516,0
59,100,0.4,461,0,34,DL_Remix_emotional_folk_Guitar,6,6,DL_Remix_emotional_folk_Guitar,0.02431451715528965,0
59,100,0.3181818181818182,681,0,34,DL_Remix_emotional_folk_Guitar,6,5,DL_Remix_emotional_folk_Guitar,0.02968987263739109,0
59,100,0.1590909090909091,765,0,34,DL_Remix_emotional_folk_Guitar,6,3,DL_Remix_emotional_folk_Guitar,0.04007689282298088,0
52,100,0.2590909090909091,801,0,34,DL_Remix_emotional_folk_Guitar,6,4,DL_Remix_emotional_folk_Guitar,0.07092849165201187,0
52,100,0.4590909090909091,40,1,35,DL_Remix_emotional_folk_Guitar,6,7,DL_Remix_emotional_folk_Guitar,0.9984880685806274,1
64,100,0.13636363636363635,150,0,35,DL_Remix_emotional_folk_Guitar,6,2,DL_Remix_emotional_folk_Guitar,0.06334565579891205,0
64,100,0.18181818181818182,321,0,35,DL_Remix_emotional_folk_Guitar,6,3,DL_Remix_emotional_folk_Guitar,0.05774194374680519,0
64,100,0.1409090909090909,440,0,35,DL_Remix_emotional_folk_Guitar,6,2,DL_Remix_emotional_folk_Guitar,0.06020409241318703,0
52,100,0.1409090909090909,471,0,35,DL_Remix_emotional_folk_Guitar,6,2,DL_Remix_emotional_folk_Guitar,0.06970356404781342,0
59,100,0.1409090909090909,664,0,35,DL_Remix_emotional_folk_Guitar,6,2,DL_Remix_emotional_folk_Guitar,0.08189865201711655,0
59,100,0.3181818181818182,743,0,35,DL_Remix_emotional_folk_Guitar,6,5,DL_Remix_emotional_folk_Guitar,0.12402361631393433,0
64,100,0.13636363636363635,150,1,36,DL_Remix_emotional_folk_Guitar,6,2,DL_Remix_emotional_folk_Guitar,0.9986500144004822,1
59,100,0.12272727272727273,399,1,36,DL_Remix_emotional_folk_Guitar,6,2,DL_Remix_emotional_folk_Guitar,0.08780373632907867,0
59,100,0.3,496,0,36,DL_Remix_emotional_folk_Guitar,6,5,DL_Remix_emotional_folk_Guitar,0.09181179851293564,0
60,100,0.17727272727272728,603,0,36,DL_Remix_emotional_folk_Guitar,6,3,DL_Remix_emotional_folk_Guitar,0.10747607052326202,0
60,100,0.2590909090909091,668,0,36,DL_Remix_emotional_folk_Guitar,6,4,DL_Remix_emotional_folk_Guitar,0.12482242286205292,0
61,100,0.1409090909090909,866,0,36,DL_Remix_emotional_folk_Guitar,6,2,DL_Remix_emotional_folk_Guitar,0.1790284663438797,0
61,100,0.3,144,1,37,DL_Remix_emotional_folk_Guitar,6,5,DL_Remix_emotional_folk_Guitar,0.979255735874176,0
66,100,0.1590909090909091,34,1,38,DL_Remix_emotional_folk_Guitar,6,3,DL_Remix_emotional_folk_Guitar,0.9988420605659485,1
66,100,0.1590909090909091,150,0,38,DL_Remix_emotional_folk_Guitar,6,3,DL_Remix_emotional_folk_Guitar,0.13724680244922638,0
66,100,0.1590909090909091,241,0,38,DL_Remix_emotional_folk_Guitar,6,3,DL_Remix_emotional_folk_Guitar,0.15977847576141357,0
63,100,0.21818181818181817,461,0,38,DL_Remix_emotional_folk_Guitar,6,3,DL_Remix_emotional_folk_Guitar,0.1864427626132965,0
63,100,0.32272727272727275,598,0,38,DL_Remix_emotional_folk_Guitar,6,5,DL_Remix_emotional_folk_Guitar,0.2581678628921509,0
56,100,0.4,241,1,39,DL_Remix_emotional_folk_Guitar,6,6,DL_Remix_emotional_folk_Guitar,0.9988419413566589,1
56,100,0.1,373,0,39,DL_Remix_emotional_folk_Guitar,6,2,DL_Remix_emotional_folk_Guitar,0.13724932074546814,0
56,100,1.0227272727272727,399,0,39,DL_Remix_emotional_folk_Guitar,6,15,DL_Remix_emotional_folk_Guitar,0.15976986289024353,0
57,100,0.1590909090909091,735,1,39,DL_Remix_emotional_folk_Guitar,6,3,DL_Remix_emotional_folk_Guitar,0.1864415556192398,0
57,100,0.3409090909090909,866,0,39,DL_Remix_emotional_folk_Guitar,6,5,DL_Remix_emotional_folk_Guitar,0.2581539750099182,0
57,100,0.4590909090909091,150,1,40,DL_Remix_emotional_folk_Guitar,6,7,DL_Remix_emotional_folk_Guitar,0.9984880685806274,1
57,100,0.12272727272727273,268,0,40,DL_Remix_emotional_folk_Guitar,6,2,DL_Remix_emotional_folk_Guitar,0.06334684044122696,0
64,100,0.7181818181818181,303,0,40,DL_Remix_emotional_folk_Guitar,6,11,DL_Remix_emotional_folk_Guitar,0.0577436201274395,0
64,100,0.3409090909090909,576,1,40,DL_Remix_emotional_folk_Guitar,6,5,DL_Remix_emotional_folk_Guitar,0.06020725145936012,0
57,100,0.5590909090909091,651,0,40,DL_Remix_emotional_folk_Guitar,6,9,DL_Remix_emotional_folk_Guitar,0.06970622390508652,0
52,100,0.2590909090909091,778,0,40,DL_Remix_emotional_folk_Guitar,6,4,DL_Remix_emotional_folk_Guitar,0.08190198242664337,0
57,100,0.37727272727272726,845,0,40,DL_Remix_emotional_folk_Guitar,6,6,DL_Remix_emotional_folk_Guitar,0.1240231916308403,0
57,100,0.2,61,1,41,DL_Remix_emotional_folk_Guitar,6,3,DL_Remix_emotional_folk_Guitar,0.9983737468719482,1
57,100,0.3,123,0,41,DL_Remix_emotional_folk_Guitar,6,5,DL_Remix_emotional_folk_Guitar,0.05106135085225105,0
59,100,0.18181818181818182,241,0,41,DL_Remix_emotional_folk_Guitar,6,3,DL_Remix_emotional_folk_Guitar,0.04130515083670616,0
59,100,0.7363636363636363,348,0,41,DL_Remix_emotional_folk_Guitar,6,12,DL_Remix_emotional_folk_Guitar,0.03738723322749138,0
64,100,0.3181818181818182,616,1,41,DL_Remix_emotional_folk_Guitar,6,5,DL_Remix_emotional_folk_Guitar,0.038330111652612686,0
52,100,0.11818181818181818,713,0,41,DL_Remix_emotional_folk_Guitar,6,2,DL_Remix_emotional_folk_Guitar,0.04475381225347519,0
64,100,0.22272727272727272,738,0,41,DL_Remix_emotional_folk_Guitar,6,4,DL_Remix_emotional_folk_Guitar,0.05522941052913666,0
52,100,0.4,796,0,41,DL_Remix_emotional_folk_Guitar,6,6,DL_Remix_emotional_folk_Guitar,0.09026830643415451,0
64,100,0.3,4,1,42,DL_Remix_emotional_folk_Guitar,6,5,DL_Remix_emotional_folk_Guitar,0.9983003735542297,1
52,100,0.21818181818181817,75,0,42,DL_Remix_emotional_folk_Guitar,6,3,DL_Remix_emotional_folk_Guitar,0.04466395825147629,0
64,100,0.3,163,0,42,DL_Remix_emotional_folk_Guitar,6,5,DL_Remix_emotional_folk_Guitar,0.03315049037337303,0
52,100,0.42272727272727273,254,0,42,DL_Remix_emotional_folk_Guitar,6,7,DL_Remix_emotional_folk_Guitar,0.02658122405409813,0
52,100,0.1590909090909091,351,0,42,DL_Remix_emotional_folk_Guitar,6,3,DL_Remix_emotional_folk_Guitar,0.023596234619617462,0
52,100,0.759090909090909,396,0,42,DL_Remix_emotional_folk_Guitar,6,12,DL_Remix_emotional_folk_Guitar,0.024316024035215378,0
57,100,0.1409090909090909,571,0,42,DL_Remix_emotional_folk_Guitar,6,2,DL_Remix_emotional_folk_Guitar,0.029691658914089203,0
61,100,0.2818181818181818,791,0,42,DL_Remix_emotional_folk_Guitar,6,5,DL_Remix_emotional_folk_Guitar,0.0400795079767704,0
54,100,0.11818181818181818,858,0,42,DL_Remix_emotional_folk_Guitar,6,2,DL_Remix_emotional_folk_Guitar,0.0709337368607521,0
54,100,0.2,18,1,43,DL_Remix_emotional_folk_Guitar,6,3,DL_Remix_emotional_folk_Guitar,0.9986500144004822,1
54,100,0.2,91,0,43,DL_Remix_emotional_folk_Guitar,6,3,DL_Remix_emotional_folk_Guitar,0.08780300617218018,0
54,100,1.7772727272727273,141,0,43,DL_Remix_emotional_folk_Guitar,6,15,DL_Remix_emotional_folk_Guitar,0.09181131422519684,0
54,100,0.13636363636363635,590,1,43,DL_Remix_emotional_folk_Guitar,6,2,DL_Remix_emotional_folk_Guitar,0.1074770838022232,0
66,100,0.2818181818181818,619,0,43,DL_Remix_emotional_folk_Guitar,6,5,DL_Remix_emotional_folk_Guitar,0.12482073158025742,0
54,100,0.1409090909090909,726,0,43,DL_Remix_emotional_folk_Guitar,6,2,DL_Remix_emotional_folk_Guitar,0.17902609705924988,0
52,100,0.1409090909090909,43,1,44,DL_Remix_emotional_folk_Guitar,6,2,DL_Remix_emotional_folk_Guitar,0.9988419413566589,1
64,100,0.2590909090909091,351,1,44,DL_Remix_emotional_folk_Guitar,6,4,DL_Remix_emotional_folk_Guitar,0.13724897801876068,0
57,100,0.4,418,0,44,DL_Remix_emotional_folk_Guitar,6,6,DL_Remix_emotional_folk_Guitar,0.1597798764705658,0
66,100,0.2,729,1,44,DL_Remix_emotional_folk_Guitar,6,3,DL_Remix_emotional_folk_Guitar,0.18645735085010529,0
66,100,0.11818181818181818,831,0,44,DL_Remix_emotional_folk_Guitar,6,2,DL_Remix_emotional_folk_Guitar,0.25817039608955383,0
66,100,0.11818181818181818,43,1,45,DL_Remix_emotional_folk_Guitar,6,2,DL_Remix_emotional_folk_Guitar,0.9990057349205017,1
64,100,0.6409090909090909,431,1,45,DL_Remix_emotional_folk_Guitar,6,10,DL_Remix_emotional_folk_Guitar,0.2312016785144806,0
59,100,0.5590909090909091,628,0,45,DL_Remix_emotional_folk_Guitar,6,9,DL_Remix_emotional_folk_Guitar,0.26591891050338745,0
64,100,0.8,861,1,45,DL_Remix_emotional_folk_Guitar,6,13,DL_Remix_emotional_folk_Guitar,0.35419732332229614,0
64,100,0.37727272727272726,193,1,46,DL_Remix_emotional_folk_Guitar,6,6,DL_Remix_emotional_folk_Guitar,0.9990057349205017,1
59,100,0.7,289,0,46,DL_Remix_emotional_folk_Guitar,6,11,DL_Remix_emotional_folk_Guitar,0.2312043458223343,0
64,100,1.3181818181818181,448,0,46,DL_Remix_emotional_folk_Guitar,6,15,DL_Remix_emotional_folk_Guitar,0.265921413898468,0
52,100,0.11818181818181818,831,1,46,DL_Remix_emotional_folk_Guitar,6,2,DL_Remix_emotional_folk_Guitar,0.35420283675193787,0
57,100,0.5818181818181818,373,1,47,DL_Remix_emotional_folk_Guitar,6,9,DL_Remix_emotional_folk_Guitar,0.979256272315979,0
54,100,0.1590909090909091,198,1,48,DL_Remix_emotional_folk_Guitar,6,3,DL_Remix_emotional_folk_Guitar,0.9990057349205017,1
63,100,0.12272727272727273,298,0,48,DL_Remix_emotional_folk_Guitar,6,2,DL_Remix_emotional_folk_Guitar,0.23119895160198212,0
63,100,0.5590909090909091,523,0,48,DL_Remix_emotional_folk_Guitar,6,9,DL_Remix_emotional_folk_Guitar,0.2659202218055725,0
54,100,0.1590909090909091,703,0,48,DL_Remix_emotional_folk_Guitar,6,3,DL_Remix_emotional_folk_Guitar,0.3542080223560333,0
59,100,0.4,118,1,49,DL_Remix_emotional_folk_Guitar,6,6,DL_Remix_emotional_folk_Guitar,0.9990229606628418,1
59,100,0.11818181818181818,260,0,49,DL_Remix_emotional_folk_Guitar,6,2,DL_Remix_emotional_folk_Guitar,0.3666253387928009,0
54,100,0.2409090909090909,295,0,49,DL_Remix_emotional_folk_Guitar,6,4,DL_Remix_emotional_folk_Guitar,0.45329320430755615,0
56,100,0.2,83,1,50,DL_Remix_emotional_folk_Guitar,6,3,DL_Remix_emotional_folk_Guitar,0.9990229606628418,1
56,100,0.5590909090909091,515,1,50,DL_Remix_emotional_folk_Guitar,6,9,DL_Remix_emotional_folk_Guitar,0.36662644147872925,0
56,100,0.759090909090909,700,0,50,DL_Remix_emotional_folk_Guitar,6,12,DL_Remix_emotional_folk_Guitar,0.45328488945961,0
59,100,0.2636363636363636,378,1,53,DL_Remix_emotional_folk_Guitar,6,4,DL_Remix_emotional_folk_Guitar,0.9990229606628418,1
59,100,0.1409090909090909,440,0,53,DL_Remix_emotional_folk_Guitar,6,2,DL_Remix_emotional_folk_Guitar,0.36663106083869934,0
57,100,0.6409090909090909,506,0,53,DL_Remix_emotional_folk_Guitar,6,10,DL_Remix_emotional_folk_Guitar,0.4532824456691742,0
63,100,0.11818181818181818,440,1,54,DL_Remix_emotional_folk_Guitar,6,2,DL_Remix_emotional_folk_Guitar,0.9983165264129639,1
57,100,0.2409090909090909,584,0,54,DL_Remix_emotional_folk_Guitar,6,4,DL_Remix_emotional_folk_Guitar,0.5445687174797058,0
57,100,0.6818181818181818,0,1,55,DL_Remix_emotional_folk_Guitar,6,11,DL_Remix_emotional_folk_Guitar,0.9986500144004822,1
64,100,0.7,163,0,55,DL_Remix_emotional_folk_Guitar,6,11,DL_Remix_emotional_folk_Guitar,0.08780521899461746,0
64,100,0.5181818181818182,483,1,55,DL_Remix_emotional_folk_Guitar,6,8,DL_Remix_emotional_folk_Guitar,0.09181835502386093,0
52,100,0.11818181818181818,616,0,55,DL_Remix_emotional_folk_Guitar,6,2,DL_Remix_emotional_folk_Guitar,0.1074843555688858,0
57,100,0.11818181818181818,646,0,55,DL_Remix_emotional_folk_Guitar,6,2,DL_Remix_emotional_folk_Guitar,0.12483297288417816,0
57,100,0.5,729,0,55,DL_Remix_emotional_folk_Guitar,6,8,DL_Remix_emotional_folk_Guitar,0.1790492981672287,0
59,100,0.12272727272727273,233,1,56,DL_Remix_emotional_folk_Guitar,6,2,DL_Remix_emotional_folk_Guitar,0.9983165264129639,1
59,100,0.11818181818181818,330,0,56,DL_Remix_emotional_folk_Guitar,6,2,DL_Remix_emotional_folk_Guitar,0.5445586442947388,0
64,100,0.2818181818181818,0,1,57,DL_Remix_emotional_folk_Guitar,6,5,DL_Remix_emotional_folk_Guitar,0.9983736276626587,1
64,100,0.8,118,0,57,DL_Remix_emotional_folk_Guitar,6,13,DL_Remix_emotional_folk_Guitar,0.051061082631349564,0
76,100,0.1590909090909091,295,0,57,DL_Remix_emotional_folk_Guitar,6,3,DL_Remix_emotional_folk_Guitar,0.04130430147051811,0
52,100,0.2636363636363636,334,0,57,DL_Remix_emotional_folk_Guitar,6,4,DL_Remix_emotional_folk_Guitar,0.03738772124052048,0
52,100,0.6,405,0,57,DL_Remix_emotional_folk_Guitar,6,10,DL_Remix_emotional_folk_Guitar,0.038331709802150726,0
64,100,0.33636363636363636,611,0,57,DL_Remix_emotional_folk_Guitar,6,5,DL_Remix_emotional_folk_Guitar,0.044753871858119965,0
52,100,0.21818181818181817,721,0,57,DL_Remix_emotional_folk_Guitar,6,3,DL_Remix_emotional_folk_Guitar,0.05523316562175751,0
52,100,0.1409090909090909,796,0,57,DL_Remix_emotional_folk_Guitar,6,2,DL_Remix_emotional_folk_Guitar,0.09026967734098434,0
59,100,0.21818181818181817,75,1,58,DL_Remix_emotional_folk_Guitar,6,3,DL_Remix_emotional_folk_Guitar,0.9986500144004822,1
54,100,0.1590909090909091,298,0,58,DL_Remix_emotional_folk_Guitar,6,3,DL_Remix_emotional_folk_Guitar,0.08780338615179062,0
64,100,0.2818181818181818,386,0,58,DL_Remix_emotional_folk_Guitar,6,5,DL_Remix_emotional_folk_Guitar,0.09181414544582367,0
52,100,0.35909090909090907,483,0,58,DL_Remix_emotional_folk_Guitar,6,6,DL_Remix_emotional_folk_Guitar,0.10747861862182617,0
64,100,0.33636363636363636,678,0,58,DL_Remix_emotional_folk_Guitar,6,5,DL_Remix_emotional_folk_Guitar,0.12482768297195435,0
61,100,0.11818181818181818,813,0,58,DL_Remix_emotional_folk_Guitar,6,2,DL_Remix_emotional_folk_Guitar,0.17903748154640198,0
66,100,0.12272727272727273,598,1,59,DL_Remix_emotional_folk_Guitar,6,2,DL_Remix_emotional_folk_Guitar,0.9792571067810059,0
59,100,0.4590909090909091,144,1,60,DL_Remix_emotional_folk_Guitar,6,7,DL_Remix_emotional_folk_Guitar,0.9988419413566589,1
59,100,0.2590909090909091,493,1,60,DL_Remix_emotional_folk_Guitar,6,4,DL_Remix_emotional_folk_Guitar,0.1372455209493637,0
59,100,0.3,633,0,60,DL_Remix_emotional_folk_Guitar,6,5,DL_Remix_emotional_folk_Guitar,0.1597762405872345,0
64,100,0.1409090909090909,708,0,60,DL_Remix_emotional_folk_Guitar,6,2,DL_Remix_emotional_folk_Guitar,0.18644660711288452,0
64,100,0.17727272727272728,801,0,60,DL_Remix_emotional_folk_Guitar,6,3,DL_Remix_emotional_folk_Guitar,0.25816696882247925,0
52,100,0.1590909090909091,40,1,61,DL_Remix_emotional_folk_Guitar,6,3,DL_Remix_emotional_folk_Guitar,0.9990057349205017,1
66,100,0.2818181818181818,466,1,61,DL_Remix_emotional_folk_Guitar,6,5,DL_Remix_emotional_folk_Guitar,0.23120608925819397,0
66,100,0.12272727272727273,576,0,61,DL_Remix_emotional_folk_Guitar,6,2,DL_Remix_emotional_folk_Guitar,0.26592785120010376,0
61,100,0.42272727272727273,738,0,61,DL_Remix_emotional_folk_Guitar,6,7,DL_Remix_emotional_folk_Guitar,0.3541897237300873,0
57,100,0.41818181818181815,43,1,62,DL_Remix_emotional_folk_Guitar,6,7,DL_Remix_emotional_folk_Guitar,0.9990057349205017,1
61,100,0.2818181818181818,408,1,62,DL_Remix_emotional_folk_Guitar,6,5,DL_Remix_emotional_folk_Guitar,0.23121102154254913,0
64,100,0.1409090909090909,668,1,62,DL_Remix_emotional_folk_Guitar,6,2,DL_Remix_emotional_folk_Guitar,0.26592546701431274,0
57,100,0.2,788,0,62,DL_Remix_emotional_folk_Guitar,6,3,DL_Remix_emotional_folk_Guitar,0.35419827699661255,0
76,100,1.3590909090909091,145,1,64,DL_Remix_emotional_folk_Guitar,6,15,DL_Remix_emotional_folk_Guitar,0.9990229606628418,1
52,100,1.3227272727272728,453,1,64,DL_Remix_emotional_folk_Guitar,6,15,DL_Remix_emotional_folk_Guitar,0.36662009358406067,0
52,100,0.11818181818181818,792,1,64,DL_Remix_emotional_folk_Guitar,6,2,DL_Remix_emotional_folk_Guitar,0.45329827070236206,0
59,100,0.6227272727272727,333,1,65,DL_Remix_emotional_folk_Guitar,6,10,DL_Remix_emotional_folk_Guitar,0.9990057349205017,1
52,100,0.12272727272727273,540,0,65,DL_Remix_emotional_folk_Guitar,6,2,DL_Remix_emotional_folk_Guitar,0.23120297491550446,0
52,100,0.38181818181818183,663,0,65,DL_Remix_emotional_folk_Guitar,6,6,DL_Remix_emotional_folk_Guitar,0.26591232419013977,0
64,100,0.1590909090909091,832,0,65,DL_Remix_emotional_folk_Guitar,6,3,DL_Remix_emotional_folk_Guitar,0.3541993796825409,0
59,100,0.2818181818181818,430,1,66,DL_Remix_emotional_folk_Guitar,6,5,DL_Remix_emotional_folk_Guitar,0.9792559146881104,0
64,100,0.1,360,1,67,DL_Remix_emotional_folk_Guitar,6,2,DL_Remix_emotional_folk_Guitar,0.9990057349205017,1
61,100,0.3,383,0,67,DL_Remix_emotional_folk_Guitar,6,5,DL_Remix_emotional_folk_Guitar,0.2312002182006836,0
61,100,0.18181818181818182,519,0,67,DL_Remix_emotional_folk_Guitar,6,3,DL_Remix_emotional_folk_Guitar,0.26592347025871277,0
61,100,0.2818181818181818,642,0,67,DL_Remix_emotional_folk_Guitar,6,5,DL_Remix_emotional_folk_Guitar,0.3541964888572693,0
61,100,0.21818181818181817,612,1,68,DL_Remix_emotional_folk_Guitar,6,3,DL_Remix_emotional_folk_Guitar,0.9983164072036743,1
56,100,0.35909090909090907,844,1,68,DL_Remix_emotional_folk_Guitar,6,6,DL_Remix_emotional_folk_Guitar,0.5445516109466553,0
59,100,0.8590909090909091,110,1,69,DL_Remix_emotional_folk_Guitar,6,14,DL_Remix_emotional_folk_Guitar,0.9988419413566589,1
59,100,0.1,443,1,69,DL_Remix_emotional_folk_Guitar,6,2,DL_Remix_emotional_folk_Guitar,0.13724760711193085,0
56,100,0.12272727272727273,585,0,69,DL_Remix_emotional_folk_Guitar,6,2,DL_Remix_emotional_folk_Guitar,0.15977101027965546,0
59,100,0.8227272727272728,695,0,69,DL_Remix_emotional_folk_Guitar,6,13,DL_Remix_emotional_folk_Guitar,0.18645019829273224,0
63,100,0.21818181818181817,876,0,69,DL_Remix_emotional_folk_Guitar,6,3,DL_Remix_emotional_folk_Guitar,0.258161723613739,0
63,100,0.12272727272727273,56,1,70,DL_Remix_emotional_folk_Guitar,6,2,DL_Remix_emotional_folk_Guitar,0.9988419413566589,1
64,100,0.17727272727272728,83,0,70,DL_Remix_emotional_folk_Guitar,6,3,DL_Remix_emotional_folk_Guitar,0.13725070655345917,0
64,100,0.42272727272727273,386,1,70,DL_Remix_emotional_folk_Guitar,6,7,DL_Remix_emotional_folk_Guitar,0.15978270769119263,0
57,100,0.11818181818181818,536,0,70,DL_Remix_emotional_folk_Guitar,6,2,DL_Remix_emotional_folk_Guitar,0.18645521998405457,0
64,100,0.8181818181818182,580,0,70,DL_Remix_emotional_folk_Guitar,6,13,DL_Remix_emotional_folk_Guitar,0.2581757605075836,0
57,100,0.4590909090909091,127,1,71,DL_Remix_emotional_folk_Guitar,6,7,DL_Remix_emotional_folk_Guitar,0.9990229606628418,1
64,100,0.16363636363636364,729,1,71,DL_Remix_emotional_folk_Guitar,6,3,DL_Remix_emotional_folk_Guitar,0.3666295111179352,0
64,100,0.1,832,0,71,DL_Remix_emotional_folk_Guitar,6,2,DL_Remix_emotional_folk_Guitar,0.45329761505126953,0
59,100,0.2636363636363636,179,1,72,DL_Remix_emotional_folk_Guitar,6,4,DL_Remix_emotional_folk_Guitar,0.9986500144004822,1
59,100,1.1590909090909092,260,0,72,DL_Remix_emotional_folk_Guitar,6,15,DL_Remix_emotional_folk_Guitar,0.08779945969581604,0
59,100,0.43636363636363634,567,1,72,DL_Remix_emotional_folk_Guitar,6,7,DL_Remix_emotional_folk_Guitar,0.0918116346001625,0
64,100,0.1409090909090909,663,0,72,DL_Remix_emotional_folk_Guitar,6,2,DL_Remix_emotional_folk_Guitar,0.10747459530830383,0
59,100,0.21818181818181817,726,0,72,DL_Remix_emotional_folk_Guitar,6,3,DL_Remix_emotional_folk_Guitar,0.12482264637947083,0
66,100,0.11818181818181818,823,0,72,DL_Remix_emotional_folk_Guitar,6,2,DL_Remix_emotional_folk_Guitar,0.1790335327386856,0
54,100,0.41818181818181815,30,1,73,DL_Remix_emotional_folk_Guitar,6,7,DL_Remix_emotional_folk_Guitar,0.9990057349205017,1
54,100,0.2590909090909091,172,0,73,DL_Remix_emotional_folk_Guitar,6,4,DL_Remix_emotional_folk_Guitar,0.23120251297950745,0
54,100,0.1590909090909091,286,0,73,DL_Remix_emotional_folk_Guitar,6,3,DL_Remix_emotional_folk_Guitar,0.2659218907356262,0
66,100,0.22272727272727272,430,0,73,DL_Remix_emotional_folk_Guitar,6,4,DL_Remix_emotional_folk_Guitar,0.35419732332229614,0
61,100,0.17727272727272728,260,1,74,DL_Remix_emotional_folk_Guitar,6,3,DL_Remix_emotional_folk_Guitar,0.9983164072036743,1
64,100,0.1409090909090909,792,1,74,DL_Remix_emotional_folk_Guitar,6,2,DL_Remix_emotional_folk_Guitar,0.5445617437362671,0
61,100,0.21818181818181817,30,1,75,DL_Remix_emotional_folk_Guitar,6,3,DL_Remix_emotional_folk_Guitar,0.9983003735542297,1
59,100,0.17727272727272728,250,0,75,DL_Remix_emotional_folk_Guitar,6,3,DL_Remix_emotional_folk_Guitar,0.04466422274708748,0
59,100,0.11818181818181818,303,0,75,DL_Remix_emotional_folk_Guitar,6,2,DL_Remix_emotional_folk_Guitar,0.033149924129247665,0
59,100,0.38181818181818183,333,0,75,DL_Remix_emotional_folk_Guitar,6,6,DL_Remix_emotional_folk_Guitar,0.02657940983772278,0
71,100,0.1409090909090909,487,0,75,DL_Remix_emotional_folk_Guitar,6,2,DL_Remix_emotional_folk_Guitar,0.023595646023750305,0
59,100,0.2409090909090909,563,0,75,DL_Remix_emotional_folk_Guitar,6,4,DL_Remix_emotional_folk_Guitar,0.024314099922776222,0
52,100,0.1590909090909091,722,0,75,DL_Remix_emotional_folk_Guitar,6,3,DL_Remix_emotional_folk_Guitar,0.02969057485461235,0
61,100,0.12272727272727273,783,0,75,DL_Remix_emotional_folk_Guitar,6,2,DL_Remix_emotional_folk_Guitar,0.040075287222862244,0
52,100,0.1,866,0,75,DL_Remix_emotional_folk_Guitar,6,2,DL_Remix_emotional_folk_Guitar,0.07093203812837601,0
52,100,0.3,56,1,76,DL_Remix_emotional_folk_Guitar,6,5,DL_Remix_emotional_folk_Guitar,0.9983736276626587,1
57,100,0.4409090909090909,157,0,76,DL_Remix_emotional_folk_Guitar,6,7,DL_Remix_emotional_folk_Guitar,0.05106138810515404,0
76,100,0.2590909090909091,273,0,76,DL_Remix_emotional_folk_Guitar,6,4,DL_Remix_emotional_folk_Guitar,0.04130543768405914,0
57,100,0.5181818181818182,339,0,76,DL_Remix_emotional_folk_Guitar,6,8,DL_Remix_emotional_folk_Guitar,0.037388090044260025,0
52,100,0.4409090909090909,509,0,76,DL_Remix_emotional_folk_Guitar,6,7,DL_Remix_emotional_folk_Guitar,0.03833237662911415,0
52,100,0.2409090909090909,747,1,76,DL_Remix_emotional_folk_Guitar,6,4,DL_Remix_emotional_folk_Guitar,0.044754527509212494,0
64,100,0.17727272727272728,800,0,76,DL_Remix_emotional_folk_Guitar,6,3,DL_Remix_emotional_folk_Guitar,0.055232372134923935,0
64,100,1.0,849,0,76,DL_Remix_emotional_folk_Guitar,6,15,DL_Remix_emotional_folk_Guitar,0.09026861935853958,0
54,100,0.11818181818181818,193,1,77,DL_Remix_emotional_folk_Guitar,6,2,DL_Remix_emotional_folk_Guitar,0.9988419413566589,1
63,100,0.2409090909090909,255,0,77,DL_Remix_emotional_folk_Guitar,6,4,DL_Remix_emotional_folk_Guitar,0.13724678754806519,0
64,100,0.11818181818181818,480,0,77,DL_Remix_emotional_folk_Guitar,6,2,DL_Remix_emotional_folk_Guitar,0.15978029370307922,0
64,100,0.2409090909090909,585,0,77,DL_Remix_emotional_folk_Guitar,6,4,DL_Remix_emotional_folk_Guitar,0.18645349144935608,0
64,100,0.5409090909090909,690,0,77,DL_Remix_emotional_folk_Guitar,6,9,DL_Remix_emotional_folk_Guitar,0.25817084312438965,0
56,100,0.3181818181818182,150,1,78,DL_Remix_emotional_folk_Guitar,6,5,DL_Remix_emotional_folk_Guitar,0.9988419413566589,1
61,100,0.1,307,0,78,DL_Remix_emotional_folk_Guitar,6,2,DL_Remix_emotional_folk_Guitar,0.13724064826965332,0
64,100,0.23636363636363636,502,0,78,DL_Remix_emotional_folk_Guitar,6,4,DL_Remix_emotional_folk_Guitar,0.15977193415164948,0
61,100,0.11818181818181818,660,0,78,DL_Remix_emotional_folk_Guitar,6,2,DL_Remix_emotional_folk_Guitar,0.1864408254623413,0
64,100,0.2,866,0,78,DL_Remix_emotional_folk_Guitar,6,3,DL_Remix_emotional_folk_Guitar,0.25816377997398376,0
57,100,0.2772727272727273,40,1,79,DL_Remix_emotional_folk_Guitar,6,4,DL_Remix_emotional_folk_Guitar,0.9983737468719482,1
57,100,0.2590909090909091,110,0,79,DL_Remix_emotional_folk_Guitar,6,4,DL_Remix_emotional_folk_Guitar,0.05106122046709061,0
64,100,0.11818181818181818,176,0,79,DL_Remix_emotional_folk_Guitar,6,2,DL_Remix_emotional_folk_Guitar,0.04130402207374573,0
57,100,0.37727272727272726,206,0,79,DL_Remix_emotional_folk_Guitar,6,6,DL_Remix_emotional_folk_Guitar,0.03738662227988243,0
52,100,0.2409090909090909,470,1,79,DL_Remix_emotional_folk_Guitar,6,4,DL_Remix_emotional_folk_Guitar,0.038330357521772385,0
64,100,0.6590909090909091,624,0,79,DL_Remix_emotional_folk_Guitar,6,11,DL_Remix_emotional_folk_Guitar,0.04475214332342148,0
52,100,0.1,773,0,79,DL_Remix_emotional_folk_Guitar,6,2,DL_Remix_emotional_folk_Guitar,0.055231161415576935,0
64,100,0.4818181818181818,796,0,79,DL_Remix_emotional_folk_Guitar,6,8,DL_Remix_emotional_folk_Guitar,0.09026830643415451,0
64,100,0.2409090909090909,422,1,80,DL_Remix_emotional_folk_Guitar,6,4,DL_Remix_emotional_folk_Guitar,0.9990057349205017,1
76,100,0.17727272727272728,580,0,80,DL_Remix_emotional_folk_Guitar,6,3,DL_Remix_emotional_folk_Guitar,0.23120085895061493,0
64,100,0.16363636363636364,619,0,80,DL_Remix_emotional_folk_Guitar,6,3,DL_Remix_emotional_folk_Guitar,0.2659180164337158,0
64,100,0.22272727272727272,760,0,80,DL_Remix_emotional_folk_Guitar,6,4,DL_Remix_emotional_folk_Guitar,0.35419997572898865,0
61,100,0.3,9,1,81,DL_Remix_emotional_folk_Guitar,6,5,DL_Remix_emotional_folk_Guitar,0.9990057349205017,1
61,100,0.2636363636363636,729,1,81,DL_Remix_emotional_folk_Guitar,6,4,DL_Remix_emotional_folk_Guitar,0.231205016374588,0
59,100,0.12272727272727273,817,0,81,DL_Remix_emotional_folk_Guitar,6,2,DL_Remix_emotional_folk_Guitar,0.2659272253513336,0
61,100,0.12272727272727273,870,0,81,DL_Remix_emotional_folk_Guitar,6,2,DL_Remix_emotional_folk_Guitar,0.3541991710662842,0
64,100,0.13636363636363635,17,1,82,DL_Remix_emotional_folk_Guitar,6,2,DL_Remix_emotional_folk_Guitar,0.9990057349205017,1
66,100,0.3409090909090909,255,1,82,DL_Remix_emotional_folk_Guitar,6,5,DL_Remix_emotional_folk_Guitar,0.23120935261249542,0
66,100,0.2590909090909091,404,0,82,DL_Remix_emotional_folk_Guitar,6,4,DL_Remix_emotional_folk_Guitar,0.26592525839805603,0
63,100,0.38181818181818183,673,1,82,DL_Remix_emotional_folk_Guitar,6,6,DL_Remix_emotional_folk_Guitar,0.35419324040412903,0
60,100,0.1409090909090909,289,1,83,DL_Remix_emotional_folk_Guitar,6,2,DL_Remix_emotional_folk_Guitar,0.9990057349205017,1
60,100,0.32272727272727275,386,0,83,DL_Remix_emotional_folk_Guitar,6,5,DL_Remix_emotional_folk_Guitar,0.231207937002182,0
63,100,0.1409090909090909,466,0,83,DL_Remix_emotional_folk_Guitar,6,2,DL_Remix_emotional_folk_Guitar,0.2659231126308441,0
61,100,0.6409090909090909,536,0,83,DL_Remix_emotional_folk_Guitar,6,10,DL_Remix_emotional_folk_Guitar,0.35419762134552,0
64,100,0.1590909090909091,79,1,84,DL_Remix_emotional_folk_Guitar,6,3,DL_Remix_emotional_folk_Guitar,0.9986500144004822,1
61,100,0.22272727272727272,157,0,84,DL_Remix_emotional_folk_Guitar,6,4,DL_Remix_emotional_folk_Guitar,0.08780430257320404,0
57,100,0.6363636363636364,413,1,84,DL_Remix_emotional_folk_Guitar,6,10,DL_Remix_emotional_folk_Guitar,0.09181573241949081,0
59,100,0.11818181818181818,616,0,84,DL_Remix_emotional_folk_Guitar,6,2,DL_Remix_emotional_folk_Guitar,0.1074824407696724,0
59,100,0.18181818181818182,716,0,84,DL_Remix_emotional_folk_Guitar,6,3,DL_Remix_emotional_folk_Guitar,0.12483192980289459,0
57,100,0.3181818181818182,787,0,84,DL_Remix_emotional_folk_Guitar,6,5,DL_Remix_emotional_folk_Guitar,0.17904019355773926,0
64,100,0.8181818181818182,9,1,85,DL_Remix_emotional_folk_Guitar,6,13,DL_Remix_emotional_folk_Guitar,0.9990229606628418,1
64,100,0.1,193,0,85,DL_Remix_emotional_folk_Guitar,6,2,DL_Remix_emotional_folk_Guitar,0.3666267395019531,0
63,100,0.4409090909090909,506,1,85,DL_Remix_emotional_folk_Guitar,6,7,DL_Remix_emotional_folk_Guitar,0.4532875418663025,0
59,100,0.12272727272727273,123,1,86,DL_Remix_emotional_folk_Guitar,6,2,DL_Remix_emotional_folk_Guitar,0.9983165264129639,1
64,100,0.7636363636363637,796,1,86,DL_Remix_emotional_folk_Guitar,6,12,DL_Remix_emotional_folk_Guitar,0.5445597171783447,0
59,100,0.740909090909091,246,1,87,DL_Remix_emotional_folk_Guitar,6,12,DL_Remix_emotional_folk_Guitar,0.9990229606628418,1
59,100,0.3181818181818182,493,1,87,DL_Remix_emotional_folk_Guitar,6,5,DL_Remix_emotional_folk_Guitar,0.3666227161884308,0
66,100,0.17727272727272728,677,0,87,DL_Remix_emotional_folk_Guitar,6,3,DL_Remix_emotional_folk_Guitar,0.45329371094703674,0
63,100,0.1409090909090909,184,1,88,DL_Remix_emotional_folk_Guitar,6,2,DL_Remix_emotional_folk_Guitar,0.9990057349205017,1
63,100,0.35909090909090907,220,0,88,DL_Remix_emotional_folk_Guitar,6,6,DL_Remix_emotional_folk_Guitar,0.23120416700839996,0
59,100,0.7,299,0,88,DL_Remix_emotional_folk_Guitar,6,11,DL_Remix_emotional_folk_Guitar,0.26592931151390076,0
52,100,0.4818181818181818,496,0,88,DL_Remix_emotional_folk_Guitar,6,8,DL_Remix_emotional_folk_Guitar,0.35420262813568115,0
64,100,0.2,43,1,89,DL_Remix_emotional_folk_Guitar,6,3,DL_Remix_emotional_folk_Guitar,0.9990057349205017,1
64,100,0.3,237,0,89,DL_Remix_emotional_folk_Guitar,6,5,DL_Remix_emotional_folk_Guitar,0.23121291399002075,0
69,100,0.2,356,0,89,DL_Remix_emotional_folk_Guitar,6,3,DL_Remix_emotional_folk_Guitar,0.2659304141998291,0
66,100,1.2818181818181817,496,0,89,DL_Remix_emotional_folk_Guitar,6,15,DL_Remix_emotional_folk_Guitar,0.35419002175331116,0
64,100,0.8409090909090909,505,1,0,_DL_Japanese_Folk_Pop_Acoustic_Folk_Guitar,6,13,_DL_Japanese_Folk_Pop_Acoustic_Folk_Guitar,0.9983164072036743,1
52,100,0.11818181818181818,858,1,0,_DL_Japanese_Folk_Pop_Acoustic_Folk_Guitar,6,2,_DL_Japanese_Folk_Pop_Acoustic_Folk_Guitar,0.5445568561553955,0
64,100,0.13636363636363635,62,1,1,_DL_Japanese_Folk_Pop_Acoustic_Folk_Guitar,6,2,_DL_Japanese_Folk_Pop_Acoustic_Folk_Guitar,0.9990057349205017,1
59,100,0.1,157,0,1,_DL_Japanese_Folk_Pop_Acoustic_Folk_Guitar,6,2,_DL_Japanese_Folk_Pop_Acoustic_Folk_Guitar,0.23120924830436707,0
59,100,0.8,510,1,1,_DL_Japanese_Folk_Pop_Acoustic_Folk_Guitar,6,13,_DL_Japanese_Folk_Pop_Acoustic_Folk_Guitar,0.2659282684326172,0
57,100,0.16363636363636364,796,1,1,_DL_Japanese_Folk_Pop_Acoustic_Folk_Guitar,6,3,_DL_Japanese_Folk_Pop_Acoustic_Folk_Guitar,0.3542025089263916,0
61,100,0.2772727272727273,39,1,2,_DL_Japanese_Folk_Pop_Acoustic_Folk_Guitar,6,4,_DL_Japanese_Folk_Pop_Acoustic_Folk_Guitar,0.9983736276626587,1
52,100,0.3,140,0,2,_DL_Japanese_Folk_Pop_Acoustic_Folk_Guitar,6,5,_DL_Japanese_Folk_Pop_Acoustic_Folk_Guitar,0.05106251686811447,0
56,100,0.11818181818181818,220,0,2,_DL_Japanese_Folk_Pop_Acoustic_Folk_Guitar,6,2,_DL_Japanese_Folk_Pop_Acoustic_Folk_Guitar,0.04130430147051811,0
57,100,0.6227272727272727,268,0,2,_DL_Japanese_Folk_Pop_Acoustic_Folk_Guitar,6,10,_DL_Japanese_Folk_Pop_Acoustic_Folk_Guitar,0.03738733381032944,0
57,100,0.1,409,0,2,_DL_Japanese_Folk_Pop_Acoustic_Folk_Guitar,6,2,_DL_Japanese_Folk_Pop_Acoustic_Folk_Guitar,0.03833100572228432,0
62,100,0.5772727272727273,479,0,2,_DL_Japanese_Folk_Pop_Acoustic_Folk_Guitar,6,9,_DL_Japanese_Folk_Pop_Acoustic_Folk_Guitar,0.04475356638431549,0
62,100,0.13636363636363635,611,0,2,_DL_Japanese_Folk_Pop_Acoustic_Folk_Guitar,6,2,_DL_Japanese_Folk_Pop_Acoustic_Folk_Guitar,0.05523175001144409,0
57,100,0.6,647,0,2,_DL_Japanese_Folk_Pop_Acoustic_Folk_Guitar,6,10,_DL_Japanese_Folk_Pop_Acoustic_Folk_Guitar,0.09026646614074707,0
62,100,0.13636363636363635,39,1,3,_DL_Japanese_Folk_Pop_Acoustic_Folk_Guitar,6,2,_DL_Japanese_Folk_Pop_Acoustic_Folk_Guitar,0.9990229606628418,1
64,100,0.5409090909090909,100,0,3,_DL_Japanese_Folk_Pop_Acoustic_Folk_Guitar,6,9,_DL_Japanese_Folk_Pop_Acoustic_Folk_Guitar,0.366629958152771,0
59,100,0.5409090909090909,299,0,3,_DL_Japanese_Folk_Pop_Acoustic_Folk_Guitar,6,9,_DL_Japanese_Folk_Pop_Acoustic_Folk_Guitar,0.45329469442367554,0
61,100,0.5,66,1,6,_DL_Japanese_Folk_Pop_Acoustic_Folk_Guitar,6,8,_DL_Japanese_Folk_Pop_Acoustic_Folk_Guitar,0.9982553124427795,1
59,100,0.1590909090909091,176,0,6,_DL_Japanese_Folk_Pop_Acoustic_Folk_Guitar,6,3,_DL_Japanese_Folk_Pop_Acoustic_Folk_Guitar,0.041288405656814575,0
60,100,0.18181818181818182,211,0,6,_DL_Japanese_Folk_Pop_Acoustic_Folk_Guitar,6,3,_DL_Japanese_Folk_Pop_Acoustic_Folk_Guitar,0.02893502078950405,0
59,100,0.2409090909090909,250,0,6,_DL_Japanese_Folk_Pop_Acoustic_Folk_Guitar,6,4,_DL_Japanese_Folk_Pop_Acoustic_Folk_Guitar,0.021289419382810593,0
57,100,0.2409090909090909,311,0,6,_DL_Japanese_Folk_Pop_Acoustic_Folk_Guitar,6,4,_DL_Japanese_Folk_Pop_Acoustic_Folk_Guitar,0.016745928674936295,0
57,100,0.12272727272727273,409,0,6,_DL_Japanese_Folk_Pop_Acoustic_Folk_Guitar,6,2,_DL_Japanese_Folk_Pop_Acoustic_Folk_Guitar,0.014918873086571693,0
56,100,0.3,506,0,6,_DL_Japanese_Folk_Pop_Acoustic_Folk_Guitar,6,5,_DL_Japanese_Folk_Pop_Acoustic_Folk_Guitar,0.016016298905014992,0
52,100,0.3409090909090909,651,0,6,_DL_Japanese_Folk_Pop_Acoustic_Folk_Guitar,6,5,_DL_Japanese_Folk_Pop_Acoustic_Folk_Guitar,0.021179769188165665,0
52,100,0.1,739,0,6,_DL_Japanese_Folk_Pop_Acoustic_Folk_Guitar,6,2,_DL_Japanese_Folk_Pop_Acoustic_Folk_Guitar,0.031566962599754333,0
52,100,0.16363636363636364,774,0,6,_DL_Japanese_Folk_Pop_Acoustic_Folk_Guitar,6,3,_DL_Japanese_Folk_Pop_Acoustic_Folk_Guitar,0.06006009504199028,0
57,100,0.4590909090909091,118,1,7,_DL_Japanese_Folk_Pop_Acoustic_Folk_Guitar,6,7,_DL_Japanese_Folk_Pop_Acoustic_Folk_Guitar,0.9990057349205017,1
57,100,0.5,317,0,7,_DL_Japanese_Folk_Pop_Acoustic_Folk_Guitar,6,8,_DL_Japanese_Folk_Pop_Acoustic_Folk_Guitar,0.23121370375156403,0
57,100,0.2,452,0,7,_DL_Japanese_Folk_Pop_Acoustic_Folk_Guitar,6,3,_DL_Japanese_Folk_Pop_Acoustic_Folk_Guitar,0.26593172550201416,0
57,100,0.3409090909090909,642,0,7,_DL_Japanese_Folk_Pop_Acoustic_Folk_Guitar,6,5,_DL_Japanese_Folk_Pop_Acoustic_Folk_Guitar,0.35420534014701843,0
57,100,0.3409090909090909,307,1,8,_DL_Japanese_Folk_Pop_Acoustic_Folk_Guitar,6,5,_DL_Japanese_Folk_Pop_Acoustic_Folk_Guitar,0.9990057349205017,1
54,100,0.37727272727272726,493,0,8,_DL_Japanese_Folk_Pop_Acoustic_Folk_Guitar,6,6,_DL_Japanese_Folk_Pop_Acoustic_Folk_Guitar,0.2312130182981491,0
69,100,0.2590909090909091,584,0,8,_DL_Japanese_Folk_Pop_Acoustic_Folk_Guitar,6,4,_DL_Japanese_Folk_Pop_Acoustic_Folk_Guitar,0.2659282684326172,0
69,100,0.1,651,0,8,_DL_Japanese_Folk_Pop_Acoustic_Folk_Guitar,6,2,_DL_Japanese_Folk_Pop_Acoustic_Folk_Guitar,0.35420161485671997,0
57,100,0.6,216,1,9,_DL_Japanese_Folk_Pop_Acoustic_Folk_Guitar,6,10,_DL_Japanese_Folk_Pop_Acoustic_Folk_Guitar,0.9988419413566589,1
69,100,0.1,347,0,9,_DL_Japanese_Folk_Pop_Acoustic_Folk_Guitar,6,2,_DL_Japanese_Folk_Pop_Acoustic_Folk_Guitar,0.13725033402442932,0
56,100,0.35909090909090907,405,0,9,_DL_Japanese_Folk_Pop_Acoustic_Folk_Guitar,6,6,_DL_Japanese_Folk_Pop_Acoustic_Folk_Guitar,0.1597823202610016,0
56,100,0.1,488,0,9,_DL_Japanese_Folk_Pop_Acoustic_Folk_Guitar,6,2,_DL_Japanese_Folk_Pop_Acoustic_Folk_Guitar,0.1864536702632904,0
59,100,0.23636363636363636,589,0,9,_DL_Japanese_Folk_Pop_Acoustic_Folk_Guitar,6,4,_DL_Japanese_Folk_Pop_Acoustic_Folk_Guitar,0.25816673040390015,0
59,100,0.11818181818181818,216,1,10,_DL_Japanese_Folk_Pop_Acoustic_Folk_Guitar,6,2,_DL_Japanese_Folk_Pop_Acoustic_Folk_Guitar,0.9990057349205017,1
52,100,0.2636363636363636,422,0,10,_DL_Japanese_Folk_Pop_Acoustic_Folk_Guitar,6,4,_DL_Japanese_Folk_Pop_Acoustic_Folk_Guitar,0.23121370375156403,0
52,100,0.1,496,0,10,_DL_Japanese_Folk_Pop_Acoustic_Folk_Guitar,6,2,_DL_Japanese_Folk_Pop_Acoustic_Folk_Guitar,0.26594075560569763,0
57,100,0.5590909090909091,546,0,10,_DL_Japanese_Folk_Pop_Acoustic_Folk_Guitar,6,9,_DL_Japanese_Folk_Pop_Acoustic_Folk_Guitar,0.3541998863220215,0
52,100,0.21818181818181817,65,1,11,_DL_Japanese_Folk_Pop_Acoustic_Folk_Guitar,6,3,_DL_Japanese_Folk_Pop_Acoustic_Folk_Guitar,0.9990229606628418,1
52,100,0.1409090909090909,118,0,11,_DL_Japanese_Folk_Pop_Acoustic_Folk_Guitar,6,2,_DL_Japanese_Folk_Pop_Acoustic_Folk_Guitar,0.3666337728500366,0
57,100,0.7227272727272728,673,1,11,_DL_Japanese_Folk_Pop_Acoustic_Folk_Guitar,6,12,_DL_Japanese_Folk_Pop_Acoustic_Folk_Guitar,0.4532926380634308,0
57,100,0.1,30,1,12,_DL_Japanese_Folk_Pop_Acoustic_Folk_Guitar,6,2,_DL_Japanese_Folk_Pop_Acoustic_Folk_Guitar,0.9990230798721313,1
64,100,0.740909090909091,96,0,12,_DL_Japanese_Folk_Pop_Acoustic_Folk_Guitar,6,12,_DL_Japanese_Folk_Pop_Acoustic_Folk_Guitar,0.36662665009498596,0
59,100,0.6181818181818182,615,1,12,_DL_Japanese_Folk_Pop_Acoustic_Folk_Guitar,6,10,_DL_Japanese_Folk_Pop_Acoustic_Folk_Guitar,0.4532991349697113,0
62,100,0.21818181818181817,39,1,13,_DL_Japanese_Folk_Pop_Acoustic_Folk_Guitar,6,3,_DL_Japanese_Folk_Pop_Acoustic_Folk_Guitar,0.9986500144004822,1
62,100,0.6409090909090909,245,0,13,_DL_Japanese_Folk_Pop_Acoustic_Folk_Guitar,6,10,_DL_Japanese_Folk_Pop_Acoustic_Folk_Guitar,0.08780678361654282,0
57,100,0.1590909090909091,386,0,13,_DL_Japanese_Folk_Pop_Acoustic_Folk_Guitar,6,3,_DL_Japanese_Folk_Pop_Acoustic_Folk_Guitar,0.09182010591030121,0
57,100,0.2818181818181818,474,0,13,_DL_Japanese_Folk_Pop_Acoustic_Folk_Guitar,6,5,_DL_Japanese_Folk_Pop_Acoustic_Folk_Guitar,0.10748359560966492,0
57,100,0.1409090909090909,606,0,13,_DL_Japanese_Folk_Pop_Acoustic_Folk_Guitar,6,2,_DL_Japanese_Folk_Pop_Acoustic_Folk_Guitar,0.12483803927898407,0
57,100,0.17727272727272728,646,0,13,_DL_Japanese_Folk_Pop_Acoustic_Folk_Guitar,6,3,_DL_Japanese_Folk_Pop_Acoustic_Folk_Guitar,0.17904172837734222,0
57,100,0.3409090909090909,202,1,14,_DL_Japanese_Folk_Pop_Acoustic_Folk_Guitar,6,5,_DL_Japanese_Folk_Pop_Acoustic_Folk_Guitar,0.9988419413566589,1
57,100,0.1409090909090909,295,0,14,_DL_Japanese_Folk_Pop_Acoustic_Folk_Guitar,6,2,_DL_Japanese_Folk_Pop_Acoustic_Folk_Guitar,0.13724906742572784,0
64,100,0.2590909090909091,637,1,14,_DL_Japanese_Folk_Pop_Acoustic_Folk_Guitar,6,4,_DL_Japanese_Folk_Pop_Acoustic_Folk_Guitar,0.15978266298770905,0
59,100,0.16363636363636364,795,0,14,_DL_Japanese_Folk_Pop_Acoustic_Folk_Guitar,6,3,_DL_Japanese_Folk_Pop_Acoustic_Folk_Guitar,0.1864526867866516,0
56,100,0.17727272727272728,831,0,14,_DL_Japanese_Folk_Pop_Acoustic_Folk_Guitar,6,3,_DL_Japanese_Folk_Pop_Acoustic_Folk_Guitar,0.2581641972064972,0
59,100,0.18181818181818182,22,1,15,_DL_Japanese_Folk_Pop_Acoustic_Folk_Guitar,6,3,_DL_Japanese_Folk_Pop_Acoustic_Folk_Guitar,0.9983736276626587,1
57,100,0.2,123,0,15,_DL_Japanese_Folk_Pop_Acoustic_Folk_Guitar,6,3,_DL_Japanese_Folk_Pop_Acoustic_Folk_Guitar,0.05105997249484062,0
59,100,0.1,197,0,15,_DL_Japanese_Folk_Pop_Acoustic_Folk_Guitar,6,2,_DL_Japanese_Folk_Pop_Acoustic_Folk_Guitar,0.04130449891090393,0
61,100,0.1,307,0,15,_DL_Japanese_Folk_Pop_Acoustic_Folk_Guitar,6,2,_DL_Japanese_Folk_Pop_Acoustic_Folk_Guitar,0.037386201322078705,0
61,100,0.5,355,0,15,_DL_Japanese_Folk_Pop_Acoustic_Folk_Guitar,6,8,_DL_Japanese_Folk_Pop_Acoustic_Folk_Guitar,0.038330454379320145,0
61,100,0.4590909090909091,470,0,15,_DL_Japanese_Folk_Pop_Acoustic_Folk_Guitar,6,7,_DL_Japanese_Folk_Pop_Acoustic_Folk_Guitar,0.044753242284059525,0
57,100,0.2,646,0,15,_DL_Japanese_Folk_Pop_Acoustic_Folk_Guitar,6,3,_DL_Japanese_Folk_Pop_Acoustic_Folk_Guitar,0.05523025617003441,0
61,100,0.8772727272727273,831,0,15,_DL_Japanese_Folk_Pop_Acoustic_Folk_Guitar,6,14,_DL_Japanese_Folk_Pop_Acoustic_Folk_Guitar,0.09026557952165604,0
57,100,0.21818181818181817,150,1,16,_DL_Japanese_Folk_Pop_Acoustic_Folk_Guitar,6,3,_DL_Japanese_Folk_Pop_Acoustic_Folk_Guitar,0.9986500144004822,1
61,100,0.3181818181818182,206,0,16,_DL_Japanese_Folk_Pop_Acoustic_Folk_Guitar,6,5,_DL_Japanese_Folk_Pop_Acoustic_Folk_Guitar,0.08780460804700851,0
62,100,0.13636363636363635,567,1,16,_DL_Japanese_Folk_Pop_Acoustic_Folk_Guitar,6,2,_DL_Japanese_Folk_Pop_Acoustic_Folk_Guitar,0.09181665629148483,0
62,100,0.1,681,0,16,_DL_Japanese_Folk_Pop_Acoustic_Folk_Guitar,6,2,_DL_Japanese_Folk_Pop_Acoustic_Folk_Guitar,0.10748355090618134,0
57,100,0.2772727272727273,766,0,16,_DL_Japanese_Folk_Pop_Acoustic_Folk_Guitar,6,4,_DL_Japanese_Folk_Pop_Acoustic_Folk_Guitar,0.12483549863100052,0
56,100,0.2409090909090909,862,0,16,_DL_Japanese_Folk_Pop_Acoustic_Folk_Guitar,6,4,_DL_Japanese_Folk_Pop_Acoustic_Folk_Guitar,0.1790449321269989,0
59,100,0.21818181818181817,96,1,17,_DL_Japanese_Folk_Pop_Acoustic_Folk_Guitar,6,3,_DL_Japanese_Folk_Pop_Acoustic_Folk_Guitar,0.9990057349205017,1
56,100,0.4,250,0,17,_DL_Japanese_Folk_Pop_Acoustic_Folk_Guitar,6,6,_DL_Japanese_Folk_Pop_Acoustic_Folk_Guitar,0.2312043458223343,0
57,100,0.3409090909090909,339,0,17,_DL_Japanese_Folk_Pop_Acoustic_Folk_Guitar,6,5,_DL_Japanese_Folk_Pop_Acoustic_Folk_Guitar,0.26592156291007996,0
57,100,0.2636363636363636,598,1,17,_DL_Japanese_Folk_Pop_Acoustic_Folk_Guitar,6,4,_DL_Japanese_Folk_Pop_Acoustic_Folk_Guitar,0.3541957437992096,0
64,100,0.12272727272727273,48,1,18,_DL_Japanese_Folk_Pop_Acoustic_Folk_Guitar,6,2,_DL_Japanese_Folk_Pop_Acoustic_Folk_Guitar,0.9990230798721313,1
57,100,0.8363636363636363,413,1,18,_DL_Japanese_Folk_Pop_Acoustic_Folk_Guitar,6,13,_DL_Japanese_Folk_Pop_Acoustic_Folk_Guitar,0.366634726524353,0
57,100,0.5,602,0,18,_DL_Japanese_Folk_Pop_Acoustic_Folk_Guitar,6,8,_DL_Japanese_Folk_Pop_Acoustic_Folk_Guitar,0.4532926380634308,0
57,100,0.5818181818181818,113,1,19,_DL_Japanese_Folk_Pop_Acoustic_Folk_Guitar,6,9,_DL_Japanese_Folk_Pop_Acoustic_Folk_Guitar,0.9990057349205017,1
56,100,0.41818181818181815,241,0,19,_DL_Japanese_Folk_Pop_Acoustic_Folk_Guitar,6,7,_DL_Japanese_Folk_Pop_Acoustic_Folk_Guitar,0.23120343685150146,0
59,100,0.3,567,1,19,_DL_Japanese_Folk_Pop_Acoustic_Folk_Guitar,6,5,_DL_Japanese_Folk_Pop_Acoustic_Folk_Guitar,0.2659217417240143,0
59,100,0.1590909090909091,700,0,19,_DL_Japanese_Folk_Pop_Acoustic_Folk_Guitar,6,3,_DL_Japanese_Folk_Pop_Acoustic_Folk_Guitar,0.3541986346244812,0
61,100,0.6590909090909091,44,1,20,_DL_Japanese_Folk_Pop_Acoustic_Folk_Guitar,6,11,_DL_Japanese_Folk_Pop_Acoustic_Folk_Guitar,0.9984880685806274,1
59,100,0.2590909090909091,254,0,20,_DL_Japanese_Folk_Pop_Acoustic_Folk_Guitar,6,4,_DL_Japanese_Folk_Pop_Acoustic_Folk_Guitar,0.06334780901670456,0
57,100,0.2409090909090909,316,0,20,_DL_Japanese_Folk_Pop_Acoustic_Folk_Guitar,6,4,_DL_Japanese_Folk_Pop_Acoustic_Folk_Guitar,0.05774262920022011,0
64,100,0.2409090909090909,449,0,20,_DL_Japanese_Folk_Pop_Acoustic_Folk_Guitar,6,4,_DL_Japanese_Folk_Pop_Acoustic_Folk_Guitar,0.06020444631576538,0
64,100,0.2,505,0,20,_DL_Japanese_Folk_Pop_Acoustic_Folk_Guitar,6,3,_DL_Japanese_Folk_Pop_Acoustic_Folk_Guitar,0.0697057917714119,0
57,100,0.2772727272727273,691,0,20,_DL_Japanese_Folk_Pop_Acoustic_Folk_Guitar,6,4,_DL_Japanese_Folk_Pop_Acoustic_Folk_Guitar,0.08189871907234192,0
57,100,0.1590909090909091,827,0,20,_DL_Japanese_Folk_Pop_Acoustic_Folk_Guitar,6,3,_DL_Japanese_Folk_Pop_Acoustic_Folk_Guitar,0.1240270584821701,0
57,100,0.2590909090909091,316,1,21,_DL_Japanese_Folk_Pop_Acoustic_Folk_Guitar,6,4,_DL_Japanese_Folk_Pop_Acoustic_Folk_Guitar,0.9988419413566589,1
69,100,0.11818181818181818,374,0,21,_DL_Japanese_Folk_Pop_Acoustic_Folk_Guitar,6,2,_DL_Japanese_Folk_Pop_Acoustic_Folk_Guitar,0.13724787533283234,0
57,100,0.32272727272727275,399,0,21,_DL_Japanese_Folk_Pop_Acoustic_Folk_Guitar,6,5,_DL_Japanese_Folk_Pop_Acoustic_Folk_Guitar,0.15977728366851807,0
59,100,0.13636363636363635,677,1,21,_DL_Japanese_Folk_Pop_Acoustic_Folk_Guitar,6,2,_DL_Japanese_Folk_Pop_Acoustic_Folk_Guitar,0.18644975125789642,0
52,100,0.1,787,0,21,_DL_Japanese_Folk_Pop_Acoustic_Folk_Guitar,6,2,_DL_Japanese_Folk_Pop_Acoustic_Folk_Guitar,0.2581707537174225,0
57,100,0.1409090909090909,57,1,22,_DL_Japanese_Folk_Pop_Acoustic_Folk_Guitar,6,2,_DL_Japanese_Folk_Pop_Acoustic_Folk_Guitar,0.9983736276626587,1
57,100,0.16363636363636364,179,0,22,_DL_Japanese_Folk_Pop_Acoustic_Folk_Guitar,6,3,_DL_Japanese_Folk_Pop_Acoustic_Folk_Guitar,0.05106242746114731,0
57,100,0.13636363636363635,260,0,22,_DL_Japanese_Folk_Pop_Acoustic_Folk_Guitar,6,2,_DL_Japanese_Folk_Pop_Acoustic_Folk_Guitar,0.04130369797348976,0
57,100,0.2,295,0,22,_DL_Japanese_Folk_Pop_Acoustic_Folk_Guitar,6,3,_DL_Japanese_Folk_Pop_Acoustic_Folk_Guitar,0.03738736733794212,0
57,100,0.41818181818181815,351,0,22,_DL_Japanese_Folk_Pop_Acoustic_Folk_Guitar,6,7,_DL_Japanese_Folk_Pop_Acoustic_Folk_Guitar,0.038331132382154465,0
57,100,0.2818181818181818,453,0,22,_DL_Japanese_Folk_Pop_Acoustic_Folk_Guitar,6,5,_DL_Japanese_Folk_Pop_Acoustic_Folk_Guitar,0.04475446790456772,0
57,100,0.17727272727272728,611,0,22,_DL_Japanese_Folk_Pop_Acoustic_Folk_Guitar,6,3,_DL_Japanese_Folk_Pop_Acoustic_Folk_Guitar,0.0552312508225441,0
64,100,0.5363636363636364,721,0,22,_DL_Japanese_Folk_Pop_Acoustic_Folk_Guitar,6,9,_DL_Japanese_Folk_Pop_Acoustic_Folk_Guitar,0.09027038514614105,0
52,100,0.2,79,1,23,_DL_Japanese_Folk_Pop_Acoustic_Folk_Guitar,6,3,_DL_Japanese_Folk_Pop_Acoustic_Folk_Guitar,0.9982553124427795,1
52,100,0.11818181818181818,154,0,23,_DL_Japanese_Folk_Pop_Acoustic_Folk_Guitar,6,2,_DL_Japanese_Folk_Pop_Acoustic_Folk_Guitar,0.04128725454211235,0
52,100,0.17727272727272728,206,0,23,_DL_Japanese_Folk_Pop_Acoustic_Folk_Guitar,6,3,_DL_Japanese_Folk_Pop_Acoustic_Folk_Guitar,0.028935296460986137,0
62,100,0.5181818181818182,272,0,23,_DL_Japanese_Folk_Pop_Acoustic_Folk_Guitar,6,8,_DL_Japanese_Folk_Pop_Acoustic_Folk_Guitar,0.021288573741912842,0
62,100,0.5818181818181818,453,0,23,_DL_Japanese_Folk_Pop_Acoustic_Folk_Guitar,6,9,_DL_Japanese_Folk_Pop_Acoustic_Folk_Guitar,0.01674596779048443,0
64,100,0.2818181818181818,584,0,23,_DL_Japanese_Folk_Pop_Acoustic_Folk_Guitar,6,5,_DL_Japanese_Folk_Pop_Acoustic_Folk_Guitar,0.014919448643922806,0
57,100,0.3,650,0,23,_DL_Japanese_Folk_Pop_Acoustic_Folk_Guitar,6,5,_DL_Japanese_Folk_Pop_Acoustic_Folk_Guitar,0.01601681113243103,0
64,100,0.12272727272727273,739,0,23,_DL_Japanese_Folk_Pop_Acoustic_Folk_Guitar,6,2,_DL_Japanese_Folk_Pop_Acoustic_Folk_Guitar,0.0211813822388649,0
68,100,0.16363636363636364,773,0,23,_DL_Japanese_Folk_Pop_Acoustic_Folk_Guitar,6,3,_DL_Japanese_Folk_Pop_Acoustic_Folk_Guitar,0.03156907856464386,0
68,100,0.11818181818181818,814,0,23,_DL_Japanese_Folk_Pop_Acoustic_Folk_Guitar,6,2,_DL_Japanese_Folk_Pop_Acoustic_Folk_Guitar,0.060062579810619354,0
52,100,0.1590909090909091,154,1,24,_DL_Japanese_Folk_Pop_Acoustic_Folk_Guitar,6,3,_DL_Japanese_Folk_Pop_Acoustic_Folk_Guitar,0.9988419413566589,1
59,100,0.5409090909090909,268,0,24,_DL_Japanese_Folk_Pop_Acoustic_Folk_Guitar,6,9,_DL_Japanese_Folk_Pop_Acoustic_Folk_Guitar,0.13724683225154877,0
56,100,0.17727272727272728,457,0,24,_DL_Japanese_Folk_Pop_Acoustic_Folk_Guitar,6,3,_DL_Japanese_Folk_Pop_Acoustic_Folk_Guitar,0.15977558493614197,0
64,100,0.6,584,0,24,_DL_Japanese_Folk_Pop_Acoustic_Folk_Guitar,6,10,_DL_Japanese_Folk_Pop_Acoustic_Folk_Guitar,0.18644680082798004,0
59,100,0.23636363636363636,787,0,24,_DL_Japanese_Folk_Pop_Acoustic_Folk_Guitar,6,4,_DL_Japanese_Folk_Pop_Acoustic_Folk_Guitar,0.25816667079925537,0
61,100,0.2,88,1,25,_DL_Japanese_Folk_Pop_Acoustic_Folk_Guitar,6,3,_DL_Japanese_Folk_Pop_Acoustic_Folk_Guitar,0.9983736276626587,1
61,100,0.5636363636363636,136,0,25,_DL_Japanese_Folk_Pop_Acoustic_Folk_Guitar,6,9,_DL_Japanese_Folk_Pop_Acoustic_Folk_Guitar,0.05106185004115105,0
57,100,0.18181818181818182,268,0,25,_DL_Japanese_Folk_Pop_Acoustic_Folk_Guitar,6,3,_DL_Japanese_Folk_Pop_Acoustic_Folk_Guitar,0.041304245591163635,0
54,100,0.18181818181818182,312,0,25,_DL_Japanese_Folk_Pop_Acoustic_Folk_Guitar,6,3,_DL_Japanese_Folk_Pop_Acoustic_Folk_Guitar,0.037388723343610764,0
57,100,0.5590909090909091,409,0,25,_DL_Japanese_Folk_Pop_Acoustic_Folk_Guitar,6,9,_DL_Japanese_Folk_Pop_Acoustic_Folk_Guitar,0.0383305661380291,0
57,100,0.2,773,1,25,_DL_Japanese_Folk_Pop_Acoustic_Folk_Guitar,6,3,_DL_Japanese_Folk_Pop_Acoustic_Folk_Guitar,0.0447547510266304,0
57,100,0.1,839,0,25,_DL_Japanese_Folk_Pop_Acoustic_Folk_Guitar,6,2,_DL_Japanese_Folk_Pop_Acoustic_Folk_Guitar,0.05523117631673813,0
64,100,0.2590909090909091,866,0,25,_DL_Japanese_Folk_Pop_Acoustic_Folk_Guitar,6,4,_DL_Japanese_Folk_Pop_Acoustic_Folk_Guitar,0.09027078747749329,0
57,100,0.23636363636363636,106,1,26,_DL_Japanese_Folk_Pop_Acoustic_Folk_Guitar,6,4,_DL_Japanese_Folk_Pop_Acoustic_Folk_Guitar,0.9984880685806274,1
68,100,0.22272727272727272,167,0,26,_DL_Japanese_Folk_Pop_Acoustic_Folk_Guitar,6,4,_DL_Japanese_Folk_Pop_Acoustic_Folk_Guitar,0.06334353983402252,0
64,100,0.1590909090909091,364,0,26,_DL_Japanese_Folk_Pop_Acoustic_Folk_Guitar,6,3,_DL_Japanese_Folk_Pop_Acoustic_Folk_Guitar,0.05774257332086563,0
69,100,0.22272727272727272,488,0,26,_DL_Japanese_Folk_Pop_Acoustic_Folk_Guitar,6,4,_DL_Japanese_Folk_Pop_Acoustic_Folk_Guitar,0.060201238840818405,0
59,100,0.12272727272727273,607,0,26,_DL_Japanese_Folk_Pop_Acoustic_Folk_Guitar,6,2,_DL_Japanese_Folk_Pop_Acoustic_Folk_Guitar,0.06970231235027313,0
57,100,0.1,787,0,26,_DL_Japanese_Folk_Pop_Acoustic_Folk_Guitar,6,2,_DL_Japanese_Folk_Pop_Acoustic_Folk_Guitar,0.08189499378204346,0
61,100,1.0772727272727274,866,0,26,_DL_Japanese_Folk_Pop_Acoustic_Folk_Guitar,6,15,_DL_Japanese_Folk_Pop_Acoustic_Folk_Guitar,0.12402022629976273,0
52,100,0.13636363636363635,656,1,27,_DL_Japanese_Folk_Pop_Acoustic_Folk_Guitar,6,2,_DL_Japanese_Folk_Pop_Acoustic_Folk_Guitar,0.9792571067810059,0
61,100,0.1590909090909091,83,1,28,_DL_Japanese_Folk_Pop_Acoustic_Folk_Guitar,6,3,_DL_Japanese_Folk_Pop_Acoustic_Folk_Guitar,0.9986500144004822,1
61,100,0.17727272727272728,127,0,28,_DL_Japanese_Folk_Pop_Acoustic_Folk_Guitar,6,3,_DL_Japanese_Folk_Pop_Acoustic_Folk_Guitar,0.08780250698328018,0
64,100,0.1590909090909091,264,0,28,_DL_Japanese_Folk_Pop_Acoustic_Folk_Guitar,6,3,_DL_Japanese_Folk_Pop_Acoustic_Folk_Guitar,0.09181629121303558,0
56,100,0.12272727272727273,430,0,28,_DL_Japanese_Folk_Pop_Acoustic_Folk_Guitar,6,2,_DL_Japanese_Folk_Pop_Acoustic_Folk_Guitar,0.10747919976711273,0
59,100,0.5772727272727273,625,0,28,_DL_Japanese_Folk_Pop_Acoustic_Folk_Guitar,6,9,_DL_Japanese_Folk_Pop_Acoustic_Folk_Guitar,0.12483067065477371,0
59,100,0.17727272727272728,801,0,28,_DL_Japanese_Folk_Pop_Acoustic_Folk_Guitar,6,3,_DL_Japanese_Folk_Pop_Acoustic_Folk_Guitar,0.17903545498847961,0
54,100,0.5590909090909091,57,1,29,_DL_Japanese_Folk_Pop_Acoustic_Folk_Guitar,6,9,_DL_Japanese_Folk_Pop_Acoustic_Folk_Guitar,0.9990229606628418,1
61,100,0.2772727272727273,700,1,29,_DL_Japanese_Folk_Pop_Acoustic_Folk_Guitar,6,4,_DL_Japanese_Folk_Pop_Acoustic_Folk_Guitar,0.3666236400604248,0
61,100,0.4,796,0,29,_DL_Japanese_Folk_Pop_Acoustic_Folk_Guitar,6,6,_DL_Japanese_Folk_Pop_Acoustic_Folk_Guitar,0.45328664779663086,0
62,100,0.13636363636363635,281,1,30,_DL_Japanese_Folk_Pop_Acoustic_Folk_Guitar,6,2,_DL_Japanese_Folk_Pop_Acoustic_Folk_Guitar,0.9988419413566589,1
62,100,0.3,316,0,30,_DL_Japanese_Folk_Pop_Acoustic_Folk_Guitar,6,5,_DL_Japanese_Folk_Pop_Acoustic_Folk_Guitar,0.1372506320476532,0
62,100,0.1590909090909091,638,1,30,_DL_Japanese_Folk_Pop_Acoustic_Folk_Guitar,6,3,_DL_Japanese_Folk_Pop_Acoustic_Folk_Guitar,0.15978355705738068,0
73,100,0.17727272727272728,721,0,30,_DL_Japanese_Folk_Pop_Acoustic_Folk_Guitar,6,3,_DL_Japanese_Folk_Pop_Acoustic_Folk_Guitar,0.18645738065242767,0
62,100,0.9181818181818182,822,0,30,_DL_Japanese_Folk_Pop_Acoustic_Folk_Guitar,6,15,_DL_Japanese_Folk_Pop_Acoustic_Folk_Guitar,0.258171945810318,0
62,100,0.41818181818181815,206,1,31,_DL_Japanese_Folk_Pop_Acoustic_Folk_Guitar,6,7,_DL_Japanese_Folk_Pop_Acoustic_Folk_Guitar,0.9983165264129639,1
52,100,0.7,642,1,31,_DL_Japanese_Folk_Pop_Acoustic_Folk_Guitar,6,11,_DL_Japanese_Folk_Pop_Acoustic_Folk_Guitar,0.5445643067359924,0
52,100,0.2818181818181818,373,1,32,_DL_Japanese_Folk_Pop_Acoustic_Folk_Guitar,6,5,_DL_Japanese_Folk_Pop_Acoustic_Folk_Guitar,0.9990230798721313,1
57,100,0.21818181818181817,791,1,32,_DL_Japanese_Folk_Pop_Acoustic_Folk_Guitar,6,3,_DL_Japanese_Folk_Pop_Acoustic_Folk_Guitar,0.36662572622299194,0
69,100,0.12272727272727273,839,0,32,_DL_Japanese_Folk_Pop_Acoustic_Folk_Guitar,6,2,_DL_Japanese_Folk_Pop_Acoustic_Folk_Guitar,0.4532911479473114,0
57,100,0.11818181818181818,66,1,33,_DL_Japanese_Folk_Pop_Acoustic_Folk_Guitar,6,2,_DL_Japanese_Folk_Pop_Acoustic_Folk_Guitar,0.9984880685806274,1
52,100,0.4818181818181818,136,0,33,_DL_Japanese_Folk_Pop_Acoustic_Folk_Guitar,6,8,_DL_Japanese_Folk_Pop_Acoustic_Folk_Guitar,0.0633450374007225,0
52,100,0.2,364,0,33,_DL_Japanese_Folk_Pop_Acoustic_Folk_Guitar,6,3,_DL_Japanese_Folk_Pop_Acoustic_Folk_Guitar,0.05774327740073204,0
59,100,0.17727272727272728,558,0,33,_DL_Japanese_Folk_Pop_Acoustic_Folk_Guitar,6,3,_DL_Japanese_Folk_Pop_Acoustic_Folk_Guitar,0.060203634202480316,0
57,100,0.2,603,0,33,_DL_Japanese_Folk_Pop_Acoustic_Folk_Guitar,6,3,_DL_Japanese_Folk_Pop_Acoustic_Folk_Guitar,0.06970398128032684,0
57,100,0.17727272727272728,721,0,33,_DL_Japanese_Folk_Pop_Acoustic_Folk_Guitar,6,3,_DL_Japanese_Folk_Pop_Acoustic_Folk_Guitar,0.08189818263053894,0
64,100,0.35909090909090907,791,0,33,_DL_Japanese_Folk_Pop_Acoustic_Folk_Guitar,6,6,_DL_Japanese_Folk_Pop_Acoustic_Folk_Guitar,0.12402399629354477,0
57,100,0.9,40,1,34,_DL_Japanese_Folk_Pop_Acoustic_Folk_Guitar,6,14,_DL_Japanese_Folk_Pop_Acoustic_Folk_Guitar,0.9988419413566589,1
57,100,0.2818181818181818,351,1,34,_DL_Japanese_Folk_Pop_Acoustic_Folk_Guitar,6,5,_DL_Japanese_Folk_Pop_Acoustic_Folk_Guitar,0.1372525840997696,0
64,100,0.4590909090909091,431,0,34,_DL_Japanese_Folk_Pop_Acoustic_Folk_Guitar,6,7,_DL_Japanese_Folk_Pop_Acoustic_Folk_Guitar,0.15978749096393585,0
57,100,0.3181818181818182,545,0,34,_DL_Japanese_Folk_Pop_Acoustic_Folk_Guitar,6,5,_DL_Japanese_Folk_Pop_Acoustic_Folk_Guitar,0.1864555925130844,0
57,100,0.16363636363636364,708,0,34,_DL_Japanese_Folk_Pop_Acoustic_Folk_Guitar,6,3,_DL_Japanese_Folk_Pop_Acoustic_Folk_Guitar,0.2581745684146881,0
57,100,0.2636363636363636,246,1,35,_DL_Japanese_Folk_Pop_Acoustic_Folk_Guitar,6,4,_DL_Japanese_Folk_Pop_Acoustic_Folk_Guitar,0.9990057349205017,1
57,100,0.1590909090909091,321,0,35,_DL_Japanese_Folk_Pop_Acoustic_Folk_Guitar,6,3,_DL_Japanese_Folk_Pop_Acoustic_Folk_Guitar,0.23121197521686554,0
59,100,0.1409090909090909,713,1,35,_DL_Japanese_Folk_Pop_Acoustic_Folk_Guitar,6,2,_DL_Japanese_Folk_Pop_Acoustic_Folk_Guitar,0.2659391462802887,0
57,100,1.040909090909091,871,0,35,_DL_Japanese_Folk_Pop_Acoustic_Folk_Guitar,6,15,_DL_Japanese_Folk_Pop_Acoustic_Folk_Guitar,0.35419684648513794,0
57,100,0.3409090909090909,224,1,36,_DL_Japanese_Folk_Pop_Acoustic_Folk_Guitar,6,5,_DL_Japanese_Folk_Pop_Acoustic_Folk_Guitar,0.9983737468719482,1
57,100,0.33636363636363636,435,0,36,_DL_Japanese_Folk_Pop_Acoustic_Folk_Guitar,6,5,_DL_Japanese_Folk_Pop_Acoustic_Folk_Guitar,0.05106164142489433,0
57,100,0.22272727272727272,518,0,36,_DL_Japanese_Folk_Pop_Acoustic_Folk_Guitar,6,4,_DL_Japanese_Folk_Pop_Acoustic_Folk_Guitar,0.04130496084690094,0
57,100,0.18181818181818182,593,0,36,_DL_Japanese_Folk_Pop_Acoustic_Folk_Guitar,6,3,_DL_Japanese_Folk_Pop_Acoustic_Folk_Guitar,0.03738731890916824,0
52,100,0.2772727272727273,633,0,36,_DL_Japanese_Folk_Pop_Acoustic_Folk_Guitar,6,4,_DL_Japanese_Folk_Pop_Acoustic_Folk_Guitar,0.03833242133259773,0
57,100,0.12272727272727273,694,0,36,_DL_Japanese_Folk_Pop_Acoustic_Folk_Guitar,6,2,_DL_Japanese_Folk_Pop_Acoustic_Folk_Guitar,0.04475397616624832,0
64,100,0.21818181818181817,765,0,36,_DL_Japanese_Folk_Pop_Acoustic_Folk_Guitar,6,3,_DL_Japanese_Folk_Pop_Acoustic_Folk_Guitar,0.05523223429918289,0
57,100,0.3409090909090909,813,0,36,_DL_Japanese_Folk_Pop_Acoustic_Folk_Guitar,6,5,_DL_Japanese_Folk_Pop_Acoustic_Folk_Guitar,0.09026824682950974,0
64,100,0.11818181818181818,75,1,37,_DL_Japanese_Folk_Pop_Acoustic_Folk_Guitar,6,2,_DL_Japanese_Folk_Pop_Acoustic_Folk_Guitar,0.9988419413566589,1
57,100,0.12272727272727273,114,0,37,_DL_Japanese_Folk_Pop_Acoustic_Folk_Guitar,6,2,_DL_Japanese_Folk_Pop_Acoustic_Folk_Guitar,0.13725154101848602,0
57,100,0.2,254,0,37,_DL_Japanese_Folk_Pop_Acoustic_Folk_Guitar,6,3,_DL_Japanese_Folk_Pop_Acoustic_Folk_Guitar,0.15978296101093292,0
57,100,0.3181818181818182,506,1,37,_DL_Japanese_Folk_Pop_Acoustic_Folk_Guitar,6,5,_DL_Japanese_Folk_Pop_Acoustic_Folk_Guitar,0.18645229935646057,0
57,100,0.1409090909090909,598,0,37,_DL_Japanese_Folk_Pop_Acoustic_Folk_Guitar,6,2,_DL_Japanese_Folk_Pop_Acoustic_Folk_Guitar,0.25817322731018066,0
59,100,0.37727272727272726,75,1,38,_DL_Japanese_Folk_Pop_Acoustic_Folk_Guitar,6,6,_DL_Japanese_Folk_Pop_Acoustic_Folk_Guitar,0.9990057349205017,1
59,100,0.2590909090909091,206,0,38,_DL_Japanese_Folk_Pop_Acoustic_Folk_Guitar,6,4,_DL_Japanese_Folk_Pop_Acoustic_Folk_Guitar,0.23120644688606262,0
61,100,0.2409090909090909,581,1,38,_DL_Japanese_Folk_Pop_Acoustic_Folk_Guitar,6,4,_DL_Japanese_Folk_Pop_Acoustic_Folk_Guitar,0.26591622829437256,0
59,100,0.5,646,0,38,_DL_Japanese_Folk_Pop_Acoustic_Folk_Guitar,6,8,_DL_Japanese_Folk_Pop_Acoustic_Folk_Guitar,0.3541918098926544,0
64,100,0.18181818181818182,110,1,39,_DL_Japanese_Folk_Pop_Acoustic_Folk_Guitar,6,3,_DL_Japanese_Folk_Pop_Acoustic_Folk_Guitar,0.9986500144004822,1
57,100,0.2818181818181818,211,0,39,_DL_Japanese_Folk_Pop_Acoustic_Folk_Guitar,6,5,_DL_Japanese_Folk_Pop_Acoustic_Folk_Guitar,0.0878048837184906,0
61,100,0.1409090909090909,316,0,39,_DL_Japanese_Folk_Pop_Acoustic_Folk_Guitar,6,2,_DL_Japanese_Folk_Pop_Acoustic_Folk_Guitar,0.09182167798280716,0
57,100,0.2409090909090909,351,0,39,_DL_Japanese_Folk_Pop_Acoustic_Folk_Guitar,6,4,_DL_Japanese_Folk_Pop_Acoustic_Folk_Guitar,0.10748659074306488,0
57,100,0.35909090909090907,726,1,39,_DL_Japanese_Folk_Pop_Acoustic_Folk_Guitar,6,6,_DL_Japanese_Folk_Pop_Acoustic_Folk_Guitar,0.12483570724725723,0
57,100,0.17727272727272728,831,0,39,_DL_Japanese_Folk_Pop_Acoustic_Folk_Guitar,6,3,_DL_Japanese_Folk_Pop_Acoustic_Folk_Guitar,0.17904290556907654,0
69,100,0.12272727272727273,729,1,40,_DL_Japanese_Folk_Pop_Acoustic_Folk_Guitar,6,2,_DL_Japanese_Folk_Pop_Acoustic_Folk_Guitar,0.9983165264129639,1
57,100,0.4409090909090909,774,0,40,_DL_Japanese_Folk_Pop_Acoustic_Folk_Guitar,6,7,_DL_Japanese_Folk_Pop_Acoustic_Folk_Guitar,0.5445621013641357,0
57,100,0.1409090909090909,26,1,41,_DL_Japanese_Folk_Pop_Acoustic_Folk_Guitar,6,2,_DL_Japanese_Folk_Pop_Acoustic_Folk_Guitar,0.9990229606628418,1
57,100,0.22272727272727272,686,1,41,_DL_Japanese_Folk_Pop_Acoustic_Folk_Guitar,6,4,_DL_Japanese_Folk_Pop_Acoustic_Folk_Guitar,0.3666357398033142,0
61,100,0.6409090909090909,858,0,41,_DL_Japanese_Folk_Pop_Acoustic_Folk_Guitar,6,10,_DL_Japanese_Folk_Pop_Acoustic_Folk_Guitar,0.45329126715660095,0
66,100,0.21818181818181817,251,1,42,_DL_Japanese_Folk_Pop_Acoustic_Folk_Guitar,6,3,_DL_Japanese_Folk_Pop_Acoustic_Folk_Guitar,0.9983165264129639,1
61,100,1.459090909090909,804,1,42,_DL_Japanese_Folk_Pop_Acoustic_Folk_Guitar,6,15,_DL_Japanese_Folk_Pop_Acoustic_Folk_Guitar,0.5445468425750732,0
57,100,0.3,303,1,43,_DL_Japanese_Folk_Pop_Acoustic_Folk_Guitar,6,5,_DL_Japanese_Folk_Pop_Acoustic_Folk_Guitar,0.9988419413566589,1
59,100,0.1409090909090909,584,1,43,_DL_Japanese_Folk_Pop_Acoustic_Folk_Guitar,6,2,_DL_Japanese_Folk_Pop_Acoustic_Folk_Guitar,0.13725106418132782,0
68,100,0.3409090909090909,619,0,43,_DL_Japanese_Folk_Pop_Acoustic_Folk_Guitar,6,5,_DL_Japanese_Folk_Pop_Acoustic_Folk_Guitar,0.15977171063423157,0
64,100,0.17727272727272728,756,0,43,_DL_Japanese_Folk_Pop_Acoustic_Folk_Guitar,6,3,_DL_Japanese_Folk_Pop_Acoustic_Folk_Guitar,0.186451256275177,0
52,100,0.16363636363636364,796,0,43,_DL_Japanese_Folk_Pop_Acoustic_Folk_Guitar,6,3,_DL_Japanese_Folk_Pop_Acoustic_Folk_Guitar,0.258163720369339,0
64,100,0.1,43,1,44,_DL_Japanese_Folk_Pop_Acoustic_Folk_Guitar,6,2,_DL_Japanese_Folk_Pop_Acoustic_Folk_Guitar,0.9988419413566589,1
64,100,0.1,105,0,44,_DL_Japanese_Folk_Pop_Acoustic_Folk_Guitar,6,2,_DL_Japanese_Folk_Pop_Acoustic_Folk_Guitar,0.13725043833255768,0
64,100,0.1409090909090909,131,0,44,_DL_Japanese_Folk_Pop_Acoustic_Folk_Guitar,6,2,_DL_Japanese_Folk_Pop_Acoustic_Folk_Guitar,0.15978297591209412,0
64,100,0.38181818181818183,166,0,44,_DL_Japanese_Folk_Pop_Acoustic_Folk_Guitar,6,6,_DL_Japanese_Folk_Pop_Acoustic_Folk_Guitar,0.18645453453063965,0
57,100,0.17727272727272728,435,1,44,_DL_Japanese_Folk_Pop_Acoustic_Folk_Guitar,6,3,_DL_Japanese_Folk_Pop_Acoustic_Folk_Guitar,0.25817176699638367,0
64,100,0.2,136,1,45,_DL_Japanese_Folk_Pop_Acoustic_Folk_Guitar,6,3,_DL_Japanese_Folk_Pop_Acoustic_Folk_Guitar,0.9990229606628418,1
61,100,1.440909090909091,188,0,45,_DL_Japanese_Folk_Pop_Acoustic_Folk_Guitar,6,15,_DL_Japanese_Folk_Pop_Acoustic_Folk_Guitar,0.36661747097969055,0
59,100,0.21818181818181817,523,1,45,_DL_Japanese_Folk_Pop_Acoustic_Folk_Guitar,6,3,_DL_Japanese_Folk_Pop_Acoustic_Folk_Guitar,0.4532974362373352,0
61,100,1.4181818181818182,18,1,46,_DL_Japanese_Folk_Pop_Acoustic_Folk_Guitar,6,15,_DL_Japanese_Folk_Pop_Acoustic_Folk_Guitar,0.9990057349205017,1
62,100,0.8409090909090909,334,1,46,_DL_Japanese_Folk_Pop_Acoustic_Folk_Guitar,6,13,_DL_Japanese_Folk_Pop_Acoustic_Folk_Guitar,0.2312094271183014,0
62,100,0.37727272727272726,646,1,46,_DL_Japanese_Folk_Pop_Acoustic_Folk_Guitar,6,6,_DL_Japanese_Folk_Pop_Acoustic_Folk_Guitar,0.26592957973480225,0
62,100,0.41818181818181815,748,0,46,_DL_Japanese_Folk_Pop_Acoustic_Folk_Guitar,6,7,_DL_Japanese_Folk_Pop_Acoustic_Folk_Guitar,0.3542090654373169,0
59,100,0.3,373,1,47,_DL_Japanese_Folk_Pop_Acoustic_Folk_Guitar,6,5,_DL_Japanese_Folk_Pop_Acoustic_Folk_Guitar,0.9990229606628418,1
57,100,0.1409090909090909,466,0,47,_DL_Japanese_Folk_Pop_Acoustic_Folk_Guitar,6,2,_DL_Japanese_Folk_Pop_Acoustic_Folk_Guitar,0.36662182211875916,0
61,100,0.42272727272727273,818,1,47,_DL_Japanese_Folk_Pop_Acoustic_Folk_Guitar,6,7,_DL_Japanese_Folk_Pop_Acoustic_Folk_Guitar,0.45328837633132935,0
54,100,0.4772727272727273,105,1,48,_DL_Japanese_Folk_Pop_Acoustic_Folk_Guitar,6,8,_DL_Japanese_Folk_Pop_Acoustic_Folk_Guitar,0.9984880685806274,1
57,100,0.2818181818181818,224,0,48,_DL_Japanese_Folk_Pop_Acoustic_Folk_Guitar,6,5,_DL_Japanese_Folk_Pop_Acoustic_Folk_Guitar,0.06334557384252548,0
54,100,0.38181818181818183,311,0,48,_DL_Japanese_Folk_Pop_Acoustic_Folk_Guitar,6,6,_DL_Japanese_Folk_Pop_Acoustic_Folk_Guitar,0.05774318799376488,0
57,100,0.2818181818181818,421,0,48,_DL_Japanese_Folk_Pop_Acoustic_Folk_Guitar,6,5,_DL_Japanese_Folk_Pop_Acoustic_Folk_Guitar,0.060202959924936295,0
57,100,0.4,488,0,48,_DL_Japanese_Folk_Pop_Acoustic_Folk_Guitar,6,6,_DL_Japanese_Folk_Pop_Acoustic_Folk_Guitar,0.0697040930390358,0
62,100,0.8227272727272728,606,0,48,_DL_Japanese_Folk_Pop_Acoustic_Folk_Guitar,6,13,_DL_Japanese_Folk_Pop_Acoustic_Folk_Guitar,0.08189783245325089,0
69,100,0.21818181818181817,791,0,48,_DL_Japanese_Folk_Pop_Acoustic_Folk_Guitar,6,3,_DL_Japanese_Folk_Pop_Acoustic_Folk_Guitar,0.12402496486902237,0
62,100,0.6,88,1,49,_DL_Japanese_Folk_Pop_Acoustic_Folk_Guitar,6,10,_DL_Japanese_Folk_Pop_Acoustic_Folk_Guitar,0.9990229606628418,1
59,100,0.1,703,1,49,_DL_Japanese_Folk_Pop_Acoustic_Folk_Guitar,6,2,_DL_Japanese_Folk_Pop_Acoustic_Folk_Guitar,0.36662137508392334,0
52,100,0.23636363636363636,810,0,49,_DL_Japanese_Folk_Pop_Acoustic_Folk_Guitar,6,4,_DL_Japanese_Folk_Pop_Acoustic_Folk_Guitar,0.45329251885414124,0
52,100,0.4818181818181818,66,1,50,_DL_Japanese_Folk_Pop_Acoustic_Folk_Guitar,6,8,_DL_Japanese_Folk_Pop_Acoustic_Folk_Guitar,0.9983736276626587,1
52,100,0.2,260,0,50,_DL_Japanese_Folk_Pop_Acoustic_Folk_Guitar,6,3,_DL_Japanese_Folk_Pop_Acoustic_Folk_Guitar,0.05106111615896225,0
52,100,0.21818181818181817,308,0,50,_DL_Japanese_Folk_Pop_Acoustic_Folk_Guitar,6,3,_DL_Japanese_Folk_Pop_Acoustic_Folk_Guitar,0.041303884238004684,0
57,100,0.38181818181818183,364,0,50,_DL_Japanese_Folk_Pop_Acoustic_Folk_Guitar,6,6,_DL_Japanese_Folk_Pop_Acoustic_Folk_Guitar,0.037387412041425705,0
57,100,0.2,550,0,50,_DL_Japanese_Folk_Pop_Acoustic_Folk_Guitar,6,3,_DL_Japanese_Folk_Pop_Acoustic_Folk_Guitar,0.038331225514411926,0
56,100,0.4,593,0,50,_DL_Japanese_Folk_Pop_Acoustic_Folk_Guitar,6,6,_DL_Japanese_Folk_Pop_Acoustic_Folk_Guitar,0.044754598289728165,0
56,100,0.22272727272727272,738,0,50,_DL_Japanese_Folk_Pop_Acoustic_Folk_Guitar,6,4,_DL_Japanese_Folk_Pop_Acoustic_Folk_Guitar,0.05523170903325081,0
57,100,0.41818181818181815,810,0,50,_DL_Japanese_Folk_Pop_Acoustic_Folk_Guitar,6,7,_DL_Japanese_Folk_Pop_Acoustic_Folk_Guitar,0.09026865661144257,0
57,100,0.5772727272727273,61,1,51,_DL_Japanese_Folk_Pop_Acoustic_Folk_Guitar,6,9,_DL_Japanese_Folk_Pop_Acoustic_Folk_Guitar,0.9990057349205017,1
69,100,0.35909090909090907,193,0,51,_DL_Japanese_Folk_Pop_Acoustic_Folk_Guitar,6,6,_DL_Japanese_Folk_Pop_Acoustic_Folk_Guitar,0.23120398819446564,0
57,100,0.11818181818181818,273,0,51,_DL_Japanese_Folk_Pop_Acoustic_Folk_Guitar,6,2,_DL_Japanese_Folk_Pop_Acoustic_Folk_Guitar,0.2659229040145874,0
61,100,0.13636363636363635,413,0,51,_DL_Japanese_Folk_Pop_Acoustic_Folk_Guitar,6,2,_DL_Japanese_Folk_Pop_Acoustic_Folk_Guitar,0.35419732332229614,0
61,100,0.18181818181818182,373,1,52,_DL_Japanese_Folk_Pop_Acoustic_Folk_Guitar,6,3,_DL_Japanese_Folk_Pop_Acoustic_Folk_Guitar,0.9990057349205017,1
61,100,0.2590909090909091,518,0,52,_DL_Japanese_Folk_Pop_Acoustic_Folk_Guitar,6,4,_DL_Japanese_Folk_Pop_Acoustic_Folk_Guitar,0.23121291399002075,0
64,100,0.6227272727272727,628,0,52,_DL_Japanese_Folk_Pop_Acoustic_Folk_Guitar,6,10,_DL_Japanese_Folk_Pop_Acoustic_Folk_Guitar,0.2659313380718231,0
61,100,0.5363636363636364,831,0,52,_DL_Japanese_Folk_Pop_Acoustic_Folk_Guitar,6,9,_DL_Japanese_Folk_Pop_Acoustic_Folk_Guitar,0.35420238971710205,0
61,100,0.3,141,1,53,_DL_Japanese_Folk_Pop_Acoustic_Folk_Guitar,6,5,_DL_Japanese_Folk_Pop_Acoustic_Folk_Guitar,0.9990057349205017,1
61,100,0.11818181818181818,220,0,53,_DL_Japanese_Folk_Pop_Acoustic_Folk_Guitar,6,2,_DL_Japanese_Folk_Pop_Acoustic_Folk_Guitar,0.2312069982290268,0
62,100,0.5,268,0,53,_DL_Japanese_Folk_Pop_Acoustic_Folk_Guitar,6,8,_DL_Japanese_Folk_Pop_Acoustic_Folk_Guitar,0.26592350006103516,0
62,100,0.8,584,1,53,_DL_Japanese_Folk_Pop_Acoustic_Folk_Guitar,6,13,_DL_Japanese_Folk_Pop_Acoustic_Folk_Guitar,0.35420534014701843,0
52,100,0.38181818181818183,4,1,54,_DL_Japanese_Folk_Pop_Acoustic_Folk_Guitar,6,6,_DL_Japanese_Folk_Pop_Acoustic_Folk_Guitar,0.9990057349205017,1
52,100,0.22272727272727272,343,1,54,_DL_Japanese_Folk_Pop_Acoustic_Folk_Guitar,6,4,_DL_Japanese_Folk_Pop_Acoustic_Folk_Guitar,0.23120412230491638,0
59,100,0.21818181818181817,713,1,54,_DL_Japanese_Folk_Pop_Acoustic_Folk_Guitar,6,3,_DL_Japanese_Folk_Pop_Acoustic_Folk_Guitar,0.2659303545951843,0
61,100,0.18181818181818182,839,0,54,_DL_Japanese_Folk_Pop_Acoustic_Folk_Guitar,6,3,_DL_Japanese_Folk_Pop_Acoustic_Folk_Guitar,0.3541892468929291,0
61,100,0.35909090909090907,18,1,55,_DL_Japanese_Folk_Pop_Acoustic_Folk_Guitar,6,6,_DL_Japanese_Folk_Pop_Acoustic_Folk_Guitar,0.9990057349205017,1
54,100,0.12272727272727273,563,1,55,_DL_Japanese_Folk_Pop_Acoustic_Folk_Guitar,6,2,_DL_Japanese_Folk_Pop_Acoustic_Folk_Guitar,0.2312018722295761,0
62,100,0.16363636363636364,796,1,55,_DL_Japanese_Folk_Pop_Acoustic_Folk_Guitar,6,3,_DL_Japanese_Folk_Pop_Acoustic_Folk_Guitar,0.2659216523170471,0
59,100,0.5,853,0,55,_DL_Japanese_Folk_Pop_Acoustic_Folk_Guitar,6,8,_DL_Japanese_Folk_Pop_Acoustic_Folk_Guitar,0.3541955351829529,0
54,100,0.1590909090909091,123,1,56,_DL_Japanese_Folk_Pop_Acoustic_Folk_Guitar,6,3,_DL_Japanese_Folk_Pop_Acoustic_Folk_Guitar,0.9990057349205017,1
62,100,0.2409090909090909,509,1,56,_DL_Japanese_Folk_Pop_Acoustic_Folk_Guitar,6,4,_DL_Japanese_Folk_Pop_Acoustic_Folk_Guitar,0.2312062680721283,0
61,100,0.8363636363636363,678,0,56,_DL_Japanese_Folk_Pop_Acoustic_Folk_Guitar,6,13,_DL_Japanese_Folk_Pop_Acoustic_Folk_Guitar,0.2659156322479248,0
61,100,0.21818181818181817,866,0,56,_DL_Japanese_Folk_Pop_Acoustic_Folk_Guitar,6,3,_DL_Japanese_Folk_Pop_Acoustic_Folk_Guitar,0.3542000353336334,0
69,100,0.2409090909090909,48,1,57,_DL_Japanese_Folk_Pop_Acoustic_Folk_Guitar,6,4,_DL_Japanese_Folk_Pop_Acoustic_Folk_Guitar,0.9984880685806274,1
61,100,0.2409090909090909,110,0,57,_DL_Japanese_Folk_Pop_Acoustic_Folk_Guitar,6,4,_DL_Japanese_Folk_Pop_Acoustic_Folk_Guitar,0.06334656476974487,0
61,100,0.1590909090909091,254,0,57,_DL_Japanese_Folk_Pop_Acoustic_Folk_Guitar,6,3,_DL_Japanese_Folk_Pop_Acoustic_Folk_Guitar,0.0577438548207283,0
69,100,0.2409090909090909,373,0,57,_DL_Japanese_Folk_Pop_Acoustic_Folk_Guitar,6,4,_DL_Japanese_Folk_Pop_Acoustic_Folk_Guitar,0.06020403653383255,0
57,100,0.11818181818181818,616,1,57,_DL_Japanese_Folk_Pop_Acoustic_Folk_Guitar,6,2,_DL_Japanese_Folk_Pop_Acoustic_Folk_Guitar,0.0697028711438179,0
66,100,0.16363636363636364,641,0,57,_DL_Japanese_Folk_Pop_Acoustic_Folk_Guitar,6,3,_DL_Japanese_Folk_Pop_Acoustic_Folk_Guitar,0.08189771324396133,0
62,100,0.6181818181818182,810,0,57,_DL_Japanese_Folk_Pop_Acoustic_Folk_Guitar,6,10,_DL_Japanese_Folk_Pop_Acoustic_Folk_Guitar,0.12402219325304031,0
62,100,0.4409090909090909,251,1,58,_DL_Japanese_Folk_Pop_Acoustic_Folk_Guitar,6,7,_DL_Japanese_Folk_Pop_Acoustic_Folk_Guitar,0.9990057349205017,1
59,100,0.2590909090909091,628,1,58,_DL_Japanese_Folk_Pop_Acoustic_Folk_Guitar,6,4,_DL_Japanese_Folk_Pop_Acoustic_Folk_Guitar,0.2312055230140686,0
62,100,0.41818181818181815,703,0,58,_DL_Japanese_Folk_Pop_Acoustic_Folk_Guitar,6,7,_DL_Japanese_Folk_Pop_Acoustic_Folk_Guitar,0.26592037081718445,0
59,100,0.1409090909090909,801,0,58,_DL_Japanese_Folk_Pop_Acoustic_Folk_Guitar,6,2,_DL_Japanese_Folk_Pop_Acoustic_Folk_Guitar,0.3542007505893707,0
66,100,0.1409090909090909,21,1,59,_DL_Japanese_Folk_Pop_Acoustic_Folk_Guitar,6,2,_DL_Japanese_Folk_Pop_Acoustic_Folk_Guitar,0.9990229606628418,1
59,100,0.11818181818181818,536,1,59,_DL_Japanese_Folk_Pop_Acoustic_Folk_Guitar,6,2,_DL_Japanese_Folk_Pop_Acoustic_Folk_Guitar,0.3666185140609741,0
59,100,0.18181818181818182,571,0,59,_DL_Japanese_Folk_Pop_Acoustic_Folk_Guitar,6,3,_DL_Japanese_Folk_Pop_Acoustic_Folk_Guitar,0.453285276889801,0
62,100,0.1,201,1,60,_DL_Japanese_Folk_Pop_Acoustic_Folk_Guitar,6,2,_DL_Japanese_Folk_Pop_Acoustic_Folk_Guitar,0.9988419413566589,1
57,100,0.1,581,1,60,_DL_Japanese_Folk_Pop_Acoustic_Folk_Guitar,6,2,_DL_Japanese_Folk_Pop_Acoustic_Folk_Guitar,0.13724544644355774,0
57,100,0.3,606,0,60,_DL_Japanese_Folk_Pop_Acoustic_Folk_Guitar,6,5,_DL_Japanese_Folk_Pop_Acoustic_Folk_Guitar,0.1597791612148285,0
59,100,0.2590909090909091,700,0,60,_DL_Japanese_Folk_Pop_Acoustic_Folk_Guitar,6,4,_DL_Japanese_Folk_Pop_Acoustic_Folk_Guitar,0.18645364046096802,0
64,100,0.16363636363636364,861,0,60,_DL_Japanese_Folk_Pop_Acoustic_Folk_Guitar,6,3,_DL_Japanese_Folk_Pop_Acoustic_Folk_Guitar,0.25817498564720154,0
61,100,0.5818181818181818,21,1,61,_DL_Japanese_Folk_Pop_Acoustic_Folk_Guitar,6,9,_DL_Japanese_Folk_Pop_Acoustic_Folk_Guitar,0.9990057349205017,1
59,100,0.11818181818181818,153,0,61,_DL_Japanese_Folk_Pop_Acoustic_Folk_Guitar,6,2,_DL_Japanese_Folk_Pop_Acoustic_Folk_Guitar,0.23120735585689545,0
57,100,0.2590909090909091,330,0,61,_DL_Japanese_Folk_Pop_Acoustic_Folk_Guitar,6,4,_DL_Japanese_Folk_Pop_Acoustic_Folk_Guitar,0.265919953584671,0
59,100,0.5181818181818182,655,1,61,_DL_Japanese_Folk_Pop_Acoustic_Folk_Guitar,6,8,_DL_Japanese_Folk_Pop_Acoustic_Folk_Guitar,0.3541955053806305,0
61,100,0.12272727272727273,34,1,62,_DL_Japanese_Folk_Pop_Acoustic_Folk_Guitar,6,2,_DL_Japanese_Folk_Pop_Acoustic_Folk_Guitar,0.9988419413566589,1
57,100,0.8590909090909091,75,0,62,_DL_Japanese_Folk_Pop_Acoustic_Folk_Guitar,6,14,_DL_Japanese_Folk_Pop_Acoustic_Folk_Guitar,0.13724516332149506,0
61,100,0.8,268,0,62,_DL_Japanese_Folk_Pop_Acoustic_Folk_Guitar,6,13,_DL_Japanese_Folk_Pop_Acoustic_Folk_Guitar,0.159775972366333,0
57,100,0.17727272727272728,691,1,62,_DL_Japanese_Folk_Pop_Acoustic_Folk_Guitar,6,3,_DL_Japanese_Folk_Pop_Acoustic_Folk_Guitar,0.18644961714744568,0
59,100,0.11818181818181818,791,0,62,_DL_Japanese_Folk_Pop_Acoustic_Folk_Guitar,6,2,_DL_Japanese_Folk_Pop_Acoustic_Folk_Guitar,0.2581641376018524,0
52,100,0.2409090909090909,176,1,63,_DL_Japanese_Folk_Pop_Acoustic_Folk_Guitar,6,4,_DL_Japanese_Folk_Pop_Acoustic_Folk_Guitar,0.9983004927635193,1
56,100,0.2,246,0,63,_DL_Japanese_Folk_Pop_Acoustic_Folk_Guitar,6,3,_DL_Japanese_Folk_Pop_Acoustic_Folk_Guitar,0.04466395080089569,0
56,100,0.1590909090909091,370,0,63,_DL_Japanese_Folk_Pop_Acoustic_Folk_Guitar,6,3,_DL_Japanese_Folk_Pop_Acoustic_Folk_Guitar,0.03315147012472153,0
68,100,0.17727272727272728,471,0,63,_DL_Japanese_Folk_Pop_Acoustic_Folk_Guitar,6,3,_DL_Japanese_Folk_Pop_Acoustic_Folk_Guitar,0.02658047154545784,0
57,100,0.18181818181818182,598,0,63,_DL_Japanese_Folk_Pop_Acoustic_Folk_Guitar,6,3,_DL_Japanese_Folk_Pop_Acoustic_Folk_Guitar,0.02359648048877716,0
61,100,0.11818181818181818,681,0,63,_DL_Japanese_Folk_Pop_Acoustic_Folk_Guitar,6,2,_DL_Japanese_Folk_Pop_Acoustic_Folk_Guitar,0.024315964430570602,0
57,100,0.3,716,0,63,_DL_Japanese_Folk_Pop_Acoustic_Folk_Guitar,6,5,_DL_Japanese_Folk_Pop_Acoustic_Folk_Guitar,0.029691500589251518,0
61,100,0.3,796,0,63,_DL_Japanese_Folk_Pop_Acoustic_Folk_Guitar,6,5,_DL_Japanese_Folk_Pop_Acoustic_Folk_Guitar,0.040079470723867416,0
57,100,0.3181818181818182,866,0,63,_DL_Japanese_Folk_Pop_Acoustic_Folk_Guitar,6,5,_DL_Japanese_Folk_Pop_Acoustic_Folk_Guitar,0.07093203812837601,0
61,100,0.23636363636363636,83,1,64,_DL_Japanese_Folk_Pop_Acoustic_Folk_Guitar,6,4,_DL_Japanese_Folk_Pop_Acoustic_Folk_Guitar,0.9990057349205017,1
59,100,0.1,179,0,64,_DL_Japanese_Folk_Pop_Acoustic_Folk_Guitar,6,2,_DL_Japanese_Folk_Pop_Acoustic_Folk_Guitar,0.2312048077583313,0
61,100,0.16363636363636364,422,1,64,_DL_Japanese_Folk_Pop_Acoustic_Folk_Guitar,6,3,_DL_Japanese_Folk_Pop_Acoustic_Folk_Guitar,0.26591557264328003,0
61,100,0.7,580,0,64,_DL_Japanese_Folk_Pop_Acoustic_Folk_Guitar,6,11,_DL_Japanese_Folk_Pop_Acoustic_Folk_Guitar,0.3541904389858246,0
59,100,0.12272727272727273,123,1,65,_DL_Japanese_Folk_Pop_Acoustic_Folk_Guitar,6,2,_DL_Japanese_Folk_Pop_Acoustic_Folk_Guitar,0.9986500144004822,1
56,100,0.2,509,1,65,_DL_Japanese_Folk_Pop_Acoustic_Folk_Guitar,6,3,_DL_Japanese_Folk_Pop_Acoustic_Folk_Guitar,0.08780308812856674,0
64,100,0.13636363636363635,633,0,65,_DL_Japanese_Folk_Pop_Acoustic_Folk_Guitar,6,2,_DL_Japanese_Folk_Pop_Acoustic_Folk_Guitar,0.09181692451238632,0
59,100,0.36363636363636365,686,0,65,_DL_Japanese_Folk_Pop_Acoustic_Folk_Guitar,6,6,_DL_Japanese_Folk_Pop_Acoustic_Folk_Guitar,0.10747954994440079,0
52,100,0.18181818181818182,792,0,65,_DL_Japanese_Folk_Pop_Acoustic_Folk_Guitar,6,3,_DL_Japanese_Folk_Pop_Acoustic_Folk_Guitar,0.12483187019824982,0
57,100,0.37727272727272726,876,0,65,_DL_Japanese_Folk_Pop_Acoustic_Folk_Guitar,6,6,_DL_Japanese_Folk_Pop_Acoustic_Folk_Guitar,0.17903441190719604,0
61,100,0.740909090909091,96,1,66,_DL_Japanese_Folk_Pop_Acoustic_Folk_Guitar,6,12,_DL_Japanese_Folk_Pop_Acoustic_Folk_Guitar,0.9984879493713379,1
57,100,0.21818181818181817,260,0,66,_DL_Japanese_Folk_Pop_Acoustic_Folk_Guitar,6,3,_DL_Japanese_Folk_Pop_Acoustic_Folk_Guitar,0.06334598362445831,0
61,100,0.2409090909090909,320,0,66,_DL_Japanese_Folk_Pop_Acoustic_Folk_Guitar,6,4,_DL_Japanese_Folk_Pop_Acoustic_Folk_Guitar,0.05774468928575516,0
57,100,0.12272727272727273,409,0,66,_DL_Japanese_Folk_Pop_Acoustic_Folk_Guitar,6,2,_DL_Japanese_Folk_Pop_Acoustic_Folk_Guitar,0.060203682631254196,0
57,100,0.12272727272727273,629,0,66,_DL_Japanese_Folk_Pop_Acoustic_Folk_Guitar,6,2,_DL_Japanese_Folk_Pop_Acoustic_Folk_Guitar,0.06970773637294769,0
61,100,0.5590909090909091,690,0,66,_DL_Japanese_Folk_Pop_Acoustic_Folk_Guitar,6,9,_DL_Japanese_Folk_Pop_Acoustic_Folk_Guitar,0.08189517259597778,0
61,100,0.11818181818181818,857,0,66,_DL_Japanese_Folk_Pop_Acoustic_Folk_Guitar,6,2,_DL_Japanese_Folk_Pop_Acoustic_Folk_Guitar,0.12402711808681488,0
61,100,0.1,17,1,67,_DL_Japanese_Folk_Pop_Acoustic_Folk_Guitar,6,2,_DL_Japanese_Folk_Pop_Acoustic_Folk_Guitar,0.9988419413566589,1
61,100,0.2772727272727273,53,0,67,_DL_Japanese_Folk_Pop_Acoustic_Folk_Guitar,6,4,_DL_Japanese_Folk_Pop_Acoustic_Folk_Guitar,0.13724958896636963,0
69,100,0.1590909090909091,360,1,67,_DL_Japanese_Folk_Pop_Acoustic_Folk_Guitar,6,3,_DL_Japanese_Folk_Pop_Acoustic_Folk_Guitar,0.1597781628370285,0
62,100,0.12272727272727273,475,0,67,_DL_Japanese_Folk_Pop_Acoustic_Folk_Guitar,6,2,_DL_Japanese_Folk_Pop_Acoustic_Folk_Guitar,0.1864568144083023,0
59,100,0.5818181818181818,760,1,67,_DL_Japanese_Folk_Pop_Acoustic_Folk_Guitar,6,9,_DL_Japanese_Folk_Pop_Acoustic_Folk_Guitar,0.2581721842288971,0
59,100,0.2590909090909091,13,1,68,_DL_Japanese_Folk_Pop_Acoustic_Folk_Guitar,6,4,_DL_Japanese_Folk_Pop_Acoustic_Folk_Guitar,0.9988419413566589,1
59,100,0.2409090909090909,519,1,68,_DL_Japanese_Folk_Pop_Acoustic_Folk_Guitar,6,4,_DL_Japanese_Folk_Pop_Acoustic_Folk_Guitar,0.13724717497825623,0
61,100,0.2409090909090909,585,0,68,_DL_Japanese_Folk_Pop_Acoustic_Folk_Guitar,6,4,_DL_Japanese_Folk_Pop_Acoustic_Folk_Guitar,0.15977507829666138,0
61,100,0.13636363636363635,677,0,68,_DL_Japanese_Folk_Pop_Acoustic_Folk_Guitar,6,2,_DL_Japanese_Folk_Pop_Acoustic_Folk_Guitar,0.18645024299621582,0
57,100,0.4409090909090909,747,0,68,_DL_Japanese_Folk_Pop_Acoustic_Folk_Guitar,6,7,_DL_Japanese_Folk_Pop_Acoustic_Folk_Guitar,0.258165568113327,0
64,100,0.11818181818181818,373,1,69,_DL_Japanese_Folk_Pop_Acoustic_Folk_Guitar,6,2,_DL_Japanese_Folk_Pop_Acoustic_Folk_Guitar,0.9990229606628418,1
57,100,0.4590909090909091,593,0,69,_DL_Japanese_Folk_Pop_Acoustic_Folk_Guitar,6,7,_DL_Japanese_Folk_Pop_Acoustic_Folk_Guitar,0.36662232875823975,0
57,100,0.22272727272727272,849,1,69,_DL_Japanese_Folk_Pop_Acoustic_Folk_Guitar,6,4,_DL_Japanese_Folk_Pop_Acoustic_Folk_Guitar,0.45329418778419495,0
64,100,0.1,210,1,70,_DL_Japanese_Folk_Pop_Acoustic_Folk_Guitar,6,2,_DL_Japanese_Folk_Pop_Acoustic_Folk_Guitar,0.9986500144004822,1
64,100,0.3181818181818182,417,0,70,_DL_Japanese_Folk_Pop_Acoustic_Folk_Guitar,6,5,_DL_Japanese_Folk_Pop_Acoustic_Folk_Guitar,0.08780205249786377,0
57,100,0.7181818181818181,502,0,70,_DL_Japanese_Folk_Pop_Acoustic_Folk_Guitar,6,11,_DL_Japanese_Folk_Pop_Acoustic_Folk_Guitar,0.09181283414363861,0
61,100,0.18181818181818182,752,1,70,_DL_Japanese_Folk_Pop_Acoustic_Folk_Guitar,6,3,_DL_Japanese_Folk_Pop_Acoustic_Folk_Guitar,0.10747804492712021,0
61,100,0.17727272727272728,810,0,70,_DL_Japanese_Folk_Pop_Acoustic_Folk_Guitar,6,3,_DL_Japanese_Folk_Pop_Acoustic_Folk_Guitar,0.12482457607984543,0
61,100,0.2590909090909091,866,0,70,_DL_Japanese_Folk_Pop_Acoustic_Folk_Guitar,6,4,_DL_Japanese_Folk_Pop_Acoustic_Folk_Guitar,0.17903314530849457,0
57,100,0.2409090909090909,163,1,71,_DL_Japanese_Folk_Pop_Acoustic_Folk_Guitar,6,4,_DL_Japanese_Folk_Pop_Acoustic_Folk_Guitar,0.9988419413566589,1
57,100,0.4,263,0,71,_DL_Japanese_Folk_Pop_Acoustic_Folk_Guitar,6,6,_DL_Japanese_Folk_Pop_Acoustic_Folk_Guitar,0.1372535526752472,0
61,100,0.8227272727272728,365,0,71,_DL_Japanese_Folk_Pop_Acoustic_Folk_Guitar,6,13,_DL_Japanese_Folk_Pop_Acoustic_Folk_Guitar,0.15977822244167328,0
57,100,0.1409090909090909,553,0,71,_DL_Japanese_Folk_Pop_Acoustic_Folk_Guitar,6,2,_DL_Japanese_Folk_Pop_Acoustic_Folk_Guitar,0.18645623326301575,0
62,100,0.11818181818181818,612,0,71,_DL_Japanese_Folk_Pop_Acoustic_Folk_Guitar,6,2,_DL_Japanese_Folk_Pop_Acoustic_Folk_Guitar,0.25817200541496277,0
57,100,0.3409090909090909,26,1,72,_DL_Japanese_Folk_Pop_Acoustic_Folk_Guitar,6,5,_DL_Japanese_Folk_Pop_Acoustic_Folk_Guitar,0.9990057349205017,1
62,100,0.5227272727272727,113,0,72,_DL_Japanese_Folk_Pop_Acoustic_Folk_Guitar,6,8,_DL_Japanese_Folk_Pop_Acoustic_Folk_Guitar,0.23120442032814026,0
59,100,0.2409090909090909,462,1,72,_DL_Japanese_Folk_Pop_Acoustic_Folk_Guitar,6,4,_DL_Japanese_Folk_Pop_Acoustic_Folk_Guitar,0.2659216523170471,0
64,100,0.2409090909090909,650,0,72,_DL_Japanese_Folk_Pop_Acoustic_Folk_Guitar,6,4,_DL_Japanese_Folk_Pop_Acoustic_Folk_Guitar,0.3542026877403259,0
64,100,0.16363636363636364,179,1,73,_DL_Japanese_Folk_Pop_Acoustic_Folk_Guitar,6,3,_DL_Japanese_Folk_Pop_Acoustic_Folk_Guitar,0.9990057349205017,1
61,100,0.4818181818181818,576,1,73,_DL_Japanese_Folk_Pop_Acoustic_Folk_Guitar,6,8,_DL_Japanese_Folk_Pop_Acoustic_Folk_Guitar,0.2312031239271164,0
61,100,0.1,722,0,73,_DL_Japanese_Folk_Pop_Acoustic_Folk_Guitar,6,2,_DL_Japanese_Folk_Pop_Acoustic_Folk_Guitar,0.265921950340271,0
61,100,0.759090909090909,747,0,73,_DL_Japanese_Folk_Pop_Acoustic_Folk_Guitar,6,12,_DL_Japanese_Folk_Pop_Acoustic_Folk_Guitar,0.3541924059391022,0
66,100,0.8,74,1,74,_DL_Japanese_Folk_Pop_Acoustic_Folk_Guitar,6,13,_DL_Japanese_Folk_Pop_Acoustic_Folk_Guitar,0.9988419413566589,1
57,100,0.6409090909090909,255,0,74,_DL_Japanese_Folk_Pop_Acoustic_Folk_Guitar,6,10,_DL_Japanese_Folk_Pop_Acoustic_Folk_Guitar,0.13724331557750702,0
59,100,0.2772727272727273,567,1,74,_DL_Japanese_Folk_Pop_Acoustic_Folk_Guitar,6,4,_DL_Japanese_Folk_Pop_Acoustic_Folk_Guitar,0.15977276861667633,0
59,100,0.1,760,0,74,_DL_Japanese_Folk_Pop_Acoustic_Folk_Guitar,6,2,_DL_Japanese_Folk_Pop_Acoustic_Folk_Guitar,0.18644213676452637,0
64,100,0.1,813,0,74,_DL_Japanese_Folk_Pop_Acoustic_Folk_Guitar,6,2,_DL_Japanese_Folk_Pop_Acoustic_Folk_Guitar,0.2581619918346405,0
59,100,0.1,3,1,75,_DL_Japanese_Folk_Pop_Acoustic_Folk_Guitar,6,2,_DL_Japanese_Folk_Pop_Acoustic_Folk_Guitar,0.9982276558876038,1
61,100,0.1,30,0,75,_DL_Japanese_Folk_Pop_Acoustic_Folk_Guitar,6,2,_DL_Japanese_Folk_Pop_Acoustic_Folk_Guitar,0.03939712047576904,0
64,100,0.4772727272727273,83,0,75,_DL_Japanese_Folk_Pop_Acoustic_Folk_Guitar,6,8,_DL_Japanese_Folk_Pop_Acoustic_Folk_Guitar,0.0266732107847929,0
53,100,0.11818181818181818,193,0,75,_DL_Japanese_Folk_Pop_Acoustic_Folk_Guitar,6,2,_DL_Japanese_Folk_Pop_Acoustic_Folk_Guitar,0.01858765445649624,0
61,100,0.1590909090909091,263,0,75,_DL_Japanese_Folk_Pop_Acoustic_Folk_Guitar,6,3,_DL_Japanese_Folk_Pop_Acoustic_Folk_Guitar,0.013413929380476475,0
61,100,0.3409090909090909,312,0,75,_DL_Japanese_Folk_Pop_Acoustic_Folk_Guitar,6,5,_DL_Japanese_Folk_Pop_Acoustic_Folk_Guitar,0.010587167926132679,0
57,100,0.2590909090909091,392,0,75,_DL_Japanese_Folk_Pop_Acoustic_Folk_Guitar,6,4,_DL_Japanese_Folk_Pop_Acoustic_Folk_Guitar,0.009839700534939766,0
61,100,0.2409090909090909,509,0,75,_DL_Japanese_Folk_Pop_Acoustic_Folk_Guitar,6,4,_DL_Japanese_Folk_Pop_Acoustic_Folk_Guitar,0.011417568661272526,0
61,100,0.5818181818181818,572,0,75,_DL_Japanese_Folk_Pop_Acoustic_Folk_Guitar,6,9,_DL_Japanese_Folk_Pop_Acoustic_Folk_Guitar,0.01651243306696415,0
54,100,0.5181818181818182,722,0,75,_DL_Japanese_Folk_Pop_Acoustic_Folk_Guitar,6,8,_DL_Japanese_Folk_Pop_Acoustic_Folk_Guitar,0.026819339022040367,0
61,100,0.740909090909091,862,0,75,_DL_Japanese_Folk_Pop_Acoustic_Folk_Guitar,6,12,_DL_Japanese_Folk_Pop_Acoustic_Folk_Guitar,0.05391581356525421,0
62,100,0.2772727272727273,216,1,76,_DL_Japanese_Folk_Pop_Acoustic_Folk_Guitar,6,4,_DL_Japanese_Folk_Pop_Acoustic_Folk_Guitar,0.9986500144004822,1
59,100,0.21818181818181817,330,0,76,_DL_Japanese_Folk_Pop_Acoustic_Folk_Guitar,6,3,_DL_Japanese_Folk_Pop_Acoustic_Folk_Guitar,0.08780663460493088,0
62,100,0.6,386,0,76,_DL_Japanese_Folk_Pop_Acoustic_Folk_Guitar,6,10,_DL_Japanese_Folk_Pop_Acoustic_Folk_Guitar,0.0918189138174057,0
66,100,0.1409090909090909,682,1,76,_DL_Japanese_Folk_Pop_Acoustic_Folk_Guitar,6,2,_DL_Japanese_Folk_Pop_Acoustic_Folk_Guitar,0.10748803615570068,0
66,100,0.2,716,0,76,_DL_Japanese_Folk_Pop_Acoustic_Folk_Guitar,6,3,_DL_Japanese_Folk_Pop_Acoustic_Folk_Guitar,0.12483518570661545,0
59,100,0.1,839,0,76,_DL_Japanese_Folk_Pop_Acoustic_Folk_Guitar,6,2,_DL_Japanese_Folk_Pop_Acoustic_Folk_Guitar,0.17904691398143768,0
52,100,0.38181818181818183,22,1,77,_DL_Japanese_Folk_Pop_Acoustic_Folk_Guitar,6,6,_DL_Japanese_Folk_Pop_Acoustic_Folk_Guitar,0.9986500144004822,1
59,100,0.2409090909090909,220,0,77,_DL_Japanese_Folk_Pop_Acoustic_Folk_Guitar,6,4,_DL_Japanese_Folk_Pop_Acoustic_Folk_Guitar,0.08780224621295929,0
52,100,0.5409090909090909,299,0,77,_DL_Japanese_Folk_Pop_Acoustic_Folk_Guitar,6,9,_DL_Japanese_Folk_Pop_Acoustic_Folk_Guitar,0.0918133482336998,0
61,100,0.6590909090909091,519,0,77,_DL_Japanese_Folk_Pop_Acoustic_Folk_Guitar,6,11,_DL_Japanese_Folk_Pop_Acoustic_Folk_Guitar,0.10747645795345306,0
61,100,0.11818181818181818,756,1,77,_DL_Japanese_Folk_Pop_Acoustic_Folk_Guitar,6,2,_DL_Japanese_Folk_Pop_Acoustic_Folk_Guitar,0.12482738494873047,0
61,100,0.7,805,0,77,_DL_Japanese_Folk_Pop_Acoustic_Folk_Guitar,6,11,_DL_Japanese_Folk_Pop_Acoustic_Folk_Guitar,0.17903125286102295,0
61,100,0.1590909090909091,127,1,78,_DL_Japanese_Folk_Pop_Acoustic_Folk_Guitar,6,3,_DL_Japanese_Folk_Pop_Acoustic_Folk_Guitar,0.9988419413566589,1
61,100,0.1,166,0,78,_DL_Japanese_Folk_Pop_Acoustic_Folk_Guitar,6,2,_DL_Japanese_Folk_Pop_Acoustic_Folk_Guitar,0.13724926114082336,0
61,100,0.6181818181818182,220,0,78,_DL_Japanese_Folk_Pop_Acoustic_Folk_Guitar,6,10,_DL_Japanese_Folk_Pop_Acoustic_Folk_Guitar,0.15977860987186432,0
57,100,0.2409090909090909,396,0,78,_DL_Japanese_Folk_Pop_Acoustic_Folk_Guitar,6,4,_DL_Japanese_Folk_Pop_Acoustic_Folk_Guitar,0.18645048141479492,0
69,100,0.1409090909090909,449,0,78,_DL_Japanese_Folk_Pop_Acoustic_Folk_Guitar,6,2,_DL_Japanese_Folk_Pop_Acoustic_Folk_Guitar,0.25816604495048523,0
64,100,0.9363636363636364,565,1,0,_DL_Japanese_Folk_Pop_Acoustic_Folk_Guitar_1,6,15,_DL_Japanese_Folk_Pop_Acoustic_Folk_Guitar_1,0.979256272315979,0
52,100,0.1318181818181818,77,1,1,_DL_Japanese_Folk_Pop_Acoustic_Folk_Guitar_1,6,2,_DL_Japanese_Folk_Pop_Acoustic_Folk_Guitar_1,0.9990057349205017,1
64,100,0.15454545454545454,171,0,1,_DL_Japanese_Folk_Pop_Acoustic_Folk_Guitar_1,6,2,_DL_Japanese_Folk_Pop_Acoustic_Folk_Guitar_1,0.2312057763338089,0
59,100,0.10909090909090909,279,0,1,_DL_Japanese_Folk_Pop_Acoustic_Folk_Guitar_1,6,2,_DL_Japanese_Folk_Pop_Acoustic_Folk_Guitar_1,0.26592233777046204,0
59,100,0.8909090909090909,672,1,1,_DL_Japanese_Folk_Pop_Acoustic_Folk_Guitar_1,6,14,_DL_Japanese_Folk_Pop_Acoustic_Folk_Guitar_1,0.35419467091560364,0
57,100,0.17727272727272728,110,1,2,_DL_Japanese_Folk_Pop_Acoustic_Folk_Guitar_1,6,3,_DL_Japanese_Folk_Pop_Acoustic_Folk_Guitar_1,0.9984880685806274,1
61,100,0.31363636363636366,247,0,2,_DL_Japanese_Folk_Pop_Acoustic_Folk_Guitar_1,6,5,_DL_Japanese_Folk_Pop_Acoustic_Folk_Guitar_1,0.06334543228149414,0
52,100,0.33636363636363636,360,0,2,_DL_Japanese_Folk_Pop_Acoustic_Folk_Guitar_1,6,5,_DL_Japanese_Folk_Pop_Acoustic_Folk_Guitar_1,0.05774306878447533,0
56,100,0.1318181818181818,449,0,2,_DL_Japanese_Folk_Pop_Acoustic_Folk_Guitar_1,6,2,_DL_Japanese_Folk_Pop_Acoustic_Folk_Guitar_1,0.060203906148672104,0
57,100,0.6909090909090909,504,0,2,_DL_Japanese_Folk_Pop_Acoustic_Folk_Guitar_1,6,11,_DL_Japanese_Folk_Pop_Acoustic_Folk_Guitar_1,0.06970447301864624,0
57,100,0.11363636363636363,660,0,2,_DL_Japanese_Folk_Pop_Acoustic_Folk_Guitar_1,6,2,_DL_Japanese_Folk_Pop_Acoustic_Folk_Guitar_1,0.08189578354358673,0
62,100,0.6454545454545455,739,0,2,_DL_Japanese_Folk_Pop_Acoustic_Folk_Guitar_1,6,10,_DL_Japanese_Folk_Pop_Acoustic_Folk_Guitar_1,0.12402158975601196,0
62,100,0.15454545454545454,6,1,3,_DL_Japanese_Folk_Pop_Acoustic_Folk_Guitar_1,6,2,_DL_Japanese_Folk_Pop_Acoustic_Folk_Guitar_1,0.9988419413566589,1
57,100,0.6681818181818182,45,0,3,_DL_Japanese_Folk_Pop_Acoustic_Folk_Guitar_1,6,11,_DL_Japanese_Folk_Pop_Acoustic_Folk_Guitar_1,0.13724972307682037,0
62,100,0.15454545454545454,351,1,3,_DL_Japanese_Folk_Pop_Acoustic_Folk_Guitar_1,6,2,_DL_Japanese_Folk_Pop_Acoustic_Folk_Guitar_1,0.1597820222377777,0
64,100,0.6045454545454545,418,0,3,_DL_Japanese_Folk_Pop_Acoustic_Folk_Guitar_1,6,10,_DL_Japanese_Folk_Pop_Acoustic_Folk_Guitar_1,0.186459019780159,0
59,100,0.6045454545454545,639,0,3,_DL_Japanese_Folk_Pop_Acoustic_Folk_Guitar_1,6,10,_DL_Japanese_Folk_Pop_Acoustic_Folk_Guitar_1,0.25817662477493286,0
61,100,0.5545454545454546,686,1,6,_DL_Japanese_Folk_Pop_Acoustic_Folk_Guitar_1,6,9,_DL_Japanese_Folk_Pop_Acoustic_Folk_Guitar_1,0.9990229606628418,1
59,100,0.18181818181818182,808,0,6,_DL_Japanese_Folk_Pop_Acoustic_Folk_Guitar_1,6,3,_DL_Japanese_Folk_Pop_Acoustic_Folk_Guitar_1,0.36662864685058594,0
60,100,0.2,849,0,6,_DL_Japanese_Folk_Pop_Acoustic_Folk_Guitar_1,6,3,_DL_Japanese_Folk_Pop_Acoustic_Folk_Guitar_1,0.45329663157463074,0
59,100,0.2681818181818182,12,1,7,_DL_Japanese_Folk_Pop_Acoustic_Folk_Guitar_1,6,4,_DL_Japanese_Folk_Pop_Acoustic_Folk_Guitar_1,0.9983736276626587,1
57,100,0.2636363636363636,81,0,7,_DL_Japanese_Folk_Pop_Acoustic_Folk_Guitar_1,6,4,_DL_Japanese_Folk_Pop_Acoustic_Folk_Guitar_1,0.051061131060123444,0
57,100,0.1318181818181818,189,0,7,_DL_Japanese_Folk_Pop_Acoustic_Folk_Guitar_1,6,2,_DL_Japanese_Folk_Pop_Acoustic_Folk_Guitar_1,0.04130443558096886,0
56,100,0.33181818181818185,298,0,7,_DL_Japanese_Folk_Pop_Acoustic_Folk_Guitar_1,6,5,_DL_Japanese_Folk_Pop_Acoustic_Folk_Guitar_1,0.03738695755600929,0
52,100,0.37727272727272726,459,0,7,_DL_Japanese_Folk_Pop_Acoustic_Folk_Guitar_1,6,6,_DL_Japanese_Folk_Pop_Acoustic_Folk_Guitar_1,0.03833158686757088,0
52,100,0.10909090909090909,557,0,7,_DL_Japanese_Folk_Pop_Acoustic_Folk_Guitar_1,6,2,_DL_Japanese_Folk_Pop_Acoustic_Folk_Guitar_1,0.044754087924957275,0
52,100,0.17727272727272728,597,0,7,_DL_Japanese_Folk_Pop_Acoustic_Folk_Guitar_1,6,3,_DL_Japanese_Folk_Pop_Acoustic_Folk_Guitar_1,0.05523146688938141,0
57,100,0.5136363636363637,848,1,7,_DL_Japanese_Folk_Pop_Acoustic_Folk_Guitar_1,6,8,_DL_Japanese_Folk_Pop_Acoustic_Folk_Guitar_1,0.09026443213224411,0
57,100,0.5545454545454546,189,1,8,_DL_Japanese_Folk_Pop_Acoustic_Folk_Guitar_1,6,9,_DL_Japanese_Folk_Pop_Acoustic_Folk_Guitar_1,0.9990229606628418,1
57,100,0.22272727272727272,340,0,8,_DL_Japanese_Folk_Pop_Acoustic_Folk_Guitar_1,6,4,_DL_Japanese_Folk_Pop_Acoustic_Folk_Guitar_1,0.36663514375686646,0
57,100,0.37727272727272726,551,0,8,_DL_Japanese_Folk_Pop_Acoustic_Folk_Guitar_1,6,6,_DL_Japanese_Folk_Pop_Acoustic_Folk_Guitar_1,0.4532957673072815,0
57,100,0.37727272727272726,280,1,9,_DL_Japanese_Folk_Pop_Acoustic_Folk_Guitar_1,6,6,_DL_Japanese_Folk_Pop_Acoustic_Folk_Guitar_1,0.9990057349205017,1
54,100,0.42272727272727273,486,0,9,_DL_Japanese_Folk_Pop_Acoustic_Folk_Guitar_1,6,7,_DL_Japanese_Folk_Pop_Acoustic_Folk_Guitar_1,0.231209859251976,0
69,100,0.2909090909090909,589,0,9,_DL_Japanese_Folk_Pop_Acoustic_Folk_Guitar_1,6,5,_DL_Japanese_Folk_Pop_Acoustic_Folk_Guitar_1,0.26591575145721436,0
69,100,0.10909090909090909,663,0,9,_DL_Japanese_Folk_Pop_Acoustic_Folk_Guitar_1,6,2,_DL_Japanese_Folk_Pop_Acoustic_Folk_Guitar_1,0.3541920483112335,0
57,100,0.6681818181818182,280,1,10,_DL_Japanese_Folk_Pop_Acoustic_Folk_Guitar_1,6,11,_DL_Japanese_Folk_Pop_Acoustic_Folk_Guitar_1,0.9988419413566589,1
69,100,0.11363636363636363,426,0,10,_DL_Japanese_Folk_Pop_Acoustic_Folk_Guitar_1,6,2,_DL_Japanese_Folk_Pop_Acoustic_Folk_Guitar_1,0.1372489631175995,0
56,100,0.4,491,0,10,_DL_Japanese_Folk_Pop_Acoustic_Folk_Guitar_1,6,6,_DL_Japanese_Folk_Pop_Acoustic_Folk_Guitar_1,0.15977436304092407,0
56,100,0.11363636363636363,584,0,10,_DL_Japanese_Folk_Pop_Acoustic_Folk_Guitar_1,6,2,_DL_Japanese_Folk_Pop_Acoustic_Folk_Guitar_1,0.1864490956068039,0
59,100,0.2681818181818182,697,0,10,_DL_Japanese_Folk_Pop_Acoustic_Folk_Guitar_1,6,4,_DL_Japanese_Folk_Pop_Acoustic_Folk_Guitar_1,0.25816166400909424,0
59,100,0.13636363636363635,381,1,11,_DL_Japanese_Folk_Pop_Acoustic_Folk_Guitar_1,6,2,_DL_Japanese_Folk_Pop_Acoustic_Folk_Guitar_1,0.9990057349205017,1
52,100,0.2909090909090909,613,1,11,_DL_Japanese_Folk_Pop_Acoustic_Folk_Guitar_1,6,5,_DL_Japanese_Folk_Pop_Acoustic_Folk_Guitar_1,0.23120926320552826,0
52,100,0.11363636363636363,696,0,11,_DL_Japanese_Folk_Pop_Acoustic_Folk_Guitar_1,6,2,_DL_Japanese_Folk_Pop_Acoustic_Folk_Guitar_1,0.26593586802482605,0
57,100,0.6272727272727273,749,0,11,_DL_Japanese_Folk_Pop_Acoustic_Folk_Guitar_1,6,10,_DL_Japanese_Folk_Pop_Acoustic_Folk_Guitar_1,0.3542012572288513,0
52,100,0.24545454545454545,316,1,12,_DL_Japanese_Folk_Pop_Acoustic_Folk_Guitar_1,6,4,_DL_Japanese_Folk_Pop_Acoustic_Folk_Guitar_1,0.9983165264129639,1
52,100,0.1590909090909091,376,0,12,_DL_Japanese_Folk_Pop_Acoustic_Folk_Guitar_1,6,3,_DL_Japanese_Folk_Pop_Acoustic_Folk_Guitar_1,0.5445590615272522,0
57,100,0.8045454545454546,115,1,13,_DL_Japanese_Folk_Pop_Acoustic_Folk_Guitar_1,6,13,_DL_Japanese_Folk_Pop_Acoustic_Folk_Guitar_1,0.9990229606628418,1
57,100,0.11363636363636363,379,1,13,_DL_Japanese_Folk_Pop_Acoustic_Folk_Guitar_1,6,2,_DL_Japanese_Folk_Pop_Acoustic_Folk_Guitar_1,0.36662426590919495,0
64,100,0.8227272727272728,453,0,13,_DL_Japanese_Folk_Pop_Acoustic_Folk_Guitar_1,6,13,_DL_Japanese_Folk_Pop_Acoustic_Folk_Guitar_1,0.45329830050468445,0
59,100,0.6909090909090909,152,1,14,_DL_Japanese_Folk_Pop_Acoustic_Folk_Guitar_1,6,11,_DL_Japanese_Folk_Pop_Acoustic_Folk_Guitar_1,0.9990229606628418,1
62,100,0.24545454545454545,491,1,14,_DL_Japanese_Folk_Pop_Acoustic_Folk_Guitar_1,6,4,_DL_Japanese_Folk_Pop_Acoustic_Folk_Guitar_1,0.3666282296180725,0
62,100,0.7136363636363636,723,1,14,_DL_Japanese_Folk_Pop_Acoustic_Folk_Guitar_1,6,11,_DL_Japanese_Folk_Pop_Acoustic_Folk_Guitar_1,0.45329225063323975,0
57,100,0.17727272727272728,0,1,15,_DL_Japanese_Folk_Pop_Acoustic_Folk_Guitar_1,6,3,_DL_Japanese_Folk_Pop_Acoustic_Folk_Guitar_1,0.9986500144004822,1
57,100,0.31363636363636366,97,0,15,_DL_Japanese_Folk_Pop_Acoustic_Folk_Guitar_1,6,5,_DL_Japanese_Folk_Pop_Acoustic_Folk_Guitar_1,0.08780751377344131,0
57,100,0.15454545454545454,245,0,15,_DL_Japanese_Folk_Pop_Acoustic_Folk_Guitar_1,6,2,_DL_Japanese_Folk_Pop_Acoustic_Folk_Guitar_1,0.09182161092758179,0
57,100,0.2,290,0,15,_DL_Japanese_Folk_Pop_Acoustic_Folk_Guitar_1,6,3,_DL_Japanese_Folk_Pop_Acoustic_Folk_Guitar_1,0.10748633742332458,0
57,100,0.37727272727272726,775,1,15,_DL_Japanese_Folk_Pop_Acoustic_Folk_Guitar_1,6,6,_DL_Japanese_Folk_Pop_Acoustic_Folk_Guitar_1,0.12483636289834976,0
57,100,0.15454545454545454,878,0,15,_DL_Japanese_Folk_Pop_Acoustic_Folk_Guitar_1,6,2,_DL_Japanese_Folk_Pop_Acoustic_Folk_Guitar_1,0.1790362298488617,0
64,100,0.2909090909090909,381,1,16,_DL_Japanese_Folk_Pop_Acoustic_Folk_Guitar_1,6,5,_DL_Japanese_Folk_Pop_Acoustic_Folk_Guitar_1,0.9986500144004822,1
59,100,0.17727272727272728,559,0,16,_DL_Japanese_Folk_Pop_Acoustic_Folk_Guitar_1,6,3,_DL_Japanese_Folk_Pop_Acoustic_Folk_Guitar_1,0.0878019705414772,0
56,100,0.2,598,0,16,_DL_Japanese_Folk_Pop_Acoustic_Folk_Guitar_1,6,3,_DL_Japanese_Folk_Pop_Acoustic_Folk_Guitar_1,0.09181267023086548,0
59,100,0.2,677,0,16,_DL_Japanese_Folk_Pop_Acoustic_Folk_Guitar_1,6,3,_DL_Japanese_Folk_Pop_Acoustic_Folk_Guitar_1,0.10747804492712021,0
57,100,0.22272727272727272,790,0,16,_DL_Japanese_Folk_Pop_Acoustic_Folk_Guitar_1,6,4,_DL_Japanese_Folk_Pop_Acoustic_Folk_Guitar_1,0.1248239204287529,0
59,100,0.11363636363636363,873,0,16,_DL_Japanese_Folk_Pop_Acoustic_Folk_Guitar_1,6,2,_DL_Japanese_Folk_Pop_Acoustic_Folk_Guitar_1,0.17903520166873932,0
61,100,0.10909090909090909,116,1,17,_DL_Japanese_Folk_Pop_Acoustic_Folk_Guitar_1,6,2,_DL_Japanese_Folk_Pop_Acoustic_Folk_Guitar_1,0.9988419413566589,1
61,100,0.5590909090909091,169,0,17,_DL_Japanese_Folk_Pop_Acoustic_Folk_Guitar_1,6,9,_DL_Japanese_Folk_Pop_Acoustic_Folk_Guitar_1,0.13724789023399353,0
61,100,0.5136363636363637,298,0,17,_DL_Japanese_Folk_Pop_Acoustic_Folk_Guitar_1,6,8,_DL_Japanese_Folk_Pop_Acoustic_Folk_Guitar_1,0.15978172421455383,0
57,100,0.22272727272727272,494,0,17,_DL_Japanese_Folk_Pop_Acoustic_Folk_Guitar_1,6,4,_DL_Japanese_Folk_Pop_Acoustic_Folk_Guitar_1,0.18645282089710236,0
61,100,0.9818181818181818,700,0,17,_DL_Japanese_Folk_Pop_Acoustic_Folk_Guitar_1,6,15,_DL_Japanese_Folk_Pop_Acoustic_Folk_Guitar_1,0.25816771388053894,0
57,100,0.24545454545454545,41,1,18,_DL_Japanese_Folk_Pop_Acoustic_Folk_Guitar_1,6,4,_DL_Japanese_Folk_Pop_Acoustic_Folk_Guitar_1,0.9986500144004822,1
61,100,0.35909090909090907,105,0,18,_DL_Japanese_Folk_Pop_Acoustic_Folk_Guitar_1,6,6,_DL_Japanese_Folk_Pop_Acoustic_Folk_Guitar_1,0.08780235797166824,0
62,100,0.15454545454545454,508,1,18,_DL_Japanese_Folk_Pop_Acoustic_Folk_Guitar_1,6,2,_DL_Japanese_Folk_Pop_Acoustic_Folk_Guitar_1,0.09181559085845947,0
62,100,0.11363636363636363,635,0,18,_DL_Japanese_Folk_Pop_Acoustic_Folk_Guitar_1,6,2,_DL_Japanese_Folk_Pop_Acoustic_Folk_Guitar_1,0.10747978091239929,0
57,100,0.31363636363636366,728,0,18,_DL_Japanese_Folk_Pop_Acoustic_Folk_Guitar_1,6,5,_DL_Japanese_Folk_Pop_Acoustic_Folk_Guitar_1,0.12483224272727966,0
56,100,0.2681818181818182,836,0,18,_DL_Japanese_Folk_Pop_Acoustic_Folk_Guitar_1,6,4,_DL_Japanese_Folk_Pop_Acoustic_Folk_Guitar_1,0.17903797328472137,0
59,100,0.24545454545454545,83,1,19,_DL_Japanese_Folk_Pop_Acoustic_Folk_Guitar_1,6,4,_DL_Japanese_Folk_Pop_Acoustic_Folk_Guitar_1,0.9990057349205017,1
56,100,0.45,255,0,19,_DL_Japanese_Folk_Pop_Acoustic_Folk_Guitar_1,6,7,_DL_Japanese_Folk_Pop_Acoustic_Folk_Guitar_1,0.2312062382698059,0
57,100,0.37727272727272726,354,0,19,_DL_Japanese_Folk_Pop_Acoustic_Folk_Guitar_1,6,6,_DL_Japanese_Folk_Pop_Acoustic_Folk_Guitar_1,0.265926331281662,0
57,100,0.2909090909090909,643,1,19,_DL_Japanese_Folk_Pop_Acoustic_Folk_Guitar_1,6,5,_DL_Japanese_Folk_Pop_Acoustic_Folk_Guitar_1,0.35419589281082153,0
64,100,0.1318181818181818,133,1,20,_DL_Japanese_Folk_Pop_Acoustic_Folk_Guitar_1,6,2,_DL_Japanese_Folk_Pop_Acoustic_Folk_Guitar_1,0.9990230798721313,1
57,100,0.9363636363636364,539,1,20,_DL_Japanese_Folk_Pop_Acoustic_Folk_Guitar_1,6,15,_DL_Japanese_Folk_Pop_Acoustic_Folk_Guitar_1,0.36662593483924866,0
57,100,0.5590909090909091,750,0,20,_DL_Japanese_Folk_Pop_Acoustic_Folk_Guitar_1,6,9,_DL_Japanese_Folk_Pop_Acoustic_Folk_Guitar_1,0.4532877206802368,0
57,100,0.65,308,1,21,_DL_Japanese_Folk_Pop_Acoustic_Folk_Guitar_1,6,10,_DL_Japanese_Folk_Pop_Acoustic_Folk_Guitar_1,0.9990229606628418,1
56,100,0.4681818181818182,450,0,21,_DL_Japanese_Folk_Pop_Acoustic_Folk_Guitar_1,6,7,_DL_Japanese_Folk_Pop_Acoustic_Folk_Guitar_1,0.36662331223487854,0
59,100,0.33636363636363636,814,1,21,_DL_Japanese_Folk_Pop_Acoustic_Folk_Guitar_1,6,5,_DL_Japanese_Folk_Pop_Acoustic_Folk_Guitar_1,0.45329350233078003,0
59,100,0.17727272727272728,82,1,22,_DL_Japanese_Folk_Pop_Acoustic_Folk_Guitar_1,6,3,_DL_Japanese_Folk_Pop_Acoustic_Folk_Guitar_1,0.9986500144004822,1
61,100,0.7363636363636363,332,1,22,_DL_Japanese_Folk_Pop_Acoustic_Folk_Guitar_1,6,12,_DL_Japanese_Folk_Pop_Acoustic_Folk_Guitar_1,0.08780065178871155,0
59,100,0.2909090909090909,567,1,22,_DL_Japanese_Folk_Pop_Acoustic_Folk_Guitar_1,6,5,_DL_Japanese_Folk_Pop_Acoustic_Folk_Guitar_1,0.0918174758553505,0
57,100,0.2681818181818182,636,0,22,_DL_Japanese_Folk_Pop_Acoustic_Folk_Guitar_1,6,4,_DL_Japanese_Folk_Pop_Acoustic_Folk_Guitar_1,0.1074783205986023,0
64,100,0.2681818181818182,783,0,22,_DL_Japanese_Folk_Pop_Acoustic_Folk_Guitar_1,6,4,_DL_Japanese_Folk_Pop_Acoustic_Folk_Guitar_1,0.12482771277427673,0
64,100,0.22272727272727272,848,0,22,_DL_Japanese_Folk_Pop_Acoustic_Folk_Guitar_1,6,4,_DL_Japanese_Folk_Pop_Acoustic_Folk_Guitar_1,0.17903566360473633,0
57,100,0.31363636363636366,174,1,23,_DL_Japanese_Folk_Pop_Acoustic_Folk_Guitar_1,6,5,_DL_Japanese_Folk_Pop_Acoustic_Folk_Guitar_1,0.9988419413566589,1
57,100,0.17727272727272728,326,0,23,_DL_Japanese_Folk_Pop_Acoustic_Folk_Guitar_1,6,3,_DL_Japanese_Folk_Pop_Acoustic_Folk_Guitar_1,0.1372561752796173,0
57,100,0.2863636363636364,739,1,23,_DL_Japanese_Folk_Pop_Acoustic_Folk_Guitar_1,6,5,_DL_Japanese_Folk_Pop_Acoustic_Folk_Guitar_1,0.15979038178920746,0
69,100,0.13636363636363635,801,0,23,_DL_Japanese_Folk_Pop_Acoustic_Folk_Guitar_1,6,2,_DL_Japanese_Folk_Pop_Acoustic_Folk_Guitar_1,0.18645909428596497,0
57,100,0.35454545454545455,831,0,23,_DL_Japanese_Folk_Pop_Acoustic_Folk_Guitar_1,6,6,_DL_Japanese_Folk_Pop_Acoustic_Folk_Guitar_1,0.2581753730773926,0
59,100,0.1590909090909091,261,1,24,_DL_Japanese_Folk_Pop_Acoustic_Folk_Guitar_1,6,3,_DL_Japanese_Folk_Pop_Acoustic_Folk_Guitar_1,0.9986500144004822,1
52,100,0.11363636363636363,384,0,24,_DL_Japanese_Folk_Pop_Acoustic_Folk_Guitar_1,6,2,_DL_Japanese_Folk_Pop_Acoustic_Folk_Guitar_1,0.08780617266893387,0
57,100,0.15454545454545454,550,0,24,_DL_Japanese_Folk_Pop_Acoustic_Folk_Guitar_1,6,2,_DL_Japanese_Folk_Pop_Acoustic_Folk_Guitar_1,0.09181787818670273,0
57,100,0.18181818181818182,687,0,24,_DL_Japanese_Folk_Pop_Acoustic_Folk_Guitar_1,6,3,_DL_Japanese_Folk_Pop_Acoustic_Folk_Guitar_1,0.10748668015003204,0
57,100,0.15454545454545454,776,0,24,_DL_Japanese_Folk_Pop_Acoustic_Folk_Guitar_1,6,2,_DL_Japanese_Folk_Pop_Acoustic_Folk_Guitar_1,0.12483187019824982,0
57,100,0.22272727272727272,815,0,24,_DL_Japanese_Folk_Pop_Acoustic_Folk_Guitar_1,6,4,_DL_Japanese_Folk_Pop_Acoustic_Folk_Guitar_1,0.17903858423233032,0
57,100,0.4681818181818182,0,1,25,_DL_Japanese_Folk_Pop_Acoustic_Folk_Guitar_1,6,7,_DL_Japanese_Folk_Pop_Acoustic_Folk_Guitar_1,0.9984880685806274,1
57,100,0.31363636363636366,113,0,25,_DL_Japanese_Folk_Pop_Acoustic_Folk_Guitar_1,6,5,_DL_Japanese_Folk_Pop_Acoustic_Folk_Guitar_1,0.06334645301103592,0
57,100,0.2,289,0,25,_DL_Japanese_Folk_Pop_Acoustic_Folk_Guitar_1,6,3,_DL_Japanese_Folk_Pop_Acoustic_Folk_Guitar_1,0.057742565870285034,0
64,100,0.6045454545454545,412,0,25,_DL_Japanese_Folk_Pop_Acoustic_Folk_Guitar_1,6,10,_DL_Japanese_Folk_Pop_Acoustic_Folk_Guitar_1,0.06020257994532585,0
52,100,0.22272727272727272,677,1,25,_DL_Japanese_Folk_Pop_Acoustic_Folk_Guitar_1,6,4,_DL_Japanese_Folk_Pop_Acoustic_Folk_Guitar_1,0.06970526278018951,0
52,100,0.13636363636363635,760,0,25,_DL_Japanese_Folk_Pop_Acoustic_Folk_Guitar_1,6,2,_DL_Japanese_Folk_Pop_Acoustic_Folk_Guitar_1,0.08189847320318222,0
52,100,0.2,820,0,25,_DL_Japanese_Folk_Pop_Acoustic_Folk_Guitar_1,6,3,_DL_Japanese_Folk_Pop_Acoustic_Folk_Guitar_1,0.1240246444940567,0
62,100,0.5772727272727273,13,1,26,_DL_Japanese_Folk_Pop_Acoustic_Folk_Guitar_1,6,9,_DL_Japanese_Folk_Pop_Acoustic_Folk_Guitar_1,0.9983736276626587,1
62,100,0.65,215,0,26,_DL_Japanese_Folk_Pop_Acoustic_Folk_Guitar_1,6,10,_DL_Japanese_Folk_Pop_Acoustic_Folk_Guitar_1,0.05106082931160927,0
64,100,0.31363636363636366,361,0,26,_DL_Japanese_Folk_Pop_Acoustic_Folk_Guitar_1,6,5,_DL_Japanese_Folk_Pop_Acoustic_Folk_Guitar_1,0.041304152458906174,0
57,100,0.33636363636363636,436,0,26,_DL_Japanese_Folk_Pop_Acoustic_Folk_Guitar_1,6,5,_DL_Japanese_Folk_Pop_Acoustic_Folk_Guitar_1,0.037386804819107056,0
64,100,0.13636363636363635,533,0,26,_DL_Japanese_Folk_Pop_Acoustic_Folk_Guitar_1,6,2,_DL_Japanese_Folk_Pop_Acoustic_Folk_Guitar_1,0.03833127021789551,0
68,100,0.17727272727272728,574,0,26,_DL_Japanese_Folk_Pop_Acoustic_Folk_Guitar_1,6,3,_DL_Japanese_Folk_Pop_Acoustic_Folk_Guitar_1,0.04475289583206177,0
68,100,0.1318181818181818,618,0,26,_DL_Japanese_Folk_Pop_Acoustic_Folk_Guitar_1,6,2,_DL_Japanese_Folk_Pop_Acoustic_Folk_Guitar_1,0.055231302976608276,0
52,100,0.18181818181818182,862,1,26,_DL_Japanese_Folk_Pop_Acoustic_Folk_Guitar_1,6,3,_DL_Japanese_Folk_Pop_Acoustic_Folk_Guitar_1,0.09027010947465897,0
59,100,0.6045454545454545,110,1,27,_DL_Japanese_Folk_Pop_Acoustic_Folk_Guitar_1,6,10,_DL_Japanese_Folk_Pop_Acoustic_Folk_Guitar_1,0.9990057349205017,1
56,100,0.2,322,0,27,_DL_Japanese_Folk_Pop_Acoustic_Folk_Guitar_1,6,3,_DL_Japanese_Folk_Pop_Acoustic_Folk_Guitar_1,0.23119989037513733,0
64,100,0.6681818181818182,464,0,27,_DL_Japanese_Folk_Pop_Acoustic_Folk_Guitar_1,6,11,_DL_Japanese_Folk_Pop_Acoustic_Folk_Guitar_1,0.2659223973751068,0
59,100,0.2681818181818182,690,0,27,_DL_Japanese_Folk_Pop_Acoustic_Folk_Guitar_1,6,4,_DL_Japanese_Folk_Pop_Acoustic_Folk_Guitar_1,0.3541928231716156,0
61,100,0.22272727272727272,11,1,28,_DL_Japanese_Folk_Pop_Acoustic_Folk_Guitar_1,6,4,_DL_Japanese_Folk_Pop_Acoustic_Folk_Guitar_1,0.9984880685806274,1
61,100,0.6227272727272727,65,0,28,_DL_Japanese_Folk_Pop_Acoustic_Folk_Guitar_1,6,10,_DL_Japanese_Folk_Pop_Acoustic_Folk_Guitar_1,0.06334735453128815,0
57,100,0.2,213,0,28,_DL_Japanese_Folk_Pop_Acoustic_Folk_Guitar_1,6,3,_DL_Japanese_Folk_Pop_Acoustic_Folk_Guitar_1,0.05774414911866188,0
54,100,0.2,261,0,28,_DL_Japanese_Folk_Pop_Acoustic_Folk_Guitar_1,6,3,_DL_Japanese_Folk_Pop_Acoustic_Folk_Guitar_1,0.06020660325884819,0
57,100,0.6272727272727273,370,0,28,_DL_Japanese_Folk_Pop_Acoustic_Folk_Guitar_1,6,10,_DL_Japanese_Folk_Pop_Acoustic_Folk_Guitar_1,0.0697074607014656,0
57,100,0.22272727272727272,777,1,28,_DL_Japanese_Folk_Pop_Acoustic_Folk_Guitar_1,6,4,_DL_Japanese_Folk_Pop_Acoustic_Folk_Guitar_1,0.08190023899078369,0
57,100,0.10909090909090909,852,0,28,_DL_Japanese_Folk_Pop_Acoustic_Folk_Guitar_1,6,2,_DL_Japanese_Folk_Pop_Acoustic_Folk_Guitar_1,0.12403006851673126,0
64,100,0.2909090909090909,0,1,29,_DL_Japanese_Folk_Pop_Acoustic_Folk_Guitar_1,6,5,_DL_Japanese_Folk_Pop_Acoustic_Folk_Guitar_1,0.9986500144004822,1
57,100,0.2636363636363636,134,0,29,_DL_Japanese_Folk_Pop_Acoustic_Folk_Guitar_1,6,4,_DL_Japanese_Folk_Pop_Acoustic_Folk_Guitar_1,0.08780346065759659,0
68,100,0.24545454545454545,202,0,29,_DL_Japanese_Folk_Pop_Acoustic_Folk_Guitar_1,6,4,_DL_Japanese_Folk_Pop_Acoustic_Folk_Guitar_1,0.09181632846593857,0
64,100,0.18181818181818182,422,0,29,_DL_Japanese_Folk_Pop_Acoustic_Folk_Guitar_1,6,3,_DL_Japanese_Folk_Pop_Acoustic_Folk_Guitar_1,0.10748153924942017,0
69,100,0.24545454545454545,560,0,29,_DL_Japanese_Folk_Pop_Acoustic_Folk_Guitar_1,6,4,_DL_Japanese_Folk_Pop_Acoustic_Folk_Guitar_1,0.12482958287000656,0
59,100,0.13636363636363635,693,0,29,_DL_Japanese_Folk_Pop_Acoustic_Folk_Guitar_1,6,2,_DL_Japanese_Folk_Pop_Acoustic_Folk_Guitar_1,0.17903879284858704,0
57,100,0.10909090909090909,14,1,30,_DL_Japanese_Folk_Pop_Acoustic_Folk_Guitar_1,6,2,_DL_Japanese_Folk_Pop_Acoustic_Folk_Guitar_1,0.9990229606628418,1
61,100,1.2045454545454546,103,0,30,_DL_Japanese_Folk_Pop_Acoustic_Folk_Guitar_1,6,15,_DL_Japanese_Folk_Pop_Acoustic_Folk_Guitar_1,0.366616815328598,0
52,100,0.15454545454545454,849,1,30,_DL_Japanese_Folk_Pop_Acoustic_Folk_Guitar_1,6,2,_DL_Japanese_Folk_Pop_Acoustic_Folk_Guitar_1,0.4532991051673889,0
61,100,0.18181818181818182,312,1,31,_DL_Japanese_Folk_Pop_Acoustic_Folk_Guitar_1,6,3,_DL_Japanese_Folk_Pop_Acoustic_Folk_Guitar_1,0.9990057349205017,1
61,100,0.20454545454545456,361,0,31,_DL_Japanese_Folk_Pop_Acoustic_Folk_Guitar_1,6,3,_DL_Japanese_Folk_Pop_Acoustic_Folk_Guitar_1,0.23120065033435822,0
64,100,0.17727272727272728,515,0,31,_DL_Japanese_Folk_Pop_Acoustic_Folk_Guitar_1,6,3,_DL_Japanese_Folk_Pop_Acoustic_Folk_Guitar_1,0.2659256160259247,0
56,100,0.13636363636363635,701,0,31,_DL_Japanese_Folk_Pop_Acoustic_Folk_Guitar_1,6,2,_DL_Japanese_Folk_Pop_Acoustic_Folk_Guitar_1,0.35419419407844543,0
59,100,0.65,36,1,32,_DL_Japanese_Folk_Pop_Acoustic_Folk_Guitar_1,6,10,_DL_Japanese_Folk_Pop_Acoustic_Folk_Guitar_1,0.9990229606628418,1
59,100,0.2,233,0,32,_DL_Japanese_Folk_Pop_Acoustic_Folk_Guitar_1,6,3,_DL_Japanese_Folk_Pop_Acoustic_Folk_Guitar_1,0.36662477254867554,0
54,100,0.6227272727272727,385,0,32,_DL_Japanese_Folk_Pop_Acoustic_Folk_Guitar_1,6,10,_DL_Japanese_Folk_Pop_Acoustic_Folk_Guitar_1,0.45328742265701294,0
61,100,0.31363636363636366,222,1,33,_DL_Japanese_Folk_Pop_Acoustic_Folk_Guitar_1,6,5,_DL_Japanese_Folk_Pop_Acoustic_Folk_Guitar_1,0.9990057349205017,1
61,100,0.44545454545454544,330,0,33,_DL_Japanese_Folk_Pop_Acoustic_Folk_Guitar_1,6,7,_DL_Japanese_Folk_Pop_Acoustic_Folk_Guitar_1,0.23120832443237305,0
62,100,0.15454545454545454,738,1,33,_DL_Japanese_Folk_Pop_Acoustic_Folk_Guitar_1,6,2,_DL_Japanese_Folk_Pop_Acoustic_Folk_Guitar_1,0.2659249007701874,0
62,100,0.33636363636363636,777,0,33,_DL_Japanese_Folk_Pop_Acoustic_Folk_Guitar_1,6,5,_DL_Japanese_Folk_Pop_Acoustic_Folk_Guitar_1,0.35420647263526917,0
62,100,0.18181818181818182,255,1,34,_DL_Japanese_Folk_Pop_Acoustic_Folk_Guitar_1,6,3,_DL_Japanese_Folk_Pop_Acoustic_Folk_Guitar_1,0.9990057349205017,1
73,100,0.2,350,0,34,_DL_Japanese_Folk_Pop_Acoustic_Folk_Guitar_1,6,3,_DL_Japanese_Folk_Pop_Acoustic_Folk_Guitar_1,0.2312108427286148,0
62,100,1.0227272727272727,462,0,34,_DL_Japanese_Folk_Pop_Acoustic_Folk_Guitar_1,6,15,_DL_Japanese_Folk_Pop_Acoustic_Folk_Guitar_1,0.26592952013015747,0
62,100,0.4681818181818182,756,1,34,_DL_Japanese_Folk_Pop_Acoustic_Folk_Guitar_1,6,7,_DL_Japanese_Folk_Pop_Acoustic_Folk_Guitar_1,0.35421499609947205,0
52,100,0.7818181818181819,363,1,35,_DL_Japanese_Folk_Pop_Acoustic_Folk_Guitar_1,6,13,_DL_Japanese_Folk_Pop_Acoustic_Folk_Guitar_1,0.9792565107345581,0
52,100,0.31363636363636366,165,1,36,_DL_Japanese_Folk_Pop_Acoustic_Folk_Guitar_1,6,5,_DL_Japanese_Folk_Pop_Acoustic_Folk_Guitar_1,0.9990057349205017,1
57,100,0.25,632,1,36,_DL_Japanese_Folk_Pop_Acoustic_Folk_Guitar_1,6,4,_DL_Japanese_Folk_Pop_Acoustic_Folk_Guitar_1,0.2312094271183014,0
69,100,0.1318181818181818,687,0,36,_DL_Japanese_Folk_Pop_Acoustic_Folk_Guitar_1,6,2,_DL_Japanese_Folk_Pop_Acoustic_Folk_Guitar_1,0.2659297585487366,0
57,100,0.13636363636363635,804,0,36,_DL_Japanese_Folk_Pop_Acoustic_Folk_Guitar_1,6,2,_DL_Japanese_Folk_Pop_Acoustic_Folk_Guitar_1,0.3542015552520752,0
52,100,0.5363636363636364,2,1,37,_DL_Japanese_Folk_Pop_Acoustic_Folk_Guitar_1,6,9,_DL_Japanese_Folk_Pop_Acoustic_Folk_Guitar_1,0.9984880685806274,1
52,100,0.22272727272727272,258,1,37,_DL_Japanese_Folk_Pop_Acoustic_Folk_Guitar_1,6,4,_DL_Japanese_Folk_Pop_Acoustic_Folk_Guitar_1,0.06334549188613892,0
59,100,0.20454545454545456,474,0,37,_DL_Japanese_Folk_Pop_Acoustic_Folk_Guitar_1,6,3,_DL_Japanese_Folk_Pop_Acoustic_Folk_Guitar_1,0.05774233117699623,0
57,100,0.22727272727272727,522,0,37,_DL_Japanese_Folk_Pop_Acoustic_Folk_Guitar_1,6,4,_DL_Japanese_Folk_Pop_Acoustic_Folk_Guitar_1,0.060203682631254196,0
57,100,0.2,655,0,37,_DL_Japanese_Folk_Pop_Acoustic_Folk_Guitar_1,6,3,_DL_Japanese_Folk_Pop_Acoustic_Folk_Guitar_1,0.06970447301864624,0
64,100,0.4,735,0,37,_DL_Japanese_Folk_Pop_Acoustic_Folk_Guitar_1,6,6,_DL_Japanese_Folk_Pop_Acoustic_Folk_Guitar_1,0.08189792931079865,0
57,100,1.0045454545454546,877,0,37,_DL_Japanese_Folk_Pop_Acoustic_Folk_Guitar_1,6,15,_DL_Japanese_Folk_Pop_Acoustic_Folk_Guitar_1,0.12401886284351349,0
57,100,0.3090909090909091,345,1,38,_DL_Japanese_Folk_Pop_Acoustic_Folk_Guitar_1,6,5,_DL_Japanese_Folk_Pop_Acoustic_Folk_Guitar_1,0.9990057349205017,1
64,100,0.5136363636363637,433,0,38,_DL_Japanese_Folk_Pop_Acoustic_Folk_Guitar_1,6,8,_DL_Japanese_Folk_Pop_Acoustic_Folk_Guitar_1,0.23121729493141174,0
57,100,0.35454545454545455,562,0,38,_DL_Japanese_Folk_Pop_Acoustic_Folk_Guitar_1,6,6,_DL_Japanese_Folk_Pop_Acoustic_Folk_Guitar_1,0.26593515276908875,0
57,100,0.18181818181818182,742,0,38,_DL_Japanese_Folk_Pop_Acoustic_Folk_Guitar_1,6,3,_DL_Japanese_Folk_Pop_Acoustic_Folk_Guitar_1,0.35420769453048706,0
57,100,0.2909090909090909,330,1,39,_DL_Japanese_Folk_Pop_Acoustic_Folk_Guitar_1,6,5,_DL_Japanese_Folk_Pop_Acoustic_Folk_Guitar_1,0.9990230798721313,1
57,100,0.18181818181818182,412,0,39,_DL_Japanese_Folk_Pop_Acoustic_Folk_Guitar_1,6,3,_DL_Japanese_Folk_Pop_Acoustic_Folk_Guitar_1,0.3666228652000427,0
59,100,0.15454545454545454,851,1,39,_DL_Japanese_Folk_Pop_Acoustic_Folk_Guitar_1,6,2,_DL_Japanese_Folk_Pop_Acoustic_Folk_Guitar_1,0.45329928398132324,0
57,100,1.1636363636363636,146,1,40,_DL_Japanese_Folk_Pop_Acoustic_Folk_Guitar_1,6,15,_DL_Japanese_Folk_Pop_Acoustic_Folk_Guitar_1,0.9986500144004822,1
57,100,0.37727272727272726,407,1,40,_DL_Japanese_Folk_Pop_Acoustic_Folk_Guitar_1,6,6,_DL_Japanese_Folk_Pop_Acoustic_Folk_Guitar_1,0.08780394494533539,0
57,100,0.38181818181818183,643,1,40,_DL_Japanese_Folk_Pop_Acoustic_Folk_Guitar_1,6,6,_DL_Japanese_Folk_Pop_Acoustic_Folk_Guitar_1,0.09181402623653412,0
57,100,0.24545454545454545,736,0,40,_DL_Japanese_Folk_Pop_Acoustic_Folk_Guitar_1,6,4,_DL_Japanese_Folk_Pop_Acoustic_Folk_Guitar_1,0.1074821949005127,0
57,100,0.2,819,0,40,_DL_Japanese_Folk_Pop_Acoustic_Folk_Guitar_1,6,3,_DL_Japanese_Folk_Pop_Acoustic_Folk_Guitar_1,0.12482337653636932,0
52,100,0.31363636363636366,864,0,40,_DL_Japanese_Folk_Pop_Acoustic_Folk_Guitar_1,6,5,_DL_Japanese_Folk_Pop_Acoustic_Folk_Guitar_1,0.17903633415699005,0
57,100,0.1318181818181818,53,1,41,_DL_Japanese_Folk_Pop_Acoustic_Folk_Guitar_1,6,2,_DL_Japanese_Folk_Pop_Acoustic_Folk_Guitar_1,0.9984880685806274,1
64,100,0.24545454545454545,131,0,41,_DL_Japanese_Folk_Pop_Acoustic_Folk_Guitar_1,6,4,_DL_Japanese_Folk_Pop_Acoustic_Folk_Guitar_1,0.06334738433361053,0
57,100,0.37727272727272726,185,0,41,_DL_Japanese_Folk_Pop_Acoustic_Folk_Guitar_1,6,6,_DL_Japanese_Folk_Pop_Acoustic_Folk_Guitar_1,0.05774276703596115,0
64,100,0.1318181818181818,343,0,41,_DL_Japanese_Folk_Pop_Acoustic_Folk_Guitar_1,6,2,_DL_Japanese_Folk_Pop_Acoustic_Folk_Guitar_1,0.06020578742027283,0
57,100,0.1318181818181818,386,0,41,_DL_Japanese_Folk_Pop_Acoustic_Folk_Guitar_1,6,2,_DL_Japanese_Folk_Pop_Acoustic_Folk_Guitar_1,0.069706991314888,0
57,100,0.22272727272727272,543,0,41,_DL_Japanese_Folk_Pop_Acoustic_Folk_Guitar_1,6,4,_DL_Japanese_Folk_Pop_Acoustic_Folk_Guitar_1,0.08189744502305984,0
57,100,0.35909090909090907,824,1,41,_DL_Japanese_Folk_Pop_Acoustic_Folk_Guitar_1,6,6,_DL_Japanese_Folk_Pop_Acoustic_Folk_Guitar_1,0.124028779566288,0
57,100,0.1590909090909091,47,1,42,_DL_Japanese_Folk_Pop_Acoustic_Folk_Guitar_1,6,3,_DL_Japanese_Folk_Pop_Acoustic_Folk_Guitar_1,0.9990229606628418,1
59,100,0.42272727272727273,445,1,42,_DL_Japanese_Folk_Pop_Acoustic_Folk_Guitar_1,6,7,_DL_Japanese_Folk_Pop_Acoustic_Folk_Guitar_1,0.3666228652000427,0
59,100,0.2909090909090909,591,0,42,_DL_Japanese_Folk_Pop_Acoustic_Folk_Guitar_1,6,5,_DL_Japanese_Folk_Pop_Acoustic_Folk_Guitar_1,0.45328930020332336,0
61,100,0.2681818181818182,130,1,43,_DL_Japanese_Folk_Pop_Acoustic_Folk_Guitar_1,6,4,_DL_Japanese_Folk_Pop_Acoustic_Folk_Guitar_1,0.9986500144004822,1
59,100,0.5590909090909091,203,0,43,_DL_Japanese_Folk_Pop_Acoustic_Folk_Guitar_1,6,9,_DL_Japanese_Folk_Pop_Acoustic_Folk_Guitar_1,0.08780539780855179,0
64,100,0.20454545454545456,585,1,43,_DL_Japanese_Folk_Pop_Acoustic_Folk_Guitar_1,6,3,_DL_Japanese_Folk_Pop_Acoustic_Folk_Guitar_1,0.09181773662567139,0
57,100,0.31363636363636366,699,0,43,_DL_Japanese_Folk_Pop_Acoustic_Folk_Guitar_1,6,5,_DL_Japanese_Folk_Pop_Acoustic_Folk_Guitar_1,0.10748597234487534,0
61,100,0.1590909090909091,817,0,43,_DL_Japanese_Folk_Pop_Acoustic_Folk_Guitar_1,6,3,_DL_Japanese_Folk_Pop_Acoustic_Folk_Guitar_1,0.12483451515436172,0
57,100,0.2681818181818182,856,0,43,_DL_Japanese_Folk_Pop_Acoustic_Folk_Guitar_1,6,4,_DL_Japanese_Folk_Pop_Acoustic_Folk_Guitar_1,0.1790459156036377,0
57,100,0.4,393,1,44,_DL_Japanese_Folk_Pop_Acoustic_Folk_Guitar_1,6,6,_DL_Japanese_Folk_Pop_Acoustic_Folk_Guitar_1,0.9983164072036743,1
57,100,0.2,511,0,44,_DL_Japanese_Folk_Pop_Acoustic_Folk_Guitar_1,6,3,_DL_Japanese_Folk_Pop_Acoustic_Folk_Guitar_1,0.5445687770843506,0
69,100,0.1318181818181818,501,1,45,_DL_Japanese_Folk_Pop_Acoustic_Folk_Guitar_1,6,2,_DL_Japanese_Folk_Pop_Acoustic_Folk_Guitar_1,0.9990229606628418,1
57,100,0.4909090909090909,550,0,45,_DL_Japanese_Folk_Pop_Acoustic_Folk_Guitar_1,6,8,_DL_Japanese_Folk_Pop_Acoustic_Folk_Guitar_1,0.3666251599788666,0
57,100,0.1590909090909091,696,0,45,_DL_Japanese_Folk_Pop_Acoustic_Folk_Guitar_1,6,3,_DL_Japanese_Folk_Pop_Acoustic_Folk_Guitar_1,0.4533030688762665,0
57,100,0.24545454545454545,554,1,46,_DL_Japanese_Folk_Pop_Acoustic_Folk_Guitar_1,6,4,_DL_Japanese_Folk_Pop_Acoustic_Folk_Guitar_1,0.9983164072036743,1
61,100,0.7181818181818181,744,0,46,_DL_Japanese_Folk_Pop_Acoustic_Folk_Guitar_1,6,11,_DL_Japanese_Folk_Pop_Acoustic_Folk_Guitar_1,0.5445545315742493,0
66,100,0.24545454545454545,170,1,47,_DL_Japanese_Folk_Pop_Acoustic_Folk_Guitar_1,6,4,_DL_Japanese_Folk_Pop_Acoustic_Folk_Guitar_1,0.9983165264129639,1
61,100,1.6272727272727272,789,1,47,_DL_Japanese_Folk_Pop_Acoustic_Folk_Guitar_1,6,15,_DL_Japanese_Folk_Pop_Acoustic_Folk_Guitar_1,0.544544517993927,0
57,100,0.33636363636363636,330,1,48,_DL_Japanese_Folk_Pop_Acoustic_Folk_Guitar_1,6,5,_DL_Japanese_Folk_Pop_Acoustic_Folk_Guitar_1,0.9990057349205017,1
59,100,0.1590909090909091,645,1,48,_DL_Japanese_Folk_Pop_Acoustic_Folk_Guitar_1,6,3,_DL_Japanese_Folk_Pop_Acoustic_Folk_Guitar_1,0.2312111109495163,0
68,100,0.37727272727272726,685,0,48,_DL_Japanese_Folk_Pop_Acoustic_Folk_Guitar_1,6,6,_DL_Japanese_Folk_Pop_Acoustic_Folk_Guitar_1,0.2659154534339905,0
64,100,0.2,837,0,48,_DL_Japanese_Folk_Pop_Acoustic_Folk_Guitar_1,6,3,_DL_Japanese_Folk_Pop_Acoustic_Folk_Guitar_1,0.35419896245002747,0
52,100,0.17727272727272728,0,1,49,_DL_Japanese_Folk_Pop_Acoustic_Folk_Guitar_1,6,3,_DL_Japanese_Folk_Pop_Acoustic_Folk_Guitar_1,0.9986500144004822,1
64,100,0.11363636363636363,143,0,49,_DL_Japanese_Folk_Pop_Acoustic_Folk_Guitar_1,6,2,_DL_Japanese_Folk_Pop_Acoustic_Folk_Guitar_1,0.08780660480260849,0
64,100,0.11363636363636363,212,0,49,_DL_Japanese_Folk_Pop_Acoustic_Folk_Guitar_1,6,2,_DL_Japanese_Folk_Pop_Acoustic_Folk_Guitar_1,0.09181801974773407,0
64,100,0.15454545454545454,241,0,49,_DL_Japanese_Folk_Pop_Acoustic_Folk_Guitar_1,6,2,_DL_Japanese_Folk_Pop_Acoustic_Folk_Guitar_1,0.10748668015003204,0
64,100,0.42272727272727273,281,0,49,_DL_Japanese_Folk_Pop_Acoustic_Folk_Guitar_1,6,7,_DL_Japanese_Folk_Pop_Acoustic_Folk_Guitar_1,0.12483546882867813,0
57,100,0.20454545454545456,579,1,49,_DL_Japanese_Folk_Pop_Acoustic_Folk_Guitar_1,6,3,_DL_Japanese_Folk_Pop_Acoustic_Folk_Guitar_1,0.17904432117938995,0
64,100,0.22272727272727272,349,1,50,_DL_Japanese_Folk_Pop_Acoustic_Folk_Guitar_1,6,4,_DL_Japanese_Folk_Pop_Acoustic_Folk_Guitar_1,0.9990229606628418,1
61,100,1.6045454545454545,407,0,50,_DL_Japanese_Folk_Pop_Acoustic_Folk_Guitar_1,6,15,_DL_Japanese_Folk_Pop_Acoustic_Folk_Guitar_1,0.36660829186439514,0
59,100,0.24545454545454545,781,1,50,_DL_Japanese_Folk_Pop_Acoustic_Folk_Guitar_1,6,4,_DL_Japanese_Folk_Pop_Acoustic_Folk_Guitar_1,0.45329347252845764,0
61,100,1.5863636363636364,317,1,51,_DL_Japanese_Folk_Pop_Acoustic_Folk_Guitar_1,6,15,_DL_Japanese_Folk_Pop_Acoustic_Folk_Guitar_1,0.9983164072036743,1
62,100,0.9363636363636364,672,1,51,_DL_Japanese_Folk_Pop_Acoustic_Folk_Guitar_1,6,15,_DL_Japanese_Folk_Pop_Acoustic_Folk_Guitar_1,0.5445637702941895,0
62,100,0.42727272727272725,139,1,52,_DL_Japanese_Folk_Pop_Acoustic_Folk_Guitar_1,6,7,_DL_Japanese_Folk_Pop_Acoustic_Folk_Guitar_1,0.9990229606628418,1
62,100,0.4727272727272727,253,0,52,_DL_Japanese_Folk_Pop_Acoustic_Folk_Guitar_1,6,8,_DL_Japanese_Folk_Pop_Acoustic_Folk_Guitar_1,0.366626501083374,0
59,100,0.33636363636363636,818,1,52,_DL_Japanese_Folk_Pop_Acoustic_Folk_Guitar_1,6,5,_DL_Japanese_Folk_Pop_Acoustic_Folk_Guitar_1,0.4532985985279083,0
57,100,0.1590909090909091,41,1,53,_DL_Japanese_Folk_Pop_Acoustic_Folk_Guitar_1,6,3,_DL_Japanese_Folk_Pop_Acoustic_Folk_Guitar_1,0.9988419413566589,1
61,100,0.4681818181818182,433,1,53,_DL_Japanese_Folk_Pop_Acoustic_Folk_Guitar_1,6,7,_DL_Japanese_Folk_Pop_Acoustic_Folk_Guitar_1,0.13724616169929504,0
54,100,0.5363636363636364,620,0,53,_DL_Japanese_Folk_Pop_Acoustic_Folk_Guitar_1,6,9,_DL_Japanese_Folk_Pop_Acoustic_Folk_Guitar_1,0.15977822244167328,0
57,100,0.31363636363636366,753,0,53,_DL_Japanese_Folk_Pop_Acoustic_Folk_Guitar_1,6,5,_DL_Japanese_Folk_Pop_Acoustic_Folk_Guitar_1,0.18644852936267853,0
54,100,0.42272727272727273,852,0,53,_DL_Japanese_Folk_Pop_Acoustic_Folk_Guitar_1,6,7,_DL_Japanese_Folk_Pop_Acoustic_Folk_Guitar_1,0.25816842913627625,0
57,100,0.31363636363636366,94,1,54,_DL_Japanese_Folk_Pop_Acoustic_Folk_Guitar_1,6,5,_DL_Japanese_Folk_Pop_Acoustic_Folk_Guitar_1,0.9988419413566589,1
57,100,0.44545454545454544,167,0,54,_DL_Japanese_Folk_Pop_Acoustic_Folk_Guitar_1,6,7,_DL_Japanese_Folk_Pop_Acoustic_Folk_Guitar_1,0.13724865019321442,0
62,100,0.9136363636363637,301,0,54,_DL_Japanese_Folk_Pop_Acoustic_Folk_Guitar_1,6,15,_DL_Japanese_Folk_Pop_Acoustic_Folk_Guitar_1,0.1597837209701538,0
69,100,0.24545454545454545,507,0,54,_DL_Japanese_Folk_Pop_Acoustic_Folk_Guitar_1,6,4,_DL_Japanese_Folk_Pop_Acoustic_Folk_Guitar_1,0.18645252287387848,0
62,100,0.6727272727272727,702,0,54,_DL_Japanese_Folk_Pop_Acoustic_Folk_Guitar_1,6,11,_DL_Japanese_Folk_Pop_Acoustic_Folk_Guitar_1,0.25816959142684937,0
59,100,0.10909090909090909,510,1,55,_DL_Japanese_Folk_Pop_Acoustic_Folk_Guitar_1,6,2,_DL_Japanese_Folk_Pop_Acoustic_Folk_Guitar_1,0.9990229606628418,1
52,100,0.2636363636363636,628,0,55,_DL_Japanese_Folk_Pop_Acoustic_Folk_Guitar_1,6,4,_DL_Japanese_Folk_Pop_Acoustic_Folk_Guitar_1,0.3666210174560547,0
52,100,0.5363636363636364,781,0,55,_DL_Japanese_Folk_Pop_Acoustic_Folk_Guitar_1,6,9,_DL_Japanese_Folk_Pop_Acoustic_Folk_Guitar_1,0.4532943367958069,0
52,100,0.22272727272727272,116,1,56,_DL_Japanese_Folk_Pop_Acoustic_Folk_Guitar_1,6,4,_DL_Japanese_Folk_Pop_Acoustic_Folk_Guitar_1,0.9983736276626587,1
52,100,0.24545454545454545,171,0,56,_DL_Japanese_Folk_Pop_Acoustic_Folk_Guitar_1,6,4,_DL_Japanese_Folk_Pop_Acoustic_Folk_Guitar_1,0.05106161907315254,0
57,100,0.42272727272727273,234,0,56,_DL_Japanese_Folk_Pop_Acoustic_Folk_Guitar_1,6,7,_DL_Japanese_Folk_Pop_Acoustic_Folk_Guitar_1,0.041304681450128555,0
57,100,0.22272727272727272,440,0,56,_DL_Japanese_Folk_Pop_Acoustic_Folk_Guitar_1,6,4,_DL_Japanese_Folk_Pop_Acoustic_Folk_Guitar_1,0.03738979622721672,0
56,100,0.44545454545454544,489,0,56,_DL_Japanese_Folk_Pop_Acoustic_Folk_Guitar_1,6,7,_DL_Japanese_Folk_Pop_Acoustic_Folk_Guitar_1,0.038333382457494736,0
56,100,0.24545454545454545,652,0,56,_DL_Japanese_Folk_Pop_Acoustic_Folk_Guitar_1,6,4,_DL_Japanese_Folk_Pop_Acoustic_Folk_Guitar_1,0.044757165014743805,0
57,100,0.4681818181818182,730,0,56,_DL_Japanese_Folk_Pop_Acoustic_Folk_Guitar_1,6,7,_DL_Japanese_Folk_Pop_Acoustic_Folk_Guitar_1,0.0552348755300045,0
57,100,0.6454545454545455,878,0,56,_DL_Japanese_Folk_Pop_Acoustic_Folk_Guitar_1,6,10,_DL_Japanese_Folk_Pop_Acoustic_Folk_Guitar_1,0.09026932716369629,0
69,100,0.40454545454545454,144,1,57,_DL_Japanese_Folk_Pop_Acoustic_Folk_Guitar_1,6,6,_DL_Japanese_Folk_Pop_Acoustic_Folk_Guitar_1,0.9990229606628418,1
57,100,0.1318181818181818,233,0,57,_DL_Japanese_Folk_Pop_Acoustic_Folk_Guitar_1,6,2,_DL_Japanese_Folk_Pop_Acoustic_Folk_Guitar_1,0.36662378907203674,0
61,100,0.15454545454545454,391,0,57,_DL_Japanese_Folk_Pop_Acoustic_Folk_Guitar_1,6,2,_DL_Japanese_Folk_Pop_Acoustic_Folk_Guitar_1,0.4532904624938965,0
61,100,0.2,448,1,58,_DL_Japanese_Folk_Pop_Acoustic_Folk_Guitar_1,6,3,_DL_Japanese_Folk_Pop_Acoustic_Folk_Guitar_1,0.9990229606628418,1
61,100,0.2909090909090909,611,0,58,_DL_Japanese_Folk_Pop_Acoustic_Folk_Guitar_1,6,5,_DL_Japanese_Folk_Pop_Acoustic_Folk_Guitar_1,0.3666217029094696,0
64,100,0.6909090909090909,734,0,58,_DL_Japanese_Folk_Pop_Acoustic_Folk_Guitar_1,6,11,_DL_Japanese_Folk_Pop_Acoustic_Folk_Guitar_1,0.45329731702804565,0
61,100,0.6,80,1,59,_DL_Japanese_Folk_Pop_Acoustic_Folk_Guitar_1,6,10,_DL_Japanese_Folk_Pop_Acoustic_Folk_Guitar_1,0.9988419413566589,1
61,100,0.33181818181818185,290,0,59,_DL_Japanese_Folk_Pop_Acoustic_Folk_Guitar_1,6,5,_DL_Japanese_Folk_Pop_Acoustic_Folk_Guitar_1,0.13725005090236664,0
61,100,0.13636363636363635,378,0,59,_DL_Japanese_Folk_Pop_Acoustic_Folk_Guitar_1,6,2,_DL_Japanese_Folk_Pop_Acoustic_Folk_Guitar_1,0.15977558493614197,0
62,100,0.5590909090909091,433,0,59,_DL_Japanese_Folk_Pop_Acoustic_Folk_Guitar_1,6,9,_DL_Japanese_Folk_Pop_Acoustic_Folk_Guitar_1,0.18644872307777405,0
62,100,0.8909090909090909,786,1,59,_DL_Japanese_Folk_Pop_Acoustic_Folk_Guitar_1,6,14,_DL_Japanese_Folk_Pop_Acoustic_Folk_Guitar_1,0.258166640996933,0
52,100,0.42272727272727273,240,1,60,_DL_Japanese_Folk_Pop_Acoustic_Folk_Guitar_1,6,7,_DL_Japanese_Folk_Pop_Acoustic_Folk_Guitar_1,0.9983164072036743,1
52,100,0.24545454545454545,618,1,60,_DL_Japanese_Folk_Pop_Acoustic_Folk_Guitar_1,6,4,_DL_Japanese_Folk_Pop_Acoustic_Folk_Guitar_1,0.5445597767829895,0
59,100,0.24545454545454545,151,1,61,_DL_Japanese_Folk_Pop_Acoustic_Folk_Guitar_1,6,4,_DL_Japanese_Folk_Pop_Acoustic_Folk_Guitar_1,0.9990229606628418,1
61,100,0.2,294,0,61,_DL_Japanese_Folk_Pop_Acoustic_Folk_Guitar_1,6,3,_DL_Japanese_Folk_Pop_Acoustic_Folk_Guitar_1,0.3666146993637085,0
61,100,0.4,357,0,61,_DL_Japanese_Folk_Pop_Acoustic_Folk_Guitar_1,6,6,_DL_Japanese_Folk_Pop_Acoustic_Folk_Guitar_1,0.45329126715660095,0
54,100,0.13636363636363635,86,1,62,_DL_Japanese_Folk_Pop_Acoustic_Folk_Guitar_1,6,2,_DL_Japanese_Folk_Pop_Acoustic_Folk_Guitar_1,0.9990057349205017,1
62,100,0.17727272727272728,346,1,62,_DL_Japanese_Folk_Pop_Acoustic_Folk_Guitar_1,6,3,_DL_Japanese_Folk_Pop_Acoustic_Folk_Guitar_1,0.23119525611400604,0
59,100,0.5545454545454546,411,0,62,_DL_Japanese_Folk_Pop_Acoustic_Folk_Guitar_1,6,9,_DL_Japanese_Folk_Pop_Acoustic_Folk_Guitar_1,0.26591649651527405,0
54,100,0.17727272727272728,577,0,62,_DL_Japanese_Folk_Pop_Acoustic_Folk_Guitar_1,6,3,_DL_Japanese_Folk_Pop_Acoustic_Folk_Guitar_1,0.3542000651359558,0
62,100,0.2681818181818182,130,1,63,_DL_Japanese_Folk_Pop_Acoustic_Folk_Guitar_1,6,4,_DL_Japanese_Folk_Pop_Acoustic_Folk_Guitar_1,0.9986500144004822,1
61,100,0.9363636363636364,316,0,63,_DL_Japanese_Folk_Pop_Acoustic_Folk_Guitar_1,6,15,_DL_Japanese_Folk_Pop_Acoustic_Folk_Guitar_1,0.0878041461110115,0
61,100,0.24545454545454545,527,0,63,_DL_Japanese_Folk_Pop_Acoustic_Folk_Guitar_1,6,4,_DL_Japanese_Folk_Pop_Acoustic_Folk_Guitar_1,0.09181559085845947,0
69,100,0.2681818181818182,596,0,63,_DL_Japanese_Folk_Pop_Acoustic_Folk_Guitar_1,6,4,_DL_Japanese_Folk_Pop_Acoustic_Folk_Guitar_1,0.10748276114463806,0
61,100,0.2681818181818182,665,0,63,_DL_Japanese_Folk_Pop_Acoustic_Folk_Guitar_1,6,4,_DL_Japanese_Folk_Pop_Acoustic_Folk_Guitar_1,0.12482872605323792,0
61,100,0.17727272727272728,826,0,63,_DL_Japanese_Folk_Pop_Acoustic_Folk_Guitar_1,6,3,_DL_Japanese_Folk_Pop_Acoustic_Folk_Guitar_1,0.1790378838777542,0
69,100,0.2636363636363636,80,1,64,_DL_Japanese_Folk_Pop_Acoustic_Folk_Guitar_1,6,4,_DL_Japanese_Folk_Pop_Acoustic_Folk_Guitar_1,0.9990057349205017,1
57,100,0.1318181818181818,349,1,64,_DL_Japanese_Folk_Pop_Acoustic_Folk_Guitar_1,6,2,_DL_Japanese_Folk_Pop_Acoustic_Folk_Guitar_1,0.23121574521064758,0
66,100,0.17727272727272728,379,0,64,_DL_Japanese_Folk_Pop_Acoustic_Folk_Guitar_1,6,3,_DL_Japanese_Folk_Pop_Acoustic_Folk_Guitar_1,0.26592761278152466,0
62,100,0.6909090909090909,565,0,64,_DL_Japanese_Folk_Pop_Acoustic_Folk_Guitar_1,6,11,_DL_Japanese_Folk_Pop_Acoustic_Folk_Guitar_1,0.3542008101940155,0
62,100,0.4909090909090909,43,1,65,_DL_Japanese_Folk_Pop_Acoustic_Folk_Guitar_1,6,8,_DL_Japanese_Folk_Pop_Acoustic_Folk_Guitar_1,0.9988419413566589,1
59,100,0.2863636363636364,467,1,65,_DL_Japanese_Folk_Pop_Acoustic_Folk_Guitar_1,6,5,_DL_Japanese_Folk_Pop_Acoustic_Folk_Guitar_1,0.13724537193775177,0
62,100,0.4681818181818182,550,0,65,_DL_Japanese_Folk_Pop_Acoustic_Folk_Guitar_1,6,7,_DL_Japanese_Folk_Pop_Acoustic_Folk_Guitar_1,0.15977664291858673,0
59,100,0.15454545454545454,658,0,65,_DL_Japanese_Folk_Pop_Acoustic_Folk_Guitar_1,6,2,_DL_Japanese_Folk_Pop_Acoustic_Folk_Guitar_1,0.18645800650119781,0
66,100,0.15454545454545454,770,0,65,_DL_Japanese_Folk_Pop_Acoustic_Folk_Guitar_1,6,2,_DL_Japanese_Folk_Pop_Acoustic_Folk_Guitar_1,0.25817471742630005,0
59,100,0.1318181818181818,466,1,66,_DL_Japanese_Folk_Pop_Acoustic_Folk_Guitar_1,6,2,_DL_Japanese_Folk_Pop_Acoustic_Folk_Guitar_1,0.9983165264129639,1
59,100,0.2,505,0,66,_DL_Japanese_Folk_Pop_Acoustic_Folk_Guitar_1,6,3,_DL_Japanese_Folk_Pop_Acoustic_Folk_Guitar_1,0.5445524454116821,0
62,100,0.11363636363636363,193,1,67,_DL_Japanese_Folk_Pop_Acoustic_Folk_Guitar_1,6,2,_DL_Japanese_Folk_Pop_Acoustic_Folk_Guitar_1,0.9990057349205017,1
57,100,0.10909090909090909,617,1,67,_DL_Japanese_Folk_Pop_Acoustic_Folk_Guitar_1,6,2,_DL_Japanese_Folk_Pop_Acoustic_Folk_Guitar_1,0.2312074601650238,0
57,100,0.33636363636363636,646,0,67,_DL_Japanese_Folk_Pop_Acoustic_Folk_Guitar_1,6,5,_DL_Japanese_Folk_Pop_Acoustic_Folk_Guitar_1,0.26592323184013367,0
59,100,0.2909090909090909,748,0,67,_DL_Japanese_Folk_Pop_Acoustic_Folk_Guitar_1,6,5,_DL_Japanese_Folk_Pop_Acoustic_Folk_Guitar_1,0.35420581698417664,0
64,100,0.17727272727272728,51,1,68,_DL_Japanese_Folk_Pop_Acoustic_Folk_Guitar_1,6,3,_DL_Japanese_Folk_Pop_Acoustic_Folk_Guitar_1,0.9988419413566589,1
61,100,0.65,95,0,68,_DL_Japanese_Folk_Pop_Acoustic_Folk_Guitar_1,6,10,_DL_Japanese_Folk_Pop_Acoustic_Folk_Guitar_1,0.13724344968795776,0
59,100,0.1318181818181818,243,0,68,_DL_Japanese_Folk_Pop_Acoustic_Folk_Guitar_1,6,2,_DL_Japanese_Folk_Pop_Acoustic_Folk_Guitar_1,0.15977920591831207,0
57,100,0.2909090909090909,439,0,68,_DL_Japanese_Folk_Pop_Acoustic_Folk_Guitar_1,6,5,_DL_Japanese_Folk_Pop_Acoustic_Folk_Guitar_1,0.18645037710666656,0
59,100,0.5818181818181818,801,1,68,_DL_Japanese_Folk_Pop_Acoustic_Folk_Guitar_1,6,9,_DL_Japanese_Folk_Pop_Acoustic_Folk_Guitar_1,0.25816619396209717,0
61,100,0.13636363636363635,211,1,69,_DL_Japanese_Folk_Pop_Acoustic_Folk_Guitar_1,6,2,_DL_Japanese_Folk_Pop_Acoustic_Folk_Guitar_1,0.9990229606628418,1
57,100,0.9590909090909091,256,0,69,_DL_Japanese_Folk_Pop_Acoustic_Folk_Guitar_1,6,15,_DL_Japanese_Folk_Pop_Acoustic_Folk_Guitar_1,0.3666306138038635,0
61,100,0.8954545454545455,471,0,69,_DL_Japanese_Folk_Pop_Acoustic_Folk_Guitar_1,6,14,_DL_Japanese_Folk_Pop_Acoustic_Folk_Guitar_1,0.45329537987709045,0
57,100,0.2,64,1,70,_DL_Japanese_Folk_Pop_Acoustic_Folk_Guitar_1,6,3,_DL_Japanese_Folk_Pop_Acoustic_Folk_Guitar_1,0.9986500144004822,1
59,100,0.1318181818181818,177,0,70,_DL_Japanese_Folk_Pop_Acoustic_Folk_Guitar_1,6,2,_DL_Japanese_Folk_Pop_Acoustic_Folk_Guitar_1,0.0878034234046936,0
52,100,0.2681818181818182,470,1,70,_DL_Japanese_Folk_Pop_Acoustic_Folk_Guitar_1,6,4,_DL_Japanese_Folk_Pop_Acoustic_Folk_Guitar_1,0.09181708842515945,0
56,100,0.22272727272727272,550,0,70,_DL_Japanese_Folk_Pop_Acoustic_Folk_Guitar_1,6,4,_DL_Japanese_Folk_Pop_Acoustic_Folk_Guitar_1,0.10748153924942017,0
56,100,0.17727272727272728,687,0,70,_DL_Japanese_Folk_Pop_Acoustic_Folk_Guitar_1,6,3,_DL_Japanese_Folk_Pop_Acoustic_Folk_Guitar_1,0.12483154982328415,0
68,100,0.20454545454545456,799,0,70,_DL_Japanese_Folk_Pop_Acoustic_Folk_Guitar_1,6,3,_DL_Japanese_Folk_Pop_Acoustic_Folk_Guitar_1,0.17903293669223785,0
57,100,0.2,63,1,71,_DL_Japanese_Folk_Pop_Acoustic_Folk_Guitar_1,6,3,_DL_Japanese_Folk_Pop_Acoustic_Folk_Guitar_1,0.9983736276626587,1
61,100,0.13636363636363635,155,0,71,_DL_Japanese_Folk_Pop_Acoustic_Folk_Guitar_1,6,2,_DL_Japanese_Folk_Pop_Acoustic_Folk_Guitar_1,0.05106094479560852,0
57,100,0.33636363636363636,194,0,71,_DL_Japanese_Folk_Pop_Acoustic_Folk_Guitar_1,6,5,_DL_Japanese_Folk_Pop_Acoustic_Folk_Guitar_1,0.04130301997065544,0
61,100,0.33181818181818185,284,0,71,_DL_Japanese_Folk_Pop_Acoustic_Folk_Guitar_1,6,5,_DL_Japanese_Folk_Pop_Acoustic_Folk_Guitar_1,0.03738678619265556,0
57,100,0.35909090909090907,361,0,71,_DL_Japanese_Folk_Pop_Acoustic_Folk_Guitar_1,6,6,_DL_Japanese_Folk_Pop_Acoustic_Folk_Guitar_1,0.038329388946294785,0
61,100,0.2681818181818182,469,0,71,_DL_Japanese_Folk_Pop_Acoustic_Folk_Guitar_1,6,4,_DL_Japanese_Folk_Pop_Acoustic_Folk_Guitar_1,0.04475240781903267,0
59,100,0.11363636363636363,577,0,71,_DL_Japanese_Folk_Pop_Acoustic_Folk_Guitar_1,6,2,_DL_Japanese_Folk_Pop_Acoustic_Folk_Guitar_1,0.05523158609867096,0
61,100,0.17727272727272728,849,1,71,_DL_Japanese_Folk_Pop_Acoustic_Folk_Guitar_1,6,3,_DL_Japanese_Folk_Pop_Acoustic_Folk_Guitar_1,0.09026458859443665,0
61,100,0.7818181818181819,145,1,72,_DL_Japanese_Folk_Pop_Acoustic_Folk_Guitar_1,6,13,_DL_Japanese_Folk_Pop_Acoustic_Folk_Guitar_1,0.9983164072036743,1
59,100,0.1318181818181818,617,1,72,_DL_Japanese_Folk_Pop_Acoustic_Folk_Guitar_1,6,2,_DL_Japanese_Folk_Pop_Acoustic_Folk_Guitar_1,0.5445605516433716,0
56,100,0.22272727272727272,168,1,73,_DL_Japanese_Folk_Pop_Acoustic_Folk_Guitar_1,6,4,_DL_Japanese_Folk_Pop_Acoustic_Folk_Guitar_1,0.9984880685806274,1
64,100,0.1590909090909091,305,0,73,_DL_Japanese_Folk_Pop_Acoustic_Folk_Guitar_1,6,3,_DL_Japanese_Folk_Pop_Acoustic_Folk_Guitar_1,0.063345767557621,0
59,100,0.40454545454545454,365,0,73,_DL_Japanese_Folk_Pop_Acoustic_Folk_Guitar_1,6,6,_DL_Japanese_Folk_Pop_Acoustic_Folk_Guitar_1,0.057741470634937286,0
52,100,0.2,482,0,73,_DL_Japanese_Folk_Pop_Acoustic_Folk_Guitar_1,6,3,_DL_Japanese_Folk_Pop_Acoustic_Folk_Guitar_1,0.06020279973745346,0
57,100,0.42272727272727273,577,0,73,_DL_Japanese_Folk_Pop_Acoustic_Folk_Guitar_1,6,7,_DL_Japanese_Folk_Pop_Acoustic_Folk_Guitar_1,0.06970356404781342,0
61,100,0.8272727272727273,688,0,73,_DL_Japanese_Folk_Pop_Acoustic_Folk_Guitar_1,6,13,_DL_Japanese_Folk_Pop_Acoustic_Folk_Guitar_1,0.08189599215984344,0
57,100,0.24545454545454545,870,0,73,_DL_Japanese_Folk_Pop_Acoustic_Folk_Guitar_1,6,4,_DL_Japanese_Folk_Pop_Acoustic_Folk_Guitar_1,0.1240285113453865,0
61,100,0.2681818181818182,59,1,74,_DL_Japanese_Folk_Pop_Acoustic_Folk_Guitar_1,6,4,_DL_Japanese_Folk_Pop_Acoustic_Folk_Guitar_1,0.9984879493713379,1
57,100,0.13636363636363635,157,0,74,_DL_Japanese_Folk_Pop_Acoustic_Folk_Guitar_1,6,2,_DL_Japanese_Folk_Pop_Acoustic_Folk_Guitar_1,0.06334634125232697,0
57,100,0.1318181818181818,403,1,74,_DL_Japanese_Folk_Pop_Acoustic_Folk_Guitar_1,6,2,_DL_Japanese_Folk_Pop_Acoustic_Folk_Guitar_1,0.05774320662021637,0
61,100,0.6272727272727273,471,0,74,_DL_Japanese_Folk_Pop_Acoustic_Folk_Guitar_1,6,10,_DL_Japanese_Folk_Pop_Acoustic_Folk_Guitar_1,0.060203228145837784,0
61,100,0.1318181818181818,659,0,74,_DL_Japanese_Folk_Pop_Acoustic_Folk_Guitar_1,6,2,_DL_Japanese_Folk_Pop_Acoustic_Folk_Guitar_1,0.06970606744289398,0
61,100,0.11363636363636363,702,0,74,_DL_Japanese_Folk_Pop_Acoustic_Folk_Guitar_1,6,2,_DL_Japanese_Folk_Pop_Acoustic_Folk_Guitar_1,0.08189832419157028,0
61,100,0.31363636363636366,742,0,74,_DL_Japanese_Folk_Pop_Acoustic_Folk_Guitar_1,6,5,_DL_Japanese_Folk_Pop_Acoustic_Folk_Guitar_1,0.12402511388063431,0
69,100,0.18181818181818182,206,1,75,_DL_Japanese_Folk_Pop_Acoustic_Folk_Guitar_1,6,3,_DL_Japanese_Folk_Pop_Acoustic_Folk_Guitar_1,0.9990057349205017,1
62,100,0.1318181818181818,333,0,75,_DL_Japanese_Folk_Pop_Acoustic_Folk_Guitar_1,6,2,_DL_Japanese_Folk_Pop_Acoustic_Folk_Guitar_1,0.2312004715204239,0
59,100,0.65,652,1,75,_DL_Japanese_Folk_Pop_Acoustic_Folk_Guitar_1,6,10,_DL_Japanese_Folk_Pop_Acoustic_Folk_Guitar_1,0.26592084765434265,0
59,100,0.2909090909090909,799,0,75,_DL_Japanese_Folk_Pop_Acoustic_Folk_Guitar_1,6,5,_DL_Japanese_Folk_Pop_Acoustic_Folk_Guitar_1,0.35419338941574097,0
59,100,0.2681818181818182,484,1,76,_DL_Japanese_Folk_Pop_Acoustic_Folk_Guitar_1,6,4,_DL_Japanese_Folk_Pop_Acoustic_Folk_Guitar_1,0.9990057349205017,1
61,100,0.2681818181818182,559,0,76,_DL_Japanese_Folk_Pop_Acoustic_Folk_Guitar_1,6,4,_DL_Japanese_Folk_Pop_Acoustic_Folk_Guitar_1,0.23120294511318207,0
61,100,0.15454545454545454,661,0,76,_DL_Japanese_Folk_Pop_Acoustic_Folk_Guitar_1,6,2,_DL_Japanese_Folk_Pop_Acoustic_Folk_Guitar_1,0.26592719554901123,0
57,100,0.4909090909090909,741,0,76,_DL_Japanese_Folk_Pop_Acoustic_Folk_Guitar_1,6,8,_DL_Japanese_Folk_Pop_Acoustic_Folk_Guitar_1,0.3541959226131439,0
64,100,0.13636363636363635,425,1,77,_DL_Japanese_Folk_Pop_Acoustic_Folk_Guitar_1,6,2,_DL_Japanese_Folk_Pop_Acoustic_Folk_Guitar_1,0.9983165264129639,1
57,100,0.5136363636363637,671,1,77,_DL_Japanese_Folk_Pop_Acoustic_Folk_Guitar_1,6,8,_DL_Japanese_Folk_Pop_Acoustic_Folk_Guitar_1,0.5445570349693298,0
57,100,0.24545454545454545,76,1,78,_DL_Japanese_Folk_Pop_Acoustic_Folk_Guitar_1,6,4,_DL_Japanese_Folk_Pop_Acoustic_Folk_Guitar_1,0.9990057349205017,1
64,100,0.10909090909090909,345,1,78,_DL_Japanese_Folk_Pop_Acoustic_Folk_Guitar_1,6,2,_DL_Japanese_Folk_Pop_Acoustic_Folk_Guitar_1,0.23121163249015808,0
64,100,0.35454545454545455,577,1,78,_DL_Japanese_Folk_Pop_Acoustic_Folk_Guitar_1,6,6,_DL_Japanese_Folk_Pop_Acoustic_Folk_Guitar_1,0.2659319341182709,0
57,100,0.8045454545454546,670,0,78,_DL_Japanese_Folk_Pop_Acoustic_Folk_Guitar_1,6,13,_DL_Japanese_Folk_Pop_Acoustic_Folk_Guitar_1,0.35420161485671997,0
61,100,0.2,69,1,79,_DL_Japanese_Folk_Pop_Acoustic_Folk_Guitar_1,6,3,_DL_Japanese_Folk_Pop_Acoustic_Folk_Guitar_1,0.9984880685806274,1
61,100,0.2,134,0,79,_DL_Japanese_Folk_Pop_Acoustic_Folk_Guitar_1,6,3,_DL_Japanese_Folk_Pop_Acoustic_Folk_Guitar_1,0.0633450374007225,0
61,100,0.2909090909090909,196,0,79,_DL_Japanese_Folk_Pop_Acoustic_Folk_Guitar_1,6,5,_DL_Japanese_Folk_Pop_Acoustic_Folk_Guitar_1,0.05774310603737831,0
57,100,0.2681818181818182,394,0,79,_DL_Japanese_Folk_Pop_Acoustic_Folk_Guitar_1,6,4,_DL_Japanese_Folk_Pop_Acoustic_Folk_Guitar_1,0.060203876346349716,0
57,100,0.44545454545454544,507,0,79,_DL_Japanese_Folk_Pop_Acoustic_Folk_Guitar_1,6,7,_DL_Japanese_Folk_Pop_Acoustic_Folk_Guitar_1,0.06970608234405518,0
61,100,0.9136363636363637,619,0,79,_DL_Japanese_Folk_Pop_Acoustic_Folk_Guitar_1,6,15,_DL_Japanese_Folk_Pop_Acoustic_Folk_Guitar_1,0.08189527690410614,0
57,100,0.15454545454545454,830,0,79,_DL_Japanese_Folk_Pop_Acoustic_Folk_Guitar_1,6,2,_DL_Japanese_Folk_Pop_Acoustic_Folk_Guitar_1,0.12402711808681488,0
62,100,0.1318181818181818,14,1,80,_DL_Japanese_Folk_Pop_Acoustic_Folk_Guitar_1,6,2,_DL_Japanese_Folk_Pop_Acoustic_Folk_Guitar_1,0.9990057349205017,1
57,100,0.37727272727272726,343,1,80,_DL_Japanese_Folk_Pop_Acoustic_Folk_Guitar_1,6,6,_DL_Japanese_Folk_Pop_Acoustic_Folk_Guitar_1,0.23120616376399994,0
62,100,0.5818181818181818,441,0,80,_DL_Japanese_Folk_Pop_Acoustic_Folk_Guitar_1,6,9,_DL_Japanese_Folk_Pop_Acoustic_Folk_Guitar_1,0.2659289836883545,0
59,100,0.2681818181818182,829,1,80,_DL_Japanese_Folk_Pop_Acoustic_Folk_Guitar_1,6,4,_DL_Japanese_Folk_Pop_Acoustic_Folk_Guitar_1,0.3542071282863617,0
64,100,0.2681818181818182,161,1,81,_DL_Japanese_Folk_Pop_Acoustic_Folk_Guitar_1,6,4,_DL_Japanese_Folk_Pop_Acoustic_Folk_Guitar_1,0.9983165264129639,1
64,100,0.17727272727272728,618,1,81,_DL_Japanese_Folk_Pop_Acoustic_Folk_Guitar_1,6,3,_DL_Japanese_Folk_Pop_Acoustic_Folk_Guitar_1,0.5445583462715149,0
61,100,0.5363636363636364,179,1,82,_DL_Japanese_Folk_Pop_Acoustic_Folk_Guitar_1,6,9,_DL_Japanese_Folk_Pop_Acoustic_Folk_Guitar_1,0.9988419413566589,1
61,100,0.10909090909090909,342,0,82,_DL_Japanese_Folk_Pop_Acoustic_Folk_Guitar_1,6,2,_DL_Japanese_Folk_Pop_Acoustic_Folk_Guitar_1,0.13725236058235168,0
61,100,0.85,371,0,82,_DL_Japanese_Folk_Pop_Acoustic_Folk_Guitar_1,6,14,_DL_Japanese_Folk_Pop_Acoustic_Folk_Guitar_1,0.1597842276096344,0
66,100,0.8909090909090909,602,1,82,_DL_Japanese_Folk_Pop_Acoustic_Folk_Guitar_1,6,14,_DL_Japanese_Folk_Pop_Acoustic_Folk_Guitar_1,0.18646208941936493,0
57,100,0.7181818181818181,802,0,82,_DL_Japanese_Folk_Pop_Acoustic_Folk_Guitar_1,6,11,_DL_Japanese_Folk_Pop_Acoustic_Folk_Guitar_1,0.25816792249679565,0
59,100,0.31363636363636366,272,1,83,_DL_Japanese_Folk_Pop_Acoustic_Folk_Guitar_1,6,5,_DL_Japanese_Folk_Pop_Acoustic_Folk_Guitar_1,0.9984880685806274,1
59,100,0.11363636363636363,487,0,83,_DL_Japanese_Folk_Pop_Acoustic_Folk_Guitar_1,6,2,_DL_Japanese_Folk_Pop_Acoustic_Folk_Guitar_1,0.0633459985256195,0
64,100,0.11363636363636363,547,0,83,_DL_Japanese_Folk_Pop_Acoustic_Folk_Guitar_1,6,2,_DL_Japanese_Folk_Pop_Acoustic_Folk_Guitar_1,0.05774297937750816,0
59,100,0.10909090909090909,626,0,83,_DL_Japanese_Folk_Pop_Acoustic_Folk_Guitar_1,6,2,_DL_Japanese_Folk_Pop_Acoustic_Folk_Guitar_1,0.060205455869436264,0
61,100,0.11363636363636363,655,0,83,_DL_Japanese_Folk_Pop_Acoustic_Folk_Guitar_1,6,2,_DL_Japanese_Folk_Pop_Acoustic_Folk_Guitar_1,0.0697050616145134,0
64,100,0.5363636363636364,714,0,83,_DL_Japanese_Folk_Pop_Acoustic_Folk_Guitar_1,6,9,_DL_Japanese_Folk_Pop_Acoustic_Folk_Guitar_1,0.08189866691827774,0
53,100,0.1318181818181818,837,0,83,_DL_Japanese_Folk_Pop_Acoustic_Folk_Guitar_1,6,2,_DL_Japanese_Folk_Pop_Acoustic_Folk_Guitar_1,0.1240246444940567,0
61,100,0.18181818181818182,35,1,84,_DL_Japanese_Folk_Pop_Acoustic_Folk_Guitar_1,6,3,_DL_Japanese_Folk_Pop_Acoustic_Folk_Guitar_1,0.9984880685806274,1
61,100,0.38181818181818183,88,0,84,_DL_Japanese_Folk_Pop_Acoustic_Folk_Guitar_1,6,6,_DL_Japanese_Folk_Pop_Acoustic_Folk_Guitar_1,0.06334608793258667,0
57,100,0.2909090909090909,178,0,84,_DL_Japanese_Folk_Pop_Acoustic_Folk_Guitar_1,6,5,_DL_Japanese_Folk_Pop_Acoustic_Folk_Guitar_1,0.05774160474538803,0
61,100,0.2681818181818182,310,0,84,_DL_Japanese_Folk_Pop_Acoustic_Folk_Guitar_1,6,4,_DL_Japanese_Folk_Pop_Acoustic_Folk_Guitar_1,0.060204681009054184,0
61,100,0.65,379,0,84,_DL_Japanese_Folk_Pop_Acoustic_Folk_Guitar_1,6,10,_DL_Japanese_Folk_Pop_Acoustic_Folk_Guitar_1,0.06970541924238205,0
54,100,0.5818181818181818,546,0,84,_DL_Japanese_Folk_Pop_Acoustic_Folk_Guitar_1,6,9,_DL_Japanese_Folk_Pop_Acoustic_Folk_Guitar_1,0.08189969509840012,0
61,100,0.8272727272727273,702,0,84,_DL_Japanese_Folk_Pop_Acoustic_Folk_Guitar_1,6,13,_DL_Japanese_Folk_Pop_Acoustic_Folk_Guitar_1,0.1240222379565239,0
62,100,0.31363636363636366,82,1,85,_DL_Japanese_Folk_Pop_Acoustic_Folk_Guitar_1,6,5,_DL_Japanese_Folk_Pop_Acoustic_Folk_Guitar_1,0.9984880685806274,1
59,100,0.24545454545454545,210,0,85,_DL_Japanese_Folk_Pop_Acoustic_Folk_Guitar_1,6,4,_DL_Japanese_Folk_Pop_Acoustic_Folk_Guitar_1,0.06334656476974487,0
62,100,0.6681818181818182,275,0,85,_DL_Japanese_Folk_Pop_Acoustic_Folk_Guitar_1,6,11,_DL_Japanese_Folk_Pop_Acoustic_Folk_Guitar_1,0.057742640376091,0
66,100,0.15454545454545454,604,1,85,_DL_Japanese_Folk_Pop_Acoustic_Folk_Guitar_1,6,2,_DL_Japanese_Folk_Pop_Acoustic_Folk_Guitar_1,0.06020589545369148,0
66,100,0.22272727272727272,643,0,85,_DL_Japanese_Folk_Pop_Acoustic_Folk_Guitar_1,6,4,_DL_Japanese_Folk_Pop_Acoustic_Folk_Guitar_1,0.06970490515232086,0
59,100,0.10909090909090909,781,0,85,_DL_Japanese_Folk_Pop_Acoustic_Folk_Guitar_1,6,2,_DL_Japanese_Folk_Pop_Acoustic_Folk_Guitar_1,0.08189694583415985,0
52,100,0.42272727272727273,850,0,85,_DL_Japanese_Folk_Pop_Acoustic_Folk_Guitar_1,6,7,_DL_Japanese_Folk_Pop_Acoustic_Folk_Guitar_1,0.12402555346488953,0
59,100,0.2636363636363636,191,1,86,_DL_Japanese_Folk_Pop_Acoustic_Folk_Guitar_1,6,4,_DL_Japanese_Folk_Pop_Acoustic_Folk_Guitar_1,0.9988419413566589,1
52,100,0.6045454545454545,278,0,86,_DL_Japanese_Folk_Pop_Acoustic_Folk_Guitar_1,6,10,_DL_Japanese_Folk_Pop_Acoustic_Folk_Guitar_1,0.13724468648433685,0
61,100,0.740909090909091,523,1,86,_DL_Japanese_Folk_Pop_Acoustic_Folk_Guitar_1,6,12,_DL_Japanese_Folk_Pop_Acoustic_Folk_Guitar_1,0.15977221727371216,0
61,100,0.1318181818181818,789,1,86,_DL_Japanese_Folk_Pop_Acoustic_Folk_Guitar_1,6,2,_DL_Japanese_Folk_Pop_Acoustic_Folk_Guitar_1,0.1864500492811203,0
61,100,0.7818181818181819,843,0,86,_DL_Japanese_Folk_Pop_Acoustic_Folk_Guitar_1,6,13,_DL_Japanese_Folk_Pop_Acoustic_Folk_Guitar_1,0.2581638693809509,0
61,100,0.17727272727272728,190,1,87,_DL_Japanese_Folk_Pop_Acoustic_Folk_Guitar_1,6,3,_DL_Japanese_Folk_Pop_Acoustic_Folk_Guitar_1,0.9988419413566589,1
61,100,0.10909090909090909,233,0,87,_DL_Japanese_Folk_Pop_Acoustic_Folk_Guitar_1,6,2,_DL_Japanese_Folk_Pop_Acoustic_Folk_Guitar_1,0.13725246489048004,0
61,100,0.6909090909090909,292,0,87,_DL_Japanese_Folk_Pop_Acoustic_Folk_Guitar_1,6,11,_DL_Japanese_Folk_Pop_Acoustic_Folk_Guitar_1,0.1597823202610016,0
57,100,0.2681818181818182,489,0,87,_DL_Japanese_Folk_Pop_Acoustic_Folk_Guitar_1,6,4,_DL_Japanese_Folk_Pop_Acoustic_Folk_Guitar_1,0.18645967543125153,0
69,100,0.15454545454545454,548,0,87,_DL_Japanese_Folk_Pop_Acoustic_Folk_Guitar_1,6,2,_DL_Japanese_Folk_Pop_Acoustic_Folk_Guitar_1,0.25817716121673584,0
57,100,0.17727272727272728,492,1,0,DL_Guitar,6,3,DL_Guitar,0.9792558550834656,0
69,100,0.33636363636363636,39,1,1,DL_Guitar,6,5,DL_Guitar,0.9986500144004822,1
52,100,0.7,166,0,1,DL_Guitar,6,11,DL_Guitar,0.08780377358198166,0
52,100,0.1,351,0,1,DL_Guitar,6,2,DL_Guitar,0.09181481599807739,0
59,100,0.1409090909090909,449,0,1,DL_Guitar,6,2,DL_Guitar,0.1074802353978157,0
52,100,0.11818181818181818,638,0,1,DL_Guitar,6,2,DL_Guitar,0.1248302087187767,0
54,100,0.4409090909090909,796,0,1,DL_Guitar,6,7,DL_Guitar,0.17903737723827362,0
59,100,0.2,12,1,2,DL_Guitar,6,3,DL_Guitar,0.9990230798721313,1
54,100,0.3409090909090909,421,1,2,DL_Guitar,6,5,DL_Guitar,0.36662688851356506,0
57,100,0.33636363636363636,501,0,2,DL_Guitar,6,5,DL_Guitar,0.4532873332500458,0
57,100,0.1409090909090909,70,1,3,DL_Guitar,6,2,DL_Guitar,0.9990057349205017,1
69,100,0.2772727272727273,295,0,3,DL_Guitar,6,4,DL_Guitar,0.2311982363462448,0
59,100,0.3,550,1,3,DL_Guitar,6,5,DL_Guitar,0.26591798663139343,0
64,100,0.2818181818181818,629,0,3,DL_Guitar,6,5,DL_Guitar,0.3541994094848633,0
61,100,0.2590909090909091,255,1,4,DL_Guitar,6,4,DL_Guitar,0.9983164072036743,1
64,100,0.3,871,1,4,DL_Guitar,6,5,DL_Guitar,0.5445638298988342,0
52,100,0.3,56,1,5,DL_Guitar,6,5,DL_Guitar,0.9990057349205017,1
69,100,0.11818181818181818,514,1,5,DL_Guitar,6,2,DL_Guitar,0.23119935393333435,0
52,100,0.5772727272727273,678,0,5,DL_Guitar,6,9,DL_Guitar,0.2659159004688263,0
52,100,0.2636363636363636,862,0,5,DL_Guitar,6,4,DL_Guitar,0.3541988432407379,0
64,100,0.1,79,1,6,DL_Guitar,6,2,DL_Guitar,0.9990057349205017,1
52,100,0.8,105,0,6,DL_Guitar,6,13,DL_Guitar,0.23120075464248657,0
54,100,0.43636363636363634,414,1,6,DL_Guitar,6,7,DL_Guitar,0.26592525839805603,0
59,100,0.2409090909090909,514,0,6,DL_Guitar,6,4,DL_Guitar,0.3541974723339081,0
54,100,0.1409090909090909,87,1,7,DL_Guitar,6,2,DL_Guitar,0.9990230798721313,1
57,100,0.32272727272727275,122,0,7,DL_Guitar,6,5,DL_Guitar,0.36661195755004883,0
54,100,0.1409090909090909,317,0,7,DL_Guitar,6,2,DL_Guitar,0.4532892107963562,0
59,100,0.1,34,1,8,DL_Guitar,6,2,DL_Guitar,0.9984880685806274,1
52,100,0.1,127,0,8,DL_Guitar,6,2,DL_Guitar,0.0633450374007225,0
59,100,0.37727272727272726,347,0,8,DL_Guitar,6,6,DL_Guitar,0.057742640376091,0
54,100,0.3409090909090909,448,0,8,DL_Guitar,6,5,DL_Guitar,0.06020301952958107,0
52,100,0.38181818181818183,673,0,8,DL_Guitar,6,6,DL_Guitar,0.06970254331827164,0
57,100,0.3,766,0,8,DL_Guitar,6,5,DL_Guitar,0.08189433068037033,0
52,100,0.1,840,0,8,DL_Guitar,6,2,DL_Guitar,0.12402596324682236,0
57,100,0.21818181818181817,0,1,9,DL_Guitar,6,3,DL_Guitar,0.9984880685806274,1
61,100,0.23636363636363636,106,0,9,DL_Guitar,6,4,DL_Guitar,0.06334524601697922,0
57,100,0.2590909090909091,163,0,9,DL_Guitar,6,4,DL_Guitar,0.05774178355932236,0
61,100,0.2772727272727273,405,1,9,DL_Guitar,6,4,DL_Guitar,0.06020360067486763,0
57,100,0.11818181818181818,484,0,9,DL_Guitar,6,2,DL_Guitar,0.06970424205064774,0
57,100,0.1409090909090909,515,0,9,DL_Guitar,6,2,DL_Guitar,0.08189857751131058,0
52,100,0.23636363636363636,809,1,9,DL_Guitar,6,4,DL_Guitar,0.12402860075235367,0
52,100,0.2409090909090909,113,1,10,DL_Guitar,6,4,DL_Guitar,0.9984880685806274,1
52,100,0.2409090909090909,299,0,10,DL_Guitar,6,4,DL_Guitar,0.06334541738033295,0
64,100,0.1,400,0,10,DL_Guitar,6,2,DL_Guitar,0.057743754237890244,0
59,100,0.32272727272727275,431,0,10,DL_Guitar,6,5,DL_Guitar,0.06020278483629227,0
52,100,0.1590909090909091,611,0,10,DL_Guitar,6,3,DL_Guitar,0.0697028711438179,0
52,100,0.43636363636363634,656,0,10,DL_Guitar,6,7,DL_Guitar,0.08189657330513,0
52,100,0.4409090909090909,795,0,10,DL_Guitar,6,7,DL_Guitar,0.1240229532122612,0
52,100,0.11818181818181818,264,1,11,DL_Guitar,6,2,DL_Guitar,0.9792565107345581,0
66,100,0.17727272727272728,185,1,12,DL_Guitar,6,3,DL_Guitar,0.9990230798721313,1
52,100,0.1,572,1,12,DL_Guitar,6,2,DL_Guitar,0.36663028597831726,0
68,100,0.2590909090909091,756,0,12,DL_Guitar,6,4,DL_Guitar,0.4532914459705353,0
54,100,0.2590909090909091,189,1,13,DL_Guitar,6,4,DL_Guitar,0.9983165264129639,1
54,100,0.1,691,1,13,DL_Guitar,6,2,DL_Guitar,0.5445574522018433,0
64,100,0.11818181818181818,457,1,14,DL_Guitar,6,2,DL_Guitar,0.9988419413566589,1
71,100,0.18181818181818182,496,0,14,DL_Guitar,6,3,DL_Guitar,0.13724534213542938,0
72,100,0.16363636363636364,553,0,14,DL_Guitar,6,3,DL_Guitar,0.1597786247730255,0
68,100,0.11818181818181818,625,0,14,DL_Guitar,6,2,DL_Guitar,0.18644438683986664,0
64,100,0.2590909090909091,871,1,14,DL_Guitar,6,4,DL_Guitar,0.2581673264503479,0
54,100,0.1,694,1,15,DL_Guitar,6,2,DL_Guitar,0.9983165264129639,1
55,100,0.1,747,0,15,DL_Guitar,6,2,DL_Guitar,0.5445510745048523,0
52,100,0.2,52,1,16,DL_Guitar,6,3,DL_Guitar,0.9990229606628418,1
52,100,0.35909090909090907,100,0,16,DL_Guitar,6,6,DL_Guitar,0.3666231632232666,0
52,100,0.1409090909090909,638,1,16,DL_Guitar,6,2,DL_Guitar,0.45329591631889343,0
52,100,0.2,193,1,17,DL_Guitar,6,3,DL_Guitar,0.9990229606628418,1
52,100,0.2409090909090909,250,0,17,DL_Guitar,6,4,DL_Guitar,0.36662107706069946,0
55,100,0.16363636363636364,443,0,17,DL_Guitar,6,3,DL_Guitar,0.4532933235168457,0
55,100,0.1,492,1,18,DL_Guitar,6,2,DL_Guitar,0.979256272315979,0
57,100,0.2590909090909091,430,1,19,DL_Guitar,6,4,DL_Guitar,0.9990057349205017,1
52,100,0.2636363636363636,488,0,19,DL_Guitar,6,4,DL_Guitar,0.23120519518852234,0
64,100,0.1,677,0,19,DL_Guitar,6,2,DL_Guitar,0.2659207284450531,0
64,100,0.2,704,0,19,DL_Guitar,6,3,DL_Guitar,0.35420486330986023,0
54,100,1.0818181818181818,57,1,20,DL_Guitar,6,15,DL_Guitar,0.9988419413566589,1
54,100,0.17727272727272728,382,1,20,DL_Guitar,6,3,DL_Guitar,0.13725189864635468,0
54,100,0.1409090909090909,426,0,20,DL_Guitar,6,2,DL_Guitar,0.15978197753429413,0
57,100,0.2636363636363636,686,1,20,DL_Guitar,6,4,DL_Guitar,0.18644839525222778,0
57,100,0.18181818181818182,760,0,20,DL_Guitar,6,3,DL_Guitar,0.25816890597343445,0
57,100,0.23636363636363636,106,1,21,DL_Guitar,6,4,DL_Guitar,0.9988419413566589,1
57,100,0.1,179,0,21,DL_Guitar,6,2,DL_Guitar,0.13724848628044128,0
57,100,0.38181818181818183,285,0,21,DL_Guitar,6,6,DL_Guitar,0.15977893769741058,0
61,100,0.21818181818181817,505,0,21,DL_Guitar,6,3,DL_Guitar,0.18645094335079193,0
57,100,0.11818181818181818,590,0,21,DL_Guitar,6,2,DL_Guitar,0.2581683099269867,0
54,100,1.0772727272727274,326,1,22,DL_Guitar,6,15,DL_Guitar,0.9990229606628418,1
54,100,0.2818181818181818,694,1,22,DL_Guitar,6,5,DL_Guitar,0.36662864685058594,0
62,100,0.1409090909090909,791,0,22,DL_Guitar,6,2,DL_Guitar,0.45328518748283386,0
57,100,0.1,206,1,23,DL_Guitar,6,2,DL_Guitar,0.9988419413566589,1
57,100,0.35909090909090907,299,0,23,DL_Guitar,6,6,DL_Guitar,0.1372493952512741,0
57,100,0.1590909090909091,382,0,23,DL_Guitar,6,3,DL_Guitar,0.15977956354618073,0
52,100,0.6,546,0,23,DL_Guitar,6,10,DL_Guitar,0.18644975125789642,0
52,100,0.12272727272727273,717,0,23,DL_Guitar,6,2,DL_Guitar,0.25816744565963745,0
64,100,0.1409090909090909,9,1,24,DL_Guitar,6,2,DL_Guitar,0.9983736276626587,1
54,100,0.4,48,0,24,DL_Guitar,6,6,DL_Guitar,0.051061246544122696,0
54,100,0.2409090909090909,189,0,24,DL_Guitar,6,4,DL_Guitar,0.0413038469851017,0
52,100,0.2590909090909091,308,0,24,DL_Guitar,6,4,DL_Guitar,0.037387385964393616,0
68,100,0.1590909090909091,461,0,24,DL_Guitar,6,3,DL_Guitar,0.03833058476448059,0
54,100,0.1409090909090909,515,0,24,DL_Guitar,6,2,DL_Guitar,0.044754508882761,0
54,100,0.7772727272727272,567,0,24,DL_Guitar,6,12,DL_Guitar,0.055230602622032166,0
54,100,0.21818181818181817,748,0,24,DL_Guitar,6,3,DL_Guitar,0.0902671292424202,0
54,100,0.11818181818181818,52,1,25,DL_Guitar,6,2,DL_Guitar,0.9986500144004822,1
54,100,0.11818181818181818,131,0,25,DL_Guitar,6,2,DL_Guitar,0.08780348300933838,0
62,100,0.2409090909090909,316,0,25,DL_Guitar,6,4,DL_Guitar,0.09181258827447891,0
62,100,0.2818181818181818,374,0,25,DL_Guitar,6,5,DL_Guitar,0.10747959464788437,0
57,100,0.11818181818181818,677,1,25,DL_Guitar,6,2,DL_Guitar,0.12483231723308563,0
61,100,0.1409090909090909,818,0,25,DL_Guitar,6,2,DL_Guitar,0.17904247343540192,0
57,100,0.5363636363636364,61,1,26,DL_Guitar,6,9,DL_Guitar,0.9990057349205017,1
52,100,0.35909090909090907,409,1,26,DL_Guitar,6,6,DL_Guitar,0.23120233416557312,0
52,100,0.1590909090909091,515,0,26,DL_Guitar,6,3,DL_Guitar,0.26592186093330383,0
52,100,0.5227272727272727,686,0,26,DL_Guitar,6,8,DL_Guitar,0.35419803857803345,0
54,100,0.1409090909090909,57,1,27,DL_Guitar,6,2,DL_Guitar,0.9990057349205017,1
62,100,0.1409090909090909,625,1,27,DL_Guitar,6,2,DL_Guitar,0.23120638728141785,0
62,100,0.12272727272727273,739,0,27,DL_Guitar,6,2,DL_Guitar,0.2659299373626709,0
57,100,0.2590909090909091,814,0,27,DL_Guitar,6,4,DL_Guitar,0.35420241951942444,0
52,100,0.8,52,1,28,DL_Guitar,6,13,DL_Guitar,0.9990229606628418,1
52,100,0.42272727272727273,443,1,28,DL_Guitar,6,7,DL_Guitar,0.3666316270828247,0
52,100,0.5409090909090909,686,1,28,DL_Guitar,6,9,DL_Guitar,0.4532943069934845,0
52,100,0.3,13,1,29,DL_Guitar,6,5,DL_Guitar,0.9990229606628418,1
52,100,0.1590909090909091,83,0,29,DL_Guitar,6,3,DL_Guitar,0.3666195273399353,0
64,100,0.2,119,0,29,DL_Guitar,6,3,DL_Guitar,0.4532949924468994,0
57,100,0.4818181818181818,320,1,30,DL_Guitar,6,8,DL_Guitar,0.9984880685806274,1
57,100,0.38181818181818183,440,0,30,DL_Guitar,6,6,DL_Guitar,0.06334623694419861,0
69,100,0.1409090909090909,694,1,30,DL_Guitar,6,2,DL_Guitar,0.05774426832795143,0
69,100,0.11818181818181818,735,0,30,DL_Guitar,6,2,DL_Guitar,0.06020444631576538,0
57,100,0.1590909090909091,770,0,30,DL_Guitar,6,3,DL_Guitar,0.06970705837011337,0
69,100,0.1,804,0,30,DL_Guitar,6,2,DL_Guitar,0.08189886808395386,0
57,100,0.8409090909090909,866,0,30,DL_Guitar,6,13,DL_Guitar,0.12402664870023727,0
57,100,0.5181818181818182,185,1,31,DL_Guitar,6,8,DL_Guitar,0.9984880685806274,1
57,100,0.5409090909090909,308,0,31,DL_Guitar,6,9,DL_Guitar,0.06334519386291504,0
52,100,0.18181818181818182,453,0,31,DL_Guitar,6,3,DL_Guitar,0.05774331092834473,0
52,100,0.13636363636363635,523,0,31,DL_Guitar,6,2,DL_Guitar,0.06020355224609375,0
59,100,0.35909090909090907,571,0,31,DL_Guitar,6,6,DL_Guitar,0.06970615684986115,0
59,100,0.2590909090909091,700,0,31,DL_Guitar,6,4,DL_Guitar,0.08190083503723145,0
52,100,0.1,822,0,31,DL_Guitar,6,2,DL_Guitar,0.12402836978435516,0
59,100,0.5,188,1,32,DL_Guitar,6,8,DL_Guitar,0.9986500144004822,1
54,100,0.1590909090909091,426,1,32,DL_Guitar,6,3,DL_Guitar,0.08780407905578613,0
54,100,0.2636363636363636,488,0,32,DL_Guitar,6,4,DL_Guitar,0.09181438386440277,0
59,100,0.1,593,0,32,DL_Guitar,6,2,DL_Guitar,0.10747790336608887,0
54,100,0.3409090909090909,691,0,32,DL_Guitar,6,5,DL_Guitar,0.12482783198356628,0
59,100,0.4772727272727273,831,0,32,DL_Guitar,6,8,DL_Guitar,0.17903214693069458,0
57,100,0.2409090909090909,118,1,33,DL_Guitar,6,4,DL_Guitar,0.9988419413566589,1
52,100,0.5181818181818182,308,0,33,DL_Guitar,6,8,DL_Guitar,0.13725030422210693,0
52,100,0.1590909090909091,453,0,33,DL_Guitar,6,3,DL_Guitar,0.15978172421455383,0
52,100,0.2,571,0,33,DL_Guitar,6,3,DL_Guitar,0.18645742535591125,0
69,100,0.12272727272727273,818,1,33,DL_Guitar,6,2,DL_Guitar,0.2581804096698761,0
69,100,0.2,69,1,34,DL_Guitar,6,3,DL_Guitar,0.9986500144004822,1
57,100,0.2,188,0,34,DL_Guitar,6,3,DL_Guitar,0.08780728280544281,0
57,100,0.22272727272727272,254,0,34,DL_Guitar,6,4,DL_Guitar,0.09181831777095795,0
52,100,0.2,480,0,34,DL_Guitar,6,3,DL_Guitar,0.10748817771673203,0
69,100,0.3,616,0,34,DL_Guitar,6,5,DL_Guitar,0.12483277916908264,0
57,100,1.0818181818181818,818,0,34,DL_Guitar,6,15,DL_Guitar,0.1790475696325302,0
57,100,0.5590909090909091,298,1,35,DL_Guitar,6,9,DL_Guitar,0.9988419413566589,1
52,100,0.3,488,0,35,DL_Guitar,6,5,DL_Guitar,0.13724899291992188,0
52,100,0.5772727272727273,558,0,35,DL_Guitar,6,9,DL_Guitar,0.15977443754673004,0
59,100,0.3181818181818182,735,0,35,DL_Guitar,6,5,DL_Guitar,0.18644946813583374,0
52,100,0.1409090909090909,826,0,35,DL_Guitar,6,2,DL_Guitar,0.2581709921360016,0
57,100,0.22272727272727272,4,1,36,DL_Guitar,6,4,DL_Guitar,0.9983736276626587,1
53,100,0.4818181818181818,66,0,36,DL_Guitar,6,8,DL_Guitar,0.05106085538864136,0
53,100,0.5409090909090909,179,0,36,DL_Guitar,6,9,DL_Guitar,0.04130256175994873,0
59,100,0.1590909090909091,325,0,36,DL_Guitar,6,3,DL_Guitar,0.03738539293408394,0
53,100,0.37727272727272726,435,0,36,DL_Guitar,6,6,DL_Guitar,0.038328491151332855,0
54,100,0.42272727272727273,554,0,36,DL_Guitar,6,7,DL_Guitar,0.04475032910704613,0
54,100,0.1409090909090909,813,1,36,DL_Guitar,6,2,DL_Guitar,0.05522867292165756,0
54,100,0.5409090909090909,871,0,36,DL_Guitar,6,9,DL_Guitar,0.09026192128658295,0
54,100,0.5409090909090909,179,1,37,DL_Guitar,6,9,DL_Guitar,0.9986500144004822,1
54,100,0.5,311,0,37,DL_Guitar,6,8,DL_Guitar,0.08780185878276825,0
59,100,0.13636363636363635,523,0,37,DL_Guitar,6,2,DL_Guitar,0.09181179851293564,0
59,100,0.1409090909090909,584,0,37,DL_Guitar,6,2,DL_Guitar,0.10748037695884705,0
57,100,0.22272727272727272,628,0,37,DL_Guitar,6,4,DL_Guitar,0.12482646107673645,0
59,100,0.2,708,0,37,DL_Guitar,6,3,DL_Guitar,0.17903879284858704,0
59,100,0.2818181818181818,48,1,38,DL_Guitar,6,5,DL_Guitar,0.9988419413566589,1
59,100,0.2,198,0,38,DL_Guitar,6,3,DL_Guitar,0.13725237548351288,0
57,100,0.1590909090909091,260,0,38,DL_Guitar,6,3,DL_Guitar,0.1597783863544464,0
57,100,0.1590909090909091,571,1,38,DL_Guitar,6,3,DL_Guitar,0.18645450472831726,0
69,100,0.3,606,0,38,DL_Guitar,6,5,DL_Guitar,0.25817811489105225,0
62,100,0.2,461,1,39,DL_Guitar,6,3,DL_Guitar,0.9983165264129639,1
57,100,0.5590909090909091,804,1,39,DL_Guitar,6,9,DL_Guitar,0.544562041759491,0
52,100,0.8772727272727273,75,1,40,DL_Guitar,6,14,DL_Guitar,0.9988419413566589,1
52,100,0.13636363636363635,413,1,40,DL_Guitar,6,2,DL_Guitar,0.1372501403093338,0
52,100,0.17727272727272728,448,0,40,DL_Guitar,6,3,DL_Guitar,0.1597813218832016,0
65,100,0.2772727272727273,603,0,40,DL_Guitar,6,4,DL_Guitar,0.1864500492811203,0
53,100,0.6,681,0,40,DL_Guitar,6,10,DL_Guitar,0.2581713795661926,0
53,100,0.2636363636363636,48,1,41,DL_Guitar,6,4,DL_Guitar,0.9983736276626587,1
59,100,0.18181818181818182,224,0,41,DL_Guitar,6,3,DL_Guitar,0.05106210336089134,0
54,100,0.4772727272727273,316,0,41,DL_Guitar,6,8,DL_Guitar,0.041302889585494995,0
59,100,0.2590909090909091,435,0,41,DL_Guitar,6,4,DL_Guitar,0.03738625347614288,0
54,100,0.3,501,0,41,DL_Guitar,6,5,DL_Guitar,0.038328949362039566,0
54,100,0.2409090909090909,576,0,41,DL_Guitar,6,4,DL_Guitar,0.04475187882781029,0
54,100,0.2772727272727273,678,0,41,DL_Guitar,6,4,DL_Guitar,0.05522731691598892,0
54,100,0.4590909090909091,813,0,41,DL_Guitar,6,7,DL_Guitar,0.09026505053043365,0
59,100,0.2409090909090909,66,1,42,DL_Guitar,6,4,DL_Guitar,0.9984880685806274,1
62,100,0.2,128,0,42,DL_Guitar,6,3,DL_Guitar,0.0633459985256195,0
57,100,0.2,254,0,42,DL_Guitar,6,3,DL_Guitar,0.05774357169866562,0
52,100,0.4818181818181818,321,0,42,DL_Guitar,6,8,DL_Guitar,0.06020476296544075,0
59,100,0.2818181818181818,616,1,42,DL_Guitar,6,5,DL_Guitar,0.06970470398664474,0
52,100,0.16363636363636364,708,0,42,DL_Guitar,6,3,DL_Guitar,0.08189943432807922,0
52,100,0.11818181818181818,831,0,42,DL_Guitar,6,2,DL_Guitar,0.12402486056089401,0
57,100,0.2818181818181818,48,1,43,DL_Guitar,6,5,DL_Guitar,0.9990229606628418,1
69,100,0.3181818181818182,743,1,43,DL_Guitar,6,5,DL_Guitar,0.3666335642337799,0
57,100,0.5181818181818182,813,0,43,DL_Guitar,6,8,DL_Guitar,0.4532991945743561,0
64,100,0.1590909090909091,721,1,44,DL_Guitar,6,3,DL_Guitar,0.9990230798721313,1
64,100,0.35909090909090907,788,0,44,DL_Guitar,6,6,DL_Guitar,0.3666217029094696,0
64,100,0.32272727272727275,871,0,44,DL_Guitar,6,5,DL_Guitar,0.45329606533050537,0
53,100,0.12272727272727273,211,1,45,DL_Guitar,6,2,DL_Guitar,0.9988419413566589,1
65,100,0.18181818181818182,334,0,45,DL_Guitar,6,3,DL_Guitar,0.13724809885025024,0
54,100,0.36363636363636365,686,1,45,DL_Guitar,6,6,DL_Guitar,0.15977804362773895,0
54,100,0.23636363636363636,810,0,45,DL_Guitar,6,4,DL_Guitar,0.18644721806049347,0
66,100,0.1409090909090909,866,0,45,DL_Guitar,6,2,DL_Guitar,0.2581680715084076,0
62,100,0.3181818181818182,668,1,46,DL_Guitar,6,5,DL_Guitar,0.9983165264129639,1
52,100,0.2818181818181818,826,0,46,DL_Guitar,6,5,DL_Guitar,0.5445666313171387,0
52,100,0.12272727272727273,13,1,47,DL_Guitar,6,2,DL_Guitar,0.9990057349205017,1
52,100,0.4409090909090909,43,0,47,DL_Guitar,6,7,DL_Guitar,0.231204554438591,0
52,100,0.5818181818181818,179,0,47,DL_Guitar,6,9,DL_Guitar,0.265926331281662,0
53,100,1.240909090909091,426,1,47,DL_Guitar,6,15,DL_Guitar,0.35419341921806335,0
54,100,0.42272727272727273,48,1,48,DL_Guitar,6,7,DL_Guitar,0.9990229606628418,1
61,100,0.2,163,0,48,DL_Guitar,6,3,DL_Guitar,0.36662301421165466,0
61,100,0.4818181818181818,440,1,48,DL_Guitar,6,8,DL_Guitar,0.4532954692840576,0
62,100,0.4,34,1,49,DL_Guitar,6,6,DL_Guitar,0.9988420605659485,1
52,100,1.3590909090909091,176,0,49,DL_Guitar,6,15,DL_Guitar,0.13725008070468903,0
52,100,0.2,480,1,49,DL_Guitar,6,3,DL_Guitar,0.15978971123695374,0
52,100,0.1590909090909091,638,0,49,DL_Guitar,6,3,DL_Guitar,0.18646365404129028,0
53,100,1.6363636363636365,678,0,49,DL_Guitar,6,15,DL_Guitar,0.25816747546195984,0
54,100,0.23636363636363636,303,1,50,DL_Guitar,6,4,DL_Guitar,0.9988419413566589,1
61,100,0.2409090909090909,440,0,50,DL_Guitar,6,4,DL_Guitar,0.13724790513515472,0
61,100,0.4818181818181818,571,0,50,DL_Guitar,6,8,DL_Guitar,0.1597748100757599,0
61,100,0.3,691,0,50,DL_Guitar,6,5,DL_Guitar,0.18645291030406952,0
57,100,0.13636363636363635,788,0,50,DL_Guitar,6,2,DL_Guitar,0.25816822052001953,0
52,100,0.5,431,1,51,DL_Guitar,6,8,DL_Guitar,0.9990229606628418,1
52,100,0.1,545,0,51,DL_Guitar,6,2,DL_Guitar,0.3666199743747711,0
52,100,0.11818181818181818,691,0,51,DL_Guitar,6,2,DL_Guitar,0.453292578458786,0
54,100,0.1590909090909091,0,1,52,DL_Guitar,6,3,DL_Guitar,0.9986500144004822,1
54,100,0.1,56,0,52,DL_Guitar,6,2,DL_Guitar,0.08780641108751297,0
61,100,0.7,91,0,52,DL_Guitar,6,11,DL_Guitar,0.0918143168091774,0
54,100,0.3,254,0,52,DL_Guitar,6,5,DL_Guitar,0.1074867993593216,0
54,100,0.1,325,0,52,DL_Guitar,6,2,DL_Guitar,0.12483484297990799,0
61,100,2.640909090909091,426,0,52,DL_Guitar,6,15,DL_Guitar,0.17902418971061707,0
57,100,1.440909090909091,158,1,53,DL_Guitar,6,15,DL_Guitar,0.9983164072036743,1
52,100,2.1,681,1,53,DL_Guitar,6,15,DL_Guitar,0.5445576310157776,0
52,100,0.11818181818181818,303,1,54,DL_Guitar,6,2,DL_Guitar,0.9792560338973999,0
57,100,0.18181818181818182,418,1,55,DL_Guitar,6,3,DL_Guitar,0.9988419413566589,1
57,100,0.1409090909090909,518,0,55,DL_Guitar,6,2,DL_Guitar,0.13725179433822632,0
57,100,0.37727272727272726,558,0,55,DL_Guitar,6,6,DL_Guitar,0.1597798615694046,0
57,100,0.21818181818181817,660,0,55,DL_Guitar,6,3,DL_Guitar,0.18645739555358887,0
57,100,0.38181818181818183,726,0,55,DL_Guitar,6,6,DL_Guitar,0.2581700086593628,0
57,100,0.2409090909090909,625,1,56,DL_Guitar,6,4,DL_Guitar,0.9983165264129639,1
57,100,0.4818181818181818,703,0,56,DL_Guitar,6,8,DL_Guitar,0.5445560812950134,0
57,100,0.22272727272727272,4,1,57,DL_Guitar,6,4,DL_Guitar,0.9984880685806274,1
57,100,0.4,91,0,57,DL_Guitar,6,6,DL_Guitar,0.06334546208381653,0
57,100,0.4818181818181818,330,1,57,DL_Guitar,6,8,DL_Guitar,0.05774178355932236,0
57,100,0.2590909090909091,453,0,57,DL_Guitar,6,4,DL_Guitar,0.0602014996111393,0
69,100,0.1409090909090909,531,0,57,DL_Guitar,6,2,DL_Guitar,0.0697031021118164,0
61,100,0.5,691,0,57,DL_Guitar,6,8,DL_Guitar,0.08189453184604645,0
59,100,0.6,810,0,57,DL_Guitar,6,10,DL_Guitar,0.12402278929948807,0
59,100,0.18181818181818182,153,1,58,DL_Guitar,6,3,DL_Guitar,0.9990057349205017,1
59,100,0.1,215,0,58,DL_Guitar,6,2,DL_Guitar,0.23120230436325073,0
52,100,0.4409090909090909,330,0,58,DL_Guitar,6,7,DL_Guitar,0.2659205496311188,0
52,100,0.11818181818181818,536,0,58,DL_Guitar,6,2,DL_Guitar,0.35420364141464233,0
61,100,0.1409090909090909,48,1,59,DL_Guitar,6,2,DL_Guitar,0.9990229606628418,1
61,100,0.3,110,0,59,DL_Guitar,6,5,DL_Guitar,0.3666270077228546,0
57,100,0.1409090909090909,770,1,59,DL_Guitar,6,2,DL_Guitar,0.45329418778419495,0
57,100,0.11818181818181818,330,1,60,DL_Guitar,6,2,DL_Guitar,0.9990229606628418,1
61,100,0.5636363636363636,421,0,60,DL_Guitar,6,9,DL_Guitar,0.36662426590919495,0
61,100,0.3181818181818182,678,1,60,DL_Guitar,6,5,DL_Guitar,0.4532880187034607,0
57,100,0.4636363636363636,444,1,61,DL_Guitar,6,7,DL_Guitar,0.9990229606628418,1
54,100,0.35909090909090907,550,0,61,DL_Guitar,6,6,DL_Guitar,0.3666212558746338,0
57,100,0.13636363636363635,633,0,61,DL_Guitar,6,2,DL_Guitar,0.4532938003540039,0
57,100,0.11818181818181818,316,1,62,DL_Guitar,6,2,DL_Guitar,0.9990057349205017,1
57,100,0.1,471,0,62,DL_Guitar,6,2,DL_Guitar,0.23120373487472534,0
57,100,0.18181818181818182,628,0,62,DL_Guitar,6,3,DL_Guitar,0.26592332124710083,0
59,100,0.4590909090909091,810,0,62,DL_Guitar,6,7,DL_Guitar,0.35420119762420654,0
61,100,0.13636363636363635,171,1,63,DL_Guitar,6,2,DL_Guitar,0.9983736276626587,1
59,100,0.35909090909090907,316,0,63,DL_Guitar,6,6,DL_Guitar,0.05106247588992119,0
57,100,0.2409090909090909,431,0,63,DL_Guitar,6,4,DL_Guitar,0.041303157806396484,0
54,100,0.1,691,1,63,DL_Guitar,6,2,DL_Guitar,0.037386879324913025,0
54,100,0.17727272727272728,721,0,63,DL_Guitar,6,3,DL_Guitar,0.038329776376485825,0
57,100,0.12272727272727273,774,0,63,DL_Guitar,6,2,DL_Guitar,0.04475116357207298,0
54,100,0.11818181818181818,813,0,63,DL_Guitar,6,2,DL_Guitar,0.05523012578487396,0
54,100,0.12272727272727273,848,0,63,DL_Guitar,6,2,DL_Guitar,0.09026388078927994,0
57,100,0.1590909090909091,0,1,64,DL_Guitar,6,3,DL_Guitar,0.9990229606628418,1
57,100,0.7181818181818181,550,1,64,DL_Guitar,6,11,DL_Guitar,0.366627037525177,0
57,100,0.4,849,1,64,DL_Guitar,6,6,DL_Guitar,0.45329684019088745,0
57,100,0.2409090909090909,66,1,65,DL_Guitar,6,4,DL_Guitar,0.9990229606628418,1
59,100,0.8363636363636363,172,0,65,DL_Guitar,6,13,DL_Guitar,0.36662301421165466,0
61,100,0.2409090909090909,404,1,65,DL_Guitar,6,4,DL_Guitar,0.4532844126224518,0
59,100,0.8590909090909091,426,1,66,DL_Guitar,6,14,DL_Guitar,0.9990229606628418,1
69,100,0.1,796,1,66,DL_Guitar,6,2,DL_Guitar,0.36662670969963074,0
62,100,0.12272727272727273,849,0,66,DL_Guitar,6,2,DL_Guitar,0.453291654586792,0
62,100,0.1590909090909091,0,1,67,DL_Guitar,6,3,DL_Guitar,0.9983003735542297,1
64,100,0.5181818181818182,40,0,67,DL_Guitar,6,8,DL_Guitar,0.04466504976153374,0
64,100,0.3409090909090909,176,0,67,DL_Guitar,6,5,DL_Guitar,0.03315116465091705,0
52,100,0.37727272727272726,436,1,67,DL_Guitar,6,6,DL_Guitar,0.026581956073641777,0
52,100,0.17727272727272728,546,0,67,DL_Guitar,6,3,DL_Guitar,0.02359706349670887,0
52,100,0.1590909090909091,603,0,67,DL_Guitar,6,3,DL_Guitar,0.02431633323431015,0
52,100,0.13636363636363635,656,0,67,DL_Guitar,6,2,DL_Guitar,0.029692428186535835,0
52,100,0.3409090909090909,690,0,67,DL_Guitar,6,5,DL_Guitar,0.04007880762219429,0
52,100,0.38181818181818183,849,0,67,DL_Guitar,6,6,DL_Guitar,0.07093455642461777,0
52,100,0.2,233,1,68,DL_Guitar,6,3,DL_Guitar,0.9990229606628418,1
52,100,0.37727272727272726,294,0,68,DL_Guitar,6,6,DL_Guitar,0.36661413311958313,0
59,100,0.13636363636363635,457,0,68,DL_Guitar,6,2,DL_Guitar,0.4532987177371979,0
57,100,0.4,189,1,69,DL_Guitar,6,6,DL_Guitar,0.9990229606628418,1
52,100,0.2,686,1,69,DL_Guitar,6,3,DL_Guitar,0.3666231036186218,0
52,100,0.1590909090909091,832,0,69,DL_Guitar,6,3,DL_Guitar,0.4533006548881531,0
52,100,0.2590909090909091,56,1,70,DL_Guitar,6,4,DL_Guitar,0.9986500144004822,1
59,100,0.1409090909090909,140,0,70,DL_Guitar,6,2,DL_Guitar,0.08780427277088165,0
53,100,0.5818181818181818,307,0,70,DL_Guitar,6,9,DL_Guitar,0.09180945158004761,0
53,100,0.1590909090909091,453,0,70,DL_Guitar,6,3,DL_Guitar,0.1074765995144844,0
53,100,0.1409090909090909,642,0,70,DL_Guitar,6,2,DL_Guitar,0.12482506781816483,0
56,100,0.11818181818181818,734,0,70,DL_Guitar,6,2,DL_Guitar,0.1790274679660797,0
61,100,0.11818181818181818,153,1,71,DL_Guitar,6,2,DL_Guitar,0.9990229606628418,1
57,100,0.1590909090909091,673,1,71,DL_Guitar,6,3,DL_Guitar,0.3666284680366516,0
57,100,0.2,823,0,71,DL_Guitar,6,3,DL_Guitar,0.4532987177371979,0
57,100,0.1590909090909091,9,1,72,DL_Guitar,6,3,DL_Guitar,0.9990057349205017,1
59,100,1.059090909090909,193,0,72,DL_Guitar,6,15,DL_Guitar,0.23120592534542084,0
69,100,0.21818181818181817,502,1,72,DL_Guitar,6,3,DL_Guitar,0.26592379808425903,0
57,100,0.33636363636363636,743,1,72,DL_Guitar,6,5,DL_Guitar,0.3542023301124573,0
61,100,0.11818181818181818,514,1,73,DL_Guitar,6,2,DL_Guitar,0.9990229606628418,1
61,100,0.42272727272727273,585,0,73,DL_Guitar,6,7,DL_Guitar,0.3666229844093323,0
57,100,0.3409090909090909,870,1,73,DL_Guitar,6,5,DL_Guitar,0.45329371094703674,0
57,100,0.21818181818181817,132,1,74,DL_Guitar,6,3,DL_Guitar,0.9986500144004822,1
57,100,0.2772727272727273,237,0,74,DL_Guitar,6,4,DL_Guitar,0.08780361711978912,0
52,100,0.2590909090909091,559,1,74,DL_Guitar,6,4,DL_Guitar,0.09181448072195053,0
52,100,0.18181818181818182,619,0,74,DL_Guitar,6,3,DL_Guitar,0.1074800193309784,0
64,100,0.18181818181818182,682,0,74,DL_Guitar,6,3,DL_Guitar,0.12482952326536179,0
59,100,0.2818181818181818,726,0,74,DL_Guitar,6,5,DL_Guitar,0.1790354996919632,0
61,100,0.1,17,1,75,DL_Guitar,6,2,DL_Guitar,0.9988419413566589,1
53,100,1.1409090909090909,47,0,75,DL_Guitar,6,15,DL_Guitar,0.13724297285079956,0
61,100,0.6409090909090909,316,1,75,DL_Guitar,6,10,DL_Guitar,0.1597745418548584,0
61,100,0.12272727272727273,606,1,75,DL_Guitar,6,2,DL_Guitar,0.18644732236862183,0
61,100,0.3,739,0,75,DL_Guitar,6,5,DL_Guitar,0.2581641376018524,0
59,100,0.17727272727272728,9,1,76,DL_Guitar,6,3,DL_Guitar,0.9988419413566589,1
52,100,0.18181818181818182,550,1,76,DL_Guitar,6,3,DL_Guitar,0.13724352419376373,0
52,100,0.1409090909090909,739,0,76,DL_Guitar,6,2,DL_Guitar,0.15977734327316284,0
52,100,0.16363636363636364,773,0,76,DL_Guitar,6,3,DL_Guitar,0.18645109236240387,0
59,100,0.21818181818181817,813,0,76,DL_Guitar,6,3,DL_Guitar,0.2581743896007538,0
59,100,0.3,176,1,77,DL_Guitar,6,5,DL_Guitar,0.9988419413566589,1
59,100,0.5590909090909091,307,0,77,DL_Guitar,6,9,DL_Guitar,0.13724516332149506,0
64,100,0.18181818181818182,440,0,77,DL_Guitar,6,3,DL_Guitar,0.1597810685634613,0
59,100,0.17727272727272728,502,0,77,DL_Guitar,6,3,DL_Guitar,0.18644897639751434,0
59,100,0.4409090909090909,559,0,77,DL_Guitar,6,7,DL_Guitar,0.25816580653190613,0
57,100,0.3,289,1,78,DL_Guitar,6,5,DL_Guitar,0.9792560338973999,0
65,100,0.1409090909090909,449,1,79,DL_Guitar,6,2,DL_Guitar,0.9986500144004822,1
65,100,0.18181818181818182,550,0,79,DL_Guitar,6,3,DL_Guitar,0.08780021965503693,0
65,100,0.2,597,0,79,DL_Guitar,6,3,DL_Guitar,0.09181370586156845,0
65,100,0.6636363636363637,663,0,79,DL_Guitar,6,11,DL_Guitar,0.10747428983449936,0
65,100,0.1409090909090909,813,0,79,DL_Guitar,6,2,DL_Guitar,0.12482551485300064,0
65,100,0.5227272727272727,849,0,79,DL_Guitar,6,8,DL_Guitar,0.17902378737926483,0
59,100,0.2,246,1,80,DL_Guitar,6,3,DL_Guitar,0.9990057349205017,1
59,100,0.17727272727272728,294,0,80,DL_Guitar,6,3,DL_Guitar,0.23120039701461792,0
59,100,0.2,496,0,80,DL_Guitar,6,3,DL_Guitar,0.2659159302711487,0
52,100,0.2772727272727273,722,0,80,DL_Guitar,6,4,DL_Guitar,0.35419878363609314,0
52,100,0.6227272727272727,47,1,81,DL_Guitar,6,10,DL_Guitar,0.9983164072036743,1
61,100,1.7818181818181817,263,0,81,DL_Guitar,6,15,DL_Guitar,0.5445476770401001,0
57,100,0.2590909090909091,127,1,82,DL_Guitar,6,4,DL_Guitar,0.9990057349205017,1
57,100,0.2409090909090909,263,0,82,DL_Guitar,6,4,DL_Guitar,0.23121574521064758,0
57,100,0.1,320,0,82,DL_Guitar,6,2,DL_Guitar,0.2659372091293335,0
57,100,0.759090909090909,440,0,82,DL_Guitar,6,12,DL_Guitar,0.35420408844947815,0
57,100,0.12272727272727273,13,1,83,DL_Guitar,6,2,DL_Guitar,0.9990229606628418,1
57,100,0.2,303,1,83,DL_Guitar,6,3,DL_Guitar,0.3666178584098816,0
52,100,0.1,857,1,83,DL_Guitar,6,2,DL_Guitar,0.45329341292381287,0
61,100,0.3,197,1,84,DL_Guitar,6,5,DL_Guitar,0.9990057349205017,1
61,100,1.0,347,0,84,DL_Guitar,6,15,DL_Guitar,0.23119841516017914,0
61,100,0.5227272727272727,707,1,84,DL_Guitar,6,8,DL_Guitar,0.2659207880496979,0
61,100,0.38181818181818183,836,0,84,DL_Guitar,6,6,DL_Guitar,0.3541925847530365,0
52,100,0.4818181818181818,166,1,85,DL_Guitar,6,8,DL_Guitar,0.9986500144004822,1
52,100,0.6,286,0,85,DL_Guitar,6,10,DL_Guitar,0.0878046452999115,0
52,100,0.3,422,0,85,DL_Guitar,6,5,DL_Guitar,0.09181414544582367,0
52,100,0.35909090909090907,603,0,85,DL_Guitar,6,6,DL_Guitar,0.10747923702001572,0
59,100,0.32272727272727275,729,0,85,DL_Guitar,6,5,DL_Guitar,0.12483116239309311,0
59,100,0.18181818181818182,817,0,85,DL_Guitar,6,3,DL_Guitar,0.17903783917427063,0
64,100,0.2409090909090909,113,1,86,DL_Guitar,6,4,DL_Guitar,0.9986500144004822,1
59,100,0.42272727272727273,202,0,86,DL_Guitar,6,7,DL_Guitar,0.0878041461110115,0
57,100,0.1409090909090909,493,1,86,DL_Guitar,6,2,DL_Guitar,0.0918167233467102,0
57,100,0.35909090909090907,527,0,86,DL_Guitar,6,6,DL_Guitar,0.10748136043548584,0
57,100,0.2772727272727273,624,0,86,DL_Guitar,6,4,DL_Guitar,0.12483415007591248,0
57,100,1.1590909090909092,813,0,86,DL_Guitar,6,15,DL_Guitar,0.17904026806354523,0
57,100,0.2409090909090909,250,1,87,DL_Guitar,6,4,DL_Guitar,0.9792566299438477,0
59,100,0.1409090909090909,506,1,90,DL_Guitar,6,2,DL_Guitar,0.9990229606628418,1
59,100,0.1,646,0,90,DL_Guitar,6,2,DL_Guitar,0.36661842465400696,0
59,100,0.4590909090909091,823,0,90,DL_Guitar,6,7,DL_Guitar,0.45329028367996216,0
59,100,0.5,79,1,91,DL_Guitar,6,8,DL_Guitar,0.9990229606628418,1
52,100,0.17727272727272728,316,1,91,DL_Guitar,6,3,DL_Guitar,0.3666202127933502,0
52,100,0.4,817,1,91,DL_Guitar,6,6,DL_Guitar,0.45329567790031433,0
57,100,0.22272727272727272,100,1,92,DL_Guitar,6,4,DL_Guitar,0.9984880685806274,1
66,100,0.18181818181818182,197,0,92,DL_Guitar,6,3,DL_Guitar,0.06334631145000458,0
55,100,0.11818181818181818,426,0,92,DL_Guitar,6,2,DL_Guitar,0.05774230509996414,0
55,100,0.11818181818181818,480,0,92,DL_Guitar,6,2,DL_Guitar,0.06020315736532211,0
56,100,0.1409090909090909,506,0,92,DL_Guitar,6,2,DL_Guitar,0.06970133632421494,0
52,100,0.4,572,0,92,DL_Guitar,6,6,DL_Guitar,0.08189499378204346,0
59,100,0.32272727272727275,707,0,92,DL_Guitar,6,5,DL_Guitar,0.12402062118053436,0
64,100,0.16363636363636364,3,1,93,DL_Guitar,6,3,DL_Guitar,0.9988419413566589,1
59,100,0.11818181818181818,150,0,93,DL_Guitar,6,2,DL_Guitar,0.1372520625591278,0
65,100,0.4590909090909091,320,0,93,DL_Guitar,6,7,DL_Guitar,0.1597827523946762,0
65,100,0.2772727272727273,426,0,93,DL_Guitar,6,4,DL_Guitar,0.18645548820495605,0
57,100,0.5181818181818182,844,1,93,DL_Guitar,6,8,DL_Guitar,0.25816184282302856,0
59,100,0.3181818181818182,813,1,94,DL_Guitar,6,5,DL_Guitar,0.9792561531066895,0
59,100,0.32272727272727275,92,1,95,DL_Guitar,6,5,DL_Guitar,0.9983165264129639,1
59,100,0.1409090909090909,223,0,95,DL_Guitar,6,2,DL_Guitar,0.544553279876709,0
54,100,0.1590909090909091,53,1,96,DL_Guitar,6,3,DL_Guitar,0.9983165264129639,1
57,100,0.6181818181818182,734,1,96,DL_Guitar,6,10,DL_Guitar,0.5445543527603149,0
57,100,0.21818181818181817,0,1,97,DL_Guitar,6,3,DL_Guitar,0.9990057349205017,1
59,100,0.4818181818181818,189,0,97,DL_Guitar,6,8,DL_Guitar,0.23120975494384766,0
64,100,0.11818181818181818,493,1,97,DL_Guitar,6,2,DL_Guitar,0.2659323811531067,0
57,100,0.8409090909090909,823,1,97,DL_Guitar,6,13,DL_Guitar,0.35420024394989014,0
57,100,0.12272727272727273,157,1,98,DL_Guitar,6,2,DL_Guitar,0.9792561531066895,0
57,100,0.2409090909090909,443,1,100,DL_Guitar,6,4,DL_Guitar,0.9990057349205017,1
57,100,0.2409090909090909,563,0,100,DL_Guitar,6,4,DL_Guitar,0.2311953455209732,0
57,100,0.2,633,0,100,DL_Guitar,6,3,DL_Guitar,0.2659211754798889,0
59,100,0.5590909090909091,810,0,100,DL_Guitar,6,9,DL_Guitar,0.35418903827667236,0
59,100,0.11818181818181818,83,1,101,DL_Guitar,6,2,DL_Guitar,0.9986500144004822,1
59,100,0.4,153,0,101,DL_Guitar,6,6,DL_Guitar,0.08780156075954437,0
59,100,0.2,260,0,101,DL_Guitar,6,3,DL_Guitar,0.09181255102157593,0
59,100,0.5227272727272727,430,0,101,DL_Guitar,6,8,DL_Guitar,0.10747625678777695,0
53,100,0.3,677,1,101,DL_Guitar,6,5,DL_Guitar,0.12482473999261856,0
59,100,0.2,756,0,101,DL_Guitar,6,3,DL_Guitar,0.17903538048267365,0
57,100,0.4772727272727273,193,1,102,DL_Guitar,6,8,DL_Guitar,0.9990057349205017,1
57,100,0.18181818181818182,597,1,102,DL_Guitar,6,3,DL_Guitar,0.23121273517608643,0
57,100,0.4636363636363636,707,0,102,DL_Guitar,6,7,DL_Guitar,0.26592716574668884,0
57,100,0.1,839,0,102,DL_Guitar,6,2,DL_Guitar,0.3541986346244812,0
57,100,0.12272727272727273,35,1,103,DL_Guitar,6,2,DL_Guitar,0.9990057349205017,1
59,100,0.5181818181818182,184,0,103,DL_Guitar,6,8,DL_Guitar,0.23120476305484772,0
59,100,0.7227272727272728,312,0,103,DL_Guitar,6,12,DL_Guitar,0.2659159004688263,0
52,100,0.13636363636363635,502,0,103,DL_Guitar,6,2,DL_Guitar,0.3541986346244812,0
57,100,0.1,282,1,104,DL_Guitar,6,2,DL_Guitar,0.9983004927635193,1
57,100,0.18181818181818182,466,0,104,DL_Guitar,6,3,DL_Guitar,0.0446653850376606,0
57,100,0.1,514,0,104,DL_Guitar,6,2,DL_Guitar,0.03315013647079468,0
57,100,0.2590909090909091,540,0,104,DL_Guitar,6,4,DL_Guitar,0.026580333709716797,0
57,100,0.11818181818181818,616,0,104,DL_Guitar,6,2,DL_Guitar,0.023594822734594345,0
57,100,0.2409090909090909,682,0,104,DL_Guitar,6,4,DL_Guitar,0.02431522123515606,0
57,100,0.1,743,0,104,DL_Guitar,6,2,DL_Guitar,0.029690520837903023,0
57,100,0.1590909090909091,770,0,104,DL_Guitar,6,3,DL_Guitar,0.04007747769355774,0
57,100,0.1,813,0,104,DL_Guitar,6,2,DL_Guitar,0.07093047350645065,0
57,100,0.11818181818181818,9,1,105,DL_Guitar,6,2,DL_Guitar,0.9792559146881104,0
52,100,0.10454545454545454,863,1,0,DL_Guitar_1,6,2,DL_Guitar_1,0.979256272315979,0
52,100,0.1409090909090909,29,1,1,DL_Guitar_1,6,2,DL_Guitar_1,0.9990229606628418,1
52,100,0.38181818181818183,197,0,1,DL_Guitar_1,6,6,DL_Guitar_1,0.36661669611930847,0
52,100,0.29545454545454547,862,1,1,DL_Guitar_1,6,5,DL_Guitar_1,0.4532967805862427,0
52,100,0.29545454545454547,100,1,2,DL_Guitar_1,6,5,DL_Guitar_1,0.9792568683624268,0
52,100,0.2590909090909091,73,1,4,DL_Guitar_1,6,4,DL_Guitar_1,0.9792569875717163,0
52,100,0.29545454545454547,73,1,5,DL_Guitar_1,6,5,DL_Guitar_1,0.9990229606628418,1
52,100,0.2772727272727273,179,0,5,DL_Guitar_1,6,4,DL_Guitar_1,0.36662527918815613,0
52,100,0.13636363636363635,282,0,5,DL_Guitar_1,6,2,DL_Guitar_1,0.45329272747039795,0
52,100,0.32727272727272727,60,1,6,DL_Guitar_1,6,5,DL_Guitar_1,0.9990057349205017,1
52,100,0.11818181818181818,163,0,6,DL_Guitar_1,6,2,DL_Guitar_1,0.2311994582414627,0
52,100,0.10454545454545454,201,0,6,DL_Guitar_1,6,2,DL_Guitar_1,0.26592588424682617,0
52,100,0.1590909090909091,273,0,6,DL_Guitar_1,6,3,DL_Guitar_1,0.35420191287994385,0
54,100,0.10454545454545454,563,1,11,DL_Guitar_1,6,2,DL_Guitar_1,0.9983165264129639,1
52,100,0.17727272727272728,780,0,11,DL_Guitar_1,6,3,DL_Guitar_1,0.5445559620857239,0
52,100,0.4,8,1,12,DL_Guitar_1,6,6,DL_Guitar_1,0.9990229606628418,1
54,100,0.1,111,0,12,DL_Guitar_1,6,2,DL_Guitar_1,0.366620808839798,0
52,100,0.09090909090909091,218,0,12,DL_Guitar_1,6,1,DL_Guitar_1,0.4532901644706726,0
52,100,0.41363636363636364,771,1,13,DL_Guitar_1,6,7,DL_Guitar_1,0.9983164072036743,1
52,100,0.43636363636363634,866,0,13,DL_Guitar_1,6,7,DL_Guitar_1,0.544559121131897,0
54,100,0.1409090909090909,111,1,14,DL_Guitar_1,6,2,DL_Guitar_1,0.9990229606628418,1
54,100,0.13636363636363635,147,0,14,DL_Guitar_1,6,2,DL_Guitar_1,0.36662137508392334,0
52,100,0.20909090909090908,204,0,14,DL_Guitar_1,6,3,DL_Guitar_1,0.45329007506370544,0
56,100,0.20909090909090908,99,1,15,DL_Guitar_1,6,3,DL_Guitar_1,0.9990229606628418,1
52,100,0.34545454545454546,759,1,15,DL_Guitar_1,6,6,DL_Guitar_1,0.3666295111179352,0
56,100,0.2409090909090909,874,0,15,DL_Guitar_1,6,4,DL_Guitar_1,0.45328742265701294,0
52,100,0.11818181818181818,185,1,16,DL_Guitar_1,6,2,DL_Guitar_1,0.9983165264129639,1
52,100,0.1590909090909091,216,0,16,DL_Guitar_1,6,3,DL_Guitar_1,0.5445585250854492,0
52,100,0.6045454545454545,722,1,17,DL_Guitar_1,6,10,DL_Guitar_1,0.9792571067810059,0
52,100,0.1590909090909091,21,1,18,DL_Guitar_1,6,3,DL_Guitar_1,0.9990057349205017,1
54,100,0.10454545454545454,147,0,18,DL_Guitar_1,6,2,DL_Guitar_1,0.2312019318342209,0
52,100,0.2590909090909091,175,0,18,DL_Guitar_1,6,4,DL_Guitar_1,0.26591581106185913,0
52,100,0.08636363636363636,506,1,18,DL_Guitar_1,6,1,DL_Guitar_1,0.35419371724128723,0
52,100,0.85,735,1,19,DL_Guitar_1,6,14,DL_Guitar_1,0.979256272315979,0
52,100,0.13636363636363635,72,1,20,DL_Guitar_1,6,2,DL_Guitar_1,0.9983165264129639,1
52,100,0.1409090909090909,164,0,20,DL_Guitar_1,6,2,DL_Guitar_1,0.5445578098297119,0
56,100,0.33181818181818185,831,1,21,DL_Guitar_1,6,5,DL_Guitar_1,0.9792549014091492,0
52,100,0.22727272727272727,38,1,22,DL_Guitar_1,6,4,DL_Guitar_1,0.9792566299438477,1
57,100,0.19090909090909092,855,1,23,DL_Guitar_1,6,3,DL_Guitar_1,0.979256272315979,0
54,100,0.10454545454545454,35,1,24,DL_Guitar_1,6,2,DL_Guitar_1,0.9792571067810059,0
56,100,0.39545454545454545,30,1,25,DL_Guitar_1,6,6,DL_Guitar_1,0.9990230798721313,1
56,100,0.5045454545454545,477,1,25,DL_Guitar_1,6,8,DL_Guitar_1,0.36663082242012024,0
56,100,0.31363636363636366,691,0,25,DL_Guitar_1,6,5,DL_Guitar_1,0.4532891511917114,0
56,100,0.13636363636363635,185,1,26,DL_Guitar_1,6,2,DL_Guitar_1,0.9792556166648865,0
64,100,0.08636363636363636,677,1,27,DL_Guitar_1,6,1,DL_Guitar_1,0.9792568683624268,0
56,100,0.15454545454545454,285,1,28,DL_Guitar_1,6,2,DL_Guitar_1,0.9990057349205017,1
56,100,0.29545454545454547,354,0,28,DL_Guitar_1,6,5,DL_Guitar_1,0.2312050312757492,0
56,100,0.41818181818181815,450,0,28,DL_Guitar_1,6,7,DL_Guitar_1,0.2659164369106293,0
52,100,0.33181818181818185,781,1,28,DL_Guitar_1,6,5,DL_Guitar_1,0.3542015552520752,0
56,100,0.4863636363636364,4,1,29,DL_Guitar_1,6,8,DL_Guitar_1,0.9990229606628418,1
56,100,0.19090909090909092,116,0,29,DL_Guitar_1,6,3,DL_Guitar_1,0.3666301667690277,0
57,100,0.15454545454545454,605,1,29,DL_Guitar_1,6,2,DL_Guitar_1,0.45329415798187256,0
56,100,0.6772727272727272,821,1,30,DL_Guitar_1,6,11,DL_Guitar_1,0.9792552590370178,0
56,100,0.20909090909090908,422,1,31,DL_Guitar_1,6,3,DL_Guitar_1,0.979255735874176,1
56,100,0.19090909090909092,96,1,32,DL_Guitar_1,6,3,DL_Guitar_1,0.979255735874176,0
56,100,0.19090909090909092,597,1,37,DL_Guitar_1,6,3,DL_Guitar_1,0.9792559146881104,0
52,100,0.41363636363636364,370,1,38,DL_Guitar_1,6,7,DL_Guitar_1,0.9792567491531372,0
56,100,0.29545454545454547,555,1,44,DL_Guitar_1,6,5,DL_Guitar_1,0.9990229606628418,1
56,100,0.08636363636363636,669,0,44,DL_Guitar_1,6,1,DL_Guitar_1,0.3666321337223053,0
56,100,0.17272727272727273,772,0,44,DL_Guitar_1,6,3,DL_Guitar_1,0.453283429145813,0
56,100,0.29545454545454547,836,1,48,DL_Guitar_1,6,5,DL_Guitar_1,0.9792560338973999,1
56,100,0.2772727272727273,829,1,50,DL_Guitar_1,6,4,DL_Guitar_1,0.9792553782463074,0
56,100,0.10454545454545454,840,1,52,DL_Guitar_1,6,2,DL_Guitar_1,0.9792561531066895,1
56,100,0.13636363636363635,859,1,53,DL_Guitar_1,6,2,DL_Guitar_1,0.9792556166648865,0
64,100,0.10454545454545454,282,1,55,DL_Guitar_1,6,2,DL_Guitar_1,0.9792567491531372,1
56,100,0.5,111,1,57,DL_Guitar_1,6,8,DL_Guitar_1,0.9792553782463074,0
54,100,0.10454545454545454,220,1,58,DL_Guitar_1,6,2,DL_Guitar_1,0.9986500144004822,1
58,100,0.2590909090909091,495,1,58,DL_Guitar_1,6,4,DL_Guitar_1,0.08780316263437271,0
58,100,0.24545454545454545,595,0,58,DL_Guitar_1,6,4,DL_Guitar_1,0.09181433916091919,0
54,100,0.17272727272727273,655,0,58,DL_Guitar_1,6,3,DL_Guitar_1,0.10747785866260529,0
54,100,0.13636363636363635,770,0,58,DL_Guitar_1,6,2,DL_Guitar_1,0.12482405453920364,0
64,100,0.13636363636363635,836,0,58,DL_Guitar_1,6,2,DL_Guitar_1,0.17903153598308563,0
52,100,0.13636363636363635,282,1,60,DL_Guitar_1,6,2,DL_Guitar_1,0.9990057349205017,1
52,100,0.45,432,0,60,DL_Guitar_1,6,7,DL_Guitar_1,0.23120605945587158,0
56,100,0.4681818181818182,535,0,60,DL_Guitar_1,6,7,DL_Guitar_1,0.2659167945384979,0
52,100,0.41818181818181815,648,0,60,DL_Guitar_1,6,7,DL_Guitar_1,0.3542026877403259,0
64,100,0.17272727272727273,335,1,61,DL_Guitar_1,6,3,DL_Guitar_1,0.9792569875717163,0
61,100,0.1409090909090909,713,1,63,DL_Guitar_1,6,2,DL_Guitar_1,0.9983165264129639,1
58,100,0.41818181818181815,861,0,63,DL_Guitar_1,6,7,DL_Guitar_1,0.5445581078529358,0
54,100,0.11818181818181818,85,1,64,DL_Guitar_1,6,2,DL_Guitar_1,0.9988419413566589,1
54,100,0.1590909090909091,177,0,64,DL_Guitar_1,6,3,DL_Guitar_1,0.13724595308303833,0
58,100,0.6772727272727272,219,0,64,DL_Guitar_1,6,11,DL_Guitar_1,0.15977488458156586,0
58,100,0.4,422,0,64,DL_Guitar_1,6,6,DL_Guitar_1,0.1864447444677353,0
58,100,0.2590909090909091,528,0,64,DL_Guitar_1,6,4,DL_Guitar_1,0.2581595778465271,0
69,100,0.20909090909090908,447,1,65,DL_Guitar_1,6,3,DL_Guitar_1,0.9792560338973999,1
56,100,0.5045454545454545,384,1,66,DL_Guitar_1,6,8,DL_Guitar_1,0.9792556166648865,0
83,100,0.1409090909090909,176,1,67,DL_Guitar_1,6,2,DL_Guitar_1,0.979256272315979,1
83,100,0.08636363636363636,736,1,68,DL_Guitar_1,6,1,DL_Guitar_1,0.9792558550834656,0
59,100,0.1590909090909091,215,1,69,DL_Guitar_1,6,3,DL_Guitar_1,0.9983165264129639,1
54,100,0.4318181818181818,803,1,69,DL_Guitar_1,6,7,DL_Guitar_1,0.5445581674575806,0
58,100,0.5363636363636364,27,1,70,DL_Guitar_1,6,9,DL_Guitar_1,0.9986500144004822,1
58,100,0.41818181818181815,167,0,70,DL_Guitar_1,6,7,DL_Guitar_1,0.08780346065759659,0
58,100,0.38181818181818183,278,0,70,DL_Guitar_1,6,6,DL_Guitar_1,0.09181314706802368,0
54,100,0.4,367,0,70,DL_Guitar_1,6,6,DL_Guitar_1,0.10747604817152023,0
58,100,0.41818181818181815,477,0,70,DL_Guitar_1,6,7,DL_Guitar_1,0.12482640147209167,0
62,100,0.2772727272727273,810,1,70,DL_Guitar_1,6,4,DL_Guitar_1,0.17902903258800507,0
56,100,0.2772727272727273,808,1,71,DL_Guitar_1,6,4,DL_Guitar_1,0.9983165264129639,1
56,100,0.10454545454545454,872,0,71,DL_Guitar_1,6,2,DL_Guitar_1,0.5445533990859985,0
56,100,0.45,131,1,72,DL_Guitar_1,6,7,DL_Guitar_1,0.9988419413566589,1
56,100,0.38181818181818183,252,0,72,DL_Guitar_1,6,6,DL_Guitar_1,0.13725228607654572,0
56,100,0.9227272727272727,352,0,72,DL_Guitar_1,6,15,DL_Guitar_1,0.1597740650177002,0
56,100,0.34545454545454546,596,1,72,DL_Guitar_1,6,6,DL_Guitar_1,0.1864524483680725,0
57,100,0.15454545454545454,733,0,72,DL_Guitar_1,6,2,DL_Guitar_1,0.25816699862480164,0
69,100,0.19090909090909092,457,1,73,DL_Guitar_1,6,3,DL_Guitar_1,0.9990230798721313,1
69,100,0.12272727272727273,522,0,73,DL_Guitar_1,6,2,DL_Guitar_1,0.36662757396698,0
56,100,0.36818181818181817,800,1,73,DL_Guitar_1,6,6,DL_Guitar_1,0.4532918334007263,0
56,100,0.4727272727272727,215,1,74,DL_Guitar_1,6,8,DL_Guitar_1,0.9990057349205017,1
56,100,0.32727272727272727,360,0,74,DL_Guitar_1,6,5,DL_Guitar_1,0.2312091886997223,0
69,100,0.2590909090909091,440,0,74,DL_Guitar_1,6,4,DL_Guitar_1,0.265942245721817,0
56,100,0.8181818181818182,581,0,74,DL_Guitar_1,6,13,DL_Guitar_1,0.35418492555618286,0
59,100,0.08636363636363636,320,1,75,DL_Guitar_1,6,1,DL_Guitar_1,0.9988419413566589,1
59,100,0.22727272727272727,355,0,75,DL_Guitar_1,6,4,DL_Guitar_1,0.13724353909492493,0
59,100,0.12272727272727273,447,0,75,DL_Guitar_1,6,2,DL_Guitar_1,0.1597759872674942,0
59,100,0.10454545454545454,477,0,75,DL_Guitar_1,6,2,DL_Guitar_1,0.18645009398460388,0
59,100,0.24545454545454545,652,0,75,DL_Guitar_1,6,4,DL_Guitar_1,0.2581610381603241,0
56,100,0.1590909090909091,105,1,76,DL_Guitar_1,6,3,DL_Guitar_1,0.9986500144004822,1
56,100,0.36363636363636365,151,0,76,DL_Guitar_1,6,6,DL_Guitar_1,0.08780526369810104,0
56,100,0.08636363636363636,238,0,76,DL_Guitar_1,6,1,DL_Guitar_1,0.09181374311447144,0
56,100,0.29545454545454547,349,0,76,DL_Guitar_1,6,5,DL_Guitar_1,0.10747826099395752,0
56,100,0.2772727272727273,453,0,76,DL_Guitar_1,6,4,DL_Guitar_1,0.12482190132141113,0
56,100,0.10454545454545454,605,0,76,DL_Guitar_1,6,2,DL_Guitar_1,0.17902806401252747,0
69,100,0.12272727272727273,431,1,77,DL_Guitar_1,6,2,DL_Guitar_1,0.9792561531066895,0
52,100,0.15454545454545454,180,1,79,DL_Guitar_1,6,2,DL_Guitar_1,0.9988420605659485,1
56,100,0.35,321,0,79,DL_Guitar_1,6,6,DL_Guitar_1,0.13725298643112183,0
56,100,0.41818181818181815,410,0,79,DL_Guitar_1,6,7,DL_Guitar_1,0.15977653861045837,0
56,100,0.13636363636363635,548,0,79,DL_Guitar_1,6,2,DL_Guitar_1,0.18645469844341278,0
57,100,0.5909090909090909,781,1,79,DL_Guitar_1,6,9,DL_Guitar_1,0.25815799832344055,0
57,100,0.2590909090909091,5,1,81,DL_Guitar_1,6,4,DL_Guitar_1,0.9983165264129639,1
57,100,0.5227272727272727,719,1,81,DL_Guitar_1,6,8,DL_Guitar_1,0.5445643067359924,0
57,100,0.35,726,1,82,DL_Guitar_1,6,6,DL_Guitar_1,0.9792560338973999,0
57,100,0.45,151,1,83,DL_Guitar_1,6,7,DL_Guitar_1,0.9984880685806274,1
52,100,0.2772727272727273,282,0,83,DL_Guitar_1,6,4,DL_Guitar_1,0.06334532052278519,0
52,100,0.10454545454545454,408,0,83,DL_Guitar_1,6,2,DL_Guitar_1,0.05774391442537308,0
52,100,0.10454545454545454,435,0,83,DL_Guitar_1,6,2,DL_Guitar_1,0.06020263209939003,0
52,100,0.08636363636363636,461,0,83,DL_Guitar_1,6,1,DL_Guitar_1,0.06970356404781342,0
64,100,0.22727272727272727,507,0,83,DL_Guitar_1,6,4,DL_Guitar_1,0.0818968191742897,0
83,100,0.22727272727272727,632,0,83,DL_Guitar_1,6,4,DL_Guitar_1,0.1240234375,0
57,100,0.13636363636363635,608,1,84,DL_Guitar_1,6,2,DL_Guitar_1,0.9792561531066895,0
54,100,0.4,689,1,86,DL_Guitar_1,6,6,DL_Guitar_1,0.9792566299438477,0
54,100,0.3090909090909091,153,1,87,DL_Guitar_1,6,5,DL_Guitar_1,0.9990229606628418,1
61,100,0.19090909090909092,352,0,87,DL_Guitar_1,6,3,DL_Guitar_1,0.36661505699157715,0
61,100,0.41363636363636364,470,0,87,DL_Guitar_1,6,7,DL_Guitar_1,0.4532862603664398,0
52,100,0.12272727272727273,114,1,1,DL_Guitar,6,2,DL_Guitar,0.9990229606628418,1
52,100,0.1590909090909091,166,0,1,DL_Guitar,6,3,DL_Guitar,0.36662521958351135,0
52,100,0.4409090909090909,360,0,1,DL_Guitar,6,7,DL_Guitar,0.4532940983772278,0
52,100,0.3409090909090909,246,1,2,DL_Guitar,6,5,DL_Guitar,0.9983165264129639,1
52,100,0.3409090909090909,382,0,2,DL_Guitar,6,5,DL_Guitar,0.544559121131897,0
52,100,0.3,619,1,4,DL_Guitar,6,5,DL_Guitar,0.9792567491531372,0
52,100,0.3409090909090909,752,1,5,DL_Guitar,6,5,DL_Guitar,0.9983165264129639,1
52,100,0.3181818181818182,875,0,5,DL_Guitar,6,5,DL_Guitar,0.5445602536201477,0
52,100,0.16363636363636364,114,1,6,DL_Guitar,6,3,DL_Guitar,0.9983165264129639,1
52,100,0.38181818181818183,871,1,6,DL_Guitar,6,6,DL_Guitar,0.5445606112480164,0
52,100,0.1409090909090909,110,1,7,DL_Guitar,6,2,DL_Guitar,0.9990230798721313,1
52,100,0.11818181818181818,153,0,7,DL_Guitar,6,2,DL_Guitar,0.3666192591190338,0
52,100,0.17727272727272728,238,0,7,DL_Guitar,6,3,DL_Guitar,0.45328935980796814,0
54,100,0.11818181818181818,360,1,13,DL_Guitar,6,2,DL_Guitar,0.9990057349205017,1
52,100,0.2,611,1,13,DL_Guitar,6,3,DL_Guitar,0.23119817674160004,0
52,100,0.4590909090909091,735,0,13,DL_Guitar,6,7,DL_Guitar,0.2659156918525696,0
54,100,0.11818181818181818,854,0,13,DL_Guitar,6,2,DL_Guitar,0.3542000651359558,0
52,100,0.1,96,1,14,DL_Guitar,6,2,DL_Guitar,0.9792567491531372,1
52,100,0.4772727272727273,866,1,15,DL_Guitar,6,8,DL_Guitar,0.9792567491531372,0
52,100,0.5,96,1,16,DL_Guitar,6,8,DL_Guitar,0.9990057349205017,1
54,100,0.1590909090909091,241,0,16,DL_Guitar,6,3,DL_Guitar,0.2312069982290268,0
54,100,0.1590909090909091,281,0,16,DL_Guitar,6,3,DL_Guitar,0.2659173309803009,0
52,100,0.23636363636363636,347,0,16,DL_Guitar,6,4,DL_Guitar,0.35419681668281555,0
56,100,0.2409090909090909,360,1,17,DL_Guitar,6,4,DL_Guitar,0.9792553782463074,0
52,100,0.4,241,1,18,DL_Guitar,6,6,DL_Guitar,0.9990057349205017,1
56,100,0.2818181818181818,374,0,18,DL_Guitar,6,5,DL_Guitar,0.2311992198228836,0
52,100,0.1409090909090909,594,0,18,DL_Guitar,6,2,DL_Guitar,0.26592767238616943,0
52,100,0.18181818181818182,629,0,18,DL_Guitar,6,3,DL_Guitar,0.35420504212379456,0
52,100,0.7,466,1,20,DL_Guitar,6,11,DL_Guitar,0.9990057349205017,1
52,100,0.18181818181818182,673,0,20,DL_Guitar,6,3,DL_Guitar,0.23120176792144775,0
54,100,0.12272727272727273,818,0,20,DL_Guitar,6,2,DL_Guitar,0.2659229040145874,0
52,100,0.3,849,0,20,DL_Guitar,6,5,DL_Guitar,0.35419994592666626,0
52,100,0.1,351,1,21,DL_Guitar,6,2,DL_Guitar,0.979256272315979,1
52,100,0.9818181818181818,748,1,22,DL_Guitar,6,15,DL_Guitar,0.979256272315979,0
52,100,0.1590909090909091,119,1,23,DL_Guitar,6,3,DL_Guitar,0.9983165264129639,1
52,100,0.16363636363636364,223,0,23,DL_Guitar,6,3,DL_Guitar,0.544553279876709,0
56,100,0.38181818181818183,246,1,25,DL_Guitar,6,6,DL_Guitar,0.9983165264129639,1
52,100,0.2590909090909091,347,0,25,DL_Guitar,6,4,DL_Guitar,0.5445589423179626,0
57,100,0.22272727272727272,540,1,27,DL_Guitar,6,4,DL_Guitar,0.9983165264129639,1
54,100,0.11818181818181818,611,0,27,DL_Guitar,6,2,DL_Guitar,0.5445564985275269,0
56,100,0.4590909090909091,739,1,28,DL_Guitar,6,7,DL_Guitar,0.9792560338973999,0
56,100,0.5818181818181818,374,1,29,DL_Guitar,6,9,DL_Guitar,0.9983165264129639,1
56,100,0.36363636363636365,619,1,29,DL_Guitar,6,6,DL_Guitar,0.5445566177368164,0
56,100,0.1590909090909091,171,1,30,DL_Guitar,6,3,DL_Guitar,0.9792559146881104,0
64,100,0.1,870,1,31,DL_Guitar,6,2,DL_Guitar,0.9792572855949402,0
56,100,0.18181818181818182,554,1,32,DL_Guitar,6,3,DL_Guitar,0.9990229606628418,1
56,100,0.33636363636363636,633,0,32,DL_Guitar,6,5,DL_Guitar,0.3666286766529083,0
56,100,0.4772727272727273,743,0,32,DL_Guitar,6,8,DL_Guitar,0.453285813331604,0
52,100,0.38181818181818183,246,1,33,DL_Guitar,6,6,DL_Guitar,0.9990230798721313,1
56,100,0.5590909090909091,364,0,33,DL_Guitar,6,9,DL_Guitar,0.3666241466999054,0
56,100,0.21818181818181817,493,0,33,DL_Guitar,6,3,DL_Guitar,0.45328959822654724,0
57,100,0.18181818181818182,176,1,34,DL_Guitar,6,3,DL_Guitar,0.9792563915252686,1
56,100,0.7772727272727272,558,1,35,DL_Guitar,6,12,DL_Guitar,0.9792552590370178,0
56,100,0.2409090909090909,233,1,36,DL_Guitar,6,4,DL_Guitar,0.9983165264129639,1
56,100,0.22272727272727272,871,1,36,DL_Guitar,6,4,DL_Guitar,0.5445597767829895,0
56,100,0.22272727272727272,356,1,43,DL_Guitar,6,4,DL_Guitar,0.979255735874176,0
52,100,0.4772727272727273,228,1,44,DL_Guitar,6,8,DL_Guitar,0.9792566299438477,0
56,100,0.3409090909090909,364,1,51,DL_Guitar,6,5,DL_Guitar,0.9990230798721313,1
56,100,0.1,496,0,51,DL_Guitar,6,2,DL_Guitar,0.36662739515304565,0
56,100,0.2,616,0,51,DL_Guitar,6,3,DL_Guitar,0.4532792568206787,0
56,100,0.3409090909090909,343,1,56,DL_Guitar,6,5,DL_Guitar,0.9792558550834656,1
56,100,0.3181818181818182,603,1,58,DL_Guitar,6,5,DL_Guitar,0.9792554974555969,0
56,100,0.12272727272727273,4,1,61,DL_Guitar,6,2,DL_Guitar,0.9792556166648865,0
56,100,0.16363636363636364,158,1,62,DL_Guitar,6,3,DL_Guitar,0.9792563915252686,0
64,100,0.12272727272727273,641,1,63,DL_Guitar,6,2,DL_Guitar,0.9792568683624268,1
56,100,0.5772727272727273,713,1,65,DL_Guitar,6,9,DL_Guitar,0.9792563915252686,0
54,100,0.12272727272727273,92,1,67,DL_Guitar,6,2,DL_Guitar,0.9986500144004822,1
58,100,0.3,409,1,67,DL_Guitar,6,5,DL_Guitar,0.0878019705414772,0
58,100,0.2772727272727273,523,0,67,DL_Guitar,6,4,DL_Guitar,0.0918126329779625,0
54,100,0.2,593,0,67,DL_Guitar,6,3,DL_Guitar,0.10747744888067245,0
54,100,0.1590909090909091,726,0,67,DL_Guitar,6,3,DL_Guitar,0.1248236820101738,0
64,100,0.1590909090909091,800,0,67,DL_Guitar,6,3,DL_Guitar,0.1790338009595871,0
52,100,0.1590909090909091,430,1,69,DL_Guitar,6,3,DL_Guitar,0.9990057349205017,1
52,100,0.5181818181818182,603,0,69,DL_Guitar,6,8,DL_Guitar,0.2312062382698059,0
56,100,0.5363636363636364,722,0,69,DL_Guitar,6,9,DL_Guitar,0.26592278480529785,0
52,100,0.4772727272727273,853,0,69,DL_Guitar,6,8,DL_Guitar,0.354203462600708,0
64,100,0.2,624,1,70,DL_Guitar,6,3,DL_Guitar,0.9792568683624268,0
61,100,0.1590909090909091,449,1,73,DL_Guitar,6,3,DL_Guitar,0.9990057349205017,1
58,100,0.4818181818181818,619,0,73,DL_Guitar,6,8,DL_Guitar,0.23120230436325073,0
54,100,0.1409090909090909,739,0,73,DL_Guitar,6,2,DL_Guitar,0.26592621207237244,0
54,100,0.17727272727272728,844,0,73,DL_Guitar,6,3,DL_Guitar,0.3541930615901947,0
58,100,0.7818181818181819,13,1,74,DL_Guitar,6,13,DL_Guitar,0.9990229606628418,1
58,100,0.4636363636363636,246,1,74,DL_Guitar,6,7,DL_Guitar,0.3666154146194458,0
58,100,0.3,370,0,74,DL_Guitar,6,5,DL_Guitar,0.4532921314239502,0
69,100,0.2409090909090909,409,1,75,DL_Guitar,6,4,DL_Guitar,0.9792559146881104,1
56,100,0.5772727272727273,470,1,76,DL_Guitar,6,9,DL_Guitar,0.9792554974555969,0
83,100,0.1590909090909091,365,1,77,DL_Guitar,6,3,DL_Guitar,0.9792561531066895,0
83,100,0.1,263,1,79,DL_Guitar,6,2,DL_Guitar,0.9983165264129639,1
59,100,0.17727272727272728,677,1,79,DL_Guitar,6,3,DL_Guitar,0.544555127620697,0
54,100,0.5,475,1,80,DL_Guitar,6,8,DL_Guitar,0.9990229606628418,1
58,100,0.6181818181818182,593,0,80,DL_Guitar,6,10,DL_Guitar,0.36661842465400696,0
58,100,0.4772727272727273,756,0,80,DL_Guitar,6,8,DL_Guitar,0.45329251885414124,0
58,100,0.4409090909090909,3,1,81,DL_Guitar,6,7,DL_Guitar,0.9990057349205017,1
54,100,0.4590909090909091,106,0,81,DL_Guitar,6,7,DL_Guitar,0.23120760917663574,0
58,100,0.4818181818181818,233,0,81,DL_Guitar,6,8,DL_Guitar,0.26592394709587097,0
62,100,0.3181818181818182,616,1,81,DL_Guitar,6,5,DL_Guitar,0.35419467091560364,0
56,100,0.3181818181818182,747,1,82,DL_Guitar,6,5,DL_Guitar,0.9983165264129639,1
56,100,0.11818181818181818,823,0,82,DL_Guitar,6,2,DL_Guitar,0.5445572137832642,0
56,100,0.5227272727272727,100,1,83,DL_Guitar,6,8,DL_Guitar,0.9988419413566589,1
56,100,0.4409090909090909,242,0,83,DL_Guitar,6,7,DL_Guitar,0.1372535526752472,0
56,100,1.0636363636363637,356,0,83,DL_Guitar,6,15,DL_Guitar,0.15977689623832703,0
56,100,0.4,637,1,83,DL_Guitar,6,6,DL_Guitar,0.18644548952579498,0
57,100,0.18181818181818182,796,0,83,DL_Guitar,6,3,DL_Guitar,0.25815826654434204,0
69,100,0.21818181818181817,612,1,84,DL_Guitar,6,3,DL_Guitar,0.9983165264129639,1
69,100,0.1409090909090909,686,0,84,DL_Guitar,6,2,DL_Guitar,0.5445614457130432,0
56,100,0.41818181818181815,127,1,85,DL_Guitar,6,7,DL_Guitar,0.9990057349205017,1
56,100,0.5409090909090909,466,1,85,DL_Guitar,6,9,DL_Guitar,0.23121000826358795,0
56,100,0.37727272727272726,633,0,85,DL_Guitar,6,6,DL_Guitar,0.26592379808425903,0
69,100,0.3,726,0,85,DL_Guitar,6,5,DL_Guitar,0.3541884124279022,0
56,100,0.9409090909090909,9,1,86,DL_Guitar,6,15,DL_Guitar,0.9990057349205017,1
59,100,0.1,722,1,86,DL_Guitar,6,2,DL_Guitar,0.2312062680721283,0
59,100,0.2590909090909091,760,0,86,DL_Guitar,6,4,DL_Guitar,0.26591697335243225,0
59,100,0.1409090909090909,866,0,86,DL_Guitar,6,2,DL_Guitar,0.3541945815086365,0
59,100,0.11818181818181818,22,1,87,DL_Guitar,6,2,DL_Guitar,0.9988419413566589,1
59,100,0.2818181818181818,223,0,87,DL_Guitar,6,5,DL_Guitar,0.13724888861179352,0
56,100,0.18181818181818182,606,1,87,DL_Guitar,6,3,DL_Guitar,0.15978065133094788,0
56,100,0.41818181818181815,660,0,87,DL_Guitar,6,7,DL_Guitar,0.18645037710666656,0
56,100,0.1,760,0,87,DL_Guitar,6,2,DL_Guitar,0.2581632137298584,0
56,100,0.3409090909090909,9,1,88,DL_Guitar,6,5,DL_Guitar,0.9990229606628418,1
56,100,0.3181818181818182,127,0,88,DL_Guitar,6,5,DL_Guitar,0.366624653339386,0
56,100,0.11818181818181818,303,0,88,DL_Guitar,6,2,DL_Guitar,0.4532857835292816,0
69,100,0.13636363636363635,237,1,89,DL_Guitar,6,2,DL_Guitar,0.9792565107345581,0
52,100,0.17727272727272728,216,1,91,DL_Guitar,6,3,DL_Guitar,0.9990057349205017,1
56,100,0.4,377,0,91,DL_Guitar,6,6,DL_Guitar,0.23121169209480286,0
56,100,0.4772727272727273,480,0,91,DL_Guitar,6,8,DL_Guitar,0.26593056321144104,0
56,100,0.1590909090909091,637,0,91,DL_Guitar,6,3,DL_Guitar,0.3541966676712036,0
57,100,0.6818181818181818,26,1,92,DL_Guitar,6,11,DL_Guitar,0.979255735874176,0
57,100,0.3,282,1,93,DL_Guitar,6,5,DL_Guitar,0.9792560338973999,1
57,100,0.6,223,1,94,DL_Guitar,6,10,DL_Guitar,0.979255735874176,0
57,100,0.4,365,1,95,DL_Guitar,6,6,DL_Guitar,0.9990229606628418,1
57,100,0.5227272727272727,716,1,95,DL_Guitar,6,8,DL_Guitar,0.3666190803050995,0
52,100,0.3181818181818182,866,0,95,DL_Guitar,6,5,DL_Guitar,0.45330116152763367,0
52,100,0.11818181818181818,132,1,96,DL_Guitar,6,2,DL_Guitar,0.9988419413566589,1
52,100,0.11818181818181818,163,0,96,DL_Guitar,6,2,DL_Guitar,0.1372440606355667,0
52,100,0.1,193,0,96,DL_Guitar,6,2,DL_Guitar,0.15977609157562256,0
64,100,0.2636363636363636,246,0,96,DL_Guitar,6,4,DL_Guitar,0.18644912540912628,0
83,100,0.2590909090909091,392,0,96,DL_Guitar,6,4,DL_Guitar,0.2581707835197449,0
57,100,0.1590909090909091,496,1,97,DL_Guitar,6,3,DL_Guitar,0.9792554974555969,0
54,100,0.4590909090909091,857,1,99,DL_Guitar,6,7,DL_Guitar,0.9792560338973999,0
54,100,0.35909090909090907,373,1,100,DL_Guitar,6,6,DL_Guitar,0.9990229606628418,1
61,100,0.21818181818181817,603,0,100,DL_Guitar,6,3,DL_Guitar,0.36661243438720703,0
61,100,0.4818181818181818,739,0,100,DL_Guitar,6,8,DL_Guitar,0.4532914161682129,0
53,100,0.11818181818181818,282,1,0,DL_Guitar,6,2,DL_Guitar,0.9990057349205017,1
55,100,0.4409090909090909,317,0,0,DL_Guitar,6,7,DL_Guitar,0.23119999468326569,0
58,100,0.13636363636363635,634,1,0,DL_Guitar,6,2,DL_Guitar,0.26591140031814575,0
67,100,0.22272727272727272,695,0,0,DL_Guitar,6,4,DL_Guitar,0.3541892468929291,0
58,100,0.36363636363636365,180,1,1,DL_Guitar,6,6,DL_Guitar,0.9983165264129639,1
53,100,0.3409090909090909,559,1,1,DL_Guitar,6,5,DL_Guitar,0.5445526838302612,0
70,100,0.2818181818181818,330,1,2,DL_Guitar,6,5,DL_Guitar,0.9986500144004822,1
72,100,0.2409090909090909,396,0,2,DL_Guitar,6,4,DL_Guitar,0.08780243247747421,0
70,100,0.2772727272727273,523,0,2,DL_Guitar,6,4,DL_Guitar,0.0918116346001625,0
72,100,0.2772727272727273,590,0,2,DL_Guitar,6,4,DL_Guitar,0.10747698694467545,0
53,100,0.12272727272727273,651,0,2,DL_Guitar,6,2,DL_Guitar,0.12482482939958572,0
70,100,0.8,726,0,2,DL_Guitar,6,13,DL_Guitar,0.179026797413826,0
58,100,0.2590909090909091,21,1,3,DL_Guitar,6,4,DL_Guitar,0.9984880685806274,1
70,100,0.21818181818181817,83,0,3,DL_Guitar,6,3,DL_Guitar,0.06334421783685684,0
70,100,0.3181818181818182,140,0,3,DL_Guitar,6,5,DL_Guitar,0.0577397346496582,0
65,100,0.2772727272727273,470,1,3,DL_Guitar,6,4,DL_Guitar,0.06019892916083336,0
67,100,0.2772727272727273,537,0,3,DL_Guitar,6,4,DL_Guitar,0.06969951093196869,0
65,100,0.2818181818181818,663,0,3,DL_Guitar,6,5,DL_Guitar,0.08189065009355545,0
67,100,0.2409090909090909,730,0,3,DL_Guitar,6,4,DL_Guitar,0.12401460856199265,0
53,100,0.2409090909090909,0,1,4,DL_Guitar,6,4,DL_Guitar,0.9982553124427795,1
53,100,0.6227272727272727,79,0,4,DL_Guitar,6,10,DL_Guitar,0.041286855936050415,0
65,100,0.37727272727272726,215,0,4,DL_Guitar,6,6,DL_Guitar,0.028933482244610786,0
53,100,0.4590909090909091,299,0,4,DL_Guitar,6,7,DL_Guitar,0.021287161856889725,0
53,100,0.11818181818181818,493,0,4,DL_Guitar,6,2,DL_Guitar,0.016744302585721016,0
53,100,0.3181818181818182,527,0,4,DL_Guitar,6,5,DL_Guitar,0.014917094260454178,0
53,100,0.17727272727272728,611,0,4,DL_Guitar,6,3,DL_Guitar,0.016014857217669487,0
65,100,0.4,651,0,4,DL_Guitar,6,6,DL_Guitar,0.02117801643908024,0
53,100,0.2,739,0,4,DL_Guitar,6,3,DL_Guitar,0.031565360724925995,0
65,100,0.4590909090909091,782,0,4,DL_Guitar,6,7,DL_Guitar,0.06005612015724182,0
53,100,0.1409090909090909,493,1,5,DL_Guitar,6,2,DL_Guitar,0.9983165264129639,1
58,100,0.2,524,0,5,DL_Guitar,6,3,DL_Guitar,0.5445566773414612,0
53,100,0.3,255,1,6,DL_Guitar,6,5,DL_Guitar,0.9983165264129639,1
53,100,0.17727272727272728,647,1,6,DL_Guitar,6,3,DL_Guitar,0.5445552468299866,0
58,100,0.5181818181818182,457,1,9,DL_Guitar,6,8,DL_Guitar,0.9792567491531372,0
53,100,0.18181818181818182,783,1,10,DL_Guitar,6,3,DL_Guitar,0.9983164072036743,1
53,100,0.2590909090909091,835,0,10,DL_Guitar,6,4,DL_Guitar,0.5445578098297119,0
63,100,0.1,259,1,13,DL_Guitar,6,2,DL_Guitar,0.9792560338973999,1
53,100,0.11818181818181818,668,1,14,DL_Guitar,6,2,DL_Guitar,0.9792552590370178,0
55,100,0.5636363636363636,290,1,15,DL_Guitar,6,9,DL_Guitar,0.9990057349205017,1
53,100,0.38181818181818183,519,0,15,DL_Guitar,6,6,DL_Guitar,0.23119741678237915,0
53,100,0.18181818181818182,739,0,15,DL_Guitar,6,3,DL_Guitar,0.2659132778644562,0
53,100,0.17727272727272728,801,0,15,DL_Guitar,6,3,DL_Guitar,0.35418516397476196,0
53,100,0.22272727272727272,48,1,16,DL_Guitar,6,4,DL_Guitar,0.9988419413566589,1
53,100,0.11818181818181818,308,1,16,DL_Guitar,6,2,DL_Guitar,0.1372474879026413,0
53,100,0.12272727272727273,343,0,16,DL_Guitar,6,2,DL_Guitar,0.15977641940116882,0
53,100,0.2590909090909091,436,0,16,DL_Guitar,6,4,DL_Guitar,0.1864462047815323,0
53,100,0.2772727272727273,700,1,16,DL_Guitar,6,4,DL_Guitar,0.2581624984741211,0
53,100,0.17727272727272728,546,1,18,DL_Guitar,6,3,DL_Guitar,0.9792563915252686,0
53,100,0.2409090909090909,505,1,19,DL_Guitar,6,4,DL_Guitar,0.9983164072036743,1
53,100,0.2590909090909091,681,0,19,DL_Guitar,6,4,DL_Guitar,0.544553279876709,0
53,100,0.13636363636363635,150,1,20,DL_Guitar,6,2,DL_Guitar,0.9983165264129639,1
58,100,0.2818181818181818,461,1,20,DL_Guitar,6,5,DL_Guitar,0.5445584654808044,0
53,100,0.43636363636363634,810,1,21,DL_Guitar,6,7,DL_Guitar,0.9792559146881104,0
53,100,0.2,162,1,22,DL_Guitar,6,3,DL_Guitar,0.9990229606628418,1
53,100,0.2,299,0,22,DL_Guitar,6,3,DL_Guitar,0.36662036180496216,0
53,100,0.13636363636363635,436,0,22,DL_Guitar,6,2,DL_Guitar,0.4532857835292816,0
58,100,0.11818181818181818,0,1,23,DL_Guitar,6,2,DL_Guitar,0.9990229606628418,1
63,100,0.22272727272727272,100,0,23,DL_Guitar,6,4,DL_Guitar,0.3666211664676666,0
63,100,0.18181818181818182,179,0,23,DL_Guitar,6,3,DL_Guitar,0.45329567790031433,0
53,100,0.1590909090909091,430,1,26,DL_Guitar,6,3,DL_Guitar,0.9986500144004822,1
53,100,0.4818181818181818,474,0,26,DL_Guitar,6,8,DL_Guitar,0.0878012478351593,0
53,100,0.11818181818181818,700,0,26,DL_Guitar,6,2,DL_Guitar,0.09181370586156845,0
53,100,0.1,756,0,26,DL_Guitar,6,2,DL_Guitar,0.10747749358415604,0
53,100,0.2590909090909091,801,0,26,DL_Guitar,6,4,DL_Guitar,0.12482074648141861,0
53,100,0.2818181818181818,870,0,26,DL_Guitar,6,5,DL_Guitar,0.17903004586696625,0
53,100,0.21818181818181817,131,1,27,DL_Guitar,6,3,DL_Guitar,0.9792565107345581,0
63,100,0.33636363636363636,106,1,28,DL_Guitar,6,5,DL_Guitar,0.9990229606628418,1
70,100,0.2772727272727273,260,0,28,DL_Guitar,6,4,DL_Guitar,0.3666256070137024,0
53,100,0.1,426,0,28,DL_Guitar,6,2,DL_Guitar,0.4532957077026367,0
70,100,0.1409090909090909,409,1,29,DL_Guitar,6,2,DL_Guitar,0.9792563915252686,0
53,100,0.2409090909090909,607,1,30,DL_Guitar,6,4,DL_Guitar,0.9983164072036743,1
58,100,0.8409090909090909,866,1,30,DL_Guitar,6,13,DL_Guitar,0.5445595383644104,0
58,100,0.1409090909090909,405,1,31,DL_Guitar,6,2,DL_Guitar,0.9792568683624268,0
58,100,0.11818181818181818,43,1,33,DL_Guitar,6,2,DL_Guitar,0.9988419413566589,1
58,100,1.0,118,0,33,DL_Guitar,6,15,DL_Guitar,0.13724489510059357,0
53,100,0.2,364,1,33,DL_Guitar,6,3,DL_Guitar,0.15977515280246735,0
58,100,0.21818181818181817,616,1,33,DL_Guitar,6,3,DL_Guitar,0.18644218146800995,0
58,100,0.17727272727272728,765,0,33,DL_Guitar,6,3,DL_Guitar,0.2581658363342285,0
53,100,0.2818181818181818,123,1,35,DL_Guitar,6,5,DL_Guitar,0.9792560338973999,0
55,100,0.1409090909090909,483,1,36,DL_Guitar,6,2,DL_Guitar,0.9983165264129639,1
55,100,0.2,818,1,36,DL_Guitar,6,3,DL_Guitar,0.5445558428764343,0
55,100,0.2409090909090909,34,1,37,DL_Guitar,6,4,DL_Guitar,0.9988419413566589,1
55,100,0.1409090909090909,228,0,37,DL_Guitar,6,2,DL_Guitar,0.1372455507516861,0
53,100,0.1590909090909091,616,1,37,DL_Guitar,6,3,DL_Guitar,0.1597720980644226,0
53,100,0.2,678,0,37,DL_Guitar,6,3,DL_Guitar,0.18644286692142487,0
53,100,0.2,866,0,37,DL_Guitar,6,3,DL_Guitar,0.25815850496292114,0
53,100,0.2,114,1,38,DL_Guitar,6,3,DL_Guitar,0.9990229606628418,1
53,100,0.2590909090909091,298,0,38,DL_Guitar,6,4,DL_Guitar,0.3666221499443054,0
53,100,0.32272727272727275,431,0,38,DL_Guitar,6,5,DL_Guitar,0.45329007506370544,0
53,100,0.22272727272727272,518,1,39,DL_Guitar,6,4,DL_Guitar,0.9792571067810059,0
53,100,0.3,13,1,40,DL_Guitar,6,5,DL_Guitar,0.9990229606628418,1
58,100,0.3181818181818182,338,1,40,DL_Guitar,6,5,DL_Guitar,0.3666258752346039,0
58,100,0.38181818181818183,571,1,40,DL_Guitar,6,6,DL_Guitar,0.4532887935638428,0
53,100,0.2409090909090909,813,1,41,DL_Guitar,6,4,DL_Guitar,0.979256272315979,1
53,100,0.2,298,1,42,DL_Guitar,6,3,DL_Guitar,0.9792560338973999,0
53,100,0.4636363636363636,378,1,44,DL_Guitar,6,7,DL_Guitar,0.9983164072036743,1
53,100,0.1409090909090909,483,0,44,DL_Guitar,6,2,DL_Guitar,0.5445556044578552,0
53,100,0.17727272727272728,193,1,46,DL_Guitar,6,3,DL_Guitar,0.9983164072036743,1
53,100,0.3409090909090909,246,0,46,DL_Guitar,6,5,DL_Guitar,0.5445525050163269,0
53,100,0.4590909090909091,396,1,47,DL_Guitar,6,7,DL_Guitar,0.9990229606628418,1
53,100,0.7181818181818181,655,1,47,DL_Guitar,6,11,DL_Guitar,0.366625040769577,0
53,100,0.6818181818181818,839,0,47,DL_Guitar,6,11,DL_Guitar,0.45327919721603394,0
58,100,0.5409090909090909,289,1,48,DL_Guitar,6,9,DL_Guitar,0.9990229606628418,1
53,100,0.17727272727272728,536,1,48,DL_Guitar,6,3,DL_Guitar,0.36662426590919495,0
57,100,0.21818181818181817,791,1,48,DL_Guitar,6,3,DL_Guitar,0.4532826244831085,0
53,100,0.21818181818181817,286,1,49,DL_Guitar,6,3,DL_Guitar,0.9990229606628418,1
54,100,0.11818181818181818,616,1,49,DL_Guitar,6,2,DL_Guitar,0.36662259697914124,0
53,100,0.2590909090909091,678,0,49,DL_Guitar,6,4,DL_Guitar,0.4532909095287323,0
53,100,0.2,128,1,50,DL_Guitar,6,3,DL_Guitar,0.9988419413566589,1
53,100,0.18181818181818182,286,0,50,DL_Guitar,6,3,DL_Guitar,0.13724446296691895,0
53,100,0.11818181818181818,330,0,50,DL_Guitar,6,2,DL_Guitar,0.15976816415786743,0
53,100,0.1590909090909091,370,0,50,DL_Guitar,6,3,DL_Guitar,0.18644170463085175,0
70,100,0.11818181818181818,791,1,50,DL_Guitar,6,2,DL_Guitar,0.2581552267074585,0
58,100,0.1409090909090909,681,1,56,DL_Guitar,6,2,DL_Guitar,0.9792563915252686,0
53,100,0.11818181818181818,396,1,58,DL_Guitar,6,2,DL_Guitar,0.9990057349205017,1
53,100,0.1409090909090909,509,0,58,DL_Guitar,6,2,DL_Guitar,0.23120103776454926,0
53,100,0.37727272727272726,646,0,58,DL_Guitar,6,6,DL_Guitar,0.26591238379478455,0
58,100,0.11818181818181818,858,0,58,DL_Guitar,6,2,DL_Guitar,0.3541928827762604,0
53,100,0.4,150,1,59,DL_Guitar,6,6,DL_Guitar,0.9983165264129639,1
58,100,0.12272727272727273,276,0,59,DL_Guitar,6,2,DL_Guitar,0.5445597767829895,0
63,100,0.4409090909090909,703,1,74,DL_Guitar,6,7,DL_Guitar,0.9983164072036743,1
63,100,0.3409090909090909,826,0,74,DL_Guitar,6,5,DL_Guitar,0.5445611476898193,0
53,100,0.3409090909090909,487,1,75,DL_Guitar,6,5,DL_Guitar,0.9990229606628418,1
53,100,0.12272727272727273,805,1,75,DL_Guitar,6,2,DL_Guitar,0.366622656583786,0
53,100,0.23636363636363636,876,0,75,DL_Guitar,6,4,DL_Guitar,0.4532896876335144,0
58,100,0.1409090909090909,770,1,86,DL_Guitar,6,2,DL_Guitar,0.9792568683624268,0
58,100,0.4590909090909091,132,1,87,DL_Guitar,6,7,DL_Guitar,0.9983165264129639,1
60,100,0.18181818181818182,487,1,87,DL_Guitar,6,3,DL_Guitar,0.5445597767829895,0
53,100,0.1590909090909091,153,1,88,DL_Guitar,6,3,DL_Guitar,0.9988419413566589,1
53,100,0.22272727272727272,202,0,88,DL_Guitar,6,4,DL_Guitar,0.137247696518898,0
53,100,0.3,286,0,88,DL_Guitar,6,5,DL_Guitar,0.15977869927883148,0
62,100,0.33636363636363636,523,1,88,DL_Guitar,6,5,DL_Guitar,0.18644979596138,0
53,100,0.16363636363636364,839,1,88,DL_Guitar,6,3,DL_Guitar,0.25816768407821655,0
58,100,0.5409090909090909,197,1,90,DL_Guitar,6,9,DL_Guitar,0.9990229606628418,1
58,100,0.1,509,1,90,DL_Guitar,6,2,DL_Guitar,0.3666217625141144,0
62,100,0.1590909090909091,810,1,90,DL_Guitar,6,3,DL_Guitar,0.4532894492149353,0
62,100,0.22272727272727272,246,1,91,DL_Guitar,6,4,DL_Guitar,0.9983165264129639,1
53,100,1.040909090909091,703,1,91,DL_Guitar,6,15,DL_Guitar,0.5445559024810791,0
53,100,0.18181818181818182,289,1,92,DL_Guitar,6,3,DL_Guitar,0.9983164072036743,1
53,100,0.4,430,0,92,DL_Guitar,6,6,DL_Guitar,0.5445556044578552,0
60,100,0.33636363636363636,348,1,1,DL_Guitar,6,5,DL_Guitar,0.9988420605659485,1
55,100,0.1409090909090909,431,0,1,DL_Guitar,6,2,DL_Guitar,0.1372472047805786,0
60,100,0.1,487,0,1,DL_Guitar,6,2,DL_Guitar,0.15977968275547028,0
52,100,0.2,590,0,1,DL_Guitar,6,3,DL_Guitar,0.18644751608371735,0
55,100,0.38181818181818183,849,1,1,DL_Guitar,6,6,DL_Guitar,0.2581630051136017,0
53,100,0.11818181818181818,712,1,3,DL_Guitar,6,2,DL_Guitar,0.9792565107345581,0
53,100,0.1409090909090909,74,1,4,DL_Guitar,6,2,DL_Guitar,0.9990230798721313,1
55,100,0.3,114,0,4,DL_Guitar,6,5,DL_Guitar,0.36662712693214417,0
60,100,0.37727272727272726,678,1,4,DL_Guitar,6,6,DL_Guitar,0.45329007506370544,0
60,100,0.3181818181818182,220,1,5,DL_Guitar,6,5,DL_Guitar,0.9986500144004822,1
60,100,0.1409090909090909,311,0,5,DL_Guitar,6,2,DL_Guitar,0.08780720829963684,0
57,100,0.3,360,0,5,DL_Guitar,6,5,DL_Guitar,0.09181561321020126,0
55,100,0.2,431,0,5,DL_Guitar,6,3,DL_Guitar,0.10748343914747238,0
55,100,0.2409090909090909,716,1,5,DL_Guitar,6,4,DL_Guitar,0.1248275488615036,0
55,100,0.3409090909090909,774,0,5,DL_Guitar,6,5,DL_Guitar,0.17903867363929749,0
55,100,0.6227272727272727,465,1,6,DL_Guitar,6,10,DL_Guitar,0.9983165264129639,1
57,100,0.3409090909090909,606,0,6,DL_Guitar,6,5,DL_Guitar,0.5445601940155029,0
60,100,0.1,40,1,7,DL_Guitar,6,2,DL_Guitar,0.9990057349205017,1
55,100,0.2818181818181818,79,0,7,DL_Guitar,6,5,DL_Guitar,0.23120282590389252,0
59,100,0.4818181818181818,703,1,7,DL_Guitar,6,8,DL_Guitar,0.26592153310775757,0
55,100,0.2772727272727273,844,0,7,DL_Guitar,6,4,DL_Guitar,0.35418635606765747,0
55,100,0.3,333,1,8,DL_Guitar,6,5,DL_Guitar,0.9990229606628418,1
55,100,0.17727272727272728,470,0,8,DL_Guitar,6,3,DL_Guitar,0.3666175901889801,0
54,100,0.1,656,0,8,DL_Guitar,6,2,DL_Guitar,0.4532877206802368,0
60,100,0.1409090909090909,65,1,9,DL_Guitar,6,2,DL_Guitar,0.9990229606628418,1
60,100,0.2818181818181818,135,0,9,DL_Guitar,6,5,DL_Guitar,0.36662745475769043,0
57,100,0.3409090909090909,211,0,9,DL_Guitar,6,5,DL_Guitar,0.45328396558761597,0
60,100,0.2,677,1,10,DL_Guitar,6,3,DL_Guitar,0.9983165264129639,1
55,100,0.4818181818181818,818,0,10,DL_Guitar,6,8,DL_Guitar,0.5445531606674194,0
54,100,0.2818181818181818,355,1,11,DL_Guitar,6,5,DL_Guitar,0.9792568683624268,0
55,100,0.3,180,1,12,DL_Guitar,6,5,DL_Guitar,0.9984880685806274,1
55,100,0.2,250,0,12,DL_Guitar,6,3,DL_Guitar,0.0633460283279419,0
52,100,0.7181818181818181,360,0,12,DL_Guitar,6,11,DL_Guitar,0.05774237588047981,0
55,100,0.2818181818181818,527,0,12,DL_Guitar,6,5,DL_Guitar,0.06020257994532585,0
57,100,0.6,594,0,12,DL_Guitar,6,10,DL_Guitar,0.06970337778329849,0
52,100,0.3,739,0,12,DL_Guitar,6,5,DL_Guitar,0.0818977952003479,0
55,100,0.9409090909090909,804,0,12,DL_Guitar,6,15,DL_Guitar,0.12402024120092392,0
52,100,0.3,140,1,13,DL_Guitar,6,5,DL_Guitar,0.9990057349205017,1
55,100,1.2818181818181817,211,0,13,DL_Guitar,6,15,DL_Guitar,0.23120205104351044,0
55,100,0.1409090909090909,505,1,13,DL_Guitar,6,2,DL_Guitar,0.26592445373535156,0
60,100,0.1590909090909091,783,1,13,DL_Guitar,6,3,DL_Guitar,0.3541933596134186,0
54,100,0.21818181818181817,175,1,14,DL_Guitar,6,3,DL_Guitar,0.9988419413566589,1
62,100,0.1,338,0,14,DL_Guitar,6,2,DL_Guitar,0.1372448056936264,0
52,100,0.4409090909090909,448,0,14,DL_Guitar,6,7,DL_Guitar,0.15977637469768524,0
52,100,0.3409090909090909,584,0,14,DL_Guitar,6,5,DL_Guitar,0.18645353615283966,0
59,100,0.6,663,0,14,DL_Guitar,6,10,DL_Guitar,0.2581675946712494,0
57,100,0.32272727272727275,409,1,15,DL_Guitar,6,5,DL_Guitar,0.9983164072036743,1
59,100,0.3181818181818182,479,0,15,DL_Guitar,6,5,DL_Guitar,0.5445569753646851,0
57,100,0.3,656,1,16,DL_Guitar,6,5,DL_Guitar,0.9983165264129639,1
59,100,0.33636363636363636,721,0,16,DL_Guitar,6,5,DL_Guitar,0.5445589423179626,0
55,100,0.1409090909090909,268,1,17,DL_Guitar,6,2,DL_Guitar,0.9986500144004822,1
57,100,0.6,343,0,17,DL_Guitar,6,10,DL_Guitar,0.08780266344547272,0
59,100,0.6,480,0,17,DL_Guitar,6,10,DL_Guitar,0.09181652218103409,0
62,100,0.4,611,0,17,DL_Guitar,6,6,DL_Guitar,0.10747767239809036,0
62,100,0.1409090909090909,804,0,17,DL_Guitar,6,2,DL_Guitar,0.12482970207929611,0
62,100,0.18181818181818182,870,0,17,DL_Guitar,6,3,DL_Guitar,0.17903965711593628,0
55,100,0.1590909090909091,119,1,18,DL_Guitar,6,3,DL_Guitar,0.9988419413566589,1
62,100,0.21818181818181817,237,0,18,DL_Guitar,6,3,DL_Guitar,0.13725170493125916,0
67,100,0.11818181818181818,326,0,18,DL_Guitar,6,2,DL_Guitar,0.15978172421455383,0
55,100,0.3,356,0,18,DL_Guitar,6,5,DL_Guitar,0.18645118176937103,0
79,100,0.12272727272727273,422,0,18,DL_Guitar,6,2,DL_Guitar,0.2581632733345032,0
55,100,0.8409090909090909,540,1,19,DL_Guitar,6,13,DL_Guitar,0.9792561531066895,0
62,100,0.6636363636363637,223,1,20,DL_Guitar,6,11,DL_Guitar,0.9986500144004822,1
57,100,0.2772727272727273,413,0,20,DL_Guitar,6,4,DL_Guitar,0.0878070741891861,0
62,100,0.1409090909090909,474,0,20,DL_Guitar,6,2,DL_Guitar,0.09181923419237137,0
62,100,0.1409090909090909,686,0,20,DL_Guitar,6,2,DL_Guitar,0.10748782753944397,0
55,100,0.3,725,0,20,DL_Guitar,6,5,DL_Guitar,0.1248372495174408,0
52,100,0.5409090909090909,814,0,20,DL_Guitar,6,9,DL_Guitar,0.17904694378376007,0
55,100,0.6409090909090909,57,1,21,DL_Guitar,6,10,DL_Guitar,0.9983736276626587,1
55,100,0.18181818181818182,289,1,21,DL_Guitar,6,3,DL_Guitar,0.051061730831861496,0
55,100,0.38181818181818183,333,0,21,DL_Guitar,6,6,DL_Guitar,0.041301429271698,0
55,100,0.1409090909090909,426,0,21,DL_Guitar,6,2,DL_Guitar,0.03738517314195633,0
55,100,0.12272727272727273,466,0,21,DL_Guitar,6,2,DL_Guitar,0.03832782432436943,0
54,100,0.11818181818181818,756,1,21,DL_Guitar,6,2,DL_Guitar,0.04474902153015137,0
62,100,0.1,787,0,21,DL_Guitar,6,2,DL_Guitar,0.05522540211677551,0
54,100,0.2590909090909091,810,0,21,DL_Guitar,6,4,DL_Guitar,0.09026137739419937,0
55,100,0.3181818181818182,83,1,22,DL_Guitar,6,5,DL_Guitar,0.9990230798721313,1
55,100,0.4,440,1,22,DL_Guitar,6,6,DL_Guitar,0.3666287362575531,0
55,100,0.2818181818181818,642,0,22,DL_Guitar,6,5,DL_Guitar,0.45328855514526367,0
62,100,0.1,21,1,23,DL_Guitar,6,2,DL_Guitar,0.9986500144004822,1
62,100,0.1,237,0,23,DL_Guitar,6,2,DL_Guitar,0.08780740201473236,0
55,100,0.3409090909090909,330,0,23,DL_Guitar,6,5,DL_Guitar,0.0918181985616684,0
64,100,0.5772727272727273,426,0,23,DL_Guitar,6,9,DL_Guitar,0.10748554766178131,0
55,100,0.2409090909090909,752,1,23,DL_Guitar,6,4,DL_Guitar,0.12482775747776031,0
52,100,0.5,814,0,23,DL_Guitar,6,8,DL_Guitar,0.17903780937194824,0
62,100,0.2,220,1,24,DL_Guitar,6,3,DL_Guitar,0.9990057349205017,1
55,100,0.2772727272727273,567,1,24,DL_Guitar,6,4,DL_Guitar,0.23121556639671326,0
55,100,0.3,642,0,24,DL_Guitar,6,5,DL_Guitar,0.26592808961868286,0
62,100,0.5227272727272727,796,0,24,DL_Guitar,6,8,DL_Guitar,0.3542040288448334,0
55,100,0.6,44,1,25,DL_Guitar,6,10,DL_Guitar,0.9983165264129639,1
62,100,0.32272727272727275,179,0,25,DL_Guitar,6,5,DL_Guitar,0.544563889503479,0
64,100,0.2818181818181818,3,1,26,DL_Guitar,6,5,DL_Guitar,0.9983736276626587,1
52,100,0.3181818181818182,75,0,26,DL_Guitar,6,5,DL_Guitar,0.05106054246425629,0
55,100,0.5590909090909091,144,0,26,DL_Guitar,6,9,DL_Guitar,0.04130449891090393,0
55,100,1.1,281,0,26,DL_Guitar,6,15,DL_Guitar,0.03738563507795334,0
54,100,0.1,540,1,26,DL_Guitar,6,2,DL_Guitar,0.038330499082803726,0
54,100,0.11818181818181818,602,0,26,DL_Guitar,6,2,DL_Guitar,0.04475032910704613,0
54,100,0.6409090909090909,691,0,26,DL_Guitar,6,10,DL_Guitar,0.055227670818567276,0
62,100,0.1409090909090909,862,0,26,DL_Guitar,6,2,DL_Guitar,0.09026403725147247,0
62,100,0.43636363636363634,17,1,27,DL_Guitar,6,7,DL_Guitar,0.9988419413566589,1
54,100,0.22272727272727272,113,0,27,DL_Guitar,6,4,DL_Guitar,0.1372535526752472,0
55,100,0.41818181818181815,162,0,27,DL_Guitar,6,7,DL_Guitar,0.15978188812732697,0
55,100,0.5181818181818182,413,1,27,DL_Guitar,6,8,DL_Guitar,0.18645432591438293,0
55,100,0.11818181818181818,756,1,27,DL_Guitar,6,2,DL_Guitar,0.2581706941127777,0
62,100,0.12272727272727273,179,1,28,DL_Guitar,6,2,DL_Guitar,0.9983165264129639,1
55,100,1.4181818181818182,418,1,28,DL_Guitar,6,15,DL_Guitar,0.5445539355278015,0
62,100,0.1,285,1,29,DL_Guitar,6,2,DL_Guitar,0.9990229606628418,1
69,100,0.42272727272727273,532,1,29,DL_Guitar,6,7,DL_Guitar,0.3666251003742218,0
69,100,0.2590909090909091,633,0,29,DL_Guitar,6,4,DL_Guitar,0.4532965123653412,0
67,100,1.2181818181818183,66,1,39,DL_Guitar,6,15,DL_Guitar,0.9988419413566589,1
67,100,0.3,356,1,39,DL_Guitar,6,5,DL_Guitar,0.13725119829177856,0
67,100,0.7363636363636363,480,0,39,DL_Guitar,6,12,DL_Guitar,0.15978173911571503,0
67,100,0.8,678,0,39,DL_Guitar,6,13,DL_Guitar,0.18644548952579498,0
67,100,0.18181818181818182,858,0,39,DL_Guitar,6,3,DL_Guitar,0.25815609097480774,0
55,100,0.6409090909090909,316,1,40,DL_Guitar,6,10,DL_Guitar,0.9792559146881104,0
62,100,0.5818181818181818,153,1,41,DL_Guitar,6,9,DL_Guitar,0.9990057349205017,1
52,100,1.2,286,0,41,DL_Guitar,6,15,DL_Guitar,0.23120760917663574,0
52,100,0.18181818181818182,619,1,41,DL_Guitar,6,3,DL_Guitar,0.2659244239330292,0
52,100,0.4818181818181818,664,0,41,DL_Guitar,6,8,DL_Guitar,0.3542070686817169,0
55,100,0.35909090909090907,343,1,43,DL_Guitar,6,6,DL_Guitar,0.9990230798721313,1
55,100,0.5227272727272727,453,0,43,DL_Guitar,6,8,DL_Guitar,0.3666248619556427,0
62,100,0.5409090909090909,641,0,43,DL_Guitar,6,9,DL_Guitar,0.45328831672668457,0
57,100,0.1409090909090909,251,1,44,DL_Guitar,6,2,DL_Guitar,0.9990229606628418,1
69,100,0.1409090909090909,453,0,44,DL_Guitar,6,2,DL_Guitar,0.36662209033966064,0
69,100,0.1,606,0,44,DL_Guitar,6,2,DL_Guitar,0.4532944858074188,0
59,100,0.12272727272727273,254,1,45,DL_Guitar,6,2,DL_Guitar,0.9990057349205017,1
55,100,0.5181818181818182,303,0,45,DL_Guitar,6,8,DL_Guitar,0.2312019318342209,0
67,100,0.1590909090909091,440,0,45,DL_Guitar,6,3,DL_Guitar,0.2659294009208679,0
62,100,0.2409090909090909,641,0,45,DL_Guitar,6,4,DL_Guitar,0.3541931211948395,0
52,100,1.9181818181818182,383,1,46,DL_Guitar,6,15,DL_Guitar,0.9792556166648865,0
62,100,0.1409090909090909,21,1,47,DL_Guitar,6,2,DL_Guitar,0.9990057349205017,1
55,100,0.17727272727272728,348,1,47,DL_Guitar,6,3,DL_Guitar,0.23120778799057007,0
55,100,1.018181818181818,391,0,47,DL_Guitar,6,15,DL_Guitar,0.2659132480621338,0
60,100,0.1590909090909091,813,1,47,DL_Guitar,6,3,DL_Guitar,0.3541991710662842,0
62,100,0.23636363636363636,238,1,48,DL_Guitar,6,4,DL_Guitar,0.9983164072036743,1
62,100,0.4,871,1,48,DL_Guitar,6,6,DL_Guitar,0.544564962387085,0
62,100,1.6,101,1,49,DL_Guitar,6,15,DL_Guitar,0.9990229606628418,1
67,100,0.2590909090909091,453,1,49,DL_Guitar,6,4,DL_Guitar,0.36663079261779785,0
62,100,0.18181818181818182,791,1,49,DL_Guitar,6,3,DL_Guitar,0.4532943069934845,0
62,100,1.040909090909091,0,1,50,DL_Guitar,6,15,DL_Guitar,0.9983164072036743,1
74,100,0.12272727272727273,254,1,50,DL_Guitar,6,2,DL_Guitar,0.5445656776428223,0
67,100,0.7818181818181819,220,1,76,DL_Guitar,6,13,DL_Guitar,0.9990229606628418,1
67,100,0.32272727272727275,422,0,76,DL_Guitar,6,5,DL_Guitar,0.36662259697914124,0
67,100,0.4,832,1,76,DL_Guitar,6,6,DL_Guitar,0.4532906115055084,0
62,100,0.1,43,1,77,DL_Guitar,6,2,DL_Guitar,0.9986500144004822,1
62,100,0.35909090909090907,150,0,77,DL_Guitar,6,6,DL_Guitar,0.08780686557292938,0
55,100,0.11818181818181818,360,0,77,DL_Guitar,6,2,DL_Guitar,0.091816246509552,0
55,100,0.17727272727272728,392,0,77,DL_Guitar,6,3,DL_Guitar,0.10748343914747238,0
62,100,0.3409090909090909,690,1,77,DL_Guitar,6,5,DL_Guitar,0.12483152002096176,0
67,100,0.7818181818181819,770,0,77,DL_Guitar,6,13,DL_Guitar,0.17904093861579895,0
62,100,0.32272727272727275,69,1,78,DL_Guitar,6,5,DL_Guitar,0.9990057349205017,1
62,100,0.16363636363636364,422,1,78,DL_Guitar,6,3,DL_Guitar,0.23121120035648346,0
55,100,0.4590909090909091,475,0,78,DL_Guitar,6,7,DL_Guitar,0.2659265100955963,0
55,100,0.5227272727272727,597,0,78,DL_Guitar,6,8,DL_Guitar,0.35420113801956177,0
55,100,0.1590909090909091,22,1,79,DL_Guitar,6,3,DL_Guitar,0.9986500144004822,1
52,100,0.13636363636363635,62,0,79,DL_Guitar,6,2,DL_Guitar,0.08780785650014877,0
55,100,0.759090909090909,110,0,79,DL_Guitar,6,12,DL_Guitar,0.09181644767522812,0
55,100,0.5,286,0,79,DL_Guitar,6,8,DL_Guitar,0.10748285055160522,0
55,100,0.2772727272727273,480,0,79,DL_Guitar,6,4,DL_Guitar,0.12482832372188568,0
55,100,0.2636363636363636,839,1,79,DL_Guitar,6,4,DL_Guitar,0.17902696132659912,0
55,100,0.16363636363636364,47,1,80,DL_Guitar,6,3,DL_Guitar,0.9986500144004822,1
62,100,0.9409090909090909,233,0,80,DL_Guitar,6,15,DL_Guitar,0.08780422806739807,0
67,100,0.3,453,0,80,DL_Guitar,6,5,DL_Guitar,0.09181545674800873,0
62,100,0.5181818181818182,523,0,80,DL_Guitar,6,8,DL_Guitar,0.10747995972633362,0
67,100,0.1409090909090909,660,0,80,DL_Guitar,6,2,DL_Guitar,0.12483303248882294,0
62,100,0.13636363636363635,810,0,80,DL_Guitar,6,2,DL_Guitar,0.17903994023799896,0
55,100,0.3181818181818182,40,1,81,DL_Guitar,6,5,DL_Guitar,0.9990230798721313,1
55,100,0.2772727272727273,470,1,81,DL_Guitar,6,4,DL_Guitar,0.3666302561759949,0
55,100,1.3590909090909091,590,0,81,DL_Guitar,6,15,DL_Guitar,0.4532744586467743,0
55,100,0.3,87,1,82,DL_Guitar,6,5,DL_Guitar,0.9986500144004822,1
62,100,0.5,312,0,82,DL_Guitar,6,8,DL_Guitar,0.08780483901500702,0
62,100,0.5590909090909091,436,0,82,DL_Guitar,6,9,DL_Guitar,0.09181670844554901,0
62,100,0.2,722,1,82,DL_Guitar,6,3,DL_Guitar,0.10748518258333206,0
62,100,0.13636363636363635,810,0,82,DL_Guitar,6,2,DL_Guitar,0.12483431398868561,0
57,100,0.2409090909090909,839,0,82,DL_Guitar,6,4,DL_Guitar,0.17904186248779297,0
67,100,0.4818181818181818,13,1,83,DL_Guitar,6,8,DL_Guitar,0.9990229606628418,1
57,100,1.3227272727272728,386,1,83,DL_Guitar,6,15,DL_Guitar,0.3666176497936249,0
62,100,0.13636363636363635,787,1,83,DL_Guitar,6,2,DL_Guitar,0.4532985985279083,0
59,100,0.37727272727272726,83,1,84,DL_Guitar,6,6,DL_Guitar,0.9988419413566589,1
59,100,0.2590909090909091,303,0,84,DL_Guitar,6,4,DL_Guitar,0.1372452974319458,0
59,100,0.2772727272727273,404,0,84,DL_Guitar,6,4,DL_Guitar,0.15977707505226135,0
59,100,0.41818181818181815,502,0,84,DL_Guitar,6,7,DL_Guitar,0.18644724786281586,0
62,100,0.9,716,0,84,DL_Guitar,6,14,DL_Guitar,0.2581614553928375,0
55,100,0.17727272727272728,127,1,85,DL_Guitar,6,3,DL_Guitar,0.9990229606628418,1
57,100,0.2590909090909091,616,1,85,DL_Guitar,6,4,DL_Guitar,0.36662548780441284,0
57,100,0.17727272727272728,700,0,85,DL_Guitar,6,3,DL_Guitar,0.45329993963241577,0
55,100,0.5409090909090909,0,1,86,DL_Guitar,6,9,DL_Guitar,0.9984880685806274,1
67,100,0.2,123,0,86,DL_Guitar,6,3,DL_Guitar,0.06334588676691055,0
67,100,0.8363636363636363,172,0,86,DL_Guitar,6,13,DL_Guitar,0.057742271572351456,0
55,100,0.1409090909090909,377,0,86,DL_Guitar,6,2,DL_Guitar,0.06020449846982956,0
55,100,1.6181818181818182,449,0,86,DL_Guitar,6,15,DL_Guitar,0.06969975680112839,0
67,100,0.1590909090909091,805,1,86,DL_Guitar,6,3,DL_Guitar,0.08189671486616135,0
55,100,0.6,853,0,86,DL_Guitar,6,10,DL_Guitar,0.12401777505874634,0
67,100,0.3,242,1,87,DL_Guitar,6,5,DL_Guitar,0.9983165264129639,1
67,100,0.2590909090909091,475,1,87,DL_Guitar,6,4,DL_Guitar,0.5445540547370911,0
57,100,0.5818181818181818,220,1,88,DL_Guitar,6,9,DL_Guitar,0.9983164072036743,1
55,100,0.13636363636363635,612,1,88,DL_Guitar,6,2,DL_Guitar,0.5445579886436462,0
59,100,0.2590909090909091,106,1,89,DL_Guitar,6,4,DL_Guitar,0.9990229606628418,1
59,100,0.6,176,0,89,DL_Guitar,6,10,DL_Guitar,0.36661496758461,0
59,100,0.1590909090909091,320,0,89,DL_Guitar,6,3,DL_Guitar,0.4532982110977173,0
55,100,0.5181818181818182,537,1,0,DL_Warm_Pop_Rock_Guitar,6,8,DL_Warm_Pop_Rock_Guitar,0.9983164072036743,1
55,100,0.6590909090909091,845,1,0,DL_Warm_Pop_Rock_Guitar,6,11,DL_Warm_Pop_Rock_Guitar,0.5445489883422852,0
62,100,0.4636363636363636,576,1,1,DL_Warm_Pop_Rock_Guitar,6,7,DL_Warm_Pop_Rock_Guitar,0.9983165264129639,1
52,100,0.740909090909091,862,1,1,DL_Warm_Pop_Rock_Guitar,6,12,DL_Warm_Pop_Rock_Guitar,0.5445600748062134,0
55,100,0.1,629,1,2,DL_Warm_Pop_Rock_Guitar,6,2,DL_Warm_Pop_Rock_Guitar,0.9983165264129639,1
55,100,0.21818181818181817,660,0,2,DL_Warm_Pop_Rock_Guitar,6,3,DL_Warm_Pop_Rock_Guitar,0.544552206993103,0
55,100,0.2,91,1,3,DL_Warm_Pop_Rock_Guitar,6,3,DL_Warm_Pop_Rock_Guitar,0.9990229606628418,1
52,100,0.6772727272727272,590,1,3,DL_Warm_Pop_Rock_Guitar,6,11,DL_Warm_Pop_Rock_Guitar,0.36662209033966064,0
52,100,0.12272727272727273,761,0,3,DL_Warm_Pop_Rock_Guitar,6,2,DL_Warm_Pop_Rock_Guitar,0.4532889127731323,0
52,100,0.740909090909091,35,1,4,DL_Warm_Pop_Rock_Guitar,6,12,DL_Warm_Pop_Rock_Guitar,0.9983165264129639,1
52,100,0.2,330,1,4,DL_Warm_Pop_Rock_Guitar,6,3,DL_Warm_Pop_Rock_Guitar,0.5445605516433716,0
64,100,0.2,8,1,5,DL_Warm_Pop_Rock_Guitar,6,3,DL_Warm_Pop_Rock_Guitar,0.9988420605659485,1
55,100,0.5636363636363636,135,0,5,DL_Warm_Pop_Rock_Guitar,6,9,DL_Warm_Pop_Rock_Guitar,0.1372513622045517,0
55,100,0.2818181818181818,330,0,5,DL_Warm_Pop_Rock_Guitar,6,5,DL_Warm_Pop_Rock_Guitar,0.15978199243545532,0
67,100,0.17727272727272728,458,0,5,DL_Warm_Pop_Rock_Guitar,6,3,DL_Warm_Pop_Rock_Guitar,0.18644979596138,0
57,100,0.17727272727272728,823,1,5,DL_Warm_Pop_Rock_Guitar,6,3,DL_Warm_Pop_Rock_Guitar,0.2581610381603241,0
62,100,0.1409090909090909,56,1,6,DL_Warm_Pop_Rock_Guitar,6,2,DL_Warm_Pop_Rock_Guitar,0.9988419413566589,1
62,100,0.2409090909090909,132,0,6,DL_Warm_Pop_Rock_Guitar,6,4,DL_Warm_Pop_Rock_Guitar,0.1372564136981964,0
62,100,0.9818181818181818,330,0,6,DL_Warm_Pop_Rock_Guitar,6,15,DL_Warm_Pop_Rock_Guitar,0.15978704392910004,0
62,100,0.1409090909090909,581,1,6,DL_Warm_Pop_Rock_Guitar,6,2,DL_Warm_Pop_Rock_Guitar,0.18646562099456787,0
57,100,0.6409090909090909,691,0,6,DL_Warm_Pop_Rock_Guitar,6,10,DL_Warm_Pop_Rock_Guitar,0.25818219780921936,0
62,100,0.38181818181818183,606,1,7,DL_Warm_Pop_Rock_Guitar,6,6,DL_Warm_Pop_Rock_Guitar,0.9983165264129639,1
52,100,0.2818181818181818,826,0,7,DL_Warm_Pop_Rock_Guitar,6,5,DL_Warm_Pop_Rock_Guitar,0.5445625185966492,0
52,100,0.42272727272727273,245,1,8,DL_Warm_Pop_Rock_Guitar,6,7,DL_Warm_Pop_Rock_Guitar,0.9792567491531372,0
60,100,0.1590909090909091,140,1,9,DL_Warm_Pop_Rock_Guitar,6,3,DL_Warm_Pop_Rock_Guitar,0.9988419413566589,1
62,100,0.5409090909090909,185,0,9,DL_Warm_Pop_Rock_Guitar,6,9,DL_Warm_Pop_Rock_Guitar,0.1372510939836502,0
62,100,0.4,347,0,9,DL_Warm_Pop_Rock_Guitar,6,6,DL_Warm_Pop_Rock_Guitar,0.15978693962097168,0
62,100,0.11818181818181818,524,0,9,DL_Warm_Pop_Rock_Guitar,6,2,DL_Warm_Pop_Rock_Guitar,0.18646526336669922,0
62,100,0.8590909090909091,563,0,9,DL_Warm_Pop_Rock_Guitar,6,14,DL_Warm_Pop_Rock_Guitar,0.2581723630428314,0
57,100,0.17727272727272728,171,1,10,DL_Warm_Pop_Rock_Guitar,6,3,DL_Warm_Pop_Rock_Guitar,0.979256272315979,0
55,100,0.1,211,1,11,DL_Warm_Pop_Rock_Guitar,6,2,DL_Warm_Pop_Rock_Guitar,0.9983164072036743,1
62,100,0.32272727272727275,519,1,11,DL_Warm_Pop_Rock_Guitar,6,5,DL_Warm_Pop_Rock_Guitar,0.5445623397827148,0
62,100,1.059090909090909,536,1,12,DL_Warm_Pop_Rock_Guitar,6,15,DL_Warm_Pop_Rock_Guitar,0.9792558550834656,0
55,100,0.2409090909090909,321,1,13,DL_Warm_Pop_Rock_Guitar,6,4,DL_Warm_Pop_Rock_Guitar,0.9990057349205017,1
62,100,0.1,479,0,13,DL_Warm_Pop_Rock_Guitar,6,2,DL_Warm_Pop_Rock_Guitar,0.23120838403701782,0
55,100,0.4590909090909091,694,0,13,DL_Warm_Pop_Rock_Guitar,6,7,DL_Warm_Pop_Rock_Guitar,0.26593151688575745,0
57,100,0.2590909090909091,814,0,13,DL_Warm_Pop_Rock_Guitar,6,4,DL_Warm_Pop_Rock_Guitar,0.35419604182243347,0
57,100,0.740909090909091,3,1,14,DL_Warm_Pop_Rock_Guitar,6,12,DL_Warm_Pop_Rock_Guitar,0.9988419413566589,1
57,100,0.6,194,0,14,DL_Warm_Pop_Rock_Guitar,6,10,DL_Warm_Pop_Rock_Guitar,0.1372509002685547,0
57,100,1.3,347,0,14,DL_Warm_Pop_Rock_Guitar,6,15,DL_Warm_Pop_Rock_Guitar,0.15977460145950317,0
57,100,0.5772727272727273,691,1,14,DL_Warm_Pop_Rock_Guitar,6,9,DL_Warm_Pop_Rock_Guitar,0.18645386397838593,0
57,100,0.2,862,0,14,DL_Warm_Pop_Rock_Guitar,6,3,DL_Warm_Pop_Rock_Guitar,0.2581654191017151,0
55,100,0.38181818181818183,123,1,15,DL_Warm_Pop_Rock_Guitar,6,6,DL_Warm_Pop_Rock_Guitar,0.9986500144004822,1
55,100,0.36363636363636365,268,0,15,DL_Warm_Pop_Rock_Guitar,6,6,DL_Warm_Pop_Rock_Guitar,0.08780384808778763,0
52,100,0.1,383,0,15,DL_Warm_Pop_Rock_Guitar,6,2,DL_Warm_Pop_Rock_Guitar,0.09181326627731323,0
52,100,0.2818181818181818,550,0,15,DL_Warm_Pop_Rock_Guitar,6,5,DL_Warm_Pop_Rock_Guitar,0.10747859627008438,0
55,100,0.22272727272727272,651,0,15,DL_Warm_Pop_Rock_Guitar,6,4,DL_Warm_Pop_Rock_Guitar,0.12482918053865433,0
55,100,0.1,761,0,15,DL_Warm_Pop_Rock_Guitar,6,2,DL_Warm_Pop_Rock_Guitar,0.17903080582618713,0
62,100,0.5772727272727273,391,1,16,DL_Warm_Pop_Rock_Guitar,6,9,DL_Warm_Pop_Rock_Guitar,0.9990230798721313,1
57,100,0.1,712,1,16,DL_Warm_Pop_Rock_Guitar,6,2,DL_Warm_Pop_Rock_Guitar,0.36663201451301575,0
57,100,0.2772727272727273,756,0,16,DL_Warm_Pop_Rock_Guitar,6,4,DL_Warm_Pop_Rock_Guitar,0.4532991945743561,0
52,100,0.2409090909090909,96,1,17,DL_Warm_Pop_Rock_Guitar,6,4,DL_Warm_Pop_Rock_Guitar,0.9983165264129639,1
64,100,0.4,250,0,17,DL_Warm_Pop_Rock_Guitar,6,6,DL_Warm_Pop_Rock_Guitar,0.5445592999458313,0
62,100,0.18181818181818182,528,1,18,DL_Warm_Pop_Rock_Guitar,6,3,DL_Warm_Pop_Rock_Guitar,0.9990057349205017,1
62,100,0.2,660,0,18,DL_Warm_Pop_Rock_Guitar,6,3,DL_Warm_Pop_Rock_Guitar,0.2312125563621521,0
62,100,0.3,748,0,18,DL_Warm_Pop_Rock_Guitar,6,5,DL_Warm_Pop_Rock_Guitar,0.26593080163002014,0
62,100,0.5818181818181818,839,0,18,DL_Warm_Pop_Rock_Guitar,6,9,DL_Warm_Pop_Rock_Guitar,0.35420969128608704,0
62,100,0.5590909090909091,154,1,19,DL_Warm_Pop_Rock_Guitar,6,9,DL_Warm_Pop_Rock_Guitar,0.9792556166648865,0
62,100,0.1590909090909091,519,1,21,DL_Warm_Pop_Rock_Guitar,6,3,DL_Warm_Pop_Rock_Guitar,0.9990057349205017,1
52,100,0.35909090909090907,567,0,21,DL_Warm_Pop_Rock_Guitar,6,6,DL_Warm_Pop_Rock_Guitar,0.23120485246181488,0
52,100,0.1,677,0,21,DL_Warm_Pop_Rock_Guitar,6,2,DL_Warm_Pop_Rock_Guitar,0.2659241855144501,0
62,100,0.5,810,0,21,DL_Warm_Pop_Rock_Guitar,6,8,DL_Warm_Pop_Rock_Guitar,0.3542037606239319,0
62,100,0.1409090909090909,57,1,22,DL_Warm_Pop_Rock_Guitar,6,2,DL_Warm_Pop_Rock_Guitar,0.9990057349205017,1
62,100,0.4818181818181818,92,0,22,DL_Warm_Pop_Rock_Guitar,6,8,DL_Warm_Pop_Rock_Guitar,0.23121462762355804,0
55,100,0.3181818181818182,360,1,22,DL_Warm_Pop_Rock_Guitar,6,5,DL_Warm_Pop_Rock_Guitar,0.265924334526062,0
60,100,0.11818181818181818,638,1,22,DL_Warm_Pop_Rock_Guitar,6,2,DL_Warm_Pop_Rock_Guitar,0.3542083501815796,0
62,100,0.5,158,1,23,DL_Warm_Pop_Rock_Guitar,6,8,DL_Warm_Pop_Rock_Guitar,0.9988419413566589,1
62,100,0.2409090909090909,343,0,23,DL_Warm_Pop_Rock_Guitar,6,4,DL_Warm_Pop_Rock_Guitar,0.13725124299526215,0
55,100,0.1,443,0,23,DL_Warm_Pop_Rock_Guitar,6,2,DL_Warm_Pop_Rock_Guitar,0.1597866415977478,0
62,100,0.11818181818181818,501,0,23,DL_Warm_Pop_Rock_Guitar,6,2,DL_Warm_Pop_Rock_Guitar,0.1864539235830307,0
62,100,0.1409090909090909,607,0,23,DL_Warm_Pop_Rock_Guitar,6,2,DL_Warm_Pop_Rock_Guitar,0.2581767141819,0
55,100,0.32272727272727275,92,1,24,DL_Warm_Pop_Rock_Guitar,6,5,DL_Warm_Pop_Rock_Guitar,0.9990057349205017,1
62,100,0.2818181818181818,461,1,24,DL_Warm_Pop_Rock_Guitar,6,5,DL_Warm_Pop_Rock_Guitar,0.23120878636837006,0
62,100,0.2409090909090909,704,1,24,DL_Warm_Pop_Rock_Guitar,6,4,DL_Warm_Pop_Rock_Guitar,0.2659301161766052,0
62,100,0.2,835,0,24,DL_Warm_Pop_Rock_Guitar,6,3,DL_Warm_Pop_Rock_Guitar,0.3542059063911438,0
61,100,0.11818181818181818,0,1,25,DL_Warm_Pop_Rock_Guitar,6,2,DL_Warm_Pop_Rock_Guitar,0.9990057349205017,1
55,100,0.12272727272727273,277,1,25,DL_Warm_Pop_Rock_Guitar,6,2,DL_Warm_Pop_Rock_Guitar,0.23120370507240295,0
62,100,0.3409090909090909,497,0,25,DL_Warm_Pop_Rock_Guitar,6,5,DL_Warm_Pop_Rock_Guitar,0.26592445373535156,0
62,100,0.2409090909090909,712,0,25,DL_Warm_Pop_Rock_Guitar,6,4,DL_Warm_Pop_Rock_Guitar,0.35420167446136475,0
62,100,0.2818181818181818,13,1,26,DL_Warm_Pop_Rock_Guitar,6,5,DL_Warm_Pop_Rock_Guitar,0.9990057349205017,1
62,100,0.2636363636363636,136,0,26,DL_Warm_Pop_Rock_Guitar,6,4,DL_Warm_Pop_Rock_Guitar,0.23120516538619995,0
66,100,0.1,646,1,26,DL_Warm_Pop_Rock_Guitar,6,2,DL_Warm_Pop_Rock_Guitar,0.26592573523521423,0
52,100,0.2818181818181818,708,0,26,DL_Warm_Pop_Rock_Guitar,6,5,DL_Warm_Pop_Rock_Guitar,0.3542080819606781,0
62,100,0.3409090909090909,48,1,27,DL_Warm_Pop_Rock_Guitar,6,5,DL_Warm_Pop_Rock_Guitar,0.9984880685806274,1
57,100,0.2409090909090909,158,0,27,DL_Warm_Pop_Rock_Guitar,6,4,DL_Warm_Pop_Rock_Guitar,0.06334786862134933,0
52,100,0.6,260,0,27,DL_Warm_Pop_Rock_Guitar,6,10,DL_Warm_Pop_Rock_Guitar,0.05774497613310814,0
55,100,0.23636363636363636,413,0,27,DL_Warm_Pop_Rock_Guitar,6,4,DL_Warm_Pop_Rock_Guitar,0.06020637974143028,0
55,100,0.3409090909090909,484,0,27,DL_Warm_Pop_Rock_Guitar,6,5,DL_Warm_Pop_Rock_Guitar,0.06970728933811188,0
62,100,0.2590909090909091,567,0,27,DL_Warm_Pop_Rock_Guitar,6,4,DL_Warm_Pop_Rock_Guitar,0.08190176635980606,0
67,100,0.42272727272727273,629,0,27,DL_Warm_Pop_Rock_Guitar,6,7,DL_Warm_Pop_Rock_Guitar,0.12402885407209396,0
62,100,0.21818181818181817,162,1,28,DL_Warm_Pop_Rock_Guitar,6,3,DL_Warm_Pop_Rock_Guitar,0.9988419413566589,1
54,100,0.4636363636363636,443,1,28,DL_Warm_Pop_Rock_Guitar,6,7,DL_Warm_Pop_Rock_Guitar,0.13725164532661438,0
66,100,0.21818181818181817,546,0,28,DL_Warm_Pop_Rock_Guitar,6,3,DL_Warm_Pop_Rock_Guitar,0.15977410972118378,0
66,100,0.1409090909090909,660,0,28,DL_Warm_Pop_Rock_Guitar,6,2,DL_Warm_Pop_Rock_Guitar,0.1864464432001114,0
59,100,0.13636363636363635,810,0,28,DL_Warm_Pop_Rock_Guitar,6,2,DL_Warm_Pop_Rock_Guitar,0.25816065073013306,0
64,100,0.23636363636363636,61,1,29,DL_Warm_Pop_Rock_Guitar,6,4,DL_Warm_Pop_Rock_Guitar,0.9986500144004822,1
52,100,0.5818181818181818,113,0,29,DL_Warm_Pop_Rock_Guitar,6,9,DL_Warm_Pop_Rock_Guitar,0.08780497312545776,0
52,100,0.3,333,0,29,DL_Warm_Pop_Rock_Guitar,6,5,DL_Warm_Pop_Rock_Guitar,0.09181474149227142,0
62,100,0.37727272727272726,625,1,29,DL_Warm_Pop_Rock_Guitar,6,6,DL_Warm_Pop_Rock_Guitar,0.10748204588890076,0
64,100,0.4,708,0,29,DL_Warm_Pop_Rock_Guitar,6,6,DL_Warm_Pop_Rock_Guitar,0.1248321533203125,0
62,100,0.11818181818181818,801,0,29,DL_Warm_Pop_Rock_Guitar,6,2,DL_Warm_Pop_Rock_Guitar,0.1790405809879303,0
62,100,0.3181818181818182,150,1,30,DL_Warm_Pop_Rock_Guitar,6,5,DL_Warm_Pop_Rock_Guitar,0.9990057349205017,1
62,100,0.2,594,1,30,DL_Warm_Pop_Rock_Guitar,6,3,DL_Warm_Pop_Rock_Guitar,0.23121266067028046,0
62,100,0.2772727272727273,646,0,30,DL_Warm_Pop_Rock_Guitar,6,4,DL_Warm_Pop_Rock_Guitar,0.2659299969673157,0
57,100,0.4,739,0,30,DL_Warm_Pop_Rock_Guitar,6,6,DL_Warm_Pop_Rock_Guitar,0.3542158007621765,0
57,100,0.36363636363636365,48,1,31,DL_Warm_Pop_Rock_Guitar,6,6,DL_Warm_Pop_Rock_Guitar,0.9984880685806274,1
62,100,0.5363636363636364,171,0,31,DL_Warm_Pop_Rock_Guitar,6,9,DL_Warm_Pop_Rock_Guitar,0.06334882974624634,0
53,100,0.11818181818181818,461,1,31,DL_Warm_Pop_Rock_Guitar,6,2,DL_Warm_Pop_Rock_Guitar,0.05774484947323799,0
62,100,0.4772727272727273,523,0,31,DL_Warm_Pop_Rock_Guitar,6,8,DL_Warm_Pop_Rock_Guitar,0.060205698013305664,0
62,100,0.11818181818181818,638,0,31,DL_Warm_Pop_Rock_Guitar,6,2,DL_Warm_Pop_Rock_Guitar,0.06970931589603424,0
62,100,0.18181818181818182,694,0,31,DL_Warm_Pop_Rock_Guitar,6,3,DL_Warm_Pop_Rock_Guitar,0.08190176635980606,0
62,100,0.33636363636363636,853,0,31,DL_Warm_Pop_Rock_Guitar,6,5,DL_Warm_Pop_Rock_Guitar,0.124028779566288,0
62,100,0.38181818181818183,201,1,32,DL_Warm_Pop_Rock_Guitar,6,6,DL_Warm_Pop_Rock_Guitar,0.979256272315979,0
62,100,0.21818181818181817,185,1,33,DL_Warm_Pop_Rock_Guitar,6,3,DL_Warm_Pop_Rock_Guitar,0.9988419413566589,1
62,100,0.2,289,0,33,DL_Warm_Pop_Rock_Guitar,6,3,DL_Warm_Pop_Rock_Guitar,0.13725246489048004,0
57,100,0.33636363636363636,370,0,33,DL_Warm_Pop_Rock_Guitar,6,5,DL_Warm_Pop_Rock_Guitar,0.15978777408599854,0
55,100,0.1409090909090909,668,1,33,DL_Warm_Pop_Rock_Guitar,6,2,DL_Warm_Pop_Rock_Guitar,0.18645747005939484,0
62,100,0.13636363636363635,721,0,33,DL_Warm_Pop_Rock_Guitar,6,2,DL_Warm_Pop_Rock_Guitar,0.25817984342575073,0
62,100,0.8,774,1,34,DL_Warm_Pop_Rock_Guitar,6,13,DL_Warm_Pop_Rock_Guitar,0.9792568683624268,0
57,100,0.2409090909090909,571,1,35,DL_Warm_Pop_Rock_Guitar,6,4,DL_Warm_Pop_Rock_Guitar,0.9988419413566589,1
52,100,0.3,655,0,35,DL_Warm_Pop_Rock_Guitar,6,5,DL_Warm_Pop_Rock_Guitar,0.13725100457668304,0
62,100,0.11818181818181818,721,0,35,DL_Warm_Pop_Rock_Guitar,6,2,DL_Warm_Pop_Rock_Guitar,0.15977931022644043,0
62,100,0.1409090909090909,823,0,35,DL_Warm_Pop_Rock_Guitar,6,2,DL_Warm_Pop_Rock_Guitar,0.18645121157169342,0
52,100,0.21818181818181817,866,0,35,DL_Warm_Pop_Rock_Guitar,6,3,DL_Warm_Pop_Rock_Guitar,0.2581774592399597,0
52,100,0.21818181818181817,40,1,36,DL_Warm_Pop_Rock_Guitar,6,3,DL_Warm_Pop_Rock_Guitar,0.9988419413566589,1
52,100,0.17727272727272728,206,0,36,DL_Warm_Pop_Rock_Guitar,6,3,DL_Warm_Pop_Rock_Guitar,0.13725286722183228,0
62,100,1.0,321,0,36,DL_Warm_Pop_Rock_Guitar,6,15,DL_Warm_Pop_Rock_Guitar,0.15978264808654785,0
52,100,0.21818181818181817,545,0,36,DL_Warm_Pop_Rock_Guitar,6,3,DL_Warm_Pop_Rock_Guitar,0.18645918369293213,0
62,100,1.1818181818181819,716,0,36,DL_Warm_Pop_Rock_Guitar,6,15,DL_Warm_Pop_Rock_Guitar,0.25817134976387024,0
60,100,0.11818181818181818,118,1,37,DL_Warm_Pop_Rock_Guitar,6,2,DL_Warm_Pop_Rock_Guitar,0.9990057349205017,1
62,100,0.2818181818181818,201,0,37,DL_Warm_Pop_Rock_Guitar,6,5,DL_Warm_Pop_Rock_Guitar,0.23121348023414612,0
62,100,0.2,545,1,37,DL_Warm_Pop_Rock_Guitar,6,3,DL_Warm_Pop_Rock_Guitar,0.26592588424682617,0
62,100,0.4,721,0,37,DL_Warm_Pop_Rock_Guitar,6,6,DL_Warm_Pop_Rock_Guitar,0.35421010851860046,0
62,100,0.8227272727272728,56,1,38,DL_Warm_Pop_Rock_Guitar,6,13,DL_Warm_Pop_Rock_Guitar,0.9986500144004822,1
57,100,0.1590909090909091,325,1,38,DL_Warm_Pop_Rock_Guitar,6,3,DL_Warm_Pop_Rock_Guitar,0.08780448138713837,0
62,100,0.1590909090909091,396,0,38,DL_Warm_Pop_Rock_Guitar,6,3,DL_Warm_Pop_Rock_Guitar,0.09181617200374603,0
62,100,0.2772727272727273,471,0,38,DL_Warm_Pop_Rock_Guitar,6,4,DL_Warm_Pop_Rock_Guitar,0.10748014599084854,0
62,100,0.13636363636363635,810,1,38,DL_Warm_Pop_Rock_Guitar,6,2,DL_Warm_Pop_Rock_Guitar,0.12483198940753937,0
52,100,0.38181818181818183,861,0,38,DL_Warm_Pop_Rock_Guitar,6,6,DL_Warm_Pop_Rock_Guitar,0.17904797196388245,0
62,100,0.32272727272727275,298,1,39,DL_Warm_Pop_Rock_Guitar,6,5,DL_Warm_Pop_Rock_Guitar,0.9990229606628418,1
55,100,0.4409090909090909,421,0,39,DL_Warm_Pop_Rock_Guitar,6,7,DL_Warm_Pop_Rock_Guitar,0.36662426590919495,0
55,100,0.22272727272727272,584,0,39,DL_Warm_Pop_Rock_Guitar,6,4,DL_Warm_Pop_Rock_Guitar,0.45329636335372925,0
60,100,0.2409090909090909,48,1,40,DL_Warm_Pop_Rock_Guitar,6,4,DL_Warm_Pop_Rock_Guitar,0.9986500144004822,1
62,100,0.3,220,0,40,DL_Warm_Pop_Rock_Guitar,6,5,DL_Warm_Pop_Rock_Guitar,0.08780381083488464,0
62,100,0.1409090909090909,289,0,40,DL_Warm_Pop_Rock_Guitar,6,2,DL_Warm_Pop_Rock_Guitar,0.0918160080909729,0
62,100,0.38181818181818183,474,0,40,DL_Warm_Pop_Rock_Guitar,6,6,DL_Warm_Pop_Rock_Guitar,0.10748106241226196,0
57,100,0.2772727272727273,691,0,40,DL_Warm_Pop_Rock_Guitar,6,4,DL_Warm_Pop_Rock_Guitar,0.12483233213424683,0
52,100,0.4818181818181818,783,0,40,DL_Warm_Pop_Rock_Guitar,6,8,DL_Warm_Pop_Rock_Guitar,0.1790420413017273,0
52,100,0.4772727272727273,18,1,41,DL_Warm_Pop_Rock_Guitar,6,8,DL_Warm_Pop_Rock_Guitar,0.9986500144004822,1
52,100,0.16363636363636364,158,0,41,DL_Warm_Pop_Rock_Guitar,6,3,DL_Warm_Pop_Rock_Guitar,0.08780378848314285,0
52,100,0.22272727272727272,201,0,41,DL_Warm_Pop_Rock_Guitar,6,4,DL_Warm_Pop_Rock_Guitar,0.09181720018386841,0
52,100,0.3,260,0,41,DL_Warm_Pop_Rock_Guitar,6,5,DL_Warm_Pop_Rock_Guitar,0.10748076438903809,0
52,100,0.38181818181818183,396,0,41,DL_Warm_Pop_Rock_Guitar,6,6,DL_Warm_Pop_Rock_Guitar,0.12483175098896027,0
64,100,0.6590909090909091,496,0,41,DL_Warm_Pop_Rock_Guitar,6,11,DL_Warm_Pop_Rock_Guitar,0.1790378987789154,0
57,100,0.35909090909090907,206,1,43,DL_Warm_Pop_Rock_Guitar,6,6,DL_Warm_Pop_Rock_Guitar,0.9990229606628418,1
54,100,0.22272727272727272,421,0,43,DL_Warm_Pop_Rock_Guitar,6,4,DL_Warm_Pop_Rock_Guitar,0.3666224777698517,0
66,100,0.4,471,0,43,DL_Warm_Pop_Rock_Guitar,6,6,DL_Warm_Pop_Rock_Guitar,0.4532906711101532,0
62,100,0.21818181818181817,571,1,44,DL_Warm_Pop_Rock_Guitar,6,3,DL_Warm_Pop_Rock_Guitar,0.9990229606628418,1
52,100,0.2409090909090909,625,0,44,DL_Warm_Pop_Rock_Guitar,6,4,DL_Warm_Pop_Rock_Guitar,0.3666335642337799,0
52,100,0.2818181818181818,738,0,44,DL_Warm_Pop_Rock_Guitar,6,5,DL_Warm_Pop_Rock_Guitar,0.4533001780509949,0
62,100,0.2818181818181818,198,1,45,DL_Warm_Pop_Rock_Guitar,6,5,DL_Warm_Pop_Rock_Guitar,0.9792551398277283,0
52,100,0.1409090909090909,13,1,46,DL_Warm_Pop_Rock_Guitar,6,2,DL_Warm_Pop_Rock_Guitar,0.9988419413566589,1
52,100,0.6818181818181818,69,0,46,DL_Warm_Pop_Rock_Guitar,6,11,DL_Warm_Pop_Rock_Guitar,0.1372472494840622,0
52,100,0.1590909090909091,241,0,46,DL_Warm_Pop_Rock_Guitar,6,3,DL_Warm_Pop_Rock_Guitar,0.15978191792964935,0
52,100,0.7,471,0,46,DL_Warm_Pop_Rock_Guitar,6,11,DL_Warm_Pop_Rock_Guitar,0.18645137548446655,0
52,100,0.9772727272727273,668,0,46,DL_Warm_Pop_Rock_Guitar,6,15,DL_Warm_Pop_Rock_Guitar,0.25817304849624634,0
62,100,0.1590909090909091,276,1,47,DL_Warm_Pop_Rock_Guitar,6,3,DL_Warm_Pop_Rock_Guitar,0.9983165264129639,1
62,100,0.6818181818181818,606,1,47,DL_Warm_Pop_Rock_Guitar,6,11,DL_Warm_Pop_Rock_Guitar,0.5445621609687805,0
57,100,0.2409090909090909,871,1,56,DL_Warm_Pop_Rock_Guitar,6,4,DL_Warm_Pop_Rock_Guitar,0.9792560338973999,0
52,100,0.2409090909090909,431,1,60,DL_Warm_Pop_Rock_Guitar,6,4,DL_Warm_Pop_Rock_Guitar,0.9990057349205017,1
52,100,0.11818181818181818,493,0,60,DL_Warm_Pop_Rock_Guitar,6,2,DL_Warm_Pop_Rock_Guitar,0.2312028706073761,0
52,100,0.1,531,0,60,DL_Warm_Pop_Rock_Guitar,6,2,DL_Warm_Pop_Rock_Guitar,0.2659229040145874,0
52,100,0.42272727272727273,826,1,60,DL_Warm_Pop_Rock_Guitar,6,7,DL_Warm_Pop_Rock_Guitar,0.35420095920562744,0
62,100,0.21818181818181817,198,1,61,DL_Warm_Pop_Rock_Guitar,6,3,DL_Warm_Pop_Rock_Guitar,0.9983165264129639,1
55,100,0.17727272727272728,691,1,61,DL_Warm_Pop_Rock_Guitar,6,3,DL_Warm_Pop_Rock_Guitar,0.5445623397827148,0
62,100,0.7,9,1,66,DL_Warm_Pop_Rock_Guitar,6,11,DL_Warm_Pop_Rock_Guitar,0.9983164072036743,1
62,100,2.081818181818182,716,1,66,DL_Warm_Pop_Rock_Guitar,6,15,DL_Warm_Pop_Rock_Guitar,0.544556200504303,0
62,100,0.2,603,1,67,DL_Warm_Pop_Rock_Guitar,6,3,DL_Warm_Pop_Rock_Guitar,0.979255735874176,0
62,100,0.1,756,1,70,DL_Warm_Pop_Rock_Guitar,6,2,DL_Warm_Pop_Rock_Guitar,0.9792560338973999,1
62,100,0.2590909090909091,743,1,74,DL_Warm_Pop_Rock_Guitar,6,4,DL_Warm_Pop_Rock_Guitar,0.9792553782463074,0
52,100,0.6818181818181818,35,1,75,DL_Warm_Pop_Rock_Guitar,6,11,DL_Warm_Pop_Rock_Guitar,0.9986500144004822,1
64,100,0.1,330,1,75,DL_Warm_Pop_Rock_Guitar,6,2,DL_Warm_Pop_Rock_Guitar,0.08780793845653534,0
62,100,0.759090909090909,365,0,75,DL_Warm_Pop_Rock_Guitar,6,12,DL_Warm_Pop_Rock_Guitar,0.09181855618953705,0
52,100,0.21818181818181817,546,0,75,DL_Warm_Pop_Rock_Guitar,6,3,DL_Warm_Pop_Rock_Guitar,0.10748755931854248,0
62,100,0.5,734,0,75,DL_Warm_Pop_Rock_Guitar,6,8,DL_Warm_Pop_Rock_Guitar,0.12483368813991547,0
62,100,1.0,849,0,75,DL_Warm_Pop_Rock_Guitar,6,15,DL_Warm_Pop_Rock_Guitar,0.1790456771850586,0
62,100,0.35909090909090907,426,1,76,DL_Warm_Pop_Rock_Guitar,6,6,DL_Warm_Pop_Rock_Guitar,0.9983165264129639,1
62,100,0.2,590,0,76,DL_Warm_Pop_Rock_Guitar,6,3,DL_Warm_Pop_Rock_Guitar,0.5445619225502014,0
62,100,0.11818181818181818,282,1,77,DL_Warm_Pop_Rock_Guitar,6,2,DL_Warm_Pop_Rock_Guitar,0.9983165264129639,1
62,100,0.3181818181818182,572,1,77,DL_Warm_Pop_Rock_Guitar,6,5,DL_Warm_Pop_Rock_Guitar,0.5445631742477417,0
52,100,0.3,206,1,78,DL_Warm_Pop_Rock_Guitar,6,5,DL_Warm_Pop_Rock_Guitar,0.9988419413566589,1
52,100,0.2818181818181818,276,0,78,DL_Warm_Pop_Rock_Guitar,6,5,DL_Warm_Pop_Rock_Guitar,0.1372474879026413,0
67,100,0.1590909090909091,370,0,78,DL_Warm_Pop_Rock_Guitar,6,3,DL_Warm_Pop_Rock_Guitar,0.15977869927883148,0
62,100,0.18181818181818182,695,1,78,DL_Warm_Pop_Rock_Guitar,6,3,DL_Warm_Pop_Rock_Guitar,0.1864514797925949,0
62,100,0.12272727272727273,739,0,78,DL_Warm_Pop_Rock_Guitar,6,2,DL_Warm_Pop_Rock_Guitar,0.2581740915775299,0
62,100,0.3,163,1,79,DL_Warm_Pop_Rock_Guitar,6,5,DL_Warm_Pop_Rock_Guitar,0.9792556166648865,0
52,100,0.4590909090909091,193,1,80,DL_Warm_Pop_Rock_Guitar,6,7,DL_Warm_Pop_Rock_Guitar,0.9792566299438477,0
62,100,0.5181818181818182,440,1,81,DL_Warm_Pop_Rock_Guitar,6,8,DL_Warm_Pop_Rock_Guitar,0.9983165264129639,1
62,100,0.7,624,0,81,DL_Warm_Pop_Rock_Guitar,6,11,DL_Warm_Pop_Rock_Guitar,0.5445671081542969,0
52,100,0.22272727272727272,532,1,82,DL_Warm_Pop_Rock_Guitar,6,4,DL_Warm_Pop_Rock_Guitar,0.9990229606628418,1
62,100,0.1,839,1,82,DL_Warm_Pop_Rock_Guitar,6,2,DL_Warm_Pop_Rock_Guitar,0.3666248619556427,0
62,100,0.1,866,0,82,DL_Warm_Pop_Rock_Guitar,6,2,DL_Warm_Pop_Rock_Guitar,0.45329952239990234,0
62,100,0.13636363636363635,150,1,83,DL_Warm_Pop_Rock_Guitar,6,2,DL_Warm_Pop_Rock_Guitar,0.9792563915252686,1
63,100,0.1,519,1,0,DL_Guitar,6,2,DL_Guitar,0.9792559146881104,0
58,100,0.1590909090909091,704,1,1,DL_Guitar,6,3,DL_Guitar,0.9792565107345581,0
56,100,0.12272727272727273,311,1,2,DL_Guitar,6,2,DL_Guitar,0.9983165264129639,1
63,100,1.3590909090909091,537,0,2,DL_Guitar,6,15,DL_Guitar,0.5445476770401001,0
63,100,1.0,836,1,4,DL_Guitar,6,15,DL_Guitar,0.9792554974555969,0
53,100,0.7181818181818181,373,1,5,DL_Guitar,6,11,DL_Guitar,0.9983164072036743,1
56,100,0.9818181818181818,593,0,5,DL_Guitar,6,15,DL_Guitar,0.5445480346679688,0
53,100,0.7,854,1,6,DL_Guitar,6,11,DL_Guitar,0.9792560338973999,0
53,100,0.1409090909090909,158,1,7,DL_Guitar,6,2,DL_Guitar,0.9988419413566589,1
53,100,0.4,311,0,7,DL_Guitar,6,6,DL_Guitar,0.1372499316930771,0
63,100,0.2818181818181818,747,1,7,DL_Guitar,6,5,DL_Guitar,0.15977880358695984,0
63,100,0.1590909090909091,831,0,7,DL_Guitar,6,3,DL_Guitar,0.18645457923412323,0
63,100,0.1409090909090909,871,0,7,DL_Guitar,6,2,DL_Guitar,0.2581765353679657,0
53,100,0.18181818181818182,527,1,8,DL_Guitar,6,3,DL_Guitar,0.9990057349205017,1
53,100,0.4590909090909091,581,0,8,DL_Guitar,6,7,DL_Guitar,0.2312038391828537,0
53,100,0.22272727272727272,685,0,8,DL_Guitar,6,4,DL_Guitar,0.26592230796813965,0
63,100,0.8590909090909091,787,0,8,DL_Guitar,6,14,DL_Guitar,0.3541927635669708,0
63,100,0.21818181818181817,448,1,13,DL_Guitar,6,3,DL_Guitar,0.9792559146881104,0
56,100,1.740909090909091,92,1,14,DL_Guitar,6,15,DL_Guitar,0.9990057349205017,1
56,100,0.2818181818181818,519,1,14,DL_Guitar,6,5,DL_Guitar,0.23120883107185364,0
56,100,0.1409090909090909,735,0,14,DL_Guitar,6,2,DL_Guitar,0.2659207284450531,0
63,100,0.2409090909090909,783,0,14,DL_Guitar,6,4,DL_Guitar,0.35418733954429626,0
56,100,0.2409090909090909,22,1,15,DL_Guitar,6,4,DL_Guitar,0.9984880685806274,1
56,100,0.1590909090909091,96,0,15,DL_Guitar,6,3,DL_Guitar,0.06334319710731506,0
53,100,0.3,144,0,15,DL_Guitar,6,5,DL_Guitar,0.057741738855838776,0
53,100,0.2,276,0,15,DL_Guitar,6,3,DL_Guitar,0.060201000422239304,0
63,100,0.4,386,0,15,DL_Guitar,6,6,DL_Guitar,0.0697007030248642,0
53,100,0.1,536,0,15,DL_Guitar,6,2,DL_Guitar,0.08189377188682556,0
55,100,0.1,778,1,15,DL_Guitar,6,2,DL_Guitar,0.12401732057332993,0
63,100,0.4818181818181818,210,1,16,DL_Guitar,6,8,DL_Guitar,0.9990057349205017,1
53,100,0.12272727272727273,356,0,16,DL_Guitar,6,2,DL_Guitar,0.23120521008968353,0
58,100,0.2,391,0,16,DL_Guitar,6,3,DL_Guitar,0.26592692732810974,0
63,100,0.3,804,1,16,DL_Guitar,6,5,DL_Guitar,0.354193776845932,0
56,100,0.11818181818181818,461,1,17,DL_Guitar,6,2,DL_Guitar,0.9990057349205017,1
53,100,0.2590909090909091,519,0,17,DL_Guitar,6,4,DL_Guitar,0.23120802640914917,0
53,100,0.1590909090909091,646,0,17,DL_Guitar,6,3,DL_Guitar,0.2659186124801636,0
63,100,0.33636363636363636,831,0,17,DL_Guitar,6,5,DL_Guitar,0.35419508814811707,0
53,100,0.2409090909090909,44,1,18,DL_Guitar,6,4,DL_Guitar,0.9986500144004822,1
55,100,0.3181818181818182,216,0,18,DL_Guitar,6,5,DL_Guitar,0.0878058671951294,0
55,100,0.9227272727272727,356,0,18,DL_Guitar,6,15,DL_Guitar,0.09181187301874161,0
55,100,0.22272727272727272,642,1,18,DL_Guitar,6,4,DL_Guitar,0.10747817903757095,0
60,100,0.1409090909090909,748,0,18,DL_Guitar,6,2,DL_Guitar,0.12482291460037231,0
60,100,0.18181818181818182,783,0,18,DL_Guitar,6,3,DL_Guitar,0.17902952432632446,0
63,100,0.12272727272727273,79,1,19,DL_Guitar,6,2,DL_Guitar,0.9990057349205017,1
53,100,0.5227272727272727,356,1,19,DL_Guitar,6,8,DL_Guitar,0.23120605945587158,0
53,100,0.2590909090909091,492,0,19,DL_Guitar,6,4,DL_Guitar,0.2659267485141754,0
53,100,0.2590909090909091,563,0,19,DL_Guitar,6,4,DL_Guitar,0.35419130325317383,0
53,100,0.11818181818181818,17,1,20,DL_Guitar,6,2,DL_Guitar,0.9983736276626587,1
55,100,0.2590909090909091,285,1,20,DL_Guitar,6,4,DL_Guitar,0.05106078460812569,0
53,100,0.11818181818181818,351,0,20,DL_Guitar,6,2,DL_Guitar,0.04130346328020096,0
55,100,0.5818181818181818,399,0,20,DL_Guitar,6,9,DL_Guitar,0.037387143820524216,0
56,100,0.21818181818181817,567,0,20,DL_Guitar,6,3,DL_Guitar,0.03833039477467537,0
56,100,0.12272727272727273,642,0,20,DL_Guitar,6,2,DL_Guitar,0.044752612709999084,0
56,100,0.21818181818181817,691,0,20,DL_Guitar,6,3,DL_Guitar,0.05522988364100456,0
56,100,0.3,801,0,20,DL_Guitar,6,5,DL_Guitar,0.09026242047548294,0
56,100,0.17727272727272728,9,1,21,DL_Guitar,6,3,DL_Guitar,0.9990057349205017,1
63,100,0.2590909090909091,303,1,21,DL_Guitar,6,4,DL_Guitar,0.2312023639678955,0
63,100,0.4,515,0,21,DL_Guitar,6,6,DL_Guitar,0.2659251093864441,0
63,100,0.8590909090909091,743,0,21,DL_Guitar,6,14,DL_Guitar,0.3541979193687439,0
63,100,0.35909090909090907,96,1,22,DL_Guitar,6,6,DL_Guitar,0.9990229606628418,1
63,100,0.4,260,0,22,DL_Guitar,6,6,DL_Guitar,0.366632342338562,0
63,100,0.17727272727272728,480,0,22,DL_Guitar,6,3,DL_Guitar,0.45330458879470825,0
58,100,0.12272727272727273,223,1,26,DL_Guitar,6,2,DL_Guitar,0.9982276558876038,1
53,100,0.2409090909090909,254,0,26,DL_Guitar,6,4,DL_Guitar,0.0393972173333168,0
58,100,0.1590909090909091,351,0,26,DL_Guitar,6,3,DL_Guitar,0.02667267993092537,0
53,100,0.11818181818181818,395,0,26,DL_Guitar,6,2,DL_Guitar,0.018587306141853333,0
53,100,0.17727272727272728,449,0,26,DL_Guitar,6,3,DL_Guitar,0.013413159176707268,0
58,100,0.2818181818181818,519,0,26,DL_Guitar,6,5,DL_Guitar,0.010586649179458618,0
53,100,0.1590909090909091,602,0,26,DL_Guitar,6,3,DL_Guitar,0.009838895872235298,0
58,100,0.2,673,0,26,DL_Guitar,6,3,DL_Guitar,0.011416686698794365,0
53,100,0.2,725,0,26,DL_Guitar,6,3,DL_Guitar,0.016511179506778717,0
58,100,0.3,783,0,26,DL_Guitar,6,5,DL_Guitar,0.026816319674253464,0
74,100,0.11818181818181818,866,0,26,DL_Guitar,6,2,DL_Guitar,0.053914062678813934,0
63,100,0.6590909090909091,501,1,27,DL_Guitar,6,11,DL_Guitar,0.9990229606628418,1
58,100,0.11818181818181818,725,0,27,DL_Guitar,6,2,DL_Guitar,0.3666342496871948,0
58,100,1.0,827,0,27,DL_Guitar,6,15,DL_Guitar,0.4532914459705353,0
63,100,0.1409090909090909,175,1,28,DL_Guitar,6,2,DL_Guitar,0.9990057349205017,1
58,100,0.3181818181818182,360,0,28,DL_Guitar,6,5,DL_Guitar,0.23121464252471924,0
63,100,1.040909090909091,474,0,28,DL_Guitar,6,15,DL_Guitar,0.26592132449150085,0
63,100,0.2590909090909091,783,1,28,DL_Guitar,6,4,DL_Guitar,0.3541980981826782,0
55,100,0.5409090909090909,100,1,29,DL_Guitar,6,9,DL_Guitar,0.9986500144004822,1
58,100,0.18181818181818182,246,0,29,DL_Guitar,6,3,DL_Guitar,0.08780182152986526,0
55,100,0.1409090909090909,312,0,29,DL_Guitar,6,2,DL_Guitar,0.09181421995162964,0
63,100,1.040909090909091,378,0,29,DL_Guitar,6,15,DL_Guitar,0.10747135430574417,0
63,100,0.32272727272727275,642,1,29,DL_Guitar,6,5,DL_Guitar,0.1248270720243454,0
63,100,0.13636363636363635,876,1,29,DL_Guitar,6,2,DL_Guitar,0.17903397977352142,0
63,100,0.1590909090909091,57,1,30,DL_Guitar,6,3,DL_Guitar,0.9983164072036743,1
63,100,0.21818181818181817,193,0,30,DL_Guitar,6,3,DL_Guitar,0.544562041759491,0
58,100,0.41818181818181815,52,1,31,DL_Guitar,6,7,DL_Guitar,0.9990057349205017,1
58,100,0.740909090909091,272,0,31,DL_Guitar,6,12,DL_Guitar,0.23120169341564178,0
58,100,0.4818181818181818,509,1,31,DL_Guitar,6,8,DL_Guitar,0.2659190595149994,0
58,100,0.2590909090909091,660,0,31,DL_Guitar,6,4,DL_Guitar,0.3541920483112335,0
63,100,0.2,66,1,32,DL_Guitar,6,3,DL_Guitar,0.9983736276626587,1
63,100,0.17727272727272728,206,0,32,DL_Guitar,6,3,DL_Guitar,0.05106126517057419,0
58,100,0.1409090909090909,321,0,32,DL_Guitar,6,2,DL_Guitar,0.041303716599941254,0
63,100,0.11818181818181818,493,0,32,DL_Guitar,6,2,DL_Guitar,0.03738611564040184,0
63,100,0.1,606,0,32,DL_Guitar,6,2,DL_Guitar,0.038331061601638794,0
53,100,0.21818181818181817,638,0,32,DL_Guitar,6,3,DL_Guitar,0.044753771275281906,0
58,100,0.4,686,0,32,DL_Guitar,6,6,DL_Guitar,0.05523155257105827,0
58,100,0.2,796,0,32,DL_Guitar,6,3,DL_Guitar,0.09026764333248138,0
53,100,0.11818181818181818,53,1,33,DL_Guitar,6,2,DL_Guitar,0.9988419413566589,1
53,100,0.22272727272727272,114,0,33,DL_Guitar,6,4,DL_Guitar,0.1372493952512741,0
55,100,0.18181818181818182,386,1,33,DL_Guitar,6,3,DL_Guitar,0.1597800999879837,0
59,100,0.4818181818181818,453,0,33,DL_Guitar,6,8,DL_Guitar,0.18645413219928741,0
55,100,0.5,563,0,33,DL_Guitar,6,8,DL_Guitar,0.258157342672348,0
55,100,0.2,26,1,34,DL_Guitar,6,3,DL_Guitar,0.9988419413566589,1
63,100,0.11818181818181818,105,0,34,DL_Guitar,6,2,DL_Guitar,0.13724902272224426,0
55,100,0.16363636363636364,268,0,34,DL_Guitar,6,3,DL_Guitar,0.15977934002876282,0
58,100,0.1590909090909091,364,0,34,DL_Guitar,6,3,DL_Guitar,0.1864505261182785,0
56,100,0.1590909090909091,756,1,34,DL_Guitar,6,3,DL_Guitar,0.2581585943698883,0
58,100,0.3,201,1,35,DL_Guitar,6,5,DL_Guitar,0.9988419413566589,1
58,100,0.37727272727272726,458,1,35,DL_Guitar,6,6,DL_Guitar,0.1372428983449936,0
53,100,0.1,545,0,35,DL_Guitar,6,2,DL_Guitar,0.15977008640766144,0
58,100,0.2818181818181818,576,0,35,DL_Guitar,6,5,DL_Guitar,0.1864466369152069,0
58,100,0.4,729,0,35,DL_Guitar,6,6,DL_Guitar,0.25815898180007935,0
63,100,0.17727272727272728,426,1,36,DL_Guitar,6,3,DL_Guitar,0.9983164072036743,1
63,100,0.43636363636363634,655,0,36,DL_Guitar,6,7,DL_Guitar,0.544560432434082,0
56,100,0.11818181818181818,96,1,37,DL_Guitar,6,2,DL_Guitar,0.9988419413566589,1
63,100,0.2772727272727273,370,1,37,DL_Guitar,6,4,DL_Guitar,0.1372523307800293,0
63,100,0.41818181818181815,435,0,37,DL_Guitar,6,7,DL_Guitar,0.1597837656736374,0
63,100,0.11818181818181818,655,0,37,DL_Guitar,6,2,DL_Guitar,0.18645775318145752,0
63,100,0.38181818181818183,748,0,37,DL_Guitar,6,6,DL_Guitar,0.25817200541496277,0
63,100,0.35909090909090907,88,1,38,DL_Guitar,6,6,DL_Guitar,0.979255735874176,0
65,100,0.4818181818181818,233,1,39,DL_Guitar,6,8,DL_Guitar,0.9988419413566589,1
56,100,0.4636363636363636,421,0,39,DL_Guitar,6,7,DL_Guitar,0.13724644482135773,0
63,100,0.36363636363636365,531,0,39,DL_Guitar,6,6,DL_Guitar,0.15977881848812103,0
63,100,0.35909090909090907,748,0,39,DL_Guitar,6,6,DL_Guitar,0.18644748628139496,0
58,100,0.1409090909090909,861,0,39,DL_Guitar,6,2,DL_Guitar,0.25817713141441345,0
53,100,0.23636363636363636,18,1,40,DL_Guitar,6,4,DL_Guitar,0.9990057349205017,1
58,100,0.16363636363636364,114,0,40,DL_Guitar,6,3,DL_Guitar,0.23120516538619995,0
58,100,0.759090909090909,163,0,40,DL_Guitar,6,12,DL_Guitar,0.26591676473617554,0
58,100,0.2590909090909091,351,0,40,DL_Guitar,6,4,DL_Guitar,0.35419613122940063,0
53,100,0.3181818181818182,198,1,41,DL_Guitar,6,5,DL_Guitar,0.9988419413566589,1
58,100,0.9409090909090909,273,0,41,DL_Guitar,6,15,DL_Guitar,0.13724486529827118,0
58,100,0.4818181818181818,483,0,41,DL_Guitar,6,8,DL_Guitar,0.15977753698825836,0
58,100,0.1590909090909091,593,0,41,DL_Guitar,6,3,DL_Guitar,0.18644839525222778,0
63,100,0.41818181818181815,770,0,41,DL_Guitar,6,7,DL_Guitar,0.25816139578819275,0
63,100,0.32272727272727275,34,1,42,DL_Guitar,6,5,DL_Guitar,0.9983165264129639,1
63,100,0.5,188,0,42,DL_Guitar,6,8,DL_Guitar,0.5445666313171387,0
63,100,0.11818181818181818,110,1,43,DL_Guitar,6,2,DL_Guitar,0.9990229606628418,1
58,100,0.2,263,0,43,DL_Guitar,6,3,DL_Guitar,0.3666267395019531,0
65,100,0.13636363636363635,523,1,43,DL_Guitar,6,2,DL_Guitar,0.4532887935638428,0
65,100,0.37727272727272726,105,1,44,DL_Guitar,6,6,DL_Guitar,0.9990229606628418,1
63,100,0.1590909090909091,418,1,44,DL_Guitar,6,3,DL_Guitar,0.36662447452545166,0
63,100,0.11818181818181818,681,1,44,DL_Guitar,6,2,DL_Guitar,0.4532945454120636,0
63,100,0.8590909090909091,198,1,45,DL_Guitar,6,14,DL_Guitar,0.9990057349205017,1
56,100,0.2409090909090909,399,0,45,DL_Guitar,6,4,DL_Guitar,0.2312077432870865,0
56,100,0.13636363636363635,458,0,45,DL_Guitar,6,2,DL_Guitar,0.2659217417240143,0
56,100,0.16363636363636364,509,0,45,DL_Guitar,6,3,DL_Guitar,0.35419097542762756,0
62,100,0.5181818181818182,0,1,47,DL_Guitar,6,8,DL_Guitar,0.9983164072036743,1
63,100,1.8,370,1,47,DL_Guitar,6,15,DL_Guitar,0.5445566177368164,0
58,100,0.5181818181818182,308,1,48,DL_Guitar,6,8,DL_Guitar,0.9792560338973999,0
58,100,0.2,21,1,49,DL_Guitar,6,3,DL_Guitar,0.9792565107345581,0
58,100,0.16363636363636364,224,1,50,DL_Guitar,6,3,DL_Guitar,0.9983165264129639,1
56,100,0.21818181818181817,273,0,50,DL_Guitar,6,3,DL_Guitar,0.5445541143417358,0
62,100,0.16363636363636364,136,1,51,DL_Guitar,6,3,DL_Guitar,0.9792560338973999,0
63,100,0.11818181818181818,501,1,52,DL_Guitar,6,2,DL_Guitar,0.9990229606628418,1
63,100,0.1,531,0,52,DL_Guitar,6,2,DL_Guitar,0.366629421710968,0
63,100,0.21818181818181817,558,0,52,DL_Guitar,6,3,DL_Guitar,0.4532985985279083,0
58,100,0.12272727272727273,796,1,53,DL_Guitar,6,2,DL_Guitar,0.9792565107345581,1
58,100,0.2,681,1,55,DL_Guitar,6,3,DL_Guitar,0.9792563915252686,0
58,100,0.2772727272727273,8,1,56,DL_Guitar,6,4,DL_Guitar,0.9983165264129639,1
55,100,0.5409090909090909,603,1,56,DL_Guitar,6,9,DL_Guitar,0.5445501208305359,0
55,100,0.18181818181818182,4,1,57,DL_Guitar,6,3,DL_Guitar,0.9990057349205017,1
55,100,0.11818181818181818,413,1,57,DL_Guitar,6,2,DL_Guitar,0.2312072068452835,0
63,100,0.11818181818181818,703,1,57,DL_Guitar,6,2,DL_Guitar,0.265918493270874,0
63,100,0.3409090909090909,778,0,57,DL_Guitar,6,5,DL_Guitar,0.3541961908340454,0
58,100,0.2,153,1,58,DL_Guitar,6,3,DL_Guitar,0.9990057349205017,1
53,100,0.38181818181818183,431,1,58,DL_Guitar,6,6,DL_Guitar,0.2311972677707672,0
65,100,0.11818181818181818,528,0,58,DL_Guitar,6,2,DL_Guitar,0.26591193675994873,0
58,100,0.2409090909090909,576,0,58,DL_Guitar,6,4,DL_Guitar,0.3541930019855499,0
63,100,0.1,483,1,59,DL_Guitar,6,2,DL_Guitar,0.979256272315979,0
58,100,0.3,801,1,60,DL_Guitar,6,5,DL_Guitar,0.9983165264129639,1
53,100,0.17727272727272728,875,0,60,DL_Guitar,6,3,DL_Guitar,0.5445544719696045,0
53,100,0.18181818181818182,298,1,63,DL_Guitar,6,3,DL_Guitar,0.9983164072036743,1
53,100,0.18181818181818182,373,0,63,DL_Guitar,6,3,DL_Guitar,0.5445554852485657,0
53,100,0.1409090909090909,163,1,64,DL_Guitar,6,2,DL_Guitar,0.9792558550834656,0
53,100,0.17727272727272728,612,1,65,DL_Guitar,6,3,DL_Guitar,0.9983164072036743,1
53,100,0.2,826,0,65,DL_Guitar,6,3,DL_Guitar,0.5445572137832642,0
53,100,0.2818181818181818,189,1,66,DL_Guitar,6,5,DL_Guitar,0.9990057349205017,1
53,100,0.2772727272727273,392,0,66,DL_Guitar,6,4,DL_Guitar,0.2311992049217224,0
53,100,0.5409090909090909,466,0,66,DL_Guitar,6,9,DL_Guitar,0.265920490026474,0
55,100,0.11818181818181818,747,1,66,DL_Guitar,6,2,DL_Guitar,0.354194313287735,0
53,100,0.17727272727272728,184,1,67,DL_Guitar,6,3,DL_Guitar,0.9983165264129639,1
56,100,0.2,536,1,67,DL_Guitar,6,3,DL_Guitar,0.5445545315742493,0
58,100,0.1409090909090909,629,1,69,DL_Guitar,6,2,DL_Guitar,0.9983165264129639,1
58,100,0.2818181818181818,663,0,69,DL_Guitar,6,5,DL_Guitar,0.5445524454116821,0
53,100,0.18181818181818182,422,1,70,DL_Guitar,6,3,DL_Guitar,0.9990057349205017,1
58,100,0.1590909090909091,546,0,70,DL_Guitar,6,3,DL_Guitar,0.2312016785144806,0
58,100,0.1590909090909091,585,0,70,DL_Guitar,6,3,DL_Guitar,0.2659161686897278,0
53,100,0.12272727272727273,619,0,70,DL_Guitar,6,2,DL_Guitar,0.35418426990509033,0
58,100,0.3409090909090909,462,1,71,DL_Guitar,6,5,DL_Guitar,0.9983165264129639,1
58,100,0.4772727272727273,743,1,71,DL_Guitar,6,8,DL_Guitar,0.5445581674575806,0
53,100,0.1409090909090909,0,1,72,DL_Guitar,6,2,DL_Guitar,0.9983164072036743,1
58,100,0.3,792,1,72,DL_Guitar,6,5,DL_Guitar,0.544556736946106,0
58,100,0.1,13,1,73,DL_Guitar,6,2,DL_Guitar,0.9988419413566589,1
65,100,0.38181818181818183,330,1,73,DL_Guitar,6,6,DL_Guitar,0.13724301755428314,0
65,100,0.1,417,0,73,DL_Guitar,6,2,DL_Guitar,0.15977226197719574,0
65,100,0.12272727272727273,629,0,73,DL_Guitar,6,2,DL_Guitar,0.18644317984580994,0
65,100,0.18181818181818182,770,0,73,DL_Guitar,6,3,DL_Guitar,0.25815486907958984,0
65,100,0.13636363636363635,83,1,74,DL_Guitar,6,2,DL_Guitar,0.9990229606628418,1
63,100,0.2818181818181818,597,1,74,DL_Guitar,6,5,DL_Guitar,0.3666253387928009,0
63,100,0.3181818181818182,669,0,74,DL_Guitar,6,5,DL_Guitar,0.45329371094703674,0
58,100,0.2,263,1,75,DL_Guitar,6,3,DL_Guitar,0.9990057349205017,1
62,100,0.2,352,0,75,DL_Guitar,6,3,DL_Guitar,0.23119701445102692,0
53,100,0.2409090909090909,756,1,75,DL_Guitar,6,4,DL_Guitar,0.2659245431423187,0
53,100,0.18181818181818182,813,0,75,DL_Guitar,6,3,DL_Guitar,0.3541978895664215,0
53,100,0.1409090909090909,9,1,76,DL_Guitar,6,2,DL_Guitar,0.9990057349205017,1
53,100,0.1590909090909091,66,0,76,DL_Guitar,6,3,DL_Guitar,0.23120133578777313,0
65,100,0.1,282,0,76,DL_Guitar,6,2,DL_Guitar,0.2659161686897278,0
55,100,0.1,673,1,76,DL_Guitar,6,2,DL_Guitar,0.3541964292526245,0
58,100,0.2409090909090909,532,1,77,DL_Guitar,6,4,DL_Guitar,0.9983165264129639,1
58,100,0.21818181818181817,590,0,77,DL_Guitar,6,3,DL_Guitar,0.544553816318512,0
58,100,0.1,83,1,78,DL_Guitar,6,2,DL_Guitar,0.9983165264129639,1
58,100,0.21818181818181817,339,1,78,DL_Guitar,6,3,DL_Guitar,0.5445565581321716,0
58,100,0.13636363636363635,83,1,79,DL_Guitar,6,2,DL_Guitar,0.9983165264129639,1
60,100,0.32272727272727275,519,1,79,DL_Guitar,6,5,DL_Guitar,0.5445566177368164,0
58,100,0.1,3,1,80,DL_Guitar,6,2,DL_Guitar,0.9990229606628418,1
58,100,1.0772727272727274,40,0,80,DL_Guitar,6,15,DL_Guitar,0.36661970615386963,0
58,100,0.1409090909090909,462,1,80,DL_Guitar,6,2,DL_Guitar,0.45329251885414124,0
58,100,0.2818181818181818,839,1,82,DL_Guitar,6,5,DL_Guitar,0.979256272315979,1
58,100,1.2818181818181817,466,1,84,DL_Guitar,6,15,DL_Guitar,0.9792561531066895,0
58,100,0.4409090909090909,817,1,86,DL_Guitar,6,7,DL_Guitar,0.9792565107345581,0
58,100,0.4772727272727273,62,1,87,DL_Guitar,6,8,DL_Guitar,0.9983165264129639,1
58,100,0.2818181818181818,179,0,87,DL_Guitar,6,5,DL_Guitar,0.544559895992279,0
58,100,1.2363636363636363,853,1,89,DL_Guitar,6,15,DL_Guitar,0.9792560338973999,0
63,100,0.11818181818181818,703,1,90,DL_Guitar,6,2,DL_Guitar,0.9983164072036743,1
58,100,0.2818181818181818,739,0,90,DL_Guitar,6,5,DL_Guitar,0.5445632934570312,0
58,100,0.11818181818181818,43,1,91,DL_Guitar,6,2,DL_Guitar,0.9990057349205017,1
58,100,0.32272727272727275,123,0,91,DL_Guitar,6,5,DL_Guitar,0.23120246827602386,0
58,100,0.2409090909090909,356,1,91,DL_Guitar,6,4,DL_Guitar,0.2659193277359009,0
58,100,1.0227272727272727,650,1,91,DL_Guitar,6,15,DL_Guitar,0.35418954491615295,0
58,100,0.4818181818181818,3,1,92,DL_Guitar,6,8,DL_Guitar,0.9990057349205017,1
58,100,0.1590909090909091,373,1,92,DL_Guitar,6,3,DL_Guitar,0.23120440542697906,0
58,100,0.1,440,0,92,DL_Guitar,6,2,DL_Guitar,0.265921413898468,0
53,100,0.18181818181818182,593,0,92,DL_Guitar,6,3,DL_Guitar,0.35418763756752014,0
53,100,0.18181818181818182,246,1,93,DL_Guitar,6,3,DL_Guitar,0.9792561531066895,0
58,100,0.3409090909090909,22,1,94,DL_Guitar,6,5,DL_Guitar,0.9990057349205017,1
58,100,0.17727272727272728,250,0,94,DL_Guitar,6,3,DL_Guitar,0.23120185732841492,0
58,100,0.5181818181818182,713,1,94,DL_Guitar,6,8,DL_Guitar,0.26591944694519043,0
58,100,0.7181818181818181,853,0,94,DL_Guitar,6,11,DL_Guitar,0.35418900847435,0
56,100,0.5409090909090909,145,1,95,DL_Guitar,6,9,DL_Guitar,0.9990229606628418,1
56,100,0.18181818181818182,267,0,95,DL_Guitar,6,3,DL_Guitar,0.36662644147872925,0
62,100,0.3181818181818182,690,1,95,DL_Guitar,6,5,DL_Guitar,0.45329439640045166,0
63,100,0.2772727272727273,787,1,96,DL_Guitar,6,4,DL_Guitar,0.9792561531066895,1
63,100,0.18181818181818182,862,1,97,DL_Guitar,6,3,DL_Guitar,0.9792559146881104,0
52,100,0.37727272727272726,414,1,0,Dl_Nostalgic_2_Guitar,6,6,Dl_Nostalgic_2_Guitar,0.9990229606628418,1
54,100,0.3181818181818182,502,0,0,Dl_Nostalgic_2_Guitar,6,5,Dl_Nostalgic_2_Guitar,0.3666257858276367,0
57,100,0.2818181818181818,585,0,0,Dl_Nostalgic_2_Guitar,6,5,Dl_Nostalgic_2_Guitar,0.4532921314239502,0
61,100,0.2,157,1,1,Dl_Nostalgic_2_Guitar,6,3,Dl_Nostalgic_2_Guitar,0.9990229606628418,1
61,100,0.17727272727272728,206,0,1,Dl_Nostalgic_2_Guitar,6,3,Dl_Nostalgic_2_Guitar,0.3666222095489502,0
52,100,0.2,752,1,1,Dl_Nostalgic_2_Guitar,6,3,Dl_Nostalgic_2_Guitar,0.45329439640045166,0
61,100,0.1409090909090909,220,1,2,Dl_Nostalgic_2_Guitar,6,2,Dl_Nostalgic_2_Guitar,0.9990057349205017,1
52,100,0.12272727272727273,342,0,2,Dl_Nostalgic_2_Guitar,6,2,Dl_Nostalgic_2_Guitar,0.23120684921741486,0
61,100,0.2,440,0,2,Dl_Nostalgic_2_Guitar,6,3,Dl_Nostalgic_2_Guitar,0.2659260034561157,0
54,100,1.1590909090909092,804,1,2,Dl_Nostalgic_2_Guitar,6,15,Dl_Nostalgic_2_Guitar,0.3542006015777588,0
66,100,0.1409090909090909,268,1,3,Dl_Nostalgic_2_Guitar,6,2,Dl_Nostalgic_2_Guitar,0.9990230798721313,1
54,100,0.2409090909090909,421,0,3,Dl_Nostalgic_2_Guitar,6,4,Dl_Nostalgic_2_Guitar,0.36661863327026367,0
54,100,0.21818181818181817,703,1,3,Dl_Nostalgic_2_Guitar,6,3,Dl_Nostalgic_2_Guitar,0.4532857835292816,0
54,100,0.12272727272727273,48,1,4,Dl_Nostalgic_2_Guitar,6,2,Dl_Nostalgic_2_Guitar,0.9986500144004822,1
54,100,0.4,435,1,4,Dl_Nostalgic_2_Guitar,6,6,Dl_Nostalgic_2_Guitar,0.08780419081449509,0
57,100,0.17727272727272728,524,0,4,Dl_Nostalgic_2_Guitar,6,3,Dl_Nostalgic_2_Guitar,0.09181183576583862,0
57,100,0.2409090909090909,606,0,4,Dl_Nostalgic_2_Guitar,6,4,Dl_Nostalgic_2_Guitar,0.10747836530208588,0
57,100,0.21818181818181817,691,0,4,Dl_Nostalgic_2_Guitar,6,3,Dl_Nostalgic_2_Guitar,0.12482663989067078,0
57,100,0.1409090909090909,813,0,4,Dl_Nostalgic_2_Guitar,6,2,Dl_Nostalgic_2_Guitar,0.1790347546339035,0
52,100,0.1409090909090909,8,1,5,Dl_Nostalgic_2_Guitar,6,2,Dl_Nostalgic_2_Guitar,0.9990229606628418,1
57,100,0.2409090909090909,338,1,5,Dl_Nostalgic_2_Guitar,6,4,Dl_Nostalgic_2_Guitar,0.36662548780441284,0
57,100,0.2772727272727273,810,1,5,Dl_Nostalgic_2_Guitar,6,4,Dl_Nostalgic_2_Guitar,0.45328959822654724,0
57,100,0.16363636363636364,4,1,6,Dl_Nostalgic_2_Guitar,6,3,Dl_Nostalgic_2_Guitar,0.9983165264129639,1
69,100,0.18181818181818182,431,1,6,Dl_Nostalgic_2_Guitar,6,3,Dl_Nostalgic_2_Guitar,0.5445583462715149,0
69,100,0.2590909090909091,18,1,7,Dl_Nostalgic_2_Guitar,6,4,Dl_Nostalgic_2_Guitar,0.9988419413566589,1
57,100,0.1590909090909091,74,0,7,Dl_Nostalgic_2_Guitar,6,3,Dl_Nostalgic_2_Guitar,0.13724657893180847,0
61,100,0.22272727272727272,158,0,7,Dl_Nostalgic_2_Guitar,6,4,Dl_Nostalgic_2_Guitar,0.1597791612148285,0
66,100,0.17727272727272728,721,1,7,Dl_Nostalgic_2_Guitar,6,3,Dl_Nostalgic_2_Guitar,0.18645644187927246,0
54,100,0.9409090909090909,761,0,7,Dl_Nostalgic_2_Guitar,6,15,Dl_Nostalgic_2_Guitar,0.25816136598587036,0
57,100,0.2,110,1,8,Dl_Nostalgic_2_Guitar,6,3,Dl_Nostalgic_2_Guitar,0.9984880685806274,1
54,100,0.2,154,0,8,Dl_Nostalgic_2_Guitar,6,3,Dl_Nostalgic_2_Guitar,0.06334537267684937,0
66,100,0.5,211,0,8,Dl_Nostalgic_2_Guitar,6,8,Dl_Nostalgic_2_Guitar,0.0577416829764843,0
52,100,0.13636363636363635,326,0,8,Dl_Nostalgic_2_Guitar,6,2,Dl_Nostalgic_2_Guitar,0.060202065855264664,0
52,100,0.8636363636363636,378,0,8,Dl_Nostalgic_2_Guitar,6,14,Dl_Nostalgic_2_Guitar,0.06970103085041046,0
54,100,0.1590909090909091,625,1,8,Dl_Nostalgic_2_Guitar,6,3,Dl_Nostalgic_2_Guitar,0.08189531415700912,0
52,100,0.9,792,0,8,Dl_Nostalgic_2_Guitar,6,14,Dl_Nostalgic_2_Guitar,0.12401975691318512,0
64,100,0.22272727272727272,123,1,9,Dl_Nostalgic_2_Guitar,6,4,Dl_Nostalgic_2_Guitar,0.9986500144004822,1
57,100,0.1409090909090909,202,0,9,Dl_Nostalgic_2_Guitar,6,2,Dl_Nostalgic_2_Guitar,0.08780316263437271,0
52,100,0.2,259,0,9,Dl_Nostalgic_2_Guitar,6,3,Dl_Nostalgic_2_Guitar,0.09181754291057587,0
59,100,0.33636363636363636,326,0,9,Dl_Nostalgic_2_Guitar,6,5,Dl_Nostalgic_2_Guitar,0.1074812039732933,0
57,100,1.1818181818181819,400,0,9,Dl_Nostalgic_2_Guitar,6,15,Dl_Nostalgic_2_Guitar,0.12482982128858566,0
57,100,0.22272727272727272,761,1,9,Dl_Nostalgic_2_Guitar,6,4,Dl_Nostalgic_2_Guitar,0.179037407040596,0
57,100,0.12272727272727273,25,1,10,Dl_Nostalgic_2_Guitar,6,2,Dl_Nostalgic_2_Guitar,0.9988419413566589,1
69,100,0.1,254,0,10,Dl_Nostalgic_2_Guitar,6,2,Dl_Nostalgic_2_Guitar,0.1372516006231308,0
57,100,0.6409090909090909,276,0,10,Dl_Nostalgic_2_Guitar,6,10,Dl_Nostalgic_2_Guitar,0.15978017449378967,0
57,100,0.1,470,0,10,Dl_Nostalgic_2_Guitar,6,2,Dl_Nostalgic_2_Guitar,0.18645210564136505,0
57,100,0.740909090909091,735,1,10,Dl_Nostalgic_2_Guitar,6,12,Dl_Nostalgic_2_Guitar,0.2581646740436554,0
57,100,0.2590909090909091,233,1,11,Dl_Nostalgic_2_Guitar,6,4,Dl_Nostalgic_2_Guitar,0.9988419413566589,1
57,100,0.5,295,0,11,Dl_Nostalgic_2_Guitar,6,8,Dl_Nostalgic_2_Guitar,0.1372494250535965,0
57,100,0.5363636363636364,414,0,11,Dl_Nostalgic_2_Guitar,6,9,Dl_Nostalgic_2_Guitar,0.15978620946407318,0
54,100,1.240909090909091,541,0,11,Dl_Nostalgic_2_Guitar,6,15,Dl_Nostalgic_2_Guitar,0.18645605444908142,0
57,100,0.2818181818181818,818,1,11,Dl_Nostalgic_2_Guitar,6,5,Dl_Nostalgic_2_Guitar,0.25817641615867615,0
54,100,0.4,175,1,12,Dl_Nostalgic_2_Guitar,6,6,Dl_Nostalgic_2_Guitar,0.9986500144004822,1
54,100,0.1,268,0,12,Dl_Nostalgic_2_Guitar,6,2,Dl_Nostalgic_2_Guitar,0.08780258893966675,0
57,100,0.4590909090909091,414,0,12,Dl_Nostalgic_2_Guitar,6,7,Dl_Nostalgic_2_Guitar,0.0918121188879013,0
61,100,0.17727272727272728,536,0,12,Dl_Nostalgic_2_Guitar,6,3,Dl_Nostalgic_2_Guitar,0.10747767239809036,0
54,100,0.5409090909090909,660,0,12,Dl_Nostalgic_2_Guitar,6,9,Dl_Nostalgic_2_Guitar,0.12482523173093796,0
57,100,0.1,809,0,12,Dl_Nostalgic_2_Guitar,6,2,Dl_Nostalgic_2_Guitar,0.17903171479701996,0
57,100,0.1590909090909091,13,1,13,Dl_Nostalgic_2_Guitar,6,3,Dl_Nostalgic_2_Guitar,0.9988419413566589,1
69,100,0.3,79,0,13,Dl_Nostalgic_2_Guitar,6,5,Dl_Nostalgic_2_Guitar,0.1372535526752472,0
69,100,0.2409090909090909,163,0,13,Dl_Nostalgic_2_Guitar,6,4,Dl_Nostalgic_2_Guitar,0.15978781878948212,0
57,100,0.2636363636363636,290,0,13,Dl_Nostalgic_2_Guitar,6,4,Dl_Nostalgic_2_Guitar,0.18646015226840973,0
57,100,0.6818181818181818,527,1,13,Dl_Nostalgic_2_Guitar,6,11,Dl_Nostalgic_2_Guitar,0.25816819071769714,0
57,100,0.3409090909090909,96,1,14,Dl_Nostalgic_2_Guitar,6,5,Dl_Nostalgic_2_Guitar,0.9983165264129639,1
57,100,0.8363636363636363,567,1,14,Dl_Nostalgic_2_Guitar,6,13,Dl_Nostalgic_2_Guitar,0.5445619225502014,0
57,100,0.35909090909090907,171,1,15,Dl_Nostalgic_2_Guitar,6,6,Dl_Nostalgic_2_Guitar,0.9986500144004822,1
57,100,0.2590909090909091,254,0,15,Dl_Nostalgic_2_Guitar,6,4,Dl_Nostalgic_2_Guitar,0.08780746906995773,0
57,100,0.38181818181818183,321,0,15,Dl_Nostalgic_2_Guitar,6,6,Dl_Nostalgic_2_Guitar,0.09181878715753555,0
57,100,0.1409090909090909,558,1,15,Dl_Nostalgic_2_Guitar,6,2,Dl_Nostalgic_2_Guitar,0.10748540610074997,0
57,100,0.42272727272727273,651,0,15,Dl_Nostalgic_2_Guitar,6,7,Dl_Nostalgic_2_Guitar,0.12483754754066467,0
57,100,0.38181818181818183,804,0,15,Dl_Nostalgic_2_Guitar,6,6,Dl_Nostalgic_2_Guitar,0.17904286086559296,0
57,100,0.1,100,1,16,Dl_Nostalgic_2_Guitar,6,2,Dl_Nostalgic_2_Guitar,0.9986500144004822,1
57,100,0.38181818181818183,254,0,16,Dl_Nostalgic_2_Guitar,6,6,Dl_Nostalgic_2_Guitar,0.0878068208694458,0
57,100,0.21818181818181817,347,0,16,Dl_Nostalgic_2_Guitar,6,3,Dl_Nostalgic_2_Guitar,0.09181662648916245,0
57,100,0.3,426,0,16,Dl_Nostalgic_2_Guitar,6,5,Dl_Nostalgic_2_Guitar,0.10748414695262909,0
57,100,0.2818181818181818,550,0,16,Dl_Nostalgic_2_Guitar,6,5,Dl_Nostalgic_2_Guitar,0.12482988089323044,0
57,100,0.6409090909090909,729,0,16,Dl_Nostalgic_2_Guitar,6,10,Dl_Nostalgic_2_Guitar,0.17904509603977203,0
57,100,1.3818181818181818,3,1,17,Dl_Nostalgic_2_Guitar,6,15,Dl_Nostalgic_2_Guitar,0.9984880685806274,1
57,100,0.5590909090909091,326,1,17,Dl_Nostalgic_2_Guitar,6,9,Dl_Nostalgic_2_Guitar,0.0633455440402031,0
57,100,0.4590909090909091,457,0,17,Dl_Nostalgic_2_Guitar,6,7,Dl_Nostalgic_2_Guitar,0.0577436201274395,0
57,100,0.2409090909090909,594,0,17,Dl_Nostalgic_2_Guitar,6,4,Dl_Nostalgic_2_Guitar,0.06020336598157883,0
57,100,0.1409090909090909,660,0,17,Dl_Nostalgic_2_Guitar,6,2,Dl_Nostalgic_2_Guitar,0.06970543414354324,0
57,100,0.2,700,0,17,Dl_Nostalgic_2_Guitar,6,3,Dl_Nostalgic_2_Guitar,0.08189911395311356,0
57,100,0.38181818181818183,804,0,17,Dl_Nostalgic_2_Guitar,6,6,Dl_Nostalgic_2_Guitar,0.12402443587779999,0
69,100,0.2,9,1,18,Dl_Nostalgic_2_Guitar,6,3,Dl_Nostalgic_2_Guitar,0.9990057349205017,1
57,100,0.5,52,0,18,Dl_Nostalgic_2_Guitar,6,8,Dl_Nostalgic_2_Guitar,0.23120467364788055,0
52,100,0.3409090909090909,185,0,18,Dl_Nostalgic_2_Guitar,6,5,Dl_Nostalgic_2_Guitar,0.26593196392059326,0
57,100,0.3409090909090909,409,0,18,Dl_Nostalgic_2_Guitar,6,5,Dl_Nostalgic_2_Guitar,0.3541971445083618,0
59,100,0.22272727272727272,3,1,19,Dl_Nostalgic_2_Guitar,6,4,Dl_Nostalgic_2_Guitar,0.9986500144004822,1
64,100,0.2818181818181818,110,0,19,Dl_Nostalgic_2_Guitar,6,5,Dl_Nostalgic_2_Guitar,0.08780250698328018,0
61,100,0.2590909090909091,189,0,19,Dl_Nostalgic_2_Guitar,6,4,Dl_Nostalgic_2_Guitar,0.09181270748376846,0
61,100,0.2409090909090909,673,1,19,Dl_Nostalgic_2_Guitar,6,4,Dl_Nostalgic_2_Guitar,0.10747954994440079,0
59,100,0.2,752,0,19,Dl_Nostalgic_2_Guitar,6,3,Dl_Nostalgic_2_Guitar,0.12482765316963196,0
59,100,0.9,814,0,19,Dl_Nostalgic_2_Guitar,6,14,Dl_Nostalgic_2_Guitar,0.1790311187505722,0
59,100,0.1409090909090909,136,1,20,Dl_Nostalgic_2_Guitar,6,2,Dl_Nostalgic_2_Guitar,0.9983736276626587,1
59,100,0.21818181818181817,175,0,20,Dl_Nostalgic_2_Guitar,6,3,Dl_Nostalgic_2_Guitar,0.05106092244386673,0
64,100,0.1409090909090909,295,0,20,Dl_Nostalgic_2_Guitar,6,2,Dl_Nostalgic_2_Guitar,0.04130292311310768,0
61,100,0.2409090909090909,409,0,20,Dl_Nostalgic_2_Guitar,6,4,Dl_Nostalgic_2_Guitar,0.037385471165180206,0
64,100,0.18181818181818182,488,0,20,Dl_Nostalgic_2_Guitar,6,3,Dl_Nostalgic_2_Guitar,0.03833077847957611,0
61,100,0.3,638,0,20,Dl_Nostalgic_2_Guitar,6,5,Dl_Nostalgic_2_Guitar,0.044751428067684174,0
61,100,0.2590909090909091,756,0,20,Dl_Nostalgic_2_Guitar,6,4,Dl_Nostalgic_2_Guitar,0.055230867117643356,0
61,100,0.2772727272727273,866,0,20,Dl_Nostalgic_2_Guitar,6,4,Dl_Nostalgic_2_Guitar,0.09026560187339783,0
61,100,0.3181818181818182,162,1,21,Dl_Nostalgic_2_Guitar,6,5,Dl_Nostalgic_2_Guitar,0.9986500144004822,1
61,100,0.35909090909090907,330,0,21,Dl_Nostalgic_2_Guitar,6,6,Dl_Nostalgic_2_Guitar,0.08780333399772644,0
61,100,0.4818181818181818,430,0,21,Dl_Nostalgic_2_Guitar,6,8,Dl_Nostalgic_2_Guitar,0.09181391447782516,0
61,100,0.1590909090909091,611,0,21,Dl_Nostalgic_2_Guitar,6,3,Dl_Nostalgic_2_Guitar,0.10747874528169632,0
61,100,0.43636363636363634,656,0,21,Dl_Nostalgic_2_Guitar,6,7,Dl_Nostalgic_2_Guitar,0.12482915073633194,0
61,100,0.37727272727272726,810,0,21,Dl_Nostalgic_2_Guitar,6,6,Dl_Nostalgic_2_Guitar,0.17903681099414825,0
52,100,0.1409090909090909,220,1,22,Dl_Nostalgic_2_Guitar,6,2,Dl_Nostalgic_2_Guitar,0.9983165264129639,1
57,100,0.11818181818181818,748,1,22,Dl_Nostalgic_2_Guitar,6,2,Dl_Nostalgic_2_Guitar,0.5445554256439209,0
52,100,0.1,21,1,23,Dl_Nostalgic_2_Guitar,6,2,Dl_Nostalgic_2_Guitar,0.9988419413566589,1
61,100,0.759090909090909,339,1,23,Dl_Nostalgic_2_Guitar,6,12,Dl_Nostalgic_2_Guitar,0.1372460424900055,0
62,100,0.3,584,1,23,Dl_Nostalgic_2_Guitar,6,5,Dl_Nostalgic_2_Guitar,0.15978029370307922,0
62,100,0.8590909090909091,673,0,23,Dl_Nostalgic_2_Guitar,6,14,Dl_Nostalgic_2_Guitar,0.18645079433918,0
62,100,0.1409090909090909,870,0,23,Dl_Nostalgic_2_Guitar,6,2,Dl_Nostalgic_2_Guitar,0.25817930698394775,0
62,100,0.12272727272727273,144,1,24,Dl_Nostalgic_2_Guitar,6,2,Dl_Nostalgic_2_Guitar,0.9990057349205017,1
59,100,0.1590909090909091,320,0,24,Dl_Nostalgic_2_Guitar,6,3,Dl_Nostalgic_2_Guitar,0.23121115565299988,0
59,100,0.6,436,0,24,Dl_Nostalgic_2_Guitar,6,10,Dl_Nostalgic_2_Guitar,0.26592394709587097,0
61,100,0.4,717,1,24,Dl_Nostalgic_2_Guitar,6,6,Dl_Nostalgic_2_Guitar,0.35419589281082153,0
57,100,0.4590909090909091,30,1,25,Dl_Nostalgic_2_Guitar,6,7,Dl_Nostalgic_2_Guitar,0.9990057349205017,1
58,100,0.2818181818181818,179,0,25,Dl_Nostalgic_2_Guitar,6,5,Dl_Nostalgic_2_Guitar,0.2312096506357193,0
61,100,0.21818181818181817,339,0,25,Dl_Nostalgic_2_Guitar,6,3,Dl_Nostalgic_2_Guitar,0.2659212350845337,0
62,100,0.6181818181818182,756,1,25,Dl_Nostalgic_2_Guitar,6,10,Dl_Nostalgic_2_Guitar,0.35420316457748413,0
57,100,0.12272727272727273,48,1,26,Dl_Nostalgic_2_Guitar,6,2,Dl_Nostalgic_2_Guitar,0.9986500144004822,1
62,100,0.2,100,0,26,Dl_Nostalgic_2_Guitar,6,3,Dl_Nostalgic_2_Guitar,0.08780701458454132,0
57,100,0.6181818181818182,150,0,26,Dl_Nostalgic_2_Guitar,6,10,Dl_Nostalgic_2_Guitar,0.09181736409664154,0
59,100,0.1590909090909091,656,1,26,Dl_Nostalgic_2_Guitar,6,3,Dl_Nostalgic_2_Guitar,0.10748568177223206,0
59,100,0.12272727272727273,708,0,26,Dl_Nostalgic_2_Guitar,6,2,Dl_Nostalgic_2_Guitar,0.12483423948287964,0
57,100,0.1590909090909091,822,0,26,Dl_Nostalgic_2_Guitar,6,3,Dl_Nostalgic_2_Guitar,0.17903973162174225,0
61,100,0.3409090909090909,92,1,27,Dl_Nostalgic_2_Guitar,6,5,Dl_Nostalgic_2_Guitar,0.9986500144004822,1
61,100,0.3,316,0,27,Dl_Nostalgic_2_Guitar,6,5,Dl_Nostalgic_2_Guitar,0.0878017470240593,0
52,100,0.4,488,0,27,Dl_Nostalgic_2_Guitar,6,6,Dl_Nostalgic_2_Guitar,0.09181352704763412,0
52,100,0.11818181818181818,602,0,27,Dl_Nostalgic_2_Guitar,6,2,Dl_Nostalgic_2_Guitar,0.10747640579938889,0
61,100,0.2590909090909091,700,0,27,Dl_Nostalgic_2_Guitar,6,4,Dl_Nostalgic_2_Guitar,0.12482450157403946,0
64,100,0.12272727272727273,862,0,27,Dl_Nostalgic_2_Guitar,6,2,Dl_Nostalgic_2_Guitar,0.1790391057729721,0
61,100,0.11818181818181818,9,1,28,Dl_Nostalgic_2_Guitar,6,2,Dl_Nostalgic_2_Guitar,0.9986500144004822,1
61,100,0.1409090909090909,44,0,28,Dl_Nostalgic_2_Guitar,6,2,Dl_Nostalgic_2_Guitar,0.08780521899461746,0
57,100,0.3181818181818182,281,1,28,Dl_Nostalgic_2_Guitar,6,5,Dl_Nostalgic_2_Guitar,0.09181541204452515,0
57,100,0.2409090909090909,387,0,28,Dl_Nostalgic_2_Guitar,6,4,Dl_Nostalgic_2_Guitar,0.10748151689767838,0
61,100,0.1590909090909091,691,1,28,Dl_Nostalgic_2_Guitar,6,3,Dl_Nostalgic_2_Guitar,0.1248316615819931,0
57,100,0.5409090909090909,791,0,28,Dl_Nostalgic_2_Guitar,6,9,Dl_Nostalgic_2_Guitar,0.1790355145931244,0
61,100,0.2409090909090909,123,1,29,Dl_Nostalgic_2_Guitar,6,4,Dl_Nostalgic_2_Guitar,0.9990229606628418,1
52,100,0.11818181818181818,501,1,29,Dl_Nostalgic_2_Guitar,6,2,Dl_Nostalgic_2_Guitar,0.36663156747817993,0
69,100,0.1409090909090909,827,1,29,Dl_Nostalgic_2_Guitar,6,2,Dl_Nostalgic_2_Guitar,0.45329469442367554,0
57,100,0.1409090909090909,167,1,30,Dl_Nostalgic_2_Guitar,6,2,Dl_Nostalgic_2_Guitar,0.9990057349205017,1
57,100,0.2,202,0,30,Dl_Nostalgic_2_Guitar,6,3,Dl_Nostalgic_2_Guitar,0.23120608925819397,0
69,100,0.21818181818181817,418,0,30,Dl_Nostalgic_2_Guitar,6,3,Dl_Nostalgic_2_Guitar,0.26592352986335754,0
57,100,0.1409090909090909,466,0,30,Dl_Nostalgic_2_Guitar,6,2,Dl_Nostalgic_2_Guitar,0.3542000353336334,0
57,100,0.1409090909090909,48,1,31,Dl_Nostalgic_2_Guitar,6,2,Dl_Nostalgic_2_Guitar,0.9990057349205017,1
61,100,0.1409090909090909,532,1,31,Dl_Nostalgic_2_Guitar,6,2,Dl_Nostalgic_2_Guitar,0.2312047779560089,0
61,100,0.17727272727272728,567,0,31,Dl_Nostalgic_2_Guitar,6,3,Dl_Nostalgic_2_Guitar,0.26592180132865906,0
61,100,0.1,646,0,31,Dl_Nostalgic_2_Guitar,6,2,Dl_Nostalgic_2_Guitar,0.3541930615901947,0
69,100,0.21818181818181817,105,1,32,Dl_Nostalgic_2_Guitar,6,3,Dl_Nostalgic_2_Guitar,0.9990057349205017,1
57,100,0.7227272727272728,334,0,32,Dl_Nostalgic_2_Guitar,6,12,Dl_Nostalgic_2_Guitar,0.23121313750743866,0
69,100,0.1409090909090909,576,1,32,Dl_Nostalgic_2_Guitar,6,2,Dl_Nostalgic_2_Guitar,0.265945166349411,0
57,100,1.8227272727272728,651,0,32,Dl_Nostalgic_2_Guitar,6,15,Dl_Nostalgic_2_Guitar,0.35419175028800964,0
69,100,0.18181818181818182,176,1,33,Dl_Nostalgic_2_Guitar,6,3,Dl_Nostalgic_2_Guitar,0.9988419413566589,1
57,100,0.9181818181818182,215,0,33,Dl_Nostalgic_2_Guitar,6,15,Dl_Nostalgic_2_Guitar,0.13725030422210693,0
57,100,0.6227272727272727,509,1,33,Dl_Nostalgic_2_Guitar,6,10,Dl_Nostalgic_2_Guitar,0.1597842127084732,0
57,100,0.33636363636363636,655,0,33,Dl_Nostalgic_2_Guitar,6,5,Dl_Nostalgic_2_Guitar,0.18645428121089935,0
64,100,0.2,765,0,33,Dl_Nostalgic_2_Guitar,6,3,Dl_Nostalgic_2_Guitar,0.25817739963531494,0
61,100,0.11818181818181818,0,1,34,Dl_Nostalgic_2_Guitar,6,2,Dl_Nostalgic_2_Guitar,0.9986500144004822,1
57,100,1.018181818181818,263,1,34,Dl_Nostalgic_2_Guitar,6,15,Dl_Nostalgic_2_Guitar,0.0878041461110115,0
54,100,0.2409090909090909,496,1,34,Dl_Nostalgic_2_Guitar,6,4,Dl_Nostalgic_2_Guitar,0.09181533008813858,0
54,100,0.12272727272727273,619,0,34,Dl_Nostalgic_2_Guitar,6,2,Dl_Nostalgic_2_Guitar,0.10747849196195602,0
69,100,0.11818181818181818,756,0,34,Dl_Nostalgic_2_Guitar,6,2,Dl_Nostalgic_2_Guitar,0.12482599169015884,0
54,100,0.2409090909090909,804,0,34,Dl_Nostalgic_2_Guitar,6,4,Dl_Nostalgic_2_Guitar,0.17903117835521698,0
54,100,0.3409090909090909,21,1,35,Dl_Nostalgic_2_Guitar,6,5,Dl_Nostalgic_2_Guitar,0.9983736276626587,1
69,100,0.11818181818181818,348,1,35,Dl_Nostalgic_2_Guitar,6,2,Dl_Nostalgic_2_Guitar,0.051061708480119705,0
54,100,0.42272727272727273,399,0,35,Dl_Nostalgic_2_Guitar,6,7,Dl_Nostalgic_2_Guitar,0.04130377247929573,0
54,100,0.11818181818181818,506,0,35,Dl_Nostalgic_2_Guitar,6,2,Dl_Nostalgic_2_Guitar,0.03738575428724289,0
52,100,0.4,576,0,35,Dl_Nostalgic_2_Guitar,6,6,Dl_Nostalgic_2_Guitar,0.038329143077135086,0
61,100,0.16363636363636364,664,0,35,Dl_Nostalgic_2_Guitar,6,3,Dl_Nostalgic_2_Guitar,0.04475013539195061,0
52,100,0.3409090909090909,729,0,35,Dl_Nostalgic_2_Guitar,6,5,Dl_Nostalgic_2_Guitar,0.055227916687726974,0
52,100,0.2590909090909091,810,0,35,Dl_Nostalgic_2_Guitar,6,4,Dl_Nostalgic_2_Guitar,0.09026319533586502,0
52,100,0.4,8,1,36,Dl_Nostalgic_2_Guitar,6,6,Dl_Nostalgic_2_Guitar,0.9983003735542297,1
61,100,0.21818181818181817,96,0,36,Dl_Nostalgic_2_Guitar,6,3,Dl_Nostalgic_2_Guitar,0.04466341435909271,0
52,100,0.2,185,0,36,Dl_Nostalgic_2_Guitar,6,3,Dl_Nostalgic_2_Guitar,0.03315085545182228,0
52,100,0.3181818181818182,308,0,36,Dl_Nostalgic_2_Guitar,6,5,Dl_Nostalgic_2_Guitar,0.026580702513456345,0
57,100,0.1409090909090909,421,0,36,Dl_Nostalgic_2_Guitar,6,2,Dl_Nostalgic_2_Guitar,0.0235962625592947,0
52,100,0.1409090909090909,619,0,36,Dl_Nostalgic_2_Guitar,6,2,Dl_Nostalgic_2_Guitar,0.02431562729179859,0
61,100,0.13636363636363635,700,0,36,Dl_Nostalgic_2_Guitar,6,2,Dl_Nostalgic_2_Guitar,0.029690561816096306,0
52,100,0.2,778,0,36,Dl_Nostalgic_2_Guitar,6,3,Dl_Nostalgic_2_Guitar,0.040078334510326385,0
52,100,0.17727272727272728,845,0,36,Dl_Nostalgic_2_Guitar,6,3,Dl_Nostalgic_2_Guitar,0.07093001157045364,0
69,100,0.1409090909090909,21,1,37,Dl_Nostalgic_2_Guitar,6,2,Dl_Nostalgic_2_Guitar,0.9983736276626587,1
52,100,0.1409090909090909,185,0,37,Dl_Nostalgic_2_Guitar,6,2,Dl_Nostalgic_2_Guitar,0.051060620695352554,0
59,100,0.2772727272727273,238,0,37,Dl_Nostalgic_2_Guitar,6,4,Dl_Nostalgic_2_Guitar,0.0413019135594368,0
59,100,0.3,348,0,37,Dl_Nostalgic_2_Guitar,6,5,Dl_Nostalgic_2_Guitar,0.037385325878858566,0
52,100,0.2,426,0,37,Dl_Nostalgic_2_Guitar,6,3,Dl_Nostalgic_2_Guitar,0.03832855448126793,0
52,100,0.2,506,0,37,Dl_Nostalgic_2_Guitar,6,3,Dl_Nostalgic_2_Guitar,0.04475051164627075,0
61,100,0.2590909090909091,660,0,37,Dl_Nostalgic_2_Guitar,6,4,Dl_Nostalgic_2_Guitar,0.055227894335985184,0
61,100,0.3181818181818182,823,0,37,Dl_Nostalgic_2_Guitar,6,5,Dl_Nostalgic_2_Guitar,0.09026481956243515,0
61,100,0.2,179,1,38,Dl_Nostalgic_2_Guitar,6,3,Dl_Nostalgic_2_Guitar,0.9983004927635193,1
57,100,0.1,263,0,38,Dl_Nostalgic_2_Guitar,6,2,Dl_Nostalgic_2_Guitar,0.0446648970246315,0
61,100,0.1409090909090909,298,0,38,Dl_Nostalgic_2_Guitar,6,2,Dl_Nostalgic_2_Guitar,0.03315095603466034,0
56,100,0.4,338,0,38,Dl_Nostalgic_2_Guitar,6,6,Dl_Nostalgic_2_Guitar,0.026581892743706703,0
56,100,0.3,431,0,38,Dl_Nostalgic_2_Guitar,6,5,Dl_Nostalgic_2_Guitar,0.02359633892774582,0
59,100,0.11818181818181818,536,0,38,Dl_Nostalgic_2_Guitar,6,2,Dl_Nostalgic_2_Guitar,0.02431640774011612,0
64,100,0.18181818181818182,783,1,38,Dl_Nostalgic_2_Guitar,6,3,Dl_Nostalgic_2_Guitar,0.029690833762288094,0
52,100,0.11818181818181818,831,0,38,Dl_Nostalgic_2_Guitar,6,2,Dl_Nostalgic_2_Guitar,0.040079161524772644,0
57,100,0.8227272727272728,871,0,38,Dl_Nostalgic_2_Guitar,6,13,Dl_Nostalgic_2_Guitar,0.07092886418104172,0
57,100,0.2,246,1,39,Dl_Nostalgic_2_Guitar,6,3,Dl_Nostalgic_2_Guitar,0.9988419413566589,1
57,100,0.11818181818181818,295,0,39,Dl_Nostalgic_2_Guitar,6,2,Dl_Nostalgic_2_Guitar,0.13725446164608002,0
57,100,0.7818181818181819,364,0,39,Dl_Nostalgic_2_Guitar,6,13,Dl_Nostalgic_2_Guitar,0.15978677570819855,0
61,100,0.17727272727272728,611,1,39,Dl_Nostalgic_2_Guitar,6,3,Dl_Nostalgic_2_Guitar,0.18645930290222168,0
57,100,1.040909090909091,664,0,39,Dl_Nostalgic_2_Guitar,6,15,Dl_Nostalgic_2_Guitar,0.2581733763217926,0
61,100,0.21818181818181817,118,1,40,Dl_Nostalgic_2_Guitar,6,3,Dl_Nostalgic_2_Guitar,0.9986500144004822,1
61,100,0.41818181818181815,418,1,40,Dl_Nostalgic_2_Guitar,6,7,Dl_Nostalgic_2_Guitar,0.08780620992183685,0
56,100,0.6,515,0,40,Dl_Nostalgic_2_Guitar,6,10,Dl_Nostalgic_2_Guitar,0.09181533008813858,0
64,100,0.1409090909090909,686,0,40,Dl_Nostalgic_2_Guitar,6,2,Dl_Nostalgic_2_Guitar,0.10748229920864105,0
57,100,0.2,748,0,40,Dl_Nostalgic_2_Guitar,6,3,Dl_Nostalgic_2_Guitar,0.12482661008834839,0
64,100,0.5,796,0,40,Dl_Nostalgic_2_Guitar,6,8,Dl_Nostalgic_2_Guitar,0.1790432333946228,0
57,100,0.2590909090909091,131,1,41,Dl_Nostalgic_2_Guitar,6,4,Dl_Nostalgic_2_Guitar,0.9990057349205017,1
57,100,0.1590909090909091,506,1,41,Dl_Nostalgic_2_Guitar,6,3,Dl_Nostalgic_2_Guitar,0.2312079668045044,0
57,100,1.0,598,0,41,Dl_Nostalgic_2_Guitar,6,15,Dl_Nostalgic_2_Guitar,0.26592376828193665,0
61,100,0.12272727272727273,839,1,41,Dl_Nostalgic_2_Guitar,6,2,Dl_Nostalgic_2_Guitar,0.3541920483112335,0
57,100,0.23636363636363636,40,1,42,Dl_Nostalgic_2_Guitar,6,4,Dl_Nostalgic_2_Guitar,0.9988419413566589,1
62,100,0.35909090909090907,330,1,42,Dl_Nostalgic_2_Guitar,6,6,Dl_Nostalgic_2_Guitar,0.1372493952512741,0
62,100,0.38181818181818183,571,1,42,Dl_Nostalgic_2_Guitar,6,6,Dl_Nostalgic_2_Guitar,0.159780353307724,0
59,100,0.36363636363636365,664,0,42,Dl_Nostalgic_2_Guitar,6,6,Dl_Nostalgic_2_Guitar,0.18646037578582764,0
64,100,0.11818181818181818,858,0,42,Dl_Nostalgic_2_Guitar,6,2,Dl_Nostalgic_2_Guitar,0.25817549228668213,0
57,100,0.9227272727272727,254,1,43,Dl_Nostalgic_2_Guitar,6,15,Dl_Nostalgic_2_Guitar,0.9990057349205017,1
57,100,0.2,506,1,43,Dl_Nostalgic_2_Guitar,6,3,Dl_Nostalgic_2_Guitar,0.23120659589767456,0
58,100,0.740909090909091,651,0,43,Dl_Nostalgic_2_Guitar,6,12,Dl_Nostalgic_2_Guitar,0.26592347025871277,0
58,100,0.37727272727272726,875,0,43,Dl_Nostalgic_2_Guitar,6,6,Dl_Nostalgic_2_Guitar,0.35419079661369324,0
54,100,0.12272727272727273,364,1,44,Dl_Nostalgic_2_Guitar,6,2,Dl_Nostalgic_2_Guitar,0.9990057349205017,1
57,100,0.2590909090909091,625,1,44,Dl_Nostalgic_2_Guitar,6,4,Dl_Nostalgic_2_Guitar,0.23120205104351044,0
57,100,0.2590909090909091,756,0,44,Dl_Nostalgic_2_Guitar,6,4,Dl_Nostalgic_2_Guitar,0.2659238278865814,0
59,100,0.21818181818181817,823,0,44,Dl_Nostalgic_2_Guitar,6,3,Dl_Nostalgic_2_Guitar,0.3541980981826782,0
52,100,0.35909090909090907,298,1,45,Dl_Nostalgic_2_Guitar,6,6,Dl_Nostalgic_2_Guitar,0.9990057349205017,1
61,100,1.1,418,0,45,Dl_Nostalgic_2_Guitar,6,15,Dl_Nostalgic_2_Guitar,0.23119930922985077,0
52,100,0.1409090909090909,716,1,45,Dl_Nostalgic_2_Guitar,6,2,Dl_Nostalgic_2_Guitar,0.26592209935188293,0
61,100,0.2590909090909091,813,0,45,Dl_Nostalgic_2_Guitar,6,4,Dl_Nostalgic_2_Guitar,0.35419797897338867,0
61,100,0.2409090909090909,166,1,46,Dl_Nostalgic_2_Guitar,6,4,Dl_Nostalgic_2_Guitar,0.9988419413566589,1
61,100,0.1,496,1,46,Dl_Nostalgic_2_Guitar,6,2,Dl_Nostalgic_2_Guitar,0.13724443316459656,0
61,100,0.4,523,0,46,Dl_Nostalgic_2_Guitar,6,6,Dl_Nostalgic_2_Guitar,0.15977276861667633,0
61,100,0.17727272727272728,655,0,46,Dl_Nostalgic_2_Guitar,6,3,Dl_Nostalgic_2_Guitar,0.18644516170024872,0
62,100,0.41818181818181815,813,0,46,Dl_Nostalgic_2_Guitar,6,7,Dl_Nostalgic_2_Guitar,0.25816643238067627,0
61,100,0.32272727272727275,26,1,47,Dl_Nostalgic_2_Guitar,6,5,Dl_Nostalgic_2_Guitar,0.9986500144004822,1
56,100,0.9,110,0,47,Dl_Nostalgic_2_Guitar,6,14,Dl_Nostalgic_2_Guitar,0.08780399709939957,0
52,100,0.1590909090909091,528,1,47,Dl_Nostalgic_2_Guitar,6,3,Dl_Nostalgic_2_Guitar,0.09181537479162216,0
52,100,0.11818181818181818,568,0,47,Dl_Nostalgic_2_Guitar,6,2,Dl_Nostalgic_2_Guitar,0.10748078674077988,0
57,100,0.11818181818181818,625,0,47,Dl_Nostalgic_2_Guitar,6,2,Dl_Nostalgic_2_Guitar,0.12482940405607224,0
57,100,0.4,678,0,47,Dl_Nostalgic_2_Guitar,6,6,Dl_Nostalgic_2_Guitar,0.17903341352939606,0
57,100,0.3,31,1,48,Dl_Nostalgic_2_Guitar,6,5,Dl_Nostalgic_2_Guitar,0.9988419413566589,1
57,100,0.6590909090909091,101,0,48,Dl_Nostalgic_2_Guitar,6,11,Dl_Nostalgic_2_Guitar,0.1372545212507248,0
57,100,0.8590909090909091,343,1,48,Dl_Nostalgic_2_Guitar,6,14,Dl_Nostalgic_2_Guitar,0.15978305041790009,0
61,100,1.0,646,1,48,Dl_Nostalgic_2_Guitar,6,15,Dl_Nostalgic_2_Guitar,0.18644942343235016,0
61,100,0.12272727272727273,871,0,48,Dl_Nostalgic_2_Guitar,6,2,Dl_Nostalgic_2_Guitar,0.25817227363586426,0
61,100,0.1409090909090909,53,1,49,Dl_Nostalgic_2_Guitar,6,2,Dl_Nostalgic_2_Guitar,0.9984880685806274,1
62,100,0.1409090909090909,179,0,49,Dl_Nostalgic_2_Guitar,6,2,Dl_Nostalgic_2_Guitar,0.06334707140922546,0
62,100,0.1,215,0,49,Dl_Nostalgic_2_Guitar,6,2,Dl_Nostalgic_2_Guitar,0.05774576589465141,0
56,100,0.32272727272727275,268,0,49,Dl_Nostalgic_2_Guitar,6,5,Dl_Nostalgic_2_Guitar,0.06020630523562431,0
59,100,1.1409090909090909,383,0,49,Dl_Nostalgic_2_Guitar,6,15,Dl_Nostalgic_2_Guitar,0.0697074607014656,0
52,100,0.18181818181818182,694,1,49,Dl_Nostalgic_2_Guitar,6,3,Dl_Nostalgic_2_Guitar,0.08190370351076126,0
61,100,1.1227272727272728,738,0,49,Dl_Nostalgic_2_Guitar,6,15,Dl_Nostalgic_2_Guitar,0.1240222379565239,0
57,100,0.1590909090909091,123,1,50,Dl_Nostalgic_2_Guitar,6,3,Dl_Nostalgic_2_Guitar,0.9988419413566589,1
61,100,0.2409090909090909,268,0,50,Dl_Nostalgic_2_Guitar,6,4,Dl_Nostalgic_2_Guitar,0.13724996149539948,0
57,100,0.5181818181818182,325,0,50,Dl_Nostalgic_2_Guitar,6,8,Dl_Nostalgic_2_Guitar,0.15977418422698975,0
52,100,0.17727272727272728,448,0,50,Dl_Nostalgic_2_Guitar,6,3,Dl_Nostalgic_2_Guitar,0.18645155429840088,0
52,100,0.11818181818181818,743,1,50,Dl_Nostalgic_2_Guitar,6,2,Dl_Nostalgic_2_Guitar,0.258168488740921,0
62,100,0.3,144,1,51,Dl_Nostalgic_2_Guitar,6,5,Dl_Nostalgic_2_Guitar,0.9988419413566589,1
62,100,0.1590909090909091,316,0,51,Dl_Nostalgic_2_Guitar,6,3,Dl_Nostalgic_2_Guitar,0.13725228607654572,0
56,100,0.4,483,0,51,Dl_Nostalgic_2_Guitar,6,6,Dl_Nostalgic_2_Guitar,0.1597844511270523,0
64,100,0.12272727272727273,686,0,51,Dl_Nostalgic_2_Guitar,6,2,Dl_Nostalgic_2_Guitar,0.1864614486694336,0
61,100,0.22272727272727272,839,0,51,Dl_Nostalgic_2_Guitar,6,4,Dl_Nostalgic_2_Guitar,0.2581713795661926,0
57,100,0.11818181818181818,31,1,52,Dl_Nostalgic_2_Guitar,6,2,Dl_Nostalgic_2_Guitar,0.9986500144004822,1
57,100,0.13636363636363635,61,0,52,Dl_Nostalgic_2_Guitar,6,2,Dl_Nostalgic_2_Guitar,0.08780492097139359,0
57,100,0.5227272727272727,123,0,52,Dl_Nostalgic_2_Guitar,6,8,Dl_Nostalgic_2_Guitar,0.09181362390518188,0
61,100,0.37727272727272726,238,0,52,Dl_Nostalgic_2_Guitar,6,6,Dl_Nostalgic_2_Guitar,0.10747841000556946,0
61,100,0.36363636363636365,421,0,52,Dl_Nostalgic_2_Guitar,6,6,Dl_Nostalgic_2_Guitar,0.12482714653015137,0
61,100,0.41818181818181815,545,0,52,Dl_Nostalgic_2_Guitar,6,7,Dl_Nostalgic_2_Guitar,0.17903156578540802,0
57,100,0.1409090909090909,13,1,53,Dl_Nostalgic_2_Guitar,6,2,Dl_Nostalgic_2_Guitar,0.9983736276626587,1
61,100,0.1,43,0,53,Dl_Nostalgic_2_Guitar,6,2,Dl_Nostalgic_2_Guitar,0.05106129124760628,0
54,100,0.35909090909090907,101,0,53,Dl_Nostalgic_2_Guitar,6,6,Dl_Nostalgic_2_Guitar,0.04130354896187782,0
57,100,0.1409090909090909,220,0,53,Dl_Nostalgic_2_Guitar,6,2,Dl_Nostalgic_2_Guitar,0.03738618269562721,0
57,100,0.1,276,0,53,Dl_Nostalgic_2_Guitar,6,2,Dl_Nostalgic_2_Guitar,0.03833112120628357,0
57,100,0.1409090909090909,506,0,53,Dl_Nostalgic_2_Guitar,6,2,Dl_Nostalgic_2_Guitar,0.044754158705472946,0
56,100,0.11818181818181818,590,0,53,Dl_Nostalgic_2_Guitar,6,2,Dl_Nostalgic_2_Guitar,0.05523247271776199,0
56,100,0.8409090909090909,619,0,53,Dl_Nostalgic_2_Guitar,6,13,Dl_Nostalgic_2_Guitar,0.09026578068733215,0
61,100,0.2590909090909091,96,1,54,Dl_Nostalgic_2_Guitar,6,4,Dl_Nostalgic_2_Guitar,0.9990057349205017,1
57,100,0.5590909090909091,163,0,54,Dl_Nostalgic_2_Guitar,6,9,Dl_Nostalgic_2_Guitar,0.23121148347854614,0
57,100,0.3,480,1,54,Dl_Nostalgic_2_Guitar,6,5,Dl_Nostalgic_2_Guitar,0.2659364640712738,0
57,100,1.0,584,0,54,Dl_Nostalgic_2_Guitar,6,15,Dl_Nostalgic_2_Guitar,0.35420843958854675,0
57,100,0.21818181818181817,40,1,55,Dl_Nostalgic_2_Guitar,6,3,Dl_Nostalgic_2_Guitar,0.9983165264129639,1
52,100,0.13636363636363635,875,1,55,Dl_Nostalgic_2_Guitar,6,2,Dl_Nostalgic_2_Guitar,0.544561505317688,0
52,100,0.6,31,1,56,Dl_Nostalgic_2_Guitar,6,10,Dl_Nostalgic_2_Guitar,0.9988419413566589,1
52,100,0.4818181818181818,188,0,56,Dl_Nostalgic_2_Guitar,6,8,Dl_Nostalgic_2_Guitar,0.1372506469488144,0
61,100,0.5363636363636364,325,0,56,Dl_Nostalgic_2_Guitar,6,9,Dl_Nostalgic_2_Guitar,0.15977533161640167,0
61,100,0.1590909090909091,448,0,56,Dl_Nostalgic_2_Guitar,6,3,Dl_Nostalgic_2_Guitar,0.18645255267620087,0
61,100,0.9590909090909091,866,1,56,Dl_Nostalgic_2_Guitar,6,15,Dl_Nostalgic_2_Guitar,0.2581664025783539,0
61,100,0.2,211,1,57,Dl_Nostalgic_2_Guitar,6,3,Dl_Nostalgic_2_Guitar,0.9990057349205017,1
64,100,0.21818181818181817,273,0,57,Dl_Nostalgic_2_Guitar,6,3,Dl_Nostalgic_2_Guitar,0.23120714724063873,0
61,100,0.2590909090909091,321,0,57,Dl_Nostalgic_2_Guitar,6,4,Dl_Nostalgic_2_Guitar,0.2659214437007904,0
62,100,0.1409090909090909,848,1,57,Dl_Nostalgic_2_Guitar,6,2,Dl_Nostalgic_2_Guitar,0.3542027473449707,0
52,100,0.32272727272727275,188,1,58,Dl_Nostalgic_2_Guitar,6,5,Dl_Nostalgic_2_Guitar,0.9990230798721313,1
52,100,0.5590909090909091,386,0,58,Dl_Nostalgic_2_Guitar,6,9,Dl_Nostalgic_2_Guitar,0.36663439869880676,0
57,100,1.540909090909091,515,0,58,Dl_Nostalgic_2_Guitar,6,15,Dl_Nostalgic_2_Guitar,0.4532894790172577,0
57,100,0.3181818181818182,21,1,59,Dl_Nostalgic_2_Guitar,6,5,Dl_Nostalgic_2_Guitar,0.9990057349205017,1
61,100,0.6181818181818182,96,0,59,Dl_Nostalgic_2_Guitar,6,10,Dl_Nostalgic_2_Guitar,0.23119860887527466,0
52,100,0.1409090909090909,431,1,59,Dl_Nostalgic_2_Guitar,6,2,Dl_Nostalgic_2_Guitar,0.2659265398979187,0
61,100,0.2,506,0,59,Dl_Nostalgic_2_Guitar,6,3,Dl_Nostalgic_2_Guitar,0.35419172048568726,0
62,100,0.18181818181818182,91,1,60,Dl_Nostalgic_2_Guitar,6,3,Dl_Nostalgic_2_Guitar,0.9986500144004822,1
56,100,0.4409090909090909,166,0,60,Dl_Nostalgic_2_Guitar,6,7,Dl_Nostalgic_2_Guitar,0.08780314028263092,0
56,100,0.1409090909090909,273,0,60,Dl_Nostalgic_2_Guitar,6,2,Dl_Nostalgic_2_Guitar,0.09181620925664902,0
56,100,0.3181818181818182,308,0,60,Dl_Nostalgic_2_Guitar,6,5,Dl_Nostalgic_2_Guitar,0.10747744888067245,0
59,100,0.9409090909090909,638,1,60,Dl_Nostalgic_2_Guitar,6,15,Dl_Nostalgic_2_Guitar,0.12482453137636185,0
59,100,0.11818181818181818,866,0,60,Dl_Nostalgic_2_Guitar,6,2,Dl_Nostalgic_2_Guitar,0.1790318787097931,0
61,100,0.5,105,1,61,Dl_Nostalgic_2_Guitar,6,8,Dl_Nostalgic_2_Guitar,0.9988419413566589,1
61,100,0.3409090909090909,251,0,61,Dl_Nostalgic_2_Guitar,6,5,Dl_Nostalgic_2_Guitar,0.13725101947784424,0
61,100,0.11818181818181818,536,1,61,Dl_Nostalgic_2_Guitar,6,2,Dl_Nostalgic_2_Guitar,0.1597820222377777,0
57,100,0.12272727272727273,686,0,61,Dl_Nostalgic_2_Guitar,6,2,Dl_Nostalgic_2_Guitar,0.18645188212394714,0
62,100,1.5818181818181818,729,0,61,Dl_Nostalgic_2_Guitar,6,15,Dl_Nostalgic_2_Guitar,0.2581745386123657,0
62,100,0.4409090909090909,220,1,62,Dl_Nostalgic_2_Guitar,6,7,Dl_Nostalgic_2_Guitar,0.9990229606628418,1
52,100,1.1772727272727272,338,0,62,Dl_Nostalgic_2_Guitar,6,15,Dl_Nostalgic_2_Guitar,0.36662963032722473,0
64,100,0.42272727272727273,804,1,62,Dl_Nostalgic_2_Guitar,6,7,Dl_Nostalgic_2_Guitar,0.4533008933067322,0
59,100,0.3,96,1,63,Dl_Nostalgic_2_Guitar,6,5,Dl_Nostalgic_2_Guitar,0.9990229606628418,1
52,100,0.4409090909090909,201,0,63,Dl_Nostalgic_2_Guitar,6,7,Dl_Nostalgic_2_Guitar,0.36662688851356506,0
52,100,0.43636363636363634,303,0,63,Dl_Nostalgic_2_Guitar,6,7,Dl_Nostalgic_2_Guitar,0.4532875418663025,0
68,100,0.2,153,1,64,Dl_Nostalgic_2_Guitar,6,3,Dl_Nostalgic_2_Guitar,0.9983165264129639,1
59,100,0.21818181818181817,546,1,64,Dl_Nostalgic_2_Guitar,6,3,Dl_Nostalgic_2_Guitar,0.5445578098297119,0
61,100,0.22272727272727272,377,1,65,Dl_Nostalgic_2_Guitar,6,4,Dl_Nostalgic_2_Guitar,0.9983164072036743,1
56,100,1.0,585,0,65,Dl_Nostalgic_2_Guitar,6,15,Dl_Nostalgic_2_Guitar,0.5445484519004822,0
68,100,0.35909090909090907,87,1,66,Dl_Nostalgic_2_Guitar,6,6,Dl_Nostalgic_2_Guitar,0.9983003735542297,1
61,100,0.1409090909090909,202,0,66,Dl_Nostalgic_2_Guitar,6,2,Dl_Nostalgic_2_Guitar,0.0446634516119957,0
64,100,0.41818181818181815,260,0,66,Dl_Nostalgic_2_Guitar,6,7,Dl_Nostalgic_2_Guitar,0.033149603754282,0
61,100,0.35909090909090907,352,0,66,Dl_Nostalgic_2_Guitar,6,6,Dl_Nostalgic_2_Guitar,0.026579029858112335,0
57,100,0.12272727272727273,443,0,66,Dl_Nostalgic_2_Guitar,6,2,Dl_Nostalgic_2_Guitar,0.023595888167619705,0
61,100,0.11818181818181818,590,0,66,Dl_Nostalgic_2_Guitar,6,2,Dl_Nostalgic_2_Guitar,0.024313755333423615,0
64,100,0.1,673,0,66,Dl_Nostalgic_2_Guitar,6,2,Dl_Nostalgic_2_Guitar,0.029690023511648178,0
59,100,0.21818181818181817,722,0,66,Dl_Nostalgic_2_Guitar,6,3,Dl_Nostalgic_2_Guitar,0.04007723182439804,0
61,100,0.5409090909090909,817,0,66,Dl_Nostalgic_2_Guitar,6,9,Dl_Nostalgic_2_Guitar,0.0709262415766716,0
62,100,0.7181818181818181,567,1,67,Dl_Nostalgic_2_Guitar,6,11,Dl_Nostalgic_2_Guitar,0.9983165264129639,1
56,100,0.9590909090909091,726,0,67,Dl_Nostalgic_2_Guitar,6,15,Dl_Nostalgic_2_Guitar,0.5445532202720642,0
68,100,0.18181818181818182,92,1,68,Dl_Nostalgic_2_Guitar,6,3,Dl_Nostalgic_2_Guitar,0.9982276558876038,1
59,100,0.12272727272727273,136,0,68,Dl_Nostalgic_2_Guitar,6,2,Dl_Nostalgic_2_Guitar,0.03939810395240784,0
68,100,0.1590909090909091,197,0,68,Dl_Nostalgic_2_Guitar,6,3,Dl_Nostalgic_2_Guitar,0.026673370972275734,0
52,100,0.12272727272727273,255,0,68,Dl_Nostalgic_2_Guitar,6,2,Dl_Nostalgic_2_Guitar,0.01858845166862011,0
52,100,0.1,294,0,68,Dl_Nostalgic_2_Guitar,6,2,Dl_Nostalgic_2_Guitar,0.013413947075605392,0
64,100,0.1,316,0,68,Dl_Nostalgic_2_Guitar,6,2,Dl_Nostalgic_2_Guitar,0.010587627999484539,0
61,100,0.22272727272727272,343,0,68,Dl_Nostalgic_2_Guitar,6,4,Dl_Nostalgic_2_Guitar,0.009839826263487339,0
61,100,0.21818181818181817,457,0,68,Dl_Nostalgic_2_Guitar,6,3,Dl_Nostalgic_2_Guitar,0.01141765620559454,0
61,100,0.2409090909090909,509,0,68,Dl_Nostalgic_2_Guitar,6,4,Dl_Nostalgic_2_Guitar,0.016512123867869377,0
61,100,0.12272727272727273,576,0,68,Dl_Nostalgic_2_Guitar,6,2,Dl_Nostalgic_2_Guitar,0.02681855857372284,0
57,100,0.7,792,0,68,Dl_Nostalgic_2_Guitar,6,11,Dl_Nostalgic_2_Guitar,0.053913719952106476,0
57,100,0.13636363636363635,83,1,69,Dl_Nostalgic_2_Guitar,6,2,Dl_Nostalgic_2_Guitar,0.9990229606628418,1
57,100,0.17727272727272728,119,0,69,Dl_Nostalgic_2_Guitar,6,3,Dl_Nostalgic_2_Guitar,0.36662691831588745,0
57,100,0.2,650,1,69,Dl_Nostalgic_2_Guitar,6,3,Dl_Nostalgic_2_Guitar,0.45329296588897705,0
68,100,0.1409090909090909,267,1,70,Dl_Nostalgic_2_Guitar,6,2,Dl_Nostalgic_2_Guitar,0.9986500144004822,1
52,100,0.21818181818181817,440,0,70,Dl_Nostalgic_2_Guitar,6,3,Dl_Nostalgic_2_Guitar,0.08780660480260849,0
61,100,1.1,502,0,70,Dl_Nostalgic_2_Guitar,6,15,Dl_Nostalgic_2_Guitar,0.09181209653615952,0
61,100,0.1409090909090909,770,1,70,Dl_Nostalgic_2_Guitar,6,2,Dl_Nostalgic_2_Guitar,0.1074807196855545,0
61,100,0.1590909090909091,805,0,70,Dl_Nostalgic_2_Guitar,6,3,Dl_Nostalgic_2_Guitar,0.12482866644859314,0
61,100,0.1409090909090909,844,0,70,Dl_Nostalgic_2_Guitar,6,2,Dl_Nostalgic_2_Guitar,0.17903214693069458,0
61,100,0.4590909090909091,87,1,71,Dl_Nostalgic_2_Guitar,6,7,Dl_Nostalgic_2_Guitar,0.9988419413566589,1
57,100,0.5409090909090909,210,0,71,Dl_Nostalgic_2_Guitar,6,9,Dl_Nostalgic_2_Guitar,0.1372508406639099,0
61,100,0.7,413,0,71,Dl_Nostalgic_2_Guitar,6,11,Dl_Nostalgic_2_Guitar,0.1597772091627121,0
62,100,0.2818181818181818,619,0,71,Dl_Nostalgic_2_Guitar,6,5,Dl_Nostalgic_2_Guitar,0.1864502876996994,0
62,100,0.1,787,0,71,Dl_Nostalgic_2_Guitar,6,2,Dl_Nostalgic_2_Guitar,0.25817185640335083,0
62,100,0.12272727272727273,56,1,72,Dl_Nostalgic_2_Guitar,6,2,Dl_Nostalgic_2_Guitar,0.9988419413566589,1
52,100,0.12272727272727273,166,0,72,Dl_Nostalgic_2_Guitar,6,2,Dl_Nostalgic_2_Guitar,0.13725197315216064,0
59,100,0.3181818181818182,347,0,72,Dl_Nostalgic_2_Guitar,6,5,Dl_Nostalgic_2_Guitar,0.1597827523946762,0
56,100,0.1,483,0,72,Dl_Nostalgic_2_Guitar,6,2,Dl_Nostalgic_2_Guitar,0.18645580112934113,0
57,100,0.11818181818181818,656,0,72,Dl_Nostalgic_2_Guitar,6,2,Dl_Nostalgic_2_Guitar,0.25817418098449707,0
59,100,0.17727272727272728,216,1,73,Dl_Nostalgic_2_Guitar,6,3,Dl_Nostalgic_2_Guitar,0.9986500144004822,1
61,100,0.8772727272727273,260,0,73,Dl_Nostalgic_2_Guitar,6,14,Dl_Nostalgic_2_Guitar,0.08780373632907867,0
61,100,0.18181818181818182,466,0,73,Dl_Nostalgic_2_Guitar,6,3,Dl_Nostalgic_2_Guitar,0.09181923419237137,0
57,100,0.4818181818181818,553,0,73,Dl_Nostalgic_2_Guitar,6,8,Dl_Nostalgic_2_Guitar,0.10748235881328583,0
64,100,0.1409090909090909,703,0,73,Dl_Nostalgic_2_Guitar,6,2,Dl_Nostalgic_2_Guitar,0.12483478337526321,0
61,100,0.5590909090909091,743,0,73,Dl_Nostalgic_2_Guitar,6,9,Dl_Nostalgic_2_Guitar,0.1790405660867691,0
57,100,0.11818181818181818,119,1,74,Dl_Nostalgic_2_Guitar,6,2,Dl_Nostalgic_2_Guitar,0.9986500144004822,1
61,100,0.7181818181818181,163,0,74,Dl_Nostalgic_2_Guitar,6,11,Dl_Nostalgic_2_Guitar,0.08780445903539658,0
68,100,0.42272727272727273,343,0,74,Dl_Nostalgic_2_Guitar,6,7,Dl_Nostalgic_2_Guitar,0.09181597828865051,0
68,100,0.1,580,1,74,Dl_Nostalgic_2_Guitar,6,2,Dl_Nostalgic_2_Guitar,0.10748007893562317,0
59,100,0.2409090909090909,752,0,74,Dl_Nostalgic_2_Guitar,6,4,Dl_Nostalgic_2_Guitar,0.1248258575797081,0
57,100,0.3,832,0,74,Dl_Nostalgic_2_Guitar,6,5,Dl_Nostalgic_2_Guitar,0.17903128266334534,0
61,100,0.38181818181818183,87,1,75,Dl_Nostalgic_2_Guitar,6,6,Dl_Nostalgic_2_Guitar,0.9988419413566589,1
57,100,0.2818181818181818,286,0,75,Dl_Nostalgic_2_Guitar,6,5,Dl_Nostalgic_2_Guitar,0.1372469663619995,0
59,100,0.5590909090909091,370,0,75,Dl_Nostalgic_2_Guitar,6,9,Dl_Nostalgic_2_Guitar,0.1597795933485031,0
57,100,0.2772727272727273,502,0,75,Dl_Nostalgic_2_Guitar,6,4,Dl_Nostalgic_2_Guitar,0.18644684553146362,0
59,100,0.9,677,0,75,Dl_Nostalgic_2_Guitar,6,14,Dl_Nostalgic_2_Guitar,0.25817161798477173,0
61,100,1.0636363636363637,3,1,76,Dl_Nostalgic_2_Guitar,6,15,Dl_Nostalgic_2_Guitar,0.9986500144004822,1
61,100,0.9409090909090909,276,1,76,Dl_Nostalgic_2_Guitar,6,15,Dl_Nostalgic_2_Guitar,0.0878043845295906,0
56,100,0.2590909090909091,493,0,76,Dl_Nostalgic_2_Guitar,6,4,Dl_Nostalgic_2_Guitar,0.09181438386440277,0
52,100,0.2,603,0,76,Dl_Nostalgic_2_Guitar,6,3,Dl_Nostalgic_2_Guitar,0.10747959464788437,0
52,100,0.11818181818181818,660,0,76,Dl_Nostalgic_2_Guitar,6,2,Dl_Nostalgic_2_Guitar,0.12483201920986176,0
56,100,0.6181818181818182,779,0,76,Dl_Nostalgic_2_Guitar,6,10,Dl_Nostalgic_2_Guitar,0.17903198301792145,0
61,100,0.7181818181818181,110,1,77,Dl_Nostalgic_2_Guitar,6,11,Dl_Nostalgic_2_Guitar,0.9990057349205017,1
61,100,0.4,399,1,77,Dl_Nostalgic_2_Guitar,6,6,Dl_Nostalgic_2_Guitar,0.2312079668045044,0
57,100,0.4,493,0,77,Dl_Nostalgic_2_Guitar,6,6,Dl_Nostalgic_2_Guitar,0.2659243643283844,0
57,100,0.37727272727272726,656,0,77,Dl_Nostalgic_2_Guitar,6,6,Dl_Nostalgic_2_Guitar,0.35420143604278564,0
57,100,0.41818181818181815,184,1,78,Dl_Nostalgic_2_Guitar,6,7,Dl_Nostalgic_2_Guitar,0.9990230798721313,1
57,100,0.1409090909090909,440,1,78,Dl_Nostalgic_2_Guitar,6,2,Dl_Nostalgic_2_Guitar,0.36662447452545166,0
52,100,0.1,796,1,78,Dl_Nostalgic_2_Guitar,6,2,Dl_Nostalgic_2_Guitar,0.4532996416091919,0
59,100,0.16363636363636364,69,1,79,Dl_Nostalgic_2_Guitar,6,3,Dl_Nostalgic_2_Guitar,0.9984880685806274,1
56,100,0.38181818181818183,145,0,79,Dl_Nostalgic_2_Guitar,6,6,Dl_Nostalgic_2_Guitar,0.06334330886602402,0
61,100,0.759090909090909,263,0,79,Dl_Nostalgic_2_Guitar,6,12,Dl_Nostalgic_2_Guitar,0.057740796357393265,0
61,100,0.21818181818181817,436,0,79,Dl_Nostalgic_2_Guitar,6,3,Dl_Nostalgic_2_Guitar,0.06020032614469528,0
61,100,0.5409090909090909,506,0,79,Dl_Nostalgic_2_Guitar,6,9,Dl_Nostalgic_2_Guitar,0.06969936192035675,0
61,100,0.5181818181818182,633,0,79,Dl_Nostalgic_2_Guitar,6,8,Dl_Nostalgic_2_Guitar,0.08189254999160767,0
54,100,0.4818181818181818,747,0,79,Dl_Nostalgic_2_Guitar,6,8,Dl_Nostalgic_2_Guitar,0.12401790916919708,0
62,100,0.8,333,1,80,Dl_Nostalgic_2_Guitar,6,13,Dl_Nostalgic_2_Guitar,0.9988419413566589,1
62,100,0.5590909090909091,563,0,80,Dl_Nostalgic_2_Guitar,6,9,Dl_Nostalgic_2_Guitar,0.13724848628044128,0
59,100,0.1409090909090909,734,0,80,Dl_Nostalgic_2_Guitar,6,2,Dl_Nostalgic_2_Guitar,0.15978075563907623,0
59,100,0.1590909090909091,770,0,80,Dl_Nostalgic_2_Guitar,6,3,Dl_Nostalgic_2_Guitar,0.18645505607128143,0
68,100,0.4409090909090909,817,0,80,Dl_Nostalgic_2_Guitar,6,7,Dl_Nostalgic_2_Guitar,0.2581610381603241,0
68,100,0.41818181818181815,193,1,81,Dl_Nostalgic_2_Guitar,6,7,Dl_Nostalgic_2_Guitar,0.9986500144004822,1
64,100,0.2409090909090909,343,0,81,Dl_Nostalgic_2_Guitar,6,4,Dl_Nostalgic_2_Guitar,0.08780282735824585,0
61,100,0.2818181818181818,396,0,81,Dl_Nostalgic_2_Guitar,6,5,Dl_Nostalgic_2_Guitar,0.09181218594312668,0
61,100,0.33636363636363636,502,0,81,Dl_Nostalgic_2_Guitar,6,5,Dl_Nostalgic_2_Guitar,0.10747640579938889,0
57,100,0.11818181818181818,669,0,81,Dl_Nostalgic_2_Guitar,6,2,Dl_Nostalgic_2_Guitar,0.12482616305351257,0
57,100,0.41818181818181815,713,0,81,Dl_Nostalgic_2_Guitar,6,7,Dl_Nostalgic_2_Guitar,0.17903420329093933,0
57,100,0.2,202,1,82,Dl_Nostalgic_2_Guitar,6,3,Dl_Nostalgic_2_Guitar,0.9990229606628418,1
59,100,1.240909090909091,255,0,82,Dl_Nostalgic_2_Guitar,6,15,Dl_Nostalgic_2_Guitar,0.36662405729293823,0
73,100,0.1409090909090909,559,1,82,Dl_Nostalgic_2_Guitar,6,2,Dl_Nostalgic_2_Guitar,0.4532823860645294,0
58,100,0.33636363636363636,876,1,0,DL_MelancholicFolk_Guitar,6,5,DL_MelancholicFolk_Guitar,0.9792567491531372,0
58,100,0.21818181818181817,325,1,1,DL_MelancholicFolk_Guitar,6,3,DL_MelancholicFolk_Guitar,0.9983165264129639,1
65,100,0.5409090909090909,669,1,1,DL_MelancholicFolk_Guitar,6,9,DL_MelancholicFolk_Guitar,0.5445568561553955,0
58,100,0.17727272727272728,39,1,2,DL_MelancholicFolk_Guitar,6,3,DL_MelancholicFolk_Guitar,0.9983736276626587,1
60,100,0.4590909090909091,83,0,2,DL_MelancholicFolk_Guitar,6,7,DL_MelancholicFolk_Guitar,0.0510609932243824,0
60,100,0.1590909090909091,232,0,2,DL_MelancholicFolk_Guitar,6,3,DL_MelancholicFolk_Guitar,0.04130278155207634,0
60,100,0.740909090909091,382,0,2,DL_MelancholicFolk_Guitar,6,12,DL_MelancholicFolk_Guitar,0.037384770810604095,0
63,100,0.1409090909090909,550,0,2,DL_MelancholicFolk_Guitar,6,2,DL_MelancholicFolk_Guitar,0.038327693939208984,0
60,100,0.2409090909090909,638,0,2,DL_MelancholicFolk_Guitar,6,4,DL_MelancholicFolk_Guitar,0.0447518564760685,0
60,100,0.12272727272727273,773,0,2,DL_MelancholicFolk_Guitar,6,2,DL_MelancholicFolk_Guitar,0.055228810757398605,0
60,100,0.2818181818181818,818,0,2,DL_MelancholicFolk_Guitar,6,5,DL_MelancholicFolk_Guitar,0.09026572108268738,0
60,100,0.5409090909090909,30,1,3,DL_MelancholicFolk_Guitar,6,9,DL_MelancholicFolk_Guitar,0.9990057349205017,1
60,100,0.21818181818181817,216,0,3,DL_MelancholicFolk_Guitar,6,3,DL_MelancholicFolk_Guitar,0.23121377825737,0
63,100,0.2,268,0,3,DL_MelancholicFolk_Guitar,6,3,DL_MelancholicFolk_Guitar,0.2659263014793396,0
56,100,1.3409090909090908,553,1,3,DL_MelancholicFolk_Guitar,6,15,DL_MelancholicFolk_Guitar,0.3541950285434723,0
56,100,0.1409090909090909,101,1,4,DL_MelancholicFolk_Guitar,6,2,DL_MelancholicFolk_Guitar,0.9990229606628418,1
60,100,1.5,355,1,4,DL_MelancholicFolk_Guitar,6,15,DL_MelancholicFolk_Guitar,0.366622656583786,0
58,100,0.2772727272727273,721,1,4,DL_MelancholicFolk_Guitar,6,4,DL_MelancholicFolk_Guitar,0.45329320430755615,0
65,100,0.1,128,1,6,DL_MelancholicFolk_Guitar,6,2,DL_MelancholicFolk_Guitar,0.9983165264129639,1
65,100,0.2772727272727273,458,1,6,DL_MelancholicFolk_Guitar,6,4,DL_MelancholicFolk_Guitar,0.5445505380630493,0
58,100,0.6590909090909091,716,1,7,DL_MelancholicFolk_Guitar,6,11,DL_MelancholicFolk_Guitar,0.9792560338973999,0
58,100,0.3409090909090909,53,1,8,DL_MelancholicFolk_Guitar,6,5,DL_MelancholicFolk_Guitar,0.979256272315979,0
58,100,1.2818181818181817,110,1,9,DL_MelancholicFolk_Guitar,6,15,DL_MelancholicFolk_Guitar,0.9983165264129639,1
58,100,0.6409090909090909,685,1,9,DL_MelancholicFolk_Guitar,6,10,DL_MelancholicFolk_Guitar,0.5445610284805298,0
58,100,1.3409090909090908,386,1,10,DL_MelancholicFolk_Guitar,6,15,DL_MelancholicFolk_Guitar,0.9792561531066895,0
60,100,0.3,440,1,11,DL_MelancholicFolk_Guitar,6,5,DL_MelancholicFolk_Guitar,0.9990230798721313,1
60,100,0.6772727272727272,646,0,11,DL_MelancholicFolk_Guitar,6,11,DL_MelancholicFolk_Guitar,0.366620808839798,0
53,100,0.22272727272727272,871,0,11,DL_MelancholicFolk_Guitar,6,4,DL_MelancholicFolk_Guitar,0.45329439640045166,0
55,100,0.6590909090909091,61,1,12,DL_MelancholicFolk_Guitar,6,11,DL_MelancholicFolk_Guitar,0.9986500144004822,1
63,100,0.1,527,1,12,DL_MelancholicFolk_Guitar,6,2,DL_MelancholicFolk_Guitar,0.08780472725629807,0
63,100,0.23636363636363636,567,0,12,DL_MelancholicFolk_Guitar,6,4,DL_MelancholicFolk_Guitar,0.09181827306747437,0
56,100,0.2772727272727273,656,0,12,DL_MelancholicFolk_Guitar,6,4,DL_MelancholicFolk_Guitar,0.10748456418514252,0
56,100,0.11818181818181818,814,0,12,DL_MelancholicFolk_Guitar,6,2,DL_MelancholicFolk_Guitar,0.12483154982328415,0
56,100,0.3,849,0,12,DL_MelancholicFolk_Guitar,6,5,DL_MelancholicFolk_Guitar,0.17903807759284973,0
63,100,0.12272727272727273,575,1,13,DL_MelancholicFolk_Guitar,6,2,DL_MelancholicFolk_Guitar,0.9792552590370178,0
55,100,0.18181818181818182,34,1,14,DL_MelancholicFolk_Guitar,6,3,DL_MelancholicFolk_Guitar,0.9986500144004822,1
60,100,0.3,216,0,14,DL_MelancholicFolk_Guitar,6,5,DL_MelancholicFolk_Guitar,0.08780574053525925,0
60,100,0.2818181818181818,343,0,14,DL_MelancholicFolk_Guitar,6,5,DL_MelancholicFolk_Guitar,0.09181545674800873,0
53,100,0.1590909090909091,524,0,14,DL_MelancholicFolk_Guitar,6,3,DL_MelancholicFolk_Guitar,0.10747846215963364,0
62,100,0.1590909090909091,778,1,14,DL_MelancholicFolk_Guitar,6,3,DL_MelancholicFolk_Guitar,0.12482735514640808,0
62,100,0.2590909090909091,826,0,14,DL_MelancholicFolk_Guitar,6,4,DL_MelancholicFolk_Guitar,0.17903350293636322,0
62,100,0.4818181818181818,34,1,15,DL_MelancholicFolk_Guitar,6,8,DL_MelancholicFolk_Guitar,0.9984880685806274,1
58,100,0.11818181818181818,175,0,15,DL_MelancholicFolk_Guitar,6,2,DL_MelancholicFolk_Guitar,0.06334513425827026,0
53,100,0.12272727272727273,268,0,15,DL_MelancholicFolk_Guitar,6,2,DL_MelancholicFolk_Guitar,0.05774037912487984,0
58,100,0.7,417,0,15,DL_MelancholicFolk_Guitar,6,11,DL_MelancholicFolk_Guitar,0.06019996479153633,0
58,100,0.3,594,0,15,DL_MelancholicFolk_Guitar,6,5,DL_MelancholicFolk_Guitar,0.06970099359750748,0
58,100,0.13636363636363635,721,0,15,DL_MelancholicFolk_Guitar,6,2,DL_MelancholicFolk_Guitar,0.0818919986486435,0
70,100,0.2,752,0,15,DL_MelancholicFolk_Guitar,6,3,DL_MelancholicFolk_Guitar,0.12401212751865387,0
55,100,0.32272727272727275,167,1,16,DL_MelancholicFolk_Guitar,6,5,DL_MelancholicFolk_Guitar,0.9988419413566589,1
55,100,0.11818181818181818,360,0,16,DL_MelancholicFolk_Guitar,6,2,DL_MelancholicFolk_Guitar,0.13725030422210693,0
63,100,0.1409090909090909,638,1,16,DL_MelancholicFolk_Guitar,6,2,DL_MelancholicFolk_Guitar,0.15978212654590607,0
56,100,0.5181818181818182,725,0,16,DL_MelancholicFolk_Guitar,6,8,DL_MelancholicFolk_Guitar,0.18645019829273224,0
56,100,1.1772727272727272,866,0,16,DL_MelancholicFolk_Guitar,6,15,DL_MelancholicFolk_Guitar,0.2581605315208435,0
56,100,0.1,382,1,17,DL_MelancholicFolk_Guitar,6,2,DL_MelancholicFolk_Guitar,0.9990230798721313,1
56,100,0.2,536,0,17,DL_MelancholicFolk_Guitar,6,3,DL_MelancholicFolk_Guitar,0.3666229844093323,0
53,100,0.2818181818181818,773,1,17,DL_MelancholicFolk_Guitar,6,5,DL_MelancholicFolk_Guitar,0.45328786969184875,0
58,100,1.459090909090909,57,1,18,DL_MelancholicFolk_Guitar,6,15,DL_MelancholicFolk_Guitar,0.9990229606628418,1
58,100,0.3409090909090909,735,1,18,DL_MelancholicFolk_Guitar,6,5,DL_MelancholicFolk_Guitar,0.36662471294403076,0
58,100,0.3181818181818182,822,0,18,DL_MelancholicFolk_Guitar,6,5,DL_MelancholicFolk_Guitar,0.45328399538993835,0
63,100,0.3,638,1,19,DL_MelancholicFolk_Guitar,6,5,DL_MelancholicFolk_Guitar,0.9792561531066895,0
62,100,0.1,21,1,20,DL_MelancholicFolk_Guitar,6,2,DL_MelancholicFolk_Guitar,0.9988419413566589,1
53,100,0.2,422,1,20,DL_MelancholicFolk_Guitar,6,3,DL_MelancholicFolk_Guitar,0.1372460126876831,0
60,100,0.2590909090909091,484,0,20,DL_MelancholicFolk_Guitar,6,4,DL_MelancholicFolk_Guitar,0.1597789227962494,0
60,100,0.1409090909090909,607,0,20,DL_MelancholicFolk_Guitar,6,2,DL_MelancholicFolk_Guitar,0.18645265698432922,0
63,100,0.21818181818181817,712,0,20,DL_MelancholicFolk_Guitar,6,3,DL_MelancholicFolk_Guitar,0.25816625356674194,0
55,100,0.5590909090909091,185,1,21,DL_MelancholicFolk_Guitar,6,9,DL_MelancholicFolk_Guitar,0.9990057349205017,1
55,100,0.5,347,0,21,DL_MelancholicFolk_Guitar,6,8,DL_MelancholicFolk_Guitar,0.2312043011188507,0
65,100,0.5590909090909091,484,0,21,DL_MelancholicFolk_Guitar,6,9,DL_MelancholicFolk_Guitar,0.2659229040145874,0
56,100,0.17727272727272728,853,1,21,DL_MelancholicFolk_Guitar,6,3,DL_MelancholicFolk_Guitar,0.35419395565986633,0
56,100,0.36363636363636365,223,1,22,DL_MelancholicFolk_Guitar,6,6,DL_MelancholicFolk_Guitar,0.9990057349205017,1
55,100,0.7818181818181819,430,0,22,DL_MelancholicFolk_Guitar,6,13,DL_MelancholicFolk_Guitar,0.23120659589767456,0
55,100,0.2818181818181818,673,1,22,DL_MelancholicFolk_Guitar,6,5,DL_MelancholicFolk_Guitar,0.2659229636192322,0
58,100,0.2590909090909091,814,0,22,DL_MelancholicFolk_Guitar,6,4,DL_MelancholicFolk_Guitar,0.35419443249702454,0
58,100,0.2590909090909091,13,1,23,DL_MelancholicFolk_Guitar,6,4,DL_MelancholicFolk_Guitar,0.9986500144004822,1
56,100,0.6818181818181818,277,1,23,DL_MelancholicFolk_Guitar,6,11,DL_MelancholicFolk_Guitar,0.08780078589916229,0
56,100,0.1409090909090909,484,0,23,DL_MelancholicFolk_Guitar,6,2,DL_MelancholicFolk_Guitar,0.0918133482336998,0
56,100,0.2,519,0,23,DL_MelancholicFolk_Guitar,6,3,DL_MelancholicFolk_Guitar,0.10747719556093216,0
56,100,0.2818181818181818,576,0,23,DL_MelancholicFolk_Guitar,6,5,DL_MelancholicFolk_Guitar,0.12482557445764542,0
53,100,0.1590909090909091,691,0,23,DL_MelancholicFolk_Guitar,6,3,DL_MelancholicFolk_Guitar,0.17902688682079315,0
58,100,0.1590909090909091,83,1,24,DL_MelancholicFolk_Guitar,6,3,DL_MelancholicFolk_Guitar,0.9990230798721313,1
58,100,0.6181818181818182,250,0,24,DL_MelancholicFolk_Guitar,6,10,DL_MelancholicFolk_Guitar,0.36661839485168457,0
58,100,0.11818181818181818,550,1,24,DL_MelancholicFolk_Guitar,6,2,DL_MelancholicFolk_Guitar,0.45328381657600403,0
58,100,0.1409090909090909,119,1,25,DL_MelancholicFolk_Guitar,6,2,DL_MelancholicFolk_Guitar,0.9986500144004822,1
58,100,0.11818181818181818,285,0,25,DL_MelancholicFolk_Guitar,6,2,DL_MelancholicFolk_Guitar,0.08780316263437271,0
58,100,0.1590909090909091,343,0,25,DL_MelancholicFolk_Guitar,6,3,DL_MelancholicFolk_Guitar,0.09181438386440277,0
58,100,0.2772727272727273,391,0,25,DL_MelancholicFolk_Guitar,6,4,DL_MelancholicFolk_Guitar,0.10747923702001572,0
58,100,0.4409090909090909,505,0,25,DL_MelancholicFolk_Guitar,6,7,DL_MelancholicFolk_Guitar,0.12482453137636185,0
55,100,1.0818181818181818,717,0,25,DL_MelancholicFolk_Guitar,6,15,DL_MelancholicFolk_Guitar,0.1790243238210678,0
60,100,0.6590909090909091,83,1,26,DL_MelancholicFolk_Guitar,6,11,DL_MelancholicFolk_Guitar,0.9988419413566589,1
63,100,0.11818181818181818,326,1,26,DL_MelancholicFolk_Guitar,6,2,DL_MelancholicFolk_Guitar,0.13724443316459656,0
55,100,0.6409090909090909,509,0,26,DL_MelancholicFolk_Guitar,6,10,DL_MelancholicFolk_Guitar,0.15977714955806732,0
65,100,0.32272727272727275,717,0,26,DL_MelancholicFolk_Guitar,6,5,DL_MelancholicFolk_Guitar,0.18644410371780396,0
55,100,0.3,810,0,26,DL_MelancholicFolk_Guitar,6,5,DL_MelancholicFolk_Guitar,0.2581590712070465,0
56,100,0.8363636363636363,106,1,27,DL_MelancholicFolk_Guitar,6,13,DL_MelancholicFolk_Guitar,0.9990229606628418,1
56,100,0.759090909090909,374,1,27,DL_MelancholicFolk_Guitar,6,12,DL_MelancholicFolk_Guitar,0.36661919951438904,0
58,100,0.1,650,1,27,DL_MelancholicFolk_Guitar,6,2,DL_MelancholicFolk_Guitar,0.45329803228378296,0
65,100,0.2818181818181818,69,1,28,DL_MelancholicFolk_Guitar,6,5,DL_MelancholicFolk_Guitar,0.9990229606628418,1
58,100,0.3409090909090909,598,1,28,DL_MelancholicFolk_Guitar,6,5,DL_MelancholicFolk_Guitar,0.36662766337394714,0
65,100,0.2409090909090909,673,0,28,DL_MelancholicFolk_Guitar,6,4,DL_MelancholicFolk_Guitar,0.4532844126224518,0
63,100,0.2,30,1,29,DL_MelancholicFolk_Guitar,6,3,DL_MelancholicFolk_Guitar,0.9990229606628418,1
63,100,0.8590909090909091,216,0,29,DL_MelancholicFolk_Guitar,6,14,DL_MelancholicFolk_Guitar,0.366622656583786,0
63,100,0.12272727272727273,584,1,29,DL_MelancholicFolk_Guitar,6,2,DL_MelancholicFolk_Guitar,0.45330649614334106,0
58,100,0.41818181818181815,193,1,30,DL_MelancholicFolk_Guitar,6,7,DL_MelancholicFolk_Guitar,0.9990057349205017,1
53,100,0.6409090909090909,285,0,30,DL_MelancholicFolk_Guitar,6,10,DL_MelancholicFolk_Guitar,0.23119482398033142,0
53,100,0.16363636363636364,818,1,30,DL_MelancholicFolk_Guitar,6,3,DL_MelancholicFolk_Guitar,0.26591843366622925,0
55,100,0.22272727272727272,862,0,30,DL_MelancholicFolk_Guitar,6,4,DL_MelancholicFolk_Guitar,0.3541969060897827,0
55,100,0.1,34,1,31,DL_MelancholicFolk_Guitar,6,2,DL_MelancholicFolk_Guitar,0.9990058541297913,1
55,100,0.1590909090909091,106,0,31,DL_MelancholicFolk_Guitar,6,3,DL_MelancholicFolk_Guitar,0.2312028706073761,0
55,100,0.2409090909090909,673,1,31,DL_MelancholicFolk_Guitar,6,4,DL_MelancholicFolk_Guitar,0.26591458916664124,0
55,100,0.16363636363636364,729,0,31,DL_MelancholicFolk_Guitar,6,3,DL_MelancholicFolk_Guitar,0.3541944921016693,0
58,100,0.3409090909090909,21,1,32,DL_MelancholicFolk_Guitar,6,5,DL_MelancholicFolk_Guitar,0.9988419413566589,1
56,100,0.1590909090909091,251,0,32,DL_MelancholicFolk_Guitar,6,3,DL_MelancholicFolk_Guitar,0.13724838197231293,0
56,100,0.37727272727272726,545,1,32,DL_MelancholicFolk_Guitar,6,6,DL_MelancholicFolk_Guitar,0.1597757637500763,0
56,100,0.2409090909090909,761,0,32,DL_MelancholicFolk_Guitar,6,4,DL_MelancholicFolk_Guitar,0.18644049763679504,0
58,100,0.6818181818181818,826,0,32,DL_MelancholicFolk_Guitar,6,11,DL_MelancholicFolk_Guitar,0.2581527829170227,0
56,100,0.18181818181818182,69,1,34,DL_MelancholicFolk_Guitar,6,3,DL_MelancholicFolk_Guitar,0.9986500144004822,1
53,100,0.2590909090909091,153,0,34,DL_MelancholicFolk_Guitar,6,4,DL_MelancholicFolk_Guitar,0.08780163526535034,0
53,100,0.5181818181818182,215,0,34,DL_MelancholicFolk_Guitar,6,8,DL_MelancholicFolk_Guitar,0.09181090444326401,0
53,100,0.2772727272727273,361,0,34,DL_MelancholicFolk_Guitar,6,4,DL_MelancholicFolk_Guitar,0.10747481882572174,0
58,100,0.5818181818181818,440,0,34,DL_MelancholicFolk_Guitar,6,9,DL_MelancholicFolk_Guitar,0.12482637166976929,0
56,100,0.5181818181818182,810,1,34,DL_MelancholicFolk_Guitar,6,8,DL_MelancholicFolk_Guitar,0.17902179062366486,0
56,100,0.11818181818181818,220,1,35,DL_MelancholicFolk_Guitar,6,2,DL_MelancholicFolk_Guitar,0.9988419413566589,1
56,100,0.2590909090909091,254,0,35,DL_MelancholicFolk_Guitar,6,4,DL_MelancholicFolk_Guitar,0.13724826276302338,0
58,100,0.5818181818181818,418,0,35,DL_MelancholicFolk_Guitar,6,9,DL_MelancholicFolk_Guitar,0.159779354929924,0
65,100,0.3409090909090909,581,0,35,DL_MelancholicFolk_Guitar,6,5,DL_MelancholicFolk_Guitar,0.186447873711586,0
58,100,0.7,761,0,35,DL_MelancholicFolk_Guitar,6,11,DL_MelancholicFolk_Guitar,0.25816085934638977,0
53,100,0.3,40,1,36,DL_MelancholicFolk_Guitar,6,5,DL_MelancholicFolk_Guitar,0.9988419413566589,1
58,100,0.1409090909090909,110,0,36,DL_MelancholicFolk_Guitar,6,2,DL_MelancholicFolk_Guitar,0.13724927604198456,0
53,100,0.21818181818181817,176,0,36,DL_MelancholicFolk_Guitar,6,3,DL_MelancholicFolk_Guitar,0.15977723896503448,0
55,100,0.5181818181818182,351,0,36,DL_MelancholicFolk_Guitar,6,8,DL_MelancholicFolk_Guitar,0.18644990026950836,0
55,100,0.1590909090909091,783,1,36,DL_MelancholicFolk_Guitar,6,3,DL_MelancholicFolk_Guitar,0.2581614553928375,0
60,100,0.9772727272727273,8,1,37,DL_MelancholicFolk_Guitar,6,15,DL_MelancholicFolk_Guitar,0.9984880685806274,1
60,100,0.11818181818181818,228,0,37,DL_MelancholicFolk_Guitar,6,2,DL_MelancholicFolk_Guitar,0.0633450374007225,0
55,100,0.12272727272727273,321,0,37,DL_MelancholicFolk_Guitar,6,2,DL_MelancholicFolk_Guitar,0.05774129182100296,0
53,100,1.3818181818181818,440,0,37,DL_MelancholicFolk_Guitar,6,15,DL_MelancholicFolk_Guitar,0.0602005310356617,0
53,100,0.1590909090909091,765,1,37,DL_MelancholicFolk_Guitar,6,3,DL_MelancholicFolk_Guitar,0.06970099359750748,0
53,100,0.18181818181818182,804,0,37,DL_MelancholicFolk_Guitar,6,3,DL_MelancholicFolk_Guitar,0.08189220726490021,0
65,100,0.11818181818181818,875,0,37,DL_MelancholicFolk_Guitar,6,2,DL_MelancholicFolk_Guitar,0.12401765584945679,0
65,100,0.12272727272727273,101,1,38,DL_MelancholicFolk_Guitar,6,2,DL_MelancholicFolk_Guitar,0.9984880685806274,1
65,100,0.2409090909090909,201,0,38,DL_MelancholicFolk_Guitar,6,4,DL_MelancholicFolk_Guitar,0.06334469467401505,0
65,100,0.11818181818181818,273,0,38,DL_MelancholicFolk_Guitar,6,2,DL_MelancholicFolk_Guitar,0.05773972347378731,0
65,100,0.11818181818181818,303,0,38,DL_MelancholicFolk_Guitar,6,2,DL_MelancholicFolk_Guitar,0.060199074447155,0
58,100,0.2,361,0,38,DL_MelancholicFolk_Guitar,6,3,DL_MelancholicFolk_Guitar,0.06969943642616272,0
58,100,0.17727272727272728,536,0,38,DL_MelancholicFolk_Guitar,6,3,DL_MelancholicFolk_Guitar,0.0818893313407898,0
58,100,0.17727272727272728,633,0,38,DL_MelancholicFolk_Guitar,6,3,DL_MelancholicFolk_Guitar,0.12401323020458221,0
53,100,0.21818181818181817,348,1,39,DL_MelancholicFolk_Guitar,6,3,DL_MelancholicFolk_Guitar,0.9988419413566589,1
58,100,0.2,509,0,39,DL_MelancholicFolk_Guitar,6,3,DL_MelancholicFolk_Guitar,0.13724640011787415,0
53,100,0.5409090909090909,554,0,39,DL_MelancholicFolk_Guitar,6,9,DL_MelancholicFolk_Guitar,0.15977135300636292,0
58,100,0.5,721,0,39,DL_MelancholicFolk_Guitar,6,8,DL_MelancholicFolk_Guitar,0.18644781410694122,0
58,100,0.4,853,0,39,DL_MelancholicFolk_Guitar,6,6,DL_MelancholicFolk_Guitar,0.25816038250923157,0
56,100,0.4,418,1,41,DL_MelancholicFolk_Guitar,6,6,DL_MelancholicFolk_Guitar,0.9990229606628418,1
56,100,0.3,558,0,41,DL_MelancholicFolk_Guitar,6,5,DL_MelancholicFolk_Guitar,0.36662036180496216,0
58,100,0.2,655,0,41,DL_MelancholicFolk_Guitar,6,3,DL_MelancholicFolk_Guitar,0.45329195261001587,0
60,100,0.18181818181818182,21,1,42,DL_MelancholicFolk_Guitar,6,3,DL_MelancholicFolk_Guitar,0.9986500144004822,1
65,100,0.5227272727272727,211,0,42,DL_MelancholicFolk_Guitar,6,8,DL_MelancholicFolk_Guitar,0.08779938519001007,0
65,100,0.2590909090909091,448,1,42,DL_MelancholicFolk_Guitar,6,4,DL_MelancholicFolk_Guitar,0.09181545674800873,0
65,100,0.1590909090909091,563,0,42,DL_MelancholicFolk_Guitar,6,3,DL_MelancholicFolk_Guitar,0.1074766218662262,0
56,100,0.2409090909090909,641,0,42,DL_MelancholicFolk_Guitar,6,4,DL_MelancholicFolk_Guitar,0.12482316792011261,0
63,100,0.1590909090909091,866,0,42,DL_MelancholicFolk_Guitar,6,3,DL_MelancholicFolk_Guitar,0.17903032898902893,0
58,100,0.4590909090909091,198,1,43,DL_MelancholicFolk_Guitar,6,7,DL_MelancholicFolk_Guitar,0.9988420605659485,1
65,100,0.42272727272727273,386,0,43,DL_MelancholicFolk_Guitar,6,7,DL_MelancholicFolk_Guitar,0.13724733889102936,0
58,100,0.1409090909090909,581,0,43,DL_MelancholicFolk_Guitar,6,2,DL_MelancholicFolk_Guitar,0.15977878868579865,0
58,100,0.4590909090909091,646,0,43,DL_MelancholicFolk_Guitar,6,7,DL_MelancholicFolk_Guitar,0.18644452095031738,0
63,100,0.1409090909090909,866,0,43,DL_MelancholicFolk_Guitar,6,2,DL_MelancholicFolk_Guitar,0.2581641972064972,0
63,100,0.8181818181818182,150,1,44,DL_MelancholicFolk_Guitar,6,13,DL_MelancholicFolk_Guitar,0.9990057349205017,1
63,100,0.1590909090909091,461,1,44,DL_MelancholicFolk_Guitar,6,3,DL_MelancholicFolk_Guitar,0.23120775818824768,0
58,100,0.11818181818181818,528,0,44,DL_MelancholicFolk_Guitar,6,2,DL_MelancholicFolk_Guitar,0.2659311592578888,0
58,100,0.8363636363636363,875,1,44,DL_MelancholicFolk_Guitar,6,13,DL_MelancholicFolk_Guitar,0.35419607162475586,0
58,100,0.11818181818181818,228,1,45,DL_MelancholicFolk_Guitar,6,2,DL_MelancholicFolk_Guitar,0.9990057349205017,1
55,100,0.2,399,0,45,DL_MelancholicFolk_Guitar,6,3,DL_MelancholicFolk_Guitar,0.2312060296535492,0
55,100,0.2772727272727273,721,1,45,DL_MelancholicFolk_Guitar,6,4,DL_MelancholicFolk_Guitar,0.26592081785202026,0
65,100,0.2,791,0,45,DL_MelancholicFolk_Guitar,6,3,DL_MelancholicFolk_Guitar,0.3541874289512634,0
55,100,0.2590909090909091,131,1,46,DL_MelancholicFolk_Guitar,6,4,DL_MelancholicFolk_Guitar,0.9984880685806274,1
58,100,0.16363636363636364,289,0,46,DL_MelancholicFolk_Guitar,6,3,DL_MelancholicFolk_Guitar,0.06334486603736877,0
58,100,0.3409090909090909,330,0,46,DL_MelancholicFolk_Guitar,6,5,DL_MelancholicFolk_Guitar,0.05774039030075073,0
65,100,0.2772727272727273,405,0,46,DL_MelancholicFolk_Guitar,6,4,DL_MelancholicFolk_Guitar,0.06019953638315201,0
58,100,0.3,480,0,46,DL_MelancholicFolk_Guitar,6,5,DL_MelancholicFolk_Guitar,0.0697018951177597,0
70,100,0.5,581,0,46,DL_MelancholicFolk_Guitar,6,8,DL_MelancholicFolk_Guitar,0.08189011365175247,0
70,100,0.12272727272727273,694,0,46,DL_MelancholicFolk_Guitar,6,2,DL_MelancholicFolk_Guitar,0.12401918321847916,0
70,100,0.12272727272727273,179,1,47,DL_MelancholicFolk_Guitar,6,2,DL_MelancholicFolk_Guitar,0.9988419413566589,1
65,100,0.17727272727272728,303,0,47,DL_MelancholicFolk_Guitar,6,3,DL_MelancholicFolk_Guitar,0.13724112510681152,0
65,100,0.2,399,0,47,DL_MelancholicFolk_Guitar,6,3,DL_MelancholicFolk_Guitar,0.15977247059345245,0
58,100,0.32272727272727275,541,0,47,DL_MelancholicFolk_Guitar,6,5,DL_MelancholicFolk_Guitar,0.18644079566001892,0
58,100,0.21818181818181817,801,1,47,DL_MelancholicFolk_Guitar,6,3,DL_MelancholicFolk_Guitar,0.25815528631210327,0
58,100,0.11818181818181818,0,1,48,DL_MelancholicFolk_Guitar,6,2,DL_MelancholicFolk_Guitar,0.9990229606628418,1
63,100,0.3409090909090909,660,1,48,DL_MelancholicFolk_Guitar,6,5,DL_MelancholicFolk_Guitar,0.36662015318870544,0
65,100,0.6409090909090909,804,0,48,DL_MelancholicFolk_Guitar,6,10,DL_MelancholicFolk_Guitar,0.45328769087791443,0
55,100,0.11818181818181818,66,1,49,DL_MelancholicFolk_Guitar,6,2,DL_MelancholicFolk_Guitar,0.9986500144004822,1
56,100,0.5181818181818182,241,0,49,DL_MelancholicFolk_Guitar,6,8,DL_MelancholicFolk_Guitar,0.08780296891927719,0
56,100,0.4,509,1,49,DL_MelancholicFolk_Guitar,6,6,DL_MelancholicFolk_Guitar,0.09181290864944458,0
56,100,0.2409090909090909,646,0,49,DL_MelancholicFolk_Guitar,6,4,DL_MelancholicFolk_Guitar,0.10747323930263519,0
65,100,0.18181818181818182,751,0,49,DL_MelancholicFolk_Guitar,6,3,DL_MelancholicFolk_Guitar,0.12482637166976929,0
58,100,1.1636363636363636,818,0,49,DL_MelancholicFolk_Guitar,6,15,DL_MelancholicFolk_Guitar,0.1790258139371872,0
58,100,0.38181818181818183,201,1,50,DL_MelancholicFolk_Guitar,6,6,DL_MelancholicFolk_Guitar,0.9990230798721313,1
58,100,0.740909090909091,295,0,50,DL_MelancholicFolk_Guitar,6,12,DL_MelancholicFolk_Guitar,0.3666122555732727,0
65,100,0.4409090909090909,515,0,50,DL_MelancholicFolk_Guitar,6,7,DL_MelancholicFolk_Guitar,0.4532889127731323,0
53,100,0.33636363636363636,105,1,51,DL_MelancholicFolk_Guitar,6,5,DL_MelancholicFolk_Guitar,0.9983165264129639,1
55,100,0.1590909090909091,185,0,51,DL_MelancholicFolk_Guitar,6,3,DL_MelancholicFolk_Guitar,0.5445531010627747,0
58,100,0.1409090909090909,405,1,52,DL_MelancholicFolk_Guitar,6,2,DL_MelancholicFolk_Guitar,0.9990230798721313,1
65,100,0.17727272727272728,721,1,52,DL_MelancholicFolk_Guitar,6,3,DL_MelancholicFolk_Guitar,0.3666268289089203,0
58,100,1.1409090909090909,761,0,52,DL_MelancholicFolk_Guitar,6,15,DL_MelancholicFolk_Guitar,0.4532780349254608,0
70,100,0.17727272727272728,435,1,53,DL_MelancholicFolk_Guitar,6,3,DL_MelancholicFolk_Guitar,0.9990230798721313,1
70,100,0.12272727272727273,774,1,53,DL_MelancholicFolk_Guitar,6,2,DL_MelancholicFolk_Guitar,0.3666231632232666,0
65,100,0.2,818,0,53,DL_MelancholicFolk_Guitar,6,3,DL_MelancholicFolk_Guitar,0.45328959822654724,0
58,100,0.21818181818181817,141,1,54,DL_MelancholicFolk_Guitar,6,3,DL_MelancholicFolk_Guitar,0.9983165264129639,1
58,100,0.4772727272727273,273,0,54,DL_MelancholicFolk_Guitar,6,8,DL_MelancholicFolk_Guitar,0.5445554852485657,0
53,100,0.18181818181818182,48,1,55,DL_MelancholicFolk_Guitar,6,3,DL_MelancholicFolk_Guitar,0.9986500144004822,1
58,100,1.3,105,0,55,DL_MelancholicFolk_Guitar,6,15,DL_MelancholicFolk_Guitar,0.08780300617218018,0
58,100,0.6818181818181818,396,1,55,DL_MelancholicFolk_Guitar,6,11,DL_MelancholicFolk_Guitar,0.09181461483240128,0
58,100,0.18181818181818182,563,0,55,DL_MelancholicFolk_Guitar,6,3,DL_MelancholicFolk_Guitar,0.10747447609901428,0
55,100,0.4590909090909091,673,0,55,DL_MelancholicFolk_Guitar,6,7,DL_MelancholicFolk_Guitar,0.12481912225484848,0
70,100,0.18181818181818182,813,0,55,DL_MelancholicFolk_Guitar,6,3,DL_MelancholicFolk_Guitar,0.1790248155593872,0
53,100,0.2590909090909091,303,1,56,DL_MelancholicFolk_Guitar,6,4,DL_MelancholicFolk_Guitar,0.9986500144004822,1
60,100,0.11818181818181818,383,0,56,DL_MelancholicFolk_Guitar,6,2,DL_MelancholicFolk_Guitar,0.08780434727668762,0
55,100,0.2,458,0,56,DL_MelancholicFolk_Guitar,6,3,DL_MelancholicFolk_Guitar,0.09181378036737442,0
55,100,0.22272727272727272,694,1,56,DL_MelancholicFolk_Guitar,6,4,DL_MelancholicFolk_Guitar,0.10747882723808289,0
65,100,0.1590909090909091,788,0,56,DL_MelancholicFolk_Guitar,6,3,DL_MelancholicFolk_Guitar,0.12482301890850067,0
53,100,0.2636363636363636,861,0,56,DL_MelancholicFolk_Guitar,6,4,DL_MelancholicFolk_Guitar,0.1790311634540558,0
65,100,0.37727272727272726,40,1,57,DL_MelancholicFolk_Guitar,6,6,DL_MelancholicFolk_Guitar,0.9984880685806274,1
65,100,0.3,128,0,57,DL_MelancholicFolk_Guitar,6,5,DL_MelancholicFolk_Guitar,0.06334415823221207,0
53,100,0.5,215,0,57,DL_MelancholicFolk_Guitar,6,8,DL_MelancholicFolk_Guitar,0.057740721851587296,0
53,100,0.8772727272727273,348,0,57,DL_MelancholicFolk_Guitar,6,14,DL_MelancholicFolk_Guitar,0.06020176783204079,0
65,100,0.7227272727272728,628,1,57,DL_MelancholicFolk_Guitar,6,12,DL_MelancholicFolk_Guitar,0.06970144808292389,0
53,100,0.21818181818181817,788,0,57,DL_MelancholicFolk_Guitar,6,3,DL_MelancholicFolk_Guitar,0.08189333975315094,0
53,100,0.21818181818181817,858,0,57,DL_MelancholicFolk_Guitar,6,3,DL_MelancholicFolk_Guitar,0.12401586771011353,0
53,100,0.1590909090909091,40,1,58,DL_MelancholicFolk_Guitar,6,3,DL_MelancholicFolk_Guitar,0.9990230798721313,1
58,100,1.0636363636363637,334,1,58,DL_MelancholicFolk_Guitar,6,15,DL_MelancholicFolk_Guitar,0.36661919951438904,0
65,100,0.1590909090909091,778,1,58,DL_MelancholicFolk_Guitar,6,3,DL_MelancholicFolk_Guitar,0.45328792929649353,0
65,100,0.7,738,1,59,DL_MelancholicFolk_Guitar,6,11,DL_MelancholicFolk_Guitar,0.9792558550834656,0
65,100,0.2,136,1,60,DL_MelancholicFolk_Guitar,6,3,DL_MelancholicFolk_Guitar,0.9988419413566589,1
58,100,0.13636363636363635,238,0,60,DL_MelancholicFolk_Guitar,6,2,DL_MelancholicFolk_Guitar,0.13725046813488007,0
63,100,0.36363636363636365,311,0,60,DL_MelancholicFolk_Guitar,6,6,DL_MelancholicFolk_Guitar,0.1597788780927658,0
63,100,0.5,458,0,60,DL_MelancholicFolk_Guitar,6,8,DL_MelancholicFolk_Guitar,0.18644855916500092,0
58,100,1.2636363636363637,861,1,60,DL_MelancholicFolk_Guitar,6,15,DL_MelancholicFolk_Guitar,0.2581682503223419,0
65,100,0.21818181818181817,263,1,61,DL_MelancholicFolk_Guitar,6,3,DL_MelancholicFolk_Guitar,0.9988419413566589,1
58,100,0.5,334,0,61,DL_MelancholicFolk_Guitar,6,8,DL_MelancholicFolk_Guitar,0.13724969327449799,0
55,100,0.2409090909090909,691,1,61,DL_MelancholicFolk_Guitar,6,4,DL_MelancholicFolk_Guitar,0.15978051722049713,0
55,100,0.11818181818181818,778,0,61,DL_MelancholicFolk_Guitar,6,2,DL_MelancholicFolk_Guitar,0.18644803762435913,0
58,100,0.5227272727272727,871,0,61,DL_MelancholicFolk_Guitar,6,8,DL_MelancholicFolk_Guitar,0.2581641674041748,0
65,100,0.12272727272727273,356,1,62,DL_MelancholicFolk_Guitar,6,2,DL_MelancholicFolk_Guitar,0.9990229606628418,1
65,100,0.4409090909090909,399,0,62,DL_MelancholicFolk_Guitar,6,7,DL_MelancholicFolk_Guitar,0.3666229844093323,0
58,100,0.6227272727272727,686,1,62,DL_MelancholicFolk_Guitar,6,10,DL_MelancholicFolk_Guitar,0.4532865583896637,0
58,100,0.2409090909090909,461,1,63,DL_MelancholicFolk_Guitar,6,4,DL_MelancholicFolk_Guitar,0.9990057349205017,1
63,100,0.2409090909090909,531,0,63,DL_MelancholicFolk_Guitar,6,4,DL_MelancholicFolk_Guitar,0.2312072515487671,0
63,100,0.1590909090909091,638,0,63,DL_MelancholicFolk_Guitar,6,3,DL_MelancholicFolk_Guitar,0.26592668890953064,0
63,100,0.5181818181818182,681,0,63,DL_MelancholicFolk_Guitar,6,8,DL_MelancholicFolk_Guitar,0.3542042672634125,0
58,100,0.3,140,1,64,DL_MelancholicFolk_Guitar,6,5,DL_MelancholicFolk_Guitar,0.9983164072036743,1
56,100,0.2772727272727273,559,1,64,DL_MelancholicFolk_Guitar,6,4,DL_MelancholicFolk_Guitar,0.5445459485054016,0
65,100,0.1,56,1,65,DL_MelancholicFolk_Guitar,6,2,DL_MelancholicFolk_Guitar,0.9986500144004822,1
58,100,0.7227272727272728,189,0,65,DL_MelancholicFolk_Guitar,6,12,DL_MelancholicFolk_Guitar,0.08780388534069061,0
65,100,0.21818181818181817,352,0,65,DL_MelancholicFolk_Guitar,6,3,DL_MelancholicFolk_Guitar,0.09181419759988785,0
56,100,0.2,580,0,65,DL_MelancholicFolk_Guitar,6,3,DL_MelancholicFolk_Guitar,0.10748064517974854,0
56,100,0.21818181818181817,633,0,65,DL_MelancholicFolk_Guitar,6,3,DL_MelancholicFolk_Guitar,0.12483056634664536,0
56,100,0.1409090909090909,686,0,65,DL_MelancholicFolk_Guitar,6,2,DL_MelancholicFolk_Guitar,0.17902886867523193,0
56,100,0.37727272727272726,30,1,66,DL_MelancholicFolk_Guitar,6,6,DL_MelancholicFolk_Guitar,0.9986500144004822,1
58,100,0.1590909090909091,276,1,66,DL_MelancholicFolk_Guitar,6,3,DL_MelancholicFolk_Guitar,0.08780377358198166,0
65,100,0.36363636363636365,312,0,66,DL_MelancholicFolk_Guitar,6,6,DL_MelancholicFolk_Guitar,0.09181258827447891,0
53,100,0.11818181818181818,483,0,66,DL_MelancholicFolk_Guitar,6,2,DL_MelancholicFolk_Guitar,0.10748009383678436,0
58,100,1.0,509,0,66,DL_MelancholicFolk_Guitar,6,15,DL_MelancholicFolk_Guitar,0.12482818961143494,0
55,100,1.240909090909091,747,1,66,DL_MelancholicFolk_Guitar,6,15,DL_MelancholicFolk_Guitar,0.17903009057044983,0
55,100,0.12272727272727273,157,1,67,DL_MelancholicFolk_Guitar,6,2,DL_MelancholicFolk_Guitar,0.9988419413566589,1
55,100,0.21818181818181817,216,0,67,DL_MelancholicFolk_Guitar,6,3,DL_MelancholicFolk_Guitar,0.13724952936172485,0
55,100,0.3,326,0,67,DL_MelancholicFolk_Guitar,6,5,DL_MelancholicFolk_Guitar,0.15977302193641663,0
55,100,0.12272727272727273,409,0,67,DL_MelancholicFolk_Guitar,6,2,DL_MelancholicFolk_Guitar,0.18644405901432037,0
58,100,0.2,650,1,67,DL_MelancholicFolk_Guitar,6,3,DL_MelancholicFolk_Guitar,0.2581588923931122,0
58,100,0.3,62,1,68,DL_MelancholicFolk_Guitar,6,5,DL_MelancholicFolk_Guitar,0.9983737468719482,1
56,100,0.22272727272727272,145,0,68,DL_MelancholicFolk_Guitar,6,4,DL_MelancholicFolk_Guitar,0.051060114055871964,0
56,100,0.12272727272727273,255,0,68,DL_MelancholicFolk_Guitar,6,2,DL_MelancholicFolk_Guitar,0.04130354896187782,0
56,100,0.4,320,0,68,DL_MelancholicFolk_Guitar,6,6,DL_MelancholicFolk_Guitar,0.037386175245046616,0
56,100,0.2,506,0,68,DL_MelancholicFolk_Guitar,6,3,DL_MelancholicFolk_Guitar,0.03832835331559181,0
63,100,0.1590909090909091,590,0,68,DL_MelancholicFolk_Guitar,6,3,DL_MelancholicFolk_Guitar,0.0447501465678215,0
58,100,0.22272727272727272,650,0,68,DL_MelancholicFolk_Guitar,6,4,DL_MelancholicFolk_Guitar,0.05522926151752472,0
58,100,0.7,703,0,68,DL_MelancholicFolk_Guitar,6,11,DL_MelancholicFolk_Guitar,0.09026211500167847,0
58,100,0.3181818181818182,184,1,69,DL_MelancholicFolk_Guitar,6,5,DL_MelancholicFolk_Guitar,0.9990058541297913,1
58,100,0.5772727272727273,273,0,69,DL_MelancholicFolk_Guitar,6,9,DL_MelancholicFolk_Guitar,0.23120442032814026,0
63,100,0.21818181818181817,572,1,69,DL_MelancholicFolk_Guitar,6,3,DL_MelancholicFolk_Guitar,0.2659175992012024,0
58,100,0.18181818181818182,849,1,69,DL_MelancholicFolk_Guitar,6,3,DL_MelancholicFolk_Guitar,0.3542014956474304,0
63,100,0.1,83,1,70,DL_MelancholicFolk_Guitar,6,2,DL_MelancholicFolk_Guitar,0.9990229606628418,1
58,100,0.11818181818181818,140,0,70,DL_MelancholicFolk_Guitar,6,2,DL_MelancholicFolk_Guitar,0.3666248321533203,0
58,100,0.23636363636363636,237,0,70,DL_MelancholicFolk_Guitar,6,4,DL_MelancholicFolk_Guitar,0.4532924294471741,0
63,100,0.35909090909090907,206,1,71,DL_MelancholicFolk_Guitar,6,6,DL_MelancholicFolk_Guitar,0.979255735874176,0
56,100,0.2636363636363636,422,1,76,DL_MelancholicFolk_Guitar,6,4,DL_MelancholicFolk_Guitar,0.9988419413566589,1
53,100,0.16363636363636364,509,0,76,DL_MelancholicFolk_Guitar,6,3,DL_MelancholicFolk_Guitar,0.13724680244922638,0
58,100,0.3409090909090909,553,0,76,DL_MelancholicFolk_Guitar,6,5,DL_MelancholicFolk_Guitar,0.15977774560451508,0
58,100,0.37727272727272726,669,0,76,DL_MelancholicFolk_Guitar,6,6,DL_MelancholicFolk_Guitar,0.18644855916500092,0
58,100,1.018181818181818,756,0,76,DL_MelancholicFolk_Guitar,6,15,DL_MelancholicFolk_Guitar,0.2581598162651062,0
58,100,0.2409090909090909,110,1,77,DL_MelancholicFolk_Guitar,6,4,DL_MelancholicFolk_Guitar,0.9990058541297913,1
58,100,0.18181818181818182,176,0,77,DL_MelancholicFolk_Guitar,6,3,DL_MelancholicFolk_Guitar,0.23121137917041779,0
55,100,1.0636363636363637,289,0,77,DL_MelancholicFolk_Guitar,6,15,DL_MelancholicFolk_Guitar,0.26591596007347107,0
58,100,0.4772727272727273,656,1,77,DL_MelancholicFolk_Guitar,6,8,DL_MelancholicFolk_Guitar,0.3541991710662842,0
70,100,0.5818181818181818,22,1,78,DL_MelancholicFolk_Guitar,6,9,DL_MelancholicFolk_Guitar,0.9983003735542297,1
55,100,0.16363636363636364,246,0,78,DL_MelancholicFolk_Guitar,6,3,DL_MelancholicFolk_Guitar,0.04466349259018898,0
65,100,0.35909090909090907,282,0,78,DL_MelancholicFolk_Guitar,6,6,DL_MelancholicFolk_Guitar,0.033148813992738724,0
55,100,0.3409090909090909,360,0,78,DL_MelancholicFolk_Guitar,6,5,DL_MelancholicFolk_Guitar,0.02657853625714779,0
65,100,0.1409090909090909,440,0,78,DL_MelancholicFolk_Guitar,6,2,DL_MelancholicFolk_Guitar,0.023594480007886887,0
56,100,0.5227272727272727,519,0,78,DL_MelancholicFolk_Guitar,6,8,DL_MelancholicFolk_Guitar,0.024312419816851616,0
63,100,0.1590909090909091,660,0,78,DL_MelancholicFolk_Guitar,6,3,DL_MelancholicFolk_Guitar,0.02968813106417656,0
65,100,0.2818181818181818,703,0,78,DL_MelancholicFolk_Guitar,6,5,DL_MelancholicFolk_Guitar,0.0400749109685421,0
65,100,0.5363636363636364,832,0,78,DL_MelancholicFolk_Guitar,6,9,DL_MelancholicFolk_Guitar,0.07092757523059845,0
65,100,0.4772727272727273,96,1,79,DL_MelancholicFolk_Guitar,6,8,DL_MelancholicFolk_Guitar,0.9988419413566589,1
55,100,0.32272727272727275,365,1,79,DL_MelancholicFolk_Guitar,6,5,DL_MelancholicFolk_Guitar,0.13725075125694275,0
55,100,0.21818181818181817,440,0,79,DL_MelancholicFolk_Guitar,6,3,DL_MelancholicFolk_Guitar,0.15978436172008514,0
55,100,0.2,509,0,79,DL_MelancholicFolk_Guitar,6,3,DL_MelancholicFolk_Guitar,0.18644922971725464,0
65,100,0.4818181818181818,673,0,79,DL_MelancholicFolk_Guitar,6,8,DL_MelancholicFolk_Guitar,0.258160799741745,0
63,100,0.32272727272727275,26,1,80,DL_MelancholicFolk_Guitar,6,5,DL_MelancholicFolk_Guitar,0.9986500144004822,1
63,100,0.1409090909090909,153,0,80,DL_MelancholicFolk_Guitar,6,2,DL_MelancholicFolk_Guitar,0.08780483901500702,0
63,100,0.22272727272727272,365,0,80,DL_MelancholicFolk_Guitar,6,4,DL_MelancholicFolk_Guitar,0.09181500971317291,0
58,100,1.0,475,0,80,DL_MelancholicFolk_Guitar,6,15,DL_MelancholicFolk_Guitar,0.10748016834259033,0
53,100,0.2409090909090909,703,0,80,DL_MelancholicFolk_Guitar,6,4,DL_MelancholicFolk_Guitar,0.12482720613479614,0
53,100,0.8590909090909091,766,0,80,DL_MelancholicFolk_Guitar,6,14,DL_MelancholicFolk_Guitar,0.17903470993041992,0
53,100,0.18181818181818182,79,1,81,DL_MelancholicFolk_Guitar,6,3,DL_MelancholicFolk_Guitar,0.9984880685806274,1
60,100,0.11818181818181818,193,0,81,DL_MelancholicFolk_Guitar,6,2,DL_MelancholicFolk_Guitar,0.06334628164768219,0
60,100,0.5363636363636364,303,0,81,DL_MelancholicFolk_Guitar,6,9,DL_MelancholicFolk_Guitar,0.05774250626564026,0
60,100,0.13636363636363635,436,0,81,DL_MelancholicFolk_Guitar,6,2,DL_MelancholicFolk_Guitar,0.060204632580280304,0
55,100,0.4409090909090909,475,0,81,DL_MelancholicFolk_Guitar,6,7,DL_MelancholicFolk_Guitar,0.06970442831516266,0
60,100,0.4,603,0,81,DL_MelancholicFolk_Guitar,6,6,DL_MelancholicFolk_Guitar,0.0818977952003479,0
56,100,0.1,857,1,81,DL_MelancholicFolk_Guitar,6,2,DL_MelancholicFolk_Guitar,0.1240210309624672,0
58,100,0.33636363636363636,480,1,82,DL_MelancholicFolk_Guitar,6,5,DL_MelancholicFolk_Guitar,0.9990230798721313,1
58,100,0.8,590,0,82,DL_MelancholicFolk_Guitar,6,13,DL_MelancholicFolk_Guitar,0.36661669611930847,0
58,100,0.6181818181818182,832,1,82,DL_MelancholicFolk_Guitar,6,10,DL_MelancholicFolk_Guitar,0.45329341292381287,0
70,100,0.2409090909090909,87,1,83,DL_MelancholicFolk_Guitar,6,4,DL_MelancholicFolk_Guitar,0.9983737468719482,1
63,100,0.11818181818181818,140,0,83,DL_MelancholicFolk_Guitar,6,2,DL_MelancholicFolk_Guitar,0.05106060951948166,0
58,100,0.11818181818181818,307,0,83,DL_MelancholicFolk_Guitar,6,2,DL_MelancholicFolk_Guitar,0.0413023978471756,0
58,100,0.2772727272727273,339,0,83,DL_MelancholicFolk_Guitar,6,4,DL_MelancholicFolk_Guitar,0.03738545626401901,0
62,100,0.6409090909090909,426,0,83,DL_MelancholicFolk_Guitar,6,10,DL_MelancholicFolk_Guitar,0.03832748532295227,0
62,100,0.2,572,0,83,DL_MelancholicFolk_Guitar,6,3,DL_MelancholicFolk_Guitar,0.04474939405918121,0
58,100,0.2409090909090909,650,0,83,DL_MelancholicFolk_Guitar,6,4,DL_MelancholicFolk_Guitar,0.05522725358605385,0
60,100,0.11818181818181818,787,0,83,DL_MelancholicFolk_Guitar,6,2,DL_MelancholicFolk_Guitar,0.0902637466788292,0
60,100,0.37727272727272726,184,1,84,DL_MelancholicFolk_Guitar,6,6,DL_MelancholicFolk_Guitar,0.9986500144004822,1
60,100,0.3,273,0,84,DL_MelancholicFolk_Guitar,6,5,DL_MelancholicFolk_Guitar,0.08780427277088165,0
60,100,0.2,343,0,84,DL_MelancholicFolk_Guitar,6,3,DL_MelancholicFolk_Guitar,0.09181827306747437,0
63,100,0.1590909090909091,519,0,84,DL_MelancholicFolk_Guitar,6,3,DL_MelancholicFolk_Guitar,0.10748724639415741,0
56,100,0.22272727272727272,563,0,84,DL_MelancholicFolk_Guitar,6,4,DL_MelancholicFolk_Guitar,0.12483128160238266,0
56,100,1.3409090909090908,823,1,84,DL_MelancholicFolk_Guitar,6,15,DL_MelancholicFolk_Guitar,0.17903479933738708,0
56,100,0.11818181818181818,392,1,85,DL_MelancholicFolk_Guitar,6,2,DL_MelancholicFolk_Guitar,0.9988419413566589,1
56,100,0.1,576,0,85,DL_MelancholicFolk_Guitar,6,2,DL_MelancholicFolk_Guitar,0.13724790513515472,0
58,100,0.1590909090909091,616,0,85,DL_MelancholicFolk_Guitar,6,3,DL_MelancholicFolk_Guitar,0.1597720831632614,0
60,100,0.18181818181818182,773,0,85,DL_MelancholicFolk_Guitar,6,3,DL_MelancholicFolk_Guitar,0.18644702434539795,0
53,100,0.11818181818181818,823,0,85,DL_MelancholicFolk_Guitar,6,2,DL_MelancholicFolk_Guitar,0.2581619322299957,0
53,100,0.17727272727272728,30,1,86,DL_MelancholicFolk_Guitar,6,3,DL_MelancholicFolk_Guitar,0.9984880685806274,1
53,100,0.1590909090909091,189,0,86,DL_MelancholicFolk_Guitar,6,3,DL_MelancholicFolk_Guitar,0.06334469467401505,0
58,100,0.4772727272727273,229,0,86,DL_MelancholicFolk_Guitar,6,8,DL_MelancholicFolk_Guitar,0.057741839438676834,0
60,100,0.38181818181818183,409,0,86,DL_MelancholicFolk_Guitar,6,6,DL_MelancholicFolk_Guitar,0.060201797634363174,0
60,100,0.2,519,0,86,DL_MelancholicFolk_Guitar,6,3,DL_MelancholicFolk_Guitar,0.06970245391130447,0
60,100,0.1,567,0,86,DL_MelancholicFolk_Guitar,6,2,DL_MelancholicFolk_Guitar,0.08189431577920914,0
60,100,0.8,752,0,86,DL_MelancholicFolk_Guitar,6,13,DL_MelancholicFolk_Guitar,0.12401613593101501,0
56,100,0.5409090909090909,69,1,87,DL_MelancholicFolk_Guitar,6,9,DL_MelancholicFolk_Guitar,0.9983164072036743,1
58,100,1.259090909090909,637,1,87,DL_MelancholicFolk_Guitar,6,15,DL_MelancholicFolk_Guitar,0.5445552468299866,0
58,100,0.1590909090909091,53,1,88,DL_MelancholicFolk_Guitar,6,3,DL_MelancholicFolk_Guitar,0.9984880685806274,1
58,100,0.7,100,0,88,DL_MelancholicFolk_Guitar,6,11,DL_MelancholicFolk_Guitar,0.06334475427865982,0
70,100,0.12272727272727273,289,0,88,DL_MelancholicFolk_Guitar,6,2,DL_MelancholicFolk_Guitar,0.05774225294589996,0
63,100,0.11818181818181818,330,0,88,DL_MelancholicFolk_Guitar,6,2,DL_MelancholicFolk_Guitar,0.0602007620036602,0
63,100,0.6,453,0,88,DL_MelancholicFolk_Guitar,6,10,DL_MelancholicFolk_Guitar,0.06970176845788956,0
62,100,0.3181818181818182,612,0,88,DL_MelancholicFolk_Guitar,6,5,DL_MelancholicFolk_Guitar,0.08189556747674942,0
62,100,0.13636363636363635,722,0,88,DL_MelancholicFolk_Guitar,6,2,DL_MelancholicFolk_Guitar,0.12402475625276566,0
60,100,0.5409090909090909,30,1,89,DL_MelancholicFolk_Guitar,6,9,DL_MelancholicFolk_Guitar,0.9983165264129639,1
60,100,0.17727272727272728,493,1,89,DL_MelancholicFolk_Guitar,6,3,DL_MelancholicFolk_Guitar,0.5445613861083984,0
70,100,0.2409090909090909,220,1,90,DL_MelancholicFolk_Guitar,6,4,DL_MelancholicFolk_Guitar,0.9990229606628418,1
58,100,1.6409090909090909,299,0,90,DL_MelancholicFolk_Guitar,6,15,DL_MelancholicFolk_Guitar,0.36661258339881897,0
58,100,0.11818181818181818,677,1,90,DL_MelancholicFolk_Guitar,6,2,DL_MelancholicFolk_Guitar,0.45329180359840393,0
62,100,0.16363636363636364,487,1,1,_Remix_Guitar,6,3,_Remix_Guitar,0.9983165264129639,1
60,100,0.1,801,1,1,_Remix_Guitar,6,2,_Remix_Guitar,0.5445647835731506,0
60,100,0.12272727272727273,122,1,2,_Remix_Guitar,6,2,_Remix_Guitar,0.9983165264129639,1
55,100,0.1409090909090909,616,1,2,_Remix_Guitar,6,2,_Remix_Guitar,0.5445489883422852,0
56,100,0.21818181818181817,229,1,3,_Remix_Guitar,6,3,_Remix_Guitar,0.9990229606628418,1
56,100,0.1409090909090909,364,0,3,_Remix_Guitar,6,2,_Remix_Guitar,0.36662811040878296,0
63,100,0.2409090909090909,730,1,3,_Remix_Guitar,6,4,_Remix_Guitar,0.45328488945961,0
62,100,0.17727272727272728,118,1,6,_Remix_Guitar,6,3,_Remix_Guitar,0.9983165264129639,1
63,100,0.11818181818181818,747,1,6,_Remix_Guitar,6,2,_Remix_Guitar,0.5445659756660461,0
56,100,0.22272727272727272,25,1,7,_Remix_Guitar,6,4,_Remix_Guitar,0.979255735874176,0
62,100,0.1409090909090909,374,1,8,_Remix_Guitar,6,2,_Remix_Guitar,0.9983165264129639,1
63,100,0.1,761,1,8,_Remix_Guitar,6,2,_Remix_Guitar,0.5445625185966492,0
56,100,0.13636363636363635,171,1,9,_Remix_Guitar,6,2,_Remix_Guitar,0.9990230798721313,1
56,100,0.12272727272727273,290,0,9,_Remix_Guitar,6,2,_Remix_Guitar,0.36662566661834717,0
56,100,0.12272727272727273,804,1,9,_Remix_Guitar,6,2,_Remix_Guitar,0.4532855153083801,0
56,100,0.1409090909090909,175,1,10,_Remix_Guitar,6,2,_Remix_Guitar,0.9983165264129639,1
63,100,0.5818181818181818,792,1,10,_Remix_Guitar,6,9,_Remix_Guitar,0.5445549488067627,0
65,100,0.17727272727272728,118,1,11,_Remix_Guitar,6,3,_Remix_Guitar,0.9984880685806274,1
67,100,0.2590909090909091,163,0,11,_Remix_Guitar,6,4,_Remix_Guitar,0.06334500759840012,0
70,100,0.3409090909090909,285,0,11,_Remix_Guitar,6,5,_Remix_Guitar,0.05774243175983429,0
67,100,0.2409090909090909,360,0,11,_Remix_Guitar,6,4,_Remix_Guitar,0.060200463980436325,0
56,100,0.2409090909090909,426,0,11,_Remix_Guitar,6,4,_Remix_Guitar,0.06970074772834778,0
65,100,0.2818181818181818,795,1,11,_Remix_Guitar,6,5,_Remix_Guitar,0.08188977837562561,0
67,100,0.2409090909090909,862,0,11,_Remix_Guitar,6,4,_Remix_Guitar,0.12401856482028961,0
70,100,0.1,79,1,12,_Remix_Guitar,6,2,_Remix_Guitar,0.9982103109359741,1
70,100,0.1590909090909091,175,0,12,_Remix_Guitar,6,3,_Remix_Guitar,0.03827815130352974,0
67,100,0.17727272727272728,237,0,12,_Remix_Guitar,6,3,_Remix_Guitar,0.025408538058400154,0
65,100,0.33636363636363636,281,0,12,_Remix_Guitar,6,5,_Remix_Guitar,0.017132410779595375,0
63,100,0.2,360,0,12,_Remix_Guitar,6,3,_Remix_Guitar,0.011699998751282692,0
60,100,0.21818181818181817,414,0,12,_Remix_Guitar,6,3,_Remix_Guitar,0.008470260538160801,0
58,100,0.1,501,0,12,_Remix_Guitar,6,2,_Remix_Guitar,0.0069722458720207214,0
60,100,0.36363636363636365,532,0,12,_Remix_Guitar,6,6,_Remix_Guitar,0.00700550340116024,0
63,100,0.1409090909090909,620,0,12,_Remix_Guitar,6,2,_Remix_Guitar,0.008908410556614399,0
65,100,0.3,660,0,12,_Remix_Guitar,6,5,_Remix_Guitar,0.013944080099463463,0
67,100,0.3181818181818182,787,0,12,_Remix_Guitar,6,5,_Remix_Guitar,0.02411544695496559,0
53,100,0.1,876,0,12,_Remix_Guitar,6,2,_Remix_Guitar,0.050319284200668335,0
65,100,0.38181818181818183,22,1,13,_Remix_Guitar,6,6,_Remix_Guitar,0.9982553124427795,1
63,100,0.1,135,0,13,_Remix_Guitar,6,2,_Remix_Guitar,0.04128782078623772,0
63,100,0.41818181818181815,185,0,13,_Remix_Guitar,6,7,_Remix_Guitar,0.028934625908732414,0
63,100,0.3181818181818182,281,0,13,_Remix_Guitar,6,5,_Remix_Guitar,0.021288448944687843,0
65,100,0.12272727272727273,355,0,13,_Remix_Guitar,6,2,_Remix_Guitar,0.016745315864682198,0
55,100,0.1,505,0,13,_Remix_Guitar,6,2,_Remix_Guitar,0.014918321743607521,0
70,100,0.3,532,0,13,_Remix_Guitar,6,5,_Remix_Guitar,0.016015976667404175,0
67,100,0.2,615,0,13,_Remix_Guitar,6,3,_Remix_Guitar,0.021179256960749626,0
56,100,0.3409090909090909,663,0,13,_Remix_Guitar,6,5,_Remix_Guitar,0.031565941870212555,0
72,100,0.2590909090909091,787,0,13,_Remix_Guitar,6,4,_Remix_Guitar,0.060061343014240265,0
70,100,0.2772727272727273,30,1,14,_Remix_Guitar,6,4,_Remix_Guitar,0.9983004927635193,1
65,100,0.3,163,0,14,_Remix_Guitar,6,5,_Remix_Guitar,0.04466322064399719,0
63,100,0.22272727272727272,233,0,14,_Remix_Guitar,6,4,_Remix_Guitar,0.0331498458981514,0
65,100,0.3,295,0,14,_Remix_Guitar,6,5,_Remix_Guitar,0.026579374447464943,0
65,100,0.12272727272727273,400,0,14,_Remix_Guitar,6,2,_Remix_Guitar,0.023595096543431282,0
67,100,0.18181818181818182,488,0,14,_Remix_Guitar,6,3,_Remix_Guitar,0.024314088746905327,0
67,100,0.1409090909090909,550,0,14,_Remix_Guitar,6,2,_Remix_Guitar,0.029688552021980286,0
65,100,0.3409090909090909,660,0,14,_Remix_Guitar,6,5,_Remix_Guitar,0.04007595032453537,0
65,100,0.2772727272727273,744,0,14,_Remix_Guitar,6,4,_Remix_Guitar,0.07092751562595367,0
58,100,0.22272727272727272,233,1,16,_Remix_Guitar,6,4,_Remix_Guitar,0.9792563915252686,1
58,100,0.18181818181818182,233,1,19,_Remix_Guitar,6,3,_Remix_Guitar,0.9792563915252686,0
56,100,0.16363636363636364,158,1,20,_Remix_Guitar,6,3,_Remix_Guitar,0.9990229606628418,1
56,100,0.1590909090909091,364,0,20,_Remix_Guitar,6,3,_Remix_Guitar,0.3666169047355652,0
58,100,0.1409090909090909,870,1,20,_Remix_Guitar,6,2,_Remix_Guitar,0.4532912075519562,0
58,100,0.1409090909090909,113,1,21,_Remix_Guitar,6,2,_Remix_Guitar,0.9792568683624268,1
56,100,0.2409090909090909,474,1,22,_Remix_Guitar,6,4,_Remix_Guitar,0.9792556166648865,0
58,100,0.1590909090909091,229,1,23,_Remix_Guitar,6,3,_Remix_Guitar,0.9792563915252686,0
56,100,0.1590909090909091,656,1,24,_Remix_Guitar,6,3,_Remix_Guitar,0.9983165264129639,1
56,100,0.13636363636363635,876,0,24,_Remix_Guitar,6,2,_Remix_Guitar,0.5445524454116821,0
63,100,0.42272727272727273,387,1,25,_Remix_Guitar,6,7,_Remix_Guitar,0.9990229606628418,1
55,100,0.2772727272727273,721,1,25,_Remix_Guitar,6,4,_Remix_Guitar,0.3666357100009918,0
67,100,0.38181818181818183,804,0,25,_Remix_Guitar,6,6,_Remix_Guitar,0.45329007506370544,0
67,100,0.17727272727272728,40,1,26,_Remix_Guitar,6,3,_Remix_Guitar,0.9988419413566589,1
58,100,0.2409090909090909,167,0,26,_Remix_Guitar,6,4,_Remix_Guitar,0.13724607229232788,0
63,100,0.35909090909090907,370,0,26,_Remix_Guitar,6,6,_Remix_Guitar,0.15977700054645538,0
63,100,0.2818181818181818,461,0,26,_Remix_Guitar,6,5,_Remix_Guitar,0.186446413397789,0
53,100,0.2409090909090909,791,1,26,_Remix_Guitar,6,4,_Remix_Guitar,0.25816628336906433,0
56,100,0.1590909090909091,79,1,27,_Remix_Guitar,6,3,_Remix_Guitar,0.9990057349205017,1
63,100,0.2409090909090909,198,0,27,_Remix_Guitar,6,4,_Remix_Guitar,0.23120450973510742,0
63,100,0.12272727272727273,254,0,27,_Remix_Guitar,6,2,_Remix_Guitar,0.2659216821193695,0
58,100,0.11818181818181818,735,1,27,_Remix_Guitar,6,2,_Remix_Guitar,0.3542024791240692,0
67,100,0.5590909090909091,34,1,28,_Remix_Guitar,6,9,_Remix_Guitar,0.9986500144004822,1
67,100,0.18181818181818182,202,0,28,_Remix_Guitar,6,3,_Remix_Guitar,0.08780427277088165,0
67,100,0.1409090909090909,272,0,28,_Remix_Guitar,6,2,_Remix_Guitar,0.09181414544582367,0
67,100,0.2772727272727273,347,0,28,_Remix_Guitar,6,4,_Remix_Guitar,0.10747568309307098,0
67,100,0.3,453,0,28,_Remix_Guitar,6,5,_Remix_Guitar,0.1248234361410141,0
67,100,0.5772727272727273,536,0,28,_Remix_Guitar,6,9,_Remix_Guitar,0.1790250688791275,0
58,100,0.35909090909090907,57,1,29,_Remix_Guitar,6,6,_Remix_Guitar,0.9990230798721313,1
58,100,0.11818181818181818,625,1,29,_Remix_Guitar,6,2,_Remix_Guitar,0.3666267693042755,0
53,100,0.2,770,0,29,_Remix_Guitar,6,3,_Remix_Guitar,0.45328399538993835,0
58,100,0.1409090909090909,119,1,30,_Remix_Guitar,6,2,_Remix_Guitar,0.9986500144004822,1
67,100,0.8636363636363636,289,0,30,_Remix_Guitar,6,14,_Remix_Guitar,0.08780024200677872,0
53,100,0.1590909090909091,484,0,30,_Remix_Guitar,6,3,_Remix_Guitar,0.0918116346001625,0
67,100,0.2590909090909091,536,0,30,_Remix_Guitar,6,4,_Remix_Guitar,0.10747590661048889,0
53,100,0.12272727272727273,598,0,30,_Remix_Guitar,6,2,_Remix_Guitar,0.12482354789972305,0
63,100,0.8227272727272728,796,0,30,_Remix_Guitar,6,13,_Remix_Guitar,0.17902357876300812,0
63,100,0.1,210,1,31,_Remix_Guitar,6,2,_Remix_Guitar,0.9984880685806274,1
63,100,0.2409090909090909,295,0,31,_Remix_Guitar,6,4,_Remix_Guitar,0.06334396451711655,0
53,100,0.5409090909090909,418,0,31,_Remix_Guitar,6,9,_Remix_Guitar,0.05774271860718727,0
53,100,0.2590909090909091,611,0,31,_Remix_Guitar,6,4,_Remix_Guitar,0.060201529413461685,0
53,100,0.16363636363636364,818,0,31,_Remix_Guitar,6,3,_Remix_Guitar,0.06970327347517014,0
54,100,0.1,853,0,31,_Remix_Guitar,6,2,_Remix_Guitar,0.08189716190099716,0
53,100,0.43636363636363634,876,0,31,_Remix_Guitar,6,7,_Remix_Guitar,0.12402155995368958,0
63,100,0.18181818181818182,188,1,32,_Remix_Guitar,6,3,_Remix_Guitar,0.9990229606628418,1
52,100,0.1409090909090909,421,1,32,_Remix_Guitar,6,2,_Remix_Guitar,0.3666331171989441,0
62,100,1.5772727272727274,568,0,32,_Remix_Guitar,6,15,_Remix_Guitar,0.45329469442367554,0
62,100,0.5409090909090909,69,1,33,_Remix_Guitar,6,9,_Remix_Guitar,0.9990229606628418,1
62,100,1.1227272727272728,233,0,33,_Remix_Guitar,6,15,_Remix_Guitar,0.3666309714317322,0
53,100,0.1409090909090909,619,1,33,_Remix_Guitar,6,2,_Remix_Guitar,0.4532987177371979,0
53,100,0.21818181818181817,493,1,34,_Remix_Guitar,6,3,_Remix_Guitar,0.9983165264129639,1
56,100,0.1409090909090909,646,0,34,_Remix_Guitar,6,2,_Remix_Guitar,0.5445491075515747,0
53,100,0.2,611,1,35,_Remix_Guitar,6,3,_Remix_Guitar,0.9983165264129639,1
62,100,0.12272727272727273,818,0,35,_Remix_Guitar,6,2,_Remix_Guitar,0.5445612072944641,0
55,100,0.1,56,1,36,_Remix_Guitar,6,2,_Remix_Guitar,0.9990229606628418,1
55,100,0.18181818181818182,298,1,36,_Remix_Guitar,6,3,_Remix_Guitar,0.36661824584007263,0
58,100,0.3181818181818182,660,1,36,_Remix_Guitar,6,5,_Remix_Guitar,0.45328715443611145,0
56,100,0.2409090909090909,298,1,37,_Remix_Guitar,6,4,_Remix_Guitar,0.9983164072036743,1
56,100,0.12272727272727273,378,0,37,_Remix_Guitar,6,2,_Remix_Guitar,0.5445495843887329,0
53,100,0.1409090909090909,53,1,40,_Remix_Guitar,6,2,_Remix_Guitar,0.9984880685806274,1
58,100,0.18181818181818182,224,0,40,_Remix_Guitar,6,3,_Remix_Guitar,0.06334690749645233,0
58,100,0.1409090909090909,386,0,40,_Remix_Guitar,6,2,_Remix_Guitar,0.05774350091814995,0
55,100,0.5181818181818182,550,0,40,_Remix_Guitar,6,8,_Remix_Guitar,0.060201678425073624,0
58,100,0.1,703,0,40,_Remix_Guitar,6,2,_Remix_Guitar,0.06970470398664474,0
55,100,0.2818181818181818,748,0,40,_Remix_Guitar,6,5,_Remix_Guitar,0.08189316093921661,0
58,100,0.21818181818181817,858,0,40,_Remix_Guitar,6,3,_Remix_Guitar,0.1240200325846672,0
58,100,0.2,224,1,41,_Remix_Guitar,6,3,_Remix_Guitar,0.9990230798721313,1
63,100,0.2818181818181818,408,0,41,_Remix_Guitar,6,5,_Remix_Guitar,0.366626113653183,0
53,100,0.4,664,1,41,_Remix_Guitar,6,6,_Remix_Guitar,0.45329731702804565,0
58,100,0.2,678,1,42,_Remix_Guitar,6,3,_Remix_Guitar,0.9983165264129639,1
58,100,0.13636363636363635,743,0,42,_Remix_Guitar,6,2,_Remix_Guitar,0.5445584654808044,0
62,100,0.13636363636363635,303,1,43,_Remix_Guitar,6,2,_Remix_Guitar,0.9983164072036743,1
53,100,0.1409090909090909,625,1,43,_Remix_Guitar,6,2,_Remix_Guitar,0.5445607304573059,0
56,100,0.11818181818181818,373,1,46,_Remix_Guitar,6,2,_Remix_Guitar,0.9983165264129639,1
53,100,0.12272727272727273,783,1,46,_Remix_Guitar,6,2,_Remix_Guitar,0.5445533394813538,0
55,100,0.1590909090909091,536,1,47,_Remix_Guitar,6,3,_Remix_Guitar,0.9983165264129639,1
55,100,0.18181818181818182,576,0,47,_Remix_Guitar,6,3,_Remix_Guitar,0.5445587038993835,0
56,100,0.2590909090909091,558,1,48,_Remix_Guitar,6,4,_Remix_Guitar,0.9983164072036743,1
56,100,0.3,721,0,48,_Remix_Guitar,6,5,_Remix_Guitar,0.5445578694343567,0
53,100,0.5,796,1,50,_Remix_Guitar,6,8,_Remix_Guitar,0.9792558550834656,1
56,100,0.5636363636363636,179,1,52,_Remix_Guitar,6,9,_Remix_Guitar,0.9792558550834656,0
56,100,0.11818181818181818,263,1,53,_Remix_Guitar,6,2,_Remix_Guitar,0.9983165264129639,1
58,100,0.2,823,1,53,_Remix_Guitar,6,3,_Remix_Guitar,0.544559895992279,0
58,100,0.18181818181818182,0,1,54,_Remix_Guitar,6,3,_Remix_Guitar,0.9988419413566589,1
53,100,0.18181818181818182,91,0,54,_Remix_Guitar,6,3,_Remix_Guitar,0.1372492015361786,0
55,100,0.32272727272727275,289,0,54,_Remix_Guitar,6,5,_Remix_Guitar,0.15977993607521057,0
55,100,0.11818181818181818,506,0,54,_Remix_Guitar,6,2,_Remix_Guitar,0.18644781410694122,0
55,100,0.2772727272727273,668,0,54,_Remix_Guitar,6,4,_Remix_Guitar,0.25815463066101074,0
63,100,0.21818181818181817,96,1,55,_Remix_Guitar,6,3,_Remix_Guitar,0.9990057349205017,1
53,100,0.4772727272727273,426,1,55,_Remix_Guitar,6,8,_Remix_Guitar,0.2312084585428238,0
53,100,0.3409090909090909,584,0,55,_Remix_Guitar,6,5,_Remix_Guitar,0.2659260630607605,0
53,100,0.12272727272727273,826,1,55,_Remix_Guitar,6,2,_Remix_Guitar,0.3542003929615021,0
53,100,0.2409090909090909,26,1,56,_Remix_Guitar,6,4,_Remix_Guitar,0.9990057349205017,1
65,100,0.11818181818181818,88,0,56,_Remix_Guitar,6,2,_Remix_Guitar,0.23120354115962982,0
53,100,0.1409090909090909,311,0,56,_Remix_Guitar,6,2,_Remix_Guitar,0.26591891050338745,0
63,100,0.2409090909090909,729,1,56,_Remix_Guitar,6,4,_Remix_Guitar,0.35419636964797974,0
53,100,0.11818181818181818,286,1,58,_Remix_Guitar,6,2,_Remix_Guitar,0.9983165264129639,1
58,100,0.11818181818181818,853,1,58,_Remix_Guitar,6,2,_Remix_Guitar,0.5445619821548462,0
55,100,0.2772727272727273,105,1,59,_Remix_Guitar,6,4,_Remix_Guitar,0.9792565107345581,0
53,100,0.4590909090909091,166,1,60,_Remix_Guitar,6,7,_Remix_Guitar,0.9983165264129639,1
53,100,0.1409090909090909,364,0,60,_Remix_Guitar,6,2,_Remix_Guitar,0.5445549488067627,0
53,100,0.1409090909090909,110,1,61,_Remix_Guitar,6,2,_Remix_Guitar,0.9990229606628418,1
53,100,0.33636363636363636,171,0,61,_Remix_Guitar,6,5,_Remix_Guitar,0.3666231632232666,0
63,100,0.1409090909090909,703,1,61,_Remix_Guitar,6,2,_Remix_Guitar,0.45328468084335327,0
53,100,0.3,163,1,62,_Remix_Guitar,6,5,_Remix_Guitar,0.9990057349205017,1
53,100,0.2,289,0,62,_Remix_Guitar,6,3,_Remix_Guitar,0.23119807243347168,0
53,100,0.13636363636363635,435,0,62,_Remix_Guitar,6,2,_Remix_Guitar,0.26591408252716064,0
53,100,0.22272727272727272,584,0,62,_Remix_Guitar,6,4,_Remix_Guitar,0.3541910946369171,0
63,100,0.38181818181818183,694,1,63,_Remix_Guitar,6,6,_Remix_Guitar,0.9792561531066895,1
56,100,0.22272727272727272,540,1,64,_Remix_Guitar,6,4,_Remix_Guitar,0.9792558550834656,0
56,100,0.1409090909090909,30,1,65,_Remix_Guitar,6,2,_Remix_Guitar,0.9988420605659485,1
63,100,0.1,113,0,65,_Remix_Guitar,6,2,_Remix_Guitar,0.13725511729717255,0
58,100,0.7227272727272728,356,1,65,_Remix_Guitar,6,12,_Remix_Guitar,0.15978889167308807,0
56,100,0.8,536,0,65,_Remix_Guitar,6,13,_Remix_Guitar,0.18645808100700378,0
56,100,0.4,783,1,65,_Remix_Guitar,6,6,_Remix_Guitar,0.2581622898578644,0
63,100,0.1409090909090909,66,1,66,_Remix_Guitar,6,2,_Remix_Guitar,0.9983164072036743,1
56,100,0.2409090909090909,157,0,66,_Remix_Guitar,6,4,_Remix_Guitar,0.5445612072944641,0
63,100,0.1,100,1,67,_Remix_Guitar,6,2,_Remix_Guitar,0.9990229606628418,1
63,100,0.2409090909090909,136,0,67,_Remix_Guitar,6,4,_Remix_Guitar,0.36662527918815613,0
58,100,0.1409090909090909,273,0,67,_Remix_Guitar,6,2,_Remix_Guitar,0.453301340341568,0
58,100,0.35909090909090907,176,1,68,_Remix_Guitar,6,6,_Remix_Guitar,0.9983164072036743,1
56,100,0.32272727272727275,430,1,68,_Remix_Guitar,6,5,_Remix_Guitar,0.5445549488067627,0
56,100,0.16363636363636364,157,1,69,_Remix_Guitar,6,3,_Remix_Guitar,0.9990229606628418,1
60,100,0.2590909090909091,726,1,69,_Remix_Guitar,6,4,_Remix_Guitar,0.36662057042121887,0
60,100,0.2409090909090909,796,0,69,_Remix_Guitar,6,4,_Remix_Guitar,0.45329129695892334,0
60,100,0.12272727272727273,69,1,70,_Remix_Guitar,6,2,_Remix_Guitar,0.9986500144004822,1
54,100,0.11818181818181818,119,0,70,_Remix_Guitar,6,2,_Remix_Guitar,0.0878051370382309,0
60,100,0.1409090909090909,365,1,70,_Remix_Guitar,6,2,_Remix_Guitar,0.09181723743677139,0
63,100,0.5,475,0,70,_Remix_Guitar,6,8,_Remix_Guitar,0.10748215019702911,0
56,100,0.5227272727272727,663,0,70,_Remix_Guitar,6,8,_Remix_Guitar,0.12483011931180954,0
56,100,0.18181818181818182,826,0,70,_Remix_Guitar,6,3,_Remix_Guitar,0.17903658747673035,0
56,100,0.2409090909090909,475,1,71,_Remix_Guitar,6,4,_Remix_Guitar,0.9983165264129639,1
63,100,0.22272727272727272,673,0,71,_Remix_Guitar,6,4,_Remix_Guitar,0.5445588827133179,0
55,100,0.2,853,1,72,_Remix_Guitar,6,3,_Remix_Guitar,0.9792566299438477,0
55,100,0.1409090909090909,113,1,73,_Remix_Guitar,6,2,_Remix_Guitar,0.9990058541297913,1
63,100,0.18181818181818182,286,0,73,_Remix_Guitar,6,3,_Remix_Guitar,0.23121197521686554,0
55,100,0.23636363636363636,546,1,73,_Remix_Guitar,6,4,_Remix_Guitar,0.2659243047237396,0
56,100,0.11818181818181818,836,1,73,_Remix_Guitar,6,2,_Remix_Guitar,0.35419079661369324,0
53,100,0.23636363636363636,502,1,74,_Remix_Guitar,6,4,_Remix_Guitar,0.9983165264129639,1
60,100,0.1409090909090909,839,1,74,_Remix_Guitar,6,2,_Remix_Guitar,0.5445597171783447,0
55,100,0.1,123,1,75,_Remix_Guitar,6,2,_Remix_Guitar,0.9988419413566589,1
55,100,0.1409090909090909,299,0,75,_Remix_Guitar,6,2,_Remix_Guitar,0.1372484415769577,0
63,100,0.23636363636363636,392,0,75,_Remix_Guitar,6,4,_Remix_Guitar,0.15977562963962555,0
55,100,0.5,669,1,75,_Remix_Guitar,6,8,_Remix_Guitar,0.18645037710666656,0
55,100,0.2590909090909091,800,0,75,_Remix_Guitar,6,4,_Remix_Guitar,0.25816380977630615,0
60,100,0.1,250,1,76,_Remix_Guitar,6,2,_Remix_Guitar,0.9990057349205017,1
63,100,0.1590909090909091,299,0,76,_Remix_Guitar,6,3,_Remix_Guitar,0.23120379447937012,0
56,100,0.13636363636363635,743,1,76,_Remix_Guitar,6,2,_Remix_Guitar,0.2659260630607605,0
63,100,0.2409090909090909,800,0,76,_Remix_Guitar,6,4,_Remix_Guitar,0.35419991612434387,0
62,100,0.3,462,1,77,_Remix_Guitar,6,5,_Remix_Guitar,0.9990229606628418,1
62,100,0.3,590,0,77,_Remix_Guitar,6,5,_Remix_Guitar,0.36663028597831726,0
62,100,0.37727272727272726,690,0,77,_Remix_Guitar,6,6,_Remix_Guitar,0.4532969295978546,0
62,100,0.21818181818181817,119,1,78,_Remix_Guitar,6,3,_Remix_Guitar,0.9983165264129639,1
63,100,0.2409090909090909,470,1,78,_Remix_Guitar,6,4,_Remix_Guitar,0.5445553064346313,0
63,100,0.2,96,1,79,_Remix_Guitar,6,3,_Remix_Guitar,0.9983164072036743,1
63,100,0.21818181818181817,352,1,79,_Remix_Guitar,6,3,_Remix_Guitar,0.5445621013641357,0
56,100,0.1,796,1,80,_Remix_Guitar,6,2,_Remix_Guitar,0.9792559146881104,0
58,100,0.1409090909090909,286,1,81,_Remix_Guitar,6,2,_Remix_Guitar,0.9983165264129639,1
58,100,0.1409090909090909,320,0,81,_Remix_Guitar,6,2,_Remix_Guitar,0.5445621013641357,0
63,100,0.3409090909090909,330,1,82,_Remix_Guitar,6,5,_Remix_Guitar,0.9792566299438477,0
62,100,0.22272727272727272,475,1,83,_Remix_Guitar,6,4,_Remix_Guitar,0.9990057349205017,1
53,100,0.1409090909090909,619,0,83,_Remix_Guitar,6,2,_Remix_Guitar,0.231205016374588,0
62,100,0.2409090909090909,729,0,83,_Remix_Guitar,6,4,_Remix_Guitar,0.2659260034561157,0
62,100,0.1409090909090909,817,0,83,_Remix_Guitar,6,2,_Remix_Guitar,0.354203999042511,0
63,100,0.3181818181818182,30,1,85,_Remix_Guitar,6,5,_Remix_Guitar,0.9990229606628418,1
63,100,0.21818181818181817,294,1,85,_Remix_Guitar,6,3,_Remix_Guitar,0.3666282892227173,0
63,100,0.3,347,0,85,_Remix_Guitar,6,5,_Remix_Guitar,0.45330101251602173,0
62,100,0.11818181818181818,74,1,86,_Remix_Guitar,6,2,_Remix_Guitar,0.9990057349205017,1
55,100,0.11818181818181818,237,0,86,_Remix_Guitar,6,2,_Remix_Guitar,0.2312130630016327,0
55,100,0.22272727272727272,343,0,86,_Remix_Guitar,6,4,_Remix_Guitar,0.2659253180027008,0
58,100,0.4,800,1,86,_Remix_Guitar,6,6,_Remix_Guitar,0.3542018532752991,0
63,100,0.16363636363636364,223,1,87,_Remix_Guitar,6,3,_Remix_Guitar,0.9988419413566589,1
63,100,0.4590909090909091,303,0,87,_Remix_Guitar,6,7,_Remix_Guitar,0.1372511386871338,0
56,100,0.11818181818181818,436,0,87,_Remix_Guitar,6,2,_Remix_Guitar,0.15978679060935974,0
63,100,0.18181818181818182,686,1,87,_Remix_Guitar,6,3,_Remix_Guitar,0.18645857274532318,0
63,100,0.38181818181818183,796,0,87,_Remix_Guitar,6,6,_Remix_Guitar,0.258179634809494,0
56,100,0.12272727272727273,35,1,88,_Remix_Guitar,6,2,_Remix_Guitar,0.9983165264129639,1
56,100,0.2,83,0,88,_Remix_Guitar,6,3,_Remix_Guitar,0.544555127620697,0
53,100,0.2409090909090909,113,1,90,_Remix_Guitar,6,4,_Remix_Guitar,0.9983165264129639,1
54,100,0.1,237,0,90,_Remix_Guitar,6,2,_Remix_Guitar,0.5445601940155029,0
63,100,0.11818181818181818,62,1,91,_Remix_Guitar,6,2,_Remix_Guitar,0.9990229606628418,1
63,100,0.2409090909090909,163,0,91,_Remix_Guitar,6,4,_Remix_Guitar,0.3666306436061859,0
63,100,0.2590909090909091,726,1,91,_Remix_Guitar,6,4,_Remix_Guitar,0.45330339670181274,0
58,100,0.2,677,1,92,_Remix_Guitar,6,3,_Remix_Guitar,0.9792565107345581,0
63,100,0.5409090909090909,157,1,93,_Remix_Guitar,6,9,_Remix_Guitar,0.9983164072036743,1
56,100,0.1590909090909091,787,1,93,_Remix_Guitar,6,3,_Remix_Guitar,0.544563889503479,0
62,100,0.2590909090909091,559,1,94,_Remix_Guitar,6,4,_Remix_Guitar,0.9983164072036743,1
55,100,0.18181818181818182,805,1,94,_Remix_Guitar,6,3,_Remix_Guitar,0.5445627570152283,0
55,100,0.2,540,1,95,_Remix_Guitar,6,3,_Remix_Guitar,0.9792565107345581,0
63,100,0.18181818181818182,110,1,96,_Remix_Guitar,6,3,_Remix_Guitar,0.9990057349205017,1
63,100,0.11818181818181818,197,0,96,_Remix_Guitar,6,2,_Remix_Guitar,0.2312058061361313,0
63,100,0.35909090909090907,263,0,96,_Remix_Guitar,6,6,_Remix_Guitar,0.265927255153656,0
55,100,0.1409090909090909,673,1,96,_Remix_Guitar,6,2,_Remix_Guitar,0.3542052209377289,0
62,100,0.37727272727272726,193,1,97,_Remix_Guitar,6,6,_Remix_Guitar,0.9990229606628418,1
62,100,1.0636363636363637,289,0,97,_Remix_Guitar,6,15,_Remix_Guitar,0.3666273057460785,0
62,100,0.7772727272727272,800,1,97,_Remix_Guitar,6,12,_Remix_Guitar,0.4533028304576874,0
53,100,0.1590909090909091,145,1,98,_Remix_Guitar,6,3,_Remix_Guitar,0.9990057349205017,1
62,100,0.1590909090909091,193,0,98,_Remix_Guitar,6,3,_Remix_Guitar,0.2312079668045044,0
62,100,1.9772727272727273,339,0,98,_Remix_Guitar,6,15,_Remix_Guitar,0.2659192979335785,0
62,100,0.11818181818181818,779,1,98,_Remix_Guitar,6,2,_Remix_Guitar,0.3542095720767975,0
62,100,0.1409090909090909,356,1,99,_Remix_Guitar,6,2,_Remix_Guitar,0.9792559146881104,0
55,100,0.35909090909090907,540,1,100,_Remix_Guitar,6,6,_Remix_Guitar,0.9792565107345581,1
55,100,0.3,157,1,101,_Remix_Guitar,6,5,_Remix_Guitar,0.9792565107345581,0
63,100,0.1590909090909091,580,1,102,_Remix_Guitar,6,3,_Remix_Guitar,0.9792560338973999,0
56,100,0.2590909090909091,163,1,104,_Remix_Guitar,6,4,_Remix_Guitar,0.9983165264129639,1
63,100,0.3,320,0,104,_Remix_Guitar,6,5,_Remix_Guitar,0.5445654392242432,0
53,100,0.36363636363636365,157,1,105,_Remix_Guitar,6,6,_Remix_Guitar,0.9990229606628418,1
62,100,0.1,466,1,105,_Remix_Guitar,6,2,_Remix_Guitar,0.3666280508041382,0
63,100,0.2409090909090909,739,1,105,_Remix_Guitar,6,4,_Remix_Guitar,0.4532969295978546,0
60,100,0.17727272727272728,193,1,106,_Remix_Guitar,6,3,_Remix_Guitar,0.9983165264129639,1
63,100,0.1,690,1,106,_Remix_Guitar,6,2,_Remix_Guitar,0.5445476174354553,0
62,100,0.2,436,1,107,_Remix_Guitar,6,3,_Remix_Guitar,0.9990229606628418,1
62,100,0.4,509,0,107,_Remix_Guitar,6,6,_Remix_Guitar,0.3666298985481262,0
62,100,0.2590909090909091,695,0,107,_Remix_Guitar,6,4,_Remix_Guitar,0.4533065855503082,0
62,100,0.4,13,1,108,_Remix_Guitar,6,6,_Remix_Guitar,0.9990057349205017,1
62,100,0.17727272727272728,106,0,108,_Remix_Guitar,6,3,_Remix_Guitar,0.2312069982290268,0
62,100,0.2,430,1,108,_Remix_Guitar,6,3,_Remix_Guitar,0.26592615246772766,0
53,100,0.18181818181818182,862,1,108,_Remix_Guitar,6,3,_Remix_Guitar,0.3542115092277527,0
53,100,0.11818181818181818,30,1,109,_Remix_Guitar,6,2,_Remix_Guitar,0.9983164072036743,1
63,100,0.6,857,1,109,_Remix_Guitar,6,10,_Remix_Guitar,0.5445535182952881,0
63,100,0.1,113,1,110,_Remix_Guitar,6,2,_Remix_Guitar,0.9983165264129639,1
53,100,0.1,294,0,110,_Remix_Guitar,6,2,_Remix_Guitar,0.5445597171783447,0
63,100,0.3409090909090909,496,1,111,_Remix_Guitar,6,5,_Remix_Guitar,0.9983164072036743,1
63,100,0.1409090909090909,650,0,111,_Remix_Guitar,6,2,_Remix_Guitar,0.5445665121078491,0
65,100,0.3,320,1,112,_Remix_Guitar,6,5,_Remix_Guitar,0.9983165264129639,1
65,100,0.3409090909090909,399,0,112,_Remix_Guitar,6,5,_Remix_Guitar,0.5445512533187866,0
58,100,0.2,686,1,113,_Remix_Guitar,6,3,_Remix_Guitar,0.9983165264129639,1
82,100,0.5181818181818182,779,0,113,_Remix_Guitar,6,8,_Remix_Guitar,0.5445589423179626,0
53,100,0.3181818181818182,677,1,115,_Remix_Guitar,6,5,_Remix_Guitar,0.9792560338973999,0
55,100,0.1590909090909091,62,1,116,_Remix_Guitar,6,3,_Remix_Guitar,0.9990229606628418,1
55,100,0.1590909090909091,360,1,116,_Remix_Guitar,6,3,_Remix_Guitar,0.3666175603866577,0
53,100,0.2,677,1,116,_Remix_Guitar,6,3,_Remix_Guitar,0.453290730714798,0
53,100,0.1590909090909091,426,1,117,_Remix_Guitar,6,3,_Remix_Guitar,0.9792566299438477,0
53,100,0.11818181818181818,237,1,119,_Remix_Guitar,6,2,_Remix_Guitar,0.9983165264129639,1
55,100,0.1,457,0,119,_Remix_Guitar,6,2,_Remix_Guitar,0.5445594787597656,0
53,100,0.12272727272727273,210,1,121,_Remix_Guitar,6,2,_Remix_Guitar,0.9792563915252686,1
53,100,0.1409090909090909,660,1,122,_Remix_Guitar,6,2,_Remix_Guitar,0.9792560338973999,0
63,100,0.1,839,1,124,_Remix_Guitar,6,2,_Remix_Guitar,0.9792558550834656,1
53,100,0.3,40,1,127,_Remix_Guitar,6,5,_Remix_Guitar,0.9792556166648865,0
57,100,0.2,232,1,128,_Remix_Guitar,6,3,_Remix_Guitar,0.9792565107345581,1
53,100,0.1409090909090909,295,1,129,_Remix_Guitar,6,2,_Remix_Guitar,0.979256272315979,0
53,100,0.41818181818181815,413,1,130,_Remix_Guitar,6,7,_Remix_Guitar,0.9990229606628418,1
53,100,0.1,682,1,130,_Remix_Guitar,6,2,_Remix_Guitar,0.36662402749061584,0
53,100,0.38181818181818183,796,0,130,_Remix_Guitar,6,6,_Remix_Guitar,0.45328742265701294,0
53,100,0.1590909090909091,238,1,131,_Remix_Guitar,6,3,_Remix_Guitar,0.9792558550834656,0
60,100,0.1,228,1,135,_Remix_Guitar,6,2,_Remix_Guitar,0.9792567491531372,0
53,100,0.1409090909090909,79,1,136,_Remix_Guitar,6,2,_Remix_Guitar,0.9983164072036743,1
53,100,0.18181818181818182,180,0,136,_Remix_Guitar,6,3,_Remix_Guitar,0.5445549488067627,0
60,100,0.1590909090909091,185,1,142,_Remix_Guitar,6,3,_Remix_Guitar,0.9792565107345581,0
57,100,0.17727272727272728,492,1,0,DL_Guitar,6,3,DL_Guitar,0.9792558550834656,0
69,100,0.33636363636363636,39,1,1,DL_Guitar,6,5,DL_Guitar,0.9986500144004822,1
52,100,0.7,166,0,1,DL_Guitar,6,11,DL_Guitar,0.08780377358198166,0
52,100,0.1,351,0,1,DL_Guitar,6,2,DL_Guitar,0.09181481599807739,0
59,100,0.1409090909090909,449,0,1,DL_Guitar,6,2,DL_Guitar,0.1074802353978157,0
52,100,0.11818181818181818,638,0,1,DL_Guitar,6,2,DL_Guitar,0.1248302087187767,0
54,100,0.4409090909090909,796,0,1,DL_Guitar,6,7,DL_Guitar,0.17903737723827362,0
59,100,0.2,12,1,2,DL_Guitar,6,3,DL_Guitar,0.9990230798721313,1
54,100,0.3409090909090909,421,1,2,DL_Guitar,6,5,DL_Guitar,0.36662688851356506,0
57,100,0.33636363636363636,501,0,2,DL_Guitar,6,5,DL_Guitar,0.4532873332500458,0
57,100,0.1409090909090909,70,1,3,DL_Guitar,6,2,DL_Guitar,0.9990057349205017,1
69,100,0.2772727272727273,295,0,3,DL_Guitar,6,4,DL_Guitar,0.2311982363462448,0
59,100,0.3,550,1,3,DL_Guitar,6,5,DL_Guitar,0.26591798663139343,0
64,100,0.2818181818181818,629,0,3,DL_Guitar,6,5,DL_Guitar,0.3541994094848633,0
61,100,0.2590909090909091,255,1,4,DL_Guitar,6,4,DL_Guitar,0.9983164072036743,1
64,100,0.3,871,1,4,DL_Guitar,6,5,DL_Guitar,0.5445638298988342,0
52,100,0.3,56,1,5,DL_Guitar,6,5,DL_Guitar,0.9990057349205017,1
69,100,0.11818181818181818,514,1,5,DL_Guitar,6,2,DL_Guitar,0.23119935393333435,0
52,100,0.5772727272727273,678,0,5,DL_Guitar,6,9,DL_Guitar,0.2659159004688263,0
52,100,0.2636363636363636,862,0,5,DL_Guitar,6,4,DL_Guitar,0.3541988432407379,0
64,100,0.1,79,1,6,DL_Guitar,6,2,DL_Guitar,0.9990057349205017,1
52,100,0.8,105,0,6,DL_Guitar,6,13,DL_Guitar,0.23120075464248657,0
54,100,0.43636363636363634,414,1,6,DL_Guitar,6,7,DL_Guitar,0.26592525839805603,0
59,100,0.2409090909090909,514,0,6,DL_Guitar,6,4,DL_Guitar,0.3541974723339081,0
54,100,0.1409090909090909,87,1,7,DL_Guitar,6,2,DL_Guitar,0.9990230798721313,1
57,100,0.32272727272727275,122,0,7,DL_Guitar,6,5,DL_Guitar,0.36661195755004883,0
54,100,0.1409090909090909,317,0,7,DL_Guitar,6,2,DL_Guitar,0.4532892107963562,0
59,100,0.1,34,1,8,DL_Guitar,6,2,DL_Guitar,0.9984880685806274,1
52,100,0.1,127,0,8,DL_Guitar,6,2,DL_Guitar,0.0633450374007225,0
59,100,0.37727272727272726,347,0,8,DL_Guitar,6,6,DL_Guitar,0.057742640376091,0
54,100,0.3409090909090909,448,0,8,DL_Guitar,6,5,DL_Guitar,0.06020301952958107,0
52,100,0.38181818181818183,673,0,8,DL_Guitar,6,6,DL_Guitar,0.06970254331827164,0
57,100,0.3,766,0,8,DL_Guitar,6,5,DL_Guitar,0.08189433068037033,0
52,100,0.1,840,0,8,DL_Guitar,6,2,DL_Guitar,0.12402596324682236,0
57,100,0.21818181818181817,0,1,9,DL_Guitar,6,3,DL_Guitar,0.9984880685806274,1
61,100,0.23636363636363636,106,0,9,DL_Guitar,6,4,DL_Guitar,0.06334524601697922,0
57,100,0.2590909090909091,163,0,9,DL_Guitar,6,4,DL_Guitar,0.05774178355932236,0
61,100,0.2772727272727273,405,1,9,DL_Guitar,6,4,DL_Guitar,0.06020360067486763,0
57,100,0.11818181818181818,484,0,9,DL_Guitar,6,2,DL_Guitar,0.06970424205064774,0
57,100,0.1409090909090909,515,0,9,DL_Guitar,6,2,DL_Guitar,0.08189857751131058,0
52,100,0.23636363636363636,809,1,9,DL_Guitar,6,4,DL_Guitar,0.12402860075235367,0
52,100,0.2409090909090909,113,1,10,DL_Guitar,6,4,DL_Guitar,0.9984880685806274,1
52,100,0.2409090909090909,299,0,10,DL_Guitar,6,4,DL_Guitar,0.06334541738033295,0
64,100,0.1,400,0,10,DL_Guitar,6,2,DL_Guitar,0.057743754237890244,0
59,100,0.32272727272727275,431,0,10,DL_Guitar,6,5,DL_Guitar,0.06020278483629227,0
52,100,0.1590909090909091,611,0,10,DL_Guitar,6,3,DL_Guitar,0.0697028711438179,0
52,100,0.43636363636363634,656,0,10,DL_Guitar,6,7,DL_Guitar,0.08189657330513,0
52,100,0.4409090909090909,795,0,10,DL_Guitar,6,7,DL_Guitar,0.1240229532122612,0
52,100,0.11818181818181818,264,1,11,DL_Guitar,6,2,DL_Guitar,0.9792565107345581,0
66,100,0.17727272727272728,185,1,12,DL_Guitar,6,3,DL_Guitar,0.9990230798721313,1
52,100,0.1,572,1,12,DL_Guitar,6,2,DL_Guitar,0.36663028597831726,0
68,100,0.2590909090909091,756,0,12,DL_Guitar,6,4,DL_Guitar,0.4532914459705353,0
54,100,0.2590909090909091,189,1,13,DL_Guitar,6,4,DL_Guitar,0.9983165264129639,1
54,100,0.1,691,1,13,DL_Guitar,6,2,DL_Guitar,0.5445574522018433,0
64,100,0.11818181818181818,457,1,14,DL_Guitar,6,2,DL_Guitar,0.9988419413566589,1
71,100,0.18181818181818182,496,0,14,DL_Guitar,6,3,DL_Guitar,0.13724534213542938,0
72,100,0.16363636363636364,553,0,14,DL_Guitar,6,3,DL_Guitar,0.1597786247730255,0
68,100,0.11818181818181818,625,0,14,DL_Guitar,6,2,DL_Guitar,0.18644438683986664,0
64,100,0.2590909090909091,871,1,14,DL_Guitar,6,4,DL_Guitar,0.2581673264503479,0
54,100,0.1,694,1,15,DL_Guitar,6,2,DL_Guitar,0.9983165264129639,1
55,100,0.1,747,0,15,DL_Guitar,6,2,DL_Guitar,0.5445510745048523,0
52,100,0.2,52,1,16,DL_Guitar,6,3,DL_Guitar,0.9990229606628418,1
52,100,0.35909090909090907,100,0,16,DL_Guitar,6,6,DL_Guitar,0.3666231632232666,0
52,100,0.1409090909090909,638,1,16,DL_Guitar,6,2,DL_Guitar,0.45329591631889343,0
52,100,0.2,193,1,17,DL_Guitar,6,3,DL_Guitar,0.9990229606628418,1
52,100,0.2409090909090909,250,0,17,DL_Guitar,6,4,DL_Guitar,0.36662107706069946,0
55,100,0.16363636363636364,443,0,17,DL_Guitar,6,3,DL_Guitar,0.4532933235168457,0
55,100,0.1,492,1,18,DL_Guitar,6,2,DL_Guitar,0.979256272315979,0
57,100,0.2590909090909091,430,1,19,DL_Guitar,6,4,DL_Guitar,0.9990057349205017,1
52,100,0.2636363636363636,488,0,19,DL_Guitar,6,4,DL_Guitar,0.23120519518852234,0
64,100,0.1,677,0,19,DL_Guitar,6,2,DL_Guitar,0.2659207284450531,0
64,100,0.2,704,0,19,DL_Guitar,6,3,DL_Guitar,0.35420486330986023,0
54,100,1.0818181818181818,57,1,20,DL_Guitar,6,15,DL_Guitar,0.9988419413566589,1
54,100,0.17727272727272728,382,1,20,DL_Guitar,6,3,DL_Guitar,0.13725189864635468,0
54,100,0.1409090909090909,426,0,20,DL_Guitar,6,2,DL_Guitar,0.15978197753429413,0
57,100,0.2636363636363636,686,1,20,DL_Guitar,6,4,DL_Guitar,0.18644839525222778,0
57,100,0.18181818181818182,760,0,20,DL_Guitar,6,3,DL_Guitar,0.25816890597343445,0
57,100,0.23636363636363636,106,1,21,DL_Guitar,6,4,DL_Guitar,0.9988419413566589,1
57,100,0.1,179,0,21,DL_Guitar,6,2,DL_Guitar,0.13724848628044128,0
57,100,0.38181818181818183,285,0,21,DL_Guitar,6,6,DL_Guitar,0.15977893769741058,0
61,100,0.21818181818181817,505,0,21,DL_Guitar,6,3,DL_Guitar,0.18645094335079193,0
57,100,0.11818181818181818,590,0,21,DL_Guitar,6,2,DL_Guitar,0.2581683099269867,0
54,100,1.0772727272727274,326,1,22,DL_Guitar,6,15,DL_Guitar,0.9990229606628418,1
54,100,0.2818181818181818,694,1,22,DL_Guitar,6,5,DL_Guitar,0.36662864685058594,0
62,100,0.1409090909090909,791,0,22,DL_Guitar,6,2,DL_Guitar,0.45328518748283386,0
57,100,0.1,206,1,23,DL_Guitar,6,2,DL_Guitar,0.9988419413566589,1
57,100,0.35909090909090907,299,0,23,DL_Guitar,6,6,DL_Guitar,0.1372493952512741,0
57,100,0.1590909090909091,382,0,23,DL_Guitar,6,3,DL_Guitar,0.15977956354618073,0
52,100,0.6,546,0,23,DL_Guitar,6,10,DL_Guitar,0.18644975125789642,0
52,100,0.12272727272727273,717,0,23,DL_Guitar,6,2,DL_Guitar,0.25816744565963745,0
64,100,0.1409090909090909,9,1,24,DL_Guitar,6,2,DL_Guitar,0.9983736276626587,1
54,100,0.4,48,0,24,DL_Guitar,6,6,DL_Guitar,0.051061246544122696,0
54,100,0.2409090909090909,189,0,24,DL_Guitar,6,4,DL_Guitar,0.0413038469851017,0
52,100,0.2590909090909091,308,0,24,DL_Guitar,6,4,DL_Guitar,0.037387385964393616,0
68,100,0.1590909090909091,461,0,24,DL_Guitar,6,3,DL_Guitar,0.03833058476448059,0
54,100,0.1409090909090909,515,0,24,DL_Guitar,6,2,DL_Guitar,0.044754508882761,0
54,100,0.7772727272727272,567,0,24,DL_Guitar,6,12,DL_Guitar,0.055230602622032166,0
54,100,0.21818181818181817,748,0,24,DL_Guitar,6,3,DL_Guitar,0.0902671292424202,0
54,100,0.11818181818181818,52,1,25,DL_Guitar,6,2,DL_Guitar,0.9986500144004822,1
54,100,0.11818181818181818,131,0,25,DL_Guitar,6,2,DL_Guitar,0.08780348300933838,0
62,100,0.2409090909090909,316,0,25,DL_Guitar,6,4,DL_Guitar,0.09181258827447891,0
62,100,0.2818181818181818,374,0,25,DL_Guitar,6,5,DL_Guitar,0.10747959464788437,0
57,100,0.11818181818181818,677,1,25,DL_Guitar,6,2,DL_Guitar,0.12483231723308563,0
61,100,0.1409090909090909,818,0,25,DL_Guitar,6,2,DL_Guitar,0.17904247343540192,0
57,100,0.5363636363636364,61,1,26,DL_Guitar,6,9,DL_Guitar,0.9990057349205017,1
52,100,0.35909090909090907,409,1,26,DL_Guitar,6,6,DL_Guitar,0.23120233416557312,0
52,100,0.1590909090909091,515,0,26,DL_Guitar,6,3,DL_Guitar,0.26592186093330383,0
52,100,0.5227272727272727,686,0,26,DL_Guitar,6,8,DL_Guitar,0.35419803857803345,0
54,100,0.1409090909090909,57,1,27,DL_Guitar,6,2,DL_Guitar,0.9990057349205017,1
62,100,0.1409090909090909,625,1,27,DL_Guitar,6,2,DL_Guitar,0.23120638728141785,0
62,100,0.12272727272727273,739,0,27,DL_Guitar,6,2,DL_Guitar,0.2659299373626709,0
57,100,0.2590909090909091,814,0,27,DL_Guitar,6,4,DL_Guitar,0.35420241951942444,0
52,100,0.8,52,1,28,DL_Guitar,6,13,DL_Guitar,0.9990229606628418,1
52,100,0.42272727272727273,443,1,28,DL_Guitar,6,7,DL_Guitar,0.3666316270828247,0
52,100,0.5409090909090909,686,1,28,DL_Guitar,6,9,DL_Guitar,0.4532943069934845,0
52,100,0.3,13,1,29,DL_Guitar,6,5,DL_Guitar,0.9990229606628418,1
52,100,0.1590909090909091,83,0,29,DL_Guitar,6,3,DL_Guitar,0.3666195273399353,0
64,100,0.2,119,0,29,DL_Guitar,6,3,DL_Guitar,0.4532949924468994,0
57,100,0.4818181818181818,320,1,30,DL_Guitar,6,8,DL_Guitar,0.9984880685806274,1
57,100,0.38181818181818183,440,0,30,DL_Guitar,6,6,DL_Guitar,0.06334623694419861,0
69,100,0.1409090909090909,694,1,30,DL_Guitar,6,2,DL_Guitar,0.05774426832795143,0
69,100,0.11818181818181818,735,0,30,DL_Guitar,6,2,DL_Guitar,0.06020444631576538,0
57,100,0.1590909090909091,770,0,30,DL_Guitar,6,3,DL_Guitar,0.06970705837011337,0
69,100,0.1,804,0,30,DL_Guitar,6,2,DL_Guitar,0.08189886808395386,0
57,100,0.8409090909090909,866,0,30,DL_Guitar,6,13,DL_Guitar,0.12402664870023727,0
57,100,0.5181818181818182,185,1,31,DL_Guitar,6,8,DL_Guitar,0.9984880685806274,1
57,100,0.5409090909090909,308,0,31,DL_Guitar,6,9,DL_Guitar,0.06334519386291504,0
52,100,0.18181818181818182,453,0,31,DL_Guitar,6,3,DL_Guitar,0.05774331092834473,0
52,100,0.13636363636363635,523,0,31,DL_Guitar,6,2,DL_Guitar,0.06020355224609375,0
59,100,0.35909090909090907,571,0,31,DL_Guitar,6,6,DL_Guitar,0.06970615684986115,0
59,100,0.2590909090909091,700,0,31,DL_Guitar,6,4,DL_Guitar,0.08190083503723145,0
52,100,0.1,822,0,31,DL_Guitar,6,2,DL_Guitar,0.12402836978435516,0
59,100,0.5,188,1,32,DL_Guitar,6,8,DL_Guitar,0.9986500144004822,1
54,100,0.1590909090909091,426,1,32,DL_Guitar,6,3,DL_Guitar,0.08780407905578613,0
54,100,0.2636363636363636,488,0,32,DL_Guitar,6,4,DL_Guitar,0.09181438386440277,0
59,100,0.1,593,0,32,DL_Guitar,6,2,DL_Guitar,0.10747790336608887,0
54,100,0.3409090909090909,691,0,32,DL_Guitar,6,5,DL_Guitar,0.12482783198356628,0
59,100,0.4772727272727273,831,0,32,DL_Guitar,6,8,DL_Guitar,0.17903214693069458,0
57,100,0.2409090909090909,118,1,33,DL_Guitar,6,4,DL_Guitar,0.9988419413566589,1
52,100,0.5181818181818182,308,0,33,DL_Guitar,6,8,DL_Guitar,0.13725030422210693,0
52,100,0.1590909090909091,453,0,33,DL_Guitar,6,3,DL_Guitar,0.15978172421455383,0
52,100,0.2,571,0,33,DL_Guitar,6,3,DL_Guitar,0.18645742535591125,0
69,100,0.12272727272727273,818,1,33,DL_Guitar,6,2,DL_Guitar,0.2581804096698761,0
69,100,0.2,69,1,34,DL_Guitar,6,3,DL_Guitar,0.9986500144004822,1
57,100,0.2,188,0,34,DL_Guitar,6,3,DL_Guitar,0.08780728280544281,0
57,100,0.22272727272727272,254,0,34,DL_Guitar,6,4,DL_Guitar,0.09181831777095795,0
52,100,0.2,480,0,34,DL_Guitar,6,3,DL_Guitar,0.10748817771673203,0
69,100,0.3,616,0,34,DL_Guitar,6,5,DL_Guitar,0.12483277916908264,0
57,100,1.0818181818181818,818,0,34,DL_Guitar,6,15,DL_Guitar,0.1790475696325302,0
57,100,0.5590909090909091,298,1,35,DL_Guitar,6,9,DL_Guitar,0.9988419413566589,1
52,100,0.3,488,0,35,DL_Guitar,6,5,DL_Guitar,0.13724899291992188,0
52,100,0.5772727272727273,558,0,35,DL_Guitar,6,9,DL_Guitar,0.15977443754673004,0
59,100,0.3181818181818182,735,0,35,DL_Guitar,6,5,DL_Guitar,0.18644946813583374,0
52,100,0.1409090909090909,826,0,35,DL_Guitar,6,2,DL_Guitar,0.2581709921360016,0
57,100,0.22272727272727272,4,1,36,DL_Guitar,6,4,DL_Guitar,0.9983736276626587,1
53,100,0.4818181818181818,66,0,36,DL_Guitar,6,8,DL_Guitar,0.05106085538864136,0
53,100,0.5409090909090909,179,0,36,DL_Guitar,6,9,DL_Guitar,0.04130256175994873,0
59,100,0.1590909090909091,325,0,36,DL_Guitar,6,3,DL_Guitar,0.03738539293408394,0
53,100,0.37727272727272726,435,0,36,DL_Guitar,6,6,DL_Guitar,0.038328491151332855,0
54,100,0.42272727272727273,554,0,36,DL_Guitar,6,7,DL_Guitar,0.04475032910704613,0
54,100,0.1409090909090909,813,1,36,DL_Guitar,6,2,DL_Guitar,0.05522867292165756,0
54,100,0.5409090909090909,871,0,36,DL_Guitar,6,9,DL_Guitar,0.09026192128658295,0
54,100,0.5409090909090909,179,1,37,DL_Guitar,6,9,DL_Guitar,0.9986500144004822,1
54,100,0.5,311,0,37,DL_Guitar,6,8,DL_Guitar,0.08780185878276825,0
59,100,0.13636363636363635,523,0,37,DL_Guitar,6,2,DL_Guitar,0.09181179851293564,0
59,100,0.1409090909090909,584,0,37,DL_Guitar,6,2,DL_Guitar,0.10748037695884705,0
57,100,0.22272727272727272,628,0,37,DL_Guitar,6,4,DL_Guitar,0.12482646107673645,0
59,100,0.2,708,0,37,DL_Guitar,6,3,DL_Guitar,0.17903879284858704,0
59,100,0.2818181818181818,48,1,38,DL_Guitar,6,5,DL_Guitar,0.9988419413566589,1
59,100,0.2,198,0,38,DL_Guitar,6,3,DL_Guitar,0.13725237548351288,0
57,100,0.1590909090909091,260,0,38,DL_Guitar,6,3,DL_Guitar,0.1597783863544464,0
57,100,0.1590909090909091,571,1,38,DL_Guitar,6,3,DL_Guitar,0.18645450472831726,0
69,100,0.3,606,0,38,DL_Guitar,6,5,DL_Guitar,0.25817811489105225,0
62,100,0.2,461,1,39,DL_Guitar,6,3,DL_Guitar,0.9983165264129639,1
57,100,0.5590909090909091,804,1,39,DL_Guitar,6,9,DL_Guitar,0.544562041759491,0
52,100,0.8772727272727273,75,1,40,DL_Guitar,6,14,DL_Guitar,0.9988419413566589,1
52,100,0.13636363636363635,413,1,40,DL_Guitar,6,2,DL_Guitar,0.1372501403093338,0
52,100,0.17727272727272728,448,0,40,DL_Guitar,6,3,DL_Guitar,0.1597813218832016,0
65,100,0.2772727272727273,603,0,40,DL_Guitar,6,4,DL_Guitar,0.1864500492811203,0
53,100,0.6,681,0,40,DL_Guitar,6,10,DL_Guitar,0.2581713795661926,0
53,100,0.2636363636363636,48,1,41,DL_Guitar,6,4,DL_Guitar,0.9983736276626587,1
59,100,0.18181818181818182,224,0,41,DL_Guitar,6,3,DL_Guitar,0.05106210336089134,0
54,100,0.4772727272727273,316,0,41,DL_Guitar,6,8,DL_Guitar,0.041302889585494995,0
59,100,0.2590909090909091,435,0,41,DL_Guitar,6,4,DL_Guitar,0.03738625347614288,0
54,100,0.3,501,0,41,DL_Guitar,6,5,DL_Guitar,0.038328949362039566,0
54,100,0.2409090909090909,576,0,41,DL_Guitar,6,4,DL_Guitar,0.04475187882781029,0
54,100,0.2772727272727273,678,0,41,DL_Guitar,6,4,DL_Guitar,0.05522731691598892,0
54,100,0.4590909090909091,813,0,41,DL_Guitar,6,7,DL_Guitar,0.09026505053043365,0
59,100,0.2409090909090909,66,1,42,DL_Guitar,6,4,DL_Guitar,0.9984880685806274,1
62,100,0.2,128,0,42,DL_Guitar,6,3,DL_Guitar,0.0633459985256195,0
57,100,0.2,254,0,42,DL_Guitar,6,3,DL_Guitar,0.05774357169866562,0
52,100,0.4818181818181818,321,0,42,DL_Guitar,6,8,DL_Guitar,0.06020476296544075,0
59,100,0.2818181818181818,616,1,42,DL_Guitar,6,5,DL_Guitar,0.06970470398664474,0
52,100,0.16363636363636364,708,0,42,DL_Guitar,6,3,DL_Guitar,0.08189943432807922,0
52,100,0.11818181818181818,831,0,42,DL_Guitar,6,2,DL_Guitar,0.12402486056089401,0
57,100,0.2818181818181818,48,1,43,DL_Guitar,6,5,DL_Guitar,0.9990229606628418,1
69,100,0.3181818181818182,743,1,43,DL_Guitar,6,5,DL_Guitar,0.3666335642337799,0
57,100,0.5181818181818182,813,0,43,DL_Guitar,6,8,DL_Guitar,0.4532991945743561,0
64,100,0.1590909090909091,721,1,44,DL_Guitar,6,3,DL_Guitar,0.9990230798721313,1
64,100,0.35909090909090907,788,0,44,DL_Guitar,6,6,DL_Guitar,0.3666217029094696,0
64,100,0.32272727272727275,871,0,44,DL_Guitar,6,5,DL_Guitar,0.45329606533050537,0
53,100,0.12272727272727273,211,1,45,DL_Guitar,6,2,DL_Guitar,0.9988419413566589,1
65,100,0.18181818181818182,334,0,45,DL_Guitar,6,3,DL_Guitar,0.13724809885025024,0
54,100,0.36363636363636365,686,1,45,DL_Guitar,6,6,DL_Guitar,0.15977804362773895,0
54,100,0.23636363636363636,810,0,45,DL_Guitar,6,4,DL_Guitar,0.18644721806049347,0
66,100,0.1409090909090909,866,0,45,DL_Guitar,6,2,DL_Guitar,0.2581680715084076,0
62,100,0.3181818181818182,668,1,46,DL_Guitar,6,5,DL_Guitar,0.9983165264129639,1
52,100,0.2818181818181818,826,0,46,DL_Guitar,6,5,DL_Guitar,0.5445666313171387,0
52,100,0.12272727272727273,13,1,47,DL_Guitar,6,2,DL_Guitar,0.9990057349205017,1
52,100,0.4409090909090909,43,0,47,DL_Guitar,6,7,DL_Guitar,0.231204554438591,0
52,100,0.5818181818181818,179,0,47,DL_Guitar,6,9,DL_Guitar,0.265926331281662,0
53,100,1.240909090909091,426,1,47,DL_Guitar,6,15,DL_Guitar,0.35419341921806335,0
54,100,0.42272727272727273,48,1,48,DL_Guitar,6,7,DL_Guitar,0.9990229606628418,1
61,100,0.2,163,0,48,DL_Guitar,6,3,DL_Guitar,0.36662301421165466,0
61,100,0.4818181818181818,440,1,48,DL_Guitar,6,8,DL_Guitar,0.4532954692840576,0
62,100,0.4,34,1,49,DL_Guitar,6,6,DL_Guitar,0.9988420605659485,1
52,100,1.3590909090909091,176,0,49,DL_Guitar,6,15,DL_Guitar,0.13725008070468903,0
52,100,0.2,480,1,49,DL_Guitar,6,3,DL_Guitar,0.15978971123695374,0
52,100,0.1590909090909091,638,0,49,DL_Guitar,6,3,DL_Guitar,0.18646365404129028,0
53,100,1.6363636363636365,678,0,49,DL_Guitar,6,15,DL_Guitar,0.25816747546195984,0
54,100,0.23636363636363636,303,1,50,DL_Guitar,6,4,DL_Guitar,0.9988419413566589,1
61,100,0.2409090909090909,440,0,50,DL_Guitar,6,4,DL_Guitar,0.13724790513515472,0
61,100,0.4818181818181818,571,0,50,DL_Guitar,6,8,DL_Guitar,0.1597748100757599,0
61,100,0.3,691,0,50,DL_Guitar,6,5,DL_Guitar,0.18645291030406952,0
57,100,0.13636363636363635,788,0,50,DL_Guitar,6,2,DL_Guitar,0.25816822052001953,0
52,100,0.5,431,1,51,DL_Guitar,6,8,DL_Guitar,0.9990229606628418,1
52,100,0.1,545,0,51,DL_Guitar,6,2,DL_Guitar,0.3666199743747711,0
52,100,0.11818181818181818,691,0,51,DL_Guitar,6,2,DL_Guitar,0.453292578458786,0
54,100,0.1590909090909091,0,1,52,DL_Guitar,6,3,DL_Guitar,0.9986500144004822,1
54,100,0.1,56,0,52,DL_Guitar,6,2,DL_Guitar,0.08780641108751297,0
61,100,0.7,91,0,52,DL_Guitar,6,11,DL_Guitar,0.0918143168091774,0
54,100,0.3,254,0,52,DL_Guitar,6,5,DL_Guitar,0.1074867993593216,0
54,100,0.1,325,0,52,DL_Guitar,6,2,DL_Guitar,0.12483484297990799,0
61,100,2.640909090909091,426,0,52,DL_Guitar,6,15,DL_Guitar,0.17902418971061707,0
57,100,1.440909090909091,158,1,53,DL_Guitar,6,15,DL_Guitar,0.9983164072036743,1
52,100,2.1,681,1,53,DL_Guitar,6,15,DL_Guitar,0.5445576310157776,0
52,100,0.11818181818181818,303,1,54,DL_Guitar,6,2,DL_Guitar,0.9792560338973999,0
57,100,0.18181818181818182,418,1,55,DL_Guitar,6,3,DL_Guitar,0.9988419413566589,1
57,100,0.1409090909090909,518,0,55,DL_Guitar,6,2,DL_Guitar,0.13725179433822632,0
57,100,0.37727272727272726,558,0,55,DL_Guitar,6,6,DL_Guitar,0.1597798615694046,0
57,100,0.21818181818181817,660,0,55,DL_Guitar,6,3,DL_Guitar,0.18645739555358887,0
57,100,0.38181818181818183,726,0,55,DL_Guitar,6,6,DL_Guitar,0.2581700086593628,0
57,100,0.2409090909090909,625,1,56,DL_Guitar,6,4,DL_Guitar,0.9983165264129639,1
57,100,0.4818181818181818,703,0,56,DL_Guitar,6,8,DL_Guitar,0.5445560812950134,0
57,100,0.22272727272727272,4,1,57,DL_Guitar,6,4,DL_Guitar,0.9984880685806274,1
57,100,0.4,91,0,57,DL_Guitar,6,6,DL_Guitar,0.06334546208381653,0
57,100,0.4818181818181818,330,1,57,DL_Guitar,6,8,DL_Guitar,0.05774178355932236,0
57,100,0.2590909090909091,453,0,57,DL_Guitar,6,4,DL_Guitar,0.0602014996111393,0
69,100,0.1409090909090909,531,0,57,DL_Guitar,6,2,DL_Guitar,0.0697031021118164,0
61,100,0.5,691,0,57,DL_Guitar,6,8,DL_Guitar,0.08189453184604645,0
59,100,0.6,810,0,57,DL_Guitar,6,10,DL_Guitar,0.12402278929948807,0
59,100,0.18181818181818182,153,1,58,DL_Guitar,6,3,DL_Guitar,0.9990057349205017,1
59,100,0.1,215,0,58,DL_Guitar,6,2,DL_Guitar,0.23120230436325073,0
52,100,0.4409090909090909,330,0,58,DL_Guitar,6,7,DL_Guitar,0.2659205496311188,0
52,100,0.11818181818181818,536,0,58,DL_Guitar,6,2,DL_Guitar,0.35420364141464233,0
61,100,0.1409090909090909,48,1,59,DL_Guitar,6,2,DL_Guitar,0.9990229606628418,1
61,100,0.3,110,0,59,DL_Guitar,6,5,DL_Guitar,0.3666270077228546,0
57,100,0.1409090909090909,770,1,59,DL_Guitar,6,2,DL_Guitar,0.45329418778419495,0
57,100,0.11818181818181818,330,1,60,DL_Guitar,6,2,DL_Guitar,0.9990229606628418,1
61,100,0.5636363636363636,421,0,60,DL_Guitar,6,9,DL_Guitar,0.36662426590919495,0
61,100,0.3181818181818182,678,1,60,DL_Guitar,6,5,DL_Guitar,0.4532880187034607,0
57,100,0.4636363636363636,444,1,61,DL_Guitar,6,7,DL_Guitar,0.9990229606628418,1
54,100,0.35909090909090907,550,0,61,DL_Guitar,6,6,DL_Guitar,0.3666212558746338,0
57,100,0.13636363636363635,633,0,61,DL_Guitar,6,2,DL_Guitar,0.4532938003540039,0
57,100,0.11818181818181818,316,1,62,DL_Guitar,6,2,DL_Guitar,0.9990057349205017,1
57,100,0.1,471,0,62,DL_Guitar,6,2,DL_Guitar,0.23120373487472534,0
57,100,0.18181818181818182,628,0,62,DL_Guitar,6,3,DL_Guitar,0.26592332124710083,0
59,100,0.4590909090909091,810,0,62,DL_Guitar,6,7,DL_Guitar,0.35420119762420654,0
61,100,0.13636363636363635,171,1,63,DL_Guitar,6,2,DL_Guitar,0.9983736276626587,1
59,100,0.35909090909090907,316,0,63,DL_Guitar,6,6,DL_Guitar,0.05106247588992119,0
57,100,0.2409090909090909,431,0,63,DL_Guitar,6,4,DL_Guitar,0.041303157806396484,0
54,100,0.1,691,1,63,DL_Guitar,6,2,DL_Guitar,0.037386879324913025,0
54,100,0.17727272727272728,721,0,63,DL_Guitar,6,3,DL_Guitar,0.038329776376485825,0
57,100,0.12272727272727273,774,0,63,DL_Guitar,6,2,DL_Guitar,0.04475116357207298,0
54,100,0.11818181818181818,813,0,63,DL_Guitar,6,2,DL_Guitar,0.05523012578487396,0
54,100,0.12272727272727273,848,0,63,DL_Guitar,6,2,DL_Guitar,0.09026388078927994,0
57,100,0.1590909090909091,0,1,64,DL_Guitar,6,3,DL_Guitar,0.9990229606628418,1
57,100,0.7181818181818181,550,1,64,DL_Guitar,6,11,DL_Guitar,0.366627037525177,0
57,100,0.4,849,1,64,DL_Guitar,6,6,DL_Guitar,0.45329684019088745,0
57,100,0.2409090909090909,66,1,65,DL_Guitar,6,4,DL_Guitar,0.9990229606628418,1
59,100,0.8363636363636363,172,0,65,DL_Guitar,6,13,DL_Guitar,0.36662301421165466,0
61,100,0.2409090909090909,404,1,65,DL_Guitar,6,4,DL_Guitar,0.4532844126224518,0
59,100,0.8590909090909091,426,1,66,DL_Guitar,6,14,DL_Guitar,0.9990229606628418,1
69,100,0.1,796,1,66,DL_Guitar,6,2,DL_Guitar,0.36662670969963074,0
62,100,0.12272727272727273,849,0,66,DL_Guitar,6,2,DL_Guitar,0.453291654586792,0
62,100,0.1590909090909091,0,1,67,DL_Guitar,6,3,DL_Guitar,0.9983003735542297,1
64,100,0.5181818181818182,40,0,67,DL_Guitar,6,8,DL_Guitar,0.04466504976153374,0
64,100,0.3409090909090909,176,0,67,DL_Guitar,6,5,DL_Guitar,0.03315116465091705,0
52,100,0.37727272727272726,436,1,67,DL_Guitar,6,6,DL_Guitar,0.026581956073641777,0
52,100,0.17727272727272728,546,0,67,DL_Guitar,6,3,DL_Guitar,0.02359706349670887,0
52,100,0.1590909090909091,603,0,67,DL_Guitar,6,3,DL_Guitar,0.02431633323431015,0
52,100,0.13636363636363635,656,0,67,DL_Guitar,6,2,DL_Guitar,0.029692428186535835,0
52,100,0.3409090909090909,690,0,67,DL_Guitar,6,5,DL_Guitar,0.04007880762219429,0
52,100,0.38181818181818183,849,0,67,DL_Guitar,6,6,DL_Guitar,0.07093455642461777,0
52,100,0.2,233,1,68,DL_Guitar,6,3,DL_Guitar,0.9990229606628418,1
52,100,0.37727272727272726,294,0,68,DL_Guitar,6,6,DL_Guitar,0.36661413311958313,0
59,100,0.13636363636363635,457,0,68,DL_Guitar,6,2,DL_Guitar,0.4532987177371979,0
57,100,0.4,189,1,69,DL_Guitar,6,6,DL_Guitar,0.9990229606628418,1
52,100,0.2,686,1,69,DL_Guitar,6,3,DL_Guitar,0.3666231036186218,0
52,100,0.1590909090909091,832,0,69,DL_Guitar,6,3,DL_Guitar,0.4533006548881531,0
52,100,0.2590909090909091,56,1,70,DL_Guitar,6,4,DL_Guitar,0.9986500144004822,1
59,100,0.1409090909090909,140,0,70,DL_Guitar,6,2,DL_Guitar,0.08780427277088165,0
53,100,0.5818181818181818,307,0,70,DL_Guitar,6,9,DL_Guitar,0.09180945158004761,0
53,100,0.1590909090909091,453,0,70,DL_Guitar,6,3,DL_Guitar,0.1074765995144844,0
53,100,0.1409090909090909,642,0,70,DL_Guitar,6,2,DL_Guitar,0.12482506781816483,0
56,100,0.11818181818181818,734,0,70,DL_Guitar,6,2,DL_Guitar,0.1790274679660797,0
61,100,0.11818181818181818,153,1,71,DL_Guitar,6,2,DL_Guitar,0.9990229606628418,1
57,100,0.1590909090909091,673,1,71,DL_Guitar,6,3,DL_Guitar,0.3666284680366516,0
57,100,0.2,823,0,71,DL_Guitar,6,3,DL_Guitar,0.4532987177371979,0
57,100,0.1590909090909091,9,1,72,DL_Guitar,6,3,DL_Guitar,0.9990057349205017,1
59,100,1.059090909090909,193,0,72,DL_Guitar,6,15,DL_Guitar,0.23120592534542084,0
69,100,0.21818181818181817,502,1,72,DL_Guitar,6,3,DL_Guitar,0.26592379808425903,0
57,100,0.33636363636363636,743,1,72,DL_Guitar,6,5,DL_Guitar,0.3542023301124573,0
61,100,0.11818181818181818,514,1,73,DL_Guitar,6,2,DL_Guitar,0.9990229606628418,1
61,100,0.42272727272727273,585,0,73,DL_Guitar,6,7,DL_Guitar,0.3666229844093323,0
57,100,0.3409090909090909,870,1,73,DL_Guitar,6,5,DL_Guitar,0.45329371094703674,0
57,100,0.21818181818181817,132,1,74,DL_Guitar,6,3,DL_Guitar,0.9986500144004822,1
57,100,0.2772727272727273,237,0,74,DL_Guitar,6,4,DL_Guitar,0.08780361711978912,0
52,100,0.2590909090909091,559,1,74,DL_Guitar,6,4,DL_Guitar,0.09181448072195053,0
52,100,0.18181818181818182,619,0,74,DL_Guitar,6,3,DL_Guitar,0.1074800193309784,0
64,100,0.18181818181818182,682,0,74,DL_Guitar,6,3,DL_Guitar,0.12482952326536179,0
59,100,0.2818181818181818,726,0,74,DL_Guitar,6,5,DL_Guitar,0.1790354996919632,0
61,100,0.1,17,1,75,DL_Guitar,6,2,DL_Guitar,0.9988419413566589,1
53,100,1.1409090909090909,47,0,75,DL_Guitar,6,15,DL_Guitar,0.13724297285079956,0
61,100,0.6409090909090909,316,1,75,DL_Guitar,6,10,DL_Guitar,0.1597745418548584,0
61,100,0.12272727272727273,606,1,75,DL_Guitar,6,2,DL_Guitar,0.18644732236862183,0
61,100,0.3,739,0,75,DL_Guitar,6,5,DL_Guitar,0.2581641376018524,0
59,100,0.17727272727272728,9,1,76,DL_Guitar,6,3,DL_Guitar,0.9988419413566589,1
52,100,0.18181818181818182,550,1,76,DL_Guitar,6,3,DL_Guitar,0.13724352419376373,0
52,100,0.1409090909090909,739,0,76,DL_Guitar,6,2,DL_Guitar,0.15977734327316284,0
52,100,0.16363636363636364,773,0,76,DL_Guitar,6,3,DL_Guitar,0.18645109236240387,0
59,100,0.21818181818181817,813,0,76,DL_Guitar,6,3,DL_Guitar,0.2581743896007538,0
59,100,0.3,176,1,77,DL_Guitar,6,5,DL_Guitar,0.9988419413566589,1
59,100,0.5590909090909091,307,0,77,DL_Guitar,6,9,DL_Guitar,0.13724516332149506,0
64,100,0.18181818181818182,440,0,77,DL_Guitar,6,3,DL_Guitar,0.1597810685634613,0
59,100,0.17727272727272728,502,0,77,DL_Guitar,6,3,DL_Guitar,0.18644897639751434,0
59,100,0.4409090909090909,559,0,77,DL_Guitar,6,7,DL_Guitar,0.25816580653190613,0
57,100,0.3,289,1,78,DL_Guitar,6,5,DL_Guitar,0.9792560338973999,0
65,100,0.1409090909090909,449,1,79,DL_Guitar,6,2,DL_Guitar,0.9986500144004822,1
65,100,0.18181818181818182,550,0,79,DL_Guitar,6,3,DL_Guitar,0.08780021965503693,0
65,100,0.2,597,0,79,DL_Guitar,6,3,DL_Guitar,0.09181370586156845,0
65,100,0.6636363636363637,663,0,79,DL_Guitar,6,11,DL_Guitar,0.10747428983449936,0
65,100,0.1409090909090909,813,0,79,DL_Guitar,6,2,DL_Guitar,0.12482551485300064,0
65,100,0.5227272727272727,849,0,79,DL_Guitar,6,8,DL_Guitar,0.17902378737926483,0
59,100,0.2,246,1,80,DL_Guitar,6,3,DL_Guitar,0.9990057349205017,1
59,100,0.17727272727272728,294,0,80,DL_Guitar,6,3,DL_Guitar,0.23120039701461792,0
59,100,0.2,496,0,80,DL_Guitar,6,3,DL_Guitar,0.2659159302711487,0
52,100,0.2772727272727273,722,0,80,DL_Guitar,6,4,DL_Guitar,0.35419878363609314,0
52,100,0.6227272727272727,47,1,81,DL_Guitar,6,10,DL_Guitar,0.9983164072036743,1
61,100,1.7818181818181817,263,0,81,DL_Guitar,6,15,DL_Guitar,0.5445476770401001,0
57,100,0.2590909090909091,127,1,82,DL_Guitar,6,4,DL_Guitar,0.9990057349205017,1
57,100,0.2409090909090909,263,0,82,DL_Guitar,6,4,DL_Guitar,0.23121574521064758,0
57,100,0.1,320,0,82,DL_Guitar,6,2,DL_Guitar,0.2659372091293335,0
57,100,0.759090909090909,440,0,82,DL_Guitar,6,12,DL_Guitar,0.35420408844947815,0
57,100,0.12272727272727273,13,1,83,DL_Guitar,6,2,DL_Guitar,0.9990229606628418,1
57,100,0.2,303,1,83,DL_Guitar,6,3,DL_Guitar,0.3666178584098816,0
52,100,0.1,857,1,83,DL_Guitar,6,2,DL_Guitar,0.45329341292381287,0
61,100,0.3,197,1,84,DL_Guitar,6,5,DL_Guitar,0.9990057349205017,1
61,100,1.0,347,0,84,DL_Guitar,6,15,DL_Guitar,0.23119841516017914,0
61,100,0.5227272727272727,707,1,84,DL_Guitar,6,8,DL_Guitar,0.2659207880496979,0
61,100,0.38181818181818183,836,0,84,DL_Guitar,6,6,DL_Guitar,0.3541925847530365,0
52,100,0.4818181818181818,166,1,85,DL_Guitar,6,8,DL_Guitar,0.9986500144004822,1
52,100,0.6,286,0,85,DL_Guitar,6,10,DL_Guitar,0.0878046452999115,0
52,100,0.3,422,0,85,DL_Guitar,6,5,DL_Guitar,0.09181414544582367,0
52,100,0.35909090909090907,603,0,85,DL_Guitar,6,6,DL_Guitar,0.10747923702001572,0
59,100,0.32272727272727275,729,0,85,DL_Guitar,6,5,DL_Guitar,0.12483116239309311,0
59,100,0.18181818181818182,817,0,85,DL_Guitar,6,3,DL_Guitar,0.17903783917427063,0
64,100,0.2409090909090909,113,1,86,DL_Guitar,6,4,DL_Guitar,0.9986500144004822,1
59,100,0.42272727272727273,202,0,86,DL_Guitar,6,7,DL_Guitar,0.0878041461110115,0
57,100,0.1409090909090909,493,1,86,DL_Guitar,6,2,DL_Guitar,0.0918167233467102,0
57,100,0.35909090909090907,527,0,86,DL_Guitar,6,6,DL_Guitar,0.10748136043548584,0
57,100,0.2772727272727273,624,0,86,DL_Guitar,6,4,DL_Guitar,0.12483415007591248,0
57,100,1.1590909090909092,813,0,86,DL_Guitar,6,15,DL_Guitar,0.17904026806354523,0
57,100,0.2409090909090909,250,1,87,DL_Guitar,6,4,DL_Guitar,0.9792566299438477,0
59,100,0.1409090909090909,506,1,90,DL_Guitar,6,2,DL_Guitar,0.9990229606628418,1
59,100,0.1,646,0,90,DL_Guitar,6,2,DL_Guitar,0.36661842465400696,0
59,100,0.4590909090909091,823,0,90,DL_Guitar,6,7,DL_Guitar,0.45329028367996216,0
59,100,0.5,79,1,91,DL_Guitar,6,8,DL_Guitar,0.9990229606628418,1
52,100,0.17727272727272728,316,1,91,DL_Guitar,6,3,DL_Guitar,0.3666202127933502,0
52,100,0.4,817,1,91,DL_Guitar,6,6,DL_Guitar,0.45329567790031433,0
57,100,0.22272727272727272,100,1,92,DL_Guitar,6,4,DL_Guitar,0.9984880685806274,1
66,100,0.18181818181818182,197,0,92,DL_Guitar,6,3,DL_Guitar,0.06334631145000458,0
55,100,0.11818181818181818,426,0,92,DL_Guitar,6,2,DL_Guitar,0.05774230509996414,0
55,100,0.11818181818181818,480,0,92,DL_Guitar,6,2,DL_Guitar,0.06020315736532211,0
56,100,0.1409090909090909,506,0,92,DL_Guitar,6,2,DL_Guitar,0.06970133632421494,0
52,100,0.4,572,0,92,DL_Guitar,6,6,DL_Guitar,0.08189499378204346,0
59,100,0.32272727272727275,707,0,92,DL_Guitar,6,5,DL_Guitar,0.12402062118053436,0
64,100,0.16363636363636364,3,1,93,DL_Guitar,6,3,DL_Guitar,0.9988419413566589,1
59,100,0.11818181818181818,150,0,93,DL_Guitar,6,2,DL_Guitar,0.1372520625591278,0
65,100,0.4590909090909091,320,0,93,DL_Guitar,6,7,DL_Guitar,0.1597827523946762,0
65,100,0.2772727272727273,426,0,93,DL_Guitar,6,4,DL_Guitar,0.18645548820495605,0
57,100,0.5181818181818182,844,1,93,DL_Guitar,6,8,DL_Guitar,0.25816184282302856,0
59,100,0.3181818181818182,813,1,94,DL_Guitar,6,5,DL_Guitar,0.9792561531066895,0
59,100,0.32272727272727275,92,1,95,DL_Guitar,6,5,DL_Guitar,0.9983165264129639,1
59,100,0.1409090909090909,223,0,95,DL_Guitar,6,2,DL_Guitar,0.544553279876709,0
54,100,0.1590909090909091,53,1,96,DL_Guitar,6,3,DL_Guitar,0.9983165264129639,1
57,100,0.6181818181818182,734,1,96,DL_Guitar,6,10,DL_Guitar,0.5445543527603149,0
57,100,0.21818181818181817,0,1,97,DL_Guitar,6,3,DL_Guitar,0.9990057349205017,1
59,100,0.4818181818181818,189,0,97,DL_Guitar,6,8,DL_Guitar,0.23120975494384766,0
64,100,0.11818181818181818,493,1,97,DL_Guitar,6,2,DL_Guitar,0.2659323811531067,0
57,100,0.8409090909090909,823,1,97,DL_Guitar,6,13,DL_Guitar,0.35420024394989014,0
57,100,0.12272727272727273,157,1,98,DL_Guitar,6,2,DL_Guitar,0.9792561531066895,0
57,100,0.2409090909090909,443,1,100,DL_Guitar,6,4,DL_Guitar,0.9990057349205017,1
57,100,0.2409090909090909,563,0,100,DL_Guitar,6,4,DL_Guitar,0.2311953455209732,0
57,100,0.2,633,0,100,DL_Guitar,6,3,DL_Guitar,0.2659211754798889,0
59,100,0.5590909090909091,810,0,100,DL_Guitar,6,9,DL_Guitar,0.35418903827667236,0
59,100,0.11818181818181818,83,1,101,DL_Guitar,6,2,DL_Guitar,0.9986500144004822,1
59,100,0.4,153,0,101,DL_Guitar,6,6,DL_Guitar,0.08780156075954437,0
59,100,0.2,260,0,101,DL_Guitar,6,3,DL_Guitar,0.09181255102157593,0
59,100,0.5227272727272727,430,0,101,DL_Guitar,6,8,DL_Guitar,0.10747625678777695,0
53,100,0.3,677,1,101,DL_Guitar,6,5,DL_Guitar,0.12482473999261856,0
59,100,0.2,756,0,101,DL_Guitar,6,3,DL_Guitar,0.17903538048267365,0
57,100,0.4772727272727273,193,1,102,DL_Guitar,6,8,DL_Guitar,0.9990057349205017,1
57,100,0.18181818181818182,597,1,102,DL_Guitar,6,3,DL_Guitar,0.23121273517608643,0
57,100,0.4636363636363636,707,0,102,DL_Guitar,6,7,DL_Guitar,0.26592716574668884,0
57,100,0.1,839,0,102,DL_Guitar,6,2,DL_Guitar,0.3541986346244812,0
57,100,0.12272727272727273,35,1,103,DL_Guitar,6,2,DL_Guitar,0.9990057349205017,1
59,100,0.5181818181818182,184,0,103,DL_Guitar,6,8,DL_Guitar,0.23120476305484772,0
59,100,0.7227272727272728,312,0,103,DL_Guitar,6,12,DL_Guitar,0.2659159004688263,0
52,100,0.13636363636363635,502,0,103,DL_Guitar,6,2,DL_Guitar,0.3541986346244812,0
57,100,0.1,282,1,104,DL_Guitar,6,2,DL_Guitar,0.9983004927635193,1
57,100,0.18181818181818182,466,0,104,DL_Guitar,6,3,DL_Guitar,0.0446653850376606,0
57,100,0.1,514,0,104,DL_Guitar,6,2,DL_Guitar,0.03315013647079468,0
57,100,0.2590909090909091,540,0,104,DL_Guitar,6,4,DL_Guitar,0.026580333709716797,0
57,100,0.11818181818181818,616,0,104,DL_Guitar,6,2,DL_Guitar,0.023594822734594345,0
57,100,0.2409090909090909,682,0,104,DL_Guitar,6,4,DL_Guitar,0.02431522123515606,0
57,100,0.1,743,0,104,DL_Guitar,6,2,DL_Guitar,0.029690520837903023,0
57,100,0.1590909090909091,770,0,104,DL_Guitar,6,3,DL_Guitar,0.04007747769355774,0
57,100,0.1,813,0,104,DL_Guitar,6,2,DL_Guitar,0.07093047350645065,0
57,100,0.11818181818181818,9,1,105,DL_Guitar,6,2,DL_Guitar,0.9792559146881104,0
57,100,0.18181818181818182,356,1,0,DL_JapaneseFolk_Guitar,6,3,DL_JapaneseFolk_Guitar,0.9990057349205017,1
61,100,0.17727272727272728,524,0,0,DL_JapaneseFolk_Guitar,6,3,DL_JapaneseFolk_Guitar,0.23120354115962982,0
54,100,0.18181818181818182,717,0,0,DL_JapaneseFolk_Guitar,6,3,DL_JapaneseFolk_Guitar,0.26592111587524414,0
52,100,0.2590909090909091,849,0,0,DL_JapaneseFolk_Guitar,6,4,DL_JapaneseFolk_Guitar,0.3541960120201111,0
57,100,0.3181818181818182,30,1,1,DL_JapaneseFolk_Guitar,6,5,DL_JapaneseFolk_Guitar,0.9986500144004822,1
59,100,0.37727272727272726,149,0,1,DL_JapaneseFolk_Guitar,6,6,DL_JapaneseFolk_Guitar,0.08780553191900253,0
59,100,0.2409090909090909,290,0,1,DL_JapaneseFolk_Guitar,6,4,DL_JapaneseFolk_Guitar,0.09181530028581619,0
57,100,0.2772727272727273,479,0,1,DL_JapaneseFolk_Guitar,6,4,DL_JapaneseFolk_Guitar,0.10747817903757095,0
57,100,0.7,673,0,1,DL_JapaneseFolk_Guitar,6,11,DL_JapaneseFolk_Guitar,0.12482566386461258,0
54,100,0.3,866,0,1,DL_JapaneseFolk_Guitar,6,5,DL_JapaneseFolk_Guitar,0.1790405511856079,0
52,100,0.5590909090909091,57,1,2,DL_JapaneseFolk_Guitar,6,9,DL_JapaneseFolk_Guitar,0.9988419413566589,1
57,100,0.2818181818181818,180,0,2,DL_JapaneseFolk_Guitar,6,5,DL_JapaneseFolk_Guitar,0.13725070655345917,0
57,100,0.2590909090909091,633,1,2,DL_JapaneseFolk_Guitar,6,4,DL_JapaneseFolk_Guitar,0.1597837209701538,0
59,100,0.2590909090909091,703,0,2,DL_JapaneseFolk_Guitar,6,4,DL_JapaneseFolk_Guitar,0.1864558756351471,0
57,100,0.740909090909091,822,0,2,DL_JapaneseFolk_Guitar,6,12,DL_JapaneseFolk_Guitar,0.2581648826599121,0
54,100,0.1409090909090909,144,1,3,DL_JapaneseFolk_Guitar,6,2,DL_JapaneseFolk_Guitar,0.9988420605659485,1
57,100,0.9,201,0,3,DL_JapaneseFolk_Guitar,6,14,DL_JapaneseFolk_Guitar,0.13724669814109802,0
52,100,0.2409090909090909,466,1,3,DL_JapaneseFolk_Guitar,6,4,DL_JapaneseFolk_Guitar,0.1597801297903061,0
52,100,0.1590909090909091,611,0,3,DL_JapaneseFolk_Guitar,6,3,DL_JapaneseFolk_Guitar,0.1864483505487442,0
52,100,0.11818181818181818,788,0,3,DL_JapaneseFolk_Guitar,6,2,DL_JapaneseFolk_Guitar,0.258172869682312,0
59,100,0.6409090909090909,91,1,4,DL_JapaneseFolk_Guitar,6,10,DL_JapaneseFolk_Guitar,0.9986500144004822,1
56,100,0.2,307,0,4,DL_JapaneseFolk_Guitar,6,3,DL_JapaneseFolk_Guitar,0.08779997378587723,0
64,100,0.21818181818181817,373,0,4,DL_JapaneseFolk_Guitar,6,3,DL_JapaneseFolk_Guitar,0.0918126106262207,0
52,100,0.22272727272727272,421,0,4,DL_JapaneseFolk_Guitar,6,4,DL_JapaneseFolk_Guitar,0.10747447609901428,0
59,100,0.1409090909090909,509,0,4,DL_JapaneseFolk_Guitar,6,2,DL_JapaneseFolk_Guitar,0.12482432276010513,0
59,100,0.6590909090909091,637,0,4,DL_JapaneseFolk_Guitar,6,11,DL_JapaneseFolk_Guitar,0.17902612686157227,0
61,100,0.1590909090909091,128,1,5,DL_JapaneseFolk_Guitar,6,3,DL_JapaneseFolk_Guitar,0.9986500144004822,1
57,100,0.740909090909091,242,0,5,DL_JapaneseFolk_Guitar,6,12,DL_JapaneseFolk_Guitar,0.08780542016029358,0
52,100,0.1590909090909091,452,0,5,DL_JapaneseFolk_Guitar,6,3,DL_JapaneseFolk_Guitar,0.09182041883468628,0
52,100,0.3409090909090909,496,0,5,DL_JapaneseFolk_Guitar,6,5,DL_JapaneseFolk_Guitar,0.10748396068811417,0
52,100,0.38181818181818183,761,1,5,DL_JapaneseFolk_Guitar,6,6,DL_JapaneseFolk_Guitar,0.12483472377061844,0
57,100,0.5181818181818182,844,0,5,DL_JapaneseFolk_Guitar,6,8,DL_JapaneseFolk_Guitar,0.17903544008731842,0
57,100,0.4,207,1,6,DL_JapaneseFolk_Guitar,6,6,DL_JapaneseFolk_Guitar,0.9990057349205017,1
52,100,0.1,307,0,6,DL_JapaneseFolk_Guitar,6,2,DL_JapaneseFolk_Guitar,0.2312081754207611,0
57,100,0.8772727272727273,391,0,6,DL_JapaneseFolk_Guitar,6,14,DL_JapaneseFolk_Guitar,0.26591506600379944,0
52,100,0.6181818181818182,593,0,6,DL_JapaneseFolk_Guitar,6,10,DL_JapaneseFolk_Guitar,0.35419905185699463,0
57,100,0.3181818181818182,40,1,7,DL_JapaneseFolk_Guitar,6,5,DL_JapaneseFolk_Guitar,0.9990230798721313,1
52,100,0.2590909090909091,110,0,7,DL_JapaneseFolk_Guitar,6,4,DL_JapaneseFolk_Guitar,0.36663398146629333,0
57,100,0.3181818181818182,545,1,7,DL_JapaneseFolk_Guitar,6,5,DL_JapaneseFolk_Guitar,0.4532894790172577,0
59,100,0.36363636363636365,180,1,8,DL_JapaneseFolk_Guitar,6,6,DL_JapaneseFolk_Guitar,0.9792556166648865,0
57,100,0.23636363636363636,17,1,9,DL_JapaneseFolk_Guitar,6,4,DL_JapaneseFolk_Guitar,0.9990230798721313,1
62,100,0.3181818181818182,646,1,9,DL_JapaneseFolk_Guitar,6,5,DL_JapaneseFolk_Guitar,0.3666297197341919,0
57,100,0.5590909090909091,876,0,9,DL_JapaneseFolk_Guitar,6,9,DL_JapaneseFolk_Guitar,0.4532966911792755,0
62,100,0.5409090909090909,233,1,10,DL_JapaneseFolk_Guitar,6,9,DL_JapaneseFolk_Guitar,0.9990057349205017,1
57,100,0.2818181818181818,355,0,10,DL_JapaneseFolk_Guitar,6,5,DL_JapaneseFolk_Guitar,0.2312021553516388,0
62,100,0.11818181818181818,470,0,10,DL_JapaneseFolk_Guitar,6,2,DL_JapaneseFolk_Guitar,0.2659252882003784,0
52,100,0.3,818,1,10,DL_JapaneseFolk_Guitar,6,5,DL_JapaneseFolk_Guitar,0.3542081415653229,0
56,100,0.7,395,1,11,DL_JapaneseFolk_Guitar,6,11,DL_JapaneseFolk_Guitar,0.979255735874176,0
66,100,0.12272727272727273,79,1,12,DL_JapaneseFolk_Guitar,6,2,DL_JapaneseFolk_Guitar,0.9986500144004822,1
66,100,0.1409090909090909,110,0,12,DL_JapaneseFolk_Guitar,6,2,DL_JapaneseFolk_Guitar,0.08780369162559509,0
69,100,0.2636363636363636,202,0,12,DL_JapaneseFolk_Guitar,6,4,DL_JapaneseFolk_Guitar,0.09181404858827591,0
57,100,0.35909090909090907,259,0,12,DL_JapaneseFolk_Guitar,6,6,DL_JapaneseFolk_Guitar,0.10748112946748734,0
56,100,0.1409090909090909,488,0,12,DL_JapaneseFolk_Guitar,6,2,DL_JapaneseFolk_Guitar,0.12482801079750061,0
68,100,0.2409090909090909,730,1,12,DL_JapaneseFolk_Guitar,6,4,DL_JapaneseFolk_Guitar,0.17902801930904388,0
71,100,0.2818181818181818,355,1,13,DL_JapaneseFolk_Guitar,6,5,DL_JapaneseFolk_Guitar,0.9988419413566589,1
56,100,0.18181818181818182,440,0,13,DL_JapaneseFolk_Guitar,6,3,DL_JapaneseFolk_Guitar,0.13724848628044128,0
57,100,0.2590909090909091,625,0,13,DL_JapaneseFolk_Guitar,6,4,DL_JapaneseFolk_Guitar,0.15977707505226135,0
56,100,0.2,818,0,13,DL_JapaneseFolk_Guitar,6,3,DL_JapaneseFolk_Guitar,0.18644748628139496,0
64,100,0.2772727272727273,876,0,13,DL_JapaneseFolk_Guitar,6,4,DL_JapaneseFolk_Guitar,0.25817203521728516,0
56,100,0.17727272727272728,75,1,14,DL_JapaneseFolk_Guitar,6,3,DL_JapaneseFolk_Guitar,0.9988419413566589,1
57,100,0.2409090909090909,448,1,14,DL_JapaneseFolk_Guitar,6,4,DL_JapaneseFolk_Guitar,0.13724792003631592,0
62,100,0.2409090909090909,510,0,14,DL_JapaneseFolk_Guitar,6,4,DL_JapaneseFolk_Guitar,0.15978077054023743,0
57,100,0.32272727272727275,642,0,14,DL_JapaneseFolk_Guitar,6,5,DL_JapaneseFolk_Guitar,0.1864507645368576,0
52,100,0.1409090909090909,770,0,14,DL_JapaneseFolk_Guitar,6,2,DL_JapaneseFolk_Guitar,0.2581787407398224,0
71,100,0.2,140,1,15,DL_JapaneseFolk_Guitar,6,3,DL_JapaneseFolk_Guitar,0.9986500144004822,1
57,100,0.12272727272727273,189,0,15,DL_JapaneseFolk_Guitar,6,2,DL_JapaneseFolk_Guitar,0.0878034383058548,0
57,100,0.6,254,0,15,DL_JapaneseFolk_Guitar,6,10,DL_JapaneseFolk_Guitar,0.09181568771600723,0
52,100,0.6409090909090909,465,0,15,DL_JapaneseFolk_Guitar,6,10,DL_JapaneseFolk_Guitar,0.1074838936328888,0
57,100,0.1,716,1,15,DL_JapaneseFolk_Guitar,6,2,DL_JapaneseFolk_Guitar,0.12482765316963196,0
52,100,0.6363636363636364,766,0,15,DL_JapaneseFolk_Guitar,6,10,DL_JapaneseFolk_Guitar,0.17904561758041382,0
52,100,0.2,119,1,16,DL_JapaneseFolk_Guitar,6,3,DL_JapaneseFolk_Guitar,0.9988419413566589,1
64,100,0.2772727272727273,216,0,16,DL_JapaneseFolk_Guitar,6,4,DL_JapaneseFolk_Guitar,0.1372472047805786,0
52,100,0.13636363636363635,326,0,16,DL_JapaneseFolk_Guitar,6,2,DL_JapaneseFolk_Guitar,0.15977367758750916,0
64,100,0.1409090909090909,374,0,16,DL_JapaneseFolk_Guitar,6,2,DL_JapaneseFolk_Guitar,0.1864510178565979,0
52,100,0.37727272727272726,413,0,16,DL_JapaneseFolk_Guitar,6,6,DL_JapaneseFolk_Guitar,0.25817471742630005,0
52,100,0.5,299,1,17,DL_JapaneseFolk_Guitar,6,8,DL_JapaneseFolk_Guitar,0.9990229606628418,1
52,100,0.6409090909090909,430,0,17,DL_JapaneseFolk_Guitar,6,10,DL_JapaneseFolk_Guitar,0.3666219413280487,0
64,100,0.11818181818181818,625,0,17,DL_JapaneseFolk_Guitar,6,2,DL_JapaneseFolk_Guitar,0.45329928398132324,0
57,100,0.2590909090909091,198,1,18,DL_JapaneseFolk_Guitar,6,4,DL_JapaneseFolk_Guitar,0.9990057349205017,1
61,100,0.3181818181818182,326,0,18,DL_JapaneseFolk_Guitar,6,5,DL_JapaneseFolk_Guitar,0.23119878768920898,0
61,100,0.4,509,0,18,DL_JapaneseFolk_Guitar,6,6,DL_JapaneseFolk_Guitar,0.2659194767475128,0
52,100,0.5409090909090909,845,1,18,DL_JapaneseFolk_Guitar,6,9,DL_JapaneseFolk_Guitar,0.35419222712516785,0
68,100,0.4772727272727273,119,1,19,DL_JapaneseFolk_Guitar,6,8,DL_JapaneseFolk_Guitar,0.9983003735542297,1
52,100,0.1409090909090909,241,0,19,DL_JapaneseFolk_Guitar,6,2,DL_JapaneseFolk_Guitar,0.04466415196657181,0
59,100,0.2,303,0,19,DL_JapaneseFolk_Guitar,6,3,DL_JapaneseFolk_Guitar,0.03314926102757454,0
52,100,0.4,382,0,19,DL_JapaneseFolk_Guitar,6,6,DL_JapaneseFolk_Guitar,0.02657967060804367,0
59,100,0.4,480,0,19,DL_JapaneseFolk_Guitar,6,6,DL_JapaneseFolk_Guitar,0.023595329374074936,0
59,100,0.11818181818181818,581,0,19,DL_JapaneseFolk_Guitar,6,2,DL_JapaneseFolk_Guitar,0.024314722046256065,0
68,100,0.18181818181818182,619,0,19,DL_JapaneseFolk_Guitar,6,3,DL_JapaneseFolk_Guitar,0.02968939207494259,0
62,100,0.2818181818181818,673,0,19,DL_JapaneseFolk_Guitar,6,5,DL_JapaneseFolk_Guitar,0.040078140795230865,0
59,100,0.32272727272727275,796,0,19,DL_JapaneseFolk_Guitar,6,5,DL_JapaneseFolk_Guitar,0.07093062251806259,0
54,100,0.5818181818181818,113,1,20,DL_JapaneseFolk_Guitar,6,9,DL_JapaneseFolk_Guitar,0.9983737468719482,1
66,100,0.2590909090909091,260,0,20,DL_JapaneseFolk_Guitar,6,4,DL_JapaneseFolk_Guitar,0.05106133967638016,0
54,100,0.1409090909090909,316,0,20,DL_JapaneseFolk_Guitar,6,2,DL_JapaneseFolk_Guitar,0.04130396991968155,0
66,100,0.11818181818181818,347,0,20,DL_JapaneseFolk_Guitar,6,2,DL_JapaneseFolk_Guitar,0.03738635405898094,0
54,100,0.2590909090909091,374,0,20,DL_JapaneseFolk_Guitar,6,4,DL_JapaneseFolk_Guitar,0.038330428302288055,0
61,100,0.3181818181818182,436,0,20,DL_JapaneseFolk_Guitar,6,5,DL_JapaneseFolk_Guitar,0.04475240781903267,0
69,100,0.4772727272727273,646,0,20,DL_JapaneseFolk_Guitar,6,8,DL_JapaneseFolk_Guitar,0.05522999167442322,0
66,100,0.3181818181818182,845,0,20,DL_JapaneseFolk_Guitar,6,5,DL_JapaneseFolk_Guitar,0.09026916325092316,0
66,100,0.1590909090909091,65,1,21,DL_JapaneseFolk_Guitar,6,3,DL_JapaneseFolk_Guitar,0.9984880685806274,1
66,100,0.2,106,0,21,DL_JapaneseFolk_Guitar,6,3,DL_JapaneseFolk_Guitar,0.06334387511014938,0
66,100,0.2,210,0,21,DL_JapaneseFolk_Guitar,6,3,DL_JapaneseFolk_Guitar,0.057741135358810425,0
59,100,0.3409090909090909,409,0,21,DL_JapaneseFolk_Guitar,6,5,DL_JapaneseFolk_Guitar,0.060198914259672165,0
59,100,0.18181818181818182,528,0,21,DL_JapaneseFolk_Guitar,6,3,DL_JapaneseFolk_Guitar,0.06969904899597168,0
59,100,0.2590909090909091,594,0,21,DL_JapaneseFolk_Guitar,6,4,DL_JapaneseFolk_Guitar,0.0818912610411644,0
59,100,0.1,694,0,21,DL_JapaneseFolk_Guitar,6,2,DL_JapaneseFolk_Guitar,0.12401580810546875,0
68,100,0.1409090909090909,48,1,22,DL_JapaneseFolk_Guitar,6,2,DL_JapaneseFolk_Guitar,0.9988419413566589,1
59,100,0.21818181818181817,83,0,22,DL_JapaneseFolk_Guitar,6,3,DL_JapaneseFolk_Guitar,0.13724945485591888,0
59,100,0.12272727272727273,144,0,22,DL_JapaneseFolk_Guitar,6,2,DL_JapaneseFolk_Guitar,0.15977825224399567,0
59,100,0.6181818181818182,216,0,22,DL_JapaneseFolk_Guitar,6,10,DL_JapaneseFolk_Guitar,0.1864500194787979,0
69,100,0.18181818181818182,686,1,22,DL_JapaneseFolk_Guitar,6,3,DL_JapaneseFolk_Guitar,0.2581646740436554,0
52,100,0.1590909090909091,144,1,23,DL_JapaneseFolk_Guitar,6,3,DL_JapaneseFolk_Guitar,0.9983736276626587,1
59,100,0.2409090909090909,229,0,23,DL_JapaneseFolk_Guitar,6,4,DL_JapaneseFolk_Guitar,0.05105992406606674,0
52,100,0.1590909090909091,320,0,23,DL_JapaneseFolk_Guitar,6,3,DL_JapaneseFolk_Guitar,0.04130341112613678,0
62,100,0.1590909090909091,387,0,23,DL_JapaneseFolk_Guitar,6,3,DL_JapaneseFolk_Guitar,0.03738556429743767,0
52,100,0.4590909090909091,440,0,23,DL_JapaneseFolk_Guitar,6,7,DL_JapaneseFolk_Guitar,0.03833068907260895,0
53,100,0.6409090909090909,553,0,23,DL_JapaneseFolk_Guitar,6,10,DL_JapaneseFolk_Guitar,0.04475124552845955,0
65,100,0.1,694,0,23,DL_JapaneseFolk_Guitar,6,2,DL_JapaneseFolk_Guitar,0.05523109808564186,0
61,100,0.4590909090909091,779,0,23,DL_JapaneseFolk_Guitar,6,7,DL_JapaneseFolk_Guitar,0.09026481956243515,0
68,100,0.1,3,1,24,DL_JapaneseFolk_Guitar,6,2,DL_JapaneseFolk_Guitar,0.9983736276626587,1
53,100,0.1,69,0,24,DL_JapaneseFolk_Guitar,6,2,DL_JapaneseFolk_Guitar,0.05106097832322121,0
54,100,0.5818181818181818,189,0,24,DL_JapaneseFolk_Guitar,6,9,DL_JapaneseFolk_Guitar,0.041303686797618866,0
66,100,0.6772727272727272,316,0,24,DL_JapaneseFolk_Guitar,6,11,DL_JapaneseFolk_Guitar,0.0373862162232399,0
54,100,0.1590909090909091,571,1,24,DL_JapaneseFolk_Guitar,6,3,DL_JapaneseFolk_Guitar,0.03832991048693657,0
54,100,0.1,615,0,24,DL_JapaneseFolk_Guitar,6,2,DL_JapaneseFolk_Guitar,0.04475206136703491,0
54,100,0.1409090909090909,642,0,24,DL_JapaneseFolk_Guitar,6,2,DL_JapaneseFolk_Guitar,0.05522909015417099,0
66,100,0.18181818181818182,673,0,24,DL_JapaneseFolk_Guitar,6,3,DL_JapaneseFolk_Guitar,0.0902666226029396,0
54,100,0.23636363636363636,40,1,25,DL_JapaneseFolk_Guitar,6,4,DL_JapaneseFolk_Guitar,0.9986500144004822,1
57,100,0.38181818181818183,154,0,25,DL_JapaneseFolk_Guitar,6,6,DL_JapaneseFolk_Guitar,0.08780106157064438,0
54,100,0.2818181818181818,550,1,25,DL_JapaneseFolk_Guitar,6,5,DL_JapaneseFolk_Guitar,0.09181477874517441,0
62,100,0.2818181818181818,619,0,25,DL_JapaneseFolk_Guitar,6,5,DL_JapaneseFolk_Guitar,0.10747671127319336,0
62,100,0.21818181818181817,756,0,25,DL_JapaneseFolk_Guitar,6,3,DL_JapaneseFolk_Guitar,0.12482678890228271,0
52,100,0.6,866,0,25,DL_JapaneseFolk_Guitar,6,10,DL_JapaneseFolk_Guitar,0.17903214693069458,0
52,100,0.3,123,1,26,DL_JapaneseFolk_Guitar,6,5,DL_JapaneseFolk_Guitar,0.9984880685806274,1
52,100,0.18181818181818182,223,0,26,DL_JapaneseFolk_Guitar,6,3,DL_JapaneseFolk_Guitar,0.06334565579891205,0
64,100,0.11818181818181818,295,0,26,DL_JapaneseFolk_Guitar,6,2,DL_JapaneseFolk_Guitar,0.05774237588047981,0
52,100,0.5818181818181818,374,0,26,DL_JapaneseFolk_Guitar,6,9,DL_JapaneseFolk_Guitar,0.06020379438996315,0
59,100,0.4590909090909091,515,0,26,DL_JapaneseFolk_Guitar,6,7,DL_JapaneseFolk_Guitar,0.06970622390508652,0
64,100,0.35909090909090907,677,0,26,DL_JapaneseFolk_Guitar,6,6,DL_JapaneseFolk_Guitar,0.08189892768859863,0
68,100,0.2,766,0,26,DL_JapaneseFolk_Guitar,6,3,DL_JapaneseFolk_Guitar,0.12402714788913727,0
52,100,0.3,17,1,27,DL_JapaneseFolk_Guitar,6,5,DL_JapaneseFolk_Guitar,0.9988419413566589,1
57,100,0.2409090909090909,136,0,27,DL_JapaneseFolk_Guitar,6,4,DL_JapaneseFolk_Guitar,0.1372506469488144,0
57,100,0.1590909090909091,260,0,27,DL_JapaneseFolk_Guitar,6,3,DL_JapaneseFolk_Guitar,0.15978506207466125,0
57,100,0.1590909090909091,528,1,27,DL_JapaneseFolk_Guitar,6,3,DL_JapaneseFolk_Guitar,0.18645809590816498,0
61,100,0.38181818181818183,835,1,27,DL_JapaneseFolk_Guitar,6,6,DL_JapaneseFolk_Guitar,0.2581718862056732,0
61,100,0.2,88,1,28,DL_JapaneseFolk_Guitar,6,3,DL_JapaneseFolk_Guitar,0.9986500144004822,1
52,100,0.5409090909090909,285,0,28,DL_JapaneseFolk_Guitar,6,9,DL_JapaneseFolk_Guitar,0.08780542016029358,0
59,100,0.3181818181818182,470,0,28,DL_JapaneseFolk_Guitar,6,5,DL_JapaneseFolk_Guitar,0.09181597828865051,0
52,100,0.2818181818181818,550,0,28,DL_JapaneseFolk_Guitar,6,5,DL_JapaneseFolk_Guitar,0.10748042166233063,0
52,100,0.4772727272727273,691,0,28,DL_JapaneseFolk_Guitar,6,8,DL_JapaneseFolk_Guitar,0.12483364343643188,0
62,100,0.2,804,0,28,DL_JapaneseFolk_Guitar,6,3,DL_JapaneseFolk_Guitar,0.17904216051101685,0
69,100,0.4590909090909091,65,1,29,DL_JapaneseFolk_Guitar,6,7,DL_JapaneseFolk_Guitar,0.9983736276626587,1
68,100,0.2,189,0,29,DL_JapaneseFolk_Guitar,6,3,DL_JapaneseFolk_Guitar,0.05106101185083389,0
59,100,0.23636363636363636,237,0,29,DL_JapaneseFolk_Guitar,6,4,DL_JapaneseFolk_Guitar,0.04130428284406662,0
52,100,0.1,382,0,29,DL_JapaneseFolk_Guitar,6,2,DL_JapaneseFolk_Guitar,0.037387195974588394,0
66,100,0.3181818181818182,457,0,29,DL_JapaneseFolk_Guitar,6,5,DL_JapaneseFolk_Guitar,0.03833167627453804,0
54,100,0.11818181818181818,528,0,29,DL_JapaneseFolk_Guitar,6,2,DL_JapaneseFolk_Guitar,0.044752832502126694,0
66,100,0.740909090909091,584,0,29,DL_JapaneseFolk_Guitar,6,12,DL_JapaneseFolk_Guitar,0.05523168668150902,0
61,100,0.36363636363636365,752,0,29,DL_JapaneseFolk_Guitar,6,6,DL_JapaneseFolk_Guitar,0.09026286005973816,0
61,100,0.1590909090909091,40,1,30,DL_JapaneseFolk_Guitar,6,3,DL_JapaneseFolk_Guitar,0.9986500144004822,1
54,100,0.35909090909090907,110,0,30,DL_JapaneseFolk_Guitar,6,6,DL_JapaneseFolk_Guitar,0.08780542016029358,0
69,100,0.2818181818181818,198,0,30,DL_JapaneseFolk_Guitar,6,5,DL_JapaneseFolk_Guitar,0.09181787818670273,0
66,100,0.1409090909090909,333,0,30,DL_JapaneseFolk_Guitar,6,2,DL_JapaneseFolk_Guitar,0.10748028010129929,0
54,100,0.3409090909090909,453,0,30,DL_JapaneseFolk_Guitar,6,5,DL_JapaneseFolk_Guitar,0.12483074516057968,0
57,100,0.22272727272727272,532,0,30,DL_JapaneseFolk_Guitar,6,4,DL_JapaneseFolk_Guitar,0.17903470993041992,0
59,100,0.2409090909090909,44,1,31,DL_JapaneseFolk_Guitar,6,4,DL_JapaneseFolk_Guitar,0.9990230798721313,1
59,100,0.42272727272727273,399,1,31,DL_JapaneseFolk_Guitar,6,7,DL_JapaneseFolk_Guitar,0.3666224777698517,0
59,100,0.6181818181818182,559,0,31,DL_JapaneseFolk_Guitar,6,10,DL_JapaneseFolk_Guitar,0.45328488945961,0
61,100,0.3181818181818182,176,1,32,DL_JapaneseFolk_Guitar,6,5,DL_JapaneseFolk_Guitar,0.9986500144004822,1
57,100,0.2409090909090909,263,0,32,DL_JapaneseFolk_Guitar,6,4,DL_JapaneseFolk_Guitar,0.08780553191900253,0
57,100,0.2,330,0,32,DL_JapaneseFolk_Guitar,6,3,DL_JapaneseFolk_Guitar,0.09181445837020874,0
52,100,0.5590909090909091,383,0,32,DL_JapaneseFolk_Guitar,6,9,DL_JapaneseFolk_Guitar,0.10747919231653214,0
59,100,0.12272727272727273,598,0,32,DL_JapaneseFolk_Guitar,6,2,DL_JapaneseFolk_Guitar,0.12483380734920502,0
52,100,0.17727272727272728,845,1,32,DL_JapaneseFolk_Guitar,6,3,DL_JapaneseFolk_Guitar,0.17903892695903778,0
56,100,0.4818181818181818,166,1,33,DL_JapaneseFolk_Guitar,6,8,DL_JapaneseFolk_Guitar,0.9988419413566589,1
61,100,0.21818181818181817,316,0,33,DL_JapaneseFolk_Guitar,6,3,DL_JapaneseFolk_Guitar,0.13724678754806519,0
61,100,0.32272727272727275,431,0,33,DL_JapaneseFolk_Guitar,6,5,DL_JapaneseFolk_Guitar,0.1597728729248047,0
57,100,0.21818181818181817,791,1,33,DL_JapaneseFolk_Guitar,6,3,DL_JapaneseFolk_Guitar,0.18644104897975922,0
66,100,0.2590909090909091,853,0,33,DL_JapaneseFolk_Guitar,6,4,DL_JapaneseFolk_Guitar,0.25816357135772705,0
54,100,0.2772727272727273,31,1,34,DL_JapaneseFolk_Guitar,6,4,DL_JapaneseFolk_Guitar,0.9988419413566589,1
57,100,0.21818181818181817,105,0,34,DL_JapaneseFolk_Guitar,6,3,DL_JapaneseFolk_Guitar,0.13724733889102936,0
62,100,0.2636363636363636,289,0,34,DL_JapaneseFolk_Guitar,6,4,DL_JapaneseFolk_Guitar,0.1597815901041031,0
57,100,0.38181818181818183,378,0,34,DL_JapaneseFolk_Guitar,6,6,DL_JapaneseFolk_Guitar,0.18644648790359497,0
62,100,0.4590909090909091,545,0,34,DL_JapaneseFolk_Guitar,6,7,DL_JapaneseFolk_Guitar,0.2581689953804016,0
64,100,0.13636363636363635,18,1,35,DL_JapaneseFolk_Guitar,6,2,DL_JapaneseFolk_Guitar,0.9988419413566589,1
64,100,0.17727272727272728,171,0,35,DL_JapaneseFolk_Guitar,6,3,DL_JapaneseFolk_Guitar,0.13724946975708008,0
64,100,0.2,273,0,35,DL_JapaneseFolk_Guitar,6,3,DL_JapaneseFolk_Guitar,0.15978465974330902,0
57,100,0.2409090909090909,316,0,35,DL_JapaneseFolk_Guitar,6,4,DL_JapaneseFolk_Guitar,0.1864549219608307,0
61,100,1.240909090909091,444,0,35,DL_JapaneseFolk_Guitar,6,15,DL_JapaneseFolk_Guitar,0.2581709921360016,0
57,100,0.16363636363636364,334,1,36,DL_JapaneseFolk_Guitar,6,3,DL_JapaneseFolk_Guitar,0.9988419413566589,1
57,100,0.1409090909090909,444,0,36,DL_JapaneseFolk_Guitar,6,2,DL_JapaneseFolk_Guitar,0.13725316524505615,0
66,100,0.35909090909090907,651,0,36,DL_JapaneseFolk_Guitar,6,6,DL_JapaneseFolk_Guitar,0.15978659689426422,0
66,100,0.2,788,0,36,DL_JapaneseFolk_Guitar,6,3,DL_JapaneseFolk_Guitar,0.1864580661058426,0
57,100,0.5636363636363636,839,0,36,DL_JapaneseFolk_Guitar,6,9,DL_JapaneseFolk_Guitar,0.25816184282302856,0
57,100,0.4409090909090909,198,1,37,DL_JapaneseFolk_Guitar,6,7,DL_JapaneseFolk_Guitar,0.9990230798721313,1
52,100,0.6,606,1,37,DL_JapaneseFolk_Guitar,6,10,DL_JapaneseFolk_Guitar,0.36663350462913513,0
68,100,0.2772727272727273,756,0,37,DL_JapaneseFolk_Guitar,6,4,DL_JapaneseFolk_Guitar,0.45329195261001587,0
54,100,0.5818181818181818,110,1,38,DL_JapaneseFolk_Guitar,6,9,DL_JapaneseFolk_Guitar,0.9984880685806274,1
54,100,0.3409090909090909,246,0,38,DL_JapaneseFolk_Guitar,6,5,DL_JapaneseFolk_Guitar,0.063345767557621,0
57,100,0.1590909090909091,330,0,38,DL_JapaneseFolk_Guitar,6,3,DL_JapaneseFolk_Guitar,0.05774187296628952,0
64,100,0.2772727272727273,383,0,38,DL_JapaneseFolk_Guitar,6,4,DL_JapaneseFolk_Guitar,0.06020256504416466,0
54,100,0.1590909090909091,461,0,38,DL_JapaneseFolk_Guitar,6,3,DL_JapaneseFolk_Guitar,0.06970393657684326,0
54,100,0.4772727272727273,568,0,38,DL_JapaneseFolk_Guitar,6,8,DL_JapaneseFolk_Guitar,0.08189438283443451,0
54,100,0.1409090909090909,694,0,38,DL_JapaneseFolk_Guitar,6,2,DL_JapaneseFolk_Guitar,0.12402351200580597,0
66,100,0.22272727272727272,101,1,39,DL_JapaneseFolk_Guitar,6,4,DL_JapaneseFolk_Guitar,0.9990230798721313,1
66,100,0.2409090909090909,201,0,39,DL_JapaneseFolk_Guitar,6,4,DL_JapaneseFolk_Guitar,0.36663439869880676,0
69,100,0.1590909090909091,260,0,39,DL_JapaneseFolk_Guitar,6,3,DL_JapaneseFolk_Guitar,0.4532845914363861,0
52,100,0.5409090909090909,34,1,40,DL_JapaneseFolk_Guitar,6,9,DL_JapaneseFolk_Guitar,0.9986500144004822,1
59,100,0.32272727272727275,356,1,40,DL_JapaneseFolk_Guitar,6,5,DL_JapaneseFolk_Guitar,0.08780243247747421,0
52,100,0.18181818181818182,496,0,40,DL_JapaneseFolk_Guitar,6,3,DL_JapaneseFolk_Guitar,0.09181326627731323,0
59,100,0.36363636363636365,554,0,40,DL_JapaneseFolk_Guitar,6,6,DL_JapaneseFolk_Guitar,0.10747730731964111,0
59,100,0.1409090909090909,641,0,40,DL_JapaneseFolk_Guitar,6,2,DL_JapaneseFolk_Guitar,0.12482820451259613,0
68,100,0.2,748,0,40,DL_JapaneseFolk_Guitar,6,3,DL_JapaneseFolk_Guitar,0.17902813851833344,0
52,100,0.1409090909090909,141,1,41,DL_JapaneseFolk_Guitar,6,2,DL_JapaneseFolk_Guitar,0.9990229606628418,1
66,100,0.2590909090909091,386,1,41,DL_JapaneseFolk_Guitar,6,4,DL_JapaneseFolk_Guitar,0.3666203022003174,0
66,100,0.1590909090909091,518,0,41,DL_JapaneseFolk_Guitar,6,3,DL_JapaneseFolk_Guitar,0.4532983601093292,0
54,100,0.6590909090909091,703,1,42,DL_JapaneseFolk_Guitar,6,11,DL_JapaneseFolk_Guitar,0.9983165264129639,1
54,100,0.3,853,0,42,DL_JapaneseFolk_Guitar,6,5,DL_JapaneseFolk_Guitar,0.5445573329925537,0
57,100,0.13636363636363635,61,1,43,DL_JapaneseFolk_Guitar,6,2,DL_JapaneseFolk_Guitar,0.9984880685806274,1
64,100,0.3181818181818182,105,0,43,DL_JapaneseFolk_Guitar,6,5,DL_JapaneseFolk_Guitar,0.06334631145000458,0
61,100,0.2409090909090909,176,0,43,DL_JapaneseFolk_Guitar,6,4,DL_JapaneseFolk_Guitar,0.05774352699518204,0
54,100,0.3409090909090909,276,0,43,DL_JapaneseFolk_Guitar,6,5,DL_JapaneseFolk_Guitar,0.060206130146980286,0
54,100,0.16363636363636364,356,0,43,DL_JapaneseFolk_Guitar,6,3,DL_JapaneseFolk_Guitar,0.06970671564340591,0
54,100,0.1590909090909091,431,0,43,DL_JapaneseFolk_Guitar,6,3,DL_JapaneseFolk_Guitar,0.0818990096449852,0
57,100,0.2,611,0,43,DL_JapaneseFolk_Guitar,6,3,DL_JapaneseFolk_Guitar,0.12402422726154327,0
61,100,0.38181818181818183,13,1,44,DL_JapaneseFolk_Guitar,6,6,DL_JapaneseFolk_Guitar,0.9990057349205017,1
64,100,0.13636363636363635,435,1,44,DL_JapaneseFolk_Guitar,6,2,DL_JapaneseFolk_Guitar,0.23120200634002686,0
52,100,0.11818181818181818,501,0,44,DL_JapaneseFolk_Guitar,6,2,DL_JapaneseFolk_Guitar,0.2659173309803009,0
52,100,0.4,531,0,44,DL_JapaneseFolk_Guitar,6,6,DL_JapaneseFolk_Guitar,0.35420334339141846,0
57,100,0.37727272727272726,426,1,46,DL_JapaneseFolk_Guitar,6,6,DL_JapaneseFolk_Guitar,0.9983165264129639,1
57,100,0.5181818181818182,743,1,46,DL_JapaneseFolk_Guitar,6,8,DL_JapaneseFolk_Guitar,0.5445610284805298,0
57,100,0.8590909090909091,348,1,47,DL_JapaneseFolk_Guitar,6,14,DL_JapaneseFolk_Guitar,0.9983165264129639,1
57,100,0.18181818181818182,571,0,47,DL_JapaneseFolk_Guitar,6,3,DL_JapaneseFolk_Guitar,0.5445618033409119,0
57,100,0.3409090909090909,13,1,48,DL_JapaneseFolk_Guitar,6,5,DL_JapaneseFolk_Guitar,0.9990057349205017,1
56,100,0.2409090909090909,408,1,48,DL_JapaneseFolk_Guitar,6,4,DL_JapaneseFolk_Guitar,0.231209859251976,0
59,100,0.1,581,0,48,DL_JapaneseFolk_Guitar,6,2,DL_JapaneseFolk_Guitar,0.26592329144477844,0
56,100,0.18181818181818182,791,0,48,DL_JapaneseFolk_Guitar,6,3,DL_JapaneseFolk_Guitar,0.35418701171875,0
56,100,0.18181818181818182,26,1,49,DL_JapaneseFolk_Guitar,6,3,DL_JapaneseFolk_Guitar,0.9990229606628418,1
59,100,0.1409090909090909,163,0,49,DL_JapaneseFolk_Guitar,6,2,DL_JapaneseFolk_Guitar,0.3666279911994934,0
54,100,0.4772727272727273,545,1,49,DL_JapaneseFolk_Guitar,6,8,DL_JapaneseFolk_Guitar,0.45328831672668457,0
54,100,0.21818181818181817,193,1,50,DL_JapaneseFolk_Guitar,6,3,DL_JapaneseFolk_Guitar,0.9990229606628418,1
61,100,0.2,325,0,50,DL_JapaneseFolk_Guitar,6,3,DL_JapaneseFolk_Guitar,0.36661458015441895,0
61,100,0.11818181818181818,405,0,50,DL_JapaneseFolk_Guitar,6,2,DL_JapaneseFolk_Guitar,0.4532892107963562,0
59,100,0.21818181818181817,480,1,51,DL_JapaneseFolk_Guitar,6,3,DL_JapaneseFolk_Guitar,0.9983165264129639,1
59,100,0.13636363636363635,875,1,51,DL_JapaneseFolk_Guitar,6,2,DL_JapaneseFolk_Guitar,0.5445569753646851,0
59,100,0.2772727272727273,105,1,52,DL_JapaneseFolk_Guitar,6,4,DL_JapaneseFolk_Guitar,0.9990057349205017,1
56,100,0.22272727272727272,298,0,52,DL_JapaneseFolk_Guitar,6,4,DL_JapaneseFolk_Guitar,0.23119455575942993,0
61,100,0.12272727272727273,576,1,52,DL_JapaneseFolk_Guitar,6,2,DL_JapaneseFolk_Guitar,0.2659217119216919,0
59,100,0.17727272727272728,625,0,52,DL_JapaneseFolk_Guitar,6,3,DL_JapaneseFolk_Guitar,0.3541947305202484,0
57,100,0.4409090909090909,440,1,53,DL_JapaneseFolk_Guitar,6,7,DL_JapaneseFolk_Guitar,0.9983165264129639,1
57,100,0.2590909090909091,761,1,53,DL_JapaneseFolk_Guitar,6,4,DL_JapaneseFolk_Guitar,0.5445578098297119,0
52,100,0.8181818181818182,83,1,54,DL_JapaneseFolk_Guitar,6,13,DL_JapaneseFolk_Guitar,0.9990057349205017,1
52,100,0.11818181818181818,361,1,54,DL_JapaneseFolk_Guitar,6,2,DL_JapaneseFolk_Guitar,0.23120082914829254,0
66,100,0.2,518,0,54,DL_JapaneseFolk_Guitar,6,3,DL_JapaneseFolk_Guitar,0.26592081785202026,0
52,100,0.11818181818181818,836,1,54,DL_JapaneseFolk_Guitar,6,2,DL_JapaneseFolk_Guitar,0.35419797897338867,0
66,100,0.1409090909090909,53,1,55,DL_JapaneseFolk_Guitar,6,2,DL_JapaneseFolk_Guitar,0.9792566299438477,0
66,100,0.1590909090909091,123,1,56,DL_JapaneseFolk_Guitar,6,3,DL_JapaneseFolk_Guitar,0.9990229606628418,1
57,100,0.2772727272727273,370,1,56,DL_JapaneseFolk_Guitar,6,4,DL_JapaneseFolk_Guitar,0.36662814021110535,0
57,100,0.5,694,1,56,DL_JapaneseFolk_Guitar,6,8,DL_JapaneseFolk_Guitar,0.45329394936561584,0
57,100,0.21818181818181817,0,1,57,DL_JapaneseFolk_Guitar,6,3,DL_JapaneseFolk_Guitar,0.9983164072036743,1
61,100,0.6409090909090909,330,1,57,DL_JapaneseFolk_Guitar,6,10,DL_JapaneseFolk_Guitar,0.5445542931556702,0
59,100,0.22272727272727272,364,1,58,DL_JapaneseFolk_Guitar,6,4,DL_JapaneseFolk_Guitar,0.9792565107345581,0
61,100,0.2,141,1,59,DL_JapaneseFolk_Guitar,6,3,DL_JapaneseFolk_Guitar,0.9984880685806274,1
54,100,0.11818181818181818,185,0,59,DL_JapaneseFolk_Guitar,6,2,DL_JapaneseFolk_Guitar,0.06334653496742249,0
54,100,0.1,215,0,59,DL_JapaneseFolk_Guitar,6,2,DL_JapaneseFolk_Guitar,0.057743340730667114,0
61,100,0.1409090909090909,276,0,59,DL_JapaneseFolk_Guitar,6,2,DL_JapaneseFolk_Guitar,0.06020209565758705,0
64,100,0.1590909090909091,453,0,59,DL_JapaneseFolk_Guitar,6,3,DL_JapaneseFolk_Guitar,0.06970333307981491,0
64,100,0.32272727272727275,751,1,59,DL_JapaneseFolk_Guitar,6,5,DL_JapaneseFolk_Guitar,0.08189667761325836,0
54,100,0.1,826,0,59,DL_JapaneseFolk_Guitar,6,2,DL_JapaneseFolk_Guitar,0.12402478605508804,0
62,100,0.38181818181818183,136,1,60,DL_JapaneseFolk_Guitar,6,6,DL_JapaneseFolk_Guitar,0.9990229606628418,1
62,100,0.3,788,1,60,DL_JapaneseFolk_Guitar,6,5,DL_JapaneseFolk_Guitar,0.36663633584976196,0
73,100,0.5,858,0,60,DL_JapaneseFolk_Guitar,6,8,DL_JapaneseFolk_Guitar,0.4532915949821472,0
57,100,0.1590909090909091,386,1,61,DL_JapaneseFolk_Guitar,6,3,DL_JapaneseFolk_Guitar,0.9983165264129639,1
57,100,0.21818181818181817,875,1,61,DL_JapaneseFolk_Guitar,6,3,DL_JapaneseFolk_Guitar,0.5445600152015686,0
66,100,0.32272727272727275,56,1,62,DL_JapaneseFolk_Guitar,6,5,DL_JapaneseFolk_Guitar,0.9988419413566589,1
52,100,0.4409090909090909,233,0,62,DL_JapaneseFolk_Guitar,6,7,DL_JapaneseFolk_Guitar,0.13724927604198456,0
52,100,0.2409090909090909,619,1,62,DL_JapaneseFolk_Guitar,6,4,DL_JapaneseFolk_Guitar,0.15977999567985535,0
52,100,0.11818181818181818,726,0,62,DL_JapaneseFolk_Guitar,6,2,DL_JapaneseFolk_Guitar,0.18645590543746948,0
56,100,0.1409090909090909,845,0,62,DL_JapaneseFolk_Guitar,6,2,DL_JapaneseFolk_Guitar,0.2581614553928375,0
52,100,0.1409090909090909,8,1,63,DL_JapaneseFolk_Guitar,6,2,DL_JapaneseFolk_Guitar,0.9984880685806274,1
52,100,0.11818181818181818,75,0,63,DL_JapaneseFolk_Guitar,6,2,DL_JapaneseFolk_Guitar,0.06334414333105087,0
64,100,0.18181818181818182,220,0,63,DL_JapaneseFolk_Guitar,6,3,DL_JapaneseFolk_Guitar,0.05774153023958206,0
52,100,0.4,263,0,63,DL_JapaneseFolk_Guitar,6,6,DL_JapaneseFolk_Guitar,0.06020238995552063,0
69,100,0.5,584,1,63,DL_JapaneseFolk_Guitar,6,8,DL_JapaneseFolk_Guitar,0.06970343738794327,0
71,100,0.38181818181818183,791,0,63,DL_JapaneseFolk_Guitar,6,6,DL_JapaneseFolk_Guitar,0.08189649879932404,0
59,100,0.1590909090909091,875,0,63,DL_JapaneseFolk_Guitar,6,3,DL_JapaneseFolk_Guitar,0.12402466684579849,0
59,100,0.6227272727272727,136,1,64,DL_JapaneseFolk_Guitar,6,10,DL_JapaneseFolk_Guitar,0.9990229606628418,1
59,100,0.5590909090909091,383,1,64,DL_JapaneseFolk_Guitar,6,9,DL_JapaneseFolk_Guitar,0.3666297495365143,0
57,100,1.1636363636363636,553,0,64,DL_JapaneseFolk_Guitar,6,15,DL_JapaneseFolk_Guitar,0.45329126715660095,0
61,100,0.3,303,1,65,DL_JapaneseFolk_Guitar,6,5,DL_JapaneseFolk_Guitar,0.9986500144004822,1
61,100,0.1590909090909091,404,0,65,DL_JapaneseFolk_Guitar,6,3,DL_JapaneseFolk_Guitar,0.08780369162559509,0
57,100,0.1590909090909091,449,0,65,DL_JapaneseFolk_Guitar,6,3,DL_JapaneseFolk_Guitar,0.09181477874517441,0
61,100,0.3,496,0,65,DL_JapaneseFolk_Guitar,6,5,DL_JapaneseFolk_Guitar,0.10747730731964111,0
57,100,0.22272727272727272,576,0,65,DL_JapaneseFolk_Guitar,6,4,DL_JapaneseFolk_Guitar,0.12482988089323044,0
68,100,0.2,832,1,65,DL_JapaneseFolk_Guitar,6,3,DL_JapaneseFolk_Guitar,0.17903195321559906,0
59,100,0.1590909090909091,9,1,66,DL_JapaneseFolk_Guitar,6,3,DL_JapaneseFolk_Guitar,0.9984880685806274,1
68,100,0.21818181818181817,62,0,66,DL_JapaneseFolk_Guitar,6,3,DL_JapaneseFolk_Guitar,0.06334526091814041,0
68,100,0.1,113,0,66,DL_JapaneseFolk_Guitar,6,2,DL_JapaneseFolk_Guitar,0.05774330347776413,0
68,100,0.1590909090909091,166,0,66,DL_JapaneseFolk_Guitar,6,3,DL_JapaneseFolk_Guitar,0.0602010153234005,0
52,100,0.1590909090909091,206,0,66,DL_JapaneseFolk_Guitar,6,3,DL_JapaneseFolk_Guitar,0.06970274448394775,0
59,100,0.22272727272727272,673,1,66,DL_JapaneseFolk_Guitar,6,4,DL_JapaneseFolk_Guitar,0.0818929523229599,0
52,100,0.42272727272727273,729,0,66,DL_JapaneseFolk_Guitar,6,7,DL_JapaneseFolk_Guitar,0.12402337789535522,0
61,100,0.3,223,1,67,DL_JapaneseFolk_Guitar,6,5,DL_JapaneseFolk_Guitar,0.9988419413566589,1
57,100,0.1,523,1,67,DL_JapaneseFolk_Guitar,6,2,DL_JapaneseFolk_Guitar,0.1372474879026413,0
57,100,0.2409090909090909,550,0,67,DL_JapaneseFolk_Guitar,6,4,DL_JapaneseFolk_Guitar,0.15978029370307922,0
57,100,0.21818181818181817,810,1,67,DL_JapaneseFolk_Guitar,6,3,DL_JapaneseFolk_Guitar,0.1864556223154068,0
54,100,0.18181818181818182,862,0,67,DL_JapaneseFolk_Guitar,6,3,DL_JapaneseFolk_Guitar,0.2581828534603119,0
54,100,0.2,26,1,68,DL_JapaneseFolk_Guitar,6,3,DL_JapaneseFolk_Guitar,0.9986500144004822,1
61,100,0.1590909090909091,206,0,68,DL_JapaneseFolk_Guitar,6,3,DL_JapaneseFolk_Guitar,0.08780142664909363,0
59,100,0.3181818181818182,250,0,68,DL_JapaneseFolk_Guitar,6,5,DL_JapaneseFolk_Guitar,0.09181171655654907,0
61,100,0.12272727272727273,365,0,68,DL_JapaneseFolk_Guitar,6,2,DL_JapaneseFolk_Guitar,0.10747289657592773,0
59,100,0.2818181818181818,773,1,68,DL_JapaneseFolk_Guitar,6,5,DL_JapaneseFolk_Guitar,0.12482524663209915,0
59,100,0.22272727272727272,839,0,68,DL_JapaneseFolk_Guitar,6,4,DL_JapaneseFolk_Guitar,0.17902988195419312,0
61,100,0.22272727272727272,166,1,69,DL_JapaneseFolk_Guitar,6,4,DL_JapaneseFolk_Guitar,0.9990229606628418,1
54,100,0.1409090909090909,826,1,69,DL_JapaneseFolk_Guitar,6,2,DL_JapaneseFolk_Guitar,0.3666212558746338,0
54,100,0.12272727272727273,862,0,69,DL_JapaneseFolk_Guitar,6,2,DL_JapaneseFolk_Guitar,0.45329585671424866,0
57,100,0.3409090909090909,53,1,70,DL_JapaneseFolk_Guitar,6,5,DL_JapaneseFolk_Guitar,0.9983165264129639,1
56,100,0.1590909090909091,546,1,70,DL_JapaneseFolk_Guitar,6,3,DL_JapaneseFolk_Guitar,0.5445542931556702,0
61,100,0.1590909090909091,206,1,71,DL_JapaneseFolk_Guitar,6,3,DL_JapaneseFolk_Guitar,0.9990057349205017,1
54,100,0.1,440,1,71,DL_JapaneseFolk_Guitar,6,2,DL_JapaneseFolk_Guitar,0.23120832443237305,0
54,100,0.11818181818181818,593,0,71,DL_JapaneseFolk_Guitar,6,2,DL_JapaneseFolk_Guitar,0.2659217119216919,0
57,100,0.21818181818181817,703,0,71,DL_JapaneseFolk_Guitar,6,3,DL_JapaneseFolk_Guitar,0.3541952073574066,0
52,100,0.6772727272727272,722,1,72,DL_JapaneseFolk_Guitar,6,11,DL_JapaneseFolk_Guitar,0.9792569875717163,0
52,100,0.2409090909090909,96,1,73,DL_JapaneseFolk_Guitar,6,4,DL_JapaneseFolk_Guitar,0.9984880685806274,1
59,100,0.11818181818181818,184,0,73,DL_JapaneseFolk_Guitar,6,2,DL_JapaneseFolk_Guitar,0.06334749609231949,0
52,100,0.3181818181818182,220,0,73,DL_JapaneseFolk_Guitar,6,5,DL_JapaneseFolk_Guitar,0.057742223143577576,0
52,100,0.1,294,0,73,DL_JapaneseFolk_Guitar,6,2,DL_JapaneseFolk_Guitar,0.060203105211257935,0
52,100,0.5227272727272727,356,0,73,DL_JapaneseFolk_Guitar,6,8,DL_JapaneseFolk_Guitar,0.06970436871051788,0
52,100,0.5,673,1,73,DL_JapaneseFolk_Guitar,6,8,DL_JapaneseFolk_Guitar,0.0818968415260315,0
52,100,0.22272727272727272,817,0,73,DL_JapaneseFolk_Guitar,6,4,DL_JapaneseFolk_Guitar,0.12402688711881638,0
61,100,0.35909090909090907,166,1,74,DL_JapaneseFolk_Guitar,6,6,DL_JapaneseFolk_Guitar,0.9990057349205017,1
57,100,0.35909090909090907,260,0,74,DL_JapaneseFolk_Guitar,6,6,DL_JapaneseFolk_Guitar,0.23120230436325073,0
61,100,0.32272727272727275,443,0,74,DL_JapaneseFolk_Guitar,6,5,DL_JapaneseFolk_Guitar,0.26592737436294556,0
61,100,0.2409090909090909,637,0,74,DL_JapaneseFolk_Guitar,6,4,DL_JapaneseFolk_Guitar,0.35419410467147827,0
52,100,0.2772727272727273,140,1,75,DL_JapaneseFolk_Guitar,6,4,DL_JapaneseFolk_Guitar,0.9984880685806274,1
52,100,0.1,206,0,75,DL_JapaneseFolk_Guitar,6,2,DL_JapaneseFolk_Guitar,0.063345767557621,0
52,100,0.1409090909090909,242,0,75,DL_JapaneseFolk_Guitar,6,2,DL_JapaneseFolk_Guitar,0.05774276703596115,0
52,100,0.7363636363636363,282,0,75,DL_JapaneseFolk_Guitar,6,12,DL_JapaneseFolk_Guitar,0.06020195782184601,0
52,100,0.2590909090909091,449,0,75,DL_JapaneseFolk_Guitar,6,4,DL_JapaneseFolk_Guitar,0.06970483064651489,0
52,100,0.2409090909090909,646,0,75,DL_JapaneseFolk_Guitar,6,4,DL_JapaneseFolk_Guitar,0.0818958505988121,0
52,100,0.1590909090909091,766,0,75,DL_JapaneseFolk_Guitar,6,3,DL_JapaneseFolk_Guitar,0.12402848154306412,0
52,100,0.2409090909090909,233,1,76,DL_JapaneseFolk_Guitar,6,4,DL_JapaneseFolk_Guitar,0.9990057349205017,1
54,100,0.1590909090909091,430,0,76,DL_JapaneseFolk_Guitar,6,3,DL_JapaneseFolk_Guitar,0.2312050610780716,0
66,100,0.3181818181818182,483,0,76,DL_JapaneseFolk_Guitar,6,5,DL_JapaneseFolk_Guitar,0.2659275233745575,0
66,100,0.3,612,0,76,DL_JapaneseFolk_Guitar,6,5,DL_JapaneseFolk_Guitar,0.35419875383377075,0
61,100,0.2772727272727273,119,1,77,DL_JapaneseFolk_Guitar,6,4,DL_JapaneseFolk_Guitar,0.9988419413566589,1
54,100,0.2,303,0,77,DL_JapaneseFolk_Guitar,6,3,DL_JapaneseFolk_Guitar,0.1372460573911667,0
56,100,0.5181818181818182,580,1,77,DL_JapaneseFolk_Guitar,6,8,DL_JapaneseFolk_Guitar,0.1597701609134674,0
59,100,0.2409090909090909,695,0,77,DL_JapaneseFolk_Guitar,6,4,DL_JapaneseFolk_Guitar,0.18644912540912628,0
59,100,0.35909090909090907,756,0,77,DL_JapaneseFolk_Guitar,6,6,DL_JapaneseFolk_Guitar,0.2581610679626465,0
59,100,0.12272727272727273,47,1,78,DL_JapaneseFolk_Guitar,6,2,DL_JapaneseFolk_Guitar,0.9983164072036743,1
61,100,0.2409090909090909,140,0,78,DL_JapaneseFolk_Guitar,6,4,DL_JapaneseFolk_Guitar,0.5445512533187866,0
52,100,0.17727272727272728,229,1,79,DL_JapaneseFolk_Guitar,6,3,DL_JapaneseFolk_Guitar,0.9988419413566589,1
59,100,0.32272727272727275,409,0,79,DL_JapaneseFolk_Guitar,6,5,DL_JapaneseFolk_Guitar,0.1372498869895935,0
52,100,0.11818181818181818,502,0,79,DL_JapaneseFolk_Guitar,6,2,DL_JapaneseFolk_Guitar,0.1597827970981598,0
52,100,0.2636363636363636,532,0,79,DL_JapaneseFolk_Guitar,6,4,DL_JapaneseFolk_Guitar,0.18646250665187836,0
56,100,1.1181818181818182,747,0,79,DL_JapaneseFolk_Guitar,6,15,DL_JapaneseFolk_Guitar,0.25816428661346436,0
61,100,0.5363636363636364,127,1,80,DL_JapaneseFolk_Guitar,6,9,DL_JapaneseFolk_Guitar,0.9990229606628418,1
64,100,0.3,509,1,80,DL_JapaneseFolk_Guitar,6,5,DL_JapaneseFolk_Guitar,0.3666324019432068,0
54,100,0.4,629,0,80,DL_JapaneseFolk_Guitar,6,6,DL_JapaneseFolk_Guitar,0.45329418778419495,0
62,100,0.1,263,1,81,DL_JapaneseFolk_Guitar,6,2,DL_JapaneseFolk_Guitar,0.9990229606628418,1
66,100,0.11818181818181818,383,0,81,DL_JapaneseFolk_Guitar,6,2,DL_JapaneseFolk_Guitar,0.36662963032722473,0
59,100,0.5227272727272727,783,1,81,DL_JapaneseFolk_Guitar,6,8,DL_JapaneseFolk_Guitar,0.4532906711101532,0
61,100,0.1,17,1,82,DL_JapaneseFolk_Guitar,6,2,DL_JapaneseFolk_Guitar,0.9990057349205017,1
66,100,0.11818181818181818,153,0,82,DL_JapaneseFolk_Guitar,6,2,DL_JapaneseFolk_Guitar,0.23120997846126556,0
52,100,0.2,506,1,82,DL_JapaneseFolk_Guitar,6,3,DL_JapaneseFolk_Guitar,0.2659313380718231,0
57,100,0.42272727272727273,716,0,82,DL_JapaneseFolk_Guitar,6,7,DL_JapaneseFolk_Guitar,0.3541959524154663,0
54,100,0.11818181818181818,339,1,83,DL_JapaneseFolk_Guitar,6,2,DL_JapaneseFolk_Guitar,0.9792568683624268,0
52,100,0.38181818181818183,453,1,84,DL_JapaneseFolk_Guitar,6,6,DL_JapaneseFolk_Guitar,0.9990229606628418,1
52,100,0.5227272727272727,597,0,84,DL_JapaneseFolk_Guitar,6,8,DL_JapaneseFolk_Guitar,0.3666238486766815,0
52,100,0.38181818181818183,849,1,84,DL_JapaneseFolk_Guitar,6,6,DL_JapaneseFolk_Guitar,0.4532943069934845,0
59,100,0.1590909090909091,193,1,85,DL_JapaneseFolk_Guitar,6,3,DL_JapaneseFolk_Guitar,0.9792559146881104,0
64,100,0.1409090909090909,220,1,86,DL_JapaneseFolk_Guitar,6,2,DL_JapaneseFolk_Guitar,0.9990229606628418,1
64,100,0.8590909090909091,307,0,86,DL_JapaneseFolk_Guitar,6,14,DL_JapaneseFolk_Guitar,0.366621196269989,0
64,100,0.4,616,1,86,DL_JapaneseFolk_Guitar,6,6,DL_JapaneseFolk_Guitar,0.4532918334007263,0
68,100,0.2818181818181818,153,1,87,DL_JapaneseFolk_Guitar,6,5,DL_JapaneseFolk_Guitar,0.9986500144004822,1
68,100,0.5590909090909091,220,0,87,DL_JapaneseFolk_Guitar,6,9,DL_JapaneseFolk_Guitar,0.08780316263437271,0
66,100,0.1590909090909091,396,0,87,DL_JapaneseFolk_Guitar,6,3,DL_JapaneseFolk_Guitar,0.09181573241949081,0
57,100,0.5227272727272727,532,0,87,DL_JapaneseFolk_Guitar,6,8,DL_JapaneseFolk_Guitar,0.10747570544481277,0
52,100,0.6818181818181818,660,0,87,DL_JapaneseFolk_Guitar,6,11,DL_JapaneseFolk_Guitar,0.12482581287622452,0
57,100,0.17727272727272728,866,0,87,DL_JapaneseFolk_Guitar,6,3,DL_JapaneseFolk_Guitar,0.17903052270412445,0
57,100,0.5772727272727273,294,1,88,DL_JapaneseFolk_Guitar,6,9,DL_JapaneseFolk_Guitar,0.9990057349205017,1
52,100,0.6,540,1,88,DL_JapaneseFolk_Guitar,6,10,DL_JapaneseFolk_Guitar,0.2312101572751999,0
52,100,0.21818181818181817,682,0,88,DL_JapaneseFolk_Guitar,6,3,DL_JapaneseFolk_Guitar,0.26592427492141724,0
52,100,0.3181818181818182,734,0,88,DL_JapaneseFolk_Guitar,6,5,DL_JapaneseFolk_Guitar,0.3542003631591797,0
64,100,0.2409090909090909,13,1,89,DL_JapaneseFolk_Guitar,6,4,DL_JapaneseFolk_Guitar,0.9990057349205017,1
64,100,0.22272727272727272,92,0,89,DL_JapaneseFolk_Guitar,6,4,DL_JapaneseFolk_Guitar,0.23120412230491638,0
64,100,0.2590909090909091,184,0,89,DL_JapaneseFolk_Guitar,6,4,DL_JapaneseFolk_Guitar,0.26592808961868286,0
64,100,0.5590909090909091,603,1,89,DL_JapaneseFolk_Guitar,6,9,DL_JapaneseFolk_Guitar,0.3541995882987976,0
61,100,0.38181818181818183,0,1,34,DL_Nostalgic_Guitar,6,6,DL_Nostalgic_Guitar,0.9990057349205017,1
58,100,2.459090909090909,83,0,34,DL_Nostalgic_Guitar,6,15,DL_Nostalgic_Guitar,0.23120272159576416,0
58,100,0.2590909090909091,646,1,34,DL_Nostalgic_Guitar,6,4,DL_Nostalgic_Guitar,0.265929639339447,0
58,100,1.3,708,0,34,DL_Nostalgic_Guitar,6,15,DL_Nostalgic_Guitar,0.3541858494281769,0
61,100,0.2409090909090909,114,1,35,DL_Nostalgic_Guitar,6,4,DL_Nostalgic_Guitar,0.9988419413566589,1
60,100,0.23636363636363636,260,0,35,DL_Nostalgic_Guitar,6,4,DL_Nostalgic_Guitar,0.1372583955526352,0
63,100,1.5772727272727274,413,0,35,DL_Nostalgic_Guitar,6,15,DL_Nostalgic_Guitar,0.1597854197025299,0
56,100,0.2772727272727273,765,1,35,DL_Nostalgic_Guitar,6,4,DL_Nostalgic_Guitar,0.18646784126758575,0
63,100,1.1227272727272728,826,0,35,DL_Nostalgic_Guitar,6,15,DL_Nostalgic_Guitar,0.25817450881004333,0
63,100,0.8409090909090909,241,1,36,DL_Nostalgic_Guitar,6,13,DL_Nostalgic_Guitar,0.9988419413566589,1
63,100,0.6,471,0,36,DL_Nostalgic_Guitar,6,10,DL_Nostalgic_Guitar,0.13725478947162628,0
63,100,0.3,611,0,36,DL_Nostalgic_Guitar,6,5,DL_Nostalgic_Guitar,0.1597912758588791,0
63,100,0.6590909090909091,681,0,36,DL_Nostalgic_Guitar,6,11,DL_Nostalgic_Guitar,0.1864684373140335,0
63,100,1.7818181818181817,871,0,36,DL_Nostalgic_Guitar,6,15,DL_Nostalgic_Guitar,0.25818032026290894,0
58,100,0.5409090909090909,386,1,37,DL_Nostalgic_Guitar,6,9,DL_Nostalgic_Guitar,0.9990058541297913,1
58,100,0.2409090909090909,558,0,37,DL_Nostalgic_Guitar,6,4,DL_Nostalgic_Guitar,0.2312111109495163,0
63,100,0.18181818181818182,638,0,37,DL_Nostalgic_Guitar,6,3,DL_Nostalgic_Guitar,0.26592814922332764,0
58,100,1.6590909090909092,770,0,37,DL_Nostalgic_Guitar,6,15,DL_Nostalgic_Guitar,0.3541930019855499,0
65,100,1.9,254,1,38,DL_Nostalgic_Guitar,6,15,DL_Nostalgic_Guitar,0.9990229606628418,1
58,100,0.3,796,1,38,DL_Nostalgic_Guitar,6,5,DL_Nostalgic_Guitar,0.3666425943374634,0
58,100,2.118181818181818,875,0,38,DL_Nostalgic_Guitar,6,15,DL_Nostalgic_Guitar,0.4532685875892639,0
63,100,0.9,619,1,39,DL_Nostalgic_Guitar,6,14,DL_Nostalgic_Guitar,0.9983164072036743,1
63,100,0.37727272727272726,823,0,39,DL_Nostalgic_Guitar,6,6,DL_Nostalgic_Guitar,0.5445671081542969,0
63,100,3.4,43,1,40,DL_Nostalgic_Guitar,6,15,DL_Nostalgic_Guitar,0.9990229606628418,1
65,100,0.17727272727272728,801,1,40,DL_Nostalgic_Guitar,6,3,DL_Nostalgic_Guitar,0.3666525185108185,0
63,100,1.1227272727272728,839,0,40,DL_Nostalgic_Guitar,6,15,DL_Nostalgic_Guitar,0.4532722532749176,0
63,100,0.2772727272727273,383,1,41,DL_Nostalgic_Guitar,6,4,DL_Nostalgic_Guitar,0.9990057349205017,1
63,100,0.12272727272727273,488,0,41,DL_Nostalgic_Guitar,6,2,DL_Nostalgic_Guitar,0.2312169373035431,0
63,100,0.5772727272727273,668,0,41,DL_Nostalgic_Guitar,6,9,DL_Nostalgic_Guitar,0.2659321129322052,0
63,100,1.040909090909091,848,0,41,DL_Nostalgic_Guitar,6,15,DL_Nostalgic_Guitar,0.3542028069496155,0
58,100,1.1181818181818182,198,1,42,DL_Nostalgic_Guitar,6,15,DL_Nostalgic_Guitar,0.9990230798721313,1
56,100,1.559090909090909,448,1,42,DL_Nostalgic_Guitar,6,15,DL_Nostalgic_Guitar,0.3666260838508606,0
56,100,1.2363636363636363,810,1,42,DL_Nostalgic_Guitar,6,15,DL_Nostalgic_Guitar,0.4532812535762787,0
58,100,2.922727272727273,201,1,43,DL_Nostalgic_Guitar,6,15,DL_Nostalgic_Guitar,0.9983164072036743,1
56,100,0.759090909090909,848,1,43,DL_Nostalgic_Guitar,6,12,DL_Nostalgic_Guitar,0.5445488095283508,0
53,100,0.35909090909090907,141,1,44,DL_Nostalgic_Guitar,6,6,DL_Nostalgic_Guitar,0.9988419413566589,1
56,100,0.5409090909090909,220,0,44,DL_Nostalgic_Guitar,6,9,DL_Nostalgic_Guitar,0.13724620640277863,0
53,100,0.22272727272727272,356,0,44,DL_Nostalgic_Guitar,6,4,DL_Nostalgic_Guitar,0.15977948904037476,0
56,100,0.7818181818181819,431,0,44,DL_Nostalgic_Guitar,6,13,DL_Nostalgic_Guitar,0.18643659353256226,0
58,100,0.1409090909090909,606,0,44,DL_Nostalgic_Guitar,6,2,DL_Nostalgic_Guitar,0.2581605613231659,0
63,100,0.3,26,1,45,DL_Nostalgic_Guitar,6,5,DL_Nostalgic_Guitar,0.9990057349205017,1
58,100,0.8818181818181818,131,0,45,DL_Nostalgic_Guitar,6,14,DL_Nostalgic_Guitar,0.2312292605638504,0
56,100,0.4590909090909091,383,1,45,DL_Nostalgic_Guitar,6,7,DL_Nostalgic_Guitar,0.26594921946525574,0
56,100,3.3227272727272728,606,0,45,DL_Nostalgic_Guitar,6,15,DL_Nostalgic_Guitar,0.35417014360427856,0
56,100,0.7,783,1,46,DL_Nostalgic_Guitar,6,11,DL_Nostalgic_Guitar,0.9792550206184387,0
53,100,0.3409090909090909,66,1,47,DL_Nostalgic_Guitar,6,5,DL_Nostalgic_Guitar,0.9988419413566589,1
56,100,0.38181818181818183,144,0,47,DL_Nostalgic_Guitar,6,6,DL_Nostalgic_Guitar,0.13724954426288605,0
56,100,1.1409090909090909,289,0,47,DL_Nostalgic_Guitar,6,15,DL_Nostalgic_Guitar,0.15977196395397186,0
58,100,0.9818181818181818,541,1,47,DL_Nostalgic_Guitar,6,15,DL_Nostalgic_Guitar,0.1864476203918457,0
58,100,0.4409090909090909,783,1,47,DL_Nostalgic_Guitar,6,7,DL_Nostalgic_Guitar,0.25815320014953613,0
70,100,0.1590909090909091,83,1,48,DL_Nostalgic_Guitar,6,3,DL_Nostalgic_Guitar,0.9983004927635193,1
58,100,0.17727272727272728,118,0,48,DL_Nostalgic_Guitar,6,3,DL_Nostalgic_Guitar,0.0446639209985733,0
53,100,0.23636363636363636,391,1,48,DL_Nostalgic_Guitar,6,4,DL_Nostalgic_Guitar,0.03314952924847603,0
53,100,0.4590909090909091,448,0,48,DL_Nostalgic_Guitar,6,7,DL_Nostalgic_Guitar,0.02658027410507202,0
56,100,0.3181818181818182,550,0,48,DL_Nostalgic_Guitar,6,5,DL_Nostalgic_Guitar,0.023595087230205536,0
53,100,0.2590909090909091,628,0,48,DL_Nostalgic_Guitar,6,4,DL_Nostalgic_Guitar,0.024315789341926575,0
56,100,0.5409090909090909,703,0,48,DL_Nostalgic_Guitar,6,9,DL_Nostalgic_Guitar,0.029689956456422806,0
56,100,0.1590909090909091,826,0,48,DL_Nostalgic_Guitar,6,3,DL_Nostalgic_Guitar,0.04007778316736221,0
58,100,0.35909090909090907,871,0,48,DL_Nostalgic_Guitar,6,6,DL_Nostalgic_Guitar,0.07093162834644318,0
56,100,0.2,351,1,49,DL_Nostalgic_Guitar,6,3,DL_Nostalgic_Guitar,0.9983164072036743,1
61,100,0.5,756,1,49,DL_Nostalgic_Guitar,6,8,DL_Nostalgic_Guitar,0.5445599555969238,0
56,100,0.9818181818181818,166,1,50,DL_Nostalgic_Guitar,6,15,DL_Nostalgic_Guitar,0.9988419413566589,1
58,100,0.1590909090909091,405,1,50,DL_Nostalgic_Guitar,6,3,DL_Nostalgic_Guitar,0.13724622130393982,0
70,100,0.11818181818181818,440,0,50,DL_Nostalgic_Guitar,6,2,DL_Nostalgic_Guitar,0.1597738116979599,0
58,100,0.3,729,1,50,DL_Nostalgic_Guitar,6,5,DL_Nostalgic_Guitar,0.18644079566001892,0
70,100,0.1590909090909091,813,0,50,DL_Nostalgic_Guitar,6,3,DL_Nostalgic_Guitar,0.25815844535827637,0
58,100,0.38181818181818183,4,1,51,DL_Nostalgic_Guitar,6,6,DL_Nostalgic_Guitar,0.9990057349205017,1
63,100,0.12272727272727273,136,0,51,DL_Nostalgic_Guitar,6,2,DL_Nostalgic_Guitar,0.23120903968811035,0
56,100,1.059090909090909,405,1,51,DL_Nostalgic_Guitar,6,15,DL_Nostalgic_Guitar,0.2659207880496979,0
61,100,0.4409090909090909,703,1,51,DL_Nostalgic_Guitar,6,7,DL_Nostalgic_Guitar,0.35419607162475586,0
60,100,1.1,8,1,52,DL_Nostalgic_Guitar,6,15,DL_Nostalgic_Guitar,0.9990229606628418,1
63,100,0.1409090909090909,263,1,52,DL_Nostalgic_Guitar,6,2,DL_Nostalgic_Guitar,0.366632342338562,0
63,100,1.0772727272727274,413,0,52,DL_Nostalgic_Guitar,6,15,DL_Nostalgic_Guitar,0.4532860517501831,0
56,100,0.3409090909090909,91,1,53,DL_Nostalgic_Guitar,6,5,DL_Nostalgic_Guitar,0.9988419413566589,1
56,100,0.38181818181818183,179,0,53,DL_Nostalgic_Guitar,6,6,DL_Nostalgic_Guitar,0.13724948465824127,0
63,100,1.059090909090909,263,0,53,DL_Nostalgic_Guitar,6,15,DL_Nostalgic_Guitar,0.15977507829666138,0
58,100,0.7818181818181819,638,1,53,DL_Nostalgic_Guitar,6,13,DL_Nostalgic_Guitar,0.18644742667675018,0
63,100,0.2636363636363636,818,0,53,DL_Nostalgic_Guitar,6,4,DL_Nostalgic_Guitar,0.25816085934638977,0
63,100,0.11818181818181818,61,1,54,DL_Nostalgic_Guitar,6,2,DL_Nostalgic_Guitar,0.9990230798721313,1
56,100,0.2590909090909091,338,1,54,DL_Nostalgic_Guitar,6,4,DL_Nostalgic_Guitar,0.3666452467441559,0
63,100,0.740909090909091,563,0,54,DL_Nostalgic_Guitar,6,12,DL_Nostalgic_Guitar,0.45328038930892944,0
55,100,0.13636363636363635,150,1,55,DL_Nostalgic_Guitar,6,2,DL_Nostalgic_Guitar,0.9990230798721313,1
63,100,0.1,703,1,55,DL_Nostalgic_Guitar,6,2,DL_Nostalgic_Guitar,0.3666225075721741,0
56,100,0.36363636363636365,751,0,55,DL_Nostalgic_Guitar,6,6,DL_Nostalgic_Guitar,0.45329219102859497,0
56,100,0.9590909090909091,31,1,56,DL_Nostalgic_Guitar,6,15,DL_Nostalgic_Guitar,0.9986500144004822,1
56,100,0.12272727272727273,268,1,56,DL_Nostalgic_Guitar,6,2,DL_Nostalgic_Guitar,0.08780537545681,0
56,100,0.7,338,0,56,DL_Nostalgic_Guitar,6,11,DL_Nostalgic_Guitar,0.09181609004735947,0
56,100,0.8590909090909091,501,0,56,DL_Nostalgic_Guitar,6,14,DL_Nostalgic_Guitar,0.10747753828763962,0
56,100,0.12272727272727273,694,0,56,DL_Nostalgic_Guitar,6,2,DL_Nostalgic_Guitar,0.12482983618974686,0
56,100,0.2590909090909091,761,0,56,DL_Nostalgic_Guitar,6,4,DL_Nostalgic_Guitar,0.1790226250886917,0
56,100,1.4,26,1,57,DL_Nostalgic_Guitar,6,15,DL_Nostalgic_Guitar,0.9983164072036743,1
56,100,0.8409090909090909,338,1,57,DL_Nostalgic_Guitar,6,13,DL_Nostalgic_Guitar,0.5445600748062134,0
58,100,0.2590909090909091,118,1,58,DL_Nostalgic_Guitar,6,4,DL_Nostalgic_Guitar,0.9990057349205017,1
58,100,0.7636363636363637,179,0,58,DL_Nostalgic_Guitar,6,12,DL_Nostalgic_Guitar,0.23120838403701782,0
58,100,0.1590909090909091,448,1,58,DL_Nostalgic_Guitar,6,3,DL_Nostalgic_Guitar,0.2659299969673157,0
56,100,0.9,681,1,58,DL_Nostalgic_Guitar,6,14,DL_Nostalgic_Guitar,0.3541887104511261,0
56,100,0.9409090909090909,26,1,59,DL_Nostalgic_Guitar,6,15,DL_Nostalgic_Guitar,0.9986500144004822,1
58,100,0.2409090909090909,298,1,59,DL_Nostalgic_Guitar,6,4,DL_Nostalgic_Guitar,0.08780600130558014,0
58,100,0.2409090909090909,378,0,59,DL_Nostalgic_Guitar,6,4,DL_Nostalgic_Guitar,0.09181243181228638,0
55,100,0.21818181818181817,448,0,59,DL_Nostalgic_Guitar,6,3,DL_Nostalgic_Guitar,0.10747724026441574,0
58,100,1.4,518,0,59,DL_Nostalgic_Guitar,6,15,DL_Nostalgic_Guitar,0.12482218444347382,0
58,100,0.2,853,1,59,DL_Nostalgic_Guitar,6,3,DL_Nostalgic_Guitar,0.1790323406457901,0
60,100,0.7227272727272728,48,1,60,DL_Nostalgic_Guitar,6,12,DL_Nostalgic_Guitar,0.9986500144004822,1
56,100,0.5590909090909091,241,0,60,DL_Nostalgic_Guitar,6,9,DL_Nostalgic_Guitar,0.0878044068813324,0
60,100,0.11818181818181818,405,0,60,DL_Nostalgic_Guitar,6,2,DL_Nostalgic_Guitar,0.09181907027959824,0
56,100,0.23636363636363636,545,0,60,DL_Nostalgic_Guitar,6,4,DL_Nostalgic_Guitar,0.10748165845870972,0
56,100,0.3181818181818182,616,0,60,DL_Nostalgic_Guitar,6,5,DL_Nostalgic_Guitar,0.12482818961143494,0
56,100,0.6,848,1,60,DL_Nostalgic_Guitar,6,10,DL_Nostalgic_Guitar,0.1790328472852707,0
56,100,0.6818181818181818,289,1,61,DL_Nostalgic_Guitar,6,11,DL_Nostalgic_Guitar,0.9990229606628418,1
56,100,0.12272727272727273,453,0,61,DL_Nostalgic_Guitar,6,2,DL_Nostalgic_Guitar,0.3666267693042755,0
56,100,0.3,700,1,61,DL_Nostalgic_Guitar,6,5,DL_Nostalgic_Guitar,0.4532890021800995,0
56,100,0.1,43,1,62,DL_Nostalgic_Guitar,6,2,DL_Nostalgic_Guitar,0.9988419413566589,1
56,100,0.5818181818181818,91,0,62,DL_Nostalgic_Guitar,6,9,DL_Nostalgic_Guitar,0.13724291324615479,0
58,100,0.2,228,0,62,DL_Nostalgic_Guitar,6,3,DL_Nostalgic_Guitar,0.15977703034877777,0
58,100,0.1,483,1,62,DL_Nostalgic_Guitar,6,2,DL_Nostalgic_Guitar,0.1864483505487442,0
58,100,1.559090909090909,518,0,62,DL_Nostalgic_Guitar,6,15,DL_Nostalgic_Guitar,0.2581600248813629,0
63,100,0.35909090909090907,677,1,64,DL_Nostalgic_Guitar,6,6,DL_Nostalgic_Guitar,0.9792559146881104,1
58,100,0.38181818181818183,817,1,1,DL_warm_Guitar,6,6,DL_warm_Guitar,0.9792566299438477,0
58,100,0.17727272727272728,259,1,2,DL_warm_Guitar,6,3,DL_warm_Guitar,0.9988419413566589,1
58,100,0.2818181818181818,330,0,2,DL_warm_Guitar,6,5,DL_warm_Guitar,0.13724714517593384,0
55,100,0.1,501,0,2,DL_warm_Guitar,6,2,DL_warm_Guitar,0.15977449715137482,0
58,100,0.18181818181818182,528,0,2,DL_warm_Guitar,6,3,DL_warm_Guitar,0.18644516170024872,0
58,100,0.759090909090909,607,0,2,DL_warm_Guitar,6,12,DL_warm_Guitar,0.2581556737422943,0
58,100,0.7227272727272728,510,1,3,DL_warm_Guitar,6,12,DL_warm_Guitar,0.9983165264129639,1
58,100,0.36363636363636365,840,1,3,DL_warm_Guitar,6,6,DL_warm_Guitar,0.5445582866668701,0
58,100,0.1409090909090909,43,1,4,DL_warm_Guitar,6,2,DL_warm_Guitar,0.9983165264129639,1
58,100,0.5818181818181818,770,1,4,DL_warm_Guitar,6,9,DL_warm_Guitar,0.5445529818534851,0
58,100,0.5,43,1,5,DL_warm_Guitar,6,8,DL_warm_Guitar,0.9990229606628418,1
58,100,0.2409090909090909,232,0,5,DL_warm_Guitar,6,4,DL_warm_Guitar,0.3666181266307831,0
58,100,0.2636363636363636,818,1,5,DL_warm_Guitar,6,4,DL_warm_Guitar,0.4532873332500458,0
58,100,0.8409090909090909,56,1,6,DL_warm_Guitar,6,13,DL_warm_Guitar,0.9988419413566589,1
58,100,0.5227272727272727,268,0,6,DL_warm_Guitar,6,8,DL_warm_Guitar,0.13724581897258759,0
58,100,0.16363636363636364,399,0,6,DL_warm_Guitar,6,3,DL_warm_Guitar,0.15977421402931213,0
58,100,0.2,440,0,6,DL_warm_Guitar,6,3,DL_warm_Guitar,0.18644650280475616,0
58,100,0.2590909090909091,770,1,6,DL_warm_Guitar,6,4,DL_warm_Guitar,0.25815558433532715,0
58,100,0.3409090909090909,69,1,7,DL_warm_Guitar,6,5,DL_warm_Guitar,0.9990057349205017,1
58,100,0.2409090909090909,299,0,7,DL_warm_Guitar,6,4,DL_warm_Guitar,0.2312050610780716,0
58,100,0.32272727272727275,355,0,7,DL_warm_Guitar,6,5,DL_warm_Guitar,0.26591622829437256,0
58,100,0.16363636363636364,444,0,7,DL_warm_Guitar,6,3,DL_warm_Guitar,0.35419508814811707,0
58,100,0.13636363636363635,171,1,8,DL_warm_Guitar,6,2,DL_warm_Guitar,0.9990230798721313,1
58,100,0.11818181818181818,646,1,8,DL_warm_Guitar,6,2,DL_warm_Guitar,0.36662548780441284,0
56,100,0.1,721,0,8,DL_warm_Guitar,6,2,DL_warm_Guitar,0.45328831672668457,0
58,100,0.1,391,1,9,DL_warm_Guitar,6,2,DL_warm_Guitar,0.9990230798721313,1
58,100,0.5409090909090909,651,1,9,DL_warm_Guitar,6,9,DL_warm_Guitar,0.36662164330482483,0
58,100,0.3,818,0,9,DL_warm_Guitar,6,5,DL_warm_Guitar,0.4532889127731323,0
58,100,0.5772727272727273,75,1,10,DL_warm_Guitar,6,9,DL_warm_Guitar,0.9792568683624268,0
58,100,0.5,53,1,11,DL_warm_Guitar,6,8,DL_warm_Guitar,0.9988420605659485,1
58,100,0.6,166,0,11,DL_warm_Guitar,6,10,DL_warm_Guitar,0.13724909722805023,0
58,100,0.5818181818181818,307,0,11,DL_warm_Guitar,6,9,DL_warm_Guitar,0.1597723513841629,0
58,100,0.32272727272727275,443,0,11,DL_warm_Guitar,6,5,DL_warm_Guitar,0.1864480972290039,0
60,100,0.740909090909091,826,1,11,DL_warm_Guitar,6,12,DL_warm_Guitar,0.25815409421920776,0
58,100,1.1590909090909092,132,1,12,DL_warm_Guitar,6,15,DL_warm_Guitar,0.9988420605659485,1
58,100,0.41818181818181815,414,1,12,DL_warm_Guitar,6,7,DL_warm_Guitar,0.1372518539428711,0
55,100,0.12272727272727273,541,0,12,DL_warm_Guitar,6,2,DL_warm_Guitar,0.1597806066274643,0
55,100,0.1409090909090909,572,0,12,DL_warm_Guitar,6,2,DL_warm_Guitar,0.18645082414150238,0
55,100,0.13636363636363635,611,0,12,DL_warm_Guitar,6,2,DL_warm_Guitar,0.2581646740436554,0
60,100,0.3,158,1,13,DL_warm_Guitar,6,5,DL_warm_Guitar,0.9983165264129639,1
58,100,0.1409090909090909,862,1,13,DL_warm_Guitar,6,2,DL_warm_Guitar,0.5445568561553955,0
58,100,0.21818181818181817,660,1,14,DL_warm_Guitar,6,3,DL_warm_Guitar,0.9983165264129639,1
58,100,0.11818181818181818,854,0,14,DL_warm_Guitar,6,2,DL_warm_Guitar,0.5445564389228821,0
58,100,0.4818181818181818,3,1,15,DL_warm_Guitar,6,8,DL_warm_Guitar,0.9990057349205017,1
67,100,0.1409090909090909,189,0,15,DL_warm_Guitar,6,2,DL_warm_Guitar,0.23120072484016418,0
58,100,0.8,254,0,15,DL_warm_Guitar,6,13,DL_warm_Guitar,0.26591870188713074,0
58,100,0.11818181818181818,876,1,15,DL_warm_Guitar,6,2,DL_warm_Guitar,0.3541938364505768,0
58,100,0.6818181818181818,110,1,16,DL_warm_Guitar,6,11,DL_warm_Guitar,0.9990057349205017,1
58,100,0.1409090909090909,364,1,16,DL_warm_Guitar,6,2,DL_warm_Guitar,0.23120343685150146,0
58,100,0.22272727272727272,430,0,16,DL_warm_Guitar,6,4,DL_warm_Guitar,0.26591694355010986,0
58,100,0.3409090909090909,691,1,16,DL_warm_Guitar,6,5,DL_warm_Guitar,0.3541933000087738,0
58,100,0.1409090909090909,21,1,17,DL_warm_Guitar,6,2,DL_warm_Guitar,0.9990057349205017,1
58,100,0.5409090909090909,246,0,17,DL_warm_Guitar,6,9,DL_warm_Guitar,0.2311975210905075,0
58,100,0.9590909090909091,497,1,17,DL_warm_Guitar,6,15,DL_warm_Guitar,0.26591670513153076,0
58,100,0.16363636363636364,729,1,17,DL_warm_Guitar,6,3,DL_warm_Guitar,0.35419732332229614,0
58,100,0.1590909090909091,260,1,18,DL_warm_Guitar,6,3,DL_warm_Guitar,0.9990230798721313,1
56,100,0.17727272727272728,691,1,18,DL_warm_Guitar,6,3,DL_warm_Guitar,0.3666282892227173,0
58,100,0.6409090909090909,752,0,18,DL_warm_Guitar,6,10,DL_warm_Guitar,0.45328155159950256,0
58,100,0.11818181818181818,30,1,19,DL_warm_Guitar,6,2,DL_warm_Guitar,0.9986500144004822,1
58,100,0.38181818181818183,92,0,19,DL_warm_Guitar,6,6,DL_warm_Guitar,0.0878031998872757,0
58,100,0.16363636363636364,179,0,19,DL_warm_Guitar,6,3,DL_warm_Guitar,0.09181380271911621,0
58,100,0.1590909090909091,320,0,19,DL_warm_Guitar,6,3,DL_warm_Guitar,0.10747929662466049,0
58,100,0.5818181818181818,488,0,19,DL_warm_Guitar,6,9,DL_warm_Guitar,0.12482330203056335,0
58,100,0.5772727272727273,721,1,19,DL_warm_Guitar,6,9,DL_warm_Guitar,0.1790326088666916,0
58,100,0.740909090909091,92,1,20,DL_warm_Guitar,6,12,DL_warm_Guitar,0.9988419413566589,1
58,100,0.1409090909090909,268,0,20,DL_warm_Guitar,6,2,DL_warm_Guitar,0.13724811375141144,0
58,100,0.1409090909090909,316,0,20,DL_warm_Guitar,6,2,DL_warm_Guitar,0.1597772091627121,0
58,100,0.8409090909090909,351,0,20,DL_warm_Guitar,6,13,DL_warm_Guitar,0.1864449679851532,0
58,100,1.018181818181818,669,1,20,DL_warm_Guitar,6,15,DL_warm_Guitar,0.2581591010093689,0
58,100,0.2590909090909091,61,1,21,DL_warm_Guitar,6,4,DL_warm_Guitar,0.9988420605659485,1
58,100,1.3,123,0,21,DL_warm_Guitar,6,15,DL_warm_Guitar,0.13724631071090698,0
63,100,0.21818181818181817,413,1,21,DL_warm_Guitar,6,3,DL_warm_Guitar,0.1597784012556076,0
67,100,0.1409090909090909,470,0,21,DL_warm_Guitar,6,2,DL_warm_Guitar,0.1864481419324875,0
55,100,0.2,540,0,21,DL_warm_Guitar,6,3,DL_warm_Guitar,0.25816231966018677,0
60,100,0.11818181818181818,330,1,22,DL_warm_Guitar,6,2,DL_warm_Guitar,0.9983165264129639,1
60,100,0.2590909090909091,559,0,22,DL_warm_Guitar,6,4,DL_warm_Guitar,0.5445535182952881,0
67,100,0.2818181818181818,607,1,23,DL_warm_Guitar,6,5,DL_warm_Guitar,0.9792560338973999,0
58,100,0.2,61,1,24,DL_warm_Guitar,6,3,DL_warm_Guitar,0.9988419413566589,1
58,100,0.3,343,1,24,DL_warm_Guitar,6,5,DL_warm_Guitar,0.13724717497825623,0
58,100,0.1,540,0,24,DL_warm_Guitar,6,2,DL_warm_Guitar,0.15977753698825836,0
58,100,0.2,743,0,24,DL_warm_Guitar,6,3,DL_warm_Guitar,0.1864469349384308,0
58,100,0.6772727272727272,822,0,24,DL_warm_Guitar,6,11,DL_warm_Guitar,0.25815707445144653,0
58,100,0.37727272727272726,162,1,25,DL_warm_Guitar,6,6,DL_warm_Guitar,0.9986500144004822,1
58,100,0.9590909090909091,277,0,25,DL_warm_Guitar,6,15,DL_warm_Guitar,0.08780144900083542,0
62,100,0.11818181818181818,528,1,25,DL_warm_Guitar,6,2,DL_warm_Guitar,0.09181243181228638,0
58,100,0.2772727272727273,567,0,25,DL_warm_Guitar,6,4,DL_warm_Guitar,0.1074795052409172,0
62,100,0.1409090909090909,669,0,25,DL_warm_Guitar,6,2,DL_warm_Guitar,0.1248268336057663,0
58,100,0.6,770,0,25,DL_warm_Guitar,6,10,DL_warm_Guitar,0.17903335392475128,0
58,100,0.2,123,1,26,DL_warm_Guitar,6,3,DL_warm_Guitar,0.9984880685806274,1
58,100,0.3181818181818182,175,0,26,DL_warm_Guitar,6,5,DL_warm_Guitar,0.06334560364484787,0
58,100,0.5772727272727273,272,0,26,DL_warm_Guitar,6,9,DL_warm_Guitar,0.057740770280361176,0
58,100,0.11818181818181818,413,0,26,DL_warm_Guitar,6,2,DL_warm_Guitar,0.06020163744688034,0
58,100,0.5,461,0,26,DL_warm_Guitar,6,8,DL_warm_Guitar,0.06970015913248062,0
58,100,0.2636363636363636,619,0,26,DL_warm_Guitar,6,4,DL_warm_Guitar,0.08189007639884949,0
58,100,0.2590909090909091,831,0,26,DL_warm_Guitar,6,4,DL_warm_Guitar,0.12401469796895981,0
58,100,0.6227272727272727,69,1,27,DL_warm_Guitar,6,10,DL_warm_Guitar,0.9988419413566589,1
60,100,0.17727272727272728,260,0,27,DL_warm_Guitar,6,3,DL_warm_Guitar,0.137254998087883,0
58,100,0.6227272727272727,333,0,27,DL_warm_Guitar,6,10,DL_warm_Guitar,0.15978121757507324,0
58,100,1.4636363636363636,488,0,27,DL_warm_Guitar,6,15,DL_warm_Guitar,0.18645015358924866,0
56,100,0.43636363636363634,831,1,27,DL_warm_Guitar,6,7,DL_warm_Guitar,0.25815942883491516,0
68,100,0.35909090909090907,144,1,28,DL_warm_Guitar,6,6,DL_warm_Guitar,0.9988419413566589,1
68,100,0.4772727272727273,237,0,28,DL_warm_Guitar,6,8,DL_warm_Guitar,0.13724800944328308,0
68,100,0.4590909090909091,387,0,28,DL_warm_Guitar,6,7,DL_warm_Guitar,0.15977393090724945,0
58,100,0.13636363636363635,677,1,28,DL_warm_Guitar,6,2,DL_warm_Guitar,0.18644900619983673,0
56,100,0.1590909090909091,787,0,28,DL_warm_Guitar,6,3,DL_warm_Guitar,0.2581576406955719,0
68,100,0.2590909090909091,96,1,29,DL_warm_Guitar,6,4,DL_warm_Guitar,0.9990229606628418,1
58,100,0.1409090909090909,229,0,29,DL_warm_Guitar,6,2,DL_warm_Guitar,0.3666256070137024,0
58,100,0.4,804,1,29,DL_warm_Guitar,6,6,DL_warm_Guitar,0.45329058170318604,0
58,100,0.3409090909090909,57,1,30,DL_warm_Guitar,6,5,DL_warm_Guitar,0.9990057349205017,1
58,100,0.2590909090909091,254,0,30,DL_warm_Guitar,6,4,DL_warm_Guitar,0.23121392726898193,0
58,100,0.6409090909090909,387,0,30,DL_warm_Guitar,6,10,DL_warm_Guitar,0.26592791080474854,0
58,100,2.0,804,1,30,DL_warm_Guitar,6,15,DL_warm_Guitar,0.35418352484703064,0
58,100,0.7227272727272728,453,1,31,DL_warm_Guitar,6,12,DL_warm_Guitar,0.9990057349205017,1
58,100,0.5818181818181818,619,0,31,DL_warm_Guitar,6,9,DL_warm_Guitar,0.23120225965976715,0
60,100,0.17727272727272728,801,0,31,DL_warm_Guitar,6,3,DL_warm_Guitar,0.2659214735031128,0
70,100,0.2590909090909091,845,0,31,DL_warm_Guitar,6,4,DL_warm_Guitar,0.3541859984397888,0
63,100,0.36363636363636365,48,1,32,DL_warm_Guitar,6,6,DL_warm_Guitar,0.9990057349205017,1
58,100,0.5590909090909091,166,0,32,DL_warm_Guitar,6,9,DL_warm_Guitar,0.23120996356010437,0
58,100,1.018181818181818,435,1,32,DL_warm_Guitar,6,15,DL_warm_Guitar,0.26592379808425903,0
58,100,0.7227272727272728,694,1,32,DL_warm_Guitar,6,12,DL_warm_Guitar,0.3542014956474304,0
68,100,0.36363636363636365,69,1,33,DL_warm_Guitar,6,6,DL_warm_Guitar,0.9988419413566589,1
68,100,0.1409090909090909,188,0,33,DL_warm_Guitar,6,2,DL_warm_Guitar,0.1372515857219696,0
60,100,0.9636363636363636,268,0,33,DL_warm_Guitar,6,15,DL_warm_Guitar,0.15977910161018372,0
58,100,0.6227272727272727,673,1,33,DL_warm_Guitar,6,10,DL_warm_Guitar,0.18644973635673523,0
68,100,0.2409090909090909,823,0,33,DL_warm_Guitar,6,4,DL_warm_Guitar,0.25816166400909424,0
58,100,0.12272727272727273,201,1,34,DL_warm_Guitar,6,2,DL_warm_Guitar,0.9983165264129639,1
58,100,0.5409090909090909,581,1,34,DL_warm_Guitar,6,9,DL_warm_Guitar,0.5445510149002075,0
58,100,0.1,251,1,35,DL_warm_Guitar,6,2,DL_warm_Guitar,0.9986500144004822,1
58,100,0.7818181818181819,364,0,35,DL_warm_Guitar,6,13,DL_warm_Guitar,0.08780266344547272,0
70,100,0.3,655,1,35,DL_warm_Guitar,6,5,DL_warm_Guitar,0.09181252121925354,0
62,100,0.17727272727272728,778,0,35,DL_warm_Guitar,6,3,DL_warm_Guitar,0.10747501254081726,0
62,100,0.1590909090909091,823,0,35,DL_warm_Guitar,6,3,DL_warm_Guitar,0.12482438236474991,0
58,100,0.740909090909091,866,0,35,DL_warm_Guitar,6,12,DL_warm_Guitar,0.17903222143650055,0
70,100,0.3,193,1,36,DL_warm_Guitar,6,5,DL_warm_Guitar,0.9984880685806274,1
58,100,0.4590909090909091,260,0,36,DL_warm_Guitar,6,7,DL_warm_Guitar,0.0633455440402031,0
58,100,0.4636363636363636,378,0,36,DL_warm_Guitar,6,7,DL_warm_Guitar,0.057741422206163406,0
58,100,0.6,515,0,36,DL_warm_Guitar,6,10,DL_warm_Guitar,0.06020209565758705,0
70,100,0.11818181818181818,646,0,36,DL_warm_Guitar,6,2,DL_warm_Guitar,0.0697002187371254,0
55,100,0.2818181818181818,686,0,36,DL_warm_Guitar,6,5,DL_warm_Guitar,0.08189129829406738,0
60,100,0.11818181818181818,801,0,36,DL_warm_Guitar,6,2,DL_warm_Guitar,0.12401656061410904,0
58,100,0.3,8,1,37,DL_warm_Guitar,6,5,DL_warm_Guitar,0.9984880685806274,1
58,100,0.1590909090909091,166,0,37,DL_warm_Guitar,6,3,DL_warm_Guitar,0.06334571540355682,0
58,100,1.0227272727272727,211,0,37,DL_warm_Guitar,6,15,DL_warm_Guitar,0.057740360498428345,0
70,100,0.2,435,0,37,DL_warm_Guitar,6,3,DL_warm_Guitar,0.060202743858098984,0
58,100,0.4409090909090909,483,0,37,DL_warm_Guitar,6,7,DL_warm_Guitar,0.0697016790509224,0
55,100,0.11818181818181818,633,0,37,DL_warm_Guitar,6,2,DL_warm_Guitar,0.08189373463392258,0
58,100,0.9,703,0,37,DL_warm_Guitar,6,14,DL_warm_Guitar,0.12401501834392548,0
58,100,0.2409090909090909,34,1,38,DL_warm_Guitar,6,4,DL_warm_Guitar,0.9986500144004822,1
68,100,0.17727272727272728,141,0,38,DL_warm_Guitar,6,3,DL_warm_Guitar,0.0878010243177414,0
58,100,0.2590909090909091,281,0,38,DL_warm_Guitar,6,4,DL_warm_Guitar,0.09181348234415054,0
58,100,0.2,444,0,38,DL_warm_Guitar,6,3,DL_warm_Guitar,0.1074787825345993,0
68,100,0.16363636363636364,554,0,38,DL_warm_Guitar,6,3,DL_warm_Guitar,0.12482118606567383,0
58,100,0.5818181818181818,726,0,38,DL_warm_Guitar,6,9,DL_warm_Guitar,0.17902997136116028,0
68,100,0.6818181818181818,48,1,39,DL_warm_Guitar,6,11,DL_warm_Guitar,0.9990229606628418,1
68,100,0.17727272727272728,206,0,39,DL_warm_Guitar,6,3,DL_warm_Guitar,0.3666298985481262,0
58,100,0.6409090909090909,668,1,39,DL_warm_Guitar,6,10,DL_warm_Guitar,0.45328742265701294,0
58,100,0.4590909090909091,0,1,40,DL_warm_Guitar,6,7,DL_warm_Guitar,0.9988419413566589,1
58,100,0.3,383,1,40,DL_warm_Guitar,6,5,DL_warm_Guitar,0.1372448205947876,0
70,100,0.1590909090909091,448,0,40,DL_warm_Guitar,6,3,DL_warm_Guitar,0.1597767472267151,0
58,100,0.5,483,0,40,DL_warm_Guitar,6,8,DL_warm_Guitar,0.18644656240940094,0
70,100,0.2409090909090909,703,0,40,DL_warm_Guitar,6,4,DL_warm_Guitar,0.258162260055542,0
58,100,0.740909090909091,31,1,41,DL_warm_Guitar,6,12,DL_warm_Guitar,0.9986500144004822,1
70,100,0.22272727272727272,246,0,41,DL_warm_Guitar,6,4,DL_warm_Guitar,0.08780325949192047,0
58,100,0.5,295,0,41,DL_warm_Guitar,6,8,DL_warm_Guitar,0.09181252121925354,0
58,100,0.6590909090909091,435,0,41,DL_warm_Guitar,6,11,DL_warm_Guitar,0.10747784376144409,0
70,100,0.2590909090909091,660,0,41,DL_warm_Guitar,6,4,DL_warm_Guitar,0.12482475489377975,0
58,100,0.8227272727272728,716,0,41,DL_warm_Guitar,6,13,DL_warm_Guitar,0.1790243536233902,0
58,100,0.4,75,1,42,DL_warm_Guitar,6,6,DL_warm_Guitar,0.9990230798721313,1
60,100,0.12272727272727273,224,0,42,DL_warm_Guitar,6,2,DL_warm_Guitar,0.36664387583732605,0
58,100,2.2772727272727273,260,0,42,DL_warm_Guitar,6,15,DL_warm_Guitar,0.4532703459262848,0
58,100,0.2818181818181818,4,1,43,DL_warm_Guitar,6,5,DL_warm_Guitar,0.9983736276626587,1
58,100,0.35909090909090907,83,0,43,DL_warm_Guitar,6,6,DL_warm_Guitar,0.05106143280863762,0
68,100,0.3409090909090909,286,0,43,DL_warm_Guitar,6,5,DL_warm_Guitar,0.04130224138498306,0
60,100,0.5,373,0,43,DL_warm_Guitar,6,8,DL_warm_Guitar,0.03738560155034065,0
58,100,0.21818181818181817,501,0,43,DL_warm_Guitar,6,3,DL_warm_Guitar,0.03832828253507614,0
68,100,0.12272727272727273,664,0,43,DL_warm_Guitar,6,2,DL_warm_Guitar,0.04475022479891777,0
60,100,0.2590909090909091,703,0,43,DL_warm_Guitar,6,4,DL_warm_Guitar,0.055227894335985184,0
58,100,0.6818181818181818,770,0,43,DL_warm_Guitar,6,11,DL_warm_Guitar,0.09026231616735458,0
68,100,0.6,40,1,44,DL_warm_Guitar,6,10,DL_warm_Guitar,0.9983165264129639,1
58,100,0.5409090909090909,716,1,44,DL_warm_Guitar,6,9,DL_warm_Guitar,0.5445594191551208,0
58,100,0.33636363636363636,40,1,45,DL_warm_Guitar,6,5,DL_warm_Guitar,0.9988419413566589,1
58,100,0.18181818181818182,131,0,45,DL_warm_Guitar,6,3,DL_warm_Guitar,0.13724853098392487,0
58,100,0.2409090909090909,276,0,45,DL_warm_Guitar,6,4,DL_warm_Guitar,0.15977780520915985,0
58,100,0.18181818181818182,483,0,45,DL_warm_Guitar,6,3,DL_warm_Guitar,0.18645216524600983,0
58,100,1.8590909090909091,545,0,45,DL_warm_Guitar,6,15,DL_warm_Guitar,0.25815126299858093,0
58,100,1.8,96,1,46,DL_warm_Guitar,6,15,DL_warm_Guitar,0.9990057349205017,1
58,100,0.8,518,1,46,DL_warm_Guitar,6,13,DL_warm_Guitar,0.23121021687984467,0
58,100,0.2,708,0,46,DL_warm_Guitar,6,3,DL_warm_Guitar,0.26592186093330383,0
58,100,0.4590909090909091,848,0,46,DL_warm_Guitar,6,7,DL_warm_Guitar,0.35419002175331116,0
60,100,0.6,171,1,47,DL_warm_Guitar,6,10,DL_warm_Guitar,0.9990057349205017,1
58,100,0.7181818181818181,383,0,47,DL_warm_Guitar,6,11,DL_warm_Guitar,0.23119716346263885,0
58,100,0.6181818181818182,593,0,47,DL_warm_Guitar,6,10,DL_warm_Guitar,0.2659144699573517,0
58,100,0.3181818181818182,813,0,47,DL_warm_Guitar,6,5,DL_warm_Guitar,0.3541947305202484,0
58,100,0.35909090909090907,118,1,48,DL_warm_Guitar,6,6,DL_warm_Guitar,0.9990230798721313,1
60,100,0.22272727272727272,343,0,48,DL_warm_Guitar,6,4,DL_warm_Guitar,0.3666263222694397,0
60,100,0.2818181818181818,708,1,48,DL_warm_Guitar,6,5,DL_warm_Guitar,0.45329567790031433,0
60,100,0.16363636363636364,641,1,49,DL_warm_Guitar,6,3,DL_warm_Guitar,0.9792567491531372,0
60,100,0.42272727272727273,69,1,50,DL_warm_Guitar,6,7,DL_warm_Guitar,0.9990229606628418,1
53,100,0.2590909090909091,176,0,50,DL_warm_Guitar,6,4,DL_warm_Guitar,0.36661794781684875,0
53,100,0.2409090909090909,241,0,50,DL_warm_Guitar,6,4,DL_warm_Guitar,0.4532943367958069,0
58,100,0.41818181818181815,831,1,51,DL_warm_Guitar,6,7,DL_warm_Guitar,0.9792556166648865,0
53,100,0.5181818181818182,426,1,52,DL_warm_Guitar,6,8,DL_warm_Guitar,0.9792563915252686,0
58,100,2.340909090909091,163,1,53,DL_warm_Guitar,6,15,DL_warm_Guitar,0.9983164072036743,1
58,100,0.5590909090909091,845,1,53,DL_warm_Guitar,6,9,DL_warm_Guitar,0.544559121131897,0
58,100,0.5636363636363636,114,1,54,DL_warm_Guitar,6,9,DL_warm_Guitar,0.9983164072036743,1
58,100,5.318181818181818,295,0,54,DL_warm_Guitar,6,15,DL_warm_Guitar,0.5444777607917786,0
60,100,1.8227272727272728,641,1,55,DL_warm_Guitar,6,15,DL_warm_Guitar,0.9792558550834656,0
58,100,0.5181818181818182,171,1,56,DL_warm_Guitar,6,8,DL_warm_Guitar,0.9988419413566589,1
58,100,0.21818181818181817,396,0,56,DL_warm_Guitar,6,3,DL_warm_Guitar,0.137247696518898,0
58,100,1.1181818181818182,448,0,56,DL_warm_Guitar,6,15,DL_warm_Guitar,0.1597748100757599,0
58,100,0.4,703,1,56,DL_warm_Guitar,6,6,DL_warm_Guitar,0.18644477427005768,0
58,100,0.4,871,0,56,DL_warm_Guitar,6,6,DL_warm_Guitar,0.258161723613739,0
58,100,0.3181818181818182,678,1,57,DL_warm_Guitar,6,5,DL_warm_Guitar,0.9983165264129639,1
58,100,0.5,810,0,57,DL_warm_Guitar,6,8,DL_warm_Guitar,0.5445535182952881,0
58,100,0.2,386,1,58,DL_warm_Guitar,6,3,DL_warm_Guitar,0.9990058541297913,1
58,100,0.7,435,0,58,DL_warm_Guitar,6,11,DL_warm_Guitar,0.23120644688606262,0
58,100,0.5181818181818182,625,0,58,DL_warm_Guitar,6,8,DL_warm_Guitar,0.26592496037483215,0
58,100,0.3,839,0,58,DL_warm_Guitar,6,5,DL_warm_Guitar,0.3541927635669708,0
58,100,1.759090909090909,31,1,59,DL_warm_Guitar,6,15,DL_warm_Guitar,0.9990057349205017,1
58,100,0.36363636363636365,444,1,59,DL_warm_Guitar,6,6,DL_warm_Guitar,0.23121801018714905,0
58,100,0.36363636363636365,531,0,59,DL_warm_Guitar,6,6,DL_warm_Guitar,0.26593947410583496,0
58,100,2.459090909090909,638,0,59,DL_warm_Guitar,6,15,DL_warm_Guitar,0.35417571663856506,0
58,100,0.4590909090909091,303,1,60,DL_warm_Guitar,6,7,DL_warm_Guitar,0.9990229606628418,1
58,100,1.1,426,0,60,DL_warm_Guitar,6,15,DL_warm_Guitar,0.3666260540485382,0
60,100,1.3818181818181818,791,1,60,DL_warm_Guitar,6,15,DL_warm_Guitar,0.453286349773407,0
60,100,0.4409090909090909,334,1,61,DL_warm_Guitar,6,7,DL_warm_Guitar,0.9990057349205017,1
58,100,0.6409090909090909,483,0,61,DL_warm_Guitar,6,10,DL_warm_Guitar,0.23120582103729248,0
58,100,0.6409090909090909,638,0,61,DL_warm_Guitar,6,10,DL_warm_Guitar,0.2659173905849457,0
58,100,0.21818181818181817,858,0,61,DL_warm_Guitar,6,3,DL_warm_Guitar,0.3541911542415619,0
60,100,0.6181818181818182,96,1,62,DL_warm_Guitar,6,10,DL_warm_Guitar,0.9984880685806274,1
58,100,0.3409090909090909,246,0,62,DL_warm_Guitar,6,5,DL_warm_Guitar,0.06334537267684937,0
58,100,0.21818181818181817,351,0,62,DL_warm_Guitar,6,3,DL_warm_Guitar,0.05774172022938728,0
58,100,0.4409090909090909,440,0,62,DL_warm_Guitar,6,7,DL_warm_Guitar,0.060202986001968384,0
60,100,0.11818181818181818,703,1,62,DL_warm_Guitar,6,2,DL_warm_Guitar,0.06970146298408508,0
60,100,0.18181818181818182,813,0,62,DL_warm_Guitar,6,3,DL_warm_Guitar,0.08189444988965988,0
58,100,0.8590909090909091,858,0,62,DL_warm_Guitar,6,14,DL_warm_Guitar,0.12401365488767624,0
58,100,0.18181818181818182,92,1,64,DL_warm_Guitar,6,3,DL_warm_Guitar,0.9988419413566589,1
58,100,0.6409090909090909,145,0,64,DL_warm_Guitar,6,10,DL_warm_Guitar,0.13724473118782043,0
58,100,0.6,487,1,64,DL_warm_Guitar,6,10,DL_warm_Guitar,0.1597764641046524,0
70,100,0.1590909090909091,743,1,64,DL_warm_Guitar,6,3,DL_warm_Guitar,0.18644696474075317,0
58,100,0.13636363636363635,787,0,64,DL_warm_Guitar,6,2,DL_warm_Guitar,0.25816473364830017,0
58,100,0.2772727272727273,30,1,65,DL_warm_Guitar,6,4,DL_warm_Guitar,0.9990230798721313,1
58,100,0.2590909090909091,100,0,65,DL_warm_Guitar,6,4,DL_warm_Guitar,0.3666176497936249,0
60,100,0.11818181818181818,787,1,65,DL_warm_Guitar,6,2,DL_warm_Guitar,0.4532949924468994,0
60,100,0.12272727272727273,26,1,66,DL_warm_Guitar,6,2,DL_warm_Guitar,0.9988419413566589,1
60,100,0.2409090909090909,123,0,66,DL_warm_Guitar,6,4,DL_warm_Guitar,0.13724800944328308,0
60,100,1.3636363636363635,179,0,66,DL_warm_Guitar,6,15,DL_warm_Guitar,0.15977606177330017,0
60,100,0.23636363636363636,546,1,66,DL_warm_Guitar,6,4,DL_warm_Guitar,0.18644575774669647,0
60,100,0.7181818181818181,787,1,66,DL_warm_Guitar,6,11,DL_warm_Guitar,0.25816261768341064,0
60,100,0.9409090909090909,79,1,67,DL_warm_Guitar,6,15,DL_warm_Guitar,0.9990229606628418,1
60,100,0.4772727272727273,502,1,67,DL_warm_Guitar,6,8,DL_warm_Guitar,0.3666199743747711,0
60,100,0.3409090909090909,629,0,67,DL_warm_Guitar,6,5,DL_warm_Guitar,0.45329293608665466,0
58,100,0.22272727272727272,26,1,68,DL_warm_Guitar,6,4,DL_warm_Guitar,0.9990229606628418,1
58,100,0.2590909090909091,303,1,68,DL_warm_Guitar,6,4,DL_warm_Guitar,0.36661824584007263,0
58,100,0.22272727272727272,597,1,68,DL_warm_Guitar,6,4,DL_warm_Guitar,0.45329129695892334,0
58,100,0.2409090909090909,255,1,69,DL_warm_Guitar,6,4,DL_warm_Guitar,0.9990230798721313,1
58,100,0.6772727272727272,536,1,69,DL_warm_Guitar,6,11,DL_warm_Guitar,0.3666195273399353,0
58,100,0.5818181818181818,739,0,69,DL_warm_Guitar,6,9,DL_warm_Guitar,0.45329058170318604,0
58,100,0.38181818181818183,440,1,70,DL_warm_Guitar,6,6,DL_warm_Guitar,0.9983166456222534,1
60,100,0.6409090909090909,760,1,70,DL_warm_Guitar,6,10,DL_warm_Guitar,0.544561505317688,0
60,100,0.17727272727272728,172,1,71,DL_warm_Guitar,6,3,DL_warm_Guitar,0.9990057349205017,1
60,100,0.18181818181818182,263,0,71,DL_warm_Guitar,6,3,DL_warm_Guitar,0.23120243847370148,0
60,100,0.9409090909090909,316,0,71,DL_warm_Guitar,6,15,DL_warm_Guitar,0.2659161686897278,0
70,100,0.43636363636363634,523,0,71,DL_warm_Guitar,6,7,DL_warm_Guitar,0.35419535636901855,0
58,100,0.2409090909090909,343,1,73,DL_warm_Guitar,6,4,DL_warm_Guitar,0.9990230798721313,1
58,100,0.7,559,0,73,DL_warm_Guitar,6,11,DL_warm_Guitar,0.3666151165962219,0
58,100,0.740909090909091,729,0,73,DL_warm_Guitar,6,12,DL_warm_Guitar,0.453291654586792,0
58,100,0.13636363636363635,83,1,74,DL_warm_Guitar,6,2,DL_warm_Guitar,0.9988419413566589,1
58,100,1.518181818181818,140,0,74,DL_warm_Guitar,6,15,DL_warm_Guitar,0.13724477589130402,0
58,100,1.1181818181818182,502,1,74,DL_warm_Guitar,6,15,DL_warm_Guitar,0.15977394580841064,0
70,100,0.11818181818181818,792,1,74,DL_warm_Guitar,6,2,DL_warm_Guitar,0.18644876778125763,0
58,100,0.8636363636363636,817,0,74,DL_warm_Guitar,6,14,DL_warm_Guitar,0.25815349817276,0
58,100,0.21818181818181817,132,1,75,DL_warm_Guitar,6,3,DL_warm_Guitar,0.9990057349205017,1
58,100,0.7636363636363637,487,1,75,DL_warm_Guitar,6,12,DL_warm_Guitar,0.23120872676372528,0
58,100,0.2409090909090909,660,0,75,DL_warm_Guitar,6,4,DL_warm_Guitar,0.26593056321144104,0
58,100,1.3636363636363635,752,0,75,DL_warm_Guitar,6,15,DL_warm_Guitar,0.3541792035102844,0
70,100,0.17727272727272728,172,1,76,DL_warm_Guitar,6,3,DL_warm_Guitar,0.9984880685806274,1
58,100,0.41818181818181815,347,0,76,DL_warm_Guitar,6,7,DL_warm_Guitar,0.06334373354911804,0
60,100,0.37727272727272726,470,0,76,DL_warm_Guitar,6,6,DL_warm_Guitar,0.05774063989520073,0
70,100,0.11818181818181818,593,0,76,DL_warm_Guitar,6,2,DL_warm_Guitar,0.060199614614248276,0
58,100,0.33636363636363636,633,0,76,DL_warm_Guitar,6,5,DL_warm_Guitar,0.0697004571557045,0
58,100,0.2,783,0,76,DL_warm_Guitar,6,3,DL_warm_Guitar,0.08188915252685547,0
60,100,0.11818181818181818,853,0,76,DL_warm_Guitar,6,2,DL_warm_Guitar,0.12401959300041199,0
58,100,0.759090909090909,172,1,77,DL_warm_Guitar,6,12,DL_warm_Guitar,0.9988419413566589,1
58,100,0.9,386,0,77,DL_warm_Guitar,6,14,DL_warm_Guitar,0.13724669814109802,0
58,100,0.2818181818181818,593,0,77,DL_warm_Guitar,6,5,DL_warm_Guitar,0.15977507829666138,0
60,100,0.5,743,0,77,DL_warm_Guitar,6,8,DL_warm_Guitar,0.18644806742668152,0
58,100,0.6181818181818182,866,0,77,DL_warm_Guitar,6,10,DL_warm_Guitar,0.25816425681114197,0
58,100,0.5409090909090909,136,1,78,DL_warm_Guitar,6,9,DL_warm_Guitar,0.9988419413566589,1
58,100,0.11818181818181818,316,0,78,DL_warm_Guitar,6,2,DL_warm_Guitar,0.1372477114200592,0
58,100,1.018181818181818,396,0,78,DL_warm_Guitar,6,15,DL_warm_Guitar,0.1597723364830017,0
70,100,0.36363636363636365,619,0,78,DL_warm_Guitar,6,6,DL_warm_Guitar,0.18644100427627563,0
58,100,0.37727272727272726,766,0,78,DL_warm_Guitar,6,6,DL_warm_Guitar,0.25815773010253906,0
70,100,0.18181818181818182,176,1,79,DL_warm_Guitar,6,3,DL_warm_Guitar,0.9983165264129639,1
58,100,1.240909090909091,220,0,79,DL_warm_Guitar,6,15,DL_warm_Guitar,0.5445555448532104,0
58,100,0.2409090909090909,119,1,80,DL_warm_Guitar,6,4,DL_warm_Guitar,0.9990057349205017,1
58,100,0.11818181818181818,220,0,80,DL_warm_Guitar,6,2,DL_warm_Guitar,0.23120398819446564,0
58,100,0.32272727272727275,707,1,80,DL_warm_Guitar,6,5,DL_warm_Guitar,0.2659202218055725,0
58,100,0.8818181818181818,783,0,80,DL_warm_Guitar,6,14,DL_warm_Guitar,0.35418465733528137,0
70,100,0.37727272727272726,184,1,81,DL_warm_Guitar,6,6,DL_warm_Guitar,0.9986500144004822,1
58,100,0.5409090909090909,396,0,81,DL_warm_Guitar,6,9,DL_warm_Guitar,0.08780113607645035,0
60,100,0.2772727272727273,536,0,81,DL_warm_Guitar,6,4,DL_warm_Guitar,0.09181348234415054,0
70,100,0.2772727272727273,612,0,81,DL_warm_Guitar,6,4,DL_warm_Guitar,0.1074741780757904,0
58,100,0.6227272727272727,673,0,81,DL_warm_Guitar,6,10,DL_warm_Guitar,0.12482073158025742,0
60,100,0.6590909090909091,813,0,81,DL_warm_Guitar,6,11,DL_warm_Guitar,0.17903035879135132,0
58,100,0.2409090909090909,206,1,82,DL_warm_Guitar,6,4,DL_warm_Guitar,0.9990057349205017,1
63,100,0.18181818181818182,453,1,82,DL_warm_Guitar,6,3,DL_warm_Guitar,0.23120613396167755,0
63,100,0.1,496,0,82,DL_warm_Guitar,6,2,DL_warm_Guitar,0.26592424511909485,0
63,100,0.4,619,0,82,DL_warm_Guitar,6,6,DL_warm_Guitar,0.3541962504386902,0
58,100,0.11818181818181818,40,1,83,DL_warm_Guitar,6,2,DL_warm_Guitar,0.9990230798721313,1
58,100,0.11818181818181818,83,0,83,DL_warm_Guitar,6,2,DL_warm_Guitar,0.3666232228279114,0
58,100,0.5636363636363636,113,0,83,DL_warm_Guitar,6,9,DL_warm_Guitar,0.4532892405986786,0
52,100,1.290909090909091,610,1,13,DL_deepemotion_Guitar_1,6,15,DL_deepemotion_Guitar_1,0.9792563915252686,1
62,100,0.20909090909090908,764,1,15,DL_deepemotion_Guitar_1,6,3,DL_deepemotion_Guitar_1,0.9792554974555969,0
62,100,0.4772727272727273,37,1,16,DL_deepemotion_Guitar_1,6,8,DL_deepemotion_Guitar_1,0.9792563915252686,0
62,100,0.4590909090909091,715,1,17,DL_deepemotion_Guitar_1,6,7,DL_deepemotion_Guitar_1,0.9983165264129639,1
62,100,0.37727272727272726,834,0,17,DL_deepemotion_Guitar_1,6,6,DL_deepemotion_Guitar_1,0.5445640087127686,0
57,100,0.9181818181818182,270,1,19,DL_deepemotion_Guitar_1,6,15,DL_deepemotion_Guitar_1,0.9983165264129639,1
52,100,2.3363636363636364,655,1,19,DL_deepemotion_Guitar_1,6,15,DL_deepemotion_Guitar_1,0.5445528626441956,0
62,100,0.5181818181818182,288,1,20,DL_deepemotion_Guitar_1,6,8,DL_deepemotion_Guitar_1,0.9990229606628418,1
62,100,0.20909090909090908,416,0,20,DL_deepemotion_Guitar_1,6,3,DL_deepemotion_Guitar_1,0.36662721633911133,0
52,100,0.33181818181818185,540,0,20,DL_deepemotion_Guitar_1,6,5,DL_deepemotion_Guitar_1,0.4533033072948456,0
58,100,0.7318181818181818,292,1,21,DL_deepemotion_Guitar_1,6,12,DL_deepemotion_Guitar_1,0.9983165264129639,1
58,100,0.5227272727272727,536,1,21,DL_deepemotion_Guitar_1,6,8,DL_deepemotion_Guitar_1,0.5445568561553955,0
57,100,0.16818181818181818,110,1,22,DL_deepemotion_Guitar_1,6,3,DL_deepemotion_Guitar_1,0.9990230798721313,1
57,100,0.16818181818181818,361,1,22,DL_deepemotion_Guitar_1,6,3,DL_deepemotion_Guitar_1,0.3666212260723114,0
66,100,0.2681818181818182,815,1,22,DL_deepemotion_Guitar_1,6,4,DL_deepemotion_Guitar_1,0.45328810811042786,0
66,100,0.14545454545454545,9,1,23,DL_deepemotion_Guitar_1,6,2,DL_deepemotion_Guitar_1,0.9990229606628418,1
64,100,0.14545454545454545,261,1,23,DL_deepemotion_Guitar_1,6,2,DL_deepemotion_Guitar_1,0.3666263222694397,0
62,100,0.41363636363636364,797,1,23,DL_deepemotion_Guitar_1,6,7,DL_deepemotion_Guitar_1,0.4532940089702606,0
62,100,0.12272727272727273,188,1,24,DL_deepemotion_Guitar_1,6,2,DL_deepemotion_Guitar_1,0.9983165264129639,1
57,100,0.20909090909090908,361,0,24,DL_deepemotion_Guitar_1,6,3,DL_deepemotion_Guitar_1,0.5445610284805298,0
61,100,0.31363636363636366,518,1,25,DL_deepemotion_Guitar_1,6,5,DL_deepemotion_Guitar_1,0.9990229606628418,1
61,100,0.75,642,0,25,DL_deepemotion_Guitar_1,6,12,DL_deepemotion_Guitar_1,0.36662405729293823,0
61,100,0.37727272727272726,820,0,25,DL_deepemotion_Guitar_1,6,6,DL_deepemotion_Guitar_1,0.453291654586792,0
61,100,0.2681818181818182,279,1,26,DL_deepemotion_Guitar_1,6,4,DL_deepemotion_Guitar_1,0.9983164072036743,1
61,100,1.0,536,1,26,DL_deepemotion_Guitar_1,6,15,DL_deepemotion_Guitar_1,0.5445539951324463,0
66,100,0.2727272727272727,251,1,27,DL_deepemotion_Guitar_1,6,4,DL_deepemotion_Guitar_1,0.9983165264129639,1
66,100,0.4818181818181818,435,0,27,DL_deepemotion_Guitar_1,6,8,DL_deepemotion_Guitar_1,0.5445570349693298,0
57,100,0.16363636363636364,114,1,28,DL_deepemotion_Guitar_1,6,3,DL_deepemotion_Guitar_1,0.9990229606628418,1
66,100,0.4590909090909091,265,0,28,DL_deepemotion_Guitar_1,6,7,DL_deepemotion_Guitar_1,0.3666270673274994,0
57,100,0.16818181818181818,559,1,28,DL_deepemotion_Guitar_1,6,3,DL_deepemotion_Guitar_1,0.45329058170318604,0
57,100,0.25,224,1,29,DL_deepemotion_Guitar_1,6,4,DL_deepemotion_Guitar_1,0.9988419413566589,1
64,100,0.5,306,0,29,DL_deepemotion_Guitar_1,6,8,DL_deepemotion_Guitar_1,0.13724957406520844,0
64,100,0.25,444,0,29,DL_deepemotion_Guitar_1,6,4,DL_deepemotion_Guitar_1,0.15978477895259857,0
64,100,0.12272727272727273,532,0,29,DL_deepemotion_Guitar_1,6,2,DL_deepemotion_Guitar_1,0.18646033108234406,0
61,100,1.0,669,0,29,DL_deepemotion_Guitar_1,6,15,DL_deepemotion_Guitar_1,0.2581724524497986,0
57,100,0.41818181818181815,133,1,30,DL_deepemotion_Guitar_1,6,7,DL_deepemotion_Guitar_1,0.9986500144004822,1
57,100,0.12272727272727273,233,0,30,DL_deepemotion_Guitar_1,6,2,DL_deepemotion_Guitar_1,0.08780457079410553,0
64,100,0.16818181818181818,306,0,30,DL_deepemotion_Guitar_1,6,3,DL_deepemotion_Guitar_1,0.09181775897741318,0
57,100,0.16363636363636364,595,1,30,DL_deepemotion_Guitar_1,6,3,DL_deepemotion_Guitar_1,0.10748369246721268,0
61,100,0.10454545454545454,715,0,30,DL_deepemotion_Guitar_1,6,2,DL_deepemotion_Guitar_1,0.12483347952365875,0
57,100,0.39545454545454545,746,0,30,DL_deepemotion_Guitar_1,6,6,DL_deepemotion_Guitar_1,0.17904575169086456,0
62,100,0.5636363636363636,41,1,31,DL_deepemotion_Guitar_1,6,9,DL_deepemotion_Guitar_1,0.9986500144004822,1
62,100,0.14545454545454545,206,0,31,DL_deepemotion_Guitar_1,6,2,DL_deepemotion_Guitar_1,0.08780678361654282,0
62,100,1.0,243,0,31,DL_deepemotion_Guitar_1,6,15,DL_deepemotion_Guitar_1,0.09181703627109528,0
54,100,0.3090909090909091,609,1,31,DL_deepemotion_Guitar_1,6,5,DL_deepemotion_Guitar_1,0.10748513787984848,0
62,100,0.20909090909090908,715,0,31,DL_deepemotion_Guitar_1,6,3,DL_deepemotion_Guitar_1,0.1248338520526886,0
62,100,0.41818181818181815,765,0,31,DL_deepemotion_Guitar_1,6,7,DL_deepemotion_Guitar_1,0.17904698848724365,0
62,100,0.39545454545454545,256,1,32,DL_deepemotion_Guitar_1,6,6,DL_deepemotion_Guitar_1,0.9983736276626587,1
62,100,0.22727272727272727,357,0,32,DL_deepemotion_Guitar_1,6,4,DL_deepemotion_Guitar_1,0.051062215119600296,0
62,100,0.15,412,0,32,DL_deepemotion_Guitar_1,6,2,DL_deepemotion_Guitar_1,0.04130437597632408,0
62,100,0.18636363636363637,467,0,32,DL_deepemotion_Guitar_1,6,3,DL_deepemotion_Guitar_1,0.037388499826192856,0
57,100,0.43636363636363634,531,0,32,DL_deepemotion_Guitar_1,6,7,DL_deepemotion_Guitar_1,0.03833429515361786,0
62,100,0.37727272727272726,632,0,32,DL_deepemotion_Guitar_1,6,6,DL_deepemotion_Guitar_1,0.044757451862096786,0
57,100,0.20909090909090908,733,0,32,DL_deepemotion_Guitar_1,6,3,DL_deepemotion_Guitar_1,0.05523709952831268,0
62,100,0.2727272727272727,811,0,32,DL_deepemotion_Guitar_1,6,4,DL_deepemotion_Guitar_1,0.09027352929115295,0
62,100,1.1045454545454545,18,1,33,DL_deepemotion_Guitar_1,6,15,DL_deepemotion_Guitar_1,0.9990229606628418,1
62,100,0.10454545454545454,266,1,33,DL_deepemotion_Guitar_1,6,2,DL_deepemotion_Guitar_1,0.3666307330131531,0
62,100,0.8363636363636363,293,0,33,DL_deepemotion_Guitar_1,6,13,DL_deepemotion_Guitar_1,0.45330139994621277,0
62,100,0.12272727272727273,22,1,34,DL_deepemotion_Guitar_1,6,2,DL_deepemotion_Guitar_1,0.9990057349205017,1
57,100,1.3727272727272728,156,0,34,DL_deepemotion_Guitar_1,6,15,DL_deepemotion_Guitar_1,0.23120899498462677,0
57,100,0.5,544,1,34,DL_deepemotion_Guitar_1,6,8,DL_deepemotion_Guitar_1,0.26593831181526184,0
57,100,1.0227272727272727,660,0,34,DL_deepemotion_Guitar_1,6,15,DL_deepemotion_Guitar_1,0.35419851541519165,0
57,100,0.2681818181818182,27,1,35,DL_deepemotion_Guitar_1,6,4,DL_deepemotion_Guitar_1,0.9990229606628418,1
62,100,0.7090909090909091,288,1,35,DL_deepemotion_Guitar_1,6,11,DL_deepemotion_Guitar_1,0.36663302779197693,0
62,100,0.20909090909090908,448,0,35,DL_deepemotion_Guitar_1,6,3,DL_deepemotion_Guitar_1,0.4533042907714844,0
57,100,0.22727272727272727,385,1,36,DL_deepemotion_Guitar_1,6,4,DL_deepemotion_Guitar_1,0.9990229606628418,1
62,100,0.2318181818181818,544,0,36,DL_deepemotion_Guitar_1,6,4,DL_deepemotion_Guitar_1,0.3666318356990814,0
62,100,0.29545454545454547,852,1,36,DL_deepemotion_Guitar_1,6,5,DL_deepemotion_Guitar_1,0.4533010423183441,0
62,100,0.12272727272727273,55,1,37,DL_deepemotion_Guitar_1,6,2,DL_deepemotion_Guitar_1,0.9982553124427795,1
62,100,0.14545454545454545,87,0,37,DL_deepemotion_Guitar_1,6,2,DL_deepemotion_Guitar_1,0.04128802567720413,0
64,100,0.14545454545454545,266,0,37,DL_deepemotion_Guitar_1,6,2,DL_deepemotion_Guitar_1,0.028936410322785378,0
57,100,0.31363636363636366,352,0,37,DL_deepemotion_Guitar_1,6,5,DL_deepemotion_Guitar_1,0.02128921076655388,0
57,100,0.25,558,0,37,DL_deepemotion_Guitar_1,6,4,DL_deepemotion_Guitar_1,0.01674680784344673,0
57,100,0.16818181818181818,623,0,37,DL_deepemotion_Guitar_1,6,3,DL_deepemotion_Guitar_1,0.01491971593350172,0
57,100,0.2318181818181818,668,0,37,DL_deepemotion_Guitar_1,6,4,DL_deepemotion_Guitar_1,0.01601742021739483,0
57,100,0.2318181818181818,733,0,37,DL_deepemotion_Guitar_1,6,4,DL_deepemotion_Guitar_1,0.021181628108024597,0
64,100,0.12727272727272726,788,0,37,DL_deepemotion_Guitar_1,6,2,DL_deepemotion_Guitar_1,0.0315694622695446,0
57,100,1.290909090909091,866,0,37,DL_deepemotion_Guitar_1,6,15,DL_deepemotion_Guitar_1,0.060059379786252975,0
64,100,0.5636363636363636,269,1,38,DL_deepemotion_Guitar_1,6,9,DL_deepemotion_Guitar_1,0.9983165264129639,1
64,100,0.4772727272727273,706,1,38,DL_deepemotion_Guitar_1,6,8,DL_deepemotion_Guitar_1,0.5445566773414612,0
62,100,0.14545454545454545,8,1,39,DL_deepemotion_Guitar_1,6,2,DL_deepemotion_Guitar_1,0.9990057349205017,1
59,100,0.20909090909090908,311,1,39,DL_deepemotion_Guitar_1,6,3,DL_deepemotion_Guitar_1,0.2312101572751999,0
62,100,0.8318181818181818,495,0,39,DL_deepemotion_Guitar_1,6,13,DL_deepemotion_Guitar_1,0.26592668890953064,0
57,100,0.31363636363636366,833,1,39,DL_deepemotion_Guitar_1,6,5,DL_deepemotion_Guitar_1,0.35420677065849304,0
62,100,0.2681818181818182,101,1,40,DL_deepemotion_Guitar_1,6,4,DL_deepemotion_Guitar_1,0.9986500144004822,1
57,100,0.16818181818181818,165,0,40,DL_deepemotion_Guitar_1,6,3,DL_deepemotion_Guitar_1,0.08780625462532043,0
62,100,0.8136363636363636,293,0,40,DL_deepemotion_Guitar_1,6,13,DL_deepemotion_Guitar_1,0.09181857854127884,0
57,100,0.5818181818181818,476,0,40,DL_deepemotion_Guitar_1,6,9,DL_deepemotion_Guitar_1,0.10748276114463806,0
57,100,0.25,627,0,40,DL_deepemotion_Guitar_1,6,4,DL_deepemotion_Guitar_1,0.12483685463666916,0
57,100,0.2727272727272727,733,0,40,DL_deepemotion_Guitar_1,6,4,DL_deepemotion_Guitar_1,0.1790490597486496,0
57,100,0.31363636363636366,41,1,41,DL_deepemotion_Guitar_1,6,5,DL_deepemotion_Guitar_1,0.9986500144004822,1
57,100,0.2727272727272727,118,0,41,DL_deepemotion_Guitar_1,6,4,DL_deepemotion_Guitar_1,0.08780492097139359,0
59,100,1.3772727272727272,197,0,41,DL_deepemotion_Guitar_1,6,15,DL_deepemotion_Guitar_1,0.09181567281484604,0
59,100,0.33181818181818185,627,1,41,DL_deepemotion_Guitar_1,6,5,DL_deepemotion_Guitar_1,0.10748188942670822,0
64,100,0.2909090909090909,723,0,41,DL_deepemotion_Guitar_1,6,5,DL_deepemotion_Guitar_1,0.1248285174369812,0
64,100,0.2909090909090909,806,0,41,DL_deepemotion_Guitar_1,6,5,DL_deepemotion_Guitar_1,0.17904409766197205,0
59,100,0.12727272727272726,18,1,42,DL_deepemotion_Guitar_1,6,2,DL_deepemotion_Guitar_1,0.9983736276626587,1
52,100,0.2909090909090909,63,0,42,DL_deepemotion_Guitar_1,6,5,DL_deepemotion_Guitar_1,0.051060304045677185,0
62,100,0.12727272727272726,159,0,42,DL_deepemotion_Guitar_1,6,2,DL_deepemotion_Guitar_1,0.0413043387234211,0
57,100,0.2727272727272727,220,0,42,DL_deepemotion_Guitar_1,6,4,DL_deepemotion_Guitar_1,0.037387628108263016,0
57,100,0.6681818181818182,283,0,42,DL_deepemotion_Guitar_1,6,11,DL_deepemotion_Guitar_1,0.03833131492137909,0
57,100,0.43636363636363634,582,1,42,DL_deepemotion_Guitar_1,6,7,DL_deepemotion_Guitar_1,0.04475510120391846,0
57,100,0.39545454545454545,706,0,42,DL_deepemotion_Guitar_1,6,6,DL_deepemotion_Guitar_1,0.05523380637168884,0
57,100,0.25,838,0,42,DL_deepemotion_Guitar_1,6,4,DL_deepemotion_Guitar_1,0.09026994556188583,0
57,100,0.18636363636363637,101,1,43,DL_deepemotion_Guitar_1,6,3,DL_deepemotion_Guitar_1,0.9983165264129639,1
66,100,0.41818181818181815,214,0,43,DL_deepemotion_Guitar_1,6,7,DL_deepemotion_Guitar_1,0.5445565581321716,0
62,100,0.12727272727272726,214,1,44,DL_deepemotion_Guitar_1,6,2,DL_deepemotion_Guitar_1,0.9988419413566589,1
57,100,0.4772727272727273,242,0,44,DL_deepemotion_Guitar_1,6,8,DL_deepemotion_Guitar_1,0.13724912703037262,0
62,100,0.1,500,1,44,DL_deepemotion_Guitar_1,6,2,DL_deepemotion_Guitar_1,0.15978531539440155,0
62,100,0.10454545454545454,527,0,44,DL_deepemotion_Guitar_1,6,2,DL_deepemotion_Guitar_1,0.18645276129245758,0
62,100,0.25,816,1,44,DL_deepemotion_Guitar_1,6,4,DL_deepemotion_Guitar_1,0.25818124413490295,0
62,100,0.12272727272727273,146,1,45,DL_deepemotion_Guitar_1,6,2,DL_deepemotion_Guitar_1,0.9984880685806274,1
57,100,0.25,178,0,45,DL_deepemotion_Guitar_1,6,4,DL_deepemotion_Guitar_1,0.06334672123193741,0
62,100,0.9818181818181818,238,0,45,DL_deepemotion_Guitar_1,6,15,DL_deepemotion_Guitar_1,0.057744525372982025,0
66,100,0.20909090909090908,558,1,45,DL_deepemotion_Guitar_1,6,3,DL_deepemotion_Guitar_1,0.06020557880401611,0
66,100,0.20909090909090908,637,0,45,DL_deepemotion_Guitar_1,6,3,DL_deepemotion_Guitar_1,0.0697055384516716,0
66,100,0.16818181818181818,733,0,45,DL_deepemotion_Guitar_1,6,3,DL_deepemotion_Guitar_1,0.08190004527568817,0
62,100,0.5636363636363636,816,0,45,DL_deepemotion_Guitar_1,6,9,DL_deepemotion_Guitar_1,0.12402414530515671,0
57,100,0.35454545454545455,142,1,46,DL_deepemotion_Guitar_1,6,6,DL_deepemotion_Guitar_1,0.9988419413566589,1
57,100,0.25,269,0,46,DL_deepemotion_Guitar_1,6,4,DL_deepemotion_Guitar_1,0.1372538059949875,0
59,100,0.29545454545454547,434,0,46,DL_deepemotion_Guitar_1,6,5,DL_deepemotion_Guitar_1,0.15978270769119263,0
57,100,0.33636363636363636,503,0,46,DL_deepemotion_Guitar_1,6,5,DL_deepemotion_Guitar_1,0.18645858764648438,0
57,100,0.7318181818181818,723,0,46,DL_deepemotion_Guitar_1,6,12,DL_deepemotion_Guitar_1,0.25816771388053894,0
59,100,0.14545454545454545,701,1,47,DL_deepemotion_Guitar_1,6,2,DL_deepemotion_Guitar_1,0.9983165264129639,1
52,100,0.20909090909090908,747,0,47,DL_deepemotion_Guitar_1,6,3,DL_deepemotion_Guitar_1,0.5445562601089478,0
62,100,0.33181818181818185,220,1,48,DL_deepemotion_Guitar_1,6,5,DL_deepemotion_Guitar_1,0.9990229606628418,1
57,100,0.33181818181818185,531,1,48,DL_deepemotion_Guitar_1,6,5,DL_deepemotion_Guitar_1,0.36663028597831726,0
66,100,0.4590909090909091,756,0,48,DL_deepemotion_Guitar_1,6,7,DL_deepemotion_Guitar_1,0.4533033072948456,0
57,100,0.20454545454545456,555,1,49,DL_deepemotion_Guitar_1,6,3,DL_deepemotion_Guitar_1,0.9983165264129639,1
59,100,0.16363636363636364,861,1,49,DL_deepemotion_Guitar_1,6,3,DL_deepemotion_Guitar_1,0.5445597767829895,0
57,100,1.9136363636363636,115,1,50,DL_deepemotion_Guitar_1,6,15,DL_deepemotion_Guitar_1,0.9983164072036743,1
52,100,0.9772727272727273,792,1,50,DL_deepemotion_Guitar_1,6,15,DL_deepemotion_Guitar_1,0.544564425945282,0
66,100,0.22727272727272727,357,1,51,DL_deepemotion_Guitar_1,6,4,DL_deepemotion_Guitar_1,0.9792569875717163,0
57,100,0.10454545454545454,362,1,52,DL_deepemotion_Guitar_1,6,2,DL_deepemotion_Guitar_1,0.9990229606628418,1
62,100,0.5454545454545454,489,0,52,DL_deepemotion_Guitar_1,6,9,DL_deepemotion_Guitar_1,0.36662670969963074,0
62,100,0.35454545454545455,737,1,52,DL_deepemotion_Guitar_1,6,6,DL_deepemotion_Guitar_1,0.45330262184143066,0
62,100,0.16818181818181818,128,1,53,DL_deepemotion_Guitar_1,6,3,DL_deepemotion_Guitar_1,0.9984880685806274,1
62,100,0.12272727272727273,288,0,53,DL_deepemotion_Guitar_1,6,2,DL_deepemotion_Guitar_1,0.06334672123193741,0
62,100,0.2727272727272727,330,0,53,DL_deepemotion_Guitar_1,6,4,DL_deepemotion_Guitar_1,0.05774468928575516,0
54,100,0.39545454545454545,407,0,53,DL_deepemotion_Guitar_1,6,6,DL_deepemotion_Guitar_1,0.06020595133304596,0
54,100,0.1,500,0,53,DL_deepemotion_Guitar_1,6,2,DL_deepemotion_Guitar_1,0.06970833986997604,0
66,100,0.20909090909090908,701,0,53,DL_deepemotion_Guitar_1,6,3,DL_deepemotion_Guitar_1,0.08189856261014938,0
69,100,0.29545454545454547,764,0,53,DL_deepemotion_Guitar_1,6,5,DL_deepemotion_Guitar_1,0.12402534484863281,0
57,100,0.18636363636363637,187,1,54,DL_deepemotion_Guitar_1,6,3,DL_deepemotion_Guitar_1,0.9990057349205017,1
62,100,0.18636363636363637,673,1,54,DL_deepemotion_Guitar_1,6,3,DL_deepemotion_Guitar_1,0.2312132716178894,0
57,100,0.25,783,0,54,DL_deepemotion_Guitar_1,6,4,DL_deepemotion_Guitar_1,0.2659304738044739,0
57,100,1.0,852,0,54,DL_deepemotion_Guitar_1,6,15,DL_deepemotion_Guitar_1,0.354206383228302,0
57,100,0.9545454545454546,201,1,55,DL_deepemotion_Guitar_1,6,15,DL_deepemotion_Guitar_1,0.9990229606628418,1
57,100,0.14545454545454545,421,0,55,DL_deepemotion_Guitar_1,6,2,DL_deepemotion_Guitar_1,0.3666258752346039,0
57,100,0.18636363636363637,462,0,55,DL_deepemotion_Guitar_1,6,3,DL_deepemotion_Guitar_1,0.4532930254936218,0
69,100,0.2727272727272727,489,1,57,DL_deepemotion_Guitar_1,6,4,DL_deepemotion_Guitar_1,0.9990229606628418,1
59,100,0.33181818181818185,618,0,57,DL_deepemotion_Guitar_1,6,5,DL_deepemotion_Guitar_1,0.36662963032722473,0
62,100,0.2681818181818182,783,0,57,DL_deepemotion_Guitar_1,6,4,DL_deepemotion_Guitar_1,0.4532923400402069,0
62,100,0.14545454545454545,641,1,58,DL_deepemotion_Guitar_1,6,2,DL_deepemotion_Guitar_1,0.9990229606628418,1
62,100,0.20909090909090908,728,0,58,DL_deepemotion_Guitar_1,6,3,DL_deepemotion_Guitar_1,0.3666266202926636,0
62,100,0.20909090909090908,843,0,58,DL_deepemotion_Guitar_1,6,3,DL_deepemotion_Guitar_1,0.45329928398132324,0
62,100,0.2681818181818182,115,1,59,DL_deepemotion_Guitar_1,6,4,DL_deepemotion_Guitar_1,0.9983165264129639,1
62,100,0.2727272727272727,183,0,59,DL_deepemotion_Guitar_1,6,4,DL_deepemotion_Guitar_1,0.544564962387085,0
57,100,0.8954545454545455,555,1,63,DL_deepemotion_Guitar_1,6,14,DL_deepemotion_Guitar_1,0.9990229606628418,1
57,100,0.16818181818181818,764,0,63,DL_deepemotion_Guitar_1,6,3,DL_deepemotion_Guitar_1,0.36664271354675293,0
57,100,0.5454545454545454,819,0,63,DL_deepemotion_Guitar_1,6,9,DL_deepemotion_Guitar_1,0.45327895879745483,0
57,100,0.20909090909090908,100,1,64,DL_deepemotion_Guitar_1,6,3,DL_deepemotion_Guitar_1,0.9986500144004822,1
57,100,1.209090909090909,151,0,64,DL_deepemotion_Guitar_1,6,15,DL_deepemotion_Guitar_1,0.08780281245708466,0
57,100,0.35454545454545455,550,1,64,DL_deepemotion_Guitar_1,6,6,DL_deepemotion_Guitar_1,0.09181439876556396,0
57,100,0.2727272727272727,655,0,64,DL_deepemotion_Guitar_1,6,4,DL_deepemotion_Guitar_1,0.10747982561588287,0
57,100,0.31363636363636366,732,0,64,DL_deepemotion_Guitar_1,6,5,DL_deepemotion_Guitar_1,0.12482500821352005,0
57,100,0.4590909090909091,834,0,64,DL_deepemotion_Guitar_1,6,7,DL_deepemotion_Guitar_1,0.179032564163208,0
62,100,0.39545454545454545,68,1,65,DL_deepemotion_Guitar_1,6,6,DL_deepemotion_Guitar_1,0.9984880685806274,1
57,100,0.6227272727272727,210,0,65,DL_deepemotion_Guitar_1,6,10,DL_deepemotion_Guitar_1,0.06334783881902695,0
57,100,0.20909090909090908,375,0,65,DL_deepemotion_Guitar_1,6,3,DL_deepemotion_Guitar_1,0.057744547724723816,0
52,100,0.18636363636363637,440,0,65,DL_deepemotion_Guitar_1,6,3,DL_deepemotion_Guitar_1,0.06020773574709892,0
52,100,0.20909090909090908,485,0,65,DL_deepemotion_Guitar_1,6,3,DL_deepemotion_Guitar_1,0.0697081983089447,0
57,100,0.20909090909090908,600,0,65,DL_deepemotion_Guitar_1,6,3,DL_deepemotion_Guitar_1,0.081902876496315,0
57,100,0.75,724,0,65,DL_deepemotion_Guitar_1,6,12,DL_deepemotion_Guitar_1,0.12403035908937454,0
57,100,1.25,13,1,66,DL_deepemotion_Guitar_1,6,15,DL_deepemotion_Guitar_1,0.9990229606628418,1
62,100,0.45454545454545453,499,1,66,DL_deepemotion_Guitar_1,6,7,DL_deepemotion_Guitar_1,0.36663496494293213,0
57,100,0.8136363636363636,618,0,66,DL_deepemotion_Guitar_1,6,13,DL_deepemotion_Guitar_1,0.4532918334007263,0
62,100,0.5227272727272727,9,1,67,DL_deepemotion_Guitar_1,6,8,DL_deepemotion_Guitar_1,0.9986500144004822,1
57,100,0.14545454545454545,174,0,67,DL_deepemotion_Guitar_1,6,2,DL_deepemotion_Guitar_1,0.0878070592880249,0
62,100,0.5409090909090909,210,0,67,DL_deepemotion_Guitar_1,6,9,DL_deepemotion_Guitar_1,0.09182380139827728,0
57,100,0.33636363636363636,347,0,67,DL_deepemotion_Guitar_1,6,5,DL_deepemotion_Guitar_1,0.10748737305402756,0
57,100,0.5636363636363636,471,0,67,DL_deepemotion_Guitar_1,6,9,DL_deepemotion_Guitar_1,0.12484096735715866,0
57,100,1.790909090909091,618,0,67,DL_deepemotion_Guitar_1,6,15,DL_deepemotion_Guitar_1,0.17904509603977203,0
62,100,0.7090909090909091,408,1,68,DL_deepemotion_Guitar_1,6,11,DL_deepemotion_Guitar_1,0.9990057349205017,1
57,100,1.0227272727272727,567,0,68,DL_deepemotion_Guitar_1,6,15,DL_deepemotion_Guitar_1,0.23120644688606262,0
57,100,0.12272727272727273,797,0,68,DL_deepemotion_Guitar_1,6,2,DL_deepemotion_Guitar_1,0.2659294009208679,0
57,100,0.6863636363636364,862,0,68,DL_deepemotion_Guitar_1,6,11,DL_deepemotion_Guitar_1,0.354204922914505,0
62,100,0.39545454545454545,141,1,69,DL_deepemotion_Guitar_1,6,6,DL_deepemotion_Guitar_1,0.9988419413566589,1
62,100,0.9772727272727273,233,0,69,DL_deepemotion_Guitar_1,6,15,DL_deepemotion_Guitar_1,0.13725130259990692,0
62,100,0.20909090909090908,453,0,69,DL_deepemotion_Guitar_1,6,3,DL_deepemotion_Guitar_1,0.15978531539440155,0
57,100,0.10454545454545454,701,1,69,DL_deepemotion_Guitar_1,6,2,DL_deepemotion_Guitar_1,0.18646061420440674,0
62,100,0.7272727272727273,825,0,69,DL_deepemotion_Guitar_1,6,12,DL_deepemotion_Guitar_1,0.2581799328327179,0
62,100,0.12272727272727273,165,1,70,DL_deepemotion_Guitar_1,6,2,DL_deepemotion_Guitar_1,0.9990229606628418,1
62,100,0.33181818181818185,306,0,70,DL_deepemotion_Guitar_1,6,5,DL_deepemotion_Guitar_1,0.3666352331638336,0
62,100,0.9409090909090909,467,0,70,DL_deepemotion_Guitar_1,6,15,DL_deepemotion_Guitar_1,0.45330116152763367,0
59,100,0.5818181818181818,37,1,71,DL_deepemotion_Guitar_1,6,9,DL_deepemotion_Guitar_1,0.9990057349205017,1
62,100,0.7318181818181818,316,1,71,DL_deepemotion_Guitar_1,6,12,DL_deepemotion_Guitar_1,0.23121409118175507,0
62,100,0.31363636363636366,481,0,71,DL_deepemotion_Guitar_1,6,5,DL_deepemotion_Guitar_1,0.2659476101398468,0
62,100,2.331818181818182,783,1,71,DL_deepemotion_Guitar_1,6,15,DL_deepemotion_Guitar_1,0.35419636964797974,0
62,100,0.31363636363636366,430,1,72,DL_deepemotion_Guitar_1,6,5,DL_deepemotion_Guitar_1,0.9990057349205017,1
62,100,0.5227272727272727,522,0,72,DL_deepemotion_Guitar_1,6,8,DL_deepemotion_Guitar_1,0.23121903836727142,0
57,100,0.18636363636363637,636,0,72,DL_deepemotion_Guitar_1,6,3,DL_deepemotion_Guitar_1,0.2659396529197693,0
57,100,0.5818181818181818,697,0,72,DL_deepemotion_Guitar_1,6,9,DL_deepemotion_Guitar_1,0.35420823097229004,0
57,100,0.35454545454545455,41,1,73,DL_deepemotion_Guitar_1,6,6,DL_deepemotion_Guitar_1,0.9986500144004822,1
62,100,0.37272727272727274,422,1,73,DL_deepemotion_Guitar_1,6,6,DL_deepemotion_Guitar_1,0.08780533820390701,0
62,100,0.16818181818181818,526,0,73,DL_deepemotion_Guitar_1,6,3,DL_deepemotion_Guitar_1,0.09181943535804749,0
57,100,0.37272727272727274,573,0,73,DL_deepemotion_Guitar_1,6,6,DL_deepemotion_Guitar_1,0.10748343914747238,0
55,100,0.12272727272727273,719,0,73,DL_deepemotion_Guitar_1,6,2,DL_deepemotion_Guitar_1,0.12483319640159607,0
59,100,0.35454545454545455,815,0,73,DL_deepemotion_Guitar_1,6,6,DL_deepemotion_Guitar_1,0.17903651297092438,0
59,100,0.2909090909090909,68,1,74,DL_deepemotion_Guitar_1,6,5,DL_deepemotion_Guitar_1,0.9988419413566589,1
62,100,0.6454545454545455,292,0,74,DL_deepemotion_Guitar_1,6,10,DL_deepemotion_Guitar_1,0.1372460275888443,0
59,100,0.6681818181818182,435,0,74,DL_deepemotion_Guitar_1,6,11,DL_deepemotion_Guitar_1,0.15977993607521057,0
71,100,0.14545454545454545,614,0,74,DL_deepemotion_Guitar_1,6,2,DL_deepemotion_Guitar_1,0.1864534467458725,0
61,100,0.37727272727272726,655,0,74,DL_deepemotion_Guitar_1,6,6,DL_deepemotion_Guitar_1,0.25816500186920166,0
62,100,0.6681818181818182,86,1,75,DL_deepemotion_Guitar_1,6,11,DL_deepemotion_Guitar_1,0.9990057349205017,1
62,100,1.3545454545454545,302,0,75,DL_deepemotion_Guitar_1,6,15,DL_deepemotion_Guitar_1,0.23120908439159393,0
62,100,0.5181818181818182,642,1,75,DL_deepemotion_Guitar_1,6,8,DL_deepemotion_Guitar_1,0.26594018936157227,0
57,100,0.7954545454545454,765,0,75,DL_deepemotion_Guitar_1,6,13,DL_deepemotion_Guitar_1,0.35421231389045715,0
62,100,1.1863636363636363,64,1,76,DL_deepemotion_Guitar_1,6,15,DL_deepemotion_Guitar_1,0.9990057349205017,1
57,100,0.6272727272727273,325,1,76,DL_deepemotion_Guitar_1,6,10,DL_deepemotion_Guitar_1,0.23120728135108948,0
62,100,0.8954545454545455,554,0,76,DL_deepemotion_Guitar_1,6,14,DL_deepemotion_Guitar_1,0.2659342586994171,0
57,100,1.0,765,0,76,DL_deepemotion_Guitar_1,6,15,DL_deepemotion_Guitar_1,0.354204386472702,0
62,100,0.14545454545454545,110,1,77,DL_deepemotion_Guitar_1,6,2,DL_deepemotion_Guitar_1,0.9984880685806274,1
57,100,0.4818181818181818,160,0,77,DL_deepemotion_Guitar_1,6,8,DL_deepemotion_Guitar_1,0.06334547698497772,0
62,100,0.10454545454545454,265,0,77,DL_deepemotion_Guitar_1,6,2,DL_deepemotion_Guitar_1,0.05774470046162605,0
57,100,0.18636363636363637,361,0,77,DL_deepemotion_Guitar_1,6,3,DL_deepemotion_Guitar_1,0.06020434945821762,0
62,100,0.5818181818181818,416,0,77,DL_deepemotion_Guitar_1,6,9,DL_deepemotion_Guitar_1,0.06970671564340591,0
57,100,0.37727272727272726,559,0,77,DL_deepemotion_Guitar_1,6,6,DL_deepemotion_Guitar_1,0.08189714699983597,0
54,100,0.12272727272727273,797,1,77,DL_deepemotion_Guitar_1,6,2,DL_deepemotion_Guitar_1,0.12402964383363724,0
62,100,0.6045454545454545,147,1,78,DL_deepemotion_Guitar_1,6,10,DL_deepemotion_Guitar_1,0.9990057349205017,1
62,100,0.8318181818181818,389,1,78,DL_deepemotion_Guitar_1,6,13,DL_deepemotion_Guitar_1,0.23121760785579681,0
57,100,0.29545454545454547,742,1,78,DL_deepemotion_Guitar_1,6,5,DL_deepemotion_Guitar_1,0.26593294739723206,0
62,100,1.8545454545454545,852,0,78,DL_deepemotion_Guitar_1,6,15,DL_deepemotion_Guitar_1,0.35420408844947815,0
62,100,0.8363636363636363,402,1,79,DL_deepemotion_Guitar_1,6,13,DL_deepemotion_Guitar_1,0.9990057349205017,1
59,100,0.14545454545454545,669,1,79,DL_deepemotion_Guitar_1,6,2,DL_deepemotion_Guitar_1,0.23121190071105957,0
62,100,0.5227272727272727,710,0,79,DL_deepemotion_Guitar_1,6,8,DL_deepemotion_Guitar_1,0.26593247056007385,0
52,100,1.309090909090909,829,0,79,DL_deepemotion_Guitar_1,6,15,DL_deepemotion_Guitar_1,0.35420528054237366,0
62,100,0.6681818181818182,237,1,80,DL_deepemotion_Guitar_1,6,11,DL_deepemotion_Guitar_1,0.9990057349205017,1
57,100,0.2909090909090909,614,1,80,DL_deepemotion_Guitar_1,6,5,DL_deepemotion_Guitar_1,0.23121128976345062,0
57,100,0.12727272727272726,724,0,80,DL_deepemotion_Guitar_1,6,2,DL_deepemotion_Guitar_1,0.26593467593193054,0
57,100,0.18636363636363637,793,0,80,DL_deepemotion_Guitar_1,6,3,DL_deepemotion_Guitar_1,0.3542068600654602,0
57,100,0.35454545454545455,192,1,81,DL_deepemotion_Guitar_1,6,6,DL_deepemotion_Guitar_1,0.9983165264129639,1
57,100,0.22727272727272727,275,0,81,DL_deepemotion_Guitar_1,6,4,DL_deepemotion_Guitar_1,0.544561505317688,0
57,100,0.14545454545454545,563,1,83,DL_deepemotion_Guitar_1,6,2,DL_deepemotion_Guitar_1,0.9990229606628418,1
57,100,0.20454545454545456,664,0,83,DL_deepemotion_Guitar_1,6,3,DL_deepemotion_Guitar_1,0.3666335940361023,0
57,100,0.10454545454545454,728,0,83,DL_deepemotion_Guitar_1,6,2,DL_deepemotion_Guitar_1,0.45328930020332336,0
64,100,0.6454545454545455,169,1,84,DL_deepemotion_Guitar_1,6,10,DL_deepemotion_Guitar_1,0.9990057349205017,1
57,100,0.33181818181818185,389,0,84,DL_deepemotion_Guitar_1,6,5,DL_deepemotion_Guitar_1,0.2312082201242447,0
64,100,0.6045454545454545,567,0,84,DL_deepemotion_Guitar_1,6,10,DL_deepemotion_Guitar_1,0.265929639339447,0
57,100,0.33636363636363636,701,0,84,DL_deepemotion_Guitar_1,6,5,DL_deepemotion_Guitar_1,0.3542003929615021,0
54,100,0.1,27,1,85,DL_deepemotion_Guitar_1,6,2,DL_deepemotion_Guitar_1,0.9988419413566589,1
62,100,0.18636363636363637,247,0,85,DL_deepemotion_Guitar_1,6,3,DL_deepemotion_Guitar_1,0.13725264370441437,0
62,100,0.12272727272727273,298,0,85,DL_deepemotion_Guitar_1,6,2,DL_deepemotion_Guitar_1,0.1597897708415985,0
62,100,2.331818181818182,334,0,85,DL_deepemotion_Guitar_1,6,15,DL_deepemotion_Guitar_1,0.18645595014095306,0
57,100,0.2727272727272727,848,1,85,DL_deepemotion_Guitar_1,6,4,DL_deepemotion_Guitar_1,0.2581813633441925,0
62,100,0.14545454545454545,68,1,86,DL_deepemotion_Guitar_1,6,2,DL_deepemotion_Guitar_1,0.9990057349205017,1
62,100,1.5,105,0,86,DL_deepemotion_Guitar_1,6,15,DL_deepemotion_Guitar_1,0.23121018707752228,0
62,100,1.2727272727272727,440,1,86,DL_deepemotion_Guitar_1,6,15,DL_deepemotion_Guitar_1,0.26593685150146484,0
62,100,0.2909090909090909,756,1,86,DL_deepemotion_Guitar_1,6,5,DL_deepemotion_Guitar_1,0.35421547293663025,0
62,100,0.12727272727272726,31,1,87,DL_deepemotion_Guitar_1,6,2,DL_deepemotion_Guitar_1,0.9988419413566589,1
52,100,0.8545454545454545,72,0,87,DL_deepemotion_Guitar_1,6,14,DL_deepemotion_Guitar_1,0.137254998087883,0
62,100,1.5636363636363637,306,1,87,DL_deepemotion_Guitar_1,6,15,DL_deepemotion_Guitar_1,0.15978342294692993,0
62,100,0.5636363636363636,746,1,87,DL_deepemotion_Guitar_1,6,9,DL_deepemotion_Guitar_1,0.1864684522151947,0
57,100,0.2727272727272727,875,0,87,DL_deepemotion_Guitar_1,6,4,DL_deepemotion_Guitar_1,0.2581828534603119,0
62,100,0.12272727272727273,78,1,88,DL_deepemotion_Guitar_1,6,2,DL_deepemotion_Guitar_1,0.9988419413566589,1
57,100,0.22727272727272727,243,0,88,DL_deepemotion_Guitar_1,6,4,DL_deepemotion_Guitar_1,0.13725125789642334,0
57,100,0.22727272727272727,312,0,88,DL_deepemotion_Guitar_1,6,4,DL_deepemotion_Guitar_1,0.15978264808654785,0
62,100,0.20454545454545456,367,0,88,DL_deepemotion_Guitar_1,6,3,DL_deepemotion_Guitar_1,0.1864548921585083,0
62,100,0.31363636363636366,467,0,88,DL_deepemotion_Guitar_1,6,5,DL_deepemotion_Guitar_1,0.25817421078681946,0
62,100,0.25,45,1,89,DL_deepemotion_Guitar_1,6,4,DL_deepemotion_Guitar_1,0.9983004927635193,1
59,100,0.12272727272727273,224,0,89,DL_deepemotion_Guitar_1,6,2,DL_deepemotion_Guitar_1,0.04466518387198448,0
59,100,0.5181818181818182,257,0,89,DL_deepemotion_Guitar_1,6,8,DL_deepemotion_Guitar_1,0.033150564879179,0
62,100,0.12727272727272726,380,0,89,DL_deepemotion_Guitar_1,6,2,DL_deepemotion_Guitar_1,0.026581333950161934,0
62,100,1.1272727272727272,449,0,89,DL_deepemotion_Guitar_1,6,15,DL_deepemotion_Guitar_1,0.02359633520245552,0
62,100,0.10454545454545454,701,1,89,DL_deepemotion_Guitar_1,6,2,DL_deepemotion_Guitar_1,0.024316349998116493,0
62,100,0.20909090909090908,728,0,89,DL_deepemotion_Guitar_1,6,3,DL_deepemotion_Guitar_1,0.029692111536860466,0
62,100,0.16818181818181818,801,0,89,DL_deepemotion_Guitar_1,6,3,DL_deepemotion_Guitar_1,0.04007912054657936,0
59,100,0.4590909090909091,838,0,89,DL_deepemotion_Guitar_1,6,7,DL_deepemotion_Guitar_1,0.07093200832605362,0
57,100,0.19090909090909092,105,1,90,DL_deepemotion_Guitar_1,6,3,DL_deepemotion_Guitar_1,0.9986500144004822,1
64,100,0.2681818181818182,202,0,90,DL_deepemotion_Guitar_1,6,4,DL_deepemotion_Guitar_1,0.08780569583177567,0
57,100,0.37727272727272726,325,0,90,DL_deepemotion_Guitar_1,6,6,DL_deepemotion_Guitar_1,0.09181486070156097,0
64,100,1.018181818181818,563,1,90,DL_deepemotion_Guitar_1,6,15,DL_deepemotion_Guitar_1,0.10747885704040527,0
57,100,0.37727272727272726,787,0,90,DL_deepemotion_Guitar_1,6,6,DL_deepemotion_Guitar_1,0.12482839822769165,0
64,100,0.2727272727272727,875,0,90,DL_deepemotion_Guitar_1,6,4,DL_deepemotion_Guitar_1,0.17903566360473633,0
57,100,0.1,59,1,91,DL_deepemotion_Guitar_1,6,2,DL_deepemotion_Guitar_1,0.9990057349205017,1
62,100,0.16818181818181818,416,1,91,DL_deepemotion_Guitar_1,6,3,DL_deepemotion_Guitar_1,0.2312123328447342,0
62,100,0.20909090909090908,618,0,91,DL_deepemotion_Guitar_1,6,3,DL_deepemotion_Guitar_1,0.26593199372291565,0
62,100,0.18636363636363637,669,0,91,DL_deepemotion_Guitar_1,6,3,DL_deepemotion_Guitar_1,0.35421228408813477,0
57,100,0.20909090909090908,23,1,92,DL_deepemotion_Guitar_1,6,3,DL_deepemotion_Guitar_1,0.9983736276626587,1
64,100,1.0863636363636364,151,0,92,DL_deepemotion_Guitar_1,6,15,DL_deepemotion_Guitar_1,0.05106131732463837,0
64,100,0.10454545454545454,394,1,92,DL_deepemotion_Guitar_1,6,2,DL_deepemotion_Guitar_1,0.04130418971180916,0
64,100,0.12727272727272726,426,0,92,DL_deepemotion_Guitar_1,6,2,DL_deepemotion_Guitar_1,0.037388090044260025,0
57,100,0.10454545454545454,526,0,92,DL_deepemotion_Guitar_1,6,2,DL_deepemotion_Guitar_1,0.03833186998963356,0
64,100,0.14545454545454545,614,0,92,DL_deepemotion_Guitar_1,6,2,DL_deepemotion_Guitar_1,0.0447554849088192,0
64,100,0.7909090909090909,650,0,92,DL_deepemotion_Guitar_1,6,13,DL_deepemotion_Guitar_1,0.05523429811000824,0
57,100,0.5409090909090909,825,0,92,DL_deepemotion_Guitar_1,6,9,DL_deepemotion_Guitar_1,0.09026948362588882,0
62,100,1.040909090909091,114,1,93,DL_deepemotion_Guitar_1,6,15,DL_deepemotion_Guitar_1,0.9983164072036743,1
59,100,1.0636363636363637,375,1,93,DL_deepemotion_Guitar_1,6,15,DL_deepemotion_Guitar_1,0.5445649027824402,0
62,100,0.7045454545454546,4,1,94,DL_deepemotion_Guitar_1,6,11,DL_deepemotion_Guitar_1,0.9990057349205017,1
55,100,0.18636363636363637,196,0,94,DL_deepemotion_Guitar_1,6,3,DL_deepemotion_Guitar_1,0.2312079668045044,0
59,100,0.2318181818181818,316,0,94,DL_deepemotion_Guitar_1,6,4,DL_deepemotion_Guitar_1,0.26592370867729187,0
59,100,0.43636363636363634,532,0,94,DL_deepemotion_Guitar_1,6,7,DL_deepemotion_Guitar_1,0.3541959524154663,0
64,100,0.33636363636363636,50,1,95,DL_deepemotion_Guitar_1,6,5,DL_deepemotion_Guitar_1,0.9990229606628418,1
66,100,0.12272727272727273,312,1,95,DL_deepemotion_Guitar_1,6,2,DL_deepemotion_Guitar_1,0.36662426590919495,0
62,100,0.20909090909090908,495,0,95,DL_deepemotion_Guitar_1,6,3,DL_deepemotion_Guitar_1,0.4532950818538666,0
66,100,0.41818181818181815,408,1,97,DL_deepemotion_Guitar_1,6,7,DL_deepemotion_Guitar_1,0.9983165264129639,1
66,100,0.8363636363636363,504,0,97,DL_deepemotion_Guitar_1,6,13,DL_deepemotion_Guitar_1,0.5445539951324463,0
66,100,0.35,27,1,98,DL_deepemotion_Guitar_1,6,6,DL_deepemotion_Guitar_1,0.9988419413566589,1
62,100,0.22727272727272727,196,0,98,DL_deepemotion_Guitar_1,6,4,DL_deepemotion_Guitar_1,0.137253075838089,0
62,100,0.14545454545454545,292,0,98,DL_deepemotion_Guitar_1,6,2,DL_deepemotion_Guitar_1,0.15978607535362244,0
55,100,0.2909090909090909,536,1,98,DL_deepemotion_Guitar_1,6,5,DL_deepemotion_Guitar_1,0.18646079301834106,0
55,100,1.0818181818181818,605,0,98,DL_deepemotion_Guitar_1,6,15,DL_deepemotion_Guitar_1,0.2581731379032135,0
62,100,0.16818181818181818,100,1,99,DL_deepemotion_Guitar_1,6,3,DL_deepemotion_Guitar_1,0.9990057349205017,1
62,100,0.5818181818181818,141,0,99,DL_deepemotion_Guitar_1,6,9,DL_deepemotion_Guitar_1,0.23120541870594025,0
66,100,0.8545454545454545,375,1,99,DL_deepemotion_Guitar_1,6,14,DL_deepemotion_Guitar_1,0.26592668890953064,0
66,100,0.18636363636363637,609,1,99,DL_deepemotion_Guitar_1,6,3,DL_deepemotion_Guitar_1,0.3542056381702423,0
62,100,0.19090909090909092,347,1,100,DL_deepemotion_Guitar_1,6,3,DL_deepemotion_Guitar_1,0.9988419413566589,1
62,100,0.6863636363636364,408,0,100,DL_deepemotion_Guitar_1,6,11,DL_deepemotion_Guitar_1,0.13725142180919647,0
62,100,0.12272727272727273,587,0,100,DL_deepemotion_Guitar_1,6,2,DL_deepemotion_Guitar_1,0.15977753698825836,0
62,100,0.19090909090909092,677,0,100,DL_deepemotion_Guitar_1,6,3,DL_deepemotion_Guitar_1,0.18645578622817993,0
64,100,0.2727272727272727,724,0,100,DL_deepemotion_Guitar_1,6,4,DL_deepemotion_Guitar_1,0.2581818997859955,0
64,100,0.25,92,1,101,DL_deepemotion_Guitar_1,6,4,DL_deepemotion_Guitar_1,0.9988419413566589,1
52,100,0.18636363636363637,224,0,101,DL_deepemotion_Guitar_1,6,3,DL_deepemotion_Guitar_1,0.1372479945421219,0
54,100,0.9181818181818182,298,0,101,DL_deepemotion_Guitar_1,6,15,DL_deepemotion_Guitar_1,0.15977561473846436,0
66,100,0.10454545454545454,614,1,101,DL_deepemotion_Guitar_1,6,2,DL_deepemotion_Guitar_1,0.18645323812961578,0
54,100,0.43636363636363634,801,0,101,DL_deepemotion_Guitar_1,6,7,DL_deepemotion_Guitar_1,0.2581651508808136,0
62,100,0.5227272727272727,165,1,102,DL_deepemotion_Guitar_1,6,8,DL_deepemotion_Guitar_1,0.9983165264129639,1
55,100,1.7727272727272727,306,0,102,DL_deepemotion_Guitar_1,6,15,DL_deepemotion_Guitar_1,0.5445536375045776,0
62,100,0.22727272727272727,45,1,103,DL_deepemotion_Guitar_1,6,4,DL_deepemotion_Guitar_1,0.9990057349205017,1
62,100,0.10454545454545454,302,1,103,DL_deepemotion_Guitar_1,6,2,DL_deepemotion_Guitar_1,0.2312166392803192,0
62,100,0.6909090909090909,622,1,103,DL_deepemotion_Guitar_1,6,11,DL_deepemotion_Guitar_1,0.26593881845474243,0
57,100,0.16363636363636364,783,0,103,DL_deepemotion_Guitar_1,6,3,DL_deepemotion_Guitar_1,0.3542093336582184,0
62,100,0.5818181818181818,210,1,104,DL_deepemotion_Guitar_1,6,9,DL_deepemotion_Guitar_1,0.9990230798721313,1
62,100,1.1681818181818182,526,1,104,DL_deepemotion_Guitar_1,6,15,DL_deepemotion_Guitar_1,0.36662861704826355,0
62,100,0.35454545454545455,866,1,104,DL_deepemotion_Guitar_1,6,6,DL_deepemotion_Guitar_1,0.4533030092716217,0
64,100,0.2727272727272727,96,1,105,DL_deepemotion_Guitar_1,6,4,DL_deepemotion_Guitar_1,0.9986500144004822,1
62,100,0.6909090909090909,206,0,105,DL_deepemotion_Guitar_1,6,11,DL_deepemotion_Guitar_1,0.08780559152364731,0
62,100,0.19090909090909092,380,0,105,DL_deepemotion_Guitar_1,6,3,DL_deepemotion_Guitar_1,0.0918184295296669,0
62,100,1.040909090909091,426,0,105,DL_deepemotion_Guitar_1,6,15,DL_deepemotion_Guitar_1,0.10748369246721268,0
66,100,0.22727272727272727,660,1,105,DL_deepemotion_Guitar_1,6,4,DL_deepemotion_Guitar_1,0.12483531981706619,0
66,100,0.41818181818181815,715,0,105,DL_deepemotion_Guitar_1,6,7,DL_deepemotion_Guitar_1,0.179042786359787,0
66,100,0.20909090909090908,320,1,106,DL_deepemotion_Guitar_1,6,3,DL_deepemotion_Guitar_1,0.9990230798721313,1
62,100,0.22727272727272727,697,1,106,DL_deepemotion_Guitar_1,6,4,DL_deepemotion_Guitar_1,0.3666183352470398,0
62,100,0.12727272727272726,811,0,106,DL_deepemotion_Guitar_1,6,2,DL_deepemotion_Guitar_1,0.4532967507839203,0
62,100,0.6454545454545455,265,1,108,DL_deepemotion_Guitar_1,6,10,DL_deepemotion_Guitar_1,0.9792552590370178,1
52,100,1.2363636363636363,127,1,13,DL_deepemotion_Guitar,6,15,DL_deepemotion_Guitar,0.9792560338973999,0
62,100,0.2,206,1,15,DL_deepemotion_Guitar,6,3,DL_deepemotion_Guitar,0.9983164072036743,1
62,100,0.4590909090909091,352,0,15,DL_deepemotion_Guitar,6,7,DL_deepemotion_Guitar,0.5445590019226074,0
62,100,0.4409090909090909,88,1,17,DL_deepemotion_Guitar,6,7,DL_deepemotion_Guitar,0.9983164072036743,1
62,100,0.36363636363636365,202,0,17,DL_deepemotion_Guitar,6,6,DL_deepemotion_Guitar,0.5445625185966492,0
57,100,0.8772727272727273,470,1,18,DL_deepemotion_Guitar,6,14,DL_deepemotion_Guitar,0.9983164072036743,1
52,100,2.2409090909090907,839,1,18,DL_deepemotion_Guitar,6,15,DL_deepemotion_Guitar,0.5445520281791687,0
62,100,0.5,453,1,19,DL_deepemotion_Guitar,6,8,DL_deepemotion_Guitar,0.9990229606628418,1
62,100,0.2,576,0,19,DL_deepemotion_Guitar,6,3,DL_deepemotion_Guitar,0.3666295111179352,0
52,100,0.32272727272727275,694,0,19,DL_deepemotion_Guitar,6,5,DL_deepemotion_Guitar,0.4533008635044098,0
58,100,0.7,422,1,20,DL_deepemotion_Guitar,6,11,DL_deepemotion_Guitar,0.9983165264129639,1
58,100,0.5,656,1,20,DL_deepemotion_Guitar,6,8,DL_deepemotion_Guitar,0.5445578098297119,0
57,100,0.1590909090909091,210,1,21,DL_deepemotion_Guitar,6,3,DL_deepemotion_Guitar,0.9983165264129639,1
57,100,0.1590909090909091,453,1,21,DL_deepemotion_Guitar,6,3,DL_deepemotion_Guitar,0.5445566177368164,0
66,100,0.2590909090909091,9,1,22,DL_deepemotion_Guitar,6,4,DL_deepemotion_Guitar,0.9990057349205017,1
66,100,0.1409090909090909,79,0,22,DL_deepemotion_Guitar,6,2,DL_deepemotion_Guitar,0.23120710253715515,0
64,100,0.1409090909090909,320,1,22,DL_deepemotion_Guitar,6,2,DL_deepemotion_Guitar,0.2659287750720978,0
62,100,0.4,835,1,22,DL_deepemotion_Guitar,6,6,DL_deepemotion_Guitar,0.3541957437992096,0
62,100,0.11818181818181818,216,1,23,DL_deepemotion_Guitar,6,2,DL_deepemotion_Guitar,0.9983164072036743,1
57,100,0.2,382,0,23,DL_deepemotion_Guitar,6,3,DL_deepemotion_Guitar,0.544562816619873,0
61,100,0.3,497,1,24,DL_deepemotion_Guitar,6,5,DL_deepemotion_Guitar,0.9990229606628418,1
61,100,0.7181818181818181,615,0,24,DL_deepemotion_Guitar,6,11,DL_deepemotion_Guitar,0.3666176497936249,0
61,100,0.35909090909090907,787,0,24,DL_deepemotion_Guitar,6,6,DL_deepemotion_Guitar,0.4532947838306427,0
61,100,0.2590909090909091,233,1,25,DL_deepemotion_Guitar,6,4,DL_deepemotion_Guitar,0.9983164072036743,1
61,100,0.9590909090909091,480,1,25,DL_deepemotion_Guitar,6,15,DL_deepemotion_Guitar,0.544556200504303,0
66,100,0.2590909090909091,171,1,26,DL_deepemotion_Guitar,6,4,DL_deepemotion_Guitar,0.9983165264129639,1
66,100,0.4590909090909091,347,0,26,DL_deepemotion_Guitar,6,7,DL_deepemotion_Guitar,0.5445520877838135,0
57,100,0.16363636363636364,3,1,27,DL_deepemotion_Guitar,6,3,DL_deepemotion_Guitar,0.9990229606628418,1
66,100,0.43636363636363634,150,0,27,DL_deepemotion_Guitar,6,7,DL_deepemotion_Guitar,0.36663344502449036,0
57,100,0.1590909090909091,430,1,27,DL_deepemotion_Guitar,6,3,DL_deepemotion_Guitar,0.4532885253429413,0
57,100,0.2409090909090909,75,1,28,DL_deepemotion_Guitar,6,4,DL_deepemotion_Guitar,0.9986500144004822,1
64,100,0.4818181818181818,154,0,28,DL_deepemotion_Guitar,6,8,DL_deepemotion_Guitar,0.0878063291311264,0
64,100,0.2409090909090909,285,0,28,DL_deepemotion_Guitar,6,4,DL_deepemotion_Guitar,0.09181835502386093,0
64,100,0.11818181818181818,370,0,28,DL_deepemotion_Guitar,6,2,DL_deepemotion_Guitar,0.10748746246099472,0
61,100,0.9590909090909091,501,0,28,DL_deepemotion_Guitar,6,15,DL_deepemotion_Guitar,0.12483116239309311,0
57,100,0.4,831,1,28,DL_deepemotion_Guitar,6,6,DL_deepemotion_Guitar,0.1790439933538437,0
57,100,0.12272727272727273,48,1,29,DL_deepemotion_Guitar,6,2,DL_deepemotion_Guitar,0.9984880685806274,1
64,100,0.1590909090909091,119,0,29,DL_deepemotion_Guitar,6,3,DL_deepemotion_Guitar,0.06334766745567322,0
57,100,0.1590909090909091,395,1,29,DL_deepemotion_Guitar,6,3,DL_deepemotion_Guitar,0.05774430185556412,0
61,100,0.1,509,0,29,DL_deepemotion_Guitar,6,2,DL_deepemotion_Guitar,0.06020499765872955,0
57,100,0.38181818181818183,540,0,29,DL_deepemotion_Guitar,6,6,DL_deepemotion_Guitar,0.06970659643411636,0
62,100,0.5409090909090909,708,0,29,DL_deepemotion_Guitar,6,9,DL_deepemotion_Guitar,0.08189775049686432,0
62,100,0.1409090909090909,866,0,29,DL_deepemotion_Guitar,6,2,DL_deepemotion_Guitar,0.12402719259262085,0
62,100,0.9590909090909091,21,1,30,DL_deepemotion_Guitar,6,15,DL_deepemotion_Guitar,0.9990057349205017,1
54,100,0.3,374,1,30,DL_deepemotion_Guitar,6,5,DL_deepemotion_Guitar,0.2312084287405014,0
62,100,0.2,474,0,30,DL_deepemotion_Guitar,6,3,DL_deepemotion_Guitar,0.2659245729446411,0
62,100,0.4,523,0,30,DL_deepemotion_Guitar,6,6,DL_deepemotion_Guitar,0.3542080223560333,0
62,100,0.38181818181818183,0,1,31,DL_deepemotion_Guitar,6,6,DL_deepemotion_Guitar,0.9982553124427795,1
62,100,0.21818181818181817,96,0,31,DL_deepemotion_Guitar,6,3,DL_deepemotion_Guitar,0.04128820076584816,0
62,100,0.13636363636363635,150,0,31,DL_deepemotion_Guitar,6,2,DL_deepemotion_Guitar,0.028936732560396194,0
62,100,0.18181818181818182,202,0,31,DL_deepemotion_Guitar,6,3,DL_deepemotion_Guitar,0.021290481090545654,0
57,100,0.41818181818181815,264,0,31,DL_deepemotion_Guitar,6,7,DL_deepemotion_Guitar,0.01674668863415718,0
62,100,0.35909090909090907,360,0,31,DL_deepemotion_Guitar,6,6,DL_deepemotion_Guitar,0.014919968321919441,0
57,100,0.2,457,0,31,DL_deepemotion_Guitar,6,3,DL_deepemotion_Guitar,0.0160179752856493,0
62,100,0.2636363636363636,532,0,31,DL_deepemotion_Guitar,6,4,DL_deepemotion_Guitar,0.021180886775255203,0
62,100,1.059090909090909,615,0,31,DL_deepemotion_Guitar,6,15,DL_deepemotion_Guitar,0.031568706035614014,0
62,100,0.1,853,1,31,DL_deepemotion_Guitar,6,2,DL_deepemotion_Guitar,0.06006273627281189,0
62,100,0.8,0,1,32,DL_deepemotion_Guitar,6,13,DL_deepemotion_Guitar,0.9990229606628418,1
62,100,0.12272727272727273,584,1,32,DL_deepemotion_Guitar,6,2,DL_deepemotion_Guitar,0.366635262966156,0
57,100,1.3181818181818181,713,0,32,DL_deepemotion_Guitar,6,15,DL_deepemotion_Guitar,0.4532974362373352,0
57,100,0.4772727272727273,206,1,33,DL_deepemotion_Guitar,6,8,DL_deepemotion_Guitar,0.9990057349205017,1
57,100,0.9772727272727273,316,0,33,DL_deepemotion_Guitar,6,15,DL_deepemotion_Guitar,0.23120459914207458,0
57,100,0.2636363636363636,554,1,33,DL_deepemotion_Guitar,6,4,DL_deepemotion_Guitar,0.2659265995025635,0
62,100,0.6818181818181818,804,1,33,DL_deepemotion_Guitar,6,11,DL_deepemotion_Guitar,0.354201078414917,0
62,100,0.2,78,1,34,DL_deepemotion_Guitar,6,3,DL_deepemotion_Guitar,0.9983165264129639,1
57,100,0.22272727272727272,861,1,34,DL_deepemotion_Guitar,6,4,DL_deepemotion_Guitar,0.544562041759491,0
62,100,0.22272727272727272,136,1,35,DL_deepemotion_Guitar,6,4,DL_deepemotion_Guitar,0.9986500144004822,1
62,100,0.2818181818181818,431,1,35,DL_deepemotion_Guitar,6,5,DL_deepemotion_Guitar,0.08780723065137863,0
62,100,0.12272727272727273,509,0,35,DL_deepemotion_Guitar,6,2,DL_deepemotion_Guitar,0.09181863069534302,0
62,100,0.1409090909090909,541,0,35,DL_deepemotion_Guitar,6,2,DL_deepemotion_Guitar,0.1074848547577858,0
64,100,0.1409090909090909,713,0,35,DL_deepemotion_Guitar,6,2,DL_deepemotion_Guitar,0.12484043091535568,0
57,100,0.3,796,0,35,DL_deepemotion_Guitar,6,5,DL_deepemotion_Guitar,0.1790444552898407,0
57,100,0.2409090909090909,114,1,36,DL_deepemotion_Guitar,6,4,DL_deepemotion_Guitar,0.9984880685806274,1
57,100,0.1590909090909091,176,0,36,DL_deepemotion_Guitar,6,3,DL_deepemotion_Guitar,0.06334717571735382,0
57,100,0.21818181818181817,220,0,36,DL_deepemotion_Guitar,6,3,DL_deepemotion_Guitar,0.05774616450071335,0
57,100,0.21818181818181817,281,0,36,DL_deepemotion_Guitar,6,3,DL_deepemotion_Guitar,0.06020654737949371,0
64,100,0.12272727272727273,334,0,36,DL_deepemotion_Guitar,6,2,DL_deepemotion_Guitar,0.06970979273319244,0
57,100,1.240909090909091,408,0,36,DL_deepemotion_Guitar,6,15,DL_deepemotion_Guitar,0.08190015703439713,0
64,100,0.5409090909090909,681,1,36,DL_deepemotion_Guitar,6,9,DL_deepemotion_Guitar,0.12403176724910736,0
64,100,0.4590909090909091,220,1,37,DL_deepemotion_Guitar,6,7,DL_deepemotion_Guitar,0.9990057349205017,1
62,100,0.1409090909090909,396,0,37,DL_deepemotion_Guitar,6,2,DL_deepemotion_Guitar,0.23120908439159393,0
59,100,0.2,686,1,37,DL_deepemotion_Guitar,6,3,DL_deepemotion_Guitar,0.26592791080474854,0
62,100,0.8,861,0,37,DL_deepemotion_Guitar,6,13,DL_deepemotion_Guitar,0.35420456528663635,0
57,100,0.3,308,1,38,DL_deepemotion_Guitar,6,5,DL_deepemotion_Guitar,0.9988419413566589,1
62,100,0.2590909090909091,448,0,38,DL_deepemotion_Guitar,6,4,DL_deepemotion_Guitar,0.137252077460289,0
57,100,0.16363636363636364,509,0,38,DL_deepemotion_Guitar,6,3,DL_deepemotion_Guitar,0.15978258848190308,0
62,100,0.7772727272727272,633,0,38,DL_deepemotion_Guitar,6,12,DL_deepemotion_Guitar,0.18645963072776794,0
57,100,0.5590909090909091,810,0,38,DL_deepemotion_Guitar,6,9,DL_deepemotion_Guitar,0.258173406124115,0
57,100,0.2409090909090909,75,1,39,DL_deepemotion_Guitar,6,4,DL_deepemotion_Guitar,0.9988419413566589,1
57,100,0.2590909090909091,176,0,39,DL_deepemotion_Guitar,6,4,DL_deepemotion_Guitar,0.13725262880325317,0
57,100,0.3,356,0,39,DL_deepemotion_Guitar,6,5,DL_deepemotion_Guitar,0.15978650748729706,0
57,100,0.2590909090909091,431,0,39,DL_deepemotion_Guitar,6,4,DL_deepemotion_Guitar,0.18645739555358887,0
59,100,1.3181818181818181,506,0,39,DL_deepemotion_Guitar,6,15,DL_deepemotion_Guitar,0.25816765427589417,0
59,100,0.3181818181818182,40,1,40,DL_deepemotion_Guitar,6,5,DL_deepemotion_Guitar,0.9983004927635193,1
64,100,0.2818181818181818,131,0,40,DL_deepemotion_Guitar,6,5,DL_deepemotion_Guitar,0.04466383904218674,0
64,100,0.2818181818181818,211,0,40,DL_deepemotion_Guitar,6,5,DL_deepemotion_Guitar,0.033149633556604385,0
59,100,0.12272727272727273,298,0,40,DL_deepemotion_Guitar,6,2,DL_deepemotion_Guitar,0.026581043377518654,0
52,100,0.2818181818181818,343,0,40,DL_deepemotion_Guitar,6,5,DL_deepemotion_Guitar,0.023596487939357758,0
62,100,0.11818181818181818,435,0,40,DL_deepemotion_Guitar,6,2,DL_deepemotion_Guitar,0.024316508322954178,0
57,100,0.2590909090909091,493,0,40,DL_deepemotion_Guitar,6,4,DL_deepemotion_Guitar,0.02969263307750225,0
57,100,0.6409090909090909,554,0,40,DL_deepemotion_Guitar,6,10,DL_deepemotion_Guitar,0.040080901235342026,0
57,100,0.42272727272727273,839,1,40,DL_deepemotion_Guitar,6,7,DL_deepemotion_Guitar,0.07093427330255508,0
57,100,0.38181818181818183,78,1,41,DL_deepemotion_Guitar,6,6,DL_deepemotion_Guitar,0.9990057349205017,1
57,100,0.2409090909090909,206,0,41,DL_deepemotion_Guitar,6,4,DL_deepemotion_Guitar,0.23120766878128052,0
57,100,0.18181818181818182,343,0,41,DL_deepemotion_Guitar,6,3,DL_deepemotion_Guitar,0.2659195363521576,0
66,100,0.4,453,0,41,DL_deepemotion_Guitar,6,6,DL_deepemotion_Guitar,0.35419991612434387,0
62,100,0.11818181818181818,418,1,42,DL_deepemotion_Guitar,6,2,DL_deepemotion_Guitar,0.9990057349205017,1
57,100,0.4636363636363636,444,0,42,DL_deepemotion_Guitar,6,7,DL_deepemotion_Guitar,0.23120979964733124,0
62,100,0.1,691,1,42,DL_deepemotion_Guitar,6,2,DL_deepemotion_Guitar,0.26593220233917236,0
62,100,0.1,716,0,42,DL_deepemotion_Guitar,6,2,DL_deepemotion_Guitar,0.3542085587978363,0
62,100,0.2409090909090909,114,1,43,DL_deepemotion_Guitar,6,4,DL_deepemotion_Guitar,0.9986500144004822,1
62,100,0.11818181818181818,316,0,43,DL_deepemotion_Guitar,6,2,DL_deepemotion_Guitar,0.0878063291311264,0
57,100,0.23636363636363636,348,0,43,DL_deepemotion_Guitar,6,4,DL_deepemotion_Guitar,0.09181953221559525,0
62,100,0.9409090909090909,405,0,43,DL_deepemotion_Guitar,6,15,DL_deepemotion_Guitar,0.10748472064733505,0
66,100,0.2,713,1,43,DL_deepemotion_Guitar,6,3,DL_deepemotion_Guitar,0.12484078854322433,0
66,100,0.2,788,0,43,DL_deepemotion_Guitar,6,3,DL_deepemotion_Guitar,0.1790464222431183,0
66,100,0.1590909090909091,0,1,44,DL_deepemotion_Guitar,6,3,DL_deepemotion_Guitar,0.9984880685806274,1
62,100,0.5409090909090909,78,0,44,DL_deepemotion_Guitar,6,9,DL_deepemotion_Guitar,0.06334495544433594,0
57,100,0.3409090909090909,276,0,44,DL_deepemotion_Guitar,6,5,DL_deepemotion_Guitar,0.05774339661002159,0
57,100,0.2409090909090909,399,0,44,DL_deepemotion_Guitar,6,4,DL_deepemotion_Guitar,0.06020314618945122,0
59,100,0.2772727272727273,558,0,44,DL_deepemotion_Guitar,6,4,DL_deepemotion_Guitar,0.0697040930390358,0
57,100,0.3181818181818182,625,0,44,DL_deepemotion_Guitar,6,5,DL_deepemotion_Guitar,0.08189719915390015,0
57,100,0.7,836,0,44,DL_deepemotion_Guitar,6,11,DL_deepemotion_Guitar,0.12402251362800598,0
59,100,0.1409090909090909,778,1,45,DL_deepemotion_Guitar,6,2,DL_deepemotion_Guitar,0.9983165264129639,1
52,100,0.2,823,0,45,DL_deepemotion_Guitar,6,3,DL_deepemotion_Guitar,0.5445601940155029,0
62,100,0.3181818181818182,281,1,46,DL_deepemotion_Guitar,6,5,DL_deepemotion_Guitar,0.9990229606628418,1
57,100,0.3181818181818182,581,1,46,DL_deepemotion_Guitar,6,5,DL_deepemotion_Guitar,0.36662495136260986,0
66,100,0.4409090909090909,796,0,46,DL_deepemotion_Guitar,6,7,DL_deepemotion_Guitar,0.45329752564430237,0
57,100,0.2,568,1,47,DL_deepemotion_Guitar,6,3,DL_deepemotion_Guitar,0.9983165264129639,1
59,100,0.16363636363636364,861,1,47,DL_deepemotion_Guitar,6,3,DL_deepemotion_Guitar,0.5445601344108582,0
57,100,1.8409090909090908,110,1,48,DL_deepemotion_Guitar,6,15,DL_deepemotion_Guitar,0.9983164072036743,1
52,100,0.9409090909090909,761,1,48,DL_deepemotion_Guitar,6,15,DL_deepemotion_Guitar,0.5445631146430969,0
66,100,0.21818181818181817,308,1,49,DL_deepemotion_Guitar,6,3,DL_deepemotion_Guitar,0.9792563915252686,0
57,100,0.1,276,1,50,DL_deepemotion_Guitar,6,2,DL_deepemotion_Guitar,0.9990229606628418,1
62,100,0.5227272727272727,399,0,50,DL_deepemotion_Guitar,6,8,DL_deepemotion_Guitar,0.3666283190250397,0
62,100,0.3409090909090909,638,1,50,DL_deepemotion_Guitar,6,5,DL_deepemotion_Guitar,0.45329469442367554,0
62,100,0.1590909090909091,18,1,51,DL_deepemotion_Guitar,6,3,DL_deepemotion_Guitar,0.9984880685806274,1
62,100,0.11818181818181818,171,0,51,DL_deepemotion_Guitar,6,2,DL_deepemotion_Guitar,0.0633465051651001,0
62,100,0.2590909090909091,211,0,51,DL_deepemotion_Guitar,6,4,DL_deepemotion_Guitar,0.05774383246898651,0
54,100,0.38181818181818183,286,0,51,DL_deepemotion_Guitar,6,6,DL_deepemotion_Guitar,0.060208357870578766,0
54,100,0.1,373,0,51,DL_deepemotion_Guitar,6,2,DL_deepemotion_Guitar,0.06970790773630142,0
66,100,0.2,568,0,51,DL_deepemotion_Guitar,6,3,DL_deepemotion_Guitar,0.08189987391233444,0
69,100,0.2818181818181818,628,0,51,DL_deepemotion_Guitar,6,5,DL_deepemotion_Guitar,0.12402740120887756,0
57,100,0.17727272727272728,40,1,52,DL_deepemotion_Guitar,6,3,DL_deepemotion_Guitar,0.9990057349205017,1
62,100,0.18181818181818182,506,1,52,DL_deepemotion_Guitar,6,3,DL_deepemotion_Guitar,0.2312181144952774,0
57,100,0.23636363636363636,611,0,52,DL_deepemotion_Guitar,6,4,DL_deepemotion_Guitar,0.2659339904785156,0
57,100,0.9590909090909091,678,0,52,DL_deepemotion_Guitar,6,15,DL_deepemotion_Guitar,0.3541985750198364,0
57,100,0.9181818181818182,18,1,53,DL_deepemotion_Guitar,6,15,DL_deepemotion_Guitar,0.9990229606628418,1
57,100,0.1409090909090909,228,0,53,DL_deepemotion_Guitar,6,2,DL_deepemotion_Guitar,0.36662977933883667,0
57,100,0.18181818181818182,268,0,53,DL_deepemotion_Guitar,6,3,DL_deepemotion_Guitar,0.45329469442367554,0
69,100,0.2636363636363636,224,1,55,DL_deepemotion_Guitar,6,4,DL_deepemotion_Guitar,0.9990230798721313,1
59,100,0.3181818181818182,348,0,55,DL_deepemotion_Guitar,6,5,DL_deepemotion_Guitar,0.36662784218788147,0
62,100,0.2590909090909091,506,0,55,DL_deepemotion_Guitar,6,4,DL_deepemotion_Guitar,0.4532930254936218,0
62,100,0.1409090909090909,334,1,56,DL_deepemotion_Guitar,6,2,DL_deepemotion_Guitar,0.9988419413566589,1
62,100,0.2,418,0,56,DL_deepemotion_Guitar,6,3,DL_deepemotion_Guitar,0.13725292682647705,0
62,100,0.2,528,0,56,DL_deepemotion_Guitar,6,3,DL_deepemotion_Guitar,0.15978379547595978,0
62,100,0.2590909090909091,673,0,56,DL_deepemotion_Guitar,6,4,DL_deepemotion_Guitar,0.18646036088466644,0
62,100,0.2590909090909091,738,0,56,DL_deepemotion_Guitar,6,4,DL_deepemotion_Guitar,0.2581828236579895,0
57,100,0.8590909090909091,75,1,61,DL_deepemotion_Guitar,6,14,DL_deepemotion_Guitar,0.9988419413566589,1
57,100,0.1590909090909091,276,0,61,DL_deepemotion_Guitar,6,3,DL_deepemotion_Guitar,0.1372542381286621,0
57,100,0.5181818181818182,330,0,61,DL_deepemotion_Guitar,6,8,DL_deepemotion_Guitar,0.1597798764705658,0
57,100,0.2,483,0,61,DL_deepemotion_Guitar,6,3,DL_deepemotion_Guitar,0.18645688891410828,0
57,100,1.1636363636363636,531,0,61,DL_deepemotion_Guitar,6,15,DL_deepemotion_Guitar,0.25816860795021057,0
57,100,0.3409090909090909,34,1,62,DL_deepemotion_Guitar,6,5,DL_deepemotion_Guitar,0.9983004927635193,1
57,100,0.2636363636363636,136,0,62,DL_deepemotion_Guitar,6,4,DL_deepemotion_Guitar,0.044664427638053894,0
57,100,0.3,211,0,62,DL_deepemotion_Guitar,6,5,DL_deepemotion_Guitar,0.03315087407827377,0
57,100,0.4409090909090909,308,0,62,DL_deepemotion_Guitar,6,7,DL_deepemotion_Guitar,0.02658138796687126,0
62,100,0.38181818181818183,418,0,62,DL_deepemotion_Guitar,6,6,DL_deepemotion_Guitar,0.02359718456864357,0
57,100,0.6,554,0,62,DL_deepemotion_Guitar,6,10,DL_deepemotion_Guitar,0.02431586943566799,0
57,100,0.2,713,0,62,DL_deepemotion_Guitar,6,3,DL_deepemotion_Guitar,0.02969221957027912,0
52,100,0.18181818181818182,774,0,62,DL_deepemotion_Guitar,6,3,DL_deepemotion_Guitar,0.040078457444906235,0
52,100,0.2,818,0,62,DL_deepemotion_Guitar,6,3,DL_deepemotion_Guitar,0.0709310919046402,0
57,100,0.2,48,1,63,DL_deepemotion_Guitar,6,3,DL_deepemotion_Guitar,0.9990057349205017,1
57,100,0.7227272727272728,166,0,63,DL_deepemotion_Guitar,6,12,DL_deepemotion_Guitar,0.23121581971645355,0
57,100,1.2,330,0,63,DL_deepemotion_Guitar,6,15,DL_deepemotion_Guitar,0.26592403650283813,0
62,100,0.4409090909090909,796,1,63,DL_deepemotion_Guitar,6,7,DL_deepemotion_Guitar,0.3542059361934662,0
57,100,0.7772727272727272,30,1,64,DL_deepemotion_Guitar,6,12,DL_deepemotion_Guitar,0.9984880685806274,1
62,100,0.5,289,1,64,DL_deepemotion_Guitar,6,8,DL_deepemotion_Guitar,0.06334678828716278,0
57,100,0.1409090909090909,449,0,64,DL_deepemotion_Guitar,6,2,DL_deepemotion_Guitar,0.05774424597620964,0
62,100,0.5181818181818182,483,0,64,DL_deepemotion_Guitar,6,8,DL_deepemotion_Guitar,0.06020766496658325,0
57,100,0.3181818181818182,616,0,64,DL_deepemotion_Guitar,6,5,DL_deepemotion_Guitar,0.06970961391925812,0
57,100,0.5409090909090909,734,0,64,DL_deepemotion_Guitar,6,9,DL_deepemotion_Guitar,0.08190646767616272,0
57,100,1.7181818181818183,876,0,64,DL_deepemotion_Guitar,6,15,DL_deepemotion_Guitar,0.12403102219104767,0
62,100,0.6818181818181818,637,1,65,DL_deepemotion_Guitar,6,11,DL_deepemotion_Guitar,0.9983164072036743,1
57,100,0.9818181818181818,792,0,65,DL_deepemotion_Guitar,6,15,DL_deepemotion_Guitar,0.5445635318756104,0
57,100,0.11818181818181818,132,1,66,DL_deepemotion_Guitar,6,2,DL_deepemotion_Guitar,0.9988419413566589,1
57,100,0.6590909090909091,193,0,66,DL_deepemotion_Guitar,6,11,DL_deepemotion_Guitar,0.13724961876869202,0
62,100,0.37727272727272726,347,0,66,DL_deepemotion_Guitar,6,6,DL_deepemotion_Guitar,0.15978215634822845,0
62,100,0.9363636363636364,436,0,66,DL_deepemotion_Guitar,6,15,DL_deepemotion_Guitar,0.1864551305770874,0
62,100,0.2,646,0,66,DL_deepemotion_Guitar,6,3,DL_deepemotion_Guitar,0.2581736147403717,0
57,100,0.1,3,1,67,DL_deepemotion_Guitar,6,2,DL_deepemotion_Guitar,0.9988419413566589,1
62,100,0.7,123,0,67,DL_deepemotion_Guitar,6,11,DL_deepemotion_Guitar,0.1372498869895935,0
62,100,0.12272727272727273,333,0,67,DL_deepemotion_Guitar,6,2,DL_deepemotion_Guitar,0.15978305041790009,0
62,100,0.3181818181818182,470,0,67,DL_deepemotion_Guitar,6,5,DL_deepemotion_Guitar,0.1864573061466217,0
62,100,0.9,624,0,67,DL_deepemotion_Guitar,6,14,DL_deepemotion_Guitar,0.2581767141819,0
59,100,0.5590909090909091,176,1,68,DL_deepemotion_Guitar,6,9,DL_deepemotion_Guitar,0.9990229606628418,1
62,100,0.7,443,1,68,DL_deepemotion_Guitar,6,11,DL_deepemotion_Guitar,0.3666329085826874,0
62,100,0.3,603,0,68,DL_deepemotion_Guitar,6,5,DL_deepemotion_Guitar,0.45330026745796204,0
62,100,2.2409090909090907,13,1,69,DL_deepemotion_Guitar,6,15,DL_deepemotion_Guitar,0.9988419413566589,1
62,100,0.3,519,1,69,DL_deepemotion_Guitar,6,5,DL_deepemotion_Guitar,0.13725434243679047,0
62,100,0.5,606,0,69,DL_deepemotion_Guitar,6,8,DL_deepemotion_Guitar,0.15978644788265228,0
57,100,0.18181818181818182,716,0,69,DL_deepemotion_Guitar,6,3,DL_deepemotion_Guitar,0.18645897507667542,0
57,100,0.5636363636363636,773,0,69,DL_deepemotion_Guitar,6,9,DL_deepemotion_Guitar,0.2581826150417328,0
57,100,0.3409090909090909,110,1,70,DL_deepemotion_Guitar,6,5,DL_deepemotion_Guitar,0.9986500144004822,1
62,100,0.35909090909090907,475,1,70,DL_deepemotion_Guitar,6,6,DL_deepemotion_Guitar,0.08780349791049957,0
62,100,0.16363636363636364,576,0,70,DL_deepemotion_Guitar,6,3,DL_deepemotion_Guitar,0.09181911498308182,0
57,100,0.36363636363636365,619,0,70,DL_deepemotion_Guitar,6,6,DL_deepemotion_Guitar,0.10748053342103958,0
55,100,0.12272727272727273,760,0,70,DL_deepemotion_Guitar,6,2,DL_deepemotion_Guitar,0.12483176589012146,0
59,100,0.33636363636363636,853,0,70,DL_deepemotion_Guitar,6,5,DL_deepemotion_Guitar,0.17903533577919006,0
59,100,0.2818181818181818,100,1,71,DL_deepemotion_Guitar,6,5,DL_deepemotion_Guitar,0.9988419413566589,1
62,100,0.6181818181818182,316,0,71,DL_deepemotion_Guitar,6,10,DL_deepemotion_Guitar,0.13724473118782043,0
59,100,0.6409090909090909,453,0,71,DL_deepemotion_Guitar,6,10,DL_deepemotion_Guitar,0.15977726876735687,0
71,100,0.1409090909090909,624,0,71,DL_deepemotion_Guitar,6,2,DL_deepemotion_Guitar,0.18645164370536804,0
61,100,0.36363636363636365,663,0,71,DL_deepemotion_Guitar,6,6,DL_deepemotion_Guitar,0.2581639885902405,0
62,100,0.6363636363636364,83,1,72,DL_deepemotion_Guitar,6,10,DL_deepemotion_Guitar,0.9990057349205017,1
62,100,1.3,289,0,72,DL_deepemotion_Guitar,6,15,DL_deepemotion_Guitar,0.23121240735054016,0
62,100,0.5,616,1,72,DL_deepemotion_Guitar,6,8,DL_deepemotion_Guitar,0.265934556722641,0
57,100,0.759090909090909,734,0,72,DL_deepemotion_Guitar,6,12,DL_deepemotion_Guitar,0.35420724749565125,0
62,100,1.1409090909090909,26,1,73,DL_deepemotion_Guitar,6,15,DL_deepemotion_Guitar,0.9990057349205017,1
57,100,0.6,276,1,73,DL_deepemotion_Guitar,6,10,DL_deepemotion_Guitar,0.23121875524520874,0
62,100,0.8590909090909091,496,0,73,DL_deepemotion_Guitar,6,14,DL_deepemotion_Guitar,0.2659302055835724,0
57,100,0.9590909090909091,700,0,73,DL_deepemotion_Guitar,6,15,DL_deepemotion_Guitar,0.3542022109031677,0
62,100,0.1409090909090909,35,1,74,DL_deepemotion_Guitar,6,2,DL_deepemotion_Guitar,0.9984880685806274,1
57,100,0.4590909090909091,83,0,74,DL_deepemotion_Guitar,6,7,DL_deepemotion_Guitar,0.06334492564201355,0
62,100,0.1,184,0,74,DL_deepemotion_Guitar,6,2,DL_deepemotion_Guitar,0.05774415656924248,0
57,100,0.18181818181818182,276,0,74,DL_deepemotion_Guitar,6,3,DL_deepemotion_Guitar,0.060203395783901215,0
62,100,0.5590909090909091,330,0,74,DL_deepemotion_Guitar,6,9,DL_deepemotion_Guitar,0.06970510631799698,0
57,100,0.36363636363636365,466,0,74,DL_deepemotion_Guitar,6,6,DL_deepemotion_Guitar,0.08189843595027924,0
54,100,0.12272727272727273,695,0,74,DL_deepemotion_Guitar,6,2,DL_deepemotion_Guitar,0.12402933835983276,0
62,100,0.5818181818181818,35,1,75,DL_deepemotion_Guitar,6,9,DL_deepemotion_Guitar,0.9990057349205017,1
62,100,0.8,267,1,75,DL_deepemotion_Guitar,6,13,DL_deepemotion_Guitar,0.2312074601650238,0
57,100,0.2818181818181818,606,1,75,DL_deepemotion_Guitar,6,5,DL_deepemotion_Guitar,0.2659360468387604,0
62,100,1.7772727272727273,713,0,75,DL_deepemotion_Guitar,6,15,DL_deepemotion_Guitar,0.3542131185531616,0
62,100,0.8,246,1,76,DL_deepemotion_Guitar,6,13,DL_deepemotion_Guitar,0.9990057349205017,1
59,100,0.13636363636363635,502,1,76,DL_deepemotion_Guitar,6,2,DL_deepemotion_Guitar,0.23120881617069244,0
62,100,0.5,540,0,76,DL_deepemotion_Guitar,6,8,DL_deepemotion_Guitar,0.2659260034561157,0
52,100,1.259090909090909,656,0,76,DL_deepemotion_Guitar,6,15,DL_deepemotion_Guitar,0.35420456528663635,0
62,100,0.6409090909090909,53,1,77,DL_deepemotion_Guitar,6,10,DL_deepemotion_Guitar,0.9988419413566589,1
57,100,0.2772727272727273,413,1,77,DL_deepemotion_Guitar,6,4,DL_deepemotion_Guitar,0.13725267350673676,0
57,100,0.12272727272727273,519,0,77,DL_deepemotion_Guitar,6,2,DL_deepemotion_Guitar,0.15978503227233887,0
57,100,0.18181818181818182,585,0,77,DL_deepemotion_Guitar,6,3,DL_deepemotion_Guitar,0.186457097530365,0
57,100,0.33636363636363636,853,1,77,DL_deepemotion_Guitar,6,5,DL_deepemotion_Guitar,0.2581775486469269,0
57,100,0.21818181818181817,53,1,78,DL_deepemotion_Guitar,6,3,DL_deepemotion_Guitar,0.9792559146881104,0
57,100,0.13636363636363635,260,1,80,DL_deepemotion_Guitar,6,2,DL_deepemotion_Guitar,0.9990057349205017,1
57,100,0.2,356,0,80,DL_deepemotion_Guitar,6,3,DL_deepemotion_Guitar,0.23120445013046265,0
57,100,0.1,417,0,80,DL_deepemotion_Guitar,6,2,DL_deepemotion_Guitar,0.26592105627059937,0
64,100,0.6181818181818182,726,1,80,DL_deepemotion_Guitar,6,10,DL_deepemotion_Guitar,0.35419997572898865,0
57,100,0.32272727272727275,56,1,81,DL_deepemotion_Guitar,6,5,DL_deepemotion_Guitar,0.9984880685806274,1
64,100,0.5772727272727273,229,0,81,DL_deepemotion_Guitar,6,9,DL_deepemotion_Guitar,0.06334798038005829,0
57,100,0.32272727272727275,356,0,81,DL_deepemotion_Guitar,6,5,DL_deepemotion_Guitar,0.05774465948343277,0
54,100,0.1,553,0,81,DL_deepemotion_Guitar,6,2,DL_deepemotion_Guitar,0.06020684540271759,0
62,100,0.17727272727272728,766,0,81,DL_deepemotion_Guitar,6,3,DL_deepemotion_Guitar,0.06970755010843277,0
62,100,0.11818181818181818,813,0,81,DL_deepemotion_Guitar,6,2,DL_deepemotion_Guitar,0.0819023922085762,0
62,100,2.2409090909090907,849,0,81,DL_deepemotion_Guitar,6,15,DL_deepemotion_Guitar,0.12402375787496567,0
57,100,0.2590909090909091,462,1,82,DL_deepemotion_Guitar,6,4,DL_deepemotion_Guitar,0.9990229606628418,1
62,100,0.1409090909090909,559,0,82,DL_deepemotion_Guitar,6,2,DL_deepemotion_Guitar,0.3666306138038635,0
62,100,1.440909090909091,593,0,82,DL_deepemotion_Guitar,6,15,DL_deepemotion_Guitar,0.453293114900589,0
62,100,1.2227272727272727,35,1,83,DL_deepemotion_Guitar,6,15,DL_deepemotion_Guitar,0.9988419413566589,1
62,100,0.2772727272727273,339,1,83,DL_deepemotion_Guitar,6,4,DL_deepemotion_Guitar,0.13725589215755463,0
62,100,0.12272727272727273,487,0,83,DL_deepemotion_Guitar,6,2,DL_deepemotion_Guitar,0.15979087352752686,0
52,100,0.8181818181818182,527,0,83,DL_deepemotion_Guitar,6,13,DL_deepemotion_Guitar,0.18646477162837982,0
62,100,1.5,752,0,83,DL_deepemotion_Guitar,6,15,DL_deepemotion_Guitar,0.2581762373447418,0
62,100,0.5409090909090909,294,1,84,DL_deepemotion_Guitar,6,9,DL_deepemotion_Guitar,0.9984880685806274,1
57,100,0.2590909090909091,417,0,84,DL_deepemotion_Guitar,6,4,DL_deepemotion_Guitar,0.06334701925516129,0
62,100,0.12272727272727273,496,0,84,DL_deepemotion_Guitar,6,2,DL_deepemotion_Guitar,0.05774383246898651,0
57,100,0.21818181818181817,656,0,84,DL_deepemotion_Guitar,6,3,DL_deepemotion_Guitar,0.06020476296544075,0
57,100,0.21818181818181817,722,0,84,DL_deepemotion_Guitar,6,3,DL_deepemotion_Guitar,0.06970654428005219,0
62,100,0.2,773,0,84,DL_deepemotion_Guitar,6,3,DL_deepemotion_Guitar,0.0818987563252449,0
62,100,0.3,870,0,84,DL_deepemotion_Guitar,6,5,DL_deepemotion_Guitar,0.12402987480163574,0
62,100,0.2409090909090909,430,1,85,DL_deepemotion_Guitar,6,4,DL_deepemotion_Guitar,0.9988419413566589,1
59,100,0.11818181818181818,603,0,85,DL_deepemotion_Guitar,6,2,DL_deepemotion_Guitar,0.13725264370441437,0
59,100,0.5,633,0,85,DL_deepemotion_Guitar,6,8,DL_deepemotion_Guitar,0.1597852110862732,0
62,100,0.12272727272727273,752,0,85,DL_deepemotion_Guitar,6,2,DL_deepemotion_Guitar,0.18645250797271729,0
62,100,1.0818181818181818,817,0,85,DL_deepemotion_Guitar,6,15,DL_deepemotion_Guitar,0.25817230343818665,0
62,100,0.1,179,1,86,DL_deepemotion_Guitar,6,2,DL_deepemotion_Guitar,0.9984880685806274,1
62,100,0.2,206,0,86,DL_deepemotion_Guitar,6,3,DL_deepemotion_Guitar,0.06334636360406876,0
62,100,0.1590909090909091,276,0,86,DL_deepemotion_Guitar,6,3,DL_deepemotion_Guitar,0.057744093239307404,0
59,100,0.4409090909090909,312,0,86,DL_deepemotion_Guitar,6,7,DL_deepemotion_Guitar,0.06020530313253403,0
57,100,0.18181818181818182,453,0,86,DL_deepemotion_Guitar,6,3,DL_deepemotion_Guitar,0.06970653682947159,0
64,100,0.2590909090909091,546,0,86,DL_deepemotion_Guitar,6,4,DL_deepemotion_Guitar,0.08190135657787323,0
57,100,0.36363636363636365,663,0,86,DL_deepemotion_Guitar,6,6,DL_deepemotion_Guitar,0.12402563542127609,0
64,100,0.9818181818181818,13,1,87,DL_deepemotion_Guitar,6,15,DL_deepemotion_Guitar,0.9988419413566589,1
57,100,0.35909090909090907,229,0,87,DL_deepemotion_Guitar,6,6,DL_deepemotion_Guitar,0.13724753260612488,0
64,100,0.2636363636363636,312,0,87,DL_deepemotion_Guitar,6,4,DL_deepemotion_Guitar,0.1597839891910553,0
57,100,0.1,373,0,87,DL_deepemotion_Guitar,6,2,DL_deepemotion_Guitar,0.18645285069942474,0
62,100,0.1590909090909091,716,1,87,DL_deepemotion_Guitar,6,3,DL_deepemotion_Guitar,0.2581694722175598,0
62,100,0.2,30,1,88,DL_deepemotion_Guitar,6,3,DL_deepemotion_Guitar,0.9983736276626587,1
62,100,0.18181818181818182,79,0,88,DL_deepemotion_Guitar,6,3,DL_deepemotion_Guitar,0.05106210336089134,0
57,100,0.2,303,0,88,DL_deepemotion_Guitar,6,3,DL_deepemotion_Guitar,0.04130379855632782,0
64,100,1.040909090909091,426,0,88,DL_deepemotion_Guitar,6,15,DL_deepemotion_Guitar,0.03738747164607048,0
64,100,0.1,660,1,88,DL_deepemotion_Guitar,6,2,DL_deepemotion_Guitar,0.038331061601638794,0
64,100,0.11818181818181818,690,0,88,DL_deepemotion_Guitar,6,2,DL_deepemotion_Guitar,0.04475252702832222,0
57,100,0.1,787,0,88,DL_deepemotion_Guitar,6,2,DL_deepemotion_Guitar,0.05523212254047394,0
64,100,0.1409090909090909,870,0,88,DL_deepemotion_Guitar,6,2,DL_deepemotion_Guitar,0.09027133882045746,0
64,100,0.7636363636363637,26,1,89,DL_deepemotion_Guitar,6,12,DL_deepemotion_Guitar,0.9990057349205017,1
57,100,0.5181818181818182,193,0,89,DL_deepemotion_Guitar,6,8,DL_deepemotion_Guitar,0.23120562732219696,0
62,100,1.0,356,0,89,DL_deepemotion_Guitar,6,15,DL_deepemotion_Guitar,0.26592111587524414,0
59,100,1.0227272727272727,606,1,89,DL_deepemotion_Guitar,6,15,DL_deepemotion_Guitar,0.35420095920562744,0
62,100,0.6772727272727272,216,1,90,DL_deepemotion_Guitar,6,11,DL_deepemotion_Guitar,0.9990057349205017,1
55,100,0.18181818181818182,399,0,90,DL_deepemotion_Guitar,6,3,DL_deepemotion_Guitar,0.23120638728141785,0
59,100,0.21818181818181817,514,0,90,DL_deepemotion_Guitar,6,3,DL_deepemotion_Guitar,0.2659228444099426,0
59,100,0.41818181818181815,722,0,90,DL_deepemotion_Guitar,6,7,DL_deepemotion_Guitar,0.3541995882987976,0
64,100,0.32272727272727275,223,1,91,DL_deepemotion_Guitar,6,5,DL_deepemotion_Guitar,0.9990229606628418,1
66,100,0.12272727272727273,475,1,91,DL_deepemotion_Guitar,6,2,DL_deepemotion_Guitar,0.3666204810142517,0
62,100,0.2,650,0,91,DL_deepemotion_Guitar,6,3,DL_deepemotion_Guitar,0.4532913565635681,0
66,100,0.4,496,1,93,DL_deepemotion_Guitar,6,6,DL_deepemotion_Guitar,0.9983165264129639,1
66,100,0.8,590,0,93,DL_deepemotion_Guitar,6,13,DL_deepemotion_Guitar,0.5445544123649597,0
66,100,0.3409090909090909,96,1,94,DL_deepemotion_Guitar,6,5,DL_deepemotion_Guitar,0.9988419413566589,1
62,100,0.21818181818181817,260,0,94,DL_deepemotion_Guitar,6,3,DL_deepemotion_Guitar,0.13725006580352783,0
62,100,0.1409090909090909,352,0,94,DL_deepemotion_Guitar,6,2,DL_deepemotion_Guitar,0.15978297591209412,0
55,100,0.2818181818181818,585,1,94,DL_deepemotion_Guitar,6,5,DL_deepemotion_Guitar,0.18646129965782166,0
55,100,1.040909090909091,650,0,94,DL_deepemotion_Guitar,6,15,DL_deepemotion_Guitar,0.2581729590892792,0
62,100,0.1590909090909091,132,1,95,DL_deepemotion_Guitar,6,3,DL_deepemotion_Guitar,0.9990057349205017,1
62,100,0.5590909090909091,172,0,95,DL_deepemotion_Guitar,6,9,DL_deepemotion_Guitar,0.23120634257793427,0
66,100,0.8181818181818182,396,0,95,DL_deepemotion_Guitar,6,13,DL_deepemotion_Guitar,0.2659222483634949,0
66,100,0.18181818181818182,619,0,95,DL_deepemotion_Guitar,6,3,DL_deepemotion_Guitar,0.35419952869415283,0
62,100,0.18181818181818182,333,1,96,DL_deepemotion_Guitar,6,3,DL_deepemotion_Guitar,0.9988419413566589,1
62,100,0.6590909090909091,392,0,96,DL_deepemotion_Guitar,6,11,DL_deepemotion_Guitar,0.13724829256534576,0
62,100,0.12272727272727273,563,0,96,DL_deepemotion_Guitar,6,2,DL_deepemotion_Guitar,0.15977869927883148,0
62,100,0.18181818181818182,650,0,96,DL_deepemotion_Guitar,6,3,DL_deepemotion_Guitar,0.1864526867866516,0
64,100,0.2590909090909091,695,0,96,DL_deepemotion_Guitar,6,4,DL_deepemotion_Guitar,0.2581789493560791,0
64,100,0.2409090909090909,53,1,97,DL_deepemotion_Guitar,6,4,DL_deepemotion_Guitar,0.9988419413566589,1
52,100,0.18181818181818182,179,0,97,DL_deepemotion_Guitar,6,3,DL_deepemotion_Guitar,0.13725027441978455,0
54,100,0.8772727272727273,250,0,97,DL_deepemotion_Guitar,6,14,DL_deepemotion_Guitar,0.15977661311626434,0
66,100,0.1,553,1,97,DL_deepemotion_Guitar,6,2,DL_deepemotion_Guitar,0.18645185232162476,0
54,100,0.41818181818181815,734,0,97,DL_deepemotion_Guitar,6,7,DL_deepemotion_Guitar,0.2581636905670166,0
62,100,0.5,87,1,98,DL_deepemotion_Guitar,6,8,DL_deepemotion_Guitar,0.9990230798721313,1
55,100,1.7,223,0,98,DL_deepemotion_Guitar,6,15,DL_deepemotion_Guitar,0.3666203022003174,0
62,100,0.22272727272727272,817,1,98,DL_deepemotion_Guitar,6,4,DL_deepemotion_Guitar,0.4532987177371979,0
62,100,0.1,184,1,99,DL_deepemotion_Guitar,6,2,DL_deepemotion_Guitar,0.9990230798721313,1
62,100,0.6590909090909091,493,1,99,DL_deepemotion_Guitar,6,11,DL_deepemotion_Guitar,0.36663591861724854,0
57,100,0.1590909090909091,646,0,99,DL_deepemotion_Guitar,6,3,DL_deepemotion_Guitar,0.45329827070236206,0
62,100,0.5590909090909091,62,1,100,DL_deepemotion_Guitar,6,9,DL_deepemotion_Guitar,0.9990057349205017,1
62,100,1.1227272727272728,365,1,100,DL_deepemotion_Guitar,6,15,DL_deepemotion_Guitar,0.23120470345020294,0
62,100,0.3409090909090909,690,1,100,DL_deepemotion_Guitar,6,5,DL_deepemotion_Guitar,0.2659263610839844,0
64,100,0.2636363636363636,796,0,100,DL_deepemotion_Guitar,6,4,DL_deepemotion_Guitar,0.354214608669281,0
62,100,0.6590909090909091,22,1,101,DL_deepemotion_Guitar,6,11,DL_deepemotion_Guitar,0.9988419413566589,1
62,100,0.18181818181818182,189,0,101,DL_deepemotion_Guitar,6,3,DL_deepemotion_Guitar,0.13724951446056366,0
62,100,1.0,233,0,101,DL_deepemotion_Guitar,6,15,DL_deepemotion_Guitar,0.1597803682088852,0
66,100,0.21818181818181817,457,0,101,DL_deepemotion_Guitar,6,3,DL_deepemotion_Guitar,0.18646211922168732,0
66,100,0.4,509,0,101,DL_deepemotion_Guitar,6,6,DL_deepemotion_Guitar,0.2581753432750702,0
66,100,0.2,96,1,102,DL_deepemotion_Guitar,6,3,DL_deepemotion_Guitar,0.9990229606628418,1
62,100,0.21818181818181817,457,1,102,DL_deepemotion_Guitar,6,3,DL_deepemotion_Guitar,0.3666285276412964,0
62,100,0.11818181818181818,567,0,102,DL_deepemotion_Guitar,6,2,DL_deepemotion_Guitar,0.4532955586910248,0
62,100,0.6181818181818182,853,1,103,DL_deepemotion_Guitar,6,10,DL_deepemotion_Guitar,0.9792556166648865,0
53,100,0.2818181818181818,510,1,0,DL_heartfullpop_2_Guitar,6,5,DL_heartfullpop_2_Guitar,0.9988419413566589,1
60,100,0.1409090909090909,673,0,0,DL_heartfullpop_2_Guitar,6,2,DL_heartfullpop_2_Guitar,0.1372472047805786,0
60,100,0.16363636363636364,708,0,0,DL_heartfullpop_2_Guitar,6,3,DL_heartfullpop_2_Guitar,0.15977641940116882,0
60,100,0.2,748,0,0,DL_heartfullpop_2_Guitar,6,3,DL_heartfullpop_2_Guitar,0.18644379079341888,0
60,100,0.1,801,0,0,DL_heartfullpop_2_Guitar,6,2,DL_heartfullpop_2_Guitar,0.2581656277179718,0
60,100,0.1590909090909091,343,1,1,DL_heartfullpop_2_Guitar,6,3,DL_heartfullpop_2_Guitar,0.9990230798721313,1
60,100,0.3,695,1,1,DL_heartfullpop_2_Guitar,6,5,DL_heartfullpop_2_Guitar,0.36662375926971436,0
53,100,0.16363636363636364,796,0,1,DL_heartfullpop_2_Guitar,6,3,DL_heartfullpop_2_Guitar,0.45328617095947266,0
60,100,0.21818181818181817,106,1,2,DL_heartfullpop_2_Guitar,6,3,DL_heartfullpop_2_Guitar,0.9990057349205017,1
60,100,0.3409090909090909,616,1,2,DL_heartfullpop_2_Guitar,6,5,DL_heartfullpop_2_Guitar,0.23119792342185974,0
53,100,0.12272727272727273,694,0,2,DL_heartfullpop_2_Guitar,6,2,DL_heartfullpop_2_Guitar,0.26592138409614563,0
60,100,0.3,761,0,2,DL_heartfullpop_2_Guitar,6,5,DL_heartfullpop_2_Guitar,0.35419365763664246,0
65,100,0.21818181818181817,43,1,4,DL_heartfullpop_2_Guitar,6,3,DL_heartfullpop_2_Guitar,0.9983165264129639,1
53,100,0.13636363636363635,875,1,4,DL_heartfullpop_2_Guitar,6,2,DL_heartfullpop_2_Guitar,0.5445523858070374,0
65,100,0.21818181818181817,40,1,5,DL_heartfullpop_2_Guitar,6,3,DL_heartfullpop_2_Guitar,0.9988419413566589,1
65,100,0.2409090909090909,189,0,5,DL_heartfullpop_2_Guitar,6,4,DL_heartfullpop_2_Guitar,0.1372438371181488,0
58,100,0.2,391,0,5,DL_heartfullpop_2_Guitar,6,3,DL_heartfullpop_2_Guitar,0.15977460145950317,0
53,100,0.1590909090909091,721,1,5,DL_heartfullpop_2_Guitar,6,3,DL_heartfullpop_2_Guitar,0.18644534051418304,0
53,100,0.4409090909090909,770,0,5,DL_heartfullpop_2_Guitar,6,7,DL_heartfullpop_2_Guitar,0.25815528631210327,0
53,100,0.1590909090909091,150,1,6,DL_heartfullpop_2_Guitar,6,3,DL_heartfullpop_2_Guitar,0.9986500144004822,1
53,100,0.17727272727272728,545,1,6,DL_heartfullpop_2_Guitar,6,3,DL_heartfullpop_2_Guitar,0.08779968321323395,0
53,100,0.12272727272727273,598,0,6,DL_heartfullpop_2_Guitar,6,2,DL_heartfullpop_2_Guitar,0.09181103855371475,0
53,100,0.11818181818181818,721,0,6,DL_heartfullpop_2_Guitar,6,2,DL_heartfullpop_2_Guitar,0.10747392475605011,0
65,100,0.1,774,0,6,DL_heartfullpop_2_Guitar,6,2,DL_heartfullpop_2_Guitar,0.12482137978076935,0
53,100,0.11818181818181818,801,0,6,DL_heartfullpop_2_Guitar,6,2,DL_heartfullpop_2_Guitar,0.17902669310569763,0
53,100,0.38181818181818183,506,1,7,DL_heartfullpop_2_Guitar,6,6,DL_heartfullpop_2_Guitar,0.979256272315979,1
65,100,0.1,0,1,8,DL_heartfullpop_2_Guitar,6,2,DL_heartfullpop_2_Guitar,0.9792561531066895,0
65,100,0.21818181818181817,171,1,9,DL_heartfullpop_2_Guitar,6,3,DL_heartfullpop_2_Guitar,0.9792560338973999,0
53,100,0.3409090909090909,13,1,10,DL_heartfullpop_2_Guitar,6,5,DL_heartfullpop_2_Guitar,0.9984880685806274,1
53,100,0.4,118,0,10,DL_heartfullpop_2_Guitar,6,6,DL_heartfullpop_2_Guitar,0.06334435939788818,0
60,100,0.4772727272727273,216,0,10,DL_heartfullpop_2_Guitar,6,8,DL_heartfullpop_2_Guitar,0.05774276703596115,0
60,100,0.5590909090909091,391,0,10,DL_heartfullpop_2_Guitar,6,9,DL_heartfullpop_2_Guitar,0.06020166724920273,0
53,100,0.23636363636363636,524,0,10,DL_heartfullpop_2_Guitar,6,4,DL_heartfullpop_2_Guitar,0.06970152258872986,0
60,100,0.5409090909090909,584,0,10,DL_heartfullpop_2_Guitar,6,9,DL_heartfullpop_2_Guitar,0.08189613372087479,0
53,100,0.3,756,0,10,DL_heartfullpop_2_Guitar,6,5,DL_heartfullpop_2_Guitar,0.12402097135782242,0
53,100,0.2772727272727273,17,1,11,DL_heartfullpop_2_Guitar,6,4,DL_heartfullpop_2_Guitar,0.9986500144004822,1
65,100,0.1590909090909091,79,0,11,DL_heartfullpop_2_Guitar,6,3,DL_heartfullpop_2_Guitar,0.08780156075954437,0
53,100,0.12272727272727273,113,0,11,DL_heartfullpop_2_Guitar,6,2,DL_heartfullpop_2_Guitar,0.09181209653615952,0
53,100,0.3181818181818182,149,0,11,DL_heartfullpop_2_Guitar,6,5,DL_heartfullpop_2_Guitar,0.10747583955526352,0
60,100,0.5363636363636364,281,0,11,DL_heartfullpop_2_Guitar,6,9,DL_heartfullpop_2_Guitar,0.12482432276010513,0
60,100,0.1,422,0,11,DL_heartfullpop_2_Guitar,6,2,DL_heartfullpop_2_Guitar,0.17903190851211548,0
57,100,0.5,61,1,12,DL_heartfullpop_2_Guitar,6,8,DL_heartfullpop_2_Guitar,0.9988419413566589,1
62,100,0.2,206,0,12,DL_heartfullpop_2_Guitar,6,3,DL_heartfullpop_2_Guitar,0.1372469663619995,0
61,100,0.1409090909090909,250,0,12,DL_heartfullpop_2_Guitar,6,2,DL_heartfullpop_2_Guitar,0.15977565944194794,0
53,100,0.3181818181818182,307,0,12,DL_heartfullpop_2_Guitar,6,5,DL_heartfullpop_2_Guitar,0.18643952906131744,0
58,100,0.5181818181818182,594,1,12,DL_heartfullpop_2_Guitar,6,8,DL_heartfullpop_2_Guitar,0.2581618130207062,0
58,100,0.2409090909090909,233,1,13,DL_heartfullpop_2_Guitar,6,4,DL_heartfullpop_2_Guitar,0.9983165264129639,1
53,100,0.21818181818181817,589,1,13,DL_heartfullpop_2_Guitar,6,3,DL_heartfullpop_2_Guitar,0.5445497632026672,0
53,100,0.22272727272727272,708,1,14,DL_heartfullpop_2_Guitar,6,4,DL_heartfullpop_2_Guitar,0.9990229606628418,1
60,100,0.2409090909090909,773,0,14,DL_heartfullpop_2_Guitar,6,4,DL_heartfullpop_2_Guitar,0.36662691831588745,0
60,100,0.23636363636363636,831,0,14,DL_heartfullpop_2_Guitar,6,4,DL_heartfullpop_2_Guitar,0.45329225063323975,0
53,100,0.2409090909090909,70,1,15,DL_heartfullpop_2_Guitar,6,4,DL_heartfullpop_2_Guitar,0.9983736276626587,1
53,100,0.42272727272727273,158,0,15,DL_heartfullpop_2_Guitar,6,7,DL_heartfullpop_2_Guitar,0.05106060206890106,0
53,100,0.35909090909090907,254,0,15,DL_heartfullpop_2_Guitar,6,6,DL_heartfullpop_2_Guitar,0.04130231961607933,0
53,100,0.35909090909090907,391,0,15,DL_heartfullpop_2_Guitar,6,6,DL_heartfullpop_2_Guitar,0.0373845100402832,0
60,100,0.33636363636363636,656,1,15,DL_heartfullpop_2_Guitar,6,5,DL_heartfullpop_2_Guitar,0.038328688591718674,0
60,100,0.11818181818181818,756,0,15,DL_heartfullpop_2_Guitar,6,2,DL_heartfullpop_2_Guitar,0.044750187546014786,0
60,100,0.1,840,0,15,DL_heartfullpop_2_Guitar,6,2,DL_heartfullpop_2_Guitar,0.05522662401199341,0
60,100,0.1409090909090909,866,0,15,DL_heartfullpop_2_Guitar,6,2,DL_heartfullpop_2_Guitar,0.09026236087083817,0
53,100,0.22272727272727272,26,1,16,DL_heartfullpop_2_Guitar,6,4,DL_heartfullpop_2_Guitar,0.9983003735542297,1
60,100,0.12272727272727273,92,0,16,DL_heartfullpop_2_Guitar,6,2,DL_heartfullpop_2_Guitar,0.04466477036476135,0
60,100,0.2590909090909091,220,0,16,DL_heartfullpop_2_Guitar,6,4,DL_heartfullpop_2_Guitar,0.033149223774671555,0
60,100,0.18181818181818182,308,0,16,DL_heartfullpop_2_Guitar,6,3,DL_heartfullpop_2_Guitar,0.026579178869724274,0
53,100,0.21818181818181817,347,0,16,DL_heartfullpop_2_Guitar,6,3,DL_heartfullpop_2_Guitar,0.023594098165631294,0
60,100,0.17727272727272728,501,0,16,DL_heartfullpop_2_Guitar,6,3,DL_heartfullpop_2_Guitar,0.024314122274518013,0
53,100,0.35909090909090907,540,0,16,DL_heartfullpop_2_Guitar,6,6,DL_heartfullpop_2_Guitar,0.029688691720366478,0
53,100,0.4,669,0,16,DL_heartfullpop_2_Guitar,6,6,DL_heartfullpop_2_Guitar,0.04007554426789284,0
65,100,0.2409090909090909,756,0,16,DL_heartfullpop_2_Guitar,6,4,DL_heartfullpop_2_Guitar,0.07092756032943726,0
53,100,0.11818181818181818,9,1,17,DL_heartfullpop_2_Guitar,6,2,DL_heartfullpop_2_Guitar,0.9983003735542297,1
53,100,0.4590909090909091,57,0,17,DL_heartfullpop_2_Guitar,6,7,DL_heartfullpop_2_Guitar,0.04466359317302704,0
62,100,0.1409090909090909,175,0,17,DL_heartfullpop_2_Guitar,6,2,DL_heartfullpop_2_Guitar,0.03314986452460289,0
62,100,0.11818181818181818,216,0,17,DL_heartfullpop_2_Guitar,6,2,DL_heartfullpop_2_Guitar,0.026579730212688446,0
65,100,0.12272727272727273,488,1,17,DL_heartfullpop_2_Guitar,6,2,DL_heartfullpop_2_Guitar,0.023595040664076805,0
57,100,0.32272727272727275,576,0,17,DL_heartfullpop_2_Guitar,6,5,DL_heartfullpop_2_Guitar,0.024314774200320244,0
62,100,0.18181818181818182,663,0,17,DL_heartfullpop_2_Guitar,6,3,DL_heartfullpop_2_Guitar,0.029689818620681763,0
62,100,0.1409090909090909,783,0,17,DL_heartfullpop_2_Guitar,6,2,DL_heartfullpop_2_Guitar,0.040077414363622665,0
65,100,0.35909090909090907,858,0,17,DL_heartfullpop_2_Guitar,6,6,DL_heartfullpop_2_Guitar,0.07092927396297455,0
57,100,0.11818181818181818,295,1,18,DL_heartfullpop_2_Guitar,6,2,DL_heartfullpop_2_Guitar,0.9990057349205017,1
62,100,0.2818181818181818,443,0,18,DL_heartfullpop_2_Guitar,6,5,DL_heartfullpop_2_Guitar,0.23121480643749237,0
53,100,0.3,607,0,18,DL_heartfullpop_2_Guitar,6,5,DL_heartfullpop_2_Guitar,0.26592525839805603,0
62,100,0.21818181818181817,858,1,18,DL_heartfullpop_2_Guitar,6,3,DL_heartfullpop_2_Guitar,0.354204922914505,0
65,100,0.2409090909090909,57,1,19,DL_heartfullpop_2_Guitar,6,4,DL_heartfullpop_2_Guitar,0.9986500144004822,1
65,100,0.4590909090909091,131,0,19,DL_heartfullpop_2_Guitar,6,7,DL_heartfullpop_2_Guitar,0.08780111372470856,0
60,100,0.2409090909090909,405,1,19,DL_heartfullpop_2_Guitar,6,4,DL_heartfullpop_2_Guitar,0.09181218594312668,0
53,100,0.2636363636363636,488,0,19,DL_heartfullpop_2_Guitar,6,4,DL_heartfullpop_2_Guitar,0.1074737161397934,0
53,100,0.35909090909090907,681,0,19,DL_heartfullpop_2_Guitar,6,6,DL_heartfullpop_2_Guitar,0.12482022494077682,0
62,100,0.11818181818181818,810,0,19,DL_heartfullpop_2_Guitar,6,2,DL_heartfullpop_2_Guitar,0.17903004586696625,0
53,100,0.9409090909090909,9,1,20,DL_heartfullpop_2_Guitar,6,15,DL_heartfullpop_2_Guitar,0.9982553124427795,1
65,100,0.17727272727272728,216,0,20,DL_heartfullpop_2_Guitar,6,3,DL_heartfullpop_2_Guitar,0.041287634521722794,0
53,100,0.2,254,0,20,DL_heartfullpop_2_Guitar,6,3,DL_heartfullpop_2_Guitar,0.02893359586596489,0
62,100,0.2590909090909091,320,0,20,DL_heartfullpop_2_Guitar,6,4,DL_heartfullpop_2_Guitar,0.021287987008690834,0
53,100,0.2,391,0,20,DL_heartfullpop_2_Guitar,6,3,DL_heartfullpop_2_Guitar,0.016744578257203102,0
65,100,0.1409090909090909,449,0,20,DL_heartfullpop_2_Guitar,6,2,DL_heartfullpop_2_Guitar,0.014917830936610699,0
53,100,0.36363636363636365,509,0,20,DL_heartfullpop_2_Guitar,6,6,DL_heartfullpop_2_Guitar,0.016015464439988136,0
62,100,0.1409090909090909,602,0,20,DL_heartfullpop_2_Guitar,6,2,DL_heartfullpop_2_Guitar,0.021178701892495155,0
53,100,0.740909090909091,642,0,20,DL_heartfullpop_2_Guitar,6,12,DL_heartfullpop_2_Guitar,0.031566161662340164,0
65,100,0.18181818181818182,818,0,20,DL_heartfullpop_2_Guitar,6,3,DL_heartfullpop_2_Guitar,0.060059819370508194,0
65,100,0.4409090909090909,52,1,21,DL_heartfullpop_2_Guitar,6,7,DL_heartfullpop_2_Guitar,0.9982553124427795,1
53,100,0.33636363636363636,150,0,21,DL_heartfullpop_2_Guitar,6,5,DL_heartfullpop_2_Guitar,0.04128751903772354,0
62,100,0.11818181818181818,241,0,21,DL_heartfullpop_2_Guitar,6,2,DL_heartfullpop_2_Guitar,0.028934264555573463,0
62,100,0.18181818181818182,299,0,21,DL_heartfullpop_2_Guitar,6,3,DL_heartfullpop_2_Guitar,0.021288016811013222,0
65,100,0.3,356,0,21,DL_heartfullpop_2_Guitar,6,5,DL_heartfullpop_2_Guitar,0.016744837164878845,0
53,100,0.2,422,0,21,DL_heartfullpop_2_Guitar,6,3,DL_heartfullpop_2_Guitar,0.014917781576514244,0
65,100,0.11818181818181818,550,0,21,DL_heartfullpop_2_Guitar,6,2,DL_heartfullpop_2_Guitar,0.016015224158763885,0
65,100,0.12272727272727273,642,0,21,DL_heartfullpop_2_Guitar,6,2,DL_heartfullpop_2_Guitar,0.02117892913520336,0
53,100,0.4,669,0,21,DL_heartfullpop_2_Guitar,6,6,DL_heartfullpop_2_Guitar,0.03156617656350136,0
53,100,0.1409090909090909,804,0,21,DL_heartfullpop_2_Guitar,6,2,DL_heartfullpop_2_Guitar,0.06005765497684479,0
55,100,0.3,30,1,22,DL_heartfullpop_2_Guitar,6,5,DL_heartfullpop_2_Guitar,0.9984880685806274,1
62,100,0.5590909090909091,171,0,22,DL_heartfullpop_2_Guitar,6,9,DL_heartfullpop_2_Guitar,0.0633459985256195,0
53,100,0.2409090909090909,316,0,22,DL_heartfullpop_2_Guitar,6,4,DL_heartfullpop_2_Guitar,0.0577428974211216,0
62,100,0.18181818181818182,528,0,22,DL_heartfullpop_2_Guitar,6,3,DL_heartfullpop_2_Guitar,0.06020287051796913,0
62,100,0.4590909090909091,594,0,22,DL_heartfullpop_2_Guitar,6,7,DL_heartfullpop_2_Guitar,0.06970513612031937,0
62,100,0.12272727272727273,729,0,22,DL_heartfullpop_2_Guitar,6,2,DL_heartfullpop_2_Guitar,0.08189868927001953,0
53,100,0.1409090909090909,801,0,22,DL_heartfullpop_2_Guitar,6,2,DL_heartfullpop_2_Guitar,0.12402422726154327,0
53,100,0.21818181818181817,0,1,23,DL_heartfullpop_2_Guitar,6,3,DL_heartfullpop_2_Guitar,0.9983736276626587,1
53,100,0.22272727272727272,79,0,23,DL_heartfullpop_2_Guitar,6,4,DL_heartfullpop_2_Guitar,0.051059745252132416,0
60,100,0.1590909090909091,150,0,23,DL_heartfullpop_2_Guitar,6,3,DL_heartfullpop_2_Guitar,0.04130234941840172,0
65,100,0.18181818181818182,356,0,23,DL_heartfullpop_2_Guitar,6,3,DL_heartfullpop_2_Guitar,0.03738335520029068,0
53,100,0.4590909090909091,453,0,23,DL_heartfullpop_2_Guitar,6,7,DL_heartfullpop_2_Guitar,0.03832713142037392,0
53,100,0.2772727272727273,590,0,23,DL_heartfullpop_2_Guitar,6,4,DL_heartfullpop_2_Guitar,0.04474841058254242,0
60,100,0.3,779,0,23,DL_heartfullpop_2_Guitar,6,5,DL_heartfullpop_2_Guitar,0.055226899683475494,0
53,100,0.2,862,0,23,DL_heartfullpop_2_Guitar,6,3,DL_heartfullpop_2_Guitar,0.09026259183883667,0
53,100,0.7181818181818181,119,1,24,DL_heartfullpop_2_Guitar,6,11,DL_heartfullpop_2_Guitar,0.9988419413566589,1
60,100,0.4590909090909091,347,0,24,DL_heartfullpop_2_Guitar,6,7,DL_heartfullpop_2_Guitar,0.13724492490291595,0
53,100,0.13636363636363635,567,0,24,DL_heartfullpop_2_Guitar,6,2,DL_heartfullpop_2_Guitar,0.15977253019809723,0
53,100,0.11818181818181818,656,0,24,DL_heartfullpop_2_Guitar,6,2,DL_heartfullpop_2_Guitar,0.18644209206104279,0
53,100,0.37727272727272726,735,0,24,DL_heartfullpop_2_Guitar,6,6,DL_heartfullpop_2_Guitar,0.2581566572189331,0
60,100,0.13636363636363635,61,1,25,DL_heartfullpop_2_Guitar,6,2,DL_heartfullpop_2_Guitar,0.9983736276626587,1
53,100,0.1409090909090909,144,0,25,DL_heartfullpop_2_Guitar,6,2,DL_heartfullpop_2_Guitar,0.051060061901807785,0
53,100,0.4409090909090909,206,0,25,DL_heartfullpop_2_Guitar,6,7,DL_heartfullpop_2_Guitar,0.041301753371953964,0
60,100,0.4590909090909091,440,1,25,DL_heartfullpop_2_Guitar,6,7,DL_heartfullpop_2_Guitar,0.037386201322078705,0
60,100,0.1409090909090909,563,0,25,DL_heartfullpop_2_Guitar,6,2,DL_heartfullpop_2_Guitar,0.03832777589559555,0
60,100,0.16363636363636364,729,0,25,DL_heartfullpop_2_Guitar,6,3,DL_heartfullpop_2_Guitar,0.04475083574652672,0
53,100,0.23636363636363636,766,0,25,DL_heartfullpop_2_Guitar,6,4,DL_heartfullpop_2_Guitar,0.055226944386959076,0
60,100,0.1,839,0,25,DL_heartfullpop_2_Guitar,6,2,DL_heartfullpop_2_Guitar,0.09026318043470383,0
53,100,0.6227272727272727,26,1,26,DL_heartfullpop_2_Guitar,6,10,DL_heartfullpop_2_Guitar,0.9988419413566589,1
53,100,0.1590909090909091,175,0,26,DL_heartfullpop_2_Guitar,6,3,DL_heartfullpop_2_Guitar,0.13724428415298462,0
60,100,0.13636363636363635,216,0,26,DL_heartfullpop_2_Guitar,6,2,DL_heartfullpop_2_Guitar,0.15977229177951813,0
53,100,0.7,370,0,26,DL_heartfullpop_2_Guitar,6,11,DL_heartfullpop_2_Guitar,0.18643920123577118,0
60,100,0.4772727272727273,779,1,26,DL_heartfullpop_2_Guitar,6,8,DL_heartfullpop_2_Guitar,0.25816085934638977,0
65,100,0.3409090909090909,162,1,27,DL_heartfullpop_2_Guitar,6,5,DL_heartfullpop_2_Guitar,0.9792560338973999,0
65,100,0.2,113,1,28,DL_heartfullpop_2_Guitar,6,3,DL_heartfullpop_2_Guitar,0.9990057349205017,1
57,100,0.18181818181818182,356,1,28,DL_heartfullpop_2_Guitar,6,3,DL_heartfullpop_2_Guitar,0.23120103776454926,0
62,100,0.4,584,0,28,DL_heartfullpop_2_Guitar,6,6,DL_heartfullpop_2_Guitar,0.26592588424682617,0
53,100,0.5,796,0,28,DL_heartfullpop_2_Guitar,6,8,DL_heartfullpop_2_Guitar,0.3541982173919678,0
60,100,1.2818181818181817,88,1,29,DL_heartfullpop_2_Guitar,6,15,DL_heartfullpop_2_Guitar,0.9988419413566589,1
53,100,0.3409090909090909,492,1,29,DL_heartfullpop_2_Guitar,6,5,DL_heartfullpop_2_Guitar,0.13724462687969208,0
65,100,0.2,567,0,29,DL_heartfullpop_2_Guitar,6,3,DL_heartfullpop_2_Guitar,0.15977588295936584,0
53,100,0.32272727272727275,629,0,29,DL_heartfullpop_2_Guitar,6,5,DL_heartfullpop_2_Guitar,0.18644440174102783,0
65,100,0.18181818181818182,708,0,29,DL_heartfullpop_2_Guitar,6,3,DL_heartfullpop_2_Guitar,0.2581588327884674,0
60,100,0.2818181818181818,3,1,30,DL_heartfullpop_2_Guitar,6,5,DL_heartfullpop_2_Guitar,0.9984880685806274,1
53,100,0.4409090909090909,131,0,30,DL_heartfullpop_2_Guitar,6,7,DL_heartfullpop_2_Guitar,0.06334370374679565,0
65,100,0.4409090909090909,229,0,30,DL_heartfullpop_2_Guitar,6,7,DL_heartfullpop_2_Guitar,0.05774009972810745,0
53,100,0.2590909090909091,326,0,30,DL_heartfullpop_2_Guitar,6,4,DL_heartfullpop_2_Guitar,0.06019935756921768,0
65,100,0.33636363636363636,413,0,30,DL_heartfullpop_2_Guitar,6,5,DL_heartfullpop_2_Guitar,0.0696992501616478,0
60,100,0.2,650,1,30,DL_heartfullpop_2_Guitar,6,3,DL_heartfullpop_2_Guitar,0.08189135044813156,0
60,100,0.2636363636363636,708,0,30,DL_heartfullpop_2_Guitar,6,4,DL_heartfullpop_2_Guitar,0.124016672372818,0
62,100,0.35909090909090907,21,1,31,DL_heartfullpop_2_Guitar,6,6,DL_heartfullpop_2_Guitar,0.9990057349205017,1
60,100,0.33636363636363636,150,0,31,DL_heartfullpop_2_Guitar,6,5,DL_heartfullpop_2_Guitar,0.2312079668045044,0
53,100,0.22272727272727272,223,0,31,DL_heartfullpop_2_Guitar,6,4,DL_heartfullpop_2_Guitar,0.26591596007347107,0
62,100,0.1590909090909091,501,1,31,DL_heartfullpop_2_Guitar,6,3,DL_heartfullpop_2_Guitar,0.3541991710662842,0
53,100,0.3,748,1,32,DL_heartfullpop_2_Guitar,6,5,DL_heartfullpop_2_Guitar,0.9983164072036743,1
60,100,0.43636363636363634,875,0,32,DL_heartfullpop_2_Guitar,6,7,DL_heartfullpop_2_Guitar,0.5445610284805298,0
53,100,0.2,330,1,33,DL_heartfullpop_2_Guitar,6,3,DL_heartfullpop_2_Guitar,0.9792567491531372,0
53,100,0.1,91,1,34,DL_heartfullpop_2_Guitar,6,2,DL_heartfullpop_2_Guitar,0.9983736276626587,1
65,100,0.2,114,0,34,DL_heartfullpop_2_Guitar,6,3,DL_heartfullpop_2_Guitar,0.05106182396411896,0
62,100,0.2590909090909091,228,0,34,DL_heartfullpop_2_Guitar,6,4,DL_heartfullpop_2_Guitar,0.04130324348807335,0
62,100,0.21818181818181817,295,0,34,DL_heartfullpop_2_Guitar,6,3,DL_heartfullpop_2_Guitar,0.03738768398761749,0
53,100,0.2636363636363636,356,0,34,DL_heartfullpop_2_Guitar,6,4,DL_heartfullpop_2_Guitar,0.038331348448991776,0
62,100,0.3,418,0,34,DL_heartfullpop_2_Guitar,6,5,DL_heartfullpop_2_Guitar,0.044753916561603546,0
53,100,0.12272727272727273,628,0,34,DL_heartfullpop_2_Guitar,6,2,DL_heartfullpop_2_Guitar,0.05523097515106201,0
58,100,0.13636363636363635,700,0,34,DL_heartfullpop_2_Guitar,6,2,DL_heartfullpop_2_Guitar,0.09026877582073212,0
62,100,0.17727272727272728,8,1,35,DL_heartfullpop_2_Guitar,6,3,DL_heartfullpop_2_Guitar,0.9983003735542297,1
53,100,0.3,78,0,35,DL_heartfullpop_2_Guitar,6,5,DL_heartfullpop_2_Guitar,0.04466349259018898,0
65,100,0.1590909090909091,144,0,35,DL_heartfullpop_2_Guitar,6,3,DL_heartfullpop_2_Guitar,0.03314989432692528,0
62,100,0.9,251,0,35,DL_heartfullpop_2_Guitar,6,14,DL_heartfullpop_2_Guitar,0.026579178869724274,0
62,100,0.1409090909090909,471,0,35,DL_heartfullpop_2_Guitar,6,2,DL_heartfullpop_2_Guitar,0.023594802245497704,0
53,100,0.2590909090909091,528,0,35,DL_heartfullpop_2_Guitar,6,4,DL_heartfullpop_2_Guitar,0.0243141520768404,0
69,100,0.1409090909090909,593,0,35,DL_heartfullpop_2_Guitar,6,2,DL_heartfullpop_2_Guitar,0.02968948893249035,0
62,100,0.6590909090909091,691,0,35,DL_heartfullpop_2_Guitar,6,11,DL_heartfullpop_2_Guitar,0.040077246725559235,0
65,100,0.1409090909090909,836,0,35,DL_heartfullpop_2_Guitar,6,2,DL_heartfullpop_2_Guitar,0.07092880457639694,0
64,100,0.8,13,1,36,DL_heartfullpop_2_Guitar,6,13,DL_heartfullpop_2_Guitar,0.9984880685806274,1
60,100,0.21818181818181817,228,0,36,DL_heartfullpop_2_Guitar,6,3,DL_heartfullpop_2_Guitar,0.06334653496742249,0
60,100,0.4636363636363636,289,0,36,DL_heartfullpop_2_Guitar,6,7,DL_heartfullpop_2_Guitar,0.05774302780628204,0
64,100,0.35909090909090907,453,0,36,DL_heartfullpop_2_Guitar,6,6,DL_heartfullpop_2_Guitar,0.06020341441035271,0
60,100,0.2409090909090909,554,0,36,DL_heartfullpop_2_Guitar,6,4,DL_heartfullpop_2_Guitar,0.0697062686085701,0
57,100,0.2590909090909091,611,0,36,DL_heartfullpop_2_Guitar,6,4,DL_heartfullpop_2_Guitar,0.08189792931079865,0
60,100,0.5181818181818182,748,0,36,DL_heartfullpop_2_Guitar,6,8,DL_heartfullpop_2_Guitar,0.12402892112731934,0
57,100,0.1409090909090909,4,1,37,DL_heartfullpop_2_Guitar,6,2,DL_heartfullpop_2_Guitar,0.9990229606628418,1
69,100,0.21818181818181817,110,0,37,DL_heartfullpop_2_Guitar,6,3,DL_heartfullpop_2_Guitar,0.3666279911994934,0
62,100,0.13636363636363635,655,1,37,DL_heartfullpop_2_Guitar,6,2,DL_heartfullpop_2_Guitar,0.45329606533050537,0
62,100,0.1590909090909091,43,1,38,DL_heartfullpop_2_Guitar,6,3,DL_heartfullpop_2_Guitar,0.9984880685806274,1
64,100,0.11818181818181818,241,0,38,DL_heartfullpop_2_Guitar,6,2,DL_heartfullpop_2_Guitar,0.06334615498781204,0
65,100,0.22272727272727272,268,0,38,DL_heartfullpop_2_Guitar,6,4,DL_heartfullpop_2_Guitar,0.05774126201868057,0
53,100,0.11818181818181818,330,0,38,DL_heartfullpop_2_Guitar,6,2,DL_heartfullpop_2_Guitar,0.06020141765475273,0
53,100,0.22272727272727272,541,0,38,DL_heartfullpop_2_Guitar,6,4,DL_heartfullpop_2_Guitar,0.06970082968473434,0
53,100,0.1409090909090909,713,0,38,DL_heartfullpop_2_Guitar,6,2,DL_heartfullpop_2_Guitar,0.0818941667675972,0
62,100,0.11818181818181818,756,0,38,DL_heartfullpop_2_Guitar,6,2,DL_heartfullpop_2_Guitar,0.12401815503835678,0
65,100,0.3181818181818182,31,1,39,DL_heartfullpop_2_Guitar,6,5,DL_heartfullpop_2_Guitar,0.9988419413566589,1
53,100,0.37727272727272726,105,0,39,DL_heartfullpop_2_Guitar,6,6,DL_heartfullpop_2_Guitar,0.13724415004253387,0
58,100,0.1409090909090909,276,0,39,DL_heartfullpop_2_Guitar,6,2,DL_heartfullpop_2_Guitar,0.15977363288402557,0
65,100,0.2409090909090909,364,0,39,DL_heartfullpop_2_Guitar,6,4,DL_heartfullpop_2_Guitar,0.18643862009048462,0
60,100,0.4409090909090909,861,1,39,DL_heartfullpop_2_Guitar,6,7,DL_heartfullpop_2_Guitar,0.2581580579280853,0
60,100,0.5636363636363636,268,1,40,DL_heartfullpop_2_Guitar,6,9,DL_heartfullpop_2_Guitar,0.9986500144004822,1
60,100,0.1,421,0,40,DL_heartfullpop_2_Guitar,6,2,DL_heartfullpop_2_Guitar,0.08780243247747421,0
65,100,0.12272727272727273,606,0,40,DL_heartfullpop_2_Guitar,6,2,DL_heartfullpop_2_Guitar,0.09181240946054459,0
53,100,0.3181818181818182,638,0,40,DL_heartfullpop_2_Guitar,6,5,DL_heartfullpop_2_Guitar,0.10747604817152023,0
53,100,0.2590909090909091,765,0,40,DL_heartfullpop_2_Guitar,6,4,DL_heartfullpop_2_Guitar,0.12482548505067825,0
53,100,0.3,839,0,40,DL_heartfullpop_2_Guitar,6,5,DL_heartfullpop_2_Guitar,0.17902635037899017,0
62,100,0.4,61,1,41,DL_heartfullpop_2_Guitar,6,6,DL_heartfullpop_2_Guitar,0.9990057349205017,1
62,100,0.4409090909090909,440,1,41,DL_heartfullpop_2_Guitar,6,7,DL_heartfullpop_2_Guitar,0.23121319711208344,0
62,100,0.2818181818181818,563,0,41,DL_heartfullpop_2_Guitar,6,5,DL_heartfullpop_2_Guitar,0.2659248411655426,0
60,100,0.5590909090909091,668,0,41,DL_heartfullpop_2_Guitar,6,9,DL_heartfullpop_2_Guitar,0.354203999042511,0
53,100,0.17727272727272728,75,1,43,DL_heartfullpop_2_Guitar,6,3,DL_heartfullpop_2_Guitar,0.9983003735542297,1
57,100,0.33636363636363636,193,0,43,DL_heartfullpop_2_Guitar,6,5,DL_heartfullpop_2_Guitar,0.04466371238231659,0
65,100,0.12272727272727273,356,0,43,DL_heartfullpop_2_Guitar,6,2,DL_heartfullpop_2_Guitar,0.0331488698720932,0
53,100,0.2772727272727273,383,0,43,DL_heartfullpop_2_Guitar,6,4,DL_heartfullpop_2_Guitar,0.026578126475214958,0
53,100,0.32272727272727275,453,0,43,DL_heartfullpop_2_Guitar,6,5,DL_heartfullpop_2_Guitar,0.023593904450535774,0
57,100,0.17727272727272728,545,0,43,DL_heartfullpop_2_Guitar,6,3,DL_heartfullpop_2_Guitar,0.024312730878591537,0
53,100,0.22272727272727272,598,0,43,DL_heartfullpop_2_Guitar,6,4,DL_heartfullpop_2_Guitar,0.029688440263271332,0
53,100,0.32272727272727275,716,0,43,DL_heartfullpop_2_Guitar,6,5,DL_heartfullpop_2_Guitar,0.04007389023900032,0
53,100,0.23636363636363636,853,0,43,DL_heartfullpop_2_Guitar,6,4,DL_heartfullpop_2_Guitar,0.07092763483524323,0
57,100,0.32272727272727275,144,1,44,DL_heartfullpop_2_Guitar,6,5,DL_heartfullpop_2_Guitar,0.9983003735542297,1
53,100,0.3409090909090909,228,0,44,DL_heartfullpop_2_Guitar,6,5,DL_heartfullpop_2_Guitar,0.04466395080089569,0
57,100,0.18181818181818182,378,0,44,DL_heartfullpop_2_Guitar,6,3,DL_heartfullpop_2_Guitar,0.033149007707834244,0
53,100,0.2,493,0,44,DL_heartfullpop_2_Guitar,6,3,DL_heartfullpop_2_Guitar,0.02657928876578808,0
53,100,0.6590909090909091,545,0,44,DL_heartfullpop_2_Guitar,6,11,DL_heartfullpop_2_Guitar,0.023593692108988762,0
53,100,0.18181818181818182,751,0,44,DL_heartfullpop_2_Guitar,6,3,DL_heartfullpop_2_Guitar,0.024313533678650856,0
65,100,0.1409090909090909,791,0,44,DL_heartfullpop_2_Guitar,6,2,DL_heartfullpop_2_Guitar,0.0296882726252079,0
53,100,0.1409090909090909,823,0,44,DL_heartfullpop_2_Guitar,6,2,DL_heartfullpop_2_Guitar,0.04007638618350029,0
53,100,0.8181818181818182,875,0,44,DL_heartfullpop_2_Guitar,6,13,DL_heartfullpop_2_Guitar,0.070925273001194,0
53,100,0.4409090909090909,211,1,45,DL_heartfullpop_2_Guitar,6,7,DL_heartfullpop_2_Guitar,0.9990229606628418,1
62,100,0.2590909090909091,496,1,45,DL_heartfullpop_2_Guitar,6,4,DL_heartfullpop_2_Guitar,0.3666291832923889,0
62,100,0.1590909090909091,558,0,45,DL_heartfullpop_2_Guitar,6,3,DL_heartfullpop_2_Guitar,0.4532964527606964,0
62,100,0.37727272727272726,348,1,46,DL_heartfullpop_2_Guitar,6,6,DL_heartfullpop_2_Guitar,0.9988419413566589,1
62,100,0.2409090909090909,474,0,46,DL_heartfullpop_2_Guitar,6,4,DL_heartfullpop_2_Guitar,0.13725240528583527,0
65,100,0.22272727272727272,619,0,46,DL_heartfullpop_2_Guitar,6,4,DL_heartfullpop_2_Guitar,0.1597815603017807,0
62,100,0.4,694,0,46,DL_heartfullpop_2_Guitar,6,6,DL_heartfullpop_2_Guitar,0.18645453453063965,0
62,100,0.1409090909090909,861,0,46,DL_heartfullpop_2_Guitar,6,2,DL_heartfullpop_2_Guitar,0.2581731379032135,0
62,100,0.13636363636363635,61,1,47,DL_heartfullpop_2_Guitar,6,2,DL_heartfullpop_2_Guitar,0.9990229606628418,1
62,100,0.3,496,1,47,DL_heartfullpop_2_Guitar,6,5,DL_heartfullpop_2_Guitar,0.36662861704826355,0
53,100,0.3,638,0,47,DL_heartfullpop_2_Guitar,6,5,DL_heartfullpop_2_Guitar,0.453292578458786,0
53,100,0.12272727272727273,201,1,48,DL_heartfullpop_2_Guitar,6,2,DL_heartfullpop_2_Guitar,0.9988419413566589,1
53,100,0.22272727272727272,453,1,48,DL_heartfullpop_2_Guitar,6,4,DL_heartfullpop_2_Guitar,0.13724350929260254,0
53,100,0.1590909090909091,506,0,48,DL_heartfullpop_2_Guitar,6,3,DL_heartfullpop_2_Guitar,0.15977324545383453,0
53,100,0.41818181818181815,655,0,48,DL_heartfullpop_2_Guitar,6,7,DL_heartfullpop_2_Guitar,0.18643970787525177,0
53,100,0.2590909090909091,853,0,48,DL_heartfullpop_2_Guitar,6,4,DL_heartfullpop_2_Guitar,0.25815650820732117,0
53,100,0.2818181818181818,179,1,49,DL_heartfullpop_2_Guitar,6,5,DL_heartfullpop_2_Guitar,0.9986500144004822,1
62,100,0.11818181818181818,458,1,49,DL_heartfullpop_2_Guitar,6,2,DL_heartfullpop_2_Guitar,0.08780262619256973,0
60,100,0.1409090909090909,515,0,49,DL_heartfullpop_2_Guitar,6,2,DL_heartfullpop_2_Guitar,0.09181539714336395,0
53,100,0.17727272727272728,558,0,49,DL_heartfullpop_2_Guitar,6,3,DL_heartfullpop_2_Guitar,0.10747616738080978,0
53,100,0.5590909090909091,738,0,49,DL_heartfullpop_2_Guitar,6,9,DL_heartfullpop_2_Guitar,0.12482403963804245,0
53,100,0.1590909090909091,871,0,49,DL_heartfullpop_2_Guitar,6,3,DL_heartfullpop_2_Guitar,0.17903436720371246,0
65,100,0.18181818181818182,26,1,50,DL_heartfullpop_2_Guitar,6,3,DL_heartfullpop_2_Guitar,0.9988419413566589,1
53,100,0.1409090909090909,66,0,50,DL_heartfullpop_2_Guitar,6,2,DL_heartfullpop_2_Guitar,0.13724493980407715,0
62,100,0.4409090909090909,185,0,50,DL_heartfullpop_2_Guitar,6,7,DL_heartfullpop_2_Guitar,0.1597730815410614,0
60,100,0.3,396,0,50,DL_heartfullpop_2_Guitar,6,5,DL_heartfullpop_2_Guitar,0.18644893169403076,0
60,100,0.12272727272727273,474,0,50,DL_heartfullpop_2_Guitar,6,2,DL_heartfullpop_2_Guitar,0.25816404819488525,0
62,100,0.4,114,1,51,DL_heartfullpop_2_Guitar,6,6,DL_heartfullpop_2_Guitar,0.9990229606628418,1
60,100,0.1409090909090909,211,0,51,DL_heartfullpop_2_Guitar,6,2,DL_heartfullpop_2_Guitar,0.3666306138038635,0
65,100,0.38181818181818183,330,0,51,DL_heartfullpop_2_Guitar,6,6,DL_heartfullpop_2_Guitar,0.4532994031906128,0
58,100,0.1590909090909091,651,1,52,DL_heartfullpop_2_Guitar,6,3,DL_heartfullpop_2_Guitar,0.9983165264129639,1
53,100,0.1,691,0,52,DL_heartfullpop_2_Guitar,6,2,DL_heartfullpop_2_Guitar,0.5445549488067627,0
58,100,0.3409090909090909,66,1,53,DL_heartfullpop_2_Guitar,6,5,DL_heartfullpop_2_Guitar,0.9990229606628418,1
53,100,0.12272727272727273,408,1,53,DL_heartfullpop_2_Guitar,6,2,DL_heartfullpop_2_Guitar,0.3666304051876068,0
62,100,0.4,616,0,53,DL_heartfullpop_2_Guitar,6,6,DL_heartfullpop_2_Guitar,0.453286349773407,0
62,100,0.4590909090909091,853,1,54,DL_heartfullpop_2_Guitar,6,7,DL_heartfullpop_2_Guitar,0.979255735874176,0
62,100,0.1409090909090909,166,1,55,DL_heartfullpop_2_Guitar,6,2,DL_heartfullpop_2_Guitar,0.9986500144004822,1
62,100,0.759090909090909,286,0,55,DL_heartfullpop_2_Guitar,6,12,DL_heartfullpop_2_Guitar,0.08780582994222641,0
55,100,0.5590909090909091,518,1,55,DL_heartfullpop_2_Guitar,6,9,DL_heartfullpop_2_Guitar,0.0918181985616684,0
55,100,0.43636363636363634,655,0,55,DL_heartfullpop_2_Guitar,6,7,DL_heartfullpop_2_Guitar,0.10748092085123062,0
53,100,0.11818181818181818,765,0,55,DL_heartfullpop_2_Guitar,6,2,DL_heartfullpop_2_Guitar,0.1248294934630394,0
55,100,0.1409090909090909,804,0,55,DL_heartfullpop_2_Guitar,6,2,DL_heartfullpop_2_Guitar,0.179036483168602,0
55,100,0.12272727272727273,48,1,56,DL_heartfullpop_2_Guitar,6,2,DL_heartfullpop_2_Guitar,0.9990229606628418,1
60,100,0.7,351,1,56,DL_heartfullpop_2_Guitar,6,11,DL_heartfullpop_2_Guitar,0.3666272759437561,0
60,100,1.040909090909091,571,0,56,DL_heartfullpop_2_Guitar,6,15,DL_heartfullpop_2_Guitar,0.45329272747039795,0
53,100,0.11818181818181818,153,1,57,DL_heartfullpop_2_Guitar,6,2,DL_heartfullpop_2_Guitar,0.9792559146881104,0
65,100,0.18181818181818182,56,1,58,DL_heartfullpop_2_Guitar,6,3,DL_heartfullpop_2_Guitar,0.9990229606628418,1
65,100,0.3409090909090909,233,0,58,DL_heartfullpop_2_Guitar,6,5,DL_heartfullpop_2_Guitar,0.36661675572395325,0
60,100,0.4636363636363636,774,1,58,DL_heartfullpop_2_Guitar,6,7,DL_heartfullpop_2_Guitar,0.45329752564430237,0
60,100,0.18181818181818182,136,1,59,DL_heartfullpop_2_Guitar,6,3,DL_heartfullpop_2_Guitar,0.9983736276626587,1
60,100,0.2636363636363636,179,0,59,DL_heartfullpop_2_Guitar,6,4,DL_heartfullpop_2_Guitar,0.05106101185083389,0
60,100,0.1409090909090909,311,0,59,DL_heartfullpop_2_Guitar,6,2,DL_heartfullpop_2_Guitar,0.041302941739559174,0
53,100,0.5409090909090909,474,0,59,DL_heartfullpop_2_Guitar,6,9,DL_heartfullpop_2_Guitar,0.03738440200686455,0
53,100,0.3,606,0,59,DL_heartfullpop_2_Guitar,6,5,DL_heartfullpop_2_Guitar,0.03832912817597389,0
65,100,0.12272727272727273,673,0,59,DL_heartfullpop_2_Guitar,6,2,DL_heartfullpop_2_Guitar,0.04475056380033493,0
53,100,0.5363636363636364,743,0,59,DL_heartfullpop_2_Guitar,6,9,DL_heartfullpop_2_Guitar,0.055227916687726974,0
53,100,0.2818181818181818,871,0,59,DL_heartfullpop_2_Guitar,6,5,DL_heartfullpop_2_Guitar,0.09026356786489487,0
53,100,0.35909090909090907,128,1,60,DL_heartfullpop_2_Guitar,6,6,DL_heartfullpop_2_Guitar,0.9982553124427795,1
53,100,0.18181818181818182,276,0,60,DL_heartfullpop_2_Guitar,6,3,DL_heartfullpop_2_Guitar,0.04128683730959892,0
60,100,0.2,330,0,60,DL_heartfullpop_2_Guitar,6,3,DL_heartfullpop_2_Guitar,0.028933526948094368,0
53,100,0.2409090909090909,386,0,60,DL_heartfullpop_2_Guitar,6,4,DL_heartfullpop_2_Guitar,0.02128702402114868,0
65,100,0.11818181818181818,440,0,60,DL_heartfullpop_2_Guitar,6,2,DL_heartfullpop_2_Guitar,0.01674431934952736,0
53,100,0.16363636363636364,466,0,60,DL_heartfullpop_2_Guitar,6,3,DL_heartfullpop_2_Guitar,0.014917192049324512,0
53,100,0.16363636363636364,509,0,60,DL_heartfullpop_2_Guitar,6,3,DL_heartfullpop_2_Guitar,0.016014549881219864,0
60,100,0.1,606,0,60,DL_heartfullpop_2_Guitar,6,2,DL_heartfullpop_2_Guitar,0.021178144961595535,0
53,100,0.33636363636363636,633,0,60,DL_heartfullpop_2_Guitar,6,5,DL_heartfullpop_2_Guitar,0.03156541660428047,0
53,100,0.1590909090909091,716,0,60,DL_heartfullpop_2_Guitar,6,3,DL_heartfullpop_2_Guitar,0.060055796056985855,0
53,100,0.2590909090909091,18,1,61,DL_heartfullpop_2_Guitar,6,4,DL_heartfullpop_2_Guitar,0.9982276558876038,1
53,100,0.2590909090909091,78,0,61,DL_heartfullpop_2_Guitar,6,4,DL_heartfullpop_2_Guitar,0.03939660266041756,0
53,100,0.2,153,0,61,DL_heartfullpop_2_Guitar,6,3,DL_heartfullpop_2_Guitar,0.02667255513370037,0
53,100,0.2818181818181818,289,0,61,DL_heartfullpop_2_Guitar,6,5,DL_heartfullpop_2_Guitar,0.018586819991469383,0
65,100,0.2409090909090909,351,0,61,DL_heartfullpop_2_Guitar,6,4,DL_heartfullpop_2_Guitar,0.013412926346063614,0
53,100,0.3,405,0,61,DL_heartfullpop_2_Guitar,6,5,DL_heartfullpop_2_Guitar,0.010586420074105263,0
53,100,0.23636363636363636,545,0,61,DL_heartfullpop_2_Guitar,6,4,DL_heartfullpop_2_Guitar,0.00983881764113903,0
53,100,0.11818181818181818,625,0,61,DL_heartfullpop_2_Guitar,6,2,DL_heartfullpop_2_Guitar,0.011416427791118622,0
53,100,0.16363636363636364,664,0,61,DL_heartfullpop_2_Guitar,6,3,DL_heartfullpop_2_Guitar,0.016511132940649986,0
53,100,0.17727272727272728,713,0,61,DL_heartfullpop_2_Guitar,6,3,DL_heartfullpop_2_Guitar,0.026816142722964287,0
62,100,1.1636363636363636,796,0,61,DL_heartfullpop_2_Guitar,6,15,DL_heartfullpop_2_Guitar,0.053910281509160995,0
65,100,0.18181818181818182,188,1,62,DL_heartfullpop_2_Guitar,6,3,DL_heartfullpop_2_Guitar,0.9986500144004822,1
65,100,0.1,263,0,62,DL_heartfullpop_2_Guitar,6,2,DL_heartfullpop_2_Guitar,0.08780360221862793,0
62,100,0.2,361,0,62,DL_heartfullpop_2_Guitar,6,3,DL_heartfullpop_2_Guitar,0.0918131023645401,0
62,100,0.21818181818181817,506,0,62,DL_heartfullpop_2_Guitar,6,3,DL_heartfullpop_2_Guitar,0.10747857391834259,0
62,100,0.5590909090909091,568,0,62,DL_heartfullpop_2_Guitar,6,9,DL_heartfullpop_2_Guitar,0.12482768297195435,0
65,100,0.22272727272727272,761,0,62,DL_heartfullpop_2_Guitar,6,4,DL_heartfullpop_2_Guitar,0.17903511226177216,0
62,100,0.22272727272727272,13,1,63,DL_heartfullpop_2_Guitar,6,4,DL_heartfullpop_2_Guitar,0.9988419413566589,1
62,100,0.3181818181818182,198,0,63,DL_heartfullpop_2_Guitar,6,5,DL_heartfullpop_2_Guitar,0.1372547149658203,0
65,100,0.3,268,0,63,DL_heartfullpop_2_Guitar,6,5,DL_heartfullpop_2_Guitar,0.1597827523946762,0
62,100,0.11818181818181818,603,1,63,DL_heartfullpop_2_Guitar,6,2,DL_heartfullpop_2_Guitar,0.1864556223154068,0
65,100,0.22272727272727272,664,0,63,DL_heartfullpop_2_Guitar,6,4,DL_heartfullpop_2_Guitar,0.2581796646118164,0
65,100,0.17727272727272728,62,1,64,DL_heartfullpop_2_Guitar,6,3,DL_heartfullpop_2_Guitar,0.9982276558876038,1
62,100,0.1590909090909091,176,0,64,DL_heartfullpop_2_Guitar,6,3,DL_heartfullpop_2_Guitar,0.0393972173333168,0
53,100,0.3,237,0,64,DL_heartfullpop_2_Guitar,6,5,DL_heartfullpop_2_Guitar,0.026673395186662674,0
62,100,0.5,316,0,64,DL_heartfullpop_2_Guitar,6,8,DL_heartfullpop_2_Guitar,0.018587784841656685,0
65,100,0.2590909090909091,430,0,64,DL_heartfullpop_2_Guitar,6,4,DL_heartfullpop_2_Guitar,0.013413871638476849,0
58,100,0.2,519,0,64,DL_heartfullpop_2_Guitar,6,3,DL_heartfullpop_2_Guitar,0.01058715395629406,0
53,100,0.3,619,0,64,DL_heartfullpop_2_Guitar,6,5,DL_heartfullpop_2_Guitar,0.009839259088039398,0
65,100,0.3,686,0,64,DL_heartfullpop_2_Guitar,6,5,DL_heartfullpop_2_Guitar,0.011416981928050518,0
53,100,0.32272727272727275,752,0,64,DL_heartfullpop_2_Guitar,6,5,DL_heartfullpop_2_Guitar,0.016511574387550354,0
65,100,0.21818181818181817,823,0,64,DL_heartfullpop_2_Guitar,6,3,DL_heartfullpop_2_Guitar,0.026817599311470985,0
53,100,0.35909090909090907,876,0,64,DL_heartfullpop_2_Guitar,6,6,DL_heartfullpop_2_Guitar,0.053914234042167664,0
65,100,0.4636363636363636,113,1,65,DL_heartfullpop_2_Guitar,6,7,DL_heartfullpop_2_Guitar,0.9983736276626587,1
53,100,0.5181818181818182,250,0,65,DL_heartfullpop_2_Guitar,6,8,DL_heartfullpop_2_Guitar,0.05105902999639511,0
53,100,0.32272727272727275,377,0,65,DL_heartfullpop_2_Guitar,6,5,DL_heartfullpop_2_Guitar,0.04130120575428009,0
58,100,0.3409090909090909,475,0,65,DL_heartfullpop_2_Guitar,6,5,DL_heartfullpop_2_Guitar,0.03738333657383919,0
65,100,0.11818181818181818,580,0,65,DL_heartfullpop_2_Guitar,6,2,DL_heartfullpop_2_Guitar,0.03832625970244408,0
53,100,0.42272727272727273,642,0,65,DL_heartfullpop_2_Guitar,6,7,DL_heartfullpop_2_Guitar,0.04474853351712227,0
53,100,0.2,773,0,65,DL_heartfullpop_2_Guitar,6,3,DL_heartfullpop_2_Guitar,0.055226024240255356,0
62,100,0.3,823,0,65,DL_heartfullpop_2_Guitar,6,5,DL_heartfullpop_2_Guitar,0.0902625098824501,0
53,100,0.11818181818181818,150,1,66,DL_heartfullpop_2_Guitar,6,2,DL_heartfullpop_2_Guitar,0.9986500144004822,1
60,100,0.35909090909090907,193,0,66,DL_heartfullpop_2_Guitar,6,6,DL_heartfullpop_2_Guitar,0.08780179917812347,0
53,100,0.4409090909090909,396,0,66,DL_heartfullpop_2_Guitar,6,7,DL_heartfullpop_2_Guitar,0.0918109193444252,0
53,100,0.1590909090909091,496,0,66,DL_heartfullpop_2_Guitar,6,3,DL_heartfullpop_2_Guitar,0.10747284442186356,0
53,100,0.1409090909090909,540,0,66,DL_heartfullpop_2_Guitar,6,2,DL_heartfullpop_2_Guitar,0.12482055276632309,0
60,100,0.8181818181818182,572,0,66,DL_heartfullpop_2_Guitar,6,13,DL_heartfullpop_2_Guitar,0.17902152240276337,0
53,100,0.1,56,1,67,DL_heartfullpop_2_Guitar,6,2,DL_heartfullpop_2_Guitar,0.9983736276626587,1
65,100,0.3409090909090909,100,0,67,DL_heartfullpop_2_Guitar,6,5,DL_heartfullpop_2_Guitar,0.05105988308787346,0
60,100,0.32272727272727275,179,0,67,DL_heartfullpop_2_Guitar,6,5,DL_heartfullpop_2_Guitar,0.04130261018872261,0
65,100,0.17727272727272728,260,0,67,DL_heartfullpop_2_Guitar,6,3,DL_heartfullpop_2_Guitar,0.03738414868712425,0
60,100,0.2,365,0,67,DL_heartfullpop_2_Guitar,6,3,DL_heartfullpop_2_Guitar,0.03832835331559181,0
60,100,0.7,413,0,67,DL_heartfullpop_2_Guitar,6,11,DL_heartfullpop_2_Guitar,0.04474984109401703,0
60,100,0.3,612,0,67,DL_heartfullpop_2_Guitar,6,5,DL_heartfullpop_2_Guitar,0.05522682145237923,0
65,100,0.3,832,0,67,DL_heartfullpop_2_Guitar,6,5,DL_heartfullpop_2_Guitar,0.0902630165219307,0
60,100,0.21818181818181817,30,1,68,DL_heartfullpop_2_Guitar,6,3,DL_heartfullpop_2_Guitar,0.9983737468719482,1
65,100,0.38181818181818183,113,0,68,DL_heartfullpop_2_Guitar,6,6,DL_heartfullpop_2_Guitar,0.05106017366051674,0
53,100,0.12272727272727273,202,0,68,DL_heartfullpop_2_Guitar,6,2,DL_heartfullpop_2_Guitar,0.041302602738142014,0
65,100,0.4,242,0,68,DL_heartfullpop_2_Guitar,6,6,DL_heartfullpop_2_Guitar,0.03738531842827797,0
60,100,0.5409090909090909,330,0,68,DL_heartfullpop_2_Guitar,6,9,DL_heartfullpop_2_Guitar,0.038329292088747025,0
65,100,0.3181818181818182,457,0,68,DL_heartfullpop_2_Guitar,6,5,DL_heartfullpop_2_Guitar,0.04475155100226402,0
60,100,0.7818181818181819,593,0,68,DL_heartfullpop_2_Guitar,6,13,DL_heartfullpop_2_Guitar,0.055228590965270996,0
53,100,0.9409090909090909,839,1,68,DL_heartfullpop_2_Guitar,6,15,DL_heartfullpop_2_Guitar,0.09026183187961578,0
65,100,0.2818181818181818,166,1,69,DL_heartfullpop_2_Guitar,6,5,DL_heartfullpop_2_Guitar,0.9986500144004822,1
53,100,0.11818181818181818,263,0,69,DL_heartfullpop_2_Guitar,6,2,DL_heartfullpop_2_Guitar,0.0878015011548996,0
53,100,0.1590909090909091,294,0,69,DL_heartfullpop_2_Guitar,6,3,DL_heartfullpop_2_Guitar,0.09181063622236252,0
53,100,0.2590909090909091,352,0,69,DL_heartfullpop_2_Guitar,6,4,DL_heartfullpop_2_Guitar,0.10747651010751724,0
53,100,0.3,496,0,69,DL_heartfullpop_2_Guitar,6,5,DL_heartfullpop_2_Guitar,0.12482420355081558,0
65,100,0.22272727272727272,563,0,69,DL_heartfullpop_2_Guitar,6,4,DL_heartfullpop_2_Guitar,0.179022416472435,0
60,100,0.1590909090909091,40,1,70,DL_heartfullpop_2_Guitar,6,3,DL_heartfullpop_2_Guitar,0.9982553124427795,1
60,100,0.11818181818181818,87,0,70,DL_heartfullpop_2_Guitar,6,2,DL_heartfullpop_2_Guitar,0.04128730297088623,0
53,100,0.2818181818181818,123,0,70,DL_heartfullpop_2_Guitar,6,5,DL_heartfullpop_2_Guitar,0.028933389112353325,0
65,100,0.3,330,0,70,DL_heartfullpop_2_Guitar,6,5,DL_heartfullpop_2_Guitar,0.02128743752837181,0
53,100,0.2818181818181818,396,0,70,DL_heartfullpop_2_Guitar,6,5,DL_heartfullpop_2_Guitar,0.01674405299127102,0
53,100,0.11818181818181818,470,0,70,DL_heartfullpop_2_Guitar,6,2,DL_heartfullpop_2_Guitar,0.01491698157042265,0
53,100,0.36363636363636365,509,0,70,DL_heartfullpop_2_Guitar,6,6,DL_heartfullpop_2_Guitar,0.01601445861160755,0
60,100,0.2409090909090909,597,0,70,DL_heartfullpop_2_Guitar,6,4,DL_heartfullpop_2_Guitar,0.021177753806114197,0
53,100,0.4772727272727273,656,0,70,DL_heartfullpop_2_Guitar,6,8,DL_heartfullpop_2_Guitar,0.03156452998518944,0
53,100,0.5772727272727273,766,0,70,DL_heartfullpop_2_Guitar,6,9,DL_heartfullpop_2_Guitar,0.06005661562085152,0
60,100,0.21818181818181817,40,1,71,DL_heartfullpop_2_Guitar,6,3,DL_heartfullpop_2_Guitar,0.9983004927635193,1
53,100,0.11818181818181818,106,0,71,DL_heartfullpop_2_Guitar,6,2,DL_heartfullpop_2_Guitar,0.04466375708580017,0
53,100,0.1409090909090909,157,0,71,DL_heartfullpop_2_Guitar,6,2,DL_heartfullpop_2_Guitar,0.03314968943595886,0
60,100,0.21818181818181817,197,0,71,DL_heartfullpop_2_Guitar,6,3,DL_heartfullpop_2_Guitar,0.0265803225338459,0
62,100,0.2590909090909091,276,0,71,DL_heartfullpop_2_Guitar,6,4,DL_heartfullpop_2_Guitar,0.023595623672008514,0
62,100,0.6181818181818182,339,0,71,DL_heartfullpop_2_Guitar,6,10,DL_heartfullpop_2_Guitar,0.024315232411026955,0
62,100,0.2590909090909091,480,0,71,DL_heartfullpop_2_Guitar,6,4,DL_heartfullpop_2_Guitar,0.02969101257622242,0
62,100,0.2409090909090909,603,0,71,DL_heartfullpop_2_Guitar,6,4,DL_heartfullpop_2_Guitar,0.04007779061794281,0
65,100,0.2590909090909091,870,1,71,DL_heartfullpop_2_Guitar,6,4,DL_heartfullpop_2_Guitar,0.0709320679306984,0
65,100,0.4409090909090909,69,1,72,DL_heartfullpop_2_Guitar,6,7,DL_heartfullpop_2_Guitar,0.9983736276626587,1
62,100,0.3,233,0,72,DL_heartfullpop_2_Guitar,6,5,DL_heartfullpop_2_Guitar,0.05106107145547867,0
65,100,0.17727272727272728,370,0,72,DL_heartfullpop_2_Guitar,6,3,DL_heartfullpop_2_Guitar,0.041303638368844986,0
62,100,0.36363636363636365,553,0,72,DL_heartfullpop_2_Guitar,6,6,DL_heartfullpop_2_Guitar,0.03738674893975258,0
65,100,0.3181818181818182,633,0,72,DL_heartfullpop_2_Guitar,6,5,DL_heartfullpop_2_Guitar,0.03833123669028282,0
53,100,0.2,716,0,72,DL_heartfullpop_2_Guitar,6,3,DL_heartfullpop_2_Guitar,0.04475244879722595,0
62,100,0.11818181818181818,823,0,72,DL_heartfullpop_2_Guitar,6,2,DL_heartfullpop_2_Guitar,0.0552310049533844,0
62,100,0.4,866,0,72,DL_heartfullpop_2_Guitar,6,6,DL_heartfullpop_2_Guitar,0.09026680141687393,0
57,100,0.1590909090909091,79,1,73,DL_heartfullpop_2_Guitar,6,3,DL_heartfullpop_2_Guitar,0.9986500144004822,1
65,100,0.1590909090909091,145,0,73,DL_heartfullpop_2_Guitar,6,3,DL_heartfullpop_2_Guitar,0.08780250698328018,0
57,100,0.13636363636363635,216,0,73,DL_heartfullpop_2_Guitar,6,2,DL_heartfullpop_2_Guitar,0.0918147936463356,0
65,100,0.2818181818181818,386,0,73,DL_heartfullpop_2_Guitar,6,5,DL_heartfullpop_2_Guitar,0.10747828334569931,0
62,100,0.12272727272727273,453,0,73,DL_heartfullpop_2_Guitar,6,2,DL_heartfullpop_2_Guitar,0.1248272955417633,0
53,100,0.18181818181818182,593,0,73,DL_heartfullpop_2_Guitar,6,3,DL_heartfullpop_2_Guitar,0.17903658747673035,0
60,100,0.32272727272727275,13,1,74,DL_heartfullpop_2_Guitar,6,5,DL_heartfullpop_2_Guitar,0.9983004927635193,1
53,100,0.2590909090909091,100,0,74,DL_heartfullpop_2_Guitar,6,4,DL_heartfullpop_2_Guitar,0.04466280713677406,0
53,100,0.35909090909090907,352,1,74,DL_heartfullpop_2_Guitar,6,6,DL_heartfullpop_2_Guitar,0.03314776346087456,0
53,100,0.2,436,0,74,DL_heartfullpop_2_Guitar,6,3,DL_heartfullpop_2_Guitar,0.026578372344374657,0
65,100,0.1,502,0,74,DL_heartfullpop_2_Guitar,6,2,DL_heartfullpop_2_Guitar,0.023593218997120857,0
65,100,0.1,536,0,74,DL_heartfullpop_2_Guitar,6,2,DL_heartfullpop_2_Guitar,0.0243129450827837,0
53,100,0.1409090909090909,619,0,74,DL_heartfullpop_2_Guitar,6,2,DL_heartfullpop_2_Guitar,0.02968720905482769,0
53,100,0.2,747,0,74,DL_heartfullpop_2_Guitar,6,3,DL_heartfullpop_2_Guitar,0.040074001997709274,0
60,100,0.2,849,0,74,DL_heartfullpop_2_Guitar,6,3,DL_heartfullpop_2_Guitar,0.07092537730932236,0
65,100,0.2,22,1,75,DL_heartfullpop_2_Guitar,6,3,DL_heartfullpop_2_Guitar,0.9983003735542297,1
53,100,0.2409090909090909,69,0,75,DL_heartfullpop_2_Guitar,6,4,DL_heartfullpop_2_Guitar,0.04466339200735092,0
60,100,0.41818181818181815,150,0,75,DL_heartfullpop_2_Guitar,6,7,DL_heartfullpop_2_Guitar,0.033149827271699905,0
60,100,0.4818181818181818,286,0,75,DL_heartfullpop_2_Guitar,6,8,DL_heartfullpop_2_Guitar,0.026579231023788452,0
65,100,0.3,392,0,75,DL_heartfullpop_2_Guitar,6,5,DL_heartfullpop_2_Guitar,0.023593923076987267,0
60,100,0.12272727272727273,466,0,75,DL_heartfullpop_2_Guitar,6,2,DL_heartfullpop_2_Guitar,0.024314550682902336,0
53,100,0.16363636363636364,509,0,75,DL_heartfullpop_2_Guitar,6,3,DL_heartfullpop_2_Guitar,0.02968849055469036,0
65,100,0.4409090909090909,597,0,75,DL_heartfullpop_2_Guitar,6,7,DL_heartfullpop_2_Guitar,0.04007640480995178,0
53,100,0.4409090909090909,844,1,75,DL_heartfullpop_2_Guitar,6,7,DL_heartfullpop_2_Guitar,0.07092633843421936,0
53,100,0.2590909090909091,83,1,76,DL_heartfullpop_2_Guitar,6,4,DL_heartfullpop_2_Guitar,0.9988419413566589,1
53,100,0.18181818181818182,176,0,76,DL_heartfullpop_2_Guitar,6,3,DL_heartfullpop_2_Guitar,0.1372435837984085,0
53,100,1.1,229,0,76,DL_heartfullpop_2_Guitar,6,15,DL_heartfullpop_2_Guitar,0.1597679704427719,0
60,100,0.1409090909090909,713,1,76,DL_heartfullpop_2_Guitar,6,2,DL_heartfullpop_2_Guitar,0.1864514946937561,0
53,100,0.23636363636363636,876,0,76,DL_heartfullpop_2_Guitar,6,4,DL_heartfullpop_2_Guitar,0.258156418800354,0
53,100,0.5590909090909091,127,1,77,DL_heartfullpop_2_Guitar,6,9,DL_heartfullpop_2_Guitar,0.9986500144004822,1
60,100,0.1,413,1,77,DL_heartfullpop_2_Guitar,6,2,DL_heartfullpop_2_Guitar,0.08780434727668762,0
53,100,0.5,440,0,77,DL_heartfullpop_2_Guitar,6,8,DL_heartfullpop_2_Guitar,0.09181438386440277,0
53,100,0.18181818181818182,563,0,77,DL_heartfullpop_2_Guitar,6,3,DL_heartfullpop_2_Guitar,0.10747351497411728,0
65,100,0.11818181818181818,656,0,77,DL_heartfullpop_2_Guitar,6,2,DL_heartfullpop_2_Guitar,0.12482471019029617,0
60,100,0.3181818181818182,734,0,77,DL_heartfullpop_2_Guitar,6,5,DL_heartfullpop_2_Guitar,0.17902909219264984,0
53,100,0.12272727272727273,69,1,78,DL_heartfullpop_2_Guitar,6,2,DL_heartfullpop_2_Guitar,0.9983736276626587,1
60,100,0.11818181818181818,119,0,78,DL_heartfullpop_2_Guitar,6,2,DL_heartfullpop_2_Guitar,0.05106094479560852,0
53,100,0.8772727272727273,273,0,78,DL_heartfullpop_2_Guitar,6,14,DL_heartfullpop_2_Guitar,0.04130113124847412,0
65,100,0.22272727272727272,532,1,78,DL_heartfullpop_2_Guitar,6,4,DL_heartfullpop_2_Guitar,0.03738474100828171,0
65,100,0.36363636363636365,597,0,78,DL_heartfullpop_2_Guitar,6,6,DL_heartfullpop_2_Guitar,0.038327816873788834,0
65,100,0.18181818181818182,682,0,78,DL_heartfullpop_2_Guitar,6,3,DL_heartfullpop_2_Guitar,0.04474930837750435,0
53,100,0.1,722,0,78,DL_heartfullpop_2_Guitar,6,2,DL_heartfullpop_2_Guitar,0.05522644892334938,0
65,100,0.3,743,0,78,DL_heartfullpop_2_Guitar,6,5,DL_heartfullpop_2_Guitar,0.09025974571704865,0
53,100,0.1,110,1,79,DL_heartfullpop_2_Guitar,6,2,DL_heartfullpop_2_Guitar,0.9990230798721313,1
55,100,0.21818181818181817,457,1,79,DL_heartfullpop_2_Guitar,6,3,DL_heartfullpop_2_Guitar,0.3666350245475769,0
55,100,1.3,673,0,79,DL_heartfullpop_2_Guitar,6,15,DL_heartfullpop_2_Guitar,0.45327794551849365,0
55,100,0.42272727272727273,453,1,80,DL_heartfullpop_2_Guitar,6,7,DL_heartfullpop_2_Guitar,0.9990229606628418,1
53,100,0.1409090909090909,637,0,80,DL_heartfullpop_2_Guitar,6,2,DL_heartfullpop_2_Guitar,0.3666217029094696,0
65,100,0.38181818181818183,673,0,80,DL_heartfullpop_2_Guitar,6,6,DL_heartfullpop_2_Guitar,0.45328959822654724,0
53,100,0.11818181818181818,153,1,81,DL_heartfullpop_2_Guitar,6,2,DL_heartfullpop_2_Guitar,0.9990229606628418,1
65,100,0.12272727272727273,532,1,81,DL_heartfullpop_2_Guitar,6,2,DL_heartfullpop_2_Guitar,0.3666199743747711,0
62,100,0.1,743,0,81,DL_heartfullpop_2_Guitar,6,2,DL_heartfullpop_2_Guitar,0.4532909691333771,0
53,100,0.13636363636363635,303,1,82,DL_heartfullpop_2_Guitar,6,2,DL_heartfullpop_2_Guitar,0.9792551398277283,0
55,100,0.1,197,1,84,DL_heartfullpop_2_Guitar,6,2,DL_heartfullpop_2_Guitar,0.9990229606628418,1
60,100,0.1409090909090909,426,0,84,DL_heartfullpop_2_Guitar,6,2,DL_heartfullpop_2_Guitar,0.36663126945495605,0
60,100,1.8772727272727272,480,0,84,DL_heartfullpop_2_Guitar,6,15,DL_heartfullpop_2_Guitar,0.45328444242477417,0
53,100,0.1,330,1,85,DL_heartfullpop_2_Guitar,6,2,DL_heartfullpop_2_Guitar,0.9986500144004822,1
53,100,0.2772727272727273,392,0,85,DL_heartfullpop_2_Guitar,6,4,DL_heartfullpop_2_Guitar,0.08780216425657272,0
53,100,0.3,462,0,85,DL_heartfullpop_2_Guitar,6,5,DL_heartfullpop_2_Guitar,0.09181370586156845,0
53,100,0.2772727272727273,567,0,85,DL_heartfullpop_2_Guitar,6,4,DL_heartfullpop_2_Guitar,0.10747730731964111,0
53,100,0.2409090909090909,800,1,85,DL_heartfullpop_2_Guitar,6,4,DL_heartfullpop_2_Guitar,0.12482363730669022,0
57,100,0.1,866,0,85,DL_heartfullpop_2_Guitar,6,2,DL_heartfullpop_2_Guitar,0.1790316253900528,0
60,100,0.17727272727272728,273,1,86,DL_heartfullpop_2_Guitar,6,3,DL_heartfullpop_2_Guitar,0.9986500144004822,1
60,100,0.18181818181818182,320,0,86,DL_heartfullpop_2_Guitar,6,3,DL_heartfullpop_2_Guitar,0.08780457079410553,0
60,100,0.4,392,0,86,DL_heartfullpop_2_Guitar,6,6,DL_heartfullpop_2_Guitar,0.0918131023645401,0
53,100,0.3181818181818182,480,0,86,DL_heartfullpop_2_Guitar,6,5,DL_heartfullpop_2_Guitar,0.10747940838336945,0
60,100,0.2409090909090909,559,0,86,DL_heartfullpop_2_Guitar,6,4,DL_heartfullpop_2_Guitar,0.12482702732086182,0
60,100,0.2772727272727273,844,1,86,DL_heartfullpop_2_Guitar,6,4,DL_heartfullpop_2_Guitar,0.17903360724449158,0
60,100,0.2,30,1,87,DL_heartfullpop_2_Guitar,6,3,DL_heartfullpop_2_Guitar,0.9990057349205017,1
60,100,0.11818181818181818,87,0,87,DL_heartfullpop_2_Guitar,6,2,DL_heartfullpop_2_Guitar,0.2312023937702179,0
60,100,0.11818181818181818,197,0,87,DL_heartfullpop_2_Guitar,6,2,DL_heartfullpop_2_Guitar,0.2659231424331665,0
53,100,0.8590909090909091,703,1,87,DL_heartfullpop_2_Guitar,6,14,DL_heartfullpop_2_Guitar,0.35419073700904846,0
65,100,0.42272727272727273,13,1,88,DL_heartfullpop_2_Guitar,6,7,DL_heartfullpop_2_Guitar,0.9983736276626587,1
53,100,0.21818181818181817,140,0,88,DL_heartfullpop_2_Guitar,6,3,DL_heartfullpop_2_Guitar,0.051060233265161514,0
53,100,0.1409090909090909,202,0,88,DL_heartfullpop_2_Guitar,6,2,DL_heartfullpop_2_Guitar,0.04130161926150322,0
65,100,0.1590909090909091,260,0,88,DL_heartfullpop_2_Guitar,6,3,DL_heartfullpop_2_Guitar,0.03738424554467201,0
65,100,0.17727272727272728,413,0,88,DL_heartfullpop_2_Guitar,6,3,DL_heartfullpop_2_Guitar,0.03832761570811272,0
53,100,0.21818181818181817,480,0,88,DL_heartfullpop_2_Guitar,6,3,DL_heartfullpop_2_Guitar,0.044749096035957336,0
62,100,0.11818181818181818,580,0,88,DL_heartfullpop_2_Guitar,6,2,DL_heartfullpop_2_Guitar,0.05522515997290611,0
65,100,0.18181818181818182,673,0,88,DL_heartfullpop_2_Guitar,6,3,DL_heartfullpop_2_Guitar,0.09025976806879044,0
60,100,0.2409090909090909,35,1,89,DL_heartfullpop_2_Guitar,6,4,DL_heartfullpop_2_Guitar,0.9983004927635193,1
65,100,0.6818181818181818,87,0,89,DL_heartfullpop_2_Guitar,6,11,DL_heartfullpop_2_Guitar,0.04466349259018898,0
53,100,0.13636363636363635,282,0,89,DL_heartfullpop_2_Guitar,6,2,DL_heartfullpop_2_Guitar,0.033149175345897675,0
60,100,0.6590909090909091,370,0,89,DL_heartfullpop_2_Guitar,6,11,DL_heartfullpop_2_Guitar,0.02657998912036419,0
60,100,0.35909090909090907,536,0,89,DL_heartfullpop_2_Guitar,6,6,DL_heartfullpop_2_Guitar,0.023594597354531288,0
65,100,0.4636363636363636,619,0,89,DL_heartfullpop_2_Guitar,6,7,DL_heartfullpop_2_Guitar,0.024312809109687805,0
60,100,0.11818181818181818,792,0,89,DL_heartfullpop_2_Guitar,6,2,DL_heartfullpop_2_Guitar,0.02968856878578663,0
65,100,0.1,832,0,89,DL_heartfullpop_2_Guitar,6,2,DL_heartfullpop_2_Guitar,0.04007437080144882,0
53,100,0.1590909090909091,866,0,89,DL_heartfullpop_2_Guitar,6,3,DL_heartfullpop_2_Guitar,0.07092399150133133,0
60,100,1.2227272727272727,123,1,90,DL_heartfullpop_2_Guitar,6,15,DL_heartfullpop_2_Guitar,0.9990229606628418,1
60,100,1.1818181818181819,506,1,90,DL_heartfullpop_2_Guitar,6,15,DL_heartfullpop_2_Guitar,0.36662447452545166,0
65,100,0.41818181818181815,792,1,90,DL_heartfullpop_2_Guitar,6,7,DL_heartfullpop_2_Guitar,0.45328646898269653,0
65,100,0.1590909090909091,56,1,91,DL_heartfullpop_2_Guitar,6,3,DL_heartfullpop_2_Guitar,0.9982553124427795,1
60,100,0.1409090909090909,100,0,91,DL_heartfullpop_2_Guitar,6,2,DL_heartfullpop_2_Guitar,0.04128680005669594,0
65,100,0.18181818181818182,179,0,91,DL_heartfullpop_2_Guitar,6,3,DL_heartfullpop_2_Guitar,0.028932616114616394,0
53,100,0.11818181818181818,220,0,91,DL_heartfullpop_2_Guitar,6,2,DL_heartfullpop_2_Guitar,0.021286457777023315,0
53,100,0.6181818181818182,273,0,91,DL_heartfullpop_2_Guitar,6,10,DL_heartfullpop_2_Guitar,0.016743550077080727,0
53,100,0.2590909090909091,426,0,91,DL_heartfullpop_2_Guitar,6,4,DL_heartfullpop_2_Guitar,0.014916840940713882,0
53,100,0.38181818181818183,519,0,91,DL_heartfullpop_2_Guitar,6,6,DL_heartfullpop_2_Guitar,0.016014136373996735,0
53,100,0.23636363636363636,633,0,91,DL_heartfullpop_2_Guitar,6,4,DL_heartfullpop_2_Guitar,0.02117730677127838,0
53,100,0.3409090909090909,695,0,91,DL_heartfullpop_2_Guitar,6,5,DL_heartfullpop_2_Guitar,0.031564876437187195,0
53,100,0.32272727272727275,870,0,91,DL_heartfullpop_2_Guitar,6,5,DL_heartfullpop_2_Guitar,0.06005570665001869,0
53,100,0.1409090909090909,92,1,92,DL_heartfullpop_2_Guitar,6,2,DL_heartfullpop_2_Guitar,0.9986500144004822,1
53,100,0.759090909090909,172,0,92,DL_heartfullpop_2_Guitar,6,12,DL_heartfullpop_2_Guitar,0.08780189603567123,0
53,100,0.16363636363636364,399,0,92,DL_heartfullpop_2_Guitar,6,3,DL_heartfullpop_2_Guitar,0.09181215614080429,0
53,100,0.38181818181818183,440,0,92,DL_heartfullpop_2_Guitar,6,6,DL_heartfullpop_2_Guitar,0.10747568309307098,0
53,100,0.12272727272727273,629,0,92,DL_heartfullpop_2_Guitar,6,2,DL_heartfullpop_2_Guitar,0.12481991201639175,0
53,100,0.6,826,0,92,DL_heartfullpop_2_Guitar,6,10,DL_heartfullpop_2_Guitar,0.1790207475423813,0
53,100,0.3,399,1,93,DL_heartfullpop_2_Guitar,6,5,DL_heartfullpop_2_Guitar,0.979255735874176,1
53,100,0.09090909090909091,469,1,0,_Heartfelt_folk-pop-rock_Guitar_1,6,1,_Heartfelt_folk-pop-rock_Guitar_1,0.9990229606628418,1
57,100,0.2409090909090909,562,0,0,_Heartfelt_folk-pop-rock_Guitar_1,6,4,_Heartfelt_folk-pop-rock_Guitar_1,0.36662599444389343,0
53,100,0.4409090909090909,704,0,0,_Heartfelt_folk-pop-rock_Guitar_1,6,7,_Heartfelt_folk-pop-rock_Guitar_1,0.4532977342605591,0
53,100,0.5681818181818182,114,1,1,_Heartfelt_folk-pop-rock_Guitar_1,6,9,_Heartfelt_folk-pop-rock_Guitar_1,0.9990057349205017,1
53,100,0.20454545454545456,259,0,1,_Heartfelt_folk-pop-rock_Guitar_1,6,3,_Heartfelt_folk-pop-rock_Guitar_1,0.23119956254959106,0
53,100,0.5318181818181819,398,0,1,_Heartfelt_folk-pop-rock_Guitar_1,6,9,_Heartfelt_folk-pop-rock_Guitar_1,0.26591795682907104,0
55,100,0.2590909090909091,539,0,1,_Heartfelt_folk-pop-rock_Guitar_1,6,4,_Heartfelt_folk-pop-rock_Guitar_1,0.35419008135795593,0
53,100,0.31363636363636366,79,1,2,_Heartfelt_folk-pop-rock_Guitar_1,6,5,_Heartfelt_folk-pop-rock_Guitar_1,0.9988419413566589,1
55,100,0.2,234,0,2,_Heartfelt_folk-pop-rock_Guitar_1,6,3,_Heartfelt_folk-pop-rock_Guitar_1,0.13724760711193085,0
53,100,0.20454545454545456,375,0,2,_Heartfelt_folk-pop-rock_Guitar_1,6,3,_Heartfelt_folk-pop-rock_Guitar_1,0.15977609157562256,0
53,100,0.16363636363636364,424,0,2,_Heartfelt_folk-pop-rock_Guitar_1,6,3,_Heartfelt_folk-pop-rock_Guitar_1,0.1864488124847412,0
53,100,0.29545454545454547,657,1,2,_Heartfelt_folk-pop-rock_Guitar_1,6,5,_Heartfelt_folk-pop-rock_Guitar_1,0.2581620216369629,0
57,100,0.23636363636363636,171,1,3,_Heartfelt_folk-pop-rock_Guitar_1,6,4,_Heartfelt_folk-pop-rock_Guitar_1,0.9988419413566589,1
57,100,0.5681818181818182,376,0,3,_Heartfelt_folk-pop-rock_Guitar_1,6,9,_Heartfelt_folk-pop-rock_Guitar_1,0.1372481733560562,0
55,100,0.22272727272727272,513,0,3,_Heartfelt_folk-pop-rock_Guitar_1,6,4,_Heartfelt_folk-pop-rock_Guitar_1,0.1597810834646225,0
53,100,0.31363636363636366,567,0,3,_Heartfelt_folk-pop-rock_Guitar_1,6,5,_Heartfelt_folk-pop-rock_Guitar_1,0.1864510029554367,0
55,100,0.31363636363636366,651,0,3,_Heartfelt_folk-pop-rock_Guitar_1,6,5,_Heartfelt_folk-pop-rock_Guitar_1,0.258167028427124,0
55,100,0.22272727272727272,67,1,4,_Heartfelt_folk-pop-rock_Guitar_1,6,4,_Heartfelt_folk-pop-rock_Guitar_1,0.9984880685806274,1
55,100,0.2909090909090909,208,0,4,_Heartfelt_folk-pop-rock_Guitar_1,6,5,_Heartfelt_folk-pop-rock_Guitar_1,0.06334472447633743,0
53,100,0.10909090909090909,407,0,4,_Heartfelt_folk-pop-rock_Guitar_1,6,2,_Heartfelt_folk-pop-rock_Guitar_1,0.057740893214941025,0
60,100,0.10909090909090909,495,0,4,_Heartfelt_folk-pop-rock_Guitar_1,6,2,_Heartfelt_folk-pop-rock_Guitar_1,0.06020228937268257,0
57,100,0.10909090909090909,597,0,4,_Heartfelt_folk-pop-rock_Guitar_1,6,2,_Heartfelt_folk-pop-rock_Guitar_1,0.06970293074846268,0
57,100,0.38636363636363635,682,0,4,_Heartfelt_folk-pop-rock_Guitar_1,6,6,_Heartfelt_folk-pop-rock_Guitar_1,0.08189459145069122,0
55,100,0.33181818181818185,856,0,4,_Heartfelt_folk-pop-rock_Guitar_1,6,5,_Heartfelt_folk-pop-rock_Guitar_1,0.1240229383111,0
55,100,0.4409090909090909,85,1,5,_Heartfelt_folk-pop-rock_Guitar_1,6,7,_Heartfelt_folk-pop-rock_Guitar_1,0.9983004927635193,1
53,100,0.6954545454545454,258,0,5,_Heartfelt_folk-pop-rock_Guitar_1,6,11,_Heartfelt_folk-pop-rock_Guitar_1,0.044662900269031525,0
53,100,0.16818181818181818,481,0,5,_Heartfelt_folk-pop-rock_Guitar_1,6,3,_Heartfelt_folk-pop-rock_Guitar_1,0.03314898535609245,0
53,100,0.10909090909090909,521,0,5,_Heartfelt_folk-pop-rock_Guitar_1,6,2,_Heartfelt_folk-pop-rock_Guitar_1,0.02657855860888958,0
53,100,0.14545454545454545,557,0,5,_Heartfelt_folk-pop-rock_Guitar_1,6,2,_Heartfelt_folk-pop-rock_Guitar_1,0.023594263941049576,0
53,100,0.38636363636363635,611,0,5,_Heartfelt_folk-pop-rock_Guitar_1,6,6,_Heartfelt_folk-pop-rock_Guitar_1,0.024312593042850494,0
53,100,0.2727272727272727,700,0,5,_Heartfelt_folk-pop-rock_Guitar_1,6,4,_Heartfelt_folk-pop-rock_Guitar_1,0.029688382521271706,0
53,100,0.15,768,0,5,_Heartfelt_folk-pop-rock_Guitar_1,6,2,_Heartfelt_folk-pop-rock_Guitar_1,0.04007459059357643,0
53,100,0.18181818181818182,805,0,5,_Heartfelt_folk-pop-rock_Guitar_1,6,3,_Heartfelt_folk-pop-rock_Guitar_1,0.07092712074518204,0
53,100,0.2772727272727273,73,1,6,_Heartfelt_folk-pop-rock_Guitar_1,6,4,_Heartfelt_folk-pop-rock_Guitar_1,0.9990057349205017,1
53,100,0.10909090909090909,236,0,6,_Heartfelt_folk-pop-rock_Guitar_1,6,2,_Heartfelt_folk-pop-rock_Guitar_1,0.23119975626468658,0
57,100,0.6045454545454545,312,0,6,_Heartfelt_folk-pop-rock_Guitar_1,6,10,_Heartfelt_folk-pop-rock_Guitar_1,0.26591554284095764,0
53,100,0.42727272727272725,813,1,6,_Heartfelt_folk-pop-rock_Guitar_1,6,7,_Heartfelt_folk-pop-rock_Guitar_1,0.3541962802410126,0
53,100,0.2,72,1,7,_Heartfelt_folk-pop-rock_Guitar_1,6,3,_Heartfelt_folk-pop-rock_Guitar_1,0.9984880685806274,1
53,100,0.4409090909090909,136,0,7,_Heartfelt_folk-pop-rock_Guitar_1,6,7,_Heartfelt_folk-pop-rock_Guitar_1,0.06334423273801804,0
53,100,0.14545454545454545,330,0,7,_Heartfelt_folk-pop-rock_Guitar_1,6,2,_Heartfelt_folk-pop-rock_Guitar_1,0.0577414445579052,0
60,100,0.23636363636363636,501,0,7,_Heartfelt_folk-pop-rock_Guitar_1,6,4,_Heartfelt_folk-pop-rock_Guitar_1,0.060201555490493774,0
55,100,0.16363636363636364,602,0,7,_Heartfelt_folk-pop-rock_Guitar_1,6,3,_Heartfelt_folk-pop-rock_Guitar_1,0.06970006972551346,0
65,100,0.15,734,0,7,_Heartfelt_folk-pop-rock_Guitar_1,6,2,_Heartfelt_folk-pop-rock_Guitar_1,0.08189050853252411,0
55,100,0.09090909090909091,771,0,7,_Heartfelt_folk-pop-rock_Guitar_1,6,1,_Heartfelt_folk-pop-rock_Guitar_1,0.1240193322300911,0
53,100,0.14545454545454545,8,1,8,_Heartfelt_folk-pop-rock_Guitar_1,6,2,_Heartfelt_folk-pop-rock_Guitar_1,0.9984880685806274,1
53,100,0.2409090909090909,194,0,8,_Heartfelt_folk-pop-rock_Guitar_1,6,4,_Heartfelt_folk-pop-rock_Guitar_1,0.06334435939788818,0
53,100,0.2727272727272727,259,0,8,_Heartfelt_folk-pop-rock_Guitar_1,6,4,_Heartfelt_folk-pop-rock_Guitar_1,0.057740550488233566,0
60,100,0.31363636363636366,331,0,8,_Heartfelt_folk-pop-rock_Guitar_1,6,5,_Heartfelt_folk-pop-rock_Guitar_1,0.06019953638315201,0
63,100,0.21818181818181817,438,0,8,_Heartfelt_folk-pop-rock_Guitar_1,6,3,_Heartfelt_folk-pop-rock_Guitar_1,0.06970040500164032,0
53,100,0.09090909090909091,575,0,8,_Heartfelt_folk-pop-rock_Guitar_1,6,1,_Heartfelt_folk-pop-rock_Guitar_1,0.08189226686954498,0
55,100,0.16363636363636364,620,0,8,_Heartfelt_folk-pop-rock_Guitar_1,6,3,_Heartfelt_folk-pop-rock_Guitar_1,0.1240203008055687,0
53,100,0.12727272727272726,221,1,9,_Heartfelt_folk-pop-rock_Guitar_1,6,2,_Heartfelt_folk-pop-rock_Guitar_1,0.9990057349205017,1
53,100,0.09090909090909091,252,0,9,_Heartfelt_folk-pop-rock_Guitar_1,6,1,_Heartfelt_folk-pop-rock_Guitar_1,0.23119677603244781,0
53,100,0.2,605,1,9,_Heartfelt_folk-pop-rock_Guitar_1,6,3,_Heartfelt_folk-pop-rock_Guitar_1,0.2659130394458771,0
60,100,0.09545454545454546,737,0,9,_Heartfelt_folk-pop-rock_Guitar_1,6,2,_Heartfelt_folk-pop-rock_Guitar_1,0.35419508814811707,0
53,100,0.10909090909090909,453,1,10,_Heartfelt_folk-pop-rock_Guitar_1,6,2,_Heartfelt_folk-pop-rock_Guitar_1,0.9986500144004822,1
53,100,0.10909090909090909,513,0,10,_Heartfelt_folk-pop-rock_Guitar_1,6,2,_Heartfelt_folk-pop-rock_Guitar_1,0.0878017470240593,0
53,100,0.1318181818181818,570,0,10,_Heartfelt_folk-pop-rock_Guitar_1,6,2,_Heartfelt_folk-pop-rock_Guitar_1,0.09181270748376846,0
58,100,0.10909090909090909,622,0,10,_Heartfelt_folk-pop-rock_Guitar_1,6,2,_Heartfelt_folk-pop-rock_Guitar_1,0.10747682303190231,0
60,100,0.09090909090909091,728,0,10,_Heartfelt_folk-pop-rock_Guitar_1,6,1,_Heartfelt_folk-pop-rock_Guitar_1,0.12482387572526932,0
60,100,0.2545454545454545,780,0,10,_Heartfelt_folk-pop-rock_Guitar_1,6,4,_Heartfelt_folk-pop-rock_Guitar_1,0.17902731895446777,0
55,100,0.16363636363636364,41,1,11,_Heartfelt_folk-pop-rock_Guitar_1,6,3,_Heartfelt_folk-pop-rock_Guitar_1,0.9983165264129639,1
65,100,0.5909090909090909,77,0,11,_Heartfelt_folk-pop-rock_Guitar_1,6,9,_Heartfelt_folk-pop-rock_Guitar_1,0.544548511505127,0
60,100,0.16363636363636364,56,1,12,_Heartfelt_folk-pop-rock_Guitar_1,6,3,_Heartfelt_folk-pop-rock_Guitar_1,0.9984880685806274,1
60,100,0.21818181818181817,335,1,12,_Heartfelt_folk-pop-rock_Guitar_1,6,3,_Heartfelt_folk-pop-rock_Guitar_1,0.06334500759840012,0
60,100,0.42272727272727273,386,0,12,_Heartfelt_folk-pop-rock_Guitar_1,6,7,_Heartfelt_folk-pop-rock_Guitar_1,0.05774196237325668,0
60,100,0.4954545454545455,512,0,12,_Heartfelt_folk-pop-rock_Guitar_1,6,8,_Heartfelt_folk-pop-rock_Guitar_1,0.06020212173461914,0
55,100,0.16818181818181818,637,0,12,_Heartfelt_folk-pop-rock_Guitar_1,6,3,_Heartfelt_folk-pop-rock_Guitar_1,0.06970149278640747,0
53,100,0.6409090909090909,691,0,12,_Heartfelt_folk-pop-rock_Guitar_1,6,10,_Heartfelt_folk-pop-rock_Guitar_1,0.08189476281404495,0
53,100,0.20454545454545456,852,0,12,_Heartfelt_folk-pop-rock_Guitar_1,6,3,_Heartfelt_folk-pop-rock_Guitar_1,0.1240224689245224,0
53,100,0.09090909090909091,29,1,13,_Heartfelt_folk-pop-rock_Guitar_1,6,1,_Heartfelt_folk-pop-rock_Guitar_1,0.9984880685806274,1
60,100,0.36818181818181817,110,0,13,_Heartfelt_folk-pop-rock_Guitar_1,6,6,_Heartfelt_folk-pop-rock_Guitar_1,0.06334670633077621,0
57,100,0.14545454545454545,280,0,13,_Heartfelt_folk-pop-rock_Guitar_1,6,2,_Heartfelt_folk-pop-rock_Guitar_1,0.05774214491248131,0
62,100,0.31363636363636366,316,0,13,_Heartfelt_folk-pop-rock_Guitar_1,6,5,_Heartfelt_folk-pop-rock_Guitar_1,0.06020266190171242,0
53,100,0.10909090909090909,539,0,13,_Heartfelt_folk-pop-rock_Guitar_1,6,2,_Heartfelt_folk-pop-rock_Guitar_1,0.06970304995775223,0
60,100,0.6454545454545455,599,0,13,_Heartfelt_folk-pop-rock_Guitar_1,6,10,_Heartfelt_folk-pop-rock_Guitar_1,0.08189626783132553,0
57,100,0.6454545454545455,749,0,13,_Heartfelt_folk-pop-rock_Guitar_1,6,10,_Heartfelt_folk-pop-rock_Guitar_1,0.12401886284351349,0
55,100,0.36818181818181817,228,1,14,_Heartfelt_folk-pop-rock_Guitar_1,6,6,_Heartfelt_folk-pop-rock_Guitar_1,0.9988419413566589,1
55,100,0.2545454545454545,314,0,14,_Heartfelt_folk-pop-rock_Guitar_1,6,4,_Heartfelt_folk-pop-rock_Guitar_1,0.1372511386871338,0
60,100,0.2772727272727273,410,0,14,_Heartfelt_folk-pop-rock_Guitar_1,6,4,_Heartfelt_folk-pop-rock_Guitar_1,0.1597784459590912,0
64,100,0.2590909090909091,737,1,14,_Heartfelt_folk-pop-rock_Guitar_1,6,4,_Heartfelt_folk-pop-rock_Guitar_1,0.1864539533853531,0
55,100,0.2727272727272727,835,0,14,_Heartfelt_folk-pop-rock_Guitar_1,6,4,_Heartfelt_folk-pop-rock_Guitar_1,0.25816306471824646,0
53,100,0.12727272727272726,77,1,15,_Heartfelt_folk-pop-rock_Guitar_1,6,2,_Heartfelt_folk-pop-rock_Guitar_1,0.9983003735542297,1
55,100,0.21818181818181817,149,0,15,_Heartfelt_folk-pop-rock_Guitar_1,6,3,_Heartfelt_folk-pop-rock_Guitar_1,0.0446641631424427,0
53,100,0.20454545454545456,206,0,15,_Heartfelt_folk-pop-rock_Guitar_1,6,3,_Heartfelt_folk-pop-rock_Guitar_1,0.03314932808279991,0
62,100,0.09090909090909091,278,0,15,_Heartfelt_folk-pop-rock_Guitar_1,6,1,_Heartfelt_folk-pop-rock_Guitar_1,0.02657921053469181,0
62,100,0.2772727272727273,371,0,15,_Heartfelt_folk-pop-rock_Guitar_1,6,4,_Heartfelt_folk-pop-rock_Guitar_1,0.023595262318849564,0
57,100,0.6272727272727273,489,0,15,_Heartfelt_folk-pop-rock_Guitar_1,6,10,_Heartfelt_folk-pop-rock_Guitar_1,0.02431471087038517,0
65,100,0.12727272727272726,651,0,15,_Heartfelt_folk-pop-rock_Guitar_1,6,2,_Heartfelt_folk-pop-rock_Guitar_1,0.029690586030483246,0
65,100,0.14545454545454545,711,0,15,_Heartfelt_folk-pop-rock_Guitar_1,6,2,_Heartfelt_folk-pop-rock_Guitar_1,0.04007739946246147,0
60,100,0.12727272727272726,837,0,15,_Heartfelt_folk-pop-rock_Guitar_1,6,2,_Heartfelt_folk-pop-rock_Guitar_1,0.07092910259962082,0
53,100,0.14545454545454545,305,1,16,_Heartfelt_folk-pop-rock_Guitar_1,6,2,_Heartfelt_folk-pop-rock_Guitar_1,0.9983165264129639,1
53,100,0.14545454545454545,632,1,16,_Heartfelt_folk-pop-rock_Guitar_1,6,2,_Heartfelt_folk-pop-rock_Guitar_1,0.5445554256439209,0
53,100,0.14545454545454545,718,1,17,_Heartfelt_folk-pop-rock_Guitar_1,6,2,_Heartfelt_folk-pop-rock_Guitar_1,0.9990229606628418,1
65,100,0.2409090909090909,750,0,17,_Heartfelt_folk-pop-rock_Guitar_1,6,4,_Heartfelt_folk-pop-rock_Guitar_1,0.3666178584098816,0
55,100,0.31363636363636366,828,0,17,_Heartfelt_folk-pop-rock_Guitar_1,6,5,_Heartfelt_folk-pop-rock_Guitar_1,0.4532829225063324,0
53,100,0.12727272727272726,20,1,18,_Heartfelt_folk-pop-rock_Guitar_1,6,2,_Heartfelt_folk-pop-rock_Guitar_1,0.9990229606628418,1
53,100,0.2772727272727273,57,0,18,_Heartfelt_folk-pop-rock_Guitar_1,6,4,_Heartfelt_folk-pop-rock_Guitar_1,0.3666166067123413,0
53,100,0.20454545454545456,388,1,18,_Heartfelt_folk-pop-rock_Guitar_1,6,3,_Heartfelt_folk-pop-rock_Guitar_1,0.4532906711101532,0
53,100,0.10909090909090909,512,1,22,_Heartfelt_folk-pop-rock_Guitar_1,6,2,_Heartfelt_folk-pop-rock_Guitar_1,0.9990229606628418,1
53,100,0.4409090909090909,649,0,22,_Heartfelt_folk-pop-rock_Guitar_1,6,7,_Heartfelt_folk-pop-rock_Guitar_1,0.36661356687545776,0
53,100,0.2590909090909091,759,0,22,_Heartfelt_folk-pop-rock_Guitar_1,6,4,_Heartfelt_folk-pop-rock_Guitar_1,0.45329004526138306,0
53,100,0.2590909090909091,130,1,23,_Heartfelt_folk-pop-rock_Guitar_1,6,4,_Heartfelt_folk-pop-rock_Guitar_1,0.9986500144004822,1
55,100,0.29545454545454547,219,0,23,_Heartfelt_folk-pop-rock_Guitar_1,6,5,_Heartfelt_folk-pop-rock_Guitar_1,0.08780669420957565,0
55,100,0.2,437,0,23,_Heartfelt_folk-pop-rock_Guitar_1,6,3,_Heartfelt_folk-pop-rock_Guitar_1,0.09181644767522812,0
55,100,0.18181818181818182,636,0,23,_Heartfelt_folk-pop-rock_Guitar_1,6,3,_Heartfelt_folk-pop-rock_Guitar_1,0.1074836328625679,0
55,100,0.23636363636363636,717,0,23,_Heartfelt_folk-pop-rock_Guitar_1,6,4,_Heartfelt_folk-pop-rock_Guitar_1,0.12482722103595734,0
57,100,0.18181818181818182,805,0,23,_Heartfelt_folk-pop-rock_Guitar_1,6,3,_Heartfelt_folk-pop-rock_Guitar_1,0.179032102227211,0
57,100,0.18636363636363637,264,1,24,_Heartfelt_folk-pop-rock_Guitar_1,6,3,_Heartfelt_folk-pop-rock_Guitar_1,0.9984880685806274,1
57,100,0.31363636363636366,337,0,24,_Heartfelt_folk-pop-rock_Guitar_1,6,5,_Heartfelt_folk-pop-rock_Guitar_1,0.06334537267684937,0
57,100,0.14545454545454545,415,0,24,_Heartfelt_folk-pop-rock_Guitar_1,6,2,_Heartfelt_folk-pop-rock_Guitar_1,0.05774214491248131,0
53,100,0.6818181818181818,528,0,24,_Heartfelt_folk-pop-rock_Guitar_1,6,11,_Heartfelt_folk-pop-rock_Guitar_1,0.060199882835149765,0
53,100,0.12727272727272726,755,0,24,_Heartfelt_folk-pop-rock_Guitar_1,6,2,_Heartfelt_folk-pop-rock_Guitar_1,0.06970183551311493,0
53,100,0.15,822,0,24,_Heartfelt_folk-pop-rock_Guitar_1,6,2,_Heartfelt_folk-pop-rock_Guitar_1,0.08189220726490021,0
53,100,0.38636363636363635,859,0,24,_Heartfelt_folk-pop-rock_Guitar_1,6,6,_Heartfelt_folk-pop-rock_Guitar_1,0.12401703000068665,0
53,100,0.5863636363636363,174,1,25,_Heartfelt_folk-pop-rock_Guitar_1,6,9,_Heartfelt_folk-pop-rock_Guitar_1,0.9986500144004822,1
53,100,0.4818181818181818,310,0,25,_Heartfelt_folk-pop-rock_Guitar_1,6,8,_Heartfelt_folk-pop-rock_Guitar_1,0.08780311793088913,0
53,100,0.2727272727272727,429,0,25,_Heartfelt_folk-pop-rock_Guitar_1,6,4,_Heartfelt_folk-pop-rock_Guitar_1,0.09181378036737442,0
53,100,0.12727272727272726,526,0,25,_Heartfelt_folk-pop-rock_Guitar_1,6,2,_Heartfelt_folk-pop-rock_Guitar_1,0.10747873038053513,0
53,100,0.18636363636363637,683,0,25,_Heartfelt_folk-pop-rock_Guitar_1,6,3,_Heartfelt_folk-pop-rock_Guitar_1,0.12482637166976929,0
55,100,0.2590909090909091,752,0,25,_Heartfelt_folk-pop-rock_Guitar_1,6,4,_Heartfelt_folk-pop-rock_Guitar_1,0.17902736365795135,0
60,100,0.14545454545454545,30,1,26,_Heartfelt_folk-pop-rock_Guitar_1,6,2,_Heartfelt_folk-pop-rock_Guitar_1,0.9986500144004822,1
60,100,0.2590909090909091,154,0,26,_Heartfelt_folk-pop-rock_Guitar_1,6,4,_Heartfelt_folk-pop-rock_Guitar_1,0.0878039225935936,0
55,100,0.33181818181818185,288,0,26,_Heartfelt_folk-pop-rock_Guitar_1,6,5,_Heartfelt_folk-pop-rock_Guitar_1,0.09181603044271469,0
55,100,0.3090909090909091,365,0,26,_Heartfelt_folk-pop-rock_Guitar_1,6,5,_Heartfelt_folk-pop-rock_Guitar_1,0.10747763514518738,0
62,100,0.20454545454545456,591,0,26,_Heartfelt_folk-pop-rock_Guitar_1,6,3,_Heartfelt_folk-pop-rock_Guitar_1,0.12482649087905884,0
65,100,0.09090909090909091,669,0,26,_Heartfelt_folk-pop-rock_Guitar_1,6,1,_Heartfelt_folk-pop-rock_Guitar_1,0.17903205752372742,0
53,100,0.3090909090909091,129,1,27,_Heartfelt_folk-pop-rock_Guitar_1,6,5,_Heartfelt_folk-pop-rock_Guitar_1,0.9986500144004822,1
53,100,0.14545454545454545,222,0,27,_Heartfelt_folk-pop-rock_Guitar_1,6,2,_Heartfelt_folk-pop-rock_Guitar_1,0.08780090510845184,0
53,100,0.2590909090909091,281,0,27,_Heartfelt_folk-pop-rock_Guitar_1,6,4,_Heartfelt_folk-pop-rock_Guitar_1,0.09181053936481476,0
53,100,0.32727272727272727,404,0,27,_Heartfelt_folk-pop-rock_Guitar_1,6,5,_Heartfelt_folk-pop-rock_Guitar_1,0.10747355967760086,0
53,100,0.32727272727272727,497,0,27,_Heartfelt_folk-pop-rock_Guitar_1,6,5,_Heartfelt_folk-pop-rock_Guitar_1,0.12482120096683502,0
55,100,0.09090909090909091,670,0,27,_Heartfelt_folk-pop-rock_Guitar_1,6,1,_Heartfelt_folk-pop-rock_Guitar_1,0.179027259349823,0
53,100,0.23636363636363636,353,1,28,_Heartfelt_folk-pop-rock_Guitar_1,6,4,_Heartfelt_folk-pop-rock_Guitar_1,0.9988419413566589,1
53,100,0.2909090909090909,437,0,28,_Heartfelt_folk-pop-rock_Guitar_1,6,5,_Heartfelt_folk-pop-rock_Guitar_1,0.1372453272342682,0
53,100,0.2772727272727273,505,0,28,_Heartfelt_folk-pop-rock_Guitar_1,6,4,_Heartfelt_folk-pop-rock_Guitar_1,0.15977533161640167,0
53,100,0.2,615,0,28,_Heartfelt_folk-pop-rock_Guitar_1,6,3,_Heartfelt_folk-pop-rock_Guitar_1,0.18644823133945465,0
53,100,0.7,752,0,28,_Heartfelt_folk-pop-rock_Guitar_1,6,11,_Heartfelt_folk-pop-rock_Guitar_1,0.25814932584762573,0
55,100,0.16363636363636364,608,1,29,_Heartfelt_folk-pop-rock_Guitar_1,6,3,_Heartfelt_folk-pop-rock_Guitar_1,0.9792563915252686,0
53,100,0.4590909090909091,10,1,31,_Heartfelt_folk-pop-rock_Guitar_1,6,7,_Heartfelt_folk-pop-rock_Guitar_1,0.9988419413566589,1
53,100,0.12727272727272726,305,1,31,_Heartfelt_folk-pop-rock_Guitar_1,6,2,_Heartfelt_folk-pop-rock_Guitar_1,0.1372450441122055,0
53,100,0.31363636363636366,413,0,31,_Heartfelt_folk-pop-rock_Guitar_1,6,5,_Heartfelt_folk-pop-rock_Guitar_1,0.15977218747138977,0
53,100,0.22272727272727272,519,0,31,_Heartfelt_folk-pop-rock_Guitar_1,6,4,_Heartfelt_folk-pop-rock_Guitar_1,0.18644188344478607,0
55,100,0.10909090909090909,576,0,31,_Heartfelt_folk-pop-rock_Guitar_1,6,2,_Heartfelt_folk-pop-rock_Guitar_1,0.2581610679626465,0
53,100,0.6818181818181818,533,1,32,_Heartfelt_folk-pop-rock_Guitar_1,6,11,_Heartfelt_folk-pop-rock_Guitar_1,0.9792559146881104,0
55,100,0.20454545454545456,36,1,33,_Heartfelt_folk-pop-rock_Guitar_1,6,3,_Heartfelt_folk-pop-rock_Guitar_1,0.9988419413566589,1
57,100,0.2409090909090909,385,1,33,_Heartfelt_folk-pop-rock_Guitar_1,6,4,_Heartfelt_folk-pop-rock_Guitar_1,0.13724471628665924,0
53,100,0.2545454545454545,543,0,33,_Heartfelt_folk-pop-rock_Guitar_1,6,4,_Heartfelt_folk-pop-rock_Guitar_1,0.15977248549461365,0
60,100,0.2727272727272727,619,0,33,_Heartfelt_folk-pop-rock_Guitar_1,6,4,_Heartfelt_folk-pop-rock_Guitar_1,0.18644802272319794,0
69,100,0.16363636363636364,813,0,33,_Heartfelt_folk-pop-rock_Guitar_1,6,3,_Heartfelt_folk-pop-rock_Guitar_1,0.2581615746021271,0
53,100,0.5727272727272728,1,1,34,_Heartfelt_folk-pop-rock_Guitar_1,6,9,_Heartfelt_folk-pop-rock_Guitar_1,0.9983736276626587,1
60,100,0.22272727272727272,176,0,34,_Heartfelt_folk-pop-rock_Guitar_1,6,4,_Heartfelt_folk-pop-rock_Guitar_1,0.05106263607740402,0
55,100,0.33181818181818185,268,0,34,_Heartfelt_folk-pop-rock_Guitar_1,6,5,_Heartfelt_folk-pop-rock_Guitar_1,0.04130353033542633,0
55,100,0.36818181818181817,439,0,34,_Heartfelt_folk-pop-rock_Guitar_1,6,6,_Heartfelt_folk-pop-rock_Guitar_1,0.03738702833652496,0
55,100,0.40454545454545454,648,0,34,_Heartfelt_folk-pop-rock_Guitar_1,6,6,_Heartfelt_folk-pop-rock_Guitar_1,0.03832961618900299,0
55,100,0.14545454545454545,758,0,34,_Heartfelt_folk-pop-rock_Guitar_1,6,2,_Heartfelt_folk-pop-rock_Guitar_1,0.04475218057632446,0
55,100,0.12727272727272726,795,0,34,_Heartfelt_folk-pop-rock_Guitar_1,6,2,_Heartfelt_folk-pop-rock_Guitar_1,0.055228736251592636,0
53,100,0.14545454545454545,867,0,34,_Heartfelt_folk-pop-rock_Guitar_1,6,2,_Heartfelt_folk-pop-rock_Guitar_1,0.0902642011642456,0
53,100,0.2545454545454545,165,1,35,_Heartfelt_folk-pop-rock_Guitar_1,6,4,_Heartfelt_folk-pop-rock_Guitar_1,0.9990057349205017,1
53,100,0.55,275,0,35,_Heartfelt_folk-pop-rock_Guitar_1,6,9,_Heartfelt_folk-pop-rock_Guitar_1,0.2312021106481552,0
60,100,0.55,425,0,35,_Heartfelt_folk-pop-rock_Guitar_1,6,9,_Heartfelt_folk-pop-rock_Guitar_1,0.2659249007701874,0
55,100,0.1318181818181818,573,0,35,_Heartfelt_folk-pop-rock_Guitar_1,6,2,_Heartfelt_folk-pop-rock_Guitar_1,0.3541956841945648,0
57,100,0.29545454545454547,118,1,36,_Heartfelt_folk-pop-rock_Guitar_1,6,5,_Heartfelt_folk-pop-rock_Guitar_1,0.9983003735542297,1
53,100,0.2727272727272727,192,0,36,_Heartfelt_folk-pop-rock_Guitar_1,6,4,_Heartfelt_folk-pop-rock_Guitar_1,0.0446648970246315,0
53,100,0.16818181818181818,260,0,36,_Heartfelt_folk-pop-rock_Guitar_1,6,3,_Heartfelt_folk-pop-rock_Guitar_1,0.033149536699056625,0
53,100,0.11363636363636363,446,0,36,_Heartfelt_folk-pop-rock_Guitar_1,6,2,_Heartfelt_folk-pop-rock_Guitar_1,0.02657962031662464,0
53,100,0.1318181818181818,527,0,36,_Heartfelt_folk-pop-rock_Guitar_1,6,2,_Heartfelt_folk-pop-rock_Guitar_1,0.023594368249177933,0
60,100,0.18181818181818182,571,0,36,_Heartfelt_folk-pop-rock_Guitar_1,6,3,_Heartfelt_folk-pop-rock_Guitar_1,0.024314550682902336,0
69,100,0.2590909090909091,616,0,36,_Heartfelt_folk-pop-rock_Guitar_1,6,4,_Heartfelt_folk-pop-rock_Guitar_1,0.029688632115721703,0
53,100,0.31363636363636366,676,0,36,_Heartfelt_folk-pop-rock_Guitar_1,6,5,_Heartfelt_folk-pop-rock_Guitar_1,0.04007739946246147,0
55,100,0.2545454545454545,757,0,36,_Heartfelt_folk-pop-rock_Guitar_1,6,4,_Heartfelt_folk-pop-rock_Guitar_1,0.07092917710542679,0
55,100,0.21818181818181817,43,1,37,_Heartfelt_folk-pop-rock_Guitar_1,6,3,_Heartfelt_folk-pop-rock_Guitar_1,0.9984880685806274,1
55,100,0.29545454545454547,96,0,37,_Heartfelt_folk-pop-rock_Guitar_1,6,5,_Heartfelt_folk-pop-rock_Guitar_1,0.06334500759840012,0
55,100,0.5909090909090909,180,0,37,_Heartfelt_folk-pop-rock_Guitar_1,6,9,_Heartfelt_folk-pop-rock_Guitar_1,0.05774207040667534,0
55,100,0.10909090909090909,327,0,37,_Heartfelt_folk-pop-rock_Guitar_1,6,2,_Heartfelt_folk-pop-rock_Guitar_1,0.06020042300224304,0
55,100,0.4409090909090909,435,0,37,_Heartfelt_folk-pop-rock_Guitar_1,6,7,_Heartfelt_folk-pop-rock_Guitar_1,0.06969941407442093,0
53,100,0.09090909090909091,552,0,37,_Heartfelt_folk-pop-rock_Guitar_1,6,1,_Heartfelt_folk-pop-rock_Guitar_1,0.08188983798027039,0
55,100,0.10909090909090909,613,0,37,_Heartfelt_folk-pop-rock_Guitar_1,6,2,_Heartfelt_folk-pop-rock_Guitar_1,0.12401571869850159,0
58,100,0.16363636363636364,116,1,44,_Heartfelt_folk-pop-rock_Guitar_1,6,3,_Heartfelt_folk-pop-rock_Guitar_1,0.9990057349205017,1
53,100,0.11363636363636363,192,0,44,_Heartfelt_folk-pop-rock_Guitar_1,6,2,_Heartfelt_folk-pop-rock_Guitar_1,0.23120053112506866,0
53,100,0.11363636363636363,536,1,44,_Heartfelt_folk-pop-rock_Guitar_1,6,2,_Heartfelt_folk-pop-rock_Guitar_1,0.26591816544532776,0
53,100,0.10909090909090909,686,0,44,_Heartfelt_folk-pop-rock_Guitar_1,6,2,_Heartfelt_folk-pop-rock_Guitar_1,0.3541891574859619,0
53,100,0.15,129,1,45,_Heartfelt_folk-pop-rock_Guitar_1,6,2,_Heartfelt_folk-pop-rock_Guitar_1,0.9990057349205017,1
53,100,0.12727272727272726,165,0,45,_Heartfelt_folk-pop-rock_Guitar_1,6,2,_Heartfelt_folk-pop-rock_Guitar_1,0.2311975657939911,0
60,100,0.21818181818181817,428,1,45,_Heartfelt_folk-pop-rock_Guitar_1,6,3,_Heartfelt_folk-pop-rock_Guitar_1,0.2659175992012024,0
64,100,0.2545454545454545,611,0,45,_Heartfelt_folk-pop-rock_Guitar_1,6,4,_Heartfelt_folk-pop-rock_Guitar_1,0.3541913628578186,0
60,100,0.2,357,1,46,_Heartfelt_folk-pop-rock_Guitar_1,6,3,_Heartfelt_folk-pop-rock_Guitar_1,0.9990229606628418,1
59,100,0.16818181818181818,421,0,46,_Heartfelt_folk-pop-rock_Guitar_1,6,3,_Heartfelt_folk-pop-rock_Guitar_1,0.3666186034679413,0
53,100,0.10909090909090909,866,1,46,_Heartfelt_folk-pop-rock_Guitar_1,6,2,_Heartfelt_folk-pop-rock_Guitar_1,0.45328840613365173,0
58,100,0.15,11,1,47,_Heartfelt_folk-pop-rock_Guitar_1,6,2,_Heartfelt_folk-pop-rock_Guitar_1,0.9990229606628418,1
53,100,0.20454545454545456,261,1,47,_Heartfelt_folk-pop-rock_Guitar_1,6,3,_Heartfelt_folk-pop-rock_Guitar_1,0.3666234314441681,0
53,100,0.20454545454545456,444,0,47,_Heartfelt_folk-pop-rock_Guitar_1,6,3,_Heartfelt_folk-pop-rock_Guitar_1,0.45329418778419495,0
55,100,0.29545454545454547,598,1,48,_Heartfelt_folk-pop-rock_Guitar_1,6,5,_Heartfelt_folk-pop-rock_Guitar_1,0.9792568683624268,1
55,100,0.09545454545454546,1,1,49,_Heartfelt_folk-pop-rock_Guitar_1,6,2,_Heartfelt_folk-pop-rock_Guitar_1,0.9792567491531372,0
53,100,0.10909090909090909,270,1,50,_Heartfelt_folk-pop-rock_Guitar_1,6,2,_Heartfelt_folk-pop-rock_Guitar_1,0.9990057349205017,1
53,100,0.10909090909090909,376,0,50,_Heartfelt_folk-pop-rock_Guitar_1,6,2,_Heartfelt_folk-pop-rock_Guitar_1,0.2311956137418747,0
53,100,0.5,593,0,50,_Heartfelt_folk-pop-rock_Guitar_1,6,8,_Heartfelt_folk-pop-rock_Guitar_1,0.2659115195274353,0
65,100,0.11363636363636363,771,0,50,_Heartfelt_folk-pop-rock_Guitar_1,6,2,_Heartfelt_folk-pop-rock_Guitar_1,0.3541952669620514,0
60,100,0.5863636363636363,21,1,51,_Heartfelt_folk-pop-rock_Guitar_1,6,9,_Heartfelt_folk-pop-rock_Guitar_1,0.9988419413566589,1
60,100,0.1318181818181818,155,0,51,_Heartfelt_folk-pop-rock_Guitar_1,6,2,_Heartfelt_folk-pop-rock_Guitar_1,0.13724590837955475,0
60,100,0.6590909090909091,548,1,51,_Heartfelt_folk-pop-rock_Guitar_1,6,11,_Heartfelt_folk-pop-rock_Guitar_1,0.15977533161640167,0
62,100,0.20454545454545456,721,0,51,_Heartfelt_folk-pop-rock_Guitar_1,6,3,_Heartfelt_folk-pop-rock_Guitar_1,0.1864500194787979,0
55,100,0.23636363636363636,846,0,51,_Heartfelt_folk-pop-rock_Guitar_1,6,4,_Heartfelt_folk-pop-rock_Guitar_1,0.2581624388694763,0
55,100,0.4409090909090909,68,1,52,_Heartfelt_folk-pop-rock_Guitar_1,6,7,_Heartfelt_folk-pop-rock_Guitar_1,0.9792565107345581,0
55,100,0.33181818181818185,33,1,53,_Heartfelt_folk-pop-rock_Guitar_1,6,5,_Heartfelt_folk-pop-rock_Guitar_1,0.9990229606628418,1
55,100,0.31363636363636366,114,0,53,_Heartfelt_folk-pop-rock_Guitar_1,6,5,_Heartfelt_folk-pop-rock_Guitar_1,0.3666280508041382,0
57,100,0.14545454545454545,199,0,53,_Heartfelt_folk-pop-rock_Guitar_1,6,2,_Heartfelt_folk-pop-rock_Guitar_1,0.4532921314239502,0
53,100,0.7,511,1,54,_Heartfelt_folk-pop-rock_Guitar_1,6,11,_Heartfelt_folk-pop-rock_Guitar_1,0.979255735874176,0
74,100,0.9727272727272728,627,1,58,_Heartfelt_folk-pop-rock_Guitar_1,6,15,_Heartfelt_folk-pop-rock_Guitar_1,0.9983165264129639,1
72,100,1.5454545454545454,841,0,58,_Heartfelt_folk-pop-rock_Guitar_1,6,15,_Heartfelt_folk-pop-rock_Guitar_1,0.5445629358291626,0
53,100,0.12727272727272726,689,1,59,_Heartfelt_folk-pop-rock_Guitar_1,6,2,_Heartfelt_folk-pop-rock_Guitar_1,0.9983164072036743,1
53,100,0.1318181818181818,826,0,59,_Heartfelt_folk-pop-rock_Guitar_1,6,2,_Heartfelt_folk-pop-rock_Guitar_1,0.5445577502250671,0
53,100,0.22272727272727272,20,1,60,_Heartfelt_folk-pop-rock_Guitar_1,6,4,_Heartfelt_folk-pop-rock_Guitar_1,0.9990057349205017,1
53,100,0.6227272727272727,239,0,60,_Heartfelt_folk-pop-rock_Guitar_1,6,10,_Heartfelt_folk-pop-rock_Guitar_1,0.2312088906764984,0
55,100,0.12727272727272726,611,1,60,_Heartfelt_folk-pop-rock_Guitar_1,6,2,_Heartfelt_folk-pop-rock_Guitar_1,0.2659267783164978,0
55,100,0.12727272727272726,748,0,60,_Heartfelt_folk-pop-rock_Guitar_1,6,2,_Heartfelt_folk-pop-rock_Guitar_1,0.3541971743106842,0
53,100,0.2909090909090909,1,1,61,_Heartfelt_folk-pop-rock_Guitar_1,6,5,_Heartfelt_folk-pop-rock_Guitar_1,0.9986500144004822,1
62,100,0.29545454545454547,215,0,61,_Heartfelt_folk-pop-rock_Guitar_1,6,5,_Heartfelt_folk-pop-rock_Guitar_1,0.0878012478351593,0
53,100,0.10909090909090909,502,1,61,_Heartfelt_folk-pop-rock_Guitar_1,6,2,_Heartfelt_folk-pop-rock_Guitar_1,0.0918123871088028,0
53,100,0.2,657,0,61,_Heartfelt_folk-pop-rock_Guitar_1,6,3,_Heartfelt_folk-pop-rock_Guitar_1,0.10747625678777695,0
53,100,0.2409090909090909,785,0,61,_Heartfelt_folk-pop-rock_Guitar_1,6,4,_Heartfelt_folk-pop-rock_Guitar_1,0.12482591718435287,0
53,100,0.16818181818181818,874,0,61,_Heartfelt_folk-pop-rock_Guitar_1,6,3,_Heartfelt_folk-pop-rock_Guitar_1,0.1790333092212677,0
53,100,0.1318181818181818,200,1,62,_Heartfelt_folk-pop-rock_Guitar_1,6,2,_Heartfelt_folk-pop-rock_Guitar_1,0.9984880685806274,1
60,100,0.12727272727272726,238,0,62,_Heartfelt_folk-pop-rock_Guitar_1,6,2,_Heartfelt_folk-pop-rock_Guitar_1,0.06334450840950012,0
53,100,0.14545454545454545,269,0,62,_Heartfelt_folk-pop-rock_Guitar_1,6,2,_Heartfelt_folk-pop-rock_Guitar_1,0.05773942545056343,0
53,100,0.16363636363636364,350,0,62,_Heartfelt_folk-pop-rock_Guitar_1,6,3,_Heartfelt_folk-pop-rock_Guitar_1,0.0601993165910244,0
53,100,0.1318181818181818,480,0,62,_Heartfelt_folk-pop-rock_Guitar_1,6,2,_Heartfelt_folk-pop-rock_Guitar_1,0.06970003992319107,0
53,100,0.3090909090909091,763,1,62,_Heartfelt_folk-pop-rock_Guitar_1,6,5,_Heartfelt_folk-pop-rock_Guitar_1,0.08188983798027039,0
53,100,0.29545454545454547,847,0,62,_Heartfelt_folk-pop-rock_Guitar_1,6,5,_Heartfelt_folk-pop-rock_Guitar_1,0.12401539832353592,0
55,100,0.2,69,1,63,_Heartfelt_folk-pop-rock_Guitar_1,6,3,_Heartfelt_folk-pop-rock_Guitar_1,0.9990057349205017,1
55,100,0.16363636363636364,178,0,63,_Heartfelt_folk-pop-rock_Guitar_1,6,3,_Heartfelt_folk-pop-rock_Guitar_1,0.23119914531707764,0
53,100,0.18181818181818182,538,1,63,_Heartfelt_folk-pop-rock_Guitar_1,6,3,_Heartfelt_folk-pop-rock_Guitar_1,0.2659124433994293,0
60,100,0.5318181818181819,841,1,63,_Heartfelt_folk-pop-rock_Guitar_1,6,9,_Heartfelt_folk-pop-rock_Guitar_1,0.3541928827762604,0
54,100,0.09090909090909091,302,1,64,_Heartfelt_folk-pop-rock_Guitar_1,6,1,_Heartfelt_folk-pop-rock_Guitar_1,0.9984880685806274,1
53,100,0.10909090909090909,321,0,64,_Heartfelt_folk-pop-rock_Guitar_1,6,2,_Heartfelt_folk-pop-rock_Guitar_1,0.06334336847066879,0
53,100,0.11363636363636363,454,0,64,_Heartfelt_folk-pop-rock_Guitar_1,6,2,_Heartfelt_folk-pop-rock_Guitar_1,0.057741135358810425,0
53,100,0.14545454545454545,516,0,64,_Heartfelt_folk-pop-rock_Guitar_1,6,2,_Heartfelt_folk-pop-rock_Guitar_1,0.060199566185474396,0
65,100,0.1318181818181818,548,0,64,_Heartfelt_folk-pop-rock_Guitar_1,6,2,_Heartfelt_folk-pop-rock_Guitar_1,0.06970058381557465,0
53,100,0.2,661,0,64,_Heartfelt_folk-pop-rock_Guitar_1,6,3,_Heartfelt_folk-pop-rock_Guitar_1,0.08189214020967484,0
53,100,0.11363636363636363,738,0,64,_Heartfelt_folk-pop-rock_Guitar_1,6,2,_Heartfelt_folk-pop-rock_Guitar_1,0.12401660531759262,0
53,100,0.09090909090909091,0,1,65,_Heartfelt_folk-pop-rock_Guitar_1,6,1,_Heartfelt_folk-pop-rock_Guitar_1,0.9986500144004822,1
53,100,0.40454545454545454,234,1,65,_Heartfelt_folk-pop-rock_Guitar_1,6,6,_Heartfelt_folk-pop-rock_Guitar_1,0.0878031998872757,0
53,100,0.5318181818181819,363,0,65,_Heartfelt_folk-pop-rock_Guitar_1,6,9,_Heartfelt_folk-pop-rock_Guitar_1,0.09181120246648788,0
60,100,0.16818181818181818,484,0,65,_Heartfelt_folk-pop-rock_Guitar_1,6,3,_Heartfelt_folk-pop-rock_Guitar_1,0.10747767239809036,0
53,100,0.10909090909090909,537,0,65,_Heartfelt_folk-pop-rock_Guitar_1,6,2,_Heartfelt_folk-pop-rock_Guitar_1,0.12482260167598724,0
53,100,0.16363636363636364,797,1,65,_Heartfelt_folk-pop-rock_Guitar_1,6,3,_Heartfelt_folk-pop-rock_Guitar_1,0.17903156578540802,0
53,100,0.15,154,1,66,_Heartfelt_folk-pop-rock_Guitar_1,6,2,_Heartfelt_folk-pop-rock_Guitar_1,0.9990229606628418,1
62,100,0.5681818181818182,316,0,66,_Heartfelt_folk-pop-rock_Guitar_1,6,9,_Heartfelt_folk-pop-rock_Guitar_1,0.36662450432777405,0
53,100,0.21818181818181817,851,1,66,_Heartfelt_folk-pop-rock_Guitar_1,6,3,_Heartfelt_folk-pop-rock_Guitar_1,0.45329418778419495,0
53,100,0.11363636363636363,96,1,67,_Heartfelt_folk-pop-rock_Guitar_1,6,2,_Heartfelt_folk-pop-rock_Guitar_1,0.9984879493713379,1
53,100,0.20454545454545456,189,0,67,_Heartfelt_folk-pop-rock_Guitar_1,6,3,_Heartfelt_folk-pop-rock_Guitar_1,0.06334585696458817,0
53,100,0.12727272727272726,334,0,67,_Heartfelt_folk-pop-rock_Guitar_1,6,2,_Heartfelt_folk-pop-rock_Guitar_1,0.057741280645132065,0
60,100,0.10909090909090909,455,0,67,_Heartfelt_folk-pop-rock_Guitar_1,6,2,_Heartfelt_folk-pop-rock_Guitar_1,0.06020346283912659,0
60,100,0.18181818181818182,489,0,67,_Heartfelt_folk-pop-rock_Guitar_1,6,3,_Heartfelt_folk-pop-rock_Guitar_1,0.06970220804214478,0
53,100,0.09090909090909091,683,0,67,_Heartfelt_folk-pop-rock_Guitar_1,6,1,_Heartfelt_folk-pop-rock_Guitar_1,0.08189194649457932,0
53,100,0.2409090909090909,746,0,67,_Heartfelt_folk-pop-rock_Guitar_1,6,4,_Heartfelt_folk-pop-rock_Guitar_1,0.12401780486106873,0
53,100,0.09090909090909091,113,1,68,_Heartfelt_folk-pop-rock_Guitar_1,6,1,_Heartfelt_folk-pop-rock_Guitar_1,0.9983165264129639,1
53,100,0.2,163,0,68,_Heartfelt_folk-pop-rock_Guitar_1,6,3,_Heartfelt_folk-pop-rock_Guitar_1,0.5445556640625,0
60,100,0.11363636363636363,269,1,69,_Heartfelt_folk-pop-rock_Guitar_1,6,2,_Heartfelt_folk-pop-rock_Guitar_1,0.9990229606628418,1
53,100,0.15,439,0,69,_Heartfelt_folk-pop-rock_Guitar_1,6,2,_Heartfelt_folk-pop-rock_Guitar_1,0.3666177988052368,0
58,100,0.10909090909090909,523,0,69,_Heartfelt_folk-pop-rock_Guitar_1,6,2,_Heartfelt_folk-pop-rock_Guitar_1,0.4532887935638428,0
53,100,0.1,510,1,0,_Heartfelt_folk-pop-rock_Guitar,6,2,_Heartfelt_folk-pop-rock_Guitar,0.9990229606628418,1
57,100,0.2590909090909091,612,0,0,_Heartfelt_folk-pop-rock_Guitar,6,4,_Heartfelt_folk-pop-rock_Guitar,0.3666163682937622,0
53,100,0.4772727272727273,766,0,0,_Heartfelt_folk-pop-rock_Guitar,6,8,_Heartfelt_folk-pop-rock_Guitar,0.4532928764820099,0
53,100,0.6227272727272727,201,1,1,_Heartfelt_folk-pop-rock_Guitar,6,10,_Heartfelt_folk-pop-rock_Guitar,0.9990057349205017,1
53,100,0.21818181818181817,360,0,1,_Heartfelt_folk-pop-rock_Guitar,6,3,_Heartfelt_folk-pop-rock_Guitar,0.23119956254959106,0
53,100,0.5818181818181818,510,0,1,_Heartfelt_folk-pop-rock_Guitar,6,9,_Heartfelt_folk-pop-rock_Guitar,0.2659229040145874,0
55,100,0.2818181818181818,664,0,1,_Heartfelt_folk-pop-rock_Guitar,6,5,_Heartfelt_folk-pop-rock_Guitar,0.3541979193687439,0
53,100,0.3409090909090909,241,1,2,_Heartfelt_folk-pop-rock_Guitar,6,5,_Heartfelt_folk-pop-rock_Guitar,0.9988419413566589,1
55,100,0.22272727272727272,409,0,2,_Heartfelt_folk-pop-rock_Guitar,6,4,_Heartfelt_folk-pop-rock_Guitar,0.13724562525749207,0
53,100,0.22272727272727272,562,0,2,_Heartfelt_folk-pop-rock_Guitar,6,4,_Heartfelt_folk-pop-rock_Guitar,0.1597764790058136,0
53,100,0.18181818181818182,616,0,2,_Heartfelt_folk-pop-rock_Guitar,6,3,_Heartfelt_folk-pop-rock_Guitar,0.18644297122955322,0
53,100,0.32272727272727275,871,1,2,_Heartfelt_folk-pop-rock_Guitar,6,5,_Heartfelt_folk-pop-rock_Guitar,0.25816577672958374,0
57,100,0.2590909090909091,418,1,3,_Heartfelt_folk-pop-rock_Guitar,6,4,_Heartfelt_folk-pop-rock_Guitar,0.9990057349205017,1
57,100,0.6227272727272727,642,0,3,_Heartfelt_folk-pop-rock_Guitar,6,10,_Heartfelt_folk-pop-rock_Guitar,0.231209397315979,0
55,100,0.2409090909090909,791,0,3,_Heartfelt_folk-pop-rock_Guitar,6,4,_Heartfelt_folk-pop-rock_Guitar,0.2659260630607605,0
53,100,0.3409090909090909,849,0,3,_Heartfelt_folk-pop-rock_Guitar,6,5,_Heartfelt_folk-pop-rock_Guitar,0.3541969060897827,0
55,100,0.33636363636363636,61,1,4,_Heartfelt_folk-pop-rock_Guitar,6,5,_Heartfelt_folk-pop-rock_Guitar,0.9988419413566589,1
55,100,0.2409090909090909,383,1,4,_Heartfelt_folk-pop-rock_Guitar,6,4,_Heartfelt_folk-pop-rock_Guitar,0.13724753260612488,0
55,100,0.3181818181818182,537,0,4,_Heartfelt_folk-pop-rock_Guitar,6,5,_Heartfelt_folk-pop-rock_Guitar,0.15977594256401062,0
53,100,0.12272727272727273,752,0,4,_Heartfelt_folk-pop-rock_Guitar,6,2,_Heartfelt_folk-pop-rock_Guitar,0.18644019961357117,0
60,100,0.12272727272727273,849,0,4,_Heartfelt_folk-pop-rock_Guitar,6,2,_Heartfelt_folk-pop-rock_Guitar,0.2581568658351898,0
57,100,0.12272727272727273,79,1,5,_Heartfelt_folk-pop-rock_Guitar,6,2,_Heartfelt_folk-pop-rock_Guitar,0.9988419413566589,1
57,100,0.41818181818181815,171,0,5,_Heartfelt_folk-pop-rock_Guitar,6,7,_Heartfelt_folk-pop-rock_Guitar,0.13725529611110687,0
55,100,0.35909090909090907,360,0,5,_Heartfelt_folk-pop-rock_Guitar,6,6,_Heartfelt_folk-pop-rock_Guitar,0.15978486835956573,0
55,100,0.4772727272727273,480,0,5,_Heartfelt_folk-pop-rock_Guitar,6,8,_Heartfelt_folk-pop-rock_Guitar,0.1864585280418396,0
53,100,0.759090909090909,668,0,5,_Heartfelt_folk-pop-rock_Guitar,6,12,_Heartfelt_folk-pop-rock_Guitar,0.2581622898578644,0
53,100,0.17727272727272728,30,1,6,_Heartfelt_folk-pop-rock_Guitar,6,3,_Heartfelt_folk-pop-rock_Guitar,0.9982553124427795,1
53,100,0.11818181818181818,74,0,6,_Heartfelt_folk-pop-rock_Guitar,6,2,_Heartfelt_folk-pop-rock_Guitar,0.041286613792181015,0
53,100,0.16363636363636364,114,0,6,_Heartfelt_folk-pop-rock_Guitar,6,3,_Heartfelt_folk-pop-rock_Guitar,0.02893413044512272,0
53,100,0.41818181818181815,171,0,6,_Heartfelt_folk-pop-rock_Guitar,6,7,_Heartfelt_folk-pop-rock_Guitar,0.02128743752837181,0
53,100,0.3,268,0,6,_Heartfelt_folk-pop-rock_Guitar,6,5,_Heartfelt_folk-pop-rock_Guitar,0.01674417033791542,0
53,100,0.1590909090909091,342,0,6,_Heartfelt_folk-pop-rock_Guitar,6,3,_Heartfelt_folk-pop-rock_Guitar,0.014917331747710705,0
53,100,0.2,383,0,6,_Heartfelt_folk-pop-rock_Guitar,6,3,_Heartfelt_folk-pop-rock_Guitar,0.016014399006962776,0
53,100,0.3,545,0,6,_Heartfelt_folk-pop-rock_Guitar,6,5,_Heartfelt_folk-pop-rock_Guitar,0.02117782272398472,0
53,100,0.11818181818181818,721,0,6,_Heartfelt_folk-pop-rock_Guitar,6,2,_Heartfelt_folk-pop-rock_Guitar,0.03156611695885658,0
57,100,0.6590909090909091,805,0,6,_Heartfelt_folk-pop-rock_Guitar,6,11,_Heartfelt_folk-pop-rock_Guitar,0.06005620211362839,0
53,100,0.4590909090909091,470,1,7,_Heartfelt_folk-pop-rock_Guitar,6,7,_Heartfelt_folk-pop-rock_Guitar,0.9990229606628418,1
53,100,0.22272727272727272,619,0,7,_Heartfelt_folk-pop-rock_Guitar,6,4,_Heartfelt_folk-pop-rock_Guitar,0.36662036180496216,0
53,100,0.4772727272727273,691,0,7,_Heartfelt_folk-pop-rock_Guitar,6,8,_Heartfelt_folk-pop-rock_Guitar,0.4532858729362488,0
53,100,0.1590909090909091,22,1,8,_Heartfelt_folk-pop-rock_Guitar,6,3,_Heartfelt_folk-pop-rock_Guitar,0.9984880685806274,1
60,100,0.2590909090909091,206,0,8,_Heartfelt_folk-pop-rock_Guitar,6,4,_Heartfelt_folk-pop-rock_Guitar,0.0633469894528389,0
55,100,0.17727272727272728,316,0,8,_Heartfelt_folk-pop-rock_Guitar,6,3,_Heartfelt_folk-pop-rock_Guitar,0.057741422206163406,0
65,100,0.1590909090909091,462,0,8,_Heartfelt_folk-pop-rock_Guitar,6,3,_Heartfelt_folk-pop-rock_Guitar,0.060201797634363174,0
55,100,0.1,501,0,8,_Heartfelt_folk-pop-rock_Guitar,6,2,_Heartfelt_folk-pop-rock_Guitar,0.0697014257311821,0
53,100,0.1590909090909091,629,0,8,_Heartfelt_folk-pop-rock_Guitar,6,3,_Heartfelt_folk-pop-rock_Guitar,0.08189179748296738,0
53,100,0.2590909090909091,831,0,8,_Heartfelt_folk-pop-rock_Guitar,6,4,_Heartfelt_folk-pop-rock_Guitar,0.1240154579281807,0
53,100,0.3,22,1,9,_Heartfelt_folk-pop-rock_Guitar,6,5,_Heartfelt_folk-pop-rock_Guitar,0.9988419413566589,1
60,100,0.3409090909090909,101,0,9,_Heartfelt_folk-pop-rock_Guitar,6,5,_Heartfelt_folk-pop-rock_Guitar,0.13724589347839355,0
63,100,0.23636363636363636,216,0,9,_Heartfelt_folk-pop-rock_Guitar,6,4,_Heartfelt_folk-pop-rock_Guitar,0.15977145731449127,0
53,100,0.1,364,0,9,_Heartfelt_folk-pop-rock_Guitar,6,2,_Heartfelt_folk-pop-rock_Guitar,0.18644307553768158,0
55,100,0.17727272727272728,414,0,9,_Heartfelt_folk-pop-rock_Guitar,6,3,_Heartfelt_folk-pop-rock_Guitar,0.2581618130207062,0
53,100,0.1409090909090909,56,1,10,_Heartfelt_folk-pop-rock_Guitar,6,2,_Heartfelt_folk-pop-rock_Guitar,0.9990057349205017,1
53,100,0.1,92,0,10,_Heartfelt_folk-pop-rock_Guitar,6,2,_Heartfelt_folk-pop-rock_Guitar,0.23119960725307465,0
53,100,0.22272727272727272,474,1,10,_Heartfelt_folk-pop-rock_Guitar,6,4,_Heartfelt_folk-pop-rock_Guitar,0.2659112811088562,0
60,100,0.1,620,0,10,_Heartfelt_folk-pop-rock_Guitar,6,2,_Heartfelt_folk-pop-rock_Guitar,0.35419607162475586,0
53,100,0.12272727272727273,386,1,11,_Heartfelt_folk-pop-rock_Guitar,6,2,_Heartfelt_folk-pop-rock_Guitar,0.9986500144004822,1
53,100,0.12272727272727273,453,0,11,_Heartfelt_folk-pop-rock_Guitar,6,2,_Heartfelt_folk-pop-rock_Guitar,0.08780086785554886,0
53,100,0.1409090909090909,515,0,11,_Heartfelt_folk-pop-rock_Guitar,6,2,_Heartfelt_folk-pop-rock_Guitar,0.09181207418441772,0
58,100,0.11818181818181818,572,0,11,_Heartfelt_folk-pop-rock_Guitar,6,2,_Heartfelt_folk-pop-rock_Guitar,0.10747464746236801,0
60,100,0.1,685,0,11,_Heartfelt_folk-pop-rock_Guitar,6,2,_Heartfelt_folk-pop-rock_Guitar,0.12482282519340515,0
60,100,0.2772727272727273,744,0,11,_Heartfelt_folk-pop-rock_Guitar,6,4,_Heartfelt_folk-pop-rock_Guitar,0.17902998626232147,0
55,100,0.17727272727272728,17,1,12,_Heartfelt_folk-pop-rock_Guitar,6,3,_Heartfelt_folk-pop-rock_Guitar,0.9983165264129639,1
65,100,0.6409090909090909,56,0,12,_Heartfelt_folk-pop-rock_Guitar,6,10,_Heartfelt_folk-pop-rock_Guitar,0.5445526242256165,0
60,100,0.18181818181818182,110,1,13,_Heartfelt_folk-pop-rock_Guitar,6,3,_Heartfelt_folk-pop-rock_Guitar,0.9986500144004822,1
60,100,0.23636363636363636,414,1,13,_Heartfelt_folk-pop-rock_Guitar,6,4,_Heartfelt_folk-pop-rock_Guitar,0.08780384808778763,0
60,100,0.4590909090909091,470,0,13,_Heartfelt_folk-pop-rock_Guitar,6,7,_Heartfelt_folk-pop-rock_Guitar,0.09181388467550278,0
60,100,0.5409090909090909,606,0,13,_Heartfelt_folk-pop-rock_Guitar,6,9,_Heartfelt_folk-pop-rock_Guitar,0.10748060047626495,0
55,100,0.17727272727272728,744,0,13,_Heartfelt_folk-pop-rock_Guitar,6,3,_Heartfelt_folk-pop-rock_Guitar,0.12482760846614838,0
53,100,0.7,801,0,13,_Heartfelt_folk-pop-rock_Guitar,6,11,_Heartfelt_folk-pop-rock_Guitar,0.17903068661689758,0
53,100,0.21818181818181817,96,1,14,_Heartfelt_folk-pop-rock_Guitar,6,3,_Heartfelt_folk-pop-rock_Guitar,0.9984879493713379,1
53,100,0.1,158,0,14,_Heartfelt_folk-pop-rock_Guitar,6,2,_Heartfelt_folk-pop-rock_Guitar,0.06334594637155533,0
60,100,0.4,245,0,14,_Heartfelt_folk-pop-rock_Guitar,6,6,_Heartfelt_folk-pop-rock_Guitar,0.0577428974211216,0
57,100,0.1590909090909091,431,0,14,_Heartfelt_folk-pop-rock_Guitar,6,3,_Heartfelt_folk-pop-rock_Guitar,0.060200851410627365,0
62,100,0.3409090909090909,470,0,14,_Heartfelt_folk-pop-rock_Guitar,6,5,_Heartfelt_folk-pop-rock_Guitar,0.06970121711492538,0
53,100,0.11818181818181818,713,1,14,_Heartfelt_folk-pop-rock_Guitar,6,2,_Heartfelt_folk-pop-rock_Guitar,0.08189458400011063,0
60,100,0.7,778,0,14,_Heartfelt_folk-pop-rock_Guitar,6,11,_Heartfelt_folk-pop-rock_Guitar,0.12401862442493439,0
57,100,0.7,61,1,15,_Heartfelt_folk-pop-rock_Guitar,6,11,_Heartfelt_folk-pop-rock_Guitar,0.9990057349205017,1
55,100,0.4,453,1,15,_Heartfelt_folk-pop-rock_Guitar,6,6,_Heartfelt_folk-pop-rock_Guitar,0.23121237754821777,0
55,100,0.2772727272727273,546,0,15,_Heartfelt_folk-pop-rock_Guitar,6,4,_Heartfelt_folk-pop-rock_Guitar,0.26591917872428894,0
60,100,0.3,651,0,15,_Heartfelt_folk-pop-rock_Guitar,6,5,_Heartfelt_folk-pop-rock_Guitar,0.3541962802410126,0
64,100,0.2772727272727273,127,1,16,_Heartfelt_folk-pop-rock_Guitar,6,4,_Heartfelt_folk-pop-rock_Guitar,0.9983736276626587,1
55,100,0.3,233,0,16,_Heartfelt_folk-pop-rock_Guitar,6,5,_Heartfelt_folk-pop-rock_Guitar,0.05106158182024956,0
53,100,0.1409090909090909,364,0,16,_Heartfelt_folk-pop-rock_Guitar,6,2,_Heartfelt_folk-pop-rock_Guitar,0.04130307212471962,0
55,100,0.2409090909090909,443,0,16,_Heartfelt_folk-pop-rock_Guitar,6,4,_Heartfelt_folk-pop-rock_Guitar,0.037386804819107056,0
53,100,0.21818181818181817,505,0,16,_Heartfelt_folk-pop-rock_Guitar,6,3,_Heartfelt_folk-pop-rock_Guitar,0.03832835331559181,0
62,100,0.1,584,0,16,_Heartfelt_folk-pop-rock_Guitar,6,2,_Heartfelt_folk-pop-rock_Guitar,0.04475243017077446,0
62,100,0.3,686,0,16,_Heartfelt_folk-pop-rock_Guitar,6,5,_Heartfelt_folk-pop-rock_Guitar,0.05523020401597023,0
57,100,0.6818181818181818,814,0,16,_Heartfelt_folk-pop-rock_Guitar,6,11,_Heartfelt_folk-pop-rock_Guitar,0.09026531875133514,0
65,100,0.1409090909090909,110,1,17,_Heartfelt_folk-pop-rock_Guitar,6,2,_Heartfelt_folk-pop-rock_Guitar,0.9990057349205017,1
65,100,0.1590909090909091,175,0,17,_Heartfelt_folk-pop-rock_Guitar,6,3,_Heartfelt_folk-pop-rock_Guitar,0.23119741678237915,0
60,100,0.1409090909090909,312,0,17,_Heartfelt_folk-pop-rock_Guitar,6,2,_Heartfelt_folk-pop-rock_Guitar,0.2659171521663666,0
53,100,0.1590909090909091,691,1,17,_Heartfelt_folk-pop-rock_Guitar,6,3,_Heartfelt_folk-pop-rock_Guitar,0.3541862964630127,0
53,100,0.1590909090909091,167,1,18,_Heartfelt_folk-pop-rock_Guitar,6,3,_Heartfelt_folk-pop-rock_Guitar,0.979255735874176,0
53,100,0.1590909090909091,339,1,19,_Heartfelt_folk-pop-rock_Guitar,6,3,_Heartfelt_folk-pop-rock_Guitar,0.9988419413566589,1
65,100,0.2590909090909091,374,0,19,_Heartfelt_folk-pop-rock_Guitar,6,4,_Heartfelt_folk-pop-rock_Guitar,0.13724660873413086,0
55,100,0.33636363636363636,457,0,19,_Heartfelt_folk-pop-rock_Guitar,6,5,_Heartfelt_folk-pop-rock_Guitar,0.15977999567985535,0
53,100,0.1409090909090909,536,0,19,_Heartfelt_folk-pop-rock_Guitar,6,2,_Heartfelt_folk-pop-rock_Guitar,0.1864452213048935,0
53,100,0.3,576,0,19,_Heartfelt_folk-pop-rock_Guitar,6,5,_Heartfelt_folk-pop-rock_Guitar,0.2581650912761688,0
53,100,0.22272727272727272,57,1,20,_Heartfelt_folk-pop-rock_Guitar,6,4,_Heartfelt_folk-pop-rock_Guitar,0.9792559146881104,0
53,100,0.11818181818181818,501,1,24,_Heartfelt_folk-pop-rock_Guitar,6,2,_Heartfelt_folk-pop-rock_Guitar,0.9990229606628418,1
53,100,0.4818181818181818,650,0,24,_Heartfelt_folk-pop-rock_Guitar,6,8,_Heartfelt_folk-pop-rock_Guitar,0.3666180670261383,0
53,100,0.2818181818181818,770,0,24,_Heartfelt_folk-pop-rock_Guitar,6,5,_Heartfelt_folk-pop-rock_Guitar,0.45328763127326965,0
53,100,0.2772727272727273,162,1,25,_Heartfelt_folk-pop-rock_Guitar,6,4,_Heartfelt_folk-pop-rock_Guitar,0.9988419413566589,1
55,100,0.3181818181818182,260,0,25,_Heartfelt_folk-pop-rock_Guitar,6,5,_Heartfelt_folk-pop-rock_Guitar,0.13724969327449799,0
55,100,0.22272727272727272,497,1,25,_Heartfelt_folk-pop-rock_Guitar,6,4,_Heartfelt_folk-pop-rock_Guitar,0.1597832590341568,0
55,100,0.2,712,0,25,_Heartfelt_folk-pop-rock_Guitar,6,3,_Heartfelt_folk-pop-rock_Guitar,0.18644846975803375,0
55,100,0.2590909090909091,801,0,25,_Heartfelt_folk-pop-rock_Guitar,6,4,_Heartfelt_folk-pop-rock_Guitar,0.2581610679626465,0
57,100,0.2,17,1,26,_Heartfelt_folk-pop-rock_Guitar,6,3,_Heartfelt_folk-pop-rock_Guitar,0.9988419413566589,1
57,100,0.2,387,1,26,_Heartfelt_folk-pop-rock_Guitar,6,3,_Heartfelt_folk-pop-rock_Guitar,0.1372511088848114,0
57,100,0.3409090909090909,466,0,26,_Heartfelt_folk-pop-rock_Guitar,6,5,_Heartfelt_folk-pop-rock_Guitar,0.1597846895456314,0
57,100,0.1590909090909091,550,0,26,_Heartfelt_folk-pop-rock_Guitar,6,3,_Heartfelt_folk-pop-rock_Guitar,0.18645113706588745,0
53,100,0.740909090909091,673,0,26,_Heartfelt_folk-pop-rock_Guitar,6,12,_Heartfelt_folk-pop-rock_Guitar,0.258172869682312,0
53,100,0.13636363636363635,40,1,27,_Heartfelt_folk-pop-rock_Guitar,6,2,_Heartfelt_folk-pop-rock_Guitar,0.9984880685806274,1
53,100,0.16363636363636364,113,0,27,_Heartfelt_folk-pop-rock_Guitar,6,3,_Heartfelt_folk-pop-rock_Guitar,0.06334472447633743,0
53,100,0.41818181818181815,154,0,27,_Heartfelt_folk-pop-rock_Guitar,6,7,_Heartfelt_folk-pop-rock_Guitar,0.057738564908504486,0
53,100,0.6409090909090909,364,0,27,_Heartfelt_folk-pop-rock_Guitar,6,10,_Heartfelt_folk-pop-rock_Guitar,0.060199372470378876,0
53,100,0.5181818181818182,515,0,27,_Heartfelt_folk-pop-rock_Guitar,6,8,_Heartfelt_folk-pop-rock_Guitar,0.06969833374023438,0
53,100,0.3,642,0,27,_Heartfelt_folk-pop-rock_Guitar,6,5,_Heartfelt_folk-pop-rock_Guitar,0.08188966661691666,0
53,100,0.1409090909090909,748,0,27,_Heartfelt_folk-pop-rock_Guitar,6,2,_Heartfelt_folk-pop-rock_Guitar,0.12401428818702698,0
53,100,0.2,40,1,28,_Heartfelt_folk-pop-rock_Guitar,6,3,_Heartfelt_folk-pop-rock_Guitar,0.9986500144004822,1
55,100,0.2818181818181818,113,0,28,_Heartfelt_folk-pop-rock_Guitar,6,5,_Heartfelt_folk-pop-rock_Guitar,0.08780296891927719,0
60,100,0.1590909090909091,285,0,28,_Heartfelt_folk-pop-rock_Guitar,6,3,_Heartfelt_folk-pop-rock_Guitar,0.09181494265794754,0
60,100,0.2818181818181818,422,0,28,_Heartfelt_folk-pop-rock_Guitar,6,5,_Heartfelt_folk-pop-rock_Guitar,0.10747944563627243,0
55,100,0.35909090909090907,567,0,28,_Heartfelt_folk-pop-rock_Guitar,6,6,_Heartfelt_folk-pop-rock_Guitar,0.12482672929763794,0
55,100,0.3409090909090909,650,0,28,_Heartfelt_folk-pop-rock_Guitar,6,5,_Heartfelt_folk-pop-rock_Guitar,0.17903336882591248,0
62,100,0.21818181818181817,17,1,29,_Heartfelt_folk-pop-rock_Guitar,6,3,_Heartfelt_folk-pop-rock_Guitar,0.9984880685806274,1
65,100,0.1,100,0,29,_Heartfelt_folk-pop-rock_Guitar,6,2,_Heartfelt_folk-pop-rock_Guitar,0.06334426999092102,0
53,100,0.3409090909090909,470,1,29,_Heartfelt_folk-pop-rock_Guitar,6,5,_Heartfelt_folk-pop-rock_Guitar,0.057739850133657455,0
53,100,0.1590909090909091,571,0,29,_Heartfelt_folk-pop-rock_Guitar,6,3,_Heartfelt_folk-pop-rock_Guitar,0.060200199484825134,0
53,100,0.2818181818181818,638,0,29,_Heartfelt_folk-pop-rock_Guitar,6,5,_Heartfelt_folk-pop-rock_Guitar,0.06970122456550598,0
53,100,0.35909090909090907,770,0,29,_Heartfelt_folk-pop-rock_Guitar,6,6,_Heartfelt_folk-pop-rock_Guitar,0.08189272880554199,0
53,100,0.35909090909090907,870,0,29,_Heartfelt_folk-pop-rock_Guitar,6,6,_Heartfelt_folk-pop-rock_Guitar,0.12401845306158066,0
55,100,0.1,179,1,30,_Heartfelt_folk-pop-rock_Guitar,6,2,_Heartfelt_folk-pop-rock_Guitar,0.9983165264129639,1
53,100,0.2590909090909091,791,1,30,_Heartfelt_folk-pop-rock_Guitar,6,4,_Heartfelt_folk-pop-rock_Guitar,0.5445511341094971,0
53,100,0.32272727272727275,3,1,31,_Heartfelt_folk-pop-rock_Guitar,6,5,_Heartfelt_folk-pop-rock_Guitar,0.9990057349205017,1
53,100,0.3,79,0,31,_Heartfelt_folk-pop-rock_Guitar,6,5,_Heartfelt_folk-pop-rock_Guitar,0.23120185732841492,0
53,100,0.21818181818181817,198,0,31,_Heartfelt_folk-pop-rock_Guitar,6,3,_Heartfelt_folk-pop-rock_Guitar,0.2659252882003784,0
53,100,0.759090909090909,347,0,31,_Heartfelt_folk-pop-rock_Guitar,6,12,_Heartfelt_folk-pop-rock_Guitar,0.3541848063468933,0
55,100,0.18181818181818182,268,1,32,_Heartfelt_folk-pop-rock_Guitar,6,3,_Heartfelt_folk-pop-rock_Guitar,0.9792568683624268,1
53,100,0.5,651,1,33,_Heartfelt_folk-pop-rock_Guitar,6,8,_Heartfelt_folk-pop-rock_Guitar,0.979256272315979,0
53,100,0.1409090909090909,91,1,34,_Heartfelt_folk-pop-rock_Guitar,6,2,_Heartfelt_folk-pop-rock_Guitar,0.9990057349205017,1
53,100,0.3409090909090909,211,0,34,_Heartfelt_folk-pop-rock_Guitar,6,5,_Heartfelt_folk-pop-rock_Guitar,0.23120160400867462,0
53,100,0.23636363636363636,325,0,34,_Heartfelt_folk-pop-rock_Guitar,6,4,_Heartfelt_folk-pop-rock_Guitar,0.26592200994491577,0
55,100,0.12272727272727273,386,0,34,_Heartfelt_folk-pop-rock_Guitar,6,2,_Heartfelt_folk-pop-rock_Guitar,0.35419905185699463,0
53,100,0.740909090909091,418,1,35,_Heartfelt_folk-pop-rock_Guitar,6,12,_Heartfelt_folk-pop-rock_Guitar,0.9983165264129639,1
55,100,0.21818181818181817,836,1,35,_Heartfelt_folk-pop-rock_Guitar,6,3,_Heartfelt_folk-pop-rock_Guitar,0.5445559024810791,0
57,100,0.2636363636363636,334,1,36,_Heartfelt_folk-pop-rock_Guitar,6,4,_Heartfelt_folk-pop-rock_Guitar,0.9988419413566589,1
53,100,0.2818181818181818,506,0,36,_Heartfelt_folk-pop-rock_Guitar,6,5,_Heartfelt_folk-pop-rock_Guitar,0.13724827766418457,0
60,100,0.3,590,0,36,_Heartfelt_folk-pop-rock_Guitar,6,5,_Heartfelt_folk-pop-rock_Guitar,0.15977750718593597,0
69,100,0.17727272727272728,801,0,36,_Heartfelt_folk-pop-rock_Guitar,6,3,_Heartfelt_folk-pop-rock_Guitar,0.18644435703754425,0
53,100,0.6181818181818182,875,0,36,_Heartfelt_folk-pop-rock_Guitar,6,10,_Heartfelt_folk-pop-rock_Guitar,0.25815820693969727,0
60,100,0.2409090909090909,185,1,37,_Heartfelt_folk-pop-rock_Guitar,6,4,_Heartfelt_folk-pop-rock_Guitar,0.9986500144004822,1
55,100,0.35909090909090907,286,0,37,_Heartfelt_folk-pop-rock_Guitar,6,6,_Heartfelt_folk-pop-rock_Guitar,0.08780612051486969,0
55,100,0.4,471,0,37,_Heartfelt_folk-pop-rock_Guitar,6,6,_Heartfelt_folk-pop-rock_Guitar,0.09181617200374603,0
55,100,0.43636363636363634,700,0,37,_Heartfelt_folk-pop-rock_Guitar,6,7,_Heartfelt_folk-pop-rock_Guitar,0.10748257488012314,0
55,100,0.16363636363636364,818,0,37,_Heartfelt_folk-pop-rock_Guitar,6,3,_Heartfelt_folk-pop-rock_Guitar,0.124830462038517,0
55,100,0.1409090909090909,858,0,37,_Heartfelt_folk-pop-rock_Guitar,6,2,_Heartfelt_folk-pop-rock_Guitar,0.17903479933738708,0
53,100,0.1590909090909091,56,1,38,_Heartfelt_folk-pop-rock_Guitar,6,3,_Heartfelt_folk-pop-rock_Guitar,0.9988419413566589,1
53,100,0.2772727272727273,251,0,38,_Heartfelt_folk-pop-rock_Guitar,6,4,_Heartfelt_folk-pop-rock_Guitar,0.13724428415298462,0
53,100,0.6,370,0,38,_Heartfelt_folk-pop-rock_Guitar,6,10,_Heartfelt_folk-pop-rock_Guitar,0.15977293252944946,0
60,100,0.6,531,0,38,_Heartfelt_folk-pop-rock_Guitar,6,10,_Heartfelt_folk-pop-rock_Guitar,0.18644586205482483,0
55,100,0.1409090909090909,694,0,38,_Heartfelt_folk-pop-rock_Guitar,6,2,_Heartfelt_folk-pop-rock_Guitar,0.2581649422645569,0
57,100,0.32272727272727275,276,1,39,_Heartfelt_folk-pop-rock_Guitar,6,5,_Heartfelt_folk-pop-rock_Guitar,0.9984880685806274,1
53,100,0.3,356,0,39,_Heartfelt_folk-pop-rock_Guitar,6,5,_Heartfelt_folk-pop-rock_Guitar,0.06334434449672699,0
53,100,0.18181818181818182,431,0,39,_Heartfelt_folk-pop-rock_Guitar,6,3,_Heartfelt_folk-pop-rock_Guitar,0.05773972347378731,0
53,100,0.11818181818181818,633,0,39,_Heartfelt_folk-pop-rock_Guitar,6,2,_Heartfelt_folk-pop-rock_Guitar,0.06019951030611992,0
53,100,0.13636363636363635,721,0,39,_Heartfelt_folk-pop-rock_Guitar,6,2,_Heartfelt_folk-pop-rock_Guitar,0.06969908624887466,0
60,100,0.2,770,0,39,_Heartfelt_folk-pop-rock_Guitar,6,3,_Heartfelt_folk-pop-rock_Guitar,0.08189047127962112,0
69,100,0.2818181818181818,818,0,39,_Heartfelt_folk-pop-rock_Guitar,6,5,_Heartfelt_folk-pop-rock_Guitar,0.12401369959115982,0
53,100,0.3409090909090909,4,1,40,_Heartfelt_folk-pop-rock_Guitar,6,5,_Heartfelt_folk-pop-rock_Guitar,0.9983736276626587,1
55,100,0.2818181818181818,91,0,40,_Heartfelt_folk-pop-rock_Guitar,6,5,_Heartfelt_folk-pop-rock_Guitar,0.051061246544122696,0
55,100,0.2409090909090909,273,0,40,_Heartfelt_folk-pop-rock_Guitar,6,4,_Heartfelt_folk-pop-rock_Guitar,0.041304152458906174,0
55,100,0.3181818181818182,330,0,40,_Heartfelt_folk-pop-rock_Guitar,6,5,_Heartfelt_folk-pop-rock_Guitar,0.03738651052117348,0
55,100,0.6409090909090909,421,0,40,_Heartfelt_folk-pop-rock_Guitar,6,10,_Heartfelt_folk-pop-rock_Guitar,0.03833005949854851,0
55,100,0.11818181818181818,581,0,40,_Heartfelt_folk-pop-rock_Guitar,6,2,_Heartfelt_folk-pop-rock_Guitar,0.04475153237581253,0
55,100,0.4772727272727273,700,0,40,_Heartfelt_folk-pop-rock_Guitar,6,8,_Heartfelt_folk-pop-rock_Guitar,0.05522884801030159,0
53,100,0.1,826,0,40,_Heartfelt_folk-pop-rock_Guitar,6,2,_Heartfelt_folk-pop-rock_Guitar,0.09026291221380234,0
55,100,0.12272727272727273,13,1,41,_Heartfelt_folk-pop-rock_Guitar,6,2,_Heartfelt_folk-pop-rock_Guitar,0.9792567491531372,0
58,100,0.18181818181818182,13,1,48,_Heartfelt_folk-pop-rock_Guitar,6,3,_Heartfelt_folk-pop-rock_Guitar,0.9990057349205017,1
53,100,0.11818181818181818,96,0,48,_Heartfelt_folk-pop-rock_Guitar,6,2,_Heartfelt_folk-pop-rock_Guitar,0.23119181394577026,0
53,100,0.11818181818181818,471,1,48,_Heartfelt_folk-pop-rock_Guitar,6,2,_Heartfelt_folk-pop-rock_Guitar,0.2659132778644562,0
53,100,0.11818181818181818,633,0,48,_Heartfelt_folk-pop-rock_Guitar,6,2,_Heartfelt_folk-pop-rock_Guitar,0.3541942238807678,0
53,100,0.1590909090909091,105,1,49,_Heartfelt_folk-pop-rock_Guitar,6,3,_Heartfelt_folk-pop-rock_Guitar,0.9990057349205017,1
53,100,0.1409090909090909,144,0,49,_Heartfelt_folk-pop-rock_Guitar,6,2,_Heartfelt_folk-pop-rock_Guitar,0.23119966685771942,0
60,100,0.2409090909090909,431,1,49,_Heartfelt_folk-pop-rock_Guitar,6,4,_Heartfelt_folk-pop-rock_Guitar,0.2659163773059845,0
64,100,0.2818181818181818,628,0,49,_Heartfelt_folk-pop-rock_Guitar,6,5,_Heartfelt_folk-pop-rock_Guitar,0.3541930019855499,0
60,100,0.22272727272727272,431,1,50,_Heartfelt_folk-pop-rock_Guitar,6,4,_Heartfelt_folk-pop-rock_Guitar,0.9983165264129639,1
59,100,0.17727272727272728,501,0,50,_Heartfelt_folk-pop-rock_Guitar,6,3,_Heartfelt_folk-pop-rock_Guitar,0.5445536971092224,0
53,100,0.11818181818181818,105,1,51,_Heartfelt_folk-pop-rock_Guitar,6,2,_Heartfelt_folk-pop-rock_Guitar,0.9990057349205017,1
58,100,0.1590909090909091,131,0,51,_Heartfelt_folk-pop-rock_Guitar,6,3,_Heartfelt_folk-pop-rock_Guitar,0.23120379447937012,0
53,100,0.21818181818181817,405,1,51,_Heartfelt_folk-pop-rock_Guitar,6,3,_Heartfelt_folk-pop-rock_Guitar,0.26591727137565613,0
53,100,0.21818181818181817,603,0,51,_Heartfelt_folk-pop-rock_Guitar,6,3,_Heartfelt_folk-pop-rock_Guitar,0.35418736934661865,0
55,100,0.32272727272727275,848,1,52,_Heartfelt_folk-pop-rock_Guitar,6,5,_Heartfelt_folk-pop-rock_Guitar,0.979256272315979,0
55,100,0.1,276,1,53,_Heartfelt_folk-pop-rock_Guitar,6,2,_Heartfelt_folk-pop-rock_Guitar,0.9792563915252686,0
53,100,0.11818181818181818,646,1,54,_Heartfelt_folk-pop-rock_Guitar,6,2,_Heartfelt_folk-pop-rock_Guitar,0.9983164072036743,1
53,100,0.12272727272727273,761,0,54,_Heartfelt_folk-pop-rock_Guitar,6,2,_Heartfelt_folk-pop-rock_Guitar,0.5445531606674194,0
53,100,0.5409090909090909,118,1,55,_Heartfelt_folk-pop-rock_Guitar,6,9,_Heartfelt_folk-pop-rock_Guitar,0.9990057349205017,1
65,100,0.12272727272727273,311,0,55,_Heartfelt_folk-pop-rock_Guitar,6,2,_Heartfelt_folk-pop-rock_Guitar,0.23120075464248657,0
60,100,0.6409090909090909,453,0,55,_Heartfelt_folk-pop-rock_Guitar,6,10,_Heartfelt_folk-pop-rock_Guitar,0.2659144401550293,0
60,100,0.1409090909090909,598,0,55,_Heartfelt_folk-pop-rock_Guitar,6,2,_Heartfelt_folk-pop-rock_Guitar,0.35419952869415283,0
60,100,0.7227272727272728,144,1,56,_Heartfelt_folk-pop-rock_Guitar,6,12,_Heartfelt_folk-pop-rock_Guitar,0.9990057349205017,1
62,100,0.22272727272727272,334,0,56,_Heartfelt_folk-pop-rock_Guitar,6,4,_Heartfelt_folk-pop-rock_Guitar,0.2312055230140686,0
55,100,0.2590909090909091,471,0,56,_Heartfelt_folk-pop-rock_Guitar,6,4,_Heartfelt_folk-pop-rock_Guitar,0.265929251909256,0
55,100,0.4772727272727273,581,0,56,_Heartfelt_folk-pop-rock_Guitar,6,8,_Heartfelt_folk-pop-rock_Guitar,0.354194313287735,0
55,100,0.36363636363636365,619,1,57,_Heartfelt_folk-pop-rock_Guitar,6,6,_Heartfelt_folk-pop-rock_Guitar,0.9990229606628418,1
55,100,0.3409090909090909,708,0,57,_Heartfelt_folk-pop-rock_Guitar,6,5,_Heartfelt_folk-pop-rock_Guitar,0.3666284680366516,0
57,100,0.1590909090909091,801,0,57,_Heartfelt_folk-pop-rock_Guitar,6,3,_Heartfelt_folk-pop-rock_Guitar,0.4532845914363861,0
53,100,0.759090909090909,338,1,59,_Heartfelt_folk-pop-rock_Guitar,6,12,_Heartfelt_folk-pop-rock_Guitar,0.9792560338973999,0
74,100,1.0636363636363637,774,1,63,_Heartfelt_folk-pop-rock_Guitar,6,15,_Heartfelt_folk-pop-rock_Guitar,0.9792567491531372,1
72,100,1.6772727272727272,127,1,64,_Heartfelt_folk-pop-rock_Guitar,6,15,_Heartfelt_folk-pop-rock_Guitar,0.979255735874176,0
53,100,0.13636363636363635,40,1,65,_Heartfelt_folk-pop-rock_Guitar,6,2,_Heartfelt_folk-pop-rock_Guitar,0.9990057349205017,1
53,100,0.1409090909090909,189,0,65,_Heartfelt_folk-pop-rock_Guitar,6,2,_Heartfelt_folk-pop-rock_Guitar,0.23120082914829254,0
53,100,0.2409090909090909,267,0,65,_Heartfelt_folk-pop-rock_Guitar,6,4,_Heartfelt_folk-pop-rock_Guitar,0.26591870188713074,0
53,100,0.6818181818181818,506,1,65,_Heartfelt_folk-pop-rock_Guitar,6,11,_Heartfelt_folk-pop-rock_Guitar,0.3541935980319977,0
55,100,0.1409090909090909,30,1,66,_Heartfelt_folk-pop-rock_Guitar,6,2,_Heartfelt_folk-pop-rock_Guitar,0.9988419413566589,1
55,100,0.1409090909090909,179,0,66,_Heartfelt_folk-pop-rock_Guitar,6,2,_Heartfelt_folk-pop-rock_Guitar,0.137247696518898,0
53,100,0.3181818181818182,326,0,66,_Heartfelt_folk-pop-rock_Guitar,6,5,_Heartfelt_folk-pop-rock_Guitar,0.15977157652378082,0
62,100,0.3181818181818182,559,1,66,_Heartfelt_folk-pop-rock_Guitar,6,5,_Heartfelt_folk-pop-rock_Guitar,0.18644480407238007,0
53,100,0.12272727272727273,870,1,66,_Heartfelt_folk-pop-rock_Guitar,6,2,_Heartfelt_folk-pop-rock_Guitar,0.2581644654273987,0
53,100,0.22272727272727272,157,1,67,_Heartfelt_folk-pop-rock_Guitar,6,4,_Heartfelt_folk-pop-rock_Guitar,0.9984880685806274,1
53,100,0.2590909090909091,299,0,67,_Heartfelt_folk-pop-rock_Guitar,6,4,_Heartfelt_folk-pop-rock_Guitar,0.06334398686885834,0
53,100,0.18181818181818182,396,0,67,_Heartfelt_folk-pop-rock_Guitar,6,3,_Heartfelt_folk-pop-rock_Guitar,0.05773942545056343,0
53,100,0.1409090909090909,619,0,67,_Heartfelt_folk-pop-rock_Guitar,6,2,_Heartfelt_folk-pop-rock_Guitar,0.060197614133358,0
60,100,0.1409090909090909,660,0,67,_Heartfelt_folk-pop-rock_Guitar,6,2,_Heartfelt_folk-pop-rock_Guitar,0.06969790905714035,0
53,100,0.1590909090909091,695,0,67,_Heartfelt_folk-pop-rock_Guitar,6,3,_Heartfelt_folk-pop-rock_Guitar,0.08188813924789429,0
53,100,0.18181818181818182,783,0,67,_Heartfelt_folk-pop-rock_Guitar,6,3,_Heartfelt_folk-pop-rock_Guitar,0.12401026487350464,0
53,100,0.1409090909090909,43,1,68,_Heartfelt_folk-pop-rock_Guitar,6,2,_Heartfelt_folk-pop-rock_Guitar,0.9988419413566589,1
53,100,0.3409090909090909,352,1,68,_Heartfelt_folk-pop-rock_Guitar,6,5,_Heartfelt_folk-pop-rock_Guitar,0.13724583387374878,0
53,100,0.32272727272727275,443,0,68,_Heartfelt_folk-pop-rock_Guitar,6,5,_Heartfelt_folk-pop-rock_Guitar,0.15978263318538666,0
55,100,0.22272727272727272,553,0,68,_Heartfelt_folk-pop-rock_Guitar,6,4,_Heartfelt_folk-pop-rock_Guitar,0.18645009398460388,0
55,100,0.18181818181818182,673,0,68,_Heartfelt_folk-pop-rock_Guitar,6,3,_Heartfelt_folk-pop-rock_Guitar,0.2581649720668793,0
53,100,0.2,184,1,69,_Heartfelt_folk-pop-rock_Guitar,6,3,_Heartfelt_folk-pop-rock_Guitar,0.9983165264129639,1
60,100,0.5772727272727273,514,1,69,_Heartfelt_folk-pop-rock_Guitar,6,9,_Heartfelt_folk-pop-rock_Guitar,0.5445596575737,0
54,100,0.1,3,1,70,_Heartfelt_folk-pop-rock_Guitar,6,2,_Heartfelt_folk-pop-rock_Guitar,0.9983736276626587,1
53,100,0.12272727272727273,26,0,70,_Heartfelt_folk-pop-rock_Guitar,6,2,_Heartfelt_folk-pop-rock_Guitar,0.05105847120285034,0
53,100,0.11818181818181818,172,0,70,_Heartfelt_folk-pop-rock_Guitar,6,2,_Heartfelt_folk-pop-rock_Guitar,0.041301336139440536,0
53,100,0.1590909090909091,237,0,70,_Heartfelt_folk-pop-rock_Guitar,6,3,_Heartfelt_folk-pop-rock_Guitar,0.03738357871770859,0
65,100,0.1409090909090909,273,0,70,_Heartfelt_folk-pop-rock_Guitar,6,2,_Heartfelt_folk-pop-rock_Guitar,0.038327161222696304,0
53,100,0.21818181818181817,396,0,70,_Heartfelt_folk-pop-rock_Guitar,6,3,_Heartfelt_folk-pop-rock_Guitar,0.044748324900865555,0
53,100,0.11818181818181818,480,0,70,_Heartfelt_folk-pop-rock_Guitar,6,2,_Heartfelt_folk-pop-rock_Guitar,0.05522548034787178,0
53,100,0.1,633,0,70,_Heartfelt_folk-pop-rock_Guitar,6,2,_Heartfelt_folk-pop-rock_Guitar,0.0902600809931755,0
53,100,0.4409090909090909,9,1,71,_Heartfelt_folk-pop-rock_Guitar,6,7,_Heartfelt_folk-pop-rock_Guitar,0.9988419413566589,1
53,100,0.5772727272727273,150,0,71,_Heartfelt_folk-pop-rock_Guitar,6,9,_Heartfelt_folk-pop-rock_Guitar,0.13724778592586517,0
60,100,0.17727272727272728,282,0,71,_Heartfelt_folk-pop-rock_Guitar,6,3,_Heartfelt_folk-pop-rock_Guitar,0.15977588295936584,0
53,100,0.11818181818181818,339,0,71,_Heartfelt_folk-pop-rock_Guitar,6,2,_Heartfelt_folk-pop-rock_Guitar,0.18644782900810242,0
53,100,0.18181818181818182,619,1,71,_Heartfelt_folk-pop-rock_Guitar,6,3,_Heartfelt_folk-pop-rock_Guitar,0.25816166400909424,0
53,100,0.1590909090909091,0,1,72,_Heartfelt_folk-pop-rock_Guitar,6,3,_Heartfelt_folk-pop-rock_Guitar,0.9990229606628418,1
62,100,0.6181818181818182,176,0,72,_Heartfelt_folk-pop-rock_Guitar,6,10,_Heartfelt_folk-pop-rock_Guitar,0.3666248619556427,0
53,100,0.2409090909090909,756,1,72,_Heartfelt_folk-pop-rock_Guitar,6,4,_Heartfelt_folk-pop-rock_Guitar,0.4533024728298187,0
53,100,0.12272727272727273,13,1,73,_Heartfelt_folk-pop-rock_Guitar,6,2,_Heartfelt_folk-pop-rock_Guitar,0.9984880685806274,1
53,100,0.22272727272727272,113,0,73,_Heartfelt_folk-pop-rock_Guitar,6,4,_Heartfelt_folk-pop-rock_Guitar,0.06334319710731506,0
53,100,0.1409090909090909,273,0,73,_Heartfelt_folk-pop-rock_Guitar,6,2,_Heartfelt_folk-pop-rock_Guitar,0.05773908644914627,0
60,100,0.11818181818181818,404,0,73,_Heartfelt_folk-pop-rock_Guitar,6,2,_Heartfelt_folk-pop-rock_Guitar,0.06019953638315201,0
60,100,0.2,440,0,73,_Heartfelt_folk-pop-rock_Guitar,6,3,_Heartfelt_folk-pop-rock_Guitar,0.06969992816448212,0
53,100,0.1,650,0,73,_Heartfelt_folk-pop-rock_Guitar,6,2,_Heartfelt_folk-pop-rock_Guitar,0.08188875764608383,0
53,100,0.2590909090909091,722,0,73,_Heartfelt_folk-pop-rock_Guitar,6,4,_Heartfelt_folk-pop-rock_Guitar,0.12401736527681351,0
53,100,0.1,110,1,74,_Heartfelt_folk-pop-rock_Guitar,6,2,_Heartfelt_folk-pop-rock_Guitar,0.9983164072036743,1
53,100,0.21818181818181817,163,0,74,_Heartfelt_folk-pop-rock_Guitar,6,3,_Heartfelt_folk-pop-rock_Guitar,0.5445555448532104,0
60,100,0.12272727272727273,356,1,75,_Heartfelt_folk-pop-rock_Guitar,6,2,_Heartfelt_folk-pop-rock_Guitar,0.9990229606628418,1
53,100,0.1590909090909091,540,0,75,_Heartfelt_folk-pop-rock_Guitar,6,3,_Heartfelt_folk-pop-rock_Guitar,0.36661386489868164,0
58,100,0.11818181818181818,633,0,75,_Heartfelt_folk-pop-rock_Guitar,6,2,_Heartfelt_folk-pop-rock_Guitar,0.4532874822616577,0
52,100,0.2409090909090909,528,1,0,DL_Guitar,6,4,DL_Guitar,0.9990229606628418,1
52,100,0.3,660,0,0,DL_Guitar,6,5,DL_Guitar,0.36662060022354126,0
52,100,0.42272727272727273,761,0,0,DL_Guitar,6,7,DL_Guitar,0.45328840613365173,0
64,100,0.16363636363636364,4,1,1,DL_Guitar,6,3,DL_Guitar,0.9792566299438477,0
52,100,0.17727272727272728,229,1,2,DL_Guitar,6,3,DL_Guitar,0.9983165264129639,1
52,100,0.38181818181818183,409,0,2,DL_Guitar,6,6,DL_Guitar,0.5445572137832642,0
56,100,0.2,488,1,3,DL_Guitar,6,3,DL_Guitar,0.9983164072036743,1
56,100,0.1590909090909091,546,0,3,DL_Guitar,6,3,DL_Guitar,0.5445496439933777,0
52,100,0.17727272727272728,184,1,4,DL_Guitar,6,3,DL_Guitar,0.9990230798721313,1
52,100,0.17727272727272728,317,0,4,DL_Guitar,6,3,DL_Guitar,0.36661890149116516,0
52,100,0.1590909090909091,458,0,4,DL_Guitar,6,3,DL_Guitar,0.45329272747039795,0
52,100,0.2772727272727273,700,1,5,DL_Guitar,6,4,DL_Guitar,0.9792568683624268,0
64,100,0.2,757,1,6,DL_Guitar,6,3,DL_Guitar,0.9983165264129639,1
64,100,0.12272727272727273,839,0,6,DL_Guitar,6,2,DL_Guitar,0.5445568561553955,0
57,100,0.13636363636363635,238,1,7,DL_Guitar,6,2,DL_Guitar,0.9990229606628418,1
52,100,0.12272727272727273,629,1,7,DL_Guitar,6,2,DL_Guitar,0.3666236102581024,0
52,100,0.17727272727272728,757,0,7,DL_Guitar,6,3,DL_Guitar,0.45328792929649353,0
64,100,0.1,8,1,8,DL_Guitar,6,2,DL_Guitar,0.9983736276626587,1
52,100,0.1,92,0,8,DL_Guitar,6,2,DL_Guitar,0.051061686128377914,0
52,100,0.2772727272727273,127,0,8,DL_Guitar,6,4,DL_Guitar,0.041303303092718124,0
52,100,0.11818181818181818,237,0,8,DL_Guitar,6,2,DL_Guitar,0.03738837316632271,0
57,100,0.2590909090909091,285,0,8,DL_Guitar,6,4,DL_Guitar,0.038331903517246246,0
57,100,1.0,369,0,8,DL_Guitar,6,15,DL_Guitar,0.044754527509212494,0
52,100,0.2,708,1,8,DL_Guitar,6,3,DL_Guitar,0.05523389205336571,0
52,100,0.2590909090909091,857,0,8,DL_Guitar,6,4,DL_Guitar,0.09026940166950226,0
57,100,0.1590909090909091,34,1,9,DL_Guitar,6,3,DL_Guitar,0.9983165264129639,1
56,100,0.2590909090909091,835,1,9,DL_Guitar,6,4,DL_Guitar,0.5445548892021179,0
52,100,0.2,48,1,10,DL_Guitar,6,3,DL_Guitar,0.9988419413566589,1
52,100,0.1,118,0,10,DL_Guitar,6,2,DL_Guitar,0.13724753260612488,0
52,100,0.1,144,0,10,DL_Guitar,6,2,DL_Guitar,0.15978172421455383,0
54,100,0.1,330,0,10,DL_Guitar,6,2,DL_Guitar,0.18645204603672028,0
54,100,0.1590909090909091,854,1,10,DL_Guitar,6,3,DL_Guitar,0.25817546248435974,0
54,100,0.2,30,1,11,DL_Guitar,6,3,DL_Guitar,0.9983165264129639,1
64,100,0.1,770,1,11,DL_Guitar,6,2,DL_Guitar,0.5445582270622253,0
52,100,0.22272727272727272,826,1,12,DL_Guitar,6,4,DL_Guitar,0.9792565107345581,0
52,100,0.5,598,1,13,DL_Guitar,6,8,DL_Guitar,0.9990230798721313,1
52,100,0.42272727272727273,730,0,13,DL_Guitar,6,7,DL_Guitar,0.36662063002586365,0
52,100,0.18181818181818182,835,0,13,DL_Guitar,6,3,DL_Guitar,0.45329517126083374,0
52,100,0.21818181818181817,22,1,14,DL_Guitar,6,3,DL_Guitar,0.9983165264129639,1
64,100,0.1409090909090909,835,1,14,DL_Guitar,6,2,DL_Guitar,0.5445588231086731,0
71,100,0.12272727272727273,233,1,15,DL_Guitar,6,2,DL_Guitar,0.9990230798721313,1
54,100,0.13636363636363635,766,1,15,DL_Guitar,6,2,DL_Guitar,0.3666233718395233,0
54,100,0.11818181818181818,809,0,15,DL_Guitar,6,2,DL_Guitar,0.45329418778419495,0
56,100,0.2,663,1,17,DL_Guitar,6,3,DL_Guitar,0.979255735874176,0
60,100,0.37727272727272726,96,1,19,DL_Guitar,6,6,DL_Guitar,0.9792565107345581,0
66,100,0.2772727272727273,40,1,20,DL_Guitar,6,4,DL_Guitar,0.9988420605659485,1
54,100,0.4409090909090909,140,0,20,DL_Guitar,6,7,DL_Guitar,0.1372496783733368,0
54,100,0.4,272,0,20,DL_Guitar,6,6,DL_Guitar,0.15978071093559265,0
56,100,0.2818181818181818,550,1,20,DL_Guitar,6,5,DL_Guitar,0.18644708395004272,0
56,100,0.37727272727272726,756,0,20,DL_Guitar,6,6,DL_Guitar,0.25816547870635986,0
52,100,0.16363636363636364,3,1,21,DL_Guitar,6,3,DL_Guitar,0.9983003735542297,1
59,100,0.1,241,1,21,DL_Guitar,6,2,DL_Guitar,0.044664815068244934,0
52,100,0.3,339,0,21,DL_Guitar,6,5,DL_Guitar,0.03315087407827377,0
57,100,0.17727272727272728,413,0,21,DL_Guitar,6,3,DL_Guitar,0.02658059261739254,0
52,100,0.3,453,0,21,DL_Guitar,6,5,DL_Guitar,0.023596372455358505,0
52,100,0.21818181818181817,523,0,21,DL_Guitar,6,3,DL_Guitar,0.024315841495990753,0
52,100,0.11818181818181818,712,0,21,DL_Guitar,6,2,DL_Guitar,0.029691584408283234,0
64,100,0.2,787,0,21,DL_Guitar,6,3,DL_Guitar,0.04007875546813011,0
52,100,0.13636363636363635,831,0,21,DL_Guitar,6,2,DL_Guitar,0.0709303691983223,0
52,100,0.21818181818181817,0,1,22,DL_Guitar,6,3,DL_Guitar,0.9988419413566589,1
52,100,0.1,52,0,22,DL_Guitar,6,2,DL_Guitar,0.13725069165229797,0
57,100,0.17727272727272728,75,0,22,DL_Guitar,6,3,DL_Guitar,0.1597832441329956,0
57,100,0.38181818181818183,175,0,22,DL_Guitar,6,6,DL_Guitar,0.18645614385604858,0
57,100,0.1,567,1,22,DL_Guitar,6,2,DL_Guitar,0.2581753730773926,0
54,100,0.1409090909090909,308,1,23,DL_Guitar,6,2,DL_Guitar,0.9983165264129639,1
54,100,0.1409090909090909,550,1,23,DL_Guitar,6,2,DL_Guitar,0.5445547699928284,0
59,100,0.16363636363636364,466,1,24,DL_Guitar,6,3,DL_Guitar,0.9990230798721313,1
54,100,0.1409090909090909,571,0,24,DL_Guitar,6,2,DL_Guitar,0.3666200339794159,0
55,100,0.1409090909090909,691,0,24,DL_Guitar,6,2,DL_Guitar,0.45329126715660095,0
64,100,0.3,167,1,25,DL_Guitar,6,5,DL_Guitar,0.9990229606628418,1
52,100,0.22272727272727272,320,0,25,DL_Guitar,6,4,DL_Guitar,0.3666301667690277,0
59,100,0.11818181818181818,831,1,25,DL_Guitar,6,2,DL_Guitar,0.45328983664512634,0
52,100,0.22272727272727272,57,1,26,DL_Guitar,6,4,DL_Guitar,0.9983165264129639,1
52,100,0.6,206,0,26,DL_Guitar,6,10,DL_Guitar,0.5445593595504761,0
52,100,0.16363636363636364,3,1,27,DL_Guitar,6,3,DL_Guitar,0.9990057349205017,1
52,100,0.2636363636363636,48,0,27,DL_Guitar,6,4,DL_Guitar,0.23119884729385376,0
59,100,0.2636363636363636,223,0,27,DL_Guitar,6,4,DL_Guitar,0.26591747999191284,0
52,100,0.12272727272727273,299,0,27,DL_Guitar,6,2,DL_Guitar,0.3541998863220215,0
56,100,0.1409090909090909,246,1,29,DL_Guitar,6,2,DL_Guitar,0.9983165264129639,1
52,100,0.2409090909090909,607,1,29,DL_Guitar,6,4,DL_Guitar,0.544559121131897,0
62,100,0.32272727272727275,752,1,30,DL_Guitar,6,5,DL_Guitar,0.9792551398277283,0
54,100,0.2,215,1,32,DL_Guitar,6,3,DL_Guitar,0.9792566299438477,0
66,100,0.1409090909090909,311,1,33,DL_Guitar,6,2,DL_Guitar,0.9990230798721313,1
66,100,0.22272727272727272,488,0,33,DL_Guitar,6,4,DL_Guitar,0.36661747097969055,0
54,100,0.1,801,1,33,DL_Guitar,6,2,DL_Guitar,0.4532870352268219,0
52,100,0.18181818181818182,69,1,34,DL_Guitar,6,3,DL_Guitar,0.9986500144004822,1
64,100,0.2590909090909091,123,0,34,DL_Guitar,6,4,DL_Guitar,0.08780614286661148,0
59,100,0.12272727272727273,254,0,34,DL_Guitar,6,2,DL_Guitar,0.09181994944810867,0
59,100,0.2,373,0,34,DL_Guitar,6,3,DL_Guitar,0.10748462378978729,0
52,100,0.22272727272727272,716,1,34,DL_Guitar,6,4,DL_Guitar,0.12483160197734833,0
56,100,0.1590909090909091,831,0,34,DL_Guitar,6,3,DL_Guitar,0.1790378987789154,0
52,100,0.1590909090909091,13,1,35,DL_Guitar,6,3,DL_Guitar,0.9983736276626587,1
64,100,0.11818181818181818,105,0,35,DL_Guitar,6,2,DL_Guitar,0.0510605052113533,0
52,100,0.11818181818181818,150,0,35,DL_Guitar,6,2,DL_Guitar,0.04130396246910095,0
52,100,0.22272727272727272,378,0,35,DL_Guitar,6,4,DL_Guitar,0.03738626837730408,0
57,100,0.21818181818181817,483,0,35,DL_Guitar,6,3,DL_Guitar,0.03833014890551567,0
52,100,0.1409090909090909,584,0,35,DL_Guitar,6,2,DL_Guitar,0.044753119349479675,0
64,100,0.1,655,0,35,DL_Guitar,6,2,DL_Guitar,0.055229831486940384,0
52,100,0.21818181818181817,735,0,35,DL_Guitar,6,3,DL_Guitar,0.09026698023080826,0
52,100,0.2590909090909091,56,1,36,DL_Guitar,6,4,DL_Guitar,0.9986500144004822,1
64,100,0.1409090909090909,251,0,36,DL_Guitar,6,2,DL_Guitar,0.08780209720134735,0
64,100,0.2818181818181818,576,1,36,DL_Guitar,6,5,DL_Guitar,0.09181410074234009,0
61,100,0.21818181818181817,660,0,36,DL_Guitar,6,3,DL_Guitar,0.10747645795345306,0
61,100,0.1,716,0,36,DL_Guitar,6,2,DL_Guitar,0.12482408434152603,0
64,100,0.32272727272727275,738,0,36,DL_Guitar,6,5,DL_Guitar,0.17903967201709747,0
64,100,0.18181818181818182,34,1,37,DL_Guitar,6,3,DL_Guitar,0.9983165264129639,1
64,100,0.1,105,0,37,DL_Guitar,6,2,DL_Guitar,0.544557511806488,0
54,100,0.13636363636363635,193,1,38,DL_Guitar,6,2,DL_Guitar,0.9990057349205017,1
52,100,0.12272727272727273,311,0,38,DL_Guitar,6,2,DL_Guitar,0.23120222985744476,0
64,100,0.1590909090909091,735,1,38,DL_Guitar,6,3,DL_Guitar,0.26591959595680237,0
61,100,0.12272727272727273,861,0,38,DL_Guitar,6,2,DL_Guitar,0.35419902205467224,0
61,100,0.3181818181818182,110,1,39,DL_Guitar,6,5,DL_Guitar,0.9983164072036743,1
56,100,0.1590909090909091,351,1,39,DL_Guitar,6,3,DL_Guitar,0.5445550680160522,0
64,100,0.12272727272727273,91,1,40,DL_Guitar,6,2,DL_Guitar,0.9983165264129639,1
52,100,0.13636363636363635,150,0,40,DL_Guitar,6,2,DL_Guitar,0.5445646047592163,0
54,100,0.5,220,1,41,DL_Guitar,6,8,DL_Guitar,0.9983165264129639,1
54,100,0.1409090909090909,418,0,41,DL_Guitar,6,2,DL_Guitar,0.544558048248291,0
66,100,0.12272727272727273,4,1,42,DL_Guitar,6,2,DL_Guitar,0.9990230798721313,1
59,100,0.13636363636363635,171,0,42,DL_Guitar,6,2,DL_Guitar,0.36662450432777405,0
54,100,0.5772727272727273,391,0,42,DL_Guitar,6,9,DL_Guitar,0.453286349773407,0
52,100,0.2590909090909091,171,1,43,DL_Guitar,6,4,DL_Guitar,0.9990057349205017,1
52,100,0.2,260,0,43,DL_Guitar,6,3,DL_Guitar,0.2312064915895462,0
52,100,0.4772727272727273,480,0,43,DL_Guitar,6,8,DL_Guitar,0.26592567563056946,0
52,100,0.3409090909090909,593,0,43,DL_Guitar,6,5,DL_Guitar,0.354204386472702,0
62,100,0.9181818181818182,31,1,44,DL_Guitar,6,15,DL_Guitar,0.9990229606628418,1
61,100,0.1590909090909091,448,1,44,DL_Guitar,6,3,DL_Guitar,0.3666245937347412,0
64,100,0.5590909090909091,493,0,44,DL_Guitar,6,9,DL_Guitar,0.4532991349697113,0
54,100,0.4409090909090909,26,1,45,DL_Guitar,6,7,DL_Guitar,0.9988419413566589,1
54,100,0.2,131,0,45,DL_Guitar,6,3,DL_Guitar,0.13724666833877563,0
52,100,0.13636363636363635,545,1,45,DL_Guitar,6,2,DL_Guitar,0.1597728729248047,0
59,100,0.12272727272727273,651,0,45,DL_Guitar,6,2,DL_Guitar,0.18644429743289948,0
52,100,0.33636363636363636,721,0,45,DL_Guitar,6,5,DL_Guitar,0.25816184282302856,0
54,100,0.2818181818181818,211,1,46,DL_Guitar,6,5,DL_Guitar,0.9990057349205017,1
52,100,0.1409090909090909,571,1,46,DL_Guitar,6,2,DL_Guitar,0.23120419681072235,0
52,100,0.1409090909090909,756,0,46,DL_Guitar,6,2,DL_Guitar,0.2659277319908142,0
52,100,0.11818181818181818,875,0,46,DL_Guitar,6,2,DL_Guitar,0.3542022109031677,0
57,100,0.2772727272727273,40,1,47,DL_Guitar,6,4,DL_Guitar,0.9990057349205017,1
52,100,0.2,101,0,47,DL_Guitar,6,3,DL_Guitar,0.23120276629924774,0
52,100,0.11818181818181818,523,1,47,DL_Guitar,6,2,DL_Guitar,0.26591938734054565,0
52,100,0.2590909090909091,584,0,47,DL_Guitar,6,4,DL_Guitar,0.354207843542099,0
52,100,0.42272727272727273,26,1,48,DL_Guitar,6,7,DL_Guitar,0.9983165264129639,1
57,100,0.1,361,1,48,DL_Guitar,6,2,DL_Guitar,0.5445581078529358,0
59,100,0.2772727272727273,251,1,49,DL_Guitar,6,4,DL_Guitar,0.9988419413566589,1
52,100,0.1,545,1,49,DL_Guitar,6,2,DL_Guitar,0.1372470259666443,0
56,100,0.11818181818181818,721,0,49,DL_Guitar,6,2,DL_Guitar,0.1597745716571808,0
52,100,0.2,804,0,49,DL_Guitar,6,3,DL_Guitar,0.18644551932811737,0
52,100,0.11818181818181818,866,0,49,DL_Guitar,6,2,DL_Guitar,0.25816720724105835,0
52,100,0.1409090909090909,69,1,50,DL_Guitar,6,2,DL_Guitar,0.9988419413566589,1
64,100,0.12272727272727273,123,0,50,DL_Guitar,6,2,DL_Guitar,0.13724938035011292,0
52,100,0.1,166,0,50,DL_Guitar,6,2,DL_Guitar,0.15978239476680756,0
56,100,0.1590909090909091,506,1,50,DL_Guitar,6,3,DL_Guitar,0.1864502876996994,0
56,100,0.12272727272727273,554,0,50,DL_Guitar,6,2,DL_Guitar,0.258164644241333,0
54,100,0.6,136,1,52,DL_Guitar,6,10,DL_Guitar,0.9986500144004822,1
57,100,0.3,325,0,52,DL_Guitar,6,5,DL_Guitar,0.08780182152986526,0
59,100,0.1590909090909091,515,0,52,DL_Guitar,6,3,DL_Guitar,0.09181521087884903,0
59,100,0.1590909090909091,568,0,52,DL_Guitar,6,3,DL_Guitar,0.10747817903757095,0
54,100,0.4590909090909091,703,0,52,DL_Guitar,6,7,DL_Guitar,0.12482473999261856,0
54,100,0.3409090909090909,826,0,52,DL_Guitar,6,5,DL_Guitar,0.17903384566307068,0
54,100,0.18181818181818182,408,1,53,DL_Guitar,6,3,DL_Guitar,0.9990057349205017,1
61,100,0.22272727272727272,651,1,53,DL_Guitar,6,4,DL_Guitar,0.2311956286430359,0
61,100,0.1590909090909091,721,0,53,DL_Guitar,6,3,DL_Guitar,0.26591432094573975,0
61,100,0.1,765,0,53,DL_Guitar,6,2,DL_Guitar,0.3541889488697052,0
59,100,0.2,0,1,54,DL_Guitar,6,3,DL_Guitar,0.9990229606628418,1
61,100,0.4,206,0,54,DL_Guitar,6,6,DL_Guitar,0.3666212856769562,0
57,100,0.17727272727272728,743,1,54,DL_Guitar,6,3,DL_Guitar,0.4532943367958069,0
57,100,0.1,215,1,55,DL_Guitar,6,2,DL_Guitar,0.9990229606628418,1
52,100,0.5,678,1,55,DL_Guitar,6,8,DL_Guitar,0.36662426590919495,0
52,100,0.6181818181818182,791,0,55,DL_Guitar,6,10,DL_Guitar,0.4532927870750427,0
52,100,0.18181818181818182,136,1,56,DL_Guitar,6,3,DL_Guitar,0.9984880685806274,1
64,100,0.16363636363636364,179,0,56,DL_Guitar,6,3,DL_Guitar,0.06334656476974487,0
52,100,0.6363636363636364,391,0,56,DL_Guitar,6,10,DL_Guitar,0.05774224177002907,0
52,100,0.11818181818181818,568,0,56,DL_Guitar,6,2,DL_Guitar,0.06020351126790047,0
52,100,0.16363636363636364,598,0,56,DL_Guitar,6,3,DL_Guitar,0.06970510631799698,0
52,100,0.5590909090909091,700,0,56,DL_Guitar,6,9,DL_Guitar,0.08189787715673447,0
52,100,0.5818181818181818,839,0,56,DL_Guitar,6,9,DL_Guitar,0.12402625381946564,0
52,100,1.059090909090909,286,1,57,DL_Guitar,6,15,DL_Guitar,0.9990229606628418,1
52,100,0.4409090909090909,541,1,57,DL_Guitar,6,7,DL_Guitar,0.36662182211875916,0
52,100,0.18181818181818182,770,0,57,DL_Guitar,6,3,DL_Guitar,0.4532972276210785,0
52,100,0.12272727272727273,114,1,58,DL_Guitar,6,2,DL_Guitar,0.9990229606628418,1
52,100,0.2,603,1,58,DL_Guitar,6,3,DL_Guitar,0.3666236102581024,0
52,100,0.3,678,0,58,DL_Guitar,6,5,DL_Guitar,0.4532991945743561,0
52,100,0.11818181818181818,523,1,59,DL_Guitar,6,2,DL_Guitar,0.9983165264129639,1
56,100,0.22272727272727272,606,0,59,DL_Guitar,6,4,DL_Guitar,0.5445583462715149,0
57,100,0.3,185,1,60,DL_Guitar,6,5,DL_Guitar,0.9988419413566589,1
52,100,0.18181818181818182,444,1,60,DL_Guitar,6,3,DL_Guitar,0.13724815845489502,0
52,100,0.18181818181818182,488,0,60,DL_Guitar,6,3,DL_Guitar,0.15977723896503448,0
52,100,0.4590909090909091,660,0,60,DL_Guitar,6,7,DL_Guitar,0.18644867837429047,0
52,100,0.11818181818181818,810,0,60,DL_Guitar,6,2,DL_Guitar,0.25817134976387024,0
52,100,0.2,176,1,61,DL_Guitar,6,3,DL_Guitar,0.9988419413566589,1
52,100,0.37727272727272726,361,0,61,DL_Guitar,6,6,DL_Guitar,0.1372484266757965,0
52,100,0.2590909090909091,458,0,61,DL_Guitar,6,4,DL_Guitar,0.15978145599365234,0
64,100,0.42272727272727273,563,0,61,DL_Guitar,6,7,DL_Guitar,0.18645022809505463,0
52,100,0.11818181818181818,655,0,61,DL_Guitar,6,2,DL_Guitar,0.2581731379032135,0
64,100,0.2409090909090909,603,1,62,DL_Guitar,6,4,DL_Guitar,0.9990229606628418,1
64,100,0.11818181818181818,660,0,62,DL_Guitar,6,2,DL_Guitar,0.3666203022003174,0
52,100,0.18181818181818182,751,0,62,DL_Guitar,6,3,DL_Guitar,0.45329105854034424,0
52,100,0.11818181818181818,75,1,63,DL_Guitar,6,2,DL_Guitar,0.9990229606628418,1
57,100,0.3409090909090909,246,0,63,DL_Guitar,6,5,DL_Guitar,0.36662688851356506,0
56,100,0.1590909090909091,673,1,63,DL_Guitar,6,3,DL_Guitar,0.4532921314239502,0
54,100,0.21818181818181817,260,1,64,DL_Guitar,6,3,DL_Guitar,0.9988419413566589,1
66,100,0.1409090909090909,462,0,64,DL_Guitar,6,2,DL_Guitar,0.13724888861179352,0
54,100,0.4,563,0,64,DL_Guitar,6,6,DL_Guitar,0.15977071225643158,0
66,100,0.2409090909090909,695,0,64,DL_Guitar,6,4,DL_Guitar,0.18644776940345764,0
54,100,0.1409090909090909,756,0,64,DL_Guitar,6,2,DL_Guitar,0.2581600844860077,0
52,100,0.1,373,1,65,DL_Guitar,6,2,DL_Guitar,0.9983165264129639,1
52,100,0.3181818181818182,770,1,65,DL_Guitar,6,5,DL_Guitar,0.5445555448532104,0
52,100,0.16363636363636364,92,1,66,DL_Guitar,6,3,DL_Guitar,0.9984880685806274,1
52,100,0.2772727272727273,184,0,66,DL_Guitar,6,4,DL_Guitar,0.06334632635116577,0
52,100,0.2409090909090909,273,0,66,DL_Guitar,6,4,DL_Guitar,0.05774284526705742,0
52,100,0.2409090909090909,356,0,66,DL_Guitar,6,4,DL_Guitar,0.06020325422286987,0
52,100,0.13636363636363635,413,0,66,DL_Guitar,6,2,DL_Guitar,0.06970439851284027,0
64,100,0.12272727272727273,509,0,66,DL_Guitar,6,2,DL_Guitar,0.08189617097377777,0
54,100,0.3409090909090909,576,0,66,DL_Guitar,6,5,DL_Guitar,0.12402516603469849,0
52,100,0.3409090909090909,563,1,67,DL_Guitar,6,5,DL_Guitar,0.9990230798721313,1
52,100,0.2818181818181818,686,0,67,DL_Guitar,6,5,DL_Guitar,0.36662179231643677,0
52,100,0.4590909090909091,766,0,67,DL_Guitar,6,7,DL_Guitar,0.45329704880714417,0
59,100,0.18181818181818182,79,1,68,DL_Guitar,6,3,DL_Guitar,0.9983165264129639,1
52,100,0.17727272727272728,523,1,68,DL_Guitar,6,3,DL_Guitar,0.5445558428764343,0
56,100,0.11818181818181818,74,1,69,DL_Guitar,6,2,DL_Guitar,0.9990057349205017,1
59,100,0.4590909090909091,189,0,69,DL_Guitar,6,7,DL_Guitar,0.2312099039554596,0
56,100,0.4409090909090909,430,1,69,DL_Guitar,6,7,DL_Guitar,0.2659178376197815,0
52,100,0.13636363636363635,612,0,69,DL_Guitar,6,2,DL_Guitar,0.35420292615890503,0
52,100,0.1409090909090909,35,1,70,DL_Guitar,6,2,DL_Guitar,0.9990057349205017,1
54,100,0.3,140,0,70,DL_Guitar,6,5,DL_Guitar,0.23120549321174622,0
54,100,0.2409090909090909,399,1,70,DL_Guitar,6,4,DL_Guitar,0.2659236192703247,0
54,100,1.3409090909090908,747,1,70,DL_Guitar,6,15,DL_Guitar,0.3541868031024933,0
54,100,0.2409090909090909,220,1,71,DL_Guitar,6,4,DL_Guitar,0.9988419413566589,1
54,100,0.18181818181818182,286,0,71,DL_Guitar,6,3,DL_Guitar,0.1372470259666443,0
54,100,0.1,453,0,71,DL_Guitar,6,2,DL_Guitar,0.15977440774440765,0
54,100,0.1590909090909091,580,0,71,DL_Guitar,6,3,DL_Guitar,0.18644528090953827,0
61,100,0.1,796,0,71,DL_Guitar,6,2,DL_Guitar,0.25816115736961365,0
61,100,0.42272727272727273,540,1,72,DL_Guitar,6,7,DL_Guitar,0.9792552590370178,0
57,100,0.21818181818181817,242,1,73,DL_Guitar,6,3,DL_Guitar,0.9792565107345581,0
52,100,0.11818181818181818,66,1,74,DL_Guitar,6,2,DL_Guitar,0.9983736276626587,1
52,100,0.2772727272727273,150,0,74,DL_Guitar,6,4,DL_Guitar,0.05106196179986,0
52,100,0.12272727272727273,289,0,74,DL_Guitar,6,2,DL_Guitar,0.041303735226392746,0
64,100,0.1409090909090909,320,0,74,DL_Guitar,6,2,DL_Guitar,0.03738803789019585,0
52,100,0.12272727272727273,386,0,74,DL_Guitar,6,2,DL_Guitar,0.03833135962486267,0
64,100,0.13636363636363635,413,0,74,DL_Guitar,6,2,DL_Guitar,0.04475344717502594,0
52,100,0.1409090909090909,603,0,74,DL_Guitar,6,2,DL_Guitar,0.05523023381829262,0
52,100,0.2590909090909091,787,0,74,DL_Guitar,6,4,DL_Guitar,0.09026967734098434,0
52,100,0.2590909090909091,79,1,75,DL_Guitar,6,4,DL_Guitar,0.9984880685806274,1
52,100,0.11818181818181818,184,0,75,DL_Guitar,6,2,DL_Guitar,0.06334619969129562,0
52,100,0.1,223,0,75,DL_Guitar,6,2,DL_Guitar,0.05774209648370743,0
52,100,0.12272727272727273,267,0,75,DL_Guitar,6,2,DL_Guitar,0.060202986001968384,0
64,100,0.11818181818181818,316,0,75,DL_Guitar,6,2,DL_Guitar,0.06970540434122086,0
52,100,0.2818181818181818,409,0,75,DL_Guitar,6,5,DL_Guitar,0.08189685642719269,0
52,100,0.22272727272727272,540,0,75,DL_Guitar,6,4,DL_Guitar,0.12402746081352234,0
52,100,0.3409090909090909,462,1,76,DL_Guitar,6,5,DL_Guitar,0.9990229606628418,1
52,100,0.12272727272727273,650,0,76,DL_Guitar,6,2,DL_Guitar,0.3666199743747711,0
53,100,0.1,677,0,76,DL_Guitar,6,2,DL_Guitar,0.4532908797264099,0
64,100,0.1,576,1,77,DL_Guitar,6,2,DL_Guitar,0.9792571067810059,1
54,100,0.2,360,1,78,DL_Guitar,6,3,DL_Guitar,0.9792565107345581,0
54,100,0.3,443,1,79,DL_Guitar,6,5,DL_Guitar,0.9983165264129639,1
54,100,0.3409090909090909,682,1,79,DL_Guitar,6,5,DL_Guitar,0.5445559024810791,0
69,100,0.2590909090909091,22,1,80,DL_Guitar,6,4,DL_Guitar,0.9990057349205017,1
54,100,0.12272727272727273,166,0,80,DL_Guitar,6,2,DL_Guitar,0.23120218515396118,0
54,100,0.4590909090909091,519,1,80,DL_Guitar,6,7,DL_Guitar,0.26591557264328003,0
54,100,0.1,633,0,80,DL_Guitar,6,2,DL_Guitar,0.3541928827762604,0
52,100,0.2,106,1,81,DL_Guitar,6,3,DL_Guitar,0.9990057349205017,1
56,100,0.2590909090909091,220,0,81,DL_Guitar,6,4,DL_Guitar,0.23120257258415222,0
52,100,0.8818181818181818,333,0,81,DL_Guitar,6,14,DL_Guitar,0.2659209072589874,0
61,100,0.2590909090909091,760,1,81,DL_Guitar,6,4,DL_Guitar,0.3541962504386902,0
57,100,0.1409090909090909,136,1,82,DL_Guitar,6,2,DL_Guitar,0.9983003735542297,1
61,100,0.18181818181818182,246,0,82,DL_Guitar,6,3,DL_Guitar,0.04466564580798149,0
61,100,0.2772727272727273,347,0,82,DL_Guitar,6,4,DL_Guitar,0.03315113112330437,0
54,100,0.1409090909090909,553,0,82,DL_Guitar,6,2,DL_Guitar,0.026582002639770508,0
54,100,0.3,646,0,82,DL_Guitar,6,5,DL_Guitar,0.02359624207019806,0
54,100,0.1590909090909091,716,0,82,DL_Guitar,6,3,DL_Guitar,0.024316463619470596,0
57,100,0.18181818181818182,752,0,82,DL_Guitar,6,3,DL_Guitar,0.029690561816096306,0
62,100,0.1,826,0,82,DL_Guitar,6,2,DL_Guitar,0.040078457444906235,0
62,100,0.1,853,0,82,DL_Guitar,6,2,DL_Guitar,0.07093165814876556,0
54,100,0.32272727272727275,136,1,83,DL_Guitar,6,5,DL_Guitar,0.9990229606628418,1
57,100,0.4,233,0,83,DL_Guitar,6,6,DL_Guitar,0.36662203073501587,0
52,100,0.1,839,1,83,DL_Guitar,6,2,DL_Guitar,0.45329752564430237,0
52,100,0.43636363636363634,83,1,84,DL_Guitar,6,7,DL_Guitar,0.9988419413566589,1
59,100,0.1409090909090909,210,0,84,DL_Guitar,6,2,DL_Guitar,0.13724663853645325,0
64,100,0.1590909090909091,713,1,84,DL_Guitar,6,3,DL_Guitar,0.15977641940116882,0
54,100,0.1,787,0,84,DL_Guitar,6,2,DL_Guitar,0.18644998967647552,0
63,100,0.1409090909090909,836,0,84,DL_Guitar,6,2,DL_Guitar,0.25816524028778076,0
63,100,0.1,26,1,85,DL_Guitar,6,2,DL_Guitar,0.9986500144004822,1
54,100,0.1,87,0,85,DL_Guitar,6,2,DL_Guitar,0.08780575543642044,0
54,100,0.2409090909090909,163,0,85,DL_Guitar,6,4,DL_Guitar,0.09181469678878784,0
66,100,0.11818181818181818,242,0,85,DL_Guitar,6,2,DL_Guitar,0.10747906565666199,0
54,100,0.1409090909090909,299,0,85,DL_Guitar,6,2,DL_Guitar,0.12482614070177078,0
54,100,0.2,729,1,85,DL_Guitar,6,3,DL_Guitar,0.17903734743595123,0
63,100,0.2818181818181818,35,1,86,DL_Guitar,6,5,DL_Guitar,0.9986500144004822,1
63,100,0.23636363636363636,106,0,86,DL_Guitar,6,4,DL_Guitar,0.08780399709939957,0
59,100,0.1409090909090909,267,0,86,DL_Guitar,6,2,DL_Guitar,0.09181636571884155,0
66,100,0.1,619,1,86,DL_Guitar,6,2,DL_Guitar,0.10748380422592163,0
54,100,0.3,690,0,86,DL_Guitar,6,5,DL_Guitar,0.12482928484678268,0
66,100,0.18181818181818182,770,0,86,DL_Guitar,6,3,DL_Guitar,0.1790420114994049,0
52,100,0.4590909090909091,163,1,87,DL_Guitar,6,7,DL_Guitar,0.9983165264129639,1
52,100,0.1409090909090909,470,1,87,DL_Guitar,6,2,DL_Guitar,0.5445607900619507,0
61,100,0.12272727272727273,26,1,88,DL_Guitar,6,2,DL_Guitar,0.9983164072036743,1
66,100,0.1590909090909091,506,1,88,DL_Guitar,6,3,DL_Guitar,0.5445616841316223,0
54,100,0.21818181818181817,30,1,89,DL_Guitar,6,3,DL_Guitar,0.9984880685806274,1
64,100,0.11818181818181818,176,0,89,DL_Guitar,6,2,DL_Guitar,0.0633457601070404,0
64,100,0.21818181818181817,237,0,89,DL_Guitar,6,3,DL_Guitar,0.05774424597620964,0
64,100,0.11818181818181818,330,0,89,DL_Guitar,6,2,DL_Guitar,0.06020519882440567,0
52,100,0.5590909090909091,417,0,89,DL_Guitar,6,9,DL_Guitar,0.06970610469579697,0
64,100,0.1,593,0,89,DL_Guitar,6,2,DL_Guitar,0.0819004476070404,0
54,100,0.2,857,1,89,DL_Guitar,6,3,DL_Guitar,0.12402930855751038,0
63,100,0.2409090909090909,307,1,90,DL_Guitar,6,4,DL_Guitar,0.9990229606628418,1
63,100,0.37727272727272726,404,0,90,DL_Guitar,6,6,DL_Guitar,0.36662137508392334,0
59,100,0.3181818181818182,726,1,90,DL_Guitar,6,5,DL_Guitar,0.45329052209854126,0
63,100,0.1,233,1,91,DL_Guitar,6,2,DL_Guitar,0.9983736276626587,1
54,100,0.1,276,0,91,DL_Guitar,6,2,DL_Guitar,0.05106278508901596,0
64,100,0.2818181818181818,333,0,91,DL_Guitar,6,5,DL_Guitar,0.04130333662033081,0
64,100,0.12272727272727273,443,0,91,DL_Guitar,6,2,DL_Guitar,0.03738805279135704,0
52,100,0.2590909090909091,502,0,91,DL_Guitar,6,4,DL_Guitar,0.038330428302288055,0
52,100,0.2409090909090909,572,0,91,DL_Guitar,6,4,DL_Guitar,0.04475422203540802,0
52,100,0.21818181818181817,747,0,91,DL_Guitar,6,3,DL_Guitar,0.05523217096924782,0
52,100,0.2,870,0,91,DL_Guitar,6,3,DL_Guitar,0.09027040004730225,0
64,100,0.1409090909090909,206,1,92,DL_Guitar,6,2,DL_Guitar,0.9988419413566589,1
59,100,0.1590909090909091,276,0,92,DL_Guitar,6,3,DL_Guitar,0.13724848628044128,0
54,100,0.3181818181818182,436,0,92,DL_Guitar,6,5,DL_Guitar,0.1597784012556076,0
54,100,0.2409090909090909,572,0,92,DL_Guitar,6,4,DL_Guitar,0.18644742667675018,0
52,100,0.5,700,0,92,DL_Guitar,6,8,DL_Guitar,0.2581688463687897,0
54,100,0.2636363636363636,47,1,93,DL_Guitar,6,4,DL_Guitar,0.9983165264129639,1
54,100,0.18181818181818182,132,0,93,DL_Guitar,6,3,DL_Guitar,0.5445584654808044,0
54,100,0.1409090909090909,110,1,94,DL_Guitar,6,2,DL_Guitar,0.9990058541297913,1
54,100,0.41818181818181815,307,0,94,DL_Guitar,6,7,DL_Guitar,0.2312002182006836,0
63,100,0.11818181818181818,612,1,94,DL_Guitar,6,2,DL_Guitar,0.26591360569000244,0
59,100,0.42272727272727273,796,0,94,DL_Guitar,6,7,DL_Guitar,0.354191392660141,0
63,100,0.1590909090909091,206,1,95,DL_Guitar,6,3,DL_Guitar,0.9986500144004822,1
54,100,0.23636363636363636,392,0,95,DL_Guitar,6,4,DL_Guitar,0.08780542016029358,0
54,100,0.2409090909090909,475,0,95,DL_Guitar,6,4,DL_Guitar,0.09181530028581619,0
52,100,0.2590909090909091,606,0,95,DL_Guitar,6,4,DL_Guitar,0.10748051106929779,0
52,100,0.2409090909090909,716,0,95,DL_Guitar,6,4,DL_Guitar,0.12482839822769165,0
52,100,0.9181818181818182,813,0,95,DL_Guitar,6,15,DL_Guitar,0.17904254794120789,0
54,100,0.11818181818181818,176,1,96,DL_Guitar,6,2,DL_Guitar,0.9990229606628418,1
54,100,0.1409090909090909,404,0,96,DL_Guitar,6,2,DL_Guitar,0.3666209280490875,0
54,100,0.12272727272727273,629,0,96,DL_Guitar,6,2,DL_Guitar,0.45329058170318604,0
54,100,0.11818181818181818,132,1,97,DL_Guitar,6,2,DL_Guitar,0.9990057349205017,1
54,100,0.1590909090909091,453,1,97,DL_Guitar,6,3,DL_Guitar,0.2311999648809433,0
54,100,0.4818181818181818,509,0,97,DL_Guitar,6,8,DL_Guitar,0.2659164369106293,0
52,100,0.4,805,1,97,DL_Guitar,6,6,DL_Guitar,0.35419896245002747,0
52,100,0.3181818181818182,153,1,98,DL_Guitar,6,5,DL_Guitar,0.9990057349205017,1
54,100,0.22272727272727272,475,1,98,DL_Guitar,6,4,DL_Guitar,0.23120254278182983,0
61,100,0.2409090909090909,650,0,98,DL_Guitar,6,4,DL_Guitar,0.2659185528755188,0
63,100,0.35909090909090907,779,0,98,DL_Guitar,6,6,DL_Guitar,0.35419654846191406,0
56,100,0.2409090909090909,9,1,99,DL_Guitar,6,4,DL_Guitar,0.9986500144004822,1
63,100,0.1409090909090909,74,0,99,DL_Guitar,6,2,DL_Guitar,0.08780308812856674,0
59,100,0.1590909090909091,119,0,99,DL_Guitar,6,3,DL_Guitar,0.09181700646877289,0
63,100,0.5818181818181818,176,0,99,DL_Guitar,6,9,DL_Guitar,0.1074812039732933,0
63,100,0.6181818181818182,527,1,99,DL_Guitar,6,10,DL_Guitar,0.124832883477211,0
63,100,0.41818181818181815,722,0,99,DL_Guitar,6,7,DL_Guitar,0.17904943227767944,0
52,100,0.3409090909090909,849,1,100,DL_Guitar,6,5,DL_Guitar,0.9792563915252686,0
61,100,0.3,136,1,101,DL_Guitar,6,5,DL_Guitar,0.9990057349205017,1
54,100,0.23636363636363636,282,0,101,DL_Guitar,6,4,DL_Guitar,0.23120419681072235,0
54,100,0.4590909090909091,624,1,101,DL_Guitar,6,7,DL_Guitar,0.26592347025871277,0
54,100,0.5590909090909091,787,0,101,DL_Guitar,6,9,DL_Guitar,0.354202538728714,0
54,100,0.1,153,1,102,DL_Guitar,6,2,DL_Guitar,0.9792566299438477,0
54,100,0.1409090909090909,92,1,103,DL_Guitar,6,2,DL_Guitar,0.9988420605659485,1
66,100,0.2409090909090909,307,0,103,DL_Guitar,6,4,DL_Guitar,0.13724489510059357,0
63,100,0.38181818181818183,386,0,103,DL_Guitar,6,6,DL_Guitar,0.15977418422698975,0
54,100,0.21818181818181817,527,0,103,DL_Guitar,6,3,DL_Guitar,0.18644385039806366,0
54,100,0.11818181818181818,832,1,103,DL_Guitar,6,2,DL_Guitar,0.258164644241333,0
59,100,0.12272727272727273,267,1,104,DL_Guitar,6,2,DL_Guitar,0.9990229606628418,1
59,100,0.7227272727272728,343,0,104,DL_Guitar,6,12,DL_Guitar,0.3666219413280487,0
54,100,0.1409090909090909,550,0,104,DL_Guitar,6,2,DL_Guitar,0.45329219102859497,0
54,100,0.3,100,1,105,DL_Guitar,6,5,DL_Guitar,0.9990057349205017,1
54,100,0.2772727272727273,172,0,105,DL_Guitar,6,4,DL_Guitar,0.23120325803756714,0
66,100,0.2,487,1,105,DL_Guitar,6,3,DL_Guitar,0.2659222185611725,0
63,100,0.2818181818181818,739,1,105,DL_Guitar,6,5,DL_Guitar,0.3541973829269409,0
64,100,0.3409090909090909,110,1,106,DL_Guitar,6,5,DL_Guitar,0.9984880685806274,1
64,100,0.11818181818181818,250,0,106,DL_Guitar,6,2,DL_Guitar,0.06334452331066132,0
64,100,0.11818181818181818,303,0,106,DL_Guitar,6,2,DL_Guitar,0.057740747928619385,0
64,100,0.12272727272727273,365,0,106,DL_Guitar,6,2,DL_Guitar,0.06020217761397362,0
66,100,0.1,567,0,106,DL_Guitar,6,2,DL_Guitar,0.06970389932394028,0
66,100,0.4,593,0,106,DL_Guitar,6,6,DL_Guitar,0.08189444988965988,0
66,100,0.1409090909090909,747,0,106,DL_Guitar,6,2,DL_Guitar,0.12402414530515671,0
66,100,0.1,330,1,107,DL_Guitar,6,2,DL_Guitar,0.9990057349205017,1
64,100,0.2818181818181818,386,0,107,DL_Guitar,6,5,DL_Guitar,0.23120354115962982,0
63,100,0.1,633,1,107,DL_Guitar,6,2,DL_Guitar,0.26592302322387695,0
54,100,0.4818181818181818,760,0,107,DL_Guitar,6,8,DL_Guitar,0.35419967770576477,0
54,100,0.12272727272727273,3,1,108,DL_Guitar,6,2,DL_Guitar,0.9988419413566589,1
54,100,0.759090909090909,123,0,108,DL_Guitar,6,12,DL_Guitar,0.1372442990541458,0
64,100,0.2409090909090909,726,1,108,DL_Guitar,6,4,DL_Guitar,0.15977393090724945,0
64,100,0.1409090909090909,792,0,108,DL_Guitar,6,2,DL_Guitar,0.18644599616527557,0
66,100,0.13636363636363635,832,0,108,DL_Guitar,6,2,DL_Guitar,0.2581664025783539,0
66,100,0.11818181818181818,216,1,109,DL_Guitar,6,2,DL_Guitar,0.9984880685806274,1
56,100,0.4,316,0,109,DL_Guitar,6,6,DL_Guitar,0.0633433386683464,0
66,100,0.2,449,0,109,DL_Guitar,6,3,DL_Guitar,0.05774249508976936,0
66,100,0.18181818181818182,509,0,109,DL_Guitar,6,3,DL_Guitar,0.06020231544971466,0
63,100,0.3181818181818182,593,0,109,DL_Guitar,6,5,DL_Guitar,0.06970156729221344,0
63,100,0.13636363636363635,677,0,109,DL_Guitar,6,2,DL_Guitar,0.08189736306667328,0
54,100,0.11818181818181818,770,0,109,DL_Guitar,6,2,DL_Guitar,0.12402748316526413,0
63,100,0.1409090909090909,87,1,110,DL_Guitar,6,2,DL_Guitar,0.9986500144004822,1
63,100,0.18181818181818182,153,0,110,DL_Guitar,6,3,DL_Guitar,0.08780258893966675,0
54,100,0.12272727272727273,320,0,110,DL_Guitar,6,2,DL_Guitar,0.09181943535804749,0
63,100,0.1409090909090909,383,0,110,DL_Guitar,6,2,DL_Guitar,0.1074809730052948,0
59,100,0.1590909090909091,563,0,110,DL_Guitar,6,3,DL_Guitar,0.12483576685190201,0
63,100,0.12272727272727273,752,0,110,DL_Guitar,6,2,DL_Guitar,0.1790374517440796,0
54,100,0.2590909090909091,83,1,111,DL_Guitar,6,4,DL_Guitar,0.9990057349205017,1
54,100,0.5590909090909091,220,0,111,DL_Guitar,6,9,DL_Guitar,0.23119960725307465,0
61,100,0.38181818181818183,475,1,111,DL_Guitar,6,6,DL_Guitar,0.265912264585495,0
54,100,0.18181818181818182,637,0,111,DL_Guitar,6,3,DL_Guitar,0.3541906774044037,0
66,100,0.1409090909090909,140,1,112,DL_Guitar,6,2,DL_Guitar,0.9990230798721313,1
66,100,0.1,282,0,112,DL_Guitar,6,2,DL_Guitar,0.3666193187236786,0
54,100,0.32272727272727275,422,0,112,DL_Guitar,6,5,DL_Guitar,0.45328783988952637,0
54,100,0.18181818181818182,255,1,113,DL_Guitar,6,3,DL_Guitar,0.9986500144004822,1
54,100,0.18181818181818182,299,0,113,DL_Guitar,6,3,DL_Guitar,0.08780300617218018,0
66,100,0.21818181818181817,352,0,113,DL_Guitar,6,3,DL_Guitar,0.0918128713965416,0
54,100,0.22272727272727272,409,0,113,DL_Guitar,6,4,DL_Guitar,0.10747739672660828,0
66,100,0.11818181818181818,457,0,113,DL_Guitar,6,2,DL_Guitar,0.12482866644859314,0
59,100,0.12272727272727273,496,0,113,DL_Guitar,6,2,DL_Guitar,0.17902669310569763,0
54,100,0.2,0,1,21,_Remix_Guitar,6,3,_Remix_Guitar,0.9990229606628418,1
54,100,0.1,712,1,21,_Remix_Guitar,6,2,_Remix_Guitar,0.3666228652000427,0
54,100,0.22272727272727272,752,0,21,_Remix_Guitar,6,4,_Remix_Guitar,0.4532819986343384,0
53,100,0.6,814,1,23,_Remix_Guitar,6,10,_Remix_Guitar,0.9792556166648865,0
53,100,0.18181818181818182,113,1,24,_Remix_Guitar,6,3,_Remix_Guitar,0.9990229606628418,1
53,100,0.8,272,0,24,_Remix_Guitar,6,13,_Remix_Guitar,0.36661723256111145,0
53,100,0.12272727272727273,509,1,24,_Remix_Guitar,6,2,_Remix_Guitar,0.45329058170318604,0
54,100,0.8818181818181818,113,1,25,_Remix_Guitar,6,14,_Remix_Guitar,0.9792567491531372,0
54,100,0.1409090909090909,13,1,27,_Remix_Guitar,6,2,_Remix_Guitar,0.9990057349205017,1
54,100,0.2,347,1,27,_Remix_Guitar,6,3,_Remix_Guitar,0.23120221495628357,0
54,100,0.17727272727272728,801,1,27,_Remix_Guitar,6,3,_Remix_Guitar,0.2659187912940979,0
54,100,0.3,849,0,27,_Remix_Guitar,6,5,_Remix_Guitar,0.3541927933692932,0
54,100,0.2409090909090909,373,1,89,_Remix_Guitar,6,4,_Remix_Guitar,0.9990057349205017,1
54,100,0.2590909090909091,475,0,89,_Remix_Guitar,6,4,_Remix_Guitar,0.23120243847370148,0
54,100,0.2818181818181818,663,0,89,_Remix_Guitar,6,5,_Remix_Guitar,0.26591864228248596,0
54,100,0.2,857,0,89,_Remix_Guitar,6,3,_Remix_Guitar,0.35419073700904846,0
54,100,0.1590909090909091,184,1,90,_Remix_Guitar,6,3,_Remix_Guitar,0.9988420605659485,1
54,100,0.3409090909090909,267,0,90,_Remix_Guitar,6,5,_Remix_Guitar,0.13724473118782043,0
54,100,0.1,392,0,90,_Remix_Guitar,6,2,_Remix_Guitar,0.15977764129638672,0
54,100,0.21818181818181817,462,0,90,_Remix_Guitar,6,3,_Remix_Guitar,0.1864490658044815,0
54,100,0.37727272727272726,523,0,90,_Remix_Guitar,6,6,_Remix_Guitar,0.2581673562526703,0
54,100,0.2,356,1,91,_Remix_Guitar,6,3,_Remix_Guitar,0.9983165264129639,1
56,100,0.1409090909090909,616,1,91,_Remix_Guitar,6,2,_Remix_Guitar,0.5445502996444702,0
56,100,0.13636363636363635,216,1,92,_Remix_Guitar,6,2,_Remix_Guitar,0.9792554974555969,0
53,100,0.2409090909090909,580,1,93,_Remix_Guitar,6,4,_Remix_Guitar,0.979256272315979,0
54,100,0.11818181818181818,140,1,94,_Remix_Guitar,6,2,_Remix_Guitar,0.9990057349205017,1
54,100,0.3,466,1,94,_Remix_Guitar,6,5,_Remix_Guitar,0.2312047779560089,0
55,100,0.1,826,1,94,_Remix_Guitar,6,2,_Remix_Guitar,0.26591747999191284,0
54,100,0.1590909090909091,870,0,94,_Remix_Guitar,6,3,_Remix_Guitar,0.35419970750808716,0
56,100,0.1590909090909091,263,1,95,_Remix_Guitar,6,3,_Remix_Guitar,0.9988419413566589,1
54,100,0.11818181818181818,396,0,95,_Remix_Guitar,6,2,_Remix_Guitar,0.13724936544895172,0
54,100,0.1409090909090909,716,1,95,_Remix_Guitar,6,2,_Remix_Guitar,0.1597772091627121,0
54,100,0.1409090909090909,760,0,95,_Remix_Guitar,6,2,_Remix_Guitar,0.1864500492811203,0
56,100,0.17727272727272728,832,0,95,_Remix_Guitar,6,3,_Remix_Guitar,0.2581620514392853,0
61,100,0.41818181818181815,39,1,15,DL_deepemotion_Guitar,6,7,DL_deepemotion_Guitar,0.979255735874176,0
54,100,0.2,712,1,17,DL_deepemotion_Guitar,6,3,DL_deepemotion_Guitar,0.9983165264129639,1
56,100,0.7,801,0,17,DL_deepemotion_Guitar,6,11,DL_deepemotion_Guitar,0.5445454716682434,0
56,100,0.2,83,1,18,DL_deepemotion_Guitar,6,3,DL_deepemotion_Guitar,0.9792560338973999,0
54,100,0.4818181818181818,34,1,20,DL_deepemotion_Guitar,6,8,DL_deepemotion_Guitar,0.9983165264129639,1
54,100,0.22272727272727272,179,0,20,DL_deepemotion_Guitar,6,4,DL_deepemotion_Guitar,0.544559121131897,0
54,100,0.32272727272727275,409,1,21,DL_deepemotion_Guitar,6,5,DL_deepemotion_Guitar,0.9792565107345581,0
54,100,0.11818181818181818,326,1,22,DL_deepemotion_Guitar,6,2,DL_deepemotion_Guitar,0.9792567491531372,0
63,100,0.2818181818181818,189,1,23,DL_deepemotion_Guitar,6,5,DL_deepemotion_Guitar,0.9983164072036743,1
61,100,0.1409090909090909,866,1,23,DL_deepemotion_Guitar,6,2,DL_deepemotion_Guitar,0.5445622801780701,0
54,100,0.11818181818181818,326,1,24,DL_deepemotion_Guitar,6,2,DL_deepemotion_Guitar,0.9792567491531372,0
59,100,0.740909090909091,65,1,25,DL_deepemotion_Guitar,6,12,DL_deepemotion_Guitar,0.9990057349205017,1
59,100,0.11818181818181818,295,0,25,DL_deepemotion_Guitar,6,2,DL_deepemotion_Guitar,0.2312035858631134,0
56,100,0.11818181818181818,656,1,25,DL_deepemotion_Guitar,6,2,DL_deepemotion_Guitar,0.26592445373535156,0
56,100,0.2818181818181818,818,0,25,DL_deepemotion_Guitar,6,5,DL_deepemotion_Guitar,0.35419490933418274,0
56,100,0.37727272727272726,61,1,26,DL_deepemotion_Guitar,6,6,DL_deepemotion_Guitar,0.9983165264129639,1
56,100,0.2409090909090909,223,0,26,DL_deepemotion_Guitar,6,4,DL_deepemotion_Guitar,0.5445526838302612,0
62,100,0.18181818181818182,202,1,27,DL_deepemotion_Guitar,6,3,DL_deepemotion_Guitar,0.9792559146881104,1
63,100,0.23636363636363636,810,1,28,DL_deepemotion_Guitar,6,4,DL_deepemotion_Guitar,0.9792559146881104,0
52,100,0.11818181818181818,382,1,29,DL_deepemotion_Guitar,6,2,DL_deepemotion_Guitar,0.9990057349205017,1
54,100,0.12272727272727273,422,0,29,DL_deepemotion_Guitar,6,2,DL_deepemotion_Guitar,0.23119939863681793,0
66,100,0.12272727272727273,453,0,29,DL_deepemotion_Guitar,6,2,DL_deepemotion_Guitar,0.26591765880584717,0
54,100,0.2,567,0,29,DL_deepemotion_Guitar,6,3,DL_deepemotion_Guitar,0.35419562458992004,0
53,100,0.12272727272727273,400,1,0,_Guitar,6,2,_Guitar,0.9990229606628418,1
60,100,0.1,686,1,0,_Guitar,6,2,_Guitar,0.36662018299102783,0
60,100,0.6772727272727272,713,0,0,_Guitar,6,11,_Guitar,0.4532950818538666,0
53,100,0.12272727272727273,597,1,1,_Guitar,6,2,_Guitar,0.9983165264129639,1
60,100,0.2,651,0,1,_Guitar,6,3,_Guitar,0.5445616245269775,0
60,100,0.12272727272727273,254,1,3,_Guitar,6,2,_Guitar,0.9990057349205017,1
62,100,0.1590909090909091,387,0,3,_Guitar,6,3,_Guitar,0.23120605945587158,0
55,100,0.4409090909090909,660,1,3,_Guitar,6,7,_Guitar,0.2659236788749695,0
55,100,0.1409090909090909,773,0,3,_Guitar,6,2,_Guitar,0.35419851541519165,0
60,100,1.7772727272727273,228,1,4,_Guitar,6,15,_Guitar,0.9983165264129639,1
60,100,2.081818181818182,672,1,4,_Guitar,6,15,_Guitar,0.5445579290390015,0
53,100,0.2636363636363636,289,1,5,_Guitar,6,4,_Guitar,0.9988419413566589,1
65,100,0.11818181818181818,527,1,5,_Guitar,6,2,_Guitar,0.13724420964717865,0
58,100,0.38181818181818183,585,0,5,_Guitar,6,6,_Guitar,0.15977491438388824,0
53,100,0.17727272727272728,744,0,5,_Guitar,6,3,_Guitar,0.18644320964813232,0
53,100,0.2590909090909091,788,0,5,_Guitar,6,4,_Guitar,0.25815683603286743,0
60,100,0.2409090909090909,554,1,6,_Guitar,6,4,_Guitar,0.9990229606628418,1
53,100,0.1409090909090909,682,0,6,_Guitar,6,2,_Guitar,0.3666207492351532,0
53,100,0.7,805,0,6,_Guitar,6,11,_Guitar,0.45328930020332336,0
53,100,0.3181818181818182,150,1,7,_Guitar,6,5,_Guitar,0.9988419413566589,1
65,100,0.2818181818181818,224,0,7,_Guitar,6,5,_Guitar,0.13724738359451294,0
57,100,0.2590909090909091,307,0,7,_Guitar,6,4,_Guitar,0.15976843237876892,0
60,100,0.1409090909090909,452,0,7,_Guitar,6,2,_Guitar,0.18644629418849945,0
53,100,0.2,713,1,7,_Guitar,6,3,_Guitar,0.2581574320793152,0
53,100,0.11818181818181818,8,1,8,_Guitar,6,2,_Guitar,0.9986500144004822,1
60,100,0.1590909090909091,118,0,8,_Guitar,6,3,_Guitar,0.08780296891927719,0
58,100,0.17727272727272728,194,0,8,_Guitar,6,3,_Guitar,0.09181187301874161,0
53,100,0.12272727272727273,312,0,8,_Guitar,6,2,_Guitar,0.10747470706701279,0
60,100,0.2409090909090909,713,1,8,_Guitar,6,4,_Guitar,0.12482690811157227,0
55,100,0.2590909090909091,787,0,8,_Guitar,6,4,_Guitar,0.1790306568145752,0
60,100,0.35909090909090907,211,1,9,_Guitar,6,6,_Guitar,0.9988419413566589,1
60,100,0.12272727272727273,333,0,9,_Guitar,6,2,_Guitar,0.13724881410598755,0
53,100,0.1590909090909091,558,0,9,_Guitar,6,3,_Guitar,0.1597767025232315,0
53,100,0.1590909090909091,603,0,9,_Guitar,6,3,_Guitar,0.18644659221172333,0
60,100,0.3181818181818182,756,0,9,_Guitar,6,5,_Guitar,0.25817230343818665,0
53,100,0.5590909090909091,84,1,10,_Guitar,6,9,_Guitar,0.9988419413566589,1
53,100,0.3,276,0,10,_Guitar,6,5,_Guitar,0.13724970817565918,0
53,100,0.1,479,0,10,_Guitar,6,2,_Guitar,0.15978074073791504,0
69,100,0.2,668,0,10,_Guitar,6,3,_Guitar,0.18645106256008148,0
69,100,0.6409090909090909,756,0,10,_Guitar,6,10,_Guitar,0.25817006826400757,0
69,100,0.16363636363636364,202,1,11,_Guitar,6,3,_Guitar,0.9988419413566589,1
53,100,0.16363636363636364,443,1,11,_Guitar,6,3,_Guitar,0.13724865019321442,0
60,100,0.2818181818181818,527,0,11,_Guitar,6,5,_Guitar,0.15977415442466736,0
53,100,0.3181818181818182,594,0,11,_Guitar,6,5,_Guitar,0.1864476203918457,0
60,100,1.4772727272727273,721,0,11,_Guitar,6,15,_Guitar,0.258159875869751,0
53,100,0.18181818181818182,180,1,12,_Guitar,6,3,_Guitar,0.9990229606628418,1
72,100,0.3,536,1,12,_Guitar,6,5,_Guitar,0.3666263222694397,0
65,100,0.11818181818181818,634,0,12,_Guitar,6,2,_Guitar,0.453283429145813,0
53,100,0.22272727272727272,13,1,13,_Guitar,6,4,_Guitar,0.9986500144004822,1
53,100,0.12272727272727273,79,0,13,_Guitar,6,2,_Guitar,0.08780401945114136,0
60,100,0.6,154,0,13,_Guitar,6,10,_Guitar,0.09181047976016998,0
65,100,0.12272727272727273,453,1,13,_Guitar,6,2,_Guitar,0.10747454315423965,0
60,100,0.11818181818181818,615,0,13,_Guitar,6,2,_Guitar,0.12482316792011261,0
53,100,0.13636363636363635,831,0,13,_Guitar,6,2,_Guitar,0.17902423441410065,0
53,100,0.4590909090909091,166,1,14,_Guitar,6,7,_Guitar,0.9988419413566589,1
60,100,0.12272727272727273,290,0,14,_Guitar,6,2,_Guitar,0.13724491000175476,0
60,100,0.1,567,1,14,_Guitar,6,2,_Guitar,0.15977121889591217,0
60,100,0.11818181818181818,699,0,14,_Guitar,6,2,_Guitar,0.18644379079341888,0
60,100,0.11818181818181818,766,0,14,_Guitar,6,2,_Guitar,0.2581624984741211,0
60,100,0.2409090909090909,312,1,15,_Guitar,6,4,_Guitar,0.9986500144004822,1
60,100,0.1409090909090909,400,0,15,_Guitar,6,2,_Guitar,0.08780480176210403,0
60,100,0.12272727272727273,496,0,15,_Guitar,6,2,_Guitar,0.09181350469589233,0
60,100,0.5590909090909091,615,0,15,_Guitar,6,9,_Guitar,0.10747770965099335,0
53,100,0.1409090909090909,792,0,15,_Guitar,6,2,_Guitar,0.12482494860887527,0
53,100,0.2590909090909091,857,0,15,_Guitar,6,4,_Guitar,0.17902708053588867,0
60,100,0.22272727272727272,100,1,16,_Guitar,6,4,_Guitar,0.9983736276626587,1
60,100,0.18181818181818182,233,0,16,_Guitar,6,3,_Guitar,0.05106175318360329,0
53,100,0.21818181818181817,281,0,16,_Guitar,6,3,_Guitar,0.041302431374788284,0
60,100,0.2590909090909091,351,0,16,_Guitar,6,4,_Guitar,0.03738618269562721,0
60,100,0.41818181818181815,550,0,16,_Guitar,6,7,_Guitar,0.03832942619919777,0
60,100,0.1409090909090909,673,0,16,_Guitar,6,2,_Guitar,0.04475264996290207,0
57,100,0.11818181818181818,721,0,16,_Guitar,6,2,_Guitar,0.055228911340236664,0
60,100,0.35909090909090907,831,0,16,_Guitar,6,6,_Guitar,0.09026431292295456,0
60,100,0.2409090909090909,119,1,17,_Guitar,6,4,_Guitar,0.9984880685806274,1
65,100,0.18181818181818182,198,0,17,_Guitar,6,3,_Guitar,0.06334558129310608,0
65,100,0.11818181818181818,264,0,17,_Guitar,6,2,_Guitar,0.05774198845028877,0
57,100,1.1772727272727272,316,0,17,_Guitar,6,15,_Guitar,0.06020044907927513,0
57,100,0.2409090909090909,650,1,17,_Guitar,6,4,_Guitar,0.06970306485891342,0
57,100,0.4409090909090909,739,0,17,_Guitar,6,7,_Guitar,0.08189406245946884,0
53,100,0.2,858,0,17,_Guitar,6,3,_Guitar,0.12401746958494186,0
53,100,0.21818181818181817,30,1,18,_Guitar,6,3,_Guitar,0.9988419413566589,1
58,100,0.4,175,0,18,_Guitar,6,6,_Guitar,0.13724884390830994,0
58,100,0.38181818181818183,268,0,18,_Guitar,6,6,_Guitar,0.15977570414543152,0
60,100,0.5409090909090909,615,1,18,_Guitar,6,9,_Guitar,0.18644647300243378,0
60,100,0.21818181818181817,756,0,18,_Guitar,6,3,_Guitar,0.2581656873226166,0
60,100,0.22272727272727272,233,1,19,_Guitar,6,4,_Guitar,0.9983165264129639,1
55,100,0.18181818181818182,299,0,19,_Guitar,6,3,_Guitar,0.5445525646209717,0
55,100,0.11818181818181818,281,1,20,_Guitar,6,2,_Guitar,0.9988419413566589,1
60,100,0.2,378,0,20,_Guitar,6,3,_Guitar,0.1372474730014801,0
60,100,0.3,430,0,20,_Guitar,6,5,_Guitar,0.15977756679058075,0
53,100,0.11818181818181818,581,0,20,_Guitar,6,2,_Guitar,0.1864466369152069,0
58,100,0.7818181818181819,619,0,20,_Guitar,6,13,_Guitar,0.2581593990325928,0
53,100,0.2409090909090909,44,1,21,_Guitar,6,4,_Guitar,0.9986500144004822,1
53,100,0.17727272727272728,119,0,21,_Guitar,6,3,_Guitar,0.0878029316663742,0
60,100,0.6,206,0,21,_Guitar,6,10,_Guitar,0.0918145626783371,0
58,100,0.3409090909090909,399,0,21,_Guitar,6,5,_Guitar,0.10747808963060379,0
53,100,0.1590909090909091,546,0,21,_Guitar,6,3,_Guitar,0.12482088059186935,0
60,100,0.1,646,0,21,_Guitar,6,2,_Guitar,0.17902669310569763,0
53,100,0.12272727272727273,13,1,22,_Guitar,6,2,_Guitar,0.9983736276626587,1
60,100,0.41818181818181815,119,0,22,_Guitar,6,7,_Guitar,0.051060620695352554,0
65,100,0.1590909090909091,241,0,22,_Guitar,6,3,_Guitar,0.041302282363176346,0
60,100,0.12272727272727273,378,0,22,_Guitar,6,2,_Guitar,0.0373850017786026,0
60,100,0.2818181818181818,474,0,22,_Guitar,6,5,_Guitar,0.038328055292367935,0
65,100,0.18181818181818182,650,0,22,_Guitar,6,3,_Guitar,0.04474993050098419,0
53,100,0.2590909090909091,691,0,22,_Guitar,6,4,_Guitar,0.05522836372256279,0
53,100,0.4409090909090909,752,0,22,_Guitar,6,7,_Guitar,0.09026023745536804,0
53,100,0.17727272727272728,96,1,23,_Guitar,6,3,_Guitar,0.9990229606628418,1
60,100,0.7181818181818181,602,1,23,_Guitar,6,11,_Guitar,0.3666268289089203,0
57,100,0.2590909090909091,791,0,23,_Guitar,6,4,_Guitar,0.4532860517501831,0
57,100,0.21818181818181817,9,1,24,_Guitar,6,3,_Guitar,0.9986500144004822,1
57,100,0.11818181818181818,131,0,24,_Guitar,6,2,_Guitar,0.08780598640441895,0
57,100,0.2,343,0,24,_Guitar,6,3,_Guitar,0.09181607514619827,0
60,100,0.11818181818181818,492,0,24,_Guitar,6,2,_Guitar,0.10748288780450821,0
57,100,0.3,598,0,24,_Guitar,6,5,_Guitar,0.1248319000005722,0
57,100,0.8636363636363636,796,0,24,_Guitar,6,14,_Guitar,0.17903566360473633,0
57,100,0.11818181818181818,110,1,25,_Guitar,6,2,_Guitar,0.9986500144004822,1
62,100,0.2,422,1,25,_Guitar,6,3,_Guitar,0.08780371397733688,0
53,100,0.2409090909090909,563,0,25,_Guitar,6,4,_Guitar,0.09181177616119385,0
60,100,0.2818181818181818,663,0,25,_Guitar,6,5,_Guitar,0.10747760534286499,0
60,100,0.2,787,0,25,_Guitar,6,3,_Guitar,0.12482530623674393,0
53,100,0.18181818181818182,839,0,25,_Guitar,6,3,_Guitar,0.17902427911758423,0
53,100,0.22272727272727272,34,1,26,_Guitar,6,4,_Guitar,0.9988419413566589,1
58,100,0.7181818181818181,229,0,26,_Guitar,6,11,_Guitar,0.13724303245544434,0
58,100,0.2818181818181818,395,0,26,_Guitar,6,5,_Guitar,0.15977436304092407,0
58,100,0.1409090909090909,466,0,26,_Guitar,6,2,_Guitar,0.18644315004348755,0
58,100,0.1,567,0,26,_Guitar,6,2,_Guitar,0.2581579089164734,0
58,100,0.11818181818181818,0,1,27,_Guitar,6,2,_Guitar,0.9990230798721313,1
58,100,0.6818181818181818,34,0,27,_Guitar,6,11,_Guitar,0.36662065982818604,0
58,100,0.7,413,1,27,_Guitar,6,11,_Guitar,0.4532877206802368,0
55,100,0.37727272727272726,480,1,28,_Guitar,6,6,_Guitar,0.9983165264129639,1
55,100,0.9,625,0,28,_Guitar,6,14,_Guitar,0.5445577502250671,0
55,100,0.41818181818181815,154,1,29,_Guitar,6,7,_Guitar,0.9990057349205017,1
60,100,0.11818181818181818,264,0,29,_Guitar,6,2,_Guitar,0.2312033623456955,0
65,100,0.13636363636363635,523,1,29,_Guitar,6,2,_Guitar,0.26591241359710693,0
60,100,0.3409090909090909,773,1,29,_Guitar,6,5,_Guitar,0.35419797897338867,0
60,100,0.4409090909090909,92,1,30,_Guitar,6,7,_Guitar,0.9990230798721313,1
60,100,0.33636363636363636,546,1,30,_Guitar,6,5,_Guitar,0.36662304401397705,0
53,100,0.2590909090909091,673,0,30,_Guitar,6,4,_Guitar,0.45328548550605774,0
60,100,0.37727272727272726,326,1,31,_Guitar,6,6,_Guitar,0.9990229606628418,1
60,100,0.759090909090909,449,0,31,_Guitar,6,12,_Guitar,0.3666209280490875,0
53,100,0.18181818181818182,858,1,31,_Guitar,6,3,_Guitar,0.4532826244831085,0
58,100,0.2818181818181818,254,1,32,_Guitar,6,5,_Guitar,0.9984880685806274,1
60,100,0.38181818181818183,334,0,32,_Guitar,6,6,_Guitar,0.06334426999092102,0
58,100,0.17727272727272728,448,0,32,_Guitar,6,3,_Guitar,0.057741839438676834,0
58,100,0.1409090909090909,493,0,32,_Guitar,6,2,_Guitar,0.060201797634363174,0
53,100,0.2818181818181818,716,0,32,_Guitar,6,5,_Guitar,0.06970065832138062,0
60,100,0.1409090909090909,823,0,32,_Guitar,6,2,_Guitar,0.08189546316862106,0
53,100,0.22272727272727272,871,0,32,_Guitar,6,4,_Guitar,0.124018594622612,0
60,100,0.1409090909090909,188,1,33,_Guitar,6,2,_Guitar,0.9983165264129639,1
60,100,0.2590909090909091,826,1,33,_Guitar,6,4,_Guitar,0.544559121131897,0
55,100,0.21818181818181817,215,1,34,_Guitar,6,3,_Guitar,0.9990229606628418,1
60,100,0.6227272727272727,563,1,34,_Guitar,6,10,_Guitar,0.36662036180496216,0
53,100,0.17727272727272728,721,0,34,_Guitar,6,3,_Guitar,0.4532870352268219,0
60,100,0.11818181818181818,153,1,35,_Guitar,6,2,_Guitar,0.9983165264129639,1
60,100,0.1590909090909091,810,1,35,_Guitar,6,3,_Guitar,0.5445546507835388,0
60,100,0.4818181818181818,298,1,36,_Guitar,6,8,_Guitar,0.9988419413566589,1
53,100,0.1590909090909091,474,0,36,_Guitar,6,3,_Guitar,0.1372433751821518,0
60,100,0.5227272727272727,554,0,36,_Guitar,6,8,_Guitar,0.15977533161640167,0
69,100,0.1,703,0,36,_Guitar,6,2,_Guitar,0.1864425241947174,0
60,100,0.3181818181818182,823,0,36,_Guitar,6,5,_Guitar,0.2581665813922882,0
60,100,0.17727272727272728,18,1,37,_Guitar,6,3,_Guitar,0.9990057349205017,1
53,100,0.2409090909090909,286,1,37,_Guitar,6,4,_Guitar,0.23120057582855225,0
53,100,0.1590909090909091,493,0,37,_Guitar,6,3,_Guitar,0.2659170925617218,0
60,100,0.1409090909090909,668,0,37,_Guitar,6,2,_Guitar,0.3541935980319977,0
53,100,0.1590909090909091,21,1,38,_Guitar,6,3,_Guitar,0.9988419413566589,1
65,100,0.18181818181818182,78,0,38,_Guitar,6,3,_Guitar,0.13724373281002045,0
53,100,0.1409090909090909,444,1,38,_Guitar,6,2,_Guitar,0.15977540612220764,0
53,100,0.2590909090909091,716,1,38,_Guitar,6,4,_Guitar,0.18644112348556519,0
53,100,0.16363636363636364,861,0,38,_Guitar,6,3,_Guitar,0.25816255807876587,0
53,100,0.2818181818181818,34,1,39,_Guitar,6,5,_Guitar,0.9990230798721313,1
60,100,0.21818181818181817,131,0,39,_Guitar,6,3,_Guitar,0.3666250705718994,0
60,100,0.22272727272727272,431,1,39,_Guitar,6,4,_Guitar,0.4532870352268219,0
60,100,0.3,69,1,40,_Guitar,6,5,_Guitar,0.9990230798721313,1
58,100,0.1409090909090909,356,1,40,_Guitar,6,2,_Guitar,0.3666241466999054,0
53,100,0.2409090909090909,708,1,40,_Guitar,6,4,_Guitar,0.4532872438430786,0
58,100,0.36363636363636365,26,1,41,_Guitar,6,6,_Guitar,0.9988419413566589,1
58,100,0.35909090909090907,303,1,41,_Guitar,6,6,_Guitar,0.13724708557128906,0
53,100,0.3181818181818182,506,0,41,_Guitar,6,5,_Guitar,0.15977415442466736,0
60,100,0.11818181818181818,581,0,41,_Guitar,6,2,_Guitar,0.18644648790359497,0
57,100,0.2409090909090909,735,0,41,_Guitar,6,4,_Guitar,0.25815442204475403,0
53,100,0.1409090909090909,351,1,43,_Guitar,6,2,_Guitar,0.9990057349205017,1
53,100,0.17727272727272728,611,1,43,_Guitar,6,3,_Guitar,0.23120124638080597,0
53,100,0.11818181818181818,770,0,43,_Guitar,6,2,_Guitar,0.2659190893173218,0
60,100,0.1,826,0,43,_Guitar,6,2,_Guitar,0.35419461131095886,0
53,100,0.3181818181818182,96,1,44,_Guitar,6,5,_Guitar,0.9990229606628418,1
60,100,0.3409090909090909,166,0,44,_Guitar,6,5,_Guitar,0.3666251301765442,0
60,100,0.3409090909090909,444,1,44,_Guitar,6,5,_Guitar,0.45329418778419495,0
53,100,0.11818181818181818,480,1,45,_Guitar,6,2,_Guitar,0.9792558550834656,0
53,100,0.3181818181818182,88,1,46,_Guitar,6,5,_Guitar,0.9983164072036743,1
62,100,0.18181818181818182,373,1,46,_Guitar,6,3,_Guitar,0.5445608496665955,0
60,100,0.8,166,1,47,_Guitar,6,13,_Guitar,0.9792563915252686,0
60,100,0.18181818181818182,254,1,48,_Guitar,6,3,_Guitar,0.9990057349205017,1
58,100,0.2,418,0,48,_Guitar,6,3,_Guitar,0.23120373487472534,0
58,100,0.18181818181818182,509,0,48,_Guitar,6,3,_Guitar,0.26591965556144714,0
65,100,0.4,694,0,48,_Guitar,6,6,_Guitar,0.3541947305202484,0
60,100,0.3409090909090909,53,1,49,_Guitar,6,5,_Guitar,0.9983165264129639,1
57,100,0.9590909090909091,633,1,49,_Guitar,6,15,_Guitar,0.5445536971092224,0
60,100,0.3409090909090909,91,1,50,_Guitar,6,5,_Guitar,0.9986500144004822,1
57,100,1.1818181818181819,188,0,50,_Guitar,6,15,_Guitar,0.08780354261398315,0
57,100,0.2818181818181818,453,1,50,_Guitar,6,5,_Guitar,0.09181629121303558,0
57,100,0.18181818181818182,528,0,50,_Guitar,6,3,_Guitar,0.10748142749071121,0
57,100,0.5772727272727273,590,0,50,_Guitar,6,9,_Guitar,0.1248285323381424,0
60,100,0.6,721,0,50,_Guitar,6,10,_Guitar,0.1790415644645691,0
60,100,0.1409090909090909,246,1,51,_Guitar,6,2,_Guitar,0.9986500144004822,1
60,100,0.2409090909090909,334,0,51,_Guitar,6,4,_Guitar,0.08780428767204285,0
53,100,0.4590909090909091,396,0,51,_Guitar,6,7,_Guitar,0.09181445837020874,0
65,100,0.1409090909090909,496,0,51,_Guitar,6,2,_Guitar,0.10747744888067245,0
60,100,1.2636363636363637,531,0,51,_Guitar,6,15,_Guitar,0.12482675909996033,0
57,100,0.8,853,1,51,_Guitar,6,13,_Guitar,0.17902851104736328,0
65,100,0.7181818181818181,458,1,52,_Guitar,6,11,_Guitar,0.9983164072036743,1
62,100,0.7818181818181819,651,0,52,_Guitar,6,13,_Guitar,0.5445588827133179,0
57,100,0.16363636363636364,48,1,53,_Guitar,6,3,_Guitar,0.9990057349205017,1
60,100,0.5,268,0,53,_Guitar,6,8,_Guitar,0.231209397315979,0
60,100,0.2590909090909091,523,1,53,_Guitar,6,4,_Guitar,0.26592567563056946,0
53,100,0.1590909090909091,655,0,53,_Guitar,6,3,_Guitar,0.3541996479034424,0
53,100,0.1590909090909091,43,1,54,_Guitar,6,3,_Guitar,0.9990229606628418,1
58,100,0.6,179,0,54,_Guitar,6,10,_Guitar,0.36661919951438904,0
53,100,0.2,515,1,54,_Guitar,6,3,_Guitar,0.453285276889801,0
53,100,0.1409090909090909,75,1,55,_Guitar,6,2,_Guitar,0.9984880685806274,1
53,100,0.35909090909090907,110,0,55,_Guitar,6,6,_Guitar,0.0633455440402031,0
53,100,0.3181818181818182,206,0,55,_Guitar,6,5,_Guitar,0.05774163082242012,0
60,100,0.3181818181818182,281,0,55,_Guitar,6,5,_Guitar,0.06020093336701393,0
60,100,0.5181818181818182,506,0,55,_Guitar,6,8,_Guitar,0.06969927996397018,0
60,100,0.3181818181818182,713,0,55,_Guitar,6,5,_Guitar,0.08189108967781067,0
60,100,0.3181818181818182,831,0,55,_Guitar,6,5,_Guitar,0.12401129305362701,0
62,100,0.21818181818181817,176,1,56,_Guitar,6,3,_Guitar,0.9986500144004822,1
60,100,0.6772727272727272,281,0,56,_Guitar,6,11,_Guitar,0.08780617266893387,0
53,100,0.21818181818181817,448,0,56,_Guitar,6,3,_Guitar,0.09181688725948334,0
65,100,0.22272727272727272,509,0,56,_Guitar,6,4,_Guitar,0.10748329758644104,0
57,100,0.2772727272727273,590,0,56,_Guitar,6,4,_Guitar,0.12483035773038864,0
60,100,0.9818181818181818,703,0,56,_Guitar,6,15,_Guitar,0.17903989553451538,0
60,100,0.6,118,1,57,_Guitar,6,10,_Guitar,0.9988419413566589,1
65,100,0.5590909090909091,471,1,57,_Guitar,6,9,_Guitar,0.1372455656528473,0
58,100,0.33636363636363636,655,0,57,_Guitar,6,5,_Guitar,0.15977677702903748,0
60,100,0.1590909090909091,765,0,57,_Guitar,6,3,_Guitar,0.18644718825817108,0
53,100,0.3181818181818182,810,0,57,_Guitar,6,5,_Guitar,0.25815916061401367,0
60,100,0.2818181818181818,4,1,58,_Guitar,6,5,_Guitar,0.9988419413566589,1
53,100,0.4818181818181818,78,0,58,_Guitar,6,8,_Guitar,0.1372406780719757,0
53,100,0.13636363636363635,215,0,58,_Guitar,6,2,_Guitar,0.15977075695991516,0
53,100,0.12272727272727273,298,0,58,_Guitar,6,2,_Guitar,0.1864415854215622,0
60,100,0.18181818181818182,378,0,58,_Guitar,6,3,_Guitar,0.2581614851951599,0
60,100,0.9181818181818182,105,1,59,_Guitar,6,15,_Guitar,0.9988419413566589,1
55,100,0.1,361,1,59,_Guitar,6,2,_Guitar,0.13724686205387115,0
60,100,0.22272727272727272,619,1,59,_Guitar,6,4,_Guitar,0.15977470576763153,0
60,100,0.1409090909090909,694,0,59,_Guitar,6,2,_Guitar,0.18644677102565765,0
60,100,0.8,748,0,59,_Guitar,6,13,_Guitar,0.25815460085868835,0
53,100,0.2,43,1,60,_Guitar,6,3,_Guitar,0.9990057349205017,1
60,100,0.5409090909090909,141,0,60,_Guitar,6,9,_Guitar,0.23120450973510742,0
60,100,1.3590909090909091,308,0,60,_Guitar,6,15,_Guitar,0.2659139335155487,0
60,100,0.4409090909090909,726,1,60,_Guitar,6,7,_Guitar,0.3541952073574066,0
60,100,0.35909090909090907,263,1,61,_Guitar,6,6,_Guitar,0.9990229606628418,1
62,100,0.35909090909090907,351,0,61,_Guitar,6,6,_Guitar,0.36662086844444275,0
60,100,0.6590909090909091,703,1,61,_Guitar,6,11,_Guitar,0.4532966911792755,0
60,100,0.6181818181818182,171,1,62,_Guitar,6,10,_Guitar,0.9988419413566589,1
58,100,0.1590909090909091,405,1,62,_Guitar,6,3,_Guitar,0.13724762201309204,0
60,100,0.5,461,0,62,_Guitar,6,8,_Guitar,0.15977522730827332,0
58,100,0.13636363636363635,678,0,62,_Guitar,6,2,_Guitar,0.18644584715366364,0
60,100,1.0227272727272727,774,0,62,_Guitar,6,15,_Guitar,0.25816577672958374,0
60,100,0.2818181818181818,289,1,63,_Guitar,6,5,_Guitar,0.9990057349205017,1
60,100,0.22272727272727272,444,0,63,_Guitar,6,4,_Guitar,0.23120853304862976,0
58,100,0.5409090909090909,563,0,63,_Guitar,6,9,_Guitar,0.2659115493297577,0
60,100,0.5,818,1,63,_Guitar,6,8,_Guitar,0.35419654846191406,0
58,100,0.5227272727272727,430,1,64,_Guitar,6,8,_Guitar,0.9990230798721313,1
60,100,0.36363636363636365,553,0,64,_Guitar,6,6,_Guitar,0.36662420630455017,0
60,100,0.1,870,1,64,_Guitar,6,2,_Guitar,0.4532950818538666,0
57,100,0.3181818181818182,163,1,65,_Guitar,6,5,_Guitar,0.9990229606628418,1
60,100,0.5227272727272727,629,1,65,_Guitar,6,8,_Guitar,0.3666321337223053,0
53,100,0.12272727272727273,870,1,65,_Guitar,6,2,_Guitar,0.4532897472381592,0
60,100,0.1590909090909091,79,1,66,_Guitar,6,3,_Guitar,0.9988419413566589,1
58,100,0.8,136,0,66,_Guitar,6,13,_Guitar,0.13724593818187714,0
58,100,0.2409090909090909,316,0,66,_Guitar,6,4,_Guitar,0.15977700054645538,0
58,100,0.12272727272727273,650,1,66,_Guitar,6,2,_Guitar,0.186448335647583,0
65,100,0.2818181818181818,849,0,66,_Guitar,6,5,_Guitar,0.25816017389297485,0
58,100,0.2,157,1,67,_Guitar,6,3,_Guitar,0.9984880685806274,1
53,100,0.1409090909090909,286,0,67,_Guitar,6,2,_Guitar,0.06334535032510757,0
57,100,0.33636363636363636,392,0,67,_Guitar,6,5,_Guitar,0.05774044618010521,0
53,100,0.3181818181818182,493,0,67,_Guitar,6,5,_Guitar,0.06020238995552063,0
53,100,0.18181818181818182,585,0,67,_Guitar,6,3,_Guitar,0.06970268487930298,0
60,100,0.5,650,0,67,_Guitar,6,8,_Guitar,0.08189595490694046,0
60,100,1.1409090909090909,770,0,67,_Guitar,6,15,_Guitar,0.12402059137821198,0
60,100,0.1409090909090909,233,1,68,_Guitar,6,2,_Guitar,0.9990230798721313,1
60,100,0.4772727272727273,392,0,68,_Guitar,6,8,_Guitar,0.3666234016418457,0
65,100,0.35909090909090907,624,1,68,_Guitar,6,6,_Guitar,0.45329031348228455,0
60,100,0.35909090909090907,233,1,69,_Guitar,6,6,_Guitar,0.9983737468719482,1
53,100,0.2409090909090909,399,0,69,_Guitar,6,4,_Guitar,0.05106073617935181,0
60,100,0.18181818181818182,487,0,69,_Guitar,6,3,_Guitar,0.04130329191684723,0
60,100,0.12272727272727273,673,0,69,_Guitar,6,2,_Guitar,0.0373862124979496,0
60,100,0.1590909090909091,713,0,69,_Guitar,6,3,_Guitar,0.038330547511577606,0
53,100,0.1590909090909091,756,0,69,_Guitar,6,3,_Guitar,0.04475181922316551,0
53,100,0.12272727272727273,826,0,69,_Guitar,6,2,_Guitar,0.055229127407073975,0
57,100,0.37727272727272726,853,0,69,_Guitar,6,6,_Guitar,0.09026681631803513,0
60,100,0.2,166,1,70,_Guitar,6,3,_Guitar,0.9984880685806274,1
60,100,0.21818181818181817,273,0,70,_Guitar,6,3,_Guitar,0.06334492564201355,0
53,100,0.12272727272727273,356,0,70,_Guitar,6,2,_Guitar,0.057740334421396255,0
57,100,0.1,550,0,70,_Guitar,6,2,_Guitar,0.06019924581050873,0
53,100,0.1,633,0,70,_Guitar,6,2,_Guitar,0.0697024017572403,0
53,100,0.16363636363636364,663,0,70,_Guitar,6,3,_Guitar,0.0818905234336853,0
60,100,0.2,826,0,70,_Guitar,6,3,_Guitar,0.12401887774467468,0
53,100,0.2409090909090909,35,1,71,_Guitar,6,4,_Guitar,0.9986500144004822,1
58,100,0.1,184,0,71,_Guitar,6,2,_Guitar,0.08780602365732193,0
58,100,1.0227272727272727,210,0,71,_Guitar,6,15,_Guitar,0.09181375801563263,0
60,100,0.2590909090909091,519,1,71,_Guitar,6,4,_Guitar,0.10747857391834259,0
60,100,0.3,734,0,71,_Guitar,6,5,_Guitar,0.12482548505067825,0
60,100,0.8181818181818182,844,0,71,_Guitar,6,13,_Guitar,0.17903085052967072,0
60,100,0.12272727272727273,157,1,72,_Guitar,6,2,_Guitar,0.9990057349205017,1
53,100,0.12272727272727273,276,0,72,_Guitar,6,2,_Guitar,0.23119978606700897,0
53,100,0.12272727272727273,399,0,72,_Guitar,6,2,_Guitar,0.2659159004688263,0
65,100,0.3,426,0,72,_Guitar,6,5,_Guitar,0.3541902005672455,0
53,100,0.2590909090909091,210,1,73,_Guitar,6,4,_Guitar,0.9990057349205017,1
60,100,0.21818181818181817,303,0,73,_Guitar,6,3,_Guitar,0.23119774460792542,0
53,100,0.18181818181818182,487,0,73,_Guitar,6,3,_Guitar,0.2659164369106293,0
55,100,0.37727272727272726,832,1,73,_Guitar,6,6,_Guitar,0.35419735312461853,0
60,100,0.4590909090909091,56,1,74,_Guitar,6,7,_Guitar,0.9983165264129639,1
64,100,0.17727272727272728,392,1,74,_Guitar,6,3,_Guitar,0.5445547103881836,0
60,100,0.4772727272727273,40,1,75,_Guitar,6,8,_Guitar,0.9990057349205017,1
60,100,0.9590909090909091,299,1,75,_Guitar,6,15,_Guitar,0.23120233416557312,0
53,100,0.1409090909090909,550,1,75,_Guitar,6,2,_Guitar,0.26591596007347107,0
60,100,1.6409090909090909,682,0,75,_Guitar,6,15,_Guitar,0.35419294238090515,0
65,100,0.21818181818181817,787,1,76,_Guitar,6,3,_Guitar,0.979256272315979,0
60,100,0.8590909090909091,96,1,77,_Guitar,6,14,_Guitar,0.9990057349205017,1
53,100,0.12272727272727273,443,1,77,_Guitar,6,2,_Guitar,0.23121482133865356,0
58,100,0.13636363636363635,480,0,77,_Guitar,6,2,_Guitar,0.2659374177455902,0
58,100,1.3590909090909091,563,0,77,_Guitar,6,15,_Guitar,0.3541807532310486,0
58,100,0.1409090909090909,22,1,78,_Guitar,6,2,_Guitar,0.9988419413566589,1
55,100,0.1,263,1,78,_Guitar,6,2,_Guitar,0.13724856078624725,0
55,100,0.1,289,0,78,_Guitar,6,2,_Guitar,0.1597760170698166,0
60,100,0.5590909090909091,493,0,78,_Guitar,6,9,_Guitar,0.18644990026950836,0
60,100,2.2590909090909093,677,0,78,_Guitar,6,15,_Guitar,0.2581561207771301,0
60,100,0.8636363636363636,356,1,79,_Guitar,6,14,_Guitar,0.9792563915252686,0
60,100,0.1,123,1,80,_Guitar,6,2,_Guitar,0.9792568683624268,0
60,100,0.38181818181818183,386,1,81,_Guitar,6,6,_Guitar,0.9990230798721313,1
60,100,0.5227272727272727,519,0,81,_Guitar,6,8,_Guitar,0.36662450432777405,0
60,100,0.6772727272727272,669,0,81,_Guitar,6,11,_Guitar,0.4532909691333771,0
60,100,0.9409090909090909,3,1,82,_Guitar,6,15,_Guitar,0.9988419413566589,1
65,100,0.11818181818181818,373,1,82,_Guitar,6,2,_Guitar,0.13724781572818756,0
65,100,0.17727272727272728,413,0,82,_Guitar,6,3,_Guitar,0.15977512300014496,0
62,100,0.5,493,0,82,_Guitar,6,8,_Guitar,0.18644900619983673,0
60,100,1.1818181818181819,637,0,82,_Guitar,6,15,_Guitar,0.25816237926483154,0
53,100,0.2,26,1,83,_Guitar,6,3,_Guitar,0.9988419413566589,1
60,100,0.8409090909090909,229,0,83,_Guitar,6,13,_Guitar,0.13724765181541443,0
53,100,0.1,466,1,83,_Guitar,6,2,_Guitar,0.15977881848812103,0
53,100,0.22272727272727272,716,1,83,_Guitar,6,4,_Guitar,0.1864442378282547,0
60,100,0.35909090909090907,783,0,83,_Guitar,6,6,_Guitar,0.2581664025783539,0
58,100,0.13636363636363635,40,1,84,_Guitar,6,2,_Guitar,0.9988419413566589,1
60,100,0.2409090909090909,189,0,84,_Guitar,6,4,_Guitar,0.13724550604820251,0
53,100,0.11818181818181818,326,0,84,_Guitar,6,2,_Guitar,0.15977194905281067,0
60,100,0.9409090909090909,466,0,84,_Guitar,6,15,_Guitar,0.18644803762435913,0
60,100,0.6,677,0,84,_Guitar,6,10,_Guitar,0.25816380977630615,0
65,100,0.1,3,1,85,_Guitar,6,2,_Guitar,0.9983736276626587,1
65,100,0.17727272727272728,30,0,85,_Guitar,6,3,_Guitar,0.051060840487480164,0
58,100,0.1,184,0,85,_Guitar,6,2,_Guitar,0.04130310192704201,0
62,100,0.2409090909090909,220,0,85,_Guitar,6,4,_Guitar,0.03738480061292648,0
58,100,0.6181818181818182,370,0,85,_Guitar,6,10,_Guitar,0.03833018243312836,0
58,100,0.5636363636363636,509,0,85,_Guitar,6,9,_Guitar,0.04475095868110657,0
64,100,0.22272727272727272,642,0,85,_Guitar,6,4,_Guitar,0.05522886663675308,0
60,100,0.5818181818181818,695,0,85,_Guitar,6,9,_Guitar,0.0902666226029396,0
65,100,0.21818181818181817,176,1,86,_Guitar,6,3,_Guitar,0.9990057349205017,1
53,100,0.35909090909090907,237,0,86,_Guitar,6,6,_Guitar,0.2312062829732895,0
60,100,0.6181818181818182,373,0,86,_Guitar,6,10,_Guitar,0.26592716574668884,0
60,100,0.18181818181818182,839,1,86,_Guitar,6,3,_Guitar,0.35419756174087524,0
64,100,0.35909090909090907,386,1,87,_Guitar,6,6,_Guitar,0.9990057349205017,1
60,100,0.17727272727272728,493,0,87,_Guitar,6,3,_Guitar,0.23120979964733124,0
57,100,0.1590909090909091,612,0,87,_Guitar,6,3,_Guitar,0.26591941714286804,0
60,100,0.2818181818181818,686,0,87,_Guitar,6,5,_Guitar,0.35420504212379456,0
53,100,0.2,66,1,88,_Guitar,6,3,_Guitar,0.9984880685806274,1
65,100,0.2,189,0,88,_Guitar,6,3,_Guitar,0.06334497779607773,0
53,100,0.37727272727272726,347,0,88,_Guitar,6,6,_Guitar,0.05774050951004028,0
65,100,0.1409090909090909,430,0,88,_Guitar,6,2,_Guitar,0.06020120903849602,0
65,100,0.3,637,0,88,_Guitar,6,5,_Guitar,0.06969922035932541,0
60,100,0.21818181818181817,703,0,88,_Guitar,6,3,_Guitar,0.08189208805561066,0
53,100,0.11818181818181818,766,0,88,_Guitar,6,2,_Guitar,0.1240156814455986,0
60,100,0.17727272727272728,40,1,89,_Guitar,6,3,_Guitar,0.9986500144004822,1
65,100,0.4,92,0,89,_Guitar,6,6,_Guitar,0.08780156075954437,0
60,100,0.4772727272727273,193,0,89,_Guitar,6,8,_Guitar,0.09181175380945206,0
58,100,0.1590909090909091,303,0,89,_Guitar,6,3,_Guitar,0.1074737161397934,0
60,100,0.2409090909090909,409,0,89,_Guitar,6,4,_Guitar,0.12482108175754547,0
64,100,0.11818181818181818,677,1,89,_Guitar,6,2,_Guitar,0.17902933061122894,0
65,100,0.22272727272727272,56,1,90,_Guitar,6,4,_Guitar,0.9983003735542297,1
53,100,0.5,294,1,90,_Guitar,6,8,_Guitar,0.04466334730386734,0
65,100,0.3181818181818182,404,0,90,_Guitar,6,5,_Guitar,0.0331495963037014,0
65,100,0.2409090909090909,483,0,90,_Guitar,6,4,_Guitar,0.026579398661851883,0
77,100,0.11818181818181818,550,0,90,_Guitar,6,2,_Guitar,0.02359420619904995,0
60,100,0.2409090909090909,593,0,90,_Guitar,6,4,_Guitar,0.024314166978001595,0
60,100,0.1,686,0,90,_Guitar,6,2,_Guitar,0.029688691720366478,0
55,100,0.2,743,0,90,_Guitar,6,3,_Guitar,0.04007454216480255,0
60,100,0.18181818181818182,813,0,90,_Guitar,6,3,_Guitar,0.07092612981796265,0
84,100,0.2409090909090909,9,1,91,_Guitar,6,4,_Guitar,0.9983736276626587,1
60,100,0.42272727272727273,113,0,91,_Guitar,6,7,_Guitar,0.05106060206890106,0
77,100,0.21818181818181817,220,0,91,_Guitar,6,3,_Guitar,0.041302185505628586,0
55,100,0.2818181818181818,276,0,91,_Guitar,6,5,_Guitar,0.03738557547330856,0
58,100,0.2590909090909091,360,0,91,_Guitar,6,4,_Guitar,0.03832836449146271,0
81,100,0.1,426,0,91,_Guitar,6,2,_Guitar,0.04475045204162598,0
65,100,0.2409090909090909,650,0,91,_Guitar,6,4,_Guitar,0.05522746965289116,0
76,100,0.2636363636363636,752,0,91,_Guitar,6,4,_Guitar,0.09026376157999039,0
72,100,0.17727272727272728,106,1,92,_Guitar,6,3,_Guitar,0.9982553124427795,1
72,100,0.3,229,0,92,_Guitar,6,5,_Guitar,0.04128731042146683,0
53,100,0.1590909090909091,409,0,92,_Guitar,6,3,_Guitar,0.028934050351381302,0
77,100,0.1590909090909091,457,0,92,_Guitar,6,3,_Guitar,0.02128843404352665,0
81,100,0.1,553,0,92,_Guitar,6,2,_Guitar,0.016744961962103844,0
60,100,0.1409090909090909,616,0,92,_Guitar,6,2,_Guitar,0.014918160624802113,0
79,100,0.16363636363636364,663,0,92,_Guitar,6,3,_Guitar,0.016015660017728806,0
84,100,0.1590909090909091,716,0,92,_Guitar,6,3,_Guitar,0.02117892913520336,0
53,100,0.38181818181818183,760,0,92,_Guitar,6,6,_Guitar,0.031566321849823,0
65,100,0.2409090909090909,870,0,92,_Guitar,6,4,_Guitar,0.060058191418647766,0
77,100,0.2,69,1,93,_Guitar,6,3,_Guitar,0.9983003735542297,1
53,100,0.18181818181818182,136,0,93,_Guitar,6,3,_Guitar,0.04466312751173973,0
60,100,0.32272727272727275,179,0,93,_Guitar,6,5,_Guitar,0.033149514347314835,0
60,100,0.2409090909090909,267,0,93,_Guitar,6,4,_Guitar,0.026579013094305992,0
60,100,0.3181818181818182,396,0,93,_Guitar,6,5,_Guitar,0.023594751954078674,0
84,100,0.2,466,0,93,_Guitar,6,3,_Guitar,0.024314280599355698,0
60,100,0.6409090909090909,532,0,93,_Guitar,6,10,_Guitar,0.02968856878578663,0
60,100,0.1409090909090909,726,0,93,_Guitar,6,2,_Guitar,0.040075965225696564,0
55,100,0.21818181818181817,756,0,93,_Guitar,6,3,_Guitar,0.07092795521020889,0
60,100,0.11818181818181818,22,1,94,_Guitar,6,2,_Guitar,0.9983004927635193,1
58,100,0.4,113,0,94,_Guitar,6,6,_Guitar,0.0446639209985733,0
65,100,0.1409090909090909,210,0,94,_Guitar,6,2,_Guitar,0.03314986452460289,0
77,100,0.1,282,0,94,_Guitar,6,2,_Guitar,0.026579035446047783,0
76,100,0.1,356,0,94,_Guitar,6,2,_Guitar,0.02359531819820404,0
57,100,0.2,436,0,94,_Guitar,6,3,_Guitar,0.024314003065228462,0
57,100,0.13636363636363635,656,0,94,_Guitar,6,2,_Guitar,0.029689529910683632,0
72,100,0.2590909090909091,695,0,94,_Guitar,6,4,_Guitar,0.04007754102349281,0
76,100,0.1,844,0,94,_Guitar,6,2,_Guitar,0.07092826813459396,0
79,100,0.1,113,1,95,_Guitar,6,2,_Guitar,0.9983004927635193,1
81,100,0.1,140,0,95,_Guitar,6,2,_Guitar,0.0446632094681263,0
84,100,0.1590909090909091,294,0,95,_Guitar,6,3,_Guitar,0.0331491157412529,0
53,100,0.18181818181818182,462,0,95,_Guitar,6,3,_Guitar,0.026579013094305992,0
77,100,0.21818181818181817,536,0,95,_Guitar,6,3,_Guitar,0.023594187572598457,0
53,100,0.22272727272727272,585,0,95,_Guitar,6,4,_Guitar,0.024313263595104218,0
60,100,0.21818181818181817,660,0,95,_Guitar,6,3,_Guitar,0.02968885749578476,0
86,100,0.12272727272727273,752,0,95,_Guitar,6,2,_Guitar,0.040074240416288376,0
60,100,0.6181818181818182,787,0,95,_Guitar,6,10,_Guitar,0.07092738896608353,0
84,100,0.2636363636363636,47,1,96,_Guitar,6,4,_Guitar,0.9984880685806274,1
81,100,0.2,106,0,96,_Guitar,6,3,_Guitar,0.0633455142378807,0
60,100,0.4,172,0,96,_Guitar,6,6,_Guitar,0.05774350091814995,0
76,100,0.12272727272727273,343,0,96,_Guitar,6,2,_Guitar,0.06020364165306091,0
53,100,0.12272727272727273,409,0,96,_Guitar,6,2,_Guitar,0.06970489025115967,0
65,100,0.2409090909090909,449,0,96,_Guitar,6,4,_Guitar,0.08189859986305237,0
57,100,1.5818181818181818,673,0,96,_Guitar,6,15,_Guitar,0.12402015179395676,0
53,100,0.5590909090909091,343,1,97,_Guitar,6,9,_Guitar,0.9983165264129639,1
57,100,0.2409090909090909,739,1,97,_Guitar,6,4,_Guitar,0.544559121131897,0
57,100,0.33636363636363636,347,1,98,_Guitar,6,5,_Guitar,0.9792559146881104,1
52,100,0.7227272727272728,48,1,0,_tunecore_Remastered_Guitar,6,12,_tunecore_Remastered_Guitar,0.9988419413566589,1
59,100,0.2,370,1,0,_tunecore_Remastered_Guitar,6,3,_tunecore_Remastered_Guitar,0.13724851608276367,0
59,100,0.1,559,0,0,_tunecore_Remastered_Guitar,6,2,_tunecore_Remastered_Guitar,0.15977467596530914,0
59,100,0.2,713,0,0,_tunecore_Remastered_Guitar,6,3,_tunecore_Remastered_Guitar,0.1864534467458725,0
61,100,0.4,801,0,0,_tunecore_Remastered_Guitar,6,6,_tunecore_Remastered_Guitar,0.2581598162651062,0
64,100,0.6181818181818182,18,1,1,_tunecore_Remastered_Guitar,6,10,_tunecore_Remastered_Guitar,0.9983003735542297,1
61,100,0.1590909090909091,241,0,1,_tunecore_Remastered_Guitar,6,3,_tunecore_Remastered_Guitar,0.04466383904218674,0
66,100,0.2409090909090909,299,0,1,_tunecore_Remastered_Guitar,6,4,_tunecore_Remastered_Guitar,0.033150214701890945,0
68,100,0.3181818181818182,369,0,1,_tunecore_Remastered_Guitar,6,5,_tunecore_Remastered_Guitar,0.02657950669527054,0
66,100,0.4818181818181818,475,0,1,_tunecore_Remastered_Guitar,6,8,_tunecore_Remastered_Guitar,0.023595064878463745,0
66,100,0.1590909090909091,669,0,1,_tunecore_Remastered_Guitar,6,3,_tunecore_Remastered_Guitar,0.024314360693097115,0
59,100,0.1590909090909091,744,0,1,_tunecore_Remastered_Guitar,6,3,_tunecore_Remastered_Guitar,0.029689639806747437,0
61,100,0.3181818181818182,791,0,1,_tunecore_Remastered_Guitar,6,5,_tunecore_Remastered_Guitar,0.040076009929180145,0
59,100,0.759090909090909,871,0,1,_tunecore_Remastered_Guitar,6,12,_tunecore_Remastered_Guitar,0.07093004137277603,0
59,100,0.6772727272727272,193,1,2,_tunecore_Remastered_Guitar,6,11,_tunecore_Remastered_Guitar,0.9984880685806274,1
64,100,0.21818181818181817,348,0,2,_tunecore_Remastered_Guitar,6,3,_tunecore_Remastered_Guitar,0.06334636360406876,0
59,100,0.2409090909090909,427,0,2,_tunecore_Remastered_Guitar,6,4,_tunecore_Remastered_Guitar,0.05774310603737831,0
64,100,0.2409090909090909,488,0,2,_tunecore_Remastered_Guitar,6,4,_tunecore_Remastered_Guitar,0.060203712433576584,0
52,100,0.6409090909090909,541,0,2,_tunecore_Remastered_Guitar,6,10,_tunecore_Remastered_Guitar,0.06970340758562088,0
64,100,0.1,779,1,2,_tunecore_Remastered_Guitar,6,2,_tunecore_Remastered_Guitar,0.08189739286899567,0
64,100,0.1,849,0,2,_tunecore_Remastered_Guitar,6,2,_tunecore_Remastered_Guitar,0.12402722239494324,0
59,100,0.2,34,1,3,_tunecore_Remastered_Guitar,6,3,_tunecore_Remastered_Guitar,0.9982276558876038,1
61,100,0.2818181818181818,100,0,3,_tunecore_Remastered_Guitar,6,5,_tunecore_Remastered_Guitar,0.039396803826093674,0
64,100,0.3181818181818182,176,0,3,_tunecore_Remastered_Guitar,6,5,_tunecore_Remastered_Guitar,0.026673704385757446,0
61,100,0.35909090909090907,369,0,3,_tunecore_Remastered_Guitar,6,6,_tunecore_Remastered_Guitar,0.018588099628686905,0
64,100,0.2,458,0,3,_tunecore_Remastered_Guitar,6,3,_tunecore_Remastered_Guitar,0.013414617627859116,0
68,100,0.17727272727272728,537,0,3,_tunecore_Remastered_Guitar,6,3,_tunecore_Remastered_Guitar,0.010587378405034542,0
66,100,0.2590909090909091,593,0,3,_tunecore_Remastered_Guitar,6,4,_tunecore_Remastered_Guitar,0.009840109385550022,0
64,100,0.23636363636363636,656,0,3,_tunecore_Remastered_Guitar,6,4,_tunecore_Remastered_Guitar,0.011417633853852749,0
61,100,0.2636363636363636,708,0,3,_tunecore_Remastered_Guitar,6,4,_tunecore_Remastered_Guitar,0.016512280330061913,0
57,100,0.13636363636363635,810,0,3,_tunecore_Remastered_Guitar,6,2,_tunecore_Remastered_Guitar,0.02681853249669075,0
66,100,0.8181818181818182,853,0,3,_tunecore_Remastered_Guitar,6,13,_tunecore_Remastered_Guitar,0.053917672485113144,0
66,100,0.7,158,1,4,_tunecore_Remastered_Guitar,6,11,_tunecore_Remastered_Guitar,0.9990230798721313,1
64,100,1.2636363636363637,334,0,4,_tunecore_Remastered_Guitar,6,15,_tunecore_Remastered_Guitar,0.3666214346885681,0
63,100,0.1409090909090909,836,1,4,_tunecore_Remastered_Guitar,6,2,_tunecore_Remastered_Guitar,0.4532902240753174,0
64,100,0.12272727272727273,135,1,5,_tunecore_Remastered_Guitar,6,2,_tunecore_Remastered_Guitar,0.9990229606628418,1
52,100,0.740909090909091,163,0,5,_tunecore_Remastered_Guitar,6,12,_tunecore_Remastered_Guitar,0.36662158370018005,0
61,100,0.4590909090909091,854,1,5,_tunecore_Remastered_Guitar,6,7,_tunecore_Remastered_Guitar,0.45329469442367554,0
64,100,0.1409090909090909,74,1,6,_tunecore_Remastered_Guitar,6,2,_tunecore_Remastered_Guitar,0.9984880685806274,1
64,100,0.42272727272727273,145,0,6,_tunecore_Remastered_Guitar,6,7,_tunecore_Remastered_Guitar,0.06334426999092102,0
61,100,0.1,550,1,6,_tunecore_Remastered_Guitar,6,2,_tunecore_Remastered_Guitar,0.057741083204746246,0
61,100,0.1,598,0,6,_tunecore_Remastered_Guitar,6,2,_tunecore_Remastered_Guitar,0.06020355224609375,0
61,100,0.2,721,0,6,_tunecore_Remastered_Guitar,6,3,_tunecore_Remastered_Guitar,0.06970413029193878,0
57,100,0.1409090909090909,826,0,6,_tunecore_Remastered_Guitar,6,2,_tunecore_Remastered_Guitar,0.08189592510461807,0
61,100,0.3409090909090909,871,0,6,_tunecore_Remastered_Guitar,6,5,_tunecore_Remastered_Guitar,0.1240258440375328,0
63,100,0.4,220,1,7,_tunecore_Remastered_Guitar,6,6,_tunecore_Remastered_Guitar,0.9990229606628418,1
52,100,0.6363636363636364,634,1,7,_tunecore_Remastered_Guitar,6,10,_tunecore_Remastered_Guitar,0.36662280559539795,0
52,100,0.22272727272727272,818,0,7,_tunecore_Remastered_Guitar,6,4,_tunecore_Remastered_Guitar,0.4532991945743561,0
68,100,0.2409090909090909,110,1,8,_tunecore_Remastered_Guitar,6,4,_tunecore_Remastered_Guitar,0.9990229606628418,1
64,100,0.2590909090909091,462,1,8,_tunecore_Remastered_Guitar,6,4,_tunecore_Remastered_Guitar,0.36662232875823975,0
64,100,0.1590909090909091,558,0,8,_tunecore_Remastered_Guitar,6,3,_tunecore_Remastered_Guitar,0.45328837633132935,0
61,100,0.1590909090909091,194,1,9,_tunecore_Remastered_Guitar,6,3,_tunecore_Remastered_Guitar,0.9990057349205017,1
64,100,0.1,369,0,9,_tunecore_Remastered_Guitar,6,2,_tunecore_Remastered_Guitar,0.23120573163032532,0
59,100,0.11818181818181818,527,0,9,_tunecore_Remastered_Guitar,6,2,_tunecore_Remastered_Guitar,0.26592057943344116,0
63,100,0.2590909090909091,677,0,9,_tunecore_Remastered_Guitar,6,4,_tunecore_Remastered_Guitar,0.354200541973114,0
52,100,0.5818181818181818,245,1,10,_tunecore_Remastered_Guitar,6,9,_tunecore_Remastered_Guitar,0.9792566299438477,0
61,100,0.5,65,1,11,_tunecore_Remastered_Guitar,6,8,_tunecore_Remastered_Guitar,0.9990057349205017,1
61,100,0.42272727272727273,343,1,11,_tunecore_Remastered_Guitar,6,7,_tunecore_Remastered_Guitar,0.23120659589767456,0
61,100,0.36363636363636365,663,1,11,_tunecore_Remastered_Guitar,6,6,_tunecore_Remastered_Guitar,0.2659249007701874,0
57,100,0.2,849,0,11,_tunecore_Remastered_Guitar,6,3,_tunecore_Remastered_Guitar,0.3541972041130066,0
57,100,0.1409090909090909,48,1,12,_tunecore_Remastered_Guitar,6,2,_tunecore_Remastered_Guitar,0.9988419413566589,1
61,100,0.12272727272727273,135,0,12,_tunecore_Remastered_Guitar,6,2,_tunecore_Remastered_Guitar,0.13724879920482635,0
59,100,0.11818181818181818,307,0,12,_tunecore_Remastered_Guitar,6,2,_tunecore_Remastered_Guitar,0.15977826714515686,0
63,100,0.2,378,0,12,_tunecore_Remastered_Guitar,6,3,_tunecore_Remastered_Guitar,0.18644310534000397,0
52,100,0.6,730,1,12,_tunecore_Remastered_Guitar,6,10,_tunecore_Remastered_Guitar,0.25816667079925537,0
52,100,0.12272727272727273,48,1,13,_tunecore_Remastered_Guitar,6,2,_tunecore_Remastered_Guitar,0.9986500144004822,1
52,100,0.1409090909090909,285,1,13,_tunecore_Remastered_Guitar,6,2,_tunecore_Remastered_Guitar,0.08780331164598465,0
61,100,0.18181818181818182,615,1,13,_tunecore_Remastered_Guitar,6,3,_tunecore_Remastered_Guitar,0.09181410074234009,0
64,100,0.2818181818181818,716,0,13,_tunecore_Remastered_Guitar,6,5,_tunecore_Remastered_Guitar,0.10747882723808289,0
61,100,0.1,787,0,13,_tunecore_Remastered_Guitar,6,2,_tunecore_Remastered_Guitar,0.12482814490795135,0
61,100,0.12272727272727273,840,0,13,_tunecore_Remastered_Guitar,6,2,_tunecore_Remastered_Guitar,0.17903923988342285,0
61,100,0.3181818181818182,295,1,14,_tunecore_Remastered_Guitar,6,5,_tunecore_Remastered_Guitar,0.9988419413566589,1
61,100,0.3409090909090909,395,0,14,_tunecore_Remastered_Guitar,6,5,_tunecore_Remastered_Guitar,0.13724790513515472,0
64,100,0.1,470,0,14,_tunecore_Remastered_Guitar,6,2,_tunecore_Remastered_Guitar,0.15977826714515686,0
57,100,0.2590909090909091,519,0,14,_tunecore_Remastered_Guitar,6,4,_tunecore_Remastered_Guitar,0.18644917011260986,0
63,100,0.32272727272727275,840,1,14,_tunecore_Remastered_Guitar,6,5,_tunecore_Remastered_Guitar,0.25817158818244934,0
59,100,0.18181818181818182,276,1,15,_tunecore_Remastered_Guitar,6,3,_tunecore_Remastered_Guitar,0.9986500144004822,1
57,100,0.2,426,0,15,_tunecore_Remastered_Guitar,6,3,_tunecore_Remastered_Guitar,0.0878022089600563,0
61,100,0.4409090909090909,510,0,15,_tunecore_Remastered_Guitar,6,7,_tunecore_Remastered_Guitar,0.09181337058544159,0
61,100,0.2,656,0,15,_tunecore_Remastered_Guitar,6,3,_tunecore_Remastered_Guitar,0.10747991502285004,0
57,100,0.16363636363636364,773,0,15,_tunecore_Remastered_Guitar,6,3,_tunecore_Remastered_Guitar,0.12482946366071701,0
61,100,0.21818181818181817,823,0,15,_tunecore_Remastered_Guitar,6,3,_tunecore_Remastered_Guitar,0.17904172837734222,0
59,100,0.1409090909090909,3,1,16,_tunecore_Remastered_Guitar,6,2,_tunecore_Remastered_Guitar,0.9986500144004822,1
63,100,0.6772727272727272,61,0,16,_tunecore_Remastered_Guitar,6,11,_tunecore_Remastered_Guitar,0.08780144900083542,0
64,100,0.3181818181818182,505,1,16,_tunecore_Remastered_Guitar,6,5,_tunecore_Remastered_Guitar,0.09181565791368484,0
57,100,0.5818181818181818,584,0,16,_tunecore_Remastered_Guitar,6,9,_tunecore_Remastered_Guitar,0.10748078674077988,0
57,100,0.2,721,0,16,_tunecore_Remastered_Guitar,6,3,_tunecore_Remastered_Guitar,0.1248321682214737,0
61,100,0.35909090909090907,783,0,16,_tunecore_Remastered_Guitar,6,6,_tunecore_Remastered_Guitar,0.1790345460176468,0
57,100,0.6,0,1,17,_tunecore_Remastered_Guitar,6,10,_tunecore_Remastered_Guitar,0.9990057349205017,1
61,100,0.41818181818181815,405,1,17,_tunecore_Remastered_Guitar,6,7,_tunecore_Remastered_Guitar,0.2312055230140686,0
61,100,0.2,686,1,17,_tunecore_Remastered_Guitar,6,3,_tunecore_Remastered_Guitar,0.2659212052822113,0
52,100,0.6181818181818182,831,0,17,_tunecore_Remastered_Guitar,6,10,_tunecore_Remastered_Guitar,0.3542030453681946,0
52,100,0.32272727272727275,233,1,18,_tunecore_Remastered_Guitar,6,5,_tunecore_Remastered_Guitar,0.9990229606628418,1
52,100,0.21818181818181817,316,0,18,_tunecore_Remastered_Guitar,6,3,_tunecore_Remastered_Guitar,0.3666214048862457,0
52,100,0.1409090909090909,440,0,18,_tunecore_Remastered_Guitar,6,2,_tunecore_Remastered_Guitar,0.453300803899765,0
59,100,0.22272727272727272,69,1,19,_tunecore_Remastered_Guitar,6,4,_tunecore_Remastered_Guitar,0.9988419413566589,1
57,100,0.21818181818181817,193,0,19,_tunecore_Remastered_Guitar,6,3,_tunecore_Remastered_Guitar,0.13724690675735474,0
57,100,0.35909090909090907,382,0,19,_tunecore_Remastered_Guitar,6,6,_tunecore_Remastered_Guitar,0.15977634489536285,0
57,100,0.6,470,0,19,_tunecore_Remastered_Guitar,6,10,_tunecore_Remastered_Guitar,0.18644395470619202,0
61,100,0.2590909090909091,677,0,19,_tunecore_Remastered_Guitar,6,4,_tunecore_Remastered_Guitar,0.2581643760204315,0
61,100,0.5,9,1,20,_tunecore_Remastered_Guitar,6,8,_tunecore_Remastered_Guitar,0.9988419413566589,1
61,100,0.13636363636363635,150,0,20,_tunecore_Remastered_Guitar,6,2,_tunecore_Remastered_Guitar,0.13724765181541443,0
52,100,0.6590909090909091,449,1,20,_tunecore_Remastered_Guitar,6,11,_tunecore_Remastered_Guitar,0.15977491438388824,0
52,100,0.1409090909090909,814,1,20,_tunecore_Remastered_Guitar,6,2,_tunecore_Remastered_Guitar,0.1864502727985382,0
52,100,0.42272727272727273,862,0,20,_tunecore_Remastered_Guitar,6,7,_tunecore_Remastered_Guitar,0.258175790309906,0
59,100,0.1,113,1,21,_tunecore_Remastered_Guitar,6,2,_tunecore_Remastered_Guitar,0.9990057349205017,1
63,100,0.22272727272727272,584,1,21,_tunecore_Remastered_Guitar,6,4,_tunecore_Remastered_Guitar,0.23121093213558197,0
57,100,0.5818181818181818,681,0,21,_tunecore_Remastered_Guitar,6,9,_tunecore_Remastered_Guitar,0.26592883467674255,0
61,100,0.3181818181818182,831,0,21,_tunecore_Remastered_Guitar,6,5,_tunecore_Remastered_Guitar,0.3542061150074005,0
57,100,0.32272727272727275,69,1,22,_tunecore_Remastered_Guitar,6,5,_tunecore_Remastered_Guitar,0.9990229606628418,1
57,100,0.6818181818181818,144,0,22,_tunecore_Remastered_Guitar,6,11,_tunecore_Remastered_Guitar,0.3666262626647949,0
61,100,0.2409090909090909,509,1,22,_tunecore_Remastered_Guitar,6,4,_tunecore_Remastered_Guitar,0.4532914459705353,0
59,100,0.1409090909090909,110,1,23,_tunecore_Remastered_Guitar,6,2,_tunecore_Remastered_Guitar,0.9988419413566589,1
63,100,0.13636363636363635,237,0,23,_tunecore_Remastered_Guitar,6,2,_tunecore_Remastered_Guitar,0.13724690675735474,0
59,100,0.2772727272727273,405,0,23,_tunecore_Remastered_Guitar,6,4,_tunecore_Remastered_Guitar,0.1597847193479538,0
63,100,0.5181818181818182,546,0,23,_tunecore_Remastered_Guitar,6,8,_tunecore_Remastered_Guitar,0.18644574284553528,0
59,100,0.11818181818181818,866,1,23,_tunecore_Remastered_Guitar,6,2,_tunecore_Remastered_Guitar,0.2581723928451538,0
61,100,0.21818181818181817,480,1,24,_tunecore_Remastered_Guitar,6,3,_tunecore_Remastered_Guitar,0.9990229606628418,1
57,100,0.22272727272727272,576,0,24,_tunecore_Remastered_Guitar,6,4,_tunecore_Remastered_Guitar,0.3666210472583771,0
64,100,0.2,862,1,24,_tunecore_Remastered_Guitar,6,3,_tunecore_Remastered_Guitar,0.4532967507839203,0
61,100,0.17727272727272728,52,1,25,_tunecore_Remastered_Guitar,6,3,_tunecore_Remastered_Guitar,0.9983736276626587,1
64,100,0.4409090909090909,100,0,25,_tunecore_Remastered_Guitar,6,7,_tunecore_Remastered_Guitar,0.051061779260635376,0
61,100,0.3,220,0,25,_tunecore_Remastered_Guitar,6,5,_tunecore_Remastered_Guitar,0.041303303092718124,0
61,100,0.4,289,0,25,_tunecore_Remastered_Guitar,6,6,_tunecore_Remastered_Guitar,0.037386100739240646,0
61,100,0.16363636363636364,488,0,25,_tunecore_Remastered_Guitar,6,3,_tunecore_Remastered_Guitar,0.03832966461777687,0
52,100,0.17727272727272728,633,0,25,_tunecore_Remastered_Guitar,6,3,_tunecore_Remastered_Guitar,0.04475236311554909,0
52,100,0.1590909090909091,760,0,25,_tunecore_Remastered_Guitar,6,3,_tunecore_Remastered_Guitar,0.055229730904102325,0
59,100,0.17727272727272728,801,0,25,_tunecore_Remastered_Guitar,6,3,_tunecore_Remastered_Guitar,0.09026443213224411,0
52,100,0.1,34,1,26,_tunecore_Remastered_Guitar,6,2,_tunecore_Remastered_Guitar,0.9990058541297913,1
63,100,0.2818181818181818,285,1,26,_tunecore_Remastered_Guitar,6,5,_tunecore_Remastered_Guitar,0.23120766878128052,0
63,100,0.3409090909090909,694,1,26,_tunecore_Remastered_Guitar,6,5,_tunecore_Remastered_Guitar,0.26593637466430664,0
57,100,0.21818181818181817,858,0,26,_tunecore_Remastered_Guitar,6,3,_tunecore_Remastered_Guitar,0.3542008399963379,0
57,100,0.2,30,1,27,_tunecore_Remastered_Guitar,6,3,_tunecore_Remastered_Guitar,0.9983004927635193,1
57,100,0.1590909090909091,79,0,27,_tunecore_Remastered_Guitar,6,3,_tunecore_Remastered_Guitar,0.04466428980231285,0
57,100,0.1,127,0,27,_tunecore_Remastered_Guitar,6,2,_tunecore_Remastered_Guitar,0.03315000236034393,0
57,100,0.4590909090909091,198,0,27,_tunecore_Remastered_Guitar,6,7,_tunecore_Remastered_Guitar,0.02658117562532425,0
64,100,0.5181818181818182,461,1,27,_tunecore_Remastered_Guitar,6,8,_tunecore_Remastered_Guitar,0.023595480248332024,0
64,100,0.2,598,0,27,_tunecore_Remastered_Guitar,6,3,_tunecore_Remastered_Guitar,0.024315353482961655,0
64,100,0.11818181818181818,677,0,27,_tunecore_Remastered_Guitar,6,2,_tunecore_Remastered_Guitar,0.02969069592654705,0
61,100,0.38181818181818183,704,0,27,_tunecore_Remastered_Guitar,6,6,_tunecore_Remastered_Guitar,0.04007808491587639,0
61,100,0.38181818181818183,791,0,27,_tunecore_Remastered_Guitar,6,6,_tunecore_Remastered_Guitar,0.07093068957328796,0
52,100,0.2,154,1,28,_tunecore_Remastered_Guitar,6,3,_tunecore_Remastered_Guitar,0.9984880685806274,1
52,100,0.3,206,0,28,_tunecore_Remastered_Guitar,6,5,_tunecore_Remastered_Guitar,0.06334585696458817,0
52,100,0.11818181818181818,281,0,28,_tunecore_Remastered_Guitar,6,2,_tunecore_Remastered_Guitar,0.05774228647351265,0
52,100,0.5409090909090909,430,0,28,_tunecore_Remastered_Guitar,6,9,_tunecore_Remastered_Guitar,0.060203034430742264,0
59,100,0.12272727272727273,553,0,28,_tunecore_Remastered_Guitar,6,2,_tunecore_Remastered_Guitar,0.06970574706792831,0
59,100,0.11818181818181818,646,0,28,_tunecore_Remastered_Guitar,6,2,_tunecore_Remastered_Guitar,0.08189637213945389,0
59,100,0.11818181818181818,835,0,28,_tunecore_Remastered_Guitar,6,2,_tunecore_Remastered_Guitar,0.12402518093585968,0
59,100,0.1,210,1,29,_tunecore_Remastered_Guitar,6,2,_tunecore_Remastered_Guitar,0.9990057349205017,1
52,100,0.7227272727272728,364,0,29,_tunecore_Remastered_Guitar,6,12,_tunecore_Remastered_Guitar,0.23119604587554932,0
52,100,0.5818181818181818,576,0,29,_tunecore_Remastered_Guitar,6,9,_tunecore_Remastered_Guitar,0.2659209072589874,0
52,100,0.2636363636363636,818,1,29,_tunecore_Remastered_Guitar,6,4,_tunecore_Remastered_Guitar,0.3541983962059021,0
64,100,0.23636363636363636,281,1,30,_tunecore_Remastered_Guitar,6,4,_tunecore_Remastered_Guitar,0.9990229606628418,1
61,100,0.37727272727272726,515,1,30,_tunecore_Remastered_Guitar,6,6,_tunecore_Remastered_Guitar,0.36661970615386963,0
61,100,0.1,822,1,30,_tunecore_Remastered_Guitar,6,2,_tunecore_Remastered_Guitar,0.45328518748283386,0
71,100,0.11818181818181818,30,1,31,_tunecore_Remastered_Guitar,6,2,_tunecore_Remastered_Guitar,0.9983736276626587,1
52,100,0.22272727272727272,179,0,31,_tunecore_Remastered_Guitar,6,4,_tunecore_Remastered_Guitar,0.05106078460812569,0
52,100,0.1590909090909091,260,0,31,_tunecore_Remastered_Guitar,6,3,_tunecore_Remastered_Guitar,0.04130318760871887,0
59,100,0.12272727272727273,453,0,31,_tunecore_Remastered_Guitar,6,2,_tunecore_Remastered_Guitar,0.03738730773329735,0
63,100,0.2590909090909091,646,0,31,_tunecore_Remastered_Guitar,6,4,_tunecore_Remastered_Guitar,0.0383296012878418,0
54,100,0.12272727272727273,739,0,31,_tunecore_Remastered_Guitar,6,2,_tunecore_Remastered_Guitar,0.0447549968957901,0
59,100,0.16363636363636364,818,0,31,_tunecore_Remastered_Guitar,6,3,_tunecore_Remastered_Guitar,0.05523102730512619,0
52,100,0.8409090909090909,862,0,31,_tunecore_Remastered_Guitar,6,13,_tunecore_Remastered_Guitar,0.09026940166950226,0
68,100,0.13636363636363635,281,1,32,_tunecore_Remastered_Guitar,6,2,_tunecore_Remastered_Guitar,0.9990057349205017,1
59,100,0.16363636363636364,421,0,32,_tunecore_Remastered_Guitar,6,3,_tunecore_Remastered_Guitar,0.23120000958442688,0
59,100,0.11818181818181818,506,0,32,_tunecore_Remastered_Guitar,6,2,_tunecore_Remastered_Guitar,0.26591259241104126,0
64,100,0.2,778,1,32,_tunecore_Remastered_Guitar,6,3,_tunecore_Remastered_Guitar,0.35419026017189026,0
61,100,0.4772727272727273,105,1,33,_tunecore_Remastered_Guitar,6,8,_tunecore_Remastered_Guitar,0.9986500144004822,1
64,100,0.1590909090909091,211,0,33,_tunecore_Remastered_Guitar,6,3,_tunecore_Remastered_Guitar,0.0878046452999115,0
64,100,0.3409090909090909,268,0,33,_tunecore_Remastered_Guitar,6,5,_tunecore_Remastered_Guitar,0.09181851893663406,0
61,100,0.1409090909090909,351,0,33,_tunecore_Remastered_Guitar,6,2,_tunecore_Remastered_Guitar,0.10748261213302612,0
68,100,0.17727272727272728,448,0,33,_tunecore_Remastered_Guitar,6,3,_tunecore_Remastered_Guitar,0.12483591586351395,0
68,100,0.5,509,0,33,_tunecore_Remastered_Guitar,6,8,_tunecore_Remastered_Guitar,0.17904098331928253,0
52,100,0.6590909090909091,461,1,34,_tunecore_Remastered_Guitar,6,11,_tunecore_Remastered_Guitar,0.9792565107345581,0
61,100,0.12272727272727273,364,1,35,_tunecore_Remastered_Guitar,6,2,_tunecore_Remastered_Guitar,0.9988419413566589,1
64,100,0.16363636363636364,399,0,35,_tunecore_Remastered_Guitar,6,3,_tunecore_Remastered_Guitar,0.137247696518898,0
64,100,0.1409090909090909,474,0,35,_tunecore_Remastered_Guitar,6,2,_tunecore_Remastered_Guitar,0.1597755253314972,0
61,100,0.2,641,0,35,_tunecore_Remastered_Guitar,6,3,_tunecore_Remastered_Guitar,0.1864451766014099,0
52,100,0.2590909090909091,866,0,35,_tunecore_Remastered_Guitar,6,4,_tunecore_Remastered_Guitar,0.25817492604255676,0
52,100,0.5227272727272727,268,1,36,_tunecore_Remastered_Guitar,6,8,_tunecore_Remastered_Guitar,0.9990229606628418,1
59,100,0.1590909090909091,545,1,36,_tunecore_Remastered_Guitar,6,3,_tunecore_Remastered_Guitar,0.36661845445632935,0
59,100,0.32272727272727275,606,0,36,_tunecore_Remastered_Guitar,6,5,_tunecore_Remastered_Guitar,0.4532901644706726,0
52,100,0.6181818181818182,75,1,37,_tunecore_Remastered_Guitar,6,10,_tunecore_Remastered_Guitar,0.9990229606628418,1
61,100,0.1409090909090909,708,1,37,_tunecore_Remastered_Guitar,6,2,_tunecore_Remastered_Guitar,0.36662036180496216,0
61,100,0.2590909090909091,791,0,37,_tunecore_Remastered_Guitar,6,4,_tunecore_Remastered_Guitar,0.45328590273857117,0
64,100,0.1409090909090909,0,1,38,_tunecore_Remastered_Guitar,6,2,_tunecore_Remastered_Guitar,0.9983003735542297,1
61,100,0.18181818181818182,56,0,38,_tunecore_Remastered_Guitar,6,3,_tunecore_Remastered_Guitar,0.044663816690444946,0
64,100,0.12272727272727273,123,0,38,_tunecore_Remastered_Guitar,6,2,_tunecore_Remastered_Guitar,0.03315000981092453,0
61,100,0.3,215,0,38,_tunecore_Remastered_Guitar,6,5,_tunecore_Remastered_Guitar,0.02657998912036419,0
64,100,0.17727272727272728,281,0,38,_tunecore_Remastered_Guitar,6,3,_tunecore_Remastered_Guitar,0.023596296086907387,0
57,100,0.3,330,0,38,_tunecore_Remastered_Guitar,6,5,_tunecore_Remastered_Guitar,0.024315455928444862,0
57,100,0.1,471,0,38,_tunecore_Remastered_Guitar,6,2,_tunecore_Remastered_Guitar,0.029691383242607117,0
61,100,0.23636363636363636,765,1,38,_tunecore_Remastered_Guitar,6,4,_tunecore_Remastered_Guitar,0.040078599005937576,0
52,100,0.17727272727272728,831,0,38,_tunecore_Remastered_Guitar,6,3,_tunecore_Remastered_Guitar,0.07093184441328049,0
59,100,0.5818181818181818,136,1,39,_tunecore_Remastered_Guitar,6,9,_tunecore_Remastered_Guitar,0.9984880685806274,1
59,100,0.13636363636363635,281,0,39,_tunecore_Remastered_Guitar,6,2,_tunecore_Remastered_Guitar,0.0633465051651001,0
63,100,0.1590909090909091,321,0,39,_tunecore_Remastered_Guitar,6,3,_tunecore_Remastered_Guitar,0.05774307996034622,0
57,100,0.17727272727272728,700,1,39,_tunecore_Remastered_Guitar,6,3,_tunecore_Remastered_Guitar,0.06020498275756836,0
57,100,0.12272727272727273,751,0,39,_tunecore_Remastered_Guitar,6,2,_tunecore_Remastered_Guitar,0.06970645487308502,0
52,100,0.2409090909090909,778,0,39,_tunecore_Remastered_Guitar,6,4,_tunecore_Remastered_Guitar,0.08190062642097473,0
64,100,0.6818181818181818,839,0,39,_tunecore_Remastered_Guitar,6,11,_tunecore_Remastered_Guitar,0.12402678281068802,0
52,100,0.11818181818181818,150,1,40,_tunecore_Remastered_Guitar,6,2,_tunecore_Remastered_Guitar,0.9984880685806274,1
64,100,0.9,188,0,40,_tunecore_Remastered_Guitar,6,14,_tunecore_Remastered_Guitar,0.06334410607814789,0
61,100,0.11818181818181818,391,0,40,_tunecore_Remastered_Guitar,6,2,_tunecore_Remastered_Guitar,0.057741928845644,0
61,100,0.3,431,0,40,_tunecore_Remastered_Guitar,6,5,_tunecore_Remastered_Guitar,0.060201749205589294,0
61,100,0.5227272727272727,541,0,40,_tunecore_Remastered_Guitar,6,8,_tunecore_Remastered_Guitar,0.06970228254795074,0
61,100,0.5772727272727273,668,0,40,_tunecore_Remastered_Guitar,6,9,_tunecore_Remastered_Guitar,0.08189348876476288,0
52,100,0.7,801,0,40,_tunecore_Remastered_Guitar,6,11,_tunecore_Remastered_Guitar,0.1240248754620552,0
64,100,0.6227272727272727,201,1,41,_tunecore_Remastered_Guitar,6,10,_tunecore_Remastered_Guitar,0.9990057349205017,1
64,100,0.13636363636363635,458,1,41,_tunecore_Remastered_Guitar,6,2,_tunecore_Remastered_Guitar,0.23120664060115814,0
63,100,1.040909090909091,628,0,41,_tunecore_Remastered_Guitar,6,15,_tunecore_Remastered_Guitar,0.265915185213089,0
64,100,0.1590909090909091,858,0,41,_tunecore_Remastered_Guitar,6,3,_tunecore_Remastered_Guitar,0.35420382022857666,0
59,100,0.2409090909090909,26,1,42,_tunecore_Remastered_Guitar,6,4,_tunecore_Remastered_Guitar,0.9990057349205017,1
59,100,0.4818181818181818,91,0,42,_tunecore_Remastered_Guitar,6,8,_tunecore_Remastered_Guitar,0.2311977744102478,0
61,100,0.2,370,1,42,_tunecore_Remastered_Guitar,6,3,_tunecore_Remastered_Guitar,0.2659180164337158,0
64,100,0.32272727272727275,796,1,42,_tunecore_Remastered_Guitar,6,5,_tunecore_Remastered_Guitar,0.3541964590549469,0
66,100,0.37727272727272726,413,1,43,_tunecore_Remastered_Guitar,6,6,_tunecore_Remastered_Guitar,0.9990057349205017,1
68,100,0.4590909090909091,584,0,43,_tunecore_Remastered_Guitar,6,7,_tunecore_Remastered_Guitar,0.23119956254959106,0
59,100,0.1,801,0,43,_tunecore_Remastered_Guitar,6,2,_tunecore_Remastered_Guitar,0.2659187614917755,0
52,100,0.6181818181818182,836,0,43,_tunecore_Remastered_Guitar,6,10,_tunecore_Remastered_Guitar,0.3541959226131439,0
59,100,0.3,171,1,44,_tunecore_Remastered_Guitar,6,5,_tunecore_Remastered_Guitar,0.9988419413566589,1
61,100,0.5590909090909091,241,0,44,_tunecore_Remastered_Guitar,6,9,_tunecore_Remastered_Guitar,0.13724790513515472,0
64,100,0.4818181818181818,373,0,44,_tunecore_Remastered_Guitar,6,8,_tunecore_Remastered_Guitar,0.1597803235054016,0
66,100,0.4818181818181818,509,0,44,_tunecore_Remastered_Guitar,6,8,_tunecore_Remastered_Guitar,0.1864510029554367,0
66,100,0.9636363636363636,664,0,44,_tunecore_Remastered_Guitar,6,15,_tunecore_Remastered_Guitar,0.25816935300827026,0
64,100,0.4772727272727273,185,1,45,_tunecore_Remastered_Guitar,6,8,_tunecore_Remastered_Guitar,0.9983736276626587,1
61,100,0.17727272727272728,295,0,45,_tunecore_Remastered_Guitar,6,3,_tunecore_Remastered_Guitar,0.0510602630674839,0
59,100,0.16363636363636364,334,0,45,_tunecore_Remastered_Guitar,6,3,_tunecore_Remastered_Guitar,0.041303057223558426,0
59,100,0.1409090909090909,373,0,45,_tunecore_Remastered_Guitar,6,2,_tunecore_Remastered_Guitar,0.037386346608400345,0
59,100,1.2818181818181817,418,0,45,_tunecore_Remastered_Guitar,6,15,_tunecore_Remastered_Guitar,0.03832807391881943,0
64,100,0.2590909090909091,700,1,45,_tunecore_Remastered_Guitar,6,4,_tunecore_Remastered_Guitar,0.04475187882781029,0
61,100,0.23636363636363636,765,0,45,_tunecore_Remastered_Guitar,6,4,_tunecore_Remastered_Guitar,0.05522790551185608,0
64,100,0.2590909090909091,836,0,45,_tunecore_Remastered_Guitar,6,4,_tunecore_Remastered_Guitar,0.09026693552732468,0
59,100,0.3181818181818182,370,1,46,_tunecore_Remastered_Guitar,6,5,_tunecore_Remastered_Guitar,0.9990057349205017,1
61,100,0.3,440,0,46,_tunecore_Remastered_Guitar,6,5,_tunecore_Remastered_Guitar,0.23120883107185364,0
64,100,0.21818181818181817,528,0,46,_tunecore_Remastered_Guitar,6,3,_tunecore_Remastered_Guitar,0.2659308612346649,0
61,100,0.42272727272727273,716,0,46,_tunecore_Remastered_Guitar,6,7,_tunecore_Remastered_Guitar,0.3542001247406006,0
68,100,0.18181818181818182,4,1,47,_tunecore_Remastered_Guitar,6,3,_tunecore_Remastered_Guitar,0.9986500144004822,1
66,100,0.2590909090909091,56,0,47,_tunecore_Remastered_Guitar,6,4,_tunecore_Remastered_Guitar,0.08780612051486969,0
64,100,0.7772727272727272,141,0,47,_tunecore_Remastered_Guitar,6,12,_tunecore_Remastered_Guitar,0.09181676059961319,0
66,100,1.6,316,0,47,_tunecore_Remastered_Guitar,6,15,_tunecore_Remastered_Guitar,0.1074785366654396,0
64,100,0.6409090909090909,673,1,47,_tunecore_Remastered_Guitar,6,10,_tunecore_Remastered_Guitar,0.12483246624469757,0
63,100,0.22272727272727272,839,0,47,_tunecore_Remastered_Guitar,6,4,_tunecore_Remastered_Guitar,0.17903254926204681,0
64,100,1.9,75,1,48,_tunecore_Remastered_Guitar,6,15,_tunecore_Remastered_Guitar,0.9983164072036743,1
52,100,0.740909090909091,493,1,48,_tunecore_Remastered_Guitar,6,12,_tunecore_Remastered_Guitar,0.544562816619873,0
52,100,0.21818181818181817,96,1,49,_tunecore_Remastered_Guitar,6,3,_tunecore_Remastered_Guitar,0.9990057349205017,1
61,100,0.1590909090909091,351,1,49,_tunecore_Remastered_Guitar,6,3,_tunecore_Remastered_Guitar,0.2312009334564209,0
61,100,0.11818181818181818,506,0,49,_tunecore_Remastered_Guitar,6,2,_tunecore_Remastered_Guitar,0.2659198045730591,0
61,100,0.5227272727272727,598,0,49,_tunecore_Remastered_Guitar,6,8,_tunecore_Remastered_Guitar,0.35419589281082153,0
64,100,0.2,185,1,50,_tunecore_Remastered_Guitar,6,3,_tunecore_Remastered_Guitar,0.9990057349205017,1
52,100,0.13636363636363635,348,0,50,_tunecore_Remastered_Guitar,6,2,_tunecore_Remastered_Guitar,0.23120272159576416,0
59,100,0.1,421,0,50,_tunecore_Remastered_Guitar,6,2,_tunecore_Remastered_Guitar,0.26592206954956055,0
59,100,0.11818181818181818,558,0,50,_tunecore_Remastered_Guitar,6,2,_tunecore_Remastered_Guitar,0.35419797897338867,0
52,100,0.740909090909091,110,1,51,_tunecore_Remastered_Guitar,6,12,_tunecore_Remastered_Guitar,0.9983165264129639,1
52,100,0.2772727272727273,458,1,51,_tunecore_Remastered_Guitar,6,4,_tunecore_Remastered_Guitar,0.5445582270622253,0
61,100,0.41818181818181815,198,1,52,_tunecore_Remastered_Guitar,6,7,_tunecore_Remastered_Guitar,0.9988419413566589,1
57,100,0.33636363636363636,370,0,52,_tunecore_Remastered_Guitar,6,5,_tunecore_Remastered_Guitar,0.13724979758262634,0
52,100,0.1590909090909091,448,0,52,_tunecore_Remastered_Guitar,6,3,_tunecore_Remastered_Guitar,0.1597830057144165,0
52,100,0.21818181818181817,581,0,52,_tunecore_Remastered_Guitar,6,3,_tunecore_Remastered_Guitar,0.18645578622817993,0
59,100,0.2,651,0,52,_tunecore_Remastered_Guitar,6,3,_tunecore_Remastered_Guitar,0.25817734003067017,0
59,100,0.1409090909090909,176,1,53,_tunecore_Remastered_Guitar,6,2,_tunecore_Remastered_Guitar,0.9990057349205017,1
59,100,0.35909090909090907,238,0,53,_tunecore_Remastered_Guitar,6,6,_tunecore_Remastered_Guitar,0.23119938373565674,0
59,100,0.16363636363636364,554,1,53,_tunecore_Remastered_Guitar,6,3,_tunecore_Remastered_Guitar,0.26591894030570984,0
52,100,0.3,818,1,53,_tunecore_Remastered_Guitar,6,5,_tunecore_Remastered_Guitar,0.3542020916938782,0
52,100,0.2,88,1,54,_tunecore_Remastered_Guitar,6,3,_tunecore_Remastered_Guitar,0.9988419413566589,1
61,100,0.17727272727272728,141,0,54,_tunecore_Remastered_Guitar,6,3,_tunecore_Remastered_Guitar,0.13724443316459656,0
52,100,0.22272727272727272,201,0,54,_tunecore_Remastered_Guitar,6,4,_tunecore_Remastered_Guitar,0.1597815901041031,0
54,100,0.4,276,0,54,_tunecore_Remastered_Guitar,6,6,_tunecore_Remastered_Guitar,0.18645060062408447,0
54,100,0.2409090909090909,761,1,54,_tunecore_Remastered_Guitar,6,4,_tunecore_Remastered_Guitar,0.2581682801246643,0
52,100,0.12272727272727273,56,1,55,_tunecore_Remastered_Guitar,6,2,_tunecore_Remastered_Guitar,0.9983165264129639,1
57,100,0.1409090909090909,628,1,55,_tunecore_Remastered_Guitar,6,2,_tunecore_Remastered_Guitar,0.5445562601089478,0
54,100,0.2,158,1,56,_tunecore_Remastered_Guitar,6,3,_tunecore_Remastered_Guitar,0.9792571067810059,0
57,100,0.3,593,1,57,_tunecore_Remastered_Guitar,6,5,_tunecore_Remastered_Guitar,0.9983164072036743,1
54,100,0.23636363636363636,875,1,57,_tunecore_Remastered_Guitar,6,4,_tunecore_Remastered_Guitar,0.5445612668991089,0
61,100,0.4590909090909091,823,1,58,_tunecore_Remastered_Guitar,6,7,_tunecore_Remastered_Guitar,0.9792559146881104,0
68,100,0.1409090909090909,118,1,59,_tunecore_Remastered_Guitar,6,2,_tunecore_Remastered_Guitar,0.9983736276626587,1
66,100,0.21818181818181817,171,0,59,_tunecore_Remastered_Guitar,6,3,_tunecore_Remastered_Guitar,0.0510626882314682,0
64,100,0.23636363636363636,238,0,59,_tunecore_Remastered_Guitar,6,4,_tunecore_Remastered_Guitar,0.04130375385284424,0
66,100,0.3,303,0,59,_tunecore_Remastered_Guitar,6,5,_tunecore_Remastered_Guitar,0.03738633915781975,0
64,100,0.32272727272727275,444,0,59,_tunecore_Remastered_Guitar,6,5,_tunecore_Remastered_Guitar,0.038330744951963425,0
59,100,0.1409090909090909,681,1,59,_tunecore_Remastered_Guitar,6,2,_tunecore_Remastered_Guitar,0.04475327208638191,0
63,100,0.12272727272727273,804,0,59,_tunecore_Remastered_Guitar,6,2,_tunecore_Remastered_Guitar,0.05523107573390007,0
63,100,0.1,861,0,59,_tunecore_Remastered_Guitar,6,2,_tunecore_Remastered_Guitar,0.09027136117219925,0
57,100,0.1409090909090909,48,1,60,_tunecore_Remastered_Guitar,6,2,_tunecore_Remastered_Guitar,0.9990229606628418,1
56,100,0.12272727272727273,606,1,60,_tunecore_Remastered_Guitar,6,2,_tunecore_Remastered_Guitar,0.36663562059402466,0
63,100,0.11818181818181818,831,0,60,_tunecore_Remastered_Guitar,6,2,_tunecore_Remastered_Guitar,0.45329684019088745,0
57,100,0.12272727272727273,224,1,61,_tunecore_Remastered_Guitar,6,2,_tunecore_Remastered_Guitar,0.9988420605659485,1
66,100,0.13636363636363635,413,0,61,_tunecore_Remastered_Guitar,6,2,_tunecore_Remastered_Guitar,0.13725188374519348,0
66,100,0.2,756,1,61,_tunecore_Remastered_Guitar,6,3,_tunecore_Remastered_Guitar,0.15978386998176575,0
66,100,0.1,826,0,61,_tunecore_Remastered_Guitar,6,2,_tunecore_Remastered_Guitar,0.18645310401916504,0
63,100,0.1409090909090909,858,0,61,_tunecore_Remastered_Guitar,6,2,_tunecore_Remastered_Guitar,0.2581673264503479,0
63,100,0.9590909090909091,13,1,62,_tunecore_Remastered_Guitar,6,15,_tunecore_Remastered_Guitar,0.9990229606628418,1
63,100,0.1,386,1,62,_tunecore_Remastered_Guitar,6,2,_tunecore_Remastered_Guitar,0.3666309416294098,0
63,100,0.3,448,0,62,_tunecore_Remastered_Guitar,6,5,_tunecore_Remastered_Guitar,0.4533020257949829,0
61,100,0.12272727272727273,13,1,63,_tunecore_Remastered_Guitar,6,2,_tunecore_Remastered_Guitar,0.9988419413566589,1
54,100,0.9,325,1,63,_tunecore_Remastered_Guitar,6,14,_tunecore_Remastered_Guitar,0.13724680244922638,0
54,100,0.32272727272727275,554,0,63,_tunecore_Remastered_Guitar,6,5,_tunecore_Remastered_Guitar,0.15977945923805237,0
56,100,0.22272727272727272,641,0,63,_tunecore_Remastered_Guitar,6,4,_tunecore_Remastered_Guitar,0.18644507229328156,0
54,100,0.18181818181818182,726,0,63,_tunecore_Remastered_Guitar,6,3,_tunecore_Remastered_Guitar,0.2581655979156494,0
59,100,0.1590909090909091,832,1,64,_tunecore_Remastered_Guitar,6,3,_tunecore_Remastered_Guitar,0.979256272315979,0
64,100,0.35909090909090907,475,1,65,_tunecore_Remastered_Guitar,6,6,_tunecore_Remastered_Guitar,0.9983165264129639,1
52,100,0.38181818181818183,572,0,65,_tunecore_Remastered_Guitar,6,6,_tunecore_Remastered_Guitar,0.5445570945739746,0
59,100,0.5772727272727273,119,1,66,_tunecore_Remastered_Guitar,6,9,_tunecore_Remastered_Guitar,0.9990057349205017,1
54,100,0.2772727272727273,260,0,66,_tunecore_Remastered_Guitar,6,4,_tunecore_Remastered_Guitar,0.23119741678237915,0
61,100,0.18181818181818182,532,1,66,_tunecore_Remastered_Guitar,6,3,_tunecore_Remastered_Guitar,0.2659105658531189,0
52,100,0.21818181818181817,836,1,66,_tunecore_Remastered_Guitar,6,3,_tunecore_Remastered_Guitar,0.35419222712516785,0
61,100,0.2409090909090909,220,1,67,_tunecore_Remastered_Guitar,6,4,_tunecore_Remastered_Guitar,0.9983164072036743,1
68,100,0.1,593,1,67,_tunecore_Remastered_Guitar,6,2,_tunecore_Remastered_Guitar,0.5445547103881836,0
56,100,0.1409090909090909,43,1,68,_tunecore_Remastered_Guitar,6,2,_tunecore_Remastered_Guitar,0.9990229606628418,1
61,100,0.4409090909090909,316,1,68,_tunecore_Remastered_Guitar,6,7,_tunecore_Remastered_Guitar,0.36661580204963684,0
59,100,0.18181818181818182,796,1,68,_tunecore_Remastered_Guitar,6,3,_tunecore_Remastered_Guitar,0.45329082012176514,0
52,100,0.21818181818181817,74,1,69,_tunecore_Remastered_Guitar,6,3,_tunecore_Remastered_Guitar,0.9990229606628418,1
52,100,0.3,197,0,69,_tunecore_Remastered_Guitar,6,5,_tunecore_Remastered_Guitar,0.3666186034679413,0
52,100,0.4,426,0,69,_tunecore_Remastered_Guitar,6,6,_tunecore_Remastered_Guitar,0.45329567790031433,0
56,100,0.3409090909090909,13,1,70,_tunecore_Remastered_Guitar,6,5,_tunecore_Remastered_Guitar,0.9984880685806274,1
52,100,0.12272727272727273,267,1,70,_tunecore_Remastered_Guitar,6,2,_tunecore_Remastered_Guitar,0.0633460283279419,0
52,100,0.18181818181818182,333,0,70,_tunecore_Remastered_Guitar,6,3,_tunecore_Remastered_Guitar,0.05774237588047981,0
52,100,0.3409090909090909,443,0,70,_tunecore_Remastered_Guitar,6,5,_tunecore_Remastered_Guitar,0.06020403653383255,0
52,100,0.17727272727272728,559,0,70,_tunecore_Remastered_Guitar,6,3,_tunecore_Remastered_Guitar,0.06970198452472687,0
52,100,0.1409090909090909,713,0,70,_tunecore_Remastered_Guitar,6,2,_tunecore_Remastered_Guitar,0.08189839869737625,0
52,100,0.18181818181818182,760,0,70,_tunecore_Remastered_Guitar,6,3,_tunecore_Remastered_Guitar,0.12402446568012238,0
63,100,0.1409090909090909,396,1,71,_tunecore_Remastered_Guitar,6,2,_tunecore_Remastered_Guitar,0.9990229606628418,1
57,100,0.12272727272727273,576,0,71,_tunecore_Remastered_Guitar,6,2,_tunecore_Remastered_Guitar,0.36662542819976807,0
52,100,0.21818181818181817,703,0,71,_tunecore_Remastered_Guitar,6,3,_tunecore_Remastered_Guitar,0.45329350233078003,0
52,100,0.4409090909090909,53,1,72,_tunecore_Remastered_Guitar,6,7,_tunecore_Remastered_Guitar,0.9983165264129639,1
57,100,0.21818181818181817,747,1,72,_tunecore_Remastered_Guitar,6,3,_tunecore_Remastered_Guitar,0.5445581078529358,0
59,100,0.12272727272727273,686,1,73,_tunecore_Remastered_Guitar,6,2,_tunecore_Remastered_Guitar,0.9983165264129639,1
59,100,0.4,743,0,73,_tunecore_Remastered_Guitar,6,6,_tunecore_Remastered_Guitar,0.5445616245269775,0
57,100,0.1,179,1,74,_tunecore_Remastered_Guitar,6,2,_tunecore_Remastered_Guitar,0.9990230798721313,1
59,100,0.2409090909090909,383,0,74,_tunecore_Remastered_Guitar,6,4,_tunecore_Remastered_Guitar,0.3666263818740845,0
57,100,0.37727272727272726,523,0,74,_tunecore_Remastered_Guitar,6,6,_tunecore_Remastered_Guitar,0.4532918334007263,0
57,100,0.11818181818181818,127,1,75,_tunecore_Remastered_Guitar,6,2,_tunecore_Remastered_Guitar,0.9990057349205017,1
59,100,0.12272727272727273,532,1,75,_tunecore_Remastered_Guitar,6,2,_tunecore_Remastered_Guitar,0.23120440542697906,0
54,100,0.4,606,0,75,_tunecore_Remastered_Guitar,6,6,_tunecore_Remastered_Guitar,0.265918493270874,0
52,100,0.3,810,0,75,_tunecore_Remastered_Guitar,6,5,_tunecore_Remastered_Guitar,0.35419654846191406,0
59,100,0.4,53,1,76,_tunecore_Remastered_Guitar,6,6,_tunecore_Remastered_Guitar,0.9988419413566589,1
59,100,0.7363636363636363,172,0,76,_tunecore_Remastered_Guitar,6,12,_tunecore_Remastered_Guitar,0.13724565505981445,0
59,100,0.2409090909090909,360,0,76,_tunecore_Remastered_Guitar,6,4,_tunecore_Remastered_Guitar,0.15977220237255096,0
59,100,0.41818181818181815,426,0,76,_tunecore_Remastered_Guitar,6,7,_tunecore_Remastered_Guitar,0.1864462047815323,0
52,100,0.18181818181818182,682,1,76,_tunecore_Remastered_Guitar,6,3,_tunecore_Remastered_Guitar,0.2581654489040375,0
52,100,0.2409090909090909,53,1,77,_tunecore_Remastered_Guitar,6,4,_tunecore_Remastered_Guitar,0.9982553124427795,1
52,100,0.17727272727272728,119,0,77,_tunecore_Remastered_Guitar,6,3,_tunecore_Remastered_Guitar,0.04128770902752876,0
52,100,0.37727272727272726,163,0,77,_tunecore_Remastered_Guitar,6,6,_tunecore_Remastered_Guitar,0.02893461473286152,0
64,100,0.1409090909090909,299,0,77,_tunecore_Remastered_Guitar,6,2,_tunecore_Remastered_Guitar,0.021288970485329628,0
64,100,0.3181818181818182,370,0,77,_tunecore_Remastered_Guitar,6,5,_tunecore_Remastered_Guitar,0.01674593612551689,0
61,100,0.1590909090909091,462,0,77,_tunecore_Remastered_Guitar,6,3,_tunecore_Remastered_Guitar,0.014918635599315166,0
64,100,0.11818181818181818,502,0,77,_tunecore_Remastered_Guitar,6,2,_tunecore_Remastered_Guitar,0.016016464680433273,0
61,100,0.35909090909090907,673,0,77,_tunecore_Remastered_Guitar,6,6,_tunecore_Remastered_Guitar,0.02117961272597313,0
52,100,0.1409090909090909,770,0,77,_tunecore_Remastered_Guitar,6,2,_tunecore_Remastered_Guitar,0.03156864643096924,0
52,100,0.12272727272727273,849,0,77,_tunecore_Remastered_Guitar,6,2,_tunecore_Remastered_Guitar,0.060060590505599976,0
52,100,0.38181818181818183,145,1,78,_tunecore_Remastered_Guitar,6,6,_tunecore_Remastered_Guitar,0.9983165264129639,1
54,100,0.5818181818181818,783,1,78,_tunecore_Remastered_Guitar,6,9,_tunecore_Remastered_Guitar,0.5445556640625,0
52,100,0.2590909090909091,282,1,79,_tunecore_Remastered_Guitar,6,4,_tunecore_Remastered_Guitar,0.9990229606628418,1
52,100,0.2636363636363636,377,0,79,_tunecore_Remastered_Guitar,6,4,_tunecore_Remastered_Guitar,0.3666246831417084,0
52,100,0.2,700,1,79,_tunecore_Remastered_Guitar,6,3,_tunecore_Remastered_Guitar,0.45329469442367554,0
52,100,0.2636363636363636,289,1,80,_tunecore_Remastered_Guitar,6,4,_tunecore_Remastered_Guitar,0.9988419413566589,1
52,100,0.17727272727272728,567,1,80,_tunecore_Remastered_Guitar,6,3,_tunecore_Remastered_Guitar,0.13724759221076965,0
52,100,0.22272727272727272,650,0,80,_tunecore_Remastered_Guitar,6,4,_tunecore_Remastered_Guitar,0.15977659821510315,0
52,100,0.1,716,0,80,_tunecore_Remastered_Guitar,6,2,_tunecore_Remastered_Guitar,0.18644924461841583,0
52,100,0.17727272727272728,832,0,80,_tunecore_Remastered_Guitar,6,3,_tunecore_Remastered_Guitar,0.2581777572631836,0
54,100,0.18181818181818182,386,1,81,_tunecore_Remastered_Guitar,6,3,_tunecore_Remastered_Guitar,0.9990057349205017,1
59,100,0.18181818181818182,430,0,81,_tunecore_Remastered_Guitar,6,3,_tunecore_Remastered_Guitar,0.23120133578777313,0
52,100,0.1590909090909091,673,1,81,_tunecore_Remastered_Guitar,6,3,_tunecore_Remastered_Guitar,0.26591983437538147,0
52,100,0.3,739,0,81,_tunecore_Remastered_Guitar,6,5,_tunecore_Remastered_Guitar,0.354204922914505,0
52,100,0.22272727272727272,3,1,82,_tunecore_Remastered_Guitar,6,4,_tunecore_Remastered_Guitar,0.9990229606628418,1
52,100,0.33636363636363636,127,0,82,_tunecore_Remastered_Guitar,6,5,_tunecore_Remastered_Guitar,0.3666297197341919,0
56,100,0.2590909090909091,229,0,82,_tunecore_Remastered_Guitar,6,4,_tunecore_Remastered_Guitar,0.4532880187034607,0
52,100,0.21818181818181817,307,1,83,_tunecore_Remastered_Guitar,6,3,_tunecore_Remastered_Guitar,0.9990057349205017,1
52,100,0.4,392,0,83,_tunecore_Remastered_Guitar,6,6,_tunecore_Remastered_Guitar,0.23119983077049255,0
52,100,0.1590909090909091,483,0,83,_tunecore_Remastered_Guitar,6,3,_tunecore_Remastered_Guitar,0.26592543721199036,0
54,100,0.5590909090909091,590,0,83,_tunecore_Remastered_Guitar,6,9,_tunecore_Remastered_Guitar,0.3541971743106842,0
54,100,0.32272727272727275,145,1,84,_tunecore_Remastered_Guitar,6,5,_tunecore_Remastered_Guitar,0.9990057349205017,1
52,100,0.12272727272727273,343,0,84,_tunecore_Remastered_Guitar,6,2,_tunecore_Remastered_Guitar,0.2312001734972,0
52,100,0.3409090909090909,470,0,84,_tunecore_Remastered_Guitar,6,5,_tunecore_Remastered_Guitar,0.26591771841049194,0
52,100,0.4818181818181818,707,1,84,_tunecore_Remastered_Guitar,6,8,_tunecore_Remastered_Guitar,0.3541967570781708,0
61,100,0.12272727272727273,157,1,85,_tunecore_Remastered_Guitar,6,2,_tunecore_Remastered_Guitar,0.9792556166648865,0
54,100,0.1409090909090909,189,1,86,_tunecore_Remastered_Guitar,6,2,_tunecore_Remastered_Guitar,0.9990057349205017,1
63,100,0.35909090909090907,373,0,86,_tunecore_Remastered_Guitar,6,6,_tunecore_Remastered_Guitar,0.2311946600675583,0
59,100,0.1,663,1,86,_tunecore_Remastered_Guitar,6,2,_tunecore_Remastered_Guitar,0.265915185213089,0
52,100,0.17727272727272728,787,0,86,_tunecore_Remastered_Guitar,6,3,_tunecore_Remastered_Guitar,0.35419437289237976,0
57,100,0.5409090909090909,210,1,87,_tunecore_Remastered_Guitar,6,9,_tunecore_Remastered_Guitar,0.9983165264129639,1
52,100,0.1590909090909091,383,0,87,_tunecore_Remastered_Guitar,6,3,_tunecore_Remastered_Guitar,0.5445588827133179,0
52,100,0.3181818181818182,30,1,88,_tunecore_Remastered_Guitar,6,5,_tunecore_Remastered_Guitar,0.9983165264129639,1
59,100,0.2590909090909091,857,1,88,_tunecore_Remastered_Guitar,6,4,_tunecore_Remastered_Guitar,0.5445581674575806,0
59,100,0.1409090909090909,176,1,89,_tunecore_Remastered_Guitar,6,2,_tunecore_Remastered_Guitar,0.9990057349205017,1
52,100,1.0,352,0,89,_tunecore_Remastered_Guitar,6,15,_tunecore_Remastered_Guitar,0.2312011420726776,0
64,100,0.11818181818181818,800,1,89,_tunecore_Remastered_Guitar,6,2,_tunecore_Remastered_Guitar,0.2659285366535187,0
64,100,0.21818181818181817,832,0,89,_tunecore_Remastered_Guitar,6,3,_tunecore_Remastered_Guitar,0.35421252250671387,0
64,100,0.4,480,1,90,_tunecore_Remastered_Guitar,6,6,_tunecore_Remastered_Guitar,0.9990057349205017,1
59,100,0.1590909090909091,603,0,90,_tunecore_Remastered_Guitar,6,3,_tunecore_Remastered_Guitar,0.2312011420726776,0
52,100,0.7227272727272728,673,0,90,_tunecore_Remastered_Guitar,6,12,_tunecore_Remastered_Guitar,0.2659192979335785,0
59,100,0.22272727272727272,862,0,90,_tunecore_Remastered_Guitar,6,4,_tunecore_Remastered_Guitar,0.35420241951942444,0
59,100,0.12272727272727273,35,1,91,_tunecore_Remastered_Guitar,6,2,_tunecore_Remastered_Guitar,0.9988419413566589,1
59,100,0.6,113,0,91,_tunecore_Remastered_Guitar,6,10,_tunecore_Remastered_Guitar,0.13724613189697266,0
54,100,0.12272727272727273,289,0,91,_tunecore_Remastered_Guitar,6,2,_tunecore_Remastered_Guitar,0.15977472066879272,0
59,100,0.1590909090909091,787,1,91,_tunecore_Remastered_Guitar,6,3,_tunecore_Remastered_Guitar,0.18644855916500092,0
52,100,0.21818181818181817,844,0,91,_tunecore_Remastered_Guitar,6,3,_tunecore_Remastered_Guitar,0.2581646144390106,0
59,100,0.4,22,1,92,_tunecore_Remastered_Guitar,6,6,_tunecore_Remastered_Guitar,0.9990057349205017,1
52,100,0.2,250,0,92,_tunecore_Remastered_Guitar,6,3,_tunecore_Remastered_Guitar,0.23120282590389252,0
52,100,0.3409090909090909,386,0,92,_tunecore_Remastered_Guitar,6,5,_tunecore_Remastered_Guitar,0.2659193277359009,0
52,100,0.35909090909090907,480,0,92,_tunecore_Remastered_Guitar,6,6,_tunecore_Remastered_Guitar,0.35420191287994385,0
52,100,0.2,74,1,93,_tunecore_Remastered_Guitar,6,3,_tunecore_Remastered_Guitar,0.9986500144004822,1
52,100,1.1181818181818182,193,0,93,_tunecore_Remastered_Guitar,6,15,_tunecore_Remastered_Guitar,0.08780189603567123,0
52,100,0.21818181818181817,493,1,93,_tunecore_Remastered_Guitar,6,3,_tunecore_Remastered_Guitar,0.09181489795446396,0
52,100,0.1,646,0,93,_tunecore_Remastered_Guitar,6,2,_tunecore_Remastered_Guitar,0.10747857391834259,0
54,100,0.11818181818181818,779,0,93,_tunecore_Remastered_Guitar,6,2,_tunecore_Remastered_Guitar,0.12483114749193192,0
54,100,0.11818181818181818,823,0,93,_tunecore_Remastered_Guitar,6,2,_tunecore_Remastered_Guitar,0.17904171347618103,0
54,100,0.11818181818181818,330,1,94,_tunecore_Remastered_Guitar,6,2,_tunecore_Remastered_Guitar,0.9990230798721313,1
52,100,0.2,462,0,94,_tunecore_Remastered_Guitar,6,3,_tunecore_Remastered_Guitar,0.3666180372238159,0
52,100,0.1590909090909091,739,1,94,_tunecore_Remastered_Guitar,6,3,_tunecore_Remastered_Guitar,0.45329320430755615,0
52,100,0.7181818181818181,0,1,95,_tunecore_Remastered_Guitar,6,11,_tunecore_Remastered_Guitar,0.9990229606628418,1
52,100,0.18181818181818182,563,1,95,_tunecore_Remastered_Guitar,6,3,_tunecore_Remastered_Guitar,0.3666198253631592,0
52,100,1.0227272727272727,695,0,95,_tunecore_Remastered_Guitar,6,15,_tunecore_Remastered_Guitar,0.45329225063323975,0
52,100,0.1,100,1,96,_tunecore_Remastered_Guitar,6,2,_tunecore_Remastered_Guitar,0.9988419413566589,1
52,100,0.3,242,0,96,_tunecore_Remastered_Guitar,6,5,_tunecore_Remastered_Guitar,0.1372469961643219,0
53,100,0.11818181818181818,326,0,96,_tunecore_Remastered_Guitar,6,2,_tunecore_Remastered_Guitar,0.15977530181407928,0
54,100,0.2818181818181818,352,0,96,_tunecore_Remastered_Guitar,6,5,_tunecore_Remastered_Guitar,0.18644806742668152,0
54,100,0.2409090909090909,800,1,96,_tunecore_Remastered_Guitar,6,4,_tunecore_Remastered_Guitar,0.25816771388053894,0
52,100,0.5636363636363636,47,1,97,_tunecore_Remastered_Guitar,6,9,_tunecore_Remastered_Guitar,0.9990229606628418,1
52,100,0.22272727272727272,210,0,97,_tunecore_Remastered_Guitar,6,4,_tunecore_Remastered_Guitar,0.366625040769577,0
52,100,0.1590909090909091,343,0,97,_tunecore_Remastered_Guitar,6,3,_tunecore_Remastered_Guitar,0.4532916843891144,0
54,100,0.38181818181818183,26,1,98,_tunecore_Remastered_Guitar,6,6,_tunecore_Remastered_Guitar,0.9984880685806274,1
54,100,0.1409090909090909,119,0,98,_tunecore_Remastered_Guitar,6,2,_tunecore_Remastered_Guitar,0.06334495544433594,0
59,100,0.4,202,0,98,_tunecore_Remastered_Guitar,6,6,_tunecore_Remastered_Guitar,0.057740066200494766,0
52,100,0.759090909090909,299,0,98,_tunecore_Remastered_Guitar,6,12,_tunecore_Remastered_Guitar,0.06019999459385872,0
59,100,0.35909090909090907,502,0,98,_tunecore_Remastered_Guitar,6,6,_tunecore_Remastered_Guitar,0.06970097124576569,0
54,100,0.35909090909090907,593,0,98,_tunecore_Remastered_Guitar,6,6,_tunecore_Remastered_Guitar,0.0818934366106987,0
54,100,0.1,870,1,98,_tunecore_Remastered_Guitar,6,2,_tunecore_Remastered_Guitar,0.12402314692735672,0
54,100,0.2,176,1,99,_tunecore_Remastered_Guitar,6,3,_tunecore_Remastered_Guitar,0.9990057349205017,1
52,100,0.21818181818181817,550,1,99,_tunecore_Remastered_Guitar,6,3,_tunecore_Remastered_Guitar,0.2311989963054657,0
52,100,0.4,673,0,99,_tunecore_Remastered_Guitar,6,6,_tunecore_Remastered_Guitar,0.2659231126308441,0
52,100,0.2590909090909091,836,0,99,_tunecore_Remastered_Guitar,6,4,_tunecore_Remastered_Guitar,0.3542051613330841,0
52,100,0.11818181818181818,197,1,100,_tunecore_Remastered_Guitar,6,2,_tunecore_Remastered_Guitar,0.9986500144004822,1
52,100,0.2,303,0,100,_tunecore_Remastered_Guitar,6,3,_tunecore_Remastered_Guitar,0.08780193328857422,0
61,100,0.11818181818181818,396,0,100,_tunecore_Remastered_Guitar,6,2,_tunecore_Remastered_Guitar,0.09181221574544907,0
52,100,0.17727272727272728,580,0,100,_tunecore_Remastered_Guitar,6,3,_tunecore_Remastered_Guitar,0.10747785866260529,0
61,100,0.4,646,0,100,_tunecore_Remastered_Guitar,6,6,_tunecore_Remastered_Guitar,0.12482202053070068,0
64,100,0.12272727272727273,783,0,100,_tunecore_Remastered_Guitar,6,2,_tunecore_Remastered_Guitar,0.17903821170330048,0
64,100,0.11818181818181818,127,1,101,_tunecore_Remastered_Guitar,6,2,_tunecore_Remastered_Guitar,0.9986500144004822,1
64,100,0.1,172,0,101,_tunecore_Remastered_Guitar,6,2,_tunecore_Remastered_Guitar,0.08780553191900253,0
64,100,0.3409090909090909,206,0,101,_tunecore_Remastered_Guitar,6,5,_tunecore_Remastered_Guitar,0.09181580692529678,0
52,100,0.16363636363636364,356,0,101,_tunecore_Remastered_Guitar,6,3,_tunecore_Remastered_Guitar,0.10748060047626495,0
52,100,0.1409090909090909,426,0,101,_tunecore_Remastered_Guitar,6,2,_tunecore_Remastered_Guitar,0.1248307004570961,0
53,100,0.11818181818181818,462,0,101,_tunecore_Remastered_Guitar,6,2,_tunecore_Remastered_Guitar,0.17903633415699005,0
52,100,0.11818181818181818,303,1,102,_tunecore_Remastered_Guitar,6,2,_tunecore_Remastered_Guitar,0.9990057349205017,1
52,100,0.6,590,1,102,_tunecore_Remastered_Guitar,6,10,_tunecore_Remastered_Guitar,0.231205016374588,0
59,100,0.2409090909090909,800,0,102,_tunecore_Remastered_Guitar,6,4,_tunecore_Remastered_Guitar,0.2659282386302948,0
61,100,0.1,857,0,102,_tunecore_Remastered_Guitar,6,2,_tunecore_Remastered_Guitar,0.35419371724128723,0
64,100,0.32272727272727275,123,1,103,_tunecore_Remastered_Guitar,6,5,_tunecore_Remastered_Guitar,0.9984880685806274,1
66,100,0.1590909090909091,396,1,103,_tunecore_Remastered_Guitar,6,3,_tunecore_Remastered_Guitar,0.06334634870290756,0
68,100,0.37727272727272726,449,0,103,_tunecore_Remastered_Guitar,6,6,_tunecore_Remastered_Guitar,0.05774053558707237,0
66,100,0.37727272727272726,559,0,103,_tunecore_Remastered_Guitar,6,6,_tunecore_Remastered_Guitar,0.06020095944404602,0
66,100,0.17727272727272728,677,0,103,_tunecore_Remastered_Guitar,6,3,_tunecore_Remastered_Guitar,0.06970099359750748,0
64,100,0.1,800,0,103,_tunecore_Remastered_Guitar,6,2,_tunecore_Remastered_Guitar,0.08189108967781067,0
64,100,0.18181818181818182,862,0,103,_tunecore_Remastered_Guitar,6,3,_tunecore_Remastered_Guitar,0.12402012199163437,0
61,100,0.18181818181818182,26,1,104,_tunecore_Remastered_Guitar,6,3,_tunecore_Remastered_Guitar,0.9988419413566589,1
59,100,0.7,69,0,104,_tunecore_Remastered_Guitar,6,11,_tunecore_Remastered_Guitar,0.137248232960701,0
59,100,0.2590909090909091,255,0,104,_tunecore_Remastered_Guitar,6,4,_tunecore_Remastered_Guitar,0.1597788780927658,0
64,100,0.2590909090909091,440,0,104,_tunecore_Remastered_Guitar,6,4,_tunecore_Remastered_Guitar,0.1864502876996994,0
64,100,0.3,593,0,104,_tunecore_Remastered_Guitar,6,5,_tunecore_Remastered_Guitar,0.25816628336906433,0
59,100,0.2,123,1,105,_tunecore_Remastered_Guitar,6,3,_tunecore_Remastered_Guitar,0.9983736276626587,1
61,100,0.37727272727272726,172,0,105,_tunecore_Remastered_Guitar,6,6,_tunecore_Remastered_Guitar,0.051060646772384644,0
64,100,0.2636363636363636,267,0,105,_tunecore_Remastered_Guitar,6,4,_tunecore_Remastered_Guitar,0.04130315035581589,0
59,100,0.1590909090909091,550,1,105,_tunecore_Remastered_Guitar,6,3,_tunecore_Remastered_Guitar,0.03738699108362198,0
66,100,0.1,593,0,105,_tunecore_Remastered_Guitar,6,2,_tunecore_Remastered_Guitar,0.03833191841840744,0
68,100,0.1409090909090909,637,0,105,_tunecore_Remastered_Guitar,6,2,_tunecore_Remastered_Guitar,0.04475267231464386,0
66,100,0.2,690,0,105,_tunecore_Remastered_Guitar,6,3,_tunecore_Remastered_Guitar,0.055231645703315735,0
64,100,0.42272727272727273,739,0,105,_tunecore_Remastered_Guitar,6,7,_tunecore_Remastered_Guitar,0.09027102589607239,0
64,100,0.2409090909090909,0,1,106,_tunecore_Remastered_Guitar,6,4,_tunecore_Remastered_Guitar,0.9986500144004822,1
54,100,0.6,66,0,106,_tunecore_Remastered_Guitar,6,10,_tunecore_Remastered_Guitar,0.08780434727668762,0
66,100,0.6181818181818182,263,0,106,_tunecore_Remastered_Guitar,6,10,_tunecore_Remastered_Guitar,0.09181469678878784,0
52,100,0.38181818181818183,422,0,106,_tunecore_Remastered_Guitar,6,6,_tunecore_Remastered_Guitar,0.10747804492712021,0
59,100,0.11818181818181818,792,1,106,_tunecore_Remastered_Guitar,6,2,_tunecore_Remastered_Guitar,0.12482918053865433,0
59,100,0.5227272727272727,839,0,106,_tunecore_Remastered_Guitar,6,8,_tunecore_Remastered_Guitar,0.17902971804141998,0
60,100,0.2,188,1,45,DL_Guitar,6,3,DL_Guitar,0.9983165264129639,1
71,100,0.2,584,1,45,DL_Guitar,6,3,DL_Guitar,0.5445581078529358,0
52,100,0.1409090909090909,136,1,46,DL_Guitar,6,2,DL_Guitar,0.9986500144004822,1
52,100,0.1590909090909091,185,0,46,DL_Guitar,6,3,DL_Guitar,0.08780469000339508,0
52,100,0.16363636363636364,311,0,46,DL_Guitar,6,3,DL_Guitar,0.0918174758553505,0
52,100,0.2409090909090909,373,0,46,DL_Guitar,6,4,DL_Guitar,0.10748257488012314,0
52,100,0.2818181818181818,681,1,46,DL_Guitar,6,5,DL_Guitar,0.12483204901218414,0
52,100,1.1590909090909092,756,0,46,DL_Guitar,6,15,DL_Guitar,0.17904266715049744,0
52,100,0.38181818181818183,136,1,47,DL_Guitar,6,6,DL_Guitar,0.9990229606628418,1
69,100,0.2772727272727273,536,1,47,DL_Guitar,6,4,DL_Guitar,0.3666228950023651,0
52,100,0.21818181818181817,845,1,47,DL_Guitar,6,3,DL_Guitar,0.4532912075519562,0
52,100,0.4590909090909091,18,1,48,DL_Guitar,6,7,DL_Guitar,0.9990057349205017,1
52,100,0.1409090909090909,136,0,48,DL_Guitar,6,2,DL_Guitar,0.23119749128818512,0
52,100,0.6409090909090909,188,0,48,DL_Guitar,6,10,DL_Guitar,0.2659197747707367,0
52,100,0.1409090909090909,338,0,48,DL_Guitar,6,2,DL_Guitar,0.3542046844959259,0
71,100,0.3,228,1,49,DL_Guitar,6,5,DL_Guitar,0.9792560338973999,0
55,100,0.2590909090909091,75,1,50,DL_Guitar,6,4,DL_Guitar,0.9990229606628418,1
71,100,0.16363636363636364,421,1,50,DL_Guitar,6,3,DL_Guitar,0.36661824584007263,0
52,100,0.18181818181818182,796,1,50,DL_Guitar,6,3,DL_Guitar,0.45328953862190247,0
52,100,0.11818181818181818,96,1,51,DL_Guitar,6,2,DL_Guitar,0.9988419413566589,1
52,100,0.37727272727272726,171,0,51,DL_Guitar,6,6,DL_Guitar,0.13725078105926514,0
60,100,0.16363636363636364,268,0,51,DL_Guitar,6,3,DL_Guitar,0.1597813367843628,0
52,100,0.1,545,1,51,DL_Guitar,6,2,DL_Guitar,0.18645162880420685,0
52,100,1.2181818181818183,590,0,51,DL_Guitar,6,15,DL_Guitar,0.25816610455513,0
69,100,0.2,171,1,52,DL_Guitar,6,3,DL_Guitar,0.9986500144004822,1
69,100,0.22272727272727272,224,0,52,DL_Guitar,6,4,DL_Guitar,0.08780617266893387,0
69,100,0.1590909090909091,361,0,52,DL_Guitar,6,3,DL_Guitar,0.09181459248065948,0
52,100,0.5227272727272727,641,1,52,DL_Guitar,6,8,DL_Guitar,0.10748115181922913,0
64,100,0.11818181818181818,791,0,52,DL_Guitar,6,2,DL_Guitar,0.12483074516057968,0
52,100,0.8227272727272728,839,0,52,DL_Guitar,6,13,DL_Guitar,0.17903682589530945,0
71,100,0.1590909090909091,56,1,54,DL_Guitar,6,3,DL_Guitar,0.9792558550834656,0
64,100,0.1409090909090909,598,1,60,DL_Guitar,6,2,DL_Guitar,0.9792569875717163,0
62,100,0.2,246,1,61,DL_Guitar,6,3,DL_Guitar,0.9983165264129639,1
52,100,0.1590909090909091,845,1,61,DL_Guitar,6,3,DL_Guitar,0.5445595979690552,0
52,100,0.12272727272727273,158,1,62,DL_Guitar,6,2,DL_Guitar,0.9988419413566589,1
52,100,0.1409090909090909,418,1,62,DL_Guitar,6,2,DL_Guitar,0.13724954426288605,0
52,100,0.35909090909090907,536,0,62,DL_Guitar,6,6,DL_Guitar,0.159780815243721,0
52,100,0.2818181818181818,729,0,62,DL_Guitar,6,5,DL_Guitar,0.18645599484443665,0
53,100,0.1409090909090909,804,0,62,DL_Guitar,6,2,DL_Guitar,0.2581721246242523,0
60,100,0.2,8,1,63,DL_Guitar,6,3,DL_Guitar,0.9990057349205017,1
60,100,0.2409090909090909,56,0,63,DL_Guitar,6,4,DL_Guitar,0.23119889199733734,0
53,100,0.22272727272727272,136,0,63,DL_Guitar,6,4,DL_Guitar,0.26590994000434875,0
52,100,0.5409090909090909,466,1,63,DL_Guitar,6,9,DL_Guitar,0.354196697473526,0
52,100,0.18181818181818182,13,1,64,DL_Guitar,6,3,DL_Guitar,0.9990057349205017,1
62,100,0.2,229,0,64,DL_Guitar,6,3,DL_Guitar,0.23120588064193726,0
62,100,0.5772727272727273,559,1,64,DL_Guitar,6,9,DL_Guitar,0.26592525839805603,0
62,100,0.1409090909090909,792,1,64,DL_Guitar,6,2,DL_Guitar,0.35421091318130493,0
62,100,0.11818181818181818,106,1,65,DL_Guitar,6,2,DL_Guitar,0.9983165264129639,1
55,100,0.35909090909090907,413,1,65,DL_Guitar,6,6,DL_Guitar,0.5445592403411865,0
62,100,0.8409090909090909,462,1,66,DL_Guitar,6,13,DL_Guitar,0.9983164072036743,1
62,100,0.9409090909090909,713,1,66,DL_Guitar,6,15,DL_Guitar,0.5445653796195984,0
52,100,0.3,106,1,67,DL_Guitar,6,5,DL_Guitar,0.9988419413566589,1
60,100,0.1590909090909091,250,0,67,DL_Guitar,6,3,DL_Guitar,0.13724705576896667,0
52,100,0.4818181818181818,320,0,67,DL_Guitar,6,8,DL_Guitar,0.15977761149406433,0
65,100,0.2,700,1,67,DL_Guitar,6,3,DL_Guitar,0.18644846975803375,0
53,100,0.36363636363636365,817,0,67,DL_Guitar,6,6,DL_Guitar,0.2581680715084076,0
53,100,0.4590909090909091,22,1,68,DL_Guitar,6,7,DL_Guitar,0.9982553124427795,1
53,100,0.13636363636363635,216,0,68,DL_Guitar,6,2,DL_Guitar,0.04128842428326607,0
52,100,0.2772727272727273,282,0,68,DL_Guitar,6,4,DL_Guitar,0.028934238478541374,0
52,100,0.2,417,0,68,DL_Guitar,6,3,DL_Guitar,0.02128884196281433,0
52,100,0.37727272727272726,493,0,68,DL_Guitar,6,6,DL_Guitar,0.016745716333389282,0
52,100,0.1,580,0,68,DL_Guitar,6,2,DL_Guitar,0.014918796718120575,0
52,100,0.1,606,0,68,DL_Guitar,6,2,DL_Guitar,0.01601666770875454,0
52,100,0.13636363636363635,633,0,68,DL_Guitar,6,2,DL_Guitar,0.021180272102355957,0
62,100,0.12272727272727273,817,0,68,DL_Guitar,6,2,DL_Guitar,0.03156837821006775,0
62,100,0.3409090909090909,849,0,68,DL_Guitar,6,5,DL_Guitar,0.06006021797657013,0
62,100,0.36363636363636365,69,1,69,DL_Guitar,6,6,DL_Guitar,0.9983736276626587,1
62,100,0.11818181818181818,172,0,69,DL_Guitar,6,2,DL_Guitar,0.051062118262052536,0
62,100,0.2636363636363636,202,0,69,DL_Guitar,6,4,DL_Guitar,0.04130391404032707,0
62,100,0.1409090909090909,383,0,69,DL_Guitar,6,2,DL_Guitar,0.03738699108362198,0
52,100,0.2818181818181818,593,0,69,DL_Guitar,6,5,DL_Guitar,0.03833186998963356,0
52,100,0.1590909090909091,673,0,69,DL_Guitar,6,3,DL_Guitar,0.044754527509212494,0
52,100,0.5363636363636364,722,0,69,DL_Guitar,6,9,DL_Guitar,0.05523299053311348,0
60,100,0.1409090909090909,870,0,69,DL_Guitar,6,2,DL_Guitar,0.0902710035443306,0
53,100,0.38181818181818183,307,1,70,DL_Guitar,6,6,DL_Guitar,0.9986500144004822,1
53,100,0.3,396,0,70,DL_Guitar,6,5,DL_Guitar,0.08780346065759659,0
60,100,0.2818181818181818,506,0,70,DL_Guitar,6,5,DL_Guitar,0.09181375801563263,0
52,100,0.5636363636363636,642,0,70,DL_Guitar,6,9,DL_Guitar,0.10747696459293365,0
52,100,0.18181818181818182,770,0,70,DL_Guitar,6,3,DL_Guitar,0.12482640147209167,0
52,100,0.8,839,0,70,DL_Guitar,6,13,DL_Guitar,0.1790286898612976,0
62,100,0.1,417,1,71,DL_Guitar,6,2,DL_Guitar,0.9990057349205017,1
62,100,0.21818181818181817,493,0,71,DL_Guitar,6,3,DL_Guitar,0.23121215403079987,0
62,100,0.6409090909090909,650,0,71,DL_Guitar,6,10,DL_Guitar,0.26593151688575745,0
62,100,0.1590909090909091,823,0,71,DL_Guitar,6,3,DL_Guitar,0.3542180061340332,0
52,100,0.2,399,1,72,DL_Guitar,6,3,DL_Guitar,0.9988419413566589,1
53,100,0.33636363636363636,457,0,72,DL_Guitar,6,5,DL_Guitar,0.1372440904378891,0
53,100,0.16363636363636364,576,0,72,DL_Guitar,6,3,DL_Guitar,0.1597733497619629,0
53,100,0.1590909090909091,660,0,72,DL_Guitar,6,3,DL_Guitar,0.1864406019449234,0
60,100,0.1,734,0,72,DL_Guitar,6,2,DL_Guitar,0.2581607699394226,0
53,100,0.2,30,1,73,DL_Guitar,6,3,DL_Guitar,0.9990057349205017,1
55,100,0.6181818181818182,413,1,73,DL_Guitar,6,10,DL_Guitar,0.2312094271183014,0
55,100,0.35909090909090907,590,0,73,DL_Guitar,6,6,DL_Guitar,0.26592379808425903,0
55,100,0.5,722,0,73,DL_Guitar,6,8,DL_Guitar,0.3541991114616394,0
53,100,0.42272727272727273,796,1,74,DL_Guitar,6,7,DL_Guitar,0.9792558550834656,0
53,100,0.4590909090909091,62,1,75,DL_Guitar,6,7,DL_Guitar,0.9988419413566589,1
60,100,0.17727272727272728,250,0,75,DL_Guitar,6,3,DL_Guitar,0.13724875450134277,0
53,100,0.1,303,0,75,DL_Guitar,6,2,DL_Guitar,0.15977256000041962,0
53,100,0.12272727272727273,356,0,75,DL_Guitar,6,2,DL_Guitar,0.18644413352012634,0
53,100,0.1590909090909091,417,0,75,DL_Guitar,6,3,DL_Guitar,0.2581605017185211,0
52,100,0.2818181818181818,92,1,76,DL_Guitar,6,5,DL_Guitar,0.9983736276626587,1
52,100,0.1,263,0,76,DL_Guitar,6,2,DL_Guitar,0.05106106400489807,0
52,100,0.2,352,0,76,DL_Guitar,6,3,DL_Guitar,0.04130285978317261,0
52,100,0.2636363636363636,399,0,76,DL_Guitar,6,4,DL_Guitar,0.037387143820524216,0
52,100,0.17727272727272728,480,0,76,DL_Guitar,6,3,DL_Guitar,0.03833090141415596,0
52,100,0.1409090909090909,563,0,76,DL_Guitar,6,2,DL_Guitar,0.044752124696969986,0
52,100,0.2,624,0,76,DL_Guitar,6,3,DL_Guitar,0.05523035302758217,0
53,100,0.12272727272727273,729,0,76,DL_Guitar,6,2,DL_Guitar,0.09026779979467392,0
52,100,0.2,157,1,77,DL_Guitar,6,3,DL_Guitar,0.9984880685806274,1
53,100,0.35909090909090907,263,0,77,DL_Guitar,6,6,DL_Guitar,0.0633438229560852,0
53,100,0.1590909090909091,417,0,77,DL_Guitar,6,3,DL_Guitar,0.05773988738656044,0
53,100,0.11818181818181818,457,0,77,DL_Guitar,6,2,DL_Guitar,0.06020067632198334,0
53,100,0.6,523,0,77,DL_Guitar,6,10,DL_Guitar,0.06969817727804184,0
53,100,0.16363636363636364,663,0,77,DL_Guitar,6,3,DL_Guitar,0.08189187198877335,0
60,100,0.11818181818181818,713,0,77,DL_Guitar,6,2,DL_Guitar,0.12402082979679108,0
53,100,0.12272727272727273,35,1,78,DL_Guitar,6,2,DL_Guitar,0.9990057349205017,1
64,100,0.13636363636363635,260,0,78,DL_Guitar,6,2,DL_Guitar,0.23120847344398499,0
52,100,0.1409090909090909,316,0,78,DL_Guitar,6,2,DL_Guitar,0.2659284174442291,0
57,100,0.42272727272727273,466,0,78,DL_Guitar,6,7,DL_Guitar,0.3542037606239319,0
52,100,0.7181818181818181,810,1,80,DL_Guitar,6,11,DL_Guitar,0.9792565107345581,0
52,100,0.1409090909090909,189,1,81,DL_Guitar,6,2,DL_Guitar,0.9986500144004822,1
52,100,0.7181818181818181,263,0,81,DL_Guitar,6,11,DL_Guitar,0.0878048837184906,0
52,100,0.6363636363636364,436,0,81,DL_Guitar,6,10,DL_Guitar,0.09181612730026245,0
52,100,0.6,656,0,81,DL_Guitar,6,10,DL_Guitar,0.1074821949005127,0
52,100,0.1,800,0,81,DL_Guitar,6,2,DL_Guitar,0.12483200430870056,0
52,100,0.5,849,0,81,DL_Guitar,6,8,DL_Guitar,0.17904211580753326,0
53,100,0.35909090909090907,140,1,82,DL_Guitar,6,6,DL_Guitar,0.9986500144004822,1
53,100,0.1590909090909091,326,0,82,DL_Guitar,6,3,DL_Guitar,0.08780205249786377,0
53,100,0.3181818181818182,383,0,82,DL_Guitar,6,5,DL_Guitar,0.09181226789951324,0
53,100,0.2409090909090909,527,0,82,DL_Guitar,6,4,DL_Guitar,0.10747644305229187,0
52,100,0.9,629,0,82,DL_Guitar,6,14,DL_Guitar,0.12482544034719467,0
52,100,0.7636363636363637,839,0,82,DL_Guitar,6,12,DL_Guitar,0.17902697622776031,0
52,100,0.4772727272727273,150,1,83,DL_Guitar,6,8,DL_Guitar,0.9792572855949402,0
52,100,0.7636363636363637,466,1,84,DL_Guitar,6,12,DL_Guitar,0.9990230798721313,1
52,100,0.4590909090909091,682,0,84,DL_Guitar,6,7,DL_Guitar,0.36662206053733826,0
52,100,0.6181818181818182,810,0,84,DL_Guitar,6,10,DL_Guitar,0.4532899856567383,0
52,100,0.2590909090909091,229,1,85,DL_Guitar,6,4,DL_Guitar,0.9990229606628418,1
52,100,0.8,316,0,85,DL_Guitar,6,13,DL_Guitar,0.3666212558746338,0
52,100,0.1409090909090909,514,0,85,DL_Guitar,6,2,DL_Guitar,0.45329880714416504,0
55,100,0.1409090909090909,417,1,86,DL_Guitar,6,2,DL_Guitar,0.9792563915252686,1
65,100,0.3409090909090909,286,1,89,DL_Guitar,6,5,DL_Guitar,0.9792560338973999,0
55,100,0.6818181818181818,572,1,93,DL_Guitar,6,11,DL_Guitar,0.9983164072036743,1
55,100,0.18181818181818182,849,1,93,DL_Guitar,6,3,DL_Guitar,0.5445569753646851,0
78,100,0.17727272727272728,250,1,94,DL_Guitar,6,3,DL_Guitar,0.9990057349205017,1
53,100,0.21818181818181817,360,0,94,DL_Guitar,6,3,DL_Guitar,0.2311956137418747,0
53,100,0.1590909090909091,493,0,94,DL_Guitar,6,3,DL_Guitar,0.2659188210964203,0
61,100,0.2,779,1,94,DL_Guitar,6,3,DL_Guitar,0.3541906476020813,0
53,100,0.12272727272727273,3,1,96,DL_Guitar,6,2,DL_Guitar,0.9986500144004822,1
53,100,0.1590909090909091,140,0,96,DL_Guitar,6,3,DL_Guitar,0.08780140429735184,0
53,100,0.1409090909090909,320,0,96,DL_Guitar,6,2,DL_Guitar,0.09181362390518188,0
53,100,0.2,373,0,96,DL_Guitar,6,3,DL_Guitar,0.10747641324996948,0
56,100,0.1,619,1,96,DL_Guitar,6,2,DL_Guitar,0.1248188242316246,0
61,100,0.1590909090909091,866,1,96,DL_Guitar,6,3,DL_Guitar,0.1790270060300827,0
61,100,0.16363636363636364,47,1,97,DL_Guitar,6,3,DL_Guitar,0.9990057349205017,1
54,100,0.17727272727272728,163,0,97,DL_Guitar,6,3,DL_Guitar,0.23120592534542084,0
54,100,0.3,242,0,97,DL_Guitar,6,5,DL_Guitar,0.2659248113632202,0
53,100,0.1,330,0,97,DL_Guitar,6,2,DL_Guitar,0.3541972041130066,0
61,100,0.12272727272727273,92,1,98,DL_Guitar,6,2,DL_Guitar,0.9990057349205017,1
61,100,0.32272727272727275,202,0,98,DL_Guitar,6,5,DL_Guitar,0.2312030792236328,0
61,100,0.13636363636363635,303,0,98,DL_Guitar,6,2,DL_Guitar,0.2659175992012024,0
61,100,0.2,440,0,98,DL_Guitar,6,3,DL_Guitar,0.354198694229126,0
53,100,0.17727272727272728,370,1,100,DL_Guitar,6,3,DL_Guitar,0.9988419413566589,1
53,100,0.1,502,0,100,DL_Guitar,6,2,DL_Guitar,0.13724541664123535,0
53,100,0.1409090909090909,637,0,100,DL_Guitar,6,2,DL_Guitar,0.1597752720117569,0
53,100,0.21818181818181817,779,0,100,DL_Guitar,6,3,DL_Guitar,0.1864490509033203,0
53,100,0.2590909090909091,870,0,100,DL_Guitar,6,4,DL_Guitar,0.2581700086593628,0
53,100,0.11818181818181818,150,1,101,DL_Guitar,6,2,DL_Guitar,0.9990057349205017,1
53,100,0.1,307,0,101,DL_Guitar,6,2,DL_Guitar,0.23119749128818512,0
53,100,0.2818181818181818,409,0,101,DL_Guitar,6,5,DL_Guitar,0.2659136950969696,0
54,100,0.1,734,1,101,DL_Guitar,6,2,DL_Guitar,0.35419008135795593,0
54,100,0.1590909090909091,9,1,102,DL_Guitar,6,3,DL_Guitar,0.9990229606628418,1
53,100,0.1409090909090909,43,0,102,DL_Guitar,6,2,DL_Guitar,0.3666124641895294,0
53,100,0.17727272727272728,633,1,102,DL_Guitar,6,3,DL_Guitar,0.45328572392463684,0
58,100,1.481818181818182,343,1,1,DL_MelancholicFolk_Guitar,6,15,DL_MelancholicFolk_Guitar,0.9983165264129639,1
58,100,2.7181818181818183,681,1,1,DL_MelancholicFolk_Guitar,6,15,DL_MelancholicFolk_Guitar,0.5445454716682434,0
70,100,0.21818181818181817,413,1,2,DL_MelancholicFolk_Guitar,6,3,DL_MelancholicFolk_Guitar,0.9990230798721313,1
58,100,1.2818181818181817,461,0,2,DL_MelancholicFolk_Guitar,6,15,DL_MelancholicFolk_Guitar,0.36662834882736206,0
53,100,0.7227272727272728,752,1,2,DL_MelancholicFolk_Guitar,6,12,DL_MelancholicFolk_Guitar,0.45328155159950256,0
60,100,0.8409090909090909,34,1,3,DL_MelancholicFolk_Guitar,6,13,DL_MelancholicFolk_Guitar,0.9990230798721313,1
60,100,2.6227272727272726,223,0,3,DL_MelancholicFolk_Guitar,6,15,DL_MelancholicFolk_Guitar,0.36661067605018616,0
60,100,0.2,827,1,3,DL_MelancholicFolk_Guitar,6,3,DL_MelancholicFolk_Guitar,0.4532954692840576,0
60,100,0.3181818181818182,194,1,4,DL_MelancholicFolk_Guitar,6,5,DL_MelancholicFolk_Guitar,0.9988419413566589,1
55,100,0.8227272727272728,276,0,4,DL_MelancholicFolk_Guitar,6,13,DL_MelancholicFolk_Guitar,0.13724586367607117,0
62,100,0.7,462,0,4,DL_MelancholicFolk_Guitar,6,11,DL_MelancholicFolk_Guitar,0.1597767025232315,0
65,100,0.1409090909090909,619,0,4,DL_MelancholicFolk_Guitar,6,2,DL_MelancholicFolk_Guitar,0.18644464015960693,0
62,100,0.21818181818181817,682,0,4,DL_MelancholicFolk_Guitar,6,3,DL_MelancholicFolk_Guitar,0.2581641376018524,0
65,100,0.12272727272727273,48,1,5,DL_MelancholicFolk_Guitar,6,2,DL_MelancholicFolk_Guitar,0.9983164072036743,1
62,100,0.5409090909090909,558,1,5,DL_MelancholicFolk_Guitar,6,9,DL_MelancholicFolk_Guitar,0.5445576906204224,0
58,100,0.11818181818181818,128,1,6,DL_MelancholicFolk_Guitar,6,2,DL_MelancholicFolk_Guitar,0.9983165264129639,1
58,100,0.2409090909090909,184,0,6,DL_MelancholicFolk_Guitar,6,4,DL_MelancholicFolk_Guitar,0.5445595979690552,0
58,100,0.1590909090909091,541,1,7,DL_MelancholicFolk_Guitar,6,3,DL_MelancholicFolk_Guitar,0.9792565107345581,1
53,100,0.8227272727272728,620,1,8,DL_MelancholicFolk_Guitar,6,13,DL_MelancholicFolk_Guitar,0.9792560338973999,0
60,100,0.8409090909090909,206,1,9,DL_MelancholicFolk_Guitar,6,13,DL_MelancholicFolk_Guitar,0.979256272315979,0
60,100,0.4409090909090909,25,1,10,DL_MelancholicFolk_Guitar,6,7,DL_MelancholicFolk_Guitar,0.9792565107345581,0
58,100,0.1,56,1,13,DL_MelancholicFolk_Guitar,6,2,DL_MelancholicFolk_Guitar,0.9990057349205017,1
65,100,0.2409090909090909,409,1,13,DL_MelancholicFolk_Guitar,6,4,DL_MelancholicFolk_Guitar,0.23119834065437317,0
62,100,0.11818181818181818,831,1,13,DL_MelancholicFolk_Guitar,6,2,DL_MelancholicFolk_Guitar,0.26592037081718445,0
62,100,0.12272727272727273,862,0,13,DL_MelancholicFolk_Guitar,6,2,DL_MelancholicFolk_Guitar,0.3542053997516632,0
65,100,0.8590909090909091,166,1,14,DL_MelancholicFolk_Guitar,6,14,DL_MelancholicFolk_Guitar,0.9988419413566589,1
58,100,0.1409090909090909,355,0,14,DL_MelancholicFolk_Guitar,6,2,DL_MelancholicFolk_Guitar,0.13724495470523834,0
58,100,0.1,391,0,14,DL_MelancholicFolk_Guitar,6,2,DL_MelancholicFolk_Guitar,0.15977227687835693,0
65,100,0.1,465,0,14,DL_MelancholicFolk_Guitar,6,2,DL_MelancholicFolk_Guitar,0.18644119799137115,0
58,100,0.4636363636363636,795,1,14,DL_MelancholicFolk_Guitar,6,7,DL_MelancholicFolk_Guitar,0.2581488788127899,0
65,100,0.2,44,1,15,DL_MelancholicFolk_Guitar,6,3,DL_MelancholicFolk_Guitar,0.9990057349205017,1
58,100,0.7,106,0,15,DL_MelancholicFolk_Guitar,6,11,DL_MelancholicFolk_Guitar,0.23120947182178497,0
58,100,0.4818181818181818,422,1,15,DL_MelancholicFolk_Guitar,6,8,DL_MelancholicFolk_Guitar,0.2659260034561157,0
65,100,0.8409090909090909,716,1,15,DL_MelancholicFolk_Guitar,6,13,DL_MelancholicFolk_Guitar,0.35418900847435,0
65,100,0.2,113,1,17,DL_MelancholicFolk_Guitar,6,3,DL_MelancholicFolk_Guitar,0.9983165264129639,1
65,100,0.18181818181818182,223,0,17,DL_MelancholicFolk_Guitar,6,3,DL_MelancholicFolk_Guitar,0.5445535182952881,0
65,100,1.459090909090909,515,1,18,DL_MelancholicFolk_Guitar,6,15,DL_MelancholicFolk_Guitar,0.9792554974555969,0
58,100,0.6181818181818182,457,1,19,DL_MelancholicFolk_Guitar,6,10,DL_MelancholicFolk_Guitar,0.9990230798721313,1
53,100,0.8409090909090909,598,0,19,DL_MelancholicFolk_Guitar,6,13,DL_MelancholicFolk_Guitar,0.36661919951438904,0
53,100,0.18181818181818182,858,1,19,DL_MelancholicFolk_Guitar,6,3,DL_MelancholicFolk_Guitar,0.4532831311225891,0
65,100,0.12272727272727273,48,1,20,DL_MelancholicFolk_Guitar,6,2,DL_MelancholicFolk_Guitar,0.9990057349205017,1
53,100,0.4,75,0,20,DL_MelancholicFolk_Guitar,6,6,DL_MelancholicFolk_Guitar,0.23120257258415222,0
65,100,0.23636363636363636,171,0,20,DL_MelancholicFolk_Guitar,6,4,DL_MelancholicFolk_Guitar,0.26592299342155457,0
65,100,0.3409090909090909,691,1,20,DL_MelancholicFolk_Guitar,6,5,DL_MelancholicFolk_Guitar,0.35419535636901855,0
70,100,0.740909090909091,581,1,21,DL_MelancholicFolk_Guitar,6,12,DL_MelancholicFolk_Guitar,0.9792559146881104,0
58,100,0.35909090909090907,52,1,22,DL_MelancholicFolk_Guitar,6,6,DL_MelancholicFolk_Guitar,0.9986500144004822,1
65,100,0.8590909090909091,229,0,22,DL_MelancholicFolk_Guitar,6,14,DL_MelancholicFolk_Guitar,0.08780205249786377,0
63,100,0.12272727272727273,422,0,22,DL_MelancholicFolk_Guitar,6,2,DL_MelancholicFolk_Guitar,0.09181354939937592,0
53,100,0.3181818181818182,461,0,22,DL_MelancholicFolk_Guitar,6,5,DL_MelancholicFolk_Guitar,0.10747666656970978,0
53,100,0.1,540,0,22,DL_MelancholicFolk_Guitar,6,2,DL_MelancholicFolk_Guitar,0.12482456117868423,0
60,100,0.1,835,1,22,DL_MelancholicFolk_Guitar,6,2,DL_MelancholicFolk_Guitar,0.17902903258800507,0
65,100,0.33636363636363636,193,1,23,DL_MelancholicFolk_Guitar,6,5,DL_MelancholicFolk_Guitar,0.9988419413566589,1
55,100,0.6,370,0,23,DL_MelancholicFolk_Guitar,6,10,DL_MelancholicFolk_Guitar,0.1372513622045517,0
55,100,0.11818181818181818,546,0,23,DL_MelancholicFolk_Guitar,6,2,DL_MelancholicFolk_Guitar,0.1597772091627121,0
53,100,0.1590909090909091,625,0,23,DL_MelancholicFolk_Guitar,6,3,DL_MelancholicFolk_Guitar,0.1864495426416397,0
65,100,1.240909090909091,663,0,23,DL_MelancholicFolk_Guitar,6,15,DL_MelancholicFolk_Guitar,0.2581496238708496,0
53,100,0.1,65,1,24,DL_MelancholicFolk_Guitar,6,2,DL_MelancholicFolk_Guitar,0.9990229606628418,1
65,100,1.1,395,1,24,DL_MelancholicFolk_Guitar,6,15,DL_MelancholicFolk_Guitar,0.36661580204963684,0
65,100,0.21818181818181817,656,1,24,DL_MelancholicFolk_Guitar,6,3,DL_MelancholicFolk_Guitar,0.45328810811042786,0
58,100,0.2590909090909091,83,1,25,DL_MelancholicFolk_Guitar,6,4,DL_MelancholicFolk_Guitar,0.9990057349205017,1
65,100,0.43636363636363634,171,0,25,DL_MelancholicFolk_Guitar,6,7,DL_MelancholicFolk_Guitar,0.23119889199733734,0
53,100,0.2409090909090909,409,1,25,DL_MelancholicFolk_Guitar,6,4,DL_MelancholicFolk_Guitar,0.2659132480621338,0
60,100,0.2409090909090909,712,1,25,DL_MelancholicFolk_Guitar,6,4,DL_MelancholicFolk_Guitar,0.3541921377182007,0
69,100,0.2636363636363636,48,1,26,DL_MelancholicFolk_Guitar,6,4,DL_MelancholicFolk_Guitar,0.9984880685806274,1
53,100,0.2818181818181818,241,0,26,DL_MelancholicFolk_Guitar,6,5,DL_MelancholicFolk_Guitar,0.06334591656923294,0
53,100,0.35909090909090907,480,1,26,DL_MelancholicFolk_Guitar,6,6,DL_MelancholicFolk_Guitar,0.05774198845028877,0
58,100,0.5,590,0,26,DL_MelancholicFolk_Guitar,6,8,DL_MelancholicFolk_Guitar,0.0602005310356617,0
53,100,0.2818181818181818,729,0,26,DL_MelancholicFolk_Guitar,6,5,DL_MelancholicFolk_Guitar,0.06970138847827911,0
65,100,0.11818181818181818,791,0,26,DL_MelancholicFolk_Guitar,6,2,DL_MelancholicFolk_Guitar,0.0818905457854271,0
53,100,0.16363636363636364,818,0,26,DL_MelancholicFolk_Guitar,6,3,DL_MelancholicFolk_Guitar,0.12401804327964783,0
65,100,1.1409090909090909,88,1,28,DL_MelancholicFolk_Guitar,6,15,DL_MelancholicFolk_Guitar,0.9983164072036743,1
53,100,0.1409090909090909,339,1,28,DL_MelancholicFolk_Guitar,6,2,DL_MelancholicFolk_Guitar,0.5445594191551208,0
55,100,1.059090909090909,254,1,29,DL_MelancholicFolk_Guitar,6,15,DL_MelancholicFolk_Guitar,0.9990229606628418,1
58,100,0.5,523,1,29,DL_MelancholicFolk_Guitar,6,8,DL_MelancholicFolk_Guitar,0.3666227161884308,0
65,100,0.5,694,0,29,DL_MelancholicFolk_Guitar,6,8,DL_MelancholicFolk_Guitar,0.45329156517982483,0
65,100,0.17727272727272728,391,1,30,DL_MelancholicFolk_Guitar,6,3,DL_MelancholicFolk_Guitar,0.9990057349205017,1
53,100,0.18181818181818182,430,0,30,DL_MelancholicFolk_Guitar,6,3,DL_MelancholicFolk_Guitar,0.23120078444480896,0
65,100,0.1409090909090909,470,0,30,DL_MelancholicFolk_Guitar,6,2,DL_MelancholicFolk_Guitar,0.26591575145721436,0
53,100,0.2590909090909091,501,0,30,DL_MelancholicFolk_Guitar,6,4,DL_MelancholicFolk_Guitar,0.3541923761367798,0
58,100,0.6363636363636364,40,1,31,DL_MelancholicFolk_Guitar,6,10,DL_MelancholicFolk_Guitar,0.9988419413566589,1
65,100,0.1,254,0,31,DL_MelancholicFolk_Guitar,6,2,DL_MelancholicFolk_Guitar,0.13724397122859955,0
53,100,0.13636363636363635,303,0,31,DL_MelancholicFolk_Guitar,6,2,DL_MelancholicFolk_Guitar,0.1597692221403122,0
60,100,0.1590909090909091,791,1,31,DL_MelancholicFolk_Guitar,6,3,DL_MelancholicFolk_Guitar,0.18644510209560394,0
65,100,0.1,870,0,31,DL_MelancholicFolk_Guitar,6,2,DL_MelancholicFolk_Guitar,0.25816091895103455,0
65,100,0.22272727272727272,641,1,32,DL_MelancholicFolk_Guitar,6,4,DL_MelancholicFolk_Guitar,0.9990229606628418,1
58,100,0.1590909090909091,765,0,32,DL_MelancholicFolk_Guitar,6,3,DL_MelancholicFolk_Guitar,0.3666291832923889,0
55,100,1.1409090909090909,818,0,32,DL_MelancholicFolk_Guitar,6,15,DL_MelancholicFolk_Guitar,0.45328283309936523,0
53,100,0.11818181818181818,193,1,33,DL_MelancholicFolk_Guitar,6,2,DL_MelancholicFolk_Guitar,0.9990057349205017,1
53,100,0.1409090909090909,361,0,33,DL_MelancholicFolk_Guitar,6,2,DL_MelancholicFolk_Guitar,0.23119644820690155,0
53,100,0.1409090909090909,453,0,33,DL_MelancholicFolk_Guitar,6,2,DL_MelancholicFolk_Guitar,0.26591596007347107,0
63,100,0.2772727272727273,765,1,33,DL_MelancholicFolk_Guitar,6,4,DL_MelancholicFolk_Guitar,0.35419154167175293,0
55,100,0.32272727272727275,48,1,34,DL_MelancholicFolk_Guitar,6,5,DL_MelancholicFolk_Guitar,0.9984880685806274,1
55,100,0.6,136,0,34,DL_MelancholicFolk_Guitar,6,10,DL_MelancholicFolk_Guitar,0.06334495544433594,0
62,100,0.4818181818181818,298,0,34,DL_MelancholicFolk_Guitar,6,8,DL_MelancholicFolk_Guitar,0.057742394506931305,0
60,100,0.6409090909090909,616,1,34,DL_MelancholicFolk_Guitar,6,10,DL_MelancholicFolk_Guitar,0.060202717781066895,0
53,100,0.1590909090909091,765,0,34,DL_MelancholicFolk_Guitar,6,3,DL_MelancholicFolk_Guitar,0.0697033479809761,0
65,100,0.17727272727272728,801,0,34,DL_MelancholicFolk_Guitar,6,3,DL_MelancholicFolk_Guitar,0.08189327269792557,0
53,100,0.2,861,0,34,DL_MelancholicFolk_Guitar,6,3,DL_MelancholicFolk_Guitar,0.12402217835187912,0
65,100,0.6227272727272727,56,1,35,DL_MelancholicFolk_Guitar,6,10,DL_MelancholicFolk_Guitar,0.9986500144004822,1
65,100,0.1409090909090909,211,0,35,DL_MelancholicFolk_Guitar,6,2,DL_MelancholicFolk_Guitar,0.08780210465192795,0
65,100,0.6818181818181818,378,0,35,DL_MelancholicFolk_Guitar,6,11,DL_MelancholicFolk_Guitar,0.0918109193444252,0
65,100,0.2,584,0,35,DL_MelancholicFolk_Guitar,6,3,DL_MelancholicFolk_Guitar,0.10747808963060379,0
53,100,0.2409090909090909,628,0,35,DL_MelancholicFolk_Guitar,6,4,DL_MelancholicFolk_Guitar,0.12482354789972305,0
53,100,0.8363636363636363,765,0,35,DL_MelancholicFolk_Guitar,6,13,DL_MelancholicFolk_Guitar,0.17902794480323792,0
53,100,0.1590909090909091,118,1,36,DL_MelancholicFolk_Guitar,6,3,DL_MelancholicFolk_Guitar,0.9990229606628418,1
53,100,0.22272727272727272,311,0,36,DL_MelancholicFolk_Guitar,6,4,DL_MelancholicFolk_Guitar,0.36663365364074707,0
53,100,0.9409090909090909,474,0,36,DL_MelancholicFolk_Guitar,6,15,DL_MelancholicFolk_Guitar,0.45328429341316223,0
53,100,0.17727272727272728,523,1,37,DL_MelancholicFolk_Guitar,6,3,DL_MelancholicFolk_Guitar,0.9983165264129639,1
60,100,0.11818181818181818,611,0,37,DL_MelancholicFolk_Guitar,6,2,DL_MelancholicFolk_Guitar,0.5445625185966492,0
65,100,0.2,0,1,38,DL_MelancholicFolk_Guitar,6,3,DL_MelancholicFolk_Guitar,0.9984880685806274,1
58,100,0.4636363636363636,69,0,38,DL_MelancholicFolk_Guitar,6,7,DL_MelancholicFolk_Guitar,0.06334472447633743,0
65,100,0.18181818181818182,268,0,38,DL_MelancholicFolk_Guitar,6,3,DL_MelancholicFolk_Guitar,0.05773979797959328,0
65,100,0.3181818181818182,625,1,38,DL_MelancholicFolk_Guitar,6,5,DL_MelancholicFolk_Guitar,0.06019953638315201,0
65,100,0.2,756,0,38,DL_MelancholicFolk_Guitar,6,3,DL_MelancholicFolk_Guitar,0.06970009952783585,0
65,100,0.11818181818181818,813,0,38,DL_MelancholicFolk_Guitar,6,2,DL_MelancholicFolk_Guitar,0.08189097046852112,0
65,100,0.2,845,0,38,DL_MelancholicFolk_Guitar,6,3,DL_MelancholicFolk_Guitar,0.12401100248098373,0
65,100,1.518181818181818,53,1,39,DL_MelancholicFolk_Guitar,6,15,DL_MelancholicFolk_Guitar,0.9988419413566589,1
53,100,0.4,444,1,39,DL_MelancholicFolk_Guitar,6,6,DL_MelancholicFolk_Guitar,0.13724838197231293,0
65,100,0.4,531,0,39,DL_MelancholicFolk_Guitar,6,6,DL_MelancholicFolk_Guitar,0.1597743183374405,0
60,100,0.22272727272727272,694,0,39,DL_MelancholicFolk_Guitar,6,4,DL_MelancholicFolk_Guitar,0.18645025789737701,0
60,100,0.21818181818181817,748,0,39,DL_MelancholicFolk_Guitar,6,3,DL_MelancholicFolk_Guitar,0.2581614851951599,0
65,100,0.2,61,1,40,DL_MelancholicFolk_Guitar,6,3,DL_MelancholicFolk_Guitar,0.9988419413566589,1
65,100,0.11818181818181818,206,0,40,DL_MelancholicFolk_Guitar,6,2,DL_MelancholicFolk_Guitar,0.13724620640277863,0
53,100,0.22272727272727272,651,1,40,DL_MelancholicFolk_Guitar,6,4,DL_MelancholicFolk_Guitar,0.1597742885351181,0
65,100,0.37727272727272726,700,0,40,DL_MelancholicFolk_Guitar,6,6,DL_MelancholicFolk_Guitar,0.18644587695598602,0
55,100,1.3409090909090908,813,0,40,DL_MelancholicFolk_Guitar,6,15,DL_MelancholicFolk_Guitar,0.25815752148628235,0
58,100,0.7227272727272728,246,1,41,DL_MelancholicFolk_Guitar,6,12,DL_MelancholicFolk_Guitar,0.9990229606628418,1
58,100,0.4,550,1,41,DL_MelancholicFolk_Guitar,6,6,DL_MelancholicFolk_Guitar,0.3666202127933502,0
55,100,0.6590909090909091,735,0,41,DL_MelancholicFolk_Guitar,6,11,DL_MelancholicFolk_Guitar,0.45328617095947266,0
65,100,0.11818181818181818,131,1,42,DL_MelancholicFolk_Guitar,6,2,DL_MelancholicFolk_Guitar,0.9988419413566589,1
58,100,0.18181818181818182,179,0,42,DL_MelancholicFolk_Guitar,6,3,DL_MelancholicFolk_Guitar,0.13724878430366516,0
65,100,0.35909090909090907,228,0,42,DL_MelancholicFolk_Guitar,6,6,DL_MelancholicFolk_Guitar,0.15977491438388824,0
63,100,0.2818181818181818,334,0,42,DL_MelancholicFolk_Guitar,6,5,DL_MelancholicFolk_Guitar,0.1864459067583084,0
58,100,0.13636363636363635,545,0,42,DL_MelancholicFolk_Guitar,6,2,DL_MelancholicFolk_Guitar,0.25816744565963745,0
63,100,0.11818181818181818,241,1,43,DL_MelancholicFolk_Guitar,6,2,DL_MelancholicFolk_Guitar,0.9990057349205017,1
58,100,0.35909090909090907,581,1,43,DL_MelancholicFolk_Guitar,6,6,DL_MelancholicFolk_Guitar,0.231207937002182,0
65,100,0.12272727272727273,694,0,43,DL_MelancholicFolk_Guitar,6,2,DL_MelancholicFolk_Guitar,0.2659316956996918,0
55,100,1.040909090909091,756,0,43,DL_MelancholicFolk_Guitar,6,15,DL_MelancholicFolk_Guitar,0.3541945219039917,0
55,100,0.4,364,1,44,DL_MelancholicFolk_Guitar,6,6,DL_MelancholicFolk_Guitar,0.9990229606628418,1
58,100,0.2409090909090909,606,1,44,DL_MelancholicFolk_Guitar,6,4,DL_MelancholicFolk_Guitar,0.3666233718395233,0
58,100,0.6181818181818182,836,0,44,DL_MelancholicFolk_Guitar,6,10,DL_MelancholicFolk_Guitar,0.4532831311225891,0
53,100,0.1590909090909091,101,1,45,DL_MelancholicFolk_Guitar,6,3,DL_MelancholicFolk_Guitar,0.9984879493713379,1
65,100,0.3,136,0,45,DL_MelancholicFolk_Guitar,6,5,DL_MelancholicFolk_Guitar,0.06334299594163895,0
58,100,0.1409090909090909,220,0,45,DL_MelancholicFolk_Guitar,6,2,DL_MelancholicFolk_Guitar,0.0577404610812664,0
65,100,0.740909090909091,298,0,45,DL_MelancholicFolk_Guitar,6,12,DL_MelancholicFolk_Guitar,0.06019792705774307,0
65,100,0.5227272727272727,466,0,45,DL_MelancholicFolk_Guitar,6,8,DL_MelancholicFolk_Guitar,0.0696999803185463,0
53,100,0.1590909090909091,584,0,45,DL_MelancholicFolk_Guitar,6,3,DL_MelancholicFolk_Guitar,0.08189114928245544,0
65,100,0.4818181818181818,628,0,45,DL_MelancholicFolk_Guitar,6,8,DL_MelancholicFolk_Guitar,0.12401510775089264,0
60,100,0.8772727272727273,8,1,46,DL_MelancholicFolk_Guitar,6,14,DL_MelancholicFolk_Guitar,0.9990229606628418,1
60,100,0.5818181818181818,373,1,46,DL_MelancholicFolk_Guitar,6,9,DL_MelancholicFolk_Guitar,0.36662304401397705,0
53,100,0.4,515,0,46,DL_MelancholicFolk_Guitar,6,6,DL_MelancholicFolk_Guitar,0.4532815217971802,0
58,100,0.12272727272727273,276,1,47,DL_MelancholicFolk_Guitar,6,2,DL_MelancholicFolk_Guitar,0.9983165264129639,1
65,100,0.16363636363636364,774,1,47,DL_MelancholicFolk_Guitar,6,3,DL_MelancholicFolk_Guitar,0.5445586442947388,0
58,100,0.6227272727272727,48,1,48,DL_MelancholicFolk_Guitar,6,10,DL_MelancholicFolk_Guitar,0.9986500144004822,1
53,100,0.4,188,0,48,DL_MelancholicFolk_Guitar,6,6,DL_MelancholicFolk_Guitar,0.08780381083488464,0
60,100,0.5,413,0,48,DL_MelancholicFolk_Guitar,6,8,DL_MelancholicFolk_Guitar,0.0918157771229744,0
53,100,0.2772727272727273,603,0,48,DL_MelancholicFolk_Guitar,6,4,DL_MelancholicFolk_Guitar,0.1074778139591217,0
53,100,0.2,668,0,48,DL_MelancholicFolk_Guitar,6,3,DL_MelancholicFolk_Guitar,0.12482735514640808,0
65,100,0.12272727272727273,716,0,48,DL_MelancholicFolk_Guitar,6,2,DL_MelancholicFolk_Guitar,0.17903269827365875,0
65,100,0.21818181818181817,40,1,49,DL_MelancholicFolk_Guitar,6,3,DL_MelancholicFolk_Guitar,0.9983736276626587,1
53,100,0.8181818181818182,96,0,49,DL_MelancholicFolk_Guitar,6,13,DL_MelancholicFolk_Guitar,0.05105920508503914,0
65,100,0.11818181818181818,281,0,49,DL_MelancholicFolk_Guitar,6,2,DL_MelancholicFolk_Guitar,0.041302621364593506,0
53,100,0.4409090909090909,351,0,49,DL_MelancholicFolk_Guitar,6,7,DL_MelancholicFolk_Guitar,0.037384554743766785,0
53,100,0.23636363636363636,458,0,49,DL_MelancholicFolk_Guitar,6,4,DL_MelancholicFolk_Guitar,0.038328301161527634,0
65,100,0.12272727272727273,509,0,49,DL_MelancholicFolk_Guitar,6,2,DL_MelancholicFolk_Guitar,0.04474959149956703,0
58,100,0.35909090909090907,651,0,49,DL_MelancholicFolk_Guitar,6,6,DL_MelancholicFolk_Guitar,0.05522631108760834,0
65,100,0.1409090909090909,791,0,49,DL_MelancholicFolk_Guitar,6,2,DL_MelancholicFolk_Guitar,0.09025820344686508,0
58,100,0.5409090909090909,716,1,50,DL_MelancholicFolk_Guitar,6,9,DL_MelancholicFolk_Guitar,0.9983164072036743,1
53,100,0.1409090909090909,858,0,50,DL_MelancholicFolk_Guitar,6,2,DL_MelancholicFolk_Guitar,0.5445550680160522,0
58,100,0.17727272727272728,8,1,51,DL_MelancholicFolk_Guitar,6,3,DL_MelancholicFolk_Guitar,0.9986500144004822,1
53,100,0.2,48,0,51,DL_MelancholicFolk_Guitar,6,3,DL_MelancholicFolk_Guitar,0.08780142664909363,0
58,100,0.11818181818181818,96,0,51,DL_MelancholicFolk_Guitar,6,2,DL_MelancholicFolk_Guitar,0.09181120246648788,0
53,100,0.21818181818181817,448,1,51,DL_MelancholicFolk_Guitar,6,3,DL_MelancholicFolk_Guitar,0.1074758768081665,0
53,100,0.17727272727272728,523,0,51,DL_MelancholicFolk_Guitar,6,3,DL_MelancholicFolk_Guitar,0.12482228875160217,0
53,100,0.35909090909090907,568,0,51,DL_MelancholicFolk_Guitar,6,6,DL_MelancholicFolk_Guitar,0.17903123795986176,0
62,100,0.1590909090909091,153,1,52,DL_MelancholicFolk_Guitar,6,3,DL_MelancholicFolk_Guitar,0.9990057349205017,1
60,100,0.12272727272727273,268,0,52,DL_MelancholicFolk_Guitar,6,2,DL_MelancholicFolk_Guitar,0.2312059849500656,0
62,100,0.18181818181818182,466,0,52,DL_MelancholicFolk_Guitar,6,3,DL_MelancholicFolk_Guitar,0.26592227816581726,0
60,100,0.5409090909090909,598,0,52,DL_MelancholicFolk_Guitar,6,9,DL_MelancholicFolk_Guitar,0.3542056679725647,0
65,100,0.21818181818181817,96,1,53,DL_MelancholicFolk_Guitar,6,3,DL_MelancholicFolk_Guitar,0.9986500144004822,1
53,100,0.18181818181818182,224,0,53,DL_MelancholicFolk_Guitar,6,3,DL_MelancholicFolk_Guitar,0.08780327439308167,0
65,100,0.1,263,0,53,DL_MelancholicFolk_Guitar,6,2,DL_MelancholicFolk_Guitar,0.09181218594312668,0
65,100,0.2,399,0,53,DL_MelancholicFolk_Guitar,6,3,DL_MelancholicFolk_Guitar,0.10747522115707397,0
65,100,0.21818181818181817,515,0,53,DL_MelancholicFolk_Guitar,6,3,DL_MelancholicFolk_Guitar,0.12482236325740814,0
65,100,0.8227272727272728,619,0,53,DL_MelancholicFolk_Guitar,6,13,DL_MelancholicFolk_Guitar,0.17902198433876038,0
65,100,0.2818181818181818,0,1,54,DL_MelancholicFolk_Guitar,6,5,DL_MelancholicFolk_Guitar,0.9983003735542297,1
53,100,0.16363636363636364,69,0,54,DL_MelancholicFolk_Guitar,6,3,DL_MelancholicFolk_Guitar,0.044662971049547195,0
65,100,0.21818181818181817,141,0,54,DL_MelancholicFolk_Guitar,6,3,DL_MelancholicFolk_Guitar,0.033148735761642456,0
53,100,0.7181818181818181,215,0,54,DL_MelancholicFolk_Guitar,6,11,DL_MelancholicFolk_Guitar,0.02657845802605152,0
53,100,0.37727272727272726,391,0,54,DL_MelancholicFolk_Guitar,6,6,DL_MelancholicFolk_Guitar,0.0235939659178257,0
53,100,0.2590909090909091,501,0,54,DL_MelancholicFolk_Guitar,6,4,DL_MelancholicFolk_Guitar,0.024313025176525116,0
60,100,0.1409090909090909,606,0,54,DL_MelancholicFolk_Guitar,6,2,DL_MelancholicFolk_Guitar,0.029688706621527672,0
55,100,0.1409090909090909,735,0,54,DL_MelancholicFolk_Guitar,6,2,DL_MelancholicFolk_Guitar,0.040074680000543594,0
65,100,0.11818181818181818,823,0,54,DL_MelancholicFolk_Guitar,6,2,DL_MelancholicFolk_Guitar,0.07092660665512085,0
65,100,0.6772727272727272,171,1,55,DL_MelancholicFolk_Guitar,6,11,DL_MelancholicFolk_Guitar,0.9990229606628418,1
55,100,0.2590909090909091,338,0,55,DL_MelancholicFolk_Guitar,6,4,DL_MelancholicFolk_Guitar,0.36662784218788147,0
55,100,0.21818181818181817,413,0,55,DL_MelancholicFolk_Guitar,6,3,DL_MelancholicFolk_Guitar,0.4532894790172577,0
53,100,0.17727272727272728,75,1,56,DL_MelancholicFolk_Guitar,6,3,DL_MelancholicFolk_Guitar,0.9986500144004822,1
58,100,0.2,114,0,56,DL_MelancholicFolk_Guitar,6,3,DL_MelancholicFolk_Guitar,0.08780483901500702,0
58,100,0.18181818181818182,179,0,56,DL_MelancholicFolk_Guitar,6,3,DL_MelancholicFolk_Guitar,0.09181346744298935,0
58,100,0.18181818181818182,483,1,56,DL_MelancholicFolk_Guitar,6,3,DL_MelancholicFolk_Guitar,0.10747846215963364,0
65,100,0.21818181818181817,616,0,56,DL_MelancholicFolk_Guitar,6,3,DL_MelancholicFolk_Guitar,0.12482242286205292,0
65,100,0.1409090909090909,845,0,56,DL_MelancholicFolk_Guitar,6,2,DL_MelancholicFolk_Guitar,0.17903131246566772,0
60,100,0.41818181818181815,8,1,57,DL_MelancholicFolk_Guitar,6,7,DL_MelancholicFolk_Guitar,0.9990057349205017,1
65,100,0.12272727272727273,334,1,57,DL_MelancholicFolk_Guitar,6,2,DL_MelancholicFolk_Guitar,0.23119746148586273,0
53,100,0.3,488,0,57,DL_MelancholicFolk_Guitar,6,5,DL_MelancholicFolk_Guitar,0.26591378450393677,0
60,100,0.1409090909090909,593,0,57,DL_MelancholicFolk_Guitar,6,2,DL_MelancholicFolk_Guitar,0.35419145226478577,0
65,100,0.2409090909090909,91,1,58,DL_MelancholicFolk_Guitar,6,4,DL_MelancholicFolk_Guitar,0.9990057349205017,1
65,100,0.11818181818181818,163,0,58,DL_MelancholicFolk_Guitar,6,2,DL_MelancholicFolk_Guitar,0.2312067449092865,0
62,100,0.21818181818181817,325,0,58,DL_MelancholicFolk_Guitar,6,3,DL_MelancholicFolk_Guitar,0.2659269869327545,0
60,100,1.440909090909091,418,0,58,DL_MelancholicFolk_Guitar,6,15,DL_MelancholicFolk_Guitar,0.35420122742652893,0
65,100,0.18181818181818182,123,1,59,DL_MelancholicFolk_Guitar,6,3,DL_MelancholicFolk_Guitar,0.9983165264129639,1
58,100,0.2818181818181818,751,1,59,DL_MelancholicFolk_Guitar,6,5,DL_MelancholicFolk_Guitar,0.5445621013641357,0
60,100,0.11818181818181818,21,1,60,DL_MelancholicFolk_Guitar,6,2,DL_MelancholicFolk_Guitar,0.9983736276626587,1
53,100,0.1,91,0,60,DL_MelancholicFolk_Guitar,6,2,DL_MelancholicFolk_Guitar,0.05105932801961899,0
53,100,0.1409090909090909,131,0,60,DL_MelancholicFolk_Guitar,6,2,DL_MelancholicFolk_Guitar,0.041301336139440536,0
60,100,0.4,176,0,60,DL_MelancholicFolk_Guitar,6,6,DL_MelancholicFolk_Guitar,0.03738429397344589,0
53,100,0.1590909090909091,263,0,60,DL_MelancholicFolk_Guitar,6,3,DL_MelancholicFolk_Guitar,0.03832755982875824,0
53,100,0.21818181818181817,330,0,60,DL_MelancholicFolk_Guitar,6,3,DL_MelancholicFolk_Guitar,0.044749125838279724,0
53,100,0.1590909090909091,426,0,60,DL_MelancholicFolk_Guitar,6,3,DL_MelancholicFolk_Guitar,0.055226996541023254,0
55,100,0.41818181818181815,646,0,60,DL_MelancholicFolk_Guitar,6,7,DL_MelancholicFolk_Guitar,0.09025926142930984,0
58,100,0.12272727272727273,246,1,61,DL_MelancholicFolk_Guitar,6,2,DL_MelancholicFolk_Guitar,0.9990057349205017,1
60,100,0.5409090909090909,541,1,61,DL_MelancholicFolk_Guitar,6,9,DL_MelancholicFolk_Guitar,0.23120731115341187,0
60,100,0.7636363636363637,664,0,61,DL_MelancholicFolk_Guitar,6,12,DL_MelancholicFolk_Guitar,0.26593074202537537,0
53,100,0.16363636363636364,839,0,61,DL_MelancholicFolk_Guitar,6,3,DL_MelancholicFolk_Guitar,0.3541920781135559,0
57,100,0.17727272727272728,61,1,62,DL_MelancholicFolk_Guitar,6,3,DL_MelancholicFolk_Guitar,0.9990229606628418,1
58,100,0.11818181818181818,418,1,62,DL_MelancholicFolk_Guitar,6,2,DL_MelancholicFolk_Guitar,0.3666248619556427,0
58,100,0.2,853,1,62,DL_MelancholicFolk_Guitar,6,3,DL_MelancholicFolk_Guitar,0.45329204201698303,0
65,100,0.18181818181818182,408,1,63,DL_MelancholicFolk_Guitar,6,3,DL_MelancholicFolk_Guitar,0.9983165264129639,1
53,100,0.16363636363636364,509,0,63,DL_MelancholicFolk_Guitar,6,3,DL_MelancholicFolk_Guitar,0.5445547699928284,0
53,100,0.1590909090909091,286,1,64,DL_MelancholicFolk_Guitar,6,3,DL_MelancholicFolk_Guitar,0.9984880685806274,1
65,100,0.11818181818181818,370,0,64,DL_MelancholicFolk_Guitar,6,2,DL_MelancholicFolk_Guitar,0.06334523111581802,0
65,100,0.11818181818181818,413,0,64,DL_MelancholicFolk_Guitar,6,2,DL_MelancholicFolk_Guitar,0.05774126201868057,0
53,100,0.1409090909090909,440,0,64,DL_MelancholicFolk_Guitar,6,2,DL_MelancholicFolk_Guitar,0.06020279973745346,0
60,100,0.4,502,0,64,DL_MelancholicFolk_Guitar,6,6,DL_MelancholicFolk_Guitar,0.06970281898975372,0
53,100,0.35909090909090907,760,1,64,DL_MelancholicFolk_Guitar,6,6,DL_MelancholicFolk_Guitar,0.0818953886628151,0
65,100,0.18181818181818182,839,0,64,DL_MelancholicFolk_Guitar,6,3,DL_MelancholicFolk_Guitar,0.12401953339576721,0
58,100,0.35909090909090907,760,1,65,DL_MelancholicFolk_Guitar,6,6,DL_MelancholicFolk_Guitar,0.9983166456222534,1
58,100,0.16363636363636364,862,0,65,DL_MelancholicFolk_Guitar,6,3,DL_MelancholicFolk_Guitar,0.5445587635040283,0
58,100,0.7,106,1,66,DL_MelancholicFolk_Guitar,6,11,DL_MelancholicFolk_Guitar,0.9990057349205017,1
63,100,0.18181818181818182,333,0,66,DL_MelancholicFolk_Guitar,6,3,DL_MelancholicFolk_Guitar,0.23119471967220306,0
53,100,0.17727272727272728,436,0,66,DL_MelancholicFolk_Guitar,6,3,DL_MelancholicFolk_Guitar,0.26592111587524414,0
53,100,0.2590909090909091,519,0,66,DL_MelancholicFolk_Guitar,6,4,DL_MelancholicFolk_Guitar,0.35419154167175293,0
53,100,0.2,127,1,67,DL_MelancholicFolk_Guitar,6,3,DL_MelancholicFolk_Guitar,0.9990057349205017,1
65,100,0.13636363636363635,172,0,67,DL_MelancholicFolk_Guitar,6,2,DL_MelancholicFolk_Guitar,0.2312018722295761,0
53,100,0.12272727272727273,202,0,67,DL_MelancholicFolk_Guitar,6,2,DL_MelancholicFolk_Guitar,0.26591476798057556,0
53,100,0.8409090909090909,862,1,67,DL_MelancholicFolk_Guitar,6,13,DL_MelancholicFolk_Guitar,0.35418951511383057,0
65,100,0.11818181818181818,193,1,68,DL_MelancholicFolk_Guitar,6,2,DL_MelancholicFolk_Guitar,0.9988419413566589,1
65,100,0.2636363636363636,223,0,68,DL_MelancholicFolk_Guitar,6,4,DL_MelancholicFolk_Guitar,0.13724514842033386,0
65,100,0.2,286,0,68,DL_MelancholicFolk_Guitar,6,3,DL_MelancholicFolk_Guitar,0.15977708995342255,0
65,100,0.1,399,0,68,DL_MelancholicFolk_Guitar,6,2,DL_MelancholicFolk_Guitar,0.1864449381828308,0
65,100,1.2227272727272727,487,0,68,DL_MelancholicFolk_Guitar,6,15,DL_MelancholicFolk_Guitar,0.25815507769584656,0
65,100,1.0772727272727274,140,1,69,DL_MelancholicFolk_Guitar,6,15,DL_MelancholicFolk_Guitar,0.9983164072036743,1
58,100,0.1590909090909091,493,1,69,DL_MelancholicFolk_Guitar,6,3,DL_MelancholicFolk_Guitar,0.5445604920387268,0
65,100,0.12272727272727273,320,1,70,DL_MelancholicFolk_Guitar,6,2,DL_MelancholicFolk_Guitar,0.9988419413566589,1
65,100,0.1590909090909091,352,0,70,DL_MelancholicFolk_Guitar,6,3,DL_MelancholicFolk_Guitar,0.13724377751350403,0
65,100,0.2818181818181818,409,0,70,DL_MelancholicFolk_Guitar,6,5,DL_MelancholicFolk_Guitar,0.1597781479358673,0
58,100,1.3772727272727272,470,0,70,DL_MelancholicFolk_Guitar,6,15,DL_MelancholicFolk_Guitar,0.18644273281097412,0
60,100,1.518181818181818,787,1,70,DL_MelancholicFolk_Guitar,6,15,DL_MelancholicFolk_Guitar,0.2581627666950226,0
65,100,0.6,276,1,71,DL_MelancholicFolk_Guitar,6,10,DL_MelancholicFolk_Guitar,0.9990229606628418,1
65,100,0.6,430,0,71,DL_MelancholicFolk_Guitar,6,10,DL_MelancholicFolk_Guitar,0.3666236400604248,0
65,100,1.3636363636363635,576,0,71,DL_MelancholicFolk_Guitar,6,15,DL_MelancholicFolk_Guitar,0.4532918334007263,0
60,100,1.3,0,1,72,DL_MelancholicFolk_Guitar,6,15,DL_MelancholicFolk_Guitar,0.9990229606628418,1
58,100,1.2227272727272727,333,1,72,DL_MelancholicFolk_Guitar,6,15,DL_MelancholicFolk_Guitar,0.3666120767593384,0
55,100,0.1,663,1,72,DL_MelancholicFolk_Guitar,6,2,DL_MelancholicFolk_Guitar,0.4532855749130249,0
62,100,1.518181818181818,83,1,73,DL_MelancholicFolk_Guitar,6,15,DL_MelancholicFolk_Guitar,0.9990057349205017,1
55,100,0.7,426,1,73,DL_MelancholicFolk_Guitar,6,11,DL_MelancholicFolk_Guitar,0.23120908439159393,0
65,100,0.2,663,1,73,DL_MelancholicFolk_Guitar,6,3,DL_MelancholicFolk_Guitar,0.26592233777046204,0
53,100,1.518181818181818,722,0,73,DL_MelancholicFolk_Guitar,6,15,DL_MelancholicFolk_Guitar,0.3541889488697052,0
60,100,0.759090909090909,286,1,74,DL_MelancholicFolk_Guitar,6,12,DL_MelancholicFolk_Guitar,0.9988420605659485,1
69,100,0.1590909090909091,496,0,74,DL_MelancholicFolk_Guitar,6,3,DL_MelancholicFolk_Guitar,0.13724736869335175,0
57,100,0.5181818181818182,546,0,74,DL_MelancholicFolk_Guitar,6,8,DL_MelancholicFolk_Guitar,0.15977273881435394,0
57,100,0.5227272727272727,695,0,74,DL_MelancholicFolk_Guitar,6,8,DL_MelancholicFolk_Guitar,0.18644708395004272,0
65,100,0.759090909090909,813,0,74,DL_MelancholicFolk_Guitar,6,12,DL_MelancholicFolk_Guitar,0.2581586241722107,0
65,100,0.18181818181818182,220,1,75,DL_MelancholicFolk_Guitar,6,3,DL_MelancholicFolk_Guitar,0.9983164072036743,1
65,100,1.018181818181818,580,1,75,DL_MelancholicFolk_Guitar,6,15,DL_MelancholicFolk_Guitar,0.5445511341094971,0
53,100,0.759090909090909,30,1,76,DL_MelancholicFolk_Guitar,6,12,DL_MelancholicFolk_Guitar,0.9988419413566589,1
60,100,0.1409090909090909,316,1,76,DL_MelancholicFolk_Guitar,6,2,DL_MelancholicFolk_Guitar,0.13724681735038757,0
65,100,0.2590909090909091,392,0,76,DL_MelancholicFolk_Guitar,6,4,DL_MelancholicFolk_Guitar,0.1597725749015808,0
65,100,0.1409090909090909,453,0,76,DL_MelancholicFolk_Guitar,6,2,DL_MelancholicFolk_Guitar,0.18644781410694122,0
58,100,0.8181818181818182,514,0,76,DL_MelancholicFolk_Guitar,6,13,DL_MelancholicFolk_Guitar,0.2581632137298584,0
60,100,0.2,119,1,77,DL_MelancholicFolk_Guitar,6,3,DL_MelancholicFolk_Guitar,0.9988419413566589,1
60,100,0.17727272727272728,229,0,77,DL_MelancholicFolk_Guitar,6,3,DL_MelancholicFolk_Guitar,0.1372513622045517,0
60,100,0.5590909090909091,307,0,77,DL_MelancholicFolk_Guitar,6,9,DL_MelancholicFolk_Guitar,0.1597820222377777,0
55,100,1.3590909090909091,449,0,77,DL_MelancholicFolk_Guitar,6,15,DL_MelancholicFolk_Guitar,0.18644577264785767,0
65,100,0.6818181818181818,760,1,77,DL_MelancholicFolk_Guitar,6,11,DL_MelancholicFolk_Guitar,0.2581618130207062,0
65,100,0.7,35,1,78,DL_MelancholicFolk_Guitar,6,11,DL_MelancholicFolk_Guitar,0.9990057349205017,1
65,100,0.7363636363636363,523,1,78,DL_MelancholicFolk_Guitar,6,12,DL_MelancholicFolk_Guitar,0.23120617866516113,0
58,100,0.38181818181818183,752,0,78,DL_MelancholicFolk_Guitar,6,6,DL_MelancholicFolk_Guitar,0.26592472195625305,0
53,100,0.759090909090909,849,0,78,DL_MelancholicFolk_Guitar,6,12,DL_MelancholicFolk_Guitar,0.354190856218338,0
65,100,0.4,282,1,79,DL_MelancholicFolk_Guitar,6,6,DL_MelancholicFolk_Guitar,0.9990057349205017,1
60,100,0.2818181818181818,386,0,79,DL_MelancholicFolk_Guitar,6,5,DL_MelancholicFolk_Guitar,0.2312088906764984,0
58,100,0.4,509,0,79,DL_MelancholicFolk_Guitar,6,6,DL_MelancholicFolk_Guitar,0.2659190595149994,0
65,100,0.18181818181818182,597,0,79,DL_MelancholicFolk_Guitar,6,3,DL_MelancholicFolk_Guitar,0.35419583320617676,0
65,100,0.21818181818181817,163,1,80,DL_MelancholicFolk_Guitar,6,3,DL_MelancholicFolk_Guitar,0.9990057349205017,1
58,100,0.2,440,1,80,DL_MelancholicFolk_Guitar,6,3,DL_MelancholicFolk_Guitar,0.2312108725309372,0
58,100,0.18181818181818182,519,0,80,DL_MelancholicFolk_Guitar,6,3,DL_MelancholicFolk_Guitar,0.2659214735031128,0
60,100,1.1409090909090909,703,0,80,DL_MelancholicFolk_Guitar,6,15,DL_MelancholicFolk_Guitar,0.3541903793811798,0
63,100,0.11818181818181818,660,1,81,DL_MelancholicFolk_Guitar,6,2,DL_MelancholicFolk_Guitar,0.9990057349205017,1
63,100,0.1,690,0,81,DL_MelancholicFolk_Guitar,6,2,DL_MelancholicFolk_Guitar,0.23119767010211945,0
53,100,0.35909090909090907,770,0,81,DL_MelancholicFolk_Guitar,6,6,DL_MelancholicFolk_Guitar,0.2659219801425934,0
53,100,0.12272727272727273,862,0,81,DL_MelancholicFolk_Guitar,6,2,DL_MelancholicFolk_Guitar,0.3541964888572693,0
53,100,0.5772727272727273,30,1,82,DL_MelancholicFolk_Guitar,6,9,DL_MelancholicFolk_Guitar,0.9983736276626587,1
53,100,0.21818181818181817,163,0,82,DL_MelancholicFolk_Guitar,6,3,DL_MelancholicFolk_Guitar,0.05106060951948166,0
60,100,0.5227272727272727,299,0,82,DL_MelancholicFolk_Guitar,6,8,DL_MelancholicFolk_Guitar,0.04130369797348976,0
60,100,0.36363636363636365,443,0,82,DL_MelancholicFolk_Guitar,6,6,DL_MelancholicFolk_Guitar,0.037387095391750336,0
53,100,0.2409090909090909,540,0,82,DL_MelancholicFolk_Guitar,6,4,DL_MelancholicFolk_Guitar,0.038329530507326126,0
58,100,0.2590909090909091,743,0,82,DL_MelancholicFolk_Guitar,6,4,DL_MelancholicFolk_Guitar,0.04475250840187073,0
58,100,0.18181818181818182,805,0,82,DL_MelancholicFolk_Guitar,6,3,DL_MelancholicFolk_Guitar,0.055230844765901566,0
53,100,0.7,857,0,82,DL_MelancholicFolk_Guitar,6,11,DL_MelancholicFolk_Guitar,0.09026284515857697,0
58,100,0.1,193,1,83,DL_MelancholicFolk_Guitar,6,2,DL_MelancholicFolk_Guitar,0.9990057349205017,1
65,100,0.759090909090909,453,1,83,DL_MelancholicFolk_Guitar,6,12,DL_MelancholicFolk_Guitar,0.23120097815990448,0
62,100,0.1409090909090909,800,1,83,DL_MelancholicFolk_Guitar,6,2,DL_MelancholicFolk_Guitar,0.2659258544445038,0
65,100,0.38181818181818183,849,0,83,DL_MelancholicFolk_Guitar,6,6,DL_MelancholicFolk_Guitar,0.35419961810112,0
58,100,0.3,330,1,84,DL_MelancholicFolk_Guitar,6,5,DL_MelancholicFolk_Guitar,0.9990057349205017,1
58,100,0.5181818181818182,502,0,84,DL_MelancholicFolk_Guitar,6,8,DL_MelancholicFolk_Guitar,0.23120315372943878,0
58,100,0.2590909090909091,637,0,84,DL_MelancholicFolk_Guitar,6,4,DL_MelancholicFolk_Guitar,0.26591941714286804,0
53,100,0.5818181818181818,726,0,84,DL_MelancholicFolk_Guitar,6,9,DL_MelancholicFolk_Guitar,0.35418882966041565,0
60,100,0.2590909090909091,30,1,85,DL_MelancholicFolk_Guitar,6,4,DL_MelancholicFolk_Guitar,0.9984880685806274,1
60,100,0.12272727272727273,100,0,85,DL_MelancholicFolk_Guitar,6,2,DL_MelancholicFolk_Guitar,0.06334579735994339,0
57,100,0.4818181818181818,166,0,85,DL_MelancholicFolk_Guitar,6,8,DL_MelancholicFolk_Guitar,0.057740695774555206,0
53,100,0.37727272727272726,316,0,85,DL_MelancholicFolk_Guitar,6,6,DL_MelancholicFolk_Guitar,0.06020120903849602,0
60,100,0.1590909090909091,417,0,85,DL_MelancholicFolk_Guitar,6,3,DL_MelancholicFolk_Guitar,0.06970293074846268,0
53,100,0.2409090909090909,470,0,85,DL_MelancholicFolk_Guitar,6,4,DL_MelancholicFolk_Guitar,0.08189226686954498,0
58,100,0.8818181818181818,817,1,85,DL_MelancholicFolk_Guitar,6,14,DL_MelancholicFolk_Guitar,0.12402059137821198,0
53,100,0.32272727272727275,136,1,86,DL_MelancholicFolk_Guitar,6,5,DL_MelancholicFolk_Guitar,0.9982553124427795,1
55,100,0.3181818181818182,220,0,86,DL_MelancholicFolk_Guitar,6,5,DL_MelancholicFolk_Guitar,0.041287634521722794,0
58,100,0.2409090909090909,339,0,86,DL_MelancholicFolk_Guitar,6,4,DL_MelancholicFolk_Guitar,0.028934545814990997,0
65,100,0.18181818181818182,509,0,86,DL_MelancholicFolk_Guitar,6,3,DL_MelancholicFolk_Guitar,0.021287372335791588,0
53,100,0.1409090909090909,550,0,86,DL_MelancholicFolk_Guitar,6,2,DL_MelancholicFolk_Guitar,0.016744358465075493,0
58,100,0.4590909090909091,612,0,86,DL_MelancholicFolk_Guitar,6,7,DL_MelancholicFolk_Guitar,0.014917591586709023,0
65,100,0.3181818181818182,713,0,86,DL_MelancholicFolk_Guitar,6,5,DL_MelancholicFolk_Guitar,0.01601504348218441,0
58,100,0.13636363636363635,810,0,86,DL_MelancholicFolk_Guitar,6,2,DL_MelancholicFolk_Guitar,0.021177763119339943,0
58,100,0.1,844,0,86,DL_MelancholicFolk_Guitar,6,2,DL_MelancholicFolk_Guitar,0.03156505525112152,0
65,100,0.11818181818181818,866,0,86,DL_MelancholicFolk_Guitar,6,2,DL_MelancholicFolk_Guitar,0.06005783751606941,0
58,100,0.6409090909090909,119,1,87,DL_MelancholicFolk_Guitar,6,10,DL_MelancholicFolk_Guitar,0.9990230798721313,1
53,100,0.759090909090909,633,1,87,DL_MelancholicFolk_Guitar,6,12,DL_MelancholicFolk_Guitar,0.3666154146194458,0
60,100,0.6772727272727272,810,0,87,DL_MelancholicFolk_Guitar,6,11,DL_MelancholicFolk_Guitar,0.4532860517501831,0
57,100,0.2,87,1,88,DL_MelancholicFolk_Guitar,6,3,DL_MelancholicFolk_Guitar,0.9984880685806274,1
57,100,0.37727272727272726,140,0,88,DL_MelancholicFolk_Guitar,6,6,DL_MelancholicFolk_Guitar,0.06334393471479416,0
60,100,0.12272727272727273,223,0,88,DL_MelancholicFolk_Guitar,6,2,DL_MelancholicFolk_Guitar,0.05774121731519699,0
60,100,0.5772727272727273,273,0,88,DL_MelancholicFolk_Guitar,6,9,DL_MelancholicFolk_Guitar,0.06020144373178482,0
53,100,0.7227272727272728,399,0,88,DL_MelancholicFolk_Guitar,6,12,DL_MelancholicFolk_Guitar,0.0697004422545433,0
53,100,0.759090909090909,624,0,88,DL_MelancholicFolk_Guitar,6,12,DL_MelancholicFolk_Guitar,0.08189133554697037,0
58,100,0.2772727272727273,832,0,88,DL_MelancholicFolk_Guitar,6,4,DL_MelancholicFolk_Guitar,0.12402107566595078,0
53,100,0.38181818181818183,22,1,89,DL_MelancholicFolk_Guitar,6,6,DL_MelancholicFolk_Guitar,0.9983736276626587,1
58,100,0.2409090909090909,140,0,89,DL_MelancholicFolk_Guitar,6,4,DL_MelancholicFolk_Guitar,0.05106145143508911,0
60,100,0.4,250,0,89,DL_MelancholicFolk_Guitar,6,6,DL_MelancholicFolk_Guitar,0.041302941739559174,0
58,100,0.18181818181818182,343,0,89,DL_MelancholicFolk_Guitar,6,3,DL_MelancholicFolk_Guitar,0.037385426461696625,0
58,100,0.5,386,0,89,DL_MelancholicFolk_Guitar,6,8,DL_MelancholicFolk_Guitar,0.03832872211933136,0
60,100,0.1409090909090909,559,0,89,DL_MelancholicFolk_Guitar,6,2,DL_MelancholicFolk_Guitar,0.04474997892975807,0
60,100,0.9818181818181818,637,0,89,DL_MelancholicFolk_Guitar,6,15,DL_MelancholicFolk_Guitar,0.05522618815302849,0
60,100,0.5590909090909091,866,0,89,DL_MelancholicFolk_Guitar,6,9,DL_MelancholicFolk_Guitar,0.0902649462223053,0
53,100,0.33636363636363636,260,1,90,DL_MelancholicFolk_Guitar,6,5,DL_MelancholicFolk_Guitar,0.9984880685806274,1
57,100,0.6181818181818182,436,0,90,DL_MelancholicFolk_Guitar,6,10,DL_MelancholicFolk_Guitar,0.06334353983402252,0
53,100,0.22272727272727272,585,0,90,DL_MelancholicFolk_Guitar,6,4,DL_MelancholicFolk_Guitar,0.05773991346359253,0
53,100,0.3,660,0,90,DL_MelancholicFolk_Guitar,6,5,DL_MelancholicFolk_Guitar,0.060198623687028885,0
60,100,0.11818181818181818,726,0,90,DL_MelancholicFolk_Guitar,6,2,DL_MelancholicFolk_Guitar,0.06969860196113586,0
53,100,0.1,770,0,90,DL_MelancholicFolk_Guitar,6,2,DL_MelancholicFolk_Guitar,0.08188846707344055,0
60,100,0.16363636363636364,862,0,90,DL_MelancholicFolk_Guitar,6,3,DL_MelancholicFolk_Guitar,0.12401670217514038,0
60,100,0.5636363636363636,26,1,91,DL_MelancholicFolk_Guitar,6,9,DL_MelancholicFolk_Guitar,0.9983736276626587,1
60,100,0.1,153,0,91,DL_MelancholicFolk_Guitar,6,2,DL_MelancholicFolk_Guitar,0.051060233265161514,0
53,100,0.1409090909090909,286,0,91,DL_MelancholicFolk_Guitar,6,2,DL_MelancholicFolk_Guitar,0.041301727294921875,0
58,100,0.5181818181818182,396,0,91,DL_MelancholicFolk_Guitar,6,8,DL_MelancholicFolk_Guitar,0.037383560091257095,0
58,100,0.12272727272727273,576,0,91,DL_MelancholicFolk_Guitar,6,2,DL_MelancholicFolk_Guitar,0.0383274219930172,0
58,100,0.32272727272727275,606,0,91,DL_MelancholicFolk_Guitar,6,5,DL_MelancholicFolk_Guitar,0.04474767670035362,0
53,100,0.13636363636363635,677,0,91,DL_MelancholicFolk_Guitar,6,2,DL_MelancholicFolk_Guitar,0.05522496625781059,0
58,100,0.2,707,0,91,DL_MelancholicFolk_Guitar,6,3,DL_MelancholicFolk_Guitar,0.0902605652809143,0
58,100,0.2590909090909091,96,1,92,DL_MelancholicFolk_Guitar,6,4,DL_MelancholicFolk_Guitar,0.9984880685806274,1
58,100,0.2,202,0,92,DL_MelancholicFolk_Guitar,6,3,DL_MelancholicFolk_Guitar,0.06334492564201355,0
53,100,0.1,440,1,92,DL_MelancholicFolk_Guitar,6,2,DL_MelancholicFolk_Guitar,0.05774153023958206,0
65,100,0.3181818181818182,462,0,92,DL_MelancholicFolk_Guitar,6,5,DL_MelancholicFolk_Guitar,0.060200173407793045,0
53,100,0.1,593,0,92,DL_MelancholicFolk_Guitar,6,2,DL_MelancholicFolk_Guitar,0.06970107555389404,0
65,100,0.17727272727272728,624,0,92,DL_MelancholicFolk_Guitar,6,3,DL_MelancholicFolk_Guitar,0.08189431577920914,0
57,100,0.3,783,0,92,DL_MelancholicFolk_Guitar,6,5,DL_MelancholicFolk_Guitar,0.12401721626520157,0
53,100,0.6,179,1,93,DL_MelancholicFolk_Guitar,6,10,DL_MelancholicFolk_Guitar,0.9988419413566589,1
65,100,0.4409090909090909,312,0,93,DL_MelancholicFolk_Guitar,6,7,DL_MelancholicFolk_Guitar,0.1372448056936264,0
57,100,0.3409090909090909,453,0,93,DL_MelancholicFolk_Guitar,6,5,DL_MelancholicFolk_Guitar,0.1597740650177002,0
57,100,0.3409090909090909,559,0,93,DL_MelancholicFolk_Guitar,6,5,DL_MelancholicFolk_Guitar,0.18644186854362488,0
60,100,0.9181818181818182,633,0,93,DL_MelancholicFolk_Guitar,6,15,DL_MelancholicFolk_Guitar,0.2581668198108673,0
53,100,0.18181818181818182,113,1,94,DL_MelancholicFolk_Guitar,6,3,DL_MelancholicFolk_Guitar,0.9988419413566589,1
65,100,0.2772727272727273,163,0,94,DL_MelancholicFolk_Guitar,6,4,DL_MelancholicFolk_Guitar,0.13724462687969208,0
65,100,0.11818181818181818,237,0,94,DL_MelancholicFolk_Guitar,6,2,DL_MelancholicFolk_Guitar,0.15977723896503448,0
53,100,0.11818181818181818,603,1,94,DL_MelancholicFolk_Guitar,6,2,DL_MelancholicFolk_Guitar,0.18644295632839203,0
65,100,0.2590909090909091,633,0,94,DL_MelancholicFolk_Guitar,6,4,DL_MelancholicFolk_Guitar,0.25816643238067627,0
65,100,0.3,440,1,95,DL_MelancholicFolk_Guitar,6,5,DL_MelancholicFolk_Guitar,0.9990057349205017,1
53,100,0.38181818181818183,540,0,95,DL_MelancholicFolk_Guitar,6,6,DL_MelancholicFolk_Guitar,0.23120053112506866,0
53,100,0.2,663,0,95,DL_MelancholicFolk_Guitar,6,3,DL_MelancholicFolk_Guitar,0.2659137547016144,0
60,100,0.9636363636363636,796,0,95,DL_MelancholicFolk_Guitar,6,15,DL_MelancholicFolk_Guitar,0.354191392660141,0
53,100,0.9,166,1,96,DL_MelancholicFolk_Guitar,6,14,DL_MelancholicFolk_Guitar,0.9990229606628418,1
60,100,0.2772727272727273,404,1,96,DL_MelancholicFolk_Guitar,6,4,DL_MelancholicFolk_Guitar,0.3666263222694397,0
60,100,1.3590909090909091,470,0,96,DL_MelancholicFolk_Guitar,6,15,DL_MelancholicFolk_Guitar,0.453278511762619,0
53,100,0.7,40,1,97,DL_MelancholicFolk_Guitar,6,11,DL_MelancholicFolk_Guitar,0.9990057349205017,1
65,100,0.1,193,0,97,DL_MelancholicFolk_Guitar,6,2,DL_MelancholicFolk_Guitar,0.231204092502594,0
63,100,0.2,783,1,97,DL_MelancholicFolk_Guitar,6,3,DL_MelancholicFolk_Guitar,0.26591476798057556,0
53,100,0.1590909090909091,849,0,97,DL_MelancholicFolk_Guitar,6,3,DL_MelancholicFolk_Guitar,0.35419759154319763,0
57,100,0.1409090909090909,74,1,98,DL_MelancholicFolk_Guitar,6,2,DL_MelancholicFolk_Guitar,0.9984880685806274,1
53,100,0.1409090909090909,145,0,98,DL_MelancholicFolk_Guitar,6,2,DL_MelancholicFolk_Guitar,0.06334302574396133,0
60,100,0.35909090909090907,216,0,98,DL_MelancholicFolk_Guitar,6,6,DL_MelancholicFolk_Guitar,0.05774049833416939,0
60,100,0.11818181818181818,404,0,98,DL_MelancholicFolk_Guitar,6,2,DL_MelancholicFolk_Guitar,0.060199178755283356,0
53,100,0.4590909090909091,470,0,98,DL_MelancholicFolk_Guitar,6,7,DL_MelancholicFolk_Guitar,0.06969738006591797,0
53,100,0.5,629,0,98,DL_MelancholicFolk_Guitar,6,8,DL_MelancholicFolk_Guitar,0.08189048618078232,0
65,100,0.2,810,0,98,DL_MelancholicFolk_Guitar,6,3,DL_MelancholicFolk_Guitar,0.12401609122753143,0
53,100,0.2,74,1,99,DL_MelancholicFolk_Guitar,6,3,DL_MelancholicFolk_Guitar,0.9990057349205017,1
65,100,0.3181818181818182,119,0,99,DL_MelancholicFolk_Guitar,6,5,DL_MelancholicFolk_Guitar,0.231204554438591,0
58,100,0.33636363636363636,237,0,99,DL_MelancholicFolk_Guitar,6,5,DL_MelancholicFolk_Guitar,0.26592332124710083,0
62,100,0.9590909090909091,506,1,99,DL_MelancholicFolk_Guitar,6,15,DL_MelancholicFolk_Guitar,0.3541935980319977,0
53,100,0.1590909090909091,0,1,100,DL_MelancholicFolk_Guitar,6,3,DL_MelancholicFolk_Guitar,0.9990057349205017,1
58,100,0.12272727272727273,35,0,100,DL_MelancholicFolk_Guitar,6,2,DL_MelancholicFolk_Guitar,0.23120488226413727,0
58,100,0.2,716,1,100,DL_MelancholicFolk_Guitar,6,3,DL_MelancholicFolk_Guitar,0.265914648771286,0
53,100,0.35909090909090907,810,0,100,DL_MelancholicFolk_Guitar,6,6,DL_MelancholicFolk_Guitar,0.3541930019855499,0
60,100,0.3,176,1,101,DL_MelancholicFolk_Guitar,6,5,DL_MelancholicFolk_Guitar,0.9986500144004822,1
53,100,0.2772727272727273,250,0,101,DL_MelancholicFolk_Guitar,6,4,DL_MelancholicFolk_Guitar,0.0878027081489563,0
60,100,0.12272727272727273,333,0,101,DL_MelancholicFolk_Guitar,6,2,DL_MelancholicFolk_Guitar,0.09181246906518936,0
53,100,0.4409090909090909,386,0,101,DL_MelancholicFolk_Guitar,6,7,DL_MelancholicFolk_Guitar,0.10747600346803665,0
53,100,0.16363636363636364,576,0,101,DL_MelancholicFolk_Guitar,6,3,DL_MelancholicFolk_Guitar,0.12482781708240509,0
58,100,0.5181818181818182,770,0,101,DL_MelancholicFolk_Guitar,6,8,DL_MelancholicFolk_Guitar,0.17902928590774536,0
58,100,0.2,43,1,102,DL_MelancholicFolk_Guitar,6,3,DL_MelancholicFolk_Guitar,0.9982553124427795,1
58,100,0.2409090909090909,123,0,102,DL_MelancholicFolk_Guitar,6,4,DL_MelancholicFolk_Guitar,0.04128706827759743,0
53,100,0.12272727272727273,255,0,102,DL_MelancholicFolk_Guitar,6,2,DL_MelancholicFolk_Guitar,0.028934011235833168,0
58,100,0.5409090909090909,286,0,102,DL_MelancholicFolk_Guitar,6,9,DL_MelancholicFolk_Guitar,0.021287355571985245,0
53,100,0.2590909090909091,417,0,102,DL_MelancholicFolk_Guitar,6,4,DL_MelancholicFolk_Guitar,0.016743982210755348,0
58,100,0.23636363636363636,502,0,102,DL_MelancholicFolk_Guitar,6,4,DL_MelancholicFolk_Guitar,0.014917354099452496,0
65,100,0.17727272727272728,590,0,102,DL_MelancholicFolk_Guitar,6,3,DL_MelancholicFolk_Guitar,0.016014743596315384,0
53,100,0.3409090909090909,629,0,102,DL_MelancholicFolk_Guitar,6,5,DL_MelancholicFolk_Guitar,0.021178405731916428,0
58,100,0.3,716,0,102,DL_MelancholicFolk_Guitar,6,5,DL_MelancholicFolk_Guitar,0.03156626597046852,0
65,100,0.17727272727272728,800,0,102,DL_MelancholicFolk_Guitar,6,3,DL_MelancholicFolk_Guitar,0.060059379786252975,0
65,100,0.16363636363636364,686,1,103,DL_MelancholicFolk_Guitar,6,3,DL_MelancholicFolk_Guitar,0.9983165264129639,1
53,100,0.2409090909090909,726,0,103,DL_MelancholicFolk_Guitar,6,4,DL_MelancholicFolk_Guitar,0.5445562601089478,0
60,100,0.2590909090909091,110,1,104,DL_MelancholicFolk_Guitar,6,4,DL_MelancholicFolk_Guitar,0.9983004927635193,1
53,100,0.1,172,0,104,DL_MelancholicFolk_Guitar,6,2,DL_MelancholicFolk_Guitar,0.04466306418180466,0
65,100,0.32272727272727275,255,0,104,DL_MelancholicFolk_Guitar,6,5,DL_MelancholicFolk_Guitar,0.03314923867583275,0
53,100,0.2818181818181818,343,0,104,DL_MelancholicFolk_Guitar,6,5,DL_MelancholicFolk_Guitar,0.02657848596572876,0
65,100,0.1409090909090909,409,0,104,DL_MelancholicFolk_Guitar,6,2,DL_MelancholicFolk_Guitar,0.023593757301568985,0
65,100,0.18181818181818182,443,0,104,DL_MelancholicFolk_Guitar,6,3,DL_MelancholicFolk_Guitar,0.024313658475875854,0
62,100,0.42272727272727273,563,0,104,DL_MelancholicFolk_Guitar,6,7,DL_MelancholicFolk_Guitar,0.0296871867030859,0
62,100,0.1590909090909091,660,0,104,DL_MelancholicFolk_Guitar,6,3,DL_MelancholicFolk_Guitar,0.040075141936540604,0
65,100,1.440909090909091,713,0,104,DL_MelancholicFolk_Guitar,6,15,DL_MelancholicFolk_Guitar,0.07092452794313431,0
65,100,0.9409090909090909,163,1,105,DL_MelancholicFolk_Guitar,6,15,DL_MelancholicFolk_Guitar,0.9990229606628418,1
62,100,0.1409090909090909,713,1,105,DL_MelancholicFolk_Guitar,6,2,DL_MelancholicFolk_Guitar,0.36663708090782166,0
53,100,0.6590909090909091,747,0,105,DL_MelancholicFolk_Guitar,6,11,DL_MelancholicFolk_Guitar,0.4532892405986786,0
53,100,0.18181818181818182,673,1,106,DL_MelancholicFolk_Guitar,6,3,DL_MelancholicFolk_Guitar,0.9990229606628418,1
57,100,0.18181818181818182,726,0,106,DL_MelancholicFolk_Guitar,6,3,DL_MelancholicFolk_Guitar,0.3666225075721741,0
60,100,0.6409090909090909,844,0,106,DL_MelancholicFolk_Guitar,6,10,DL_MelancholicFolk_Guitar,0.4532901644706726,0
53,100,0.11818181818181818,119,1,107,DL_MelancholicFolk_Guitar,6,2,DL_MelancholicFolk_Guitar,0.9986500144004822,1
60,100,0.7772727272727272,250,0,107,DL_MelancholicFolk_Guitar,6,12,DL_MelancholicFolk_Guitar,0.08780229836702347,0
53,100,0.2590909090909091,430,0,107,DL_MelancholicFolk_Guitar,6,4,DL_MelancholicFolk_Guitar,0.09181028604507446,0
65,100,0.1409090909090909,487,0,107,DL_MelancholicFolk_Guitar,6,2,DL_MelancholicFolk_Guitar,0.10747534781694412,0
58,100,0.1590909090909091,677,0,107,DL_MelancholicFolk_Guitar,6,3,DL_MelancholicFolk_Guitar,0.12482395023107529,0
53,100,0.2590909090909091,747,0,107,DL_MelancholicFolk_Guitar,6,4,DL_MelancholicFolk_Guitar,0.17902758717536926,0
65,100,0.36363636363636365,113,1,108,DL_MelancholicFolk_Guitar,6,6,DL_MelancholicFolk_Guitar,0.9988419413566589,1
58,100,0.12272727272727273,386,1,108,DL_MelancholicFolk_Guitar,6,2,DL_MelancholicFolk_Guitar,0.13725145161151886,0
53,100,0.16363636363636364,686,1,108,DL_MelancholicFolk_Guitar,6,3,DL_MelancholicFolk_Guitar,0.15977711975574493,0
65,100,0.2772727272727273,766,0,108,DL_MelancholicFolk_Guitar,6,4,DL_MelancholicFolk_Guitar,0.18645204603672028,0
65,100,0.1409090909090909,857,0,108,DL_MelancholicFolk_Guitar,6,2,DL_MelancholicFolk_Guitar,0.2581630349159241,0
65,100,0.1409090909090909,396,1,109,DL_MelancholicFolk_Guitar,6,2,DL_MelancholicFolk_Guitar,0.9984880685806274,1
65,100,0.2590909090909091,475,0,109,DL_MelancholicFolk_Guitar,6,4,DL_MelancholicFolk_Guitar,0.06334373354911804,0
65,100,0.2,553,0,109,DL_MelancholicFolk_Guitar,6,3,DL_MelancholicFolk_Guitar,0.05774087458848953,0
53,100,0.2,597,0,109,DL_MelancholicFolk_Guitar,6,3,DL_MelancholicFolk_Guitar,0.060200974345207214,0
60,100,0.4590909090909091,650,0,109,DL_MelancholicFolk_Guitar,6,7,DL_MelancholicFolk_Guitar,0.06970170140266418,0
53,100,0.3409090909090909,779,0,109,DL_MelancholicFolk_Guitar,6,5,DL_MelancholicFolk_Guitar,0.08189251273870468,0
53,100,0.1590909090909091,857,0,109,DL_MelancholicFolk_Guitar,6,3,DL_MelancholicFolk_Guitar,0.12401924282312393,0
53,100,0.5181818181818182,43,1,110,DL_MelancholicFolk_Guitar,6,8,DL_MelancholicFolk_Guitar,0.9988419413566589,1
53,100,0.6636363636363637,179,0,110,DL_MelancholicFolk_Guitar,6,11,DL_MelancholicFolk_Guitar,0.1372433304786682,0
53,100,0.2772727272727273,370,0,110,DL_MelancholicFolk_Guitar,6,4,DL_MelancholicFolk_Guitar,0.15977360308170319,0
58,100,0.6818181818181818,443,0,110,DL_MelancholicFolk_Guitar,6,11,DL_MelancholicFolk_Guitar,0.18644560873508453,0
58,100,0.2,853,1,110,DL_MelancholicFolk_Guitar,6,3,DL_MelancholicFolk_Guitar,0.2581632137298584,0
65,100,0.17727272727272728,40,1,111,DL_MelancholicFolk_Guitar,6,3,DL_MelancholicFolk_Guitar,0.9983003735542297,1
65,100,0.11818181818181818,83,0,111,DL_MelancholicFolk_Guitar,6,2,DL_MelancholicFolk_Guitar,0.04466351121664047,0
65,100,0.4590909090909091,193,0,111,DL_MelancholicFolk_Guitar,6,7,DL_MelancholicFolk_Guitar,0.03314825892448425,0
58,100,0.1590909090909091,409,0,111,DL_MelancholicFolk_Guitar,6,3,DL_MelancholicFolk_Guitar,0.026578476652503014,0
58,100,0.6,493,0,111,DL_MelancholicFolk_Guitar,6,10,DL_MelancholicFolk_Guitar,0.02359338477253914,0
53,100,0.1409090909090909,624,0,111,DL_MelancholicFolk_Guitar,6,2,DL_MelancholicFolk_Guitar,0.024312324821949005,0
58,100,0.1590909090909091,656,0,111,DL_MelancholicFolk_Guitar,6,3,DL_MelancholicFolk_Guitar,0.029688335955142975,0
65,100,0.1590909090909091,690,0,111,DL_MelancholicFolk_Guitar,6,3,DL_MelancholicFolk_Guitar,0.04007350653409958,0
58,100,0.1590909090909091,726,0,111,DL_MelancholicFolk_Guitar,6,3,DL_MelancholicFolk_Guitar,0.07092809677124023,0
65,100,0.11818181818181818,263,1,112,DL_MelancholicFolk_Guitar,6,2,DL_MelancholicFolk_Guitar,0.9988419413566589,1
53,100,0.16363636363636364,532,1,112,DL_MelancholicFolk_Guitar,6,3,DL_MelancholicFolk_Guitar,0.13724569976329803,0
53,100,0.5590909090909091,593,0,112,DL_MelancholicFolk_Guitar,6,9,DL_MelancholicFolk_Guitar,0.1597735434770584,0
65,100,0.12272727272727273,817,0,112,DL_MelancholicFolk_Guitar,6,2,DL_MelancholicFolk_Guitar,0.18644864857196808,0
65,100,0.1409090909090909,849,0,112,DL_MelancholicFolk_Guitar,6,2,DL_MelancholicFolk_Guitar,0.2581610381603241,0
53,100,0.2590909090909091,0,1,113,DL_MelancholicFolk_Guitar,6,4,DL_MelancholicFolk_Guitar,0.9983003735542297,1
65,100,0.2409090909090909,56,0,113,DL_MelancholicFolk_Guitar,6,4,DL_MelancholicFolk_Guitar,0.04466351121664047,0
53,100,0.41818181818181815,110,0,113,DL_MelancholicFolk_Guitar,6,7,DL_MelancholicFolk_Guitar,0.03314819559454918,0
65,100,0.17727272727272728,206,0,113,DL_MelancholicFolk_Guitar,6,3,DL_MelancholicFolk_Guitar,0.02657860703766346,0
65,100,0.18181818181818182,307,0,113,DL_MelancholicFolk_Guitar,6,3,DL_MelancholicFolk_Guitar,0.023592999204993248,0
65,100,0.21818181818181817,352,0,113,DL_MelancholicFolk_Guitar,6,3,DL_MelancholicFolk_Guitar,0.02431241236627102,0
58,100,0.5227272727272727,399,0,113,DL_MelancholicFolk_Guitar,6,8,DL_MelancholicFolk_Guitar,0.0296880342066288,0
53,100,0.2409090909090909,624,0,113,DL_MelancholicFolk_Guitar,6,4,DL_MelancholicFolk_Guitar,0.040074560791254044,0
65,100,0.6227272727272727,783,0,113,DL_MelancholicFolk_Guitar,6,10,DL_MelancholicFolk_Guitar,0.0709235742688179,0
58,100,0.2,145,1,114,DL_MelancholicFolk_Guitar,6,3,DL_MelancholicFolk_Guitar,0.9986500144004822,1
58,100,0.8,220,0,114,DL_MelancholicFolk_Guitar,6,13,DL_MelancholicFolk_Guitar,0.08780243247747421,0
58,100,0.6227272727272727,409,0,114,DL_MelancholicFolk_Guitar,6,10,DL_MelancholicFolk_Guitar,0.09181059896945953,0
53,100,0.1,553,0,114,DL_MelancholicFolk_Guitar,6,2,DL_MelancholicFolk_Guitar,0.10747390240430832,0
65,100,0.1,673,0,114,DL_MelancholicFolk_Guitar,6,2,DL_MelancholicFolk_Guitar,0.1248205229640007,0
65,100,0.2636363636363636,729,0,114,DL_MelancholicFolk_Guitar,6,4,DL_MelancholicFolk_Guitar,0.17903068661689758,0
60,100,0.2636363636363636,487,1,115,DL_MelancholicFolk_Guitar,6,4,DL_MelancholicFolk_Guitar,0.9983165264129639,1
60,100,0.23636363636363636,787,1,115,DL_MelancholicFolk_Guitar,6,4,DL_MelancholicFolk_Guitar,0.5445598363876343,0
60,100,0.23636363636363636,656,1,116,DL_MelancholicFolk_Guitar,6,4,DL_MelancholicFolk_Guitar,0.9983165264129639,1
60,100,2.7,734,0,116,DL_MelancholicFolk_Guitar,6,15,DL_MelancholicFolk_Guitar,0.5445433855056763,0
65,100,0.2409090909090909,92,1,118,DL_MelancholicFolk_Guitar,6,4,DL_MelancholicFolk_Guitar,0.9990229606628418,1
65,100,0.35909090909090907,176,0,118,DL_MelancholicFolk_Guitar,6,6,DL_MelancholicFolk_Guitar,0.3666205406188965,0
65,100,0.11818181818181818,734,1,118,DL_MelancholicFolk_Guitar,6,2,DL_MelancholicFolk_Guitar,0.453291654586792,0
65,100,0.5,210,1,119,DL_MelancholicFolk_Guitar,6,8,DL_MelancholicFolk_Guitar,0.9983165264129639,1
65,100,0.2409090909090909,483,1,119,DL_MelancholicFolk_Guitar,6,4,DL_MelancholicFolk_Guitar,0.5445565581321716,0
65,100,2.7181818181818183,426,1,120,DL_MelancholicFolk_Guitar,6,15,DL_MelancholicFolk_Guitar,0.9792543649673462,1
55,100,0.42272727272727273,354,1,0,DL_Guitar_1,6,7,DL_Guitar_1,0.9792566299438477,1
53,100,0.6227272727272727,730,1,1,DL_Guitar_1,6,10,DL_Guitar_1,0.979255735874176,0
53,100,0.2681818181818182,76,1,2,DL_Guitar_1,6,4,DL_Guitar_1,0.9988419413566589,1
70,100,0.24545454545454545,581,1,2,DL_Guitar_1,6,4,DL_Guitar_1,0.13724669814109802,0
72,100,0.24545454545454545,645,0,2,DL_Guitar_1,6,4,DL_Guitar_1,0.15977704524993896,0
70,100,0.2863636363636364,794,0,2,DL_Guitar_1,6,5,DL_Guitar_1,0.18644027411937714,0
72,100,0.31363636363636366,862,0,2,DL_Guitar_1,6,5,DL_Guitar_1,0.25816699862480164,0
70,100,0.33636363636363636,256,1,3,DL_Guitar_1,6,5,DL_Guitar_1,0.9988419413566589,1
58,100,0.22272727272727272,336,0,3,DL_Guitar_1,6,4,DL_Guitar_1,0.13724476099014282,0
70,100,0.6227272727272727,400,0,3,DL_Guitar_1,6,10,DL_Guitar_1,0.15977680683135986,0
58,100,0.18181818181818182,537,0,3,DL_Guitar_1,6,3,DL_Guitar_1,0.1864449679851532,0
65,100,0.22272727272727272,842,1,3,DL_Guitar_1,6,4,DL_Guitar_1,0.2581605017185211,0
67,100,0.15454545454545454,55,1,4,DL_Guitar_1,6,2,DL_Guitar_1,0.9983004927635193,1
65,100,0.2,183,0,4,DL_Guitar_1,6,3,DL_Guitar_1,0.04466325789690018,0
67,100,0.24545454545454545,246,0,4,DL_Guitar_1,6,4,DL_Guitar_1,0.03314857929944992,0
53,100,0.5590909090909091,368,0,4,DL_Guitar_1,6,9,DL_Guitar_1,0.026578638702630997,0
65,100,0.24545454545454545,492,0,4,DL_Guitar_1,6,4,DL_Guitar_1,0.023593811318278313,0
53,100,0.24545454545454545,594,0,4,DL_Guitar_1,6,4,DL_Guitar_1,0.02431318163871765,0
65,100,0.42272727272727273,648,0,4,DL_Guitar_1,6,7,DL_Guitar_1,0.029687482863664627,0
53,100,0.22727272727272727,741,0,4,DL_Guitar_1,6,4,DL_Guitar_1,0.040074560791254044,0
53,100,0.24545454545454545,806,0,4,DL_Guitar_1,6,4,DL_Guitar_1,0.07092614471912384,0
65,100,0.13636363636363635,108,1,5,DL_Guitar_1,6,2,DL_Guitar_1,0.9990057349205017,1
53,100,0.2,220,0,5,DL_Guitar_1,6,3,DL_Guitar_1,0.2311972677707672,0
65,100,0.31363636363636366,280,0,5,DL_Guitar_1,6,5,DL_Guitar_1,0.2659132182598114,0
53,100,0.1318181818181818,392,0,5,DL_Guitar_1,6,2,DL_Guitar_1,0.35418644547462463,0
58,100,0.11363636363636363,205,1,6,DL_Guitar_1,6,2,DL_Guitar_1,0.9792563915252686,0
58,100,0.10909090909090909,118,1,10,DL_Guitar_1,6,2,DL_Guitar_1,0.9990057349205017,1
58,100,0.33636363636363636,544,1,10,DL_Guitar_1,6,5,DL_Guitar_1,0.231204554438591,0
58,100,0.22272727272727272,653,0,10,DL_Guitar_1,6,4,DL_Guitar_1,0.26592037081718445,0
58,100,0.13636363636363635,706,0,10,DL_Guitar_1,6,2,DL_Guitar_1,0.3541954755783081,0
58,100,0.17727272727272728,338,1,11,DL_Guitar_1,6,3,DL_Guitar_1,0.9792567491531372,0
53,100,0.4909090909090909,194,1,12,DL_Guitar_1,6,8,DL_Guitar_1,0.9990057349205017,1
53,100,0.4,352,0,12,DL_Guitar_1,6,6,DL_Guitar_1,0.23119622468948364,0
53,100,0.15454545454545454,632,1,12,DL_Guitar_1,6,2,DL_Guitar_1,0.26591530442237854,0
60,100,0.37727272727272726,768,0,12,DL_Guitar_1,6,6,DL_Guitar_1,0.3541986048221588,0
53,100,0.22272727272727272,183,1,13,DL_Guitar_1,6,4,DL_Guitar_1,0.9990057349205017,1
60,100,0.13636363636363635,316,0,13,DL_Guitar_1,6,2,DL_Guitar_1,0.2312067449092865,0
55,100,0.10909090909090909,458,0,13,DL_Guitar_1,6,2,DL_Guitar_1,0.2659190893173218,0
65,100,0.11363636363636363,591,0,13,DL_Guitar_1,6,2,DL_Guitar_1,0.3541924059391022,0
55,100,0.37727272727272726,462,1,14,DL_Guitar_1,6,6,DL_Guitar_1,0.979256272315979,1
53,100,0.1590909090909091,145,1,16,DL_Guitar_1,6,3,DL_Guitar_1,0.9792560338973999,0
57,100,0.42727272727272725,425,1,17,DL_Guitar_1,6,7,DL_Guitar_1,0.9983165264129639,1
53,100,0.22272727272727272,807,1,17,DL_Guitar_1,6,4,DL_Guitar_1,0.5445569753646851,0
53,100,0.2,148,1,18,DL_Guitar_1,6,3,DL_Guitar_1,0.9990057349205017,1
53,100,0.22272727272727272,227,0,18,DL_Guitar_1,6,4,DL_Guitar_1,0.23120442032814026,0
53,100,0.1318181818181818,356,0,18,DL_Guitar_1,6,2,DL_Guitar_1,0.26591968536376953,0
57,100,0.33636363636363636,433,0,18,DL_Guitar_1,6,5,DL_Guitar_1,0.35419294238090515,0
58,100,0.40454545454545454,588,1,20,DL_Guitar_1,6,6,DL_Guitar_1,0.9792563915252686,0
58,100,0.17727272727272728,52,1,21,DL_Guitar_1,6,3,DL_Guitar_1,0.9990229606628418,1
58,100,0.24545454545454545,161,0,21,DL_Guitar_1,6,4,DL_Guitar_1,0.3666229248046875,0
57,100,0.22272727272727272,515,1,21,DL_Guitar_1,6,4,DL_Guitar_1,0.4532908797264099,0
53,100,0.15454545454545454,169,1,22,DL_Guitar_1,6,2,DL_Guitar_1,0.9990057349205017,1
53,100,0.2909090909090909,302,0,22,DL_Guitar_1,6,5,DL_Guitar_1,0.23120032250881195,0
53,100,0.31363636363636366,587,1,22,DL_Guitar_1,6,5,DL_Guitar_1,0.26592037081718445,0
58,100,0.1318181818181818,686,0,22,DL_Guitar_1,6,2,DL_Guitar_1,0.3541984260082245,0
58,100,0.2681818181818182,45,1,23,DL_Guitar_1,6,4,DL_Guitar_1,0.9983165264129639,1
53,100,0.2,336,1,23,DL_Guitar_1,6,3,DL_Guitar_1,0.5445475578308105,0
57,100,0.6454545454545455,388,1,24,DL_Guitar_1,6,10,DL_Guitar_1,0.9983165264129639,1
57,100,0.2,536,0,24,DL_Guitar_1,6,3,DL_Guitar_1,0.5445586442947388,0
58,100,0.24545454545454545,185,1,26,DL_Guitar_1,6,4,DL_Guitar_1,0.9990057349205017,1
58,100,0.11363636363636363,436,1,26,DL_Guitar_1,6,2,DL_Guitar_1,0.23120415210723877,0
53,100,0.1590909090909091,705,1,26,DL_Guitar_1,6,3,DL_Guitar_1,0.265915185213089,0
57,100,0.22272727272727272,774,0,26,DL_Guitar_1,6,4,DL_Guitar_1,0.3542007803916931,0
57,100,0.6909090909090909,61,1,27,DL_Guitar_1,6,11,DL_Guitar_1,0.9990229606628418,1
53,100,0.1318181818181818,278,0,27,DL_Guitar_1,6,2,DL_Guitar_1,0.3666183352470398,0
60,100,0.15454545454545454,547,1,27,DL_Guitar_1,6,2,DL_Guitar_1,0.45329174399375916,0
55,100,0.35454545454545455,846,1,28,DL_Guitar_1,6,6,DL_Guitar_1,0.9792565107345581,0
53,100,0.2,123,1,29,DL_Guitar_1,6,3,DL_Guitar_1,0.9988419413566589,1
53,100,0.2681818181818182,172,0,29,DL_Guitar_1,6,4,DL_Guitar_1,0.13724440336227417,0
53,100,0.1590909090909091,358,0,29,DL_Guitar_1,6,3,DL_Guitar_1,0.1597720831632614,0
53,100,0.18181818181818182,584,0,29,DL_Guitar_1,6,3,DL_Guitar_1,0.18644748628139496,0
53,100,0.2909090909090909,772,0,29,DL_Guitar_1,6,5,DL_Guitar_1,0.2581591010093689,0
63,100,0.24545454545454545,436,1,30,DL_Guitar_1,6,4,DL_Guitar_1,0.9990229606628418,1
63,100,0.22272727272727272,521,0,30,DL_Guitar_1,6,4,DL_Guitar_1,0.3666311800479889,0
63,100,0.5818181818181818,721,0,30,DL_Guitar_1,6,9,DL_Guitar_1,0.45330458879470825,0
63,100,0.35909090909090907,268,1,31,DL_Guitar_1,6,6,DL_Guitar_1,0.9990229606628418,1
63,100,0.5136363636363637,470,0,31,DL_Guitar_1,6,8,DL_Guitar_1,0.3666195273399353,0
53,100,0.22272727272727272,587,0,31,DL_Guitar_1,6,4,DL_Guitar_1,0.45329567790031433,0
53,100,0.24545454545454545,685,1,33,DL_Guitar_1,6,4,DL_Guitar_1,0.9792560338973999,0
53,100,0.22272727272727272,241,1,34,DL_Guitar_1,6,4,DL_Guitar_1,0.9983165264129639,1
53,100,0.13636363636363635,315,0,34,DL_Guitar_1,6,2,DL_Guitar_1,0.544556736946106,0
53,100,0.10909090909090909,397,1,36,DL_Guitar_1,6,2,DL_Guitar_1,0.9990229606628418,1
53,100,0.2681818181818182,744,1,36,DL_Guitar_1,6,4,DL_Guitar_1,0.3666175901889801,0
53,100,0.4681818181818182,809,0,36,DL_Guitar_1,6,7,DL_Guitar_1,0.4532855749130249,0
53,100,0.24545454545454545,174,1,37,DL_Guitar_1,6,4,DL_Guitar_1,0.9986500144004822,1
53,100,0.2,243,0,37,DL_Guitar_1,6,3,DL_Guitar_1,0.08780453354120255,0
53,100,0.2909090909090909,307,0,37,DL_Guitar_1,6,5,DL_Guitar_1,0.0918121337890625,0
53,100,0.6045454545454545,380,0,37,DL_Guitar_1,6,10,DL_Guitar_1,0.10747671127319336,0
53,100,0.2681818181818182,602,0,37,DL_Guitar_1,6,4,DL_Guitar_1,0.12482058256864548,0
53,100,0.2681818181818182,680,0,37,DL_Guitar_1,6,4,DL_Guitar_1,0.17902570962905884,0
53,100,0.1590909090909091,860,1,38,DL_Guitar_1,6,3,DL_Guitar_1,0.9792567491531372,0
55,100,0.2909090909090909,383,1,40,DL_Guitar_1,6,5,DL_Guitar_1,0.9983165264129639,1
60,100,0.5136363636363637,830,1,40,DL_Guitar_1,6,8,DL_Guitar_1,0.5445612072944641,0
60,100,0.6227272727272727,352,1,41,DL_Guitar_1,6,10,DL_Guitar_1,0.9792563915252686,0
53,100,0.35909090909090907,56,1,42,DL_Guitar_1,6,6,DL_Guitar_1,0.9990057349205017,1
53,100,0.45,414,1,42,DL_Guitar_1,6,7,DL_Guitar_1,0.2312011867761612,0
53,100,0.33181818181818185,632,0,42,DL_Guitar_1,6,5,DL_Guitar_1,0.2659134864807129,0
53,100,0.24545454545454545,832,0,42,DL_Guitar_1,6,4,DL_Guitar_1,0.3541977107524872,0
60,100,0.22272727272727272,458,1,44,DL_Guitar_1,6,4,DL_Guitar_1,0.9983165264129639,1
53,100,0.22272727272727272,576,0,44,DL_Guitar_1,6,4,DL_Guitar_1,0.5445528626441956,0
53,100,0.2909090909090909,0,1,45,DL_Guitar_1,6,5,DL_Guitar_1,0.9988419413566589,1
53,100,0.1590909090909091,206,0,45,DL_Guitar_1,6,3,DL_Guitar_1,0.13724800944328308,0
58,100,0.4909090909090909,300,0,45,DL_Guitar_1,6,8,DL_Guitar_1,0.15977798402309418,0
53,100,0.17727272727272728,432,0,45,DL_Guitar_1,6,3,DL_Guitar_1,0.18644775450229645,0
53,100,0.5590909090909091,638,0,45,DL_Guitar_1,6,9,DL_Guitar_1,0.25816261768341064,0
53,100,0.2909090909090909,691,1,46,DL_Guitar_1,6,5,DL_Guitar_1,0.9792561531066895,0
53,100,0.3090909090909091,22,1,47,DL_Guitar_1,6,5,DL_Guitar_1,0.9792563915252686,0
60,100,0.6909090909090909,522,1,49,DL_Guitar_1,6,11,DL_Guitar_1,0.9792566299438477,1
53,100,0.13636363636363635,361,1,52,DL_Guitar_1,6,2,DL_Guitar_1,0.9792561531066895,0
55,100,0.2681818181818182,831,1,53,DL_Guitar_1,6,4,DL_Guitar_1,0.9792558550834656,0
57,100,0.7818181818181819,545,1,54,DL_Guitar_1,6,13,DL_Guitar_1,0.9983164072036743,1
57,100,0.20454545454545456,805,1,54,DL_Guitar_1,6,3,DL_Guitar_1,0.5445641875267029,0
55,100,0.2909090909090909,343,1,55,DL_Guitar_1,6,5,DL_Guitar_1,0.9983165264129639,1
53,100,0.3090909090909091,845,1,55,DL_Guitar_1,6,5,DL_Guitar_1,0.5445496439933777,0
53,100,0.31363636363636366,111,1,56,DL_Guitar_1,6,5,DL_Guitar_1,0.9990230798721313,1
53,100,0.13636363636363635,248,0,56,DL_Guitar_1,6,2,DL_Guitar_1,0.36665078997612,0
55,100,3.036363636363636,386,0,56,DL_Guitar_1,6,15,DL_Guitar_1,0.4532600939273834,0
53,100,0.10909090909090909,58,1,65,DL_Guitar_1,6,2,DL_Guitar_1,0.9792556166648865,1
55,100,0.37727272727272726,317,1,0,DL_Guitar,6,6,DL_Guitar,0.9792560338973999,0
53,100,0.5590909090909091,563,1,1,DL_Guitar,6,9,DL_Guitar,0.9983164072036743,1
53,100,0.23636363636363636,765,0,1,DL_Guitar,6,4,DL_Guitar,0.5445570349693298,0
70,100,0.21818181818181817,339,1,2,DL_Guitar,6,3,DL_Guitar,0.9988419413566589,1
72,100,0.21818181818181817,396,0,2,DL_Guitar,6,3,DL_Guitar,0.13724486529827118,0
70,100,0.2590909090909091,528,0,2,DL_Guitar,6,4,DL_Guitar,0.1597713977098465,0
72,100,0.2772727272727273,590,0,2,DL_Guitar,6,4,DL_Guitar,0.18644320964813232,0
70,100,0.3,836,1,2,DL_Guitar,6,5,DL_Guitar,0.2581576108932495,0
58,100,0.2,26,1,3,DL_Guitar,6,3,DL_Guitar,0.9983736276626587,1
70,100,0.5590909090909091,83,0,3,DL_Guitar,6,9,DL_Guitar,0.05106129124760628,0
58,100,0.1590909090909091,207,0,3,DL_Guitar,6,3,DL_Guitar,0.04130236804485321,0
65,100,0.2,479,1,3,DL_Guitar,6,3,DL_Guitar,0.03738453611731529,0
67,100,0.1409090909090909,562,0,3,DL_Guitar,6,2,DL_Guitar,0.03832876682281494,0
65,100,0.17727272727272728,678,0,3,DL_Guitar,6,3,DL_Guitar,0.0447503961622715,0
67,100,0.21818181818181817,735,0,3,DL_Guitar,6,3,DL_Guitar,0.0552290640771389,0
53,100,0.5,845,0,3,DL_Guitar,6,8,DL_Guitar,0.09026090800762177,0
65,100,0.21818181818181817,74,1,4,DL_Guitar,6,3,DL_Guitar,0.9983003735542297,1
53,100,0.22272727272727272,166,0,4,DL_Guitar,6,4,DL_Guitar,0.04466302692890167,0
65,100,0.37727272727272726,215,0,4,DL_Guitar,6,6,DL_Guitar,0.03314848616719246,0
53,100,0.2,299,0,4,DL_Guitar,6,3,DL_Guitar,0.026578446850180626,0
53,100,0.22272727272727272,355,0,4,DL_Guitar,6,4,DL_Guitar,0.023592999204993248,0
65,100,0.12272727272727273,519,0,4,DL_Guitar,6,2,DL_Guitar,0.02431243658065796,0
53,100,0.18181818181818182,619,0,4,DL_Guitar,6,3,DL_Guitar,0.02968631498515606,0
65,100,0.2818181818181818,672,0,4,DL_Guitar,6,5,DL_Guitar,0.040072645992040634,0
53,100,0.12272727272727273,774,0,4,DL_Guitar,6,2,DL_Guitar,0.07092496752738953,0
58,100,0.1,514,1,5,DL_Guitar,6,2,DL_Guitar,0.9792568683624268,0
58,100,0.1,70,1,9,DL_Guitar,6,2,DL_Guitar,0.9990057349205017,1
58,100,0.3,453,1,9,DL_Guitar,6,5,DL_Guitar,0.23119741678237915,0
58,100,0.2,550,0,9,DL_Guitar,6,3,DL_Guitar,0.26590853929519653,0
58,100,0.12272727272727273,598,0,9,DL_Guitar,6,2,DL_Guitar,0.3541944622993469,0
58,100,0.1590909090909091,175,1,10,DL_Guitar,6,3,DL_Guitar,0.9983165264129639,1
53,100,0.4409090909090909,835,1,10,DL_Guitar,6,7,DL_Guitar,0.5445522665977478,0
53,100,0.35909090909090907,96,1,11,DL_Guitar,6,6,DL_Guitar,0.9988419413566589,1
53,100,0.13636363636363635,347,1,11,DL_Guitar,6,2,DL_Guitar,0.13724301755428314,0
60,100,0.3409090909090909,470,0,11,DL_Guitar,6,5,DL_Guitar,0.1597718894481659,0
53,100,0.2,735,1,11,DL_Guitar,6,3,DL_Guitar,0.18643711507320404,0
60,100,0.11818181818181818,854,0,11,DL_Guitar,6,2,DL_Guitar,0.2581605911254883,0
55,100,0.1,101,1,12,DL_Guitar,6,2,DL_Guitar,0.9983165264129639,1
65,100,0.1,220,0,12,DL_Guitar,6,2,DL_Guitar,0.5445557236671448,0
55,100,0.3409090909090909,13,1,13,DL_Guitar,6,5,DL_Guitar,0.9792565107345581,0
53,100,0.1409090909090909,426,1,14,DL_Guitar,6,2,DL_Guitar,0.9792566299438477,1
57,100,0.38181818181818183,584,1,15,DL_Guitar,6,6,DL_Guitar,0.9792565107345581,0
53,100,0.2,48,1,16,DL_Guitar,6,3,DL_Guitar,0.9988419413566589,1
53,100,0.18181818181818182,246,0,16,DL_Guitar,6,3,DL_Guitar,0.13724859058856964,0
53,100,0.2,316,0,16,DL_Guitar,6,3,DL_Guitar,0.15977956354618073,0
53,100,0.12272727272727273,430,0,16,DL_Guitar,6,2,DL_Guitar,0.1864514946937561,0
57,100,0.3,501,0,16,DL_Guitar,6,5,DL_Guitar,0.25816476345062256,0
58,100,0.35909090909090907,457,1,18,DL_Guitar,6,6,DL_Guitar,0.9990230798721313,1
58,100,0.1590909090909091,766,1,18,DL_Guitar,6,3,DL_Guitar,0.3666193187236786,0
58,100,0.22272727272727272,862,0,18,DL_Guitar,6,4,DL_Guitar,0.4532901644706726,0
57,100,0.2,299,1,19,DL_Guitar,6,3,DL_Guitar,0.9983165264129639,1
53,100,0.1409090909090909,779,1,19,DL_Guitar,6,2,DL_Guitar,0.5445550680160522,0
53,100,0.2590909090909091,17,1,20,DL_Guitar,6,4,DL_Guitar,0.9988419413566589,1
53,100,0.2772727272727273,272,1,20,DL_Guitar,6,4,DL_Guitar,0.13724689185619354,0
58,100,0.11818181818181818,360,0,20,DL_Guitar,6,2,DL_Guitar,0.15977685153484344,0
58,100,0.2409090909090909,576,0,20,DL_Guitar,6,4,DL_Guitar,0.18645328283309937,0
53,100,0.18181818181818182,835,1,20,DL_Guitar,6,3,DL_Guitar,0.2581581175327301,0
57,100,0.5818181818181818,791,1,21,DL_Guitar,6,9,DL_Guitar,0.9792560338973999,0
57,100,0.18181818181818182,44,1,22,DL_Guitar,6,3,DL_Guitar,0.9792567491531372,0
58,100,0.21818181818181817,426,1,23,DL_Guitar,6,3,DL_Guitar,0.9983165264129639,1
58,100,0.1,650,0,23,DL_Guitar,6,2,DL_Guitar,0.5445579886436462,0
53,100,0.1409090909090909,13,1,24,DL_Guitar,6,2,DL_Guitar,0.9988419413566589,1
57,100,0.2,75,0,24,DL_Guitar,6,3,DL_Guitar,0.1372436136007309,0
57,100,0.6227272727272727,223,0,24,DL_Guitar,6,10,DL_Guitar,0.15977324545383453,0
53,100,0.11818181818181818,418,0,24,DL_Guitar,6,2,DL_Guitar,0.1864469200372696,0
60,100,0.1409090909090909,660,1,24,DL_Guitar,6,2,DL_Guitar,0.2581663429737091,0
55,100,0.3181818181818182,835,1,25,DL_Guitar,6,5,DL_Guitar,0.979256272315979,0
53,100,0.17727272727272728,96,1,26,DL_Guitar,6,3,DL_Guitar,0.9988419413566589,1
53,100,0.2409090909090909,140,0,26,DL_Guitar,6,4,DL_Guitar,0.1372448205947876,0
53,100,0.1409090909090909,308,0,26,DL_Guitar,6,2,DL_Guitar,0.15977095067501068,0
53,100,0.16363636363636364,509,0,26,DL_Guitar,6,3,DL_Guitar,0.18644273281097412,0
53,100,0.2590909090909091,677,0,26,DL_Guitar,6,4,DL_Guitar,0.25815728306770325,0
63,100,0.21818181818181817,285,1,27,DL_Guitar,6,3,DL_Guitar,0.9990229606628418,1
63,100,0.2,360,0,27,DL_Guitar,6,3,DL_Guitar,0.36662688851356506,0
63,100,0.5227272727272727,540,0,27,DL_Guitar,6,8,DL_Guitar,0.4533045291900635,0
63,100,0.3181818181818182,44,1,28,DL_Guitar,6,5,DL_Guitar,0.9990230798721313,1
63,100,0.4636363636363636,223,0,28,DL_Guitar,6,7,DL_Guitar,0.36662420630455017,0
53,100,0.2,330,0,28,DL_Guitar,6,3,DL_Guitar,0.45329973101615906,0
53,100,0.22272727272727272,233,1,30,DL_Guitar,6,4,DL_Guitar,0.9990229606628418,1
53,100,0.2,625,1,30,DL_Guitar,6,3,DL_Guitar,0.3666217029094696,0
53,100,0.11818181818181818,691,0,30,DL_Guitar,6,2,DL_Guitar,0.4532899260520935,0
53,100,0.1,581,1,32,DL_Guitar,6,2,DL_Guitar,0.9792559146881104,0
53,100,0.2409090909090909,13,1,33,DL_Guitar,6,4,DL_Guitar,0.9983736276626587,1
53,100,0.42272727272727273,69,0,33,DL_Guitar,6,7,DL_Guitar,0.05106007680296898,0
53,100,0.22272727272727272,289,0,33,DL_Guitar,6,4,DL_Guitar,0.04130195081233978,0
53,100,0.18181818181818182,351,0,33,DL_Guitar,6,3,DL_Guitar,0.03738444298505783,0
53,100,0.2590909090909091,408,0,33,DL_Guitar,6,4,DL_Guitar,0.03832923248410225,0
53,100,0.5409090909090909,474,0,33,DL_Guitar,6,9,DL_Guitar,0.04474840313196182,0
53,100,0.2409090909090909,673,0,33,DL_Guitar,6,4,DL_Guitar,0.055226705968379974,0
53,100,0.23636363636363636,743,0,33,DL_Guitar,6,4,DL_Guitar,0.09026160836219788,0
53,100,0.1409090909090909,813,1,34,DL_Guitar,6,2,DL_Guitar,0.9792563915252686,0
55,100,0.2636363636363636,201,1,36,DL_Guitar,6,4,DL_Guitar,0.9983165264129639,1
60,100,0.4590909090909091,603,1,36,DL_Guitar,6,7,DL_Guitar,0.5445541739463806,0
60,100,0.5590909090909091,83,1,37,DL_Guitar,6,9,DL_Guitar,0.9983165264129639,1
53,100,0.32272727272727275,606,1,37,DL_Guitar,6,5,DL_Guitar,0.5445540547370911,0
53,100,0.4,48,1,38,DL_Guitar,6,6,DL_Guitar,0.9990229606628418,1
53,100,0.3,241,0,38,DL_Guitar,6,5,DL_Guitar,0.3666200637817383,0
53,100,0.22272727272727272,421,0,38,DL_Guitar,6,4,DL_Guitar,0.4532892107963562,0
60,100,0.2,783,1,39,DL_Guitar,6,3,DL_Guitar,0.9792566299438477,0
53,100,0.2,8,1,40,DL_Guitar,6,3,DL_Guitar,0.9986500144004822,1
53,100,0.2590909090909091,281,1,40,DL_Guitar,6,4,DL_Guitar,0.08780078589916229,0
53,100,0.1409090909090909,466,0,40,DL_Guitar,6,2,DL_Guitar,0.09181195497512817,0
58,100,0.4409090909090909,550,0,40,DL_Guitar,6,7,DL_Guitar,0.10747247189283371,0
53,100,0.1590909090909091,668,0,40,DL_Guitar,6,3,DL_Guitar,0.12482022494077682,0
53,100,0.5,853,0,40,DL_Guitar,6,8,DL_Guitar,0.1790265291929245,0
53,100,0.2590909090909091,810,1,41,DL_Guitar,6,4,DL_Guitar,0.9792560338973999,0
53,100,0.2772727272727273,118,1,42,DL_Guitar,6,4,DL_Guitar,0.9792561531066895,0
60,100,0.6181818181818182,383,1,44,DL_Guitar,6,10,DL_Guitar,0.979256272315979,1
53,100,0.11818181818181818,845,1,46,DL_Guitar,6,2,DL_Guitar,0.9792558550834656,0
55,100,0.2409090909090909,295,1,48,DL_Guitar,6,4,DL_Guitar,0.9983164072036743,1
57,100,0.7,826,1,48,DL_Guitar,6,11,DL_Guitar,0.5445578098297119,0
57,100,0.18181818181818182,179,1,49,DL_Guitar,6,3,DL_Guitar,0.9983165264129639,1
55,100,0.2636363636363636,554,1,49,DL_Guitar,6,4,DL_Guitar,0.5445537567138672,0
53,100,0.2818181818181818,123,1,50,DL_Guitar,6,5,DL_Guitar,0.9990057349205017,1
53,100,0.2818181818181818,254,0,50,DL_Guitar,6,5,DL_Guitar,0.23121367394924164,0
53,100,0.12272727272727273,378,0,50,DL_Guitar,6,2,DL_Guitar,0.26593098044395447,0
55,100,2.7181818181818183,501,0,50,DL_Guitar,6,15,DL_Guitar,0.3541735112667084,0
53,100,0.1,263,1,58,DL_Guitar,6,2,DL_Guitar,0.9792561531066895,1
