pitch,velocity,duration,pos,boundary,bar,instrument,velocity_bucket,duration_bucket,song_id,pred_prob,pred_boundary
52,100,0.4818181818181818,730,1,0,DL_Guitar,6,8,koumoururiko,0.9926397800445557,0
52,100,0.21818181818181817,105,1,1,DL_Guitar,6,3,koumoururiko,0.9997097849845886,1
67,100,0.1409090909090909,175,0,1,DL_Guitar,6,2,koumoururiko,0.042393460869789124,0
62,100,0.1409090909090909,276,0,1,DL_Guitar,6,2,koumoururiko,0.033150337636470795,0
52,100,0.2590909090909091,348,0,1,DL_Guitar,6,4,koumoururiko,0.030538499355316162,0
67,100,0.5181818181818182,414,0,1,DL_Guitar,6,8,koumoururiko,0.02859128825366497,0
69,100,0.2636363636363636,597,0,1,DL_Guitar,6,4,koumoururiko,0.03509899601340294,0
69,100,0.18181818181818182,686,0,1,DL_Guitar,6,3,koumoururiko,0.0424814373254776,0
52,100,0.11818181818181818,744,0,1,DL_Guitar,6,2,koumoururiko,0.05147261545062065,0
59,100,0.32272727272727275,849,0,1,DL_Guitar,6,5,koumoururiko,0.043641310185194016,0
69,100,0.1409090909090909,185,1,2,DL_Guitar,6,2,koumoururiko,0.9997046589851379,1
59,100,0.3,229,0,2,DL_Guitar,6,5,koumoururiko,0.04219016060233116,0
74,100,0.1,299,0,2,DL_Guitar,6,2,koumoururiko,0.03451336920261383,0
57,100,0.2818181818181818,488,0,2,DL_Guitar,6,5,koumoururiko,0.030146189033985138,0
67,100,0.1409090909090909,571,0,2,DL_Guitar,6,2,koumoururiko,0.030003804713487625,0
69,100,0.37727272727272726,602,0,2,DL_Guitar,6,6,koumoururiko,0.03381824120879173,0
55,100,0.11818181818181818,721,0,2,DL_Guitar,6,2,koumoururiko,0.04411540925502777,0
67,100,0.2409090909090909,748,0,2,DL_Guitar,6,4,koumoururiko,0.04784176126122475,0
67,100,0.1,831,0,2,DL_Guitar,6,2,koumoururiko,0.04588779807090759,0
64,100,0.11818181818181818,373,1,3,DL_Guitar,6,2,koumoururiko,0.9998188614845276,1
67,100,0.2818181818181818,443,0,3,DL_Guitar,6,5,koumoururiko,0.12250661104917526,0
64,100,0.1,629,0,3,DL_Guitar,6,2,koumoururiko,0.12711012363433838,0
52,100,0.1409090909090909,651,0,3,DL_Guitar,6,2,koumoururiko,0.13612990081310272,0
67,100,0.5181818181818182,700,0,3,DL_Guitar,6,8,koumoururiko,0.12793247401714325,0
69,100,0.5,831,0,3,DL_Guitar,6,8,koumoururiko,0.12735991179943085,0
59,100,0.759090909090909,163,1,4,DL_Guitar,6,12,koumoururiko,0.999812662601471,1
74,100,0.2,348,0,4,DL_Guitar,6,3,koumoururiko,0.23463550209999084,0
69,100,0.1590909090909091,462,0,4,DL_Guitar,6,3,koumoururiko,0.19992892444133759,0
59,100,0.3409090909090909,514,0,4,DL_Guitar,6,5,koumoururiko,0.20725823938846588,0
62,100,0.11818181818181818,757,1,4,DL_Guitar,6,2,koumoururiko,0.21436439454555511,0
62,100,0.3409090909090909,122,1,5,DL_Guitar,6,5,koumoururiko,0.9998513460159302,1
55,100,0.3409090909090909,263,0,5,DL_Guitar,6,5,koumoururiko,0.3090225160121918,0
55,100,0.3409090909090909,360,0,5,DL_Guitar,6,5,koumoururiko,0.2958586812019348,0
55,100,0.4818181818181818,496,0,5,DL_Guitar,6,8,koumoururiko,0.3144736588001251,0
56,100,0.35909090909090907,0,1,6,DL_Guitar,6,6,koumoururiko,0.9998486042022705,1
56,100,0.12272727272727273,245,1,6,DL_Guitar,6,2,koumoururiko,0.3441016376018524,0
52,100,0.18181818181818182,452,0,6,DL_Guitar,6,3,koumoururiko,0.30108994245529175,0
57,100,0.759090909090909,651,0,6,DL_Guitar,6,12,koumoururiko,0.28589487075805664,0
59,100,0.17727272727272728,470,1,7,DL_Guitar,6,3,koumoururiko,0.9998321533203125,1
62,100,0.11818181818181818,603,0,7,DL_Guitar,6,2,koumoururiko,0.4165410101413727,0
55,100,0.2,774,0,7,DL_Guitar,6,3,koumoururiko,0.4213293194770813,0
64,100,0.1409090909090909,48,1,8,DL_Guitar,6,2,koumoururiko,0.9998427629470825,1
60,100,0.2,79,0,8,DL_Guitar,6,3,koumoururiko,0.4007984697818756,0
55,100,0.3181818181818182,405,1,8,DL_Guitar,6,5,koumoururiko,0.4165462851524353,0
59,100,0.21818181818181817,747,1,9,DL_Guitar,6,3,koumoururiko,0.9931437969207764,0
59,100,0.4590909090909091,185,1,10,DL_Guitar,6,7,koumoururiko,0.9998328685760498,1
64,100,0.32272727272727275,378,0,10,DL_Guitar,6,5,koumoururiko,0.21963229775428772,0
59,100,0.4,567,0,10,DL_Guitar,6,6,koumoururiko,0.19122827053070068,0
59,100,0.5363636363636364,699,0,10,DL_Guitar,6,9,koumoururiko,0.21187950670719147,0
67,100,0.11818181818181818,845,0,10,DL_Guitar,6,2,koumoururiko,0.207977294921875,0
59,100,0.2409090909090909,13,1,11,DL_Guitar,6,4,koumoururiko,0.9997662901878357,1
57,100,0.17727272727272728,414,1,11,DL_Guitar,6,3,koumoururiko,0.080323226749897,0
57,100,0.12272727272727273,474,0,11,DL_Guitar,6,2,koumoururiko,0.07296539843082428,0
67,100,0.11818181818181818,704,0,11,DL_Guitar,6,2,koumoururiko,0.081922747194767,0
55,100,0.12272727272727273,730,0,11,DL_Guitar,6,2,koumoururiko,0.08826921880245209,0
67,100,0.3,756,0,11,DL_Guitar,6,5,koumoururiko,0.09872879087924957,0
59,100,0.1409090909090909,871,0,11,DL_Guitar,6,2,koumoururiko,0.09005765616893768,0
59,100,0.22272727272727272,25,1,12,DL_Guitar,6,4,koumoururiko,0.9998334646224976,1
55,100,0.2409090909090909,92,0,12,DL_Guitar,6,4,koumoururiko,0.2037409394979477,0
55,100,0.2409090909090909,163,0,12,DL_Guitar,6,4,koumoururiko,0.19746093451976776,0
60,100,0.1,682,1,12,DL_Guitar,6,2,koumoururiko,0.22152294218540192,0
55,100,0.2818181818181818,795,0,12,DL_Guitar,6,5,koumoururiko,0.19700691103935242,0
55,100,0.16363636363636364,3,1,13,DL_Guitar,6,3,koumoururiko,0.9998264908790588,1
60,100,0.1,202,0,13,DL_Guitar,6,2,koumoururiko,0.4229991137981415,0
55,100,0.1,391,0,13,DL_Guitar,6,2,koumoururiko,0.42048266530036926,0
55,100,0.2590909090909091,194,1,14,DL_Guitar,6,4,koumoururiko,0.9998251795768738,1
57,100,0.2409090909090909,409,0,14,DL_Guitar,6,4,koumoururiko,0.41166365146636963,0
62,100,0.37727272727272726,809,1,14,DL_Guitar,6,6,koumoururiko,0.4276536703109741,0
55,100,0.21818181818181817,220,1,15,DL_Guitar,6,3,koumoururiko,0.9929053783416748,0
62,100,0.23636363636363636,281,1,16,DL_Guitar,6,4,koumoururiko,0.999839186668396,1
56,100,0.17727272727272728,492,0,16,DL_Guitar,6,3,koumoururiko,0.21322570741176605,0
55,100,0.2590909090909091,550,0,16,DL_Guitar,6,4,koumoururiko,0.19630460441112518,0
55,100,0.21818181818181817,611,0,16,DL_Guitar,6,3,koumoururiko,0.20444466173648834,0
55,100,0.5636363636363636,796,0,16,DL_Guitar,6,9,koumoururiko,0.2011977732181549,0
52,100,0.22272727272727272,48,1,17,DL_Guitar,6,4,koumoururiko,0.9998160004615784,1
52,100,0.1409090909090909,246,0,17,DL_Guitar,6,2,koumoururiko,0.12823258340358734,0
57,100,0.1,430,0,17,DL_Guitar,6,2,koumoururiko,0.11895712465047836,0
81,100,0.1590909090909091,515,0,17,DL_Guitar,6,3,koumoururiko,0.13230031728744507,0
57,100,0.22272727272727272,729,0,17,DL_Guitar,6,4,koumoururiko,0.14256709814071655,0
57,100,0.5181818181818182,814,0,17,DL_Guitar,6,8,koumoururiko,0.1241624504327774,0
62,100,0.1590909090909091,409,1,19,DL_Guitar,6,3,koumoururiko,0.9998350143432617,1
59,100,0.5181818181818182,602,0,19,DL_Guitar,6,8,koumoururiko,0.3882348835468292,0
62,100,0.21818181818181817,858,1,19,DL_Guitar,6,3,koumoururiko,0.43940478563308716,0
59,100,0.2409090909090909,48,1,20,DL_Guitar,6,4,koumoururiko,0.9998043179512024,1
62,100,0.5409090909090909,229,0,20,DL_Guitar,6,9,koumoururiko,0.12510927021503448,0
62,100,0.11818181818181818,370,0,20,DL_Guitar,6,2,koumoururiko,0.12917682528495789,0
62,100,0.11818181818181818,436,0,20,DL_Guitar,6,2,koumoururiko,0.13873443007469177,0
62,100,0.22272727272727272,739,1,20,DL_Guitar,6,4,koumoururiko,0.1464056670665741,0
62,100,0.7227272727272728,870,0,20,DL_Guitar,6,12,koumoururiko,0.1263984739780426,0
57,100,0.11818181818181818,150,1,21,DL_Guitar,6,2,koumoururiko,0.9998539686203003,1
62,100,0.11818181818181818,175,0,21,DL_Guitar,6,2,koumoururiko,0.3322254717350006,0
62,100,0.2,501,1,21,DL_Guitar,6,3,koumoururiko,0.28724315762519836,0
62,100,0.13636363636363635,567,0,21,DL_Guitar,6,2,koumoururiko,0.3036336898803711,0
60,100,0.1590909090909091,237,1,22,DL_Guitar,6,3,koumoururiko,0.9998635053634644,1
60,100,0.12272727272727273,312,0,22,DL_Guitar,6,2,koumoururiko,0.3188042640686035,0
60,100,0.3409090909090909,443,0,22,DL_Guitar,6,5,koumoururiko,0.28629231452941895,0
55,100,0.1590909090909091,646,0,22,DL_Guitar,6,3,koumoururiko,0.2933289706707001,0
59,100,0.12272727272727273,158,1,23,DL_Guitar,6,2,koumoururiko,0.9997041821479797,1
59,100,0.4590909090909091,250,0,23,DL_Guitar,6,7,koumoururiko,0.04165302589535713,0
59,100,0.1409090909090909,430,0,23,DL_Guitar,6,2,koumoururiko,0.03449462726712227,0
59,100,0.17727272727272728,492,0,23,DL_Guitar,6,3,koumoururiko,0.030536478385329247,0
59,100,0.2590909090909091,571,0,23,DL_Guitar,6,4,koumoururiko,0.029331108555197716,0
59,100,0.2,633,0,23,DL_Guitar,6,3,koumoururiko,0.03525553271174431,0
59,100,0.5,681,0,23,DL_Guitar,6,8,koumoururiko,0.04035891965031624,0
59,100,0.1409090909090909,801,0,23,DL_Guitar,6,2,koumoururiko,0.0495133213698864,0
59,100,0.2,862,0,23,DL_Guitar,6,3,koumoururiko,0.04789496958255768,0
64,100,0.1590909090909091,44,1,24,DL_Guitar,6,3,koumoururiko,0.9998088479042053,1
59,100,0.8363636363636363,127,0,24,DL_Guitar,6,13,koumoururiko,0.10854949057102203,0
52,100,0.3,320,0,24,DL_Guitar,6,5,koumoururiko,0.13807158172130585,0
59,100,0.17727272727272728,413,0,24,DL_Guitar,6,3,koumoururiko,0.13786737620830536,0
59,100,0.9,567,0,24,DL_Guitar,6,14,koumoururiko,0.13346955180168152,0
59,100,0.3409090909090909,801,1,24,DL_Guitar,6,5,koumoururiko,0.14695975184440613,0
59,100,0.2,281,1,25,DL_Guitar,6,3,koumoururiko,0.9998019337654114,1
59,100,0.17727272727272728,413,0,25,DL_Guitar,6,3,koumoururiko,0.1281728595495224,0
62,100,0.2590909090909091,567,0,25,DL_Guitar,6,4,koumoururiko,0.12102540582418442,0
59,100,0.5772727272727273,625,0,25,DL_Guitar,6,9,koumoururiko,0.13149435818195343,0
62,100,0.3,756,0,25,DL_Guitar,6,5,koumoururiko,0.1495450735092163,0
59,100,0.16363636363636364,862,0,25,DL_Guitar,6,3,koumoururiko,0.13415183126926422,0
60,100,0.2409090909090909,387,1,26,DL_Guitar,6,4,koumoururiko,0.9998432397842407,1
60,100,0.4,480,0,26,DL_Guitar,6,6,koumoururiko,0.2065577208995819,0
55,100,0.22272727272727272,584,0,26,DL_Guitar,6,4,koumoururiko,0.1934654414653778,0
60,100,0.1590909090909091,760,0,26,DL_Guitar,6,3,koumoururiko,0.21411168575286865,0
60,100,0.2,839,0,26,DL_Guitar,6,3,koumoururiko,0.19633106887340546,0
60,100,0.740909090909091,57,1,27,DL_Guitar,6,12,koumoururiko,0.9998145699501038,1
55,100,0.11818181818181818,250,0,27,DL_Guitar,6,2,koumoururiko,0.23441074788570404,0
60,100,0.1590909090909091,285,0,27,DL_Guitar,6,3,koumoururiko,0.2035861760377884,0
57,100,0.1590909090909091,735,1,27,DL_Guitar,6,3,koumoururiko,0.2112780660390854,0
57,100,0.35909090909090907,835,0,27,DL_Guitar,6,6,koumoururiko,0.20170938968658447,0
62,100,0.2409090909090909,44,1,28,DL_Guitar,6,4,koumoururiko,0.9998359680175781,1
62,100,0.4409090909090909,131,0,28,DL_Guitar,6,7,koumoururiko,0.20446550846099854,0
57,100,0.5590909090909091,360,0,28,DL_Guitar,6,9,koumoururiko,0.1946805864572525,0
57,100,0.17727272727272728,515,0,28,DL_Guitar,6,3,koumoururiko,0.22665327787399292,0
62,100,0.740909090909091,725,0,28,DL_Guitar,6,12,koumoururiko,0.20586693286895752,0
62,100,0.11818181818181818,40,1,29,DL_Guitar,6,2,koumoururiko,0.9997289776802063,1
59,100,0.17727272727272728,75,0,29,DL_Guitar,6,3,koumoururiko,0.0559571273624897,0
62,100,0.42272727272727273,202,0,29,DL_Guitar,6,7,koumoururiko,0.04746043682098389,0
55,100,0.5409090909090909,382,0,29,DL_Guitar,6,9,koumoururiko,0.04823498800396919,0
59,100,0.11818181818181818,523,0,29,DL_Guitar,6,2,koumoururiko,0.05747731402516365,0
62,100,0.23636363636363636,567,0,29,DL_Guitar,6,4,koumoururiko,0.06281081587076187,0
62,100,0.3409090909090909,629,0,29,DL_Guitar,6,5,koumoururiko,0.06957433372735977,0
57,100,0.6181818181818182,756,0,29,DL_Guitar,6,10,koumoururiko,0.06194175407290459,0
57,100,0.5590909090909091,144,1,30,DL_Guitar,6,9,koumoururiko,0.9998354911804199,1
57,100,0.37727272727272726,339,0,30,DL_Guitar,6,6,koumoururiko,0.32657748460769653,0
62,100,0.2409090909090909,422,0,30,DL_Guitar,6,4,koumoururiko,0.30909520387649536,0
57,100,0.6181818181818182,660,1,30,DL_Guitar,6,10,koumoururiko,0.3048383295536041,0
57,100,0.4636363636363636,48,1,31,DL_Guitar,6,7,koumoururiko,0.9997891783714294,1
57,100,0.2409090909090909,223,0,31,DL_Guitar,6,4,koumoururiko,0.1353272795677185,0
57,100,0.6409090909090909,285,0,31,DL_Guitar,6,10,koumoururiko,0.11433549970388412,0
57,100,0.3,474,0,31,DL_Guitar,6,5,koumoururiko,0.14456748962402344,0
57,100,0.12272727272727273,629,0,31,DL_Guitar,6,2,koumoururiko,0.1572035700082779,0
57,100,0.5181818181818182,810,0,31,DL_Guitar,6,8,koumoururiko,0.1357097029685974,0
57,100,0.1409090909090909,48,1,32,DL_Guitar,6,2,koumoururiko,0.9997290968894958,1
57,100,0.2,114,0,32,DL_Guitar,6,3,koumoururiko,0.05430883169174194,0
59,100,0.22272727272727272,246,0,32,DL_Guitar,6,4,koumoururiko,0.047201115638017654,0
59,100,0.11818181818181818,316,0,32,DL_Guitar,6,2,koumoururiko,0.04824409633874893,0
59,100,0.3,361,0,32,DL_Guitar,6,5,koumoururiko,0.050871312618255615,0
62,100,0.11818181818181818,590,0,32,DL_Guitar,6,2,koumoururiko,0.06369585543870926,0
57,100,0.18181818181818182,641,0,32,DL_Guitar,6,3,koumoururiko,0.06493651121854782,0
55,100,0.21818181818181817,691,0,32,DL_Guitar,6,3,koumoururiko,0.06172638759016991,0
55,100,0.1409090909090909,21,1,33,DL_Guitar,6,2,koumoururiko,0.9998025298118591,1
59,100,0.11818181818181818,131,0,33,DL_Guitar,6,2,koumoururiko,0.12963414192199707,0
57,100,0.3,241,0,33,DL_Guitar,6,5,koumoururiko,0.11839848011732101,0
60,100,0.35909090909090907,581,1,33,DL_Guitar,6,6,koumoururiko,0.13696704804897308,0
60,100,0.2636363636363636,708,0,33,DL_Guitar,6,4,koumoururiko,0.14810332655906677,0
59,100,0.2,778,0,33,DL_Guitar,6,3,koumoururiko,0.12952539324760437,0
65,100,0.11818181818181818,435,1,34,DL_Guitar,6,2,koumoururiko,0.9934386610984802,0
62,100,0.2772727272727273,31,1,35,DL_Guitar,6,4,koumoururiko,0.999836802482605,1
52,100,0.38181818181818183,110,0,35,DL_Guitar,6,6,koumoururiko,0.2176801562309265,0
52,100,0.21818181818181817,251,0,35,DL_Guitar,6,3,koumoururiko,0.2094988226890564,0
59,100,0.6409090909090909,466,0,35,DL_Guitar,6,10,koumoururiko,0.20105908811092377,0
57,100,1.059090909090909,628,0,35,DL_Guitar,6,15,koumoururiko,0.1956595778465271,0
52,100,0.2409090909090909,4,1,36,DL_Guitar,6,4,koumoururiko,0.9998193383216858,1
57,100,0.9818181818181818,110,0,36,DL_Guitar,6,15,koumoururiko,0.37657779455184937,0
59,100,0.5,761,1,36,DL_Guitar,6,8,koumoururiko,0.45535480976104736,0
67,100,0.2590909090909091,13,1,37,DL_Guitar,6,4,koumoururiko,0.9997598528862,1
55,100,0.22272727272727272,78,0,37,DL_Guitar,6,4,koumoururiko,0.08090117573738098,0
62,100,0.2,131,0,37,DL_Guitar,6,3,koumoururiko,0.07418599724769592,0
64,100,0.38181818181818183,179,0,37,DL_Guitar,6,6,koumoururiko,0.07985950261354446,0
64,100,0.35909090909090907,435,1,37,DL_Guitar,6,6,koumoururiko,0.09037628024816513,0
67,100,0.1,531,0,37,DL_Guitar,6,2,koumoururiko,0.09457406401634216,0
55,100,0.21818181818181817,655,0,37,DL_Guitar,6,3,koumoururiko,0.08693847805261612,0
71,100,0.37727272727272726,53,1,38,DL_Guitar,6,6,koumoururiko,0.9997116923332214,1
55,100,0.11818181818181818,150,0,38,DL_Guitar,6,2,koumoururiko,0.05848974734544754,0
62,100,0.18181818181818182,220,0,38,DL_Guitar,6,3,koumoururiko,0.048671904951334,0
69,100,0.17727272727272728,281,0,38,DL_Guitar,6,3,koumoururiko,0.047353051602840424,0
71,100,0.18181818181818182,334,0,38,DL_Guitar,6,3,koumoururiko,0.05466483160853386,0
74,100,0.3,396,0,38,DL_Guitar,6,5,koumoururiko,0.06022057682275772,0
69,100,0.22272727272727272,563,0,38,DL_Guitar,6,4,koumoururiko,0.06541382521390915,0
69,100,0.18181818181818182,616,0,38,DL_Guitar,6,3,koumoururiko,0.06414550542831421,0
62,100,0.2,131,1,39,DL_Guitar,6,3,koumoururiko,0.9997698664665222,1
67,100,0.2,303,0,39,DL_Guitar,6,3,koumoururiko,0.07682488113641739,0
55,100,0.3181818181818182,348,0,39,DL_Guitar,6,5,koumoururiko,0.07371778786182404,0
62,100,0.1590909090909091,435,0,39,DL_Guitar,6,3,koumoururiko,0.08530658483505249,0
64,100,0.35909090909090907,474,0,39,DL_Guitar,6,6,koumoururiko,0.08966875821352005,0
67,100,0.21818181818181817,558,0,39,DL_Guitar,6,3,koumoururiko,0.09641216695308685,0
64,100,0.3,738,0,39,DL_Guitar,6,5,koumoururiko,0.09227203577756882,0
64,100,0.2,88,1,40,DL_Guitar,6,3,koumoururiko,0.9997722506523132,1
64,100,0.16363636363636364,136,0,40,DL_Guitar,6,3,koumoururiko,0.08021335303783417,0
55,100,0.1,201,0,40,DL_Guitar,6,2,koumoururiko,0.07326395809650421,0
69,100,0.2590909090909091,563,1,40,DL_Guitar,6,4,koumoururiko,0.0754568874835968,0
59,100,0.1409090909090909,646,0,40,DL_Guitar,6,2,koumoururiko,0.0953928604722023,0
74,100,0.2818181818181818,694,0,40,DL_Guitar,6,5,koumoururiko,0.09862073510885239,0
69,100,0.6181818181818182,858,0,40,DL_Guitar,6,10,koumoururiko,0.08418656140565872,0
62,100,0.5590909090909091,321,1,41,DL_Guitar,6,9,koumoururiko,0.9998438358306885,1
55,100,0.2,584,1,41,DL_Guitar,6,3,koumoururiko,0.331866055727005,0
59,100,0.5590909090909091,713,0,41,DL_Guitar,6,9,koumoururiko,0.2893713414669037,0
55,100,0.2,839,0,41,DL_Guitar,6,3,koumoururiko,0.3137528896331787,0
55,100,0.2,101,1,42,DL_Guitar,6,3,koumoururiko,0.999758780002594,1
55,100,0.1590909090909091,150,0,42,DL_Guitar,6,3,koumoururiko,0.08233309537172318,0
55,100,0.3409090909090909,201,0,42,DL_Guitar,6,5,koumoururiko,0.07514899224042892,0
59,100,0.6409090909090909,351,0,42,DL_Guitar,6,10,koumoururiko,0.07946531474590302,0
55,100,0.2772727272727273,515,0,42,DL_Guitar,6,4,koumoururiko,0.10125754028558731,0
57,100,1.1409090909090909,606,0,42,DL_Guitar,6,15,koumoururiko,0.09483295679092407,0
64,100,1.1409090909090909,871,1,42,DL_Guitar,6,15,koumoururiko,0.09831999242305756,0
57,100,0.1409090909090909,241,1,43,DL_Guitar,6,2,koumoururiko,0.9998028874397278,1
81,100,0.3181818181818182,273,0,43,DL_Guitar,6,5,koumoururiko,0.12289927154779434,0
57,100,0.3,413,0,43,DL_Guitar,6,5,koumoururiko,0.12039104104042053,0
57,100,0.16363636363636364,509,0,43,DL_Guitar,6,3,koumoururiko,0.14138562977313995,0
55,100,0.6,611,0,43,DL_Guitar,6,10,koumoururiko,0.13083690404891968,0
60,100,0.1590909090909091,875,1,43,DL_Guitar,6,3,koumoururiko,0.14677484333515167,0
60,100,0.5590909090909091,61,1,44,DL_Guitar,6,9,koumoururiko,0.9998301267623901,1
60,100,0.16363636363636364,224,0,44,DL_Guitar,6,3,koumoururiko,0.2236461639404297,0
62,100,0.33636363636363636,348,0,44,DL_Guitar,6,5,koumoururiko,0.19072869420051575,0
60,100,0.5590909090909091,496,0,44,DL_Guitar,6,9,koumoururiko,0.2081020623445511,0
74,100,0.35909090909090907,660,0,44,DL_Guitar,6,6,koumoururiko,0.207680806517601,0
60,100,0.12272727272727273,69,1,51,DL_Guitar,6,2,koumoururiko,0.993546187877655,1
62,100,0.1,361,1,52,DL_Guitar,6,2,koumoururiko,0.9933725595474243,0
60,100,0.38181818181818183,311,1,53,DL_Guitar,6,6,koumoururiko,0.9998199343681335,1
60,100,1.1409090909090909,471,0,53,DL_Guitar,6,15,koumoururiko,0.3766306936740875,0
60,100,0.2,861,1,53,DL_Guitar,6,3,koumoururiko,0.4661676585674286,0
60,100,0.4772727272727273,53,1,54,DL_Guitar,6,8,koumoururiko,0.9998230338096619,1
59,100,0.16363636363636364,224,0,54,DL_Guitar,6,3,koumoururiko,0.42427846789360046,0
59,100,0.11818181818181818,743,1,54,DL_Guitar,6,2,koumoururiko,0.4275740087032318,0
62,100,0.2590909090909091,123,1,57,DL_Guitar,6,4,koumoururiko,0.9932047128677368,0
59,100,0.2636363636363636,114,1,63,DL_Guitar,6,4,koumoururiko,0.9996210336685181,1
58,100,0.13636363636363635,501,1,63,DL_Guitar,6,2,koumoururiko,0.5460249185562134,0
59,100,0.1,360,1,65,DL_Guitar,6,2,koumoururiko,0.9998389482498169,1
59,100,0.1,386,0,65,DL_Guitar,6,2,koumoururiko,0.21276673674583435,0
59,100,0.2636363636363636,422,0,65,DL_Guitar,6,4,koumoururiko,0.19215935468673706,0
59,100,0.4409090909090909,506,0,65,DL_Guitar,6,7,koumoururiko,0.20809394121170044,0
59,100,0.5409090909090909,624,0,65,DL_Guitar,6,9,koumoururiko,0.20507468283176422,0
57,100,0.41818181818181815,9,1,66,DL_Guitar,6,7,koumoururiko,0.9925507307052612,0
59,100,0.2409090909090909,443,1,77,DL_Guitar,6,4,koumoururiko,0.9996346235275269,1
57,100,0.23636363636363636,700,1,77,DL_Guitar,6,4,koumoururiko,0.5423251986503601,0
57,100,0.2409090909090909,0,1,78,DL_Guitar,6,4,koumoururiko,0.9998286962509155,1
57,100,0.1,83,0,78,DL_Guitar,6,2,koumoururiko,0.20998239517211914,0
57,100,0.22272727272727272,145,0,78,DL_Guitar,6,4,koumoururiko,0.1954890340566635,0
57,100,0.11818181818181818,294,0,78,DL_Guitar,6,2,koumoururiko,0.21039874851703644,0
59,100,0.1,360,0,78,DL_Guitar,6,2,koumoururiko,0.2043563425540924,0
62,100,0.2818181818181818,0,1,94,DL_Guitar,6,5,koumoururiko,0.9996813535690308,1
62,100,0.11818181818181818,110,0,94,DL_Guitar,6,2,koumoururiko,0.03684638440608978,0
62,100,0.1409090909090909,229,0,94,DL_Guitar,6,2,koumoururiko,0.026147060096263885,0
64,100,0.35909090909090907,260,0,94,DL_Guitar,6,6,koumoururiko,0.020966237410902977,0
55,100,0.17727272727272728,347,0,94,DL_Guitar,6,3,koumoururiko,0.019491950049996376,0
62,100,0.21818181818181817,413,0,94,DL_Guitar,6,3,koumoururiko,0.020590025931596756,0
62,100,0.13636363636363635,480,0,94,DL_Guitar,6,2,koumoururiko,0.024078452959656715,0
64,100,0.3409090909090909,514,0,94,DL_Guitar,6,5,koumoururiko,0.029249925166368484,0
67,100,0.5590909090909091,590,0,94,DL_Guitar,6,9,koumoururiko,0.03574788197875023,0
66,100,0.13636363636363635,876,1,94,DL_Guitar,6,2,koumoururiko,0.04112599045038223,0
71,100,0.3,47,1,95,DL_Guitar,6,5,koumoururiko,0.9997538924217224,1
71,100,0.3,150,0,95,DL_Guitar,6,5,koumoururiko,0.08397625386714935,0
66,100,0.2,233,0,95,DL_Guitar,6,3,koumoururiko,0.07671552151441574,0
62,100,0.1,307,0,95,DL_Guitar,6,2,koumoururiko,0.08231432735919952,0
71,100,0.17727272727272728,413,0,95,DL_Guitar,6,3,koumoururiko,0.09443957358598709,0
69,100,0.22272727272727272,805,1,95,DL_Guitar,6,4,koumoururiko,0.10031590610742569,0
67,100,1.259090909090909,876,0,95,DL_Guitar,6,15,koumoururiko,0.08246166259050369,0
62,100,0.12272727272727273,365,1,96,DL_Guitar,6,2,koumoururiko,0.9997782111167908,1
64,100,0.13636363636363635,392,0,96,DL_Guitar,6,2,koumoururiko,0.07925555109977722,0
62,100,0.1409090909090909,506,0,96,DL_Guitar,6,2,koumoururiko,0.07352600991725922,0
64,100,0.38181818181818183,540,0,96,DL_Guitar,6,6,koumoururiko,0.07788462936878204,0
62,100,0.11818181818181818,726,0,96,DL_Guitar,6,2,koumoururiko,0.08809399604797363,0
62,100,0.17727272727272728,756,0,96,DL_Guitar,6,3,koumoururiko,0.09444103389978409,0
64,100,0.3409090909090909,796,0,96,DL_Guitar,6,5,koumoururiko,0.08424051105976105,0
67,100,0.5818181818181818,0,1,97,DL_Guitar,6,9,koumoururiko,0.9997773766517639,1
69,100,0.21818181818181817,132,0,97,DL_Guitar,6,3,koumoururiko,0.14097246527671814,0
71,100,0.8,330,0,97,DL_Guitar,6,13,koumoururiko,0.119047611951828,0
66,100,0.1,536,0,97,DL_Guitar,6,2,koumoururiko,0.15105678141117096,0
62,100,0.2590909090909091,567,0,97,DL_Guitar,6,4,koumoururiko,0.14864206314086914,0
69,100,0.1409090909090909,650,0,97,DL_Guitar,6,2,koumoururiko,0.13834144175052643,0
69,100,0.18181818181818182,233,1,98,DL_Guitar,6,3,koumoururiko,0.9996182918548584,1
67,100,0.12272727272727273,399,0,98,DL_Guitar,6,2,koumoururiko,0.551184356212616,0
57,100,0.18181818181818182,356,1,0,DL_JapaneseFolk_Guitar,6,3,koumouJapaneseFolk,0.9998518228530884,1
61,100,0.17727272727272728,524,0,0,DL_JapaneseFolk_Guitar,6,3,koumouJapaneseFolk,0.3240136504173279,0
54,100,0.18181818181818182,717,0,0,DL_JapaneseFolk_Guitar,6,3,koumouJapaneseFolk,0.2950856387615204,0
52,100,0.2590909090909091,849,0,0,DL_JapaneseFolk_Guitar,6,4,koumouJapaneseFolk,0.30301564931869507,0
57,100,0.3181818181818182,30,1,1,DL_JapaneseFolk_Guitar,6,5,koumouJapaneseFolk,0.9997947812080383,1
59,100,0.37727272727272726,149,0,1,DL_JapaneseFolk_Guitar,6,6,koumouJapaneseFolk,0.13141529262065887,0
59,100,0.2409090909090909,290,0,1,DL_JapaneseFolk_Guitar,6,4,koumouJapaneseFolk,0.12177316099405289,0
57,100,0.2772727272727273,479,0,1,DL_JapaneseFolk_Guitar,6,4,koumouJapaneseFolk,0.13825999200344086,0
57,100,0.7,673,0,1,DL_JapaneseFolk_Guitar,6,11,koumouJapaneseFolk,0.1371530145406723,0
54,100,0.3,866,0,1,DL_JapaneseFolk_Guitar,6,5,koumouJapaneseFolk,0.14370065927505493,0
52,100,0.5590909090909091,57,1,2,DL_JapaneseFolk_Guitar,6,9,koumouJapaneseFolk,0.9998200535774231,1
57,100,0.2818181818181818,180,0,2,DL_JapaneseFolk_Guitar,6,5,koumouJapaneseFolk,0.21500606834888458,0
57,100,0.2590909090909091,633,1,2,DL_JapaneseFolk_Guitar,6,4,koumouJapaneseFolk,0.20265120267868042,0
59,100,0.2590909090909091,703,0,2,DL_JapaneseFolk_Guitar,6,4,koumouJapaneseFolk,0.21075858175754547,0
57,100,0.740909090909091,822,0,2,DL_JapaneseFolk_Guitar,6,12,koumouJapaneseFolk,0.20305977761745453,0
54,100,0.1409090909090909,144,1,3,DL_JapaneseFolk_Guitar,6,2,koumouJapaneseFolk,0.9998369216918945,1
57,100,0.9,201,0,3,DL_JapaneseFolk_Guitar,6,14,koumouJapaneseFolk,0.18544091284275055,0
52,100,0.2409090909090909,466,1,3,DL_JapaneseFolk_Guitar,6,4,koumouJapaneseFolk,0.22257240116596222,0
52,100,0.1590909090909091,611,0,3,DL_JapaneseFolk_Guitar,6,3,koumouJapaneseFolk,0.20368897914886475,0
52,100,0.11818181818181818,788,0,3,DL_JapaneseFolk_Guitar,6,2,koumouJapaneseFolk,0.20375043153762817,0
59,100,0.6409090909090909,91,1,4,DL_JapaneseFolk_Guitar,6,10,koumouJapaneseFolk,0.9997814297676086,1
56,100,0.2,307,0,4,DL_JapaneseFolk_Guitar,6,3,koumouJapaneseFolk,0.13535255193710327,0
64,100,0.21818181818181817,373,0,4,DL_JapaneseFolk_Guitar,6,3,koumouJapaneseFolk,0.1278785765171051,0
52,100,0.22272727272727272,421,0,4,DL_JapaneseFolk_Guitar,6,4,koumouJapaneseFolk,0.13651913404464722,0
59,100,0.1409090909090909,509,0,4,DL_JapaneseFolk_Guitar,6,2,koumouJapaneseFolk,0.14139369130134583,0
59,100,0.6590909090909091,637,0,4,DL_JapaneseFolk_Guitar,6,11,koumouJapaneseFolk,0.12779055535793304,0
61,100,0.1590909090909091,128,1,5,DL_JapaneseFolk_Guitar,6,3,koumouJapaneseFolk,0.9998080134391785,1
57,100,0.740909090909091,242,0,5,DL_JapaneseFolk_Guitar,6,12,koumouJapaneseFolk,0.11418309062719345,0
52,100,0.1590909090909091,452,0,5,DL_JapaneseFolk_Guitar,6,3,koumouJapaneseFolk,0.14144515991210938,0
52,100,0.3409090909090909,496,0,5,DL_JapaneseFolk_Guitar,6,5,koumouJapaneseFolk,0.13540378212928772,0
52,100,0.38181818181818183,761,1,5,DL_JapaneseFolk_Guitar,6,6,koumouJapaneseFolk,0.14354002475738525,0
57,100,0.5181818181818182,844,0,5,DL_JapaneseFolk_Guitar,6,8,koumouJapaneseFolk,0.1245238184928894,0
57,100,0.4,207,1,6,DL_JapaneseFolk_Guitar,6,6,koumouJapaneseFolk,0.9998444318771362,1
52,100,0.1,307,0,6,DL_JapaneseFolk_Guitar,6,2,koumouJapaneseFolk,0.3381289839744568,0
57,100,0.8772727272727273,391,0,6,DL_JapaneseFolk_Guitar,6,14,koumouJapaneseFolk,0.2708531618118286,0
52,100,0.6181818181818182,593,0,6,DL_JapaneseFolk_Guitar,6,10,koumouJapaneseFolk,0.3251893222332001,0
57,100,0.3181818181818182,40,1,7,DL_JapaneseFolk_Guitar,6,5,koumouJapaneseFolk,0.9998130202293396,1
52,100,0.2590909090909091,110,0,7,DL_JapaneseFolk_Guitar,6,4,koumouJapaneseFolk,0.4385131001472473,0
57,100,0.3181818181818182,545,1,7,DL_JapaneseFolk_Guitar,6,5,koumouJapaneseFolk,0.41822677850723267,0
59,100,0.36363636363636365,180,1,8,DL_JapaneseFolk_Guitar,6,6,koumouJapaneseFolk,0.9927573204040527,0
57,100,0.23636363636363636,17,1,9,DL_JapaneseFolk_Guitar,6,4,koumouJapaneseFolk,0.9998247027397156,1
62,100,0.3181818181818182,646,1,9,DL_JapaneseFolk_Guitar,6,5,koumouJapaneseFolk,0.4170014560222626,0
57,100,0.5590909090909091,876,0,9,DL_JapaneseFolk_Guitar,6,9,koumouJapaneseFolk,0.42269980907440186,0
62,100,0.5409090909090909,233,1,10,DL_JapaneseFolk_Guitar,6,9,koumouJapaneseFolk,0.9998409748077393,1
57,100,0.2818181818181818,355,0,10,DL_JapaneseFolk_Guitar,6,5,koumouJapaneseFolk,0.32835397124290466,0
62,100,0.11818181818181818,470,0,10,DL_JapaneseFolk_Guitar,6,2,koumouJapaneseFolk,0.30854928493499756,0
52,100,0.3,818,1,10,DL_JapaneseFolk_Guitar,6,5,koumouJapaneseFolk,0.30967646837234497,0
56,100,0.7,395,1,11,DL_JapaneseFolk_Guitar,6,11,koumouJapaneseFolk,0.9925031661987305,0
66,100,0.12272727272727273,79,1,12,DL_JapaneseFolk_Guitar,6,2,koumouJapaneseFolk,0.9998086094856262,1
66,100,0.1409090909090909,110,0,12,DL_JapaneseFolk_Guitar,6,2,koumouJapaneseFolk,0.12567059695720673,0
69,100,0.2636363636363636,202,0,12,DL_JapaneseFolk_Guitar,6,4,koumouJapaneseFolk,0.11781149357557297,0
57,100,0.35909090909090907,259,0,12,DL_JapaneseFolk_Guitar,6,6,koumouJapaneseFolk,0.1355597823858261,0
56,100,0.1409090909090909,488,0,12,DL_JapaneseFolk_Guitar,6,2,koumouJapaneseFolk,0.15388332307338715,0
68,100,0.2409090909090909,730,1,12,DL_JapaneseFolk_Guitar,6,4,koumouJapaneseFolk,0.1298029124736786,0
71,100,0.2818181818181818,355,1,13,DL_JapaneseFolk_Guitar,6,5,koumouJapaneseFolk,0.9998326301574707,1
56,100,0.18181818181818182,440,0,13,DL_JapaneseFolk_Guitar,6,3,koumouJapaneseFolk,0.21972788870334625,0
57,100,0.2590909090909091,625,0,13,DL_JapaneseFolk_Guitar,6,4,koumouJapaneseFolk,0.19582754373550415,0
56,100,0.2,818,0,13,DL_JapaneseFolk_Guitar,6,3,koumouJapaneseFolk,0.20843808352947235,0
64,100,0.2772727272727273,876,0,13,DL_JapaneseFolk_Guitar,6,4,koumouJapaneseFolk,0.20794014632701874,0
56,100,0.17727272727272728,75,1,14,DL_JapaneseFolk_Guitar,6,3,koumouJapaneseFolk,0.9998379945755005,1
57,100,0.2409090909090909,448,1,14,DL_JapaneseFolk_Guitar,6,4,koumouJapaneseFolk,0.20107898116111755,0
62,100,0.2409090909090909,510,0,14,DL_JapaneseFolk_Guitar,6,4,koumouJapaneseFolk,0.201262965798378,0
57,100,0.32272727272727275,642,0,14,DL_JapaneseFolk_Guitar,6,5,koumouJapaneseFolk,0.20237688720226288,0
52,100,0.1409090909090909,770,0,14,DL_JapaneseFolk_Guitar,6,2,koumouJapaneseFolk,0.21005471050739288,0
71,100,0.2,140,1,15,DL_JapaneseFolk_Guitar,6,3,koumouJapaneseFolk,0.9997995495796204,1
57,100,0.12272727272727273,189,0,15,DL_JapaneseFolk_Guitar,6,2,koumouJapaneseFolk,0.12907300889492035,0
57,100,0.6,254,0,15,DL_JapaneseFolk_Guitar,6,10,koumouJapaneseFolk,0.1154588982462883,0
52,100,0.6409090909090909,465,0,15,DL_JapaneseFolk_Guitar,6,10,koumouJapaneseFolk,0.1440124213695526,0
57,100,0.1,716,1,15,DL_JapaneseFolk_Guitar,6,2,koumouJapaneseFolk,0.1475636065006256,0
52,100,0.6363636363636364,766,0,15,DL_JapaneseFolk_Guitar,6,10,koumouJapaneseFolk,0.13054537773132324,0
52,100,0.2,119,1,16,DL_JapaneseFolk_Guitar,6,3,koumouJapaneseFolk,0.9998459815979004,1
64,100,0.2772727272727273,216,0,16,DL_JapaneseFolk_Guitar,6,4,koumouJapaneseFolk,0.2022513896226883,0
52,100,0.13636363636363635,326,0,16,DL_JapaneseFolk_Guitar,6,2,koumouJapaneseFolk,0.1953922063112259,0
64,100,0.1409090909090909,374,0,16,DL_JapaneseFolk_Guitar,6,2,koumouJapaneseFolk,0.2022899091243744,0
52,100,0.37727272727272726,413,0,16,DL_JapaneseFolk_Guitar,6,6,koumouJapaneseFolk,0.19619803130626678,0
52,100,0.5,299,1,17,DL_JapaneseFolk_Guitar,6,8,koumouJapaneseFolk,0.999830961227417,1
52,100,0.6409090909090909,430,0,17,DL_JapaneseFolk_Guitar,6,10,koumouJapaneseFolk,0.4053519666194916,0
64,100,0.11818181818181818,625,0,17,DL_JapaneseFolk_Guitar,6,2,koumouJapaneseFolk,0.4364016354084015,0
57,100,0.2590909090909091,198,1,18,DL_JapaneseFolk_Guitar,6,4,koumouJapaneseFolk,0.9998500347137451,1
61,100,0.3181818181818182,326,0,18,DL_JapaneseFolk_Guitar,6,5,koumouJapaneseFolk,0.31233397126197815,0
61,100,0.4,509,0,18,DL_JapaneseFolk_Guitar,6,6,koumouJapaneseFolk,0.29986125230789185,0
52,100,0.5409090909090909,845,1,18,DL_JapaneseFolk_Guitar,6,9,koumouJapaneseFolk,0.3067455589771271,0
68,100,0.4772727272727273,119,1,19,DL_JapaneseFolk_Guitar,6,8,koumouJapaneseFolk,0.9996951818466187,1
52,100,0.1409090909090909,241,0,19,DL_JapaneseFolk_Guitar,6,2,koumouJapaneseFolk,0.04595567286014557,0
59,100,0.2,303,0,19,DL_JapaneseFolk_Guitar,6,3,koumouJapaneseFolk,0.03188202902674675,0
52,100,0.4,382,0,19,DL_JapaneseFolk_Guitar,6,6,koumouJapaneseFolk,0.031311701983213425,0
59,100,0.4,480,0,19,DL_JapaneseFolk_Guitar,6,6,koumouJapaneseFolk,0.029829401522874832,0
59,100,0.11818181818181818,581,0,19,DL_JapaneseFolk_Guitar,6,2,koumouJapaneseFolk,0.03447450324892998,0
68,100,0.18181818181818182,619,0,19,DL_JapaneseFolk_Guitar,6,3,koumouJapaneseFolk,0.04133886098861694,0
62,100,0.2818181818181818,673,0,19,DL_JapaneseFolk_Guitar,6,5,koumouJapaneseFolk,0.04798286780714989,0
59,100,0.32272727272727275,796,0,19,DL_JapaneseFolk_Guitar,6,5,koumouJapaneseFolk,0.046540290117263794,0
54,100,0.5818181818181818,113,1,20,DL_JapaneseFolk_Guitar,6,9,koumouJapaneseFolk,0.9997171759605408,1
66,100,0.2590909090909091,260,0,20,DL_JapaneseFolk_Guitar,6,4,koumouJapaneseFolk,0.05626702681183815,0
54,100,0.1409090909090909,316,0,20,DL_JapaneseFolk_Guitar,6,2,koumouJapaneseFolk,0.04962078854441643,0
66,100,0.11818181818181818,347,0,20,DL_JapaneseFolk_Guitar,6,2,koumouJapaneseFolk,0.048492107540369034,0
54,100,0.2590909090909091,374,0,20,DL_JapaneseFolk_Guitar,6,4,koumouJapaneseFolk,0.05181894451379776,0
61,100,0.3181818181818182,436,0,20,DL_JapaneseFolk_Guitar,6,5,koumouJapaneseFolk,0.061645157635211945,0
69,100,0.4772727272727273,646,0,20,DL_JapaneseFolk_Guitar,6,8,koumouJapaneseFolk,0.06664926558732986,0
66,100,0.3181818181818182,845,0,20,DL_JapaneseFolk_Guitar,6,5,koumouJapaneseFolk,0.06524361670017242,0
66,100,0.1590909090909091,65,1,21,DL_JapaneseFolk_Guitar,6,3,koumouJapaneseFolk,0.9997697472572327,1
66,100,0.2,106,0,21,DL_JapaneseFolk_Guitar,6,3,koumouJapaneseFolk,0.07811864465475082,0
66,100,0.2,210,0,21,DL_JapaneseFolk_Guitar,6,3,koumouJapaneseFolk,0.07250355184078217,0
59,100,0.3409090909090909,409,0,21,DL_JapaneseFolk_Guitar,6,5,koumouJapaneseFolk,0.07514502108097076,0
59,100,0.18181818181818182,528,0,21,DL_JapaneseFolk_Guitar,6,3,koumouJapaneseFolk,0.08903142064809799,0
59,100,0.2590909090909091,594,0,21,DL_JapaneseFolk_Guitar,6,4,koumouJapaneseFolk,0.09525276720523834,0
59,100,0.1,694,0,21,DL_JapaneseFolk_Guitar,6,2,koumouJapaneseFolk,0.0883350744843483,0
68,100,0.1409090909090909,48,1,22,DL_JapaneseFolk_Guitar,6,2,koumouJapaneseFolk,0.9998400211334229,1
59,100,0.21818181818181817,83,0,22,DL_JapaneseFolk_Guitar,6,3,koumouJapaneseFolk,0.20072796940803528,0
59,100,0.12272727272727273,144,0,22,DL_JapaneseFolk_Guitar,6,2,koumouJapaneseFolk,0.20155498385429382,0
59,100,0.6181818181818182,216,0,22,DL_JapaneseFolk_Guitar,6,10,koumouJapaneseFolk,0.1945117712020874,0
69,100,0.18181818181818182,686,1,22,DL_JapaneseFolk_Guitar,6,3,koumouJapaneseFolk,0.21589159965515137,0
52,100,0.1590909090909091,144,1,23,DL_JapaneseFolk_Guitar,6,3,koumouJapaneseFolk,0.9997437596321106,1
59,100,0.2409090909090909,229,0,23,DL_JapaneseFolk_Guitar,6,4,koumouJapaneseFolk,0.05229320749640465,0
52,100,0.1590909090909091,320,0,23,DL_JapaneseFolk_Guitar,6,3,koumouJapaneseFolk,0.04743524268269539,0
62,100,0.1590909090909091,387,0,23,DL_JapaneseFolk_Guitar,6,3,koumouJapaneseFolk,0.045761942863464355,0
52,100,0.4590909090909091,440,0,23,DL_JapaneseFolk_Guitar,6,7,koumouJapaneseFolk,0.050701677799224854,0
53,100,0.6409090909090909,553,0,23,DL_JapaneseFolk_Guitar,6,10,koumouJapaneseFolk,0.055140234529972076,0
65,100,0.1,694,0,23,DL_JapaneseFolk_Guitar,6,2,koumouJapaneseFolk,0.0719543993473053,0
61,100,0.4590909090909091,779,0,23,DL_JapaneseFolk_Guitar,6,7,koumouJapaneseFolk,0.0587489940226078,0
68,100,0.1,3,1,24,DL_JapaneseFolk_Guitar,6,2,koumouJapaneseFolk,0.9997355341911316,1
53,100,0.1,69,0,24,DL_JapaneseFolk_Guitar,6,2,koumouJapaneseFolk,0.05509012192487717,0
54,100,0.5818181818181818,189,0,24,DL_JapaneseFolk_Guitar,6,9,koumouJapaneseFolk,0.044865138828754425,0
66,100,0.6772727272727272,316,0,24,DL_JapaneseFolk_Guitar,6,11,koumouJapaneseFolk,0.04699099436402321,0
54,100,0.1590909090909091,571,1,24,DL_JapaneseFolk_Guitar,6,3,koumouJapaneseFolk,0.05497535318136215,0
54,100,0.1,615,0,24,DL_JapaneseFolk_Guitar,6,2,koumouJapaneseFolk,0.06276707351207733,0
54,100,0.1409090909090909,642,0,24,DL_JapaneseFolk_Guitar,6,2,koumouJapaneseFolk,0.06863382458686829,0
66,100,0.18181818181818182,673,0,24,DL_JapaneseFolk_Guitar,6,3,koumouJapaneseFolk,0.061774563044309616,0
54,100,0.23636363636363636,40,1,25,DL_JapaneseFolk_Guitar,6,4,koumouJapaneseFolk,0.9997928738594055,1
57,100,0.38181818181818183,154,0,25,DL_JapaneseFolk_Guitar,6,6,koumouJapaneseFolk,0.12434706091880798,0
54,100,0.2818181818181818,550,1,25,DL_JapaneseFolk_Guitar,6,5,koumouJapaneseFolk,0.13022726774215698,0
62,100,0.2818181818181818,619,0,25,DL_JapaneseFolk_Guitar,6,5,koumouJapaneseFolk,0.138562873005867,0
62,100,0.21818181818181817,756,0,25,DL_JapaneseFolk_Guitar,6,3,koumouJapaneseFolk,0.14899079501628876,0
52,100,0.6,866,0,25,DL_JapaneseFolk_Guitar,6,10,koumouJapaneseFolk,0.13113220036029816,0
52,100,0.3,123,1,26,DL_JapaneseFolk_Guitar,6,5,koumouJapaneseFolk,0.9997712969779968,1
52,100,0.18181818181818182,223,0,26,DL_JapaneseFolk_Guitar,6,3,koumouJapaneseFolk,0.08126986771821976,0
64,100,0.11818181818181818,295,0,26,DL_JapaneseFolk_Guitar,6,2,koumouJapaneseFolk,0.07157009840011597,0
52,100,0.5818181818181818,374,0,26,DL_JapaneseFolk_Guitar,6,9,koumouJapaneseFolk,0.07300979644060135,0
59,100,0.4590909090909091,515,0,26,DL_JapaneseFolk_Guitar,6,7,koumouJapaneseFolk,0.08738445490598679,0
64,100,0.35909090909090907,677,0,26,DL_JapaneseFolk_Guitar,6,6,koumouJapaneseFolk,0.09998375177383423,0
68,100,0.2,766,0,26,DL_JapaneseFolk_Guitar,6,3,koumouJapaneseFolk,0.08598214387893677,0
52,100,0.3,17,1,27,DL_JapaneseFolk_Guitar,6,5,koumouJapaneseFolk,0.9998394250869751,1
57,100,0.2409090909090909,136,0,27,DL_JapaneseFolk_Guitar,6,4,koumouJapaneseFolk,0.19964104890823364,0
57,100,0.1590909090909091,260,0,27,DL_JapaneseFolk_Guitar,6,3,koumouJapaneseFolk,0.19772885739803314,0
57,100,0.1590909090909091,528,1,27,DL_JapaneseFolk_Guitar,6,3,koumouJapaneseFolk,0.2157234400510788,0
61,100,0.38181818181818183,835,1,27,DL_JapaneseFolk_Guitar,6,6,koumouJapaneseFolk,0.20536097884178162,0
61,100,0.2,88,1,28,DL_JapaneseFolk_Guitar,6,3,koumouJapaneseFolk,0.9998000264167786,1
52,100,0.5409090909090909,285,0,28,DL_JapaneseFolk_Guitar,6,9,koumouJapaneseFolk,0.12149176746606827,0
59,100,0.3181818181818182,470,0,28,DL_JapaneseFolk_Guitar,6,5,koumouJapaneseFolk,0.12213806062936783,0
52,100,0.2818181818181818,550,0,28,DL_JapaneseFolk_Guitar,6,5,koumouJapaneseFolk,0.14080901443958282,0
52,100,0.4772727272727273,691,0,28,DL_JapaneseFolk_Guitar,6,8,koumouJapaneseFolk,0.1377364695072174,0
62,100,0.2,804,0,28,DL_JapaneseFolk_Guitar,6,3,koumouJapaneseFolk,0.13474597036838531,0
69,100,0.4590909090909091,65,1,29,DL_JapaneseFolk_Guitar,6,7,koumouJapaneseFolk,0.9997150301933289,1
68,100,0.2,189,0,29,DL_JapaneseFolk_Guitar,6,3,koumouJapaneseFolk,0.05878301337361336,0
59,100,0.23636363636363636,237,0,29,DL_JapaneseFolk_Guitar,6,4,koumouJapaneseFolk,0.04788762703537941,0
52,100,0.1,382,0,29,DL_JapaneseFolk_Guitar,6,2,koumouJapaneseFolk,0.05035465955734253,0
66,100,0.3181818181818182,457,0,29,DL_JapaneseFolk_Guitar,6,5,koumouJapaneseFolk,0.049880433827638626,0
54,100,0.11818181818181818,528,0,29,DL_JapaneseFolk_Guitar,6,2,koumouJapaneseFolk,0.06058017164468765,0
66,100,0.740909090909091,584,0,29,DL_JapaneseFolk_Guitar,6,12,koumouJapaneseFolk,0.06229846552014351,0
61,100,0.36363636363636365,752,0,29,DL_JapaneseFolk_Guitar,6,6,koumouJapaneseFolk,0.06472411006689072,0
61,100,0.1590909090909091,40,1,30,DL_JapaneseFolk_Guitar,6,3,koumouJapaneseFolk,0.9997991919517517,1
54,100,0.35909090909090907,110,0,30,DL_JapaneseFolk_Guitar,6,6,koumouJapaneseFolk,0.12730158865451813,0
69,100,0.2818181818181818,198,0,30,DL_JapaneseFolk_Guitar,6,5,koumouJapaneseFolk,0.12551380693912506,0
66,100,0.1409090909090909,333,0,30,DL_JapaneseFolk_Guitar,6,2,koumouJapaneseFolk,0.13592451810836792,0
54,100,0.3409090909090909,453,0,30,DL_JapaneseFolk_Guitar,6,5,koumouJapaneseFolk,0.14341449737548828,0
57,100,0.22272727272727272,532,0,30,DL_JapaneseFolk_Guitar,6,4,koumouJapaneseFolk,0.13384222984313965,0
59,100,0.2409090909090909,44,1,31,DL_JapaneseFolk_Guitar,6,4,koumouJapaneseFolk,0.9998231530189514,1
59,100,0.42272727272727273,399,1,31,DL_JapaneseFolk_Guitar,6,7,koumouJapaneseFolk,0.4067186415195465,0
59,100,0.6181818181818182,559,0,31,DL_JapaneseFolk_Guitar,6,10,koumouJapaneseFolk,0.423913836479187,0
61,100,0.3181818181818182,176,1,32,DL_JapaneseFolk_Guitar,6,5,koumouJapaneseFolk,0.9997969269752502,1
57,100,0.2409090909090909,263,0,32,DL_JapaneseFolk_Guitar,6,4,koumouJapaneseFolk,0.1278088539838791,0
57,100,0.2,330,0,32,DL_JapaneseFolk_Guitar,6,3,koumouJapaneseFolk,0.12366630882024765,0
52,100,0.5590909090909091,383,0,32,DL_JapaneseFolk_Guitar,6,9,koumouJapaneseFolk,0.12996287643909454,0
59,100,0.12272727272727273,598,0,32,DL_JapaneseFolk_Guitar,6,2,koumouJapaneseFolk,0.15137110650539398,0
52,100,0.17727272727272728,845,1,32,DL_JapaneseFolk_Guitar,6,3,koumouJapaneseFolk,0.13400886952877045,0
56,100,0.4818181818181818,166,1,33,DL_JapaneseFolk_Guitar,6,8,koumouJapaneseFolk,0.9998260140419006,1
61,100,0.21818181818181817,316,0,33,DL_JapaneseFolk_Guitar,6,3,koumouJapaneseFolk,0.21900701522827148,0
61,100,0.32272727272727275,431,0,33,DL_JapaneseFolk_Guitar,6,5,koumouJapaneseFolk,0.199182391166687,0
57,100,0.21818181818181817,791,1,33,DL_JapaneseFolk_Guitar,6,3,koumouJapaneseFolk,0.20452241599559784,0
66,100,0.2590909090909091,853,0,33,DL_JapaneseFolk_Guitar,6,4,koumouJapaneseFolk,0.20766940712928772,0
54,100,0.2772727272727273,31,1,34,DL_JapaneseFolk_Guitar,6,4,koumouJapaneseFolk,0.9998303651809692,1
57,100,0.21818181818181817,105,0,34,DL_JapaneseFolk_Guitar,6,3,koumouJapaneseFolk,0.20849184691905975,0
62,100,0.2636363636363636,289,0,34,DL_JapaneseFolk_Guitar,6,4,koumouJapaneseFolk,0.20186029374599457,0
57,100,0.38181818181818183,378,0,34,DL_JapaneseFolk_Guitar,6,6,koumouJapaneseFolk,0.20638127624988556,0
62,100,0.4590909090909091,545,0,34,DL_JapaneseFolk_Guitar,6,7,koumouJapaneseFolk,0.20943118631839752,0
64,100,0.13636363636363635,18,1,35,DL_JapaneseFolk_Guitar,6,2,koumouJapaneseFolk,0.9998458623886108,1
64,100,0.17727272727272728,171,0,35,DL_JapaneseFolk_Guitar,6,3,koumouJapaneseFolk,0.2103453129529953,0
64,100,0.2,273,0,35,DL_JapaneseFolk_Guitar,6,3,koumouJapaneseFolk,0.2007080316543579,0
57,100,0.2409090909090909,316,0,35,DL_JapaneseFolk_Guitar,6,4,koumouJapaneseFolk,0.20153920352458954,0
61,100,1.240909090909091,444,0,35,DL_JapaneseFolk_Guitar,6,15,koumouJapaneseFolk,0.18867835402488708,0
57,100,0.16363636363636364,334,1,36,DL_JapaneseFolk_Guitar,6,3,koumouJapaneseFolk,0.999840497970581,1
57,100,0.1409090909090909,444,0,36,DL_JapaneseFolk_Guitar,6,2,koumouJapaneseFolk,0.20983514189720154,0
66,100,0.35909090909090907,651,0,36,DL_JapaneseFolk_Guitar,6,6,koumouJapaneseFolk,0.20077747106552124,0
66,100,0.2,788,0,36,DL_JapaneseFolk_Guitar,6,3,koumouJapaneseFolk,0.20935706794261932,0
57,100,0.5636363636363636,839,0,36,DL_JapaneseFolk_Guitar,6,9,koumouJapaneseFolk,0.19711172580718994,0
57,100,0.4409090909090909,198,1,37,DL_JapaneseFolk_Guitar,6,7,koumouJapaneseFolk,0.9998235106468201,1
52,100,0.6,606,1,37,DL_JapaneseFolk_Guitar,6,10,koumouJapaneseFolk,0.4176676869392395,0
68,100,0.2772727272727273,756,0,37,DL_JapaneseFolk_Guitar,6,4,koumouJapaneseFolk,0.4310845136642456,0
54,100,0.5818181818181818,110,1,38,DL_JapaneseFolk_Guitar,6,9,koumouJapaneseFolk,0.9997442364692688,1
54,100,0.3409090909090909,246,0,38,DL_JapaneseFolk_Guitar,6,5,koumouJapaneseFolk,0.08573884516954422,0
57,100,0.1590909090909091,330,0,38,DL_JapaneseFolk_Guitar,6,3,koumouJapaneseFolk,0.07650037109851837,0
64,100,0.2772727272727273,383,0,38,DL_JapaneseFolk_Guitar,6,4,koumouJapaneseFolk,0.08114641159772873,0
54,100,0.1590909090909091,461,0,38,DL_JapaneseFolk_Guitar,6,3,koumouJapaneseFolk,0.0931975468993187,0
54,100,0.4772727272727273,568,0,38,DL_JapaneseFolk_Guitar,6,8,koumouJapaneseFolk,0.094544418156147,0
54,100,0.1409090909090909,694,0,38,DL_JapaneseFolk_Guitar,6,2,koumouJapaneseFolk,0.09141647070646286,0
66,100,0.22272727272727272,101,1,39,DL_JapaneseFolk_Guitar,6,4,koumouJapaneseFolk,0.9998306035995483,1
66,100,0.2409090909090909,201,0,39,DL_JapaneseFolk_Guitar,6,4,koumouJapaneseFolk,0.41504019498825073,0
69,100,0.1590909090909091,260,0,39,DL_JapaneseFolk_Guitar,6,3,koumouJapaneseFolk,0.42060843110084534,0
52,100,0.5409090909090909,34,1,40,DL_JapaneseFolk_Guitar,6,9,koumouJapaneseFolk,0.9997977614402771,1
59,100,0.32272727272727275,356,1,40,DL_JapaneseFolk_Guitar,6,5,koumouJapaneseFolk,0.12923479080200195,0
52,100,0.18181818181818182,496,0,40,DL_JapaneseFolk_Guitar,6,3,koumouJapaneseFolk,0.12603877484798431,0
59,100,0.36363636363636365,554,0,40,DL_JapaneseFolk_Guitar,6,6,koumouJapaneseFolk,0.12826478481292725,0
59,100,0.1409090909090909,641,0,40,DL_JapaneseFolk_Guitar,6,2,koumouJapaneseFolk,0.14573456346988678,0
68,100,0.2,748,0,40,DL_JapaneseFolk_Guitar,6,3,koumouJapaneseFolk,0.13377584517002106,0
52,100,0.1409090909090909,141,1,41,DL_JapaneseFolk_Guitar,6,2,koumouJapaneseFolk,0.9998373985290527,1
66,100,0.2590909090909091,386,1,41,DL_JapaneseFolk_Guitar,6,4,koumouJapaneseFolk,0.4078196883201599,0
66,100,0.1590909090909091,518,0,41,DL_JapaneseFolk_Guitar,6,3,koumouJapaneseFolk,0.423836350440979,0
54,100,0.6590909090909091,703,1,42,DL_JapaneseFolk_Guitar,6,11,koumouJapaneseFolk,0.9995852112770081,1
54,100,0.3,853,0,42,DL_JapaneseFolk_Guitar,6,5,koumouJapaneseFolk,0.557778537273407,0
57,100,0.13636363636363635,61,1,43,DL_JapaneseFolk_Guitar,6,2,koumouJapaneseFolk,0.9997605681419373,1
64,100,0.3181818181818182,105,0,43,DL_JapaneseFolk_Guitar,6,5,koumouJapaneseFolk,0.08053171634674072,0
61,100,0.2409090909090909,176,0,43,DL_JapaneseFolk_Guitar,6,4,koumouJapaneseFolk,0.0725085511803627,0
54,100,0.3409090909090909,276,0,43,DL_JapaneseFolk_Guitar,6,5,koumouJapaneseFolk,0.07935313880443573,0
54,100,0.16363636363636364,356,0,43,DL_JapaneseFolk_Guitar,6,3,koumouJapaneseFolk,0.09436209499835968,0
54,100,0.1590909090909091,431,0,43,DL_JapaneseFolk_Guitar,6,3,koumouJapaneseFolk,0.09814328700304031,0
57,100,0.2,611,0,43,DL_JapaneseFolk_Guitar,6,3,koumouJapaneseFolk,0.08525130897760391,0
61,100,0.38181818181818183,13,1,44,DL_JapaneseFolk_Guitar,6,6,koumouJapaneseFolk,0.9998517036437988,1
64,100,0.13636363636363635,435,1,44,DL_JapaneseFolk_Guitar,6,2,koumouJapaneseFolk,0.3376140296459198,0
52,100,0.11818181818181818,501,0,44,DL_JapaneseFolk_Guitar,6,2,koumouJapaneseFolk,0.2912329435348511,0
52,100,0.4,531,0,44,DL_JapaneseFolk_Guitar,6,6,koumouJapaneseFolk,0.29431912302970886,0
57,100,0.37727272727272726,426,1,46,DL_JapaneseFolk_Guitar,6,6,koumouJapaneseFolk,0.9996088147163391,1
57,100,0.5181818181818182,743,1,46,DL_JapaneseFolk_Guitar,6,8,koumouJapaneseFolk,0.5448675751686096,0
57,100,0.8590909090909091,348,1,47,DL_JapaneseFolk_Guitar,6,14,koumouJapaneseFolk,0.9995368719100952,1
57,100,0.18181818181818182,571,0,47,DL_JapaneseFolk_Guitar,6,3,koumouJapaneseFolk,0.5693047642707825,0
57,100,0.3409090909090909,13,1,48,DL_JapaneseFolk_Guitar,6,5,koumouJapaneseFolk,0.9998470544815063,1
56,100,0.2409090909090909,408,1,48,DL_JapaneseFolk_Guitar,6,4,koumouJapaneseFolk,0.333627313375473,0
59,100,0.1,581,0,48,DL_JapaneseFolk_Guitar,6,2,koumouJapaneseFolk,0.2912741005420685,0
56,100,0.18181818181818182,791,0,48,DL_JapaneseFolk_Guitar,6,3,koumouJapaneseFolk,0.3051195442676544,0
56,100,0.18181818181818182,26,1,49,DL_JapaneseFolk_Guitar,6,3,koumouJapaneseFolk,0.9998277425765991,1
59,100,0.1409090909090909,163,0,49,DL_JapaneseFolk_Guitar,6,2,koumouJapaneseFolk,0.41717472672462463,0
54,100,0.4772727272727273,545,1,49,DL_JapaneseFolk_Guitar,6,8,koumouJapaneseFolk,0.42087727785110474,0
54,100,0.21818181818181817,193,1,50,DL_JapaneseFolk_Guitar,6,3,koumouJapaneseFolk,0.9998283386230469,1
61,100,0.2,325,0,50,DL_JapaneseFolk_Guitar,6,3,koumouJapaneseFolk,0.40698671340942383,0
61,100,0.11818181818181818,405,0,50,DL_JapaneseFolk_Guitar,6,2,koumouJapaneseFolk,0.4324769377708435,0
59,100,0.21818181818181817,480,1,51,DL_JapaneseFolk_Guitar,6,3,koumouJapaneseFolk,0.9996397495269775,1
59,100,0.13636363636363635,875,1,51,DL_JapaneseFolk_Guitar,6,2,koumouJapaneseFolk,0.5491993427276611,0
59,100,0.2772727272727273,105,1,52,DL_JapaneseFolk_Guitar,6,4,koumouJapaneseFolk,0.999849796295166,1
56,100,0.22272727272727272,298,0,52,DL_JapaneseFolk_Guitar,6,4,koumouJapaneseFolk,0.3255620002746582,0
61,100,0.12272727272727273,576,1,52,DL_JapaneseFolk_Guitar,6,2,koumouJapaneseFolk,0.2896401286125183,0
59,100,0.17727272727272728,625,0,52,DL_JapaneseFolk_Guitar,6,3,koumouJapaneseFolk,0.3057222068309784,0
57,100,0.4409090909090909,440,1,53,DL_JapaneseFolk_Guitar,6,7,koumouJapaneseFolk,0.9996013045310974,1
57,100,0.2590909090909091,761,1,53,DL_JapaneseFolk_Guitar,6,4,koumouJapaneseFolk,0.5575419068336487,0
52,100,0.8181818181818182,83,1,54,DL_JapaneseFolk_Guitar,6,13,koumouJapaneseFolk,0.9998366832733154,1
52,100,0.11818181818181818,361,1,54,DL_JapaneseFolk_Guitar,6,2,koumouJapaneseFolk,0.3561079800128937,0
66,100,0.2,518,0,54,DL_JapaneseFolk_Guitar,6,3,koumouJapaneseFolk,0.28708067536354065,0
52,100,0.11818181818181818,836,1,54,DL_JapaneseFolk_Guitar,6,2,koumouJapaneseFolk,0.31053096055984497,0
66,100,0.1409090909090909,53,1,55,DL_JapaneseFolk_Guitar,6,2,koumouJapaneseFolk,0.993115246295929,0
66,100,0.1590909090909091,123,1,56,DL_JapaneseFolk_Guitar,6,3,koumouJapaneseFolk,0.9998277425765991,1
57,100,0.2772727272727273,370,1,56,DL_JapaneseFolk_Guitar,6,4,koumouJapaneseFolk,0.4065713584423065,0
57,100,0.5,694,1,56,DL_JapaneseFolk_Guitar,6,8,koumouJapaneseFolk,0.4249432384967804,0
57,100,0.21818181818181817,0,1,57,DL_JapaneseFolk_Guitar,6,3,koumouJapaneseFolk,0.9996017813682556,1
61,100,0.6409090909090909,330,1,57,DL_JapaneseFolk_Guitar,6,10,koumouJapaneseFolk,0.5497987866401672,0
59,100,0.22272727272727272,364,1,58,DL_JapaneseFolk_Guitar,6,4,koumouJapaneseFolk,0.9931608438491821,0
61,100,0.2,141,1,59,DL_JapaneseFolk_Guitar,6,3,koumouJapaneseFolk,0.9997623562812805,1
54,100,0.11818181818181818,185,0,59,DL_JapaneseFolk_Guitar,6,2,koumouJapaneseFolk,0.08207835257053375,0
54,100,0.1,215,0,59,DL_JapaneseFolk_Guitar,6,2,koumouJapaneseFolk,0.07081516087055206,0
61,100,0.1409090909090909,276,0,59,DL_JapaneseFolk_Guitar,6,2,koumouJapaneseFolk,0.07891234755516052,0
64,100,0.1590909090909091,453,0,59,DL_JapaneseFolk_Guitar,6,3,koumouJapaneseFolk,0.09217896312475204,0
64,100,0.32272727272727275,751,1,59,DL_JapaneseFolk_Guitar,6,5,koumouJapaneseFolk,0.09423774480819702,0
54,100,0.1,826,0,59,DL_JapaneseFolk_Guitar,6,2,koumouJapaneseFolk,0.08484967052936554,0
62,100,0.38181818181818183,136,1,60,DL_JapaneseFolk_Guitar,6,6,koumouJapaneseFolk,0.9998237490653992,1
62,100,0.3,788,1,60,DL_JapaneseFolk_Guitar,6,5,koumouJapaneseFolk,0.4155820608139038,0
73,100,0.5,858,0,60,DL_JapaneseFolk_Guitar,6,8,koumouJapaneseFolk,0.42622795701026917,0
57,100,0.1590909090909091,386,1,61,DL_JapaneseFolk_Guitar,6,3,koumouJapaneseFolk,0.9996412992477417,1
57,100,0.21818181818181817,875,1,61,DL_JapaneseFolk_Guitar,6,3,koumouJapaneseFolk,0.5454263091087341,0
66,100,0.32272727272727275,56,1,62,DL_JapaneseFolk_Guitar,6,5,koumouJapaneseFolk,0.9998371601104736,1
52,100,0.4409090909090909,233,0,62,DL_JapaneseFolk_Guitar,6,7,koumouJapaneseFolk,0.20858581364154816,0
52,100,0.2409090909090909,619,1,62,DL_JapaneseFolk_Guitar,6,4,koumouJapaneseFolk,0.20332323014736176,0
52,100,0.11818181818181818,726,0,62,DL_JapaneseFolk_Guitar,6,2,koumouJapaneseFolk,0.20778238773345947,0
56,100,0.1409090909090909,845,0,62,DL_JapaneseFolk_Guitar,6,2,koumouJapaneseFolk,0.19641169905662537,0
52,100,0.1409090909090909,8,1,63,DL_JapaneseFolk_Guitar,6,2,koumouJapaneseFolk,0.9997771382331848,1
52,100,0.11818181818181818,75,0,63,DL_JapaneseFolk_Guitar,6,2,koumouJapaneseFolk,0.07820989936590195,0
64,100,0.18181818181818182,220,0,63,DL_JapaneseFolk_Guitar,6,3,koumouJapaneseFolk,0.07174001634120941,0
52,100,0.4,263,0,63,DL_JapaneseFolk_Guitar,6,6,koumouJapaneseFolk,0.07627671957015991,0
69,100,0.5,584,1,63,DL_JapaneseFolk_Guitar,6,8,koumouJapaneseFolk,0.08402292430400848,0
71,100,0.38181818181818183,791,0,63,DL_JapaneseFolk_Guitar,6,6,koumouJapaneseFolk,0.09509964287281036,0
59,100,0.1590909090909091,875,0,63,DL_JapaneseFolk_Guitar,6,3,koumouJapaneseFolk,0.08981356769800186,0
59,100,0.6227272727272727,136,1,64,DL_JapaneseFolk_Guitar,6,10,koumouJapaneseFolk,0.9997979998588562,1
59,100,0.5590909090909091,383,1,64,DL_JapaneseFolk_Guitar,6,9,koumouJapaneseFolk,0.4204392433166504,0
57,100,1.1636363636363636,553,0,64,DL_JapaneseFolk_Guitar,6,15,koumouJapaneseFolk,0.4311571717262268,0
61,100,0.3,303,1,65,DL_JapaneseFolk_Guitar,6,5,koumouJapaneseFolk,0.9997960925102234,1
61,100,0.1590909090909091,404,0,65,DL_JapaneseFolk_Guitar,6,3,koumouJapaneseFolk,0.1325865238904953,0
57,100,0.1590909090909091,449,0,65,DL_JapaneseFolk_Guitar,6,3,koumouJapaneseFolk,0.11817362904548645,0
61,100,0.3,496,0,65,DL_JapaneseFolk_Guitar,6,5,koumouJapaneseFolk,0.13677021861076355,0
57,100,0.22272727272727272,576,0,65,DL_JapaneseFolk_Guitar,6,4,koumouJapaneseFolk,0.14022301137447357,0
68,100,0.2,832,1,65,DL_JapaneseFolk_Guitar,6,3,koumouJapaneseFolk,0.13430112600326538,0
59,100,0.1590909090909091,9,1,66,DL_JapaneseFolk_Guitar,6,3,koumouJapaneseFolk,0.9997674822807312,1
68,100,0.21818181818181817,62,0,66,DL_JapaneseFolk_Guitar,6,3,koumouJapaneseFolk,0.08136928826570511,0
68,100,0.1,113,0,66,DL_JapaneseFolk_Guitar,6,2,koumouJapaneseFolk,0.07528139650821686,0
68,100,0.1590909090909091,166,0,66,DL_JapaneseFolk_Guitar,6,3,koumouJapaneseFolk,0.0774279236793518,0
52,100,0.1590909090909091,206,0,66,DL_JapaneseFolk_Guitar,6,3,koumouJapaneseFolk,0.09103459864854813,0
59,100,0.22272727272727272,673,1,66,DL_JapaneseFolk_Guitar,6,4,koumouJapaneseFolk,0.09028267860412598,0
52,100,0.42272727272727273,729,0,66,DL_JapaneseFolk_Guitar,6,7,koumouJapaneseFolk,0.0861060842871666,0
61,100,0.3,223,1,67,DL_JapaneseFolk_Guitar,6,5,koumouJapaneseFolk,0.9998379945755005,1
57,100,0.1,523,1,67,DL_JapaneseFolk_Guitar,6,2,koumouJapaneseFolk,0.20505087077617645,0
57,100,0.2409090909090909,550,0,67,DL_JapaneseFolk_Guitar,6,4,koumouJapaneseFolk,0.19563929736614227,0
57,100,0.21818181818181817,810,1,67,DL_JapaneseFolk_Guitar,6,3,koumouJapaneseFolk,0.2046964317560196,0
54,100,0.18181818181818182,862,0,67,DL_JapaneseFolk_Guitar,6,3,koumouJapaneseFolk,0.20689742267131805,0
54,100,0.2,26,1,68,DL_JapaneseFolk_Guitar,6,3,koumouJapaneseFolk,0.9998006224632263,1
61,100,0.1590909090909091,206,0,68,DL_JapaneseFolk_Guitar,6,3,koumouJapaneseFolk,0.12781105935573578,0
59,100,0.3181818181818182,250,0,68,DL_JapaneseFolk_Guitar,6,5,koumouJapaneseFolk,0.11808309704065323,0
61,100,0.12272727272727273,365,0,68,DL_JapaneseFolk_Guitar,6,2,koumouJapaneseFolk,0.13673892617225647,0
59,100,0.2818181818181818,773,1,68,DL_JapaneseFolk_Guitar,6,5,koumouJapaneseFolk,0.139888197183609,0
59,100,0.22272727272727272,839,0,68,DL_JapaneseFolk_Guitar,6,4,koumouJapaneseFolk,0.13394305109977722,0
61,100,0.22272727272727272,166,1,69,DL_JapaneseFolk_Guitar,6,4,koumouJapaneseFolk,0.9998317956924438,1
54,100,0.1409090909090909,826,1,69,DL_JapaneseFolk_Guitar,6,2,koumouJapaneseFolk,0.41386356949806213,0
54,100,0.12272727272727273,862,0,69,DL_JapaneseFolk_Guitar,6,2,koumouJapaneseFolk,0.42736634612083435,0
57,100,0.3409090909090909,53,1,70,DL_JapaneseFolk_Guitar,6,5,koumouJapaneseFolk,0.9996019005775452,1
56,100,0.1590909090909091,546,1,70,DL_JapaneseFolk_Guitar,6,3,koumouJapaneseFolk,0.5595818758010864,0
61,100,0.1590909090909091,206,1,71,DL_JapaneseFolk_Guitar,6,3,koumouJapaneseFolk,0.9998587369918823,1
54,100,0.1,440,1,71,DL_JapaneseFolk_Guitar,6,2,koumouJapaneseFolk,0.3248341679573059,0
54,100,0.11818181818181818,593,0,71,DL_JapaneseFolk_Guitar,6,2,koumouJapaneseFolk,0.28393110632896423,0
57,100,0.21818181818181817,703,0,71,DL_JapaneseFolk_Guitar,6,3,koumouJapaneseFolk,0.3031128942966461,0
52,100,0.6772727272727272,722,1,72,DL_JapaneseFolk_Guitar,6,11,koumouJapaneseFolk,0.9931471943855286,0
52,100,0.2409090909090909,96,1,73,DL_JapaneseFolk_Guitar,6,4,koumouJapaneseFolk,0.9997766613960266,1
59,100,0.11818181818181818,184,0,73,DL_JapaneseFolk_Guitar,6,2,koumouJapaneseFolk,0.07768948376178741,0
52,100,0.3181818181818182,220,0,73,DL_JapaneseFolk_Guitar,6,5,koumouJapaneseFolk,0.0720037966966629,0
52,100,0.1,294,0,73,DL_JapaneseFolk_Guitar,6,2,koumouJapaneseFolk,0.08007383346557617,0
52,100,0.5227272727272727,356,0,73,DL_JapaneseFolk_Guitar,6,8,koumouJapaneseFolk,0.08361562341451645,0
52,100,0.5,673,1,73,DL_JapaneseFolk_Guitar,6,8,koumouJapaneseFolk,0.09243565052747726,0
52,100,0.22272727272727272,817,0,73,DL_JapaneseFolk_Guitar,6,4,koumouJapaneseFolk,0.08612208813428879,0
61,100,0.35909090909090907,166,1,74,DL_JapaneseFolk_Guitar,6,6,koumouJapaneseFolk,0.999843955039978,1
57,100,0.35909090909090907,260,0,74,DL_JapaneseFolk_Guitar,6,6,koumouJapaneseFolk,0.3118000328540802,0
61,100,0.32272727272727275,443,0,74,DL_JapaneseFolk_Guitar,6,5,koumouJapaneseFolk,0.3083946704864502,0
61,100,0.2409090909090909,637,0,74,DL_JapaneseFolk_Guitar,6,4,koumouJapaneseFolk,0.31118783354759216,0
52,100,0.2772727272727273,140,1,75,DL_JapaneseFolk_Guitar,6,4,koumouJapaneseFolk,0.9997696280479431,1
52,100,0.1,206,0,75,DL_JapaneseFolk_Guitar,6,2,koumouJapaneseFolk,0.08089365810155869,0
52,100,0.1409090909090909,242,0,75,DL_JapaneseFolk_Guitar,6,2,koumouJapaneseFolk,0.0709160789847374,0
52,100,0.7363636363636363,282,0,75,DL_JapaneseFolk_Guitar,6,12,koumouJapaneseFolk,0.07228235900402069,0
52,100,0.2590909090909091,449,0,75,DL_JapaneseFolk_Guitar,6,4,koumouJapaneseFolk,0.09409843385219574,0
52,100,0.2409090909090909,646,0,75,DL_JapaneseFolk_Guitar,6,4,koumouJapaneseFolk,0.09480996429920197,0
52,100,0.1590909090909091,766,0,75,DL_JapaneseFolk_Guitar,6,3,koumouJapaneseFolk,0.08647532016038895,0
52,100,0.2409090909090909,233,1,76,DL_JapaneseFolk_Guitar,6,4,koumouJapaneseFolk,0.999858021736145,1
54,100,0.1590909090909091,430,0,76,DL_JapaneseFolk_Guitar,6,3,koumouJapaneseFolk,0.3238946497440338,0
66,100,0.3181818181818182,483,0,76,DL_JapaneseFolk_Guitar,6,5,koumouJapaneseFolk,0.28750860691070557,0
66,100,0.3,612,0,76,DL_JapaneseFolk_Guitar,6,5,koumouJapaneseFolk,0.30232468247413635,0
61,100,0.2772727272727273,119,1,77,DL_JapaneseFolk_Guitar,6,4,koumouJapaneseFolk,0.9998345375061035,1
54,100,0.2,303,0,77,DL_JapaneseFolk_Guitar,6,3,koumouJapaneseFolk,0.20375598967075348,0
56,100,0.5181818181818182,580,1,77,DL_JapaneseFolk_Guitar,6,8,koumouJapaneseFolk,0.19073385000228882,0
59,100,0.2409090909090909,695,0,77,DL_JapaneseFolk_Guitar,6,4,koumouJapaneseFolk,0.22108528017997742,0
59,100,0.35909090909090907,756,0,77,DL_JapaneseFolk_Guitar,6,6,koumouJapaneseFolk,0.20802530646324158,0
59,100,0.12272727272727273,47,1,78,DL_JapaneseFolk_Guitar,6,2,koumouJapaneseFolk,0.9996250867843628,1
61,100,0.2409090909090909,140,0,78,DL_JapaneseFolk_Guitar,6,4,koumouJapaneseFolk,0.5489068627357483,0
52,100,0.17727272727272728,229,1,79,DL_JapaneseFolk_Guitar,6,3,koumouJapaneseFolk,0.9998453855514526,1
59,100,0.32272727272727275,409,0,79,DL_JapaneseFolk_Guitar,6,5,koumouJapaneseFolk,0.20256388187408447,0
52,100,0.11818181818181818,502,0,79,DL_JapaneseFolk_Guitar,6,2,koumouJapaneseFolk,0.2077866941690445,0
52,100,0.2636363636363636,532,0,79,DL_JapaneseFolk_Guitar,6,4,koumouJapaneseFolk,0.20571741461753845,0
56,100,1.1181818181818182,747,0,79,DL_JapaneseFolk_Guitar,6,15,koumouJapaneseFolk,0.18793532252311707,0
61,100,0.5363636363636364,127,1,80,DL_JapaneseFolk_Guitar,6,9,koumouJapaneseFolk,0.999806821346283,1
64,100,0.3,509,1,80,DL_JapaneseFolk_Guitar,6,5,koumouJapaneseFolk,0.45519763231277466,0
54,100,0.4,629,0,80,DL_JapaneseFolk_Guitar,6,6,koumouJapaneseFolk,0.42048338055610657,0
62,100,0.1,263,1,81,DL_JapaneseFolk_Guitar,6,2,koumouJapaneseFolk,0.9998354911804199,1
66,100,0.11818181818181818,383,0,81,DL_JapaneseFolk_Guitar,6,2,koumouJapaneseFolk,0.4036198854446411,0
59,100,0.5227272727272727,783,1,81,DL_JapaneseFolk_Guitar,6,8,koumouJapaneseFolk,0.4177676737308502,0
61,100,0.1,17,1,82,DL_JapaneseFolk_Guitar,6,2,koumouJapaneseFolk,0.9998586177825928,1
66,100,0.11818181818181818,153,0,82,DL_JapaneseFolk_Guitar,6,2,koumouJapaneseFolk,0.32182249426841736,0
52,100,0.2,506,1,82,DL_JapaneseFolk_Guitar,6,3,koumouJapaneseFolk,0.2949426472187042,0
57,100,0.42272727272727273,716,0,82,DL_JapaneseFolk_Guitar,6,7,koumouJapaneseFolk,0.29190656542778015,0
54,100,0.11818181818181818,339,1,83,DL_JapaneseFolk_Guitar,6,2,koumouJapaneseFolk,0.9931468367576599,0
52,100,0.38181818181818183,453,1,84,DL_JapaneseFolk_Guitar,6,6,koumouJapaneseFolk,0.999832034111023,1
52,100,0.5227272727272727,597,0,84,DL_JapaneseFolk_Guitar,6,8,koumouJapaneseFolk,0.40407148003578186,0
52,100,0.38181818181818183,849,1,84,DL_JapaneseFolk_Guitar,6,6,koumouJapaneseFolk,0.4262388050556183,0
59,100,0.1590909090909091,193,1,85,DL_JapaneseFolk_Guitar,6,3,koumouJapaneseFolk,0.9931100606918335,0
64,100,0.1409090909090909,220,1,86,DL_JapaneseFolk_Guitar,6,2,koumouJapaneseFolk,0.9998345375061035,1
64,100,0.8590909090909091,307,0,86,DL_JapaneseFolk_Guitar,6,14,koumouJapaneseFolk,0.3754802942276001,0
64,100,0.4,616,1,86,DL_JapaneseFolk_Guitar,6,6,koumouJapaneseFolk,0.4453665018081665,0
68,100,0.2818181818181818,153,1,87,DL_JapaneseFolk_Guitar,6,5,koumouJapaneseFolk,0.9998041987419128,1
68,100,0.5590909090909091,220,0,87,DL_JapaneseFolk_Guitar,6,9,koumouJapaneseFolk,0.12140382081270218,0
66,100,0.1590909090909091,396,0,87,DL_JapaneseFolk_Guitar,6,3,koumouJapaneseFolk,0.12712222337722778,0
57,100,0.5227272727272727,532,0,87,DL_JapaneseFolk_Guitar,6,8,koumouJapaneseFolk,0.12827084958553314,0
52,100,0.6818181818181818,660,0,87,DL_JapaneseFolk_Guitar,6,11,koumouJapaneseFolk,0.1523224413394928,0
57,100,0.17727272727272728,866,0,87,DL_JapaneseFolk_Guitar,6,3,koumouJapaneseFolk,0.13618238270282745,0
57,100,0.5772727272727273,294,1,88,DL_JapaneseFolk_Guitar,6,9,koumouJapaneseFolk,0.9998433589935303,1
52,100,0.6,540,1,88,DL_JapaneseFolk_Guitar,6,10,koumouJapaneseFolk,0.33209559321403503,0
52,100,0.21818181818181817,682,0,88,DL_JapaneseFolk_Guitar,6,3,koumouJapaneseFolk,0.30330103635787964,0
52,100,0.3181818181818182,734,0,88,DL_JapaneseFolk_Guitar,6,5,koumouJapaneseFolk,0.3000902533531189,0
64,100,0.2409090909090909,13,1,89,DL_JapaneseFolk_Guitar,6,4,koumouJapaneseFolk,0.999861478805542,1
64,100,0.22272727272727272,92,0,89,DL_JapaneseFolk_Guitar,6,4,koumouJapaneseFolk,0.31968608498573303,0
64,100,0.2590909090909091,184,0,89,DL_JapaneseFolk_Guitar,6,4,koumouJapaneseFolk,0.29241350293159485,0
64,100,0.5590909090909091,603,1,89,DL_JapaneseFolk_Guitar,6,9,koumouJapaneseFolk,0.29357922077178955,0
58,100,0.33636363636363636,876,1,0,DL_MelancholicFolk_Guitar,6,5,sinpen_melancholic,0.9922323226928711,0
58,100,0.21818181818181817,325,1,1,DL_MelancholicFolk_Guitar,6,3,sinpen_melancholic,0.9995682835578918,1
65,100,0.5409090909090909,669,1,1,DL_MelancholicFolk_Guitar,6,9,sinpen_melancholic,0.5600214600563049,0
58,100,0.17727272727272728,39,1,2,DL_MelancholicFolk_Guitar,6,3,sinpen_melancholic,0.999705970287323,1
60,100,0.4590909090909091,83,0,2,DL_MelancholicFolk_Guitar,6,7,sinpen_melancholic,0.05742262303829193,0
60,100,0.1590909090909091,232,0,2,DL_MelancholicFolk_Guitar,6,3,sinpen_melancholic,0.04987317696213722,0
60,100,0.740909090909091,382,0,2,DL_MelancholicFolk_Guitar,6,12,sinpen_melancholic,0.044483330100774765,0
63,100,0.1409090909090909,550,0,2,DL_MelancholicFolk_Guitar,6,2,sinpen_melancholic,0.05365738645195961,0
60,100,0.2409090909090909,638,0,2,DL_MelancholicFolk_Guitar,6,4,sinpen_melancholic,0.06139674782752991,0
60,100,0.12272727272727273,773,0,2,DL_MelancholicFolk_Guitar,6,2,sinpen_melancholic,0.06646189093589783,0
60,100,0.2818181818181818,818,0,2,DL_MelancholicFolk_Guitar,6,5,sinpen_melancholic,0.06107198819518089,0
60,100,0.5409090909090909,30,1,3,DL_MelancholicFolk_Guitar,6,9,sinpen_melancholic,0.9998481273651123,1
60,100,0.21818181818181817,216,0,3,DL_MelancholicFolk_Guitar,6,3,sinpen_melancholic,0.33603450655937195,0
63,100,0.2,268,0,3,DL_MelancholicFolk_Guitar,6,3,sinpen_melancholic,0.2925695776939392,0
56,100,1.3409090909090908,553,1,3,DL_MelancholicFolk_Guitar,6,15,sinpen_melancholic,0.2935260236263275,0
56,100,0.1409090909090909,101,1,4,DL_MelancholicFolk_Guitar,6,2,sinpen_melancholic,0.9998205304145813,1
60,100,1.5,355,1,4,DL_MelancholicFolk_Guitar,6,15,sinpen_melancholic,0.3729100525379181,0
58,100,0.2772727272727273,721,1,4,DL_MelancholicFolk_Guitar,6,4,sinpen_melancholic,0.4644757807254791,0
65,100,0.1,128,1,6,DL_MelancholicFolk_Guitar,6,2,sinpen_melancholic,0.9996472597122192,1
65,100,0.2772727272727273,458,1,6,DL_MelancholicFolk_Guitar,6,4,sinpen_melancholic,0.5435178279876709,0
58,100,0.6590909090909091,716,1,7,DL_MelancholicFolk_Guitar,6,11,sinpen_melancholic,0.9917098879814148,0
58,100,0.3409090909090909,53,1,8,DL_MelancholicFolk_Guitar,6,5,sinpen_melancholic,0.991975724697113,0
58,100,1.2818181818181817,110,1,9,DL_MelancholicFolk_Guitar,6,15,sinpen_melancholic,0.9994388222694397,1
58,100,0.6409090909090909,685,1,9,DL_MelancholicFolk_Guitar,6,10,sinpen_melancholic,0.5791468024253845,0
58,100,1.3409090909090908,386,1,10,DL_MelancholicFolk_Guitar,6,15,sinpen_melancholic,0.9906291365623474,0
60,100,0.3,440,1,11,DL_MelancholicFolk_Guitar,6,5,sinpen_melancholic,0.999834418296814,1
60,100,0.6772727272727272,646,0,11,DL_MelancholicFolk_Guitar,6,11,sinpen_melancholic,0.3931306302547455,0
53,100,0.22272727272727272,871,0,11,DL_MelancholicFolk_Guitar,6,4,sinpen_melancholic,0.4395027160644531,0
55,100,0.6590909090909091,61,1,12,DL_MelancholicFolk_Guitar,6,11,sinpen_melancholic,0.9997755885124207,1
63,100,0.1,527,1,12,DL_MelancholicFolk_Guitar,6,2,sinpen_melancholic,0.14155615866184235,0
63,100,0.23636363636363636,567,0,12,DL_MelancholicFolk_Guitar,6,4,sinpen_melancholic,0.1291990876197815,0
56,100,0.2772727272727273,656,0,12,DL_MelancholicFolk_Guitar,6,4,sinpen_melancholic,0.14721761643886566,0
56,100,0.11818181818181818,814,0,12,DL_MelancholicFolk_Guitar,6,2,sinpen_melancholic,0.14975135028362274,0
56,100,0.3,849,0,12,DL_MelancholicFolk_Guitar,6,5,sinpen_melancholic,0.1345335841178894,0
63,100,0.12272727272727273,575,1,13,DL_MelancholicFolk_Guitar,6,2,sinpen_melancholic,0.9925932288169861,0
55,100,0.18181818181818182,34,1,14,DL_MelancholicFolk_Guitar,6,3,sinpen_melancholic,0.9997982382774353,1
60,100,0.3,216,0,14,DL_MelancholicFolk_Guitar,6,5,sinpen_melancholic,0.13183201849460602,0
60,100,0.2818181818181818,343,0,14,DL_MelancholicFolk_Guitar,6,5,sinpen_melancholic,0.12178798019886017,0
53,100,0.1590909090909091,524,0,14,DL_MelancholicFolk_Guitar,6,3,sinpen_melancholic,0.13526208698749542,0
62,100,0.1590909090909091,778,1,14,DL_MelancholicFolk_Guitar,6,3,sinpen_melancholic,0.1414978802204132,0
62,100,0.2590909090909091,826,0,14,DL_MelancholicFolk_Guitar,6,4,sinpen_melancholic,0.13046123087406158,0
62,100,0.4818181818181818,34,1,15,DL_MelancholicFolk_Guitar,6,8,sinpen_melancholic,0.9997578263282776,1
58,100,0.11818181818181818,175,0,15,DL_MelancholicFolk_Guitar,6,2,sinpen_melancholic,0.08409111201763153,0
53,100,0.12272727272727273,268,0,15,DL_MelancholicFolk_Guitar,6,2,sinpen_melancholic,0.0796622484922409,0
58,100,0.7,417,0,15,DL_MelancholicFolk_Guitar,6,11,sinpen_melancholic,0.07461179047822952,0
58,100,0.3,594,0,15,DL_MelancholicFolk_Guitar,6,5,sinpen_melancholic,0.10312771797180176,0
58,100,0.13636363636363635,721,0,15,DL_MelancholicFolk_Guitar,6,2,sinpen_melancholic,0.10825852304697037,0
70,100,0.2,752,0,15,DL_MelancholicFolk_Guitar,6,3,sinpen_melancholic,0.09299642592668533,0
55,100,0.32272727272727275,167,1,16,DL_MelancholicFolk_Guitar,6,5,sinpen_melancholic,0.9998278617858887,1
55,100,0.11818181818181818,360,0,16,DL_MelancholicFolk_Guitar,6,2,sinpen_melancholic,0.22609341144561768,0
63,100,0.1409090909090909,638,1,16,DL_MelancholicFolk_Guitar,6,2,sinpen_melancholic,0.21045765280723572,0
56,100,0.5181818181818182,725,0,16,DL_MelancholicFolk_Guitar,6,8,sinpen_melancholic,0.20899184048175812,0
56,100,1.1772727272727272,866,0,16,DL_MelancholicFolk_Guitar,6,15,sinpen_melancholic,0.2012282758951187,0
56,100,0.1,382,1,17,DL_MelancholicFolk_Guitar,6,2,sinpen_melancholic,0.9998403787612915,1
56,100,0.2,536,0,17,DL_MelancholicFolk_Guitar,6,3,sinpen_melancholic,0.3966233730316162,0
53,100,0.2818181818181818,773,1,17,DL_MelancholicFolk_Guitar,6,5,sinpen_melancholic,0.4240090250968933,0
58,100,1.459090909090909,57,1,18,DL_MelancholicFolk_Guitar,6,15,sinpen_melancholic,0.9997472167015076,1
58,100,0.3409090909090909,735,1,18,DL_MelancholicFolk_Guitar,6,5,sinpen_melancholic,0.4846913814544678,0
58,100,0.3181818181818182,822,0,18,DL_MelancholicFolk_Guitar,6,5,sinpen_melancholic,0.4512784779071808,0
63,100,0.3,638,1,19,DL_MelancholicFolk_Guitar,6,5,sinpen_melancholic,0.9930797219276428,0
62,100,0.1,21,1,20,DL_MelancholicFolk_Guitar,6,2,sinpen_melancholic,0.9998446702957153,1
53,100,0.2,422,1,20,DL_MelancholicFolk_Guitar,6,3,sinpen_melancholic,0.20096471905708313,0
60,100,0.2590909090909091,484,0,20,DL_MelancholicFolk_Guitar,6,4,sinpen_melancholic,0.19640564918518066,0
60,100,0.1409090909090909,607,0,20,DL_MelancholicFolk_Guitar,6,2,sinpen_melancholic,0.20599476993083954,0
63,100,0.21818181818181817,712,0,20,DL_MelancholicFolk_Guitar,6,3,sinpen_melancholic,0.20027022063732147,0
55,100,0.5590909090909091,185,1,21,DL_MelancholicFolk_Guitar,6,9,sinpen_melancholic,0.9998338222503662,1
55,100,0.5,347,0,21,DL_MelancholicFolk_Guitar,6,8,sinpen_melancholic,0.31907325983047485,0
65,100,0.5590909090909091,484,0,21,DL_MelancholicFolk_Guitar,6,9,sinpen_melancholic,0.30539798736572266,0
56,100,0.17727272727272728,853,1,21,DL_MelancholicFolk_Guitar,6,3,sinpen_melancholic,0.32443884015083313,0
56,100,0.36363636363636365,223,1,22,DL_MelancholicFolk_Guitar,6,6,sinpen_melancholic,0.9998471736907959,1
55,100,0.7818181818181819,430,0,22,DL_MelancholicFolk_Guitar,6,13,sinpen_melancholic,0.30110591650009155,0
55,100,0.2818181818181818,673,1,22,DL_MelancholicFolk_Guitar,6,5,sinpen_melancholic,0.3152507245540619,0
58,100,0.2590909090909091,814,0,22,DL_MelancholicFolk_Guitar,6,4,sinpen_melancholic,0.308234840631485,0
58,100,0.2590909090909091,13,1,23,DL_MelancholicFolk_Guitar,6,4,sinpen_melancholic,0.9997867941856384,1
56,100,0.6818181818181818,277,1,23,DL_MelancholicFolk_Guitar,6,11,sinpen_melancholic,0.1290169209241867,0
56,100,0.1409090909090909,484,0,23,DL_MelancholicFolk_Guitar,6,2,sinpen_melancholic,0.13192100822925568,0
56,100,0.2,519,0,23,DL_MelancholicFolk_Guitar,6,3,sinpen_melancholic,0.13728037476539612,0
56,100,0.2818181818181818,576,0,23,DL_MelancholicFolk_Guitar,6,5,sinpen_melancholic,0.14397713541984558,0
53,100,0.1590909090909091,691,0,23,DL_MelancholicFolk_Guitar,6,3,sinpen_melancholic,0.13707120716571808,0
58,100,0.1590909090909091,83,1,24,DL_MelancholicFolk_Guitar,6,3,sinpen_melancholic,0.9997990727424622,1
58,100,0.6181818181818182,250,0,24,DL_MelancholicFolk_Guitar,6,10,sinpen_melancholic,0.405435174703598,0
58,100,0.11818181818181818,550,1,24,DL_MelancholicFolk_Guitar,6,2,sinpen_melancholic,0.45324042439460754,0
58,100,0.1409090909090909,119,1,25,DL_MelancholicFolk_Guitar,6,2,sinpen_melancholic,0.9997938275337219,1
58,100,0.11818181818181818,285,0,25,DL_MelancholicFolk_Guitar,6,2,sinpen_melancholic,0.13346658647060394,0
58,100,0.1590909090909091,343,0,25,DL_MelancholicFolk_Guitar,6,3,sinpen_melancholic,0.13195905089378357,0
58,100,0.2772727272727273,391,0,25,DL_MelancholicFolk_Guitar,6,4,sinpen_melancholic,0.14380787312984467,0
58,100,0.4409090909090909,505,0,25,DL_MelancholicFolk_Guitar,6,7,sinpen_melancholic,0.1564401388168335,0
55,100,1.0818181818181818,717,0,25,DL_MelancholicFolk_Guitar,6,15,sinpen_melancholic,0.14000961184501648,0
60,100,0.6590909090909091,83,1,26,DL_MelancholicFolk_Guitar,6,11,sinpen_melancholic,0.9998186230659485,1
63,100,0.11818181818181818,326,1,26,DL_MelancholicFolk_Guitar,6,2,sinpen_melancholic,0.21740221977233887,0
55,100,0.6409090909090909,509,0,26,DL_MelancholicFolk_Guitar,6,10,sinpen_melancholic,0.19499289989471436,0
65,100,0.32272727272727275,717,0,26,DL_MelancholicFolk_Guitar,6,5,sinpen_melancholic,0.2243773639202118,0
55,100,0.3,810,0,26,DL_MelancholicFolk_Guitar,6,5,sinpen_melancholic,0.21056559681892395,0
56,100,0.8363636363636363,106,1,27,DL_MelancholicFolk_Guitar,6,13,sinpen_melancholic,0.9997952580451965,1
56,100,0.759090909090909,374,1,27,DL_MelancholicFolk_Guitar,6,12,sinpen_melancholic,0.4188309609889984,0
58,100,0.1,650,1,27,DL_MelancholicFolk_Guitar,6,2,sinpen_melancholic,0.44966334104537964,0
65,100,0.2818181818181818,69,1,28,DL_MelancholicFolk_Guitar,6,5,sinpen_melancholic,0.9998237490653992,1
58,100,0.3409090909090909,598,1,28,DL_MelancholicFolk_Guitar,6,5,sinpen_melancholic,0.3971218168735504,0
65,100,0.2409090909090909,673,0,28,DL_MelancholicFolk_Guitar,6,4,sinpen_melancholic,0.4429453909397125,0
63,100,0.2,30,1,29,DL_MelancholicFolk_Guitar,6,3,sinpen_melancholic,0.9998176693916321,1
63,100,0.8590909090909091,216,0,29,DL_MelancholicFolk_Guitar,6,14,sinpen_melancholic,0.38395172357559204,0
63,100,0.12272727272727273,584,1,29,DL_MelancholicFolk_Guitar,6,2,sinpen_melancholic,0.4586437940597534,0
58,100,0.41818181818181815,193,1,30,DL_MelancholicFolk_Guitar,6,7,sinpen_melancholic,0.9998236298561096,1
53,100,0.6409090909090909,285,0,30,DL_MelancholicFolk_Guitar,6,10,sinpen_melancholic,0.33433499932289124,0
53,100,0.16363636363636364,818,1,30,DL_MelancholicFolk_Guitar,6,3,sinpen_melancholic,0.3161189556121826,0
55,100,0.22272727272727272,862,0,30,DL_MelancholicFolk_Guitar,6,4,sinpen_melancholic,0.313489705324173,0
55,100,0.1,34,1,31,DL_MelancholicFolk_Guitar,6,2,sinpen_melancholic,0.9998492002487183,1
55,100,0.1590909090909091,106,0,31,DL_MelancholicFolk_Guitar,6,3,sinpen_melancholic,0.324270635843277,0
55,100,0.2409090909090909,673,1,31,DL_MelancholicFolk_Guitar,6,4,sinpen_melancholic,0.2898564338684082,0
55,100,0.16363636363636364,729,0,31,DL_MelancholicFolk_Guitar,6,3,sinpen_melancholic,0.312044620513916,0
58,100,0.3409090909090909,21,1,32,DL_MelancholicFolk_Guitar,6,5,sinpen_melancholic,0.9998216032981873,1
56,100,0.1590909090909091,251,0,32,DL_MelancholicFolk_Guitar,6,3,sinpen_melancholic,0.23984132707118988,0
56,100,0.37727272727272726,545,1,32,DL_MelancholicFolk_Guitar,6,6,sinpen_melancholic,0.19606460630893707,0
56,100,0.2409090909090909,761,0,32,DL_MelancholicFolk_Guitar,6,4,sinpen_melancholic,0.22251081466674805,0
58,100,0.6818181818181818,826,0,32,DL_MelancholicFolk_Guitar,6,11,sinpen_melancholic,0.1933557093143463,0
56,100,0.18181818181818182,69,1,34,DL_MelancholicFolk_Guitar,6,3,sinpen_melancholic,0.9998019337654114,1
53,100,0.2590909090909091,153,0,34,DL_MelancholicFolk_Guitar,6,4,sinpen_melancholic,0.13045111298561096,0
53,100,0.5181818181818182,215,0,34,DL_MelancholicFolk_Guitar,6,8,sinpen_melancholic,0.11617159843444824,0
53,100,0.2772727272727273,361,0,34,DL_MelancholicFolk_Guitar,6,4,sinpen_melancholic,0.14467088878154755,0
58,100,0.5818181818181818,440,0,34,DL_MelancholicFolk_Guitar,6,9,sinpen_melancholic,0.13516446948051453,0
56,100,0.5181818181818182,810,1,34,DL_MelancholicFolk_Guitar,6,8,sinpen_melancholic,0.14425842463970184,0
56,100,0.11818181818181818,220,1,35,DL_MelancholicFolk_Guitar,6,2,sinpen_melancholic,0.999840497970581,1
56,100,0.2590909090909091,254,0,35,DL_MelancholicFolk_Guitar,6,4,sinpen_melancholic,0.20857201516628265,0
58,100,0.5818181818181818,418,0,35,DL_MelancholicFolk_Guitar,6,9,sinpen_melancholic,0.18521565198898315,0
65,100,0.3409090909090909,581,0,35,DL_MelancholicFolk_Guitar,6,5,sinpen_melancholic,0.23029129207134247,0
58,100,0.7,761,0,35,DL_MelancholicFolk_Guitar,6,11,sinpen_melancholic,0.2030514031648636,0
53,100,0.3,40,1,36,DL_MelancholicFolk_Guitar,6,5,sinpen_melancholic,0.9998279809951782,1
58,100,0.1409090909090909,110,0,36,DL_MelancholicFolk_Guitar,6,2,sinpen_melancholic,0.20582981407642365,0
53,100,0.21818181818181817,176,0,36,DL_MelancholicFolk_Guitar,6,3,sinpen_melancholic,0.20922014117240906,0
55,100,0.5181818181818182,351,0,36,DL_MelancholicFolk_Guitar,6,8,sinpen_melancholic,0.20147205889225006,0
55,100,0.1590909090909091,783,1,36,DL_MelancholicFolk_Guitar,6,3,sinpen_melancholic,0.21828797459602356,0
60,100,0.9772727272727273,8,1,37,DL_MelancholicFolk_Guitar,6,15,sinpen_melancholic,0.9997335076332092,1
60,100,0.11818181818181818,228,0,37,DL_MelancholicFolk_Guitar,6,2,sinpen_melancholic,0.09131652116775513,0
55,100,0.12272727272727273,321,0,37,DL_MelancholicFolk_Guitar,6,2,sinpen_melancholic,0.07208690792322159,0
53,100,1.3818181818181818,440,0,37,DL_MelancholicFolk_Guitar,6,15,sinpen_melancholic,0.07068415731191635,0
53,100,0.1590909090909091,765,1,37,DL_MelancholicFolk_Guitar,6,3,sinpen_melancholic,0.1080855280160904,0
53,100,0.18181818181818182,804,0,37,DL_MelancholicFolk_Guitar,6,3,sinpen_melancholic,0.09859763830900192,0
65,100,0.11818181818181818,875,0,37,DL_MelancholicFolk_Guitar,6,2,sinpen_melancholic,0.09221581369638443,0
65,100,0.12272727272727273,101,1,38,DL_MelancholicFolk_Guitar,6,2,sinpen_melancholic,0.9997767806053162,1
65,100,0.2409090909090909,201,0,38,DL_MelancholicFolk_Guitar,6,4,sinpen_melancholic,0.07960064709186554,0
65,100,0.11818181818181818,273,0,38,DL_MelancholicFolk_Guitar,6,2,sinpen_melancholic,0.0738813728094101,0
65,100,0.11818181818181818,303,0,38,DL_MelancholicFolk_Guitar,6,2,sinpen_melancholic,0.07892907410860062,0
58,100,0.2,361,0,38,DL_MelancholicFolk_Guitar,6,3,sinpen_melancholic,0.08526687324047089,0
58,100,0.17727272727272728,536,0,38,DL_MelancholicFolk_Guitar,6,3,sinpen_melancholic,0.0964294821023941,0
58,100,0.17727272727272728,633,0,38,DL_MelancholicFolk_Guitar,6,3,sinpen_melancholic,0.08996272832155228,0
53,100,0.21818181818181817,348,1,39,DL_MelancholicFolk_Guitar,6,3,sinpen_melancholic,0.9998373985290527,1
58,100,0.2,509,0,39,DL_MelancholicFolk_Guitar,6,3,sinpen_melancholic,0.20690475404262543,0
53,100,0.5409090909090909,554,0,39,DL_MelancholicFolk_Guitar,6,9,sinpen_melancholic,0.20427069067955017,0
58,100,0.5,721,0,39,DL_MelancholicFolk_Guitar,6,8,sinpen_melancholic,0.2111179530620575,0
58,100,0.4,853,0,39,DL_MelancholicFolk_Guitar,6,6,sinpen_melancholic,0.21332691609859467,0
56,100,0.4,418,1,41,DL_MelancholicFolk_Guitar,6,6,sinpen_melancholic,0.9998241066932678,1
56,100,0.3,558,0,41,DL_MelancholicFolk_Guitar,6,5,sinpen_melancholic,0.41102156043052673,0
58,100,0.2,655,0,41,DL_MelancholicFolk_Guitar,6,3,sinpen_melancholic,0.42619192600250244,0
60,100,0.18181818181818182,21,1,42,DL_MelancholicFolk_Guitar,6,3,sinpen_melancholic,0.9998127818107605,1
65,100,0.5227272727272727,211,0,42,DL_MelancholicFolk_Guitar,6,8,sinpen_melancholic,0.11539018899202347,0
65,100,0.2590909090909091,448,1,42,DL_MelancholicFolk_Guitar,6,4,sinpen_melancholic,0.12640896439552307,0
65,100,0.1590909090909091,563,0,42,DL_MelancholicFolk_Guitar,6,3,sinpen_melancholic,0.1327987164258957,0
56,100,0.2409090909090909,641,0,42,DL_MelancholicFolk_Guitar,6,4,sinpen_melancholic,0.1436198353767395,0
63,100,0.1590909090909091,866,0,42,DL_MelancholicFolk_Guitar,6,3,sinpen_melancholic,0.13085724413394928,0
58,100,0.4590909090909091,198,1,43,DL_MelancholicFolk_Guitar,6,7,sinpen_melancholic,0.9998170733451843,1
65,100,0.42272727272727273,386,0,43,DL_MelancholicFolk_Guitar,6,7,sinpen_melancholic,0.23027032613754272,0
58,100,0.1409090909090909,581,0,43,DL_MelancholicFolk_Guitar,6,2,sinpen_melancholic,0.19647954404354095,0
58,100,0.4590909090909091,646,0,43,DL_MelancholicFolk_Guitar,6,7,sinpen_melancholic,0.20980164408683777,0
63,100,0.1409090909090909,866,0,43,DL_MelancholicFolk_Guitar,6,2,sinpen_melancholic,0.2276882529258728,0
63,100,0.8181818181818182,150,1,44,DL_MelancholicFolk_Guitar,6,13,sinpen_melancholic,0.9998241066932678,1
63,100,0.1590909090909091,461,1,44,DL_MelancholicFolk_Guitar,6,3,sinpen_melancholic,0.37087664008140564,0
58,100,0.11818181818181818,528,0,44,DL_MelancholicFolk_Guitar,6,2,sinpen_melancholic,0.30079397559165955,0
58,100,0.8363636363636363,875,1,44,DL_MelancholicFolk_Guitar,6,13,sinpen_melancholic,0.3073939383029938,0
58,100,0.11818181818181818,228,1,45,DL_MelancholicFolk_Guitar,6,2,sinpen_melancholic,0.9998440742492676,1
55,100,0.2,399,0,45,DL_MelancholicFolk_Guitar,6,3,sinpen_melancholic,0.3289601802825928,0
55,100,0.2772727272727273,721,1,45,DL_MelancholicFolk_Guitar,6,4,sinpen_melancholic,0.2961749732494354,0
65,100,0.2,791,0,45,DL_MelancholicFolk_Guitar,6,3,sinpen_melancholic,0.3095589876174927,0
55,100,0.2590909090909091,131,1,46,DL_MelancholicFolk_Guitar,6,4,sinpen_melancholic,0.9997610449790955,1
58,100,0.16363636363636364,289,0,46,DL_MelancholicFolk_Guitar,6,3,sinpen_melancholic,0.08194060623645782,0
58,100,0.3409090909090909,330,0,46,DL_MelancholicFolk_Guitar,6,5,sinpen_melancholic,0.07729722559452057,0
65,100,0.2772727272727273,405,0,46,DL_MelancholicFolk_Guitar,6,4,sinpen_melancholic,0.09260152280330658,0
58,100,0.3,480,0,46,DL_MelancholicFolk_Guitar,6,5,sinpen_melancholic,0.0919959768652916,0
70,100,0.5,581,0,46,DL_MelancholicFolk_Guitar,6,8,sinpen_melancholic,0.09813522547483444,0
70,100,0.12272727272727273,694,0,46,DL_MelancholicFolk_Guitar,6,2,sinpen_melancholic,0.0987788513302803,0
70,100,0.12272727272727273,179,1,47,DL_MelancholicFolk_Guitar,6,2,sinpen_melancholic,0.9998263716697693,1
65,100,0.17727272727272728,303,0,47,DL_MelancholicFolk_Guitar,6,3,sinpen_melancholic,0.22383545339107513,0
65,100,0.2,399,0,47,DL_MelancholicFolk_Guitar,6,3,sinpen_melancholic,0.2066715508699417,0
58,100,0.32272727272727275,541,0,47,DL_MelancholicFolk_Guitar,6,5,sinpen_melancholic,0.19849255681037903,0
58,100,0.21818181818181817,801,1,47,DL_MelancholicFolk_Guitar,6,3,sinpen_melancholic,0.21543309092521667,0
58,100,0.11818181818181818,0,1,48,DL_MelancholicFolk_Guitar,6,2,sinpen_melancholic,0.9998090863227844,1
63,100,0.3409090909090909,660,1,48,DL_MelancholicFolk_Guitar,6,5,sinpen_melancholic,0.42683443427085876,0
65,100,0.6409090909090909,804,0,48,DL_MelancholicFolk_Guitar,6,10,sinpen_melancholic,0.43090948462486267,0
55,100,0.11818181818181818,66,1,49,DL_MelancholicFolk_Guitar,6,2,sinpen_melancholic,0.9998101592063904,1
56,100,0.5181818181818182,241,0,49,DL_MelancholicFolk_Guitar,6,8,sinpen_melancholic,0.12573599815368652,0
56,100,0.4,509,1,49,DL_MelancholicFolk_Guitar,6,6,sinpen_melancholic,0.12970788776874542,0
56,100,0.2409090909090909,646,0,49,DL_MelancholicFolk_Guitar,6,4,sinpen_melancholic,0.14038118720054626,0
65,100,0.18181818181818182,751,0,49,DL_MelancholicFolk_Guitar,6,3,sinpen_melancholic,0.15193398296833038,0
58,100,1.1636363636363636,818,0,49,DL_MelancholicFolk_Guitar,6,15,sinpen_melancholic,0.12079981714487076,0
58,100,0.38181818181818183,201,1,50,DL_MelancholicFolk_Guitar,6,6,sinpen_melancholic,0.9997976422309875,1
58,100,0.740909090909091,295,0,50,DL_MelancholicFolk_Guitar,6,12,sinpen_melancholic,0.3977522552013397,0
65,100,0.4409090909090909,515,0,50,DL_MelancholicFolk_Guitar,6,7,sinpen_melancholic,0.46192246675491333,0
53,100,0.33636363636363636,105,1,51,DL_MelancholicFolk_Guitar,6,5,sinpen_melancholic,0.9996250867843628,1
55,100,0.1590909090909091,185,0,51,DL_MelancholicFolk_Guitar,6,3,sinpen_melancholic,0.5510324835777283,0
58,100,0.1409090909090909,405,1,52,DL_MelancholicFolk_Guitar,6,2,sinpen_melancholic,0.999823272228241,1
65,100,0.17727272727272728,721,1,52,DL_MelancholicFolk_Guitar,6,3,sinpen_melancholic,0.4325163662433624,0
58,100,1.1409090909090909,761,0,52,DL_MelancholicFolk_Guitar,6,15,sinpen_melancholic,0.3978855311870575,0
70,100,0.17727272727272728,435,1,53,DL_MelancholicFolk_Guitar,6,3,sinpen_melancholic,0.99981290102005,1
70,100,0.12272727272727273,774,1,53,DL_MelancholicFolk_Guitar,6,2,sinpen_melancholic,0.418774276971817,0
65,100,0.2,818,0,53,DL_MelancholicFolk_Guitar,6,3,sinpen_melancholic,0.4428199231624603,0
58,100,0.21818181818181817,141,1,54,DL_MelancholicFolk_Guitar,6,3,sinpen_melancholic,0.9995527863502502,1
58,100,0.4772727272727273,273,0,54,DL_MelancholicFolk_Guitar,6,8,sinpen_melancholic,0.5525692105293274,0
53,100,0.18181818181818182,48,1,55,DL_MelancholicFolk_Guitar,6,3,sinpen_melancholic,0.9998024106025696,1
58,100,1.3,105,0,55,DL_MelancholicFolk_Guitar,6,15,sinpen_melancholic,0.10598379373550415,0
58,100,0.6818181818181818,396,1,55,DL_MelancholicFolk_Guitar,6,11,sinpen_melancholic,0.13674010336399078,0
58,100,0.18181818181818182,563,0,55,DL_MelancholicFolk_Guitar,6,3,sinpen_melancholic,0.15340542793273926,0
55,100,0.4590909090909091,673,0,55,DL_MelancholicFolk_Guitar,6,7,sinpen_melancholic,0.16260606050491333,0
70,100,0.18181818181818182,813,0,55,DL_MelancholicFolk_Guitar,6,3,sinpen_melancholic,0.1527763158082962,0
53,100,0.2590909090909091,303,1,56,DL_MelancholicFolk_Guitar,6,4,sinpen_melancholic,0.9998016953468323,1
60,100,0.11818181818181818,383,0,56,DL_MelancholicFolk_Guitar,6,2,sinpen_melancholic,0.12831346690654755,0
55,100,0.2,458,0,56,DL_MelancholicFolk_Guitar,6,3,sinpen_melancholic,0.11604416370391846,0
55,100,0.22272727272727272,694,1,56,DL_MelancholicFolk_Guitar,6,4,sinpen_melancholic,0.1349981278181076,0
65,100,0.1590909090909091,788,0,56,DL_MelancholicFolk_Guitar,6,3,sinpen_melancholic,0.14334534108638763,0
53,100,0.2636363636363636,861,0,56,DL_MelancholicFolk_Guitar,6,4,sinpen_melancholic,0.13463056087493896,0
65,100,0.37727272727272726,40,1,57,DL_MelancholicFolk_Guitar,6,6,sinpen_melancholic,0.9997518658638,1
65,100,0.3,128,0,57,DL_MelancholicFolk_Guitar,6,5,sinpen_melancholic,0.08332396298646927,0
53,100,0.5,215,0,57,DL_MelancholicFolk_Guitar,6,8,sinpen_melancholic,0.07097849249839783,0
53,100,0.8772727272727273,348,0,57,DL_MelancholicFolk_Guitar,6,14,sinpen_melancholic,0.07858578860759735,0
65,100,0.7227272727272728,628,1,57,DL_MelancholicFolk_Guitar,6,12,sinpen_melancholic,0.0955720916390419,0
53,100,0.21818181818181817,788,0,57,DL_MelancholicFolk_Guitar,6,3,sinpen_melancholic,0.10797571390867233,0
53,100,0.21818181818181817,858,0,57,DL_MelancholicFolk_Guitar,6,3,sinpen_melancholic,0.09325026720762253,0
53,100,0.1590909090909091,40,1,58,DL_MelancholicFolk_Guitar,6,3,sinpen_melancholic,0.9998182654380798,1
58,100,1.0636363636363637,334,1,58,DL_MelancholicFolk_Guitar,6,15,sinpen_melancholic,0.3753100037574768,0
65,100,0.1590909090909091,778,1,58,DL_MelancholicFolk_Guitar,6,3,sinpen_melancholic,0.4656965136528015,0
65,100,0.7,738,1,59,DL_MelancholicFolk_Guitar,6,11,sinpen_melancholic,0.9925244450569153,0
65,100,0.2,136,1,60,DL_MelancholicFolk_Guitar,6,3,sinpen_melancholic,0.9998377561569214,1
58,100,0.13636363636363635,238,0,60,DL_MelancholicFolk_Guitar,6,2,sinpen_melancholic,0.2084987759590149,0
63,100,0.36363636363636365,311,0,60,DL_MelancholicFolk_Guitar,6,6,sinpen_melancholic,0.20619584619998932,0
63,100,0.5,458,0,60,DL_MelancholicFolk_Guitar,6,8,sinpen_melancholic,0.21730411052703857,0
58,100,1.2636363636363637,861,1,60,DL_MelancholicFolk_Guitar,6,15,sinpen_melancholic,0.21027609705924988,0
65,100,0.21818181818181817,263,1,61,DL_MelancholicFolk_Guitar,6,3,sinpen_melancholic,0.9998376369476318,1
58,100,0.5,334,0,61,DL_MelancholicFolk_Guitar,6,8,sinpen_melancholic,0.19604744017124176,0
55,100,0.2409090909090909,691,1,61,DL_MelancholicFolk_Guitar,6,4,sinpen_melancholic,0.21597741544246674,0
55,100,0.11818181818181818,778,0,61,DL_MelancholicFolk_Guitar,6,2,sinpen_melancholic,0.2175675630569458,0
58,100,0.5227272727272727,871,0,61,DL_MelancholicFolk_Guitar,6,8,sinpen_melancholic,0.20413967967033386,0
65,100,0.12272727272727273,356,1,62,DL_MelancholicFolk_Guitar,6,2,sinpen_melancholic,0.9998341798782349,1
65,100,0.4409090909090909,399,0,62,DL_MelancholicFolk_Guitar,6,7,sinpen_melancholic,0.4000795781612396,0
58,100,0.6227272727272727,686,1,62,DL_MelancholicFolk_Guitar,6,10,sinpen_melancholic,0.41670775413513184,0
58,100,0.2409090909090909,461,1,63,DL_MelancholicFolk_Guitar,6,4,sinpen_melancholic,0.9998364448547363,1
63,100,0.2409090909090909,531,0,63,DL_MelancholicFolk_Guitar,6,4,sinpen_melancholic,0.33493292331695557,0
63,100,0.1590909090909091,638,0,63,DL_MelancholicFolk_Guitar,6,3,sinpen_melancholic,0.3033585250377655,0
63,100,0.5181818181818182,681,0,63,DL_MelancholicFolk_Guitar,6,8,sinpen_melancholic,0.3106800615787506,0
58,100,0.3,140,1,64,DL_MelancholicFolk_Guitar,6,5,sinpen_melancholic,0.9995688796043396,1
56,100,0.2772727272727273,559,1,64,DL_MelancholicFolk_Guitar,6,4,sinpen_melancholic,0.5615438222885132,0
65,100,0.1,56,1,65,DL_MelancholicFolk_Guitar,6,2,sinpen_melancholic,0.9998113512992859,1
58,100,0.7227272727272728,189,0,65,DL_MelancholicFolk_Guitar,6,12,sinpen_melancholic,0.10748080909252167,0
65,100,0.21818181818181817,352,0,65,DL_MelancholicFolk_Guitar,6,3,sinpen_melancholic,0.1375967413187027,0
56,100,0.2,580,0,65,DL_MelancholicFolk_Guitar,6,3,sinpen_melancholic,0.1344062089920044,0
56,100,0.21818181818181817,633,0,65,DL_MelancholicFolk_Guitar,6,3,sinpen_melancholic,0.14753176271915436,0
56,100,0.1409090909090909,686,0,65,DL_MelancholicFolk_Guitar,6,2,sinpen_melancholic,0.13499349355697632,0
56,100,0.37727272727272726,30,1,66,DL_MelancholicFolk_Guitar,6,6,sinpen_melancholic,0.9997991919517517,1
58,100,0.1590909090909091,276,1,66,DL_MelancholicFolk_Guitar,6,3,sinpen_melancholic,0.12659724056720734,0
65,100,0.36363636363636365,312,0,66,DL_MelancholicFolk_Guitar,6,6,sinpen_melancholic,0.13350723683834076,0
53,100,0.11818181818181818,483,0,66,DL_MelancholicFolk_Guitar,6,2,sinpen_melancholic,0.14843976497650146,0
58,100,1.0,509,0,66,DL_MelancholicFolk_Guitar,6,15,sinpen_melancholic,0.13014188408851624,0
55,100,1.240909090909091,747,1,66,DL_MelancholicFolk_Guitar,6,15,sinpen_melancholic,0.14099723100662231,0
55,100,0.12272727272727273,157,1,67,DL_MelancholicFolk_Guitar,6,2,sinpen_melancholic,0.9998321533203125,1
55,100,0.21818181818181817,216,0,67,DL_MelancholicFolk_Guitar,6,3,sinpen_melancholic,0.2055472731590271,0
55,100,0.3,326,0,67,DL_MelancholicFolk_Guitar,6,5,sinpen_melancholic,0.1966969072818756,0
55,100,0.12272727272727273,409,0,67,DL_MelancholicFolk_Guitar,6,2,sinpen_melancholic,0.22108758985996246,0
58,100,0.2,650,1,67,DL_MelancholicFolk_Guitar,6,3,sinpen_melancholic,0.2059546709060669,0
58,100,0.3,62,1,68,DL_MelancholicFolk_Guitar,6,5,sinpen_melancholic,0.9997076392173767,1
56,100,0.22272727272727272,145,0,68,DL_MelancholicFolk_Guitar,6,4,sinpen_melancholic,0.061529491096735,0
56,100,0.12272727272727273,255,0,68,DL_MelancholicFolk_Guitar,6,2,sinpen_melancholic,0.05000190809369087,0
56,100,0.4,320,0,68,DL_MelancholicFolk_Guitar,6,6,sinpen_melancholic,0.04813852161169052,0
56,100,0.2,506,0,68,DL_MelancholicFolk_Guitar,6,3,sinpen_melancholic,0.05630001798272133,0
63,100,0.1590909090909091,590,0,68,DL_MelancholicFolk_Guitar,6,3,sinpen_melancholic,0.06273575127124786,0
58,100,0.22272727272727272,650,0,68,DL_MelancholicFolk_Guitar,6,4,sinpen_melancholic,0.06655023247003555,0
58,100,0.7,703,0,68,DL_MelancholicFolk_Guitar,6,11,sinpen_melancholic,0.062106162309646606,0
58,100,0.3181818181818182,184,1,69,DL_MelancholicFolk_Guitar,6,5,sinpen_melancholic,0.9998295307159424,1
58,100,0.5772727272727273,273,0,69,DL_MelancholicFolk_Guitar,6,9,sinpen_melancholic,0.32120010256767273,0
63,100,0.21818181818181817,572,1,69,DL_MelancholicFolk_Guitar,6,3,sinpen_melancholic,0.3264545500278473,0
58,100,0.18181818181818182,849,1,69,DL_MelancholicFolk_Guitar,6,3,sinpen_melancholic,0.3145254850387573,0
63,100,0.1,83,1,70,DL_MelancholicFolk_Guitar,6,2,sinpen_melancholic,0.9998227953910828,1
58,100,0.11818181818181818,140,0,70,DL_MelancholicFolk_Guitar,6,2,sinpen_melancholic,0.40548115968704224,0
58,100,0.23636363636363636,237,0,70,DL_MelancholicFolk_Guitar,6,4,sinpen_melancholic,0.43380504846572876,0
63,100,0.35909090909090907,206,1,71,DL_MelancholicFolk_Guitar,6,6,sinpen_melancholic,0.992878258228302,0
56,100,0.2636363636363636,422,1,76,DL_MelancholicFolk_Guitar,6,4,sinpen_melancholic,0.9998362064361572,1
53,100,0.16363636363636364,509,0,76,DL_MelancholicFolk_Guitar,6,3,sinpen_melancholic,0.22956609725952148,0
58,100,0.3409090909090909,553,0,76,DL_MelancholicFolk_Guitar,6,5,sinpen_melancholic,0.1896391361951828,0
58,100,0.37727272727272726,669,0,76,DL_MelancholicFolk_Guitar,6,6,sinpen_melancholic,0.2219994068145752,0
58,100,1.018181818181818,756,0,76,DL_MelancholicFolk_Guitar,6,15,sinpen_melancholic,0.20978258550167084,0
58,100,0.2409090909090909,110,1,77,DL_MelancholicFolk_Guitar,6,4,sinpen_melancholic,0.9998278617858887,1
58,100,0.18181818181818182,176,0,77,DL_MelancholicFolk_Guitar,6,3,sinpen_melancholic,0.3350316882133484,0
55,100,1.0636363636363637,289,0,77,DL_MelancholicFolk_Guitar,6,15,sinpen_melancholic,0.2895927131175995,0
58,100,0.4772727272727273,656,1,77,DL_MelancholicFolk_Guitar,6,8,sinpen_melancholic,0.3387039601802826,0
70,100,0.5818181818181818,22,1,78,DL_MelancholicFolk_Guitar,6,9,sinpen_melancholic,0.9996473789215088,1
55,100,0.16363636363636364,246,0,78,DL_MelancholicFolk_Guitar,6,3,sinpen_melancholic,0.04886951297521591,0
65,100,0.35909090909090907,282,0,78,DL_MelancholicFolk_Guitar,6,6,sinpen_melancholic,0.03383480757474899,0
55,100,0.3409090909090909,360,0,78,DL_MelancholicFolk_Guitar,6,5,sinpen_melancholic,0.03115111030638218,0
65,100,0.1409090909090909,440,0,78,DL_MelancholicFolk_Guitar,6,2,sinpen_melancholic,0.034102655947208405,0
56,100,0.5227272727272727,519,0,78,DL_MelancholicFolk_Guitar,6,8,sinpen_melancholic,0.033645134419202805,0
63,100,0.1590909090909091,660,0,78,DL_MelancholicFolk_Guitar,6,3,sinpen_melancholic,0.04445119574666023,0
65,100,0.2818181818181818,703,0,78,DL_MelancholicFolk_Guitar,6,5,sinpen_melancholic,0.05036706477403641,0
65,100,0.5363636363636364,832,0,78,DL_MelancholicFolk_Guitar,6,9,sinpen_melancholic,0.04740351438522339,0
65,100,0.4772727272727273,96,1,79,DL_MelancholicFolk_Guitar,6,8,sinpen_melancholic,0.9998313188552856,1
55,100,0.32272727272727275,365,1,79,DL_MelancholicFolk_Guitar,6,5,sinpen_melancholic,0.20815958082675934,0
55,100,0.21818181818181817,440,0,79,DL_MelancholicFolk_Guitar,6,3,sinpen_melancholic,0.2029525339603424,0
55,100,0.2,509,0,79,DL_MelancholicFolk_Guitar,6,3,sinpen_melancholic,0.21354565024375916,0
65,100,0.4818181818181818,673,0,79,DL_MelancholicFolk_Guitar,6,8,sinpen_melancholic,0.2041063904762268,0
63,100,0.32272727272727275,26,1,80,DL_MelancholicFolk_Guitar,6,5,sinpen_melancholic,0.9997912049293518,1
63,100,0.1409090909090909,153,0,80,DL_MelancholicFolk_Guitar,6,2,sinpen_melancholic,0.1369185447692871,0
63,100,0.22272727272727272,365,0,80,DL_MelancholicFolk_Guitar,6,4,sinpen_melancholic,0.12599819898605347,0
58,100,1.0,475,0,80,DL_MelancholicFolk_Guitar,6,15,sinpen_melancholic,0.12747612595558167,0
53,100,0.2409090909090909,703,0,80,DL_MelancholicFolk_Guitar,6,4,sinpen_melancholic,0.17404229938983917,0
53,100,0.8590909090909091,766,0,80,DL_MelancholicFolk_Guitar,6,14,sinpen_melancholic,0.13642175495624542,0
53,100,0.18181818181818182,79,1,81,DL_MelancholicFolk_Guitar,6,3,sinpen_melancholic,0.9997718930244446,1
60,100,0.11818181818181818,193,0,81,DL_MelancholicFolk_Guitar,6,2,sinpen_melancholic,0.07876815646886826,0
60,100,0.5363636363636364,303,0,81,DL_MelancholicFolk_Guitar,6,9,sinpen_melancholic,0.06855843961238861,0
60,100,0.13636363636363635,436,0,81,DL_MelancholicFolk_Guitar,6,2,sinpen_melancholic,0.0832759290933609,0
55,100,0.4409090909090909,475,0,81,DL_MelancholicFolk_Guitar,6,7,sinpen_melancholic,0.08507876098155975,0
60,100,0.4,603,0,81,DL_MelancholicFolk_Guitar,6,6,sinpen_melancholic,0.09788959473371506,0
56,100,0.1,857,1,81,DL_MelancholicFolk_Guitar,6,2,sinpen_melancholic,0.08775806427001953,0
58,100,0.33636363636363636,480,1,82,DL_MelancholicFolk_Guitar,6,5,sinpen_melancholic,0.9997982382774353,1
58,100,0.8,590,0,82,DL_MelancholicFolk_Guitar,6,13,sinpen_melancholic,0.40769121050834656,0
58,100,0.6181818181818182,832,1,82,DL_MelancholicFolk_Guitar,6,10,sinpen_melancholic,0.4466112554073334,0
70,100,0.2409090909090909,87,1,83,DL_MelancholicFolk_Guitar,6,4,sinpen_melancholic,0.9997046589851379,1
63,100,0.11818181818181818,140,0,83,DL_MelancholicFolk_Guitar,6,2,sinpen_melancholic,0.05999461188912392,0
58,100,0.11818181818181818,307,0,83,DL_MelancholicFolk_Guitar,6,2,sinpen_melancholic,0.046645376831293106,0
58,100,0.2772727272727273,339,0,83,DL_MelancholicFolk_Guitar,6,4,sinpen_melancholic,0.04878339543938637,0
62,100,0.6409090909090909,426,0,83,DL_MelancholicFolk_Guitar,6,10,sinpen_melancholic,0.057545654475688934,0
62,100,0.2,572,0,83,DL_MelancholicFolk_Guitar,6,3,sinpen_melancholic,0.06601619720458984,0
58,100,0.2409090909090909,650,0,83,DL_MelancholicFolk_Guitar,6,4,sinpen_melancholic,0.0664338544011116,0
60,100,0.11818181818181818,787,0,83,DL_MelancholicFolk_Guitar,6,2,sinpen_melancholic,0.06990162283182144,0
60,100,0.37727272727272726,184,1,84,DL_MelancholicFolk_Guitar,6,6,sinpen_melancholic,0.9998117089271545,1
60,100,0.3,273,0,84,DL_MelancholicFolk_Guitar,6,5,sinpen_melancholic,0.130427747964859,0
60,100,0.2,343,0,84,DL_MelancholicFolk_Guitar,6,3,sinpen_melancholic,0.12401419878005981,0
63,100,0.1590909090909091,519,0,84,DL_MelancholicFolk_Guitar,6,3,sinpen_melancholic,0.13521228730678558,0
56,100,0.22272727272727272,563,0,84,DL_MelancholicFolk_Guitar,6,4,sinpen_melancholic,0.14513008296489716,0
56,100,1.3409090909090908,823,1,84,DL_MelancholicFolk_Guitar,6,15,sinpen_melancholic,0.12548303604125977,0
56,100,0.11818181818181818,392,1,85,DL_MelancholicFolk_Guitar,6,2,sinpen_melancholic,0.999841570854187,1
56,100,0.1,576,0,85,DL_MelancholicFolk_Guitar,6,2,sinpen_melancholic,0.20783184468746185,0
58,100,0.1590909090909091,616,0,85,DL_MelancholicFolk_Guitar,6,3,sinpen_melancholic,0.1853957623243332,0
60,100,0.18181818181818182,773,0,85,DL_MelancholicFolk_Guitar,6,3,sinpen_melancholic,0.2197539061307907,0
53,100,0.11818181818181818,823,0,85,DL_MelancholicFolk_Guitar,6,2,sinpen_melancholic,0.20567838847637177,0
53,100,0.17727272727272728,30,1,86,DL_MelancholicFolk_Guitar,6,3,sinpen_melancholic,0.9997729659080505,1
53,100,0.1590909090909091,189,0,86,DL_MelancholicFolk_Guitar,6,3,sinpen_melancholic,0.07890813797712326,0
58,100,0.4772727272727273,229,0,86,DL_MelancholicFolk_Guitar,6,8,sinpen_melancholic,0.06647353619337082,0
60,100,0.38181818181818183,409,0,86,DL_MelancholicFolk_Guitar,6,6,sinpen_melancholic,0.08707089722156525,0
60,100,0.2,519,0,86,DL_MelancholicFolk_Guitar,6,3,sinpen_melancholic,0.0933966115117073,0
60,100,0.1,567,0,86,DL_MelancholicFolk_Guitar,6,2,sinpen_melancholic,0.09954158961772919,0
60,100,0.8,752,0,86,DL_MelancholicFolk_Guitar,6,13,sinpen_melancholic,0.08448803424835205,0
56,100,0.5409090909090909,69,1,87,DL_MelancholicFolk_Guitar,6,9,sinpen_melancholic,0.9995381832122803,1
58,100,1.259090909090909,637,1,87,DL_MelancholicFolk_Guitar,6,15,sinpen_melancholic,0.5392818450927734,0
58,100,0.1590909090909091,53,1,88,DL_MelancholicFolk_Guitar,6,3,sinpen_melancholic,0.9997361302375793,1
58,100,0.7,100,0,88,DL_MelancholicFolk_Guitar,6,11,sinpen_melancholic,0.07737630605697632,0
70,100,0.12272727272727273,289,0,88,DL_MelancholicFolk_Guitar,6,2,sinpen_melancholic,0.08042314648628235,0
63,100,0.11818181818181818,330,0,88,DL_MelancholicFolk_Guitar,6,2,sinpen_melancholic,0.08733145147562027,0
63,100,0.6,453,0,88,DL_MelancholicFolk_Guitar,6,10,sinpen_melancholic,0.0903439149260521,0
62,100,0.3181818181818182,612,0,88,DL_MelancholicFolk_Guitar,6,5,sinpen_melancholic,0.11211080104112625,0
62,100,0.13636363636363635,722,0,88,DL_MelancholicFolk_Guitar,6,2,sinpen_melancholic,0.09770648181438446,0
60,100,0.5409090909090909,30,1,89,DL_MelancholicFolk_Guitar,6,9,sinpen_melancholic,0.9996299743652344,1
60,100,0.17727272727272728,493,1,89,DL_MelancholicFolk_Guitar,6,3,sinpen_melancholic,0.5566883683204651,0
70,100,0.2409090909090909,220,1,90,DL_MelancholicFolk_Guitar,6,4,sinpen_melancholic,0.9997908473014832,1
58,100,1.6409090909090909,299,0,90,DL_MelancholicFolk_Guitar,6,15,sinpen_melancholic,0.3837164640426636,0
58,100,0.11818181818181818,677,1,90,DL_MelancholicFolk_Guitar,6,2,sinpen_melancholic,0.48080331087112427,1
63,100,0.1,519,1,0,DL_Guitar,6,2,umon_kokounohito_ruriko,0.9932599663734436,1
58,100,0.1590909090909091,704,1,1,DL_Guitar,6,3,umon_kokounohito_ruriko,0.9924466609954834,0
56,100,0.12272727272727273,311,1,2,DL_Guitar,6,2,umon_kokounohito_ruriko,0.9995949864387512,1
63,100,1.3590909090909091,537,0,2,DL_Guitar,6,15,umon_kokounohito_ruriko,0.5235270261764526,0
63,100,1.0,836,1,4,DL_Guitar,6,15,umon_kokounohito_ruriko,0.9913865327835083,0
53,100,0.7181818181818181,373,1,5,DL_Guitar,6,11,umon_kokounohito_ruriko,0.9995549321174622,1
56,100,0.9818181818181818,593,0,5,DL_Guitar,6,15,umon_kokounohito_ruriko,0.5430516600608826,0
53,100,0.7,854,1,6,DL_Guitar,6,11,umon_kokounohito_ruriko,0.9926482439041138,0
53,100,0.1409090909090909,158,1,7,DL_Guitar,6,2,umon_kokounohito_ruriko,0.999841570854187,1
53,100,0.4,311,0,7,DL_Guitar,6,6,umon_kokounohito_ruriko,0.19900432229042053,0
63,100,0.2818181818181818,747,1,7,DL_Guitar,6,5,umon_kokounohito_ruriko,0.19811849296092987,0
63,100,0.1590909090909091,831,0,7,DL_Guitar,6,3,umon_kokounohito_ruriko,0.20235301554203033,0
63,100,0.1409090909090909,871,0,7,DL_Guitar,6,2,umon_kokounohito_ruriko,0.21545179188251495,0
53,100,0.18181818181818182,527,1,8,DL_Guitar,6,3,umon_kokounohito_ruriko,0.9998457431793213,1
53,100,0.4590909090909091,581,0,8,DL_Guitar,6,7,umon_kokounohito_ruriko,0.31992849707603455,0
53,100,0.22272727272727272,685,0,8,DL_Guitar,6,4,umon_kokounohito_ruriko,0.3068709373474121,0
63,100,0.8590909090909091,787,0,8,DL_Guitar,6,14,umon_kokounohito_ruriko,0.29475167393684387,0
63,100,0.21818181818181817,448,1,13,DL_Guitar,6,3,umon_kokounohito_ruriko,0.9929186701774597,0
56,100,1.740909090909091,92,1,14,DL_Guitar,6,15,umon_kokounohito_ruriko,0.999798595905304,1
56,100,0.2818181818181818,519,1,14,DL_Guitar,6,5,umon_kokounohito_ruriko,0.39647558331489563,0
56,100,0.1409090909090909,735,0,14,DL_Guitar,6,2,umon_kokounohito_ruriko,0.31058841943740845,0
63,100,0.2409090909090909,783,0,14,DL_Guitar,6,4,umon_kokounohito_ruriko,0.30842405557632446,0
56,100,0.2409090909090909,22,1,15,DL_Guitar,6,4,umon_kokounohito_ruriko,0.9997656941413879,1
56,100,0.1590909090909091,96,0,15,DL_Guitar,6,3,umon_kokounohito_ruriko,0.08101726323366165,0
53,100,0.3,144,0,15,DL_Guitar,6,5,umon_kokounohito_ruriko,0.07217589020729065,0
53,100,0.2,276,0,15,DL_Guitar,6,3,umon_kokounohito_ruriko,0.07723647356033325,0
63,100,0.4,386,0,15,DL_Guitar,6,6,umon_kokounohito_ruriko,0.08695869147777557,0
53,100,0.1,536,0,15,DL_Guitar,6,2,umon_kokounohito_ruriko,0.10022363811731339,0
55,100,0.1,778,1,15,DL_Guitar,6,2,umon_kokounohito_ruriko,0.08495907485485077,0
63,100,0.4818181818181818,210,1,16,DL_Guitar,6,8,umon_kokounohito_ruriko,0.9998494386672974,1
53,100,0.12272727272727273,356,0,16,DL_Guitar,6,2,umon_kokounohito_ruriko,0.33683323860168457,0
58,100,0.2,391,0,16,DL_Guitar,6,3,umon_kokounohito_ruriko,0.2763603627681732,0
63,100,0.3,804,1,16,DL_Guitar,6,5,umon_kokounohito_ruriko,0.31577402353286743,0
56,100,0.11818181818181818,461,1,17,DL_Guitar,6,2,umon_kokounohito_ruriko,0.9998570680618286,1
53,100,0.2590909090909091,519,0,17,DL_Guitar,6,4,umon_kokounohito_ruriko,0.3157308101654053,0
53,100,0.1590909090909091,646,0,17,DL_Guitar,6,3,umon_kokounohito_ruriko,0.2953435182571411,0
63,100,0.33636363636363636,831,0,17,DL_Guitar,6,5,umon_kokounohito_ruriko,0.29318732023239136,0
53,100,0.2409090909090909,44,1,18,DL_Guitar,6,4,umon_kokounohito_ruriko,0.9998026490211487,1
55,100,0.3181818181818182,216,0,18,DL_Guitar,6,5,umon_kokounohito_ruriko,0.11875402927398682,0
55,100,0.9227272727272727,356,0,18,DL_Guitar,6,15,umon_kokounohito_ruriko,0.11206676810979843,0
55,100,0.22272727272727272,642,1,18,DL_Guitar,6,4,umon_kokounohito_ruriko,0.1509576290845871,0
60,100,0.1409090909090909,748,0,18,DL_Guitar,6,2,umon_kokounohito_ruriko,0.15222474932670593,0
60,100,0.18181818181818182,783,0,18,DL_Guitar,6,3,umon_kokounohito_ruriko,0.13302373886108398,0
63,100,0.12272727272727273,79,1,19,DL_Guitar,6,2,umon_kokounohito_ruriko,0.9998512268066406,1
53,100,0.5227272727272727,356,1,19,DL_Guitar,6,8,umon_kokounohito_ruriko,0.31259873509407043,0
53,100,0.2590909090909091,492,0,19,DL_Guitar,6,4,umon_kokounohito_ruriko,0.30169475078582764,0
53,100,0.2590909090909091,563,0,19,DL_Guitar,6,4,umon_kokounohito_ruriko,0.3024139404296875,0
53,100,0.11818181818181818,17,1,20,DL_Guitar,6,2,umon_kokounohito_ruriko,0.9997408986091614,1
55,100,0.2590909090909091,285,1,20,DL_Guitar,6,4,umon_kokounohito_ruriko,0.05171249061822891,0
53,100,0.11818181818181818,351,0,20,DL_Guitar,6,2,umon_kokounohito_ruriko,0.04990701749920845,0
55,100,0.5818181818181818,399,0,20,DL_Guitar,6,9,umon_kokounohito_ruriko,0.04558149352669716,0
56,100,0.21818181818181817,567,0,20,DL_Guitar,6,3,umon_kokounohito_ruriko,0.05649610608816147,0
56,100,0.12272727272727273,642,0,20,DL_Guitar,6,2,umon_kokounohito_ruriko,0.0637616366147995,0
56,100,0.21818181818181817,691,0,20,DL_Guitar,6,3,umon_kokounohito_ruriko,0.06636690348386765,0
56,100,0.3,801,0,20,DL_Guitar,6,5,umon_kokounohito_ruriko,0.06149376928806305,0
56,100,0.17727272727272728,9,1,21,DL_Guitar,6,3,umon_kokounohito_ruriko,0.9998459815979004,1
63,100,0.2590909090909091,303,1,21,DL_Guitar,6,4,umon_kokounohito_ruriko,0.3114243745803833,0
63,100,0.4,515,0,21,DL_Guitar,6,6,umon_kokounohito_ruriko,0.29697054624557495,0
63,100,0.8590909090909091,743,0,21,DL_Guitar,6,14,umon_kokounohito_ruriko,0.3097725212574005,0
63,100,0.35909090909090907,96,1,22,DL_Guitar,6,6,umon_kokounohito_ruriko,0.9998156428337097,1
63,100,0.4,260,0,22,DL_Guitar,6,6,umon_kokounohito_ruriko,0.40363356471061707,0
63,100,0.17727272727272728,480,0,22,DL_Guitar,6,3,umon_kokounohito_ruriko,0.45144838094711304,0
58,100,0.12272727272727273,223,1,26,DL_Guitar,6,2,umon_kokounohito_ruriko,0.9996565580368042,1
53,100,0.2409090909090909,254,0,26,DL_Guitar,6,4,umon_kokounohito_ruriko,0.03348657488822937,0
58,100,0.1590909090909091,351,0,26,DL_Guitar,6,3,umon_kokounohito_ruriko,0.02064172364771366,0
53,100,0.11818181818181818,395,0,26,DL_Guitar,6,2,umon_kokounohito_ruriko,0.01816628873348236,0
53,100,0.17727272727272728,449,0,26,DL_Guitar,6,3,umon_kokounohito_ruriko,0.013847230933606625,0
58,100,0.2818181818181818,519,0,26,DL_Guitar,6,5,umon_kokounohito_ruriko,0.01228636410087347,0
53,100,0.1590909090909091,602,0,26,DL_Guitar,6,3,umon_kokounohito_ruriko,0.015045737847685814,0
58,100,0.2,673,0,26,DL_Guitar,6,3,umon_kokounohito_ruriko,0.01647992618381977,0
53,100,0.2,725,0,26,DL_Guitar,6,3,umon_kokounohito_ruriko,0.0253817867487669,0
58,100,0.3,783,0,26,DL_Guitar,6,5,umon_kokounohito_ruriko,0.02944037690758705,0
74,100,0.11818181818181818,866,0,26,DL_Guitar,6,2,umon_kokounohito_ruriko,0.03843405470252037,0
63,100,0.6590909090909091,501,1,27,DL_Guitar,6,11,umon_kokounohito_ruriko,0.9997996687889099,1
58,100,0.11818181818181818,725,0,27,DL_Guitar,6,2,umon_kokounohito_ruriko,0.4368143081665039,0
58,100,1.0,827,0,27,DL_Guitar,6,15,umon_kokounohito_ruriko,0.4184745252132416,0
63,100,0.1409090909090909,175,1,28,DL_Guitar,6,2,umon_kokounohito_ruriko,0.999849796295166,1
58,100,0.3181818181818182,360,0,28,DL_Guitar,6,5,umon_kokounohito_ruriko,0.2991570830345154,0
63,100,1.040909090909091,474,0,28,DL_Guitar,6,15,umon_kokounohito_ruriko,0.2860391438007355,0
63,100,0.2590909090909091,783,1,28,DL_Guitar,6,4,umon_kokounohito_ruriko,0.3461836278438568,0
55,100,0.5409090909090909,100,1,29,DL_Guitar,6,9,umon_kokounohito_ruriko,0.9997788071632385,1
58,100,0.18181818181818182,246,0,29,DL_Guitar,6,3,umon_kokounohito_ruriko,0.12992419302463531,0
55,100,0.1409090909090909,312,0,29,DL_Guitar,6,2,umon_kokounohito_ruriko,0.12606313824653625,0
63,100,1.040909090909091,378,0,29,DL_Guitar,6,15,umon_kokounohito_ruriko,0.12459980696439743,0
63,100,0.32272727272727275,642,1,29,DL_Guitar,6,5,umon_kokounohito_ruriko,0.16573454439640045,0
63,100,0.13636363636363635,876,1,29,DL_Guitar,6,2,umon_kokounohito_ruriko,0.14745108783245087,0
63,100,0.1590909090909091,57,1,30,DL_Guitar,6,3,umon_kokounohito_ruriko,0.9995951056480408,1
63,100,0.21818181818181817,193,0,30,DL_Guitar,6,3,umon_kokounohito_ruriko,0.5565618276596069,0
58,100,0.41818181818181815,52,1,31,DL_Guitar,6,7,umon_kokounohito_ruriko,0.999817430973053,1
58,100,0.740909090909091,272,0,31,DL_Guitar,6,12,umon_kokounohito_ruriko,0.3197651505470276,0
58,100,0.4818181818181818,509,1,31,DL_Guitar,6,8,umon_kokounohito_ruriko,0.32207953929901123,0
58,100,0.2590909090909091,660,0,31,DL_Guitar,6,4,umon_kokounohito_ruriko,0.3335789740085602,0
63,100,0.2,66,1,32,DL_Guitar,6,3,umon_kokounohito_ruriko,0.9997355341911316,1
63,100,0.17727272727272728,206,0,32,DL_Guitar,6,3,umon_kokounohito_ruriko,0.0555536188185215,0
58,100,0.1409090909090909,321,0,32,DL_Guitar,6,2,umon_kokounohito_ruriko,0.046758294105529785,0
63,100,0.11818181818181818,493,0,32,DL_Guitar,6,2,umon_kokounohito_ruriko,0.050131965428590775,0
63,100,0.1,606,0,32,DL_Guitar,6,2,umon_kokounohito_ruriko,0.05426324903964996,0
53,100,0.21818181818181817,638,0,32,DL_Guitar,6,3,umon_kokounohito_ruriko,0.0629093274474144,0
58,100,0.4,686,0,32,DL_Guitar,6,6,umon_kokounohito_ruriko,0.06321869045495987,0
58,100,0.2,796,0,32,DL_Guitar,6,3,umon_kokounohito_ruriko,0.06414885818958282,0
53,100,0.11818181818181818,53,1,33,DL_Guitar,6,2,umon_kokounohito_ruriko,0.9998373985290527,1
53,100,0.22272727272727272,114,0,33,DL_Guitar,6,4,umon_kokounohito_ruriko,0.20859995484352112,0
55,100,0.18181818181818182,386,1,33,DL_Guitar,6,3,umon_kokounohito_ruriko,0.1979430764913559,0
59,100,0.4818181818181818,453,0,33,DL_Guitar,6,8,umon_kokounohito_ruriko,0.20342344045639038,0
55,100,0.5,563,0,33,DL_Guitar,6,8,umon_kokounohito_ruriko,0.202415332198143,0
55,100,0.2,26,1,34,DL_Guitar,6,3,umon_kokounohito_ruriko,0.9998276233673096,1
63,100,0.11818181818181818,105,0,34,DL_Guitar,6,2,umon_kokounohito_ruriko,0.21645987033843994,0
55,100,0.16363636363636364,268,0,34,DL_Guitar,6,3,umon_kokounohito_ruriko,0.20139475166797638,0
58,100,0.1590909090909091,364,0,34,DL_Guitar,6,3,umon_kokounohito_ruriko,0.20876893401145935,0
56,100,0.1590909090909091,756,1,34,DL_Guitar,6,3,umon_kokounohito_ruriko,0.2203548401594162,0
58,100,0.3,201,1,35,DL_Guitar,6,5,umon_kokounohito_ruriko,0.99982088804245,1
58,100,0.37727272727272726,458,1,35,DL_Guitar,6,6,umon_kokounohito_ruriko,0.20925334095954895,0
53,100,0.1,545,0,35,DL_Guitar,6,2,umon_kokounohito_ruriko,0.2276049554347992,0
58,100,0.2818181818181818,576,0,35,DL_Guitar,6,5,umon_kokounohito_ruriko,0.20654815435409546,0
58,100,0.4,729,0,35,DL_Guitar,6,6,umon_kokounohito_ruriko,0.21720759570598602,0
63,100,0.17727272727272728,426,1,36,DL_Guitar,6,3,umon_kokounohito_ruriko,0.9996299743652344,1
63,100,0.43636363636363634,655,0,36,DL_Guitar,6,7,umon_kokounohito_ruriko,0.5412886738777161,0
56,100,0.11818181818181818,96,1,37,DL_Guitar,6,2,umon_kokounohito_ruriko,0.99983811378479,1
63,100,0.2772727272727273,370,1,37,DL_Guitar,6,4,umon_kokounohito_ruriko,0.19667190313339233,0
63,100,0.41818181818181815,435,0,37,DL_Guitar,6,7,umon_kokounohito_ruriko,0.19419798254966736,0
63,100,0.11818181818181818,655,0,37,DL_Guitar,6,2,umon_kokounohito_ruriko,0.21984411776065826,0
63,100,0.38181818181818183,748,0,37,DL_Guitar,6,6,umon_kokounohito_ruriko,0.21148644387722015,0
63,100,0.35909090909090907,88,1,38,DL_Guitar,6,6,umon_kokounohito_ruriko,0.9926022887229919,0
65,100,0.4818181818181818,233,1,39,DL_Guitar,6,8,umon_kokounohito_ruriko,0.9998258948326111,1
56,100,0.4636363636363636,421,0,39,DL_Guitar,6,7,umon_kokounohito_ruriko,0.2101086527109146,0
63,100,0.36363636363636365,531,0,39,DL_Guitar,6,6,umon_kokounohito_ruriko,0.19631648063659668,0
63,100,0.35909090909090907,748,0,39,DL_Guitar,6,6,umon_kokounohito_ruriko,0.2173767238855362,0
58,100,0.1409090909090909,861,0,39,DL_Guitar,6,2,umon_kokounohito_ruriko,0.21497602760791779,0
53,100,0.23636363636363636,18,1,40,DL_Guitar,6,4,umon_kokounohito_ruriko,0.9998487234115601,1
58,100,0.16363636363636364,114,0,40,DL_Guitar,6,3,umon_kokounohito_ruriko,0.31379765272140503,0
58,100,0.759090909090909,163,0,40,DL_Guitar,6,12,umon_kokounohito_ruriko,0.2831493318080902,0
58,100,0.2590909090909091,351,0,40,DL_Guitar,6,4,umon_kokounohito_ruriko,0.3326577842235565,0
53,100,0.3181818181818182,198,1,41,DL_Guitar,6,5,umon_kokounohito_ruriko,0.9998354911804199,1
58,100,0.9409090909090909,273,0,41,DL_Guitar,6,15,umon_kokounohito_ruriko,0.18071115016937256,0
58,100,0.4818181818181818,483,0,41,DL_Guitar,6,8,umon_kokounohito_ruriko,0.22278830409049988,0
58,100,0.1590909090909091,593,0,41,DL_Guitar,6,3,umon_kokounohito_ruriko,0.2230166792869568,0
63,100,0.41818181818181815,770,0,41,DL_Guitar,6,7,umon_kokounohito_ruriko,0.22644931077957153,0
63,100,0.32272727272727275,34,1,42,DL_Guitar,6,5,umon_kokounohito_ruriko,0.9995885491371155,1
63,100,0.5,188,0,42,DL_Guitar,6,8,umon_kokounohito_ruriko,0.5503524541854858,0
63,100,0.11818181818181818,110,1,43,DL_Guitar,6,2,umon_kokounohito_ruriko,0.99982750415802,1
58,100,0.2,263,0,43,DL_Guitar,6,3,umon_kokounohito_ruriko,0.39748793840408325,0
65,100,0.13636363636363635,523,1,43,DL_Guitar,6,2,umon_kokounohito_ruriko,0.4437854290008545,0
65,100,0.37727272727272726,105,1,44,DL_Guitar,6,6,umon_kokounohito_ruriko,0.9998248219490051,1
63,100,0.1590909090909091,418,1,44,DL_Guitar,6,3,umon_kokounohito_ruriko,0.41431060433387756,0
63,100,0.11818181818181818,681,1,44,DL_Guitar,6,2,umon_kokounohito_ruriko,0.43377795815467834,0
63,100,0.8590909090909091,198,1,45,DL_Guitar,6,14,umon_kokounohito_ruriko,0.9998323917388916,1
56,100,0.2409090909090909,399,0,45,DL_Guitar,6,4,umon_kokounohito_ruriko,0.3542080819606781,0
56,100,0.13636363636363635,458,0,45,DL_Guitar,6,2,umon_kokounohito_ruriko,0.296393483877182,0
56,100,0.16363636363636364,509,0,45,DL_Guitar,6,3,umon_kokounohito_ruriko,0.31695395708084106,0
62,100,0.5181818181818182,0,1,47,DL_Guitar,6,8,umon_kokounohito_ruriko,0.9995434880256653,1
63,100,1.8,370,1,47,DL_Guitar,6,15,umon_kokounohito_ruriko,0.5324142575263977,0
58,100,0.5181818181818182,308,1,48,DL_Guitar,6,8,umon_kokounohito_ruriko,0.9918033480644226,0
58,100,0.2,21,1,49,DL_Guitar,6,3,umon_kokounohito_ruriko,0.9925886392593384,0
58,100,0.16363636363636364,224,1,50,DL_Guitar,6,3,umon_kokounohito_ruriko,0.9996107220649719,1
56,100,0.21818181818181817,273,0,50,DL_Guitar,6,3,umon_kokounohito_ruriko,0.557615339756012,0
62,100,0.16363636363636364,136,1,51,DL_Guitar,6,3,umon_kokounohito_ruriko,0.9932748079299927,0
63,100,0.11818181818181818,501,1,52,DL_Guitar,6,2,umon_kokounohito_ruriko,0.9998310804367065,1
63,100,0.1,531,0,52,DL_Guitar,6,2,umon_kokounohito_ruriko,0.4061107039451599,0
63,100,0.21818181818181817,558,0,52,DL_Guitar,6,3,umon_kokounohito_ruriko,0.4262988269329071,0
58,100,0.12272727272727273,796,1,53,DL_Guitar,6,2,umon_kokounohito_ruriko,0.9928106665611267,0
58,100,0.2,681,1,55,DL_Guitar,6,3,umon_kokounohito_ruriko,0.9929516911506653,0
58,100,0.2772727272727273,8,1,56,DL_Guitar,6,4,umon_kokounohito_ruriko,0.9995582699775696,1
55,100,0.5409090909090909,603,1,56,DL_Guitar,6,9,umon_kokounohito_ruriko,0.5557987689971924,0
55,100,0.18181818181818182,4,1,57,DL_Guitar,6,3,umon_kokounohito_ruriko,0.9998414516448975,1
55,100,0.11818181818181818,413,1,57,DL_Guitar,6,2,umon_kokounohito_ruriko,0.33581599593162537,0
63,100,0.11818181818181818,703,1,57,DL_Guitar,6,2,umon_kokounohito_ruriko,0.2961902618408203,0
63,100,0.3409090909090909,778,0,57,DL_Guitar,6,5,umon_kokounohito_ruriko,0.3059183955192566,0
58,100,0.2,153,1,58,DL_Guitar,6,3,umon_kokounohito_ruriko,0.9998437166213989,1
53,100,0.38181818181818183,431,1,58,DL_Guitar,6,6,umon_kokounohito_ruriko,0.3391968607902527,0
65,100,0.11818181818181818,528,0,58,DL_Guitar,6,2,umon_kokounohito_ruriko,0.29812559485435486,0
58,100,0.2409090909090909,576,0,58,DL_Guitar,6,4,umon_kokounohito_ruriko,0.29787540435791016,0
63,100,0.1,483,1,59,DL_Guitar,6,2,umon_kokounohito_ruriko,0.9933417439460754,0
58,100,0.3,801,1,60,DL_Guitar,6,5,umon_kokounohito_ruriko,0.9995799660682678,1
53,100,0.17727272727272728,875,0,60,DL_Guitar,6,3,umon_kokounohito_ruriko,0.5691547393798828,0
53,100,0.18181818181818182,298,1,63,DL_Guitar,6,3,umon_kokounohito_ruriko,0.9996497631072998,1
53,100,0.18181818181818182,373,0,63,DL_Guitar,6,3,umon_kokounohito_ruriko,0.5476471185684204,0
53,100,0.1409090909090909,163,1,64,DL_Guitar,6,2,umon_kokounohito_ruriko,0.9933684468269348,0
53,100,0.17727272727272728,612,1,65,DL_Guitar,6,3,umon_kokounohito_ruriko,0.9996515512466431,1
53,100,0.2,826,0,65,DL_Guitar,6,3,umon_kokounohito_ruriko,0.543796956539154,0
53,100,0.2818181818181818,189,1,66,DL_Guitar,6,5,umon_kokounohito_ruriko,0.9998531341552734,1
53,100,0.2772727272727273,392,0,66,DL_Guitar,6,4,umon_kokounohito_ruriko,0.3144022822380066,0
53,100,0.5409090909090909,466,0,66,DL_Guitar,6,9,umon_kokounohito_ruriko,0.2934894859790802,0
55,100,0.11818181818181818,747,1,66,DL_Guitar,6,2,umon_kokounohito_ruriko,0.30624714493751526,0
53,100,0.17727272727272728,184,1,67,DL_Guitar,6,3,umon_kokounohito_ruriko,0.9996474981307983,1
56,100,0.2,536,1,67,DL_Guitar,6,3,umon_kokounohito_ruriko,0.5432700514793396,0
58,100,0.1409090909090909,629,1,69,DL_Guitar,6,2,umon_kokounohito_ruriko,0.9995884299278259,1
58,100,0.2818181818181818,663,0,69,DL_Guitar,6,5,umon_kokounohito_ruriko,0.5500431060791016,0
53,100,0.18181818181818182,422,1,70,DL_Guitar,6,3,umon_kokounohito_ruriko,0.999854326248169,1
58,100,0.1590909090909091,546,0,70,DL_Guitar,6,3,umon_kokounohito_ruriko,0.30468764901161194,0
58,100,0.1590909090909091,585,0,70,DL_Guitar,6,3,umon_kokounohito_ruriko,0.294881671667099,0
53,100,0.12272727272727273,619,0,70,DL_Guitar,6,2,umon_kokounohito_ruriko,0.3262242376804352,0
58,100,0.3409090909090909,462,1,71,DL_Guitar,6,5,umon_kokounohito_ruriko,0.9995614886283875,1
58,100,0.4772727272727273,743,1,71,DL_Guitar,6,8,umon_kokounohito_ruriko,0.5523092150688171,0
53,100,0.1409090909090909,0,1,72,DL_Guitar,6,2,umon_kokounohito_ruriko,0.9996225833892822,1
58,100,0.3,792,1,72,DL_Guitar,6,5,umon_kokounohito_ruriko,0.5378538370132446,0
58,100,0.1,13,1,73,DL_Guitar,6,2,umon_kokounohito_ruriko,0.9998294115066528,1
65,100,0.38181818181818183,330,1,73,DL_Guitar,6,6,umon_kokounohito_ruriko,0.2158859521150589,0
65,100,0.1,417,0,73,DL_Guitar,6,2,umon_kokounohito_ruriko,0.2010129690170288,0
65,100,0.12272727272727273,629,0,73,DL_Guitar,6,2,umon_kokounohito_ruriko,0.20672239363193512,0
65,100,0.18181818181818182,770,0,73,DL_Guitar,6,3,umon_kokounohito_ruriko,0.20197542011737823,0
65,100,0.13636363636363635,83,1,74,DL_Guitar,6,2,umon_kokounohito_ruriko,0.999828577041626,1
63,100,0.2818181818181818,597,1,74,DL_Guitar,6,5,umon_kokounohito_ruriko,0.39711183309555054,0
63,100,0.3181818181818182,669,0,74,DL_Guitar,6,5,umon_kokounohito_ruriko,0.43046680092811584,0
58,100,0.2,263,1,75,DL_Guitar,6,3,umon_kokounohito_ruriko,0.9998409748077393,1
62,100,0.2,352,0,75,DL_Guitar,6,3,umon_kokounohito_ruriko,0.3474368155002594,0
53,100,0.2409090909090909,756,1,75,DL_Guitar,6,4,umon_kokounohito_ruriko,0.2945684790611267,0
53,100,0.18181818181818182,813,0,75,DL_Guitar,6,3,umon_kokounohito_ruriko,0.3096274435520172,0
53,100,0.1409090909090909,9,1,76,DL_Guitar,6,2,umon_kokounohito_ruriko,0.9998565912246704,1
53,100,0.1590909090909091,66,0,76,DL_Guitar,6,3,umon_kokounohito_ruriko,0.3238794803619385,0
65,100,0.1,282,0,76,DL_Guitar,6,2,umon_kokounohito_ruriko,0.28257426619529724,0
55,100,0.1,673,1,76,DL_Guitar,6,2,umon_kokounohito_ruriko,0.300179660320282,0
58,100,0.2409090909090909,532,1,77,DL_Guitar,6,4,umon_kokounohito_ruriko,0.9995713829994202,1
58,100,0.21818181818181817,590,0,77,DL_Guitar,6,3,umon_kokounohito_ruriko,0.560844361782074,0
58,100,0.1,83,1,78,DL_Guitar,6,2,umon_kokounohito_ruriko,0.9995788931846619,1
58,100,0.21818181818181817,339,1,78,DL_Guitar,6,3,umon_kokounohito_ruriko,0.5497599244117737,0
58,100,0.13636363636363635,83,1,79,DL_Guitar,6,2,umon_kokounohito_ruriko,0.9995933175086975,1
60,100,0.32272727272727275,519,1,79,DL_Guitar,6,5,umon_kokounohito_ruriko,0.5609388947486877,0
58,100,0.1,3,1,80,DL_Guitar,6,2,umon_kokounohito_ruriko,0.9998005032539368,1
58,100,1.0772727272727274,40,0,80,DL_Guitar,6,15,umon_kokounohito_ruriko,0.38247403502464294,0
58,100,0.1409090909090909,462,1,80,DL_Guitar,6,2,umon_kokounohito_ruriko,0.4692683517932892,0
58,100,0.2818181818181818,839,1,82,DL_Guitar,6,5,umon_kokounohito_ruriko,0.9920405745506287,1
58,100,1.2818181818181817,466,1,84,DL_Guitar,6,15,umon_kokounohito_ruriko,0.990885317325592,0
58,100,0.4409090909090909,817,1,86,DL_Guitar,6,7,umon_kokounohito_ruriko,0.9920378923416138,0
58,100,0.4772727272727273,62,1,87,DL_Guitar,6,8,umon_kokounohito_ruriko,0.9995461106300354,1
58,100,0.2818181818181818,179,0,87,DL_Guitar,6,5,umon_kokounohito_ruriko,0.5616430044174194,0
58,100,1.2363636363636363,853,1,89,DL_Guitar,6,15,umon_kokounohito_ruriko,0.9905849099159241,0
63,100,0.11818181818181818,703,1,90,DL_Guitar,6,2,umon_kokounohito_ruriko,0.9996229410171509,1
58,100,0.2818181818181818,739,0,90,DL_Guitar,6,5,umon_kokounohito_ruriko,0.5434868931770325,0
58,100,0.11818181818181818,43,1,91,DL_Guitar,6,2,umon_kokounohito_ruriko,0.999840259552002,1
58,100,0.32272727272727275,123,0,91,DL_Guitar,6,5,umon_kokounohito_ruriko,0.32237082719802856,0
58,100,0.2409090909090909,356,1,91,DL_Guitar,6,4,umon_kokounohito_ruriko,0.31758952140808105,0
58,100,1.0227272727272727,650,1,91,DL_Guitar,6,15,umon_kokounohito_ruriko,0.30846187472343445,0
58,100,0.4818181818181818,3,1,92,DL_Guitar,6,8,umon_kokounohito_ruriko,0.9998238682746887,1
58,100,0.1590909090909091,373,1,92,DL_Guitar,6,3,umon_kokounohito_ruriko,0.3494655191898346,0
58,100,0.1,440,0,92,DL_Guitar,6,2,umon_kokounohito_ruriko,0.30427494645118713,0
53,100,0.18181818181818182,593,0,92,DL_Guitar,6,3,umon_kokounohito_ruriko,0.32167676091194153,0
53,100,0.18181818181818182,246,1,93,DL_Guitar,6,3,umon_kokounohito_ruriko,0.9933710098266602,0
58,100,0.3409090909090909,22,1,94,DL_Guitar,6,5,umon_kokounohito_ruriko,0.9998254179954529,1
58,100,0.17727272727272728,250,0,94,DL_Guitar,6,3,umon_kokounohito_ruriko,0.35252270102500916,0
58,100,0.5181818181818182,713,1,94,DL_Guitar,6,8,umon_kokounohito_ruriko,0.299651563167572,0
58,100,0.7181818181818181,853,0,94,DL_Guitar,6,11,umon_kokounohito_ruriko,0.31845325231552124,0
56,100,0.5409090909090909,145,1,95,DL_Guitar,6,9,umon_kokounohito_ruriko,0.9998180270195007,1
56,100,0.18181818181818182,267,0,95,DL_Guitar,6,3,umon_kokounohito_ruriko,0.4293845593929291,0
62,100,0.3181818181818182,690,1,95,DL_Guitar,6,5,umon_kokounohito_ruriko,0.42811259627342224,0
63,100,0.2772727272727273,787,1,96,DL_Guitar,6,4,umon_kokounohito_ruriko,0.9929331541061401,0
63,100,0.18181818181818182,862,1,97,DL_Guitar,6,3,umon_kokounohito_ruriko,0.993304431438446,1
60,100,0.33636363636363636,348,1,1,DL_Guitar,6,5,ninjyou,0.999840497970581,1
55,100,0.1409090909090909,431,0,1,DL_Guitar,6,2,ninjyou,0.21236735582351685,0
60,100,0.1,487,0,1,DL_Guitar,6,2,ninjyou,0.2032424956560135,0
52,100,0.2,590,0,1,DL_Guitar,6,3,ninjyou,0.20981648564338684,0
55,100,0.38181818181818183,849,1,1,DL_Guitar,6,6,ninjyou,0.1883833110332489,0
53,100,0.11818181818181818,712,1,3,DL_Guitar,6,2,ninjyou,0.9935125708580017,0
53,100,0.1409090909090909,74,1,4,DL_Guitar,6,2,ninjyou,0.9998371601104736,1
55,100,0.3,114,0,4,DL_Guitar,6,5,ninjyou,0.3932601809501648,0
60,100,0.37727272727272726,678,1,4,DL_Guitar,6,6,ninjyou,0.4312768876552582,0
60,100,0.3181818181818182,220,1,5,DL_Guitar,6,5,ninjyou,0.9998113512992859,1
60,100,0.1409090909090909,311,0,5,DL_Guitar,6,2,ninjyou,0.12961074709892273,0
57,100,0.3,360,0,5,DL_Guitar,6,5,ninjyou,0.1158851906657219,0
55,100,0.2,431,0,5,DL_Guitar,6,3,ninjyou,0.14022120833396912,0
55,100,0.2409090909090909,716,1,5,DL_Guitar,6,4,ninjyou,0.14207357168197632,0
55,100,0.3409090909090909,774,0,5,DL_Guitar,6,5,ninjyou,0.12896372377872467,0
55,100,0.6227272727272727,465,1,6,DL_Guitar,6,10,ninjyou,0.9995920062065125,1
57,100,0.3409090909090909,606,0,6,DL_Guitar,6,5,ninjyou,0.5581406354904175,0
60,100,0.1,40,1,7,DL_Guitar,6,2,ninjyou,0.999853253364563,1
55,100,0.2818181818181818,79,0,7,DL_Guitar,6,5,ninjyou,0.3045707941055298,0
59,100,0.4818181818181818,703,1,7,DL_Guitar,6,8,ninjyou,0.2898406386375427,0
55,100,0.2772727272727273,844,0,7,DL_Guitar,6,4,ninjyou,0.3097413182258606,0
55,100,0.3,333,1,8,DL_Guitar,6,5,ninjyou,0.9998137354850769,1
55,100,0.17727272727272728,470,0,8,DL_Guitar,6,3,ninjyou,0.4284747838973999,0
54,100,0.1,656,0,8,DL_Guitar,6,2,ninjyou,0.4357095956802368,0
60,100,0.1409090909090909,65,1,9,DL_Guitar,6,2,ninjyou,0.9998401403427124,1
60,100,0.2818181818181818,135,0,9,DL_Guitar,6,5,ninjyou,0.4027189314365387,0
57,100,0.3409090909090909,211,0,9,DL_Guitar,6,5,ninjyou,0.4140942096710205,0
60,100,0.2,677,1,10,DL_Guitar,6,3,ninjyou,0.9996424913406372,1
55,100,0.4818181818181818,818,0,10,DL_Guitar,6,8,ninjyou,0.532394528388977,0
54,100,0.2818181818181818,355,1,11,DL_Guitar,6,5,ninjyou,0.9929234981536865,0
55,100,0.3,180,1,12,DL_Guitar,6,5,ninjyou,0.9997512698173523,1
55,100,0.2,250,0,12,DL_Guitar,6,3,ninjyou,0.08412184566259384,0
52,100,0.7181818181818181,360,0,12,DL_Guitar,6,11,ninjyou,0.07352127134799957,0
55,100,0.2818181818181818,527,0,12,DL_Guitar,6,5,ninjyou,0.08193114399909973,0
57,100,0.6,594,0,12,DL_Guitar,6,10,ninjyou,0.09595080465078354,0
52,100,0.3,739,0,12,DL_Guitar,6,5,ninjyou,0.1111675575375557,0
55,100,0.9409090909090909,804,0,12,DL_Guitar,6,15,ninjyou,0.08393757790327072,0
52,100,0.3,140,1,13,DL_Guitar,6,5,ninjyou,0.999843955039978,1
55,100,1.2818181818181817,211,0,13,DL_Guitar,6,15,ninjyou,0.2693255543708801,0
55,100,0.1409090909090909,505,1,13,DL_Guitar,6,2,ninjyou,0.340050607919693,0
60,100,0.1590909090909091,783,1,13,DL_Guitar,6,3,ninjyou,0.31687507033348083,0
54,100,0.21818181818181817,175,1,14,DL_Guitar,6,3,ninjyou,0.9998434782028198,1
62,100,0.1,338,0,14,DL_Guitar,6,2,ninjyou,0.21201205253601074,0
52,100,0.4409090909090909,448,0,14,DL_Guitar,6,7,ninjyou,0.19155576825141907,0
52,100,0.3409090909090909,584,0,14,DL_Guitar,6,5,ninjyou,0.2100152224302292,0
59,100,0.6,663,0,14,DL_Guitar,6,10,ninjyou,0.19269311428070068,0
57,100,0.32272727272727275,409,1,15,DL_Guitar,6,5,ninjyou,0.999617338180542,1
59,100,0.3181818181818182,479,0,15,DL_Guitar,6,5,ninjyou,0.5525901913642883,0
57,100,0.3,656,1,16,DL_Guitar,6,5,ninjyou,0.999619722366333,1
59,100,0.33636363636363636,721,0,16,DL_Guitar,6,5,ninjyou,0.5534157752990723,0
55,100,0.1409090909090909,268,1,17,DL_Guitar,6,2,ninjyou,0.9997968077659607,1
57,100,0.6,343,0,17,DL_Guitar,6,10,ninjyou,0.12013435363769531,0
59,100,0.6,480,0,17,DL_Guitar,6,10,ninjyou,0.1272447109222412,0
62,100,0.4,611,0,17,DL_Guitar,6,6,ninjyou,0.14090126752853394,0
62,100,0.1409090909090909,804,0,17,DL_Guitar,6,2,ninjyou,0.1554740071296692,0
62,100,0.18181818181818182,870,0,17,DL_Guitar,6,3,ninjyou,0.13752949237823486,0
55,100,0.1590909090909091,119,1,18,DL_Guitar,6,3,ninjyou,0.9998347759246826,1
62,100,0.21818181818181817,237,0,18,DL_Guitar,6,3,ninjyou,0.2123195081949234,0
67,100,0.11818181818181818,326,0,18,DL_Guitar,6,2,ninjyou,0.19398312270641327,0
55,100,0.3,356,0,18,DL_Guitar,6,5,ninjyou,0.2075381726026535,0
79,100,0.12272727272727273,422,0,18,DL_Guitar,6,2,ninjyou,0.20884357392787933,0
55,100,0.8409090909090909,540,1,19,DL_Guitar,6,13,ninjyou,0.9918946623802185,0
62,100,0.6636363636363637,223,1,20,DL_Guitar,6,11,ninjyou,0.9997949004173279,1
57,100,0.2772727272727273,413,0,20,DL_Guitar,6,4,ninjyou,0.1314363330602646,0
62,100,0.1409090909090909,474,0,20,DL_Guitar,6,2,ninjyou,0.12525446712970734,0
62,100,0.1409090909090909,686,0,20,DL_Guitar,6,2,ninjyou,0.14367863535881042,0
55,100,0.3,725,0,20,DL_Guitar,6,5,ninjyou,0.138627827167511,0
52,100,0.5409090909090909,814,0,20,DL_Guitar,6,9,ninjyou,0.1349780261516571,0
55,100,0.6409090909090909,57,1,21,DL_Guitar,6,10,ninjyou,0.9996839761734009,1
55,100,0.18181818181818182,289,1,21,DL_Guitar,6,3,ninjyou,0.06296359747648239,0
55,100,0.38181818181818183,333,0,21,DL_Guitar,6,6,ninjyou,0.04755576699972153,0
55,100,0.1409090909090909,426,0,21,DL_Guitar,6,2,ninjyou,0.05343161150813103,0
55,100,0.12272727272727273,466,0,21,DL_Guitar,6,2,ninjyou,0.05498626455664635,0
54,100,0.11818181818181818,756,1,21,DL_Guitar,6,2,ninjyou,0.06189160421490669,0
62,100,0.1,787,0,21,DL_Guitar,6,2,ninjyou,0.06748520582914352,0
54,100,0.2590909090909091,810,0,21,DL_Guitar,6,4,ninjyou,0.0619208887219429,0
55,100,0.3181818181818182,83,1,22,DL_Guitar,6,5,ninjyou,0.9998095631599426,1
55,100,0.4,440,1,22,DL_Guitar,6,6,ninjyou,0.41887128353118896,0
55,100,0.2818181818181818,642,0,22,DL_Guitar,6,5,ninjyou,0.43724334239959717,0
62,100,0.1,21,1,23,DL_Guitar,6,2,ninjyou,0.999815046787262,1
62,100,0.1,237,0,23,DL_Guitar,6,2,ninjyou,0.12689988315105438,0
55,100,0.3409090909090909,330,0,23,DL_Guitar,6,5,ninjyou,0.11631311476230621,0
64,100,0.5772727272727273,426,0,23,DL_Guitar,6,9,ninjyou,0.13923043012619019,0
55,100,0.2409090909090909,752,1,23,DL_Guitar,6,4,ninjyou,0.14123980700969696,0
52,100,0.5,814,0,23,DL_Guitar,6,8,ninjyou,0.13020925223827362,0
62,100,0.2,220,1,24,DL_Guitar,6,3,ninjyou,0.9998549222946167,1
55,100,0.2772727272727273,567,1,24,DL_Guitar,6,4,ninjyou,0.3073159456253052,0
55,100,0.3,642,0,24,DL_Guitar,6,5,ninjyou,0.3002651333808899,0
62,100,0.5227272727272727,796,0,24,DL_Guitar,6,8,ninjyou,0.30806827545166016,0
55,100,0.6,44,1,25,DL_Guitar,6,10,ninjyou,0.9995701909065247,1
62,100,0.32272727272727275,179,0,25,DL_Guitar,6,5,ninjyou,0.5665265917778015,0
64,100,0.2818181818181818,3,1,26,DL_Guitar,6,5,ninjyou,0.9997350573539734,1
52,100,0.3181818181818182,75,0,26,DL_Guitar,6,5,ninjyou,0.055101774632930756,0
55,100,0.5590909090909091,144,0,26,DL_Guitar,6,9,ninjyou,0.04541914537549019,0
55,100,1.1,281,0,26,DL_Guitar,6,15,ninjyou,0.04500460624694824,0
54,100,0.1,540,1,26,DL_Guitar,6,2,ninjyou,0.06315887719392776,0
54,100,0.11818181818181818,602,0,26,DL_Guitar,6,2,ninjyou,0.062071479856967926,0
54,100,0.6409090909090909,691,0,26,DL_Guitar,6,10,ninjyou,0.06514345854520798,0
62,100,0.1409090909090909,862,0,26,DL_Guitar,6,2,ninjyou,0.068705715239048,0
62,100,0.43636363636363634,17,1,27,DL_Guitar,6,7,ninjyou,0.9998321533203125,1
54,100,0.22272727272727272,113,0,27,DL_Guitar,6,4,ninjyou,0.2160934954881668,0
55,100,0.41818181818181815,162,0,27,DL_Guitar,6,7,ninjyou,0.19019754230976105,0
55,100,0.5181818181818182,413,1,27,DL_Guitar,6,8,ninjyou,0.20595867931842804,0
55,100,0.11818181818181818,756,1,27,DL_Guitar,6,2,ninjyou,0.2193136364221573,0
62,100,0.12272727272727273,179,1,28,DL_Guitar,6,2,ninjyou,0.9996045231819153,1
55,100,1.4181818181818182,418,1,28,DL_Guitar,6,15,ninjyou,0.5202425122261047,0
62,100,0.1,285,1,29,DL_Guitar,6,2,ninjyou,0.9998267292976379,1
69,100,0.42272727272727273,532,1,29,DL_Guitar,6,7,ninjyou,0.39245808124542236,0
69,100,0.2590909090909091,633,0,29,DL_Guitar,6,4,ninjyou,0.43820658326148987,0
67,100,1.2181818181818183,66,1,39,DL_Guitar,6,15,ninjyou,0.9997946619987488,1
67,100,0.3,356,1,39,DL_Guitar,6,5,ninjyou,0.2391318678855896,0
67,100,0.7363636363636363,480,0,39,DL_Guitar,6,12,ninjyou,0.19830071926116943,0
67,100,0.8,678,0,39,DL_Guitar,6,13,ninjyou,0.21455779671669006,0
67,100,0.18181818181818182,858,0,39,DL_Guitar,6,3,ninjyou,0.23463545739650726,0
55,100,0.6409090909090909,316,1,40,DL_Guitar,6,10,ninjyou,0.9922187328338623,0
62,100,0.5818181818181818,153,1,41,DL_Guitar,6,9,ninjyou,0.9998428821563721,1
52,100,1.2,286,0,41,DL_Guitar,6,15,ninjyou,0.30175456404685974,0
52,100,0.18181818181818182,619,1,41,DL_Guitar,6,3,ninjyou,0.3288940191268921,0
52,100,0.4818181818181818,664,0,41,DL_Guitar,6,8,ninjyou,0.30914780497550964,0
55,100,0.35909090909090907,343,1,43,DL_Guitar,6,6,ninjyou,0.999809205532074,1
55,100,0.5227272727272727,453,0,43,DL_Guitar,6,8,ninjyou,0.406998872756958,0
62,100,0.5409090909090909,641,0,43,DL_Guitar,6,9,ninjyou,0.4401780962944031,0
57,100,0.1409090909090909,251,1,44,DL_Guitar,6,2,ninjyou,0.999834418296814,1
69,100,0.1409090909090909,453,0,44,DL_Guitar,6,2,ninjyou,0.4005420506000519,0
69,100,0.1,606,0,44,DL_Guitar,6,2,ninjyou,0.42751434445381165,0
59,100,0.12272727272727273,254,1,45,DL_Guitar,6,2,ninjyou,0.999852180480957,1
55,100,0.5181818181818182,303,0,45,DL_Guitar,6,8,ninjyou,0.2906697988510132,0
67,100,0.1590909090909091,440,0,45,DL_Guitar,6,3,ninjyou,0.3101992905139923,0
62,100,0.2409090909090909,641,0,45,DL_Guitar,6,4,ninjyou,0.3126161992549896,0
52,100,1.9181818181818182,383,1,46,DL_Guitar,6,15,ninjyou,0.9902477860450745,0
62,100,0.1409090909090909,21,1,47,DL_Guitar,6,2,ninjyou,0.9998561143875122,1
55,100,0.17727272727272728,348,1,47,DL_Guitar,6,3,ninjyou,0.3061964213848114,0
55,100,1.018181818181818,391,0,47,DL_Guitar,6,15,ninjyou,0.26837942004203796,0
60,100,0.1590909090909091,813,1,47,DL_Guitar,6,3,ninjyou,0.344004362821579,0
62,100,0.23636363636363636,238,1,48,DL_Guitar,6,4,ninjyou,0.9996411800384521,1
62,100,0.4,871,1,48,DL_Guitar,6,6,ninjyou,0.5456036329269409,0
62,100,1.6,101,1,49,DL_Guitar,6,15,ninjyou,0.9997655749320984,1
67,100,0.2590909090909091,453,1,49,DL_Guitar,6,4,ninjyou,0.4779270589351654,0
62,100,0.18181818181818182,791,1,49,DL_Guitar,6,3,ninjyou,0.4457889199256897,0
62,100,1.040909090909091,0,1,50,DL_Guitar,6,15,ninjyou,0.9995483756065369,1
74,100,0.12272727272727273,254,1,50,DL_Guitar,6,2,ninjyou,0.5812565088272095,0
67,100,0.7818181818181819,220,1,76,DL_Guitar,6,13,ninjyou,0.999790608882904,1
67,100,0.32272727272727275,422,0,76,DL_Guitar,6,5,ninjyou,0.4400803744792938,0
67,100,0.4,832,1,76,DL_Guitar,6,6,ninjyou,0.4367500841617584,0
62,100,0.1,43,1,77,DL_Guitar,6,2,ninjyou,0.99981290102005,1
62,100,0.35909090909090907,150,0,77,DL_Guitar,6,6,ninjyou,0.1224420815706253,0
55,100,0.11818181818181818,360,0,77,DL_Guitar,6,2,ninjyou,0.1224634051322937,0
55,100,0.17727272727272728,392,0,77,DL_Guitar,6,3,ninjyou,0.1369970142841339,0
62,100,0.3409090909090909,690,1,77,DL_Guitar,6,5,ninjyou,0.14937151968479156,0
67,100,0.7818181818181819,770,0,77,DL_Guitar,6,13,ninjyou,0.12919911742210388,0
62,100,0.32272727272727275,69,1,78,DL_Guitar,6,5,ninjyou,0.9998481273651123,1
62,100,0.16363636363636364,422,1,78,DL_Guitar,6,3,ninjyou,0.33360856771469116,0
55,100,0.4590909090909091,475,0,78,DL_Guitar,6,7,ninjyou,0.28888341784477234,0
55,100,0.5227272727272727,597,0,78,DL_Guitar,6,8,ninjyou,0.3048047423362732,0
55,100,0.1590909090909091,22,1,79,DL_Guitar,6,3,ninjyou,0.9997991919517517,1
52,100,0.13636363636363635,62,0,79,DL_Guitar,6,2,ninjyou,0.1366095393896103,0
55,100,0.759090909090909,110,0,79,DL_Guitar,6,12,ninjyou,0.10946618020534515,0
55,100,0.5,286,0,79,DL_Guitar,6,8,ninjyou,0.14467056095600128,0
55,100,0.2772727272727273,480,0,79,DL_Guitar,6,4,ninjyou,0.15458866953849792,0
55,100,0.2636363636363636,839,1,79,DL_Guitar,6,4,ninjyou,0.1361846625804901,0
55,100,0.16363636363636364,47,1,80,DL_Guitar,6,3,ninjyou,0.9997872710227966,1
62,100,0.9409090909090909,233,0,80,DL_Guitar,6,15,ninjyou,0.11785020679235458,0
67,100,0.3,453,0,80,DL_Guitar,6,5,ninjyou,0.13091032207012177,0
62,100,0.5181818181818182,523,0,80,DL_Guitar,6,8,ninjyou,0.14007799327373505,0
67,100,0.1409090909090909,660,0,80,DL_Guitar,6,2,ninjyou,0.1531876176595688,0
62,100,0.13636363636363635,810,0,80,DL_Guitar,6,2,ninjyou,0.14096757769584656,0
55,100,0.3181818181818182,40,1,81,DL_Guitar,6,5,ninjyou,0.9998018145561218,1
55,100,0.2772727272727273,470,1,81,DL_Guitar,6,4,ninjyou,0.43023303151130676,0
55,100,1.3590909090909091,590,0,81,DL_Guitar,6,15,ninjyou,0.4132102131843567,0
55,100,0.3,87,1,82,DL_Guitar,6,5,ninjyou,0.9997907280921936,1
62,100,0.5,312,0,82,DL_Guitar,6,8,ninjyou,0.13116751611232758,0
62,100,0.5590909090909091,436,0,82,DL_Guitar,6,9,ninjyou,0.12138395011425018,0
62,100,0.2,722,1,82,DL_Guitar,6,3,ninjyou,0.14755699038505554,0
62,100,0.13636363636363635,810,0,82,DL_Guitar,6,2,ninjyou,0.14529339969158173,0
57,100,0.2409090909090909,839,0,82,DL_Guitar,6,4,ninjyou,0.13054724037647247,0
67,100,0.4818181818181818,13,1,83,DL_Guitar,6,8,ninjyou,0.9998000264167786,1
57,100,1.3227272727272728,386,1,83,DL_Guitar,6,15,ninjyou,0.38916173577308655,0
62,100,0.13636363636363635,787,1,83,DL_Guitar,6,2,ninjyou,0.46965113282203674,0
59,100,0.37727272727272726,83,1,84,DL_Guitar,6,6,ninjyou,0.9998213648796082,1
59,100,0.2590909090909091,303,0,84,DL_Guitar,6,4,ninjyou,0.21474029123783112,0
59,100,0.2772727272727273,404,0,84,DL_Guitar,6,4,ninjyou,0.20608197152614594,0
59,100,0.41818181818181815,502,0,84,DL_Guitar,6,7,ninjyou,0.21050138771533966,0
62,100,0.9,716,0,84,DL_Guitar,6,14,ninjyou,0.20943526923656464,0
55,100,0.17727272727272728,127,1,85,DL_Guitar,6,3,ninjyou,0.9998119473457336,1
57,100,0.2590909090909091,616,1,85,DL_Guitar,6,4,ninjyou,0.41976067423820496,0
57,100,0.17727272727272728,700,0,85,DL_Guitar,6,3,ninjyou,0.4344998896121979,0
55,100,0.5409090909090909,0,1,86,DL_Guitar,6,9,ninjyou,0.9997345805168152,1
67,100,0.2,123,0,86,DL_Guitar,6,3,ninjyou,0.088134765625,0
67,100,0.8363636363636363,172,0,86,DL_Guitar,6,13,ninjyou,0.07297959178686142,0
55,100,0.1409090909090909,377,0,86,DL_Guitar,6,2,ninjyou,0.09342459589242935,0
55,100,1.6181818181818182,449,0,86,DL_Guitar,6,15,ninjyou,0.08186811208724976,0
67,100,0.1590909090909091,805,1,86,DL_Guitar,6,3,ninjyou,0.12892413139343262,0
55,100,0.6,853,0,86,DL_Guitar,6,10,ninjyou,0.09297250956296921,0
67,100,0.3,242,1,87,DL_Guitar,6,5,ninjyou,0.999593198299408,1
67,100,0.2590909090909091,475,1,87,DL_Guitar,6,4,ninjyou,0.5587193369865417,0
57,100,0.5818181818181818,220,1,88,DL_Guitar,6,9,ninjyou,0.9995823502540588,1
55,100,0.13636363636363635,612,1,88,DL_Guitar,6,2,ninjyou,0.5626164674758911,0
59,100,0.2590909090909091,106,1,89,DL_Guitar,6,4,ninjyou,0.999823272228241,1
59,100,0.6,176,0,89,DL_Guitar,6,10,ninjyou,0.39107686281204224,0
59,100,0.1590909090909091,320,0,89,DL_Guitar,6,3,ninjyou,0.4442025125026703,1
64,100,0.3409090909090909,79,1,0,_Remastered_Guitar,6,5,yuumoyanonaka,0.9997052550315857,1
66,100,0.2636363636363636,158,0,0,_Remastered_Guitar,6,4,yuumoyanonaka,0.04199100285768509,0
69,100,0.23636363636363636,238,0,0,_Remastered_Guitar,6,4,yuumoyanonaka,0.032886359840631485,0
73,100,0.22272727272727272,299,0,0,_Remastered_Guitar,6,4,yuumoyanonaka,0.03090428188443184,0
71,100,0.22272727272727272,356,0,0,_Remastered_Guitar,6,4,yuumoyanonaka,0.03111676499247551,0
73,100,0.6363636363636364,414,0,0,_Remastered_Guitar,6,10,yuumoyanonaka,0.0332254134118557,0
71,100,0.8227272727272728,563,0,0,_Remastered_Guitar,6,13,yuumoyanonaka,0.04045351594686508,0
71,100,0.1,757,0,0,_Remastered_Guitar,6,2,yuumoyanonaka,0.05918833985924721,0
73,100,1.018181818181818,792,0,0,_Remastered_Guitar,6,15,yuumoyanonaka,0.04474498704075813,0
71,100,1.0818181818181818,157,1,1,_Remastered_Guitar,6,15,yuumoyanonaka,0.9996421337127686,1
69,100,0.2590909090909091,414,1,1,_Remastered_Guitar,6,4,yuumoyanonaka,0.04893658310174942,0
71,100,0.41818181818181815,470,0,1,_Remastered_Guitar,6,7,yuumoyanonaka,0.03396120294928551,0
72,100,0.1,563,0,1,_Remastered_Guitar,6,2,yuumoyanonaka,0.032875414937734604,0
73,100,0.35909090909090907,585,0,1,_Remastered_Guitar,6,6,yuumoyanonaka,0.031162826344370842,0
71,100,0.17727272727272728,669,0,1,_Remastered_Guitar,6,3,yuumoyanonaka,0.03703847527503967,0
73,100,0.1,707,0,1,_Remastered_Guitar,6,2,yuumoyanonaka,0.0433250293135643,0
71,100,0.2590909090909091,744,0,1,_Remastered_Guitar,6,4,yuumoyanonaka,0.05117269977927208,0
69,100,0.5227272727272727,817,0,1,_Remastered_Guitar,6,8,yuumoyanonaka,0.04622309282422066,0
66,100,2.359090909090909,61,1,2,_Remastered_Guitar,6,15,yuumoyanonaka,0.9997738003730774,1
64,100,0.2772727272727273,590,1,2,_Remastered_Guitar,6,4,yuumoyanonaka,0.2848995625972748,0
66,100,0.2590909090909091,660,0,2,_Remastered_Guitar,6,4,yuumoyanonaka,0.2035616934299469,0
71,100,0.18181818181818182,726,0,2,_Remastered_Guitar,6,3,yuumoyanonaka,0.2174159437417984,0
73,100,0.6227272727272727,782,0,2,_Remastered_Guitar,6,10,yuumoyanonaka,0.20876151323318481,0
71,100,1.040909090909091,43,1,3,_Remastered_Guitar,6,15,yuumoyanonaka,0.9998019337654114,1
73,100,0.9636363636363636,290,1,3,_Remastered_Guitar,6,15,yuumoyanonaka,0.23064716160297394,0
71,100,0.5181818181818182,528,1,3,_Remastered_Guitar,6,8,yuumoyanonaka,0.23631563782691956,0
69,100,0.5409090909090909,651,0,3,_Remastered_Guitar,6,9,yuumoyanonaka,0.23608972132205963,0
69,100,4.463636363636364,796,0,3,_Remastered_Guitar,6,15,yuumoyanonaka,0.20067095756530762,0
69,100,1.4181818181818182,30,1,5,_Remastered_Guitar,6,15,yuumoyanonaka,0.9994935989379883,1
69,100,0.1,399,1,5,_Remastered_Guitar,6,2,yuumoyanonaka,0.5866943597793579,0
66,100,0.16363636363636364,839,1,50,_Remastered_Guitar,6,3,yuumoyanonaka,0.9931057095527649,0
64,100,0.36363636363636365,4,1,51,_Remastered_Guitar,6,6,yuumoyanonaka,0.9996587038040161,1
66,100,0.23636363636363636,83,0,51,_Remastered_Guitar,6,4,yuumoyanonaka,0.03170957416296005,0
69,100,0.32272727272727275,136,0,51,_Remastered_Guitar,6,5,yuumoyanonaka,0.02120465599000454,0
73,100,0.2772727272727273,206,0,51,_Remastered_Guitar,6,4,yuumoyanonaka,0.017177386209368706,0
71,100,0.2,268,0,51,_Remastered_Guitar,6,3,yuumoyanonaka,0.013912541791796684,0
73,100,0.35909090909090907,330,0,51,_Remastered_Guitar,6,6,yuumoyanonaka,0.013075743801891804,0
69,100,0.2590909090909091,408,0,51,_Remastered_Guitar,6,4,yuumoyanonaka,0.013978511095046997,0
71,100,0.2818181818181818,466,0,51,_Remastered_Guitar,6,5,yuumoyanonaka,0.017771072685718536,0
73,100,0.3181818181818182,528,0,51,_Remastered_Guitar,6,5,yuumoyanonaka,0.02301895245909691,0
71,100,0.18181818181818182,664,0,51,_Remastered_Guitar,6,3,yuumoyanonaka,0.03375473618507385,0
73,100,0.9363636363636364,721,0,51,_Remastered_Guitar,6,15,yuumoyanonaka,0.033499687910079956,0
72,100,0.12272727272727273,48,1,52,_Remastered_Guitar,6,2,yuumoyanonaka,0.9998297691345215,1
71,100,0.5409090909090909,75,0,52,_Remastered_Guitar,6,9,yuumoyanonaka,0.40550801157951355,0
69,100,5.636363636363637,193,0,52,_Remastered_Guitar,6,15,yuumoyanonaka,0.39246806502342224,0
57,100,0.3409090909090909,751,1,60,_Remastered_Guitar,6,5,yuumoyanonaka,0.9996116757392883,1
54,100,0.2,836,0,60,_Remastered_Guitar,6,3,yuumoyanonaka,0.5533472299575806,0
71,100,0.22272727272727272,4,1,61,_Remastered_Guitar,6,4,yuumoyanonaka,0.9997162222862244,1
73,100,0.6181818181818182,61,0,61,_Remastered_Guitar,6,10,yuumoyanonaka,0.0543176643550396,0
71,100,0.3409090909090909,201,0,61,_Remastered_Guitar,6,5,yuumoyanonaka,0.05138591676950455,0
73,100,0.41818181818181815,281,0,61,_Remastered_Guitar,6,7,yuumoyanonaka,0.049142688512802124,0
71,100,0.21818181818181817,391,0,61,_Remastered_Guitar,6,3,yuumoyanonaka,0.057900164276361465,0
73,100,0.9590909090909091,453,0,61,_Remastered_Guitar,6,15,yuumoyanonaka,0.059854451566934586,0
71,100,0.5,691,1,61,_Remastered_Guitar,6,8,yuumoyanonaka,0.07912129908800125,0
69,100,1.5,804,0,61,_Remastered_Guitar,6,15,yuumoyanonaka,0.06261619925498962,0
69,100,2.640909090909091,295,1,62,_Remastered_Guitar,6,15,yuumoyanonaka,0.9896785020828247,0
69,100,0.3409090909090909,114,1,63,_Remastered_Guitar,6,5,yuumoyanonaka,0.9928722381591797,0
64,100,0.3409090909090909,56,1,97,_Remastered_Guitar,6,5,yuumoyanonaka,0.9996901750564575,1
66,100,0.2590909090909091,132,0,97,_Remastered_Guitar,6,4,yuumoyanonaka,0.03525640815496445,0
69,100,0.2590909090909091,197,0,97,_Remastered_Guitar,6,4,yuumoyanonaka,0.02545318193733692,0
73,100,0.2818181818181818,263,0,97,_Remastered_Guitar,6,5,yuumoyanonaka,0.021656818687915802,0
71,100,0.21818181818181817,330,0,97,_Remastered_Guitar,6,3,yuumoyanonaka,0.02027222327888012,0
73,100,0.6181818181818182,396,0,97,_Remastered_Guitar,6,10,yuumoyanonaka,0.019184129312634468,0
71,100,0.4409090909090909,536,0,97,_Remastered_Guitar,6,7,yuumoyanonaka,0.024306520819664,0
71,100,0.3181818181818182,646,0,97,_Remastered_Guitar,6,5,yuumoyanonaka,0.031605083495378494,0
71,100,0.1409090909090909,726,0,97,_Remastered_Guitar,6,2,yuumoyanonaka,0.04098954051733017,0
73,100,1.0,770,0,97,_Remastered_Guitar,6,15,yuumoyanonaka,0.037129759788513184,0
71,100,0.6409090909090909,136,1,98,_Remastered_Guitar,6,10,yuumoyanonaka,0.9996485710144043,1
73,100,0.2590909090909091,282,0,98,_Remastered_Guitar,6,4,yuumoyanonaka,0.03841819614171982,0
71,100,0.1,343,0,98,_Remastered_Guitar,6,2,yuumoyanonaka,0.02694779820740223,0
69,100,0.2636363636363636,377,0,98,_Remastered_Guitar,6,4,yuumoyanonaka,0.021651776507496834,0
71,100,0.5,436,0,98,_Remastered_Guitar,6,8,yuumoyanonaka,0.01933775097131729,0
73,100,0.35909090909090907,559,0,98,_Remastered_Guitar,6,6,yuumoyanonaka,0.02089730091392994,0
71,100,0.1409090909090909,646,0,98,_Remastered_Guitar,6,2,yuumoyanonaka,0.025105072185397148,0
73,100,0.1409090909090909,682,0,98,_Remastered_Guitar,6,2,yuumoyanonaka,0.03191386163234711,0
71,100,0.2409090909090909,716,0,98,_Remastered_Guitar,6,4,yuumoyanonaka,0.038908060640096664,0
69,100,0.6,779,0,98,_Remastered_Guitar,6,10,yuumoyanonaka,0.0377882644534111,0
66,100,1.559090909090909,35,1,99,_Remastered_Guitar,6,15,yuumoyanonaka,0.9997438788414001,1
66,100,0.7181818181818181,396,1,99,_Remastered_Guitar,6,11,yuumoyanonaka,0.14633218944072723,0
64,100,0.3,563,0,99,_Remastered_Guitar,6,5,yuumoyanonaka,0.13552448153495789,0
66,100,0.2,650,0,99,_Remastered_Guitar,6,3,yuumoyanonaka,0.1443321406841278,0
71,100,0.17727272727272728,700,0,99,_Remastered_Guitar,6,3,yuumoyanonaka,0.15278421342372894,0
73,100,0.6409090909090909,752,0,99,_Remastered_Guitar,6,10,yuumoyanonaka,0.1394629031419754,0
71,100,0.5818181818181818,22,1,100,_Remastered_Guitar,6,9,yuumoyanonaka,0.9997875094413757,1
71,100,0.1590909090909091,220,0,100,_Remastered_Guitar,6,3,yuumoyanonaka,0.15081721544265747,0
73,100,1.0818181818181818,267,0,100,_Remastered_Guitar,6,15,yuumoyanonaka,0.12297473102807999,0
71,100,0.4590909090909091,514,1,100,_Remastered_Guitar,6,7,yuumoyanonaka,0.1673007309436798,0
69,100,0.5636363636363636,619,0,100,_Remastered_Guitar,6,9,yuumoyanonaka,0.16159683465957642,0
69,100,4.840909090909091,752,0,100,_Remastered_Guitar,6,15,yuumoyanonaka,0.13016632199287415,0
53,100,0.12272727272727273,400,1,0,_Guitar,6,2,watasino,0.9998420476913452,1
60,100,0.1,686,1,0,_Guitar,6,2,watasino,0.4099798798561096,0
60,100,0.6772727272727272,713,0,0,_Guitar,6,11,watasino,0.4116431772708893,0
53,100,0.12272727272727273,597,1,1,_Guitar,6,2,watasino,0.9996523857116699,1
60,100,0.2,651,0,1,_Guitar,6,3,watasino,0.550213098526001,0
60,100,0.12272727272727273,254,1,3,_Guitar,6,2,watasino,0.9998612403869629,1
62,100,0.1590909090909091,387,0,3,_Guitar,6,3,watasino,0.3071599006652832,0
55,100,0.4409090909090909,660,1,3,_Guitar,6,7,watasino,0.2800297141075134,0
55,100,0.1409090909090909,773,0,3,_Guitar,6,2,watasino,0.30864691734313965,0
60,100,1.7772727272727273,228,1,4,_Guitar,6,15,watasino,0.9994169473648071,1
60,100,2.081818181818182,672,1,4,_Guitar,6,15,watasino,0.5615999698638916,0
53,100,0.2636363636363636,289,1,5,_Guitar,6,4,watasino,0.999835729598999,1
65,100,0.11818181818181818,527,1,5,_Guitar,6,2,watasino,0.20510239899158478,0
58,100,0.38181818181818183,585,0,5,_Guitar,6,6,watasino,0.18538013100624084,0
53,100,0.17727272727272728,744,0,5,_Guitar,6,3,watasino,0.23150531947612762,0
53,100,0.2590909090909091,788,0,5,_Guitar,6,4,watasino,0.20388391613960266,0
60,100,0.2409090909090909,554,1,6,_Guitar,6,4,watasino,0.9998394250869751,1
53,100,0.1409090909090909,682,0,6,_Guitar,6,2,watasino,0.41085079312324524,0
53,100,0.7,805,0,6,_Guitar,6,11,watasino,0.4106897711753845,0
53,100,0.3181818181818182,150,1,7,_Guitar,6,5,watasino,0.9998370409011841,1
65,100,0.2818181818181818,224,0,7,_Guitar,6,5,watasino,0.20964303612709045,0
57,100,0.2590909090909091,307,0,7,_Guitar,6,4,watasino,0.18498536944389343,0
60,100,0.1409090909090909,452,0,7,_Guitar,6,2,watasino,0.22110506892204285,0
53,100,0.2,713,1,7,_Guitar,6,3,watasino,0.20022447407245636,0
53,100,0.11818181818181818,8,1,8,_Guitar,6,2,watasino,0.999810516834259,1
60,100,0.1590909090909091,118,0,8,_Guitar,6,3,watasino,0.12494375556707382,0
58,100,0.17727272727272728,194,0,8,_Guitar,6,3,watasino,0.11479230225086212,0
53,100,0.12272727272727273,312,0,8,_Guitar,6,2,watasino,0.1411726027727127,0
60,100,0.2409090909090909,713,1,8,_Guitar,6,4,watasino,0.14166319370269775,0
55,100,0.2590909090909091,787,0,8,_Guitar,6,4,watasino,0.12654435634613037,0
60,100,0.35909090909090907,211,1,9,_Guitar,6,6,watasino,0.9998354911804199,1
60,100,0.12272727272727273,333,0,9,_Guitar,6,2,watasino,0.2158314287662506,0
53,100,0.1590909090909091,558,0,9,_Guitar,6,3,watasino,0.193314328789711,0
53,100,0.1590909090909091,603,0,9,_Guitar,6,3,watasino,0.20671755075454712,0
60,100,0.3181818181818182,756,0,9,_Guitar,6,5,watasino,0.20378272235393524,0
53,100,0.5590909090909091,84,1,10,_Guitar,6,9,watasino,0.9998294115066528,1
53,100,0.3,276,0,10,_Guitar,6,5,watasino,0.21629227697849274,0
53,100,0.1,479,0,10,_Guitar,6,2,watasino,0.20768146216869354,0
69,100,0.2,668,0,10,_Guitar,6,3,watasino,0.20195303857326508,0
69,100,0.6409090909090909,756,0,10,_Guitar,6,10,watasino,0.20364879071712494,0
69,100,0.16363636363636364,202,1,11,_Guitar,6,3,watasino,0.9998341798782349,1
53,100,0.16363636363636364,443,1,11,_Guitar,6,3,watasino,0.22193299233913422,0
60,100,0.2818181818181818,527,0,11,_Guitar,6,5,watasino,0.1913202702999115,0
53,100,0.3181818181818182,594,0,11,_Guitar,6,5,watasino,0.21580682694911957,0
60,100,1.4772727272727273,721,0,11,_Guitar,6,15,watasino,0.19442258775234222,0
53,100,0.18181818181818182,180,1,12,_Guitar,6,3,watasino,0.9998350143432617,1
72,100,0.3,536,1,12,_Guitar,6,5,watasino,0.40376904606819153,0
65,100,0.11818181818181818,634,0,12,_Guitar,6,2,watasino,0.4275662302970886,0
53,100,0.22272727272727272,13,1,13,_Guitar,6,4,watasino,0.9998096823692322,1
53,100,0.12272727272727273,79,0,13,_Guitar,6,2,watasino,0.12471254914999008,0
60,100,0.6,154,0,13,_Guitar,6,10,watasino,0.11280115693807602,0
65,100,0.12272727272727273,453,1,13,_Guitar,6,2,watasino,0.14225465059280396,0
60,100,0.11818181818181818,615,0,13,_Guitar,6,2,watasino,0.1446705460548401,0
53,100,0.13636363636363635,831,0,13,_Guitar,6,2,watasino,0.12660528719425201,0
53,100,0.4590909090909091,166,1,14,_Guitar,6,7,watasino,0.9998331069946289,1
60,100,0.12272727272727273,290,0,14,_Guitar,6,2,watasino,0.22097903490066528,0
60,100,0.1,567,1,14,_Guitar,6,2,watasino,0.19683952629566193,0
60,100,0.11818181818181818,699,0,14,_Guitar,6,2,watasino,0.20751658082008362,0
60,100,0.11818181818181818,766,0,14,_Guitar,6,2,watasino,0.19760960340499878,0
60,100,0.2409090909090909,312,1,15,_Guitar,6,4,watasino,0.9998161196708679,1
60,100,0.1409090909090909,400,0,15,_Guitar,6,2,watasino,0.1264161616563797,0
60,100,0.12272727272727273,496,0,15,_Guitar,6,2,watasino,0.11852321773767471,0
60,100,0.5590909090909091,615,0,15,_Guitar,6,9,watasino,0.1251690536737442,0
53,100,0.1409090909090909,792,0,15,_Guitar,6,2,watasino,0.14297516644001007,0
53,100,0.2590909090909091,857,0,15,_Guitar,6,4,watasino,0.12767331302165985,0
60,100,0.22272727272727272,100,1,16,_Guitar,6,4,watasino,0.9997435212135315,1
60,100,0.18181818181818182,233,0,16,_Guitar,6,3,watasino,0.05425069481134415,0
53,100,0.21818181818181817,281,0,16,_Guitar,6,3,watasino,0.04599757492542267,0
60,100,0.2590909090909091,351,0,16,_Guitar,6,4,watasino,0.04686889424920082,0
60,100,0.41818181818181815,550,0,16,_Guitar,6,7,watasino,0.05177558958530426,0
60,100,0.1409090909090909,673,0,16,_Guitar,6,2,watasino,0.06034405156970024,0
57,100,0.11818181818181818,721,0,16,_Guitar,6,2,watasino,0.06511866301298141,0
60,100,0.35909090909090907,831,0,16,_Guitar,6,6,watasino,0.05788625404238701,0
60,100,0.2409090909090909,119,1,17,_Guitar,6,4,watasino,0.999776303768158,1
65,100,0.18181818181818182,198,0,17,_Guitar,6,3,watasino,0.07920599728822708,0
65,100,0.11818181818181818,264,0,17,_Guitar,6,2,watasino,0.07206809520721436,0
57,100,1.1772727272727272,316,0,17,_Guitar,6,15,watasino,0.06850747019052505,0
57,100,0.2409090909090909,650,1,17,_Guitar,6,4,watasino,0.10193848609924316,0
57,100,0.4409090909090909,739,0,17,_Guitar,6,7,watasino,0.09815432876348495,0
53,100,0.2,858,0,17,_Guitar,6,3,watasino,0.09303761273622513,0
53,100,0.21818181818181817,30,1,18,_Guitar,6,3,watasino,0.9998371601104736,1
58,100,0.4,175,0,18,_Guitar,6,6,watasino,0.19330912828445435,0
58,100,0.38181818181818183,268,0,18,_Guitar,6,6,watasino,0.19514100253582,0
60,100,0.5409090909090909,615,1,18,_Guitar,6,9,watasino,0.22608858346939087,0
60,100,0.21818181818181817,756,0,18,_Guitar,6,3,watasino,0.22103773057460785,0
60,100,0.22272727272727272,233,1,19,_Guitar,6,4,watasino,0.9996447563171387,1
55,100,0.18181818181818182,299,0,19,_Guitar,6,3,watasino,0.5438858866691589,0
55,100,0.11818181818181818,281,1,20,_Guitar,6,2,watasino,0.999835729598999,1
60,100,0.2,378,0,20,_Guitar,6,3,watasino,0.22137171030044556,0
60,100,0.3,430,0,20,_Guitar,6,5,watasino,0.19983835518360138,0
53,100,0.11818181818181818,581,0,20,_Guitar,6,2,watasino,0.20997202396392822,0
58,100,0.7818181818181819,619,0,20,_Guitar,6,13,watasino,0.1899295300245285,0
53,100,0.2409090909090909,44,1,21,_Guitar,6,4,watasino,0.9998075366020203,1
53,100,0.17727272727272728,119,0,21,_Guitar,6,3,watasino,0.12577566504478455,0
60,100,0.6,206,0,21,_Guitar,6,10,watasino,0.11598411947488785,0
58,100,0.3409090909090909,399,0,21,_Guitar,6,5,watasino,0.1284901350736618,0
53,100,0.1590909090909091,546,0,21,_Guitar,6,3,watasino,0.15339389443397522,0
60,100,0.1,646,0,21,_Guitar,6,2,watasino,0.13631002604961395,0
53,100,0.12272727272727273,13,1,22,_Guitar,6,2,watasino,0.9997429251670837,1
60,100,0.41818181818181815,119,0,22,_Guitar,6,7,watasino,0.05349912866950035,0
65,100,0.1590909090909091,241,0,22,_Guitar,6,3,watasino,0.0470891073346138,0
60,100,0.12272727272727273,378,0,22,_Guitar,6,2,watasino,0.046782877296209335,0
60,100,0.2818181818181818,474,0,22,_Guitar,6,5,watasino,0.04805563762784004,0
65,100,0.18181818181818182,650,0,22,_Guitar,6,3,watasino,0.059288498014211655,0
53,100,0.2590909090909091,691,0,22,_Guitar,6,4,watasino,0.06516838073730469,0
53,100,0.4409090909090909,752,0,22,_Guitar,6,7,watasino,0.060610637068748474,0
53,100,0.17727272727272728,96,1,23,_Guitar,6,3,watasino,0.9998334646224976,1
60,100,0.7181818181818181,602,1,23,_Guitar,6,11,watasino,0.3912529945373535,0
57,100,0.2590909090909091,791,0,23,_Guitar,6,4,watasino,0.43220481276512146,0
57,100,0.21818181818181817,9,1,24,_Guitar,6,3,watasino,0.9997969269752502,1
57,100,0.11818181818181818,131,0,24,_Guitar,6,2,watasino,0.13252681493759155,0
57,100,0.2,343,0,24,_Guitar,6,3,watasino,0.12140451371669769,0
60,100,0.11818181818181818,492,0,24,_Guitar,6,2,watasino,0.14458796381950378,0
57,100,0.3,598,0,24,_Guitar,6,5,watasino,0.1378510743379593,0
57,100,0.8636363636363636,796,0,24,_Guitar,6,14,watasino,0.12673614919185638,0
57,100,0.11818181818181818,110,1,25,_Guitar,6,2,watasino,0.9998021721839905,1
62,100,0.2,422,1,25,_Guitar,6,3,watasino,0.1276431530714035,0
53,100,0.2409090909090909,563,0,25,_Guitar,6,4,watasino,0.11638309061527252,0
60,100,0.2818181818181818,663,0,25,_Guitar,6,5,watasino,0.1387876272201538,0
60,100,0.2,787,0,25,_Guitar,6,3,watasino,0.14255277812480927,0
53,100,0.18181818181818182,839,0,25,_Guitar,6,3,watasino,0.1315155029296875,0
53,100,0.22272727272727272,34,1,26,_Guitar,6,4,watasino,0.9998335838317871,1
58,100,0.7181818181818181,229,0,26,_Guitar,6,11,watasino,0.18947862088680267,0
58,100,0.2818181818181818,395,0,26,_Guitar,6,5,watasino,0.22143065929412842,0
58,100,0.1409090909090909,466,0,26,_Guitar,6,2,watasino,0.22738975286483765,0
58,100,0.1,567,0,26,_Guitar,6,2,watasino,0.2113254964351654,0
58,100,0.11818181818181818,0,1,27,_Guitar,6,2,watasino,0.9997976422309875,1
58,100,0.6818181818181818,34,0,27,_Guitar,6,11,watasino,0.40583816170692444,0
58,100,0.7,413,1,27,_Guitar,6,11,watasino,0.4464320242404938,0
55,100,0.37727272727272726,480,1,28,_Guitar,6,6,watasino,0.9995842576026917,1
55,100,0.9,625,0,28,_Guitar,6,14,watasino,0.5403653383255005,0
55,100,0.41818181818181815,154,1,29,_Guitar,6,7,watasino,0.9998372793197632,1
60,100,0.11818181818181818,264,0,29,_Guitar,6,2,watasino,0.3515220880508423,0
65,100,0.13636363636363635,523,1,29,_Guitar,6,2,watasino,0.2905535399913788,0
60,100,0.3409090909090909,773,1,29,_Guitar,6,5,watasino,0.30570363998413086,0
60,100,0.4409090909090909,92,1,30,_Guitar,6,7,watasino,0.9998281002044678,1
60,100,0.33636363636363636,546,1,30,_Guitar,6,5,watasino,0.41307538747787476,0
53,100,0.2590909090909091,673,0,30,_Guitar,6,4,watasino,0.4286869466304779,0
60,100,0.37727272727272726,326,1,31,_Guitar,6,6,watasino,0.9998238682746887,1
60,100,0.759090909090909,449,0,31,_Guitar,6,12,watasino,0.3967294692993164,0
53,100,0.18181818181818182,858,1,31,_Guitar,6,3,watasino,0.44483840465545654,0
58,100,0.2818181818181818,254,1,32,_Guitar,6,5,watasino,0.999747097492218,1
60,100,0.38181818181818183,334,0,32,_Guitar,6,6,watasino,0.08730106055736542,0
58,100,0.17727272727272728,448,0,32,_Guitar,6,3,watasino,0.07028867304325104,0
58,100,0.1409090909090909,493,0,32,_Guitar,6,2,watasino,0.08215048164129257,0
53,100,0.2818181818181818,716,0,32,_Guitar,6,5,watasino,0.09603036940097809,0
60,100,0.1409090909090909,823,0,32,_Guitar,6,2,watasino,0.09981351345777512,0
53,100,0.22272727272727272,871,0,32,_Guitar,6,4,watasino,0.08873018622398376,0
60,100,0.1409090909090909,188,1,33,_Guitar,6,2,watasino,0.9996562004089355,1
60,100,0.2590909090909091,826,1,33,_Guitar,6,4,watasino,0.5438645482063293,0
55,100,0.21818181818181817,215,1,34,_Guitar,6,3,watasino,0.999808132648468,1
60,100,0.6227272727272727,563,1,34,_Guitar,6,10,watasino,0.40972158312797546,0
53,100,0.17727272727272728,721,0,34,_Guitar,6,3,watasino,0.4495241045951843,0
60,100,0.11818181818181818,153,1,35,_Guitar,6,2,watasino,0.999665379524231,1
60,100,0.1590909090909091,810,1,35,_Guitar,6,3,watasino,0.5452269911766052,0
60,100,0.4818181818181818,298,1,36,_Guitar,6,8,watasino,0.9998353719711304,1
53,100,0.1590909090909091,474,0,36,_Guitar,6,3,watasino,0.20538277924060822,0
60,100,0.5227272727272727,554,0,36,_Guitar,6,8,watasino,0.19681739807128906,0
69,100,0.1,703,0,36,_Guitar,6,2,watasino,0.21025201678276062,0
60,100,0.3181818181818182,823,0,36,_Guitar,6,5,watasino,0.20650646090507507,0
60,100,0.17727272727272728,18,1,37,_Guitar,6,3,watasino,0.9998595714569092,1
53,100,0.2409090909090909,286,1,37,_Guitar,6,4,watasino,0.3119189441204071,0
53,100,0.1590909090909091,493,0,37,_Guitar,6,3,watasino,0.2891681492328644,0
60,100,0.1409090909090909,668,0,37,_Guitar,6,2,watasino,0.3018145263195038,0
53,100,0.1590909090909091,21,1,38,_Guitar,6,3,watasino,0.9998443126678467,1
65,100,0.18181818181818182,78,0,38,_Guitar,6,3,watasino,0.20495916903018951,0
53,100,0.1409090909090909,444,1,38,_Guitar,6,2,watasino,0.1918594390153885,0
53,100,0.2590909090909091,716,1,38,_Guitar,6,4,watasino,0.2029956579208374,0
53,100,0.16363636363636364,861,0,38,_Guitar,6,3,watasino,0.2003011703491211,0
53,100,0.2818181818181818,34,1,39,_Guitar,6,5,watasino,0.9998304843902588,1
60,100,0.21818181818181817,131,0,39,_Guitar,6,3,watasino,0.4129992723464966,0
60,100,0.22272727272727272,431,1,39,_Guitar,6,4,watasino,0.4273291528224945,0
60,100,0.3,69,1,40,_Guitar,6,5,watasino,0.9998302459716797,1
58,100,0.1409090909090909,356,1,40,_Guitar,6,2,watasino,0.39879775047302246,0
53,100,0.2409090909090909,708,1,40,_Guitar,6,4,watasino,0.43838968873023987,0
58,100,0.36363636363636365,26,1,41,_Guitar,6,6,watasino,0.9998061060905457,1
58,100,0.35909090909090907,303,1,41,_Guitar,6,6,watasino,0.2123962789773941,0
53,100,0.3181818181818182,506,0,41,_Guitar,6,5,watasino,0.220861554145813,0
60,100,0.11818181818181818,581,0,41,_Guitar,6,2,watasino,0.21970362961292267,0
57,100,0.2409090909090909,735,0,41,_Guitar,6,4,watasino,0.2105930596590042,0
53,100,0.1409090909090909,351,1,43,_Guitar,6,2,watasino,0.9998575448989868,1
53,100,0.17727272727272728,611,1,43,_Guitar,6,3,watasino,0.31806910037994385,0
53,100,0.11818181818181818,770,0,43,_Guitar,6,2,watasino,0.2919824421405792,0
60,100,0.1,826,0,43,_Guitar,6,2,watasino,0.30352938175201416,0
53,100,0.3181818181818182,96,1,44,_Guitar,6,5,watasino,0.9998319149017334,1
60,100,0.3409090909090909,166,0,44,_Guitar,6,5,watasino,0.4085697829723358,0
60,100,0.3409090909090909,444,1,44,_Guitar,6,5,watasino,0.4279538691043854,0
53,100,0.11818181818181818,480,1,45,_Guitar,6,2,watasino,0.993541955947876,0
53,100,0.3181818181818182,88,1,46,_Guitar,6,5,watasino,0.9996285438537598,1
62,100,0.18181818181818182,373,1,46,_Guitar,6,3,watasino,0.555294394493103,0
60,100,0.8,166,1,47,_Guitar,6,13,watasino,0.9923936128616333,0
60,100,0.18181818181818182,254,1,48,_Guitar,6,3,watasino,0.9998592138290405,1
58,100,0.2,418,0,48,_Guitar,6,3,watasino,0.2977790832519531,0
58,100,0.18181818181818182,509,0,48,_Guitar,6,3,watasino,0.29796069860458374,0
65,100,0.4,694,0,48,_Guitar,6,6,watasino,0.3121272921562195,0
60,100,0.3409090909090909,53,1,49,_Guitar,6,5,watasino,0.9996044039726257,1
57,100,0.9590909090909091,633,1,49,_Guitar,6,15,watasino,0.5361984968185425,0
60,100,0.3409090909090909,91,1,50,_Guitar,6,5,watasino,0.9997997879981995,1
57,100,1.1818181818181819,188,0,50,_Guitar,6,15,watasino,0.10836302489042282,0
57,100,0.2818181818181818,453,1,50,_Guitar,6,5,watasino,0.13981667160987854,0
57,100,0.18181818181818182,528,0,50,_Guitar,6,3,watasino,0.14273282885551453,0
57,100,0.5772727272727273,590,0,50,_Guitar,6,9,watasino,0.14383567869663239,0
60,100,0.6,721,0,50,_Guitar,6,10,watasino,0.14527110755443573,0
60,100,0.1409090909090909,246,1,51,_Guitar,6,2,watasino,0.9998170733451843,1
60,100,0.2409090909090909,334,0,51,_Guitar,6,4,watasino,0.12755483388900757,0
53,100,0.4590909090909091,396,0,51,_Guitar,6,7,watasino,0.11705464869737625,0
65,100,0.1409090909090909,496,0,51,_Guitar,6,2,watasino,0.14479511976242065,0
60,100,1.2636363636363637,531,0,51,_Guitar,6,15,watasino,0.1283479481935501,0
57,100,0.8,853,1,51,_Guitar,6,13,watasino,0.13968464732170105,0
65,100,0.7181818181818181,458,1,52,_Guitar,6,11,watasino,0.9995631575584412,1
62,100,0.7818181818181819,651,0,52,_Guitar,6,13,watasino,0.5591802000999451,0
57,100,0.16363636363636364,48,1,53,_Guitar,6,3,watasino,0.9998512268066406,1
60,100,0.5,268,0,53,_Guitar,6,8,watasino,0.31277745962142944,0
60,100,0.2590909090909091,523,1,53,_Guitar,6,4,watasino,0.2981904447078705,0
53,100,0.1590909090909091,655,0,53,_Guitar,6,3,watasino,0.30660584568977356,0
53,100,0.1590909090909091,43,1,54,_Guitar,6,3,watasino,0.9998307228088379,1
58,100,0.6,179,0,54,_Guitar,6,10,watasino,0.3750035762786865,0
53,100,0.2,515,1,54,_Guitar,6,3,watasino,0.4539497494697571,0
53,100,0.1409090909090909,75,1,55,_Guitar,6,2,watasino,0.9997714161872864,1
53,100,0.35909090909090907,110,0,55,_Guitar,6,6,watasino,0.07628728449344635,0
53,100,0.3181818181818182,206,0,55,_Guitar,6,5,watasino,0.07371515035629272,0
60,100,0.3181818181818182,281,0,55,_Guitar,6,5,watasino,0.07923265546560287,0
60,100,0.5181818181818182,506,0,55,_Guitar,6,8,watasino,0.08968469500541687,0
60,100,0.3181818181818182,713,0,55,_Guitar,6,5,watasino,0.09962485730648041,0
60,100,0.3181818181818182,831,0,55,_Guitar,6,5,watasino,0.08519353717565536,0
62,100,0.21818181818181817,176,1,56,_Guitar,6,3,watasino,0.999803364276886,1
60,100,0.6772727272727272,281,0,56,_Guitar,6,11,watasino,0.12291836738586426,0
53,100,0.21818181818181817,448,0,56,_Guitar,6,3,watasino,0.12877795100212097,0
65,100,0.22272727272727272,509,0,56,_Guitar,6,4,watasino,0.140237495303154,0
57,100,0.2772727272727273,590,0,56,_Guitar,6,4,watasino,0.1400662362575531,0
60,100,0.9818181818181818,703,0,56,_Guitar,6,15,watasino,0.12865333259105682,0
60,100,0.6,118,1,57,_Guitar,6,10,watasino,0.999822199344635,1
65,100,0.5590909090909091,471,1,57,_Guitar,6,9,watasino,0.20227088034152985,0
58,100,0.33636363636363636,655,0,57,_Guitar,6,5,watasino,0.19975166022777557,0
60,100,0.1590909090909091,765,0,57,_Guitar,6,3,watasino,0.23321180045604706,0
53,100,0.3181818181818182,810,0,57,_Guitar,6,5,watasino,0.207758367061615,0
60,100,0.2818181818181818,4,1,58,_Guitar,6,5,watasino,0.999835729598999,1
53,100,0.4818181818181818,78,0,58,_Guitar,6,8,watasino,0.2059580385684967,0
53,100,0.13636363636363635,215,0,58,_Guitar,6,2,watasino,0.19645777344703674,0
53,100,0.12272727272727273,298,0,58,_Guitar,6,2,watasino,0.21021488308906555,0
60,100,0.18181818181818182,378,0,58,_Guitar,6,3,watasino,0.2045738846063614,0
60,100,0.9181818181818182,105,1,59,_Guitar,6,15,watasino,0.999816358089447,1
55,100,0.1,361,1,59,_Guitar,6,2,watasino,0.22702042758464813,0
60,100,0.22272727272727272,619,1,59,_Guitar,6,4,watasino,0.20704534649848938,0
60,100,0.1409090909090909,694,0,59,_Guitar,6,2,watasino,0.2143629789352417,0
60,100,0.8,748,0,59,_Guitar,6,13,watasino,0.20018143951892853,0
53,100,0.2,43,1,60,_Guitar,6,3,watasino,0.9998528957366943,1
60,100,0.5409090909090909,141,0,60,_Guitar,6,9,watasino,0.30115288496017456,0
60,100,1.3590909090909091,308,0,60,_Guitar,6,15,watasino,0.274763286113739,0
60,100,0.4409090909090909,726,1,60,_Guitar,6,7,watasino,0.34046584367752075,0
60,100,0.35909090909090907,263,1,61,_Guitar,6,6,watasino,0.9998291730880737,1
62,100,0.35909090909090907,351,0,61,_Guitar,6,6,watasino,0.403816819190979,0
60,100,0.6590909090909091,703,1,61,_Guitar,6,11,watasino,0.4303281009197235,0
60,100,0.6181818181818182,171,1,62,_Guitar,6,10,watasino,0.9998268485069275,1
58,100,0.1590909090909091,405,1,62,_Guitar,6,3,watasino,0.22100308537483215,0
60,100,0.5,461,0,62,_Guitar,6,8,watasino,0.20660041272640228,0
58,100,0.13636363636363635,678,0,62,_Guitar,6,2,watasino,0.20927295088768005,0
60,100,1.0227272727272727,774,0,62,_Guitar,6,15,watasino,0.2095484584569931,0
60,100,0.2818181818181818,289,1,63,_Guitar,6,5,watasino,0.9998534917831421,1
60,100,0.22272727272727272,444,0,63,_Guitar,6,4,watasino,0.3238025903701782,0
58,100,0.5409090909090909,563,0,63,_Guitar,6,9,watasino,0.2651000916957855,0
60,100,0.5,818,1,63,_Guitar,6,8,watasino,0.3322932720184326,0
58,100,0.5227272727272727,430,1,64,_Guitar,6,8,watasino,0.9998024106025696,1
60,100,0.36363636363636365,553,0,64,_Guitar,6,6,watasino,0.44525983929634094,0
60,100,0.1,870,1,64,_Guitar,6,2,watasino,0.4389795660972595,0
57,100,0.3181818181818182,163,1,65,_Guitar,6,5,watasino,0.9998183846473694,1
60,100,0.5227272727272727,629,1,65,_Guitar,6,8,watasino,0.4183685779571533,0
53,100,0.12272727272727273,870,1,65,_Guitar,6,2,watasino,0.43410253524780273,0
60,100,0.1590909090909091,79,1,66,_Guitar,6,3,watasino,0.9998378753662109,1
58,100,0.8,136,0,66,_Guitar,6,13,watasino,0.17717812955379486,0
58,100,0.2409090909090909,316,0,66,_Guitar,6,4,watasino,0.2216317355632782,0
58,100,0.12272727272727273,650,1,66,_Guitar,6,2,watasino,0.22263497114181519,0
65,100,0.2818181818181818,849,0,66,_Guitar,6,5,watasino,0.2223731428384781,0
58,100,0.2,157,1,67,_Guitar,6,3,watasino,0.9997474551200867,1
53,100,0.1409090909090909,286,0,67,_Guitar,6,2,watasino,0.08687255531549454,0
57,100,0.33636363636363636,392,0,67,_Guitar,6,5,watasino,0.07077034562826157,0
53,100,0.3181818181818182,493,0,67,_Guitar,6,5,watasino,0.08510097861289978,0
53,100,0.18181818181818182,585,0,67,_Guitar,6,3,watasino,0.09433502703905106,0
60,100,0.5,650,0,67,_Guitar,6,8,watasino,0.0991763025522232,0
60,100,1.1409090909090909,770,0,67,_Guitar,6,15,watasino,0.08730459213256836,0
60,100,0.1409090909090909,233,1,68,_Guitar,6,2,watasino,0.9998347759246826,1
60,100,0.4772727272727273,392,0,68,_Guitar,6,8,watasino,0.39469122886657715,0
65,100,0.35909090909090907,624,1,68,_Guitar,6,6,watasino,0.4300239086151123,0
60,100,0.35909090909090907,233,1,69,_Guitar,6,6,watasino,0.9997337460517883,1
53,100,0.2409090909090909,399,0,69,_Guitar,6,4,watasino,0.055785130709409714,0
60,100,0.18181818181818182,487,0,69,_Guitar,6,3,watasino,0.04797561094164848,0
60,100,0.12272727272727273,673,0,69,_Guitar,6,2,watasino,0.0472186841070652,0
60,100,0.1590909090909091,713,0,69,_Guitar,6,3,watasino,0.05120832100510597,0
53,100,0.1590909090909091,756,0,69,_Guitar,6,3,watasino,0.05821889638900757,0
53,100,0.12272727272727273,826,0,69,_Guitar,6,2,watasino,0.0643816664814949,0
57,100,0.37727272727272726,853,0,69,_Guitar,6,6,watasino,0.05701866000890732,0
60,100,0.2,166,1,70,_Guitar,6,3,watasino,0.9997760653495789,1
60,100,0.21818181818181817,273,0,70,_Guitar,6,3,watasino,0.077826127409935,0
53,100,0.12272727272727273,356,0,70,_Guitar,6,2,watasino,0.07155501842498779,0
57,100,0.1,550,0,70,_Guitar,6,2,watasino,0.07573623955249786,0
53,100,0.1,633,0,70,_Guitar,6,2,watasino,0.08723892271518707,0
53,100,0.16363636363636364,663,0,70,_Guitar,6,3,watasino,0.09108942747116089,0
60,100,0.2,826,0,70,_Guitar,6,3,watasino,0.08393801748752594,0
53,100,0.2409090909090909,35,1,71,_Guitar,6,4,watasino,0.9998090863227844,1
58,100,0.1,184,0,71,_Guitar,6,2,watasino,0.12241539359092712,0
58,100,1.0227272727272727,210,0,71,_Guitar,6,15,watasino,0.11152598261833191,0
60,100,0.2590909090909091,519,1,71,_Guitar,6,4,watasino,0.15768910944461823,0
60,100,0.3,734,0,71,_Guitar,6,5,watasino,0.15078824758529663,0
60,100,0.8181818181818182,844,0,71,_Guitar,6,13,watasino,0.1323348730802536,0
60,100,0.12272727272727273,157,1,72,_Guitar,6,2,watasino,0.9998621940612793,1
53,100,0.12272727272727273,276,0,72,_Guitar,6,2,watasino,0.30763253569602966,0
53,100,0.12272727272727273,399,0,72,_Guitar,6,2,watasino,0.28787344694137573,0
65,100,0.3,426,0,72,_Guitar,6,5,watasino,0.30164334177970886,0
53,100,0.2590909090909091,210,1,73,_Guitar,6,4,watasino,0.9998601675033569,1
60,100,0.21818181818181817,303,0,73,_Guitar,6,3,watasino,0.309212327003479,0
53,100,0.18181818181818182,487,0,73,_Guitar,6,3,watasino,0.29196611046791077,0
55,100,0.37727272727272726,832,1,73,_Guitar,6,6,watasino,0.2943127751350403,0
60,100,0.4590909090909091,56,1,74,_Guitar,6,7,watasino,0.9996416568756104,1
64,100,0.17727272727272728,392,1,74,_Guitar,6,3,watasino,0.5508003830909729,0
60,100,0.4772727272727273,40,1,75,_Guitar,6,8,watasino,0.9998373985290527,1
60,100,0.9590909090909091,299,1,75,_Guitar,6,15,watasino,0.3169087767601013,0
53,100,0.1409090909090909,550,1,75,_Guitar,6,2,watasino,0.32177048921585083,0
60,100,1.6409090909090909,682,0,75,_Guitar,6,15,watasino,0.29140618443489075,0
65,100,0.21818181818181817,787,1,76,_Guitar,6,3,watasino,0.9933288097381592,0
60,100,0.8590909090909091,96,1,77,_Guitar,6,14,watasino,0.9998396635055542,1
53,100,0.12272727272727273,443,1,77,_Guitar,6,2,watasino,0.36952149868011475,0
58,100,0.13636363636363635,480,0,77,_Guitar,6,2,watasino,0.2928842008113861,0
58,100,1.3590909090909091,563,0,77,_Guitar,6,15,watasino,0.29011958837509155,0
58,100,0.1409090909090909,22,1,78,_Guitar,6,2,watasino,0.999823272228241,1
55,100,0.1,263,1,78,_Guitar,6,2,watasino,0.2322562038898468,0
55,100,0.1,289,0,78,_Guitar,6,2,watasino,0.20633381605148315,0
60,100,0.5590909090909091,493,0,78,_Guitar,6,9,watasino,0.21792817115783691,0
60,100,2.2590909090909093,677,0,78,_Guitar,6,15,watasino,0.1937919557094574,0
60,100,0.8636363636363636,356,1,79,_Guitar,6,14,watasino,0.9924556016921997,0
60,100,0.1,123,1,80,_Guitar,6,2,watasino,0.9935736060142517,0
60,100,0.38181818181818183,386,1,81,_Guitar,6,6,watasino,0.9998338222503662,1
60,100,0.5227272727272727,519,0,81,_Guitar,6,8,watasino,0.39797496795654297,0
60,100,0.6772727272727272,669,0,81,_Guitar,6,11,watasino,0.426683247089386,0
60,100,0.9409090909090909,3,1,82,_Guitar,6,15,watasino,0.9998160004615784,1
65,100,0.11818181818181818,373,1,82,_Guitar,6,2,watasino,0.23513764142990112,0
65,100,0.17727272727272728,413,0,82,_Guitar,6,3,watasino,0.200017049908638,0
62,100,0.5,493,0,82,_Guitar,6,8,watasino,0.2057855874300003,0
60,100,1.1818181818181819,637,0,82,_Guitar,6,15,watasino,0.20297054946422577,0
53,100,0.2,26,1,83,_Guitar,6,3,watasino,0.9998354911804199,1
60,100,0.8409090909090909,229,0,83,_Guitar,6,13,watasino,0.19782662391662598,0
53,100,0.1,466,1,83,_Guitar,6,2,watasino,0.2176053524017334,0
53,100,0.22272727272727272,716,1,83,_Guitar,6,4,watasino,0.20570853352546692,0
60,100,0.35909090909090907,783,0,83,_Guitar,6,6,watasino,0.19933417439460754,0
58,100,0.13636363636363635,40,1,84,_Guitar,6,2,watasino,0.999817430973053,1
60,100,0.2409090909090909,189,0,84,_Guitar,6,4,watasino,0.22954635322093964,0
53,100,0.11818181818181818,326,0,84,_Guitar,6,2,watasino,0.1986244171857834,0
60,100,0.9409090909090909,466,0,84,_Guitar,6,15,watasino,0.20288865268230438,0
60,100,0.6,677,0,84,_Guitar,6,10,watasino,0.2149946689605713,0
65,100,0.1,3,1,85,_Guitar,6,2,watasino,0.999739944934845,1
65,100,0.17727272727272728,30,0,85,_Guitar,6,3,watasino,0.05505555123090744,0
58,100,0.1,184,0,85,_Guitar,6,2,watasino,0.0451887771487236,0
62,100,0.2409090909090909,220,0,85,_Guitar,6,4,watasino,0.04896771162748337,0
58,100,0.6181818181818182,370,0,85,_Guitar,6,10,watasino,0.04773559793829918,0
58,100,0.5636363636363636,509,0,85,_Guitar,6,9,watasino,0.06317532807588577,0
64,100,0.22272727272727272,642,0,85,_Guitar,6,4,watasino,0.07814215123653412,0
60,100,0.5818181818181818,695,0,85,_Guitar,6,9,watasino,0.06168060749769211,0
65,100,0.21818181818181817,176,1,86,_Guitar,6,3,watasino,0.999850869178772,1
53,100,0.35909090909090907,237,0,86,_Guitar,6,6,watasino,0.3186061680316925,0
60,100,0.6181818181818182,373,0,86,_Guitar,6,10,watasino,0.2859032452106476,0
60,100,0.18181818181818182,839,1,86,_Guitar,6,3,watasino,0.31589654088020325,0
64,100,0.35909090909090907,386,1,87,_Guitar,6,6,watasino,0.9998601675033569,1
60,100,0.17727272727272728,493,0,87,_Guitar,6,3,watasino,0.3185015916824341,0
57,100,0.1590909090909091,612,0,87,_Guitar,6,3,watasino,0.28103843331336975,0
60,100,0.2818181818181818,686,0,87,_Guitar,6,5,watasino,0.3050410747528076,0
53,100,0.2,66,1,88,_Guitar,6,3,watasino,0.9997755885124207,1
65,100,0.2,189,0,88,_Guitar,6,3,watasino,0.07562503218650818,0
53,100,0.37727272727272726,347,0,88,_Guitar,6,6,watasino,0.06962905079126358,0
65,100,0.1409090909090909,430,0,88,_Guitar,6,2,watasino,0.0799889862537384,0
65,100,0.3,637,0,88,_Guitar,6,5,watasino,0.08608555793762207,0
60,100,0.21818181818181817,703,0,88,_Guitar,6,3,watasino,0.09392086416482925,0
53,100,0.11818181818181818,766,0,88,_Guitar,6,2,watasino,0.08513777703046799,0
60,100,0.17727272727272728,40,1,89,_Guitar,6,3,watasino,0.9998038411140442,1
65,100,0.4,92,0,89,_Guitar,6,6,watasino,0.12102806568145752,0
60,100,0.4772727272727273,193,0,89,_Guitar,6,8,watasino,0.12080218642950058,0
58,100,0.1590909090909091,303,0,89,_Guitar,6,3,watasino,0.12931004166603088,0
60,100,0.2409090909090909,409,0,89,_Guitar,6,4,watasino,0.1555033177137375,0
64,100,0.11818181818181818,677,1,89,_Guitar,6,2,watasino,0.13769224286079407,0
65,100,0.22272727272727272,56,1,90,_Guitar,6,4,watasino,0.9997099041938782,1
53,100,0.5,294,1,90,_Guitar,6,8,watasino,0.04125429317355156,0
65,100,0.3181818181818182,404,0,90,_Guitar,6,5,watasino,0.03318893164396286,0
65,100,0.2409090909090909,483,0,90,_Guitar,6,4,watasino,0.029897591099143028,0
77,100,0.11818181818181818,550,0,90,_Guitar,6,2,watasino,0.029992515221238136,0
60,100,0.2409090909090909,593,0,90,_Guitar,6,4,watasino,0.03176118806004524,0
60,100,0.1,686,0,90,_Guitar,6,2,watasino,0.041065722703933716,0
55,100,0.2,743,0,90,_Guitar,6,3,watasino,0.0447029210627079,0
60,100,0.18181818181818182,813,0,90,_Guitar,6,3,watasino,0.047331493347883224,0
84,100,0.2409090909090909,9,1,91,_Guitar,6,4,watasino,0.9997355341911316,1
60,100,0.42272727272727273,113,0,91,_Guitar,6,7,watasino,0.05520608648657799,0
77,100,0.21818181818181817,220,0,91,_Guitar,6,3,watasino,0.04717376083135605,0
55,100,0.2818181818181818,276,0,91,_Guitar,6,5,watasino,0.04567718878388405,0
58,100,0.2590909090909091,360,0,91,_Guitar,6,4,watasino,0.05052318051457405,0
81,100,0.1,426,0,91,_Guitar,6,2,watasino,0.06516315042972565,0
65,100,0.2409090909090909,650,0,91,_Guitar,6,4,watasino,0.06575622409582138,0
76,100,0.2636363636363636,752,0,91,_Guitar,6,4,watasino,0.0634719580411911,0
72,100,0.17727272727272728,106,1,92,_Guitar,6,3,watasino,0.9996968507766724,1
72,100,0.3,229,0,92,_Guitar,6,5,watasino,0.03494257479906082,0
53,100,0.1590909090909091,409,0,92,_Guitar,6,3,watasino,0.02557471953332424,0
77,100,0.1590909090909091,457,0,92,_Guitar,6,3,watasino,0.021075373515486717,0
81,100,0.1,553,0,92,_Guitar,6,2,watasino,0.018276911228895187,0
60,100,0.1409090909090909,616,0,92,_Guitar,6,2,watasino,0.019936207681894302,0
79,100,0.16363636363636364,663,0,92,_Guitar,6,3,watasino,0.021927310153841972,0
84,100,0.1590909090909091,716,0,92,_Guitar,6,3,watasino,0.0300096794962883,0
53,100,0.38181818181818183,760,0,92,_Guitar,6,6,watasino,0.036173660308122635,0
65,100,0.2409090909090909,870,0,92,_Guitar,6,4,watasino,0.03777609393000603,0
77,100,0.2,69,1,93,_Guitar,6,3,watasino,0.9997015595436096,1
53,100,0.18181818181818182,136,0,93,_Guitar,6,3,watasino,0.04250664636492729,0
60,100,0.32272727272727275,179,0,93,_Guitar,6,5,watasino,0.03293014317750931,0
60,100,0.2409090909090909,267,0,93,_Guitar,6,4,watasino,0.03018992394208908,0
60,100,0.3181818181818182,396,0,93,_Guitar,6,5,watasino,0.029721485450863838,0
84,100,0.2,466,0,93,_Guitar,6,3,watasino,0.03474621847271919,0
60,100,0.6409090909090909,532,0,93,_Guitar,6,10,watasino,0.036946170032024384,0
60,100,0.1409090909090909,726,0,93,_Guitar,6,2,watasino,0.05188591778278351,0
55,100,0.21818181818181817,756,0,93,_Guitar,6,3,watasino,0.04570618271827698,0
60,100,0.11818181818181818,22,1,94,_Guitar,6,2,watasino,0.9997134804725647,1
58,100,0.4,113,0,94,_Guitar,6,6,watasino,0.03965507075190544,0
65,100,0.1409090909090909,210,0,94,_Guitar,6,2,watasino,0.03598250448703766,0
77,100,0.1,282,0,94,_Guitar,6,2,watasino,0.02920347824692726,0
76,100,0.1,356,0,94,_Guitar,6,2,watasino,0.031128427013754845,0
57,100,0.2,436,0,94,_Guitar,6,3,watasino,0.03136533126235008,0
57,100,0.13636363636363635,656,0,94,_Guitar,6,2,watasino,0.04004576429724693,0
72,100,0.2590909090909091,695,0,94,_Guitar,6,4,watasino,0.04778633639216423,0
76,100,0.1,844,0,94,_Guitar,6,2,watasino,0.04599892348051071,0
79,100,0.1,113,1,95,_Guitar,6,2,watasino,0.999707043170929,1
81,100,0.1,140,0,95,_Guitar,6,2,watasino,0.04167011007666588,0
84,100,0.1590909090909091,294,0,95,_Guitar,6,3,watasino,0.03369687870144844,0
53,100,0.18181818181818182,462,0,95,_Guitar,6,3,watasino,0.029301241040229797,0
77,100,0.21818181818181817,536,0,95,_Guitar,6,3,watasino,0.02948985993862152,0
53,100,0.22272727272727272,585,0,95,_Guitar,6,4,watasino,0.03335719183087349,0
60,100,0.21818181818181817,660,0,95,_Guitar,6,3,watasino,0.04126810282468796,0
86,100,0.12272727272727273,752,0,95,_Guitar,6,2,watasino,0.04786406084895134,0
60,100,0.6181818181818182,787,0,95,_Guitar,6,10,watasino,0.04408097267150879,0
84,100,0.2636363636363636,47,1,96,_Guitar,6,4,watasino,0.9997699856758118,1
81,100,0.2,106,0,96,_Guitar,6,3,watasino,0.07973942160606384,0
60,100,0.4,172,0,96,_Guitar,6,6,watasino,0.07594326138496399,0
76,100,0.12272727272727273,343,0,96,_Guitar,6,2,watasino,0.08221093565225601,0
53,100,0.12272727272727273,409,0,96,_Guitar,6,2,watasino,0.09059121459722519,0
65,100,0.2409090909090909,449,0,96,_Guitar,6,4,watasino,0.09628443419933319,0
57,100,1.5818181818181818,673,0,96,_Guitar,6,15,watasino,0.07884581387042999,0
53,100,0.5590909090909091,343,1,97,_Guitar,6,9,watasino,0.9996044039726257,1
57,100,0.2409090909090909,739,1,97,_Guitar,6,4,watasino,0.5564943552017212,0
57,100,0.33636363636363636,347,1,98,_Guitar,6,5,watasino,0.9927419424057007,1
62,100,0.16363636363636364,487,1,1,_Remix_Guitar,6,3, (Remix) Stems,0.9996551275253296,1
60,100,0.1,801,1,1,_Remix_Guitar,6,2, (Remix) Stems,0.5486608743667603,0
60,100,0.12272727272727273,122,1,2,_Remix_Guitar,6,2, (Remix) Stems,0.9996601343154907,1
55,100,0.1409090909090909,616,1,2,_Remix_Guitar,6,2, (Remix) Stems,0.5382848381996155,0
56,100,0.21818181818181817,229,1,3,_Remix_Guitar,6,3, (Remix) Stems,0.9998325109481812,1
56,100,0.1409090909090909,364,0,3,_Remix_Guitar,6,2, (Remix) Stems,0.41306746006011963,0
63,100,0.2409090909090909,730,1,3,_Remix_Guitar,6,4, (Remix) Stems,0.4172530770301819,0
62,100,0.17727272727272728,118,1,6,_Remix_Guitar,6,3, (Remix) Stems,0.9996322393417358,1
63,100,0.11818181818181818,747,1,6,_Remix_Guitar,6,2, (Remix) Stems,0.5488296151161194,0
56,100,0.22272727272727272,25,1,7,_Remix_Guitar,6,4, (Remix) Stems,0.9931991696357727,0
62,100,0.1409090909090909,374,1,8,_Remix_Guitar,6,2, (Remix) Stems,0.9996362924575806,1
63,100,0.1,761,1,8,_Remix_Guitar,6,2, (Remix) Stems,0.5492995381355286,0
56,100,0.13636363636363635,171,1,9,_Remix_Guitar,6,2, (Remix) Stems,0.9998332262039185,1
56,100,0.12272727272727273,290,0,9,_Remix_Guitar,6,2, (Remix) Stems,0.41007015109062195,0
56,100,0.12272727272727273,804,1,9,_Remix_Guitar,6,2, (Remix) Stems,0.4269760847091675,0
56,100,0.1409090909090909,175,1,10,_Remix_Guitar,6,2, (Remix) Stems,0.9996335506439209,1
63,100,0.5818181818181818,792,1,10,_Remix_Guitar,6,9, (Remix) Stems,0.5308614373207092,0
65,100,0.17727272727272728,118,1,11,_Remix_Guitar,6,3, (Remix) Stems,0.9997678399085999,1
67,100,0.2590909090909091,163,0,11,_Remix_Guitar,6,4, (Remix) Stems,0.07787308841943741,0
70,100,0.3409090909090909,285,0,11,_Remix_Guitar,6,5, (Remix) Stems,0.06972155719995499,0
67,100,0.2409090909090909,360,0,11,_Remix_Guitar,6,4, (Remix) Stems,0.08576828241348267,0
56,100,0.2409090909090909,426,0,11,_Remix_Guitar,6,4, (Remix) Stems,0.096661277115345,0
65,100,0.2818181818181818,795,1,11,_Remix_Guitar,6,5, (Remix) Stems,0.09757950901985168,0
67,100,0.2409090909090909,862,0,11,_Remix_Guitar,6,4, (Remix) Stems,0.08901382237672806,0
70,100,0.1,79,1,12,_Remix_Guitar,6,2, (Remix) Stems,0.9996364116668701,1
70,100,0.1590909090909091,175,0,12,_Remix_Guitar,6,3, (Remix) Stems,0.029903898015618324,0
67,100,0.17727272727272728,237,0,12,_Remix_Guitar,6,3, (Remix) Stems,0.019725700840353966,0
65,100,0.33636363636363636,281,0,12,_Remix_Guitar,6,5, (Remix) Stems,0.01399849820882082,0
63,100,0.2,360,0,12,_Remix_Guitar,6,3, (Remix) Stems,0.010753986425697803,0
60,100,0.21818181818181817,414,0,12,_Remix_Guitar,6,3, (Remix) Stems,0.009537942707538605,0
58,100,0.1,501,0,12,_Remix_Guitar,6,2, (Remix) Stems,0.008368846960365772,0
60,100,0.36363636363636365,532,0,12,_Remix_Guitar,6,6, (Remix) Stems,0.010054884478449821,0
63,100,0.1409090909090909,620,0,12,_Remix_Guitar,6,2, (Remix) Stems,0.01322669256478548,0
65,100,0.3,660,0,12,_Remix_Guitar,6,5, (Remix) Stems,0.019848965108394623,0
67,100,0.3181818181818182,787,0,12,_Remix_Guitar,6,5, (Remix) Stems,0.027190526947379112,0
53,100,0.1,876,0,12,_Remix_Guitar,6,2, (Remix) Stems,0.0337056964635849,0
65,100,0.38181818181818183,22,1,13,_Remix_Guitar,6,6, (Remix) Stems,0.999672532081604,1
63,100,0.1,135,0,13,_Remix_Guitar,6,2, (Remix) Stems,0.0368364043533802,0
63,100,0.41818181818181815,185,0,13,_Remix_Guitar,6,7, (Remix) Stems,0.025502048432826996,0
63,100,0.3181818181818182,281,0,13,_Remix_Guitar,6,5, (Remix) Stems,0.02174070104956627,0
65,100,0.12272727272727273,355,0,13,_Remix_Guitar,6,2, (Remix) Stems,0.020933834835886955,0
55,100,0.1,505,0,13,_Remix_Guitar,6,2, (Remix) Stems,0.02083905041217804,0
70,100,0.3,532,0,13,_Remix_Guitar,6,5, (Remix) Stems,0.02174038253724575,0
67,100,0.2,615,0,13,_Remix_Guitar,6,3, (Remix) Stems,0.032046519219875336,0
56,100,0.3409090909090909,663,0,13,_Remix_Guitar,6,5, (Remix) Stems,0.03863270953297615,0
72,100,0.2590909090909091,787,0,13,_Remix_Guitar,6,4, (Remix) Stems,0.04026306793093681,0
70,100,0.2772727272727273,30,1,14,_Remix_Guitar,6,4, (Remix) Stems,0.999672532081604,1
65,100,0.3,163,0,14,_Remix_Guitar,6,5, (Remix) Stems,0.04524759575724602,0
63,100,0.22272727272727272,233,0,14,_Remix_Guitar,6,4, (Remix) Stems,0.033016033470630646,0
65,100,0.3,295,0,14,_Remix_Guitar,6,5, (Remix) Stems,0.031047701835632324,0
65,100,0.12272727272727273,400,0,14,_Remix_Guitar,6,2, (Remix) Stems,0.031653113663196564,0
67,100,0.18181818181818182,488,0,14,_Remix_Guitar,6,3, (Remix) Stems,0.03332027792930603,0
67,100,0.1409090909090909,550,0,14,_Remix_Guitar,6,2, (Remix) Stems,0.0401005893945694,0
65,100,0.3409090909090909,660,0,14,_Remix_Guitar,6,5, (Remix) Stems,0.047718595713377,0
65,100,0.2772727272727273,744,0,14,_Remix_Guitar,6,4, (Remix) Stems,0.047539882361888885,0
58,100,0.22272727272727272,233,1,16,_Remix_Guitar,6,4, (Remix) Stems,0.9922705888748169,0
58,100,0.18181818181818182,233,1,19,_Remix_Guitar,6,3, (Remix) Stems,0.9923558235168457,0
56,100,0.16363636363636364,158,1,20,_Remix_Guitar,6,3, (Remix) Stems,0.9998345375061035,1
56,100,0.1590909090909091,364,0,20,_Remix_Guitar,6,3, (Remix) Stems,0.4132622182369232,0
58,100,0.1409090909090909,870,1,20,_Remix_Guitar,6,2, (Remix) Stems,0.4166063070297241,0
58,100,0.1409090909090909,113,1,21,_Remix_Guitar,6,2, (Remix) Stems,0.9928533434867859,1
56,100,0.2409090909090909,474,1,22,_Remix_Guitar,6,4, (Remix) Stems,0.9927043914794922,0
58,100,0.1590909090909091,229,1,23,_Remix_Guitar,6,3, (Remix) Stems,0.9925503730773926,0
56,100,0.1590909090909091,656,1,24,_Remix_Guitar,6,3, (Remix) Stems,0.9996498823165894,1
56,100,0.13636363636363635,876,0,24,_Remix_Guitar,6,2, (Remix) Stems,0.5471064448356628,0
63,100,0.42272727272727273,387,1,25,_Remix_Guitar,6,7, (Remix) Stems,0.9998156428337097,1
55,100,0.2772727272727273,721,1,25,_Remix_Guitar,6,4, (Remix) Stems,0.429740309715271,0
67,100,0.38181818181818183,804,0,25,_Remix_Guitar,6,6, (Remix) Stems,0.4259241223335266,0
67,100,0.17727272727272728,40,1,26,_Remix_Guitar,6,3, (Remix) Stems,0.9998201727867126,1
58,100,0.2409090909090909,167,0,26,_Remix_Guitar,6,4, (Remix) Stems,0.2024490237236023,0
63,100,0.35909090909090907,370,0,26,_Remix_Guitar,6,6, (Remix) Stems,0.2040739357471466,0
63,100,0.2818181818181818,461,0,26,_Remix_Guitar,6,5, (Remix) Stems,0.21717412769794464,0
53,100,0.2409090909090909,791,1,26,_Remix_Guitar,6,4, (Remix) Stems,0.2175862044095993,0
56,100,0.1590909090909091,79,1,27,_Remix_Guitar,6,3, (Remix) Stems,0.9998552799224854,1
63,100,0.2409090909090909,198,0,27,_Remix_Guitar,6,4, (Remix) Stems,0.31793269515037537,0
63,100,0.12272727272727273,254,0,27,_Remix_Guitar,6,2, (Remix) Stems,0.2919119894504547,0
58,100,0.11818181818181818,735,1,27,_Remix_Guitar,6,2, (Remix) Stems,0.30312374234199524,0
67,100,0.5590909090909091,34,1,28,_Remix_Guitar,6,9, (Remix) Stems,0.9997795224189758,1
67,100,0.18181818181818182,202,0,28,_Remix_Guitar,6,3, (Remix) Stems,0.13888873159885406,0
67,100,0.1409090909090909,272,0,28,_Remix_Guitar,6,2, (Remix) Stems,0.12719139456748962,0
67,100,0.2772727272727273,347,0,28,_Remix_Guitar,6,4, (Remix) Stems,0.13781411945819855,0
67,100,0.3,453,0,28,_Remix_Guitar,6,5, (Remix) Stems,0.14959609508514404,0
67,100,0.5772727272727273,536,0,28,_Remix_Guitar,6,9, (Remix) Stems,0.13499367237091064,0
58,100,0.35909090909090907,57,1,29,_Remix_Guitar,6,6, (Remix) Stems,0.9997950196266174,1
58,100,0.11818181818181818,625,1,29,_Remix_Guitar,6,2, (Remix) Stems,0.45104581117630005,0
53,100,0.2,770,0,29,_Remix_Guitar,6,3, (Remix) Stems,0.43951377272605896,0
58,100,0.1409090909090909,119,1,30,_Remix_Guitar,6,2, (Remix) Stems,0.9997890591621399,1
67,100,0.8636363636363636,289,0,30,_Remix_Guitar,6,14, (Remix) Stems,0.1183096170425415,0
53,100,0.1590909090909091,484,0,30,_Remix_Guitar,6,3, (Remix) Stems,0.14184340834617615,0
67,100,0.2590909090909091,536,0,30,_Remix_Guitar,6,4, (Remix) Stems,0.13563133776187897,0
53,100,0.12272727272727273,598,0,30,_Remix_Guitar,6,2, (Remix) Stems,0.15727336704730988,0
63,100,0.8227272727272728,796,0,30,_Remix_Guitar,6,13, (Remix) Stems,0.12929818034172058,0
63,100,0.1,210,1,31,_Remix_Guitar,6,2, (Remix) Stems,0.9997765421867371,1
63,100,0.2409090909090909,295,0,31,_Remix_Guitar,6,4, (Remix) Stems,0.07514110207557678,0
53,100,0.5409090909090909,418,0,31,_Remix_Guitar,6,9, (Remix) Stems,0.0735112726688385,0
53,100,0.2590909090909091,611,0,31,_Remix_Guitar,6,4, (Remix) Stems,0.08151055127382278,0
53,100,0.16363636363636364,818,0,31,_Remix_Guitar,6,3, (Remix) Stems,0.09353992342948914,0
54,100,0.1,853,0,31,_Remix_Guitar,6,2, (Remix) Stems,0.0975382998585701,0
53,100,0.43636363636363634,876,0,31,_Remix_Guitar,6,7, (Remix) Stems,0.08668559044599533,0
63,100,0.18181818181818182,188,1,32,_Remix_Guitar,6,3, (Remix) Stems,0.9998262524604797,1
52,100,0.1409090909090909,421,1,32,_Remix_Guitar,6,2, (Remix) Stems,0.4343447685241699,0
62,100,1.5772727272727274,568,0,32,_Remix_Guitar,6,15, (Remix) Stems,0.395862877368927,0
62,100,0.5409090909090909,69,1,33,_Remix_Guitar,6,9, (Remix) Stems,0.9998043179512024,1
62,100,1.1227272727272728,233,0,33,_Remix_Guitar,6,15, (Remix) Stems,0.3943849503993988,0
53,100,0.1409090909090909,619,1,33,_Remix_Guitar,6,2, (Remix) Stems,0.4665197730064392,0
53,100,0.21818181818181817,493,1,34,_Remix_Guitar,6,3, (Remix) Stems,0.999647855758667,1
56,100,0.1409090909090909,646,0,34,_Remix_Guitar,6,2, (Remix) Stems,0.5467628240585327,0
53,100,0.2,611,1,35,_Remix_Guitar,6,3, (Remix) Stems,0.9996414184570312,1
62,100,0.12272727272727273,818,0,35,_Remix_Guitar,6,2, (Remix) Stems,0.5516062378883362,0
55,100,0.1,56,1,36,_Remix_Guitar,6,2, (Remix) Stems,0.9998300075531006,1
55,100,0.18181818181818182,298,1,36,_Remix_Guitar,6,3, (Remix) Stems,0.4069787263870239,0
58,100,0.3181818181818182,660,1,36,_Remix_Guitar,6,5, (Remix) Stems,0.42140069603919983,0
56,100,0.2409090909090909,298,1,37,_Remix_Guitar,6,4, (Remix) Stems,0.9996403455734253,1
56,100,0.12272727272727273,378,0,37,_Remix_Guitar,6,2, (Remix) Stems,0.5523883104324341,0
53,100,0.1409090909090909,53,1,40,_Remix_Guitar,6,2, (Remix) Stems,0.9997695088386536,1
58,100,0.18181818181818182,224,0,40,_Remix_Guitar,6,3, (Remix) Stems,0.07864823937416077,0
58,100,0.1409090909090909,386,0,40,_Remix_Guitar,6,2, (Remix) Stems,0.07632838934659958,0
55,100,0.5181818181818182,550,0,40,_Remix_Guitar,6,8, (Remix) Stems,0.0813128873705864,0
58,100,0.1,703,0,40,_Remix_Guitar,6,2, (Remix) Stems,0.09421955049037933,0
55,100,0.2818181818181818,748,0,40,_Remix_Guitar,6,5, (Remix) Stems,0.10190771520137787,0
58,100,0.21818181818181817,858,0,40,_Remix_Guitar,6,3, (Remix) Stems,0.087980717420578,0
58,100,0.2,224,1,41,_Remix_Guitar,6,3, (Remix) Stems,0.9998165965080261,1
63,100,0.2818181818181818,408,0,41,_Remix_Guitar,6,5, (Remix) Stems,0.42073819041252136,0
53,100,0.4,664,1,41,_Remix_Guitar,6,6, (Remix) Stems,0.43493369221687317,0
58,100,0.2,678,1,42,_Remix_Guitar,6,3, (Remix) Stems,0.999576985836029,1
58,100,0.13636363636363635,743,0,42,_Remix_Guitar,6,2, (Remix) Stems,0.5589188933372498,0
62,100,0.13636363636363635,303,1,43,_Remix_Guitar,6,2, (Remix) Stems,0.9996434450149536,1
53,100,0.1409090909090909,625,1,43,_Remix_Guitar,6,2, (Remix) Stems,0.5525543093681335,0
56,100,0.11818181818181818,373,1,46,_Remix_Guitar,6,2, (Remix) Stems,0.9996426105499268,1
53,100,0.12272727272727273,783,1,46,_Remix_Guitar,6,2, (Remix) Stems,0.5436641573905945,0
55,100,0.1590909090909091,536,1,47,_Remix_Guitar,6,3, (Remix) Stems,0.999614953994751,1
55,100,0.18181818181818182,576,0,47,_Remix_Guitar,6,3, (Remix) Stems,0.5506479144096375,0
56,100,0.2590909090909091,558,1,48,_Remix_Guitar,6,4, (Remix) Stems,0.9996217489242554,1
56,100,0.3,721,0,48,_Remix_Guitar,6,5, (Remix) Stems,0.5558270812034607,0
53,100,0.5,796,1,50,_Remix_Guitar,6,8, (Remix) Stems,0.9930253028869629,1
56,100,0.5636363636363636,179,1,52,_Remix_Guitar,6,9, (Remix) Stems,0.9925755262374878,0
56,100,0.11818181818181818,263,1,53,_Remix_Guitar,6,2, (Remix) Stems,0.9996324777603149,1
58,100,0.2,823,1,53,_Remix_Guitar,6,3, (Remix) Stems,0.5395827293395996,0
58,100,0.18181818181818182,0,1,54,_Remix_Guitar,6,3, (Remix) Stems,0.9998193383216858,1
53,100,0.18181818181818182,91,0,54,_Remix_Guitar,6,3, (Remix) Stems,0.22776226699352264,0
55,100,0.32272727272727275,289,0,54,_Remix_Guitar,6,5, (Remix) Stems,0.19215799868106842,0
55,100,0.11818181818181818,506,0,54,_Remix_Guitar,6,2, (Remix) Stems,0.21865850687026978,0
55,100,0.2772727272727273,668,0,54,_Remix_Guitar,6,4, (Remix) Stems,0.20395223796367645,0
63,100,0.21818181818181817,96,1,55,_Remix_Guitar,6,3, (Remix) Stems,0.9998520612716675,1
53,100,0.4772727272727273,426,1,55,_Remix_Guitar,6,8, (Remix) Stems,0.3235611021518707,0
53,100,0.3409090909090909,584,0,55,_Remix_Guitar,6,5, (Remix) Stems,0.2924569249153137,0
53,100,0.12272727272727273,826,1,55,_Remix_Guitar,6,2, (Remix) Stems,0.30836912989616394,0
53,100,0.2409090909090909,26,1,56,_Remix_Guitar,6,4, (Remix) Stems,0.9998534917831421,1
65,100,0.11818181818181818,88,0,56,_Remix_Guitar,6,2, (Remix) Stems,0.32678014039993286,0
53,100,0.1409090909090909,311,0,56,_Remix_Guitar,6,2, (Remix) Stems,0.2915947735309601,0
63,100,0.2409090909090909,729,1,56,_Remix_Guitar,6,4, (Remix) Stems,0.303539901971817,0
53,100,0.11818181818181818,286,1,58,_Remix_Guitar,6,2, (Remix) Stems,0.9996403455734253,1
58,100,0.11818181818181818,853,1,58,_Remix_Guitar,6,2, (Remix) Stems,0.5368531942367554,0
55,100,0.2772727272727273,105,1,59,_Remix_Guitar,6,4, (Remix) Stems,0.9927738904953003,0
53,100,0.4590909090909091,166,1,60,_Remix_Guitar,6,7, (Remix) Stems,0.9996180534362793,1
53,100,0.1409090909090909,364,0,60,_Remix_Guitar,6,2, (Remix) Stems,0.558918833732605,0
53,100,0.1409090909090909,110,1,61,_Remix_Guitar,6,2, (Remix) Stems,0.9998325109481812,1
53,100,0.33636363636363636,171,0,61,_Remix_Guitar,6,5, (Remix) Stems,0.39728042483329773,0
63,100,0.1409090909090909,703,1,61,_Remix_Guitar,6,2, (Remix) Stems,0.4291117191314697,0
53,100,0.3,163,1,62,_Remix_Guitar,6,5, (Remix) Stems,0.9998531341552734,1
53,100,0.2,289,0,62,_Remix_Guitar,6,3, (Remix) Stems,0.3213576078414917,0
53,100,0.13636363636363635,435,0,62,_Remix_Guitar,6,2, (Remix) Stems,0.29132890701293945,0
53,100,0.22272727272727272,584,0,62,_Remix_Guitar,6,4, (Remix) Stems,0.3036433458328247,0
63,100,0.38181818181818183,694,1,63,_Remix_Guitar,6,6, (Remix) Stems,0.9927460551261902,0
56,100,0.22272727272727272,540,1,64,_Remix_Guitar,6,4, (Remix) Stems,0.9933502078056335,0
56,100,0.1409090909090909,30,1,65,_Remix_Guitar,6,2, (Remix) Stems,0.9998393058776855,1
63,100,0.1,113,0,65,_Remix_Guitar,6,2, (Remix) Stems,0.2123892456293106,0
58,100,0.7227272727272728,356,1,65,_Remix_Guitar,6,12, (Remix) Stems,0.18331192433834076,0
56,100,0.8,536,0,65,_Remix_Guitar,6,13, (Remix) Stems,0.22172628343105316,0
56,100,0.4,783,1,65,_Remix_Guitar,6,6, (Remix) Stems,0.2225528508424759,0
63,100,0.1409090909090909,66,1,66,_Remix_Guitar,6,2, (Remix) Stems,0.9996457099914551,1
56,100,0.2409090909090909,157,0,66,_Remix_Guitar,6,4, (Remix) Stems,0.5453751087188721,0
63,100,0.1,100,1,67,_Remix_Guitar,6,2, (Remix) Stems,0.9998290538787842,1
63,100,0.2409090909090909,136,0,67,_Remix_Guitar,6,4, (Remix) Stems,0.40240275859832764,0
58,100,0.1409090909090909,273,0,67,_Remix_Guitar,6,2, (Remix) Stems,0.4312978982925415,0
58,100,0.35909090909090907,176,1,68,_Remix_Guitar,6,6, (Remix) Stems,0.9995620846748352,1
56,100,0.32272727272727275,430,1,68,_Remix_Guitar,6,5, (Remix) Stems,0.5703174471855164,0
56,100,0.16363636363636364,157,1,69,_Remix_Guitar,6,3, (Remix) Stems,0.9998352527618408,1
60,100,0.2590909090909091,726,1,69,_Remix_Guitar,6,4, (Remix) Stems,0.41153228282928467,0
60,100,0.2409090909090909,796,0,69,_Remix_Guitar,6,4, (Remix) Stems,0.4260772168636322,0
60,100,0.12272727272727273,69,1,70,_Remix_Guitar,6,2, (Remix) Stems,0.9998142123222351,1
54,100,0.11818181818181818,119,0,70,_Remix_Guitar,6,2, (Remix) Stems,0.12320464104413986,0
60,100,0.1409090909090909,365,1,70,_Remix_Guitar,6,2, (Remix) Stems,0.1199774444103241,0
63,100,0.5,475,0,70,_Remix_Guitar,6,8, (Remix) Stems,0.12642815709114075,0
56,100,0.5227272727272727,663,0,70,_Remix_Guitar,6,8, (Remix) Stems,0.14252112805843353,0
56,100,0.18181818181818182,826,0,70,_Remix_Guitar,6,3, (Remix) Stems,0.1358925700187683,0
56,100,0.2409090909090909,475,1,71,_Remix_Guitar,6,4, (Remix) Stems,0.9996403455734253,1
63,100,0.22272727272727272,673,0,71,_Remix_Guitar,6,4, (Remix) Stems,0.5430564880371094,0
55,100,0.2,853,1,72,_Remix_Guitar,6,3, (Remix) Stems,0.9928622841835022,0
55,100,0.1409090909090909,113,1,73,_Remix_Guitar,6,2, (Remix) Stems,0.9998544454574585,1
63,100,0.18181818181818182,286,0,73,_Remix_Guitar,6,3, (Remix) Stems,0.31650102138519287,0
55,100,0.23636363636363636,546,1,73,_Remix_Guitar,6,4, (Remix) Stems,0.2884148955345154,0
56,100,0.11818181818181818,836,1,73,_Remix_Guitar,6,2, (Remix) Stems,0.31334036588668823,0
53,100,0.23636363636363636,502,1,74,_Remix_Guitar,6,4, (Remix) Stems,0.9996438026428223,1
60,100,0.1409090909090909,839,1,74,_Remix_Guitar,6,2, (Remix) Stems,0.5496063232421875,0
55,100,0.1,123,1,75,_Remix_Guitar,6,2, (Remix) Stems,0.9998332262039185,1
55,100,0.1409090909090909,299,0,75,_Remix_Guitar,6,2, (Remix) Stems,0.21004618704319,0
63,100,0.23636363636363636,392,0,75,_Remix_Guitar,6,4, (Remix) Stems,0.1950887143611908,0
55,100,0.5,669,1,75,_Remix_Guitar,6,8, (Remix) Stems,0.2089984118938446,0
55,100,0.2590909090909091,800,0,75,_Remix_Guitar,6,4, (Remix) Stems,0.21623137593269348,0
60,100,0.1,250,1,76,_Remix_Guitar,6,2, (Remix) Stems,0.9998629093170166,1
63,100,0.1590909090909091,299,0,76,_Remix_Guitar,6,3, (Remix) Stems,0.30578523874282837,0
56,100,0.13636363636363635,743,1,76,_Remix_Guitar,6,2, (Remix) Stems,0.29468443989753723,0
63,100,0.2409090909090909,800,0,76,_Remix_Guitar,6,4, (Remix) Stems,0.29944559931755066,0
62,100,0.3,462,1,77,_Remix_Guitar,6,5, (Remix) Stems,0.9998347759246826,1
62,100,0.3,590,0,77,_Remix_Guitar,6,5, (Remix) Stems,0.41198039054870605,0
62,100,0.37727272727272726,690,0,77,_Remix_Guitar,6,6, (Remix) Stems,0.42423614859580994,0
62,100,0.21818181818181817,119,1,78,_Remix_Guitar,6,3, (Remix) Stems,0.9996362924575806,1
63,100,0.2409090909090909,470,1,78,_Remix_Guitar,6,4, (Remix) Stems,0.5438243746757507,0
63,100,0.2,96,1,79,_Remix_Guitar,6,3, (Remix) Stems,0.9996302127838135,1
63,100,0.21818181818181817,352,1,79,_Remix_Guitar,6,3, (Remix) Stems,0.5513138175010681,0
56,100,0.1,796,1,80,_Remix_Guitar,6,2, (Remix) Stems,0.993522584438324,0
58,100,0.1409090909090909,286,1,81,_Remix_Guitar,6,2, (Remix) Stems,0.9995951056480408,1
58,100,0.1409090909090909,320,0,81,_Remix_Guitar,6,2, (Remix) Stems,0.5523053407669067,0
63,100,0.3409090909090909,330,1,82,_Remix_Guitar,6,5, (Remix) Stems,0.9929900169372559,0
62,100,0.22272727272727272,475,1,83,_Remix_Guitar,6,4, (Remix) Stems,0.9998617172241211,1
53,100,0.1409090909090909,619,0,83,_Remix_Guitar,6,2, (Remix) Stems,0.31961533427238464,0
62,100,0.2409090909090909,729,0,83,_Remix_Guitar,6,4, (Remix) Stems,0.289959579706192,0
62,100,0.1409090909090909,817,0,83,_Remix_Guitar,6,2, (Remix) Stems,0.3008417785167694,0
63,100,0.3181818181818182,30,1,85,_Remix_Guitar,6,5, (Remix) Stems,0.9998213648796082,1
63,100,0.21818181818181817,294,1,85,_Remix_Guitar,6,3, (Remix) Stems,0.41820672154426575,0
63,100,0.3,347,0,85,_Remix_Guitar,6,5, (Remix) Stems,0.4280717670917511,0
62,100,0.11818181818181818,74,1,86,_Remix_Guitar,6,2, (Remix) Stems,0.9998610019683838,1
55,100,0.11818181818181818,237,0,86,_Remix_Guitar,6,2, (Remix) Stems,0.3179771304130554,0
55,100,0.22272727272727272,343,0,86,_Remix_Guitar,6,4, (Remix) Stems,0.2905125319957733,0
58,100,0.4,800,1,86,_Remix_Guitar,6,6, (Remix) Stems,0.298767626285553,0
63,100,0.16363636363636364,223,1,87,_Remix_Guitar,6,3, (Remix) Stems,0.999835729598999,1
63,100,0.4590909090909091,303,0,87,_Remix_Guitar,6,7, (Remix) Stems,0.1947254091501236,0
56,100,0.11818181818181818,436,0,87,_Remix_Guitar,6,2, (Remix) Stems,0.21376284956932068,0
63,100,0.18181818181818182,686,1,87,_Remix_Guitar,6,3, (Remix) Stems,0.21032333374023438,0
63,100,0.38181818181818183,796,0,87,_Remix_Guitar,6,6, (Remix) Stems,0.20668059587478638,0
56,100,0.12272727272727273,35,1,88,_Remix_Guitar,6,2, (Remix) Stems,0.9996492862701416,1
56,100,0.2,83,0,88,_Remix_Guitar,6,3, (Remix) Stems,0.5442723631858826,0
53,100,0.2409090909090909,113,1,90,_Remix_Guitar,6,4, (Remix) Stems,0.9996534585952759,1
54,100,0.1,237,0,90,_Remix_Guitar,6,2, (Remix) Stems,0.5474878549575806,0
63,100,0.11818181818181818,62,1,91,_Remix_Guitar,6,2, (Remix) Stems,0.9998279809951782,1
63,100,0.2409090909090909,163,0,91,_Remix_Guitar,6,4, (Remix) Stems,0.40376612544059753,0
63,100,0.2590909090909091,726,1,91,_Remix_Guitar,6,4, (Remix) Stems,0.43413615226745605,0
58,100,0.2,677,1,92,_Remix_Guitar,6,3, (Remix) Stems,0.9925738573074341,0
63,100,0.5409090909090909,157,1,93,_Remix_Guitar,6,9, (Remix) Stems,0.9995922446250916,1
56,100,0.1590909090909091,787,1,93,_Remix_Guitar,6,3, (Remix) Stems,0.5650172829627991,0
62,100,0.2590909090909091,559,1,94,_Remix_Guitar,6,4, (Remix) Stems,0.9996316432952881,1
55,100,0.18181818181818182,805,1,94,_Remix_Guitar,6,3, (Remix) Stems,0.5508086681365967,0
55,100,0.2,540,1,95,_Remix_Guitar,6,3, (Remix) Stems,0.9931007623672485,0
63,100,0.18181818181818182,110,1,96,_Remix_Guitar,6,3, (Remix) Stems,0.9998469352722168,1
63,100,0.11818181818181818,197,0,96,_Remix_Guitar,6,2, (Remix) Stems,0.32330065965652466,0
63,100,0.35909090909090907,263,0,96,_Remix_Guitar,6,6, (Remix) Stems,0.28857237100601196,0
55,100,0.1409090909090909,673,1,96,_Remix_Guitar,6,2, (Remix) Stems,0.3194216191768646,0
62,100,0.37727272727272726,193,1,97,_Remix_Guitar,6,6, (Remix) Stems,0.9998137354850769,1
62,100,1.0636363636363637,289,0,97,_Remix_Guitar,6,15, (Remix) Stems,0.39176926016807556,0
62,100,0.7772727272727272,800,1,97,_Remix_Guitar,6,12, (Remix) Stems,0.4485442340373993,0
53,100,0.1590909090909091,145,1,98,_Remix_Guitar,6,3, (Remix) Stems,0.9998544454574585,1
62,100,0.1590909090909091,193,0,98,_Remix_Guitar,6,3, (Remix) Stems,0.31693732738494873,0
62,100,1.9772727272727273,339,0,98,_Remix_Guitar,6,15, (Remix) Stems,0.25141003727912903,0
62,100,0.11818181818181818,779,1,98,_Remix_Guitar,6,2, (Remix) Stems,0.3566212058067322,0
62,100,0.1409090909090909,356,1,99,_Remix_Guitar,6,2, (Remix) Stems,0.993511974811554,1
55,100,0.35909090909090907,540,1,100,_Remix_Guitar,6,6, (Remix) Stems,0.9928309917449951,0
55,100,0.3,157,1,101,_Remix_Guitar,6,5, (Remix) Stems,0.9927661418914795,0
63,100,0.1590909090909091,580,1,102,_Remix_Guitar,6,3, (Remix) Stems,0.9929976463317871,0
56,100,0.2590909090909091,163,1,104,_Remix_Guitar,6,4, (Remix) Stems,0.999619722366333,1
63,100,0.3,320,0,104,_Remix_Guitar,6,5, (Remix) Stems,0.5473552346229553,0
53,100,0.36363636363636365,157,1,105,_Remix_Guitar,6,6, (Remix) Stems,0.9998319149017334,1
62,100,0.1,466,1,105,_Remix_Guitar,6,2, (Remix) Stems,0.42637598514556885,0
63,100,0.2409090909090909,739,1,105,_Remix_Guitar,6,4, (Remix) Stems,0.41697341203689575,0
60,100,0.17727272727272728,193,1,106,_Remix_Guitar,6,3, (Remix) Stems,0.9996453523635864,1
63,100,0.1,690,1,106,_Remix_Guitar,6,2, (Remix) Stems,0.5434815287590027,0
62,100,0.2,436,1,107,_Remix_Guitar,6,3, (Remix) Stems,0.9998331069946289,1
62,100,0.4,509,0,107,_Remix_Guitar,6,6, (Remix) Stems,0.41134241223335266,0
62,100,0.2590909090909091,695,0,107,_Remix_Guitar,6,4, (Remix) Stems,0.4286486506462097,0
62,100,0.4,13,1,108,_Remix_Guitar,6,6, (Remix) Stems,0.9998526573181152,1
62,100,0.17727272727272728,106,0,108,_Remix_Guitar,6,3, (Remix) Stems,0.3307020366191864,0
62,100,0.2,430,1,108,_Remix_Guitar,6,3, (Remix) Stems,0.29187890887260437,0
53,100,0.18181818181818182,862,1,108,_Remix_Guitar,6,3, (Remix) Stems,0.30561405420303345,0
53,100,0.11818181818181818,30,1,109,_Remix_Guitar,6,2, (Remix) Stems,0.9996291399002075,1
63,100,0.6,857,1,109,_Remix_Guitar,6,10, (Remix) Stems,0.5325753092765808,0
63,100,0.1,113,1,110,_Remix_Guitar,6,2, (Remix) Stems,0.9996521472930908,1
53,100,0.1,294,0,110,_Remix_Guitar,6,2, (Remix) Stems,0.549579381942749,0
63,100,0.3409090909090909,496,1,111,_Remix_Guitar,6,5, (Remix) Stems,0.9996143579483032,1
63,100,0.1409090909090909,650,0,111,_Remix_Guitar,6,2, (Remix) Stems,0.5545194149017334,0
65,100,0.3,320,1,112,_Remix_Guitar,6,5, (Remix) Stems,0.9996309280395508,1
65,100,0.3409090909090909,399,0,112,_Remix_Guitar,6,5, (Remix) Stems,0.5474976897239685,0
58,100,0.2,686,1,113,_Remix_Guitar,6,3, (Remix) Stems,0.9995803236961365,1
82,100,0.5181818181818182,779,0,113,_Remix_Guitar,6,8, (Remix) Stems,0.5438977479934692,0
53,100,0.3181818181818182,677,1,115,_Remix_Guitar,6,5, (Remix) Stems,0.9932519793510437,0
55,100,0.1590909090909091,62,1,116,_Remix_Guitar,6,3, (Remix) Stems,0.9998261332511902,1
55,100,0.1590909090909091,360,1,116,_Remix_Guitar,6,3, (Remix) Stems,0.4094092547893524,0
53,100,0.2,677,1,116,_Remix_Guitar,6,3, (Remix) Stems,0.43569719791412354,0
53,100,0.1590909090909091,426,1,117,_Remix_Guitar,6,3, (Remix) Stems,0.9936140179634094,0
53,100,0.11818181818181818,237,1,119,_Remix_Guitar,6,2, (Remix) Stems,0.9996564388275146,1
55,100,0.1,457,0,119,_Remix_Guitar,6,2, (Remix) Stems,0.5434833765029907,0
53,100,0.12272727272727273,210,1,121,_Remix_Guitar,6,2, (Remix) Stems,0.9937154650688171,1
53,100,0.1409090909090909,660,1,122,_Remix_Guitar,6,2, (Remix) Stems,0.9935672879219055,0
63,100,0.1,839,1,124,_Remix_Guitar,6,2, (Remix) Stems,0.9930111765861511,1
53,100,0.3,40,1,127,_Remix_Guitar,6,5, (Remix) Stems,0.9929115176200867,0
57,100,0.2,232,1,128,_Remix_Guitar,6,3, (Remix) Stems,0.9933069348335266,0
53,100,0.1409090909090909,295,1,129,_Remix_Guitar,6,2, (Remix) Stems,0.993395984172821,0
53,100,0.41818181818181815,413,1,130,_Remix_Guitar,6,7, (Remix) Stems,0.9998297691345215,1
53,100,0.1,682,1,130,_Remix_Guitar,6,2, (Remix) Stems,0.42645344138145447,0
53,100,0.38181818181818183,796,0,130,_Remix_Guitar,6,6, (Remix) Stems,0.41708314418792725,0
53,100,0.1590909090909091,238,1,131,_Remix_Guitar,6,3, (Remix) Stems,0.9934362173080444,0
60,100,0.1,228,1,135,_Remix_Guitar,6,2, (Remix) Stems,0.9936320185661316,0
53,100,0.1409090909090909,79,1,136,_Remix_Guitar,6,2, (Remix) Stems,0.999647855758667,1
53,100,0.18181818181818182,180,0,136,_Remix_Guitar,6,3, (Remix) Stems,0.5454238653182983,0
60,100,0.1590909090909091,185,1,142,_Remix_Guitar,6,3, (Remix) Stems,0.9936303496360779,1
58,100,1.481818181818182,343,1,1,DL_MelancholicFolk_Guitar,6,15,hanamokatanamoMelancholicFolk,0.9993700385093689,1
58,100,2.7181818181818183,681,1,1,DL_MelancholicFolk_Guitar,6,15,hanamokatanamoMelancholicFolk,0.5613092184066772,0
70,100,0.21818181818181817,413,1,2,DL_MelancholicFolk_Guitar,6,3,hanamokatanamoMelancholicFolk,0.9997939467430115,1
58,100,1.2818181818181817,461,0,2,DL_MelancholicFolk_Guitar,6,15,hanamokatanamoMelancholicFolk,0.3879290819168091,0
53,100,0.7227272727272728,752,1,2,DL_MelancholicFolk_Guitar,6,12,hanamokatanamoMelancholicFolk,0.4714069664478302,0
60,100,0.8409090909090909,34,1,3,DL_MelancholicFolk_Guitar,6,13,hanamokatanamoMelancholicFolk,0.9997864365577698,1
60,100,2.6227272727272726,223,0,3,DL_MelancholicFolk_Guitar,6,15,hanamokatanamoMelancholicFolk,0.37827450037002563,0
60,100,0.2,827,1,3,DL_MelancholicFolk_Guitar,6,3,hanamokatanamoMelancholicFolk,0.4892289936542511,0
60,100,0.3181818181818182,194,1,4,DL_MelancholicFolk_Guitar,6,5,hanamokatanamoMelancholicFolk,0.9998366832733154,1
55,100,0.8227272727272728,276,0,4,DL_MelancholicFolk_Guitar,6,13,hanamokatanamoMelancholicFolk,0.17738467454910278,0
62,100,0.7,462,0,4,DL_MelancholicFolk_Guitar,6,11,hanamokatanamoMelancholicFolk,0.21124252676963806,0
65,100,0.1409090909090909,619,0,4,DL_MelancholicFolk_Guitar,6,2,hanamokatanamoMelancholicFolk,0.22569142282009125,0
62,100,0.21818181818181817,682,0,4,DL_MelancholicFolk_Guitar,6,3,hanamokatanamoMelancholicFolk,0.21436946094036102,0
65,100,0.12272727272727273,48,1,5,DL_MelancholicFolk_Guitar,6,2,hanamokatanamoMelancholicFolk,0.9996461868286133,1
62,100,0.5409090909090909,558,1,5,DL_MelancholicFolk_Guitar,6,9,hanamokatanamoMelancholicFolk,0.5366712808609009,0
58,100,0.11818181818181818,128,1,6,DL_MelancholicFolk_Guitar,6,2,hanamokatanamoMelancholicFolk,0.9995957016944885,1
58,100,0.2409090909090909,184,0,6,DL_MelancholicFolk_Guitar,6,4,hanamokatanamoMelancholicFolk,0.5527318120002747,0
58,100,0.1590909090909091,541,1,7,DL_MelancholicFolk_Guitar,6,3,hanamokatanamoMelancholicFolk,0.9923374056816101,1
53,100,0.8227272727272728,620,1,8,DL_MelancholicFolk_Guitar,6,13,hanamokatanamoMelancholicFolk,0.9922469854354858,0
60,100,0.8409090909090909,206,1,9,DL_MelancholicFolk_Guitar,6,13,hanamokatanamoMelancholicFolk,0.9925512075424194,0
60,100,0.4409090909090909,25,1,10,DL_MelancholicFolk_Guitar,6,7,hanamokatanamoMelancholicFolk,0.9931632280349731,0
58,100,0.1,56,1,13,DL_MelancholicFolk_Guitar,6,2,hanamokatanamoMelancholicFolk,0.9998457431793213,1
65,100,0.2409090909090909,409,1,13,DL_MelancholicFolk_Guitar,6,4,hanamokatanamoMelancholicFolk,0.33463209867477417,0
62,100,0.11818181818181818,831,1,13,DL_MelancholicFolk_Guitar,6,2,hanamokatanamoMelancholicFolk,0.28605547547340393,0
62,100,0.12272727272727273,862,0,13,DL_MelancholicFolk_Guitar,6,2,hanamokatanamoMelancholicFolk,0.31579601764678955,0
65,100,0.8590909090909091,166,1,14,DL_MelancholicFolk_Guitar,6,14,hanamokatanamoMelancholicFolk,0.9998131394386292,1
58,100,0.1409090909090909,355,0,14,DL_MelancholicFolk_Guitar,6,2,hanamokatanamoMelancholicFolk,0.22522704303264618,0
58,100,0.1,391,0,14,DL_MelancholicFolk_Guitar,6,2,hanamokatanamoMelancholicFolk,0.20903854072093964,0
65,100,0.1,465,0,14,DL_MelancholicFolk_Guitar,6,2,hanamokatanamoMelancholicFolk,0.2339647263288498,0
58,100,0.4636363636363636,795,1,14,DL_MelancholicFolk_Guitar,6,7,hanamokatanamoMelancholicFolk,0.20084752142429352,0
65,100,0.2,44,1,15,DL_MelancholicFolk_Guitar,6,3,hanamokatanamoMelancholicFolk,0.9998489618301392,1
58,100,0.7,106,0,15,DL_MelancholicFolk_Guitar,6,11,hanamokatanamoMelancholicFolk,0.290341317653656,0
58,100,0.4818181818181818,422,1,15,DL_MelancholicFolk_Guitar,6,8,hanamokatanamoMelancholicFolk,0.307298868894577,0
65,100,0.8409090909090909,716,1,15,DL_MelancholicFolk_Guitar,6,13,hanamokatanamoMelancholicFolk,0.33052271604537964,0
65,100,0.2,113,1,17,DL_MelancholicFolk_Guitar,6,3,hanamokatanamoMelancholicFolk,0.9996546506881714,1
65,100,0.18181818181818182,223,0,17,DL_MelancholicFolk_Guitar,6,3,hanamokatanamoMelancholicFolk,0.5459969639778137,0
65,100,1.459090909090909,515,1,18,DL_MelancholicFolk_Guitar,6,15,hanamokatanamoMelancholicFolk,0.9909548163414001,0
58,100,0.6181818181818182,457,1,19,DL_MelancholicFolk_Guitar,6,10,hanamokatanamoMelancholicFolk,0.9997902512550354,1
53,100,0.8409090909090909,598,0,19,DL_MelancholicFolk_Guitar,6,13,hanamokatanamoMelancholicFolk,0.4273529350757599,0
53,100,0.18181818181818182,858,1,19,DL_MelancholicFolk_Guitar,6,3,hanamokatanamoMelancholicFolk,0.4522154927253723,0
65,100,0.12272727272727273,48,1,20,DL_MelancholicFolk_Guitar,6,2,hanamokatanamoMelancholicFolk,0.9998582601547241,1
53,100,0.4,75,0,20,DL_MelancholicFolk_Guitar,6,6,hanamokatanamoMelancholicFolk,0.30278098583221436,0
65,100,0.23636363636363636,171,0,20,DL_MelancholicFolk_Guitar,6,4,hanamokatanamoMelancholicFolk,0.2933328449726105,0
65,100,0.3409090909090909,691,1,20,DL_MelancholicFolk_Guitar,6,5,hanamokatanamoMelancholicFolk,0.3066915273666382,0
70,100,0.740909090909091,581,1,21,DL_MelancholicFolk_Guitar,6,12,hanamokatanamoMelancholicFolk,0.9912617206573486,0
58,100,0.35909090909090907,52,1,22,DL_MelancholicFolk_Guitar,6,6,hanamokatanamoMelancholicFolk,0.9997736811637878,1
65,100,0.8590909090909091,229,0,22,DL_MelancholicFolk_Guitar,6,14,hanamokatanamoMelancholicFolk,0.12940853834152222,0
63,100,0.12272727272727273,422,0,22,DL_MelancholicFolk_Guitar,6,2,hanamokatanamoMelancholicFolk,0.13248132169246674,0
53,100,0.3181818181818182,461,0,22,DL_MelancholicFolk_Guitar,6,5,hanamokatanamoMelancholicFolk,0.1423989236354828,0
53,100,0.1,540,0,22,DL_MelancholicFolk_Guitar,6,2,hanamokatanamoMelancholicFolk,0.15196801722049713,0
60,100,0.1,835,1,22,DL_MelancholicFolk_Guitar,6,2,hanamokatanamoMelancholicFolk,0.13633041083812714,0
65,100,0.33636363636363636,193,1,23,DL_MelancholicFolk_Guitar,6,5,hanamokatanamoMelancholicFolk,0.999830961227417,1
55,100,0.6,370,0,23,DL_MelancholicFolk_Guitar,6,10,hanamokatanamoMelancholicFolk,0.19927389919757843,0
55,100,0.11818181818181818,546,0,23,DL_MelancholicFolk_Guitar,6,2,hanamokatanamoMelancholicFolk,0.21157588064670563,0
53,100,0.1590909090909091,625,0,23,DL_MelancholicFolk_Guitar,6,3,hanamokatanamoMelancholicFolk,0.2216099351644516,0
65,100,1.240909090909091,663,0,23,DL_MelancholicFolk_Guitar,6,15,hanamokatanamoMelancholicFolk,0.1936381310224533,0
53,100,0.1,65,1,24,DL_MelancholicFolk_Guitar,6,2,hanamokatanamoMelancholicFolk,0.999832272529602,1
65,100,1.1,395,1,24,DL_MelancholicFolk_Guitar,6,15,hanamokatanamoMelancholicFolk,0.3739684820175171,0
65,100,0.21818181818181817,656,1,24,DL_MelancholicFolk_Guitar,6,3,hanamokatanamoMelancholicFolk,0.4518980085849762,0
58,100,0.2590909090909091,83,1,25,DL_MelancholicFolk_Guitar,6,4,hanamokatanamoMelancholicFolk,0.9998291730880737,1
65,100,0.43636363636363634,171,0,25,DL_MelancholicFolk_Guitar,6,7,hanamokatanamoMelancholicFolk,0.33512523770332336,0
53,100,0.2409090909090909,409,1,25,DL_MelancholicFolk_Guitar,6,4,hanamokatanamoMelancholicFolk,0.30267074704170227,0
60,100,0.2409090909090909,712,1,25,DL_MelancholicFolk_Guitar,6,4,hanamokatanamoMelancholicFolk,0.3149195909500122,0
69,100,0.2636363636363636,48,1,26,DL_MelancholicFolk_Guitar,6,4,hanamokatanamoMelancholicFolk,0.9997643828392029,1
53,100,0.2818181818181818,241,0,26,DL_MelancholicFolk_Guitar,6,5,hanamokatanamoMelancholicFolk,0.08263884484767914,0
53,100,0.35909090909090907,480,1,26,DL_MelancholicFolk_Guitar,6,6,hanamokatanamoMelancholicFolk,0.0741269588470459,0
58,100,0.5,590,0,26,DL_MelancholicFolk_Guitar,6,8,hanamokatanamoMelancholicFolk,0.07412844896316528,0
53,100,0.2818181818181818,729,0,26,DL_MelancholicFolk_Guitar,6,5,hanamokatanamoMelancholicFolk,0.09832443296909332,0
65,100,0.11818181818181818,791,0,26,DL_MelancholicFolk_Guitar,6,2,hanamokatanamoMelancholicFolk,0.09579179435968399,0
53,100,0.16363636363636364,818,0,26,DL_MelancholicFolk_Guitar,6,3,hanamokatanamoMelancholicFolk,0.08722055703401566,0
65,100,1.1409090909090909,88,1,28,DL_MelancholicFolk_Guitar,6,15,hanamokatanamoMelancholicFolk,0.9995319843292236,1
53,100,0.1409090909090909,339,1,28,DL_MelancholicFolk_Guitar,6,2,hanamokatanamoMelancholicFolk,0.5801246166229248,0
55,100,1.059090909090909,254,1,29,DL_MelancholicFolk_Guitar,6,15,hanamokatanamoMelancholicFolk,0.9997735619544983,1
58,100,0.5,523,1,29,DL_MelancholicFolk_Guitar,6,8,hanamokatanamoMelancholicFolk,0.4359138607978821,0
65,100,0.5,694,0,29,DL_MelancholicFolk_Guitar,6,8,hanamokatanamoMelancholicFolk,0.45714494585990906,0
65,100,0.17727272727272728,391,1,30,DL_MelancholicFolk_Guitar,6,3,hanamokatanamoMelancholicFolk,0.9998561143875122,1
53,100,0.18181818181818182,430,0,30,DL_MelancholicFolk_Guitar,6,3,hanamokatanamoMelancholicFolk,0.32216450572013855,0
65,100,0.1409090909090909,470,0,30,DL_MelancholicFolk_Guitar,6,2,hanamokatanamoMelancholicFolk,0.28722816705703735,0
53,100,0.2590909090909091,501,0,30,DL_MelancholicFolk_Guitar,6,4,hanamokatanamoMelancholicFolk,0.30004605650901794,0
58,100,0.6363636363636364,40,1,31,DL_MelancholicFolk_Guitar,6,10,hanamokatanamoMelancholicFolk,0.9998000264167786,1
65,100,0.1,254,0,31,DL_MelancholicFolk_Guitar,6,2,hanamokatanamoMelancholicFolk,0.2473127692937851,0
53,100,0.13636363636363635,303,0,31,DL_MelancholicFolk_Guitar,6,2,hanamokatanamoMelancholicFolk,0.19467192888259888,0
60,100,0.1590909090909091,791,1,31,DL_MelancholicFolk_Guitar,6,3,hanamokatanamoMelancholicFolk,0.2112477570772171,0
65,100,0.1,870,0,31,DL_MelancholicFolk_Guitar,6,2,hanamokatanamoMelancholicFolk,0.20580214262008667,0
65,100,0.22272727272727272,641,1,32,DL_MelancholicFolk_Guitar,6,4,hanamokatanamoMelancholicFolk,0.999829888343811,1
58,100,0.1590909090909091,765,0,32,DL_MelancholicFolk_Guitar,6,3,hanamokatanamoMelancholicFolk,0.4091918468475342,0
55,100,1.1409090909090909,818,0,32,DL_MelancholicFolk_Guitar,6,15,hanamokatanamoMelancholicFolk,0.41038742661476135,0
53,100,0.11818181818181818,193,1,33,DL_MelancholicFolk_Guitar,6,2,hanamokatanamoMelancholicFolk,0.9998568296432495,1
53,100,0.1409090909090909,361,0,33,DL_MelancholicFolk_Guitar,6,2,hanamokatanamoMelancholicFolk,0.3120478093624115,0
53,100,0.1409090909090909,453,0,33,DL_MelancholicFolk_Guitar,6,2,hanamokatanamoMelancholicFolk,0.28867965936660767,0
63,100,0.2772727272727273,765,1,33,DL_MelancholicFolk_Guitar,6,4,hanamokatanamoMelancholicFolk,0.30060261487960815,0
55,100,0.32272727272727275,48,1,34,DL_MelancholicFolk_Guitar,6,5,hanamokatanamoMelancholicFolk,0.9997500777244568,1
55,100,0.6,136,0,34,DL_MelancholicFolk_Guitar,6,10,hanamokatanamoMelancholicFolk,0.07553816586732864,0
62,100,0.4818181818181818,298,0,34,DL_MelancholicFolk_Guitar,6,8,hanamokatanamoMelancholicFolk,0.07870252430438995,0
60,100,0.6409090909090909,616,1,34,DL_MelancholicFolk_Guitar,6,10,hanamokatanamoMelancholicFolk,0.08078573644161224,0
53,100,0.1590909090909091,765,0,34,DL_MelancholicFolk_Guitar,6,3,hanamokatanamoMelancholicFolk,0.10094437748193741,0
65,100,0.17727272727272728,801,0,34,DL_MelancholicFolk_Guitar,6,3,hanamokatanamoMelancholicFolk,0.09798964112997055,0
53,100,0.2,861,0,34,DL_MelancholicFolk_Guitar,6,3,hanamokatanamoMelancholicFolk,0.09244933724403381,0
65,100,0.6227272727272727,56,1,35,DL_MelancholicFolk_Guitar,6,10,hanamokatanamoMelancholicFolk,0.9997958540916443,1
65,100,0.1409090909090909,211,0,35,DL_MelancholicFolk_Guitar,6,2,hanamokatanamoMelancholicFolk,0.13182486593723297,0
65,100,0.6818181818181818,378,0,35,DL_MelancholicFolk_Guitar,6,11,hanamokatanamoMelancholicFolk,0.11756614595651627,0
65,100,0.2,584,0,35,DL_MelancholicFolk_Guitar,6,3,hanamokatanamoMelancholicFolk,0.14549770951271057,0
53,100,0.2409090909090909,628,0,35,DL_MelancholicFolk_Guitar,6,4,hanamokatanamoMelancholicFolk,0.14353786408901215,0
53,100,0.8363636363636363,765,0,35,DL_MelancholicFolk_Guitar,6,13,hanamokatanamoMelancholicFolk,0.13111506402492523,0
53,100,0.1590909090909091,118,1,36,DL_MelancholicFolk_Guitar,6,3,hanamokatanamoMelancholicFolk,0.999828577041626,1
53,100,0.22272727272727272,311,0,36,DL_MelancholicFolk_Guitar,6,4,hanamokatanamoMelancholicFolk,0.4137097895145416,0
53,100,0.9409090909090909,474,0,36,DL_MelancholicFolk_Guitar,6,15,hanamokatanamoMelancholicFolk,0.4090869128704071,0
53,100,0.17727272727272728,523,1,37,DL_MelancholicFolk_Guitar,6,3,hanamokatanamoMelancholicFolk,0.9996495246887207,1
60,100,0.11818181818181818,611,0,37,DL_MelancholicFolk_Guitar,6,2,hanamokatanamoMelancholicFolk,0.5497515797615051,0
65,100,0.2,0,1,38,DL_MelancholicFolk_Guitar,6,3,hanamokatanamoMelancholicFolk,0.9997672438621521,1
58,100,0.4636363636363636,69,0,38,DL_MelancholicFolk_Guitar,6,7,hanamokatanamoMelancholicFolk,0.07180558145046234,0
65,100,0.18181818181818182,268,0,38,DL_MelancholicFolk_Guitar,6,3,hanamokatanamoMelancholicFolk,0.08173276484012604,0
65,100,0.3181818181818182,625,1,38,DL_MelancholicFolk_Guitar,6,5,hanamokatanamoMelancholicFolk,0.08130785077810287,0
65,100,0.2,756,0,38,DL_MelancholicFolk_Guitar,6,3,hanamokatanamoMelancholicFolk,0.09232693910598755,0
65,100,0.11818181818181818,813,0,38,DL_MelancholicFolk_Guitar,6,2,hanamokatanamoMelancholicFolk,0.09772208333015442,0
65,100,0.2,845,0,38,DL_MelancholicFolk_Guitar,6,3,hanamokatanamoMelancholicFolk,0.08505829423666,0
65,100,1.518181818181818,53,1,39,DL_MelancholicFolk_Guitar,6,15,hanamokatanamoMelancholicFolk,0.9997828602790833,1
53,100,0.4,444,1,39,DL_MelancholicFolk_Guitar,6,6,hanamokatanamoMelancholicFolk,0.25023993849754333,0
65,100,0.4,531,0,39,DL_MelancholicFolk_Guitar,6,6,hanamokatanamoMelancholicFolk,0.2024291604757309,0
60,100,0.22272727272727272,694,0,39,DL_MelancholicFolk_Guitar,6,4,hanamokatanamoMelancholicFolk,0.22216840088367462,0
60,100,0.21818181818181817,748,0,39,DL_MelancholicFolk_Guitar,6,3,hanamokatanamoMelancholicFolk,0.21424703299999237,0
65,100,0.2,61,1,40,DL_MelancholicFolk_Guitar,6,3,hanamokatanamoMelancholicFolk,0.9998396635055542,1
65,100,0.11818181818181818,206,0,40,DL_MelancholicFolk_Guitar,6,2,hanamokatanamoMelancholicFolk,0.21618184447288513,0
53,100,0.22272727272727272,651,1,40,DL_MelancholicFolk_Guitar,6,4,hanamokatanamoMelancholicFolk,0.19865624606609344,0
65,100,0.37727272727272726,700,0,40,DL_MelancholicFolk_Guitar,6,6,hanamokatanamoMelancholicFolk,0.20394562184810638,0
55,100,1.3409090909090908,813,0,40,DL_MelancholicFolk_Guitar,6,15,hanamokatanamoMelancholicFolk,0.18980737030506134,0
58,100,0.7227272727272728,246,1,41,DL_MelancholicFolk_Guitar,6,12,hanamokatanamoMelancholicFolk,0.9997797608375549,1
58,100,0.4,550,1,41,DL_MelancholicFolk_Guitar,6,6,hanamokatanamoMelancholicFolk,0.4448372721672058,0
55,100,0.6590909090909091,735,0,41,DL_MelancholicFolk_Guitar,6,11,hanamokatanamoMelancholicFolk,0.4410543143749237,0
65,100,0.11818181818181818,131,1,42,DL_MelancholicFolk_Guitar,6,2,hanamokatanamoMelancholicFolk,0.9998403787612915,1
58,100,0.18181818181818182,179,0,42,DL_MelancholicFolk_Guitar,6,3,hanamokatanamoMelancholicFolk,0.19535234570503235,0
65,100,0.35909090909090907,228,0,42,DL_MelancholicFolk_Guitar,6,6,hanamokatanamoMelancholicFolk,0.20636945962905884,0
63,100,0.2818181818181818,334,0,42,DL_MelancholicFolk_Guitar,6,5,hanamokatanamoMelancholicFolk,0.21276594698429108,0
58,100,0.13636363636363635,545,0,42,DL_MelancholicFolk_Guitar,6,2,hanamokatanamoMelancholicFolk,0.20637600123882294,0
63,100,0.11818181818181818,241,1,43,DL_MelancholicFolk_Guitar,6,2,hanamokatanamoMelancholicFolk,0.9998514652252197,1
58,100,0.35909090909090907,581,1,43,DL_MelancholicFolk_Guitar,6,6,hanamokatanamoMelancholicFolk,0.3012244999408722,0
65,100,0.12272727272727273,694,0,43,DL_MelancholicFolk_Guitar,6,2,hanamokatanamoMelancholicFolk,0.32700029015541077,0
55,100,1.040909090909091,756,0,43,DL_MelancholicFolk_Guitar,6,15,hanamokatanamoMelancholicFolk,0.29181209206581116,0
55,100,0.4,364,1,44,DL_MelancholicFolk_Guitar,6,6,hanamokatanamoMelancholicFolk,0.9998114705085754,1
58,100,0.2409090909090909,606,1,44,DL_MelancholicFolk_Guitar,6,4,hanamokatanamoMelancholicFolk,0.42493560910224915,0
58,100,0.6181818181818182,836,0,44,DL_MelancholicFolk_Guitar,6,10,hanamokatanamoMelancholicFolk,0.4213387370109558,0
53,100,0.1590909090909091,101,1,45,DL_MelancholicFolk_Guitar,6,3,hanamokatanamoMelancholicFolk,0.9997721314430237,1
65,100,0.3,136,0,45,DL_MelancholicFolk_Guitar,6,5,hanamokatanamoMelancholicFolk,0.07698458433151245,0
58,100,0.1409090909090909,220,0,45,DL_MelancholicFolk_Guitar,6,2,hanamokatanamoMelancholicFolk,0.07199504226446152,0
65,100,0.740909090909091,298,0,45,DL_MelancholicFolk_Guitar,6,12,hanamokatanamoMelancholicFolk,0.07956579327583313,0
65,100,0.5227272727272727,466,0,45,DL_MelancholicFolk_Guitar,6,8,hanamokatanamoMelancholicFolk,0.09766531735658646,0
53,100,0.1590909090909091,584,0,45,DL_MelancholicFolk_Guitar,6,3,hanamokatanamoMelancholicFolk,0.10199412703514099,0
65,100,0.4818181818181818,628,0,45,DL_MelancholicFolk_Guitar,6,8,hanamokatanamoMelancholicFolk,0.08741255104541779,0
60,100,0.8772727272727273,8,1,46,DL_MelancholicFolk_Guitar,6,14,hanamokatanamoMelancholicFolk,0.9998026490211487,1
60,100,0.5818181818181818,373,1,46,DL_MelancholicFolk_Guitar,6,9,hanamokatanamoMelancholicFolk,0.4355388581752777,0
53,100,0.4,515,0,46,DL_MelancholicFolk_Guitar,6,6,hanamokatanamoMelancholicFolk,0.43502986431121826,0
58,100,0.12272727272727273,276,1,47,DL_MelancholicFolk_Guitar,6,2,hanamokatanamoMelancholicFolk,0.9996010661125183,1
65,100,0.16363636363636364,774,1,47,DL_MelancholicFolk_Guitar,6,3,hanamokatanamoMelancholicFolk,0.5618607401847839,0
58,100,0.6227272727272727,48,1,48,DL_MelancholicFolk_Guitar,6,10,hanamokatanamoMelancholicFolk,0.9997676014900208,1
53,100,0.4,188,0,48,DL_MelancholicFolk_Guitar,6,6,hanamokatanamoMelancholicFolk,0.14072875678539276,0
60,100,0.5,413,0,48,DL_MelancholicFolk_Guitar,6,8,hanamokatanamoMelancholicFolk,0.12288131564855576,0
53,100,0.2772727272727273,603,0,48,DL_MelancholicFolk_Guitar,6,4,hanamokatanamoMelancholicFolk,0.13883300125598907,0
53,100,0.2,668,0,48,DL_MelancholicFolk_Guitar,6,3,hanamokatanamoMelancholicFolk,0.14632678031921387,0
65,100,0.12272727272727273,716,0,48,DL_MelancholicFolk_Guitar,6,2,hanamokatanamoMelancholicFolk,0.14061148464679718,0
65,100,0.21818181818181817,40,1,49,DL_MelancholicFolk_Guitar,6,3,hanamokatanamoMelancholicFolk,0.9997223019599915,1
53,100,0.8181818181818182,96,0,49,DL_MelancholicFolk_Guitar,6,13,hanamokatanamoMelancholicFolk,0.05297105386853218,0
65,100,0.11818181818181818,281,0,49,DL_MelancholicFolk_Guitar,6,2,hanamokatanamoMelancholicFolk,0.05166676267981529,0
53,100,0.4409090909090909,351,0,49,DL_MelancholicFolk_Guitar,6,7,hanamokatanamoMelancholicFolk,0.04682065173983574,0
53,100,0.23636363636363636,458,0,49,DL_MelancholicFolk_Guitar,6,4,hanamokatanamoMelancholicFolk,0.05505529046058655,0
65,100,0.12272727272727273,509,0,49,DL_MelancholicFolk_Guitar,6,2,hanamokatanamoMelancholicFolk,0.06456148624420166,0
58,100,0.35909090909090907,651,0,49,DL_MelancholicFolk_Guitar,6,6,hanamokatanamoMelancholicFolk,0.061706654727458954,0
65,100,0.1409090909090909,791,0,49,DL_MelancholicFolk_Guitar,6,2,hanamokatanamoMelancholicFolk,0.06566411256790161,0
58,100,0.5409090909090909,716,1,50,DL_MelancholicFolk_Guitar,6,9,hanamokatanamoMelancholicFolk,0.9995667338371277,1
53,100,0.1409090909090909,858,0,50,DL_MelancholicFolk_Guitar,6,2,hanamokatanamoMelancholicFolk,0.5695624351501465,0
58,100,0.17727272727272728,8,1,51,DL_MelancholicFolk_Guitar,6,3,hanamokatanamoMelancholicFolk,0.9997890591621399,1
53,100,0.2,48,0,51,DL_MelancholicFolk_Guitar,6,3,hanamokatanamoMelancholicFolk,0.13988171517848969,0
58,100,0.11818181818181818,96,0,51,DL_MelancholicFolk_Guitar,6,2,hanamokatanamoMelancholicFolk,0.1168108806014061,0
53,100,0.21818181818181817,448,1,51,DL_MelancholicFolk_Guitar,6,3,hanamokatanamoMelancholicFolk,0.13996417820453644,0
53,100,0.17727272727272728,523,0,51,DL_MelancholicFolk_Guitar,6,3,hanamokatanamoMelancholicFolk,0.14353595674037933,0
53,100,0.35909090909090907,568,0,51,DL_MelancholicFolk_Guitar,6,6,hanamokatanamoMelancholicFolk,0.13251304626464844,0
62,100,0.1590909090909091,153,1,52,DL_MelancholicFolk_Guitar,6,3,hanamokatanamoMelancholicFolk,0.9998619556427002,1
60,100,0.12272727272727273,268,0,52,DL_MelancholicFolk_Guitar,6,2,hanamokatanamoMelancholicFolk,0.32190975546836853,0
62,100,0.18181818181818182,466,0,52,DL_MelancholicFolk_Guitar,6,3,hanamokatanamoMelancholicFolk,0.29175689816474915,0
60,100,0.5409090909090909,598,0,52,DL_MelancholicFolk_Guitar,6,9,hanamokatanamoMelancholicFolk,0.2948773503303528,0
65,100,0.21818181818181817,96,1,53,DL_MelancholicFolk_Guitar,6,3,hanamokatanamoMelancholicFolk,0.9998134970664978,1
53,100,0.18181818181818182,224,0,53,DL_MelancholicFolk_Guitar,6,3,hanamokatanamoMelancholicFolk,0.12809360027313232,0
65,100,0.1,263,0,53,DL_MelancholicFolk_Guitar,6,2,hanamokatanamoMelancholicFolk,0.11966493725776672,0
65,100,0.2,399,0,53,DL_MelancholicFolk_Guitar,6,3,hanamokatanamoMelancholicFolk,0.131924107670784,0
65,100,0.21818181818181817,515,0,53,DL_MelancholicFolk_Guitar,6,3,hanamokatanamoMelancholicFolk,0.14042897522449493,0
65,100,0.8227272727272728,619,0,53,DL_MelancholicFolk_Guitar,6,13,hanamokatanamoMelancholicFolk,0.12400010228157043,0
65,100,0.2818181818181818,0,1,54,DL_MelancholicFolk_Guitar,6,5,hanamokatanamoMelancholicFolk,0.9996997117996216,1
53,100,0.16363636363636364,69,0,54,DL_MelancholicFolk_Guitar,6,3,hanamokatanamoMelancholicFolk,0.043399590998888016,0
65,100,0.21818181818181817,141,0,54,DL_MelancholicFolk_Guitar,6,3,hanamokatanamoMelancholicFolk,0.03283002972602844,0
53,100,0.7181818181818181,215,0,54,DL_MelancholicFolk_Guitar,6,11,hanamokatanamoMelancholicFolk,0.027998190373182297,0
53,100,0.37727272727272726,391,0,54,DL_MelancholicFolk_Guitar,6,6,hanamokatanamoMelancholicFolk,0.032617710530757904,0
53,100,0.2590909090909091,501,0,54,DL_MelancholicFolk_Guitar,6,4,hanamokatanamoMelancholicFolk,0.03500641509890556,0
60,100,0.1409090909090909,606,0,54,DL_MelancholicFolk_Guitar,6,2,hanamokatanamoMelancholicFolk,0.042108725756406784,0
55,100,0.1409090909090909,735,0,54,DL_MelancholicFolk_Guitar,6,2,hanamokatanamoMelancholicFolk,0.047057002782821655,0
65,100,0.11818181818181818,823,0,54,DL_MelancholicFolk_Guitar,6,2,hanamokatanamoMelancholicFolk,0.04732593148946762,0
65,100,0.6772727272727272,171,1,55,DL_MelancholicFolk_Guitar,6,11,hanamokatanamoMelancholicFolk,0.9998078942298889,1
55,100,0.2590909090909091,338,0,55,DL_MelancholicFolk_Guitar,6,4,hanamokatanamoMelancholicFolk,0.4335485100746155,0
55,100,0.21818181818181817,413,0,55,DL_MelancholicFolk_Guitar,6,3,hanamokatanamoMelancholicFolk,0.43024009466171265,0
53,100,0.17727272727272728,75,1,56,DL_MelancholicFolk_Guitar,6,3,hanamokatanamoMelancholicFolk,0.9998065829277039,1
58,100,0.2,114,0,56,DL_MelancholicFolk_Guitar,6,3,hanamokatanamoMelancholicFolk,0.12033004313707352,0
58,100,0.18181818181818182,179,0,56,DL_MelancholicFolk_Guitar,6,3,hanamokatanamoMelancholicFolk,0.12306972593069077,0
58,100,0.18181818181818182,483,1,56,DL_MelancholicFolk_Guitar,6,3,hanamokatanamoMelancholicFolk,0.14025992155075073,0
65,100,0.21818181818181817,616,0,56,DL_MelancholicFolk_Guitar,6,3,hanamokatanamoMelancholicFolk,0.15197578072547913,0
65,100,0.1409090909090909,845,0,56,DL_MelancholicFolk_Guitar,6,2,hanamokatanamoMelancholicFolk,0.14007049798965454,0
60,100,0.41818181818181815,8,1,57,DL_MelancholicFolk_Guitar,6,7,hanamokatanamoMelancholicFolk,0.9998536109924316,1
65,100,0.12272727272727273,334,1,57,DL_MelancholicFolk_Guitar,6,2,hanamokatanamoMelancholicFolk,0.33109739422798157,0
53,100,0.3,488,0,57,DL_MelancholicFolk_Guitar,6,5,hanamokatanamoMelancholicFolk,0.2879951596260071,0
60,100,0.1409090909090909,593,0,57,DL_MelancholicFolk_Guitar,6,2,hanamokatanamoMelancholicFolk,0.3023887872695923,0
65,100,0.2409090909090909,91,1,58,DL_MelancholicFolk_Guitar,6,4,hanamokatanamoMelancholicFolk,0.999854326248169,1
65,100,0.11818181818181818,163,0,58,DL_MelancholicFolk_Guitar,6,2,hanamokatanamoMelancholicFolk,0.33139386773109436,0
62,100,0.21818181818181817,325,0,58,DL_MelancholicFolk_Guitar,6,3,hanamokatanamoMelancholicFolk,0.2936452031135559,0
60,100,1.440909090909091,418,0,58,DL_MelancholicFolk_Guitar,6,15,hanamokatanamoMelancholicFolk,0.2895294725894928,0
65,100,0.18181818181818182,123,1,59,DL_MelancholicFolk_Guitar,6,3,hanamokatanamoMelancholicFolk,0.999625563621521,1
58,100,0.2818181818181818,751,1,59,DL_MelancholicFolk_Guitar,6,5,hanamokatanamoMelancholicFolk,0.5418592691421509,0
60,100,0.11818181818181818,21,1,60,DL_MelancholicFolk_Guitar,6,2,hanamokatanamoMelancholicFolk,0.999747097492218,1
53,100,0.1,91,0,60,DL_MelancholicFolk_Guitar,6,2,hanamokatanamoMelancholicFolk,0.053519949316978455,0
53,100,0.1409090909090909,131,0,60,DL_MelancholicFolk_Guitar,6,2,hanamokatanamoMelancholicFolk,0.04594643414020538,0
60,100,0.4,176,0,60,DL_MelancholicFolk_Guitar,6,6,hanamokatanamoMelancholicFolk,0.045481570065021515,0
53,100,0.1590909090909091,263,0,60,DL_MelancholicFolk_Guitar,6,3,hanamokatanamoMelancholicFolk,0.052074652165174484,0
53,100,0.21818181818181817,330,0,60,DL_MelancholicFolk_Guitar,6,3,hanamokatanamoMelancholicFolk,0.059050552546978,0
53,100,0.1590909090909091,426,0,60,DL_MelancholicFolk_Guitar,6,3,hanamokatanamoMelancholicFolk,0.06650086492300034,0
55,100,0.41818181818181815,646,0,60,DL_MelancholicFolk_Guitar,6,7,hanamokatanamoMelancholicFolk,0.05680723488330841,0
58,100,0.12272727272727273,246,1,61,DL_MelancholicFolk_Guitar,6,2,hanamokatanamoMelancholicFolk,0.9998409748077393,1
60,100,0.5409090909090909,541,1,61,DL_MelancholicFolk_Guitar,6,9,hanamokatanamoMelancholicFolk,0.3205031156539917,0
60,100,0.7636363636363637,664,0,61,DL_MelancholicFolk_Guitar,6,12,hanamokatanamoMelancholicFolk,0.29589933156967163,0
53,100,0.16363636363636364,839,0,61,DL_MelancholicFolk_Guitar,6,3,hanamokatanamoMelancholicFolk,0.32430365681648254,0
57,100,0.17727272727272728,61,1,62,DL_MelancholicFolk_Guitar,6,3,hanamokatanamoMelancholicFolk,0.9998204112052917,1
58,100,0.11818181818181818,418,1,62,DL_MelancholicFolk_Guitar,6,2,hanamokatanamoMelancholicFolk,0.41370823979377747,0
58,100,0.2,853,1,62,DL_MelancholicFolk_Guitar,6,3,hanamokatanamoMelancholicFolk,0.4267016649246216,0
65,100,0.18181818181818182,408,1,63,DL_MelancholicFolk_Guitar,6,3,hanamokatanamoMelancholicFolk,0.9996544122695923,1
53,100,0.16363636363636364,509,0,63,DL_MelancholicFolk_Guitar,6,3,hanamokatanamoMelancholicFolk,0.5487736463546753,0
53,100,0.1590909090909091,286,1,64,DL_MelancholicFolk_Guitar,6,3,hanamokatanamoMelancholicFolk,0.9997733235359192,1
65,100,0.11818181818181818,370,0,64,DL_MelancholicFolk_Guitar,6,2,hanamokatanamoMelancholicFolk,0.07749027013778687,0
65,100,0.11818181818181818,413,0,64,DL_MelancholicFolk_Guitar,6,2,hanamokatanamoMelancholicFolk,0.07156071811914444,0
53,100,0.1409090909090909,440,0,64,DL_MelancholicFolk_Guitar,6,2,hanamokatanamoMelancholicFolk,0.07772033661603928,0
60,100,0.4,502,0,64,DL_MelancholicFolk_Guitar,6,6,hanamokatanamoMelancholicFolk,0.08548415452241898,0
53,100,0.35909090909090907,760,1,64,DL_MelancholicFolk_Guitar,6,6,hanamokatanamoMelancholicFolk,0.09528273344039917,0
65,100,0.18181818181818182,839,0,64,DL_MelancholicFolk_Guitar,6,3,hanamokatanamoMelancholicFolk,0.08428487926721573,0
58,100,0.35909090909090907,760,1,65,DL_MelancholicFolk_Guitar,6,6,hanamokatanamoMelancholicFolk,0.9995946288108826,1
58,100,0.16363636363636364,862,0,65,DL_MelancholicFolk_Guitar,6,3,hanamokatanamoMelancholicFolk,0.5544465184211731,0
58,100,0.7,106,1,66,DL_MelancholicFolk_Guitar,6,11,hanamokatanamoMelancholicFolk,0.9998195767402649,1
63,100,0.18181818181818182,333,0,66,DL_MelancholicFolk_Guitar,6,3,hanamokatanamoMelancholicFolk,0.35735371708869934,0
53,100,0.17727272727272728,436,0,66,DL_MelancholicFolk_Guitar,6,3,hanamokatanamoMelancholicFolk,0.30643826723098755,0
53,100,0.2590909090909091,519,0,66,DL_MelancholicFolk_Guitar,6,4,hanamokatanamoMelancholicFolk,0.31414613127708435,0
53,100,0.2,127,1,67,DL_MelancholicFolk_Guitar,6,3,hanamokatanamoMelancholicFolk,0.9998493194580078,1
65,100,0.13636363636363635,172,0,67,DL_MelancholicFolk_Guitar,6,2,hanamokatanamoMelancholicFolk,0.33555322885513306,0
53,100,0.12272727272727273,202,0,67,DL_MelancholicFolk_Guitar,6,2,hanamokatanamoMelancholicFolk,0.28754767775535583,0
53,100,0.8409090909090909,862,1,67,DL_MelancholicFolk_Guitar,6,13,hanamokatanamoMelancholicFolk,0.29542797803878784,0
65,100,0.11818181818181818,193,1,68,DL_MelancholicFolk_Guitar,6,2,hanamokatanamoMelancholicFolk,0.9998430013656616,1
65,100,0.2636363636363636,223,0,68,DL_MelancholicFolk_Guitar,6,4,hanamokatanamoMelancholicFolk,0.20820662379264832,0
65,100,0.2,286,0,68,DL_MelancholicFolk_Guitar,6,3,hanamokatanamoMelancholicFolk,0.19756712019443512,0
65,100,0.1,399,0,68,DL_MelancholicFolk_Guitar,6,2,hanamokatanamoMelancholicFolk,0.20787975192070007,0
65,100,1.2227272727272727,487,0,68,DL_MelancholicFolk_Guitar,6,15,hanamokatanamoMelancholicFolk,0.18736155331134796,0
65,100,1.0772727272727274,140,1,69,DL_MelancholicFolk_Guitar,6,15,hanamokatanamoMelancholicFolk,0.9995255470275879,1
58,100,0.1590909090909091,493,1,69,DL_MelancholicFolk_Guitar,6,3,hanamokatanamoMelancholicFolk,0.5729659795761108,0
65,100,0.12272727272727273,320,1,70,DL_MelancholicFolk_Guitar,6,2,hanamokatanamoMelancholicFolk,0.9998432397842407,1
65,100,0.1590909090909091,352,0,70,DL_MelancholicFolk_Guitar,6,3,hanamokatanamoMelancholicFolk,0.21396154165267944,0
65,100,0.2818181818181818,409,0,70,DL_MelancholicFolk_Guitar,6,5,hanamokatanamoMelancholicFolk,0.20449042320251465,0
58,100,1.3772727272727272,470,0,70,DL_MelancholicFolk_Guitar,6,15,hanamokatanamoMelancholicFolk,0.18434301018714905,0
60,100,1.518181818181818,787,1,70,DL_MelancholicFolk_Guitar,6,15,hanamokatanamoMelancholicFolk,0.2241518646478653,0
65,100,0.6,276,1,71,DL_MelancholicFolk_Guitar,6,10,hanamokatanamoMelancholicFolk,0.9998045563697815,1
65,100,0.6,430,0,71,DL_MelancholicFolk_Guitar,6,10,hanamokatanamoMelancholicFolk,0.42623013257980347,0
65,100,1.3636363636363635,576,0,71,DL_MelancholicFolk_Guitar,6,15,hanamokatanamoMelancholicFolk,0.41763997077941895,0
60,100,1.3,0,1,72,DL_MelancholicFolk_Guitar,6,15,hanamokatanamoMelancholicFolk,0.9997630715370178,1
58,100,1.2227272727272727,333,1,72,DL_MelancholicFolk_Guitar,6,15,hanamokatanamoMelancholicFolk,0.41195252537727356,0
55,100,0.1,663,1,72,DL_MelancholicFolk_Guitar,6,2,hanamokatanamoMelancholicFolk,0.48451367020606995,0
62,100,1.518181818181818,83,1,73,DL_MelancholicFolk_Guitar,6,15,hanamokatanamoMelancholicFolk,0.999797523021698,1
55,100,0.7,426,1,73,DL_MelancholicFolk_Guitar,6,11,hanamokatanamoMelancholicFolk,0.3743053376674652,0
65,100,0.2,663,1,73,DL_MelancholicFolk_Guitar,6,3,hanamokatanamoMelancholicFolk,0.3269641399383545,0
53,100,1.518181818181818,722,0,73,DL_MelancholicFolk_Guitar,6,15,hanamokatanamoMelancholicFolk,0.30318325757980347,0
60,100,0.759090909090909,286,1,74,DL_MelancholicFolk_Guitar,6,12,hanamokatanamoMelancholicFolk,0.9998242259025574,1
69,100,0.1590909090909091,496,0,74,DL_MelancholicFolk_Guitar,6,3,hanamokatanamoMelancholicFolk,0.2220539152622223,0
57,100,0.5181818181818182,546,0,74,DL_MelancholicFolk_Guitar,6,8,hanamokatanamoMelancholicFolk,0.19007320702075958,0
57,100,0.5227272727272727,695,0,74,DL_MelancholicFolk_Guitar,6,8,hanamokatanamoMelancholicFolk,0.21655064821243286,0
65,100,0.759090909090909,813,0,74,DL_MelancholicFolk_Guitar,6,12,hanamokatanamoMelancholicFolk,0.2146204560995102,0
65,100,0.18181818181818182,220,1,75,DL_MelancholicFolk_Guitar,6,3,hanamokatanamoMelancholicFolk,0.999613344669342,1
65,100,1.018181818181818,580,1,75,DL_MelancholicFolk_Guitar,6,15,hanamokatanamoMelancholicFolk,0.5298338532447815,0
53,100,0.759090909090909,30,1,76,DL_MelancholicFolk_Guitar,6,12,hanamokatanamoMelancholicFolk,0.9998206496238708,1
60,100,0.1409090909090909,316,1,76,DL_MelancholicFolk_Guitar,6,2,hanamokatanamoMelancholicFolk,0.23203517496585846,0
65,100,0.2590909090909091,392,0,76,DL_MelancholicFolk_Guitar,6,4,hanamokatanamoMelancholicFolk,0.19624367356300354,0
65,100,0.1409090909090909,453,0,76,DL_MelancholicFolk_Guitar,6,2,hanamokatanamoMelancholicFolk,0.2196245938539505,0
58,100,0.8181818181818182,514,0,76,DL_MelancholicFolk_Guitar,6,13,hanamokatanamoMelancholicFolk,0.19288119673728943,0
60,100,0.2,119,1,77,DL_MelancholicFolk_Guitar,6,3,hanamokatanamoMelancholicFolk,0.999842643737793,1
60,100,0.17727272727272728,229,0,77,DL_MelancholicFolk_Guitar,6,3,hanamokatanamoMelancholicFolk,0.20659133791923523,0
60,100,0.5590909090909091,307,0,77,DL_MelancholicFolk_Guitar,6,9,hanamokatanamoMelancholicFolk,0.1884380429983139,0
55,100,1.3590909090909091,449,0,77,DL_MelancholicFolk_Guitar,6,15,hanamokatanamoMelancholicFolk,0.19100050628185272,0
65,100,0.6818181818181818,760,1,77,DL_MelancholicFolk_Guitar,6,11,hanamokatanamoMelancholicFolk,0.23516151309013367,0
65,100,0.7,35,1,78,DL_MelancholicFolk_Guitar,6,11,hanamokatanamoMelancholicFolk,0.9998360872268677,1
65,100,0.7363636363636363,523,1,78,DL_MelancholicFolk_Guitar,6,12,hanamokatanamoMelancholicFolk,0.3282904028892517,0
58,100,0.38181818181818183,752,0,78,DL_MelancholicFolk_Guitar,6,6,hanamokatanamoMelancholicFolk,0.30598384141921997,0
53,100,0.759090909090909,849,0,78,DL_MelancholicFolk_Guitar,6,12,hanamokatanamoMelancholicFolk,0.3180127441883087,0
65,100,0.4,282,1,79,DL_MelancholicFolk_Guitar,6,6,hanamokatanamoMelancholicFolk,0.9998455047607422,1
60,100,0.2818181818181818,386,0,79,DL_MelancholicFolk_Guitar,6,5,hanamokatanamoMelancholicFolk,0.3392094671726227,0
58,100,0.4,509,0,79,DL_MelancholicFolk_Guitar,6,6,hanamokatanamoMelancholicFolk,0.2778727412223816,0
65,100,0.18181818181818182,597,0,79,DL_MelancholicFolk_Guitar,6,3,hanamokatanamoMelancholicFolk,0.32119065523147583,0
65,100,0.21818181818181817,163,1,80,DL_MelancholicFolk_Guitar,6,3,hanamokatanamoMelancholicFolk,0.9998522996902466,1
58,100,0.2,440,1,80,DL_MelancholicFolk_Guitar,6,3,hanamokatanamoMelancholicFolk,0.3126330077648163,0
58,100,0.18181818181818182,519,0,80,DL_MelancholicFolk_Guitar,6,3,hanamokatanamoMelancholicFolk,0.29863426089286804,0
60,100,1.1409090909090909,703,0,80,DL_MelancholicFolk_Guitar,6,15,hanamokatanamoMelancholicFolk,0.3084236979484558,0
63,100,0.11818181818181818,660,1,81,DL_MelancholicFolk_Guitar,6,2,hanamokatanamoMelancholicFolk,0.9998562335968018,1
63,100,0.1,690,0,81,DL_MelancholicFolk_Guitar,6,2,hanamokatanamoMelancholicFolk,0.31159675121307373,0
53,100,0.35909090909090907,770,0,81,DL_MelancholicFolk_Guitar,6,6,hanamokatanamoMelancholicFolk,0.29015806317329407,0
53,100,0.12272727272727273,862,0,81,DL_MelancholicFolk_Guitar,6,2,hanamokatanamoMelancholicFolk,0.3128929138183594,0
53,100,0.5772727272727273,30,1,82,DL_MelancholicFolk_Guitar,6,9,hanamokatanamoMelancholicFolk,0.9997197985649109,1
53,100,0.21818181818181817,163,0,82,DL_MelancholicFolk_Guitar,6,3,hanamokatanamoMelancholicFolk,0.05889556184411049,0
60,100,0.5227272727272727,299,0,82,DL_MelancholicFolk_Guitar,6,8,hanamokatanamoMelancholicFolk,0.04791858419775963,0
60,100,0.36363636363636365,443,0,82,DL_MelancholicFolk_Guitar,6,6,hanamokatanamoMelancholicFolk,0.05032062903046608,0
53,100,0.2409090909090909,540,0,82,DL_MelancholicFolk_Guitar,6,4,hanamokatanamoMelancholicFolk,0.05336460843682289,0
58,100,0.2590909090909091,743,0,82,DL_MelancholicFolk_Guitar,6,4,hanamokatanamoMelancholicFolk,0.05756836384534836,0
58,100,0.18181818181818182,805,0,82,DL_MelancholicFolk_Guitar,6,3,hanamokatanamoMelancholicFolk,0.06910128146409988,0
53,100,0.7,857,0,82,DL_MelancholicFolk_Guitar,6,11,hanamokatanamoMelancholicFolk,0.060962021350860596,0
58,100,0.1,193,1,83,DL_MelancholicFolk_Guitar,6,2,hanamokatanamoMelancholicFolk,0.9998365640640259,1
65,100,0.759090909090909,453,1,83,DL_MelancholicFolk_Guitar,6,12,hanamokatanamoMelancholicFolk,0.32262998819351196,0
62,100,0.1409090909090909,800,1,83,DL_MelancholicFolk_Guitar,6,2,hanamokatanamoMelancholicFolk,0.3177067041397095,0
65,100,0.38181818181818183,849,0,83,DL_MelancholicFolk_Guitar,6,6,hanamokatanamoMelancholicFolk,0.30671417713165283,0
58,100,0.3,330,1,84,DL_MelancholicFolk_Guitar,6,5,hanamokatanamoMelancholicFolk,0.999830961227417,1
58,100,0.5181818181818182,502,0,84,DL_MelancholicFolk_Guitar,6,8,hanamokatanamoMelancholicFolk,0.3199477195739746,0
58,100,0.2590909090909091,637,0,84,DL_MelancholicFolk_Guitar,6,4,hanamokatanamoMelancholicFolk,0.31467199325561523,0
53,100,0.5818181818181818,726,0,84,DL_MelancholicFolk_Guitar,6,9,hanamokatanamoMelancholicFolk,0.32326123118400574,0
60,100,0.2590909090909091,30,1,85,DL_MelancholicFolk_Guitar,6,4,hanamokatanamoMelancholicFolk,0.999776303768158,1
60,100,0.12272727272727273,100,0,85,DL_MelancholicFolk_Guitar,6,2,hanamokatanamoMelancholicFolk,0.0813305601477623,0
57,100,0.4818181818181818,166,0,85,DL_MelancholicFolk_Guitar,6,8,hanamokatanamoMelancholicFolk,0.06836327165365219,0
53,100,0.37727272727272726,316,0,85,DL_MelancholicFolk_Guitar,6,6,hanamokatanamoMelancholicFolk,0.08471241593360901,0
60,100,0.1590909090909091,417,0,85,DL_MelancholicFolk_Guitar,6,3,hanamokatanamoMelancholicFolk,0.09573245048522949,0
53,100,0.2409090909090909,470,0,85,DL_MelancholicFolk_Guitar,6,4,hanamokatanamoMelancholicFolk,0.0977877750992775,0
58,100,0.8818181818181818,817,1,85,DL_MelancholicFolk_Guitar,6,14,hanamokatanamoMelancholicFolk,0.080800861120224,0
53,100,0.32272727272727275,136,1,86,DL_MelancholicFolk_Guitar,6,5,hanamokatanamoMelancholicFolk,0.9996769428253174,1
55,100,0.3181818181818182,220,0,86,DL_MelancholicFolk_Guitar,6,5,hanamokatanamoMelancholicFolk,0.036168456077575684,0
58,100,0.2409090909090909,339,0,86,DL_MelancholicFolk_Guitar,6,4,hanamokatanamoMelancholicFolk,0.025329062715172768,0
65,100,0.18181818181818182,509,0,86,DL_MelancholicFolk_Guitar,6,3,hanamokatanamoMelancholicFolk,0.023810887709259987,0
53,100,0.1409090909090909,550,0,86,DL_MelancholicFolk_Guitar,6,2,hanamokatanamoMelancholicFolk,0.020330462604761124,0
58,100,0.4590909090909091,612,0,86,DL_MelancholicFolk_Guitar,6,7,hanamokatanamoMelancholicFolk,0.01866193860769272,0
65,100,0.3181818181818182,713,0,86,DL_MelancholicFolk_Guitar,6,5,hanamokatanamoMelancholicFolk,0.026016665622591972,0
58,100,0.13636363636363635,810,0,86,DL_MelancholicFolk_Guitar,6,2,hanamokatanamoMelancholicFolk,0.02954179234802723,0
58,100,0.1,844,0,86,DL_MelancholicFolk_Guitar,6,2,hanamokatanamoMelancholicFolk,0.03872603923082352,0
65,100,0.11818181818181818,866,0,86,DL_MelancholicFolk_Guitar,6,2,hanamokatanamoMelancholicFolk,0.04168081283569336,0
58,100,0.6409090909090909,119,1,87,DL_MelancholicFolk_Guitar,6,10,hanamokatanamoMelancholicFolk,0.9997881054878235,1
53,100,0.759090909090909,633,1,87,DL_MelancholicFolk_Guitar,6,12,hanamokatanamoMelancholicFolk,0.4385579228401184,0
60,100,0.6772727272727272,810,0,87,DL_MelancholicFolk_Guitar,6,11,hanamokatanamoMelancholicFolk,0.4409048557281494,0
57,100,0.2,87,1,88,DL_MelancholicFolk_Guitar,6,3,hanamokatanamoMelancholicFolk,0.9997569918632507,1
57,100,0.37727272727272726,140,0,88,DL_MelancholicFolk_Guitar,6,6,hanamokatanamoMelancholicFolk,0.07682660222053528,0
60,100,0.12272727272727273,223,0,88,DL_MelancholicFolk_Guitar,6,2,hanamokatanamoMelancholicFolk,0.07882639020681381,0
60,100,0.5772727272727273,273,0,88,DL_MelancholicFolk_Guitar,6,9,hanamokatanamoMelancholicFolk,0.07664196938276291,0
53,100,0.7227272727272728,399,0,88,DL_MelancholicFolk_Guitar,6,12,hanamokatanamoMelancholicFolk,0.08842306584119797,0
53,100,0.759090909090909,624,0,88,DL_MelancholicFolk_Guitar,6,12,hanamokatanamoMelancholicFolk,0.09989412873983383,0
58,100,0.2772727272727273,832,0,88,DL_MelancholicFolk_Guitar,6,4,hanamokatanamoMelancholicFolk,0.0942339152097702,0
53,100,0.38181818181818183,22,1,89,DL_MelancholicFolk_Guitar,6,6,hanamokatanamoMelancholicFolk,0.9997226595878601,1
58,100,0.2409090909090909,140,0,89,DL_MelancholicFolk_Guitar,6,4,hanamokatanamoMelancholicFolk,0.05389709025621414,0
60,100,0.4,250,0,89,DL_MelancholicFolk_Guitar,6,6,hanamokatanamoMelancholicFolk,0.05173632502555847,0
58,100,0.18181818181818182,343,0,89,DL_MelancholicFolk_Guitar,6,3,hanamokatanamoMelancholicFolk,0.04640299081802368,0
58,100,0.5,386,0,89,DL_MelancholicFolk_Guitar,6,8,hanamokatanamoMelancholicFolk,0.052161138504743576,0
60,100,0.1409090909090909,559,0,89,DL_MelancholicFolk_Guitar,6,2,hanamokatanamoMelancholicFolk,0.06826333701610565,0
60,100,0.9818181818181818,637,0,89,DL_MelancholicFolk_Guitar,6,15,hanamokatanamoMelancholicFolk,0.06541233509778976,0
60,100,0.5590909090909091,866,0,89,DL_MelancholicFolk_Guitar,6,9,hanamokatanamoMelancholicFolk,0.06744261085987091,0
53,100,0.33636363636363636,260,1,90,DL_MelancholicFolk_Guitar,6,5,hanamokatanamoMelancholicFolk,0.9997543692588806,1
57,100,0.6181818181818182,436,0,90,DL_MelancholicFolk_Guitar,6,10,hanamokatanamoMelancholicFolk,0.07538353651762009,0
53,100,0.22272727272727272,585,0,90,DL_MelancholicFolk_Guitar,6,4,hanamokatanamoMelancholicFolk,0.07911383360624313,0
53,100,0.3,660,0,90,DL_MelancholicFolk_Guitar,6,5,hanamokatanamoMelancholicFolk,0.08087068796157837,0
60,100,0.11818181818181818,726,0,90,DL_MelancholicFolk_Guitar,6,2,hanamokatanamoMelancholicFolk,0.09227372705936432,0
53,100,0.1,770,0,90,DL_MelancholicFolk_Guitar,6,2,hanamokatanamoMelancholicFolk,0.09522860497236252,0
60,100,0.16363636363636364,862,0,90,DL_MelancholicFolk_Guitar,6,3,hanamokatanamoMelancholicFolk,0.08761847019195557,0
60,100,0.5636363636363636,26,1,91,DL_MelancholicFolk_Guitar,6,9,hanamokatanamoMelancholicFolk,0.9997214674949646,1
60,100,0.1,153,0,91,DL_MelancholicFolk_Guitar,6,2,hanamokatanamoMelancholicFolk,0.061659447848796844,0
53,100,0.1409090909090909,286,0,91,DL_MelancholicFolk_Guitar,6,2,hanamokatanamoMelancholicFolk,0.04891218617558479,0
58,100,0.5181818181818182,396,0,91,DL_MelancholicFolk_Guitar,6,8,hanamokatanamoMelancholicFolk,0.0439244769513607,0
58,100,0.12272727272727273,576,0,91,DL_MelancholicFolk_Guitar,6,2,hanamokatanamoMelancholicFolk,0.057415787130594254,0
58,100,0.32272727272727275,606,0,91,DL_MelancholicFolk_Guitar,6,5,hanamokatanamoMelancholicFolk,0.06159672886133194,0
53,100,0.13636363636363635,677,0,91,DL_MelancholicFolk_Guitar,6,2,hanamokatanamoMelancholicFolk,0.07582658529281616,0
58,100,0.2,707,0,91,DL_MelancholicFolk_Guitar,6,3,hanamokatanamoMelancholicFolk,0.06056714802980423,0
58,100,0.2590909090909091,96,1,92,DL_MelancholicFolk_Guitar,6,4,hanamokatanamoMelancholicFolk,0.9997462630271912,1
58,100,0.2,202,0,92,DL_MelancholicFolk_Guitar,6,3,hanamokatanamoMelancholicFolk,0.08103922754526138,0
53,100,0.1,440,1,92,DL_MelancholicFolk_Guitar,6,2,hanamokatanamoMelancholicFolk,0.08193178474903107,0
65,100,0.3181818181818182,462,0,92,DL_MelancholicFolk_Guitar,6,5,hanamokatanamoMelancholicFolk,0.08077230304479599,0
53,100,0.1,593,0,92,DL_MelancholicFolk_Guitar,6,2,hanamokatanamoMelancholicFolk,0.09273266047239304,0
65,100,0.17727272727272728,624,0,92,DL_MelancholicFolk_Guitar,6,3,hanamokatanamoMelancholicFolk,0.10045266896486282,0
57,100,0.3,783,0,92,DL_MelancholicFolk_Guitar,6,5,hanamokatanamoMelancholicFolk,0.08703085780143738,0
53,100,0.6,179,1,93,DL_MelancholicFolk_Guitar,6,10,hanamokatanamoMelancholicFolk,0.9998241066932678,1
65,100,0.4409090909090909,312,0,93,DL_MelancholicFolk_Guitar,6,7,hanamokatanamoMelancholicFolk,0.2162865698337555,0
57,100,0.3409090909090909,453,0,93,DL_MelancholicFolk_Guitar,6,5,hanamokatanamoMelancholicFolk,0.19746561348438263,0
57,100,0.3409090909090909,559,0,93,DL_MelancholicFolk_Guitar,6,5,hanamokatanamoMelancholicFolk,0.20891164243221283,0
60,100,0.9181818181818182,633,0,93,DL_MelancholicFolk_Guitar,6,15,hanamokatanamoMelancholicFolk,0.21169163286685944,0
53,100,0.18181818181818182,113,1,94,DL_MelancholicFolk_Guitar,6,3,hanamokatanamoMelancholicFolk,0.9998449087142944,1
65,100,0.2772727272727273,163,0,94,DL_MelancholicFolk_Guitar,6,4,hanamokatanamoMelancholicFolk,0.19837826490402222,0
65,100,0.11818181818181818,237,0,94,DL_MelancholicFolk_Guitar,6,2,hanamokatanamoMelancholicFolk,0.19789499044418335,0
53,100,0.11818181818181818,603,1,94,DL_MelancholicFolk_Guitar,6,2,hanamokatanamoMelancholicFolk,0.20109783113002777,0
65,100,0.2590909090909091,633,0,94,DL_MelancholicFolk_Guitar,6,4,hanamokatanamoMelancholicFolk,0.19861705601215363,0
65,100,0.3,440,1,95,DL_MelancholicFolk_Guitar,6,5,hanamokatanamoMelancholicFolk,0.999855637550354,1
53,100,0.38181818181818183,540,0,95,DL_MelancholicFolk_Guitar,6,6,hanamokatanamoMelancholicFolk,0.31937193870544434,0
53,100,0.2,663,0,95,DL_MelancholicFolk_Guitar,6,3,hanamokatanamoMelancholicFolk,0.2966262102127075,0
60,100,0.9636363636363636,796,0,95,DL_MelancholicFolk_Guitar,6,15,hanamokatanamoMelancholicFolk,0.2936181128025055,0
53,100,0.9,166,1,96,DL_MelancholicFolk_Guitar,6,14,hanamokatanamoMelancholicFolk,0.9997969269752502,1
60,100,0.2772727272727273,404,1,96,DL_MelancholicFolk_Guitar,6,4,hanamokatanamoMelancholicFolk,0.46138274669647217,0
60,100,1.3590909090909091,470,0,96,DL_MelancholicFolk_Guitar,6,15,hanamokatanamoMelancholicFolk,0.41001489758491516,0
53,100,0.7,40,1,97,DL_MelancholicFolk_Guitar,6,11,hanamokatanamoMelancholicFolk,0.999828577041626,1
65,100,0.1,193,0,97,DL_MelancholicFolk_Guitar,6,2,hanamokatanamoMelancholicFolk,0.3554746210575104,0
63,100,0.2,783,1,97,DL_MelancholicFolk_Guitar,6,3,hanamokatanamoMelancholicFolk,0.2822754681110382,0
53,100,0.1590909090909091,849,0,97,DL_MelancholicFolk_Guitar,6,3,hanamokatanamoMelancholicFolk,0.3209298253059387,0
57,100,0.1409090909090909,74,1,98,DL_MelancholicFolk_Guitar,6,2,hanamokatanamoMelancholicFolk,0.9997691512107849,1
53,100,0.1409090909090909,145,0,98,DL_MelancholicFolk_Guitar,6,2,hanamokatanamoMelancholicFolk,0.07910497486591339,0
60,100,0.35909090909090907,216,0,98,DL_MelancholicFolk_Guitar,6,6,hanamokatanamoMelancholicFolk,0.07069867849349976,0
60,100,0.11818181818181818,404,0,98,DL_MelancholicFolk_Guitar,6,2,hanamokatanamoMelancholicFolk,0.08052681386470795,0
53,100,0.4590909090909091,470,0,98,DL_MelancholicFolk_Guitar,6,7,hanamokatanamoMelancholicFolk,0.08304522186517715,0
53,100,0.5,629,0,98,DL_MelancholicFolk_Guitar,6,8,hanamokatanamoMelancholicFolk,0.09402982145547867,0
65,100,0.2,810,0,98,DL_MelancholicFolk_Guitar,6,3,hanamokatanamoMelancholicFolk,0.0894843190908432,0
53,100,0.2,74,1,99,DL_MelancholicFolk_Guitar,6,3,hanamokatanamoMelancholicFolk,0.9998577833175659,1
65,100,0.3181818181818182,119,0,99,DL_MelancholicFolk_Guitar,6,5,hanamokatanamoMelancholicFolk,0.3173210024833679,0
58,100,0.33636363636363636,237,0,99,DL_MelancholicFolk_Guitar,6,5,hanamokatanamoMelancholicFolk,0.2848266065120697,0
62,100,0.9590909090909091,506,1,99,DL_MelancholicFolk_Guitar,6,15,hanamokatanamoMelancholicFolk,0.3087385594844818,0
53,100,0.1590909090909091,0,1,100,DL_MelancholicFolk_Guitar,6,3,hanamokatanamoMelancholicFolk,0.9998534917831421,1
58,100,0.12272727272727273,35,0,100,DL_MelancholicFolk_Guitar,6,2,hanamokatanamoMelancholicFolk,0.31361037492752075,0
58,100,0.2,716,1,100,DL_MelancholicFolk_Guitar,6,3,hanamokatanamoMelancholicFolk,0.2937047481536865,0
53,100,0.35909090909090907,810,0,100,DL_MelancholicFolk_Guitar,6,6,hanamokatanamoMelancholicFolk,0.3148895502090454,0
60,100,0.3,176,1,101,DL_MelancholicFolk_Guitar,6,5,hanamokatanamoMelancholicFolk,0.9998067021369934,1
53,100,0.2772727272727273,250,0,101,DL_MelancholicFolk_Guitar,6,4,hanamokatanamoMelancholicFolk,0.12904535233974457,0
60,100,0.12272727272727273,333,0,101,DL_MelancholicFolk_Guitar,6,2,hanamokatanamoMelancholicFolk,0.12245094776153564,0
53,100,0.4409090909090909,386,0,101,DL_MelancholicFolk_Guitar,6,7,hanamokatanamoMelancholicFolk,0.13329756259918213,0
53,100,0.16363636363636364,576,0,101,DL_MelancholicFolk_Guitar,6,3,hanamokatanamoMelancholicFolk,0.1475229412317276,0
58,100,0.5181818181818182,770,0,101,DL_MelancholicFolk_Guitar,6,8,hanamokatanamoMelancholicFolk,0.12329121679067612,0
58,100,0.2,43,1,102,DL_MelancholicFolk_Guitar,6,3,hanamokatanamoMelancholicFolk,0.9996598958969116,1
58,100,0.2409090909090909,123,0,102,DL_MelancholicFolk_Guitar,6,4,hanamokatanamoMelancholicFolk,0.0358443446457386,0
53,100,0.12272727272727273,255,0,102,DL_MelancholicFolk_Guitar,6,2,hanamokatanamoMelancholicFolk,0.029041867703199387,0
58,100,0.5409090909090909,286,0,102,DL_MelancholicFolk_Guitar,6,9,hanamokatanamoMelancholicFolk,0.020161213353276253,0
53,100,0.2590909090909091,417,0,102,DL_MelancholicFolk_Guitar,6,4,hanamokatanamoMelancholicFolk,0.022470748052001,0
58,100,0.23636363636363636,502,0,102,DL_MelancholicFolk_Guitar,6,4,hanamokatanamoMelancholicFolk,0.020394572988152504,0
65,100,0.17727272727272728,590,0,102,DL_MelancholicFolk_Guitar,6,3,hanamokatanamoMelancholicFolk,0.0264775101095438,0
53,100,0.3409090909090909,629,0,102,DL_MelancholicFolk_Guitar,6,5,hanamokatanamoMelancholicFolk,0.03098556399345398,0
58,100,0.3,716,0,102,DL_MelancholicFolk_Guitar,6,5,hanamokatanamoMelancholicFolk,0.03834810480475426,0
65,100,0.17727272727272728,800,0,102,DL_MelancholicFolk_Guitar,6,3,hanamokatanamoMelancholicFolk,0.04240531846880913,0
65,100,0.16363636363636364,686,1,103,DL_MelancholicFolk_Guitar,6,3,hanamokatanamoMelancholicFolk,0.9996528625488281,1
53,100,0.2409090909090909,726,0,103,DL_MelancholicFolk_Guitar,6,4,hanamokatanamoMelancholicFolk,0.5439001321792603,0
60,100,0.2590909090909091,110,1,104,DL_MelancholicFolk_Guitar,6,4,hanamokatanamoMelancholicFolk,0.9997095465660095,1
53,100,0.1,172,0,104,DL_MelancholicFolk_Guitar,6,2,hanamokatanamoMelancholicFolk,0.0438082180917263,0
65,100,0.32272727272727275,255,0,104,DL_MelancholicFolk_Guitar,6,5,hanamokatanamoMelancholicFolk,0.03229653462767601,0
53,100,0.2818181818181818,343,0,104,DL_MelancholicFolk_Guitar,6,5,hanamokatanamoMelancholicFolk,0.030268384143710136,0
65,100,0.1409090909090909,409,0,104,DL_MelancholicFolk_Guitar,6,2,hanamokatanamoMelancholicFolk,0.03137217089533806,0
65,100,0.18181818181818182,443,0,104,DL_MelancholicFolk_Guitar,6,3,hanamokatanamoMelancholicFolk,0.03472936525940895,0
62,100,0.42272727272727273,563,0,104,DL_MelancholicFolk_Guitar,6,7,hanamokatanamoMelancholicFolk,0.03808826208114624,0
62,100,0.1590909090909091,660,0,104,DL_MelancholicFolk_Guitar,6,3,hanamokatanamoMelancholicFolk,0.05258549377322197,0
65,100,1.440909090909091,713,0,104,DL_MelancholicFolk_Guitar,6,15,hanamokatanamoMelancholicFolk,0.04240136221051216,0
65,100,0.9409090909090909,163,1,105,DL_MelancholicFolk_Guitar,6,15,hanamokatanamoMelancholicFolk,0.9997976422309875,1
62,100,0.1409090909090909,713,1,105,DL_MelancholicFolk_Guitar,6,2,hanamokatanamoMelancholicFolk,0.4624033570289612,0
53,100,0.6590909090909091,747,0,105,DL_MelancholicFolk_Guitar,6,11,hanamokatanamoMelancholicFolk,0.42089614272117615,0
53,100,0.18181818181818182,673,1,106,DL_MelancholicFolk_Guitar,6,3,hanamokatanamoMelancholicFolk,0.9998328685760498,1
57,100,0.18181818181818182,726,0,106,DL_MelancholicFolk_Guitar,6,3,hanamokatanamoMelancholicFolk,0.40214645862579346,0
60,100,0.6409090909090909,844,0,106,DL_MelancholicFolk_Guitar,6,10,hanamokatanamoMelancholicFolk,0.42221006751060486,0
53,100,0.11818181818181818,119,1,107,DL_MelancholicFolk_Guitar,6,2,hanamokatanamoMelancholicFolk,0.9998107552528381,1
60,100,0.7772727272727272,250,0,107,DL_MelancholicFolk_Guitar,6,12,hanamokatanamoMelancholicFolk,0.1171259880065918,0
53,100,0.2590909090909091,430,0,107,DL_MelancholicFolk_Guitar,6,4,hanamokatanamoMelancholicFolk,0.12703223526477814,0
65,100,0.1409090909090909,487,0,107,DL_MelancholicFolk_Guitar,6,2,hanamokatanamoMelancholicFolk,0.13714106380939484,0
58,100,0.1590909090909091,677,0,107,DL_MelancholicFolk_Guitar,6,3,hanamokatanamoMelancholicFolk,0.13543912768363953,0
53,100,0.2590909090909091,747,0,107,DL_MelancholicFolk_Guitar,6,4,hanamokatanamoMelancholicFolk,0.13577432930469513,0
65,100,0.36363636363636365,113,1,108,DL_MelancholicFolk_Guitar,6,6,hanamokatanamoMelancholicFolk,0.9998390674591064,1
58,100,0.12272727272727273,386,1,108,DL_MelancholicFolk_Guitar,6,2,hanamokatanamoMelancholicFolk,0.20208844542503357,0
53,100,0.16363636363636364,686,1,108,DL_MelancholicFolk_Guitar,6,3,hanamokatanamoMelancholicFolk,0.20385660231113434,0
65,100,0.2772727272727273,766,0,108,DL_MelancholicFolk_Guitar,6,4,hanamokatanamoMelancholicFolk,0.20336425304412842,0
65,100,0.1409090909090909,857,0,108,DL_MelancholicFolk_Guitar,6,2,hanamokatanamoMelancholicFolk,0.2023596316576004,0
65,100,0.1409090909090909,396,1,109,DL_MelancholicFolk_Guitar,6,2,hanamokatanamoMelancholicFolk,0.9997712969779968,1
65,100,0.2590909090909091,475,0,109,DL_MelancholicFolk_Guitar,6,4,hanamokatanamoMelancholicFolk,0.07887178659439087,0
65,100,0.2,553,0,109,DL_MelancholicFolk_Guitar,6,3,hanamokatanamoMelancholicFolk,0.07063162326812744,0
53,100,0.2,597,0,109,DL_MelancholicFolk_Guitar,6,3,hanamokatanamoMelancholicFolk,0.07779250293970108,0
60,100,0.4590909090909091,650,0,109,DL_MelancholicFolk_Guitar,6,7,hanamokatanamoMelancholicFolk,0.08639947324991226,0
53,100,0.3409090909090909,779,0,109,DL_MelancholicFolk_Guitar,6,5,hanamokatanamoMelancholicFolk,0.09590626507997513,0
53,100,0.1590909090909091,857,0,109,DL_MelancholicFolk_Guitar,6,3,hanamokatanamoMelancholicFolk,0.087676502764225,0
53,100,0.5181818181818182,43,1,110,DL_MelancholicFolk_Guitar,6,8,hanamokatanamoMelancholicFolk,0.9998292922973633,1
53,100,0.6636363636363637,179,0,110,DL_MelancholicFolk_Guitar,6,11,hanamokatanamoMelancholicFolk,0.20691150426864624,0
53,100,0.2772727272727273,370,0,110,DL_MelancholicFolk_Guitar,6,4,hanamokatanamoMelancholicFolk,0.21667425334453583,0
58,100,0.6818181818181818,443,0,110,DL_MelancholicFolk_Guitar,6,11,hanamokatanamoMelancholicFolk,0.20040957629680634,0
58,100,0.2,853,1,110,DL_MelancholicFolk_Guitar,6,3,hanamokatanamoMelancholicFolk,0.2208011895418167,0
65,100,0.17727272727272728,40,1,111,DL_MelancholicFolk_Guitar,6,3,hanamokatanamoMelancholicFolk,0.9996985197067261,1
65,100,0.11818181818181818,83,0,111,DL_MelancholicFolk_Guitar,6,2,hanamokatanamoMelancholicFolk,0.04394608736038208,0
65,100,0.4590909090909091,193,0,111,DL_MelancholicFolk_Guitar,6,7,hanamokatanamoMelancholicFolk,0.03259147331118584,0
58,100,0.1590909090909091,409,0,111,DL_MelancholicFolk_Guitar,6,3,hanamokatanamoMelancholicFolk,0.03125873580574989,0
58,100,0.6,493,0,111,DL_MelancholicFolk_Guitar,6,10,hanamokatanamoMelancholicFolk,0.030067475512623787,0
53,100,0.1409090909090909,624,0,111,DL_MelancholicFolk_Guitar,6,2,hanamokatanamoMelancholicFolk,0.039927151054143906,0
58,100,0.1590909090909091,656,0,111,DL_MelancholicFolk_Guitar,6,3,hanamokatanamoMelancholicFolk,0.04163488745689392,0
65,100,0.1590909090909091,690,0,111,DL_MelancholicFolk_Guitar,6,3,hanamokatanamoMelancholicFolk,0.05344406142830849,0
58,100,0.1590909090909091,726,0,111,DL_MelancholicFolk_Guitar,6,3,hanamokatanamoMelancholicFolk,0.047045521438121796,0
65,100,0.11818181818181818,263,1,112,DL_MelancholicFolk_Guitar,6,2,hanamokatanamoMelancholicFolk,0.9998421669006348,1
53,100,0.16363636363636364,532,1,112,DL_MelancholicFolk_Guitar,6,3,hanamokatanamoMelancholicFolk,0.20262886583805084,0
53,100,0.5590909090909091,593,0,112,DL_MelancholicFolk_Guitar,6,9,hanamokatanamoMelancholicFolk,0.18549905717372894,0
65,100,0.12272727272727273,817,0,112,DL_MelancholicFolk_Guitar,6,2,hanamokatanamoMelancholicFolk,0.2225130796432495,0
65,100,0.1409090909090909,849,0,112,DL_MelancholicFolk_Guitar,6,2,hanamokatanamoMelancholicFolk,0.20246513187885284,0
53,100,0.2590909090909091,0,1,113,DL_MelancholicFolk_Guitar,6,4,hanamokatanamoMelancholicFolk,0.9997014403343201,1
65,100,0.2409090909090909,56,0,113,DL_MelancholicFolk_Guitar,6,4,hanamokatanamoMelancholicFolk,0.04379115253686905,0
53,100,0.41818181818181815,110,0,113,DL_MelancholicFolk_Guitar,6,7,hanamokatanamoMelancholicFolk,0.032179538160562515,0
65,100,0.17727272727272728,206,0,113,DL_MelancholicFolk_Guitar,6,3,hanamokatanamoMelancholicFolk,0.03157905116677284,0
65,100,0.18181818181818182,307,0,113,DL_MelancholicFolk_Guitar,6,3,hanamokatanamoMelancholicFolk,0.029857661575078964,0
65,100,0.21818181818181817,352,0,113,DL_MelancholicFolk_Guitar,6,3,hanamokatanamoMelancholicFolk,0.0355280302464962,0
58,100,0.5227272727272727,399,0,113,DL_MelancholicFolk_Guitar,6,8,hanamokatanamoMelancholicFolk,0.03765550255775452,0
53,100,0.2409090909090909,624,0,113,DL_MelancholicFolk_Guitar,6,4,hanamokatanamoMelancholicFolk,0.05499408766627312,0
65,100,0.6227272727272727,783,0,113,DL_MelancholicFolk_Guitar,6,10,hanamokatanamoMelancholicFolk,0.04624945670366287,0
58,100,0.2,145,1,114,DL_MelancholicFolk_Guitar,6,3,hanamokatanamoMelancholicFolk,0.99978107213974,1
58,100,0.8,220,0,114,DL_MelancholicFolk_Guitar,6,13,hanamokatanamoMelancholicFolk,0.11799701303243637,0
58,100,0.6227272727272727,409,0,114,DL_MelancholicFolk_Guitar,6,10,hanamokatanamoMelancholicFolk,0.12964613735675812,0
53,100,0.1,553,0,114,DL_MelancholicFolk_Guitar,6,2,hanamokatanamoMelancholicFolk,0.1584768444299698,0
65,100,0.1,673,0,114,DL_MelancholicFolk_Guitar,6,2,hanamokatanamoMelancholicFolk,0.15443573892116547,0
65,100,0.2636363636363636,729,0,114,DL_MelancholicFolk_Guitar,6,4,hanamokatanamoMelancholicFolk,0.14310991764068604,0
60,100,0.2636363636363636,487,1,115,DL_MelancholicFolk_Guitar,6,4,hanamokatanamoMelancholicFolk,0.999651312828064,1
60,100,0.23636363636363636,787,1,115,DL_MelancholicFolk_Guitar,6,4,hanamokatanamoMelancholicFolk,0.5468225479125977,0
60,100,0.23636363636363636,656,1,116,DL_MelancholicFolk_Guitar,6,4,hanamokatanamoMelancholicFolk,0.9995958209037781,1
60,100,2.7,734,0,116,DL_MelancholicFolk_Guitar,6,15,hanamokatanamoMelancholicFolk,0.5107154250144958,0
65,100,0.2409090909090909,92,1,118,DL_MelancholicFolk_Guitar,6,4,hanamokatanamoMelancholicFolk,0.9998291730880737,1
65,100,0.35909090909090907,176,0,118,DL_MelancholicFolk_Guitar,6,6,hanamokatanamoMelancholicFolk,0.4002550542354584,0
65,100,0.11818181818181818,734,1,118,DL_MelancholicFolk_Guitar,6,2,hanamokatanamoMelancholicFolk,0.43593230843544006,0
65,100,0.5,210,1,119,DL_MelancholicFolk_Guitar,6,8,hanamokatanamoMelancholicFolk,0.9996399879455566,1
65,100,0.2409090909090909,483,1,119,DL_MelancholicFolk_Guitar,6,4,hanamokatanamoMelancholicFolk,0.5504862666130066,0
65,100,2.7181818181818183,426,1,120,DL_MelancholicFolk_Guitar,6,15,hanamokatanamoMelancholicFolk,0.9896866679191589,1
53,100,0.2818181818181818,510,1,0,DL_heartfullpop_2_Guitar,6,5,koumou_heartfullpop_ruriko,0.9998416900634766,1
60,100,0.1409090909090909,673,0,0,DL_heartfullpop_2_Guitar,6,2,koumou_heartfullpop_ruriko,0.20825545489788055,0
60,100,0.16363636363636364,708,0,0,DL_heartfullpop_2_Guitar,6,3,koumou_heartfullpop_ruriko,0.19452476501464844,0
60,100,0.2,748,0,0,DL_heartfullpop_2_Guitar,6,3,koumou_heartfullpop_ruriko,0.20157235860824585,0
60,100,0.1,801,0,0,DL_heartfullpop_2_Guitar,6,2,koumou_heartfullpop_ruriko,0.19728019833564758,0
60,100,0.1590909090909091,343,1,1,DL_heartfullpop_2_Guitar,6,3,koumou_heartfullpop_ruriko,0.9998407363891602,1
60,100,0.3,695,1,1,DL_heartfullpop_2_Guitar,6,5,koumou_heartfullpop_ruriko,0.4048938453197479,0
53,100,0.16363636363636364,796,0,1,DL_heartfullpop_2_Guitar,6,3,koumou_heartfullpop_ruriko,0.4228380024433136,0
60,100,0.21818181818181817,106,1,2,DL_heartfullpop_2_Guitar,6,3,koumou_heartfullpop_ruriko,0.9998598098754883,1
60,100,0.3409090909090909,616,1,2,DL_heartfullpop_2_Guitar,6,5,koumou_heartfullpop_ruriko,0.30812448263168335,0
53,100,0.12272727272727273,694,0,2,DL_heartfullpop_2_Guitar,6,2,koumou_heartfullpop_ruriko,0.2943340539932251,0
60,100,0.3,761,0,2,DL_heartfullpop_2_Guitar,6,5,koumou_heartfullpop_ruriko,0.3021796643733978,0
65,100,0.21818181818181817,43,1,4,DL_heartfullpop_2_Guitar,6,3,koumou_heartfullpop_ruriko,0.9996515512466431,1
53,100,0.13636363636363635,875,1,4,DL_heartfullpop_2_Guitar,6,2,koumou_heartfullpop_ruriko,0.548842191696167,0
65,100,0.21818181818181817,40,1,5,DL_heartfullpop_2_Guitar,6,3,koumou_heartfullpop_ruriko,0.9998329877853394,1
65,100,0.2409090909090909,189,0,5,DL_heartfullpop_2_Guitar,6,4,koumou_heartfullpop_ruriko,0.21456079185009003,0
58,100,0.2,391,0,5,DL_heartfullpop_2_Guitar,6,3,koumou_heartfullpop_ruriko,0.188121035695076,0
53,100,0.1590909090909091,721,1,5,DL_heartfullpop_2_Guitar,6,3,koumou_heartfullpop_ruriko,0.22618204355239868,0
53,100,0.4409090909090909,770,0,5,DL_heartfullpop_2_Guitar,6,7,koumou_heartfullpop_ruriko,0.19908033311367035,0
53,100,0.1590909090909091,150,1,6,DL_heartfullpop_2_Guitar,6,3,koumou_heartfullpop_ruriko,0.9998123049736023,1
53,100,0.17727272727272728,545,1,6,DL_heartfullpop_2_Guitar,6,3,koumou_heartfullpop_ruriko,0.12313465029001236,0
53,100,0.12272727272727273,598,0,6,DL_heartfullpop_2_Guitar,6,2,koumou_heartfullpop_ruriko,0.11946771293878555,0
53,100,0.11818181818181818,721,0,6,DL_heartfullpop_2_Guitar,6,2,koumou_heartfullpop_ruriko,0.13276252150535583,0
65,100,0.1,774,0,6,DL_heartfullpop_2_Guitar,6,2,koumou_heartfullpop_ruriko,0.13533298671245575,0
53,100,0.11818181818181818,801,0,6,DL_heartfullpop_2_Guitar,6,2,koumou_heartfullpop_ruriko,0.12636926770210266,0
53,100,0.38181818181818183,506,1,7,DL_heartfullpop_2_Guitar,6,6,koumou_heartfullpop_ruriko,0.9931284189224243,0
65,100,0.1,0,1,8,DL_heartfullpop_2_Guitar,6,2,koumou_heartfullpop_ruriko,0.9933165311813354,1
65,100,0.21818181818181817,171,1,9,DL_heartfullpop_2_Guitar,6,3,koumou_heartfullpop_ruriko,0.993155300617218,0
53,100,0.3409090909090909,13,1,10,DL_heartfullpop_2_Guitar,6,5,koumou_heartfullpop_ruriko,0.9997658133506775,1
53,100,0.4,118,0,10,DL_heartfullpop_2_Guitar,6,6,koumou_heartfullpop_ruriko,0.07654674351215363,0
60,100,0.4772727272727273,216,0,10,DL_heartfullpop_2_Guitar,6,8,koumou_heartfullpop_ruriko,0.07409346848726273,0
60,100,0.5590909090909091,391,0,10,DL_heartfullpop_2_Guitar,6,9,koumou_heartfullpop_ruriko,0.07956680655479431,0
53,100,0.23636363636363636,524,0,10,DL_heartfullpop_2_Guitar,6,4,koumou_heartfullpop_ruriko,0.09364417940378189,0
60,100,0.5409090909090909,584,0,10,DL_heartfullpop_2_Guitar,6,9,koumou_heartfullpop_ruriko,0.09711167216300964,0
53,100,0.3,756,0,10,DL_heartfullpop_2_Guitar,6,5,koumou_heartfullpop_ruriko,0.09102698415517807,0
53,100,0.2772727272727273,17,1,11,DL_heartfullpop_2_Guitar,6,4,koumou_heartfullpop_ruriko,0.9998074173927307,1
65,100,0.1590909090909091,79,0,11,DL_heartfullpop_2_Guitar,6,3,koumou_heartfullpop_ruriko,0.1244286447763443,0
53,100,0.12272727272727273,113,0,11,DL_heartfullpop_2_Guitar,6,2,koumou_heartfullpop_ruriko,0.11909029632806778,0
53,100,0.3181818181818182,149,0,11,DL_heartfullpop_2_Guitar,6,5,koumou_heartfullpop_ruriko,0.12960273027420044,0
60,100,0.5363636363636364,281,0,11,DL_heartfullpop_2_Guitar,6,9,koumou_heartfullpop_ruriko,0.13279956579208374,0
60,100,0.1,422,0,11,DL_heartfullpop_2_Guitar,6,2,koumou_heartfullpop_ruriko,0.13445375859737396,0
57,100,0.5,61,1,12,DL_heartfullpop_2_Guitar,6,8,koumou_heartfullpop_ruriko,0.9998189806938171,1
62,100,0.2,206,0,12,DL_heartfullpop_2_Guitar,6,3,koumou_heartfullpop_ruriko,0.22973796725273132,0
61,100,0.1409090909090909,250,0,12,DL_heartfullpop_2_Guitar,6,2,koumou_heartfullpop_ruriko,0.2015027105808258,0
53,100,0.3181818181818182,307,0,12,DL_heartfullpop_2_Guitar,6,5,koumou_heartfullpop_ruriko,0.203582763671875,0
58,100,0.5181818181818182,594,1,12,DL_heartfullpop_2_Guitar,6,8,koumou_heartfullpop_ruriko,0.2044968158006668,0
58,100,0.2409090909090909,233,1,13,DL_heartfullpop_2_Guitar,6,4,koumou_heartfullpop_ruriko,0.9995779395103455,1
53,100,0.21818181818181817,589,1,13,DL_heartfullpop_2_Guitar,6,3,koumou_heartfullpop_ruriko,0.5636906027793884,0
53,100,0.22272727272727272,708,1,14,DL_heartfullpop_2_Guitar,6,4,koumou_heartfullpop_ruriko,0.9998384714126587,1
60,100,0.2409090909090909,773,0,14,DL_heartfullpop_2_Guitar,6,4,koumou_heartfullpop_ruriko,0.40352848172187805,0
60,100,0.23636363636363636,831,0,14,DL_heartfullpop_2_Guitar,6,4,koumou_heartfullpop_ruriko,0.4190885126590729,0
53,100,0.2409090909090909,70,1,15,DL_heartfullpop_2_Guitar,6,4,koumou_heartfullpop_ruriko,0.9997314810752869,1
53,100,0.42272727272727273,158,0,15,DL_heartfullpop_2_Guitar,6,7,koumou_heartfullpop_ruriko,0.0545487217605114,0
53,100,0.35909090909090907,254,0,15,DL_heartfullpop_2_Guitar,6,6,koumou_heartfullpop_ruriko,0.047898344695568085,0
53,100,0.35909090909090907,391,0,15,DL_heartfullpop_2_Guitar,6,6,koumou_heartfullpop_ruriko,0.04695669189095497,0
60,100,0.33636363636363636,656,1,15,DL_heartfullpop_2_Guitar,6,5,koumou_heartfullpop_ruriko,0.05315537005662918,0
60,100,0.11818181818181818,756,0,15,DL_heartfullpop_2_Guitar,6,2,koumou_heartfullpop_ruriko,0.0608113668859005,0
60,100,0.1,840,0,15,DL_heartfullpop_2_Guitar,6,2,koumou_heartfullpop_ruriko,0.06546178460121155,0
60,100,0.1409090909090909,866,0,15,DL_heartfullpop_2_Guitar,6,2,koumou_heartfullpop_ruriko,0.059675995260477066,0
53,100,0.22272727272727272,26,1,16,DL_heartfullpop_2_Guitar,6,4,koumou_heartfullpop_ruriko,0.9997034668922424,1
60,100,0.12272727272727273,92,0,16,DL_heartfullpop_2_Guitar,6,2,koumou_heartfullpop_ruriko,0.04358850419521332,0
60,100,0.2590909090909091,220,0,16,DL_heartfullpop_2_Guitar,6,4,koumou_heartfullpop_ruriko,0.032254163175821304,0
60,100,0.18181818181818182,308,0,16,DL_heartfullpop_2_Guitar,6,3,koumou_heartfullpop_ruriko,0.029946884140372276,0
53,100,0.21818181818181817,347,0,16,DL_heartfullpop_2_Guitar,6,3,koumou_heartfullpop_ruriko,0.02937418781220913,0
60,100,0.17727272727272728,501,0,16,DL_heartfullpop_2_Guitar,6,3,koumou_heartfullpop_ruriko,0.033933743834495544,0
53,100,0.35909090909090907,540,0,16,DL_heartfullpop_2_Guitar,6,6,koumou_heartfullpop_ruriko,0.038790445774793625,0
53,100,0.4,669,0,16,DL_heartfullpop_2_Guitar,6,6,koumou_heartfullpop_ruriko,0.04662133380770683,0
65,100,0.2409090909090909,756,0,16,DL_heartfullpop_2_Guitar,6,4,koumou_heartfullpop_ruriko,0.04787907376885414,0
53,100,0.11818181818181818,9,1,17,DL_heartfullpop_2_Guitar,6,2,koumou_heartfullpop_ruriko,0.9997058510780334,1
53,100,0.4590909090909091,57,0,17,DL_heartfullpop_2_Guitar,6,7,koumou_heartfullpop_ruriko,0.04041875898838043,0
62,100,0.1409090909090909,175,0,17,DL_heartfullpop_2_Guitar,6,2,koumou_heartfullpop_ruriko,0.035201046615839005,0
62,100,0.11818181818181818,216,0,17,DL_heartfullpop_2_Guitar,6,2,koumou_heartfullpop_ruriko,0.02982795238494873,0
65,100,0.12272727272727273,488,1,17,DL_heartfullpop_2_Guitar,6,2,koumou_heartfullpop_ruriko,0.030945314094424248,0
57,100,0.32272727272727275,576,0,17,DL_heartfullpop_2_Guitar,6,5,koumou_heartfullpop_ruriko,0.031433820724487305,0
62,100,0.18181818181818182,663,0,17,DL_heartfullpop_2_Guitar,6,3,koumou_heartfullpop_ruriko,0.04214974865317345,0
62,100,0.1409090909090909,783,0,17,DL_heartfullpop_2_Guitar,6,2,koumou_heartfullpop_ruriko,0.046885062009096146,0
65,100,0.35909090909090907,858,0,17,DL_heartfullpop_2_Guitar,6,6,koumou_heartfullpop_ruriko,0.04662667587399483,0
57,100,0.11818181818181818,295,1,18,DL_heartfullpop_2_Guitar,6,2,koumou_heartfullpop_ruriko,0.999850869178772,1
62,100,0.2818181818181818,443,0,18,DL_heartfullpop_2_Guitar,6,5,koumou_heartfullpop_ruriko,0.3272991478443146,0
53,100,0.3,607,0,18,DL_heartfullpop_2_Guitar,6,5,koumou_heartfullpop_ruriko,0.283244788646698,0
62,100,0.21818181818181817,858,1,18,DL_heartfullpop_2_Guitar,6,3,koumou_heartfullpop_ruriko,0.310077428817749,0
65,100,0.2409090909090909,57,1,19,DL_heartfullpop_2_Guitar,6,4,koumou_heartfullpop_ruriko,0.9997956156730652,1
65,100,0.4590909090909091,131,0,19,DL_heartfullpop_2_Guitar,6,7,koumou_heartfullpop_ruriko,0.12527133524417877,0
60,100,0.2409090909090909,405,1,19,DL_heartfullpop_2_Guitar,6,4,koumou_heartfullpop_ruriko,0.12657934427261353,0
53,100,0.2636363636363636,488,0,19,DL_heartfullpop_2_Guitar,6,4,koumou_heartfullpop_ruriko,0.13259729743003845,0
53,100,0.35909090909090907,681,0,19,DL_heartfullpop_2_Guitar,6,6,koumou_heartfullpop_ruriko,0.1400633454322815,0
62,100,0.11818181818181818,810,0,19,DL_heartfullpop_2_Guitar,6,2,koumou_heartfullpop_ruriko,0.13154125213623047,0
53,100,0.9409090909090909,9,1,20,DL_heartfullpop_2_Guitar,6,15,koumou_heartfullpop_ruriko,0.9996308088302612,1
65,100,0.17727272727272728,216,0,20,DL_heartfullpop_2_Guitar,6,3,koumou_heartfullpop_ruriko,0.04045023396611214,0
53,100,0.2,254,0,20,DL_heartfullpop_2_Guitar,6,3,koumou_heartfullpop_ruriko,0.02605096995830536,0
62,100,0.2590909090909091,320,0,20,DL_heartfullpop_2_Guitar,6,4,koumou_heartfullpop_ruriko,0.02080434374511242,0
53,100,0.2,391,0,20,DL_heartfullpop_2_Guitar,6,3,koumou_heartfullpop_ruriko,0.01933782361447811,0
65,100,0.1409090909090909,449,0,20,DL_heartfullpop_2_Guitar,6,2,koumou_heartfullpop_ruriko,0.01989354006946087,0
53,100,0.36363636363636365,509,0,20,DL_heartfullpop_2_Guitar,6,6,koumou_heartfullpop_ruriko,0.022922251373529434,0
62,100,0.1409090909090909,602,0,20,DL_heartfullpop_2_Guitar,6,2,koumou_heartfullpop_ruriko,0.02958475798368454,0
53,100,0.740909090909091,642,0,20,DL_heartfullpop_2_Guitar,6,12,koumou_heartfullpop_ruriko,0.03611020743846893,0
65,100,0.18181818181818182,818,0,20,DL_heartfullpop_2_Guitar,6,3,koumou_heartfullpop_ruriko,0.041611749678850174,0
65,100,0.4409090909090909,52,1,21,DL_heartfullpop_2_Guitar,6,7,koumou_heartfullpop_ruriko,0.9996684789657593,1
53,100,0.33636363636363636,150,0,21,DL_heartfullpop_2_Guitar,6,5,koumou_heartfullpop_ruriko,0.036271851509809494,0
62,100,0.11818181818181818,241,0,21,DL_heartfullpop_2_Guitar,6,2,koumou_heartfullpop_ruriko,0.026107043027877808,0
62,100,0.18181818181818182,299,0,21,DL_heartfullpop_2_Guitar,6,3,koumou_heartfullpop_ruriko,0.02056211046874523,0
65,100,0.3,356,0,21,DL_heartfullpop_2_Guitar,6,5,koumou_heartfullpop_ruriko,0.018720729276537895,0
53,100,0.2,422,0,21,DL_heartfullpop_2_Guitar,6,3,koumou_heartfullpop_ruriko,0.019308926537632942,0
65,100,0.11818181818181818,550,0,21,DL_heartfullpop_2_Guitar,6,2,koumou_heartfullpop_ruriko,0.022891845554113388,0
65,100,0.12272727272727273,642,0,21,DL_heartfullpop_2_Guitar,6,2,koumou_heartfullpop_ruriko,0.02883954532444477,0
53,100,0.4,669,0,21,DL_heartfullpop_2_Guitar,6,6,koumou_heartfullpop_ruriko,0.035565897822380066,0
53,100,0.1409090909090909,804,0,21,DL_heartfullpop_2_Guitar,6,2,koumou_heartfullpop_ruriko,0.0398017019033432,0
55,100,0.3,30,1,22,DL_heartfullpop_2_Guitar,6,5,koumou_heartfullpop_ruriko,0.9997512698173523,1
62,100,0.5590909090909091,171,0,22,DL_heartfullpop_2_Guitar,6,9,koumou_heartfullpop_ruriko,0.07788483798503876,0
53,100,0.2409090909090909,316,0,22,DL_heartfullpop_2_Guitar,6,4,koumou_heartfullpop_ruriko,0.07771314680576324,0
62,100,0.18181818181818182,528,0,22,DL_heartfullpop_2_Guitar,6,3,koumou_heartfullpop_ruriko,0.08094103634357452,0
62,100,0.4590909090909091,594,0,22,DL_heartfullpop_2_Guitar,6,7,koumou_heartfullpop_ruriko,0.09006088227033615,0
62,100,0.12272727272727273,729,0,22,DL_heartfullpop_2_Guitar,6,2,koumou_heartfullpop_ruriko,0.1021537035703659,0
53,100,0.1409090909090909,801,0,22,DL_heartfullpop_2_Guitar,6,2,koumou_heartfullpop_ruriko,0.08746371418237686,0
53,100,0.21818181818181817,0,1,23,DL_heartfullpop_2_Guitar,6,3,koumou_heartfullpop_ruriko,0.9997312426567078,1
53,100,0.22272727272727272,79,0,23,DL_heartfullpop_2_Guitar,6,4,koumou_heartfullpop_ruriko,0.05482952669262886,0
60,100,0.1590909090909091,150,0,23,DL_heartfullpop_2_Guitar,6,3,koumou_heartfullpop_ruriko,0.046717461198568344,0
65,100,0.18181818181818182,356,0,23,DL_heartfullpop_2_Guitar,6,3,koumou_heartfullpop_ruriko,0.04598574340343475,0
53,100,0.4590909090909091,453,0,23,DL_heartfullpop_2_Guitar,6,7,koumou_heartfullpop_ruriko,0.04855181276798248,0
53,100,0.2772727272727273,590,0,23,DL_heartfullpop_2_Guitar,6,4,koumou_heartfullpop_ruriko,0.06014975532889366,0
60,100,0.3,779,0,23,DL_heartfullpop_2_Guitar,6,5,koumou_heartfullpop_ruriko,0.06472598761320114,0
53,100,0.2,862,0,23,DL_heartfullpop_2_Guitar,6,3,koumou_heartfullpop_ruriko,0.060966528952121735,0
53,100,0.7181818181818181,119,1,24,DL_heartfullpop_2_Guitar,6,11,koumou_heartfullpop_ruriko,0.9998236298561096,1
60,100,0.4590909090909091,347,0,24,DL_heartfullpop_2_Guitar,6,7,koumou_heartfullpop_ruriko,0.21766136586666107,0
53,100,0.13636363636363635,567,0,24,DL_heartfullpop_2_Guitar,6,2,koumou_heartfullpop_ruriko,0.20248115062713623,0
53,100,0.11818181818181818,656,0,24,DL_heartfullpop_2_Guitar,6,2,koumou_heartfullpop_ruriko,0.2108212560415268,0
53,100,0.37727272727272726,735,0,24,DL_heartfullpop_2_Guitar,6,6,koumou_heartfullpop_ruriko,0.20070338249206543,0
60,100,0.13636363636363635,61,1,25,DL_heartfullpop_2_Guitar,6,2,koumou_heartfullpop_ruriko,0.9997401833534241,1
53,100,0.1409090909090909,144,0,25,DL_heartfullpop_2_Guitar,6,2,koumou_heartfullpop_ruriko,0.05435841903090477,0
53,100,0.4409090909090909,206,0,25,DL_heartfullpop_2_Guitar,6,7,koumou_heartfullpop_ruriko,0.044583868235349655,0
60,100,0.4590909090909091,440,1,25,DL_heartfullpop_2_Guitar,6,7,koumou_heartfullpop_ruriko,0.047130387276411057,0
60,100,0.1409090909090909,563,0,25,DL_heartfullpop_2_Guitar,6,2,koumou_heartfullpop_ruriko,0.051383428275585175,0
60,100,0.16363636363636364,729,0,25,DL_heartfullpop_2_Guitar,6,3,koumou_heartfullpop_ruriko,0.060621730983257294,0
53,100,0.23636363636363636,766,0,25,DL_heartfullpop_2_Guitar,6,4,koumou_heartfullpop_ruriko,0.06345552206039429,0
60,100,0.1,839,0,25,DL_heartfullpop_2_Guitar,6,2,koumou_heartfullpop_ruriko,0.06064477190375328,0
53,100,0.6227272727272727,26,1,26,DL_heartfullpop_2_Guitar,6,10,koumou_heartfullpop_ruriko,0.9998217225074768,1
53,100,0.1590909090909091,175,0,26,DL_heartfullpop_2_Guitar,6,3,koumou_heartfullpop_ruriko,0.22868812084197998,0
60,100,0.13636363636363635,216,0,26,DL_heartfullpop_2_Guitar,6,2,koumou_heartfullpop_ruriko,0.19697821140289307,0
53,100,0.7,370,0,26,DL_heartfullpop_2_Guitar,6,11,koumou_heartfullpop_ruriko,0.19489619135856628,0
60,100,0.4772727272727273,779,1,26,DL_heartfullpop_2_Guitar,6,8,koumou_heartfullpop_ruriko,0.2150019258260727,0
65,100,0.3409090909090909,162,1,27,DL_heartfullpop_2_Guitar,6,5,koumou_heartfullpop_ruriko,0.9931952953338623,0
65,100,0.2,113,1,28,DL_heartfullpop_2_Guitar,6,3,koumou_heartfullpop_ruriko,0.9998608827590942,1
57,100,0.18181818181818182,356,1,28,DL_heartfullpop_2_Guitar,6,3,koumou_heartfullpop_ruriko,0.3112308382987976,0
62,100,0.4,584,0,28,DL_heartfullpop_2_Guitar,6,6,koumou_heartfullpop_ruriko,0.29116883873939514,0
53,100,0.5,796,0,28,DL_heartfullpop_2_Guitar,6,8,koumou_heartfullpop_ruriko,0.3020581603050232,0
60,100,1.2818181818181817,88,1,29,DL_heartfullpop_2_Guitar,6,15,koumou_heartfullpop_ruriko,0.9997979998588562,1
53,100,0.3409090909090909,492,1,29,DL_heartfullpop_2_Guitar,6,5,koumou_heartfullpop_ruriko,0.2460719347000122,0
65,100,0.2,567,0,29,DL_heartfullpop_2_Guitar,6,3,koumou_heartfullpop_ruriko,0.2014380246400833,0
53,100,0.32272727272727275,629,0,29,DL_heartfullpop_2_Guitar,6,5,koumou_heartfullpop_ruriko,0.209535151720047,0
65,100,0.18181818181818182,708,0,29,DL_heartfullpop_2_Guitar,6,3,koumou_heartfullpop_ruriko,0.21328729391098022,0
60,100,0.2818181818181818,3,1,30,DL_heartfullpop_2_Guitar,6,5,koumou_heartfullpop_ruriko,0.9997695088386536,1
53,100,0.4409090909090909,131,0,30,DL_heartfullpop_2_Guitar,6,7,koumou_heartfullpop_ruriko,0.07487072050571442,0
65,100,0.4409090909090909,229,0,30,DL_heartfullpop_2_Guitar,6,7,koumou_heartfullpop_ruriko,0.07303916662931442,0
53,100,0.2590909090909091,326,0,30,DL_heartfullpop_2_Guitar,6,4,koumou_heartfullpop_ruriko,0.07998234778642654,0
65,100,0.33636363636363636,413,0,30,DL_heartfullpop_2_Guitar,6,5,koumou_heartfullpop_ruriko,0.0904112383723259,0
60,100,0.2,650,1,30,DL_heartfullpop_2_Guitar,6,3,koumou_heartfullpop_ruriko,0.09959641844034195,0
60,100,0.2636363636363636,708,0,30,DL_heartfullpop_2_Guitar,6,4,koumou_heartfullpop_ruriko,0.08997482061386108,0
62,100,0.35909090909090907,21,1,31,DL_heartfullpop_2_Guitar,6,6,koumou_heartfullpop_ruriko,0.9998517036437988,1
60,100,0.33636363636363636,150,0,31,DL_heartfullpop_2_Guitar,6,5,koumou_heartfullpop_ruriko,0.3216661214828491,0
53,100,0.22272727272727272,223,0,31,DL_heartfullpop_2_Guitar,6,4,koumou_heartfullpop_ruriko,0.293069452047348,0
62,100,0.1590909090909091,501,1,31,DL_heartfullpop_2_Guitar,6,3,koumou_heartfullpop_ruriko,0.30513980984687805,0
53,100,0.3,748,1,32,DL_heartfullpop_2_Guitar,6,5,koumou_heartfullpop_ruriko,0.9996362924575806,1
60,100,0.43636363636363634,875,0,32,DL_heartfullpop_2_Guitar,6,7,koumou_heartfullpop_ruriko,0.5481954216957092,0
53,100,0.2,330,1,33,DL_heartfullpop_2_Guitar,6,3,koumou_heartfullpop_ruriko,0.9934946894645691,0
53,100,0.1,91,1,34,DL_heartfullpop_2_Guitar,6,2,koumou_heartfullpop_ruriko,0.9997387528419495,1
65,100,0.2,114,0,34,DL_heartfullpop_2_Guitar,6,3,koumou_heartfullpop_ruriko,0.054697100073099136,0
62,100,0.2590909090909091,228,0,34,DL_heartfullpop_2_Guitar,6,4,koumou_heartfullpop_ruriko,0.04680219292640686,0
62,100,0.21818181818181817,295,0,34,DL_heartfullpop_2_Guitar,6,3,koumou_heartfullpop_ruriko,0.04715321213006973,0
53,100,0.2636363636363636,356,0,34,DL_heartfullpop_2_Guitar,6,4,koumou_heartfullpop_ruriko,0.05203893035650253,0
62,100,0.3,418,0,34,DL_heartfullpop_2_Guitar,6,5,koumou_heartfullpop_ruriko,0.05935129150748253,0
53,100,0.12272727272727273,628,0,34,DL_heartfullpop_2_Guitar,6,2,koumou_heartfullpop_ruriko,0.06794970482587814,0
58,100,0.13636363636363635,700,0,34,DL_heartfullpop_2_Guitar,6,2,koumou_heartfullpop_ruriko,0.05891282856464386,0
62,100,0.17727272727272728,8,1,35,DL_heartfullpop_2_Guitar,6,3,koumou_heartfullpop_ruriko,0.9997072815895081,1
53,100,0.3,78,0,35,DL_heartfullpop_2_Guitar,6,5,koumou_heartfullpop_ruriko,0.04277981072664261,0
65,100,0.1590909090909091,144,0,35,DL_heartfullpop_2_Guitar,6,3,koumou_heartfullpop_ruriko,0.03355030342936516,0
62,100,0.9,251,0,35,DL_heartfullpop_2_Guitar,6,14,koumou_heartfullpop_ruriko,0.027996055781841278,0
62,100,0.1409090909090909,471,0,35,DL_heartfullpop_2_Guitar,6,2,koumou_heartfullpop_ruriko,0.03202566131949425,0
53,100,0.2590909090909091,528,0,35,DL_heartfullpop_2_Guitar,6,4,koumou_heartfullpop_ruriko,0.034712571650743484,0
69,100,0.1409090909090909,593,0,35,DL_heartfullpop_2_Guitar,6,2,koumou_heartfullpop_ruriko,0.039963383227586746,0
62,100,0.6590909090909091,691,0,35,DL_heartfullpop_2_Guitar,6,11,koumou_heartfullpop_ruriko,0.048250094056129456,0
65,100,0.1409090909090909,836,0,35,DL_heartfullpop_2_Guitar,6,2,koumou_heartfullpop_ruriko,0.05032525584101677,0
64,100,0.8,13,1,36,DL_heartfullpop_2_Guitar,6,13,koumou_heartfullpop_ruriko,0.9997521042823792,1
60,100,0.21818181818181817,228,0,36,DL_heartfullpop_2_Guitar,6,3,koumou_heartfullpop_ruriko,0.08649349212646484,0
60,100,0.4636363636363636,289,0,36,DL_heartfullpop_2_Guitar,6,7,koumou_heartfullpop_ruriko,0.07217412441968918,0
64,100,0.35909090909090907,453,0,36,DL_heartfullpop_2_Guitar,6,6,koumou_heartfullpop_ruriko,0.08224441111087799,0
60,100,0.2409090909090909,554,0,36,DL_heartfullpop_2_Guitar,6,4,koumou_heartfullpop_ruriko,0.0925866961479187,0
57,100,0.2590909090909091,611,0,36,DL_heartfullpop_2_Guitar,6,4,koumou_heartfullpop_ruriko,0.09202086925506592,0
60,100,0.5181818181818182,748,0,36,DL_heartfullpop_2_Guitar,6,8,koumou_heartfullpop_ruriko,0.09046536684036255,0
57,100,0.1409090909090909,4,1,37,DL_heartfullpop_2_Guitar,6,2,koumou_heartfullpop_ruriko,0.9998206496238708,1
69,100,0.21818181818181817,110,0,37,DL_heartfullpop_2_Guitar,6,3,koumou_heartfullpop_ruriko,0.41545310616493225,0
62,100,0.13636363636363635,655,1,37,DL_heartfullpop_2_Guitar,6,2,koumou_heartfullpop_ruriko,0.43600893020629883,0
62,100,0.1590909090909091,43,1,38,DL_heartfullpop_2_Guitar,6,3,koumou_heartfullpop_ruriko,0.9997795224189758,1
64,100,0.11818181818181818,241,0,38,DL_heartfullpop_2_Guitar,6,2,koumou_heartfullpop_ruriko,0.0804072916507721,0
65,100,0.22272727272727272,268,0,38,DL_heartfullpop_2_Guitar,6,4,koumou_heartfullpop_ruriko,0.0698561891913414,0
53,100,0.11818181818181818,330,0,38,DL_heartfullpop_2_Guitar,6,2,koumou_heartfullpop_ruriko,0.07968425750732422,0
53,100,0.22272727272727272,541,0,38,DL_heartfullpop_2_Guitar,6,4,koumou_heartfullpop_ruriko,0.08463598042726517,0
53,100,0.1409090909090909,713,0,38,DL_heartfullpop_2_Guitar,6,2,koumou_heartfullpop_ruriko,0.09592088311910629,0
62,100,0.11818181818181818,756,0,38,DL_heartfullpop_2_Guitar,6,2,koumou_heartfullpop_ruriko,0.08483923226594925,0
65,100,0.3181818181818182,31,1,39,DL_heartfullpop_2_Guitar,6,5,koumou_heartfullpop_ruriko,0.9998319149017334,1
53,100,0.37727272727272726,105,0,39,DL_heartfullpop_2_Guitar,6,6,koumou_heartfullpop_ruriko,0.20608121156692505,0
58,100,0.1409090909090909,276,0,39,DL_heartfullpop_2_Guitar,6,2,koumou_heartfullpop_ruriko,0.1904209852218628,0
65,100,0.2409090909090909,364,0,39,DL_heartfullpop_2_Guitar,6,4,koumou_heartfullpop_ruriko,0.21987731754779816,0
60,100,0.4409090909090909,861,1,39,DL_heartfullpop_2_Guitar,6,7,koumou_heartfullpop_ruriko,0.209480881690979,0
60,100,0.5636363636363636,268,1,40,DL_heartfullpop_2_Guitar,6,9,koumou_heartfullpop_ruriko,0.9998005032539368,1
60,100,0.1,421,0,40,DL_heartfullpop_2_Guitar,6,2,koumou_heartfullpop_ruriko,0.13608266413211823,0
65,100,0.12272727272727273,606,0,40,DL_heartfullpop_2_Guitar,6,2,koumou_heartfullpop_ruriko,0.11888832598924637,0
53,100,0.3181818181818182,638,0,40,DL_heartfullpop_2_Guitar,6,5,koumou_heartfullpop_ruriko,0.13038499653339386,0
53,100,0.2590909090909091,765,0,40,DL_heartfullpop_2_Guitar,6,4,koumou_heartfullpop_ruriko,0.14126814901828766,0
53,100,0.3,839,0,40,DL_heartfullpop_2_Guitar,6,5,koumou_heartfullpop_ruriko,0.12689916789531708,0
62,100,0.4,61,1,41,DL_heartfullpop_2_Guitar,6,6,koumou_heartfullpop_ruriko,0.9998440742492676,1
62,100,0.4409090909090909,440,1,41,DL_heartfullpop_2_Guitar,6,7,koumou_heartfullpop_ruriko,0.3316197693347931,0
62,100,0.2818181818181818,563,0,41,DL_heartfullpop_2_Guitar,6,5,koumou_heartfullpop_ruriko,0.293136328458786,0
60,100,0.5590909090909091,668,0,41,DL_heartfullpop_2_Guitar,6,9,koumou_heartfullpop_ruriko,0.3137950599193573,0
53,100,0.17727272727272728,75,1,43,DL_heartfullpop_2_Guitar,6,3,koumou_heartfullpop_ruriko,0.9997066855430603,1
57,100,0.33636363636363636,193,0,43,DL_heartfullpop_2_Guitar,6,5,koumou_heartfullpop_ruriko,0.04091566056013107,0
65,100,0.12272727272727273,356,0,43,DL_heartfullpop_2_Guitar,6,2,koumou_heartfullpop_ruriko,0.034897658973932266,0
53,100,0.2772727272727273,383,0,43,DL_heartfullpop_2_Guitar,6,4,koumou_heartfullpop_ruriko,0.028892027214169502,0
53,100,0.32272727272727275,453,0,43,DL_heartfullpop_2_Guitar,6,5,koumou_heartfullpop_ruriko,0.031189773231744766,0
57,100,0.17727272727272728,545,0,43,DL_heartfullpop_2_Guitar,6,3,koumou_heartfullpop_ruriko,0.033549562096595764,0
53,100,0.22272727272727272,598,0,43,DL_heartfullpop_2_Guitar,6,4,koumou_heartfullpop_ruriko,0.04184442758560181,0
53,100,0.32272727272727275,716,0,43,DL_heartfullpop_2_Guitar,6,5,koumou_heartfullpop_ruriko,0.04855380207300186,0
53,100,0.23636363636363636,853,0,43,DL_heartfullpop_2_Guitar,6,4,koumou_heartfullpop_ruriko,0.04657931253314018,0
57,100,0.32272727272727275,144,1,44,DL_heartfullpop_2_Guitar,6,5,koumou_heartfullpop_ruriko,0.9996918439865112,1
53,100,0.3409090909090909,228,0,44,DL_heartfullpop_2_Guitar,6,5,koumou_heartfullpop_ruriko,0.0434388630092144,0
57,100,0.18181818181818182,378,0,44,DL_heartfullpop_2_Guitar,6,3,koumou_heartfullpop_ruriko,0.033308595418930054,0
53,100,0.2,493,0,44,DL_heartfullpop_2_Guitar,6,3,koumou_heartfullpop_ruriko,0.030989468097686768,0
53,100,0.6590909090909091,545,0,44,DL_heartfullpop_2_Guitar,6,11,koumou_heartfullpop_ruriko,0.02893194556236267,0
53,100,0.18181818181818182,751,0,44,DL_heartfullpop_2_Guitar,6,3,koumou_heartfullpop_ruriko,0.03705194965004921,0
65,100,0.1409090909090909,791,0,44,DL_heartfullpop_2_Guitar,6,2,koumou_heartfullpop_ruriko,0.041278619319200516,0
53,100,0.1409090909090909,823,0,44,DL_heartfullpop_2_Guitar,6,2,koumou_heartfullpop_ruriko,0.04950642213225365,0
53,100,0.8181818181818182,875,0,44,DL_heartfullpop_2_Guitar,6,13,koumou_heartfullpop_ruriko,0.04497656971216202,0
53,100,0.4409090909090909,211,1,45,DL_heartfullpop_2_Guitar,6,7,koumou_heartfullpop_ruriko,0.9998190999031067,1
62,100,0.2590909090909091,496,1,45,DL_heartfullpop_2_Guitar,6,4,koumou_heartfullpop_ruriko,0.43520358204841614,0
62,100,0.1590909090909091,558,0,45,DL_heartfullpop_2_Guitar,6,3,koumou_heartfullpop_ruriko,0.42693063616752625,0
62,100,0.37727272727272726,348,1,46,DL_heartfullpop_2_Guitar,6,6,koumou_heartfullpop_ruriko,0.9998316764831543,1
62,100,0.2409090909090909,474,0,46,DL_heartfullpop_2_Guitar,6,4,koumou_heartfullpop_ruriko,0.2082173079252243,0
65,100,0.22272727272727272,619,0,46,DL_heartfullpop_2_Guitar,6,4,koumou_heartfullpop_ruriko,0.20476120710372925,0
62,100,0.4,694,0,46,DL_heartfullpop_2_Guitar,6,6,koumou_heartfullpop_ruriko,0.20588701963424683,0
62,100,0.1409090909090909,861,0,46,DL_heartfullpop_2_Guitar,6,2,koumou_heartfullpop_ruriko,0.2140229195356369,0
62,100,0.13636363636363635,61,1,47,DL_heartfullpop_2_Guitar,6,2,koumou_heartfullpop_ruriko,0.9998340606689453,1
62,100,0.3,496,1,47,DL_heartfullpop_2_Guitar,6,5,koumou_heartfullpop_ruriko,0.41281211376190186,0
53,100,0.3,638,0,47,DL_heartfullpop_2_Guitar,6,5,koumou_heartfullpop_ruriko,0.4272347390651703,0
53,100,0.12272727272727273,201,1,48,DL_heartfullpop_2_Guitar,6,2,koumou_heartfullpop_ruriko,0.9998455047607422,1
53,100,0.22272727272727272,453,1,48,DL_heartfullpop_2_Guitar,6,4,koumou_heartfullpop_ruriko,0.19908557832241058,0
53,100,0.1590909090909091,506,0,48,DL_heartfullpop_2_Guitar,6,3,koumou_heartfullpop_ruriko,0.19686582684516907,0
53,100,0.41818181818181815,655,0,48,DL_heartfullpop_2_Guitar,6,7,koumou_heartfullpop_ruriko,0.19678539037704468,0
53,100,0.2590909090909091,853,0,48,DL_heartfullpop_2_Guitar,6,4,koumou_heartfullpop_ruriko,0.20481763780117035,0
53,100,0.2818181818181818,179,1,49,DL_heartfullpop_2_Guitar,6,5,koumou_heartfullpop_ruriko,0.9998071789741516,1
62,100,0.11818181818181818,458,1,49,DL_heartfullpop_2_Guitar,6,2,koumou_heartfullpop_ruriko,0.1268095076084137,0
60,100,0.1409090909090909,515,0,49,DL_heartfullpop_2_Guitar,6,2,koumou_heartfullpop_ruriko,0.12139686942100525,0
53,100,0.17727272727272728,558,0,49,DL_heartfullpop_2_Guitar,6,3,koumou_heartfullpop_ruriko,0.1297379732131958,0
53,100,0.5590909090909091,738,0,49,DL_heartfullpop_2_Guitar,6,9,koumou_heartfullpop_ruriko,0.1365775316953659,0
53,100,0.1590909090909091,871,0,49,DL_heartfullpop_2_Guitar,6,3,koumou_heartfullpop_ruriko,0.13630366325378418,0
65,100,0.18181818181818182,26,1,50,DL_heartfullpop_2_Guitar,6,3,koumou_heartfullpop_ruriko,0.9998389482498169,1
53,100,0.1409090909090909,66,0,50,DL_heartfullpop_2_Guitar,6,2,koumou_heartfullpop_ruriko,0.21295367181301117,0
62,100,0.4409090909090909,185,0,50,DL_heartfullpop_2_Guitar,6,7,koumou_heartfullpop_ruriko,0.18776437640190125,0
60,100,0.3,396,0,50,DL_heartfullpop_2_Guitar,6,5,koumou_heartfullpop_ruriko,0.20780667662620544,0
60,100,0.12272727272727273,474,0,50,DL_heartfullpop_2_Guitar,6,2,koumou_heartfullpop_ruriko,0.2029268443584442,0
62,100,0.4,114,1,51,DL_heartfullpop_2_Guitar,6,6,koumou_heartfullpop_ruriko,0.9998282194137573,1
60,100,0.1409090909090909,211,0,51,DL_heartfullpop_2_Guitar,6,2,koumou_heartfullpop_ruriko,0.41775286197662354,0
65,100,0.38181818181818183,330,0,51,DL_heartfullpop_2_Guitar,6,6,koumou_heartfullpop_ruriko,0.4260648190975189,0
58,100,0.1590909090909091,651,1,52,DL_heartfullpop_2_Guitar,6,3,koumou_heartfullpop_ruriko,0.9996137022972107,1
53,100,0.1,691,0,52,DL_heartfullpop_2_Guitar,6,2,koumou_heartfullpop_ruriko,0.5590748190879822,0
58,100,0.3409090909090909,66,1,53,DL_heartfullpop_2_Guitar,6,5,koumou_heartfullpop_ruriko,0.9998186230659485,1
53,100,0.12272727272727273,408,1,53,DL_heartfullpop_2_Guitar,6,2,koumou_heartfullpop_ruriko,0.4355398118495941,0
62,100,0.4,616,0,53,DL_heartfullpop_2_Guitar,6,6,koumou_heartfullpop_ruriko,0.42127373814582825,0
62,100,0.4590909090909091,853,1,54,DL_heartfullpop_2_Guitar,6,7,koumou_heartfullpop_ruriko,0.9928526282310486,0
62,100,0.1409090909090909,166,1,55,DL_heartfullpop_2_Guitar,6,2,koumou_heartfullpop_ruriko,0.9998044371604919,1
62,100,0.759090909090909,286,0,55,DL_heartfullpop_2_Guitar,6,12,koumou_heartfullpop_ruriko,0.11639673262834549,0
55,100,0.5590909090909091,518,1,55,DL_heartfullpop_2_Guitar,6,9,koumou_heartfullpop_ruriko,0.12091261893510818,0
55,100,0.43636363636363634,655,0,55,DL_heartfullpop_2_Guitar,6,7,koumou_heartfullpop_ruriko,0.14064045250415802,0
53,100,0.11818181818181818,765,0,55,DL_heartfullpop_2_Guitar,6,2,koumou_heartfullpop_ruriko,0.15979264676570892,0
55,100,0.1409090909090909,804,0,55,DL_heartfullpop_2_Guitar,6,2,koumou_heartfullpop_ruriko,0.13611792027950287,0
55,100,0.12272727272727273,48,1,56,DL_heartfullpop_2_Guitar,6,2,koumou_heartfullpop_ruriko,0.9998220801353455,1
60,100,0.7,351,1,56,DL_heartfullpop_2_Guitar,6,11,koumou_heartfullpop_ruriko,0.4027855694293976,0
60,100,1.040909090909091,571,0,56,DL_heartfullpop_2_Guitar,6,15,koumou_heartfullpop_ruriko,0.4272924065589905,0
53,100,0.11818181818181818,153,1,57,DL_heartfullpop_2_Guitar,6,2,koumou_heartfullpop_ruriko,0.9935164451599121,0
65,100,0.18181818181818182,56,1,58,DL_heartfullpop_2_Guitar,6,3,koumou_heartfullpop_ruriko,0.9998363256454468,1
65,100,0.3409090909090909,233,0,58,DL_heartfullpop_2_Guitar,6,5,koumou_heartfullpop_ruriko,0.3977501392364502,0
60,100,0.4636363636363636,774,1,58,DL_heartfullpop_2_Guitar,6,7,koumou_heartfullpop_ruriko,0.4285290241241455,0
60,100,0.18181818181818182,136,1,59,DL_heartfullpop_2_Guitar,6,3,koumou_heartfullpop_ruriko,0.9997392296791077,1
60,100,0.2636363636363636,179,0,59,DL_heartfullpop_2_Guitar,6,4,koumou_heartfullpop_ruriko,0.05488685891032219,0
60,100,0.1409090909090909,311,0,59,DL_heartfullpop_2_Guitar,6,2,koumou_heartfullpop_ruriko,0.04739713296294212,0
53,100,0.5409090909090909,474,0,59,DL_heartfullpop_2_Guitar,6,9,koumou_heartfullpop_ruriko,0.04322453960776329,0
53,100,0.3,606,0,59,DL_heartfullpop_2_Guitar,6,5,koumou_heartfullpop_ruriko,0.054955463856458664,0
65,100,0.12272727272727273,673,0,59,DL_heartfullpop_2_Guitar,6,2,koumou_heartfullpop_ruriko,0.0598096027970314,0
53,100,0.5363636363636364,743,0,59,DL_heartfullpop_2_Guitar,6,9,koumou_heartfullpop_ruriko,0.06362351775169373,0
53,100,0.2818181818181818,871,0,59,DL_heartfullpop_2_Guitar,6,5,koumou_heartfullpop_ruriko,0.06348105520009995,0
53,100,0.35909090909090907,128,1,60,DL_heartfullpop_2_Guitar,6,6,koumou_heartfullpop_ruriko,0.9996827840805054,1
53,100,0.18181818181818182,276,0,60,DL_heartfullpop_2_Guitar,6,3,koumou_heartfullpop_ruriko,0.03617898002266884,0
60,100,0.2,330,0,60,DL_heartfullpop_2_Guitar,6,3,koumou_heartfullpop_ruriko,0.025957327336072922,0
53,100,0.2409090909090909,386,0,60,DL_heartfullpop_2_Guitar,6,4,koumou_heartfullpop_ruriko,0.020644379779696465,0
65,100,0.11818181818181818,440,0,60,DL_heartfullpop_2_Guitar,6,2,koumou_heartfullpop_ruriko,0.018991287797689438,0
53,100,0.16363636363636364,466,0,60,DL_heartfullpop_2_Guitar,6,3,koumou_heartfullpop_ruriko,0.019227109849452972,0
53,100,0.16363636363636364,509,0,60,DL_heartfullpop_2_Guitar,6,3,koumou_heartfullpop_ruriko,0.021729599684476852,0
60,100,0.1,606,0,60,DL_heartfullpop_2_Guitar,6,2,koumou_heartfullpop_ruriko,0.028372235596179962,0
53,100,0.33636363636363636,633,0,60,DL_heartfullpop_2_Guitar,6,5,koumou_heartfullpop_ruriko,0.03521905094385147,0
53,100,0.1590909090909091,716,0,60,DL_heartfullpop_2_Guitar,6,3,koumou_heartfullpop_ruriko,0.03883224353194237,0
53,100,0.2590909090909091,18,1,61,DL_heartfullpop_2_Guitar,6,4,koumou_heartfullpop_ruriko,0.9996699094772339,1
53,100,0.2590909090909091,78,0,61,DL_heartfullpop_2_Guitar,6,4,koumou_heartfullpop_ruriko,0.0320780910551548,0
53,100,0.2,153,0,61,DL_heartfullpop_2_Guitar,6,3,koumou_heartfullpop_ruriko,0.02152673341333866,0
53,100,0.2818181818181818,289,0,61,DL_heartfullpop_2_Guitar,6,5,koumou_heartfullpop_ruriko,0.016117537394165993,0
65,100,0.2409090909090909,351,0,61,DL_heartfullpop_2_Guitar,6,4,koumou_heartfullpop_ruriko,0.013508159667253494,0
53,100,0.3,405,0,61,DL_heartfullpop_2_Guitar,6,5,koumou_heartfullpop_ruriko,0.01303804013878107,0
53,100,0.23636363636363636,545,0,61,DL_heartfullpop_2_Guitar,6,4,koumou_heartfullpop_ruriko,0.013386625796556473,0
53,100,0.11818181818181818,625,0,61,DL_heartfullpop_2_Guitar,6,2,koumou_heartfullpop_ruriko,0.01736164279282093,0
53,100,0.16363636363636364,664,0,61,DL_heartfullpop_2_Guitar,6,3,koumou_heartfullpop_ruriko,0.02320641279220581,0
53,100,0.17727272727272728,713,0,61,DL_heartfullpop_2_Guitar,6,3,koumou_heartfullpop_ruriko,0.032533109188079834,0
62,100,1.1636363636363636,796,0,61,DL_heartfullpop_2_Guitar,6,15,koumou_heartfullpop_ruriko,0.032012250274419785,0
65,100,0.18181818181818182,188,1,62,DL_heartfullpop_2_Guitar,6,3,koumou_heartfullpop_ruriko,0.9998076558113098,1
65,100,0.1,263,0,62,DL_heartfullpop_2_Guitar,6,2,koumou_heartfullpop_ruriko,0.12607665359973907,0
62,100,0.2,361,0,62,DL_heartfullpop_2_Guitar,6,3,koumou_heartfullpop_ruriko,0.1163863018155098,0
62,100,0.21818181818181817,506,0,62,DL_heartfullpop_2_Guitar,6,3,koumou_heartfullpop_ruriko,0.1348126083612442,0
62,100,0.5590909090909091,568,0,62,DL_heartfullpop_2_Guitar,6,9,koumou_heartfullpop_ruriko,0.13494588434696198,0
65,100,0.22272727272727272,761,0,62,DL_heartfullpop_2_Guitar,6,4,koumou_heartfullpop_ruriko,0.13564646244049072,0
62,100,0.22272727272727272,13,1,63,DL_heartfullpop_2_Guitar,6,4,koumou_heartfullpop_ruriko,0.9998428821563721,1
62,100,0.3181818181818182,198,0,63,DL_heartfullpop_2_Guitar,6,5,koumou_heartfullpop_ruriko,0.2088944911956787,0
65,100,0.3,268,0,63,DL_heartfullpop_2_Guitar,6,5,koumou_heartfullpop_ruriko,0.19275794923305511,0
62,100,0.11818181818181818,603,1,63,DL_heartfullpop_2_Guitar,6,2,koumou_heartfullpop_ruriko,0.2110634744167328,0
65,100,0.22272727272727272,664,0,63,DL_heartfullpop_2_Guitar,6,4,koumou_heartfullpop_ruriko,0.20398791134357452,0
65,100,0.17727272727272728,62,1,64,DL_heartfullpop_2_Guitar,6,3,koumou_heartfullpop_ruriko,0.9996740818023682,1
62,100,0.1590909090909091,176,0,64,DL_heartfullpop_2_Guitar,6,3,koumou_heartfullpop_ruriko,0.03124568611383438,0
53,100,0.3,237,0,64,DL_heartfullpop_2_Guitar,6,5,koumou_heartfullpop_ruriko,0.021242182701826096,0
62,100,0.5,316,0,64,DL_heartfullpop_2_Guitar,6,8,koumou_heartfullpop_ruriko,0.01583850011229515,0
65,100,0.2590909090909091,430,0,64,DL_heartfullpop_2_Guitar,6,4,koumou_heartfullpop_ruriko,0.01410205289721489,0
58,100,0.2,519,0,64,DL_heartfullpop_2_Guitar,6,3,koumou_heartfullpop_ruriko,0.012033926323056221,0
53,100,0.3,619,0,64,DL_heartfullpop_2_Guitar,6,5,koumou_heartfullpop_ruriko,0.014302490279078484,0
65,100,0.3,686,0,64,DL_heartfullpop_2_Guitar,6,5,koumou_heartfullpop_ruriko,0.017110487446188927,0
53,100,0.32272727272727275,752,0,64,DL_heartfullpop_2_Guitar,6,5,koumou_heartfullpop_ruriko,0.02338307909667492,0
65,100,0.21818181818181817,823,0,64,DL_heartfullpop_2_Guitar,6,3,koumou_heartfullpop_ruriko,0.03211848810315132,0
53,100,0.35909090909090907,876,0,64,DL_heartfullpop_2_Guitar,6,6,koumou_heartfullpop_ruriko,0.03476176783442497,0
65,100,0.4636363636363636,113,1,65,DL_heartfullpop_2_Guitar,6,7,koumou_heartfullpop_ruriko,0.9997274279594421,1
53,100,0.5181818181818182,250,0,65,DL_heartfullpop_2_Guitar,6,8,koumou_heartfullpop_ruriko,0.054260700941085815,0
53,100,0.32272727272727275,377,0,65,DL_heartfullpop_2_Guitar,6,5,koumou_heartfullpop_ruriko,0.04793644696474075,0
58,100,0.3409090909090909,475,0,65,DL_heartfullpop_2_Guitar,6,5,koumou_heartfullpop_ruriko,0.04457005113363266,0
65,100,0.11818181818181818,580,0,65,DL_heartfullpop_2_Guitar,6,2,koumou_heartfullpop_ruriko,0.054193973541259766,0
53,100,0.42272727272727273,642,0,65,DL_heartfullpop_2_Guitar,6,7,koumou_heartfullpop_ruriko,0.059389688074588776,0
53,100,0.2,773,0,65,DL_heartfullpop_2_Guitar,6,3,koumou_heartfullpop_ruriko,0.06806434690952301,0
62,100,0.3,823,0,65,DL_heartfullpop_2_Guitar,6,5,koumou_heartfullpop_ruriko,0.061841562390327454,0
53,100,0.11818181818181818,150,1,66,DL_heartfullpop_2_Guitar,6,2,koumou_heartfullpop_ruriko,0.9998114705085754,1
60,100,0.35909090909090907,193,0,66,DL_heartfullpop_2_Guitar,6,6,koumou_heartfullpop_ruriko,0.122904933989048,0
53,100,0.4409090909090909,396,0,66,DL_heartfullpop_2_Guitar,6,7,koumou_heartfullpop_ruriko,0.11808247119188309,0
53,100,0.1590909090909091,496,0,66,DL_heartfullpop_2_Guitar,6,3,koumou_heartfullpop_ruriko,0.14160111546516418,0
53,100,0.1409090909090909,540,0,66,DL_heartfullpop_2_Guitar,6,2,koumou_heartfullpop_ruriko,0.14232763648033142,0
60,100,0.8181818181818182,572,0,66,DL_heartfullpop_2_Guitar,6,13,koumou_heartfullpop_ruriko,0.124172143638134,0
53,100,0.1,56,1,67,DL_heartfullpop_2_Guitar,6,2,koumou_heartfullpop_ruriko,0.9997429251670837,1
65,100,0.3409090909090909,100,0,67,DL_heartfullpop_2_Guitar,6,5,koumou_heartfullpop_ruriko,0.05270262062549591,0
60,100,0.32272727272727275,179,0,67,DL_heartfullpop_2_Guitar,6,5,koumou_heartfullpop_ruriko,0.04628091678023338,0
65,100,0.17727272727272728,260,0,67,DL_heartfullpop_2_Guitar,6,3,koumou_heartfullpop_ruriko,0.04543827101588249,0
60,100,0.2,365,0,67,DL_heartfullpop_2_Guitar,6,3,koumou_heartfullpop_ruriko,0.05242873728275299,0
60,100,0.7,413,0,67,DL_heartfullpop_2_Guitar,6,11,koumou_heartfullpop_ruriko,0.05531865358352661,0
60,100,0.3,612,0,67,DL_heartfullpop_2_Guitar,6,5,koumou_heartfullpop_ruriko,0.06973068416118622,0
65,100,0.3,832,0,67,DL_heartfullpop_2_Guitar,6,5,koumou_heartfullpop_ruriko,0.060246001929044724,0
60,100,0.21818181818181817,30,1,68,DL_heartfullpop_2_Guitar,6,3,koumou_heartfullpop_ruriko,0.9997425675392151,1
65,100,0.38181818181818183,113,0,68,DL_heartfullpop_2_Guitar,6,6,koumou_heartfullpop_ruriko,0.05448748916387558,0
53,100,0.12272727272727273,202,0,68,DL_heartfullpop_2_Guitar,6,2,koumou_heartfullpop_ruriko,0.048072438687086105,0
65,100,0.4,242,0,68,DL_heartfullpop_2_Guitar,6,6,koumou_heartfullpop_ruriko,0.04668606445193291,0
60,100,0.5409090909090909,330,0,68,DL_heartfullpop_2_Guitar,6,9,koumou_heartfullpop_ruriko,0.05452796816825867,0
65,100,0.3181818181818182,457,0,68,DL_heartfullpop_2_Guitar,6,5,koumou_heartfullpop_ruriko,0.06315210461616516,0
60,100,0.7818181818181819,593,0,68,DL_heartfullpop_2_Guitar,6,13,koumou_heartfullpop_ruriko,0.0633264034986496,0
53,100,0.9409090909090909,839,1,68,DL_heartfullpop_2_Guitar,6,15,koumou_heartfullpop_ruriko,0.06288450211286545,0
65,100,0.2818181818181818,166,1,69,DL_heartfullpop_2_Guitar,6,5,koumou_heartfullpop_ruriko,0.9998064637184143,1
53,100,0.11818181818181818,263,0,69,DL_heartfullpop_2_Guitar,6,2,koumou_heartfullpop_ruriko,0.1299118995666504,0
53,100,0.1590909090909091,294,0,69,DL_heartfullpop_2_Guitar,6,3,koumou_heartfullpop_ruriko,0.12126412987709045,0
53,100,0.2590909090909091,352,0,69,DL_heartfullpop_2_Guitar,6,4,koumou_heartfullpop_ruriko,0.13158230483531952,0
53,100,0.3,496,0,69,DL_heartfullpop_2_Guitar,6,5,koumou_heartfullpop_ruriko,0.14107036590576172,0
65,100,0.22272727272727272,563,0,69,DL_heartfullpop_2_Guitar,6,4,koumou_heartfullpop_ruriko,0.12794344127178192,0
60,100,0.1590909090909091,40,1,70,DL_heartfullpop_2_Guitar,6,3,koumou_heartfullpop_ruriko,0.9996861219406128,1
60,100,0.11818181818181818,87,0,70,DL_heartfullpop_2_Guitar,6,2,koumou_heartfullpop_ruriko,0.03609839826822281,0
53,100,0.2818181818181818,123,0,70,DL_heartfullpop_2_Guitar,6,5,koumou_heartfullpop_ruriko,0.024746274575591087,0
65,100,0.3,330,0,70,DL_heartfullpop_2_Guitar,6,5,koumou_heartfullpop_ruriko,0.021445875987410545,0
53,100,0.2818181818181818,396,0,70,DL_heartfullpop_2_Guitar,6,5,koumou_heartfullpop_ruriko,0.01899365894496441,0
53,100,0.11818181818181818,470,0,70,DL_heartfullpop_2_Guitar,6,2,koumou_heartfullpop_ruriko,0.02007937803864479,0
53,100,0.36363636363636365,509,0,70,DL_heartfullpop_2_Guitar,6,6,koumou_heartfullpop_ruriko,0.022624649107456207,0
60,100,0.2409090909090909,597,0,70,DL_heartfullpop_2_Guitar,6,4,koumou_heartfullpop_ruriko,0.029484840109944344,0
53,100,0.4772727272727273,656,0,70,DL_heartfullpop_2_Guitar,6,8,koumou_heartfullpop_ruriko,0.03690413385629654,0
53,100,0.5772727272727273,766,0,70,DL_heartfullpop_2_Guitar,6,9,koumou_heartfullpop_ruriko,0.038713112473487854,0
60,100,0.21818181818181817,40,1,71,DL_heartfullpop_2_Guitar,6,3,koumou_heartfullpop_ruriko,0.999703586101532,1
53,100,0.11818181818181818,106,0,71,DL_heartfullpop_2_Guitar,6,2,koumou_heartfullpop_ruriko,0.0435054637491703,0
53,100,0.1409090909090909,157,0,71,DL_heartfullpop_2_Guitar,6,2,koumou_heartfullpop_ruriko,0.03263895958662033,0
60,100,0.21818181818181817,197,0,71,DL_heartfullpop_2_Guitar,6,3,koumou_heartfullpop_ruriko,0.030047258362174034,0
62,100,0.2590909090909091,276,0,71,DL_heartfullpop_2_Guitar,6,4,koumou_heartfullpop_ruriko,0.029651671648025513,0
62,100,0.6181818181818182,339,0,71,DL_heartfullpop_2_Guitar,6,10,koumou_heartfullpop_ruriko,0.03196258842945099,0
62,100,0.2590909090909091,480,0,71,DL_heartfullpop_2_Guitar,6,4,koumou_heartfullpop_ruriko,0.04386810213327408,0
62,100,0.2409090909090909,603,0,71,DL_heartfullpop_2_Guitar,6,4,koumou_heartfullpop_ruriko,0.04782968387007713,0
65,100,0.2590909090909091,870,1,71,DL_heartfullpop_2_Guitar,6,4,koumou_heartfullpop_ruriko,0.046595633029937744,0
65,100,0.4409090909090909,69,1,72,DL_heartfullpop_2_Guitar,6,7,koumou_heartfullpop_ruriko,0.999717652797699,1
62,100,0.3,233,0,72,DL_heartfullpop_2_Guitar,6,5,koumou_heartfullpop_ruriko,0.0568217895925045,0
65,100,0.17727272727272728,370,0,72,DL_heartfullpop_2_Guitar,6,3,koumou_heartfullpop_ruriko,0.048317790031433105,0
62,100,0.36363636363636365,553,0,72,DL_heartfullpop_2_Guitar,6,6,koumou_heartfullpop_ruriko,0.046372998505830765,0
65,100,0.3181818181818182,633,0,72,DL_heartfullpop_2_Guitar,6,5,koumou_heartfullpop_ruriko,0.05381946638226509,0
53,100,0.2,716,0,72,DL_heartfullpop_2_Guitar,6,3,koumou_heartfullpop_ruriko,0.06177326664328575,0
62,100,0.11818181818181818,823,0,72,DL_heartfullpop_2_Guitar,6,2,koumou_heartfullpop_ruriko,0.06668032705783844,0
62,100,0.4,866,0,72,DL_heartfullpop_2_Guitar,6,6,koumou_heartfullpop_ruriko,0.059779174625873566,0
57,100,0.1590909090909091,79,1,73,DL_heartfullpop_2_Guitar,6,3,koumou_heartfullpop_ruriko,0.9998028874397278,1
65,100,0.1590909090909091,145,0,73,DL_heartfullpop_2_Guitar,6,3,koumou_heartfullpop_ruriko,0.1278434842824936,0
57,100,0.13636363636363635,216,0,73,DL_heartfullpop_2_Guitar,6,2,koumou_heartfullpop_ruriko,0.11645279079675674,0
65,100,0.2818181818181818,386,0,73,DL_heartfullpop_2_Guitar,6,5,koumou_heartfullpop_ruriko,0.13588576018810272,0
62,100,0.12272727272727273,453,0,73,DL_heartfullpop_2_Guitar,6,2,koumou_heartfullpop_ruriko,0.1423438936471939,0
53,100,0.18181818181818182,593,0,73,DL_heartfullpop_2_Guitar,6,3,koumou_heartfullpop_ruriko,0.1284305304288864,0
60,100,0.32272727272727275,13,1,74,DL_heartfullpop_2_Guitar,6,5,koumou_heartfullpop_ruriko,0.9997097849845886,1
53,100,0.2590909090909091,100,0,74,DL_heartfullpop_2_Guitar,6,4,koumou_heartfullpop_ruriko,0.04232902079820633,0
53,100,0.35909090909090907,352,1,74,DL_heartfullpop_2_Guitar,6,6,koumou_heartfullpop_ruriko,0.03232705593109131,0
53,100,0.2,436,0,74,DL_heartfullpop_2_Guitar,6,3,koumou_heartfullpop_ruriko,0.03006640262901783,0
65,100,0.1,502,0,74,DL_heartfullpop_2_Guitar,6,2,koumou_heartfullpop_ruriko,0.03024262748658657,0
65,100,0.1,536,0,74,DL_heartfullpop_2_Guitar,6,2,koumou_heartfullpop_ruriko,0.03294007480144501,0
53,100,0.1409090909090909,619,0,74,DL_heartfullpop_2_Guitar,6,2,koumou_heartfullpop_ruriko,0.04001873359084129,0
53,100,0.2,747,0,74,DL_heartfullpop_2_Guitar,6,3,koumou_heartfullpop_ruriko,0.047238584607839584,0
60,100,0.2,849,0,74,DL_heartfullpop_2_Guitar,6,3,koumou_heartfullpop_ruriko,0.04552596062421799,0
65,100,0.2,22,1,75,DL_heartfullpop_2_Guitar,6,3,koumou_heartfullpop_ruriko,0.999703586101532,1
53,100,0.2409090909090909,69,0,75,DL_heartfullpop_2_Guitar,6,4,koumou_heartfullpop_ruriko,0.04218611121177673,0
60,100,0.41818181818181815,150,0,75,DL_heartfullpop_2_Guitar,6,7,koumou_heartfullpop_ruriko,0.03259581699967384,0
60,100,0.4818181818181818,286,0,75,DL_heartfullpop_2_Guitar,6,8,koumou_heartfullpop_ruriko,0.02970874309539795,0
65,100,0.3,392,0,75,DL_heartfullpop_2_Guitar,6,5,koumou_heartfullpop_ruriko,0.03004177287220955,0
60,100,0.12272727272727273,466,0,75,DL_heartfullpop_2_Guitar,6,2,koumou_heartfullpop_ruriko,0.03578666225075722,0
53,100,0.16363636363636364,509,0,75,DL_heartfullpop_2_Guitar,6,3,koumou_heartfullpop_ruriko,0.03994312882423401,0
65,100,0.4409090909090909,597,0,75,DL_heartfullpop_2_Guitar,6,7,koumou_heartfullpop_ruriko,0.045416418462991714,0
53,100,0.4409090909090909,844,1,75,DL_heartfullpop_2_Guitar,6,7,koumou_heartfullpop_ruriko,0.04696614667773247,0
53,100,0.2590909090909091,83,1,76,DL_heartfullpop_2_Guitar,6,4,koumou_heartfullpop_ruriko,0.9998311996459961,1
53,100,0.18181818181818182,176,0,76,DL_heartfullpop_2_Guitar,6,3,koumou_heartfullpop_ruriko,0.20494365692138672,0
53,100,1.1,229,0,76,DL_heartfullpop_2_Guitar,6,15,koumou_heartfullpop_ruriko,0.1787690669298172,0
60,100,0.1409090909090909,713,1,76,DL_heartfullpop_2_Guitar,6,2,koumou_heartfullpop_ruriko,0.23722951114177704,0
53,100,0.23636363636363636,876,0,76,DL_heartfullpop_2_Guitar,6,4,koumou_heartfullpop_ruriko,0.20611190795898438,0
53,100,0.5590909090909091,127,1,77,DL_heartfullpop_2_Guitar,6,9,koumou_heartfullpop_ruriko,0.999783456325531,1
60,100,0.1,413,1,77,DL_heartfullpop_2_Guitar,6,2,koumou_heartfullpop_ruriko,0.1401492953300476,0
53,100,0.5,440,0,77,DL_heartfullpop_2_Guitar,6,8,koumou_heartfullpop_ruriko,0.11566953361034393,0
53,100,0.18181818181818182,563,0,77,DL_heartfullpop_2_Guitar,6,3,koumou_heartfullpop_ruriko,0.13544705510139465,0
65,100,0.11818181818181818,656,0,77,DL_heartfullpop_2_Guitar,6,2,koumou_heartfullpop_ruriko,0.14842893183231354,0
60,100,0.3181818181818182,734,0,77,DL_heartfullpop_2_Guitar,6,5,koumou_heartfullpop_ruriko,0.13207320868968964,0
53,100,0.12272727272727273,69,1,78,DL_heartfullpop_2_Guitar,6,2,koumou_heartfullpop_ruriko,0.9997357726097107,1
60,100,0.11818181818181818,119,0,78,DL_heartfullpop_2_Guitar,6,2,koumou_heartfullpop_ruriko,0.05539138615131378,0
53,100,0.8772727272727273,273,0,78,DL_heartfullpop_2_Guitar,6,14,koumou_heartfullpop_ruriko,0.041992899030447006,0
65,100,0.22272727272727272,532,1,78,DL_heartfullpop_2_Guitar,6,4,koumou_heartfullpop_ruriko,0.050016652792692184,0
65,100,0.36363636363636365,597,0,78,DL_heartfullpop_2_Guitar,6,6,koumou_heartfullpop_ruriko,0.051029324531555176,0
65,100,0.18181818181818182,682,0,78,DL_heartfullpop_2_Guitar,6,3,koumou_heartfullpop_ruriko,0.062194064259529114,0
53,100,0.1,722,0,78,DL_heartfullpop_2_Guitar,6,2,koumou_heartfullpop_ruriko,0.06658416986465454,0
65,100,0.3,743,0,78,DL_heartfullpop_2_Guitar,6,5,koumou_heartfullpop_ruriko,0.05866830796003342,0
53,100,0.1,110,1,79,DL_heartfullpop_2_Guitar,6,2,koumou_heartfullpop_ruriko,0.9998316764831543,1
55,100,0.21818181818181817,457,1,79,DL_heartfullpop_2_Guitar,6,3,koumou_heartfullpop_ruriko,0.40987643599510193,0
55,100,1.3,673,0,79,DL_heartfullpop_2_Guitar,6,15,koumou_heartfullpop_ruriko,0.40342235565185547,0
55,100,0.42272727272727273,453,1,80,DL_heartfullpop_2_Guitar,6,7,koumou_heartfullpop_ruriko,0.9998162388801575,1
53,100,0.1409090909090909,637,0,80,DL_heartfullpop_2_Guitar,6,2,koumou_heartfullpop_ruriko,0.43824949860572815,0
65,100,0.38181818181818183,673,0,80,DL_heartfullpop_2_Guitar,6,6,koumou_heartfullpop_ruriko,0.4218514859676361,0
53,100,0.11818181818181818,153,1,81,DL_heartfullpop_2_Guitar,6,2,koumou_heartfullpop_ruriko,0.9998400211334229,1
65,100,0.12272727272727273,532,1,81,DL_heartfullpop_2_Guitar,6,2,koumou_heartfullpop_ruriko,0.4003545045852661,0
62,100,0.1,743,0,81,DL_heartfullpop_2_Guitar,6,2,koumou_heartfullpop_ruriko,0.4261549413204193,0
53,100,0.13636363636363635,303,1,82,DL_heartfullpop_2_Guitar,6,2,koumou_heartfullpop_ruriko,0.9932706952095032,0
55,100,0.1,197,1,84,DL_heartfullpop_2_Guitar,6,2,koumou_heartfullpop_ruriko,0.9998277425765991,1
60,100,0.1409090909090909,426,0,84,DL_heartfullpop_2_Guitar,6,2,koumou_heartfullpop_ruriko,0.4312187135219574,0
60,100,1.8772727272727272,480,0,84,DL_heartfullpop_2_Guitar,6,15,koumou_heartfullpop_ruriko,0.39354589581489563,0
53,100,0.1,330,1,85,DL_heartfullpop_2_Guitar,6,2,koumou_heartfullpop_ruriko,0.9998151659965515,1
53,100,0.2772727272727273,392,0,85,DL_heartfullpop_2_Guitar,6,4,koumou_heartfullpop_ruriko,0.12047956138849258,0
53,100,0.3,462,0,85,DL_heartfullpop_2_Guitar,6,5,koumou_heartfullpop_ruriko,0.12197461724281311,0
53,100,0.2772727272727273,567,0,85,DL_heartfullpop_2_Guitar,6,4,koumou_heartfullpop_ruriko,0.1335456520318985,0
53,100,0.2409090909090909,800,1,85,DL_heartfullpop_2_Guitar,6,4,koumou_heartfullpop_ruriko,0.14280524849891663,0
57,100,0.1,866,0,85,DL_heartfullpop_2_Guitar,6,2,koumou_heartfullpop_ruriko,0.13075010478496552,0
60,100,0.17727272727272728,273,1,86,DL_heartfullpop_2_Guitar,6,3,koumou_heartfullpop_ruriko,0.9998136162757874,1
60,100,0.18181818181818182,320,0,86,DL_heartfullpop_2_Guitar,6,3,koumou_heartfullpop_ruriko,0.12156765908002853,0
60,100,0.4,392,0,86,DL_heartfullpop_2_Guitar,6,6,koumou_heartfullpop_ruriko,0.11471019685268402,0
53,100,0.3181818181818182,480,0,86,DL_heartfullpop_2_Guitar,6,5,koumou_heartfullpop_ruriko,0.13575564324855804,0
60,100,0.2409090909090909,559,0,86,DL_heartfullpop_2_Guitar,6,4,koumou_heartfullpop_ruriko,0.14082026481628418,0
60,100,0.2772727272727273,844,1,86,DL_heartfullpop_2_Guitar,6,4,koumou_heartfullpop_ruriko,0.1320427656173706,0
60,100,0.2,30,1,87,DL_heartfullpop_2_Guitar,6,3,koumou_heartfullpop_ruriko,0.9998610019683838,1
60,100,0.11818181818181818,87,0,87,DL_heartfullpop_2_Guitar,6,2,koumou_heartfullpop_ruriko,0.31939128041267395,0
60,100,0.11818181818181818,197,0,87,DL_heartfullpop_2_Guitar,6,2,koumou_heartfullpop_ruriko,0.2904541492462158,0
53,100,0.8590909090909091,703,1,87,DL_heartfullpop_2_Guitar,6,14,koumou_heartfullpop_ruriko,0.28690916299819946,0
65,100,0.42272727272727273,13,1,88,DL_heartfullpop_2_Guitar,6,7,koumou_heartfullpop_ruriko,0.9997292160987854,1
53,100,0.21818181818181817,140,0,88,DL_heartfullpop_2_Guitar,6,3,koumou_heartfullpop_ruriko,0.0560738630592823,0
53,100,0.1409090909090909,202,0,88,DL_heartfullpop_2_Guitar,6,2,koumou_heartfullpop_ruriko,0.04717245325446129,0
65,100,0.1590909090909091,260,0,88,DL_heartfullpop_2_Guitar,6,3,koumou_heartfullpop_ruriko,0.04658597707748413,0
65,100,0.17727272727272728,413,0,88,DL_heartfullpop_2_Guitar,6,3,koumou_heartfullpop_ruriko,0.05286167934536934,0
53,100,0.21818181818181817,480,0,88,DL_heartfullpop_2_Guitar,6,3,koumou_heartfullpop_ruriko,0.06017215549945831,0
62,100,0.11818181818181818,580,0,88,DL_heartfullpop_2_Guitar,6,2,koumou_heartfullpop_ruriko,0.06516451388597488,0
65,100,0.18181818181818182,673,0,88,DL_heartfullpop_2_Guitar,6,3,koumou_heartfullpop_ruriko,0.06125028803944588,0
60,100,0.2409090909090909,35,1,89,DL_heartfullpop_2_Guitar,6,4,koumou_heartfullpop_ruriko,0.9997120499610901,1
65,100,0.6818181818181818,87,0,89,DL_heartfullpop_2_Guitar,6,11,koumou_heartfullpop_ruriko,0.039634909480810165,0
53,100,0.13636363636363635,282,0,89,DL_heartfullpop_2_Guitar,6,2,koumou_heartfullpop_ruriko,0.03448256850242615,0
60,100,0.6590909090909091,370,0,89,DL_heartfullpop_2_Guitar,6,11,koumou_heartfullpop_ruriko,0.02937943860888481,0
60,100,0.35909090909090907,536,0,89,DL_heartfullpop_2_Guitar,6,6,koumou_heartfullpop_ruriko,0.03165234997868538,0
65,100,0.4636363636363636,619,0,89,DL_heartfullpop_2_Guitar,6,7,koumou_heartfullpop_ruriko,0.03424013778567314,0
60,100,0.11818181818181818,792,0,89,DL_heartfullpop_2_Guitar,6,2,koumou_heartfullpop_ruriko,0.04316829517483711,0
65,100,0.1,832,0,89,DL_heartfullpop_2_Guitar,6,2,koumou_heartfullpop_ruriko,0.04869362339377403,0
53,100,0.1590909090909091,866,0,89,DL_heartfullpop_2_Guitar,6,3,koumou_heartfullpop_ruriko,0.046713028103113174,0
60,100,1.2227272727272727,123,1,90,DL_heartfullpop_2_Guitar,6,15,koumou_heartfullpop_ruriko,0.9997743964195251,1
60,100,1.1818181818181819,506,1,90,DL_heartfullpop_2_Guitar,6,15,koumou_heartfullpop_ruriko,0.4326624274253845,0
65,100,0.41818181818181815,792,1,90,DL_heartfullpop_2_Guitar,6,7,koumou_heartfullpop_ruriko,0.4582427442073822,0
65,100,0.1590909090909091,56,1,91,DL_heartfullpop_2_Guitar,6,3,koumou_heartfullpop_ruriko,0.9996941089630127,1
60,100,0.1409090909090909,100,0,91,DL_heartfullpop_2_Guitar,6,2,koumou_heartfullpop_ruriko,0.03552320599555969,0
65,100,0.18181818181818182,179,0,91,DL_heartfullpop_2_Guitar,6,3,koumou_heartfullpop_ruriko,0.024487804621458054,0
53,100,0.11818181818181818,220,0,91,DL_heartfullpop_2_Guitar,6,2,koumou_heartfullpop_ruriko,0.020562591031193733,0
53,100,0.6181818181818182,273,0,91,DL_heartfullpop_2_Guitar,6,10,koumou_heartfullpop_ruriko,0.01774984411895275,0
53,100,0.2590909090909091,426,0,91,DL_heartfullpop_2_Guitar,6,4,koumou_heartfullpop_ruriko,0.02035166136920452,0
53,100,0.38181818181818183,519,0,91,DL_heartfullpop_2_Guitar,6,6,koumou_heartfullpop_ruriko,0.021709375083446503,0
53,100,0.23636363636363636,633,0,91,DL_heartfullpop_2_Guitar,6,4,koumou_heartfullpop_ruriko,0.029930146411061287,0
53,100,0.3409090909090909,695,0,91,DL_heartfullpop_2_Guitar,6,5,koumou_heartfullpop_ruriko,0.037141695618629456,0
53,100,0.32272727272727275,870,0,91,DL_heartfullpop_2_Guitar,6,5,koumou_heartfullpop_ruriko,0.038469117134809494,0
53,100,0.1409090909090909,92,1,92,DL_heartfullpop_2_Guitar,6,2,koumou_heartfullpop_ruriko,0.9998072981834412,1
53,100,0.759090909090909,172,0,92,DL_heartfullpop_2_Guitar,6,12,koumou_heartfullpop_ruriko,0.11836526542901993,0
53,100,0.16363636363636364,399,0,92,DL_heartfullpop_2_Guitar,6,3,koumou_heartfullpop_ruriko,0.1277744621038437,0
53,100,0.38181818181818183,440,0,92,DL_heartfullpop_2_Guitar,6,6,koumou_heartfullpop_ruriko,0.1343289017677307,0
53,100,0.12272727272727273,629,0,92,DL_heartfullpop_2_Guitar,6,2,koumou_heartfullpop_ruriko,0.14730802178382874,0
53,100,0.6,826,0,92,DL_heartfullpop_2_Guitar,6,10,koumou_heartfullpop_ruriko,0.1274677813053131,0
53,100,0.3,399,1,93,DL_heartfullpop_2_Guitar,6,5,koumou_heartfullpop_ruriko,0.9931821227073669,1
55,100,0.2590909090909091,475,1,0,_Guitar,6,4,rocky_japanesefolk,0.9998540878295898,1
52,100,0.1590909090909091,704,0,0,_Guitar,6,3,rocky_japanesefolk,0.3330250084400177,0
52,100,0.17727272727272728,757,0,0,_Guitar,6,3,rocky_japanesefolk,0.2923417389392853,0
55,100,0.35909090909090907,871,0,0,_Guitar,6,6,rocky_japanesefolk,0.290141224861145,0
55,100,0.18181818181818182,597,1,1,_Guitar,6,3,rocky_japanesefolk,0.9996131062507629,1
55,100,0.3,642,0,1,_Guitar,6,5,rocky_japanesefolk,0.5517900586128235,0
55,100,0.11818181818181818,339,1,2,_Guitar,6,2,rocky_japanesefolk,0.9996103644371033,1
60,100,0.2590909090909091,474,0,2,_Guitar,6,4,rocky_japanesefolk,0.5515604019165039,0
55,100,0.32272727272727275,136,1,3,_Guitar,6,5,rocky_japanesefolk,0.9998250603675842,1
53,100,0.2590909090909091,351,0,3,_Guitar,6,4,rocky_japanesefolk,0.21894758939743042,0
53,100,0.1409090909090909,537,0,3,_Guitar,6,2,rocky_japanesefolk,0.20614780485630035,0
57,100,0.5,571,0,3,_Guitar,6,8,rocky_japanesefolk,0.1965673267841339,0
57,100,0.2590909090909091,703,0,3,_Guitar,6,4,rocky_japanesefolk,0.21976107358932495,0
57,100,0.1590909090909091,61,1,4,_Guitar,6,3,rocky_japanesefolk,0.999798595905304,1
53,100,0.35909090909090907,101,0,4,_Guitar,6,6,rocky_japanesefolk,0.12831836938858032,0
52,100,0.2,179,0,4,_Guitar,6,3,rocky_japanesefolk,0.1254522204399109,0
52,100,0.2,238,0,4,_Guitar,6,3,rocky_japanesefolk,0.13634388148784637,0
55,100,0.1409090909090909,317,0,4,_Guitar,6,2,rocky_japanesefolk,0.13442862033843994,0
60,100,0.4,496,0,4,_Guitar,6,6,rocky_japanesefolk,0.13314178586006165,0
57,100,0.5,317,1,5,_Guitar,6,8,rocky_japanesefolk,0.9995520710945129,1
55,100,1.0,744,1,5,_Guitar,6,15,rocky_japanesefolk,0.5467716455459595,0
55,100,0.1409090909090909,135,1,6,_Guitar,6,2,rocky_japanesefolk,0.9998194575309753,1
52,100,0.5590909090909091,352,0,6,_Guitar,6,9,rocky_japanesefolk,0.42095324397087097,0
55,100,1.3818181818181818,483,0,6,_Guitar,6,15,rocky_japanesefolk,0.4080848693847656,0
55,100,0.8590909090909091,220,1,7,_Guitar,6,14,rocky_japanesefolk,0.9915675520896912,0
52,100,0.7181818181818181,250,1,8,_Guitar,6,11,rocky_japanesefolk,0.9997934699058533,1
55,100,0.33636363636363636,436,0,8,_Guitar,6,5,rocky_japanesefolk,0.1277717798948288,0
55,100,0.1590909090909091,515,0,8,_Guitar,6,3,rocky_japanesefolk,0.12811003625392914,0
57,100,0.7772727272727272,567,0,8,_Guitar,6,12,rocky_japanesefolk,0.12894409894943237,0
57,100,0.4,744,0,8,_Guitar,6,6,rocky_japanesefolk,0.16151946783065796,0
53,100,0.759090909090909,871,0,8,_Guitar,6,12,rocky_japanesefolk,0.1366218626499176,0
53,100,0.18181818181818182,166,1,9,_Guitar,6,3,rocky_japanesefolk,0.9998308420181274,1
53,100,0.11818181818181818,259,0,9,_Guitar,6,2,rocky_japanesefolk,0.41798850893974304,0
57,100,1.3590909090909091,295,0,9,_Guitar,6,15,rocky_japanesefolk,0.39660295844078064,0
52,100,0.6818181818181818,44,1,10,_Guitar,6,11,rocky_japanesefolk,0.9995763897895813,1
55,100,0.9818181818181818,660,1,10,_Guitar,6,15,rocky_japanesefolk,0.5399032235145569,0
55,100,0.3,0,1,11,_Guitar,6,5,rocky_japanesefolk,0.9997497200965881,1
52,100,0.6181818181818182,228,0,11,_Guitar,6,10,rocky_japanesefolk,0.08345742523670197,0
55,100,0.4590909090909091,383,0,11,_Guitar,6,7,rocky_japanesefolk,0.07081654667854309,0
55,100,0.11818181818181818,493,0,11,_Guitar,6,2,rocky_japanesefolk,0.08885271847248077,0
53,100,0.3181818181818182,646,0,11,_Guitar,6,5,rocky_japanesefolk,0.09371734410524368,0
57,100,0.2409090909090909,783,0,11,_Guitar,6,4,rocky_japanesefolk,0.09734972566366196,0
53,100,0.18181818181818182,849,0,11,_Guitar,6,3,rocky_japanesefolk,0.09554336220026016,0
55,100,0.1,352,1,12,_Guitar,6,2,rocky_japanesefolk,0.999850869178772,1
55,100,0.38181818181818183,462,0,12,_Guitar,6,6,rocky_japanesefolk,0.3129824697971344,0
55,100,0.21818181818181817,634,0,12,_Guitar,6,3,rocky_japanesefolk,0.29994359612464905,0
55,100,0.4,871,1,12,_Guitar,6,6,rocky_japanesefolk,0.3053324222564697,0
52,100,0.21818181818181817,110,1,13,_Guitar,6,3,rocky_japanesefolk,0.9998549222946167,1
52,100,0.6,171,0,13,_Guitar,6,10,rocky_japanesefolk,0.3030077815055847,0
60,100,0.32272727272727275,321,0,13,_Guitar,6,5,rocky_japanesefolk,0.2997840642929077,0
55,100,0.2409090909090909,663,1,13,_Guitar,6,4,rocky_japanesefolk,0.3010212481021881,0
57,100,0.35909090909090907,206,1,14,_Guitar,6,6,rocky_japanesefolk,0.9998475313186646,1
60,100,0.2818181818181818,386,0,14,_Guitar,6,5,rocky_japanesefolk,0.33652907609939575,0
53,100,0.21818181818181817,493,0,14,_Guitar,6,3,rocky_japanesefolk,0.2901483178138733,0
62,100,0.37727272727272726,546,0,14,_Guitar,6,6,rocky_japanesefolk,0.30083513259887695,0
52,100,0.35909090909090907,189,1,15,_Guitar,6,6,rocky_japanesefolk,0.9998393058776855,1
64,100,0.2,716,1,15,_Guitar,6,3,rocky_japanesefolk,0.41728273034095764,0
64,100,0.1,766,0,15,_Guitar,6,2,rocky_japanesefolk,0.4211215674877167,0
57,100,0.3181818181818182,281,1,16,_Guitar,6,5,rocky_japanesefolk,0.9998465776443481,1
52,100,0.2,598,1,16,_Guitar,6,3,rocky_japanesefolk,0.343581885099411,0
52,100,0.18181818181818182,650,0,16,_Guitar,6,3,rocky_japanesefolk,0.28855451941490173,0
57,100,0.12272727272727273,804,0,16,_Guitar,6,2,rocky_japanesefolk,0.29806196689605713,0
59,100,1.2,9,1,17,_Guitar,6,15,rocky_japanesefolk,0.9997759461402893,1
53,100,0.18181818181818182,285,1,17,_Guitar,6,3,rocky_japanesefolk,0.4752053916454315,0
57,100,0.21818181818181817,470,0,17,_Guitar,6,3,rocky_japanesefolk,0.4355742633342743,0
56,100,0.7181818181818181,656,1,18,_Guitar,6,11,rocky_japanesefolk,0.9923366904258728,0
56,100,0.2409090909090909,88,1,19,_Guitar,6,4,rocky_japanesefolk,0.9996017813682556,1
56,100,0.8590909090909091,144,0,19,_Guitar,6,14,rocky_japanesefolk,0.5413318276405334,0
57,100,0.18181818181818182,88,1,20,_Guitar,6,3,rocky_japanesefolk,0.9929325580596924,0
55,100,0.2590909090909091,131,1,22,_Guitar,6,4,rocky_japanesefolk,0.9998301267623901,1
55,100,0.3409090909090909,210,0,22,_Guitar,6,5,rocky_japanesefolk,0.21566316485404968,0
55,100,0.1409090909090909,333,0,22,_Guitar,6,2,rocky_japanesefolk,0.19637545943260193,0
55,100,0.5409090909090909,405,0,22,_Guitar,6,9,rocky_japanesefolk,0.20939476788043976,0
52,100,0.33636363636363636,831,1,22,_Guitar,6,5,rocky_japanesefolk,0.2100137621164322,0
52,100,0.2590909090909091,61,1,23,_Guitar,6,4,rocky_japanesefolk,0.9997684359550476,1
52,100,0.5590909090909091,123,0,23,_Guitar,6,9,rocky_japanesefolk,0.07743952423334122,0
52,100,0.2818181818181818,277,0,23,_Guitar,6,5,rocky_japanesefolk,0.07735317200422287,0
55,100,0.32272727272727275,356,0,23,_Guitar,6,5,rocky_japanesefolk,0.07711600512266159,0
52,100,0.3409090909090909,426,0,23,_Guitar,6,5,rocky_japanesefolk,0.09629835933446884,0
55,100,0.5181818181818182,581,0,23,_Guitar,6,8,rocky_japanesefolk,0.08706548064947128,0
55,100,0.37727272727272726,779,0,23,_Guitar,6,6,rocky_japanesefolk,0.08984167873859406,0
55,100,0.16363636363636364,113,1,24,_Guitar,6,3,rocky_japanesefolk,0.9997010827064514,1
55,100,0.22272727272727272,246,0,24,_Guitar,6,4,rocky_japanesefolk,0.04193545877933502,0
53,100,0.4409090909090909,308,0,24,_Guitar,6,7,rocky_japanesefolk,0.03262978792190552,0
53,100,0.4,430,0,24,_Guitar,6,6,rocky_japanesefolk,0.030754761770367622,0
53,100,0.4,594,0,24,_Guitar,6,6,rocky_japanesefolk,0.030865788459777832,0
57,100,0.3,694,0,24,_Guitar,6,5,rocky_japanesefolk,0.033537011593580246,0
53,100,0.2,770,0,24,_Guitar,6,3,rocky_japanesefolk,0.04214578494429588,0
57,100,0.1,822,0,24,_Guitar,6,2,rocky_japanesefolk,0.048695310950279236,0
53,100,0.1590909090909091,853,0,24,_Guitar,6,3,rocky_japanesefolk,0.04703325405716896,0
55,100,0.5636363636363636,69,1,25,_Guitar,6,9,rocky_japanesefolk,0.9996991157531738,1
52,100,0.12272727272727273,210,0,25,_Guitar,6,2,rocky_japanesefolk,0.06441815942525864,0
52,100,0.17727272727272728,250,0,25,_Guitar,6,3,rocky_japanesefolk,0.046719230711460114,0
52,100,0.21818181818181817,374,0,25,_Guitar,6,3,rocky_japanesefolk,0.045862749218940735,0
52,100,0.1,457,0,25,_Guitar,6,2,rocky_japanesefolk,0.05250800773501396,0
55,100,0.11818181818181818,492,0,25,_Guitar,6,2,rocky_japanesefolk,0.056448012590408325,0
52,100,0.6227272727272727,663,0,25,_Guitar,6,10,rocky_japanesefolk,0.06349240988492966,0
57,100,0.3,839,0,25,_Guitar,6,5,rocky_japanesefolk,0.05893443152308464,0
52,100,0.18181818181818182,443,1,26,_Guitar,6,3,rocky_japanesefolk,0.9998630285263062,1
52,100,0.35909090909090907,501,0,26,_Guitar,6,6,rocky_japanesefolk,0.31266194581985474,0
52,100,0.42272727272727273,752,1,26,_Guitar,6,7,rocky_japanesefolk,0.2882852554321289,0
52,100,0.5818181818181818,862,0,26,_Guitar,6,9,rocky_japanesefolk,0.2968961298465729,0
53,100,0.12272727272727273,123,1,27,_Guitar,6,2,rocky_japanesefolk,0.9997712969779968,1
53,100,0.2818181818181818,154,0,27,_Guitar,6,5,rocky_japanesefolk,0.07593891769647598,0
53,100,0.2590909090909091,220,0,27,_Guitar,6,4,rocky_japanesefolk,0.07345792651176453,0
53,100,0.4590909090909091,413,0,27,_Guitar,6,7,rocky_japanesefolk,0.07735911011695862,0
57,100,0.1590909090909091,615,0,27,_Guitar,6,3,rocky_japanesefolk,0.09040067344903946,0
53,100,0.2818181818181818,660,0,27,_Guitar,6,5,rocky_japanesefolk,0.09713102877140045,0
55,100,0.1,791,0,27,_Guitar,6,2,rocky_japanesefolk,0.0854615643620491,0
55,100,0.11818181818181818,285,1,28,_Guitar,6,2,rocky_japanesefolk,0.999847412109375,1
52,100,0.11818181818181818,470,0,28,_Guitar,6,2,rocky_japanesefolk,0.34384989738464355,0
52,100,0.2,717,1,28,_Guitar,6,3,rocky_japanesefolk,0.28897637128829956,0
52,100,0.3409090909090909,773,0,28,_Guitar,6,5,rocky_japanesefolk,0.29819172620773315,0
55,100,0.1590909090909091,17,1,29,_Guitar,6,3,rocky_japanesefolk,0.9997996687889099,1
55,100,0.5,206,0,29,_Guitar,6,8,rocky_japanesefolk,0.12256941944360733,0
55,100,0.3181818181818182,426,0,29,_Guitar,6,5,rocky_japanesefolk,0.12635840475559235,0
62,100,0.1409090909090909,584,0,29,_Guitar,6,2,rocky_japanesefolk,0.14103801548480988,0
55,100,0.11818181818181818,735,0,29,_Guitar,6,2,rocky_japanesefolk,0.14175185561180115,0
53,100,0.3,818,0,29,_Guitar,6,5,rocky_japanesefolk,0.13238529860973358,0
53,100,0.2818181818181818,92,1,30,_Guitar,6,5,rocky_japanesefolk,0.9998353719711304,1
53,100,0.32272727272727275,223,0,30,_Guitar,6,5,rocky_japanesefolk,0.20831552147865295,0
53,100,0.37727272727272726,303,0,30,_Guitar,6,6,rocky_japanesefolk,0.19115373492240906,0
53,100,0.11818181818181818,413,0,30,_Guitar,6,2,rocky_japanesefolk,0.21638864278793335,0
53,100,0.32272727272727275,474,0,30,_Guitar,6,5,rocky_japanesefolk,0.19927437603473663,0
52,100,0.1590909090909091,285,1,31,_Guitar,6,3,rocky_japanesefolk,0.9998065829277039,1
52,100,0.1,333,0,31,_Guitar,6,2,rocky_japanesefolk,0.12776382267475128,0
52,100,0.5,430,0,31,_Guitar,6,8,rocky_japanesefolk,0.11746835708618164,0
52,100,0.8409090909090909,576,0,31,_Guitar,6,13,rocky_japanesefolk,0.12687766551971436,0
57,100,0.1590909090909091,760,0,31,_Guitar,6,3,rocky_japanesefolk,0.15116456151008606,0
57,100,0.11818181818181818,801,0,31,_Guitar,6,2,rocky_japanesefolk,0.12930762767791748,0
62,100,0.13636363636363635,348,1,32,_Guitar,6,2,rocky_japanesefolk,0.9996198415756226,1
55,100,0.7181818181818181,778,1,32,_Guitar,6,11,rocky_japanesefolk,0.529100775718689,0
55,100,0.11818181818181818,206,1,33,_Guitar,6,2,rocky_japanesefolk,0.9998099207878113,1
52,100,0.2,295,0,33,_Guitar,6,3,rocky_japanesefolk,0.13126251101493835,0
52,100,0.2,461,0,33,_Guitar,6,3,rocky_japanesefolk,0.12248098105192184,0
52,100,0.1,691,0,33,_Guitar,6,2,rocky_japanesefolk,0.13598652184009552,0
67,100,0.1590909090909091,783,0,33,_Guitar,6,3,rocky_japanesefolk,0.13126398622989655,0
55,100,0.5409090909090909,818,0,33,_Guitar,6,9,rocky_japanesefolk,0.12793640792369843,0
60,100,0.1409090909090909,541,1,34,_Guitar,6,2,rocky_japanesefolk,0.999642014503479,1
55,100,0.18181818181818182,871,1,34,_Guitar,6,3,rocky_japanesefolk,0.5444254875183105,0
62,100,1.018181818181818,141,1,35,_Guitar,6,15,rocky_japanesefolk,0.9998010993003845,1
57,100,0.16363636363636364,444,1,35,_Guitar,6,3,rocky_japanesefolk,0.23695655167102814,0
57,100,0.4,660,0,35,_Guitar,6,6,rocky_japanesefolk,0.19896620512008667,0
60,100,0.11818181818181818,765,0,35,_Guitar,6,2,rocky_japanesefolk,0.22565911710262299,0
57,100,0.12272727272727273,826,0,35,_Guitar,6,2,rocky_japanesefolk,0.20382528007030487,0
57,100,0.22272727272727272,26,1,36,_Guitar,6,4,rocky_japanesefolk,0.9996144771575928,1
62,100,0.3409090909090909,554,1,36,_Guitar,6,5,rocky_japanesefolk,0.5559576153755188,0
53,100,0.11818181818181818,220,1,37,_Guitar,6,2,rocky_japanesefolk,0.9998400211334229,1
52,100,0.13636363636363635,700,1,37,_Guitar,6,2,rocky_japanesefolk,0.4099162518978119,0
52,100,0.3181818181818182,866,0,37,_Guitar,6,5,rocky_japanesefolk,0.41707807779312134,0
52,100,0.3409090909090909,96,1,38,_Guitar,6,5,rocky_japanesefolk,0.9997690320014954,1
60,100,0.4,171,0,38,_Guitar,6,6,rocky_japanesefolk,0.07665443420410156,0
57,100,0.35909090909090907,260,0,38,_Guitar,6,6,rocky_japanesefolk,0.07057835906744003,0
57,100,0.740909090909091,386,0,38,_Guitar,6,12,rocky_japanesefolk,0.07994628697633743,0
62,100,0.3181818181818182,646,1,38,_Guitar,6,5,rocky_japanesefolk,0.09929126501083374,0
57,100,0.12272727272727273,738,0,38,_Guitar,6,2,rocky_japanesefolk,0.1013617143034935,0
53,100,0.3181818181818182,810,0,38,_Guitar,6,5,rocky_japanesefolk,0.09102024137973785,0
62,100,0.17727272727272728,361,1,39,_Guitar,6,3,rocky_japanesefolk,0.9998295307159424,1
59,100,0.2,471,0,39,_Guitar,6,3,rocky_japanesefolk,0.40273529291152954,0
52,100,0.6227272727272727,774,1,39,_Guitar,6,10,rocky_japanesefolk,0.43023163080215454,0
60,100,0.5181818181818182,75,1,40,_Guitar,6,8,rocky_japanesefolk,0.9998332262039185,1
52,100,0.2818181818181818,201,0,40,_Guitar,6,5,rocky_japanesefolk,0.21897965669631958,0
55,100,0.13636363636363635,303,0,40,_Guitar,6,2,rocky_japanesefolk,0.19016197323799133,0
55,100,0.2409090909090909,488,0,40,_Guitar,6,4,rocky_japanesefolk,0.21404197812080383,0
55,100,0.36363636363636365,796,1,40,_Guitar,6,6,rocky_japanesefolk,0.2014247179031372,0
67,100,0.2,0,1,41,_Guitar,6,3,rocky_japanesefolk,0.9998425245285034,1
60,100,0.6409090909090909,396,1,41,_Guitar,6,10,rocky_japanesefolk,0.3247952461242676,0
57,100,0.12272727272727273,541,0,41,_Guitar,6,2,rocky_japanesefolk,0.30209121108055115,0
57,100,0.33636363636363636,611,0,41,_Guitar,6,5,rocky_japanesefolk,0.3086353838443756,0
62,100,0.3,211,1,42,_Guitar,6,5,rocky_japanesefolk,0.9998292922973633,1
57,100,0.6590909090909091,426,0,42,_Guitar,6,11,rocky_japanesefolk,0.20056651532649994,0
57,100,0.41818181818181815,633,0,42,_Guitar,6,7,rocky_japanesefolk,0.2026962786912918,0
60,100,0.16363636363636364,751,0,42,_Guitar,6,3,rocky_japanesefolk,0.22044755518436432,0
60,100,0.22272727272727272,839,0,42,_Guitar,6,4,rocky_japanesefolk,0.20542286336421967,0
60,100,0.38181818181818183,43,1,43,_Guitar,6,6,rocky_japanesefolk,0.9998302459716797,1
55,100,0.3181818181818182,383,1,43,_Guitar,6,5,rocky_japanesefolk,0.38778239488601685,0
55,100,0.16363636363636364,509,0,43,_Guitar,6,3,rocky_japanesefolk,0.4425179660320282,0
52,100,0.4818181818181818,48,1,44,_Guitar,6,8,rocky_japanesefolk,0.9998064637184143,1
60,100,0.18181818181818182,351,1,44,_Guitar,6,3,rocky_japanesefolk,0.1330053210258484,0
60,100,0.2818181818181818,408,0,44,_Guitar,6,5,rocky_japanesefolk,0.12599900364875793,0
55,100,0.3181818181818182,515,0,44,_Guitar,6,5,rocky_japanesefolk,0.1332683116197586,0
55,100,0.2590909090909091,616,0,44,_Guitar,6,4,rocky_japanesefolk,0.14794215559959412,0
52,100,1.7,678,0,44,_Guitar,6,15,rocky_japanesefolk,0.12547089159488678,0
60,100,0.12272727272727273,201,1,45,_Guitar,6,2,rocky_japanesefolk,0.9998437166213989,1
53,100,0.11818181818181818,238,0,45,_Guitar,6,2,rocky_japanesefolk,0.39872607588768005,0
53,100,0.18181818181818182,791,1,45,_Guitar,6,3,rocky_japanesefolk,0.4188564717769623,0
59,100,0.8227272727272728,276,1,46,_Guitar,6,13,rocky_japanesefolk,0.999536395072937,1
52,100,0.8,581,1,46,_Guitar,6,13,rocky_japanesefolk,0.5633729100227356,0
52,100,0.2772727272727273,31,1,47,_Guitar,6,4,rocky_japanesefolk,0.9996154308319092,1
62,100,0.9,105,0,47,_Guitar,6,14,rocky_japanesefolk,0.5343437194824219,0
53,100,0.2636363636363636,686,1,50,_Guitar,6,4,rocky_japanesefolk,0.9996073842048645,1
53,100,1.4,748,0,50,_Guitar,6,15,rocky_japanesefolk,0.5256103873252869,0
60,100,0.759090909090909,185,1,51,_Guitar,6,12,rocky_japanesefolk,0.9998167157173157,1
53,100,0.4,391,0,51,_Guitar,6,6,rocky_japanesefolk,0.41324520111083984,0
59,100,0.4409090909090909,550,0,51,_Guitar,6,7,rocky_japanesefolk,0.4306734800338745,0
55,100,0.1,276,1,52,_Guitar,6,2,rocky_japanesefolk,0.999817430973053,1
52,100,1.0818181818181818,528,1,52,_Guitar,6,15,rocky_japanesefolk,0.3917072117328644,0
52,100,0.5818181818181818,826,1,52,_Guitar,6,9,rocky_japanesefolk,0.4468767046928406,0
52,100,0.1590909090909091,96,1,53,_Guitar,6,3,rocky_japanesefolk,0.9998162388801575,1
52,100,0.22272727272727272,166,0,53,_Guitar,6,4,rocky_japanesefolk,0.12376763671636581,0
60,100,0.4590909090909091,308,0,53,_Guitar,6,7,rocky_japanesefolk,0.11681236326694489,0
55,100,0.2772727272727273,493,0,53,_Guitar,6,4,rocky_japanesefolk,0.13370634615421295,0
57,100,0.18181818181818182,703,0,53,_Guitar,6,3,rocky_japanesefolk,0.14281928539276123,0
57,100,0.21818181818181817,770,0,53,_Guitar,6,3,rocky_japanesefolk,0.13093158602714539,0
57,100,0.18181818181818182,616,1,54,_Guitar,6,3,rocky_japanesefolk,0.9930315017700195,1
55,100,0.4590909090909091,383,1,55,_Guitar,6,7,rocky_japanesefolk,0.991983950138092,0
57,100,0.1409090909090909,541,1,56,_Guitar,6,2,rocky_japanesefolk,0.9928984642028809,1
57,100,1.0818181818181818,748,1,57,_Guitar,6,15,rocky_japanesefolk,0.9913920164108276,0
55,100,0.18181818181818182,399,1,58,_Guitar,6,3,rocky_japanesefolk,0.9998205304145813,1
55,100,0.11818181818181818,506,0,58,_Guitar,6,2,rocky_japanesefolk,0.42309704422950745,0
55,100,1.9227272727272726,598,0,58,_Guitar,6,15,rocky_japanesefolk,0.39755120873451233,0
53,100,0.8181818181818182,193,1,59,_Guitar,6,13,rocky_japanesefolk,0.99982750415802,1
60,100,0.2590909090909091,418,0,59,_Guitar,6,4,rocky_japanesefolk,0.3541015684604645,0
55,100,1.2181818181818183,506,0,59,_Guitar,6,15,rocky_japanesefolk,0.2613258957862854,0
52,100,0.18181818181818182,813,1,59,_Guitar,6,3,rocky_japanesefolk,0.3496684730052948,0
57,100,0.4,0,1,61,_Guitar,6,6,rocky_japanesefolk,0.9924687743186951,0
55,100,0.12272727272727273,861,1,62,_Guitar,6,2,rocky_japanesefolk,0.9934117197990417,0
55,100,0.7181818181818181,370,1,63,_Guitar,6,11,rocky_japanesefolk,0.9998263716697693,1
55,100,0.13636363636363635,633,1,63,_Guitar,6,2,rocky_japanesefolk,0.3591592013835907,0
55,100,0.6772727272727272,668,0,63,_Guitar,6,11,rocky_japanesefolk,0.281808465719223,0
55,100,0.6181818181818182,823,0,63,_Guitar,6,10,rocky_japanesefolk,0.32423949241638184,0
55,100,0.1,96,1,64,_Guitar,6,2,rocky_japanesefolk,0.993228018283844,0
52,100,0.11818181818181818,197,1,65,_Guitar,6,2,rocky_japanesefolk,0.9996999502182007,1
52,100,0.1,250,0,65,_Guitar,6,2,rocky_japanesefolk,0.036044277250766754,0
57,100,0.13636363636363635,282,0,65,_Guitar,6,2,rocky_japanesefolk,0.02411704696714878,0
55,100,0.1590909090909091,457,0,65,_Guitar,6,3,rocky_japanesefolk,0.021348271518945694,0
55,100,0.1409090909090909,496,0,65,_Guitar,6,2,rocky_japanesefolk,0.01918199472129345,0
55,100,0.18181818181818182,540,0,65,_Guitar,6,3,rocky_japanesefolk,0.019349057227373123,0
55,100,0.11818181818181818,590,0,65,_Guitar,6,2,rocky_japanesefolk,0.022861851379275322,0
55,100,0.5409090909090909,619,0,65,_Guitar,6,9,rocky_japanesefolk,0.02737235091626644,0
55,100,0.11818181818181818,756,0,65,_Guitar,6,2,rocky_japanesefolk,0.040588174015283585,0
52,100,0.5363636363636364,787,0,65,_Guitar,6,9,rocky_japanesefolk,0.03811056911945343,0
55,100,0.4818181818181818,35,1,66,_Guitar,6,8,rocky_japanesefolk,0.9998252987861633,1
53,100,0.2590909090909091,184,0,66,_Guitar,6,4,rocky_japanesefolk,0.22433865070343018,0
53,100,0.2772727272727273,470,1,66,_Guitar,6,4,rocky_japanesefolk,0.1981351673603058,0
53,100,0.2409090909090909,572,0,66,_Guitar,6,4,rocky_japanesefolk,0.2116876244544983,0
55,100,0.41818181818181815,726,0,66,_Guitar,6,7,rocky_japanesefolk,0.1999850869178772,0
52,100,0.12272727272727273,13,1,67,_Guitar,6,2,rocky_japanesefolk,0.9998422861099243,1
55,100,0.1590909090909091,66,0,67,_Guitar,6,3,rocky_japanesefolk,0.403521329164505,0
57,100,0.6818181818181818,540,1,67,_Guitar,6,11,rocky_japanesefolk,0.4086548984050751,0
62,100,0.1409090909090909,66,1,68,_Guitar,6,2,rocky_japanesefolk,0.9996535778045654,1
57,100,0.3,110,0,68,_Guitar,6,5,rocky_japanesefolk,0.5357750654220581,0
52,100,0.3,330,1,69,_Guitar,6,5,rocky_japanesefolk,0.9998592138290405,1
57,100,0.12272727272727273,475,0,69,_Guitar,6,2,rocky_japanesefolk,0.3191201090812683,0
55,100,0.1409090909090909,624,0,69,_Guitar,6,2,rocky_japanesefolk,0.28683432936668396,0
55,100,0.6772727272727272,756,0,69,_Guitar,6,11,rocky_japanesefolk,0.2984580993652344,0
52,100,0.759090909090909,35,1,70,_Guitar,6,12,rocky_japanesefolk,0.9998257756233215,1
55,100,0.37727272727272726,229,0,70,_Guitar,6,6,rocky_japanesefolk,0.20689448714256287,0
53,100,0.41818181818181815,347,0,70,_Guitar,6,7,rocky_japanesefolk,0.20100651681423187,0
60,100,0.1590909090909091,457,0,70,_Guitar,6,3,rocky_japanesefolk,0.21930432319641113,0
53,100,0.11818181818181818,590,0,70,_Guitar,6,2,rocky_japanesefolk,0.20686925947666168,0
52,100,0.6409090909090909,92,1,71,_Guitar,6,10,rocky_japanesefolk,0.9998173117637634,1
55,100,0.3409090909090909,550,1,71,_Guitar,6,5,rocky_japanesefolk,0.41803959012031555,0
55,100,0.2409090909090909,629,0,71,_Guitar,6,4,rocky_japanesefolk,0.4305635988712311,0
57,100,0.5818181818181818,3,1,72,_Guitar,6,9,rocky_japanesefolk,0.9996684789657593,1
57,100,0.4,202,0,72,_Guitar,6,6,rocky_japanesefolk,0.04374903440475464,0
52,100,0.1,316,0,72,_Guitar,6,2,rocky_japanesefolk,0.036146800965070724,0
52,100,0.3409090909090909,426,0,72,_Guitar,6,5,rocky_japanesefolk,0.030508119612932205,0
55,100,0.2409090909090909,509,0,72,_Guitar,6,4,rocky_japanesefolk,0.029725125059485435,0
52,100,0.1409090909090909,585,0,72,_Guitar,6,2,rocky_japanesefolk,0.03461047261953354,0
52,100,0.4590909090909091,633,0,72,_Guitar,6,7,rocky_japanesefolk,0.039524566382169724,0
52,100,0.12272727272727273,817,0,72,_Guitar,6,2,rocky_japanesefolk,0.0490206703543663,0
52,100,0.12272727272727273,849,0,72,_Guitar,6,2,rocky_japanesefolk,0.04534345865249634,0
53,100,0.5409090909090909,166,1,73,_Guitar,6,9,rocky_japanesefolk,0.9998167157173157,1
53,100,0.18181818181818182,487,1,73,_Guitar,6,3,rocky_japanesefolk,0.43312203884124756,0
53,100,0.6,783,1,73,_Guitar,6,10,rocky_japanesefolk,0.41672518849372864,0
53,100,0.7181818181818181,43,1,74,_Guitar,6,11,rocky_japanesefolk,0.999788224697113,1
53,100,0.5409090909090909,242,0,74,_Guitar,6,9,rocky_japanesefolk,0.12750081717967987,0
53,100,0.2,502,1,74,_Guitar,6,3,rocky_japanesefolk,0.13052360713481903,0
53,100,0.2818181818181818,593,0,74,_Guitar,6,5,rocky_japanesefolk,0.13405920565128326,0
57,100,0.5181818181818182,690,0,74,_Guitar,6,8,rocky_japanesefolk,0.14124877750873566,0
53,100,0.3,817,0,74,_Guitar,6,5,rocky_japanesefolk,0.14453792572021484,0
53,100,0.2409090909090909,92,1,75,_Guitar,6,4,rocky_japanesefolk,0.9998049139976501,1
53,100,0.2636363636363636,223,0,75,_Guitar,6,4,rocky_japanesefolk,0.1263774037361145,0
64,100,0.2772727272727273,326,0,75,_Guitar,6,4,rocky_japanesefolk,0.11819683015346527,0
53,100,0.4772727272727273,392,0,75,_Guitar,6,8,rocky_japanesefolk,0.12889544665813446,0
53,100,0.2,532,0,75,_Guitar,6,3,rocky_japanesefolk,0.14824709296226501,0
53,100,0.6818181818181818,686,0,75,_Guitar,6,11,rocky_japanesefolk,0.13137522339820862,0
55,100,0.2590909090909091,62,1,76,_Guitar,6,4,rocky_japanesefolk,0.992911159992218,0
64,100,0.6772727272727272,119,1,77,_Guitar,6,11,rocky_japanesefolk,0.9997959733009338,1
55,100,0.2590909090909091,457,1,77,_Guitar,6,4,rocky_japanesefolk,0.1282941699028015,0
55,100,0.2409090909090909,642,0,77,_Guitar,6,4,rocky_japanesefolk,0.1214379072189331,0
60,100,0.1409090909090909,703,0,77,_Guitar,6,2,rocky_japanesefolk,0.13933147490024567,0
60,100,0.18181818181818182,739,0,77,_Guitar,6,3,rocky_japanesefolk,0.14426156878471375,0
55,100,0.4,805,0,77,_Guitar,6,6,rocky_japanesefolk,0.12662015855312347,0
55,100,0.11818181818181818,373,1,78,_Guitar,6,2,rocky_japanesefolk,0.9998517036437988,1
55,100,0.1,523,0,78,_Guitar,6,2,rocky_japanesefolk,0.31838372349739075,0
53,100,0.4,677,0,78,_Guitar,6,6,rocky_japanesefolk,0.2917223870754242,0
53,100,0.1590909090909091,770,0,78,_Guitar,6,3,rocky_japanesefolk,0.31089287996292114,0
53,100,0.4409090909090909,100,1,79,_Guitar,6,7,rocky_japanesefolk,0.9998012185096741,1
53,100,0.2818181818181818,263,0,79,_Guitar,6,5,rocky_japanesefolk,0.12849797308444977,0
52,100,0.3,417,0,79,_Guitar,6,5,rocky_japanesefolk,0.12267636507749557,0
55,100,0.11818181818181818,546,0,79,_Guitar,6,2,rocky_japanesefolk,0.13011611998081207,0
52,100,0.12272727272727273,629,0,79,_Guitar,6,2,rocky_japanesefolk,0.14646564424037933,0
55,100,0.2,703,0,79,_Guitar,6,3,rocky_japanesefolk,0.12538233399391174,0
55,100,0.22272727272727272,35,1,80,_Guitar,6,4,rocky_japanesefolk,0.9998248219490051,1
57,100,1.2181818181818183,140,0,80,_Guitar,6,15,rocky_japanesefolk,0.18043619394302368,0
57,100,1.0636363636363637,422,1,80,_Guitar,6,15,rocky_japanesefolk,0.2099134624004364,0
57,100,0.11818181818181818,677,1,80,_Guitar,6,2,rocky_japanesefolk,0.2508179545402527,0
52,100,0.5590909090909091,756,0,80,_Guitar,6,9,rocky_japanesefolk,0.2221546173095703,0
55,100,0.1,136,1,81,_Guitar,6,2,rocky_japanesefolk,0.9998462200164795,1
52,100,1.059090909090909,172,0,81,_Guitar,6,15,rocky_japanesefolk,0.30689510703086853,0
52,100,0.2,436,1,81,_Guitar,6,3,rocky_japanesefolk,0.31667545437812805,0
53,100,0.3,480,0,81,_Guitar,6,5,rocky_japanesefolk,0.30951377749443054,0
55,100,0.5409090909090909,220,1,82,_Guitar,6,9,rocky_japanesefolk,0.9998076558113098,1
62,100,0.1409090909090909,703,1,82,_Guitar,6,2,rocky_japanesefolk,0.44442418217658997,0
55,100,0.5590909090909091,826,0,82,_Guitar,6,9,rocky_japanesefolk,0.4154246151447296,0
55,100,0.38181818181818183,289,1,84,_Guitar,6,6,rocky_japanesefolk,0.9998387098312378,1
52,100,0.13636363636363635,436,0,84,_Guitar,6,2,rocky_japanesefolk,0.3504668176174164,0
55,100,0.6818181818181818,606,0,84,_Guitar,6,11,rocky_japanesefolk,0.2757577896118164,0
52,100,0.6181818181818182,770,0,84,_Guitar,6,10,rocky_japanesefolk,0.31600868701934814,0
52,100,0.13636363636363635,106,1,85,_Guitar,6,2,rocky_japanesefolk,0.9936549663543701,0
60,100,0.11818181818181818,96,1,86,_Guitar,6,2,rocky_japanesefolk,0.9998437166213989,1
60,100,0.2818181818181818,307,0,86,_Guitar,6,5,rocky_japanesefolk,0.1935969889163971,0
55,100,0.6818181818181818,377,0,86,_Guitar,6,11,rocky_japanesefolk,0.18791106343269348,0
67,100,0.2590909090909091,766,1,86,_Guitar,6,4,rocky_japanesefolk,0.21744677424430847,0
60,100,0.5,844,0,86,_Guitar,6,8,rocky_japanesefolk,0.20774045586585999,0
53,100,0.5,119,1,87,_Guitar,6,8,rocky_japanesefolk,0.9998217225074768,1
59,100,0.2636363636363636,443,1,87,_Guitar,6,4,rocky_japanesefolk,0.42093050479888916,0
59,100,0.8818181818181818,509,0,87,_Guitar,6,14,rocky_japanesefolk,0.4153720438480377,0
62,100,0.8818181818181818,0,1,89,_Guitar,6,14,rocky_japanesefolk,0.9997926354408264,1
53,100,0.6181818181818182,360,1,89,_Guitar,6,10,rocky_japanesefolk,0.43697527050971985,0
67,100,0.17727272727272728,866,1,89,_Guitar,6,3,rocky_japanesefolk,0.44532081484794617,0
55,100,0.11818181818181818,339,1,92,_Guitar,6,2,rocky_japanesefolk,0.999817430973053,1
55,100,0.37727272727272726,493,0,92,_Guitar,6,6,rocky_japanesefolk,0.4110230803489685,0
55,100,0.4590909090909091,646,0,92,_Guitar,6,7,rocky_japanesefolk,0.4263928532600403,0
52,100,0.2636363636363636,333,1,93,_Guitar,6,4,rocky_japanesefolk,0.9998551607131958,1
52,100,0.22272727272727272,553,0,93,_Guitar,6,4,rocky_japanesefolk,0.3236978054046631,0
57,100,0.2,677,0,93,_Guitar,6,3,rocky_japanesefolk,0.2853134572505951,0
52,100,0.18181818181818182,729,0,93,_Guitar,6,3,rocky_japanesefolk,0.31052958965301514,0
52,100,0.11818181818181818,66,1,94,_Guitar,6,2,rocky_japanesefolk,0.9998419284820557,1
52,100,0.5,276,0,94,_Guitar,6,8,rocky_japanesefolk,0.3919335901737213,0
52,100,1.0,417,0,94,_Guitar,6,15,rocky_japanesefolk,0.41513291001319885,0
53,100,0.1409090909090909,100,1,95,_Guitar,6,2,rocky_japanesefolk,0.9998562335968018,1
53,100,0.2590909090909091,303,0,95,_Guitar,6,4,rocky_japanesefolk,0.30640050768852234,0
55,100,0.41818181818181815,449,0,95,_Guitar,6,7,rocky_japanesefolk,0.28292059898376465,0
60,100,0.5,624,0,95,_Guitar,6,8,rocky_japanesefolk,0.3148247301578522,0
57,100,0.2,184,1,96,_Guitar,6,3,rocky_japanesefolk,0.9998524188995361,1
55,100,0.11818181818181818,770,1,96,_Guitar,6,2,rocky_japanesefolk,0.32015374302864075,0
55,100,0.11818181818181818,823,0,96,_Guitar,6,2,rocky_japanesefolk,0.291109561920166,0
55,100,0.22272727272727272,862,0,96,_Guitar,6,4,rocky_japanesefolk,0.3064216077327728,0
52,100,0.12272727272727273,509,1,97,_Guitar,6,2,rocky_japanesefolk,0.993770182132721,1
70,100,0.11818181818181818,304,1,1,_Remix_Guitar,6,2, (Remix) Stems (1),0.9998149275779724,1
58,100,0.2818181818181818,421,0,1,_Remix_Guitar,6,5, (Remix) Stems (1),0.4110943377017975,0
63,100,0.1590909090909091,673,1,1,_Remix_Guitar,6,3, (Remix) Stems (1),0.44204461574554443,0
70,100,0.1409090909090909,12,1,2,_Remix_Guitar,6,2, (Remix) Stems (1),0.9997864365577698,1
58,100,0.2590909090909091,57,0,2,_Remix_Guitar,6,4, (Remix) Stems (1),0.12517990171909332,0
63,100,0.18181818181818182,443,1,2,_Remix_Guitar,6,3, (Remix) Stems (1),0.13574101030826569,0
63,100,0.3409090909090909,488,0,2,_Remix_Guitar,6,5, (Remix) Stems (1),0.13962233066558838,0
58,100,0.2772727272727273,568,0,2,_Remix_Guitar,6,4, (Remix) Stems (1),0.14472241699695587,0
62,100,0.1409090909090909,845,1,2,_Remix_Guitar,6,2, (Remix) Stems (1),0.14636272192001343,0
58,100,0.23636363636363636,216,1,3,_Remix_Guitar,6,4, (Remix) Stems (1),0.9995778203010559,1
63,100,0.21818181818181817,461,1,3,_Remix_Guitar,6,3, (Remix) Stems (1),0.562155544757843,0
63,100,0.22272727272727272,114,1,4,_Remix_Guitar,6,4, (Remix) Stems (1),0.9998310804367065,1
63,100,0.41818181818181815,184,0,4,_Remix_Guitar,6,7, (Remix) Stems (1),0.20713479816913605,0
58,100,0.2590909090909091,348,0,4,_Remix_Guitar,6,4, (Remix) Stems (1),0.19706077873706818,0
63,100,0.5409090909090909,629,1,4,_Remix_Guitar,6,9, (Remix) Stems (1),0.21676842868328094,0
63,100,0.2818181818181818,862,1,4,_Remix_Guitar,6,5, (Remix) Stems (1),0.2255352884531021,0
58,100,0.18181818181818182,409,1,5,_Remix_Guitar,6,3, (Remix) Stems (1),0.9995986819267273,1
63,100,0.2590909090909091,867,1,5,_Remix_Guitar,6,4, (Remix) Stems (1),0.5538036227226257,0
56,100,0.38181818181818183,201,1,6,_Remix_Guitar,6,6, (Remix) Stems (1),0.9998196959495544,1
63,100,0.7181818181818181,396,0,6,_Remix_Guitar,6,11, (Remix) Stems (1),0.3903498947620392,0
70,100,0.22272727272727272,739,1,6,_Remix_Guitar,6,4, (Remix) Stems (1),0.44826868176460266,0
63,100,0.1409090909090909,8,1,7,_Remix_Guitar,6,2, (Remix) Stems (1),0.9998273253440857,1
63,100,0.1,220,0,7,_Remix_Guitar,6,2, (Remix) Stems (1),0.4134397506713867,0
62,100,0.1,629,1,7,_Remix_Guitar,6,2, (Remix) Stems (1),0.4349903464317322,0
63,100,0.2636363636363636,422,1,8,_Remix_Guitar,6,4, (Remix) Stems (1),0.9998223185539246,1
56,100,0.35909090909090907,505,0,8,_Remix_Guitar,6,6, (Remix) Stems (1),0.42125561833381653,0
63,100,0.2772727272727273,744,1,8,_Remix_Guitar,6,4, (Remix) Stems (1),0.43044528365135193,0
63,100,0.13636363636363635,17,1,9,_Remix_Guitar,6,2, (Remix) Stems (1),0.999627947807312,1
63,100,0.38181818181818183,637,1,9,_Remix_Guitar,6,6, (Remix) Stems (1),0.5471556186676025,0
63,100,0.23636363636363636,39,1,10,_Remix_Guitar,6,4, (Remix) Stems (1),0.9998304843902588,1
58,100,0.1,211,0,10,_Remix_Guitar,6,2, (Remix) Stems (1),0.20795486867427826,0
58,100,0.32272727272727275,584,1,10,_Remix_Guitar,6,5, (Remix) Stems (1),0.20715542137622833,0
58,100,0.22272727272727272,716,0,10,_Remix_Guitar,6,4, (Remix) Stems (1),0.22029002010822296,0
56,100,0.4772727272727273,787,0,10,_Remix_Guitar,6,8, (Remix) Stems (1),0.21555054187774658,0
56,100,0.1590909090909091,30,1,11,_Remix_Guitar,6,3, (Remix) Stems (1),0.9998072981834412,1
58,100,0.2590909090909091,343,1,11,_Remix_Guitar,6,4, (Remix) Stems (1),0.11843402683734894,0
63,100,0.1,642,1,11,_Remix_Guitar,6,2, (Remix) Stems (1),0.13213485479354858,0
58,100,0.18181818181818182,739,0,11,_Remix_Guitar,6,3, (Remix) Stems (1),0.1347576081752777,0
58,100,0.1,795,0,11,_Remix_Guitar,6,2, (Remix) Stems (1),0.14842230081558228,0
58,100,0.2772727272727273,854,0,11,_Remix_Guitar,6,4, (Remix) Stems (1),0.13516755402088165,0
58,100,0.21818181818181817,493,1,12,_Remix_Guitar,6,3, (Remix) Stems (1),0.9995923638343811,1
55,100,0.5181818181818182,756,1,12,_Remix_Guitar,6,8, (Remix) Stems (1),0.5524606108665466,0
55,100,0.18181818181818182,65,1,13,_Remix_Guitar,6,3, (Remix) Stems (1),0.9998019337654114,1
56,100,0.11818181818181818,316,1,13,_Remix_Guitar,6,2, (Remix) Stems (1),0.13238784670829773,0
56,100,0.6,369,0,13,_Remix_Guitar,6,10, (Remix) Stems (1),0.11889665573835373,0
58,100,0.2590909090909091,634,1,13,_Remix_Guitar,6,4, (Remix) Stems (1),0.13798964023590088,0
58,100,0.1,694,0,13,_Remix_Guitar,6,2, (Remix) Stems (1),0.15008379518985748,0
58,100,0.22272727272727272,840,0,13,_Remix_Guitar,6,4, (Remix) Stems (1),0.1364225298166275,0
63,100,0.5409090909090909,13,1,14,_Remix_Guitar,6,9, (Remix) Stems (1),0.9997891783714294,1
58,100,0.3,140,0,14,_Remix_Guitar,6,5, (Remix) Stems (1),0.13377128541469574,0
58,100,0.32272727272727275,268,0,14,_Remix_Guitar,6,5, (Remix) Stems (1),0.13012346625328064,0
62,100,0.2,603,1,14,_Remix_Guitar,6,3, (Remix) Stems (1),0.15896940231323242,0
58,100,0.1409090909090909,730,0,14,_Remix_Guitar,6,2, (Remix) Stems (1),0.14569807052612305,0
58,100,0.2772727272727273,778,0,14,_Remix_Guitar,6,4, (Remix) Stems (1),0.14455290138721466,0
63,100,0.1590909090909091,383,1,15,_Remix_Guitar,6,3, (Remix) Stems (1),0.999817430973053,1
56,100,0.12272727272727273,474,0,15,_Remix_Guitar,6,2, (Remix) Stems (1),0.42282354831695557,0
58,100,0.1,795,1,15,_Remix_Guitar,6,2, (Remix) Stems (1),0.4297139346599579,0
58,100,0.2590909090909091,40,1,16,_Remix_Guitar,6,4, (Remix) Stems (1),0.9998236298561096,1
55,100,0.4818181818181818,223,0,16,_Remix_Guitar,6,8, (Remix) Stems (1),0.34244275093078613,0
65,100,0.8181818181818182,351,0,16,_Remix_Guitar,6,13, (Remix) Stems (1),0.29355132579803467,0
58,100,0.2,567,0,16,_Remix_Guitar,6,3, (Remix) Stems (1),0.3304647207260132,0
53,100,0.2,391,1,17,_Remix_Guitar,6,3, (Remix) Stems (1),0.9998557567596436,1
53,100,0.3,440,0,17,_Remix_Guitar,6,5, (Remix) Stems (1),0.3246491849422455,0
56,100,0.2,656,0,17,_Remix_Guitar,6,3, (Remix) Stems (1),0.2959681749343872,0
58,100,0.17727272727272728,712,0,17,_Remix_Guitar,6,3, (Remix) Stems (1),0.29763370752334595,0
58,100,0.1590909090909091,52,1,18,_Remix_Guitar,6,3, (Remix) Stems (1),0.9997873902320862,1
60,100,0.2409090909090909,96,0,18,_Remix_Guitar,6,4, (Remix) Stems (1),0.1431732177734375,0
58,100,0.8,154,0,18,_Remix_Guitar,6,13, (Remix) Stems (1),0.1105981096625328,0
58,100,0.2590909090909091,339,0,18,_Remix_Guitar,6,4, (Remix) Stems (1),0.15402594208717346,0
58,100,0.2,729,1,18,_Remix_Guitar,6,3, (Remix) Stems (1),0.1600908786058426,0
63,100,0.12272727272727273,827,0,18,_Remix_Guitar,6,2, (Remix) Stems (1),0.14529037475585938,0
63,100,0.2,550,1,19,_Remix_Guitar,6,3, (Remix) Stems (1),0.999650239944458,1
60,100,0.11818181818181818,779,0,19,_Remix_Guitar,6,2, (Remix) Stems (1),0.5522857308387756,0
63,100,0.2,343,1,20,_Remix_Guitar,6,3, (Remix) Stems (1),0.9930334091186523,0
53,100,0.2409090909090909,144,1,21,_Remix_Guitar,6,4, (Remix) Stems (1),0.9933843016624451,0
56,100,0.1,351,1,22,_Remix_Guitar,6,2, (Remix) Stems (1),0.9996433258056641,1
53,100,0.1409090909090909,822,1,22,_Remix_Guitar,6,2, (Remix) Stems (1),0.5518543124198914,0
65,100,0.11818181818181818,9,1,23,_Remix_Guitar,6,2, (Remix) Stems (1),0.999840259552002,1
53,100,0.1,34,0,23,_Remix_Guitar,6,2, (Remix) Stems (1),0.2044258415699005,0
65,100,0.37727272727272726,140,0,23,_Remix_Guitar,6,6, (Remix) Stems (1),0.1875942200422287,0
65,100,0.2409090909090909,312,0,23,_Remix_Guitar,6,4, (Remix) Stems (1),0.20870022475719452,0
65,100,0.2,426,0,23,_Remix_Guitar,6,3, (Remix) Stems (1),0.20394738018512726,0
63,100,0.3181818181818182,0,1,24,_Remix_Guitar,6,5, (Remix) Stems (1),0.999842643737793,1
55,100,0.12272727272727273,79,0,24,_Remix_Guitar,6,2, (Remix) Stems (1),0.3327501118183136,0
63,100,0.1409090909090909,461,1,24,_Remix_Guitar,6,2, (Remix) Stems (1),0.29315444827079773,0
60,100,0.1,602,0,24,_Remix_Guitar,6,2, (Remix) Stems (1),0.3146600127220154,0
62,100,0.11818181818181818,171,1,25,_Remix_Guitar,6,2, (Remix) Stems (1),0.9996438026428223,1
53,100,0.17727272727272728,250,0,25,_Remix_Guitar,6,3, (Remix) Stems (1),0.5499179363250732,0
63,100,0.16363636363636364,69,1,26,_Remix_Guitar,6,3, (Remix) Stems (1),0.9996938705444336,1
63,100,0.2590909090909091,140,0,26,_Remix_Guitar,6,4, (Remix) Stems (1),0.042809538543224335,0
60,100,0.3,223,0,26,_Remix_Guitar,6,5, (Remix) Stems (1),0.0349419042468071,0
55,100,0.21818181818181817,360,0,26,_Remix_Guitar,6,3, (Remix) Stems (1),0.029404141008853912,0
53,100,0.1409090909090909,509,0,26,_Remix_Guitar,6,2, (Remix) Stems (1),0.03235107287764549,0
53,100,0.12272727272727273,553,0,26,_Remix_Guitar,6,2, (Remix) Stems (1),0.03329005092382431,0
63,100,0.4818181818181818,663,0,26,_Remix_Guitar,6,8, (Remix) Stems (1),0.03865194693207741,0
63,100,0.1409090909090909,818,0,26,_Remix_Guitar,6,2, (Remix) Stems (1),0.05098883435130119,0
63,100,0.1,853,0,26,_Remix_Guitar,6,2, (Remix) Stems (1),0.0479695163667202,0
63,100,0.1409090909090909,277,1,27,_Remix_Guitar,6,2, (Remix) Stems (1),0.9998056292533875,1
63,100,0.22272727272727272,312,0,27,_Remix_Guitar,6,4, (Remix) Stems (1),0.12574639916419983,0
63,100,0.1,382,0,27,_Remix_Guitar,6,2, (Remix) Stems (1),0.12310443818569183,0
63,100,0.2590909090909091,484,0,27,_Remix_Guitar,6,4, (Remix) Stems (1),0.1317376047372818,0
53,100,0.22272727272727272,673,0,27,_Remix_Guitar,6,4, (Remix) Stems (1),0.14793702960014343,0
60,100,0.12272727272727273,839,0,27,_Remix_Guitar,6,2, (Remix) Stems (1),0.13581645488739014,0
53,100,0.3409090909090909,44,1,28,_Remix_Guitar,6,5, (Remix) Stems (1),0.999804675579071,1
53,100,0.1590909090909091,185,0,28,_Remix_Guitar,6,3, (Remix) Stems (1),0.12854838371276855,0
53,100,0.17727272727272728,260,0,28,_Remix_Guitar,6,3, (Remix) Stems (1),0.11498603969812393,0
62,100,0.11818181818181818,418,0,28,_Remix_Guitar,6,2, (Remix) Stems (1),0.13625745475292206,0
53,100,0.2,519,0,28,_Remix_Guitar,6,3, (Remix) Stems (1),0.13818961381912231,0
53,100,0.1,567,0,28,_Remix_Guitar,6,2, (Remix) Stems (1),0.1317274123430252,0
55,100,0.18181818181818182,88,1,29,_Remix_Guitar,6,3, (Remix) Stems (1),0.999750554561615,1
53,100,1.1,202,0,29,_Remix_Guitar,6,15, (Remix) Stems (1),0.07631353288888931,0
58,100,0.12272727272727273,474,1,29,_Remix_Guitar,6,2, (Remix) Stems (1),0.0828561931848526,0
58,100,0.12272727272727273,563,0,29,_Remix_Guitar,6,2, (Remix) Stems (1),0.0864250436425209,0
58,100,0.13636363636363635,656,0,29,_Remix_Guitar,6,2, (Remix) Stems (1),0.10184653103351593,0
58,100,0.3409090909090909,694,0,29,_Remix_Guitar,6,5, (Remix) Stems (1),0.10182652622461319,0
60,100,0.16363636363636364,862,0,29,_Remix_Guitar,6,3, (Remix) Stems (1),0.10346758365631104,0
58,100,0.21818181818181817,40,1,30,_Remix_Guitar,6,3, (Remix) Stems (1),0.9997372031211853,1
53,100,0.2772727272727273,96,0,30,_Remix_Guitar,6,4, (Remix) Stems (1),0.08937916904687881,0
58,100,0.11818181818181818,171,0,30,_Remix_Guitar,6,2, (Remix) Stems (1),0.07193144410848618,0
53,100,0.6,216,0,30,_Remix_Guitar,6,10, (Remix) Stems (1),0.08349326997995377,0
58,100,0.12272727272727273,422,0,30,_Remix_Guitar,6,2, (Remix) Stems (1),0.09516254812479019,0
53,100,0.1,492,0,30,_Remix_Guitar,6,2, (Remix) Stems (1),0.11016257852315903,0
55,100,0.5181818181818182,766,1,30,_Remix_Guitar,6,8, (Remix) Stems (1),0.08706501871347427,0
55,100,0.12272727272727273,179,1,31,_Remix_Guitar,6,2, (Remix) Stems (1),0.9996309280395508,1
53,100,0.1409090909090909,646,1,31,_Remix_Guitar,6,2, (Remix) Stems (1),0.5521014332771301,0
53,100,0.37727272727272726,383,1,32,_Remix_Guitar,6,6, (Remix) Stems (1),0.9998157620429993,1
53,100,0.2,471,0,32,_Remix_Guitar,6,3, (Remix) Stems (1),0.4192555248737335,0
53,100,0.13636363636363635,765,1,32,_Remix_Guitar,6,2, (Remix) Stems (1),0.4356776475906372,0
55,100,0.21818181818181817,581,1,33,_Remix_Guitar,6,3, (Remix) Stems (1),0.9995842576026917,1
55,100,0.6,726,0,33,_Remix_Guitar,6,10, (Remix) Stems (1),0.5442406535148621,0
58,100,0.2772727272727273,413,1,34,_Remix_Guitar,6,4, (Remix) Stems (1),0.9998132586479187,1
53,100,0.11818181818181818,681,1,34,_Remix_Guitar,6,2, (Remix) Stems (1),0.44944658875465393,0
53,100,0.2818181818181818,804,0,34,_Remix_Guitar,6,5, (Remix) Stems (1),0.4222513735294342,0
53,100,0.1409090909090909,75,1,35,_Remix_Guitar,6,2, (Remix) Stems (1),0.9998118281364441,1
53,100,0.1409090909090909,179,0,35,_Remix_Guitar,6,2, (Remix) Stems (1),0.13118276000022888,0
58,100,0.1,215,0,35,_Remix_Guitar,6,2, (Remix) Stems (1),0.11585420370101929,0
58,100,0.18181818181818182,241,0,35,_Remix_Guitar,6,3, (Remix) Stems (1),0.14122162759304047,0
55,100,0.6,311,0,35,_Remix_Guitar,6,10, (Remix) Stems (1),0.14091770350933075,0
53,100,0.17727272727272728,823,1,35,_Remix_Guitar,6,3, (Remix) Stems (1),0.144775852560997,0
53,100,0.1590909090909091,18,1,36,_Remix_Guitar,6,3, (Remix) Stems (1),0.9998416900634766,1
53,100,0.2,338,1,36,_Remix_Guitar,6,3, (Remix) Stems (1),0.21029223501682281,0
53,100,0.2409090909090909,466,0,36,_Remix_Guitar,6,4, (Remix) Stems (1),0.1993481069803238,0
53,100,0.7227272727272728,541,0,36,_Remix_Guitar,6,12, (Remix) Stems (1),0.18767768144607544,0
53,100,0.3,778,1,36,_Remix_Guitar,6,5, (Remix) Stems (1),0.21344511210918427,0
55,100,0.18181818181818182,263,1,37,_Remix_Guitar,6,3, (Remix) Stems (1),0.999610960483551,1
55,100,0.5,804,1,37,_Remix_Guitar,6,8, (Remix) Stems (1),0.5454404354095459,0
56,100,0.4590909090909091,361,1,38,_Remix_Guitar,6,7, (Remix) Stems (1),0.9995964169502258,1
53,100,0.5181818181818182,748,1,38,_Remix_Guitar,6,8, (Remix) Stems (1),0.5550872683525085,0
53,100,0.23636363636363636,40,1,39,_Remix_Guitar,6,4, (Remix) Stems (1),0.9997972846031189,1
58,100,0.2772727272727273,185,0,39,_Remix_Guitar,6,4, (Remix) Stems (1),0.12271502614021301,0
58,100,0.2636363636363636,268,0,39,_Remix_Guitar,6,4, (Remix) Stems (1),0.11867260932922363,0
53,100,0.1590909090909091,515,1,39,_Remix_Guitar,6,3, (Remix) Stems (1),0.14686310291290283,0
53,100,0.2,703,0,39,_Remix_Guitar,6,3, (Remix) Stems (1),0.14442726969718933,0
53,100,0.1590909090909091,756,0,39,_Remix_Guitar,6,3, (Remix) Stems (1),0.13756009936332703,0
63,100,0.11818181818181818,215,1,40,_Remix_Guitar,6,2, (Remix) Stems (1),0.9998294115066528,1
53,100,0.3,528,1,40,_Remix_Guitar,6,5, (Remix) Stems (1),0.21435585618019104,0
53,100,0.2409090909090909,646,0,40,_Remix_Guitar,6,4, (Remix) Stems (1),0.1991034597158432,0
56,100,0.1590909090909091,783,0,40,_Remix_Guitar,6,3, (Remix) Stems (1),0.2038767784833908,0
53,100,0.11818181818181818,858,0,40,_Remix_Guitar,6,2, (Remix) Stems (1),0.21177051961421967,0
53,100,0.4,153,1,41,_Remix_Guitar,6,6, (Remix) Stems (1),0.9997324347496033,1
58,100,0.1409090909090909,241,0,41,_Remix_Guitar,6,2, (Remix) Stems (1),0.053894925862550735,0
53,100,0.2409090909090909,276,0,41,_Remix_Guitar,6,4, (Remix) Stems (1),0.04818323999643326,0
53,100,0.16363636363636364,334,0,41,_Remix_Guitar,6,3, (Remix) Stems (1),0.04839227348566055,0
65,100,0.2,370,0,41,_Remix_Guitar,6,3, (Remix) Stems (1),0.050898145884275436,0
53,100,0.23636363636363636,413,0,41,_Remix_Guitar,6,4, (Remix) Stems (1),0.05917530506849289,0
53,100,0.13636363636363635,501,0,41,_Remix_Guitar,6,2, (Remix) Stems (1),0.06728044897317886,0
53,100,0.1590909090909091,541,0,41,_Remix_Guitar,6,3, (Remix) Stems (1),0.060135211795568466,0
53,100,0.1409090909090909,123,1,42,_Remix_Guitar,6,2, (Remix) Stems (1),0.9998094439506531,1
63,100,0.13636363636363635,391,1,42,_Remix_Guitar,6,2, (Remix) Stems (1),0.12357950955629349,0
55,100,0.32272727272727275,554,0,42,_Remix_Guitar,6,5, (Remix) Stems (1),0.11867864429950714,0
60,100,0.12272727272727273,641,0,42,_Remix_Guitar,6,2, (Remix) Stems (1),0.14127305150032043,0
60,100,0.2,761,0,42,_Remix_Guitar,6,3, (Remix) Stems (1),0.14195963740348816,0
56,100,0.21818181818181817,866,0,42,_Remix_Guitar,6,3, (Remix) Stems (1),0.12746495008468628,0
53,100,0.2818181818181818,440,1,43,_Remix_Guitar,6,5, (Remix) Stems (1),0.9998093247413635,1
53,100,0.3,581,0,43,_Remix_Guitar,6,5, (Remix) Stems (1),0.123847097158432,0
58,100,0.2,651,0,43,_Remix_Guitar,6,3, (Remix) Stems (1),0.11712067574262619,0
53,100,0.1590909090909091,703,0,43,_Remix_Guitar,6,3, (Remix) Stems (1),0.13926343619823456,0
53,100,0.13636363636363635,788,0,43,_Remix_Guitar,6,2, (Remix) Stems (1),0.13948750495910645,0
53,100,0.1590909090909091,826,0,43,_Remix_Guitar,6,3, (Remix) Stems (1),0.13144423067569733,0
53,100,0.13636363636363635,18,1,44,_Remix_Guitar,6,2, (Remix) Stems (1),0.9998393058776855,1
53,100,0.5,83,0,44,_Remix_Guitar,6,8, (Remix) Stems (1),0.19156493246555328,0
53,100,0.2409090909090909,206,0,44,_Remix_Guitar,6,4, (Remix) Stems (1),0.20249086618423462,0
53,100,0.18181818181818182,431,0,44,_Remix_Guitar,6,3, (Remix) Stems (1),0.20689578354358673,0
60,100,0.33636363636363636,765,1,44,_Remix_Guitar,6,5, (Remix) Stems (1),0.2027135193347931,0
53,100,0.18181818181818182,220,1,45,_Remix_Guitar,6,3, (Remix) Stems (1),0.9998351335525513,1
53,100,0.36363636363636365,356,0,45,_Remix_Guitar,6,6, (Remix) Stems (1),0.4009499251842499,0
53,100,0.12272727272727273,871,1,45,_Remix_Guitar,6,2, (Remix) Stems (1),0.42960798740386963,0
53,100,0.2,185,1,46,_Remix_Guitar,6,3, (Remix) Stems (1),0.9998101592063904,1
58,100,0.3181818181818182,391,0,46,_Remix_Guitar,6,5, (Remix) Stems (1),0.11361898481845856,0
53,100,0.2,501,0,46,_Remix_Guitar,6,3, (Remix) Stems (1),0.13169586658477783,0
53,100,0.17727272727272728,558,0,46,_Remix_Guitar,6,3, (Remix) Stems (1),0.13373863697052002,0
53,100,0.2,700,0,46,_Remix_Guitar,6,3, (Remix) Stems (1),0.1439206749200821,0
53,100,0.5,751,0,46,_Remix_Guitar,6,8, (Remix) Stems (1),0.13117487728595734,0
53,100,0.1590909090909091,8,1,47,_Remix_Guitar,6,3, (Remix) Stems (1),0.9998093247413635,1
53,100,0.2409090909090909,69,0,47,_Remix_Guitar,6,4, (Remix) Stems (1),0.12493777275085449,0
53,100,0.12272727272727273,136,0,47,_Remix_Guitar,6,2, (Remix) Stems (1),0.12305768579244614,0
58,100,0.22272727272727272,321,0,47,_Remix_Guitar,6,4, (Remix) Stems (1),0.12876680493354797,0
53,100,0.22272727272727272,386,0,47,_Remix_Guitar,6,4, (Remix) Stems (1),0.1530522108078003,0
58,100,0.2818181818181818,616,0,47,_Remix_Guitar,6,5, (Remix) Stems (1),0.12692952156066895,0
55,100,0.1,153,1,49,_Remix_Guitar,6,2, (Remix) Stems (1),0.999832034111023,1
55,100,0.2590909090909091,558,1,49,_Remix_Guitar,6,4, (Remix) Stems (1),0.3970564901828766,0
53,100,0.2772727272727273,823,1,49,_Remix_Guitar,6,4, (Remix) Stems (1),0.43428584933280945,0
53,100,0.4,43,1,50,_Remix_Guitar,6,6, (Remix) Stems (1),0.9997000694274902,1
58,100,0.2409090909090909,131,0,50,_Remix_Guitar,6,4, (Remix) Stems (1),0.04102078825235367,0
53,100,0.18181818181818182,188,0,50,_Remix_Guitar,6,3, (Remix) Stems (1),0.03538570553064346,0
53,100,0.21818181818181817,260,0,50,_Remix_Guitar,6,3, (Remix) Stems (1),0.030241860076785088,0
53,100,0.18181818181818182,311,0,50,_Remix_Guitar,6,3, (Remix) Stems (1),0.03181153163313866,0
53,100,0.1409090909090909,399,0,50,_Remix_Guitar,6,2, (Remix) Stems (1),0.03478221967816353,0
53,100,0.6,545,0,50,_Remix_Guitar,6,10, (Remix) Stems (1),0.03867122903466225,0
53,100,0.17727272727272728,765,0,50,_Remix_Guitar,6,3, (Remix) Stems (1),0.05297914147377014,0
53,100,0.16363636363636364,818,0,50,_Remix_Guitar,6,3, (Remix) Stems (1),0.046834059059619904,0
55,100,0.11818181818181818,281,1,51,_Remix_Guitar,6,2, (Remix) Stems (1),0.9930981993675232,0
55,100,0.1,91,1,52,_Remix_Guitar,6,2, (Remix) Stems (1),0.999825656414032,1
55,100,0.1,166,0,52,_Remix_Guitar,6,2, (Remix) Stems (1),0.4130021035671234,0
55,100,0.3181818181818182,853,1,52,_Remix_Guitar,6,5, (Remix) Stems (1),0.42210036516189575,0
55,100,0.2590909090909091,171,1,53,_Remix_Guitar,6,4, (Remix) Stems (1),0.999842643737793,1
53,100,0.1590909090909091,303,0,53,_Remix_Guitar,6,3, (Remix) Stems (1),0.33550506830215454,0
56,100,0.2409090909090909,396,0,53,_Remix_Guitar,6,4, (Remix) Stems (1),0.2918655574321747,0
56,100,0.11818181818181818,853,1,53,_Remix_Guitar,6,2, (Remix) Stems (1),0.31087619066238403,0
63,100,0.1409090909090909,461,1,54,_Remix_Guitar,6,2, (Remix) Stems (1),0.9996217489242554,1
58,100,0.2409090909090909,528,0,54,_Remix_Guitar,6,4, (Remix) Stems (1),0.5411311984062195,0
63,100,0.2,75,1,55,_Remix_Guitar,6,3, (Remix) Stems (1),0.9998260140419006,1
55,100,0.11818181818181818,458,1,55,_Remix_Guitar,6,2, (Remix) Stems (1),0.41201817989349365,0
53,100,0.2590909090909091,606,0,55,_Remix_Guitar,6,4, (Remix) Stems (1),0.435909628868103,0
53,100,0.12272727272727273,166,1,56,_Remix_Guitar,6,2, (Remix) Stems (1),0.9998107552528381,1
53,100,0.1590909090909091,220,0,56,_Remix_Guitar,6,3, (Remix) Stems (1),0.12425331771373749,0
53,100,0.17727272727272728,338,0,56,_Remix_Guitar,6,3, (Remix) Stems (1),0.11958998441696167,0
53,100,0.2,554,0,56,_Remix_Guitar,6,3, (Remix) Stems (1),0.1315552443265915,0
53,100,0.22272727272727272,606,0,56,_Remix_Guitar,6,4, (Remix) Stems (1),0.14013619720935822,0
53,100,0.4590909090909091,801,0,56,_Remix_Guitar,6,7, (Remix) Stems (1),0.12514962255954742,0
53,100,0.21818181818181817,40,1,57,_Remix_Guitar,6,3, (Remix) Stems (1),0.9998003840446472,1
53,100,0.16363636363636364,114,0,57,_Remix_Guitar,6,3, (Remix) Stems (1),0.12905679643154144,0
53,100,0.17727272727272728,185,0,57,_Remix_Guitar,6,3, (Remix) Stems (1),0.11940683424472809,0
53,100,0.1409090909090909,254,0,57,_Remix_Guitar,6,2, (Remix) Stems (1),0.13256840407848358,0
53,100,0.1,373,0,57,_Remix_Guitar,6,2, (Remix) Stems (1),0.13913404941558838,0
53,100,0.42272727272727273,421,0,57,_Remix_Guitar,6,7, (Remix) Stems (1),0.1269027441740036,0
53,100,0.1409090909090909,201,1,59,_Remix_Guitar,6,2, (Remix) Stems (1),0.9997461438179016,1
53,100,0.12272727272727273,298,0,59,_Remix_Guitar,6,2, (Remix) Stems (1),0.05618750676512718,0
53,100,0.18181818181818182,343,0,59,_Remix_Guitar,6,3, (Remix) Stems (1),0.04822685569524765,0
58,100,0.38181818181818183,440,0,59,_Remix_Guitar,6,6, (Remix) Stems (1),0.045772917568683624,0
58,100,0.2,536,0,59,_Remix_Guitar,6,3, (Remix) Stems (1),0.053838763386011124,0
53,100,0.5590909090909091,590,0,59,_Remix_Guitar,6,9, (Remix) Stems (1),0.06497175991535187,0
58,100,0.5772727272727273,721,0,59,_Remix_Guitar,6,9, (Remix) Stems (1),0.06622415781021118,0
58,100,0.21818181818181817,866,0,59,_Remix_Guitar,6,3, (Remix) Stems (1),0.06508111208677292,0
53,100,0.18181818181818182,114,1,60,_Remix_Guitar,6,3, (Remix) Stems (1),0.9996501207351685,1
53,100,0.12272727272727273,311,0,60,_Remix_Guitar,6,2, (Remix) Stems (1),0.5479706525802612,0
53,100,0.12272727272727273,466,1,61,_Remix_Guitar,6,2, (Remix) Stems (1),0.9998588562011719,1
53,100,1.059090909090909,501,0,61,_Remix_Guitar,6,15, (Remix) Stems (1),0.27383095026016235,0
53,100,0.22272727272727272,761,1,61,_Remix_Guitar,6,4, (Remix) Stems (1),0.3170303702354431,0
53,100,0.21818181818181817,813,0,61,_Remix_Guitar,6,3, (Remix) Stems (1),0.30846408009529114,0
53,100,0.11818181818181818,8,1,62,_Remix_Guitar,6,2, (Remix) Stems (1),0.9997730851173401,1
53,100,0.1409090909090909,56,0,62,_Remix_Guitar,6,2, (Remix) Stems (1),0.07838147133588791,0
53,100,0.21818181818181817,260,0,62,_Remix_Guitar,6,3, (Remix) Stems (1),0.06925157457590103,0
53,100,0.32272727272727275,321,0,62,_Remix_Guitar,6,5, (Remix) Stems (1),0.07856260985136032,0
53,100,0.17727272727272728,413,0,62,_Remix_Guitar,6,3, (Remix) Stems (1),0.08882860839366913,0
53,100,0.16363636363636364,466,0,62,_Remix_Guitar,6,3, (Remix) Stems (1),0.09596056491136551,0
53,100,0.22272727272727272,576,0,62,_Remix_Guitar,6,4, (Remix) Stems (1),0.08310946077108383,0
53,100,0.4409090909090909,289,1,63,_Remix_Guitar,6,7, (Remix) Stems (1),0.9998397827148438,1
58,100,0.7636363636363637,421,0,63,_Remix_Guitar,6,12, (Remix) Stems (1),0.29351606965065,0
53,100,0.32272727272727275,598,0,63,_Remix_Guitar,6,5, (Remix) Stems (1),0.32557564973831177,0
55,100,0.2818181818181818,813,0,63,_Remix_Guitar,6,5, (Remix) Stems (1),0.3154883086681366,0
55,100,0.4590909090909091,87,1,64,_Remix_Guitar,6,7, (Remix) Stems (1),0.999809205532074,1
55,100,0.17727272727272728,502,1,64,_Remix_Guitar,6,3, (Remix) Stems (1),0.4306139051914215,0
55,100,0.11818181818181818,853,1,64,_Remix_Guitar,6,2, (Remix) Stems (1),0.4295225441455841,0
53,100,0.13636363636363635,62,1,65,_Remix_Guitar,6,2, (Remix) Stems (1),0.9998430013656616,1
53,100,0.2772727272727273,96,0,65,_Remix_Guitar,6,4, (Remix) Stems (1),0.2027200162410736,0
53,100,0.1590909090909091,606,1,65,_Remix_Guitar,6,3, (Remix) Stems (1),0.1987026184797287,0
53,100,0.6590909090909091,700,0,65,_Remix_Guitar,6,11, (Remix) Stems (1),0.19204206764698029,0
53,100,0.1590909090909091,849,0,65,_Remix_Guitar,6,3, (Remix) Stems (1),0.21035271883010864,0
53,100,0.3181818181818182,150,1,66,_Remix_Guitar,6,5, (Remix) Stems (1),0.9997286200523376,1
58,100,0.36363636363636365,223,0,66,_Remix_Guitar,6,6, (Remix) Stems (1),0.05299768224358559,0
53,100,0.6181818181818182,330,0,66,_Remix_Guitar,6,10, (Remix) Stems (1),0.04906512424349785,0
58,100,0.18181818181818182,466,0,66,_Remix_Guitar,6,3, (Remix) Stems (1),0.04931328445672989,0
53,100,0.23636363636363636,523,0,66,_Remix_Guitar,6,4, (Remix) Stems (1),0.054361071437597275,0
53,100,0.4409090909090909,593,0,66,_Remix_Guitar,6,7, (Remix) Stems (1),0.058357760310173035,0
53,100,0.4409090909090909,695,0,66,_Remix_Guitar,6,7, (Remix) Stems (1),0.0714670941233635,0
53,100,0.1590909090909091,849,0,66,_Remix_Guitar,6,3, (Remix) Stems (1),0.06365062296390533,0
53,100,0.5636363636363636,26,1,67,_Remix_Guitar,6,9, (Remix) Stems (1),0.9998373985290527,1
58,100,0.12272727272727273,246,0,67,_Remix_Guitar,6,2, (Remix) Stems (1),0.33084800839424133,0
55,100,0.11818181818181818,690,1,67,_Remix_Guitar,6,2, (Remix) Stems (1),0.30063366889953613,0
55,100,0.11818181818181818,779,0,67,_Remix_Guitar,6,2, (Remix) Stems (1),0.3140116035938263,0
53,100,0.1,624,1,68,_Remix_Guitar,6,2, (Remix) Stems (1),0.9933888912200928,0
58,100,0.1590909090909091,87,1,69,_Remix_Guitar,6,3, (Remix) Stems (1),0.9998123049736023,1
55,100,0.13636363636363635,392,1,69,_Remix_Guitar,6,2, (Remix) Stems (1),0.4241274297237396,0
55,100,0.41818181818181815,426,0,69,_Remix_Guitar,6,7, (Remix) Stems (1),0.4306345582008362,0
56,100,0.11818181818181818,603,1,70,_Remix_Guitar,6,2, (Remix) Stems (1),0.9933280944824219,0
63,100,0.5227272727272727,409,1,71,_Remix_Guitar,6,8, (Remix) Stems (1),0.9995898604393005,1
63,100,0.4,832,1,71,_Remix_Guitar,6,6, (Remix) Stems (1),0.5564135313034058,0
63,100,0.21818181818181817,83,1,72,_Remix_Guitar,6,3, (Remix) Stems (1),0.9998427629470825,1
55,100,0.2772727272727273,250,0,72,_Remix_Guitar,6,4, (Remix) Stems (1),0.32768720388412476,0
55,100,0.3,333,0,72,_Remix_Guitar,6,5, (Remix) Stems (1),0.28856611251831055,0
55,100,0.1409090909090909,422,0,72,_Remix_Guitar,6,2, (Remix) Stems (1),0.3172319531440735,0
53,100,0.6,176,1,73,_Remix_Guitar,6,10, (Remix) Stems (1),0.9997511506080627,1
53,100,0.11818181818181818,330,0,73,_Remix_Guitar,6,2, (Remix) Stems (1),0.09234854578971863,0
58,100,0.6181818181818182,436,0,73,_Remix_Guitar,6,10, (Remix) Stems (1),0.06883949041366577,0
70,100,0.1,619,0,73,_Remix_Guitar,6,2, (Remix) Stems (1),0.09207169711589813,0
58,100,0.2,650,0,73,_Remix_Guitar,6,3, (Remix) Stems (1),0.09609062224626541,0
58,100,0.2590909090909091,722,0,73,_Remix_Guitar,6,4, (Remix) Stems (1),0.10775595158338547,0
53,100,1.018181818181818,787,0,73,_Remix_Guitar,6,15, (Remix) Stems (1),0.08984801173210144,0
58,100,0.22272727272727272,145,1,74,_Remix_Guitar,6,4, (Remix) Stems (1),0.9995700716972351,1
58,100,0.38181818181818183,246,0,74,_Remix_Guitar,6,6, (Remix) Stems (1),0.5527800917625427,0
53,100,0.1,179,1,75,_Remix_Guitar,6,2, (Remix) Stems (1),0.9998155236244202,1
60,100,0.1,443,1,75,_Remix_Guitar,6,2, (Remix) Stems (1),0.13175956904888153,0
55,100,0.3181818181818182,483,0,75,_Remix_Guitar,6,5, (Remix) Stems (1),0.11578064411878586,0
55,100,0.1590909090909091,559,0,75,_Remix_Guitar,6,3, (Remix) Stems (1),0.13452859222888947,0
55,100,0.1590909090909091,766,0,75,_Remix_Guitar,6,3, (Remix) Stems (1),0.14697152376174927,0
58,100,0.4590909090909091,866,0,75,_Remix_Guitar,6,7, (Remix) Stems (1),0.1242305189371109,0
55,100,0.2409090909090909,250,1,76,_Remix_Guitar,6,4, (Remix) Stems (1),0.9929539561271667,1
63,100,0.3,449,1,77,_Remix_Guitar,6,5, (Remix) Stems (1),0.9927536845207214,0
55,100,0.11818181818181818,294,1,78,_Remix_Guitar,6,2, (Remix) Stems (1),0.9998534917831421,1
55,100,0.13636363636363635,326,0,78,_Remix_Guitar,6,2, (Remix) Stems (1),0.31546440720558167,0
55,100,0.4,430,0,78,_Remix_Guitar,6,6, (Remix) Stems (1),0.29525429010391235,0
55,100,0.8,729,1,78,_Remix_Guitar,6,13, (Remix) Stems (1),0.30468207597732544,0
63,100,0.1409090909090909,606,1,79,_Remix_Guitar,6,2, (Remix) Stems (1),0.993359386920929,0
53,100,0.4818181818181818,22,1,80,_Remix_Guitar,6,8, (Remix) Stems (1),0.9998213648796082,1
53,100,0.11818181818181818,506,1,80,_Remix_Guitar,6,2, (Remix) Stems (1),0.4316841959953308,0
53,100,0.2590909090909091,567,0,80,_Remix_Guitar,6,4, (Remix) Stems (1),0.4222933053970337,0
53,100,0.1409090909090909,22,1,81,_Remix_Guitar,6,2, (Remix) Stems (1),0.9998319149017334,1
53,100,0.1,136,0,81,_Remix_Guitar,6,2, (Remix) Stems (1),0.409078985452652,0
53,100,0.5409090909090909,202,0,81,_Remix_Guitar,6,9, (Remix) Stems (1),0.41800686717033386,0
58,100,0.2,436,1,83,_Remix_Guitar,6,3, (Remix) Stems (1),0.9998379945755005,1
53,100,0.12272727272727273,496,0,83,_Remix_Guitar,6,2, (Remix) Stems (1),0.35073885321617126,0
53,100,0.3,532,0,83,_Remix_Guitar,6,5, (Remix) Stems (1),0.2836459279060364,0
53,100,0.35909090909090907,646,0,83,_Remix_Guitar,6,6, (Remix) Stems (1),0.3082268536090851,0
53,100,0.2,79,1,84,_Remix_Guitar,6,3, (Remix) Stems (1),0.9997723698616028,1
53,100,0.1590909090909091,153,0,84,_Remix_Guitar,6,3, (Remix) Stems (1),0.07846714556217194,0
53,100,0.1409090909090909,210,0,84,_Remix_Guitar,6,2, (Remix) Stems (1),0.07275279611349106,0
53,100,0.1409090909090909,250,0,84,_Remix_Guitar,6,2, (Remix) Stems (1),0.0756436139345169,0
53,100,0.2590909090909091,299,0,84,_Remix_Guitar,6,4, (Remix) Stems (1),0.08475127816200256,0
53,100,0.2,377,0,84,_Remix_Guitar,6,3, (Remix) Stems (1),0.09312693029642105,0
53,100,0.11818181818181818,593,0,84,_Remix_Guitar,6,2, (Remix) Stems (1),0.08298993110656738,0
55,100,0.1409090909090909,289,1,85,_Remix_Guitar,6,2, (Remix) Stems (1),0.9996176958084106,1
67,100,0.1,333,0,85,_Remix_Guitar,6,2, (Remix) Stems (1),0.5488243699073792,0
55,100,0.1409090909090909,417,1,86,_Remix_Guitar,6,2, (Remix) Stems (1),0.9930658340454102,0
53,100,0.16363636363636364,707,1,88,_Remix_Guitar,6,3, (Remix) Stems (1),0.9996479749679565,1
53,100,0.1,760,0,88,_Remix_Guitar,6,2, (Remix) Stems (1),0.5528007745742798,0
58,100,0.12272727272727273,13,1,89,_Remix_Guitar,6,2, (Remix) Stems (1),0.9998207688331604,1
53,100,0.2409090909090909,462,1,89,_Remix_Guitar,6,4, (Remix) Stems (1),0.4285402297973633,0
53,100,0.1590909090909091,823,1,89,_Remix_Guitar,6,3, (Remix) Stems (1),0.42859917879104614,0
53,100,0.1,140,1,90,_Remix_Guitar,6,2, (Remix) Stems (1),0.9998557567596436,1
58,100,0.11818181818181818,633,1,90,_Remix_Guitar,6,2, (Remix) Stems (1),0.3082045018672943,0
53,100,0.1590909090909091,726,0,90,_Remix_Guitar,6,3, (Remix) Stems (1),0.2970520853996277,0
53,100,0.5409090909090909,862,0,90,_Remix_Guitar,6,9, (Remix) Stems (1),0.3001534342765808,0
53,100,0.12272727272727273,202,1,91,_Remix_Guitar,6,2, (Remix) Stems (1),0.9997358918190002,1
53,100,0.38181818181818183,242,0,91,_Remix_Guitar,6,6, (Remix) Stems (1),0.05325273051857948,0
53,100,0.1409090909090909,330,0,91,_Remix_Guitar,6,2, (Remix) Stems (1),0.048957549035549164,0
53,100,0.1,373,0,91,_Remix_Guitar,6,2, (Remix) Stems (1),0.046766094863414764,0
53,100,0.18181818181818182,440,0,91,_Remix_Guitar,6,3, (Remix) Stems (1),0.0507754385471344,0
53,100,0.2,514,0,91,_Remix_Guitar,6,3, (Remix) Stems (1),0.057588960975408554,0
53,100,0.35909090909090907,590,0,91,_Remix_Guitar,6,6, (Remix) Stems (1),0.06393700838088989,0
53,100,0.11818181818181818,713,0,91,_Remix_Guitar,6,2, (Remix) Stems (1),0.061039138585329056,0
53,100,0.7363636363636363,40,1,93,_Remix_Guitar,6,12, (Remix) Stems (1),0.9997343420982361,1
53,100,0.3181818181818182,250,0,93,_Remix_Guitar,6,5, (Remix) Stems (1),0.08868595212697983,0
53,100,0.2590909090909091,404,0,93,_Remix_Guitar,6,4, (Remix) Stems (1),0.07444202154874802,0
53,100,0.11818181818181818,483,0,93,_Remix_Guitar,6,2, (Remix) Stems (1),0.08102642744779587,0
53,100,0.1,540,0,93,_Remix_Guitar,6,2, (Remix) Stems (1),0.0892678052186966,0
53,100,0.2,606,0,93,_Remix_Guitar,6,3, (Remix) Stems (1),0.09347444027662277,0
53,100,0.4590909090909091,669,0,93,_Remix_Guitar,6,7, (Remix) Stems (1),0.08295805007219315,0
53,100,0.2409090909090909,43,1,94,_Remix_Guitar,6,4, (Remix) Stems (1),0.9996354579925537,1
58,100,0.22272727272727272,100,0,94,_Remix_Guitar,6,4, (Remix) Stems (1),0.5391669273376465,0
55,100,0.12272727272727273,13,1,95,_Remix_Guitar,6,2, (Remix) Stems (1),0.9998291730880737,1
55,100,0.18181818181818182,47,0,95,_Remix_Guitar,6,3, (Remix) Stems (1),0.40080246329307556,0
53,100,0.1409090909090909,312,1,95,_Remix_Guitar,6,2, (Remix) Stems (1),0.4364472031593323,0
60,100,0.1,496,1,96,_Remix_Guitar,6,2, (Remix) Stems (1),0.9937040209770203,0
53,100,0.18181818181818182,220,1,97,_Remix_Guitar,6,3, (Remix) Stems (1),0.9996492862701416,1
53,100,0.1590909090909091,475,1,97,_Remix_Guitar,6,3, (Remix) Stems (1),0.5501673221588135,0
53,100,0.11818181818181818,770,1,98,_Remix_Guitar,6,2, (Remix) Stems (1),0.9934757351875305,0
53,100,0.11818181818181818,700,1,99,_Remix_Guitar,6,2, (Remix) Stems (1),0.9996473789215088,1
53,100,0.1409090909090909,773,0,99,_Remix_Guitar,6,2, (Remix) Stems (1),0.545940637588501,0
53,100,0.36363636363636365,157,1,100,_Remix_Guitar,6,6, (Remix) Stems (1),0.9997661709785461,1
53,100,0.18181818181818182,267,0,100,_Remix_Guitar,6,3, (Remix) Stems (1),0.08140358328819275,0
53,100,0.1409090909090909,352,0,100,_Remix_Guitar,6,2, (Remix) Stems (1),0.07384151220321655,0
53,100,0.2818181818181818,386,0,100,_Remix_Guitar,6,5, (Remix) Stems (1),0.07938215881586075,0
53,100,0.4409090909090909,470,0,100,_Remix_Guitar,6,7, (Remix) Stems (1),0.0880606472492218,0
53,100,1.1409090909090909,593,0,100,_Remix_Guitar,6,15, (Remix) Stems (1),0.08641175180673599,0
53,100,0.1590909090909091,853,1,100,_Remix_Guitar,6,3, (Remix) Stems (1),0.09997772425413132,0
53,100,0.3,22,1,101,_Remix_Guitar,6,5, (Remix) Stems (1),0.9998291730880737,1
53,100,0.2,106,0,101,_Remix_Guitar,6,3, (Remix) Stems (1),0.4180201590061188,0
63,100,0.11818181818181818,330,0,101,_Remix_Guitar,6,2, (Remix) Stems (1),0.4234496057033539,0
63,100,0.3409090909090909,92,1,102,_Remix_Guitar,6,5, (Remix) Stems (1),0.9998425245285034,1
53,100,0.33636363636363636,326,1,102,_Remix_Guitar,6,5, (Remix) Stems (1),0.3301331102848053,0
53,100,0.2590909090909091,426,0,102,_Remix_Guitar,6,4, (Remix) Stems (1),0.30338090658187866,0
53,100,0.36363636363636365,619,0,102,_Remix_Guitar,6,6, (Remix) Stems (1),0.30674415826797485,0
65,100,0.2818181818181818,123,1,103,_Remix_Guitar,6,5, (Remix) Stems (1),0.9996294975280762,1
60,100,0.4818181818181818,817,1,103,_Remix_Guitar,6,8, (Remix) Stems (1),0.5502371191978455,0
63,100,0.1,140,1,104,_Remix_Guitar,6,2, (Remix) Stems (1),0.9998250603675842,1
63,100,0.1409090909090909,206,0,104,_Remix_Guitar,6,2, (Remix) Stems (1),0.41436511278152466,0
63,100,0.7636363636363637,267,0,104,_Remix_Guitar,6,12, (Remix) Stems (1),0.4170224666595459,0
56,100,0.1,96,1,105,_Remix_Guitar,6,2, (Remix) Stems (1),0.9997742772102356,1
60,100,0.43636363636363634,260,0,105,_Remix_Guitar,6,7, (Remix) Stems (1),0.07783154398202896,0
58,100,0.11818181818181818,493,1,105,_Remix_Guitar,6,2, (Remix) Stems (1),0.07648386806249619,0
58,100,0.18181818181818182,553,0,105,_Remix_Guitar,6,3, (Remix) Stems (1),0.07999322563409805,0
70,100,0.2,603,0,105,_Remix_Guitar,6,3, (Remix) Stems (1),0.09414135664701462,0
58,100,0.1590909090909091,690,0,105,_Remix_Guitar,6,3, (Remix) Stems (1),0.10172060132026672,0
53,100,0.16363636363636364,729,0,105,_Remix_Guitar,6,3, (Remix) Stems (1),0.09783441573381424,0
58,100,0.11818181818181818,326,1,106,_Remix_Guitar,6,2, (Remix) Stems (1),0.999840497970581,1
63,100,0.2590909090909091,656,1,106,_Remix_Guitar,6,4, (Remix) Stems (1),0.3356514573097229,0
63,100,0.2,770,0,106,_Remix_Guitar,6,3, (Remix) Stems (1),0.29406896233558655,0
53,100,0.1,826,0,106,_Remix_Guitar,6,2, (Remix) Stems (1),0.31844598054885864,0
53,100,0.2,132,1,107,_Remix_Guitar,6,3, (Remix) Stems (1),0.9998049139976501,1
63,100,0.8409090909090909,189,0,107,_Remix_Guitar,6,13, (Remix) Stems (1),0.11133800446987152,0
53,100,0.12272727272727273,377,0,107,_Remix_Guitar,6,2, (Remix) Stems (1),0.134669229388237,0
65,100,0.12272727272727273,409,0,107,_Remix_Guitar,6,2, (Remix) Stems (1),0.13470351696014404,0
60,100,0.11818181818181818,590,0,107,_Remix_Guitar,6,2, (Remix) Stems (1),0.14444303512573242,0
60,100,0.18181818181818182,660,0,107,_Remix_Guitar,6,3, (Remix) Stems (1),0.1314610242843628,0
63,100,0.11818181818181818,43,1,108,_Remix_Guitar,6,2, (Remix) Stems (1),0.9998321533203125,1
63,100,0.1590909090909091,347,1,108,_Remix_Guitar,6,3, (Remix) Stems (1),0.4035918712615967,0
63,100,0.2,386,0,108,_Remix_Guitar,6,3, (Remix) Stems (1),0.433102548122406,0
53,100,0.2,823,1,109,_Remix_Guitar,6,3, (Remix) Stems (1),0.9932920932769775,0
53,100,0.16363636363636364,179,1,110,_Remix_Guitar,6,3, (Remix) Stems (1),0.9998575448989868,1
53,100,0.2,312,0,110,_Remix_Guitar,6,3, (Remix) Stems (1),0.3221491873264313,0
58,100,0.1,360,0,110,_Remix_Guitar,6,2, (Remix) Stems (1),0.2825218737125397,0
70,100,0.1,650,1,110,_Remix_Guitar,6,2, (Remix) Stems (1),0.3109428584575653,0
63,100,0.41818181818181815,462,1,111,_Remix_Guitar,6,7, (Remix) Stems (1),0.9927716851234436,0
63,100,0.12272727272727273,386,1,112,_Remix_Guitar,6,2, (Remix) Stems (1),0.9933732748031616,0
56,100,0.11818181818181818,9,1,113,_Remix_Guitar,6,2, (Remix) Stems (1),0.9997658133506775,1
70,100,0.16363636363636364,267,1,113,_Remix_Guitar,6,3, (Remix) Stems (1),0.07490312308073044,0
53,100,0.740909090909091,312,0,113,_Remix_Guitar,6,12, (Remix) Stems (1),0.07278566062450409,0
53,100,0.18181818181818182,483,0,113,_Remix_Guitar,6,3, (Remix) Stems (1),0.08633216470479965,0
53,100,0.18181818181818182,527,0,113,_Remix_Guitar,6,3, (Remix) Stems (1),0.08777926117181778,0
53,100,0.1590909090909091,747,0,113,_Remix_Guitar,6,3, (Remix) Stems (1),0.1008770689368248,0
53,100,0.11818181818181818,810,0,113,_Remix_Guitar,6,2, (Remix) Stems (1),0.08823369443416595,0
55,100,0.22272727272727272,13,1,114,_Remix_Guitar,6,4, (Remix) Stems (1),0.993111252784729,0
56,100,0.1590909090909091,216,1,115,_Remix_Guitar,6,3, (Remix) Stems (1),0.9998548030853271,1
53,100,0.1,650,1,115,_Remix_Guitar,6,2, (Remix) Stems (1),0.3222804367542267,0
53,100,0.1409090909090909,747,0,115,_Remix_Guitar,6,2, (Remix) Stems (1),0.28961387276649475,0
53,100,0.1590909090909091,857,0,115,_Remix_Guitar,6,3, (Remix) Stems (1),0.29746970534324646,0
53,100,0.1590909090909091,30,1,116,_Remix_Guitar,6,3, (Remix) Stems (1),0.9996353387832642,1
58,100,0.16363636363636364,69,0,116,_Remix_Guitar,6,3, (Remix) Stems (1),0.5362582206726074,0
55,100,0.4,26,1,117,_Remix_Guitar,6,6, (Remix) Stems (1),0.9995697140693665,1
55,100,0.3,127,0,117,_Remix_Guitar,6,5, (Remix) Stems (1),0.5541098713874817,0
58,100,0.3,106,1,118,_Remix_Guitar,6,5, (Remix) Stems (1),0.9997884631156921,1
53,100,0.1409090909090909,184,0,118,_Remix_Guitar,6,2, (Remix) Stems (1),0.14051924645900726,0
53,100,0.1409090909090909,386,0,118,_Remix_Guitar,6,2, (Remix) Stems (1),0.12251431494951248,0
53,100,0.13636363636363635,457,0,118,_Remix_Guitar,6,2, (Remix) Stems (1),0.13506507873535156,0
62,100,0.1590909090909091,792,1,118,_Remix_Guitar,6,3, (Remix) Stems (1),0.13899768888950348,0
62,100,0.37727272727272726,832,0,118,_Remix_Guitar,6,6, (Remix) Stems (1),0.12876856327056885,0
55,100,0.38181818181818183,223,1,119,_Remix_Guitar,6,6, (Remix) Stems (1),0.9996211528778076,1
53,100,0.12272727272727273,739,1,119,_Remix_Guitar,6,2, (Remix) Stems (1),0.5593219995498657,0
60,100,0.2590909090909091,110,1,120,_Remix_Guitar,6,4, (Remix) Stems (1),0.9996480941772461,1
53,100,0.1,866,1,120,_Remix_Guitar,6,2, (Remix) Stems (1),0.5481653213500977,0
53,100,0.38181818181818183,22,1,121,_Remix_Guitar,6,6, (Remix) Stems (1),0.9996947050094604,1
53,100,0.18181818181818182,113,0,121,_Remix_Guitar,6,3, (Remix) Stems (1),0.045075468719005585,0
58,100,0.8818181818181818,153,0,121,_Remix_Guitar,6,14, (Remix) Stems (1),0.029037054628133774,0
53,100,0.18181818181818182,377,0,121,_Remix_Guitar,6,3, (Remix) Stems (1),0.03504914417862892,0
53,100,0.3,440,0,121,_Remix_Guitar,6,5, (Remix) Stems (1),0.03080899454653263,0
53,100,0.3,519,0,121,_Remix_Guitar,6,5, (Remix) Stems (1),0.034365762025117874,0
53,100,0.1590909090909091,637,0,121,_Remix_Guitar,6,3, (Remix) Stems (1),0.04282515496015549,0
53,100,0.2409090909090909,752,0,121,_Remix_Guitar,6,4, (Remix) Stems (1),0.048545096069574356,0
53,100,0.1409090909090909,826,0,121,_Remix_Guitar,6,2, (Remix) Stems (1),0.04708127677440643,0
53,100,0.2409090909090909,0,1,122,_Remix_Guitar,6,4, (Remix) Stems (1),0.9998308420181274,1
53,100,0.1409090909090909,56,0,122,_Remix_Guitar,6,2, (Remix) Stems (1),0.41714611649513245,0
63,100,0.2818181818181818,729,1,122,_Remix_Guitar,6,5, (Remix) Stems (1),0.42092737555503845,0
63,100,0.2772727272727273,722,1,123,_Remix_Guitar,6,4, (Remix) Stems (1),0.9932845830917358,0
63,100,0.12272727272727273,312,1,124,_Remix_Guitar,6,2, (Remix) Stems (1),0.9998356103897095,1
65,100,0.18181818181818182,637,1,124,_Remix_Guitar,6,3, (Remix) Stems (1),0.41271844506263733,0
65,100,0.21818181818181817,682,0,124,_Remix_Guitar,6,3, (Remix) Stems (1),0.42541858553886414,0
65,100,0.1409090909090909,286,1,125,_Remix_Guitar,6,2, (Remix) Stems (1),0.9935031533241272,0
60,100,0.4409090909090909,87,1,126,_Remix_Guitar,6,7, (Remix) Stems (1),0.9998297691345215,1
60,100,0.1,193,0,126,_Remix_Guitar,6,2, (Remix) Stems (1),0.41892510652542114,0
63,100,0.1409090909090909,663,1,126,_Remix_Guitar,6,2, (Remix) Stems (1),0.4196051359176636,0
58,100,0.17727272727272728,163,1,127,_Remix_Guitar,6,3, (Remix) Stems (1),0.9998359680175781,1
63,100,0.21818181818181817,546,1,127,_Remix_Guitar,6,3, (Remix) Stems (1),0.3396502435207367,0
58,100,0.2,734,0,127,_Remix_Guitar,6,3, (Remix) Stems (1),0.29473990201950073,0
56,100,0.1,876,0,127,_Remix_Guitar,6,2, (Remix) Stems (1),0.32461556792259216,0
58,100,0.2,436,1,128,_Remix_Guitar,6,3, (Remix) Stems (1),0.992363452911377,0
53,100,0.1,285,1,130,_Remix_Guitar,6,2, (Remix) Stems (1),0.9998379945755005,1
53,100,0.1590909090909091,321,0,130,_Remix_Guitar,6,3, (Remix) Stems (1),0.2083854079246521,0
60,100,0.4772727272727273,479,0,130,_Remix_Guitar,6,8, (Remix) Stems (1),0.19224022328853607,0
60,100,0.2818181818181818,704,0,130,_Remix_Guitar,6,5, (Remix) Stems (1),0.20809319615364075,0
53,100,0.6,773,0,130,_Remix_Guitar,6,10, (Remix) Stems (1),0.196188822388649,0
56,100,0.17727272727272728,39,1,131,_Remix_Guitar,6,3, (Remix) Stems (1),0.9998531341552734,1
60,100,0.2590909090909091,338,1,131,_Remix_Guitar,6,4, (Remix) Stems (1),0.33145812153816223,0
58,100,0.12272727272727273,400,0,131,_Remix_Guitar,6,2, (Remix) Stems (1),0.2828323543071747,0
58,100,0.18181818181818182,431,0,131,_Remix_Guitar,6,3, (Remix) Stems (1),0.30738145112991333,0
58,100,0.16363636363636364,751,1,132,_Remix_Guitar,6,3, (Remix) Stems (1),0.9926137924194336,0
53,100,0.1409090909090909,603,1,133,_Remix_Guitar,6,2, (Remix) Stems (1),0.9996217489242554,1
58,100,0.2772727272727273,831,0,133,_Remix_Guitar,6,4, (Remix) Stems (1),0.5291714668273926,0
58,100,0.1409090909090909,30,1,134,_Remix_Guitar,6,2, (Remix) Stems (1),0.9997102618217468,1
58,100,0.2636363636363636,70,0,134,_Remix_Guitar,6,4, (Remix) Stems (1),0.05572817102074623,0
58,100,0.2409090909090909,273,0,134,_Remix_Guitar,6,4, (Remix) Stems (1),0.049928002059459686,0
58,100,0.41818181818181815,352,0,134,_Remix_Guitar,6,7, (Remix) Stems (1),0.04893979802727699,0
53,100,0.1,479,0,134,_Remix_Guitar,6,2, (Remix) Stems (1),0.06173403188586235,0
53,100,0.1,546,0,134,_Remix_Guitar,6,2, (Remix) Stems (1),0.06363780796527863,0
62,100,0.13636363636363635,678,0,134,_Remix_Guitar,6,2, (Remix) Stems (1),0.0707710012793541,0
58,100,0.11818181818181818,721,0,134,_Remix_Guitar,6,2, (Remix) Stems (1),0.06376197189092636,0
63,100,0.1,694,1,135,_Remix_Guitar,6,2, (Remix) Stems (1),0.9996364116668701,1
63,100,0.1409090909090909,747,0,135,_Remix_Guitar,6,2, (Remix) Stems (1),0.5483231544494629,0
63,100,0.38181818181818183,840,1,136,_Remix_Guitar,6,6, (Remix) Stems (1),0.9929399490356445,0
58,100,0.4772727272727273,53,1,138,_Remix_Guitar,6,8, (Remix) Stems (1),0.9998192191123962,1
58,100,0.17727272727272728,273,0,138,_Remix_Guitar,6,3, (Remix) Stems (1),0.35542765259742737,0
58,100,0.2818181818181818,725,1,138,_Remix_Guitar,6,5, (Remix) Stems (1),0.29637280106544495,0
53,100,0.1,796,0,138,_Remix_Guitar,6,2, (Remix) Stems (1),0.3353519141674042,0
63,100,0.5,264,1,139,_Remix_Guitar,6,8, (Remix) Stems (1),0.9998396635055542,1
55,100,0.12272727272727273,466,0,139,_Remix_Guitar,6,2, (Remix) Stems (1),0.3512386083602905,0
53,100,0.12272727272727273,562,0,139,_Remix_Guitar,6,2, (Remix) Stems (1),0.290276437997818,0
53,100,0.11818181818181818,594,0,139,_Remix_Guitar,6,2, (Remix) Stems (1),0.3095051944255829,0
53,100,0.1,185,1,140,_Remix_Guitar,6,2, (Remix) Stems (1),0.9998455047607422,1
53,100,0.2590909090909091,211,0,140,_Remix_Guitar,6,4, (Remix) Stems (1),0.19846057891845703,0
53,100,0.13636363636363635,611,1,140,_Remix_Guitar,6,2, (Remix) Stems (1),0.20158863067626953,0
58,100,0.18181818181818182,694,0,140,_Remix_Guitar,6,3, (Remix) Stems (1),0.19961774349212646,0
53,100,0.2409090909090909,823,0,140,_Remix_Guitar,6,4, (Remix) Stems (1),0.20968693494796753,0
58,100,0.2590909090909091,12,1,141,_Remix_Guitar,6,4, (Remix) Stems (1),0.9997817873954773,1
58,100,0.2,75,0,141,_Remix_Guitar,6,3, (Remix) Stems (1),0.13215872645378113,0
53,100,0.4,166,0,141,_Remix_Guitar,6,6, (Remix) Stems (1),0.12763118743896484,0
53,100,0.35909090909090907,452,1,141,_Remix_Guitar,6,6, (Remix) Stems (1),0.1440144181251526,0
53,100,0.1,576,0,141,_Remix_Guitar,6,2, (Remix) Stems (1),0.15040002763271332,0
58,100,0.2,660,0,141,_Remix_Guitar,6,3, (Remix) Stems (1),0.13323967158794403,0
58,100,0.1409090909090909,818,1,142,_Remix_Guitar,6,2, (Remix) Stems (1),0.9925415515899658,1
58,100,0.21818181818181817,436,1,143,_Remix_Guitar,6,3, (Remix) Stems (1),0.9923261404037476,0
63,100,0.18181818181818182,871,1,145,_Remix_Guitar,6,3, (Remix) Stems (1),0.9931176900863647,0
55,100,0.4818181818181818,158,1,146,_Remix_Guitar,6,8, (Remix) Stems (1),0.9998131394386292,1
55,100,0.1,342,0,146,_Remix_Guitar,6,2, (Remix) Stems (1),0.4343357980251312,0
53,100,0.1,546,0,146,_Remix_Guitar,6,2, (Remix) Stems (1),0.43078362941741943,1
61,100,0.38181818181818183,0,1,34,DL_Nostalgic_Guitar,6,6,nostalgic_ninjyou,0.9998272061347961,1
58,100,2.459090909090909,83,0,34,DL_Nostalgic_Guitar,6,15,nostalgic_ninjyou,0.2801986634731293,0
58,100,0.2590909090909091,646,1,34,DL_Nostalgic_Guitar,6,4,nostalgic_ninjyou,0.3632582426071167,0
58,100,1.3,708,0,34,DL_Nostalgic_Guitar,6,15,nostalgic_ninjyou,0.32410484552383423,0
61,100,0.2409090909090909,114,1,35,DL_Nostalgic_Guitar,6,4,nostalgic_ninjyou,0.9998332262039185,1
60,100,0.23636363636363636,260,0,35,DL_Nostalgic_Guitar,6,4,nostalgic_ninjyou,0.20971058309078217,0
63,100,1.5772727272727274,413,0,35,DL_Nostalgic_Guitar,6,15,nostalgic_ninjyou,0.17765454947948456,0
56,100,0.2772727272727273,765,1,35,DL_Nostalgic_Guitar,6,4,nostalgic_ninjyou,0.26187074184417725,0
63,100,1.1227272727272728,826,0,35,DL_Nostalgic_Guitar,6,15,nostalgic_ninjyou,0.20343126356601715,0
63,100,0.8409090909090909,241,1,36,DL_Nostalgic_Guitar,6,13,nostalgic_ninjyou,0.9998028874397278,1
63,100,0.6,471,0,36,DL_Nostalgic_Guitar,6,10,nostalgic_ninjyou,0.22153273224830627,0
63,100,0.3,611,0,36,DL_Nostalgic_Guitar,6,5,nostalgic_ninjyou,0.22387836873531342,0
63,100,0.6590909090909091,681,0,36,DL_Nostalgic_Guitar,6,11,nostalgic_ninjyou,0.22869139909744263,0
63,100,1.7818181818181817,871,0,36,DL_Nostalgic_Guitar,6,15,nostalgic_ninjyou,0.21318599581718445,0
58,100,0.5409090909090909,386,1,37,DL_Nostalgic_Guitar,6,9,nostalgic_ninjyou,0.9998270869255066,1
58,100,0.2409090909090909,558,0,37,DL_Nostalgic_Guitar,6,4,nostalgic_ninjyou,0.34372347593307495,0
63,100,0.18181818181818182,638,0,37,DL_Nostalgic_Guitar,6,3,nostalgic_ninjyou,0.327269971370697,0
58,100,1.6590909090909092,770,0,37,DL_Nostalgic_Guitar,6,15,nostalgic_ninjyou,0.2922336459159851,0
65,100,1.9,254,1,38,DL_Nostalgic_Guitar,6,15,nostalgic_ninjyou,0.9997465014457703,1
58,100,0.3,796,1,38,DL_Nostalgic_Guitar,6,5,nostalgic_ninjyou,0.48220887780189514,0
58,100,2.118181818181818,875,0,38,DL_Nostalgic_Guitar,6,15,nostalgic_ninjyou,0.42167335748672485,0
63,100,0.9,619,1,39,DL_Nostalgic_Guitar,6,14,nostalgic_ninjyou,0.999541163444519,1
63,100,0.37727272727272726,823,0,39,DL_Nostalgic_Guitar,6,6,nostalgic_ninjyou,0.5700886845588684,0
63,100,3.4,43,1,40,DL_Nostalgic_Guitar,6,15,nostalgic_ninjyou,0.9997273087501526,1
65,100,0.17727272727272728,801,1,40,DL_Nostalgic_Guitar,6,3,nostalgic_ninjyou,0.53267502784729,0
63,100,1.1227272727272728,839,0,40,DL_Nostalgic_Guitar,6,15,nostalgic_ninjyou,0.42511284351348877,0
63,100,0.2772727272727273,383,1,41,DL_Nostalgic_Guitar,6,4,nostalgic_ninjyou,0.9998353719711304,1
63,100,0.12272727272727273,488,0,41,DL_Nostalgic_Guitar,6,2,nostalgic_ninjyou,0.349041610956192,0
63,100,0.5772727272727273,668,0,41,DL_Nostalgic_Guitar,6,9,nostalgic_ninjyou,0.2823184132575989,0
63,100,1.040909090909091,848,0,41,DL_Nostalgic_Guitar,6,15,nostalgic_ninjyou,0.315788596868515,0
58,100,1.1181818181818182,198,1,42,DL_Nostalgic_Guitar,6,15,nostalgic_ninjyou,0.9997512698173523,1
56,100,1.559090909090909,448,1,42,DL_Nostalgic_Guitar,6,15,nostalgic_ninjyou,0.42632684111595154,0
56,100,1.2363636363636363,810,1,42,DL_Nostalgic_Guitar,6,15,nostalgic_ninjyou,0.4627200961112976,0
58,100,2.922727272727273,201,1,43,DL_Nostalgic_Guitar,6,15,nostalgic_ninjyou,0.9993820190429688,1
56,100,0.759090909090909,848,1,43,DL_Nostalgic_Guitar,6,12,nostalgic_ninjyou,0.5967921018600464,0
53,100,0.35909090909090907,141,1,44,DL_Nostalgic_Guitar,6,6,nostalgic_ninjyou,0.9998267292976379,1
56,100,0.5409090909090909,220,0,44,DL_Nostalgic_Guitar,6,9,nostalgic_ninjyou,0.20580728352069855,0
53,100,0.22272727272727272,356,0,44,DL_Nostalgic_Guitar,6,4,nostalgic_ninjyou,0.21025294065475464,0
56,100,0.7818181818181819,431,0,44,DL_Nostalgic_Guitar,6,13,nostalgic_ninjyou,0.19994615018367767,0
58,100,0.1409090909090909,606,0,44,DL_Nostalgic_Guitar,6,2,nostalgic_ninjyou,0.21532778441905975,0
63,100,0.3,26,1,45,DL_Nostalgic_Guitar,6,5,nostalgic_ninjyou,0.9998329877853394,1
58,100,0.8818181818181818,131,0,45,DL_Nostalgic_Guitar,6,14,nostalgic_ninjyou,0.31246063113212585,0
56,100,0.4590909090909091,383,1,45,DL_Nostalgic_Guitar,6,7,nostalgic_ninjyou,0.33645394444465637,0
56,100,3.3227272727272728,606,0,45,DL_Nostalgic_Guitar,6,15,nostalgic_ninjyou,0.30719342827796936,0
56,100,0.7,783,1,46,DL_Nostalgic_Guitar,6,11,nostalgic_ninjyou,0.9919028878211975,0
53,100,0.3409090909090909,66,1,47,DL_Nostalgic_Guitar,6,5,nostalgic_ninjyou,0.9998394250869751,1
56,100,0.38181818181818183,144,0,47,DL_Nostalgic_Guitar,6,6,nostalgic_ninjyou,0.21082095801830292,0
56,100,1.1409090909090909,289,0,47,DL_Nostalgic_Guitar,6,15,nostalgic_ninjyou,0.18877220153808594,0
58,100,0.9818181818181818,541,1,47,DL_Nostalgic_Guitar,6,15,nostalgic_ninjyou,0.21821270883083344,0
58,100,0.4409090909090909,783,1,47,DL_Nostalgic_Guitar,6,7,nostalgic_ninjyou,0.23246480524539948,0
70,100,0.1590909090909091,83,1,48,DL_Nostalgic_Guitar,6,3,nostalgic_ninjyou,0.9996716976165771,1
58,100,0.17727272727272728,118,0,48,DL_Nostalgic_Guitar,6,3,nostalgic_ninjyou,0.04371224716305733,0
53,100,0.23636363636363636,391,1,48,DL_Nostalgic_Guitar,6,4,nostalgic_ninjyou,0.03604549169540405,0
53,100,0.4590909090909091,448,0,48,DL_Nostalgic_Guitar,6,7,nostalgic_ninjyou,0.030887601897120476,0
56,100,0.3181818181818182,550,0,48,DL_Nostalgic_Guitar,6,5,nostalgic_ninjyou,0.03298424556851387,0
53,100,0.2590909090909091,628,0,48,DL_Nostalgic_Guitar,6,4,nostalgic_ninjyou,0.03608976677060127,0
56,100,0.5409090909090909,703,0,48,DL_Nostalgic_Guitar,6,9,nostalgic_ninjyou,0.04173320531845093,0
56,100,0.1590909090909091,826,0,48,DL_Nostalgic_Guitar,6,3,nostalgic_ninjyou,0.05338325351476669,0
58,100,0.35909090909090907,871,0,48,DL_Nostalgic_Guitar,6,6,nostalgic_ninjyou,0.04610341042280197,0
56,100,0.2,351,1,49,DL_Nostalgic_Guitar,6,3,nostalgic_ninjyou,0.9996198415756226,1
61,100,0.5,756,1,49,DL_Nostalgic_Guitar,6,8,nostalgic_ninjyou,0.5497962236404419,0
56,100,0.9818181818181818,166,1,50,DL_Nostalgic_Guitar,6,15,nostalgic_ninjyou,0.9998055100440979,1
58,100,0.1590909090909091,405,1,50,DL_Nostalgic_Guitar,6,3,nostalgic_ninjyou,0.2439974844455719,0
70,100,0.11818181818181818,440,0,50,DL_Nostalgic_Guitar,6,2,nostalgic_ninjyou,0.20670461654663086,0
58,100,0.3,729,1,50,DL_Nostalgic_Guitar,6,5,nostalgic_ninjyou,0.21602863073349,0
70,100,0.1590909090909091,813,0,50,DL_Nostalgic_Guitar,6,3,nostalgic_ninjyou,0.21944472193717957,0
58,100,0.38181818181818183,4,1,51,DL_Nostalgic_Guitar,6,6,nostalgic_ninjyou,0.9998181462287903,1
63,100,0.12272727272727273,136,0,51,DL_Nostalgic_Guitar,6,2,nostalgic_ninjyou,0.35750433802604675,0
56,100,1.059090909090909,405,1,51,DL_Nostalgic_Guitar,6,15,nostalgic_ninjyou,0.286865234375,0
61,100,0.4409090909090909,703,1,51,DL_Nostalgic_Guitar,6,7,nostalgic_ninjyou,0.3344951570034027,0
60,100,1.1,8,1,52,DL_Nostalgic_Guitar,6,15,nostalgic_ninjyou,0.9997866749763489,1
63,100,0.1409090909090909,263,1,52,DL_Nostalgic_Guitar,6,2,nostalgic_ninjyou,0.4547540545463562,0
63,100,1.0772727272727274,413,0,52,DL_Nostalgic_Guitar,6,15,nostalgic_ninjyou,0.42097052931785583,0
56,100,0.3409090909090909,91,1,53,DL_Nostalgic_Guitar,6,5,nostalgic_ninjyou,0.9998267292976379,1
56,100,0.38181818181818183,179,0,53,DL_Nostalgic_Guitar,6,6,nostalgic_ninjyou,0.210782989859581,0
63,100,1.059090909090909,263,0,53,DL_Nostalgic_Guitar,6,15,nostalgic_ninjyou,0.1876073032617569,0
58,100,0.7818181818181819,638,1,53,DL_Nostalgic_Guitar,6,13,nostalgic_ninjyou,0.22249609231948853,0
63,100,0.2636363636363636,818,0,53,DL_Nostalgic_Guitar,6,4,nostalgic_ninjyou,0.2363104224205017,0
63,100,0.11818181818181818,61,1,54,DL_Nostalgic_Guitar,6,2,nostalgic_ninjyou,0.9998266100883484,1
56,100,0.2590909090909091,338,1,54,DL_Nostalgic_Guitar,6,4,nostalgic_ninjyou,0.420948326587677,0
63,100,0.740909090909091,563,0,54,DL_Nostalgic_Guitar,6,12,nostalgic_ninjyou,0.4101015627384186,0
55,100,0.13636363636363635,150,1,55,DL_Nostalgic_Guitar,6,2,nostalgic_ninjyou,0.9998264908790588,1
63,100,0.1,703,1,55,DL_Nostalgic_Guitar,6,2,nostalgic_ninjyou,0.4137478172779083,0
56,100,0.36363636363636365,751,0,55,DL_Nostalgic_Guitar,6,6,nostalgic_ninjyou,0.4273972511291504,0
56,100,0.9590909090909091,31,1,56,DL_Nostalgic_Guitar,6,15,nostalgic_ninjyou,0.9997672438621521,1
56,100,0.12272727272727273,268,1,56,DL_Nostalgic_Guitar,6,2,nostalgic_ninjyou,0.1483812928199768,0
56,100,0.7,338,0,56,DL_Nostalgic_Guitar,6,11,nostalgic_ninjyou,0.11952057480812073,0
56,100,0.8590909090909091,501,0,56,DL_Nostalgic_Guitar,6,14,nostalgic_ninjyou,0.13616304099559784,0
56,100,0.12272727272727273,694,0,56,DL_Nostalgic_Guitar,6,2,nostalgic_ninjyou,0.16353510320186615,0
56,100,0.2590909090909091,761,0,56,DL_Nostalgic_Guitar,6,4,nostalgic_ninjyou,0.1392969936132431,0
56,100,1.4,26,1,57,DL_Nostalgic_Guitar,6,15,nostalgic_ninjyou,0.9994716048240662,1
56,100,0.8409090909090909,338,1,57,DL_Nostalgic_Guitar,6,13,nostalgic_ninjyou,0.5799129009246826,0
58,100,0.2590909090909091,118,1,58,DL_Nostalgic_Guitar,6,4,nostalgic_ninjyou,0.9998237490653992,1
58,100,0.7636363636363637,179,0,58,DL_Nostalgic_Guitar,6,12,nostalgic_ninjyou,0.31861379742622375,0
58,100,0.1590909090909091,448,1,58,DL_Nostalgic_Guitar,6,3,nostalgic_ninjyou,0.3262673020362854,0
56,100,0.9,681,1,58,DL_Nostalgic_Guitar,6,14,nostalgic_ninjyou,0.32504260540008545,0
56,100,0.9409090909090909,26,1,59,DL_Nostalgic_Guitar,6,15,nostalgic_ninjyou,0.9997662901878357,1
58,100,0.2409090909090909,298,1,59,DL_Nostalgic_Guitar,6,4,nostalgic_ninjyou,0.14809399843215942,0
58,100,0.2409090909090909,378,0,59,DL_Nostalgic_Guitar,6,4,nostalgic_ninjyou,0.13345910608768463,0
55,100,0.21818181818181817,448,0,59,DL_Nostalgic_Guitar,6,3,nostalgic_ninjyou,0.15172161161899567,0
58,100,1.4,518,0,59,DL_Nostalgic_Guitar,6,15,nostalgic_ninjyou,0.13563072681427002,0
58,100,0.2,853,1,59,DL_Nostalgic_Guitar,6,3,nostalgic_ninjyou,0.16307206451892853,0
60,100,0.7227272727272728,48,1,60,DL_Nostalgic_Guitar,6,12,nostalgic_ninjyou,0.9997968077659607,1
56,100,0.5590909090909091,241,0,60,DL_Nostalgic_Guitar,6,9,nostalgic_ninjyou,0.13078159093856812,0
60,100,0.11818181818181818,405,0,60,DL_Nostalgic_Guitar,6,2,nostalgic_ninjyou,0.13367506861686707,0
56,100,0.23636363636363636,545,0,60,DL_Nostalgic_Guitar,6,4,nostalgic_ninjyou,0.13124904036521912,0
56,100,0.3181818181818182,616,0,60,DL_Nostalgic_Guitar,6,5,nostalgic_ninjyou,0.14246512949466705,0
56,100,0.6,848,1,60,DL_Nostalgic_Guitar,6,10,nostalgic_ninjyou,0.13214294612407684,0
56,100,0.6818181818181818,289,1,61,DL_Nostalgic_Guitar,6,11,nostalgic_ninjyou,0.9998059868812561,1
56,100,0.12272727272727273,453,0,61,DL_Nostalgic_Guitar,6,2,nostalgic_ninjyou,0.4451481103897095,0
56,100,0.3,700,1,61,DL_Nostalgic_Guitar,6,5,nostalgic_ninjyou,0.42672139406204224,0
56,100,0.1,43,1,62,DL_Nostalgic_Guitar,6,2,nostalgic_ninjyou,0.9998425245285034,1
56,100,0.5818181818181818,91,0,62,DL_Nostalgic_Guitar,6,9,nostalgic_ninjyou,0.2006009817123413,0
58,100,0.2,228,0,62,DL_Nostalgic_Guitar,6,3,nostalgic_ninjyou,0.21148060262203217,0
58,100,0.1,483,1,62,DL_Nostalgic_Guitar,6,2,nostalgic_ninjyou,0.22629651427268982,0
58,100,1.559090909090909,518,0,62,DL_Nostalgic_Guitar,6,15,nostalgic_ninjyou,0.1963185966014862,0
63,100,0.35909090909090907,677,1,64,DL_Nostalgic_Guitar,6,6,nostalgic_ninjyou,0.9928622841835022,1
60,100,0.2,188,1,45,DL_Guitar,6,3,synjyu_upbeat_poprock,0.9996503591537476,1
71,100,0.2,584,1,45,DL_Guitar,6,3,synjyu_upbeat_poprock,0.5454694628715515,0
52,100,0.1409090909090909,136,1,46,DL_Guitar,6,2,synjyu_upbeat_poprock,0.9998170733451843,1
52,100,0.1590909090909091,185,0,46,DL_Guitar,6,3,synjyu_upbeat_poprock,0.13020634651184082,0
52,100,0.16363636363636364,311,0,46,DL_Guitar,6,3,synjyu_upbeat_poprock,0.12041356414556503,0
52,100,0.2409090909090909,373,0,46,DL_Guitar,6,4,synjyu_upbeat_poprock,0.13388600945472717,0
52,100,0.2818181818181818,681,1,46,DL_Guitar,6,5,synjyu_upbeat_poprock,0.14280584454536438,0
52,100,1.1590909090909092,756,0,46,DL_Guitar,6,15,synjyu_upbeat_poprock,0.11814229935407639,0
52,100,0.38181818181818183,136,1,47,DL_Guitar,6,6,synjyu_upbeat_poprock,0.999829888343811,1
69,100,0.2772727272727273,536,1,47,DL_Guitar,6,4,synjyu_upbeat_poprock,0.39995768666267395,0
52,100,0.21818181818181817,845,1,47,DL_Guitar,6,3,synjyu_upbeat_poprock,0.43625012040138245,0
52,100,0.4590909090909091,18,1,48,DL_Guitar,6,7,synjyu_upbeat_poprock,0.9998496770858765,1
52,100,0.1409090909090909,136,0,48,DL_Guitar,6,2,synjyu_upbeat_poprock,0.32845863699913025,0
52,100,0.6409090909090909,188,0,48,DL_Guitar,6,10,synjyu_upbeat_poprock,0.2779832184314728,0
52,100,0.1409090909090909,338,0,48,DL_Guitar,6,2,synjyu_upbeat_poprock,0.3165568709373474,0
71,100,0.3,228,1,49,DL_Guitar,6,5,synjyu_upbeat_poprock,0.9930493831634521,0
55,100,0.2590909090909091,75,1,50,DL_Guitar,6,4,synjyu_upbeat_poprock,0.9998239874839783,1
71,100,0.16363636363636364,421,1,50,DL_Guitar,6,3,synjyu_upbeat_poprock,0.4276733696460724,0
52,100,0.18181818181818182,796,1,50,DL_Guitar,6,3,synjyu_upbeat_poprock,0.4321206510066986,0
52,100,0.11818181818181818,96,1,51,DL_Guitar,6,2,synjyu_upbeat_poprock,0.9998490810394287,1
52,100,0.37727272727272726,171,0,51,DL_Guitar,6,6,synjyu_upbeat_poprock,0.20133128762245178,0
60,100,0.16363636363636364,268,0,51,DL_Guitar,6,3,synjyu_upbeat_poprock,0.20215626060962677,0
52,100,0.1,545,1,51,DL_Guitar,6,2,synjyu_upbeat_poprock,0.2102196365594864,0
52,100,1.2181818181818183,590,0,51,DL_Guitar,6,15,synjyu_upbeat_poprock,0.18658298254013062,0
69,100,0.2,171,1,52,DL_Guitar,6,3,synjyu_upbeat_poprock,0.9997989535331726,1
69,100,0.22272727272727272,224,0,52,DL_Guitar,6,4,synjyu_upbeat_poprock,0.1322534680366516,0
69,100,0.1590909090909091,361,0,52,DL_Guitar,6,3,synjyu_upbeat_poprock,0.12024783343076706,0
52,100,0.5227272727272727,641,1,52,DL_Guitar,6,8,synjyu_upbeat_poprock,0.13726507127285004,0
64,100,0.11818181818181818,791,0,52,DL_Guitar,6,2,synjyu_upbeat_poprock,0.14796438813209534,0
52,100,0.8227272727272728,839,0,52,DL_Guitar,6,13,synjyu_upbeat_poprock,0.12341547012329102,0
71,100,0.1590909090909091,56,1,54,DL_Guitar,6,3,synjyu_upbeat_poprock,0.9933558702468872,0
64,100,0.1409090909090909,598,1,60,DL_Guitar,6,2,synjyu_upbeat_poprock,0.993720531463623,0
62,100,0.2,246,1,61,DL_Guitar,6,3,synjyu_upbeat_poprock,0.9996483325958252,1
52,100,0.1590909090909091,845,1,61,DL_Guitar,6,3,synjyu_upbeat_poprock,0.5489448308944702,0
52,100,0.12272727272727273,158,1,62,DL_Guitar,6,2,synjyu_upbeat_poprock,0.999848484992981,1
52,100,0.1409090909090909,418,1,62,DL_Guitar,6,2,synjyu_upbeat_poprock,0.2057880163192749,0
52,100,0.35909090909090907,536,0,62,DL_Guitar,6,6,synjyu_upbeat_poprock,0.18806934356689453,0
52,100,0.2818181818181818,729,0,62,DL_Guitar,6,5,synjyu_upbeat_poprock,0.20685411989688873,0
53,100,0.1409090909090909,804,0,62,DL_Guitar,6,2,synjyu_upbeat_poprock,0.19513237476348877,0
60,100,0.2,8,1,63,DL_Guitar,6,3,synjyu_upbeat_poprock,0.9998583793640137,1
60,100,0.2409090909090909,56,0,63,DL_Guitar,6,4,synjyu_upbeat_poprock,0.31703686714172363,0
53,100,0.22272727272727272,136,0,63,DL_Guitar,6,4,synjyu_upbeat_poprock,0.28348198533058167,0
52,100,0.5409090909090909,466,1,63,DL_Guitar,6,9,synjyu_upbeat_poprock,0.3070219159126282,0
52,100,0.18181818181818182,13,1,64,DL_Guitar,6,3,synjyu_upbeat_poprock,0.9998594522476196,1
62,100,0.2,229,0,64,DL_Guitar,6,3,synjyu_upbeat_poprock,0.31240206956863403,0
62,100,0.5772727272727273,559,1,64,DL_Guitar,6,9,synjyu_upbeat_poprock,0.2778643071651459,0
62,100,0.1409090909090909,792,1,64,DL_Guitar,6,2,synjyu_upbeat_poprock,0.31890639662742615,0
62,100,0.11818181818181818,106,1,65,DL_Guitar,6,2,synjyu_upbeat_poprock,0.9996445178985596,1
55,100,0.35909090909090907,413,1,65,DL_Guitar,6,6,synjyu_upbeat_poprock,0.537326455116272,0
62,100,0.8409090909090909,462,1,66,DL_Guitar,6,13,synjyu_upbeat_poprock,0.9995651841163635,1
62,100,0.9409090909090909,713,1,66,DL_Guitar,6,15,synjyu_upbeat_poprock,0.555075466632843,0
52,100,0.3,106,1,67,DL_Guitar,6,5,synjyu_upbeat_poprock,0.9998421669006348,1
60,100,0.1590909090909091,250,0,67,DL_Guitar,6,3,synjyu_upbeat_poprock,0.20791175961494446,0
52,100,0.4818181818181818,320,0,67,DL_Guitar,6,8,synjyu_upbeat_poprock,0.18740960955619812,0
65,100,0.2,700,1,67,DL_Guitar,6,3,synjyu_upbeat_poprock,0.20557980239391327,0
53,100,0.36363636363636365,817,0,67,DL_Guitar,6,6,synjyu_upbeat_poprock,0.19949305057525635,0
53,100,0.4590909090909091,22,1,68,DL_Guitar,6,7,synjyu_upbeat_poprock,0.9996696710586548,1
53,100,0.13636363636363635,216,0,68,DL_Guitar,6,2,synjyu_upbeat_poprock,0.03778635337948799,0
52,100,0.2772727272727273,282,0,68,DL_Guitar,6,4,synjyu_upbeat_poprock,0.025508463382720947,0
52,100,0.2,417,0,68,DL_Guitar,6,3,synjyu_upbeat_poprock,0.021390076726675034,0
52,100,0.37727272727272726,493,0,68,DL_Guitar,6,6,synjyu_upbeat_poprock,0.01875610649585724,0
52,100,0.1,580,0,68,DL_Guitar,6,2,synjyu_upbeat_poprock,0.01960679516196251,0
52,100,0.1,606,0,68,DL_Guitar,6,2,synjyu_upbeat_poprock,0.022803641855716705,0
52,100,0.13636363636363635,633,0,68,DL_Guitar,6,2,synjyu_upbeat_poprock,0.028748707845807076,0
62,100,0.12272727272727273,817,0,68,DL_Guitar,6,2,synjyu_upbeat_poprock,0.036536429077386856,0
62,100,0.3409090909090909,849,0,68,DL_Guitar,6,5,synjyu_upbeat_poprock,0.03704778105020523,0
62,100,0.36363636363636365,69,1,69,DL_Guitar,6,6,synjyu_upbeat_poprock,0.9997238516807556,1
62,100,0.11818181818181818,172,0,69,DL_Guitar,6,2,synjyu_upbeat_poprock,0.05860818922519684,0
62,100,0.2636363636363636,202,0,69,DL_Guitar,6,4,synjyu_upbeat_poprock,0.04597403109073639,0
62,100,0.1409090909090909,383,0,69,DL_Guitar,6,2,synjyu_upbeat_poprock,0.04781101271510124,0
52,100,0.2818181818181818,593,0,69,DL_Guitar,6,5,synjyu_upbeat_poprock,0.052080005407333374,0
52,100,0.1590909090909091,673,0,69,DL_Guitar,6,3,synjyu_upbeat_poprock,0.06173188239336014,0
52,100,0.5363636363636364,722,0,69,DL_Guitar,6,9,synjyu_upbeat_poprock,0.0648619681596756,0
60,100,0.1409090909090909,870,0,69,DL_Guitar,6,2,synjyu_upbeat_poprock,0.060849111527204514,0
53,100,0.38181818181818183,307,1,70,DL_Guitar,6,6,synjyu_upbeat_poprock,0.99979168176651,1
53,100,0.3,396,0,70,DL_Guitar,6,5,synjyu_upbeat_poprock,0.1327187865972519,0
60,100,0.2818181818181818,506,0,70,DL_Guitar,6,5,synjyu_upbeat_poprock,0.1257028877735138,0
52,100,0.5636363636363636,642,0,70,DL_Guitar,6,9,synjyu_upbeat_poprock,0.13539449870586395,0
52,100,0.18181818181818182,770,0,70,DL_Guitar,6,3,synjyu_upbeat_poprock,0.14860643446445465,0
52,100,0.8,839,0,70,DL_Guitar,6,13,synjyu_upbeat_poprock,0.12369254976511002,0
62,100,0.1,417,1,71,DL_Guitar,6,2,synjyu_upbeat_poprock,0.999858021736145,1
62,100,0.21818181818181817,493,0,71,DL_Guitar,6,3,synjyu_upbeat_poprock,0.31762659549713135,0
62,100,0.6409090909090909,650,0,71,DL_Guitar,6,10,synjyu_upbeat_poprock,0.2801324129104614,0
62,100,0.1590909090909091,823,0,71,DL_Guitar,6,3,synjyu_upbeat_poprock,0.32222670316696167,0
52,100,0.2,399,1,72,DL_Guitar,6,3,synjyu_upbeat_poprock,0.9998443126678467,1
53,100,0.33636363636363636,457,0,72,DL_Guitar,6,5,synjyu_upbeat_poprock,0.19740743935108185,0
53,100,0.16363636363636364,576,0,72,DL_Guitar,6,3,synjyu_upbeat_poprock,0.19289612770080566,0
53,100,0.1590909090909091,660,0,72,DL_Guitar,6,3,synjyu_upbeat_poprock,0.20381587743759155,0
60,100,0.1,734,0,72,DL_Guitar,6,2,synjyu_upbeat_poprock,0.2009744942188263,0
53,100,0.2,30,1,73,DL_Guitar,6,3,synjyu_upbeat_poprock,0.9998517036437988,1
55,100,0.6181818181818182,413,1,73,DL_Guitar,6,10,synjyu_upbeat_poprock,0.2940126359462738,0
55,100,0.35909090909090907,590,0,73,DL_Guitar,6,6,synjyu_upbeat_poprock,0.3077526390552521,0
55,100,0.5,722,0,73,DL_Guitar,6,8,synjyu_upbeat_poprock,0.3120027780532837,0
53,100,0.42272727272727273,796,1,74,DL_Guitar,6,7,synjyu_upbeat_poprock,0.993157684803009,0
53,100,0.4590909090909091,62,1,75,DL_Guitar,6,7,synjyu_upbeat_poprock,0.9998329877853394,1
60,100,0.17727272727272728,250,0,75,DL_Guitar,6,3,synjyu_upbeat_poprock,0.21614286303520203,0
53,100,0.1,303,0,75,DL_Guitar,6,2,synjyu_upbeat_poprock,0.1909932941198349,0
53,100,0.12272727272727273,356,0,75,DL_Guitar,6,2,synjyu_upbeat_poprock,0.2075510174036026,0
53,100,0.1590909090909091,417,0,75,DL_Guitar,6,3,synjyu_upbeat_poprock,0.20048788189888,0
52,100,0.2818181818181818,92,1,76,DL_Guitar,6,5,synjyu_upbeat_poprock,0.9997379183769226,1
52,100,0.1,263,0,76,DL_Guitar,6,2,synjyu_upbeat_poprock,0.05611628666520119,0
52,100,0.2,352,0,76,DL_Guitar,6,3,synjyu_upbeat_poprock,0.04627465084195137,0
52,100,0.2636363636363636,399,0,76,DL_Guitar,6,4,synjyu_upbeat_poprock,0.045676566660404205,0
52,100,0.17727272727272728,480,0,76,DL_Guitar,6,3,synjyu_upbeat_poprock,0.05106213688850403,0
52,100,0.1409090909090909,563,0,76,DL_Guitar,6,2,synjyu_upbeat_poprock,0.054852236062288284,0
52,100,0.2,624,0,76,DL_Guitar,6,3,synjyu_upbeat_poprock,0.06348205357789993,0
53,100,0.12272727272727273,729,0,76,DL_Guitar,6,2,synjyu_upbeat_poprock,0.05900996923446655,0
52,100,0.2,157,1,77,DL_Guitar,6,3,synjyu_upbeat_poprock,0.9997743964195251,1
53,100,0.35909090909090907,263,0,77,DL_Guitar,6,6,synjyu_upbeat_poprock,0.07451988756656647,0
53,100,0.1590909090909091,417,0,77,DL_Guitar,6,3,synjyu_upbeat_poprock,0.07306467741727829,0
53,100,0.11818181818181818,457,0,77,DL_Guitar,6,2,synjyu_upbeat_poprock,0.07794088870286942,0
53,100,0.6,523,0,77,DL_Guitar,6,10,synjyu_upbeat_poprock,0.08179881423711777,0
53,100,0.16363636363636364,663,0,77,DL_Guitar,6,3,synjyu_upbeat_poprock,0.09988875687122345,0
60,100,0.11818181818181818,713,0,77,DL_Guitar,6,2,synjyu_upbeat_poprock,0.0876043289899826,0
53,100,0.12272727272727273,35,1,78,DL_Guitar,6,2,synjyu_upbeat_poprock,0.9998619556427002,1
64,100,0.13636363636363635,260,0,78,DL_Guitar,6,2,synjyu_upbeat_poprock,0.3170411288738251,0
52,100,0.1409090909090909,316,0,78,DL_Guitar,6,2,synjyu_upbeat_poprock,0.2945188879966736,0
57,100,0.42272727272727273,466,0,78,DL_Guitar,6,7,synjyu_upbeat_poprock,0.293429434299469,0
52,100,0.7181818181818181,810,1,80,DL_Guitar,6,11,synjyu_upbeat_poprock,0.9927942156791687,0
52,100,0.1409090909090909,189,1,81,DL_Guitar,6,2,synjyu_upbeat_poprock,0.999813973903656,1
52,100,0.7181818181818181,263,0,81,DL_Guitar,6,11,synjyu_upbeat_poprock,0.11738916486501694,0
52,100,0.6363636363636364,436,0,81,DL_Guitar,6,10,synjyu_upbeat_poprock,0.12329079210758209,0
52,100,0.6,656,0,81,DL_Guitar,6,10,synjyu_upbeat_poprock,0.13929927349090576,0
52,100,0.1,800,0,81,DL_Guitar,6,2,synjyu_upbeat_poprock,0.15072084963321686,0
52,100,0.5,849,0,81,DL_Guitar,6,8,synjyu_upbeat_poprock,0.12627822160720825,0
53,100,0.35909090909090907,140,1,82,DL_Guitar,6,6,synjyu_upbeat_poprock,0.9998007416725159,1
53,100,0.1590909090909091,326,0,82,DL_Guitar,6,3,synjyu_upbeat_poprock,0.13077078759670258,0
53,100,0.3181818181818182,383,0,82,DL_Guitar,6,5,synjyu_upbeat_poprock,0.1194121241569519,0
53,100,0.2409090909090909,527,0,82,DL_Guitar,6,4,synjyu_upbeat_poprock,0.13933280110359192,0
52,100,0.9,629,0,82,DL_Guitar,6,14,synjyu_upbeat_poprock,0.14401085674762726,0
52,100,0.7636363636363637,839,0,82,DL_Guitar,6,12,synjyu_upbeat_poprock,0.13812997937202454,0
52,100,0.4772727272727273,150,1,83,DL_Guitar,6,8,synjyu_upbeat_poprock,0.9931201934814453,0
52,100,0.7636363636363637,466,1,84,DL_Guitar,6,12,synjyu_upbeat_poprock,0.9998273253440857,1
52,100,0.4590909090909091,682,0,84,DL_Guitar,6,7,synjyu_upbeat_poprock,0.42044028639793396,0
52,100,0.6181818181818182,810,0,84,DL_Guitar,6,10,synjyu_upbeat_poprock,0.4186881482601166,0
52,100,0.2590909090909091,229,1,85,DL_Guitar,6,4,synjyu_upbeat_poprock,0.9998354911804199,1
52,100,0.8,316,0,85,DL_Guitar,6,13,synjyu_upbeat_poprock,0.3894234597682953,0
52,100,0.1409090909090909,514,0,85,DL_Guitar,6,2,synjyu_upbeat_poprock,0.4403887689113617,0
55,100,0.1409090909090909,417,1,86,DL_Guitar,6,2,synjyu_upbeat_poprock,0.9930658340454102,0
65,100,0.3409090909090909,286,1,89,DL_Guitar,6,5,synjyu_upbeat_poprock,0.9932230710983276,0
55,100,0.6818181818181818,572,1,93,DL_Guitar,6,11,synjyu_upbeat_poprock,0.9995619654655457,1
55,100,0.18181818181818182,849,1,93,DL_Guitar,6,3,synjyu_upbeat_poprock,0.5607455968856812,0
78,100,0.17727272727272728,250,1,94,DL_Guitar,6,3,synjyu_upbeat_poprock,0.9998561143875122,1
53,100,0.21818181818181817,360,0,94,DL_Guitar,6,3,synjyu_upbeat_poprock,0.31358081102371216,0
53,100,0.1590909090909091,493,0,94,DL_Guitar,6,3,synjyu_upbeat_poprock,0.29386502504348755,0
61,100,0.2,779,1,94,DL_Guitar,6,3,synjyu_upbeat_poprock,0.30043232440948486,0
53,100,0.12272727272727273,3,1,96,DL_Guitar,6,2,synjyu_upbeat_poprock,0.9998121857643127,1
53,100,0.1590909090909091,140,0,96,DL_Guitar,6,3,synjyu_upbeat_poprock,0.12357979267835617,0
53,100,0.1409090909090909,320,0,96,DL_Guitar,6,2,synjyu_upbeat_poprock,0.11889467388391495,0
53,100,0.2,373,0,96,DL_Guitar,6,3,synjyu_upbeat_poprock,0.1318490207195282,0
56,100,0.1,619,1,96,DL_Guitar,6,2,synjyu_upbeat_poprock,0.1407122015953064,0
61,100,0.1590909090909091,866,1,96,DL_Guitar,6,3,synjyu_upbeat_poprock,0.12712940573692322,0
61,100,0.16363636363636364,47,1,97,DL_Guitar,6,3,synjyu_upbeat_poprock,0.9998505115509033,1
54,100,0.17727272727272728,163,0,97,DL_Guitar,6,3,synjyu_upbeat_poprock,0.3231630027294159,0
54,100,0.3,242,0,97,DL_Guitar,6,5,synjyu_upbeat_poprock,0.28512921929359436,0
53,100,0.1,330,0,97,DL_Guitar,6,2,synjyu_upbeat_poprock,0.3160122036933899,0
61,100,0.12272727272727273,92,1,98,DL_Guitar,6,2,synjyu_upbeat_poprock,0.999852180480957,1
61,100,0.32272727272727275,202,0,98,DL_Guitar,6,5,synjyu_upbeat_poprock,0.3079998791217804,0
61,100,0.13636363636363635,303,0,98,DL_Guitar,6,2,synjyu_upbeat_poprock,0.29607611894607544,0
61,100,0.2,440,0,98,DL_Guitar,6,3,synjyu_upbeat_poprock,0.310207337141037,0
53,100,0.17727272727272728,370,1,100,DL_Guitar,6,3,synjyu_upbeat_poprock,0.9998425245285034,1
53,100,0.1,502,0,100,DL_Guitar,6,2,synjyu_upbeat_poprock,0.20553436875343323,0
53,100,0.1409090909090909,637,0,100,DL_Guitar,6,2,synjyu_upbeat_poprock,0.19462940096855164,0
53,100,0.21818181818181817,779,0,100,DL_Guitar,6,3,synjyu_upbeat_poprock,0.2006223499774933,0
53,100,0.2590909090909091,870,0,100,DL_Guitar,6,4,synjyu_upbeat_poprock,0.19908902049064636,0
53,100,0.11818181818181818,150,1,101,DL_Guitar,6,2,synjyu_upbeat_poprock,0.9998576641082764,1
53,100,0.1,307,0,101,DL_Guitar,6,2,synjyu_upbeat_poprock,0.3062397837638855,0
53,100,0.2818181818181818,409,0,101,DL_Guitar,6,5,synjyu_upbeat_poprock,0.28979381918907166,0
54,100,0.1,734,1,101,DL_Guitar,6,2,synjyu_upbeat_poprock,0.30707260966300964,0
54,100,0.1590909090909091,9,1,102,DL_Guitar,6,3,synjyu_upbeat_poprock,0.9998308420181274,1
53,100,0.1409090909090909,43,0,102,DL_Guitar,6,2,synjyu_upbeat_poprock,0.4137119948863983,0
53,100,0.17727272727272728,633,1,102,DL_Guitar,6,3,synjyu_upbeat_poprock,0.42296066880226135,0
52,100,0.7227272727272728,48,1,0,_tunecore_Remastered_Guitar,6,12,ninjyouuranagaya,0.9998249411582947,1
59,100,0.2,370,1,0,_tunecore_Remastered_Guitar,6,3,ninjyouuranagaya,0.2167423963546753,0
59,100,0.1,559,0,0,_tunecore_Remastered_Guitar,6,2,ninjyouuranagaya,0.19803793728351593,0
59,100,0.2,713,0,0,_tunecore_Remastered_Guitar,6,3,ninjyouuranagaya,0.21318212151527405,0
61,100,0.4,801,0,0,_tunecore_Remastered_Guitar,6,6,ninjyouuranagaya,0.20337072014808655,0
64,100,0.6181818181818182,18,1,1,_tunecore_Remastered_Guitar,6,10,ninjyouuranagaya,0.999688982963562,1
61,100,0.1590909090909091,241,0,1,_tunecore_Remastered_Guitar,6,3,ninjyouuranagaya,0.044588394463062286,0
66,100,0.2409090909090909,299,0,1,_tunecore_Remastered_Guitar,6,4,ninjyouuranagaya,0.032850269228219986,0
68,100,0.3181818181818182,369,0,1,_tunecore_Remastered_Guitar,6,5,ninjyouuranagaya,0.03049090877175331,0
66,100,0.4818181818181818,475,0,1,_tunecore_Remastered_Guitar,6,8,ninjyouuranagaya,0.030221519991755486,0
66,100,0.1590909090909091,669,0,1,_tunecore_Remastered_Guitar,6,3,ninjyouuranagaya,0.03474799171090126,0
59,100,0.1590909090909091,744,0,1,_tunecore_Remastered_Guitar,6,3,ninjyouuranagaya,0.042084675282239914,0
61,100,0.3181818181818182,791,0,1,_tunecore_Remastered_Guitar,6,5,ninjyouuranagaya,0.04659559205174446,0
59,100,0.759090909090909,871,0,1,_tunecore_Remastered_Guitar,6,12,ninjyouuranagaya,0.04584489017724991,0
59,100,0.6772727272727272,193,1,2,_tunecore_Remastered_Guitar,6,11,ninjyouuranagaya,0.9997405409812927,1
64,100,0.21818181818181817,348,0,2,_tunecore_Remastered_Guitar,6,3,ninjyouuranagaya,0.0896710604429245,0
59,100,0.2409090909090909,427,0,2,_tunecore_Remastered_Guitar,6,4,ninjyouuranagaya,0.07181236892938614,0
64,100,0.2409090909090909,488,0,2,_tunecore_Remastered_Guitar,6,4,ninjyouuranagaya,0.08536788076162338,0
52,100,0.6409090909090909,541,0,2,_tunecore_Remastered_Guitar,6,10,ninjyouuranagaya,0.08306246995925903,0
64,100,0.1,779,1,2,_tunecore_Remastered_Guitar,6,2,ninjyouuranagaya,0.10436417907476425,0
64,100,0.1,849,0,2,_tunecore_Remastered_Guitar,6,2,ninjyouuranagaya,0.08574583381414413,0
59,100,0.2,34,1,3,_tunecore_Remastered_Guitar,6,3,ninjyouuranagaya,0.9996639490127563,1
61,100,0.2818181818181818,100,0,3,_tunecore_Remastered_Guitar,6,5,ninjyouuranagaya,0.032168660312891006,0
64,100,0.3181818181818182,176,0,3,_tunecore_Remastered_Guitar,6,5,ninjyouuranagaya,0.02186756581068039,0
61,100,0.35909090909090907,369,0,3,_tunecore_Remastered_Guitar,6,6,ninjyouuranagaya,0.01646987348794937,0
64,100,0.2,458,0,3,_tunecore_Remastered_Guitar,6,3,ninjyouuranagaya,0.014037996530532837,0
68,100,0.17727272727272728,537,0,3,_tunecore_Remastered_Guitar,6,3,ninjyouuranagaya,0.0127240139991045,0
66,100,0.2590909090909091,593,0,3,_tunecore_Remastered_Guitar,6,4,ninjyouuranagaya,0.013318398036062717,0
64,100,0.23636363636363636,656,0,3,_tunecore_Remastered_Guitar,6,4,ninjyouuranagaya,0.01791663095355034,0
61,100,0.2636363636363636,708,0,3,_tunecore_Remastered_Guitar,6,4,ninjyouuranagaya,0.022895056754350662,0
57,100,0.13636363636363635,810,0,3,_tunecore_Remastered_Guitar,6,2,ninjyouuranagaya,0.03225407376885414,0
66,100,0.8181818181818182,853,0,3,_tunecore_Remastered_Guitar,6,13,ninjyouuranagaya,0.03291814774274826,0
66,100,0.7,158,1,4,_tunecore_Remastered_Guitar,6,11,ninjyouuranagaya,0.9997995495796204,1
64,100,1.2636363636363637,334,0,4,_tunecore_Remastered_Guitar,6,15,ninjyouuranagaya,0.406353622674942,0
63,100,0.1409090909090909,836,1,4,_tunecore_Remastered_Guitar,6,2,ninjyouuranagaya,0.45508265495300293,0
64,100,0.12272727272727273,135,1,5,_tunecore_Remastered_Guitar,6,2,ninjyouuranagaya,0.9998359680175781,1
52,100,0.740909090909091,163,0,5,_tunecore_Remastered_Guitar,6,12,ninjyouuranagaya,0.38849085569381714,0
61,100,0.4590909090909091,854,1,5,_tunecore_Remastered_Guitar,6,7,ninjyouuranagaya,0.4315672218799591,0
64,100,0.1409090909090909,74,1,6,_tunecore_Remastered_Guitar,6,2,ninjyouuranagaya,0.9997817873954773,1
64,100,0.42272727272727273,145,0,6,_tunecore_Remastered_Guitar,6,7,ninjyouuranagaya,0.07546736299991608,0
61,100,0.1,550,1,6,_tunecore_Remastered_Guitar,6,2,ninjyouuranagaya,0.07326602935791016,0
61,100,0.1,598,0,6,_tunecore_Remastered_Guitar,6,2,ninjyouuranagaya,0.07769419252872467,0
61,100,0.2,721,0,6,_tunecore_Remastered_Guitar,6,3,ninjyouuranagaya,0.08829911798238754,0
57,100,0.1409090909090909,826,0,6,_tunecore_Remastered_Guitar,6,2,ninjyouuranagaya,0.0908239334821701,0
61,100,0.3409090909090909,871,0,6,_tunecore_Remastered_Guitar,6,5,ninjyouuranagaya,0.08348994702100754,0
63,100,0.4,220,1,7,_tunecore_Remastered_Guitar,6,6,ninjyouuranagaya,0.9998183846473694,1
52,100,0.6363636363636364,634,1,7,_tunecore_Remastered_Guitar,6,10,ninjyouuranagaya,0.4223794639110565,0
52,100,0.22272727272727272,818,0,7,_tunecore_Remastered_Guitar,6,4,ninjyouuranagaya,0.43768277764320374,0
68,100,0.2409090909090909,110,1,8,_tunecore_Remastered_Guitar,6,4,ninjyouuranagaya,0.9998310804367065,1
64,100,0.2590909090909091,462,1,8,_tunecore_Remastered_Guitar,6,4,ninjyouuranagaya,0.423841655254364,0
64,100,0.1590909090909091,558,0,8,_tunecore_Remastered_Guitar,6,3,ninjyouuranagaya,0.4221036732196808,0
61,100,0.1590909090909091,194,1,9,_tunecore_Remastered_Guitar,6,3,ninjyouuranagaya,0.9998600482940674,1
64,100,0.1,369,0,9,_tunecore_Remastered_Guitar,6,2,ninjyouuranagaya,0.32594460248947144,0
59,100,0.11818181818181818,527,0,9,_tunecore_Remastered_Guitar,6,2,ninjyouuranagaya,0.27460768818855286,0
63,100,0.2590909090909091,677,0,9,_tunecore_Remastered_Guitar,6,4,ninjyouuranagaya,0.30506426095962524,0
52,100,0.5818181818181818,245,1,10,_tunecore_Remastered_Guitar,6,9,ninjyouuranagaya,0.9929524064064026,0
61,100,0.5,65,1,11,_tunecore_Remastered_Guitar,6,8,ninjyouuranagaya,0.9998421669006348,1
61,100,0.42272727272727273,343,1,11,_tunecore_Remastered_Guitar,6,7,ninjyouuranagaya,0.3228853642940521,0
61,100,0.36363636363636365,663,1,11,_tunecore_Remastered_Guitar,6,6,ninjyouuranagaya,0.3003607392311096,0
57,100,0.2,849,0,11,_tunecore_Remastered_Guitar,6,3,ninjyouuranagaya,0.30707356333732605,0
57,100,0.1409090909090909,48,1,12,_tunecore_Remastered_Guitar,6,2,ninjyouuranagaya,0.9998366832733154,1
61,100,0.12272727272727273,135,0,12,_tunecore_Remastered_Guitar,6,2,ninjyouuranagaya,0.20868554711341858,0
59,100,0.11818181818181818,307,0,12,_tunecore_Remastered_Guitar,6,2,ninjyouuranagaya,0.19270659983158112,0
63,100,0.2,378,0,12,_tunecore_Remastered_Guitar,6,3,ninjyouuranagaya,0.21093273162841797,0
52,100,0.6,730,1,12,_tunecore_Remastered_Guitar,6,10,ninjyouuranagaya,0.20276513695716858,0
52,100,0.12272727272727273,48,1,13,_tunecore_Remastered_Guitar,6,2,ninjyouuranagaya,0.9998176693916321,1
52,100,0.1409090909090909,285,1,13,_tunecore_Remastered_Guitar,6,2,ninjyouuranagaya,0.12072949856519699,0
61,100,0.18181818181818182,615,1,13,_tunecore_Remastered_Guitar,6,3,ninjyouuranagaya,0.11652392894029617,0
64,100,0.2818181818181818,716,0,13,_tunecore_Remastered_Guitar,6,5,ninjyouuranagaya,0.13409532606601715,0
61,100,0.1,787,0,13,_tunecore_Remastered_Guitar,6,2,ninjyouuranagaya,0.13388890027999878,0
61,100,0.12272727272727273,840,0,13,_tunecore_Remastered_Guitar,6,2,ninjyouuranagaya,0.12826354801654816,0
61,100,0.3181818181818182,295,1,14,_tunecore_Remastered_Guitar,6,5,ninjyouuranagaya,0.9998321533203125,1
61,100,0.3409090909090909,395,0,14,_tunecore_Remastered_Guitar,6,5,ninjyouuranagaya,0.2113427072763443,0
64,100,0.1,470,0,14,_tunecore_Remastered_Guitar,6,2,ninjyouuranagaya,0.20303480327129364,0
57,100,0.2590909090909091,519,0,14,_tunecore_Remastered_Guitar,6,4,ninjyouuranagaya,0.1957603096961975,0
63,100,0.32272727272727275,840,1,14,_tunecore_Remastered_Guitar,6,5,ninjyouuranagaya,0.20419439673423767,0
59,100,0.18181818181818182,276,1,15,_tunecore_Remastered_Guitar,6,3,ninjyouuranagaya,0.9998021721839905,1
57,100,0.2,426,0,15,_tunecore_Remastered_Guitar,6,3,ninjyouuranagaya,0.12874992191791534,0
61,100,0.4409090909090909,510,0,15,_tunecore_Remastered_Guitar,6,7,ninjyouuranagaya,0.11650904268026352,0
61,100,0.2,656,0,15,_tunecore_Remastered_Guitar,6,3,ninjyouuranagaya,0.1380959004163742,0
57,100,0.16363636363636364,773,0,15,_tunecore_Remastered_Guitar,6,3,ninjyouuranagaya,0.14005210995674133,0
61,100,0.21818181818181817,823,0,15,_tunecore_Remastered_Guitar,6,3,ninjyouuranagaya,0.13308241963386536,0
59,100,0.1409090909090909,3,1,16,_tunecore_Remastered_Guitar,6,2,ninjyouuranagaya,0.9998020529747009,1
63,100,0.6772727272727272,61,0,16,_tunecore_Remastered_Guitar,6,11,ninjyouuranagaya,0.11594241112470627,0
64,100,0.3181818181818182,505,1,16,_tunecore_Remastered_Guitar,6,5,ninjyouuranagaya,0.1374250054359436,0
57,100,0.5818181818181818,584,0,16,_tunecore_Remastered_Guitar,6,9,ninjyouuranagaya,0.12999452650547028,0
57,100,0.2,721,0,16,_tunecore_Remastered_Guitar,6,3,ninjyouuranagaya,0.15690098702907562,0
61,100,0.35909090909090907,783,0,16,_tunecore_Remastered_Guitar,6,6,ninjyouuranagaya,0.13265840709209442,0
57,100,0.6,0,1,17,_tunecore_Remastered_Guitar,6,10,ninjyouuranagaya,0.9998301267623901,1
61,100,0.41818181818181815,405,1,17,_tunecore_Remastered_Guitar,6,7,ninjyouuranagaya,0.35392293334007263,0
61,100,0.2,686,1,17,_tunecore_Remastered_Guitar,6,3,ninjyouuranagaya,0.30193331837654114,0
52,100,0.6181818181818182,831,0,17,_tunecore_Remastered_Guitar,6,10,ninjyouuranagaya,0.29816797375679016,0
52,100,0.32272727272727275,233,1,18,_tunecore_Remastered_Guitar,6,5,ninjyouuranagaya,0.9998353719711304,1
52,100,0.21818181818181817,316,0,18,_tunecore_Remastered_Guitar,6,3,ninjyouuranagaya,0.41546979546546936,0
52,100,0.1409090909090909,440,0,18,_tunecore_Remastered_Guitar,6,2,ninjyouuranagaya,0.4244396388530731,0
59,100,0.22272727272727272,69,1,19,_tunecore_Remastered_Guitar,6,4,ninjyouuranagaya,0.9998310804367065,1
57,100,0.21818181818181817,193,0,19,_tunecore_Remastered_Guitar,6,3,ninjyouuranagaya,0.20973826944828033,0
57,100,0.35909090909090907,382,0,19,_tunecore_Remastered_Guitar,6,6,ninjyouuranagaya,0.20034204423427582,0
57,100,0.6,470,0,19,_tunecore_Remastered_Guitar,6,10,ninjyouuranagaya,0.20167650282382965,0
61,100,0.2590909090909091,677,0,19,_tunecore_Remastered_Guitar,6,4,ninjyouuranagaya,0.21994180977344513,0
61,100,0.5,9,1,20,_tunecore_Remastered_Guitar,6,8,ninjyouuranagaya,0.9998214840888977,1
61,100,0.13636363636363635,150,0,20,_tunecore_Remastered_Guitar,6,2,ninjyouuranagaya,0.22120802104473114,0
52,100,0.6590909090909091,449,1,20,_tunecore_Remastered_Guitar,6,11,ninjyouuranagaya,0.19229987263679504,0
52,100,0.1409090909090909,814,1,20,_tunecore_Remastered_Guitar,6,2,ninjyouuranagaya,0.21905875205993652,0
52,100,0.42272727272727273,862,0,20,_tunecore_Remastered_Guitar,6,7,ninjyouuranagaya,0.20343704521656036,0
59,100,0.1,113,1,21,_tunecore_Remastered_Guitar,6,2,ninjyouuranagaya,0.9998583793640137,1
63,100,0.22272727272727272,584,1,21,_tunecore_Remastered_Guitar,6,4,ninjyouuranagaya,0.31303825974464417,0
57,100,0.5818181818181818,681,0,21,_tunecore_Remastered_Guitar,6,9,ninjyouuranagaya,0.2914712727069855,0
61,100,0.3181818181818182,831,0,21,_tunecore_Remastered_Guitar,6,5,ninjyouuranagaya,0.3071436583995819,0
57,100,0.32272727272727275,69,1,22,_tunecore_Remastered_Guitar,6,5,ninjyouuranagaya,0.9998094439506531,1
57,100,0.6818181818181818,144,0,22,_tunecore_Remastered_Guitar,6,11,ninjyouuranagaya,0.40367746353149414,0
61,100,0.2409090909090909,509,1,22,_tunecore_Remastered_Guitar,6,4,ninjyouuranagaya,0.44870442152023315,0
59,100,0.1409090909090909,110,1,23,_tunecore_Remastered_Guitar,6,2,ninjyouuranagaya,0.9998350143432617,1
63,100,0.13636363636363635,237,0,23,_tunecore_Remastered_Guitar,6,2,ninjyouuranagaya,0.20827510952949524,0
59,100,0.2772727272727273,405,0,23,_tunecore_Remastered_Guitar,6,4,ninjyouuranagaya,0.1996268332004547,0
63,100,0.5181818181818182,546,0,23,_tunecore_Remastered_Guitar,6,8,ninjyouuranagaya,0.19590850174427032,0
59,100,0.11818181818181818,866,1,23,_tunecore_Remastered_Guitar,6,2,ninjyouuranagaya,0.21905303001403809,0
61,100,0.21818181818181817,480,1,24,_tunecore_Remastered_Guitar,6,3,ninjyouuranagaya,0.9998356103897095,1
57,100,0.22272727272727272,576,0,24,_tunecore_Remastered_Guitar,6,4,ninjyouuranagaya,0.3977881073951721,0
64,100,0.2,862,1,24,_tunecore_Remastered_Guitar,6,3,ninjyouuranagaya,0.4324553608894348,0
61,100,0.17727272727272728,52,1,25,_tunecore_Remastered_Guitar,6,3,ninjyouuranagaya,0.9997290968894958,1
64,100,0.4409090909090909,100,0,25,_tunecore_Remastered_Guitar,6,7,ninjyouuranagaya,0.05446192994713783,0
61,100,0.3,220,0,25,_tunecore_Remastered_Guitar,6,5,ninjyouuranagaya,0.04556426778435707,0
61,100,0.4,289,0,25,_tunecore_Remastered_Guitar,6,6,ninjyouuranagaya,0.04590592160820961,0
61,100,0.16363636363636364,488,0,25,_tunecore_Remastered_Guitar,6,3,ninjyouuranagaya,0.05416938289999962,0
52,100,0.17727272727272728,633,0,25,_tunecore_Remastered_Guitar,6,3,ninjyouuranagaya,0.059821292757987976,0
52,100,0.1590909090909091,760,0,25,_tunecore_Remastered_Guitar,6,3,ninjyouuranagaya,0.06578879058361053,0
59,100,0.17727272727272728,801,0,25,_tunecore_Remastered_Guitar,6,3,ninjyouuranagaya,0.057374950498342514,0
52,100,0.1,34,1,26,_tunecore_Remastered_Guitar,6,2,ninjyouuranagaya,0.99985671043396,1
63,100,0.2818181818181818,285,1,26,_tunecore_Remastered_Guitar,6,5,ninjyouuranagaya,0.29645174741744995,0
63,100,0.3409090909090909,694,1,26,_tunecore_Remastered_Guitar,6,5,ninjyouuranagaya,0.297279953956604,0
57,100,0.21818181818181817,858,0,26,_tunecore_Remastered_Guitar,6,3,ninjyouuranagaya,0.31309059262275696,0
57,100,0.2,30,1,27,_tunecore_Remastered_Guitar,6,3,ninjyouuranagaya,0.9996957778930664,1
57,100,0.1590909090909091,79,0,27,_tunecore_Remastered_Guitar,6,3,ninjyouuranagaya,0.04277100786566734,0
57,100,0.1,127,0,27,_tunecore_Remastered_Guitar,6,2,ninjyouuranagaya,0.032484591007232666,0
57,100,0.4590909090909091,198,0,27,_tunecore_Remastered_Guitar,6,7,ninjyouuranagaya,0.03034829907119274,0
64,100,0.5181818181818182,461,1,27,_tunecore_Remastered_Guitar,6,8,ninjyouuranagaya,0.031018780544400215,0
64,100,0.2,598,0,27,_tunecore_Remastered_Guitar,6,3,ninjyouuranagaya,0.03545696660876274,0
64,100,0.11818181818181818,677,0,27,_tunecore_Remastered_Guitar,6,2,ninjyouuranagaya,0.04154400900006294,0
61,100,0.38181818181818183,704,0,27,_tunecore_Remastered_Guitar,6,6,ninjyouuranagaya,0.04498247802257538,0
61,100,0.38181818181818183,791,0,27,_tunecore_Remastered_Guitar,6,6,ninjyouuranagaya,0.04632026329636574,0
52,100,0.2,154,1,28,_tunecore_Remastered_Guitar,6,3,ninjyouuranagaya,0.9997733235359192,1
52,100,0.3,206,0,28,_tunecore_Remastered_Guitar,6,5,ninjyouuranagaya,0.07999540120363235,0
52,100,0.11818181818181818,281,0,28,_tunecore_Remastered_Guitar,6,2,ninjyouuranagaya,0.07319246977567673,0
52,100,0.5409090909090909,430,0,28,_tunecore_Remastered_Guitar,6,9,ninjyouuranagaya,0.07602375000715256,0
59,100,0.12272727272727273,553,0,28,_tunecore_Remastered_Guitar,6,2,ninjyouuranagaya,0.08764448761940002,0
59,100,0.11818181818181818,646,0,28,_tunecore_Remastered_Guitar,6,2,ninjyouuranagaya,0.09471216052770615,0
59,100,0.11818181818181818,835,0,28,_tunecore_Remastered_Guitar,6,2,ninjyouuranagaya,0.08579425513744354,0
59,100,0.1,210,1,29,_tunecore_Remastered_Guitar,6,2,ninjyouuranagaya,0.9998605251312256,1
52,100,0.7227272727272728,364,0,29,_tunecore_Remastered_Guitar,6,12,ninjyouuranagaya,0.2966170012950897,0
52,100,0.5818181818181818,576,0,29,_tunecore_Remastered_Guitar,6,9,ninjyouuranagaya,0.2949952185153961,0
52,100,0.2636363636363636,818,1,29,_tunecore_Remastered_Guitar,6,4,ninjyouuranagaya,0.3111659288406372,0
64,100,0.23636363636363636,281,1,30,_tunecore_Remastered_Guitar,6,4,ninjyouuranagaya,0.9998362064361572,1
61,100,0.37727272727272726,515,1,30,_tunecore_Remastered_Guitar,6,6,ninjyouuranagaya,0.39244335889816284,0
61,100,0.1,822,1,30,_tunecore_Remastered_Guitar,6,2,ninjyouuranagaya,0.43232986330986023,0
71,100,0.11818181818181818,30,1,31,_tunecore_Remastered_Guitar,6,2,ninjyouuranagaya,0.9997370839118958,1
52,100,0.22272727272727272,179,0,31,_tunecore_Remastered_Guitar,6,4,ninjyouuranagaya,0.05626320466399193,0
52,100,0.1590909090909091,260,0,31,_tunecore_Remastered_Guitar,6,3,ninjyouuranagaya,0.0465274341404438,0
59,100,0.12272727272727273,453,0,31,_tunecore_Remastered_Guitar,6,2,ninjyouuranagaya,0.04724445939064026,0
63,100,0.2590909090909091,646,0,31,_tunecore_Remastered_Guitar,6,4,ninjyouuranagaya,0.05079258605837822,0
54,100,0.12272727272727273,739,0,31,_tunecore_Remastered_Guitar,6,2,ninjyouuranagaya,0.06321938335895538,0
59,100,0.16363636363636364,818,0,31,_tunecore_Remastered_Guitar,6,3,ninjyouuranagaya,0.06550901383161545,0
52,100,0.8409090909090909,862,0,31,_tunecore_Remastered_Guitar,6,13,ninjyouuranagaya,0.060152817517519,0
68,100,0.13636363636363635,281,1,32,_tunecore_Remastered_Guitar,6,2,ninjyouuranagaya,0.9998551607131958,1
59,100,0.16363636363636364,421,0,32,_tunecore_Remastered_Guitar,6,3,ninjyouuranagaya,0.3211856782436371,0
59,100,0.11818181818181818,506,0,32,_tunecore_Remastered_Guitar,6,2,ninjyouuranagaya,0.29155808687210083,0
64,100,0.2,778,1,32,_tunecore_Remastered_Guitar,6,3,ninjyouuranagaya,0.3029870390892029,0
61,100,0.4772727272727273,105,1,33,_tunecore_Remastered_Guitar,6,8,ninjyouuranagaya,0.9997941851615906,1
64,100,0.1590909090909091,211,0,33,_tunecore_Remastered_Guitar,6,3,ninjyouuranagaya,0.13601717352867126,0
64,100,0.3409090909090909,268,0,33,_tunecore_Remastered_Guitar,6,5,ninjyouuranagaya,0.12084761261940002,0
61,100,0.1409090909090909,351,0,33,_tunecore_Remastered_Guitar,6,2,ninjyouuranagaya,0.13447803258895874,0
68,100,0.17727272727272728,448,0,33,_tunecore_Remastered_Guitar,6,3,ninjyouuranagaya,0.14424437284469604,0
68,100,0.5,509,0,33,_tunecore_Remastered_Guitar,6,8,ninjyouuranagaya,0.13128265738487244,0
52,100,0.6590909090909091,461,1,34,_tunecore_Remastered_Guitar,6,11,ninjyouuranagaya,0.9928032755851746,0
61,100,0.12272727272727273,364,1,35,_tunecore_Remastered_Guitar,6,2,ninjyouuranagaya,0.9998433589935303,1
64,100,0.16363636363636364,399,0,35,_tunecore_Remastered_Guitar,6,3,ninjyouuranagaya,0.21069492399692535,0
64,100,0.1409090909090909,474,0,35,_tunecore_Remastered_Guitar,6,2,ninjyouuranagaya,0.1905655711889267,0
61,100,0.2,641,0,35,_tunecore_Remastered_Guitar,6,3,ninjyouuranagaya,0.2017185389995575,0
52,100,0.2590909090909091,866,0,35,_tunecore_Remastered_Guitar,6,4,ninjyouuranagaya,0.19967694580554962,0
52,100,0.5227272727272727,268,1,36,_tunecore_Remastered_Guitar,6,8,ninjyouuranagaya,0.9998243451118469,1
59,100,0.1590909090909091,545,1,36,_tunecore_Remastered_Guitar,6,3,ninjyouuranagaya,0.41503968834877014,0
59,100,0.32272727272727275,606,0,36,_tunecore_Remastered_Guitar,6,5,ninjyouuranagaya,0.42789095640182495,0
52,100,0.6181818181818182,75,1,37,_tunecore_Remastered_Guitar,6,10,ninjyouuranagaya,0.9998231530189514,1
61,100,0.1409090909090909,708,1,37,_tunecore_Remastered_Guitar,6,2,ninjyouuranagaya,0.42818593978881836,0
61,100,0.2590909090909091,791,0,37,_tunecore_Remastered_Guitar,6,4,ninjyouuranagaya,0.4202234148979187,0
64,100,0.1409090909090909,0,1,38,_tunecore_Remastered_Guitar,6,2,ninjyouuranagaya,0.9997139573097229,1
61,100,0.18181818181818182,56,0,38,_tunecore_Remastered_Guitar,6,3,ninjyouuranagaya,0.04194025695323944,0
64,100,0.12272727272727273,123,0,38,_tunecore_Remastered_Guitar,6,2,ninjyouuranagaya,0.033529531210660934,0
61,100,0.3,215,0,38,_tunecore_Remastered_Guitar,6,5,ninjyouuranagaya,0.028154945001006126,0
64,100,0.17727272727272728,281,0,38,_tunecore_Remastered_Guitar,6,3,ninjyouuranagaya,0.031941674649715424,0
57,100,0.3,330,0,38,_tunecore_Remastered_Guitar,6,5,ninjyouuranagaya,0.03243396803736687,0
57,100,0.1,471,0,38,_tunecore_Remastered_Guitar,6,2,ninjyouuranagaya,0.039639100432395935,0
61,100,0.23636363636363636,765,1,38,_tunecore_Remastered_Guitar,6,4,ninjyouuranagaya,0.049847498536109924,0
52,100,0.17727272727272728,831,0,38,_tunecore_Remastered_Guitar,6,3,ninjyouuranagaya,0.04534604027867317,0
59,100,0.5818181818181818,136,1,39,_tunecore_Remastered_Guitar,6,9,ninjyouuranagaya,0.9997461438179016,1
59,100,0.13636363636363635,281,0,39,_tunecore_Remastered_Guitar,6,2,ninjyouuranagaya,0.08804506063461304,0
63,100,0.1590909090909091,321,0,39,_tunecore_Remastered_Guitar,6,3,ninjyouuranagaya,0.07588977366685867,0
57,100,0.17727272727272728,700,1,39,_tunecore_Remastered_Guitar,6,3,ninjyouuranagaya,0.08208312839269638,0
57,100,0.12272727272727273,751,0,39,_tunecore_Remastered_Guitar,6,2,ninjyouuranagaya,0.09477946162223816,0
52,100,0.2409090909090909,778,0,39,_tunecore_Remastered_Guitar,6,4,ninjyouuranagaya,0.09984033554792404,0
64,100,0.6818181818181818,839,0,39,_tunecore_Remastered_Guitar,6,11,ninjyouuranagaya,0.08455533534288406,0
52,100,0.11818181818181818,150,1,40,_tunecore_Remastered_Guitar,6,2,ninjyouuranagaya,0.9997748732566833,1
64,100,0.9,188,0,40,_tunecore_Remastered_Guitar,6,14,ninjyouuranagaya,0.07109388709068298,0
61,100,0.11818181818181818,391,0,40,_tunecore_Remastered_Guitar,6,2,ninjyouuranagaya,0.07848914712667465,0
61,100,0.3,431,0,40,_tunecore_Remastered_Guitar,6,5,ninjyouuranagaya,0.08040560036897659,0
61,100,0.5227272727272727,541,0,40,_tunecore_Remastered_Guitar,6,8,ninjyouuranagaya,0.08574414998292923,0
61,100,0.5772727272727273,668,0,40,_tunecore_Remastered_Guitar,6,9,ninjyouuranagaya,0.09923374652862549,0
52,100,0.7,801,0,40,_tunecore_Remastered_Guitar,6,11,ninjyouuranagaya,0.09208038449287415,0
64,100,0.6227272727272727,201,1,41,_tunecore_Remastered_Guitar,6,10,ninjyouuranagaya,0.9998490810394287,1
64,100,0.13636363636363635,458,1,41,_tunecore_Remastered_Guitar,6,2,ninjyouuranagaya,0.32996582984924316,0
63,100,1.040909090909091,628,0,41,_tunecore_Remastered_Guitar,6,15,ninjyouuranagaya,0.2611973285675049,0
64,100,0.1590909090909091,858,0,41,_tunecore_Remastered_Guitar,6,3,ninjyouuranagaya,0.3426811397075653,0
59,100,0.2409090909090909,26,1,42,_tunecore_Remastered_Guitar,6,4,ninjyouuranagaya,0.9998457431793213,1
59,100,0.4818181818181818,91,0,42,_tunecore_Remastered_Guitar,6,8,ninjyouuranagaya,0.31684884428977966,0
61,100,0.2,370,1,42,_tunecore_Remastered_Guitar,6,3,ninjyouuranagaya,0.30487409234046936,0
64,100,0.32272727272727275,796,1,42,_tunecore_Remastered_Guitar,6,5,ninjyouuranagaya,0.3140915036201477,0
66,100,0.37727272727272726,413,1,43,_tunecore_Remastered_Guitar,6,6,ninjyouuranagaya,0.999847412109375,1
68,100,0.4590909090909091,584,0,43,_tunecore_Remastered_Guitar,6,7,ninjyouuranagaya,0.3261815309524536,0
59,100,0.1,801,0,43,_tunecore_Remastered_Guitar,6,2,ninjyouuranagaya,0.30094295740127563,0
52,100,0.6181818181818182,836,0,43,_tunecore_Remastered_Guitar,6,10,ninjyouuranagaya,0.3027862012386322,0
59,100,0.3,171,1,44,_tunecore_Remastered_Guitar,6,5,ninjyouuranagaya,0.9998282194137573,1
61,100,0.5590909090909091,241,0,44,_tunecore_Remastered_Guitar,6,9,ninjyouuranagaya,0.211142435669899,0
64,100,0.4818181818181818,373,0,44,_tunecore_Remastered_Guitar,6,8,ninjyouuranagaya,0.21055631339550018,0
66,100,0.4818181818181818,509,0,44,_tunecore_Remastered_Guitar,6,8,ninjyouuranagaya,0.21348685026168823,0
66,100,0.9636363636363636,664,0,44,_tunecore_Remastered_Guitar,6,15,ninjyouuranagaya,0.20222483575344086,0
64,100,0.4772727272727273,185,1,45,_tunecore_Remastered_Guitar,6,8,ninjyouuranagaya,0.9997307658195496,1
61,100,0.17727272727272728,295,0,45,_tunecore_Remastered_Guitar,6,3,ninjyouuranagaya,0.05404804274439812,0
59,100,0.16363636363636364,334,0,45,_tunecore_Remastered_Guitar,6,3,ninjyouuranagaya,0.04718649387359619,0
59,100,0.1409090909090909,373,0,45,_tunecore_Remastered_Guitar,6,2,ninjyouuranagaya,0.04726660996675491,0
59,100,1.2818181818181817,418,0,45,_tunecore_Remastered_Guitar,6,15,ninjyouuranagaya,0.04549998790025711,0
64,100,0.2590909090909091,700,1,45,_tunecore_Remastered_Guitar,6,4,ninjyouuranagaya,0.07109895348548889,0
61,100,0.23636363636363636,765,0,45,_tunecore_Remastered_Guitar,6,4,ninjyouuranagaya,0.0688062310218811,0
64,100,0.2590909090909091,836,0,45,_tunecore_Remastered_Guitar,6,4,ninjyouuranagaya,0.06324537098407745,0
59,100,0.3181818181818182,370,1,46,_tunecore_Remastered_Guitar,6,5,ninjyouuranagaya,0.9998500347137451,1
61,100,0.3,440,0,46,_tunecore_Remastered_Guitar,6,5,ninjyouuranagaya,0.32657569646835327,0
64,100,0.21818181818181817,528,0,46,_tunecore_Remastered_Guitar,6,3,ninjyouuranagaya,0.29940611124038696,0
61,100,0.42272727272727273,716,0,46,_tunecore_Remastered_Guitar,6,7,ninjyouuranagaya,0.30052462220191956,0
68,100,0.18181818181818182,4,1,47,_tunecore_Remastered_Guitar,6,3,ninjyouuranagaya,0.9997977614402771,1
66,100,0.2590909090909091,56,0,47,_tunecore_Remastered_Guitar,6,4,ninjyouuranagaya,0.13193154335021973,0
64,100,0.7772727272727272,141,0,47,_tunecore_Remastered_Guitar,6,12,ninjyouuranagaya,0.11726585030555725,0
66,100,1.6,316,0,47,_tunecore_Remastered_Guitar,6,15,ninjyouuranagaya,0.1267772614955902,0
64,100,0.6409090909090909,673,1,47,_tunecore_Remastered_Guitar,6,10,ninjyouuranagaya,0.17401517927646637,0
63,100,0.22272727272727272,839,0,47,_tunecore_Remastered_Guitar,6,4,ninjyouuranagaya,0.14461645483970642,0
64,100,1.9,75,1,48,_tunecore_Remastered_Guitar,6,15,ninjyouuranagaya,0.9994691014289856,1
52,100,0.740909090909091,493,1,48,_tunecore_Remastered_Guitar,6,12,ninjyouuranagaya,0.587153434753418,0
52,100,0.21818181818181817,96,1,49,_tunecore_Remastered_Guitar,6,3,ninjyouuranagaya,0.9998589754104614,1
61,100,0.1590909090909091,351,1,49,_tunecore_Remastered_Guitar,6,3,ninjyouuranagaya,0.3074508309364319,0
61,100,0.11818181818181818,506,0,49,_tunecore_Remastered_Guitar,6,2,ninjyouuranagaya,0.29677748680114746,0
61,100,0.5227272727272727,598,0,49,_tunecore_Remastered_Guitar,6,8,ninjyouuranagaya,0.2960251569747925,0
64,100,0.2,185,1,50,_tunecore_Remastered_Guitar,6,3,ninjyouuranagaya,0.9998630285263062,1
52,100,0.13636363636363635,348,0,50,_tunecore_Remastered_Guitar,6,2,ninjyouuranagaya,0.3152614235877991,0
59,100,0.1,421,0,50,_tunecore_Remastered_Guitar,6,2,ninjyouuranagaya,0.28556177020072937,0
59,100,0.11818181818181818,558,0,50,_tunecore_Remastered_Guitar,6,2,ninjyouuranagaya,0.29679790139198303,0
52,100,0.740909090909091,110,1,51,_tunecore_Remastered_Guitar,6,12,ninjyouuranagaya,0.999596893787384,1
52,100,0.2772727272727273,458,1,51,_tunecore_Remastered_Guitar,6,4,ninjyouuranagaya,0.5611734986305237,0
61,100,0.41818181818181815,198,1,52,_tunecore_Remastered_Guitar,6,7,ninjyouuranagaya,0.9998353719711304,1
57,100,0.33636363636363636,370,0,52,_tunecore_Remastered_Guitar,6,5,ninjyouuranagaya,0.2026130110025406,0
52,100,0.1590909090909091,448,0,52,_tunecore_Remastered_Guitar,6,3,ninjyouuranagaya,0.20612335205078125,0
52,100,0.21818181818181817,581,0,52,_tunecore_Remastered_Guitar,6,3,ninjyouuranagaya,0.20404687523841858,0
59,100,0.2,651,0,52,_tunecore_Remastered_Guitar,6,3,ninjyouuranagaya,0.200253427028656,0
59,100,0.1409090909090909,176,1,53,_tunecore_Remastered_Guitar,6,2,ninjyouuranagaya,0.9998500347137451,1
59,100,0.35909090909090907,238,0,53,_tunecore_Remastered_Guitar,6,6,ninjyouuranagaya,0.31850549578666687,0
59,100,0.16363636363636364,554,1,53,_tunecore_Remastered_Guitar,6,3,ninjyouuranagaya,0.298147052526474,0
52,100,0.3,818,1,53,_tunecore_Remastered_Guitar,6,5,ninjyouuranagaya,0.3094349503517151,0
52,100,0.2,88,1,54,_tunecore_Remastered_Guitar,6,3,ninjyouuranagaya,0.9998399019241333,1
61,100,0.17727272727272728,141,0,54,_tunecore_Remastered_Guitar,6,3,ninjyouuranagaya,0.20106999576091766,0
52,100,0.22272727272727272,201,0,54,_tunecore_Remastered_Guitar,6,4,ninjyouuranagaya,0.20326878130435944,0
54,100,0.4,276,0,54,_tunecore_Remastered_Guitar,6,6,ninjyouuranagaya,0.1937018781900406,0
54,100,0.2409090909090909,761,1,54,_tunecore_Remastered_Guitar,6,4,ninjyouuranagaya,0.20801261067390442,0
52,100,0.12272727272727273,56,1,55,_tunecore_Remastered_Guitar,6,2,ninjyouuranagaya,0.999661922454834,1
57,100,0.1409090909090909,628,1,55,_tunecore_Remastered_Guitar,6,2,ninjyouuranagaya,0.5385704636573792,0
54,100,0.2,158,1,56,_tunecore_Remastered_Guitar,6,3,ninjyouuranagaya,0.993217408657074,0
57,100,0.3,593,1,57,_tunecore_Remastered_Guitar,6,5,ninjyouuranagaya,0.9995939135551453,1
54,100,0.23636363636363636,875,1,57,_tunecore_Remastered_Guitar,6,4,ninjyouuranagaya,0.5615530014038086,0
61,100,0.4590909090909091,823,1,58,_tunecore_Remastered_Guitar,6,7,ninjyouuranagaya,0.992731511592865,0
68,100,0.1409090909090909,118,1,59,_tunecore_Remastered_Guitar,6,2,ninjyouuranagaya,0.9997298121452332,1
66,100,0.21818181818181817,171,0,59,_tunecore_Remastered_Guitar,6,3,ninjyouuranagaya,0.05405538156628609,0
64,100,0.23636363636363636,238,0,59,_tunecore_Remastered_Guitar,6,4,ninjyouuranagaya,0.04822426289319992,0
66,100,0.3,303,0,59,_tunecore_Remastered_Guitar,6,5,ninjyouuranagaya,0.04435887187719345,0
64,100,0.32272727272727275,444,0,59,_tunecore_Remastered_Guitar,6,5,ninjyouuranagaya,0.052260205149650574,0
59,100,0.1409090909090909,681,1,59,_tunecore_Remastered_Guitar,6,2,ninjyouuranagaya,0.05961114540696144,0
63,100,0.12272727272727273,804,0,59,_tunecore_Remastered_Guitar,6,2,ninjyouuranagaya,0.06356053799390793,0
63,100,0.1,861,0,59,_tunecore_Remastered_Guitar,6,2,ninjyouuranagaya,0.0626775398850441,0
57,100,0.1409090909090909,48,1,60,_tunecore_Remastered_Guitar,6,2,ninjyouuranagaya,0.9998325109481812,1
56,100,0.12272727272727273,606,1,60,_tunecore_Remastered_Guitar,6,2,ninjyouuranagaya,0.417889803647995,0
63,100,0.11818181818181818,831,0,60,_tunecore_Remastered_Guitar,6,2,ninjyouuranagaya,0.4118668735027313,0
57,100,0.12272727272727273,224,1,61,_tunecore_Remastered_Guitar,6,2,ninjyouuranagaya,0.9998421669006348,1
66,100,0.13636363636363635,413,0,61,_tunecore_Remastered_Guitar,6,2,ninjyouuranagaya,0.20954261720180511,0
66,100,0.2,756,1,61,_tunecore_Remastered_Guitar,6,3,ninjyouuranagaya,0.19765368103981018,0
66,100,0.1,826,0,61,_tunecore_Remastered_Guitar,6,2,ninjyouuranagaya,0.2036808431148529,0
63,100,0.1409090909090909,858,0,61,_tunecore_Remastered_Guitar,6,2,ninjyouuranagaya,0.1968550682067871,0
63,100,0.9590909090909091,13,1,62,_tunecore_Remastered_Guitar,6,15,ninjyouuranagaya,0.9997900128364563,1
63,100,0.1,386,1,62,_tunecore_Remastered_Guitar,6,2,ninjyouuranagaya,0.46561819314956665,0
63,100,0.3,448,0,62,_tunecore_Remastered_Guitar,6,5,ninjyouuranagaya,0.4312565326690674,0
61,100,0.12272727272727273,13,1,63,_tunecore_Remastered_Guitar,6,2,ninjyouuranagaya,0.9998371601104736,1
54,100,0.9,325,1,63,_tunecore_Remastered_Guitar,6,14,ninjyouuranagaya,0.18319696187973022,0
54,100,0.32272727272727275,554,0,63,_tunecore_Remastered_Guitar,6,5,ninjyouuranagaya,0.21769200265407562,0
56,100,0.22272727272727272,641,0,63,_tunecore_Remastered_Guitar,6,4,ninjyouuranagaya,0.21466806530952454,0
54,100,0.18181818181818182,726,0,63,_tunecore_Remastered_Guitar,6,3,ninjyouuranagaya,0.2093650847673416,0
59,100,0.1590909090909091,832,1,64,_tunecore_Remastered_Guitar,6,3,ninjyouuranagaya,0.9932597279548645,0
64,100,0.35909090909090907,475,1,65,_tunecore_Remastered_Guitar,6,6,ninjyouuranagaya,0.9996546506881714,1
52,100,0.38181818181818183,572,0,65,_tunecore_Remastered_Guitar,6,6,ninjyouuranagaya,0.5430773496627808,0
59,100,0.5772727272727273,119,1,66,_tunecore_Remastered_Guitar,6,9,ninjyouuranagaya,0.9998408555984497,1
54,100,0.2772727272727273,260,0,66,_tunecore_Remastered_Guitar,6,4,ninjyouuranagaya,0.32680416107177734,0
61,100,0.18181818181818182,532,1,66,_tunecore_Remastered_Guitar,6,3,ninjyouuranagaya,0.2998255789279938,0
52,100,0.21818181818181817,836,1,66,_tunecore_Remastered_Guitar,6,3,ninjyouuranagaya,0.3146410882472992,0
61,100,0.2409090909090909,220,1,67,_tunecore_Remastered_Guitar,6,4,ninjyouuranagaya,0.999629020690918,1
68,100,0.1,593,1,67,_tunecore_Remastered_Guitar,6,2,ninjyouuranagaya,0.5483086705207825,0
56,100,0.1409090909090909,43,1,68,_tunecore_Remastered_Guitar,6,2,ninjyouuranagaya,0.9998363256454468,1
61,100,0.4409090909090909,316,1,68,_tunecore_Remastered_Guitar,6,7,ninjyouuranagaya,0.39481642842292786,0
59,100,0.18181818181818182,796,1,68,_tunecore_Remastered_Guitar,6,3,ninjyouuranagaya,0.4323180615901947,0
52,100,0.21818181818181817,74,1,69,_tunecore_Remastered_Guitar,6,3,ninjyouuranagaya,0.9998430013656616,1
52,100,0.3,197,0,69,_tunecore_Remastered_Guitar,6,5,ninjyouuranagaya,0.40178757905960083,0
52,100,0.4,426,0,69,_tunecore_Remastered_Guitar,6,6,ninjyouuranagaya,0.4230395257472992,0
56,100,0.3409090909090909,13,1,70,_tunecore_Remastered_Guitar,6,5,ninjyouuranagaya,0.9997671246528625,1
52,100,0.12272727272727273,267,1,70,_tunecore_Remastered_Guitar,6,2,ninjyouuranagaya,0.08332185447216034,0
52,100,0.18181818181818182,333,0,70,_tunecore_Remastered_Guitar,6,3,ninjyouuranagaya,0.07171785831451416,0
52,100,0.3409090909090909,443,0,70,_tunecore_Remastered_Guitar,6,5,ninjyouuranagaya,0.07795283943414688,0
52,100,0.17727272727272728,559,0,70,_tunecore_Remastered_Guitar,6,3,ninjyouuranagaya,0.08566245436668396,0
52,100,0.1409090909090909,713,0,70,_tunecore_Remastered_Guitar,6,2,ninjyouuranagaya,0.09367594122886658,0
52,100,0.18181818181818182,760,0,70,_tunecore_Remastered_Guitar,6,3,ninjyouuranagaya,0.08339309692382812,0
63,100,0.1409090909090909,396,1,71,_tunecore_Remastered_Guitar,6,2,ninjyouuranagaya,0.9998277425765991,1
57,100,0.12272727272727273,576,0,71,_tunecore_Remastered_Guitar,6,2,ninjyouuranagaya,0.41201767325401306,0
52,100,0.21818181818181817,703,0,71,_tunecore_Remastered_Guitar,6,3,ninjyouuranagaya,0.4305051565170288,0
52,100,0.4409090909090909,53,1,72,_tunecore_Remastered_Guitar,6,7,ninjyouuranagaya,0.9996156692504883,1
57,100,0.21818181818181817,747,1,72,_tunecore_Remastered_Guitar,6,3,ninjyouuranagaya,0.5505121946334839,0
59,100,0.12272727272727273,686,1,73,_tunecore_Remastered_Guitar,6,2,ninjyouuranagaya,0.9996399879455566,1
59,100,0.4,743,0,73,_tunecore_Remastered_Guitar,6,6,ninjyouuranagaya,0.5416837930679321,0
57,100,0.1,179,1,74,_tunecore_Remastered_Guitar,6,2,ninjyouuranagaya,0.99982750415802,1
59,100,0.2409090909090909,383,0,74,_tunecore_Remastered_Guitar,6,4,ninjyouuranagaya,0.4010728895664215,0
57,100,0.37727272727272726,523,0,74,_tunecore_Remastered_Guitar,6,6,ninjyouuranagaya,0.42918872833251953,0
57,100,0.11818181818181818,127,1,75,_tunecore_Remastered_Guitar,6,2,ninjyouuranagaya,0.9998444318771362,1
59,100,0.12272727272727273,532,1,75,_tunecore_Remastered_Guitar,6,2,ninjyouuranagaya,0.32928693294525146,0
54,100,0.4,606,0,75,_tunecore_Remastered_Guitar,6,6,ninjyouuranagaya,0.2891837954521179,0
52,100,0.3,810,0,75,_tunecore_Remastered_Guitar,6,5,ninjyouuranagaya,0.31100985407829285,0
59,100,0.4,53,1,76,_tunecore_Remastered_Guitar,6,6,ninjyouuranagaya,0.9998182654380798,1
59,100,0.7363636363636363,172,0,76,_tunecore_Remastered_Guitar,6,12,ninjyouuranagaya,0.2067348212003708,0
59,100,0.2409090909090909,360,0,76,_tunecore_Remastered_Guitar,6,4,ninjyouuranagaya,0.2072502225637436,0
59,100,0.41818181818181815,426,0,76,_tunecore_Remastered_Guitar,6,7,ninjyouuranagaya,0.21481148898601532,0
52,100,0.18181818181818182,682,1,76,_tunecore_Remastered_Guitar,6,3,ninjyouuranagaya,0.2193322330713272,0
52,100,0.2409090909090909,53,1,77,_tunecore_Remastered_Guitar,6,4,ninjyouuranagaya,0.9996846914291382,1
52,100,0.17727272727272728,119,0,77,_tunecore_Remastered_Guitar,6,3,ninjyouuranagaya,0.03635270521044731,0
52,100,0.37727272727272726,163,0,77,_tunecore_Remastered_Guitar,6,6,ninjyouuranagaya,0.024542223662137985,0
64,100,0.1409090909090909,299,0,77,_tunecore_Remastered_Guitar,6,2,ninjyouuranagaya,0.02112535946071148,0
64,100,0.3181818181818182,370,0,77,_tunecore_Remastered_Guitar,6,5,ninjyouuranagaya,0.018327951431274414,0
61,100,0.1590909090909091,462,0,77,_tunecore_Remastered_Guitar,6,3,ninjyouuranagaya,0.01901930384337902,0
64,100,0.11818181818181818,502,0,77,_tunecore_Remastered_Guitar,6,2,ninjyouuranagaya,0.02290644496679306,0
61,100,0.35909090909090907,673,0,77,_tunecore_Remastered_Guitar,6,6,ninjyouuranagaya,0.027307352051138878,0
52,100,0.1409090909090909,770,0,77,_tunecore_Remastered_Guitar,6,2,ninjyouuranagaya,0.03948267176747322,0
52,100,0.12272727272727273,849,0,77,_tunecore_Remastered_Guitar,6,2,ninjyouuranagaya,0.037720754742622375,0
52,100,0.38181818181818183,145,1,78,_tunecore_Remastered_Guitar,6,6,ninjyouuranagaya,0.9996204376220703,1
54,100,0.5818181818181818,783,1,78,_tunecore_Remastered_Guitar,6,9,ninjyouuranagaya,0.5350322723388672,0
52,100,0.2590909090909091,282,1,79,_tunecore_Remastered_Guitar,6,4,ninjyouuranagaya,0.9998358488082886,1
52,100,0.2636363636363636,377,0,79,_tunecore_Remastered_Guitar,6,4,ninjyouuranagaya,0.41484594345092773,0
52,100,0.2,700,1,79,_tunecore_Remastered_Guitar,6,3,ninjyouuranagaya,0.4208793044090271,0
52,100,0.2636363636363636,289,1,80,_tunecore_Remastered_Guitar,6,4,ninjyouuranagaya,0.9998431205749512,1
52,100,0.17727272727272728,567,1,80,_tunecore_Remastered_Guitar,6,3,ninjyouuranagaya,0.20911012589931488,0
52,100,0.22272727272727272,650,0,80,_tunecore_Remastered_Guitar,6,4,ninjyouuranagaya,0.19368430972099304,0
52,100,0.1,716,0,80,_tunecore_Remastered_Guitar,6,2,ninjyouuranagaya,0.20705106854438782,0
52,100,0.17727272727272728,832,0,80,_tunecore_Remastered_Guitar,6,3,ninjyouuranagaya,0.19323945045471191,0
54,100,0.18181818181818182,386,1,81,_tunecore_Remastered_Guitar,6,3,ninjyouuranagaya,0.9998594522476196,1
59,100,0.18181818181818182,430,0,81,_tunecore_Remastered_Guitar,6,3,ninjyouuranagaya,0.31755414605140686,0
52,100,0.1590909090909091,673,1,81,_tunecore_Remastered_Guitar,6,3,ninjyouuranagaya,0.29286834597587585,0
52,100,0.3,739,0,81,_tunecore_Remastered_Guitar,6,5,ninjyouuranagaya,0.29993847012519836,0
52,100,0.22272727272727272,3,1,82,_tunecore_Remastered_Guitar,6,4,ninjyouuranagaya,0.9998366832733154,1
52,100,0.33636363636363636,127,0,82,_tunecore_Remastered_Guitar,6,5,ninjyouuranagaya,0.3969952464103699,0
56,100,0.2590909090909091,229,0,82,_tunecore_Remastered_Guitar,6,4,ninjyouuranagaya,0.42715176939964294,0
52,100,0.21818181818181817,307,1,83,_tunecore_Remastered_Guitar,6,3,ninjyouuranagaya,0.9998509883880615,1
52,100,0.4,392,0,83,_tunecore_Remastered_Guitar,6,6,ninjyouuranagaya,0.32394614815711975,0
52,100,0.1590909090909091,483,0,83,_tunecore_Remastered_Guitar,6,3,ninjyouuranagaya,0.3037760257720947,0
54,100,0.5590909090909091,590,0,83,_tunecore_Remastered_Guitar,6,9,ninjyouuranagaya,0.29401740431785583,0
54,100,0.32272727272727275,145,1,84,_tunecore_Remastered_Guitar,6,5,ninjyouuranagaya,0.9998525381088257,1
52,100,0.12272727272727273,343,0,84,_tunecore_Remastered_Guitar,6,2,ninjyouuranagaya,0.3367723822593689,0
52,100,0.3409090909090909,470,0,84,_tunecore_Remastered_Guitar,6,5,ninjyouuranagaya,0.28795161843299866,0
52,100,0.4818181818181818,707,1,84,_tunecore_Remastered_Guitar,6,8,ninjyouuranagaya,0.2981798052787781,0
61,100,0.12272727272727273,157,1,85,_tunecore_Remastered_Guitar,6,2,ninjyouuranagaya,0.9933517575263977,0
54,100,0.1409090909090909,189,1,86,_tunecore_Remastered_Guitar,6,2,ninjyouuranagaya,0.999854326248169,1
63,100,0.35909090909090907,373,0,86,_tunecore_Remastered_Guitar,6,6,ninjyouuranagaya,0.303956001996994,0
59,100,0.1,663,1,86,_tunecore_Remastered_Guitar,6,2,ninjyouuranagaya,0.3015438914299011,0
52,100,0.17727272727272728,787,0,86,_tunecore_Remastered_Guitar,6,3,ninjyouuranagaya,0.3087620139122009,0
57,100,0.5409090909090909,210,1,87,_tunecore_Remastered_Guitar,6,9,ninjyouuranagaya,0.9996168613433838,1
52,100,0.1590909090909091,383,0,87,_tunecore_Remastered_Guitar,6,3,ninjyouuranagaya,0.5547422170639038,0
52,100,0.3181818181818182,30,1,88,_tunecore_Remastered_Guitar,6,5,ninjyouuranagaya,0.9996367692947388,1
59,100,0.2590909090909091,857,1,88,_tunecore_Remastered_Guitar,6,4,ninjyouuranagaya,0.541516125202179,0
59,100,0.1409090909090909,176,1,89,_tunecore_Remastered_Guitar,6,2,ninjyouuranagaya,0.999849796295166,1
52,100,1.0,352,0,89,_tunecore_Remastered_Guitar,6,15,ninjyouuranagaya,0.30193623900413513,0
64,100,0.11818181818181818,800,1,89,_tunecore_Remastered_Guitar,6,2,ninjyouuranagaya,0.31707143783569336,0
64,100,0.21818181818181817,832,0,89,_tunecore_Remastered_Guitar,6,3,ninjyouuranagaya,0.3061065971851349,0
64,100,0.4,480,1,90,_tunecore_Remastered_Guitar,6,6,ninjyouuranagaya,0.9998558759689331,1
59,100,0.1590909090909091,603,0,90,_tunecore_Remastered_Guitar,6,3,ninjyouuranagaya,0.31331953406333923,0
52,100,0.7227272727272728,673,0,90,_tunecore_Remastered_Guitar,6,12,ninjyouuranagaya,0.28185203671455383,0
59,100,0.22272727272727272,862,0,90,_tunecore_Remastered_Guitar,6,4,ninjyouuranagaya,0.31327006220817566,0
59,100,0.12272727272727273,35,1,91,_tunecore_Remastered_Guitar,6,2,ninjyouuranagaya,0.9998407363891602,1
59,100,0.6,113,0,91,_tunecore_Remastered_Guitar,6,10,ninjyouuranagaya,0.19873107969760895,0
54,100,0.12272727272727273,289,0,91,_tunecore_Remastered_Guitar,6,2,ninjyouuranagaya,0.20297540724277496,0
59,100,0.1590909090909091,787,1,91,_tunecore_Remastered_Guitar,6,3,ninjyouuranagaya,0.2060530185699463,0
52,100,0.21818181818181817,844,0,91,_tunecore_Remastered_Guitar,6,3,ninjyouuranagaya,0.2077193558216095,0
59,100,0.4,22,1,92,_tunecore_Remastered_Guitar,6,6,ninjyouuranagaya,0.9998461008071899,1
52,100,0.2,250,0,92,_tunecore_Remastered_Guitar,6,3,ninjyouuranagaya,0.3445131182670593,0
52,100,0.3409090909090909,386,0,92,_tunecore_Remastered_Guitar,6,5,ninjyouuranagaya,0.28929394483566284,0
52,100,0.35909090909090907,480,0,92,_tunecore_Remastered_Guitar,6,6,ninjyouuranagaya,0.30285829305648804,0
52,100,0.2,74,1,93,_tunecore_Remastered_Guitar,6,3,ninjyouuranagaya,0.999812662601471,1
52,100,1.1181818181818182,193,0,93,_tunecore_Remastered_Guitar,6,15,ninjyouuranagaya,0.10941705107688904,0
52,100,0.21818181818181817,493,1,93,_tunecore_Remastered_Guitar,6,3,ninjyouuranagaya,0.1373484581708908,0
52,100,0.1,646,0,93,_tunecore_Remastered_Guitar,6,2,ninjyouuranagaya,0.13725687563419342,0
54,100,0.11818181818181818,779,0,93,_tunecore_Remastered_Guitar,6,2,ninjyouuranagaya,0.14058886468410492,0
54,100,0.11818181818181818,823,0,93,_tunecore_Remastered_Guitar,6,2,ninjyouuranagaya,0.1314583271741867,0
54,100,0.11818181818181818,330,1,94,_tunecore_Remastered_Guitar,6,2,ninjyouuranagaya,0.9998412132263184,1
52,100,0.2,462,0,94,_tunecore_Remastered_Guitar,6,3,ninjyouuranagaya,0.41138455271720886,0
52,100,0.1590909090909091,739,1,94,_tunecore_Remastered_Guitar,6,3,ninjyouuranagaya,0.4226471781730652,0
52,100,0.7181818181818181,0,1,95,_tunecore_Remastered_Guitar,6,11,ninjyouuranagaya,0.9998124241828918,1
52,100,0.18181818181818182,563,1,95,_tunecore_Remastered_Guitar,6,3,ninjyouuranagaya,0.4341576397418976,0
52,100,1.0227272727272727,695,0,95,_tunecore_Remastered_Guitar,6,15,ninjyouuranagaya,0.41954123973846436,0
52,100,0.1,100,1,96,_tunecore_Remastered_Guitar,6,2,ninjyouuranagaya,0.9998483657836914,1
52,100,0.3,242,0,96,_tunecore_Remastered_Guitar,6,5,ninjyouuranagaya,0.1998155564069748,0
53,100,0.11818181818181818,326,0,96,_tunecore_Remastered_Guitar,6,2,ninjyouuranagaya,0.1977597028017044,0
54,100,0.2818181818181818,352,0,96,_tunecore_Remastered_Guitar,6,5,ninjyouuranagaya,0.20511478185653687,0
54,100,0.2409090909090909,800,1,96,_tunecore_Remastered_Guitar,6,4,ninjyouuranagaya,0.2026776671409607,0
52,100,0.5636363636363636,47,1,97,_tunecore_Remastered_Guitar,6,9,ninjyouuranagaya,0.9998233914375305,1
52,100,0.22272727272727272,210,0,97,_tunecore_Remastered_Guitar,6,4,ninjyouuranagaya,0.44016167521476746,0
52,100,0.1590909090909091,343,0,97,_tunecore_Remastered_Guitar,6,3,ninjyouuranagaya,0.4195517301559448,0
54,100,0.38181818181818183,26,1,98,_tunecore_Remastered_Guitar,6,6,ninjyouuranagaya,0.9997538924217224,1
54,100,0.1409090909090909,119,0,98,_tunecore_Remastered_Guitar,6,2,ninjyouuranagaya,0.08440563827753067,0
59,100,0.4,202,0,98,_tunecore_Remastered_Guitar,6,6,ninjyouuranagaya,0.07094786316156387,0
52,100,0.759090909090909,299,0,98,_tunecore_Remastered_Guitar,6,12,ninjyouuranagaya,0.08176934719085693,0
59,100,0.35909090909090907,502,0,98,_tunecore_Remastered_Guitar,6,6,ninjyouuranagaya,0.09558799862861633,0
54,100,0.35909090909090907,593,0,98,_tunecore_Remastered_Guitar,6,6,ninjyouuranagaya,0.09861623495817184,0
54,100,0.1,870,1,98,_tunecore_Remastered_Guitar,6,2,ninjyouuranagaya,0.09590131044387817,0
54,100,0.2,176,1,99,_tunecore_Remastered_Guitar,6,3,ninjyouuranagaya,0.9998526573181152,1
52,100,0.21818181818181817,550,1,99,_tunecore_Remastered_Guitar,6,3,ninjyouuranagaya,0.3347989320755005,0
52,100,0.4,673,0,99,_tunecore_Remastered_Guitar,6,6,ninjyouuranagaya,0.2834240198135376,0
52,100,0.2590909090909091,836,0,99,_tunecore_Remastered_Guitar,6,4,ninjyouuranagaya,0.3022094666957855,0
52,100,0.11818181818181818,197,1,100,_tunecore_Remastered_Guitar,6,2,ninjyouuranagaya,0.9998164772987366,1
52,100,0.2,303,0,100,_tunecore_Remastered_Guitar,6,3,ninjyouuranagaya,0.12146968394517899,0
61,100,0.11818181818181818,396,0,100,_tunecore_Remastered_Guitar,6,2,ninjyouuranagaya,0.11771626770496368,0
52,100,0.17727272727272728,580,0,100,_tunecore_Remastered_Guitar,6,3,ninjyouuranagaya,0.13354146480560303,0
61,100,0.4,646,0,100,_tunecore_Remastered_Guitar,6,6,ninjyouuranagaya,0.13357169926166534,0
64,100,0.12272727272727273,783,0,100,_tunecore_Remastered_Guitar,6,2,ninjyouuranagaya,0.13343967497348785,0
64,100,0.11818181818181818,127,1,101,_tunecore_Remastered_Guitar,6,2,ninjyouuranagaya,0.9998094439506531,1
64,100,0.1,172,0,101,_tunecore_Remastered_Guitar,6,2,ninjyouuranagaya,0.12929797172546387,0
64,100,0.3409090909090909,206,0,101,_tunecore_Remastered_Guitar,6,5,ninjyouuranagaya,0.11460297554731369,0
52,100,0.16363636363636364,356,0,101,_tunecore_Remastered_Guitar,6,3,ninjyouuranagaya,0.13194935023784637,0
52,100,0.1409090909090909,426,0,101,_tunecore_Remastered_Guitar,6,2,ninjyouuranagaya,0.13719525933265686,0
53,100,0.11818181818181818,462,0,101,_tunecore_Remastered_Guitar,6,2,ninjyouuranagaya,0.12221746891736984,0
52,100,0.11818181818181818,303,1,102,_tunecore_Remastered_Guitar,6,2,ninjyouuranagaya,0.9998587369918823,1
52,100,0.6,590,1,102,_tunecore_Remastered_Guitar,6,10,ninjyouuranagaya,0.31131288409233093,0
59,100,0.2409090909090909,800,0,102,_tunecore_Remastered_Guitar,6,4,ninjyouuranagaya,0.28937193751335144,0
61,100,0.1,857,0,102,_tunecore_Remastered_Guitar,6,2,ninjyouuranagaya,0.30887943506240845,0
64,100,0.32272727272727275,123,1,103,_tunecore_Remastered_Guitar,6,5,ninjyouuranagaya,0.9997701048851013,1
66,100,0.1590909090909091,396,1,103,_tunecore_Remastered_Guitar,6,3,ninjyouuranagaya,0.07885277271270752,0
68,100,0.37727272727272726,449,0,103,_tunecore_Remastered_Guitar,6,6,ninjyouuranagaya,0.07198388874530792,0
66,100,0.37727272727272726,559,0,103,_tunecore_Remastered_Guitar,6,6,ninjyouuranagaya,0.07891039550304413,0
66,100,0.17727272727272728,677,0,103,_tunecore_Remastered_Guitar,6,3,ninjyouuranagaya,0.09469445794820786,0
64,100,0.1,800,0,103,_tunecore_Remastered_Guitar,6,2,ninjyouuranagaya,0.09834519028663635,0
64,100,0.18181818181818182,862,0,103,_tunecore_Remastered_Guitar,6,3,ninjyouuranagaya,0.08743772655725479,0
61,100,0.18181818181818182,26,1,104,_tunecore_Remastered_Guitar,6,3,ninjyouuranagaya,0.9998307228088379,1
59,100,0.7,69,0,104,_tunecore_Remastered_Guitar,6,11,ninjyouuranagaya,0.19423021376132965,0
59,100,0.2590909090909091,255,0,104,_tunecore_Remastered_Guitar,6,4,ninjyouuranagaya,0.2156054973602295,0
64,100,0.2590909090909091,440,0,104,_tunecore_Remastered_Guitar,6,4,ninjyouuranagaya,0.22089314460754395,0
64,100,0.3,593,0,104,_tunecore_Remastered_Guitar,6,5,ninjyouuranagaya,0.205653578042984,0
59,100,0.2,123,1,105,_tunecore_Remastered_Guitar,6,3,ninjyouuranagaya,0.9997280240058899,1
61,100,0.37727272727272726,172,0,105,_tunecore_Remastered_Guitar,6,6,ninjyouuranagaya,0.05590618774294853,0
64,100,0.2636363636363636,267,0,105,_tunecore_Remastered_Guitar,6,4,ninjyouuranagaya,0.048320282250642776,0
59,100,0.1590909090909091,550,1,105,_tunecore_Remastered_Guitar,6,3,ninjyouuranagaya,0.047546565532684326,0
66,100,0.1,593,0,105,_tunecore_Remastered_Guitar,6,2,ninjyouuranagaya,0.050242844969034195,0
68,100,0.1409090909090909,637,0,105,_tunecore_Remastered_Guitar,6,2,ninjyouuranagaya,0.06121862679719925,0
66,100,0.2,690,0,105,_tunecore_Remastered_Guitar,6,3,ninjyouuranagaya,0.06437169760465622,0
64,100,0.42272727272727273,739,0,105,_tunecore_Remastered_Guitar,6,7,ninjyouuranagaya,0.06186043098568916,0
64,100,0.2409090909090909,0,1,106,_tunecore_Remastered_Guitar,6,4,ninjyouuranagaya,0.9998077750205994,1
54,100,0.6,66,0,106,_tunecore_Remastered_Guitar,6,10,ninjyouuranagaya,0.12084854394197464,0
66,100,0.6181818181818182,263,0,106,_tunecore_Remastered_Guitar,6,10,ninjyouuranagaya,0.11900553852319717,0
52,100,0.38181818181818183,422,0,106,_tunecore_Remastered_Guitar,6,6,ninjyouuranagaya,0.14468923211097717,0
59,100,0.11818181818181818,792,1,106,_tunecore_Remastered_Guitar,6,2,ninjyouuranagaya,0.14587897062301636,0
59,100,0.5227272727272727,839,0,106,_tunecore_Remastered_Guitar,6,8,ninjyouuranagaya,0.13089409470558167,0
56,100,0.12272727272727273,575,1,4,_Remix_Guitar,6,2,watasino Stems,0.9927905797958374,0
58,100,0.18181818181818182,66,1,5,_Remix_Guitar,6,3,watasino Stems,0.9997594952583313,1
58,100,0.1,128,0,5,_Remix_Guitar,6,2,watasino Stems,0.08081856369972229,0
58,100,0.12272727272727273,232,0,5,_Remix_Guitar,6,2,watasino Stems,0.07623496651649475,0
56,100,0.13636363636363635,391,0,5,_Remix_Guitar,6,2,watasino Stems,0.08225493878126144,0
63,100,0.12272727272727273,431,0,5,_Remix_Guitar,6,2,watasino Stems,0.09103397279977798,0
56,100,0.2590909090909091,550,0,5,_Remix_Guitar,6,4,watasino Stems,0.09760072082281113,0
65,100,0.1409090909090909,778,0,5,_Remix_Guitar,6,2,watasino Stems,0.08817808330059052,0
58,100,0.22272727272727272,12,1,6,_Remix_Guitar,6,4,watasino Stems,0.9998182654380798,1
65,100,0.38181818181818183,286,1,6,_Remix_Guitar,6,6,watasino Stems,0.22338321805000305,0
55,100,0.2,399,0,6,_Remix_Guitar,6,3,watasino Stems,0.19838501513004303,0
55,100,0.21818181818181817,493,0,6,_Remix_Guitar,6,3,watasino Stems,0.21218396723270416,0
55,100,0.13636363636363635,678,0,6,_Remix_Guitar,6,2,watasino Stems,0.2088012993335724,0
70,100,0.1409090909090909,342,1,7,_Remix_Guitar,6,2,watasino Stems,0.9998461008071899,1
55,100,0.1409090909090909,581,1,7,_Remix_Guitar,6,2,watasino Stems,0.3259068727493286,0
55,100,0.1,810,0,7,_Remix_Guitar,6,2,watasino Stems,0.29760485887527466,0
63,100,0.22272727272727272,871,0,7,_Remix_Guitar,6,4,watasino Stems,0.3065931797027588,0
56,100,0.4818181818181818,254,1,8,_Remix_Guitar,6,8,watasino Stems,0.9995986819267273,1
58,100,0.11818181818181818,814,1,8,_Remix_Guitar,6,2,watasino Stems,0.5469016432762146,0
55,100,0.11818181818181818,22,1,9,_Remix_Guitar,6,2,watasino Stems,0.993057131767273,1
58,100,0.12272727272727273,553,1,10,_Remix_Guitar,6,2,watasino Stems,0.9925064444541931,0
58,100,0.12272727272727273,101,1,13,_Remix_Guitar,6,2,watasino Stems,0.999609649181366,1
56,100,0.16363636363636364,465,1,13,_Remix_Guitar,6,3,watasino Stems,0.5656160116195679,0
58,100,0.2590909090909091,326,1,14,_Remix_Guitar,6,4,watasino Stems,0.9995678067207336,1
63,100,0.18181818181818182,474,0,14,_Remix_Guitar,6,3,watasino Stems,0.5610119700431824,0
53,100,0.11818181818181818,876,1,15,_Remix_Guitar,6,2,watasino Stems,0.9934822916984558,0
53,100,0.11818181818181818,44,1,16,_Remix_Guitar,6,2,watasino Stems,0.9935042262077332,1
58,100,0.4772727272727273,449,1,18,_Remix_Guitar,6,8,watasino Stems,0.9917632341384888,0
58,100,0.5,246,1,19,_Remix_Guitar,6,8,watasino Stems,0.9995408058166504,1
63,100,0.7,660,1,19,_Remix_Guitar,6,11,watasino Stems,0.5604315400123596,0
58,100,0.41818181818181815,528,1,20,_Remix_Guitar,6,7,watasino Stems,0.9920899868011475,0
58,100,0.18181818181818182,34,1,21,_Remix_Guitar,6,3,watasino Stems,0.9998080134391785,1
58,100,0.1590909090909091,119,0,21,_Remix_Guitar,6,3,watasino Stems,0.4291228652000427,0
58,100,0.41818181818181815,615,1,21,_Remix_Guitar,6,7,watasino Stems,0.4297617971897125,0
56,100,0.1409090909090909,405,1,22,_Remix_Guitar,6,2,watasino Stems,0.999653697013855,1
56,100,0.3,602,0,22,_Remix_Guitar,6,5,watasino Stems,0.5385794639587402,0
53,100,0.18181818181818182,268,1,23,_Remix_Guitar,6,3,watasino Stems,0.9998308420181274,1
58,100,0.21818181818181817,316,0,23,_Remix_Guitar,6,3,watasino Stems,0.40181538462638855,0
58,100,0.1409090909090909,818,1,23,_Remix_Guitar,6,2,watasino Stems,0.4321554899215698,0
58,100,0.2590909090909091,743,1,24,_Remix_Guitar,6,4,watasino Stems,0.992425799369812,0
53,100,0.41818181818181815,52,1,25,_Remix_Guitar,6,7,watasino Stems,0.9998306035995483,1
53,100,0.11818181818181818,206,0,25,_Remix_Guitar,6,2,watasino Stems,0.2193436622619629,0
58,100,0.4,246,0,25,_Remix_Guitar,6,6,watasino Stems,0.18484078347682953,0
53,100,0.18181818181818182,474,0,25,_Remix_Guitar,6,3,watasino Stems,0.2231006771326065,0
58,100,0.11818181818181818,700,0,25,_Remix_Guitar,6,2,watasino Stems,0.20711977779865265,0
58,100,0.3,61,1,26,_Remix_Guitar,6,5,watasino Stems,0.9998284578323364,1
53,100,0.17727272727272728,140,0,26,_Remix_Guitar,6,3,watasino Stems,0.3597571849822998,0
58,100,0.8227272727272728,422,1,26,_Remix_Guitar,6,13,watasino Stems,0.2742210328578949,0
58,100,0.2,849,1,26,_Remix_Guitar,6,3,watasino Stems,0.3350982666015625,0
63,100,0.1590909090909091,88,1,27,_Remix_Guitar,6,3,watasino Stems,0.9998469352722168,1
58,100,0.21818181818181817,281,0,27,_Remix_Guitar,6,3,watasino Stems,0.3121150732040405,0
65,100,0.17727272727272728,633,1,27,_Remix_Guitar,6,3,watasino Stems,0.3155679404735565,0
58,100,0.41818181818181815,822,0,27,_Remix_Guitar,6,7,watasino Stems,0.29961416125297546,0
55,100,0.1409090909090909,113,1,28,_Remix_Guitar,6,2,watasino Stems,0.9996272325515747,1
58,100,0.22272727272727272,752,1,28,_Remix_Guitar,6,4,watasino Stems,0.5420184135437012,0
58,100,0.1409090909090909,131,1,29,_Remix_Guitar,6,2,watasino Stems,0.9995912909507751,1
58,100,0.22272727272727272,320,0,29,_Remix_Guitar,6,4,watasino Stems,0.5513538718223572,0
58,100,0.2,44,1,30,_Remix_Guitar,6,3,watasino Stems,0.999833345413208,1
58,100,0.38181818181818183,285,1,30,_Remix_Guitar,6,6,watasino Stems,0.31430813670158386,0
63,100,0.21818181818181817,567,1,30,_Remix_Guitar,6,3,watasino Stems,0.31702253222465515,0
70,100,0.1,633,0,30,_Remix_Guitar,6,2,watasino Stems,0.32127103209495544,0
58,100,0.1409090909090909,69,1,31,_Remix_Guitar,6,2,watasino Stems,0.9998100399971008,1
56,100,0.2,167,0,31,_Remix_Guitar,6,3,watasino Stems,0.4398725926876068,0
58,100,0.2,796,1,31,_Remix_Guitar,6,3,watasino Stems,0.42437058687210083,0
58,100,0.2409090909090909,311,1,32,_Remix_Guitar,6,4,watasino Stems,0.9998329877853394,1
63,100,0.21818181818181817,391,0,32,_Remix_Guitar,6,3,watasino Stems,0.3420334458351135,0
63,100,0.21818181818181817,678,1,32,_Remix_Guitar,6,3,watasino Stems,0.2984759509563446,0
63,100,0.18181818181818182,783,0,32,_Remix_Guitar,6,3,watasino Stems,0.3156985640525818,0
53,100,0.1590909090909091,743,1,33,_Remix_Guitar,6,3,watasino Stems,0.9996508359909058,1
53,100,0.1409090909090909,804,0,33,_Remix_Guitar,6,2,watasino Stems,0.547166645526886,0
53,100,0.4818181818181818,43,1,34,_Remix_Guitar,6,8,watasino Stems,0.9997639060020447,1
53,100,0.18181818181818182,158,0,34,_Remix_Guitar,6,3,watasino Stems,0.08215857297182083,0
53,100,0.3181818181818182,215,0,34,_Remix_Guitar,6,5,watasino Stems,0.07128185778856277,0
53,100,0.2,295,0,34,_Remix_Guitar,6,3,watasino Stems,0.08220986276865005,0
63,100,0.1,606,1,34,_Remix_Guitar,6,2,watasino Stems,0.09089691191911697,0
60,100,0.32272727272727275,708,0,34,_Remix_Guitar,6,5,watasino Stems,0.09855259209871292,0
53,100,0.5772727272727273,831,0,34,_Remix_Guitar,6,9,watasino Stems,0.08209025859832764,0
53,100,0.1590909090909091,128,1,35,_Remix_Guitar,6,3,watasino Stems,0.9998342990875244,1
58,100,0.1409090909090909,373,1,35,_Remix_Guitar,6,2,watasino Stems,0.39823514223098755,0
58,100,0.2818181818181818,431,0,35,_Remix_Guitar,6,5,watasino Stems,0.4293399155139923,0
58,100,0.21818181818181817,163,1,37,_Remix_Guitar,6,3,watasino Stems,0.999809205532074,1
58,100,0.12272727272727273,584,1,37,_Remix_Guitar,6,2,watasino Stems,0.43119317293167114,0
63,100,0.1409090909090909,770,0,37,_Remix_Guitar,6,2,watasino Stems,0.4367283284664154,0
62,100,0.17727272727272728,185,1,38,_Remix_Guitar,6,3,watasino Stems,0.9998306035995483,1
58,100,0.37727272727272726,448,1,38,_Remix_Guitar,6,6,watasino Stems,0.389305055141449,0
58,100,0.3,536,0,38,_Remix_Guitar,6,5,watasino Stems,0.4338063597679138,0
58,100,0.2,338,1,39,_Remix_Guitar,6,3,watasino Stems,0.9998176693916321,1
58,100,0.2590909090909091,748,1,39,_Remix_Guitar,6,4,watasino Stems,0.4129439890384674,0
56,100,0.1409090909090909,823,0,39,_Remix_Guitar,6,2,watasino Stems,0.44388359785079956,0
58,100,0.16363636363636364,246,1,40,_Remix_Guitar,6,3,watasino Stems,0.9997541308403015,1
53,100,0.18181818181818182,308,0,40,_Remix_Guitar,6,3,watasino Stems,0.08512336760759354,0
65,100,0.18181818181818182,373,0,40,_Remix_Guitar,6,3,watasino Stems,0.07528116554021835,0
58,100,0.2,418,0,40,_Remix_Guitar,6,3,watasino Stems,0.07673909515142441,0
58,100,0.11818181818181818,550,0,40,_Remix_Guitar,6,2,watasino Stems,0.0934295579791069,0
53,100,0.2,655,0,40,_Remix_Guitar,6,3,watasino Stems,0.10119600594043732,0
58,100,0.1590909090909091,703,0,40,_Remix_Guitar,6,3,watasino Stems,0.08741378039121628,0
58,100,0.1590909090909091,496,1,41,_Remix_Guitar,6,3,watasino Stems,0.999584972858429,1
58,100,0.3181818181818182,536,0,41,_Remix_Guitar,6,5,watasino Stems,0.5457140207290649,0
58,100,0.1590909090909091,21,1,42,_Remix_Guitar,6,3,watasino Stems,0.9998134970664978,1
58,100,0.2818181818181818,638,1,42,_Remix_Guitar,6,5,watasino Stems,0.42110317945480347,0
58,100,0.21818181818181817,823,0,42,_Remix_Guitar,6,3,watasino Stems,0.4328995943069458,0
58,100,0.2,179,1,43,_Remix_Guitar,6,3,watasino Stems,0.9995817542076111,1
58,100,0.18181818181818182,298,0,43,_Remix_Guitar,6,3,watasino Stems,0.5547322630882263,0
58,100,0.21818181818181817,31,1,45,_Remix_Guitar,6,3,watasino Stems,0.9997815489768982,1
56,100,0.18181818181818182,114,0,45,_Remix_Guitar,6,3,watasino Stems,0.141585573554039,0
58,100,0.2590909090909091,228,0,45,_Remix_Guitar,6,4,watasino Stems,0.1182495504617691,0
58,100,0.1590909090909091,338,0,45,_Remix_Guitar,6,3,watasino Stems,0.1436290740966797,0
58,100,0.2818181818181818,378,0,45,_Remix_Guitar,6,5,watasino Stems,0.1463945060968399,0
63,100,0.1409090909090909,461,0,45,_Remix_Guitar,6,2,watasino Stems,0.14592291414737701,0
56,100,0.1,56,1,46,_Remix_Guitar,6,2,watasino Stems,0.9998557567596436,1
63,100,0.2,171,0,46,_Remix_Guitar,6,3,watasino Stems,0.3092544376850128,0
56,100,0.6,474,1,46,_Remix_Guitar,6,10,watasino Stems,0.2879732847213745,0
58,100,0.3,770,1,46,_Remix_Guitar,6,5,watasino Stems,0.3182634115219116,0
58,100,0.22272727272727272,123,1,47,_Remix_Guitar,6,4,watasino Stems,0.9998049139976501,1
63,100,0.2,303,0,47,_Remix_Guitar,6,3,watasino Stems,0.4301738739013672,0
58,100,0.1590909090909091,810,1,47,_Remix_Guitar,6,3,watasino Stems,0.4353488087654114,0
55,100,0.3181818181818182,150,1,48,_Remix_Guitar,6,5,watasino Stems,0.9998399019241333,1
58,100,0.4818181818181818,289,0,48,_Remix_Guitar,6,8,watasino Stems,0.3024311661720276,0
53,100,0.12272727272727273,554,1,48,_Remix_Guitar,6,2,watasino Stems,0.3227798342704773,0
53,100,0.2590909090909091,646,0,48,_Remix_Guitar,6,4,watasino Stems,0.31062954664230347,0
58,100,0.2,356,1,50,_Remix_Guitar,6,3,watasino Stems,0.9998098015785217,1
58,100,0.16363636363636364,444,0,50,_Remix_Guitar,6,3,watasino Stems,0.4192218482494354,0
58,100,0.32272727272727275,651,0,50,_Remix_Guitar,6,5,watasino Stems,0.43389418721199036,0
58,100,0.1409090909090909,518,1,51,_Remix_Guitar,6,2,watasino Stems,0.9998124241828918,1
63,100,0.2,576,0,51,_Remix_Guitar,6,3,watasino Stems,0.4269077777862549,0
63,100,0.18181818181818182,871,1,51,_Remix_Guitar,6,3,watasino Stems,0.4334042966365814,0
63,100,0.16363636363636364,69,1,52,_Remix_Guitar,6,3,watasino Stems,0.9998242259025574,1
63,100,0.11818181818181818,198,0,52,_Remix_Guitar,6,2,watasino Stems,0.4260607659816742,0
63,100,0.5,778,1,52,_Remix_Guitar,6,8,watasino Stems,0.4158555269241333,0
63,100,0.37727272727272726,171,1,53,_Remix_Guitar,6,6,watasino Stems,0.9998263716697693,1
56,100,0.1409090909090909,268,0,53,_Remix_Guitar,6,2,watasino Stems,0.23247408866882324,0
58,100,0.21818181818181817,483,0,53,_Remix_Guitar,6,3,watasino Stems,0.2005687654018402,0
58,100,0.21818181818181817,568,0,53,_Remix_Guitar,6,3,watasino Stems,0.2169683277606964,0
58,100,0.5590909090909091,646,0,53,_Remix_Guitar,6,9,watasino Stems,0.20695514976978302,0
58,100,0.1409090909090909,474,1,55,_Remix_Guitar,6,2,watasino Stems,0.9998297691345215,1
58,100,0.1409090909090909,673,0,55,_Remix_Guitar,6,2,watasino Stems,0.3476986885070801,0
58,100,0.2409090909090909,796,0,55,_Remix_Guitar,6,4,watasino Stems,0.3026088774204254,0
58,100,0.13636363636363635,853,0,55,_Remix_Guitar,6,2,watasino Stems,0.3180033564567566,0
58,100,0.1590909090909091,83,1,56,_Remix_Guitar,6,3,watasino Stems,0.9998342990875244,1
60,100,0.5,141,0,56,_Remix_Guitar,6,8,watasino Stems,0.33197376132011414,0
60,100,0.2818181818181818,431,1,56,_Remix_Guitar,6,5,watasino Stems,0.30417510867118835,0
53,100,0.1,641,0,56,_Remix_Guitar,6,2,watasino Stems,0.308709979057312,0
58,100,0.22272727272727272,101,1,57,_Remix_Guitar,6,4,watasino Stems,0.9995934367179871,1
55,100,0.1,826,1,57,_Remix_Guitar,6,2,watasino Stems,0.5601944327354431,0
60,100,0.16363636363636364,488,1,58,_Remix_Guitar,6,3,watasino Stems,0.9996531009674072,1
58,100,0.1,581,0,58,_Remix_Guitar,6,2,watasino Stems,0.5315489768981934,0
55,100,0.11818181818181818,625,1,59,_Remix_Guitar,6,2,watasino Stems,0.9996317625045776,1
58,100,0.1409090909090909,770,0,59,_Remix_Guitar,6,2,watasino Stems,0.5385611057281494,0
53,100,0.12272727272727273,584,1,60,_Remix_Guitar,6,2,watasino Stems,0.9936019778251648,1
74,100,0.5,726,1,61,_Remix_Guitar,6,8,watasino Stems,0.9928019046783447,0
58,100,0.3,96,1,62,_Remix_Guitar,6,5,watasino Stems,0.9998064637184143,1
58,100,0.1409090909090909,364,1,62,_Remix_Guitar,6,2,watasino Stems,0.42901915311813354,0
58,100,0.18181818181818182,738,1,62,_Remix_Guitar,6,3,watasino Stems,0.43745821714401245,0
58,100,0.22272727272727272,136,1,63,_Remix_Guitar,6,4,watasino Stems,0.9998317956924438,1
58,100,0.22272727272727272,233,0,63,_Remix_Guitar,6,4,watasino Stems,0.3304464817047119,0
58,100,0.3181818181818182,616,1,63,_Remix_Guitar,6,5,watasino Stems,0.2999584376811981,0
55,100,0.2,743,0,63,_Remix_Guitar,6,3,watasino Stems,0.33337080478668213,0
58,100,0.21818181818181817,176,1,64,_Remix_Guitar,6,3,watasino Stems,0.9922147393226624,0
58,100,0.4,267,1,65,_Remix_Guitar,6,6,watasino Stems,0.9997963309288025,1
58,100,0.33636363636363636,567,1,65,_Remix_Guitar,6,5,watasino Stems,0.42636018991470337,0
58,100,0.21818181818181817,713,0,65,_Remix_Guitar,6,3,watasino Stems,0.4485146105289459,0
58,100,0.1409090909090909,343,1,66,_Remix_Guitar,6,2,watasino Stems,0.9995976090431213,1
55,100,0.1409090909090909,839,1,66,_Remix_Guitar,6,2,watasino Stems,0.5539682507514954,0
55,100,0.1,303,1,67,_Remix_Guitar,6,2,watasino Stems,0.9998313188552856,1
55,100,0.11818181818181818,360,0,67,_Remix_Guitar,6,2,watasino Stems,0.21380625665187836,0
56,100,0.1409090909090909,422,0,67,_Remix_Guitar,6,2,watasino Stems,0.20220419764518738,0
58,100,0.1409090909090909,550,0,67,_Remix_Guitar,6,2,watasino Stems,0.20494118332862854,0
53,100,0.16363636363636364,839,1,67,_Remix_Guitar,6,3,watasino Stems,0.20991171896457672,0
53,100,0.2,30,1,68,_Remix_Guitar,6,3,watasino Stems,0.9998382329940796,1
58,100,0.3409090909090909,223,0,68,_Remix_Guitar,6,5,watasino Stems,0.2019805610179901,0
58,100,0.3181818181818182,339,0,68,_Remix_Guitar,6,5,watasino Stems,0.20288582146167755,0
58,100,0.3181818181818182,436,0,68,_Remix_Guitar,6,5,watasino Stems,0.22301340103149414,0
58,100,0.3,527,0,68,_Remix_Guitar,6,5,watasino Stems,0.21555285155773163,0
58,100,0.17727272727272728,163,1,69,_Remix_Guitar,6,3,watasino Stems,0.9998230338096619,1
53,100,0.17727272727272728,347,0,69,_Remix_Guitar,6,3,watasino Stems,0.22427015006542206,0
56,100,0.1409090909090909,637,1,69,_Remix_Guitar,6,2,watasino Stems,0.20011335611343384,0
53,100,0.2590909090909091,722,0,69,_Remix_Guitar,6,4,watasino Stems,0.20710939168930054,0
53,100,0.1590909090909091,832,0,69,_Remix_Guitar,6,3,watasino Stems,0.20001620054244995,0
53,100,0.18181818181818182,47,1,70,_Remix_Guitar,6,3,watasino Stems,0.9998354911804199,1
53,100,0.4,127,0,70,_Remix_Guitar,6,6,watasino Stems,0.20544834434986115,0
58,100,0.11818181818181818,417,1,70,_Remix_Guitar,6,2,watasino Stems,0.20640146732330322,0
70,100,0.1590909090909091,470,0,70,_Remix_Guitar,6,3,watasino Stems,0.21524246037006378,0
58,100,0.12272727272727273,783,1,70,_Remix_Guitar,6,2,watasino Stems,0.2099951207637787,0
58,100,0.1,30,1,71,_Remix_Guitar,6,2,watasino Stems,0.9997925162315369,1
58,100,0.1590909090909091,140,0,71,_Remix_Guitar,6,3,watasino Stems,0.12974920868873596,0
58,100,0.3409090909090909,184,0,71,_Remix_Guitar,6,5,watasino Stems,0.1266777068376541,0
58,100,0.12272727272727273,333,0,71,_Remix_Guitar,6,2,watasino Stems,0.14431412518024445,0
56,100,0.1590909090909091,496,0,71,_Remix_Guitar,6,3,watasino Stems,0.16393397748470306,0
58,100,0.12272727272727273,752,1,71,_Remix_Guitar,6,2,watasino Stems,0.13762706518173218,0
58,100,0.18181818181818182,43,1,72,_Remix_Guitar,6,3,watasino Stems,0.9998250603675842,1
58,100,0.1590909090909091,189,0,72,_Remix_Guitar,6,3,watasino Stems,0.2133931815624237,0
58,100,0.1409090909090909,462,1,72,_Remix_Guitar,6,2,watasino Stems,0.20523522794246674,0
58,100,0.1,619,0,72,_Remix_Guitar,6,2,watasino Stems,0.2153761088848114,0
55,100,0.17727272727272728,722,0,72,_Remix_Guitar,6,3,watasino Stems,0.21984222531318665,0
58,100,0.2,0,1,73,_Remix_Guitar,6,3,watasino Stems,0.9998199343681335,1
55,100,0.12272727272727273,365,1,73,_Remix_Guitar,6,2,watasino Stems,0.2278277575969696,0
70,100,0.1590909090909091,493,0,73,_Remix_Guitar,6,3,watasino Stems,0.19704243540763855,0
56,100,0.2,779,1,73,_Remix_Guitar,6,3,watasino Stems,0.21968425810337067,0
56,100,0.1590909090909091,836,0,73,_Remix_Guitar,6,3,watasino Stems,0.21098923683166504,0
58,100,0.2818181818181818,47,1,74,_Remix_Guitar,6,5,watasino Stems,0.9997327923774719,1
58,100,0.2409090909090909,136,0,74,_Remix_Guitar,6,4,watasino Stems,0.08522359281778336,0
58,100,0.1,250,0,74,_Remix_Guitar,6,2,watasino Stems,0.08075691759586334,0
58,100,0.22272727272727272,276,0,74,_Remix_Guitar,6,4,watasino Stems,0.08162885904312134,0
53,100,0.2409090909090909,449,0,74,_Remix_Guitar,6,4,watasino Stems,0.10331094264984131,0
58,100,0.2409090909090909,726,1,74,_Remix_Guitar,6,4,watasino Stems,0.09854007512331009,0
55,100,0.18181818181818182,813,0,74,_Remix_Guitar,6,3,watasino Stems,0.09924887865781784,0
58,100,0.18181818181818182,0,1,75,_Remix_Guitar,6,3,watasino Stems,0.9998360872268677,1
55,100,0.35909090909090907,237,1,75,_Remix_Guitar,6,6,watasino Stems,0.3409670889377594,0
56,100,0.1409090909090909,796,1,75,_Remix_Guitar,6,2,watasino Stems,0.3066577613353729,0
56,100,0.17727272727272728,876,0,75,_Remix_Guitar,6,3,watasino Stems,0.30922332406044006,0
58,100,0.2409090909090909,399,1,76,_Remix_Guitar,6,4,watasino Stems,0.9998369216918945,1
58,100,0.12272727272727273,553,0,76,_Remix_Guitar,6,2,watasino Stems,0.3287971019744873,0
58,100,0.22272727272727272,597,0,76,_Remix_Guitar,6,4,watasino Stems,0.29776304960250854,0
55,100,0.17727272727272728,832,1,76,_Remix_Guitar,6,3,watasino Stems,0.3248220980167389,0
58,100,0.1409090909090909,43,1,77,_Remix_Guitar,6,2,watasino Stems,0.9998157620429993,1
63,100,0.23636363636363636,436,1,77,_Remix_Guitar,6,4,watasino Stems,0.41845622658729553,0
63,100,0.3,593,0,77,_Remix_Guitar,6,5,watasino Stems,0.4299284815788269,0
53,100,0.3181818181818182,0,1,78,_Remix_Guitar,6,5,watasino Stems,0.9997279047966003,1
53,100,0.13636363636363635,106,0,78,_Remix_Guitar,6,2,watasino Stems,0.05742305517196655,0
53,100,0.4590909090909091,166,0,78,_Remix_Guitar,6,7,watasino Stems,0.045318733900785446,0
53,100,0.7,343,0,78,_Remix_Guitar,6,11,watasino Stems,0.04618942365050316,0
53,100,0.4818181818181818,619,1,78,_Remix_Guitar,6,8,watasino Stems,0.054419174790382385,0
53,100,0.11818181818181818,770,0,78,_Remix_Guitar,6,2,watasino Stems,0.06306646764278412,0
53,100,0.1,800,0,78,_Remix_Guitar,6,2,watasino Stems,0.06698296964168549,0
53,100,0.11818181818181818,857,0,78,_Remix_Guitar,6,2,watasino Stems,0.06148666515946388,0
58,100,0.12272727272727273,79,1,79,_Remix_Guitar,6,2,watasino Stems,0.9998377561569214,1
58,100,0.1590909090909091,119,0,79,_Remix_Guitar,6,3,watasino Stems,0.31908032298088074,0
63,100,0.7,246,0,79,_Remix_Guitar,6,11,watasino Stems,0.2867470979690552,0
53,100,0.35909090909090907,660,1,79,_Remix_Guitar,6,6,watasino Stems,0.33326637744903564,0
53,100,0.2,22,1,80,_Remix_Guitar,6,3,watasino Stems,0.9998056292533875,1
58,100,0.1409090909090909,333,1,80,_Remix_Guitar,6,2,watasino Stems,0.11677546799182892,0
53,100,0.2409090909090909,409,0,80,_Remix_Guitar,6,4,watasino Stems,0.1273118406534195,0
53,100,0.21818181818181817,506,0,80,_Remix_Guitar,6,3,watasino Stems,0.13586971163749695,0
53,100,0.11818181818181818,616,0,80,_Remix_Guitar,6,2,watasino Stems,0.1418851763010025,0
53,100,0.1409090909090909,686,0,80,_Remix_Guitar,6,2,watasino Stems,0.13482563197612762,0
55,100,0.1,800,1,81,_Remix_Guitar,6,2,watasino Stems,0.9931380152702332,1
55,100,0.38181818181818183,166,1,82,_Remix_Guitar,6,6,watasino Stems,0.9925078749656677,0
63,100,0.2,13,1,83,_Remix_Guitar,6,3,watasino Stems,0.9996230602264404,1
58,100,0.11818181818181818,792,1,83,_Remix_Guitar,6,2,watasino Stems,0.5455889105796814,0
58,100,0.1409090909090909,823,1,84,_Remix_Guitar,6,2,watasino Stems,0.9995797276496887,1
58,100,0.1590909090909091,857,0,84,_Remix_Guitar,6,3,watasino Stems,0.5534608960151672,0
58,100,0.2772727272727273,216,1,85,_Remix_Guitar,6,4,watasino Stems,0.9997989535331726,1
58,100,0.5,299,0,85,_Remix_Guitar,6,8,watasino Stems,0.412201851606369,0
56,100,0.2409090909090909,550,1,85,_Remix_Guitar,6,4,watasino Stems,0.4534580707550049,0
58,100,0.17727272727272728,62,1,86,_Remix_Guitar,6,3,watasino Stems,0.9998388290405273,1
53,100,0.42272727272727273,255,0,86,_Remix_Guitar,6,7,watasino Stems,0.33300745487213135,0
53,100,0.1590909090909091,453,0,86,_Remix_Guitar,6,3,watasino Stems,0.3018600344657898,0
55,100,0.2,673,0,86,_Remix_Guitar,6,3,watasino Stems,0.30686357617378235,0
60,100,0.1,289,1,87,_Remix_Guitar,6,2,watasino Stems,0.9998148083686829,1
60,100,0.2,413,0,87,_Remix_Guitar,6,3,watasino Stems,0.12222111225128174,0
60,100,0.18181818181818182,462,0,87,_Remix_Guitar,6,3,watasino Stems,0.1174226701259613,0
60,100,0.2,519,0,87,_Remix_Guitar,6,3,watasino Stems,0.12941662967205048,0
60,100,0.11818181818181818,743,0,87,_Remix_Guitar,6,2,watasino Stems,0.13940563797950745,0
60,100,0.11818181818181818,876,0,87,_Remix_Guitar,6,2,watasino Stems,0.12769481539726257,0
60,100,0.13636363636363635,62,1,88,_Remix_Guitar,6,2,watasino Stems,0.9936442375183105,1
58,100,0.3,179,1,89,_Remix_Guitar,6,5,watasino Stems,0.9922671914100647,0
60,100,0.12272727272727273,145,1,90,_Remix_Guitar,6,2,watasino Stems,0.9998607635498047,1
60,100,0.41818181818181815,193,0,90,_Remix_Guitar,6,7,watasino Stems,0.30371084809303284,0
53,100,0.21818181818181817,470,1,90,_Remix_Guitar,6,3,watasino Stems,0.29246631264686584,0
65,100,0.11818181818181818,787,1,90,_Remix_Guitar,6,2,watasino Stems,0.3044845163822174,0
67,100,0.11818181818181818,184,1,91,_Remix_Guitar,6,2,watasino Stems,0.993156373500824,0
63,100,0.1590909090909091,339,1,92,_Remix_Guitar,6,3,watasino Stems,0.9998457431793213,1
58,100,0.13636363636363635,567,0,92,_Remix_Guitar,6,2,watasino Stems,0.31889691948890686,0
58,100,0.2590909090909091,637,0,92,_Remix_Guitar,6,4,watasino Stems,0.3031921982765198,0
58,100,0.13636363636363635,700,0,92,_Remix_Guitar,6,2,watasino Stems,0.31465083360671997,0
58,100,0.12272727272727273,466,1,93,_Remix_Guitar,6,2,watasino Stems,0.9996201992034912,1
63,100,0.21818181818181817,523,0,93,_Remix_Guitar,6,3,watasino Stems,0.54827481508255,0
58,100,0.1,17,1,94,_Remix_Guitar,6,2,watasino Stems,0.9998239874839783,1
63,100,0.1590909090909091,176,0,94,_Remix_Guitar,6,3,watasino Stems,0.20878760516643524,0
63,100,0.3181818181818182,216,0,94,_Remix_Guitar,6,5,watasino Stems,0.19617678225040436,0
53,100,0.1,289,0,94,_Remix_Guitar,6,2,watasino Stems,0.22012042999267578,0
53,100,0.3409090909090909,660,1,94,_Remix_Guitar,6,5,watasino Stems,0.20778882503509521,0
58,100,0.4772727272727273,83,1,95,_Remix_Guitar,6,8,watasino Stems,0.9998206496238708,1
58,100,0.17727272727272728,206,0,95,_Remix_Guitar,6,3,watasino Stems,0.35218220949172974,0
53,100,0.1,303,0,95,_Remix_Guitar,6,2,watasino Stems,0.3091261684894562,0
63,100,0.4772727272727273,624,1,95,_Remix_Guitar,6,8,watasino Stems,0.3077518045902252,0
67,100,0.2818181818181818,506,1,96,_Remix_Guitar,6,5,watasino Stems,0.9928798079490662,0
53,100,0.2818181818181818,166,1,97,_Remix_Guitar,6,5,watasino Stems,0.9998506307601929,1
58,100,0.23636363636363636,480,1,97,_Remix_Guitar,6,4,watasino Stems,0.31301525235176086,0
63,100,0.2,550,0,97,_Remix_Guitar,6,3,watasino Stems,0.30617403984069824,0
63,100,0.759090909090909,716,0,97,_Remix_Guitar,6,12,watasino Stems,0.3022710382938385,0
58,100,0.13636363636363635,83,1,98,_Remix_Guitar,6,2,watasino Stems,0.9998118281364441,1
63,100,0.1409090909090909,443,1,98,_Remix_Guitar,6,2,watasino Stems,0.4381984770298004,0
63,100,0.2,876,1,98,_Remix_Guitar,6,3,watasino Stems,0.4263058602809906,0
53,100,0.21818181818181817,96,1,99,_Remix_Guitar,6,3,watasino Stems,0.999736487865448,1
63,100,0.23636363636363636,150,0,99,_Remix_Guitar,6,4,watasino Stems,0.0538407526910305,0
53,100,0.33636363636363636,216,0,99,_Remix_Guitar,6,5,watasino Stems,0.04818303510546684,0
53,100,0.2409090909090909,333,0,99,_Remix_Guitar,6,4,watasino Stems,0.04845476895570755,0
53,100,0.1590909090909091,449,0,99,_Remix_Guitar,6,3,watasino Stems,0.05370515584945679,0
53,100,0.17727272727272728,502,0,99,_Remix_Guitar,6,3,watasino Stems,0.061453677713871,0
58,100,0.6227272727272727,695,0,99,_Remix_Guitar,6,10,watasino Stems,0.06108321622014046,0
53,100,0.42272727272727273,870,0,99,_Remix_Guitar,6,7,watasino Stems,0.06621132791042328,0
58,100,0.3409090909090909,179,1,100,_Remix_Guitar,6,5,watasino Stems,0.9998030066490173,1
58,100,0.1409090909090909,365,0,100,_Remix_Guitar,6,2,watasino Stems,0.43070247769355774,0
53,100,0.3,470,0,100,_Remix_Guitar,6,5,watasino Stems,0.44269734621047974,0
58,100,0.12272727272727273,540,1,101,_Remix_Guitar,6,2,watasino Stems,0.999816358089447,1
67,100,0.2772727272727273,612,0,101,_Remix_Guitar,6,4,watasino Stems,0.41768115758895874,0
58,100,0.1590909090909091,703,0,101,_Remix_Guitar,6,3,watasino Stems,0.42653724551200867,0
53,100,0.18181818181818182,532,1,103,_Remix_Guitar,6,3,watasino Stems,0.9996180534362793,1
62,100,1.018181818181818,722,0,103,_Remix_Guitar,6,15,watasino Stems,0.5387619733810425,0
63,100,0.1409090909090909,197,1,104,_Remix_Guitar,6,2,watasino Stems,0.9998406171798706,1
58,100,1.3772727272727272,360,0,104,_Remix_Guitar,6,15,watasino Stems,0.2834048867225647,0
58,100,0.11818181818181818,669,1,104,_Remix_Guitar,6,2,watasino Stems,0.35213491320610046,0
58,100,1.459090909090909,703,0,104,_Remix_Guitar,6,15,watasino Stems,0.30770131945610046,0
56,100,0.21818181818181817,567,1,105,_Remix_Guitar,6,3,watasino Stems,0.9996323585510254,1
62,100,0.1409090909090909,695,0,105,_Remix_Guitar,6,2,watasino Stems,0.5555547475814819,0
58,100,0.1590909090909091,826,1,107,_Remix_Guitar,6,3,watasino Stems,0.9925236105918884,0
63,100,0.3,260,1,108,_Remix_Guitar,6,5,watasino Stems,0.9998008608818054,1
58,100,0.5,343,0,108,_Remix_Guitar,6,8,watasino Stems,0.415984183549881,0
58,100,1.3772727272727272,633,1,108,_Remix_Guitar,6,15,watasino Stems,0.42961686849594116,0
63,100,0.4,713,1,109,_Remix_Guitar,6,6,watasino Stems,0.9996110796928406,1
63,100,0.21818181818181817,832,0,109,_Remix_Guitar,6,3,watasino Stems,0.5535363554954529,0
58,100,0.12272727272727273,47,1,110,_Remix_Guitar,6,2,watasino Stems,0.9997803568840027,1
70,100,0.4636363636363636,92,0,110,_Remix_Guitar,6,7,watasino Stems,0.12602420151233673,0
58,100,0.13636363636363635,260,0,110,_Remix_Guitar,6,2,watasino Stems,0.1301862597465515,0
63,100,0.759090909090909,506,1,110,_Remix_Guitar,6,12,watasino Stems,0.14397339522838593,0
58,100,0.3,695,0,110,_Remix_Guitar,6,5,watasino Stems,0.16264064610004425,0
63,100,0.21818181818181817,792,0,110,_Remix_Guitar,6,3,watasino Stems,0.15197958052158356,0
63,100,0.2,92,1,111,_Remix_Guitar,6,3,watasino Stems,0.9998310804367065,1
58,100,0.1,179,0,111,_Remix_Guitar,6,2,watasino Stems,0.20597203075885773,0
63,100,0.13636363636363635,237,0,111,_Remix_Guitar,6,2,watasino Stems,0.20468276739120483,0
63,100,0.2818181818181818,377,0,111,_Remix_Guitar,6,5,watasino Stems,0.20996108651161194,0
63,100,0.42272727272727273,443,0,111,_Remix_Guitar,6,7,watasino Stems,0.21034333109855652,0
63,100,0.7227272727272728,443,1,112,_Remix_Guitar,6,12,watasino Stems,0.9998070597648621,1
62,100,0.1409090909090909,616,0,112,_Remix_Guitar,6,2,watasino Stems,0.4505656659603119,0
58,100,0.2818181818181818,770,0,112,_Remix_Guitar,6,5,watasino Stems,0.4205526113510132,0
60,100,0.7818181818181819,839,1,113,_Remix_Guitar,6,13,watasino Stems,0.9922823309898376,0
58,100,0.2,157,1,114,_Remix_Guitar,6,3,watasino Stems,0.9997473359107971,1
63,100,0.3409090909090909,206,0,114,_Remix_Guitar,6,5,watasino Stems,0.08669444173574448,0
63,100,0.4,312,0,114,_Remix_Guitar,6,6,watasino Stems,0.07892332226037979,0
70,100,0.1409090909090909,443,0,114,_Remix_Guitar,6,2,watasino Stems,0.08759645372629166,0
58,100,0.4,593,0,114,_Remix_Guitar,6,6,watasino Stems,0.08956477046012878,0
63,100,0.6,686,0,114,_Remix_Guitar,6,10,watasino Stems,0.11096319556236267,0
58,100,0.4590909090909091,826,0,114,_Remix_Guitar,6,7,watasino Stems,0.09442122280597687,0
63,100,0.6,294,1,115,_Remix_Guitar,6,10,watasino Stems,0.9997913241386414,1
63,100,0.3,449,0,115,_Remix_Guitar,6,5,watasino Stems,0.1360446959733963,0
55,100,0.4818181818181818,540,0,115,_Remix_Guitar,6,8,watasino Stems,0.12658122181892395,0
58,100,0.11818181818181818,656,0,115,_Remix_Guitar,6,2,watasino Stems,0.14445270597934723,0
58,100,0.4,686,0,115,_Remix_Guitar,6,6,watasino Stems,0.14568841457366943,0
63,100,0.4409090909090909,792,0,115,_Remix_Guitar,6,7,watasino Stems,0.1420077383518219,0
58,100,0.43636363636363634,17,1,116,_Remix_Guitar,6,7,watasino Stems,0.9996926784515381,1
60,100,0.6227272727272727,123,0,116,_Remix_Guitar,6,10,watasino Stems,0.06039189547300339,0
58,100,0.4590909090909091,263,0,116,_Remix_Guitar,6,7,watasino Stems,0.04807071387767792,0
63,100,0.5590909090909091,370,0,116,_Remix_Guitar,6,9,watasino Stems,0.05315973609685898,0
63,100,0.23636363636363636,546,0,116,_Remix_Guitar,6,4,watasino Stems,0.06071959808468819,0
58,100,0.5409090909090909,606,0,116,_Remix_Guitar,6,9,watasino Stems,0.06452279537916183,0
58,100,0.4,760,0,116,_Remix_Guitar,6,6,watasino Stems,0.07758281379938126,0
65,100,0.4409090909090909,866,0,116,_Remix_Guitar,6,7,watasino Stems,0.06945542991161346,0
62,100,0.5181818181818182,87,1,117,_Remix_Guitar,6,8,watasino Stems,0.9998213648796082,1
55,100,0.4,242,0,117,_Remix_Guitar,6,6,watasino Stems,0.20686312019824982,0
63,100,1.059090909090909,453,0,117,_Remix_Guitar,6,15,watasino Stems,0.19629248976707458,0
55,100,0.4818181818181818,703,1,117,_Remix_Guitar,6,8,watasino Stems,0.23989751935005188,0
58,100,0.4772727272727273,823,0,117,_Remix_Guitar,6,8,watasino Stems,0.21941301226615906,0
63,100,0.4409090909090909,69,1,118,_Remix_Guitar,6,7,watasino Stems,0.9996726512908936,1
58,100,0.5181818181818182,176,0,118,_Remix_Guitar,6,8,watasino Stems,0.042480744421482086,0
53,100,0.1590909090909091,303,0,118,_Remix_Guitar,6,3,watasino Stems,0.03828297182917595,0
53,100,0.3,343,0,118,_Remix_Guitar,6,5,watasino Stems,0.03236937150359154,0
58,100,0.41818181818181815,417,0,118,_Remix_Guitar,6,7,watasino Stems,0.030601875856518745,0
62,100,0.5818181818181818,527,0,118,_Remix_Guitar,6,9,watasino Stems,0.03708372637629509,0
58,100,0.1409090909090909,663,0,118,_Remix_Guitar,6,2,watasino Stems,0.046118345111608505,0
62,100,0.2636363636363636,707,0,118,_Remix_Guitar,6,4,watasino Stems,0.0540524497628212,0
63,100,0.1,857,0,118,_Remix_Guitar,6,2,watasino Stems,0.0491335503757,0
58,100,0.11818181818181818,17,1,119,_Remix_Guitar,6,2,watasino Stems,0.9997112154960632,1
63,100,0.7,119,0,119,_Remix_Guitar,6,11,watasino Stems,0.05500325560569763,0
63,100,0.11818181818181818,326,0,119,_Remix_Guitar,6,2,watasino Stems,0.05298512428998947,0
55,100,0.4409090909090909,396,0,119,_Remix_Guitar,6,7,watasino Stems,0.04934230074286461,0
58,100,0.4590909090909091,502,0,119,_Remix_Guitar,6,7,watasino Stems,0.05558456480503082,0
63,100,0.5772727272727273,612,0,119,_Remix_Guitar,6,9,watasino Stems,0.06825799494981766,0
58,100,0.41818181818181815,743,0,119,_Remix_Guitar,6,7,watasino Stems,0.0743725597858429,0
55,100,0.4409090909090909,866,0,119,_Remix_Guitar,6,7,watasino Stems,0.0698838010430336,0
63,100,0.5,216,1,120,_Remix_Guitar,6,8,watasino Stems,0.9997859597206116,1
58,100,0.5,330,0,120,_Remix_Guitar,6,8,watasino Stems,0.13007624447345734,0
56,100,0.2409090909090909,466,0,120,_Remix_Guitar,6,4,watasino Stems,0.14060164988040924,0
56,100,0.7,523,0,120,_Remix_Guitar,6,11,watasino Stems,0.131377175450325,0
63,100,0.5409090909090909,695,0,120,_Remix_Guitar,6,9,watasino Stems,0.1559540331363678,0
58,100,0.4,826,0,120,_Remix_Guitar,6,6,watasino Stems,0.1401260644197464,0
56,100,0.5181818181818182,53,1,121,_Remix_Guitar,6,8,watasino Stems,0.9997053742408752,1
58,100,0.2,176,0,121,_Remix_Guitar,6,3,watasino Stems,0.05757085606455803,0
58,100,0.3,223,0,121,_Remix_Guitar,6,5,watasino Stems,0.05053685978055,0
58,100,0.3,436,0,121,_Remix_Guitar,6,5,watasino Stems,0.049526337534189224,0
56,100,0.3409090909090909,585,0,121,_Remix_Guitar,6,5,watasino Stems,0.058544062077999115,0
56,100,0.1590909090909091,734,0,121,_Remix_Guitar,6,3,watasino Stems,0.0666772723197937,0
56,100,0.2,810,0,121,_Remix_Guitar,6,3,watasino Stems,0.0699390172958374,0
56,100,0.1409090909090909,857,0,121,_Remix_Guitar,6,2,watasino Stems,0.06370492279529572,0
58,100,0.3,43,1,122,_Remix_Guitar,6,5,watasino Stems,0.9996787309646606,1
56,100,0.1,136,0,122,_Remix_Guitar,6,2,watasino Stems,0.047783128917217255,0
55,100,0.2,193,0,122,_Remix_Guitar,6,3,watasino Stems,0.03478209301829338,0
58,100,0.1409090909090909,255,0,122,_Remix_Guitar,6,2,watasino Stems,0.032289158552885056,0
58,100,0.3409090909090909,289,0,122,_Remix_Guitar,6,5,watasino Stems,0.03206346556544304,0
63,100,0.5227272727272727,377,0,122,_Remix_Guitar,6,8,watasino Stems,0.039173249155282974,0
58,100,0.43636363636363634,502,0,122,_Remix_Guitar,6,7,watasino Stems,0.045099157840013504,0
58,100,1.018181818181818,624,0,122,_Remix_Guitar,6,15,watasino Stems,0.0508931465446949,0
63,100,0.5590909090909091,849,0,122,_Remix_Guitar,6,9,watasino Stems,0.05634210258722305,0
62,100,0.6227272727272727,92,1,123,_Remix_Guitar,6,10,watasino Stems,0.999822199344635,1
62,100,0.4,255,0,123,_Remix_Guitar,6,6,watasino Stems,0.22758550941944122,0
62,100,0.11818181818181818,370,0,123,_Remix_Guitar,6,2,watasino Stems,0.21379975974559784,0
58,100,0.1,593,0,123,_Remix_Guitar,6,2,watasino Stems,0.2040419727563858,0
58,100,0.2772727272727273,823,0,123,_Remix_Guitar,6,4,watasino Stems,0.21448320150375366,0
58,100,0.18181818181818182,66,1,125,_Remix_Guitar,6,3,watasino Stems,0.9997943043708801,1
58,100,0.3181818181818182,172,0,125,_Remix_Guitar,6,5,watasino Stems,0.12741532921791077,0
58,100,0.1,333,0,125,_Remix_Guitar,6,2,watasino Stems,0.12531907856464386,0
70,100,0.3,360,0,125,_Remix_Guitar,6,5,watasino Stems,0.13942782580852509,0
63,100,0.2772727272727273,502,0,125,_Remix_Guitar,6,4,watasino Stems,0.16019392013549805,0
58,100,0.1409090909090909,817,1,125,_Remix_Guitar,6,2,watasino Stems,0.143003910779953,0
70,100,0.33636363636363636,17,1,126,_Remix_Guitar,6,5,watasino Stems,0.9997403025627136,1
70,100,0.2,132,0,126,_Remix_Guitar,6,3,watasino Stems,0.08502723276615143,0
70,100,0.1,210,0,126,_Remix_Guitar,6,2,watasino Stems,0.07952205091714859,0
70,100,0.2,282,0,126,_Remix_Guitar,6,3,watasino Stems,0.07920528203248978,0
70,100,0.5,356,0,126,_Remix_Guitar,6,8,watasino Stems,0.09321858733892441,0
62,100,0.17727272727272728,779,1,126,_Remix_Guitar,6,3,watasino Stems,0.11418657749891281,0
62,100,0.2,876,0,126,_Remix_Guitar,6,3,watasino Stems,0.09479972720146179,0
63,100,0.41818181818181815,316,1,127,_Remix_Guitar,6,7,watasino Stems,0.9995983242988586,1
70,100,0.2590909090909091,519,0,127,_Remix_Guitar,6,4,watasino Stems,0.549898087978363,0
70,100,0.5590909090909091,128,1,128,_Remix_Guitar,6,9,watasino Stems,0.9997720122337341,1
58,100,0.2409090909090909,264,0,128,_Remix_Guitar,6,4,watasino Stems,0.1403937041759491,0
70,100,0.5409090909090909,427,0,128,_Remix_Guitar,6,9,watasino Stems,0.12518219649791718,0
70,100,0.11818181818181818,603,0,128,_Remix_Guitar,6,2,watasino Stems,0.1562252938747406,0
58,100,0.33636363636363636,633,0,128,_Remix_Guitar,6,5,watasino Stems,0.15668925642967224,0
62,100,0.7227272727272728,773,0,128,_Remix_Guitar,6,12,watasino Stems,0.14736731350421906,0
65,100,0.1,185,1,129,_Remix_Guitar,6,2,watasino Stems,0.9997790455818176,1
70,100,0.2818181818181818,211,0,129,_Remix_Guitar,6,5,watasino Stems,0.07422946393489838,0
65,100,0.1590909090909091,276,0,129,_Remix_Guitar,6,3,watasino Stems,0.08514919877052307,0
70,100,0.1409090909090909,311,0,129,_Remix_Guitar,6,2,watasino Stems,0.0818740576505661,0
70,100,1.1,356,0,129,_Remix_Guitar,6,15,watasino Stems,0.0875842422246933,0
58,100,0.1590909090909091,611,1,129,_Remix_Guitar,6,3,watasino Stems,0.11603605002164841,0
58,100,0.1,778,0,129,_Remix_Guitar,6,2,watasino Stems,0.0960930585861206,0
70,100,0.1,12,1,130,_Remix_Guitar,6,2,watasino Stems,0.9997519850730896,1
58,100,0.2,242,0,130,_Remix_Guitar,6,3,watasino Stems,0.08256176114082336,0
58,100,0.1,452,0,130,_Remix_Guitar,6,2,watasino Stems,0.08137763291597366,0
60,100,0.17727272727272728,501,0,130,_Remix_Guitar,6,3,watasino Stems,0.08887367695569992,0
58,100,0.3,606,0,130,_Remix_Guitar,6,5,watasino Stems,0.089671291410923,0
70,100,0.1,690,0,130,_Remix_Guitar,6,2,watasino Stems,0.10349243879318237,0
58,100,0.2636363636363636,818,0,130,_Remix_Guitar,6,4,watasino Stems,0.09202644973993301,0
63,100,0.1,158,1,131,_Remix_Guitar,6,2,watasino Stems,0.9997064471244812,1
63,100,0.1409090909090909,211,0,131,_Remix_Guitar,6,2,watasino Stems,0.0441717803478241,0
58,100,0.17727272727272728,250,0,131,_Remix_Guitar,6,3,watasino Stems,0.03526245802640915,0
58,100,0.35909090909090907,364,0,131,_Remix_Guitar,6,6,watasino Stems,0.03171888738870621,0
70,100,0.12272727272727273,466,0,131,_Remix_Guitar,6,2,watasino Stems,0.03526400029659271,0
70,100,0.7818181818181819,496,0,131,_Remix_Guitar,6,13,watasino Stems,0.033000022172927856,0
70,100,0.2,747,1,131,_Remix_Guitar,6,3,watasino Stems,0.04750455543398857,0
70,100,0.18181818181818182,814,0,131,_Remix_Guitar,6,3,watasino Stems,0.05031532049179077,0
65,100,0.1409090909090909,861,0,131,_Remix_Guitar,6,2,watasino Stems,0.05290500447154045,0
70,100,0.3409090909090909,140,1,132,_Remix_Guitar,6,5,watasino Stems,0.9997972846031189,1
70,100,0.18181818181818182,220,0,132,_Remix_Guitar,6,3,watasino Stems,0.4325340986251831,0
70,100,0.11818181818181818,264,0,132,_Remix_Guitar,6,2,watasino Stems,0.43727895617485046,0
58,100,0.3,83,1,133,_Remix_Guitar,6,5,watasino Stems,0.9998283386230469,1
58,100,0.1,189,0,133,_Remix_Guitar,6,2,watasino Stems,0.3510722219944,0
58,100,0.18181818181818182,400,0,133,_Remix_Guitar,6,3,watasino Stems,0.3022371530532837,0
70,100,0.12272727272727273,553,0,133,_Remix_Guitar,6,2,watasino Stems,0.3163594901561737,0
60,100,0.11818181818181818,140,1,134,_Remix_Guitar,6,2,watasino Stems,0.9996132254600525,1
63,100,1.2,611,1,134,_Remix_Guitar,6,15,watasino Stems,0.5194043517112732,0
63,100,0.4818181818181818,0,1,135,_Remix_Guitar,6,8,watasino Stems,0.9998351335525513,1
70,100,0.1,268,1,135,_Remix_Guitar,6,2,watasino Stems,0.3391697406768799,0
70,100,0.18181818181818182,598,1,135,_Remix_Guitar,6,3,watasino Stems,0.3058171570301056,0
58,100,0.17727272727272728,656,0,135,_Remix_Guitar,6,3,watasino Stems,0.3186163008213043,0
58,100,0.11818181818181818,18,1,136,_Remix_Guitar,6,2,watasino Stems,0.9997106194496155,1
58,100,0.2,122,0,136,_Remix_Guitar,6,3,watasino Stems,0.05732475966215134,0
70,100,0.3181818181818182,238,0,136,_Remix_Guitar,6,5,watasino Stems,0.04806187376379967,0
63,100,0.18181818181818182,421,0,136,_Remix_Guitar,6,3,watasino Stems,0.05301870033144951,0
58,100,0.11818181818181818,493,0,136,_Remix_Guitar,6,2,watasino Stems,0.054851990193128586,0
58,100,0.4409090909090909,541,0,136,_Remix_Guitar,6,7,watasino Stems,0.058811597526073456,0
63,100,0.1409090909090909,682,0,136,_Remix_Guitar,6,2,watasino Stems,0.079692542552948,0
63,100,0.1590909090909091,721,0,136,_Remix_Guitar,6,3,watasino Stems,0.06595386564731598,0
58,100,0.1409090909090909,166,1,137,_Remix_Guitar,6,2,watasino Stems,0.9998351335525513,1
58,100,0.1,378,0,137,_Remix_Guitar,6,2,watasino Stems,0.33682072162628174,0
58,100,0.7818181818181819,553,0,137,_Remix_Guitar,6,13,watasino Stems,0.27505043148994446,0
63,100,0.21818181818181817,747,0,137,_Remix_Guitar,6,3,watasino Stems,0.3454776108264923,0
58,100,0.18181818181818182,3,1,138,_Remix_Guitar,6,3,watasino Stems,0.9998044371604919,1
58,100,0.6409090909090909,185,0,138,_Remix_Guitar,6,10,watasino Stems,0.4003303349018097,0
63,100,0.1409090909090909,409,0,138,_Remix_Guitar,6,2,watasino Stems,0.4548979699611664,0
58,100,0.1409090909090909,307,1,139,_Remix_Guitar,6,2,watasino Stems,0.9998026490211487,1
70,100,0.1,369,0,139,_Remix_Guitar,6,2,watasino Stems,0.4423918128013611,0
70,100,0.1,831,1,139,_Remix_Guitar,6,2,watasino Stems,0.42396530508995056,0
58,100,0.2,739,1,140,_Remix_Guitar,6,3,watasino Stems,0.9995812773704529,1
58,100,0.41818181818181815,800,0,140,_Remix_Guitar,6,7,watasino Stems,0.5451409220695496,0
58,100,0.2409090909090909,158,1,141,_Remix_Guitar,6,4,watasino Stems,0.992378830909729,0
58,100,0.1,30,1,142,_Remix_Guitar,6,2,watasino Stems,0.999790370464325,1
58,100,0.2590909090909091,110,0,142,_Remix_Guitar,6,4,watasino Stems,0.12353888899087906,0
58,100,0.2409090909090909,223,0,142,_Remix_Guitar,6,4,watasino Stems,0.12606514990329742,0
63,100,0.1,496,1,142,_Remix_Guitar,6,2,watasino Stems,0.14487415552139282,0
63,100,0.12272727272727273,576,0,142,_Remix_Guitar,6,2,watasino Stems,0.146353617310524,0
63,100,0.1,792,0,142,_Remix_Guitar,6,2,watasino Stems,0.13910488784313202,0
58,100,0.17727272727272728,18,1,143,_Remix_Guitar,6,3,watasino Stems,0.9998345375061035,1
58,100,0.17727272727272728,140,0,143,_Remix_Guitar,6,3,watasino Stems,0.3308809697628021,0
58,100,0.2,326,0,143,_Remix_Guitar,6,3,watasino Stems,0.30409279465675354,0
58,100,0.17727272727272728,436,0,143,_Remix_Guitar,6,3,watasino Stems,0.32365506887435913,0
63,100,0.2,338,1,144,_Remix_Guitar,6,3,watasino Stems,0.9998071789741516,1
70,100,0.1590909090909091,409,0,144,_Remix_Guitar,6,3,watasino Stems,0.1285603940486908,0
58,100,0.2,505,0,144,_Remix_Guitar,6,3,watasino Stems,0.12677334249019623,0
58,100,0.1409090909090909,594,0,144,_Remix_Guitar,6,2,watasino Stems,0.14326171576976776,0
58,100,0.3409090909090909,735,0,144,_Remix_Guitar,6,5,watasino Stems,0.14706097543239594,0
58,100,0.2818181818181818,826,0,144,_Remix_Guitar,6,5,watasino Stems,0.13909736275672913,0
70,100,0.12272727272727273,553,1,145,_Remix_Guitar,6,2,watasino Stems,0.9995798468589783,1
58,100,0.11818181818181818,704,0,145,_Remix_Guitar,6,2,watasino Stems,0.5552109479904175,0
70,100,0.1,405,1,146,_Remix_Guitar,6,2,watasino Stems,0.9998239874839783,1
58,100,0.2409090909090909,431,0,146,_Remix_Guitar,6,4,watasino Stems,0.4096947908401489,0
58,100,0.2772727272727273,537,0,146,_Remix_Guitar,6,4,watasino Stems,0.425849974155426,0
53,100,0.5818181818181818,532,1,0,_Guitar,6,9,Rocky,0.9998143315315247,1
55,100,0.17727272727272728,722,0,0,_Guitar,6,3,Rocky,0.4370894134044647,0
53,100,0.3409090909090909,783,0,0,_Guitar,6,5,Rocky,0.4207039475440979,0
55,100,0.2409090909090909,47,1,1,_Guitar,6,4,Rocky,0.9996044039726257,1
60,100,0.2818181818181818,571,1,1,_Guitar,6,5,Rocky,0.5571720004081726,0
53,100,0.32272727272727275,144,1,2,_Guitar,6,5,Rocky,0.9996376037597656,1
53,100,0.3,272,0,2,_Guitar,6,5,Rocky,0.5455913543701172,0
53,100,0.4,3,1,3,_Guitar,6,6,Rocky,0.9998313188552856,1
55,100,0.2,189,0,3,_Guitar,6,3,Rocky,0.20405416190624237,0
53,100,0.5590909090909091,259,0,3,_Guitar,6,9,Rocky,0.1913977712392807,0
60,100,0.1409090909090909,717,1,3,_Guitar,6,2,Rocky,0.21863771975040436,0
60,100,0.1409090909090909,761,0,3,_Guitar,6,2,Rocky,0.20547211170196533,0
53,100,0.1590909090909091,496,1,4,_Guitar,6,3,Rocky,0.9996545314788818,1
53,100,0.22272727272727272,642,0,4,_Guitar,6,4,Rocky,0.5466578006744385,0
55,100,0.41818181818181815,352,1,5,_Guitar,6,7,Rocky,0.9998242259025574,1
53,100,0.6227272727272727,465,0,5,_Guitar,6,10,Rocky,0.21447347104549408,0
53,100,0.2409090909090909,637,0,5,_Guitar,6,4,Rocky,0.20549462735652924,0
53,100,0.1,695,0,5,_Guitar,6,2,Rocky,0.211228147149086,0
55,100,0.2772727272727273,810,0,5,_Guitar,6,4,Rocky,0.19847263395786285,0
60,100,0.1,493,1,6,_Guitar,6,2,Rocky,0.9996711015701294,1
60,100,0.13636363636363635,721,0,6,_Guitar,6,2,Rocky,0.5475029945373535,0
53,100,0.2590909090909091,35,1,7,_Guitar,6,4,Rocky,0.9998348951339722,1
60,100,0.1,619,1,7,_Guitar,6,2,Rocky,0.4194464087486267,0
53,100,0.9,700,0,7,_Guitar,6,14,Rocky,0.40556493401527405,0
53,100,0.5818181818181818,87,1,8,_Guitar,6,9,Rocky,0.9998155236244202,1
55,100,0.3,285,0,8,_Guitar,6,5,Rocky,0.4073197543621063,0
55,100,0.2409090909090909,804,1,8,_Guitar,6,4,Rocky,0.4365498721599579,0
53,100,0.21818181818181817,127,1,9,_Guitar,6,3,Rocky,0.9998231530189514,1
53,100,0.3181818181818182,326,0,9,_Guitar,6,5,Rocky,0.41229119896888733,0
53,100,0.3,443,0,9,_Guitar,6,5,Rocky,0.4350513517856598,0
60,100,0.2,369,1,10,_Guitar,6,3,Rocky,0.9998600482940674,1
53,100,0.3181818181818182,436,0,10,_Guitar,6,5,Rocky,0.30386999249458313,0
55,100,0.5181818181818182,505,0,10,_Guitar,6,8,Rocky,0.2836686074733734,0
55,100,0.37727272727272726,625,0,10,_Guitar,6,6,Rocky,0.3086775541305542,0
65,100,0.2772727272727273,17,1,11,_Guitar,6,4,Rocky,0.9997664093971252,1
55,100,0.6,158,0,11,_Guitar,6,10,Rocky,0.07375556975603104,0
55,100,0.12272727272727273,343,0,11,_Guitar,6,2,Rocky,0.07748697698116302,0
55,100,0.32272727272727275,409,0,11,_Guitar,6,5,Rocky,0.08008754998445511,0
60,100,0.2818181818181818,541,0,11,_Guitar,6,5,Rocky,0.09321434050798416,0
60,100,0.1590909090909091,629,0,11,_Guitar,6,3,Rocky,0.10153327882289886,0
55,100,0.3181818181818182,677,0,11,_Guitar,6,5,Rocky,0.08630907535552979,0
60,100,0.13636363636363635,391,1,12,_Guitar,6,2,Rocky,0.9998140931129456,1
60,100,0.17727272727272728,426,0,12,_Guitar,6,3,Rocky,0.12671047449111938,0
55,100,0.1409090909090909,515,0,12,_Guitar,6,2,Rocky,0.11387411504983902,0
55,100,0.6590909090909091,572,0,12,_Guitar,6,11,Rocky,0.12466126680374146,0
53,100,0.35909090909090907,770,0,12,_Guitar,6,6,Rocky,0.15007618069648743,0
55,100,0.35909090909090907,854,0,12,_Guitar,6,6,Rocky,0.1313648223876953,0
65,100,0.2,378,1,13,_Guitar,6,3,Rocky,0.9934653639793396,0
65,100,0.1590909090909091,17,1,14,_Guitar,6,3,Rocky,0.9998553991317749,1
55,100,0.1409090909090909,101,0,14,_Guitar,6,2,Rocky,0.31933343410491943,0
55,100,0.8590909090909091,149,0,14,_Guitar,6,14,Rocky,0.28773102164268494,0
60,100,2.081818181818182,343,0,14,_Guitar,6,15,Rocky,0.300409734249115,0
53,100,0.17727272727272728,810,1,25,_Guitar,6,3,Rocky,0.999648928642273,1
53,100,0.17727272727272728,853,0,25,_Guitar,6,3,Rocky,0.5462014675140381,0
53,100,0.13636363636363635,17,1,26,_Guitar,6,2,Rocky,0.9935362935066223,1
53,100,0.1,839,1,27,_Guitar,6,2,Rocky,0.9933165311813354,0
53,100,0.1409090909090909,9,1,28,_Guitar,6,2,Rocky,0.9998379945755005,1
53,100,0.3,61,0,28,_Guitar,6,5,Rocky,0.2051955610513687,0
53,100,0.5590909090909091,144,0,28,_Guitar,6,9,Rocky,0.1983717530965805,0
53,100,0.8227272727272728,277,0,28,_Guitar,6,13,Rocky,0.2061716914176941,0
53,100,1.3227272727272728,466,0,28,_Guitar,6,15,Rocky,0.20940464735031128,0
53,100,0.7636363636363637,443,1,29,_Guitar,6,12,Rocky,0.9996020197868347,1
53,100,0.11818181818181818,615,0,29,_Guitar,6,2,Rocky,0.5622535943984985,0
57,100,0.23636363636363636,150,1,45,_Guitar,6,4,Rocky,0.9998466968536377,1
60,100,0.6,201,0,45,_Guitar,6,10,Rocky,0.321201890707016,0
60,100,0.18181818181818182,791,1,45,_Guitar,6,3,Rocky,0.2984241843223572,0
57,100,0.1590909090909091,875,0,45,_Guitar,6,3,Rocky,0.3040045201778412,0
57,100,0.4,53,1,46,_Guitar,6,6,Rocky,0.992465615272522,0
60,100,0.4590909090909091,721,1,48,_Guitar,6,7,Rocky,0.9934044480323792,0
60,100,0.4,370,1,49,_Guitar,6,6,Rocky,0.9998314380645752,1
60,100,0.18181818181818182,474,0,49,_Guitar,6,3,Rocky,0.40975213050842285,0
55,100,0.11818181818181818,691,0,49,_Guitar,6,2,Rocky,0.4266730844974518,0
55,100,0.2818181818181818,179,1,50,_Guitar,6,5,Rocky,0.999819815158844,1
55,100,0.1409090909090909,246,0,50,_Guitar,6,2,Rocky,0.4192003011703491,0
55,100,0.1409090909090909,686,1,50,_Guitar,6,2,Rocky,0.4301198124885559,0
60,100,0.5590909090909091,198,1,51,_Guitar,6,9,Rocky,0.9996441602706909,1
60,100,0.2409090909090909,756,1,51,_Guitar,6,4,Rocky,0.5535412430763245,0
60,100,0.5636363636363636,378,1,52,_Guitar,6,9,Rocky,0.9931047558784485,0
60,100,0.2818181818181818,21,1,53,_Guitar,6,5,Rocky,0.999836802482605,1
55,100,1.0227272727272727,144,0,53,_Guitar,6,15,Rocky,0.18153344094753265,0
60,100,0.4590909090909091,558,1,53,_Guitar,6,7,Rocky,0.2221321165561676,0
55,100,0.17727272727272728,678,0,53,_Guitar,6,3,Rocky,0.21749982237815857,0
55,100,0.6409090909090909,726,0,53,_Guitar,6,10,Rocky,0.20637103915214539,0
60,100,0.5818181818181818,198,1,54,_Guitar,6,9,Rocky,0.9998515844345093,1
55,100,0.33636363636363636,325,0,54,_Guitar,6,5,Rocky,0.3050336539745331,0
55,100,0.2818181818181818,431,0,54,_Guitar,6,5,Rocky,0.3013821244239807,0
60,100,0.5,721,1,54,_Guitar,6,8,Rocky,0.31265419721603394,0
55,100,0.4,716,1,55,_Guitar,6,6,Rocky,0.9927131533622742,1
57,100,0.6181818181818182,875,1,62,_Guitar,6,10,Rocky,0.9923464059829712,0
60,100,0.6409090909090909,188,1,63,_Guitar,6,10,Rocky,0.9998177886009216,1
57,100,0.3409090909090909,334,0,63,_Guitar,6,5,Rocky,0.4203577935695648,0
60,100,0.6590909090909091,716,1,63,_Guitar,6,11,Rocky,0.4314221143722534,0
60,100,0.4,13,1,64,_Guitar,6,6,Rocky,0.9997333884239197,1
55,100,0.2772727272727273,106,0,64,_Guitar,6,4,Rocky,0.05407177656888962,0
57,100,0.2409090909090909,179,0,64,_Guitar,6,4,Rocky,0.04728108271956444,0
60,100,0.6227272727272727,365,0,64,_Guitar,6,10,Rocky,0.04767218977212906,0
60,100,0.1590909090909091,546,0,64,_Guitar,6,3,Rocky,0.055851977318525314,0
55,100,0.37727272727272726,612,0,64,_Guitar,6,6,Rocky,0.05786615237593651,0
55,100,0.42272727272727273,760,0,64,_Guitar,6,7,Rocky,0.06842220574617386,0
55,100,0.1,866,0,64,_Guitar,6,2,Rocky,0.06213760003447533,0
60,100,0.6409090909090909,22,1,65,_Guitar,6,10,Rocky,0.9998359680175781,1
55,100,0.6818181818181818,197,0,65,_Guitar,6,11,Rocky,0.31358134746551514,0
60,100,0.6590909090909091,540,1,65,_Guitar,6,11,Rocky,0.3150397539138794,0
57,100,0.5409090909090909,686,0,65,_Guitar,6,9,Rocky,0.314174085855484,0
59,100,0.6409090909090909,47,1,66,_Guitar,6,10,Rocky,0.9997835755348206,1
60,100,1.540909090909091,189,0,66,_Guitar,6,15,Rocky,0.4053648114204407,0
55,100,0.5818181818181818,870,1,66,_Guitar,6,9,Rocky,0.45962417125701904,0
55,100,0.11818181818181818,153,1,67,_Guitar,6,2,Rocky,0.9998365640640259,1
55,100,0.1590909090909091,233,0,67,_Guitar,6,3,Rocky,0.20205466449260712,0
60,100,0.33636363636363636,370,0,67,_Guitar,6,5,Rocky,0.20145085453987122,0
55,100,0.8772727272727273,502,0,67,_Guitar,6,14,Rocky,0.19102469086647034,0
53,100,0.22272727272727272,805,1,67,_Guitar,6,4,Rocky,0.2280423939228058,0
60,100,0.8772727272727273,9,1,68,_Guitar,6,14,Rocky,0.9998113512992859,1
57,100,0.38181818181818183,202,0,68,_Guitar,6,6,Rocky,0.21763961017131805,0
53,100,0.2409090909090909,294,0,68,_Guitar,6,4,Rocky,0.2133638858795166,0
60,100,1.0,540,1,68,_Guitar,6,15,Rocky,0.1969899982213974,0
59,100,0.17727272727272728,779,1,68,_Guitar,6,3,Rocky,0.2233874499797821,0
59,100,0.1409090909090909,100,1,69,_Guitar,6,2,Rocky,0.9998350143432617,1
60,100,0.6,189,0,69,_Guitar,6,10,Rocky,0.20331652462482452,0
55,100,0.9,339,0,69,_Guitar,6,14,Rocky,0.1866936981678009,0
60,100,0.5409090909090909,726,1,69,_Guitar,6,9,Rocky,0.23994781076908112,0
55,100,0.8590909090909091,866,0,69,_Guitar,6,14,Rocky,0.2058226764202118,0
57,100,0.2,184,1,70,_Guitar,6,3,Rocky,0.9997664093971252,1
60,100,0.37727272727272726,360,0,70,_Guitar,6,6,Rocky,0.08045656234025955,0
57,100,0.16363636363636364,443,0,70,_Guitar,6,3,Rocky,0.07430717349052429,0
60,100,0.11818181818181818,483,0,70,_Guitar,6,2,Rocky,0.08130677789449692,0
57,100,0.2,519,0,70,_Guitar,6,3,Rocky,0.08426427841186523,0
53,100,0.1590909090909091,580,0,70,_Guitar,6,3,Rocky,0.09635347872972488,0
59,100,0.5227272727272727,773,0,70,_Guitar,6,8,Rocky,0.0838867574930191,0
60,100,1.1,13,1,71,_Guitar,6,15,Rocky,0.9998067021369934,1
55,100,0.759090909090909,365,1,71,_Guitar,6,12,Rocky,0.22212976217269897,0
60,100,0.5818181818181818,540,0,71,_Guitar,6,9,Rocky,0.22714725136756897,0
55,100,0.2590909090909091,682,0,71,_Guitar,6,4,Rocky,0.22761517763137817,0
55,100,1.981818181818182,870,0,71,_Guitar,6,15,Rocky,0.19479937851428986,0
61,100,0.1590909090909091,541,1,0,DL_Guitar,6,3,sinjyufujin_warm_ruriko_Stems,0.9930917024612427,0
53,100,0.13636363636363635,172,1,1,DL_Guitar,6,2,sinjyufujin_warm_ruriko_Stems,0.9996603727340698,1
53,100,0.16363636363636364,224,0,1,DL_Guitar,6,3,sinjyufujin_warm_ruriko_Stems,0.5461737513542175,0
56,100,0.2772727272727273,625,1,2,DL_Guitar,6,4,sinjyufujin_warm_ruriko_Stems,0.9933324456214905,0
80,100,0.12272727272727273,223,1,3,DL_Guitar,6,2,sinjyufujin_warm_ruriko_Stems,0.9996507167816162,1
53,100,0.38181818181818183,461,1,3,DL_Guitar,6,6,sinjyufujin_warm_ruriko_Stems,0.5416585206985474,0
61,100,0.12272727272727273,818,1,4,DL_Guitar,6,2,sinjyufujin_warm_ruriko_Stems,0.9933428764343262,0
61,100,0.16363636363636364,179,1,5,DL_Guitar,6,3,sinjyufujin_warm_ruriko_Stems,0.9998061060905457,1
65,100,0.11818181818181818,215,0,5,DL_Guitar,6,2,sinjyufujin_warm_ruriko_Stems,0.12327761948108673,0
61,100,0.2,260,0,5,DL_Guitar,6,3,sinjyufujin_warm_ruriko_Stems,0.11732117086648941,0
61,100,0.2818181818181818,355,0,5,DL_Guitar,6,5,sinjyufujin_warm_ruriko_Stems,0.134168341755867,0
65,100,0.1409090909090909,581,0,5,DL_Guitar,6,2,sinjyufujin_warm_ruriko_Stems,0.14746229350566864,0
61,100,0.4590909090909091,660,0,5,DL_Guitar,6,7,sinjyufujin_warm_ruriko_Stems,0.13126631081104279,0
61,100,0.16363636363636364,201,1,6,DL_Guitar,6,3,sinjyufujin_warm_ruriko_Stems,0.9998084902763367,1
66,100,0.4818181818181818,268,0,6,DL_Guitar,6,8,sinjyufujin_warm_ruriko_Stems,0.11811274290084839,0
61,100,0.11818181818181818,383,0,6,DL_Guitar,6,2,sinjyufujin_warm_ruriko_Stems,0.12344224750995636,0
66,100,0.1590909090909091,475,0,6,DL_Guitar,6,3,sinjyufujin_warm_ruriko_Stems,0.14096298813819885,0
61,100,0.5409090909090909,703,0,6,DL_Guitar,6,9,sinjyufujin_warm_ruriko_Stems,0.13485856354236603,0
61,100,0.12272727272727273,839,0,6,DL_Guitar,6,2,sinjyufujin_warm_ruriko_Stems,0.13801723718643188,0
53,100,0.17727272727272728,734,1,7,DL_Guitar,6,3,sinjyufujin_warm_ruriko_Stems,0.9934260845184326,0
56,100,0.18181818181818182,598,1,8,DL_Guitar,6,3,sinjyufujin_warm_ruriko_Stems,0.9934424161911011,0
54,100,0.1590909090909091,374,1,9,DL_Guitar,6,3,sinjyufujin_warm_ruriko_Stems,0.9998296499252319,1
54,100,0.11818181818181818,426,0,9,DL_Guitar,6,2,sinjyufujin_warm_ruriko_Stems,0.4253462851047516,0
54,100,0.5227272727272727,849,1,9,DL_Guitar,6,8,sinjyufujin_warm_ruriko_Stems,0.4081459939479828,0
56,100,0.5,660,1,10,DL_Guitar,6,8,sinjyufujin_warm_ruriko_Stems,0.9996262788772583,1
53,100,0.11818181818181818,823,0,10,DL_Guitar,6,2,sinjyufujin_warm_ruriko_Stems,0.5555480718612671,0
61,100,0.17727272727272728,338,1,11,DL_Guitar,6,3,sinjyufujin_warm_ruriko_Stems,0.9998587369918823,1
61,100,0.1,391,0,11,DL_Guitar,6,2,sinjyufujin_warm_ruriko_Stems,0.3220563530921936,0
54,100,0.1409090909090909,505,0,11,DL_Guitar,6,2,sinjyufujin_warm_ruriko_Stems,0.2982802093029022,0
54,100,0.5636363636363636,575,0,11,DL_Guitar,6,9,sinjyufujin_warm_ruriko_Stems,0.2868694067001343,0
54,100,0.21818181818181817,501,1,12,DL_Guitar,6,3,sinjyufujin_warm_ruriko_Stems,0.9996354579925537,1
53,100,0.2590909090909091,550,0,12,DL_Guitar,6,4,sinjyufujin_warm_ruriko_Stems,0.5484628081321716,0
56,100,0.2409090909090909,8,1,13,DL_Guitar,6,4,sinjyufujin_warm_ruriko_Stems,0.9998233914375305,1
61,100,0.4409090909090909,527,1,13,DL_Guitar,6,7,sinjyufujin_warm_ruriko_Stems,0.39397138357162476,0
61,100,0.12272727272727273,642,0,13,DL_Guitar,6,2,sinjyufujin_warm_ruriko_Stems,0.4473283886909485,0
56,100,0.2590909090909091,44,1,14,DL_Guitar,6,4,sinjyufujin_warm_ruriko_Stems,0.9998515844345093,1
56,100,0.37727272727272726,391,1,14,DL_Guitar,6,6,sinjyufujin_warm_ruriko_Stems,0.31769317388534546,0
60,100,0.12272727272727273,510,0,14,DL_Guitar,6,2,sinjyufujin_warm_ruriko_Stems,0.3067677319049835,0
56,100,0.4,801,1,14,DL_Guitar,6,6,sinjyufujin_warm_ruriko_Stems,0.2944968640804291,0
56,100,0.1590909090909091,118,1,15,DL_Guitar,6,3,sinjyufujin_warm_ruriko_Stems,0.9998301267623901,1
56,100,0.2409090909090909,166,0,15,DL_Guitar,6,4,sinjyufujin_warm_ruriko_Stems,0.40795010328292847,0
68,100,0.21818181818181817,634,1,15,DL_Guitar,6,3,sinjyufujin_warm_ruriko_Stems,0.43066930770874023,0
54,100,0.2,123,1,16,DL_Guitar,6,3,sinjyufujin_warm_ruriko_Stems,0.9998377561569214,1
61,100,0.2,466,1,16,DL_Guitar,6,3,sinjyufujin_warm_ruriko_Stems,0.2151079773902893,0
53,100,0.1,540,0,16,DL_Guitar,6,2,sinjyufujin_warm_ruriko_Stems,0.1971779763698578,0
61,100,0.43636363636363634,677,0,16,DL_Guitar,6,7,sinjyufujin_warm_ruriko_Stems,0.19660352170467377,0
61,100,0.1,835,0,16,DL_Guitar,6,2,sinjyufujin_warm_ruriko_Stems,0.20476049184799194,0
61,100,0.35909090909090907,0,1,17,DL_Guitar,6,6,sinjyufujin_warm_ruriko_Stems,0.9997974038124084,1
61,100,0.1590909090909091,96,0,17,DL_Guitar,6,3,sinjyufujin_warm_ruriko_Stems,0.13239392638206482,0
63,100,0.1409090909090909,272,0,17,DL_Guitar,6,2,sinjyufujin_warm_ruriko_Stems,0.12000195682048798,0
56,100,0.17727272727272728,470,0,17,DL_Guitar,6,3,sinjyufujin_warm_ruriko_Stems,0.13805754482746124,0
56,100,0.2772727272727273,515,0,17,DL_Guitar,6,4,sinjyufujin_warm_ruriko_Stems,0.14108461141586304,0
56,100,0.17727272727272728,810,1,17,DL_Guitar,6,3,sinjyufujin_warm_ruriko_Stems,0.13393937051296234,0
56,100,0.12272727272727273,13,1,18,DL_Guitar,6,2,sinjyufujin_warm_ruriko_Stems,0.9996780157089233,1
56,100,0.11818181818181818,44,0,18,DL_Guitar,6,2,sinjyufujin_warm_ruriko_Stems,0.03154483065009117,0
61,100,0.16363636363636364,92,0,18,DL_Guitar,6,3,sinjyufujin_warm_ruriko_Stems,0.021045370027422905,0
53,100,0.1590909090909091,272,0,18,DL_Guitar,6,3,sinjyufujin_warm_ruriko_Stems,0.016331668943166733,0
61,100,0.1590909090909091,360,0,18,DL_Guitar,6,3,sinjyufujin_warm_ruriko_Stems,0.013184066861867905,0
54,100,0.12272727272727273,453,0,18,DL_Guitar,6,2,sinjyufujin_warm_ruriko_Stems,0.012560222297906876,0
54,100,0.38181818181818183,484,0,18,DL_Guitar,6,6,sinjyufujin_warm_ruriko_Stems,0.012932629324495792,0
61,100,0.2772727272727273,581,0,18,DL_Guitar,6,4,sinjyufujin_warm_ruriko_Stems,0.016456857323646545,0
54,100,0.2,650,0,18,DL_Guitar,6,3,sinjyufujin_warm_ruriko_Stems,0.02351720817387104,0
54,100,0.1590909090909091,712,0,18,DL_Guitar,6,3,sinjyufujin_warm_ruriko_Stems,0.032307274639606476,0
61,100,0.1409090909090909,752,0,18,DL_Guitar,6,2,sinjyufujin_warm_ruriko_Stems,0.034576330333948135,0
61,100,0.13636363636363635,216,1,19,DL_Guitar,6,2,sinjyufujin_warm_ruriko_Stems,0.99982750415802,1
61,100,0.43636363636363634,281,0,19,DL_Guitar,6,7,sinjyufujin_warm_ruriko_Stems,0.3964160680770874,0
63,100,0.2590909090909091,700,1,19,DL_Guitar,6,4,sinjyufujin_warm_ruriko_Stems,0.4312765896320343,0
61,100,0.5,193,1,20,DL_Guitar,6,8,sinjyufujin_warm_ruriko_Stems,0.9998177886009216,1
60,100,0.11818181818181818,501,1,20,DL_Guitar,6,2,sinjyufujin_warm_ruriko_Stems,0.44240790605545044,0
61,100,0.18181818181818182,835,1,20,DL_Guitar,6,3,sinjyufujin_warm_ruriko_Stems,0.4196145236492157,0
63,100,0.2,497,1,21,DL_Guitar,6,3,sinjyufujin_warm_ruriko_Stems,0.9930897355079651,0
61,100,0.1409090909090909,581,1,22,DL_Guitar,6,2,sinjyufujin_warm_ruriko_Stems,0.999830961227417,1
61,100,0.2409090909090909,638,0,22,DL_Guitar,6,4,sinjyufujin_warm_ruriko_Stems,0.41086822748184204,0
61,100,0.2409090909090909,735,0,22,DL_Guitar,6,4,sinjyufujin_warm_ruriko_Stems,0.42313289642333984,0
56,100,0.22272727272727272,233,1,23,DL_Guitar,6,4,sinjyufujin_warm_ruriko_Stems,0.9930670261383057,0
61,100,0.21818181818181817,339,1,24,DL_Guitar,6,3,sinjyufujin_warm_ruriko_Stems,0.9998292922973633,1
61,100,0.43636363636363634,413,0,24,DL_Guitar,6,7,sinjyufujin_warm_ruriko_Stems,0.2043430656194687,0
61,100,0.5772727272727273,625,0,24,DL_Guitar,6,9,sinjyufujin_warm_ruriko_Stems,0.19989079236984253,0
61,100,0.11818181818181818,770,0,24,DL_Guitar,6,2,sinjyufujin_warm_ruriko_Stems,0.22070062160491943,0
61,100,0.5818181818181818,835,0,24,DL_Guitar,6,9,sinjyufujin_warm_ruriko_Stems,0.19953234493732452,0
61,100,0.2409090909090909,88,1,25,DL_Guitar,6,4,sinjyufujin_warm_ruriko_Stems,0.9998310804367065,1
54,100,0.5409090909090909,144,0,25,DL_Guitar,6,9,sinjyufujin_warm_ruriko_Stems,0.2048058807849884,0
54,100,0.4,295,0,25,DL_Guitar,6,6,sinjyufujin_warm_ruriko_Stems,0.1984056532382965,0
54,100,0.5590909090909091,413,0,25,DL_Guitar,6,9,sinjyufujin_warm_ruriko_Stems,0.20686662197113037,0
54,100,0.11818181818181818,550,0,25,DL_Guitar,6,2,sinjyufujin_warm_ruriko_Stems,0.21826592087745667,0
57,100,0.1,272,1,26,DL_Guitar,6,2,sinjyufujin_warm_ruriko_Stems,0.9932659864425659,0
61,100,1.0636363636363637,26,1,27,DL_Guitar,6,15,sinjyufujin_warm_ruriko_Stems,0.9998173117637634,1
61,100,0.11818181818181818,339,1,27,DL_Guitar,6,2,sinjyufujin_warm_ruriko_Stems,0.3737798035144806,0
61,100,0.2,638,1,27,DL_Guitar,6,3,sinjyufujin_warm_ruriko_Stems,0.3014211058616638,0
61,100,0.4,773,0,27,DL_Guitar,6,6,sinjyufujin_warm_ruriko_Stems,0.3052406311035156,0
60,100,0.2590909090909091,250,1,28,DL_Guitar,6,4,sinjyufujin_warm_ruriko_Stems,0.9998461008071899,1
60,100,0.2590909090909091,382,0,28,DL_Guitar,6,4,sinjyufujin_warm_ruriko_Stems,0.20652280747890472,0
60,100,0.13636363636363635,457,0,28,DL_Guitar,6,2,sinjyufujin_warm_ruriko_Stems,0.19579912722110748,0
53,100,0.5772727272727273,501,0,28,DL_Guitar,6,9,sinjyufujin_warm_ruriko_Stems,0.19215330481529236,0
53,100,0.22272727272727272,673,0,28,DL_Guitar,6,4,sinjyufujin_warm_ruriko_Stems,0.2061157524585724,0
53,100,0.11818181818181818,0,1,29,DL_Guitar,6,2,sinjyufujin_warm_ruriko_Stems,0.9998571872711182,1
54,100,0.11818181818181818,611,1,29,DL_Guitar,6,2,sinjyufujin_warm_ruriko_Stems,0.3206356465816498,0
54,100,0.12272727272727273,686,0,29,DL_Guitar,6,2,sinjyufujin_warm_ruriko_Stems,0.2996349036693573,0
54,100,0.41818181818181815,725,0,29,DL_Guitar,6,7,sinjyufujin_warm_ruriko_Stems,0.29629820585250854,0
54,100,0.7181818181818181,65,1,30,DL_Guitar,6,11,sinjyufujin_warm_ruriko_Stems,0.9998199343681335,1
54,100,0.2,246,0,30,DL_Guitar,6,3,sinjyufujin_warm_ruriko_Stems,0.2274516075849533,0
53,100,0.23636363636363636,721,1,30,DL_Guitar,6,4,sinjyufujin_warm_ruriko_Stems,0.2034982144832611,0
60,100,0.1,787,0,30,DL_Guitar,6,2,sinjyufujin_warm_ruriko_Stems,0.21142666041851044,0
53,100,0.5363636363636364,831,0,30,DL_Guitar,6,9,sinjyufujin_warm_ruriko_Stems,0.19398640096187592,0
65,100,0.12272727272727273,100,1,31,DL_Guitar,6,2,sinjyufujin_warm_ruriko_Stems,0.9998379945755005,1
53,100,0.9181818181818182,127,0,31,DL_Guitar,6,15,sinjyufujin_warm_ruriko_Stems,0.177230104804039,0
53,100,0.4,356,0,31,DL_Guitar,6,6,sinjyufujin_warm_ruriko_Stems,0.2191437929868698,0
61,100,0.4,488,0,31,DL_Guitar,6,6,sinjyufujin_warm_ruriko_Stems,0.21474416553974152,0
61,100,0.8,642,0,31,DL_Guitar,6,13,sinjyufujin_warm_ruriko_Stems,0.2038404792547226,0
61,100,0.18181818181818182,0,1,32,DL_Guitar,6,3,sinjyufujin_warm_ruriko_Stems,0.9998356103897095,1
61,100,0.13636363636363635,171,0,32,DL_Guitar,6,2,sinjyufujin_warm_ruriko_Stems,0.20804403722286224,0
54,100,0.1409090909090909,453,1,32,DL_Guitar,6,2,sinjyufujin_warm_ruriko_Stems,0.19886775314807892,0
61,100,0.11818181818181818,668,0,32,DL_Guitar,6,2,sinjyufujin_warm_ruriko_Stems,0.20564420521259308,0
56,100,0.11818181818181818,845,0,32,DL_Guitar,6,2,sinjyufujin_warm_ruriko_Stems,0.20461595058441162,0
53,100,0.22272727272727272,211,1,33,DL_Guitar,6,4,sinjyufujin_warm_ruriko_Stems,0.9998001456260681,1
53,100,0.5409090909090909,321,0,33,DL_Guitar,6,9,sinjyufujin_warm_ruriko_Stems,0.12322947382926941,0
53,100,0.42272727272727273,444,0,33,DL_Guitar,6,7,sinjyufujin_warm_ruriko_Stems,0.12144733220338821,0
61,100,0.2590909090909091,633,0,33,DL_Guitar,6,4,sinjyufujin_warm_ruriko_Stems,0.13851338624954224,0
53,100,0.11818181818181818,713,0,33,DL_Guitar,6,2,sinjyufujin_warm_ruriko_Stems,0.1473074108362198,0
70,100,0.12272727272727273,774,0,33,DL_Guitar,6,2,sinjyufujin_warm_ruriko_Stems,0.12737205624580383,0
56,100,0.11818181818181818,31,1,34,DL_Guitar,6,2,sinjyufujin_warm_ruriko_Stems,0.9998052716255188,1
70,100,0.1,105,0,34,DL_Guitar,6,2,sinjyufujin_warm_ruriko_Stems,0.12305638194084167,0
54,100,0.18181818181818182,201,0,34,DL_Guitar,6,3,sinjyufujin_warm_ruriko_Stems,0.12903013825416565,0
54,100,0.6227272727272727,289,0,34,DL_Guitar,6,10,sinjyufujin_warm_ruriko_Stems,0.12814491987228394,0
54,100,0.1409090909090909,619,1,34,DL_Guitar,6,2,sinjyufujin_warm_ruriko_Stems,0.1563836932182312,0
54,100,0.3409090909090909,694,0,34,DL_Guitar,6,5,sinjyufujin_warm_ruriko_Stems,0.13402223587036133,0
61,100,0.11818181818181818,118,1,35,DL_Guitar,6,2,sinjyufujin_warm_ruriko_Stems,0.9997671246528625,1
53,100,0.2409090909090909,308,0,35,DL_Guitar,6,4,sinjyufujin_warm_ruriko_Stems,0.07903004437685013,0
53,100,0.4,421,0,35,DL_Guitar,6,6,sinjyufujin_warm_ruriko_Stems,0.072661392390728,0
65,100,0.12272727272727273,509,0,35,DL_Guitar,6,2,sinjyufujin_warm_ruriko_Stems,0.08243835717439651,0
60,100,0.2,576,0,35,DL_Guitar,6,3,sinjyufujin_warm_ruriko_Stems,0.08853347599506378,0
60,100,0.1409090909090909,625,0,35,DL_Guitar,6,2,sinjyufujin_warm_ruriko_Stems,0.09755244106054306,0
53,100,1.018181818181818,691,0,35,DL_Guitar,6,15,sinjyufujin_warm_ruriko_Stems,0.07875536382198334,0
61,100,0.38181818181818183,69,1,36,DL_Guitar,6,6,sinjyufujin_warm_ruriko_Stems,0.9998162388801575,1
61,100,0.2636363636363636,356,1,36,DL_Guitar,6,4,sinjyufujin_warm_ruriko_Stems,0.4263826608657837,0
54,100,0.8227272727272728,421,0,36,DL_Guitar,6,13,sinjyufujin_warm_ruriko_Stems,0.41791146993637085,0
54,100,0.2409090909090909,153,1,37,DL_Guitar,6,4,sinjyufujin_warm_ruriko_Stems,0.9998569488525391,1
54,100,0.11818181818181818,238,0,37,DL_Guitar,6,2,sinjyufujin_warm_ruriko_Stems,0.3248913586139679,0
54,100,0.1590909090909091,298,0,37,DL_Guitar,6,3,sinjyufujin_warm_ruriko_Stems,0.28986600041389465,0
54,100,0.11818181818181818,418,0,37,DL_Guitar,6,2,sinjyufujin_warm_ruriko_Stems,0.3037952780723572,0
56,100,0.5,40,1,38,DL_Guitar,6,8,sinjyufujin_warm_ruriko_Stems,0.9998067021369934,1
54,100,0.1590909090909091,713,1,38,DL_Guitar,6,3,sinjyufujin_warm_ruriko_Stems,0.44318944215774536,0
61,100,0.7818181818181819,791,0,38,DL_Guitar,6,13,sinjyufujin_warm_ruriko_Stems,0.4111874997615814,0
61,100,0.5590909090909091,141,1,39,DL_Guitar,6,9,sinjyufujin_warm_ruriko_Stems,0.9998346567153931,1
61,100,0.3409090909090909,364,0,39,DL_Guitar,6,5,sinjyufujin_warm_ruriko_Stems,0.3390117585659027,0
65,100,0.16363636363636364,531,0,39,DL_Guitar,6,3,sinjyufujin_warm_ruriko_Stems,0.30050837993621826,0
61,100,0.6181818181818182,568,0,39,DL_Guitar,6,10,sinjyufujin_warm_ruriko_Stems,0.30253252387046814,0
56,100,0.12272727272727273,48,1,40,DL_Guitar,6,2,sinjyufujin_warm_ruriko_Stems,0.9998576641082764,1
60,100,0.11818181818181818,295,1,40,DL_Guitar,6,2,sinjyufujin_warm_ruriko_Stems,0.3196660578250885,0
53,100,0.5409090909090909,399,0,40,DL_Guitar,6,9,sinjyufujin_warm_ruriko_Stems,0.27663907408714294,0
61,100,0.5181818181818182,703,1,40,DL_Guitar,6,8,sinjyufujin_warm_ruriko_Stems,0.30565357208251953,0
61,100,0.5590909090909091,193,1,41,DL_Guitar,6,9,sinjyufujin_warm_ruriko_Stems,0.9998354911804199,1
61,100,0.3,396,0,41,DL_Guitar,6,5,sinjyufujin_warm_ruriko_Stems,0.33685502409935,0
61,100,0.41818181818181815,691,1,41,DL_Guitar,6,7,sinjyufujin_warm_ruriko_Stems,0.2958484888076782,0
61,100,0.9409090909090909,804,0,41,DL_Guitar,6,15,sinjyufujin_warm_ruriko_Stems,0.3055148422718048,0
56,100,0.11818181818181818,303,1,42,DL_Guitar,6,2,sinjyufujin_warm_ruriko_Stems,0.999629020690918,1
53,100,0.5,638,1,42,DL_Guitar,6,8,sinjyufujin_warm_ruriko_Stems,0.5481029152870178,0
53,100,0.21818181818181817,0,1,43,DL_Guitar,6,3,sinjyufujin_warm_ruriko_Stems,0.9998517036437988,1
61,100,0.4636363636363636,48,0,43,DL_Guitar,6,7,sinjyufujin_warm_ruriko_Stems,0.31209003925323486,0
61,100,0.1590909090909091,373,1,43,DL_Guitar,6,3,sinjyufujin_warm_ruriko_Stems,0.30065086483955383,0
61,100,0.11818181818181818,448,0,43,DL_Guitar,6,2,sinjyufujin_warm_ruriko_Stems,0.3060307800769806,0
56,100,0.16363636363636364,311,1,44,DL_Guitar,6,3,sinjyufujin_warm_ruriko_Stems,0.9998316764831543,1
61,100,0.1409090909090909,660,1,44,DL_Guitar,6,2,sinjyufujin_warm_ruriko_Stems,0.4158848524093628,0
61,100,0.2409090909090909,694,0,44,DL_Guitar,6,4,sinjyufujin_warm_ruriko_Stems,0.42018795013427734,0
61,100,0.4409090909090909,118,1,45,DL_Guitar,6,7,sinjyufujin_warm_ruriko_Stems,0.9998430013656616,1
61,100,0.2,426,1,45,DL_Guitar,6,3,sinjyufujin_warm_ruriko_Stems,0.3440316915512085,0
54,100,0.1409090909090909,603,0,45,DL_Guitar,6,2,sinjyufujin_warm_ruriko_Stems,0.28929588198661804,0
54,100,0.1,751,0,45,DL_Guitar,6,2,sinjyufujin_warm_ruriko_Stems,0.30774062871932983,0
56,100,0.1590909090909091,96,1,46,DL_Guitar,6,3,sinjyufujin_warm_ruriko_Stems,0.9996511936187744,1
56,100,0.2,466,1,46,DL_Guitar,6,3,sinjyufujin_warm_ruriko_Stems,0.5514732003211975,0
58,100,0.1409090909090909,224,1,47,DL_Guitar,6,2,sinjyufujin_warm_ruriko_Stems,0.9998192191123962,1
61,100,0.18181818181818182,396,0,47,DL_Guitar,6,3,sinjyufujin_warm_ruriko_Stems,0.42630311846733093,0
58,100,0.1,593,0,47,DL_Guitar,6,2,sinjyufujin_warm_ruriko_Stems,0.41871440410614014,0
56,100,0.1590909090909091,260,1,48,DL_Guitar,6,3,sinjyufujin_warm_ruriko_Stems,0.9998350143432617,1
56,100,0.2818181818181818,518,1,48,DL_Guitar,6,5,sinjyufujin_warm_ruriko_Stems,0.21107031404972076,0
56,100,0.17727272727272728,633,0,48,DL_Guitar,6,3,sinjyufujin_warm_ruriko_Stems,0.2022109031677246,0
61,100,0.1409090909090909,694,0,48,DL_Guitar,6,2,sinjyufujin_warm_ruriko_Stems,0.20466552674770355,0
63,100,0.18181818181818182,770,0,48,DL_Guitar,6,3,sinjyufujin_warm_ruriko_Stems,0.19933173060417175,0
56,100,0.2590909090909091,260,1,49,DL_Guitar,6,4,sinjyufujin_warm_ruriko_Stems,0.9996137022972107,1
61,100,0.2590909090909091,633,1,49,DL_Guitar,6,4,sinjyufujin_warm_ruriko_Stems,0.5566895604133606,0
54,100,0.3409090909090909,188,1,50,DL_Guitar,6,5,sinjyufujin_warm_ruriko_Stems,0.999799907207489,1
54,100,0.1590909090909091,405,0,50,DL_Guitar,6,3,sinjyufujin_warm_ruriko_Stems,0.13592754304409027,0
66,100,0.12272727272727273,444,0,50,DL_Guitar,6,2,sinjyufujin_warm_ruriko_Stems,0.11860668659210205,0
56,100,0.16363636363636364,509,0,50,DL_Guitar,6,3,sinjyufujin_warm_ruriko_Stems,0.13741838932037354,0
56,100,0.5227272727272727,751,1,50,DL_Guitar,6,8,sinjyufujin_warm_ruriko_Stems,0.13421663641929626,0
61,100,0.2590909090909091,875,0,50,DL_Guitar,6,4,sinjyufujin_warm_ruriko_Stems,0.13470558822155,0
56,100,0.2590909090909091,56,1,51,DL_Guitar,6,4,sinjyufujin_warm_ruriko_Stems,0.9998056292533875,1
56,100,0.5181818181818182,308,1,51,DL_Guitar,6,8,sinjyufujin_warm_ruriko_Stems,0.11986827105283737,0
56,100,0.3,444,0,51,DL_Guitar,6,5,sinjyufujin_warm_ruriko_Stems,0.12490378320217133,0
56,100,0.4409090909090909,550,0,51,DL_Guitar,6,7,sinjyufujin_warm_ruriko_Stems,0.1366165429353714,0
56,100,0.38181818181818183,686,0,51,DL_Guitar,6,6,sinjyufujin_warm_ruriko_Stems,0.14508093893527985,0
56,100,0.4590909090909091,791,0,51,DL_Guitar,6,7,sinjyufujin_warm_ruriko_Stems,0.13129597902297974,0
56,100,0.4772727272727273,61,1,52,DL_Guitar,6,8,sinjyufujin_warm_ruriko_Stems,0.9998156428337097,1
56,100,0.18181818181818182,233,0,52,DL_Guitar,6,3,sinjyufujin_warm_ruriko_Stems,0.43194344639778137,0
54,100,0.3,311,0,52,DL_Guitar,6,5,sinjyufujin_warm_ruriko_Stems,0.42781612277030945,0
56,100,0.2,40,1,53,DL_Guitar,6,3,sinjyufujin_warm_ruriko_Stems,0.9997993111610413,1
56,100,0.18181818181818182,110,0,53,DL_Guitar,6,3,sinjyufujin_warm_ruriko_Stems,0.13021808862686157,0
56,100,0.2590909090909091,281,0,53,DL_Guitar,6,4,sinjyufujin_warm_ruriko_Stems,0.11909567564725876,0
63,100,0.11818181818181818,373,0,53,DL_Guitar,6,2,sinjyufujin_warm_ruriko_Stems,0.13664892315864563,0
56,100,0.16363636363636364,774,1,53,DL_Guitar,6,3,sinjyufujin_warm_ruriko_Stems,0.14412420988082886,0
56,100,0.22272727272727272,848,0,53,DL_Guitar,6,4,sinjyufujin_warm_ruriko_Stems,0.1334792673587799,0
61,100,0.2409090909090909,48,1,54,DL_Guitar,6,4,sinjyufujin_warm_ruriko_Stems,0.999839186668396,1
56,100,0.2,110,0,54,DL_Guitar,6,3,sinjyufujin_warm_ruriko_Stems,0.2075551301240921,0
66,100,0.11818181818181818,703,1,54,DL_Guitar,6,2,sinjyufujin_warm_ruriko_Stems,0.19819289445877075,0
61,100,0.2,810,0,54,DL_Guitar,6,3,sinjyufujin_warm_ruriko_Stems,0.20448464155197144,0
54,100,0.38181818181818183,861,0,54,DL_Guitar,6,6,sinjyufujin_warm_ruriko_Stems,0.20251987874507904,0
56,100,0.36363636363636365,818,1,55,DL_Guitar,6,6,sinjyufujin_warm_ruriko_Stems,0.9928967356681824,0
61,100,2.040909090909091,268,1,56,DL_Guitar,6,15,sinjyufujin_warm_ruriko_Stems,0.9994365572929382,1
61,100,0.5772727272727273,866,1,56,DL_Guitar,6,9,sinjyufujin_warm_ruriko_Stems,0.5889018177986145,0
56,100,0.21818181818181817,361,1,58,DL_Guitar,6,3,sinjyufujin_warm_ruriko_Stems,0.9995848536491394,1
61,100,1.759090909090909,550,0,58,DL_Guitar,6,15,sinjyufujin_warm_ruriko_Stems,0.5236225724220276,0
61,100,0.1590909090909091,215,1,59,DL_Guitar,6,3,sinjyufujin_warm_ruriko_Stems,0.9997982382774353,1
61,100,0.1409090909090909,373,0,59,DL_Guitar,6,2,sinjyufujin_warm_ruriko_Stems,0.13105656206607819,0
56,100,0.22272727272727272,541,0,59,DL_Guitar,6,4,sinjyufujin_warm_ruriko_Stems,0.11811692267656326,0
57,100,0.1590909090909091,726,0,59,DL_Guitar,6,3,sinjyufujin_warm_ruriko_Stems,0.137139692902565,0
57,100,0.35909090909090907,783,0,59,DL_Guitar,6,6,sinjyufujin_warm_ruriko_Stems,0.13545657694339752,0
53,100,0.2,875,0,59,DL_Guitar,6,3,sinjyufujin_warm_ruriko_Stems,0.14288268983364105,0
57,100,0.2409090909090909,48,1,60,DL_Guitar,6,4,sinjyufujin_warm_ruriko_Stems,0.9998440742492676,1
61,100,0.23636363636363636,171,0,60,DL_Guitar,6,4,sinjyufujin_warm_ruriko_Stems,0.3286914527416229,0
61,100,1.1181818181818182,228,0,60,DL_Guitar,6,15,sinjyufujin_warm_ruriko_Stems,0.2844935655593872,0
61,100,2.2409090909090907,673,1,60,DL_Guitar,6,15,sinjyufujin_warm_ruriko_Stems,0.31080225110054016,0
61,100,0.5818181818181818,364,1,61,DL_Guitar,6,9,sinjyufujin_warm_ruriko_Stems,0.9995949864387512,1
61,100,0.3409090909090909,531,0,61,DL_Guitar,6,5,sinjyufujin_warm_ruriko_Stems,0.556033730506897,0
61,100,0.8818181818181818,461,1,62,DL_Guitar,6,14,sinjyufujin_warm_ruriko_Stems,0.9997990727424622,1
61,100,0.5,681,0,62,DL_Guitar,6,8,sinjyufujin_warm_ruriko_Stems,0.4480731189250946,0
61,100,0.2636363636363636,796,0,62,DL_Guitar,6,4,sinjyufujin_warm_ruriko_Stems,0.4360339641571045,0
61,100,1.9636363636363636,48,1,63,DL_Guitar,6,15,sinjyufujin_warm_ruriko_Stems,0.9994692206382751,1
61,100,0.2409090909090909,576,1,63,DL_Guitar,6,4,sinjyufujin_warm_ruriko_Stems,0.5927364826202393,0
61,100,0.5409090909090909,440,1,64,DL_Guitar,6,9,sinjyufujin_warm_ruriko_Stems,0.9998180270195007,1
56,100,0.4,713,1,64,DL_Guitar,6,6,sinjyufujin_warm_ruriko_Stems,0.42473354935646057,0
56,100,0.2772727272727273,853,0,64,DL_Guitar,6,4,sinjyufujin_warm_ruriko_Stems,0.4300744831562042,0
53,100,0.9590909090909091,470,1,65,DL_Guitar,6,15,sinjyufujin_warm_ruriko_Stems,0.9995623230934143,1
54,100,0.1590909090909091,805,1,65,DL_Guitar,6,3,sinjyufujin_warm_ruriko_Stems,0.5745134353637695,0
54,100,0.11818181818181818,40,1,66,DL_Guitar,6,2,sinjyufujin_warm_ruriko_Stems,0.9998327493667603,1
54,100,0.3,106,0,66,DL_Guitar,6,5,sinjyufujin_warm_ruriko_Stems,0.20994210243225098,0
54,100,0.2590909090909091,273,0,66,DL_Guitar,6,4,sinjyufujin_warm_ruriko_Stems,0.19700835645198822,0
54,100,0.1409090909090909,404,0,66,DL_Guitar,6,2,sinjyufujin_warm_ruriko_Stems,0.2105380892753601,0
56,100,0.18181818181818182,729,1,66,DL_Guitar,6,3,sinjyufujin_warm_ruriko_Stems,0.2047424167394638,0
56,100,0.740909090909091,113,1,67,DL_Guitar,6,12,sinjyufujin_warm_ruriko_Stems,0.9998371601104736,1
63,100,0.2409090909090909,377,1,67,DL_Guitar,6,4,sinjyufujin_warm_ruriko_Stems,0.33859893679618835,0
56,100,0.22272727272727272,487,0,67,DL_Guitar,6,4,sinjyufujin_warm_ruriko_Stems,0.29552212357521057,0
65,100,0.1409090909090909,760,1,67,DL_Guitar,6,2,sinjyufujin_warm_ruriko_Stems,0.31422895193099976,0
54,100,0.4,163,1,68,DL_Guitar,6,6,sinjyufujin_warm_ruriko_Stems,0.9998385906219482,1
54,100,0.9590909090909091,263,0,68,DL_Guitar,6,15,sinjyufujin_warm_ruriko_Stems,0.30465126037597656,0
54,100,0.3,480,0,68,DL_Guitar,6,5,sinjyufujin_warm_ruriko_Stems,0.3242373466491699,0
54,100,0.11818181818181818,624,0,68,DL_Guitar,6,2,sinjyufujin_warm_ruriko_Stems,0.31650310754776,0
53,100,0.18181818181818182,110,1,70,DL_Guitar,6,3,sinjyufujin_warm_ruriko_Stems,0.9998056292533875,1
53,100,0.4590909090909091,176,0,70,DL_Guitar,6,7,sinjyufujin_warm_ruriko_Stems,0.12044328451156616,0
53,100,0.2590909090909091,316,0,70,DL_Guitar,6,4,sinjyufujin_warm_ruriko_Stems,0.1255251169204712,0
54,100,0.2,633,1,70,DL_Guitar,6,3,sinjyufujin_warm_ruriko_Stems,0.13584871590137482,0
54,100,0.1409090909090909,760,0,70,DL_Guitar,6,2,sinjyufujin_warm_ruriko_Stems,0.14370931684970856,0
54,100,0.3,813,0,70,DL_Guitar,6,5,sinjyufujin_warm_ruriko_Stems,0.12910477817058563,0
56,100,0.7227272727272728,356,1,71,DL_Guitar,6,12,sinjyufujin_warm_ruriko_Stems,0.9995854496955872,1
56,100,0.2,800,1,71,DL_Guitar,6,3,sinjyufujin_warm_ruriko_Stems,0.5635011196136475,0
54,100,0.3181818181818182,0,1,73,DL_Guitar,6,5,sinjyufujin_warm_ruriko_Stems,0.9998470544815063,1
54,100,0.11818181818181818,83,0,73,DL_Guitar,6,2,sinjyufujin_warm_ruriko_Stems,0.3277050256729126,0
61,100,0.3,606,1,73,DL_Guitar,6,5,sinjyufujin_warm_ruriko_Stems,0.2911904752254486,0
61,100,0.18181818181818182,695,0,73,DL_Guitar,6,3,sinjyufujin_warm_ruriko_Stems,0.3074203431606293,0
65,100,0.1409090909090909,449,1,74,DL_Guitar,6,2,sinjyufujin_warm_ruriko_Stems,0.999832272529602,1
61,100,0.4,506,0,74,DL_Guitar,6,6,sinjyufujin_warm_ruriko_Stems,0.4023936986923218,0
61,100,0.2409090909090909,783,1,74,DL_Guitar,6,4,sinjyufujin_warm_ruriko_Stems,0.4243508279323578,0
57,100,0.35909090909090907,140,1,75,DL_Guitar,6,6,sinjyufujin_warm_ruriko_Stems,0.9997900128364563,1
54,100,0.12272727272727273,255,0,75,DL_Guitar,6,2,sinjyufujin_warm_ruriko_Stems,0.13533590734004974,0
54,100,0.22272727272727272,422,0,75,DL_Guitar,6,4,sinjyufujin_warm_ruriko_Stems,0.11923043429851532,0
54,100,0.3,546,0,75,DL_Guitar,6,5,sinjyufujin_warm_ruriko_Stems,0.13333018124103546,0
61,100,0.1409090909090909,650,0,75,DL_Guitar,6,2,sinjyufujin_warm_ruriko_Stems,0.1458587497472763,0
61,100,0.17727272727272728,722,0,75,DL_Guitar,6,3,sinjyufujin_warm_ruriko_Stems,0.1369577795267105,0
56,100,0.11818181818181818,0,1,76,DL_Guitar,6,2,sinjyufujin_warm_ruriko_Stems,0.9997631907463074,1
53,100,1.1,100,0,76,DL_Guitar,6,15,sinjyufujin_warm_ruriko_Stems,0.0705152377486229,0
60,100,0.4772727272727273,370,1,76,DL_Guitar,6,8,sinjyufujin_warm_ruriko_Stems,0.08080346137285233,0
57,100,0.12272727272727273,509,0,76,DL_Guitar,6,2,sinjyufujin_warm_ruriko_Stems,0.08328446000814438,0
63,100,0.1,550,0,76,DL_Guitar,6,2,sinjyufujin_warm_ruriko_Stems,0.09185771644115448,0
61,100,0.3181818181818182,770,0,76,DL_Guitar,6,5,sinjyufujin_warm_ruriko_Stems,0.09605752676725388,0
60,100,0.2409090909090909,839,0,76,DL_Guitar,6,4,sinjyufujin_warm_ruriko_Stems,0.09103609621524811,0
56,100,0.3409090909090909,110,1,77,DL_Guitar,6,5,sinjyufujin_warm_ruriko_Stems,0.9997590184211731,1
61,100,0.2,356,1,77,DL_Guitar,6,3,sinjyufujin_warm_ruriko_Stems,0.08269614726305008,0
54,100,0.1590909090909091,413,0,77,DL_Guitar,6,3,sinjyufujin_warm_ruriko_Stems,0.07355391979217529,0
54,100,0.1,466,0,77,DL_Guitar,6,2,sinjyufujin_warm_ruriko_Stems,0.08175760507583618,0
54,100,0.3409090909090909,514,0,77,DL_Guitar,6,5,sinjyufujin_warm_ruriko_Stems,0.08435280621051788,0
61,100,0.17727272727272728,603,0,77,DL_Guitar,6,3,sinjyufujin_warm_ruriko_Stems,0.09628579020500183,0
61,100,0.21818181818181817,779,0,77,DL_Guitar,6,3,sinjyufujin_warm_ruriko_Stems,0.08615341037511826,0
61,100,0.9181818181818182,119,1,78,DL_Guitar,6,15,sinjyufujin_warm_ruriko_Stems,0.9995753169059753,1
56,100,0.12272727272727273,466,1,78,DL_Guitar,6,2,sinjyufujin_warm_ruriko_Stems,0.5758712887763977,0
61,100,0.2818181818181818,333,1,79,DL_Guitar,6,5,sinjyufujin_warm_ruriko_Stems,0.9998301267623901,1
61,100,0.16363636363636364,399,0,79,DL_Guitar,6,3,sinjyufujin_warm_ruriko_Stems,0.21547703444957733,0
54,100,0.3181818181818182,449,0,79,DL_Guitar,6,5,sinjyufujin_warm_ruriko_Stems,0.19522947072982788,0
54,100,0.11818181818181818,580,0,79,DL_Guitar,6,2,sinjyufujin_warm_ruriko_Stems,0.21184344589710236,0
54,100,0.1,624,0,79,DL_Guitar,6,2,sinjyufujin_warm_ruriko_Stems,0.2077466994524002,0
54,100,0.35909090909090907,9,1,80,DL_Guitar,6,6,sinjyufujin_warm_ruriko_Stems,0.999843955039978,1
54,100,0.21818181818181817,153,0,80,DL_Guitar,6,3,sinjyufujin_warm_ruriko_Stems,0.33481618762016296,0
61,100,0.13636363636363635,436,1,80,DL_Guitar,6,2,sinjyufujin_warm_ruriko_Stems,0.29121530055999756,0
63,100,0.32272727272727275,606,0,80,DL_Guitar,6,5,sinjyufujin_warm_ruriko_Stems,0.3037348687648773,0
56,100,0.2409090909090909,307,1,81,DL_Guitar,6,4,sinjyufujin_warm_ruriko_Stems,0.9998226761817932,1
56,100,0.1,553,1,81,DL_Guitar,6,2,sinjyufujin_warm_ruriko_Stems,0.42465484142303467,0
56,100,0.33636363636363636,590,0,81,DL_Guitar,6,5,sinjyufujin_warm_ruriko_Stems,0.4278370141983032,0
54,100,0.1409090909090909,47,1,84,DL_Guitar,6,2,sinjyufujin_warm_ruriko_Stems,0.9996236562728882,1
54,100,0.22272727272727272,136,0,84,DL_Guitar,6,4,sinjyufujin_warm_ruriko_Stems,0.5487568378448486,0
56,100,0.1,153,1,85,DL_Guitar,6,2,sinjyufujin_warm_ruriko_Stems,0.9935017228126526,0
59,100,0.2,443,1,86,DL_Guitar,6,3,sinjyufujin_warm_ruriko_Stems,0.9998341798782349,1
55,100,0.1409090909090909,572,0,86,DL_Guitar,6,2,sinjyufujin_warm_ruriko_Stems,0.4047655165195465,0
57,100,0.36363636363636365,796,0,86,DL_Guitar,6,6,sinjyufujin_warm_ruriko_Stems,0.42204684019088745,0
57,100,0.42272727272727273,136,1,87,DL_Guitar,6,7,sinjyufujin_warm_ruriko_Stems,0.9998154044151306,1
57,100,0.1,413,1,87,DL_Guitar,6,2,sinjyufujin_warm_ruriko_Stems,0.43358495831489563,0
57,100,0.16363636363636364,443,0,87,DL_Guitar,6,3,sinjyufujin_warm_ruriko_Stems,0.43166685104370117,0
59,100,0.2590909090909091,373,1,88,DL_Guitar,6,4,sinjyufujin_warm_ruriko_Stems,0.9998302459716797,1
55,100,0.18181818181818182,550,0,88,DL_Guitar,6,3,sinjyufujin_warm_ruriko_Stems,0.40916797518730164,0
62,100,0.2818181818181818,637,0,88,DL_Guitar,6,5,sinjyufujin_warm_ruriko_Stems,0.4289790391921997,0
57,100,0.9409090909090909,110,1,89,DL_Guitar,6,15,sinjyufujin_warm_ruriko_Stems,0.9998143315315247,1
57,100,0.6818181818181818,619,1,89,DL_Guitar,6,11,sinjyufujin_warm_ruriko_Stems,0.3459894061088562,0
57,100,0.16363636363636364,773,0,89,DL_Guitar,6,3,sinjyufujin_warm_ruriko_Stems,0.3147721588611603,0
57,100,0.1,866,0,89,DL_Guitar,6,2,sinjyufujin_warm_ruriko_Stems,0.32078292965888977,0
57,100,0.21818181818181817,53,1,90,DL_Guitar,6,3,sinjyufujin_warm_ruriko_Stems,0.9998278617858887,1
62,100,0.2409090909090909,157,0,90,DL_Guitar,6,4,sinjyufujin_warm_ruriko_Stems,0.21934838593006134,0
57,100,0.1590909090909091,294,0,90,DL_Guitar,6,3,sinjyufujin_warm_ruriko_Stems,0.2004188746213913,0
57,100,0.1,540,1,90,DL_Guitar,6,2,sinjyufujin_warm_ruriko_Stems,0.2088988721370697,0
55,100,0.41818181818181815,779,1,90,DL_Guitar,6,7,sinjyufujin_warm_ruriko_Stems,0.19739501178264618,0
61,100,0.759090909090909,347,1,91,DL_Guitar,6,12,sinjyufujin_warm_ruriko_Stems,0.9995410442352295,1
54,100,0.9409090909090909,836,1,91,DL_Guitar,6,15,sinjyufujin_warm_ruriko_Stems,0.5521134734153748,0
54,100,0.6818181818181818,255,1,92,DL_Guitar,6,11,sinjyufujin_warm_ruriko_Stems,0.9997448325157166,1
62,100,0.12272727272727273,430,0,92,DL_Guitar,6,2,sinjyufujin_warm_ruriko_Stems,0.09063521772623062,0
54,100,0.3,466,0,92,DL_Guitar,6,5,sinjyufujin_warm_ruriko_Stems,0.07390261441469193,0
59,100,0.1409090909090909,536,0,92,DL_Guitar,6,2,sinjyufujin_warm_ruriko_Stems,0.0794946551322937,0
54,100,0.1,612,0,92,DL_Guitar,6,2,sinjyufujin_warm_ruriko_Stems,0.09283949434757233,0
54,100,0.1590909090909091,656,0,92,DL_Guitar,6,3,sinjyufujin_warm_ruriko_Stems,0.0957396849989891,0
66,100,0.1,826,0,92,DL_Guitar,6,2,sinjyufujin_warm_ruriko_Stems,0.08652512729167938,0
55,100,0.2409090909090909,453,1,93,DL_Guitar,6,4,sinjyufujin_warm_ruriko_Stems,0.9998227953910828,1
57,100,0.21818181818181817,603,0,93,DL_Guitar,6,3,sinjyufujin_warm_ruriko_Stems,0.4127618074417114,0
57,100,0.11818181818181818,713,0,93,DL_Guitar,6,2,sinjyufujin_warm_ruriko_Stems,0.4335207939147949,0
54,100,0.2590909090909091,210,1,94,DL_Guitar,6,4,sinjyufujin_warm_ruriko_Stems,0.9998102784156799,1
59,100,0.18181818181818182,276,0,94,DL_Guitar,6,3,sinjyufujin_warm_ruriko_Stems,0.12223853915929794,0
54,100,0.2409090909090909,320,0,94,DL_Guitar,6,4,sinjyufujin_warm_ruriko_Stems,0.12008475512266159,0
59,100,0.1,457,0,94,DL_Guitar,6,2,sinjyufujin_warm_ruriko_Stems,0.13730880618095398,0
54,100,0.2818181818181818,637,0,94,DL_Guitar,6,5,sinjyufujin_warm_ruriko_Stems,0.14121907949447632,0
54,100,0.2818181818181818,826,0,94,DL_Guitar,6,5,sinjyufujin_warm_ruriko_Stems,0.13019594550132751,0
59,100,0.4409090909090909,197,1,95,DL_Guitar,6,7,sinjyufujin_warm_ruriko_Stems,0.9995988011360168,1
59,100,0.42272727272727273,826,1,95,DL_Guitar,6,7,sinjyufujin_warm_ruriko_Stems,0.550599992275238,0
57,100,0.2818181818181818,110,1,96,DL_Guitar,6,5,sinjyufujin_warm_ruriko_Stems,0.9998188614845276,1
57,100,0.1,179,0,96,DL_Guitar,6,2,sinjyufujin_warm_ruriko_Stems,0.4233155846595764,0
57,100,0.4590909090909091,206,0,96,DL_Guitar,6,7,sinjyufujin_warm_ruriko_Stems,0.4226502478122711,0
57,100,0.17727272727272728,492,1,0,DL_Guitar,6,3,umon_taturo_upbeat,0.9931262731552124,0
69,100,0.33636363636363636,39,1,1,DL_Guitar,6,5,umon_taturo_upbeat,0.9997922778129578,1
52,100,0.7,166,0,1,DL_Guitar,6,11,umon_taturo_upbeat,0.1285792589187622,0
52,100,0.1,351,0,1,DL_Guitar,6,2,umon_taturo_upbeat,0.1305968165397644,0
59,100,0.1409090909090909,449,0,1,DL_Guitar,6,2,umon_taturo_upbeat,0.1352781504392624,0
52,100,0.11818181818181818,638,0,1,DL_Guitar,6,2,umon_taturo_upbeat,0.1508890986442566,0
54,100,0.4409090909090909,796,0,1,DL_Guitar,6,7,umon_taturo_upbeat,0.12687835097312927,0
59,100,0.2,12,1,2,DL_Guitar,6,3,umon_taturo_upbeat,0.9998281002044678,1
54,100,0.3409090909090909,421,1,2,DL_Guitar,6,5,umon_taturo_upbeat,0.41294175386428833,0
57,100,0.33636363636363636,501,0,2,DL_Guitar,6,5,umon_taturo_upbeat,0.4254588186740875,0
57,100,0.1409090909090909,70,1,3,DL_Guitar,6,2,umon_taturo_upbeat,0.9998489618301392,1
69,100,0.2772727272727273,295,0,3,DL_Guitar,6,4,umon_taturo_upbeat,0.31228891015052795,0
59,100,0.3,550,1,3,DL_Guitar,6,5,umon_taturo_upbeat,0.29776889085769653,0
64,100,0.2818181818181818,629,0,3,DL_Guitar,6,5,umon_taturo_upbeat,0.3118912875652313,0
61,100,0.2590909090909091,255,1,4,DL_Guitar,6,4,umon_taturo_upbeat,0.9996323585510254,1
64,100,0.3,871,1,4,DL_Guitar,6,5,umon_taturo_upbeat,0.5530964732170105,0
52,100,0.3,56,1,5,DL_Guitar,6,5,umon_taturo_upbeat,0.9998592138290405,1
69,100,0.11818181818181818,514,1,5,DL_Guitar,6,2,umon_taturo_upbeat,0.30836614966392517,0
52,100,0.5772727272727273,678,0,5,DL_Guitar,6,9,umon_taturo_upbeat,0.2850421667098999,0
52,100,0.2636363636363636,862,0,5,DL_Guitar,6,4,umon_taturo_upbeat,0.31180277466773987,0
64,100,0.1,79,1,6,DL_Guitar,6,2,umon_taturo_upbeat,0.9998581409454346,1
52,100,0.8,105,0,6,DL_Guitar,6,13,umon_taturo_upbeat,0.2907165586948395,0
54,100,0.43636363636363634,414,1,6,DL_Guitar,6,7,umon_taturo_upbeat,0.2985842823982239,0
59,100,0.2409090909090909,514,0,6,DL_Guitar,6,4,umon_taturo_upbeat,0.3118429183959961,0
54,100,0.1409090909090909,87,1,7,DL_Guitar,6,2,umon_taturo_upbeat,0.9998304843902588,1
57,100,0.32272727272727275,122,0,7,DL_Guitar,6,5,umon_taturo_upbeat,0.40406033396720886,0
54,100,0.1409090909090909,317,0,7,DL_Guitar,6,2,umon_taturo_upbeat,0.42856770753860474,0
59,100,0.1,34,1,8,DL_Guitar,6,2,umon_taturo_upbeat,0.9997689127922058,1
52,100,0.1,127,0,8,DL_Guitar,6,2,umon_taturo_upbeat,0.07985062152147293,0
59,100,0.37727272727272726,347,0,8,DL_Guitar,6,6,umon_taturo_upbeat,0.07051268219947815,0
54,100,0.3409090909090909,448,0,8,DL_Guitar,6,5,umon_taturo_upbeat,0.07957637310028076,0
52,100,0.38181818181818183,673,0,8,DL_Guitar,6,6,umon_taturo_upbeat,0.09211529046297073,0
57,100,0.3,766,0,8,DL_Guitar,6,5,umon_taturo_upbeat,0.09348923712968826,0
52,100,0.1,840,0,8,DL_Guitar,6,2,umon_taturo_upbeat,0.09178613126277924,0
57,100,0.21818181818181817,0,1,9,DL_Guitar,6,3,umon_taturo_upbeat,0.9997580647468567,1
61,100,0.23636363636363636,106,0,9,DL_Guitar,6,4,umon_taturo_upbeat,0.0819203108549118,0
57,100,0.2590909090909091,163,0,9,DL_Guitar,6,4,umon_taturo_upbeat,0.07147655636072159,0
61,100,0.2772727272727273,405,1,9,DL_Guitar,6,4,umon_taturo_upbeat,0.08243709057569504,0
57,100,0.11818181818181818,484,0,9,DL_Guitar,6,2,umon_taturo_upbeat,0.0889337807893753,0
57,100,0.1409090909090909,515,0,9,DL_Guitar,6,2,umon_taturo_upbeat,0.0951046496629715,0
52,100,0.23636363636363636,809,1,9,DL_Guitar,6,4,umon_taturo_upbeat,0.08768587559461594,0
52,100,0.2409090909090909,113,1,10,DL_Guitar,6,4,umon_taturo_upbeat,0.9997817873954773,1
52,100,0.2409090909090909,299,0,10,DL_Guitar,6,4,umon_taturo_upbeat,0.07828479260206223,0
64,100,0.1,400,0,10,DL_Guitar,6,2,umon_taturo_upbeat,0.0731344148516655,0
59,100,0.32272727272727275,431,0,10,DL_Guitar,6,5,umon_taturo_upbeat,0.0746200829744339,0
52,100,0.1590909090909091,611,0,10,DL_Guitar,6,3,umon_taturo_upbeat,0.08858243376016617,0
52,100,0.43636363636363634,656,0,10,DL_Guitar,6,7,umon_taturo_upbeat,0.09160672128200531,0
52,100,0.4409090909090909,795,0,10,DL_Guitar,6,7,umon_taturo_upbeat,0.08351214230060577,0
52,100,0.11818181818181818,264,1,11,DL_Guitar,6,2,umon_taturo_upbeat,0.9936309456825256,0
66,100,0.17727272727272728,185,1,12,DL_Guitar,6,3,umon_taturo_upbeat,0.9998382329940796,1
52,100,0.1,572,1,12,DL_Guitar,6,2,umon_taturo_upbeat,0.4165319502353668,0
68,100,0.2590909090909091,756,0,12,DL_Guitar,6,4,umon_taturo_upbeat,0.41870322823524475,0
54,100,0.2590909090909091,189,1,13,DL_Guitar,6,4,umon_taturo_upbeat,0.9996370077133179,1
54,100,0.1,691,1,13,DL_Guitar,6,2,umon_taturo_upbeat,0.5517067313194275,0
64,100,0.11818181818181818,457,1,14,DL_Guitar,6,2,umon_taturo_upbeat,0.9998496770858765,1
71,100,0.18181818181818182,496,0,14,DL_Guitar,6,3,umon_taturo_upbeat,0.19913800060749054,0
72,100,0.16363636363636364,553,0,14,DL_Guitar,6,3,umon_taturo_upbeat,0.1948978453874588,0
68,100,0.11818181818181818,625,0,14,DL_Guitar,6,2,umon_taturo_upbeat,0.20576216280460358,0
64,100,0.2590909090909091,871,1,14,DL_Guitar,6,4,umon_taturo_upbeat,0.19855783879756927,0
54,100,0.1,694,1,15,DL_Guitar,6,2,umon_taturo_upbeat,0.9996451139450073,1
55,100,0.1,747,0,15,DL_Guitar,6,2,umon_taturo_upbeat,0.543136715888977,0
52,100,0.2,52,1,16,DL_Guitar,6,3,umon_taturo_upbeat,0.9998399019241333,1
52,100,0.35909090909090907,100,0,16,DL_Guitar,6,6,umon_taturo_upbeat,0.4060843884944916,0
52,100,0.1409090909090909,638,1,16,DL_Guitar,6,2,umon_taturo_upbeat,0.42547935247421265,0
52,100,0.2,193,1,17,DL_Guitar,6,3,umon_taturo_upbeat,0.9998397827148438,1
52,100,0.2409090909090909,250,0,17,DL_Guitar,6,4,umon_taturo_upbeat,0.4114251732826233,0
55,100,0.16363636363636364,443,0,17,DL_Guitar,6,3,umon_taturo_upbeat,0.4161529541015625,0
55,100,0.1,492,1,18,DL_Guitar,6,2,umon_taturo_upbeat,0.9931640028953552,0
57,100,0.2590909090909091,430,1,19,DL_Guitar,6,4,umon_taturo_upbeat,0.999854564666748,1
52,100,0.2636363636363636,488,0,19,DL_Guitar,6,4,umon_taturo_upbeat,0.3357895016670227,0
64,100,0.1,677,0,19,DL_Guitar,6,2,umon_taturo_upbeat,0.2899185121059418,0
64,100,0.2,704,0,19,DL_Guitar,6,3,umon_taturo_upbeat,0.2944360375404358,0
54,100,1.0818181818181818,57,1,20,DL_Guitar,6,15,umon_taturo_upbeat,0.9997976422309875,1
54,100,0.17727272727272728,382,1,20,DL_Guitar,6,3,umon_taturo_upbeat,0.25444453954696655,0
54,100,0.1409090909090909,426,0,20,DL_Guitar,6,2,umon_taturo_upbeat,0.20372667908668518,0
57,100,0.2636363636363636,686,1,20,DL_Guitar,6,4,umon_taturo_upbeat,0.20401418209075928,0
57,100,0.18181818181818182,760,0,20,DL_Guitar,6,3,umon_taturo_upbeat,0.21094997227191925,0
57,100,0.23636363636363636,106,1,21,DL_Guitar,6,4,umon_taturo_upbeat,0.9998325109481812,1
57,100,0.1,179,0,21,DL_Guitar,6,2,umon_taturo_upbeat,0.20982128381729126,0
57,100,0.38181818181818183,285,0,21,DL_Guitar,6,6,umon_taturo_upbeat,0.18691007792949677,0
61,100,0.21818181818181817,505,0,21,DL_Guitar,6,3,umon_taturo_upbeat,0.22076162695884705,0
57,100,0.11818181818181818,590,0,21,DL_Guitar,6,2,umon_taturo_upbeat,0.20595434308052063,0
54,100,1.0772727272727274,326,1,22,DL_Guitar,6,15,umon_taturo_upbeat,0.9997885823249817,1
54,100,0.2818181818181818,694,1,22,DL_Guitar,6,5,umon_taturo_upbeat,0.46340540051460266,0
62,100,0.1409090909090909,791,0,22,DL_Guitar,6,2,umon_taturo_upbeat,0.43693599104881287,0
57,100,0.1,206,1,23,DL_Guitar,6,2,umon_taturo_upbeat,0.9998393058776855,1
57,100,0.35909090909090907,299,0,23,DL_Guitar,6,6,umon_taturo_upbeat,0.1994701772928238,0
57,100,0.1590909090909091,382,0,23,DL_Guitar,6,3,umon_taturo_upbeat,0.20176032185554504,0
52,100,0.6,546,0,23,DL_Guitar,6,10,umon_taturo_upbeat,0.20071616768836975,0
52,100,0.12272727272727273,717,0,23,DL_Guitar,6,2,umon_taturo_upbeat,0.2118261754512787,0
64,100,0.1409090909090909,9,1,24,DL_Guitar,6,2,umon_taturo_upbeat,0.9997407793998718,1
54,100,0.4,48,0,24,DL_Guitar,6,6,umon_taturo_upbeat,0.05373334512114525,0
54,100,0.2409090909090909,189,0,24,DL_Guitar,6,4,umon_taturo_upbeat,0.04842959716916084,0
52,100,0.2590909090909091,308,0,24,DL_Guitar,6,4,umon_taturo_upbeat,0.04889053851366043,0
68,100,0.1590909090909091,461,0,24,DL_Guitar,6,3,umon_taturo_upbeat,0.052247121930122375,0
54,100,0.1409090909090909,515,0,24,DL_Guitar,6,2,umon_taturo_upbeat,0.059917889535427094,0
54,100,0.7772727272727272,567,0,24,DL_Guitar,6,12,umon_taturo_upbeat,0.06048073247075081,0
54,100,0.21818181818181817,748,0,24,DL_Guitar,6,3,umon_taturo_upbeat,0.06630077213048935,0
54,100,0.11818181818181818,52,1,25,DL_Guitar,6,2,umon_taturo_upbeat,0.9998050332069397,1
54,100,0.11818181818181818,131,0,25,DL_Guitar,6,2,umon_taturo_upbeat,0.12594980001449585,0
62,100,0.2409090909090909,316,0,25,DL_Guitar,6,4,umon_taturo_upbeat,0.11920199543237686,0
62,100,0.2818181818181818,374,0,25,DL_Guitar,6,5,umon_taturo_upbeat,0.13226105272769928,0
57,100,0.11818181818181818,677,1,25,DL_Guitar,6,2,umon_taturo_upbeat,0.14533798396587372,0
61,100,0.1409090909090909,818,0,25,DL_Guitar,6,2,umon_taturo_upbeat,0.13248342275619507,0
57,100,0.5363636363636364,61,1,26,DL_Guitar,6,9,umon_taturo_upbeat,0.9998353719711304,1
52,100,0.35909090909090907,409,1,26,DL_Guitar,6,6,umon_taturo_upbeat,0.35121673345565796,0
52,100,0.1590909090909091,515,0,26,DL_Guitar,6,3,umon_taturo_upbeat,0.29527559876441956,0
52,100,0.5227272727272727,686,0,26,DL_Guitar,6,8,umon_taturo_upbeat,0.3008112907409668,0
54,100,0.1409090909090909,57,1,27,DL_Guitar,6,2,umon_taturo_upbeat,0.9998486042022705,1
62,100,0.1409090909090909,625,1,27,DL_Guitar,6,2,umon_taturo_upbeat,0.34271326661109924,0
62,100,0.12272727272727273,739,0,27,DL_Guitar,6,2,umon_taturo_upbeat,0.29474112391471863,0
57,100,0.2590909090909091,814,0,27,DL_Guitar,6,4,umon_taturo_upbeat,0.2946253716945648,0
52,100,0.8,52,1,28,DL_Guitar,6,13,umon_taturo_upbeat,0.9998133778572083,1
52,100,0.42272727272727273,443,1,28,DL_Guitar,6,7,umon_taturo_upbeat,0.44043347239494324,0
52,100,0.5409090909090909,686,1,28,DL_Guitar,6,9,umon_taturo_upbeat,0.4237132966518402,0
52,100,0.3,13,1,29,DL_Guitar,6,5,umon_taturo_upbeat,0.9998406171798706,1
52,100,0.1590909090909091,83,0,29,DL_Guitar,6,3,umon_taturo_upbeat,0.40889793634414673,0
64,100,0.2,119,0,29,DL_Guitar,6,3,umon_taturo_upbeat,0.4222284257411957,0
57,100,0.4818181818181818,320,1,30,DL_Guitar,6,8,umon_taturo_upbeat,0.9997501969337463,1
57,100,0.38181818181818183,440,0,30,DL_Guitar,6,6,umon_taturo_upbeat,0.08375508338212967,0
69,100,0.1409090909090909,694,1,30,DL_Guitar,6,2,umon_taturo_upbeat,0.0777229368686676,0
69,100,0.11818181818181818,735,0,30,DL_Guitar,6,2,umon_taturo_upbeat,0.08335649967193604,0
57,100,0.1590909090909091,770,0,30,DL_Guitar,6,3,umon_taturo_upbeat,0.0910540446639061,0
69,100,0.1,804,0,30,DL_Guitar,6,2,umon_taturo_upbeat,0.10068699717521667,0
57,100,0.8409090909090909,866,0,30,DL_Guitar,6,13,umon_taturo_upbeat,0.08276558667421341,0
57,100,0.5181818181818182,185,1,31,DL_Guitar,6,8,umon_taturo_upbeat,0.9997503161430359,1
57,100,0.5409090909090909,308,0,31,DL_Guitar,6,9,umon_taturo_upbeat,0.07678069919347763,0
52,100,0.18181818181818182,453,0,31,DL_Guitar,6,3,umon_taturo_upbeat,0.07980729639530182,0
52,100,0.13636363636363635,523,0,31,DL_Guitar,6,2,umon_taturo_upbeat,0.08006425946950912,0
59,100,0.35909090909090907,571,0,31,DL_Guitar,6,6,umon_taturo_upbeat,0.08341064304113388,0
59,100,0.2590909090909091,700,0,31,DL_Guitar,6,4,umon_taturo_upbeat,0.09934662282466888,0
52,100,0.1,822,0,31,DL_Guitar,6,2,umon_taturo_upbeat,0.09195646643638611,0
59,100,0.5,188,1,32,DL_Guitar,6,8,umon_taturo_upbeat,0.9997928738594055,1
54,100,0.1590909090909091,426,1,32,DL_Guitar,6,3,umon_taturo_upbeat,0.1429988294839859,0
54,100,0.2636363636363636,488,0,32,DL_Guitar,6,4,umon_taturo_upbeat,0.12318189442157745,0
59,100,0.1,593,0,32,DL_Guitar,6,2,umon_taturo_upbeat,0.13404960930347443,0
54,100,0.3409090909090909,691,0,32,DL_Guitar,6,5,umon_taturo_upbeat,0.14394205808639526,0
59,100,0.4772727272727273,831,0,32,DL_Guitar,6,8,umon_taturo_upbeat,0.12861858308315277,0
57,100,0.2409090909090909,118,1,33,DL_Guitar,6,4,umon_taturo_upbeat,0.9998300075531006,1
52,100,0.5181818181818182,308,0,33,DL_Guitar,6,8,umon_taturo_upbeat,0.2118111103773117,0
52,100,0.1590909090909091,453,0,33,DL_Guitar,6,3,umon_taturo_upbeat,0.20600168406963348,0
52,100,0.2,571,0,33,DL_Guitar,6,3,umon_taturo_upbeat,0.20385366678237915,0
69,100,0.12272727272727273,818,1,33,DL_Guitar,6,2,umon_taturo_upbeat,0.2010982185602188,0
69,100,0.2,69,1,34,DL_Guitar,6,3,umon_taturo_upbeat,0.9997984766960144,1
57,100,0.2,188,0,34,DL_Guitar,6,3,umon_taturo_upbeat,0.13297007977962494,0
57,100,0.22272727272727272,254,0,34,DL_Guitar,6,4,umon_taturo_upbeat,0.12596431374549866,0
52,100,0.2,480,0,34,DL_Guitar,6,3,umon_taturo_upbeat,0.1456398218870163,0
69,100,0.3,616,0,34,DL_Guitar,6,5,umon_taturo_upbeat,0.13752754032611847,0
57,100,1.0818181818181818,818,0,34,DL_Guitar,6,15,umon_taturo_upbeat,0.12675727903842926,0
57,100,0.5590909090909091,298,1,35,DL_Guitar,6,9,umon_taturo_upbeat,0.9998212456703186,1
52,100,0.3,488,0,35,DL_Guitar,6,5,umon_taturo_upbeat,0.23022598028182983,0
52,100,0.5772727272727273,558,0,35,DL_Guitar,6,9,umon_taturo_upbeat,0.1855347752571106,0
59,100,0.3181818181818182,735,0,35,DL_Guitar,6,5,umon_taturo_upbeat,0.2112625241279602,0
52,100,0.1409090909090909,826,0,35,DL_Guitar,6,2,umon_taturo_upbeat,0.20844373106956482,0
57,100,0.22272727272727272,4,1,36,DL_Guitar,6,4,umon_taturo_upbeat,0.9997143149375916,1
53,100,0.4818181818181818,66,0,36,DL_Guitar,6,8,umon_taturo_upbeat,0.05814439430832863,0
53,100,0.5409090909090909,179,0,36,DL_Guitar,6,9,umon_taturo_upbeat,0.04677034541964531,0
59,100,0.1590909090909091,325,0,36,DL_Guitar,6,3,umon_taturo_upbeat,0.05006144568324089,0
53,100,0.37727272727272726,435,0,36,DL_Guitar,6,6,umon_taturo_upbeat,0.05356878787279129,0
54,100,0.42272727272727273,554,0,36,DL_Guitar,6,7,umon_taturo_upbeat,0.06145762652158737,0
54,100,0.1409090909090909,813,1,36,DL_Guitar,6,2,umon_taturo_upbeat,0.0724085345864296,0
54,100,0.5409090909090909,871,0,36,DL_Guitar,6,9,umon_taturo_upbeat,0.060076646506786346,0
54,100,0.5409090909090909,179,1,37,DL_Guitar,6,9,umon_taturo_upbeat,0.9997928738594055,1
54,100,0.5,311,0,37,DL_Guitar,6,8,umon_taturo_upbeat,0.127799853682518,0
59,100,0.13636363636363635,523,0,37,DL_Guitar,6,2,umon_taturo_upbeat,0.12836283445358276,0
59,100,0.1409090909090909,584,0,37,DL_Guitar,6,2,umon_taturo_upbeat,0.13975128531455994,0
57,100,0.22272727272727272,628,0,37,DL_Guitar,6,4,umon_taturo_upbeat,0.1403188854455948,0
59,100,0.2,708,0,37,DL_Guitar,6,3,umon_taturo_upbeat,0.13932546973228455,0
59,100,0.2818181818181818,48,1,38,DL_Guitar,6,5,umon_taturo_upbeat,0.9998369216918945,1
59,100,0.2,198,0,38,DL_Guitar,6,3,umon_taturo_upbeat,0.21525652706623077,0
57,100,0.1590909090909091,260,0,38,DL_Guitar,6,3,umon_taturo_upbeat,0.19066357612609863,0
57,100,0.1590909090909091,571,1,38,DL_Guitar,6,3,umon_taturo_upbeat,0.209529846906662,0
69,100,0.3,606,0,38,DL_Guitar,6,5,umon_taturo_upbeat,0.2106494903564453,0
62,100,0.2,461,1,39,DL_Guitar,6,3,umon_taturo_upbeat,0.9996299743652344,1
57,100,0.5590909090909091,804,1,39,DL_Guitar,6,9,umon_taturo_upbeat,0.5377393364906311,0
52,100,0.8772727272727273,75,1,40,DL_Guitar,6,14,umon_taturo_upbeat,0.9998229146003723,1
52,100,0.13636363636363635,413,1,40,DL_Guitar,6,2,umon_taturo_upbeat,0.23366640508174896,0
52,100,0.17727272727272728,448,0,40,DL_Guitar,6,3,umon_taturo_upbeat,0.1970367133617401,0
65,100,0.2772727272727273,603,0,40,DL_Guitar,6,4,umon_taturo_upbeat,0.20192517340183258,0
53,100,0.6,681,0,40,DL_Guitar,6,10,umon_taturo_upbeat,0.20422151684761047,0
53,100,0.2636363636363636,48,1,41,DL_Guitar,6,4,umon_taturo_upbeat,0.9997368454933167,1
59,100,0.18181818181818182,224,0,41,DL_Guitar,6,3,umon_taturo_upbeat,0.05596664920449257,0
54,100,0.4772727272727273,316,0,41,DL_Guitar,6,8,umon_taturo_upbeat,0.04557229205965996,0
59,100,0.2590909090909091,435,0,41,DL_Guitar,6,4,umon_taturo_upbeat,0.049186836928129196,0
54,100,0.3,501,0,41,DL_Guitar,6,5,umon_taturo_upbeat,0.052833572030067444,0
54,100,0.2409090909090909,576,0,41,DL_Guitar,6,4,umon_taturo_upbeat,0.06078590080142021,0
54,100,0.2772727272727273,678,0,41,DL_Guitar,6,4,umon_taturo_upbeat,0.06675773113965988,0
54,100,0.4590909090909091,813,0,41,DL_Guitar,6,7,umon_taturo_upbeat,0.06285280734300613,0
59,100,0.2409090909090909,66,1,42,DL_Guitar,6,4,umon_taturo_upbeat,0.9997705817222595,1
62,100,0.2,128,0,42,DL_Guitar,6,3,umon_taturo_upbeat,0.0800933986902237,0
57,100,0.2,254,0,42,DL_Guitar,6,3,umon_taturo_upbeat,0.0719045028090477,0
52,100,0.4818181818181818,321,0,42,DL_Guitar,6,8,umon_taturo_upbeat,0.07862182706594467,0
59,100,0.2818181818181818,616,1,42,DL_Guitar,6,5,umon_taturo_upbeat,0.08800172805786133,0
52,100,0.16363636363636364,708,0,42,DL_Guitar,6,3,umon_taturo_upbeat,0.10211030393838882,0
52,100,0.11818181818181818,831,0,42,DL_Guitar,6,2,umon_taturo_upbeat,0.08347943425178528,0
57,100,0.2818181818181818,48,1,43,DL_Guitar,6,5,umon_taturo_upbeat,0.9998217225074768,1
69,100,0.3181818181818182,743,1,43,DL_Guitar,6,5,umon_taturo_upbeat,0.41141265630722046,0
57,100,0.5181818181818182,813,0,43,DL_Guitar,6,8,umon_taturo_upbeat,0.4282133877277374,0
64,100,0.1590909090909091,721,1,44,DL_Guitar,6,3,umon_taturo_upbeat,0.9998465776443481,1
64,100,0.35909090909090907,788,0,44,DL_Guitar,6,6,umon_taturo_upbeat,0.3917059898376465,0
64,100,0.32272727272727275,871,0,44,DL_Guitar,6,5,umon_taturo_upbeat,0.4241849184036255,0
53,100,0.12272727272727273,211,1,45,DL_Guitar,6,2,umon_taturo_upbeat,0.9998401403427124,1
65,100,0.18181818181818182,334,0,45,DL_Guitar,6,3,umon_taturo_upbeat,0.2136717438697815,0
54,100,0.36363636363636365,686,1,45,DL_Guitar,6,6,umon_taturo_upbeat,0.19264541566371918,0
54,100,0.23636363636363636,810,0,45,DL_Guitar,6,4,umon_taturo_upbeat,0.208101287484169,0
66,100,0.1409090909090909,866,0,45,DL_Guitar,6,2,umon_taturo_upbeat,0.20204392075538635,0
62,100,0.3181818181818182,668,1,46,DL_Guitar,6,5,umon_taturo_upbeat,0.9996341466903687,1
52,100,0.2818181818181818,826,0,46,DL_Guitar,6,5,umon_taturo_upbeat,0.5535104274749756,0
52,100,0.12272727272727273,13,1,47,DL_Guitar,6,2,umon_taturo_upbeat,0.9998615980148315,1
52,100,0.4409090909090909,43,0,47,DL_Guitar,6,7,umon_taturo_upbeat,0.31224358081817627,0
52,100,0.5818181818181818,179,0,47,DL_Guitar,6,9,umon_taturo_upbeat,0.28874149918556213,0
53,100,1.240909090909091,426,1,47,DL_Guitar,6,15,umon_taturo_upbeat,0.29498767852783203,0
54,100,0.42272727272727273,48,1,48,DL_Guitar,6,7,umon_taturo_upbeat,0.9998219609260559,1
61,100,0.2,163,0,48,DL_Guitar,6,3,umon_taturo_upbeat,0.4189111888408661,0
61,100,0.4818181818181818,440,1,48,DL_Guitar,6,8,umon_taturo_upbeat,0.42525994777679443,0
62,100,0.4,34,1,49,DL_Guitar,6,6,umon_taturo_upbeat,0.9998281002044678,1
52,100,1.3590909090909091,176,0,49,DL_Guitar,6,15,umon_taturo_upbeat,0.19351792335510254,0
52,100,0.2,480,1,49,DL_Guitar,6,3,umon_taturo_upbeat,0.24337345361709595,0
52,100,0.1590909090909091,638,0,49,DL_Guitar,6,3,umon_taturo_upbeat,0.22100184857845306,0
53,100,1.6363636363636365,678,0,49,DL_Guitar,6,15,umon_taturo_upbeat,0.18727053701877594,0
54,100,0.23636363636363636,303,1,50,DL_Guitar,6,4,umon_taturo_upbeat,0.9998286962509155,1
61,100,0.2409090909090909,440,0,50,DL_Guitar,6,4,umon_taturo_upbeat,0.21249961853027344,0
61,100,0.4818181818181818,571,0,50,DL_Guitar,6,8,umon_taturo_upbeat,0.187737375497818,0
61,100,0.3,691,0,50,DL_Guitar,6,5,umon_taturo_upbeat,0.2205704152584076,0
57,100,0.13636363636363635,788,0,50,DL_Guitar,6,2,umon_taturo_upbeat,0.20995324850082397,0
52,100,0.5,431,1,51,DL_Guitar,6,8,umon_taturo_upbeat,0.9998382329940796,1
52,100,0.1,545,0,51,DL_Guitar,6,2,umon_taturo_upbeat,0.4150010943412781,0
52,100,0.11818181818181818,691,0,51,DL_Guitar,6,2,umon_taturo_upbeat,0.42207932472229004,0
54,100,0.1590909090909091,0,1,52,DL_Guitar,6,3,umon_taturo_upbeat,0.9998064637184143,1
54,100,0.1,56,0,52,DL_Guitar,6,2,umon_taturo_upbeat,0.13541771471500397,0
61,100,0.7,91,0,52,DL_Guitar,6,11,umon_taturo_upbeat,0.11699461191892624,0
54,100,0.3,254,0,52,DL_Guitar,6,5,umon_taturo_upbeat,0.15247473120689392,0
54,100,0.1,325,0,52,DL_Guitar,6,2,umon_taturo_upbeat,0.15195304155349731,0
61,100,2.640909090909091,426,0,52,DL_Guitar,6,15,umon_taturo_upbeat,0.1204836517572403,0
57,100,1.440909090909091,158,1,53,DL_Guitar,6,15,umon_taturo_upbeat,0.9994269609451294,1
52,100,2.1,681,1,53,DL_Guitar,6,15,umon_taturo_upbeat,0.5622178316116333,0
52,100,0.11818181818181818,303,1,54,DL_Guitar,6,2,umon_taturo_upbeat,0.9934820532798767,0
57,100,0.18181818181818182,418,1,55,DL_Guitar,6,3,umon_taturo_upbeat,0.9998356103897095,1
57,100,0.1409090909090909,518,0,55,DL_Guitar,6,2,umon_taturo_upbeat,0.20866703987121582,0
57,100,0.37727272727272726,558,0,55,DL_Guitar,6,6,umon_taturo_upbeat,0.19139567017555237,0
57,100,0.21818181818181817,660,0,55,DL_Guitar,6,3,umon_taturo_upbeat,0.21839337050914764,0
57,100,0.38181818181818183,726,0,55,DL_Guitar,6,6,umon_taturo_upbeat,0.20289121568202972,0
57,100,0.2409090909090909,625,1,56,DL_Guitar,6,4,umon_taturo_upbeat,0.9996201992034912,1
57,100,0.4818181818181818,703,0,56,DL_Guitar,6,8,umon_taturo_upbeat,0.5411243438720703,0
57,100,0.22272727272727272,4,1,57,DL_Guitar,6,4,umon_taturo_upbeat,0.9997507929801941,1
57,100,0.4,91,0,57,DL_Guitar,6,6,umon_taturo_upbeat,0.08037861436605453,0
57,100,0.4818181818181818,330,1,57,DL_Guitar,6,8,umon_taturo_upbeat,0.07554987818002701,0
57,100,0.2590909090909091,453,0,57,DL_Guitar,6,4,umon_taturo_upbeat,0.0841546580195427,0
69,100,0.1409090909090909,531,0,57,DL_Guitar,6,2,umon_taturo_upbeat,0.0947091355919838,0
61,100,0.5,691,0,57,DL_Guitar,6,8,umon_taturo_upbeat,0.09744469821453094,0
59,100,0.6,810,0,57,DL_Guitar,6,10,umon_taturo_upbeat,0.09184140712022781,0
59,100,0.18181818181818182,153,1,58,DL_Guitar,6,3,umon_taturo_upbeat,0.9998564720153809,1
59,100,0.1,215,0,58,DL_Guitar,6,2,umon_taturo_upbeat,0.31348487734794617,0
52,100,0.4409090909090909,330,0,58,DL_Guitar,6,7,umon_taturo_upbeat,0.29539936780929565,0
52,100,0.11818181818181818,536,0,58,DL_Guitar,6,2,umon_taturo_upbeat,0.30680063366889954,0
61,100,0.1409090909090909,48,1,59,DL_Guitar,6,2,umon_taturo_upbeat,0.9998351335525513,1
61,100,0.3,110,0,59,DL_Guitar,6,5,umon_taturo_upbeat,0.401505708694458,0
57,100,0.1409090909090909,770,1,59,DL_Guitar,6,2,umon_taturo_upbeat,0.4269081652164459,0
57,100,0.11818181818181818,330,1,60,DL_Guitar,6,2,umon_taturo_upbeat,0.9998296499252319,1
61,100,0.5636363636363636,421,0,60,DL_Guitar,6,9,umon_taturo_upbeat,0.39763689041137695,0
61,100,0.3181818181818182,678,1,60,DL_Guitar,6,5,umon_taturo_upbeat,0.4326595664024353,0
57,100,0.4636363636363636,444,1,61,DL_Guitar,6,7,umon_taturo_upbeat,0.9998118281364441,1
54,100,0.35909090909090907,550,0,61,DL_Guitar,6,6,umon_taturo_upbeat,0.4298953115940094,0
57,100,0.13636363636363635,633,0,61,DL_Guitar,6,2,umon_taturo_upbeat,0.4297865331172943,0
57,100,0.11818181818181818,316,1,62,DL_Guitar,6,2,umon_taturo_upbeat,0.999852180480957,1
57,100,0.1,471,0,62,DL_Guitar,6,2,umon_taturo_upbeat,0.31254062056541443,0
57,100,0.18181818181818182,628,0,62,DL_Guitar,6,3,umon_taturo_upbeat,0.2944142818450928,0
59,100,0.4590909090909091,810,0,62,DL_Guitar,6,7,umon_taturo_upbeat,0.3055243194103241,0
61,100,0.13636363636363635,171,1,63,DL_Guitar,6,2,umon_taturo_upbeat,0.9997301697731018,1
59,100,0.35909090909090907,316,0,63,DL_Guitar,6,6,umon_taturo_upbeat,0.05445948988199234,0
57,100,0.2409090909090909,431,0,63,DL_Guitar,6,4,umon_taturo_upbeat,0.04843989387154579,0
54,100,0.1,691,1,63,DL_Guitar,6,2,umon_taturo_upbeat,0.0485648550093174,0
54,100,0.17727272727272728,721,0,63,DL_Guitar,6,3,umon_taturo_upbeat,0.052878450602293015,0
57,100,0.12272727272727273,774,0,63,DL_Guitar,6,2,umon_taturo_upbeat,0.05804114788770676,0
54,100,0.11818181818181818,813,0,63,DL_Guitar,6,2,umon_taturo_upbeat,0.06846048682928085,0
54,100,0.12272727272727273,848,0,63,DL_Guitar,6,2,umon_taturo_upbeat,0.05999329313635826,0
57,100,0.1590909090909091,0,1,64,DL_Guitar,6,3,umon_taturo_upbeat,0.9998167157173157,1
57,100,0.7181818181818181,550,1,64,DL_Guitar,6,11,umon_taturo_upbeat,0.4034218490123749,0
57,100,0.4,849,1,64,DL_Guitar,6,6,umon_taturo_upbeat,0.43470898270606995,0
57,100,0.2409090909090909,66,1,65,DL_Guitar,6,4,umon_taturo_upbeat,0.9998252987861633,1
59,100,0.8363636363636363,172,0,65,DL_Guitar,6,13,umon_taturo_upbeat,0.3869090676307678,0
61,100,0.2409090909090909,404,1,65,DL_Guitar,6,4,umon_taturo_upbeat,0.444551557302475,0
59,100,0.8590909090909091,426,1,66,DL_Guitar,6,14,umon_taturo_upbeat,0.9998096823692322,1
69,100,0.1,796,1,66,DL_Guitar,6,2,umon_taturo_upbeat,0.4440137445926666,0
62,100,0.12272727272727273,849,0,66,DL_Guitar,6,2,umon_taturo_upbeat,0.4272758662700653,0
62,100,0.1590909090909091,0,1,67,DL_Guitar,6,3,umon_taturo_upbeat,0.9997074007987976,1
64,100,0.5181818181818182,40,0,67,DL_Guitar,6,8,umon_taturo_upbeat,0.041256893426179886,0
64,100,0.3409090909090909,176,0,67,DL_Guitar,6,5,umon_taturo_upbeat,0.03421389311552048,0
52,100,0.37727272727272726,436,1,67,DL_Guitar,6,6,umon_taturo_upbeat,0.030409913510084152,0
52,100,0.17727272727272728,546,0,67,DL_Guitar,6,3,umon_taturo_upbeat,0.03092329390347004,0
52,100,0.1590909090909091,603,0,67,DL_Guitar,6,3,umon_taturo_upbeat,0.03381979838013649,0
52,100,0.13636363636363635,656,0,67,DL_Guitar,6,2,umon_taturo_upbeat,0.04073597490787506,0
52,100,0.3409090909090909,690,0,67,DL_Guitar,6,5,umon_taturo_upbeat,0.04615432396531105,0
52,100,0.38181818181818183,849,0,67,DL_Guitar,6,6,umon_taturo_upbeat,0.0452706515789032,0
52,100,0.2,233,1,68,DL_Guitar,6,3,umon_taturo_upbeat,0.9998378753662109,1
52,100,0.37727272727272726,294,0,68,DL_Guitar,6,6,umon_taturo_upbeat,0.4055527150630951,0
59,100,0.13636363636363635,457,0,68,DL_Guitar,6,2,umon_taturo_upbeat,0.42098307609558105,0
57,100,0.4,189,1,69,DL_Guitar,6,6,umon_taturo_upbeat,0.9998243451118469,1
52,100,0.2,686,1,69,DL_Guitar,6,3,umon_taturo_upbeat,0.43549928069114685,0
52,100,0.1590909090909091,832,0,69,DL_Guitar,6,3,umon_taturo_upbeat,0.4227783679962158,0
52,100,0.2590909090909091,56,1,70,DL_Guitar,6,4,umon_taturo_upbeat,0.9998111128807068,1
59,100,0.1409090909090909,140,0,70,DL_Guitar,6,2,umon_taturo_upbeat,0.11845757067203522,0
53,100,0.5818181818181818,307,0,70,DL_Guitar,6,9,umon_taturo_upbeat,0.11137489974498749,0
53,100,0.1590909090909091,453,0,70,DL_Guitar,6,3,umon_taturo_upbeat,0.1435191035270691,0
53,100,0.1409090909090909,642,0,70,DL_Guitar,6,2,umon_taturo_upbeat,0.14546674489974976,0
56,100,0.11818181818181818,734,0,70,DL_Guitar,6,2,umon_taturo_upbeat,0.1327601820230484,0
61,100,0.11818181818181818,153,1,71,DL_Guitar,6,2,umon_taturo_upbeat,0.9998378753662109,1
57,100,0.1590909090909091,673,1,71,DL_Guitar,6,3,umon_taturo_upbeat,0.40238845348358154,0
57,100,0.2,823,0,71,DL_Guitar,6,3,umon_taturo_upbeat,0.4236893355846405,0
57,100,0.1590909090909091,9,1,72,DL_Guitar,6,3,umon_taturo_upbeat,0.9998388290405273,1
59,100,1.059090909090909,193,0,72,DL_Guitar,6,15,umon_taturo_upbeat,0.29019084572792053,0
69,100,0.21818181818181817,502,1,72,DL_Guitar,6,3,umon_taturo_upbeat,0.3254443109035492,0
57,100,0.33636363636363636,743,1,72,DL_Guitar,6,5,umon_taturo_upbeat,0.3168945610523224,0
61,100,0.11818181818181818,514,1,73,DL_Guitar,6,2,umon_taturo_upbeat,0.9998291730880737,1
61,100,0.42272727272727273,585,0,73,DL_Guitar,6,7,umon_taturo_upbeat,0.4002556800842285,0
57,100,0.3409090909090909,870,1,73,DL_Guitar,6,5,umon_taturo_upbeat,0.42823106050491333,0
57,100,0.21818181818181817,132,1,74,DL_Guitar,6,3,umon_taturo_upbeat,0.9998013377189636,1
57,100,0.2772727272727273,237,0,74,DL_Guitar,6,4,umon_taturo_upbeat,0.12597092986106873,0
52,100,0.2590909090909091,559,1,74,DL_Guitar,6,4,umon_taturo_upbeat,0.12241362035274506,0
52,100,0.18181818181818182,619,0,74,DL_Guitar,6,3,umon_taturo_upbeat,0.1375436782836914,0
64,100,0.18181818181818182,682,0,74,DL_Guitar,6,3,umon_taturo_upbeat,0.14254775643348694,0
59,100,0.2818181818181818,726,0,74,DL_Guitar,6,5,umon_taturo_upbeat,0.1247200071811676,0
61,100,0.1,17,1,75,DL_Guitar,6,2,umon_taturo_upbeat,0.999832272529602,1
53,100,1.1409090909090909,47,0,75,DL_Guitar,6,15,umon_taturo_upbeat,0.17410576343536377,0
61,100,0.6409090909090909,316,1,75,DL_Guitar,6,10,umon_taturo_upbeat,0.21409624814987183,0
61,100,0.12272727272727273,606,1,75,DL_Guitar,6,2,umon_taturo_upbeat,0.2289920449256897,0
61,100,0.3,739,0,75,DL_Guitar,6,5,umon_taturo_upbeat,0.21082617342472076,0
59,100,0.17727272727272728,9,1,76,DL_Guitar,6,3,umon_taturo_upbeat,0.9998373985290527,1
52,100,0.18181818181818182,550,1,76,DL_Guitar,6,3,umon_taturo_upbeat,0.2178601622581482,0
52,100,0.1409090909090909,739,0,76,DL_Guitar,6,2,umon_taturo_upbeat,0.19453121721744537,0
52,100,0.16363636363636364,773,0,76,DL_Guitar,6,3,umon_taturo_upbeat,0.19863662123680115,0
59,100,0.21818181818181817,813,0,76,DL_Guitar,6,3,umon_taturo_upbeat,0.1948307901620865,0
59,100,0.3,176,1,77,DL_Guitar,6,5,umon_taturo_upbeat,0.9998251795768738,1
59,100,0.5590909090909091,307,0,77,DL_Guitar,6,9,umon_taturo_upbeat,0.1995994597673416,0
64,100,0.18181818181818182,440,0,77,DL_Guitar,6,3,umon_taturo_upbeat,0.22071035206317902,0
59,100,0.17727272727272728,502,0,77,DL_Guitar,6,3,umon_taturo_upbeat,0.20669974386692047,0
59,100,0.4409090909090909,559,0,77,DL_Guitar,6,7,umon_taturo_upbeat,0.2043507844209671,0
57,100,0.3,289,1,78,DL_Guitar,6,5,umon_taturo_upbeat,0.9928298592567444,0
65,100,0.1409090909090909,449,1,79,DL_Guitar,6,2,umon_taturo_upbeat,0.9998112320899963,1
65,100,0.18181818181818182,550,0,79,DL_Guitar,6,3,umon_taturo_upbeat,0.12678030133247375,0
65,100,0.2,597,0,79,DL_Guitar,6,3,umon_taturo_upbeat,0.11796557903289795,0
65,100,0.6636363636363637,663,0,79,DL_Guitar,6,11,umon_taturo_upbeat,0.12846426665782928,0
65,100,0.1409090909090909,813,0,79,DL_Guitar,6,2,umon_taturo_upbeat,0.15336425602436066,0
65,100,0.5227272727272727,849,0,79,DL_Guitar,6,8,umon_taturo_upbeat,0.12379702180624008,0
59,100,0.2,246,1,80,DL_Guitar,6,3,umon_taturo_upbeat,0.9998549222946167,1
59,100,0.17727272727272728,294,0,80,DL_Guitar,6,3,umon_taturo_upbeat,0.32314532995224,0
59,100,0.2,496,0,80,DL_Guitar,6,3,umon_taturo_upbeat,0.28991955518722534,0
52,100,0.2772727272727273,722,0,80,DL_Guitar,6,4,umon_taturo_upbeat,0.30965515971183777,0
52,100,0.6227272727272727,47,1,81,DL_Guitar,6,10,umon_taturo_upbeat,0.9995505213737488,1
61,100,1.7818181818181817,263,0,81,DL_Guitar,6,15,umon_taturo_upbeat,0.5296853184700012,0
57,100,0.2590909090909091,127,1,82,DL_Guitar,6,4,umon_taturo_upbeat,0.9998371601104736,1
57,100,0.2409090909090909,263,0,82,DL_Guitar,6,4,umon_taturo_upbeat,0.3374786972999573,0
57,100,0.1,320,0,82,DL_Guitar,6,2,umon_taturo_upbeat,0.30159661173820496,0
57,100,0.759090909090909,440,0,82,DL_Guitar,6,12,umon_taturo_upbeat,0.2985606789588928,0
57,100,0.12272727272727273,13,1,83,DL_Guitar,6,2,umon_taturo_upbeat,0.9998308420181274,1
57,100,0.2,303,1,83,DL_Guitar,6,3,umon_taturo_upbeat,0.39959967136383057,0
52,100,0.1,857,1,83,DL_Guitar,6,2,umon_taturo_upbeat,0.43649718165397644,0
61,100,0.3,197,1,84,DL_Guitar,6,5,umon_taturo_upbeat,0.9998427629470825,1
61,100,1.0,347,0,84,DL_Guitar,6,15,umon_taturo_upbeat,0.29180094599723816,0
61,100,0.5227272727272727,707,1,84,DL_Guitar,6,8,umon_taturo_upbeat,0.31643229722976685,0
61,100,0.38181818181818183,836,0,84,DL_Guitar,6,6,umon_taturo_upbeat,0.3213009536266327,0
52,100,0.4818181818181818,166,1,85,DL_Guitar,6,8,umon_taturo_upbeat,0.999800980091095,1
52,100,0.6,286,0,85,DL_Guitar,6,10,umon_taturo_upbeat,0.1268392652273178,0
52,100,0.3,422,0,85,DL_Guitar,6,5,umon_taturo_upbeat,0.1243526041507721,0
52,100,0.35909090909090907,603,0,85,DL_Guitar,6,6,umon_taturo_upbeat,0.13458330929279327,0
59,100,0.32272727272727275,729,0,85,DL_Guitar,6,5,umon_taturo_upbeat,0.1416262984275818,0
59,100,0.18181818181818182,817,0,85,DL_Guitar,6,3,umon_taturo_upbeat,0.13238964974880219,0
64,100,0.2409090909090909,113,1,86,DL_Guitar,6,4,umon_taturo_upbeat,0.9998142123222351,1
59,100,0.42272727272727273,202,0,86,DL_Guitar,6,7,umon_taturo_upbeat,0.11914826929569244,0
57,100,0.1409090909090909,493,1,86,DL_Guitar,6,2,umon_taturo_upbeat,0.1294807642698288,0
57,100,0.35909090909090907,527,0,86,DL_Guitar,6,6,umon_taturo_upbeat,0.13186050951480865,0
57,100,0.2772727272727273,624,0,86,DL_Guitar,6,4,umon_taturo_upbeat,0.15440183877944946,0
57,100,1.1590909090909092,813,0,86,DL_Guitar,6,15,umon_taturo_upbeat,0.13243946433067322,0
57,100,0.2409090909090909,250,1,87,DL_Guitar,6,4,umon_taturo_upbeat,0.9930496215820312,0
59,100,0.1409090909090909,506,1,90,DL_Guitar,6,2,umon_taturo_upbeat,0.9998338222503662,1
59,100,0.1,646,0,90,DL_Guitar,6,2,umon_taturo_upbeat,0.40793436765670776,0
59,100,0.4590909090909091,823,0,90,DL_Guitar,6,7,umon_taturo_upbeat,0.41996270418167114,0
59,100,0.5,79,1,91,DL_Guitar,6,8,umon_taturo_upbeat,0.999823272228241,1
52,100,0.17727272727272728,316,1,91,DL_Guitar,6,3,umon_taturo_upbeat,0.43485790491104126,0
52,100,0.4,817,1,91,DL_Guitar,6,6,umon_taturo_upbeat,0.42179495096206665,0
57,100,0.22272727272727272,100,1,92,DL_Guitar,6,4,umon_taturo_upbeat,0.9997652173042297,1
66,100,0.18181818181818182,197,0,92,DL_Guitar,6,3,umon_taturo_upbeat,0.08188475668430328,0
55,100,0.11818181818181818,426,0,92,DL_Guitar,6,2,umon_taturo_upbeat,0.07472951710224152,0
55,100,0.11818181818181818,480,0,92,DL_Guitar,6,2,umon_taturo_upbeat,0.07904917001724243,0
56,100,0.1409090909090909,506,0,92,DL_Guitar,6,2,umon_taturo_upbeat,0.09009578824043274,0
52,100,0.4,572,0,92,DL_Guitar,6,6,umon_taturo_upbeat,0.09334412962198257,0
59,100,0.32272727272727275,707,0,92,DL_Guitar,6,5,umon_taturo_upbeat,0.08322232961654663,0
64,100,0.16363636363636364,3,1,93,DL_Guitar,6,3,umon_taturo_upbeat,0.9998431205749512,1
59,100,0.11818181818181818,150,0,93,DL_Guitar,6,2,umon_taturo_upbeat,0.20033319294452667,0
65,100,0.4590909090909091,320,0,93,DL_Guitar,6,7,umon_taturo_upbeat,0.1899864673614502,0
65,100,0.2772727272727273,426,0,93,DL_Guitar,6,4,umon_taturo_upbeat,0.21501420438289642,0
57,100,0.5181818181818182,844,1,93,DL_Guitar,6,8,umon_taturo_upbeat,0.1944589614868164,0
59,100,0.3181818181818182,813,1,94,DL_Guitar,6,5,umon_taturo_upbeat,0.9932971596717834,0
59,100,0.32272727272727275,92,1,95,DL_Guitar,6,5,umon_taturo_upbeat,0.9996163845062256,1
59,100,0.1409090909090909,223,0,95,DL_Guitar,6,2,umon_taturo_upbeat,0.5561642646789551,0
54,100,0.1590909090909091,53,1,96,DL_Guitar,6,3,umon_taturo_upbeat,0.999606192111969,1
57,100,0.6181818181818182,734,1,96,DL_Guitar,6,10,umon_taturo_upbeat,0.5415828227996826,0
57,100,0.21818181818181817,0,1,97,DL_Guitar,6,3,umon_taturo_upbeat,0.9998443126678467,1
59,100,0.4818181818181818,189,0,97,DL_Guitar,6,8,umon_taturo_upbeat,0.3275149464607239,0
64,100,0.11818181818181818,493,1,97,DL_Guitar,6,2,umon_taturo_upbeat,0.3176456093788147,0
57,100,0.8409090909090909,823,1,97,DL_Guitar,6,13,umon_taturo_upbeat,0.2891322374343872,0
57,100,0.12272727272727273,157,1,98,DL_Guitar,6,2,umon_taturo_upbeat,0.993175208568573,0
57,100,0.2409090909090909,443,1,100,DL_Guitar,6,4,umon_taturo_upbeat,0.999848484992981,1
57,100,0.2409090909090909,563,0,100,DL_Guitar,6,4,umon_taturo_upbeat,0.30453214049339294,0
57,100,0.2,633,0,100,DL_Guitar,6,3,umon_taturo_upbeat,0.30147844552993774,0
59,100,0.5590909090909091,810,0,100,DL_Guitar,6,9,umon_taturo_upbeat,0.30114349722862244,0
59,100,0.11818181818181818,83,1,101,DL_Guitar,6,2,umon_taturo_upbeat,0.9997979998588562,1
59,100,0.4,153,0,101,DL_Guitar,6,6,umon_taturo_upbeat,0.12414807826280594,0
59,100,0.2,260,0,101,DL_Guitar,6,3,umon_taturo_upbeat,0.12061017006635666,0
59,100,0.5227272727272727,430,0,101,DL_Guitar,6,8,umon_taturo_upbeat,0.13633443415164948,0
53,100,0.3,677,1,101,DL_Guitar,6,5,umon_taturo_upbeat,0.15168291330337524,0
59,100,0.2,756,0,101,DL_Guitar,6,3,umon_taturo_upbeat,0.1387503743171692,0
57,100,0.4772727272727273,193,1,102,DL_Guitar,6,8,umon_taturo_upbeat,0.9998356103897095,1
57,100,0.18181818181818182,597,1,102,DL_Guitar,6,3,umon_taturo_upbeat,0.340047150850296,0
57,100,0.4636363636363636,707,0,102,DL_Guitar,6,7,umon_taturo_upbeat,0.2891765236854553,0
57,100,0.1,839,0,102,DL_Guitar,6,2,umon_taturo_upbeat,0.3201853036880493,0
57,100,0.12272727272727273,35,1,103,DL_Guitar,6,2,umon_taturo_upbeat,0.9998512268066406,1
59,100,0.5181818181818182,184,0,103,DL_Guitar,6,8,umon_taturo_upbeat,0.3046678602695465,0
59,100,0.7227272727272728,312,0,103,DL_Guitar,6,12,umon_taturo_upbeat,0.2878299057483673,0
52,100,0.13636363636363635,502,0,103,DL_Guitar,6,2,umon_taturo_upbeat,0.32937315106391907,0
57,100,0.1,282,1,104,DL_Guitar,6,2,umon_taturo_upbeat,0.9996992349624634,1
57,100,0.18181818181818182,466,0,104,DL_Guitar,6,3,umon_taturo_upbeat,0.044207070022821426,0
57,100,0.1,514,0,104,DL_Guitar,6,2,umon_taturo_upbeat,0.03268038481473923,0
57,100,0.2590909090909091,540,0,104,DL_Guitar,6,4,umon_taturo_upbeat,0.029808638617396355,0
57,100,0.11818181818181818,616,0,104,DL_Guitar,6,2,umon_taturo_upbeat,0.030344689264893532,0
57,100,0.2409090909090909,682,0,104,DL_Guitar,6,4,umon_taturo_upbeat,0.034337449818849564,0
57,100,0.1,743,0,104,DL_Guitar,6,2,umon_taturo_upbeat,0.04079343378543854,0
57,100,0.1590909090909091,770,0,104,DL_Guitar,6,3,umon_taturo_upbeat,0.047011230140924454,0
57,100,0.1,813,0,104,DL_Guitar,6,2,umon_taturo_upbeat,0.047356996685266495,0
57,100,0.11818181818181818,9,1,105,DL_Guitar,6,2,umon_taturo_upbeat,0.9931146502494812,1
56,100,0.18181818181818182,651,1,0,DL_Guitar,6,3,hanamokatanamo,0.9934419393539429,1
61,100,0.9,655,1,1,DL_Guitar,6,14,hanamokatanamo,0.9919915795326233,0
63,100,0.41818181818181815,140,1,5,DL_Guitar,6,7,hanamokatanamo,0.999839186668396,1
56,100,0.1409090909090909,541,1,5,DL_Guitar,6,2,hanamokatanamo,0.3412539064884186,0
56,100,0.38181818181818183,575,0,5,DL_Guitar,6,6,hanamokatanamo,0.28383511304855347,0
56,100,0.3181818181818182,721,0,5,DL_Guitar,6,5,hanamokatanamo,0.3276192247867584,0
63,100,0.3409090909090909,153,1,6,DL_Guitar,6,5,hanamokatanamo,0.9998335838317871,1
63,100,0.1409090909090909,311,0,6,DL_Guitar,6,2,hanamokatanamo,0.212477907538414,0
60,100,0.1590909090909091,386,0,6,DL_Guitar,6,3,hanamokatanamo,0.20644734799861908,0
53,100,0.42272727272727273,695,1,6,DL_Guitar,6,7,hanamokatanamo,0.20042459666728973,0
53,100,0.23636363636363636,810,0,6,DL_Guitar,6,4,hanamokatanamo,0.20653294026851654,0
63,100,0.2772727272727273,325,1,7,DL_Guitar,6,4,hanamokatanamo,0.9995908141136169,1
63,100,0.6,818,1,7,DL_Guitar,6,10,hanamokatanamo,0.5482185482978821,0
63,100,0.32272727272727275,321,1,8,DL_Guitar,6,5,hanamokatanamo,0.9998252987861633,1
63,100,0.17727272727272728,426,0,8,DL_Guitar,6,3,hanamokatanamo,0.4191407263278961,0
53,100,0.12272727272727273,795,1,8,DL_Guitar,6,2,hanamokatanamo,0.43068939447402954,0
63,100,0.2636363636363636,862,1,9,DL_Guitar,6,4,hanamokatanamo,0.9931873083114624,0
56,100,0.1590909090909091,364,1,10,DL_Guitar,6,3,hanamokatanamo,0.9998552799224854,1
56,100,0.13636363636363635,457,0,10,DL_Guitar,6,2,hanamokatanamo,0.3270694613456726,0
56,100,0.740909090909091,527,0,10,DL_Guitar,6,12,hanamokatanamo,0.2687720060348511,0
56,100,0.5590909090909091,716,0,10,DL_Guitar,6,9,hanamokatanamo,0.32441475987434387,0
63,100,0.11818181818181818,110,1,11,DL_Guitar,6,2,hanamokatanamo,0.9998359680175781,1
56,100,0.2409090909090909,250,0,11,DL_Guitar,6,4,hanamokatanamo,0.2130315899848938,0
63,100,0.22272727272727272,443,0,11,DL_Guitar,6,4,hanamokatanamo,0.19606107473373413,0
63,100,0.1,691,1,11,DL_Guitar,6,2,hanamokatanamo,0.2068992257118225,0
63,100,0.3,876,0,11,DL_Guitar,6,5,hanamokatanamo,0.20523576438426971,0
56,100,0.22272727272727272,70,1,12,DL_Guitar,6,4,hanamokatanamo,0.999836802482605,1
63,100,0.1,144,0,12,DL_Guitar,6,2,hanamokatanamo,0.2108362764120102,0
63,100,0.2,273,0,12,DL_Guitar,6,3,hanamokatanamo,0.19373701512813568,0
56,100,0.2818181818181818,378,0,12,DL_Guitar,6,5,hanamokatanamo,0.21057933568954468,0
63,100,0.3,598,0,12,DL_Guitar,6,5,hanamokatanamo,0.20491114258766174,0
63,100,0.23636363636363636,149,1,13,DL_Guitar,6,4,hanamokatanamo,0.9998542070388794,1
63,100,0.1409090909090909,333,0,13,DL_Guitar,6,2,hanamokatanamo,0.3162690997123718,0
56,100,0.17727272727272728,436,0,13,DL_Guitar,6,3,hanamokatanamo,0.3009926974773407,0
63,100,0.8,660,0,13,DL_Guitar,6,13,hanamokatanamo,0.29759955406188965,0
63,100,1.6590909090909092,56,1,14,DL_Guitar,6,15,hanamokatanamo,0.9997965693473816,1
63,100,0.3409090909090909,488,1,14,DL_Guitar,6,5,hanamokatanamo,0.3989824950695038,0
56,100,0.22272727272727272,685,0,14,DL_Guitar,6,4,hanamokatanamo,0.3117573857307434,0
63,100,0.42272727272727273,849,0,14,DL_Guitar,6,7,hanamokatanamo,0.312252938747406,0
63,100,0.2409090909090909,140,1,15,DL_Guitar,6,4,hanamokatanamo,0.9998207688331604,1
63,100,0.22272727272727272,355,0,15,DL_Guitar,6,4,hanamokatanamo,0.4122796654701233,0
63,100,0.1,835,1,15,DL_Guitar,6,2,hanamokatanamo,0.43714332580566406,0
56,100,0.1590909090909091,13,1,16,DL_Guitar,6,3,hanamokatanamo,0.9996840953826904,1
63,100,0.6227272727272727,69,0,16,DL_Guitar,6,10,hanamokatanamo,0.03292037919163704,0
63,100,0.18181818181818182,210,0,16,DL_Guitar,6,3,hanamokatanamo,0.028265442699193954,0
63,100,0.1409090909090909,308,0,16,DL_Guitar,6,2,hanamokatanamo,0.021063387393951416,0
63,100,0.16363636363636364,378,0,16,DL_Guitar,6,3,hanamokatanamo,0.019975721836090088,0
63,100,0.4772727272727273,449,0,16,DL_Guitar,6,8,hanamokatanamo,0.019645432010293007,0
63,100,0.36363636363636365,576,0,16,DL_Guitar,6,6,hanamokatanamo,0.02455231547355652,0
56,100,0.2,660,0,16,DL_Guitar,6,3,hanamokatanamo,0.03255488723516464,0
63,100,0.41818181818181815,725,0,16,DL_Guitar,6,7,hanamokatanamo,0.03692742809653282,0
63,100,0.1409090909090909,822,0,16,DL_Guitar,6,2,hanamokatanamo,0.04180055484175682,0
63,100,0.5409090909090909,21,1,17,DL_Guitar,6,9,hanamokatanamo,0.999788224697113,1
63,100,0.3409090909090909,206,0,17,DL_Guitar,6,5,hanamokatanamo,0.1339186131954193,0
53,100,0.1590909090909091,480,1,17,DL_Guitar,6,3,hanamokatanamo,0.12918926775455475,0
53,100,0.3,532,0,17,DL_Guitar,6,5,hanamokatanamo,0.13294252753257751,0
52,100,0.3,611,0,17,DL_Guitar,6,5,hanamokatanamo,0.14541341364383698,0
52,100,0.2590909090909091,681,0,17,DL_Guitar,6,4,hanamokatanamo,0.13662037253379822,0
53,100,0.2409090909090909,119,1,18,DL_Guitar,6,4,hanamokatanamo,0.9998069405555725,1
63,100,0.2409090909090909,356,1,18,DL_Guitar,6,4,hanamokatanamo,0.1223050206899643,0
63,100,0.23636363636363636,436,0,18,DL_Guitar,6,4,hanamokatanamo,0.12035983800888062,0
63,100,0.22272727272727272,497,0,18,DL_Guitar,6,4,hanamokatanamo,0.13842971622943878,0
63,100,0.7,625,0,18,DL_Guitar,6,11,hanamokatanamo,0.13845226168632507,0
56,100,0.35909090909090907,804,0,18,DL_Guitar,6,6,hanamokatanamo,0.14323556423187256,0
63,100,0.5181818181818182,21,1,19,DL_Guitar,6,8,hanamokatanamo,0.9997890591621399,1
63,100,0.3181818181818182,370,1,19,DL_Guitar,6,5,hanamokatanamo,0.13575056195259094,0
56,100,0.18181818181818182,453,0,19,DL_Guitar,6,3,hanamokatanamo,0.13081033527851105,0
56,100,0.2590909090909091,501,0,19,DL_Guitar,6,4,hanamokatanamo,0.14101386070251465,0
56,100,0.2636363636363636,576,0,19,DL_Guitar,6,4,hanamokatanamo,0.14661096036434174,0
63,100,0.7818181818181819,791,0,19,DL_Guitar,6,13,hanamokatanamo,0.1281895488500595,0
56,100,0.7818181818181819,88,1,20,DL_Guitar,6,13,hanamokatanamo,0.9997933506965637,1
63,100,0.2409090909090909,272,0,20,DL_Guitar,6,4,hanamokatanamo,0.4423869550228119,0
63,100,0.41818181818181815,449,0,20,DL_Guitar,6,7,hanamokatanamo,0.43313732743263245,0
56,100,0.23636363636363636,40,1,21,DL_Guitar,6,4,hanamokatanamo,0.9998267292976379,1
63,100,0.2590909090909091,106,0,21,DL_Guitar,6,4,hanamokatanamo,0.2113686054944992,0
63,100,0.22272727272727272,422,1,21,DL_Guitar,6,4,hanamokatanamo,0.19722145795822144,0
63,100,0.1409090909090909,550,0,21,DL_Guitar,6,2,hanamokatanamo,0.21756120026111603,0
63,100,0.6181818181818182,700,0,21,DL_Guitar,6,10,hanamokatanamo,0.20229938626289368,0
60,100,0.1409090909090909,198,1,22,DL_Guitar,6,2,hanamokatanamo,0.999747097492218,1
63,100,0.12272727272727273,246,0,22,DL_Guitar,6,2,hanamokatanamo,0.05196657404303551,0
63,100,0.1409090909090909,285,0,22,DL_Guitar,6,2,hanamokatanamo,0.04556858167052269,0
63,100,0.17727272727272728,326,0,22,DL_Guitar,6,3,hanamokatanamo,0.04683313146233559,0
53,100,0.17727272727272728,370,0,22,DL_Guitar,6,3,hanamokatanamo,0.05397283285856247,0
63,100,0.1,523,0,22,DL_Guitar,6,2,hanamokatanamo,0.05998678877949715,0
63,100,0.1590909090909091,779,1,22,DL_Guitar,6,3,hanamokatanamo,0.0677819475531578,0
63,100,0.11818181818181818,845,0,22,DL_Guitar,6,2,hanamokatanamo,0.06343560665845871,0
63,100,0.1409090909090909,308,1,23,DL_Guitar,6,2,hanamokatanamo,0.9998342990875244,1
63,100,0.3,581,1,23,DL_Guitar,6,5,hanamokatanamo,0.20400692522525787,0
56,100,0.1409090909090909,669,0,23,DL_Guitar,6,2,hanamokatanamo,0.20797033607959747,0
56,100,0.1590909090909091,760,0,23,DL_Guitar,6,3,hanamokatanamo,0.21284718811511993,0
63,100,0.2,810,0,23,DL_Guitar,6,3,hanamokatanamo,0.19968897104263306,0
63,100,0.3,3,1,24,DL_Guitar,6,5,hanamokatanamo,0.9997212290763855,1
56,100,0.3409090909090909,79,0,24,DL_Guitar,6,5,hanamokatanamo,0.05631819739937782,0
60,100,0.1590909090909091,175,0,24,DL_Guitar,6,3,hanamokatanamo,0.04939579591155052,0
63,100,0.13636363636363635,391,0,24,DL_Guitar,6,2,hanamokatanamo,0.04599323496222496,0
60,100,0.8590909090909091,453,0,24,DL_Guitar,6,14,hanamokatanamo,0.050327349454164505,0
56,100,0.1409090909090909,717,1,24,DL_Guitar,6,2,hanamokatanamo,0.06619240343570709,0
68,100,0.18181818181818182,748,0,24,DL_Guitar,6,3,hanamokatanamo,0.0680771991610527,0
56,100,0.2590909090909091,876,0,24,DL_Guitar,6,4,hanamokatanamo,0.06129372492432594,0
63,100,0.3181818181818182,171,1,25,DL_Guitar,6,5,hanamokatanamo,0.9998251795768738,1
63,100,0.1,347,0,25,DL_Guitar,6,2,hanamokatanamo,0.21654914319515228,0
63,100,0.2818181818181818,378,0,25,DL_Guitar,6,5,hanamokatanamo,0.19758005440235138,0
63,100,0.2636363636363636,443,0,25,DL_Guitar,6,4,hanamokatanamo,0.21448254585266113,0
61,100,0.3181818181818182,735,1,25,DL_Guitar,6,5,hanamokatanamo,0.21005962789058685,0
63,100,0.4590909090909091,17,1,26,DL_Guitar,6,7,hanamokatanamo,0.9996045231819153,1
56,100,0.32272727272727275,642,1,26,DL_Guitar,6,5,hanamokatanamo,0.5618186593055725,0
63,100,0.2,88,1,27,DL_Guitar,6,3,hanamokatanamo,0.9998302459716797,1
60,100,0.2409090909090909,333,1,27,DL_Guitar,6,4,hanamokatanamo,0.21631374955177307,0
60,100,0.3,519,0,27,DL_Guitar,6,5,hanamokatanamo,0.1988610476255417,0
63,100,0.5181818181818182,611,0,27,DL_Guitar,6,8,hanamokatanamo,0.1958972066640854,0
63,100,0.1590909090909091,743,0,27,DL_Guitar,6,3,hanamokatanamo,0.22075478732585907,0
63,100,0.3,216,1,28,DL_Guitar,6,5,hanamokatanamo,0.999599277973175,1
63,100,0.17727272727272728,303,0,28,DL_Guitar,6,3,hanamokatanamo,0.5534347891807556,0
63,100,0.1590909090909091,0,1,29,DL_Guitar,6,3,hanamokatanamo,0.999589741230011,1
63,100,0.9181818181818182,743,1,29,DL_Guitar,6,15,hanamokatanamo,0.5412678718566895,0
56,100,0.3,83,1,30,DL_Guitar,6,5,hanamokatanamo,0.9997555613517761,1
56,100,0.1409090909090909,154,0,30,DL_Guitar,6,2,hanamokatanamo,0.08103560656309128,0
63,100,0.740909090909091,320,0,30,DL_Guitar,6,12,hanamokatanamo,0.06852228939533234,0
56,100,0.13636363636363635,523,0,30,DL_Guitar,6,2,hanamokatanamo,0.08879224210977554,0
63,100,0.17727272727272728,602,0,30,DL_Guitar,6,3,hanamokatanamo,0.09096624702215195,0
60,100,0.11818181818181818,691,0,30,DL_Guitar,6,2,hanamokatanamo,0.10537432134151459,0
63,100,0.3409090909090909,783,0,30,DL_Guitar,6,5,hanamokatanamo,0.08568929135799408,0
63,100,0.3181818181818182,9,1,31,DL_Guitar,6,5,hanamokatanamo,0.9997879862785339,1
63,100,0.3,83,0,31,DL_Guitar,6,5,hanamokatanamo,0.12843862175941467,0
63,100,0.8227272727272728,189,0,31,DL_Guitar,6,13,hanamokatanamo,0.12012506276369095,0
63,100,1.1818181818181819,443,1,31,DL_Guitar,6,15,hanamokatanamo,0.13931576907634735,0
56,100,0.13636363636363635,721,1,31,DL_Guitar,6,2,hanamokatanamo,0.18083006143569946,0
63,100,0.36363636363636365,752,0,31,DL_Guitar,6,6,hanamokatanamo,0.141806960105896,0
63,100,0.32272727272727275,26,1,32,DL_Guitar,6,5,hanamokatanamo,0.9997501969337463,1
63,100,0.4818181818181818,158,0,32,DL_Guitar,6,8,hanamokatanamo,0.08047771453857422,0
56,100,0.2409090909090909,298,0,32,DL_Guitar,6,4,hanamokatanamo,0.07918331027030945,0
63,100,0.1590909090909091,396,0,32,DL_Guitar,6,3,hanamokatanamo,0.08088064938783646,0
61,100,0.2772727272727273,536,0,32,DL_Guitar,6,4,hanamokatanamo,0.09268349409103394,0
53,100,0.2590909090909091,611,0,32,DL_Guitar,6,4,hanamokatanamo,0.09984169900417328,0
63,100,0.2772727272727273,735,0,32,DL_Guitar,6,4,hanamokatanamo,0.09077531099319458,0
63,100,0.6363636363636364,105,1,33,DL_Guitar,6,10,hanamokatanamo,0.9998123049736023,1
56,100,0.5227272727272727,444,1,33,DL_Guitar,6,8,hanamokatanamo,0.22278274595737457,0
63,100,0.35909090909090907,558,0,33,DL_Guitar,6,6,hanamokatanamo,0.20505960285663605,0
63,100,0.12272727272727273,751,0,33,DL_Guitar,6,2,hanamokatanamo,0.2279447615146637,0
63,100,0.6409090909090909,866,0,33,DL_Guitar,6,10,hanamokatanamo,0.20793533325195312,0
63,100,0.2590909090909091,518,1,34,DL_Guitar,6,4,hanamokatanamo,0.9998465776443481,1
63,100,0.2,619,0,34,DL_Guitar,6,3,hanamokatanamo,0.3293739855289459,0
63,100,0.2,770,0,34,DL_Guitar,6,3,hanamokatanamo,0.29344624280929565,0
61,100,0.4818181818181818,861,0,34,DL_Guitar,6,8,hanamokatanamo,0.3132501244544983,0
61,100,0.1409090909090909,241,1,35,DL_Guitar,6,2,hanamokatanamo,0.9998531341552734,1
63,100,0.1,361,0,35,DL_Guitar,6,2,hanamokatanamo,0.30743351578712463,0
63,100,0.9227272727272727,408,0,35,DL_Guitar,6,15,hanamokatanamo,0.27408865094184875,0
63,100,0.3,738,1,35,DL_Guitar,6,5,hanamokatanamo,0.33204856514930725,0
63,100,0.21818181818181817,8,1,36,DL_Guitar,6,3,hanamokatanamo,0.9998494386672974,1
53,100,0.13636363636363635,678,1,36,DL_Guitar,6,2,hanamokatanamo,0.33652108907699585,0
61,100,0.22272727272727272,751,0,36,DL_Guitar,6,4,hanamokatanamo,0.2931947112083435,0
53,100,0.5590909090909091,801,0,36,DL_Guitar,6,9,hanamokatanamo,0.30050498247146606,0
65,100,0.5409090909090909,53,1,37,DL_Guitar,6,9,hanamokatanamo,0.999824583530426,1
65,100,0.2818181818181818,241,0,37,DL_Guitar,6,5,hanamokatanamo,0.22538907825946808,0
53,100,0.2636363636363636,311,0,37,DL_Guitar,6,4,hanamokatanamo,0.19778335094451904,0
53,100,0.21818181818181817,373,0,37,DL_Guitar,6,3,hanamokatanamo,0.2123429924249649,0
63,100,0.5590909090909091,545,0,37,DL_Guitar,6,9,hanamokatanamo,0.19753000140190125,0
55,100,0.2772727272727273,141,1,38,DL_Guitar,6,4,hanamokatanamo,0.9995946288108826,1
55,100,0.21818181818181817,418,1,38,DL_Guitar,6,3,hanamokatanamo,0.5565700531005859,0
53,100,0.2,163,1,39,DL_Guitar,6,3,hanamokatanamo,0.9998069405555725,1
53,100,0.1590909090909091,211,0,39,DL_Guitar,6,3,hanamokatanamo,0.12420675158500671,0
53,100,0.2818181818181818,276,0,39,DL_Guitar,6,5,hanamokatanamo,0.11935696750879288,0
53,100,0.43636363636363634,348,0,39,DL_Guitar,6,7,hanamokatanamo,0.1328853815793991,0
63,100,0.6227272727272727,474,0,39,DL_Guitar,6,10,hanamokatanamo,0.1333884596824646,0
61,100,0.11818181818181818,765,1,39,DL_Guitar,6,2,hanamokatanamo,0.14959245920181274,0
63,100,0.1409090909090909,361,1,40,DL_Guitar,6,2,hanamokatanamo,0.9998505115509033,1
63,100,0.1409090909090909,405,0,40,DL_Guitar,6,2,hanamokatanamo,0.32721567153930664,0
63,100,0.18181818181818182,664,1,40,DL_Guitar,6,3,hanamokatanamo,0.2874836325645447,0
63,100,0.12272727272727273,861,0,40,DL_Guitar,6,2,hanamokatanamo,0.31245678663253784,0
63,100,0.21818181818181817,75,1,41,DL_Guitar,6,3,hanamokatanamo,0.9996954202651978,1
53,100,0.3409090909090909,246,0,41,DL_Guitar,6,5,hanamokatanamo,0.04373156279325485,0
63,100,0.12272727272727273,334,0,41,DL_Guitar,6,2,hanamokatanamo,0.03369322046637535,0
63,100,0.18181818181818182,399,0,41,DL_Guitar,6,3,hanamokatanamo,0.030018404126167297,0
53,100,0.2,448,0,41,DL_Guitar,6,3,hanamokatanamo,0.031463801860809326,0
56,100,0.2,619,0,41,DL_Guitar,6,3,hanamokatanamo,0.034248288720846176,0
63,100,0.1409090909090909,691,0,41,DL_Guitar,6,2,hanamokatanamo,0.04047081992030144,0
63,100,0.11818181818181818,735,0,41,DL_Guitar,6,2,hanamokatanamo,0.04982975125312805,0
63,100,0.33636363636363636,765,0,41,DL_Guitar,6,5,hanamokatanamo,0.047333307564258575,0
63,100,0.21818181818181817,0,1,42,DL_Guitar,6,3,hanamokatanamo,0.9998223185539246,1
63,100,0.2818181818181818,198,0,42,DL_Guitar,6,5,hanamokatanamo,0.4221135675907135,0
63,100,0.16363636363636364,774,1,42,DL_Guitar,6,3,hanamokatanamo,0.43120595812797546,0
63,100,0.3,295,1,43,DL_Guitar,6,5,hanamokatanamo,0.9998144507408142,1
63,100,0.6,399,0,43,DL_Guitar,6,10,hanamokatanamo,0.4015304148197174,0
53,100,0.18181818181818182,673,1,43,DL_Guitar,6,3,hanamokatanamo,0.45183414220809937,0
63,100,0.12272727272727273,136,1,44,DL_Guitar,6,2,hanamokatanamo,0.9998503923416138,1
63,100,0.12272727272727273,268,0,44,DL_Guitar,6,2,hanamokatanamo,0.32119232416152954,0
63,100,0.1409090909090909,550,1,44,DL_Guitar,6,2,hanamokatanamo,0.2973579168319702,0
63,100,0.2409090909090909,616,0,44,DL_Guitar,6,4,hanamokatanamo,0.30816683173179626,0
58,100,0.18181818181818182,21,1,45,DL_Guitar,6,3,hanamokatanamo,0.9997881054878235,1
53,100,0.5409090909090909,321,1,45,DL_Guitar,6,9,hanamokatanamo,0.1292881816625595,0
60,100,0.16363636363636364,444,0,45,DL_Guitar,6,3,hanamokatanamo,0.12630899250507355,0
53,100,0.1590909090909091,506,0,45,DL_Guitar,6,3,hanamokatanamo,0.13617871701717377,0
63,100,0.18181818181818182,729,0,45,DL_Guitar,6,3,hanamokatanamo,0.14080233871936798,0
63,100,0.4,861,0,45,DL_Guitar,6,6,hanamokatanamo,0.1321946531534195,0
63,100,0.6818181818181818,254,1,46,DL_Guitar,6,11,hanamokatanamo,0.9998165965080261,1
61,100,0.13636363636363635,458,0,46,DL_Guitar,6,2,hanamokatanamo,0.2255972921848297,0
61,100,0.5,493,0,46,DL_Guitar,6,8,hanamokatanamo,0.19511298835277557,0
61,100,0.21818181818181817,678,0,46,DL_Guitar,6,3,hanamokatanamo,0.21638737618923187,0
61,100,0.16363636363636364,774,0,46,DL_Guitar,6,3,hanamokatanamo,0.2136363685131073,0
64,100,0.1590909090909091,810,1,47,DL_Guitar,6,3,hanamokatanamo,0.9936500191688538,0
53,100,0.18181818181818182,56,1,48,DL_Guitar,6,3,hanamokatanamo,0.999812662601471,1
53,100,0.2818181818181818,263,0,48,DL_Guitar,6,5,hanamokatanamo,0.12235881388187408,0
56,100,0.1,421,0,48,DL_Guitar,6,2,hanamokatanamo,0.1222362145781517,0
63,100,0.2,483,0,48,DL_Guitar,6,3,hanamokatanamo,0.13013781607151031,0
53,100,0.16363636363636364,554,0,48,DL_Guitar,6,3,hanamokatanamo,0.14293652772903442,0
61,100,0.2,845,1,48,DL_Guitar,6,3,hanamokatanamo,0.12783801555633545,0
56,100,0.5590909090909091,251,1,49,DL_Guitar,6,9,hanamokatanamo,0.9998109936714172,1
63,100,0.9181818181818182,396,0,49,DL_Guitar,6,15,hanamokatanamo,0.38519370555877686,0
63,100,0.11818181818181818,770,1,49,DL_Guitar,6,2,hanamokatanamo,0.4598464369773865,0
63,100,0.41818181818181815,118,1,50,DL_Guitar,6,7,hanamokatanamo,0.9998160004615784,1
63,100,0.6590909090909091,263,0,50,DL_Guitar,6,11,hanamokatanamo,0.20509907603263855,0
53,100,0.18181818181818182,606,1,50,DL_Guitar,6,3,hanamokatanamo,0.21931006014347076,0
63,100,0.35909090909090907,655,0,50,DL_Guitar,6,6,hanamokatanamo,0.20164147019386292,0
63,100,0.1,765,0,50,DL_Guitar,6,2,hanamokatanamo,0.2224297821521759,0
56,100,0.5590909090909091,31,1,51,DL_Guitar,6,9,hanamokatanamo,0.9998279809951782,1
63,100,0.7227272727272728,254,0,51,DL_Guitar,6,12,hanamokatanamo,0.31774526834487915,0
63,100,0.6,531,1,51,DL_Guitar,6,10,hanamokatanamo,0.30108630657196045,0
63,100,0.2409090909090909,668,0,51,DL_Guitar,6,4,hanamokatanamo,0.3328636586666107,0
63,100,0.5818181818181818,110,1,52,DL_Guitar,6,9,hanamokatanamo,0.9998277425765991,1
63,100,0.5181818181818182,435,1,52,DL_Guitar,6,8,hanamokatanamo,0.33142387866973877,0
63,100,0.37727272727272726,721,1,52,DL_Guitar,6,6,hanamokatanamo,0.3088492751121521,0
63,100,0.1409090909090909,861,0,52,DL_Guitar,6,2,hanamokatanamo,0.3261101245880127,0
63,100,0.9181818181818182,18,1,53,DL_Guitar,6,15,hanamokatanamo,0.9998039603233337,1
56,100,0.1590909090909091,254,1,53,DL_Guitar,6,3,hanamokatanamo,0.24561186134815216,0
63,100,0.18181818181818182,289,0,53,DL_Guitar,6,3,hanamokatanamo,0.19610120356082916,0
63,100,0.3409090909090909,378,0,53,DL_Guitar,6,5,hanamokatanamo,0.21334686875343323,0
63,100,0.5590909090909091,480,0,53,DL_Guitar,6,9,hanamokatanamo,0.21458296477794647,0
53,100,0.3,26,1,54,DL_Guitar,6,5,hanamokatanamo,0.9998432397842407,1
61,100,0.8363636363636363,150,0,54,DL_Guitar,6,13,hanamokatanamo,0.2992992103099823,0
61,100,0.21818181818181817,370,0,54,DL_Guitar,6,3,hanamokatanamo,0.3153393566608429,0
63,100,0.42272727272727273,848,1,54,DL_Guitar,6,7,hanamokatanamo,0.3087421655654907,0
63,100,1.559090909090909,166,1,55,DL_Guitar,6,15,hanamokatanamo,0.9998001456260681,1
60,100,0.21818181818181817,523,1,55,DL_Guitar,6,3,hanamokatanamo,0.4023189842700958,0
53,100,0.1409090909090909,694,0,55,DL_Guitar,6,2,hanamokatanamo,0.299782395362854,0
53,100,0.21818181818181817,735,0,55,DL_Guitar,6,3,hanamokatanamo,0.31561121344566345,0
56,100,0.1590909090909091,273,1,56,DL_Guitar,6,3,hanamokatanamo,0.9996191263198853,1
61,100,0.9227272727272727,421,0,56,DL_Guitar,6,15,hanamokatanamo,0.5333584547042847,0
63,100,0.11818181818181818,593,1,57,DL_Guitar,6,2,hanamokatanamo,0.9995923638343811,1
63,100,0.759090909090909,625,0,57,DL_Guitar,6,12,hanamokatanamo,0.5461486577987671,0
63,100,0.13636363636363635,370,1,58,DL_Guitar,6,2,hanamokatanamo,0.9998526573181152,1
63,100,0.11818181818181818,528,0,58,DL_Guitar,6,2,hanamokatanamo,0.3198602497577667,0
53,100,0.4,655,0,58,DL_Guitar,6,6,hanamokatanamo,0.2930164635181427,0
61,100,0.42272727272727273,774,0,58,DL_Guitar,6,7,hanamokatanamo,0.3100784420967102,0
61,100,0.3,34,1,59,DL_Guitar,6,5,hanamokatanamo,0.9930607080459595,0
63,100,1.040909090909091,553,1,64,DL_Guitar,6,15,hanamokatanamo,0.9994863271713257,1
63,100,0.7181818181818181,853,1,64,DL_Guitar,6,11,hanamokatanamo,0.57102370262146,0
63,100,0.1409090909090909,176,1,65,DL_Guitar,6,2,hanamokatanamo,0.9996067881584167,1
63,100,0.38181818181818183,220,0,65,DL_Guitar,6,6,hanamokatanamo,0.548905611038208,0
53,100,0.6,113,1,68,DL_Guitar,6,10,hanamokatanamo,0.9998179078102112,1
53,100,0.6409090909090909,307,0,68,DL_Guitar,6,10,hanamokatanamo,0.396114706993103,0
77,100,0.1590909090909091,593,1,68,DL_Guitar,6,3,hanamokatanamo,0.44612812995910645,0
63,100,0.35909090909090907,193,1,69,DL_Guitar,6,6,hanamokatanamo,0.9997921586036682,1
63,100,0.5590909090909091,276,0,69,DL_Guitar,6,9,hanamokatanamo,0.1286456286907196,0
63,100,0.2,443,0,69,DL_Guitar,6,3,hanamokatanamo,0.1376466453075409,0
63,100,0.1,612,0,69,DL_Guitar,6,2,hanamokatanamo,0.1438685804605484,0
63,100,0.1,650,0,69,DL_Guitar,6,2,hanamokatanamo,0.15181614458560944,0
63,100,1.6181818181818182,700,0,69,DL_Guitar,6,15,hanamokatanamo,0.12758642435073853,0
53,100,0.2590909090909091,343,1,70,DL_Guitar,6,4,hanamokatanamo,0.999848484992981,1
53,100,0.9,462,0,70,DL_Guitar,6,14,hanamokatanamo,0.2941286861896515,0
65,100,0.35909090909090907,682,0,70,DL_Guitar,6,6,hanamokatanamo,0.3114032447338104,0
53,100,0.11818181818181818,766,0,70,DL_Guitar,6,2,hanamokatanamo,0.31201544404029846,0
65,100,0.16363636363636364,3,1,71,DL_Guitar,6,3,hanamokatanamo,0.9998393058776855,1
77,100,0.23636363636363636,260,1,71,DL_Guitar,6,4,hanamokatanamo,0.19663062691688538,0
77,100,0.4,320,0,71,DL_Guitar,6,6,hanamokatanamo,0.19485263526439667,0
77,100,0.3,413,0,71,DL_Guitar,6,5,hanamokatanamo,0.20789465308189392,0
63,100,0.2636363636363636,509,0,71,DL_Guitar,6,4,hanamokatanamo,0.2055242359638214,0
63,100,0.11818181818181818,96,1,72,DL_Guitar,6,2,hanamokatanamo,0.999805748462677,1
63,100,0.21818181818181817,700,1,72,DL_Guitar,6,3,hanamokatanamo,0.1242128312587738,0
63,100,0.1,756,0,72,DL_Guitar,6,2,hanamokatanamo,0.1250419020652771,0
75,100,0.1,783,0,72,DL_Guitar,6,2,hanamokatanamo,0.13103191554546356,0
63,100,0.3,805,0,72,DL_Guitar,6,5,hanamokatanamo,0.14814285933971405,0
75,100,0.1,870,0,72,DL_Guitar,6,2,hanamokatanamo,0.13805286586284637,0
75,100,0.2,30,1,73,DL_Guitar,6,3,hanamokatanamo,0.9998226761817932,1
63,100,0.35909090909090907,74,0,73,DL_Guitar,6,6,hanamokatanamo,0.40951454639434814,0
63,100,0.8636363636363636,157,0,73,DL_Guitar,6,14,hanamokatanamo,0.42256370186805725,0
62,100,0.8409090909090909,466,1,74,DL_Guitar,6,13,hanamokatanamo,0.9996053576469421,1
62,100,0.22272727272727272,663,0,74,DL_Guitar,6,4,hanamokatanamo,0.5604123473167419,0
62,100,0.1590909090909091,9,1,75,DL_Guitar,6,3,hanamokatanamo,0.9998447895050049,1
59,100,1.0818181818181818,92,0,75,DL_Guitar,6,15,hanamokatanamo,0.28962039947509766,0
61,100,1.0363636363636364,567,1,75,DL_Guitar,6,15,hanamokatanamo,0.3112146854400635,0
59,100,1.1590909090909092,823,1,75,DL_Guitar,6,15,hanamokatanamo,0.3274073004722595,0
61,100,1.2,202,1,76,DL_Guitar,6,15,hanamokatanamo,0.9994151592254639,1
61,100,3.2,509,1,76,DL_Guitar,6,15,hanamokatanamo,0.5481514930725098,0
62,100,1.2227272727272727,343,1,77,DL_Guitar,6,15,hanamokatanamo,0.9995222091674805,1
62,100,0.5,853,1,77,DL_Guitar,6,8,hanamokatanamo,0.5739275813102722,0
57,100,0.4590909090909091,132,1,78,DL_Guitar,6,7,hanamokatanamo,0.9998086094856262,1
62,100,0.8181818181818182,502,1,78,DL_Guitar,6,13,hanamokatanamo,0.40882742404937744,0
62,100,0.3,826,1,78,DL_Guitar,6,5,hanamokatanamo,0.44730502367019653,0
54,100,0.12272727272727273,26,1,79,DL_Guitar,6,2,hanamokatanamo,0.9998061060905457,1
62,100,0.13636363636363635,83,0,79,DL_Guitar,6,2,hanamokatanamo,0.12863923609256744,0
68,100,0.2,123,0,79,DL_Guitar,6,3,hanamokatanamo,0.12058892101049423,0
68,100,0.12272727272727273,377,1,79,DL_Guitar,6,2,hanamokatanamo,0.1401781588792801,0
68,100,0.5227272727272727,509,0,79,DL_Guitar,6,8,hanamokatanamo,0.13835588097572327,0
61,100,0.8363636363636363,633,0,79,DL_Guitar,6,13,hanamokatanamo,0.12982700765132904,0
59,100,0.41818181818181815,9,1,80,DL_Guitar,6,7,hanamokatanamo,0.9997895359992981,1
59,100,0.11818181818181818,132,0,80,DL_Guitar,6,2,hanamokatanamo,0.1356092393398285,0
64,100,0.7363636363636363,303,0,80,DL_Guitar,6,12,hanamokatanamo,0.11536889523267746,0
61,100,0.17727272727272728,646,1,80,DL_Guitar,6,3,hanamokatanamo,0.1450672596693039,0
69,100,0.2590909090909091,713,0,80,DL_Guitar,6,4,hanamokatanamo,0.14522790908813477,0
62,100,0.4409090909090909,779,0,80,DL_Guitar,6,7,hanamokatanamo,0.1362389177083969,0
62,100,0.13636363636363635,17,1,81,DL_Guitar,6,2,hanamokatanamo,0.9998389482498169,1
62,100,0.5772727272727273,53,0,81,DL_Guitar,6,9,hanamokatanamo,0.19244396686553955,0
59,100,0.3,597,1,81,DL_Guitar,6,5,hanamokatanamo,0.20555374026298523,0
68,100,0.6181818181818182,677,0,81,DL_Guitar,6,10,hanamokatanamo,0.20792466402053833,0
52,100,0.12272727272727273,817,0,81,DL_Guitar,6,2,hanamokatanamo,0.22138334810733795,0
68,100,0.18181818181818182,3,1,82,DL_Guitar,6,3,hanamokatanamo,0.9996819496154785,1
57,100,0.3181818181818182,66,0,82,DL_Guitar,6,5,hanamokatanamo,0.035090912133455276,0
61,100,0.2,166,0,82,DL_Guitar,6,3,hanamokatanamo,0.025206945836544037,0
61,100,0.2590909090909091,273,0,82,DL_Guitar,6,4,hanamokatanamo,0.02087944746017456,0
64,100,0.2818181818181818,330,0,82,DL_Guitar,6,5,hanamokatanamo,0.019746355712413788,0
57,100,0.37727272727272726,436,0,82,DL_Guitar,6,6,hanamokatanamo,0.018522078171372414,0
61,100,0.2772727272727273,567,0,82,DL_Guitar,6,4,hanamokatanamo,0.02332589216530323,0
57,100,0.2590909090909091,633,0,82,DL_Guitar,6,4,hanamokatanamo,0.02958669699728489,0
61,100,0.2590909090909091,700,0,82,DL_Guitar,6,4,hanamokatanamo,0.037716928869485855,0
61,100,0.4409090909090909,826,0,82,DL_Guitar,6,7,hanamokatanamo,0.038296833634376526,0
59,100,0.12272727272727273,92,1,83,DL_Guitar,6,2,hanamokatanamo,0.9998053908348083,1
64,100,0.17727272727272728,127,0,83,DL_Guitar,6,3,hanamokatanamo,0.12925587594509125,0
57,100,0.33636363636363636,193,0,83,DL_Guitar,6,5,hanamokatanamo,0.11927318572998047,0
61,100,0.5227272727272727,320,0,83,DL_Guitar,6,8,hanamokatanamo,0.13981077075004578,0
57,100,0.9590909090909091,483,0,83,DL_Guitar,6,15,hanamokatanamo,0.14187228679656982,0
62,100,1.2,703,0,83,DL_Guitar,6,15,hanamokatanamo,0.1407337635755539,0
62,100,0.1409090909090909,263,1,84,DL_Guitar,6,2,hanamokatanamo,0.9998613595962524,1
52,100,0.1,663,1,84,DL_Guitar,6,2,hanamokatanamo,0.3289070129394531,0
64,100,0.16363636363636364,752,0,84,DL_Guitar,6,3,hanamokatanamo,0.2887342572212219,0
68,100,0.1590909090909091,810,0,84,DL_Guitar,6,3,hanamokatanamo,0.2944434881210327,0
64,100,0.18181818181818182,66,1,85,DL_Guitar,6,3,hanamokatanamo,0.9997838139533997,1
64,100,0.11818181818181818,197,0,85,DL_Guitar,6,2,hanamokatanamo,0.07983122766017914,0
59,100,0.23636363636363636,237,0,85,DL_Guitar,6,4,hanamokatanamo,0.0721401646733284,0
64,100,0.16363636363636364,289,0,85,DL_Guitar,6,3,hanamokatanamo,0.08215781301259995,0
57,100,0.3181818181818182,493,0,85,DL_Guitar,6,5,hanamokatanamo,0.08707203716039658,0
57,100,0.759090909090909,567,0,85,DL_Guitar,6,12,hanamokatanamo,0.09046000987291336,0
57,100,0.8409090909090909,752,0,85,DL_Guitar,6,13,hanamokatanamo,0.0889093428850174,0
61,100,0.32272727272727275,56,1,86,DL_Guitar,6,5,hanamokatanamo,0.9998292922973633,1
61,100,1.0,140,0,86,DL_Guitar,6,15,hanamokatanamo,0.18555288016796112,0
64,100,0.2772727272727273,559,1,86,DL_Guitar,6,4,hanamokatanamo,0.22503866255283356,0
62,100,1.0,624,0,86,DL_Guitar,6,15,hanamokatanamo,0.19747942686080933,0
62,100,0.1409090909090909,849,0,86,DL_Guitar,6,2,hanamokatanamo,0.23130185902118683,0
57,100,0.21818181818181817,17,1,87,DL_Guitar,6,3,hanamokatanamo,0.9998483657836914,1
62,100,0.6590909090909091,210,0,87,DL_Guitar,6,11,hanamokatanamo,0.31768035888671875,0
68,100,0.32272727272727275,773,1,87,DL_Guitar,6,5,hanamokatanamo,0.29240891337394714,0
68,100,0.1409090909090909,862,0,87,DL_Guitar,6,2,hanamokatanamo,0.3163689076900482,0
68,100,1.459090909090909,87,1,88,DL_Guitar,6,15,hanamokatanamo,0.9994995594024658,1
68,100,0.18181818181818182,417,1,88,DL_Guitar,6,3,hanamokatanamo,0.5879027247428894,0
62,100,0.12272727272727273,509,1,89,DL_Guitar,6,2,hanamokatanamo,0.9936269521713257,0
61,100,0.3,480,1,90,DL_Guitar,6,5,hanamokatanamo,0.9998408555984497,1
64,100,0.2818181818181818,553,0,90,DL_Guitar,6,5,hanamokatanamo,0.21578563749790192,0
64,100,0.3,619,0,90,DL_Guitar,6,5,hanamokatanamo,0.20506218075752258,0
61,100,0.5,690,0,90,DL_Guitar,6,8,hanamokatanamo,0.20196592807769775,0
57,100,1.7363636363636363,810,0,90,DL_Guitar,6,15,hanamokatanamo,0.19380971789360046,0
62,100,0.3181818181818182,316,1,91,DL_Guitar,6,5,hanamokatanamo,0.9932524561882019,0
68,100,0.17727272727272728,546,1,92,DL_Guitar,6,3,hanamokatanamo,0.9998359680175781,1
69,100,0.4590909090909091,646,0,92,DL_Guitar,6,7,hanamokatanamo,0.20075958967208862,0
57,100,0.2,747,0,92,DL_Guitar,6,3,hanamokatanamo,0.20801463723182678,0
64,100,0.2,805,0,92,DL_Guitar,6,3,hanamokatanamo,0.21945124864578247,0
57,100,0.5590909090909091,853,0,92,DL_Guitar,6,9,hanamokatanamo,0.1926795393228531,0
61,100,0.3181818181818182,110,1,93,DL_Guitar,6,5,hanamokatanamo,0.9998199343681335,1
57,100,0.4,229,0,93,DL_Guitar,6,6,hanamokatanamo,0.4081585705280304,0
61,100,0.17727272727272728,383,0,93,DL_Guitar,6,3,hanamokatanamo,0.43493035435676575,0
68,100,0.12272727272727273,255,1,94,DL_Guitar,6,2,hanamokatanamo,0.9998568296432495,1
68,100,0.1,509,1,94,DL_Guitar,6,2,hanamokatanamo,0.32439297437667847,0
59,100,0.36363636363636365,663,0,94,DL_Guitar,6,6,hanamokatanamo,0.27874547243118286,0
61,100,0.2409090909090909,773,0,94,DL_Guitar,6,4,hanamokatanamo,0.3065233826637268,0
64,100,0.3181818181818182,140,1,95,DL_Guitar,6,5,hanamokatanamo,0.9998363256454468,1
57,100,0.5409090909090909,210,0,95,DL_Guitar,6,9,hanamokatanamo,0.20711494982242584,0
64,100,0.2,347,0,95,DL_Guitar,6,3,hanamokatanamo,0.2114379107952118,0
57,100,1.0772727272727274,413,0,95,DL_Guitar,6,15,hanamokatanamo,0.18751651048660278,0
56,100,0.9181818181818182,656,1,95,DL_Guitar,6,15,hanamokatanamo,0.2194644957780838,0
62,100,0.12272727272727273,26,1,96,DL_Guitar,6,2,hanamokatanamo,0.9996528625488281,1
52,100,0.1590909090909091,550,1,96,DL_Guitar,6,3,hanamokatanamo,0.5532311797142029,0
57,100,1.8,233,1,97,DL_Guitar,6,15,hanamokatanamo,0.9994503855705261,1
57,100,0.2590909090909091,823,1,97,DL_Guitar,6,4,hanamokatanamo,0.5907792448997498,0
57,100,0.6590909090909091,166,1,98,DL_Guitar,6,11,hanamokatanamo,0.9996967315673828,1
62,100,0.3,320,0,98,DL_Guitar,6,5,hanamokatanamo,0.060842737555503845,0
62,100,0.2590909090909091,430,0,98,DL_Guitar,6,4,hanamokatanamo,0.04902404174208641,0
57,100,0.2409090909090909,527,0,98,DL_Guitar,6,4,hanamokatanamo,0.04591478407382965,0
62,100,0.11818181818181818,580,0,98,DL_Guitar,6,2,hanamokatanamo,0.055898938328027725,0
62,100,0.1,633,0,98,DL_Guitar,6,2,hanamokatanamo,0.06276746839284897,0
57,100,0.12272727272727273,695,0,98,DL_Guitar,6,2,hanamokatanamo,0.06659049540758133,0
68,100,0.11818181818181818,876,0,98,DL_Guitar,6,2,hanamokatanamo,0.06295890361070633,0
68,100,0.2,53,1,99,DL_Guitar,6,3,hanamokatanamo,0.9997251629829407,1
68,100,0.2,110,0,99,DL_Guitar,6,3,hanamokatanamo,0.055859606713056564,0
68,100,0.1409090909090909,197,0,99,DL_Guitar,6,2,hanamokatanamo,0.04735571891069412,0
59,100,0.35909090909090907,316,0,99,DL_Guitar,6,6,hanamokatanamo,0.04605453461408615,0
68,100,0.11818181818181818,726,1,99,DL_Guitar,6,2,hanamokatanamo,0.053630948066711426,0
61,100,0.3181818181818182,770,0,99,DL_Guitar,6,5,hanamokatanamo,0.0577985942363739,0
68,100,0.1409090909090909,844,0,99,DL_Guitar,6,2,hanamokatanamo,0.06753584742546082,0
61,100,0.2,876,0,99,DL_Guitar,6,3,hanamokatanamo,0.061163440346717834,0
64,100,0.23636363636363636,40,1,100,DL_Guitar,6,4,hanamokatanamo,0.9998480081558228,1
61,100,0.5,96,0,100,DL_Guitar,6,8,hanamokatanamo,0.3091640770435333,0
61,100,0.6181818181818182,237,0,100,DL_Guitar,6,10,hanamokatanamo,0.29106807708740234,0
64,100,0.5181818181818182,483,1,100,DL_Guitar,6,8,hanamokatanamo,0.3206902742385864,0
57,100,0.18181818181818182,189,1,101,DL_Guitar,6,3,hanamokatanamo,0.9998553991317749,1
52,100,0.1,282,0,101,DL_Guitar,6,2,hanamokatanamo,0.3296717703342438,0
52,100,0.1,330,0,101,DL_Guitar,6,2,hanamokatanamo,0.29271838068962097,0
52,100,0.38181818181818183,813,1,101,DL_Guitar,6,6,hanamokatanamo,0.2966786324977875,0
64,100,0.11818181818181818,87,1,104,DL_Guitar,6,2,hanamokatanamo,0.9997411370277405,1
57,100,0.2,255,0,104,DL_Guitar,6,3,hanamokatanamo,0.05325876176357269,0
57,100,0.13636363636363635,370,0,104,DL_Guitar,6,2,hanamokatanamo,0.04778166860342026,0
57,100,0.2590909090909091,413,0,104,DL_Guitar,6,4,hanamokatanamo,0.047370195388793945,0
52,100,0.2590909090909091,480,0,104,DL_Guitar,6,4,hanamokatanamo,0.05592377856373787,0
57,100,0.21818181818181817,536,0,104,DL_Guitar,6,3,hanamokatanamo,0.05767480283975601,0
57,100,0.3,597,0,104,DL_Guitar,6,5,hanamokatanamo,0.06628601998090744,0
57,100,0.8409090909090909,695,0,104,DL_Guitar,6,13,hanamokatanamo,0.05976906418800354,0
64,100,0.18181818181818182,202,1,105,DL_Guitar,6,3,hanamokatanamo,0.9933799505233765,1
57,100,0.17727272727272728,492,1,0,DL_Guitar,6,3,umontaturo_upbeat,0.9931262731552124,0
69,100,0.33636363636363636,39,1,1,DL_Guitar,6,5,umontaturo_upbeat,0.9997922778129578,1
52,100,0.7,166,0,1,DL_Guitar,6,11,umontaturo_upbeat,0.1285792589187622,0
52,100,0.1,351,0,1,DL_Guitar,6,2,umontaturo_upbeat,0.1305968165397644,0
59,100,0.1409090909090909,449,0,1,DL_Guitar,6,2,umontaturo_upbeat,0.1352781504392624,0
52,100,0.11818181818181818,638,0,1,DL_Guitar,6,2,umontaturo_upbeat,0.1508890986442566,0
54,100,0.4409090909090909,796,0,1,DL_Guitar,6,7,umontaturo_upbeat,0.12687835097312927,0
59,100,0.2,12,1,2,DL_Guitar,6,3,umontaturo_upbeat,0.9998281002044678,1
54,100,0.3409090909090909,421,1,2,DL_Guitar,6,5,umontaturo_upbeat,0.41294175386428833,0
57,100,0.33636363636363636,501,0,2,DL_Guitar,6,5,umontaturo_upbeat,0.4254588186740875,0
57,100,0.1409090909090909,70,1,3,DL_Guitar,6,2,umontaturo_upbeat,0.9998489618301392,1
69,100,0.2772727272727273,295,0,3,DL_Guitar,6,4,umontaturo_upbeat,0.31228891015052795,0
59,100,0.3,550,1,3,DL_Guitar,6,5,umontaturo_upbeat,0.29776889085769653,0
64,100,0.2818181818181818,629,0,3,DL_Guitar,6,5,umontaturo_upbeat,0.3118912875652313,0
61,100,0.2590909090909091,255,1,4,DL_Guitar,6,4,umontaturo_upbeat,0.9996323585510254,1
64,100,0.3,871,1,4,DL_Guitar,6,5,umontaturo_upbeat,0.5530964732170105,0
52,100,0.3,56,1,5,DL_Guitar,6,5,umontaturo_upbeat,0.9998592138290405,1
69,100,0.11818181818181818,514,1,5,DL_Guitar,6,2,umontaturo_upbeat,0.30836614966392517,0
52,100,0.5772727272727273,678,0,5,DL_Guitar,6,9,umontaturo_upbeat,0.2850421667098999,0
52,100,0.2636363636363636,862,0,5,DL_Guitar,6,4,umontaturo_upbeat,0.31180277466773987,0
64,100,0.1,79,1,6,DL_Guitar,6,2,umontaturo_upbeat,0.9998581409454346,1
52,100,0.8,105,0,6,DL_Guitar,6,13,umontaturo_upbeat,0.2907165586948395,0
54,100,0.43636363636363634,414,1,6,DL_Guitar,6,7,umontaturo_upbeat,0.2985842823982239,0
59,100,0.2409090909090909,514,0,6,DL_Guitar,6,4,umontaturo_upbeat,0.3118429183959961,0
54,100,0.1409090909090909,87,1,7,DL_Guitar,6,2,umontaturo_upbeat,0.9998304843902588,1
57,100,0.32272727272727275,122,0,7,DL_Guitar,6,5,umontaturo_upbeat,0.40406033396720886,0
54,100,0.1409090909090909,317,0,7,DL_Guitar,6,2,umontaturo_upbeat,0.42856770753860474,0
59,100,0.1,34,1,8,DL_Guitar,6,2,umontaturo_upbeat,0.9997689127922058,1
52,100,0.1,127,0,8,DL_Guitar,6,2,umontaturo_upbeat,0.07985062152147293,0
59,100,0.37727272727272726,347,0,8,DL_Guitar,6,6,umontaturo_upbeat,0.07051268219947815,0
54,100,0.3409090909090909,448,0,8,DL_Guitar,6,5,umontaturo_upbeat,0.07957637310028076,0
52,100,0.38181818181818183,673,0,8,DL_Guitar,6,6,umontaturo_upbeat,0.09211529046297073,0
57,100,0.3,766,0,8,DL_Guitar,6,5,umontaturo_upbeat,0.09348923712968826,0
52,100,0.1,840,0,8,DL_Guitar,6,2,umontaturo_upbeat,0.09178613126277924,0
57,100,0.21818181818181817,0,1,9,DL_Guitar,6,3,umontaturo_upbeat,0.9997580647468567,1
61,100,0.23636363636363636,106,0,9,DL_Guitar,6,4,umontaturo_upbeat,0.0819203108549118,0
57,100,0.2590909090909091,163,0,9,DL_Guitar,6,4,umontaturo_upbeat,0.07147655636072159,0
61,100,0.2772727272727273,405,1,9,DL_Guitar,6,4,umontaturo_upbeat,0.08243709057569504,0
57,100,0.11818181818181818,484,0,9,DL_Guitar,6,2,umontaturo_upbeat,0.0889337807893753,0
57,100,0.1409090909090909,515,0,9,DL_Guitar,6,2,umontaturo_upbeat,0.0951046496629715,0
52,100,0.23636363636363636,809,1,9,DL_Guitar,6,4,umontaturo_upbeat,0.08768587559461594,0
52,100,0.2409090909090909,113,1,10,DL_Guitar,6,4,umontaturo_upbeat,0.9997817873954773,1
52,100,0.2409090909090909,299,0,10,DL_Guitar,6,4,umontaturo_upbeat,0.07828479260206223,0
64,100,0.1,400,0,10,DL_Guitar,6,2,umontaturo_upbeat,0.0731344148516655,0
59,100,0.32272727272727275,431,0,10,DL_Guitar,6,5,umontaturo_upbeat,0.0746200829744339,0
52,100,0.1590909090909091,611,0,10,DL_Guitar,6,3,umontaturo_upbeat,0.08858243376016617,0
52,100,0.43636363636363634,656,0,10,DL_Guitar,6,7,umontaturo_upbeat,0.09160672128200531,0
52,100,0.4409090909090909,795,0,10,DL_Guitar,6,7,umontaturo_upbeat,0.08351214230060577,0
52,100,0.11818181818181818,264,1,11,DL_Guitar,6,2,umontaturo_upbeat,0.9936309456825256,0
66,100,0.17727272727272728,185,1,12,DL_Guitar,6,3,umontaturo_upbeat,0.9998382329940796,1
52,100,0.1,572,1,12,DL_Guitar,6,2,umontaturo_upbeat,0.4165319502353668,0
68,100,0.2590909090909091,756,0,12,DL_Guitar,6,4,umontaturo_upbeat,0.41870322823524475,0
54,100,0.2590909090909091,189,1,13,DL_Guitar,6,4,umontaturo_upbeat,0.9996370077133179,1
54,100,0.1,691,1,13,DL_Guitar,6,2,umontaturo_upbeat,0.5517067313194275,0
64,100,0.11818181818181818,457,1,14,DL_Guitar,6,2,umontaturo_upbeat,0.9998496770858765,1
71,100,0.18181818181818182,496,0,14,DL_Guitar,6,3,umontaturo_upbeat,0.19913800060749054,0
72,100,0.16363636363636364,553,0,14,DL_Guitar,6,3,umontaturo_upbeat,0.1948978453874588,0
68,100,0.11818181818181818,625,0,14,DL_Guitar,6,2,umontaturo_upbeat,0.20576216280460358,0
64,100,0.2590909090909091,871,1,14,DL_Guitar,6,4,umontaturo_upbeat,0.19855783879756927,0
54,100,0.1,694,1,15,DL_Guitar,6,2,umontaturo_upbeat,0.9996451139450073,1
55,100,0.1,747,0,15,DL_Guitar,6,2,umontaturo_upbeat,0.543136715888977,0
52,100,0.2,52,1,16,DL_Guitar,6,3,umontaturo_upbeat,0.9998399019241333,1
52,100,0.35909090909090907,100,0,16,DL_Guitar,6,6,umontaturo_upbeat,0.4060843884944916,0
52,100,0.1409090909090909,638,1,16,DL_Guitar,6,2,umontaturo_upbeat,0.42547935247421265,0
52,100,0.2,193,1,17,DL_Guitar,6,3,umontaturo_upbeat,0.9998397827148438,1
52,100,0.2409090909090909,250,0,17,DL_Guitar,6,4,umontaturo_upbeat,0.4114251732826233,0
55,100,0.16363636363636364,443,0,17,DL_Guitar,6,3,umontaturo_upbeat,0.4161529541015625,0
55,100,0.1,492,1,18,DL_Guitar,6,2,umontaturo_upbeat,0.9931640028953552,0
57,100,0.2590909090909091,430,1,19,DL_Guitar,6,4,umontaturo_upbeat,0.999854564666748,1
52,100,0.2636363636363636,488,0,19,DL_Guitar,6,4,umontaturo_upbeat,0.3357895016670227,0
64,100,0.1,677,0,19,DL_Guitar,6,2,umontaturo_upbeat,0.2899185121059418,0
64,100,0.2,704,0,19,DL_Guitar,6,3,umontaturo_upbeat,0.2944360375404358,0
54,100,1.0818181818181818,57,1,20,DL_Guitar,6,15,umontaturo_upbeat,0.9997976422309875,1
54,100,0.17727272727272728,382,1,20,DL_Guitar,6,3,umontaturo_upbeat,0.25444453954696655,0
54,100,0.1409090909090909,426,0,20,DL_Guitar,6,2,umontaturo_upbeat,0.20372667908668518,0
57,100,0.2636363636363636,686,1,20,DL_Guitar,6,4,umontaturo_upbeat,0.20401418209075928,0
57,100,0.18181818181818182,760,0,20,DL_Guitar,6,3,umontaturo_upbeat,0.21094997227191925,0
57,100,0.23636363636363636,106,1,21,DL_Guitar,6,4,umontaturo_upbeat,0.9998325109481812,1
57,100,0.1,179,0,21,DL_Guitar,6,2,umontaturo_upbeat,0.20982128381729126,0
57,100,0.38181818181818183,285,0,21,DL_Guitar,6,6,umontaturo_upbeat,0.18691007792949677,0
61,100,0.21818181818181817,505,0,21,DL_Guitar,6,3,umontaturo_upbeat,0.22076162695884705,0
57,100,0.11818181818181818,590,0,21,DL_Guitar,6,2,umontaturo_upbeat,0.20595434308052063,0
54,100,1.0772727272727274,326,1,22,DL_Guitar,6,15,umontaturo_upbeat,0.9997885823249817,1
54,100,0.2818181818181818,694,1,22,DL_Guitar,6,5,umontaturo_upbeat,0.46340540051460266,0
62,100,0.1409090909090909,791,0,22,DL_Guitar,6,2,umontaturo_upbeat,0.43693599104881287,0
57,100,0.1,206,1,23,DL_Guitar,6,2,umontaturo_upbeat,0.9998393058776855,1
57,100,0.35909090909090907,299,0,23,DL_Guitar,6,6,umontaturo_upbeat,0.1994701772928238,0
57,100,0.1590909090909091,382,0,23,DL_Guitar,6,3,umontaturo_upbeat,0.20176032185554504,0
52,100,0.6,546,0,23,DL_Guitar,6,10,umontaturo_upbeat,0.20071616768836975,0
52,100,0.12272727272727273,717,0,23,DL_Guitar,6,2,umontaturo_upbeat,0.2118261754512787,0
64,100,0.1409090909090909,9,1,24,DL_Guitar,6,2,umontaturo_upbeat,0.9997407793998718,1
54,100,0.4,48,0,24,DL_Guitar,6,6,umontaturo_upbeat,0.05373334512114525,0
54,100,0.2409090909090909,189,0,24,DL_Guitar,6,4,umontaturo_upbeat,0.04842959716916084,0
52,100,0.2590909090909091,308,0,24,DL_Guitar,6,4,umontaturo_upbeat,0.04889053851366043,0
68,100,0.1590909090909091,461,0,24,DL_Guitar,6,3,umontaturo_upbeat,0.052247121930122375,0
54,100,0.1409090909090909,515,0,24,DL_Guitar,6,2,umontaturo_upbeat,0.059917889535427094,0
54,100,0.7772727272727272,567,0,24,DL_Guitar,6,12,umontaturo_upbeat,0.06048073247075081,0
54,100,0.21818181818181817,748,0,24,DL_Guitar,6,3,umontaturo_upbeat,0.06630077213048935,0
54,100,0.11818181818181818,52,1,25,DL_Guitar,6,2,umontaturo_upbeat,0.9998050332069397,1
54,100,0.11818181818181818,131,0,25,DL_Guitar,6,2,umontaturo_upbeat,0.12594980001449585,0
62,100,0.2409090909090909,316,0,25,DL_Guitar,6,4,umontaturo_upbeat,0.11920199543237686,0
62,100,0.2818181818181818,374,0,25,DL_Guitar,6,5,umontaturo_upbeat,0.13226105272769928,0
57,100,0.11818181818181818,677,1,25,DL_Guitar,6,2,umontaturo_upbeat,0.14533798396587372,0
61,100,0.1409090909090909,818,0,25,DL_Guitar,6,2,umontaturo_upbeat,0.13248342275619507,0
57,100,0.5363636363636364,61,1,26,DL_Guitar,6,9,umontaturo_upbeat,0.9998353719711304,1
52,100,0.35909090909090907,409,1,26,DL_Guitar,6,6,umontaturo_upbeat,0.35121673345565796,0
52,100,0.1590909090909091,515,0,26,DL_Guitar,6,3,umontaturo_upbeat,0.29527559876441956,0
52,100,0.5227272727272727,686,0,26,DL_Guitar,6,8,umontaturo_upbeat,0.3008112907409668,0
54,100,0.1409090909090909,57,1,27,DL_Guitar,6,2,umontaturo_upbeat,0.9998486042022705,1
62,100,0.1409090909090909,625,1,27,DL_Guitar,6,2,umontaturo_upbeat,0.34271326661109924,0
62,100,0.12272727272727273,739,0,27,DL_Guitar,6,2,umontaturo_upbeat,0.29474112391471863,0
57,100,0.2590909090909091,814,0,27,DL_Guitar,6,4,umontaturo_upbeat,0.2946253716945648,0
52,100,0.8,52,1,28,DL_Guitar,6,13,umontaturo_upbeat,0.9998133778572083,1
52,100,0.42272727272727273,443,1,28,DL_Guitar,6,7,umontaturo_upbeat,0.44043347239494324,0
52,100,0.5409090909090909,686,1,28,DL_Guitar,6,9,umontaturo_upbeat,0.4237132966518402,0
52,100,0.3,13,1,29,DL_Guitar,6,5,umontaturo_upbeat,0.9998406171798706,1
52,100,0.1590909090909091,83,0,29,DL_Guitar,6,3,umontaturo_upbeat,0.40889793634414673,0
64,100,0.2,119,0,29,DL_Guitar,6,3,umontaturo_upbeat,0.4222284257411957,0
57,100,0.4818181818181818,320,1,30,DL_Guitar,6,8,umontaturo_upbeat,0.9997501969337463,1
57,100,0.38181818181818183,440,0,30,DL_Guitar,6,6,umontaturo_upbeat,0.08375508338212967,0
69,100,0.1409090909090909,694,1,30,DL_Guitar,6,2,umontaturo_upbeat,0.0777229368686676,0
69,100,0.11818181818181818,735,0,30,DL_Guitar,6,2,umontaturo_upbeat,0.08335649967193604,0
57,100,0.1590909090909091,770,0,30,DL_Guitar,6,3,umontaturo_upbeat,0.0910540446639061,0
69,100,0.1,804,0,30,DL_Guitar,6,2,umontaturo_upbeat,0.10068699717521667,0
57,100,0.8409090909090909,866,0,30,DL_Guitar,6,13,umontaturo_upbeat,0.08276558667421341,0
57,100,0.5181818181818182,185,1,31,DL_Guitar,6,8,umontaturo_upbeat,0.9997503161430359,1
57,100,0.5409090909090909,308,0,31,DL_Guitar,6,9,umontaturo_upbeat,0.07678069919347763,0
52,100,0.18181818181818182,453,0,31,DL_Guitar,6,3,umontaturo_upbeat,0.07980729639530182,0
52,100,0.13636363636363635,523,0,31,DL_Guitar,6,2,umontaturo_upbeat,0.08006425946950912,0
59,100,0.35909090909090907,571,0,31,DL_Guitar,6,6,umontaturo_upbeat,0.08341064304113388,0
59,100,0.2590909090909091,700,0,31,DL_Guitar,6,4,umontaturo_upbeat,0.09934662282466888,0
52,100,0.1,822,0,31,DL_Guitar,6,2,umontaturo_upbeat,0.09195646643638611,0
59,100,0.5,188,1,32,DL_Guitar,6,8,umontaturo_upbeat,0.9997928738594055,1
54,100,0.1590909090909091,426,1,32,DL_Guitar,6,3,umontaturo_upbeat,0.1429988294839859,0
54,100,0.2636363636363636,488,0,32,DL_Guitar,6,4,umontaturo_upbeat,0.12318189442157745,0
59,100,0.1,593,0,32,DL_Guitar,6,2,umontaturo_upbeat,0.13404960930347443,0
54,100,0.3409090909090909,691,0,32,DL_Guitar,6,5,umontaturo_upbeat,0.14394205808639526,0
59,100,0.4772727272727273,831,0,32,DL_Guitar,6,8,umontaturo_upbeat,0.12861858308315277,0
57,100,0.2409090909090909,118,1,33,DL_Guitar,6,4,umontaturo_upbeat,0.9998300075531006,1
52,100,0.5181818181818182,308,0,33,DL_Guitar,6,8,umontaturo_upbeat,0.2118111103773117,0
52,100,0.1590909090909091,453,0,33,DL_Guitar,6,3,umontaturo_upbeat,0.20600168406963348,0
52,100,0.2,571,0,33,DL_Guitar,6,3,umontaturo_upbeat,0.20385366678237915,0
69,100,0.12272727272727273,818,1,33,DL_Guitar,6,2,umontaturo_upbeat,0.2010982185602188,0
69,100,0.2,69,1,34,DL_Guitar,6,3,umontaturo_upbeat,0.9997984766960144,1
57,100,0.2,188,0,34,DL_Guitar,6,3,umontaturo_upbeat,0.13297007977962494,0
57,100,0.22272727272727272,254,0,34,DL_Guitar,6,4,umontaturo_upbeat,0.12596431374549866,0
52,100,0.2,480,0,34,DL_Guitar,6,3,umontaturo_upbeat,0.1456398218870163,0
69,100,0.3,616,0,34,DL_Guitar,6,5,umontaturo_upbeat,0.13752754032611847,0
57,100,1.0818181818181818,818,0,34,DL_Guitar,6,15,umontaturo_upbeat,0.12675727903842926,0
57,100,0.5590909090909091,298,1,35,DL_Guitar,6,9,umontaturo_upbeat,0.9998212456703186,1
52,100,0.3,488,0,35,DL_Guitar,6,5,umontaturo_upbeat,0.23022598028182983,0
52,100,0.5772727272727273,558,0,35,DL_Guitar,6,9,umontaturo_upbeat,0.1855347752571106,0
59,100,0.3181818181818182,735,0,35,DL_Guitar,6,5,umontaturo_upbeat,0.2112625241279602,0
52,100,0.1409090909090909,826,0,35,DL_Guitar,6,2,umontaturo_upbeat,0.20844373106956482,0
57,100,0.22272727272727272,4,1,36,DL_Guitar,6,4,umontaturo_upbeat,0.9997143149375916,1
53,100,0.4818181818181818,66,0,36,DL_Guitar,6,8,umontaturo_upbeat,0.05814439430832863,0
53,100,0.5409090909090909,179,0,36,DL_Guitar,6,9,umontaturo_upbeat,0.04677034541964531,0
59,100,0.1590909090909091,325,0,36,DL_Guitar,6,3,umontaturo_upbeat,0.05006144568324089,0
53,100,0.37727272727272726,435,0,36,DL_Guitar,6,6,umontaturo_upbeat,0.05356878787279129,0
54,100,0.42272727272727273,554,0,36,DL_Guitar,6,7,umontaturo_upbeat,0.06145762652158737,0
54,100,0.1409090909090909,813,1,36,DL_Guitar,6,2,umontaturo_upbeat,0.0724085345864296,0
54,100,0.5409090909090909,871,0,36,DL_Guitar,6,9,umontaturo_upbeat,0.060076646506786346,0
54,100,0.5409090909090909,179,1,37,DL_Guitar,6,9,umontaturo_upbeat,0.9997928738594055,1
54,100,0.5,311,0,37,DL_Guitar,6,8,umontaturo_upbeat,0.127799853682518,0
59,100,0.13636363636363635,523,0,37,DL_Guitar,6,2,umontaturo_upbeat,0.12836283445358276,0
59,100,0.1409090909090909,584,0,37,DL_Guitar,6,2,umontaturo_upbeat,0.13975128531455994,0
57,100,0.22272727272727272,628,0,37,DL_Guitar,6,4,umontaturo_upbeat,0.1403188854455948,0
59,100,0.2,708,0,37,DL_Guitar,6,3,umontaturo_upbeat,0.13932546973228455,0
59,100,0.2818181818181818,48,1,38,DL_Guitar,6,5,umontaturo_upbeat,0.9998369216918945,1
59,100,0.2,198,0,38,DL_Guitar,6,3,umontaturo_upbeat,0.21525652706623077,0
57,100,0.1590909090909091,260,0,38,DL_Guitar,6,3,umontaturo_upbeat,0.19066357612609863,0
57,100,0.1590909090909091,571,1,38,DL_Guitar,6,3,umontaturo_upbeat,0.209529846906662,0
69,100,0.3,606,0,38,DL_Guitar,6,5,umontaturo_upbeat,0.2106494903564453,0
62,100,0.2,461,1,39,DL_Guitar,6,3,umontaturo_upbeat,0.9996299743652344,1
57,100,0.5590909090909091,804,1,39,DL_Guitar,6,9,umontaturo_upbeat,0.5377393364906311,0
52,100,0.8772727272727273,75,1,40,DL_Guitar,6,14,umontaturo_upbeat,0.9998229146003723,1
52,100,0.13636363636363635,413,1,40,DL_Guitar,6,2,umontaturo_upbeat,0.23366640508174896,0
52,100,0.17727272727272728,448,0,40,DL_Guitar,6,3,umontaturo_upbeat,0.1970367133617401,0
65,100,0.2772727272727273,603,0,40,DL_Guitar,6,4,umontaturo_upbeat,0.20192517340183258,0
53,100,0.6,681,0,40,DL_Guitar,6,10,umontaturo_upbeat,0.20422151684761047,0
53,100,0.2636363636363636,48,1,41,DL_Guitar,6,4,umontaturo_upbeat,0.9997368454933167,1
59,100,0.18181818181818182,224,0,41,DL_Guitar,6,3,umontaturo_upbeat,0.05596664920449257,0
54,100,0.4772727272727273,316,0,41,DL_Guitar,6,8,umontaturo_upbeat,0.04557229205965996,0
59,100,0.2590909090909091,435,0,41,DL_Guitar,6,4,umontaturo_upbeat,0.049186836928129196,0
54,100,0.3,501,0,41,DL_Guitar,6,5,umontaturo_upbeat,0.052833572030067444,0
54,100,0.2409090909090909,576,0,41,DL_Guitar,6,4,umontaturo_upbeat,0.06078590080142021,0
54,100,0.2772727272727273,678,0,41,DL_Guitar,6,4,umontaturo_upbeat,0.06675773113965988,0
54,100,0.4590909090909091,813,0,41,DL_Guitar,6,7,umontaturo_upbeat,0.06285280734300613,0
59,100,0.2409090909090909,66,1,42,DL_Guitar,6,4,umontaturo_upbeat,0.9997705817222595,1
62,100,0.2,128,0,42,DL_Guitar,6,3,umontaturo_upbeat,0.0800933986902237,0
57,100,0.2,254,0,42,DL_Guitar,6,3,umontaturo_upbeat,0.0719045028090477,0
52,100,0.4818181818181818,321,0,42,DL_Guitar,6,8,umontaturo_upbeat,0.07862182706594467,0
59,100,0.2818181818181818,616,1,42,DL_Guitar,6,5,umontaturo_upbeat,0.08800172805786133,0
52,100,0.16363636363636364,708,0,42,DL_Guitar,6,3,umontaturo_upbeat,0.10211030393838882,0
52,100,0.11818181818181818,831,0,42,DL_Guitar,6,2,umontaturo_upbeat,0.08347943425178528,0
57,100,0.2818181818181818,48,1,43,DL_Guitar,6,5,umontaturo_upbeat,0.9998217225074768,1
69,100,0.3181818181818182,743,1,43,DL_Guitar,6,5,umontaturo_upbeat,0.41141265630722046,0
57,100,0.5181818181818182,813,0,43,DL_Guitar,6,8,umontaturo_upbeat,0.4282133877277374,0
64,100,0.1590909090909091,721,1,44,DL_Guitar,6,3,umontaturo_upbeat,0.9998465776443481,1
64,100,0.35909090909090907,788,0,44,DL_Guitar,6,6,umontaturo_upbeat,0.3917059898376465,0
64,100,0.32272727272727275,871,0,44,DL_Guitar,6,5,umontaturo_upbeat,0.4241849184036255,0
53,100,0.12272727272727273,211,1,45,DL_Guitar,6,2,umontaturo_upbeat,0.9998401403427124,1
65,100,0.18181818181818182,334,0,45,DL_Guitar,6,3,umontaturo_upbeat,0.2136717438697815,0
54,100,0.36363636363636365,686,1,45,DL_Guitar,6,6,umontaturo_upbeat,0.19264541566371918,0
54,100,0.23636363636363636,810,0,45,DL_Guitar,6,4,umontaturo_upbeat,0.208101287484169,0
66,100,0.1409090909090909,866,0,45,DL_Guitar,6,2,umontaturo_upbeat,0.20204392075538635,0
62,100,0.3181818181818182,668,1,46,DL_Guitar,6,5,umontaturo_upbeat,0.9996341466903687,1
52,100,0.2818181818181818,826,0,46,DL_Guitar,6,5,umontaturo_upbeat,0.5535104274749756,0
52,100,0.12272727272727273,13,1,47,DL_Guitar,6,2,umontaturo_upbeat,0.9998615980148315,1
52,100,0.4409090909090909,43,0,47,DL_Guitar,6,7,umontaturo_upbeat,0.31224358081817627,0
52,100,0.5818181818181818,179,0,47,DL_Guitar,6,9,umontaturo_upbeat,0.28874149918556213,0
53,100,1.240909090909091,426,1,47,DL_Guitar,6,15,umontaturo_upbeat,0.29498767852783203,0
54,100,0.42272727272727273,48,1,48,DL_Guitar,6,7,umontaturo_upbeat,0.9998219609260559,1
61,100,0.2,163,0,48,DL_Guitar,6,3,umontaturo_upbeat,0.4189111888408661,0
61,100,0.4818181818181818,440,1,48,DL_Guitar,6,8,umontaturo_upbeat,0.42525994777679443,0
62,100,0.4,34,1,49,DL_Guitar,6,6,umontaturo_upbeat,0.9998281002044678,1
52,100,1.3590909090909091,176,0,49,DL_Guitar,6,15,umontaturo_upbeat,0.19351792335510254,0
52,100,0.2,480,1,49,DL_Guitar,6,3,umontaturo_upbeat,0.24337345361709595,0
52,100,0.1590909090909091,638,0,49,DL_Guitar,6,3,umontaturo_upbeat,0.22100184857845306,0
53,100,1.6363636363636365,678,0,49,DL_Guitar,6,15,umontaturo_upbeat,0.18727053701877594,0
54,100,0.23636363636363636,303,1,50,DL_Guitar,6,4,umontaturo_upbeat,0.9998286962509155,1
61,100,0.2409090909090909,440,0,50,DL_Guitar,6,4,umontaturo_upbeat,0.21249961853027344,0
61,100,0.4818181818181818,571,0,50,DL_Guitar,6,8,umontaturo_upbeat,0.187737375497818,0
61,100,0.3,691,0,50,DL_Guitar,6,5,umontaturo_upbeat,0.2205704152584076,0
57,100,0.13636363636363635,788,0,50,DL_Guitar,6,2,umontaturo_upbeat,0.20995324850082397,0
52,100,0.5,431,1,51,DL_Guitar,6,8,umontaturo_upbeat,0.9998382329940796,1
52,100,0.1,545,0,51,DL_Guitar,6,2,umontaturo_upbeat,0.4150010943412781,0
52,100,0.11818181818181818,691,0,51,DL_Guitar,6,2,umontaturo_upbeat,0.42207932472229004,0
54,100,0.1590909090909091,0,1,52,DL_Guitar,6,3,umontaturo_upbeat,0.9998064637184143,1
54,100,0.1,56,0,52,DL_Guitar,6,2,umontaturo_upbeat,0.13541771471500397,0
61,100,0.7,91,0,52,DL_Guitar,6,11,umontaturo_upbeat,0.11699461191892624,0
54,100,0.3,254,0,52,DL_Guitar,6,5,umontaturo_upbeat,0.15247473120689392,0
54,100,0.1,325,0,52,DL_Guitar,6,2,umontaturo_upbeat,0.15195304155349731,0
61,100,2.640909090909091,426,0,52,DL_Guitar,6,15,umontaturo_upbeat,0.1204836517572403,0
57,100,1.440909090909091,158,1,53,DL_Guitar,6,15,umontaturo_upbeat,0.9994269609451294,1
52,100,2.1,681,1,53,DL_Guitar,6,15,umontaturo_upbeat,0.5622178316116333,0
52,100,0.11818181818181818,303,1,54,DL_Guitar,6,2,umontaturo_upbeat,0.9934820532798767,0
57,100,0.18181818181818182,418,1,55,DL_Guitar,6,3,umontaturo_upbeat,0.9998356103897095,1
57,100,0.1409090909090909,518,0,55,DL_Guitar,6,2,umontaturo_upbeat,0.20866703987121582,0
57,100,0.37727272727272726,558,0,55,DL_Guitar,6,6,umontaturo_upbeat,0.19139567017555237,0
57,100,0.21818181818181817,660,0,55,DL_Guitar,6,3,umontaturo_upbeat,0.21839337050914764,0
57,100,0.38181818181818183,726,0,55,DL_Guitar,6,6,umontaturo_upbeat,0.20289121568202972,0
57,100,0.2409090909090909,625,1,56,DL_Guitar,6,4,umontaturo_upbeat,0.9996201992034912,1
57,100,0.4818181818181818,703,0,56,DL_Guitar,6,8,umontaturo_upbeat,0.5411243438720703,0
57,100,0.22272727272727272,4,1,57,DL_Guitar,6,4,umontaturo_upbeat,0.9997507929801941,1
57,100,0.4,91,0,57,DL_Guitar,6,6,umontaturo_upbeat,0.08037861436605453,0
57,100,0.4818181818181818,330,1,57,DL_Guitar,6,8,umontaturo_upbeat,0.07554987818002701,0
57,100,0.2590909090909091,453,0,57,DL_Guitar,6,4,umontaturo_upbeat,0.0841546580195427,0
69,100,0.1409090909090909,531,0,57,DL_Guitar,6,2,umontaturo_upbeat,0.0947091355919838,0
61,100,0.5,691,0,57,DL_Guitar,6,8,umontaturo_upbeat,0.09744469821453094,0
59,100,0.6,810,0,57,DL_Guitar,6,10,umontaturo_upbeat,0.09184140712022781,0
59,100,0.18181818181818182,153,1,58,DL_Guitar,6,3,umontaturo_upbeat,0.9998564720153809,1
59,100,0.1,215,0,58,DL_Guitar,6,2,umontaturo_upbeat,0.31348487734794617,0
52,100,0.4409090909090909,330,0,58,DL_Guitar,6,7,umontaturo_upbeat,0.29539936780929565,0
52,100,0.11818181818181818,536,0,58,DL_Guitar,6,2,umontaturo_upbeat,0.30680063366889954,0
61,100,0.1409090909090909,48,1,59,DL_Guitar,6,2,umontaturo_upbeat,0.9998351335525513,1
61,100,0.3,110,0,59,DL_Guitar,6,5,umontaturo_upbeat,0.401505708694458,0
57,100,0.1409090909090909,770,1,59,DL_Guitar,6,2,umontaturo_upbeat,0.4269081652164459,0
57,100,0.11818181818181818,330,1,60,DL_Guitar,6,2,umontaturo_upbeat,0.9998296499252319,1
61,100,0.5636363636363636,421,0,60,DL_Guitar,6,9,umontaturo_upbeat,0.39763689041137695,0
61,100,0.3181818181818182,678,1,60,DL_Guitar,6,5,umontaturo_upbeat,0.4326595664024353,0
57,100,0.4636363636363636,444,1,61,DL_Guitar,6,7,umontaturo_upbeat,0.9998118281364441,1
54,100,0.35909090909090907,550,0,61,DL_Guitar,6,6,umontaturo_upbeat,0.4298953115940094,0
57,100,0.13636363636363635,633,0,61,DL_Guitar,6,2,umontaturo_upbeat,0.4297865331172943,0
57,100,0.11818181818181818,316,1,62,DL_Guitar,6,2,umontaturo_upbeat,0.999852180480957,1
57,100,0.1,471,0,62,DL_Guitar,6,2,umontaturo_upbeat,0.31254062056541443,0
57,100,0.18181818181818182,628,0,62,DL_Guitar,6,3,umontaturo_upbeat,0.2944142818450928,0
59,100,0.4590909090909091,810,0,62,DL_Guitar,6,7,umontaturo_upbeat,0.3055243194103241,0
61,100,0.13636363636363635,171,1,63,DL_Guitar,6,2,umontaturo_upbeat,0.9997301697731018,1
59,100,0.35909090909090907,316,0,63,DL_Guitar,6,6,umontaturo_upbeat,0.05445948988199234,0
57,100,0.2409090909090909,431,0,63,DL_Guitar,6,4,umontaturo_upbeat,0.04843989387154579,0
54,100,0.1,691,1,63,DL_Guitar,6,2,umontaturo_upbeat,0.0485648550093174,0
54,100,0.17727272727272728,721,0,63,DL_Guitar,6,3,umontaturo_upbeat,0.052878450602293015,0
57,100,0.12272727272727273,774,0,63,DL_Guitar,6,2,umontaturo_upbeat,0.05804114788770676,0
54,100,0.11818181818181818,813,0,63,DL_Guitar,6,2,umontaturo_upbeat,0.06846048682928085,0
54,100,0.12272727272727273,848,0,63,DL_Guitar,6,2,umontaturo_upbeat,0.05999329313635826,0
57,100,0.1590909090909091,0,1,64,DL_Guitar,6,3,umontaturo_upbeat,0.9998167157173157,1
57,100,0.7181818181818181,550,1,64,DL_Guitar,6,11,umontaturo_upbeat,0.4034218490123749,0
57,100,0.4,849,1,64,DL_Guitar,6,6,umontaturo_upbeat,0.43470898270606995,0
57,100,0.2409090909090909,66,1,65,DL_Guitar,6,4,umontaturo_upbeat,0.9998252987861633,1
59,100,0.8363636363636363,172,0,65,DL_Guitar,6,13,umontaturo_upbeat,0.3869090676307678,0
61,100,0.2409090909090909,404,1,65,DL_Guitar,6,4,umontaturo_upbeat,0.444551557302475,0
59,100,0.8590909090909091,426,1,66,DL_Guitar,6,14,umontaturo_upbeat,0.9998096823692322,1
69,100,0.1,796,1,66,DL_Guitar,6,2,umontaturo_upbeat,0.4440137445926666,0
62,100,0.12272727272727273,849,0,66,DL_Guitar,6,2,umontaturo_upbeat,0.4272758662700653,0
62,100,0.1590909090909091,0,1,67,DL_Guitar,6,3,umontaturo_upbeat,0.9997074007987976,1
64,100,0.5181818181818182,40,0,67,DL_Guitar,6,8,umontaturo_upbeat,0.041256893426179886,0
64,100,0.3409090909090909,176,0,67,DL_Guitar,6,5,umontaturo_upbeat,0.03421389311552048,0
52,100,0.37727272727272726,436,1,67,DL_Guitar,6,6,umontaturo_upbeat,0.030409913510084152,0
52,100,0.17727272727272728,546,0,67,DL_Guitar,6,3,umontaturo_upbeat,0.03092329390347004,0
52,100,0.1590909090909091,603,0,67,DL_Guitar,6,3,umontaturo_upbeat,0.03381979838013649,0
52,100,0.13636363636363635,656,0,67,DL_Guitar,6,2,umontaturo_upbeat,0.04073597490787506,0
52,100,0.3409090909090909,690,0,67,DL_Guitar,6,5,umontaturo_upbeat,0.04615432396531105,0
52,100,0.38181818181818183,849,0,67,DL_Guitar,6,6,umontaturo_upbeat,0.0452706515789032,0
52,100,0.2,233,1,68,DL_Guitar,6,3,umontaturo_upbeat,0.9998378753662109,1
52,100,0.37727272727272726,294,0,68,DL_Guitar,6,6,umontaturo_upbeat,0.4055527150630951,0
59,100,0.13636363636363635,457,0,68,DL_Guitar,6,2,umontaturo_upbeat,0.42098307609558105,0
57,100,0.4,189,1,69,DL_Guitar,6,6,umontaturo_upbeat,0.9998243451118469,1
52,100,0.2,686,1,69,DL_Guitar,6,3,umontaturo_upbeat,0.43549928069114685,0
52,100,0.1590909090909091,832,0,69,DL_Guitar,6,3,umontaturo_upbeat,0.4227783679962158,0
52,100,0.2590909090909091,56,1,70,DL_Guitar,6,4,umontaturo_upbeat,0.9998111128807068,1
59,100,0.1409090909090909,140,0,70,DL_Guitar,6,2,umontaturo_upbeat,0.11845757067203522,0
53,100,0.5818181818181818,307,0,70,DL_Guitar,6,9,umontaturo_upbeat,0.11137489974498749,0
53,100,0.1590909090909091,453,0,70,DL_Guitar,6,3,umontaturo_upbeat,0.1435191035270691,0
53,100,0.1409090909090909,642,0,70,DL_Guitar,6,2,umontaturo_upbeat,0.14546674489974976,0
56,100,0.11818181818181818,734,0,70,DL_Guitar,6,2,umontaturo_upbeat,0.1327601820230484,0
61,100,0.11818181818181818,153,1,71,DL_Guitar,6,2,umontaturo_upbeat,0.9998378753662109,1
57,100,0.1590909090909091,673,1,71,DL_Guitar,6,3,umontaturo_upbeat,0.40238845348358154,0
57,100,0.2,823,0,71,DL_Guitar,6,3,umontaturo_upbeat,0.4236893355846405,0
57,100,0.1590909090909091,9,1,72,DL_Guitar,6,3,umontaturo_upbeat,0.9998388290405273,1
59,100,1.059090909090909,193,0,72,DL_Guitar,6,15,umontaturo_upbeat,0.29019084572792053,0
69,100,0.21818181818181817,502,1,72,DL_Guitar,6,3,umontaturo_upbeat,0.3254443109035492,0
57,100,0.33636363636363636,743,1,72,DL_Guitar,6,5,umontaturo_upbeat,0.3168945610523224,0
61,100,0.11818181818181818,514,1,73,DL_Guitar,6,2,umontaturo_upbeat,0.9998291730880737,1
61,100,0.42272727272727273,585,0,73,DL_Guitar,6,7,umontaturo_upbeat,0.4002556800842285,0
57,100,0.3409090909090909,870,1,73,DL_Guitar,6,5,umontaturo_upbeat,0.42823106050491333,0
57,100,0.21818181818181817,132,1,74,DL_Guitar,6,3,umontaturo_upbeat,0.9998013377189636,1
57,100,0.2772727272727273,237,0,74,DL_Guitar,6,4,umontaturo_upbeat,0.12597092986106873,0
52,100,0.2590909090909091,559,1,74,DL_Guitar,6,4,umontaturo_upbeat,0.12241362035274506,0
52,100,0.18181818181818182,619,0,74,DL_Guitar,6,3,umontaturo_upbeat,0.1375436782836914,0
64,100,0.18181818181818182,682,0,74,DL_Guitar,6,3,umontaturo_upbeat,0.14254775643348694,0
59,100,0.2818181818181818,726,0,74,DL_Guitar,6,5,umontaturo_upbeat,0.1247200071811676,0
61,100,0.1,17,1,75,DL_Guitar,6,2,umontaturo_upbeat,0.999832272529602,1
53,100,1.1409090909090909,47,0,75,DL_Guitar,6,15,umontaturo_upbeat,0.17410576343536377,0
61,100,0.6409090909090909,316,1,75,DL_Guitar,6,10,umontaturo_upbeat,0.21409624814987183,0
61,100,0.12272727272727273,606,1,75,DL_Guitar,6,2,umontaturo_upbeat,0.2289920449256897,0
61,100,0.3,739,0,75,DL_Guitar,6,5,umontaturo_upbeat,0.21082617342472076,0
59,100,0.17727272727272728,9,1,76,DL_Guitar,6,3,umontaturo_upbeat,0.9998373985290527,1
52,100,0.18181818181818182,550,1,76,DL_Guitar,6,3,umontaturo_upbeat,0.2178601622581482,0
52,100,0.1409090909090909,739,0,76,DL_Guitar,6,2,umontaturo_upbeat,0.19453121721744537,0
52,100,0.16363636363636364,773,0,76,DL_Guitar,6,3,umontaturo_upbeat,0.19863662123680115,0
59,100,0.21818181818181817,813,0,76,DL_Guitar,6,3,umontaturo_upbeat,0.1948307901620865,0
59,100,0.3,176,1,77,DL_Guitar,6,5,umontaturo_upbeat,0.9998251795768738,1
59,100,0.5590909090909091,307,0,77,DL_Guitar,6,9,umontaturo_upbeat,0.1995994597673416,0
64,100,0.18181818181818182,440,0,77,DL_Guitar,6,3,umontaturo_upbeat,0.22071035206317902,0
59,100,0.17727272727272728,502,0,77,DL_Guitar,6,3,umontaturo_upbeat,0.20669974386692047,0
59,100,0.4409090909090909,559,0,77,DL_Guitar,6,7,umontaturo_upbeat,0.2043507844209671,0
57,100,0.3,289,1,78,DL_Guitar,6,5,umontaturo_upbeat,0.9928298592567444,0
65,100,0.1409090909090909,449,1,79,DL_Guitar,6,2,umontaturo_upbeat,0.9998112320899963,1
65,100,0.18181818181818182,550,0,79,DL_Guitar,6,3,umontaturo_upbeat,0.12678030133247375,0
65,100,0.2,597,0,79,DL_Guitar,6,3,umontaturo_upbeat,0.11796557903289795,0
65,100,0.6636363636363637,663,0,79,DL_Guitar,6,11,umontaturo_upbeat,0.12846426665782928,0
65,100,0.1409090909090909,813,0,79,DL_Guitar,6,2,umontaturo_upbeat,0.15336425602436066,0
65,100,0.5227272727272727,849,0,79,DL_Guitar,6,8,umontaturo_upbeat,0.12379702180624008,0
59,100,0.2,246,1,80,DL_Guitar,6,3,umontaturo_upbeat,0.9998549222946167,1
59,100,0.17727272727272728,294,0,80,DL_Guitar,6,3,umontaturo_upbeat,0.32314532995224,0
59,100,0.2,496,0,80,DL_Guitar,6,3,umontaturo_upbeat,0.28991955518722534,0
52,100,0.2772727272727273,722,0,80,DL_Guitar,6,4,umontaturo_upbeat,0.30965515971183777,0
52,100,0.6227272727272727,47,1,81,DL_Guitar,6,10,umontaturo_upbeat,0.9995505213737488,1
61,100,1.7818181818181817,263,0,81,DL_Guitar,6,15,umontaturo_upbeat,0.5296853184700012,0
57,100,0.2590909090909091,127,1,82,DL_Guitar,6,4,umontaturo_upbeat,0.9998371601104736,1
57,100,0.2409090909090909,263,0,82,DL_Guitar,6,4,umontaturo_upbeat,0.3374786972999573,0
57,100,0.1,320,0,82,DL_Guitar,6,2,umontaturo_upbeat,0.30159661173820496,0
57,100,0.759090909090909,440,0,82,DL_Guitar,6,12,umontaturo_upbeat,0.2985606789588928,0
57,100,0.12272727272727273,13,1,83,DL_Guitar,6,2,umontaturo_upbeat,0.9998308420181274,1
57,100,0.2,303,1,83,DL_Guitar,6,3,umontaturo_upbeat,0.39959967136383057,0
52,100,0.1,857,1,83,DL_Guitar,6,2,umontaturo_upbeat,0.43649718165397644,0
61,100,0.3,197,1,84,DL_Guitar,6,5,umontaturo_upbeat,0.9998427629470825,1
61,100,1.0,347,0,84,DL_Guitar,6,15,umontaturo_upbeat,0.29180094599723816,0
61,100,0.5227272727272727,707,1,84,DL_Guitar,6,8,umontaturo_upbeat,0.31643229722976685,0
61,100,0.38181818181818183,836,0,84,DL_Guitar,6,6,umontaturo_upbeat,0.3213009536266327,0
52,100,0.4818181818181818,166,1,85,DL_Guitar,6,8,umontaturo_upbeat,0.999800980091095,1
52,100,0.6,286,0,85,DL_Guitar,6,10,umontaturo_upbeat,0.1268392652273178,0
52,100,0.3,422,0,85,DL_Guitar,6,5,umontaturo_upbeat,0.1243526041507721,0
52,100,0.35909090909090907,603,0,85,DL_Guitar,6,6,umontaturo_upbeat,0.13458330929279327,0
59,100,0.32272727272727275,729,0,85,DL_Guitar,6,5,umontaturo_upbeat,0.1416262984275818,0
59,100,0.18181818181818182,817,0,85,DL_Guitar,6,3,umontaturo_upbeat,0.13238964974880219,0
64,100,0.2409090909090909,113,1,86,DL_Guitar,6,4,umontaturo_upbeat,0.9998142123222351,1
59,100,0.42272727272727273,202,0,86,DL_Guitar,6,7,umontaturo_upbeat,0.11914826929569244,0
57,100,0.1409090909090909,493,1,86,DL_Guitar,6,2,umontaturo_upbeat,0.1294807642698288,0
57,100,0.35909090909090907,527,0,86,DL_Guitar,6,6,umontaturo_upbeat,0.13186050951480865,0
57,100,0.2772727272727273,624,0,86,DL_Guitar,6,4,umontaturo_upbeat,0.15440183877944946,0
57,100,1.1590909090909092,813,0,86,DL_Guitar,6,15,umontaturo_upbeat,0.13243946433067322,0
57,100,0.2409090909090909,250,1,87,DL_Guitar,6,4,umontaturo_upbeat,0.9930496215820312,0
59,100,0.1409090909090909,506,1,90,DL_Guitar,6,2,umontaturo_upbeat,0.9998338222503662,1
59,100,0.1,646,0,90,DL_Guitar,6,2,umontaturo_upbeat,0.40793436765670776,0
59,100,0.4590909090909091,823,0,90,DL_Guitar,6,7,umontaturo_upbeat,0.41996270418167114,0
59,100,0.5,79,1,91,DL_Guitar,6,8,umontaturo_upbeat,0.999823272228241,1
52,100,0.17727272727272728,316,1,91,DL_Guitar,6,3,umontaturo_upbeat,0.43485790491104126,0
52,100,0.4,817,1,91,DL_Guitar,6,6,umontaturo_upbeat,0.42179495096206665,0
57,100,0.22272727272727272,100,1,92,DL_Guitar,6,4,umontaturo_upbeat,0.9997652173042297,1
66,100,0.18181818181818182,197,0,92,DL_Guitar,6,3,umontaturo_upbeat,0.08188475668430328,0
55,100,0.11818181818181818,426,0,92,DL_Guitar,6,2,umontaturo_upbeat,0.07472951710224152,0
55,100,0.11818181818181818,480,0,92,DL_Guitar,6,2,umontaturo_upbeat,0.07904917001724243,0
56,100,0.1409090909090909,506,0,92,DL_Guitar,6,2,umontaturo_upbeat,0.09009578824043274,0
52,100,0.4,572,0,92,DL_Guitar,6,6,umontaturo_upbeat,0.09334412962198257,0
59,100,0.32272727272727275,707,0,92,DL_Guitar,6,5,umontaturo_upbeat,0.08322232961654663,0
64,100,0.16363636363636364,3,1,93,DL_Guitar,6,3,umontaturo_upbeat,0.9998431205749512,1
59,100,0.11818181818181818,150,0,93,DL_Guitar,6,2,umontaturo_upbeat,0.20033319294452667,0
65,100,0.4590909090909091,320,0,93,DL_Guitar,6,7,umontaturo_upbeat,0.1899864673614502,0
65,100,0.2772727272727273,426,0,93,DL_Guitar,6,4,umontaturo_upbeat,0.21501420438289642,0
57,100,0.5181818181818182,844,1,93,DL_Guitar,6,8,umontaturo_upbeat,0.1944589614868164,0
59,100,0.3181818181818182,813,1,94,DL_Guitar,6,5,umontaturo_upbeat,0.9932971596717834,0
59,100,0.32272727272727275,92,1,95,DL_Guitar,6,5,umontaturo_upbeat,0.9996163845062256,1
59,100,0.1409090909090909,223,0,95,DL_Guitar,6,2,umontaturo_upbeat,0.5561642646789551,0
54,100,0.1590909090909091,53,1,96,DL_Guitar,6,3,umontaturo_upbeat,0.999606192111969,1
57,100,0.6181818181818182,734,1,96,DL_Guitar,6,10,umontaturo_upbeat,0.5415828227996826,0
57,100,0.21818181818181817,0,1,97,DL_Guitar,6,3,umontaturo_upbeat,0.9998443126678467,1
59,100,0.4818181818181818,189,0,97,DL_Guitar,6,8,umontaturo_upbeat,0.3275149464607239,0
64,100,0.11818181818181818,493,1,97,DL_Guitar,6,2,umontaturo_upbeat,0.3176456093788147,0
57,100,0.8409090909090909,823,1,97,DL_Guitar,6,13,umontaturo_upbeat,0.2891322374343872,0
57,100,0.12272727272727273,157,1,98,DL_Guitar,6,2,umontaturo_upbeat,0.993175208568573,0
57,100,0.2409090909090909,443,1,100,DL_Guitar,6,4,umontaturo_upbeat,0.999848484992981,1
57,100,0.2409090909090909,563,0,100,DL_Guitar,6,4,umontaturo_upbeat,0.30453214049339294,0
57,100,0.2,633,0,100,DL_Guitar,6,3,umontaturo_upbeat,0.30147844552993774,0
59,100,0.5590909090909091,810,0,100,DL_Guitar,6,9,umontaturo_upbeat,0.30114349722862244,0
59,100,0.11818181818181818,83,1,101,DL_Guitar,6,2,umontaturo_upbeat,0.9997979998588562,1
59,100,0.4,153,0,101,DL_Guitar,6,6,umontaturo_upbeat,0.12414807826280594,0
59,100,0.2,260,0,101,DL_Guitar,6,3,umontaturo_upbeat,0.12061017006635666,0
59,100,0.5227272727272727,430,0,101,DL_Guitar,6,8,umontaturo_upbeat,0.13633443415164948,0
53,100,0.3,677,1,101,DL_Guitar,6,5,umontaturo_upbeat,0.15168291330337524,0
59,100,0.2,756,0,101,DL_Guitar,6,3,umontaturo_upbeat,0.1387503743171692,0
57,100,0.4772727272727273,193,1,102,DL_Guitar,6,8,umontaturo_upbeat,0.9998356103897095,1
57,100,0.18181818181818182,597,1,102,DL_Guitar,6,3,umontaturo_upbeat,0.340047150850296,0
57,100,0.4636363636363636,707,0,102,DL_Guitar,6,7,umontaturo_upbeat,0.2891765236854553,0
57,100,0.1,839,0,102,DL_Guitar,6,2,umontaturo_upbeat,0.3201853036880493,0
57,100,0.12272727272727273,35,1,103,DL_Guitar,6,2,umontaturo_upbeat,0.9998512268066406,1
59,100,0.5181818181818182,184,0,103,DL_Guitar,6,8,umontaturo_upbeat,0.3046678602695465,0
59,100,0.7227272727272728,312,0,103,DL_Guitar,6,12,umontaturo_upbeat,0.2878299057483673,0
52,100,0.13636363636363635,502,0,103,DL_Guitar,6,2,umontaturo_upbeat,0.32937315106391907,0
57,100,0.1,282,1,104,DL_Guitar,6,2,umontaturo_upbeat,0.9996992349624634,1
57,100,0.18181818181818182,466,0,104,DL_Guitar,6,3,umontaturo_upbeat,0.044207070022821426,0
57,100,0.1,514,0,104,DL_Guitar,6,2,umontaturo_upbeat,0.03268038481473923,0
57,100,0.2590909090909091,540,0,104,DL_Guitar,6,4,umontaturo_upbeat,0.029808638617396355,0
57,100,0.11818181818181818,616,0,104,DL_Guitar,6,2,umontaturo_upbeat,0.030344689264893532,0
57,100,0.2409090909090909,682,0,104,DL_Guitar,6,4,umontaturo_upbeat,0.034337449818849564,0
57,100,0.1,743,0,104,DL_Guitar,6,2,umontaturo_upbeat,0.04079343378543854,0
57,100,0.1590909090909091,770,0,104,DL_Guitar,6,3,umontaturo_upbeat,0.047011230140924454,0
57,100,0.1,813,0,104,DL_Guitar,6,2,umontaturo_upbeat,0.047356996685266495,0
57,100,0.11818181818181818,9,1,105,DL_Guitar,6,2,umontaturo_upbeat,0.9931146502494812,1
61,100,0.41818181818181815,39,1,15,DL_deepemotion_Guitar,6,7,omokagedeepemotionruriko,0.9928314685821533,0
54,100,0.2,712,1,17,DL_deepemotion_Guitar,6,3,omokagedeepemotionruriko,0.9996190071105957,1
56,100,0.7,801,0,17,DL_deepemotion_Guitar,6,11,omokagedeepemotionruriko,0.5348168611526489,0
56,100,0.2,83,1,18,DL_deepemotion_Guitar,6,3,omokagedeepemotionruriko,0.9930617213249207,0
54,100,0.4818181818181818,34,1,20,DL_deepemotion_Guitar,6,8,omokagedeepemotionruriko,0.9996017813682556,1
54,100,0.22272727272727272,179,0,20,DL_deepemotion_Guitar,6,4,omokagedeepemotionruriko,0.5583922266960144,0
54,100,0.32272727272727275,409,1,21,DL_deepemotion_Guitar,6,5,omokagedeepemotionruriko,0.9931892156600952,0
54,100,0.11818181818181818,326,1,22,DL_deepemotion_Guitar,6,2,omokagedeepemotionruriko,0.9932733774185181,0
63,100,0.2818181818181818,189,1,23,DL_deepemotion_Guitar,6,5,omokagedeepemotionruriko,0.9996218681335449,1
61,100,0.1409090909090909,866,1,23,DL_deepemotion_Guitar,6,2,omokagedeepemotionruriko,0.5548323392868042,0
54,100,0.11818181818181818,326,1,24,DL_deepemotion_Guitar,6,2,omokagedeepemotionruriko,0.9932733774185181,0
59,100,0.740909090909091,65,1,25,DL_deepemotion_Guitar,6,12,omokagedeepemotionruriko,0.9998360872268677,1
59,100,0.11818181818181818,295,0,25,DL_deepemotion_Guitar,6,2,omokagedeepemotionruriko,0.35250532627105713,0
56,100,0.11818181818181818,656,1,25,DL_deepemotion_Guitar,6,2,omokagedeepemotionruriko,0.30142664909362793,0
56,100,0.2818181818181818,818,0,25,DL_deepemotion_Guitar,6,5,omokagedeepemotionruriko,0.3046104907989502,0
56,100,0.37727272727272726,61,1,26,DL_deepemotion_Guitar,6,6,omokagedeepemotionruriko,0.9996107220649719,1
56,100,0.2409090909090909,223,0,26,DL_deepemotion_Guitar,6,4,omokagedeepemotionruriko,0.5573743581771851,0
62,100,0.18181818181818182,202,1,27,DL_deepemotion_Guitar,6,3,omokagedeepemotionruriko,0.9931954145431519,1
63,100,0.23636363636363636,810,1,28,DL_deepemotion_Guitar,6,4,omokagedeepemotionruriko,0.9930776357650757,0
52,100,0.11818181818181818,382,1,29,DL_deepemotion_Guitar,6,2,omokagedeepemotionruriko,0.9998650550842285,1
54,100,0.12272727272727273,422,0,29,DL_deepemotion_Guitar,6,2,omokagedeepemotionruriko,0.309565007686615,0
66,100,0.12272727272727273,453,0,29,DL_deepemotion_Guitar,6,2,omokagedeepemotionruriko,0.2918950319290161,0
54,100,0.2,567,0,29,DL_deepemotion_Guitar,6,3,omokagedeepemotionruriko,0.2997775971889496,0
54,100,0.759090909090909,189,1,0,DL_EnglishEdition_Remastered_Guitar,6,12,umon_EnglishEdition,0.999817430973053,1
54,100,0.2,374,0,0,DL_EnglishEdition_Remastered_Guitar,6,3,umon_EnglishEdition,0.22676953673362732,0
54,100,0.22272727272727272,466,0,0,DL_EnglishEdition_Remastered_Guitar,6,4,umon_EnglishEdition,0.20490112900733948,0
59,100,0.12272727272727273,673,0,0,DL_EnglishEdition_Remastered_Guitar,6,2,umon_EnglishEdition,0.208126038312912,0
61,100,0.3,770,0,0,DL_EnglishEdition_Remastered_Guitar,6,5,umon_EnglishEdition,0.20370516180992126,0
61,100,0.3,18,1,1,DL_EnglishEdition_Remastered_Guitar,6,5,umon_EnglishEdition,0.9998326301574707,1
59,100,0.1590909090909091,238,0,1,DL_EnglishEdition_Remastered_Guitar,6,3,umon_EnglishEdition,0.21477772295475006,0
66,100,0.12272727272727273,444,0,1,DL_EnglishEdition_Remastered_Guitar,6,2,umon_EnglishEdition,0.19734998047351837,0
66,100,0.38181818181818183,475,0,1,DL_EnglishEdition_Remastered_Guitar,6,6,umon_EnglishEdition,0.20524191856384277,0
59,100,0.4409090909090909,625,0,1,DL_EnglishEdition_Remastered_Guitar,6,7,umon_EnglishEdition,0.20267663896083832,0
52,100,0.41818181818181815,140,1,2,DL_EnglishEdition_Remastered_Guitar,6,7,umon_EnglishEdition,0.999828577041626,1
52,100,0.35909090909090907,364,0,2,DL_EnglishEdition_Remastered_Guitar,6,6,umon_EnglishEdition,0.4194011986255646,0
54,100,0.6181818181818182,770,1,2,DL_EnglishEdition_Remastered_Guitar,6,10,umon_EnglishEdition,0.413231760263443,0
59,100,0.2636363636363636,26,1,3,DL_EnglishEdition_Remastered_Guitar,6,4,umon_EnglishEdition,0.9998317956924438,1
61,100,0.12272727272727273,210,0,3,DL_EnglishEdition_Remastered_Guitar,6,2,umon_EnglishEdition,0.22227638959884644,0
61,100,0.5227272727272727,246,0,3,DL_EnglishEdition_Remastered_Guitar,6,8,umon_EnglishEdition,0.18908686935901642,0
61,100,0.17727272727272728,458,0,3,DL_EnglishEdition_Remastered_Guitar,6,3,umon_EnglishEdition,0.21789135038852692,0
59,100,1.2,681,0,3,DL_EnglishEdition_Remastered_Guitar,6,15,umon_EnglishEdition,0.2000463902950287,0
59,100,0.8,87,1,4,DL_EnglishEdition_Remastered_Guitar,6,13,umon_EnglishEdition,0.9998303651809692,1
59,100,0.22272727272727272,276,0,4,DL_EnglishEdition_Remastered_Guitar,6,4,umon_EnglishEdition,0.3519109785556793,0
52,100,0.16363636363636364,795,1,4,DL_EnglishEdition_Remastered_Guitar,6,3,umon_EnglishEdition,0.30889105796813965,0
54,100,0.22272727272727272,849,0,4,DL_EnglishEdition_Remastered_Guitar,6,4,umon_EnglishEdition,0.3009917736053467,0
54,100,0.5,232,1,5,DL_EnglishEdition_Remastered_Guitar,6,8,umon_EnglishEdition,0.9998332262039185,1
54,100,0.21818181818181817,370,0,5,DL_EnglishEdition_Remastered_Guitar,6,3,umon_EnglishEdition,0.21196934580802917,0
61,100,0.12272727272727273,541,0,5,DL_EnglishEdition_Remastered_Guitar,6,2,umon_EnglishEdition,0.19646091759204865,0
54,100,0.11818181818181818,581,0,5,DL_EnglishEdition_Remastered_Guitar,6,2,umon_EnglishEdition,0.20843540132045746,0
66,100,0.2,672,0,5,DL_EnglishEdition_Remastered_Guitar,6,3,umon_EnglishEdition,0.20494021475315094,0
59,100,0.11818181818181818,18,1,6,DL_EnglishEdition_Remastered_Guitar,6,2,umon_EnglishEdition,0.9998373985290527,1
59,100,0.13636363636363635,61,0,6,DL_EnglishEdition_Remastered_Guitar,6,2,umon_EnglishEdition,0.2050790935754776,0
52,100,0.3409090909090909,163,0,6,DL_EnglishEdition_Remastered_Guitar,6,5,umon_EnglishEdition,0.19764889776706696,0
59,100,0.3,409,1,6,DL_EnglishEdition_Remastered_Guitar,6,5,umon_EnglishEdition,0.20499545335769653,0
61,100,0.2409090909090909,792,1,6,DL_EnglishEdition_Remastered_Guitar,6,4,umon_EnglishEdition,0.20515534281730652,0
59,100,0.18181818181818182,289,1,7,DL_EnglishEdition_Remastered_Guitar,6,3,umon_EnglishEdition,0.9998354911804199,1
59,100,0.1409090909090909,360,0,7,DL_EnglishEdition_Remastered_Guitar,6,2,umon_EnglishEdition,0.21134589612483978,0
54,100,0.1590909090909091,572,0,7,DL_EnglishEdition_Remastered_Guitar,6,3,umon_EnglishEdition,0.19911153614521027,0
59,100,0.11818181818181818,734,0,7,DL_EnglishEdition_Remastered_Guitar,6,2,umon_EnglishEdition,0.20955781638622284,0
59,100,0.1590909090909091,778,0,7,DL_EnglishEdition_Remastered_Guitar,6,3,umon_EnglishEdition,0.20090268552303314,0
54,100,0.2409090909090909,3,1,8,DL_EnglishEdition_Remastered_Guitar,6,4,umon_EnglishEdition,0.9997982382774353,1
54,100,0.7,206,0,8,DL_EnglishEdition_Remastered_Guitar,6,11,umon_EnglishEdition,0.1181582510471344,0
66,100,0.2409090909090909,378,0,8,DL_EnglishEdition_Remastered_Guitar,6,4,umon_EnglishEdition,0.1263398677110672,0
59,100,0.3409090909090909,453,0,8,DL_EnglishEdition_Remastered_Guitar,6,5,umon_EnglishEdition,0.13261476159095764,0
59,100,0.11818181818181818,589,0,8,DL_EnglishEdition_Remastered_Guitar,6,2,umon_EnglishEdition,0.14648212492465973,0
59,100,0.1,682,0,8,DL_EnglishEdition_Remastered_Guitar,6,2,umon_EnglishEdition,0.1390596181154251,0
52,100,0.5,245,1,9,DL_EnglishEdition_Remastered_Guitar,6,8,umon_EnglishEdition,0.9998365640640259,1
54,100,0.11818181818181818,374,0,9,DL_EnglishEdition_Remastered_Guitar,6,2,umon_EnglishEdition,0.2093399614095688,0
52,100,0.1590909090909091,519,0,9,DL_EnglishEdition_Remastered_Guitar,6,3,umon_EnglishEdition,0.20258723199367523,0
57,100,0.1,620,0,9,DL_EnglishEdition_Remastered_Guitar,6,2,umon_EnglishEdition,0.20363028347492218,0
57,100,0.5590909090909091,677,0,9,DL_EnglishEdition_Remastered_Guitar,6,9,umon_EnglishEdition,0.1973147690296173,0
61,100,0.18181818181818182,268,1,10,DL_EnglishEdition_Remastered_Guitar,6,3,umon_EnglishEdition,0.9998373985290527,1
59,100,0.1590909090909091,395,0,10,DL_EnglishEdition_Remastered_Guitar,6,3,umon_EnglishEdition,0.21087418496608734,0
59,100,0.1590909090909091,457,0,10,DL_EnglishEdition_Remastered_Guitar,6,3,umon_EnglishEdition,0.19576896727085114,0
59,100,0.38181818181818183,532,0,10,DL_EnglishEdition_Remastered_Guitar,6,6,umon_EnglishEdition,0.1977226734161377,0
59,100,0.5409090909090909,795,1,10,DL_EnglishEdition_Remastered_Guitar,6,9,umon_EnglishEdition,0.20586176216602325,0
59,100,0.2409090909090909,110,1,11,DL_EnglishEdition_Remastered_Guitar,6,4,umon_EnglishEdition,0.9998507499694824,1
52,100,0.2590909090909091,364,1,11,DL_EnglishEdition_Remastered_Guitar,6,4,umon_EnglishEdition,0.3367845416069031,0
54,100,0.1590909090909091,436,0,11,DL_EnglishEdition_Remastered_Guitar,6,3,umon_EnglishEdition,0.28827887773513794,0
59,100,0.4,470,0,11,DL_EnglishEdition_Remastered_Guitar,6,6,umon_EnglishEdition,0.3004157245159149,0
52,100,0.6409090909090909,87,1,12,DL_EnglishEdition_Remastered_Guitar,6,10,umon_EnglishEdition,0.9997543692588806,1
59,100,0.1,242,0,12,DL_EnglishEdition_Remastered_Guitar,6,2,umon_EnglishEdition,0.08433448523283005,0
59,100,0.2636363636363636,268,0,12,DL_EnglishEdition_Remastered_Guitar,6,4,umon_EnglishEdition,0.07476486265659332,0
59,100,0.37727272727272726,347,0,12,DL_EnglishEdition_Remastered_Guitar,6,6,umon_EnglishEdition,0.08141595870256424,0
64,100,0.1,620,1,12,DL_EnglishEdition_Remastered_Guitar,6,2,umon_EnglishEdition,0.10013484954833984,0
59,100,0.41818181818181815,656,0,12,DL_EnglishEdition_Remastered_Guitar,6,7,umon_EnglishEdition,0.09425192326307297,0
59,100,0.8772727272727273,866,0,12,DL_EnglishEdition_Remastered_Guitar,6,14,umon_EnglishEdition,0.08540766686201096,0
54,100,0.11818181818181818,194,1,13,DL_EnglishEdition_Remastered_Guitar,6,2,umon_EnglishEdition,0.9996486902236938,1
54,100,0.2772727272727273,250,0,13,DL_EnglishEdition_Remastered_Guitar,6,4,umon_EnglishEdition,0.5445175766944885,0
59,100,0.5409090909090909,496,1,14,DL_EnglishEdition_Remastered_Guitar,6,9,umon_EnglishEdition,0.9998176693916321,1
59,100,0.41818181818181815,660,0,14,DL_EnglishEdition_Remastered_Guitar,6,7,umon_EnglishEdition,0.4202360212802887,0
59,100,0.1409090909090909,756,0,14,DL_EnglishEdition_Remastered_Guitar,6,2,umon_EnglishEdition,0.43758949637413025,0
54,100,0.8409090909090909,113,1,15,DL_EnglishEdition_Remastered_Guitar,6,13,umon_EnglishEdition,0.9998164772987366,1
54,100,0.22272727272727272,333,0,15,DL_EnglishEdition_Remastered_Guitar,6,4,umon_EnglishEdition,0.2241329550743103,0
61,100,0.17727272727272728,426,0,15,DL_EnglishEdition_Remastered_Guitar,6,3,umon_EnglishEdition,0.206999734044075,0
59,100,0.35909090909090907,501,0,15,DL_EnglishEdition_Remastered_Guitar,6,6,umon_EnglishEdition,0.20359520614147186,0
59,100,0.42272727272727273,673,0,15,DL_EnglishEdition_Remastered_Guitar,6,7,umon_EnglishEdition,0.20740333199501038,0
54,100,0.1590909090909091,175,1,16,DL_EnglishEdition_Remastered_Guitar,6,3,umon_EnglishEdition,0.9998379945755005,1
59,100,0.2409090909090909,594,1,16,DL_EnglishEdition_Remastered_Guitar,6,4,umon_EnglishEdition,0.40307071805000305,0
54,100,0.2590909090909091,677,0,16,DL_EnglishEdition_Remastered_Guitar,6,4,umon_EnglishEdition,0.4263719916343689,0
54,100,0.2,326,1,17,DL_EnglishEdition_Remastered_Guitar,6,3,umon_EnglishEdition,0.9997654557228088,1
54,100,0.2,457,0,17,DL_EnglishEdition_Remastered_Guitar,6,3,umon_EnglishEdition,0.0809975266456604,0
61,100,0.12272727272727273,509,0,17,DL_EnglishEdition_Remastered_Guitar,6,2,umon_EnglishEdition,0.07492000609636307,0
61,100,0.42272727272727273,540,0,17,DL_EnglishEdition_Remastered_Guitar,6,7,umon_EnglishEdition,0.07669837772846222,0
54,100,0.5772727272727273,646,0,17,DL_EnglishEdition_Remastered_Guitar,6,9,umon_EnglishEdition,0.08702868223190308,0
59,100,0.11818181818181818,835,0,17,DL_EnglishEdition_Remastered_Guitar,6,2,umon_EnglishEdition,0.10213100910186768,0
52,100,0.1,866,0,17,DL_EnglishEdition_Remastered_Guitar,6,2,umon_EnglishEdition,0.09081762284040451,0
59,100,0.5590909090909091,21,1,18,DL_EnglishEdition_Remastered_Guitar,6,9,umon_EnglishEdition,0.9998164772987366,1
59,100,1.059090909090909,193,0,18,DL_EnglishEdition_Remastered_Guitar,6,15,umon_EnglishEdition,0.19643019139766693,0
59,100,0.2,515,1,18,DL_EnglishEdition_Remastered_Guitar,6,3,umon_EnglishEdition,0.22786615788936615,0
59,100,0.1590909090909091,677,0,18,DL_EnglishEdition_Remastered_Guitar,6,3,umon_EnglishEdition,0.22246146202087402,0
54,100,0.4590909090909091,814,0,18,DL_EnglishEdition_Remastered_Guitar,6,7,umon_EnglishEdition,0.20958755910396576,0
59,100,0.32272727272727275,113,1,19,DL_EnglishEdition_Remastered_Guitar,6,5,umon_EnglishEdition,0.9998074173927307,1
59,100,0.2,395,1,19,DL_EnglishEdition_Remastered_Guitar,6,3,umon_EnglishEdition,0.13105233013629913,0
54,100,0.1,461,0,19,DL_EnglishEdition_Remastered_Guitar,6,2,umon_EnglishEdition,0.12203826755285263,0
54,100,0.1,646,0,19,DL_EnglishEdition_Remastered_Guitar,6,2,umon_EnglishEdition,0.13387854397296906,0
59,100,0.4,770,0,19,DL_EnglishEdition_Remastered_Guitar,6,6,umon_EnglishEdition,0.13611403107643127,0
54,100,0.22272727272727272,862,0,19,DL_EnglishEdition_Remastered_Guitar,6,4,umon_EnglishEdition,0.13501934707164764,0
59,100,0.11818181818181818,65,1,20,DL_EnglishEdition_Remastered_Guitar,6,2,umon_EnglishEdition,0.9998067021369934,1
54,100,0.2409090909090909,110,0,20,DL_EnglishEdition_Remastered_Guitar,6,4,umon_EnglishEdition,0.12162056565284729,0
59,100,0.2818181818181818,220,0,20,DL_EnglishEdition_Remastered_Guitar,6,5,umon_EnglishEdition,0.11929129809141159,0
59,100,0.21818181818181817,360,0,20,DL_EnglishEdition_Remastered_Guitar,6,3,umon_EnglishEdition,0.13612638413906097,0
59,100,0.8818181818181818,430,0,20,DL_EnglishEdition_Remastered_Guitar,6,14,umon_EnglishEdition,0.1365596204996109,0
52,100,0.2636363636363636,773,1,20,DL_EnglishEdition_Remastered_Guitar,6,4,umon_EnglishEdition,0.14766480028629303,0
52,100,0.2,9,1,21,DL_EnglishEdition_Remastered_Guitar,6,3,umon_EnglishEdition,0.9998114705085754,1
52,100,0.2818181818181818,65,0,21,DL_EnglishEdition_Remastered_Guitar,6,5,umon_EnglishEdition,0.12741655111312866,0
54,100,0.1409090909090909,154,0,21,DL_EnglishEdition_Remastered_Guitar,6,2,umon_EnglishEdition,0.1176612600684166,0
54,100,0.11818181818181818,480,1,21,DL_EnglishEdition_Remastered_Guitar,6,2,umon_EnglishEdition,0.13739895820617676,0
59,100,0.18181818181818182,708,0,21,DL_EnglishEdition_Remastered_Guitar,6,3,umon_EnglishEdition,0.13884073495864868,0
59,100,0.2590909090909091,866,0,21,DL_EnglishEdition_Remastered_Guitar,6,4,umon_EnglishEdition,0.1271263062953949,0
54,100,0.1,100,1,22,DL_EnglishEdition_Remastered_Guitar,6,2,umon_EnglishEdition,0.9997709393501282,1
59,100,0.1409090909090909,179,0,22,DL_EnglishEdition_Remastered_Guitar,6,2,umon_EnglishEdition,0.07877743989229202,0
54,100,0.8,237,0,22,DL_EnglishEdition_Remastered_Guitar,6,13,umon_EnglishEdition,0.0696229338645935,0
54,100,0.6590909090909091,426,0,22,DL_EnglishEdition_Remastered_Guitar,6,11,umon_EnglishEdition,0.08381540328264236,0
66,100,0.11818181818181818,581,0,22,DL_EnglishEdition_Remastered_Guitar,6,2,umon_EnglishEdition,0.09604086726903915,0
59,100,0.4,611,0,22,DL_EnglishEdition_Remastered_Guitar,6,6,umon_EnglishEdition,0.09504344314336777,0
59,100,0.1590909090909091,725,0,22,DL_EnglishEdition_Remastered_Guitar,6,3,umon_EnglishEdition,0.09368504583835602,0
64,100,0.1,193,1,23,DL_EnglishEdition_Remastered_Guitar,6,2,umon_EnglishEdition,0.9998156428337097,1
52,100,0.2818181818181818,268,0,23,DL_EnglishEdition_Remastered_Guitar,6,5,umon_EnglishEdition,0.12282391637563705,0
59,100,0.1409090909090909,387,0,23,DL_EnglishEdition_Remastered_Guitar,6,2,umon_EnglishEdition,0.11910344660282135,0
52,100,0.4409090909090909,484,0,23,DL_EnglishEdition_Remastered_Guitar,6,7,umon_EnglishEdition,0.13473007082939148,0
54,100,0.41818181818181815,602,0,23,DL_EnglishEdition_Remastered_Guitar,6,7,umon_EnglishEdition,0.13774637877941132,0
54,100,0.1590909090909091,814,0,23,DL_EnglishEdition_Remastered_Guitar,6,3,umon_EnglishEdition,0.13441205024719238,0
52,100,0.1,34,1,24,DL_EnglishEdition_Remastered_Guitar,6,2,umon_EnglishEdition,0.9998138546943665,1
59,100,0.2409090909090909,382,1,24,DL_EnglishEdition_Remastered_Guitar,6,4,umon_EnglishEdition,0.12318200618028641,0
59,100,0.2409090909090909,440,0,24,DL_EnglishEdition_Remastered_Guitar,6,4,umon_EnglishEdition,0.119916632771492,0
59,100,0.5636363636363636,619,0,24,DL_EnglishEdition_Remastered_Guitar,6,9,umon_EnglishEdition,0.13049942255020142,0
59,100,0.2,773,0,24,DL_EnglishEdition_Remastered_Guitar,6,3,umon_EnglishEdition,0.15068213641643524,0
59,100,0.4590909090909091,827,0,24,DL_EnglishEdition_Remastered_Guitar,6,7,umon_EnglishEdition,0.1321677565574646,0
59,100,0.2772727272727273,52,1,25,DL_EnglishEdition_Remastered_Guitar,6,4,umon_EnglishEdition,0.9997938275337219,1
63,100,0.2590909090909091,216,0,25,DL_EnglishEdition_Remastered_Guitar,6,4,umon_EnglishEdition,0.12442561984062195,0
59,100,0.6,272,0,25,DL_EnglishEdition_Remastered_Guitar,6,10,umon_EnglishEdition,0.11861695349216461,0
59,100,0.6,409,0,25,DL_EnglishEdition_Remastered_Guitar,6,10,umon_EnglishEdition,0.14020845293998718,0
59,100,0.5,686,1,25,DL_EnglishEdition_Remastered_Guitar,6,8,umon_EnglishEdition,0.15305909514427185,0
54,100,0.2636363636363636,796,0,25,DL_EnglishEdition_Remastered_Guitar,6,4,umon_EnglishEdition,0.14431776106357574,0
54,100,0.4,52,1,26,DL_EnglishEdition_Remastered_Guitar,6,6,umon_EnglishEdition,0.999845027923584,1
52,100,0.4,241,0,26,DL_EnglishEdition_Remastered_Guitar,6,6,umon_EnglishEdition,0.3372623026371002,0
52,100,0.6772727272727272,382,0,26,DL_EnglishEdition_Remastered_Guitar,6,11,umon_EnglishEdition,0.286313533782959,0
59,100,0.3181818181818182,700,1,26,DL_EnglishEdition_Remastered_Guitar,6,5,umon_EnglishEdition,0.3055322468280792,0
59,100,0.4590909090909091,100,1,27,DL_EnglishEdition_Remastered_Guitar,6,7,umon_EnglishEdition,0.9998119473457336,1
59,100,0.5590909090909091,216,0,27,DL_EnglishEdition_Remastered_Guitar,6,9,umon_EnglishEdition,0.40626806020736694,0
59,100,0.6227272727272727,773,1,27,DL_EnglishEdition_Remastered_Guitar,6,10,umon_EnglishEdition,0.43381303548812866,0
59,100,0.35909090909090907,65,1,28,DL_EnglishEdition_Remastered_Guitar,6,6,umon_EnglishEdition,0.9996235370635986,1
59,100,0.1409090909090909,791,1,28,DL_EnglishEdition_Remastered_Guitar,6,2,umon_EnglishEdition,0.5489618182182312,0
59,100,0.16363636363636364,26,1,29,DL_EnglishEdition_Remastered_Guitar,6,3,umon_EnglishEdition,0.9998306035995483,1
52,100,0.21818181818181817,154,0,29,DL_EnglishEdition_Remastered_Guitar,6,3,umon_EnglishEdition,0.4182491898536682,0
52,100,0.2590909090909091,206,0,29,DL_EnglishEdition_Remastered_Guitar,6,4,umon_EnglishEdition,0.4287586808204651,0
54,100,0.6363636363636364,61,1,30,DL_EnglishEdition_Remastered_Guitar,6,10,umon_EnglishEdition,0.9995799660682678,1
56,100,0.3409090909090909,739,1,30,DL_EnglishEdition_Remastered_Guitar,6,5,umon_EnglishEdition,0.5643671751022339,0
52,100,0.2590909090909091,272,1,31,DL_EnglishEdition_Remastered_Guitar,6,4,umon_EnglishEdition,0.999646782875061,1
59,100,0.11818181818181818,501,0,31,DL_EnglishEdition_Remastered_Guitar,6,2,umon_EnglishEdition,0.5448238253593445,0
59,100,0.12272727272727273,34,1,32,DL_EnglishEdition_Remastered_Guitar,6,2,umon_EnglishEdition,0.9998372793197632,1
59,100,0.2409090909090909,141,0,32,DL_EnglishEdition_Remastered_Guitar,6,4,umon_EnglishEdition,0.20656760036945343,0
61,100,0.22272727272727272,276,0,32,DL_EnglishEdition_Remastered_Guitar,6,4,umon_EnglishEdition,0.20154066383838654,0
54,100,0.4409090909090909,364,0,32,DL_EnglishEdition_Remastered_Guitar,6,7,umon_EnglishEdition,0.21143923699855804,0
54,100,0.6409090909090909,518,0,32,DL_EnglishEdition_Remastered_Guitar,6,10,umon_EnglishEdition,0.20672732591629028,0
61,100,0.2,128,1,33,DL_EnglishEdition_Remastered_Guitar,6,3,umon_EnglishEdition,0.999734103679657,1
61,100,0.11818181818181818,193,0,33,DL_EnglishEdition_Remastered_Guitar,6,2,umon_EnglishEdition,0.055148255079984665,0
61,100,0.3,295,0,33,DL_EnglishEdition_Remastered_Guitar,6,5,umon_EnglishEdition,0.045686036348342896,0
59,100,0.22272727272727272,509,0,33,DL_EnglishEdition_Remastered_Guitar,6,4,umon_EnglishEdition,0.04887383431196213,0
59,100,0.4818181818181818,563,0,33,DL_EnglishEdition_Remastered_Guitar,6,8,umon_EnglishEdition,0.04833269119262695,0
59,100,0.23636363636363636,700,0,33,DL_EnglishEdition_Remastered_Guitar,6,4,umon_EnglishEdition,0.06381881237030029,0
52,100,0.1590909090909091,761,0,33,DL_EnglishEdition_Remastered_Guitar,6,3,umon_EnglishEdition,0.07150344550609589,0
59,100,0.4818181818181818,839,0,33,DL_EnglishEdition_Remastered_Guitar,6,8,umon_EnglishEdition,0.058086417615413666,0
59,100,0.6227272727272727,101,1,34,DL_EnglishEdition_Remastered_Guitar,6,10,umon_EnglishEdition,0.9998212456703186,1
54,100,0.3,325,0,34,DL_EnglishEdition_Remastered_Guitar,6,5,umon_EnglishEdition,0.22704030573368073,0
54,100,0.18181818181818182,681,1,34,DL_EnglishEdition_Remastered_Guitar,6,3,umon_EnglishEdition,0.21440261602401733,0
54,100,0.4590909090909091,726,0,34,DL_EnglishEdition_Remastered_Guitar,6,7,umon_EnglishEdition,0.20380982756614685,0
54,100,0.2590909090909091,831,0,34,DL_EnglishEdition_Remastered_Guitar,6,4,umon_EnglishEdition,0.2085467129945755,0
54,100,0.3409090909090909,13,1,35,DL_EnglishEdition_Remastered_Guitar,6,5,umon_EnglishEdition,0.9997285008430481,1
54,100,0.2818181818181818,166,0,35,DL_EnglishEdition_Remastered_Guitar,6,5,umon_EnglishEdition,0.055863168090581894,0
56,100,0.2,391,0,35,DL_EnglishEdition_Remastered_Guitar,6,3,umon_EnglishEdition,0.048196543008089066,0
59,100,0.2,458,0,35,DL_EnglishEdition_Remastered_Guitar,6,3,umon_EnglishEdition,0.04771764576435089,0
59,100,0.11818181818181818,536,0,35,DL_EnglishEdition_Remastered_Guitar,6,2,umon_EnglishEdition,0.053297657519578934,0
59,100,0.32272727272727275,641,0,35,DL_EnglishEdition_Remastered_Guitar,6,5,umon_EnglishEdition,0.05999859422445297,0
59,100,0.1409090909090909,751,0,35,DL_EnglishEdition_Remastered_Guitar,6,2,umon_EnglishEdition,0.06964307278394699,0
52,100,0.5818181818181818,871,0,35,DL_EnglishEdition_Remastered_Guitar,6,9,umon_EnglishEdition,0.06130678951740265,0
59,100,0.5590909090909091,150,1,36,DL_EnglishEdition_Remastered_Guitar,6,9,umon_EnglishEdition,0.9997876286506653,1
59,100,0.38181818181818183,286,0,36,DL_EnglishEdition_Remastered_Guitar,6,6,umon_EnglishEdition,0.13481561839580536,0
61,100,0.12272727272727273,466,0,36,DL_EnglishEdition_Remastered_Guitar,6,2,umon_EnglishEdition,0.1296500712633133,0
54,100,0.6363636363636364,655,0,36,DL_EnglishEdition_Remastered_Guitar,6,10,umon_EnglishEdition,0.12803931534290314,0
54,100,0.2409090909090909,818,0,36,DL_EnglishEdition_Remastered_Guitar,6,4,umon_EnglishEdition,0.15312911570072174,0
54,100,0.2590909090909091,875,0,36,DL_EnglishEdition_Remastered_Guitar,6,4,umon_EnglishEdition,0.13797564804553986,0
59,100,0.2,171,1,37,DL_EnglishEdition_Remastered_Guitar,6,3,umon_EnglishEdition,0.9998351335525513,1
54,100,0.1409090909090909,426,1,37,DL_EnglishEdition_Remastered_Guitar,6,2,umon_EnglishEdition,0.22020603716373444,0
54,100,0.38181818181818183,506,0,37,DL_EnglishEdition_Remastered_Guitar,6,6,umon_EnglishEdition,0.19230253994464874,0
54,100,0.3,603,0,37,DL_EnglishEdition_Remastered_Guitar,6,5,umon_EnglishEdition,0.20686505734920502,0
54,100,0.2,694,0,37,DL_EnglishEdition_Remastered_Guitar,6,3,umon_EnglishEdition,0.20696154236793518,0
54,100,0.1590909090909091,413,1,38,DL_EnglishEdition_Remastered_Guitar,6,3,umon_EnglishEdition,0.9996140599250793,1
54,100,0.6409090909090909,471,0,38,DL_EnglishEdition_Remastered_Guitar,6,10,umon_EnglishEdition,0.5334608554840088,0
59,100,0.18181818181818182,114,1,39,DL_EnglishEdition_Remastered_Guitar,6,3,umon_EnglishEdition,0.99983811378479,1
52,100,0.2818181818181818,188,0,39,DL_EnglishEdition_Remastered_Guitar,6,5,umon_EnglishEdition,0.21010641753673553,0
59,100,0.6409090909090909,628,1,39,DL_EnglishEdition_Remastered_Guitar,6,10,umon_EnglishEdition,0.18519794940948486,0
59,100,0.13636363636363635,810,0,39,DL_EnglishEdition_Remastered_Guitar,6,2,umon_EnglishEdition,0.22463636100292206,0
54,100,0.1590909090909091,866,0,39,DL_EnglishEdition_Remastered_Guitar,6,3,umon_EnglishEdition,0.20743511617183685,0
52,100,0.12272727272727273,144,1,40,DL_EnglishEdition_Remastered_Guitar,6,2,umon_EnglishEdition,0.9998483657836914,1
54,100,0.2818181818181818,483,1,40,DL_EnglishEdition_Remastered_Guitar,6,5,umon_EnglishEdition,0.19880247116088867,0
54,100,0.21818181818181817,550,0,40,DL_EnglishEdition_Remastered_Guitar,6,3,umon_EnglishEdition,0.19491486251354218,0
59,100,0.1,641,0,40,DL_EnglishEdition_Remastered_Guitar,6,2,umon_EnglishEdition,0.2037356048822403,0
59,100,0.41818181818181815,853,0,40,DL_EnglishEdition_Remastered_Guitar,6,7,umon_EnglishEdition,0.19497612118721008,0
52,100,0.5181818181818182,308,1,41,DL_EnglishEdition_Remastered_Guitar,6,8,umon_EnglishEdition,0.9930161237716675,0
54,100,0.1409090909090909,88,1,42,DL_EnglishEdition_Remastered_Guitar,6,2,umon_EnglishEdition,0.9998230338096619,1
54,100,0.5227272727272727,276,0,42,DL_EnglishEdition_Remastered_Guitar,6,8,umon_EnglishEdition,0.40065622329711914,0
59,100,1.040909090909091,638,1,42,DL_EnglishEdition_Remastered_Guitar,6,15,umon_EnglishEdition,0.4236443042755127,0
54,100,0.4409090909090909,399,1,43,DL_EnglishEdition_Remastered_Guitar,6,7,umon_EnglishEdition,0.9998214840888977,1
52,100,0.7,509,0,43,DL_EnglishEdition_Remastered_Guitar,6,11,umon_EnglishEdition,0.4186421036720276,0
52,100,0.37727272727272726,823,1,43,DL_EnglishEdition_Remastered_Guitar,6,6,umon_EnglishEdition,0.4324023723602295,0
59,100,0.5181818181818182,413,1,44,DL_EnglishEdition_Remastered_Guitar,6,8,umon_EnglishEdition,0.9998158812522888,1
59,100,0.11818181818181818,593,0,44,DL_EnglishEdition_Remastered_Guitar,6,2,umon_EnglishEdition,0.4207932651042938,0
59,100,0.13636363636363635,633,0,44,DL_EnglishEdition_Remastered_Guitar,6,2,umon_EnglishEdition,0.43449288606643677,0
59,100,0.3409090909090909,220,1,45,DL_EnglishEdition_Remastered_Guitar,6,5,umon_EnglishEdition,0.9998277425765991,1
59,100,0.5181818181818182,303,0,45,DL_EnglishEdition_Remastered_Guitar,6,8,umon_EnglishEdition,0.2018548846244812,0
59,100,0.2772727272727273,501,0,45,DL_EnglishEdition_Remastered_Guitar,6,4,umon_EnglishEdition,0.2123943418264389,0
54,100,0.4,770,1,45,DL_EnglishEdition_Remastered_Guitar,6,6,umon_EnglishEdition,0.20878028869628906,0
54,100,0.1409090909090909,861,0,45,DL_EnglishEdition_Remastered_Guitar,6,2,umon_EnglishEdition,0.2178266942501068,0
54,100,0.16363636363636364,224,1,46,DL_EnglishEdition_Remastered_Guitar,6,3,umon_EnglishEdition,0.9998557567596436,1
59,100,0.5818181818181818,364,0,46,DL_EnglishEdition_Remastered_Guitar,6,9,umon_EnglishEdition,0.3011203706264496,0
54,100,0.2,673,1,46,DL_EnglishEdition_Remastered_Guitar,6,3,umon_EnglishEdition,0.3053465485572815,0
59,100,0.2772727272727273,823,0,46,DL_EnglishEdition_Remastered_Guitar,6,4,umon_EnglishEdition,0.305397629737854,0
59,100,0.2409090909090909,53,1,47,DL_EnglishEdition_Remastered_Guitar,6,4,umon_EnglishEdition,0.9997968077659607,1
66,100,0.17727272727272728,448,1,47,DL_EnglishEdition_Remastered_Guitar,6,3,umon_EnglishEdition,0.13074228167533875,0
54,100,0.2818181818181818,506,0,47,DL_EnglishEdition_Remastered_Guitar,6,5,umon_EnglishEdition,0.12090615183115005,0
59,100,0.2409090909090909,584,0,47,DL_EnglishEdition_Remastered_Guitar,6,4,umon_EnglishEdition,0.1360025703907013,0
59,100,0.5181818181818182,735,0,47,DL_EnglishEdition_Remastered_Guitar,6,8,umon_EnglishEdition,0.1401076465845108,0
54,100,0.23636363636363636,853,0,47,DL_EnglishEdition_Remastered_Guitar,6,4,umon_EnglishEdition,0.13760565221309662,0
59,100,1.0,31,1,48,DL_EnglishEdition_Remastered_Guitar,6,15,umon_EnglishEdition,0.9995255470275879,1
59,100,0.2409090909090909,748,1,48,DL_EnglishEdition_Remastered_Guitar,6,4,umon_EnglishEdition,0.5789890885353088,0
59,100,0.13636363636363635,150,1,49,DL_EnglishEdition_Remastered_Guitar,6,2,umon_EnglishEdition,0.9998055100440979,1
54,100,0.3,215,0,49,DL_EnglishEdition_Remastered_Guitar,6,5,umon_EnglishEdition,0.12051930278539658,0
54,100,0.21818181818181817,286,0,49,DL_EnglishEdition_Remastered_Guitar,6,3,umon_EnglishEdition,0.12372647970914841,0
59,100,0.4772727272727273,568,1,49,DL_EnglishEdition_Remastered_Guitar,6,8,umon_EnglishEdition,0.13140621781349182,0
59,100,0.17727272727272728,678,0,49,DL_EnglishEdition_Remastered_Guitar,6,3,umon_EnglishEdition,0.14751727879047394,0
59,100,0.3,774,0,49,DL_EnglishEdition_Remastered_Guitar,6,5,umon_EnglishEdition,0.13559330999851227,0
59,100,0.18181818181818182,48,1,50,DL_EnglishEdition_Remastered_Guitar,6,3,umon_EnglishEdition,0.9998511075973511,1
59,100,0.5818181818181818,364,1,50,DL_EnglishEdition_Remastered_Guitar,6,9,umon_EnglishEdition,0.30448514223098755,0
59,100,0.17727272727272728,545,0,50,DL_EnglishEdition_Remastered_Guitar,6,3,umon_EnglishEdition,0.30496615171432495,0
59,100,0.7,735,0,50,DL_EnglishEdition_Remastered_Guitar,6,11,umon_EnglishEdition,0.3043099045753479,0
52,100,0.7818181818181819,26,1,51,DL_EnglishEdition_Remastered_Guitar,6,13,umon_EnglishEdition,0.9995835423469543,1
54,100,0.2590909090909091,783,1,51,DL_EnglishEdition_Remastered_Guitar,6,4,umon_EnglishEdition,0.5582769513130188,0
59,100,0.6409090909090909,26,1,52,DL_EnglishEdition_Remastered_Guitar,6,10,umon_EnglishEdition,0.999813973903656,1
54,100,0.23636363636363636,171,0,52,DL_EnglishEdition_Remastered_Guitar,6,4,umon_EnglishEdition,0.22857259213924408,0
54,100,0.7181818181818181,308,0,52,DL_EnglishEdition_Remastered_Guitar,6,11,umon_EnglishEdition,0.1914864331483841,0
54,100,0.3409090909090909,681,1,52,DL_EnglishEdition_Remastered_Guitar,6,5,umon_EnglishEdition,0.23076757788658142,0
59,100,0.11818181818181818,823,0,52,DL_EnglishEdition_Remastered_Guitar,6,2,umon_EnglishEdition,0.2132311910390854,0
59,100,0.11818181818181818,198,1,53,DL_EnglishEdition_Remastered_Guitar,6,2,umon_EnglishEdition,0.9998602867126465,1
52,100,0.4818181818181818,334,0,53,DL_EnglishEdition_Remastered_Guitar,6,8,umon_EnglishEdition,0.3160759508609772,0
54,100,0.3409090909090909,735,1,53,DL_EnglishEdition_Remastered_Guitar,6,5,umon_EnglishEdition,0.28901582956314087,0
59,100,0.5,875,0,53,DL_EnglishEdition_Remastered_Guitar,6,8,umon_EnglishEdition,0.3013125956058502,0
54,100,0.18181818181818182,110,1,54,DL_EnglishEdition_Remastered_Guitar,6,3,umon_EnglishEdition,0.9998495578765869,1
54,100,0.2590909090909091,153,0,54,DL_EnglishEdition_Remastered_Guitar,6,4,umon_EnglishEdition,0.3236750662326813,0
59,100,0.7,536,1,54,DL_EnglishEdition_Remastered_Guitar,6,11,umon_EnglishEdition,0.275800496339798,0
54,100,0.2409090909090909,708,0,54,DL_EnglishEdition_Remastered_Guitar,6,4,umon_EnglishEdition,0.32867616415023804,0
59,100,0.2,78,1,55,DL_EnglishEdition_Remastered_Guitar,6,3,umon_EnglishEdition,0.9997734427452087,1
54,100,0.1,141,0,55,DL_EnglishEdition_Remastered_Guitar,6,2,umon_EnglishEdition,0.07912099361419678,0
54,100,0.2409090909090909,198,0,55,DL_EnglishEdition_Remastered_Guitar,6,4,umon_EnglishEdition,0.0745055228471756,0
66,100,0.2,373,0,55,DL_EnglishEdition_Remastered_Guitar,6,3,umon_EnglishEdition,0.07829172164201736,0
59,100,0.35909090909090907,536,0,55,DL_EnglishEdition_Remastered_Guitar,6,6,umon_EnglishEdition,0.08700015395879745,0
59,100,0.9590909090909091,651,0,55,DL_EnglishEdition_Remastered_Guitar,6,15,umon_EnglishEdition,0.09132982045412064,0
54,100,0.1,861,0,55,DL_EnglishEdition_Remastered_Guitar,6,2,umon_EnglishEdition,0.09842406958341599,0
54,100,0.35909090909090907,40,1,56,DL_EnglishEdition_Remastered_Guitar,6,6,umon_EnglishEdition,0.9998227953910828,1
54,100,0.5227272727272727,166,0,56,DL_EnglishEdition_Remastered_Guitar,6,8,umon_EnglishEdition,0.21207955479621887,0
56,100,0.21818181818181817,633,1,56,DL_EnglishEdition_Remastered_Guitar,6,3,umon_EnglishEdition,0.2125115990638733,0
56,100,0.33636363636363636,700,0,56,DL_EnglishEdition_Remastered_Guitar,6,5,umon_EnglishEdition,0.20800206065177917,0
56,100,0.5636363636363636,818,0,56,DL_EnglishEdition_Remastered_Guitar,6,9,umon_EnglishEdition,0.20708203315734863,0
63,100,0.2409090909090909,158,1,57,DL_EnglishEdition_Remastered_Guitar,6,4,umon_EnglishEdition,0.999825656414032,1
56,100,0.1590909090909091,295,0,57,DL_EnglishEdition_Remastered_Guitar,6,3,umon_EnglishEdition,0.4178941249847412,0
59,100,0.42272727272727273,774,1,57,DL_EnglishEdition_Remastered_Guitar,6,7,umon_EnglishEdition,0.42408978939056396,0
54,100,0.1409090909090909,254,1,58,DL_EnglishEdition_Remastered_Guitar,6,2,umon_EnglishEdition,0.9998570680618286,1
54,100,0.16363636363636364,531,1,58,DL_EnglishEdition_Remastered_Guitar,6,3,umon_EnglishEdition,0.31723594665527344,0
54,100,0.22272727272727272,628,0,58,DL_EnglishEdition_Remastered_Guitar,6,4,umon_EnglishEdition,0.2896442115306854,0
54,100,0.1590909090909091,703,0,58,DL_EnglishEdition_Remastered_Guitar,6,3,umon_EnglishEdition,0.30640238523483276,0
59,100,0.21818181818181817,31,1,59,DL_EnglishEdition_Remastered_Guitar,6,3,umon_EnglishEdition,0.9998007416725159,1
59,100,0.2590909090909091,141,0,59,DL_EnglishEdition_Remastered_Guitar,6,4,umon_EnglishEdition,0.13030898571014404,0
59,100,0.4409090909090909,316,0,59,DL_EnglishEdition_Remastered_Guitar,6,7,umon_EnglishEdition,0.12590862810611725,0
66,100,0.3,531,0,59,DL_EnglishEdition_Remastered_Guitar,6,5,umon_EnglishEdition,0.14475677907466888,0
66,100,0.17727272727272728,603,0,59,DL_EnglishEdition_Remastered_Guitar,6,3,umon_EnglishEdition,0.15409450232982635,0
66,100,1.259090909090909,778,0,59,DL_EnglishEdition_Remastered_Guitar,6,15,umon_EnglishEdition,0.12679415941238403,0
61,100,0.5181818181818182,198,1,60,DL_EnglishEdition_Remastered_Guitar,6,8,umon_EnglishEdition,0.9997997879981995,1
66,100,0.21818181818181817,383,0,60,DL_EnglishEdition_Remastered_Guitar,6,3,umon_EnglishEdition,0.12560901045799255,0
61,100,0.6181818181818182,440,0,60,DL_EnglishEdition_Remastered_Guitar,6,10,umon_EnglishEdition,0.12112615257501602,0
54,100,0.2409090909090909,641,0,60,DL_EnglishEdition_Remastered_Guitar,6,4,umon_EnglishEdition,0.14535431563854218,0
64,100,0.12272727272727273,729,0,60,DL_EnglishEdition_Remastered_Guitar,6,2,umon_EnglishEdition,0.15352082252502441,0
66,100,0.5409090909090909,836,0,60,DL_EnglishEdition_Remastered_Guitar,6,9,umon_EnglishEdition,0.12609295547008514,0
66,100,0.5409090909090909,78,1,61,DL_EnglishEdition_Remastered_Guitar,6,9,umon_EnglishEdition,0.9997958540916443,1
66,100,0.2590909090909091,220,0,61,DL_EnglishEdition_Remastered_Guitar,6,4,umon_EnglishEdition,0.13231277465820312,0
59,100,0.1,325,0,61,DL_EnglishEdition_Remastered_Guitar,6,2,umon_EnglishEdition,0.1249825656414032,0
66,100,0.5590909090909091,474,0,61,DL_EnglishEdition_Remastered_Guitar,6,9,umon_EnglishEdition,0.12916311621665955,0
52,100,0.18181818181818182,606,0,61,DL_EnglishEdition_Remastered_Guitar,6,3,umon_EnglishEdition,0.16331684589385986,0
52,100,0.9409090909090909,871,1,61,DL_EnglishEdition_Remastered_Guitar,6,15,umon_EnglishEdition,0.12777629494667053,0
52,100,0.1409090909090909,211,1,62,DL_EnglishEdition_Remastered_Guitar,6,2,umon_EnglishEdition,0.9998334646224976,1
52,100,0.6,251,0,62,DL_EnglishEdition_Remastered_Guitar,6,10,umon_EnglishEdition,0.402435302734375,0
59,100,0.6,641,1,62,DL_EnglishEdition_Remastered_Guitar,6,10,umon_EnglishEdition,0.41605889797210693,0
59,100,0.6,18,1,63,DL_EnglishEdition_Remastered_Guitar,6,10,umon_EnglishEdition,0.9998086094856262,1
54,100,0.1590909090909091,606,1,63,DL_EnglishEdition_Remastered_Guitar,6,3,umon_EnglishEdition,0.4451875686645508,0
56,100,0.9818181818181818,694,0,63,DL_EnglishEdition_Remastered_Guitar,6,15,umon_EnglishEdition,0.4124555289745331,0
56,100,0.8409090909090909,66,1,64,DL_EnglishEdition_Remastered_Guitar,6,13,umon_EnglishEdition,0.9997838139533997,1
52,100,0.8818181818181818,320,1,64,DL_EnglishEdition_Remastered_Guitar,6,14,umon_EnglishEdition,0.127684086561203,0
59,100,0.22272727272727272,519,0,64,DL_EnglishEdition_Remastered_Guitar,6,4,umon_EnglishEdition,0.129243403673172,0
59,100,0.8590909090909091,590,0,64,DL_EnglishEdition_Remastered_Guitar,6,14,umon_EnglishEdition,0.13268375396728516,0
59,100,0.12272727272727273,817,0,64,DL_EnglishEdition_Remastered_Guitar,6,2,umon_EnglishEdition,0.16263166069984436,0
54,100,0.4409090909090909,857,0,64,DL_EnglishEdition_Remastered_Guitar,6,7,umon_EnglishEdition,0.1371832937002182,0
59,100,0.32272727272727275,157,1,65,DL_EnglishEdition_Remastered_Guitar,6,5,umon_EnglishEdition,0.9998323917388916,1
59,100,0.4409090909090909,255,0,65,DL_EnglishEdition_Remastered_Guitar,6,7,umon_EnglishEdition,0.2131926715373993,0
54,100,0.2,480,0,65,DL_EnglishEdition_Remastered_Guitar,6,3,umon_EnglishEdition,0.2124418467283249,0
54,100,0.12272727272727273,597,0,65,DL_EnglishEdition_Remastered_Guitar,6,2,umon_EnglishEdition,0.2111836075782776,0
54,100,0.5772727272727273,756,0,65,DL_EnglishEdition_Remastered_Guitar,6,9,umon_EnglishEdition,0.20256908237934113,0
54,100,0.5409090909090909,132,1,66,DL_EnglishEdition_Remastered_Guitar,6,9,umon_EnglishEdition,0.9997528195381165,1
54,100,0.23636363636363636,326,0,66,DL_EnglishEdition_Remastered_Guitar,6,4,umon_EnglishEdition,0.0827513262629509,0
54,100,0.2,396,0,66,DL_EnglishEdition_Remastered_Guitar,6,3,umon_EnglishEdition,0.07515761256217957,0
54,100,0.5181818181818182,527,0,66,DL_EnglishEdition_Remastered_Guitar,6,8,umon_EnglishEdition,0.07654464989900589,0
52,100,0.18181818181818182,660,0,66,DL_EnglishEdition_Remastered_Guitar,6,3,umon_EnglishEdition,0.10255397856235504,0
59,100,0.1409090909090909,726,0,66,DL_EnglishEdition_Remastered_Guitar,6,2,umon_EnglishEdition,0.09661073982715607,0
59,100,0.5181818181818182,779,0,66,DL_EnglishEdition_Remastered_Guitar,6,8,umon_EnglishEdition,0.08774008601903915,0
52,100,0.36363636363636365,47,1,67,DL_EnglishEdition_Remastered_Guitar,6,6,umon_EnglishEdition,0.9998016953468323,1
59,100,0.2,189,0,67,DL_EnglishEdition_Remastered_Guitar,6,3,umon_EnglishEdition,0.12935106456279755,0
54,100,0.18181818181818182,246,0,67,DL_EnglishEdition_Remastered_Guitar,6,3,umon_EnglishEdition,0.12286829948425293,0
54,100,0.17727272727272728,294,0,67,DL_EnglishEdition_Remastered_Guitar,6,3,umon_EnglishEdition,0.13781806826591492,0
54,100,0.22272727272727272,760,1,67,DL_EnglishEdition_Remastered_Guitar,6,4,umon_EnglishEdition,0.14387039840221405,0
54,100,0.3,823,0,67,DL_EnglishEdition_Remastered_Guitar,6,5,umon_EnglishEdition,0.12853464484214783,0
56,100,2.040909090909091,466,1,68,DL_EnglishEdition_Remastered_Guitar,6,15,umon_EnglishEdition,0.9904637336730957,0
54,100,0.13636363636363635,40,1,69,DL_EnglishEdition_Remastered_Guitar,6,2,umon_EnglishEdition,0.9997532963752747,1
52,100,1.7181818181818183,110,0,69,DL_EnglishEdition_Remastered_Guitar,6,15,umon_EnglishEdition,0.06919211894273758,0
52,100,0.1590909090909091,527,1,69,DL_EnglishEdition_Remastered_Guitar,6,3,umon_EnglishEdition,0.090191550552845,0
54,100,0.1590909090909091,616,0,69,DL_EnglishEdition_Remastered_Guitar,6,3,umon_EnglishEdition,0.08456707000732422,0
54,100,0.2772727272727273,677,0,69,DL_EnglishEdition_Remastered_Guitar,6,4,umon_EnglishEdition,0.09587914496660233,0
61,100,0.12272727272727273,752,0,69,DL_EnglishEdition_Remastered_Guitar,6,2,umon_EnglishEdition,0.10422533005475998,0
61,100,0.35909090909090907,783,0,69,DL_EnglishEdition_Remastered_Guitar,6,6,umon_EnglishEdition,0.08799252659082413,0
54,100,0.6590909090909091,9,1,70,DL_EnglishEdition_Remastered_Guitar,6,11,umon_EnglishEdition,0.999783456325531,1
59,100,0.16363636363636364,179,0,70,DL_EnglishEdition_Remastered_Guitar,6,3,umon_EnglishEdition,0.14651796221733093,0
59,100,0.1,453,1,70,DL_EnglishEdition_Remastered_Guitar,6,2,umon_EnglishEdition,0.12923921644687653,0
54,100,0.3,590,0,70,DL_EnglishEdition_Remastered_Guitar,6,5,umon_EnglishEdition,0.14235270023345947,0
54,100,0.2409090909090909,739,0,70,DL_EnglishEdition_Remastered_Guitar,6,4,umon_EnglishEdition,0.1515447348356247,0
52,100,1.7818181818181817,796,0,70,DL_EnglishEdition_Remastered_Guitar,6,15,umon_EnglishEdition,0.12288491427898407,0
52,100,0.2590909090909091,316,1,71,DL_EnglishEdition_Remastered_Guitar,6,4,umon_EnglishEdition,0.9998559951782227,1
52,100,0.740909090909091,399,0,71,DL_EnglishEdition_Remastered_Guitar,6,12,umon_EnglishEdition,0.30218079686164856,0
52,100,0.4409090909090909,597,0,71,DL_EnglishEdition_Remastered_Guitar,6,7,umon_EnglishEdition,0.29983389377593994,0
52,100,0.6181818181818182,713,0,71,DL_EnglishEdition_Remastered_Guitar,6,10,umon_EnglishEdition,0.30687716603279114,0
54,100,0.1,210,1,72,DL_EnglishEdition_Remastered_Guitar,6,2,umon_EnglishEdition,0.9998458623886108,1
59,100,0.17727272727272728,457,1,72,DL_EnglishEdition_Remastered_Guitar,6,3,umon_EnglishEdition,0.20131072402000427,0
59,100,0.2,509,0,72,DL_EnglishEdition_Remastered_Guitar,6,3,umon_EnglishEdition,0.19723641872406006,0
54,100,0.4590909090909091,612,0,72,DL_EnglishEdition_Remastered_Guitar,6,7,umon_EnglishEdition,0.19901853799819946,0
54,100,0.1590909090909091,716,0,72,DL_EnglishEdition_Remastered_Guitar,6,3,umon_EnglishEdition,0.20873184502124786,0
54,100,0.2818181818181818,166,1,73,DL_EnglishEdition_Remastered_Guitar,6,5,umon_EnglishEdition,0.999843955039978,1
56,100,0.6409090909090909,242,0,73,DL_EnglishEdition_Remastered_Guitar,6,10,umon_EnglishEdition,0.30302509665489197,0
56,100,0.7818181818181819,506,1,73,DL_EnglishEdition_Remastered_Guitar,6,13,umon_EnglishEdition,0.299898624420166,0
52,100,0.1590909090909091,770,1,73,DL_EnglishEdition_Remastered_Guitar,6,3,umon_EnglishEdition,0.33307740092277527,0
59,100,0.11818181818181818,30,1,74,DL_EnglishEdition_Remastered_Guitar,6,2,umon_EnglishEdition,0.9997721314430237,1
52,100,0.3409090909090909,153,0,74,DL_EnglishEdition_Remastered_Guitar,6,5,umon_EnglishEdition,0.08101555705070496,0
52,100,0.1,233,0,74,DL_EnglishEdition_Remastered_Guitar,6,2,umon_EnglishEdition,0.07409199327230453,0
59,100,0.12272727272727273,255,0,74,DL_EnglishEdition_Remastered_Guitar,6,2,umon_EnglishEdition,0.07747811079025269,0
52,100,0.2,303,0,74,DL_EnglishEdition_Remastered_Guitar,6,3,umon_EnglishEdition,0.08969595283269882,0
54,100,0.2590909090909091,783,1,74,DL_EnglishEdition_Remastered_Guitar,6,4,umon_EnglishEdition,0.09047593921422958,0
54,100,0.17727272727272728,876,0,74,DL_EnglishEdition_Remastered_Guitar,6,3,umon_EnglishEdition,0.08926420658826828,0
54,100,0.5227272727272727,56,1,75,DL_EnglishEdition_Remastered_Guitar,6,8,umon_EnglishEdition,0.9997956156730652,1
54,100,0.3,202,0,75,DL_EnglishEdition_Remastered_Guitar,6,5,umon_EnglishEdition,0.13319949805736542,0
54,100,0.18181818181818182,289,0,75,DL_EnglishEdition_Remastered_Guitar,6,3,umon_EnglishEdition,0.12713505327701569,0
54,100,0.2772727272727273,404,0,75,DL_EnglishEdition_Remastered_Guitar,6,4,umon_EnglishEdition,0.14066775143146515,0
54,100,0.7181818181818181,572,0,75,DL_EnglishEdition_Remastered_Guitar,6,11,umon_EnglishEdition,0.13918152451515198,0
54,100,0.4409090909090909,849,1,75,DL_EnglishEdition_Remastered_Guitar,6,7,umon_EnglishEdition,0.13953185081481934,0
54,100,0.5,92,1,76,DL_EnglishEdition_Remastered_Guitar,6,8,umon_EnglishEdition,0.9997860789299011,1
59,100,0.4590909090909091,242,0,76,DL_EnglishEdition_Remastered_Guitar,6,7,umon_EnglishEdition,0.12850527465343475,0
54,100,0.2409090909090909,365,0,76,DL_EnglishEdition_Remastered_Guitar,6,4,umon_EnglishEdition,0.13068419694900513,0
54,100,0.5181818181818182,436,0,76,DL_EnglishEdition_Remastered_Guitar,6,8,umon_EnglishEdition,0.1331806480884552,0
59,100,0.4818181818181818,629,0,76,DL_EnglishEdition_Remastered_Guitar,6,8,umon_EnglishEdition,0.14986836910247803,0
54,100,0.22272727272727272,739,0,76,DL_EnglishEdition_Remastered_Guitar,6,4,umon_EnglishEdition,0.14441530406475067,0
59,100,0.3181818181818182,17,1,77,DL_EnglishEdition_Remastered_Guitar,6,5,umon_EnglishEdition,0.9997615218162537,1
59,100,0.13636363636363635,216,0,77,DL_EnglishEdition_Remastered_Guitar,6,2,umon_EnglishEdition,0.08281280100345612,0
54,100,0.12272727272727273,255,0,77,DL_EnglishEdition_Remastered_Guitar,6,2,umon_EnglishEdition,0.0750194862484932,0
54,100,0.11818181818181818,303,0,77,DL_EnglishEdition_Remastered_Guitar,6,2,umon_EnglishEdition,0.0798344761133194,0
52,100,0.6,383,0,77,DL_EnglishEdition_Remastered_Guitar,6,10,umon_EnglishEdition,0.08669121563434601,0
59,100,0.12272727272727273,540,0,77,DL_EnglishEdition_Remastered_Guitar,6,2,umon_EnglishEdition,0.10449553281068802,0
52,100,0.9181818181818182,637,0,77,DL_EnglishEdition_Remastered_Guitar,6,15,umon_EnglishEdition,0.0848662257194519,0
54,100,0.21818181818181817,150,1,78,DL_EnglishEdition_Remastered_Guitar,6,3,umon_EnglishEdition,0.999833345413208,1
59,100,0.4,250,0,78,DL_EnglishEdition_Remastered_Guitar,6,6,umon_EnglishEdition,0.20524419844150543,0
54,100,0.2818181818181818,475,0,78,DL_EnglishEdition_Remastered_Guitar,6,5,umon_EnglishEdition,0.20314833521842957,0
59,100,0.8363636363636363,612,0,78,DL_EnglishEdition_Remastered_Guitar,6,13,umon_EnglishEdition,0.19415216147899628,0
54,100,0.18181818181818182,817,0,78,DL_EnglishEdition_Remastered_Guitar,6,3,umon_EnglishEdition,0.22167529165744781,0
54,100,0.11818181818181818,119,1,79,DL_EnglishEdition_Remastered_Guitar,6,2,umon_EnglishEdition,0.999771773815155,1
54,100,0.2772727272727273,193,0,79,DL_EnglishEdition_Remastered_Guitar,6,4,umon_EnglishEdition,0.07610395550727844,0
59,100,0.2409090909090909,263,0,79,DL_EnglishEdition_Remastered_Guitar,6,4,umon_EnglishEdition,0.0737546905875206,0
54,100,0.1409090909090909,320,0,79,DL_EnglishEdition_Remastered_Guitar,6,2,umon_EnglishEdition,0.08083314448595047,0
54,100,0.3409090909090909,365,0,79,DL_EnglishEdition_Remastered_Guitar,6,5,umon_EnglishEdition,0.08862097561359406,0
59,100,0.17727272727272728,449,0,79,DL_EnglishEdition_Remastered_Guitar,6,3,umon_EnglishEdition,0.09837020188570023,0
59,100,0.4636363636363636,729,1,79,DL_EnglishEdition_Remastered_Guitar,6,7,umon_EnglishEdition,0.08845620602369308,0
52,100,0.6409090909090909,79,1,80,DL_EnglishEdition_Remastered_Guitar,6,10,umon_EnglishEdition,0.9998466968536377,1
52,100,0.2818181818181818,409,1,80,DL_EnglishEdition_Remastered_Guitar,6,5,umon_EnglishEdition,0.34057939052581787,0
54,100,0.3181818181818182,747,1,80,DL_EnglishEdition_Remastered_Guitar,6,5,umon_EnglishEdition,0.2863079607486725,0
54,100,0.11818181818181818,823,0,80,DL_EnglishEdition_Remastered_Guitar,6,2,umon_EnglishEdition,0.3078807294368744,0
54,100,0.5227272727272727,3,1,81,DL_EnglishEdition_Remastered_Guitar,6,8,umon_EnglishEdition,0.9997871518135071,1
59,100,0.2409090909090909,163,0,81,DL_EnglishEdition_Remastered_Guitar,6,4,umon_EnglishEdition,0.132545605301857,0
54,100,0.6,396,1,81,DL_EnglishEdition_Remastered_Guitar,6,10,umon_EnglishEdition,0.11629655212163925,0
59,100,0.12272727272727273,629,1,81,DL_EnglishEdition_Remastered_Guitar,6,2,umon_EnglishEdition,0.14630405604839325,0
59,100,0.4,700,0,81,DL_EnglishEdition_Remastered_Guitar,6,6,umon_EnglishEdition,0.14117932319641113,0
59,100,0.21818181818181817,853,0,81,DL_EnglishEdition_Remastered_Guitar,6,3,umon_EnglishEdition,0.14014442265033722,0
54,100,0.3,30,1,82,DL_EnglishEdition_Remastered_Guitar,6,5,umon_EnglishEdition,0.9997614026069641,1
52,100,0.4409090909090909,163,0,82,DL_EnglishEdition_Remastered_Guitar,6,7,umon_EnglishEdition,0.07920008152723312,0
59,100,0.35909090909090907,276,0,82,DL_EnglishEdition_Remastered_Guitar,6,6,umon_EnglishEdition,0.07128728926181793,0
52,100,0.4818181818181818,430,0,82,DL_EnglishEdition_Remastered_Guitar,6,8,umon_EnglishEdition,0.08247793465852737,0
52,100,0.11818181818181818,660,0,82,DL_EnglishEdition_Remastered_Guitar,6,2,umon_EnglishEdition,0.09331861138343811,0
52,100,0.1590909090909091,713,0,82,DL_EnglishEdition_Remastered_Guitar,6,3,umon_EnglishEdition,0.09513255953788757,0
54,100,0.17727272727272728,832,0,82,DL_EnglishEdition_Remastered_Guitar,6,3,umon_EnglishEdition,0.08373451232910156,0
54,100,0.16363636363636364,3,1,83,DL_EnglishEdition_Remastered_Guitar,6,3,umon_EnglishEdition,0.9998365640640259,1
54,100,0.3409090909090909,123,0,83,DL_EnglishEdition_Remastered_Guitar,6,5,umon_EnglishEdition,0.20363004505634308,0
54,100,0.18181818181818182,312,0,83,DL_EnglishEdition_Remastered_Guitar,6,3,umon_EnglishEdition,0.20497676730155945,0
54,100,0.41818181818181815,426,0,83,DL_EnglishEdition_Remastered_Guitar,6,7,umon_EnglishEdition,0.20646555721759796,0
54,100,0.4409090909090909,713,1,83,DL_EnglishEdition_Remastered_Guitar,6,7,umon_EnglishEdition,0.2039192169904709,0
54,100,0.2818181818181818,110,1,84,DL_EnglishEdition_Remastered_Guitar,6,5,umon_EnglishEdition,0.9998466968536377,1
54,100,0.1590909090909091,347,1,84,DL_EnglishEdition_Remastered_Guitar,6,3,umon_EnglishEdition,0.33104589581489563,0
59,100,0.4818181818181818,386,0,84,DL_EnglishEdition_Remastered_Guitar,6,8,umon_EnglishEdition,0.2926265299320221,0
54,100,0.8227272727272728,496,0,84,DL_EnglishEdition_Remastered_Guitar,6,13,umon_EnglishEdition,0.3054859936237335,0
54,100,0.17727272727272728,470,1,85,DL_EnglishEdition_Remastered_Guitar,6,3,umon_EnglishEdition,0.9931970834732056,1
67,100,0.11818181818181818,722,1,0,Guitar,6,2,Stems,0.9996354579925537,1
58,100,0.1590909090909091,823,0,0,Guitar,6,3,Stems,0.5362331867218018,0
67,100,0.1590909090909091,339,1,1,Guitar,6,3,Stems,0.9996063113212585,1
63,100,0.2409090909090909,686,1,1,Guitar,6,4,Stems,0.552621603012085,0
70,100,0.18181818181818182,144,1,2,Guitar,6,3,Stems,0.9998408555984497,1
70,100,0.16363636363636364,223,0,2,Guitar,6,3,Stems,0.32858845591545105,0
65,100,0.11818181818181818,373,0,2,Guitar,6,2,Stems,0.3047090768814087,0
62,100,0.1409090909090909,782,1,2,Guitar,6,2,Stems,0.30854567885398865,0
63,100,0.3181818181818182,83,1,3,Guitar,6,5,Stems,0.9998394250869751,1
63,100,0.17727272727272728,171,0,3,Guitar,6,3,Stems,0.3341177701950073,0
58,100,0.1,391,0,3,Guitar,6,2,Stems,0.2933097183704376,0
65,100,0.2818181818181818,620,0,3,Guitar,6,5,Stems,0.32195574045181274,0
62,100,0.11818181818181818,128,1,4,Guitar,6,2,Stems,0.9997434020042419,1
62,100,0.16363636363636364,179,0,4,Guitar,6,3,Stems,0.05432124808430672,0
63,100,0.1,263,0,4,Guitar,6,2,Stems,0.04630104452371597,0
63,100,0.4772727272727273,317,0,4,Guitar,6,8,Stems,0.04504598304629326,0
63,100,0.1409090909090909,554,1,4,Guitar,6,2,Stems,0.055453818291425705,0
63,100,0.11818181818181818,611,0,4,Guitar,6,2,Stems,0.060491278767585754,0
63,100,0.1590909090909091,695,0,4,Guitar,6,3,Stems,0.06995905935764313,0
63,100,0.11818181818181818,792,0,4,Guitar,6,2,Stems,0.06314294040203094,0
63,100,0.18181818181818182,145,1,5,Guitar,6,3,Stems,0.9998254179954529,1
63,100,0.1409090909090909,211,0,5,Guitar,6,2,Stems,0.40568944811820984,0
63,100,0.2772727272727273,655,1,5,Guitar,6,4,Stems,0.43290892243385315,0
63,100,0.13636363636363635,348,1,6,Guitar,6,2,Stems,0.999625563621521,1
63,100,0.1590909090909091,739,1,6,Guitar,6,3,Stems,0.5538715720176697,0
55,100,0.2,123,1,8,Guitar,6,3,Stems,0.9928838014602661,0
56,100,0.12272727272727273,211,1,9,Guitar,6,2,Stems,0.9998268485069275,1
63,100,0.11818181818181818,259,0,9,Guitar,6,2,Stems,0.4098801016807556,0
63,100,0.12272727272727273,355,0,9,Guitar,6,2,Stems,0.42527714371681213,0
65,100,0.12272727272727273,642,1,10,Guitar,6,2,Stems,0.9936337471008301,0
63,100,0.16363636363636364,180,1,13,Guitar,6,3,Stems,0.9998505115509033,1
63,100,0.1,268,0,13,Guitar,6,2,Stems,0.32362839579582214,0
56,100,0.3409090909090909,360,0,13,Guitar,6,5,Stems,0.29177752137184143,0
56,100,0.18181818181818182,663,1,13,Guitar,6,3,Stems,0.316915363073349,0
58,100,0.2,44,1,14,Guitar,6,3,Stems,0.9995844960212708,1
63,100,0.1590909090909091,118,0,14,Guitar,6,3,Stems,0.5587946772575378,0
55,100,0.17727272727272728,52,1,16,Guitar,6,3,Stems,0.9997952580451965,1
63,100,0.11818181818181818,220,0,16,Guitar,6,2,Stems,0.12845762073993683,0
55,100,0.1,254,0,16,Guitar,6,2,Stems,0.12168943881988525,0
63,100,0.11818181818181818,351,0,16,Guitar,6,2,Stems,0.13254240155220032,0
63,100,0.13636363636363635,436,0,16,Guitar,6,2,Stems,0.14647412300109863,0
63,100,0.21818181818181817,492,0,16,Guitar,6,3,Stems,0.1372915357351303,0
58,100,0.11818181818181818,845,1,17,Guitar,6,2,Stems,0.9924314022064209,0
56,100,0.11818181818181818,700,1,18,Guitar,6,2,Stems,0.9996446371078491,1
56,100,0.11818181818181818,735,0,18,Guitar,6,2,Stems,0.549787700176239,0
56,100,0.3181818181818182,88,1,19,Guitar,6,5,Stems,0.9996212720870972,1
56,100,0.1,347,1,19,Guitar,6,2,Stems,0.5568011403083801,0
56,100,0.1590909090909091,65,1,21,Guitar,6,3,Stems,0.9998389482498169,1
63,100,0.1590909090909091,185,0,21,Guitar,6,3,Stems,0.2013891339302063,0
63,100,0.22272727272727272,268,0,21,Guitar,6,4,Stems,0.19161199033260345,0
63,100,0.11818181818181818,339,0,21,Guitar,6,2,Stems,0.2098812311887741,0
63,100,0.17727272727272728,735,1,21,Guitar,6,3,Stems,0.2092115879058838,0
63,100,0.12272727272727273,553,1,22,Guitar,6,2,Stems,0.993075966835022,0
63,100,0.1,633,1,23,Guitar,6,2,Stems,0.9996296167373657,1
63,100,0.5772727272727273,876,1,23,Guitar,6,9,Stems,0.5387042760848999,0
63,100,0.11818181818181818,131,1,24,Guitar,6,2,Stems,0.9996227025985718,1
63,100,0.18181818181818182,285,0,24,Guitar,6,3,Stems,0.5470598936080933,0
58,100,0.1590909090909091,691,1,25,Guitar,6,3,Stems,0.9925599098205566,0
63,100,0.11818181818181818,590,1,26,Guitar,6,2,Stems,0.9998399019241333,1
64,100,0.1590909090909091,625,0,26,Guitar,6,3,Stems,0.41880011558532715,0
68,100,0.32272727272727275,804,0,26,Guitar,6,5,Stems,0.41514483094215393,0
63,100,0.1409090909090909,822,1,27,Guitar,6,2,Stems,0.993308424949646,0
62,100,0.12272727272727273,202,1,29,Guitar,6,2,Stems,0.9996365308761597,1
63,100,0.1590909090909091,810,1,29,Guitar,6,3,Stems,0.5467881560325623,0
67,100,0.11818181818181818,0,1,30,Guitar,6,2,Stems,0.9996127486228943,1
63,100,0.21818181818181817,866,1,30,Guitar,6,3,Stems,0.5503276586532593,0
63,100,0.2818181818181818,113,1,31,Guitar,6,5,Stems,0.99980229139328,1
63,100,0.22272727272727272,254,0,31,Guitar,6,4,Stems,0.12598274648189545,0
63,100,0.18181818181818182,422,0,31,Guitar,6,3,Stems,0.11935526877641678,0
63,100,0.2590909090909091,528,0,31,Guitar,6,4,Stems,0.13564971089363098,0
63,100,0.6,598,0,31,Guitar,6,10,Stems,0.14070655405521393,0
56,100,0.17727272727272728,822,0,31,Guitar,6,3,Stems,0.1470537632703781,0
63,100,0.11818181818181818,303,1,32,Guitar,6,2,Stems,0.9930013418197632,0
63,100,0.3,408,1,33,Guitar,6,5,Stems,0.993010938167572,0
63,100,0.1590909090909091,391,1,34,Guitar,6,3,Stems,0.9930323362350464,0
65,100,0.17727272727272728,163,1,35,Guitar,6,3,Stems,0.9998520612716675,1
58,100,0.2818181818181818,298,0,35,Guitar,6,5,Stems,0.30229607224464417,0
58,100,0.12272727272727273,474,0,35,Guitar,6,2,Stems,0.29238975048065186,0
63,100,0.11818181818181818,735,1,35,Guitar,6,2,Stems,0.3265816271305084,0
63,100,0.11818181818181818,110,1,36,Guitar,6,2,Stems,0.9998488426208496,1
63,100,0.2,246,0,36,Guitar,6,3,Stems,0.32248038053512573,0
58,100,0.2,316,0,36,Guitar,6,3,Stems,0.2883930802345276,0
63,100,0.18181818181818182,651,1,36,Guitar,6,3,Stems,0.3209400475025177,0
63,100,0.22272727272727272,179,1,37,Guitar,6,4,Stems,0.9998480081558228,1
63,100,0.11818181818181818,295,0,37,Guitar,6,2,Stems,0.3304744064807892,0
58,100,0.1590909090909091,743,1,37,Guitar,6,3,Stems,0.29387080669403076,0
58,100,0.22272727272727272,871,0,37,Guitar,6,4,Stems,0.3125377595424652,0
58,100,0.2,66,1,38,Guitar,6,3,Stems,0.9997943043708801,1
58,100,0.3,118,0,38,Guitar,6,5,Stems,0.12732501327991486,0
58,100,0.11818181818181818,215,0,38,Guitar,6,2,Stems,0.1296740472316742,0
58,100,0.11818181818181818,295,0,38,Guitar,6,2,Stems,0.1475801020860672,0
58,100,0.1590909090909091,343,0,38,Guitar,6,3,Stems,0.15255014598369598,0
58,100,0.18181818181818182,396,0,38,Guitar,6,3,Stems,0.1410655379295349,0
53,100,0.2409090909090909,66,1,39,Guitar,6,4,Stems,0.9998112320899963,1
63,100,0.22272727272727272,211,0,39,Guitar,6,4,Stems,0.11878202110528946,0
55,100,0.1409090909090909,289,0,39,Guitar,6,2,Stems,0.12373997271060944,0
55,100,0.18181818181818182,351,0,39,Guitar,6,3,Stems,0.13412636518478394,0
62,100,0.37727272727272726,480,0,39,Guitar,6,6,Stems,0.148671492934227,0
63,100,0.21818181818181817,748,1,39,Guitar,6,3,Stems,0.1340925246477127,0
58,100,0.16363636363636364,26,1,40,Guitar,6,3,Stems,0.9998179078102112,1
58,100,0.17727272727272728,83,0,40,Guitar,6,3,Stems,0.21057787537574768,0
53,100,0.2409090909090909,286,0,40,Guitar,6,4,Stems,0.2119511216878891,0
53,100,0.18181818181818182,364,0,40,Guitar,6,3,Stems,0.21244876086711884,0
55,100,0.11818181818181818,493,0,40,Guitar,6,2,Stems,0.20915170013904572,0
63,100,0.2772727272727273,141,1,41,Guitar,6,4,Stems,0.9998176693916321,1
65,100,0.22272727272727272,496,1,41,Guitar,6,4,Stems,0.43609634041786194,0
67,100,0.18181818181818182,783,1,41,Guitar,6,3,Stems,0.4195590317249298,0
62,100,0.21818181818181817,31,1,42,Guitar,6,3,Stems,0.9998514652252197,1
62,100,0.22272727272727272,166,0,42,Guitar,6,4,Stems,0.32161515951156616,0
63,100,0.41818181818181815,286,0,42,Guitar,6,7,Stems,0.2834251821041107,0
63,100,0.3181818181818182,625,1,42,Guitar,6,5,Stems,0.3163546323776245,0
58,100,0.1,166,1,43,Guitar,6,2,Stems,0.999813973903656,1
63,100,0.18181818181818182,421,1,43,Guitar,6,3,Stems,0.42918094992637634,0
63,100,0.2409090909090909,726,1,43,Guitar,6,4,Stems,0.4308055639266968,0
58,100,0.1590909090909091,53,1,44,Guitar,6,3,Stems,0.9997826218605042,1
58,100,0.22272727272727272,453,1,44,Guitar,6,4,Stems,0.13676714897155762,0
58,100,0.18181818181818182,593,0,44,Guitar,6,3,Stems,0.12643608450889587,0
58,100,0.1409090909090909,716,0,44,Guitar,6,2,Stems,0.15083035826683044,0
57,100,0.11818181818181818,748,0,44,Guitar,6,2,Stems,0.1582465022802353,0
58,100,0.2,853,0,44,Guitar,6,3,Stems,0.1353992223739624,0
53,100,0.4590909090909091,53,1,45,Guitar,6,7,Stems,0.999716579914093,1
53,100,0.21818181818181817,193,0,45,Guitar,6,3,Stems,0.05871606990695,0
53,100,0.11818181818181818,281,0,45,Guitar,6,2,Stems,0.04823571443557739,0
56,100,0.11818181818181818,413,0,45,Guitar,6,2,Stems,0.048092588782310486,0
56,100,0.11818181818181818,536,0,45,Guitar,6,2,Stems,0.051763370633125305,0
53,100,0.3409090909090909,581,0,45,Guitar,6,5,Stems,0.05806903913617134,0
55,100,0.3,664,0,45,Guitar,6,5,Stems,0.06596262007951736,0
55,100,0.2772727272727273,801,0,45,Guitar,6,4,Stems,0.060350824147462845,0
55,100,0.4818181818181818,56,1,46,Guitar,6,8,Stems,0.9998244643211365,1
55,100,0.22272727272727272,188,0,46,Guitar,6,4,Stems,0.2185516357421875,0
56,100,0.2409090909090909,466,1,46,Guitar,6,4,Stems,0.20880863070487976,0
56,100,0.22272727272727272,606,0,46,Guitar,6,4,Stems,0.2078418731689453,0
56,100,0.3409090909090909,871,1,46,Guitar,6,5,Stems,0.2023441344499588,0
56,100,0.36363636363636365,136,1,47,Guitar,6,6,Stems,0.9998002648353577,1
56,100,0.2409090909090909,273,0,47,Guitar,6,4,Stems,0.13818836212158203,0
58,100,0.22272727272727272,488,0,47,Guitar,6,4,Stems,0.12500016391277313,0
58,100,0.4772727272727273,545,0,47,Guitar,6,8,Stems,0.13375209271907806,0
58,100,0.3,673,0,47,Guitar,6,5,Stems,0.1568879336118698,0
58,100,0.17727272727272728,823,0,47,Guitar,6,3,Stems,0.14279408752918243,0
53,100,0.1409090909090909,21,1,48,Guitar,6,2,Stems,0.9998111128807068,1
58,100,0.3,69,0,48,Guitar,6,5,Stems,0.11848549544811249,0
58,100,0.5636363636363636,201,0,48,Guitar,6,9,Stems,0.12652790546417236,0
58,100,0.12272727272727273,334,0,48,Guitar,6,2,Stems,0.1529269516468048,0
58,100,0.3,405,0,48,Guitar,6,5,Stems,0.15250171720981598,0
58,100,0.3,474,0,48,Guitar,6,5,Stems,0.13788211345672607,0
53,100,0.5181818181818182,40,1,50,Guitar,6,8,Stems,0.9995855689048767,1
53,100,0.2818181818181818,444,1,50,Guitar,6,5,Stems,0.5601709485054016,0
53,100,0.11818181818181818,853,1,51,Guitar,6,2,Stems,0.9933953881263733,0
58,100,0.1590909090909091,628,1,52,Guitar,6,3,Stems,0.99958735704422,1
63,100,0.21818181818181817,735,0,52,Guitar,6,3,Stems,0.5613576173782349,0
63,100,0.11818181818181818,198,1,53,Guitar,6,2,Stems,0.9998353719711304,1
63,100,0.2,268,0,53,Guitar,6,3,Stems,0.39770078659057617,0
63,100,0.3409090909090909,408,0,53,Guitar,6,5,Stems,0.43114614486694336,0
63,100,0.18181818181818182,708,1,54,Guitar,6,3,Stems,0.9932512640953064,1
63,100,0.2409090909090909,153,1,55,Guitar,6,4,Stems,0.9930642247200012,0
63,100,0.12272727272727273,444,1,58,Guitar,6,2,Stems,0.9931002855300903,0
63,100,0.1409090909090909,343,1,61,Guitar,6,2,Stems,0.9996261596679688,1
63,100,0.18181818181818182,751,1,61,Guitar,6,3,Stems,0.5511305332183838,0
63,100,0.4590909090909091,848,1,63,Guitar,6,7,Stems,0.9925801157951355,0
63,100,0.1,87,1,64,Guitar,6,2,Stems,0.9998279809951782,1
63,100,0.2818181818181818,145,0,64,Guitar,6,5,Stems,0.40551891922950745,0
56,100,0.35909090909090907,866,1,64,Guitar,6,6,Stems,0.4318183958530426,0
56,100,0.17727272727272728,713,1,65,Guitar,6,3,Stems,0.9934386610984802,0
58,100,0.1,74,1,69,Guitar,6,2,Stems,0.9998449087142944,1
63,100,0.2,140,0,69,Guitar,6,3,Stems,0.32384827733039856,0
53,100,0.1,282,0,69,Guitar,6,2,Stems,0.29832279682159424,0
53,100,0.11818181818181818,677,1,69,Guitar,6,2,Stems,0.31349971890449524,0
53,100,0.2,153,1,70,Guitar,6,3,Stems,0.999839186668396,1
53,100,0.12272727272727273,356,0,70,Guitar,6,2,Stems,0.40802448987960815,0
53,100,0.18181818181818182,422,0,70,Guitar,6,3,Stems,0.41999369859695435,0
70,100,0.17727272727272728,17,1,71,Guitar,6,3,Stems,0.9995911717414856,1
58,100,0.2,96,0,71,Guitar,6,3,Stems,0.5533769726753235,0
58,100,0.1,136,1,73,Guitar,6,2,Stems,0.9996073842048645,1
62,100,0.1,734,1,73,Guitar,6,2,Stems,0.5650672316551208,0
63,100,0.1590909090909091,233,1,77,Guitar,6,3,Stems,0.9929867386817932,0
63,100,0.11818181818181818,792,1,78,Guitar,6,2,Stems,0.9931113719940186,0
63,100,0.1,246,1,79,Guitar,6,2,Stems,0.9932042360305786,1
63,100,0.11818181818181818,726,1,81,Guitar,6,2,Stems,0.993154764175415,0
53,100,0.17727272727272728,127,1,82,Guitar,6,3,Stems,0.9998276233673096,1
53,100,0.2,184,0,82,Guitar,6,3,Stems,0.41837191581726074,0
53,100,0.18181818181818182,663,1,82,Guitar,6,3,Stems,0.42471909523010254,0
63,100,0.12272727272727273,3,1,83,Guitar,6,2,Stems,0.9996222257614136,1
58,100,0.2,677,1,83,Guitar,6,3,Stems,0.5451368689537048,0
67,100,0.2818181818181818,132,1,84,Guitar,6,5,Stems,0.9998435974121094,1
62,100,0.3181818181818182,263,0,84,Guitar,6,5,Stems,0.32934659719467163,0
63,100,0.6818181818181818,483,0,84,Guitar,6,11,Stems,0.28513652086257935,0
70,100,0.1,686,0,84,Guitar,6,2,Stems,0.3253041207790375,0
70,100,0.1,26,1,85,Guitar,6,2,Stems,0.9997099041938782,1
65,100,0.1,220,0,85,Guitar,6,2,Stems,0.060756880789995193,0
67,100,0.2,289,0,85,Guitar,6,3,Stems,0.04645296186208725,0
67,100,0.2590909090909091,404,0,85,Guitar,6,4,Stems,0.048943206667900085,0
62,100,0.2590909090909091,480,0,85,Guitar,6,4,Stems,0.05491721257567406,0
62,100,0.5227272727272727,553,0,85,Guitar,6,8,Stems,0.05796733498573303,0
63,100,0.3409090909090909,703,0,85,Guitar,6,5,Stems,0.06972513347864151,0
63,100,0.4,783,0,85,Guitar,6,6,Stems,0.06261753290891647,0
63,100,0.2590909090909091,13,1,86,Guitar,6,4,Stems,0.9998517036437988,1
56,100,0.1409090909090909,365,1,86,Guitar,6,2,Stems,0.33211448788642883,0
63,100,0.1,443,0,86,Guitar,6,2,Stems,0.29246240854263306,0
65,100,0.11818181818181818,734,1,86,Guitar,6,2,Stems,0.3061918020248413,0
63,100,0.11818181818181818,722,1,88,Guitar,6,2,Stems,0.99349445104599,1
63,100,0.2590909090909091,106,1,89,Guitar,6,4,Stems,0.9930710196495056,0
55,100,0.5363636363636364,523,1,90,Guitar,6,9,Stems,0.999552309513092,1
55,100,0.7772727272727272,646,0,90,Guitar,6,12,Stems,0.5499432682991028,0
58,100,0.18181818181818182,597,1,97,Guitar,6,3,Stems,0.9924252033233643,1
58,100,0.2409090909090909,870,1,105,Guitar,6,4,Stems,0.9922405481338501,0
65,100,0.1590909090909091,197,1,106,Guitar,6,3,Stems,0.9998375177383423,1
65,100,0.17727272727272728,273,0,106,Guitar,6,3,Stems,0.4068171977996826,0
62,100,0.2,616,1,106,Guitar,6,3,Stems,0.4220981001853943,0
63,100,0.5181818181818182,22,1,107,Guitar,6,8,Stems,0.9995872378349304,1
62,100,0.2590909090909091,823,1,107,Guitar,6,4,Stems,0.5680142045021057,0
62,100,0.2409090909090909,13,1,108,Guitar,6,4,Stems,0.9998356103897095,1
65,100,0.2,637,1,108,Guitar,6,3,Stems,0.41068539023399353,0
65,100,0.2590909090909091,690,0,108,Guitar,6,4,Stems,0.42161521315574646,0
62,100,0.3,163,1,109,Guitar,6,5,Stems,0.9998356103897095,1
62,100,0.1409090909090909,242,0,109,Guitar,6,2,Stems,0.20996762812137604,0
63,100,0.21818181818181817,383,0,109,Guitar,6,3,Stems,0.18915417790412903,0
63,100,0.16363636363636364,443,0,109,Guitar,6,3,Stems,0.2189672738313675,0
63,100,0.1,509,0,109,Guitar,6,2,Stems,0.2090161293745041,0
58,100,0.1409090909090909,163,1,110,Guitar,6,2,Stems,0.999591052532196,1
63,100,0.17727272727272728,237,0,110,Guitar,6,3,Stems,0.5614446401596069,0
70,100,0.11818181818181818,417,1,111,Guitar,6,2,Stems,0.9926527738571167,1
58,100,0.38181818181818183,817,1,1,DL_warm_Guitar,6,6,omokagewarmruriko,0.9921633005142212,0
58,100,0.17727272727272728,259,1,2,DL_warm_Guitar,6,3,omokagewarmruriko,0.9998218417167664,1
58,100,0.2818181818181818,330,0,2,DL_warm_Guitar,6,5,omokagewarmruriko,0.21998220682144165,0
55,100,0.1,501,0,2,DL_warm_Guitar,6,2,omokagewarmruriko,0.21840427815914154,0
58,100,0.18181818181818182,528,0,2,DL_warm_Guitar,6,3,omokagewarmruriko,0.2107929140329361,0
58,100,0.759090909090909,607,0,2,DL_warm_Guitar,6,12,omokagewarmruriko,0.20501010119915009,0
58,100,0.7227272727272728,510,1,3,DL_warm_Guitar,6,12,omokagewarmruriko,0.9995187520980835,1
58,100,0.36363636363636365,840,1,3,DL_warm_Guitar,6,6,omokagewarmruriko,0.5685915946960449,0
58,100,0.1409090909090909,43,1,4,DL_warm_Guitar,6,2,omokagewarmruriko,0.9995875954627991,1
58,100,0.5818181818181818,770,1,4,DL_warm_Guitar,6,9,omokagewarmruriko,0.5390387177467346,0
58,100,0.5,43,1,5,DL_warm_Guitar,6,8,omokagewarmruriko,0.999797523021698,1
58,100,0.2409090909090909,232,0,5,DL_warm_Guitar,6,4,omokagewarmruriko,0.4426545798778534,0
58,100,0.2636363636363636,818,1,5,DL_warm_Guitar,6,4,omokagewarmruriko,0.43316081166267395,0
58,100,0.8409090909090909,56,1,6,DL_warm_Guitar,6,13,omokagewarmruriko,0.9997937083244324,1
58,100,0.5227272727272727,268,0,6,DL_warm_Guitar,6,8,omokagewarmruriko,0.2298910915851593,0
58,100,0.16363636363636364,399,0,6,DL_warm_Guitar,6,3,omokagewarmruriko,0.2261323183774948,0
58,100,0.2,440,0,6,DL_warm_Guitar,6,3,omokagewarmruriko,0.22832322120666504,0
58,100,0.2590909090909091,770,1,6,DL_warm_Guitar,6,4,omokagewarmruriko,0.22315281629562378,0
58,100,0.3409090909090909,69,1,7,DL_warm_Guitar,6,5,omokagewarmruriko,0.999824583530426,1
58,100,0.2409090909090909,299,0,7,DL_warm_Guitar,6,4,omokagewarmruriko,0.34887418150901794,0
58,100,0.32272727272727275,355,0,7,DL_warm_Guitar,6,5,omokagewarmruriko,0.2967001497745514,0
58,100,0.16363636363636364,444,0,7,DL_warm_Guitar,6,3,omokagewarmruriko,0.32937246561050415,0
58,100,0.13636363636363635,171,1,8,DL_warm_Guitar,6,2,omokagewarmruriko,0.9998107552528381,1
58,100,0.11818181818181818,646,1,8,DL_warm_Guitar,6,2,omokagewarmruriko,0.4239853024482727,0
56,100,0.1,721,0,8,DL_warm_Guitar,6,2,omokagewarmruriko,0.44837114214897156,0
58,100,0.1,391,1,9,DL_warm_Guitar,6,2,omokagewarmruriko,0.9998084902763367,1
58,100,0.5409090909090909,651,1,9,DL_warm_Guitar,6,9,omokagewarmruriko,0.41036102175712585,0
58,100,0.3,818,0,9,DL_warm_Guitar,6,5,omokagewarmruriko,0.44105368852615356,0
58,100,0.5772727272727273,75,1,10,DL_warm_Guitar,6,9,omokagewarmruriko,0.9917275905609131,0
58,100,0.5,53,1,11,DL_warm_Guitar,6,8,omokagewarmruriko,0.9997960925102234,1
58,100,0.6,166,0,11,DL_warm_Guitar,6,10,omokagewarmruriko,0.22164307534694672,0
58,100,0.5818181818181818,307,0,11,DL_warm_Guitar,6,9,omokagewarmruriko,0.21196673810482025,0
58,100,0.32272727272727275,443,0,11,DL_warm_Guitar,6,5,omokagewarmruriko,0.2450740933418274,0
60,100,0.740909090909091,826,1,11,DL_warm_Guitar,6,12,omokagewarmruriko,0.229349285364151,0
58,100,1.1590909090909092,132,1,12,DL_warm_Guitar,6,15,omokagewarmruriko,0.9997830986976624,1
58,100,0.41818181818181815,414,1,12,DL_warm_Guitar,6,7,omokagewarmruriko,0.23934829235076904,0
55,100,0.12272727272727273,541,0,12,DL_warm_Guitar,6,2,omokagewarmruriko,0.21822787821292877,0
55,100,0.1409090909090909,572,0,12,DL_warm_Guitar,6,2,omokagewarmruriko,0.22429387271404266,0
55,100,0.13636363636363635,611,0,12,DL_warm_Guitar,6,2,omokagewarmruriko,0.21657821536064148,0
60,100,0.3,158,1,13,DL_warm_Guitar,6,5,omokagewarmruriko,0.9996399879455566,1
58,100,0.1409090909090909,862,1,13,DL_warm_Guitar,6,2,omokagewarmruriko,0.5430473685264587,0
58,100,0.21818181818181817,660,1,14,DL_warm_Guitar,6,3,omokagewarmruriko,0.9996035695075989,1
58,100,0.11818181818181818,854,0,14,DL_warm_Guitar,6,2,omokagewarmruriko,0.5534946918487549,0
58,100,0.4818181818181818,3,1,15,DL_warm_Guitar,6,8,omokagewarmruriko,0.9998229146003723,1
67,100,0.1409090909090909,189,0,15,DL_warm_Guitar,6,2,omokagewarmruriko,0.3598327338695526,0
58,100,0.8,254,0,15,DL_warm_Guitar,6,13,omokagewarmruriko,0.2785893976688385,0
58,100,0.11818181818181818,876,1,15,DL_warm_Guitar,6,2,omokagewarmruriko,0.33877328038215637,0
58,100,0.6818181818181818,110,1,16,DL_warm_Guitar,6,11,omokagewarmruriko,0.999815046787262,1
58,100,0.1409090909090909,364,1,16,DL_warm_Guitar,6,2,omokagewarmruriko,0.36753949522972107,0
58,100,0.22272727272727272,430,0,16,DL_warm_Guitar,6,4,omokagewarmruriko,0.308956116437912,0
58,100,0.3409090909090909,691,1,16,DL_warm_Guitar,6,5,omokagewarmruriko,0.3195587992668152,0
58,100,0.1409090909090909,21,1,17,DL_warm_Guitar,6,2,omokagewarmruriko,0.9998335838317871,1
58,100,0.5409090909090909,246,0,17,DL_warm_Guitar,6,9,omokagewarmruriko,0.3159286081790924,0
58,100,0.9590909090909091,497,1,17,DL_warm_Guitar,6,15,omokagewarmruriko,0.2969612181186676,0
58,100,0.16363636363636364,729,1,17,DL_warm_Guitar,6,3,omokagewarmruriko,0.34951555728912354,0
58,100,0.1590909090909091,260,1,18,DL_warm_Guitar,6,3,omokagewarmruriko,0.9998027682304382,1
56,100,0.17727272727272728,691,1,18,DL_warm_Guitar,6,3,omokagewarmruriko,0.45141491293907166,0
58,100,0.6409090909090909,752,0,18,DL_warm_Guitar,6,10,omokagewarmruriko,0.4177790582180023,0
58,100,0.11818181818181818,30,1,19,DL_warm_Guitar,6,2,omokagewarmruriko,0.9997898936271667,1
58,100,0.38181818181818183,92,0,19,DL_warm_Guitar,6,6,omokagewarmruriko,0.127272829413414,0
58,100,0.16363636363636364,179,0,19,DL_warm_Guitar,6,3,omokagewarmruriko,0.1342409998178482,0
58,100,0.1590909090909091,320,0,19,DL_warm_Guitar,6,3,omokagewarmruriko,0.14673171937465668,0
58,100,0.5818181818181818,488,0,19,DL_warm_Guitar,6,9,omokagewarmruriko,0.15107586979866028,0
58,100,0.5772727272727273,721,1,19,DL_warm_Guitar,6,9,omokagewarmruriko,0.14773418009281158,0
58,100,0.740909090909091,92,1,20,DL_warm_Guitar,6,12,omokagewarmruriko,0.9997965693473816,1
58,100,0.1409090909090909,268,0,20,DL_warm_Guitar,6,2,omokagewarmruriko,0.24891087412834167,0
58,100,0.1409090909090909,316,0,20,DL_warm_Guitar,6,2,omokagewarmruriko,0.21998299658298492,0
58,100,0.8409090909090909,351,0,20,DL_warm_Guitar,6,13,omokagewarmruriko,0.2098003327846527,0
58,100,1.018181818181818,669,1,20,DL_warm_Guitar,6,15,omokagewarmruriko,0.23230788111686707,0
58,100,0.2590909090909091,61,1,21,DL_warm_Guitar,6,4,omokagewarmruriko,0.9998047947883606,1
58,100,1.3,123,0,21,DL_warm_Guitar,6,15,omokagewarmruriko,0.18873293697834015,0
63,100,0.21818181818181817,413,1,21,DL_warm_Guitar,6,3,omokagewarmruriko,0.24125726521015167,0
67,100,0.1409090909090909,470,0,21,DL_warm_Guitar,6,2,omokagewarmruriko,0.22579620778560638,0
55,100,0.2,540,0,21,DL_warm_Guitar,6,3,omokagewarmruriko,0.222355917096138,0
60,100,0.11818181818181818,330,1,22,DL_warm_Guitar,6,2,omokagewarmruriko,0.9996629953384399,1
60,100,0.2590909090909091,559,0,22,DL_warm_Guitar,6,4,omokagewarmruriko,0.5403169989585876,0
67,100,0.2818181818181818,607,1,23,DL_warm_Guitar,6,5,omokagewarmruriko,0.9926194548606873,0
58,100,0.2,61,1,24,DL_warm_Guitar,6,3,omokagewarmruriko,0.9998171925544739,1
58,100,0.3,343,1,24,DL_warm_Guitar,6,5,omokagewarmruriko,0.2191094309091568,0
58,100,0.1,540,0,24,DL_warm_Guitar,6,2,omokagewarmruriko,0.21518227458000183,0
58,100,0.2,743,0,24,DL_warm_Guitar,6,3,omokagewarmruriko,0.21659602224826813,0
58,100,0.6772727272727272,822,0,24,DL_warm_Guitar,6,11,omokagewarmruriko,0.21300305426120758,0
58,100,0.37727272727272726,162,1,25,DL_warm_Guitar,6,6,omokagewarmruriko,0.9997789263725281,1
58,100,0.9590909090909091,277,0,25,DL_warm_Guitar,6,15,omokagewarmruriko,0.12392561137676239,0
62,100,0.11818181818181818,528,1,25,DL_warm_Guitar,6,2,omokagewarmruriko,0.15303200483322144,0
58,100,0.2772727272727273,567,0,25,DL_warm_Guitar,6,4,omokagewarmruriko,0.13735127449035645,0
62,100,0.1409090909090909,669,0,25,DL_warm_Guitar,6,2,omokagewarmruriko,0.16995079815387726,0
58,100,0.6,770,0,25,DL_warm_Guitar,6,10,omokagewarmruriko,0.133982315659523,0
58,100,0.2,123,1,26,DL_warm_Guitar,6,3,omokagewarmruriko,0.9997450709342957,1
58,100,0.3181818181818182,175,0,26,DL_warm_Guitar,6,5,omokagewarmruriko,0.08845870941877365,0
58,100,0.5772727272727273,272,0,26,DL_warm_Guitar,6,9,omokagewarmruriko,0.07614246755838394,0
58,100,0.11818181818181818,413,0,26,DL_warm_Guitar,6,2,omokagewarmruriko,0.0950273871421814,0
58,100,0.5,461,0,26,DL_warm_Guitar,6,8,omokagewarmruriko,0.09701032936573029,0
58,100,0.2636363636363636,619,0,26,DL_warm_Guitar,6,4,omokagewarmruriko,0.11394580453634262,0
58,100,0.2590909090909091,831,0,26,DL_warm_Guitar,6,4,omokagewarmruriko,0.09614235907793045,0
58,100,0.6227272727272727,69,1,27,DL_warm_Guitar,6,10,omokagewarmruriko,0.9997977614402771,1
60,100,0.17727272727272728,260,0,27,DL_warm_Guitar,6,3,omokagewarmruriko,0.2543438971042633,0
58,100,0.6227272727272727,333,0,27,DL_warm_Guitar,6,10,omokagewarmruriko,0.19268985092639923,0
58,100,1.4636363636363636,488,0,27,DL_warm_Guitar,6,15,omokagewarmruriko,0.21947531402111053,0
56,100,0.43636363636363634,831,1,27,DL_warm_Guitar,6,7,omokagewarmruriko,0.2474919557571411,0
68,100,0.35909090909090907,144,1,28,DL_warm_Guitar,6,6,omokagewarmruriko,0.9998328685760498,1
68,100,0.4772727272727273,237,0,28,DL_warm_Guitar,6,8,omokagewarmruriko,0.2058010697364807,0
68,100,0.4590909090909091,387,0,28,DL_warm_Guitar,6,7,omokagewarmruriko,0.1984024941921234,0
58,100,0.13636363636363635,677,1,28,DL_warm_Guitar,6,2,omokagewarmruriko,0.21219125390052795,0
56,100,0.1590909090909091,787,0,28,DL_warm_Guitar,6,3,omokagewarmruriko,0.21495825052261353,0
68,100,0.2590909090909091,96,1,29,DL_warm_Guitar,6,4,omokagewarmruriko,0.9998268485069275,1
58,100,0.1409090909090909,229,0,29,DL_warm_Guitar,6,2,omokagewarmruriko,0.40525922179222107,0
58,100,0.4,804,1,29,DL_warm_Guitar,6,6,omokagewarmruriko,0.42738786339759827,0
58,100,0.3409090909090909,57,1,30,DL_warm_Guitar,6,5,omokagewarmruriko,0.9998177886009216,1
58,100,0.2590909090909091,254,0,30,DL_warm_Guitar,6,4,omokagewarmruriko,0.3584897816181183,0
58,100,0.6409090909090909,387,0,30,DL_warm_Guitar,6,10,omokagewarmruriko,0.3011830151081085,0
58,100,2.0,804,1,30,DL_warm_Guitar,6,15,omokagewarmruriko,0.3177396059036255,0
58,100,0.7227272727272728,453,1,31,DL_warm_Guitar,6,12,omokagewarmruriko,0.9998117089271545,1
58,100,0.5818181818181818,619,0,31,DL_warm_Guitar,6,9,omokagewarmruriko,0.34717249870300293,0
60,100,0.17727272727272728,801,0,31,DL_warm_Guitar,6,3,omokagewarmruriko,0.33695343136787415,0
70,100,0.2590909090909091,845,0,31,DL_warm_Guitar,6,4,omokagewarmruriko,0.3083965480327606,0
63,100,0.36363636363636365,48,1,32,DL_warm_Guitar,6,6,omokagewarmruriko,0.9998365640640259,1
58,100,0.5590909090909091,166,0,32,DL_warm_Guitar,6,9,omokagewarmruriko,0.3106604218482971,0
58,100,1.018181818181818,435,1,32,DL_warm_Guitar,6,15,omokagewarmruriko,0.30266833305358887,0
58,100,0.7227272727272728,694,1,32,DL_warm_Guitar,6,12,omokagewarmruriko,0.3402463495731354,0
68,100,0.36363636363636365,69,1,33,DL_warm_Guitar,6,6,omokagewarmruriko,0.9998266100883484,1
68,100,0.1409090909090909,188,0,33,DL_warm_Guitar,6,2,omokagewarmruriko,0.22030726075172424,0
60,100,0.9636363636363636,268,0,33,DL_warm_Guitar,6,15,omokagewarmruriko,0.1885002851486206,0
58,100,0.6227272727272727,673,1,33,DL_warm_Guitar,6,10,omokagewarmruriko,0.2124498188495636,0
68,100,0.2409090909090909,823,0,33,DL_warm_Guitar,6,4,omokagewarmruriko,0.23093698918819427,0
58,100,0.12272727272727273,201,1,34,DL_warm_Guitar,6,2,omokagewarmruriko,0.9995847344398499,1
58,100,0.5409090909090909,581,1,34,DL_warm_Guitar,6,9,omokagewarmruriko,0.538641095161438,0
58,100,0.1,251,1,35,DL_warm_Guitar,6,2,omokagewarmruriko,0.9997960925102234,1
58,100,0.7818181818181819,364,0,35,DL_warm_Guitar,6,13,omokagewarmruriko,0.1188831776380539,0
70,100,0.3,655,1,35,DL_warm_Guitar,6,5,omokagewarmruriko,0.13756608963012695,0
62,100,0.17727272727272728,778,0,35,DL_warm_Guitar,6,3,omokagewarmruriko,0.15591512620449066,0
62,100,0.1590909090909091,823,0,35,DL_warm_Guitar,6,3,omokagewarmruriko,0.1580488532781601,0
58,100,0.740909090909091,866,0,35,DL_warm_Guitar,6,12,omokagewarmruriko,0.13068416714668274,0
70,100,0.3,193,1,36,DL_warm_Guitar,6,5,omokagewarmruriko,0.9997335076332092,1
58,100,0.4590909090909091,260,0,36,DL_warm_Guitar,6,7,omokagewarmruriko,0.080027274787426,0
58,100,0.4636363636363636,378,0,36,DL_warm_Guitar,6,7,omokagewarmruriko,0.08153089135885239,0
58,100,0.6,515,0,36,DL_warm_Guitar,6,10,omokagewarmruriko,0.08397373557090759,0
70,100,0.11818181818181818,646,0,36,DL_warm_Guitar,6,2,omokagewarmruriko,0.10564005374908447,0
55,100,0.2818181818181818,686,0,36,DL_warm_Guitar,6,5,omokagewarmruriko,0.11008947342634201,0
60,100,0.11818181818181818,801,0,36,DL_warm_Guitar,6,2,omokagewarmruriko,0.10057040303945541,0
58,100,0.3,8,1,37,DL_warm_Guitar,6,5,omokagewarmruriko,0.9997379183769226,1
58,100,0.1590909090909091,166,0,37,DL_warm_Guitar,6,3,omokagewarmruriko,0.08848734945058823,0
58,100,1.0227272727272727,211,0,37,DL_warm_Guitar,6,15,omokagewarmruriko,0.07207311689853668,0
70,100,0.2,435,0,37,DL_warm_Guitar,6,3,omokagewarmruriko,0.10000883787870407,0
58,100,0.4409090909090909,483,0,37,DL_warm_Guitar,6,7,omokagewarmruriko,0.10109572857618332,0
55,100,0.11818181818181818,633,0,37,DL_warm_Guitar,6,2,omokagewarmruriko,0.11970248073339462,0
58,100,0.9,703,0,37,DL_warm_Guitar,6,14,omokagewarmruriko,0.09071534872055054,0
58,100,0.2409090909090909,34,1,38,DL_warm_Guitar,6,4,omokagewarmruriko,0.9997847676277161,1
68,100,0.17727272727272728,141,0,38,DL_warm_Guitar,6,3,omokagewarmruriko,0.14171846210956573,0
58,100,0.2590909090909091,281,0,38,DL_warm_Guitar,6,4,omokagewarmruriko,0.12176956981420517,0
58,100,0.2,444,0,38,DL_warm_Guitar,6,3,omokagewarmruriko,0.14495305716991425,0
68,100,0.16363636363636364,554,0,38,DL_warm_Guitar,6,3,omokagewarmruriko,0.16330702602863312,0
58,100,0.5818181818181818,726,0,38,DL_warm_Guitar,6,9,omokagewarmruriko,0.1317393183708191,0
68,100,0.6818181818181818,48,1,39,DL_warm_Guitar,6,11,omokagewarmruriko,0.9998078942298889,1
68,100,0.17727272727272728,206,0,39,DL_warm_Guitar,6,3,omokagewarmruriko,0.44547322392463684,0
58,100,0.6409090909090909,668,1,39,DL_warm_Guitar,6,10,omokagewarmruriko,0.4102036952972412,0
58,100,0.4590909090909091,0,1,40,DL_warm_Guitar,6,7,omokagewarmruriko,0.999803364276886,1
58,100,0.3,383,1,40,DL_warm_Guitar,6,5,omokagewarmruriko,0.2237888127565384,0
70,100,0.1590909090909091,448,0,40,DL_warm_Guitar,6,3,omokagewarmruriko,0.220585897564888,0
58,100,0.5,483,0,40,DL_warm_Guitar,6,8,omokagewarmruriko,0.2185436636209488,0
70,100,0.2409090909090909,703,0,40,DL_warm_Guitar,6,4,omokagewarmruriko,0.22706978023052216,0
58,100,0.740909090909091,31,1,41,DL_warm_Guitar,6,12,omokagewarmruriko,0.9997544884681702,1
70,100,0.22272727272727272,246,0,41,DL_warm_Guitar,6,4,omokagewarmruriko,0.1531098186969757,0
58,100,0.5,295,0,41,DL_warm_Guitar,6,8,omokagewarmruriko,0.1269228309392929,0
58,100,0.6590909090909091,435,0,41,DL_warm_Guitar,6,11,omokagewarmruriko,0.14934076368808746,0
70,100,0.2590909090909091,660,0,41,DL_warm_Guitar,6,4,omokagewarmruriko,0.17558369040489197,0
58,100,0.8227272727272728,716,0,41,DL_warm_Guitar,6,13,omokagewarmruriko,0.1467808485031128,0
58,100,0.4,75,1,42,DL_warm_Guitar,6,6,omokagewarmruriko,0.9997983574867249,1
60,100,0.12272727272727273,224,0,42,DL_warm_Guitar,6,2,omokagewarmruriko,0.4682351052761078,0
58,100,2.2772727272727273,260,0,42,DL_warm_Guitar,6,15,omokagewarmruriko,0.392957478761673,0
58,100,0.2818181818181818,4,1,43,DL_warm_Guitar,6,5,omokagewarmruriko,0.9996910095214844,1
58,100,0.35909090909090907,83,0,43,DL_warm_Guitar,6,6,omokagewarmruriko,0.05842529982328415,0
68,100,0.3409090909090909,286,0,43,DL_warm_Guitar,6,5,omokagewarmruriko,0.053520504385232925,0
60,100,0.5,373,0,43,DL_warm_Guitar,6,8,omokagewarmruriko,0.05171152949333191,0
58,100,0.21818181818181817,501,0,43,DL_warm_Guitar,6,3,omokagewarmruriko,0.05483928322792053,0
68,100,0.12272727272727273,664,0,43,DL_warm_Guitar,6,2,omokagewarmruriko,0.06940267980098724,0
60,100,0.2590909090909091,703,0,43,DL_warm_Guitar,6,4,omokagewarmruriko,0.07235903292894363,0
58,100,0.6818181818181818,770,0,43,DL_warm_Guitar,6,11,omokagewarmruriko,0.059821560978889465,0
68,100,0.6,40,1,44,DL_warm_Guitar,6,10,omokagewarmruriko,0.9995446801185608,1
58,100,0.5409090909090909,716,1,44,DL_warm_Guitar,6,9,omokagewarmruriko,0.5540184378623962,0
58,100,0.33636363636363636,40,1,45,DL_warm_Guitar,6,5,omokagewarmruriko,0.9998074173927307,1
58,100,0.18181818181818182,131,0,45,DL_warm_Guitar,6,3,omokagewarmruriko,0.2363767772912979,0
58,100,0.2409090909090909,276,0,45,DL_warm_Guitar,6,4,omokagewarmruriko,0.210674449801445,0
58,100,0.18181818181818182,483,0,45,DL_warm_Guitar,6,3,omokagewarmruriko,0.23547974228858948,0
58,100,1.8590909090909091,545,0,45,DL_warm_Guitar,6,15,omokagewarmruriko,0.20287597179412842,0
58,100,1.8,96,1,46,DL_warm_Guitar,6,15,omokagewarmruriko,0.9997796416282654,1
58,100,0.8,518,1,46,DL_warm_Guitar,6,13,omokagewarmruriko,0.37503716349601746,0
58,100,0.2,708,0,46,DL_warm_Guitar,6,3,omokagewarmruriko,0.3433625400066376,0
58,100,0.4590909090909091,848,0,46,DL_warm_Guitar,6,7,omokagewarmruriko,0.3295285403728485,0
60,100,0.6,171,1,47,DL_warm_Guitar,6,10,omokagewarmruriko,0.9998326301574707,1
58,100,0.7181818181818181,383,0,47,DL_warm_Guitar,6,11,omokagewarmruriko,0.29852575063705444,0
58,100,0.6181818181818182,593,0,47,DL_warm_Guitar,6,10,omokagewarmruriko,0.31301450729370117,0
58,100,0.3181818181818182,813,0,47,DL_warm_Guitar,6,5,omokagewarmruriko,0.34660616517066956,0
58,100,0.35909090909090907,118,1,48,DL_warm_Guitar,6,6,omokagewarmruriko,0.9998031258583069,1
60,100,0.22272727272727272,343,0,48,DL_warm_Guitar,6,4,omokagewarmruriko,0.45232364535331726,0
60,100,0.2818181818181818,708,1,48,DL_warm_Guitar,6,5,omokagewarmruriko,0.4326660931110382,0
60,100,0.16363636363636364,641,1,49,DL_warm_Guitar,6,3,omokagewarmruriko,0.9935870170593262,0
60,100,0.42272727272727273,69,1,50,DL_warm_Guitar,6,7,omokagewarmruriko,0.9998250603675842,1
53,100,0.2590909090909091,176,0,50,DL_warm_Guitar,6,4,omokagewarmruriko,0.41096264123916626,0
53,100,0.2409090909090909,241,0,50,DL_warm_Guitar,6,4,omokagewarmruriko,0.4319363832473755,0
58,100,0.41818181818181815,831,1,51,DL_warm_Guitar,6,7,omokagewarmruriko,0.9914335012435913,0
53,100,0.5181818181818182,426,1,52,DL_warm_Guitar,6,8,omokagewarmruriko,0.9931011199951172,0
58,100,2.340909090909091,163,1,53,DL_warm_Guitar,6,15,omokagewarmruriko,0.9993797540664673,1
58,100,0.5590909090909091,845,1,53,DL_warm_Guitar,6,9,omokagewarmruriko,0.587816596031189,0
58,100,0.5636363636363636,114,1,54,DL_warm_Guitar,6,9,omokagewarmruriko,0.9994341731071472,1
58,100,5.318181818181818,295,0,54,DL_warm_Guitar,6,15,omokagewarmruriko,0.5290189981460571,0
60,100,1.8227272727272728,641,1,55,DL_warm_Guitar,6,15,omokagewarmruriko,0.9906242489814758,0
58,100,0.5181818181818182,171,1,56,DL_warm_Guitar,6,8,omokagewarmruriko,0.9997987151145935,1
58,100,0.21818181818181817,396,0,56,DL_warm_Guitar,6,3,omokagewarmruriko,0.23362386226654053,0
58,100,1.1181818181818182,448,0,56,DL_warm_Guitar,6,15,omokagewarmruriko,0.19486737251281738,0
58,100,0.4,703,1,56,DL_warm_Guitar,6,6,omokagewarmruriko,0.24769829213619232,0
58,100,0.4,871,0,56,DL_warm_Guitar,6,6,omokagewarmruriko,0.2315041422843933,0
58,100,0.3181818181818182,678,1,57,DL_warm_Guitar,6,5,omokagewarmruriko,0.9995473027229309,1
58,100,0.5,810,0,57,DL_warm_Guitar,6,8,omokagewarmruriko,0.554193913936615,0
58,100,0.2,386,1,58,DL_warm_Guitar,6,3,omokagewarmruriko,0.9998356103897095,1
58,100,0.7,435,0,58,DL_warm_Guitar,6,11,omokagewarmruriko,0.3062005043029785,0
58,100,0.5181818181818182,625,0,58,DL_warm_Guitar,6,8,omokagewarmruriko,0.3187575340270996,0
58,100,0.3,839,0,58,DL_warm_Guitar,6,5,omokagewarmruriko,0.32724371552467346,0
58,100,1.759090909090909,31,1,59,DL_warm_Guitar,6,15,omokagewarmruriko,0.9997797608375549,1
58,100,0.36363636363636365,444,1,59,DL_warm_Guitar,6,6,omokagewarmruriko,0.4008091390132904,0
58,100,0.36363636363636365,531,0,59,DL_warm_Guitar,6,6,omokagewarmruriko,0.3245980143547058,0
58,100,2.459090909090909,638,0,59,DL_warm_Guitar,6,15,omokagewarmruriko,0.31781208515167236,0
58,100,0.4590909090909091,303,1,60,DL_warm_Guitar,6,7,omokagewarmruriko,0.9997715353965759,1
58,100,1.1,426,0,60,DL_warm_Guitar,6,15,omokagewarmruriko,0.41823700070381165,0
60,100,1.3818181818181818,791,1,60,DL_warm_Guitar,6,15,omokagewarmruriko,0.4514629542827606,0
60,100,0.4409090909090909,334,1,61,DL_warm_Guitar,6,7,omokagewarmruriko,0.9998501539230347,1
58,100,0.6409090909090909,483,0,61,DL_warm_Guitar,6,10,omokagewarmruriko,0.2967853546142578,0
58,100,0.6409090909090909,638,0,61,DL_warm_Guitar,6,10,omokagewarmruriko,0.3048078417778015,0
58,100,0.21818181818181817,858,0,61,DL_warm_Guitar,6,3,omokagewarmruriko,0.3295000493526459,0
60,100,0.6181818181818182,96,1,62,DL_warm_Guitar,6,10,omokagewarmruriko,0.9997586607933044,1
58,100,0.3409090909090909,246,0,62,DL_warm_Guitar,6,5,omokagewarmruriko,0.08060286194086075,0
58,100,0.21818181818181817,351,0,62,DL_warm_Guitar,6,3,omokagewarmruriko,0.07807867974042892,0
58,100,0.4409090909090909,440,0,62,DL_warm_Guitar,6,7,omokagewarmruriko,0.08548292517662048,0
60,100,0.11818181818181818,703,1,62,DL_warm_Guitar,6,2,omokagewarmruriko,0.10900574922561646,0
60,100,0.18181818181818182,813,0,62,DL_warm_Guitar,6,3,omokagewarmruriko,0.10665592551231384,0
58,100,0.8590909090909091,858,0,62,DL_warm_Guitar,6,14,omokagewarmruriko,0.08324645459651947,0
58,100,0.18181818181818182,92,1,64,DL_warm_Guitar,6,3,omokagewarmruriko,0.9998136162757874,1
58,100,0.6409090909090909,145,0,64,DL_warm_Guitar,6,10,omokagewarmruriko,0.20469117164611816,0
58,100,0.6,487,1,64,DL_warm_Guitar,6,10,omokagewarmruriko,0.2127581089735031,0
70,100,0.1590909090909091,743,1,64,DL_warm_Guitar,6,3,omokagewarmruriko,0.23785997927188873,0
58,100,0.13636363636363635,787,0,64,DL_warm_Guitar,6,2,omokagewarmruriko,0.22488434612751007,0
58,100,0.2772727272727273,30,1,65,DL_warm_Guitar,6,4,omokagewarmruriko,0.9998076558113098,1
58,100,0.2590909090909091,100,0,65,DL_warm_Guitar,6,4,omokagewarmruriko,0.41961586475372314,0
60,100,0.11818181818181818,787,1,65,DL_warm_Guitar,6,2,omokagewarmruriko,0.4464215338230133,0
60,100,0.12272727272727273,26,1,66,DL_warm_Guitar,6,2,omokagewarmruriko,0.999840259552002,1
60,100,0.2409090909090909,123,0,66,DL_warm_Guitar,6,4,omokagewarmruriko,0.20287510752677917,0
60,100,1.3636363636363635,179,0,66,DL_warm_Guitar,6,15,omokagewarmruriko,0.17827396094799042,0
60,100,0.23636363636363636,546,1,66,DL_warm_Guitar,6,4,omokagewarmruriko,0.2400289922952652,0
60,100,0.7181818181818181,787,1,66,DL_warm_Guitar,6,11,omokagewarmruriko,0.20676711201667786,0
60,100,0.9409090909090909,79,1,67,DL_warm_Guitar,6,15,omokagewarmruriko,0.9998037219047546,1
60,100,0.4772727272727273,502,1,67,DL_warm_Guitar,6,8,omokagewarmruriko,0.43784281611442566,0
60,100,0.3409090909090909,629,0,67,DL_warm_Guitar,6,5,omokagewarmruriko,0.436969131231308,0
58,100,0.22272727272727272,26,1,68,DL_warm_Guitar,6,4,omokagewarmruriko,0.9997988343238831,1
58,100,0.2590909090909091,303,1,68,DL_warm_Guitar,6,4,omokagewarmruriko,0.42295777797698975,0
58,100,0.22272727272727272,597,1,68,DL_warm_Guitar,6,4,omokagewarmruriko,0.44408050179481506,0
58,100,0.2409090909090909,255,1,69,DL_warm_Guitar,6,4,omokagewarmruriko,0.9997952580451965,1
58,100,0.6772727272727272,536,1,69,DL_warm_Guitar,6,11,omokagewarmruriko,0.40652865171432495,0
58,100,0.5818181818181818,739,0,69,DL_warm_Guitar,6,9,omokagewarmruriko,0.45131391286849976,0
58,100,0.38181818181818183,440,1,70,DL_warm_Guitar,6,6,omokagewarmruriko,0.9995754361152649,1
60,100,0.6409090909090909,760,1,70,DL_warm_Guitar,6,10,omokagewarmruriko,0.5667300820350647,0
60,100,0.17727272727272728,172,1,71,DL_warm_Guitar,6,3,omokagewarmruriko,0.9998615980148315,1
60,100,0.18181818181818182,263,0,71,DL_warm_Guitar,6,3,omokagewarmruriko,0.3122304677963257,0
60,100,0.9409090909090909,316,0,71,DL_warm_Guitar,6,15,omokagewarmruriko,0.27705541253089905,0
70,100,0.43636363636363634,523,0,71,DL_warm_Guitar,6,7,omokagewarmruriko,0.3099305033683777,0
58,100,0.2409090909090909,343,1,73,DL_warm_Guitar,6,4,omokagewarmruriko,0.9997943043708801,1
58,100,0.7,559,0,73,DL_warm_Guitar,6,11,omokagewarmruriko,0.40426695346832275,0
58,100,0.740909090909091,729,0,73,DL_warm_Guitar,6,12,omokagewarmruriko,0.45122361183166504,0
58,100,0.13636363636363635,83,1,74,DL_warm_Guitar,6,2,omokagewarmruriko,0.999805748462677,1
58,100,1.518181818181818,140,0,74,DL_warm_Guitar,6,15,omokagewarmruriko,0.19177865982055664,0
58,100,1.1181818181818182,502,1,74,DL_warm_Guitar,6,15,omokagewarmruriko,0.22631119191646576,0
70,100,0.11818181818181818,792,1,74,DL_warm_Guitar,6,2,omokagewarmruriko,0.26157429814338684,0
58,100,0.8636363636363636,817,0,74,DL_warm_Guitar,6,14,omokagewarmruriko,0.22731797397136688,0
58,100,0.21818181818181817,132,1,75,DL_warm_Guitar,6,3,omokagewarmruriko,0.9998303651809692,1
58,100,0.7636363636363637,487,1,75,DL_warm_Guitar,6,12,omokagewarmruriko,0.31633421778678894,0
58,100,0.2409090909090909,660,0,75,DL_warm_Guitar,6,4,omokagewarmruriko,0.3349511921405792,0
58,100,1.3636363636363635,752,0,75,DL_warm_Guitar,6,15,omokagewarmruriko,0.3082602024078369,0
70,100,0.17727272727272728,172,1,76,DL_warm_Guitar,6,3,omokagewarmruriko,0.9997535347938538,1
58,100,0.41818181818181815,347,0,76,DL_warm_Guitar,6,7,omokagewarmruriko,0.07759333401918411,0
60,100,0.37727272727272726,470,0,76,DL_warm_Guitar,6,6,omokagewarmruriko,0.08394075930118561,0
70,100,0.11818181818181818,593,0,76,DL_warm_Guitar,6,2,omokagewarmruriko,0.07883954793214798,0
58,100,0.33636363636363636,633,0,76,DL_warm_Guitar,6,5,omokagewarmruriko,0.09742884337902069,0
58,100,0.2,783,0,76,DL_warm_Guitar,6,3,omokagewarmruriko,0.09963168203830719,0
60,100,0.11818181818181818,853,0,76,DL_warm_Guitar,6,2,omokagewarmruriko,0.10221628099679947,0
58,100,0.759090909090909,172,1,77,DL_warm_Guitar,6,12,omokagewarmruriko,0.999794065952301,1
58,100,0.9,386,0,77,DL_warm_Guitar,6,14,omokagewarmruriko,0.2195337563753128,0
58,100,0.2818181818181818,593,0,77,DL_warm_Guitar,6,5,omokagewarmruriko,0.22120292484760284,0
60,100,0.5,743,0,77,DL_warm_Guitar,6,8,omokagewarmruriko,0.24636048078536987,0
58,100,0.6181818181818182,866,0,77,DL_warm_Guitar,6,10,omokagewarmruriko,0.21512717008590698,0
58,100,0.5409090909090909,136,1,78,DL_warm_Guitar,6,9,omokagewarmruriko,0.9998000264167786,1
58,100,0.11818181818181818,316,0,78,DL_warm_Guitar,6,2,omokagewarmruriko,0.2401612102985382,0
58,100,1.018181818181818,396,0,78,DL_warm_Guitar,6,15,omokagewarmruriko,0.19195112586021423,0
70,100,0.36363636363636365,619,0,78,DL_warm_Guitar,6,6,omokagewarmruriko,0.24867400527000427,0
58,100,0.37727272727272726,766,0,78,DL_warm_Guitar,6,6,omokagewarmruriko,0.23241987824440002,0
70,100,0.18181818181818182,176,1,79,DL_warm_Guitar,6,3,omokagewarmruriko,0.9995265007019043,1
58,100,1.240909090909091,220,0,79,DL_warm_Guitar,6,15,omokagewarmruriko,0.5383465886116028,0
58,100,0.2409090909090909,119,1,80,DL_warm_Guitar,6,4,omokagewarmruriko,0.9998347759246826,1
58,100,0.11818181818181818,220,0,80,DL_warm_Guitar,6,2,omokagewarmruriko,0.34303686022758484,0
58,100,0.32272727272727275,707,1,80,DL_warm_Guitar,6,5,omokagewarmruriko,0.30099567770957947,0
58,100,0.8818181818181818,783,0,80,DL_warm_Guitar,6,14,omokagewarmruriko,0.3117358088493347,0
70,100,0.37727272727272726,184,1,81,DL_warm_Guitar,6,6,omokagewarmruriko,0.9997784495353699,1
58,100,0.5409090909090909,396,0,81,DL_warm_Guitar,6,9,omokagewarmruriko,0.12807467579841614,0
60,100,0.2772727272727273,536,0,81,DL_warm_Guitar,6,4,omokagewarmruriko,0.14232152700424194,0
70,100,0.2772727272727273,612,0,81,DL_warm_Guitar,6,4,omokagewarmruriko,0.13791866600513458,0
58,100,0.6227272727272727,673,0,81,DL_warm_Guitar,6,10,omokagewarmruriko,0.14592795073986053,0
60,100,0.6590909090909091,813,0,81,DL_warm_Guitar,6,11,omokagewarmruriko,0.1555647850036621,0
58,100,0.2409090909090909,206,1,82,DL_warm_Guitar,6,4,omokagewarmruriko,0.9998385906219482,1
63,100,0.18181818181818182,453,1,82,DL_warm_Guitar,6,3,omokagewarmruriko,0.3363596796989441,0
63,100,0.1,496,0,82,DL_warm_Guitar,6,2,omokagewarmruriko,0.302745521068573,0
63,100,0.4,619,0,82,DL_warm_Guitar,6,6,omokagewarmruriko,0.3083188831806183,0
58,100,0.11818181818181818,40,1,83,DL_warm_Guitar,6,2,omokagewarmruriko,0.9998027682304382,1
58,100,0.11818181818181818,83,0,83,DL_warm_Guitar,6,2,omokagewarmruriko,0.4254147410392761,0
58,100,0.5636363636363636,113,0,83,DL_warm_Guitar,6,9,omokagewarmruriko,0.4302302896976471,1
52,100,0.6227272727272727,246,1,0,DL_Remix_emotional_folk_Guitar,6,10,omokage_emotionalfolk,0.9997977614402771,1
59,100,0.2590909090909091,396,0,0,DL_Remix_emotional_folk_Guitar,6,4,omokage_emotionalfolk,0.1275956630706787,0
59,100,0.2,492,0,0,DL_Remix_emotional_folk_Guitar,6,3,omokage_emotionalfolk,0.12559406459331512,0
59,100,0.21818181818181817,559,0,0,DL_Remix_emotional_folk_Guitar,6,3,omokage_emotionalfolk,0.13360989093780518,0
59,100,0.18181818181818182,752,0,0,DL_Remix_emotional_folk_Guitar,6,3,omokage_emotionalfolk,0.1491323858499527,0
59,100,0.3,867,0,0,DL_Remix_emotional_folk_Guitar,6,5,omokage_emotionalfolk,0.13209474086761475,0
59,100,0.3409090909090909,136,1,1,DL_Remix_emotional_folk_Guitar,6,5,omokage_emotionalfolk,0.9998468160629272,1
52,100,0.32272727272727275,356,0,1,DL_Remix_emotional_folk_Guitar,6,5,omokage_emotionalfolk,0.3358030617237091,0
59,100,0.4590909090909091,458,0,1,DL_Remix_emotional_folk_Guitar,6,7,omokage_emotionalfolk,0.2792404294013977,0
61,100,0.18181818181818182,606,0,1,DL_Remix_emotional_folk_Guitar,6,3,omokage_emotionalfolk,0.320846825838089,0
66,100,0.2,663,1,2,DL_Remix_emotional_folk_Guitar,6,3,omokage_emotionalfolk,0.9933098554611206,0
54,100,0.42272727272727273,34,1,3,DL_Remix_emotional_folk_Guitar,6,7,omokage_emotionalfolk,0.9997557997703552,1
54,100,0.1409090909090909,131,0,3,DL_Remix_emotional_folk_Guitar,6,2,omokage_emotionalfolk,0.08547139167785645,0
54,100,0.41818181818181815,396,1,3,DL_Remix_emotional_folk_Guitar,6,7,omokage_emotionalfolk,0.07239838689565659,0
54,100,0.1590909090909091,506,0,3,DL_Remix_emotional_folk_Guitar,6,3,omokage_emotionalfolk,0.08642764389514923,0
54,100,0.2818181818181818,553,0,3,DL_Remix_emotional_folk_Guitar,6,5,omokage_emotionalfolk,0.0901142954826355,0
54,100,0.1590909090909091,629,0,3,DL_Remix_emotional_folk_Guitar,6,3,omokage_emotionalfolk,0.1025729849934578,0
54,100,0.7,858,0,3,DL_Remix_emotional_folk_Guitar,6,11,omokage_emotionalfolk,0.0856376439332962,0
54,100,0.38181818181818183,135,1,4,DL_Remix_emotional_folk_Guitar,6,6,omokage_emotionalfolk,0.9997938275337219,1
54,100,0.1409090909090909,383,1,4,DL_Remix_emotional_folk_Guitar,6,2,omokage_emotionalfolk,0.12888172268867493,0
54,100,0.17727272727272728,427,0,4,DL_Remix_emotional_folk_Guitar,6,3,omokage_emotionalfolk,0.12311290204524994,0
59,100,0.6181818181818182,470,0,4,DL_Remix_emotional_folk_Guitar,6,10,omokage_emotionalfolk,0.13122017681598663,0
54,100,0.11818181818181818,624,0,4,DL_Remix_emotional_folk_Guitar,6,2,omokage_emotionalfolk,0.15600040555000305,0
59,100,0.6227272727272727,739,0,4,DL_Remix_emotional_folk_Guitar,6,10,omokage_emotionalfolk,0.1340053230524063,0
59,100,0.1409090909090909,0,1,5,DL_Remix_emotional_folk_Guitar,6,2,omokage_emotionalfolk,0.9998307228088379,1
54,100,0.18181818181818182,189,0,5,DL_Remix_emotional_folk_Guitar,6,3,omokage_emotionalfolk,0.4126127064228058,0
59,100,0.1,782,1,5,DL_Remix_emotional_folk_Guitar,6,2,omokage_emotionalfolk,0.4268644154071808,0
52,100,0.1409090909090909,0,1,6,DL_Remix_emotional_folk_Guitar,6,2,omokage_emotionalfolk,0.9998588562011719,1
59,100,0.2409090909090909,245,1,6,DL_Remix_emotional_folk_Guitar,6,4,omokage_emotionalfolk,0.31657329201698303,0
52,100,0.41818181818181815,440,0,6,DL_Remix_emotional_folk_Guitar,6,7,omokage_emotionalfolk,0.29827365279197693,0
52,100,1.1227272727272728,871,1,6,DL_Remix_emotional_folk_Guitar,6,15,omokage_emotionalfolk,0.2920646071434021,0
59,100,0.11818181818181818,263,1,7,DL_Remix_emotional_folk_Guitar,6,2,omokage_emotionalfolk,0.999806821346283,1
63,100,0.12272727272727273,541,1,7,DL_Remix_emotional_folk_Guitar,6,2,omokage_emotionalfolk,0.12272288650274277,0
63,100,0.1,585,0,7,DL_Remix_emotional_folk_Guitar,6,2,omokage_emotionalfolk,0.12318035960197449,0
63,100,0.2772727272727273,647,0,7,DL_Remix_emotional_folk_Guitar,6,4,omokage_emotionalfolk,0.13498981297016144,0
63,100,0.22272727272727272,739,0,7,DL_Remix_emotional_folk_Guitar,6,4,omokage_emotionalfolk,0.15015102922916412,0
63,100,0.2,826,0,7,DL_Remix_emotional_folk_Guitar,6,3,omokage_emotionalfolk,0.13659995794296265,0
59,100,0.7,53,1,8,DL_Remix_emotional_folk_Guitar,6,11,omokage_emotionalfolk,0.9998257756233215,1
59,100,0.4772727272727273,237,0,8,DL_Remix_emotional_folk_Guitar,6,8,omokage_emotionalfolk,0.35028982162475586,0
56,100,0.22272727272727272,519,1,8,DL_Remix_emotional_folk_Guitar,6,4,omokage_emotionalfolk,0.3056966960430145,0
56,100,0.2636363636363636,818,1,8,DL_Remix_emotional_folk_Guitar,6,4,omokage_emotionalfolk,0.3164937198162079,0
56,100,0.4818181818181818,3,1,9,DL_Remix_emotional_folk_Guitar,6,8,omokage_emotionalfolk,0.9998400211334229,1
56,100,0.33636363636363636,259,1,9,DL_Remix_emotional_folk_Guitar,6,5,omokage_emotionalfolk,0.33482709527015686,0
56,100,0.7636363636363637,553,1,9,DL_Remix_emotional_folk_Guitar,6,12,omokage_emotionalfolk,0.2856573164463043,0
56,100,0.9818181818181818,725,0,9,DL_Remix_emotional_folk_Guitar,6,15,omokage_emotionalfolk,0.3157344162464142,0
57,100,0.3409090909090909,144,1,10,DL_Remix_emotional_folk_Guitar,6,5,omokage_emotionalfolk,0.9998342990875244,1
52,100,0.17727272727272728,369,0,10,DL_Remix_emotional_folk_Guitar,6,3,omokage_emotionalfolk,0.22084610164165497,0
52,100,0.1,440,0,10,DL_Remix_emotional_folk_Guitar,6,2,omokage_emotionalfolk,0.1943206936120987,0
64,100,0.18181818181818182,620,0,10,DL_Remix_emotional_folk_Guitar,6,3,omokage_emotionalfolk,0.19996517896652222,0
64,100,0.12272727272727273,663,0,10,DL_Remix_emotional_folk_Guitar,6,2,omokage_emotionalfolk,0.19641093909740448,0
59,100,0.12272727272727273,519,1,11,DL_Remix_emotional_folk_Guitar,6,2,omokage_emotionalfolk,0.9996229410171509,1
59,100,0.5590909090909091,845,1,11,DL_Remix_emotional_folk_Guitar,6,9,omokage_emotionalfolk,0.5383800864219666,0
59,100,0.2,259,1,12,DL_Remix_emotional_folk_Guitar,6,3,omokage_emotionalfolk,0.9998317956924438,1
52,100,0.11818181818181818,589,1,12,DL_Remix_emotional_folk_Guitar,6,2,omokage_emotionalfolk,0.41717594861984253,0
59,100,0.18181818181818182,804,0,12,DL_Remix_emotional_folk_Guitar,6,3,omokage_emotionalfolk,0.41977453231811523,0
63,100,0.7227272727272728,443,1,13,DL_Remix_emotional_folk_Guitar,6,12,omokage_emotionalfolk,0.9998043179512024,1
59,100,0.2,606,0,13,DL_Remix_emotional_folk_Guitar,6,3,omokage_emotionalfolk,0.4452976882457733,0
63,100,1.0,673,0,13,DL_Remix_emotional_folk_Guitar,6,15,omokage_emotionalfolk,0.4126896858215332,0
56,100,1.3636363636363635,510,1,14,DL_Remix_emotional_folk_Guitar,6,15,omokage_emotionalfolk,0.9910659193992615,0
56,100,0.3,273,1,15,DL_Remix_emotional_folk_Guitar,6,5,omokage_emotionalfolk,0.9998509883880615,1
54,100,0.1409090909090909,629,1,15,DL_Remix_emotional_folk_Guitar,6,2,omokage_emotionalfolk,0.3264198303222656,0
59,100,0.5363636363636364,744,0,15,DL_Remix_emotional_folk_Guitar,6,9,omokage_emotionalfolk,0.28718769550323486,0
52,100,0.7181818181818181,866,0,15,DL_Remix_emotional_folk_Guitar,6,11,omokage_emotionalfolk,0.30520784854888916,0
57,100,0.7,144,1,16,DL_Remix_emotional_folk_Guitar,6,11,omokage_emotionalfolk,0.9998051524162292,1
64,100,0.5409090909090909,299,0,16,DL_Remix_emotional_folk_Guitar,6,9,omokage_emotionalfolk,0.44076648354530334,0
54,100,0.2409090909090909,440,0,16,DL_Remix_emotional_folk_Guitar,6,4,omokage_emotionalfolk,0.4333800673484802,0
59,100,0.4409090909090909,52,1,17,DL_Remix_emotional_folk_Guitar,6,7,omokage_emotionalfolk,0.9998409748077393,1
52,100,0.2,220,0,17,DL_Remix_emotional_folk_Guitar,6,3,omokage_emotionalfolk,0.3429892063140869,0
52,100,0.6818181818181818,351,0,17,DL_Remix_emotional_folk_Guitar,6,11,omokage_emotionalfolk,0.2790708839893341,0
61,100,0.7,660,1,17,DL_Remix_emotional_folk_Guitar,6,11,omokage_emotionalfolk,0.3116065561771393,0
54,100,0.2409090909090909,92,1,18,DL_Remix_emotional_folk_Guitar,6,4,omokage_emotionalfolk,0.9998346567153931,1
54,100,0.1409090909090909,154,0,18,DL_Remix_emotional_folk_Guitar,6,2,omokage_emotionalfolk,0.21070562303066254,0
64,100,0.35909090909090907,395,1,18,DL_Remix_emotional_folk_Guitar,6,6,omokage_emotionalfolk,0.2011360228061676,0
63,100,0.1409090909090909,515,0,18,DL_Remix_emotional_folk_Guitar,6,2,omokage_emotionalfolk,0.20212893187999725,0
52,100,0.7,708,0,18,DL_Remix_emotional_folk_Guitar,6,11,omokage_emotionalfolk,0.20397232472896576,0
57,100,0.2818181818181818,0,1,19,DL_Remix_emotional_folk_Guitar,6,5,omokage_emotionalfolk,0.999600350856781,1
64,100,0.5590909090909091,140,0,19,DL_Remix_emotional_folk_Guitar,6,9,omokage_emotionalfolk,0.5530891418457031,0
59,100,0.2,351,1,20,DL_Remix_emotional_folk_Guitar,6,3,omokage_emotionalfolk,0.9998518228530884,1
64,100,0.2590909090909091,492,0,20,DL_Remix_emotional_folk_Guitar,6,4,omokage_emotionalfolk,0.3392595648765564,0
64,100,0.1590909090909091,650,0,20,DL_Remix_emotional_folk_Guitar,6,3,omokage_emotionalfolk,0.2921169400215149,0
59,100,0.17727272727272728,831,0,20,DL_Remix_emotional_folk_Guitar,6,3,omokage_emotionalfolk,0.2928680181503296,0
59,100,0.33636363636363636,106,1,21,DL_Remix_emotional_folk_Guitar,6,5,omokage_emotionalfolk,0.9996232986450195,1
59,100,0.2818181818181818,708,1,21,DL_Remix_emotional_folk_Guitar,6,5,omokage_emotionalfolk,0.5525772571563721,0
54,100,0.1,457,1,22,DL_Remix_emotional_folk_Guitar,6,2,omokage_emotionalfolk,0.9998145699501038,1
66,100,0.2590909090909091,480,0,22,DL_Remix_emotional_folk_Guitar,6,4,omokage_emotionalfolk,0.1258651465177536,0
59,100,0.18181818181818182,540,0,22,DL_Remix_emotional_folk_Guitar,6,3,omokage_emotionalfolk,0.12078573554754257,0
66,100,0.2,625,0,22,DL_Remix_emotional_folk_Guitar,6,3,omokage_emotionalfolk,0.13491618633270264,0
66,100,0.11818181818181818,704,0,22,DL_Remix_emotional_folk_Guitar,6,2,omokage_emotionalfolk,0.13789397478103638,0
52,100,0.4590909090909091,791,0,22,DL_Remix_emotional_folk_Guitar,6,7,omokage_emotionalfolk,0.12618276476860046,0
52,100,0.2,44,1,23,DL_Remix_emotional_folk_Guitar,6,3,omokage_emotionalfolk,0.9998099207878113,1
57,100,0.7227272727272728,113,0,23,DL_Remix_emotional_folk_Guitar,6,12,omokage_emotionalfolk,0.1139754131436348,0
64,100,0.2818181818181818,505,1,23,DL_Remix_emotional_folk_Guitar,6,5,omokage_emotionalfolk,0.13241197168827057,0
57,100,0.16363636363636364,663,0,23,DL_Remix_emotional_folk_Guitar,6,3,omokage_emotionalfolk,0.13189998269081116,0
57,100,0.3,717,0,23,DL_Remix_emotional_folk_Guitar,6,5,omokage_emotionalfolk,0.13888563215732574,0
64,100,0.6590909090909091,822,0,23,DL_Remix_emotional_folk_Guitar,6,11,omokage_emotionalfolk,0.13260091841220856,0
59,100,0.13636363636363635,106,1,24,DL_Remix_emotional_folk_Guitar,6,2,omokage_emotionalfolk,0.999829888343811,1
59,100,0.11818181818181818,303,0,24,DL_Remix_emotional_folk_Guitar,6,2,omokage_emotionalfolk,0.40874961018562317,0
64,100,1.0772727272727274,700,1,24,DL_Remix_emotional_folk_Guitar,6,15,omokage_emotionalfolk,0.41438350081443787,0
59,100,0.13636363636363635,260,1,25,DL_Remix_emotional_folk_Guitar,6,2,omokage_emotionalfolk,0.9998476505279541,1
64,100,0.7181818181818181,308,0,25,DL_Remix_emotional_folk_Guitar,6,11,omokage_emotionalfolk,0.3153684735298157,0
57,100,0.1,646,1,25,DL_Remix_emotional_folk_Guitar,6,2,omokage_emotionalfolk,0.3034628927707672,0
64,100,0.35909090909090907,673,0,25,DL_Remix_emotional_folk_Guitar,6,6,omokage_emotionalfolk,0.31229168176651,0
64,100,0.1409090909090909,343,1,26,DL_Remix_emotional_folk_Guitar,6,2,omokage_emotionalfolk,0.9998132586479187,1
59,100,0.3409090909090909,497,0,26,DL_Remix_emotional_folk_Guitar,6,5,omokage_emotionalfolk,0.12208308279514313,0
54,100,0.18181818181818182,660,0,26,DL_Remix_emotional_folk_Guitar,6,3,omokage_emotionalfolk,0.12302125990390778,0
66,100,0.1409090909090909,739,0,26,DL_Remix_emotional_folk_Guitar,6,2,omokage_emotionalfolk,0.13424748182296753,0
66,100,0.12272727272727273,773,0,26,DL_Remix_emotional_folk_Guitar,6,2,omokage_emotionalfolk,0.13832703232765198,0
66,100,0.3,804,0,26,DL_Remix_emotional_folk_Guitar,6,5,omokage_emotionalfolk,0.1284562051296234,0
52,100,0.3181818181818182,17,1,27,DL_Remix_emotional_folk_Guitar,6,5,omokage_emotionalfolk,0.9998372793197632,1
56,100,0.1409090909090909,268,1,27,DL_Remix_emotional_folk_Guitar,6,2,omokage_emotionalfolk,0.40680992603302,0
54,100,0.1,870,1,27,DL_Remix_emotional_folk_Guitar,6,2,omokage_emotionalfolk,0.42646726965904236,0
56,100,0.2409090909090909,88,1,28,DL_Remix_emotional_folk_Guitar,6,4,omokage_emotionalfolk,0.9996262788772583,1
61,100,0.2,378,1,28,DL_Remix_emotional_folk_Guitar,6,3,omokage_emotionalfolk,0.5535772442817688,0
59,100,0.3409090909090909,52,1,29,DL_Remix_emotional_folk_Guitar,6,5,omokage_emotionalfolk,0.9998425245285034,1
63,100,0.3,360,1,29,DL_Remix_emotional_folk_Guitar,6,5,omokage_emotionalfolk,0.31987109780311584,0
63,100,0.3,656,1,29,DL_Remix_emotional_folk_Guitar,6,5,omokage_emotionalfolk,0.3011670410633087,0
56,100,0.1409090909090909,752,0,29,DL_Remix_emotional_folk_Guitar,6,2,omokage_emotionalfolk,0.32172006368637085,0
59,100,0.17727272727272728,30,1,30,DL_Remix_emotional_folk_Guitar,6,3,omokage_emotionalfolk,0.9998065829277039,1
57,100,0.21818181818181817,206,0,30,DL_Remix_emotional_folk_Guitar,6,3,omokage_emotionalfolk,0.12735410034656525,0
57,100,0.1590909090909091,264,0,30,DL_Remix_emotional_folk_Guitar,6,3,omokage_emotionalfolk,0.12209109961986542,0
57,100,0.3181818181818182,505,1,30,DL_Remix_emotional_folk_Guitar,6,5,omokage_emotionalfolk,0.13786904513835907,0
57,100,0.2,646,0,30,DL_Remix_emotional_folk_Guitar,6,3,omokage_emotionalfolk,0.14457906782627106,0
57,100,0.7818181818181819,804,0,30,DL_Remix_emotional_folk_Guitar,6,13,omokage_emotionalfolk,0.12921622395515442,0
57,100,0.1,193,1,31,DL_Remix_emotional_folk_Guitar,6,2,omokage_emotionalfolk,0.9996262788772583,1
57,100,0.21818181818181817,241,0,31,DL_Remix_emotional_folk_Guitar,6,3,omokage_emotionalfolk,0.5490133762359619,0
54,100,0.1,201,1,32,DL_Remix_emotional_folk_Guitar,6,2,omokage_emotionalfolk,0.9996427297592163,1
63,100,0.2,531,1,32,DL_Remix_emotional_folk_Guitar,6,3,omokage_emotionalfolk,0.5405316352844238,0
57,100,0.2409090909090909,228,1,33,DL_Remix_emotional_folk_Guitar,6,4,omokage_emotionalfolk,0.9998026490211487,1
57,100,0.6181818181818182,426,0,33,DL_Remix_emotional_folk_Guitar,6,10,omokage_emotionalfolk,0.12382520735263824,0
64,100,0.5,584,0,33,DL_Remix_emotional_folk_Guitar,6,8,omokage_emotionalfolk,0.12871573865413666,0
64,100,0.2590909090909091,716,0,33,DL_Remix_emotional_folk_Guitar,6,4,omokage_emotionalfolk,0.1403663158416748,0
59,100,0.22272727272727272,774,0,33,DL_Remix_emotional_folk_Guitar,6,4,omokage_emotionalfolk,0.13878679275512695,0
64,100,0.5818181818181818,826,0,33,DL_Remix_emotional_folk_Guitar,6,9,omokage_emotionalfolk,0.1300455778837204,0
52,100,0.2,110,1,34,DL_Remix_emotional_folk_Guitar,6,3,omokage_emotionalfolk,0.9997108578681946,1
52,100,0.22272727272727272,158,0,34,DL_Remix_emotional_folk_Guitar,6,4,omokage_emotionalfolk,0.042647864669561386,0
59,100,0.11818181818181818,295,0,34,DL_Remix_emotional_folk_Guitar,6,2,omokage_emotionalfolk,0.031965840607881546,0
52,100,0.12272727272727273,378,0,34,DL_Remix_emotional_folk_Guitar,6,2,omokage_emotionalfolk,0.030547672882676125,0
52,100,0.1409090909090909,418,0,34,DL_Remix_emotional_folk_Guitar,6,2,omokage_emotionalfolk,0.029464595019817352,0
59,100,0.4,461,0,34,DL_Remix_emotional_folk_Guitar,6,6,omokage_emotionalfolk,0.030874796211719513,0
59,100,0.3181818181818182,681,0,34,DL_Remix_emotional_folk_Guitar,6,5,omokage_emotionalfolk,0.04081074148416519,0
59,100,0.1590909090909091,765,0,34,DL_Remix_emotional_folk_Guitar,6,3,omokage_emotionalfolk,0.04817064851522446,0
52,100,0.2590909090909091,801,0,34,DL_Remix_emotional_folk_Guitar,6,4,omokage_emotionalfolk,0.04617318883538246,0
52,100,0.4590909090909091,40,1,35,DL_Remix_emotional_folk_Guitar,6,7,omokage_emotionalfolk,0.9997561573982239,1
64,100,0.13636363636363635,150,0,35,DL_Remix_emotional_folk_Guitar,6,2,omokage_emotionalfolk,0.0849251076579094,0
64,100,0.18181818181818182,321,0,35,DL_Remix_emotional_folk_Guitar,6,3,omokage_emotionalfolk,0.07229786366224289,0
64,100,0.1409090909090909,440,0,35,DL_Remix_emotional_folk_Guitar,6,2,omokage_emotionalfolk,0.0787077397108078,0
52,100,0.1409090909090909,471,0,35,DL_Remix_emotional_folk_Guitar,6,2,omokage_emotionalfolk,0.08453444391489029,0
59,100,0.1409090909090909,664,0,35,DL_Remix_emotional_folk_Guitar,6,2,omokage_emotionalfolk,0.09163068979978561,0
59,100,0.3181818181818182,743,0,35,DL_Remix_emotional_folk_Guitar,6,5,omokage_emotionalfolk,0.0826084092259407,0
64,100,0.13636363636363635,150,1,36,DL_Remix_emotional_folk_Guitar,6,2,omokage_emotionalfolk,0.9998140931129456,1
59,100,0.12272727272727273,399,1,36,DL_Remix_emotional_folk_Guitar,6,2,omokage_emotionalfolk,0.12148095667362213,0
59,100,0.3,496,0,36,DL_Remix_emotional_folk_Guitar,6,5,omokage_emotionalfolk,0.11769696325063705,0
60,100,0.17727272727272728,603,0,36,DL_Remix_emotional_folk_Guitar,6,3,omokage_emotionalfolk,0.13574060797691345,0
60,100,0.2590909090909091,668,0,36,DL_Remix_emotional_folk_Guitar,6,4,omokage_emotionalfolk,0.13907620310783386,0
61,100,0.1409090909090909,866,0,36,DL_Remix_emotional_folk_Guitar,6,2,omokage_emotionalfolk,0.13115763664245605,0
61,100,0.3,144,1,37,DL_Remix_emotional_folk_Guitar,6,5,omokage_emotionalfolk,0.9931731820106506,0
66,100,0.1590909090909091,34,1,38,DL_Remix_emotional_folk_Guitar,6,3,omokage_emotionalfolk,0.9998375177383423,1
66,100,0.1590909090909091,150,0,38,DL_Remix_emotional_folk_Guitar,6,3,omokage_emotionalfolk,0.21023797988891602,0
66,100,0.1590909090909091,241,0,38,DL_Remix_emotional_folk_Guitar,6,3,omokage_emotionalfolk,0.19712413847446442,0
63,100,0.21818181818181817,461,0,38,DL_Remix_emotional_folk_Guitar,6,3,omokage_emotionalfolk,0.20151673257350922,0
63,100,0.32272727272727275,598,0,38,DL_Remix_emotional_folk_Guitar,6,5,omokage_emotionalfolk,0.20369048416614532,0
56,100,0.4,241,1,39,DL_Remix_emotional_folk_Guitar,6,6,omokage_emotionalfolk,0.9998315572738647,1
56,100,0.1,373,0,39,DL_Remix_emotional_folk_Guitar,6,2,omokage_emotionalfolk,0.21599268913269043,0
56,100,1.0227272727272727,399,0,39,DL_Remix_emotional_folk_Guitar,6,15,omokage_emotionalfolk,0.1794445663690567,0
57,100,0.1590909090909091,735,1,39,DL_Remix_emotional_folk_Guitar,6,3,omokage_emotionalfolk,0.23375092446804047,0
57,100,0.3409090909090909,866,0,39,DL_Remix_emotional_folk_Guitar,6,5,omokage_emotionalfolk,0.2053791880607605,0
57,100,0.4590909090909091,150,1,40,DL_Remix_emotional_folk_Guitar,6,7,omokage_emotionalfolk,0.9997496008872986,1
57,100,0.12272727272727273,268,0,40,DL_Remix_emotional_folk_Guitar,6,2,omokage_emotionalfolk,0.08427240699529648,0
64,100,0.7181818181818181,303,0,40,DL_Remix_emotional_folk_Guitar,6,11,omokage_emotionalfolk,0.07196328043937683,0
64,100,0.3409090909090909,576,1,40,DL_Remix_emotional_folk_Guitar,6,5,omokage_emotionalfolk,0.08714206516742706,0
57,100,0.5590909090909091,651,0,40,DL_Remix_emotional_folk_Guitar,6,9,omokage_emotionalfolk,0.08824370056390762,0
52,100,0.2590909090909091,778,0,40,DL_Remix_emotional_folk_Guitar,6,4,omokage_emotionalfolk,0.10538250207901001,0
57,100,0.37727272727272726,845,0,40,DL_Remix_emotional_folk_Guitar,6,6,omokage_emotionalfolk,0.0857975035905838,0
57,100,0.2,61,1,41,DL_Remix_emotional_folk_Guitar,6,3,omokage_emotionalfolk,0.9997199177742004,1
57,100,0.3,123,0,41,DL_Remix_emotional_folk_Guitar,6,5,omokage_emotionalfolk,0.055158842355012894,0
59,100,0.18181818181818182,241,0,41,DL_Remix_emotional_folk_Guitar,6,3,omokage_emotionalfolk,0.05000204220414162,0
59,100,0.7363636363636363,348,0,41,DL_Remix_emotional_folk_Guitar,6,12,omokage_emotionalfolk,0.04468996822834015,0
64,100,0.3181818181818182,616,1,41,DL_Remix_emotional_folk_Guitar,6,5,omokage_emotionalfolk,0.058073509484529495,0
52,100,0.11818181818181818,713,0,41,DL_Remix_emotional_folk_Guitar,6,2,omokage_emotionalfolk,0.06361173093318939,0
64,100,0.22272727272727272,738,0,41,DL_Remix_emotional_folk_Guitar,6,4,omokage_emotionalfolk,0.06685527414083481,0
52,100,0.4,796,0,41,DL_Remix_emotional_folk_Guitar,6,6,omokage_emotionalfolk,0.06062788516283035,0
64,100,0.3,4,1,42,DL_Remix_emotional_folk_Guitar,6,5,omokage_emotionalfolk,0.999700665473938,1
52,100,0.21818181818181817,75,0,42,DL_Remix_emotional_folk_Guitar,6,3,omokage_emotionalfolk,0.04373413324356079,0
64,100,0.3,163,0,42,DL_Remix_emotional_folk_Guitar,6,5,omokage_emotionalfolk,0.03285815194249153,0
52,100,0.42272727272727273,254,0,42,DL_Remix_emotional_folk_Guitar,6,7,omokage_emotionalfolk,0.029770782217383385,0
52,100,0.1590909090909091,351,0,42,DL_Remix_emotional_folk_Guitar,6,3,omokage_emotionalfolk,0.03045818768441677,0
52,100,0.759090909090909,396,0,42,DL_Remix_emotional_folk_Guitar,6,12,omokage_emotionalfolk,0.03137888014316559,0
57,100,0.1409090909090909,571,0,42,DL_Remix_emotional_folk_Guitar,6,2,omokage_emotionalfolk,0.04137072339653969,0
61,100,0.2818181818181818,791,0,42,DL_Remix_emotional_folk_Guitar,6,5,omokage_emotionalfolk,0.04874926805496216,0
54,100,0.11818181818181818,858,0,42,DL_Remix_emotional_folk_Guitar,6,2,omokage_emotionalfolk,0.048021186143159866,0
54,100,0.2,18,1,43,DL_Remix_emotional_folk_Guitar,6,3,omokage_emotionalfolk,0.9998005032539368,1
54,100,0.2,91,0,43,DL_Remix_emotional_folk_Guitar,6,3,omokage_emotionalfolk,0.12748274207115173,0
54,100,1.7772727272727273,141,0,43,DL_Remix_emotional_folk_Guitar,6,15,omokage_emotionalfolk,0.10432065278291702,0
54,100,0.13636363636363635,590,1,43,DL_Remix_emotional_folk_Guitar,6,2,omokage_emotionalfolk,0.16998296976089478,0
66,100,0.2818181818181818,619,0,43,DL_Remix_emotional_folk_Guitar,6,5,omokage_emotionalfolk,0.14853224158287048,0
54,100,0.1409090909090909,726,0,43,DL_Remix_emotional_folk_Guitar,6,2,omokage_emotionalfolk,0.14332517981529236,0
52,100,0.1409090909090909,43,1,44,DL_Remix_emotional_folk_Guitar,6,2,omokage_emotionalfolk,0.9998476505279541,1
64,100,0.2590909090909091,351,1,44,DL_Remix_emotional_folk_Guitar,6,4,omokage_emotionalfolk,0.20317798852920532,0
57,100,0.4,418,0,44,DL_Remix_emotional_folk_Guitar,6,6,omokage_emotionalfolk,0.19203944504261017,0
66,100,0.2,729,1,44,DL_Remix_emotional_folk_Guitar,6,3,omokage_emotionalfolk,0.2183995544910431,0
66,100,0.11818181818181818,831,0,44,DL_Remix_emotional_folk_Guitar,6,2,omokage_emotionalfolk,0.1982353925704956,0
66,100,0.11818181818181818,43,1,45,DL_Remix_emotional_folk_Guitar,6,2,omokage_emotionalfolk,0.9998561143875122,1
64,100,0.6409090909090909,431,1,45,DL_Remix_emotional_folk_Guitar,6,10,omokage_emotionalfolk,0.31260809302330017,0
59,100,0.5590909090909091,628,0,45,DL_Remix_emotional_folk_Guitar,6,9,omokage_emotionalfolk,0.2844596207141876,0
64,100,0.8,861,1,45,DL_Remix_emotional_folk_Guitar,6,13,omokage_emotionalfolk,0.31720593571662903,0
64,100,0.37727272727272726,193,1,46,DL_Remix_emotional_folk_Guitar,6,6,omokage_emotionalfolk,0.9998461008071899,1
59,100,0.7,289,0,46,DL_Remix_emotional_folk_Guitar,6,11,omokage_emotionalfolk,0.29937949776649475,0
64,100,1.3181818181818181,448,0,46,DL_Remix_emotional_folk_Guitar,6,15,omokage_emotionalfolk,0.2880569100379944,0
52,100,0.11818181818181818,831,1,46,DL_Remix_emotional_folk_Guitar,6,2,omokage_emotionalfolk,0.3392617404460907,0
57,100,0.5818181818181818,373,1,47,DL_Remix_emotional_folk_Guitar,6,9,omokage_emotionalfolk,0.9924188852310181,0
54,100,0.1590909090909091,198,1,48,DL_Remix_emotional_folk_Guitar,6,3,omokage_emotionalfolk,0.9998565912246704,1
63,100,0.12272727272727273,298,0,48,DL_Remix_emotional_folk_Guitar,6,2,omokage_emotionalfolk,0.3067254424095154,0
63,100,0.5590909090909091,523,0,48,DL_Remix_emotional_folk_Guitar,6,9,omokage_emotionalfolk,0.27905911207199097,0
54,100,0.1590909090909091,703,0,48,DL_Remix_emotional_folk_Guitar,6,3,omokage_emotionalfolk,0.3237816393375397,0
59,100,0.4,118,1,49,DL_Remix_emotional_folk_Guitar,6,6,omokage_emotionalfolk,0.9998169541358948,1
59,100,0.11818181818181818,260,0,49,DL_Remix_emotional_folk_Guitar,6,2,omokage_emotionalfolk,0.42161816358566284,0
54,100,0.2409090909090909,295,0,49,DL_Remix_emotional_folk_Guitar,6,4,omokage_emotionalfolk,0.4322625398635864,0
56,100,0.2,83,1,50,DL_Remix_emotional_folk_Guitar,6,3,omokage_emotionalfolk,0.9998196959495544,1
56,100,0.5590909090909091,515,1,50,DL_Remix_emotional_folk_Guitar,6,9,omokage_emotionalfolk,0.404348224401474,0
56,100,0.759090909090909,700,0,50,DL_Remix_emotional_folk_Guitar,6,12,omokage_emotionalfolk,0.42588138580322266,0
59,100,0.2636363636363636,378,1,53,DL_Remix_emotional_folk_Guitar,6,4,omokage_emotionalfolk,0.999830961227417,1
59,100,0.1409090909090909,440,0,53,DL_Remix_emotional_folk_Guitar,6,2,omokage_emotionalfolk,0.41521260142326355,0
57,100,0.6409090909090909,506,0,53,DL_Remix_emotional_folk_Guitar,6,10,omokage_emotionalfolk,0.41602200269699097,0
63,100,0.11818181818181818,440,1,54,DL_Remix_emotional_folk_Guitar,6,2,omokage_emotionalfolk,0.9996377229690552,1
57,100,0.2409090909090909,584,0,54,DL_Remix_emotional_folk_Guitar,6,4,omokage_emotionalfolk,0.5492981672286987,0
57,100,0.6818181818181818,0,1,55,DL_Remix_emotional_folk_Guitar,6,11,omokage_emotionalfolk,0.999776303768158,1
64,100,0.7,163,0,55,DL_Remix_emotional_folk_Guitar,6,11,omokage_emotionalfolk,0.1389831304550171,0
64,100,0.5181818181818182,483,1,55,DL_Remix_emotional_folk_Guitar,6,8,omokage_emotionalfolk,0.1305822879076004,0
52,100,0.11818181818181818,616,0,55,DL_Remix_emotional_folk_Guitar,6,2,omokage_emotionalfolk,0.14323455095291138,0
57,100,0.11818181818181818,646,0,55,DL_Remix_emotional_folk_Guitar,6,2,omokage_emotionalfolk,0.14222103357315063,0
57,100,0.5,729,0,55,DL_Remix_emotional_folk_Guitar,6,8,omokage_emotionalfolk,0.13281650841236115,0
59,100,0.12272727272727273,233,1,56,DL_Remix_emotional_folk_Guitar,6,2,omokage_emotionalfolk,0.9996370077133179,1
59,100,0.11818181818181818,330,0,56,DL_Remix_emotional_folk_Guitar,6,2,omokage_emotionalfolk,0.5510177612304688,0
64,100,0.2818181818181818,0,1,57,DL_Remix_emotional_folk_Guitar,6,5,omokage_emotionalfolk,0.9997326731681824,1
64,100,0.8,118,0,57,DL_Remix_emotional_folk_Guitar,6,13,omokage_emotionalfolk,0.05156901106238365,0
76,100,0.1590909090909091,295,0,57,DL_Remix_emotional_folk_Guitar,6,3,omokage_emotionalfolk,0.05043676495552063,0
52,100,0.2636363636363636,334,0,57,DL_Remix_emotional_folk_Guitar,6,4,omokage_emotionalfolk,0.047497380524873734,0
52,100,0.6,405,0,57,DL_Remix_emotional_folk_Guitar,6,10,omokage_emotionalfolk,0.050320450216531754,0
64,100,0.33636363636363636,611,0,57,DL_Remix_emotional_folk_Guitar,6,5,omokage_emotionalfolk,0.05834830552339554,0
52,100,0.21818181818181817,721,0,57,DL_Remix_emotional_folk_Guitar,6,3,omokage_emotionalfolk,0.06812558323144913,0
52,100,0.1409090909090909,796,0,57,DL_Remix_emotional_folk_Guitar,6,2,omokage_emotionalfolk,0.059708673506975174,0
59,100,0.21818181818181817,75,1,58,DL_Remix_emotional_folk_Guitar,6,3,omokage_emotionalfolk,0.9998051524162292,1
54,100,0.1590909090909091,298,0,58,DL_Remix_emotional_folk_Guitar,6,3,omokage_emotionalfolk,0.1291046440601349,0
64,100,0.2818181818181818,386,0,58,DL_Remix_emotional_folk_Guitar,6,5,omokage_emotionalfolk,0.12214292585849762,0
52,100,0.35909090909090907,483,0,58,DL_Remix_emotional_folk_Guitar,6,6,omokage_emotionalfolk,0.1324416697025299,0
64,100,0.33636363636363636,678,0,58,DL_Remix_emotional_folk_Guitar,6,5,omokage_emotionalfolk,0.1368577778339386,0
61,100,0.11818181818181818,813,0,58,DL_Remix_emotional_folk_Guitar,6,2,omokage_emotionalfolk,0.13070543110370636,0
66,100,0.12272727272727273,598,1,59,DL_Remix_emotional_folk_Guitar,6,2,omokage_emotionalfolk,0.9934984445571899,0
59,100,0.4590909090909091,144,1,60,DL_Remix_emotional_folk_Guitar,6,7,omokage_emotionalfolk,0.9998286962509155,1
59,100,0.2590909090909091,493,1,60,DL_Remix_emotional_folk_Guitar,6,4,omokage_emotionalfolk,0.2140752673149109,0
59,100,0.3,633,0,60,DL_Remix_emotional_folk_Guitar,6,5,omokage_emotionalfolk,0.19719198346138,0
64,100,0.1409090909090909,708,0,60,DL_Remix_emotional_folk_Guitar,6,2,omokage_emotionalfolk,0.216159388422966,0
64,100,0.17727272727272728,801,0,60,DL_Remix_emotional_folk_Guitar,6,3,omokage_emotionalfolk,0.20090845227241516,0
52,100,0.1590909090909091,40,1,61,DL_Remix_emotional_folk_Guitar,6,3,omokage_emotionalfolk,0.9998550415039062,1
66,100,0.2818181818181818,466,1,61,DL_Remix_emotional_folk_Guitar,6,5,omokage_emotionalfolk,0.32421863079071045,0
66,100,0.12272727272727273,576,0,61,DL_Remix_emotional_folk_Guitar,6,2,omokage_emotionalfolk,0.2877194583415985,0
61,100,0.42272727272727273,738,0,61,DL_Remix_emotional_folk_Guitar,6,7,omokage_emotionalfolk,0.2976159155368805,0
57,100,0.41818181818181815,43,1,62,DL_Remix_emotional_folk_Guitar,6,7,omokage_emotionalfolk,0.9998453855514526,1
61,100,0.2818181818181818,408,1,62,DL_Remix_emotional_folk_Guitar,6,5,omokage_emotionalfolk,0.333750456571579,0
64,100,0.1409090909090909,668,1,62,DL_Remix_emotional_folk_Guitar,6,2,omokage_emotionalfolk,0.3004194498062134,0
57,100,0.2,788,0,62,DL_Remix_emotional_folk_Guitar,6,3,omokage_emotionalfolk,0.29870617389678955,0
76,100,1.3590909090909091,145,1,64,DL_Remix_emotional_folk_Guitar,6,15,omokage_emotionalfolk,0.999772846698761,1
52,100,1.3227272727272728,453,1,64,DL_Remix_emotional_folk_Guitar,6,15,omokage_emotionalfolk,0.4258790612220764,0
52,100,0.11818181818181818,792,1,64,DL_Remix_emotional_folk_Guitar,6,2,omokage_emotionalfolk,0.4705377221107483,0
59,100,0.6227272727272727,333,1,65,DL_Remix_emotional_folk_Guitar,6,10,omokage_emotionalfolk,0.9998359680175781,1
52,100,0.12272727272727273,540,0,65,DL_Remix_emotional_folk_Guitar,6,2,omokage_emotionalfolk,0.36256173253059387,0
52,100,0.38181818181818183,663,0,65,DL_Remix_emotional_folk_Guitar,6,6,omokage_emotionalfolk,0.28568005561828613,0
64,100,0.1590909090909091,832,0,65,DL_Remix_emotional_folk_Guitar,6,3,omokage_emotionalfolk,0.30611664056777954,0
59,100,0.2818181818181818,430,1,66,DL_Remix_emotional_folk_Guitar,6,5,omokage_emotionalfolk,0.9931681156158447,0
64,100,0.1,360,1,67,DL_Remix_emotional_folk_Guitar,6,2,omokage_emotionalfolk,0.999860405921936,1
61,100,0.3,383,0,67,DL_Remix_emotional_folk_Guitar,6,5,omokage_emotionalfolk,0.2929888367652893,0
61,100,0.18181818181818182,519,0,67,DL_Remix_emotional_folk_Guitar,6,3,omokage_emotionalfolk,0.2974913418292999,0
61,100,0.2818181818181818,642,0,67,DL_Remix_emotional_folk_Guitar,6,5,omokage_emotionalfolk,0.3064917325973511,0
61,100,0.21818181818181817,612,1,68,DL_Remix_emotional_folk_Guitar,6,3,omokage_emotionalfolk,0.9996343851089478,1
56,100,0.35909090909090907,844,1,68,DL_Remix_emotional_folk_Guitar,6,6,omokage_emotionalfolk,0.5436326861381531,0
59,100,0.8590909090909091,110,1,69,DL_Remix_emotional_folk_Guitar,6,14,omokage_emotionalfolk,0.9998100399971008,1
59,100,0.1,443,1,69,DL_Remix_emotional_folk_Guitar,6,2,omokage_emotionalfolk,0.24567487835884094,0
56,100,0.12272727272727273,585,0,69,DL_Remix_emotional_folk_Guitar,6,2,omokage_emotionalfolk,0.19815069437026978,0
59,100,0.8227272727272728,695,0,69,DL_Remix_emotional_folk_Guitar,6,13,omokage_emotionalfolk,0.1994323432445526,0
63,100,0.21818181818181817,876,0,69,DL_Remix_emotional_folk_Guitar,6,3,omokage_emotionalfolk,0.2214532345533371,0
63,100,0.12272727272727273,56,1,70,DL_Remix_emotional_folk_Guitar,6,2,omokage_emotionalfolk,0.9998422861099243,1
64,100,0.17727272727272728,83,0,70,DL_Remix_emotional_folk_Guitar,6,3,omokage_emotionalfolk,0.21317897737026215,0
64,100,0.42272727272727273,386,1,70,DL_Remix_emotional_folk_Guitar,6,7,omokage_emotionalfolk,0.19872340559959412,0
57,100,0.11818181818181818,536,0,70,DL_Remix_emotional_folk_Guitar,6,2,omokage_emotionalfolk,0.20277418196201324,0
64,100,0.8181818181818182,580,0,70,DL_Remix_emotional_folk_Guitar,6,13,omokage_emotionalfolk,0.19606459140777588,0
57,100,0.4590909090909091,127,1,71,DL_Remix_emotional_folk_Guitar,6,7,omokage_emotionalfolk,0.9998093247413635,1
64,100,0.16363636363636364,729,1,71,DL_Remix_emotional_folk_Guitar,6,3,omokage_emotionalfolk,0.45783206820487976,0
64,100,0.1,832,0,71,DL_Remix_emotional_folk_Guitar,6,2,omokage_emotionalfolk,0.42341190576553345,0
59,100,0.2636363636363636,179,1,72,DL_Remix_emotional_folk_Guitar,6,4,omokage_emotionalfolk,0.9997963309288025,1
59,100,1.1590909090909092,260,0,72,DL_Remix_emotional_folk_Guitar,6,15,omokage_emotionalfolk,0.11033295094966888,0
59,100,0.43636363636363634,567,1,72,DL_Remix_emotional_folk_Guitar,6,7,omokage_emotionalfolk,0.1397581845521927,0
64,100,0.1409090909090909,663,0,72,DL_Remix_emotional_folk_Guitar,6,2,omokage_emotionalfolk,0.15213902294635773,0
59,100,0.21818181818181817,726,0,72,DL_Remix_emotional_folk_Guitar,6,3,omokage_emotionalfolk,0.14518269896507263,0
66,100,0.11818181818181818,823,0,72,DL_Remix_emotional_folk_Guitar,6,2,omokage_emotionalfolk,0.14016926288604736,0
54,100,0.41818181818181815,30,1,73,DL_Remix_emotional_folk_Guitar,6,7,omokage_emotionalfolk,0.9998458623886108,1
54,100,0.2590909090909091,172,0,73,DL_Remix_emotional_folk_Guitar,6,4,omokage_emotionalfolk,0.335063099861145,0
54,100,0.1590909090909091,286,0,73,DL_Remix_emotional_folk_Guitar,6,3,omokage_emotionalfolk,0.291220098733902,0
66,100,0.22272727272727272,430,0,73,DL_Remix_emotional_folk_Guitar,6,4,omokage_emotionalfolk,0.30628058314323425,0
61,100,0.17727272727272728,260,1,74,DL_Remix_emotional_folk_Guitar,6,3,omokage_emotionalfolk,0.9996293783187866,1
64,100,0.1409090909090909,792,1,74,DL_Remix_emotional_folk_Guitar,6,2,omokage_emotionalfolk,0.5573770999908447,0
61,100,0.21818181818181817,30,1,75,DL_Remix_emotional_folk_Guitar,6,3,omokage_emotionalfolk,0.9997022747993469,1
59,100,0.17727272727272728,250,0,75,DL_Remix_emotional_folk_Guitar,6,3,omokage_emotionalfolk,0.042851775884628296,0
59,100,0.11818181818181818,303,0,75,DL_Remix_emotional_folk_Guitar,6,2,omokage_emotionalfolk,0.03269467502832413,0
59,100,0.38181818181818183,333,0,75,DL_Remix_emotional_folk_Guitar,6,6,omokage_emotionalfolk,0.029390044510364532,0
71,100,0.1409090909090909,487,0,75,DL_Remix_emotional_folk_Guitar,6,2,omokage_emotionalfolk,0.03234443813562393,0
59,100,0.2409090909090909,563,0,75,DL_Remix_emotional_folk_Guitar,6,4,omokage_emotionalfolk,0.0331232063472271,0
52,100,0.1590909090909091,722,0,75,DL_Remix_emotional_folk_Guitar,6,3,omokage_emotionalfolk,0.04506409540772438,0
61,100,0.12272727272727273,783,0,75,DL_Remix_emotional_folk_Guitar,6,2,omokage_emotionalfolk,0.045527245849370956,0
52,100,0.1,866,0,75,DL_Remix_emotional_folk_Guitar,6,2,omokage_emotionalfolk,0.04931033402681351,0
52,100,0.3,56,1,76,DL_Remix_emotional_folk_Guitar,6,5,omokage_emotionalfolk,0.9997392296791077,1
57,100,0.4409090909090909,157,0,76,DL_Remix_emotional_folk_Guitar,6,7,omokage_emotionalfolk,0.05238883197307587,0
76,100,0.2590909090909091,273,0,76,DL_Remix_emotional_folk_Guitar,6,4,omokage_emotionalfolk,0.051301371306180954,0
57,100,0.5181818181818182,339,0,76,DL_Remix_emotional_folk_Guitar,6,8,omokage_emotionalfolk,0.04461180046200752,0
52,100,0.4409090909090909,509,0,76,DL_Remix_emotional_folk_Guitar,6,7,omokage_emotionalfolk,0.058208167552948,0
52,100,0.2409090909090909,747,1,76,DL_Remix_emotional_folk_Guitar,6,4,omokage_emotionalfolk,0.06219689920544624,0
64,100,0.17727272727272728,800,0,76,DL_Remix_emotional_folk_Guitar,6,3,omokage_emotionalfolk,0.0678795874118805,0
64,100,1.0,849,0,76,DL_Remix_emotional_folk_Guitar,6,15,omokage_emotionalfolk,0.056013673543930054,0
54,100,0.11818181818181818,193,1,77,DL_Remix_emotional_folk_Guitar,6,2,omokage_emotionalfolk,0.9998387098312378,1
63,100,0.2409090909090909,255,0,77,DL_Remix_emotional_folk_Guitar,6,4,omokage_emotionalfolk,0.20551887154579163,0
64,100,0.11818181818181818,480,0,77,DL_Remix_emotional_folk_Guitar,6,2,omokage_emotionalfolk,0.20961543917655945,0
64,100,0.2409090909090909,585,0,77,DL_Remix_emotional_folk_Guitar,6,4,omokage_emotionalfolk,0.2026422619819641,0
64,100,0.5409090909090909,690,0,77,DL_Remix_emotional_folk_Guitar,6,9,omokage_emotionalfolk,0.1970670074224472,0
56,100,0.3181818181818182,150,1,78,DL_Remix_emotional_folk_Guitar,6,5,omokage_emotionalfolk,0.9998321533203125,1
61,100,0.1,307,0,78,DL_Remix_emotional_folk_Guitar,6,2,omokage_emotionalfolk,0.2047961950302124,0
64,100,0.23636363636363636,502,0,78,DL_Remix_emotional_folk_Guitar,6,4,omokage_emotionalfolk,0.20085974037647247,0
61,100,0.11818181818181818,660,0,78,DL_Remix_emotional_folk_Guitar,6,2,omokage_emotionalfolk,0.2038685828447342,0
64,100,0.2,866,0,78,DL_Remix_emotional_folk_Guitar,6,3,omokage_emotionalfolk,0.20090340077877045,0
57,100,0.2772727272727273,40,1,79,DL_Remix_emotional_folk_Guitar,6,4,omokage_emotionalfolk,0.9997076392173767,1
57,100,0.2590909090909091,110,0,79,DL_Remix_emotional_folk_Guitar,6,4,omokage_emotionalfolk,0.056506842374801636,0
64,100,0.11818181818181818,176,0,79,DL_Remix_emotional_folk_Guitar,6,2,omokage_emotionalfolk,0.04934128001332283,0
57,100,0.37727272727272726,206,0,79,DL_Remix_emotional_folk_Guitar,6,6,omokage_emotionalfolk,0.045090604573488235,0
52,100,0.2409090909090909,470,1,79,DL_Remix_emotional_folk_Guitar,6,4,omokage_emotionalfolk,0.054320916533470154,0
64,100,0.6590909090909091,624,0,79,DL_Remix_emotional_folk_Guitar,6,11,omokage_emotionalfolk,0.05651901289820671,0
52,100,0.1,773,0,79,DL_Remix_emotional_folk_Guitar,6,2,omokage_emotionalfolk,0.0719151496887207,0
64,100,0.4818181818181818,796,0,79,DL_Remix_emotional_folk_Guitar,6,8,omokage_emotionalfolk,0.05981960892677307,0
64,100,0.2409090909090909,422,1,80,DL_Remix_emotional_folk_Guitar,6,4,omokage_emotionalfolk,0.999859094619751,1
76,100,0.17727272727272728,580,0,80,DL_Remix_emotional_folk_Guitar,6,3,omokage_emotionalfolk,0.31941428780555725,0
64,100,0.16363636363636364,619,0,80,DL_Remix_emotional_folk_Guitar,6,3,omokage_emotionalfolk,0.2911580204963684,0
64,100,0.22272727272727272,760,0,80,DL_Remix_emotional_folk_Guitar,6,4,omokage_emotionalfolk,0.30060625076293945,0
61,100,0.3,9,1,81,DL_Remix_emotional_folk_Guitar,6,5,omokage_emotionalfolk,0.9998481273651123,1
61,100,0.2636363636363636,729,1,81,DL_Remix_emotional_folk_Guitar,6,4,omokage_emotionalfolk,0.3309853672981262,0
59,100,0.12272727272727273,817,0,81,DL_Remix_emotional_folk_Guitar,6,2,omokage_emotionalfolk,0.2914048731327057,0
61,100,0.12272727272727273,870,0,81,DL_Remix_emotional_folk_Guitar,6,2,omokage_emotionalfolk,0.3039793074131012,0
64,100,0.13636363636363635,17,1,82,DL_Remix_emotional_folk_Guitar,6,2,omokage_emotionalfolk,0.999860405921936,1
66,100,0.3409090909090909,255,1,82,DL_Remix_emotional_folk_Guitar,6,5,omokage_emotionalfolk,0.30538302659988403,0
66,100,0.2590909090909091,404,0,82,DL_Remix_emotional_folk_Guitar,6,4,omokage_emotionalfolk,0.2959487736225128,0
63,100,0.38181818181818183,673,1,82,DL_Remix_emotional_folk_Guitar,6,6,omokage_emotionalfolk,0.29978054761886597,0
60,100,0.1409090909090909,289,1,83,DL_Remix_emotional_folk_Guitar,6,2,omokage_emotionalfolk,0.9998592138290405,1
60,100,0.32272727272727275,386,0,83,DL_Remix_emotional_folk_Guitar,6,5,omokage_emotionalfolk,0.31960606575012207,0
63,100,0.1409090909090909,466,0,83,DL_Remix_emotional_folk_Guitar,6,2,omokage_emotionalfolk,0.29294121265411377,0
61,100,0.6409090909090909,536,0,83,DL_Remix_emotional_folk_Guitar,6,10,omokage_emotionalfolk,0.29019564390182495,0
64,100,0.1590909090909091,79,1,84,DL_Remix_emotional_folk_Guitar,6,3,omokage_emotionalfolk,0.9998120665550232,1
61,100,0.22272727272727272,157,0,84,DL_Remix_emotional_folk_Guitar,6,4,omokage_emotionalfolk,0.11943794041872025,0
57,100,0.6363636363636364,413,1,84,DL_Remix_emotional_folk_Guitar,6,10,omokage_emotionalfolk,0.11264541745185852,0
59,100,0.11818181818181818,616,0,84,DL_Remix_emotional_folk_Guitar,6,2,omokage_emotionalfolk,0.145549476146698,0
59,100,0.18181818181818182,716,0,84,DL_Remix_emotional_folk_Guitar,6,3,omokage_emotionalfolk,0.1473509520292282,0
57,100,0.3181818181818182,787,0,84,DL_Remix_emotional_folk_Guitar,6,5,omokage_emotionalfolk,0.13026513159275055,0
64,100,0.8181818181818182,9,1,85,DL_Remix_emotional_folk_Guitar,6,13,omokage_emotionalfolk,0.9998087286949158,1
64,100,0.1,193,0,85,DL_Remix_emotional_folk_Guitar,6,2,omokage_emotionalfolk,0.4480442404747009,0
63,100,0.4409090909090909,506,1,85,DL_Remix_emotional_folk_Guitar,6,7,omokage_emotionalfolk,0.4175809323787689,0
59,100,0.12272727272727273,123,1,86,DL_Remix_emotional_folk_Guitar,6,2,omokage_emotionalfolk,0.9996312856674194,1
64,100,0.7636363636363637,796,1,86,DL_Remix_emotional_folk_Guitar,6,12,omokage_emotionalfolk,0.543120265007019,0
59,100,0.740909090909091,246,1,87,DL_Remix_emotional_folk_Guitar,6,12,omokage_emotionalfolk,0.9998076558113098,1
59,100,0.3181818181818182,493,1,87,DL_Remix_emotional_folk_Guitar,6,5,omokage_emotionalfolk,0.4391666352748871,0
66,100,0.17727272727272728,677,0,87,DL_Remix_emotional_folk_Guitar,6,3,omokage_emotionalfolk,0.4383898973464966,0
63,100,0.1409090909090909,184,1,88,DL_Remix_emotional_folk_Guitar,6,2,omokage_emotionalfolk,0.9998490810394287,1
63,100,0.35909090909090907,220,0,88,DL_Remix_emotional_folk_Guitar,6,6,omokage_emotionalfolk,0.3082195520401001,0
59,100,0.7,299,0,88,DL_Remix_emotional_folk_Guitar,6,11,omokage_emotionalfolk,0.29231026768684387,0
52,100,0.4818181818181818,496,0,88,DL_Remix_emotional_folk_Guitar,6,8,omokage_emotionalfolk,0.3269088864326477,0
64,100,0.2,43,1,89,DL_Remix_emotional_folk_Guitar,6,3,omokage_emotionalfolk,0.9998618364334106,1
64,100,0.3,237,0,89,DL_Remix_emotional_folk_Guitar,6,5,omokage_emotionalfolk,0.3225623369216919,0
69,100,0.2,356,0,89,DL_Remix_emotional_folk_Guitar,6,3,omokage_emotionalfolk,0.2910956144332886,0
66,100,1.2818181818181817,496,0,89,DL_Remix_emotional_folk_Guitar,6,15,omokage_emotionalfolk,0.28845226764678955,0
53,100,0.22272727272727272,488,1,0,DL_Remix_Guitar,6,4,omokage,0.999835729598999,1
58,100,0.21818181818181817,682,0,0,DL_Remix_Guitar,6,3,omokage,0.4010765850543976,0
58,100,0.5818181818181818,748,0,0,DL_Remix_Guitar,6,9,omokage,0.41881799697875977,0
62,100,0.6636363636363637,4,1,1,DL_Remix_Guitar,6,11,omokage,0.9997819066047668,1
53,100,0.37727272727272726,163,0,1,DL_Remix_Guitar,6,6,omokage,0.14280159771442413,0
58,100,0.18181818181818182,255,0,1,DL_Remix_Guitar,6,3,omokage,0.12364638596773148,0
63,100,0.12272727272727273,597,1,1,DL_Remix_Guitar,6,2,omokage,0.14772064983844757,0
63,100,0.5,651,0,1,DL_Remix_Guitar,6,8,omokage,0.149214506149292,0
58,100,0.3409090909090909,823,0,1,DL_Remix_Guitar,6,5,omokage,0.1402394026517868,0
53,100,0.2818181818181818,21,1,2,DL_Remix_Guitar,6,5,omokage,0.9998525381088257,1
60,100,0.3409090909090909,220,0,2,DL_Remix_Guitar,6,5,omokage,0.3161633610725403,0
65,100,0.6772727272727272,348,0,2,DL_Remix_Guitar,6,11,omokage,0.2790306508541107,0
60,100,0.32272727272727275,541,0,2,DL_Remix_Guitar,6,5,omokage,0.3196149468421936,0
53,100,0.9,61,1,3,DL_Remix_Guitar,6,14,omokage,0.9998247027397156,1
58,100,0.3409090909090909,263,0,3,DL_Remix_Guitar,6,5,omokage,0.33413368463516235,0
53,100,0.12272727272727273,364,0,3,DL_Remix_Guitar,6,2,omokage,0.3208180367946625,0
53,100,0.32272727272727275,818,1,3,DL_Remix_Guitar,6,5,omokage,0.3127497434616089,0
58,100,0.12272727272727273,56,1,4,DL_Remix_Guitar,6,2,omokage,0.9998257756233215,1
58,100,0.1409090909090909,255,0,4,DL_Remix_Guitar,6,2,omokage,0.207166388630867,0
63,100,0.5409090909090909,532,1,4,DL_Remix_Guitar,6,9,omokage,0.19611303508281708,0
53,100,0.2,695,0,4,DL_Remix_Guitar,6,3,omokage,0.2332293838262558,0
53,100,0.8818181818181818,813,0,4,DL_Remix_Guitar,6,14,omokage,0.2063770443201065,0
65,100,0.2409090909090909,263,1,5,DL_Remix_Guitar,6,4,omokage,0.9996055960655212,1
65,100,1.3181818181818181,637,1,5,DL_Remix_Guitar,6,15,omokage,0.5319238901138306,0
62,100,0.1590909090909091,220,1,10,DL_Remix_Guitar,6,3,omokage,0.9996452331542969,1
69,100,0.2772727272727273,744,1,10,DL_Remix_Guitar,6,4,omokage,0.5462331175804138,0
65,100,0.6181818181818182,457,1,13,DL_Remix_Guitar,6,10,omokage,0.9996156692504883,1
65,100,0.22272727272727272,598,0,13,DL_Remix_Guitar,6,4,omokage,0.5573392510414124,0
62,100,0.6227272727272727,166,1,14,DL_Remix_Guitar,6,10,omokage,0.99981290102005,1
62,100,0.21818181818181817,307,0,14,DL_Remix_Guitar,6,3,omokage,0.4291934370994568,0
58,100,0.22272727272727272,862,1,14,DL_Remix_Guitar,6,4,omokage,0.43109744787216187,0
62,100,0.21818181818181817,360,1,15,DL_Remix_Guitar,6,3,omokage,0.9998233914375305,1
58,100,0.6409090909090909,563,0,15,DL_Remix_Guitar,6,10,omokage,0.3747759759426117,0
53,100,0.32272727272727275,716,0,15,DL_Remix_Guitar,6,5,omokage,0.4643763601779938,0
58,100,0.35909090909090907,162,1,16,DL_Remix_Guitar,6,6,omokage,0.9997956156730652,1
53,100,1.018181818181818,413,1,16,DL_Remix_Guitar,6,15,omokage,0.40669339895248413,0
60,100,1.0,822,1,16,DL_Remix_Guitar,6,15,omokage,0.4499720633029938,0
53,100,0.1409090909090909,34,1,18,DL_Remix_Guitar,6,2,omokage,0.9998568296432495,1
53,100,0.1409090909090909,430,1,18,DL_Remix_Guitar,6,2,omokage,0.3300713002681732,0
53,100,0.2,474,0,18,DL_Remix_Guitar,6,3,omokage,0.28806954622268677,0
58,100,0.4590909090909091,835,1,18,DL_Remix_Guitar,6,7,omokage,0.2951813340187073,0
53,100,0.1409090909090909,804,1,19,DL_Remix_Guitar,6,2,omokage,0.9935171604156494,0
53,100,0.5181818181818182,492,1,20,DL_Remix_Guitar,6,8,omokage,0.9996209144592285,1
53,100,0.11818181818181818,725,1,20,DL_Remix_Guitar,6,2,omokage,0.5565677285194397,0
58,100,0.35909090909090907,611,1,21,DL_Remix_Guitar,6,6,omokage,0.9997954964637756,1
58,100,0.1,694,0,21,DL_Remix_Guitar,6,2,omokage,0.4460470974445343,0
62,100,0.8181818181818182,770,0,21,DL_Remix_Guitar,6,13,omokage,0.4292447865009308,0
58,100,0.6772727272727272,347,1,22,DL_Remix_Guitar,6,11,omokage,0.9914419054985046,0
65,100,0.6409090909090909,96,1,23,DL_Remix_Guitar,6,10,omokage,0.9926689863204956,1
58,100,0.1590909090909091,413,1,24,DL_Remix_Guitar,6,3,omokage,0.9925566911697388,0
65,100,0.5772727272727273,127,1,25,DL_Remix_Guitar,6,9,omokage,0.9998003840446472,1
58,100,0.2,370,1,25,DL_Remix_Guitar,6,3,omokage,0.42797818779945374,0
65,100,0.6,725,1,25,DL_Remix_Guitar,6,10,omokage,0.4369671940803528,0
63,100,0.9409090909090909,449,1,27,DL_Remix_Guitar,6,15,omokage,0.999527096748352,1
63,100,0.3409090909090909,708,1,27,DL_Remix_Guitar,6,5,omokage,0.577975332736969,0
63,100,0.11818181818181818,65,1,28,DL_Remix_Guitar,6,2,omokage,0.9998395442962646,1
63,100,0.21818181818181817,119,0,28,DL_Remix_Guitar,6,3,omokage,0.20456834137439728,0
53,100,0.18181818181818182,202,0,28,DL_Remix_Guitar,6,3,omokage,0.20048584043979645,0
65,100,0.2,241,0,28,DL_Remix_Guitar,6,3,omokage,0.21107451617717743,0
65,100,0.35909090909090907,739,1,28,DL_Remix_Guitar,6,6,omokage,0.2030583769083023,0
65,100,1.0,260,1,29,DL_Remix_Guitar,6,15,omokage,0.999803364276886,1
65,100,0.1409090909090909,515,1,29,DL_Remix_Guitar,6,2,omokage,0.24455046653747559,0
53,100,0.2409090909090909,553,0,29,DL_Remix_Guitar,6,4,omokage,0.19641318917274475,0
53,100,0.1,787,1,29,DL_Remix_Guitar,6,2,omokage,0.21324166655540466,0
53,100,0.3409090909090909,858,0,29,DL_Remix_Guitar,6,5,omokage,0.20514345169067383,0
53,100,0.1,289,1,30,DL_Remix_Guitar,6,2,omokage,0.9998390674591064,1
53,100,0.5363636363636364,413,0,30,DL_Remix_Guitar,6,9,omokage,0.1938961297273636,0
53,100,0.4590909090909091,581,0,30,DL_Remix_Guitar,6,7,omokage,0.19573187828063965,0
53,100,0.12272727272727273,760,0,30,DL_Remix_Guitar,6,2,omokage,0.22084006667137146,0
53,100,0.2818181818181818,791,0,30,DL_Remix_Guitar,6,5,omokage,0.19782334566116333,0
58,100,0.5227272727272727,201,1,32,DL_Remix_Guitar,6,8,omokage,0.9998018145561218,1
53,100,0.1409090909090909,804,1,32,DL_Remix_Guitar,6,2,omokage,0.4549000561237335,0
58,100,0.2590909090909091,836,0,32,DL_Remix_Guitar,6,4,omokage,0.41945934295654297,0
53,100,0.38181818181818183,13,1,33,DL_Remix_Guitar,6,6,omokage,0.9998012185096741,1
53,100,0.5590909090909091,105,0,33,DL_Remix_Guitar,6,9,omokage,0.1205768808722496,0
53,100,0.38181818181818183,378,1,33,DL_Remix_Guitar,6,6,omokage,0.12613660097122192,0
65,100,0.41818181818181815,461,0,33,DL_Remix_Guitar,6,7,omokage,0.1365499198436737,0
53,100,0.4636363636363636,554,0,33,DL_Remix_Guitar,6,7,omokage,0.1451142579317093,0
55,100,0.43636363636363634,678,0,33,DL_Remix_Guitar,6,7,omokage,0.13338473439216614,0
55,100,0.2772727272727273,215,1,34,DL_Remix_Guitar,6,4,omokage,0.9998366832733154,1
53,100,0.18181818181818182,321,0,34,DL_Remix_Guitar,6,3,omokage,0.3502637445926666,0
60,100,0.16363636363636364,421,0,34,DL_Remix_Guitar,6,3,omokage,0.29961228370666504,0
53,100,1.2,681,1,34,DL_Remix_Guitar,6,15,omokage,0.29068857431411743,0
53,100,0.18181818181818182,69,1,35,DL_Remix_Guitar,6,3,omokage,0.9998369216918945,1
65,100,0.37727272727272726,435,1,35,DL_Remix_Guitar,6,6,omokage,0.2019127905368805,0
65,100,0.32272727272727275,738,1,35,DL_Remix_Guitar,6,5,omokage,0.19772660732269287,0
65,100,0.11818181818181818,845,0,35,DL_Remix_Guitar,6,2,omokage,0.2072495073080063,0
65,100,0.2590909090909091,875,0,35,DL_Remix_Guitar,6,4,omokage,0.20425541698932648,0
63,100,0.1409090909090909,75,1,36,DL_Remix_Guitar,6,2,omokage,0.9998329877853394,1
53,100,0.6409090909090909,311,1,36,DL_Remix_Guitar,6,10,omokage,0.20222912728786469,0
53,100,0.8590909090909091,458,0,36,DL_Remix_Guitar,6,14,omokage,0.19774390757083893,0
53,100,0.2590909090909091,694,1,36,DL_Remix_Guitar,6,4,omokage,0.23736697435379028,0
53,100,0.9,756,0,36,DL_Remix_Guitar,6,14,omokage,0.20808696746826172,0
53,100,0.1590909090909091,88,1,37,DL_Remix_Guitar,6,3,omokage,0.9996423721313477,1
53,100,0.2590909090909091,721,1,37,DL_Remix_Guitar,6,4,omokage,0.5519050359725952,0
63,100,0.17727272727272728,163,1,38,DL_Remix_Guitar,6,3,omokage,0.9998524188995361,1
53,100,0.1590909090909091,518,1,38,DL_Remix_Guitar,6,3,omokage,0.33294981718063354,0
53,100,0.1409090909090909,638,0,38,DL_Remix_Guitar,6,2,omokage,0.29618239402770996,0
53,100,0.5409090909090909,694,0,38,DL_Remix_Guitar,6,9,omokage,0.2950478196144104,0
58,100,0.1409090909090909,233,1,39,DL_Remix_Guitar,6,2,omokage,0.992439866065979,0
60,100,0.5818181818181818,431,1,40,DL_Remix_Guitar,6,9,omokage,0.9931585192680359,0
65,100,0.2818181818181818,176,1,41,DL_Remix_Guitar,6,5,omokage,0.9998235106468201,1
58,100,0.11818181818181818,251,0,41,DL_Remix_Guitar,6,2,omokage,0.4155436158180237,0
58,100,0.41818181818181815,801,1,41,DL_Remix_Guitar,6,7,omokage,0.41740092635154724,0
53,100,0.2590909090909091,31,1,42,DL_Remix_Guitar,6,4,omokage,0.9998524188995361,1
53,100,0.18181818181818182,91,0,42,DL_Remix_Guitar,6,3,omokage,0.3283020257949829,0
53,100,0.1409090909090909,638,1,42,DL_Remix_Guitar,6,2,omokage,0.2967250645160675,0
53,100,0.740909090909091,791,0,42,DL_Remix_Guitar,6,12,omokage,0.28756579756736755,0
53,100,0.42272727272727273,334,1,43,DL_Remix_Guitar,6,7,omokage,0.9998325109481812,1
53,100,0.11818181818181818,700,1,43,DL_Remix_Guitar,6,2,omokage,0.4147239327430725,0
65,100,0.1590909090909091,836,0,43,DL_Remix_Guitar,6,3,omokage,0.4229506254196167,0
53,100,0.2590909090909091,13,1,44,DL_Remix_Guitar,6,4,omokage,0.9997708201408386,1
55,100,0.2590909090909091,144,0,44,DL_Remix_Guitar,6,4,omokage,0.0767524391412735,0
53,100,0.1409090909090909,233,0,44,DL_Remix_Guitar,6,2,omokage,0.07431615889072418,0
55,100,0.21818181818181817,303,0,44,DL_Remix_Guitar,6,3,omokage,0.0756220817565918,0
65,100,0.36363636363636365,399,0,44,DL_Remix_Guitar,6,6,omokage,0.09090976417064667,0
65,100,0.22272727272727272,496,0,44,DL_Remix_Guitar,6,4,omokage,0.09930005669593811,0
53,100,0.11818181818181818,545,0,44,DL_Remix_Guitar,6,2,omokage,0.08751240372657776,0
65,100,0.35909090909090907,351,1,45,DL_Remix_Guitar,6,6,omokage,0.9998464584350586,1
65,100,0.1409090909090909,461,0,45,DL_Remix_Guitar,6,2,omokage,0.34334591031074524,0
58,100,0.6590909090909091,668,0,45,DL_Remix_Guitar,6,11,omokage,0.27158308029174805,0
58,100,0.4772727272727273,875,0,45,DL_Remix_Guitar,6,8,omokage,0.3272136151790619,0
58,100,0.1409090909090909,550,1,46,DL_Remix_Guitar,6,2,omokage,0.9998207688331604,1
58,100,0.12272727272727273,619,0,46,DL_Remix_Guitar,6,2,omokage,0.4105641841888428,0
53,100,0.8,761,0,46,DL_Remix_Guitar,6,13,omokage,0.4303321838378906,0
53,100,0.22272727272727272,408,1,47,DL_Remix_Guitar,6,4,omokage,0.9996463060379028,1
53,100,0.2818181818181818,804,1,47,DL_Remix_Guitar,6,5,omokage,0.5453634262084961,0
60,100,0.2,373,1,48,DL_Remix_Guitar,6,3,omokage,0.9998394250869751,1
57,100,0.1,703,1,48,DL_Remix_Guitar,6,2,omokage,0.39839816093444824,0
53,100,0.12272727272727273,751,0,48,DL_Remix_Guitar,6,2,omokage,0.4278380572795868,0
53,100,0.2409090909090909,418,1,49,DL_Remix_Guitar,6,4,omokage,0.9933411478996277,0
58,100,0.41818181818181815,43,1,50,DL_Remix_Guitar,6,7,omokage,0.999813973903656,1
55,100,0.32272727272727275,364,1,50,DL_Remix_Guitar,6,5,omokage,0.2214854210615158,0
55,100,0.41818181818181815,440,0,50,DL_Remix_Guitar,6,7,omokage,0.20236729085445404,0
65,100,0.8818181818181818,619,0,50,DL_Remix_Guitar,6,14,omokage,0.2091858834028244,0
53,100,0.4409090909090909,861,1,50,DL_Remix_Guitar,6,7,omokage,0.23046588897705078,0
58,100,0.1590909090909091,144,1,51,DL_Remix_Guitar,6,3,omokage,0.999833345413208,1
58,100,0.9772727272727273,383,1,51,DL_Remix_Guitar,6,15,omokage,0.2889595329761505,0
53,100,0.16363636363636364,751,1,51,DL_Remix_Guitar,6,3,omokage,0.3483768403530121,0
53,100,0.5409090909090909,801,0,51,DL_Remix_Guitar,6,9,omokage,0.31241539120674133,0
65,100,0.3181818181818182,40,1,52,DL_Remix_Guitar,6,5,omokage,0.9996891021728516,1
53,100,0.35909090909090907,188,0,52,DL_Remix_Guitar,6,6,omokage,0.04329043626785278,0
53,100,0.16363636363636364,334,0,52,DL_Remix_Guitar,6,3,omokage,0.03394806385040283,0
53,100,0.3,386,0,52,DL_Remix_Guitar,6,5,omokage,0.02978658303618431,0
53,100,0.21818181818181817,480,0,52,DL_Remix_Guitar,6,3,omokage,0.030611511319875717,0
53,100,0.2,536,0,52,DL_Remix_Guitar,6,3,omokage,0.032898496836423874,0
53,100,0.2590909090909091,646,0,52,DL_Remix_Guitar,6,4,omokage,0.039783407002687454,0
65,100,0.2409090909090909,804,0,52,DL_Remix_Guitar,6,4,omokage,0.04813531041145325,0
53,100,0.5,858,0,52,DL_Remix_Guitar,6,8,omokage,0.04531049355864525,0
53,100,0.4818181818181818,373,1,53,DL_Remix_Guitar,6,8,omokage,0.9997996687889099,1
53,100,0.23636363636363636,523,0,53,DL_Remix_Guitar,6,4,omokage,0.130011186003685,0
53,100,0.11818181818181818,593,0,53,DL_Remix_Guitar,6,2,omokage,0.11910587549209595,0
53,100,0.1409090909090909,668,0,53,DL_Remix_Guitar,6,2,omokage,0.13464005291461945,0
53,100,0.12272727272727273,751,0,53,DL_Remix_Guitar,6,2,omokage,0.14368316531181335,0
53,100,0.1590909090909091,813,0,53,DL_Remix_Guitar,6,3,omokage,0.13166309893131256,0
53,100,0.3409090909090909,88,1,54,DL_Remix_Guitar,6,5,omokage,0.9998257756233215,1
53,100,0.17727272727272728,348,1,54,DL_Remix_Guitar,6,3,omokage,0.422885537147522,0
58,100,0.22272727272727272,541,0,54,DL_Remix_Guitar,6,4,omokage,0.4133415222167969,0
55,100,0.2409090909090909,488,1,55,DL_Remix_Guitar,6,4,omokage,0.9996336698532104,1
53,100,0.1590909090909091,678,0,55,DL_Remix_Guitar,6,3,omokage,0.5495330691337585,0
58,100,0.18181818181818182,321,1,56,DL_Remix_Guitar,6,3,omokage,0.999816358089447,1
53,100,0.2409090909090909,466,0,56,DL_Remix_Guitar,6,4,omokage,0.44018909335136414,0
53,100,0.9590909090909091,756,1,56,DL_Remix_Guitar,6,15,omokage,0.41157516837120056,0
53,100,0.2,91,1,57,DL_Remix_Guitar,6,3,omokage,0.9998039603233337,1
53,100,0.5590909090909091,141,0,57,DL_Remix_Guitar,6,9,omokage,0.11678518354892731,0
58,100,0.1409090909090909,263,0,57,DL_Remix_Guitar,6,2,omokage,0.1216185986995697,0
53,100,0.6,334,0,57,DL_Remix_Guitar,6,10,omokage,0.13765892386436462,0
53,100,0.23636363636363636,633,1,57,DL_Remix_Guitar,6,4,omokage,0.1511368751525879,0
53,100,0.2590909090909091,726,0,57,DL_Remix_Guitar,6,4,omokage,0.13522668182849884,0
65,100,0.16363636363636364,26,1,58,DL_Remix_Guitar,6,3,omokage,0.9998072981834412,1
53,100,0.11818181818181818,61,0,58,DL_Remix_Guitar,6,2,omokage,0.12579457461833954,0
65,100,0.4590909090909091,88,0,58,DL_Remix_Guitar,6,7,omokage,0.11517252027988434,0
53,100,0.22272727272727272,188,0,58,DL_Remix_Guitar,6,4,omokage,0.13918998837471008,0
53,100,0.4,241,0,58,DL_Remix_Guitar,6,6,omokage,0.1408049762248993,0
53,100,0.1590909090909091,458,0,58,DL_Remix_Guitar,6,3,omokage,0.13378697633743286,0
53,100,0.3181818181818182,18,1,59,DL_Remix_Guitar,6,5,omokage,0.9998501539230347,1
53,100,0.42272727272727273,101,0,59,DL_Remix_Guitar,6,7,omokage,0.3180166482925415,0
53,100,0.35909090909090907,558,1,59,DL_Remix_Guitar,6,6,omokage,0.29124853014945984,0
53,100,0.23636363636363636,788,0,59,DL_Remix_Guitar,6,4,omokage,0.3113531172275543,0
58,100,0.18181818181818182,91,1,60,DL_Remix_Guitar,6,3,omokage,0.9998323917388916,1
58,100,0.3181818181818182,501,1,60,DL_Remix_Guitar,6,5,omokage,0.3293105363845825,0
58,100,0.4,633,0,60,DL_Remix_Guitar,6,6,omokage,0.303083598613739,0
58,100,0.1409090909090909,801,0,60,DL_Remix_Guitar,6,2,omokage,0.32182472944259644,0
53,100,0.18181818181818182,0,1,61,DL_Remix_Guitar,6,3,omokage,0.9996370077133179,1
53,100,0.16363636363636364,246,1,61,DL_Remix_Guitar,6,3,omokage,0.5508025288581848,0
58,100,0.11818181818181818,105,1,62,DL_Remix_Guitar,6,2,omokage,0.9998155236244202,1
53,100,0.5181818181818182,348,1,62,DL_Remix_Guitar,6,8,omokage,0.41475027799606323,0
53,100,0.1409090909090909,584,1,62,DL_Remix_Guitar,6,2,omokage,0.4433128535747528,0
63,100,0.2,4,1,63,DL_Remix_Guitar,6,3,omokage,0.9998230338096619,1
58,100,0.4,118,0,63,DL_Remix_Guitar,6,6,omokage,0.20052513480186462,0
58,100,0.18181818181818182,308,0,63,DL_Remix_Guitar,6,3,omokage,0.2083035260438919,0
53,100,0.5,378,0,63,DL_Remix_Guitar,6,8,omokage,0.22147724032402039,0
53,100,0.21818181818181817,493,0,63,DL_Remix_Guitar,6,3,omokage,0.22167515754699707,0
63,100,0.32272727272727275,189,1,65,DL_Remix_Guitar,6,5,omokage,0.9928401708602905,0
53,100,0.2,92,1,66,DL_Remix_Guitar,6,3,omokage,0.9996238946914673,1
58,100,0.37727272727272726,612,1,66,DL_Remix_Guitar,6,6,omokage,0.5373930931091309,0
53,100,0.2590909090909091,493,1,67,DL_Remix_Guitar,6,4,omokage,0.9998573064804077,1
53,100,0.16363636363636364,553,0,67,DL_Remix_Guitar,6,3,omokage,0.3154762089252472,0
53,100,0.11818181818181818,593,0,67,DL_Remix_Guitar,6,2,omokage,0.28764140605926514,0
53,100,0.11818181818181818,624,0,67,DL_Remix_Guitar,6,2,omokage,0.3062174916267395,0
58,100,0.11818181818181818,66,1,68,DL_Remix_Guitar,6,2,omokage,0.9996161460876465,1
53,100,0.5409090909090909,686,1,68,DL_Remix_Guitar,6,9,omokage,0.5479801893234253,0
53,100,0.1409090909090909,273,1,69,DL_Remix_Guitar,6,2,omokage,0.9998573064804077,1
58,100,0.1409090909090909,399,0,69,DL_Remix_Guitar,6,2,omokage,0.3044201731681824,0
53,100,0.18181818181818182,430,0,69,DL_Remix_Guitar,6,3,omokage,0.309423565864563,0
58,100,0.2409090909090909,470,0,69,DL_Remix_Guitar,6,4,omokage,0.2964867949485779,0
60,100,0.1409090909090909,316,1,70,DL_Remix_Guitar,6,2,omokage,0.9936459064483643,0
55,100,0.4818181818181818,682,1,71,DL_Remix_Guitar,6,8,omokage,0.9995861649513245,1
58,100,0.4,800,0,71,DL_Remix_Guitar,6,6,omokage,0.5441317558288574,0
55,100,0.22272727272727272,69,1,72,DL_Remix_Guitar,6,4,omokage,0.9998394250869751,1
58,100,0.3409090909090909,179,0,72,DL_Remix_Guitar,6,5,omokage,0.31194430589675903,0
65,100,0.2818181818181818,267,0,72,DL_Remix_Guitar,6,5,omokage,0.3105161488056183,0
65,100,0.21818181818181817,876,1,72,DL_Remix_Guitar,6,3,omokage,0.31613364815711975,0
65,100,0.18181818181818182,153,1,73,DL_Remix_Guitar,6,3,omokage,0.9934398531913757,0
65,100,0.2,326,1,74,DL_Remix_Guitar,6,3,omokage,0.9998553991317749,1
53,100,0.1,413,0,74,DL_Remix_Guitar,6,2,omokage,0.32531625032424927,0
55,100,0.1590909090909091,475,0,74,DL_Remix_Guitar,6,3,omokage,0.28794074058532715,0
65,100,0.2590909090909091,800,1,74,DL_Remix_Guitar,6,4,omokage,0.30196499824523926,0
65,100,0.5409090909090909,0,1,75,DL_Remix_Guitar,6,9,omokage,0.9998441934585571,1
53,100,0.11818181818181818,656,1,75,DL_Remix_Guitar,6,2,omokage,0.3452839255332947,0
65,100,0.1590909090909091,682,0,75,DL_Remix_Guitar,6,3,omokage,0.2915745675563812,0
53,100,0.35909090909090907,734,0,75,DL_Remix_Guitar,6,6,omokage,0.29878392815589905,0
63,100,0.2772727272727273,303,1,76,DL_Remix_Guitar,6,4,omokage,0.9998300075531006,1
53,100,0.22272727272727272,619,1,76,DL_Remix_Guitar,6,4,omokage,0.2244604080915451,0
53,100,0.11818181818181818,770,0,76,DL_Remix_Guitar,6,2,omokage,0.1998434215784073,0
53,100,0.11818181818181818,800,0,76,DL_Remix_Guitar,6,2,omokage,0.20761226117610931,0
53,100,0.4590909090909091,836,0,76,DL_Remix_Guitar,6,7,omokage,0.19844523072242737,0
53,100,0.33636363636363636,502,1,77,DL_Remix_Guitar,6,5,omokage,0.9998311996459961,1
53,100,0.4,637,0,77,DL_Remix_Guitar,6,6,omokage,0.40782636404037476,0
53,100,0.18181818181818182,729,0,77,DL_Remix_Guitar,6,3,omokage,0.4323395788669586,0
58,100,0.35909090909090907,119,1,78,DL_Remix_Guitar,6,6,omokage,0.9998168349266052,1
53,100,0.2772727272727273,383,1,78,DL_Remix_Guitar,6,4,omokage,0.21946658194065094,0
53,100,0.3409090909090909,527,0,78,DL_Remix_Guitar,6,5,omokage,0.19847694039344788,0
53,100,0.1409090909090909,703,0,78,DL_Remix_Guitar,6,2,omokage,0.22353169322013855,0
53,100,0.7,817,0,78,DL_Remix_Guitar,6,11,omokage,0.20258156955242157,0
53,100,0.3,106,1,79,DL_Remix_Guitar,6,5,omokage,0.9998403787612915,1
53,100,0.3,567,1,79,DL_Remix_Guitar,6,5,omokage,0.20502755045890808,0
53,100,0.17727272727272728,677,0,79,DL_Remix_Guitar,6,3,omokage,0.20192918181419373,0
57,100,0.3,716,0,79,DL_Remix_Guitar,6,5,omokage,0.20020151138305664,0
57,100,0.11818181818181818,813,0,79,DL_Remix_Guitar,6,2,omokage,0.20459657907485962,0
53,100,0.3,157,1,81,DL_Remix_Guitar,6,5,omokage,0.9998031258583069,1
58,100,0.22272727272727272,246,0,81,DL_Remix_Guitar,6,4,omokage,0.11890506744384766,0
53,100,0.2590909090909091,316,0,81,DL_Remix_Guitar,6,4,omokage,0.12545108795166016,0
53,100,0.32272727272727275,453,0,81,DL_Remix_Guitar,6,5,omokage,0.13442747294902802,0
53,100,0.2,597,0,81,DL_Remix_Guitar,6,3,omokage,0.14570648968219757,0
53,100,0.3,766,0,81,DL_Remix_Guitar,6,5,omokage,0.13449613749980927,0
53,100,0.6818181818181818,26,1,82,DL_Remix_Guitar,6,11,omokage,0.9997053742408752,1
53,100,0.1590909090909091,193,0,82,DL_Remix_Guitar,6,3,omokage,0.06052125245332718,0
53,100,0.1,233,0,82,DL_Remix_Guitar,6,2,omokage,0.0474904328584671,0
53,100,0.1,343,0,82,DL_Remix_Guitar,6,2,omokage,0.047217633575201035,0
53,100,0.3181818181818182,506,0,82,DL_Remix_Guitar,6,5,omokage,0.05055544152855873,0
53,100,0.11818181818181818,612,0,82,DL_Remix_Guitar,6,2,omokage,0.05998378247022629,0
60,100,0.18181818181818182,770,0,82,DL_Remix_Guitar,6,3,omokage,0.06533357501029968,0
65,100,0.1590909090909091,857,0,82,DL_Remix_Guitar,6,3,omokage,0.05918562039732933,0
53,100,0.2409090909090909,13,1,83,DL_Remix_Guitar,6,4,omokage,0.999618649482727,1
65,100,0.9818181818181818,100,0,83,DL_Remix_Guitar,6,15,omokage,0.5342279672622681,0
65,100,0.6409090909090909,739,1,85,DL_Remix_Guitar,6,10,omokage,0.9927356243133545,0
53,100,0.3181818181818182,303,1,86,DL_Remix_Guitar,6,5,omokage,0.999826967716217,1
65,100,0.1,443,0,86,DL_Remix_Guitar,6,2,omokage,0.4287305176258087,0
65,100,0.5590909090909091,585,0,86,DL_Remix_Guitar,6,9,omokage,0.4119897782802582,0
65,100,0.17727272727272728,514,1,87,DL_Remix_Guitar,6,3,omokage,0.999839186668396,1
53,100,0.22272727272727272,553,0,87,DL_Remix_Guitar,6,4,omokage,0.20295147597789764,0
53,100,0.38181818181818183,606,0,87,DL_Remix_Guitar,6,6,omokage,0.1956222802400589,0
65,100,0.42272727272727273,773,0,87,DL_Remix_Guitar,6,7,omokage,0.2014271765947342,0
53,100,0.5181818181818182,866,0,87,DL_Remix_Guitar,6,8,omokage,0.20380885899066925,0
65,100,0.4818181818181818,377,1,88,DL_Remix_Guitar,6,8,omokage,0.9998260140419006,1
70,100,0.18181818181818182,506,0,88,DL_Remix_Guitar,6,3,omokage,0.4005597233772278,0
53,100,0.23636363636363636,832,1,88,DL_Remix_Guitar,6,4,omokage,0.43696457147598267,1
55,100,0.5181818181818182,537,1,0,DL_Warm_Pop_Rock_Guitar,6,8,ruriko_tyusingura_warm_pop,0.9995514750480652,1
55,100,0.6590909090909091,845,1,0,DL_Warm_Pop_Rock_Guitar,6,11,ruriko_tyusingura_warm_pop,0.5504307746887207,0
62,100,0.4636363636363636,576,1,1,DL_Warm_Pop_Rock_Guitar,6,7,ruriko_tyusingura_warm_pop,0.9996161460876465,1
52,100,0.740909090909091,862,1,1,DL_Warm_Pop_Rock_Guitar,6,12,ruriko_tyusingura_warm_pop,0.5503690838813782,0
55,100,0.1,629,1,2,DL_Warm_Pop_Rock_Guitar,6,2,ruriko_tyusingura_warm_pop,0.9996322393417358,1
55,100,0.21818181818181817,660,0,2,DL_Warm_Pop_Rock_Guitar,6,3,ruriko_tyusingura_warm_pop,0.5469970107078552,0
55,100,0.2,91,1,3,DL_Warm_Pop_Rock_Guitar,6,3,ruriko_tyusingura_warm_pop,0.9998225569725037,1
52,100,0.6772727272727272,590,1,3,DL_Warm_Pop_Rock_Guitar,6,11,ruriko_tyusingura_warm_pop,0.4144313633441925,0
52,100,0.12272727272727273,761,0,3,DL_Warm_Pop_Rock_Guitar,6,2,ruriko_tyusingura_warm_pop,0.43811511993408203,0
52,100,0.740909090909091,35,1,4,DL_Warm_Pop_Rock_Guitar,6,12,ruriko_tyusingura_warm_pop,0.9996243715286255,1
52,100,0.2,330,1,4,DL_Warm_Pop_Rock_Guitar,6,3,ruriko_tyusingura_warm_pop,0.5622880458831787,0
64,100,0.2,8,1,5,DL_Warm_Pop_Rock_Guitar,6,3,ruriko_tyusingura_warm_pop,0.9998397827148438,1
55,100,0.5636363636363636,135,0,5,DL_Warm_Pop_Rock_Guitar,6,9,ruriko_tyusingura_warm_pop,0.18936388194561005,0
55,100,0.2818181818181818,330,0,5,DL_Warm_Pop_Rock_Guitar,6,5,ruriko_tyusingura_warm_pop,0.21067948639392853,0
67,100,0.17727272727272728,458,0,5,DL_Warm_Pop_Rock_Guitar,6,3,ruriko_tyusingura_warm_pop,0.21159318089485168,0
57,100,0.17727272727272728,823,1,5,DL_Warm_Pop_Rock_Guitar,6,3,ruriko_tyusingura_warm_pop,0.21143825352191925,0
62,100,0.1409090909090909,56,1,6,DL_Warm_Pop_Rock_Guitar,6,2,ruriko_tyusingura_warm_pop,0.9998434782028198,1
62,100,0.2409090909090909,132,0,6,DL_Warm_Pop_Rock_Guitar,6,4,ruriko_tyusingura_warm_pop,0.2045847326517105,0
62,100,0.9818181818181818,330,0,6,DL_Warm_Pop_Rock_Guitar,6,15,ruriko_tyusingura_warm_pop,0.18697576224803925,0
62,100,0.1409090909090909,581,1,6,DL_Warm_Pop_Rock_Guitar,6,2,ruriko_tyusingura_warm_pop,0.23246479034423828,0
57,100,0.6409090909090909,691,0,6,DL_Warm_Pop_Rock_Guitar,6,10,ruriko_tyusingura_warm_pop,0.2024516463279724,0
62,100,0.38181818181818183,606,1,7,DL_Warm_Pop_Rock_Guitar,6,6,ruriko_tyusingura_warm_pop,0.9996442794799805,1
52,100,0.2818181818181818,826,0,7,DL_Warm_Pop_Rock_Guitar,6,5,ruriko_tyusingura_warm_pop,0.5491548180580139,0
52,100,0.42272727272727273,245,1,8,DL_Warm_Pop_Rock_Guitar,6,7,ruriko_tyusingura_warm_pop,0.9932178854942322,0
60,100,0.1590909090909091,140,1,9,DL_Warm_Pop_Rock_Guitar,6,3,ruriko_tyusingura_warm_pop,0.9998418092727661,1
62,100,0.5409090909090909,185,0,9,DL_Warm_Pop_Rock_Guitar,6,9,ruriko_tyusingura_warm_pop,0.2014082372188568,0
62,100,0.4,347,0,9,DL_Warm_Pop_Rock_Guitar,6,6,ruriko_tyusingura_warm_pop,0.2019117772579193,0
62,100,0.11818181818181818,524,0,9,DL_Warm_Pop_Rock_Guitar,6,2,ruriko_tyusingura_warm_pop,0.21962866187095642,0
62,100,0.8590909090909091,563,0,9,DL_Warm_Pop_Rock_Guitar,6,14,ruriko_tyusingura_warm_pop,0.19499602913856506,0
57,100,0.17727272727272728,171,1,10,DL_Warm_Pop_Rock_Guitar,6,3,ruriko_tyusingura_warm_pop,0.9929001331329346,0
55,100,0.1,211,1,11,DL_Warm_Pop_Rock_Guitar,6,2,ruriko_tyusingura_warm_pop,0.9996119141578674,1
62,100,0.32272727272727275,519,1,11,DL_Warm_Pop_Rock_Guitar,6,5,ruriko_tyusingura_warm_pop,0.5534652471542358,0
62,100,1.059090909090909,536,1,12,DL_Warm_Pop_Rock_Guitar,6,15,ruriko_tyusingura_warm_pop,0.9916024804115295,0
55,100,0.2409090909090909,321,1,13,DL_Warm_Pop_Rock_Guitar,6,4,ruriko_tyusingura_warm_pop,0.9998477697372437,1
62,100,0.1,479,0,13,DL_Warm_Pop_Rock_Guitar,6,2,ruriko_tyusingura_warm_pop,0.3391486406326294,0
55,100,0.4590909090909091,694,0,13,DL_Warm_Pop_Rock_Guitar,6,7,ruriko_tyusingura_warm_pop,0.2786678969860077,0
57,100,0.2590909090909091,814,0,13,DL_Warm_Pop_Rock_Guitar,6,4,ruriko_tyusingura_warm_pop,0.3108861446380615,0
57,100,0.740909090909091,3,1,14,DL_Warm_Pop_Rock_Guitar,6,12,ruriko_tyusingura_warm_pop,0.9998010993003845,1
57,100,0.6,194,0,14,DL_Warm_Pop_Rock_Guitar,6,10,ruriko_tyusingura_warm_pop,0.21894580125808716,0
57,100,1.3,347,0,14,DL_Warm_Pop_Rock_Guitar,6,15,ruriko_tyusingura_warm_pop,0.18815985321998596,0
57,100,0.5772727272727273,691,1,14,DL_Warm_Pop_Rock_Guitar,6,9,ruriko_tyusingura_warm_pop,0.2402181178331375,0
57,100,0.2,862,0,14,DL_Warm_Pop_Rock_Guitar,6,3,ruriko_tyusingura_warm_pop,0.23522581160068512,0
55,100,0.38181818181818183,123,1,15,DL_Warm_Pop_Rock_Guitar,6,6,ruriko_tyusingura_warm_pop,0.9997881054878235,1
55,100,0.36363636363636365,268,0,15,DL_Warm_Pop_Rock_Guitar,6,6,ruriko_tyusingura_warm_pop,0.1309717893600464,0
52,100,0.1,383,0,15,DL_Warm_Pop_Rock_Guitar,6,2,ruriko_tyusingura_warm_pop,0.12890173494815826,0
52,100,0.2818181818181818,550,0,15,DL_Warm_Pop_Rock_Guitar,6,5,ruriko_tyusingura_warm_pop,0.13833974301815033,0
55,100,0.22272727272727272,651,0,15,DL_Warm_Pop_Rock_Guitar,6,4,ruriko_tyusingura_warm_pop,0.13754233717918396,0
55,100,0.1,761,0,15,DL_Warm_Pop_Rock_Guitar,6,2,ruriko_tyusingura_warm_pop,0.13334427773952484,0
62,100,0.5772727272727273,391,1,16,DL_Warm_Pop_Rock_Guitar,6,9,ruriko_tyusingura_warm_pop,0.9998164772987366,1
57,100,0.1,712,1,16,DL_Warm_Pop_Rock_Guitar,6,2,ruriko_tyusingura_warm_pop,0.43397256731987,0
57,100,0.2772727272727273,756,0,16,DL_Warm_Pop_Rock_Guitar,6,4,ruriko_tyusingura_warm_pop,0.42721182107925415,0
52,100,0.2409090909090909,96,1,17,DL_Warm_Pop_Rock_Guitar,6,4,ruriko_tyusingura_warm_pop,0.99965500831604,1
64,100,0.4,250,0,17,DL_Warm_Pop_Rock_Guitar,6,6,ruriko_tyusingura_warm_pop,0.5444930195808411,0
62,100,0.18181818181818182,528,1,18,DL_Warm_Pop_Rock_Guitar,6,3,ruriko_tyusingura_warm_pop,0.9998570680618286,1
62,100,0.2,660,0,18,DL_Warm_Pop_Rock_Guitar,6,3,ruriko_tyusingura_warm_pop,0.32778599858283997,0
62,100,0.3,748,0,18,DL_Warm_Pop_Rock_Guitar,6,5,ruriko_tyusingura_warm_pop,0.29343581199645996,0
62,100,0.5818181818181818,839,0,18,DL_Warm_Pop_Rock_Guitar,6,9,ruriko_tyusingura_warm_pop,0.29776716232299805,0
62,100,0.5590909090909091,154,1,19,DL_Warm_Pop_Rock_Guitar,6,9,ruriko_tyusingura_warm_pop,0.992501974105835,0
62,100,0.1590909090909091,519,1,21,DL_Warm_Pop_Rock_Guitar,6,3,ruriko_tyusingura_warm_pop,0.9998593330383301,1
52,100,0.35909090909090907,567,0,21,DL_Warm_Pop_Rock_Guitar,6,6,ruriko_tyusingura_warm_pop,0.3200032114982605,0
52,100,0.1,677,0,21,DL_Warm_Pop_Rock_Guitar,6,2,ruriko_tyusingura_warm_pop,0.3000394403934479,0
62,100,0.5,810,0,21,DL_Warm_Pop_Rock_Guitar,6,8,ruriko_tyusingura_warm_pop,0.29195642471313477,0
62,100,0.1409090909090909,57,1,22,DL_Warm_Pop_Rock_Guitar,6,2,ruriko_tyusingura_warm_pop,0.9998482465744019,1
62,100,0.4818181818181818,92,0,22,DL_Warm_Pop_Rock_Guitar,6,8,ruriko_tyusingura_warm_pop,0.3150709569454193,0
55,100,0.3181818181818182,360,1,22,DL_Warm_Pop_Rock_Guitar,6,5,ruriko_tyusingura_warm_pop,0.29214414954185486,0
60,100,0.11818181818181818,638,1,22,DL_Warm_Pop_Rock_Guitar,6,2,ruriko_tyusingura_warm_pop,0.3255431652069092,0
62,100,0.5,158,1,23,DL_Warm_Pop_Rock_Guitar,6,8,ruriko_tyusingura_warm_pop,0.9998313188552856,1
62,100,0.2409090909090909,343,0,23,DL_Warm_Pop_Rock_Guitar,6,4,ruriko_tyusingura_warm_pop,0.21876436471939087,0
55,100,0.1,443,0,23,DL_Warm_Pop_Rock_Guitar,6,2,ruriko_tyusingura_warm_pop,0.20086900889873505,0
62,100,0.11818181818181818,501,0,23,DL_Warm_Pop_Rock_Guitar,6,2,ruriko_tyusingura_warm_pop,0.20852240920066833,0
62,100,0.1409090909090909,607,0,23,DL_Warm_Pop_Rock_Guitar,6,2,ruriko_tyusingura_warm_pop,0.20165598392486572,0
55,100,0.32272727272727275,92,1,24,DL_Warm_Pop_Rock_Guitar,6,5,ruriko_tyusingura_warm_pop,0.9998416900634766,1
62,100,0.2818181818181818,461,1,24,DL_Warm_Pop_Rock_Guitar,6,5,ruriko_tyusingura_warm_pop,0.3445945382118225,0
62,100,0.2409090909090909,704,1,24,DL_Warm_Pop_Rock_Guitar,6,4,ruriko_tyusingura_warm_pop,0.2960617244243622,0
62,100,0.2,835,0,24,DL_Warm_Pop_Rock_Guitar,6,3,ruriko_tyusingura_warm_pop,0.30934590101242065,0
61,100,0.11818181818181818,0,1,25,DL_Warm_Pop_Rock_Guitar,6,2,ruriko_tyusingura_warm_pop,0.9998542070388794,1
55,100,0.12272727272727273,277,1,25,DL_Warm_Pop_Rock_Guitar,6,2,ruriko_tyusingura_warm_pop,0.32071512937545776,0
62,100,0.3409090909090909,497,0,25,DL_Warm_Pop_Rock_Guitar,6,5,ruriko_tyusingura_warm_pop,0.29305002093315125,0
62,100,0.2409090909090909,712,0,25,DL_Warm_Pop_Rock_Guitar,6,4,ruriko_tyusingura_warm_pop,0.30737629532814026,0
62,100,0.2818181818181818,13,1,26,DL_Warm_Pop_Rock_Guitar,6,5,ruriko_tyusingura_warm_pop,0.9998544454574585,1
62,100,0.2636363636363636,136,0,26,DL_Warm_Pop_Rock_Guitar,6,4,ruriko_tyusingura_warm_pop,0.31887105107307434,0
66,100,0.1,646,1,26,DL_Warm_Pop_Rock_Guitar,6,2,ruriko_tyusingura_warm_pop,0.29693248867988586,0
52,100,0.2818181818181818,708,0,26,DL_Warm_Pop_Rock_Guitar,6,5,ruriko_tyusingura_warm_pop,0.3116130530834198,0
62,100,0.3409090909090909,48,1,27,DL_Warm_Pop_Rock_Guitar,6,5,ruriko_tyusingura_warm_pop,0.999765932559967,1
57,100,0.2409090909090909,158,0,27,DL_Warm_Pop_Rock_Guitar,6,4,ruriko_tyusingura_warm_pop,0.07838347554206848,0
52,100,0.6,260,0,27,DL_Warm_Pop_Rock_Guitar,6,10,ruriko_tyusingura_warm_pop,0.07221870124340057,0
55,100,0.23636363636363636,413,0,27,DL_Warm_Pop_Rock_Guitar,6,4,ruriko_tyusingura_warm_pop,0.08331779390573502,0
55,100,0.3409090909090909,484,0,27,DL_Warm_Pop_Rock_Guitar,6,5,ruriko_tyusingura_warm_pop,0.0923924595117569,0
62,100,0.2590909090909091,567,0,27,DL_Warm_Pop_Rock_Guitar,6,4,ruriko_tyusingura_warm_pop,0.10313592106103897,0
67,100,0.42272727272727273,629,0,27,DL_Warm_Pop_Rock_Guitar,6,7,ruriko_tyusingura_warm_pop,0.08837258070707321,0
62,100,0.21818181818181817,162,1,28,DL_Warm_Pop_Rock_Guitar,6,3,ruriko_tyusingura_warm_pop,0.999841570854187,1
54,100,0.4636363636363636,443,1,28,DL_Warm_Pop_Rock_Guitar,6,7,ruriko_tyusingura_warm_pop,0.2017947882413864,0
66,100,0.21818181818181817,546,0,28,DL_Warm_Pop_Rock_Guitar,6,3,ruriko_tyusingura_warm_pop,0.19681335985660553,0
66,100,0.1409090909090909,660,0,28,DL_Warm_Pop_Rock_Guitar,6,2,ruriko_tyusingura_warm_pop,0.20982830226421356,0
59,100,0.13636363636363635,810,0,28,DL_Warm_Pop_Rock_Guitar,6,2,ruriko_tyusingura_warm_pop,0.20267803966999054,0
64,100,0.23636363636363636,61,1,29,DL_Warm_Pop_Rock_Guitar,6,4,ruriko_tyusingura_warm_pop,0.9998070597648621,1
52,100,0.5818181818181818,113,0,29,DL_Warm_Pop_Rock_Guitar,6,9,ruriko_tyusingura_warm_pop,0.12376386672258377,0
52,100,0.3,333,0,29,DL_Warm_Pop_Rock_Guitar,6,5,ruriko_tyusingura_warm_pop,0.12031204253435135,0
62,100,0.37727272727272726,625,1,29,DL_Warm_Pop_Rock_Guitar,6,6,ruriko_tyusingura_warm_pop,0.13410955667495728,0
64,100,0.4,708,0,29,DL_Warm_Pop_Rock_Guitar,6,6,ruriko_tyusingura_warm_pop,0.14345547556877136,0
62,100,0.11818181818181818,801,0,29,DL_Warm_Pop_Rock_Guitar,6,2,ruriko_tyusingura_warm_pop,0.12980075180530548,0
62,100,0.3181818181818182,150,1,30,DL_Warm_Pop_Rock_Guitar,6,5,ruriko_tyusingura_warm_pop,0.9998526573181152,1
62,100,0.2,594,1,30,DL_Warm_Pop_Rock_Guitar,6,3,ruriko_tyusingura_warm_pop,0.331597238779068,0
62,100,0.2772727272727273,646,0,30,DL_Warm_Pop_Rock_Guitar,6,4,ruriko_tyusingura_warm_pop,0.2905663549900055,0
57,100,0.4,739,0,30,DL_Warm_Pop_Rock_Guitar,6,6,ruriko_tyusingura_warm_pop,0.30568191409111023,0
57,100,0.36363636363636365,48,1,31,DL_Warm_Pop_Rock_Guitar,6,6,ruriko_tyusingura_warm_pop,0.9997544884681702,1
62,100,0.5363636363636364,171,0,31,DL_Warm_Pop_Rock_Guitar,6,9,ruriko_tyusingura_warm_pop,0.07931928336620331,0
53,100,0.11818181818181818,461,1,31,DL_Warm_Pop_Rock_Guitar,6,2,ruriko_tyusingura_warm_pop,0.07928819209337234,0
62,100,0.4772727272727273,523,0,31,DL_Warm_Pop_Rock_Guitar,6,8,ruriko_tyusingura_warm_pop,0.07817257940769196,0
62,100,0.11818181818181818,638,0,31,DL_Warm_Pop_Rock_Guitar,6,2,ruriko_tyusingura_warm_pop,0.0967644527554512,0
62,100,0.18181818181818182,694,0,31,DL_Warm_Pop_Rock_Guitar,6,3,ruriko_tyusingura_warm_pop,0.0961868092417717,0
62,100,0.33636363636363636,853,0,31,DL_Warm_Pop_Rock_Guitar,6,5,ruriko_tyusingura_warm_pop,0.08644377440214157,0
62,100,0.38181818181818183,201,1,32,DL_Warm_Pop_Rock_Guitar,6,6,ruriko_tyusingura_warm_pop,0.9932066202163696,0
62,100,0.21818181818181817,185,1,33,DL_Warm_Pop_Rock_Guitar,6,3,ruriko_tyusingura_warm_pop,0.9998410940170288,1
62,100,0.2,289,0,33,DL_Warm_Pop_Rock_Guitar,6,3,ruriko_tyusingura_warm_pop,0.20188477635383606,0
57,100,0.33636363636363636,370,0,33,DL_Warm_Pop_Rock_Guitar,6,5,ruriko_tyusingura_warm_pop,0.1902879923582077,0
55,100,0.1409090909090909,668,1,33,DL_Warm_Pop_Rock_Guitar,6,2,ruriko_tyusingura_warm_pop,0.2100214809179306,0
62,100,0.13636363636363635,721,0,33,DL_Warm_Pop_Rock_Guitar,6,2,ruriko_tyusingura_warm_pop,0.21433481574058533,0
62,100,0.8,774,1,34,DL_Warm_Pop_Rock_Guitar,6,13,ruriko_tyusingura_warm_pop,0.9923223853111267,0
57,100,0.2409090909090909,571,1,35,DL_Warm_Pop_Rock_Guitar,6,4,ruriko_tyusingura_warm_pop,0.9998270869255066,1
52,100,0.3,655,0,35,DL_Warm_Pop_Rock_Guitar,6,5,ruriko_tyusingura_warm_pop,0.22481301426887512,0
62,100,0.11818181818181818,721,0,35,DL_Warm_Pop_Rock_Guitar,6,2,ruriko_tyusingura_warm_pop,0.20127354562282562,0
62,100,0.1409090909090909,823,0,35,DL_Warm_Pop_Rock_Guitar,6,2,ruriko_tyusingura_warm_pop,0.20325912535190582,0
52,100,0.21818181818181817,866,0,35,DL_Warm_Pop_Rock_Guitar,6,3,ruriko_tyusingura_warm_pop,0.20191043615341187,0
52,100,0.21818181818181817,40,1,36,DL_Warm_Pop_Rock_Guitar,6,3,ruriko_tyusingura_warm_pop,0.9998360872268677,1
52,100,0.17727272727272728,206,0,36,DL_Warm_Pop_Rock_Guitar,6,3,ruriko_tyusingura_warm_pop,0.21704505383968353,0
62,100,1.0,321,0,36,DL_Warm_Pop_Rock_Guitar,6,15,ruriko_tyusingura_warm_pop,0.18123872578144073,0
52,100,0.21818181818181817,545,0,36,DL_Warm_Pop_Rock_Guitar,6,3,ruriko_tyusingura_warm_pop,0.23363326489925385,0
62,100,1.1818181818181819,716,0,36,DL_Warm_Pop_Rock_Guitar,6,15,ruriko_tyusingura_warm_pop,0.1939513087272644,0
60,100,0.11818181818181818,118,1,37,DL_Warm_Pop_Rock_Guitar,6,2,ruriko_tyusingura_warm_pop,0.9998584985733032,1
62,100,0.2818181818181818,201,0,37,DL_Warm_Pop_Rock_Guitar,6,5,ruriko_tyusingura_warm_pop,0.317618727684021,0
62,100,0.2,545,1,37,DL_Warm_Pop_Rock_Guitar,6,3,ruriko_tyusingura_warm_pop,0.2902383506298065,0
62,100,0.4,721,0,37,DL_Warm_Pop_Rock_Guitar,6,6,ruriko_tyusingura_warm_pop,0.30542245507240295,0
62,100,0.8227272727272728,56,1,38,DL_Warm_Pop_Rock_Guitar,6,13,ruriko_tyusingura_warm_pop,0.9997848868370056,1
57,100,0.1590909090909091,325,1,38,DL_Warm_Pop_Rock_Guitar,6,3,ruriko_tyusingura_warm_pop,0.13532793521881104,0
62,100,0.1590909090909091,396,0,38,DL_Warm_Pop_Rock_Guitar,6,3,ruriko_tyusingura_warm_pop,0.12582314014434814,0
62,100,0.2772727272727273,471,0,38,DL_Warm_Pop_Rock_Guitar,6,4,ruriko_tyusingura_warm_pop,0.13279201090335846,0
62,100,0.13636363636363635,810,1,38,DL_Warm_Pop_Rock_Guitar,6,2,ruriko_tyusingura_warm_pop,0.14993233978748322,0
52,100,0.38181818181818183,861,0,38,DL_Warm_Pop_Rock_Guitar,6,6,ruriko_tyusingura_warm_pop,0.13490386307239532,0
62,100,0.32272727272727275,298,1,39,DL_Warm_Pop_Rock_Guitar,6,5,ruriko_tyusingura_warm_pop,0.999828577041626,1
55,100,0.4409090909090909,421,0,39,DL_Warm_Pop_Rock_Guitar,6,7,ruriko_tyusingura_warm_pop,0.39935803413391113,0
55,100,0.22272727272727272,584,0,39,DL_Warm_Pop_Rock_Guitar,6,4,ruriko_tyusingura_warm_pop,0.43614187836647034,0
60,100,0.2409090909090909,48,1,40,DL_Warm_Pop_Rock_Guitar,6,4,ruriko_tyusingura_warm_pop,0.9998127818107605,1
62,100,0.3,220,0,40,DL_Warm_Pop_Rock_Guitar,6,5,ruriko_tyusingura_warm_pop,0.12405037879943848,0
62,100,0.1409090909090909,289,0,40,DL_Warm_Pop_Rock_Guitar,6,2,ruriko_tyusingura_warm_pop,0.12370917201042175,0
62,100,0.38181818181818183,474,0,40,DL_Warm_Pop_Rock_Guitar,6,6,ruriko_tyusingura_warm_pop,0.13041642308235168,0
57,100,0.2772727272727273,691,0,40,DL_Warm_Pop_Rock_Guitar,6,4,ruriko_tyusingura_warm_pop,0.1474023312330246,0
52,100,0.4818181818181818,783,0,40,DL_Warm_Pop_Rock_Guitar,6,8,ruriko_tyusingura_warm_pop,0.1345468908548355,0
52,100,0.4772727272727273,18,1,41,DL_Warm_Pop_Rock_Guitar,6,8,ruriko_tyusingura_warm_pop,0.9998027682304382,1
52,100,0.16363636363636364,158,0,41,DL_Warm_Pop_Rock_Guitar,6,3,ruriko_tyusingura_warm_pop,0.13328015804290771,0
52,100,0.22272727272727272,201,0,41,DL_Warm_Pop_Rock_Guitar,6,4,ruriko_tyusingura_warm_pop,0.12058185786008835,0
52,100,0.3,260,0,41,DL_Warm_Pop_Rock_Guitar,6,5,ruriko_tyusingura_warm_pop,0.12969247996807098,0
52,100,0.38181818181818183,396,0,41,DL_Warm_Pop_Rock_Guitar,6,6,ruriko_tyusingura_warm_pop,0.14163024723529816,0
64,100,0.6590909090909091,496,0,41,DL_Warm_Pop_Rock_Guitar,6,11,ruriko_tyusingura_warm_pop,0.1285756528377533,0
57,100,0.35909090909090907,206,1,43,DL_Warm_Pop_Rock_Guitar,6,6,ruriko_tyusingura_warm_pop,0.9998229146003723,1
54,100,0.22272727272727272,421,0,43,DL_Warm_Pop_Rock_Guitar,6,4,ruriko_tyusingura_warm_pop,0.4250625669956207,0
66,100,0.4,471,0,43,DL_Warm_Pop_Rock_Guitar,6,6,ruriko_tyusingura_warm_pop,0.41761544346809387,0
62,100,0.21818181818181817,571,1,44,DL_Warm_Pop_Rock_Guitar,6,3,ruriko_tyusingura_warm_pop,0.999829888343811,1
52,100,0.2409090909090909,625,0,44,DL_Warm_Pop_Rock_Guitar,6,4,ruriko_tyusingura_warm_pop,0.4269675612449646,0
52,100,0.2818181818181818,738,0,44,DL_Warm_Pop_Rock_Guitar,6,5,ruriko_tyusingura_warm_pop,0.4220001995563507,0
62,100,0.2818181818181818,198,1,45,DL_Warm_Pop_Rock_Guitar,6,5,ruriko_tyusingura_warm_pop,0.9934285283088684,0
52,100,0.1409090909090909,13,1,46,DL_Warm_Pop_Rock_Guitar,6,2,ruriko_tyusingura_warm_pop,0.9998464584350586,1
52,100,0.6818181818181818,69,0,46,DL_Warm_Pop_Rock_Guitar,6,11,ruriko_tyusingura_warm_pop,0.19592197239398956,0
52,100,0.1590909090909091,241,0,46,DL_Warm_Pop_Rock_Guitar,6,3,ruriko_tyusingura_warm_pop,0.21670299768447876,0
52,100,0.7,471,0,46,DL_Warm_Pop_Rock_Guitar,6,11,ruriko_tyusingura_warm_pop,0.19284191727638245,0
52,100,0.9772727272727273,668,0,46,DL_Warm_Pop_Rock_Guitar,6,15,ruriko_tyusingura_warm_pop,0.20303688943386078,0
62,100,0.1590909090909091,276,1,47,DL_Warm_Pop_Rock_Guitar,6,3,ruriko_tyusingura_warm_pop,0.9996294975280762,1
62,100,0.6818181818181818,606,1,47,DL_Warm_Pop_Rock_Guitar,6,11,ruriko_tyusingura_warm_pop,0.5430945158004761,0
57,100,0.2409090909090909,871,1,56,DL_Warm_Pop_Rock_Guitar,6,4,ruriko_tyusingura_warm_pop,0.993046224117279,0
52,100,0.2409090909090909,431,1,60,DL_Warm_Pop_Rock_Guitar,6,4,ruriko_tyusingura_warm_pop,0.999864935874939,1
52,100,0.11818181818181818,493,0,60,DL_Warm_Pop_Rock_Guitar,6,2,ruriko_tyusingura_warm_pop,0.32019615173339844,0
52,100,0.1,531,0,60,DL_Warm_Pop_Rock_Guitar,6,2,ruriko_tyusingura_warm_pop,0.2861438989639282,0
52,100,0.42272727272727273,826,1,60,DL_Warm_Pop_Rock_Guitar,6,7,ruriko_tyusingura_warm_pop,0.2912048101425171,0
62,100,0.21818181818181817,198,1,61,DL_Warm_Pop_Rock_Guitar,6,3,ruriko_tyusingura_warm_pop,0.9996511936187744,1
55,100,0.17727272727272728,691,1,61,DL_Warm_Pop_Rock_Guitar,6,3,ruriko_tyusingura_warm_pop,0.5409815311431885,0
62,100,0.7,9,1,66,DL_Warm_Pop_Rock_Guitar,6,11,ruriko_tyusingura_warm_pop,0.9995179176330566,1
62,100,2.081818181818182,716,1,66,DL_Warm_Pop_Rock_Guitar,6,15,ruriko_tyusingura_warm_pop,0.536645233631134,0
62,100,0.2,603,1,67,DL_Warm_Pop_Rock_Guitar,6,3,ruriko_tyusingura_warm_pop,0.9933092594146729,0
62,100,0.1,756,1,70,DL_Warm_Pop_Rock_Guitar,6,2,ruriko_tyusingura_warm_pop,0.9935792684555054,1
62,100,0.2590909090909091,743,1,74,DL_Warm_Pop_Rock_Guitar,6,4,ruriko_tyusingura_warm_pop,0.9933195114135742,0
52,100,0.6818181818181818,35,1,75,DL_Warm_Pop_Rock_Guitar,6,11,ruriko_tyusingura_warm_pop,0.9998015761375427,1
64,100,0.1,330,1,75,DL_Warm_Pop_Rock_Guitar,6,2,ruriko_tyusingura_warm_pop,0.14015372097492218,0
62,100,0.759090909090909,365,0,75,DL_Warm_Pop_Rock_Guitar,6,12,ruriko_tyusingura_warm_pop,0.11444605141878128,0
52,100,0.21818181818181817,546,0,75,DL_Warm_Pop_Rock_Guitar,6,3,ruriko_tyusingura_warm_pop,0.15063917636871338,0
62,100,0.5,734,0,75,DL_Warm_Pop_Rock_Guitar,6,8,ruriko_tyusingura_warm_pop,0.14399395883083344,0
62,100,1.0,849,0,75,DL_Warm_Pop_Rock_Guitar,6,15,ruriko_tyusingura_warm_pop,0.12756410241127014,0
62,100,0.35909090909090907,426,1,76,DL_Warm_Pop_Rock_Guitar,6,6,ruriko_tyusingura_warm_pop,0.9996508359909058,1
62,100,0.2,590,0,76,DL_Warm_Pop_Rock_Guitar,6,3,ruriko_tyusingura_warm_pop,0.549181342124939,0
62,100,0.11818181818181818,282,1,77,DL_Warm_Pop_Rock_Guitar,6,2,ruriko_tyusingura_warm_pop,0.9996418952941895,1
62,100,0.3181818181818182,572,1,77,DL_Warm_Pop_Rock_Guitar,6,5,ruriko_tyusingura_warm_pop,0.548822820186615,0
52,100,0.3,206,1,78,DL_Warm_Pop_Rock_Guitar,6,5,ruriko_tyusingura_warm_pop,0.9998433589935303,1
52,100,0.2818181818181818,276,0,78,DL_Warm_Pop_Rock_Guitar,6,5,ruriko_tyusingura_warm_pop,0.20080111920833588,0
67,100,0.1590909090909091,370,0,78,DL_Warm_Pop_Rock_Guitar,6,3,ruriko_tyusingura_warm_pop,0.1920619010925293,0
62,100,0.18181818181818182,695,1,78,DL_Warm_Pop_Rock_Guitar,6,3,ruriko_tyusingura_warm_pop,0.21017888188362122,0
62,100,0.12272727272727273,739,0,78,DL_Warm_Pop_Rock_Guitar,6,2,ruriko_tyusingura_warm_pop,0.2040024846792221,0
62,100,0.3,163,1,79,DL_Warm_Pop_Rock_Guitar,6,5,ruriko_tyusingura_warm_pop,0.9931400418281555,1
52,100,0.4590909090909091,193,1,80,DL_Warm_Pop_Rock_Guitar,6,7,ruriko_tyusingura_warm_pop,0.993030846118927,0
62,100,0.5181818181818182,440,1,81,DL_Warm_Pop_Rock_Guitar,6,8,ruriko_tyusingura_warm_pop,0.9996001124382019,1
62,100,0.7,624,0,81,DL_Warm_Pop_Rock_Guitar,6,11,ruriko_tyusingura_warm_pop,0.5465695858001709,0
52,100,0.22272727272727272,532,1,82,DL_Warm_Pop_Rock_Guitar,6,4,ruriko_tyusingura_warm_pop,0.9998352527618408,1
62,100,0.1,839,1,82,DL_Warm_Pop_Rock_Guitar,6,2,ruriko_tyusingura_warm_pop,0.40945911407470703,0
62,100,0.1,866,0,82,DL_Warm_Pop_Rock_Guitar,6,2,ruriko_tyusingura_warm_pop,0.4267248213291168,0
62,100,0.13636363636363635,150,1,83,DL_Warm_Pop_Rock_Guitar,6,2,ruriko_tyusingura_warm_pop,0.993436336517334,1
52,100,0.37727272727272726,414,1,0,Dl_Nostalgic_2_Guitar,6,6,zenigata_nostalgic,0.9998303651809692,1
54,100,0.3181818181818182,502,0,0,Dl_Nostalgic_2_Guitar,6,5,zenigata_nostalgic,0.40613335371017456,0
57,100,0.2818181818181818,585,0,0,Dl_Nostalgic_2_Guitar,6,5,zenigata_nostalgic,0.4250352680683136,0
61,100,0.2,157,1,1,Dl_Nostalgic_2_Guitar,6,3,zenigata_nostalgic,0.9998329877853394,1
61,100,0.17727272727272728,206,0,1,Dl_Nostalgic_2_Guitar,6,3,zenigata_nostalgic,0.4108907878398895,0
52,100,0.2,752,1,1,Dl_Nostalgic_2_Guitar,6,3,zenigata_nostalgic,0.4292306900024414,0
61,100,0.1409090909090909,220,1,2,Dl_Nostalgic_2_Guitar,6,2,zenigata_nostalgic,0.9998573064804077,1
52,100,0.12272727272727273,342,0,2,Dl_Nostalgic_2_Guitar,6,2,zenigata_nostalgic,0.33291810750961304,0
61,100,0.2,440,0,2,Dl_Nostalgic_2_Guitar,6,3,zenigata_nostalgic,0.2882510721683502,0
54,100,1.1590909090909092,804,1,2,Dl_Nostalgic_2_Guitar,6,15,zenigata_nostalgic,0.28590983152389526,0
66,100,0.1409090909090909,268,1,3,Dl_Nostalgic_2_Guitar,6,2,zenigata_nostalgic,0.999832272529602,1
54,100,0.2409090909090909,421,0,3,Dl_Nostalgic_2_Guitar,6,4,zenigata_nostalgic,0.4121127724647522,0
54,100,0.21818181818181817,703,1,3,Dl_Nostalgic_2_Guitar,6,3,zenigata_nostalgic,0.42447295784950256,0
54,100,0.12272727272727273,48,1,4,Dl_Nostalgic_2_Guitar,6,2,zenigata_nostalgic,0.9998084902763367,1
54,100,0.4,435,1,4,Dl_Nostalgic_2_Guitar,6,6,zenigata_nostalgic,0.12041965126991272,0
57,100,0.17727272727272728,524,0,4,Dl_Nostalgic_2_Guitar,6,3,zenigata_nostalgic,0.12048598378896713,0
57,100,0.2409090909090909,606,0,4,Dl_Nostalgic_2_Guitar,6,4,zenigata_nostalgic,0.13634619116783142,0
57,100,0.21818181818181817,691,0,4,Dl_Nostalgic_2_Guitar,6,3,zenigata_nostalgic,0.14086580276489258,0
57,100,0.1409090909090909,813,0,4,Dl_Nostalgic_2_Guitar,6,2,zenigata_nostalgic,0.1368105113506317,0
52,100,0.1409090909090909,8,1,5,Dl_Nostalgic_2_Guitar,6,2,zenigata_nostalgic,0.9998387098312378,1
57,100,0.2409090909090909,338,1,5,Dl_Nostalgic_2_Guitar,6,4,zenigata_nostalgic,0.40062054991722107,0
57,100,0.2772727272727273,810,1,5,Dl_Nostalgic_2_Guitar,6,4,zenigata_nostalgic,0.4221917986869812,0
57,100,0.16363636363636364,4,1,6,Dl_Nostalgic_2_Guitar,6,3,zenigata_nostalgic,0.9996106028556824,1
69,100,0.18181818181818182,431,1,6,Dl_Nostalgic_2_Guitar,6,3,zenigata_nostalgic,0.5572352409362793,0
69,100,0.2590909090909091,18,1,7,Dl_Nostalgic_2_Guitar,6,4,zenigata_nostalgic,0.9998310804367065,1
57,100,0.1590909090909091,74,0,7,Dl_Nostalgic_2_Guitar,6,3,zenigata_nostalgic,0.21738691627979279,0
61,100,0.22272727272727272,158,0,7,Dl_Nostalgic_2_Guitar,6,4,zenigata_nostalgic,0.1997297704219818,0
66,100,0.17727272727272728,721,1,7,Dl_Nostalgic_2_Guitar,6,3,zenigata_nostalgic,0.21652933955192566,0
54,100,0.9409090909090909,761,0,7,Dl_Nostalgic_2_Guitar,6,15,zenigata_nostalgic,0.1930171549320221,0
57,100,0.2,110,1,8,Dl_Nostalgic_2_Guitar,6,3,zenigata_nostalgic,0.9997585415840149,1
54,100,0.2,154,0,8,Dl_Nostalgic_2_Guitar,6,3,zenigata_nostalgic,0.08130504935979843,0
66,100,0.5,211,0,8,Dl_Nostalgic_2_Guitar,6,8,zenigata_nostalgic,0.07136937975883484,0
52,100,0.13636363636363635,326,0,8,Dl_Nostalgic_2_Guitar,6,2,zenigata_nostalgic,0.08806930482387543,0
52,100,0.8636363636363636,378,0,8,Dl_Nostalgic_2_Guitar,6,14,zenigata_nostalgic,0.08774276077747345,0
54,100,0.1590909090909091,625,1,8,Dl_Nostalgic_2_Guitar,6,3,zenigata_nostalgic,0.10835929214954376,0
52,100,0.9,792,0,8,Dl_Nostalgic_2_Guitar,6,14,zenigata_nostalgic,0.08498784154653549,0
64,100,0.22272727272727272,123,1,9,Dl_Nostalgic_2_Guitar,6,4,zenigata_nostalgic,0.9998101592063904,1
57,100,0.1409090909090909,202,0,9,Dl_Nostalgic_2_Guitar,6,2,zenigata_nostalgic,0.1229817122220993,0
52,100,0.2,259,0,9,Dl_Nostalgic_2_Guitar,6,3,zenigata_nostalgic,0.12588870525360107,0
59,100,0.33636363636363636,326,0,9,Dl_Nostalgic_2_Guitar,6,5,zenigata_nostalgic,0.13073894381523132,0
57,100,1.1818181818181819,400,0,9,Dl_Nostalgic_2_Guitar,6,15,zenigata_nostalgic,0.13201233744621277,0
57,100,0.22272727272727272,761,1,9,Dl_Nostalgic_2_Guitar,6,4,zenigata_nostalgic,0.1525004655122757,0
57,100,0.12272727272727273,25,1,10,Dl_Nostalgic_2_Guitar,6,2,zenigata_nostalgic,0.9998342990875244,1
69,100,0.1,254,0,10,Dl_Nostalgic_2_Guitar,6,2,zenigata_nostalgic,0.21132966876029968,0
57,100,0.6409090909090909,276,0,10,Dl_Nostalgic_2_Guitar,6,10,zenigata_nostalgic,0.1840483844280243,0
57,100,0.1,470,0,10,Dl_Nostalgic_2_Guitar,6,2,zenigata_nostalgic,0.22695718705654144,0
57,100,0.740909090909091,735,1,10,Dl_Nostalgic_2_Guitar,6,12,zenigata_nostalgic,0.20049461722373962,0
57,100,0.2590909090909091,233,1,11,Dl_Nostalgic_2_Guitar,6,4,zenigata_nostalgic,0.9998239874839783,1
57,100,0.5,295,0,11,Dl_Nostalgic_2_Guitar,6,8,zenigata_nostalgic,0.2060592919588089,0
57,100,0.5363636363636364,414,0,11,Dl_Nostalgic_2_Guitar,6,9,zenigata_nostalgic,0.20620852708816528,0
54,100,1.240909090909091,541,0,11,Dl_Nostalgic_2_Guitar,6,15,zenigata_nostalgic,0.20271633565425873,0
57,100,0.2818181818181818,818,1,11,Dl_Nostalgic_2_Guitar,6,5,zenigata_nostalgic,0.23894070088863373,0
54,100,0.4,175,1,12,Dl_Nostalgic_2_Guitar,6,6,zenigata_nostalgic,0.9998039603233337,1
54,100,0.1,268,0,12,Dl_Nostalgic_2_Guitar,6,2,zenigata_nostalgic,0.1275898665189743,0
57,100,0.4590909090909091,414,0,12,Dl_Nostalgic_2_Guitar,6,7,zenigata_nostalgic,0.11518210917711258,0
61,100,0.17727272727272728,536,0,12,Dl_Nostalgic_2_Guitar,6,3,zenigata_nostalgic,0.14125896990299225,0
54,100,0.5409090909090909,660,0,12,Dl_Nostalgic_2_Guitar,6,9,zenigata_nostalgic,0.14129412174224854,0
57,100,0.1,809,0,12,Dl_Nostalgic_2_Guitar,6,2,zenigata_nostalgic,0.13651716709136963,0
57,100,0.1590909090909091,13,1,13,Dl_Nostalgic_2_Guitar,6,3,zenigata_nostalgic,0.9998358488082886,1
69,100,0.3,79,0,13,Dl_Nostalgic_2_Guitar,6,5,zenigata_nostalgic,0.2066691517829895,0
69,100,0.2409090909090909,163,0,13,Dl_Nostalgic_2_Guitar,6,4,zenigata_nostalgic,0.20278941094875336,0
57,100,0.2636363636363636,290,0,13,Dl_Nostalgic_2_Guitar,6,4,zenigata_nostalgic,0.21319471299648285,0
57,100,0.6818181818181818,527,1,13,Dl_Nostalgic_2_Guitar,6,11,zenigata_nostalgic,0.20126578211784363,0
57,100,0.3409090909090909,96,1,14,Dl_Nostalgic_2_Guitar,6,5,zenigata_nostalgic,0.9995905756950378,1
57,100,0.8363636363636363,567,1,14,Dl_Nostalgic_2_Guitar,6,13,zenigata_nostalgic,0.5390655398368835,0
57,100,0.35909090909090907,171,1,15,Dl_Nostalgic_2_Guitar,6,6,zenigata_nostalgic,0.9997890591621399,1
57,100,0.2590909090909091,254,0,15,Dl_Nostalgic_2_Guitar,6,4,zenigata_nostalgic,0.13382339477539062,0
57,100,0.38181818181818183,321,0,15,Dl_Nostalgic_2_Guitar,6,6,zenigata_nostalgic,0.12084303051233292,0
57,100,0.1409090909090909,558,1,15,Dl_Nostalgic_2_Guitar,6,2,zenigata_nostalgic,0.1391168236732483,0
57,100,0.42272727272727273,651,0,15,Dl_Nostalgic_2_Guitar,6,7,zenigata_nostalgic,0.14310266077518463,0
57,100,0.38181818181818183,804,0,15,Dl_Nostalgic_2_Guitar,6,6,zenigata_nostalgic,0.13608652353286743,0
57,100,0.1,100,1,16,Dl_Nostalgic_2_Guitar,6,2,zenigata_nostalgic,0.9998052716255188,1
57,100,0.38181818181818183,254,0,16,Dl_Nostalgic_2_Guitar,6,6,zenigata_nostalgic,0.12198440730571747,0
57,100,0.21818181818181817,347,0,16,Dl_Nostalgic_2_Guitar,6,3,zenigata_nostalgic,0.12193998694419861,0
57,100,0.3,426,0,16,Dl_Nostalgic_2_Guitar,6,5,zenigata_nostalgic,0.138229101896286,0
57,100,0.2818181818181818,550,0,16,Dl_Nostalgic_2_Guitar,6,5,zenigata_nostalgic,0.14427731931209564,0
57,100,0.6409090909090909,729,0,16,Dl_Nostalgic_2_Guitar,6,10,zenigata_nostalgic,0.1298658847808838,0
57,100,1.3818181818181818,3,1,17,Dl_Nostalgic_2_Guitar,6,15,zenigata_nostalgic,0.9996951818466187,1
57,100,0.5590909090909091,326,1,17,Dl_Nostalgic_2_Guitar,6,9,zenigata_nostalgic,0.09138207882642746,0
57,100,0.4590909090909091,457,0,17,Dl_Nostalgic_2_Guitar,6,7,zenigata_nostalgic,0.0794016420841217,0
57,100,0.2409090909090909,594,0,17,Dl_Nostalgic_2_Guitar,6,4,zenigata_nostalgic,0.08722908049821854,0
57,100,0.1409090909090909,660,0,17,Dl_Nostalgic_2_Guitar,6,2,zenigata_nostalgic,0.09758505970239639,0
57,100,0.2,700,0,17,Dl_Nostalgic_2_Guitar,6,3,zenigata_nostalgic,0.1003250852227211,0
57,100,0.38181818181818183,804,0,17,Dl_Nostalgic_2_Guitar,6,6,zenigata_nostalgic,0.09265951067209244,0
69,100,0.2,9,1,18,Dl_Nostalgic_2_Guitar,6,3,zenigata_nostalgic,0.9998433589935303,1
57,100,0.5,52,0,18,Dl_Nostalgic_2_Guitar,6,8,zenigata_nostalgic,0.3117443323135376,0
52,100,0.3409090909090909,185,0,18,Dl_Nostalgic_2_Guitar,6,5,zenigata_nostalgic,0.31128352880477905,0
57,100,0.3409090909090909,409,0,18,Dl_Nostalgic_2_Guitar,6,5,zenigata_nostalgic,0.3023887574672699,0
59,100,0.22272727272727272,3,1,19,Dl_Nostalgic_2_Guitar,6,4,zenigata_nostalgic,0.999803364276886,1
64,100,0.2818181818181818,110,0,19,Dl_Nostalgic_2_Guitar,6,5,zenigata_nostalgic,0.13037118315696716,0
61,100,0.2590909090909091,189,0,19,Dl_Nostalgic_2_Guitar,6,4,zenigata_nostalgic,0.12077265977859497,0
61,100,0.2409090909090909,673,1,19,Dl_Nostalgic_2_Guitar,6,4,zenigata_nostalgic,0.1367999166250229,0
59,100,0.2,752,0,19,Dl_Nostalgic_2_Guitar,6,3,zenigata_nostalgic,0.14777135848999023,0
59,100,0.9,814,0,19,Dl_Nostalgic_2_Guitar,6,14,zenigata_nostalgic,0.12420792877674103,0
59,100,0.1409090909090909,136,1,20,Dl_Nostalgic_2_Guitar,6,2,zenigata_nostalgic,0.9997323155403137,1
59,100,0.21818181818181817,175,0,20,Dl_Nostalgic_2_Guitar,6,3,zenigata_nostalgic,0.05645771324634552,0
64,100,0.1409090909090909,295,0,20,Dl_Nostalgic_2_Guitar,6,2,zenigata_nostalgic,0.047796644270420074,0
61,100,0.2409090909090909,409,0,20,Dl_Nostalgic_2_Guitar,6,4,zenigata_nostalgic,0.04611091688275337,0
64,100,0.18181818181818182,488,0,20,Dl_Nostalgic_2_Guitar,6,3,zenigata_nostalgic,0.053999800235033035,0
61,100,0.3,638,0,20,Dl_Nostalgic_2_Guitar,6,5,zenigata_nostalgic,0.05653198063373566,0
61,100,0.2590909090909091,756,0,20,Dl_Nostalgic_2_Guitar,6,4,zenigata_nostalgic,0.06555110216140747,0
61,100,0.2772727272727273,866,0,20,Dl_Nostalgic_2_Guitar,6,4,zenigata_nostalgic,0.059066977351903915,0
61,100,0.3181818181818182,162,1,21,Dl_Nostalgic_2_Guitar,6,5,zenigata_nostalgic,0.9998015761375427,1
61,100,0.35909090909090907,330,0,21,Dl_Nostalgic_2_Guitar,6,6,zenigata_nostalgic,0.12494054436683655,0
61,100,0.4818181818181818,430,0,21,Dl_Nostalgic_2_Guitar,6,8,zenigata_nostalgic,0.1200045496225357,0
61,100,0.1590909090909091,611,0,21,Dl_Nostalgic_2_Guitar,6,3,zenigata_nostalgic,0.13821941614151,0
61,100,0.43636363636363634,656,0,21,Dl_Nostalgic_2_Guitar,6,7,zenigata_nostalgic,0.1427288055419922,0
61,100,0.37727272727272726,810,0,21,Dl_Nostalgic_2_Guitar,6,6,zenigata_nostalgic,0.13520938158035278,0
52,100,0.1409090909090909,220,1,22,Dl_Nostalgic_2_Guitar,6,2,zenigata_nostalgic,0.9996575117111206,1
57,100,0.11818181818181818,748,1,22,Dl_Nostalgic_2_Guitar,6,2,zenigata_nostalgic,0.5423664450645447,0
52,100,0.1,21,1,23,Dl_Nostalgic_2_Guitar,6,2,zenigata_nostalgic,0.9998422861099243,1
61,100,0.759090909090909,339,1,23,Dl_Nostalgic_2_Guitar,6,12,zenigata_nostalgic,0.1806461364030838,0
62,100,0.3,584,1,23,Dl_Nostalgic_2_Guitar,6,5,zenigata_nostalgic,0.2174689918756485,0
62,100,0.8590909090909091,673,0,23,Dl_Nostalgic_2_Guitar,6,14,zenigata_nostalgic,0.197675883769989,0
62,100,0.1409090909090909,870,0,23,Dl_Nostalgic_2_Guitar,6,2,zenigata_nostalgic,0.22350619733333588,0
62,100,0.12272727272727273,144,1,24,Dl_Nostalgic_2_Guitar,6,2,zenigata_nostalgic,0.999858021736145,1
59,100,0.1590909090909091,320,0,24,Dl_Nostalgic_2_Guitar,6,3,zenigata_nostalgic,0.3110083043575287,0
59,100,0.6,436,0,24,Dl_Nostalgic_2_Guitar,6,10,zenigata_nostalgic,0.2795829474925995,0
61,100,0.4,717,1,24,Dl_Nostalgic_2_Guitar,6,6,zenigata_nostalgic,0.31679654121398926,0
57,100,0.4590909090909091,30,1,25,Dl_Nostalgic_2_Guitar,6,7,zenigata_nostalgic,0.9998362064361572,1
58,100,0.2818181818181818,179,0,25,Dl_Nostalgic_2_Guitar,6,5,zenigata_nostalgic,0.3231404423713684,0
61,100,0.21818181818181817,339,0,25,Dl_Nostalgic_2_Guitar,6,3,zenigata_nostalgic,0.31019723415374756,0
62,100,0.6181818181818182,756,1,25,Dl_Nostalgic_2_Guitar,6,10,zenigata_nostalgic,0.3131740093231201,0
57,100,0.12272727272727273,48,1,26,Dl_Nostalgic_2_Guitar,6,2,zenigata_nostalgic,0.9998049139976501,1
62,100,0.2,100,0,26,Dl_Nostalgic_2_Guitar,6,3,zenigata_nostalgic,0.12658444046974182,0
57,100,0.6181818181818182,150,0,26,Dl_Nostalgic_2_Guitar,6,10,zenigata_nostalgic,0.11087117344141006,0
59,100,0.1590909090909091,656,1,26,Dl_Nostalgic_2_Guitar,6,3,zenigata_nostalgic,0.14510264992713928,0
59,100,0.12272727272727273,708,0,26,Dl_Nostalgic_2_Guitar,6,2,zenigata_nostalgic,0.1446867287158966,0
57,100,0.1590909090909091,822,0,26,Dl_Nostalgic_2_Guitar,6,3,zenigata_nostalgic,0.13188792765140533,0
61,100,0.3409090909090909,92,1,27,Dl_Nostalgic_2_Guitar,6,5,zenigata_nostalgic,0.9997960925102234,1
61,100,0.3,316,0,27,Dl_Nostalgic_2_Guitar,6,5,zenigata_nostalgic,0.12656673789024353,0
52,100,0.4,488,0,27,Dl_Nostalgic_2_Guitar,6,6,zenigata_nostalgic,0.1234685555100441,0
52,100,0.11818181818181818,602,0,27,Dl_Nostalgic_2_Guitar,6,2,zenigata_nostalgic,0.1336842030286789,0
61,100,0.2590909090909091,700,0,27,Dl_Nostalgic_2_Guitar,6,4,zenigata_nostalgic,0.13387948274612427,0
64,100,0.12272727272727273,862,0,27,Dl_Nostalgic_2_Guitar,6,2,zenigata_nostalgic,0.13379967212677002,0
61,100,0.11818181818181818,9,1,28,Dl_Nostalgic_2_Guitar,6,2,zenigata_nostalgic,0.9998052716255188,1
61,100,0.1409090909090909,44,0,28,Dl_Nostalgic_2_Guitar,6,2,zenigata_nostalgic,0.12625698745250702,0
57,100,0.3181818181818182,281,1,28,Dl_Nostalgic_2_Guitar,6,5,zenigata_nostalgic,0.11666157096624374,0
57,100,0.2409090909090909,387,0,28,Dl_Nostalgic_2_Guitar,6,4,zenigata_nostalgic,0.13795524835586548,0
61,100,0.1590909090909091,691,1,28,Dl_Nostalgic_2_Guitar,6,3,zenigata_nostalgic,0.14853546023368835,0
57,100,0.5409090909090909,791,0,28,Dl_Nostalgic_2_Guitar,6,9,zenigata_nostalgic,0.12792910635471344,0
61,100,0.2409090909090909,123,1,29,Dl_Nostalgic_2_Guitar,6,4,zenigata_nostalgic,0.9998303651809692,1
52,100,0.11818181818181818,501,1,29,Dl_Nostalgic_2_Guitar,6,2,zenigata_nostalgic,0.4291597008705139,0
69,100,0.1409090909090909,827,1,29,Dl_Nostalgic_2_Guitar,6,2,zenigata_nostalgic,0.41332903504371643,0
57,100,0.1409090909090909,167,1,30,Dl_Nostalgic_2_Guitar,6,2,zenigata_nostalgic,0.9998501539230347,1
57,100,0.2,202,0,30,Dl_Nostalgic_2_Guitar,6,3,zenigata_nostalgic,0.31638848781585693,0
69,100,0.21818181818181817,418,0,30,Dl_Nostalgic_2_Guitar,6,3,zenigata_nostalgic,0.2950192391872406,0
57,100,0.1409090909090909,466,0,30,Dl_Nostalgic_2_Guitar,6,2,zenigata_nostalgic,0.3118422329425812,0
57,100,0.1409090909090909,48,1,31,Dl_Nostalgic_2_Guitar,6,2,zenigata_nostalgic,0.9998530149459839,1
61,100,0.1409090909090909,532,1,31,Dl_Nostalgic_2_Guitar,6,2,zenigata_nostalgic,0.31751999258995056,0
61,100,0.17727272727272728,567,0,31,Dl_Nostalgic_2_Guitar,6,3,zenigata_nostalgic,0.290160596370697,0
61,100,0.1,646,0,31,Dl_Nostalgic_2_Guitar,6,2,zenigata_nostalgic,0.30614954233169556,0
69,100,0.21818181818181817,105,1,32,Dl_Nostalgic_2_Guitar,6,3,zenigata_nostalgic,0.9998435974121094,1
57,100,0.7227272727272728,334,0,32,Dl_Nostalgic_2_Guitar,6,12,zenigata_nostalgic,0.3157437741756439,0
69,100,0.1409090909090909,576,1,32,Dl_Nostalgic_2_Guitar,6,2,zenigata_nostalgic,0.31954577565193176,0
57,100,1.8227272727272728,651,0,32,Dl_Nostalgic_2_Guitar,6,15,zenigata_nostalgic,0.28999826312065125,0
69,100,0.18181818181818182,176,1,33,Dl_Nostalgic_2_Guitar,6,3,zenigata_nostalgic,0.9998218417167664,1
57,100,0.9181818181818182,215,0,33,Dl_Nostalgic_2_Guitar,6,15,zenigata_nostalgic,0.18298250436782837,0
57,100,0.6227272727272727,509,1,33,Dl_Nostalgic_2_Guitar,6,10,zenigata_nostalgic,0.2177295833826065,0
57,100,0.33636363636363636,655,0,33,Dl_Nostalgic_2_Guitar,6,5,zenigata_nostalgic,0.21740980446338654,0
64,100,0.2,765,0,33,Dl_Nostalgic_2_Guitar,6,3,zenigata_nostalgic,0.22673986852169037,0
61,100,0.11818181818181818,0,1,34,Dl_Nostalgic_2_Guitar,6,2,zenigata_nostalgic,0.9998015761375427,1
57,100,1.018181818181818,263,1,34,Dl_Nostalgic_2_Guitar,6,15,zenigata_nostalgic,0.11271476745605469,0
54,100,0.2409090909090909,496,1,34,Dl_Nostalgic_2_Guitar,6,4,zenigata_nostalgic,0.14040875434875488,0
54,100,0.12272727272727273,619,0,34,Dl_Nostalgic_2_Guitar,6,2,zenigata_nostalgic,0.14095641672611237,0
69,100,0.11818181818181818,756,0,34,Dl_Nostalgic_2_Guitar,6,2,zenigata_nostalgic,0.14586471021175385,0
54,100,0.2409090909090909,804,0,34,Dl_Nostalgic_2_Guitar,6,4,zenigata_nostalgic,0.1352756917476654,0
54,100,0.3409090909090909,21,1,35,Dl_Nostalgic_2_Guitar,6,5,zenigata_nostalgic,0.999724805355072,1
69,100,0.11818181818181818,348,1,35,Dl_Nostalgic_2_Guitar,6,2,zenigata_nostalgic,0.05538482218980789,0
54,100,0.42272727272727273,399,0,35,Dl_Nostalgic_2_Guitar,6,7,zenigata_nostalgic,0.046110209077596664,0
54,100,0.11818181818181818,506,0,35,Dl_Nostalgic_2_Guitar,6,2,zenigata_nostalgic,0.04954436793923378,0
52,100,0.4,576,0,35,Dl_Nostalgic_2_Guitar,6,6,zenigata_nostalgic,0.05107627809047699,0
61,100,0.16363636363636364,664,0,35,Dl_Nostalgic_2_Guitar,6,3,zenigata_nostalgic,0.06014050915837288,0
52,100,0.3409090909090909,729,0,35,Dl_Nostalgic_2_Guitar,6,5,zenigata_nostalgic,0.06749190390110016,0
52,100,0.2590909090909091,810,0,35,Dl_Nostalgic_2_Guitar,6,4,zenigata_nostalgic,0.06098117679357529,0
52,100,0.4,8,1,36,Dl_Nostalgic_2_Guitar,6,6,zenigata_nostalgic,0.9997014403343201,1
61,100,0.21818181818181817,96,0,36,Dl_Nostalgic_2_Guitar,6,3,zenigata_nostalgic,0.042742643505334854,0
52,100,0.2,185,0,36,Dl_Nostalgic_2_Guitar,6,3,zenigata_nostalgic,0.0337267704308033,0
52,100,0.3181818181818182,308,0,36,Dl_Nostalgic_2_Guitar,6,5,zenigata_nostalgic,0.029104985296726227,0
57,100,0.1409090909090909,421,0,36,Dl_Nostalgic_2_Guitar,6,2,zenigata_nostalgic,0.029502375051379204,0
52,100,0.1409090909090909,619,0,36,Dl_Nostalgic_2_Guitar,6,2,zenigata_nostalgic,0.034040696918964386,0
61,100,0.13636363636363635,700,0,36,Dl_Nostalgic_2_Guitar,6,2,zenigata_nostalgic,0.03842867910861969,0
52,100,0.2,778,0,36,Dl_Nostalgic_2_Guitar,6,3,zenigata_nostalgic,0.04764186590909958,0
52,100,0.17727272727272728,845,0,36,Dl_Nostalgic_2_Guitar,6,3,zenigata_nostalgic,0.045560289174318314,0
69,100,0.1409090909090909,21,1,37,Dl_Nostalgic_2_Guitar,6,2,zenigata_nostalgic,0.9997321963310242,1
52,100,0.1409090909090909,185,0,37,Dl_Nostalgic_2_Guitar,6,2,zenigata_nostalgic,0.0565878301858902,0
59,100,0.2772727272727273,238,0,37,Dl_Nostalgic_2_Guitar,6,4,zenigata_nostalgic,0.04496762901544571,0
59,100,0.3,348,0,37,Dl_Nostalgic_2_Guitar,6,5,zenigata_nostalgic,0.046357352286577225,0
52,100,0.2,426,0,37,Dl_Nostalgic_2_Guitar,6,3,zenigata_nostalgic,0.05438651889562607,0
52,100,0.2,506,0,37,Dl_Nostalgic_2_Guitar,6,3,zenigata_nostalgic,0.05829377844929695,0
61,100,0.2590909090909091,660,0,37,Dl_Nostalgic_2_Guitar,6,4,zenigata_nostalgic,0.06303715705871582,0
61,100,0.3181818181818182,823,0,37,Dl_Nostalgic_2_Guitar,6,5,zenigata_nostalgic,0.059143271297216415,0
61,100,0.2,179,1,38,Dl_Nostalgic_2_Guitar,6,3,zenigata_nostalgic,0.9997053742408752,1
57,100,0.1,263,0,38,Dl_Nostalgic_2_Guitar,6,2,zenigata_nostalgic,0.04268955439329147,0
61,100,0.1409090909090909,298,0,38,Dl_Nostalgic_2_Guitar,6,2,zenigata_nostalgic,0.03361256793141365,0
56,100,0.4,338,0,38,Dl_Nostalgic_2_Guitar,6,6,zenigata_nostalgic,0.03004470281302929,0
56,100,0.3,431,0,38,Dl_Nostalgic_2_Guitar,6,5,zenigata_nostalgic,0.031483475118875504,0
59,100,0.11818181818181818,536,0,38,Dl_Nostalgic_2_Guitar,6,2,zenigata_nostalgic,0.034395743161439896,0
64,100,0.18181818181818182,783,1,38,Dl_Nostalgic_2_Guitar,6,3,zenigata_nostalgic,0.041583407670259476,0
52,100,0.11818181818181818,831,0,38,Dl_Nostalgic_2_Guitar,6,2,zenigata_nostalgic,0.04887905716896057,0
57,100,0.8227272727272728,871,0,38,Dl_Nostalgic_2_Guitar,6,13,zenigata_nostalgic,0.04403991252183914,0
57,100,0.2,246,1,39,Dl_Nostalgic_2_Guitar,6,3,zenigata_nostalgic,0.999834418296814,1
57,100,0.11818181818181818,295,0,39,Dl_Nostalgic_2_Guitar,6,2,zenigata_nostalgic,0.21031010150909424,0
57,100,0.7818181818181819,364,0,39,Dl_Nostalgic_2_Guitar,6,13,zenigata_nostalgic,0.18982236087322235,0
61,100,0.17727272727272728,611,1,39,Dl_Nostalgic_2_Guitar,6,3,zenigata_nostalgic,0.23198255896568298,0
57,100,1.040909090909091,664,0,39,Dl_Nostalgic_2_Guitar,6,15,zenigata_nostalgic,0.2013748586177826,0
61,100,0.21818181818181817,118,1,40,Dl_Nostalgic_2_Guitar,6,3,zenigata_nostalgic,0.999798595905304,1
61,100,0.41818181818181815,418,1,40,Dl_Nostalgic_2_Guitar,6,7,zenigata_nostalgic,0.12406305968761444,0
56,100,0.6,515,0,40,Dl_Nostalgic_2_Guitar,6,10,zenigata_nostalgic,0.11797218769788742,0
64,100,0.1409090909090909,686,0,40,Dl_Nostalgic_2_Guitar,6,2,zenigata_nostalgic,0.1488221436738968,0
57,100,0.2,748,0,40,Dl_Nostalgic_2_Guitar,6,3,zenigata_nostalgic,0.13890184462070465,0
64,100,0.5,796,0,40,Dl_Nostalgic_2_Guitar,6,8,zenigata_nostalgic,0.13308317959308624,0
57,100,0.2590909090909091,131,1,41,Dl_Nostalgic_2_Guitar,6,4,zenigata_nostalgic,0.9998445510864258,1
57,100,0.1590909090909091,506,1,41,Dl_Nostalgic_2_Guitar,6,3,zenigata_nostalgic,0.3263137936592102,0
57,100,1.0,598,0,41,Dl_Nostalgic_2_Guitar,6,15,zenigata_nostalgic,0.27025845646858215,0
61,100,0.12272727272727273,839,1,41,Dl_Nostalgic_2_Guitar,6,2,zenigata_nostalgic,0.3331722915172577,0
57,100,0.23636363636363636,40,1,42,Dl_Nostalgic_2_Guitar,6,4,zenigata_nostalgic,0.9998230338096619,1
62,100,0.35909090909090907,330,1,42,Dl_Nostalgic_2_Guitar,6,6,zenigata_nostalgic,0.2181287705898285,0
62,100,0.38181818181818183,571,1,42,Dl_Nostalgic_2_Guitar,6,6,zenigata_nostalgic,0.19145622849464417,0
59,100,0.36363636363636365,664,0,42,Dl_Nostalgic_2_Guitar,6,6,zenigata_nostalgic,0.2141198217868805,0
64,100,0.11818181818181818,858,0,42,Dl_Nostalgic_2_Guitar,6,2,zenigata_nostalgic,0.2148837149143219,0
57,100,0.9227272727272727,254,1,43,Dl_Nostalgic_2_Guitar,6,15,zenigata_nostalgic,0.9998202919960022,1
57,100,0.2,506,1,43,Dl_Nostalgic_2_Guitar,6,3,zenigata_nostalgic,0.3666931092739105,0
58,100,0.740909090909091,651,0,43,Dl_Nostalgic_2_Guitar,6,12,zenigata_nostalgic,0.28111326694488525,0
58,100,0.37727272727272726,875,0,43,Dl_Nostalgic_2_Guitar,6,6,zenigata_nostalgic,0.33035364747047424,0
54,100,0.12272727272727273,364,1,44,Dl_Nostalgic_2_Guitar,6,2,zenigata_nostalgic,0.9998563528060913,1
57,100,0.2590909090909091,625,1,44,Dl_Nostalgic_2_Guitar,6,4,zenigata_nostalgic,0.31566840410232544,0
57,100,0.2590909090909091,756,0,44,Dl_Nostalgic_2_Guitar,6,4,zenigata_nostalgic,0.29073846340179443,0
59,100,0.21818181818181817,823,0,44,Dl_Nostalgic_2_Guitar,6,3,zenigata_nostalgic,0.30448126792907715,0
52,100,0.35909090909090907,298,1,45,Dl_Nostalgic_2_Guitar,6,6,zenigata_nostalgic,0.9998501539230347,1
61,100,1.1,418,0,45,Dl_Nostalgic_2_Guitar,6,15,zenigata_nostalgic,0.28369688987731934,0
52,100,0.1409090909090909,716,1,45,Dl_Nostalgic_2_Guitar,6,2,zenigata_nostalgic,0.33001700043678284,0
61,100,0.2590909090909091,813,0,45,Dl_Nostalgic_2_Guitar,6,4,zenigata_nostalgic,0.3046698272228241,0
61,100,0.2409090909090909,166,1,46,Dl_Nostalgic_2_Guitar,6,4,zenigata_nostalgic,0.9998352527618408,1
61,100,0.1,496,1,46,Dl_Nostalgic_2_Guitar,6,2,zenigata_nostalgic,0.21243630349636078,0
61,100,0.4,523,0,46,Dl_Nostalgic_2_Guitar,6,6,zenigata_nostalgic,0.18884696066379547,0
61,100,0.17727272727272728,655,0,46,Dl_Nostalgic_2_Guitar,6,3,zenigata_nostalgic,0.21118102967739105,0
62,100,0.41818181818181815,813,0,46,Dl_Nostalgic_2_Guitar,6,7,zenigata_nostalgic,0.2061455398797989,0
61,100,0.32272727272727275,26,1,47,Dl_Nostalgic_2_Guitar,6,5,zenigata_nostalgic,0.9997944235801697,1
56,100,0.9,110,0,47,Dl_Nostalgic_2_Guitar,6,14,zenigata_nostalgic,0.11912661045789719,0
52,100,0.1590909090909091,528,1,47,Dl_Nostalgic_2_Guitar,6,3,zenigata_nostalgic,0.13913030922412872,0
52,100,0.11818181818181818,568,0,47,Dl_Nostalgic_2_Guitar,6,2,zenigata_nostalgic,0.14011698961257935,0
57,100,0.11818181818181818,625,0,47,Dl_Nostalgic_2_Guitar,6,2,zenigata_nostalgic,0.14139840006828308,0
57,100,0.4,678,0,47,Dl_Nostalgic_2_Guitar,6,6,zenigata_nostalgic,0.128384068608284,0
57,100,0.3,31,1,48,Dl_Nostalgic_2_Guitar,6,5,zenigata_nostalgic,0.9998186230659485,1
57,100,0.6590909090909091,101,0,48,Dl_Nostalgic_2_Guitar,6,11,zenigata_nostalgic,0.20285049080848694,0
57,100,0.8590909090909091,343,1,48,Dl_Nostalgic_2_Guitar,6,14,zenigata_nostalgic,0.1992068588733673,0
61,100,1.0,646,1,48,Dl_Nostalgic_2_Guitar,6,15,zenigata_nostalgic,0.21893951296806335,0
61,100,0.12272727272727273,871,0,48,Dl_Nostalgic_2_Guitar,6,2,zenigata_nostalgic,0.240356907248497,0
61,100,0.1409090909090909,53,1,49,Dl_Nostalgic_2_Guitar,6,2,zenigata_nostalgic,0.9997649788856506,1
62,100,0.1409090909090909,179,0,49,Dl_Nostalgic_2_Guitar,6,2,zenigata_nostalgic,0.08348038792610168,0
62,100,0.1,215,0,49,Dl_Nostalgic_2_Guitar,6,2,zenigata_nostalgic,0.07452337443828583,0
56,100,0.32272727272727275,268,0,49,Dl_Nostalgic_2_Guitar,6,5,zenigata_nostalgic,0.08136066794395447,0
59,100,1.1409090909090909,383,0,49,Dl_Nostalgic_2_Guitar,6,15,zenigata_nostalgic,0.08260146528482437,0
52,100,0.18181818181818182,694,1,49,Dl_Nostalgic_2_Guitar,6,3,zenigata_nostalgic,0.1225467175245285,0
61,100,1.1227272727272728,738,0,49,Dl_Nostalgic_2_Guitar,6,15,zenigata_nostalgic,0.08407596498727798,0
57,100,0.1590909090909091,123,1,50,Dl_Nostalgic_2_Guitar,6,3,zenigata_nostalgic,0.999832034111023,1
61,100,0.2409090909090909,268,0,50,Dl_Nostalgic_2_Guitar,6,4,zenigata_nostalgic,0.2088528424501419,0
57,100,0.5181818181818182,325,0,50,Dl_Nostalgic_2_Guitar,6,8,zenigata_nostalgic,0.18773691356182098,0
52,100,0.17727272727272728,448,0,50,Dl_Nostalgic_2_Guitar,6,3,zenigata_nostalgic,0.2259417027235031,0
52,100,0.11818181818181818,743,1,50,Dl_Nostalgic_2_Guitar,6,2,zenigata_nostalgic,0.20647293329238892,0
62,100,0.3,144,1,51,Dl_Nostalgic_2_Guitar,6,5,zenigata_nostalgic,0.9998403787612915,1
62,100,0.1590909090909091,316,0,51,Dl_Nostalgic_2_Guitar,6,3,zenigata_nostalgic,0.21026112139225006,0
56,100,0.4,483,0,51,Dl_Nostalgic_2_Guitar,6,6,zenigata_nostalgic,0.19397269189357758,0
64,100,0.12272727272727273,686,0,51,Dl_Nostalgic_2_Guitar,6,2,zenigata_nostalgic,0.21705475449562073,0
61,100,0.22272727272727272,839,0,51,Dl_Nostalgic_2_Guitar,6,4,zenigata_nostalgic,0.1949453055858612,0
57,100,0.11818181818181818,31,1,52,Dl_Nostalgic_2_Guitar,6,2,zenigata_nostalgic,0.9997981190681458,1
57,100,0.13636363636363635,61,0,52,Dl_Nostalgic_2_Guitar,6,2,zenigata_nostalgic,0.12458628416061401,0
57,100,0.5227272727272727,123,0,52,Dl_Nostalgic_2_Guitar,6,8,zenigata_nostalgic,0.11538345366716385,0
61,100,0.37727272727272726,238,0,52,Dl_Nostalgic_2_Guitar,6,6,zenigata_nostalgic,0.14423702657222748,0
61,100,0.36363636363636365,421,0,52,Dl_Nostalgic_2_Guitar,6,6,zenigata_nostalgic,0.14944468438625336,0
61,100,0.41818181818181815,545,0,52,Dl_Nostalgic_2_Guitar,6,7,zenigata_nostalgic,0.1365475356578827,0
57,100,0.1409090909090909,13,1,53,Dl_Nostalgic_2_Guitar,6,2,zenigata_nostalgic,0.9997329115867615,1
61,100,0.1,43,0,53,Dl_Nostalgic_2_Guitar,6,2,zenigata_nostalgic,0.05630206689238548,0
54,100,0.35909090909090907,101,0,53,Dl_Nostalgic_2_Guitar,6,6,zenigata_nostalgic,0.045982543379068375,0
57,100,0.1409090909090909,220,0,53,Dl_Nostalgic_2_Guitar,6,2,zenigata_nostalgic,0.048864733427762985,0
57,100,0.1,276,0,53,Dl_Nostalgic_2_Guitar,6,2,zenigata_nostalgic,0.05268213152885437,0
57,100,0.1409090909090909,506,0,53,Dl_Nostalgic_2_Guitar,6,2,zenigata_nostalgic,0.06209629401564598,0
56,100,0.11818181818181818,590,0,53,Dl_Nostalgic_2_Guitar,6,2,zenigata_nostalgic,0.06970353424549103,0
56,100,0.8409090909090909,619,0,53,Dl_Nostalgic_2_Guitar,6,13,zenigata_nostalgic,0.058076243847608566,0
61,100,0.2590909090909091,96,1,54,Dl_Nostalgic_2_Guitar,6,4,zenigata_nostalgic,0.9998492002487183,1
57,100,0.5590909090909091,163,0,54,Dl_Nostalgic_2_Guitar,6,9,zenigata_nostalgic,0.30637818574905396,0
57,100,0.3,480,1,54,Dl_Nostalgic_2_Guitar,6,5,zenigata_nostalgic,0.3153165578842163,0
57,100,1.0,584,0,54,Dl_Nostalgic_2_Guitar,6,15,zenigata_nostalgic,0.3011997938156128,0
57,100,0.21818181818181817,40,1,55,Dl_Nostalgic_2_Guitar,6,3,zenigata_nostalgic,0.999612033367157,1
52,100,0.13636363636363635,875,1,55,Dl_Nostalgic_2_Guitar,6,2,zenigata_nostalgic,0.5623804926872253,0
52,100,0.6,31,1,56,Dl_Nostalgic_2_Guitar,6,10,zenigata_nostalgic,0.9998249411582947,1
52,100,0.4818181818181818,188,0,56,Dl_Nostalgic_2_Guitar,6,8,zenigata_nostalgic,0.21850307285785675,0
61,100,0.5363636363636364,325,0,56,Dl_Nostalgic_2_Guitar,6,9,zenigata_nostalgic,0.19516867399215698,0
61,100,0.1590909090909091,448,0,56,Dl_Nostalgic_2_Guitar,6,3,zenigata_nostalgic,0.226501002907753,0
61,100,0.9590909090909091,866,1,56,Dl_Nostalgic_2_Guitar,6,15,zenigata_nostalgic,0.19759798049926758,0
61,100,0.2,211,1,57,Dl_Nostalgic_2_Guitar,6,3,zenigata_nostalgic,0.9998499155044556,1
64,100,0.21818181818181817,273,0,57,Dl_Nostalgic_2_Guitar,6,3,zenigata_nostalgic,0.33134356141090393,0
61,100,0.2590909090909091,321,0,57,Dl_Nostalgic_2_Guitar,6,4,zenigata_nostalgic,0.2815510630607605,0
62,100,0.1409090909090909,848,1,57,Dl_Nostalgic_2_Guitar,6,2,zenigata_nostalgic,0.305625855922699,0
52,100,0.32272727272727275,188,1,58,Dl_Nostalgic_2_Guitar,6,5,zenigata_nostalgic,0.9998276233673096,1
52,100,0.5590909090909091,386,0,58,Dl_Nostalgic_2_Guitar,6,9,zenigata_nostalgic,0.41573888063430786,0
57,100,1.540909090909091,515,0,58,Dl_Nostalgic_2_Guitar,6,15,zenigata_nostalgic,0.3991211950778961,0
57,100,0.3181818181818182,21,1,59,Dl_Nostalgic_2_Guitar,6,5,zenigata_nostalgic,0.999843955039978,1
61,100,0.6181818181818182,96,0,59,Dl_Nostalgic_2_Guitar,6,10,zenigata_nostalgic,0.3138693571090698,0
52,100,0.1409090909090909,431,1,59,Dl_Nostalgic_2_Guitar,6,2,zenigata_nostalgic,0.31416529417037964,0
61,100,0.2,506,0,59,Dl_Nostalgic_2_Guitar,6,3,zenigata_nostalgic,0.3019595742225647,0
62,100,0.18181818181818182,91,1,60,Dl_Nostalgic_2_Guitar,6,3,zenigata_nostalgic,0.9998082518577576,1
56,100,0.4409090909090909,166,0,60,Dl_Nostalgic_2_Guitar,6,7,zenigata_nostalgic,0.12340035289525986,0
56,100,0.1409090909090909,273,0,60,Dl_Nostalgic_2_Guitar,6,2,zenigata_nostalgic,0.12827782332897186,0
56,100,0.3181818181818182,308,0,60,Dl_Nostalgic_2_Guitar,6,5,zenigata_nostalgic,0.13315314054489136,0
59,100,0.9409090909090909,638,1,60,Dl_Nostalgic_2_Guitar,6,15,zenigata_nostalgic,0.13421235978603363,0
59,100,0.11818181818181818,866,0,60,Dl_Nostalgic_2_Guitar,6,2,zenigata_nostalgic,0.14385424554347992,0
61,100,0.5,105,1,61,Dl_Nostalgic_2_Guitar,6,8,zenigata_nostalgic,0.9998257756233215,1
61,100,0.3409090909090909,251,0,61,Dl_Nostalgic_2_Guitar,6,5,zenigata_nostalgic,0.2250644564628601,0
61,100,0.11818181818181818,536,1,61,Dl_Nostalgic_2_Guitar,6,2,zenigata_nostalgic,0.20408816635608673,0
57,100,0.12272727272727273,686,0,61,Dl_Nostalgic_2_Guitar,6,2,zenigata_nostalgic,0.21583503484725952,0
62,100,1.5818181818181818,729,0,61,Dl_Nostalgic_2_Guitar,6,15,zenigata_nostalgic,0.19054359197616577,0
62,100,0.4409090909090909,220,1,62,Dl_Nostalgic_2_Guitar,6,7,zenigata_nostalgic,0.9998180270195007,1
52,100,1.1772727272727272,338,0,62,Dl_Nostalgic_2_Guitar,6,15,zenigata_nostalgic,0.39255109429359436,0
64,100,0.42272727272727273,804,1,62,Dl_Nostalgic_2_Guitar,6,7,zenigata_nostalgic,0.4524582624435425,0
59,100,0.3,96,1,63,Dl_Nostalgic_2_Guitar,6,5,zenigata_nostalgic,0.9998290538787842,1
52,100,0.4409090909090909,201,0,63,Dl_Nostalgic_2_Guitar,6,7,zenigata_nostalgic,0.4182121455669403,0
52,100,0.43636363636363634,303,0,63,Dl_Nostalgic_2_Guitar,6,7,zenigata_nostalgic,0.42184165120124817,0
68,100,0.2,153,1,64,Dl_Nostalgic_2_Guitar,6,3,zenigata_nostalgic,0.9996421337127686,1
59,100,0.21818181818181817,546,1,64,Dl_Nostalgic_2_Guitar,6,3,zenigata_nostalgic,0.5449517965316772,0
61,100,0.22272727272727272,377,1,65,Dl_Nostalgic_2_Guitar,6,4,zenigata_nostalgic,0.9996141195297241,1
56,100,1.0,585,0,65,Dl_Nostalgic_2_Guitar,6,15,zenigata_nostalgic,0.529025137424469,0
68,100,0.35909090909090907,87,1,66,Dl_Nostalgic_2_Guitar,6,6,zenigata_nostalgic,0.9996914863586426,1
61,100,0.1409090909090909,202,0,66,Dl_Nostalgic_2_Guitar,6,2,zenigata_nostalgic,0.04357626661658287,0
64,100,0.41818181818181815,260,0,66,Dl_Nostalgic_2_Guitar,6,7,zenigata_nostalgic,0.03273997828364372,0
61,100,0.35909090909090907,352,0,66,Dl_Nostalgic_2_Guitar,6,6,zenigata_nostalgic,0.03084932640194893,0
57,100,0.12272727272727273,443,0,66,Dl_Nostalgic_2_Guitar,6,2,zenigata_nostalgic,0.031697776168584824,0
61,100,0.11818181818181818,590,0,66,Dl_Nostalgic_2_Guitar,6,2,zenigata_nostalgic,0.03440486639738083,0
64,100,0.1,673,0,66,Dl_Nostalgic_2_Guitar,6,2,zenigata_nostalgic,0.04145702347159386,0
59,100,0.21818181818181817,722,0,66,Dl_Nostalgic_2_Guitar,6,3,zenigata_nostalgic,0.047649893909692764,0
61,100,0.5409090909090909,817,0,66,Dl_Nostalgic_2_Guitar,6,9,zenigata_nostalgic,0.04425208270549774,0
62,100,0.7181818181818181,567,1,67,Dl_Nostalgic_2_Guitar,6,11,zenigata_nostalgic,0.9995483756065369,1
56,100,0.9590909090909091,726,0,67,Dl_Nostalgic_2_Guitar,6,15,zenigata_nostalgic,0.5505704879760742,0
68,100,0.18181818181818182,92,1,68,Dl_Nostalgic_2_Guitar,6,3,zenigata_nostalgic,0.9996657371520996,1
59,100,0.12272727272727273,136,0,68,Dl_Nostalgic_2_Guitar,6,2,zenigata_nostalgic,0.03187043219804764,0
68,100,0.1590909090909091,197,0,68,Dl_Nostalgic_2_Guitar,6,3,zenigata_nostalgic,0.02185436151921749,0
52,100,0.12272727272727273,255,0,68,Dl_Nostalgic_2_Guitar,6,2,zenigata_nostalgic,0.01670350506901741,0
52,100,0.1,294,0,68,Dl_Nostalgic_2_Guitar,6,2,zenigata_nostalgic,0.01337936706840992,0
64,100,0.1,316,0,68,Dl_Nostalgic_2_Guitar,6,2,zenigata_nostalgic,0.012178679928183556,0
61,100,0.22272727272727272,343,0,68,Dl_Nostalgic_2_Guitar,6,4,zenigata_nostalgic,0.01256301999092102,0
61,100,0.21818181818181817,457,0,68,Dl_Nostalgic_2_Guitar,6,3,zenigata_nostalgic,0.016422908753156662,0
61,100,0.2409090909090909,509,0,68,Dl_Nostalgic_2_Guitar,6,4,zenigata_nostalgic,0.023068204522132874,0
61,100,0.12272727272727273,576,0,68,Dl_Nostalgic_2_Guitar,6,2,zenigata_nostalgic,0.03176495060324669,0
57,100,0.7,792,0,68,Dl_Nostalgic_2_Guitar,6,11,zenigata_nostalgic,0.032329607754945755,0
57,100,0.13636363636363635,83,1,69,Dl_Nostalgic_2_Guitar,6,2,zenigata_nostalgic,0.9998241066932678,1
57,100,0.17727272727272728,119,0,69,Dl_Nostalgic_2_Guitar,6,3,zenigata_nostalgic,0.4147050976753235,0
57,100,0.2,650,1,69,Dl_Nostalgic_2_Guitar,6,3,zenigata_nostalgic,0.4255386292934418,0
68,100,0.1409090909090909,267,1,70,Dl_Nostalgic_2_Guitar,6,2,zenigata_nostalgic,0.9998065829277039,1
52,100,0.21818181818181817,440,0,70,Dl_Nostalgic_2_Guitar,6,3,zenigata_nostalgic,0.12571778893470764,0
61,100,1.1,502,0,70,Dl_Nostalgic_2_Guitar,6,15,zenigata_nostalgic,0.10523773729801178,0
61,100,0.1409090909090909,770,1,70,Dl_Nostalgic_2_Guitar,6,2,zenigata_nostalgic,0.14996089041233063,0
61,100,0.1590909090909091,805,0,70,Dl_Nostalgic_2_Guitar,6,3,zenigata_nostalgic,0.14576977491378784,0
61,100,0.1409090909090909,844,0,70,Dl_Nostalgic_2_Guitar,6,2,zenigata_nostalgic,0.13257279992103577,0
61,100,0.4590909090909091,87,1,71,Dl_Nostalgic_2_Guitar,6,7,zenigata_nostalgic,0.9998233914375305,1
57,100,0.5409090909090909,210,0,71,Dl_Nostalgic_2_Guitar,6,9,zenigata_nostalgic,0.20806610584259033,0
61,100,0.7,413,0,71,Dl_Nostalgic_2_Guitar,6,11,zenigata_nostalgic,0.19103124737739563,0
62,100,0.2818181818181818,619,0,71,Dl_Nostalgic_2_Guitar,6,5,zenigata_nostalgic,0.22581098973751068,0
62,100,0.1,787,0,71,Dl_Nostalgic_2_Guitar,6,2,zenigata_nostalgic,0.21329444646835327,0
62,100,0.12272727272727273,56,1,72,Dl_Nostalgic_2_Guitar,6,2,zenigata_nostalgic,0.9998470544815063,1
52,100,0.12272727272727273,166,0,72,Dl_Nostalgic_2_Guitar,6,2,zenigata_nostalgic,0.20781701803207397,0
59,100,0.3181818181818182,347,0,72,Dl_Nostalgic_2_Guitar,6,5,zenigata_nostalgic,0.18837296962738037,0
56,100,0.1,483,0,72,Dl_Nostalgic_2_Guitar,6,2,zenigata_nostalgic,0.21511952579021454,0
57,100,0.11818181818181818,656,0,72,Dl_Nostalgic_2_Guitar,6,2,zenigata_nostalgic,0.19929033517837524,0
59,100,0.17727272727272728,216,1,73,Dl_Nostalgic_2_Guitar,6,3,zenigata_nostalgic,0.9997982382774353,1
61,100,0.8772727272727273,260,0,73,Dl_Nostalgic_2_Guitar,6,14,zenigata_nostalgic,0.11282575875520706,0
61,100,0.18181818181818182,466,0,73,Dl_Nostalgic_2_Guitar,6,3,zenigata_nostalgic,0.1405576765537262,0
57,100,0.4818181818181818,553,0,73,Dl_Nostalgic_2_Guitar,6,8,zenigata_nostalgic,0.12785542011260986,0
64,100,0.1409090909090909,703,0,73,Dl_Nostalgic_2_Guitar,6,2,zenigata_nostalgic,0.1604887843132019,0
61,100,0.5590909090909091,743,0,73,Dl_Nostalgic_2_Guitar,6,9,zenigata_nostalgic,0.13048741221427917,0
57,100,0.11818181818181818,119,1,74,Dl_Nostalgic_2_Guitar,6,2,zenigata_nostalgic,0.9998031258583069,1
61,100,0.7181818181818181,163,0,74,Dl_Nostalgic_2_Guitar,6,11,zenigata_nostalgic,0.11730635911226273,0
68,100,0.42272727272727273,343,0,74,Dl_Nostalgic_2_Guitar,6,7,zenigata_nostalgic,0.128635436296463,0
68,100,0.1,580,1,74,Dl_Nostalgic_2_Guitar,6,2,zenigata_nostalgic,0.14214418828487396,0
59,100,0.2409090909090909,752,0,74,Dl_Nostalgic_2_Guitar,6,4,zenigata_nostalgic,0.14605605602264404,0
57,100,0.3,832,0,74,Dl_Nostalgic_2_Guitar,6,5,zenigata_nostalgic,0.13227210938930511,0
61,100,0.38181818181818183,87,1,75,Dl_Nostalgic_2_Guitar,6,6,zenigata_nostalgic,0.9998264908790588,1
57,100,0.2818181818181818,286,0,75,Dl_Nostalgic_2_Guitar,6,5,zenigata_nostalgic,0.2094314992427826,0
59,100,0.5590909090909091,370,0,75,Dl_Nostalgic_2_Guitar,6,9,zenigata_nostalgic,0.19661033153533936,0
57,100,0.2772727272727273,502,0,75,Dl_Nostalgic_2_Guitar,6,4,zenigata_nostalgic,0.2195601463317871,0
59,100,0.9,677,0,75,Dl_Nostalgic_2_Guitar,6,14,zenigata_nostalgic,0.20614638924598694,0
61,100,1.0636363636363637,3,1,76,Dl_Nostalgic_2_Guitar,6,15,zenigata_nostalgic,0.9997586607933044,1
61,100,0.9409090909090909,276,1,76,Dl_Nostalgic_2_Guitar,6,15,zenigata_nostalgic,0.13156384229660034,0
56,100,0.2590909090909091,493,0,76,Dl_Nostalgic_2_Guitar,6,4,zenigata_nostalgic,0.14085453748703003,0
52,100,0.2,603,0,76,Dl_Nostalgic_2_Guitar,6,3,zenigata_nostalgic,0.14497986435890198,0
52,100,0.11818181818181818,660,0,76,Dl_Nostalgic_2_Guitar,6,2,zenigata_nostalgic,0.15190063416957855,0
56,100,0.6181818181818182,779,0,76,Dl_Nostalgic_2_Guitar,6,10,zenigata_nostalgic,0.12935234606266022,0
61,100,0.7181818181818181,110,1,77,Dl_Nostalgic_2_Guitar,6,11,zenigata_nostalgic,0.9998282194137573,1
61,100,0.4,399,1,77,Dl_Nostalgic_2_Guitar,6,6,zenigata_nostalgic,0.34405794739723206,0
57,100,0.4,493,0,77,Dl_Nostalgic_2_Guitar,6,6,zenigata_nostalgic,0.2986321747303009,0
57,100,0.37727272727272726,656,0,77,Dl_Nostalgic_2_Guitar,6,6,zenigata_nostalgic,0.31704971194267273,0
57,100,0.41818181818181815,184,1,78,Dl_Nostalgic_2_Guitar,6,7,zenigata_nostalgic,0.9998214840888977,1
57,100,0.1409090909090909,440,1,78,Dl_Nostalgic_2_Guitar,6,2,zenigata_nostalgic,0.4277971684932709,0
52,100,0.1,796,1,78,Dl_Nostalgic_2_Guitar,6,2,zenigata_nostalgic,0.43404629826545715,0
59,100,0.16363636363636364,69,1,79,Dl_Nostalgic_2_Guitar,6,3,zenigata_nostalgic,0.9997591376304626,1
56,100,0.38181818181818183,145,0,79,Dl_Nostalgic_2_Guitar,6,6,zenigata_nostalgic,0.07791750878095627,0
61,100,0.759090909090909,263,0,79,Dl_Nostalgic_2_Guitar,6,12,zenigata_nostalgic,0.07003597915172577,0
61,100,0.21818181818181817,436,0,79,Dl_Nostalgic_2_Guitar,6,3,zenigata_nostalgic,0.08632990717887878,0
61,100,0.5409090909090909,506,0,79,Dl_Nostalgic_2_Guitar,6,9,zenigata_nostalgic,0.09036142379045486,0
61,100,0.5181818181818182,633,0,79,Dl_Nostalgic_2_Guitar,6,8,zenigata_nostalgic,0.10077349096536636,0
54,100,0.4818181818181818,747,0,79,Dl_Nostalgic_2_Guitar,6,8,zenigata_nostalgic,0.09081784635782242,0
62,100,0.8,333,1,80,Dl_Nostalgic_2_Guitar,6,13,zenigata_nostalgic,0.9998083710670471,1
62,100,0.5590909090909091,563,0,80,Dl_Nostalgic_2_Guitar,6,9,zenigata_nostalgic,0.2203974723815918,0
59,100,0.1409090909090909,734,0,80,Dl_Nostalgic_2_Guitar,6,2,zenigata_nostalgic,0.21843916177749634,0
59,100,0.1590909090909091,770,0,80,Dl_Nostalgic_2_Guitar,6,3,zenigata_nostalgic,0.21391291916370392,0
68,100,0.4409090909090909,817,0,80,Dl_Nostalgic_2_Guitar,6,7,zenigata_nostalgic,0.2093285769224167,0
68,100,0.41818181818181815,193,1,81,Dl_Nostalgic_2_Guitar,6,7,zenigata_nostalgic,0.9997945427894592,1
64,100,0.2409090909090909,343,0,81,Dl_Nostalgic_2_Guitar,6,4,zenigata_nostalgic,0.1336369514465332,0
61,100,0.2818181818181818,396,0,81,Dl_Nostalgic_2_Guitar,6,5,zenigata_nostalgic,0.11653229594230652,0
61,100,0.33636363636363636,502,0,81,Dl_Nostalgic_2_Guitar,6,5,zenigata_nostalgic,0.13459362089633942,0
57,100,0.11818181818181818,669,0,81,Dl_Nostalgic_2_Guitar,6,2,zenigata_nostalgic,0.14473554491996765,0
57,100,0.41818181818181815,713,0,81,Dl_Nostalgic_2_Guitar,6,7,zenigata_nostalgic,0.13098359107971191,0
57,100,0.2,202,1,82,Dl_Nostalgic_2_Guitar,6,3,zenigata_nostalgic,0.9998076558113098,1
59,100,1.240909090909091,255,0,82,Dl_Nostalgic_2_Guitar,6,15,zenigata_nostalgic,0.3823298513889313,0
73,100,0.1409090909090909,559,1,82,Dl_Nostalgic_2_Guitar,6,2,zenigata_nostalgic,0.4652016758918762,1
54,100,0.2,0,1,21,_Remix_Guitar,6,3,sumimaru_ruriko,0.9998302459716797,1
54,100,0.1,712,1,21,_Remix_Guitar,6,2,sumimaru_ruriko,0.42020657658576965,0
54,100,0.22272727272727272,752,0,21,_Remix_Guitar,6,4,sumimaru_ruriko,0.42381834983825684,0
53,100,0.6,814,1,23,_Remix_Guitar,6,10,sumimaru_ruriko,0.9925239682197571,0
53,100,0.18181818181818182,113,1,24,_Remix_Guitar,6,3,sumimaru_ruriko,0.9998338222503662,1
53,100,0.8,272,0,24,_Remix_Guitar,6,13,sumimaru_ruriko,0.3789446949958801,0
53,100,0.12272727272727273,509,1,24,_Remix_Guitar,6,2,sumimaru_ruriko,0.44794756174087524,0
54,100,0.8818181818181818,113,1,25,_Remix_Guitar,6,14,sumimaru_ruriko,0.9921759963035583,0
54,100,0.1409090909090909,13,1,27,_Remix_Guitar,6,2,sumimaru_ruriko,0.9998575448989868,1
54,100,0.2,347,1,27,_Remix_Guitar,6,3,sumimaru_ruriko,0.32140761613845825,0
54,100,0.17727272727272728,801,1,27,_Remix_Guitar,6,3,sumimaru_ruriko,0.293810099363327,0
54,100,0.3,849,0,27,_Remix_Guitar,6,5,sumimaru_ruriko,0.30003485083580017,0
54,100,0.2409090909090909,373,1,89,_Remix_Guitar,6,4,sumimaru_ruriko,0.9998531341552734,1
54,100,0.2590909090909091,475,0,89,_Remix_Guitar,6,4,sumimaru_ruriko,0.3263827860355377,0
54,100,0.2818181818181818,663,0,89,_Remix_Guitar,6,5,sumimaru_ruriko,0.2892787456512451,0
54,100,0.2,857,0,89,_Remix_Guitar,6,3,sumimaru_ruriko,0.3041812777519226,0
54,100,0.1590909090909091,184,1,90,_Remix_Guitar,6,3,sumimaru_ruriko,0.999840259552002,1
54,100,0.3409090909090909,267,0,90,_Remix_Guitar,6,5,sumimaru_ruriko,0.20299701392650604,0
54,100,0.1,392,0,90,_Remix_Guitar,6,2,sumimaru_ruriko,0.20179696381092072,0
54,100,0.21818181818181817,462,0,90,_Remix_Guitar,6,3,sumimaru_ruriko,0.20968231558799744,0
54,100,0.37727272727272726,523,0,90,_Remix_Guitar,6,6,sumimaru_ruriko,0.20287439227104187,0
54,100,0.2,356,1,91,_Remix_Guitar,6,3,sumimaru_ruriko,0.9996408224105835,1
56,100,0.1409090909090909,616,1,91,_Remix_Guitar,6,2,sumimaru_ruriko,0.548043429851532,0
56,100,0.13636363636363635,216,1,92,_Remix_Guitar,6,2,sumimaru_ruriko,0.9932522177696228,1
53,100,0.2409090909090909,580,1,93,_Remix_Guitar,6,4,sumimaru_ruriko,0.9931727051734924,0
54,100,0.11818181818181818,140,1,94,_Remix_Guitar,6,2,sumimaru_ruriko,0.9998539686203003,1
54,100,0.3,466,1,94,_Remix_Guitar,6,5,sumimaru_ruriko,0.32630327343940735,0
55,100,0.1,826,1,94,_Remix_Guitar,6,2,sumimaru_ruriko,0.28589704632759094,0
54,100,0.1590909090909091,870,0,94,_Remix_Guitar,6,3,sumimaru_ruriko,0.30330678820610046,0
56,100,0.1590909090909091,263,1,95,_Remix_Guitar,6,3,sumimaru_ruriko,0.9998421669006348,1
54,100,0.11818181818181818,396,0,95,_Remix_Guitar,6,2,sumimaru_ruriko,0.2090698778629303,0
54,100,0.1409090909090909,716,1,95,_Remix_Guitar,6,2,sumimaru_ruriko,0.19969186186790466,0
54,100,0.1409090909090909,760,0,95,_Remix_Guitar,6,2,sumimaru_ruriko,0.20564831793308258,0
56,100,0.17727272727272728,832,0,95,_Remix_Guitar,6,3,sumimaru_ruriko,0.19619524478912354,0
52,100,0.2409090909090909,528,1,0,DL_Guitar,6,4,DL.   Stems,0.9998393058776855,1
52,100,0.3,660,0,0,DL_Guitar,6,5,DL.   Stems,0.4083366394042969,0
52,100,0.42272727272727273,761,0,0,DL_Guitar,6,7,DL.   Stems,0.4196871519088745,0
64,100,0.16363636363636364,4,1,1,DL_Guitar,6,3,DL.   Stems,0.9934072494506836,0
52,100,0.17727272727272728,229,1,2,DL_Guitar,6,3,DL.   Stems,0.9996583461761475,1
52,100,0.38181818181818183,409,0,2,DL_Guitar,6,6,DL.   Stems,0.543296754360199,0
56,100,0.2,488,1,3,DL_Guitar,6,3,DL.   Stems,0.9996508359909058,1
56,100,0.1590909090909091,546,0,3,DL_Guitar,6,3,DL.   Stems,0.544330894947052,0
52,100,0.17727272727272728,184,1,4,DL_Guitar,6,3,DL.   Stems,0.999843955039978,1
52,100,0.17727272727272728,317,0,4,DL_Guitar,6,3,DL.   Stems,0.40267401933670044,0
52,100,0.1590909090909091,458,0,4,DL_Guitar,6,3,DL.   Stems,0.42168691754341125,0
52,100,0.2772727272727273,700,1,5,DL_Guitar,6,4,DL.   Stems,0.9933387637138367,0
64,100,0.2,757,1,6,DL_Guitar,6,3,DL.   Stems,0.9996590614318848,1
64,100,0.12272727272727273,839,0,6,DL_Guitar,6,2,DL.   Stems,0.5441920757293701,0
57,100,0.13636363636363635,238,1,7,DL_Guitar,6,2,DL.   Stems,0.9998351335525513,1
52,100,0.12272727272727273,629,1,7,DL_Guitar,6,2,DL.   Stems,0.41961973905563354,0
52,100,0.17727272727272728,757,0,7,DL_Guitar,6,3,DL.   Stems,0.42021965980529785,0
64,100,0.1,8,1,8,DL_Guitar,6,2,DL.   Stems,0.9997449517250061,1
52,100,0.1,92,0,8,DL_Guitar,6,2,DL.   Stems,0.054920803755521774,0
52,100,0.2772727272727273,127,0,8,DL_Guitar,6,4,DL.   Stems,0.04473056271672249,0
52,100,0.11818181818181818,237,0,8,DL_Guitar,6,2,DL.   Stems,0.04846236854791641,0
57,100,0.2590909090909091,285,0,8,DL_Guitar,6,4,DL.   Stems,0.04705236479640007,0
57,100,1.0,369,0,8,DL_Guitar,6,15,DL.   Stems,0.054544415324926376,0
52,100,0.2,708,1,8,DL_Guitar,6,3,DL.   Stems,0.07671919465065002,0
52,100,0.2590909090909091,857,0,8,DL_Guitar,6,4,DL.   Stems,0.05959804728627205,0
57,100,0.1590909090909091,34,1,9,DL_Guitar,6,3,DL.   Stems,0.9996210336685181,1
56,100,0.2590909090909091,835,1,9,DL_Guitar,6,4,DL.   Stems,0.5502765774726868,0
52,100,0.2,48,1,10,DL_Guitar,6,3,DL.   Stems,0.9998483657836914,1
52,100,0.1,118,0,10,DL_Guitar,6,2,DL.   Stems,0.20572437345981598,0
52,100,0.1,144,0,10,DL_Guitar,6,2,DL.   Stems,0.19664162397384644,0
54,100,0.1,330,0,10,DL_Guitar,6,2,DL.   Stems,0.1973658949136734,0
54,100,0.1590909090909091,854,1,10,DL_Guitar,6,3,DL.   Stems,0.1944328248500824,0
54,100,0.2,30,1,11,DL_Guitar,6,3,DL.   Stems,0.9996477365493774,1
64,100,0.1,770,1,11,DL_Guitar,6,2,DL.   Stems,0.5507224202156067,0
52,100,0.22272727272727272,826,1,12,DL_Guitar,6,4,DL.   Stems,0.9934544563293457,0
52,100,0.5,598,1,13,DL_Guitar,6,8,DL.   Stems,0.9998307228088379,1
52,100,0.42272727272727273,730,0,13,DL_Guitar,6,7,DL.   Stems,0.4025525748729706,0
52,100,0.18181818181818182,835,0,13,DL_Guitar,6,3,DL.   Stems,0.43500465154647827,0
52,100,0.21818181818181817,22,1,14,DL_Guitar,6,3,DL.   Stems,0.9996541738510132,1
64,100,0.1409090909090909,835,1,14,DL_Guitar,6,2,DL.   Stems,0.5485515594482422,0
71,100,0.12272727272727273,233,1,15,DL_Guitar,6,2,DL.   Stems,0.9998329877853394,1
54,100,0.13636363636363635,766,1,15,DL_Guitar,6,2,DL.   Stems,0.4160102903842926,0
54,100,0.11818181818181818,809,0,15,DL_Guitar,6,2,DL.   Stems,0.42152994871139526,0
56,100,0.2,663,1,17,DL_Guitar,6,3,DL.   Stems,0.9932953715324402,0
60,100,0.37727272727272726,96,1,19,DL_Guitar,6,6,DL.   Stems,0.9933516383171082,0
66,100,0.2772727272727273,40,1,20,DL_Guitar,6,4,DL.   Stems,0.9998248219490051,1
54,100,0.4409090909090909,140,0,20,DL_Guitar,6,7,DL.   Stems,0.207233265042305,0
54,100,0.4,272,0,20,DL_Guitar,6,6,DL.   Stems,0.20095477998256683,0
56,100,0.2818181818181818,550,1,20,DL_Guitar,6,5,DL.   Stems,0.21703296899795532,0
56,100,0.37727272727272726,756,0,20,DL_Guitar,6,6,DL.   Stems,0.2085774540901184,0
52,100,0.16363636363636364,3,1,21,DL_Guitar,6,3,DL.   Stems,0.9997150301933289,1
59,100,0.1,241,1,21,DL_Guitar,6,2,DL.   Stems,0.041946254670619965,0
52,100,0.3,339,0,21,DL_Guitar,6,5,DL.   Stems,0.032214388251304626,0
57,100,0.17727272727272728,413,0,21,DL_Guitar,6,3,DL.   Stems,0.02902323380112648,0
52,100,0.3,453,0,21,DL_Guitar,6,5,DL.   Stems,0.030419236049056053,0
52,100,0.21818181818181817,523,0,21,DL_Guitar,6,3,DL.   Stems,0.033407751470804214,0
52,100,0.11818181818181818,712,0,21,DL_Guitar,6,2,DL.   Stems,0.0400519035756588,0
64,100,0.2,787,0,21,DL_Guitar,6,3,DL.   Stems,0.0460742749273777,0
52,100,0.13636363636363635,831,0,21,DL_Guitar,6,2,DL.   Stems,0.04444001242518425,0
52,100,0.21818181818181817,0,1,22,DL_Guitar,6,3,DL.   Stems,0.9998438358306885,1
52,100,0.1,52,0,22,DL_Guitar,6,2,DL.   Stems,0.21033217012882233,0
57,100,0.17727272727272728,75,0,22,DL_Guitar,6,3,DL.   Stems,0.18782106041908264,0
57,100,0.38181818181818183,175,0,22,DL_Guitar,6,6,DL.   Stems,0.2054276317358017,0
57,100,0.1,567,1,22,DL_Guitar,6,2,DL.   Stems,0.20527806878089905,0
54,100,0.1409090909090909,308,1,23,DL_Guitar,6,2,DL.   Stems,0.9996436834335327,1
54,100,0.1409090909090909,550,1,23,DL_Guitar,6,2,DL.   Stems,0.5489609241485596,0
59,100,0.16363636363636364,466,1,24,DL_Guitar,6,3,DL.   Stems,0.9998394250869751,1
54,100,0.1409090909090909,571,0,24,DL_Guitar,6,2,DL.   Stems,0.39635998010635376,0
55,100,0.1409090909090909,691,0,24,DL_Guitar,6,2,DL.   Stems,0.425966739654541,0
64,100,0.3,167,1,25,DL_Guitar,6,5,DL.   Stems,0.9998360872268677,1
52,100,0.22272727272727272,320,0,25,DL_Guitar,6,4,DL.   Stems,0.4103759527206421,0
59,100,0.11818181818181818,831,1,25,DL_Guitar,6,2,DL.   Stems,0.41315096616744995,0
52,100,0.22272727272727272,57,1,26,DL_Guitar,6,4,DL.   Stems,0.9996252059936523,1
52,100,0.6,206,0,26,DL_Guitar,6,10,DL.   Stems,0.5467556118965149,0
52,100,0.16363636363636364,3,1,27,DL_Guitar,6,3,DL.   Stems,0.9998611211776733,1
52,100,0.2636363636363636,48,0,27,DL_Guitar,6,4,DL.   Stems,0.3133675158023834,0
59,100,0.2636363636363636,223,0,27,DL_Guitar,6,4,DL.   Stems,0.28107932209968567,0
52,100,0.12272727272727273,299,0,27,DL_Guitar,6,2,DL.   Stems,0.30474913120269775,0
56,100,0.1409090909090909,246,1,29,DL_Guitar,6,2,DL.   Stems,0.9996469020843506,1
52,100,0.2409090909090909,607,1,29,DL_Guitar,6,4,DL.   Stems,0.5468565821647644,0
62,100,0.32272727272727275,752,1,30,DL_Guitar,6,5,DL.   Stems,0.9932658672332764,1
54,100,0.2,215,1,32,DL_Guitar,6,3,DL.   Stems,0.992763102054596,0
66,100,0.1409090909090909,311,1,33,DL_Guitar,6,2,DL.   Stems,0.9998327493667603,1
66,100,0.22272727272727272,488,0,33,DL_Guitar,6,4,DL.   Stems,0.41740506887435913,0
54,100,0.1,801,1,33,DL_Guitar,6,2,DL.   Stems,0.4205946922302246,0
52,100,0.18181818181818182,69,1,34,DL_Guitar,6,3,DL.   Stems,0.9998114705085754,1
64,100,0.2590909090909091,123,0,34,DL_Guitar,6,4,DL.   Stems,0.1263565868139267,0
59,100,0.12272727272727273,254,0,34,DL_Guitar,6,2,DL.   Stems,0.12041524797677994,0
59,100,0.2,373,0,34,DL_Guitar,6,3,DL.   Stems,0.13268937170505524,0
52,100,0.22272727272727272,716,1,34,DL_Guitar,6,4,DL.   Stems,0.146377295255661,0
56,100,0.1590909090909091,831,0,34,DL_Guitar,6,3,DL.   Stems,0.12385678291320801,0
52,100,0.1590909090909091,13,1,35,DL_Guitar,6,3,DL.   Stems,0.9997460246086121,1
64,100,0.11818181818181818,105,0,35,DL_Guitar,6,2,DL.   Stems,0.053483523428440094,0
52,100,0.11818181818181818,150,0,35,DL_Guitar,6,2,DL.   Stems,0.04609222710132599,0
52,100,0.22272727272727272,378,0,35,DL_Guitar,6,4,DL.   Stems,0.0457444041967392,0
57,100,0.21818181818181817,483,0,35,DL_Guitar,6,3,DL.   Stems,0.047901444137096405,0
52,100,0.1409090909090909,584,0,35,DL_Guitar,6,2,DL.   Stems,0.05887354537844658,0
64,100,0.1,655,0,35,DL_Guitar,6,2,DL.   Stems,0.062403604388237,0
52,100,0.21818181818181817,735,0,35,DL_Guitar,6,3,DL.   Stems,0.058045919984579086,0
52,100,0.2590909090909091,56,1,36,DL_Guitar,6,4,DL.   Stems,0.999815046787262,1
64,100,0.1409090909090909,251,0,36,DL_Guitar,6,2,DL.   Stems,0.12627314031124115,0
64,100,0.2818181818181818,576,1,36,DL_Guitar,6,5,DL.   Stems,0.11405272781848907,0
61,100,0.21818181818181817,660,0,36,DL_Guitar,6,3,DL.   Stems,0.1287602186203003,0
61,100,0.1,716,0,36,DL_Guitar,6,2,DL.   Stems,0.1389312595129013,0
64,100,0.32272727272727275,738,0,36,DL_Guitar,6,5,DL.   Stems,0.12559477984905243,0
64,100,0.18181818181818182,34,1,37,DL_Guitar,6,3,DL.   Stems,0.9996559619903564,1
64,100,0.1,105,0,37,DL_Guitar,6,2,DL.   Stems,0.5470060110092163,0
54,100,0.13636363636363635,193,1,38,DL_Guitar,6,2,DL.   Stems,0.9998569488525391,1
52,100,0.12272727272727273,311,0,38,DL_Guitar,6,2,DL.   Stems,0.32756945490837097,0
64,100,0.1590909090909091,735,1,38,DL_Guitar,6,3,DL.   Stems,0.2888388931751251,0
61,100,0.12272727272727273,861,0,38,DL_Guitar,6,2,DL.   Stems,0.29589781165122986,0
61,100,0.3181818181818182,110,1,39,DL_Guitar,6,5,DL.   Stems,0.999619722366333,1
56,100,0.1590909090909091,351,1,39,DL_Guitar,6,3,DL.   Stems,0.5529683828353882,0
64,100,0.12272727272727273,91,1,40,DL_Guitar,6,2,DL.   Stems,0.9996627569198608,1
52,100,0.13636363636363635,150,0,40,DL_Guitar,6,2,DL.   Stems,0.5461005568504333,0
54,100,0.5,220,1,41,DL_Guitar,6,8,DL.   Stems,0.9996094107627869,1
54,100,0.1409090909090909,418,0,41,DL_Guitar,6,2,DL.   Stems,0.5593165159225464,0
66,100,0.12272727272727273,4,1,42,DL_Guitar,6,2,DL.   Stems,0.999824583530426,1
59,100,0.13636363636363635,171,0,42,DL_Guitar,6,2,DL.   Stems,0.4167404770851135,0
54,100,0.5772727272727273,391,0,42,DL_Guitar,6,9,DL.   Stems,0.42173436284065247,0
52,100,0.2590909090909091,171,1,43,DL_Guitar,6,4,DL.   Stems,0.9998562335968018,1
52,100,0.2,260,0,43,DL_Guitar,6,3,DL.   Stems,0.32215139269828796,0
52,100,0.4772727272727273,480,0,43,DL_Guitar,6,8,DL.   Stems,0.29417309165000916,0
52,100,0.3409090909090909,593,0,43,DL_Guitar,6,5,DL.   Stems,0.3008759617805481,0
62,100,0.9181818181818182,31,1,44,DL_Guitar,6,15,DL.   Stems,0.9997963309288025,1
61,100,0.1590909090909091,448,1,44,DL_Guitar,6,3,DL.   Stems,0.45565199851989746,0
64,100,0.5590909090909091,493,0,44,DL_Guitar,6,9,DL.   Stems,0.4312785565853119,0
54,100,0.4409090909090909,26,1,45,DL_Guitar,6,7,DL.   Stems,0.9998261332511902,1
54,100,0.2,131,0,45,DL_Guitar,6,3,DL.   Stems,0.22050870954990387,0
52,100,0.13636363636363635,545,1,45,DL_Guitar,6,2,DL.   Stems,0.2018500715494156,0
59,100,0.12272727272727273,651,0,45,DL_Guitar,6,2,DL.   Stems,0.2052059769630432,0
52,100,0.33636363636363636,721,0,45,DL_Guitar,6,5,DL.   Stems,0.20464807748794556,0
54,100,0.2818181818181818,211,1,46,DL_Guitar,6,5,DL.   Stems,0.9998476505279541,1
52,100,0.1409090909090909,571,1,46,DL_Guitar,6,2,DL.   Stems,0.3367215096950531,0
52,100,0.1409090909090909,756,0,46,DL_Guitar,6,2,DL.   Stems,0.2958982586860657,0
52,100,0.11818181818181818,875,0,46,DL_Guitar,6,2,DL.   Stems,0.3008289635181427,0
57,100,0.2772727272727273,40,1,47,DL_Guitar,6,4,DL.   Stems,0.9998422861099243,1
52,100,0.2,101,0,47,DL_Guitar,6,3,DL.   Stems,0.3469609022140503,0
52,100,0.11818181818181818,523,1,47,DL_Guitar,6,2,DL.   Stems,0.291560560464859,0
52,100,0.2590909090909091,584,0,47,DL_Guitar,6,4,DL.   Stems,0.30179229378700256,0
52,100,0.42272727272727273,26,1,48,DL_Guitar,6,7,DL.   Stems,0.9996237754821777,1
57,100,0.1,361,1,48,DL_Guitar,6,2,DL.   Stems,0.5505185723304749,0
59,100,0.2772727272727273,251,1,49,DL_Guitar,6,4,DL.   Stems,0.9998424053192139,1
52,100,0.1,545,1,49,DL_Guitar,6,2,DL.   Stems,0.21227283775806427,0
56,100,0.11818181818181818,721,0,49,DL_Guitar,6,2,DL.   Stems,0.19390682876110077,0
52,100,0.2,804,0,49,DL_Guitar,6,3,DL.   Stems,0.20215380191802979,0
52,100,0.11818181818181818,866,0,49,DL_Guitar,6,2,DL.   Stems,0.19611294567584991,0
52,100,0.1409090909090909,69,1,50,DL_Guitar,6,2,DL.   Stems,0.9998452663421631,1
64,100,0.12272727272727273,123,0,50,DL_Guitar,6,2,DL.   Stems,0.20848418772220612,0
52,100,0.1,166,0,50,DL_Guitar,6,2,DL.   Stems,0.19444026052951813,0
56,100,0.1590909090909091,506,1,50,DL_Guitar,6,3,DL.   Stems,0.20023305714130402,0
56,100,0.12272727272727273,554,0,50,DL_Guitar,6,2,DL.   Stems,0.19831059873104095,0
54,100,0.6,136,1,52,DL_Guitar,6,10,DL.   Stems,0.9997857213020325,1
57,100,0.3,325,0,52,DL_Guitar,6,5,DL.   Stems,0.13250458240509033,0
59,100,0.1590909090909091,515,0,52,DL_Guitar,6,3,DL.   Stems,0.12832258641719818,0
59,100,0.1590909090909091,568,0,52,DL_Guitar,6,3,DL.   Stems,0.14040572941303253,0
54,100,0.4590909090909091,703,0,52,DL_Guitar,6,7,DL.   Stems,0.1413150131702423,0
54,100,0.3409090909090909,826,0,52,DL_Guitar,6,5,DL.   Stems,0.1373894214630127,0
54,100,0.18181818181818182,408,1,53,DL_Guitar,6,3,DL.   Stems,0.9998571872711182,1
61,100,0.22272727272727272,651,1,53,DL_Guitar,6,4,DL.   Stems,0.31705597043037415,0
61,100,0.1590909090909091,721,0,53,DL_Guitar,6,3,DL.   Stems,0.29048487544059753,0
61,100,0.1,765,0,53,DL_Guitar,6,2,DL.   Stems,0.30163878202438354,0
59,100,0.2,0,1,54,DL_Guitar,6,3,DL.   Stems,0.9998260140419006,1
61,100,0.4,206,0,54,DL_Guitar,6,6,DL.   Stems,0.4074401557445526,0
57,100,0.17727272727272728,743,1,54,DL_Guitar,6,3,DL.   Stems,0.4323973059654236,0
57,100,0.1,215,1,55,DL_Guitar,6,2,DL.   Stems,0.9998183846473694,1
52,100,0.5,678,1,55,DL_Guitar,6,8,DL.   Stems,0.4168153703212738,0
52,100,0.6181818181818182,791,0,55,DL_Guitar,6,10,DL.   Stems,0.4240012466907501,0
52,100,0.18181818181818182,136,1,56,DL_Guitar,6,3,DL.   Stems,0.9997768998146057,1
64,100,0.16363636363636364,179,0,56,DL_Guitar,6,3,DL.   Stems,0.08022472262382507,0
52,100,0.6363636363636364,391,0,56,DL_Guitar,6,10,DL.   Stems,0.0690741315484047,0
52,100,0.11818181818181818,568,0,56,DL_Guitar,6,2,DL.   Stems,0.0840369462966919,0
52,100,0.16363636363636364,598,0,56,DL_Guitar,6,3,DL.   Stems,0.08878803998231888,0
52,100,0.5590909090909091,700,0,56,DL_Guitar,6,9,DL.   Stems,0.08938851952552795,0
52,100,0.5818181818181818,839,0,56,DL_Guitar,6,9,DL.   Stems,0.08394898474216461,0
52,100,1.059090909090909,286,1,57,DL_Guitar,6,15,DL.   Stems,0.9998049139976501,1
52,100,0.4409090909090909,541,1,57,DL_Guitar,6,7,DL.   Stems,0.4397931694984436,0
52,100,0.18181818181818182,770,0,57,DL_Guitar,6,3,DL.   Stems,0.43746817111968994,0
52,100,0.12272727272727273,114,1,58,DL_Guitar,6,2,DL.   Stems,0.9998445510864258,1
52,100,0.2,603,1,58,DL_Guitar,6,3,DL.   Stems,0.402942955493927,0
52,100,0.3,678,0,58,DL_Guitar,6,5,DL.   Stems,0.41900601983070374,0
52,100,0.11818181818181818,523,1,59,DL_Guitar,6,2,DL.   Stems,0.9996613264083862,1
56,100,0.22272727272727272,606,0,59,DL_Guitar,6,4,DL.   Stems,0.5438919067382812,0
57,100,0.3,185,1,60,DL_Guitar,6,5,DL.   Stems,0.9998353719711304,1
52,100,0.18181818181818182,444,1,60,DL_Guitar,6,3,DL.   Stems,0.21380272507667542,0
52,100,0.18181818181818182,488,0,60,DL_Guitar,6,3,DL.   Stems,0.19761446118354797,0
52,100,0.4590909090909091,660,0,60,DL_Guitar,6,7,DL.   Stems,0.19552068412303925,0
52,100,0.11818181818181818,810,0,60,DL_Guitar,6,2,DL.   Stems,0.20091411471366882,0
52,100,0.2,176,1,61,DL_Guitar,6,3,DL.   Stems,0.9998409748077393,1
52,100,0.37727272727272726,361,0,61,DL_Guitar,6,6,DL.   Stems,0.20180080831050873,0
52,100,0.2590909090909091,458,0,61,DL_Guitar,6,4,DL.   Stems,0.19740158319473267,0
64,100,0.42272727272727273,563,0,61,DL_Guitar,6,7,DL.   Stems,0.1981288641691208,0
52,100,0.11818181818181818,655,0,61,DL_Guitar,6,2,DL.   Stems,0.2094828486442566,0
64,100,0.2409090909090909,603,1,62,DL_Guitar,6,4,DL.   Stems,0.9998399019241333,1
64,100,0.11818181818181818,660,0,62,DL_Guitar,6,2,DL.   Stems,0.41685062646865845,0
52,100,0.18181818181818182,751,0,62,DL_Guitar,6,3,DL.   Stems,0.4188542366027832,0
52,100,0.11818181818181818,75,1,63,DL_Guitar,6,2,DL.   Stems,0.9998375177383423,1
57,100,0.3409090909090909,246,0,63,DL_Guitar,6,5,DL.   Stems,0.3914701044559479,0
56,100,0.1590909090909091,673,1,63,DL_Guitar,6,3,DL.   Stems,0.4343530237674713,0
54,100,0.21818181818181817,260,1,64,DL_Guitar,6,3,DL.   Stems,0.999830961227417,1
66,100,0.1409090909090909,462,0,64,DL_Guitar,6,2,DL.   Stems,0.2191043496131897,0
54,100,0.4,563,0,64,DL_Guitar,6,6,DL.   Stems,0.18779481947422028,0
66,100,0.2409090909090909,695,0,64,DL_Guitar,6,4,DL.   Stems,0.22047021985054016,0
54,100,0.1409090909090909,756,0,64,DL_Guitar,6,2,DL.   Stems,0.20986177027225494,0
52,100,0.1,373,1,65,DL_Guitar,6,2,DL.   Stems,0.9996644258499146,1
52,100,0.3181818181818182,770,1,65,DL_Guitar,6,5,DL.   Stems,0.5399317145347595,0
52,100,0.16363636363636364,92,1,66,DL_Guitar,6,3,DL.   Stems,0.9997768998146057,1
52,100,0.2772727272727273,184,0,66,DL_Guitar,6,4,DL.   Stems,0.0789237767457962,0
52,100,0.2409090909090909,273,0,66,DL_Guitar,6,4,DL.   Stems,0.07224464416503906,0
52,100,0.2409090909090909,356,0,66,DL_Guitar,6,4,DL.   Stems,0.07783693820238113,0
52,100,0.13636363636363635,413,0,66,DL_Guitar,6,2,DL.   Stems,0.08710240572690964,0
64,100,0.12272727272727273,509,0,66,DL_Guitar,6,2,DL.   Stems,0.09367448836565018,0
54,100,0.3409090909090909,576,0,66,DL_Guitar,6,5,DL.   Stems,0.07913936674594879,0
52,100,0.3409090909090909,563,1,67,DL_Guitar,6,5,DL.   Stems,0.9998260140419006,1
52,100,0.2818181818181818,686,0,67,DL_Guitar,6,5,DL.   Stems,0.4270934462547302,0
52,100,0.4590909090909091,766,0,67,DL_Guitar,6,7,DL.   Stems,0.4207373261451721,0
59,100,0.18181818181818182,79,1,68,DL_Guitar,6,3,DL.   Stems,0.9996466636657715,1
52,100,0.17727272727272728,523,1,68,DL_Guitar,6,3,DL.   Stems,0.5510852932929993,0
56,100,0.11818181818181818,74,1,69,DL_Guitar,6,2,DL.   Stems,0.9998568296432495,1
59,100,0.4590909090909091,189,0,69,DL_Guitar,6,7,DL.   Stems,0.3030657470226288,0
56,100,0.4409090909090909,430,1,69,DL_Guitar,6,7,DL.   Stems,0.2952819764614105,0
52,100,0.13636363636363635,612,0,69,DL_Guitar,6,2,DL.   Stems,0.31663766503334045,0
52,100,0.1409090909090909,35,1,70,DL_Guitar,6,2,DL.   Stems,0.9998620748519897,1
54,100,0.3,140,0,70,DL_Guitar,6,5,DL.   Stems,0.3086889386177063,0
54,100,0.2409090909090909,399,1,70,DL_Guitar,6,4,DL.   Stems,0.3016578257083893,0
54,100,1.3409090909090908,747,1,70,DL_Guitar,6,15,DL.   Stems,0.28793609142303467,0
54,100,0.2409090909090909,220,1,71,DL_Guitar,6,4,DL.   Stems,0.9998376369476318,1
54,100,0.18181818181818182,286,0,71,DL_Guitar,6,3,DL.   Stems,0.2095603346824646,0
54,100,0.1,453,0,71,DL_Guitar,6,2,DL.   Stems,0.1984672248363495,0
54,100,0.1590909090909091,580,0,71,DL_Guitar,6,3,DL.   Stems,0.20219753682613373,0
61,100,0.1,796,0,71,DL_Guitar,6,2,DL.   Stems,0.20584332942962646,0
61,100,0.42272727272727273,540,1,72,DL_Guitar,6,7,DL.   Stems,0.9930399656295776,1
57,100,0.21818181818181817,242,1,73,DL_Guitar,6,3,DL.   Stems,0.992728590965271,0
52,100,0.11818181818181818,66,1,74,DL_Guitar,6,2,DL.   Stems,0.9997498393058777,1
52,100,0.2772727272727273,150,0,74,DL_Guitar,6,4,DL.   Stems,0.052722714841365814,0
52,100,0.12272727272727273,289,0,74,DL_Guitar,6,2,DL.   Stems,0.04596564546227455,0
64,100,0.1409090909090909,320,0,74,DL_Guitar,6,2,DL.   Stems,0.045187585055828094,0
52,100,0.12272727272727273,386,0,74,DL_Guitar,6,2,DL.   Stems,0.04975520819425583,0
64,100,0.13636363636363635,413,0,74,DL_Guitar,6,2,DL.   Stems,0.05529376491904259,0
52,100,0.1409090909090909,603,0,74,DL_Guitar,6,2,DL.   Stems,0.06183268502354622,0
52,100,0.2590909090909091,787,0,74,DL_Guitar,6,4,DL.   Stems,0.056798115372657776,0
52,100,0.2590909090909091,79,1,75,DL_Guitar,6,4,DL.   Stems,0.9997766613960266,1
52,100,0.11818181818181818,184,0,75,DL_Guitar,6,2,DL.   Stems,0.079851433634758,0
52,100,0.1,223,0,75,DL_Guitar,6,2,DL.   Stems,0.07154601812362671,0
52,100,0.12272727272727273,267,0,75,DL_Guitar,6,2,DL.   Stems,0.07536834478378296,0
64,100,0.11818181818181818,316,0,75,DL_Guitar,6,2,DL.   Stems,0.08494143187999725,0
52,100,0.2818181818181818,409,0,75,DL_Guitar,6,5,DL.   Stems,0.08964290469884872,0
52,100,0.22272727272727272,540,0,75,DL_Guitar,6,4,DL.   Stems,0.08247386664152145,0
52,100,0.3409090909090909,462,1,76,DL_Guitar,6,5,DL.   Stems,0.9998403787612915,1
52,100,0.12272727272727273,650,0,76,DL_Guitar,6,2,DL.   Stems,0.410432904958725,0
53,100,0.1,677,0,76,DL_Guitar,6,2,DL.   Stems,0.4217784106731415,0
64,100,0.1,576,1,77,DL_Guitar,6,2,DL.   Stems,0.9936483502388,1
54,100,0.2,360,1,78,DL_Guitar,6,3,DL.   Stems,0.9932123422622681,0
54,100,0.3,443,1,79,DL_Guitar,6,5,DL.   Stems,0.9996353387832642,1
54,100,0.3409090909090909,682,1,79,DL_Guitar,6,5,DL.   Stems,0.5479509234428406,0
69,100,0.2590909090909091,22,1,80,DL_Guitar,6,4,DL.   Stems,0.9998452663421631,1
54,100,0.12272727272727273,166,0,80,DL_Guitar,6,2,DL.   Stems,0.33291563391685486,0
54,100,0.4590909090909091,519,1,80,DL_Guitar,6,7,DL.   Stems,0.2830035090446472,0
54,100,0.1,633,0,80,DL_Guitar,6,2,DL.   Stems,0.31679031252861023,0
52,100,0.2,106,1,81,DL_Guitar,6,3,DL.   Stems,0.9998576641082764,1
56,100,0.2590909090909091,220,0,81,DL_Guitar,6,4,DL.   Stems,0.307259202003479,0
52,100,0.8818181818181818,333,0,81,DL_Guitar,6,14,DL.   Stems,0.2755013108253479,0
61,100,0.2590909090909091,760,1,81,DL_Guitar,6,4,DL.   Stems,0.3247305452823639,0
57,100,0.1409090909090909,136,1,82,DL_Guitar,6,2,DL.   Stems,0.9996978044509888,1
61,100,0.18181818181818182,246,0,82,DL_Guitar,6,3,DL.   Stems,0.04375675320625305,0
61,100,0.2772727272727273,347,0,82,DL_Guitar,6,4,DL.   Stems,0.033081602305173874,0
54,100,0.1409090909090909,553,0,82,DL_Guitar,6,2,DL.   Stems,0.03095943108201027,0
54,100,0.3,646,0,82,DL_Guitar,6,5,DL.   Stems,0.030526528134942055,0
54,100,0.1590909090909091,716,0,82,DL_Guitar,6,3,DL.   Stems,0.03562505915760994,0
57,100,0.18181818181818182,752,0,82,DL_Guitar,6,3,DL.   Stems,0.040329188108444214,0
62,100,0.1,826,0,82,DL_Guitar,6,2,DL.   Stems,0.049387913197278976,0
62,100,0.1,853,0,82,DL_Guitar,6,2,DL.   Stems,0.046691518276929855,0
54,100,0.32272727272727275,136,1,83,DL_Guitar,6,5,DL.   Stems,0.9998210072517395,1
57,100,0.4,233,0,83,DL_Guitar,6,6,DL.   Stems,0.40445590019226074,0
52,100,0.1,839,1,83,DL_Guitar,6,2,DL.   Stems,0.44479072093963623,0
52,100,0.43636363636363634,83,1,84,DL_Guitar,6,7,DL.   Stems,0.9998339414596558,1
59,100,0.1409090909090909,210,0,84,DL_Guitar,6,2,DL.   Stems,0.22095747292041779,0
64,100,0.1590909090909091,713,1,84,DL_Guitar,6,3,DL.   Stems,0.19775106012821198,0
54,100,0.1,787,0,84,DL_Guitar,6,2,DL.   Stems,0.19938264787197113,0
63,100,0.1409090909090909,836,0,84,DL_Guitar,6,2,DL.   Stems,0.1977495402097702,0
63,100,0.1,26,1,85,DL_Guitar,6,2,DL.   Stems,0.9998050332069397,1
54,100,0.1,87,0,85,DL_Guitar,6,2,DL.   Stems,0.13226811587810516,0
54,100,0.2409090909090909,163,0,85,DL_Guitar,6,4,DL.   Stems,0.1205495223402977,0
66,100,0.11818181818181818,242,0,85,DL_Guitar,6,2,DL.   Stems,0.13604308664798737,0
54,100,0.1409090909090909,299,0,85,DL_Guitar,6,2,DL.   Stems,0.14467395842075348,0
54,100,0.2,729,1,85,DL_Guitar,6,3,DL.   Stems,0.13249298930168152,0
63,100,0.2818181818181818,35,1,86,DL_Guitar,6,5,DL.   Stems,0.9998030066490173,1
63,100,0.23636363636363636,106,0,86,DL_Guitar,6,4,DL.   Stems,0.13099834322929382,0
59,100,0.1409090909090909,267,0,86,DL_Guitar,6,2,DL.   Stems,0.12562856078147888,0
66,100,0.1,619,1,86,DL_Guitar,6,2,DL.   Stems,0.13950040936470032,0
54,100,0.3,690,0,86,DL_Guitar,6,5,DL.   Stems,0.14105156064033508,0
66,100,0.18181818181818182,770,0,86,DL_Guitar,6,3,DL.   Stems,0.1358344852924347,0
52,100,0.4590909090909091,163,1,87,DL_Guitar,6,7,DL.   Stems,0.9996349811553955,1
52,100,0.1409090909090909,470,1,87,DL_Guitar,6,2,DL.   Stems,0.5557042956352234,0
61,100,0.12272727272727273,26,1,88,DL_Guitar,6,2,DL.   Stems,0.9996356964111328,1
66,100,0.1590909090909091,506,1,88,DL_Guitar,6,3,DL.   Stems,0.5521664619445801,0
54,100,0.21818181818181817,30,1,89,DL_Guitar,6,3,DL.   Stems,0.9997685551643372,1
64,100,0.11818181818181818,176,0,89,DL_Guitar,6,2,DL.   Stems,0.0817311480641365,0
64,100,0.21818181818181817,237,0,89,DL_Guitar,6,3,DL.   Stems,0.07304862886667252,0
64,100,0.11818181818181818,330,0,89,DL_Guitar,6,2,DL.   Stems,0.07957246154546738,0
52,100,0.5590909090909091,417,0,89,DL_Guitar,6,9,DL.   Stems,0.08346349745988846,0
64,100,0.1,593,0,89,DL_Guitar,6,2,DL.   Stems,0.09653107076883316,0
54,100,0.2,857,1,89,DL_Guitar,6,3,DL.   Stems,0.08258981257677078,0
63,100,0.2409090909090909,307,1,90,DL_Guitar,6,4,DL.   Stems,0.9998103976249695,1
63,100,0.37727272727272726,404,0,90,DL_Guitar,6,6,DL.   Stems,0.42283618450164795,0
59,100,0.3181818181818182,726,1,90,DL_Guitar,6,5,DL.   Stems,0.43580082058906555,0
63,100,0.1,233,1,91,DL_Guitar,6,2,DL.   Stems,0.9997313618659973,1
54,100,0.1,276,0,91,DL_Guitar,6,2,DL.   Stems,0.056129489094018936,0
64,100,0.2818181818181818,333,0,91,DL_Guitar,6,5,DL.   Stems,0.0469728484749794,0
64,100,0.12272727272727273,443,0,91,DL_Guitar,6,2,DL.   Stems,0.048474155366420746,0
52,100,0.2590909090909091,502,0,91,DL_Guitar,6,4,DL.   Stems,0.049372490495443344,0
52,100,0.2409090909090909,572,0,91,DL_Guitar,6,4,DL.   Stems,0.057897016406059265,0
52,100,0.21818181818181817,747,0,91,DL_Guitar,6,3,DL.   Stems,0.06443537026643753,0
52,100,0.2,870,0,91,DL_Guitar,6,3,DL.   Stems,0.05831585079431534,0
64,100,0.1409090909090909,206,1,92,DL_Guitar,6,2,DL.   Stems,0.9998468160629272,1
59,100,0.1590909090909091,276,0,92,DL_Guitar,6,3,DL.   Stems,0.1979442536830902,0
54,100,0.3181818181818182,436,0,92,DL_Guitar,6,5,DL.   Stems,0.19497932493686676,0
54,100,0.2409090909090909,572,0,92,DL_Guitar,6,4,DL.   Stems,0.2099260538816452,0
52,100,0.5,700,0,92,DL_Guitar,6,8,DL.   Stems,0.20213524997234344,0
54,100,0.2636363636363636,47,1,93,DL_Guitar,6,4,DL.   Stems,0.9996168613433838,1
54,100,0.18181818181818182,132,0,93,DL_Guitar,6,3,DL.   Stems,0.555146336555481,0
54,100,0.1409090909090909,110,1,94,DL_Guitar,6,2,DL.   Stems,0.9998505115509033,1
54,100,0.41818181818181815,307,0,94,DL_Guitar,6,7,DL.   Stems,0.3026440143585205,0
63,100,0.11818181818181818,612,1,94,DL_Guitar,6,2,DL.   Stems,0.30555686354637146,0
59,100,0.42272727272727273,796,0,94,DL_Guitar,6,7,DL.   Stems,0.3070893883705139,0
63,100,0.1590909090909091,206,1,95,DL_Guitar,6,3,DL.   Stems,0.9998072981834412,1
54,100,0.23636363636363636,392,0,95,DL_Guitar,6,4,DL.   Stems,0.12650801241397858,0
54,100,0.2409090909090909,475,0,95,DL_Guitar,6,4,DL.   Stems,0.12475194036960602,0
52,100,0.2590909090909091,606,0,95,DL_Guitar,6,4,DL.   Stems,0.13761964440345764,0
52,100,0.2409090909090909,716,0,95,DL_Guitar,6,4,DL.   Stems,0.14229457080364227,0
52,100,0.9181818181818182,813,0,95,DL_Guitar,6,15,DL.   Stems,0.12331734597682953,0
54,100,0.11818181818181818,176,1,96,DL_Guitar,6,2,DL.   Stems,0.9998332262039185,1
54,100,0.1409090909090909,404,0,96,DL_Guitar,6,2,DL.   Stems,0.416391521692276,0
54,100,0.12272727272727273,629,0,96,DL_Guitar,6,2,DL.   Stems,0.4234955310821533,0
54,100,0.11818181818181818,132,1,97,DL_Guitar,6,2,DL.   Stems,0.9998563528060913,1
54,100,0.1590909090909091,453,1,97,DL_Guitar,6,3,DL.   Stems,0.3181550204753876,0
54,100,0.4818181818181818,509,0,97,DL_Guitar,6,8,DL.   Stems,0.2866341471672058,0
52,100,0.4,805,1,97,DL_Guitar,6,6,DL.   Stems,0.31013765931129456,0
52,100,0.3181818181818182,153,1,98,DL_Guitar,6,5,DL.   Stems,0.9998593330383301,1
54,100,0.22272727272727272,475,1,98,DL_Guitar,6,4,DL.   Stems,0.31692928075790405,0
61,100,0.2409090909090909,650,0,98,DL_Guitar,6,4,DL.   Stems,0.28441518545150757,0
63,100,0.35909090909090907,779,0,98,DL_Guitar,6,6,DL.   Stems,0.30239975452423096,0
56,100,0.2409090909090909,9,1,99,DL_Guitar,6,4,DL.   Stems,0.9998000264167786,1
63,100,0.1409090909090909,74,0,99,DL_Guitar,6,2,DL.   Stems,0.13013696670532227,0
59,100,0.1590909090909091,119,0,99,DL_Guitar,6,3,DL.   Stems,0.12259285151958466,0
63,100,0.5818181818181818,176,0,99,DL_Guitar,6,9,DL.   Stems,0.12727977335453033,0
63,100,0.6181818181818182,527,1,99,DL_Guitar,6,10,DL.   Stems,0.14480489492416382,0
63,100,0.41818181818181815,722,0,99,DL_Guitar,6,7,DL.   Stems,0.1510365754365921,0
52,100,0.3409090909090909,849,1,100,DL_Guitar,6,5,DL.   Stems,0.9930003881454468,0
61,100,0.3,136,1,101,DL_Guitar,6,5,DL.   Stems,0.999847412109375,1
54,100,0.23636363636363636,282,0,101,DL_Guitar,6,4,DL.   Stems,0.32556164264678955,0
54,100,0.4590909090909091,624,1,101,DL_Guitar,6,7,DL.   Stems,0.29344654083251953,0
54,100,0.5590909090909091,787,0,101,DL_Guitar,6,9,DL.   Stems,0.3131496012210846,0
54,100,0.1,153,1,102,DL_Guitar,6,2,DL.   Stems,0.9935035109519958,0
54,100,0.1409090909090909,92,1,103,DL_Guitar,6,2,DL.   Stems,0.9998353719711304,1
66,100,0.2409090909090909,307,0,103,DL_Guitar,6,4,DL.   Stems,0.19835908710956573,0
63,100,0.38181818181818183,386,0,103,DL_Guitar,6,6,DL.   Stems,0.19997833669185638,0
54,100,0.21818181818181817,527,0,103,DL_Guitar,6,3,DL.   Stems,0.2098279595375061,0
54,100,0.11818181818181818,832,1,103,DL_Guitar,6,2,DL.   Stems,0.21536928415298462,0
59,100,0.12272727272727273,267,1,104,DL_Guitar,6,2,DL.   Stems,0.9998282194137573,1
59,100,0.7227272727272728,343,0,104,DL_Guitar,6,12,DL.   Stems,0.38674357533454895,0
54,100,0.1409090909090909,550,0,104,DL_Guitar,6,2,DL.   Stems,0.4470323324203491,0
54,100,0.3,100,1,105,DL_Guitar,6,5,DL.   Stems,0.9998507499694824,1
54,100,0.2772727272727273,172,0,105,DL_Guitar,6,4,DL.   Stems,0.32568997144699097,0
66,100,0.2,487,1,105,DL_Guitar,6,3,DL.   Stems,0.29156726598739624,0
63,100,0.2818181818181818,739,1,105,DL_Guitar,6,5,DL.   Stems,0.30325642228126526,0
64,100,0.3409090909090909,110,1,106,DL_Guitar,6,5,DL.   Stems,0.9997707009315491,1
64,100,0.11818181818181818,250,0,106,DL_Guitar,6,2,DL.   Stems,0.08408595621585846,0
64,100,0.11818181818181818,303,0,106,DL_Guitar,6,2,DL.   Stems,0.07241754233837128,0
64,100,0.12272727272727273,365,0,106,DL_Guitar,6,2,DL.   Stems,0.08064913004636765,0
66,100,0.1,567,0,106,DL_Guitar,6,2,DL.   Stems,0.08686736226081848,0
66,100,0.4,593,0,106,DL_Guitar,6,6,DL.   Stems,0.08805425465106964,0
66,100,0.1409090909090909,747,0,106,DL_Guitar,6,2,DL.   Stems,0.08853521198034286,0
66,100,0.1,330,1,107,DL_Guitar,6,2,DL.   Stems,0.9998594522476196,1
64,100,0.2818181818181818,386,0,107,DL_Guitar,6,5,DL.   Stems,0.32021674513816833,0
63,100,0.1,633,1,107,DL_Guitar,6,2,DL.   Stems,0.2838498055934906,0
54,100,0.4818181818181818,760,0,107,DL_Guitar,6,8,DL.   Stems,0.29988089203834534,0
54,100,0.12272727272727273,3,1,108,DL_Guitar,6,2,DL.   Stems,0.9998352527618408,1
54,100,0.759090909090909,123,0,108,DL_Guitar,6,12,DL.   Stems,0.18926239013671875,0
64,100,0.2409090909090909,726,1,108,DL_Guitar,6,4,DL.   Stems,0.21811529994010925,0
64,100,0.1409090909090909,792,0,108,DL_Guitar,6,2,DL.   Stems,0.2100471556186676,0
66,100,0.13636363636363635,832,0,108,DL_Guitar,6,2,DL.   Stems,0.20149558782577515,0
66,100,0.11818181818181818,216,1,109,DL_Guitar,6,2,DL.   Stems,0.9997668862342834,1
56,100,0.4,316,0,109,DL_Guitar,6,6,DL.   Stems,0.07683657854795456,0
66,100,0.2,449,0,109,DL_Guitar,6,3,DL.   Stems,0.07394734025001526,0
66,100,0.18181818181818182,509,0,109,DL_Guitar,6,3,DL.   Stems,0.08142358064651489,0
63,100,0.3181818181818182,593,0,109,DL_Guitar,6,5,DL.   Stems,0.0836210697889328,0
63,100,0.13636363636363635,677,0,109,DL_Guitar,6,2,DL.   Stems,0.10390902310609818,0
54,100,0.11818181818181818,770,0,109,DL_Guitar,6,2,DL.   Stems,0.09001719206571579,0
63,100,0.1409090909090909,87,1,110,DL_Guitar,6,2,DL.   Stems,0.9998018145561218,1
63,100,0.18181818181818182,153,0,110,DL_Guitar,6,3,DL.   Stems,0.1283046156167984,0
54,100,0.12272727272727273,320,0,110,DL_Guitar,6,2,DL.   Stems,0.12343423068523407,0
63,100,0.1409090909090909,383,0,110,DL_Guitar,6,2,DL.   Stems,0.13046056032180786,0
59,100,0.1590909090909091,563,0,110,DL_Guitar,6,3,DL.   Stems,0.14584359526634216,0
63,100,0.12272727272727273,752,0,110,DL_Guitar,6,2,DL.   Stems,0.13841009140014648,0
54,100,0.2590909090909091,83,1,111,DL_Guitar,6,4,DL.   Stems,0.9998416900634766,1
54,100,0.5590909090909091,220,0,111,DL_Guitar,6,9,DL.   Stems,0.312404602766037,0
61,100,0.38181818181818183,475,1,111,DL_Guitar,6,6,DL.   Stems,0.3006387948989868,0
54,100,0.18181818181818182,637,0,111,DL_Guitar,6,3,DL.   Stems,0.31473666429519653,0
66,100,0.1409090909090909,140,1,112,DL_Guitar,6,2,DL.   Stems,0.9998296499252319,1
66,100,0.1,282,0,112,DL_Guitar,6,2,DL.   Stems,0.4110919237136841,0
54,100,0.32272727272727275,422,0,112,DL_Guitar,6,5,DL.   Stems,0.42389529943466187,0
54,100,0.18181818181818182,255,1,113,DL_Guitar,6,3,DL.   Stems,0.9998058676719666,1
54,100,0.18181818181818182,299,0,113,DL_Guitar,6,3,DL.   Stems,0.12753421068191528,0
66,100,0.21818181818181817,352,0,113,DL_Guitar,6,3,DL.   Stems,0.11903783679008484,0
54,100,0.22272727272727272,409,0,113,DL_Guitar,6,4,DL.   Stems,0.13458354771137238,0
66,100,0.11818181818181818,457,0,113,DL_Guitar,6,2,DL.   Stems,0.1425572633743286,0
59,100,0.12272727272727273,496,0,113,DL_Guitar,6,2,DL.   Stems,0.13176435232162476,0
59,100,0.1409090909090909,686,1,0,DL_warmFolk_Guitar,6,2,omokagewarmfolk,0.9933699369430542,0
67,100,0.18181818181818182,0,1,1,DL_warmFolk_Guitar,6,3,omokagewarmfolk,0.9998217225074768,1
57,100,0.22272727272727272,554,1,1,DL_warmFolk_Guitar,6,4,omokagewarmfolk,0.4178110361099243,0
56,100,0.1409090909090909,603,0,1,DL_warmFolk_Guitar,6,2,omokagewarmfolk,0.4330807626247406,0
59,100,0.18181818181818182,672,1,2,DL_warmFolk_Guitar,6,3,omokagewarmfolk,0.9932764768600464,0
55,100,0.35909090909090907,198,1,3,DL_warmFolk_Guitar,6,6,omokagewarmfolk,0.9998493194580078,1
61,100,0.1590909090909091,739,1,3,DL_warmFolk_Guitar,6,3,omokagewarmfolk,0.331523597240448,0
57,100,0.2590909090909091,782,0,3,DL_warmFolk_Guitar,6,4,omokagewarmfolk,0.28104034066200256,0
56,100,0.18181818181818182,840,0,3,DL_warmFolk_Guitar,6,3,omokagewarmfolk,0.31546351313591003,0
64,100,0.22272727272727272,532,1,4,DL_warmFolk_Guitar,6,4,omokagewarmfolk,0.9996390342712402,1
57,100,0.17727272727272728,655,0,4,DL_warmFolk_Guitar,6,3,omokagewarmfolk,0.5437617301940918,0
57,100,0.1,114,1,5,DL_warmFolk_Guitar,6,2,omokagewarmfolk,0.999853253364563,1
55,100,0.1590909090909091,145,0,5,DL_warmFolk_Guitar,6,3,omokagewarmfolk,0.31594759225845337,0
59,100,0.32272727272727275,268,0,5,DL_warmFolk_Guitar,6,5,omokagewarmfolk,0.28980693221092224,0
55,100,0.2,435,0,5,DL_warmFolk_Guitar,6,3,omokagewarmfolk,0.31093332171440125,0
57,100,0.2636363636363636,135,1,6,DL_warmFolk_Guitar,6,4,omokagewarmfolk,0.9996151924133301,1
56,100,0.2,201,0,6,DL_warmFolk_Guitar,6,3,omokagewarmfolk,0.5577578544616699,0
54,100,0.5409090909090909,255,1,7,DL_warmFolk_Guitar,6,9,omokagewarmfolk,0.9995920062065125,1
59,100,0.3,506,1,7,DL_warmFolk_Guitar,6,5,omokagewarmfolk,0.5577577948570251,0
57,100,0.2818181818181818,378,1,8,DL_warmFolk_Guitar,6,5,omokagewarmfolk,0.9998292922973633,1
56,100,0.2,440,0,8,DL_warmFolk_Guitar,6,3,omokagewarmfolk,0.41978543996810913,0
54,100,0.1409090909090909,615,0,8,DL_warmFolk_Guitar,6,2,omokagewarmfolk,0.4268384873867035,0
62,100,0.22272727272727272,312,1,9,DL_warmFolk_Guitar,6,4,omokagewarmfolk,0.9998061060905457,1
57,100,0.8772727272727273,369,0,9,DL_warmFolk_Guitar,6,14,omokagewarmfolk,0.11197272688150406,0
57,100,0.1,572,0,9,DL_warmFolk_Guitar,6,2,omokagewarmfolk,0.13244715332984924,0
55,100,0.1,615,0,9,DL_warmFolk_Guitar,6,2,omokagewarmfolk,0.13572309911251068,0
59,100,0.2772727272727273,735,0,9,DL_warmFolk_Guitar,6,4,omokagewarmfolk,0.14405637979507446,0
62,100,0.2,809,0,9,DL_warmFolk_Guitar,6,3,omokagewarmfolk,0.13470979034900665,0
55,100,0.21818181818181817,30,1,10,DL_warmFolk_Guitar,6,3,omokagewarmfolk,0.9998459815979004,1
55,100,0.23636363636363636,106,0,10,DL_warmFolk_Guitar,6,4,omokagewarmfolk,0.3228681683540344,0
57,100,0.2,527,1,10,DL_warmFolk_Guitar,6,3,omokagewarmfolk,0.28624993562698364,0
61,100,0.1,694,0,10,DL_warmFolk_Guitar,6,2,omokagewarmfolk,0.32059237360954285,0
62,100,0.11818181818181818,615,1,12,DL_warmFolk_Guitar,6,2,omokagewarmfolk,0.9998573064804077,1
57,100,0.1409090909090909,730,0,12,DL_warmFolk_Guitar,6,2,omokagewarmfolk,0.30172833800315857,0
59,100,0.21818181818181817,787,0,12,DL_warmFolk_Guitar,6,3,omokagewarmfolk,0.296828031539917,0
62,100,0.1409090909090909,845,0,12,DL_warmFolk_Guitar,6,2,omokagewarmfolk,0.3106256425380707,0
57,100,0.2818181818181818,268,1,13,DL_warmFolk_Guitar,6,5,omokagewarmfolk,0.9998445510864258,1
57,100,0.13636363636363635,414,0,13,DL_warmFolk_Guitar,6,2,omokagewarmfolk,0.3324778378009796,0
59,100,0.2409090909090909,581,0,13,DL_warmFolk_Guitar,6,4,omokagewarmfolk,0.29188796877861023,0
61,100,0.2409090909090909,835,1,13,DL_warmFolk_Guitar,6,4,omokagewarmfolk,0.3097766637802124,0
57,100,0.2,25,1,14,DL_warmFolk_Guitar,6,3,omokagewarmfolk,0.9998509883880615,1
52,100,0.11818181818181818,87,0,14,DL_warmFolk_Guitar,6,2,omokagewarmfolk,0.33812931180000305,0
62,100,0.22272727272727272,386,1,14,DL_warmFolk_Guitar,6,4,omokagewarmfolk,0.2901574373245239,0
55,100,0.1,527,0,14,DL_warmFolk_Guitar,6,2,omokagewarmfolk,0.294223427772522,0
57,100,0.5590909090909091,519,1,80,DL_warmFolk_Guitar,6,9,omokagewarmfolk,0.9998065829277039,1
62,100,0.5590909090909091,646,0,80,DL_warmFolk_Guitar,6,9,omokagewarmfolk,0.42933639883995056,0
64,100,0.2590909090909091,770,0,80,DL_warmFolk_Guitar,6,4,omokagewarmfolk,0.4445250928401947,0
69,100,0.1,17,1,81,DL_warmFolk_Guitar,6,2,omokagewarmfolk,0.9997989535331726,1
71,100,0.6590909090909091,53,0,81,DL_warmFolk_Guitar,6,11,omokagewarmfolk,0.11609303951263428,0
74,100,0.3181818181818182,206,0,81,DL_warmFolk_Guitar,6,5,omokagewarmfolk,0.13385015726089478,0
71,100,1.2181818181818183,370,0,81,DL_warmFolk_Guitar,6,15,omokagewarmfolk,0.12607447803020477,0
69,100,0.5,642,1,81,DL_warmFolk_Guitar,6,8,omokagewarmfolk,0.1687806099653244,0
69,100,0.5772727272727273,756,0,81,DL_warmFolk_Guitar,6,9,omokagewarmfolk,0.14660978317260742,0
67,100,0.5590909090909091,9,1,82,DL_warmFolk_Guitar,6,9,omokagewarmfolk,0.9998095631599426,1
66,100,0.740909090909091,132,0,82,DL_warmFolk_Guitar,6,12,omokagewarmfolk,0.22707553207874298,0
69,100,0.5590909090909091,316,0,82,DL_warmFolk_Guitar,6,9,omokagewarmfolk,0.21562139689922333,0
69,100,0.17727272727272728,457,0,82,DL_warmFolk_Guitar,6,3,omokagewarmfolk,0.23947876691818237,0
62,100,2.9,502,0,82,DL_warmFolk_Guitar,6,15,omokagewarmfolk,0.19457629323005676,0
74,100,0.2772727272727273,260,1,83,DL_warmFolk_Guitar,6,4,omokagewarmfolk,0.9997590184211731,1
62,100,0.4818181818181818,320,0,83,DL_warmFolk_Guitar,6,8,omokagewarmfolk,0.08063586801290512,0
74,100,0.3409090909090909,426,0,83,DL_warmFolk_Guitar,6,5,omokagewarmfolk,0.07804130762815475,0
76,100,0.1,502,0,83,DL_warmFolk_Guitar,6,2,omokagewarmfolk,0.08412043750286102,0
74,100,0.4,527,0,83,DL_warmFolk_Guitar,6,6,omokagewarmfolk,0.08658914268016815,0
78,100,1.018181818181818,624,0,83,DL_warmFolk_Guitar,6,15,omokagewarmfolk,0.09325792640447617,0
74,100,0.5181818181818182,876,1,83,DL_warmFolk_Guitar,6,8,omokagewarmfolk,0.09948170930147171,0
76,100,0.5818181818181818,113,1,84,DL_warmFolk_Guitar,6,9,omokagewarmfolk,0.9997643828392029,1
73,100,0.5409090909090909,242,0,84,DL_warmFolk_Guitar,6,9,omokagewarmfolk,0.07837262004613876,0
78,100,0.8227272727272728,365,0,84,DL_warmFolk_Guitar,6,13,omokagewarmfolk,0.07640395313501358,0
74,100,0.1,550,0,84,DL_warmFolk_Guitar,6,2,omokagewarmfolk,0.09520880877971649,0
76,100,0.35909090909090907,572,0,84,DL_warmFolk_Guitar,6,6,omokagewarmfolk,0.09644660353660583,0
78,100,0.1590909090909091,690,0,84,DL_warmFolk_Guitar,6,3,omokagewarmfolk,0.10314717143774033,0
74,100,2.8181818181818183,734,0,84,DL_warmFolk_Guitar,6,15,omokagewarmfolk,0.08004043996334076,0
78,100,0.5590909090909091,527,1,85,DL_warmFolk_Guitar,6,9,omokagewarmfolk,0.9998281002044678,1
57,100,0.5409090909090909,713,0,85,DL_warmFolk_Guitar,6,9,omokagewarmfolk,0.33886003494262695,0
69,100,0.11818181818181818,832,0,85,DL_warmFolk_Guitar,6,2,omokagewarmfolk,0.3065528869628906,0
74,100,0.38181818181818183,870,0,85,DL_warmFolk_Guitar,6,6,omokagewarmfolk,0.3116653859615326,0
76,100,0.1590909090909091,96,1,86,DL_warmFolk_Guitar,6,3,omokagewarmfolk,0.9997156262397766,1
57,100,0.38181818181818183,132,0,86,DL_warmFolk_Guitar,6,6,omokagewarmfolk,0.04054993763566017,0
69,100,0.6,216,0,86,DL_warmFolk_Guitar,6,10,omokagewarmfolk,0.032453861087560654,0
74,100,0.5,352,0,86,DL_warmFolk_Guitar,6,8,omokagewarmfolk,0.03253605589270592,0
76,100,0.18181818181818182,466,0,86,DL_warmFolk_Guitar,6,3,omokagewarmfolk,0.03399668633937836,0
78,100,0.3,514,0,86,DL_warmFolk_Guitar,6,5,omokagewarmfolk,0.03295332193374634,0
76,100,0.9,590,0,86,DL_warmFolk_Guitar,6,14,omokagewarmfolk,0.04032157361507416,0
81,100,0.3181818181818182,792,0,86,DL_warmFolk_Guitar,6,5,omokagewarmfolk,0.04984358698129654,0
57,100,0.4409090909090909,862,0,86,DL_warmFolk_Guitar,6,7,omokagewarmfolk,0.048042453825473785,0
74,100,1.1409090909090909,87,1,87,DL_warmFolk_Guitar,6,15,omokagewarmfolk,0.9997643828392029,1
66,100,0.2818181818181818,343,1,87,DL_warmFolk_Guitar,6,5,omokagewarmfolk,0.1486612856388092,0
66,100,0.7772727272727272,470,0,87,DL_warmFolk_Guitar,6,12,omokagewarmfolk,0.11927783489227295,0
66,100,0.12272727272727273,695,0,87,DL_warmFolk_Guitar,6,2,omokagewarmfolk,0.15537969768047333,0
62,100,0.43636363636363634,722,0,87,DL_warmFolk_Guitar,6,7,omokagewarmfolk,0.14942917227745056,0
64,100,0.740909090909091,836,0,87,DL_warmFolk_Guitar,6,12,omokagewarmfolk,0.1349674016237259,0
66,100,0.6,132,1,88,DL_warmFolk_Guitar,6,10,omokagewarmfolk,0.9997909665107727,1
61,100,0.5590909090909091,299,0,88,DL_warmFolk_Guitar,6,9,omokagewarmfolk,0.1344485878944397,0
62,100,0.32272727272727275,453,0,88,DL_warmFolk_Guitar,6,5,omokagewarmfolk,0.13360515236854553,0
62,100,0.1590909090909091,536,0,88,DL_warmFolk_Guitar,6,3,omokagewarmfolk,0.1477643847465515,0
61,100,0.5590909090909091,572,0,88,DL_warmFolk_Guitar,6,9,omokagewarmfolk,0.14689555764198303,0
62,100,2.459090909090909,700,0,88,DL_warmFolk_Guitar,6,15,omokagewarmfolk,0.12743408977985382,0
60,100,0.18181818181818182,378,1,0,DL_Remix_Guitar,6,3,katyan_taturo,0.9998384714126587,1
55,100,0.37727272727272726,546,0,0,DL_Remix_Guitar,6,6,katyan_taturo,0.38788944482803345,0
55,100,0.3409090909090909,796,1,0,DL_Remix_Guitar,6,5,katyan_taturo,0.4301172196865082,0
52,100,0.1,267,1,1,DL_Remix_Guitar,6,2,katyan_taturo,0.9998165965080261,1
53,100,0.18181818181818182,290,0,1,DL_Remix_Guitar,6,3,katyan_taturo,0.12030618637800217,0
60,100,0.1,360,0,1,DL_Remix_Guitar,6,2,katyan_taturo,0.11943334341049194,0
60,100,0.11818181818181818,405,0,1,DL_Remix_Guitar,6,2,katyan_taturo,0.13363732397556305,0
60,100,0.2636363636363636,487,0,1,DL_Remix_Guitar,6,4,katyan_taturo,0.13402223587036133,0
60,100,0.1590909090909091,700,0,1,DL_Remix_Guitar,6,3,katyan_taturo,0.1276906281709671,0
62,100,0.4409090909090909,34,1,2,DL_Remix_Guitar,6,7,katyan_taturo,0.9997969269752502,1
55,100,0.2772727272727273,281,1,2,DL_Remix_Guitar,6,4,katyan_taturo,0.12784132361412048,0
62,100,0.18181818181818182,421,0,2,DL_Remix_Guitar,6,3,katyan_taturo,0.12946775555610657,0
62,100,0.2818181818181818,528,0,2,DL_Remix_Guitar,6,5,katyan_taturo,0.13526202738285065,0
62,100,0.11818181818181818,611,0,2,DL_Remix_Guitar,6,2,katyan_taturo,0.1457633078098297,0
62,100,0.5227272727272727,642,0,2,DL_Remix_Guitar,6,8,katyan_taturo,0.13363683223724365,0
61,100,0.1590909090909091,83,1,3,DL_Remix_Guitar,6,3,katyan_taturo,0.9997617602348328,1
61,100,0.18181818181818182,122,0,3,DL_Remix_Guitar,6,3,katyan_taturo,0.08011452108621597,0
61,100,0.2818181818181818,254,0,3,DL_Remix_Guitar,6,5,katyan_taturo,0.07228075712919235,0
57,100,0.37727272727272726,427,0,3,DL_Remix_Guitar,6,6,katyan_taturo,0.07624245434999466,0
57,100,0.32272727272727275,607,0,3,DL_Remix_Guitar,6,5,katyan_taturo,0.09154896438121796,0
60,100,0.2,694,0,3,DL_Remix_Guitar,6,3,katyan_taturo,0.10627356916666031,0
57,100,0.38181818181818183,836,0,3,DL_Remix_Guitar,6,6,katyan_taturo,0.08525709807872772,0
57,100,0.22272727272727272,48,1,4,DL_Remix_Guitar,6,4,katyan_taturo,0.9997977614402771,1
62,100,0.6772727272727272,260,0,4,DL_Remix_Guitar,6,11,katyan_taturo,0.11785826086997986,0
59,100,0.2818181818181818,465,0,4,DL_Remix_Guitar,6,5,katyan_taturo,0.13223430514335632,0
60,100,0.1,527,0,4,DL_Remix_Guitar,6,2,katyan_taturo,0.13756906986236572,0
60,100,0.18181818181818182,575,0,4,DL_Remix_Guitar,6,3,katyan_taturo,0.14301644265651703,0
60,100,0.5772727272727273,765,0,4,DL_Remix_Guitar,6,9,katyan_taturo,0.13797225058078766,0
53,100,0.1,444,1,5,DL_Remix_Guitar,6,2,katyan_taturo,0.9998352527618408,1
55,100,0.2590909090909091,545,0,5,DL_Remix_Guitar,6,4,katyan_taturo,0.39388102293014526,0
60,100,0.2590909090909091,849,1,5,DL_Remix_Guitar,6,4,katyan_taturo,0.4305916428565979,0
57,100,0.4,150,1,6,DL_Remix_Guitar,6,6,katyan_taturo,0.9997947812080383,1
60,100,0.11818181818181818,360,0,6,DL_Remix_Guitar,6,2,katyan_taturo,0.1366211175918579,0
56,100,0.2409090909090909,399,0,6,DL_Remix_Guitar,6,4,katyan_taturo,0.11819684505462646,0
60,100,0.1,458,0,6,DL_Remix_Guitar,6,2,katyan_taturo,0.13767144083976746,0
57,100,0.18181818181818182,708,1,6,DL_Remix_Guitar,6,3,katyan_taturo,0.13897836208343506,0
52,100,0.36363636363636365,795,0,6,DL_Remix_Guitar,6,6,katyan_taturo,0.13181853294372559,0
52,100,0.42272727272727273,4,1,7,DL_Remix_Guitar,6,7,katyan_taturo,0.9998210072517395,1
55,100,0.3,726,1,7,DL_Remix_Guitar,6,5,katyan_taturo,0.4121020436286926,0
57,100,0.11818181818181818,836,0,7,DL_Remix_Guitar,6,2,katyan_taturo,0.4333856701850891,0
57,100,0.4590909090909091,84,1,8,DL_Remix_Guitar,6,7,katyan_taturo,0.9997897744178772,1
57,100,0.21818181818181817,338,1,8,DL_Remix_Guitar,6,3,katyan_taturo,0.13509023189544678,0
57,100,0.18181818181818182,400,0,8,DL_Remix_Guitar,6,3,katyan_taturo,0.12187075614929199,0
57,100,0.1409090909090909,462,0,8,DL_Remix_Guitar,6,2,katyan_taturo,0.13699544966220856,0
57,100,0.6818181818181818,563,0,8,DL_Remix_Guitar,6,11,katyan_taturo,0.12956400215625763,0
56,100,0.12272727272727273,761,0,8,DL_Remix_Guitar,6,2,katyan_taturo,0.14847716689109802,0
60,100,0.1409090909090909,56,1,9,DL_Remix_Guitar,6,2,katyan_taturo,0.9998619556427002,1
55,100,0.1,211,0,9,DL_Remix_Guitar,6,2,katyan_taturo,0.2994927167892456,0
55,100,0.1409090909090909,426,0,9,DL_Remix_Guitar,6,2,katyan_taturo,0.2958948612213135,0
53,100,0.3,804,1,9,DL_Remix_Guitar,6,5,katyan_taturo,0.30121278762817383,0
53,100,0.16363636363636364,48,1,10,DL_Remix_Guitar,6,3,katyan_taturo,0.9998378753662109,1
53,100,0.12272727272727273,101,0,10,DL_Remix_Guitar,6,2,katyan_taturo,0.41218775510787964,0
58,100,0.2409090909090909,756,1,10,DL_Remix_Guitar,6,4,katyan_taturo,0.41698184609413147,0
53,100,0.3,668,1,11,DL_Remix_Guitar,6,5,katyan_taturo,0.9998297691345215,1
53,100,0.16363636363636364,752,0,11,DL_Remix_Guitar,6,3,katyan_taturo,0.421927273273468,0
53,100,0.4,826,0,11,DL_Remix_Guitar,6,6,katyan_taturo,0.4182157814502716,0
60,100,0.1590909090909091,61,1,12,DL_Remix_Guitar,6,3,katyan_taturo,0.9997749924659729,1
53,100,0.21818181818181817,96,0,12,DL_Remix_Guitar,6,3,katyan_taturo,0.07763289660215378,0
53,100,0.2,163,0,12,DL_Remix_Guitar,6,3,katyan_taturo,0.07203364372253418,0
52,100,0.3181818181818182,316,0,12,DL_Remix_Guitar,6,5,katyan_taturo,0.07861781865358353,0
52,100,0.2,493,0,12,DL_Remix_Guitar,6,3,katyan_taturo,0.08864250779151917,0
52,100,0.2409090909090909,625,0,12,DL_Remix_Guitar,6,4,katyan_taturo,0.09307306259870529,0
52,100,0.3,685,0,12,DL_Remix_Guitar,6,5,katyan_taturo,0.08270131051540375,0
52,100,0.3,44,1,13,DL_Remix_Guitar,6,5,katyan_taturo,0.9998120665550232,1
52,100,0.1409090909090909,132,0,13,DL_Remix_Guitar,6,2,katyan_taturo,0.13140340149402618,0
52,100,0.22272727272727272,180,0,13,DL_Remix_Guitar,6,4,katyan_taturo,0.12071578949689865,0
57,100,0.18181818181818182,355,0,13,DL_Remix_Guitar,6,3,katyan_taturo,0.12896879017353058,0
57,100,0.1,519,0,13,DL_Remix_Guitar,6,2,katyan_taturo,0.14522556960582733,0
57,100,0.740909090909091,801,1,13,DL_Remix_Guitar,6,12,katyan_taturo,0.12345309555530548,0
57,100,0.8818181818181818,123,1,14,DL_Remix_Guitar,6,14,katyan_taturo,0.9998180270195007,1
74,100,0.5227272727272727,321,0,14,DL_Remix_Guitar,6,8,katyan_taturo,0.3639299273490906,0
74,100,0.12272727272727273,510,0,14,DL_Remix_Guitar,6,2,katyan_taturo,0.3123888373374939,0
52,100,0.5590909090909091,611,0,14,DL_Remix_Guitar,6,9,katyan_taturo,0.30521368980407715,0
52,100,0.18181818181818182,25,1,15,DL_Remix_Guitar,6,3,katyan_taturo,0.99983811378479,1
52,100,0.5,233,0,15,DL_Remix_Guitar,6,8,katyan_taturo,0.39689305424690247,0
52,100,0.2772727272727273,347,0,15,DL_Remix_Guitar,6,4,katyan_taturo,0.42938128113746643,0
53,100,0.21818181818181817,440,1,16,DL_Remix_Guitar,6,3,katyan_taturo,0.9933866858482361,0
58,100,0.2,343,1,17,DL_Remix_Guitar,6,3,katyan_taturo,0.9998108744621277,1
55,100,0.2409090909090909,519,0,17,DL_Remix_Guitar,6,4,katyan_taturo,0.42470815777778625,0
57,100,0.3,669,0,17,DL_Remix_Guitar,6,5,katyan_taturo,0.43142130970954895,0
53,100,0.2,17,1,18,DL_Remix_Guitar,6,3,katyan_taturo,0.9998356103897095,1
53,100,0.4636363636363636,488,1,18,DL_Remix_Guitar,6,7,katyan_taturo,0.40106508135795593,0
53,100,0.16363636363636364,619,0,18,DL_Remix_Guitar,6,3,katyan_taturo,0.4291185140609741,0
52,100,0.2772727272727273,229,1,19,DL_Remix_Guitar,6,4,katyan_taturo,0.9998459815979004,1
52,100,0.12272727272727273,364,0,19,DL_Remix_Guitar,6,2,katyan_taturo,0.2099638432264328,0
59,100,0.12272727272727273,488,0,19,DL_Remix_Guitar,6,2,katyan_taturo,0.19276972115039825,0
52,100,0.4,590,0,19,DL_Remix_Guitar,6,6,katyan_taturo,0.20068864524364471,0
52,100,0.32272727272727275,708,0,19,DL_Remix_Guitar,6,5,katyan_taturo,0.19895656406879425,0
55,100,0.11818181818181818,559,1,20,DL_Remix_Guitar,6,2,katyan_taturo,0.9996193647384644,1
55,100,0.17727272727272728,810,1,20,DL_Remix_Guitar,6,3,katyan_taturo,0.5509324669837952,0
56,100,0.2,656,1,21,DL_Remix_Guitar,6,3,katyan_taturo,0.9996457099914551,1
62,100,0.1409090909090909,773,0,21,DL_Remix_Guitar,6,2,katyan_taturo,0.5479253530502319,0
57,100,0.16363636363636364,422,1,22,DL_Remix_Guitar,6,3,katyan_taturo,0.999850869178772,1
57,100,0.22272727272727272,497,0,22,DL_Remix_Guitar,6,4,katyan_taturo,0.3263954520225525,0
57,100,0.1,756,1,22,DL_Remix_Guitar,6,2,katyan_taturo,0.29786595702171326,0
57,100,0.11818181818181818,876,0,22,DL_Remix_Guitar,6,2,katyan_taturo,0.3031699061393738,0
65,100,0.23636363636363636,766,1,23,DL_Remix_Guitar,6,4,katyan_taturo,0.9996389150619507,1
65,100,0.18181818181818182,827,0,23,DL_Remix_Guitar,6,3,katyan_taturo,0.5440689921379089,0
57,100,0.4409090909090909,65,1,24,DL_Remix_Guitar,6,7,katyan_taturo,0.9998176693916321,1
55,100,0.2818181818181818,532,1,24,DL_Remix_Guitar,6,5,katyan_taturo,0.40896713733673096,0
53,100,0.22272727272727272,796,1,24,DL_Remix_Guitar,6,4,katyan_taturo,0.4390697181224823,0
55,100,0.12272727272727273,26,1,25,DL_Remix_Guitar,6,2,katyan_taturo,0.9998291730880737,1
55,100,0.5,150,0,25,DL_Remix_Guitar,6,8,katyan_taturo,0.2062806636095047,0
53,100,0.12272727272727273,378,0,25,DL_Remix_Guitar,6,2,katyan_taturo,0.2188737690448761,0
55,100,0.3,611,1,25,DL_Remix_Guitar,6,5,katyan_taturo,0.20352214574813843,0
55,100,0.43636363636363634,831,0,25,DL_Remix_Guitar,6,7,katyan_taturo,0.20466838777065277,0
60,100,0.18181818181818182,351,1,26,DL_Remix_Guitar,6,3,katyan_taturo,0.9998425245285034,1
53,100,0.1590909090909091,602,1,26,DL_Remix_Guitar,6,3,katyan_taturo,0.21075527369976044,0
57,100,0.16363636363636364,663,0,26,DL_Remix_Guitar,6,3,katyan_taturo,0.19964325428009033,0
57,100,0.5409090909090909,708,0,26,DL_Remix_Guitar,6,9,katyan_taturo,0.20392896234989166,0
57,100,0.759090909090909,858,0,26,DL_Remix_Guitar,6,12,katyan_taturo,0.20053495466709137,0
57,100,0.12272727272727273,223,1,27,DL_Remix_Guitar,6,2,katyan_taturo,0.9998528957366943,1
57,100,0.4818181818181818,285,0,27,DL_Remix_Guitar,6,8,katyan_taturo,0.2927577793598175,0
53,100,0.1409090909090909,453,0,27,DL_Remix_Guitar,6,2,katyan_taturo,0.3134154677391052,0
57,100,0.11818181818181818,581,0,27,DL_Remix_Guitar,6,2,katyan_taturo,0.30477890372276306,0
81,100,0.11818181818181818,295,1,28,DL_Remix_Guitar,6,2,katyan_taturo,0.9998348951339722,1
53,100,0.21818181818181817,581,1,28,DL_Remix_Guitar,6,3,katyan_taturo,0.2071487158536911,0
53,100,0.22272727272727272,663,0,28,DL_Remix_Guitar,6,4,katyan_taturo,0.19715595245361328,0
52,100,0.23636363636363636,787,0,28,DL_Remix_Guitar,6,4,katyan_taturo,0.2054828554391861,0
52,100,0.23636363636363636,876,0,28,DL_Remix_Guitar,6,4,katyan_taturo,0.20104828476905823,0
52,100,0.2,189,1,29,DL_Remix_Guitar,6,3,katyan_taturo,0.9998420476913452,1
59,100,0.11818181818181818,405,0,29,DL_Remix_Guitar,6,2,katyan_taturo,0.40623798966407776,0
62,100,0.1590909090909091,461,0,29,DL_Remix_Guitar,6,3,katyan_taturo,0.42058321833610535,0
53,100,0.5590909090909091,611,1,44,DL_Remix_Guitar,6,9,katyan_taturo,0.9925633072853088,0
55,100,0.1590909090909091,131,1,46,DL_Remix_Guitar,6,3,katyan_taturo,0.9998470544815063,1
55,100,0.3181818181818182,338,0,46,DL_Remix_Guitar,6,5,katyan_taturo,0.31860876083374023,0
57,100,0.8409090909090909,440,0,46,DL_Remix_Guitar,6,13,katyan_taturo,0.2779165506362915,0
60,100,0.11818181818181818,668,0,46,DL_Remix_Guitar,6,2,katyan_taturo,0.3360517919063568,0
52,100,0.13636363636363635,18,1,47,DL_Remix_Guitar,6,2,katyan_taturo,0.9996572732925415,1
60,100,0.11818181818181818,370,1,47,DL_Remix_Guitar,6,2,katyan_taturo,0.5467734932899475,0
62,100,0.1409090909090909,298,1,48,DL_Remix_Guitar,6,2,katyan_taturo,0.9998390674591064,1
52,100,0.1409090909090909,378,0,48,DL_Remix_Guitar,6,2,katyan_taturo,0.41792982816696167,0
57,100,0.8818181818181818,616,1,48,DL_Remix_Guitar,6,14,katyan_taturo,0.4001503586769104,0
62,100,0.18181818181818182,576,1,49,DL_Remix_Guitar,6,3,katyan_taturo,0.9996488094329834,1
53,100,0.18181818181818182,638,0,49,DL_Remix_Guitar,6,3,katyan_taturo,0.5504041314125061,0
59,100,0.1590909090909091,541,1,50,DL_Remix_Guitar,6,3,katyan_taturo,0.9929665327072144,0
57,100,0.21818181818181817,506,1,51,DL_Remix_Guitar,6,3,katyan_taturo,0.9996316432952881,1
57,100,0.12272727272727273,716,0,51,DL_Remix_Guitar,6,2,katyan_taturo,0.5510901212692261,0
59,100,0.2,738,1,52,DL_Remix_Guitar,6,3,katyan_taturo,0.9932316541671753,0
57,100,0.4636363636363636,311,1,53,DL_Remix_Guitar,6,7,katyan_taturo,0.9998074173927307,1
57,100,0.4,673,1,53,DL_Remix_Guitar,6,6,katyan_taturo,0.42066049575805664,0
57,100,0.17727272727272728,765,0,53,DL_Remix_Guitar,6,3,katyan_taturo,0.44089382886886597,0
64,100,0.37727272727272726,193,1,54,DL_Remix_Guitar,6,6,katyan_taturo,0.9931720495223999,0
67,100,0.5636363636363636,69,1,55,DL_Remix_Guitar,6,9,katyan_taturo,0.9997743964195251,1
55,100,0.1409090909090909,206,0,55,DL_Remix_Guitar,6,2,katyan_taturo,0.14193429052829742,0
57,100,0.8,276,0,55,DL_Remix_Guitar,6,13,katyan_taturo,0.1133614331483841,0
57,100,0.11818181818181818,458,0,55,DL_Remix_Guitar,6,2,katyan_taturo,0.15300500392913818,0
53,100,1.1181818181818182,568,0,55,DL_Remix_Guitar,6,15,katyan_taturo,0.13971757888793945,0
57,100,0.2590909090909091,848,1,55,DL_Remix_Guitar,6,4,katyan_taturo,0.15397070348262787,0
57,100,0.3,171,1,56,DL_Remix_Guitar,6,5,katyan_taturo,0.9998292922973633,1
52,100,0.1409090909090909,295,0,56,DL_Remix_Guitar,6,2,katyan_taturo,0.2237234115600586,0
52,100,0.4409090909090909,405,0,56,DL_Remix_Guitar,6,7,katyan_taturo,0.1974593549966812,0
52,100,0.7,628,0,56,DL_Remix_Guitar,6,11,katyan_taturo,0.19616873562335968,0
52,100,0.2409090909090909,836,0,56,DL_Remix_Guitar,6,4,katyan_taturo,0.20979610085487366,0
52,100,0.36363636363636365,224,1,57,DL_Remix_Guitar,6,6,katyan_taturo,0.9996544122695923,1
64,100,0.2590909090909091,364,0,57,DL_Remix_Guitar,6,4,katyan_taturo,0.5472160577774048,0
53,100,0.2772727272727273,206,1,58,DL_Remix_Guitar,6,4,katyan_taturo,0.99332195520401,0
55,100,0.2409090909090909,66,1,59,DL_Remix_Guitar,6,4,katyan_taturo,0.9998537302017212,1
52,100,0.17727272727272728,568,1,59,DL_Remix_Guitar,6,3,katyan_taturo,0.3297671377658844,0
57,100,0.11818181818181818,735,0,59,DL_Remix_Guitar,6,2,katyan_taturo,0.2818945646286011,0
60,100,0.17727272727272728,875,0,59,DL_Remix_Guitar,6,3,katyan_taturo,0.30432257056236267,0
57,100,0.21818181818181817,105,1,60,DL_Remix_Guitar,6,3,katyan_taturo,0.9998317956924438,1
57,100,0.12272727272727273,179,0,60,DL_Remix_Guitar,6,2,katyan_taturo,0.2147027850151062,0
60,100,0.3,396,0,60,DL_Remix_Guitar,6,5,katyan_taturo,0.20186246931552887,0
64,100,0.13636363636363635,633,1,60,DL_Remix_Guitar,6,2,katyan_taturo,0.21812006831169128,0
57,100,1.040909090909091,716,0,60,DL_Remix_Guitar,6,15,katyan_taturo,0.18693609535694122,0
60,100,0.12272727272727273,158,1,61,DL_Remix_Guitar,6,2,katyan_taturo,0.9996148347854614,1
57,100,1.440909090909091,311,0,61,DL_Remix_Guitar,6,15,katyan_taturo,0.5166395902633667,0
57,100,0.2,584,1,62,DL_Remix_Guitar,6,3,katyan_taturo,0.9932592511177063,0
57,100,0.2409090909090909,8,1,63,DL_Remix_Guitar,6,4,katyan_taturo,0.9998302459716797,1
57,100,0.1590909090909091,273,1,63,DL_Remix_Guitar,6,3,katyan_taturo,0.2130611091852188,0
57,100,0.1590909090909091,364,0,63,DL_Remix_Guitar,6,3,katyan_taturo,0.19684730470180511,0
57,100,0.12272727272727273,453,0,63,DL_Remix_Guitar,6,2,katyan_taturo,0.20888875424861908,0
57,100,0.1409090909090909,515,0,63,DL_Remix_Guitar,6,2,katyan_taturo,0.2047712504863739,0
55,100,0.3,546,1,65,DL_Remix_Guitar,6,5,katyan_taturo,0.9927727580070496,0
52,100,0.9409090909090909,307,1,66,DL_Remix_Guitar,6,15,katyan_taturo,0.9997981190681458,1
52,100,0.2772727272727273,633,1,66,DL_Remix_Guitar,6,4,katyan_taturo,0.4604358971118927,0
52,100,0.33636363636363636,743,0,66,DL_Remix_Guitar,6,5,katyan_taturo,0.42754843831062317,0
62,100,0.5409090909090909,9,1,67,DL_Remix_Guitar,6,9,katyan_taturo,0.9998410940170288,1
59,100,0.22272727272727272,166,0,67,DL_Remix_Guitar,6,4,katyan_taturo,0.3362587094306946,0
60,100,0.2409090909090909,550,1,67,DL_Remix_Guitar,6,4,katyan_taturo,0.3015541136264801,0
57,100,0.3,813,1,67,DL_Remix_Guitar,6,5,katyan_taturo,0.30455324053764343,0
57,100,0.2,96,1,68,DL_Remix_Guitar,6,3,katyan_taturo,0.9998506307601929,1
57,100,0.12272727272727273,189,0,68,DL_Remix_Guitar,6,2,katyan_taturo,0.32524365186691284,0
57,100,0.3,470,1,68,DL_Remix_Guitar,6,5,katyan_taturo,0.28700998425483704,0
57,100,0.38181818181818183,606,0,68,DL_Remix_Guitar,6,6,katyan_taturo,0.30883777141571045,0
57,100,0.13636363636363635,347,1,69,DL_Remix_Guitar,6,2,katyan_taturo,0.9998288154602051,1
57,100,0.11818181818181818,462,0,69,DL_Remix_Guitar,6,2,katyan_taturo,0.4151438772678375,0
64,100,0.12272727272727273,540,0,69,DL_Remix_Guitar,6,2,katyan_taturo,0.4299551844596863,0
57,100,0.1590909090909091,462,1,70,DL_Remix_Guitar,6,3,katyan_taturo,0.9932246804237366,1
58,100,0.5636363636363636,157,1,71,DL_Remix_Guitar,6,9,katyan_taturo,0.9917071461677551,0
57,100,0.1590909090909091,30,1,72,DL_Remix_Guitar,6,3,katyan_taturo,0.9996278285980225,1
57,100,0.11818181818181818,150,0,72,DL_Remix_Guitar,6,2,katyan_taturo,0.5489456057548523,0
64,100,0.1,343,1,73,DL_Remix_Guitar,6,2,katyan_taturo,0.9998615980148315,1
64,100,0.4,377,0,73,DL_Remix_Guitar,6,6,katyan_taturo,0.3149491548538208,0
52,100,0.1,606,0,73,DL_Remix_Guitar,6,2,katyan_taturo,0.29445740580558777,0
57,100,0.6590909090909091,660,0,73,DL_Remix_Guitar,6,11,katyan_taturo,0.28284090757369995,0
56,100,0.2,53,1,74,DL_Remix_Guitar,6,3,katyan_taturo,0.9998272061347961,1
56,100,1.2227272727272727,100,0,74,DL_Remix_Guitar,6,15,katyan_taturo,0.18682487308979034,0
52,100,0.2409090909090909,383,1,74,DL_Remix_Guitar,6,4,katyan_taturo,0.2257949560880661,0
57,100,0.11818181818181818,483,0,74,DL_Remix_Guitar,6,2,katyan_taturo,0.21556928753852844,0
57,100,0.22272727272727272,519,0,74,DL_Remix_Guitar,6,4,katyan_taturo,0.20721134543418884,0
57,100,0.8,96,1,75,DL_Remix_Guitar,6,13,katyan_taturo,0.9998268485069275,1
57,100,0.2818181818181818,352,1,75,DL_Remix_Guitar,6,5,katyan_taturo,0.35622334480285645,0
57,100,0.2,417,0,75,DL_Remix_Guitar,6,3,katyan_taturo,0.3012290894985199,0
55,100,0.3,839,1,75,DL_Remix_Guitar,6,5,katyan_taturo,0.3085765242576599,0
62,100,0.6818181818181818,773,1,76,DL_Remix_Guitar,6,11,katyan_taturo,0.9925507307052612,0
57,100,0.5818181818181818,263,1,77,DL_Remix_Guitar,6,9,katyan_taturo,0.9995648264884949,1
57,100,0.6,752,1,77,DL_Remix_Guitar,6,10,katyan_taturo,0.5566031336784363,0
57,100,0.2590909090909091,404,1,78,DL_Remix_Guitar,6,4,katyan_taturo,0.9931528568267822,0
53,100,0.12272727272727273,466,1,79,DL_Remix_Guitar,6,2,katyan_taturo,0.999660849571228,1
57,100,0.12272727272727273,553,0,79,DL_Remix_Guitar,6,2,katyan_taturo,0.5358699560165405,0
57,100,0.4590909090909091,56,1,80,DL_Remix_Guitar,6,7,katyan_taturo,0.999602735042572,1
57,100,0.5,550,1,80,DL_Remix_Guitar,6,8,katyan_taturo,0.55057692527771,0
57,100,0.35909090909090907,633,1,81,DL_Remix_Guitar,6,6,katyan_taturo,0.9930177927017212,1
57,100,0.35909090909090907,30,1,82,DL_Remix_Guitar,6,6,katyan_taturo,0.9928613305091858,0
58,100,0.18181818181818182,157,1,83,DL_Remix_Guitar,6,3,katyan_taturo,0.9998306035995483,1
58,100,0.8772727272727273,326,0,83,DL_Remix_Guitar,6,14,katyan_taturo,0.29593420028686523,0
63,100,0.33636363636363636,567,1,83,DL_Remix_Guitar,6,5,katyan_taturo,0.32768136262893677,0
52,100,0.17727272727272728,844,1,83,DL_Remix_Guitar,6,3,katyan_taturo,0.33642813563346863,0
52,100,0.38181818181818183,396,1,84,DL_Remix_Guitar,6,6,katyan_taturo,0.9931163787841797,0
62,100,0.2818181818181818,35,1,85,DL_Remix_Guitar,6,5,katyan_taturo,0.9998332262039185,1
62,100,0.35909090909090907,150,0,85,DL_Remix_Guitar,6,6,katyan_taturo,0.4050326645374298,0
59,100,0.2772727272727273,480,1,85,DL_Remix_Guitar,6,4,katyan_taturo,0.4311651587486267,0
57,100,0.17727272727272728,184,1,86,DL_Remix_Guitar,6,3,katyan_taturo,0.9996228218078613,1
57,100,0.3409090909090909,229,0,86,DL_Remix_Guitar,6,5,katyan_taturo,0.545647382736206,0
55,100,0.16363636363636364,817,1,87,DL_Remix_Guitar,6,3,katyan_taturo,0.9930716156959534,0
55,100,0.1,43,1,88,DL_Remix_Guitar,6,2,katyan_taturo,0.9996371269226074,1
55,100,0.1,69,0,88,DL_Remix_Guitar,6,2,katyan_taturo,0.5453357696533203,0
56,100,0.1,356,1,89,DL_Remix_Guitar,6,2,katyan_taturo,0.9996433258056641,1
57,100,0.2590909090909091,743,1,89,DL_Remix_Guitar,6,4,katyan_taturo,0.5420122146606445,0
57,100,0.1409090909090909,22,1,90,DL_Remix_Guitar,6,2,katyan_taturo,0.9998470544815063,1
57,100,0.21818181818181817,216,0,90,DL_Remix_Guitar,6,3,katyan_taturo,0.3196176588535309,0
55,100,0.21818181818181817,766,1,90,DL_Remix_Guitar,6,3,katyan_taturo,0.2964731454849243,0
55,100,0.4,817,0,90,DL_Remix_Guitar,6,6,katyan_taturo,0.30123746395111084,0
55,100,0.22272727272727272,862,1,91,DL_Remix_Guitar,6,4,katyan_taturo,0.9931747317314148,0
55,100,0.2409090909090909,66,1,92,DL_Remix_Guitar,6,4,katyan_taturo,0.993190586566925,0
57,100,0.8,83,1,97,DL_Remix_Guitar,6,13,katyan_taturo,0.999824583530426,1
52,100,0.2,707,1,97,DL_Remix_Guitar,6,3,katyan_taturo,0.3718110918998718,0
52,100,0.13636363636363635,766,0,97,DL_Remix_Guitar,6,2,katyan_taturo,0.2982160747051239,0
52,100,0.16363636363636364,839,0,97,DL_Remix_Guitar,6,3,katyan_taturo,0.3024398386478424,0
57,100,3.3,462,1,99,DL_Remix_Guitar,6,15,katyan_taturo,0.9893194437026978,0
55,100,0.2590909090909091,483,1,101,DL_Remix_Guitar,6,4,katyan_taturo,0.9996145963668823,1
67,100,0.4818181818181818,716,1,101,DL_Remix_Guitar,6,8,katyan_taturo,0.544079601764679,0
67,100,0.4,857,1,102,DL_Remix_Guitar,6,6,katyan_taturo,0.9924013614654541,0
67,100,0.1,220,1,103,DL_Remix_Guitar,6,2,katyan_taturo,0.9998284578323364,1
67,100,0.1,276,0,103,DL_Remix_Guitar,6,2,katyan_taturo,0.4042370617389679,0
60,100,0.4818181818181818,399,0,103,DL_Remix_Guitar,6,8,katyan_taturo,0.428001344203949,0
52,100,0.1590909090909091,273,1,104,DL_Remix_Guitar,6,3,katyan_taturo,0.9998424053192139,1
52,100,0.22272727272727272,540,1,104,DL_Remix_Guitar,6,4,katyan_taturo,0.4095773994922638,0
53,100,0.7772727272727272,756,0,104,DL_Remix_Guitar,6,12,katyan_taturo,0.4083458185195923,0
60,100,0.1,136,1,105,DL_Remix_Guitar,6,2,katyan_taturo,0.9998422861099243,1
53,100,0.4590909090909091,233,0,105,DL_Remix_Guitar,6,7,katyan_taturo,0.1943349689245224,0
53,100,0.5181818181818182,457,0,105,DL_Remix_Guitar,6,8,katyan_taturo,0.19820769131183624,0
53,100,0.5181818181818182,590,0,105,DL_Remix_Guitar,6,8,katyan_taturo,0.20861691236495972,0
52,100,0.11818181818181818,857,1,105,DL_Remix_Guitar,6,2,katyan_taturo,0.2122630774974823,0
52,100,0.3,66,1,106,DL_Remix_Guitar,6,5,katyan_taturo,0.9998432397842407,1
52,100,0.23636363636363636,567,1,106,DL_Remix_Guitar,6,4,katyan_taturo,0.4039310812950134,0
55,100,0.17727272727272728,853,1,106,DL_Remix_Guitar,6,3,katyan_taturo,0.4141978919506073,0
55,100,0.5181818181818182,404,1,107,DL_Remix_Guitar,6,8,katyan_taturo,0.9996023774147034,1
55,100,0.1,523,0,107,DL_Remix_Guitar,6,2,katyan_taturo,0.5568162798881531,0
57,100,0.12272727272727273,386,1,108,DL_Remix_Guitar,6,2,katyan_taturo,0.9996277093887329,1
55,100,0.6,567,0,108,DL_Remix_Guitar,6,10,katyan_taturo,0.5326648950576782,0
55,100,0.5409090909090909,3,1,109,DL_Remix_Guitar,6,9,katyan_taturo,0.9998300075531006,1
55,100,0.2636363636363636,136,0,109,DL_Remix_Guitar,6,4,katyan_taturo,0.334760457277298,0
55,100,0.18181818181818182,519,1,109,DL_Remix_Guitar,6,3,katyan_taturo,0.2991167902946472,0
55,100,0.11818181818181818,590,0,109,DL_Remix_Guitar,6,2,katyan_taturo,0.3177088499069214,0
55,100,0.18181818181818182,87,1,110,DL_Remix_Guitar,6,3,katyan_taturo,0.9929346442222595,0
55,100,0.12272727272727273,399,1,111,DL_Remix_Guitar,6,2,katyan_taturo,0.9998281002044678,1
55,100,0.21818181818181817,436,0,111,DL_Remix_Guitar,6,3,katyan_taturo,0.4047221541404724,0
67,100,0.11818181818181818,656,0,111,DL_Remix_Guitar,6,2,katyan_taturo,0.43178337812423706,0
56,100,0.1,426,1,112,DL_Remix_Guitar,6,2,katyan_taturo,0.9996544122695923,1
57,100,0.16363636363636364,532,0,112,DL_Remix_Guitar,6,3,katyan_taturo,0.5371596217155457,0
55,100,0.2409090909090909,642,1,113,DL_Remix_Guitar,6,4,katyan_taturo,0.9996283054351807,1
67,100,0.1409090909090909,857,0,113,DL_Remix_Guitar,6,2,katyan_taturo,0.5455062389373779,0
55,100,0.1590909090909091,9,1,114,DL_Remix_Guitar,6,3,katyan_taturo,0.9998194575309753,1
55,100,0.16363636363636364,47,0,114,DL_Remix_Guitar,6,3,katyan_taturo,0.4104165732860565,0
55,100,0.1409090909090909,179,0,114,DL_Remix_Guitar,6,2,katyan_taturo,0.4333636462688446,0
53,100,0.35909090909090907,17,1,115,DL_Remix_Guitar,6,6,katyan_taturo,0.9998351335525513,1
53,100,0.1590909090909091,282,1,115,DL_Remix_Guitar,6,3,katyan_taturo,0.20688150823116302,0
53,100,0.5818181818181818,320,0,115,DL_Remix_Guitar,6,9,katyan_taturo,0.19064027070999146,0
67,100,0.1,453,0,115,DL_Remix_Guitar,6,2,katyan_taturo,0.21540506184101105,0
60,100,0.5590909090909091,536,0,115,DL_Remix_Guitar,6,9,katyan_taturo,0.20434948801994324,0
67,100,0.2772727272727273,163,1,116,DL_Remix_Guitar,6,4,katyan_taturo,0.9998196959495544,1
55,100,0.1590909090909091,320,0,116,DL_Remix_Guitar,6,3,katyan_taturo,0.4205102324485779,0
67,100,0.1,540,0,116,DL_Remix_Guitar,6,2,katyan_taturo,0.4300558269023895,0
59,100,0.3181818181818182,713,1,117,DL_Remix_Guitar,6,5,katyan_taturo,0.9931334853172302,0
53,100,0.6363636363636364,83,1,118,DL_Remix_Guitar,6,10,katyan_taturo,0.9997827410697937,1
53,100,0.5409090909090909,299,0,118,DL_Remix_Guitar,6,9,katyan_taturo,0.13451753556728363,0
53,100,0.1409090909090909,426,0,118,DL_Remix_Guitar,6,2,katyan_taturo,0.12992577254772186,0
55,100,0.4,572,0,118,DL_Remix_Guitar,6,6,katyan_taturo,0.12919573485851288,0
67,100,0.1409090909090909,703,0,118,DL_Remix_Guitar,6,2,katyan_taturo,0.14957839250564575,0
53,100,0.7636363636363637,796,0,118,DL_Remix_Guitar,6,12,katyan_taturo,0.13065363466739655,0
53,100,0.35909090909090907,233,1,119,DL_Remix_Guitar,6,6,katyan_taturo,0.9998037219047546,1
53,100,0.18181818181818182,330,0,119,DL_Remix_Guitar,6,3,katyan_taturo,0.1327381432056427,0
53,100,0.1,466,0,119,DL_Remix_Guitar,6,2,katyan_taturo,0.12247676402330399,0
53,100,0.4636363636363636,576,0,119,DL_Remix_Guitar,6,7,katyan_taturo,0.12521252036094666,0
53,100,0.3,729,0,119,DL_Remix_Guitar,6,5,katyan_taturo,0.14496469497680664,0
67,100,0.1590909090909091,800,0,119,DL_Remix_Guitar,6,3,katyan_taturo,0.12716932594776154,0
53,100,0.1409090909090909,26,1,120,DL_Remix_Guitar,6,2,katyan_taturo,0.9998370409011841,1
52,100,0.3,722,1,120,DL_Remix_Guitar,6,5,katyan_taturo,0.42016544938087463,0
52,100,0.3,792,0,120,DL_Remix_Guitar,6,5,katyan_taturo,0.4162183701992035,0
52,100,0.2818181818181818,110,1,121,DL_Remix_Guitar,6,5,katyan_taturo,0.9996353387832642,1
55,100,0.2409090909090909,836,1,121,DL_Remix_Guitar,6,4,katyan_taturo,0.5405049920082092,0
55,100,0.2772727272727273,426,1,122,DL_Remix_Guitar,6,4,katyan_taturo,0.9931051135063171,1
57,100,0.11818181818181818,638,1,0,_Guitar,6,2,ninjyouupbeat+,0.9933445453643799,0
52,100,0.32272727272727275,122,1,5,_Guitar,6,5,ninjyouupbeat+,0.9997764229774475,1
52,100,0.36363636363636365,201,0,5,_Guitar,6,6,ninjyouupbeat+,0.077471062541008,0
53,100,0.1,373,0,5,_Guitar,6,2,ninjyouupbeat+,0.07232561707496643,0
52,100,0.2818181818181818,396,0,5,_Guitar,6,5,ninjyouupbeat+,0.07668221741914749,0
52,100,0.3409090909090909,475,0,5,_Guitar,6,5,ninjyouupbeat+,0.08824048191308975,0
52,100,0.3,568,0,5,_Guitar,6,5,ninjyouupbeat+,0.09220708906650543,0
52,100,0.3,647,0,5,_Guitar,6,5,ninjyouupbeat+,0.08290194720029831,0
59,100,0.5590909090909091,79,1,6,_Guitar,6,9,ninjyouupbeat+,0.9998393058776855,1
59,100,0.1590909090909091,276,0,6,_Guitar,6,3,ninjyouupbeat+,0.33529648184776306,0
52,100,0.8181818181818182,634,1,6,_Guitar,6,13,ninjyouupbeat+,0.28835782408714294,0
52,100,0.2772727272727273,823,0,6,_Guitar,6,4,ninjyouupbeat+,0.3217577338218689,0
52,100,0.4409090909090909,12,1,7,_Guitar,6,7,ninjyouupbeat+,0.9998262524604797,1
52,100,1.1409090909090909,118,0,7,_Guitar,6,15,ninjyouupbeat+,0.1896519511938095,0
52,100,1.459090909090909,383,1,7,_Guitar,6,15,ninjyouupbeat+,0.1963997185230255,0
52,100,0.4409090909090909,726,1,7,_Guitar,6,7,ninjyouupbeat+,0.254123330116272,0
52,100,0.7,836,0,7,_Guitar,6,11,ninjyouupbeat+,0.2165214717388153,0
52,100,0.1409090909090909,113,1,8,_Guitar,6,2,ninjyouupbeat+,0.9937440752983093,1
59,100,0.16363636363636364,70,1,9,_Guitar,6,3,ninjyouupbeat+,0.9931603670120239,0
59,100,0.11818181818181818,44,1,12,_Guitar,6,2,ninjyouupbeat+,0.9933386445045471,0
57,100,0.37727272727272726,53,1,13,_Guitar,6,6,ninjyouupbeat+,0.9998359680175781,1
57,100,0.22272727272727272,409,1,13,_Guitar,6,4,ninjyouupbeat+,0.3377598524093628,0
59,100,0.11818181818181818,766,1,13,_Guitar,6,2,ninjyouupbeat+,0.29755356907844543,0
59,100,0.2409090909090909,840,0,13,_Guitar,6,4,ninjyouupbeat+,0.30712103843688965,0
64,100,0.11818181818181818,53,1,14,_Guitar,6,2,ninjyouupbeat+,0.9997733235359192,1
59,100,0.1,92,0,14,_Guitar,6,2,ninjyouupbeat+,0.07827203720808029,0
59,100,0.4,285,0,14,_Guitar,6,6,ninjyouupbeat+,0.06973201781511307,0
64,100,0.2409090909090909,383,0,14,_Guitar,6,4,ninjyouupbeat+,0.08282430469989777,0
64,100,0.17727272727272728,536,0,14,_Guitar,6,3,ninjyouupbeat+,0.0914410725235939,0
64,100,0.6227272727272727,598,0,14,_Guitar,6,10,ninjyouupbeat+,0.0923851877450943,0
52,100,0.21818181818181817,823,0,14,_Guitar,6,3,ninjyouupbeat+,0.08894374966621399,0
52,100,0.1,56,1,15,_Guitar,6,2,ninjyouupbeat+,0.9998173117637634,1
52,100,0.3,132,0,15,_Guitar,6,5,ninjyouupbeat+,0.12014268338680267,0
64,100,0.8818181818181818,197,0,15,_Guitar,6,14,ninjyouupbeat+,0.1110469251871109,0
59,100,0.2,395,0,15,_Guitar,6,3,ninjyouupbeat+,0.14214873313903809,0
59,100,0.11818181818181818,493,0,15,_Guitar,6,2,ninjyouupbeat+,0.1418001353740692,0
64,100,0.18181818181818182,553,0,15,_Guitar,6,3,ninjyouupbeat+,0.1318386346101761,0
59,100,0.2,123,1,16,_Guitar,6,3,ninjyouupbeat+,0.9998364448547363,1
59,100,0.2409090909090909,175,0,16,_Guitar,6,4,ninjyouupbeat+,0.2126094549894333,0
52,100,0.2,326,0,16,_Guitar,6,3,ninjyouupbeat+,0.19796736538410187,0
64,100,0.1,413,0,16,_Guitar,6,2,ninjyouupbeat+,0.20948132872581482,0
64,100,0.12272727272727273,729,1,16,_Guitar,6,2,ninjyouupbeat+,0.20286588370800018,0
59,100,0.1,303,1,17,_Guitar,6,2,ninjyouupbeat+,0.999800980091095,1
59,100,0.18181818181818182,333,0,17,_Guitar,6,3,ninjyouupbeat+,0.12598441541194916,0
59,100,0.22272727272727272,519,0,17,_Guitar,6,4,ninjyouupbeat+,0.12246593832969666,0
59,100,0.4,646,0,17,_Guitar,6,6,ninjyouupbeat+,0.1337718367576599,0
59,100,0.18181818181818182,739,0,17,_Guitar,6,3,ninjyouupbeat+,0.15198445320129395,0
59,100,0.21818181818181817,845,0,17,_Guitar,6,3,ninjyouupbeat+,0.13384918868541718,0
64,100,0.12272727272727273,113,1,18,_Guitar,6,2,ninjyouupbeat+,0.9997840523719788,1
52,100,0.2590909090909091,140,0,18,_Guitar,6,4,ninjyouupbeat+,0.0755646675825119,0
52,100,0.11818181818181818,220,0,18,_Guitar,6,2,ninjyouupbeat+,0.07300326973199844,0
52,100,0.35909090909090907,308,0,18,_Guitar,6,6,ninjyouupbeat+,0.07506601512432098,0
52,100,0.17727272727272728,413,0,18,_Guitar,6,3,ninjyouupbeat+,0.08814844489097595,0
64,100,0.2,752,1,18,_Guitar,6,3,ninjyouupbeat+,0.09261011332273483,0
61,100,0.1409090909090909,870,0,18,_Guitar,6,2,ninjyouupbeat+,0.08023598790168762,0
64,100,0.4,26,1,19,_Guitar,6,6,ninjyouupbeat+,0.9997661709785461,1
64,100,0.1590909090909091,140,0,19,_Guitar,6,3,ninjyouupbeat+,0.08281106501817703,0
64,100,0.32272727272727275,210,0,19,_Guitar,6,5,ninjyouupbeat+,0.073489248752594,0
59,100,0.1,351,0,19,_Guitar,6,2,ninjyouupbeat+,0.07607270032167435,0
52,100,0.21818181818181817,505,0,19,_Guitar,6,3,ninjyouupbeat+,0.09218350052833557,0
64,100,0.35909090909090907,563,0,19,_Guitar,6,6,ninjyouupbeat+,0.08941394090652466,0
57,100,0.2,766,0,19,_Guitar,6,3,ninjyouupbeat+,0.08584821224212646,0
57,100,0.17727272727272728,30,1,20,_Guitar,6,3,ninjyouupbeat+,0.9998365640640259,1
64,100,0.1409090909090909,113,0,20,_Guitar,6,2,ninjyouupbeat+,0.21739210188388824,0
59,100,0.11818181818181818,162,0,20,_Guitar,6,2,ninjyouupbeat+,0.18963909149169922,0
59,100,0.11818181818181818,206,0,20,_Guitar,6,2,ninjyouupbeat+,0.20407231152057648,0
59,100,0.3181818181818182,492,1,20,_Guitar,6,5,ninjyouupbeat+,0.19955791532993317,0
52,100,0.3,136,1,21,_Guitar,6,5,ninjyouupbeat+,0.9998109936714172,1
64,100,0.11818181818181818,241,0,21,_Guitar,6,2,ninjyouupbeat+,0.13048747181892395,0
59,100,0.13636363636363635,326,0,21,_Guitar,6,2,ninjyouupbeat+,0.1149875670671463,0
64,100,0.2409090909090909,364,0,21,_Guitar,6,4,ninjyouupbeat+,0.1370135247707367,0
52,100,0.38181818181818183,466,0,21,_Guitar,6,6,ninjyouupbeat+,0.14059852063655853,0
64,100,0.2772727272727273,766,1,21,_Guitar,6,4,ninjyouupbeat+,0.12773290276527405,0
52,100,0.22272727272727272,752,1,22,_Guitar,6,4,ninjyouupbeat+,0.9998433589935303,1
64,100,0.1409090909090909,801,0,22,_Guitar,6,2,ninjyouupbeat+,0.406472384929657,0
64,100,0.3409090909090909,839,0,22,_Guitar,6,5,ninjyouupbeat+,0.41553187370300293,0
64,100,0.1409090909090909,382,1,23,_Guitar,6,2,ninjyouupbeat+,0.9997833371162415,1
64,100,0.21818181818181817,436,0,23,_Guitar,6,3,ninjyouupbeat+,0.07686132192611694,0
64,100,0.1409090909090909,571,0,23,_Guitar,6,2,ninjyouupbeat+,0.07133285701274872,0
64,100,0.11818181818181818,615,0,23,_Guitar,6,2,ninjyouupbeat+,0.07840672135353088,0
52,100,0.35909090909090907,681,0,23,_Guitar,6,6,ninjyouupbeat+,0.08620470762252808,0
52,100,0.1409090909090909,791,0,23,_Guitar,6,2,ninjyouupbeat+,0.09053901582956314,0
59,100,0.18181818181818182,839,0,23,_Guitar,6,3,ninjyouupbeat+,0.08054844290018082,0
64,100,0.11818181818181818,40,1,24,_Guitar,6,2,ninjyouupbeat+,0.9998575448989868,1
64,100,0.1409090909090909,69,0,24,_Guitar,6,2,ninjyouupbeat+,0.32539209723472595,0
64,100,0.1409090909090909,233,0,24,_Guitar,6,2,ninjyouupbeat+,0.2894265055656433,0
57,100,0.22272727272727272,364,0,24,_Guitar,6,4,ninjyouupbeat+,0.29335883259773254,0
59,100,0.2590909090909091,233,1,25,_Guitar,6,4,ninjyouupbeat+,0.9998481273651123,1
59,100,0.2,378,0,25,_Guitar,6,3,ninjyouupbeat+,0.3296435475349426,0
59,100,0.3409090909090909,466,0,25,_Guitar,6,5,ninjyouupbeat+,0.2919612526893616,0
71,100,0.1,839,1,25,_Guitar,6,2,ninjyouupbeat+,0.30555984377861023,0
52,100,0.11818181818181818,61,1,27,_Guitar,6,2,ninjyouupbeat+,0.9997134804725647,1
52,100,0.3,299,1,27,_Guitar,6,5,ninjyouupbeat+,0.04237816110253334,0
59,100,0.13636363636363635,391,0,27,_Guitar,6,2,ninjyouupbeat+,0.032328635454177856,0
59,100,0.2590909090909091,430,0,27,_Guitar,6,4,ninjyouupbeat+,0.030094817280769348,0
59,100,0.18181818181818182,497,0,27,_Guitar,6,3,ninjyouupbeat+,0.03040330670773983,0
59,100,0.1,584,0,27,_Guitar,6,2,ninjyouupbeat+,0.03387659415602684,0
59,100,0.1409090909090909,691,0,27,_Guitar,6,2,ninjyouupbeat+,0.039669863879680634,0
64,100,0.1590909090909091,756,0,27,_Guitar,6,3,ninjyouupbeat+,0.049591608345508575,0
64,100,0.2,853,0,27,_Guitar,6,3,ninjyouupbeat+,0.04531624913215637,0
59,100,0.21818181818181817,131,1,28,_Guitar,6,3,ninjyouupbeat+,0.999765932559967,1
59,100,0.1409090909090909,289,0,28,_Guitar,6,2,ninjyouupbeat+,0.07988261431455612,0
59,100,0.4,378,0,28,_Guitar,6,6,ninjyouupbeat+,0.07322504371404648,0
59,100,0.5,474,0,28,_Guitar,6,8,ninjyouupbeat+,0.07690752297639847,0
59,100,0.1590909090909091,590,0,28,_Guitar,6,3,ninjyouupbeat+,0.1002402976155281,0
59,100,0.3,656,0,28,_Guitar,6,5,ninjyouupbeat+,0.09773634374141693,0
64,100,0.2636363636363636,729,0,28,_Guitar,6,4,ninjyouupbeat+,0.09318754822015762,0
59,100,0.2,57,1,29,_Guitar,6,3,ninjyouupbeat+,0.9998151659965515,1
59,100,0.41818181818181815,127,0,29,_Guitar,6,7,ninjyouupbeat+,0.4052622616291046,0
59,100,0.1409090909090909,818,1,29,_Guitar,6,2,ninjyouupbeat+,0.44366657733917236,0
61,100,0.2409090909090909,223,1,30,_Guitar,6,4,ninjyouupbeat+,0.9998425245285034,1
64,100,0.2409090909090909,576,1,30,_Guitar,6,4,ninjyouupbeat+,0.21246255934238434,0
59,100,0.17727272727272728,721,0,30,_Guitar,6,3,ninjyouupbeat+,0.19927872717380524,0
59,100,0.1409090909090909,796,0,30,_Guitar,6,2,ninjyouupbeat+,0.20752005279064178,0
54,100,0.5181818181818182,831,0,30,_Guitar,6,8,ninjyouupbeat+,0.19013680517673492,0
59,100,0.4590909090909091,96,1,31,_Guitar,6,7,ninjyouupbeat+,0.9996238946914673,1
64,100,0.11818181818181818,440,1,31,_Guitar,6,2,ninjyouupbeat+,0.5629938244819641,0
57,100,0.2409090909090909,123,1,32,_Guitar,6,4,ninjyouupbeat+,0.9996192455291748,1
59,100,0.1590909090909091,590,1,32,_Guitar,6,3,ninjyouupbeat+,0.5573076605796814,0
64,100,0.11818181818181818,18,1,33,_Guitar,6,2,ninjyouupbeat+,0.9998593330383301,1
57,100,0.1590909090909091,233,0,33,_Guitar,6,3,ninjyouupbeat+,0.30476993322372437,0
52,100,0.3,303,0,33,_Guitar,6,5,ninjyouupbeat+,0.29228174686431885,0
64,100,0.2409090909090909,664,1,33,_Guitar,6,4,ninjyouupbeat+,0.3067180812358856,0
59,100,0.1590909090909091,330,1,34,_Guitar,6,3,ninjyouupbeat+,0.9998551607131958,1
59,100,0.3409090909090909,471,0,34,_Guitar,6,5,ninjyouupbeat+,0.30444642901420593,0
59,100,0.12272727272727273,686,0,34,_Guitar,6,2,ninjyouupbeat+,0.30891653895378113,0
66,100,0.1409090909090909,783,0,34,_Guitar,6,2,ninjyouupbeat+,0.30388423800468445,0
59,100,0.18181818181818182,386,1,35,_Guitar,6,3,ninjyouupbeat+,0.9934090375900269,0
64,100,0.22272727272727272,201,1,36,_Guitar,6,4,ninjyouupbeat+,0.9998416900634766,1
64,100,0.12272727272727273,783,1,36,_Guitar,6,2,ninjyouupbeat+,0.40226444602012634,0
57,100,0.2818181818181818,836,0,36,_Guitar,6,5,ninjyouupbeat+,0.41618984937667847,0
64,100,0.2590909090909091,761,1,37,_Guitar,6,4,ninjyouupbeat+,0.9996514320373535,1
52,100,0.3181818181818182,831,0,37,_Guitar,6,5,ninjyouupbeat+,0.5352773070335388,0
52,100,0.13636363636363635,238,1,38,_Guitar,6,2,ninjyouupbeat+,0.9936791062355042,0
64,100,0.35909090909090907,383,1,39,_Guitar,6,6,ninjyouupbeat+,0.9998282194137573,1
52,100,0.17727272727272728,646,1,39,_Guitar,6,3,ninjyouupbeat+,0.42647960782051086,0
52,100,0.12272727272727273,826,0,39,_Guitar,6,2,ninjyouupbeat+,0.42357200384140015,0
52,100,0.2,206,1,40,_Guitar,6,3,ninjyouupbeat+,0.9998434782028198,1
52,100,0.12272727272727273,474,1,40,_Guitar,6,2,ninjyouupbeat+,0.39867982268333435,0
52,100,0.13636363636363635,743,1,40,_Guitar,6,2,ninjyouupbeat+,0.42574799060821533,0
59,100,0.16363636363636364,554,1,42,_Guitar,6,3,ninjyouupbeat+,0.9932861924171448,0
61,100,0.11818181818181818,110,1,43,_Guitar,6,2,ninjyouupbeat+,0.9932973980903625,0
61,100,0.2,114,1,44,_Guitar,6,3,ninjyouupbeat+,0.999804675579071,1
61,100,0.33636363636363636,171,0,44,_Guitar,6,5,ninjyouupbeat+,0.12151248753070831,0
57,100,0.21818181818181817,330,0,44,_Guitar,6,3,ninjyouupbeat+,0.12415941059589386,0
57,100,0.42272727272727273,584,1,44,_Guitar,6,7,ninjyouupbeat+,0.13330934941768646,0
57,100,0.11818181818181818,691,0,44,_Guitar,6,2,ninjyouupbeat+,0.14816606044769287,0
57,100,0.12272727272727273,738,0,44,_Guitar,6,2,ninjyouupbeat+,0.13530215620994568,0
57,100,0.2,408,1,45,_Guitar,6,3,ninjyouupbeat+,0.9996275901794434,1
57,100,0.2818181818181818,576,0,45,_Guitar,6,5,ninjyouupbeat+,0.5451728701591492,0
64,100,0.35909090909090907,364,1,46,_Guitar,6,6,ninjyouupbeat+,0.9998326301574707,1
59,100,0.2772727272727273,646,1,46,_Guitar,6,4,ninjyouupbeat+,0.40188121795654297,0
59,100,0.1590909090909091,845,0,46,_Guitar,6,3,ninjyouupbeat+,0.42827197909355164,0
59,100,0.16363636363636364,91,1,47,_Guitar,6,3,ninjyouupbeat+,0.9998297691345215,1
59,100,0.4,466,1,47,_Guitar,6,6,ninjyouupbeat+,0.4145888388156891,0
68,100,0.3181818181818182,823,1,47,_Guitar,6,5,ninjyouupbeat+,0.42476561665534973,0
68,100,0.16363636363636364,26,1,48,_Guitar,6,3,ninjyouupbeat+,0.999828577041626,1
61,100,0.1590909090909091,211,0,48,_Guitar,6,3,ninjyouupbeat+,0.40592169761657715,0
59,100,0.2,334,0,48,_Guitar,6,3,ninjyouupbeat+,0.43121835589408875,0
61,100,0.12272727272727273,48,1,49,_Guitar,6,2,ninjyouupbeat+,0.9998582601547241,1
57,100,0.22272727272727272,224,0,49,_Guitar,6,4,ninjyouupbeat+,0.3140949606895447,0
59,100,0.2,496,1,49,_Guitar,6,3,ninjyouupbeat+,0.2930178642272949,0
57,100,0.17727272727272728,735,1,49,_Guitar,6,3,ninjyouupbeat+,0.3018268644809723,0
54,100,0.21818181818181817,61,1,50,_Guitar,6,3,ninjyouupbeat+,0.9998239874839783,1
57,100,0.2409090909090909,131,0,50,_Guitar,6,4,ninjyouupbeat+,0.40814217925071716,0
54,100,0.2409090909090909,576,1,50,_Guitar,6,4,ninjyouupbeat+,0.43092551827430725,0
59,100,0.12272727272727273,861,1,51,_Guitar,6,2,ninjyouupbeat+,0.9935445785522461,0
52,100,0.13636363636363635,523,1,52,_Guitar,6,2,ninjyouupbeat+,0.9996652603149414,1
52,100,0.1590909090909091,633,0,52,_Guitar,6,3,ninjyouupbeat+,0.546286404132843,0
52,100,0.1590909090909091,88,1,53,_Guitar,6,3,ninjyouupbeat+,0.9997760653495789,1
64,100,0.1,386,1,53,_Guitar,6,2,ninjyouupbeat+,0.08121629804372787,0
52,100,0.17727272727272728,633,1,53,_Guitar,6,3,ninjyouupbeat+,0.07115519046783447,0
64,100,0.13636363636363635,721,0,53,_Guitar,6,2,ninjyouupbeat+,0.07744577527046204,0
52,100,0.3,765,0,53,_Guitar,6,5,ninjyouupbeat+,0.08458299189805984,0
64,100,0.11818181818181818,831,0,53,_Guitar,6,2,ninjyouupbeat+,0.08703360706567764,0
52,100,0.2590909090909091,858,0,53,_Guitar,6,4,ninjyouupbeat+,0.08240972459316254,0
52,100,0.3,40,1,54,_Guitar,6,5,ninjyouupbeat+,0.9998339414596558,1
52,100,0.17727272727272728,215,0,54,_Guitar,6,3,ninjyouupbeat+,0.21091030538082123,0
57,100,0.2409090909090909,295,0,54,_Guitar,6,4,ninjyouupbeat+,0.18994638323783875,0
64,100,0.1590909090909091,550,1,54,_Guitar,6,3,ninjyouupbeat+,0.21798697113990784,0
52,100,0.35909090909090907,593,0,54,_Guitar,6,6,ninjyouupbeat+,0.19499121606349945,0
52,100,0.21818181818181817,128,1,55,_Guitar,6,3,ninjyouupbeat+,0.9935688972473145,1
59,100,0.43636363636363634,633,1,56,_Guitar,6,7,ninjyouupbeat+,0.9930033087730408,0
52,100,0.18181818181818182,166,1,57,_Guitar,6,3,ninjyouupbeat+,0.9934750199317932,0
52,100,0.1590909090909091,413,1,58,_Guitar,6,3,ninjyouupbeat+,0.9996622800827026,1
52,100,0.13636363636363635,853,1,58,_Guitar,6,2,ninjyouupbeat+,0.5448742508888245,0
52,100,0.1590909090909091,78,1,59,_Guitar,6,3,ninjyouupbeat+,0.9998194575309753,1
52,100,0.1409090909090909,153,0,59,_Guitar,6,2,ninjyouupbeat+,0.12446301430463791,0
52,100,0.1409090909090909,220,0,59,_Guitar,6,2,ninjyouupbeat+,0.11742540448904037,0
52,100,0.2,308,0,59,_Guitar,6,3,ninjyouupbeat+,0.1290687471628189,0
64,100,0.1590909090909091,351,0,59,_Guitar,6,3,ninjyouupbeat+,0.13546177744865417,0
59,100,0.11818181818181818,480,0,59,_Guitar,6,2,ninjyouupbeat+,0.12574630975723267,0
61,100,0.2818181818181818,748,1,61,_Guitar,6,5,ninjyouupbeat+,0.9931761622428894,0
68,100,0.2590909090909091,584,1,62,_Guitar,6,4,ninjyouupbeat+,0.9996422529220581,1
59,100,0.1,655,0,62,_Guitar,6,2,ninjyouupbeat+,0.5491079688072205,0
64,100,0.22272727272727272,123,1,63,_Guitar,6,4,ninjyouupbeat+,0.9998589754104614,1
54,100,0.2590909090909091,298,0,63,_Guitar,6,4,ninjyouupbeat+,0.31406402587890625,0
64,100,0.12272727272727273,408,0,63,_Guitar,6,2,ninjyouupbeat+,0.29679208993911743,0
64,100,0.22272727272727272,488,0,63,_Guitar,6,4,ninjyouupbeat+,0.30064111948013306,0
59,100,0.2,62,1,64,_Guitar,6,3,ninjyouupbeat+,0.999634861946106,1
59,100,0.17727272727272728,713,1,64,_Guitar,6,3,ninjyouupbeat+,0.5503968596458435,0
64,100,0.3409090909090909,289,1,65,_Guitar,6,5,ninjyouupbeat+,0.9996336698532104,1
57,100,0.3,377,0,65,_Guitar,6,5,ninjyouupbeat+,0.5449520349502563,0
61,100,0.17727272727272728,656,1,67,_Guitar,6,3,ninjyouupbeat+,0.999645471572876,1
61,100,0.18181818181818182,826,0,67,_Guitar,6,3,ninjyouupbeat+,0.5441269874572754,0
52,100,0.11818181818181818,417,1,68,_Guitar,6,2,ninjyouupbeat+,0.9996554851531982,1
64,100,0.4590909090909091,726,1,68,_Guitar,6,7,ninjyouupbeat+,0.5398547053337097,0
59,100,0.1,140,1,69,_Guitar,6,2,ninjyouupbeat+,0.9998028874397278,1
59,100,0.22272727272727272,166,0,69,_Guitar,6,4,ninjyouupbeat+,0.12501762807369232,0
59,100,0.33636363636363636,392,0,69,_Guitar,6,5,ninjyouupbeat+,0.11931119859218597,0
59,100,0.1,496,0,69,_Guitar,6,2,ninjyouupbeat+,0.14260882139205933,0
59,100,0.21818181818181817,567,0,69,_Guitar,6,3,ninjyouupbeat+,0.14065514504909515,0
59,100,0.1409090909090909,779,0,69,_Guitar,6,2,ninjyouupbeat+,0.13600368797779083,0
61,100,0.17727272727272728,229,1,70,_Guitar,6,3,ninjyouupbeat+,0.9996445178985596,1
56,100,0.1590909090909091,660,1,70,_Guitar,6,3,ninjyouupbeat+,0.5500280261039734,0
56,100,0.2,303,1,71,_Guitar,6,3,ninjyouupbeat+,0.9996373653411865,1
52,100,0.13636363636363635,787,1,71,_Guitar,6,2,ninjyouupbeat+,0.554295539855957,0
57,100,0.11818181818181818,127,1,72,_Guitar,6,2,ninjyouupbeat+,0.9927743673324585,0
61,100,0.1590909090909091,307,1,73,_Guitar,6,3,ninjyouupbeat+,0.999847412109375,1
61,100,0.33636363636363636,480,0,73,_Guitar,6,5,ninjyouupbeat+,0.3277468681335449,0
61,100,0.11818181818181818,590,0,73,_Guitar,6,2,ninjyouupbeat+,0.2970128059387207,0
61,100,0.18181818181818182,739,0,73,_Guitar,6,3,ninjyouupbeat+,0.3034936189651489,0
59,100,0.18181818181818182,572,1,74,_Guitar,6,3,ninjyouupbeat+,0.9996272325515747,1
61,100,0.4590909090909091,726,0,74,_Guitar,6,7,ninjyouupbeat+,0.5437902808189392,0
61,100,0.11818181818181818,74,1,75,_Guitar,6,2,ninjyouupbeat+,0.9998377561569214,1
54,100,0.2590909090909091,233,0,75,_Guitar,6,4,ninjyouupbeat+,0.3998377025127411,0
56,100,0.3,483,1,75,_Guitar,6,5,ninjyouupbeat+,0.42941954731941223,0
52,100,0.2,409,1,76,_Guitar,6,3,ninjyouupbeat+,0.9998424053192139,1
59,100,0.17727272727272728,493,0,76,_Guitar,6,3,ninjyouupbeat+,0.39920854568481445,0
64,100,0.2409090909090909,576,0,76,_Guitar,6,4,ninjyouupbeat+,0.4256511330604553,0
59,100,0.1,289,1,77,_Guitar,6,2,ninjyouupbeat+,0.9996466636657715,1
59,100,0.1,813,1,77,_Guitar,6,2,ninjyouupbeat+,0.5510815978050232,0
59,100,0.18181818181818182,475,1,78,_Guitar,6,3,ninjyouupbeat+,0.9933822154998779,0
64,100,0.1409090909090909,475,1,79,_Guitar,6,2,ninjyouupbeat+,0.9998458623886108,1
64,100,0.1590909090909091,519,0,79,_Guitar,6,3,ninjyouupbeat+,0.40004903078079224,0
59,100,0.4590909090909091,572,0,79,_Guitar,6,7,ninjyouupbeat+,0.4098054766654968,0
52,100,0.1409090909090909,0,1,80,_Guitar,6,2,ninjyouupbeat+,0.9997795224189758,1
52,100,0.1,62,0,80,_Guitar,6,2,ninjyouupbeat+,0.07990964502096176,0
52,100,0.12272727272727273,233,0,80,_Guitar,6,2,ninjyouupbeat+,0.07152654230594635,0
64,100,0.2,422,0,80,_Guitar,6,3,ninjyouupbeat+,0.076913021504879,0
52,100,0.4772727272727273,546,0,80,_Guitar,6,8,ninjyouupbeat+,0.08373367786407471,0
52,100,0.17727272727272728,743,0,80,_Guitar,6,3,ninjyouupbeat+,0.09631691128015518,0
59,100,0.42272727272727273,805,0,80,_Guitar,6,7,ninjyouupbeat+,0.0808180421590805,0
59,100,0.38181818181818183,637,1,81,_Guitar,6,6,ninjyouupbeat+,0.9931021928787231,0
59,100,0.18181818181818182,299,1,82,_Guitar,6,3,ninjyouupbeat+,0.9998548030853271,1
59,100,0.2772727272727273,404,0,82,_Guitar,6,4,ninjyouupbeat+,0.3177354633808136,0
59,100,0.2772727272727273,470,0,82,_Guitar,6,4,ninjyouupbeat+,0.2893684208393097,0
64,100,0.3409090909090909,734,1,82,_Guitar,6,5,ninjyouupbeat+,0.3126550316810608,0
64,100,0.5,26,1,83,_Guitar,6,8,ninjyouupbeat+,0.9998295307159424,1
64,100,0.6,157,0,83,_Guitar,6,10,ninjyouupbeat+,0.20841431617736816,0
64,100,0.1590909090909091,559,1,83,_Guitar,6,3,ninjyouupbeat+,0.20367147028446198,0
64,100,0.2,646,0,83,_Guitar,6,3,ninjyouupbeat+,0.20784887671470642,0
64,100,0.11818181818181818,743,0,83,_Guitar,6,2,ninjyouupbeat+,0.20534656941890717,0
64,100,0.2,123,1,84,_Guitar,6,3,ninjyouupbeat+,0.9997139573097229,1
64,100,0.13636363636363635,172,0,84,_Guitar,6,2,ninjyouupbeat+,0.043379586189985275,0
64,100,0.3,242,0,84,_Guitar,6,5,ninjyouupbeat+,0.031488560140132904,0
64,100,0.2409090909090909,312,0,84,_Guitar,6,4,ninjyouupbeat+,0.030032142996788025,0
64,100,0.3181818181818182,373,0,84,_Guitar,6,5,ninjyouupbeat+,0.02903098054230213,0
59,100,0.1,470,0,84,_Guitar,6,2,ninjyouupbeat+,0.03241899982094765,0
52,100,0.3,663,0,84,_Guitar,6,5,ninjyouupbeat+,0.0396745502948761,0
52,100,0.11818181818181818,787,0,84,_Guitar,6,2,ninjyouupbeat+,0.04717881977558136,0
59,100,0.18181818181818182,839,0,84,_Guitar,6,3,ninjyouupbeat+,0.04395946487784386,0
59,100,0.1,30,1,85,_Guitar,6,2,ninjyouupbeat+,0.9998354911804199,1
59,100,0.2409090909090909,756,1,85,_Guitar,6,4,ninjyouupbeat+,0.40789416432380676,0
64,100,0.22272727272727272,826,0,85,_Guitar,6,4,ninjyouupbeat+,0.42698800563812256,0
64,100,0.11818181818181818,30,1,86,_Guitar,6,2,ninjyouupbeat+,0.999816358089447,1
64,100,0.1409090909090909,74,0,86,_Guitar,6,2,ninjyouupbeat+,0.12452473491430283,0
52,100,0.32272727272727275,377,1,86,_Guitar,6,5,ninjyouupbeat+,0.11554030328989029,0
59,100,0.41818181818181815,470,0,86,_Guitar,6,7,ninjyouupbeat+,0.12415880709886551,0
59,100,0.1,663,0,86,_Guitar,6,2,ninjyouupbeat+,0.14345110952854156,0
59,100,0.2409090909090909,813,0,86,_Guitar,6,4,ninjyouupbeat+,0.1291501373052597,0
59,100,0.22272727272727272,13,1,87,_Guitar,6,4,ninjyouupbeat+,0.9998063445091248,1
59,100,0.2409090909090909,74,0,87,_Guitar,6,4,ninjyouupbeat+,0.12764544785022736,0
59,100,0.1,197,0,87,_Guitar,6,2,ninjyouupbeat+,0.12103060632944107,0
59,100,0.1,294,0,87,_Guitar,6,2,ninjyouupbeat+,0.1359449028968811,0
64,100,0.35909090909090907,483,0,87,_Guitar,6,6,ninjyouupbeat+,0.14152754843235016,0
61,100,0.2409090909090909,747,1,87,_Guitar,6,4,ninjyouupbeat+,0.128319650888443,0
68,100,0.16363636363636364,817,1,88,_Guitar,6,3,ninjyouupbeat+,0.9933520555496216,1
59,100,0.32272727272727275,453,1,89,_Guitar,6,5,ninjyouupbeat+,0.9929001331329346,0
59,100,0.22272727272727272,145,1,90,_Guitar,6,4,ninjyouupbeat+,0.9998385906219482,1
59,100,0.2,352,0,90,_Guitar,6,3,ninjyouupbeat+,0.2099810391664505,0
59,100,0.1590909090909091,404,0,90,_Guitar,6,3,ninjyouupbeat+,0.19914115965366364,0
59,100,0.2590909090909091,590,0,90,_Guitar,6,4,ninjyouupbeat+,0.20586788654327393,0
68,100,0.18181818181818182,673,0,90,_Guitar,6,3,ninjyouupbeat+,0.20575697720050812,0
64,100,0.2590909090909091,87,1,91,_Guitar,6,4,ninjyouupbeat+,0.9998337030410767,1
59,100,0.21818181818181817,392,1,91,_Guitar,6,3,ninjyouupbeat+,0.3989722728729248,0
64,100,0.1409090909090909,483,0,91,_Guitar,6,2,ninjyouupbeat+,0.4361547529697418,0
52,100,0.1,62,1,92,_Guitar,6,2,ninjyouupbeat+,0.9997465014457703,1
64,100,0.1,140,0,92,_Guitar,6,2,ninjyouupbeat+,0.054198410362005234,0
59,100,0.1409090909090909,197,0,92,_Guitar,6,2,ninjyouupbeat+,0.045352645218372345,0
59,100,0.2409090909090909,233,0,92,_Guitar,6,4,ninjyouupbeat+,0.04568679258227348,0
52,100,0.2818181818181818,299,0,92,_Guitar,6,5,ninjyouupbeat+,0.052293986082077026,0
64,100,0.1590909090909091,360,0,92,_Guitar,6,3,ninjyouupbeat+,0.05833975970745087,0
52,100,0.16363636363636364,399,0,92,_Guitar,6,3,ninjyouupbeat+,0.06460389494895935,0
64,100,0.22272727272727272,553,0,92,_Guitar,6,4,ninjyouupbeat+,0.05862132087349892,0
59,100,0.4409090909090909,210,1,93,_Guitar,6,7,ninjyouupbeat+,0.9998515844345093,1
59,100,0.22272727272727272,377,0,93,_Guitar,6,4,ninjyouupbeat+,0.32234635949134827,0
59,100,0.1590909090909091,603,0,93,_Guitar,6,3,ninjyouupbeat+,0.28959232568740845,0
59,100,0.2409090909090909,770,0,93,_Guitar,6,4,ninjyouupbeat+,0.30551397800445557,0
64,100,0.2818181818181818,132,1,94,_Guitar,6,5,ninjyouupbeat+,0.9998390674591064,1
64,100,0.1409090909090909,220,0,94,_Guitar,6,2,ninjyouupbeat+,0.4103401303291321,0
64,100,0.22272727272727272,430,0,94,_Guitar,6,4,ninjyouupbeat+,0.4214443862438202,0
64,100,0.1590909090909091,123,1,95,_Guitar,6,3,ninjyouupbeat+,0.9998425245285034,1
64,100,0.11818181818181818,303,0,95,_Guitar,6,2,ninjyouupbeat+,0.40627560019493103,0
52,100,0.12272727272727273,650,1,95,_Guitar,6,2,ninjyouupbeat+,0.42321261763572693,0
59,100,0.42272727272727273,356,1,96,_Guitar,6,7,ninjyouupbeat+,0.9996103644371033,1
59,100,0.3409090909090909,585,0,96,_Guitar,6,5,ninjyouupbeat+,0.5500657558441162,0
59,100,0.13636363636363635,83,1,97,_Guitar,6,2,ninjyouupbeat+,0.999836802482605,1
64,100,0.13636363636363635,260,0,97,_Guitar,6,2,ninjyouupbeat+,0.2167959064245224,0
64,100,0.1409090909090909,496,1,97,_Guitar,6,2,ninjyouupbeat+,0.20235072076320648,0
64,100,0.2636363636363636,597,0,97,_Guitar,6,4,ninjyouupbeat+,0.20167750120162964,0
64,100,0.5818181818181818,826,0,97,_Guitar,6,9,ninjyouupbeat+,0.19430017471313477,0
64,100,0.2590909090909091,100,1,98,_Guitar,6,4,ninjyouupbeat+,0.9998613595962524,1
52,100,0.1409090909090909,157,0,98,_Guitar,6,2,ninjyouupbeat+,0.3222355842590332,0
64,100,0.22272727272727272,189,0,98,_Guitar,6,4,ninjyouupbeat+,0.2890948951244354,0
57,100,0.12272727272727273,783,1,98,_Guitar,6,2,ninjyouupbeat+,0.2915053367614746,0
64,100,0.1,197,1,99,_Guitar,6,2,ninjyouupbeat+,0.9998466968536377,1
52,100,0.35909090909090907,220,0,99,_Guitar,6,6,ninjyouupbeat+,0.19788482785224915,0
52,100,0.13636363636363635,326,0,99,_Guitar,6,2,ninjyouupbeat+,0.19495005905628204,0
59,100,0.1,690,1,99,_Guitar,6,2,ninjyouupbeat+,0.2005060315132141,0
59,100,0.1590909090909091,716,0,99,_Guitar,6,3,ninjyouupbeat+,0.20272104442119598,0
64,100,0.11818181818181818,514,1,100,_Guitar,6,2,ninjyouupbeat+,0.9998586177825928,1
68,100,0.2772727272727273,559,0,100,_Guitar,6,4,ninjyouupbeat+,0.30145663022994995,0
59,100,0.12272727272727273,695,0,100,_Guitar,6,2,ninjyouupbeat+,0.29742422699928284,0
64,100,0.2,832,0,100,_Guitar,6,3,ninjyouupbeat+,0.303250789642334,0
68,100,0.21818181818181817,119,1,101,_Guitar,6,3,ninjyouupbeat+,0.9998342990875244,1
59,100,0.11818181818181818,612,1,101,_Guitar,6,2,ninjyouupbeat+,0.40839827060699463,0
59,100,0.1590909090909091,787,0,101,_Guitar,6,3,ninjyouupbeat+,0.4206400215625763,0
59,100,0.1590909090909091,172,1,102,_Guitar,6,3,ninjyouupbeat+,0.9996368885040283,1
56,100,0.6818181818181818,660,1,102,_Guitar,6,11,ninjyouupbeat+,0.538410484790802,0
59,100,0.1409090909090909,255,1,103,_Guitar,6,2,ninjyouupbeat+,0.9996346235275269,1
59,100,0.1590909090909091,470,0,103,_Guitar,6,3,ninjyouupbeat+,0.5479762554168701,0
59,100,0.1409090909090909,69,1,104,_Guitar,6,2,ninjyouupbeat+,0.9996227025985718,1
59,100,0.4409090909090909,343,1,104,_Guitar,6,7,ninjyouupbeat+,0.5425637364387512,0
71,100,0.1409090909090909,862,1,105,_Guitar,6,2,ninjyouupbeat+,0.9934430122375488,0
83,100,0.12272727272727273,26,1,106,_Guitar,6,2,ninjyouupbeat+,0.9996281862258911,1
83,100,0.1590909090909091,140,0,106,_Guitar,6,3,ninjyouupbeat+,0.5491181015968323,0
59,100,0.7,62,1,107,_Guitar,6,11,ninjyouupbeat+,0.9995716214179993,1
59,100,0.32272727272727275,233,0,107,_Guitar,6,5,ninjyouupbeat+,0.5604902505874634,0
59,100,0.2590909090909091,779,1,108,_Guitar,6,4,ninjyouupbeat+,0.993135929107666,0
54,100,0.1,857,1,109,_Guitar,6,2,ninjyouupbeat+,0.9932520985603333,0
54,100,1.7,179,1,110,_Guitar,6,15,ninjyouupbeat+,0.9994854927062988,1
56,100,0.1590909090909091,572,1,110,_Guitar,6,3,ninjyouupbeat+,0.5920918583869934,0
59,100,0.12272727272727273,255,1,111,_Guitar,6,2,ninjyouupbeat+,0.9932194352149963,0
59,100,0.17727272727272728,83,1,112,_Guitar,6,3,ninjyouupbeat+,0.9996008276939392,1
64,100,1.1636363636363636,729,1,112,_Guitar,6,15,ninjyouupbeat+,0.5389751195907593,0
52,100,0.2,210,1,113,_Guitar,6,3,ninjyouupbeat+,0.9996628761291504,1
59,100,0.2818181818181818,747,1,113,_Guitar,6,5,ninjyouupbeat+,0.5350376963615417,0
59,100,0.3181818181818182,127,1,114,_Guitar,6,5,ninjyouupbeat+,0.9996040463447571,1
59,100,0.1,606,1,114,_Guitar,6,2,ninjyouupbeat+,0.5616461038589478,0
64,100,0.18181818181818182,66,1,115,_Guitar,6,3,ninjyouupbeat+,0.9998472929000854,1
64,100,0.4409090909090909,206,0,115,_Guitar,6,7,ninjyouupbeat+,0.1971796452999115,0
64,100,0.3,386,0,115,_Guitar,6,5,ninjyouupbeat+,0.19720356166362762,0
64,100,0.4409090909090909,726,1,115,_Guitar,6,7,ninjyouupbeat+,0.19736281037330627,0
64,100,0.2,832,0,115,_Guitar,6,3,ninjyouupbeat+,0.20041325688362122,0
64,100,0.3409090909090909,22,1,116,_Guitar,6,5,ninjyouupbeat+,0.9998401403427124,1
64,100,0.1,127,0,116,_Guitar,6,2,ninjyouupbeat+,0.20993667840957642,0
64,100,0.1,197,0,116,_Guitar,6,2,ninjyouupbeat+,0.19909711182117462,0
59,100,0.22272727272727272,233,0,116,_Guitar,6,4,ninjyouupbeat+,0.19653481245040894,0
54,100,0.1409090909090909,646,1,116,_Guitar,6,2,ninjyouupbeat+,0.20268887281417847,0
59,100,0.42272727272727273,35,1,117,_Guitar,6,7,ninjyouupbeat+,0.9998237490653992,1
59,100,0.3,132,0,117,_Guitar,6,5,ninjyouupbeat+,0.41442614793777466,0
59,100,0.1,716,1,117,_Guitar,6,2,ninjyouupbeat+,0.43665382266044617,0
59,100,0.37727272727272726,119,1,118,_Guitar,6,6,ninjyouupbeat+,0.9998337030410767,1
64,100,0.2409090909090909,233,0,118,_Guitar,6,4,ninjyouupbeat+,0.21483607590198517,0
59,100,0.3409090909090909,383,0,118,_Guitar,6,5,ninjyouupbeat+,0.18653032183647156,0
52,100,0.22272727272727272,496,0,118,_Guitar,6,4,ninjyouupbeat+,0.22167819738388062,0
64,100,0.1409090909090909,660,0,118,_Guitar,6,2,ninjyouupbeat+,0.2038714736700058,0
59,100,0.2590909090909091,756,1,119,_Guitar,6,4,ninjyouupbeat+,0.9931862354278564,0
52,100,0.2409090909090909,56,1,120,_Guitar,6,4,ninjyouupbeat+,0.9998142123222351,1
59,100,0.2636363636363636,202,0,120,_Guitar,6,4,ninjyouupbeat+,0.12050087749958038,0
59,100,0.21818181818181817,426,0,120,_Guitar,6,3,ninjyouupbeat+,0.12534213066101074,0
59,100,0.1409090909090909,739,1,120,_Guitar,6,2,ninjyouupbeat+,0.13594591617584229,0
59,100,0.1,796,0,120,_Guitar,6,2,ninjyouupbeat+,0.14211226999759674,0
59,100,0.4409090909090909,823,0,120,_Guitar,6,7,ninjyouupbeat+,0.12607304751873016,0
64,100,0.23636363636363636,392,1,121,_Guitar,6,4,ninjyouupbeat+,0.9996547698974609,1
64,100,0.1590909090909091,475,0,121,_Guitar,6,3,ninjyouupbeat+,0.5522888898849487,0
59,100,0.3181818181818182,43,1,122,_Guitar,6,5,ninjyouupbeat+,0.9998050332069397,1
64,100,0.18181818181818182,123,0,122,_Guitar,6,3,ninjyouupbeat+,0.13152368366718292,0
64,100,0.36363636363636365,289,0,122,_Guitar,6,6,ninjyouupbeat+,0.11795339733362198,0
64,100,0.21818181818181817,404,0,122,_Guitar,6,3,ninjyouupbeat+,0.13606569170951843,0
59,100,0.2,695,1,122,_Guitar,6,3,ninjyouupbeat+,0.13643784821033478,0
59,100,0.2,752,0,122,_Guitar,6,3,ninjyouupbeat+,0.13012821972370148,0
59,100,0.2636363636363636,399,1,123,_Guitar,6,4,ninjyouupbeat+,0.9998331069946289,1
64,100,0.1590909090909091,800,1,123,_Guitar,6,3,ninjyouupbeat+,0.4214908182621002,0
64,100,0.2590909090909091,849,0,123,_Guitar,6,4,ninjyouupbeat+,0.4197410047054291,0
59,100,0.1,30,1,124,_Guitar,6,2,ninjyouupbeat+,0.9997710585594177,1
59,100,0.2590909090909091,62,0,124,_Guitar,6,4,ninjyouupbeat+,0.07829959690570831,0
59,100,0.21818181818181817,417,1,124,_Guitar,6,3,ninjyouupbeat+,0.07382550835609436,0
59,100,0.11818181818181818,483,0,124,_Guitar,6,2,ninjyouupbeat+,0.08160249888896942,0
59,100,0.1,576,0,124,_Guitar,6,2,ninjyouupbeat+,0.08924787491559982,0
59,100,0.5772727272727273,603,0,124,_Guitar,6,9,ninjyouupbeat+,0.09035299718379974,0
59,100,0.2772727272727273,756,0,124,_Guitar,6,4,ninjyouupbeat+,0.09303933382034302,0
59,100,0.2,153,1,125,_Guitar,6,3,ninjyouupbeat+,0.9932705760002136,0
59,100,0.6590909090909091,172,1,126,_Guitar,6,11,ninjyouupbeat+,0.9998107552528381,1
59,100,0.5409090909090909,365,0,126,_Guitar,6,9,ninjyouupbeat+,0.4184906482696533,0
54,100,0.6363636363636364,722,1,126,_Guitar,6,10,ninjyouupbeat+,0.43966543674468994,0
59,100,1.4772727272727273,546,1,128,_Guitar,6,15,ninjyouupbeat+,0.9907410144805908,0
59,100,0.12272727272727273,70,1,129,_Guitar,6,2,ninjyouupbeat+,0.9998433589935303,1
52,100,1.940909090909091,118,0,129,_Guitar,6,15,ninjyouupbeat+,0.26889461278915405,0
52,100,0.1590909090909091,580,1,129,_Guitar,6,3,ninjyouupbeat+,0.34642383456230164,0
52,100,0.13636363636363635,743,0,129,_Guitar,6,2,ninjyouupbeat+,0.3205474615097046,0
59,100,0.1,527,1,130,_Guitar,6,2,ninjyouupbeat+,0.9929908514022827,0
64,100,0.6818181818181818,232,1,131,_Guitar,6,11,ninjyouupbeat+,0.9998527765274048,1
64,100,0.13636363636363635,436,0,131,_Guitar,6,2,ninjyouupbeat+,0.3340701758861542,0
64,100,0.35909090909090907,656,0,131,_Guitar,6,6,ninjyouupbeat+,0.2868541479110718,0
59,100,0.2,751,0,131,_Guitar,6,3,ninjyouupbeat+,0.2993727922439575,0
64,100,0.4409090909090909,189,1,132,_Guitar,6,7,ninjyouupbeat+,0.999822199344635,1
52,100,1.3,285,0,132,_Guitar,6,15,ninjyouupbeat+,0.37161776423454285,0
52,100,0.3,633,1,132,_Guitar,6,5,ninjyouupbeat+,0.4641166627407074,0
66,100,0.18181818181818182,835,1,133,_Guitar,6,3,ninjyouupbeat+,0.9930692911148071,0
52,100,0.2818181818181818,197,1,134,_Guitar,6,5,ninjyouupbeat+,0.9996455907821655,1
59,100,0.11818181818181818,690,1,134,_Guitar,6,2,ninjyouupbeat+,0.5443283915519714,0
64,100,0.6818181818181818,770,1,135,_Guitar,6,11,ninjyouupbeat+,0.9927279949188232,0
64,100,0.1409090909090909,44,1,136,_Guitar,6,2,ninjyouupbeat+,0.9996563196182251,1
59,100,0.3,840,1,136,_Guitar,6,5,ninjyouupbeat+,0.5413724184036255,0
52,100,0.35909090909090907,207,1,137,_Guitar,6,6,ninjyouupbeat+,0.9998424053192139,1
59,100,0.21818181818181817,458,1,137,_Guitar,6,3,ninjyouupbeat+,0.20148612558841705,0
59,100,0.1409090909090909,510,0,137,_Guitar,6,2,ninjyouupbeat+,0.2015102654695511,0
56,100,0.13636363636363635,678,0,137,_Guitar,6,2,ninjyouupbeat+,0.20546790957450867,0
56,100,0.1590909090909091,747,0,137,_Guitar,6,3,ninjyouupbeat+,0.2049768716096878,0
57,100,0.4590909090909091,53,1,138,_Guitar,6,7,ninjyouupbeat+,0.999806821346283,1
57,100,0.3409090909090909,207,0,138,_Guitar,6,5,ninjyouupbeat+,0.43401703238487244,0
52,100,0.21818181818181817,835,1,138,_Guitar,6,3,ninjyouupbeat+,0.43737757205963135,0
57,100,0.17727272727272728,118,1,139,_Guitar,6,3,ninjyouupbeat+,0.9997230172157288,1
57,100,0.41818181818181815,197,0,139,_Guitar,6,7,ninjyouupbeat+,0.05474809929728508,0
59,100,0.2818181818181818,311,0,139,_Guitar,6,5,ninjyouupbeat+,0.049071989953517914,0
59,100,0.1590909090909091,562,1,139,_Guitar,6,3,ninjyouupbeat+,0.04903952777385712,0
59,100,0.11818181818181818,603,0,139,_Guitar,6,2,ninjyouupbeat+,0.052911415696144104,0
52,100,0.11818181818181818,678,0,139,_Guitar,6,2,ninjyouupbeat+,0.06155301257967949,0
64,100,0.1,735,0,139,_Guitar,6,2,ninjyouupbeat+,0.06720490753650665,0
52,100,0.11818181818181818,800,0,139,_Guitar,6,2,ninjyouupbeat+,0.05990910530090332,0
52,100,0.7,106,1,140,_Guitar,6,11,ninjyouupbeat+,0.9998226761817932,1
56,100,0.2409090909090909,299,0,140,_Guitar,6,4,ninjyouupbeat+,0.4219226837158203,0
59,100,0.18181818181818182,826,1,140,_Guitar,6,3,ninjyouupbeat+,0.4253622591495514,0
52,100,0.4590909090909091,391,1,141,_Guitar,6,7,ninjyouupbeat+,0.9998297691345215,1
52,100,0.1409090909090909,505,0,141,_Guitar,6,2,ninjyouupbeat+,0.42892512679100037,0
57,100,0.1,589,0,141,_Guitar,6,2,ninjyouupbeat+,0.4130591154098511,0
59,100,0.42272727272727273,246,1,142,_Guitar,6,7,ninjyouupbeat+,0.9998515844345093,1
52,100,0.1,699,1,142,_Guitar,6,2,ninjyouupbeat+,0.34958866238594055,0
52,100,0.1,804,0,142,_Guitar,6,2,ninjyouupbeat+,0.29318034648895264,0
52,100,0.759090909090909,849,0,142,_Guitar,6,12,ninjyouupbeat+,0.2853691279888153,0
52,100,0.1409090909090909,158,1,143,_Guitar,6,2,ninjyouupbeat+,0.9998629093170166,1
52,100,0.11818181818181818,307,0,143,_Guitar,6,2,ninjyouupbeat+,0.3091495633125305,0
52,100,0.2409090909090909,405,0,143,_Guitar,6,4,ninjyouupbeat+,0.2929708957672119,0
52,100,0.38181818181818183,519,0,143,_Guitar,6,6,ninjyouupbeat+,0.2918001711368561,0
64,100,0.1,30,1,144,_Guitar,6,2,ninjyouupbeat+,0.9996670484542847,1
52,100,0.13636363636363635,479,1,144,_Guitar,6,2,ninjyouupbeat+,0.5451853275299072,0
58,100,0.17727272727272728,273,1,6,_Guitar,6,3, Stems,0.9995977282524109,1
58,100,0.13636363636363635,590,1,6,_Guitar,6,2, Stems,0.5566067695617676,0
58,100,0.2,40,1,7,_Guitar,6,3, Stems,0.9998311996459961,1
56,100,0.12272727272727273,268,0,7,_Guitar,6,2, Stems,0.35676267743110657,0
58,100,0.5181818181818182,360,0,7,_Guitar,6,8, Stems,0.2785739004611969,0
58,100,0.1409090909090909,685,1,7,_Guitar,6,2, Stems,0.3327715992927551,0
58,100,0.2590909090909091,123,1,8,_Guitar,6,4, Stems,0.9997984766960144,1
58,100,0.3181818181818182,440,1,8,_Guitar,6,5, Stems,0.4312714636325836,0
58,100,0.5409090909090909,752,1,8,_Guitar,6,9, Stems,0.43698087334632874,0
58,100,0.6181818181818182,185,1,9,_Guitar,6,10, Stems,0.9997870326042175,1
58,100,0.5,524,1,9,_Guitar,6,8, Stems,0.4242204427719116,0
58,100,0.18181818181818182,857,1,9,_Guitar,6,3, Stems,0.45269545912742615,0
58,100,0.1,25,1,10,_Guitar,6,2, Stems,0.9998053908348083,1
58,100,0.5227272727272727,290,1,10,_Guitar,6,8, Stems,0.40490132570266724,0
58,100,0.5,625,1,10,_Guitar,6,8, Stems,0.4460209608078003,0
58,100,0.11818181818181818,53,1,11,_Guitar,6,2, Stems,0.9997968077659607,1
58,100,0.6,374,1,11,_Guitar,6,10, Stems,0.405538946390152,0
58,100,0.5590909090909091,682,1,11,_Guitar,6,9, Stems,0.4506193995475769,0
58,100,0.38181818181818183,792,1,12,_Guitar,6,6, Stems,0.9920114874839783,0
56,100,0.18181818181818182,135,1,13,_Guitar,6,3, Stems,0.9998441934585571,1
58,100,0.5772727272727273,216,0,13,_Guitar,6,9, Stems,0.2932138741016388,0
58,100,0.5181818181818182,550,1,13,_Guitar,6,8, Stems,0.3111996352672577,0
58,100,0.3409090909090909,871,1,13,_Guitar,6,5, Stems,0.3236313462257385,0
58,100,0.1,312,1,14,_Guitar,6,2, Stems,0.9998189806938171,1
58,100,0.21818181818181817,338,0,14,_Guitar,6,3, Stems,0.41371673345565796,0
58,100,0.2818181818181818,637,1,14,_Guitar,6,5, Stems,0.4332138001918793,0
63,100,0.18181818181818182,817,1,74,_Guitar,6,3, Stems,0.9931387305259705,0
55,100,0.11818181818181818,457,1,75,_Guitar,6,2, Stems,0.9998528957366943,1
63,100,0.12272727272727273,597,0,75,_Guitar,6,2, Stems,0.31185099482536316,0
63,100,0.2818181818181818,637,0,75,_Guitar,6,5, Stems,0.2927141785621643,0
63,100,0.2409090909090909,729,0,75,_Guitar,6,4, Stems,0.313007116317749,0
55,100,0.1,17,1,77,_Guitar,6,2, Stems,0.999830961227417,1
63,100,0.8409090909090909,163,0,77,_Guitar,6,13, Stems,0.19013608992099762,0
63,100,0.18181818181818182,352,0,77,_Guitar,6,3, Stems,0.22165800631046295,0
56,100,0.2,669,1,77,_Guitar,6,3, Stems,0.21953773498535156,0
63,100,0.4,857,0,77,_Guitar,6,6, Stems,0.20805366337299347,0
56,100,0.2590909090909091,189,1,78,_Guitar,6,4, Stems,0.9998316764831543,1
55,100,0.1409090909090909,426,1,78,_Guitar,6,2, Stems,0.4150592088699341,0
58,100,0.3181818181818182,660,1,78,_Guitar,6,5, Stems,0.4153863191604614,0
58,100,0.1409090909090909,294,1,79,_Guitar,6,2, Stems,0.9998290538787842,1
58,100,0.2,360,0,79,_Guitar,6,3, Stems,0.2047579288482666,0
58,100,0.2,514,0,79,_Guitar,6,3, Stems,0.20205941796302795,0
74,100,0.4818181818181818,637,0,79,_Guitar,6,8, Stems,0.22304943203926086,0
74,100,0.3,747,0,79,_Guitar,6,5, Stems,0.2146654725074768,0
63,100,1.3,9,1,80,_Guitar,6,15, Stems,0.999798595905304,1
58,100,0.12272727272727273,299,1,80,_Guitar,6,2, Stems,0.3906347453594208,0
63,100,0.6590909090909091,343,0,80,_Guitar,6,11, Stems,0.30180928111076355,0
53,100,1.7227272727272727,663,1,80,_Guitar,6,15, Stems,0.3175898492336273,0
63,100,0.2,527,1,81,_Guitar,6,3, Stems,0.9998120665550232,1
56,100,0.3181818181818182,743,0,81,_Guitar,6,5, Stems,0.4335423707962036,0
58,100,0.42272727272727273,826,0,81,_Guitar,6,7, Stems,0.42008835077285767,0
58,100,0.18181818181818182,56,1,82,_Guitar,6,3, Stems,0.999841570854187,1
53,100,0.4,286,0,82,_Guitar,6,6, Stems,0.3369288742542267,0
68,100,0.35909090909090907,493,0,82,_Guitar,6,6, Stems,0.29839426279067993,0
68,100,0.5409090909090909,839,1,82,_Guitar,6,9, Stems,0.30548015236854553,0
82,100,0.1409090909090909,356,1,83,_Guitar,6,2, Stems,0.999840259552002,1
58,100,0.18181818181818182,399,0,83,_Guitar,6,3, Stems,0.32364991307258606,0
55,100,0.1409090909090909,619,0,83,_Guitar,6,2, Stems,0.30524635314941406,0
55,100,0.11818181818181818,690,0,83,_Guitar,6,2, Stems,0.31177377700805664,0
58,100,0.21818181818181817,83,1,84,_Guitar,6,3, Stems,0.9998111128807068,1
58,100,0.6818181818181818,197,0,84,_Guitar,6,11, Stems,0.20652742683887482,0
55,100,0.2,373,0,84,_Guitar,6,3, Stems,0.2291964888572693,0
58,100,0.1409090909090909,422,0,84,_Guitar,6,2, Stems,0.21592503786087036,0
58,100,0.1,567,0,84,_Guitar,6,2, Stems,0.221314936876297,0
58,100,0.18181818181818182,312,1,85,_Guitar,6,3, Stems,0.9998393058776855,1
58,100,0.3,462,0,85,_Guitar,6,5, Stems,0.324471652507782,0
55,100,0.1590909090909091,536,0,85,_Guitar,6,3, Stems,0.3072013556957245,0
58,100,0.21818181818181817,703,0,85,_Guitar,6,3, Stems,0.3102811276912689,0
58,100,0.2590909090909091,74,1,86,_Guitar,6,4, Stems,0.9998396635055542,1
55,100,0.12272727272727273,509,1,86,_Guitar,6,2, Stems,0.3459489643573761,0
63,100,0.21818181818181817,550,0,86,_Guitar,6,3, Stems,0.2929805815219879,0
58,100,0.13636363636363635,876,1,86,_Guitar,6,2, Stems,0.3071390986442566,0
55,100,0.17727272727272728,119,1,87,_Guitar,6,3, Stems,0.9998267292976379,1
55,100,0.17727272727272728,184,0,87,_Guitar,6,3, Stems,0.41414201259613037,0
58,100,0.18181818181818182,399,0,87,_Guitar,6,3, Stems,0.4232569932937622,0
58,100,0.5,66,1,88,_Guitar,6,8, Stems,0.9997829794883728,1
62,100,0.21818181818181817,176,0,88,_Guitar,6,3, Stems,0.1393272876739502,0
58,100,0.2772727272727273,237,0,88,_Guitar,6,4, Stems,0.11957582831382751,0
58,100,0.1590909090909091,409,0,88,_Guitar,6,3, Stems,0.14291077852249146,0
55,100,0.12272727272727273,475,0,88,_Guitar,6,2, Stems,0.15770842134952545,0
58,100,0.2,650,0,88,_Guitar,6,3, Stems,0.13474586606025696,0
58,100,0.13636363636363635,106,1,89,_Guitar,6,2, Stems,0.99273681640625,1
53,100,0.11818181818181818,282,1,0,DL_Guitar,6,2,omokage_stem,0.9998525381088257,1
55,100,0.4409090909090909,317,0,0,DL_Guitar,6,7,omokage_stem,0.30020061135292053,0
58,100,0.13636363636363635,634,1,0,DL_Guitar,6,2,omokage_stem,0.3016563951969147,0
67,100,0.22272727272727272,695,0,0,DL_Guitar,6,4,omokage_stem,0.3169262409210205,0
58,100,0.36363636363636365,180,1,1,DL_Guitar,6,6,omokage_stem,0.9995595812797546,1
53,100,0.3409090909090909,559,1,1,DL_Guitar,6,5,omokage_stem,0.563693642616272,0
70,100,0.2818181818181818,330,1,2,DL_Guitar,6,5,omokage_stem,0.9997907280921936,1
72,100,0.2409090909090909,396,0,2,DL_Guitar,6,4,omokage_stem,0.1422131508588791,0
70,100,0.2772727272727273,523,0,2,DL_Guitar,6,4,omokage_stem,0.1180475503206253,0
72,100,0.2772727272727273,590,0,2,DL_Guitar,6,4,omokage_stem,0.15259484946727753,0
53,100,0.12272727272727273,651,0,2,DL_Guitar,6,2,omokage_stem,0.15120965242385864,0
70,100,0.8,726,0,2,DL_Guitar,6,13,omokage_stem,0.1237737163901329,0
58,100,0.2590909090909091,21,1,3,DL_Guitar,6,4,omokage_stem,0.9997434020042419,1
70,100,0.21818181818181817,83,0,3,DL_Guitar,6,3,omokage_stem,0.08116237819194794,0
70,100,0.3181818181818182,140,0,3,DL_Guitar,6,5,omokage_stem,0.07503177225589752,0
65,100,0.2772727272727273,470,1,3,DL_Guitar,6,4,omokage_stem,0.08974730223417282,0
67,100,0.2772727272727273,537,0,3,DL_Guitar,6,4,omokage_stem,0.09286381304264069,0
65,100,0.2818181818181818,663,0,3,DL_Guitar,6,5,omokage_stem,0.10676251351833344,0
67,100,0.2409090909090909,730,0,3,DL_Guitar,6,4,omokage_stem,0.09015383571386337,0
53,100,0.2409090909090909,0,1,4,DL_Guitar,6,4,omokage_stem,0.9996776580810547,1
53,100,0.6227272727272727,79,0,4,DL_Guitar,6,10,omokage_stem,0.034712571650743484,0
65,100,0.37727272727272726,215,0,4,DL_Guitar,6,6,omokage_stem,0.02588793821632862,0
53,100,0.4590909090909091,299,0,4,DL_Guitar,6,7,omokage_stem,0.021850712597370148,0
53,100,0.11818181818181818,493,0,4,DL_Guitar,6,2,omokage_stem,0.02046857960522175,0
53,100,0.3181818181818182,527,0,4,DL_Guitar,6,5,omokage_stem,0.019365323707461357,0
53,100,0.17727272727272728,611,0,4,DL_Guitar,6,3,omokage_stem,0.024433186277747154,0
65,100,0.4,651,0,4,DL_Guitar,6,6,omokage_stem,0.0301311444491148,0
53,100,0.2,739,0,4,DL_Guitar,6,3,omokage_stem,0.039702046662569046,0
65,100,0.4590909090909091,782,0,4,DL_Guitar,6,7,omokage_stem,0.038186557590961456,0
53,100,0.1409090909090909,493,1,5,DL_Guitar,6,2,omokage_stem,0.9996389150619507,1
58,100,0.2,524,0,5,DL_Guitar,6,3,omokage_stem,0.5350576639175415,0
53,100,0.3,255,1,6,DL_Guitar,6,5,omokage_stem,0.9996309280395508,1
53,100,0.17727272727272728,647,1,6,DL_Guitar,6,3,omokage_stem,0.5511196851730347,0
58,100,0.5181818181818182,457,1,9,DL_Guitar,6,8,omokage_stem,0.9920560717582703,0
53,100,0.18181818181818182,783,1,10,DL_Guitar,6,3,omokage_stem,0.9996168613433838,1
53,100,0.2590909090909091,835,0,10,DL_Guitar,6,4,omokage_stem,0.5537828207015991,0
63,100,0.1,259,1,13,DL_Guitar,6,2,omokage_stem,0.993269145488739,0
53,100,0.11818181818181818,668,1,14,DL_Guitar,6,2,omokage_stem,0.9933416247367859,0
55,100,0.5636363636363636,290,1,15,DL_Guitar,6,9,omokage_stem,0.999830961227417,1
53,100,0.38181818181818183,519,0,15,DL_Guitar,6,6,omokage_stem,0.3441303074359894,0
53,100,0.18181818181818182,739,0,15,DL_Guitar,6,3,omokage_stem,0.30311572551727295,0
53,100,0.17727272727272728,801,0,15,DL_Guitar,6,3,omokage_stem,0.30768054723739624,0
53,100,0.22272727272727272,48,1,16,DL_Guitar,6,4,omokage_stem,0.9998428821563721,1
53,100,0.11818181818181818,308,1,16,DL_Guitar,6,2,omokage_stem,0.20632797479629517,0
53,100,0.12272727272727273,343,0,16,DL_Guitar,6,2,omokage_stem,0.1932862251996994,0
53,100,0.2590909090909091,436,0,16,DL_Guitar,6,4,omokage_stem,0.2001185119152069,0
53,100,0.2772727272727273,700,1,16,DL_Guitar,6,4,omokage_stem,0.19913798570632935,0
53,100,0.17727272727272728,546,1,18,DL_Guitar,6,3,omokage_stem,0.9933449029922485,0
53,100,0.2409090909090909,505,1,19,DL_Guitar,6,4,omokage_stem,0.9996542930603027,1
53,100,0.2590909090909091,681,0,19,DL_Guitar,6,4,omokage_stem,0.5479961633682251,0
53,100,0.13636363636363635,150,1,20,DL_Guitar,6,2,omokage_stem,0.9996349811553955,1
58,100,0.2818181818181818,461,1,20,DL_Guitar,6,5,omokage_stem,0.5358914136886597,0
53,100,0.43636363636363634,810,1,21,DL_Guitar,6,7,omokage_stem,0.9930608868598938,0
53,100,0.2,162,1,22,DL_Guitar,6,3,omokage_stem,0.9998375177383423,1
53,100,0.2,299,0,22,DL_Guitar,6,3,omokage_stem,0.40512213110923767,0
53,100,0.13636363636363635,436,0,22,DL_Guitar,6,2,omokage_stem,0.4235822558403015,0
58,100,0.11818181818181818,0,1,23,DL_Guitar,6,2,omokage_stem,0.9998103976249695,1
63,100,0.22272727272727272,100,0,23,DL_Guitar,6,4,omokage_stem,0.42899665236473083,0
63,100,0.18181818181818182,179,0,23,DL_Guitar,6,3,omokage_stem,0.434014230966568,0
53,100,0.1590909090909091,430,1,26,DL_Guitar,6,3,omokage_stem,0.9998123049736023,1
53,100,0.4818181818181818,474,0,26,DL_Guitar,6,8,omokage_stem,0.11530105024576187,0
53,100,0.11818181818181818,700,0,26,DL_Guitar,6,2,omokage_stem,0.12841537594795227,0
53,100,0.1,756,0,26,DL_Guitar,6,2,omokage_stem,0.13674716651439667,0
53,100,0.2590909090909091,801,0,26,DL_Guitar,6,4,omokage_stem,0.13657285273075104,0
53,100,0.2818181818181818,870,0,26,DL_Guitar,6,5,omokage_stem,0.1304696500301361,0
53,100,0.21818181818181817,131,1,27,DL_Guitar,6,3,omokage_stem,0.9932848215103149,0
63,100,0.33636363636363636,106,1,28,DL_Guitar,6,5,omokage_stem,0.9998195767402649,1
70,100,0.2772727272727273,260,0,28,DL_Guitar,6,4,omokage_stem,0.3931925892829895,0
53,100,0.1,426,0,28,DL_Guitar,6,2,omokage_stem,0.45855724811553955,0
70,100,0.1409090909090909,409,1,29,DL_Guitar,6,2,omokage_stem,0.9927892088890076,0
53,100,0.2409090909090909,607,1,30,DL_Guitar,6,4,omokage_stem,0.9995948672294617,1
58,100,0.8409090909090909,866,1,30,DL_Guitar,6,13,omokage_stem,0.5304042100906372,0
58,100,0.1409090909090909,405,1,31,DL_Guitar,6,2,omokage_stem,0.992973804473877,0
58,100,0.11818181818181818,43,1,33,DL_Guitar,6,2,omokage_stem,0.999821126461029,1
58,100,1.0,118,0,33,DL_Guitar,6,15,omokage_stem,0.18554221093654633,0
53,100,0.2,364,1,33,DL_Guitar,6,3,omokage_stem,0.2405022829771042,0
58,100,0.21818181818181817,616,1,33,DL_Guitar,6,3,omokage_stem,0.20951281487941742,0
58,100,0.17727272727272728,765,0,33,DL_Guitar,6,3,omokage_stem,0.2265273779630661,0
53,100,0.2818181818181818,123,1,35,DL_Guitar,6,5,omokage_stem,0.9931356906890869,0
55,100,0.1409090909090909,483,1,36,DL_Guitar,6,2,omokage_stem,0.9996305704116821,1
55,100,0.2,818,1,36,DL_Guitar,6,3,omokage_stem,0.5437790751457214,0
55,100,0.2409090909090909,34,1,37,DL_Guitar,6,4,omokage_stem,0.9998288154602051,1
55,100,0.1409090909090909,228,0,37,DL_Guitar,6,2,omokage_stem,0.21464912593364716,0
53,100,0.1590909090909091,616,1,37,DL_Guitar,6,3,omokage_stem,0.19980771839618683,0
53,100,0.2,678,0,37,DL_Guitar,6,3,omokage_stem,0.20882637798786163,0
53,100,0.2,866,0,37,DL_Guitar,6,3,omokage_stem,0.20699454843997955,0
53,100,0.2,114,1,38,DL_Guitar,6,3,omokage_stem,0.9998356103897095,1
53,100,0.2590909090909091,298,0,38,DL_Guitar,6,4,omokage_stem,0.4030555486679077,0
53,100,0.32272727272727275,431,0,38,DL_Guitar,6,5,omokage_stem,0.42522260546684265,0
53,100,0.22272727272727272,518,1,39,DL_Guitar,6,4,omokage_stem,0.9933515191078186,0
53,100,0.3,13,1,40,DL_Guitar,6,5,omokage_stem,0.9998273253440857,1
58,100,0.3181818181818182,338,1,40,DL_Guitar,6,5,omokage_stem,0.405598908662796,0
58,100,0.38181818181818183,571,1,40,DL_Guitar,6,6,omokage_stem,0.4252655506134033,0
53,100,0.2409090909090909,813,1,41,DL_Guitar,6,4,omokage_stem,0.9935715198516846,1
53,100,0.2,298,1,42,DL_Guitar,6,3,omokage_stem,0.9934234619140625,0
53,100,0.4636363636363636,378,1,44,DL_Guitar,6,7,omokage_stem,0.999631404876709,1
53,100,0.1409090909090909,483,0,44,DL_Guitar,6,2,omokage_stem,0.5566912293434143,0
53,100,0.17727272727272728,193,1,46,DL_Guitar,6,3,omokage_stem,0.9996359348297119,1
53,100,0.3409090909090909,246,0,46,DL_Guitar,6,5,omokage_stem,0.5463639497756958,0
53,100,0.4590909090909091,396,1,47,DL_Guitar,6,7,omokage_stem,0.9998134970664978,1
53,100,0.7181818181818181,655,1,47,DL_Guitar,6,11,omokage_stem,0.4060949683189392,0
53,100,0.6818181818181818,839,0,47,DL_Guitar,6,11,omokage_stem,0.43366727232933044,0
58,100,0.5409090909090909,289,1,48,DL_Guitar,6,9,omokage_stem,0.9997962117195129,1
53,100,0.17727272727272728,536,1,48,DL_Guitar,6,3,omokage_stem,0.45702171325683594,0
57,100,0.21818181818181817,791,1,48,DL_Guitar,6,3,omokage_stem,0.4267476201057434,0
53,100,0.21818181818181817,286,1,49,DL_Guitar,6,3,omokage_stem,0.9998353719711304,1
54,100,0.11818181818181818,616,1,49,DL_Guitar,6,2,omokage_stem,0.4070626199245453,0
53,100,0.2590909090909091,678,0,49,DL_Guitar,6,4,omokage_stem,0.42364224791526794,0
53,100,0.2,128,1,50,DL_Guitar,6,3,omokage_stem,0.9998445510864258,1
53,100,0.18181818181818182,286,0,50,DL_Guitar,6,3,omokage_stem,0.2076731026172638,0
53,100,0.11818181818181818,330,0,50,DL_Guitar,6,2,omokage_stem,0.19722147285938263,0
53,100,0.1590909090909091,370,0,50,DL_Guitar,6,3,omokage_stem,0.2040046602487564,0
70,100,0.11818181818181818,791,1,50,DL_Guitar,6,2,omokage_stem,0.19266584515571594,0
58,100,0.1409090909090909,681,1,56,DL_Guitar,6,2,omokage_stem,0.9930570125579834,0
53,100,0.11818181818181818,396,1,58,DL_Guitar,6,2,omokage_stem,0.99985671043396,1
53,100,0.1409090909090909,509,0,58,DL_Guitar,6,2,omokage_stem,0.3252408802509308,0
53,100,0.37727272727272726,646,0,58,DL_Guitar,6,6,omokage_stem,0.28212103247642517,0
58,100,0.11818181818181818,858,0,58,DL_Guitar,6,2,omokage_stem,0.30094704031944275,0
53,100,0.4,150,1,59,DL_Guitar,6,6,omokage_stem,0.9996137022972107,1
58,100,0.12272727272727273,276,0,59,DL_Guitar,6,2,omokage_stem,0.5436723232269287,0
63,100,0.4409090909090909,703,1,74,DL_Guitar,6,7,omokage_stem,0.9995920062065125,1
63,100,0.3409090909090909,826,0,74,DL_Guitar,6,5,omokage_stem,0.55339515209198,0
53,100,0.3409090909090909,487,1,75,DL_Guitar,6,5,omokage_stem,0.9998338222503662,1
53,100,0.12272727272727273,805,1,75,DL_Guitar,6,2,omokage_stem,0.41529250144958496,0
53,100,0.23636363636363636,876,0,75,DL_Guitar,6,4,omokage_stem,0.4212783873081207,0
58,100,0.1409090909090909,770,1,86,DL_Guitar,6,2,omokage_stem,0.9925820827484131,0
58,100,0.4590909090909091,132,1,87,DL_Guitar,6,7,omokage_stem,0.9995712637901306,1
60,100,0.18181818181818182,487,1,87,DL_Guitar,6,3,omokage_stem,0.5737051963806152,0
53,100,0.1590909090909091,153,1,88,DL_Guitar,6,3,omokage_stem,0.999843955039978,1
53,100,0.22272727272727272,202,0,88,DL_Guitar,6,4,omokage_stem,0.20131386816501617,0
53,100,0.3,286,0,88,DL_Guitar,6,5,omokage_stem,0.19619065523147583,0
62,100,0.33636363636363636,523,1,88,DL_Guitar,6,5,omokage_stem,0.2049449384212494,0
53,100,0.16363636363636364,839,1,88,DL_Guitar,6,3,omokage_stem,0.20508533716201782,0
58,100,0.5409090909090909,197,1,90,DL_Guitar,6,9,omokage_stem,0.999795138835907,1
58,100,0.1,509,1,90,DL_Guitar,6,2,omokage_stem,0.4524421989917755,0
62,100,0.1590909090909091,810,1,90,DL_Guitar,6,3,omokage_stem,0.4405367374420166,0
62,100,0.22272727272727272,246,1,91,DL_Guitar,6,4,omokage_stem,0.9996138215065002,1
53,100,1.040909090909091,703,1,91,DL_Guitar,6,15,omokage_stem,0.531924307346344,0
53,100,0.18181818181818182,289,1,92,DL_Guitar,6,3,omokage_stem,0.9996367692947388,1
53,100,0.4,430,0,92,DL_Guitar,6,6,omokage_stem,0.5465919375419617,0
52,100,0.20454545454545456,384,1,0,DL_Guitar_1,6,3,DL_Guitar_1,0.9998629093170166,1
60,100,0.09090909090909091,732,1,0,DL_Guitar_1,6,1,DL_Guitar_1,0.3181542158126831,0
64,100,0.12727272727272726,809,0,0,DL_Guitar_1,6,2,DL_Guitar_1,0.28764578700065613,0
64,100,0.2590909090909091,845,0,0,DL_Guitar_1,6,4,DL_Guitar_1,0.2960364818572998,0
52,100,0.36818181818181817,73,1,1,DL_Guitar_1,6,6,DL_Guitar_1,0.9997323155403137,1
59,100,0.14545454545454545,183,0,1,DL_Guitar_1,6,2,DL_Guitar_1,0.05593133717775345,0
52,100,0.5909090909090909,244,0,1,DL_Guitar_1,6,9,DL_Guitar_1,0.04597344249486923,0
53,100,0.09090909090909091,386,0,1,DL_Guitar_1,6,1,DL_Guitar_1,0.04894595593214035,0
60,100,0.40454545454545454,620,1,1,DL_Guitar_1,6,6,DL_Guitar_1,0.05066144838929176,0
65,100,0.1318181818181818,713,0,1,DL_Guitar_1,6,2,DL_Guitar_1,0.061662644147872925,0
57,100,0.16363636363636364,778,0,1,DL_Guitar_1,6,3,DL_Guitar_1,0.0630890429019928,0
57,100,0.2590909090909091,863,0,1,DL_Guitar_1,6,4,DL_Guitar_1,0.06034266948699951,0
53,100,0.23636363636363636,60,1,2,DL_Guitar_1,6,4,DL_Guitar_1,0.99970942735672,1
53,100,0.11363636363636363,116,0,2,DL_Guitar_1,6,2,DL_Guitar_1,0.043138522654771805,0
53,100,0.16363636363636364,222,0,2,DL_Guitar_1,6,3,DL_Guitar_1,0.033285122364759445,0
60,100,0.40454545454545454,290,0,2,DL_Guitar_1,6,6,DL_Guitar_1,0.02921055257320404,0
57,100,0.40454545454545454,428,0,2,DL_Guitar_1,6,6,DL_Guitar_1,0.029772834852337837,0
62,100,0.15,573,0,2,DL_Guitar_1,6,2,DL_Guitar_1,0.03451240062713623,0
62,100,0.2772727272727273,638,0,2,DL_Guitar_1,6,4,DL_Guitar_1,0.04114745184779167,0
57,100,0.18181818181818182,776,0,2,DL_Guitar_1,6,3,DL_Guitar_1,0.04646025970578194,0
62,100,0.31363636363636366,852,0,2,DL_Guitar_1,6,5,DL_Guitar_1,0.04739132896065712,0
62,100,0.10909090909090909,210,1,3,DL_Guitar_1,6,2,DL_Guitar_1,0.9998465776443481,1
60,100,0.12727272727272726,663,1,3,DL_Guitar_1,6,2,DL_Guitar_1,0.40202993154525757,0
60,100,0.20454545454545456,877,0,3,DL_Guitar_1,6,3,DL_Guitar_1,0.42017048597335815,0
60,100,0.11363636363636363,551,1,4,DL_Guitar_1,6,2,DL_Guitar_1,0.9998170733451843,1
64,100,0.11363636363636363,633,0,4,DL_Guitar_1,6,2,DL_Guitar_1,0.1269921064376831,0
64,100,0.18181818181818182,682,0,4,DL_Guitar_1,6,3,DL_Guitar_1,0.11847331374883652,0
64,100,0.2772727272727273,733,0,4,DL_Guitar_1,6,4,DL_Guitar_1,0.1277536302804947,0
64,100,0.16818181818181818,799,0,4,DL_Guitar_1,6,3,DL_Guitar_1,0.1342082917690277,0
64,100,0.18181818181818182,851,0,4,DL_Guitar_1,6,3,DL_Guitar_1,0.12364347279071808,0
64,100,0.15,16,1,5,DL_Guitar_1,6,2,DL_Guitar_1,0.9998464584350586,1
52,100,0.09090909090909091,80,0,5,DL_Guitar_1,6,1,DL_Guitar_1,0.20859508216381073,0
52,100,0.4818181818181818,226,0,5,DL_Guitar_1,6,8,DL_Guitar_1,0.18989358842372894,0
60,100,0.29545454545454547,654,1,5,DL_Guitar_1,6,5,DL_Guitar_1,0.20842398703098297,0
57,100,0.7545454545454545,735,0,5,DL_Guitar_1,6,12,DL_Guitar_1,0.19074638187885284,0
60,100,0.10909090909090909,22,1,6,DL_Guitar_1,6,2,DL_Guitar_1,0.9998596906661987,1
62,100,0.2772727272727273,446,1,6,DL_Guitar_1,6,4,DL_Guitar_1,0.315215528011322,0
62,100,0.31363636363636366,526,0,6,DL_Guitar_1,6,5,DL_Guitar_1,0.28708916902542114,0
62,100,0.2409090909090909,704,0,6,DL_Guitar_1,6,4,DL_Guitar_1,0.3069392442703247,0
62,100,0.4954545454545455,75,1,7,DL_Guitar_1,6,8,DL_Guitar_1,0.9997965693473816,1
62,100,0.12727272727272726,218,0,7,DL_Guitar_1,6,2,DL_Guitar_1,0.13068050146102905,0
62,100,0.22272727272727272,625,1,7,DL_Guitar_1,6,4,DL_Guitar_1,0.12451712042093277,0
62,100,0.16363636363636364,686,0,7,DL_Guitar_1,6,3,DL_Guitar_1,0.1360258013010025,0
62,100,0.15,731,0,7,DL_Guitar_1,6,2,DL_Guitar_1,0.14348386228084564,0
62,100,0.10909090909090909,865,0,7,DL_Guitar_1,6,2,DL_Guitar_1,0.1320715695619583,0
62,100,0.12727272727272726,199,1,8,DL_Guitar_1,6,2,DL_Guitar_1,0.9998469352722168,1
62,100,0.09090909090909091,369,0,8,DL_Guitar_1,6,1,DL_Guitar_1,0.20191024243831635,0
60,100,0.8454545454545455,453,0,8,DL_Guitar_1,6,14,DL_Guitar_1,0.1798686981201172,0
60,100,0.40454545454545454,648,0,8,DL_Guitar_1,6,6,DL_Guitar_1,0.21746766567230225,0
57,100,0.2409090909090909,842,0,8,DL_Guitar_1,6,4,DL_Guitar_1,0.20897279679775238,0
60,100,0.14545454545454545,22,1,9,DL_Guitar_1,6,2,DL_Guitar_1,0.9997127652168274,1
53,100,0.20454545454545456,70,0,9,DL_Guitar_1,6,3,DL_Guitar_1,0.04201085865497589,0
59,100,0.09090909090909091,120,0,9,DL_Guitar_1,6,1,DL_Guitar_1,0.03358091786503792,0
59,100,0.38636363636363635,305,0,9,DL_Guitar_1,6,6,DL_Guitar_1,0.029083460569381714,0
60,100,0.09090909090909091,398,0,9,DL_Guitar_1,6,1,DL_Guitar_1,0.03223339095711708,0
60,100,0.7545454545454545,458,0,9,DL_Guitar_1,6,12,DL_Guitar_1,0.03126023709774017,0
55,100,0.22272727272727272,737,1,9,DL_Guitar_1,6,4,DL_Guitar_1,0.04355187714099884,0
53,100,0.09090909090909091,790,0,9,DL_Guitar_1,6,1,DL_Guitar_1,0.05042373016476631,0
55,100,0.16818181818181818,819,0,9,DL_Guitar_1,6,3,DL_Guitar_1,0.04602532088756561,0
55,100,0.14545454545454545,146,1,10,DL_Guitar_1,6,2,DL_Guitar_1,0.9998376369476318,1
55,100,0.18181818181818182,182,0,10,DL_Guitar_1,6,3,DL_Guitar_1,0.20859359204769135,0
62,100,0.09090909090909091,278,0,10,DL_Guitar_1,6,1,DL_Guitar_1,0.20443904399871826,0
62,100,0.36818181818181817,307,0,10,DL_Guitar_1,6,6,DL_Guitar_1,0.20297257602214813,0
55,100,0.6636363636363637,477,0,10,DL_Guitar_1,6,11,DL_Guitar_1,0.20457547903060913,0
52,100,0.44545454545454544,82,1,11,DL_Guitar_1,6,7,DL_Guitar_1,0.9998435974121094,1
52,100,0.1318181818181818,247,0,11,DL_Guitar_1,6,2,DL_Guitar_1,0.21444648504257202,0
53,100,0.12727272727272726,362,0,11,DL_Guitar_1,6,2,DL_Guitar_1,0.19281071424484253,0
60,100,0.16363636363636364,498,0,11,DL_Guitar_1,6,3,DL_Guitar_1,0.20321232080459595,0
67,100,0.5318181818181819,644,0,11,DL_Guitar_1,6,9,DL_Guitar_1,0.1924603283405304,0
53,100,0.18181818181818182,75,1,12,DL_Guitar_1,6,3,DL_Guitar_1,0.9997721314430237,1
53,100,0.14545454545454545,254,0,12,DL_Guitar_1,6,2,DL_Guitar_1,0.08060170710086823,0
55,100,0.11363636363636363,371,0,12,DL_Guitar_1,6,2,DL_Guitar_1,0.0711362212896347,0
62,100,0.5681818181818182,508,0,12,DL_Guitar_1,6,9,DL_Guitar_1,0.07749457657337189,0
62,100,0.11363636363636363,665,0,12,DL_Guitar_1,6,2,DL_Guitar_1,0.09542233496904373,0
62,100,0.38636363636363635,694,0,12,DL_Guitar_1,6,6,DL_Guitar_1,0.0938505083322525,0
62,100,0.31363636363636366,792,0,12,DL_Guitar_1,6,5,DL_Guitar_1,0.08810228109359741,0
55,100,0.35,101,1,13,DL_Guitar_1,6,6,DL_Guitar_1,0.9998179078102112,1
55,100,0.12727272727272726,348,1,13,DL_Guitar_1,6,2,DL_Guitar_1,0.42411449551582336,0
64,100,0.33181818181818185,752,1,13,DL_Guitar_1,6,5,DL_Guitar_1,0.4365301728248596,0
62,100,0.22272727272727272,1,1,14,DL_Guitar_1,6,4,DL_Guitar_1,0.9998332262039185,1
62,100,0.3090909090909091,123,0,14,DL_Guitar_1,6,5,DL_Guitar_1,0.20783758163452148,0
55,100,0.7,252,0,14,DL_Guitar_1,6,11,DL_Guitar_1,0.18949085474014282,0
52,100,0.33181818181818185,422,0,14,DL_Guitar_1,6,5,DL_Guitar_1,0.2295268028974533,0
55,100,0.36818181818181817,555,0,14,DL_Guitar_1,6,6,DL_Guitar_1,0.20733968913555145,0
52,100,0.18636363636363637,27,1,15,DL_Guitar_1,6,3,DL_Guitar_1,0.9998175501823425,1
52,100,0.16363636363636364,89,0,15,DL_Guitar_1,6,3,DL_Guitar_1,0.12144120037555695,0
60,100,0.18181818181818182,154,0,15,DL_Guitar_1,6,3,DL_Guitar_1,0.11715957522392273,0
52,100,0.6954545454545454,250,0,15,DL_Guitar_1,6,11,DL_Guitar_1,0.12822173535823822,0
60,100,0.2590909090909091,465,0,15,DL_Guitar_1,6,4,DL_Guitar_1,0.14650580286979675,0
65,100,0.12727272727272726,646,0,15,DL_Guitar_1,6,2,DL_Guitar_1,0.12804178893566132,0
65,100,0.14545454545454545,664,1,16,DL_Guitar_1,6,2,DL_Guitar_1,0.99965500831604,1
65,100,0.11363636363636363,701,0,16,DL_Guitar_1,6,2,DL_Guitar_1,0.5459169745445251,0
53,100,0.16818181818181818,88,1,17,DL_Guitar_1,6,3,DL_Guitar_1,0.9998354911804199,1
53,100,0.10909090909090909,133,0,17,DL_Guitar_1,6,2,DL_Guitar_1,0.41777995228767395,0
64,100,0.29545454545454547,475,1,17,DL_Guitar_1,6,5,DL_Guitar_1,0.41997069120407104,0
52,100,0.23636363636363636,461,1,18,DL_Guitar_1,6,4,DL_Guitar_1,0.99985671043396,1
60,100,0.6090909090909091,514,0,18,DL_Guitar_1,6,10,DL_Guitar_1,0.3047148287296295,0
55,100,0.14545454545454545,660,0,18,DL_Guitar_1,6,2,DL_Guitar_1,0.30334895849227905,0
55,100,0.7727272727272727,700,0,18,DL_Guitar_1,6,12,DL_Guitar_1,0.2907460629940033,0
55,100,0.16363636363636364,43,1,19,DL_Guitar_1,6,3,DL_Guitar_1,0.9998354911804199,1
55,100,0.22272727272727272,168,0,19,DL_Guitar_1,6,4,DL_Guitar_1,0.2046544998884201,0
52,100,0.5136363636363637,220,0,19,DL_Guitar_1,6,8,DL_Guitar_1,0.20041777193546295,0
52,100,0.1318181818181818,354,0,19,DL_Guitar_1,6,2,DL_Guitar_1,0.21517960727214813,0
55,100,0.4409090909090909,763,1,19,DL_Guitar_1,6,7,DL_Guitar_1,0.19786196947097778,0
55,100,0.29545454545454547,0,1,20,DL_Guitar_1,6,5,DL_Guitar_1,0.9998260140419006,1
62,100,0.12727272727272726,65,0,20,DL_Guitar_1,6,2,DL_Guitar_1,0.22476911544799805,0
55,100,0.18181818181818182,267,0,20,DL_Guitar_1,6,3,DL_Guitar_1,0.19440335035324097,0
55,100,0.34545454545454546,323,0,20,DL_Guitar_1,6,6,DL_Guitar_1,0.2030918449163437,0
52,100,0.2772727272727273,865,1,20,DL_Guitar_1,6,4,DL_Guitar_1,0.21661794185638428,0
52,100,0.18181818181818182,103,1,21,DL_Guitar_1,6,3,DL_Guitar_1,0.9998430013656616,1
52,100,0.2909090909090909,188,0,21,DL_Guitar_1,6,5,DL_Guitar_1,0.20004990696907043,0
52,100,1.3045454545454545,268,0,21,DL_Guitar_1,6,15,DL_Guitar_1,0.174515038728714,0
55,100,0.11363636363636363,624,1,21,DL_Guitar_1,6,2,DL_Guitar_1,0.23123015463352203,0
52,100,0.2590909090909091,786,0,21,DL_Guitar_1,6,4,DL_Guitar_1,0.21307708323001862,0
55,100,0.2590909090909091,281,1,22,DL_Guitar_1,6,4,DL_Guitar_1,0.9998199343681335,1
56,100,0.10909090909090909,399,0,22,DL_Guitar_1,6,2,DL_Guitar_1,0.4272460639476776,0
60,100,0.8272727272727273,475,0,22,DL_Guitar_1,6,13,DL_Guitar_1,0.4203995168209076,0
52,100,0.4409090909090909,4,1,23,DL_Guitar_1,6,7,DL_Guitar_1,0.9998441934585571,1
55,100,0.2590909090909091,223,0,23,DL_Guitar_1,6,4,DL_Guitar_1,0.3257279694080353,0
55,100,0.22272727272727272,336,0,23,DL_Guitar_1,6,4,DL_Guitar_1,0.290203720331192,0
59,100,0.23636363636363636,543,0,23,DL_Guitar_1,6,4,DL_Guitar_1,0.31160232424736023,0
52,100,0.29545454545454547,2,1,24,DL_Guitar_1,6,5,DL_Guitar_1,0.9997327923774719,1
52,100,0.5,277,1,24,DL_Guitar_1,6,8,DL_Guitar_1,0.0533190481364727,0
65,100,0.12727272727272726,402,0,24,DL_Guitar_1,6,2,DL_Guitar_1,0.046803224831819534,0
65,100,0.18181818181818182,488,0,24,DL_Guitar_1,6,3,DL_Guitar_1,0.046607330441474915,0
65,100,0.5136363636363637,532,0,24,DL_Guitar_1,6,8,DL_Guitar_1,0.0471201129257679,0
53,100,0.12727272727272726,657,0,24,DL_Guitar_1,6,2,DL_Guitar_1,0.061825379729270935,0
65,100,0.6818181818181818,686,0,24,DL_Guitar_1,6,11,DL_Guitar_1,0.062005411833524704,0
53,100,0.12727272727272726,876,0,24,DL_Guitar_1,6,2,DL_Guitar_1,0.06441591680049896,0
65,100,0.2772727272727273,40,1,25,DL_Guitar_1,6,4,DL_Guitar_1,0.9998464584350586,1
65,100,0.12727272727272726,189,0,25,DL_Guitar_1,6,2,DL_Guitar_1,0.3331928551197052,0
55,100,0.12727272727272726,550,1,25,DL_Guitar_1,6,2,DL_Guitar_1,0.2893645167350769,0
55,100,0.38636363636363635,683,0,25,DL_Guitar_1,6,6,DL_Guitar_1,0.29478418827056885,0
62,100,0.16363636363636364,6,1,26,DL_Guitar_1,6,3,DL_Guitar_1,0.9998414516448975,1
62,100,0.18181818181818182,130,0,26,DL_Guitar_1,6,3,DL_Guitar_1,0.20898400247097015,0
55,100,0.2772727272727273,227,0,26,DL_Guitar_1,6,4,DL_Guitar_1,0.1897752434015274,0
62,100,0.33181818181818185,316,0,26,DL_Guitar_1,6,5,DL_Guitar_1,0.20616135001182556,0
52,100,0.09090909090909091,450,0,26,DL_Guitar_1,6,1,DL_Guitar_1,0.20935745537281036,0
64,100,0.2,246,1,27,DL_Guitar_1,6,3,DL_Guitar_1,0.9935305714607239,0
62,100,0.10909090909090909,324,1,41,DL_Guitar_1,6,2,DL_Guitar_1,0.9996371269226074,1
62,100,0.2590909090909091,410,0,41,DL_Guitar_1,6,4,DL_Guitar_1,0.5456650853157043,0
62,100,0.10909090909090909,60,1,42,DL_Guitar_1,6,2,DL_Guitar_1,0.9998051524162292,1
67,100,0.9181818181818182,83,0,42,DL_Guitar_1,6,15,DL_Guitar_1,0.10725627839565277,0
67,100,0.8090909090909091,297,0,42,DL_Guitar_1,6,13,DL_Guitar_1,0.1249256432056427,0
60,100,0.1318181818181818,483,0,42,DL_Guitar_1,6,2,DL_Guitar_1,0.1619165986776352,0
55,100,0.23636363636363636,702,0,42,DL_Guitar_1,6,4,DL_Guitar_1,0.1436283439397812,0
55,100,0.10909090909090909,799,0,42,DL_Guitar_1,6,2,DL_Guitar_1,0.13917411863803864,0
67,100,0.1318181818181818,142,1,43,DL_Guitar_1,6,2,DL_Guitar_1,0.9997027516365051,1
67,100,0.2590909090909091,194,0,43,DL_Guitar_1,6,4,DL_Guitar_1,0.04279313236474991,0
67,100,0.32727272727272727,255,0,43,DL_Guitar_1,6,5,DL_Guitar_1,0.03311655670404434,0
67,100,0.33181818181818185,336,0,43,DL_Guitar_1,6,5,DL_Guitar_1,0.030873697251081467,0
55,100,0.2,441,0,43,DL_Guitar_1,6,3,DL_Guitar_1,0.03227958083152771,0
55,100,0.2409090909090909,489,0,43,DL_Guitar_1,6,4,DL_Guitar_1,0.034223176538944244,0
55,100,0.2772727272727273,563,0,43,DL_Guitar_1,6,4,DL_Guitar_1,0.040740903466939926,0
55,100,0.16818181818181818,700,0,43,DL_Guitar_1,6,3,DL_Guitar_1,0.05157950147986412,0
62,100,0.2409090909090909,772,0,43,DL_Guitar_1,6,4,DL_Guitar_1,0.04799583554267883,0
67,100,0.11363636363636363,1,1,44,DL_Guitar_1,6,2,DL_Guitar_1,0.9997214674949646,1
62,100,0.10909090909090909,123,0,44,DL_Guitar_1,6,2,DL_Guitar_1,0.058311160653829575,0
67,100,0.16363636363636364,151,0,44,DL_Guitar_1,6,3,DL_Guitar_1,0.04738067835569382,0
67,100,0.2909090909090909,217,0,44,DL_Guitar_1,6,5,DL_Guitar_1,0.048432718962430954,0
67,100,0.8454545454545455,294,0,44,DL_Guitar_1,6,14,DL_Guitar_1,0.0493939146399498,0
65,100,0.36818181818181817,483,0,44,DL_Guitar_1,6,6,DL_Guitar_1,0.06792356073856354,0
65,100,0.5863636363636363,569,0,44,DL_Guitar_1,6,9,DL_Guitar_1,0.06477615237236023,0
65,100,0.7909090909090909,701,0,44,DL_Guitar_1,6,13,DL_Guitar_1,0.0649218037724495,0
64,100,0.5318181818181819,150,1,45,DL_Guitar_1,6,9,DL_Guitar_1,0.9998001456260681,1
64,100,0.4409090909090909,298,0,45,DL_Guitar_1,6,7,DL_Guitar_1,0.12895357608795166,0
67,100,0.10909090909090909,456,0,45,DL_Guitar_1,6,2,DL_Guitar_1,0.12004172801971436,0
60,100,0.31363636363636366,537,0,45,DL_Guitar_1,6,5,DL_Guitar_1,0.1346655786037445,0
60,100,0.18181818181818182,715,0,45,DL_Guitar_1,6,3,DL_Guitar_1,0.14575622975826263,0
60,100,0.8272727272727273,792,0,45,DL_Guitar_1,6,13,DL_Guitar_1,0.12537553906440735,0
60,100,0.10909090909090909,103,1,46,DL_Guitar_1,6,2,DL_Guitar_1,0.9997797608375549,1
60,100,0.29545454545454547,151,0,46,DL_Guitar_1,6,5,DL_Guitar_1,0.07779247313737869,0
60,100,0.8818181818181818,235,0,46,DL_Guitar_1,6,14,DL_Guitar_1,0.06943131983280182,0
60,100,0.10909090909090909,467,1,46,DL_Guitar_1,6,2,DL_Guitar_1,0.08677716553211212,0
55,100,0.6045454545454545,495,0,46,DL_Guitar_1,6,10,DL_Guitar_1,0.08539227396249771,0
55,100,0.4818181818181818,713,0,46,DL_Guitar_1,6,8,DL_Guitar_1,0.10075052827596664,0
55,100,0.6636363636363637,874,0,46,DL_Guitar_1,6,11,DL_Guitar_1,0.08697321265935898,0
55,100,0.2,144,1,47,DL_Guitar_1,6,3,DL_Guitar_1,0.9998289346694946,1
55,100,0.8454545454545455,192,0,47,DL_Guitar_1,6,14,DL_Guitar_1,0.1925312578678131,0
67,100,0.15,386,0,47,DL_Guitar_1,6,2,DL_Guitar_1,0.22846291959285736,0
55,100,0.16363636363636364,419,0,47,DL_Guitar_1,6,3,DL_Guitar_1,0.21614423394203186,0
55,100,1.4681818181818183,602,0,47,DL_Guitar_1,6,15,DL_Guitar_1,0.19575193524360657,0
67,100,0.11363636363636363,45,1,48,DL_Guitar_1,6,2,DL_Guitar_1,0.9998088479042053,1
55,100,0.10909090909090909,122,0,48,DL_Guitar_1,6,2,DL_Guitar_1,0.12482824921607971,0
55,100,0.35,153,0,48,DL_Guitar_1,6,6,DL_Guitar_1,0.11772127449512482,0
67,100,0.2590909090909091,295,0,48,DL_Guitar_1,6,4,DL_Guitar_1,0.1339530199766159,0
60,100,0.2590909090909091,603,1,48,DL_Guitar_1,6,4,DL_Guitar_1,0.14897595345973969,0
65,100,0.18181818181818182,797,0,48,DL_Guitar_1,6,3,DL_Guitar_1,0.13236670196056366,0
62,100,0.14545454545454545,14,1,49,DL_Guitar_1,6,2,DL_Guitar_1,0.9997114539146423,1
60,100,0.33181818181818185,55,0,49,DL_Guitar_1,6,5,DL_Guitar_1,0.04252764955163002,0
65,100,0.14545454545454545,139,0,49,DL_Guitar_1,6,2,DL_Guitar_1,0.03366470709443092,0
62,100,0.12727272727272726,225,0,49,DL_Guitar_1,6,2,DL_Guitar_1,0.029590608552098274,0
60,100,0.09090909090909091,294,0,49,DL_Guitar_1,6,1,DL_Guitar_1,0.030211586505174637,0
65,100,0.6818181818181818,337,0,49,DL_Guitar_1,6,11,DL_Guitar_1,0.029591374099254608,0
55,100,0.44545454545454544,556,0,49,DL_Guitar_1,6,7,DL_Guitar_1,0.04108990356326103,0
55,100,0.2590909090909091,709,0,49,DL_Guitar_1,6,4,DL_Guitar_1,0.049310535192489624,0
55,100,0.20454545454545456,795,0,49,DL_Guitar_1,6,3,DL_Guitar_1,0.047364741563797,0
55,100,0.23636363636363636,56,1,50,DL_Guitar_1,6,4,DL_Guitar_1,0.999828577041626,1
55,100,0.35,112,0,50,DL_Guitar_1,6,6,DL_Guitar_1,0.20392277836799622,0
55,100,0.7,193,0,50,DL_Guitar_1,6,11,DL_Guitar_1,0.19617000222206116,0
62,100,0.18636363636363637,396,0,50,DL_Guitar_1,6,3,DL_Guitar_1,0.23807908594608307,0
57,100,0.7363636363636363,501,0,50,DL_Guitar_1,6,12,DL_Guitar_1,0.2053501158952713,0
55,100,0.15,57,1,51,DL_Guitar_1,6,2,DL_Guitar_1,0.9995877146720886,1
62,100,0.8272727272727273,284,0,51,DL_Guitar_1,6,13,DL_Guitar_1,0.547216534614563,0
67,100,0.2727272727272727,404,1,52,DL_Guitar_1,6,4,DL_Guitar_1,0.9998478889465332,1
55,100,0.21818181818181817,508,0,52,DL_Guitar_1,6,3,DL_Guitar_1,0.324558824300766,0
55,100,0.4409090909090909,653,0,52,DL_Guitar_1,6,7,DL_Guitar_1,0.2847678065299988,0
57,100,0.10909090909090909,819,0,52,DL_Guitar_1,6,2,DL_Guitar_1,0.31958356499671936,0
55,100,0.7363636363636363,178,1,53,DL_Guitar_1,6,12,DL_Guitar_1,0.9997739195823669,1
55,100,0.2727272727272727,357,0,53,DL_Guitar_1,6,4,DL_Guitar_1,0.14677338302135468,0
55,100,0.18181818181818182,449,0,53,DL_Guitar_1,6,3,DL_Guitar_1,0.13048557937145233,0
55,100,0.10909090909090909,680,0,53,DL_Guitar_1,6,2,DL_Guitar_1,0.14582383632659912,0
55,100,0.1318181818181818,792,0,53,DL_Guitar_1,6,2,DL_Guitar_1,0.14978879690170288,0
55,100,0.8454545454545455,825,0,53,DL_Guitar_1,6,14,DL_Guitar_1,0.12840929627418518,0
55,100,0.6272727272727273,148,1,54,DL_Guitar_1,6,10,DL_Guitar_1,0.9998363256454468,1
55,100,0.10909090909090909,330,0,54,DL_Guitar_1,6,2,DL_Guitar_1,0.3468274772167206,0
55,100,0.4409090909090909,378,0,54,DL_Guitar_1,6,7,DL_Guitar_1,0.2888867259025574,0
55,100,0.6272727272727273,698,1,54,DL_Guitar_1,6,10,DL_Guitar_1,0.3110101819038391,0
62,100,0.20454545454545456,12,1,55,DL_Guitar_1,6,3,DL_Guitar_1,0.9997349381446838,1
55,100,0.18636363636363637,190,0,55,DL_Guitar_1,6,3,DL_Guitar_1,0.055303242057561874,0
62,100,0.10909090909090909,267,0,55,DL_Guitar_1,6,2,DL_Guitar_1,0.048725638538599014,0
55,100,0.22272727272727272,404,0,55,DL_Guitar_1,6,4,DL_Guitar_1,0.04728759452700615,0
55,100,0.2772727272727273,456,0,55,DL_Guitar_1,6,4,DL_Guitar_1,0.05216268077492714,0
55,100,0.40454545454545454,611,0,55,DL_Guitar_1,6,6,DL_Guitar_1,0.058099742978811264,0
55,100,0.4772727272727273,731,0,55,DL_Guitar_1,6,8,DL_Guitar_1,0.0699625313282013,0
55,100,0.5,857,0,55,DL_Guitar_1,6,8,DL_Guitar_1,0.06131986901164055,0
55,100,0.16818181818181818,151,1,56,DL_Guitar_1,6,3,DL_Guitar_1,0.9997667670249939,1
67,100,0.10909090909090909,196,0,56,DL_Guitar_1,6,2,DL_Guitar_1,0.08376481384038925,0
52,100,0.18181818181818182,296,0,56,DL_Guitar_1,6,3,DL_Guitar_1,0.07486685365438461,0
55,100,0.31363636363636366,421,0,56,DL_Guitar_1,6,5,DL_Guitar_1,0.07858729362487793,0
57,100,0.10909090909090909,648,0,56,DL_Guitar_1,6,2,DL_Guitar_1,0.09289273619651794,0
55,100,0.2772727272727273,782,0,56,DL_Guitar_1,6,4,DL_Guitar_1,0.09728938341140747,0
55,100,1.4863636363636363,846,0,56,DL_Guitar_1,6,15,DL_Guitar_1,0.08236195892095566,0
55,100,0.9409090909090909,297,1,57,DL_Guitar_1,6,15,DL_Guitar_1,0.9997679591178894,1
55,100,1.1045454545454545,521,0,57,DL_Guitar_1,6,15,DL_Guitar_1,0.41702476143836975,0
55,100,0.16363636363636364,776,1,57,DL_Guitar_1,6,3,DL_Guitar_1,0.4704110622406006,0
60,100,0.2590909090909091,13,1,58,DL_Guitar_1,6,4,DL_Guitar_1,0.9998283386230469,1
55,100,0.9545454545454546,206,0,58,DL_Guitar_1,6,15,DL_Guitar_1,0.3740236759185791,0
55,100,0.1318181818181818,428,0,58,DL_Guitar_1,6,2,DL_Guitar_1,0.4552633464336395,0
62,100,0.2909090909090909,14,1,59,DL_Guitar_1,6,5,DL_Guitar_1,0.9998292922973633,1
55,100,1.05,90,0,59,DL_Guitar_1,6,15,DL_Guitar_1,0.1826189011335373,0
62,100,0.22272727272727272,337,1,59,DL_Guitar_1,6,4,DL_Guitar_1,0.22588923573493958,0
62,100,0.2772727272727273,451,0,59,DL_Guitar_1,6,4,DL_Guitar_1,0.21724869310855865,0
60,100,0.14545454545454545,852,1,59,DL_Guitar_1,6,2,DL_Guitar_1,0.21833951771259308,0
55,100,0.18181818181818182,93,1,60,DL_Guitar_1,6,3,DL_Guitar_1,0.9998490810394287,1
55,100,0.7,302,0,60,DL_Guitar_1,6,11,DL_Guitar_1,0.29437533020973206,0
57,100,0.38636363636363635,618,1,60,DL_Guitar_1,6,6,DL_Guitar_1,0.3180379867553711,0
55,100,0.9954545454545455,751,0,60,DL_Guitar_1,6,15,DL_Guitar_1,0.30422574281692505,0
55,100,0.31363636363636366,199,1,61,DL_Guitar_1,6,5,DL_Guitar_1,0.9997000694274902,1
55,100,0.2772727272727273,349,0,61,DL_Guitar_1,6,4,DL_Guitar_1,0.04363284260034561,0
67,100,0.20454545454545456,410,0,61,DL_Guitar_1,6,3,DL_Guitar_1,0.03254808112978935,0
55,100,0.21818181818181817,462,0,61,DL_Guitar_1,6,3,DL_Guitar_1,0.03125736489892006,0
55,100,0.09545454545454546,538,0,61,DL_Guitar_1,6,2,DL_Guitar_1,0.030786380171775818,0
55,100,0.12727272727272726,563,0,61,DL_Guitar_1,6,2,DL_Guitar_1,0.03369889780879021,0
55,100,0.2727272727272727,637,0,61,DL_Guitar_1,6,4,DL_Guitar_1,0.04263739287853241,0
55,100,0.40454545454545454,705,0,61,DL_Guitar_1,6,6,DL_Guitar_1,0.04740390554070473,0
60,100,0.15,797,0,61,DL_Guitar_1,6,2,DL_Guitar_1,0.050590820610523224,0
55,100,0.5909090909090909,19,1,62,DL_Guitar_1,6,9,DL_Guitar_1,0.9996988773345947,1
55,100,0.36818181818181817,165,0,62,DL_Guitar_1,6,6,DL_Guitar_1,0.06031828746199608,0
67,100,0.09090909090909091,254,0,62,DL_Guitar_1,6,1,DL_Guitar_1,0.0511816181242466,0
55,100,0.8272727272727273,289,0,62,DL_Guitar_1,6,13,DL_Guitar_1,0.04463949054479599,0
55,100,0.12727272727272726,501,0,62,DL_Guitar_1,6,2,DL_Guitar_1,0.06092381477355957,0
62,100,0.7,541,0,62,DL_Guitar_1,6,11,DL_Guitar_1,0.059163205325603485,0
74,100,0.23636363636363636,796,1,62,DL_Guitar_1,6,4,DL_Guitar_1,0.07750320434570312,0
67,100,0.12727272727272726,873,0,62,DL_Guitar_1,6,2,DL_Guitar_1,0.06348511576652527,0
62,100,0.12727272727272726,206,1,63,DL_Guitar_1,6,2,DL_Guitar_1,0.9998341798782349,1
55,100,0.23636363636363636,364,0,63,DL_Guitar_1,6,4,DL_Guitar_1,0.4037226736545563,0
55,100,1.4681818181818183,547,0,63,DL_Guitar_1,6,15,DL_Guitar_1,0.40595921874046326,0
55,100,0.42272727272727273,11,1,64,DL_Guitar_1,6,7,DL_Guitar_1,0.9996585845947266,1
52,100,0.10909090909090909,115,0,64,DL_Guitar_1,6,2,DL_Guitar_1,0.03945985808968544,0
55,100,0.09545454545454546,188,0,64,DL_Guitar_1,6,2,DL_Guitar_1,0.02521597035229206,0
67,100,0.42272727272727273,212,0,64,DL_Guitar_1,6,7,DL_Guitar_1,0.021249791607260704,0
55,100,1.009090909090909,305,0,64,DL_Guitar_1,6,15,DL_Guitar_1,0.018145812675356865,0
57,100,0.11363636363636363,632,1,64,DL_Guitar_1,6,2,DL_Guitar_1,0.023291122168302536,0
55,100,0.2545454545454545,670,0,64,DL_Guitar_1,6,4,DL_Guitar_1,0.023274878039956093,0
55,100,0.11363636363636363,738,0,64,DL_Guitar_1,6,2,DL_Guitar_1,0.03114764578640461,0
60,100,0.10909090909090909,762,0,64,DL_Guitar_1,6,2,DL_Guitar_1,0.040297288447618484,0
55,100,0.29545454545454547,802,0,64,DL_Guitar_1,6,5,DL_Guitar_1,0.03760303929448128,0
55,100,0.42272727272727273,0,1,65,DL_Guitar_1,6,7,DL_Guitar_1,0.9997062087059021,1
62,100,0.2909090909090909,141,0,65,DL_Guitar_1,6,5,DL_Guitar_1,0.060935549437999725,0
62,100,0.35,218,0,65,DL_Guitar_1,6,6,DL_Guitar_1,0.049088213592767715,0
62,100,0.38636363636363635,299,0,65,DL_Guitar_1,6,6,DL_Guitar_1,0.05304936692118645,0
55,100,0.5318181818181819,412,0,65,DL_Guitar_1,6,9,DL_Guitar_1,0.05412733927369118,0
55,100,0.1318181818181818,577,0,65,DL_Guitar_1,6,2,DL_Guitar_1,0.07200464606285095,0
55,100,1.0272727272727273,627,0,65,DL_Guitar_1,6,15,DL_Guitar_1,0.06523153185844421,0
55,100,2.040909090909091,861,1,65,DL_Guitar_1,6,15,DL_Guitar_1,0.0661037415266037,0
67,100,0.1318181818181818,429,1,66,DL_Guitar_1,6,2,DL_Guitar_1,0.9998503923416138,1
55,100,0.38636363636363635,458,0,66,DL_Guitar_1,6,6,DL_Guitar_1,0.3053264319896698,0
60,100,0.7727272727272727,560,0,66,DL_Guitar_1,6,12,DL_Guitar_1,0.2992730140686035,0
60,100,0.6227272727272727,733,0,66,DL_Guitar_1,6,10,DL_Guitar_1,0.32176053524017334,0
67,100,0.10909090909090909,225,1,67,DL_Guitar_1,6,2,DL_Guitar_1,0.9998382329940796,1
67,100,0.12727272727272726,424,0,67,DL_Guitar_1,6,2,DL_Guitar_1,0.20887073874473572,0
55,100,0.11363636363636363,476,0,67,DL_Guitar_1,6,2,DL_Guitar_1,0.20150722563266754,0
55,100,0.10909090909090909,533,0,67,DL_Guitar_1,6,2,DL_Guitar_1,0.21223314106464386,0
55,100,1.1181818181818182,605,0,67,DL_Guitar_1,6,15,DL_Guitar_1,0.193402960896492,0
55,100,1.9090909090909092,0,1,68,DL_Guitar_1,6,15,DL_Guitar_1,0.9900318384170532,0
52,100,0.20454545454545456,384,1,0,DL_Guitar_2,6,3,DL_Guitar_2,0.9998629093170166,1
60,100,0.09090909090909091,732,1,0,DL_Guitar_2,6,1,DL_Guitar_2,0.3181542158126831,0
64,100,0.12727272727272726,809,0,0,DL_Guitar_2,6,2,DL_Guitar_2,0.28764578700065613,0
64,100,0.2590909090909091,845,0,0,DL_Guitar_2,6,4,DL_Guitar_2,0.2960364818572998,0
52,100,0.36818181818181817,73,1,1,DL_Guitar_2,6,6,DL_Guitar_2,0.9997323155403137,1
59,100,0.14545454545454545,183,0,1,DL_Guitar_2,6,2,DL_Guitar_2,0.05593133717775345,0
52,100,0.5909090909090909,244,0,1,DL_Guitar_2,6,9,DL_Guitar_2,0.04597344249486923,0
53,100,0.09090909090909091,386,0,1,DL_Guitar_2,6,1,DL_Guitar_2,0.04894595593214035,0
60,100,0.40454545454545454,620,1,1,DL_Guitar_2,6,6,DL_Guitar_2,0.05066144838929176,0
65,100,0.1318181818181818,713,0,1,DL_Guitar_2,6,2,DL_Guitar_2,0.061662644147872925,0
57,100,0.16363636363636364,778,0,1,DL_Guitar_2,6,3,DL_Guitar_2,0.0630890429019928,0
57,100,0.2590909090909091,863,0,1,DL_Guitar_2,6,4,DL_Guitar_2,0.06034266948699951,0
53,100,0.23636363636363636,60,1,2,DL_Guitar_2,6,4,DL_Guitar_2,0.99970942735672,1
53,100,0.11363636363636363,116,0,2,DL_Guitar_2,6,2,DL_Guitar_2,0.043138522654771805,0
53,100,0.16363636363636364,222,0,2,DL_Guitar_2,6,3,DL_Guitar_2,0.033285122364759445,0
60,100,0.40454545454545454,290,0,2,DL_Guitar_2,6,6,DL_Guitar_2,0.02921055257320404,0
57,100,0.40454545454545454,428,0,2,DL_Guitar_2,6,6,DL_Guitar_2,0.029772834852337837,0
62,100,0.15,573,0,2,DL_Guitar_2,6,2,DL_Guitar_2,0.03451240062713623,0
62,100,0.2772727272727273,638,0,2,DL_Guitar_2,6,4,DL_Guitar_2,0.04114745184779167,0
57,100,0.18181818181818182,776,0,2,DL_Guitar_2,6,3,DL_Guitar_2,0.04646025970578194,0
62,100,0.31363636363636366,852,0,2,DL_Guitar_2,6,5,DL_Guitar_2,0.04739132896065712,0
62,100,0.10909090909090909,210,1,3,DL_Guitar_2,6,2,DL_Guitar_2,0.9998465776443481,1
60,100,0.12727272727272726,663,1,3,DL_Guitar_2,6,2,DL_Guitar_2,0.40202993154525757,0
60,100,0.20454545454545456,877,0,3,DL_Guitar_2,6,3,DL_Guitar_2,0.42017048597335815,0
60,100,0.11363636363636363,551,1,4,DL_Guitar_2,6,2,DL_Guitar_2,0.9998170733451843,1
64,100,0.11363636363636363,633,0,4,DL_Guitar_2,6,2,DL_Guitar_2,0.1269921064376831,0
64,100,0.18181818181818182,682,0,4,DL_Guitar_2,6,3,DL_Guitar_2,0.11847331374883652,0
64,100,0.2772727272727273,733,0,4,DL_Guitar_2,6,4,DL_Guitar_2,0.1277536302804947,0
64,100,0.16818181818181818,799,0,4,DL_Guitar_2,6,3,DL_Guitar_2,0.1342082917690277,0
64,100,0.18181818181818182,851,0,4,DL_Guitar_2,6,3,DL_Guitar_2,0.12364347279071808,0
64,100,0.15,16,1,5,DL_Guitar_2,6,2,DL_Guitar_2,0.9998464584350586,1
52,100,0.09090909090909091,80,0,5,DL_Guitar_2,6,1,DL_Guitar_2,0.20859508216381073,0
52,100,0.4818181818181818,226,0,5,DL_Guitar_2,6,8,DL_Guitar_2,0.18989358842372894,0
60,100,0.29545454545454547,654,1,5,DL_Guitar_2,6,5,DL_Guitar_2,0.20842398703098297,0
57,100,0.7545454545454545,735,0,5,DL_Guitar_2,6,12,DL_Guitar_2,0.19074638187885284,0
60,100,0.10909090909090909,22,1,6,DL_Guitar_2,6,2,DL_Guitar_2,0.9998596906661987,1
62,100,0.2772727272727273,446,1,6,DL_Guitar_2,6,4,DL_Guitar_2,0.315215528011322,0
62,100,0.31363636363636366,526,0,6,DL_Guitar_2,6,5,DL_Guitar_2,0.28708916902542114,0
62,100,0.2409090909090909,704,0,6,DL_Guitar_2,6,4,DL_Guitar_2,0.3069392442703247,0
62,100,0.4954545454545455,75,1,7,DL_Guitar_2,6,8,DL_Guitar_2,0.9997965693473816,1
62,100,0.12727272727272726,218,0,7,DL_Guitar_2,6,2,DL_Guitar_2,0.13068050146102905,0
62,100,0.22272727272727272,625,1,7,DL_Guitar_2,6,4,DL_Guitar_2,0.12451712042093277,0
62,100,0.16363636363636364,686,0,7,DL_Guitar_2,6,3,DL_Guitar_2,0.1360258013010025,0
62,100,0.15,731,0,7,DL_Guitar_2,6,2,DL_Guitar_2,0.14348386228084564,0
62,100,0.10909090909090909,865,0,7,DL_Guitar_2,6,2,DL_Guitar_2,0.1320715695619583,0
62,100,0.12727272727272726,199,1,8,DL_Guitar_2,6,2,DL_Guitar_2,0.9998469352722168,1
62,100,0.09090909090909091,369,0,8,DL_Guitar_2,6,1,DL_Guitar_2,0.20191024243831635,0
60,100,0.8454545454545455,453,0,8,DL_Guitar_2,6,14,DL_Guitar_2,0.1798686981201172,0
60,100,0.40454545454545454,648,0,8,DL_Guitar_2,6,6,DL_Guitar_2,0.21746766567230225,0
57,100,0.2409090909090909,842,0,8,DL_Guitar_2,6,4,DL_Guitar_2,0.20897279679775238,0
60,100,0.14545454545454545,22,1,9,DL_Guitar_2,6,2,DL_Guitar_2,0.9997127652168274,1
53,100,0.20454545454545456,70,0,9,DL_Guitar_2,6,3,DL_Guitar_2,0.04201085865497589,0
59,100,0.09090909090909091,120,0,9,DL_Guitar_2,6,1,DL_Guitar_2,0.03358091786503792,0
59,100,0.38636363636363635,305,0,9,DL_Guitar_2,6,6,DL_Guitar_2,0.029083460569381714,0
60,100,0.09090909090909091,398,0,9,DL_Guitar_2,6,1,DL_Guitar_2,0.03223339095711708,0
60,100,0.7545454545454545,458,0,9,DL_Guitar_2,6,12,DL_Guitar_2,0.03126023709774017,0
55,100,0.22272727272727272,737,1,9,DL_Guitar_2,6,4,DL_Guitar_2,0.04355187714099884,0
53,100,0.09090909090909091,790,0,9,DL_Guitar_2,6,1,DL_Guitar_2,0.05042373016476631,0
55,100,0.16818181818181818,819,0,9,DL_Guitar_2,6,3,DL_Guitar_2,0.04602532088756561,0
55,100,0.14545454545454545,146,1,10,DL_Guitar_2,6,2,DL_Guitar_2,0.9998376369476318,1
55,100,0.18181818181818182,182,0,10,DL_Guitar_2,6,3,DL_Guitar_2,0.20859359204769135,0
62,100,0.09090909090909091,278,0,10,DL_Guitar_2,6,1,DL_Guitar_2,0.20443904399871826,0
62,100,0.36818181818181817,307,0,10,DL_Guitar_2,6,6,DL_Guitar_2,0.20297257602214813,0
55,100,0.6636363636363637,477,0,10,DL_Guitar_2,6,11,DL_Guitar_2,0.20457547903060913,0
52,100,0.44545454545454544,82,1,11,DL_Guitar_2,6,7,DL_Guitar_2,0.9998435974121094,1
52,100,0.1318181818181818,247,0,11,DL_Guitar_2,6,2,DL_Guitar_2,0.21444648504257202,0
53,100,0.12727272727272726,362,0,11,DL_Guitar_2,6,2,DL_Guitar_2,0.19281071424484253,0
60,100,0.16363636363636364,498,0,11,DL_Guitar_2,6,3,DL_Guitar_2,0.20321232080459595,0
67,100,0.5318181818181819,644,0,11,DL_Guitar_2,6,9,DL_Guitar_2,0.1924603283405304,0
53,100,0.18181818181818182,75,1,12,DL_Guitar_2,6,3,DL_Guitar_2,0.9997721314430237,1
53,100,0.14545454545454545,254,0,12,DL_Guitar_2,6,2,DL_Guitar_2,0.08060170710086823,0
55,100,0.11363636363636363,371,0,12,DL_Guitar_2,6,2,DL_Guitar_2,0.0711362212896347,0
62,100,0.5681818181818182,508,0,12,DL_Guitar_2,6,9,DL_Guitar_2,0.07749457657337189,0
62,100,0.11363636363636363,665,0,12,DL_Guitar_2,6,2,DL_Guitar_2,0.09542233496904373,0
62,100,0.38636363636363635,694,0,12,DL_Guitar_2,6,6,DL_Guitar_2,0.0938505083322525,0
62,100,0.31363636363636366,792,0,12,DL_Guitar_2,6,5,DL_Guitar_2,0.08810228109359741,0
55,100,0.35,101,1,13,DL_Guitar_2,6,6,DL_Guitar_2,0.9998179078102112,1
55,100,0.12727272727272726,348,1,13,DL_Guitar_2,6,2,DL_Guitar_2,0.42411449551582336,0
64,100,0.33181818181818185,752,1,13,DL_Guitar_2,6,5,DL_Guitar_2,0.4365301728248596,0
62,100,0.22272727272727272,1,1,14,DL_Guitar_2,6,4,DL_Guitar_2,0.9998332262039185,1
62,100,0.3090909090909091,123,0,14,DL_Guitar_2,6,5,DL_Guitar_2,0.20783758163452148,0
55,100,0.7,252,0,14,DL_Guitar_2,6,11,DL_Guitar_2,0.18949085474014282,0
52,100,0.33181818181818185,422,0,14,DL_Guitar_2,6,5,DL_Guitar_2,0.2295268028974533,0
55,100,0.36818181818181817,555,0,14,DL_Guitar_2,6,6,DL_Guitar_2,0.20733968913555145,0
52,100,0.18636363636363637,27,1,15,DL_Guitar_2,6,3,DL_Guitar_2,0.9998175501823425,1
52,100,0.16363636363636364,89,0,15,DL_Guitar_2,6,3,DL_Guitar_2,0.12144120037555695,0
60,100,0.18181818181818182,154,0,15,DL_Guitar_2,6,3,DL_Guitar_2,0.11715957522392273,0
52,100,0.6954545454545454,250,0,15,DL_Guitar_2,6,11,DL_Guitar_2,0.12822173535823822,0
60,100,0.2590909090909091,465,0,15,DL_Guitar_2,6,4,DL_Guitar_2,0.14650580286979675,0
65,100,0.12727272727272726,646,0,15,DL_Guitar_2,6,2,DL_Guitar_2,0.12804178893566132,0
65,100,0.14545454545454545,664,1,16,DL_Guitar_2,6,2,DL_Guitar_2,0.99965500831604,1
65,100,0.11363636363636363,701,0,16,DL_Guitar_2,6,2,DL_Guitar_2,0.5459169745445251,0
53,100,0.16818181818181818,88,1,17,DL_Guitar_2,6,3,DL_Guitar_2,0.9998354911804199,1
53,100,0.10909090909090909,133,0,17,DL_Guitar_2,6,2,DL_Guitar_2,0.41777995228767395,0
64,100,0.29545454545454547,475,1,17,DL_Guitar_2,6,5,DL_Guitar_2,0.41997069120407104,0
52,100,0.23636363636363636,461,1,18,DL_Guitar_2,6,4,DL_Guitar_2,0.99985671043396,1
60,100,0.6090909090909091,514,0,18,DL_Guitar_2,6,10,DL_Guitar_2,0.3047148287296295,0
55,100,0.14545454545454545,660,0,18,DL_Guitar_2,6,2,DL_Guitar_2,0.30334895849227905,0
55,100,0.7727272727272727,700,0,18,DL_Guitar_2,6,12,DL_Guitar_2,0.2907460629940033,0
55,100,0.16363636363636364,43,1,19,DL_Guitar_2,6,3,DL_Guitar_2,0.9998354911804199,1
55,100,0.22272727272727272,168,0,19,DL_Guitar_2,6,4,DL_Guitar_2,0.2046544998884201,0
52,100,0.5136363636363637,220,0,19,DL_Guitar_2,6,8,DL_Guitar_2,0.20041777193546295,0
52,100,0.1318181818181818,354,0,19,DL_Guitar_2,6,2,DL_Guitar_2,0.21517960727214813,0
55,100,0.4409090909090909,763,1,19,DL_Guitar_2,6,7,DL_Guitar_2,0.19786196947097778,0
55,100,0.29545454545454547,0,1,20,DL_Guitar_2,6,5,DL_Guitar_2,0.9998260140419006,1
62,100,0.12727272727272726,65,0,20,DL_Guitar_2,6,2,DL_Guitar_2,0.22476911544799805,0
55,100,0.18181818181818182,267,0,20,DL_Guitar_2,6,3,DL_Guitar_2,0.19440335035324097,0
55,100,0.34545454545454546,323,0,20,DL_Guitar_2,6,6,DL_Guitar_2,0.2030918449163437,0
52,100,0.2772727272727273,865,1,20,DL_Guitar_2,6,4,DL_Guitar_2,0.21661794185638428,0
52,100,0.18181818181818182,103,1,21,DL_Guitar_2,6,3,DL_Guitar_2,0.9998430013656616,1
52,100,0.2909090909090909,188,0,21,DL_Guitar_2,6,5,DL_Guitar_2,0.20004990696907043,0
52,100,1.3045454545454545,268,0,21,DL_Guitar_2,6,15,DL_Guitar_2,0.174515038728714,0
55,100,0.11363636363636363,624,1,21,DL_Guitar_2,6,2,DL_Guitar_2,0.23123015463352203,0
52,100,0.2590909090909091,786,0,21,DL_Guitar_2,6,4,DL_Guitar_2,0.21307708323001862,0
55,100,0.2590909090909091,281,1,22,DL_Guitar_2,6,4,DL_Guitar_2,0.9998199343681335,1
56,100,0.10909090909090909,399,0,22,DL_Guitar_2,6,2,DL_Guitar_2,0.4272460639476776,0
60,100,0.8272727272727273,475,0,22,DL_Guitar_2,6,13,DL_Guitar_2,0.4203995168209076,0
52,100,0.4409090909090909,4,1,23,DL_Guitar_2,6,7,DL_Guitar_2,0.9998441934585571,1
55,100,0.2590909090909091,223,0,23,DL_Guitar_2,6,4,DL_Guitar_2,0.3257279694080353,0
55,100,0.22272727272727272,336,0,23,DL_Guitar_2,6,4,DL_Guitar_2,0.290203720331192,0
59,100,0.23636363636363636,543,0,23,DL_Guitar_2,6,4,DL_Guitar_2,0.31160232424736023,0
52,100,0.29545454545454547,2,1,24,DL_Guitar_2,6,5,DL_Guitar_2,0.9997327923774719,1
52,100,0.5,277,1,24,DL_Guitar_2,6,8,DL_Guitar_2,0.0533190481364727,0
65,100,0.12727272727272726,402,0,24,DL_Guitar_2,6,2,DL_Guitar_2,0.046803224831819534,0
65,100,0.18181818181818182,488,0,24,DL_Guitar_2,6,3,DL_Guitar_2,0.046607330441474915,0
65,100,0.5136363636363637,532,0,24,DL_Guitar_2,6,8,DL_Guitar_2,0.0471201129257679,0
53,100,0.12727272727272726,657,0,24,DL_Guitar_2,6,2,DL_Guitar_2,0.061825379729270935,0
65,100,0.6818181818181818,686,0,24,DL_Guitar_2,6,11,DL_Guitar_2,0.062005411833524704,0
53,100,0.12727272727272726,876,0,24,DL_Guitar_2,6,2,DL_Guitar_2,0.06441591680049896,0
65,100,0.2772727272727273,40,1,25,DL_Guitar_2,6,4,DL_Guitar_2,0.9998464584350586,1
65,100,0.12727272727272726,189,0,25,DL_Guitar_2,6,2,DL_Guitar_2,0.3331928551197052,0
55,100,0.12727272727272726,550,1,25,DL_Guitar_2,6,2,DL_Guitar_2,0.2893645167350769,0
55,100,0.38636363636363635,683,0,25,DL_Guitar_2,6,6,DL_Guitar_2,0.29478418827056885,0
62,100,0.16363636363636364,6,1,26,DL_Guitar_2,6,3,DL_Guitar_2,0.9998414516448975,1
62,100,0.18181818181818182,130,0,26,DL_Guitar_2,6,3,DL_Guitar_2,0.20898400247097015,0
55,100,0.2772727272727273,227,0,26,DL_Guitar_2,6,4,DL_Guitar_2,0.1897752434015274,0
62,100,0.33181818181818185,316,0,26,DL_Guitar_2,6,5,DL_Guitar_2,0.20616135001182556,0
52,100,0.09090909090909091,450,0,26,DL_Guitar_2,6,1,DL_Guitar_2,0.20935745537281036,0
64,100,0.2,246,1,27,DL_Guitar_2,6,3,DL_Guitar_2,0.9935305714607239,0
62,100,0.10909090909090909,324,1,41,DL_Guitar_2,6,2,DL_Guitar_2,0.9996371269226074,1
62,100,0.2590909090909091,410,0,41,DL_Guitar_2,6,4,DL_Guitar_2,0.5456650853157043,0
62,100,0.10909090909090909,60,1,42,DL_Guitar_2,6,2,DL_Guitar_2,0.9998051524162292,1
67,100,0.9181818181818182,83,0,42,DL_Guitar_2,6,15,DL_Guitar_2,0.10725627839565277,0
67,100,0.8090909090909091,297,0,42,DL_Guitar_2,6,13,DL_Guitar_2,0.1249256432056427,0
60,100,0.1318181818181818,483,0,42,DL_Guitar_2,6,2,DL_Guitar_2,0.1619165986776352,0
55,100,0.23636363636363636,702,0,42,DL_Guitar_2,6,4,DL_Guitar_2,0.1436283439397812,0
55,100,0.10909090909090909,799,0,42,DL_Guitar_2,6,2,DL_Guitar_2,0.13917411863803864,0
67,100,0.1318181818181818,142,1,43,DL_Guitar_2,6,2,DL_Guitar_2,0.9997027516365051,1
67,100,0.2590909090909091,194,0,43,DL_Guitar_2,6,4,DL_Guitar_2,0.04279313236474991,0
67,100,0.32727272727272727,255,0,43,DL_Guitar_2,6,5,DL_Guitar_2,0.03311655670404434,0
67,100,0.33181818181818185,336,0,43,DL_Guitar_2,6,5,DL_Guitar_2,0.030873697251081467,0
55,100,0.2,441,0,43,DL_Guitar_2,6,3,DL_Guitar_2,0.03227958083152771,0
55,100,0.2409090909090909,489,0,43,DL_Guitar_2,6,4,DL_Guitar_2,0.034223176538944244,0
55,100,0.2772727272727273,563,0,43,DL_Guitar_2,6,4,DL_Guitar_2,0.040740903466939926,0
55,100,0.16818181818181818,700,0,43,DL_Guitar_2,6,3,DL_Guitar_2,0.05157950147986412,0
62,100,0.2409090909090909,772,0,43,DL_Guitar_2,6,4,DL_Guitar_2,0.04799583554267883,0
67,100,0.11363636363636363,1,1,44,DL_Guitar_2,6,2,DL_Guitar_2,0.9997214674949646,1
62,100,0.10909090909090909,123,0,44,DL_Guitar_2,6,2,DL_Guitar_2,0.058311160653829575,0
67,100,0.16363636363636364,151,0,44,DL_Guitar_2,6,3,DL_Guitar_2,0.04738067835569382,0
67,100,0.2909090909090909,217,0,44,DL_Guitar_2,6,5,DL_Guitar_2,0.048432718962430954,0
67,100,0.8454545454545455,294,0,44,DL_Guitar_2,6,14,DL_Guitar_2,0.0493939146399498,0
65,100,0.36818181818181817,483,0,44,DL_Guitar_2,6,6,DL_Guitar_2,0.06792356073856354,0
65,100,0.5863636363636363,569,0,44,DL_Guitar_2,6,9,DL_Guitar_2,0.06477615237236023,0
65,100,0.7909090909090909,701,0,44,DL_Guitar_2,6,13,DL_Guitar_2,0.0649218037724495,0
64,100,0.5318181818181819,150,1,45,DL_Guitar_2,6,9,DL_Guitar_2,0.9998001456260681,1
64,100,0.4409090909090909,298,0,45,DL_Guitar_2,6,7,DL_Guitar_2,0.12895357608795166,0
67,100,0.10909090909090909,456,0,45,DL_Guitar_2,6,2,DL_Guitar_2,0.12004172801971436,0
60,100,0.31363636363636366,537,0,45,DL_Guitar_2,6,5,DL_Guitar_2,0.1346655786037445,0
60,100,0.18181818181818182,715,0,45,DL_Guitar_2,6,3,DL_Guitar_2,0.14575622975826263,0
60,100,0.8272727272727273,792,0,45,DL_Guitar_2,6,13,DL_Guitar_2,0.12537553906440735,0
60,100,0.10909090909090909,103,1,46,DL_Guitar_2,6,2,DL_Guitar_2,0.9997797608375549,1
60,100,0.29545454545454547,151,0,46,DL_Guitar_2,6,5,DL_Guitar_2,0.07779247313737869,0
60,100,0.8818181818181818,235,0,46,DL_Guitar_2,6,14,DL_Guitar_2,0.06943131983280182,0
60,100,0.10909090909090909,467,1,46,DL_Guitar_2,6,2,DL_Guitar_2,0.08677716553211212,0
55,100,0.6045454545454545,495,0,46,DL_Guitar_2,6,10,DL_Guitar_2,0.08539227396249771,0
55,100,0.4818181818181818,713,0,46,DL_Guitar_2,6,8,DL_Guitar_2,0.10075052827596664,0
55,100,0.6636363636363637,874,0,46,DL_Guitar_2,6,11,DL_Guitar_2,0.08697321265935898,0
55,100,0.2,144,1,47,DL_Guitar_2,6,3,DL_Guitar_2,0.9998289346694946,1
55,100,0.8454545454545455,192,0,47,DL_Guitar_2,6,14,DL_Guitar_2,0.1925312578678131,0
67,100,0.15,386,0,47,DL_Guitar_2,6,2,DL_Guitar_2,0.22846291959285736,0
55,100,0.16363636363636364,419,0,47,DL_Guitar_2,6,3,DL_Guitar_2,0.21614423394203186,0
55,100,1.4681818181818183,602,0,47,DL_Guitar_2,6,15,DL_Guitar_2,0.19575193524360657,0
67,100,0.11363636363636363,45,1,48,DL_Guitar_2,6,2,DL_Guitar_2,0.9998088479042053,1
55,100,0.10909090909090909,122,0,48,DL_Guitar_2,6,2,DL_Guitar_2,0.12482824921607971,0
55,100,0.35,153,0,48,DL_Guitar_2,6,6,DL_Guitar_2,0.11772127449512482,0
67,100,0.2590909090909091,295,0,48,DL_Guitar_2,6,4,DL_Guitar_2,0.1339530199766159,0
60,100,0.2590909090909091,603,1,48,DL_Guitar_2,6,4,DL_Guitar_2,0.14897595345973969,0
65,100,0.18181818181818182,797,0,48,DL_Guitar_2,6,3,DL_Guitar_2,0.13236670196056366,0
62,100,0.14545454545454545,14,1,49,DL_Guitar_2,6,2,DL_Guitar_2,0.9997114539146423,1
60,100,0.33181818181818185,55,0,49,DL_Guitar_2,6,5,DL_Guitar_2,0.04252764955163002,0
65,100,0.14545454545454545,139,0,49,DL_Guitar_2,6,2,DL_Guitar_2,0.03366470709443092,0
62,100,0.12727272727272726,225,0,49,DL_Guitar_2,6,2,DL_Guitar_2,0.029590608552098274,0
60,100,0.09090909090909091,294,0,49,DL_Guitar_2,6,1,DL_Guitar_2,0.030211586505174637,0
65,100,0.6818181818181818,337,0,49,DL_Guitar_2,6,11,DL_Guitar_2,0.029591374099254608,0
55,100,0.44545454545454544,556,0,49,DL_Guitar_2,6,7,DL_Guitar_2,0.04108990356326103,0
55,100,0.2590909090909091,709,0,49,DL_Guitar_2,6,4,DL_Guitar_2,0.049310535192489624,0
55,100,0.20454545454545456,795,0,49,DL_Guitar_2,6,3,DL_Guitar_2,0.047364741563797,0
55,100,0.23636363636363636,56,1,50,DL_Guitar_2,6,4,DL_Guitar_2,0.999828577041626,1
55,100,0.35,112,0,50,DL_Guitar_2,6,6,DL_Guitar_2,0.20392277836799622,0
55,100,0.7,193,0,50,DL_Guitar_2,6,11,DL_Guitar_2,0.19617000222206116,0
62,100,0.18636363636363637,396,0,50,DL_Guitar_2,6,3,DL_Guitar_2,0.23807908594608307,0
57,100,0.7363636363636363,501,0,50,DL_Guitar_2,6,12,DL_Guitar_2,0.2053501158952713,0
55,100,0.15,57,1,51,DL_Guitar_2,6,2,DL_Guitar_2,0.9995877146720886,1
62,100,0.8272727272727273,284,0,51,DL_Guitar_2,6,13,DL_Guitar_2,0.547216534614563,0
67,100,0.2727272727272727,404,1,52,DL_Guitar_2,6,4,DL_Guitar_2,0.9998478889465332,1
55,100,0.21818181818181817,508,0,52,DL_Guitar_2,6,3,DL_Guitar_2,0.324558824300766,0
55,100,0.4409090909090909,653,0,52,DL_Guitar_2,6,7,DL_Guitar_2,0.2847678065299988,0
57,100,0.10909090909090909,819,0,52,DL_Guitar_2,6,2,DL_Guitar_2,0.31958356499671936,0
55,100,0.7363636363636363,178,1,53,DL_Guitar_2,6,12,DL_Guitar_2,0.9997739195823669,1
55,100,0.2727272727272727,357,0,53,DL_Guitar_2,6,4,DL_Guitar_2,0.14677338302135468,0
55,100,0.18181818181818182,449,0,53,DL_Guitar_2,6,3,DL_Guitar_2,0.13048557937145233,0
55,100,0.10909090909090909,680,0,53,DL_Guitar_2,6,2,DL_Guitar_2,0.14582383632659912,0
55,100,0.1318181818181818,792,0,53,DL_Guitar_2,6,2,DL_Guitar_2,0.14978879690170288,0
55,100,0.8454545454545455,825,0,53,DL_Guitar_2,6,14,DL_Guitar_2,0.12840929627418518,0
55,100,0.6272727272727273,148,1,54,DL_Guitar_2,6,10,DL_Guitar_2,0.9998363256454468,1
55,100,0.10909090909090909,330,0,54,DL_Guitar_2,6,2,DL_Guitar_2,0.3468274772167206,0
55,100,0.4409090909090909,378,0,54,DL_Guitar_2,6,7,DL_Guitar_2,0.2888867259025574,0
55,100,0.6272727272727273,698,1,54,DL_Guitar_2,6,10,DL_Guitar_2,0.3110101819038391,0
62,100,0.20454545454545456,12,1,55,DL_Guitar_2,6,3,DL_Guitar_2,0.9997349381446838,1
55,100,0.18636363636363637,190,0,55,DL_Guitar_2,6,3,DL_Guitar_2,0.055303242057561874,0
62,100,0.10909090909090909,267,0,55,DL_Guitar_2,6,2,DL_Guitar_2,0.048725638538599014,0
55,100,0.22272727272727272,404,0,55,DL_Guitar_2,6,4,DL_Guitar_2,0.04728759452700615,0
55,100,0.2772727272727273,456,0,55,DL_Guitar_2,6,4,DL_Guitar_2,0.05216268077492714,0
55,100,0.40454545454545454,611,0,55,DL_Guitar_2,6,6,DL_Guitar_2,0.058099742978811264,0
55,100,0.4772727272727273,731,0,55,DL_Guitar_2,6,8,DL_Guitar_2,0.0699625313282013,0
55,100,0.5,857,0,55,DL_Guitar_2,6,8,DL_Guitar_2,0.06131986901164055,0
55,100,0.16818181818181818,151,1,56,DL_Guitar_2,6,3,DL_Guitar_2,0.9997667670249939,1
67,100,0.10909090909090909,196,0,56,DL_Guitar_2,6,2,DL_Guitar_2,0.08376481384038925,0
52,100,0.18181818181818182,296,0,56,DL_Guitar_2,6,3,DL_Guitar_2,0.07486685365438461,0
55,100,0.31363636363636366,421,0,56,DL_Guitar_2,6,5,DL_Guitar_2,0.07858729362487793,0
57,100,0.10909090909090909,648,0,56,DL_Guitar_2,6,2,DL_Guitar_2,0.09289273619651794,0
55,100,0.2772727272727273,782,0,56,DL_Guitar_2,6,4,DL_Guitar_2,0.09728938341140747,0
55,100,1.4863636363636363,846,0,56,DL_Guitar_2,6,15,DL_Guitar_2,0.08236195892095566,0
55,100,0.9409090909090909,297,1,57,DL_Guitar_2,6,15,DL_Guitar_2,0.9997679591178894,1
55,100,1.1045454545454545,521,0,57,DL_Guitar_2,6,15,DL_Guitar_2,0.41702476143836975,0
55,100,0.16363636363636364,776,1,57,DL_Guitar_2,6,3,DL_Guitar_2,0.4704110622406006,0
60,100,0.2590909090909091,13,1,58,DL_Guitar_2,6,4,DL_Guitar_2,0.9998283386230469,1
55,100,0.9545454545454546,206,0,58,DL_Guitar_2,6,15,DL_Guitar_2,0.3740236759185791,0
55,100,0.1318181818181818,428,0,58,DL_Guitar_2,6,2,DL_Guitar_2,0.4552633464336395,0
62,100,0.2909090909090909,14,1,59,DL_Guitar_2,6,5,DL_Guitar_2,0.9998292922973633,1
55,100,1.05,90,0,59,DL_Guitar_2,6,15,DL_Guitar_2,0.1826189011335373,0
62,100,0.22272727272727272,337,1,59,DL_Guitar_2,6,4,DL_Guitar_2,0.22588923573493958,0
62,100,0.2772727272727273,451,0,59,DL_Guitar_2,6,4,DL_Guitar_2,0.21724869310855865,0
60,100,0.14545454545454545,852,1,59,DL_Guitar_2,6,2,DL_Guitar_2,0.21833951771259308,0
55,100,0.18181818181818182,93,1,60,DL_Guitar_2,6,3,DL_Guitar_2,0.9998490810394287,1
55,100,0.7,302,0,60,DL_Guitar_2,6,11,DL_Guitar_2,0.29437533020973206,0
57,100,0.38636363636363635,618,1,60,DL_Guitar_2,6,6,DL_Guitar_2,0.3180379867553711,0
55,100,0.9954545454545455,751,0,60,DL_Guitar_2,6,15,DL_Guitar_2,0.30422574281692505,0
55,100,0.31363636363636366,199,1,61,DL_Guitar_2,6,5,DL_Guitar_2,0.9997000694274902,1
55,100,0.2772727272727273,349,0,61,DL_Guitar_2,6,4,DL_Guitar_2,0.04363284260034561,0
67,100,0.20454545454545456,410,0,61,DL_Guitar_2,6,3,DL_Guitar_2,0.03254808112978935,0
55,100,0.21818181818181817,462,0,61,DL_Guitar_2,6,3,DL_Guitar_2,0.03125736489892006,0
55,100,0.09545454545454546,538,0,61,DL_Guitar_2,6,2,DL_Guitar_2,0.030786380171775818,0
55,100,0.12727272727272726,563,0,61,DL_Guitar_2,6,2,DL_Guitar_2,0.03369889780879021,0
55,100,0.2727272727272727,637,0,61,DL_Guitar_2,6,4,DL_Guitar_2,0.04263739287853241,0
55,100,0.40454545454545454,705,0,61,DL_Guitar_2,6,6,DL_Guitar_2,0.04740390554070473,0
60,100,0.15,797,0,61,DL_Guitar_2,6,2,DL_Guitar_2,0.050590820610523224,0
55,100,0.5909090909090909,19,1,62,DL_Guitar_2,6,9,DL_Guitar_2,0.9996988773345947,1
55,100,0.36818181818181817,165,0,62,DL_Guitar_2,6,6,DL_Guitar_2,0.06031828746199608,0
67,100,0.09090909090909091,254,0,62,DL_Guitar_2,6,1,DL_Guitar_2,0.0511816181242466,0
55,100,0.8272727272727273,289,0,62,DL_Guitar_2,6,13,DL_Guitar_2,0.04463949054479599,0
55,100,0.12727272727272726,501,0,62,DL_Guitar_2,6,2,DL_Guitar_2,0.06092381477355957,0
62,100,0.7,541,0,62,DL_Guitar_2,6,11,DL_Guitar_2,0.059163205325603485,0
74,100,0.23636363636363636,796,1,62,DL_Guitar_2,6,4,DL_Guitar_2,0.07750320434570312,0
67,100,0.12727272727272726,873,0,62,DL_Guitar_2,6,2,DL_Guitar_2,0.06348511576652527,0
62,100,0.12727272727272726,206,1,63,DL_Guitar_2,6,2,DL_Guitar_2,0.9998341798782349,1
55,100,0.23636363636363636,364,0,63,DL_Guitar_2,6,4,DL_Guitar_2,0.4037226736545563,0
55,100,1.4681818181818183,547,0,63,DL_Guitar_2,6,15,DL_Guitar_2,0.40595921874046326,0
55,100,0.42272727272727273,11,1,64,DL_Guitar_2,6,7,DL_Guitar_2,0.9996585845947266,1
52,100,0.10909090909090909,115,0,64,DL_Guitar_2,6,2,DL_Guitar_2,0.03945985808968544,0
55,100,0.09545454545454546,188,0,64,DL_Guitar_2,6,2,DL_Guitar_2,0.02521597035229206,0
67,100,0.42272727272727273,212,0,64,DL_Guitar_2,6,7,DL_Guitar_2,0.021249791607260704,0
55,100,1.009090909090909,305,0,64,DL_Guitar_2,6,15,DL_Guitar_2,0.018145812675356865,0
57,100,0.11363636363636363,632,1,64,DL_Guitar_2,6,2,DL_Guitar_2,0.023291122168302536,0
55,100,0.2545454545454545,670,0,64,DL_Guitar_2,6,4,DL_Guitar_2,0.023274878039956093,0
55,100,0.11363636363636363,738,0,64,DL_Guitar_2,6,2,DL_Guitar_2,0.03114764578640461,0
60,100,0.10909090909090909,762,0,64,DL_Guitar_2,6,2,DL_Guitar_2,0.040297288447618484,0
55,100,0.29545454545454547,802,0,64,DL_Guitar_2,6,5,DL_Guitar_2,0.03760303929448128,0
55,100,0.42272727272727273,0,1,65,DL_Guitar_2,6,7,DL_Guitar_2,0.9997062087059021,1
62,100,0.2909090909090909,141,0,65,DL_Guitar_2,6,5,DL_Guitar_2,0.060935549437999725,0
62,100,0.35,218,0,65,DL_Guitar_2,6,6,DL_Guitar_2,0.049088213592767715,0
62,100,0.38636363636363635,299,0,65,DL_Guitar_2,6,6,DL_Guitar_2,0.05304936692118645,0
55,100,0.5318181818181819,412,0,65,DL_Guitar_2,6,9,DL_Guitar_2,0.05412733927369118,0
55,100,0.1318181818181818,577,0,65,DL_Guitar_2,6,2,DL_Guitar_2,0.07200464606285095,0
55,100,1.0272727272727273,627,0,65,DL_Guitar_2,6,15,DL_Guitar_2,0.06523153185844421,0
55,100,2.040909090909091,861,1,65,DL_Guitar_2,6,15,DL_Guitar_2,0.0661037415266037,0
67,100,0.1318181818181818,429,1,66,DL_Guitar_2,6,2,DL_Guitar_2,0.9998503923416138,1
55,100,0.38636363636363635,458,0,66,DL_Guitar_2,6,6,DL_Guitar_2,0.3053264319896698,0
60,100,0.7727272727272727,560,0,66,DL_Guitar_2,6,12,DL_Guitar_2,0.2992730140686035,0
60,100,0.6227272727272727,733,0,66,DL_Guitar_2,6,10,DL_Guitar_2,0.32176053524017334,0
67,100,0.10909090909090909,225,1,67,DL_Guitar_2,6,2,DL_Guitar_2,0.9998382329940796,1
67,100,0.12727272727272726,424,0,67,DL_Guitar_2,6,2,DL_Guitar_2,0.20887073874473572,0
55,100,0.11363636363636363,476,0,67,DL_Guitar_2,6,2,DL_Guitar_2,0.20150722563266754,0
55,100,0.10909090909090909,533,0,67,DL_Guitar_2,6,2,DL_Guitar_2,0.21223314106464386,0
55,100,1.1181818181818182,605,0,67,DL_Guitar_2,6,15,DL_Guitar_2,0.193402960896492,0
55,100,1.9090909090909092,0,1,68,DL_Guitar_2,6,15,DL_Guitar_2,0.9900318384170532,1
52,100,0.21818181818181817,418,1,0,DL_Guitar,6,3,DL_Guitar,0.9996631145477295,1
60,100,0.1,796,1,0,DL_Guitar,6,2,DL_Guitar,0.5478671193122864,0
64,100,0.1409090909090909,0,1,1,DL_Guitar,6,2,DL_Guitar,0.9997413754463196,1
64,100,0.2772727272727273,39,0,1,DL_Guitar,6,4,DL_Guitar,0.053596995770931244,0
52,100,0.4,157,0,1,DL_Guitar,6,6,DL_Guitar,0.04577121138572693,0
59,100,0.1590909090909091,276,0,1,DL_Guitar,6,3,DL_Guitar,0.04632551223039627,0
52,100,0.6409090909090909,343,0,1,DL_Guitar,6,10,DL_Guitar,0.049513883888721466,0
53,100,0.1,496,0,1,DL_Guitar,6,2,DL_Guitar,0.0619688555598259,0
60,100,0.4409090909090909,752,1,1,DL_Guitar,6,7,DL_Guitar,0.06359312683343887,0
65,100,0.13636363636363635,854,0,1,DL_Guitar,6,2,DL_Guitar,0.061404719948768616,0
57,100,0.18181818181818182,43,1,2,DL_Guitar,6,3,DL_Guitar,0.9997000694274902,1
57,100,0.2818181818181818,136,0,2,DL_Guitar,6,5,DL_Guitar,0.041376374661922455,0
53,100,0.2590909090909091,220,0,2,DL_Guitar,6,4,DL_Guitar,0.0342567078769207,0
53,100,0.11818181818181818,281,0,2,DL_Guitar,6,2,DL_Guitar,0.03103601559996605,0
53,100,0.18181818181818182,396,0,2,DL_Guitar,6,3,DL_Guitar,0.03075389564037323,0
60,100,0.4409090909090909,470,0,2,DL_Guitar,6,7,DL_Guitar,0.034127797931432724,0
57,100,0.4409090909090909,620,0,2,DL_Guitar,6,7,DL_Guitar,0.04001212120056152,0
62,100,0.1590909090909091,779,0,2,DL_Guitar,6,3,DL_Guitar,0.05252452194690704,0
62,100,0.3,849,0,2,DL_Guitar,6,5,DL_Guitar,0.046065784990787506,0
57,100,0.2,119,1,3,DL_Guitar,6,3,DL_Guitar,0.9998289346694946,1
62,100,0.3409090909090909,201,0,3,DL_Guitar,6,5,DL_Guitar,0.4143664240837097,0
62,100,0.11818181818181818,461,1,3,DL_Guitar,6,2,DL_Guitar,0.4300462603569031,0
60,100,0.1409090909090909,74,1,4,DL_Guitar,6,2,DL_Guitar,0.9996620416641235,1
60,100,0.21818181818181817,307,1,4,DL_Guitar,6,3,DL_Guitar,0.5401063561439514,0
60,100,0.11818181818181818,30,1,5,DL_Guitar,6,2,DL_Guitar,0.999718964099884,1
64,100,0.11818181818181818,118,0,5,DL_Guitar,6,2,DL_Guitar,0.041581109166145325,0
64,100,0.2,171,0,5,DL_Guitar,6,3,DL_Guitar,0.03212665766477585,0
64,100,0.3,228,0,5,DL_Guitar,6,5,DL_Guitar,0.029248273000121117,0
64,100,0.18181818181818182,299,0,5,DL_Guitar,6,3,DL_Guitar,0.029706718400120735,0
64,100,0.2,355,0,5,DL_Guitar,6,3,DL_Guitar,0.031770266592502594,0
64,100,0.1590909090909091,404,0,5,DL_Guitar,6,3,DL_Guitar,0.039781615138053894,0
52,100,0.1,475,0,5,DL_Guitar,6,2,DL_Guitar,0.04691876471042633,0
52,100,0.5181818181818182,634,0,5,DL_Guitar,6,8,DL_Guitar,0.04335450753569603,0
60,100,0.3181818181818182,220,1,6,DL_Guitar,6,5,DL_Guitar,0.9998250603675842,1
57,100,0.8181818181818182,307,0,6,DL_Guitar,6,13,DL_Guitar,0.3717118203639984,0
60,100,0.12272727272727273,488,0,6,DL_Guitar,6,2,DL_Guitar,0.4644879698753357,0
62,100,0.3,69,1,7,DL_Guitar,6,5,DL_Guitar,0.9998332262039185,1
62,100,0.3409090909090909,158,0,7,DL_Guitar,6,5,DL_Guitar,0.21168550848960876,0
62,100,0.2590909090909091,352,0,7,DL_Guitar,6,4,DL_Guitar,0.20130939781665802,0
62,100,0.5409090909090909,624,1,7,DL_Guitar,6,9,DL_Guitar,0.20279596745967865,0
62,100,0.1409090909090909,778,0,7,DL_Guitar,6,2,DL_Guitar,0.21575050055980682,0
62,100,0.2409090909090909,343,1,8,DL_Guitar,6,4,DL_Guitar,0.9998388290405273,1
62,100,0.18181818181818182,409,0,8,DL_Guitar,6,3,DL_Guitar,0.2140720784664154,0
62,100,0.1590909090909091,457,0,8,DL_Guitar,6,3,DL_Guitar,0.19881846010684967,0
62,100,0.11818181818181818,603,0,8,DL_Guitar,6,2,DL_Guitar,0.2066008597612381,0
62,100,0.1409090909090909,835,1,8,DL_Guitar,6,2,DL_Guitar,0.201894611120224,0
62,100,0.1,140,1,9,DL_Guitar,6,2,DL_Guitar,0.9997681975364685,1
60,100,0.9227272727272727,233,0,9,DL_Guitar,6,15,DL_Guitar,0.07195140421390533,0
60,100,0.4409090909090909,443,0,9,DL_Guitar,6,7,DL_Guitar,0.08019385486841202,0
57,100,0.2590909090909091,656,0,9,DL_Guitar,6,4,DL_Guitar,0.07787485420703888,0
60,100,0.1590909090909091,721,0,9,DL_Guitar,6,3,DL_Guitar,0.09416487067937851,0
53,100,0.22272727272727272,773,0,9,DL_Guitar,6,4,DL_Guitar,0.0923287495970726,0
59,100,0.1,826,0,9,DL_Guitar,6,2,DL_Guitar,0.08720707148313522,0
59,100,0.41818181818181815,149,1,10,DL_Guitar,6,7,DL_Guitar,0.9998030066490173,1
60,100,0.1,250,0,10,DL_Guitar,6,2,DL_Guitar,0.12993822991847992,0
60,100,0.8181818181818182,316,0,10,DL_Guitar,6,13,DL_Guitar,0.11059939116239548,0
55,100,0.2409090909090909,620,1,10,DL_Guitar,6,4,DL_Guitar,0.13900397717952728,0
53,100,0.1,677,0,10,DL_Guitar,6,2,DL_Guitar,0.15024088323116302,0
55,100,0.18181818181818182,708,0,10,DL_Guitar,6,3,DL_Guitar,0.1309167593717575,0
55,100,0.1590909090909091,53,1,11,DL_Guitar,6,3,DL_Guitar,0.9998272061347961,1
55,100,0.2,92,0,11,DL_Guitar,6,3,DL_Guitar,0.21528443694114685,0
62,100,0.1,197,0,11,DL_Guitar,6,2,DL_Guitar,0.20963868498802185,0
62,100,0.4,228,0,11,DL_Guitar,6,6,DL_Guitar,0.20849144458770752,0
55,100,0.7181818181818181,414,0,11,DL_Guitar,6,11,DL_Guitar,0.2017328143119812,0
52,100,0.4772727272727273,61,1,12,DL_Guitar,6,8,DL_Guitar,0.9998331069946289,1
52,100,0.1409090909090909,242,0,12,DL_Guitar,6,2,DL_Guitar,0.2176174819469452,0
53,100,0.1409090909090909,364,0,12,DL_Guitar,6,2,DL_Guitar,0.19670508801937103,0
60,100,0.17727272727272728,515,0,12,DL_Guitar,6,3,DL_Guitar,0.20904570817947388,0
67,100,0.5818181818181818,673,0,12,DL_Guitar,6,9,DL_Guitar,0.19175949692726135,0
53,100,0.2,132,1,13,DL_Guitar,6,3,DL_Guitar,0.9998080134391785,1
53,100,0.1590909090909091,326,0,13,DL_Guitar,6,3,DL_Guitar,0.12465917319059372,0
55,100,0.12272727272727273,453,0,13,DL_Guitar,6,2,DL_Guitar,0.11967375874519348,0
62,100,0.6181818181818182,603,0,13,DL_Guitar,6,10,DL_Guitar,0.12974907457828522,0
62,100,0.12272727272727273,773,0,13,DL_Guitar,6,2,DL_Guitar,0.15254034101963043,0
62,100,0.42272727272727273,804,0,13,DL_Guitar,6,7,DL_Guitar,0.13202552497386932,0
62,100,0.3409090909090909,30,1,14,DL_Guitar,6,5,DL_Guitar,0.9998268485069275,1
55,100,0.37727272727272726,237,0,14,DL_Guitar,6,6,DL_Guitar,0.40207022428512573,0
55,100,0.1409090909090909,505,1,14,DL_Guitar,6,2,DL_Guitar,0.43490177392959595,0
64,100,0.35909090909090907,65,1,15,DL_Guitar,6,6,DL_Guitar,0.9998064637184143,1
62,100,0.2409090909090909,206,0,15,DL_Guitar,6,4,DL_Guitar,0.12519511580467224,0
62,100,0.3409090909090909,338,0,15,DL_Guitar,6,5,DL_Guitar,0.12009958177804947,0
55,100,0.759090909090909,479,0,15,DL_Guitar,6,12,DL_Guitar,0.1264229118824005,0
52,100,0.36363636363636365,663,0,15,DL_Guitar,6,6,DL_Guitar,0.15830861032009125,0
55,100,0.4,809,0,15,DL_Guitar,6,6,DL_Guitar,0.12887030839920044,0
52,100,0.2,312,1,16,DL_Guitar,6,3,DL_Guitar,0.9998469352722168,1
52,100,0.18181818181818182,378,0,16,DL_Guitar,6,3,DL_Guitar,0.2053479254245758,0
60,100,0.2,449,0,16,DL_Guitar,6,3,DL_Guitar,0.19189555943012238,0
52,100,0.7636363636363637,553,0,16,DL_Guitar,6,12,DL_Guitar,0.1911087930202484,0
60,100,0.2772727272727273,787,1,16,DL_Guitar,6,4,DL_Guitar,0.21011346578598022,0
65,100,0.13636363636363635,106,1,17,DL_Guitar,6,2,DL_Guitar,0.9935190081596375,0
65,100,0.16363636363636364,202,1,18,DL_Guitar,6,3,DL_Guitar,0.9998565912246704,1
65,100,0.11818181818181818,241,0,18,DL_Guitar,6,2,DL_Guitar,0.324882447719574,0
53,100,0.18181818181818182,532,1,18,DL_Guitar,6,3,DL_Guitar,0.2829296290874481,0
53,100,0.11818181818181818,581,0,18,DL_Guitar,6,2,DL_Guitar,0.3033204972743988,0
64,100,0.3181818181818182,75,1,19,DL_Guitar,6,5,DL_Guitar,0.9933284521102905,0
52,100,0.2636363636363636,136,1,20,DL_Guitar,6,4,DL_Guitar,0.9997695088386536,1
60,100,0.6590909090909091,193,0,20,DL_Guitar,6,11,DL_Guitar,0.07693951576948166,0
55,100,0.1590909090909091,351,0,20,DL_Guitar,6,3,DL_Guitar,0.0773516595363617,0
55,100,0.8409090909090909,395,0,20,DL_Guitar,6,13,DL_Guitar,0.07780439406633377,0
55,100,0.18181818181818182,638,1,20,DL_Guitar,6,3,DL_Guitar,0.10285782068967819,0
55,100,0.2409090909090909,773,0,20,DL_Guitar,6,4,DL_Guitar,0.09853507578372955,0
52,100,0.5590909090909091,831,0,20,DL_Guitar,6,9,DL_Guitar,0.08891910314559937,0
52,100,0.1409090909090909,96,1,21,DL_Guitar,6,2,DL_Guitar,0.9998599290847778,1
55,100,0.4818181818181818,540,1,21,DL_Guitar,6,8,DL_Guitar,0.29316049814224243,0
55,100,0.3181818181818182,669,0,21,DL_Guitar,6,5,DL_Guitar,0.2929781377315521,0
62,100,0.1409090909090909,739,0,21,DL_Guitar,6,2,DL_Guitar,0.31724533438682556,0
55,100,0.2,79,1,22,DL_Guitar,6,3,DL_Guitar,0.9998468160629272,1
55,100,0.37727272727272726,140,0,22,DL_Guitar,6,6,DL_Guitar,0.31227225065231323,0
52,100,0.3,729,1,22,DL_Guitar,6,5,DL_Guitar,0.3102591037750244,0
52,100,0.2,858,0,22,DL_Guitar,6,3,DL_Guitar,0.3043021857738495,0
52,100,0.32272727272727275,69,1,23,DL_Guitar,6,5,DL_Guitar,0.9998446702957153,1
52,100,1.4227272727272726,158,0,23,DL_Guitar,6,15,DL_Guitar,0.2806338667869568,0
55,100,0.11818181818181818,546,1,23,DL_Guitar,6,2,DL_Guitar,0.32365527749061584,0
52,100,0.2772727272727273,721,0,23,DL_Guitar,6,4,DL_Guitar,0.32315295934677124,0
55,100,0.2772727272727273,250,1,24,DL_Guitar,6,4,DL_Guitar,0.9998238682746887,1
56,100,0.12272727272727273,378,0,24,DL_Guitar,6,2,DL_Guitar,0.4246271252632141,0
60,100,0.9,461,0,24,DL_Guitar,6,14,DL_Guitar,0.41454777121543884,0
52,100,0.4818181818181818,26,1,25,DL_Guitar,6,8,DL_Guitar,0.9998453855514526,1
55,100,0.2818181818181818,264,1,25,DL_Guitar,6,5,DL_Guitar,0.3173062205314636,0
55,100,0.2409090909090909,387,0,25,DL_Guitar,6,4,DL_Guitar,0.2982093095779419,0
59,100,0.2590909090909091,611,0,25,DL_Guitar,6,4,DL_Guitar,0.31268221139907837,0
52,100,0.32272727272727275,100,1,26,DL_Guitar,6,5,DL_Guitar,0.9997727274894714,1
52,100,0.5409090909090909,399,1,26,DL_Guitar,6,9,DL_Guitar,0.07642797380685806,0
65,100,0.1409090909090909,536,0,26,DL_Guitar,6,2,DL_Guitar,0.07437393814325333,0
65,100,0.2,629,0,26,DL_Guitar,6,3,DL_Guitar,0.07991679757833481,0
65,100,0.5590909090909091,677,0,26,DL_Guitar,6,9,DL_Guitar,0.08760526031255722,0
53,100,0.1409090909090909,814,0,26,DL_Guitar,6,2,DL_Guitar,0.10051847249269485,0
65,100,0.740909090909091,845,0,26,DL_Guitar,6,12,DL_Guitar,0.08345769345760345,0
53,100,0.13636363636363635,171,1,27,DL_Guitar,6,2,DL_Guitar,0.9998551607131958,1
65,100,0.3,220,0,27,DL_Guitar,6,5,DL_Guitar,0.3144002854824066,0
65,100,0.1409090909090909,382,0,27,DL_Guitar,6,2,DL_Guitar,0.2966502606868744,0
55,100,0.1409090909090909,773,1,27,DL_Guitar,6,2,DL_Guitar,0.296182245016098,0
55,100,0.41818181818181815,40,1,28,DL_Guitar,6,7,DL_Guitar,0.9997791647911072,1
62,100,0.17727272727272728,260,0,28,DL_Guitar,6,3,DL_Guitar,0.13804712891578674,0
62,100,0.2,395,0,28,DL_Guitar,6,3,DL_Guitar,0.1257690191268921,0
55,100,0.3,501,0,28,DL_Guitar,6,5,DL_Guitar,0.13047653436660767,0
62,100,0.36363636363636365,598,0,28,DL_Guitar,6,6,DL_Guitar,0.1458015888929367,0
52,100,0.1,743,0,28,DL_Guitar,6,2,DL_Guitar,0.1382913589477539,0
64,100,0.22272727272727272,598,1,29,DL_Guitar,6,4,DL_Guitar,0.9936338663101196,0
62,100,0.11818181818181818,8,1,45,DL_Guitar,6,2,DL_Guitar,0.9998570680618286,1
62,100,0.2818181818181818,101,0,45,DL_Guitar,6,5,DL_Guitar,0.323818176984787,0
62,100,0.11818181818181818,678,1,45,DL_Guitar,6,2,DL_Guitar,0.3024853467941284,0
67,100,1.0,703,0,45,DL_Guitar,6,15,DL_Guitar,0.2893275022506714,0
67,100,0.8818181818181818,56,1,46,DL_Guitar,6,14,DL_Guitar,0.9998062252998352,1
60,100,0.13636363636363635,260,0,46,DL_Guitar,6,2,DL_Guitar,0.24231332540512085,0
55,100,0.2590909090909091,496,1,46,DL_Guitar,6,4,DL_Guitar,0.20030012726783752,0
55,100,0.11818181818181818,603,0,46,DL_Guitar,6,2,DL_Guitar,0.21343041956424713,0
67,100,0.1409090909090909,845,1,46,DL_Guitar,6,2,DL_Guitar,0.207830011844635,0
67,100,0.2818181818181818,21,1,47,DL_Guitar,6,5,DL_Guitar,0.9996898174285889,1
67,100,0.35909090909090907,88,0,47,DL_Guitar,6,6,DL_Guitar,0.043001748621463776,0
67,100,0.35909090909090907,176,0,47,DL_Guitar,6,6,DL_Guitar,0.03441388159990311,0
55,100,0.22272727272727272,289,0,47,DL_Guitar,6,4,DL_Guitar,0.03220946714282036,0
55,100,0.2590909090909091,343,0,47,DL_Guitar,6,4,DL_Guitar,0.031694695353507996,0
55,100,0.3,421,0,47,DL_Guitar,6,5,DL_Guitar,0.03583556041121483,0
55,100,0.18181818181818182,571,0,47,DL_Guitar,6,3,DL_Guitar,0.04167790710926056,0
62,100,0.2590909090909091,651,0,47,DL_Guitar,6,4,DL_Guitar,0.05298455059528351,0
67,100,0.11818181818181818,770,0,47,DL_Guitar,6,2,DL_Guitar,0.047116804867982864,0
62,100,0.11818181818181818,21,1,48,DL_Guitar,6,2,DL_Guitar,0.9997727274894714,1
67,100,0.17727272727272728,53,0,48,DL_Guitar,6,3,DL_Guitar,0.07495743036270142,0
67,100,0.32272727272727275,123,0,48,DL_Guitar,6,5,DL_Guitar,0.07374896854162216,0
67,100,0.9181818181818182,206,0,48,DL_Guitar,6,15,DL_Guitar,0.07687340676784515,0
65,100,0.4,413,0,48,DL_Guitar,6,6,DL_Guitar,0.10332947224378586,0
65,100,0.6409090909090909,506,0,48,DL_Guitar,6,10,DL_Guitar,0.1015472412109375,0
65,100,0.8590909090909091,651,0,48,DL_Guitar,6,14,DL_Guitar,0.09335543215274811,0
64,100,0.5772727272727273,128,1,49,DL_Guitar,6,9,DL_Guitar,0.99980229139328,1
64,100,0.4818181818181818,289,0,49,DL_Guitar,6,8,DL_Guitar,0.1283014416694641,0
67,100,0.11818181818181818,461,0,49,DL_Guitar,6,2,DL_Guitar,0.12200964242219925,0
60,100,0.3409090909090909,550,0,49,DL_Guitar,6,5,DL_Guitar,0.13784952461719513,0
60,100,0.2,743,0,49,DL_Guitar,6,3,DL_Guitar,0.14484257996082306,0
60,100,0.9,826,0,49,DL_Guitar,6,14,DL_Guitar,0.12493067234754562,0
60,100,0.11818181818181818,153,1,50,DL_Guitar,6,2,DL_Guitar,0.9998162388801575,1
60,100,0.3181818181818182,206,0,50,DL_Guitar,6,5,DL_Guitar,0.12305450439453125,0
60,100,0.9590909090909091,298,0,50,DL_Guitar,6,15,DL_Guitar,0.11343894153833389,0
60,100,0.11818181818181818,550,1,50,DL_Guitar,6,2,DL_Guitar,0.15322154760360718,0
55,100,0.6590909090909091,581,0,50,DL_Guitar,6,11,DL_Guitar,0.12973317503929138,0
55,100,0.5227272727272727,818,1,50,DL_Guitar,6,8,DL_Guitar,0.13891588151454926,0
55,100,0.7227272727272728,114,1,51,DL_Guitar,6,12,DL_Guitar,0.9997768998146057,1
55,100,0.22272727272727272,276,0,51,DL_Guitar,6,4,DL_Guitar,0.1424863338470459,0
55,100,0.9181818181818182,330,0,51,DL_Guitar,6,15,DL_Guitar,0.12210284173488617,0
67,100,0.1590909090909091,541,0,51,DL_Guitar,6,3,DL_Guitar,0.15703034400939941,0
55,100,0.18181818181818182,576,0,51,DL_Guitar,6,3,DL_Guitar,0.15898537635803223,0
55,100,1.6,774,0,51,DL_Guitar,6,15,DL_Guitar,0.13022975623607635,0
67,100,0.12272727272727273,246,1,52,DL_Guitar,6,2,DL_Guitar,0.9998372793197632,1
55,100,0.11818181818181818,330,0,52,DL_Guitar,6,2,DL_Guitar,0.21000412106513977,0
55,100,0.38181818181818183,364,0,52,DL_Guitar,6,6,DL_Guitar,0.1916297972202301,0
67,100,0.2818181818181818,518,0,52,DL_Guitar,6,5,DL_Guitar,0.21220389008522034,0
60,100,0.2772727272727273,853,1,52,DL_Guitar,6,4,DL_Guitar,0.21318213641643524,0
65,100,0.2,185,1,53,DL_Guitar,6,3,DL_Guitar,0.9997774958610535,1
62,100,0.16363636363636364,289,0,53,DL_Guitar,6,3,DL_Guitar,0.07774283736944199,0
60,100,0.36363636363636365,334,0,53,DL_Guitar,6,6,DL_Guitar,0.07312334328889847,0
65,100,0.1590909090909091,426,0,53,DL_Guitar,6,3,DL_Guitar,0.0805894285440445,0
62,100,0.1409090909090909,518,0,53,DL_Guitar,6,2,DL_Guitar,0.08790037035942078,0
60,100,0.1,593,0,53,DL_Guitar,6,2,DL_Guitar,0.09432868659496307,0
65,100,0.740909090909091,641,0,53,DL_Guitar,6,12,DL_Guitar,0.08147256821393967,0
55,100,0.4818181818181818,0,1,54,DL_Guitar,6,8,DL_Guitar,0.999739944934845,1
55,100,0.2818181818181818,166,0,54,DL_Guitar,6,5,DL_Guitar,0.08671262115240097,0
55,100,0.21818181818181817,260,0,54,DL_Guitar,6,3,DL_Guitar,0.07650060951709747,0
55,100,0.2590909090909091,413,0,54,DL_Guitar,6,4,DL_Guitar,0.08645504713058472,0
55,100,0.38181818181818183,474,0,54,DL_Guitar,6,6,DL_Guitar,0.09249220043420792,0
55,100,0.759090909090909,563,0,54,DL_Guitar,6,12,DL_Guitar,0.0987180545926094,0
62,100,0.2,783,0,54,DL_Guitar,6,3,DL_Guitar,0.10377979278564453,0
57,100,0.8,18,1,55,DL_Guitar,6,13,DL_Guitar,0.9997933506965637,1
55,100,0.1590909090909091,493,1,55,DL_Guitar,6,3,DL_Guitar,0.45388853549957275,0
62,100,0.9,738,1,55,DL_Guitar,6,14,DL_Guitar,0.42320239543914795,0
67,100,0.3,66,1,57,DL_Guitar,6,5,DL_Guitar,0.999832272529602,1
55,100,0.2409090909090909,179,0,57,DL_Guitar,6,4,DL_Guitar,0.20999537408351898,0
55,100,0.4772727272727273,338,0,57,DL_Guitar,6,8,DL_Guitar,0.20001937448978424,0
57,100,0.12272727272727273,518,0,57,DL_Guitar,6,2,DL_Guitar,0.22200442850589752,0
55,100,0.8,778,1,57,DL_Guitar,6,13,DL_Guitar,0.19856120645999908,0
55,100,0.3,91,1,58,DL_Guitar,6,5,DL_Guitar,0.9997914433479309,1
55,100,0.2,193,0,58,DL_Guitar,6,3,DL_Guitar,0.13416610658168793,0
55,100,0.12272727272727273,444,1,58,DL_Guitar,6,2,DL_Guitar,0.1268863081932068,0
55,100,0.13636363636363635,568,0,58,DL_Guitar,6,2,DL_Guitar,0.14276522397994995,0
55,100,0.9181818181818182,603,0,58,DL_Guitar,6,15,DL_Guitar,0.13296231627464294,0
55,100,0.6772727272727272,823,0,58,DL_Guitar,6,11,DL_Guitar,0.1432199776172638,0
55,100,0.11818181818181818,141,1,59,DL_Guitar,6,2,DL_Guitar,0.9998390674591064,1
55,100,0.4772727272727273,193,0,59,DL_Guitar,6,8,DL_Guitar,0.3121759593486786,0
55,100,0.6818181818181818,541,1,59,DL_Guitar,6,11,DL_Guitar,0.289150208234787,0
62,100,0.22272727272727272,751,0,59,DL_Guitar,6,4,DL_Guitar,0.3393017053604126,0
55,100,0.2,66,1,60,DL_Guitar,6,3,DL_Guitar,0.9997656941413879,1
62,100,0.11818181818181818,150,0,60,DL_Guitar,6,2,DL_Guitar,0.08110296726226807,0
55,100,0.2409090909090909,298,0,60,DL_Guitar,6,4,DL_Guitar,0.07161037623882294,0
55,100,0.3,356,0,60,DL_Guitar,6,5,DL_Guitar,0.07987073808908463,0
55,100,0.43636363636363634,523,0,60,DL_Guitar,6,7,DL_Guitar,0.08898994326591492,0
55,100,0.5181818181818182,655,0,60,DL_Guitar,6,8,DL_Guitar,0.09781365096569061,0
55,100,0.5409090909090909,791,0,60,DL_Guitar,6,9,DL_Guitar,0.08920467644929886,0
55,100,0.18181818181818182,101,1,61,DL_Guitar,6,3,DL_Guitar,0.9997645020484924,1
67,100,0.11818181818181818,150,0,61,DL_Guitar,6,2,DL_Guitar,0.08394606411457062,0
52,100,0.2,260,0,61,DL_Guitar,6,3,DL_Guitar,0.07740885019302368,0
55,100,0.3409090909090909,396,0,61,DL_Guitar,6,5,DL_Guitar,0.07970905303955078,0
57,100,0.12272727272727273,641,1,61,DL_Guitar,6,2,DL_Guitar,0.09813632071018219,0
55,100,0.3,788,0,61,DL_Guitar,6,5,DL_Guitar,0.09623865783214569,0
55,100,1.6181818181818182,858,0,61,DL_Guitar,6,15,DL_Guitar,0.0819520503282547,0
55,100,1.018181818181818,338,1,62,DL_Guitar,6,15,DL_Guitar,0.9997747540473938,1
55,100,1.2,581,1,62,DL_Guitar,6,15,DL_Guitar,0.4086083769798279,0
55,100,0.18181818181818182,858,1,62,DL_Guitar,6,3,DL_Guitar,0.4725250005722046,0
60,100,0.2772727272727273,105,1,63,DL_Guitar,6,4,DL_Guitar,0.9998230338096619,1
55,100,1.040909090909091,316,0,63,DL_Guitar,6,15,DL_Guitar,0.3757702112197876,0
55,100,0.1409090909090909,558,1,63,DL_Guitar,6,2,DL_Guitar,0.4553830623626709,0
62,100,0.3181818181818182,184,1,64,DL_Guitar,6,5,DL_Guitar,0.999846339225769,1
55,100,1.1409090909090909,267,0,64,DL_Guitar,6,15,DL_Guitar,0.27867308259010315,0
62,100,0.2409090909090909,536,1,64,DL_Guitar,6,4,DL_Guitar,0.33188337087631226,0
62,100,0.3,660,0,64,DL_Guitar,6,5,DL_Guitar,0.3202296197414398,0
60,100,0.1590909090909091,216,1,65,DL_Guitar,6,3,DL_Guitar,0.9998345375061035,1
55,100,0.2,347,0,65,DL_Guitar,6,3,DL_Guitar,0.3991242051124573,0
55,100,0.7636363636363637,576,0,65,DL_Guitar,6,12,DL_Guitar,0.4142221510410309,0
57,100,0.41818181818181815,40,1,66,DL_Guitar,6,7,DL_Guitar,0.9997745156288147,1
55,100,1.0772727272727274,184,0,66,DL_Guitar,6,15,DL_Guitar,0.12263891845941544,0
55,100,0.3409090909090909,540,1,66,DL_Guitar,6,5,DL_Guitar,0.1392630785703659,0
55,100,0.3,703,0,66,DL_Guitar,6,5,DL_Guitar,0.14263057708740234,0
67,100,0.21818181818181817,770,0,66,DL_Guitar,6,3,DL_Guitar,0.15087740123271942,0
55,100,0.2409090909090909,826,0,66,DL_Guitar,6,4,DL_Guitar,0.13980025053024292,0
55,100,0.1,30,1,67,DL_Guitar,6,2,DL_Guitar,0.9996994733810425,1
55,100,0.1409090909090909,56,0,67,DL_Guitar,6,2,DL_Guitar,0.04330268129706383,0
55,100,0.3,136,0,67,DL_Guitar,6,5,DL_Guitar,0.03279967978596687,0
55,100,0.4409090909090909,210,0,67,DL_Guitar,6,7,DL_Guitar,0.03160492330789566,0
60,100,0.16363636363636364,312,0,67,DL_Guitar,6,3,DL_Guitar,0.0332668274641037,0
55,100,0.6409090909090909,422,0,67,DL_Guitar,6,10,DL_Guitar,0.032032743096351624,0
55,100,0.4,580,0,67,DL_Guitar,6,6,DL_Guitar,0.04413159564137459,0
67,100,0.1,677,0,67,DL_Guitar,6,2,DL_Guitar,0.05489949882030487,0
55,100,0.9,716,0,67,DL_Guitar,6,14,DL_Guitar,0.045296769589185715,0
55,100,0.1409090909090909,66,1,68,DL_Guitar,6,2,DL_Guitar,0.9998024106025696,1
62,100,0.759090909090909,110,0,68,DL_Guitar,6,12,DL_Guitar,0.11634589731693268,0
74,100,0.2590909090909091,386,1,68,DL_Guitar,6,4,DL_Guitar,0.13251160085201263,0
67,100,0.1409090909090909,470,0,68,DL_Guitar,6,2,DL_Guitar,0.13468608260154724,0
62,100,0.1409090909090909,703,1,68,DL_Guitar,6,2,DL_Guitar,0.1479693353176117,0
55,100,0.2590909090909091,876,0,68,DL_Guitar,6,4,DL_Guitar,0.1311226189136505,0
55,100,1.6,193,1,69,DL_Guitar,6,15,DL_Guitar,0.999779999256134,1
55,100,0.4590909090909091,567,1,69,DL_Guitar,6,7,DL_Guitar,0.25168517231941223,0
52,100,0.11818181818181818,682,0,69,DL_Guitar,6,2,DL_Guitar,0.22848910093307495,0
55,100,0.1,760,0,69,DL_Guitar,6,2,DL_Guitar,0.21169762313365936,0
67,100,0.4590909090909091,787,0,69,DL_Guitar,6,7,DL_Guitar,0.20228450000286102,0
55,100,1.1,9,1,70,DL_Guitar,6,15,DL_Guitar,0.9996304512023926,1
57,100,0.12272727272727273,365,1,70,DL_Guitar,6,2,DL_Guitar,0.05163493752479553,0
55,100,0.2772727272727273,404,0,70,DL_Guitar,6,4,DL_Guitar,0.034051064401865005,0
55,100,0.11818181818181818,480,0,70,DL_Guitar,6,2,DL_Guitar,0.031766071915626526,0
60,100,0.11818181818181818,506,0,70,DL_Guitar,6,2,DL_Guitar,0.03222515434026718,0
55,100,0.3181818181818182,550,0,70,DL_Guitar,6,5,DL_Guitar,0.03313649445772171,0
55,100,0.4590909090909091,633,0,70,DL_Guitar,6,7,DL_Guitar,0.040665190666913986,0
62,100,0.3181818181818182,787,0,70,DL_Guitar,6,5,DL_Guitar,0.050787221640348434,0
62,100,0.38181818181818183,870,0,70,DL_Guitar,6,6,DL_Guitar,0.047716181725263596,0
62,100,0.42272727272727273,79,1,71,DL_Guitar,6,7,DL_Guitar,0.9998284578323364,1
55,100,0.5818181818181818,202,0,71,DL_Guitar,6,9,DL_Guitar,0.20684154331684113,0
55,100,0.1409090909090909,383,0,71,DL_Guitar,6,2,DL_Guitar,0.2222747504711151,0
55,100,1.1181818181818182,436,0,71,DL_Guitar,6,15,DL_Guitar,0.2066134214401245,0
55,100,2.2181818181818183,690,1,71,DL_Guitar,6,15,DL_Guitar,0.21790598332881927,0
67,100,0.1409090909090909,299,1,72,DL_Guitar,6,2,DL_Guitar,0.9998496770858765,1
55,100,0.41818181818181815,330,0,72,DL_Guitar,6,7,DL_Guitar,0.31130045652389526,0
60,100,0.8409090909090909,440,0,72,DL_Guitar,6,13,DL_Guitar,0.29381194710731506,0
60,100,0.6818181818181818,629,0,72,DL_Guitar,6,11,DL_Guitar,0.3209623098373413,0
67,100,0.11818181818181818,153,1,73,DL_Guitar,6,2,DL_Guitar,0.9998093247413635,1
67,100,0.13636363636363635,370,0,73,DL_Guitar,6,2,DL_Guitar,0.13418374955654144,0
55,100,0.11818181818181818,426,0,73,DL_Guitar,6,2,DL_Guitar,0.13126932084560394,0
55,100,0.12272727272727273,487,0,73,DL_Guitar,6,2,DL_Guitar,0.14320378005504608,0
55,100,1.2181818181818183,567,0,73,DL_Guitar,6,15,DL_Guitar,0.13125941157341003,0
55,100,2.077272727272727,866,1,73,DL_Guitar,6,15,DL_Guitar,0.13674452900886536,0
57,100,0.09545454545454546,525,1,0,_Guitar_1,6,2,_Guitar_1,0.9933833479881287,0
52,100,0.2636363636363636,200,1,4,_Guitar_1,6,4,_Guitar_1,0.9997774958610535,1
52,100,0.29545454545454547,264,0,4,_Guitar_1,6,5,_Guitar_1,0.07720256596803665,0
53,100,0.08181818181818182,405,0,4,_Guitar_1,6,1,_Guitar_1,0.07396866381168365,0
52,100,0.2318181818181818,423,0,4,_Guitar_1,6,4,_Guitar_1,0.07677409797906876,0
52,100,0.2818181818181818,489,0,4,_Guitar_1,6,5,_Guitar_1,0.0860651507973671,0
52,100,0.24545454545454545,564,0,4,_Guitar_1,6,4,_Guitar_1,0.09216613322496414,0
52,100,0.25,629,0,4,_Guitar_1,6,4,_Guitar_1,0.08276432007551193,0
59,100,0.4636363636363636,6,1,5,_Guitar_1,6,7,_Guitar_1,0.9997952580451965,1
59,100,0.1318181818181818,170,0,5,_Guitar_1,6,2,_Guitar_1,0.13905392587184906,0
52,100,0.6772727272727272,463,1,5,_Guitar_1,6,11,_Guitar_1,0.11796829104423523,0
52,100,0.22727272727272727,618,0,5,_Guitar_1,6,4,_Guitar_1,0.14187204837799072,0
52,100,0.35909090909090907,677,0,5,_Guitar_1,6,6,_Guitar_1,0.14141827821731567,0
52,100,0.9409090909090909,763,0,5,_Guitar_1,6,15,_Guitar_1,0.12497501820325851,0
52,100,1.2,101,1,6,_Guitar_1,6,15,_Guitar_1,0.9998207688331604,1
52,100,0.35909090909090907,383,1,6,_Guitar_1,6,6,_Guitar_1,0.358340322971344,0
52,100,0.5772727272727273,472,0,6,_Guitar_1,6,9,_Guitar_1,0.29644066095352173,0
52,100,0.11363636363636363,604,0,6,_Guitar_1,6,2,_Guitar_1,0.3225088119506836,0
59,100,0.1318181818181818,410,1,7,_Guitar_1,6,2,_Guitar_1,0.9930726885795593,0
59,100,0.1,799,1,9,_Guitar_1,6,2,_Guitar_1,0.9932276606559753,1
57,100,0.31363636363636366,651,1,10,_Guitar_1,6,5,_Guitar_1,0.9930275082588196,0
57,100,0.18181818181818182,63,1,11,_Guitar_1,6,3,_Guitar_1,0.9997472167015076,1
59,100,0.09545454545454546,357,1,11,_Guitar_1,6,2,_Guitar_1,0.08676580339670181,0
59,100,0.19545454545454546,419,0,11,_Guitar_1,6,3,_Guitar_1,0.07368125021457672,0
64,100,0.1,495,0,11,_Guitar_1,6,2,_Guitar_1,0.08373703807592392,0
59,100,0.08181818181818182,527,0,11,_Guitar_1,6,1,_Guitar_1,0.0855373665690422,0
59,100,0.32727272727272727,687,0,11,_Guitar_1,6,5,_Guitar_1,0.09739039838314056,0
64,100,0.2,766,0,11,_Guitar_1,6,3,_Guitar_1,0.09026513993740082,0
64,100,0.15,13,1,12,_Guitar_1,6,2,_Guitar_1,0.9997166991233826,1
64,100,0.509090909090909,63,0,12,_Guitar_1,6,8,_Guitar_1,0.03912430256605148,0
52,100,0.18181818181818182,247,0,12,_Guitar_1,6,3,_Guitar_1,0.03509931266307831,0
52,100,0.08181818181818182,342,0,12,_Guitar_1,6,1,_Guitar_1,0.029891278594732285,0
52,100,0.24545454545454545,403,0,12,_Guitar_1,6,4,_Guitar_1,0.028848689049482346,0
64,100,0.7227272727272728,457,0,12,_Guitar_1,6,12,_Guitar_1,0.03118712455034256,0
59,100,0.16363636363636364,620,0,12,_Guitar_1,6,3,_Guitar_1,0.04053688049316406,0
59,100,0.09545454545454546,701,0,12,_Guitar_1,6,2,_Guitar_1,0.04772435128688812,0
64,100,0.15,751,0,12,_Guitar_1,6,2,_Guitar_1,0.04718741402029991,0
59,100,0.16363636363636364,240,1,13,_Guitar_1,6,3,_Guitar_1,0.9998416900634766,1
59,100,0.19545454545454546,283,0,13,_Guitar_1,6,3,_Guitar_1,0.20490409433841705,0
52,100,0.16363636363636364,407,0,13,_Guitar_1,6,3,_Guitar_1,0.19846607744693756,0
64,100,0.08181818181818182,479,0,13,_Guitar_1,6,1,_Guitar_1,0.2044697105884552,0
64,100,0.09545454545454546,740,1,13,_Guitar_1,6,2,_Guitar_1,0.1952556073665619,0
59,100,0.08181818181818182,232,1,14,_Guitar_1,6,1,_Guitar_1,0.9997431635856628,1
59,100,0.14545454545454545,257,0,14,_Guitar_1,6,2,_Guitar_1,0.05318298190832138,0
59,100,0.17727272727272728,410,0,14,_Guitar_1,6,3,_Guitar_1,0.046568337827920914,0
59,100,0.32727272727272727,515,0,14,_Guitar_1,6,5,_Guitar_1,0.046826012432575226,0
59,100,0.14545454545454545,591,0,14,_Guitar_1,6,2,_Guitar_1,0.05276704579591751,0
59,100,0.18181818181818182,677,0,14,_Guitar_1,6,3,_Guitar_1,0.06038916856050491,0
64,100,0.1,799,0,14,_Guitar_1,6,2,_Guitar_1,0.06805764883756638,0
52,100,0.21363636363636362,821,0,14,_Guitar_1,6,3,_Guitar_1,0.06079019978642464,0
52,100,0.1,6,1,15,_Guitar_1,6,2,_Guitar_1,0.9997181296348572,1
52,100,0.29545454545454547,80,0,15,_Guitar_1,6,5,_Guitar_1,0.04142826050519943,0
52,100,0.15,166,0,15,_Guitar_1,6,2,_Guitar_1,0.03256131336092949,0
64,100,0.16363636363636364,445,1,15,_Guitar_1,6,3,_Guitar_1,0.029327085241675377,0
61,100,0.11363636363636363,543,0,15,_Guitar_1,6,2,_Guitar_1,0.028296029195189476,0
64,100,0.32727272727272727,572,0,15,_Guitar_1,6,5,_Guitar_1,0.03285380080342293,0
64,100,0.1318181818181818,665,0,15,_Guitar_1,6,2,_Guitar_1,0.04016982391476631,0
64,100,0.2636363636363636,723,0,15,_Guitar_1,6,4,_Guitar_1,0.04507877305150032,0
59,100,0.08636363636363636,838,0,15,_Guitar_1,6,1,_Guitar_1,0.04551808908581734,0
52,100,0.18181818181818182,85,1,16,_Guitar_1,6,3,_Guitar_1,0.9997403025627136,1
64,100,0.29545454545454547,133,0,16,_Guitar_1,6,5,_Guitar_1,0.055572398006916046,0
57,100,0.16363636363636364,299,0,16,_Guitar_1,6,3,_Guitar_1,0.04503316059708595,0
57,100,0.15,419,0,16,_Guitar_1,6,2,_Guitar_1,0.04584326222538948,0
64,100,0.11363636363636363,488,0,16,_Guitar_1,6,2,_Guitar_1,0.053473666310310364,0
59,100,0.09545454545454546,528,0,16,_Guitar_1,6,2,_Guitar_1,0.05544065311551094,0
59,100,0.09545454545454546,563,0,16,_Guitar_1,6,2,_Guitar_1,0.06242647394537926,0
59,100,0.2636363636363636,798,1,16,_Guitar_1,6,4,_Guitar_1,0.06005537509918213,0
52,100,0.24545454545454545,350,1,17,_Guitar_1,6,4,_Guitar_1,0.9998165965080261,1
64,100,0.1,436,0,17,_Guitar_1,6,2,_Guitar_1,0.12458524852991104,0
59,100,0.11363636363636363,505,0,17,_Guitar_1,6,2,_Guitar_1,0.11675653606653214,0
64,100,0.19545454545454546,538,0,17,_Guitar_1,6,3,_Guitar_1,0.13044725358486176,0
52,100,0.31363636363636366,621,0,17,_Guitar_1,6,5,_Guitar_1,0.13841918110847473,0
64,100,0.2318181818181818,866,1,17,_Guitar_1,6,4,_Guitar_1,0.1269787847995758,0
52,100,0.18181818181818182,700,1,18,_Guitar_1,6,3,_Guitar_1,0.9998418092727661,1
64,100,0.11363636363636363,739,0,18,_Guitar_1,6,2,_Guitar_1,0.41460302472114563,0
64,100,0.2818181818181818,772,0,18,_Guitar_1,6,5,_Guitar_1,0.4113599956035614,0
64,100,0.11363636363636363,240,1,19,_Guitar_1,6,2,_Guitar_1,0.9997033476829529,1
64,100,0.18181818181818182,282,0,19,_Guitar_1,6,3,_Guitar_1,0.03465081378817558,0
64,100,0.11363636363636363,395,0,19,_Guitar_1,6,2,_Guitar_1,0.02570512518286705,0
64,100,0.1,430,0,19,_Guitar_1,6,2,_Guitar_1,0.020463144406676292,0
52,100,0.29545454545454547,485,0,19,_Guitar_1,6,5,_Guitar_1,0.018041212111711502,0
52,100,0.11363636363636363,576,0,19,_Guitar_1,6,2,_Guitar_1,0.018966251984238625,0
59,100,0.14545454545454545,615,0,19,_Guitar_1,6,2,_Guitar_1,0.021317245438694954,0
64,100,0.1,680,0,19,_Guitar_1,6,2,_Guitar_1,0.02876182645559311,0
64,100,0.11818181818181818,705,0,19,_Guitar_1,6,2,_Guitar_1,0.03623633831739426,0
64,100,0.11818181818181818,839,0,19,_Guitar_1,6,2,_Guitar_1,0.037376780062913895,0
57,100,0.18181818181818182,68,1,20,_Guitar_1,6,3,_Guitar_1,0.9998465776443481,1
59,100,0.21363636363636362,684,1,20,_Guitar_1,6,3,_Guitar_1,0.32862359285354614,0
59,100,0.16363636363636364,803,0,20,_Guitar_1,6,3,_Guitar_1,0.29047808051109314,0
59,100,0.2772727272727273,876,0,20,_Guitar_1,6,4,_Guitar_1,0.3050172030925751,0
71,100,0.08181818181818182,302,1,21,_Guitar_1,6,1,_Guitar_1,0.9932310581207275,0
52,100,0.1,230,1,22,_Guitar_1,6,2,_Guitar_1,0.9997486472129822,1
52,100,0.24545454545454545,426,0,22,_Guitar_1,6,4,_Guitar_1,0.05454589053988457,0
59,100,0.11363636363636363,501,0,22,_Guitar_1,6,2,_Guitar_1,0.04488568380475044,0
59,100,0.21363636363636362,533,0,22,_Guitar_1,6,3,_Guitar_1,0.045242853462696075,0
59,100,0.15,587,0,22,_Guitar_1,6,2,_Guitar_1,0.04988762363791466,0
59,100,0.08181818181818182,660,0,22,_Guitar_1,6,1,_Guitar_1,0.05914897471666336,0
59,100,0.11363636363636363,748,0,22,_Guitar_1,6,2,_Guitar_1,0.06491506099700928,0
64,100,0.1318181818181818,801,0,22,_Guitar_1,6,2,_Guitar_1,0.06058703735470772,0
64,100,0.16818181818181818,0,1,23,_Guitar_1,6,3,_Guitar_1,0.9996912479400635,1
59,100,0.18181818181818182,131,0,23,_Guitar_1,6,3,_Guitar_1,0.03523866832256317,0
59,100,0.11363636363636363,261,0,23,_Guitar_1,6,2,_Guitar_1,0.026081621646881104,0
59,100,0.33181818181818185,333,0,23,_Guitar_1,6,5,_Guitar_1,0.020653625950217247,0
59,100,0.4090909090909091,413,0,23,_Guitar_1,6,7,_Guitar_1,0.01960725523531437,0
59,100,0.1318181818181818,508,0,23,_Guitar_1,6,2,_Guitar_1,0.021015094593167305,0
59,100,0.25,561,0,23,_Guitar_1,6,4,_Guitar_1,0.023104822263121605,0
64,100,0.21363636363636362,624,0,23,_Guitar_1,6,3,_Guitar_1,0.030676836147904396,0
59,100,0.16363636363636364,794,0,23,_Guitar_1,6,3,_Guitar_1,0.03714250400662422,0
59,100,0.34545454545454546,852,0,23,_Guitar_1,6,6,_Guitar_1,0.0394149087369442,0
59,100,0.11363636363636363,539,1,24,_Guitar_1,6,2,_Guitar_1,0.9996522665023804,1
61,100,0.19545454545454546,774,1,24,_Guitar_1,6,3,_Guitar_1,0.5445812940597534,0
64,100,0.19545454545454546,185,1,25,_Guitar_1,6,3,_Guitar_1,0.999813973903656,1
59,100,0.15,303,0,25,_Guitar_1,6,2,_Guitar_1,0.11878139525651932,0
59,100,0.11818181818181818,364,0,25,_Guitar_1,6,2,_Guitar_1,0.12298895418643951,0
54,100,0.42727272727272725,394,0,25,_Guitar_1,6,7,_Guitar_1,0.12997199594974518,0
59,100,0.37727272727272726,514,0,25,_Guitar_1,6,6,_Guitar_1,0.14342397451400757,0
64,100,0.1,796,1,25,_Guitar_1,6,2,_Guitar_1,0.13967178761959076,0
57,100,0.2,378,1,26,_Guitar_1,6,3,_Guitar_1,0.9996354579925537,1
59,100,0.1318181818181818,763,1,26,_Guitar_1,6,2,_Guitar_1,0.5509249567985535,0
64,100,0.1,136,1,27,_Guitar_1,6,2,_Guitar_1,0.999861478805542,1
57,100,0.1318181818181818,312,0,27,_Guitar_1,6,2,_Guitar_1,0.3098434805870056,0
52,100,0.25,371,0,27,_Guitar_1,6,4,_Guitar_1,0.29035842418670654,0
64,100,0.19545454545454546,667,1,27,_Guitar_1,6,3,_Guitar_1,0.3017490804195404,0
59,100,0.1318181818181818,237,1,28,_Guitar_1,6,2,_Guitar_1,0.9998559951782227,1
59,100,0.2818181818181818,351,0,28,_Guitar_1,6,5,_Guitar_1,0.3084869384765625,0
59,100,0.09545454545454546,529,0,28,_Guitar_1,6,2,_Guitar_1,0.30120769143104553,0
66,100,0.11818181818181818,608,0,28,_Guitar_1,6,2,_Guitar_1,0.3086581230163574,0
59,100,0.15,127,1,29,_Guitar_1,6,2,_Guitar_1,0.9996237754821777,1
64,100,0.18181818181818182,698,1,29,_Guitar_1,6,3,_Guitar_1,0.558728814125061,0
64,100,0.09545454545454546,296,1,30,_Guitar_1,6,2,_Guitar_1,0.9996414184570312,1
57,100,0.2318181818181818,340,0,30,_Guitar_1,6,4,_Guitar_1,0.5425740480422974,0
64,100,0.21363636363636362,121,1,31,_Guitar_1,6,3,_Guitar_1,0.9998444318771362,1
52,100,0.2636363636363636,179,0,31,_Guitar_1,6,4,_Guitar_1,0.4003574848175049,0
52,100,0.11818181818181818,415,1,31,_Guitar_1,6,2,_Guitar_1,0.42401939630508423,0
64,100,0.3,378,1,32,_Guitar_1,6,5,_Guitar_1,0.9998425245285034,1
52,100,0.14545454545454545,596,0,32,_Guitar_1,6,2,_Guitar_1,0.40897393226623535,0
52,100,0.1,743,0,32,_Guitar_1,6,2,_Guitar_1,0.42060208320617676,0
52,100,0.16818181818181818,76,1,33,_Guitar_1,6,3,_Guitar_1,0.9998440742492676,1
52,100,0.1,297,0,33,_Guitar_1,6,2,_Guitar_1,0.4072934687137604,0
52,100,0.11363636363636363,518,0,33,_Guitar_1,6,2,_Guitar_1,0.42184045910835266,0
59,100,0.1318181818181818,50,1,35,_Guitar_1,6,2,_Guitar_1,0.9996397495269775,1
61,100,0.1,408,1,35,_Guitar_1,6,2,_Guitar_1,0.5523943901062012,0
61,100,0.16363636363636364,255,1,36,_Guitar_1,6,3,_Guitar_1,0.9998059868812561,1
61,100,0.2818181818181818,302,0,36,_Guitar_1,6,5,_Guitar_1,0.12150266021490097,0
57,100,0.18181818181818182,433,0,36,_Guitar_1,6,3,_Guitar_1,0.1212754026055336,0
57,100,0.34545454545454546,643,0,36,_Guitar_1,6,6,_Guitar_1,0.1332240104675293,0
57,100,0.1,729,0,36,_Guitar_1,6,2,_Guitar_1,0.1515388935804367,0
57,100,0.1,770,0,36,_Guitar_1,6,2,_Guitar_1,0.13148939609527588,0
57,100,0.16363636363636364,342,1,37,_Guitar_1,6,3,_Guitar_1,0.9996342658996582,1
57,100,0.22727272727272727,480,0,37,_Guitar_1,6,4,_Guitar_1,0.5486514568328857,0
64,100,0.29545454545454547,150,1,38,_Guitar_1,6,5,_Guitar_1,0.9998571872711182,1
59,100,0.2318181818181818,380,0,38,_Guitar_1,6,4,_Guitar_1,0.3135673999786377,0
59,100,0.1318181818181818,543,0,38,_Guitar_1,6,2,_Guitar_1,0.28423717617988586,0
59,100,0.1318181818181818,648,0,38,_Guitar_1,6,2,_Guitar_1,0.3039689064025879,0
59,100,0.32727272727272727,76,1,39,_Guitar_1,6,5,_Guitar_1,0.9998315572738647,1
68,100,0.2636363636363636,370,1,39,_Guitar_1,6,4,_Guitar_1,0.21374745666980743,0
68,100,0.1318181818181818,439,0,39,_Guitar_1,6,2,_Guitar_1,0.2015872597694397,0
61,100,0.12727272727272726,591,0,39,_Guitar_1,6,2,_Guitar_1,0.20365817844867706,0
59,100,0.16363636363636364,692,0,39,_Guitar_1,6,3,_Guitar_1,0.20222143828868866,0
61,100,0.1,300,1,40,_Guitar_1,6,2,_Guitar_1,0.9998555183410645,1
57,100,0.18181818181818182,445,0,40,_Guitar_1,6,3,_Guitar_1,0.3115086257457733,0
59,100,0.16818181818181818,668,0,40,_Guitar_1,6,3,_Guitar_1,0.29011136293411255,0
57,100,0.14545454545454545,865,0,40,_Guitar_1,6,2,_Guitar_1,0.30879613757133484,0
54,100,0.18181818181818182,155,1,41,_Guitar_1,6,3,_Guitar_1,0.9998342990875244,1
57,100,0.19545454545454546,213,0,41,_Guitar_1,6,3,_Guitar_1,0.40089747309684753,0
54,100,0.2,577,1,41,_Guitar_1,6,3,_Guitar_1,0.42688214778900146,0
59,100,0.1,657,1,42,_Guitar_1,6,2,_Guitar_1,0.9933125376701355,0
52,100,0.11818181818181818,221,1,43,_Guitar_1,6,2,_Guitar_1,0.9998648166656494,1
52,100,0.1318181818181818,313,0,43,_Guitar_1,6,2,_Guitar_1,0.30636709928512573,0
52,100,0.1318181818181818,588,1,43,_Guitar_1,6,2,_Guitar_1,0.2887676954269409,0
64,100,0.08181818181818182,833,1,43,_Guitar_1,6,1,_Guitar_1,0.29823729395866394,0
52,100,0.15,156,1,44,_Guitar_1,6,2,_Guitar_1,0.9996978044509888,1
64,100,0.11363636363636363,228,0,44,_Guitar_1,6,2,_Guitar_1,0.03614730387926102,0
52,100,0.24545454545454545,265,0,44,_Guitar_1,6,4,_Guitar_1,0.024920739233493805,0
64,100,0.1,318,0,44,_Guitar_1,6,2,_Guitar_1,0.02109554409980774,0
52,100,0.21363636363636362,341,0,44,_Guitar_1,6,3,_Guitar_1,0.01835167594254017,0
52,100,0.24545454545454545,391,0,44,_Guitar_1,6,4,_Guitar_1,0.018830882385373116,0
52,100,0.15,536,0,44,_Guitar_1,6,2,_Guitar_1,0.021948859095573425,0
57,100,0.2,600,0,44,_Guitar_1,6,3,_Guitar_1,0.02665959671139717,0
64,100,0.1318181818181818,811,0,44,_Guitar_1,6,2,_Guitar_1,0.03851080313324928,0
52,100,0.3,846,0,44,_Guitar_1,6,5,_Guitar_1,0.03722842037677765,0
52,100,0.17727272727272728,308,1,45,_Guitar_1,6,3,_Guitar_1,0.9935259819030762,1
59,100,0.36363636363636365,566,1,46,_Guitar_1,6,6,_Guitar_1,0.993162989616394,0
52,100,0.14545454545454545,27,1,47,_Guitar_1,6,2,_Guitar_1,0.9937415719032288,0
52,100,0.1318181818181818,74,1,48,_Guitar_1,6,2,_Guitar_1,0.9997513890266418,1
52,100,0.11363636363636363,435,1,48,_Guitar_1,6,2,_Guitar_1,0.05473567172884941,0
52,100,0.12727272727272726,522,0,48,_Guitar_1,6,2,_Guitar_1,0.04599470645189285,0
52,100,0.11363636363636363,584,0,48,_Guitar_1,6,2,_Guitar_1,0.0467081144452095,0
52,100,0.11818181818181818,638,0,48,_Guitar_1,6,2,_Guitar_1,0.04944799095392227,0
52,100,0.16363636363636364,710,0,48,_Guitar_1,6,3,_Guitar_1,0.055836085230112076,0
64,100,0.1318181818181818,747,0,48,_Guitar_1,6,2,_Guitar_1,0.060755301266908646,0
59,100,0.09545454545454546,852,0,48,_Guitar_1,6,2,_Guitar_1,0.0557824932038784,0
61,100,0.2318181818181818,760,1,50,_Guitar_1,6,4,_Guitar_1,0.99347323179245,0
68,100,0.21363636363636362,469,1,51,_Guitar_1,6,3,_Guitar_1,0.9998314380645752,1
59,100,0.08181818181818182,528,0,51,_Guitar_1,6,1,_Guitar_1,0.4126504361629486,0
64,100,0.18181818181818182,812,1,51,_Guitar_1,6,3,_Guitar_1,0.42731523513793945,0
54,100,0.21363636363636362,77,1,52,_Guitar_1,6,3,_Guitar_1,0.9998517036437988,1
64,100,0.09545454545454546,169,0,52,_Guitar_1,6,2,_Guitar_1,0.34421607851982117,0
64,100,0.18181818181818182,233,0,52,_Guitar_1,6,3,_Guitar_1,0.28144288063049316,0
59,100,0.16818181818181818,605,1,52,_Guitar_1,6,3,_Guitar_1,0.2994012236595154,0
59,100,0.15,261,1,53,_Guitar_1,6,2,_Guitar_1,0.9998347759246826,1
64,100,0.2818181818181818,638,1,53,_Guitar_1,6,5,_Guitar_1,0.41898301243782043,0
57,100,0.24545454545454545,710,0,53,_Guitar_1,6,4,_Guitar_1,0.4182771146297455,0
61,100,0.15,625,1,55,_Guitar_1,6,2,_Guitar_1,0.9996509552001953,1
61,100,0.15,767,0,55,_Guitar_1,6,2,_Guitar_1,0.5452143549919128,0
52,100,0.1,274,1,56,_Guitar_1,6,2,_Guitar_1,0.9998620748519897,1
64,100,0.37727272727272726,528,1,56,_Guitar_1,6,6,_Guitar_1,0.3085523545742035,0
59,100,0.08181818181818182,770,1,56,_Guitar_1,6,1,_Guitar_1,0.2870343327522278,0
59,100,0.18181818181818182,791,0,56,_Guitar_1,6,3,_Guitar_1,0.2975797951221466,0
59,100,0.2818181818181818,96,1,57,_Guitar_1,6,5,_Guitar_1,0.9998365640640259,1
59,100,0.08181818181818182,183,0,57,_Guitar_1,6,1,_Guitar_1,0.21466393768787384,0
59,100,0.18181818181818182,240,0,57,_Guitar_1,6,3,_Guitar_1,0.19451650977134705,0
59,100,0.11363636363636363,414,0,57,_Guitar_1,6,2,_Guitar_1,0.20571988821029663,0
61,100,0.15,686,1,57,_Guitar_1,6,2,_Guitar_1,0.2041657269001007,0
56,100,0.1318181818181818,160,1,58,_Guitar_1,6,2,_Guitar_1,0.9996514320373535,1
56,100,0.16363636363636364,591,1,58,_Guitar_1,6,3,_Guitar_1,0.5449047088623047,0
52,100,0.11818181818181818,109,1,59,_Guitar_1,6,2,_Guitar_1,0.9996618032455444,1
57,100,0.1,289,0,59,_Guitar_1,6,2,_Guitar_1,0.5377476215362549,0
61,100,0.1318181818181818,281,1,60,_Guitar_1,6,2,_Guitar_1,0.9998538494110107,1
61,100,0.2818181818181818,423,0,60,_Guitar_1,6,5,_Guitar_1,0.3126453161239624,0
61,100,0.1,514,0,60,_Guitar_1,6,2,_Guitar_1,0.293498158454895,0
61,100,0.14545454545454545,637,0,60,_Guitar_1,6,2,_Guitar_1,0.3034899830818176,0
59,100,0.15,343,1,61,_Guitar_1,6,2,_Guitar_1,0.9998515844345093,1
61,100,0.37727272727272726,469,0,61,_Guitar_1,6,6,_Guitar_1,0.31511786580085754,0
61,100,0.1,658,0,61,_Guitar_1,6,2,_Guitar_1,0.300866037607193,0
54,100,0.21363636363636362,788,0,61,_Guitar_1,6,3,_Guitar_1,0.30073806643486023,0
56,100,0.25,114,1,62,_Guitar_1,6,4,_Guitar_1,0.9998345375061035,1
52,100,0.16363636363636364,776,1,62,_Guitar_1,6,3,_Guitar_1,0.4147028625011444,0
59,100,0.15,845,0,62,_Guitar_1,6,2,_Guitar_1,0.4182094931602478,0
64,100,0.19545454545454546,34,1,63,_Guitar_1,6,3,_Guitar_1,0.9996503591537476,1
59,100,0.08636363636363636,522,1,63,_Guitar_1,6,1,_Guitar_1,0.5423177480697632,0
59,100,0.08181818181818182,72,1,64,_Guitar_1,6,1,_Guitar_1,0.9996540546417236,1
59,100,0.15,518,1,64,_Guitar_1,6,2,_Guitar_1,0.5440748333930969,0
64,100,0.11363636363636363,361,1,65,_Guitar_1,6,2,_Guitar_1,0.999845027923584,1
64,100,0.1318181818181818,398,0,65,_Guitar_1,6,2,_Guitar_1,0.2062058001756668,0
59,100,0.38181818181818183,440,0,65,_Guitar_1,6,6,_Guitar_1,0.18454906344413757,0
52,100,0.11363636363636363,695,1,65,_Guitar_1,6,2,_Guitar_1,0.21304631233215332,0
52,100,0.08181818181818182,744,0,65,_Guitar_1,6,1,_Guitar_1,0.1997995674610138,0
52,100,0.09545454545454546,7,1,66,_Guitar_1,6,2,_Guitar_1,0.9998488426208496,1
64,100,0.16363636363636364,162,0,66,_Guitar_1,6,3,_Guitar_1,0.20593048632144928,0
52,100,0.39545454545454545,262,0,66,_Guitar_1,6,6,_Guitar_1,0.18960675597190857,0
52,100,0.15,426,0,66,_Guitar_1,6,2,_Guitar_1,0.21079376339912415,0
59,100,0.34545454545454546,477,0,66,_Guitar_1,6,6,_Guitar_1,0.19072934985160828,0
59,100,0.31363636363636366,182,1,67,_Guitar_1,6,5,_Guitar_1,0.9998499155044556,1
59,100,0.15,628,1,67,_Guitar_1,6,2,_Guitar_1,0.32440251111984253,0
59,100,0.2318181818181818,715,0,67,_Guitar_1,6,4,_Guitar_1,0.29079508781433105,0
59,100,0.2318181818181818,769,0,67,_Guitar_1,6,4,_Guitar_1,0.3071303963661194,0
64,100,0.2818181818181818,106,1,68,_Guitar_1,6,5,_Guitar_1,0.9998120665550232,1
64,100,0.4090909090909091,247,0,68,_Guitar_1,6,7,_Guitar_1,0.12430640310049057,0
64,100,0.4954545454545455,356,0,68,_Guitar_1,6,8,_Guitar_1,0.11760375648736954,0
64,100,0.1318181818181818,685,1,68,_Guitar_1,6,2,_Guitar_1,0.13680048286914825,0
64,100,0.16363636363636364,757,0,68,_Guitar_1,6,3,_Guitar_1,0.13793540000915527,0
64,100,0.1,837,0,68,_Guitar_1,6,2,_Guitar_1,0.12610355019569397,0
64,100,0.16363636363636364,170,1,69,_Guitar_1,6,3,_Guitar_1,0.9997062087059021,1
64,100,0.11363636363636363,210,0,69,_Guitar_1,6,2,_Guitar_1,0.03553059697151184,0
64,100,0.25,267,0,69,_Guitar_1,6,4,_Guitar_1,0.02434159256517887,0
64,100,0.2,326,0,69,_Guitar_1,6,3,_Guitar_1,0.020353715866804123,0
64,100,0.2636363636363636,376,0,69,_Guitar_1,6,4,_Guitar_1,0.018690411001443863,0
59,100,0.08181818181818182,456,0,69,_Guitar_1,6,1,_Guitar_1,0.01883629336953163,0
52,100,0.24545454545454545,616,0,69,_Guitar_1,6,4,_Guitar_1,0.0219402052462101,0
52,100,0.1,716,0,69,_Guitar_1,6,2,_Guitar_1,0.029101833701133728,0
59,100,0.14545454545454545,760,0,69,_Guitar_1,6,2,_Guitar_1,0.0355471633374691,0
59,100,0.08636363636363636,817,0,69,_Guitar_1,6,1,_Guitar_1,0.03722380846738815,0
59,100,0.19545454545454546,536,1,70,_Guitar_1,6,3,_Guitar_1,0.9998525381088257,1
64,100,0.18181818181818182,592,0,70,_Guitar_1,6,3,_Guitar_1,0.3335561752319336,0
64,100,0.1,661,0,70,_Guitar_1,6,2,_Guitar_1,0.29328712821006775,0
64,100,0.11818181818181818,698,0,70,_Guitar_1,6,2,_Guitar_1,0.2961195111274719,0
52,100,0.2636363636363636,68,1,71,_Guitar_1,6,4,_Guitar_1,0.9997050166130066,1
59,100,0.34545454545454546,143,0,71,_Guitar_1,6,6,_Guitar_1,0.04165937751531601,0
59,100,0.08181818181818182,302,0,71,_Guitar_1,6,1,_Guitar_1,0.033694393932819366,0
59,100,0.2,426,0,71,_Guitar_1,6,3,_Guitar_1,0.030661193653941154,0
59,100,0.18181818181818182,491,0,71,_Guitar_1,6,3,_Guitar_1,0.03007146529853344,0
59,100,0.19545454545454546,541,0,71,_Guitar_1,6,3,_Guitar_1,0.032632872462272644,0
59,100,0.08181818181818182,643,0,71,_Guitar_1,6,1,_Guitar_1,0.0416913665831089,0
59,100,0.08181818181818182,723,0,71,_Guitar_1,6,1,_Guitar_1,0.04791692644357681,0
64,100,0.29545454545454547,879,0,71,_Guitar_1,6,5,_Guitar_1,0.04760861396789551,0
61,100,0.19545454545454546,216,1,72,_Guitar_1,6,3,_Guitar_1,0.9931648373603821,0
68,100,0.1318181818181818,117,1,73,_Guitar_1,6,2,_Guitar_1,0.9996451139450073,1
59,100,0.2590909090909091,540,1,73,_Guitar_1,6,4,_Guitar_1,0.5441609621047974,0
59,100,0.18181818181818182,131,1,74,_Guitar_1,6,3,_Guitar_1,0.9998089671134949,1
59,100,0.16363636363636364,301,0,74,_Guitar_1,6,3,_Guitar_1,0.13228276371955872,0
59,100,0.1318181818181818,343,0,74,_Guitar_1,6,2,_Guitar_1,0.11995197087526321,0
59,100,0.21363636363636362,495,0,74,_Guitar_1,6,3,_Guitar_1,0.13612541556358337,0
68,100,0.15,564,0,74,_Guitar_1,6,2,_Guitar_1,0.1422187238931656,0
64,100,0.21363636363636362,808,1,74,_Guitar_1,6,3,_Guitar_1,0.1306869089603424,0
59,100,0.18181818181818182,177,1,75,_Guitar_1,6,3,_Guitar_1,0.9997350573539734,1
64,100,0.11818181818181818,252,0,75,_Guitar_1,6,2,_Guitar_1,0.057673513889312744,0
52,100,0.08181818181818182,630,1,75,_Guitar_1,6,1,_Guitar_1,0.04608121141791344,0
64,100,0.08181818181818182,695,0,75,_Guitar_1,6,1,_Guitar_1,0.04694700613617897,0
59,100,0.11363636363636363,742,0,75,_Guitar_1,6,2,_Guitar_1,0.04863487929105759,0
59,100,0.19545454545454546,770,0,75,_Guitar_1,6,3,_Guitar_1,0.05677219107747078,0
52,100,0.2318181818181818,825,0,75,_Guitar_1,6,4,_Guitar_1,0.06367657333612442,0
64,100,0.1318181818181818,876,0,75,_Guitar_1,6,2,_Guitar_1,0.060120563954114914,0
52,100,0.1318181818181818,27,1,76,_Guitar_1,6,2,_Guitar_1,0.999863862991333,1
64,100,0.18181818181818182,154,0,76,_Guitar_1,6,3,_Guitar_1,0.308714359998703,0
59,100,0.36363636363636365,595,1,76,_Guitar_1,6,6,_Guitar_1,0.27760979533195496,0
59,100,0.18181818181818182,733,0,76,_Guitar_1,6,3,_Guitar_1,0.31088295578956604,0
59,100,0.1318181818181818,38,1,77,_Guitar_1,6,2,_Guitar_1,0.999842643737793,1
59,100,0.19545454545454546,176,0,77,_Guitar_1,6,3,_Guitar_1,0.19967277348041534,0
64,100,0.2318181818181818,374,0,77,_Guitar_1,6,4,_Guitar_1,0.19770990312099457,0
64,100,0.11818181818181818,447,0,77,_Guitar_1,6,2,_Guitar_1,0.20801760256290436,0
64,100,0.18181818181818182,620,0,77,_Guitar_1,6,3,_Guitar_1,0.1986403465270996,0
64,100,0.1318181818181818,210,1,78,_Guitar_1,6,2,_Guitar_1,0.9998507499694824,1
64,100,0.09545454545454546,359,0,78,_Guitar_1,6,2,_Guitar_1,0.4004271924495697,0
52,100,0.09545454545454546,646,1,78,_Guitar_1,6,2,_Guitar_1,0.41666945815086365,0
59,100,0.34545454545454546,247,1,79,_Guitar_1,6,6,_Guitar_1,0.9998254179954529,1
59,100,0.2772727272727273,435,0,79,_Guitar_1,6,4,_Guitar_1,0.41073617339134216,0
59,100,0.11363636363636363,745,1,79,_Guitar_1,6,2,_Guitar_1,0.43108946084976196,0
64,100,0.11363636363636363,11,1,80,_Guitar_1,6,2,_Guitar_1,0.9997817873954773,1
64,100,0.11818181818181818,206,0,80,_Guitar_1,6,2,_Guitar_1,0.07922159135341644,0
64,100,0.21818181818181817,288,0,80,_Guitar_1,6,3,_Guitar_1,0.0710156112909317,0
64,100,0.4772727272727273,478,0,80,_Guitar_1,6,8,_Guitar_1,0.07613679021596909,0
64,100,0.21363636363636362,604,0,80,_Guitar_1,6,3,_Guitar_1,0.08740769326686859,0
52,100,0.11818181818181818,650,0,80,_Guitar_1,6,2,_Guitar_1,0.09267446398735046,0
64,100,0.17727272727272728,676,0,80,_Guitar_1,6,3,_Guitar_1,0.08260276168584824,0
57,100,0.1,285,1,81,_Guitar_1,6,2,_Guitar_1,0.999848484992981,1
64,100,0.08181818181818182,527,1,81,_Guitar_1,6,1,_Guitar_1,0.3321561813354492,0
52,100,0.29545454545454547,546,0,81,_Guitar_1,6,5,_Guitar_1,0.2882281541824341,0
52,100,0.11818181818181818,632,0,81,_Guitar_1,6,2,_Guitar_1,0.3072793185710907,0
59,100,0.08181818181818182,53,1,82,_Guitar_1,6,1,_Guitar_1,0.9998385906219482,1
59,100,0.12727272727272726,74,0,82,_Guitar_1,6,2,_Guitar_1,0.2155464142560959,0
64,100,0.09545454545454546,632,1,82,_Guitar_1,6,2,_Guitar_1,0.20045951008796692,0
68,100,0.2318181818181818,668,0,82,_Guitar_1,6,4,_Guitar_1,0.19678406417369843,0
59,100,0.1,780,0,82,_Guitar_1,6,2,_Guitar_1,0.20483964681625366,0
64,100,0.16363636363636364,12,1,83,_Guitar_1,6,3,_Guitar_1,0.9998592138290405,1
68,100,0.18181818181818182,150,0,83,_Guitar_1,6,3,_Guitar_1,0.3108605444431305,0
59,100,0.1,554,1,83,_Guitar_1,6,2,_Guitar_1,0.2894294261932373,0
59,100,0.1318181818181818,700,0,83,_Guitar_1,6,2,_Guitar_1,0.30083075165748596,0
59,100,0.1318181818181818,37,1,84,_Guitar_1,6,2,_Guitar_1,0.9998337030410767,1
56,100,0.5590909090909091,439,1,84,_Guitar_1,6,9,_Guitar_1,0.3945073187351227,0
59,100,0.11818181818181818,828,1,84,_Guitar_1,6,2,_Guitar_1,0.43397727608680725,0
59,100,0.1318181818181818,126,1,85,_Guitar_1,6,2,_Guitar_1,0.9998354911804199,1
59,100,0.11363636363636363,521,1,85,_Guitar_1,6,2,_Guitar_1,0.40019315481185913,0
59,100,0.36363636363636365,744,0,85,_Guitar_1,6,6,_Guitar_1,0.42527860403060913,0
71,100,0.11363636363636363,136,1,87,_Guitar_1,6,2,_Guitar_1,0.999832034111023,1
83,100,0.1,172,0,87,_Guitar_1,6,2,_Guitar_1,0.41466236114501953,0
83,100,0.1318181818181818,265,0,87,_Guitar_1,6,2,_Guitar_1,0.42204126715660095,0
59,100,0.5772727272727273,44,1,88,_Guitar_1,6,9,_Guitar_1,0.9995885491371155,1
59,100,0.2636363636363636,186,0,88,_Guitar_1,6,4,_Guitar_1,0.5614043474197388,0
59,100,0.21363636363636362,478,1,89,_Guitar_1,6,3,_Guitar_1,0.9931777715682983,0
54,100,0.08181818181818182,386,1,90,_Guitar_1,6,1,_Guitar_1,0.9998297691345215,1
54,100,1.3954545454545455,553,0,90,_Guitar_1,6,15,_Guitar_1,0.3591943085193634,0
56,100,0.1318181818181818,876,1,90,_Guitar_1,6,2,_Guitar_1,0.4698307514190674,0
59,100,0.1,458,1,91,_Guitar_1,6,2,_Guitar_1,0.9931200742721558,0
59,100,0.15,161,1,92,_Guitar_1,6,2,_Guitar_1,0.9996190071105957,1
64,100,0.9545454545454546,692,1,92,_Guitar_1,6,15,_Guitar_1,0.5356762409210205,0
52,100,0.16363636363636364,110,1,93,_Guitar_1,6,3,_Guitar_1,0.9998364448547363,1
59,100,0.2318181818181818,550,1,93,_Guitar_1,6,4,_Guitar_1,0.40062475204467773,0
59,100,0.2636363636363636,765,0,93,_Guitar_1,6,4,_Guitar_1,0.4246734082698822,0
59,100,0.08181818181818182,278,1,94,_Guitar_1,6,1,_Guitar_1,0.9998575448989868,1
64,100,0.15,558,1,94,_Guitar_1,6,2,_Guitar_1,0.3231031000614166,0
64,100,0.35909090909090907,673,0,94,_Guitar_1,6,6,_Guitar_1,0.2852461040019989,0
64,100,0.24545454545454545,822,0,94,_Guitar_1,6,4,_Guitar_1,0.3036592900753021,0
64,100,0.35909090909090907,220,1,95,_Guitar_1,6,6,_Guitar_1,0.9997720122337341,1
64,100,0.16363636363636364,307,0,95,_Guitar_1,6,3,_Guitar_1,0.07884727418422699,0
64,100,0.2818181818181818,365,0,95,_Guitar_1,6,5,_Guitar_1,0.07386326789855957,0
64,100,0.08181818181818182,452,0,95,_Guitar_1,6,1,_Guitar_1,0.08054573088884354,0
64,100,0.08181818181818182,509,0,95,_Guitar_1,6,1,_Guitar_1,0.08774573355913162,0
59,100,0.18181818181818182,538,0,95,_Guitar_1,6,3,_Guitar_1,0.08716980367898941,0
54,100,0.11818181818181818,879,1,95,_Guitar_1,6,2,_Guitar_1,0.08525378257036209,0
59,100,0.34545454545454546,220,1,96,_Guitar_1,6,6,_Guitar_1,0.9998242259025574,1
59,100,0.24545454545454545,300,0,96,_Guitar_1,6,4,_Guitar_1,0.41283750534057617,0
59,100,0.08181818181818182,781,1,96,_Guitar_1,6,1,_Guitar_1,0.4327436685562134,0
59,100,0.31363636363636366,132,1,97,_Guitar_1,6,5,_Guitar_1,0.9998378753662109,1
64,100,0.19545454545454546,227,0,97,_Guitar_1,6,3,_Guitar_1,0.21927300095558167,0
59,100,0.2772727272727273,349,0,97,_Guitar_1,6,4,_Guitar_1,0.19162067770957947,0
52,100,0.17727272727272728,443,0,97,_Guitar_1,6,3,_Guitar_1,0.20841845870018005,0
64,100,0.11363636363636363,577,0,97,_Guitar_1,6,2,_Guitar_1,0.19647639989852905,0
59,100,0.21363636363636362,500,1,98,_Guitar_1,6,3,_Guitar_1,0.999833345413208,1
52,100,0.2,648,0,98,_Guitar_1,6,3,_Guitar_1,0.41031959652900696,0
59,100,0.21363636363636362,769,0,98,_Guitar_1,6,3,_Guitar_1,0.4199220538139343,0
59,100,0.18181818181818182,72,1,99,_Guitar_1,6,3,_Guitar_1,0.9998130202293396,1
59,100,0.11363636363636363,330,1,99,_Guitar_1,6,2,_Guitar_1,0.1275356560945511,0
59,100,0.08181818181818182,376,0,99,_Guitar_1,6,1,_Guitar_1,0.11969655007123947,0
59,100,0.35909090909090907,398,0,99,_Guitar_1,6,6,_Guitar_1,0.13006702065467834,0
64,100,0.19545454545454546,768,1,99,_Guitar_1,6,3,_Guitar_1,0.14456312358379364,0
64,100,0.1318181818181818,837,0,99,_Guitar_1,6,2,_Guitar_1,0.13190904259681702,0
59,100,0.2636363636363636,326,1,100,_Guitar_1,6,4,_Guitar_1,0.9998359680175781,1
64,100,0.14545454545454545,390,0,100,_Guitar_1,6,2,_Guitar_1,0.2182263284921646,0
64,100,0.29545454545454547,527,0,100,_Guitar_1,6,5,_Guitar_1,0.18913814425468445,0
64,100,0.18181818181818182,621,0,100,_Guitar_1,6,3,_Guitar_1,0.21361634135246277,0
59,100,0.16363636363636364,861,1,100,_Guitar_1,6,3,_Guitar_1,0.20097506046295166,0
59,100,0.16363636363636364,27,1,101,_Guitar_1,6,3,_Guitar_1,0.9998576641082764,1
59,100,0.21363636363636362,462,1,101,_Guitar_1,6,3,_Guitar_1,0.3175477385520935,0
64,100,0.1318181818181818,792,1,101,_Guitar_1,6,2,_Guitar_1,0.2943483293056488,0
64,100,0.21363636363636362,832,0,101,_Guitar_1,6,3,_Guitar_1,0.30042219161987305,0
59,100,0.08181818181818182,1,1,102,_Guitar_1,6,1,_Guitar_1,0.9997298121452332,1
59,100,0.21363636363636362,27,0,102,_Guitar_1,6,3,_Guitar_1,0.05591028928756714,0
59,100,0.17727272727272728,320,1,102,_Guitar_1,6,3,_Guitar_1,0.04702122136950493,0
59,100,0.1,374,0,102,_Guitar_1,6,2,_Guitar_1,0.04746485874056816,0
59,100,0.08181818181818182,451,0,102,_Guitar_1,6,1,_Guitar_1,0.05240112170577049,0
59,100,0.4772727272727273,472,0,102,_Guitar_1,6,8,_Guitar_1,0.05736328288912773,0
59,100,0.2318181818181818,599,0,102,_Guitar_1,6,4,_Guitar_1,0.06918060034513474,0
59,100,0.16363636363636364,826,0,102,_Guitar_1,6,3,_Guitar_1,0.06251618266105652,0
59,100,0.5454545454545454,685,1,103,_Guitar_1,6,9,_Guitar_1,0.9995943903923035,1
59,100,0.4409090909090909,844,0,103,_Guitar_1,6,7,_Guitar_1,0.5531009435653687,0
54,100,0.5227272727272727,258,1,104,_Guitar_1,6,8,_Guitar_1,0.9926360249519348,1
59,100,1.2181818181818183,679,1,105,_Guitar_1,6,15,_Guitar_1,0.9910944104194641,0
59,100,0.1,133,1,106,_Guitar_1,6,2,_Guitar_1,0.9998538494110107,1
52,100,1.5954545454545455,173,0,106,_Guitar_1,6,15,_Guitar_1,0.2699732184410095,0
52,100,0.1318181818181818,552,1,106,_Guitar_1,6,2,_Guitar_1,0.3298739194869995,0
52,100,0.11363636363636363,687,0,106,_Guitar_1,6,2,_Guitar_1,0.314105749130249,0
59,100,0.08181818181818182,353,1,107,_Guitar_1,6,1,_Guitar_1,0.9996572732925415,1
64,100,0.5590909090909091,834,1,107,_Guitar_1,6,9,_Guitar_1,0.5426350235939026,0
64,100,0.11363636363636363,121,1,108,_Guitar_1,6,2,_Guitar_1,0.9998492002487183,1
64,100,0.29545454545454547,302,0,108,_Guitar_1,6,5,_Guitar_1,0.19660373032093048,0
59,100,0.16818181818181818,381,0,108,_Guitar_1,6,3,_Guitar_1,0.1967467963695526,0
64,100,0.36363636363636365,642,1,108,_Guitar_1,6,6,_Guitar_1,0.2080405205488205,0
52,100,1.0681818181818181,722,0,108,_Guitar_1,6,15,_Guitar_1,0.19193127751350403,0
52,100,0.25,126,1,109,_Guitar_1,6,4,_Guitar_1,0.9935904741287231,0
66,100,0.14545454545454545,137,1,110,_Guitar_1,6,2,_Guitar_1,0.9998326301574707,1
52,100,0.22727272727272727,337,0,110,_Guitar_1,6,4,_Guitar_1,0.40762779116630554,0
59,100,0.09545454545454546,742,1,110,_Guitar_1,6,2,_Guitar_1,0.42621761560440063,0
64,100,0.5590909090909091,650,1,111,_Guitar_1,6,9,_Guitar_1,0.9996294975280762,1
64,100,0.11818181818181818,777,0,111,_Guitar_1,6,2,_Guitar_1,0.556058406829834,0
59,100,0.24545454545454545,551,1,112,_Guitar_1,6,4,_Guitar_1,0.9996261596679688,1
52,100,0.29545454545454547,755,0,112,_Guitar_1,6,5,_Guitar_1,0.5534211993217468,0
59,100,0.18181818181818182,81,1,113,_Guitar_1,6,3,_Guitar_1,0.9997976422309875,1
59,100,0.11818181818181818,123,0,113,_Guitar_1,6,2,_Guitar_1,0.13519564270973206,0
56,100,0.11363636363636363,261,0,113,_Guitar_1,6,2,_Guitar_1,0.12622135877609253,0
56,100,0.1318181818181818,319,0,113,_Guitar_1,6,2,_Guitar_1,0.134640172123909,0
57,100,0.37727272727272726,471,0,113,_Guitar_1,6,6,_Guitar_1,0.14119859039783478,0
57,100,0.2818181818181818,597,0,113,_Guitar_1,6,5,_Guitar_1,0.13840091228485107,0
52,100,0.18181818181818182,235,1,114,_Guitar_1,6,3,_Guitar_1,0.9997411370277405,1
57,100,0.14545454545454545,370,0,114,_Guitar_1,6,2,_Guitar_1,0.052496545016765594,0
57,100,0.34545454545454546,435,0,114,_Guitar_1,6,6,_Guitar_1,0.045039232820272446,0
59,100,0.2318181818181818,528,0,114,_Guitar_1,6,4,_Guitar_1,0.047851383686065674,0
59,100,0.1318181818181818,734,0,114,_Guitar_1,6,2,_Guitar_1,0.05238817259669304,0
59,100,0.1,768,0,114,_Guitar_1,6,2,_Guitar_1,0.058226462453603745,0
52,100,0.1,828,0,114,_Guitar_1,6,2,_Guitar_1,0.06822173297405243,0
64,100,0.08181818181818182,876,0,114,_Guitar_1,6,1,_Guitar_1,0.060863763093948364,0
52,100,0.09545454545454546,51,1,115,_Guitar_1,6,2,_Guitar_1,0.9998533725738525,1
52,100,0.5727272727272728,203,0,115,_Guitar_1,6,9,_Guitar_1,0.3095564842224121,0
56,100,0.19545454545454546,361,0,115,_Guitar_1,6,3,_Guitar_1,0.2934265434741974,0
59,100,0.15,796,1,115,_Guitar_1,6,2,_Guitar_1,0.30840158462524414,0
52,100,0.37727272727272726,282,1,116,_Guitar_1,6,6,_Guitar_1,0.9998338222503662,1
52,100,0.11363636363636363,375,0,116,_Guitar_1,6,2,_Guitar_1,0.427371084690094,0
57,100,0.08181818181818182,443,0,116,_Guitar_1,6,1,_Guitar_1,0.41948962211608887,0
59,100,0.34545454545454546,5,1,117,_Guitar_1,6,6,_Guitar_1,0.999761164188385,1
52,100,0.08636363636363636,377,1,117,_Guitar_1,6,1,_Guitar_1,0.08557108789682388,0
52,100,0.08181818181818182,465,0,117,_Guitar_1,6,1,_Guitar_1,0.07267779856920242,0
52,100,0.6227272727272727,502,0,117,_Guitar_1,6,10,_Guitar_1,0.0723356083035469,0
52,100,0.11363636363636363,657,0,117,_Guitar_1,6,2,_Guitar_1,0.09157537668943405,0
52,100,0.1,780,0,117,_Guitar_1,6,2,_Guitar_1,0.09220733493566513,0
52,100,0.19545454545454546,860,0,117,_Guitar_1,6,3,_Guitar_1,0.08258706331253052,0
52,100,0.31363636363636366,73,1,118,_Guitar_1,6,5,_Guitar_1,0.9998372793197632,1
64,100,0.08181818181818182,396,1,118,_Guitar_1,6,1,_Guitar_1,0.415240615606308,0
52,100,0.11363636363636363,765,1,118,_Guitar_1,6,2,_Guitar_1,0.42342910170555115,0
57,100,0.11818181818181818,638,1,0,_Guitar,6,2,_Guitar,0.9933445453643799,0
52,100,0.32272727272727275,122,1,5,_Guitar,6,5,_Guitar,0.9997764229774475,1
52,100,0.36363636363636365,201,0,5,_Guitar,6,6,_Guitar,0.077471062541008,0
53,100,0.1,373,0,5,_Guitar,6,2,_Guitar,0.07232561707496643,0
52,100,0.2818181818181818,396,0,5,_Guitar,6,5,_Guitar,0.07668221741914749,0
52,100,0.3409090909090909,475,0,5,_Guitar,6,5,_Guitar,0.08824048191308975,0
52,100,0.3,568,0,5,_Guitar,6,5,_Guitar,0.09220708906650543,0
52,100,0.3,647,0,5,_Guitar,6,5,_Guitar,0.08290194720029831,0
59,100,0.5590909090909091,79,1,6,_Guitar,6,9,_Guitar,0.9998393058776855,1
59,100,0.1590909090909091,276,0,6,_Guitar,6,3,_Guitar,0.33529648184776306,0
52,100,0.8181818181818182,634,1,6,_Guitar,6,13,_Guitar,0.28835782408714294,0
52,100,0.2772727272727273,823,0,6,_Guitar,6,4,_Guitar,0.3217577338218689,0
52,100,0.4409090909090909,12,1,7,_Guitar,6,7,_Guitar,0.9998262524604797,1
52,100,1.1409090909090909,118,0,7,_Guitar,6,15,_Guitar,0.1896519511938095,0
52,100,1.459090909090909,383,1,7,_Guitar,6,15,_Guitar,0.1963997185230255,0
52,100,0.4409090909090909,726,1,7,_Guitar,6,7,_Guitar,0.254123330116272,0
52,100,0.7,836,0,7,_Guitar,6,11,_Guitar,0.2165214717388153,0
52,100,0.1409090909090909,113,1,8,_Guitar,6,2,_Guitar,0.9937440752983093,1
59,100,0.16363636363636364,70,1,9,_Guitar,6,3,_Guitar,0.9931603670120239,0
59,100,0.11818181818181818,44,1,12,_Guitar,6,2,_Guitar,0.9933386445045471,0
57,100,0.37727272727272726,53,1,13,_Guitar,6,6,_Guitar,0.9998359680175781,1
57,100,0.22272727272727272,409,1,13,_Guitar,6,4,_Guitar,0.3377598524093628,0
59,100,0.11818181818181818,766,1,13,_Guitar,6,2,_Guitar,0.29755356907844543,0
59,100,0.2409090909090909,840,0,13,_Guitar,6,4,_Guitar,0.30712103843688965,0
64,100,0.11818181818181818,53,1,14,_Guitar,6,2,_Guitar,0.9997733235359192,1
59,100,0.1,92,0,14,_Guitar,6,2,_Guitar,0.07827203720808029,0
59,100,0.4,285,0,14,_Guitar,6,6,_Guitar,0.06973201781511307,0
64,100,0.2409090909090909,383,0,14,_Guitar,6,4,_Guitar,0.08282430469989777,0
64,100,0.17727272727272728,536,0,14,_Guitar,6,3,_Guitar,0.0914410725235939,0
64,100,0.6227272727272727,598,0,14,_Guitar,6,10,_Guitar,0.0923851877450943,0
52,100,0.21818181818181817,823,0,14,_Guitar,6,3,_Guitar,0.08894374966621399,0
52,100,0.1,56,1,15,_Guitar,6,2,_Guitar,0.9998173117637634,1
52,100,0.3,132,0,15,_Guitar,6,5,_Guitar,0.12014268338680267,0
64,100,0.8818181818181818,197,0,15,_Guitar,6,14,_Guitar,0.1110469251871109,0
59,100,0.2,395,0,15,_Guitar,6,3,_Guitar,0.14214873313903809,0
59,100,0.11818181818181818,493,0,15,_Guitar,6,2,_Guitar,0.1418001353740692,0
64,100,0.18181818181818182,553,0,15,_Guitar,6,3,_Guitar,0.1318386346101761,0
59,100,0.2,123,1,16,_Guitar,6,3,_Guitar,0.9998364448547363,1
59,100,0.2409090909090909,175,0,16,_Guitar,6,4,_Guitar,0.2126094549894333,0
52,100,0.2,326,0,16,_Guitar,6,3,_Guitar,0.19796736538410187,0
64,100,0.1,413,0,16,_Guitar,6,2,_Guitar,0.20948132872581482,0
64,100,0.12272727272727273,729,1,16,_Guitar,6,2,_Guitar,0.20286588370800018,0
59,100,0.1,303,1,17,_Guitar,6,2,_Guitar,0.999800980091095,1
59,100,0.18181818181818182,333,0,17,_Guitar,6,3,_Guitar,0.12598441541194916,0
59,100,0.22272727272727272,519,0,17,_Guitar,6,4,_Guitar,0.12246593832969666,0
59,100,0.4,646,0,17,_Guitar,6,6,_Guitar,0.1337718367576599,0
59,100,0.18181818181818182,739,0,17,_Guitar,6,3,_Guitar,0.15198445320129395,0
59,100,0.21818181818181817,845,0,17,_Guitar,6,3,_Guitar,0.13384918868541718,0
64,100,0.12272727272727273,113,1,18,_Guitar,6,2,_Guitar,0.9997840523719788,1
52,100,0.2590909090909091,140,0,18,_Guitar,6,4,_Guitar,0.0755646675825119,0
52,100,0.11818181818181818,220,0,18,_Guitar,6,2,_Guitar,0.07300326973199844,0
52,100,0.35909090909090907,308,0,18,_Guitar,6,6,_Guitar,0.07506601512432098,0
52,100,0.17727272727272728,413,0,18,_Guitar,6,3,_Guitar,0.08814844489097595,0
64,100,0.2,752,1,18,_Guitar,6,3,_Guitar,0.09261011332273483,0
61,100,0.1409090909090909,870,0,18,_Guitar,6,2,_Guitar,0.08023598790168762,0
64,100,0.4,26,1,19,_Guitar,6,6,_Guitar,0.9997661709785461,1
64,100,0.1590909090909091,140,0,19,_Guitar,6,3,_Guitar,0.08281106501817703,0
64,100,0.32272727272727275,210,0,19,_Guitar,6,5,_Guitar,0.073489248752594,0
59,100,0.1,351,0,19,_Guitar,6,2,_Guitar,0.07607270032167435,0
52,100,0.21818181818181817,505,0,19,_Guitar,6,3,_Guitar,0.09218350052833557,0
64,100,0.35909090909090907,563,0,19,_Guitar,6,6,_Guitar,0.08941394090652466,0
57,100,0.2,766,0,19,_Guitar,6,3,_Guitar,0.08584821224212646,0
57,100,0.17727272727272728,30,1,20,_Guitar,6,3,_Guitar,0.9998365640640259,1
64,100,0.1409090909090909,113,0,20,_Guitar,6,2,_Guitar,0.21739210188388824,0
59,100,0.11818181818181818,162,0,20,_Guitar,6,2,_Guitar,0.18963909149169922,0
59,100,0.11818181818181818,206,0,20,_Guitar,6,2,_Guitar,0.20407231152057648,0
59,100,0.3181818181818182,492,1,20,_Guitar,6,5,_Guitar,0.19955791532993317,0
52,100,0.3,136,1,21,_Guitar,6,5,_Guitar,0.9998109936714172,1
64,100,0.11818181818181818,241,0,21,_Guitar,6,2,_Guitar,0.13048747181892395,0
59,100,0.13636363636363635,326,0,21,_Guitar,6,2,_Guitar,0.1149875670671463,0
64,100,0.2409090909090909,364,0,21,_Guitar,6,4,_Guitar,0.1370135247707367,0
52,100,0.38181818181818183,466,0,21,_Guitar,6,6,_Guitar,0.14059852063655853,0
64,100,0.2772727272727273,766,1,21,_Guitar,6,4,_Guitar,0.12773290276527405,0
52,100,0.22272727272727272,752,1,22,_Guitar,6,4,_Guitar,0.9998433589935303,1
64,100,0.1409090909090909,801,0,22,_Guitar,6,2,_Guitar,0.406472384929657,0
64,100,0.3409090909090909,839,0,22,_Guitar,6,5,_Guitar,0.41553187370300293,0
64,100,0.1409090909090909,382,1,23,_Guitar,6,2,_Guitar,0.9997833371162415,1
64,100,0.21818181818181817,436,0,23,_Guitar,6,3,_Guitar,0.07686132192611694,0
64,100,0.1409090909090909,571,0,23,_Guitar,6,2,_Guitar,0.07133285701274872,0
64,100,0.11818181818181818,615,0,23,_Guitar,6,2,_Guitar,0.07840672135353088,0
52,100,0.35909090909090907,681,0,23,_Guitar,6,6,_Guitar,0.08620470762252808,0
52,100,0.1409090909090909,791,0,23,_Guitar,6,2,_Guitar,0.09053901582956314,0
59,100,0.18181818181818182,839,0,23,_Guitar,6,3,_Guitar,0.08054844290018082,0
64,100,0.11818181818181818,40,1,24,_Guitar,6,2,_Guitar,0.9998575448989868,1
64,100,0.1409090909090909,69,0,24,_Guitar,6,2,_Guitar,0.32539209723472595,0
64,100,0.1409090909090909,233,0,24,_Guitar,6,2,_Guitar,0.2894265055656433,0
57,100,0.22272727272727272,364,0,24,_Guitar,6,4,_Guitar,0.29335883259773254,0
59,100,0.2590909090909091,233,1,25,_Guitar,6,4,_Guitar,0.9998481273651123,1
59,100,0.2,378,0,25,_Guitar,6,3,_Guitar,0.3296435475349426,0
59,100,0.3409090909090909,466,0,25,_Guitar,6,5,_Guitar,0.2919612526893616,0
71,100,0.1,839,1,25,_Guitar,6,2,_Guitar,0.30555984377861023,0
52,100,0.11818181818181818,61,1,27,_Guitar,6,2,_Guitar,0.9997134804725647,1
52,100,0.3,299,1,27,_Guitar,6,5,_Guitar,0.04237816110253334,0
59,100,0.13636363636363635,391,0,27,_Guitar,6,2,_Guitar,0.032328635454177856,0
59,100,0.2590909090909091,430,0,27,_Guitar,6,4,_Guitar,0.030094817280769348,0
59,100,0.18181818181818182,497,0,27,_Guitar,6,3,_Guitar,0.03040330670773983,0
59,100,0.1,584,0,27,_Guitar,6,2,_Guitar,0.03387659415602684,0
59,100,0.1409090909090909,691,0,27,_Guitar,6,2,_Guitar,0.039669863879680634,0
64,100,0.1590909090909091,756,0,27,_Guitar,6,3,_Guitar,0.049591608345508575,0
64,100,0.2,853,0,27,_Guitar,6,3,_Guitar,0.04531624913215637,0
59,100,0.21818181818181817,131,1,28,_Guitar,6,3,_Guitar,0.999765932559967,1
59,100,0.1409090909090909,289,0,28,_Guitar,6,2,_Guitar,0.07988261431455612,0
59,100,0.4,378,0,28,_Guitar,6,6,_Guitar,0.07322504371404648,0
59,100,0.5,474,0,28,_Guitar,6,8,_Guitar,0.07690752297639847,0
59,100,0.1590909090909091,590,0,28,_Guitar,6,3,_Guitar,0.1002402976155281,0
59,100,0.3,656,0,28,_Guitar,6,5,_Guitar,0.09773634374141693,0
64,100,0.2636363636363636,729,0,28,_Guitar,6,4,_Guitar,0.09318754822015762,0
59,100,0.2,57,1,29,_Guitar,6,3,_Guitar,0.9998151659965515,1
59,100,0.41818181818181815,127,0,29,_Guitar,6,7,_Guitar,0.4052622616291046,0
59,100,0.1409090909090909,818,1,29,_Guitar,6,2,_Guitar,0.44366657733917236,0
61,100,0.2409090909090909,223,1,30,_Guitar,6,4,_Guitar,0.9998425245285034,1
64,100,0.2409090909090909,576,1,30,_Guitar,6,4,_Guitar,0.21246255934238434,0
59,100,0.17727272727272728,721,0,30,_Guitar,6,3,_Guitar,0.19927872717380524,0
59,100,0.1409090909090909,796,0,30,_Guitar,6,2,_Guitar,0.20752005279064178,0
54,100,0.5181818181818182,831,0,30,_Guitar,6,8,_Guitar,0.19013680517673492,0
59,100,0.4590909090909091,96,1,31,_Guitar,6,7,_Guitar,0.9996238946914673,1
64,100,0.11818181818181818,440,1,31,_Guitar,6,2,_Guitar,0.5629938244819641,0
57,100,0.2409090909090909,123,1,32,_Guitar,6,4,_Guitar,0.9996192455291748,1
59,100,0.1590909090909091,590,1,32,_Guitar,6,3,_Guitar,0.5573076605796814,0
64,100,0.11818181818181818,18,1,33,_Guitar,6,2,_Guitar,0.9998593330383301,1
57,100,0.1590909090909091,233,0,33,_Guitar,6,3,_Guitar,0.30476993322372437,0
52,100,0.3,303,0,33,_Guitar,6,5,_Guitar,0.29228174686431885,0
64,100,0.2409090909090909,664,1,33,_Guitar,6,4,_Guitar,0.3067180812358856,0
59,100,0.1590909090909091,330,1,34,_Guitar,6,3,_Guitar,0.9998551607131958,1
59,100,0.3409090909090909,471,0,34,_Guitar,6,5,_Guitar,0.30444642901420593,0
59,100,0.12272727272727273,686,0,34,_Guitar,6,2,_Guitar,0.30891653895378113,0
66,100,0.1409090909090909,783,0,34,_Guitar,6,2,_Guitar,0.30388423800468445,0
59,100,0.18181818181818182,386,1,35,_Guitar,6,3,_Guitar,0.9934090375900269,0
64,100,0.22272727272727272,201,1,36,_Guitar,6,4,_Guitar,0.9998416900634766,1
64,100,0.12272727272727273,783,1,36,_Guitar,6,2,_Guitar,0.40226444602012634,0
57,100,0.2818181818181818,836,0,36,_Guitar,6,5,_Guitar,0.41618984937667847,0
64,100,0.2590909090909091,761,1,37,_Guitar,6,4,_Guitar,0.9996514320373535,1
52,100,0.3181818181818182,831,0,37,_Guitar,6,5,_Guitar,0.5352773070335388,0
52,100,0.13636363636363635,238,1,38,_Guitar,6,2,_Guitar,0.9936791062355042,0
64,100,0.35909090909090907,383,1,39,_Guitar,6,6,_Guitar,0.9998282194137573,1
52,100,0.17727272727272728,646,1,39,_Guitar,6,3,_Guitar,0.42647960782051086,0
52,100,0.12272727272727273,826,0,39,_Guitar,6,2,_Guitar,0.42357200384140015,0
52,100,0.2,206,1,40,_Guitar,6,3,_Guitar,0.9998434782028198,1
52,100,0.12272727272727273,474,1,40,_Guitar,6,2,_Guitar,0.39867982268333435,0
52,100,0.13636363636363635,743,1,40,_Guitar,6,2,_Guitar,0.42574799060821533,0
59,100,0.16363636363636364,554,1,42,_Guitar,6,3,_Guitar,0.9932861924171448,0
61,100,0.11818181818181818,110,1,43,_Guitar,6,2,_Guitar,0.9932973980903625,0
61,100,0.2,114,1,44,_Guitar,6,3,_Guitar,0.999804675579071,1
61,100,0.33636363636363636,171,0,44,_Guitar,6,5,_Guitar,0.12151248753070831,0
57,100,0.21818181818181817,330,0,44,_Guitar,6,3,_Guitar,0.12415941059589386,0
57,100,0.42272727272727273,584,1,44,_Guitar,6,7,_Guitar,0.13330934941768646,0
57,100,0.11818181818181818,691,0,44,_Guitar,6,2,_Guitar,0.14816606044769287,0
57,100,0.12272727272727273,738,0,44,_Guitar,6,2,_Guitar,0.13530215620994568,0
57,100,0.2,408,1,45,_Guitar,6,3,_Guitar,0.9996275901794434,1
57,100,0.2818181818181818,576,0,45,_Guitar,6,5,_Guitar,0.5451728701591492,0
64,100,0.35909090909090907,364,1,46,_Guitar,6,6,_Guitar,0.9998326301574707,1
59,100,0.2772727272727273,646,1,46,_Guitar,6,4,_Guitar,0.40188121795654297,0
59,100,0.1590909090909091,845,0,46,_Guitar,6,3,_Guitar,0.42827197909355164,0
59,100,0.16363636363636364,91,1,47,_Guitar,6,3,_Guitar,0.9998297691345215,1
59,100,0.4,466,1,47,_Guitar,6,6,_Guitar,0.4145888388156891,0
68,100,0.3181818181818182,823,1,47,_Guitar,6,5,_Guitar,0.42476561665534973,0
68,100,0.16363636363636364,26,1,48,_Guitar,6,3,_Guitar,0.999828577041626,1
61,100,0.1590909090909091,211,0,48,_Guitar,6,3,_Guitar,0.40592169761657715,0
59,100,0.2,334,0,48,_Guitar,6,3,_Guitar,0.43121835589408875,0
61,100,0.12272727272727273,48,1,49,_Guitar,6,2,_Guitar,0.9998582601547241,1
57,100,0.22272727272727272,224,0,49,_Guitar,6,4,_Guitar,0.3140949606895447,0
59,100,0.2,496,1,49,_Guitar,6,3,_Guitar,0.2930178642272949,0
57,100,0.17727272727272728,735,1,49,_Guitar,6,3,_Guitar,0.3018268644809723,0
54,100,0.21818181818181817,61,1,50,_Guitar,6,3,_Guitar,0.9998239874839783,1
57,100,0.2409090909090909,131,0,50,_Guitar,6,4,_Guitar,0.40814217925071716,0
54,100,0.2409090909090909,576,1,50,_Guitar,6,4,_Guitar,0.43092551827430725,0
59,100,0.12272727272727273,861,1,51,_Guitar,6,2,_Guitar,0.9935445785522461,0
52,100,0.13636363636363635,523,1,52,_Guitar,6,2,_Guitar,0.9996652603149414,1
52,100,0.1590909090909091,633,0,52,_Guitar,6,3,_Guitar,0.546286404132843,0
52,100,0.1590909090909091,88,1,53,_Guitar,6,3,_Guitar,0.9997760653495789,1
64,100,0.1,386,1,53,_Guitar,6,2,_Guitar,0.08121629804372787,0
52,100,0.17727272727272728,633,1,53,_Guitar,6,3,_Guitar,0.07115519046783447,0
64,100,0.13636363636363635,721,0,53,_Guitar,6,2,_Guitar,0.07744577527046204,0
52,100,0.3,765,0,53,_Guitar,6,5,_Guitar,0.08458299189805984,0
64,100,0.11818181818181818,831,0,53,_Guitar,6,2,_Guitar,0.08703360706567764,0
52,100,0.2590909090909091,858,0,53,_Guitar,6,4,_Guitar,0.08240972459316254,0
52,100,0.3,40,1,54,_Guitar,6,5,_Guitar,0.9998339414596558,1
52,100,0.17727272727272728,215,0,54,_Guitar,6,3,_Guitar,0.21091030538082123,0
57,100,0.2409090909090909,295,0,54,_Guitar,6,4,_Guitar,0.18994638323783875,0
64,100,0.1590909090909091,550,1,54,_Guitar,6,3,_Guitar,0.21798697113990784,0
52,100,0.35909090909090907,593,0,54,_Guitar,6,6,_Guitar,0.19499121606349945,0
52,100,0.21818181818181817,128,1,55,_Guitar,6,3,_Guitar,0.9935688972473145,1
59,100,0.43636363636363634,633,1,56,_Guitar,6,7,_Guitar,0.9930033087730408,0
52,100,0.18181818181818182,166,1,57,_Guitar,6,3,_Guitar,0.9934750199317932,0
52,100,0.1590909090909091,413,1,58,_Guitar,6,3,_Guitar,0.9996622800827026,1
52,100,0.13636363636363635,853,1,58,_Guitar,6,2,_Guitar,0.5448742508888245,0
52,100,0.1590909090909091,78,1,59,_Guitar,6,3,_Guitar,0.9998194575309753,1
52,100,0.1409090909090909,153,0,59,_Guitar,6,2,_Guitar,0.12446301430463791,0
52,100,0.1409090909090909,220,0,59,_Guitar,6,2,_Guitar,0.11742540448904037,0
52,100,0.2,308,0,59,_Guitar,6,3,_Guitar,0.1290687471628189,0
64,100,0.1590909090909091,351,0,59,_Guitar,6,3,_Guitar,0.13546177744865417,0
59,100,0.11818181818181818,480,0,59,_Guitar,6,2,_Guitar,0.12574630975723267,0
61,100,0.2818181818181818,748,1,61,_Guitar,6,5,_Guitar,0.9931761622428894,0
68,100,0.2590909090909091,584,1,62,_Guitar,6,4,_Guitar,0.9996422529220581,1
59,100,0.1,655,0,62,_Guitar,6,2,_Guitar,0.5491079688072205,0
64,100,0.22272727272727272,123,1,63,_Guitar,6,4,_Guitar,0.9998589754104614,1
54,100,0.2590909090909091,298,0,63,_Guitar,6,4,_Guitar,0.31406402587890625,0
64,100,0.12272727272727273,408,0,63,_Guitar,6,2,_Guitar,0.29679208993911743,0
64,100,0.22272727272727272,488,0,63,_Guitar,6,4,_Guitar,0.30064111948013306,0
59,100,0.2,62,1,64,_Guitar,6,3,_Guitar,0.999634861946106,1
59,100,0.17727272727272728,713,1,64,_Guitar,6,3,_Guitar,0.5503968596458435,0
64,100,0.3409090909090909,289,1,65,_Guitar,6,5,_Guitar,0.9996336698532104,1
57,100,0.3,377,0,65,_Guitar,6,5,_Guitar,0.5449520349502563,0
61,100,0.17727272727272728,656,1,67,_Guitar,6,3,_Guitar,0.999645471572876,1
61,100,0.18181818181818182,826,0,67,_Guitar,6,3,_Guitar,0.5441269874572754,0
52,100,0.11818181818181818,417,1,68,_Guitar,6,2,_Guitar,0.9996554851531982,1
64,100,0.4590909090909091,726,1,68,_Guitar,6,7,_Guitar,0.5398547053337097,0
59,100,0.1,140,1,69,_Guitar,6,2,_Guitar,0.9998028874397278,1
59,100,0.22272727272727272,166,0,69,_Guitar,6,4,_Guitar,0.12501762807369232,0
59,100,0.33636363636363636,392,0,69,_Guitar,6,5,_Guitar,0.11931119859218597,0
59,100,0.1,496,0,69,_Guitar,6,2,_Guitar,0.14260882139205933,0
59,100,0.21818181818181817,567,0,69,_Guitar,6,3,_Guitar,0.14065514504909515,0
59,100,0.1409090909090909,779,0,69,_Guitar,6,2,_Guitar,0.13600368797779083,0
61,100,0.17727272727272728,229,1,70,_Guitar,6,3,_Guitar,0.9996445178985596,1
56,100,0.1590909090909091,660,1,70,_Guitar,6,3,_Guitar,0.5500280261039734,0
56,100,0.2,303,1,71,_Guitar,6,3,_Guitar,0.9996373653411865,1
52,100,0.13636363636363635,787,1,71,_Guitar,6,2,_Guitar,0.554295539855957,0
57,100,0.11818181818181818,127,1,72,_Guitar,6,2,_Guitar,0.9927743673324585,0
61,100,0.1590909090909091,307,1,73,_Guitar,6,3,_Guitar,0.999847412109375,1
61,100,0.33636363636363636,480,0,73,_Guitar,6,5,_Guitar,0.3277468681335449,0
61,100,0.11818181818181818,590,0,73,_Guitar,6,2,_Guitar,0.2970128059387207,0
61,100,0.18181818181818182,739,0,73,_Guitar,6,3,_Guitar,0.3034936189651489,0
59,100,0.18181818181818182,572,1,74,_Guitar,6,3,_Guitar,0.9996272325515747,1
61,100,0.4590909090909091,726,0,74,_Guitar,6,7,_Guitar,0.5437902808189392,0
61,100,0.11818181818181818,74,1,75,_Guitar,6,2,_Guitar,0.9998377561569214,1
54,100,0.2590909090909091,233,0,75,_Guitar,6,4,_Guitar,0.3998377025127411,0
56,100,0.3,483,1,75,_Guitar,6,5,_Guitar,0.42941954731941223,0
52,100,0.2,409,1,76,_Guitar,6,3,_Guitar,0.9998424053192139,1
59,100,0.17727272727272728,493,0,76,_Guitar,6,3,_Guitar,0.39920854568481445,0
64,100,0.2409090909090909,576,0,76,_Guitar,6,4,_Guitar,0.4256511330604553,0
59,100,0.1,289,1,77,_Guitar,6,2,_Guitar,0.9996466636657715,1
59,100,0.1,813,1,77,_Guitar,6,2,_Guitar,0.5510815978050232,0
59,100,0.18181818181818182,475,1,78,_Guitar,6,3,_Guitar,0.9933822154998779,0
64,100,0.1409090909090909,475,1,79,_Guitar,6,2,_Guitar,0.9998458623886108,1
64,100,0.1590909090909091,519,0,79,_Guitar,6,3,_Guitar,0.40004903078079224,0
59,100,0.4590909090909091,572,0,79,_Guitar,6,7,_Guitar,0.4098054766654968,0
52,100,0.1409090909090909,0,1,80,_Guitar,6,2,_Guitar,0.9997795224189758,1
52,100,0.1,62,0,80,_Guitar,6,2,_Guitar,0.07990964502096176,0
52,100,0.12272727272727273,233,0,80,_Guitar,6,2,_Guitar,0.07152654230594635,0
64,100,0.2,422,0,80,_Guitar,6,3,_Guitar,0.076913021504879,0
52,100,0.4772727272727273,546,0,80,_Guitar,6,8,_Guitar,0.08373367786407471,0
52,100,0.17727272727272728,743,0,80,_Guitar,6,3,_Guitar,0.09631691128015518,0
59,100,0.42272727272727273,805,0,80,_Guitar,6,7,_Guitar,0.0808180421590805,0
59,100,0.38181818181818183,637,1,81,_Guitar,6,6,_Guitar,0.9931021928787231,0
59,100,0.18181818181818182,299,1,82,_Guitar,6,3,_Guitar,0.9998548030853271,1
59,100,0.2772727272727273,404,0,82,_Guitar,6,4,_Guitar,0.3177354633808136,0
59,100,0.2772727272727273,470,0,82,_Guitar,6,4,_Guitar,0.2893684208393097,0
64,100,0.3409090909090909,734,1,82,_Guitar,6,5,_Guitar,0.3126550316810608,0
64,100,0.5,26,1,83,_Guitar,6,8,_Guitar,0.9998295307159424,1
64,100,0.6,157,0,83,_Guitar,6,10,_Guitar,0.20841431617736816,0
64,100,0.1590909090909091,559,1,83,_Guitar,6,3,_Guitar,0.20367147028446198,0
64,100,0.2,646,0,83,_Guitar,6,3,_Guitar,0.20784887671470642,0
64,100,0.11818181818181818,743,0,83,_Guitar,6,2,_Guitar,0.20534656941890717,0
64,100,0.2,123,1,84,_Guitar,6,3,_Guitar,0.9997139573097229,1
64,100,0.13636363636363635,172,0,84,_Guitar,6,2,_Guitar,0.043379586189985275,0
64,100,0.3,242,0,84,_Guitar,6,5,_Guitar,0.031488560140132904,0
64,100,0.2409090909090909,312,0,84,_Guitar,6,4,_Guitar,0.030032142996788025,0
64,100,0.3181818181818182,373,0,84,_Guitar,6,5,_Guitar,0.02903098054230213,0
59,100,0.1,470,0,84,_Guitar,6,2,_Guitar,0.03241899982094765,0
52,100,0.3,663,0,84,_Guitar,6,5,_Guitar,0.0396745502948761,0
52,100,0.11818181818181818,787,0,84,_Guitar,6,2,_Guitar,0.04717881977558136,0
59,100,0.18181818181818182,839,0,84,_Guitar,6,3,_Guitar,0.04395946487784386,0
59,100,0.1,30,1,85,_Guitar,6,2,_Guitar,0.9998354911804199,1
59,100,0.2409090909090909,756,1,85,_Guitar,6,4,_Guitar,0.40789416432380676,0
64,100,0.22272727272727272,826,0,85,_Guitar,6,4,_Guitar,0.42698800563812256,0
64,100,0.11818181818181818,30,1,86,_Guitar,6,2,_Guitar,0.999816358089447,1
64,100,0.1409090909090909,74,0,86,_Guitar,6,2,_Guitar,0.12452473491430283,0
52,100,0.32272727272727275,377,1,86,_Guitar,6,5,_Guitar,0.11554030328989029,0
59,100,0.41818181818181815,470,0,86,_Guitar,6,7,_Guitar,0.12415880709886551,0
59,100,0.1,663,0,86,_Guitar,6,2,_Guitar,0.14345110952854156,0
59,100,0.2409090909090909,813,0,86,_Guitar,6,4,_Guitar,0.1291501373052597,0
59,100,0.22272727272727272,13,1,87,_Guitar,6,4,_Guitar,0.9998063445091248,1
59,100,0.2409090909090909,74,0,87,_Guitar,6,4,_Guitar,0.12764544785022736,0
59,100,0.1,197,0,87,_Guitar,6,2,_Guitar,0.12103060632944107,0
59,100,0.1,294,0,87,_Guitar,6,2,_Guitar,0.1359449028968811,0
64,100,0.35909090909090907,483,0,87,_Guitar,6,6,_Guitar,0.14152754843235016,0
61,100,0.2409090909090909,747,1,87,_Guitar,6,4,_Guitar,0.128319650888443,0
68,100,0.16363636363636364,817,1,88,_Guitar,6,3,_Guitar,0.9933520555496216,1
59,100,0.32272727272727275,453,1,89,_Guitar,6,5,_Guitar,0.9929001331329346,0
59,100,0.22272727272727272,145,1,90,_Guitar,6,4,_Guitar,0.9998385906219482,1
59,100,0.2,352,0,90,_Guitar,6,3,_Guitar,0.2099810391664505,0
59,100,0.1590909090909091,404,0,90,_Guitar,6,3,_Guitar,0.19914115965366364,0
59,100,0.2590909090909091,590,0,90,_Guitar,6,4,_Guitar,0.20586788654327393,0
68,100,0.18181818181818182,673,0,90,_Guitar,6,3,_Guitar,0.20575697720050812,0
64,100,0.2590909090909091,87,1,91,_Guitar,6,4,_Guitar,0.9998337030410767,1
59,100,0.21818181818181817,392,1,91,_Guitar,6,3,_Guitar,0.3989722728729248,0
64,100,0.1409090909090909,483,0,91,_Guitar,6,2,_Guitar,0.4361547529697418,0
52,100,0.1,62,1,92,_Guitar,6,2,_Guitar,0.9997465014457703,1
64,100,0.1,140,0,92,_Guitar,6,2,_Guitar,0.054198410362005234,0
59,100,0.1409090909090909,197,0,92,_Guitar,6,2,_Guitar,0.045352645218372345,0
59,100,0.2409090909090909,233,0,92,_Guitar,6,4,_Guitar,0.04568679258227348,0
52,100,0.2818181818181818,299,0,92,_Guitar,6,5,_Guitar,0.052293986082077026,0
64,100,0.1590909090909091,360,0,92,_Guitar,6,3,_Guitar,0.05833975970745087,0
52,100,0.16363636363636364,399,0,92,_Guitar,6,3,_Guitar,0.06460389494895935,0
64,100,0.22272727272727272,553,0,92,_Guitar,6,4,_Guitar,0.05862132087349892,0
59,100,0.4409090909090909,210,1,93,_Guitar,6,7,_Guitar,0.9998515844345093,1
59,100,0.22272727272727272,377,0,93,_Guitar,6,4,_Guitar,0.32234635949134827,0
59,100,0.1590909090909091,603,0,93,_Guitar,6,3,_Guitar,0.28959232568740845,0
59,100,0.2409090909090909,770,0,93,_Guitar,6,4,_Guitar,0.30551397800445557,0
64,100,0.2818181818181818,132,1,94,_Guitar,6,5,_Guitar,0.9998390674591064,1
64,100,0.1409090909090909,220,0,94,_Guitar,6,2,_Guitar,0.4103401303291321,0
64,100,0.22272727272727272,430,0,94,_Guitar,6,4,_Guitar,0.4214443862438202,0
64,100,0.1590909090909091,123,1,95,_Guitar,6,3,_Guitar,0.9998425245285034,1
64,100,0.11818181818181818,303,0,95,_Guitar,6,2,_Guitar,0.40627560019493103,0
52,100,0.12272727272727273,650,1,95,_Guitar,6,2,_Guitar,0.42321261763572693,0
59,100,0.42272727272727273,356,1,96,_Guitar,6,7,_Guitar,0.9996103644371033,1
59,100,0.3409090909090909,585,0,96,_Guitar,6,5,_Guitar,0.5500657558441162,0
59,100,0.13636363636363635,83,1,97,_Guitar,6,2,_Guitar,0.999836802482605,1
64,100,0.13636363636363635,260,0,97,_Guitar,6,2,_Guitar,0.2167959064245224,0
64,100,0.1409090909090909,496,1,97,_Guitar,6,2,_Guitar,0.20235072076320648,0
64,100,0.2636363636363636,597,0,97,_Guitar,6,4,_Guitar,0.20167750120162964,0
64,100,0.5818181818181818,826,0,97,_Guitar,6,9,_Guitar,0.19430017471313477,0
64,100,0.2590909090909091,100,1,98,_Guitar,6,4,_Guitar,0.9998613595962524,1
52,100,0.1409090909090909,157,0,98,_Guitar,6,2,_Guitar,0.3222355842590332,0
64,100,0.22272727272727272,189,0,98,_Guitar,6,4,_Guitar,0.2890948951244354,0
57,100,0.12272727272727273,783,1,98,_Guitar,6,2,_Guitar,0.2915053367614746,0
64,100,0.1,197,1,99,_Guitar,6,2,_Guitar,0.9998466968536377,1
52,100,0.35909090909090907,220,0,99,_Guitar,6,6,_Guitar,0.19788482785224915,0
52,100,0.13636363636363635,326,0,99,_Guitar,6,2,_Guitar,0.19495005905628204,0
59,100,0.1,690,1,99,_Guitar,6,2,_Guitar,0.2005060315132141,0
59,100,0.1590909090909091,716,0,99,_Guitar,6,3,_Guitar,0.20272104442119598,0
64,100,0.11818181818181818,514,1,100,_Guitar,6,2,_Guitar,0.9998586177825928,1
68,100,0.2772727272727273,559,0,100,_Guitar,6,4,_Guitar,0.30145663022994995,0
59,100,0.12272727272727273,695,0,100,_Guitar,6,2,_Guitar,0.29742422699928284,0
64,100,0.2,832,0,100,_Guitar,6,3,_Guitar,0.303250789642334,0
68,100,0.21818181818181817,119,1,101,_Guitar,6,3,_Guitar,0.9998342990875244,1
59,100,0.11818181818181818,612,1,101,_Guitar,6,2,_Guitar,0.40839827060699463,0
59,100,0.1590909090909091,787,0,101,_Guitar,6,3,_Guitar,0.4206400215625763,0
59,100,0.1590909090909091,172,1,102,_Guitar,6,3,_Guitar,0.9996368885040283,1
56,100,0.6818181818181818,660,1,102,_Guitar,6,11,_Guitar,0.538410484790802,0
59,100,0.1409090909090909,255,1,103,_Guitar,6,2,_Guitar,0.9996346235275269,1
59,100,0.1590909090909091,470,0,103,_Guitar,6,3,_Guitar,0.5479762554168701,0
59,100,0.1409090909090909,69,1,104,_Guitar,6,2,_Guitar,0.9996227025985718,1
59,100,0.4409090909090909,343,1,104,_Guitar,6,7,_Guitar,0.5425637364387512,0
71,100,0.1409090909090909,862,1,105,_Guitar,6,2,_Guitar,0.9934430122375488,0
83,100,0.12272727272727273,26,1,106,_Guitar,6,2,_Guitar,0.9996281862258911,1
83,100,0.1590909090909091,140,0,106,_Guitar,6,3,_Guitar,0.5491181015968323,0
59,100,0.7,62,1,107,_Guitar,6,11,_Guitar,0.9995716214179993,1
59,100,0.32272727272727275,233,0,107,_Guitar,6,5,_Guitar,0.5604902505874634,0
59,100,0.2590909090909091,779,1,108,_Guitar,6,4,_Guitar,0.993135929107666,0
54,100,0.1,857,1,109,_Guitar,6,2,_Guitar,0.9932520985603333,0
54,100,1.7,179,1,110,_Guitar,6,15,_Guitar,0.9994854927062988,1
56,100,0.1590909090909091,572,1,110,_Guitar,6,3,_Guitar,0.5920918583869934,0
59,100,0.12272727272727273,255,1,111,_Guitar,6,2,_Guitar,0.9932194352149963,0
59,100,0.17727272727272728,83,1,112,_Guitar,6,3,_Guitar,0.9996008276939392,1
64,100,1.1636363636363636,729,1,112,_Guitar,6,15,_Guitar,0.5389751195907593,0
52,100,0.2,210,1,113,_Guitar,6,3,_Guitar,0.9996628761291504,1
59,100,0.2818181818181818,747,1,113,_Guitar,6,5,_Guitar,0.5350376963615417,0
59,100,0.3181818181818182,127,1,114,_Guitar,6,5,_Guitar,0.9996040463447571,1
59,100,0.1,606,1,114,_Guitar,6,2,_Guitar,0.5616461038589478,0
64,100,0.18181818181818182,66,1,115,_Guitar,6,3,_Guitar,0.9998472929000854,1
64,100,0.4409090909090909,206,0,115,_Guitar,6,7,_Guitar,0.1971796452999115,0
64,100,0.3,386,0,115,_Guitar,6,5,_Guitar,0.19720356166362762,0
64,100,0.4409090909090909,726,1,115,_Guitar,6,7,_Guitar,0.19736281037330627,0
64,100,0.2,832,0,115,_Guitar,6,3,_Guitar,0.20041325688362122,0
64,100,0.3409090909090909,22,1,116,_Guitar,6,5,_Guitar,0.9998401403427124,1
64,100,0.1,127,0,116,_Guitar,6,2,_Guitar,0.20993667840957642,0
64,100,0.1,197,0,116,_Guitar,6,2,_Guitar,0.19909711182117462,0
59,100,0.22272727272727272,233,0,116,_Guitar,6,4,_Guitar,0.19653481245040894,0
54,100,0.1409090909090909,646,1,116,_Guitar,6,2,_Guitar,0.20268887281417847,0
59,100,0.42272727272727273,35,1,117,_Guitar,6,7,_Guitar,0.9998237490653992,1
59,100,0.3,132,0,117,_Guitar,6,5,_Guitar,0.41442614793777466,0
59,100,0.1,716,1,117,_Guitar,6,2,_Guitar,0.43665382266044617,0
59,100,0.37727272727272726,119,1,118,_Guitar,6,6,_Guitar,0.9998337030410767,1
64,100,0.2409090909090909,233,0,118,_Guitar,6,4,_Guitar,0.21483607590198517,0
59,100,0.3409090909090909,383,0,118,_Guitar,6,5,_Guitar,0.18653032183647156,0
52,100,0.22272727272727272,496,0,118,_Guitar,6,4,_Guitar,0.22167819738388062,0
64,100,0.1409090909090909,660,0,118,_Guitar,6,2,_Guitar,0.2038714736700058,0
59,100,0.2590909090909091,756,1,119,_Guitar,6,4,_Guitar,0.9931862354278564,0
52,100,0.2409090909090909,56,1,120,_Guitar,6,4,_Guitar,0.9998142123222351,1
59,100,0.2636363636363636,202,0,120,_Guitar,6,4,_Guitar,0.12050087749958038,0
59,100,0.21818181818181817,426,0,120,_Guitar,6,3,_Guitar,0.12534213066101074,0
59,100,0.1409090909090909,739,1,120,_Guitar,6,2,_Guitar,0.13594591617584229,0
59,100,0.1,796,0,120,_Guitar,6,2,_Guitar,0.14211226999759674,0
59,100,0.4409090909090909,823,0,120,_Guitar,6,7,_Guitar,0.12607304751873016,0
64,100,0.23636363636363636,392,1,121,_Guitar,6,4,_Guitar,0.9996547698974609,1
64,100,0.1590909090909091,475,0,121,_Guitar,6,3,_Guitar,0.5522888898849487,0
59,100,0.3181818181818182,43,1,122,_Guitar,6,5,_Guitar,0.9998050332069397,1
64,100,0.18181818181818182,123,0,122,_Guitar,6,3,_Guitar,0.13152368366718292,0
64,100,0.36363636363636365,289,0,122,_Guitar,6,6,_Guitar,0.11795339733362198,0
64,100,0.21818181818181817,404,0,122,_Guitar,6,3,_Guitar,0.13606569170951843,0
59,100,0.2,695,1,122,_Guitar,6,3,_Guitar,0.13643784821033478,0
59,100,0.2,752,0,122,_Guitar,6,3,_Guitar,0.13012821972370148,0
59,100,0.2636363636363636,399,1,123,_Guitar,6,4,_Guitar,0.9998331069946289,1
64,100,0.1590909090909091,800,1,123,_Guitar,6,3,_Guitar,0.4214908182621002,0
64,100,0.2590909090909091,849,0,123,_Guitar,6,4,_Guitar,0.4197410047054291,0
59,100,0.1,30,1,124,_Guitar,6,2,_Guitar,0.9997710585594177,1
59,100,0.2590909090909091,62,0,124,_Guitar,6,4,_Guitar,0.07829959690570831,0
59,100,0.21818181818181817,417,1,124,_Guitar,6,3,_Guitar,0.07382550835609436,0
59,100,0.11818181818181818,483,0,124,_Guitar,6,2,_Guitar,0.08160249888896942,0
59,100,0.1,576,0,124,_Guitar,6,2,_Guitar,0.08924787491559982,0
59,100,0.5772727272727273,603,0,124,_Guitar,6,9,_Guitar,0.09035299718379974,0
59,100,0.2772727272727273,756,0,124,_Guitar,6,4,_Guitar,0.09303933382034302,0
59,100,0.2,153,1,125,_Guitar,6,3,_Guitar,0.9932705760002136,0
59,100,0.6590909090909091,172,1,126,_Guitar,6,11,_Guitar,0.9998107552528381,1
59,100,0.5409090909090909,365,0,126,_Guitar,6,9,_Guitar,0.4184906482696533,0
54,100,0.6363636363636364,722,1,126,_Guitar,6,10,_Guitar,0.43966543674468994,0
59,100,1.4772727272727273,546,1,128,_Guitar,6,15,_Guitar,0.9907410144805908,0
59,100,0.12272727272727273,70,1,129,_Guitar,6,2,_Guitar,0.9998433589935303,1
52,100,1.940909090909091,118,0,129,_Guitar,6,15,_Guitar,0.26889461278915405,0
52,100,0.1590909090909091,580,1,129,_Guitar,6,3,_Guitar,0.34642383456230164,0
52,100,0.13636363636363635,743,0,129,_Guitar,6,2,_Guitar,0.3205474615097046,0
59,100,0.1,527,1,130,_Guitar,6,2,_Guitar,0.9929908514022827,0
64,100,0.6818181818181818,232,1,131,_Guitar,6,11,_Guitar,0.9998527765274048,1
64,100,0.13636363636363635,436,0,131,_Guitar,6,2,_Guitar,0.3340701758861542,0
64,100,0.35909090909090907,656,0,131,_Guitar,6,6,_Guitar,0.2868541479110718,0
59,100,0.2,751,0,131,_Guitar,6,3,_Guitar,0.2993727922439575,0
64,100,0.4409090909090909,189,1,132,_Guitar,6,7,_Guitar,0.999822199344635,1
52,100,1.3,285,0,132,_Guitar,6,15,_Guitar,0.37161776423454285,0
52,100,0.3,633,1,132,_Guitar,6,5,_Guitar,0.4641166627407074,0
66,100,0.18181818181818182,835,1,133,_Guitar,6,3,_Guitar,0.9930692911148071,0
52,100,0.2818181818181818,197,1,134,_Guitar,6,5,_Guitar,0.9996455907821655,1
59,100,0.11818181818181818,690,1,134,_Guitar,6,2,_Guitar,0.5443283915519714,0
64,100,0.6818181818181818,770,1,135,_Guitar,6,11,_Guitar,0.9927279949188232,0
64,100,0.1409090909090909,44,1,136,_Guitar,6,2,_Guitar,0.9996563196182251,1
59,100,0.3,840,1,136,_Guitar,6,5,_Guitar,0.5413724184036255,0
52,100,0.35909090909090907,207,1,137,_Guitar,6,6,_Guitar,0.9998424053192139,1
59,100,0.21818181818181817,458,1,137,_Guitar,6,3,_Guitar,0.20148612558841705,0
59,100,0.1409090909090909,510,0,137,_Guitar,6,2,_Guitar,0.2015102654695511,0
56,100,0.13636363636363635,678,0,137,_Guitar,6,2,_Guitar,0.20546790957450867,0
56,100,0.1590909090909091,747,0,137,_Guitar,6,3,_Guitar,0.2049768716096878,0
57,100,0.4590909090909091,53,1,138,_Guitar,6,7,_Guitar,0.999806821346283,1
57,100,0.3409090909090909,207,0,138,_Guitar,6,5,_Guitar,0.43401703238487244,0
52,100,0.21818181818181817,835,1,138,_Guitar,6,3,_Guitar,0.43737757205963135,0
57,100,0.17727272727272728,118,1,139,_Guitar,6,3,_Guitar,0.9997230172157288,1
57,100,0.41818181818181815,197,0,139,_Guitar,6,7,_Guitar,0.05474809929728508,0
59,100,0.2818181818181818,311,0,139,_Guitar,6,5,_Guitar,0.049071989953517914,0
59,100,0.1590909090909091,562,1,139,_Guitar,6,3,_Guitar,0.04903952777385712,0
59,100,0.11818181818181818,603,0,139,_Guitar,6,2,_Guitar,0.052911415696144104,0
52,100,0.11818181818181818,678,0,139,_Guitar,6,2,_Guitar,0.06155301257967949,0
64,100,0.1,735,0,139,_Guitar,6,2,_Guitar,0.06720490753650665,0
52,100,0.11818181818181818,800,0,139,_Guitar,6,2,_Guitar,0.05990910530090332,0
52,100,0.7,106,1,140,_Guitar,6,11,_Guitar,0.9998226761817932,1
56,100,0.2409090909090909,299,0,140,_Guitar,6,4,_Guitar,0.4219226837158203,0
59,100,0.18181818181818182,826,1,140,_Guitar,6,3,_Guitar,0.4253622591495514,0
52,100,0.4590909090909091,391,1,141,_Guitar,6,7,_Guitar,0.9998297691345215,1
52,100,0.1409090909090909,505,0,141,_Guitar,6,2,_Guitar,0.42892512679100037,0
57,100,0.1,589,0,141,_Guitar,6,2,_Guitar,0.4130591154098511,0
59,100,0.42272727272727273,246,1,142,_Guitar,6,7,_Guitar,0.9998515844345093,1
52,100,0.1,699,1,142,_Guitar,6,2,_Guitar,0.34958866238594055,0
52,100,0.1,804,0,142,_Guitar,6,2,_Guitar,0.29318034648895264,0
52,100,0.759090909090909,849,0,142,_Guitar,6,12,_Guitar,0.2853691279888153,0
52,100,0.1409090909090909,158,1,143,_Guitar,6,2,_Guitar,0.9998629093170166,1
52,100,0.11818181818181818,307,0,143,_Guitar,6,2,_Guitar,0.3091495633125305,0
52,100,0.2409090909090909,405,0,143,_Guitar,6,4,_Guitar,0.2929708957672119,0
52,100,0.38181818181818183,519,0,143,_Guitar,6,6,_Guitar,0.2918001711368561,0
64,100,0.1,30,1,144,_Guitar,6,2,_Guitar,0.9996670484542847,1
52,100,0.13636363636363635,479,1,144,_Guitar,6,2,_Guitar,0.5451853275299072,0
58,100,0.17727272727272728,273,1,6,_Guitar,6,3,_Guitar,0.9995977282524109,1
58,100,0.13636363636363635,590,1,6,_Guitar,6,2,_Guitar,0.5566067695617676,0
58,100,0.2,40,1,7,_Guitar,6,3,_Guitar,0.9998311996459961,1
56,100,0.12272727272727273,268,0,7,_Guitar,6,2,_Guitar,0.35676267743110657,0
58,100,0.5181818181818182,360,0,7,_Guitar,6,8,_Guitar,0.2785739004611969,0
58,100,0.1409090909090909,685,1,7,_Guitar,6,2,_Guitar,0.3327715992927551,0
58,100,0.2590909090909091,123,1,8,_Guitar,6,4,_Guitar,0.9997984766960144,1
58,100,0.3181818181818182,440,1,8,_Guitar,6,5,_Guitar,0.4312714636325836,0
58,100,0.5409090909090909,752,1,8,_Guitar,6,9,_Guitar,0.43698087334632874,0
58,100,0.6181818181818182,185,1,9,_Guitar,6,10,_Guitar,0.9997870326042175,1
58,100,0.5,524,1,9,_Guitar,6,8,_Guitar,0.4242204427719116,0
58,100,0.18181818181818182,857,1,9,_Guitar,6,3,_Guitar,0.45269545912742615,0
58,100,0.1,25,1,10,_Guitar,6,2,_Guitar,0.9998053908348083,1
58,100,0.5227272727272727,290,1,10,_Guitar,6,8,_Guitar,0.40490132570266724,0
58,100,0.5,625,1,10,_Guitar,6,8,_Guitar,0.4460209608078003,0
58,100,0.11818181818181818,53,1,11,_Guitar,6,2,_Guitar,0.9997968077659607,1
58,100,0.6,374,1,11,_Guitar,6,10,_Guitar,0.405538946390152,0
58,100,0.5590909090909091,682,1,11,_Guitar,6,9,_Guitar,0.4506193995475769,0
58,100,0.38181818181818183,792,1,12,_Guitar,6,6,_Guitar,0.9920114874839783,0
56,100,0.18181818181818182,135,1,13,_Guitar,6,3,_Guitar,0.9998441934585571,1
58,100,0.5772727272727273,216,0,13,_Guitar,6,9,_Guitar,0.2932138741016388,0
58,100,0.5181818181818182,550,1,13,_Guitar,6,8,_Guitar,0.3111996352672577,0
58,100,0.3409090909090909,871,1,13,_Guitar,6,5,_Guitar,0.3236313462257385,0
58,100,0.1,312,1,14,_Guitar,6,2,_Guitar,0.9998189806938171,1
58,100,0.21818181818181817,338,0,14,_Guitar,6,3,_Guitar,0.41371673345565796,0
58,100,0.2818181818181818,637,1,14,_Guitar,6,5,_Guitar,0.4332138001918793,0
63,100,0.18181818181818182,817,1,74,_Guitar,6,3,_Guitar,0.9931387305259705,0
55,100,0.11818181818181818,457,1,75,_Guitar,6,2,_Guitar,0.9998528957366943,1
63,100,0.12272727272727273,597,0,75,_Guitar,6,2,_Guitar,0.31185099482536316,0
63,100,0.2818181818181818,637,0,75,_Guitar,6,5,_Guitar,0.2927141785621643,0
63,100,0.2409090909090909,729,0,75,_Guitar,6,4,_Guitar,0.313007116317749,0
55,100,0.1,17,1,77,_Guitar,6,2,_Guitar,0.999830961227417,1
63,100,0.8409090909090909,163,0,77,_Guitar,6,13,_Guitar,0.19013608992099762,0
63,100,0.18181818181818182,352,0,77,_Guitar,6,3,_Guitar,0.22165800631046295,0
56,100,0.2,669,1,77,_Guitar,6,3,_Guitar,0.21953773498535156,0
63,100,0.4,857,0,77,_Guitar,6,6,_Guitar,0.20805366337299347,0
56,100,0.2590909090909091,189,1,78,_Guitar,6,4,_Guitar,0.9998316764831543,1
55,100,0.1409090909090909,426,1,78,_Guitar,6,2,_Guitar,0.4150592088699341,0
58,100,0.3181818181818182,660,1,78,_Guitar,6,5,_Guitar,0.4153863191604614,0
58,100,0.1409090909090909,294,1,79,_Guitar,6,2,_Guitar,0.9998290538787842,1
58,100,0.2,360,0,79,_Guitar,6,3,_Guitar,0.2047579288482666,0
58,100,0.2,514,0,79,_Guitar,6,3,_Guitar,0.20205941796302795,0
74,100,0.4818181818181818,637,0,79,_Guitar,6,8,_Guitar,0.22304943203926086,0
74,100,0.3,747,0,79,_Guitar,6,5,_Guitar,0.2146654725074768,0
63,100,1.3,9,1,80,_Guitar,6,15,_Guitar,0.999798595905304,1
58,100,0.12272727272727273,299,1,80,_Guitar,6,2,_Guitar,0.3906347453594208,0
63,100,0.6590909090909091,343,0,80,_Guitar,6,11,_Guitar,0.30180928111076355,0
53,100,1.7227272727272727,663,1,80,_Guitar,6,15,_Guitar,0.3175898492336273,0
63,100,0.2,527,1,81,_Guitar,6,3,_Guitar,0.9998120665550232,1
56,100,0.3181818181818182,743,0,81,_Guitar,6,5,_Guitar,0.4335423707962036,0
58,100,0.42272727272727273,826,0,81,_Guitar,6,7,_Guitar,0.42008835077285767,0
58,100,0.18181818181818182,56,1,82,_Guitar,6,3,_Guitar,0.999841570854187,1
53,100,0.4,286,0,82,_Guitar,6,6,_Guitar,0.3369288742542267,0
68,100,0.35909090909090907,493,0,82,_Guitar,6,6,_Guitar,0.29839426279067993,0
68,100,0.5409090909090909,839,1,82,_Guitar,6,9,_Guitar,0.30548015236854553,0
82,100,0.1409090909090909,356,1,83,_Guitar,6,2,_Guitar,0.999840259552002,1
58,100,0.18181818181818182,399,0,83,_Guitar,6,3,_Guitar,0.32364991307258606,0
55,100,0.1409090909090909,619,0,83,_Guitar,6,2,_Guitar,0.30524635314941406,0
55,100,0.11818181818181818,690,0,83,_Guitar,6,2,_Guitar,0.31177377700805664,0
58,100,0.21818181818181817,83,1,84,_Guitar,6,3,_Guitar,0.9998111128807068,1
58,100,0.6818181818181818,197,0,84,_Guitar,6,11,_Guitar,0.20652742683887482,0
55,100,0.2,373,0,84,_Guitar,6,3,_Guitar,0.2291964888572693,0
58,100,0.1409090909090909,422,0,84,_Guitar,6,2,_Guitar,0.21592503786087036,0
58,100,0.1,567,0,84,_Guitar,6,2,_Guitar,0.221314936876297,0
58,100,0.18181818181818182,312,1,85,_Guitar,6,3,_Guitar,0.9998393058776855,1
58,100,0.3,462,0,85,_Guitar,6,5,_Guitar,0.324471652507782,0
55,100,0.1590909090909091,536,0,85,_Guitar,6,3,_Guitar,0.3072013556957245,0
58,100,0.21818181818181817,703,0,85,_Guitar,6,3,_Guitar,0.3102811276912689,0
58,100,0.2590909090909091,74,1,86,_Guitar,6,4,_Guitar,0.9998396635055542,1
55,100,0.12272727272727273,509,1,86,_Guitar,6,2,_Guitar,0.3459489643573761,0
63,100,0.21818181818181817,550,0,86,_Guitar,6,3,_Guitar,0.2929805815219879,0
58,100,0.13636363636363635,876,1,86,_Guitar,6,2,_Guitar,0.3071390986442566,0
55,100,0.17727272727272728,119,1,87,_Guitar,6,3,_Guitar,0.9998267292976379,1
55,100,0.17727272727272728,184,0,87,_Guitar,6,3,_Guitar,0.41414201259613037,0
58,100,0.18181818181818182,399,0,87,_Guitar,6,3,_Guitar,0.4232569932937622,0
58,100,0.5,66,1,88,_Guitar,6,8,_Guitar,0.9997829794883728,1
62,100,0.21818181818181817,176,0,88,_Guitar,6,3,_Guitar,0.1393272876739502,0
58,100,0.2772727272727273,237,0,88,_Guitar,6,4,_Guitar,0.11957582831382751,0
58,100,0.1590909090909091,409,0,88,_Guitar,6,3,_Guitar,0.14291077852249146,0
55,100,0.12272727272727273,475,0,88,_Guitar,6,2,_Guitar,0.15770842134952545,0
58,100,0.2,650,0,88,_Guitar,6,3,_Guitar,0.13474586606025696,0
58,100,0.13636363636363635,106,1,89,_Guitar,6,2,_Guitar,0.99273681640625,0
52,100,0.4818181818181818,730,1,0,DL_Guitar,6,8,DL_Guitar,0.9926397800445557,0
52,100,0.21818181818181817,105,1,1,DL_Guitar,6,3,DL_Guitar,0.9997097849845886,1
67,100,0.1409090909090909,175,0,1,DL_Guitar,6,2,DL_Guitar,0.042393460869789124,0
62,100,0.1409090909090909,276,0,1,DL_Guitar,6,2,DL_Guitar,0.033150337636470795,0
52,100,0.2590909090909091,348,0,1,DL_Guitar,6,4,DL_Guitar,0.030538499355316162,0
67,100,0.5181818181818182,414,0,1,DL_Guitar,6,8,DL_Guitar,0.02859128825366497,0
69,100,0.2636363636363636,597,0,1,DL_Guitar,6,4,DL_Guitar,0.03509899601340294,0
69,100,0.18181818181818182,686,0,1,DL_Guitar,6,3,DL_Guitar,0.0424814373254776,0
52,100,0.11818181818181818,744,0,1,DL_Guitar,6,2,DL_Guitar,0.05147261545062065,0
59,100,0.32272727272727275,849,0,1,DL_Guitar,6,5,DL_Guitar,0.043641310185194016,0
69,100,0.1409090909090909,185,1,2,DL_Guitar,6,2,DL_Guitar,0.9997046589851379,1
59,100,0.3,229,0,2,DL_Guitar,6,5,DL_Guitar,0.04219016060233116,0
74,100,0.1,299,0,2,DL_Guitar,6,2,DL_Guitar,0.03451336920261383,0
57,100,0.2818181818181818,488,0,2,DL_Guitar,6,5,DL_Guitar,0.030146189033985138,0
67,100,0.1409090909090909,571,0,2,DL_Guitar,6,2,DL_Guitar,0.030003804713487625,0
69,100,0.37727272727272726,602,0,2,DL_Guitar,6,6,DL_Guitar,0.03381824120879173,0
55,100,0.11818181818181818,721,0,2,DL_Guitar,6,2,DL_Guitar,0.04411540925502777,0
67,100,0.2409090909090909,748,0,2,DL_Guitar,6,4,DL_Guitar,0.04784176126122475,0
67,100,0.1,831,0,2,DL_Guitar,6,2,DL_Guitar,0.04588779807090759,0
64,100,0.11818181818181818,373,1,3,DL_Guitar,6,2,DL_Guitar,0.9998188614845276,1
67,100,0.2818181818181818,443,0,3,DL_Guitar,6,5,DL_Guitar,0.12250661104917526,0
64,100,0.1,629,0,3,DL_Guitar,6,2,DL_Guitar,0.12711012363433838,0
52,100,0.1409090909090909,651,0,3,DL_Guitar,6,2,DL_Guitar,0.13612990081310272,0
67,100,0.5181818181818182,700,0,3,DL_Guitar,6,8,DL_Guitar,0.12793247401714325,0
69,100,0.5,831,0,3,DL_Guitar,6,8,DL_Guitar,0.12735991179943085,0
59,100,0.759090909090909,163,1,4,DL_Guitar,6,12,DL_Guitar,0.999812662601471,1
74,100,0.2,348,0,4,DL_Guitar,6,3,DL_Guitar,0.23463550209999084,0
69,100,0.1590909090909091,462,0,4,DL_Guitar,6,3,DL_Guitar,0.19992892444133759,0
59,100,0.3409090909090909,514,0,4,DL_Guitar,6,5,DL_Guitar,0.20725823938846588,0
62,100,0.11818181818181818,757,1,4,DL_Guitar,6,2,DL_Guitar,0.21436439454555511,0
62,100,0.3409090909090909,122,1,5,DL_Guitar,6,5,DL_Guitar,0.9998513460159302,1
55,100,0.3409090909090909,263,0,5,DL_Guitar,6,5,DL_Guitar,0.3090225160121918,0
55,100,0.3409090909090909,360,0,5,DL_Guitar,6,5,DL_Guitar,0.2958586812019348,0
55,100,0.4818181818181818,496,0,5,DL_Guitar,6,8,DL_Guitar,0.3144736588001251,0
56,100,0.35909090909090907,0,1,6,DL_Guitar,6,6,DL_Guitar,0.9998486042022705,1
56,100,0.12272727272727273,245,1,6,DL_Guitar,6,2,DL_Guitar,0.3441016376018524,0
52,100,0.18181818181818182,452,0,6,DL_Guitar,6,3,DL_Guitar,0.30108994245529175,0
57,100,0.759090909090909,651,0,6,DL_Guitar,6,12,DL_Guitar,0.28589487075805664,0
59,100,0.17727272727272728,470,1,7,DL_Guitar,6,3,DL_Guitar,0.9998321533203125,1
62,100,0.11818181818181818,603,0,7,DL_Guitar,6,2,DL_Guitar,0.4165410101413727,0
55,100,0.2,774,0,7,DL_Guitar,6,3,DL_Guitar,0.4213293194770813,0
64,100,0.1409090909090909,48,1,8,DL_Guitar,6,2,DL_Guitar,0.9998427629470825,1
60,100,0.2,79,0,8,DL_Guitar,6,3,DL_Guitar,0.4007984697818756,0
55,100,0.3181818181818182,405,1,8,DL_Guitar,6,5,DL_Guitar,0.4165462851524353,0
59,100,0.21818181818181817,747,1,9,DL_Guitar,6,3,DL_Guitar,0.9931437969207764,0
59,100,0.4590909090909091,185,1,10,DL_Guitar,6,7,DL_Guitar,0.9998328685760498,1
64,100,0.32272727272727275,378,0,10,DL_Guitar,6,5,DL_Guitar,0.21963229775428772,0
59,100,0.4,567,0,10,DL_Guitar,6,6,DL_Guitar,0.19122827053070068,0
59,100,0.5363636363636364,699,0,10,DL_Guitar,6,9,DL_Guitar,0.21187950670719147,0
67,100,0.11818181818181818,845,0,10,DL_Guitar,6,2,DL_Guitar,0.207977294921875,0
59,100,0.2409090909090909,13,1,11,DL_Guitar,6,4,DL_Guitar,0.9997662901878357,1
57,100,0.17727272727272728,414,1,11,DL_Guitar,6,3,DL_Guitar,0.080323226749897,0
57,100,0.12272727272727273,474,0,11,DL_Guitar,6,2,DL_Guitar,0.07296539843082428,0
67,100,0.11818181818181818,704,0,11,DL_Guitar,6,2,DL_Guitar,0.081922747194767,0
55,100,0.12272727272727273,730,0,11,DL_Guitar,6,2,DL_Guitar,0.08826921880245209,0
67,100,0.3,756,0,11,DL_Guitar,6,5,DL_Guitar,0.09872879087924957,0
59,100,0.1409090909090909,871,0,11,DL_Guitar,6,2,DL_Guitar,0.09005765616893768,0
59,100,0.22272727272727272,25,1,12,DL_Guitar,6,4,DL_Guitar,0.9998334646224976,1
55,100,0.2409090909090909,92,0,12,DL_Guitar,6,4,DL_Guitar,0.2037409394979477,0
55,100,0.2409090909090909,163,0,12,DL_Guitar,6,4,DL_Guitar,0.19746093451976776,0
60,100,0.1,682,1,12,DL_Guitar,6,2,DL_Guitar,0.22152294218540192,0
55,100,0.2818181818181818,795,0,12,DL_Guitar,6,5,DL_Guitar,0.19700691103935242,0
55,100,0.16363636363636364,3,1,13,DL_Guitar,6,3,DL_Guitar,0.9998264908790588,1
60,100,0.1,202,0,13,DL_Guitar,6,2,DL_Guitar,0.4229991137981415,0
55,100,0.1,391,0,13,DL_Guitar,6,2,DL_Guitar,0.42048266530036926,0
55,100,0.2590909090909091,194,1,14,DL_Guitar,6,4,DL_Guitar,0.9998251795768738,1
57,100,0.2409090909090909,409,0,14,DL_Guitar,6,4,DL_Guitar,0.41166365146636963,0
62,100,0.37727272727272726,809,1,14,DL_Guitar,6,6,DL_Guitar,0.4276536703109741,0
55,100,0.21818181818181817,220,1,15,DL_Guitar,6,3,DL_Guitar,0.9929053783416748,0
62,100,0.23636363636363636,281,1,16,DL_Guitar,6,4,DL_Guitar,0.999839186668396,1
56,100,0.17727272727272728,492,0,16,DL_Guitar,6,3,DL_Guitar,0.21322570741176605,0
55,100,0.2590909090909091,550,0,16,DL_Guitar,6,4,DL_Guitar,0.19630460441112518,0
55,100,0.21818181818181817,611,0,16,DL_Guitar,6,3,DL_Guitar,0.20444466173648834,0
55,100,0.5636363636363636,796,0,16,DL_Guitar,6,9,DL_Guitar,0.2011977732181549,0
52,100,0.22272727272727272,48,1,17,DL_Guitar,6,4,DL_Guitar,0.9998160004615784,1
52,100,0.1409090909090909,246,0,17,DL_Guitar,6,2,DL_Guitar,0.12823258340358734,0
57,100,0.1,430,0,17,DL_Guitar,6,2,DL_Guitar,0.11895712465047836,0
81,100,0.1590909090909091,515,0,17,DL_Guitar,6,3,DL_Guitar,0.13230031728744507,0
57,100,0.22272727272727272,729,0,17,DL_Guitar,6,4,DL_Guitar,0.14256709814071655,0
57,100,0.5181818181818182,814,0,17,DL_Guitar,6,8,DL_Guitar,0.1241624504327774,0
62,100,0.1590909090909091,409,1,19,DL_Guitar,6,3,DL_Guitar,0.9998350143432617,1
59,100,0.5181818181818182,602,0,19,DL_Guitar,6,8,DL_Guitar,0.3882348835468292,0
62,100,0.21818181818181817,858,1,19,DL_Guitar,6,3,DL_Guitar,0.43940478563308716,0
59,100,0.2409090909090909,48,1,20,DL_Guitar,6,4,DL_Guitar,0.9998043179512024,1
62,100,0.5409090909090909,229,0,20,DL_Guitar,6,9,DL_Guitar,0.12510927021503448,0
62,100,0.11818181818181818,370,0,20,DL_Guitar,6,2,DL_Guitar,0.12917682528495789,0
62,100,0.11818181818181818,436,0,20,DL_Guitar,6,2,DL_Guitar,0.13873443007469177,0
62,100,0.22272727272727272,739,1,20,DL_Guitar,6,4,DL_Guitar,0.1464056670665741,0
62,100,0.7227272727272728,870,0,20,DL_Guitar,6,12,DL_Guitar,0.1263984739780426,0
57,100,0.11818181818181818,150,1,21,DL_Guitar,6,2,DL_Guitar,0.9998539686203003,1
62,100,0.11818181818181818,175,0,21,DL_Guitar,6,2,DL_Guitar,0.3322254717350006,0
62,100,0.2,501,1,21,DL_Guitar,6,3,DL_Guitar,0.28724315762519836,0
62,100,0.13636363636363635,567,0,21,DL_Guitar,6,2,DL_Guitar,0.3036336898803711,0
60,100,0.1590909090909091,237,1,22,DL_Guitar,6,3,DL_Guitar,0.9998635053634644,1
60,100,0.12272727272727273,312,0,22,DL_Guitar,6,2,DL_Guitar,0.3188042640686035,0
60,100,0.3409090909090909,443,0,22,DL_Guitar,6,5,DL_Guitar,0.28629231452941895,0
55,100,0.1590909090909091,646,0,22,DL_Guitar,6,3,DL_Guitar,0.2933289706707001,0
59,100,0.12272727272727273,158,1,23,DL_Guitar,6,2,DL_Guitar,0.9997041821479797,1
59,100,0.4590909090909091,250,0,23,DL_Guitar,6,7,DL_Guitar,0.04165302589535713,0
59,100,0.1409090909090909,430,0,23,DL_Guitar,6,2,DL_Guitar,0.03449462726712227,0
59,100,0.17727272727272728,492,0,23,DL_Guitar,6,3,DL_Guitar,0.030536478385329247,0
59,100,0.2590909090909091,571,0,23,DL_Guitar,6,4,DL_Guitar,0.029331108555197716,0
59,100,0.2,633,0,23,DL_Guitar,6,3,DL_Guitar,0.03525553271174431,0
59,100,0.5,681,0,23,DL_Guitar,6,8,DL_Guitar,0.04035891965031624,0
59,100,0.1409090909090909,801,0,23,DL_Guitar,6,2,DL_Guitar,0.0495133213698864,0
59,100,0.2,862,0,23,DL_Guitar,6,3,DL_Guitar,0.04789496958255768,0
64,100,0.1590909090909091,44,1,24,DL_Guitar,6,3,DL_Guitar,0.9998088479042053,1
59,100,0.8363636363636363,127,0,24,DL_Guitar,6,13,DL_Guitar,0.10854949057102203,0
52,100,0.3,320,0,24,DL_Guitar,6,5,DL_Guitar,0.13807158172130585,0
59,100,0.17727272727272728,413,0,24,DL_Guitar,6,3,DL_Guitar,0.13786737620830536,0
59,100,0.9,567,0,24,DL_Guitar,6,14,DL_Guitar,0.13346955180168152,0
59,100,0.3409090909090909,801,1,24,DL_Guitar,6,5,DL_Guitar,0.14695975184440613,0
59,100,0.2,281,1,25,DL_Guitar,6,3,DL_Guitar,0.9998019337654114,1
59,100,0.17727272727272728,413,0,25,DL_Guitar,6,3,DL_Guitar,0.1281728595495224,0
62,100,0.2590909090909091,567,0,25,DL_Guitar,6,4,DL_Guitar,0.12102540582418442,0
59,100,0.5772727272727273,625,0,25,DL_Guitar,6,9,DL_Guitar,0.13149435818195343,0
62,100,0.3,756,0,25,DL_Guitar,6,5,DL_Guitar,0.1495450735092163,0
59,100,0.16363636363636364,862,0,25,DL_Guitar,6,3,DL_Guitar,0.13415183126926422,0
60,100,0.2409090909090909,387,1,26,DL_Guitar,6,4,DL_Guitar,0.9998432397842407,1
60,100,0.4,480,0,26,DL_Guitar,6,6,DL_Guitar,0.2065577208995819,0
55,100,0.22272727272727272,584,0,26,DL_Guitar,6,4,DL_Guitar,0.1934654414653778,0
60,100,0.1590909090909091,760,0,26,DL_Guitar,6,3,DL_Guitar,0.21411168575286865,0
60,100,0.2,839,0,26,DL_Guitar,6,3,DL_Guitar,0.19633106887340546,0
60,100,0.740909090909091,57,1,27,DL_Guitar,6,12,DL_Guitar,0.9998145699501038,1
55,100,0.11818181818181818,250,0,27,DL_Guitar,6,2,DL_Guitar,0.23441074788570404,0
60,100,0.1590909090909091,285,0,27,DL_Guitar,6,3,DL_Guitar,0.2035861760377884,0
57,100,0.1590909090909091,735,1,27,DL_Guitar,6,3,DL_Guitar,0.2112780660390854,0
57,100,0.35909090909090907,835,0,27,DL_Guitar,6,6,DL_Guitar,0.20170938968658447,0
62,100,0.2409090909090909,44,1,28,DL_Guitar,6,4,DL_Guitar,0.9998359680175781,1
62,100,0.4409090909090909,131,0,28,DL_Guitar,6,7,DL_Guitar,0.20446550846099854,0
57,100,0.5590909090909091,360,0,28,DL_Guitar,6,9,DL_Guitar,0.1946805864572525,0
57,100,0.17727272727272728,515,0,28,DL_Guitar,6,3,DL_Guitar,0.22665327787399292,0
62,100,0.740909090909091,725,0,28,DL_Guitar,6,12,DL_Guitar,0.20586693286895752,0
62,100,0.11818181818181818,40,1,29,DL_Guitar,6,2,DL_Guitar,0.9997289776802063,1
59,100,0.17727272727272728,75,0,29,DL_Guitar,6,3,DL_Guitar,0.0559571273624897,0
62,100,0.42272727272727273,202,0,29,DL_Guitar,6,7,DL_Guitar,0.04746043682098389,0
55,100,0.5409090909090909,382,0,29,DL_Guitar,6,9,DL_Guitar,0.04823498800396919,0
59,100,0.11818181818181818,523,0,29,DL_Guitar,6,2,DL_Guitar,0.05747731402516365,0
62,100,0.23636363636363636,567,0,29,DL_Guitar,6,4,DL_Guitar,0.06281081587076187,0
62,100,0.3409090909090909,629,0,29,DL_Guitar,6,5,DL_Guitar,0.06957433372735977,0
57,100,0.6181818181818182,756,0,29,DL_Guitar,6,10,DL_Guitar,0.06194175407290459,0
57,100,0.5590909090909091,144,1,30,DL_Guitar,6,9,DL_Guitar,0.9998354911804199,1
57,100,0.37727272727272726,339,0,30,DL_Guitar,6,6,DL_Guitar,0.32657748460769653,0
62,100,0.2409090909090909,422,0,30,DL_Guitar,6,4,DL_Guitar,0.30909520387649536,0
57,100,0.6181818181818182,660,1,30,DL_Guitar,6,10,DL_Guitar,0.3048383295536041,0
57,100,0.4636363636363636,48,1,31,DL_Guitar,6,7,DL_Guitar,0.9997891783714294,1
57,100,0.2409090909090909,223,0,31,DL_Guitar,6,4,DL_Guitar,0.1353272795677185,0
57,100,0.6409090909090909,285,0,31,DL_Guitar,6,10,DL_Guitar,0.11433549970388412,0
57,100,0.3,474,0,31,DL_Guitar,6,5,DL_Guitar,0.14456748962402344,0
57,100,0.12272727272727273,629,0,31,DL_Guitar,6,2,DL_Guitar,0.1572035700082779,0
57,100,0.5181818181818182,810,0,31,DL_Guitar,6,8,DL_Guitar,0.1357097029685974,0
57,100,0.1409090909090909,48,1,32,DL_Guitar,6,2,DL_Guitar,0.9997290968894958,1
57,100,0.2,114,0,32,DL_Guitar,6,3,DL_Guitar,0.05430883169174194,0
59,100,0.22272727272727272,246,0,32,DL_Guitar,6,4,DL_Guitar,0.047201115638017654,0
59,100,0.11818181818181818,316,0,32,DL_Guitar,6,2,DL_Guitar,0.04824409633874893,0
59,100,0.3,361,0,32,DL_Guitar,6,5,DL_Guitar,0.050871312618255615,0
62,100,0.11818181818181818,590,0,32,DL_Guitar,6,2,DL_Guitar,0.06369585543870926,0
57,100,0.18181818181818182,641,0,32,DL_Guitar,6,3,DL_Guitar,0.06493651121854782,0
55,100,0.21818181818181817,691,0,32,DL_Guitar,6,3,DL_Guitar,0.06172638759016991,0
55,100,0.1409090909090909,21,1,33,DL_Guitar,6,2,DL_Guitar,0.9998025298118591,1
59,100,0.11818181818181818,131,0,33,DL_Guitar,6,2,DL_Guitar,0.12963414192199707,0
57,100,0.3,241,0,33,DL_Guitar,6,5,DL_Guitar,0.11839848011732101,0
60,100,0.35909090909090907,581,1,33,DL_Guitar,6,6,DL_Guitar,0.13696704804897308,0
60,100,0.2636363636363636,708,0,33,DL_Guitar,6,4,DL_Guitar,0.14810332655906677,0
59,100,0.2,778,0,33,DL_Guitar,6,3,DL_Guitar,0.12952539324760437,0
65,100,0.11818181818181818,435,1,34,DL_Guitar,6,2,DL_Guitar,0.9934386610984802,0
62,100,0.2772727272727273,31,1,35,DL_Guitar,6,4,DL_Guitar,0.999836802482605,1
52,100,0.38181818181818183,110,0,35,DL_Guitar,6,6,DL_Guitar,0.2176801562309265,0
52,100,0.21818181818181817,251,0,35,DL_Guitar,6,3,DL_Guitar,0.2094988226890564,0
59,100,0.6409090909090909,466,0,35,DL_Guitar,6,10,DL_Guitar,0.20105908811092377,0
57,100,1.059090909090909,628,0,35,DL_Guitar,6,15,DL_Guitar,0.1956595778465271,0
52,100,0.2409090909090909,4,1,36,DL_Guitar,6,4,DL_Guitar,0.9998193383216858,1
57,100,0.9818181818181818,110,0,36,DL_Guitar,6,15,DL_Guitar,0.37657779455184937,0
59,100,0.5,761,1,36,DL_Guitar,6,8,DL_Guitar,0.45535480976104736,0
67,100,0.2590909090909091,13,1,37,DL_Guitar,6,4,DL_Guitar,0.9997598528862,1
55,100,0.22272727272727272,78,0,37,DL_Guitar,6,4,DL_Guitar,0.08090117573738098,0
62,100,0.2,131,0,37,DL_Guitar,6,3,DL_Guitar,0.07418599724769592,0
64,100,0.38181818181818183,179,0,37,DL_Guitar,6,6,DL_Guitar,0.07985950261354446,0
64,100,0.35909090909090907,435,1,37,DL_Guitar,6,6,DL_Guitar,0.09037628024816513,0
67,100,0.1,531,0,37,DL_Guitar,6,2,DL_Guitar,0.09457406401634216,0
55,100,0.21818181818181817,655,0,37,DL_Guitar,6,3,DL_Guitar,0.08693847805261612,0
71,100,0.37727272727272726,53,1,38,DL_Guitar,6,6,DL_Guitar,0.9997116923332214,1
55,100,0.11818181818181818,150,0,38,DL_Guitar,6,2,DL_Guitar,0.05848974734544754,0
62,100,0.18181818181818182,220,0,38,DL_Guitar,6,3,DL_Guitar,0.048671904951334,0
69,100,0.17727272727272728,281,0,38,DL_Guitar,6,3,DL_Guitar,0.047353051602840424,0
71,100,0.18181818181818182,334,0,38,DL_Guitar,6,3,DL_Guitar,0.05466483160853386,0
74,100,0.3,396,0,38,DL_Guitar,6,5,DL_Guitar,0.06022057682275772,0
69,100,0.22272727272727272,563,0,38,DL_Guitar,6,4,DL_Guitar,0.06541382521390915,0
69,100,0.18181818181818182,616,0,38,DL_Guitar,6,3,DL_Guitar,0.06414550542831421,0
62,100,0.2,131,1,39,DL_Guitar,6,3,DL_Guitar,0.9997698664665222,1
67,100,0.2,303,0,39,DL_Guitar,6,3,DL_Guitar,0.07682488113641739,0
55,100,0.3181818181818182,348,0,39,DL_Guitar,6,5,DL_Guitar,0.07371778786182404,0
62,100,0.1590909090909091,435,0,39,DL_Guitar,6,3,DL_Guitar,0.08530658483505249,0
64,100,0.35909090909090907,474,0,39,DL_Guitar,6,6,DL_Guitar,0.08966875821352005,0
67,100,0.21818181818181817,558,0,39,DL_Guitar,6,3,DL_Guitar,0.09641216695308685,0
64,100,0.3,738,0,39,DL_Guitar,6,5,DL_Guitar,0.09227203577756882,0
64,100,0.2,88,1,40,DL_Guitar,6,3,DL_Guitar,0.9997722506523132,1
64,100,0.16363636363636364,136,0,40,DL_Guitar,6,3,DL_Guitar,0.08021335303783417,0
55,100,0.1,201,0,40,DL_Guitar,6,2,DL_Guitar,0.07326395809650421,0
69,100,0.2590909090909091,563,1,40,DL_Guitar,6,4,DL_Guitar,0.0754568874835968,0
59,100,0.1409090909090909,646,0,40,DL_Guitar,6,2,DL_Guitar,0.0953928604722023,0
74,100,0.2818181818181818,694,0,40,DL_Guitar,6,5,DL_Guitar,0.09862073510885239,0
69,100,0.6181818181818182,858,0,40,DL_Guitar,6,10,DL_Guitar,0.08418656140565872,0
62,100,0.5590909090909091,321,1,41,DL_Guitar,6,9,DL_Guitar,0.9998438358306885,1
55,100,0.2,584,1,41,DL_Guitar,6,3,DL_Guitar,0.331866055727005,0
59,100,0.5590909090909091,713,0,41,DL_Guitar,6,9,DL_Guitar,0.2893713414669037,0
55,100,0.2,839,0,41,DL_Guitar,6,3,DL_Guitar,0.3137528896331787,0
55,100,0.2,101,1,42,DL_Guitar,6,3,DL_Guitar,0.999758780002594,1
55,100,0.1590909090909091,150,0,42,DL_Guitar,6,3,DL_Guitar,0.08233309537172318,0
55,100,0.3409090909090909,201,0,42,DL_Guitar,6,5,DL_Guitar,0.07514899224042892,0
59,100,0.6409090909090909,351,0,42,DL_Guitar,6,10,DL_Guitar,0.07946531474590302,0
55,100,0.2772727272727273,515,0,42,DL_Guitar,6,4,DL_Guitar,0.10125754028558731,0
57,100,1.1409090909090909,606,0,42,DL_Guitar,6,15,DL_Guitar,0.09483295679092407,0
64,100,1.1409090909090909,871,1,42,DL_Guitar,6,15,DL_Guitar,0.09831999242305756,0
57,100,0.1409090909090909,241,1,43,DL_Guitar,6,2,DL_Guitar,0.9998028874397278,1
81,100,0.3181818181818182,273,0,43,DL_Guitar,6,5,DL_Guitar,0.12289927154779434,0
57,100,0.3,413,0,43,DL_Guitar,6,5,DL_Guitar,0.12039104104042053,0
57,100,0.16363636363636364,509,0,43,DL_Guitar,6,3,DL_Guitar,0.14138562977313995,0
55,100,0.6,611,0,43,DL_Guitar,6,10,DL_Guitar,0.13083690404891968,0
60,100,0.1590909090909091,875,1,43,DL_Guitar,6,3,DL_Guitar,0.14677484333515167,0
60,100,0.5590909090909091,61,1,44,DL_Guitar,6,9,DL_Guitar,0.9998301267623901,1
60,100,0.16363636363636364,224,0,44,DL_Guitar,6,3,DL_Guitar,0.2236461639404297,0
62,100,0.33636363636363636,348,0,44,DL_Guitar,6,5,DL_Guitar,0.19072869420051575,0
60,100,0.5590909090909091,496,0,44,DL_Guitar,6,9,DL_Guitar,0.2081020623445511,0
74,100,0.35909090909090907,660,0,44,DL_Guitar,6,6,DL_Guitar,0.207680806517601,0
60,100,0.12272727272727273,69,1,51,DL_Guitar,6,2,DL_Guitar,0.993546187877655,1
62,100,0.1,361,1,52,DL_Guitar,6,2,DL_Guitar,0.9933725595474243,0
60,100,0.38181818181818183,311,1,53,DL_Guitar,6,6,DL_Guitar,0.9998199343681335,1
60,100,1.1409090909090909,471,0,53,DL_Guitar,6,15,DL_Guitar,0.3766306936740875,0
60,100,0.2,861,1,53,DL_Guitar,6,3,DL_Guitar,0.4661676585674286,0
60,100,0.4772727272727273,53,1,54,DL_Guitar,6,8,DL_Guitar,0.9998230338096619,1
59,100,0.16363636363636364,224,0,54,DL_Guitar,6,3,DL_Guitar,0.42427846789360046,0
59,100,0.11818181818181818,743,1,54,DL_Guitar,6,2,DL_Guitar,0.4275740087032318,0
62,100,0.2590909090909091,123,1,57,DL_Guitar,6,4,DL_Guitar,0.9932047128677368,0
59,100,0.2636363636363636,114,1,63,DL_Guitar,6,4,DL_Guitar,0.9996210336685181,1
58,100,0.13636363636363635,501,1,63,DL_Guitar,6,2,DL_Guitar,0.5460249185562134,0
59,100,0.1,360,1,65,DL_Guitar,6,2,DL_Guitar,0.9998389482498169,1
59,100,0.1,386,0,65,DL_Guitar,6,2,DL_Guitar,0.21276673674583435,0
59,100,0.2636363636363636,422,0,65,DL_Guitar,6,4,DL_Guitar,0.19215935468673706,0
59,100,0.4409090909090909,506,0,65,DL_Guitar,6,7,DL_Guitar,0.20809394121170044,0
59,100,0.5409090909090909,624,0,65,DL_Guitar,6,9,DL_Guitar,0.20507468283176422,0
57,100,0.41818181818181815,9,1,66,DL_Guitar,6,7,DL_Guitar,0.9925507307052612,0
59,100,0.2409090909090909,443,1,77,DL_Guitar,6,4,DL_Guitar,0.9996346235275269,1
57,100,0.23636363636363636,700,1,77,DL_Guitar,6,4,DL_Guitar,0.5423251986503601,0
57,100,0.2409090909090909,0,1,78,DL_Guitar,6,4,DL_Guitar,0.9998286962509155,1
57,100,0.1,83,0,78,DL_Guitar,6,2,DL_Guitar,0.20998239517211914,0
57,100,0.22272727272727272,145,0,78,DL_Guitar,6,4,DL_Guitar,0.1954890340566635,0
57,100,0.11818181818181818,294,0,78,DL_Guitar,6,2,DL_Guitar,0.21039874851703644,0
59,100,0.1,360,0,78,DL_Guitar,6,2,DL_Guitar,0.2043563425540924,0
62,100,0.2818181818181818,0,1,94,DL_Guitar,6,5,DL_Guitar,0.9996813535690308,1
62,100,0.11818181818181818,110,0,94,DL_Guitar,6,2,DL_Guitar,0.03684638440608978,0
62,100,0.1409090909090909,229,0,94,DL_Guitar,6,2,DL_Guitar,0.026147060096263885,0
64,100,0.35909090909090907,260,0,94,DL_Guitar,6,6,DL_Guitar,0.020966237410902977,0
55,100,0.17727272727272728,347,0,94,DL_Guitar,6,3,DL_Guitar,0.019491950049996376,0
62,100,0.21818181818181817,413,0,94,DL_Guitar,6,3,DL_Guitar,0.020590025931596756,0
62,100,0.13636363636363635,480,0,94,DL_Guitar,6,2,DL_Guitar,0.024078452959656715,0
64,100,0.3409090909090909,514,0,94,DL_Guitar,6,5,DL_Guitar,0.029249925166368484,0
67,100,0.5590909090909091,590,0,94,DL_Guitar,6,9,DL_Guitar,0.03574788197875023,0
66,100,0.13636363636363635,876,1,94,DL_Guitar,6,2,DL_Guitar,0.04112599045038223,0
71,100,0.3,47,1,95,DL_Guitar,6,5,DL_Guitar,0.9997538924217224,1
71,100,0.3,150,0,95,DL_Guitar,6,5,DL_Guitar,0.08397625386714935,0
66,100,0.2,233,0,95,DL_Guitar,6,3,DL_Guitar,0.07671552151441574,0
62,100,0.1,307,0,95,DL_Guitar,6,2,DL_Guitar,0.08231432735919952,0
71,100,0.17727272727272728,413,0,95,DL_Guitar,6,3,DL_Guitar,0.09443957358598709,0
69,100,0.22272727272727272,805,1,95,DL_Guitar,6,4,DL_Guitar,0.10031590610742569,0
67,100,1.259090909090909,876,0,95,DL_Guitar,6,15,DL_Guitar,0.08246166259050369,0
62,100,0.12272727272727273,365,1,96,DL_Guitar,6,2,DL_Guitar,0.9997782111167908,1
64,100,0.13636363636363635,392,0,96,DL_Guitar,6,2,DL_Guitar,0.07925555109977722,0
62,100,0.1409090909090909,506,0,96,DL_Guitar,6,2,DL_Guitar,0.07352600991725922,0
64,100,0.38181818181818183,540,0,96,DL_Guitar,6,6,DL_Guitar,0.07788462936878204,0
62,100,0.11818181818181818,726,0,96,DL_Guitar,6,2,DL_Guitar,0.08809399604797363,0
62,100,0.17727272727272728,756,0,96,DL_Guitar,6,3,DL_Guitar,0.09444103389978409,0
64,100,0.3409090909090909,796,0,96,DL_Guitar,6,5,DL_Guitar,0.08424051105976105,0
67,100,0.5818181818181818,0,1,97,DL_Guitar,6,9,DL_Guitar,0.9997773766517639,1
69,100,0.21818181818181817,132,0,97,DL_Guitar,6,3,DL_Guitar,0.14097246527671814,0
71,100,0.8,330,0,97,DL_Guitar,6,13,DL_Guitar,0.119047611951828,0
66,100,0.1,536,0,97,DL_Guitar,6,2,DL_Guitar,0.15105678141117096,0
62,100,0.2590909090909091,567,0,97,DL_Guitar,6,4,DL_Guitar,0.14864206314086914,0
69,100,0.1409090909090909,650,0,97,DL_Guitar,6,2,DL_Guitar,0.13834144175052643,0
69,100,0.18181818181818182,233,1,98,DL_Guitar,6,3,DL_Guitar,0.9996182918548584,1
67,100,0.12272727272727273,399,0,98,DL_Guitar,6,2,DL_Guitar,0.551184356212616,0
70,100,0.11818181818181818,304,1,1,_Remix_Guitar,6,2,_Remix_Guitar,0.9998149275779724,1
58,100,0.2818181818181818,421,0,1,_Remix_Guitar,6,5,_Remix_Guitar,0.4110943377017975,0
63,100,0.1590909090909091,673,1,1,_Remix_Guitar,6,3,_Remix_Guitar,0.44204461574554443,0
70,100,0.1409090909090909,12,1,2,_Remix_Guitar,6,2,_Remix_Guitar,0.9997864365577698,1
58,100,0.2590909090909091,57,0,2,_Remix_Guitar,6,4,_Remix_Guitar,0.12517990171909332,0
63,100,0.18181818181818182,443,1,2,_Remix_Guitar,6,3,_Remix_Guitar,0.13574101030826569,0
63,100,0.3409090909090909,488,0,2,_Remix_Guitar,6,5,_Remix_Guitar,0.13962233066558838,0
58,100,0.2772727272727273,568,0,2,_Remix_Guitar,6,4,_Remix_Guitar,0.14472241699695587,0
62,100,0.1409090909090909,845,1,2,_Remix_Guitar,6,2,_Remix_Guitar,0.14636272192001343,0
58,100,0.23636363636363636,216,1,3,_Remix_Guitar,6,4,_Remix_Guitar,0.9995778203010559,1
63,100,0.21818181818181817,461,1,3,_Remix_Guitar,6,3,_Remix_Guitar,0.562155544757843,0
63,100,0.22272727272727272,114,1,4,_Remix_Guitar,6,4,_Remix_Guitar,0.9998310804367065,1
63,100,0.41818181818181815,184,0,4,_Remix_Guitar,6,7,_Remix_Guitar,0.20713479816913605,0
58,100,0.2590909090909091,348,0,4,_Remix_Guitar,6,4,_Remix_Guitar,0.19706077873706818,0
63,100,0.5409090909090909,629,1,4,_Remix_Guitar,6,9,_Remix_Guitar,0.21676842868328094,0
63,100,0.2818181818181818,862,1,4,_Remix_Guitar,6,5,_Remix_Guitar,0.2255352884531021,0
58,100,0.18181818181818182,409,1,5,_Remix_Guitar,6,3,_Remix_Guitar,0.9995986819267273,1
63,100,0.2590909090909091,867,1,5,_Remix_Guitar,6,4,_Remix_Guitar,0.5538036227226257,0
56,100,0.38181818181818183,201,1,6,_Remix_Guitar,6,6,_Remix_Guitar,0.9998196959495544,1
63,100,0.7181818181818181,396,0,6,_Remix_Guitar,6,11,_Remix_Guitar,0.3903498947620392,0
70,100,0.22272727272727272,739,1,6,_Remix_Guitar,6,4,_Remix_Guitar,0.44826868176460266,0
63,100,0.1409090909090909,8,1,7,_Remix_Guitar,6,2,_Remix_Guitar,0.9998273253440857,1
63,100,0.1,220,0,7,_Remix_Guitar,6,2,_Remix_Guitar,0.4134397506713867,0
62,100,0.1,629,1,7,_Remix_Guitar,6,2,_Remix_Guitar,0.4349903464317322,0
63,100,0.2636363636363636,422,1,8,_Remix_Guitar,6,4,_Remix_Guitar,0.9998223185539246,1
56,100,0.35909090909090907,505,0,8,_Remix_Guitar,6,6,_Remix_Guitar,0.42125561833381653,0
63,100,0.2772727272727273,744,1,8,_Remix_Guitar,6,4,_Remix_Guitar,0.43044528365135193,0
63,100,0.13636363636363635,17,1,9,_Remix_Guitar,6,2,_Remix_Guitar,0.999627947807312,1
63,100,0.38181818181818183,637,1,9,_Remix_Guitar,6,6,_Remix_Guitar,0.5471556186676025,0
63,100,0.23636363636363636,39,1,10,_Remix_Guitar,6,4,_Remix_Guitar,0.9998304843902588,1
58,100,0.1,211,0,10,_Remix_Guitar,6,2,_Remix_Guitar,0.20795486867427826,0
58,100,0.32272727272727275,584,1,10,_Remix_Guitar,6,5,_Remix_Guitar,0.20715542137622833,0
58,100,0.22272727272727272,716,0,10,_Remix_Guitar,6,4,_Remix_Guitar,0.22029002010822296,0
56,100,0.4772727272727273,787,0,10,_Remix_Guitar,6,8,_Remix_Guitar,0.21555054187774658,0
56,100,0.1590909090909091,30,1,11,_Remix_Guitar,6,3,_Remix_Guitar,0.9998072981834412,1
58,100,0.2590909090909091,343,1,11,_Remix_Guitar,6,4,_Remix_Guitar,0.11843402683734894,0
63,100,0.1,642,1,11,_Remix_Guitar,6,2,_Remix_Guitar,0.13213485479354858,0
58,100,0.18181818181818182,739,0,11,_Remix_Guitar,6,3,_Remix_Guitar,0.1347576081752777,0
58,100,0.1,795,0,11,_Remix_Guitar,6,2,_Remix_Guitar,0.14842230081558228,0
58,100,0.2772727272727273,854,0,11,_Remix_Guitar,6,4,_Remix_Guitar,0.13516755402088165,0
58,100,0.21818181818181817,493,1,12,_Remix_Guitar,6,3,_Remix_Guitar,0.9995923638343811,1
55,100,0.5181818181818182,756,1,12,_Remix_Guitar,6,8,_Remix_Guitar,0.5524606108665466,0
55,100,0.18181818181818182,65,1,13,_Remix_Guitar,6,3,_Remix_Guitar,0.9998019337654114,1
56,100,0.11818181818181818,316,1,13,_Remix_Guitar,6,2,_Remix_Guitar,0.13238784670829773,0
56,100,0.6,369,0,13,_Remix_Guitar,6,10,_Remix_Guitar,0.11889665573835373,0
58,100,0.2590909090909091,634,1,13,_Remix_Guitar,6,4,_Remix_Guitar,0.13798964023590088,0
58,100,0.1,694,0,13,_Remix_Guitar,6,2,_Remix_Guitar,0.15008379518985748,0
58,100,0.22272727272727272,840,0,13,_Remix_Guitar,6,4,_Remix_Guitar,0.1364225298166275,0
63,100,0.5409090909090909,13,1,14,_Remix_Guitar,6,9,_Remix_Guitar,0.9997891783714294,1
58,100,0.3,140,0,14,_Remix_Guitar,6,5,_Remix_Guitar,0.13377128541469574,0
58,100,0.32272727272727275,268,0,14,_Remix_Guitar,6,5,_Remix_Guitar,0.13012346625328064,0
62,100,0.2,603,1,14,_Remix_Guitar,6,3,_Remix_Guitar,0.15896940231323242,0
58,100,0.1409090909090909,730,0,14,_Remix_Guitar,6,2,_Remix_Guitar,0.14569807052612305,0
58,100,0.2772727272727273,778,0,14,_Remix_Guitar,6,4,_Remix_Guitar,0.14455290138721466,0
63,100,0.1590909090909091,383,1,15,_Remix_Guitar,6,3,_Remix_Guitar,0.999817430973053,1
56,100,0.12272727272727273,474,0,15,_Remix_Guitar,6,2,_Remix_Guitar,0.42282354831695557,0
58,100,0.1,795,1,15,_Remix_Guitar,6,2,_Remix_Guitar,0.4297139346599579,0
58,100,0.2590909090909091,40,1,16,_Remix_Guitar,6,4,_Remix_Guitar,0.9998236298561096,1
55,100,0.4818181818181818,223,0,16,_Remix_Guitar,6,8,_Remix_Guitar,0.34244275093078613,0
65,100,0.8181818181818182,351,0,16,_Remix_Guitar,6,13,_Remix_Guitar,0.29355132579803467,0
58,100,0.2,567,0,16,_Remix_Guitar,6,3,_Remix_Guitar,0.3304647207260132,0
53,100,0.2,391,1,17,_Remix_Guitar,6,3,_Remix_Guitar,0.9998557567596436,1
53,100,0.3,440,0,17,_Remix_Guitar,6,5,_Remix_Guitar,0.3246491849422455,0
56,100,0.2,656,0,17,_Remix_Guitar,6,3,_Remix_Guitar,0.2959681749343872,0
58,100,0.17727272727272728,712,0,17,_Remix_Guitar,6,3,_Remix_Guitar,0.29763370752334595,0
58,100,0.1590909090909091,52,1,18,_Remix_Guitar,6,3,_Remix_Guitar,0.9997873902320862,1
60,100,0.2409090909090909,96,0,18,_Remix_Guitar,6,4,_Remix_Guitar,0.1431732177734375,0
58,100,0.8,154,0,18,_Remix_Guitar,6,13,_Remix_Guitar,0.1105981096625328,0
58,100,0.2590909090909091,339,0,18,_Remix_Guitar,6,4,_Remix_Guitar,0.15402594208717346,0
58,100,0.2,729,1,18,_Remix_Guitar,6,3,_Remix_Guitar,0.1600908786058426,0
63,100,0.12272727272727273,827,0,18,_Remix_Guitar,6,2,_Remix_Guitar,0.14529037475585938,0
63,100,0.2,550,1,19,_Remix_Guitar,6,3,_Remix_Guitar,0.999650239944458,1
60,100,0.11818181818181818,779,0,19,_Remix_Guitar,6,2,_Remix_Guitar,0.5522857308387756,0
63,100,0.2,343,1,20,_Remix_Guitar,6,3,_Remix_Guitar,0.9930334091186523,0
53,100,0.2409090909090909,144,1,21,_Remix_Guitar,6,4,_Remix_Guitar,0.9933843016624451,0
56,100,0.1,351,1,22,_Remix_Guitar,6,2,_Remix_Guitar,0.9996433258056641,1
53,100,0.1409090909090909,822,1,22,_Remix_Guitar,6,2,_Remix_Guitar,0.5518543124198914,0
65,100,0.11818181818181818,9,1,23,_Remix_Guitar,6,2,_Remix_Guitar,0.999840259552002,1
53,100,0.1,34,0,23,_Remix_Guitar,6,2,_Remix_Guitar,0.2044258415699005,0
65,100,0.37727272727272726,140,0,23,_Remix_Guitar,6,6,_Remix_Guitar,0.1875942200422287,0
65,100,0.2409090909090909,312,0,23,_Remix_Guitar,6,4,_Remix_Guitar,0.20870022475719452,0
65,100,0.2,426,0,23,_Remix_Guitar,6,3,_Remix_Guitar,0.20394738018512726,0
63,100,0.3181818181818182,0,1,24,_Remix_Guitar,6,5,_Remix_Guitar,0.999842643737793,1
55,100,0.12272727272727273,79,0,24,_Remix_Guitar,6,2,_Remix_Guitar,0.3327501118183136,0
63,100,0.1409090909090909,461,1,24,_Remix_Guitar,6,2,_Remix_Guitar,0.29315444827079773,0
60,100,0.1,602,0,24,_Remix_Guitar,6,2,_Remix_Guitar,0.3146600127220154,0
62,100,0.11818181818181818,171,1,25,_Remix_Guitar,6,2,_Remix_Guitar,0.9996438026428223,1
53,100,0.17727272727272728,250,0,25,_Remix_Guitar,6,3,_Remix_Guitar,0.5499179363250732,0
63,100,0.16363636363636364,69,1,26,_Remix_Guitar,6,3,_Remix_Guitar,0.9996938705444336,1
63,100,0.2590909090909091,140,0,26,_Remix_Guitar,6,4,_Remix_Guitar,0.042809538543224335,0
60,100,0.3,223,0,26,_Remix_Guitar,6,5,_Remix_Guitar,0.0349419042468071,0
55,100,0.21818181818181817,360,0,26,_Remix_Guitar,6,3,_Remix_Guitar,0.029404141008853912,0
53,100,0.1409090909090909,509,0,26,_Remix_Guitar,6,2,_Remix_Guitar,0.03235107287764549,0
53,100,0.12272727272727273,553,0,26,_Remix_Guitar,6,2,_Remix_Guitar,0.03329005092382431,0
63,100,0.4818181818181818,663,0,26,_Remix_Guitar,6,8,_Remix_Guitar,0.03865194693207741,0
63,100,0.1409090909090909,818,0,26,_Remix_Guitar,6,2,_Remix_Guitar,0.05098883435130119,0
63,100,0.1,853,0,26,_Remix_Guitar,6,2,_Remix_Guitar,0.0479695163667202,0
63,100,0.1409090909090909,277,1,27,_Remix_Guitar,6,2,_Remix_Guitar,0.9998056292533875,1
63,100,0.22272727272727272,312,0,27,_Remix_Guitar,6,4,_Remix_Guitar,0.12574639916419983,0
63,100,0.1,382,0,27,_Remix_Guitar,6,2,_Remix_Guitar,0.12310443818569183,0
63,100,0.2590909090909091,484,0,27,_Remix_Guitar,6,4,_Remix_Guitar,0.1317376047372818,0
53,100,0.22272727272727272,673,0,27,_Remix_Guitar,6,4,_Remix_Guitar,0.14793702960014343,0
60,100,0.12272727272727273,839,0,27,_Remix_Guitar,6,2,_Remix_Guitar,0.13581645488739014,0
53,100,0.3409090909090909,44,1,28,_Remix_Guitar,6,5,_Remix_Guitar,0.999804675579071,1
53,100,0.1590909090909091,185,0,28,_Remix_Guitar,6,3,_Remix_Guitar,0.12854838371276855,0
53,100,0.17727272727272728,260,0,28,_Remix_Guitar,6,3,_Remix_Guitar,0.11498603969812393,0
62,100,0.11818181818181818,418,0,28,_Remix_Guitar,6,2,_Remix_Guitar,0.13625745475292206,0
53,100,0.2,519,0,28,_Remix_Guitar,6,3,_Remix_Guitar,0.13818961381912231,0
53,100,0.1,567,0,28,_Remix_Guitar,6,2,_Remix_Guitar,0.1317274123430252,0
55,100,0.18181818181818182,88,1,29,_Remix_Guitar,6,3,_Remix_Guitar,0.999750554561615,1
53,100,1.1,202,0,29,_Remix_Guitar,6,15,_Remix_Guitar,0.07631353288888931,0
58,100,0.12272727272727273,474,1,29,_Remix_Guitar,6,2,_Remix_Guitar,0.0828561931848526,0
58,100,0.12272727272727273,563,0,29,_Remix_Guitar,6,2,_Remix_Guitar,0.0864250436425209,0
58,100,0.13636363636363635,656,0,29,_Remix_Guitar,6,2,_Remix_Guitar,0.10184653103351593,0
58,100,0.3409090909090909,694,0,29,_Remix_Guitar,6,5,_Remix_Guitar,0.10182652622461319,0
60,100,0.16363636363636364,862,0,29,_Remix_Guitar,6,3,_Remix_Guitar,0.10346758365631104,0
58,100,0.21818181818181817,40,1,30,_Remix_Guitar,6,3,_Remix_Guitar,0.9997372031211853,1
53,100,0.2772727272727273,96,0,30,_Remix_Guitar,6,4,_Remix_Guitar,0.08937916904687881,0
58,100,0.11818181818181818,171,0,30,_Remix_Guitar,6,2,_Remix_Guitar,0.07193144410848618,0
53,100,0.6,216,0,30,_Remix_Guitar,6,10,_Remix_Guitar,0.08349326997995377,0
58,100,0.12272727272727273,422,0,30,_Remix_Guitar,6,2,_Remix_Guitar,0.09516254812479019,0
53,100,0.1,492,0,30,_Remix_Guitar,6,2,_Remix_Guitar,0.11016257852315903,0
55,100,0.5181818181818182,766,1,30,_Remix_Guitar,6,8,_Remix_Guitar,0.08706501871347427,0
55,100,0.12272727272727273,179,1,31,_Remix_Guitar,6,2,_Remix_Guitar,0.9996309280395508,1
53,100,0.1409090909090909,646,1,31,_Remix_Guitar,6,2,_Remix_Guitar,0.5521014332771301,0
53,100,0.37727272727272726,383,1,32,_Remix_Guitar,6,6,_Remix_Guitar,0.9998157620429993,1
53,100,0.2,471,0,32,_Remix_Guitar,6,3,_Remix_Guitar,0.4192555248737335,0
53,100,0.13636363636363635,765,1,32,_Remix_Guitar,6,2,_Remix_Guitar,0.4356776475906372,0
55,100,0.21818181818181817,581,1,33,_Remix_Guitar,6,3,_Remix_Guitar,0.9995842576026917,1
55,100,0.6,726,0,33,_Remix_Guitar,6,10,_Remix_Guitar,0.5442406535148621,0
58,100,0.2772727272727273,413,1,34,_Remix_Guitar,6,4,_Remix_Guitar,0.9998132586479187,1
53,100,0.11818181818181818,681,1,34,_Remix_Guitar,6,2,_Remix_Guitar,0.44944658875465393,0
53,100,0.2818181818181818,804,0,34,_Remix_Guitar,6,5,_Remix_Guitar,0.4222513735294342,0
53,100,0.1409090909090909,75,1,35,_Remix_Guitar,6,2,_Remix_Guitar,0.9998118281364441,1
53,100,0.1409090909090909,179,0,35,_Remix_Guitar,6,2,_Remix_Guitar,0.13118276000022888,0
58,100,0.1,215,0,35,_Remix_Guitar,6,2,_Remix_Guitar,0.11585420370101929,0
58,100,0.18181818181818182,241,0,35,_Remix_Guitar,6,3,_Remix_Guitar,0.14122162759304047,0
55,100,0.6,311,0,35,_Remix_Guitar,6,10,_Remix_Guitar,0.14091770350933075,0
53,100,0.17727272727272728,823,1,35,_Remix_Guitar,6,3,_Remix_Guitar,0.144775852560997,0
53,100,0.1590909090909091,18,1,36,_Remix_Guitar,6,3,_Remix_Guitar,0.9998416900634766,1
53,100,0.2,338,1,36,_Remix_Guitar,6,3,_Remix_Guitar,0.21029223501682281,0
53,100,0.2409090909090909,466,0,36,_Remix_Guitar,6,4,_Remix_Guitar,0.1993481069803238,0
53,100,0.7227272727272728,541,0,36,_Remix_Guitar,6,12,_Remix_Guitar,0.18767768144607544,0
53,100,0.3,778,1,36,_Remix_Guitar,6,5,_Remix_Guitar,0.21344511210918427,0
55,100,0.18181818181818182,263,1,37,_Remix_Guitar,6,3,_Remix_Guitar,0.999610960483551,1
55,100,0.5,804,1,37,_Remix_Guitar,6,8,_Remix_Guitar,0.5454404354095459,0
56,100,0.4590909090909091,361,1,38,_Remix_Guitar,6,7,_Remix_Guitar,0.9995964169502258,1
53,100,0.5181818181818182,748,1,38,_Remix_Guitar,6,8,_Remix_Guitar,0.5550872683525085,0
53,100,0.23636363636363636,40,1,39,_Remix_Guitar,6,4,_Remix_Guitar,0.9997972846031189,1
58,100,0.2772727272727273,185,0,39,_Remix_Guitar,6,4,_Remix_Guitar,0.12271502614021301,0
58,100,0.2636363636363636,268,0,39,_Remix_Guitar,6,4,_Remix_Guitar,0.11867260932922363,0
53,100,0.1590909090909091,515,1,39,_Remix_Guitar,6,3,_Remix_Guitar,0.14686310291290283,0
53,100,0.2,703,0,39,_Remix_Guitar,6,3,_Remix_Guitar,0.14442726969718933,0
53,100,0.1590909090909091,756,0,39,_Remix_Guitar,6,3,_Remix_Guitar,0.13756009936332703,0
63,100,0.11818181818181818,215,1,40,_Remix_Guitar,6,2,_Remix_Guitar,0.9998294115066528,1
53,100,0.3,528,1,40,_Remix_Guitar,6,5,_Remix_Guitar,0.21435585618019104,0
53,100,0.2409090909090909,646,0,40,_Remix_Guitar,6,4,_Remix_Guitar,0.1991034597158432,0
56,100,0.1590909090909091,783,0,40,_Remix_Guitar,6,3,_Remix_Guitar,0.2038767784833908,0
53,100,0.11818181818181818,858,0,40,_Remix_Guitar,6,2,_Remix_Guitar,0.21177051961421967,0
53,100,0.4,153,1,41,_Remix_Guitar,6,6,_Remix_Guitar,0.9997324347496033,1
58,100,0.1409090909090909,241,0,41,_Remix_Guitar,6,2,_Remix_Guitar,0.053894925862550735,0
53,100,0.2409090909090909,276,0,41,_Remix_Guitar,6,4,_Remix_Guitar,0.04818323999643326,0
53,100,0.16363636363636364,334,0,41,_Remix_Guitar,6,3,_Remix_Guitar,0.04839227348566055,0
65,100,0.2,370,0,41,_Remix_Guitar,6,3,_Remix_Guitar,0.050898145884275436,0
53,100,0.23636363636363636,413,0,41,_Remix_Guitar,6,4,_Remix_Guitar,0.05917530506849289,0
53,100,0.13636363636363635,501,0,41,_Remix_Guitar,6,2,_Remix_Guitar,0.06728044897317886,0
53,100,0.1590909090909091,541,0,41,_Remix_Guitar,6,3,_Remix_Guitar,0.060135211795568466,0
53,100,0.1409090909090909,123,1,42,_Remix_Guitar,6,2,_Remix_Guitar,0.9998094439506531,1
63,100,0.13636363636363635,391,1,42,_Remix_Guitar,6,2,_Remix_Guitar,0.12357950955629349,0
55,100,0.32272727272727275,554,0,42,_Remix_Guitar,6,5,_Remix_Guitar,0.11867864429950714,0
60,100,0.12272727272727273,641,0,42,_Remix_Guitar,6,2,_Remix_Guitar,0.14127305150032043,0
60,100,0.2,761,0,42,_Remix_Guitar,6,3,_Remix_Guitar,0.14195963740348816,0
56,100,0.21818181818181817,866,0,42,_Remix_Guitar,6,3,_Remix_Guitar,0.12746495008468628,0
53,100,0.2818181818181818,440,1,43,_Remix_Guitar,6,5,_Remix_Guitar,0.9998093247413635,1
53,100,0.3,581,0,43,_Remix_Guitar,6,5,_Remix_Guitar,0.123847097158432,0
58,100,0.2,651,0,43,_Remix_Guitar,6,3,_Remix_Guitar,0.11712067574262619,0
53,100,0.1590909090909091,703,0,43,_Remix_Guitar,6,3,_Remix_Guitar,0.13926343619823456,0
53,100,0.13636363636363635,788,0,43,_Remix_Guitar,6,2,_Remix_Guitar,0.13948750495910645,0
53,100,0.1590909090909091,826,0,43,_Remix_Guitar,6,3,_Remix_Guitar,0.13144423067569733,0
53,100,0.13636363636363635,18,1,44,_Remix_Guitar,6,2,_Remix_Guitar,0.9998393058776855,1
53,100,0.5,83,0,44,_Remix_Guitar,6,8,_Remix_Guitar,0.19156493246555328,0
53,100,0.2409090909090909,206,0,44,_Remix_Guitar,6,4,_Remix_Guitar,0.20249086618423462,0
53,100,0.18181818181818182,431,0,44,_Remix_Guitar,6,3,_Remix_Guitar,0.20689578354358673,0
60,100,0.33636363636363636,765,1,44,_Remix_Guitar,6,5,_Remix_Guitar,0.2027135193347931,0
53,100,0.18181818181818182,220,1,45,_Remix_Guitar,6,3,_Remix_Guitar,0.9998351335525513,1
53,100,0.36363636363636365,356,0,45,_Remix_Guitar,6,6,_Remix_Guitar,0.4009499251842499,0
53,100,0.12272727272727273,871,1,45,_Remix_Guitar,6,2,_Remix_Guitar,0.42960798740386963,0
53,100,0.2,185,1,46,_Remix_Guitar,6,3,_Remix_Guitar,0.9998101592063904,1
58,100,0.3181818181818182,391,0,46,_Remix_Guitar,6,5,_Remix_Guitar,0.11361898481845856,0
53,100,0.2,501,0,46,_Remix_Guitar,6,3,_Remix_Guitar,0.13169586658477783,0
53,100,0.17727272727272728,558,0,46,_Remix_Guitar,6,3,_Remix_Guitar,0.13373863697052002,0
53,100,0.2,700,0,46,_Remix_Guitar,6,3,_Remix_Guitar,0.1439206749200821,0
53,100,0.5,751,0,46,_Remix_Guitar,6,8,_Remix_Guitar,0.13117487728595734,0
53,100,0.1590909090909091,8,1,47,_Remix_Guitar,6,3,_Remix_Guitar,0.9998093247413635,1
53,100,0.2409090909090909,69,0,47,_Remix_Guitar,6,4,_Remix_Guitar,0.12493777275085449,0
53,100,0.12272727272727273,136,0,47,_Remix_Guitar,6,2,_Remix_Guitar,0.12305768579244614,0
58,100,0.22272727272727272,321,0,47,_Remix_Guitar,6,4,_Remix_Guitar,0.12876680493354797,0
53,100,0.22272727272727272,386,0,47,_Remix_Guitar,6,4,_Remix_Guitar,0.1530522108078003,0
58,100,0.2818181818181818,616,0,47,_Remix_Guitar,6,5,_Remix_Guitar,0.12692952156066895,0
55,100,0.1,153,1,49,_Remix_Guitar,6,2,_Remix_Guitar,0.999832034111023,1
55,100,0.2590909090909091,558,1,49,_Remix_Guitar,6,4,_Remix_Guitar,0.3970564901828766,0
53,100,0.2772727272727273,823,1,49,_Remix_Guitar,6,4,_Remix_Guitar,0.43428584933280945,0
53,100,0.4,43,1,50,_Remix_Guitar,6,6,_Remix_Guitar,0.9997000694274902,1
58,100,0.2409090909090909,131,0,50,_Remix_Guitar,6,4,_Remix_Guitar,0.04102078825235367,0
53,100,0.18181818181818182,188,0,50,_Remix_Guitar,6,3,_Remix_Guitar,0.03538570553064346,0
53,100,0.21818181818181817,260,0,50,_Remix_Guitar,6,3,_Remix_Guitar,0.030241860076785088,0
53,100,0.18181818181818182,311,0,50,_Remix_Guitar,6,3,_Remix_Guitar,0.03181153163313866,0
53,100,0.1409090909090909,399,0,50,_Remix_Guitar,6,2,_Remix_Guitar,0.03478221967816353,0
53,100,0.6,545,0,50,_Remix_Guitar,6,10,_Remix_Guitar,0.03867122903466225,0
53,100,0.17727272727272728,765,0,50,_Remix_Guitar,6,3,_Remix_Guitar,0.05297914147377014,0
53,100,0.16363636363636364,818,0,50,_Remix_Guitar,6,3,_Remix_Guitar,0.046834059059619904,0
55,100,0.11818181818181818,281,1,51,_Remix_Guitar,6,2,_Remix_Guitar,0.9930981993675232,0
55,100,0.1,91,1,52,_Remix_Guitar,6,2,_Remix_Guitar,0.999825656414032,1
55,100,0.1,166,0,52,_Remix_Guitar,6,2,_Remix_Guitar,0.4130021035671234,0
55,100,0.3181818181818182,853,1,52,_Remix_Guitar,6,5,_Remix_Guitar,0.42210036516189575,0
55,100,0.2590909090909091,171,1,53,_Remix_Guitar,6,4,_Remix_Guitar,0.999842643737793,1
53,100,0.1590909090909091,303,0,53,_Remix_Guitar,6,3,_Remix_Guitar,0.33550506830215454,0
56,100,0.2409090909090909,396,0,53,_Remix_Guitar,6,4,_Remix_Guitar,0.2918655574321747,0
56,100,0.11818181818181818,853,1,53,_Remix_Guitar,6,2,_Remix_Guitar,0.31087619066238403,0
63,100,0.1409090909090909,461,1,54,_Remix_Guitar,6,2,_Remix_Guitar,0.9996217489242554,1
58,100,0.2409090909090909,528,0,54,_Remix_Guitar,6,4,_Remix_Guitar,0.5411311984062195,0
63,100,0.2,75,1,55,_Remix_Guitar,6,3,_Remix_Guitar,0.9998260140419006,1
55,100,0.11818181818181818,458,1,55,_Remix_Guitar,6,2,_Remix_Guitar,0.41201817989349365,0
53,100,0.2590909090909091,606,0,55,_Remix_Guitar,6,4,_Remix_Guitar,0.435909628868103,0
53,100,0.12272727272727273,166,1,56,_Remix_Guitar,6,2,_Remix_Guitar,0.9998107552528381,1
53,100,0.1590909090909091,220,0,56,_Remix_Guitar,6,3,_Remix_Guitar,0.12425331771373749,0
53,100,0.17727272727272728,338,0,56,_Remix_Guitar,6,3,_Remix_Guitar,0.11958998441696167,0
53,100,0.2,554,0,56,_Remix_Guitar,6,3,_Remix_Guitar,0.1315552443265915,0
53,100,0.22272727272727272,606,0,56,_Remix_Guitar,6,4,_Remix_Guitar,0.14013619720935822,0
53,100,0.4590909090909091,801,0,56,_Remix_Guitar,6,7,_Remix_Guitar,0.12514962255954742,0
53,100,0.21818181818181817,40,1,57,_Remix_Guitar,6,3,_Remix_Guitar,0.9998003840446472,1
53,100,0.16363636363636364,114,0,57,_Remix_Guitar,6,3,_Remix_Guitar,0.12905679643154144,0
53,100,0.17727272727272728,185,0,57,_Remix_Guitar,6,3,_Remix_Guitar,0.11940683424472809,0
53,100,0.1409090909090909,254,0,57,_Remix_Guitar,6,2,_Remix_Guitar,0.13256840407848358,0
53,100,0.1,373,0,57,_Remix_Guitar,6,2,_Remix_Guitar,0.13913404941558838,0
53,100,0.42272727272727273,421,0,57,_Remix_Guitar,6,7,_Remix_Guitar,0.1269027441740036,0
53,100,0.1409090909090909,201,1,59,_Remix_Guitar,6,2,_Remix_Guitar,0.9997461438179016,1
53,100,0.12272727272727273,298,0,59,_Remix_Guitar,6,2,_Remix_Guitar,0.05618750676512718,0
53,100,0.18181818181818182,343,0,59,_Remix_Guitar,6,3,_Remix_Guitar,0.04822685569524765,0
58,100,0.38181818181818183,440,0,59,_Remix_Guitar,6,6,_Remix_Guitar,0.045772917568683624,0
58,100,0.2,536,0,59,_Remix_Guitar,6,3,_Remix_Guitar,0.053838763386011124,0
53,100,0.5590909090909091,590,0,59,_Remix_Guitar,6,9,_Remix_Guitar,0.06497175991535187,0
58,100,0.5772727272727273,721,0,59,_Remix_Guitar,6,9,_Remix_Guitar,0.06622415781021118,0
58,100,0.21818181818181817,866,0,59,_Remix_Guitar,6,3,_Remix_Guitar,0.06508111208677292,0
53,100,0.18181818181818182,114,1,60,_Remix_Guitar,6,3,_Remix_Guitar,0.9996501207351685,1
53,100,0.12272727272727273,311,0,60,_Remix_Guitar,6,2,_Remix_Guitar,0.5479706525802612,0
53,100,0.12272727272727273,466,1,61,_Remix_Guitar,6,2,_Remix_Guitar,0.9998588562011719,1
53,100,1.059090909090909,501,0,61,_Remix_Guitar,6,15,_Remix_Guitar,0.27383095026016235,0
53,100,0.22272727272727272,761,1,61,_Remix_Guitar,6,4,_Remix_Guitar,0.3170303702354431,0
53,100,0.21818181818181817,813,0,61,_Remix_Guitar,6,3,_Remix_Guitar,0.30846408009529114,0
53,100,0.11818181818181818,8,1,62,_Remix_Guitar,6,2,_Remix_Guitar,0.9997730851173401,1
53,100,0.1409090909090909,56,0,62,_Remix_Guitar,6,2,_Remix_Guitar,0.07838147133588791,0
53,100,0.21818181818181817,260,0,62,_Remix_Guitar,6,3,_Remix_Guitar,0.06925157457590103,0
53,100,0.32272727272727275,321,0,62,_Remix_Guitar,6,5,_Remix_Guitar,0.07856260985136032,0
53,100,0.17727272727272728,413,0,62,_Remix_Guitar,6,3,_Remix_Guitar,0.08882860839366913,0
53,100,0.16363636363636364,466,0,62,_Remix_Guitar,6,3,_Remix_Guitar,0.09596056491136551,0
53,100,0.22272727272727272,576,0,62,_Remix_Guitar,6,4,_Remix_Guitar,0.08310946077108383,0
53,100,0.4409090909090909,289,1,63,_Remix_Guitar,6,7,_Remix_Guitar,0.9998397827148438,1
58,100,0.7636363636363637,421,0,63,_Remix_Guitar,6,12,_Remix_Guitar,0.29351606965065,0
53,100,0.32272727272727275,598,0,63,_Remix_Guitar,6,5,_Remix_Guitar,0.32557564973831177,0
55,100,0.2818181818181818,813,0,63,_Remix_Guitar,6,5,_Remix_Guitar,0.3154883086681366,0
55,100,0.4590909090909091,87,1,64,_Remix_Guitar,6,7,_Remix_Guitar,0.999809205532074,1
55,100,0.17727272727272728,502,1,64,_Remix_Guitar,6,3,_Remix_Guitar,0.4306139051914215,0
55,100,0.11818181818181818,853,1,64,_Remix_Guitar,6,2,_Remix_Guitar,0.4295225441455841,0
53,100,0.13636363636363635,62,1,65,_Remix_Guitar,6,2,_Remix_Guitar,0.9998430013656616,1
53,100,0.2772727272727273,96,0,65,_Remix_Guitar,6,4,_Remix_Guitar,0.2027200162410736,0
53,100,0.1590909090909091,606,1,65,_Remix_Guitar,6,3,_Remix_Guitar,0.1987026184797287,0
53,100,0.6590909090909091,700,0,65,_Remix_Guitar,6,11,_Remix_Guitar,0.19204206764698029,0
53,100,0.1590909090909091,849,0,65,_Remix_Guitar,6,3,_Remix_Guitar,0.21035271883010864,0
53,100,0.3181818181818182,150,1,66,_Remix_Guitar,6,5,_Remix_Guitar,0.9997286200523376,1
58,100,0.36363636363636365,223,0,66,_Remix_Guitar,6,6,_Remix_Guitar,0.05299768224358559,0
53,100,0.6181818181818182,330,0,66,_Remix_Guitar,6,10,_Remix_Guitar,0.04906512424349785,0
58,100,0.18181818181818182,466,0,66,_Remix_Guitar,6,3,_Remix_Guitar,0.04931328445672989,0
53,100,0.23636363636363636,523,0,66,_Remix_Guitar,6,4,_Remix_Guitar,0.054361071437597275,0
53,100,0.4409090909090909,593,0,66,_Remix_Guitar,6,7,_Remix_Guitar,0.058357760310173035,0
53,100,0.4409090909090909,695,0,66,_Remix_Guitar,6,7,_Remix_Guitar,0.0714670941233635,0
53,100,0.1590909090909091,849,0,66,_Remix_Guitar,6,3,_Remix_Guitar,0.06365062296390533,0
53,100,0.5636363636363636,26,1,67,_Remix_Guitar,6,9,_Remix_Guitar,0.9998373985290527,1
58,100,0.12272727272727273,246,0,67,_Remix_Guitar,6,2,_Remix_Guitar,0.33084800839424133,0
55,100,0.11818181818181818,690,1,67,_Remix_Guitar,6,2,_Remix_Guitar,0.30063366889953613,0
55,100,0.11818181818181818,779,0,67,_Remix_Guitar,6,2,_Remix_Guitar,0.3140116035938263,0
53,100,0.1,624,1,68,_Remix_Guitar,6,2,_Remix_Guitar,0.9933888912200928,0
58,100,0.1590909090909091,87,1,69,_Remix_Guitar,6,3,_Remix_Guitar,0.9998123049736023,1
55,100,0.13636363636363635,392,1,69,_Remix_Guitar,6,2,_Remix_Guitar,0.4241274297237396,0
55,100,0.41818181818181815,426,0,69,_Remix_Guitar,6,7,_Remix_Guitar,0.4306345582008362,0
56,100,0.11818181818181818,603,1,70,_Remix_Guitar,6,2,_Remix_Guitar,0.9933280944824219,0
63,100,0.5227272727272727,409,1,71,_Remix_Guitar,6,8,_Remix_Guitar,0.9995898604393005,1
63,100,0.4,832,1,71,_Remix_Guitar,6,6,_Remix_Guitar,0.5564135313034058,0
63,100,0.21818181818181817,83,1,72,_Remix_Guitar,6,3,_Remix_Guitar,0.9998427629470825,1
55,100,0.2772727272727273,250,0,72,_Remix_Guitar,6,4,_Remix_Guitar,0.32768720388412476,0
55,100,0.3,333,0,72,_Remix_Guitar,6,5,_Remix_Guitar,0.28856611251831055,0
55,100,0.1409090909090909,422,0,72,_Remix_Guitar,6,2,_Remix_Guitar,0.3172319531440735,0
53,100,0.6,176,1,73,_Remix_Guitar,6,10,_Remix_Guitar,0.9997511506080627,1
53,100,0.11818181818181818,330,0,73,_Remix_Guitar,6,2,_Remix_Guitar,0.09234854578971863,0
58,100,0.6181818181818182,436,0,73,_Remix_Guitar,6,10,_Remix_Guitar,0.06883949041366577,0
70,100,0.1,619,0,73,_Remix_Guitar,6,2,_Remix_Guitar,0.09207169711589813,0
58,100,0.2,650,0,73,_Remix_Guitar,6,3,_Remix_Guitar,0.09609062224626541,0
58,100,0.2590909090909091,722,0,73,_Remix_Guitar,6,4,_Remix_Guitar,0.10775595158338547,0
53,100,1.018181818181818,787,0,73,_Remix_Guitar,6,15,_Remix_Guitar,0.08984801173210144,0
58,100,0.22272727272727272,145,1,74,_Remix_Guitar,6,4,_Remix_Guitar,0.9995700716972351,1
58,100,0.38181818181818183,246,0,74,_Remix_Guitar,6,6,_Remix_Guitar,0.5527800917625427,0
53,100,0.1,179,1,75,_Remix_Guitar,6,2,_Remix_Guitar,0.9998155236244202,1
60,100,0.1,443,1,75,_Remix_Guitar,6,2,_Remix_Guitar,0.13175956904888153,0
55,100,0.3181818181818182,483,0,75,_Remix_Guitar,6,5,_Remix_Guitar,0.11578064411878586,0
55,100,0.1590909090909091,559,0,75,_Remix_Guitar,6,3,_Remix_Guitar,0.13452859222888947,0
55,100,0.1590909090909091,766,0,75,_Remix_Guitar,6,3,_Remix_Guitar,0.14697152376174927,0
58,100,0.4590909090909091,866,0,75,_Remix_Guitar,6,7,_Remix_Guitar,0.1242305189371109,0
55,100,0.2409090909090909,250,1,76,_Remix_Guitar,6,4,_Remix_Guitar,0.9929539561271667,1
63,100,0.3,449,1,77,_Remix_Guitar,6,5,_Remix_Guitar,0.9927536845207214,0
55,100,0.11818181818181818,294,1,78,_Remix_Guitar,6,2,_Remix_Guitar,0.9998534917831421,1
55,100,0.13636363636363635,326,0,78,_Remix_Guitar,6,2,_Remix_Guitar,0.31546440720558167,0
55,100,0.4,430,0,78,_Remix_Guitar,6,6,_Remix_Guitar,0.29525429010391235,0
55,100,0.8,729,1,78,_Remix_Guitar,6,13,_Remix_Guitar,0.30468207597732544,0
63,100,0.1409090909090909,606,1,79,_Remix_Guitar,6,2,_Remix_Guitar,0.993359386920929,0
53,100,0.4818181818181818,22,1,80,_Remix_Guitar,6,8,_Remix_Guitar,0.9998213648796082,1
53,100,0.11818181818181818,506,1,80,_Remix_Guitar,6,2,_Remix_Guitar,0.4316841959953308,0
53,100,0.2590909090909091,567,0,80,_Remix_Guitar,6,4,_Remix_Guitar,0.4222933053970337,0
53,100,0.1409090909090909,22,1,81,_Remix_Guitar,6,2,_Remix_Guitar,0.9998319149017334,1
53,100,0.1,136,0,81,_Remix_Guitar,6,2,_Remix_Guitar,0.409078985452652,0
53,100,0.5409090909090909,202,0,81,_Remix_Guitar,6,9,_Remix_Guitar,0.41800686717033386,0
58,100,0.2,436,1,83,_Remix_Guitar,6,3,_Remix_Guitar,0.9998379945755005,1
53,100,0.12272727272727273,496,0,83,_Remix_Guitar,6,2,_Remix_Guitar,0.35073885321617126,0
53,100,0.3,532,0,83,_Remix_Guitar,6,5,_Remix_Guitar,0.2836459279060364,0
53,100,0.35909090909090907,646,0,83,_Remix_Guitar,6,6,_Remix_Guitar,0.3082268536090851,0
53,100,0.2,79,1,84,_Remix_Guitar,6,3,_Remix_Guitar,0.9997723698616028,1
53,100,0.1590909090909091,153,0,84,_Remix_Guitar,6,3,_Remix_Guitar,0.07846714556217194,0
53,100,0.1409090909090909,210,0,84,_Remix_Guitar,6,2,_Remix_Guitar,0.07275279611349106,0
53,100,0.1409090909090909,250,0,84,_Remix_Guitar,6,2,_Remix_Guitar,0.0756436139345169,0
53,100,0.2590909090909091,299,0,84,_Remix_Guitar,6,4,_Remix_Guitar,0.08475127816200256,0
53,100,0.2,377,0,84,_Remix_Guitar,6,3,_Remix_Guitar,0.09312693029642105,0
53,100,0.11818181818181818,593,0,84,_Remix_Guitar,6,2,_Remix_Guitar,0.08298993110656738,0
55,100,0.1409090909090909,289,1,85,_Remix_Guitar,6,2,_Remix_Guitar,0.9996176958084106,1
67,100,0.1,333,0,85,_Remix_Guitar,6,2,_Remix_Guitar,0.5488243699073792,0
55,100,0.1409090909090909,417,1,86,_Remix_Guitar,6,2,_Remix_Guitar,0.9930658340454102,0
53,100,0.16363636363636364,707,1,88,_Remix_Guitar,6,3,_Remix_Guitar,0.9996479749679565,1
53,100,0.1,760,0,88,_Remix_Guitar,6,2,_Remix_Guitar,0.5528007745742798,0
58,100,0.12272727272727273,13,1,89,_Remix_Guitar,6,2,_Remix_Guitar,0.9998207688331604,1
53,100,0.2409090909090909,462,1,89,_Remix_Guitar,6,4,_Remix_Guitar,0.4285402297973633,0
53,100,0.1590909090909091,823,1,89,_Remix_Guitar,6,3,_Remix_Guitar,0.42859917879104614,0
53,100,0.1,140,1,90,_Remix_Guitar,6,2,_Remix_Guitar,0.9998557567596436,1
58,100,0.11818181818181818,633,1,90,_Remix_Guitar,6,2,_Remix_Guitar,0.3082045018672943,0
53,100,0.1590909090909091,726,0,90,_Remix_Guitar,6,3,_Remix_Guitar,0.2970520853996277,0
53,100,0.5409090909090909,862,0,90,_Remix_Guitar,6,9,_Remix_Guitar,0.3001534342765808,0
53,100,0.12272727272727273,202,1,91,_Remix_Guitar,6,2,_Remix_Guitar,0.9997358918190002,1
53,100,0.38181818181818183,242,0,91,_Remix_Guitar,6,6,_Remix_Guitar,0.05325273051857948,0
53,100,0.1409090909090909,330,0,91,_Remix_Guitar,6,2,_Remix_Guitar,0.048957549035549164,0
53,100,0.1,373,0,91,_Remix_Guitar,6,2,_Remix_Guitar,0.046766094863414764,0
53,100,0.18181818181818182,440,0,91,_Remix_Guitar,6,3,_Remix_Guitar,0.0507754385471344,0
53,100,0.2,514,0,91,_Remix_Guitar,6,3,_Remix_Guitar,0.057588960975408554,0
53,100,0.35909090909090907,590,0,91,_Remix_Guitar,6,6,_Remix_Guitar,0.06393700838088989,0
53,100,0.11818181818181818,713,0,91,_Remix_Guitar,6,2,_Remix_Guitar,0.061039138585329056,0
53,100,0.7363636363636363,40,1,93,_Remix_Guitar,6,12,_Remix_Guitar,0.9997343420982361,1
53,100,0.3181818181818182,250,0,93,_Remix_Guitar,6,5,_Remix_Guitar,0.08868595212697983,0
53,100,0.2590909090909091,404,0,93,_Remix_Guitar,6,4,_Remix_Guitar,0.07444202154874802,0
53,100,0.11818181818181818,483,0,93,_Remix_Guitar,6,2,_Remix_Guitar,0.08102642744779587,0
53,100,0.1,540,0,93,_Remix_Guitar,6,2,_Remix_Guitar,0.0892678052186966,0
53,100,0.2,606,0,93,_Remix_Guitar,6,3,_Remix_Guitar,0.09347444027662277,0
53,100,0.4590909090909091,669,0,93,_Remix_Guitar,6,7,_Remix_Guitar,0.08295805007219315,0
53,100,0.2409090909090909,43,1,94,_Remix_Guitar,6,4,_Remix_Guitar,0.9996354579925537,1
58,100,0.22272727272727272,100,0,94,_Remix_Guitar,6,4,_Remix_Guitar,0.5391669273376465,0
55,100,0.12272727272727273,13,1,95,_Remix_Guitar,6,2,_Remix_Guitar,0.9998291730880737,1
55,100,0.18181818181818182,47,0,95,_Remix_Guitar,6,3,_Remix_Guitar,0.40080246329307556,0
53,100,0.1409090909090909,312,1,95,_Remix_Guitar,6,2,_Remix_Guitar,0.4364472031593323,0
60,100,0.1,496,1,96,_Remix_Guitar,6,2,_Remix_Guitar,0.9937040209770203,0
53,100,0.18181818181818182,220,1,97,_Remix_Guitar,6,3,_Remix_Guitar,0.9996492862701416,1
53,100,0.1590909090909091,475,1,97,_Remix_Guitar,6,3,_Remix_Guitar,0.5501673221588135,0
53,100,0.11818181818181818,770,1,98,_Remix_Guitar,6,2,_Remix_Guitar,0.9934757351875305,0
53,100,0.11818181818181818,700,1,99,_Remix_Guitar,6,2,_Remix_Guitar,0.9996473789215088,1
53,100,0.1409090909090909,773,0,99,_Remix_Guitar,6,2,_Remix_Guitar,0.545940637588501,0
53,100,0.36363636363636365,157,1,100,_Remix_Guitar,6,6,_Remix_Guitar,0.9997661709785461,1
53,100,0.18181818181818182,267,0,100,_Remix_Guitar,6,3,_Remix_Guitar,0.08140358328819275,0
53,100,0.1409090909090909,352,0,100,_Remix_Guitar,6,2,_Remix_Guitar,0.07384151220321655,0
53,100,0.2818181818181818,386,0,100,_Remix_Guitar,6,5,_Remix_Guitar,0.07938215881586075,0
53,100,0.4409090909090909,470,0,100,_Remix_Guitar,6,7,_Remix_Guitar,0.0880606472492218,0
53,100,1.1409090909090909,593,0,100,_Remix_Guitar,6,15,_Remix_Guitar,0.08641175180673599,0
53,100,0.1590909090909091,853,1,100,_Remix_Guitar,6,3,_Remix_Guitar,0.09997772425413132,0
53,100,0.3,22,1,101,_Remix_Guitar,6,5,_Remix_Guitar,0.9998291730880737,1
53,100,0.2,106,0,101,_Remix_Guitar,6,3,_Remix_Guitar,0.4180201590061188,0
63,100,0.11818181818181818,330,0,101,_Remix_Guitar,6,2,_Remix_Guitar,0.4234496057033539,0
63,100,0.3409090909090909,92,1,102,_Remix_Guitar,6,5,_Remix_Guitar,0.9998425245285034,1
53,100,0.33636363636363636,326,1,102,_Remix_Guitar,6,5,_Remix_Guitar,0.3301331102848053,0
53,100,0.2590909090909091,426,0,102,_Remix_Guitar,6,4,_Remix_Guitar,0.30338090658187866,0
53,100,0.36363636363636365,619,0,102,_Remix_Guitar,6,6,_Remix_Guitar,0.30674415826797485,0
65,100,0.2818181818181818,123,1,103,_Remix_Guitar,6,5,_Remix_Guitar,0.9996294975280762,1
60,100,0.4818181818181818,817,1,103,_Remix_Guitar,6,8,_Remix_Guitar,0.5502371191978455,0
63,100,0.1,140,1,104,_Remix_Guitar,6,2,_Remix_Guitar,0.9998250603675842,1
63,100,0.1409090909090909,206,0,104,_Remix_Guitar,6,2,_Remix_Guitar,0.41436511278152466,0
63,100,0.7636363636363637,267,0,104,_Remix_Guitar,6,12,_Remix_Guitar,0.4170224666595459,0
56,100,0.1,96,1,105,_Remix_Guitar,6,2,_Remix_Guitar,0.9997742772102356,1
60,100,0.43636363636363634,260,0,105,_Remix_Guitar,6,7,_Remix_Guitar,0.07783154398202896,0
58,100,0.11818181818181818,493,1,105,_Remix_Guitar,6,2,_Remix_Guitar,0.07648386806249619,0
58,100,0.18181818181818182,553,0,105,_Remix_Guitar,6,3,_Remix_Guitar,0.07999322563409805,0
70,100,0.2,603,0,105,_Remix_Guitar,6,3,_Remix_Guitar,0.09414135664701462,0
58,100,0.1590909090909091,690,0,105,_Remix_Guitar,6,3,_Remix_Guitar,0.10172060132026672,0
53,100,0.16363636363636364,729,0,105,_Remix_Guitar,6,3,_Remix_Guitar,0.09783441573381424,0
58,100,0.11818181818181818,326,1,106,_Remix_Guitar,6,2,_Remix_Guitar,0.999840497970581,1
63,100,0.2590909090909091,656,1,106,_Remix_Guitar,6,4,_Remix_Guitar,0.3356514573097229,0
63,100,0.2,770,0,106,_Remix_Guitar,6,3,_Remix_Guitar,0.29406896233558655,0
53,100,0.1,826,0,106,_Remix_Guitar,6,2,_Remix_Guitar,0.31844598054885864,0
53,100,0.2,132,1,107,_Remix_Guitar,6,3,_Remix_Guitar,0.9998049139976501,1
63,100,0.8409090909090909,189,0,107,_Remix_Guitar,6,13,_Remix_Guitar,0.11133800446987152,0
53,100,0.12272727272727273,377,0,107,_Remix_Guitar,6,2,_Remix_Guitar,0.134669229388237,0
65,100,0.12272727272727273,409,0,107,_Remix_Guitar,6,2,_Remix_Guitar,0.13470351696014404,0
60,100,0.11818181818181818,590,0,107,_Remix_Guitar,6,2,_Remix_Guitar,0.14444303512573242,0
60,100,0.18181818181818182,660,0,107,_Remix_Guitar,6,3,_Remix_Guitar,0.1314610242843628,0
63,100,0.11818181818181818,43,1,108,_Remix_Guitar,6,2,_Remix_Guitar,0.9998321533203125,1
63,100,0.1590909090909091,347,1,108,_Remix_Guitar,6,3,_Remix_Guitar,0.4035918712615967,0
63,100,0.2,386,0,108,_Remix_Guitar,6,3,_Remix_Guitar,0.433102548122406,0
53,100,0.2,823,1,109,_Remix_Guitar,6,3,_Remix_Guitar,0.9932920932769775,0
53,100,0.16363636363636364,179,1,110,_Remix_Guitar,6,3,_Remix_Guitar,0.9998575448989868,1
53,100,0.2,312,0,110,_Remix_Guitar,6,3,_Remix_Guitar,0.3221491873264313,0
58,100,0.1,360,0,110,_Remix_Guitar,6,2,_Remix_Guitar,0.2825218737125397,0
70,100,0.1,650,1,110,_Remix_Guitar,6,2,_Remix_Guitar,0.3109428584575653,0
63,100,0.41818181818181815,462,1,111,_Remix_Guitar,6,7,_Remix_Guitar,0.9927716851234436,0
63,100,0.12272727272727273,386,1,112,_Remix_Guitar,6,2,_Remix_Guitar,0.9933732748031616,0
56,100,0.11818181818181818,9,1,113,_Remix_Guitar,6,2,_Remix_Guitar,0.9997658133506775,1
70,100,0.16363636363636364,267,1,113,_Remix_Guitar,6,3,_Remix_Guitar,0.07490312308073044,0
53,100,0.740909090909091,312,0,113,_Remix_Guitar,6,12,_Remix_Guitar,0.07278566062450409,0
53,100,0.18181818181818182,483,0,113,_Remix_Guitar,6,3,_Remix_Guitar,0.08633216470479965,0
53,100,0.18181818181818182,527,0,113,_Remix_Guitar,6,3,_Remix_Guitar,0.08777926117181778,0
53,100,0.1590909090909091,747,0,113,_Remix_Guitar,6,3,_Remix_Guitar,0.1008770689368248,0
53,100,0.11818181818181818,810,0,113,_Remix_Guitar,6,2,_Remix_Guitar,0.08823369443416595,0
55,100,0.22272727272727272,13,1,114,_Remix_Guitar,6,4,_Remix_Guitar,0.993111252784729,0
56,100,0.1590909090909091,216,1,115,_Remix_Guitar,6,3,_Remix_Guitar,0.9998548030853271,1
53,100,0.1,650,1,115,_Remix_Guitar,6,2,_Remix_Guitar,0.3222804367542267,0
53,100,0.1409090909090909,747,0,115,_Remix_Guitar,6,2,_Remix_Guitar,0.28961387276649475,0
53,100,0.1590909090909091,857,0,115,_Remix_Guitar,6,3,_Remix_Guitar,0.29746970534324646,0
53,100,0.1590909090909091,30,1,116,_Remix_Guitar,6,3,_Remix_Guitar,0.9996353387832642,1
58,100,0.16363636363636364,69,0,116,_Remix_Guitar,6,3,_Remix_Guitar,0.5362582206726074,0
55,100,0.4,26,1,117,_Remix_Guitar,6,6,_Remix_Guitar,0.9995697140693665,1
55,100,0.3,127,0,117,_Remix_Guitar,6,5,_Remix_Guitar,0.5541098713874817,0
58,100,0.3,106,1,118,_Remix_Guitar,6,5,_Remix_Guitar,0.9997884631156921,1
53,100,0.1409090909090909,184,0,118,_Remix_Guitar,6,2,_Remix_Guitar,0.14051924645900726,0
53,100,0.1409090909090909,386,0,118,_Remix_Guitar,6,2,_Remix_Guitar,0.12251431494951248,0
53,100,0.13636363636363635,457,0,118,_Remix_Guitar,6,2,_Remix_Guitar,0.13506507873535156,0
62,100,0.1590909090909091,792,1,118,_Remix_Guitar,6,3,_Remix_Guitar,0.13899768888950348,0
62,100,0.37727272727272726,832,0,118,_Remix_Guitar,6,6,_Remix_Guitar,0.12876856327056885,0
55,100,0.38181818181818183,223,1,119,_Remix_Guitar,6,6,_Remix_Guitar,0.9996211528778076,1
53,100,0.12272727272727273,739,1,119,_Remix_Guitar,6,2,_Remix_Guitar,0.5593219995498657,0
60,100,0.2590909090909091,110,1,120,_Remix_Guitar,6,4,_Remix_Guitar,0.9996480941772461,1
53,100,0.1,866,1,120,_Remix_Guitar,6,2,_Remix_Guitar,0.5481653213500977,0
53,100,0.38181818181818183,22,1,121,_Remix_Guitar,6,6,_Remix_Guitar,0.9996947050094604,1
53,100,0.18181818181818182,113,0,121,_Remix_Guitar,6,3,_Remix_Guitar,0.045075468719005585,0
58,100,0.8818181818181818,153,0,121,_Remix_Guitar,6,14,_Remix_Guitar,0.029037054628133774,0
53,100,0.18181818181818182,377,0,121,_Remix_Guitar,6,3,_Remix_Guitar,0.03504914417862892,0
53,100,0.3,440,0,121,_Remix_Guitar,6,5,_Remix_Guitar,0.03080899454653263,0
53,100,0.3,519,0,121,_Remix_Guitar,6,5,_Remix_Guitar,0.034365762025117874,0
53,100,0.1590909090909091,637,0,121,_Remix_Guitar,6,3,_Remix_Guitar,0.04282515496015549,0
53,100,0.2409090909090909,752,0,121,_Remix_Guitar,6,4,_Remix_Guitar,0.048545096069574356,0
53,100,0.1409090909090909,826,0,121,_Remix_Guitar,6,2,_Remix_Guitar,0.04708127677440643,0
53,100,0.2409090909090909,0,1,122,_Remix_Guitar,6,4,_Remix_Guitar,0.9998308420181274,1
53,100,0.1409090909090909,56,0,122,_Remix_Guitar,6,2,_Remix_Guitar,0.41714611649513245,0
63,100,0.2818181818181818,729,1,122,_Remix_Guitar,6,5,_Remix_Guitar,0.42092737555503845,0
63,100,0.2772727272727273,722,1,123,_Remix_Guitar,6,4,_Remix_Guitar,0.9932845830917358,0
63,100,0.12272727272727273,312,1,124,_Remix_Guitar,6,2,_Remix_Guitar,0.9998356103897095,1
65,100,0.18181818181818182,637,1,124,_Remix_Guitar,6,3,_Remix_Guitar,0.41271844506263733,0
65,100,0.21818181818181817,682,0,124,_Remix_Guitar,6,3,_Remix_Guitar,0.42541858553886414,0
65,100,0.1409090909090909,286,1,125,_Remix_Guitar,6,2,_Remix_Guitar,0.9935031533241272,0
60,100,0.4409090909090909,87,1,126,_Remix_Guitar,6,7,_Remix_Guitar,0.9998297691345215,1
60,100,0.1,193,0,126,_Remix_Guitar,6,2,_Remix_Guitar,0.41892510652542114,0
63,100,0.1409090909090909,663,1,126,_Remix_Guitar,6,2,_Remix_Guitar,0.4196051359176636,0
58,100,0.17727272727272728,163,1,127,_Remix_Guitar,6,3,_Remix_Guitar,0.9998359680175781,1
63,100,0.21818181818181817,546,1,127,_Remix_Guitar,6,3,_Remix_Guitar,0.3396502435207367,0
58,100,0.2,734,0,127,_Remix_Guitar,6,3,_Remix_Guitar,0.29473990201950073,0
56,100,0.1,876,0,127,_Remix_Guitar,6,2,_Remix_Guitar,0.32461556792259216,0
58,100,0.2,436,1,128,_Remix_Guitar,6,3,_Remix_Guitar,0.992363452911377,0
53,100,0.1,285,1,130,_Remix_Guitar,6,2,_Remix_Guitar,0.9998379945755005,1
53,100,0.1590909090909091,321,0,130,_Remix_Guitar,6,3,_Remix_Guitar,0.2083854079246521,0
60,100,0.4772727272727273,479,0,130,_Remix_Guitar,6,8,_Remix_Guitar,0.19224022328853607,0
60,100,0.2818181818181818,704,0,130,_Remix_Guitar,6,5,_Remix_Guitar,0.20809319615364075,0
53,100,0.6,773,0,130,_Remix_Guitar,6,10,_Remix_Guitar,0.196188822388649,0
56,100,0.17727272727272728,39,1,131,_Remix_Guitar,6,3,_Remix_Guitar,0.9998531341552734,1
60,100,0.2590909090909091,338,1,131,_Remix_Guitar,6,4,_Remix_Guitar,0.33145812153816223,0
58,100,0.12272727272727273,400,0,131,_Remix_Guitar,6,2,_Remix_Guitar,0.2828323543071747,0
58,100,0.18181818181818182,431,0,131,_Remix_Guitar,6,3,_Remix_Guitar,0.30738145112991333,0
58,100,0.16363636363636364,751,1,132,_Remix_Guitar,6,3,_Remix_Guitar,0.9926137924194336,0
53,100,0.1409090909090909,603,1,133,_Remix_Guitar,6,2,_Remix_Guitar,0.9996217489242554,1
58,100,0.2772727272727273,831,0,133,_Remix_Guitar,6,4,_Remix_Guitar,0.5291714668273926,0
58,100,0.1409090909090909,30,1,134,_Remix_Guitar,6,2,_Remix_Guitar,0.9997102618217468,1
58,100,0.2636363636363636,70,0,134,_Remix_Guitar,6,4,_Remix_Guitar,0.05572817102074623,0
58,100,0.2409090909090909,273,0,134,_Remix_Guitar,6,4,_Remix_Guitar,0.049928002059459686,0
58,100,0.41818181818181815,352,0,134,_Remix_Guitar,6,7,_Remix_Guitar,0.04893979802727699,0
53,100,0.1,479,0,134,_Remix_Guitar,6,2,_Remix_Guitar,0.06173403188586235,0
53,100,0.1,546,0,134,_Remix_Guitar,6,2,_Remix_Guitar,0.06363780796527863,0
62,100,0.13636363636363635,678,0,134,_Remix_Guitar,6,2,_Remix_Guitar,0.0707710012793541,0
58,100,0.11818181818181818,721,0,134,_Remix_Guitar,6,2,_Remix_Guitar,0.06376197189092636,0
63,100,0.1,694,1,135,_Remix_Guitar,6,2,_Remix_Guitar,0.9996364116668701,1
63,100,0.1409090909090909,747,0,135,_Remix_Guitar,6,2,_Remix_Guitar,0.5483231544494629,0
63,100,0.38181818181818183,840,1,136,_Remix_Guitar,6,6,_Remix_Guitar,0.9929399490356445,0
58,100,0.4772727272727273,53,1,138,_Remix_Guitar,6,8,_Remix_Guitar,0.9998192191123962,1
58,100,0.17727272727272728,273,0,138,_Remix_Guitar,6,3,_Remix_Guitar,0.35542765259742737,0
58,100,0.2818181818181818,725,1,138,_Remix_Guitar,6,5,_Remix_Guitar,0.29637280106544495,0
53,100,0.1,796,0,138,_Remix_Guitar,6,2,_Remix_Guitar,0.3353519141674042,0
63,100,0.5,264,1,139,_Remix_Guitar,6,8,_Remix_Guitar,0.9998396635055542,1
55,100,0.12272727272727273,466,0,139,_Remix_Guitar,6,2,_Remix_Guitar,0.3512386083602905,0
53,100,0.12272727272727273,562,0,139,_Remix_Guitar,6,2,_Remix_Guitar,0.290276437997818,0
53,100,0.11818181818181818,594,0,139,_Remix_Guitar,6,2,_Remix_Guitar,0.3095051944255829,0
53,100,0.1,185,1,140,_Remix_Guitar,6,2,_Remix_Guitar,0.9998455047607422,1
53,100,0.2590909090909091,211,0,140,_Remix_Guitar,6,4,_Remix_Guitar,0.19846057891845703,0
53,100,0.13636363636363635,611,1,140,_Remix_Guitar,6,2,_Remix_Guitar,0.20158863067626953,0
58,100,0.18181818181818182,694,0,140,_Remix_Guitar,6,3,_Remix_Guitar,0.19961774349212646,0
53,100,0.2409090909090909,823,0,140,_Remix_Guitar,6,4,_Remix_Guitar,0.20968693494796753,0
58,100,0.2590909090909091,12,1,141,_Remix_Guitar,6,4,_Remix_Guitar,0.9997817873954773,1
58,100,0.2,75,0,141,_Remix_Guitar,6,3,_Remix_Guitar,0.13215872645378113,0
53,100,0.4,166,0,141,_Remix_Guitar,6,6,_Remix_Guitar,0.12763118743896484,0
53,100,0.35909090909090907,452,1,141,_Remix_Guitar,6,6,_Remix_Guitar,0.1440144181251526,0
53,100,0.1,576,0,141,_Remix_Guitar,6,2,_Remix_Guitar,0.15040002763271332,0
58,100,0.2,660,0,141,_Remix_Guitar,6,3,_Remix_Guitar,0.13323967158794403,0
58,100,0.1409090909090909,818,1,142,_Remix_Guitar,6,2,_Remix_Guitar,0.9925415515899658,1
58,100,0.21818181818181817,436,1,143,_Remix_Guitar,6,3,_Remix_Guitar,0.9923261404037476,0
63,100,0.18181818181818182,871,1,145,_Remix_Guitar,6,3,_Remix_Guitar,0.9931176900863647,0
55,100,0.4818181818181818,158,1,146,_Remix_Guitar,6,8,_Remix_Guitar,0.9998131394386292,1
55,100,0.1,342,0,146,_Remix_Guitar,6,2,_Remix_Guitar,0.4343357980251312,0
53,100,0.1,546,0,146,_Remix_Guitar,6,2,_Remix_Guitar,0.43078362941741943,0
59,100,0.1409090909090909,686,1,0,DL_warmFolk_Guitar,6,2,DL_warmFolk_Guitar,0.9933699369430542,0
67,100,0.18181818181818182,0,1,1,DL_warmFolk_Guitar,6,3,DL_warmFolk_Guitar,0.9998217225074768,1
57,100,0.22272727272727272,554,1,1,DL_warmFolk_Guitar,6,4,DL_warmFolk_Guitar,0.4178110361099243,0
56,100,0.1409090909090909,603,0,1,DL_warmFolk_Guitar,6,2,DL_warmFolk_Guitar,0.4330807626247406,0
59,100,0.18181818181818182,672,1,2,DL_warmFolk_Guitar,6,3,DL_warmFolk_Guitar,0.9932764768600464,0
55,100,0.35909090909090907,198,1,3,DL_warmFolk_Guitar,6,6,DL_warmFolk_Guitar,0.9998493194580078,1
61,100,0.1590909090909091,739,1,3,DL_warmFolk_Guitar,6,3,DL_warmFolk_Guitar,0.331523597240448,0
57,100,0.2590909090909091,782,0,3,DL_warmFolk_Guitar,6,4,DL_warmFolk_Guitar,0.28104034066200256,0
56,100,0.18181818181818182,840,0,3,DL_warmFolk_Guitar,6,3,DL_warmFolk_Guitar,0.31546351313591003,0
64,100,0.22272727272727272,532,1,4,DL_warmFolk_Guitar,6,4,DL_warmFolk_Guitar,0.9996390342712402,1
57,100,0.17727272727272728,655,0,4,DL_warmFolk_Guitar,6,3,DL_warmFolk_Guitar,0.5437617301940918,0
57,100,0.1,114,1,5,DL_warmFolk_Guitar,6,2,DL_warmFolk_Guitar,0.999853253364563,1
55,100,0.1590909090909091,145,0,5,DL_warmFolk_Guitar,6,3,DL_warmFolk_Guitar,0.31594759225845337,0
59,100,0.32272727272727275,268,0,5,DL_warmFolk_Guitar,6,5,DL_warmFolk_Guitar,0.28980693221092224,0
55,100,0.2,435,0,5,DL_warmFolk_Guitar,6,3,DL_warmFolk_Guitar,0.31093332171440125,0
57,100,0.2636363636363636,135,1,6,DL_warmFolk_Guitar,6,4,DL_warmFolk_Guitar,0.9996151924133301,1
56,100,0.2,201,0,6,DL_warmFolk_Guitar,6,3,DL_warmFolk_Guitar,0.5577578544616699,0
54,100,0.5409090909090909,255,1,7,DL_warmFolk_Guitar,6,9,DL_warmFolk_Guitar,0.9995920062065125,1
59,100,0.3,506,1,7,DL_warmFolk_Guitar,6,5,DL_warmFolk_Guitar,0.5577577948570251,0
57,100,0.2818181818181818,378,1,8,DL_warmFolk_Guitar,6,5,DL_warmFolk_Guitar,0.9998292922973633,1
56,100,0.2,440,0,8,DL_warmFolk_Guitar,6,3,DL_warmFolk_Guitar,0.41978543996810913,0
54,100,0.1409090909090909,615,0,8,DL_warmFolk_Guitar,6,2,DL_warmFolk_Guitar,0.4268384873867035,0
62,100,0.22272727272727272,312,1,9,DL_warmFolk_Guitar,6,4,DL_warmFolk_Guitar,0.9998061060905457,1
57,100,0.8772727272727273,369,0,9,DL_warmFolk_Guitar,6,14,DL_warmFolk_Guitar,0.11197272688150406,0
57,100,0.1,572,0,9,DL_warmFolk_Guitar,6,2,DL_warmFolk_Guitar,0.13244715332984924,0
55,100,0.1,615,0,9,DL_warmFolk_Guitar,6,2,DL_warmFolk_Guitar,0.13572309911251068,0
59,100,0.2772727272727273,735,0,9,DL_warmFolk_Guitar,6,4,DL_warmFolk_Guitar,0.14405637979507446,0
62,100,0.2,809,0,9,DL_warmFolk_Guitar,6,3,DL_warmFolk_Guitar,0.13470979034900665,0
55,100,0.21818181818181817,30,1,10,DL_warmFolk_Guitar,6,3,DL_warmFolk_Guitar,0.9998459815979004,1
55,100,0.23636363636363636,106,0,10,DL_warmFolk_Guitar,6,4,DL_warmFolk_Guitar,0.3228681683540344,0
57,100,0.2,527,1,10,DL_warmFolk_Guitar,6,3,DL_warmFolk_Guitar,0.28624993562698364,0
61,100,0.1,694,0,10,DL_warmFolk_Guitar,6,2,DL_warmFolk_Guitar,0.32059237360954285,0
62,100,0.11818181818181818,615,1,12,DL_warmFolk_Guitar,6,2,DL_warmFolk_Guitar,0.9998573064804077,1
57,100,0.1409090909090909,730,0,12,DL_warmFolk_Guitar,6,2,DL_warmFolk_Guitar,0.30172833800315857,0
59,100,0.21818181818181817,787,0,12,DL_warmFolk_Guitar,6,3,DL_warmFolk_Guitar,0.296828031539917,0
62,100,0.1409090909090909,845,0,12,DL_warmFolk_Guitar,6,2,DL_warmFolk_Guitar,0.3106256425380707,0
57,100,0.2818181818181818,268,1,13,DL_warmFolk_Guitar,6,5,DL_warmFolk_Guitar,0.9998445510864258,1
57,100,0.13636363636363635,414,0,13,DL_warmFolk_Guitar,6,2,DL_warmFolk_Guitar,0.3324778378009796,0
59,100,0.2409090909090909,581,0,13,DL_warmFolk_Guitar,6,4,DL_warmFolk_Guitar,0.29188796877861023,0
61,100,0.2409090909090909,835,1,13,DL_warmFolk_Guitar,6,4,DL_warmFolk_Guitar,0.3097766637802124,0
57,100,0.2,25,1,14,DL_warmFolk_Guitar,6,3,DL_warmFolk_Guitar,0.9998509883880615,1
52,100,0.11818181818181818,87,0,14,DL_warmFolk_Guitar,6,2,DL_warmFolk_Guitar,0.33812931180000305,0
62,100,0.22272727272727272,386,1,14,DL_warmFolk_Guitar,6,4,DL_warmFolk_Guitar,0.2901574373245239,0
55,100,0.1,527,0,14,DL_warmFolk_Guitar,6,2,DL_warmFolk_Guitar,0.294223427772522,0
57,100,0.5590909090909091,519,1,80,DL_warmFolk_Guitar,6,9,DL_warmFolk_Guitar,0.9998065829277039,1
62,100,0.5590909090909091,646,0,80,DL_warmFolk_Guitar,6,9,DL_warmFolk_Guitar,0.42933639883995056,0
64,100,0.2590909090909091,770,0,80,DL_warmFolk_Guitar,6,4,DL_warmFolk_Guitar,0.4445250928401947,0
69,100,0.1,17,1,81,DL_warmFolk_Guitar,6,2,DL_warmFolk_Guitar,0.9997989535331726,1
71,100,0.6590909090909091,53,0,81,DL_warmFolk_Guitar,6,11,DL_warmFolk_Guitar,0.11609303951263428,0
74,100,0.3181818181818182,206,0,81,DL_warmFolk_Guitar,6,5,DL_warmFolk_Guitar,0.13385015726089478,0
71,100,1.2181818181818183,370,0,81,DL_warmFolk_Guitar,6,15,DL_warmFolk_Guitar,0.12607447803020477,0
69,100,0.5,642,1,81,DL_warmFolk_Guitar,6,8,DL_warmFolk_Guitar,0.1687806099653244,0
69,100,0.5772727272727273,756,0,81,DL_warmFolk_Guitar,6,9,DL_warmFolk_Guitar,0.14660978317260742,0
67,100,0.5590909090909091,9,1,82,DL_warmFolk_Guitar,6,9,DL_warmFolk_Guitar,0.9998095631599426,1
66,100,0.740909090909091,132,0,82,DL_warmFolk_Guitar,6,12,DL_warmFolk_Guitar,0.22707553207874298,0
69,100,0.5590909090909091,316,0,82,DL_warmFolk_Guitar,6,9,DL_warmFolk_Guitar,0.21562139689922333,0
69,100,0.17727272727272728,457,0,82,DL_warmFolk_Guitar,6,3,DL_warmFolk_Guitar,0.23947876691818237,0
62,100,2.9,502,0,82,DL_warmFolk_Guitar,6,15,DL_warmFolk_Guitar,0.19457629323005676,0
74,100,0.2772727272727273,260,1,83,DL_warmFolk_Guitar,6,4,DL_warmFolk_Guitar,0.9997590184211731,1
62,100,0.4818181818181818,320,0,83,DL_warmFolk_Guitar,6,8,DL_warmFolk_Guitar,0.08063586801290512,0
74,100,0.3409090909090909,426,0,83,DL_warmFolk_Guitar,6,5,DL_warmFolk_Guitar,0.07804130762815475,0
76,100,0.1,502,0,83,DL_warmFolk_Guitar,6,2,DL_warmFolk_Guitar,0.08412043750286102,0
74,100,0.4,527,0,83,DL_warmFolk_Guitar,6,6,DL_warmFolk_Guitar,0.08658914268016815,0
78,100,1.018181818181818,624,0,83,DL_warmFolk_Guitar,6,15,DL_warmFolk_Guitar,0.09325792640447617,0
74,100,0.5181818181818182,876,1,83,DL_warmFolk_Guitar,6,8,DL_warmFolk_Guitar,0.09948170930147171,0
76,100,0.5818181818181818,113,1,84,DL_warmFolk_Guitar,6,9,DL_warmFolk_Guitar,0.9997643828392029,1
73,100,0.5409090909090909,242,0,84,DL_warmFolk_Guitar,6,9,DL_warmFolk_Guitar,0.07837262004613876,0
78,100,0.8227272727272728,365,0,84,DL_warmFolk_Guitar,6,13,DL_warmFolk_Guitar,0.07640395313501358,0
74,100,0.1,550,0,84,DL_warmFolk_Guitar,6,2,DL_warmFolk_Guitar,0.09520880877971649,0
76,100,0.35909090909090907,572,0,84,DL_warmFolk_Guitar,6,6,DL_warmFolk_Guitar,0.09644660353660583,0
78,100,0.1590909090909091,690,0,84,DL_warmFolk_Guitar,6,3,DL_warmFolk_Guitar,0.10314717143774033,0
74,100,2.8181818181818183,734,0,84,DL_warmFolk_Guitar,6,15,DL_warmFolk_Guitar,0.08004043996334076,0
78,100,0.5590909090909091,527,1,85,DL_warmFolk_Guitar,6,9,DL_warmFolk_Guitar,0.9998281002044678,1
57,100,0.5409090909090909,713,0,85,DL_warmFolk_Guitar,6,9,DL_warmFolk_Guitar,0.33886003494262695,0
69,100,0.11818181818181818,832,0,85,DL_warmFolk_Guitar,6,2,DL_warmFolk_Guitar,0.3065528869628906,0
74,100,0.38181818181818183,870,0,85,DL_warmFolk_Guitar,6,6,DL_warmFolk_Guitar,0.3116653859615326,0
76,100,0.1590909090909091,96,1,86,DL_warmFolk_Guitar,6,3,DL_warmFolk_Guitar,0.9997156262397766,1
57,100,0.38181818181818183,132,0,86,DL_warmFolk_Guitar,6,6,DL_warmFolk_Guitar,0.04054993763566017,0
69,100,0.6,216,0,86,DL_warmFolk_Guitar,6,10,DL_warmFolk_Guitar,0.032453861087560654,0
74,100,0.5,352,0,86,DL_warmFolk_Guitar,6,8,DL_warmFolk_Guitar,0.03253605589270592,0
76,100,0.18181818181818182,466,0,86,DL_warmFolk_Guitar,6,3,DL_warmFolk_Guitar,0.03399668633937836,0
78,100,0.3,514,0,86,DL_warmFolk_Guitar,6,5,DL_warmFolk_Guitar,0.03295332193374634,0
76,100,0.9,590,0,86,DL_warmFolk_Guitar,6,14,DL_warmFolk_Guitar,0.04032157361507416,0
81,100,0.3181818181818182,792,0,86,DL_warmFolk_Guitar,6,5,DL_warmFolk_Guitar,0.04984358698129654,0
57,100,0.4409090909090909,862,0,86,DL_warmFolk_Guitar,6,7,DL_warmFolk_Guitar,0.048042453825473785,0
74,100,1.1409090909090909,87,1,87,DL_warmFolk_Guitar,6,15,DL_warmFolk_Guitar,0.9997643828392029,1
66,100,0.2818181818181818,343,1,87,DL_warmFolk_Guitar,6,5,DL_warmFolk_Guitar,0.1486612856388092,0
66,100,0.7772727272727272,470,0,87,DL_warmFolk_Guitar,6,12,DL_warmFolk_Guitar,0.11927783489227295,0
66,100,0.12272727272727273,695,0,87,DL_warmFolk_Guitar,6,2,DL_warmFolk_Guitar,0.15537969768047333,0
62,100,0.43636363636363634,722,0,87,DL_warmFolk_Guitar,6,7,DL_warmFolk_Guitar,0.14942917227745056,0
64,100,0.740909090909091,836,0,87,DL_warmFolk_Guitar,6,12,DL_warmFolk_Guitar,0.1349674016237259,0
66,100,0.6,132,1,88,DL_warmFolk_Guitar,6,10,DL_warmFolk_Guitar,0.9997909665107727,1
61,100,0.5590909090909091,299,0,88,DL_warmFolk_Guitar,6,9,DL_warmFolk_Guitar,0.1344485878944397,0
62,100,0.32272727272727275,453,0,88,DL_warmFolk_Guitar,6,5,DL_warmFolk_Guitar,0.13360515236854553,0
62,100,0.1590909090909091,536,0,88,DL_warmFolk_Guitar,6,3,DL_warmFolk_Guitar,0.1477643847465515,0
61,100,0.5590909090909091,572,0,88,DL_warmFolk_Guitar,6,9,DL_warmFolk_Guitar,0.14689555764198303,0
62,100,2.459090909090909,700,0,88,DL_warmFolk_Guitar,6,15,DL_warmFolk_Guitar,0.12743408977985382,0
55,100,0.2590909090909091,475,1,0,_Guitar,6,4,_Guitar,0.9998540878295898,1
52,100,0.1590909090909091,704,0,0,_Guitar,6,3,_Guitar,0.3330250084400177,0
52,100,0.17727272727272728,757,0,0,_Guitar,6,3,_Guitar,0.2923417389392853,0
55,100,0.35909090909090907,871,0,0,_Guitar,6,6,_Guitar,0.290141224861145,0
55,100,0.18181818181818182,597,1,1,_Guitar,6,3,_Guitar,0.9996131062507629,1
55,100,0.3,642,0,1,_Guitar,6,5,_Guitar,0.5517900586128235,0
55,100,0.11818181818181818,339,1,2,_Guitar,6,2,_Guitar,0.9996103644371033,1
60,100,0.2590909090909091,474,0,2,_Guitar,6,4,_Guitar,0.5515604019165039,0
55,100,0.32272727272727275,136,1,3,_Guitar,6,5,_Guitar,0.9998250603675842,1
53,100,0.2590909090909091,351,0,3,_Guitar,6,4,_Guitar,0.21894758939743042,0
53,100,0.1409090909090909,537,0,3,_Guitar,6,2,_Guitar,0.20614780485630035,0
57,100,0.5,571,0,3,_Guitar,6,8,_Guitar,0.1965673267841339,0
57,100,0.2590909090909091,703,0,3,_Guitar,6,4,_Guitar,0.21976107358932495,0
57,100,0.1590909090909091,61,1,4,_Guitar,6,3,_Guitar,0.999798595905304,1
53,100,0.35909090909090907,101,0,4,_Guitar,6,6,_Guitar,0.12831836938858032,0
52,100,0.2,179,0,4,_Guitar,6,3,_Guitar,0.1254522204399109,0
52,100,0.2,238,0,4,_Guitar,6,3,_Guitar,0.13634388148784637,0
55,100,0.1409090909090909,317,0,4,_Guitar,6,2,_Guitar,0.13442862033843994,0
60,100,0.4,496,0,4,_Guitar,6,6,_Guitar,0.13314178586006165,0
57,100,0.5,317,1,5,_Guitar,6,8,_Guitar,0.9995520710945129,1
55,100,1.0,744,1,5,_Guitar,6,15,_Guitar,0.5467716455459595,0
55,100,0.1409090909090909,135,1,6,_Guitar,6,2,_Guitar,0.9998194575309753,1
52,100,0.5590909090909091,352,0,6,_Guitar,6,9,_Guitar,0.42095324397087097,0
55,100,1.3818181818181818,483,0,6,_Guitar,6,15,_Guitar,0.4080848693847656,0
55,100,0.8590909090909091,220,1,7,_Guitar,6,14,_Guitar,0.9915675520896912,0
52,100,0.7181818181818181,250,1,8,_Guitar,6,11,_Guitar,0.9997934699058533,1
55,100,0.33636363636363636,436,0,8,_Guitar,6,5,_Guitar,0.1277717798948288,0
55,100,0.1590909090909091,515,0,8,_Guitar,6,3,_Guitar,0.12811003625392914,0
57,100,0.7772727272727272,567,0,8,_Guitar,6,12,_Guitar,0.12894409894943237,0
57,100,0.4,744,0,8,_Guitar,6,6,_Guitar,0.16151946783065796,0
53,100,0.759090909090909,871,0,8,_Guitar,6,12,_Guitar,0.1366218626499176,0
53,100,0.18181818181818182,166,1,9,_Guitar,6,3,_Guitar,0.9998308420181274,1
53,100,0.11818181818181818,259,0,9,_Guitar,6,2,_Guitar,0.41798850893974304,0
57,100,1.3590909090909091,295,0,9,_Guitar,6,15,_Guitar,0.39660295844078064,0
52,100,0.6818181818181818,44,1,10,_Guitar,6,11,_Guitar,0.9995763897895813,1
55,100,0.9818181818181818,660,1,10,_Guitar,6,15,_Guitar,0.5399032235145569,0
55,100,0.3,0,1,11,_Guitar,6,5,_Guitar,0.9997497200965881,1
52,100,0.6181818181818182,228,0,11,_Guitar,6,10,_Guitar,0.08345742523670197,0
55,100,0.4590909090909091,383,0,11,_Guitar,6,7,_Guitar,0.07081654667854309,0
55,100,0.11818181818181818,493,0,11,_Guitar,6,2,_Guitar,0.08885271847248077,0
53,100,0.3181818181818182,646,0,11,_Guitar,6,5,_Guitar,0.09371734410524368,0
57,100,0.2409090909090909,783,0,11,_Guitar,6,4,_Guitar,0.09734972566366196,0
53,100,0.18181818181818182,849,0,11,_Guitar,6,3,_Guitar,0.09554336220026016,0
55,100,0.1,352,1,12,_Guitar,6,2,_Guitar,0.999850869178772,1
55,100,0.38181818181818183,462,0,12,_Guitar,6,6,_Guitar,0.3129824697971344,0
55,100,0.21818181818181817,634,0,12,_Guitar,6,3,_Guitar,0.29994359612464905,0
55,100,0.4,871,1,12,_Guitar,6,6,_Guitar,0.3053324222564697,0
52,100,0.21818181818181817,110,1,13,_Guitar,6,3,_Guitar,0.9998549222946167,1
52,100,0.6,171,0,13,_Guitar,6,10,_Guitar,0.3030077815055847,0
60,100,0.32272727272727275,321,0,13,_Guitar,6,5,_Guitar,0.2997840642929077,0
55,100,0.2409090909090909,663,1,13,_Guitar,6,4,_Guitar,0.3010212481021881,0
57,100,0.35909090909090907,206,1,14,_Guitar,6,6,_Guitar,0.9998475313186646,1
60,100,0.2818181818181818,386,0,14,_Guitar,6,5,_Guitar,0.33652907609939575,0
53,100,0.21818181818181817,493,0,14,_Guitar,6,3,_Guitar,0.2901483178138733,0
62,100,0.37727272727272726,546,0,14,_Guitar,6,6,_Guitar,0.30083513259887695,0
52,100,0.35909090909090907,189,1,15,_Guitar,6,6,_Guitar,0.9998393058776855,1
64,100,0.2,716,1,15,_Guitar,6,3,_Guitar,0.41728273034095764,0
64,100,0.1,766,0,15,_Guitar,6,2,_Guitar,0.4211215674877167,0
57,100,0.3181818181818182,281,1,16,_Guitar,6,5,_Guitar,0.9998465776443481,1
52,100,0.2,598,1,16,_Guitar,6,3,_Guitar,0.343581885099411,0
52,100,0.18181818181818182,650,0,16,_Guitar,6,3,_Guitar,0.28855451941490173,0
57,100,0.12272727272727273,804,0,16,_Guitar,6,2,_Guitar,0.29806196689605713,0
59,100,1.2,9,1,17,_Guitar,6,15,_Guitar,0.9997759461402893,1
53,100,0.18181818181818182,285,1,17,_Guitar,6,3,_Guitar,0.4752053916454315,0
57,100,0.21818181818181817,470,0,17,_Guitar,6,3,_Guitar,0.4355742633342743,0
56,100,0.7181818181818181,656,1,18,_Guitar,6,11,_Guitar,0.9923366904258728,0
56,100,0.2409090909090909,88,1,19,_Guitar,6,4,_Guitar,0.9996017813682556,1
56,100,0.8590909090909091,144,0,19,_Guitar,6,14,_Guitar,0.5413318276405334,0
57,100,0.18181818181818182,88,1,20,_Guitar,6,3,_Guitar,0.9929325580596924,0
55,100,0.2590909090909091,131,1,22,_Guitar,6,4,_Guitar,0.9998301267623901,1
55,100,0.3409090909090909,210,0,22,_Guitar,6,5,_Guitar,0.21566316485404968,0
55,100,0.1409090909090909,333,0,22,_Guitar,6,2,_Guitar,0.19637545943260193,0
55,100,0.5409090909090909,405,0,22,_Guitar,6,9,_Guitar,0.20939476788043976,0
52,100,0.33636363636363636,831,1,22,_Guitar,6,5,_Guitar,0.2100137621164322,0
52,100,0.2590909090909091,61,1,23,_Guitar,6,4,_Guitar,0.9997684359550476,1
52,100,0.5590909090909091,123,0,23,_Guitar,6,9,_Guitar,0.07743952423334122,0
52,100,0.2818181818181818,277,0,23,_Guitar,6,5,_Guitar,0.07735317200422287,0
55,100,0.32272727272727275,356,0,23,_Guitar,6,5,_Guitar,0.07711600512266159,0
52,100,0.3409090909090909,426,0,23,_Guitar,6,5,_Guitar,0.09629835933446884,0
55,100,0.5181818181818182,581,0,23,_Guitar,6,8,_Guitar,0.08706548064947128,0
55,100,0.37727272727272726,779,0,23,_Guitar,6,6,_Guitar,0.08984167873859406,0
55,100,0.16363636363636364,113,1,24,_Guitar,6,3,_Guitar,0.9997010827064514,1
55,100,0.22272727272727272,246,0,24,_Guitar,6,4,_Guitar,0.04193545877933502,0
53,100,0.4409090909090909,308,0,24,_Guitar,6,7,_Guitar,0.03262978792190552,0
53,100,0.4,430,0,24,_Guitar,6,6,_Guitar,0.030754761770367622,0
53,100,0.4,594,0,24,_Guitar,6,6,_Guitar,0.030865788459777832,0
57,100,0.3,694,0,24,_Guitar,6,5,_Guitar,0.033537011593580246,0
53,100,0.2,770,0,24,_Guitar,6,3,_Guitar,0.04214578494429588,0
57,100,0.1,822,0,24,_Guitar,6,2,_Guitar,0.048695310950279236,0
53,100,0.1590909090909091,853,0,24,_Guitar,6,3,_Guitar,0.04703325405716896,0
55,100,0.5636363636363636,69,1,25,_Guitar,6,9,_Guitar,0.9996991157531738,1
52,100,0.12272727272727273,210,0,25,_Guitar,6,2,_Guitar,0.06441815942525864,0
52,100,0.17727272727272728,250,0,25,_Guitar,6,3,_Guitar,0.046719230711460114,0
52,100,0.21818181818181817,374,0,25,_Guitar,6,3,_Guitar,0.045862749218940735,0
52,100,0.1,457,0,25,_Guitar,6,2,_Guitar,0.05250800773501396,0
55,100,0.11818181818181818,492,0,25,_Guitar,6,2,_Guitar,0.056448012590408325,0
52,100,0.6227272727272727,663,0,25,_Guitar,6,10,_Guitar,0.06349240988492966,0
57,100,0.3,839,0,25,_Guitar,6,5,_Guitar,0.05893443152308464,0
52,100,0.18181818181818182,443,1,26,_Guitar,6,3,_Guitar,0.9998630285263062,1
52,100,0.35909090909090907,501,0,26,_Guitar,6,6,_Guitar,0.31266194581985474,0
52,100,0.42272727272727273,752,1,26,_Guitar,6,7,_Guitar,0.2882852554321289,0
52,100,0.5818181818181818,862,0,26,_Guitar,6,9,_Guitar,0.2968961298465729,0
53,100,0.12272727272727273,123,1,27,_Guitar,6,2,_Guitar,0.9997712969779968,1
53,100,0.2818181818181818,154,0,27,_Guitar,6,5,_Guitar,0.07593891769647598,0
53,100,0.2590909090909091,220,0,27,_Guitar,6,4,_Guitar,0.07345792651176453,0
53,100,0.4590909090909091,413,0,27,_Guitar,6,7,_Guitar,0.07735911011695862,0
57,100,0.1590909090909091,615,0,27,_Guitar,6,3,_Guitar,0.09040067344903946,0
53,100,0.2818181818181818,660,0,27,_Guitar,6,5,_Guitar,0.09713102877140045,0
55,100,0.1,791,0,27,_Guitar,6,2,_Guitar,0.0854615643620491,0
55,100,0.11818181818181818,285,1,28,_Guitar,6,2,_Guitar,0.999847412109375,1
52,100,0.11818181818181818,470,0,28,_Guitar,6,2,_Guitar,0.34384989738464355,0
52,100,0.2,717,1,28,_Guitar,6,3,_Guitar,0.28897637128829956,0
52,100,0.3409090909090909,773,0,28,_Guitar,6,5,_Guitar,0.29819172620773315,0
55,100,0.1590909090909091,17,1,29,_Guitar,6,3,_Guitar,0.9997996687889099,1
55,100,0.5,206,0,29,_Guitar,6,8,_Guitar,0.12256941944360733,0
55,100,0.3181818181818182,426,0,29,_Guitar,6,5,_Guitar,0.12635840475559235,0
62,100,0.1409090909090909,584,0,29,_Guitar,6,2,_Guitar,0.14103801548480988,0
55,100,0.11818181818181818,735,0,29,_Guitar,6,2,_Guitar,0.14175185561180115,0
53,100,0.3,818,0,29,_Guitar,6,5,_Guitar,0.13238529860973358,0
53,100,0.2818181818181818,92,1,30,_Guitar,6,5,_Guitar,0.9998353719711304,1
53,100,0.32272727272727275,223,0,30,_Guitar,6,5,_Guitar,0.20831552147865295,0
53,100,0.37727272727272726,303,0,30,_Guitar,6,6,_Guitar,0.19115373492240906,0
53,100,0.11818181818181818,413,0,30,_Guitar,6,2,_Guitar,0.21638864278793335,0
53,100,0.32272727272727275,474,0,30,_Guitar,6,5,_Guitar,0.19927437603473663,0
52,100,0.1590909090909091,285,1,31,_Guitar,6,3,_Guitar,0.9998065829277039,1
52,100,0.1,333,0,31,_Guitar,6,2,_Guitar,0.12776382267475128,0
52,100,0.5,430,0,31,_Guitar,6,8,_Guitar,0.11746835708618164,0
52,100,0.8409090909090909,576,0,31,_Guitar,6,13,_Guitar,0.12687766551971436,0
57,100,0.1590909090909091,760,0,31,_Guitar,6,3,_Guitar,0.15116456151008606,0
57,100,0.11818181818181818,801,0,31,_Guitar,6,2,_Guitar,0.12930762767791748,0
62,100,0.13636363636363635,348,1,32,_Guitar,6,2,_Guitar,0.9996198415756226,1
55,100,0.7181818181818181,778,1,32,_Guitar,6,11,_Guitar,0.529100775718689,0
55,100,0.11818181818181818,206,1,33,_Guitar,6,2,_Guitar,0.9998099207878113,1
52,100,0.2,295,0,33,_Guitar,6,3,_Guitar,0.13126251101493835,0
52,100,0.2,461,0,33,_Guitar,6,3,_Guitar,0.12248098105192184,0
52,100,0.1,691,0,33,_Guitar,6,2,_Guitar,0.13598652184009552,0
67,100,0.1590909090909091,783,0,33,_Guitar,6,3,_Guitar,0.13126398622989655,0
55,100,0.5409090909090909,818,0,33,_Guitar,6,9,_Guitar,0.12793640792369843,0
60,100,0.1409090909090909,541,1,34,_Guitar,6,2,_Guitar,0.999642014503479,1
55,100,0.18181818181818182,871,1,34,_Guitar,6,3,_Guitar,0.5444254875183105,0
62,100,1.018181818181818,141,1,35,_Guitar,6,15,_Guitar,0.9998010993003845,1
57,100,0.16363636363636364,444,1,35,_Guitar,6,3,_Guitar,0.23695655167102814,0
57,100,0.4,660,0,35,_Guitar,6,6,_Guitar,0.19896620512008667,0
60,100,0.11818181818181818,765,0,35,_Guitar,6,2,_Guitar,0.22565911710262299,0
57,100,0.12272727272727273,826,0,35,_Guitar,6,2,_Guitar,0.20382528007030487,0
57,100,0.22272727272727272,26,1,36,_Guitar,6,4,_Guitar,0.9996144771575928,1
62,100,0.3409090909090909,554,1,36,_Guitar,6,5,_Guitar,0.5559576153755188,0
53,100,0.11818181818181818,220,1,37,_Guitar,6,2,_Guitar,0.9998400211334229,1
52,100,0.13636363636363635,700,1,37,_Guitar,6,2,_Guitar,0.4099162518978119,0
52,100,0.3181818181818182,866,0,37,_Guitar,6,5,_Guitar,0.41707807779312134,0
52,100,0.3409090909090909,96,1,38,_Guitar,6,5,_Guitar,0.9997690320014954,1
60,100,0.4,171,0,38,_Guitar,6,6,_Guitar,0.07665443420410156,0
57,100,0.35909090909090907,260,0,38,_Guitar,6,6,_Guitar,0.07057835906744003,0
57,100,0.740909090909091,386,0,38,_Guitar,6,12,_Guitar,0.07994628697633743,0
62,100,0.3181818181818182,646,1,38,_Guitar,6,5,_Guitar,0.09929126501083374,0
57,100,0.12272727272727273,738,0,38,_Guitar,6,2,_Guitar,0.1013617143034935,0
53,100,0.3181818181818182,810,0,38,_Guitar,6,5,_Guitar,0.09102024137973785,0
62,100,0.17727272727272728,361,1,39,_Guitar,6,3,_Guitar,0.9998295307159424,1
59,100,0.2,471,0,39,_Guitar,6,3,_Guitar,0.40273529291152954,0
52,100,0.6227272727272727,774,1,39,_Guitar,6,10,_Guitar,0.43023163080215454,0
60,100,0.5181818181818182,75,1,40,_Guitar,6,8,_Guitar,0.9998332262039185,1
52,100,0.2818181818181818,201,0,40,_Guitar,6,5,_Guitar,0.21897965669631958,0
55,100,0.13636363636363635,303,0,40,_Guitar,6,2,_Guitar,0.19016197323799133,0
55,100,0.2409090909090909,488,0,40,_Guitar,6,4,_Guitar,0.21404197812080383,0
55,100,0.36363636363636365,796,1,40,_Guitar,6,6,_Guitar,0.2014247179031372,0
67,100,0.2,0,1,41,_Guitar,6,3,_Guitar,0.9998425245285034,1
60,100,0.6409090909090909,396,1,41,_Guitar,6,10,_Guitar,0.3247952461242676,0
57,100,0.12272727272727273,541,0,41,_Guitar,6,2,_Guitar,0.30209121108055115,0
57,100,0.33636363636363636,611,0,41,_Guitar,6,5,_Guitar,0.3086353838443756,0
62,100,0.3,211,1,42,_Guitar,6,5,_Guitar,0.9998292922973633,1
57,100,0.6590909090909091,426,0,42,_Guitar,6,11,_Guitar,0.20056651532649994,0
57,100,0.41818181818181815,633,0,42,_Guitar,6,7,_Guitar,0.2026962786912918,0
60,100,0.16363636363636364,751,0,42,_Guitar,6,3,_Guitar,0.22044755518436432,0
60,100,0.22272727272727272,839,0,42,_Guitar,6,4,_Guitar,0.20542286336421967,0
60,100,0.38181818181818183,43,1,43,_Guitar,6,6,_Guitar,0.9998302459716797,1
55,100,0.3181818181818182,383,1,43,_Guitar,6,5,_Guitar,0.38778239488601685,0
55,100,0.16363636363636364,509,0,43,_Guitar,6,3,_Guitar,0.4425179660320282,0
52,100,0.4818181818181818,48,1,44,_Guitar,6,8,_Guitar,0.9998064637184143,1
60,100,0.18181818181818182,351,1,44,_Guitar,6,3,_Guitar,0.1330053210258484,0
60,100,0.2818181818181818,408,0,44,_Guitar,6,5,_Guitar,0.12599900364875793,0
55,100,0.3181818181818182,515,0,44,_Guitar,6,5,_Guitar,0.1332683116197586,0
55,100,0.2590909090909091,616,0,44,_Guitar,6,4,_Guitar,0.14794215559959412,0
52,100,1.7,678,0,44,_Guitar,6,15,_Guitar,0.12547089159488678,0
60,100,0.12272727272727273,201,1,45,_Guitar,6,2,_Guitar,0.9998437166213989,1
53,100,0.11818181818181818,238,0,45,_Guitar,6,2,_Guitar,0.39872607588768005,0
53,100,0.18181818181818182,791,1,45,_Guitar,6,3,_Guitar,0.4188564717769623,0
59,100,0.8227272727272728,276,1,46,_Guitar,6,13,_Guitar,0.999536395072937,1
52,100,0.8,581,1,46,_Guitar,6,13,_Guitar,0.5633729100227356,0
52,100,0.2772727272727273,31,1,47,_Guitar,6,4,_Guitar,0.9996154308319092,1
62,100,0.9,105,0,47,_Guitar,6,14,_Guitar,0.5343437194824219,0
53,100,0.2636363636363636,686,1,50,_Guitar,6,4,_Guitar,0.9996073842048645,1
53,100,1.4,748,0,50,_Guitar,6,15,_Guitar,0.5256103873252869,0
60,100,0.759090909090909,185,1,51,_Guitar,6,12,_Guitar,0.9998167157173157,1
53,100,0.4,391,0,51,_Guitar,6,6,_Guitar,0.41324520111083984,0
59,100,0.4409090909090909,550,0,51,_Guitar,6,7,_Guitar,0.4306734800338745,0
55,100,0.1,276,1,52,_Guitar,6,2,_Guitar,0.999817430973053,1
52,100,1.0818181818181818,528,1,52,_Guitar,6,15,_Guitar,0.3917072117328644,0
52,100,0.5818181818181818,826,1,52,_Guitar,6,9,_Guitar,0.4468767046928406,0
52,100,0.1590909090909091,96,1,53,_Guitar,6,3,_Guitar,0.9998162388801575,1
52,100,0.22272727272727272,166,0,53,_Guitar,6,4,_Guitar,0.12376763671636581,0
60,100,0.4590909090909091,308,0,53,_Guitar,6,7,_Guitar,0.11681236326694489,0
55,100,0.2772727272727273,493,0,53,_Guitar,6,4,_Guitar,0.13370634615421295,0
57,100,0.18181818181818182,703,0,53,_Guitar,6,3,_Guitar,0.14281928539276123,0
57,100,0.21818181818181817,770,0,53,_Guitar,6,3,_Guitar,0.13093158602714539,0
57,100,0.18181818181818182,616,1,54,_Guitar,6,3,_Guitar,0.9930315017700195,1
55,100,0.4590909090909091,383,1,55,_Guitar,6,7,_Guitar,0.991983950138092,0
57,100,0.1409090909090909,541,1,56,_Guitar,6,2,_Guitar,0.9928984642028809,1
57,100,1.0818181818181818,748,1,57,_Guitar,6,15,_Guitar,0.9913920164108276,0
55,100,0.18181818181818182,399,1,58,_Guitar,6,3,_Guitar,0.9998205304145813,1
55,100,0.11818181818181818,506,0,58,_Guitar,6,2,_Guitar,0.42309704422950745,0
55,100,1.9227272727272726,598,0,58,_Guitar,6,15,_Guitar,0.39755120873451233,0
53,100,0.8181818181818182,193,1,59,_Guitar,6,13,_Guitar,0.99982750415802,1
60,100,0.2590909090909091,418,0,59,_Guitar,6,4,_Guitar,0.3541015684604645,0
55,100,1.2181818181818183,506,0,59,_Guitar,6,15,_Guitar,0.2613258957862854,0
52,100,0.18181818181818182,813,1,59,_Guitar,6,3,_Guitar,0.3496684730052948,0
57,100,0.4,0,1,61,_Guitar,6,6,_Guitar,0.9924687743186951,0
55,100,0.12272727272727273,861,1,62,_Guitar,6,2,_Guitar,0.9934117197990417,0
55,100,0.7181818181818181,370,1,63,_Guitar,6,11,_Guitar,0.9998263716697693,1
55,100,0.13636363636363635,633,1,63,_Guitar,6,2,_Guitar,0.3591592013835907,0
55,100,0.6772727272727272,668,0,63,_Guitar,6,11,_Guitar,0.281808465719223,0
55,100,0.6181818181818182,823,0,63,_Guitar,6,10,_Guitar,0.32423949241638184,0
55,100,0.1,96,1,64,_Guitar,6,2,_Guitar,0.993228018283844,0
52,100,0.11818181818181818,197,1,65,_Guitar,6,2,_Guitar,0.9996999502182007,1
52,100,0.1,250,0,65,_Guitar,6,2,_Guitar,0.036044277250766754,0
57,100,0.13636363636363635,282,0,65,_Guitar,6,2,_Guitar,0.02411704696714878,0
55,100,0.1590909090909091,457,0,65,_Guitar,6,3,_Guitar,0.021348271518945694,0
55,100,0.1409090909090909,496,0,65,_Guitar,6,2,_Guitar,0.01918199472129345,0
55,100,0.18181818181818182,540,0,65,_Guitar,6,3,_Guitar,0.019349057227373123,0
55,100,0.11818181818181818,590,0,65,_Guitar,6,2,_Guitar,0.022861851379275322,0
55,100,0.5409090909090909,619,0,65,_Guitar,6,9,_Guitar,0.02737235091626644,0
55,100,0.11818181818181818,756,0,65,_Guitar,6,2,_Guitar,0.040588174015283585,0
52,100,0.5363636363636364,787,0,65,_Guitar,6,9,_Guitar,0.03811056911945343,0
55,100,0.4818181818181818,35,1,66,_Guitar,6,8,_Guitar,0.9998252987861633,1
53,100,0.2590909090909091,184,0,66,_Guitar,6,4,_Guitar,0.22433865070343018,0
53,100,0.2772727272727273,470,1,66,_Guitar,6,4,_Guitar,0.1981351673603058,0
53,100,0.2409090909090909,572,0,66,_Guitar,6,4,_Guitar,0.2116876244544983,0
55,100,0.41818181818181815,726,0,66,_Guitar,6,7,_Guitar,0.1999850869178772,0
52,100,0.12272727272727273,13,1,67,_Guitar,6,2,_Guitar,0.9998422861099243,1
55,100,0.1590909090909091,66,0,67,_Guitar,6,3,_Guitar,0.403521329164505,0
57,100,0.6818181818181818,540,1,67,_Guitar,6,11,_Guitar,0.4086548984050751,0
62,100,0.1409090909090909,66,1,68,_Guitar,6,2,_Guitar,0.9996535778045654,1
57,100,0.3,110,0,68,_Guitar,6,5,_Guitar,0.5357750654220581,0
52,100,0.3,330,1,69,_Guitar,6,5,_Guitar,0.9998592138290405,1
57,100,0.12272727272727273,475,0,69,_Guitar,6,2,_Guitar,0.3191201090812683,0
55,100,0.1409090909090909,624,0,69,_Guitar,6,2,_Guitar,0.28683432936668396,0
55,100,0.6772727272727272,756,0,69,_Guitar,6,11,_Guitar,0.2984580993652344,0
52,100,0.759090909090909,35,1,70,_Guitar,6,12,_Guitar,0.9998257756233215,1
55,100,0.37727272727272726,229,0,70,_Guitar,6,6,_Guitar,0.20689448714256287,0
53,100,0.41818181818181815,347,0,70,_Guitar,6,7,_Guitar,0.20100651681423187,0
60,100,0.1590909090909091,457,0,70,_Guitar,6,3,_Guitar,0.21930432319641113,0
53,100,0.11818181818181818,590,0,70,_Guitar,6,2,_Guitar,0.20686925947666168,0
52,100,0.6409090909090909,92,1,71,_Guitar,6,10,_Guitar,0.9998173117637634,1
55,100,0.3409090909090909,550,1,71,_Guitar,6,5,_Guitar,0.41803959012031555,0
55,100,0.2409090909090909,629,0,71,_Guitar,6,4,_Guitar,0.4305635988712311,0
57,100,0.5818181818181818,3,1,72,_Guitar,6,9,_Guitar,0.9996684789657593,1
57,100,0.4,202,0,72,_Guitar,6,6,_Guitar,0.04374903440475464,0
52,100,0.1,316,0,72,_Guitar,6,2,_Guitar,0.036146800965070724,0
52,100,0.3409090909090909,426,0,72,_Guitar,6,5,_Guitar,0.030508119612932205,0
55,100,0.2409090909090909,509,0,72,_Guitar,6,4,_Guitar,0.029725125059485435,0
52,100,0.1409090909090909,585,0,72,_Guitar,6,2,_Guitar,0.03461047261953354,0
52,100,0.4590909090909091,633,0,72,_Guitar,6,7,_Guitar,0.039524566382169724,0
52,100,0.12272727272727273,817,0,72,_Guitar,6,2,_Guitar,0.0490206703543663,0
52,100,0.12272727272727273,849,0,72,_Guitar,6,2,_Guitar,0.04534345865249634,0
53,100,0.5409090909090909,166,1,73,_Guitar,6,9,_Guitar,0.9998167157173157,1
53,100,0.18181818181818182,487,1,73,_Guitar,6,3,_Guitar,0.43312203884124756,0
53,100,0.6,783,1,73,_Guitar,6,10,_Guitar,0.41672518849372864,0
53,100,0.7181818181818181,43,1,74,_Guitar,6,11,_Guitar,0.999788224697113,1
53,100,0.5409090909090909,242,0,74,_Guitar,6,9,_Guitar,0.12750081717967987,0
53,100,0.2,502,1,74,_Guitar,6,3,_Guitar,0.13052360713481903,0
53,100,0.2818181818181818,593,0,74,_Guitar,6,5,_Guitar,0.13405920565128326,0
57,100,0.5181818181818182,690,0,74,_Guitar,6,8,_Guitar,0.14124877750873566,0
53,100,0.3,817,0,74,_Guitar,6,5,_Guitar,0.14453792572021484,0
53,100,0.2409090909090909,92,1,75,_Guitar,6,4,_Guitar,0.9998049139976501,1
53,100,0.2636363636363636,223,0,75,_Guitar,6,4,_Guitar,0.1263774037361145,0
64,100,0.2772727272727273,326,0,75,_Guitar,6,4,_Guitar,0.11819683015346527,0
53,100,0.4772727272727273,392,0,75,_Guitar,6,8,_Guitar,0.12889544665813446,0
53,100,0.2,532,0,75,_Guitar,6,3,_Guitar,0.14824709296226501,0
53,100,0.6818181818181818,686,0,75,_Guitar,6,11,_Guitar,0.13137522339820862,0
55,100,0.2590909090909091,62,1,76,_Guitar,6,4,_Guitar,0.992911159992218,0
64,100,0.6772727272727272,119,1,77,_Guitar,6,11,_Guitar,0.9997959733009338,1
55,100,0.2590909090909091,457,1,77,_Guitar,6,4,_Guitar,0.1282941699028015,0
55,100,0.2409090909090909,642,0,77,_Guitar,6,4,_Guitar,0.1214379072189331,0
60,100,0.1409090909090909,703,0,77,_Guitar,6,2,_Guitar,0.13933147490024567,0
60,100,0.18181818181818182,739,0,77,_Guitar,6,3,_Guitar,0.14426156878471375,0
55,100,0.4,805,0,77,_Guitar,6,6,_Guitar,0.12662015855312347,0
55,100,0.11818181818181818,373,1,78,_Guitar,6,2,_Guitar,0.9998517036437988,1
55,100,0.1,523,0,78,_Guitar,6,2,_Guitar,0.31838372349739075,0
53,100,0.4,677,0,78,_Guitar,6,6,_Guitar,0.2917223870754242,0
53,100,0.1590909090909091,770,0,78,_Guitar,6,3,_Guitar,0.31089287996292114,0
53,100,0.4409090909090909,100,1,79,_Guitar,6,7,_Guitar,0.9998012185096741,1
53,100,0.2818181818181818,263,0,79,_Guitar,6,5,_Guitar,0.12849797308444977,0
52,100,0.3,417,0,79,_Guitar,6,5,_Guitar,0.12267636507749557,0
55,100,0.11818181818181818,546,0,79,_Guitar,6,2,_Guitar,0.13011611998081207,0
52,100,0.12272727272727273,629,0,79,_Guitar,6,2,_Guitar,0.14646564424037933,0
55,100,0.2,703,0,79,_Guitar,6,3,_Guitar,0.12538233399391174,0
55,100,0.22272727272727272,35,1,80,_Guitar,6,4,_Guitar,0.9998248219490051,1
57,100,1.2181818181818183,140,0,80,_Guitar,6,15,_Guitar,0.18043619394302368,0
57,100,1.0636363636363637,422,1,80,_Guitar,6,15,_Guitar,0.2099134624004364,0
57,100,0.11818181818181818,677,1,80,_Guitar,6,2,_Guitar,0.2508179545402527,0
52,100,0.5590909090909091,756,0,80,_Guitar,6,9,_Guitar,0.2221546173095703,0
55,100,0.1,136,1,81,_Guitar,6,2,_Guitar,0.9998462200164795,1
52,100,1.059090909090909,172,0,81,_Guitar,6,15,_Guitar,0.30689510703086853,0
52,100,0.2,436,1,81,_Guitar,6,3,_Guitar,0.31667545437812805,0
53,100,0.3,480,0,81,_Guitar,6,5,_Guitar,0.30951377749443054,0
55,100,0.5409090909090909,220,1,82,_Guitar,6,9,_Guitar,0.9998076558113098,1
62,100,0.1409090909090909,703,1,82,_Guitar,6,2,_Guitar,0.44442418217658997,0
55,100,0.5590909090909091,826,0,82,_Guitar,6,9,_Guitar,0.4154246151447296,0
55,100,0.38181818181818183,289,1,84,_Guitar,6,6,_Guitar,0.9998387098312378,1
52,100,0.13636363636363635,436,0,84,_Guitar,6,2,_Guitar,0.3504668176174164,0
55,100,0.6818181818181818,606,0,84,_Guitar,6,11,_Guitar,0.2757577896118164,0
52,100,0.6181818181818182,770,0,84,_Guitar,6,10,_Guitar,0.31600868701934814,0
52,100,0.13636363636363635,106,1,85,_Guitar,6,2,_Guitar,0.9936549663543701,0
60,100,0.11818181818181818,96,1,86,_Guitar,6,2,_Guitar,0.9998437166213989,1
60,100,0.2818181818181818,307,0,86,_Guitar,6,5,_Guitar,0.1935969889163971,0
55,100,0.6818181818181818,377,0,86,_Guitar,6,11,_Guitar,0.18791106343269348,0
67,100,0.2590909090909091,766,1,86,_Guitar,6,4,_Guitar,0.21744677424430847,0
60,100,0.5,844,0,86,_Guitar,6,8,_Guitar,0.20774045586585999,0
53,100,0.5,119,1,87,_Guitar,6,8,_Guitar,0.9998217225074768,1
59,100,0.2636363636363636,443,1,87,_Guitar,6,4,_Guitar,0.42093050479888916,0
59,100,0.8818181818181818,509,0,87,_Guitar,6,14,_Guitar,0.4153720438480377,0
62,100,0.8818181818181818,0,1,89,_Guitar,6,14,_Guitar,0.9997926354408264,1
53,100,0.6181818181818182,360,1,89,_Guitar,6,10,_Guitar,0.43697527050971985,0
67,100,0.17727272727272728,866,1,89,_Guitar,6,3,_Guitar,0.44532081484794617,0
55,100,0.11818181818181818,339,1,92,_Guitar,6,2,_Guitar,0.999817430973053,1
55,100,0.37727272727272726,493,0,92,_Guitar,6,6,_Guitar,0.4110230803489685,0
55,100,0.4590909090909091,646,0,92,_Guitar,6,7,_Guitar,0.4263928532600403,0
52,100,0.2636363636363636,333,1,93,_Guitar,6,4,_Guitar,0.9998551607131958,1
52,100,0.22272727272727272,553,0,93,_Guitar,6,4,_Guitar,0.3236978054046631,0
57,100,0.2,677,0,93,_Guitar,6,3,_Guitar,0.2853134572505951,0
52,100,0.18181818181818182,729,0,93,_Guitar,6,3,_Guitar,0.31052958965301514,0
52,100,0.11818181818181818,66,1,94,_Guitar,6,2,_Guitar,0.9998419284820557,1
52,100,0.5,276,0,94,_Guitar,6,8,_Guitar,0.3919335901737213,0
52,100,1.0,417,0,94,_Guitar,6,15,_Guitar,0.41513291001319885,0
53,100,0.1409090909090909,100,1,95,_Guitar,6,2,_Guitar,0.9998562335968018,1
53,100,0.2590909090909091,303,0,95,_Guitar,6,4,_Guitar,0.30640050768852234,0
55,100,0.41818181818181815,449,0,95,_Guitar,6,7,_Guitar,0.28292059898376465,0
60,100,0.5,624,0,95,_Guitar,6,8,_Guitar,0.3148247301578522,0
57,100,0.2,184,1,96,_Guitar,6,3,_Guitar,0.9998524188995361,1
55,100,0.11818181818181818,770,1,96,_Guitar,6,2,_Guitar,0.32015374302864075,0
55,100,0.11818181818181818,823,0,96,_Guitar,6,2,_Guitar,0.291109561920166,0
55,100,0.22272727272727272,862,0,96,_Guitar,6,4,_Guitar,0.3064216077327728,0
52,100,0.12272727272727273,509,1,97,_Guitar,6,2,_Guitar,0.993770182132721,0
67,100,0.11818181818181818,722,1,0,Guitar,6,2,Guitar,0.9996354579925537,1
58,100,0.1590909090909091,823,0,0,Guitar,6,3,Guitar,0.5362331867218018,0
67,100,0.1590909090909091,339,1,1,Guitar,6,3,Guitar,0.9996063113212585,1
63,100,0.2409090909090909,686,1,1,Guitar,6,4,Guitar,0.552621603012085,0
70,100,0.18181818181818182,144,1,2,Guitar,6,3,Guitar,0.9998408555984497,1
70,100,0.16363636363636364,223,0,2,Guitar,6,3,Guitar,0.32858845591545105,0
65,100,0.11818181818181818,373,0,2,Guitar,6,2,Guitar,0.3047090768814087,0
62,100,0.1409090909090909,782,1,2,Guitar,6,2,Guitar,0.30854567885398865,0
63,100,0.3181818181818182,83,1,3,Guitar,6,5,Guitar,0.9998394250869751,1
63,100,0.17727272727272728,171,0,3,Guitar,6,3,Guitar,0.3341177701950073,0
58,100,0.1,391,0,3,Guitar,6,2,Guitar,0.2933097183704376,0
65,100,0.2818181818181818,620,0,3,Guitar,6,5,Guitar,0.32195574045181274,0
62,100,0.11818181818181818,128,1,4,Guitar,6,2,Guitar,0.9997434020042419,1
62,100,0.16363636363636364,179,0,4,Guitar,6,3,Guitar,0.05432124808430672,0
63,100,0.1,263,0,4,Guitar,6,2,Guitar,0.04630104452371597,0
63,100,0.4772727272727273,317,0,4,Guitar,6,8,Guitar,0.04504598304629326,0
63,100,0.1409090909090909,554,1,4,Guitar,6,2,Guitar,0.055453818291425705,0
63,100,0.11818181818181818,611,0,4,Guitar,6,2,Guitar,0.060491278767585754,0
63,100,0.1590909090909091,695,0,4,Guitar,6,3,Guitar,0.06995905935764313,0
63,100,0.11818181818181818,792,0,4,Guitar,6,2,Guitar,0.06314294040203094,0
63,100,0.18181818181818182,145,1,5,Guitar,6,3,Guitar,0.9998254179954529,1
63,100,0.1409090909090909,211,0,5,Guitar,6,2,Guitar,0.40568944811820984,0
63,100,0.2772727272727273,655,1,5,Guitar,6,4,Guitar,0.43290892243385315,0
63,100,0.13636363636363635,348,1,6,Guitar,6,2,Guitar,0.999625563621521,1
63,100,0.1590909090909091,739,1,6,Guitar,6,3,Guitar,0.5538715720176697,0
55,100,0.2,123,1,8,Guitar,6,3,Guitar,0.9928838014602661,0
56,100,0.12272727272727273,211,1,9,Guitar,6,2,Guitar,0.9998268485069275,1
63,100,0.11818181818181818,259,0,9,Guitar,6,2,Guitar,0.4098801016807556,0
63,100,0.12272727272727273,355,0,9,Guitar,6,2,Guitar,0.42527714371681213,0
65,100,0.12272727272727273,642,1,10,Guitar,6,2,Guitar,0.9936337471008301,0
63,100,0.16363636363636364,180,1,13,Guitar,6,3,Guitar,0.9998505115509033,1
63,100,0.1,268,0,13,Guitar,6,2,Guitar,0.32362839579582214,0
56,100,0.3409090909090909,360,0,13,Guitar,6,5,Guitar,0.29177752137184143,0
56,100,0.18181818181818182,663,1,13,Guitar,6,3,Guitar,0.316915363073349,0
58,100,0.2,44,1,14,Guitar,6,3,Guitar,0.9995844960212708,1
63,100,0.1590909090909091,118,0,14,Guitar,6,3,Guitar,0.5587946772575378,0
55,100,0.17727272727272728,52,1,16,Guitar,6,3,Guitar,0.9997952580451965,1
63,100,0.11818181818181818,220,0,16,Guitar,6,2,Guitar,0.12845762073993683,0
55,100,0.1,254,0,16,Guitar,6,2,Guitar,0.12168943881988525,0
63,100,0.11818181818181818,351,0,16,Guitar,6,2,Guitar,0.13254240155220032,0
63,100,0.13636363636363635,436,0,16,Guitar,6,2,Guitar,0.14647412300109863,0
63,100,0.21818181818181817,492,0,16,Guitar,6,3,Guitar,0.1372915357351303,0
58,100,0.11818181818181818,845,1,17,Guitar,6,2,Guitar,0.9924314022064209,0
56,100,0.11818181818181818,700,1,18,Guitar,6,2,Guitar,0.9996446371078491,1
56,100,0.11818181818181818,735,0,18,Guitar,6,2,Guitar,0.549787700176239,0
56,100,0.3181818181818182,88,1,19,Guitar,6,5,Guitar,0.9996212720870972,1
56,100,0.1,347,1,19,Guitar,6,2,Guitar,0.5568011403083801,0
56,100,0.1590909090909091,65,1,21,Guitar,6,3,Guitar,0.9998389482498169,1
63,100,0.1590909090909091,185,0,21,Guitar,6,3,Guitar,0.2013891339302063,0
63,100,0.22272727272727272,268,0,21,Guitar,6,4,Guitar,0.19161199033260345,0
63,100,0.11818181818181818,339,0,21,Guitar,6,2,Guitar,0.2098812311887741,0
63,100,0.17727272727272728,735,1,21,Guitar,6,3,Guitar,0.2092115879058838,0
63,100,0.12272727272727273,553,1,22,Guitar,6,2,Guitar,0.993075966835022,0
63,100,0.1,633,1,23,Guitar,6,2,Guitar,0.9996296167373657,1
63,100,0.5772727272727273,876,1,23,Guitar,6,9,Guitar,0.5387042760848999,0
63,100,0.11818181818181818,131,1,24,Guitar,6,2,Guitar,0.9996227025985718,1
63,100,0.18181818181818182,285,0,24,Guitar,6,3,Guitar,0.5470598936080933,0
58,100,0.1590909090909091,691,1,25,Guitar,6,3,Guitar,0.9925599098205566,0
63,100,0.11818181818181818,590,1,26,Guitar,6,2,Guitar,0.9998399019241333,1
64,100,0.1590909090909091,625,0,26,Guitar,6,3,Guitar,0.41880011558532715,0
68,100,0.32272727272727275,804,0,26,Guitar,6,5,Guitar,0.41514483094215393,0
63,100,0.1409090909090909,822,1,27,Guitar,6,2,Guitar,0.993308424949646,0
62,100,0.12272727272727273,202,1,29,Guitar,6,2,Guitar,0.9996365308761597,1
63,100,0.1590909090909091,810,1,29,Guitar,6,3,Guitar,0.5467881560325623,0
67,100,0.11818181818181818,0,1,30,Guitar,6,2,Guitar,0.9996127486228943,1
63,100,0.21818181818181817,866,1,30,Guitar,6,3,Guitar,0.5503276586532593,0
63,100,0.2818181818181818,113,1,31,Guitar,6,5,Guitar,0.99980229139328,1
63,100,0.22272727272727272,254,0,31,Guitar,6,4,Guitar,0.12598274648189545,0
63,100,0.18181818181818182,422,0,31,Guitar,6,3,Guitar,0.11935526877641678,0
63,100,0.2590909090909091,528,0,31,Guitar,6,4,Guitar,0.13564971089363098,0
63,100,0.6,598,0,31,Guitar,6,10,Guitar,0.14070655405521393,0
56,100,0.17727272727272728,822,0,31,Guitar,6,3,Guitar,0.1470537632703781,0
63,100,0.11818181818181818,303,1,32,Guitar,6,2,Guitar,0.9930013418197632,0
63,100,0.3,408,1,33,Guitar,6,5,Guitar,0.993010938167572,0
63,100,0.1590909090909091,391,1,34,Guitar,6,3,Guitar,0.9930323362350464,0
65,100,0.17727272727272728,163,1,35,Guitar,6,3,Guitar,0.9998520612716675,1
58,100,0.2818181818181818,298,0,35,Guitar,6,5,Guitar,0.30229607224464417,0
58,100,0.12272727272727273,474,0,35,Guitar,6,2,Guitar,0.29238975048065186,0
63,100,0.11818181818181818,735,1,35,Guitar,6,2,Guitar,0.3265816271305084,0
63,100,0.11818181818181818,110,1,36,Guitar,6,2,Guitar,0.9998488426208496,1
63,100,0.2,246,0,36,Guitar,6,3,Guitar,0.32248038053512573,0
58,100,0.2,316,0,36,Guitar,6,3,Guitar,0.2883930802345276,0
63,100,0.18181818181818182,651,1,36,Guitar,6,3,Guitar,0.3209400475025177,0
63,100,0.22272727272727272,179,1,37,Guitar,6,4,Guitar,0.9998480081558228,1
63,100,0.11818181818181818,295,0,37,Guitar,6,2,Guitar,0.3304744064807892,0
58,100,0.1590909090909091,743,1,37,Guitar,6,3,Guitar,0.29387080669403076,0
58,100,0.22272727272727272,871,0,37,Guitar,6,4,Guitar,0.3125377595424652,0
58,100,0.2,66,1,38,Guitar,6,3,Guitar,0.9997943043708801,1
58,100,0.3,118,0,38,Guitar,6,5,Guitar,0.12732501327991486,0
58,100,0.11818181818181818,215,0,38,Guitar,6,2,Guitar,0.1296740472316742,0
58,100,0.11818181818181818,295,0,38,Guitar,6,2,Guitar,0.1475801020860672,0
58,100,0.1590909090909091,343,0,38,Guitar,6,3,Guitar,0.15255014598369598,0
58,100,0.18181818181818182,396,0,38,Guitar,6,3,Guitar,0.1410655379295349,0
53,100,0.2409090909090909,66,1,39,Guitar,6,4,Guitar,0.9998112320899963,1
63,100,0.22272727272727272,211,0,39,Guitar,6,4,Guitar,0.11878202110528946,0
55,100,0.1409090909090909,289,0,39,Guitar,6,2,Guitar,0.12373997271060944,0
55,100,0.18181818181818182,351,0,39,Guitar,6,3,Guitar,0.13412636518478394,0
62,100,0.37727272727272726,480,0,39,Guitar,6,6,Guitar,0.148671492934227,0
63,100,0.21818181818181817,748,1,39,Guitar,6,3,Guitar,0.1340925246477127,0
58,100,0.16363636363636364,26,1,40,Guitar,6,3,Guitar,0.9998179078102112,1
58,100,0.17727272727272728,83,0,40,Guitar,6,3,Guitar,0.21057787537574768,0
53,100,0.2409090909090909,286,0,40,Guitar,6,4,Guitar,0.2119511216878891,0
53,100,0.18181818181818182,364,0,40,Guitar,6,3,Guitar,0.21244876086711884,0
55,100,0.11818181818181818,493,0,40,Guitar,6,2,Guitar,0.20915170013904572,0
63,100,0.2772727272727273,141,1,41,Guitar,6,4,Guitar,0.9998176693916321,1
65,100,0.22272727272727272,496,1,41,Guitar,6,4,Guitar,0.43609634041786194,0
67,100,0.18181818181818182,783,1,41,Guitar,6,3,Guitar,0.4195590317249298,0
62,100,0.21818181818181817,31,1,42,Guitar,6,3,Guitar,0.9998514652252197,1
62,100,0.22272727272727272,166,0,42,Guitar,6,4,Guitar,0.32161515951156616,0
63,100,0.41818181818181815,286,0,42,Guitar,6,7,Guitar,0.2834251821041107,0
63,100,0.3181818181818182,625,1,42,Guitar,6,5,Guitar,0.3163546323776245,0
58,100,0.1,166,1,43,Guitar,6,2,Guitar,0.999813973903656,1
63,100,0.18181818181818182,421,1,43,Guitar,6,3,Guitar,0.42918094992637634,0
63,100,0.2409090909090909,726,1,43,Guitar,6,4,Guitar,0.4308055639266968,0
58,100,0.1590909090909091,53,1,44,Guitar,6,3,Guitar,0.9997826218605042,1
58,100,0.22272727272727272,453,1,44,Guitar,6,4,Guitar,0.13676714897155762,0
58,100,0.18181818181818182,593,0,44,Guitar,6,3,Guitar,0.12643608450889587,0
58,100,0.1409090909090909,716,0,44,Guitar,6,2,Guitar,0.15083035826683044,0
57,100,0.11818181818181818,748,0,44,Guitar,6,2,Guitar,0.1582465022802353,0
58,100,0.2,853,0,44,Guitar,6,3,Guitar,0.1353992223739624,0
53,100,0.4590909090909091,53,1,45,Guitar,6,7,Guitar,0.999716579914093,1
53,100,0.21818181818181817,193,0,45,Guitar,6,3,Guitar,0.05871606990695,0
53,100,0.11818181818181818,281,0,45,Guitar,6,2,Guitar,0.04823571443557739,0
56,100,0.11818181818181818,413,0,45,Guitar,6,2,Guitar,0.048092588782310486,0
56,100,0.11818181818181818,536,0,45,Guitar,6,2,Guitar,0.051763370633125305,0
53,100,0.3409090909090909,581,0,45,Guitar,6,5,Guitar,0.05806903913617134,0
55,100,0.3,664,0,45,Guitar,6,5,Guitar,0.06596262007951736,0
55,100,0.2772727272727273,801,0,45,Guitar,6,4,Guitar,0.060350824147462845,0
55,100,0.4818181818181818,56,1,46,Guitar,6,8,Guitar,0.9998244643211365,1
55,100,0.22272727272727272,188,0,46,Guitar,6,4,Guitar,0.2185516357421875,0
56,100,0.2409090909090909,466,1,46,Guitar,6,4,Guitar,0.20880863070487976,0
56,100,0.22272727272727272,606,0,46,Guitar,6,4,Guitar,0.2078418731689453,0
56,100,0.3409090909090909,871,1,46,Guitar,6,5,Guitar,0.2023441344499588,0
56,100,0.36363636363636365,136,1,47,Guitar,6,6,Guitar,0.9998002648353577,1
56,100,0.2409090909090909,273,0,47,Guitar,6,4,Guitar,0.13818836212158203,0
58,100,0.22272727272727272,488,0,47,Guitar,6,4,Guitar,0.12500016391277313,0
58,100,0.4772727272727273,545,0,47,Guitar,6,8,Guitar,0.13375209271907806,0
58,100,0.3,673,0,47,Guitar,6,5,Guitar,0.1568879336118698,0
58,100,0.17727272727272728,823,0,47,Guitar,6,3,Guitar,0.14279408752918243,0
53,100,0.1409090909090909,21,1,48,Guitar,6,2,Guitar,0.9998111128807068,1
58,100,0.3,69,0,48,Guitar,6,5,Guitar,0.11848549544811249,0
58,100,0.5636363636363636,201,0,48,Guitar,6,9,Guitar,0.12652790546417236,0
58,100,0.12272727272727273,334,0,48,Guitar,6,2,Guitar,0.1529269516468048,0
58,100,0.3,405,0,48,Guitar,6,5,Guitar,0.15250171720981598,0
58,100,0.3,474,0,48,Guitar,6,5,Guitar,0.13788211345672607,0
53,100,0.5181818181818182,40,1,50,Guitar,6,8,Guitar,0.9995855689048767,1
53,100,0.2818181818181818,444,1,50,Guitar,6,5,Guitar,0.5601709485054016,0
53,100,0.11818181818181818,853,1,51,Guitar,6,2,Guitar,0.9933953881263733,0
58,100,0.1590909090909091,628,1,52,Guitar,6,3,Guitar,0.99958735704422,1
63,100,0.21818181818181817,735,0,52,Guitar,6,3,Guitar,0.5613576173782349,0
63,100,0.11818181818181818,198,1,53,Guitar,6,2,Guitar,0.9998353719711304,1
63,100,0.2,268,0,53,Guitar,6,3,Guitar,0.39770078659057617,0
63,100,0.3409090909090909,408,0,53,Guitar,6,5,Guitar,0.43114614486694336,0
63,100,0.18181818181818182,708,1,54,Guitar,6,3,Guitar,0.9932512640953064,1
63,100,0.2409090909090909,153,1,55,Guitar,6,4,Guitar,0.9930642247200012,0
63,100,0.12272727272727273,444,1,58,Guitar,6,2,Guitar,0.9931002855300903,0
63,100,0.1409090909090909,343,1,61,Guitar,6,2,Guitar,0.9996261596679688,1
63,100,0.18181818181818182,751,1,61,Guitar,6,3,Guitar,0.5511305332183838,0
63,100,0.4590909090909091,848,1,63,Guitar,6,7,Guitar,0.9925801157951355,0
63,100,0.1,87,1,64,Guitar,6,2,Guitar,0.9998279809951782,1
63,100,0.2818181818181818,145,0,64,Guitar,6,5,Guitar,0.40551891922950745,0
56,100,0.35909090909090907,866,1,64,Guitar,6,6,Guitar,0.4318183958530426,0
56,100,0.17727272727272728,713,1,65,Guitar,6,3,Guitar,0.9934386610984802,0
58,100,0.1,74,1,69,Guitar,6,2,Guitar,0.9998449087142944,1
63,100,0.2,140,0,69,Guitar,6,3,Guitar,0.32384827733039856,0
53,100,0.1,282,0,69,Guitar,6,2,Guitar,0.29832279682159424,0
53,100,0.11818181818181818,677,1,69,Guitar,6,2,Guitar,0.31349971890449524,0
53,100,0.2,153,1,70,Guitar,6,3,Guitar,0.999839186668396,1
53,100,0.12272727272727273,356,0,70,Guitar,6,2,Guitar,0.40802448987960815,0
53,100,0.18181818181818182,422,0,70,Guitar,6,3,Guitar,0.41999369859695435,0
70,100,0.17727272727272728,17,1,71,Guitar,6,3,Guitar,0.9995911717414856,1
58,100,0.2,96,0,71,Guitar,6,3,Guitar,0.5533769726753235,0
58,100,0.1,136,1,73,Guitar,6,2,Guitar,0.9996073842048645,1
62,100,0.1,734,1,73,Guitar,6,2,Guitar,0.5650672316551208,0
63,100,0.1590909090909091,233,1,77,Guitar,6,3,Guitar,0.9929867386817932,0
63,100,0.11818181818181818,792,1,78,Guitar,6,2,Guitar,0.9931113719940186,0
63,100,0.1,246,1,79,Guitar,6,2,Guitar,0.9932042360305786,1
63,100,0.11818181818181818,726,1,81,Guitar,6,2,Guitar,0.993154764175415,0
53,100,0.17727272727272728,127,1,82,Guitar,6,3,Guitar,0.9998276233673096,1
53,100,0.2,184,0,82,Guitar,6,3,Guitar,0.41837191581726074,0
53,100,0.18181818181818182,663,1,82,Guitar,6,3,Guitar,0.42471909523010254,0
63,100,0.12272727272727273,3,1,83,Guitar,6,2,Guitar,0.9996222257614136,1
58,100,0.2,677,1,83,Guitar,6,3,Guitar,0.5451368689537048,0
67,100,0.2818181818181818,132,1,84,Guitar,6,5,Guitar,0.9998435974121094,1
62,100,0.3181818181818182,263,0,84,Guitar,6,5,Guitar,0.32934659719467163,0
63,100,0.6818181818181818,483,0,84,Guitar,6,11,Guitar,0.28513652086257935,0
70,100,0.1,686,0,84,Guitar,6,2,Guitar,0.3253041207790375,0
70,100,0.1,26,1,85,Guitar,6,2,Guitar,0.9997099041938782,1
65,100,0.1,220,0,85,Guitar,6,2,Guitar,0.060756880789995193,0
67,100,0.2,289,0,85,Guitar,6,3,Guitar,0.04645296186208725,0
67,100,0.2590909090909091,404,0,85,Guitar,6,4,Guitar,0.048943206667900085,0
62,100,0.2590909090909091,480,0,85,Guitar,6,4,Guitar,0.05491721257567406,0
62,100,0.5227272727272727,553,0,85,Guitar,6,8,Guitar,0.05796733498573303,0
63,100,0.3409090909090909,703,0,85,Guitar,6,5,Guitar,0.06972513347864151,0
63,100,0.4,783,0,85,Guitar,6,6,Guitar,0.06261753290891647,0
63,100,0.2590909090909091,13,1,86,Guitar,6,4,Guitar,0.9998517036437988,1
56,100,0.1409090909090909,365,1,86,Guitar,6,2,Guitar,0.33211448788642883,0
63,100,0.1,443,0,86,Guitar,6,2,Guitar,0.29246240854263306,0
65,100,0.11818181818181818,734,1,86,Guitar,6,2,Guitar,0.3061918020248413,0
63,100,0.11818181818181818,722,1,88,Guitar,6,2,Guitar,0.99349445104599,1
63,100,0.2590909090909091,106,1,89,Guitar,6,4,Guitar,0.9930710196495056,0
55,100,0.5363636363636364,523,1,90,Guitar,6,9,Guitar,0.999552309513092,1
55,100,0.7772727272727272,646,0,90,Guitar,6,12,Guitar,0.5499432682991028,0
58,100,0.18181818181818182,597,1,97,Guitar,6,3,Guitar,0.9924252033233643,1
58,100,0.2409090909090909,870,1,105,Guitar,6,4,Guitar,0.9922405481338501,0
65,100,0.1590909090909091,197,1,106,Guitar,6,3,Guitar,0.9998375177383423,1
65,100,0.17727272727272728,273,0,106,Guitar,6,3,Guitar,0.4068171977996826,0
62,100,0.2,616,1,106,Guitar,6,3,Guitar,0.4220981001853943,0
63,100,0.5181818181818182,22,1,107,Guitar,6,8,Guitar,0.9995872378349304,1
62,100,0.2590909090909091,823,1,107,Guitar,6,4,Guitar,0.5680142045021057,0
62,100,0.2409090909090909,13,1,108,Guitar,6,4,Guitar,0.9998356103897095,1
65,100,0.2,637,1,108,Guitar,6,3,Guitar,0.41068539023399353,0
65,100,0.2590909090909091,690,0,108,Guitar,6,4,Guitar,0.42161521315574646,0
62,100,0.3,163,1,109,Guitar,6,5,Guitar,0.9998356103897095,1
62,100,0.1409090909090909,242,0,109,Guitar,6,2,Guitar,0.20996762812137604,0
63,100,0.21818181818181817,383,0,109,Guitar,6,3,Guitar,0.18915417790412903,0
63,100,0.16363636363636364,443,0,109,Guitar,6,3,Guitar,0.2189672738313675,0
63,100,0.1,509,0,109,Guitar,6,2,Guitar,0.2090161293745041,0
58,100,0.1409090909090909,163,1,110,Guitar,6,2,Guitar,0.999591052532196,1
63,100,0.17727272727272728,237,0,110,Guitar,6,3,Guitar,0.5614446401596069,0
70,100,0.11818181818181818,417,1,111,Guitar,6,2,Guitar,0.9926527738571167,1
53,100,0.22272727272727272,488,1,0,DL_Remix_Guitar,6,4,DL_Remix_Guitar,0.999835729598999,1
58,100,0.21818181818181817,682,0,0,DL_Remix_Guitar,6,3,DL_Remix_Guitar,0.4010765850543976,0
58,100,0.5818181818181818,748,0,0,DL_Remix_Guitar,6,9,DL_Remix_Guitar,0.41881799697875977,0
62,100,0.6636363636363637,4,1,1,DL_Remix_Guitar,6,11,DL_Remix_Guitar,0.9997819066047668,1
53,100,0.37727272727272726,163,0,1,DL_Remix_Guitar,6,6,DL_Remix_Guitar,0.14280159771442413,0
58,100,0.18181818181818182,255,0,1,DL_Remix_Guitar,6,3,DL_Remix_Guitar,0.12364638596773148,0
63,100,0.12272727272727273,597,1,1,DL_Remix_Guitar,6,2,DL_Remix_Guitar,0.14772064983844757,0
63,100,0.5,651,0,1,DL_Remix_Guitar,6,8,DL_Remix_Guitar,0.149214506149292,0
58,100,0.3409090909090909,823,0,1,DL_Remix_Guitar,6,5,DL_Remix_Guitar,0.1402394026517868,0
53,100,0.2818181818181818,21,1,2,DL_Remix_Guitar,6,5,DL_Remix_Guitar,0.9998525381088257,1
60,100,0.3409090909090909,220,0,2,DL_Remix_Guitar,6,5,DL_Remix_Guitar,0.3161633610725403,0
65,100,0.6772727272727272,348,0,2,DL_Remix_Guitar,6,11,DL_Remix_Guitar,0.2790306508541107,0
60,100,0.32272727272727275,541,0,2,DL_Remix_Guitar,6,5,DL_Remix_Guitar,0.3196149468421936,0
53,100,0.9,61,1,3,DL_Remix_Guitar,6,14,DL_Remix_Guitar,0.9998247027397156,1
58,100,0.3409090909090909,263,0,3,DL_Remix_Guitar,6,5,DL_Remix_Guitar,0.33413368463516235,0
53,100,0.12272727272727273,364,0,3,DL_Remix_Guitar,6,2,DL_Remix_Guitar,0.3208180367946625,0
53,100,0.32272727272727275,818,1,3,DL_Remix_Guitar,6,5,DL_Remix_Guitar,0.3127497434616089,0
58,100,0.12272727272727273,56,1,4,DL_Remix_Guitar,6,2,DL_Remix_Guitar,0.9998257756233215,1
58,100,0.1409090909090909,255,0,4,DL_Remix_Guitar,6,2,DL_Remix_Guitar,0.207166388630867,0
63,100,0.5409090909090909,532,1,4,DL_Remix_Guitar,6,9,DL_Remix_Guitar,0.19611303508281708,0
53,100,0.2,695,0,4,DL_Remix_Guitar,6,3,DL_Remix_Guitar,0.2332293838262558,0
53,100,0.8818181818181818,813,0,4,DL_Remix_Guitar,6,14,DL_Remix_Guitar,0.2063770443201065,0
65,100,0.2409090909090909,263,1,5,DL_Remix_Guitar,6,4,DL_Remix_Guitar,0.9996055960655212,1
65,100,1.3181818181818181,637,1,5,DL_Remix_Guitar,6,15,DL_Remix_Guitar,0.5319238901138306,0
62,100,0.1590909090909091,220,1,10,DL_Remix_Guitar,6,3,DL_Remix_Guitar,0.9996452331542969,1
69,100,0.2772727272727273,744,1,10,DL_Remix_Guitar,6,4,DL_Remix_Guitar,0.5462331175804138,0
65,100,0.6181818181818182,457,1,13,DL_Remix_Guitar,6,10,DL_Remix_Guitar,0.9996156692504883,1
65,100,0.22272727272727272,598,0,13,DL_Remix_Guitar,6,4,DL_Remix_Guitar,0.5573392510414124,0
62,100,0.6227272727272727,166,1,14,DL_Remix_Guitar,6,10,DL_Remix_Guitar,0.99981290102005,1
62,100,0.21818181818181817,307,0,14,DL_Remix_Guitar,6,3,DL_Remix_Guitar,0.4291934370994568,0
58,100,0.22272727272727272,862,1,14,DL_Remix_Guitar,6,4,DL_Remix_Guitar,0.43109744787216187,0
62,100,0.21818181818181817,360,1,15,DL_Remix_Guitar,6,3,DL_Remix_Guitar,0.9998233914375305,1
58,100,0.6409090909090909,563,0,15,DL_Remix_Guitar,6,10,DL_Remix_Guitar,0.3747759759426117,0
53,100,0.32272727272727275,716,0,15,DL_Remix_Guitar,6,5,DL_Remix_Guitar,0.4643763601779938,0
58,100,0.35909090909090907,162,1,16,DL_Remix_Guitar,6,6,DL_Remix_Guitar,0.9997956156730652,1
53,100,1.018181818181818,413,1,16,DL_Remix_Guitar,6,15,DL_Remix_Guitar,0.40669339895248413,0
60,100,1.0,822,1,16,DL_Remix_Guitar,6,15,DL_Remix_Guitar,0.4499720633029938,0
53,100,0.1409090909090909,34,1,18,DL_Remix_Guitar,6,2,DL_Remix_Guitar,0.9998568296432495,1
53,100,0.1409090909090909,430,1,18,DL_Remix_Guitar,6,2,DL_Remix_Guitar,0.3300713002681732,0
53,100,0.2,474,0,18,DL_Remix_Guitar,6,3,DL_Remix_Guitar,0.28806954622268677,0
58,100,0.4590909090909091,835,1,18,DL_Remix_Guitar,6,7,DL_Remix_Guitar,0.2951813340187073,0
53,100,0.1409090909090909,804,1,19,DL_Remix_Guitar,6,2,DL_Remix_Guitar,0.9935171604156494,0
53,100,0.5181818181818182,492,1,20,DL_Remix_Guitar,6,8,DL_Remix_Guitar,0.9996209144592285,1
53,100,0.11818181818181818,725,1,20,DL_Remix_Guitar,6,2,DL_Remix_Guitar,0.5565677285194397,0
58,100,0.35909090909090907,611,1,21,DL_Remix_Guitar,6,6,DL_Remix_Guitar,0.9997954964637756,1
58,100,0.1,694,0,21,DL_Remix_Guitar,6,2,DL_Remix_Guitar,0.4460470974445343,0
62,100,0.8181818181818182,770,0,21,DL_Remix_Guitar,6,13,DL_Remix_Guitar,0.4292447865009308,0
58,100,0.6772727272727272,347,1,22,DL_Remix_Guitar,6,11,DL_Remix_Guitar,0.9914419054985046,0
65,100,0.6409090909090909,96,1,23,DL_Remix_Guitar,6,10,DL_Remix_Guitar,0.9926689863204956,1
58,100,0.1590909090909091,413,1,24,DL_Remix_Guitar,6,3,DL_Remix_Guitar,0.9925566911697388,0
65,100,0.5772727272727273,127,1,25,DL_Remix_Guitar,6,9,DL_Remix_Guitar,0.9998003840446472,1
58,100,0.2,370,1,25,DL_Remix_Guitar,6,3,DL_Remix_Guitar,0.42797818779945374,0
65,100,0.6,725,1,25,DL_Remix_Guitar,6,10,DL_Remix_Guitar,0.4369671940803528,0
63,100,0.9409090909090909,449,1,27,DL_Remix_Guitar,6,15,DL_Remix_Guitar,0.999527096748352,1
63,100,0.3409090909090909,708,1,27,DL_Remix_Guitar,6,5,DL_Remix_Guitar,0.577975332736969,0
63,100,0.11818181818181818,65,1,28,DL_Remix_Guitar,6,2,DL_Remix_Guitar,0.9998395442962646,1
63,100,0.21818181818181817,119,0,28,DL_Remix_Guitar,6,3,DL_Remix_Guitar,0.20456834137439728,0
53,100,0.18181818181818182,202,0,28,DL_Remix_Guitar,6,3,DL_Remix_Guitar,0.20048584043979645,0
65,100,0.2,241,0,28,DL_Remix_Guitar,6,3,DL_Remix_Guitar,0.21107451617717743,0
65,100,0.35909090909090907,739,1,28,DL_Remix_Guitar,6,6,DL_Remix_Guitar,0.2030583769083023,0
65,100,1.0,260,1,29,DL_Remix_Guitar,6,15,DL_Remix_Guitar,0.999803364276886,1
65,100,0.1409090909090909,515,1,29,DL_Remix_Guitar,6,2,DL_Remix_Guitar,0.24455046653747559,0
53,100,0.2409090909090909,553,0,29,DL_Remix_Guitar,6,4,DL_Remix_Guitar,0.19641318917274475,0
53,100,0.1,787,1,29,DL_Remix_Guitar,6,2,DL_Remix_Guitar,0.21324166655540466,0
53,100,0.3409090909090909,858,0,29,DL_Remix_Guitar,6,5,DL_Remix_Guitar,0.20514345169067383,0
53,100,0.1,289,1,30,DL_Remix_Guitar,6,2,DL_Remix_Guitar,0.9998390674591064,1
53,100,0.5363636363636364,413,0,30,DL_Remix_Guitar,6,9,DL_Remix_Guitar,0.1938961297273636,0
53,100,0.4590909090909091,581,0,30,DL_Remix_Guitar,6,7,DL_Remix_Guitar,0.19573187828063965,0
53,100,0.12272727272727273,760,0,30,DL_Remix_Guitar,6,2,DL_Remix_Guitar,0.22084006667137146,0
53,100,0.2818181818181818,791,0,30,DL_Remix_Guitar,6,5,DL_Remix_Guitar,0.19782334566116333,0
58,100,0.5227272727272727,201,1,32,DL_Remix_Guitar,6,8,DL_Remix_Guitar,0.9998018145561218,1
53,100,0.1409090909090909,804,1,32,DL_Remix_Guitar,6,2,DL_Remix_Guitar,0.4549000561237335,0
58,100,0.2590909090909091,836,0,32,DL_Remix_Guitar,6,4,DL_Remix_Guitar,0.41945934295654297,0
53,100,0.38181818181818183,13,1,33,DL_Remix_Guitar,6,6,DL_Remix_Guitar,0.9998012185096741,1
53,100,0.5590909090909091,105,0,33,DL_Remix_Guitar,6,9,DL_Remix_Guitar,0.1205768808722496,0
53,100,0.38181818181818183,378,1,33,DL_Remix_Guitar,6,6,DL_Remix_Guitar,0.12613660097122192,0
65,100,0.41818181818181815,461,0,33,DL_Remix_Guitar,6,7,DL_Remix_Guitar,0.1365499198436737,0
53,100,0.4636363636363636,554,0,33,DL_Remix_Guitar,6,7,DL_Remix_Guitar,0.1451142579317093,0
55,100,0.43636363636363634,678,0,33,DL_Remix_Guitar,6,7,DL_Remix_Guitar,0.13338473439216614,0
55,100,0.2772727272727273,215,1,34,DL_Remix_Guitar,6,4,DL_Remix_Guitar,0.9998366832733154,1
53,100,0.18181818181818182,321,0,34,DL_Remix_Guitar,6,3,DL_Remix_Guitar,0.3502637445926666,0
60,100,0.16363636363636364,421,0,34,DL_Remix_Guitar,6,3,DL_Remix_Guitar,0.29961228370666504,0
53,100,1.2,681,1,34,DL_Remix_Guitar,6,15,DL_Remix_Guitar,0.29068857431411743,0
53,100,0.18181818181818182,69,1,35,DL_Remix_Guitar,6,3,DL_Remix_Guitar,0.9998369216918945,1
65,100,0.37727272727272726,435,1,35,DL_Remix_Guitar,6,6,DL_Remix_Guitar,0.2019127905368805,0
65,100,0.32272727272727275,738,1,35,DL_Remix_Guitar,6,5,DL_Remix_Guitar,0.19772660732269287,0
65,100,0.11818181818181818,845,0,35,DL_Remix_Guitar,6,2,DL_Remix_Guitar,0.2072495073080063,0
65,100,0.2590909090909091,875,0,35,DL_Remix_Guitar,6,4,DL_Remix_Guitar,0.20425541698932648,0
63,100,0.1409090909090909,75,1,36,DL_Remix_Guitar,6,2,DL_Remix_Guitar,0.9998329877853394,1
53,100,0.6409090909090909,311,1,36,DL_Remix_Guitar,6,10,DL_Remix_Guitar,0.20222912728786469,0
53,100,0.8590909090909091,458,0,36,DL_Remix_Guitar,6,14,DL_Remix_Guitar,0.19774390757083893,0
53,100,0.2590909090909091,694,1,36,DL_Remix_Guitar,6,4,DL_Remix_Guitar,0.23736697435379028,0
53,100,0.9,756,0,36,DL_Remix_Guitar,6,14,DL_Remix_Guitar,0.20808696746826172,0
53,100,0.1590909090909091,88,1,37,DL_Remix_Guitar,6,3,DL_Remix_Guitar,0.9996423721313477,1
53,100,0.2590909090909091,721,1,37,DL_Remix_Guitar,6,4,DL_Remix_Guitar,0.5519050359725952,0
63,100,0.17727272727272728,163,1,38,DL_Remix_Guitar,6,3,DL_Remix_Guitar,0.9998524188995361,1
53,100,0.1590909090909091,518,1,38,DL_Remix_Guitar,6,3,DL_Remix_Guitar,0.33294981718063354,0
53,100,0.1409090909090909,638,0,38,DL_Remix_Guitar,6,2,DL_Remix_Guitar,0.29618239402770996,0
53,100,0.5409090909090909,694,0,38,DL_Remix_Guitar,6,9,DL_Remix_Guitar,0.2950478196144104,0
58,100,0.1409090909090909,233,1,39,DL_Remix_Guitar,6,2,DL_Remix_Guitar,0.992439866065979,0
60,100,0.5818181818181818,431,1,40,DL_Remix_Guitar,6,9,DL_Remix_Guitar,0.9931585192680359,0
65,100,0.2818181818181818,176,1,41,DL_Remix_Guitar,6,5,DL_Remix_Guitar,0.9998235106468201,1
58,100,0.11818181818181818,251,0,41,DL_Remix_Guitar,6,2,DL_Remix_Guitar,0.4155436158180237,0
58,100,0.41818181818181815,801,1,41,DL_Remix_Guitar,6,7,DL_Remix_Guitar,0.41740092635154724,0
53,100,0.2590909090909091,31,1,42,DL_Remix_Guitar,6,4,DL_Remix_Guitar,0.9998524188995361,1
53,100,0.18181818181818182,91,0,42,DL_Remix_Guitar,6,3,DL_Remix_Guitar,0.3283020257949829,0
53,100,0.1409090909090909,638,1,42,DL_Remix_Guitar,6,2,DL_Remix_Guitar,0.2967250645160675,0
53,100,0.740909090909091,791,0,42,DL_Remix_Guitar,6,12,DL_Remix_Guitar,0.28756579756736755,0
53,100,0.42272727272727273,334,1,43,DL_Remix_Guitar,6,7,DL_Remix_Guitar,0.9998325109481812,1
53,100,0.11818181818181818,700,1,43,DL_Remix_Guitar,6,2,DL_Remix_Guitar,0.4147239327430725,0
65,100,0.1590909090909091,836,0,43,DL_Remix_Guitar,6,3,DL_Remix_Guitar,0.4229506254196167,0
53,100,0.2590909090909091,13,1,44,DL_Remix_Guitar,6,4,DL_Remix_Guitar,0.9997708201408386,1
55,100,0.2590909090909091,144,0,44,DL_Remix_Guitar,6,4,DL_Remix_Guitar,0.0767524391412735,0
53,100,0.1409090909090909,233,0,44,DL_Remix_Guitar,6,2,DL_Remix_Guitar,0.07431615889072418,0
55,100,0.21818181818181817,303,0,44,DL_Remix_Guitar,6,3,DL_Remix_Guitar,0.0756220817565918,0
65,100,0.36363636363636365,399,0,44,DL_Remix_Guitar,6,6,DL_Remix_Guitar,0.09090976417064667,0
65,100,0.22272727272727272,496,0,44,DL_Remix_Guitar,6,4,DL_Remix_Guitar,0.09930005669593811,0
53,100,0.11818181818181818,545,0,44,DL_Remix_Guitar,6,2,DL_Remix_Guitar,0.08751240372657776,0
65,100,0.35909090909090907,351,1,45,DL_Remix_Guitar,6,6,DL_Remix_Guitar,0.9998464584350586,1
65,100,0.1409090909090909,461,0,45,DL_Remix_Guitar,6,2,DL_Remix_Guitar,0.34334591031074524,0
58,100,0.6590909090909091,668,0,45,DL_Remix_Guitar,6,11,DL_Remix_Guitar,0.27158308029174805,0
58,100,0.4772727272727273,875,0,45,DL_Remix_Guitar,6,8,DL_Remix_Guitar,0.3272136151790619,0
58,100,0.1409090909090909,550,1,46,DL_Remix_Guitar,6,2,DL_Remix_Guitar,0.9998207688331604,1
58,100,0.12272727272727273,619,0,46,DL_Remix_Guitar,6,2,DL_Remix_Guitar,0.4105641841888428,0
53,100,0.8,761,0,46,DL_Remix_Guitar,6,13,DL_Remix_Guitar,0.4303321838378906,0
53,100,0.22272727272727272,408,1,47,DL_Remix_Guitar,6,4,DL_Remix_Guitar,0.9996463060379028,1
53,100,0.2818181818181818,804,1,47,DL_Remix_Guitar,6,5,DL_Remix_Guitar,0.5453634262084961,0
60,100,0.2,373,1,48,DL_Remix_Guitar,6,3,DL_Remix_Guitar,0.9998394250869751,1
57,100,0.1,703,1,48,DL_Remix_Guitar,6,2,DL_Remix_Guitar,0.39839816093444824,0
53,100,0.12272727272727273,751,0,48,DL_Remix_Guitar,6,2,DL_Remix_Guitar,0.4278380572795868,0
53,100,0.2409090909090909,418,1,49,DL_Remix_Guitar,6,4,DL_Remix_Guitar,0.9933411478996277,0
58,100,0.41818181818181815,43,1,50,DL_Remix_Guitar,6,7,DL_Remix_Guitar,0.999813973903656,1
55,100,0.32272727272727275,364,1,50,DL_Remix_Guitar,6,5,DL_Remix_Guitar,0.2214854210615158,0
55,100,0.41818181818181815,440,0,50,DL_Remix_Guitar,6,7,DL_Remix_Guitar,0.20236729085445404,0
65,100,0.8818181818181818,619,0,50,DL_Remix_Guitar,6,14,DL_Remix_Guitar,0.2091858834028244,0
53,100,0.4409090909090909,861,1,50,DL_Remix_Guitar,6,7,DL_Remix_Guitar,0.23046588897705078,0
58,100,0.1590909090909091,144,1,51,DL_Remix_Guitar,6,3,DL_Remix_Guitar,0.999833345413208,1
58,100,0.9772727272727273,383,1,51,DL_Remix_Guitar,6,15,DL_Remix_Guitar,0.2889595329761505,0
53,100,0.16363636363636364,751,1,51,DL_Remix_Guitar,6,3,DL_Remix_Guitar,0.3483768403530121,0
53,100,0.5409090909090909,801,0,51,DL_Remix_Guitar,6,9,DL_Remix_Guitar,0.31241539120674133,0
65,100,0.3181818181818182,40,1,52,DL_Remix_Guitar,6,5,DL_Remix_Guitar,0.9996891021728516,1
53,100,0.35909090909090907,188,0,52,DL_Remix_Guitar,6,6,DL_Remix_Guitar,0.04329043626785278,0
53,100,0.16363636363636364,334,0,52,DL_Remix_Guitar,6,3,DL_Remix_Guitar,0.03394806385040283,0
53,100,0.3,386,0,52,DL_Remix_Guitar,6,5,DL_Remix_Guitar,0.02978658303618431,0
53,100,0.21818181818181817,480,0,52,DL_Remix_Guitar,6,3,DL_Remix_Guitar,0.030611511319875717,0
53,100,0.2,536,0,52,DL_Remix_Guitar,6,3,DL_Remix_Guitar,0.032898496836423874,0
53,100,0.2590909090909091,646,0,52,DL_Remix_Guitar,6,4,DL_Remix_Guitar,0.039783407002687454,0
65,100,0.2409090909090909,804,0,52,DL_Remix_Guitar,6,4,DL_Remix_Guitar,0.04813531041145325,0
53,100,0.5,858,0,52,DL_Remix_Guitar,6,8,DL_Remix_Guitar,0.04531049355864525,0
53,100,0.4818181818181818,373,1,53,DL_Remix_Guitar,6,8,DL_Remix_Guitar,0.9997996687889099,1
53,100,0.23636363636363636,523,0,53,DL_Remix_Guitar,6,4,DL_Remix_Guitar,0.130011186003685,0
53,100,0.11818181818181818,593,0,53,DL_Remix_Guitar,6,2,DL_Remix_Guitar,0.11910587549209595,0
53,100,0.1409090909090909,668,0,53,DL_Remix_Guitar,6,2,DL_Remix_Guitar,0.13464005291461945,0
53,100,0.12272727272727273,751,0,53,DL_Remix_Guitar,6,2,DL_Remix_Guitar,0.14368316531181335,0
53,100,0.1590909090909091,813,0,53,DL_Remix_Guitar,6,3,DL_Remix_Guitar,0.13166309893131256,0
53,100,0.3409090909090909,88,1,54,DL_Remix_Guitar,6,5,DL_Remix_Guitar,0.9998257756233215,1
53,100,0.17727272727272728,348,1,54,DL_Remix_Guitar,6,3,DL_Remix_Guitar,0.422885537147522,0
58,100,0.22272727272727272,541,0,54,DL_Remix_Guitar,6,4,DL_Remix_Guitar,0.4133415222167969,0
55,100,0.2409090909090909,488,1,55,DL_Remix_Guitar,6,4,DL_Remix_Guitar,0.9996336698532104,1
53,100,0.1590909090909091,678,0,55,DL_Remix_Guitar,6,3,DL_Remix_Guitar,0.5495330691337585,0
58,100,0.18181818181818182,321,1,56,DL_Remix_Guitar,6,3,DL_Remix_Guitar,0.999816358089447,1
53,100,0.2409090909090909,466,0,56,DL_Remix_Guitar,6,4,DL_Remix_Guitar,0.44018909335136414,0
53,100,0.9590909090909091,756,1,56,DL_Remix_Guitar,6,15,DL_Remix_Guitar,0.41157516837120056,0
53,100,0.2,91,1,57,DL_Remix_Guitar,6,3,DL_Remix_Guitar,0.9998039603233337,1
53,100,0.5590909090909091,141,0,57,DL_Remix_Guitar,6,9,DL_Remix_Guitar,0.11678518354892731,0
58,100,0.1409090909090909,263,0,57,DL_Remix_Guitar,6,2,DL_Remix_Guitar,0.1216185986995697,0
53,100,0.6,334,0,57,DL_Remix_Guitar,6,10,DL_Remix_Guitar,0.13765892386436462,0
53,100,0.23636363636363636,633,1,57,DL_Remix_Guitar,6,4,DL_Remix_Guitar,0.1511368751525879,0
53,100,0.2590909090909091,726,0,57,DL_Remix_Guitar,6,4,DL_Remix_Guitar,0.13522668182849884,0
65,100,0.16363636363636364,26,1,58,DL_Remix_Guitar,6,3,DL_Remix_Guitar,0.9998072981834412,1
53,100,0.11818181818181818,61,0,58,DL_Remix_Guitar,6,2,DL_Remix_Guitar,0.12579457461833954,0
65,100,0.4590909090909091,88,0,58,DL_Remix_Guitar,6,7,DL_Remix_Guitar,0.11517252027988434,0
53,100,0.22272727272727272,188,0,58,DL_Remix_Guitar,6,4,DL_Remix_Guitar,0.13918998837471008,0
53,100,0.4,241,0,58,DL_Remix_Guitar,6,6,DL_Remix_Guitar,0.1408049762248993,0
53,100,0.1590909090909091,458,0,58,DL_Remix_Guitar,6,3,DL_Remix_Guitar,0.13378697633743286,0
53,100,0.3181818181818182,18,1,59,DL_Remix_Guitar,6,5,DL_Remix_Guitar,0.9998501539230347,1
53,100,0.42272727272727273,101,0,59,DL_Remix_Guitar,6,7,DL_Remix_Guitar,0.3180166482925415,0
53,100,0.35909090909090907,558,1,59,DL_Remix_Guitar,6,6,DL_Remix_Guitar,0.29124853014945984,0
53,100,0.23636363636363636,788,0,59,DL_Remix_Guitar,6,4,DL_Remix_Guitar,0.3113531172275543,0
58,100,0.18181818181818182,91,1,60,DL_Remix_Guitar,6,3,DL_Remix_Guitar,0.9998323917388916,1
58,100,0.3181818181818182,501,1,60,DL_Remix_Guitar,6,5,DL_Remix_Guitar,0.3293105363845825,0
58,100,0.4,633,0,60,DL_Remix_Guitar,6,6,DL_Remix_Guitar,0.303083598613739,0
58,100,0.1409090909090909,801,0,60,DL_Remix_Guitar,6,2,DL_Remix_Guitar,0.32182472944259644,0
53,100,0.18181818181818182,0,1,61,DL_Remix_Guitar,6,3,DL_Remix_Guitar,0.9996370077133179,1
53,100,0.16363636363636364,246,1,61,DL_Remix_Guitar,6,3,DL_Remix_Guitar,0.5508025288581848,0
58,100,0.11818181818181818,105,1,62,DL_Remix_Guitar,6,2,DL_Remix_Guitar,0.9998155236244202,1
53,100,0.5181818181818182,348,1,62,DL_Remix_Guitar,6,8,DL_Remix_Guitar,0.41475027799606323,0
53,100,0.1409090909090909,584,1,62,DL_Remix_Guitar,6,2,DL_Remix_Guitar,0.4433128535747528,0
63,100,0.2,4,1,63,DL_Remix_Guitar,6,3,DL_Remix_Guitar,0.9998230338096619,1
58,100,0.4,118,0,63,DL_Remix_Guitar,6,6,DL_Remix_Guitar,0.20052513480186462,0
58,100,0.18181818181818182,308,0,63,DL_Remix_Guitar,6,3,DL_Remix_Guitar,0.2083035260438919,0
53,100,0.5,378,0,63,DL_Remix_Guitar,6,8,DL_Remix_Guitar,0.22147724032402039,0
53,100,0.21818181818181817,493,0,63,DL_Remix_Guitar,6,3,DL_Remix_Guitar,0.22167515754699707,0
63,100,0.32272727272727275,189,1,65,DL_Remix_Guitar,6,5,DL_Remix_Guitar,0.9928401708602905,0
53,100,0.2,92,1,66,DL_Remix_Guitar,6,3,DL_Remix_Guitar,0.9996238946914673,1
58,100,0.37727272727272726,612,1,66,DL_Remix_Guitar,6,6,DL_Remix_Guitar,0.5373930931091309,0
53,100,0.2590909090909091,493,1,67,DL_Remix_Guitar,6,4,DL_Remix_Guitar,0.9998573064804077,1
53,100,0.16363636363636364,553,0,67,DL_Remix_Guitar,6,3,DL_Remix_Guitar,0.3154762089252472,0
53,100,0.11818181818181818,593,0,67,DL_Remix_Guitar,6,2,DL_Remix_Guitar,0.28764140605926514,0
53,100,0.11818181818181818,624,0,67,DL_Remix_Guitar,6,2,DL_Remix_Guitar,0.3062174916267395,0
58,100,0.11818181818181818,66,1,68,DL_Remix_Guitar,6,2,DL_Remix_Guitar,0.9996161460876465,1
53,100,0.5409090909090909,686,1,68,DL_Remix_Guitar,6,9,DL_Remix_Guitar,0.5479801893234253,0
53,100,0.1409090909090909,273,1,69,DL_Remix_Guitar,6,2,DL_Remix_Guitar,0.9998573064804077,1
58,100,0.1409090909090909,399,0,69,DL_Remix_Guitar,6,2,DL_Remix_Guitar,0.3044201731681824,0
53,100,0.18181818181818182,430,0,69,DL_Remix_Guitar,6,3,DL_Remix_Guitar,0.309423565864563,0
58,100,0.2409090909090909,470,0,69,DL_Remix_Guitar,6,4,DL_Remix_Guitar,0.2964867949485779,0
60,100,0.1409090909090909,316,1,70,DL_Remix_Guitar,6,2,DL_Remix_Guitar,0.9936459064483643,0
55,100,0.4818181818181818,682,1,71,DL_Remix_Guitar,6,8,DL_Remix_Guitar,0.9995861649513245,1
58,100,0.4,800,0,71,DL_Remix_Guitar,6,6,DL_Remix_Guitar,0.5441317558288574,0
55,100,0.22272727272727272,69,1,72,DL_Remix_Guitar,6,4,DL_Remix_Guitar,0.9998394250869751,1
58,100,0.3409090909090909,179,0,72,DL_Remix_Guitar,6,5,DL_Remix_Guitar,0.31194430589675903,0
65,100,0.2818181818181818,267,0,72,DL_Remix_Guitar,6,5,DL_Remix_Guitar,0.3105161488056183,0
65,100,0.21818181818181817,876,1,72,DL_Remix_Guitar,6,3,DL_Remix_Guitar,0.31613364815711975,0
65,100,0.18181818181818182,153,1,73,DL_Remix_Guitar,6,3,DL_Remix_Guitar,0.9934398531913757,0
65,100,0.2,326,1,74,DL_Remix_Guitar,6,3,DL_Remix_Guitar,0.9998553991317749,1
53,100,0.1,413,0,74,DL_Remix_Guitar,6,2,DL_Remix_Guitar,0.32531625032424927,0
55,100,0.1590909090909091,475,0,74,DL_Remix_Guitar,6,3,DL_Remix_Guitar,0.28794074058532715,0
65,100,0.2590909090909091,800,1,74,DL_Remix_Guitar,6,4,DL_Remix_Guitar,0.30196499824523926,0
65,100,0.5409090909090909,0,1,75,DL_Remix_Guitar,6,9,DL_Remix_Guitar,0.9998441934585571,1
53,100,0.11818181818181818,656,1,75,DL_Remix_Guitar,6,2,DL_Remix_Guitar,0.3452839255332947,0
65,100,0.1590909090909091,682,0,75,DL_Remix_Guitar,6,3,DL_Remix_Guitar,0.2915745675563812,0
53,100,0.35909090909090907,734,0,75,DL_Remix_Guitar,6,6,DL_Remix_Guitar,0.29878392815589905,0
63,100,0.2772727272727273,303,1,76,DL_Remix_Guitar,6,4,DL_Remix_Guitar,0.9998300075531006,1
53,100,0.22272727272727272,619,1,76,DL_Remix_Guitar,6,4,DL_Remix_Guitar,0.2244604080915451,0
53,100,0.11818181818181818,770,0,76,DL_Remix_Guitar,6,2,DL_Remix_Guitar,0.1998434215784073,0
53,100,0.11818181818181818,800,0,76,DL_Remix_Guitar,6,2,DL_Remix_Guitar,0.20761226117610931,0
53,100,0.4590909090909091,836,0,76,DL_Remix_Guitar,6,7,DL_Remix_Guitar,0.19844523072242737,0
53,100,0.33636363636363636,502,1,77,DL_Remix_Guitar,6,5,DL_Remix_Guitar,0.9998311996459961,1
53,100,0.4,637,0,77,DL_Remix_Guitar,6,6,DL_Remix_Guitar,0.40782636404037476,0
53,100,0.18181818181818182,729,0,77,DL_Remix_Guitar,6,3,DL_Remix_Guitar,0.4323395788669586,0
58,100,0.35909090909090907,119,1,78,DL_Remix_Guitar,6,6,DL_Remix_Guitar,0.9998168349266052,1
53,100,0.2772727272727273,383,1,78,DL_Remix_Guitar,6,4,DL_Remix_Guitar,0.21946658194065094,0
53,100,0.3409090909090909,527,0,78,DL_Remix_Guitar,6,5,DL_Remix_Guitar,0.19847694039344788,0
53,100,0.1409090909090909,703,0,78,DL_Remix_Guitar,6,2,DL_Remix_Guitar,0.22353169322013855,0
53,100,0.7,817,0,78,DL_Remix_Guitar,6,11,DL_Remix_Guitar,0.20258156955242157,0
53,100,0.3,106,1,79,DL_Remix_Guitar,6,5,DL_Remix_Guitar,0.9998403787612915,1
53,100,0.3,567,1,79,DL_Remix_Guitar,6,5,DL_Remix_Guitar,0.20502755045890808,0
53,100,0.17727272727272728,677,0,79,DL_Remix_Guitar,6,3,DL_Remix_Guitar,0.20192918181419373,0
57,100,0.3,716,0,79,DL_Remix_Guitar,6,5,DL_Remix_Guitar,0.20020151138305664,0
57,100,0.11818181818181818,813,0,79,DL_Remix_Guitar,6,2,DL_Remix_Guitar,0.20459657907485962,0
53,100,0.3,157,1,81,DL_Remix_Guitar,6,5,DL_Remix_Guitar,0.9998031258583069,1
58,100,0.22272727272727272,246,0,81,DL_Remix_Guitar,6,4,DL_Remix_Guitar,0.11890506744384766,0
53,100,0.2590909090909091,316,0,81,DL_Remix_Guitar,6,4,DL_Remix_Guitar,0.12545108795166016,0
53,100,0.32272727272727275,453,0,81,DL_Remix_Guitar,6,5,DL_Remix_Guitar,0.13442747294902802,0
53,100,0.2,597,0,81,DL_Remix_Guitar,6,3,DL_Remix_Guitar,0.14570648968219757,0
53,100,0.3,766,0,81,DL_Remix_Guitar,6,5,DL_Remix_Guitar,0.13449613749980927,0
53,100,0.6818181818181818,26,1,82,DL_Remix_Guitar,6,11,DL_Remix_Guitar,0.9997053742408752,1
53,100,0.1590909090909091,193,0,82,DL_Remix_Guitar,6,3,DL_Remix_Guitar,0.06052125245332718,0
53,100,0.1,233,0,82,DL_Remix_Guitar,6,2,DL_Remix_Guitar,0.0474904328584671,0
53,100,0.1,343,0,82,DL_Remix_Guitar,6,2,DL_Remix_Guitar,0.047217633575201035,0
53,100,0.3181818181818182,506,0,82,DL_Remix_Guitar,6,5,DL_Remix_Guitar,0.05055544152855873,0
53,100,0.11818181818181818,612,0,82,DL_Remix_Guitar,6,2,DL_Remix_Guitar,0.05998378247022629,0
60,100,0.18181818181818182,770,0,82,DL_Remix_Guitar,6,3,DL_Remix_Guitar,0.06533357501029968,0
65,100,0.1590909090909091,857,0,82,DL_Remix_Guitar,6,3,DL_Remix_Guitar,0.05918562039732933,0
53,100,0.2409090909090909,13,1,83,DL_Remix_Guitar,6,4,DL_Remix_Guitar,0.999618649482727,1
65,100,0.9818181818181818,100,0,83,DL_Remix_Guitar,6,15,DL_Remix_Guitar,0.5342279672622681,0
65,100,0.6409090909090909,739,1,85,DL_Remix_Guitar,6,10,DL_Remix_Guitar,0.9927356243133545,0
53,100,0.3181818181818182,303,1,86,DL_Remix_Guitar,6,5,DL_Remix_Guitar,0.999826967716217,1
65,100,0.1,443,0,86,DL_Remix_Guitar,6,2,DL_Remix_Guitar,0.4287305176258087,0
65,100,0.5590909090909091,585,0,86,DL_Remix_Guitar,6,9,DL_Remix_Guitar,0.4119897782802582,0
65,100,0.17727272727272728,514,1,87,DL_Remix_Guitar,6,3,DL_Remix_Guitar,0.999839186668396,1
53,100,0.22272727272727272,553,0,87,DL_Remix_Guitar,6,4,DL_Remix_Guitar,0.20295147597789764,0
53,100,0.38181818181818183,606,0,87,DL_Remix_Guitar,6,6,DL_Remix_Guitar,0.1956222802400589,0
65,100,0.42272727272727273,773,0,87,DL_Remix_Guitar,6,7,DL_Remix_Guitar,0.2014271765947342,0
53,100,0.5181818181818182,866,0,87,DL_Remix_Guitar,6,8,DL_Remix_Guitar,0.20380885899066925,0
65,100,0.4818181818181818,377,1,88,DL_Remix_Guitar,6,8,DL_Remix_Guitar,0.9998260140419006,1
70,100,0.18181818181818182,506,0,88,DL_Remix_Guitar,6,3,DL_Remix_Guitar,0.4005597233772278,0
53,100,0.23636363636363636,832,1,88,DL_Remix_Guitar,6,4,DL_Remix_Guitar,0.43696457147598267,0
61,100,0.1590909090909091,541,1,0,DL_Guitar,6,3,DL_Guitar,0.9930917024612427,0
53,100,0.13636363636363635,172,1,1,DL_Guitar,6,2,DL_Guitar,0.9996603727340698,1
53,100,0.16363636363636364,224,0,1,DL_Guitar,6,3,DL_Guitar,0.5461737513542175,0
56,100,0.2772727272727273,625,1,2,DL_Guitar,6,4,DL_Guitar,0.9933324456214905,0
80,100,0.12272727272727273,223,1,3,DL_Guitar,6,2,DL_Guitar,0.9996507167816162,1
53,100,0.38181818181818183,461,1,3,DL_Guitar,6,6,DL_Guitar,0.5416585206985474,0
61,100,0.12272727272727273,818,1,4,DL_Guitar,6,2,DL_Guitar,0.9933428764343262,0
61,100,0.16363636363636364,179,1,5,DL_Guitar,6,3,DL_Guitar,0.9998061060905457,1
65,100,0.11818181818181818,215,0,5,DL_Guitar,6,2,DL_Guitar,0.12327761948108673,0
61,100,0.2,260,0,5,DL_Guitar,6,3,DL_Guitar,0.11732117086648941,0
61,100,0.2818181818181818,355,0,5,DL_Guitar,6,5,DL_Guitar,0.134168341755867,0
65,100,0.1409090909090909,581,0,5,DL_Guitar,6,2,DL_Guitar,0.14746229350566864,0
61,100,0.4590909090909091,660,0,5,DL_Guitar,6,7,DL_Guitar,0.13126631081104279,0
61,100,0.16363636363636364,201,1,6,DL_Guitar,6,3,DL_Guitar,0.9998084902763367,1
66,100,0.4818181818181818,268,0,6,DL_Guitar,6,8,DL_Guitar,0.11811274290084839,0
61,100,0.11818181818181818,383,0,6,DL_Guitar,6,2,DL_Guitar,0.12344224750995636,0
66,100,0.1590909090909091,475,0,6,DL_Guitar,6,3,DL_Guitar,0.14096298813819885,0
61,100,0.5409090909090909,703,0,6,DL_Guitar,6,9,DL_Guitar,0.13485856354236603,0
61,100,0.12272727272727273,839,0,6,DL_Guitar,6,2,DL_Guitar,0.13801723718643188,0
53,100,0.17727272727272728,734,1,7,DL_Guitar,6,3,DL_Guitar,0.9934260845184326,0
56,100,0.18181818181818182,598,1,8,DL_Guitar,6,3,DL_Guitar,0.9934424161911011,0
54,100,0.1590909090909091,374,1,9,DL_Guitar,6,3,DL_Guitar,0.9998296499252319,1
54,100,0.11818181818181818,426,0,9,DL_Guitar,6,2,DL_Guitar,0.4253462851047516,0
54,100,0.5227272727272727,849,1,9,DL_Guitar,6,8,DL_Guitar,0.4081459939479828,0
56,100,0.5,660,1,10,DL_Guitar,6,8,DL_Guitar,0.9996262788772583,1
53,100,0.11818181818181818,823,0,10,DL_Guitar,6,2,DL_Guitar,0.5555480718612671,0
61,100,0.17727272727272728,338,1,11,DL_Guitar,6,3,DL_Guitar,0.9998587369918823,1
61,100,0.1,391,0,11,DL_Guitar,6,2,DL_Guitar,0.3220563530921936,0
54,100,0.1409090909090909,505,0,11,DL_Guitar,6,2,DL_Guitar,0.2982802093029022,0
54,100,0.5636363636363636,575,0,11,DL_Guitar,6,9,DL_Guitar,0.2868694067001343,0
54,100,0.21818181818181817,501,1,12,DL_Guitar,6,3,DL_Guitar,0.9996354579925537,1
53,100,0.2590909090909091,550,0,12,DL_Guitar,6,4,DL_Guitar,0.5484628081321716,0
56,100,0.2409090909090909,8,1,13,DL_Guitar,6,4,DL_Guitar,0.9998233914375305,1
61,100,0.4409090909090909,527,1,13,DL_Guitar,6,7,DL_Guitar,0.39397138357162476,0
61,100,0.12272727272727273,642,0,13,DL_Guitar,6,2,DL_Guitar,0.4473283886909485,0
56,100,0.2590909090909091,44,1,14,DL_Guitar,6,4,DL_Guitar,0.9998515844345093,1
56,100,0.37727272727272726,391,1,14,DL_Guitar,6,6,DL_Guitar,0.31769317388534546,0
60,100,0.12272727272727273,510,0,14,DL_Guitar,6,2,DL_Guitar,0.3067677319049835,0
56,100,0.4,801,1,14,DL_Guitar,6,6,DL_Guitar,0.2944968640804291,0
56,100,0.1590909090909091,118,1,15,DL_Guitar,6,3,DL_Guitar,0.9998301267623901,1
56,100,0.2409090909090909,166,0,15,DL_Guitar,6,4,DL_Guitar,0.40795010328292847,0
68,100,0.21818181818181817,634,1,15,DL_Guitar,6,3,DL_Guitar,0.43066930770874023,0
54,100,0.2,123,1,16,DL_Guitar,6,3,DL_Guitar,0.9998377561569214,1
61,100,0.2,466,1,16,DL_Guitar,6,3,DL_Guitar,0.2151079773902893,0
53,100,0.1,540,0,16,DL_Guitar,6,2,DL_Guitar,0.1971779763698578,0
61,100,0.43636363636363634,677,0,16,DL_Guitar,6,7,DL_Guitar,0.19660352170467377,0
61,100,0.1,835,0,16,DL_Guitar,6,2,DL_Guitar,0.20476049184799194,0
61,100,0.35909090909090907,0,1,17,DL_Guitar,6,6,DL_Guitar,0.9997974038124084,1
61,100,0.1590909090909091,96,0,17,DL_Guitar,6,3,DL_Guitar,0.13239392638206482,0
63,100,0.1409090909090909,272,0,17,DL_Guitar,6,2,DL_Guitar,0.12000195682048798,0
56,100,0.17727272727272728,470,0,17,DL_Guitar,6,3,DL_Guitar,0.13805754482746124,0
56,100,0.2772727272727273,515,0,17,DL_Guitar,6,4,DL_Guitar,0.14108461141586304,0
56,100,0.17727272727272728,810,1,17,DL_Guitar,6,3,DL_Guitar,0.13393937051296234,0
56,100,0.12272727272727273,13,1,18,DL_Guitar,6,2,DL_Guitar,0.9996780157089233,1
56,100,0.11818181818181818,44,0,18,DL_Guitar,6,2,DL_Guitar,0.03154483065009117,0
61,100,0.16363636363636364,92,0,18,DL_Guitar,6,3,DL_Guitar,0.021045370027422905,0
53,100,0.1590909090909091,272,0,18,DL_Guitar,6,3,DL_Guitar,0.016331668943166733,0
61,100,0.1590909090909091,360,0,18,DL_Guitar,6,3,DL_Guitar,0.013184066861867905,0
54,100,0.12272727272727273,453,0,18,DL_Guitar,6,2,DL_Guitar,0.012560222297906876,0
54,100,0.38181818181818183,484,0,18,DL_Guitar,6,6,DL_Guitar,0.012932629324495792,0
61,100,0.2772727272727273,581,0,18,DL_Guitar,6,4,DL_Guitar,0.016456857323646545,0
54,100,0.2,650,0,18,DL_Guitar,6,3,DL_Guitar,0.02351720817387104,0
54,100,0.1590909090909091,712,0,18,DL_Guitar,6,3,DL_Guitar,0.032307274639606476,0
61,100,0.1409090909090909,752,0,18,DL_Guitar,6,2,DL_Guitar,0.034576330333948135,0
61,100,0.13636363636363635,216,1,19,DL_Guitar,6,2,DL_Guitar,0.99982750415802,1
61,100,0.43636363636363634,281,0,19,DL_Guitar,6,7,DL_Guitar,0.3964160680770874,0
63,100,0.2590909090909091,700,1,19,DL_Guitar,6,4,DL_Guitar,0.4312765896320343,0
61,100,0.5,193,1,20,DL_Guitar,6,8,DL_Guitar,0.9998177886009216,1
60,100,0.11818181818181818,501,1,20,DL_Guitar,6,2,DL_Guitar,0.44240790605545044,0
61,100,0.18181818181818182,835,1,20,DL_Guitar,6,3,DL_Guitar,0.4196145236492157,0
63,100,0.2,497,1,21,DL_Guitar,6,3,DL_Guitar,0.9930897355079651,0
61,100,0.1409090909090909,581,1,22,DL_Guitar,6,2,DL_Guitar,0.999830961227417,1
61,100,0.2409090909090909,638,0,22,DL_Guitar,6,4,DL_Guitar,0.41086822748184204,0
61,100,0.2409090909090909,735,0,22,DL_Guitar,6,4,DL_Guitar,0.42313289642333984,0
56,100,0.22272727272727272,233,1,23,DL_Guitar,6,4,DL_Guitar,0.9930670261383057,0
61,100,0.21818181818181817,339,1,24,DL_Guitar,6,3,DL_Guitar,0.9998292922973633,1
61,100,0.43636363636363634,413,0,24,DL_Guitar,6,7,DL_Guitar,0.2043430656194687,0
61,100,0.5772727272727273,625,0,24,DL_Guitar,6,9,DL_Guitar,0.19989079236984253,0
61,100,0.11818181818181818,770,0,24,DL_Guitar,6,2,DL_Guitar,0.22070062160491943,0
61,100,0.5818181818181818,835,0,24,DL_Guitar,6,9,DL_Guitar,0.19953234493732452,0
61,100,0.2409090909090909,88,1,25,DL_Guitar,6,4,DL_Guitar,0.9998310804367065,1
54,100,0.5409090909090909,144,0,25,DL_Guitar,6,9,DL_Guitar,0.2048058807849884,0
54,100,0.4,295,0,25,DL_Guitar,6,6,DL_Guitar,0.1984056532382965,0
54,100,0.5590909090909091,413,0,25,DL_Guitar,6,9,DL_Guitar,0.20686662197113037,0
54,100,0.11818181818181818,550,0,25,DL_Guitar,6,2,DL_Guitar,0.21826592087745667,0
57,100,0.1,272,1,26,DL_Guitar,6,2,DL_Guitar,0.9932659864425659,0
61,100,1.0636363636363637,26,1,27,DL_Guitar,6,15,DL_Guitar,0.9998173117637634,1
61,100,0.11818181818181818,339,1,27,DL_Guitar,6,2,DL_Guitar,0.3737798035144806,0
61,100,0.2,638,1,27,DL_Guitar,6,3,DL_Guitar,0.3014211058616638,0
61,100,0.4,773,0,27,DL_Guitar,6,6,DL_Guitar,0.3052406311035156,0
60,100,0.2590909090909091,250,1,28,DL_Guitar,6,4,DL_Guitar,0.9998461008071899,1
60,100,0.2590909090909091,382,0,28,DL_Guitar,6,4,DL_Guitar,0.20652280747890472,0
60,100,0.13636363636363635,457,0,28,DL_Guitar,6,2,DL_Guitar,0.19579912722110748,0
53,100,0.5772727272727273,501,0,28,DL_Guitar,6,9,DL_Guitar,0.19215330481529236,0
53,100,0.22272727272727272,673,0,28,DL_Guitar,6,4,DL_Guitar,0.2061157524585724,0
53,100,0.11818181818181818,0,1,29,DL_Guitar,6,2,DL_Guitar,0.9998571872711182,1
54,100,0.11818181818181818,611,1,29,DL_Guitar,6,2,DL_Guitar,0.3206356465816498,0
54,100,0.12272727272727273,686,0,29,DL_Guitar,6,2,DL_Guitar,0.2996349036693573,0
54,100,0.41818181818181815,725,0,29,DL_Guitar,6,7,DL_Guitar,0.29629820585250854,0
54,100,0.7181818181818181,65,1,30,DL_Guitar,6,11,DL_Guitar,0.9998199343681335,1
54,100,0.2,246,0,30,DL_Guitar,6,3,DL_Guitar,0.2274516075849533,0
53,100,0.23636363636363636,721,1,30,DL_Guitar,6,4,DL_Guitar,0.2034982144832611,0
60,100,0.1,787,0,30,DL_Guitar,6,2,DL_Guitar,0.21142666041851044,0
53,100,0.5363636363636364,831,0,30,DL_Guitar,6,9,DL_Guitar,0.19398640096187592,0
65,100,0.12272727272727273,100,1,31,DL_Guitar,6,2,DL_Guitar,0.9998379945755005,1
53,100,0.9181818181818182,127,0,31,DL_Guitar,6,15,DL_Guitar,0.177230104804039,0
53,100,0.4,356,0,31,DL_Guitar,6,6,DL_Guitar,0.2191437929868698,0
61,100,0.4,488,0,31,DL_Guitar,6,6,DL_Guitar,0.21474416553974152,0
61,100,0.8,642,0,31,DL_Guitar,6,13,DL_Guitar,0.2038404792547226,0
61,100,0.18181818181818182,0,1,32,DL_Guitar,6,3,DL_Guitar,0.9998356103897095,1
61,100,0.13636363636363635,171,0,32,DL_Guitar,6,2,DL_Guitar,0.20804403722286224,0
54,100,0.1409090909090909,453,1,32,DL_Guitar,6,2,DL_Guitar,0.19886775314807892,0
61,100,0.11818181818181818,668,0,32,DL_Guitar,6,2,DL_Guitar,0.20564420521259308,0
56,100,0.11818181818181818,845,0,32,DL_Guitar,6,2,DL_Guitar,0.20461595058441162,0
53,100,0.22272727272727272,211,1,33,DL_Guitar,6,4,DL_Guitar,0.9998001456260681,1
53,100,0.5409090909090909,321,0,33,DL_Guitar,6,9,DL_Guitar,0.12322947382926941,0
53,100,0.42272727272727273,444,0,33,DL_Guitar,6,7,DL_Guitar,0.12144733220338821,0
61,100,0.2590909090909091,633,0,33,DL_Guitar,6,4,DL_Guitar,0.13851338624954224,0
53,100,0.11818181818181818,713,0,33,DL_Guitar,6,2,DL_Guitar,0.1473074108362198,0
70,100,0.12272727272727273,774,0,33,DL_Guitar,6,2,DL_Guitar,0.12737205624580383,0
56,100,0.11818181818181818,31,1,34,DL_Guitar,6,2,DL_Guitar,0.9998052716255188,1
70,100,0.1,105,0,34,DL_Guitar,6,2,DL_Guitar,0.12305638194084167,0
54,100,0.18181818181818182,201,0,34,DL_Guitar,6,3,DL_Guitar,0.12903013825416565,0
54,100,0.6227272727272727,289,0,34,DL_Guitar,6,10,DL_Guitar,0.12814491987228394,0
54,100,0.1409090909090909,619,1,34,DL_Guitar,6,2,DL_Guitar,0.1563836932182312,0
54,100,0.3409090909090909,694,0,34,DL_Guitar,6,5,DL_Guitar,0.13402223587036133,0
61,100,0.11818181818181818,118,1,35,DL_Guitar,6,2,DL_Guitar,0.9997671246528625,1
53,100,0.2409090909090909,308,0,35,DL_Guitar,6,4,DL_Guitar,0.07903004437685013,0
53,100,0.4,421,0,35,DL_Guitar,6,6,DL_Guitar,0.072661392390728,0
65,100,0.12272727272727273,509,0,35,DL_Guitar,6,2,DL_Guitar,0.08243835717439651,0
60,100,0.2,576,0,35,DL_Guitar,6,3,DL_Guitar,0.08853347599506378,0
60,100,0.1409090909090909,625,0,35,DL_Guitar,6,2,DL_Guitar,0.09755244106054306,0
53,100,1.018181818181818,691,0,35,DL_Guitar,6,15,DL_Guitar,0.07875536382198334,0
61,100,0.38181818181818183,69,1,36,DL_Guitar,6,6,DL_Guitar,0.9998162388801575,1
61,100,0.2636363636363636,356,1,36,DL_Guitar,6,4,DL_Guitar,0.4263826608657837,0
54,100,0.8227272727272728,421,0,36,DL_Guitar,6,13,DL_Guitar,0.41791146993637085,0
54,100,0.2409090909090909,153,1,37,DL_Guitar,6,4,DL_Guitar,0.9998569488525391,1
54,100,0.11818181818181818,238,0,37,DL_Guitar,6,2,DL_Guitar,0.3248913586139679,0
54,100,0.1590909090909091,298,0,37,DL_Guitar,6,3,DL_Guitar,0.28986600041389465,0
54,100,0.11818181818181818,418,0,37,DL_Guitar,6,2,DL_Guitar,0.3037952780723572,0
56,100,0.5,40,1,38,DL_Guitar,6,8,DL_Guitar,0.9998067021369934,1
54,100,0.1590909090909091,713,1,38,DL_Guitar,6,3,DL_Guitar,0.44318944215774536,0
61,100,0.7818181818181819,791,0,38,DL_Guitar,6,13,DL_Guitar,0.4111874997615814,0
61,100,0.5590909090909091,141,1,39,DL_Guitar,6,9,DL_Guitar,0.9998346567153931,1
61,100,0.3409090909090909,364,0,39,DL_Guitar,6,5,DL_Guitar,0.3390117585659027,0
65,100,0.16363636363636364,531,0,39,DL_Guitar,6,3,DL_Guitar,0.30050837993621826,0
61,100,0.6181818181818182,568,0,39,DL_Guitar,6,10,DL_Guitar,0.30253252387046814,0
56,100,0.12272727272727273,48,1,40,DL_Guitar,6,2,DL_Guitar,0.9998576641082764,1
60,100,0.11818181818181818,295,1,40,DL_Guitar,6,2,DL_Guitar,0.3196660578250885,0
53,100,0.5409090909090909,399,0,40,DL_Guitar,6,9,DL_Guitar,0.27663907408714294,0
61,100,0.5181818181818182,703,1,40,DL_Guitar,6,8,DL_Guitar,0.30565357208251953,0
61,100,0.5590909090909091,193,1,41,DL_Guitar,6,9,DL_Guitar,0.9998354911804199,1
61,100,0.3,396,0,41,DL_Guitar,6,5,DL_Guitar,0.33685502409935,0
61,100,0.41818181818181815,691,1,41,DL_Guitar,6,7,DL_Guitar,0.2958484888076782,0
61,100,0.9409090909090909,804,0,41,DL_Guitar,6,15,DL_Guitar,0.3055148422718048,0
56,100,0.11818181818181818,303,1,42,DL_Guitar,6,2,DL_Guitar,0.999629020690918,1
53,100,0.5,638,1,42,DL_Guitar,6,8,DL_Guitar,0.5481029152870178,0
53,100,0.21818181818181817,0,1,43,DL_Guitar,6,3,DL_Guitar,0.9998517036437988,1
61,100,0.4636363636363636,48,0,43,DL_Guitar,6,7,DL_Guitar,0.31209003925323486,0
61,100,0.1590909090909091,373,1,43,DL_Guitar,6,3,DL_Guitar,0.30065086483955383,0
61,100,0.11818181818181818,448,0,43,DL_Guitar,6,2,DL_Guitar,0.3060307800769806,0
56,100,0.16363636363636364,311,1,44,DL_Guitar,6,3,DL_Guitar,0.9998316764831543,1
61,100,0.1409090909090909,660,1,44,DL_Guitar,6,2,DL_Guitar,0.4158848524093628,0
61,100,0.2409090909090909,694,0,44,DL_Guitar,6,4,DL_Guitar,0.42018795013427734,0
61,100,0.4409090909090909,118,1,45,DL_Guitar,6,7,DL_Guitar,0.9998430013656616,1
61,100,0.2,426,1,45,DL_Guitar,6,3,DL_Guitar,0.3440316915512085,0
54,100,0.1409090909090909,603,0,45,DL_Guitar,6,2,DL_Guitar,0.28929588198661804,0
54,100,0.1,751,0,45,DL_Guitar,6,2,DL_Guitar,0.30774062871932983,0
56,100,0.1590909090909091,96,1,46,DL_Guitar,6,3,DL_Guitar,0.9996511936187744,1
56,100,0.2,466,1,46,DL_Guitar,6,3,DL_Guitar,0.5514732003211975,0
58,100,0.1409090909090909,224,1,47,DL_Guitar,6,2,DL_Guitar,0.9998192191123962,1
61,100,0.18181818181818182,396,0,47,DL_Guitar,6,3,DL_Guitar,0.42630311846733093,0
58,100,0.1,593,0,47,DL_Guitar,6,2,DL_Guitar,0.41871440410614014,0
56,100,0.1590909090909091,260,1,48,DL_Guitar,6,3,DL_Guitar,0.9998350143432617,1
56,100,0.2818181818181818,518,1,48,DL_Guitar,6,5,DL_Guitar,0.21107031404972076,0
56,100,0.17727272727272728,633,0,48,DL_Guitar,6,3,DL_Guitar,0.2022109031677246,0
61,100,0.1409090909090909,694,0,48,DL_Guitar,6,2,DL_Guitar,0.20466552674770355,0
63,100,0.18181818181818182,770,0,48,DL_Guitar,6,3,DL_Guitar,0.19933173060417175,0
56,100,0.2590909090909091,260,1,49,DL_Guitar,6,4,DL_Guitar,0.9996137022972107,1
61,100,0.2590909090909091,633,1,49,DL_Guitar,6,4,DL_Guitar,0.5566895604133606,0
54,100,0.3409090909090909,188,1,50,DL_Guitar,6,5,DL_Guitar,0.999799907207489,1
54,100,0.1590909090909091,405,0,50,DL_Guitar,6,3,DL_Guitar,0.13592754304409027,0
66,100,0.12272727272727273,444,0,50,DL_Guitar,6,2,DL_Guitar,0.11860668659210205,0
56,100,0.16363636363636364,509,0,50,DL_Guitar,6,3,DL_Guitar,0.13741838932037354,0
56,100,0.5227272727272727,751,1,50,DL_Guitar,6,8,DL_Guitar,0.13421663641929626,0
61,100,0.2590909090909091,875,0,50,DL_Guitar,6,4,DL_Guitar,0.13470558822155,0
56,100,0.2590909090909091,56,1,51,DL_Guitar,6,4,DL_Guitar,0.9998056292533875,1
56,100,0.5181818181818182,308,1,51,DL_Guitar,6,8,DL_Guitar,0.11986827105283737,0
56,100,0.3,444,0,51,DL_Guitar,6,5,DL_Guitar,0.12490378320217133,0
56,100,0.4409090909090909,550,0,51,DL_Guitar,6,7,DL_Guitar,0.1366165429353714,0
56,100,0.38181818181818183,686,0,51,DL_Guitar,6,6,DL_Guitar,0.14508093893527985,0
56,100,0.4590909090909091,791,0,51,DL_Guitar,6,7,DL_Guitar,0.13129597902297974,0
56,100,0.4772727272727273,61,1,52,DL_Guitar,6,8,DL_Guitar,0.9998156428337097,1
56,100,0.18181818181818182,233,0,52,DL_Guitar,6,3,DL_Guitar,0.43194344639778137,0
54,100,0.3,311,0,52,DL_Guitar,6,5,DL_Guitar,0.42781612277030945,0
56,100,0.2,40,1,53,DL_Guitar,6,3,DL_Guitar,0.9997993111610413,1
56,100,0.18181818181818182,110,0,53,DL_Guitar,6,3,DL_Guitar,0.13021808862686157,0
56,100,0.2590909090909091,281,0,53,DL_Guitar,6,4,DL_Guitar,0.11909567564725876,0
63,100,0.11818181818181818,373,0,53,DL_Guitar,6,2,DL_Guitar,0.13664892315864563,0
56,100,0.16363636363636364,774,1,53,DL_Guitar,6,3,DL_Guitar,0.14412420988082886,0
56,100,0.22272727272727272,848,0,53,DL_Guitar,6,4,DL_Guitar,0.1334792673587799,0
61,100,0.2409090909090909,48,1,54,DL_Guitar,6,4,DL_Guitar,0.999839186668396,1
56,100,0.2,110,0,54,DL_Guitar,6,3,DL_Guitar,0.2075551301240921,0
66,100,0.11818181818181818,703,1,54,DL_Guitar,6,2,DL_Guitar,0.19819289445877075,0
61,100,0.2,810,0,54,DL_Guitar,6,3,DL_Guitar,0.20448464155197144,0
54,100,0.38181818181818183,861,0,54,DL_Guitar,6,6,DL_Guitar,0.20251987874507904,0
56,100,0.36363636363636365,818,1,55,DL_Guitar,6,6,DL_Guitar,0.9928967356681824,0
61,100,2.040909090909091,268,1,56,DL_Guitar,6,15,DL_Guitar,0.9994365572929382,1
61,100,0.5772727272727273,866,1,56,DL_Guitar,6,9,DL_Guitar,0.5889018177986145,0
56,100,0.21818181818181817,361,1,58,DL_Guitar,6,3,DL_Guitar,0.9995848536491394,1
61,100,1.759090909090909,550,0,58,DL_Guitar,6,15,DL_Guitar,0.5236225724220276,0
61,100,0.1590909090909091,215,1,59,DL_Guitar,6,3,DL_Guitar,0.9997982382774353,1
61,100,0.1409090909090909,373,0,59,DL_Guitar,6,2,DL_Guitar,0.13105656206607819,0
56,100,0.22272727272727272,541,0,59,DL_Guitar,6,4,DL_Guitar,0.11811692267656326,0
57,100,0.1590909090909091,726,0,59,DL_Guitar,6,3,DL_Guitar,0.137139692902565,0
57,100,0.35909090909090907,783,0,59,DL_Guitar,6,6,DL_Guitar,0.13545657694339752,0
53,100,0.2,875,0,59,DL_Guitar,6,3,DL_Guitar,0.14288268983364105,0
57,100,0.2409090909090909,48,1,60,DL_Guitar,6,4,DL_Guitar,0.9998440742492676,1
61,100,0.23636363636363636,171,0,60,DL_Guitar,6,4,DL_Guitar,0.3286914527416229,0
61,100,1.1181818181818182,228,0,60,DL_Guitar,6,15,DL_Guitar,0.2844935655593872,0
61,100,2.2409090909090907,673,1,60,DL_Guitar,6,15,DL_Guitar,0.31080225110054016,0
61,100,0.5818181818181818,364,1,61,DL_Guitar,6,9,DL_Guitar,0.9995949864387512,1
61,100,0.3409090909090909,531,0,61,DL_Guitar,6,5,DL_Guitar,0.556033730506897,0
61,100,0.8818181818181818,461,1,62,DL_Guitar,6,14,DL_Guitar,0.9997990727424622,1
61,100,0.5,681,0,62,DL_Guitar,6,8,DL_Guitar,0.4480731189250946,0
61,100,0.2636363636363636,796,0,62,DL_Guitar,6,4,DL_Guitar,0.4360339641571045,0
61,100,1.9636363636363636,48,1,63,DL_Guitar,6,15,DL_Guitar,0.9994692206382751,1
61,100,0.2409090909090909,576,1,63,DL_Guitar,6,4,DL_Guitar,0.5927364826202393,0
61,100,0.5409090909090909,440,1,64,DL_Guitar,6,9,DL_Guitar,0.9998180270195007,1
56,100,0.4,713,1,64,DL_Guitar,6,6,DL_Guitar,0.42473354935646057,0
56,100,0.2772727272727273,853,0,64,DL_Guitar,6,4,DL_Guitar,0.4300744831562042,0
53,100,0.9590909090909091,470,1,65,DL_Guitar,6,15,DL_Guitar,0.9995623230934143,1
54,100,0.1590909090909091,805,1,65,DL_Guitar,6,3,DL_Guitar,0.5745134353637695,0
54,100,0.11818181818181818,40,1,66,DL_Guitar,6,2,DL_Guitar,0.9998327493667603,1
54,100,0.3,106,0,66,DL_Guitar,6,5,DL_Guitar,0.20994210243225098,0
54,100,0.2590909090909091,273,0,66,DL_Guitar,6,4,DL_Guitar,0.19700835645198822,0
54,100,0.1409090909090909,404,0,66,DL_Guitar,6,2,DL_Guitar,0.2105380892753601,0
56,100,0.18181818181818182,729,1,66,DL_Guitar,6,3,DL_Guitar,0.2047424167394638,0
56,100,0.740909090909091,113,1,67,DL_Guitar,6,12,DL_Guitar,0.9998371601104736,1
63,100,0.2409090909090909,377,1,67,DL_Guitar,6,4,DL_Guitar,0.33859893679618835,0
56,100,0.22272727272727272,487,0,67,DL_Guitar,6,4,DL_Guitar,0.29552212357521057,0
65,100,0.1409090909090909,760,1,67,DL_Guitar,6,2,DL_Guitar,0.31422895193099976,0
54,100,0.4,163,1,68,DL_Guitar,6,6,DL_Guitar,0.9998385906219482,1
54,100,0.9590909090909091,263,0,68,DL_Guitar,6,15,DL_Guitar,0.30465126037597656,0
54,100,0.3,480,0,68,DL_Guitar,6,5,DL_Guitar,0.3242373466491699,0
54,100,0.11818181818181818,624,0,68,DL_Guitar,6,2,DL_Guitar,0.31650310754776,0
53,100,0.18181818181818182,110,1,70,DL_Guitar,6,3,DL_Guitar,0.9998056292533875,1
53,100,0.4590909090909091,176,0,70,DL_Guitar,6,7,DL_Guitar,0.12044328451156616,0
53,100,0.2590909090909091,316,0,70,DL_Guitar,6,4,DL_Guitar,0.1255251169204712,0
54,100,0.2,633,1,70,DL_Guitar,6,3,DL_Guitar,0.13584871590137482,0
54,100,0.1409090909090909,760,0,70,DL_Guitar,6,2,DL_Guitar,0.14370931684970856,0
54,100,0.3,813,0,70,DL_Guitar,6,5,DL_Guitar,0.12910477817058563,0
56,100,0.7227272727272728,356,1,71,DL_Guitar,6,12,DL_Guitar,0.9995854496955872,1
56,100,0.2,800,1,71,DL_Guitar,6,3,DL_Guitar,0.5635011196136475,0
54,100,0.3181818181818182,0,1,73,DL_Guitar,6,5,DL_Guitar,0.9998470544815063,1
54,100,0.11818181818181818,83,0,73,DL_Guitar,6,2,DL_Guitar,0.3277050256729126,0
61,100,0.3,606,1,73,DL_Guitar,6,5,DL_Guitar,0.2911904752254486,0
61,100,0.18181818181818182,695,0,73,DL_Guitar,6,3,DL_Guitar,0.3074203431606293,0
65,100,0.1409090909090909,449,1,74,DL_Guitar,6,2,DL_Guitar,0.999832272529602,1
61,100,0.4,506,0,74,DL_Guitar,6,6,DL_Guitar,0.4023936986923218,0
61,100,0.2409090909090909,783,1,74,DL_Guitar,6,4,DL_Guitar,0.4243508279323578,0
57,100,0.35909090909090907,140,1,75,DL_Guitar,6,6,DL_Guitar,0.9997900128364563,1
54,100,0.12272727272727273,255,0,75,DL_Guitar,6,2,DL_Guitar,0.13533590734004974,0
54,100,0.22272727272727272,422,0,75,DL_Guitar,6,4,DL_Guitar,0.11923043429851532,0
54,100,0.3,546,0,75,DL_Guitar,6,5,DL_Guitar,0.13333018124103546,0
61,100,0.1409090909090909,650,0,75,DL_Guitar,6,2,DL_Guitar,0.1458587497472763,0
61,100,0.17727272727272728,722,0,75,DL_Guitar,6,3,DL_Guitar,0.1369577795267105,0
56,100,0.11818181818181818,0,1,76,DL_Guitar,6,2,DL_Guitar,0.9997631907463074,1
53,100,1.1,100,0,76,DL_Guitar,6,15,DL_Guitar,0.0705152377486229,0
60,100,0.4772727272727273,370,1,76,DL_Guitar,6,8,DL_Guitar,0.08080346137285233,0
57,100,0.12272727272727273,509,0,76,DL_Guitar,6,2,DL_Guitar,0.08328446000814438,0
63,100,0.1,550,0,76,DL_Guitar,6,2,DL_Guitar,0.09185771644115448,0
61,100,0.3181818181818182,770,0,76,DL_Guitar,6,5,DL_Guitar,0.09605752676725388,0
60,100,0.2409090909090909,839,0,76,DL_Guitar,6,4,DL_Guitar,0.09103609621524811,0
56,100,0.3409090909090909,110,1,77,DL_Guitar,6,5,DL_Guitar,0.9997590184211731,1
61,100,0.2,356,1,77,DL_Guitar,6,3,DL_Guitar,0.08269614726305008,0
54,100,0.1590909090909091,413,0,77,DL_Guitar,6,3,DL_Guitar,0.07355391979217529,0
54,100,0.1,466,0,77,DL_Guitar,6,2,DL_Guitar,0.08175760507583618,0
54,100,0.3409090909090909,514,0,77,DL_Guitar,6,5,DL_Guitar,0.08435280621051788,0
61,100,0.17727272727272728,603,0,77,DL_Guitar,6,3,DL_Guitar,0.09628579020500183,0
61,100,0.21818181818181817,779,0,77,DL_Guitar,6,3,DL_Guitar,0.08615341037511826,0
61,100,0.9181818181818182,119,1,78,DL_Guitar,6,15,DL_Guitar,0.9995753169059753,1
56,100,0.12272727272727273,466,1,78,DL_Guitar,6,2,DL_Guitar,0.5758712887763977,0
61,100,0.2818181818181818,333,1,79,DL_Guitar,6,5,DL_Guitar,0.9998301267623901,1
61,100,0.16363636363636364,399,0,79,DL_Guitar,6,3,DL_Guitar,0.21547703444957733,0
54,100,0.3181818181818182,449,0,79,DL_Guitar,6,5,DL_Guitar,0.19522947072982788,0
54,100,0.11818181818181818,580,0,79,DL_Guitar,6,2,DL_Guitar,0.21184344589710236,0
54,100,0.1,624,0,79,DL_Guitar,6,2,DL_Guitar,0.2077466994524002,0
54,100,0.35909090909090907,9,1,80,DL_Guitar,6,6,DL_Guitar,0.999843955039978,1
54,100,0.21818181818181817,153,0,80,DL_Guitar,6,3,DL_Guitar,0.33481618762016296,0
61,100,0.13636363636363635,436,1,80,DL_Guitar,6,2,DL_Guitar,0.29121530055999756,0
63,100,0.32272727272727275,606,0,80,DL_Guitar,6,5,DL_Guitar,0.3037348687648773,0
56,100,0.2409090909090909,307,1,81,DL_Guitar,6,4,DL_Guitar,0.9998226761817932,1
56,100,0.1,553,1,81,DL_Guitar,6,2,DL_Guitar,0.42465484142303467,0
56,100,0.33636363636363636,590,0,81,DL_Guitar,6,5,DL_Guitar,0.4278370141983032,0
54,100,0.1409090909090909,47,1,84,DL_Guitar,6,2,DL_Guitar,0.9996236562728882,1
54,100,0.22272727272727272,136,0,84,DL_Guitar,6,4,DL_Guitar,0.5487568378448486,0
56,100,0.1,153,1,85,DL_Guitar,6,2,DL_Guitar,0.9935017228126526,0
59,100,0.2,443,1,86,DL_Guitar,6,3,DL_Guitar,0.9998341798782349,1
55,100,0.1409090909090909,572,0,86,DL_Guitar,6,2,DL_Guitar,0.4047655165195465,0
57,100,0.36363636363636365,796,0,86,DL_Guitar,6,6,DL_Guitar,0.42204684019088745,0
57,100,0.42272727272727273,136,1,87,DL_Guitar,6,7,DL_Guitar,0.9998154044151306,1
57,100,0.1,413,1,87,DL_Guitar,6,2,DL_Guitar,0.43358495831489563,0
57,100,0.16363636363636364,443,0,87,DL_Guitar,6,3,DL_Guitar,0.43166685104370117,0
59,100,0.2590909090909091,373,1,88,DL_Guitar,6,4,DL_Guitar,0.9998302459716797,1
55,100,0.18181818181818182,550,0,88,DL_Guitar,6,3,DL_Guitar,0.40916797518730164,0
62,100,0.2818181818181818,637,0,88,DL_Guitar,6,5,DL_Guitar,0.4289790391921997,0
57,100,0.9409090909090909,110,1,89,DL_Guitar,6,15,DL_Guitar,0.9998143315315247,1
57,100,0.6818181818181818,619,1,89,DL_Guitar,6,11,DL_Guitar,0.3459894061088562,0
57,100,0.16363636363636364,773,0,89,DL_Guitar,6,3,DL_Guitar,0.3147721588611603,0
57,100,0.1,866,0,89,DL_Guitar,6,2,DL_Guitar,0.32078292965888977,0
57,100,0.21818181818181817,53,1,90,DL_Guitar,6,3,DL_Guitar,0.9998278617858887,1
62,100,0.2409090909090909,157,0,90,DL_Guitar,6,4,DL_Guitar,0.21934838593006134,0
57,100,0.1590909090909091,294,0,90,DL_Guitar,6,3,DL_Guitar,0.2004188746213913,0
57,100,0.1,540,1,90,DL_Guitar,6,2,DL_Guitar,0.2088988721370697,0
55,100,0.41818181818181815,779,1,90,DL_Guitar,6,7,DL_Guitar,0.19739501178264618,0
61,100,0.759090909090909,347,1,91,DL_Guitar,6,12,DL_Guitar,0.9995410442352295,1
54,100,0.9409090909090909,836,1,91,DL_Guitar,6,15,DL_Guitar,0.5521134734153748,0
54,100,0.6818181818181818,255,1,92,DL_Guitar,6,11,DL_Guitar,0.9997448325157166,1
62,100,0.12272727272727273,430,0,92,DL_Guitar,6,2,DL_Guitar,0.09063521772623062,0
54,100,0.3,466,0,92,DL_Guitar,6,5,DL_Guitar,0.07390261441469193,0
59,100,0.1409090909090909,536,0,92,DL_Guitar,6,2,DL_Guitar,0.0794946551322937,0
54,100,0.1,612,0,92,DL_Guitar,6,2,DL_Guitar,0.09283949434757233,0
54,100,0.1590909090909091,656,0,92,DL_Guitar,6,3,DL_Guitar,0.0957396849989891,0
66,100,0.1,826,0,92,DL_Guitar,6,2,DL_Guitar,0.08652512729167938,0
55,100,0.2409090909090909,453,1,93,DL_Guitar,6,4,DL_Guitar,0.9998227953910828,1
57,100,0.21818181818181817,603,0,93,DL_Guitar,6,3,DL_Guitar,0.4127618074417114,0
57,100,0.11818181818181818,713,0,93,DL_Guitar,6,2,DL_Guitar,0.4335207939147949,0
54,100,0.2590909090909091,210,1,94,DL_Guitar,6,4,DL_Guitar,0.9998102784156799,1
59,100,0.18181818181818182,276,0,94,DL_Guitar,6,3,DL_Guitar,0.12223853915929794,0
54,100,0.2409090909090909,320,0,94,DL_Guitar,6,4,DL_Guitar,0.12008475512266159,0
59,100,0.1,457,0,94,DL_Guitar,6,2,DL_Guitar,0.13730880618095398,0
54,100,0.2818181818181818,637,0,94,DL_Guitar,6,5,DL_Guitar,0.14121907949447632,0
54,100,0.2818181818181818,826,0,94,DL_Guitar,6,5,DL_Guitar,0.13019594550132751,0
59,100,0.4409090909090909,197,1,95,DL_Guitar,6,7,DL_Guitar,0.9995988011360168,1
59,100,0.42272727272727273,826,1,95,DL_Guitar,6,7,DL_Guitar,0.550599992275238,0
57,100,0.2818181818181818,110,1,96,DL_Guitar,6,5,DL_Guitar,0.9998188614845276,1
57,100,0.1,179,0,96,DL_Guitar,6,2,DL_Guitar,0.4233155846595764,0
57,100,0.4590909090909091,206,0,96,DL_Guitar,6,7,DL_Guitar,0.4226502478122711,0
60,100,0.18181818181818182,378,1,0,DL_Remix_Guitar,6,3,DL_Remix_Guitar,0.9998384714126587,1
55,100,0.37727272727272726,546,0,0,DL_Remix_Guitar,6,6,DL_Remix_Guitar,0.38788944482803345,0
55,100,0.3409090909090909,796,1,0,DL_Remix_Guitar,6,5,DL_Remix_Guitar,0.4301172196865082,0
52,100,0.1,267,1,1,DL_Remix_Guitar,6,2,DL_Remix_Guitar,0.9998165965080261,1
53,100,0.18181818181818182,290,0,1,DL_Remix_Guitar,6,3,DL_Remix_Guitar,0.12030618637800217,0
60,100,0.1,360,0,1,DL_Remix_Guitar,6,2,DL_Remix_Guitar,0.11943334341049194,0
60,100,0.11818181818181818,405,0,1,DL_Remix_Guitar,6,2,DL_Remix_Guitar,0.13363732397556305,0
60,100,0.2636363636363636,487,0,1,DL_Remix_Guitar,6,4,DL_Remix_Guitar,0.13402223587036133,0
60,100,0.1590909090909091,700,0,1,DL_Remix_Guitar,6,3,DL_Remix_Guitar,0.1276906281709671,0
62,100,0.4409090909090909,34,1,2,DL_Remix_Guitar,6,7,DL_Remix_Guitar,0.9997969269752502,1
55,100,0.2772727272727273,281,1,2,DL_Remix_Guitar,6,4,DL_Remix_Guitar,0.12784132361412048,0
62,100,0.18181818181818182,421,0,2,DL_Remix_Guitar,6,3,DL_Remix_Guitar,0.12946775555610657,0
62,100,0.2818181818181818,528,0,2,DL_Remix_Guitar,6,5,DL_Remix_Guitar,0.13526202738285065,0
62,100,0.11818181818181818,611,0,2,DL_Remix_Guitar,6,2,DL_Remix_Guitar,0.1457633078098297,0
62,100,0.5227272727272727,642,0,2,DL_Remix_Guitar,6,8,DL_Remix_Guitar,0.13363683223724365,0
61,100,0.1590909090909091,83,1,3,DL_Remix_Guitar,6,3,DL_Remix_Guitar,0.9997617602348328,1
61,100,0.18181818181818182,122,0,3,DL_Remix_Guitar,6,3,DL_Remix_Guitar,0.08011452108621597,0
61,100,0.2818181818181818,254,0,3,DL_Remix_Guitar,6,5,DL_Remix_Guitar,0.07228075712919235,0
57,100,0.37727272727272726,427,0,3,DL_Remix_Guitar,6,6,DL_Remix_Guitar,0.07624245434999466,0
57,100,0.32272727272727275,607,0,3,DL_Remix_Guitar,6,5,DL_Remix_Guitar,0.09154896438121796,0
60,100,0.2,694,0,3,DL_Remix_Guitar,6,3,DL_Remix_Guitar,0.10627356916666031,0
57,100,0.38181818181818183,836,0,3,DL_Remix_Guitar,6,6,DL_Remix_Guitar,0.08525709807872772,0
57,100,0.22272727272727272,48,1,4,DL_Remix_Guitar,6,4,DL_Remix_Guitar,0.9997977614402771,1
62,100,0.6772727272727272,260,0,4,DL_Remix_Guitar,6,11,DL_Remix_Guitar,0.11785826086997986,0
59,100,0.2818181818181818,465,0,4,DL_Remix_Guitar,6,5,DL_Remix_Guitar,0.13223430514335632,0
60,100,0.1,527,0,4,DL_Remix_Guitar,6,2,DL_Remix_Guitar,0.13756906986236572,0
60,100,0.18181818181818182,575,0,4,DL_Remix_Guitar,6,3,DL_Remix_Guitar,0.14301644265651703,0
60,100,0.5772727272727273,765,0,4,DL_Remix_Guitar,6,9,DL_Remix_Guitar,0.13797225058078766,0
53,100,0.1,444,1,5,DL_Remix_Guitar,6,2,DL_Remix_Guitar,0.9998352527618408,1
55,100,0.2590909090909091,545,0,5,DL_Remix_Guitar,6,4,DL_Remix_Guitar,0.39388102293014526,0
60,100,0.2590909090909091,849,1,5,DL_Remix_Guitar,6,4,DL_Remix_Guitar,0.4305916428565979,0
57,100,0.4,150,1,6,DL_Remix_Guitar,6,6,DL_Remix_Guitar,0.9997947812080383,1
60,100,0.11818181818181818,360,0,6,DL_Remix_Guitar,6,2,DL_Remix_Guitar,0.1366211175918579,0
56,100,0.2409090909090909,399,0,6,DL_Remix_Guitar,6,4,DL_Remix_Guitar,0.11819684505462646,0
60,100,0.1,458,0,6,DL_Remix_Guitar,6,2,DL_Remix_Guitar,0.13767144083976746,0
57,100,0.18181818181818182,708,1,6,DL_Remix_Guitar,6,3,DL_Remix_Guitar,0.13897836208343506,0
52,100,0.36363636363636365,795,0,6,DL_Remix_Guitar,6,6,DL_Remix_Guitar,0.13181853294372559,0
52,100,0.42272727272727273,4,1,7,DL_Remix_Guitar,6,7,DL_Remix_Guitar,0.9998210072517395,1
55,100,0.3,726,1,7,DL_Remix_Guitar,6,5,DL_Remix_Guitar,0.4121020436286926,0
57,100,0.11818181818181818,836,0,7,DL_Remix_Guitar,6,2,DL_Remix_Guitar,0.4333856701850891,0
57,100,0.4590909090909091,84,1,8,DL_Remix_Guitar,6,7,DL_Remix_Guitar,0.9997897744178772,1
57,100,0.21818181818181817,338,1,8,DL_Remix_Guitar,6,3,DL_Remix_Guitar,0.13509023189544678,0
57,100,0.18181818181818182,400,0,8,DL_Remix_Guitar,6,3,DL_Remix_Guitar,0.12187075614929199,0
57,100,0.1409090909090909,462,0,8,DL_Remix_Guitar,6,2,DL_Remix_Guitar,0.13699544966220856,0
57,100,0.6818181818181818,563,0,8,DL_Remix_Guitar,6,11,DL_Remix_Guitar,0.12956400215625763,0
56,100,0.12272727272727273,761,0,8,DL_Remix_Guitar,6,2,DL_Remix_Guitar,0.14847716689109802,0
60,100,0.1409090909090909,56,1,9,DL_Remix_Guitar,6,2,DL_Remix_Guitar,0.9998619556427002,1
55,100,0.1,211,0,9,DL_Remix_Guitar,6,2,DL_Remix_Guitar,0.2994927167892456,0
55,100,0.1409090909090909,426,0,9,DL_Remix_Guitar,6,2,DL_Remix_Guitar,0.2958948612213135,0
53,100,0.3,804,1,9,DL_Remix_Guitar,6,5,DL_Remix_Guitar,0.30121278762817383,0
53,100,0.16363636363636364,48,1,10,DL_Remix_Guitar,6,3,DL_Remix_Guitar,0.9998378753662109,1
53,100,0.12272727272727273,101,0,10,DL_Remix_Guitar,6,2,DL_Remix_Guitar,0.41218775510787964,0
58,100,0.2409090909090909,756,1,10,DL_Remix_Guitar,6,4,DL_Remix_Guitar,0.41698184609413147,0
53,100,0.3,668,1,11,DL_Remix_Guitar,6,5,DL_Remix_Guitar,0.9998297691345215,1
53,100,0.16363636363636364,752,0,11,DL_Remix_Guitar,6,3,DL_Remix_Guitar,0.421927273273468,0
53,100,0.4,826,0,11,DL_Remix_Guitar,6,6,DL_Remix_Guitar,0.4182157814502716,0
60,100,0.1590909090909091,61,1,12,DL_Remix_Guitar,6,3,DL_Remix_Guitar,0.9997749924659729,1
53,100,0.21818181818181817,96,0,12,DL_Remix_Guitar,6,3,DL_Remix_Guitar,0.07763289660215378,0
53,100,0.2,163,0,12,DL_Remix_Guitar,6,3,DL_Remix_Guitar,0.07203364372253418,0
52,100,0.3181818181818182,316,0,12,DL_Remix_Guitar,6,5,DL_Remix_Guitar,0.07861781865358353,0
52,100,0.2,493,0,12,DL_Remix_Guitar,6,3,DL_Remix_Guitar,0.08864250779151917,0
52,100,0.2409090909090909,625,0,12,DL_Remix_Guitar,6,4,DL_Remix_Guitar,0.09307306259870529,0
52,100,0.3,685,0,12,DL_Remix_Guitar,6,5,DL_Remix_Guitar,0.08270131051540375,0
52,100,0.3,44,1,13,DL_Remix_Guitar,6,5,DL_Remix_Guitar,0.9998120665550232,1
52,100,0.1409090909090909,132,0,13,DL_Remix_Guitar,6,2,DL_Remix_Guitar,0.13140340149402618,0
52,100,0.22272727272727272,180,0,13,DL_Remix_Guitar,6,4,DL_Remix_Guitar,0.12071578949689865,0
57,100,0.18181818181818182,355,0,13,DL_Remix_Guitar,6,3,DL_Remix_Guitar,0.12896879017353058,0
57,100,0.1,519,0,13,DL_Remix_Guitar,6,2,DL_Remix_Guitar,0.14522556960582733,0
57,100,0.740909090909091,801,1,13,DL_Remix_Guitar,6,12,DL_Remix_Guitar,0.12345309555530548,0
57,100,0.8818181818181818,123,1,14,DL_Remix_Guitar,6,14,DL_Remix_Guitar,0.9998180270195007,1
74,100,0.5227272727272727,321,0,14,DL_Remix_Guitar,6,8,DL_Remix_Guitar,0.3639299273490906,0
74,100,0.12272727272727273,510,0,14,DL_Remix_Guitar,6,2,DL_Remix_Guitar,0.3123888373374939,0
52,100,0.5590909090909091,611,0,14,DL_Remix_Guitar,6,9,DL_Remix_Guitar,0.30521368980407715,0
52,100,0.18181818181818182,25,1,15,DL_Remix_Guitar,6,3,DL_Remix_Guitar,0.99983811378479,1
52,100,0.5,233,0,15,DL_Remix_Guitar,6,8,DL_Remix_Guitar,0.39689305424690247,0
52,100,0.2772727272727273,347,0,15,DL_Remix_Guitar,6,4,DL_Remix_Guitar,0.42938128113746643,0
53,100,0.21818181818181817,440,1,16,DL_Remix_Guitar,6,3,DL_Remix_Guitar,0.9933866858482361,0
58,100,0.2,343,1,17,DL_Remix_Guitar,6,3,DL_Remix_Guitar,0.9998108744621277,1
55,100,0.2409090909090909,519,0,17,DL_Remix_Guitar,6,4,DL_Remix_Guitar,0.42470815777778625,0
57,100,0.3,669,0,17,DL_Remix_Guitar,6,5,DL_Remix_Guitar,0.43142130970954895,0
53,100,0.2,17,1,18,DL_Remix_Guitar,6,3,DL_Remix_Guitar,0.9998356103897095,1
53,100,0.4636363636363636,488,1,18,DL_Remix_Guitar,6,7,DL_Remix_Guitar,0.40106508135795593,0
53,100,0.16363636363636364,619,0,18,DL_Remix_Guitar,6,3,DL_Remix_Guitar,0.4291185140609741,0
52,100,0.2772727272727273,229,1,19,DL_Remix_Guitar,6,4,DL_Remix_Guitar,0.9998459815979004,1
52,100,0.12272727272727273,364,0,19,DL_Remix_Guitar,6,2,DL_Remix_Guitar,0.2099638432264328,0
59,100,0.12272727272727273,488,0,19,DL_Remix_Guitar,6,2,DL_Remix_Guitar,0.19276972115039825,0
52,100,0.4,590,0,19,DL_Remix_Guitar,6,6,DL_Remix_Guitar,0.20068864524364471,0
52,100,0.32272727272727275,708,0,19,DL_Remix_Guitar,6,5,DL_Remix_Guitar,0.19895656406879425,0
55,100,0.11818181818181818,559,1,20,DL_Remix_Guitar,6,2,DL_Remix_Guitar,0.9996193647384644,1
55,100,0.17727272727272728,810,1,20,DL_Remix_Guitar,6,3,DL_Remix_Guitar,0.5509324669837952,0
56,100,0.2,656,1,21,DL_Remix_Guitar,6,3,DL_Remix_Guitar,0.9996457099914551,1
62,100,0.1409090909090909,773,0,21,DL_Remix_Guitar,6,2,DL_Remix_Guitar,0.5479253530502319,0
57,100,0.16363636363636364,422,1,22,DL_Remix_Guitar,6,3,DL_Remix_Guitar,0.999850869178772,1
57,100,0.22272727272727272,497,0,22,DL_Remix_Guitar,6,4,DL_Remix_Guitar,0.3263954520225525,0
57,100,0.1,756,1,22,DL_Remix_Guitar,6,2,DL_Remix_Guitar,0.29786595702171326,0
57,100,0.11818181818181818,876,0,22,DL_Remix_Guitar,6,2,DL_Remix_Guitar,0.3031699061393738,0
65,100,0.23636363636363636,766,1,23,DL_Remix_Guitar,6,4,DL_Remix_Guitar,0.9996389150619507,1
65,100,0.18181818181818182,827,0,23,DL_Remix_Guitar,6,3,DL_Remix_Guitar,0.5440689921379089,0
57,100,0.4409090909090909,65,1,24,DL_Remix_Guitar,6,7,DL_Remix_Guitar,0.9998176693916321,1
55,100,0.2818181818181818,532,1,24,DL_Remix_Guitar,6,5,DL_Remix_Guitar,0.40896713733673096,0
53,100,0.22272727272727272,796,1,24,DL_Remix_Guitar,6,4,DL_Remix_Guitar,0.4390697181224823,0
55,100,0.12272727272727273,26,1,25,DL_Remix_Guitar,6,2,DL_Remix_Guitar,0.9998291730880737,1
55,100,0.5,150,0,25,DL_Remix_Guitar,6,8,DL_Remix_Guitar,0.2062806636095047,0
53,100,0.12272727272727273,378,0,25,DL_Remix_Guitar,6,2,DL_Remix_Guitar,0.2188737690448761,0
55,100,0.3,611,1,25,DL_Remix_Guitar,6,5,DL_Remix_Guitar,0.20352214574813843,0
55,100,0.43636363636363634,831,0,25,DL_Remix_Guitar,6,7,DL_Remix_Guitar,0.20466838777065277,0
60,100,0.18181818181818182,351,1,26,DL_Remix_Guitar,6,3,DL_Remix_Guitar,0.9998425245285034,1
53,100,0.1590909090909091,602,1,26,DL_Remix_Guitar,6,3,DL_Remix_Guitar,0.21075527369976044,0
57,100,0.16363636363636364,663,0,26,DL_Remix_Guitar,6,3,DL_Remix_Guitar,0.19964325428009033,0
57,100,0.5409090909090909,708,0,26,DL_Remix_Guitar,6,9,DL_Remix_Guitar,0.20392896234989166,0
57,100,0.759090909090909,858,0,26,DL_Remix_Guitar,6,12,DL_Remix_Guitar,0.20053495466709137,0
57,100,0.12272727272727273,223,1,27,DL_Remix_Guitar,6,2,DL_Remix_Guitar,0.9998528957366943,1
57,100,0.4818181818181818,285,0,27,DL_Remix_Guitar,6,8,DL_Remix_Guitar,0.2927577793598175,0
53,100,0.1409090909090909,453,0,27,DL_Remix_Guitar,6,2,DL_Remix_Guitar,0.3134154677391052,0
57,100,0.11818181818181818,581,0,27,DL_Remix_Guitar,6,2,DL_Remix_Guitar,0.30477890372276306,0
81,100,0.11818181818181818,295,1,28,DL_Remix_Guitar,6,2,DL_Remix_Guitar,0.9998348951339722,1
53,100,0.21818181818181817,581,1,28,DL_Remix_Guitar,6,3,DL_Remix_Guitar,0.2071487158536911,0
53,100,0.22272727272727272,663,0,28,DL_Remix_Guitar,6,4,DL_Remix_Guitar,0.19715595245361328,0
52,100,0.23636363636363636,787,0,28,DL_Remix_Guitar,6,4,DL_Remix_Guitar,0.2054828554391861,0
52,100,0.23636363636363636,876,0,28,DL_Remix_Guitar,6,4,DL_Remix_Guitar,0.20104828476905823,0
52,100,0.2,189,1,29,DL_Remix_Guitar,6,3,DL_Remix_Guitar,0.9998420476913452,1
59,100,0.11818181818181818,405,0,29,DL_Remix_Guitar,6,2,DL_Remix_Guitar,0.40623798966407776,0
62,100,0.1590909090909091,461,0,29,DL_Remix_Guitar,6,3,DL_Remix_Guitar,0.42058321833610535,0
53,100,0.5590909090909091,611,1,44,DL_Remix_Guitar,6,9,DL_Remix_Guitar,0.9925633072853088,0
55,100,0.1590909090909091,131,1,46,DL_Remix_Guitar,6,3,DL_Remix_Guitar,0.9998470544815063,1
55,100,0.3181818181818182,338,0,46,DL_Remix_Guitar,6,5,DL_Remix_Guitar,0.31860876083374023,0
57,100,0.8409090909090909,440,0,46,DL_Remix_Guitar,6,13,DL_Remix_Guitar,0.2779165506362915,0
60,100,0.11818181818181818,668,0,46,DL_Remix_Guitar,6,2,DL_Remix_Guitar,0.3360517919063568,0
52,100,0.13636363636363635,18,1,47,DL_Remix_Guitar,6,2,DL_Remix_Guitar,0.9996572732925415,1
60,100,0.11818181818181818,370,1,47,DL_Remix_Guitar,6,2,DL_Remix_Guitar,0.5467734932899475,0
62,100,0.1409090909090909,298,1,48,DL_Remix_Guitar,6,2,DL_Remix_Guitar,0.9998390674591064,1
52,100,0.1409090909090909,378,0,48,DL_Remix_Guitar,6,2,DL_Remix_Guitar,0.41792982816696167,0
57,100,0.8818181818181818,616,1,48,DL_Remix_Guitar,6,14,DL_Remix_Guitar,0.4001503586769104,0
62,100,0.18181818181818182,576,1,49,DL_Remix_Guitar,6,3,DL_Remix_Guitar,0.9996488094329834,1
53,100,0.18181818181818182,638,0,49,DL_Remix_Guitar,6,3,DL_Remix_Guitar,0.5504041314125061,0
59,100,0.1590909090909091,541,1,50,DL_Remix_Guitar,6,3,DL_Remix_Guitar,0.9929665327072144,0
57,100,0.21818181818181817,506,1,51,DL_Remix_Guitar,6,3,DL_Remix_Guitar,0.9996316432952881,1
57,100,0.12272727272727273,716,0,51,DL_Remix_Guitar,6,2,DL_Remix_Guitar,0.5510901212692261,0
59,100,0.2,738,1,52,DL_Remix_Guitar,6,3,DL_Remix_Guitar,0.9932316541671753,0
57,100,0.4636363636363636,311,1,53,DL_Remix_Guitar,6,7,DL_Remix_Guitar,0.9998074173927307,1
57,100,0.4,673,1,53,DL_Remix_Guitar,6,6,DL_Remix_Guitar,0.42066049575805664,0
57,100,0.17727272727272728,765,0,53,DL_Remix_Guitar,6,3,DL_Remix_Guitar,0.44089382886886597,0
64,100,0.37727272727272726,193,1,54,DL_Remix_Guitar,6,6,DL_Remix_Guitar,0.9931720495223999,0
67,100,0.5636363636363636,69,1,55,DL_Remix_Guitar,6,9,DL_Remix_Guitar,0.9997743964195251,1
55,100,0.1409090909090909,206,0,55,DL_Remix_Guitar,6,2,DL_Remix_Guitar,0.14193429052829742,0
57,100,0.8,276,0,55,DL_Remix_Guitar,6,13,DL_Remix_Guitar,0.1133614331483841,0
57,100,0.11818181818181818,458,0,55,DL_Remix_Guitar,6,2,DL_Remix_Guitar,0.15300500392913818,0
53,100,1.1181818181818182,568,0,55,DL_Remix_Guitar,6,15,DL_Remix_Guitar,0.13971757888793945,0
57,100,0.2590909090909091,848,1,55,DL_Remix_Guitar,6,4,DL_Remix_Guitar,0.15397070348262787,0
57,100,0.3,171,1,56,DL_Remix_Guitar,6,5,DL_Remix_Guitar,0.9998292922973633,1
52,100,0.1409090909090909,295,0,56,DL_Remix_Guitar,6,2,DL_Remix_Guitar,0.2237234115600586,0
52,100,0.4409090909090909,405,0,56,DL_Remix_Guitar,6,7,DL_Remix_Guitar,0.1974593549966812,0
52,100,0.7,628,0,56,DL_Remix_Guitar,6,11,DL_Remix_Guitar,0.19616873562335968,0
52,100,0.2409090909090909,836,0,56,DL_Remix_Guitar,6,4,DL_Remix_Guitar,0.20979610085487366,0
52,100,0.36363636363636365,224,1,57,DL_Remix_Guitar,6,6,DL_Remix_Guitar,0.9996544122695923,1
64,100,0.2590909090909091,364,0,57,DL_Remix_Guitar,6,4,DL_Remix_Guitar,0.5472160577774048,0
53,100,0.2772727272727273,206,1,58,DL_Remix_Guitar,6,4,DL_Remix_Guitar,0.99332195520401,0
55,100,0.2409090909090909,66,1,59,DL_Remix_Guitar,6,4,DL_Remix_Guitar,0.9998537302017212,1
52,100,0.17727272727272728,568,1,59,DL_Remix_Guitar,6,3,DL_Remix_Guitar,0.3297671377658844,0
57,100,0.11818181818181818,735,0,59,DL_Remix_Guitar,6,2,DL_Remix_Guitar,0.2818945646286011,0
60,100,0.17727272727272728,875,0,59,DL_Remix_Guitar,6,3,DL_Remix_Guitar,0.30432257056236267,0
57,100,0.21818181818181817,105,1,60,DL_Remix_Guitar,6,3,DL_Remix_Guitar,0.9998317956924438,1
57,100,0.12272727272727273,179,0,60,DL_Remix_Guitar,6,2,DL_Remix_Guitar,0.2147027850151062,0
60,100,0.3,396,0,60,DL_Remix_Guitar,6,5,DL_Remix_Guitar,0.20186246931552887,0
64,100,0.13636363636363635,633,1,60,DL_Remix_Guitar,6,2,DL_Remix_Guitar,0.21812006831169128,0
57,100,1.040909090909091,716,0,60,DL_Remix_Guitar,6,15,DL_Remix_Guitar,0.18693609535694122,0
60,100,0.12272727272727273,158,1,61,DL_Remix_Guitar,6,2,DL_Remix_Guitar,0.9996148347854614,1
57,100,1.440909090909091,311,0,61,DL_Remix_Guitar,6,15,DL_Remix_Guitar,0.5166395902633667,0
57,100,0.2,584,1,62,DL_Remix_Guitar,6,3,DL_Remix_Guitar,0.9932592511177063,0
57,100,0.2409090909090909,8,1,63,DL_Remix_Guitar,6,4,DL_Remix_Guitar,0.9998302459716797,1
57,100,0.1590909090909091,273,1,63,DL_Remix_Guitar,6,3,DL_Remix_Guitar,0.2130611091852188,0
57,100,0.1590909090909091,364,0,63,DL_Remix_Guitar,6,3,DL_Remix_Guitar,0.19684730470180511,0
57,100,0.12272727272727273,453,0,63,DL_Remix_Guitar,6,2,DL_Remix_Guitar,0.20888875424861908,0
57,100,0.1409090909090909,515,0,63,DL_Remix_Guitar,6,2,DL_Remix_Guitar,0.2047712504863739,0
55,100,0.3,546,1,65,DL_Remix_Guitar,6,5,DL_Remix_Guitar,0.9927727580070496,0
52,100,0.9409090909090909,307,1,66,DL_Remix_Guitar,6,15,DL_Remix_Guitar,0.9997981190681458,1
52,100,0.2772727272727273,633,1,66,DL_Remix_Guitar,6,4,DL_Remix_Guitar,0.4604358971118927,0
52,100,0.33636363636363636,743,0,66,DL_Remix_Guitar,6,5,DL_Remix_Guitar,0.42754843831062317,0
62,100,0.5409090909090909,9,1,67,DL_Remix_Guitar,6,9,DL_Remix_Guitar,0.9998410940170288,1
59,100,0.22272727272727272,166,0,67,DL_Remix_Guitar,6,4,DL_Remix_Guitar,0.3362587094306946,0
60,100,0.2409090909090909,550,1,67,DL_Remix_Guitar,6,4,DL_Remix_Guitar,0.3015541136264801,0
57,100,0.3,813,1,67,DL_Remix_Guitar,6,5,DL_Remix_Guitar,0.30455324053764343,0
57,100,0.2,96,1,68,DL_Remix_Guitar,6,3,DL_Remix_Guitar,0.9998506307601929,1
57,100,0.12272727272727273,189,0,68,DL_Remix_Guitar,6,2,DL_Remix_Guitar,0.32524365186691284,0
57,100,0.3,470,1,68,DL_Remix_Guitar,6,5,DL_Remix_Guitar,0.28700998425483704,0
57,100,0.38181818181818183,606,0,68,DL_Remix_Guitar,6,6,DL_Remix_Guitar,0.30883777141571045,0
57,100,0.13636363636363635,347,1,69,DL_Remix_Guitar,6,2,DL_Remix_Guitar,0.9998288154602051,1
57,100,0.11818181818181818,462,0,69,DL_Remix_Guitar,6,2,DL_Remix_Guitar,0.4151438772678375,0
64,100,0.12272727272727273,540,0,69,DL_Remix_Guitar,6,2,DL_Remix_Guitar,0.4299551844596863,0
57,100,0.1590909090909091,462,1,70,DL_Remix_Guitar,6,3,DL_Remix_Guitar,0.9932246804237366,1
58,100,0.5636363636363636,157,1,71,DL_Remix_Guitar,6,9,DL_Remix_Guitar,0.9917071461677551,0
57,100,0.1590909090909091,30,1,72,DL_Remix_Guitar,6,3,DL_Remix_Guitar,0.9996278285980225,1
57,100,0.11818181818181818,150,0,72,DL_Remix_Guitar,6,2,DL_Remix_Guitar,0.5489456057548523,0
64,100,0.1,343,1,73,DL_Remix_Guitar,6,2,DL_Remix_Guitar,0.9998615980148315,1
64,100,0.4,377,0,73,DL_Remix_Guitar,6,6,DL_Remix_Guitar,0.3149491548538208,0
52,100,0.1,606,0,73,DL_Remix_Guitar,6,2,DL_Remix_Guitar,0.29445740580558777,0
57,100,0.6590909090909091,660,0,73,DL_Remix_Guitar,6,11,DL_Remix_Guitar,0.28284090757369995,0
56,100,0.2,53,1,74,DL_Remix_Guitar,6,3,DL_Remix_Guitar,0.9998272061347961,1
56,100,1.2227272727272727,100,0,74,DL_Remix_Guitar,6,15,DL_Remix_Guitar,0.18682487308979034,0
52,100,0.2409090909090909,383,1,74,DL_Remix_Guitar,6,4,DL_Remix_Guitar,0.2257949560880661,0
57,100,0.11818181818181818,483,0,74,DL_Remix_Guitar,6,2,DL_Remix_Guitar,0.21556928753852844,0
57,100,0.22272727272727272,519,0,74,DL_Remix_Guitar,6,4,DL_Remix_Guitar,0.20721134543418884,0
57,100,0.8,96,1,75,DL_Remix_Guitar,6,13,DL_Remix_Guitar,0.9998268485069275,1
57,100,0.2818181818181818,352,1,75,DL_Remix_Guitar,6,5,DL_Remix_Guitar,0.35622334480285645,0
57,100,0.2,417,0,75,DL_Remix_Guitar,6,3,DL_Remix_Guitar,0.3012290894985199,0
55,100,0.3,839,1,75,DL_Remix_Guitar,6,5,DL_Remix_Guitar,0.3085765242576599,0
62,100,0.6818181818181818,773,1,76,DL_Remix_Guitar,6,11,DL_Remix_Guitar,0.9925507307052612,0
57,100,0.5818181818181818,263,1,77,DL_Remix_Guitar,6,9,DL_Remix_Guitar,0.9995648264884949,1
57,100,0.6,752,1,77,DL_Remix_Guitar,6,10,DL_Remix_Guitar,0.5566031336784363,0
57,100,0.2590909090909091,404,1,78,DL_Remix_Guitar,6,4,DL_Remix_Guitar,0.9931528568267822,0
53,100,0.12272727272727273,466,1,79,DL_Remix_Guitar,6,2,DL_Remix_Guitar,0.999660849571228,1
57,100,0.12272727272727273,553,0,79,DL_Remix_Guitar,6,2,DL_Remix_Guitar,0.5358699560165405,0
57,100,0.4590909090909091,56,1,80,DL_Remix_Guitar,6,7,DL_Remix_Guitar,0.999602735042572,1
57,100,0.5,550,1,80,DL_Remix_Guitar,6,8,DL_Remix_Guitar,0.55057692527771,0
57,100,0.35909090909090907,633,1,81,DL_Remix_Guitar,6,6,DL_Remix_Guitar,0.9930177927017212,1
57,100,0.35909090909090907,30,1,82,DL_Remix_Guitar,6,6,DL_Remix_Guitar,0.9928613305091858,0
58,100,0.18181818181818182,157,1,83,DL_Remix_Guitar,6,3,DL_Remix_Guitar,0.9998306035995483,1
58,100,0.8772727272727273,326,0,83,DL_Remix_Guitar,6,14,DL_Remix_Guitar,0.29593420028686523,0
63,100,0.33636363636363636,567,1,83,DL_Remix_Guitar,6,5,DL_Remix_Guitar,0.32768136262893677,0
52,100,0.17727272727272728,844,1,83,DL_Remix_Guitar,6,3,DL_Remix_Guitar,0.33642813563346863,0
52,100,0.38181818181818183,396,1,84,DL_Remix_Guitar,6,6,DL_Remix_Guitar,0.9931163787841797,0
62,100,0.2818181818181818,35,1,85,DL_Remix_Guitar,6,5,DL_Remix_Guitar,0.9998332262039185,1
62,100,0.35909090909090907,150,0,85,DL_Remix_Guitar,6,6,DL_Remix_Guitar,0.4050326645374298,0
59,100,0.2772727272727273,480,1,85,DL_Remix_Guitar,6,4,DL_Remix_Guitar,0.4311651587486267,0
57,100,0.17727272727272728,184,1,86,DL_Remix_Guitar,6,3,DL_Remix_Guitar,0.9996228218078613,1
57,100,0.3409090909090909,229,0,86,DL_Remix_Guitar,6,5,DL_Remix_Guitar,0.545647382736206,0
55,100,0.16363636363636364,817,1,87,DL_Remix_Guitar,6,3,DL_Remix_Guitar,0.9930716156959534,0
55,100,0.1,43,1,88,DL_Remix_Guitar,6,2,DL_Remix_Guitar,0.9996371269226074,1
55,100,0.1,69,0,88,DL_Remix_Guitar,6,2,DL_Remix_Guitar,0.5453357696533203,0
56,100,0.1,356,1,89,DL_Remix_Guitar,6,2,DL_Remix_Guitar,0.9996433258056641,1
57,100,0.2590909090909091,743,1,89,DL_Remix_Guitar,6,4,DL_Remix_Guitar,0.5420122146606445,0
57,100,0.1409090909090909,22,1,90,DL_Remix_Guitar,6,2,DL_Remix_Guitar,0.9998470544815063,1
57,100,0.21818181818181817,216,0,90,DL_Remix_Guitar,6,3,DL_Remix_Guitar,0.3196176588535309,0
55,100,0.21818181818181817,766,1,90,DL_Remix_Guitar,6,3,DL_Remix_Guitar,0.2964731454849243,0
55,100,0.4,817,0,90,DL_Remix_Guitar,6,6,DL_Remix_Guitar,0.30123746395111084,0
55,100,0.22272727272727272,862,1,91,DL_Remix_Guitar,6,4,DL_Remix_Guitar,0.9931747317314148,0
55,100,0.2409090909090909,66,1,92,DL_Remix_Guitar,6,4,DL_Remix_Guitar,0.993190586566925,0
57,100,0.8,83,1,97,DL_Remix_Guitar,6,13,DL_Remix_Guitar,0.999824583530426,1
52,100,0.2,707,1,97,DL_Remix_Guitar,6,3,DL_Remix_Guitar,0.3718110918998718,0
52,100,0.13636363636363635,766,0,97,DL_Remix_Guitar,6,2,DL_Remix_Guitar,0.2982160747051239,0
52,100,0.16363636363636364,839,0,97,DL_Remix_Guitar,6,3,DL_Remix_Guitar,0.3024398386478424,0
57,100,3.3,462,1,99,DL_Remix_Guitar,6,15,DL_Remix_Guitar,0.9893194437026978,0
55,100,0.2590909090909091,483,1,101,DL_Remix_Guitar,6,4,DL_Remix_Guitar,0.9996145963668823,1
67,100,0.4818181818181818,716,1,101,DL_Remix_Guitar,6,8,DL_Remix_Guitar,0.544079601764679,0
67,100,0.4,857,1,102,DL_Remix_Guitar,6,6,DL_Remix_Guitar,0.9924013614654541,0
67,100,0.1,220,1,103,DL_Remix_Guitar,6,2,DL_Remix_Guitar,0.9998284578323364,1
67,100,0.1,276,0,103,DL_Remix_Guitar,6,2,DL_Remix_Guitar,0.4042370617389679,0
60,100,0.4818181818181818,399,0,103,DL_Remix_Guitar,6,8,DL_Remix_Guitar,0.428001344203949,0
52,100,0.1590909090909091,273,1,104,DL_Remix_Guitar,6,3,DL_Remix_Guitar,0.9998424053192139,1
52,100,0.22272727272727272,540,1,104,DL_Remix_Guitar,6,4,DL_Remix_Guitar,0.4095773994922638,0
53,100,0.7772727272727272,756,0,104,DL_Remix_Guitar,6,12,DL_Remix_Guitar,0.4083458185195923,0
60,100,0.1,136,1,105,DL_Remix_Guitar,6,2,DL_Remix_Guitar,0.9998422861099243,1
53,100,0.4590909090909091,233,0,105,DL_Remix_Guitar,6,7,DL_Remix_Guitar,0.1943349689245224,0
53,100,0.5181818181818182,457,0,105,DL_Remix_Guitar,6,8,DL_Remix_Guitar,0.19820769131183624,0
53,100,0.5181818181818182,590,0,105,DL_Remix_Guitar,6,8,DL_Remix_Guitar,0.20861691236495972,0
52,100,0.11818181818181818,857,1,105,DL_Remix_Guitar,6,2,DL_Remix_Guitar,0.2122630774974823,0
52,100,0.3,66,1,106,DL_Remix_Guitar,6,5,DL_Remix_Guitar,0.9998432397842407,1
52,100,0.23636363636363636,567,1,106,DL_Remix_Guitar,6,4,DL_Remix_Guitar,0.4039310812950134,0
55,100,0.17727272727272728,853,1,106,DL_Remix_Guitar,6,3,DL_Remix_Guitar,0.4141978919506073,0
55,100,0.5181818181818182,404,1,107,DL_Remix_Guitar,6,8,DL_Remix_Guitar,0.9996023774147034,1
55,100,0.1,523,0,107,DL_Remix_Guitar,6,2,DL_Remix_Guitar,0.5568162798881531,0
57,100,0.12272727272727273,386,1,108,DL_Remix_Guitar,6,2,DL_Remix_Guitar,0.9996277093887329,1
55,100,0.6,567,0,108,DL_Remix_Guitar,6,10,DL_Remix_Guitar,0.5326648950576782,0
55,100,0.5409090909090909,3,1,109,DL_Remix_Guitar,6,9,DL_Remix_Guitar,0.9998300075531006,1
55,100,0.2636363636363636,136,0,109,DL_Remix_Guitar,6,4,DL_Remix_Guitar,0.334760457277298,0
55,100,0.18181818181818182,519,1,109,DL_Remix_Guitar,6,3,DL_Remix_Guitar,0.2991167902946472,0
55,100,0.11818181818181818,590,0,109,DL_Remix_Guitar,6,2,DL_Remix_Guitar,0.3177088499069214,0
55,100,0.18181818181818182,87,1,110,DL_Remix_Guitar,6,3,DL_Remix_Guitar,0.9929346442222595,0
55,100,0.12272727272727273,399,1,111,DL_Remix_Guitar,6,2,DL_Remix_Guitar,0.9998281002044678,1
55,100,0.21818181818181817,436,0,111,DL_Remix_Guitar,6,3,DL_Remix_Guitar,0.4047221541404724,0
67,100,0.11818181818181818,656,0,111,DL_Remix_Guitar,6,2,DL_Remix_Guitar,0.43178337812423706,0
56,100,0.1,426,1,112,DL_Remix_Guitar,6,2,DL_Remix_Guitar,0.9996544122695923,1
57,100,0.16363636363636364,532,0,112,DL_Remix_Guitar,6,3,DL_Remix_Guitar,0.5371596217155457,0
55,100,0.2409090909090909,642,1,113,DL_Remix_Guitar,6,4,DL_Remix_Guitar,0.9996283054351807,1
67,100,0.1409090909090909,857,0,113,DL_Remix_Guitar,6,2,DL_Remix_Guitar,0.5455062389373779,0
55,100,0.1590909090909091,9,1,114,DL_Remix_Guitar,6,3,DL_Remix_Guitar,0.9998194575309753,1
55,100,0.16363636363636364,47,0,114,DL_Remix_Guitar,6,3,DL_Remix_Guitar,0.4104165732860565,0
55,100,0.1409090909090909,179,0,114,DL_Remix_Guitar,6,2,DL_Remix_Guitar,0.4333636462688446,0
53,100,0.35909090909090907,17,1,115,DL_Remix_Guitar,6,6,DL_Remix_Guitar,0.9998351335525513,1
53,100,0.1590909090909091,282,1,115,DL_Remix_Guitar,6,3,DL_Remix_Guitar,0.20688150823116302,0
53,100,0.5818181818181818,320,0,115,DL_Remix_Guitar,6,9,DL_Remix_Guitar,0.19064027070999146,0
67,100,0.1,453,0,115,DL_Remix_Guitar,6,2,DL_Remix_Guitar,0.21540506184101105,0
60,100,0.5590909090909091,536,0,115,DL_Remix_Guitar,6,9,DL_Remix_Guitar,0.20434948801994324,0
67,100,0.2772727272727273,163,1,116,DL_Remix_Guitar,6,4,DL_Remix_Guitar,0.9998196959495544,1
55,100,0.1590909090909091,320,0,116,DL_Remix_Guitar,6,3,DL_Remix_Guitar,0.4205102324485779,0
67,100,0.1,540,0,116,DL_Remix_Guitar,6,2,DL_Remix_Guitar,0.4300558269023895,0
59,100,0.3181818181818182,713,1,117,DL_Remix_Guitar,6,5,DL_Remix_Guitar,0.9931334853172302,0
53,100,0.6363636363636364,83,1,118,DL_Remix_Guitar,6,10,DL_Remix_Guitar,0.9997827410697937,1
53,100,0.5409090909090909,299,0,118,DL_Remix_Guitar,6,9,DL_Remix_Guitar,0.13451753556728363,0
53,100,0.1409090909090909,426,0,118,DL_Remix_Guitar,6,2,DL_Remix_Guitar,0.12992577254772186,0
55,100,0.4,572,0,118,DL_Remix_Guitar,6,6,DL_Remix_Guitar,0.12919573485851288,0
67,100,0.1409090909090909,703,0,118,DL_Remix_Guitar,6,2,DL_Remix_Guitar,0.14957839250564575,0
53,100,0.7636363636363637,796,0,118,DL_Remix_Guitar,6,12,DL_Remix_Guitar,0.13065363466739655,0
53,100,0.35909090909090907,233,1,119,DL_Remix_Guitar,6,6,DL_Remix_Guitar,0.9998037219047546,1
53,100,0.18181818181818182,330,0,119,DL_Remix_Guitar,6,3,DL_Remix_Guitar,0.1327381432056427,0
53,100,0.1,466,0,119,DL_Remix_Guitar,6,2,DL_Remix_Guitar,0.12247676402330399,0
53,100,0.4636363636363636,576,0,119,DL_Remix_Guitar,6,7,DL_Remix_Guitar,0.12521252036094666,0
53,100,0.3,729,0,119,DL_Remix_Guitar,6,5,DL_Remix_Guitar,0.14496469497680664,0
67,100,0.1590909090909091,800,0,119,DL_Remix_Guitar,6,3,DL_Remix_Guitar,0.12716932594776154,0
53,100,0.1409090909090909,26,1,120,DL_Remix_Guitar,6,2,DL_Remix_Guitar,0.9998370409011841,1
52,100,0.3,722,1,120,DL_Remix_Guitar,6,5,DL_Remix_Guitar,0.42016544938087463,0
52,100,0.3,792,0,120,DL_Remix_Guitar,6,5,DL_Remix_Guitar,0.4162183701992035,0
52,100,0.2818181818181818,110,1,121,DL_Remix_Guitar,6,5,DL_Remix_Guitar,0.9996353387832642,1
55,100,0.2409090909090909,836,1,121,DL_Remix_Guitar,6,4,DL_Remix_Guitar,0.5405049920082092,0
55,100,0.2772727272727273,426,1,122,DL_Remix_Guitar,6,4,DL_Remix_Guitar,0.9931051135063171,1
53,100,0.5818181818181818,532,1,0,_Guitar,6,9,_Guitar,0.9998143315315247,1
55,100,0.17727272727272728,722,0,0,_Guitar,6,3,_Guitar,0.4370894134044647,0
53,100,0.3409090909090909,783,0,0,_Guitar,6,5,_Guitar,0.4207039475440979,0
55,100,0.2409090909090909,47,1,1,_Guitar,6,4,_Guitar,0.9996044039726257,1
60,100,0.2818181818181818,571,1,1,_Guitar,6,5,_Guitar,0.5571720004081726,0
53,100,0.32272727272727275,144,1,2,_Guitar,6,5,_Guitar,0.9996376037597656,1
53,100,0.3,272,0,2,_Guitar,6,5,_Guitar,0.5455913543701172,0
53,100,0.4,3,1,3,_Guitar,6,6,_Guitar,0.9998313188552856,1
55,100,0.2,189,0,3,_Guitar,6,3,_Guitar,0.20405416190624237,0
53,100,0.5590909090909091,259,0,3,_Guitar,6,9,_Guitar,0.1913977712392807,0
60,100,0.1409090909090909,717,1,3,_Guitar,6,2,_Guitar,0.21863771975040436,0
60,100,0.1409090909090909,761,0,3,_Guitar,6,2,_Guitar,0.20547211170196533,0
53,100,0.1590909090909091,496,1,4,_Guitar,6,3,_Guitar,0.9996545314788818,1
53,100,0.22272727272727272,642,0,4,_Guitar,6,4,_Guitar,0.5466578006744385,0
55,100,0.41818181818181815,352,1,5,_Guitar,6,7,_Guitar,0.9998242259025574,1
53,100,0.6227272727272727,465,0,5,_Guitar,6,10,_Guitar,0.21447347104549408,0
53,100,0.2409090909090909,637,0,5,_Guitar,6,4,_Guitar,0.20549462735652924,0
53,100,0.1,695,0,5,_Guitar,6,2,_Guitar,0.211228147149086,0
55,100,0.2772727272727273,810,0,5,_Guitar,6,4,_Guitar,0.19847263395786285,0
60,100,0.1,493,1,6,_Guitar,6,2,_Guitar,0.9996711015701294,1
60,100,0.13636363636363635,721,0,6,_Guitar,6,2,_Guitar,0.5475029945373535,0
53,100,0.2590909090909091,35,1,7,_Guitar,6,4,_Guitar,0.9998348951339722,1
60,100,0.1,619,1,7,_Guitar,6,2,_Guitar,0.4194464087486267,0
53,100,0.9,700,0,7,_Guitar,6,14,_Guitar,0.40556493401527405,0
53,100,0.5818181818181818,87,1,8,_Guitar,6,9,_Guitar,0.9998155236244202,1
55,100,0.3,285,0,8,_Guitar,6,5,_Guitar,0.4073197543621063,0
55,100,0.2409090909090909,804,1,8,_Guitar,6,4,_Guitar,0.4365498721599579,0
53,100,0.21818181818181817,127,1,9,_Guitar,6,3,_Guitar,0.9998231530189514,1
53,100,0.3181818181818182,326,0,9,_Guitar,6,5,_Guitar,0.41229119896888733,0
53,100,0.3,443,0,9,_Guitar,6,5,_Guitar,0.4350513517856598,0
60,100,0.2,369,1,10,_Guitar,6,3,_Guitar,0.9998600482940674,1
53,100,0.3181818181818182,436,0,10,_Guitar,6,5,_Guitar,0.30386999249458313,0
55,100,0.5181818181818182,505,0,10,_Guitar,6,8,_Guitar,0.2836686074733734,0
55,100,0.37727272727272726,625,0,10,_Guitar,6,6,_Guitar,0.3086775541305542,0
65,100,0.2772727272727273,17,1,11,_Guitar,6,4,_Guitar,0.9997664093971252,1
55,100,0.6,158,0,11,_Guitar,6,10,_Guitar,0.07375556975603104,0
55,100,0.12272727272727273,343,0,11,_Guitar,6,2,_Guitar,0.07748697698116302,0
55,100,0.32272727272727275,409,0,11,_Guitar,6,5,_Guitar,0.08008754998445511,0
60,100,0.2818181818181818,541,0,11,_Guitar,6,5,_Guitar,0.09321434050798416,0
60,100,0.1590909090909091,629,0,11,_Guitar,6,3,_Guitar,0.10153327882289886,0
55,100,0.3181818181818182,677,0,11,_Guitar,6,5,_Guitar,0.08630907535552979,0
60,100,0.13636363636363635,391,1,12,_Guitar,6,2,_Guitar,0.9998140931129456,1
60,100,0.17727272727272728,426,0,12,_Guitar,6,3,_Guitar,0.12671047449111938,0
55,100,0.1409090909090909,515,0,12,_Guitar,6,2,_Guitar,0.11387411504983902,0
55,100,0.6590909090909091,572,0,12,_Guitar,6,11,_Guitar,0.12466126680374146,0
53,100,0.35909090909090907,770,0,12,_Guitar,6,6,_Guitar,0.15007618069648743,0
55,100,0.35909090909090907,854,0,12,_Guitar,6,6,_Guitar,0.1313648223876953,0
65,100,0.2,378,1,13,_Guitar,6,3,_Guitar,0.9934653639793396,0
65,100,0.1590909090909091,17,1,14,_Guitar,6,3,_Guitar,0.9998553991317749,1
55,100,0.1409090909090909,101,0,14,_Guitar,6,2,_Guitar,0.31933343410491943,0
55,100,0.8590909090909091,149,0,14,_Guitar,6,14,_Guitar,0.28773102164268494,0
60,100,2.081818181818182,343,0,14,_Guitar,6,15,_Guitar,0.300409734249115,0
53,100,0.17727272727272728,810,1,25,_Guitar,6,3,_Guitar,0.999648928642273,1
53,100,0.17727272727272728,853,0,25,_Guitar,6,3,_Guitar,0.5462014675140381,0
53,100,0.13636363636363635,17,1,26,_Guitar,6,2,_Guitar,0.9935362935066223,1
53,100,0.1,839,1,27,_Guitar,6,2,_Guitar,0.9933165311813354,0
53,100,0.1409090909090909,9,1,28,_Guitar,6,2,_Guitar,0.9998379945755005,1
53,100,0.3,61,0,28,_Guitar,6,5,_Guitar,0.2051955610513687,0
53,100,0.5590909090909091,144,0,28,_Guitar,6,9,_Guitar,0.1983717530965805,0
53,100,0.8227272727272728,277,0,28,_Guitar,6,13,_Guitar,0.2061716914176941,0
53,100,1.3227272727272728,466,0,28,_Guitar,6,15,_Guitar,0.20940464735031128,0
53,100,0.7636363636363637,443,1,29,_Guitar,6,12,_Guitar,0.9996020197868347,1
53,100,0.11818181818181818,615,0,29,_Guitar,6,2,_Guitar,0.5622535943984985,0
57,100,0.23636363636363636,150,1,45,_Guitar,6,4,_Guitar,0.9998466968536377,1
60,100,0.6,201,0,45,_Guitar,6,10,_Guitar,0.321201890707016,0
60,100,0.18181818181818182,791,1,45,_Guitar,6,3,_Guitar,0.2984241843223572,0
57,100,0.1590909090909091,875,0,45,_Guitar,6,3,_Guitar,0.3040045201778412,0
57,100,0.4,53,1,46,_Guitar,6,6,_Guitar,0.992465615272522,0
60,100,0.4590909090909091,721,1,48,_Guitar,6,7,_Guitar,0.9934044480323792,0
60,100,0.4,370,1,49,_Guitar,6,6,_Guitar,0.9998314380645752,1
60,100,0.18181818181818182,474,0,49,_Guitar,6,3,_Guitar,0.40975213050842285,0
55,100,0.11818181818181818,691,0,49,_Guitar,6,2,_Guitar,0.4266730844974518,0
55,100,0.2818181818181818,179,1,50,_Guitar,6,5,_Guitar,0.999819815158844,1
55,100,0.1409090909090909,246,0,50,_Guitar,6,2,_Guitar,0.4192003011703491,0
55,100,0.1409090909090909,686,1,50,_Guitar,6,2,_Guitar,0.4301198124885559,0
60,100,0.5590909090909091,198,1,51,_Guitar,6,9,_Guitar,0.9996441602706909,1
60,100,0.2409090909090909,756,1,51,_Guitar,6,4,_Guitar,0.5535412430763245,0
60,100,0.5636363636363636,378,1,52,_Guitar,6,9,_Guitar,0.9931047558784485,0
60,100,0.2818181818181818,21,1,53,_Guitar,6,5,_Guitar,0.999836802482605,1
55,100,1.0227272727272727,144,0,53,_Guitar,6,15,_Guitar,0.18153344094753265,0
60,100,0.4590909090909091,558,1,53,_Guitar,6,7,_Guitar,0.2221321165561676,0
55,100,0.17727272727272728,678,0,53,_Guitar,6,3,_Guitar,0.21749982237815857,0
55,100,0.6409090909090909,726,0,53,_Guitar,6,10,_Guitar,0.20637103915214539,0
60,100,0.5818181818181818,198,1,54,_Guitar,6,9,_Guitar,0.9998515844345093,1
55,100,0.33636363636363636,325,0,54,_Guitar,6,5,_Guitar,0.3050336539745331,0
55,100,0.2818181818181818,431,0,54,_Guitar,6,5,_Guitar,0.3013821244239807,0
60,100,0.5,721,1,54,_Guitar,6,8,_Guitar,0.31265419721603394,0
55,100,0.4,716,1,55,_Guitar,6,6,_Guitar,0.9927131533622742,1
57,100,0.6181818181818182,875,1,62,_Guitar,6,10,_Guitar,0.9923464059829712,0
60,100,0.6409090909090909,188,1,63,_Guitar,6,10,_Guitar,0.9998177886009216,1
57,100,0.3409090909090909,334,0,63,_Guitar,6,5,_Guitar,0.4203577935695648,0
60,100,0.6590909090909091,716,1,63,_Guitar,6,11,_Guitar,0.4314221143722534,0
60,100,0.4,13,1,64,_Guitar,6,6,_Guitar,0.9997333884239197,1
55,100,0.2772727272727273,106,0,64,_Guitar,6,4,_Guitar,0.05407177656888962,0
57,100,0.2409090909090909,179,0,64,_Guitar,6,4,_Guitar,0.04728108271956444,0
60,100,0.6227272727272727,365,0,64,_Guitar,6,10,_Guitar,0.04767218977212906,0
60,100,0.1590909090909091,546,0,64,_Guitar,6,3,_Guitar,0.055851977318525314,0
55,100,0.37727272727272726,612,0,64,_Guitar,6,6,_Guitar,0.05786615237593651,0
55,100,0.42272727272727273,760,0,64,_Guitar,6,7,_Guitar,0.06842220574617386,0
55,100,0.1,866,0,64,_Guitar,6,2,_Guitar,0.06213760003447533,0
60,100,0.6409090909090909,22,1,65,_Guitar,6,10,_Guitar,0.9998359680175781,1
55,100,0.6818181818181818,197,0,65,_Guitar,6,11,_Guitar,0.31358134746551514,0
60,100,0.6590909090909091,540,1,65,_Guitar,6,11,_Guitar,0.3150397539138794,0
57,100,0.5409090909090909,686,0,65,_Guitar,6,9,_Guitar,0.314174085855484,0
59,100,0.6409090909090909,47,1,66,_Guitar,6,10,_Guitar,0.9997835755348206,1
60,100,1.540909090909091,189,0,66,_Guitar,6,15,_Guitar,0.4053648114204407,0
55,100,0.5818181818181818,870,1,66,_Guitar,6,9,_Guitar,0.45962417125701904,0
55,100,0.11818181818181818,153,1,67,_Guitar,6,2,_Guitar,0.9998365640640259,1
55,100,0.1590909090909091,233,0,67,_Guitar,6,3,_Guitar,0.20205466449260712,0
60,100,0.33636363636363636,370,0,67,_Guitar,6,5,_Guitar,0.20145085453987122,0
55,100,0.8772727272727273,502,0,67,_Guitar,6,14,_Guitar,0.19102469086647034,0
53,100,0.22272727272727272,805,1,67,_Guitar,6,4,_Guitar,0.2280423939228058,0
60,100,0.8772727272727273,9,1,68,_Guitar,6,14,_Guitar,0.9998113512992859,1
57,100,0.38181818181818183,202,0,68,_Guitar,6,6,_Guitar,0.21763961017131805,0
53,100,0.2409090909090909,294,0,68,_Guitar,6,4,_Guitar,0.2133638858795166,0
60,100,1.0,540,1,68,_Guitar,6,15,_Guitar,0.1969899982213974,0
59,100,0.17727272727272728,779,1,68,_Guitar,6,3,_Guitar,0.2233874499797821,0
59,100,0.1409090909090909,100,1,69,_Guitar,6,2,_Guitar,0.9998350143432617,1
60,100,0.6,189,0,69,_Guitar,6,10,_Guitar,0.20331652462482452,0
55,100,0.9,339,0,69,_Guitar,6,14,_Guitar,0.1866936981678009,0
60,100,0.5409090909090909,726,1,69,_Guitar,6,9,_Guitar,0.23994781076908112,0
55,100,0.8590909090909091,866,0,69,_Guitar,6,14,_Guitar,0.2058226764202118,0
57,100,0.2,184,1,70,_Guitar,6,3,_Guitar,0.9997664093971252,1
60,100,0.37727272727272726,360,0,70,_Guitar,6,6,_Guitar,0.08045656234025955,0
57,100,0.16363636363636364,443,0,70,_Guitar,6,3,_Guitar,0.07430717349052429,0
60,100,0.11818181818181818,483,0,70,_Guitar,6,2,_Guitar,0.08130677789449692,0
57,100,0.2,519,0,70,_Guitar,6,3,_Guitar,0.08426427841186523,0
53,100,0.1590909090909091,580,0,70,_Guitar,6,3,_Guitar,0.09635347872972488,0
59,100,0.5227272727272727,773,0,70,_Guitar,6,8,_Guitar,0.0838867574930191,0
60,100,1.1,13,1,71,_Guitar,6,15,_Guitar,0.9998067021369934,1
55,100,0.759090909090909,365,1,71,_Guitar,6,12,_Guitar,0.22212976217269897,0
60,100,0.5818181818181818,540,0,71,_Guitar,6,9,_Guitar,0.22714725136756897,0
55,100,0.2590909090909091,682,0,71,_Guitar,6,4,_Guitar,0.22761517763137817,0
55,100,1.981818181818182,870,0,71,_Guitar,6,15,_Guitar,0.19479937851428986,0
54,100,0.759090909090909,189,1,0,DL_EnglishEdition_Remastered_Guitar,6,12,DL_EnglishEdition_Remastered_Guitar,0.999817430973053,1
54,100,0.2,374,0,0,DL_EnglishEdition_Remastered_Guitar,6,3,DL_EnglishEdition_Remastered_Guitar,0.22676953673362732,0
54,100,0.22272727272727272,466,0,0,DL_EnglishEdition_Remastered_Guitar,6,4,DL_EnglishEdition_Remastered_Guitar,0.20490112900733948,0
59,100,0.12272727272727273,673,0,0,DL_EnglishEdition_Remastered_Guitar,6,2,DL_EnglishEdition_Remastered_Guitar,0.208126038312912,0
61,100,0.3,770,0,0,DL_EnglishEdition_Remastered_Guitar,6,5,DL_EnglishEdition_Remastered_Guitar,0.20370516180992126,0
61,100,0.3,18,1,1,DL_EnglishEdition_Remastered_Guitar,6,5,DL_EnglishEdition_Remastered_Guitar,0.9998326301574707,1
59,100,0.1590909090909091,238,0,1,DL_EnglishEdition_Remastered_Guitar,6,3,DL_EnglishEdition_Remastered_Guitar,0.21477772295475006,0
66,100,0.12272727272727273,444,0,1,DL_EnglishEdition_Remastered_Guitar,6,2,DL_EnglishEdition_Remastered_Guitar,0.19734998047351837,0
66,100,0.38181818181818183,475,0,1,DL_EnglishEdition_Remastered_Guitar,6,6,DL_EnglishEdition_Remastered_Guitar,0.20524191856384277,0
59,100,0.4409090909090909,625,0,1,DL_EnglishEdition_Remastered_Guitar,6,7,DL_EnglishEdition_Remastered_Guitar,0.20267663896083832,0
52,100,0.41818181818181815,140,1,2,DL_EnglishEdition_Remastered_Guitar,6,7,DL_EnglishEdition_Remastered_Guitar,0.999828577041626,1
52,100,0.35909090909090907,364,0,2,DL_EnglishEdition_Remastered_Guitar,6,6,DL_EnglishEdition_Remastered_Guitar,0.4194011986255646,0
54,100,0.6181818181818182,770,1,2,DL_EnglishEdition_Remastered_Guitar,6,10,DL_EnglishEdition_Remastered_Guitar,0.413231760263443,0
59,100,0.2636363636363636,26,1,3,DL_EnglishEdition_Remastered_Guitar,6,4,DL_EnglishEdition_Remastered_Guitar,0.9998317956924438,1
61,100,0.12272727272727273,210,0,3,DL_EnglishEdition_Remastered_Guitar,6,2,DL_EnglishEdition_Remastered_Guitar,0.22227638959884644,0
61,100,0.5227272727272727,246,0,3,DL_EnglishEdition_Remastered_Guitar,6,8,DL_EnglishEdition_Remastered_Guitar,0.18908686935901642,0
61,100,0.17727272727272728,458,0,3,DL_EnglishEdition_Remastered_Guitar,6,3,DL_EnglishEdition_Remastered_Guitar,0.21789135038852692,0
59,100,1.2,681,0,3,DL_EnglishEdition_Remastered_Guitar,6,15,DL_EnglishEdition_Remastered_Guitar,0.2000463902950287,0
59,100,0.8,87,1,4,DL_EnglishEdition_Remastered_Guitar,6,13,DL_EnglishEdition_Remastered_Guitar,0.9998303651809692,1
59,100,0.22272727272727272,276,0,4,DL_EnglishEdition_Remastered_Guitar,6,4,DL_EnglishEdition_Remastered_Guitar,0.3519109785556793,0
52,100,0.16363636363636364,795,1,4,DL_EnglishEdition_Remastered_Guitar,6,3,DL_EnglishEdition_Remastered_Guitar,0.30889105796813965,0
54,100,0.22272727272727272,849,0,4,DL_EnglishEdition_Remastered_Guitar,6,4,DL_EnglishEdition_Remastered_Guitar,0.3009917736053467,0
54,100,0.5,232,1,5,DL_EnglishEdition_Remastered_Guitar,6,8,DL_EnglishEdition_Remastered_Guitar,0.9998332262039185,1
54,100,0.21818181818181817,370,0,5,DL_EnglishEdition_Remastered_Guitar,6,3,DL_EnglishEdition_Remastered_Guitar,0.21196934580802917,0
61,100,0.12272727272727273,541,0,5,DL_EnglishEdition_Remastered_Guitar,6,2,DL_EnglishEdition_Remastered_Guitar,0.19646091759204865,0
54,100,0.11818181818181818,581,0,5,DL_EnglishEdition_Remastered_Guitar,6,2,DL_EnglishEdition_Remastered_Guitar,0.20843540132045746,0
66,100,0.2,672,0,5,DL_EnglishEdition_Remastered_Guitar,6,3,DL_EnglishEdition_Remastered_Guitar,0.20494021475315094,0
59,100,0.11818181818181818,18,1,6,DL_EnglishEdition_Remastered_Guitar,6,2,DL_EnglishEdition_Remastered_Guitar,0.9998373985290527,1
59,100,0.13636363636363635,61,0,6,DL_EnglishEdition_Remastered_Guitar,6,2,DL_EnglishEdition_Remastered_Guitar,0.2050790935754776,0
52,100,0.3409090909090909,163,0,6,DL_EnglishEdition_Remastered_Guitar,6,5,DL_EnglishEdition_Remastered_Guitar,0.19764889776706696,0
59,100,0.3,409,1,6,DL_EnglishEdition_Remastered_Guitar,6,5,DL_EnglishEdition_Remastered_Guitar,0.20499545335769653,0
61,100,0.2409090909090909,792,1,6,DL_EnglishEdition_Remastered_Guitar,6,4,DL_EnglishEdition_Remastered_Guitar,0.20515534281730652,0
59,100,0.18181818181818182,289,1,7,DL_EnglishEdition_Remastered_Guitar,6,3,DL_EnglishEdition_Remastered_Guitar,0.9998354911804199,1
59,100,0.1409090909090909,360,0,7,DL_EnglishEdition_Remastered_Guitar,6,2,DL_EnglishEdition_Remastered_Guitar,0.21134589612483978,0
54,100,0.1590909090909091,572,0,7,DL_EnglishEdition_Remastered_Guitar,6,3,DL_EnglishEdition_Remastered_Guitar,0.19911153614521027,0
59,100,0.11818181818181818,734,0,7,DL_EnglishEdition_Remastered_Guitar,6,2,DL_EnglishEdition_Remastered_Guitar,0.20955781638622284,0
59,100,0.1590909090909091,778,0,7,DL_EnglishEdition_Remastered_Guitar,6,3,DL_EnglishEdition_Remastered_Guitar,0.20090268552303314,0
54,100,0.2409090909090909,3,1,8,DL_EnglishEdition_Remastered_Guitar,6,4,DL_EnglishEdition_Remastered_Guitar,0.9997982382774353,1
54,100,0.7,206,0,8,DL_EnglishEdition_Remastered_Guitar,6,11,DL_EnglishEdition_Remastered_Guitar,0.1181582510471344,0
66,100,0.2409090909090909,378,0,8,DL_EnglishEdition_Remastered_Guitar,6,4,DL_EnglishEdition_Remastered_Guitar,0.1263398677110672,0
59,100,0.3409090909090909,453,0,8,DL_EnglishEdition_Remastered_Guitar,6,5,DL_EnglishEdition_Remastered_Guitar,0.13261476159095764,0
59,100,0.11818181818181818,589,0,8,DL_EnglishEdition_Remastered_Guitar,6,2,DL_EnglishEdition_Remastered_Guitar,0.14648212492465973,0
59,100,0.1,682,0,8,DL_EnglishEdition_Remastered_Guitar,6,2,DL_EnglishEdition_Remastered_Guitar,0.1390596181154251,0
52,100,0.5,245,1,9,DL_EnglishEdition_Remastered_Guitar,6,8,DL_EnglishEdition_Remastered_Guitar,0.9998365640640259,1
54,100,0.11818181818181818,374,0,9,DL_EnglishEdition_Remastered_Guitar,6,2,DL_EnglishEdition_Remastered_Guitar,0.2093399614095688,0
52,100,0.1590909090909091,519,0,9,DL_EnglishEdition_Remastered_Guitar,6,3,DL_EnglishEdition_Remastered_Guitar,0.20258723199367523,0
57,100,0.1,620,0,9,DL_EnglishEdition_Remastered_Guitar,6,2,DL_EnglishEdition_Remastered_Guitar,0.20363028347492218,0
57,100,0.5590909090909091,677,0,9,DL_EnglishEdition_Remastered_Guitar,6,9,DL_EnglishEdition_Remastered_Guitar,0.1973147690296173,0
61,100,0.18181818181818182,268,1,10,DL_EnglishEdition_Remastered_Guitar,6,3,DL_EnglishEdition_Remastered_Guitar,0.9998373985290527,1
59,100,0.1590909090909091,395,0,10,DL_EnglishEdition_Remastered_Guitar,6,3,DL_EnglishEdition_Remastered_Guitar,0.21087418496608734,0
59,100,0.1590909090909091,457,0,10,DL_EnglishEdition_Remastered_Guitar,6,3,DL_EnglishEdition_Remastered_Guitar,0.19576896727085114,0
59,100,0.38181818181818183,532,0,10,DL_EnglishEdition_Remastered_Guitar,6,6,DL_EnglishEdition_Remastered_Guitar,0.1977226734161377,0
59,100,0.5409090909090909,795,1,10,DL_EnglishEdition_Remastered_Guitar,6,9,DL_EnglishEdition_Remastered_Guitar,0.20586176216602325,0
59,100,0.2409090909090909,110,1,11,DL_EnglishEdition_Remastered_Guitar,6,4,DL_EnglishEdition_Remastered_Guitar,0.9998507499694824,1
52,100,0.2590909090909091,364,1,11,DL_EnglishEdition_Remastered_Guitar,6,4,DL_EnglishEdition_Remastered_Guitar,0.3367845416069031,0
54,100,0.1590909090909091,436,0,11,DL_EnglishEdition_Remastered_Guitar,6,3,DL_EnglishEdition_Remastered_Guitar,0.28827887773513794,0
59,100,0.4,470,0,11,DL_EnglishEdition_Remastered_Guitar,6,6,DL_EnglishEdition_Remastered_Guitar,0.3004157245159149,0
52,100,0.6409090909090909,87,1,12,DL_EnglishEdition_Remastered_Guitar,6,10,DL_EnglishEdition_Remastered_Guitar,0.9997543692588806,1
59,100,0.1,242,0,12,DL_EnglishEdition_Remastered_Guitar,6,2,DL_EnglishEdition_Remastered_Guitar,0.08433448523283005,0
59,100,0.2636363636363636,268,0,12,DL_EnglishEdition_Remastered_Guitar,6,4,DL_EnglishEdition_Remastered_Guitar,0.07476486265659332,0
59,100,0.37727272727272726,347,0,12,DL_EnglishEdition_Remastered_Guitar,6,6,DL_EnglishEdition_Remastered_Guitar,0.08141595870256424,0
64,100,0.1,620,1,12,DL_EnglishEdition_Remastered_Guitar,6,2,DL_EnglishEdition_Remastered_Guitar,0.10013484954833984,0
59,100,0.41818181818181815,656,0,12,DL_EnglishEdition_Remastered_Guitar,6,7,DL_EnglishEdition_Remastered_Guitar,0.09425192326307297,0
59,100,0.8772727272727273,866,0,12,DL_EnglishEdition_Remastered_Guitar,6,14,DL_EnglishEdition_Remastered_Guitar,0.08540766686201096,0
54,100,0.11818181818181818,194,1,13,DL_EnglishEdition_Remastered_Guitar,6,2,DL_EnglishEdition_Remastered_Guitar,0.9996486902236938,1
54,100,0.2772727272727273,250,0,13,DL_EnglishEdition_Remastered_Guitar,6,4,DL_EnglishEdition_Remastered_Guitar,0.5445175766944885,0
59,100,0.5409090909090909,496,1,14,DL_EnglishEdition_Remastered_Guitar,6,9,DL_EnglishEdition_Remastered_Guitar,0.9998176693916321,1
59,100,0.41818181818181815,660,0,14,DL_EnglishEdition_Remastered_Guitar,6,7,DL_EnglishEdition_Remastered_Guitar,0.4202360212802887,0
59,100,0.1409090909090909,756,0,14,DL_EnglishEdition_Remastered_Guitar,6,2,DL_EnglishEdition_Remastered_Guitar,0.43758949637413025,0
54,100,0.8409090909090909,113,1,15,DL_EnglishEdition_Remastered_Guitar,6,13,DL_EnglishEdition_Remastered_Guitar,0.9998164772987366,1
54,100,0.22272727272727272,333,0,15,DL_EnglishEdition_Remastered_Guitar,6,4,DL_EnglishEdition_Remastered_Guitar,0.2241329550743103,0
61,100,0.17727272727272728,426,0,15,DL_EnglishEdition_Remastered_Guitar,6,3,DL_EnglishEdition_Remastered_Guitar,0.206999734044075,0
59,100,0.35909090909090907,501,0,15,DL_EnglishEdition_Remastered_Guitar,6,6,DL_EnglishEdition_Remastered_Guitar,0.20359520614147186,0
59,100,0.42272727272727273,673,0,15,DL_EnglishEdition_Remastered_Guitar,6,7,DL_EnglishEdition_Remastered_Guitar,0.20740333199501038,0
54,100,0.1590909090909091,175,1,16,DL_EnglishEdition_Remastered_Guitar,6,3,DL_EnglishEdition_Remastered_Guitar,0.9998379945755005,1
59,100,0.2409090909090909,594,1,16,DL_EnglishEdition_Remastered_Guitar,6,4,DL_EnglishEdition_Remastered_Guitar,0.40307071805000305,0
54,100,0.2590909090909091,677,0,16,DL_EnglishEdition_Remastered_Guitar,6,4,DL_EnglishEdition_Remastered_Guitar,0.4263719916343689,0
54,100,0.2,326,1,17,DL_EnglishEdition_Remastered_Guitar,6,3,DL_EnglishEdition_Remastered_Guitar,0.9997654557228088,1
54,100,0.2,457,0,17,DL_EnglishEdition_Remastered_Guitar,6,3,DL_EnglishEdition_Remastered_Guitar,0.0809975266456604,0
61,100,0.12272727272727273,509,0,17,DL_EnglishEdition_Remastered_Guitar,6,2,DL_EnglishEdition_Remastered_Guitar,0.07492000609636307,0
61,100,0.42272727272727273,540,0,17,DL_EnglishEdition_Remastered_Guitar,6,7,DL_EnglishEdition_Remastered_Guitar,0.07669837772846222,0
54,100,0.5772727272727273,646,0,17,DL_EnglishEdition_Remastered_Guitar,6,9,DL_EnglishEdition_Remastered_Guitar,0.08702868223190308,0
59,100,0.11818181818181818,835,0,17,DL_EnglishEdition_Remastered_Guitar,6,2,DL_EnglishEdition_Remastered_Guitar,0.10213100910186768,0
52,100,0.1,866,0,17,DL_EnglishEdition_Remastered_Guitar,6,2,DL_EnglishEdition_Remastered_Guitar,0.09081762284040451,0
59,100,0.5590909090909091,21,1,18,DL_EnglishEdition_Remastered_Guitar,6,9,DL_EnglishEdition_Remastered_Guitar,0.9998164772987366,1
59,100,1.059090909090909,193,0,18,DL_EnglishEdition_Remastered_Guitar,6,15,DL_EnglishEdition_Remastered_Guitar,0.19643019139766693,0
59,100,0.2,515,1,18,DL_EnglishEdition_Remastered_Guitar,6,3,DL_EnglishEdition_Remastered_Guitar,0.22786615788936615,0
59,100,0.1590909090909091,677,0,18,DL_EnglishEdition_Remastered_Guitar,6,3,DL_EnglishEdition_Remastered_Guitar,0.22246146202087402,0
54,100,0.4590909090909091,814,0,18,DL_EnglishEdition_Remastered_Guitar,6,7,DL_EnglishEdition_Remastered_Guitar,0.20958755910396576,0
59,100,0.32272727272727275,113,1,19,DL_EnglishEdition_Remastered_Guitar,6,5,DL_EnglishEdition_Remastered_Guitar,0.9998074173927307,1
59,100,0.2,395,1,19,DL_EnglishEdition_Remastered_Guitar,6,3,DL_EnglishEdition_Remastered_Guitar,0.13105233013629913,0
54,100,0.1,461,0,19,DL_EnglishEdition_Remastered_Guitar,6,2,DL_EnglishEdition_Remastered_Guitar,0.12203826755285263,0
54,100,0.1,646,0,19,DL_EnglishEdition_Remastered_Guitar,6,2,DL_EnglishEdition_Remastered_Guitar,0.13387854397296906,0
59,100,0.4,770,0,19,DL_EnglishEdition_Remastered_Guitar,6,6,DL_EnglishEdition_Remastered_Guitar,0.13611403107643127,0
54,100,0.22272727272727272,862,0,19,DL_EnglishEdition_Remastered_Guitar,6,4,DL_EnglishEdition_Remastered_Guitar,0.13501934707164764,0
59,100,0.11818181818181818,65,1,20,DL_EnglishEdition_Remastered_Guitar,6,2,DL_EnglishEdition_Remastered_Guitar,0.9998067021369934,1
54,100,0.2409090909090909,110,0,20,DL_EnglishEdition_Remastered_Guitar,6,4,DL_EnglishEdition_Remastered_Guitar,0.12162056565284729,0
59,100,0.2818181818181818,220,0,20,DL_EnglishEdition_Remastered_Guitar,6,5,DL_EnglishEdition_Remastered_Guitar,0.11929129809141159,0
59,100,0.21818181818181817,360,0,20,DL_EnglishEdition_Remastered_Guitar,6,3,DL_EnglishEdition_Remastered_Guitar,0.13612638413906097,0
59,100,0.8818181818181818,430,0,20,DL_EnglishEdition_Remastered_Guitar,6,14,DL_EnglishEdition_Remastered_Guitar,0.1365596204996109,0
52,100,0.2636363636363636,773,1,20,DL_EnglishEdition_Remastered_Guitar,6,4,DL_EnglishEdition_Remastered_Guitar,0.14766480028629303,0
52,100,0.2,9,1,21,DL_EnglishEdition_Remastered_Guitar,6,3,DL_EnglishEdition_Remastered_Guitar,0.9998114705085754,1
52,100,0.2818181818181818,65,0,21,DL_EnglishEdition_Remastered_Guitar,6,5,DL_EnglishEdition_Remastered_Guitar,0.12741655111312866,0
54,100,0.1409090909090909,154,0,21,DL_EnglishEdition_Remastered_Guitar,6,2,DL_EnglishEdition_Remastered_Guitar,0.1176612600684166,0
54,100,0.11818181818181818,480,1,21,DL_EnglishEdition_Remastered_Guitar,6,2,DL_EnglishEdition_Remastered_Guitar,0.13739895820617676,0
59,100,0.18181818181818182,708,0,21,DL_EnglishEdition_Remastered_Guitar,6,3,DL_EnglishEdition_Remastered_Guitar,0.13884073495864868,0
59,100,0.2590909090909091,866,0,21,DL_EnglishEdition_Remastered_Guitar,6,4,DL_EnglishEdition_Remastered_Guitar,0.1271263062953949,0
54,100,0.1,100,1,22,DL_EnglishEdition_Remastered_Guitar,6,2,DL_EnglishEdition_Remastered_Guitar,0.9997709393501282,1
59,100,0.1409090909090909,179,0,22,DL_EnglishEdition_Remastered_Guitar,6,2,DL_EnglishEdition_Remastered_Guitar,0.07877743989229202,0
54,100,0.8,237,0,22,DL_EnglishEdition_Remastered_Guitar,6,13,DL_EnglishEdition_Remastered_Guitar,0.0696229338645935,0
54,100,0.6590909090909091,426,0,22,DL_EnglishEdition_Remastered_Guitar,6,11,DL_EnglishEdition_Remastered_Guitar,0.08381540328264236,0
66,100,0.11818181818181818,581,0,22,DL_EnglishEdition_Remastered_Guitar,6,2,DL_EnglishEdition_Remastered_Guitar,0.09604086726903915,0
59,100,0.4,611,0,22,DL_EnglishEdition_Remastered_Guitar,6,6,DL_EnglishEdition_Remastered_Guitar,0.09504344314336777,0
59,100,0.1590909090909091,725,0,22,DL_EnglishEdition_Remastered_Guitar,6,3,DL_EnglishEdition_Remastered_Guitar,0.09368504583835602,0
64,100,0.1,193,1,23,DL_EnglishEdition_Remastered_Guitar,6,2,DL_EnglishEdition_Remastered_Guitar,0.9998156428337097,1
52,100,0.2818181818181818,268,0,23,DL_EnglishEdition_Remastered_Guitar,6,5,DL_EnglishEdition_Remastered_Guitar,0.12282391637563705,0
59,100,0.1409090909090909,387,0,23,DL_EnglishEdition_Remastered_Guitar,6,2,DL_EnglishEdition_Remastered_Guitar,0.11910344660282135,0
52,100,0.4409090909090909,484,0,23,DL_EnglishEdition_Remastered_Guitar,6,7,DL_EnglishEdition_Remastered_Guitar,0.13473007082939148,0
54,100,0.41818181818181815,602,0,23,DL_EnglishEdition_Remastered_Guitar,6,7,DL_EnglishEdition_Remastered_Guitar,0.13774637877941132,0
54,100,0.1590909090909091,814,0,23,DL_EnglishEdition_Remastered_Guitar,6,3,DL_EnglishEdition_Remastered_Guitar,0.13441205024719238,0
52,100,0.1,34,1,24,DL_EnglishEdition_Remastered_Guitar,6,2,DL_EnglishEdition_Remastered_Guitar,0.9998138546943665,1
59,100,0.2409090909090909,382,1,24,DL_EnglishEdition_Remastered_Guitar,6,4,DL_EnglishEdition_Remastered_Guitar,0.12318200618028641,0
59,100,0.2409090909090909,440,0,24,DL_EnglishEdition_Remastered_Guitar,6,4,DL_EnglishEdition_Remastered_Guitar,0.119916632771492,0
59,100,0.5636363636363636,619,0,24,DL_EnglishEdition_Remastered_Guitar,6,9,DL_EnglishEdition_Remastered_Guitar,0.13049942255020142,0
59,100,0.2,773,0,24,DL_EnglishEdition_Remastered_Guitar,6,3,DL_EnglishEdition_Remastered_Guitar,0.15068213641643524,0
59,100,0.4590909090909091,827,0,24,DL_EnglishEdition_Remastered_Guitar,6,7,DL_EnglishEdition_Remastered_Guitar,0.1321677565574646,0
59,100,0.2772727272727273,52,1,25,DL_EnglishEdition_Remastered_Guitar,6,4,DL_EnglishEdition_Remastered_Guitar,0.9997938275337219,1
63,100,0.2590909090909091,216,0,25,DL_EnglishEdition_Remastered_Guitar,6,4,DL_EnglishEdition_Remastered_Guitar,0.12442561984062195,0
59,100,0.6,272,0,25,DL_EnglishEdition_Remastered_Guitar,6,10,DL_EnglishEdition_Remastered_Guitar,0.11861695349216461,0
59,100,0.6,409,0,25,DL_EnglishEdition_Remastered_Guitar,6,10,DL_EnglishEdition_Remastered_Guitar,0.14020845293998718,0
59,100,0.5,686,1,25,DL_EnglishEdition_Remastered_Guitar,6,8,DL_EnglishEdition_Remastered_Guitar,0.15305909514427185,0
54,100,0.2636363636363636,796,0,25,DL_EnglishEdition_Remastered_Guitar,6,4,DL_EnglishEdition_Remastered_Guitar,0.14431776106357574,0
54,100,0.4,52,1,26,DL_EnglishEdition_Remastered_Guitar,6,6,DL_EnglishEdition_Remastered_Guitar,0.999845027923584,1
52,100,0.4,241,0,26,DL_EnglishEdition_Remastered_Guitar,6,6,DL_EnglishEdition_Remastered_Guitar,0.3372623026371002,0
52,100,0.6772727272727272,382,0,26,DL_EnglishEdition_Remastered_Guitar,6,11,DL_EnglishEdition_Remastered_Guitar,0.286313533782959,0
59,100,0.3181818181818182,700,1,26,DL_EnglishEdition_Remastered_Guitar,6,5,DL_EnglishEdition_Remastered_Guitar,0.3055322468280792,0
59,100,0.4590909090909091,100,1,27,DL_EnglishEdition_Remastered_Guitar,6,7,DL_EnglishEdition_Remastered_Guitar,0.9998119473457336,1
59,100,0.5590909090909091,216,0,27,DL_EnglishEdition_Remastered_Guitar,6,9,DL_EnglishEdition_Remastered_Guitar,0.40626806020736694,0
59,100,0.6227272727272727,773,1,27,DL_EnglishEdition_Remastered_Guitar,6,10,DL_EnglishEdition_Remastered_Guitar,0.43381303548812866,0
59,100,0.35909090909090907,65,1,28,DL_EnglishEdition_Remastered_Guitar,6,6,DL_EnglishEdition_Remastered_Guitar,0.9996235370635986,1
59,100,0.1409090909090909,791,1,28,DL_EnglishEdition_Remastered_Guitar,6,2,DL_EnglishEdition_Remastered_Guitar,0.5489618182182312,0
59,100,0.16363636363636364,26,1,29,DL_EnglishEdition_Remastered_Guitar,6,3,DL_EnglishEdition_Remastered_Guitar,0.9998306035995483,1
52,100,0.21818181818181817,154,0,29,DL_EnglishEdition_Remastered_Guitar,6,3,DL_EnglishEdition_Remastered_Guitar,0.4182491898536682,0
52,100,0.2590909090909091,206,0,29,DL_EnglishEdition_Remastered_Guitar,6,4,DL_EnglishEdition_Remastered_Guitar,0.4287586808204651,0
54,100,0.6363636363636364,61,1,30,DL_EnglishEdition_Remastered_Guitar,6,10,DL_EnglishEdition_Remastered_Guitar,0.9995799660682678,1
56,100,0.3409090909090909,739,1,30,DL_EnglishEdition_Remastered_Guitar,6,5,DL_EnglishEdition_Remastered_Guitar,0.5643671751022339,0
52,100,0.2590909090909091,272,1,31,DL_EnglishEdition_Remastered_Guitar,6,4,DL_EnglishEdition_Remastered_Guitar,0.999646782875061,1
59,100,0.11818181818181818,501,0,31,DL_EnglishEdition_Remastered_Guitar,6,2,DL_EnglishEdition_Remastered_Guitar,0.5448238253593445,0
59,100,0.12272727272727273,34,1,32,DL_EnglishEdition_Remastered_Guitar,6,2,DL_EnglishEdition_Remastered_Guitar,0.9998372793197632,1
59,100,0.2409090909090909,141,0,32,DL_EnglishEdition_Remastered_Guitar,6,4,DL_EnglishEdition_Remastered_Guitar,0.20656760036945343,0
61,100,0.22272727272727272,276,0,32,DL_EnglishEdition_Remastered_Guitar,6,4,DL_EnglishEdition_Remastered_Guitar,0.20154066383838654,0
54,100,0.4409090909090909,364,0,32,DL_EnglishEdition_Remastered_Guitar,6,7,DL_EnglishEdition_Remastered_Guitar,0.21143923699855804,0
54,100,0.6409090909090909,518,0,32,DL_EnglishEdition_Remastered_Guitar,6,10,DL_EnglishEdition_Remastered_Guitar,0.20672732591629028,0
61,100,0.2,128,1,33,DL_EnglishEdition_Remastered_Guitar,6,3,DL_EnglishEdition_Remastered_Guitar,0.999734103679657,1
61,100,0.11818181818181818,193,0,33,DL_EnglishEdition_Remastered_Guitar,6,2,DL_EnglishEdition_Remastered_Guitar,0.055148255079984665,0
61,100,0.3,295,0,33,DL_EnglishEdition_Remastered_Guitar,6,5,DL_EnglishEdition_Remastered_Guitar,0.045686036348342896,0
59,100,0.22272727272727272,509,0,33,DL_EnglishEdition_Remastered_Guitar,6,4,DL_EnglishEdition_Remastered_Guitar,0.04887383431196213,0
59,100,0.4818181818181818,563,0,33,DL_EnglishEdition_Remastered_Guitar,6,8,DL_EnglishEdition_Remastered_Guitar,0.04833269119262695,0
59,100,0.23636363636363636,700,0,33,DL_EnglishEdition_Remastered_Guitar,6,4,DL_EnglishEdition_Remastered_Guitar,0.06381881237030029,0
52,100,0.1590909090909091,761,0,33,DL_EnglishEdition_Remastered_Guitar,6,3,DL_EnglishEdition_Remastered_Guitar,0.07150344550609589,0
59,100,0.4818181818181818,839,0,33,DL_EnglishEdition_Remastered_Guitar,6,8,DL_EnglishEdition_Remastered_Guitar,0.058086417615413666,0
59,100,0.6227272727272727,101,1,34,DL_EnglishEdition_Remastered_Guitar,6,10,DL_EnglishEdition_Remastered_Guitar,0.9998212456703186,1
54,100,0.3,325,0,34,DL_EnglishEdition_Remastered_Guitar,6,5,DL_EnglishEdition_Remastered_Guitar,0.22704030573368073,0
54,100,0.18181818181818182,681,1,34,DL_EnglishEdition_Remastered_Guitar,6,3,DL_EnglishEdition_Remastered_Guitar,0.21440261602401733,0
54,100,0.4590909090909091,726,0,34,DL_EnglishEdition_Remastered_Guitar,6,7,DL_EnglishEdition_Remastered_Guitar,0.20380982756614685,0
54,100,0.2590909090909091,831,0,34,DL_EnglishEdition_Remastered_Guitar,6,4,DL_EnglishEdition_Remastered_Guitar,0.2085467129945755,0
54,100,0.3409090909090909,13,1,35,DL_EnglishEdition_Remastered_Guitar,6,5,DL_EnglishEdition_Remastered_Guitar,0.9997285008430481,1
54,100,0.2818181818181818,166,0,35,DL_EnglishEdition_Remastered_Guitar,6,5,DL_EnglishEdition_Remastered_Guitar,0.055863168090581894,0
56,100,0.2,391,0,35,DL_EnglishEdition_Remastered_Guitar,6,3,DL_EnglishEdition_Remastered_Guitar,0.048196543008089066,0
59,100,0.2,458,0,35,DL_EnglishEdition_Remastered_Guitar,6,3,DL_EnglishEdition_Remastered_Guitar,0.04771764576435089,0
59,100,0.11818181818181818,536,0,35,DL_EnglishEdition_Remastered_Guitar,6,2,DL_EnglishEdition_Remastered_Guitar,0.053297657519578934,0
59,100,0.32272727272727275,641,0,35,DL_EnglishEdition_Remastered_Guitar,6,5,DL_EnglishEdition_Remastered_Guitar,0.05999859422445297,0
59,100,0.1409090909090909,751,0,35,DL_EnglishEdition_Remastered_Guitar,6,2,DL_EnglishEdition_Remastered_Guitar,0.06964307278394699,0
52,100,0.5818181818181818,871,0,35,DL_EnglishEdition_Remastered_Guitar,6,9,DL_EnglishEdition_Remastered_Guitar,0.06130678951740265,0
59,100,0.5590909090909091,150,1,36,DL_EnglishEdition_Remastered_Guitar,6,9,DL_EnglishEdition_Remastered_Guitar,0.9997876286506653,1
59,100,0.38181818181818183,286,0,36,DL_EnglishEdition_Remastered_Guitar,6,6,DL_EnglishEdition_Remastered_Guitar,0.13481561839580536,0
61,100,0.12272727272727273,466,0,36,DL_EnglishEdition_Remastered_Guitar,6,2,DL_EnglishEdition_Remastered_Guitar,0.1296500712633133,0
54,100,0.6363636363636364,655,0,36,DL_EnglishEdition_Remastered_Guitar,6,10,DL_EnglishEdition_Remastered_Guitar,0.12803931534290314,0
54,100,0.2409090909090909,818,0,36,DL_EnglishEdition_Remastered_Guitar,6,4,DL_EnglishEdition_Remastered_Guitar,0.15312911570072174,0
54,100,0.2590909090909091,875,0,36,DL_EnglishEdition_Remastered_Guitar,6,4,DL_EnglishEdition_Remastered_Guitar,0.13797564804553986,0
59,100,0.2,171,1,37,DL_EnglishEdition_Remastered_Guitar,6,3,DL_EnglishEdition_Remastered_Guitar,0.9998351335525513,1
54,100,0.1409090909090909,426,1,37,DL_EnglishEdition_Remastered_Guitar,6,2,DL_EnglishEdition_Remastered_Guitar,0.22020603716373444,0
54,100,0.38181818181818183,506,0,37,DL_EnglishEdition_Remastered_Guitar,6,6,DL_EnglishEdition_Remastered_Guitar,0.19230253994464874,0
54,100,0.3,603,0,37,DL_EnglishEdition_Remastered_Guitar,6,5,DL_EnglishEdition_Remastered_Guitar,0.20686505734920502,0
54,100,0.2,694,0,37,DL_EnglishEdition_Remastered_Guitar,6,3,DL_EnglishEdition_Remastered_Guitar,0.20696154236793518,0
54,100,0.1590909090909091,413,1,38,DL_EnglishEdition_Remastered_Guitar,6,3,DL_EnglishEdition_Remastered_Guitar,0.9996140599250793,1
54,100,0.6409090909090909,471,0,38,DL_EnglishEdition_Remastered_Guitar,6,10,DL_EnglishEdition_Remastered_Guitar,0.5334608554840088,0
59,100,0.18181818181818182,114,1,39,DL_EnglishEdition_Remastered_Guitar,6,3,DL_EnglishEdition_Remastered_Guitar,0.99983811378479,1
52,100,0.2818181818181818,188,0,39,DL_EnglishEdition_Remastered_Guitar,6,5,DL_EnglishEdition_Remastered_Guitar,0.21010641753673553,0
59,100,0.6409090909090909,628,1,39,DL_EnglishEdition_Remastered_Guitar,6,10,DL_EnglishEdition_Remastered_Guitar,0.18519794940948486,0
59,100,0.13636363636363635,810,0,39,DL_EnglishEdition_Remastered_Guitar,6,2,DL_EnglishEdition_Remastered_Guitar,0.22463636100292206,0
54,100,0.1590909090909091,866,0,39,DL_EnglishEdition_Remastered_Guitar,6,3,DL_EnglishEdition_Remastered_Guitar,0.20743511617183685,0
52,100,0.12272727272727273,144,1,40,DL_EnglishEdition_Remastered_Guitar,6,2,DL_EnglishEdition_Remastered_Guitar,0.9998483657836914,1
54,100,0.2818181818181818,483,1,40,DL_EnglishEdition_Remastered_Guitar,6,5,DL_EnglishEdition_Remastered_Guitar,0.19880247116088867,0
54,100,0.21818181818181817,550,0,40,DL_EnglishEdition_Remastered_Guitar,6,3,DL_EnglishEdition_Remastered_Guitar,0.19491486251354218,0
59,100,0.1,641,0,40,DL_EnglishEdition_Remastered_Guitar,6,2,DL_EnglishEdition_Remastered_Guitar,0.2037356048822403,0
59,100,0.41818181818181815,853,0,40,DL_EnglishEdition_Remastered_Guitar,6,7,DL_EnglishEdition_Remastered_Guitar,0.19497612118721008,0
52,100,0.5181818181818182,308,1,41,DL_EnglishEdition_Remastered_Guitar,6,8,DL_EnglishEdition_Remastered_Guitar,0.9930161237716675,0
54,100,0.1409090909090909,88,1,42,DL_EnglishEdition_Remastered_Guitar,6,2,DL_EnglishEdition_Remastered_Guitar,0.9998230338096619,1
54,100,0.5227272727272727,276,0,42,DL_EnglishEdition_Remastered_Guitar,6,8,DL_EnglishEdition_Remastered_Guitar,0.40065622329711914,0
59,100,1.040909090909091,638,1,42,DL_EnglishEdition_Remastered_Guitar,6,15,DL_EnglishEdition_Remastered_Guitar,0.4236443042755127,0
54,100,0.4409090909090909,399,1,43,DL_EnglishEdition_Remastered_Guitar,6,7,DL_EnglishEdition_Remastered_Guitar,0.9998214840888977,1
52,100,0.7,509,0,43,DL_EnglishEdition_Remastered_Guitar,6,11,DL_EnglishEdition_Remastered_Guitar,0.4186421036720276,0
52,100,0.37727272727272726,823,1,43,DL_EnglishEdition_Remastered_Guitar,6,6,DL_EnglishEdition_Remastered_Guitar,0.4324023723602295,0
59,100,0.5181818181818182,413,1,44,DL_EnglishEdition_Remastered_Guitar,6,8,DL_EnglishEdition_Remastered_Guitar,0.9998158812522888,1
59,100,0.11818181818181818,593,0,44,DL_EnglishEdition_Remastered_Guitar,6,2,DL_EnglishEdition_Remastered_Guitar,0.4207932651042938,0
59,100,0.13636363636363635,633,0,44,DL_EnglishEdition_Remastered_Guitar,6,2,DL_EnglishEdition_Remastered_Guitar,0.43449288606643677,0
59,100,0.3409090909090909,220,1,45,DL_EnglishEdition_Remastered_Guitar,6,5,DL_EnglishEdition_Remastered_Guitar,0.9998277425765991,1
59,100,0.5181818181818182,303,0,45,DL_EnglishEdition_Remastered_Guitar,6,8,DL_EnglishEdition_Remastered_Guitar,0.2018548846244812,0
59,100,0.2772727272727273,501,0,45,DL_EnglishEdition_Remastered_Guitar,6,4,DL_EnglishEdition_Remastered_Guitar,0.2123943418264389,0
54,100,0.4,770,1,45,DL_EnglishEdition_Remastered_Guitar,6,6,DL_EnglishEdition_Remastered_Guitar,0.20878028869628906,0
54,100,0.1409090909090909,861,0,45,DL_EnglishEdition_Remastered_Guitar,6,2,DL_EnglishEdition_Remastered_Guitar,0.2178266942501068,0
54,100,0.16363636363636364,224,1,46,DL_EnglishEdition_Remastered_Guitar,6,3,DL_EnglishEdition_Remastered_Guitar,0.9998557567596436,1
59,100,0.5818181818181818,364,0,46,DL_EnglishEdition_Remastered_Guitar,6,9,DL_EnglishEdition_Remastered_Guitar,0.3011203706264496,0
54,100,0.2,673,1,46,DL_EnglishEdition_Remastered_Guitar,6,3,DL_EnglishEdition_Remastered_Guitar,0.3053465485572815,0
59,100,0.2772727272727273,823,0,46,DL_EnglishEdition_Remastered_Guitar,6,4,DL_EnglishEdition_Remastered_Guitar,0.305397629737854,0
59,100,0.2409090909090909,53,1,47,DL_EnglishEdition_Remastered_Guitar,6,4,DL_EnglishEdition_Remastered_Guitar,0.9997968077659607,1
66,100,0.17727272727272728,448,1,47,DL_EnglishEdition_Remastered_Guitar,6,3,DL_EnglishEdition_Remastered_Guitar,0.13074228167533875,0
54,100,0.2818181818181818,506,0,47,DL_EnglishEdition_Remastered_Guitar,6,5,DL_EnglishEdition_Remastered_Guitar,0.12090615183115005,0
59,100,0.2409090909090909,584,0,47,DL_EnglishEdition_Remastered_Guitar,6,4,DL_EnglishEdition_Remastered_Guitar,0.1360025703907013,0
59,100,0.5181818181818182,735,0,47,DL_EnglishEdition_Remastered_Guitar,6,8,DL_EnglishEdition_Remastered_Guitar,0.1401076465845108,0
54,100,0.23636363636363636,853,0,47,DL_EnglishEdition_Remastered_Guitar,6,4,DL_EnglishEdition_Remastered_Guitar,0.13760565221309662,0
59,100,1.0,31,1,48,DL_EnglishEdition_Remastered_Guitar,6,15,DL_EnglishEdition_Remastered_Guitar,0.9995255470275879,1
59,100,0.2409090909090909,748,1,48,DL_EnglishEdition_Remastered_Guitar,6,4,DL_EnglishEdition_Remastered_Guitar,0.5789890885353088,0
59,100,0.13636363636363635,150,1,49,DL_EnglishEdition_Remastered_Guitar,6,2,DL_EnglishEdition_Remastered_Guitar,0.9998055100440979,1
54,100,0.3,215,0,49,DL_EnglishEdition_Remastered_Guitar,6,5,DL_EnglishEdition_Remastered_Guitar,0.12051930278539658,0
54,100,0.21818181818181817,286,0,49,DL_EnglishEdition_Remastered_Guitar,6,3,DL_EnglishEdition_Remastered_Guitar,0.12372647970914841,0
59,100,0.4772727272727273,568,1,49,DL_EnglishEdition_Remastered_Guitar,6,8,DL_EnglishEdition_Remastered_Guitar,0.13140621781349182,0
59,100,0.17727272727272728,678,0,49,DL_EnglishEdition_Remastered_Guitar,6,3,DL_EnglishEdition_Remastered_Guitar,0.14751727879047394,0
59,100,0.3,774,0,49,DL_EnglishEdition_Remastered_Guitar,6,5,DL_EnglishEdition_Remastered_Guitar,0.13559330999851227,0
59,100,0.18181818181818182,48,1,50,DL_EnglishEdition_Remastered_Guitar,6,3,DL_EnglishEdition_Remastered_Guitar,0.9998511075973511,1
59,100,0.5818181818181818,364,1,50,DL_EnglishEdition_Remastered_Guitar,6,9,DL_EnglishEdition_Remastered_Guitar,0.30448514223098755,0
59,100,0.17727272727272728,545,0,50,DL_EnglishEdition_Remastered_Guitar,6,3,DL_EnglishEdition_Remastered_Guitar,0.30496615171432495,0
59,100,0.7,735,0,50,DL_EnglishEdition_Remastered_Guitar,6,11,DL_EnglishEdition_Remastered_Guitar,0.3043099045753479,0
52,100,0.7818181818181819,26,1,51,DL_EnglishEdition_Remastered_Guitar,6,13,DL_EnglishEdition_Remastered_Guitar,0.9995835423469543,1
54,100,0.2590909090909091,783,1,51,DL_EnglishEdition_Remastered_Guitar,6,4,DL_EnglishEdition_Remastered_Guitar,0.5582769513130188,0
59,100,0.6409090909090909,26,1,52,DL_EnglishEdition_Remastered_Guitar,6,10,DL_EnglishEdition_Remastered_Guitar,0.999813973903656,1
54,100,0.23636363636363636,171,0,52,DL_EnglishEdition_Remastered_Guitar,6,4,DL_EnglishEdition_Remastered_Guitar,0.22857259213924408,0
54,100,0.7181818181818181,308,0,52,DL_EnglishEdition_Remastered_Guitar,6,11,DL_EnglishEdition_Remastered_Guitar,0.1914864331483841,0
54,100,0.3409090909090909,681,1,52,DL_EnglishEdition_Remastered_Guitar,6,5,DL_EnglishEdition_Remastered_Guitar,0.23076757788658142,0
59,100,0.11818181818181818,823,0,52,DL_EnglishEdition_Remastered_Guitar,6,2,DL_EnglishEdition_Remastered_Guitar,0.2132311910390854,0
59,100,0.11818181818181818,198,1,53,DL_EnglishEdition_Remastered_Guitar,6,2,DL_EnglishEdition_Remastered_Guitar,0.9998602867126465,1
52,100,0.4818181818181818,334,0,53,DL_EnglishEdition_Remastered_Guitar,6,8,DL_EnglishEdition_Remastered_Guitar,0.3160759508609772,0
54,100,0.3409090909090909,735,1,53,DL_EnglishEdition_Remastered_Guitar,6,5,DL_EnglishEdition_Remastered_Guitar,0.28901582956314087,0
59,100,0.5,875,0,53,DL_EnglishEdition_Remastered_Guitar,6,8,DL_EnglishEdition_Remastered_Guitar,0.3013125956058502,0
54,100,0.18181818181818182,110,1,54,DL_EnglishEdition_Remastered_Guitar,6,3,DL_EnglishEdition_Remastered_Guitar,0.9998495578765869,1
54,100,0.2590909090909091,153,0,54,DL_EnglishEdition_Remastered_Guitar,6,4,DL_EnglishEdition_Remastered_Guitar,0.3236750662326813,0
59,100,0.7,536,1,54,DL_EnglishEdition_Remastered_Guitar,6,11,DL_EnglishEdition_Remastered_Guitar,0.275800496339798,0
54,100,0.2409090909090909,708,0,54,DL_EnglishEdition_Remastered_Guitar,6,4,DL_EnglishEdition_Remastered_Guitar,0.32867616415023804,0
59,100,0.2,78,1,55,DL_EnglishEdition_Remastered_Guitar,6,3,DL_EnglishEdition_Remastered_Guitar,0.9997734427452087,1
54,100,0.1,141,0,55,DL_EnglishEdition_Remastered_Guitar,6,2,DL_EnglishEdition_Remastered_Guitar,0.07912099361419678,0
54,100,0.2409090909090909,198,0,55,DL_EnglishEdition_Remastered_Guitar,6,4,DL_EnglishEdition_Remastered_Guitar,0.0745055228471756,0
66,100,0.2,373,0,55,DL_EnglishEdition_Remastered_Guitar,6,3,DL_EnglishEdition_Remastered_Guitar,0.07829172164201736,0
59,100,0.35909090909090907,536,0,55,DL_EnglishEdition_Remastered_Guitar,6,6,DL_EnglishEdition_Remastered_Guitar,0.08700015395879745,0
59,100,0.9590909090909091,651,0,55,DL_EnglishEdition_Remastered_Guitar,6,15,DL_EnglishEdition_Remastered_Guitar,0.09132982045412064,0
54,100,0.1,861,0,55,DL_EnglishEdition_Remastered_Guitar,6,2,DL_EnglishEdition_Remastered_Guitar,0.09842406958341599,0
54,100,0.35909090909090907,40,1,56,DL_EnglishEdition_Remastered_Guitar,6,6,DL_EnglishEdition_Remastered_Guitar,0.9998227953910828,1
54,100,0.5227272727272727,166,0,56,DL_EnglishEdition_Remastered_Guitar,6,8,DL_EnglishEdition_Remastered_Guitar,0.21207955479621887,0
56,100,0.21818181818181817,633,1,56,DL_EnglishEdition_Remastered_Guitar,6,3,DL_EnglishEdition_Remastered_Guitar,0.2125115990638733,0
56,100,0.33636363636363636,700,0,56,DL_EnglishEdition_Remastered_Guitar,6,5,DL_EnglishEdition_Remastered_Guitar,0.20800206065177917,0
56,100,0.5636363636363636,818,0,56,DL_EnglishEdition_Remastered_Guitar,6,9,DL_EnglishEdition_Remastered_Guitar,0.20708203315734863,0
63,100,0.2409090909090909,158,1,57,DL_EnglishEdition_Remastered_Guitar,6,4,DL_EnglishEdition_Remastered_Guitar,0.999825656414032,1
56,100,0.1590909090909091,295,0,57,DL_EnglishEdition_Remastered_Guitar,6,3,DL_EnglishEdition_Remastered_Guitar,0.4178941249847412,0
59,100,0.42272727272727273,774,1,57,DL_EnglishEdition_Remastered_Guitar,6,7,DL_EnglishEdition_Remastered_Guitar,0.42408978939056396,0
54,100,0.1409090909090909,254,1,58,DL_EnglishEdition_Remastered_Guitar,6,2,DL_EnglishEdition_Remastered_Guitar,0.9998570680618286,1
54,100,0.16363636363636364,531,1,58,DL_EnglishEdition_Remastered_Guitar,6,3,DL_EnglishEdition_Remastered_Guitar,0.31723594665527344,0
54,100,0.22272727272727272,628,0,58,DL_EnglishEdition_Remastered_Guitar,6,4,DL_EnglishEdition_Remastered_Guitar,0.2896442115306854,0
54,100,0.1590909090909091,703,0,58,DL_EnglishEdition_Remastered_Guitar,6,3,DL_EnglishEdition_Remastered_Guitar,0.30640238523483276,0
59,100,0.21818181818181817,31,1,59,DL_EnglishEdition_Remastered_Guitar,6,3,DL_EnglishEdition_Remastered_Guitar,0.9998007416725159,1
59,100,0.2590909090909091,141,0,59,DL_EnglishEdition_Remastered_Guitar,6,4,DL_EnglishEdition_Remastered_Guitar,0.13030898571014404,0
59,100,0.4409090909090909,316,0,59,DL_EnglishEdition_Remastered_Guitar,6,7,DL_EnglishEdition_Remastered_Guitar,0.12590862810611725,0
66,100,0.3,531,0,59,DL_EnglishEdition_Remastered_Guitar,6,5,DL_EnglishEdition_Remastered_Guitar,0.14475677907466888,0
66,100,0.17727272727272728,603,0,59,DL_EnglishEdition_Remastered_Guitar,6,3,DL_EnglishEdition_Remastered_Guitar,0.15409450232982635,0
66,100,1.259090909090909,778,0,59,DL_EnglishEdition_Remastered_Guitar,6,15,DL_EnglishEdition_Remastered_Guitar,0.12679415941238403,0
61,100,0.5181818181818182,198,1,60,DL_EnglishEdition_Remastered_Guitar,6,8,DL_EnglishEdition_Remastered_Guitar,0.9997997879981995,1
66,100,0.21818181818181817,383,0,60,DL_EnglishEdition_Remastered_Guitar,6,3,DL_EnglishEdition_Remastered_Guitar,0.12560901045799255,0
61,100,0.6181818181818182,440,0,60,DL_EnglishEdition_Remastered_Guitar,6,10,DL_EnglishEdition_Remastered_Guitar,0.12112615257501602,0
54,100,0.2409090909090909,641,0,60,DL_EnglishEdition_Remastered_Guitar,6,4,DL_EnglishEdition_Remastered_Guitar,0.14535431563854218,0
64,100,0.12272727272727273,729,0,60,DL_EnglishEdition_Remastered_Guitar,6,2,DL_EnglishEdition_Remastered_Guitar,0.15352082252502441,0
66,100,0.5409090909090909,836,0,60,DL_EnglishEdition_Remastered_Guitar,6,9,DL_EnglishEdition_Remastered_Guitar,0.12609295547008514,0
66,100,0.5409090909090909,78,1,61,DL_EnglishEdition_Remastered_Guitar,6,9,DL_EnglishEdition_Remastered_Guitar,0.9997958540916443,1
66,100,0.2590909090909091,220,0,61,DL_EnglishEdition_Remastered_Guitar,6,4,DL_EnglishEdition_Remastered_Guitar,0.13231277465820312,0
59,100,0.1,325,0,61,DL_EnglishEdition_Remastered_Guitar,6,2,DL_EnglishEdition_Remastered_Guitar,0.1249825656414032,0
66,100,0.5590909090909091,474,0,61,DL_EnglishEdition_Remastered_Guitar,6,9,DL_EnglishEdition_Remastered_Guitar,0.12916311621665955,0
52,100,0.18181818181818182,606,0,61,DL_EnglishEdition_Remastered_Guitar,6,3,DL_EnglishEdition_Remastered_Guitar,0.16331684589385986,0
52,100,0.9409090909090909,871,1,61,DL_EnglishEdition_Remastered_Guitar,6,15,DL_EnglishEdition_Remastered_Guitar,0.12777629494667053,0
52,100,0.1409090909090909,211,1,62,DL_EnglishEdition_Remastered_Guitar,6,2,DL_EnglishEdition_Remastered_Guitar,0.9998334646224976,1
52,100,0.6,251,0,62,DL_EnglishEdition_Remastered_Guitar,6,10,DL_EnglishEdition_Remastered_Guitar,0.402435302734375,0
59,100,0.6,641,1,62,DL_EnglishEdition_Remastered_Guitar,6,10,DL_EnglishEdition_Remastered_Guitar,0.41605889797210693,0
59,100,0.6,18,1,63,DL_EnglishEdition_Remastered_Guitar,6,10,DL_EnglishEdition_Remastered_Guitar,0.9998086094856262,1
54,100,0.1590909090909091,606,1,63,DL_EnglishEdition_Remastered_Guitar,6,3,DL_EnglishEdition_Remastered_Guitar,0.4451875686645508,0
56,100,0.9818181818181818,694,0,63,DL_EnglishEdition_Remastered_Guitar,6,15,DL_EnglishEdition_Remastered_Guitar,0.4124555289745331,0
56,100,0.8409090909090909,66,1,64,DL_EnglishEdition_Remastered_Guitar,6,13,DL_EnglishEdition_Remastered_Guitar,0.9997838139533997,1
52,100,0.8818181818181818,320,1,64,DL_EnglishEdition_Remastered_Guitar,6,14,DL_EnglishEdition_Remastered_Guitar,0.127684086561203,0
59,100,0.22272727272727272,519,0,64,DL_EnglishEdition_Remastered_Guitar,6,4,DL_EnglishEdition_Remastered_Guitar,0.129243403673172,0
59,100,0.8590909090909091,590,0,64,DL_EnglishEdition_Remastered_Guitar,6,14,DL_EnglishEdition_Remastered_Guitar,0.13268375396728516,0
59,100,0.12272727272727273,817,0,64,DL_EnglishEdition_Remastered_Guitar,6,2,DL_EnglishEdition_Remastered_Guitar,0.16263166069984436,0
54,100,0.4409090909090909,857,0,64,DL_EnglishEdition_Remastered_Guitar,6,7,DL_EnglishEdition_Remastered_Guitar,0.1371832937002182,0
59,100,0.32272727272727275,157,1,65,DL_EnglishEdition_Remastered_Guitar,6,5,DL_EnglishEdition_Remastered_Guitar,0.9998323917388916,1
59,100,0.4409090909090909,255,0,65,DL_EnglishEdition_Remastered_Guitar,6,7,DL_EnglishEdition_Remastered_Guitar,0.2131926715373993,0
54,100,0.2,480,0,65,DL_EnglishEdition_Remastered_Guitar,6,3,DL_EnglishEdition_Remastered_Guitar,0.2124418467283249,0
54,100,0.12272727272727273,597,0,65,DL_EnglishEdition_Remastered_Guitar,6,2,DL_EnglishEdition_Remastered_Guitar,0.2111836075782776,0
54,100,0.5772727272727273,756,0,65,DL_EnglishEdition_Remastered_Guitar,6,9,DL_EnglishEdition_Remastered_Guitar,0.20256908237934113,0
54,100,0.5409090909090909,132,1,66,DL_EnglishEdition_Remastered_Guitar,6,9,DL_EnglishEdition_Remastered_Guitar,0.9997528195381165,1
54,100,0.23636363636363636,326,0,66,DL_EnglishEdition_Remastered_Guitar,6,4,DL_EnglishEdition_Remastered_Guitar,0.0827513262629509,0
54,100,0.2,396,0,66,DL_EnglishEdition_Remastered_Guitar,6,3,DL_EnglishEdition_Remastered_Guitar,0.07515761256217957,0
54,100,0.5181818181818182,527,0,66,DL_EnglishEdition_Remastered_Guitar,6,8,DL_EnglishEdition_Remastered_Guitar,0.07654464989900589,0
52,100,0.18181818181818182,660,0,66,DL_EnglishEdition_Remastered_Guitar,6,3,DL_EnglishEdition_Remastered_Guitar,0.10255397856235504,0
59,100,0.1409090909090909,726,0,66,DL_EnglishEdition_Remastered_Guitar,6,2,DL_EnglishEdition_Remastered_Guitar,0.09661073982715607,0
59,100,0.5181818181818182,779,0,66,DL_EnglishEdition_Remastered_Guitar,6,8,DL_EnglishEdition_Remastered_Guitar,0.08774008601903915,0
52,100,0.36363636363636365,47,1,67,DL_EnglishEdition_Remastered_Guitar,6,6,DL_EnglishEdition_Remastered_Guitar,0.9998016953468323,1
59,100,0.2,189,0,67,DL_EnglishEdition_Remastered_Guitar,6,3,DL_EnglishEdition_Remastered_Guitar,0.12935106456279755,0
54,100,0.18181818181818182,246,0,67,DL_EnglishEdition_Remastered_Guitar,6,3,DL_EnglishEdition_Remastered_Guitar,0.12286829948425293,0
54,100,0.17727272727272728,294,0,67,DL_EnglishEdition_Remastered_Guitar,6,3,DL_EnglishEdition_Remastered_Guitar,0.13781806826591492,0
54,100,0.22272727272727272,760,1,67,DL_EnglishEdition_Remastered_Guitar,6,4,DL_EnglishEdition_Remastered_Guitar,0.14387039840221405,0
54,100,0.3,823,0,67,DL_EnglishEdition_Remastered_Guitar,6,5,DL_EnglishEdition_Remastered_Guitar,0.12853464484214783,0
56,100,2.040909090909091,466,1,68,DL_EnglishEdition_Remastered_Guitar,6,15,DL_EnglishEdition_Remastered_Guitar,0.9904637336730957,0
54,100,0.13636363636363635,40,1,69,DL_EnglishEdition_Remastered_Guitar,6,2,DL_EnglishEdition_Remastered_Guitar,0.9997532963752747,1
52,100,1.7181818181818183,110,0,69,DL_EnglishEdition_Remastered_Guitar,6,15,DL_EnglishEdition_Remastered_Guitar,0.06919211894273758,0
52,100,0.1590909090909091,527,1,69,DL_EnglishEdition_Remastered_Guitar,6,3,DL_EnglishEdition_Remastered_Guitar,0.090191550552845,0
54,100,0.1590909090909091,616,0,69,DL_EnglishEdition_Remastered_Guitar,6,3,DL_EnglishEdition_Remastered_Guitar,0.08456707000732422,0
54,100,0.2772727272727273,677,0,69,DL_EnglishEdition_Remastered_Guitar,6,4,DL_EnglishEdition_Remastered_Guitar,0.09587914496660233,0
61,100,0.12272727272727273,752,0,69,DL_EnglishEdition_Remastered_Guitar,6,2,DL_EnglishEdition_Remastered_Guitar,0.10422533005475998,0
61,100,0.35909090909090907,783,0,69,DL_EnglishEdition_Remastered_Guitar,6,6,DL_EnglishEdition_Remastered_Guitar,0.08799252659082413,0
54,100,0.6590909090909091,9,1,70,DL_EnglishEdition_Remastered_Guitar,6,11,DL_EnglishEdition_Remastered_Guitar,0.999783456325531,1
59,100,0.16363636363636364,179,0,70,DL_EnglishEdition_Remastered_Guitar,6,3,DL_EnglishEdition_Remastered_Guitar,0.14651796221733093,0
59,100,0.1,453,1,70,DL_EnglishEdition_Remastered_Guitar,6,2,DL_EnglishEdition_Remastered_Guitar,0.12923921644687653,0
54,100,0.3,590,0,70,DL_EnglishEdition_Remastered_Guitar,6,5,DL_EnglishEdition_Remastered_Guitar,0.14235270023345947,0
54,100,0.2409090909090909,739,0,70,DL_EnglishEdition_Remastered_Guitar,6,4,DL_EnglishEdition_Remastered_Guitar,0.1515447348356247,0
52,100,1.7818181818181817,796,0,70,DL_EnglishEdition_Remastered_Guitar,6,15,DL_EnglishEdition_Remastered_Guitar,0.12288491427898407,0
52,100,0.2590909090909091,316,1,71,DL_EnglishEdition_Remastered_Guitar,6,4,DL_EnglishEdition_Remastered_Guitar,0.9998559951782227,1
52,100,0.740909090909091,399,0,71,DL_EnglishEdition_Remastered_Guitar,6,12,DL_EnglishEdition_Remastered_Guitar,0.30218079686164856,0
52,100,0.4409090909090909,597,0,71,DL_EnglishEdition_Remastered_Guitar,6,7,DL_EnglishEdition_Remastered_Guitar,0.29983389377593994,0
52,100,0.6181818181818182,713,0,71,DL_EnglishEdition_Remastered_Guitar,6,10,DL_EnglishEdition_Remastered_Guitar,0.30687716603279114,0
54,100,0.1,210,1,72,DL_EnglishEdition_Remastered_Guitar,6,2,DL_EnglishEdition_Remastered_Guitar,0.9998458623886108,1
59,100,0.17727272727272728,457,1,72,DL_EnglishEdition_Remastered_Guitar,6,3,DL_EnglishEdition_Remastered_Guitar,0.20131072402000427,0
59,100,0.2,509,0,72,DL_EnglishEdition_Remastered_Guitar,6,3,DL_EnglishEdition_Remastered_Guitar,0.19723641872406006,0
54,100,0.4590909090909091,612,0,72,DL_EnglishEdition_Remastered_Guitar,6,7,DL_EnglishEdition_Remastered_Guitar,0.19901853799819946,0
54,100,0.1590909090909091,716,0,72,DL_EnglishEdition_Remastered_Guitar,6,3,DL_EnglishEdition_Remastered_Guitar,0.20873184502124786,0
54,100,0.2818181818181818,166,1,73,DL_EnglishEdition_Remastered_Guitar,6,5,DL_EnglishEdition_Remastered_Guitar,0.999843955039978,1
56,100,0.6409090909090909,242,0,73,DL_EnglishEdition_Remastered_Guitar,6,10,DL_EnglishEdition_Remastered_Guitar,0.30302509665489197,0
56,100,0.7818181818181819,506,1,73,DL_EnglishEdition_Remastered_Guitar,6,13,DL_EnglishEdition_Remastered_Guitar,0.299898624420166,0
52,100,0.1590909090909091,770,1,73,DL_EnglishEdition_Remastered_Guitar,6,3,DL_EnglishEdition_Remastered_Guitar,0.33307740092277527,0
59,100,0.11818181818181818,30,1,74,DL_EnglishEdition_Remastered_Guitar,6,2,DL_EnglishEdition_Remastered_Guitar,0.9997721314430237,1
52,100,0.3409090909090909,153,0,74,DL_EnglishEdition_Remastered_Guitar,6,5,DL_EnglishEdition_Remastered_Guitar,0.08101555705070496,0
52,100,0.1,233,0,74,DL_EnglishEdition_Remastered_Guitar,6,2,DL_EnglishEdition_Remastered_Guitar,0.07409199327230453,0
59,100,0.12272727272727273,255,0,74,DL_EnglishEdition_Remastered_Guitar,6,2,DL_EnglishEdition_Remastered_Guitar,0.07747811079025269,0
52,100,0.2,303,0,74,DL_EnglishEdition_Remastered_Guitar,6,3,DL_EnglishEdition_Remastered_Guitar,0.08969595283269882,0
54,100,0.2590909090909091,783,1,74,DL_EnglishEdition_Remastered_Guitar,6,4,DL_EnglishEdition_Remastered_Guitar,0.09047593921422958,0
54,100,0.17727272727272728,876,0,74,DL_EnglishEdition_Remastered_Guitar,6,3,DL_EnglishEdition_Remastered_Guitar,0.08926420658826828,0
54,100,0.5227272727272727,56,1,75,DL_EnglishEdition_Remastered_Guitar,6,8,DL_EnglishEdition_Remastered_Guitar,0.9997956156730652,1
54,100,0.3,202,0,75,DL_EnglishEdition_Remastered_Guitar,6,5,DL_EnglishEdition_Remastered_Guitar,0.13319949805736542,0
54,100,0.18181818181818182,289,0,75,DL_EnglishEdition_Remastered_Guitar,6,3,DL_EnglishEdition_Remastered_Guitar,0.12713505327701569,0
54,100,0.2772727272727273,404,0,75,DL_EnglishEdition_Remastered_Guitar,6,4,DL_EnglishEdition_Remastered_Guitar,0.14066775143146515,0
54,100,0.7181818181818181,572,0,75,DL_EnglishEdition_Remastered_Guitar,6,11,DL_EnglishEdition_Remastered_Guitar,0.13918152451515198,0
54,100,0.4409090909090909,849,1,75,DL_EnglishEdition_Remastered_Guitar,6,7,DL_EnglishEdition_Remastered_Guitar,0.13953185081481934,0
54,100,0.5,92,1,76,DL_EnglishEdition_Remastered_Guitar,6,8,DL_EnglishEdition_Remastered_Guitar,0.9997860789299011,1
59,100,0.4590909090909091,242,0,76,DL_EnglishEdition_Remastered_Guitar,6,7,DL_EnglishEdition_Remastered_Guitar,0.12850527465343475,0
54,100,0.2409090909090909,365,0,76,DL_EnglishEdition_Remastered_Guitar,6,4,DL_EnglishEdition_Remastered_Guitar,0.13068419694900513,0
54,100,0.5181818181818182,436,0,76,DL_EnglishEdition_Remastered_Guitar,6,8,DL_EnglishEdition_Remastered_Guitar,0.1331806480884552,0
59,100,0.4818181818181818,629,0,76,DL_EnglishEdition_Remastered_Guitar,6,8,DL_EnglishEdition_Remastered_Guitar,0.14986836910247803,0
54,100,0.22272727272727272,739,0,76,DL_EnglishEdition_Remastered_Guitar,6,4,DL_EnglishEdition_Remastered_Guitar,0.14441530406475067,0
59,100,0.3181818181818182,17,1,77,DL_EnglishEdition_Remastered_Guitar,6,5,DL_EnglishEdition_Remastered_Guitar,0.9997615218162537,1
59,100,0.13636363636363635,216,0,77,DL_EnglishEdition_Remastered_Guitar,6,2,DL_EnglishEdition_Remastered_Guitar,0.08281280100345612,0
54,100,0.12272727272727273,255,0,77,DL_EnglishEdition_Remastered_Guitar,6,2,DL_EnglishEdition_Remastered_Guitar,0.0750194862484932,0
54,100,0.11818181818181818,303,0,77,DL_EnglishEdition_Remastered_Guitar,6,2,DL_EnglishEdition_Remastered_Guitar,0.0798344761133194,0
52,100,0.6,383,0,77,DL_EnglishEdition_Remastered_Guitar,6,10,DL_EnglishEdition_Remastered_Guitar,0.08669121563434601,0
59,100,0.12272727272727273,540,0,77,DL_EnglishEdition_Remastered_Guitar,6,2,DL_EnglishEdition_Remastered_Guitar,0.10449553281068802,0
52,100,0.9181818181818182,637,0,77,DL_EnglishEdition_Remastered_Guitar,6,15,DL_EnglishEdition_Remastered_Guitar,0.0848662257194519,0
54,100,0.21818181818181817,150,1,78,DL_EnglishEdition_Remastered_Guitar,6,3,DL_EnglishEdition_Remastered_Guitar,0.999833345413208,1
59,100,0.4,250,0,78,DL_EnglishEdition_Remastered_Guitar,6,6,DL_EnglishEdition_Remastered_Guitar,0.20524419844150543,0
54,100,0.2818181818181818,475,0,78,DL_EnglishEdition_Remastered_Guitar,6,5,DL_EnglishEdition_Remastered_Guitar,0.20314833521842957,0
59,100,0.8363636363636363,612,0,78,DL_EnglishEdition_Remastered_Guitar,6,13,DL_EnglishEdition_Remastered_Guitar,0.19415216147899628,0
54,100,0.18181818181818182,817,0,78,DL_EnglishEdition_Remastered_Guitar,6,3,DL_EnglishEdition_Remastered_Guitar,0.22167529165744781,0
54,100,0.11818181818181818,119,1,79,DL_EnglishEdition_Remastered_Guitar,6,2,DL_EnglishEdition_Remastered_Guitar,0.999771773815155,1
54,100,0.2772727272727273,193,0,79,DL_EnglishEdition_Remastered_Guitar,6,4,DL_EnglishEdition_Remastered_Guitar,0.07610395550727844,0
59,100,0.2409090909090909,263,0,79,DL_EnglishEdition_Remastered_Guitar,6,4,DL_EnglishEdition_Remastered_Guitar,0.0737546905875206,0
54,100,0.1409090909090909,320,0,79,DL_EnglishEdition_Remastered_Guitar,6,2,DL_EnglishEdition_Remastered_Guitar,0.08083314448595047,0
54,100,0.3409090909090909,365,0,79,DL_EnglishEdition_Remastered_Guitar,6,5,DL_EnglishEdition_Remastered_Guitar,0.08862097561359406,0
59,100,0.17727272727272728,449,0,79,DL_EnglishEdition_Remastered_Guitar,6,3,DL_EnglishEdition_Remastered_Guitar,0.09837020188570023,0
59,100,0.4636363636363636,729,1,79,DL_EnglishEdition_Remastered_Guitar,6,7,DL_EnglishEdition_Remastered_Guitar,0.08845620602369308,0
52,100,0.6409090909090909,79,1,80,DL_EnglishEdition_Remastered_Guitar,6,10,DL_EnglishEdition_Remastered_Guitar,0.9998466968536377,1
52,100,0.2818181818181818,409,1,80,DL_EnglishEdition_Remastered_Guitar,6,5,DL_EnglishEdition_Remastered_Guitar,0.34057939052581787,0
54,100,0.3181818181818182,747,1,80,DL_EnglishEdition_Remastered_Guitar,6,5,DL_EnglishEdition_Remastered_Guitar,0.2863079607486725,0
54,100,0.11818181818181818,823,0,80,DL_EnglishEdition_Remastered_Guitar,6,2,DL_EnglishEdition_Remastered_Guitar,0.3078807294368744,0
54,100,0.5227272727272727,3,1,81,DL_EnglishEdition_Remastered_Guitar,6,8,DL_EnglishEdition_Remastered_Guitar,0.9997871518135071,1
59,100,0.2409090909090909,163,0,81,DL_EnglishEdition_Remastered_Guitar,6,4,DL_EnglishEdition_Remastered_Guitar,0.132545605301857,0
54,100,0.6,396,1,81,DL_EnglishEdition_Remastered_Guitar,6,10,DL_EnglishEdition_Remastered_Guitar,0.11629655212163925,0
59,100,0.12272727272727273,629,1,81,DL_EnglishEdition_Remastered_Guitar,6,2,DL_EnglishEdition_Remastered_Guitar,0.14630405604839325,0
59,100,0.4,700,0,81,DL_EnglishEdition_Remastered_Guitar,6,6,DL_EnglishEdition_Remastered_Guitar,0.14117932319641113,0
59,100,0.21818181818181817,853,0,81,DL_EnglishEdition_Remastered_Guitar,6,3,DL_EnglishEdition_Remastered_Guitar,0.14014442265033722,0
54,100,0.3,30,1,82,DL_EnglishEdition_Remastered_Guitar,6,5,DL_EnglishEdition_Remastered_Guitar,0.9997614026069641,1
52,100,0.4409090909090909,163,0,82,DL_EnglishEdition_Remastered_Guitar,6,7,DL_EnglishEdition_Remastered_Guitar,0.07920008152723312,0
59,100,0.35909090909090907,276,0,82,DL_EnglishEdition_Remastered_Guitar,6,6,DL_EnglishEdition_Remastered_Guitar,0.07128728926181793,0
52,100,0.4818181818181818,430,0,82,DL_EnglishEdition_Remastered_Guitar,6,8,DL_EnglishEdition_Remastered_Guitar,0.08247793465852737,0
52,100,0.11818181818181818,660,0,82,DL_EnglishEdition_Remastered_Guitar,6,2,DL_EnglishEdition_Remastered_Guitar,0.09331861138343811,0
52,100,0.1590909090909091,713,0,82,DL_EnglishEdition_Remastered_Guitar,6,3,DL_EnglishEdition_Remastered_Guitar,0.09513255953788757,0
54,100,0.17727272727272728,832,0,82,DL_EnglishEdition_Remastered_Guitar,6,3,DL_EnglishEdition_Remastered_Guitar,0.08373451232910156,0
54,100,0.16363636363636364,3,1,83,DL_EnglishEdition_Remastered_Guitar,6,3,DL_EnglishEdition_Remastered_Guitar,0.9998365640640259,1
54,100,0.3409090909090909,123,0,83,DL_EnglishEdition_Remastered_Guitar,6,5,DL_EnglishEdition_Remastered_Guitar,0.20363004505634308,0
54,100,0.18181818181818182,312,0,83,DL_EnglishEdition_Remastered_Guitar,6,3,DL_EnglishEdition_Remastered_Guitar,0.20497676730155945,0
54,100,0.41818181818181815,426,0,83,DL_EnglishEdition_Remastered_Guitar,6,7,DL_EnglishEdition_Remastered_Guitar,0.20646555721759796,0
54,100,0.4409090909090909,713,1,83,DL_EnglishEdition_Remastered_Guitar,6,7,DL_EnglishEdition_Remastered_Guitar,0.2039192169904709,0
54,100,0.2818181818181818,110,1,84,DL_EnglishEdition_Remastered_Guitar,6,5,DL_EnglishEdition_Remastered_Guitar,0.9998466968536377,1
54,100,0.1590909090909091,347,1,84,DL_EnglishEdition_Remastered_Guitar,6,3,DL_EnglishEdition_Remastered_Guitar,0.33104589581489563,0
59,100,0.4818181818181818,386,0,84,DL_EnglishEdition_Remastered_Guitar,6,8,DL_EnglishEdition_Remastered_Guitar,0.2926265299320221,0
54,100,0.8227272727272728,496,0,84,DL_EnglishEdition_Remastered_Guitar,6,13,DL_EnglishEdition_Remastered_Guitar,0.3054859936237335,0
54,100,0.17727272727272728,470,1,85,DL_EnglishEdition_Remastered_Guitar,6,3,DL_EnglishEdition_Remastered_Guitar,0.9931970834732056,1
56,100,0.12272727272727273,575,1,4,_Remix_Guitar,6,2,_Remix_Guitar,0.9927905797958374,0
58,100,0.18181818181818182,66,1,5,_Remix_Guitar,6,3,_Remix_Guitar,0.9997594952583313,1
58,100,0.1,128,0,5,_Remix_Guitar,6,2,_Remix_Guitar,0.08081856369972229,0
58,100,0.12272727272727273,232,0,5,_Remix_Guitar,6,2,_Remix_Guitar,0.07623496651649475,0
56,100,0.13636363636363635,391,0,5,_Remix_Guitar,6,2,_Remix_Guitar,0.08225493878126144,0
63,100,0.12272727272727273,431,0,5,_Remix_Guitar,6,2,_Remix_Guitar,0.09103397279977798,0
56,100,0.2590909090909091,550,0,5,_Remix_Guitar,6,4,_Remix_Guitar,0.09760072082281113,0
65,100,0.1409090909090909,778,0,5,_Remix_Guitar,6,2,_Remix_Guitar,0.08817808330059052,0
58,100,0.22272727272727272,12,1,6,_Remix_Guitar,6,4,_Remix_Guitar,0.9998182654380798,1
65,100,0.38181818181818183,286,1,6,_Remix_Guitar,6,6,_Remix_Guitar,0.22338321805000305,0
55,100,0.2,399,0,6,_Remix_Guitar,6,3,_Remix_Guitar,0.19838501513004303,0
55,100,0.21818181818181817,493,0,6,_Remix_Guitar,6,3,_Remix_Guitar,0.21218396723270416,0
55,100,0.13636363636363635,678,0,6,_Remix_Guitar,6,2,_Remix_Guitar,0.2088012993335724,0
70,100,0.1409090909090909,342,1,7,_Remix_Guitar,6,2,_Remix_Guitar,0.9998461008071899,1
55,100,0.1409090909090909,581,1,7,_Remix_Guitar,6,2,_Remix_Guitar,0.3259068727493286,0
55,100,0.1,810,0,7,_Remix_Guitar,6,2,_Remix_Guitar,0.29760485887527466,0
63,100,0.22272727272727272,871,0,7,_Remix_Guitar,6,4,_Remix_Guitar,0.3065931797027588,0
56,100,0.4818181818181818,254,1,8,_Remix_Guitar,6,8,_Remix_Guitar,0.9995986819267273,1
58,100,0.11818181818181818,814,1,8,_Remix_Guitar,6,2,_Remix_Guitar,0.5469016432762146,0
55,100,0.11818181818181818,22,1,9,_Remix_Guitar,6,2,_Remix_Guitar,0.993057131767273,1
58,100,0.12272727272727273,553,1,10,_Remix_Guitar,6,2,_Remix_Guitar,0.9925064444541931,0
58,100,0.12272727272727273,101,1,13,_Remix_Guitar,6,2,_Remix_Guitar,0.999609649181366,1
56,100,0.16363636363636364,465,1,13,_Remix_Guitar,6,3,_Remix_Guitar,0.5656160116195679,0
58,100,0.2590909090909091,326,1,14,_Remix_Guitar,6,4,_Remix_Guitar,0.9995678067207336,1
63,100,0.18181818181818182,474,0,14,_Remix_Guitar,6,3,_Remix_Guitar,0.5610119700431824,0
53,100,0.11818181818181818,876,1,15,_Remix_Guitar,6,2,_Remix_Guitar,0.9934822916984558,0
53,100,0.11818181818181818,44,1,16,_Remix_Guitar,6,2,_Remix_Guitar,0.9935042262077332,1
58,100,0.4772727272727273,449,1,18,_Remix_Guitar,6,8,_Remix_Guitar,0.9917632341384888,0
58,100,0.5,246,1,19,_Remix_Guitar,6,8,_Remix_Guitar,0.9995408058166504,1
63,100,0.7,660,1,19,_Remix_Guitar,6,11,_Remix_Guitar,0.5604315400123596,0
58,100,0.41818181818181815,528,1,20,_Remix_Guitar,6,7,_Remix_Guitar,0.9920899868011475,0
58,100,0.18181818181818182,34,1,21,_Remix_Guitar,6,3,_Remix_Guitar,0.9998080134391785,1
58,100,0.1590909090909091,119,0,21,_Remix_Guitar,6,3,_Remix_Guitar,0.4291228652000427,0
58,100,0.41818181818181815,615,1,21,_Remix_Guitar,6,7,_Remix_Guitar,0.4297617971897125,0
56,100,0.1409090909090909,405,1,22,_Remix_Guitar,6,2,_Remix_Guitar,0.999653697013855,1
56,100,0.3,602,0,22,_Remix_Guitar,6,5,_Remix_Guitar,0.5385794639587402,0
53,100,0.18181818181818182,268,1,23,_Remix_Guitar,6,3,_Remix_Guitar,0.9998308420181274,1
58,100,0.21818181818181817,316,0,23,_Remix_Guitar,6,3,_Remix_Guitar,0.40181538462638855,0
58,100,0.1409090909090909,818,1,23,_Remix_Guitar,6,2,_Remix_Guitar,0.4321554899215698,0
58,100,0.2590909090909091,743,1,24,_Remix_Guitar,6,4,_Remix_Guitar,0.992425799369812,0
53,100,0.41818181818181815,52,1,25,_Remix_Guitar,6,7,_Remix_Guitar,0.9998306035995483,1
53,100,0.11818181818181818,206,0,25,_Remix_Guitar,6,2,_Remix_Guitar,0.2193436622619629,0
58,100,0.4,246,0,25,_Remix_Guitar,6,6,_Remix_Guitar,0.18484078347682953,0
53,100,0.18181818181818182,474,0,25,_Remix_Guitar,6,3,_Remix_Guitar,0.2231006771326065,0
58,100,0.11818181818181818,700,0,25,_Remix_Guitar,6,2,_Remix_Guitar,0.20711977779865265,0
58,100,0.3,61,1,26,_Remix_Guitar,6,5,_Remix_Guitar,0.9998284578323364,1
53,100,0.17727272727272728,140,0,26,_Remix_Guitar,6,3,_Remix_Guitar,0.3597571849822998,0
58,100,0.8227272727272728,422,1,26,_Remix_Guitar,6,13,_Remix_Guitar,0.2742210328578949,0
58,100,0.2,849,1,26,_Remix_Guitar,6,3,_Remix_Guitar,0.3350982666015625,0
63,100,0.1590909090909091,88,1,27,_Remix_Guitar,6,3,_Remix_Guitar,0.9998469352722168,1
58,100,0.21818181818181817,281,0,27,_Remix_Guitar,6,3,_Remix_Guitar,0.3121150732040405,0
65,100,0.17727272727272728,633,1,27,_Remix_Guitar,6,3,_Remix_Guitar,0.3155679404735565,0
58,100,0.41818181818181815,822,0,27,_Remix_Guitar,6,7,_Remix_Guitar,0.29961416125297546,0
55,100,0.1409090909090909,113,1,28,_Remix_Guitar,6,2,_Remix_Guitar,0.9996272325515747,1
58,100,0.22272727272727272,752,1,28,_Remix_Guitar,6,4,_Remix_Guitar,0.5420184135437012,0
58,100,0.1409090909090909,131,1,29,_Remix_Guitar,6,2,_Remix_Guitar,0.9995912909507751,1
58,100,0.22272727272727272,320,0,29,_Remix_Guitar,6,4,_Remix_Guitar,0.5513538718223572,0
58,100,0.2,44,1,30,_Remix_Guitar,6,3,_Remix_Guitar,0.999833345413208,1
58,100,0.38181818181818183,285,1,30,_Remix_Guitar,6,6,_Remix_Guitar,0.31430813670158386,0
63,100,0.21818181818181817,567,1,30,_Remix_Guitar,6,3,_Remix_Guitar,0.31702253222465515,0
70,100,0.1,633,0,30,_Remix_Guitar,6,2,_Remix_Guitar,0.32127103209495544,0
58,100,0.1409090909090909,69,1,31,_Remix_Guitar,6,2,_Remix_Guitar,0.9998100399971008,1
56,100,0.2,167,0,31,_Remix_Guitar,6,3,_Remix_Guitar,0.4398725926876068,0
58,100,0.2,796,1,31,_Remix_Guitar,6,3,_Remix_Guitar,0.42437058687210083,0
58,100,0.2409090909090909,311,1,32,_Remix_Guitar,6,4,_Remix_Guitar,0.9998329877853394,1
63,100,0.21818181818181817,391,0,32,_Remix_Guitar,6,3,_Remix_Guitar,0.3420334458351135,0
63,100,0.21818181818181817,678,1,32,_Remix_Guitar,6,3,_Remix_Guitar,0.2984759509563446,0
63,100,0.18181818181818182,783,0,32,_Remix_Guitar,6,3,_Remix_Guitar,0.3156985640525818,0
53,100,0.1590909090909091,743,1,33,_Remix_Guitar,6,3,_Remix_Guitar,0.9996508359909058,1
53,100,0.1409090909090909,804,0,33,_Remix_Guitar,6,2,_Remix_Guitar,0.547166645526886,0
53,100,0.4818181818181818,43,1,34,_Remix_Guitar,6,8,_Remix_Guitar,0.9997639060020447,1
53,100,0.18181818181818182,158,0,34,_Remix_Guitar,6,3,_Remix_Guitar,0.08215857297182083,0
53,100,0.3181818181818182,215,0,34,_Remix_Guitar,6,5,_Remix_Guitar,0.07128185778856277,0
53,100,0.2,295,0,34,_Remix_Guitar,6,3,_Remix_Guitar,0.08220986276865005,0
63,100,0.1,606,1,34,_Remix_Guitar,6,2,_Remix_Guitar,0.09089691191911697,0
60,100,0.32272727272727275,708,0,34,_Remix_Guitar,6,5,_Remix_Guitar,0.09855259209871292,0
53,100,0.5772727272727273,831,0,34,_Remix_Guitar,6,9,_Remix_Guitar,0.08209025859832764,0
53,100,0.1590909090909091,128,1,35,_Remix_Guitar,6,3,_Remix_Guitar,0.9998342990875244,1
58,100,0.1409090909090909,373,1,35,_Remix_Guitar,6,2,_Remix_Guitar,0.39823514223098755,0
58,100,0.2818181818181818,431,0,35,_Remix_Guitar,6,5,_Remix_Guitar,0.4293399155139923,0
58,100,0.21818181818181817,163,1,37,_Remix_Guitar,6,3,_Remix_Guitar,0.999809205532074,1
58,100,0.12272727272727273,584,1,37,_Remix_Guitar,6,2,_Remix_Guitar,0.43119317293167114,0
63,100,0.1409090909090909,770,0,37,_Remix_Guitar,6,2,_Remix_Guitar,0.4367283284664154,0
62,100,0.17727272727272728,185,1,38,_Remix_Guitar,6,3,_Remix_Guitar,0.9998306035995483,1
58,100,0.37727272727272726,448,1,38,_Remix_Guitar,6,6,_Remix_Guitar,0.389305055141449,0
58,100,0.3,536,0,38,_Remix_Guitar,6,5,_Remix_Guitar,0.4338063597679138,0
58,100,0.2,338,1,39,_Remix_Guitar,6,3,_Remix_Guitar,0.9998176693916321,1
58,100,0.2590909090909091,748,1,39,_Remix_Guitar,6,4,_Remix_Guitar,0.4129439890384674,0
56,100,0.1409090909090909,823,0,39,_Remix_Guitar,6,2,_Remix_Guitar,0.44388359785079956,0
58,100,0.16363636363636364,246,1,40,_Remix_Guitar,6,3,_Remix_Guitar,0.9997541308403015,1
53,100,0.18181818181818182,308,0,40,_Remix_Guitar,6,3,_Remix_Guitar,0.08512336760759354,0
65,100,0.18181818181818182,373,0,40,_Remix_Guitar,6,3,_Remix_Guitar,0.07528116554021835,0
58,100,0.2,418,0,40,_Remix_Guitar,6,3,_Remix_Guitar,0.07673909515142441,0
58,100,0.11818181818181818,550,0,40,_Remix_Guitar,6,2,_Remix_Guitar,0.0934295579791069,0
53,100,0.2,655,0,40,_Remix_Guitar,6,3,_Remix_Guitar,0.10119600594043732,0
58,100,0.1590909090909091,703,0,40,_Remix_Guitar,6,3,_Remix_Guitar,0.08741378039121628,0
58,100,0.1590909090909091,496,1,41,_Remix_Guitar,6,3,_Remix_Guitar,0.999584972858429,1
58,100,0.3181818181818182,536,0,41,_Remix_Guitar,6,5,_Remix_Guitar,0.5457140207290649,0
58,100,0.1590909090909091,21,1,42,_Remix_Guitar,6,3,_Remix_Guitar,0.9998134970664978,1
58,100,0.2818181818181818,638,1,42,_Remix_Guitar,6,5,_Remix_Guitar,0.42110317945480347,0
58,100,0.21818181818181817,823,0,42,_Remix_Guitar,6,3,_Remix_Guitar,0.4328995943069458,0
58,100,0.2,179,1,43,_Remix_Guitar,6,3,_Remix_Guitar,0.9995817542076111,1
58,100,0.18181818181818182,298,0,43,_Remix_Guitar,6,3,_Remix_Guitar,0.5547322630882263,0
58,100,0.21818181818181817,31,1,45,_Remix_Guitar,6,3,_Remix_Guitar,0.9997815489768982,1
56,100,0.18181818181818182,114,0,45,_Remix_Guitar,6,3,_Remix_Guitar,0.141585573554039,0
58,100,0.2590909090909091,228,0,45,_Remix_Guitar,6,4,_Remix_Guitar,0.1182495504617691,0
58,100,0.1590909090909091,338,0,45,_Remix_Guitar,6,3,_Remix_Guitar,0.1436290740966797,0
58,100,0.2818181818181818,378,0,45,_Remix_Guitar,6,5,_Remix_Guitar,0.1463945060968399,0
63,100,0.1409090909090909,461,0,45,_Remix_Guitar,6,2,_Remix_Guitar,0.14592291414737701,0
56,100,0.1,56,1,46,_Remix_Guitar,6,2,_Remix_Guitar,0.9998557567596436,1
63,100,0.2,171,0,46,_Remix_Guitar,6,3,_Remix_Guitar,0.3092544376850128,0
56,100,0.6,474,1,46,_Remix_Guitar,6,10,_Remix_Guitar,0.2879732847213745,0
58,100,0.3,770,1,46,_Remix_Guitar,6,5,_Remix_Guitar,0.3182634115219116,0
58,100,0.22272727272727272,123,1,47,_Remix_Guitar,6,4,_Remix_Guitar,0.9998049139976501,1
63,100,0.2,303,0,47,_Remix_Guitar,6,3,_Remix_Guitar,0.4301738739013672,0
58,100,0.1590909090909091,810,1,47,_Remix_Guitar,6,3,_Remix_Guitar,0.4353488087654114,0
55,100,0.3181818181818182,150,1,48,_Remix_Guitar,6,5,_Remix_Guitar,0.9998399019241333,1
58,100,0.4818181818181818,289,0,48,_Remix_Guitar,6,8,_Remix_Guitar,0.3024311661720276,0
53,100,0.12272727272727273,554,1,48,_Remix_Guitar,6,2,_Remix_Guitar,0.3227798342704773,0
53,100,0.2590909090909091,646,0,48,_Remix_Guitar,6,4,_Remix_Guitar,0.31062954664230347,0
58,100,0.2,356,1,50,_Remix_Guitar,6,3,_Remix_Guitar,0.9998098015785217,1
58,100,0.16363636363636364,444,0,50,_Remix_Guitar,6,3,_Remix_Guitar,0.4192218482494354,0
58,100,0.32272727272727275,651,0,50,_Remix_Guitar,6,5,_Remix_Guitar,0.43389418721199036,0
58,100,0.1409090909090909,518,1,51,_Remix_Guitar,6,2,_Remix_Guitar,0.9998124241828918,1
63,100,0.2,576,0,51,_Remix_Guitar,6,3,_Remix_Guitar,0.4269077777862549,0
63,100,0.18181818181818182,871,1,51,_Remix_Guitar,6,3,_Remix_Guitar,0.4334042966365814,0
63,100,0.16363636363636364,69,1,52,_Remix_Guitar,6,3,_Remix_Guitar,0.9998242259025574,1
63,100,0.11818181818181818,198,0,52,_Remix_Guitar,6,2,_Remix_Guitar,0.4260607659816742,0
63,100,0.5,778,1,52,_Remix_Guitar,6,8,_Remix_Guitar,0.4158555269241333,0
63,100,0.37727272727272726,171,1,53,_Remix_Guitar,6,6,_Remix_Guitar,0.9998263716697693,1
56,100,0.1409090909090909,268,0,53,_Remix_Guitar,6,2,_Remix_Guitar,0.23247408866882324,0
58,100,0.21818181818181817,483,0,53,_Remix_Guitar,6,3,_Remix_Guitar,0.2005687654018402,0
58,100,0.21818181818181817,568,0,53,_Remix_Guitar,6,3,_Remix_Guitar,0.2169683277606964,0
58,100,0.5590909090909091,646,0,53,_Remix_Guitar,6,9,_Remix_Guitar,0.20695514976978302,0
58,100,0.1409090909090909,474,1,55,_Remix_Guitar,6,2,_Remix_Guitar,0.9998297691345215,1
58,100,0.1409090909090909,673,0,55,_Remix_Guitar,6,2,_Remix_Guitar,0.3476986885070801,0
58,100,0.2409090909090909,796,0,55,_Remix_Guitar,6,4,_Remix_Guitar,0.3026088774204254,0
58,100,0.13636363636363635,853,0,55,_Remix_Guitar,6,2,_Remix_Guitar,0.3180033564567566,0
58,100,0.1590909090909091,83,1,56,_Remix_Guitar,6,3,_Remix_Guitar,0.9998342990875244,1
60,100,0.5,141,0,56,_Remix_Guitar,6,8,_Remix_Guitar,0.33197376132011414,0
60,100,0.2818181818181818,431,1,56,_Remix_Guitar,6,5,_Remix_Guitar,0.30417510867118835,0
53,100,0.1,641,0,56,_Remix_Guitar,6,2,_Remix_Guitar,0.308709979057312,0
58,100,0.22272727272727272,101,1,57,_Remix_Guitar,6,4,_Remix_Guitar,0.9995934367179871,1
55,100,0.1,826,1,57,_Remix_Guitar,6,2,_Remix_Guitar,0.5601944327354431,0
60,100,0.16363636363636364,488,1,58,_Remix_Guitar,6,3,_Remix_Guitar,0.9996531009674072,1
58,100,0.1,581,0,58,_Remix_Guitar,6,2,_Remix_Guitar,0.5315489768981934,0
55,100,0.11818181818181818,625,1,59,_Remix_Guitar,6,2,_Remix_Guitar,0.9996317625045776,1
58,100,0.1409090909090909,770,0,59,_Remix_Guitar,6,2,_Remix_Guitar,0.5385611057281494,0
53,100,0.12272727272727273,584,1,60,_Remix_Guitar,6,2,_Remix_Guitar,0.9936019778251648,1
74,100,0.5,726,1,61,_Remix_Guitar,6,8,_Remix_Guitar,0.9928019046783447,0
58,100,0.3,96,1,62,_Remix_Guitar,6,5,_Remix_Guitar,0.9998064637184143,1
58,100,0.1409090909090909,364,1,62,_Remix_Guitar,6,2,_Remix_Guitar,0.42901915311813354,0
58,100,0.18181818181818182,738,1,62,_Remix_Guitar,6,3,_Remix_Guitar,0.43745821714401245,0
58,100,0.22272727272727272,136,1,63,_Remix_Guitar,6,4,_Remix_Guitar,0.9998317956924438,1
58,100,0.22272727272727272,233,0,63,_Remix_Guitar,6,4,_Remix_Guitar,0.3304464817047119,0
58,100,0.3181818181818182,616,1,63,_Remix_Guitar,6,5,_Remix_Guitar,0.2999584376811981,0
55,100,0.2,743,0,63,_Remix_Guitar,6,3,_Remix_Guitar,0.33337080478668213,0
58,100,0.21818181818181817,176,1,64,_Remix_Guitar,6,3,_Remix_Guitar,0.9922147393226624,0
58,100,0.4,267,1,65,_Remix_Guitar,6,6,_Remix_Guitar,0.9997963309288025,1
58,100,0.33636363636363636,567,1,65,_Remix_Guitar,6,5,_Remix_Guitar,0.42636018991470337,0
58,100,0.21818181818181817,713,0,65,_Remix_Guitar,6,3,_Remix_Guitar,0.4485146105289459,0
58,100,0.1409090909090909,343,1,66,_Remix_Guitar,6,2,_Remix_Guitar,0.9995976090431213,1
55,100,0.1409090909090909,839,1,66,_Remix_Guitar,6,2,_Remix_Guitar,0.5539682507514954,0
55,100,0.1,303,1,67,_Remix_Guitar,6,2,_Remix_Guitar,0.9998313188552856,1
55,100,0.11818181818181818,360,0,67,_Remix_Guitar,6,2,_Remix_Guitar,0.21380625665187836,0
56,100,0.1409090909090909,422,0,67,_Remix_Guitar,6,2,_Remix_Guitar,0.20220419764518738,0
58,100,0.1409090909090909,550,0,67,_Remix_Guitar,6,2,_Remix_Guitar,0.20494118332862854,0
53,100,0.16363636363636364,839,1,67,_Remix_Guitar,6,3,_Remix_Guitar,0.20991171896457672,0
53,100,0.2,30,1,68,_Remix_Guitar,6,3,_Remix_Guitar,0.9998382329940796,1
58,100,0.3409090909090909,223,0,68,_Remix_Guitar,6,5,_Remix_Guitar,0.2019805610179901,0
58,100,0.3181818181818182,339,0,68,_Remix_Guitar,6,5,_Remix_Guitar,0.20288582146167755,0
58,100,0.3181818181818182,436,0,68,_Remix_Guitar,6,5,_Remix_Guitar,0.22301340103149414,0
58,100,0.3,527,0,68,_Remix_Guitar,6,5,_Remix_Guitar,0.21555285155773163,0
58,100,0.17727272727272728,163,1,69,_Remix_Guitar,6,3,_Remix_Guitar,0.9998230338096619,1
53,100,0.17727272727272728,347,0,69,_Remix_Guitar,6,3,_Remix_Guitar,0.22427015006542206,0
56,100,0.1409090909090909,637,1,69,_Remix_Guitar,6,2,_Remix_Guitar,0.20011335611343384,0
53,100,0.2590909090909091,722,0,69,_Remix_Guitar,6,4,_Remix_Guitar,0.20710939168930054,0
53,100,0.1590909090909091,832,0,69,_Remix_Guitar,6,3,_Remix_Guitar,0.20001620054244995,0
53,100,0.18181818181818182,47,1,70,_Remix_Guitar,6,3,_Remix_Guitar,0.9998354911804199,1
53,100,0.4,127,0,70,_Remix_Guitar,6,6,_Remix_Guitar,0.20544834434986115,0
58,100,0.11818181818181818,417,1,70,_Remix_Guitar,6,2,_Remix_Guitar,0.20640146732330322,0
70,100,0.1590909090909091,470,0,70,_Remix_Guitar,6,3,_Remix_Guitar,0.21524246037006378,0
58,100,0.12272727272727273,783,1,70,_Remix_Guitar,6,2,_Remix_Guitar,0.2099951207637787,0
58,100,0.1,30,1,71,_Remix_Guitar,6,2,_Remix_Guitar,0.9997925162315369,1
58,100,0.1590909090909091,140,0,71,_Remix_Guitar,6,3,_Remix_Guitar,0.12974920868873596,0
58,100,0.3409090909090909,184,0,71,_Remix_Guitar,6,5,_Remix_Guitar,0.1266777068376541,0
58,100,0.12272727272727273,333,0,71,_Remix_Guitar,6,2,_Remix_Guitar,0.14431412518024445,0
56,100,0.1590909090909091,496,0,71,_Remix_Guitar,6,3,_Remix_Guitar,0.16393397748470306,0
58,100,0.12272727272727273,752,1,71,_Remix_Guitar,6,2,_Remix_Guitar,0.13762706518173218,0
58,100,0.18181818181818182,43,1,72,_Remix_Guitar,6,3,_Remix_Guitar,0.9998250603675842,1
58,100,0.1590909090909091,189,0,72,_Remix_Guitar,6,3,_Remix_Guitar,0.2133931815624237,0
58,100,0.1409090909090909,462,1,72,_Remix_Guitar,6,2,_Remix_Guitar,0.20523522794246674,0
58,100,0.1,619,0,72,_Remix_Guitar,6,2,_Remix_Guitar,0.2153761088848114,0
55,100,0.17727272727272728,722,0,72,_Remix_Guitar,6,3,_Remix_Guitar,0.21984222531318665,0
58,100,0.2,0,1,73,_Remix_Guitar,6,3,_Remix_Guitar,0.9998199343681335,1
55,100,0.12272727272727273,365,1,73,_Remix_Guitar,6,2,_Remix_Guitar,0.2278277575969696,0
70,100,0.1590909090909091,493,0,73,_Remix_Guitar,6,3,_Remix_Guitar,0.19704243540763855,0
56,100,0.2,779,1,73,_Remix_Guitar,6,3,_Remix_Guitar,0.21968425810337067,0
56,100,0.1590909090909091,836,0,73,_Remix_Guitar,6,3,_Remix_Guitar,0.21098923683166504,0
58,100,0.2818181818181818,47,1,74,_Remix_Guitar,6,5,_Remix_Guitar,0.9997327923774719,1
58,100,0.2409090909090909,136,0,74,_Remix_Guitar,6,4,_Remix_Guitar,0.08522359281778336,0
58,100,0.1,250,0,74,_Remix_Guitar,6,2,_Remix_Guitar,0.08075691759586334,0
58,100,0.22272727272727272,276,0,74,_Remix_Guitar,6,4,_Remix_Guitar,0.08162885904312134,0
53,100,0.2409090909090909,449,0,74,_Remix_Guitar,6,4,_Remix_Guitar,0.10331094264984131,0
58,100,0.2409090909090909,726,1,74,_Remix_Guitar,6,4,_Remix_Guitar,0.09854007512331009,0
55,100,0.18181818181818182,813,0,74,_Remix_Guitar,6,3,_Remix_Guitar,0.09924887865781784,0
58,100,0.18181818181818182,0,1,75,_Remix_Guitar,6,3,_Remix_Guitar,0.9998360872268677,1
55,100,0.35909090909090907,237,1,75,_Remix_Guitar,6,6,_Remix_Guitar,0.3409670889377594,0
56,100,0.1409090909090909,796,1,75,_Remix_Guitar,6,2,_Remix_Guitar,0.3066577613353729,0
56,100,0.17727272727272728,876,0,75,_Remix_Guitar,6,3,_Remix_Guitar,0.30922332406044006,0
58,100,0.2409090909090909,399,1,76,_Remix_Guitar,6,4,_Remix_Guitar,0.9998369216918945,1
58,100,0.12272727272727273,553,0,76,_Remix_Guitar,6,2,_Remix_Guitar,0.3287971019744873,0
58,100,0.22272727272727272,597,0,76,_Remix_Guitar,6,4,_Remix_Guitar,0.29776304960250854,0
55,100,0.17727272727272728,832,1,76,_Remix_Guitar,6,3,_Remix_Guitar,0.3248220980167389,0
58,100,0.1409090909090909,43,1,77,_Remix_Guitar,6,2,_Remix_Guitar,0.9998157620429993,1
63,100,0.23636363636363636,436,1,77,_Remix_Guitar,6,4,_Remix_Guitar,0.41845622658729553,0
63,100,0.3,593,0,77,_Remix_Guitar,6,5,_Remix_Guitar,0.4299284815788269,0
53,100,0.3181818181818182,0,1,78,_Remix_Guitar,6,5,_Remix_Guitar,0.9997279047966003,1
53,100,0.13636363636363635,106,0,78,_Remix_Guitar,6,2,_Remix_Guitar,0.05742305517196655,0
53,100,0.4590909090909091,166,0,78,_Remix_Guitar,6,7,_Remix_Guitar,0.045318733900785446,0
53,100,0.7,343,0,78,_Remix_Guitar,6,11,_Remix_Guitar,0.04618942365050316,0
53,100,0.4818181818181818,619,1,78,_Remix_Guitar,6,8,_Remix_Guitar,0.054419174790382385,0
53,100,0.11818181818181818,770,0,78,_Remix_Guitar,6,2,_Remix_Guitar,0.06306646764278412,0
53,100,0.1,800,0,78,_Remix_Guitar,6,2,_Remix_Guitar,0.06698296964168549,0
53,100,0.11818181818181818,857,0,78,_Remix_Guitar,6,2,_Remix_Guitar,0.06148666515946388,0
58,100,0.12272727272727273,79,1,79,_Remix_Guitar,6,2,_Remix_Guitar,0.9998377561569214,1
58,100,0.1590909090909091,119,0,79,_Remix_Guitar,6,3,_Remix_Guitar,0.31908032298088074,0
63,100,0.7,246,0,79,_Remix_Guitar,6,11,_Remix_Guitar,0.2867470979690552,0
53,100,0.35909090909090907,660,1,79,_Remix_Guitar,6,6,_Remix_Guitar,0.33326637744903564,0
53,100,0.2,22,1,80,_Remix_Guitar,6,3,_Remix_Guitar,0.9998056292533875,1
58,100,0.1409090909090909,333,1,80,_Remix_Guitar,6,2,_Remix_Guitar,0.11677546799182892,0
53,100,0.2409090909090909,409,0,80,_Remix_Guitar,6,4,_Remix_Guitar,0.1273118406534195,0
53,100,0.21818181818181817,506,0,80,_Remix_Guitar,6,3,_Remix_Guitar,0.13586971163749695,0
53,100,0.11818181818181818,616,0,80,_Remix_Guitar,6,2,_Remix_Guitar,0.1418851763010025,0
53,100,0.1409090909090909,686,0,80,_Remix_Guitar,6,2,_Remix_Guitar,0.13482563197612762,0
55,100,0.1,800,1,81,_Remix_Guitar,6,2,_Remix_Guitar,0.9931380152702332,1
55,100,0.38181818181818183,166,1,82,_Remix_Guitar,6,6,_Remix_Guitar,0.9925078749656677,0
63,100,0.2,13,1,83,_Remix_Guitar,6,3,_Remix_Guitar,0.9996230602264404,1
58,100,0.11818181818181818,792,1,83,_Remix_Guitar,6,2,_Remix_Guitar,0.5455889105796814,0
58,100,0.1409090909090909,823,1,84,_Remix_Guitar,6,2,_Remix_Guitar,0.9995797276496887,1
58,100,0.1590909090909091,857,0,84,_Remix_Guitar,6,3,_Remix_Guitar,0.5534608960151672,0
58,100,0.2772727272727273,216,1,85,_Remix_Guitar,6,4,_Remix_Guitar,0.9997989535331726,1
58,100,0.5,299,0,85,_Remix_Guitar,6,8,_Remix_Guitar,0.412201851606369,0
56,100,0.2409090909090909,550,1,85,_Remix_Guitar,6,4,_Remix_Guitar,0.4534580707550049,0
58,100,0.17727272727272728,62,1,86,_Remix_Guitar,6,3,_Remix_Guitar,0.9998388290405273,1
53,100,0.42272727272727273,255,0,86,_Remix_Guitar,6,7,_Remix_Guitar,0.33300745487213135,0
53,100,0.1590909090909091,453,0,86,_Remix_Guitar,6,3,_Remix_Guitar,0.3018600344657898,0
55,100,0.2,673,0,86,_Remix_Guitar,6,3,_Remix_Guitar,0.30686357617378235,0
60,100,0.1,289,1,87,_Remix_Guitar,6,2,_Remix_Guitar,0.9998148083686829,1
60,100,0.2,413,0,87,_Remix_Guitar,6,3,_Remix_Guitar,0.12222111225128174,0
60,100,0.18181818181818182,462,0,87,_Remix_Guitar,6,3,_Remix_Guitar,0.1174226701259613,0
60,100,0.2,519,0,87,_Remix_Guitar,6,3,_Remix_Guitar,0.12941662967205048,0
60,100,0.11818181818181818,743,0,87,_Remix_Guitar,6,2,_Remix_Guitar,0.13940563797950745,0
60,100,0.11818181818181818,876,0,87,_Remix_Guitar,6,2,_Remix_Guitar,0.12769481539726257,0
60,100,0.13636363636363635,62,1,88,_Remix_Guitar,6,2,_Remix_Guitar,0.9936442375183105,1
58,100,0.3,179,1,89,_Remix_Guitar,6,5,_Remix_Guitar,0.9922671914100647,0
60,100,0.12272727272727273,145,1,90,_Remix_Guitar,6,2,_Remix_Guitar,0.9998607635498047,1
60,100,0.41818181818181815,193,0,90,_Remix_Guitar,6,7,_Remix_Guitar,0.30371084809303284,0
53,100,0.21818181818181817,470,1,90,_Remix_Guitar,6,3,_Remix_Guitar,0.29246631264686584,0
65,100,0.11818181818181818,787,1,90,_Remix_Guitar,6,2,_Remix_Guitar,0.3044845163822174,0
67,100,0.11818181818181818,184,1,91,_Remix_Guitar,6,2,_Remix_Guitar,0.993156373500824,0
63,100,0.1590909090909091,339,1,92,_Remix_Guitar,6,3,_Remix_Guitar,0.9998457431793213,1
58,100,0.13636363636363635,567,0,92,_Remix_Guitar,6,2,_Remix_Guitar,0.31889691948890686,0
58,100,0.2590909090909091,637,0,92,_Remix_Guitar,6,4,_Remix_Guitar,0.3031921982765198,0
58,100,0.13636363636363635,700,0,92,_Remix_Guitar,6,2,_Remix_Guitar,0.31465083360671997,0
58,100,0.12272727272727273,466,1,93,_Remix_Guitar,6,2,_Remix_Guitar,0.9996201992034912,1
63,100,0.21818181818181817,523,0,93,_Remix_Guitar,6,3,_Remix_Guitar,0.54827481508255,0
58,100,0.1,17,1,94,_Remix_Guitar,6,2,_Remix_Guitar,0.9998239874839783,1
63,100,0.1590909090909091,176,0,94,_Remix_Guitar,6,3,_Remix_Guitar,0.20878760516643524,0
63,100,0.3181818181818182,216,0,94,_Remix_Guitar,6,5,_Remix_Guitar,0.19617678225040436,0
53,100,0.1,289,0,94,_Remix_Guitar,6,2,_Remix_Guitar,0.22012042999267578,0
53,100,0.3409090909090909,660,1,94,_Remix_Guitar,6,5,_Remix_Guitar,0.20778882503509521,0
58,100,0.4772727272727273,83,1,95,_Remix_Guitar,6,8,_Remix_Guitar,0.9998206496238708,1
58,100,0.17727272727272728,206,0,95,_Remix_Guitar,6,3,_Remix_Guitar,0.35218220949172974,0
53,100,0.1,303,0,95,_Remix_Guitar,6,2,_Remix_Guitar,0.3091261684894562,0
63,100,0.4772727272727273,624,1,95,_Remix_Guitar,6,8,_Remix_Guitar,0.3077518045902252,0
67,100,0.2818181818181818,506,1,96,_Remix_Guitar,6,5,_Remix_Guitar,0.9928798079490662,0
53,100,0.2818181818181818,166,1,97,_Remix_Guitar,6,5,_Remix_Guitar,0.9998506307601929,1
58,100,0.23636363636363636,480,1,97,_Remix_Guitar,6,4,_Remix_Guitar,0.31301525235176086,0
63,100,0.2,550,0,97,_Remix_Guitar,6,3,_Remix_Guitar,0.30617403984069824,0
63,100,0.759090909090909,716,0,97,_Remix_Guitar,6,12,_Remix_Guitar,0.3022710382938385,0
58,100,0.13636363636363635,83,1,98,_Remix_Guitar,6,2,_Remix_Guitar,0.9998118281364441,1
63,100,0.1409090909090909,443,1,98,_Remix_Guitar,6,2,_Remix_Guitar,0.4381984770298004,0
63,100,0.2,876,1,98,_Remix_Guitar,6,3,_Remix_Guitar,0.4263058602809906,0
53,100,0.21818181818181817,96,1,99,_Remix_Guitar,6,3,_Remix_Guitar,0.999736487865448,1
63,100,0.23636363636363636,150,0,99,_Remix_Guitar,6,4,_Remix_Guitar,0.0538407526910305,0
53,100,0.33636363636363636,216,0,99,_Remix_Guitar,6,5,_Remix_Guitar,0.04818303510546684,0
53,100,0.2409090909090909,333,0,99,_Remix_Guitar,6,4,_Remix_Guitar,0.04845476895570755,0
53,100,0.1590909090909091,449,0,99,_Remix_Guitar,6,3,_Remix_Guitar,0.05370515584945679,0
53,100,0.17727272727272728,502,0,99,_Remix_Guitar,6,3,_Remix_Guitar,0.061453677713871,0
58,100,0.6227272727272727,695,0,99,_Remix_Guitar,6,10,_Remix_Guitar,0.06108321622014046,0
53,100,0.42272727272727273,870,0,99,_Remix_Guitar,6,7,_Remix_Guitar,0.06621132791042328,0
58,100,0.3409090909090909,179,1,100,_Remix_Guitar,6,5,_Remix_Guitar,0.9998030066490173,1
58,100,0.1409090909090909,365,0,100,_Remix_Guitar,6,2,_Remix_Guitar,0.43070247769355774,0
53,100,0.3,470,0,100,_Remix_Guitar,6,5,_Remix_Guitar,0.44269734621047974,0
58,100,0.12272727272727273,540,1,101,_Remix_Guitar,6,2,_Remix_Guitar,0.999816358089447,1
67,100,0.2772727272727273,612,0,101,_Remix_Guitar,6,4,_Remix_Guitar,0.41768115758895874,0
58,100,0.1590909090909091,703,0,101,_Remix_Guitar,6,3,_Remix_Guitar,0.42653724551200867,0
53,100,0.18181818181818182,532,1,103,_Remix_Guitar,6,3,_Remix_Guitar,0.9996180534362793,1
62,100,1.018181818181818,722,0,103,_Remix_Guitar,6,15,_Remix_Guitar,0.5387619733810425,0
63,100,0.1409090909090909,197,1,104,_Remix_Guitar,6,2,_Remix_Guitar,0.9998406171798706,1
58,100,1.3772727272727272,360,0,104,_Remix_Guitar,6,15,_Remix_Guitar,0.2834048867225647,0
58,100,0.11818181818181818,669,1,104,_Remix_Guitar,6,2,_Remix_Guitar,0.35213491320610046,0
58,100,1.459090909090909,703,0,104,_Remix_Guitar,6,15,_Remix_Guitar,0.30770131945610046,0
56,100,0.21818181818181817,567,1,105,_Remix_Guitar,6,3,_Remix_Guitar,0.9996323585510254,1
62,100,0.1409090909090909,695,0,105,_Remix_Guitar,6,2,_Remix_Guitar,0.5555547475814819,0
58,100,0.1590909090909091,826,1,107,_Remix_Guitar,6,3,_Remix_Guitar,0.9925236105918884,0
63,100,0.3,260,1,108,_Remix_Guitar,6,5,_Remix_Guitar,0.9998008608818054,1
58,100,0.5,343,0,108,_Remix_Guitar,6,8,_Remix_Guitar,0.415984183549881,0
58,100,1.3772727272727272,633,1,108,_Remix_Guitar,6,15,_Remix_Guitar,0.42961686849594116,0
63,100,0.4,713,1,109,_Remix_Guitar,6,6,_Remix_Guitar,0.9996110796928406,1
63,100,0.21818181818181817,832,0,109,_Remix_Guitar,6,3,_Remix_Guitar,0.5535363554954529,0
58,100,0.12272727272727273,47,1,110,_Remix_Guitar,6,2,_Remix_Guitar,0.9997803568840027,1
70,100,0.4636363636363636,92,0,110,_Remix_Guitar,6,7,_Remix_Guitar,0.12602420151233673,0
58,100,0.13636363636363635,260,0,110,_Remix_Guitar,6,2,_Remix_Guitar,0.1301862597465515,0
63,100,0.759090909090909,506,1,110,_Remix_Guitar,6,12,_Remix_Guitar,0.14397339522838593,0
58,100,0.3,695,0,110,_Remix_Guitar,6,5,_Remix_Guitar,0.16264064610004425,0
63,100,0.21818181818181817,792,0,110,_Remix_Guitar,6,3,_Remix_Guitar,0.15197958052158356,0
63,100,0.2,92,1,111,_Remix_Guitar,6,3,_Remix_Guitar,0.9998310804367065,1
58,100,0.1,179,0,111,_Remix_Guitar,6,2,_Remix_Guitar,0.20597203075885773,0
63,100,0.13636363636363635,237,0,111,_Remix_Guitar,6,2,_Remix_Guitar,0.20468276739120483,0
63,100,0.2818181818181818,377,0,111,_Remix_Guitar,6,5,_Remix_Guitar,0.20996108651161194,0
63,100,0.42272727272727273,443,0,111,_Remix_Guitar,6,7,_Remix_Guitar,0.21034333109855652,0
63,100,0.7227272727272728,443,1,112,_Remix_Guitar,6,12,_Remix_Guitar,0.9998070597648621,1
62,100,0.1409090909090909,616,0,112,_Remix_Guitar,6,2,_Remix_Guitar,0.4505656659603119,0
58,100,0.2818181818181818,770,0,112,_Remix_Guitar,6,5,_Remix_Guitar,0.4205526113510132,0
60,100,0.7818181818181819,839,1,113,_Remix_Guitar,6,13,_Remix_Guitar,0.9922823309898376,0
58,100,0.2,157,1,114,_Remix_Guitar,6,3,_Remix_Guitar,0.9997473359107971,1
63,100,0.3409090909090909,206,0,114,_Remix_Guitar,6,5,_Remix_Guitar,0.08669444173574448,0
63,100,0.4,312,0,114,_Remix_Guitar,6,6,_Remix_Guitar,0.07892332226037979,0
70,100,0.1409090909090909,443,0,114,_Remix_Guitar,6,2,_Remix_Guitar,0.08759645372629166,0
58,100,0.4,593,0,114,_Remix_Guitar,6,6,_Remix_Guitar,0.08956477046012878,0
63,100,0.6,686,0,114,_Remix_Guitar,6,10,_Remix_Guitar,0.11096319556236267,0
58,100,0.4590909090909091,826,0,114,_Remix_Guitar,6,7,_Remix_Guitar,0.09442122280597687,0
63,100,0.6,294,1,115,_Remix_Guitar,6,10,_Remix_Guitar,0.9997913241386414,1
63,100,0.3,449,0,115,_Remix_Guitar,6,5,_Remix_Guitar,0.1360446959733963,0
55,100,0.4818181818181818,540,0,115,_Remix_Guitar,6,8,_Remix_Guitar,0.12658122181892395,0
58,100,0.11818181818181818,656,0,115,_Remix_Guitar,6,2,_Remix_Guitar,0.14445270597934723,0
58,100,0.4,686,0,115,_Remix_Guitar,6,6,_Remix_Guitar,0.14568841457366943,0
63,100,0.4409090909090909,792,0,115,_Remix_Guitar,6,7,_Remix_Guitar,0.1420077383518219,0
58,100,0.43636363636363634,17,1,116,_Remix_Guitar,6,7,_Remix_Guitar,0.9996926784515381,1
60,100,0.6227272727272727,123,0,116,_Remix_Guitar,6,10,_Remix_Guitar,0.06039189547300339,0
58,100,0.4590909090909091,263,0,116,_Remix_Guitar,6,7,_Remix_Guitar,0.04807071387767792,0
63,100,0.5590909090909091,370,0,116,_Remix_Guitar,6,9,_Remix_Guitar,0.05315973609685898,0
63,100,0.23636363636363636,546,0,116,_Remix_Guitar,6,4,_Remix_Guitar,0.06071959808468819,0
58,100,0.5409090909090909,606,0,116,_Remix_Guitar,6,9,_Remix_Guitar,0.06452279537916183,0
58,100,0.4,760,0,116,_Remix_Guitar,6,6,_Remix_Guitar,0.07758281379938126,0
65,100,0.4409090909090909,866,0,116,_Remix_Guitar,6,7,_Remix_Guitar,0.06945542991161346,0
62,100,0.5181818181818182,87,1,117,_Remix_Guitar,6,8,_Remix_Guitar,0.9998213648796082,1
55,100,0.4,242,0,117,_Remix_Guitar,6,6,_Remix_Guitar,0.20686312019824982,0
63,100,1.059090909090909,453,0,117,_Remix_Guitar,6,15,_Remix_Guitar,0.19629248976707458,0
55,100,0.4818181818181818,703,1,117,_Remix_Guitar,6,8,_Remix_Guitar,0.23989751935005188,0
58,100,0.4772727272727273,823,0,117,_Remix_Guitar,6,8,_Remix_Guitar,0.21941301226615906,0
63,100,0.4409090909090909,69,1,118,_Remix_Guitar,6,7,_Remix_Guitar,0.9996726512908936,1
58,100,0.5181818181818182,176,0,118,_Remix_Guitar,6,8,_Remix_Guitar,0.042480744421482086,0
53,100,0.1590909090909091,303,0,118,_Remix_Guitar,6,3,_Remix_Guitar,0.03828297182917595,0
53,100,0.3,343,0,118,_Remix_Guitar,6,5,_Remix_Guitar,0.03236937150359154,0
58,100,0.41818181818181815,417,0,118,_Remix_Guitar,6,7,_Remix_Guitar,0.030601875856518745,0
62,100,0.5818181818181818,527,0,118,_Remix_Guitar,6,9,_Remix_Guitar,0.03708372637629509,0
58,100,0.1409090909090909,663,0,118,_Remix_Guitar,6,2,_Remix_Guitar,0.046118345111608505,0
62,100,0.2636363636363636,707,0,118,_Remix_Guitar,6,4,_Remix_Guitar,0.0540524497628212,0
63,100,0.1,857,0,118,_Remix_Guitar,6,2,_Remix_Guitar,0.0491335503757,0
58,100,0.11818181818181818,17,1,119,_Remix_Guitar,6,2,_Remix_Guitar,0.9997112154960632,1
63,100,0.7,119,0,119,_Remix_Guitar,6,11,_Remix_Guitar,0.05500325560569763,0
63,100,0.11818181818181818,326,0,119,_Remix_Guitar,6,2,_Remix_Guitar,0.05298512428998947,0
55,100,0.4409090909090909,396,0,119,_Remix_Guitar,6,7,_Remix_Guitar,0.04934230074286461,0
58,100,0.4590909090909091,502,0,119,_Remix_Guitar,6,7,_Remix_Guitar,0.05558456480503082,0
63,100,0.5772727272727273,612,0,119,_Remix_Guitar,6,9,_Remix_Guitar,0.06825799494981766,0
58,100,0.41818181818181815,743,0,119,_Remix_Guitar,6,7,_Remix_Guitar,0.0743725597858429,0
55,100,0.4409090909090909,866,0,119,_Remix_Guitar,6,7,_Remix_Guitar,0.0698838010430336,0
63,100,0.5,216,1,120,_Remix_Guitar,6,8,_Remix_Guitar,0.9997859597206116,1
58,100,0.5,330,0,120,_Remix_Guitar,6,8,_Remix_Guitar,0.13007624447345734,0
56,100,0.2409090909090909,466,0,120,_Remix_Guitar,6,4,_Remix_Guitar,0.14060164988040924,0
56,100,0.7,523,0,120,_Remix_Guitar,6,11,_Remix_Guitar,0.131377175450325,0
63,100,0.5409090909090909,695,0,120,_Remix_Guitar,6,9,_Remix_Guitar,0.1559540331363678,0
58,100,0.4,826,0,120,_Remix_Guitar,6,6,_Remix_Guitar,0.1401260644197464,0
56,100,0.5181818181818182,53,1,121,_Remix_Guitar,6,8,_Remix_Guitar,0.9997053742408752,1
58,100,0.2,176,0,121,_Remix_Guitar,6,3,_Remix_Guitar,0.05757085606455803,0
58,100,0.3,223,0,121,_Remix_Guitar,6,5,_Remix_Guitar,0.05053685978055,0
58,100,0.3,436,0,121,_Remix_Guitar,6,5,_Remix_Guitar,0.049526337534189224,0
56,100,0.3409090909090909,585,0,121,_Remix_Guitar,6,5,_Remix_Guitar,0.058544062077999115,0
56,100,0.1590909090909091,734,0,121,_Remix_Guitar,6,3,_Remix_Guitar,0.0666772723197937,0
56,100,0.2,810,0,121,_Remix_Guitar,6,3,_Remix_Guitar,0.0699390172958374,0
56,100,0.1409090909090909,857,0,121,_Remix_Guitar,6,2,_Remix_Guitar,0.06370492279529572,0
58,100,0.3,43,1,122,_Remix_Guitar,6,5,_Remix_Guitar,0.9996787309646606,1
56,100,0.1,136,0,122,_Remix_Guitar,6,2,_Remix_Guitar,0.047783128917217255,0
55,100,0.2,193,0,122,_Remix_Guitar,6,3,_Remix_Guitar,0.03478209301829338,0
58,100,0.1409090909090909,255,0,122,_Remix_Guitar,6,2,_Remix_Guitar,0.032289158552885056,0
58,100,0.3409090909090909,289,0,122,_Remix_Guitar,6,5,_Remix_Guitar,0.03206346556544304,0
63,100,0.5227272727272727,377,0,122,_Remix_Guitar,6,8,_Remix_Guitar,0.039173249155282974,0
58,100,0.43636363636363634,502,0,122,_Remix_Guitar,6,7,_Remix_Guitar,0.045099157840013504,0
58,100,1.018181818181818,624,0,122,_Remix_Guitar,6,15,_Remix_Guitar,0.0508931465446949,0
63,100,0.5590909090909091,849,0,122,_Remix_Guitar,6,9,_Remix_Guitar,0.05634210258722305,0
62,100,0.6227272727272727,92,1,123,_Remix_Guitar,6,10,_Remix_Guitar,0.999822199344635,1
62,100,0.4,255,0,123,_Remix_Guitar,6,6,_Remix_Guitar,0.22758550941944122,0
62,100,0.11818181818181818,370,0,123,_Remix_Guitar,6,2,_Remix_Guitar,0.21379975974559784,0
58,100,0.1,593,0,123,_Remix_Guitar,6,2,_Remix_Guitar,0.2040419727563858,0
58,100,0.2772727272727273,823,0,123,_Remix_Guitar,6,4,_Remix_Guitar,0.21448320150375366,0
58,100,0.18181818181818182,66,1,125,_Remix_Guitar,6,3,_Remix_Guitar,0.9997943043708801,1
58,100,0.3181818181818182,172,0,125,_Remix_Guitar,6,5,_Remix_Guitar,0.12741532921791077,0
58,100,0.1,333,0,125,_Remix_Guitar,6,2,_Remix_Guitar,0.12531907856464386,0
70,100,0.3,360,0,125,_Remix_Guitar,6,5,_Remix_Guitar,0.13942782580852509,0
63,100,0.2772727272727273,502,0,125,_Remix_Guitar,6,4,_Remix_Guitar,0.16019392013549805,0
58,100,0.1409090909090909,817,1,125,_Remix_Guitar,6,2,_Remix_Guitar,0.143003910779953,0
70,100,0.33636363636363636,17,1,126,_Remix_Guitar,6,5,_Remix_Guitar,0.9997403025627136,1
70,100,0.2,132,0,126,_Remix_Guitar,6,3,_Remix_Guitar,0.08502723276615143,0
70,100,0.1,210,0,126,_Remix_Guitar,6,2,_Remix_Guitar,0.07952205091714859,0
70,100,0.2,282,0,126,_Remix_Guitar,6,3,_Remix_Guitar,0.07920528203248978,0
70,100,0.5,356,0,126,_Remix_Guitar,6,8,_Remix_Guitar,0.09321858733892441,0
62,100,0.17727272727272728,779,1,126,_Remix_Guitar,6,3,_Remix_Guitar,0.11418657749891281,0
62,100,0.2,876,0,126,_Remix_Guitar,6,3,_Remix_Guitar,0.09479972720146179,0
63,100,0.41818181818181815,316,1,127,_Remix_Guitar,6,7,_Remix_Guitar,0.9995983242988586,1
70,100,0.2590909090909091,519,0,127,_Remix_Guitar,6,4,_Remix_Guitar,0.549898087978363,0
70,100,0.5590909090909091,128,1,128,_Remix_Guitar,6,9,_Remix_Guitar,0.9997720122337341,1
58,100,0.2409090909090909,264,0,128,_Remix_Guitar,6,4,_Remix_Guitar,0.1403937041759491,0
70,100,0.5409090909090909,427,0,128,_Remix_Guitar,6,9,_Remix_Guitar,0.12518219649791718,0
70,100,0.11818181818181818,603,0,128,_Remix_Guitar,6,2,_Remix_Guitar,0.1562252938747406,0
58,100,0.33636363636363636,633,0,128,_Remix_Guitar,6,5,_Remix_Guitar,0.15668925642967224,0
62,100,0.7227272727272728,773,0,128,_Remix_Guitar,6,12,_Remix_Guitar,0.14736731350421906,0
65,100,0.1,185,1,129,_Remix_Guitar,6,2,_Remix_Guitar,0.9997790455818176,1
70,100,0.2818181818181818,211,0,129,_Remix_Guitar,6,5,_Remix_Guitar,0.07422946393489838,0
65,100,0.1590909090909091,276,0,129,_Remix_Guitar,6,3,_Remix_Guitar,0.08514919877052307,0
70,100,0.1409090909090909,311,0,129,_Remix_Guitar,6,2,_Remix_Guitar,0.0818740576505661,0
70,100,1.1,356,0,129,_Remix_Guitar,6,15,_Remix_Guitar,0.0875842422246933,0
58,100,0.1590909090909091,611,1,129,_Remix_Guitar,6,3,_Remix_Guitar,0.11603605002164841,0
58,100,0.1,778,0,129,_Remix_Guitar,6,2,_Remix_Guitar,0.0960930585861206,0
70,100,0.1,12,1,130,_Remix_Guitar,6,2,_Remix_Guitar,0.9997519850730896,1
58,100,0.2,242,0,130,_Remix_Guitar,6,3,_Remix_Guitar,0.08256176114082336,0
58,100,0.1,452,0,130,_Remix_Guitar,6,2,_Remix_Guitar,0.08137763291597366,0
60,100,0.17727272727272728,501,0,130,_Remix_Guitar,6,3,_Remix_Guitar,0.08887367695569992,0
58,100,0.3,606,0,130,_Remix_Guitar,6,5,_Remix_Guitar,0.089671291410923,0
70,100,0.1,690,0,130,_Remix_Guitar,6,2,_Remix_Guitar,0.10349243879318237,0
58,100,0.2636363636363636,818,0,130,_Remix_Guitar,6,4,_Remix_Guitar,0.09202644973993301,0
63,100,0.1,158,1,131,_Remix_Guitar,6,2,_Remix_Guitar,0.9997064471244812,1
63,100,0.1409090909090909,211,0,131,_Remix_Guitar,6,2,_Remix_Guitar,0.0441717803478241,0
58,100,0.17727272727272728,250,0,131,_Remix_Guitar,6,3,_Remix_Guitar,0.03526245802640915,0
58,100,0.35909090909090907,364,0,131,_Remix_Guitar,6,6,_Remix_Guitar,0.03171888738870621,0
70,100,0.12272727272727273,466,0,131,_Remix_Guitar,6,2,_Remix_Guitar,0.03526400029659271,0
70,100,0.7818181818181819,496,0,131,_Remix_Guitar,6,13,_Remix_Guitar,0.033000022172927856,0
70,100,0.2,747,1,131,_Remix_Guitar,6,3,_Remix_Guitar,0.04750455543398857,0
70,100,0.18181818181818182,814,0,131,_Remix_Guitar,6,3,_Remix_Guitar,0.05031532049179077,0
65,100,0.1409090909090909,861,0,131,_Remix_Guitar,6,2,_Remix_Guitar,0.05290500447154045,0
70,100,0.3409090909090909,140,1,132,_Remix_Guitar,6,5,_Remix_Guitar,0.9997972846031189,1
70,100,0.18181818181818182,220,0,132,_Remix_Guitar,6,3,_Remix_Guitar,0.4325340986251831,0
70,100,0.11818181818181818,264,0,132,_Remix_Guitar,6,2,_Remix_Guitar,0.43727895617485046,0
58,100,0.3,83,1,133,_Remix_Guitar,6,5,_Remix_Guitar,0.9998283386230469,1
58,100,0.1,189,0,133,_Remix_Guitar,6,2,_Remix_Guitar,0.3510722219944,0
58,100,0.18181818181818182,400,0,133,_Remix_Guitar,6,3,_Remix_Guitar,0.3022371530532837,0
70,100,0.12272727272727273,553,0,133,_Remix_Guitar,6,2,_Remix_Guitar,0.3163594901561737,0
60,100,0.11818181818181818,140,1,134,_Remix_Guitar,6,2,_Remix_Guitar,0.9996132254600525,1
63,100,1.2,611,1,134,_Remix_Guitar,6,15,_Remix_Guitar,0.5194043517112732,0
63,100,0.4818181818181818,0,1,135,_Remix_Guitar,6,8,_Remix_Guitar,0.9998351335525513,1
70,100,0.1,268,1,135,_Remix_Guitar,6,2,_Remix_Guitar,0.3391697406768799,0
70,100,0.18181818181818182,598,1,135,_Remix_Guitar,6,3,_Remix_Guitar,0.3058171570301056,0
58,100,0.17727272727272728,656,0,135,_Remix_Guitar,6,3,_Remix_Guitar,0.3186163008213043,0
58,100,0.11818181818181818,18,1,136,_Remix_Guitar,6,2,_Remix_Guitar,0.9997106194496155,1
58,100,0.2,122,0,136,_Remix_Guitar,6,3,_Remix_Guitar,0.05732475966215134,0
70,100,0.3181818181818182,238,0,136,_Remix_Guitar,6,5,_Remix_Guitar,0.04806187376379967,0
63,100,0.18181818181818182,421,0,136,_Remix_Guitar,6,3,_Remix_Guitar,0.05301870033144951,0
58,100,0.11818181818181818,493,0,136,_Remix_Guitar,6,2,_Remix_Guitar,0.054851990193128586,0
58,100,0.4409090909090909,541,0,136,_Remix_Guitar,6,7,_Remix_Guitar,0.058811597526073456,0
63,100,0.1409090909090909,682,0,136,_Remix_Guitar,6,2,_Remix_Guitar,0.079692542552948,0
63,100,0.1590909090909091,721,0,136,_Remix_Guitar,6,3,_Remix_Guitar,0.06595386564731598,0
58,100,0.1409090909090909,166,1,137,_Remix_Guitar,6,2,_Remix_Guitar,0.9998351335525513,1
58,100,0.1,378,0,137,_Remix_Guitar,6,2,_Remix_Guitar,0.33682072162628174,0
58,100,0.7818181818181819,553,0,137,_Remix_Guitar,6,13,_Remix_Guitar,0.27505043148994446,0
63,100,0.21818181818181817,747,0,137,_Remix_Guitar,6,3,_Remix_Guitar,0.3454776108264923,0
58,100,0.18181818181818182,3,1,138,_Remix_Guitar,6,3,_Remix_Guitar,0.9998044371604919,1
58,100,0.6409090909090909,185,0,138,_Remix_Guitar,6,10,_Remix_Guitar,0.4003303349018097,0
63,100,0.1409090909090909,409,0,138,_Remix_Guitar,6,2,_Remix_Guitar,0.4548979699611664,0
58,100,0.1409090909090909,307,1,139,_Remix_Guitar,6,2,_Remix_Guitar,0.9998026490211487,1
70,100,0.1,369,0,139,_Remix_Guitar,6,2,_Remix_Guitar,0.4423918128013611,0
70,100,0.1,831,1,139,_Remix_Guitar,6,2,_Remix_Guitar,0.42396530508995056,0
58,100,0.2,739,1,140,_Remix_Guitar,6,3,_Remix_Guitar,0.9995812773704529,1
58,100,0.41818181818181815,800,0,140,_Remix_Guitar,6,7,_Remix_Guitar,0.5451409220695496,0
58,100,0.2409090909090909,158,1,141,_Remix_Guitar,6,4,_Remix_Guitar,0.992378830909729,0
58,100,0.1,30,1,142,_Remix_Guitar,6,2,_Remix_Guitar,0.999790370464325,1
58,100,0.2590909090909091,110,0,142,_Remix_Guitar,6,4,_Remix_Guitar,0.12353888899087906,0
58,100,0.2409090909090909,223,0,142,_Remix_Guitar,6,4,_Remix_Guitar,0.12606514990329742,0
63,100,0.1,496,1,142,_Remix_Guitar,6,2,_Remix_Guitar,0.14487415552139282,0
63,100,0.12272727272727273,576,0,142,_Remix_Guitar,6,2,_Remix_Guitar,0.146353617310524,0
63,100,0.1,792,0,142,_Remix_Guitar,6,2,_Remix_Guitar,0.13910488784313202,0
58,100,0.17727272727272728,18,1,143,_Remix_Guitar,6,3,_Remix_Guitar,0.9998345375061035,1
58,100,0.17727272727272728,140,0,143,_Remix_Guitar,6,3,_Remix_Guitar,0.3308809697628021,0
58,100,0.2,326,0,143,_Remix_Guitar,6,3,_Remix_Guitar,0.30409279465675354,0
58,100,0.17727272727272728,436,0,143,_Remix_Guitar,6,3,_Remix_Guitar,0.32365506887435913,0
63,100,0.2,338,1,144,_Remix_Guitar,6,3,_Remix_Guitar,0.9998071789741516,1
70,100,0.1590909090909091,409,0,144,_Remix_Guitar,6,3,_Remix_Guitar,0.1285603940486908,0
58,100,0.2,505,0,144,_Remix_Guitar,6,3,_Remix_Guitar,0.12677334249019623,0
58,100,0.1409090909090909,594,0,144,_Remix_Guitar,6,2,_Remix_Guitar,0.14326171576976776,0
58,100,0.3409090909090909,735,0,144,_Remix_Guitar,6,5,_Remix_Guitar,0.14706097543239594,0
58,100,0.2818181818181818,826,0,144,_Remix_Guitar,6,5,_Remix_Guitar,0.13909736275672913,0
70,100,0.12272727272727273,553,1,145,_Remix_Guitar,6,2,_Remix_Guitar,0.9995798468589783,1
58,100,0.11818181818181818,704,0,145,_Remix_Guitar,6,2,_Remix_Guitar,0.5552109479904175,0
70,100,0.1,405,1,146,_Remix_Guitar,6,2,_Remix_Guitar,0.9998239874839783,1
58,100,0.2409090909090909,431,0,146,_Remix_Guitar,6,4,_Remix_Guitar,0.4096947908401489,0
58,100,0.2772727272727273,537,0,146,_Remix_Guitar,6,4,_Remix_Guitar,0.425849974155426,0
64,100,0.3409090909090909,79,1,0,_Remastered_Guitar,6,5,_Remastered_Guitar,0.9997052550315857,1
66,100,0.2636363636363636,158,0,0,_Remastered_Guitar,6,4,_Remastered_Guitar,0.04199100285768509,0
69,100,0.23636363636363636,238,0,0,_Remastered_Guitar,6,4,_Remastered_Guitar,0.032886359840631485,0
73,100,0.22272727272727272,299,0,0,_Remastered_Guitar,6,4,_Remastered_Guitar,0.03090428188443184,0
71,100,0.22272727272727272,356,0,0,_Remastered_Guitar,6,4,_Remastered_Guitar,0.03111676499247551,0
73,100,0.6363636363636364,414,0,0,_Remastered_Guitar,6,10,_Remastered_Guitar,0.0332254134118557,0
71,100,0.8227272727272728,563,0,0,_Remastered_Guitar,6,13,_Remastered_Guitar,0.04045351594686508,0
71,100,0.1,757,0,0,_Remastered_Guitar,6,2,_Remastered_Guitar,0.05918833985924721,0
73,100,1.018181818181818,792,0,0,_Remastered_Guitar,6,15,_Remastered_Guitar,0.04474498704075813,0
71,100,1.0818181818181818,157,1,1,_Remastered_Guitar,6,15,_Remastered_Guitar,0.9996421337127686,1
69,100,0.2590909090909091,414,1,1,_Remastered_Guitar,6,4,_Remastered_Guitar,0.04893658310174942,0
71,100,0.41818181818181815,470,0,1,_Remastered_Guitar,6,7,_Remastered_Guitar,0.03396120294928551,0
72,100,0.1,563,0,1,_Remastered_Guitar,6,2,_Remastered_Guitar,0.032875414937734604,0
73,100,0.35909090909090907,585,0,1,_Remastered_Guitar,6,6,_Remastered_Guitar,0.031162826344370842,0
71,100,0.17727272727272728,669,0,1,_Remastered_Guitar,6,3,_Remastered_Guitar,0.03703847527503967,0
73,100,0.1,707,0,1,_Remastered_Guitar,6,2,_Remastered_Guitar,0.0433250293135643,0
71,100,0.2590909090909091,744,0,1,_Remastered_Guitar,6,4,_Remastered_Guitar,0.05117269977927208,0
69,100,0.5227272727272727,817,0,1,_Remastered_Guitar,6,8,_Remastered_Guitar,0.04622309282422066,0
66,100,2.359090909090909,61,1,2,_Remastered_Guitar,6,15,_Remastered_Guitar,0.9997738003730774,1
64,100,0.2772727272727273,590,1,2,_Remastered_Guitar,6,4,_Remastered_Guitar,0.2848995625972748,0
66,100,0.2590909090909091,660,0,2,_Remastered_Guitar,6,4,_Remastered_Guitar,0.2035616934299469,0
71,100,0.18181818181818182,726,0,2,_Remastered_Guitar,6,3,_Remastered_Guitar,0.2174159437417984,0
73,100,0.6227272727272727,782,0,2,_Remastered_Guitar,6,10,_Remastered_Guitar,0.20876151323318481,0
71,100,1.040909090909091,43,1,3,_Remastered_Guitar,6,15,_Remastered_Guitar,0.9998019337654114,1
73,100,0.9636363636363636,290,1,3,_Remastered_Guitar,6,15,_Remastered_Guitar,0.23064716160297394,0
71,100,0.5181818181818182,528,1,3,_Remastered_Guitar,6,8,_Remastered_Guitar,0.23631563782691956,0
69,100,0.5409090909090909,651,0,3,_Remastered_Guitar,6,9,_Remastered_Guitar,0.23608972132205963,0
69,100,4.463636363636364,796,0,3,_Remastered_Guitar,6,15,_Remastered_Guitar,0.20067095756530762,0
69,100,1.4181818181818182,30,1,5,_Remastered_Guitar,6,15,_Remastered_Guitar,0.9994935989379883,1
69,100,0.1,399,1,5,_Remastered_Guitar,6,2,_Remastered_Guitar,0.5866943597793579,0
66,100,0.16363636363636364,839,1,50,_Remastered_Guitar,6,3,_Remastered_Guitar,0.9931057095527649,0
64,100,0.36363636363636365,4,1,51,_Remastered_Guitar,6,6,_Remastered_Guitar,0.9996587038040161,1
66,100,0.23636363636363636,83,0,51,_Remastered_Guitar,6,4,_Remastered_Guitar,0.03170957416296005,0
69,100,0.32272727272727275,136,0,51,_Remastered_Guitar,6,5,_Remastered_Guitar,0.02120465599000454,0
73,100,0.2772727272727273,206,0,51,_Remastered_Guitar,6,4,_Remastered_Guitar,0.017177386209368706,0
71,100,0.2,268,0,51,_Remastered_Guitar,6,3,_Remastered_Guitar,0.013912541791796684,0
73,100,0.35909090909090907,330,0,51,_Remastered_Guitar,6,6,_Remastered_Guitar,0.013075743801891804,0
69,100,0.2590909090909091,408,0,51,_Remastered_Guitar,6,4,_Remastered_Guitar,0.013978511095046997,0
71,100,0.2818181818181818,466,0,51,_Remastered_Guitar,6,5,_Remastered_Guitar,0.017771072685718536,0
73,100,0.3181818181818182,528,0,51,_Remastered_Guitar,6,5,_Remastered_Guitar,0.02301895245909691,0
71,100,0.18181818181818182,664,0,51,_Remastered_Guitar,6,3,_Remastered_Guitar,0.03375473618507385,0
73,100,0.9363636363636364,721,0,51,_Remastered_Guitar,6,15,_Remastered_Guitar,0.033499687910079956,0
72,100,0.12272727272727273,48,1,52,_Remastered_Guitar,6,2,_Remastered_Guitar,0.9998297691345215,1
71,100,0.5409090909090909,75,0,52,_Remastered_Guitar,6,9,_Remastered_Guitar,0.40550801157951355,0
69,100,5.636363636363637,193,0,52,_Remastered_Guitar,6,15,_Remastered_Guitar,0.39246806502342224,0
57,100,0.3409090909090909,751,1,60,_Remastered_Guitar,6,5,_Remastered_Guitar,0.9996116757392883,1
54,100,0.2,836,0,60,_Remastered_Guitar,6,3,_Remastered_Guitar,0.5533472299575806,0
71,100,0.22272727272727272,4,1,61,_Remastered_Guitar,6,4,_Remastered_Guitar,0.9997162222862244,1
73,100,0.6181818181818182,61,0,61,_Remastered_Guitar,6,10,_Remastered_Guitar,0.0543176643550396,0
71,100,0.3409090909090909,201,0,61,_Remastered_Guitar,6,5,_Remastered_Guitar,0.05138591676950455,0
73,100,0.41818181818181815,281,0,61,_Remastered_Guitar,6,7,_Remastered_Guitar,0.049142688512802124,0
71,100,0.21818181818181817,391,0,61,_Remastered_Guitar,6,3,_Remastered_Guitar,0.057900164276361465,0
73,100,0.9590909090909091,453,0,61,_Remastered_Guitar,6,15,_Remastered_Guitar,0.059854451566934586,0
71,100,0.5,691,1,61,_Remastered_Guitar,6,8,_Remastered_Guitar,0.07912129908800125,0
69,100,1.5,804,0,61,_Remastered_Guitar,6,15,_Remastered_Guitar,0.06261619925498962,0
69,100,2.640909090909091,295,1,62,_Remastered_Guitar,6,15,_Remastered_Guitar,0.9896785020828247,0
69,100,0.3409090909090909,114,1,63,_Remastered_Guitar,6,5,_Remastered_Guitar,0.9928722381591797,0
64,100,0.3409090909090909,56,1,97,_Remastered_Guitar,6,5,_Remastered_Guitar,0.9996901750564575,1
66,100,0.2590909090909091,132,0,97,_Remastered_Guitar,6,4,_Remastered_Guitar,0.03525640815496445,0
69,100,0.2590909090909091,197,0,97,_Remastered_Guitar,6,4,_Remastered_Guitar,0.02545318193733692,0
73,100,0.2818181818181818,263,0,97,_Remastered_Guitar,6,5,_Remastered_Guitar,0.021656818687915802,0
71,100,0.21818181818181817,330,0,97,_Remastered_Guitar,6,3,_Remastered_Guitar,0.02027222327888012,0
73,100,0.6181818181818182,396,0,97,_Remastered_Guitar,6,10,_Remastered_Guitar,0.019184129312634468,0
71,100,0.4409090909090909,536,0,97,_Remastered_Guitar,6,7,_Remastered_Guitar,0.024306520819664,0
71,100,0.3181818181818182,646,0,97,_Remastered_Guitar,6,5,_Remastered_Guitar,0.031605083495378494,0
71,100,0.1409090909090909,726,0,97,_Remastered_Guitar,6,2,_Remastered_Guitar,0.04098954051733017,0
73,100,1.0,770,0,97,_Remastered_Guitar,6,15,_Remastered_Guitar,0.037129759788513184,0
71,100,0.6409090909090909,136,1,98,_Remastered_Guitar,6,10,_Remastered_Guitar,0.9996485710144043,1
73,100,0.2590909090909091,282,0,98,_Remastered_Guitar,6,4,_Remastered_Guitar,0.03841819614171982,0
71,100,0.1,343,0,98,_Remastered_Guitar,6,2,_Remastered_Guitar,0.02694779820740223,0
69,100,0.2636363636363636,377,0,98,_Remastered_Guitar,6,4,_Remastered_Guitar,0.021651776507496834,0
71,100,0.5,436,0,98,_Remastered_Guitar,6,8,_Remastered_Guitar,0.01933775097131729,0
73,100,0.35909090909090907,559,0,98,_Remastered_Guitar,6,6,_Remastered_Guitar,0.02089730091392994,0
71,100,0.1409090909090909,646,0,98,_Remastered_Guitar,6,2,_Remastered_Guitar,0.025105072185397148,0
73,100,0.1409090909090909,682,0,98,_Remastered_Guitar,6,2,_Remastered_Guitar,0.03191386163234711,0
71,100,0.2409090909090909,716,0,98,_Remastered_Guitar,6,4,_Remastered_Guitar,0.038908060640096664,0
69,100,0.6,779,0,98,_Remastered_Guitar,6,10,_Remastered_Guitar,0.0377882644534111,0
66,100,1.559090909090909,35,1,99,_Remastered_Guitar,6,15,_Remastered_Guitar,0.9997438788414001,1
66,100,0.7181818181818181,396,1,99,_Remastered_Guitar,6,11,_Remastered_Guitar,0.14633218944072723,0
64,100,0.3,563,0,99,_Remastered_Guitar,6,5,_Remastered_Guitar,0.13552448153495789,0
66,100,0.2,650,0,99,_Remastered_Guitar,6,3,_Remastered_Guitar,0.1443321406841278,0
71,100,0.17727272727272728,700,0,99,_Remastered_Guitar,6,3,_Remastered_Guitar,0.15278421342372894,0
73,100,0.6409090909090909,752,0,99,_Remastered_Guitar,6,10,_Remastered_Guitar,0.1394629031419754,0
71,100,0.5818181818181818,22,1,100,_Remastered_Guitar,6,9,_Remastered_Guitar,0.9997875094413757,1
71,100,0.1590909090909091,220,0,100,_Remastered_Guitar,6,3,_Remastered_Guitar,0.15081721544265747,0
73,100,1.0818181818181818,267,0,100,_Remastered_Guitar,6,15,_Remastered_Guitar,0.12297473102807999,0
71,100,0.4590909090909091,514,1,100,_Remastered_Guitar,6,7,_Remastered_Guitar,0.1673007309436798,0
69,100,0.5636363636363636,619,0,100,_Remastered_Guitar,6,9,_Remastered_Guitar,0.16159683465957642,0
69,100,4.840909090909091,752,0,100,_Remastered_Guitar,6,15,_Remastered_Guitar,0.13016632199287415,0
56,100,0.18181818181818182,651,1,0,DL_Guitar,6,3,DL_Guitar,0.9934419393539429,1
61,100,0.9,655,1,1,DL_Guitar,6,14,DL_Guitar,0.9919915795326233,0
63,100,0.41818181818181815,140,1,5,DL_Guitar,6,7,DL_Guitar,0.999839186668396,1
56,100,0.1409090909090909,541,1,5,DL_Guitar,6,2,DL_Guitar,0.3412539064884186,0
56,100,0.38181818181818183,575,0,5,DL_Guitar,6,6,DL_Guitar,0.28383511304855347,0
56,100,0.3181818181818182,721,0,5,DL_Guitar,6,5,DL_Guitar,0.3276192247867584,0
63,100,0.3409090909090909,153,1,6,DL_Guitar,6,5,DL_Guitar,0.9998335838317871,1
63,100,0.1409090909090909,311,0,6,DL_Guitar,6,2,DL_Guitar,0.212477907538414,0
60,100,0.1590909090909091,386,0,6,DL_Guitar,6,3,DL_Guitar,0.20644734799861908,0
53,100,0.42272727272727273,695,1,6,DL_Guitar,6,7,DL_Guitar,0.20042459666728973,0
53,100,0.23636363636363636,810,0,6,DL_Guitar,6,4,DL_Guitar,0.20653294026851654,0
63,100,0.2772727272727273,325,1,7,DL_Guitar,6,4,DL_Guitar,0.9995908141136169,1
63,100,0.6,818,1,7,DL_Guitar,6,10,DL_Guitar,0.5482185482978821,0
63,100,0.32272727272727275,321,1,8,DL_Guitar,6,5,DL_Guitar,0.9998252987861633,1
63,100,0.17727272727272728,426,0,8,DL_Guitar,6,3,DL_Guitar,0.4191407263278961,0
53,100,0.12272727272727273,795,1,8,DL_Guitar,6,2,DL_Guitar,0.43068939447402954,0
63,100,0.2636363636363636,862,1,9,DL_Guitar,6,4,DL_Guitar,0.9931873083114624,0
56,100,0.1590909090909091,364,1,10,DL_Guitar,6,3,DL_Guitar,0.9998552799224854,1
56,100,0.13636363636363635,457,0,10,DL_Guitar,6,2,DL_Guitar,0.3270694613456726,0
56,100,0.740909090909091,527,0,10,DL_Guitar,6,12,DL_Guitar,0.2687720060348511,0
56,100,0.5590909090909091,716,0,10,DL_Guitar,6,9,DL_Guitar,0.32441475987434387,0
63,100,0.11818181818181818,110,1,11,DL_Guitar,6,2,DL_Guitar,0.9998359680175781,1
56,100,0.2409090909090909,250,0,11,DL_Guitar,6,4,DL_Guitar,0.2130315899848938,0
63,100,0.22272727272727272,443,0,11,DL_Guitar,6,4,DL_Guitar,0.19606107473373413,0
63,100,0.1,691,1,11,DL_Guitar,6,2,DL_Guitar,0.2068992257118225,0
63,100,0.3,876,0,11,DL_Guitar,6,5,DL_Guitar,0.20523576438426971,0
56,100,0.22272727272727272,70,1,12,DL_Guitar,6,4,DL_Guitar,0.999836802482605,1
63,100,0.1,144,0,12,DL_Guitar,6,2,DL_Guitar,0.2108362764120102,0
63,100,0.2,273,0,12,DL_Guitar,6,3,DL_Guitar,0.19373701512813568,0
56,100,0.2818181818181818,378,0,12,DL_Guitar,6,5,DL_Guitar,0.21057933568954468,0
63,100,0.3,598,0,12,DL_Guitar,6,5,DL_Guitar,0.20491114258766174,0
63,100,0.23636363636363636,149,1,13,DL_Guitar,6,4,DL_Guitar,0.9998542070388794,1
63,100,0.1409090909090909,333,0,13,DL_Guitar,6,2,DL_Guitar,0.3162690997123718,0
56,100,0.17727272727272728,436,0,13,DL_Guitar,6,3,DL_Guitar,0.3009926974773407,0
63,100,0.8,660,0,13,DL_Guitar,6,13,DL_Guitar,0.29759955406188965,0
63,100,1.6590909090909092,56,1,14,DL_Guitar,6,15,DL_Guitar,0.9997965693473816,1
63,100,0.3409090909090909,488,1,14,DL_Guitar,6,5,DL_Guitar,0.3989824950695038,0
56,100,0.22272727272727272,685,0,14,DL_Guitar,6,4,DL_Guitar,0.3117573857307434,0
63,100,0.42272727272727273,849,0,14,DL_Guitar,6,7,DL_Guitar,0.312252938747406,0
63,100,0.2409090909090909,140,1,15,DL_Guitar,6,4,DL_Guitar,0.9998207688331604,1
63,100,0.22272727272727272,355,0,15,DL_Guitar,6,4,DL_Guitar,0.4122796654701233,0
63,100,0.1,835,1,15,DL_Guitar,6,2,DL_Guitar,0.43714332580566406,0
56,100,0.1590909090909091,13,1,16,DL_Guitar,6,3,DL_Guitar,0.9996840953826904,1
63,100,0.6227272727272727,69,0,16,DL_Guitar,6,10,DL_Guitar,0.03292037919163704,0
63,100,0.18181818181818182,210,0,16,DL_Guitar,6,3,DL_Guitar,0.028265442699193954,0
63,100,0.1409090909090909,308,0,16,DL_Guitar,6,2,DL_Guitar,0.021063387393951416,0
63,100,0.16363636363636364,378,0,16,DL_Guitar,6,3,DL_Guitar,0.019975721836090088,0
63,100,0.4772727272727273,449,0,16,DL_Guitar,6,8,DL_Guitar,0.019645432010293007,0
63,100,0.36363636363636365,576,0,16,DL_Guitar,6,6,DL_Guitar,0.02455231547355652,0
56,100,0.2,660,0,16,DL_Guitar,6,3,DL_Guitar,0.03255488723516464,0
63,100,0.41818181818181815,725,0,16,DL_Guitar,6,7,DL_Guitar,0.03692742809653282,0
63,100,0.1409090909090909,822,0,16,DL_Guitar,6,2,DL_Guitar,0.04180055484175682,0
63,100,0.5409090909090909,21,1,17,DL_Guitar,6,9,DL_Guitar,0.999788224697113,1
63,100,0.3409090909090909,206,0,17,DL_Guitar,6,5,DL_Guitar,0.1339186131954193,0
53,100,0.1590909090909091,480,1,17,DL_Guitar,6,3,DL_Guitar,0.12918926775455475,0
53,100,0.3,532,0,17,DL_Guitar,6,5,DL_Guitar,0.13294252753257751,0
52,100,0.3,611,0,17,DL_Guitar,6,5,DL_Guitar,0.14541341364383698,0
52,100,0.2590909090909091,681,0,17,DL_Guitar,6,4,DL_Guitar,0.13662037253379822,0
53,100,0.2409090909090909,119,1,18,DL_Guitar,6,4,DL_Guitar,0.9998069405555725,1
63,100,0.2409090909090909,356,1,18,DL_Guitar,6,4,DL_Guitar,0.1223050206899643,0
63,100,0.23636363636363636,436,0,18,DL_Guitar,6,4,DL_Guitar,0.12035983800888062,0
63,100,0.22272727272727272,497,0,18,DL_Guitar,6,4,DL_Guitar,0.13842971622943878,0
63,100,0.7,625,0,18,DL_Guitar,6,11,DL_Guitar,0.13845226168632507,0
56,100,0.35909090909090907,804,0,18,DL_Guitar,6,6,DL_Guitar,0.14323556423187256,0
63,100,0.5181818181818182,21,1,19,DL_Guitar,6,8,DL_Guitar,0.9997890591621399,1
63,100,0.3181818181818182,370,1,19,DL_Guitar,6,5,DL_Guitar,0.13575056195259094,0
56,100,0.18181818181818182,453,0,19,DL_Guitar,6,3,DL_Guitar,0.13081033527851105,0
56,100,0.2590909090909091,501,0,19,DL_Guitar,6,4,DL_Guitar,0.14101386070251465,0
56,100,0.2636363636363636,576,0,19,DL_Guitar,6,4,DL_Guitar,0.14661096036434174,0
63,100,0.7818181818181819,791,0,19,DL_Guitar,6,13,DL_Guitar,0.1281895488500595,0
56,100,0.7818181818181819,88,1,20,DL_Guitar,6,13,DL_Guitar,0.9997933506965637,1
63,100,0.2409090909090909,272,0,20,DL_Guitar,6,4,DL_Guitar,0.4423869550228119,0
63,100,0.41818181818181815,449,0,20,DL_Guitar,6,7,DL_Guitar,0.43313732743263245,0
56,100,0.23636363636363636,40,1,21,DL_Guitar,6,4,DL_Guitar,0.9998267292976379,1
63,100,0.2590909090909091,106,0,21,DL_Guitar,6,4,DL_Guitar,0.2113686054944992,0
63,100,0.22272727272727272,422,1,21,DL_Guitar,6,4,DL_Guitar,0.19722145795822144,0
63,100,0.1409090909090909,550,0,21,DL_Guitar,6,2,DL_Guitar,0.21756120026111603,0
63,100,0.6181818181818182,700,0,21,DL_Guitar,6,10,DL_Guitar,0.20229938626289368,0
60,100,0.1409090909090909,198,1,22,DL_Guitar,6,2,DL_Guitar,0.999747097492218,1
63,100,0.12272727272727273,246,0,22,DL_Guitar,6,2,DL_Guitar,0.05196657404303551,0
63,100,0.1409090909090909,285,0,22,DL_Guitar,6,2,DL_Guitar,0.04556858167052269,0
63,100,0.17727272727272728,326,0,22,DL_Guitar,6,3,DL_Guitar,0.04683313146233559,0
53,100,0.17727272727272728,370,0,22,DL_Guitar,6,3,DL_Guitar,0.05397283285856247,0
63,100,0.1,523,0,22,DL_Guitar,6,2,DL_Guitar,0.05998678877949715,0
63,100,0.1590909090909091,779,1,22,DL_Guitar,6,3,DL_Guitar,0.0677819475531578,0
63,100,0.11818181818181818,845,0,22,DL_Guitar,6,2,DL_Guitar,0.06343560665845871,0
63,100,0.1409090909090909,308,1,23,DL_Guitar,6,2,DL_Guitar,0.9998342990875244,1
63,100,0.3,581,1,23,DL_Guitar,6,5,DL_Guitar,0.20400692522525787,0
56,100,0.1409090909090909,669,0,23,DL_Guitar,6,2,DL_Guitar,0.20797033607959747,0
56,100,0.1590909090909091,760,0,23,DL_Guitar,6,3,DL_Guitar,0.21284718811511993,0
63,100,0.2,810,0,23,DL_Guitar,6,3,DL_Guitar,0.19968897104263306,0
63,100,0.3,3,1,24,DL_Guitar,6,5,DL_Guitar,0.9997212290763855,1
56,100,0.3409090909090909,79,0,24,DL_Guitar,6,5,DL_Guitar,0.05631819739937782,0
60,100,0.1590909090909091,175,0,24,DL_Guitar,6,3,DL_Guitar,0.04939579591155052,0
63,100,0.13636363636363635,391,0,24,DL_Guitar,6,2,DL_Guitar,0.04599323496222496,0
60,100,0.8590909090909091,453,0,24,DL_Guitar,6,14,DL_Guitar,0.050327349454164505,0
56,100,0.1409090909090909,717,1,24,DL_Guitar,6,2,DL_Guitar,0.06619240343570709,0
68,100,0.18181818181818182,748,0,24,DL_Guitar,6,3,DL_Guitar,0.0680771991610527,0
56,100,0.2590909090909091,876,0,24,DL_Guitar,6,4,DL_Guitar,0.06129372492432594,0
63,100,0.3181818181818182,171,1,25,DL_Guitar,6,5,DL_Guitar,0.9998251795768738,1
63,100,0.1,347,0,25,DL_Guitar,6,2,DL_Guitar,0.21654914319515228,0
63,100,0.2818181818181818,378,0,25,DL_Guitar,6,5,DL_Guitar,0.19758005440235138,0
63,100,0.2636363636363636,443,0,25,DL_Guitar,6,4,DL_Guitar,0.21448254585266113,0
61,100,0.3181818181818182,735,1,25,DL_Guitar,6,5,DL_Guitar,0.21005962789058685,0
63,100,0.4590909090909091,17,1,26,DL_Guitar,6,7,DL_Guitar,0.9996045231819153,1
56,100,0.32272727272727275,642,1,26,DL_Guitar,6,5,DL_Guitar,0.5618186593055725,0
63,100,0.2,88,1,27,DL_Guitar,6,3,DL_Guitar,0.9998302459716797,1
60,100,0.2409090909090909,333,1,27,DL_Guitar,6,4,DL_Guitar,0.21631374955177307,0
60,100,0.3,519,0,27,DL_Guitar,6,5,DL_Guitar,0.1988610476255417,0
63,100,0.5181818181818182,611,0,27,DL_Guitar,6,8,DL_Guitar,0.1958972066640854,0
63,100,0.1590909090909091,743,0,27,DL_Guitar,6,3,DL_Guitar,0.22075478732585907,0
63,100,0.3,216,1,28,DL_Guitar,6,5,DL_Guitar,0.999599277973175,1
63,100,0.17727272727272728,303,0,28,DL_Guitar,6,3,DL_Guitar,0.5534347891807556,0
63,100,0.1590909090909091,0,1,29,DL_Guitar,6,3,DL_Guitar,0.999589741230011,1
63,100,0.9181818181818182,743,1,29,DL_Guitar,6,15,DL_Guitar,0.5412678718566895,0
56,100,0.3,83,1,30,DL_Guitar,6,5,DL_Guitar,0.9997555613517761,1
56,100,0.1409090909090909,154,0,30,DL_Guitar,6,2,DL_Guitar,0.08103560656309128,0
63,100,0.740909090909091,320,0,30,DL_Guitar,6,12,DL_Guitar,0.06852228939533234,0
56,100,0.13636363636363635,523,0,30,DL_Guitar,6,2,DL_Guitar,0.08879224210977554,0
63,100,0.17727272727272728,602,0,30,DL_Guitar,6,3,DL_Guitar,0.09096624702215195,0
60,100,0.11818181818181818,691,0,30,DL_Guitar,6,2,DL_Guitar,0.10537432134151459,0
63,100,0.3409090909090909,783,0,30,DL_Guitar,6,5,DL_Guitar,0.08568929135799408,0
63,100,0.3181818181818182,9,1,31,DL_Guitar,6,5,DL_Guitar,0.9997879862785339,1
63,100,0.3,83,0,31,DL_Guitar,6,5,DL_Guitar,0.12843862175941467,0
63,100,0.8227272727272728,189,0,31,DL_Guitar,6,13,DL_Guitar,0.12012506276369095,0
63,100,1.1818181818181819,443,1,31,DL_Guitar,6,15,DL_Guitar,0.13931576907634735,0
56,100,0.13636363636363635,721,1,31,DL_Guitar,6,2,DL_Guitar,0.18083006143569946,0
63,100,0.36363636363636365,752,0,31,DL_Guitar,6,6,DL_Guitar,0.141806960105896,0
63,100,0.32272727272727275,26,1,32,DL_Guitar,6,5,DL_Guitar,0.9997501969337463,1
63,100,0.4818181818181818,158,0,32,DL_Guitar,6,8,DL_Guitar,0.08047771453857422,0
56,100,0.2409090909090909,298,0,32,DL_Guitar,6,4,DL_Guitar,0.07918331027030945,0
63,100,0.1590909090909091,396,0,32,DL_Guitar,6,3,DL_Guitar,0.08088064938783646,0
61,100,0.2772727272727273,536,0,32,DL_Guitar,6,4,DL_Guitar,0.09268349409103394,0
53,100,0.2590909090909091,611,0,32,DL_Guitar,6,4,DL_Guitar,0.09984169900417328,0
63,100,0.2772727272727273,735,0,32,DL_Guitar,6,4,DL_Guitar,0.09077531099319458,0
63,100,0.6363636363636364,105,1,33,DL_Guitar,6,10,DL_Guitar,0.9998123049736023,1
56,100,0.5227272727272727,444,1,33,DL_Guitar,6,8,DL_Guitar,0.22278274595737457,0
63,100,0.35909090909090907,558,0,33,DL_Guitar,6,6,DL_Guitar,0.20505960285663605,0
63,100,0.12272727272727273,751,0,33,DL_Guitar,6,2,DL_Guitar,0.2279447615146637,0
63,100,0.6409090909090909,866,0,33,DL_Guitar,6,10,DL_Guitar,0.20793533325195312,0
63,100,0.2590909090909091,518,1,34,DL_Guitar,6,4,DL_Guitar,0.9998465776443481,1
63,100,0.2,619,0,34,DL_Guitar,6,3,DL_Guitar,0.3293739855289459,0
63,100,0.2,770,0,34,DL_Guitar,6,3,DL_Guitar,0.29344624280929565,0
61,100,0.4818181818181818,861,0,34,DL_Guitar,6,8,DL_Guitar,0.3132501244544983,0
61,100,0.1409090909090909,241,1,35,DL_Guitar,6,2,DL_Guitar,0.9998531341552734,1
63,100,0.1,361,0,35,DL_Guitar,6,2,DL_Guitar,0.30743351578712463,0
63,100,0.9227272727272727,408,0,35,DL_Guitar,6,15,DL_Guitar,0.27408865094184875,0
63,100,0.3,738,1,35,DL_Guitar,6,5,DL_Guitar,0.33204856514930725,0
63,100,0.21818181818181817,8,1,36,DL_Guitar,6,3,DL_Guitar,0.9998494386672974,1
53,100,0.13636363636363635,678,1,36,DL_Guitar,6,2,DL_Guitar,0.33652108907699585,0
61,100,0.22272727272727272,751,0,36,DL_Guitar,6,4,DL_Guitar,0.2931947112083435,0
53,100,0.5590909090909091,801,0,36,DL_Guitar,6,9,DL_Guitar,0.30050498247146606,0
65,100,0.5409090909090909,53,1,37,DL_Guitar,6,9,DL_Guitar,0.999824583530426,1
65,100,0.2818181818181818,241,0,37,DL_Guitar,6,5,DL_Guitar,0.22538907825946808,0
53,100,0.2636363636363636,311,0,37,DL_Guitar,6,4,DL_Guitar,0.19778335094451904,0
53,100,0.21818181818181817,373,0,37,DL_Guitar,6,3,DL_Guitar,0.2123429924249649,0
63,100,0.5590909090909091,545,0,37,DL_Guitar,6,9,DL_Guitar,0.19753000140190125,0
55,100,0.2772727272727273,141,1,38,DL_Guitar,6,4,DL_Guitar,0.9995946288108826,1
55,100,0.21818181818181817,418,1,38,DL_Guitar,6,3,DL_Guitar,0.5565700531005859,0
53,100,0.2,163,1,39,DL_Guitar,6,3,DL_Guitar,0.9998069405555725,1
53,100,0.1590909090909091,211,0,39,DL_Guitar,6,3,DL_Guitar,0.12420675158500671,0
53,100,0.2818181818181818,276,0,39,DL_Guitar,6,5,DL_Guitar,0.11935696750879288,0
53,100,0.43636363636363634,348,0,39,DL_Guitar,6,7,DL_Guitar,0.1328853815793991,0
63,100,0.6227272727272727,474,0,39,DL_Guitar,6,10,DL_Guitar,0.1333884596824646,0
61,100,0.11818181818181818,765,1,39,DL_Guitar,6,2,DL_Guitar,0.14959245920181274,0
63,100,0.1409090909090909,361,1,40,DL_Guitar,6,2,DL_Guitar,0.9998505115509033,1
63,100,0.1409090909090909,405,0,40,DL_Guitar,6,2,DL_Guitar,0.32721567153930664,0
63,100,0.18181818181818182,664,1,40,DL_Guitar,6,3,DL_Guitar,0.2874836325645447,0
63,100,0.12272727272727273,861,0,40,DL_Guitar,6,2,DL_Guitar,0.31245678663253784,0
63,100,0.21818181818181817,75,1,41,DL_Guitar,6,3,DL_Guitar,0.9996954202651978,1
53,100,0.3409090909090909,246,0,41,DL_Guitar,6,5,DL_Guitar,0.04373156279325485,0
63,100,0.12272727272727273,334,0,41,DL_Guitar,6,2,DL_Guitar,0.03369322046637535,0
63,100,0.18181818181818182,399,0,41,DL_Guitar,6,3,DL_Guitar,0.030018404126167297,0
53,100,0.2,448,0,41,DL_Guitar,6,3,DL_Guitar,0.031463801860809326,0
56,100,0.2,619,0,41,DL_Guitar,6,3,DL_Guitar,0.034248288720846176,0
63,100,0.1409090909090909,691,0,41,DL_Guitar,6,2,DL_Guitar,0.04047081992030144,0
63,100,0.11818181818181818,735,0,41,DL_Guitar,6,2,DL_Guitar,0.04982975125312805,0
63,100,0.33636363636363636,765,0,41,DL_Guitar,6,5,DL_Guitar,0.047333307564258575,0
63,100,0.21818181818181817,0,1,42,DL_Guitar,6,3,DL_Guitar,0.9998223185539246,1
63,100,0.2818181818181818,198,0,42,DL_Guitar,6,5,DL_Guitar,0.4221135675907135,0
63,100,0.16363636363636364,774,1,42,DL_Guitar,6,3,DL_Guitar,0.43120595812797546,0
63,100,0.3,295,1,43,DL_Guitar,6,5,DL_Guitar,0.9998144507408142,1
63,100,0.6,399,0,43,DL_Guitar,6,10,DL_Guitar,0.4015304148197174,0
53,100,0.18181818181818182,673,1,43,DL_Guitar,6,3,DL_Guitar,0.45183414220809937,0
63,100,0.12272727272727273,136,1,44,DL_Guitar,6,2,DL_Guitar,0.9998503923416138,1
63,100,0.12272727272727273,268,0,44,DL_Guitar,6,2,DL_Guitar,0.32119232416152954,0
63,100,0.1409090909090909,550,1,44,DL_Guitar,6,2,DL_Guitar,0.2973579168319702,0
63,100,0.2409090909090909,616,0,44,DL_Guitar,6,4,DL_Guitar,0.30816683173179626,0
58,100,0.18181818181818182,21,1,45,DL_Guitar,6,3,DL_Guitar,0.9997881054878235,1
53,100,0.5409090909090909,321,1,45,DL_Guitar,6,9,DL_Guitar,0.1292881816625595,0
60,100,0.16363636363636364,444,0,45,DL_Guitar,6,3,DL_Guitar,0.12630899250507355,0
53,100,0.1590909090909091,506,0,45,DL_Guitar,6,3,DL_Guitar,0.13617871701717377,0
63,100,0.18181818181818182,729,0,45,DL_Guitar,6,3,DL_Guitar,0.14080233871936798,0
63,100,0.4,861,0,45,DL_Guitar,6,6,DL_Guitar,0.1321946531534195,0
63,100,0.6818181818181818,254,1,46,DL_Guitar,6,11,DL_Guitar,0.9998165965080261,1
61,100,0.13636363636363635,458,0,46,DL_Guitar,6,2,DL_Guitar,0.2255972921848297,0
61,100,0.5,493,0,46,DL_Guitar,6,8,DL_Guitar,0.19511298835277557,0
61,100,0.21818181818181817,678,0,46,DL_Guitar,6,3,DL_Guitar,0.21638737618923187,0
61,100,0.16363636363636364,774,0,46,DL_Guitar,6,3,DL_Guitar,0.2136363685131073,0
64,100,0.1590909090909091,810,1,47,DL_Guitar,6,3,DL_Guitar,0.9936500191688538,0
53,100,0.18181818181818182,56,1,48,DL_Guitar,6,3,DL_Guitar,0.999812662601471,1
53,100,0.2818181818181818,263,0,48,DL_Guitar,6,5,DL_Guitar,0.12235881388187408,0
56,100,0.1,421,0,48,DL_Guitar,6,2,DL_Guitar,0.1222362145781517,0
63,100,0.2,483,0,48,DL_Guitar,6,3,DL_Guitar,0.13013781607151031,0
53,100,0.16363636363636364,554,0,48,DL_Guitar,6,3,DL_Guitar,0.14293652772903442,0
61,100,0.2,845,1,48,DL_Guitar,6,3,DL_Guitar,0.12783801555633545,0
56,100,0.5590909090909091,251,1,49,DL_Guitar,6,9,DL_Guitar,0.9998109936714172,1
63,100,0.9181818181818182,396,0,49,DL_Guitar,6,15,DL_Guitar,0.38519370555877686,0
63,100,0.11818181818181818,770,1,49,DL_Guitar,6,2,DL_Guitar,0.4598464369773865,0
63,100,0.41818181818181815,118,1,50,DL_Guitar,6,7,DL_Guitar,0.9998160004615784,1
63,100,0.6590909090909091,263,0,50,DL_Guitar,6,11,DL_Guitar,0.20509907603263855,0
53,100,0.18181818181818182,606,1,50,DL_Guitar,6,3,DL_Guitar,0.21931006014347076,0
63,100,0.35909090909090907,655,0,50,DL_Guitar,6,6,DL_Guitar,0.20164147019386292,0
63,100,0.1,765,0,50,DL_Guitar,6,2,DL_Guitar,0.2224297821521759,0
56,100,0.5590909090909091,31,1,51,DL_Guitar,6,9,DL_Guitar,0.9998279809951782,1
63,100,0.7227272727272728,254,0,51,DL_Guitar,6,12,DL_Guitar,0.31774526834487915,0
63,100,0.6,531,1,51,DL_Guitar,6,10,DL_Guitar,0.30108630657196045,0
63,100,0.2409090909090909,668,0,51,DL_Guitar,6,4,DL_Guitar,0.3328636586666107,0
63,100,0.5818181818181818,110,1,52,DL_Guitar,6,9,DL_Guitar,0.9998277425765991,1
63,100,0.5181818181818182,435,1,52,DL_Guitar,6,8,DL_Guitar,0.33142387866973877,0
63,100,0.37727272727272726,721,1,52,DL_Guitar,6,6,DL_Guitar,0.3088492751121521,0
63,100,0.1409090909090909,861,0,52,DL_Guitar,6,2,DL_Guitar,0.3261101245880127,0
63,100,0.9181818181818182,18,1,53,DL_Guitar,6,15,DL_Guitar,0.9998039603233337,1
56,100,0.1590909090909091,254,1,53,DL_Guitar,6,3,DL_Guitar,0.24561186134815216,0
63,100,0.18181818181818182,289,0,53,DL_Guitar,6,3,DL_Guitar,0.19610120356082916,0
63,100,0.3409090909090909,378,0,53,DL_Guitar,6,5,DL_Guitar,0.21334686875343323,0
63,100,0.5590909090909091,480,0,53,DL_Guitar,6,9,DL_Guitar,0.21458296477794647,0
53,100,0.3,26,1,54,DL_Guitar,6,5,DL_Guitar,0.9998432397842407,1
61,100,0.8363636363636363,150,0,54,DL_Guitar,6,13,DL_Guitar,0.2992992103099823,0
61,100,0.21818181818181817,370,0,54,DL_Guitar,6,3,DL_Guitar,0.3153393566608429,0
63,100,0.42272727272727273,848,1,54,DL_Guitar,6,7,DL_Guitar,0.3087421655654907,0
63,100,1.559090909090909,166,1,55,DL_Guitar,6,15,DL_Guitar,0.9998001456260681,1
60,100,0.21818181818181817,523,1,55,DL_Guitar,6,3,DL_Guitar,0.4023189842700958,0
53,100,0.1409090909090909,694,0,55,DL_Guitar,6,2,DL_Guitar,0.299782395362854,0
53,100,0.21818181818181817,735,0,55,DL_Guitar,6,3,DL_Guitar,0.31561121344566345,0
56,100,0.1590909090909091,273,1,56,DL_Guitar,6,3,DL_Guitar,0.9996191263198853,1
61,100,0.9227272727272727,421,0,56,DL_Guitar,6,15,DL_Guitar,0.5333584547042847,0
63,100,0.11818181818181818,593,1,57,DL_Guitar,6,2,DL_Guitar,0.9995923638343811,1
63,100,0.759090909090909,625,0,57,DL_Guitar,6,12,DL_Guitar,0.5461486577987671,0
63,100,0.13636363636363635,370,1,58,DL_Guitar,6,2,DL_Guitar,0.9998526573181152,1
63,100,0.11818181818181818,528,0,58,DL_Guitar,6,2,DL_Guitar,0.3198602497577667,0
53,100,0.4,655,0,58,DL_Guitar,6,6,DL_Guitar,0.2930164635181427,0
61,100,0.42272727272727273,774,0,58,DL_Guitar,6,7,DL_Guitar,0.3100784420967102,0
61,100,0.3,34,1,59,DL_Guitar,6,5,DL_Guitar,0.9930607080459595,0
63,100,1.040909090909091,553,1,64,DL_Guitar,6,15,DL_Guitar,0.9994863271713257,1
63,100,0.7181818181818181,853,1,64,DL_Guitar,6,11,DL_Guitar,0.57102370262146,0
63,100,0.1409090909090909,176,1,65,DL_Guitar,6,2,DL_Guitar,0.9996067881584167,1
63,100,0.38181818181818183,220,0,65,DL_Guitar,6,6,DL_Guitar,0.548905611038208,0
53,100,0.6,113,1,68,DL_Guitar,6,10,DL_Guitar,0.9998179078102112,1
53,100,0.6409090909090909,307,0,68,DL_Guitar,6,10,DL_Guitar,0.396114706993103,0
77,100,0.1590909090909091,593,1,68,DL_Guitar,6,3,DL_Guitar,0.44612812995910645,0
63,100,0.35909090909090907,193,1,69,DL_Guitar,6,6,DL_Guitar,0.9997921586036682,1
63,100,0.5590909090909091,276,0,69,DL_Guitar,6,9,DL_Guitar,0.1286456286907196,0
63,100,0.2,443,0,69,DL_Guitar,6,3,DL_Guitar,0.1376466453075409,0
63,100,0.1,612,0,69,DL_Guitar,6,2,DL_Guitar,0.1438685804605484,0
63,100,0.1,650,0,69,DL_Guitar,6,2,DL_Guitar,0.15181614458560944,0
63,100,1.6181818181818182,700,0,69,DL_Guitar,6,15,DL_Guitar,0.12758642435073853,0
53,100,0.2590909090909091,343,1,70,DL_Guitar,6,4,DL_Guitar,0.999848484992981,1
53,100,0.9,462,0,70,DL_Guitar,6,14,DL_Guitar,0.2941286861896515,0
65,100,0.35909090909090907,682,0,70,DL_Guitar,6,6,DL_Guitar,0.3114032447338104,0
53,100,0.11818181818181818,766,0,70,DL_Guitar,6,2,DL_Guitar,0.31201544404029846,0
65,100,0.16363636363636364,3,1,71,DL_Guitar,6,3,DL_Guitar,0.9998393058776855,1
77,100,0.23636363636363636,260,1,71,DL_Guitar,6,4,DL_Guitar,0.19663062691688538,0
77,100,0.4,320,0,71,DL_Guitar,6,6,DL_Guitar,0.19485263526439667,0
77,100,0.3,413,0,71,DL_Guitar,6,5,DL_Guitar,0.20789465308189392,0
63,100,0.2636363636363636,509,0,71,DL_Guitar,6,4,DL_Guitar,0.2055242359638214,0
63,100,0.11818181818181818,96,1,72,DL_Guitar,6,2,DL_Guitar,0.999805748462677,1
63,100,0.21818181818181817,700,1,72,DL_Guitar,6,3,DL_Guitar,0.1242128312587738,0
63,100,0.1,756,0,72,DL_Guitar,6,2,DL_Guitar,0.1250419020652771,0
75,100,0.1,783,0,72,DL_Guitar,6,2,DL_Guitar,0.13103191554546356,0
63,100,0.3,805,0,72,DL_Guitar,6,5,DL_Guitar,0.14814285933971405,0
75,100,0.1,870,0,72,DL_Guitar,6,2,DL_Guitar,0.13805286586284637,0
75,100,0.2,30,1,73,DL_Guitar,6,3,DL_Guitar,0.9998226761817932,1
63,100,0.35909090909090907,74,0,73,DL_Guitar,6,6,DL_Guitar,0.40951454639434814,0
63,100,0.8636363636363636,157,0,73,DL_Guitar,6,14,DL_Guitar,0.42256370186805725,0
62,100,0.8409090909090909,466,1,74,DL_Guitar,6,13,DL_Guitar,0.9996053576469421,1
62,100,0.22272727272727272,663,0,74,DL_Guitar,6,4,DL_Guitar,0.5604123473167419,0
62,100,0.1590909090909091,9,1,75,DL_Guitar,6,3,DL_Guitar,0.9998447895050049,1
59,100,1.0818181818181818,92,0,75,DL_Guitar,6,15,DL_Guitar,0.28962039947509766,0
61,100,1.0363636363636364,567,1,75,DL_Guitar,6,15,DL_Guitar,0.3112146854400635,0
59,100,1.1590909090909092,823,1,75,DL_Guitar,6,15,DL_Guitar,0.3274073004722595,0
61,100,1.2,202,1,76,DL_Guitar,6,15,DL_Guitar,0.9994151592254639,1
61,100,3.2,509,1,76,DL_Guitar,6,15,DL_Guitar,0.5481514930725098,0
62,100,1.2227272727272727,343,1,77,DL_Guitar,6,15,DL_Guitar,0.9995222091674805,1
62,100,0.5,853,1,77,DL_Guitar,6,8,DL_Guitar,0.5739275813102722,0
57,100,0.4590909090909091,132,1,78,DL_Guitar,6,7,DL_Guitar,0.9998086094856262,1
62,100,0.8181818181818182,502,1,78,DL_Guitar,6,13,DL_Guitar,0.40882742404937744,0
62,100,0.3,826,1,78,DL_Guitar,6,5,DL_Guitar,0.44730502367019653,0
54,100,0.12272727272727273,26,1,79,DL_Guitar,6,2,DL_Guitar,0.9998061060905457,1
62,100,0.13636363636363635,83,0,79,DL_Guitar,6,2,DL_Guitar,0.12863923609256744,0
68,100,0.2,123,0,79,DL_Guitar,6,3,DL_Guitar,0.12058892101049423,0
68,100,0.12272727272727273,377,1,79,DL_Guitar,6,2,DL_Guitar,0.1401781588792801,0
68,100,0.5227272727272727,509,0,79,DL_Guitar,6,8,DL_Guitar,0.13835588097572327,0
61,100,0.8363636363636363,633,0,79,DL_Guitar,6,13,DL_Guitar,0.12982700765132904,0
59,100,0.41818181818181815,9,1,80,DL_Guitar,6,7,DL_Guitar,0.9997895359992981,1
59,100,0.11818181818181818,132,0,80,DL_Guitar,6,2,DL_Guitar,0.1356092393398285,0
64,100,0.7363636363636363,303,0,80,DL_Guitar,6,12,DL_Guitar,0.11536889523267746,0
61,100,0.17727272727272728,646,1,80,DL_Guitar,6,3,DL_Guitar,0.1450672596693039,0
69,100,0.2590909090909091,713,0,80,DL_Guitar,6,4,DL_Guitar,0.14522790908813477,0
62,100,0.4409090909090909,779,0,80,DL_Guitar,6,7,DL_Guitar,0.1362389177083969,0
62,100,0.13636363636363635,17,1,81,DL_Guitar,6,2,DL_Guitar,0.9998389482498169,1
62,100,0.5772727272727273,53,0,81,DL_Guitar,6,9,DL_Guitar,0.19244396686553955,0
59,100,0.3,597,1,81,DL_Guitar,6,5,DL_Guitar,0.20555374026298523,0
68,100,0.6181818181818182,677,0,81,DL_Guitar,6,10,DL_Guitar,0.20792466402053833,0
52,100,0.12272727272727273,817,0,81,DL_Guitar,6,2,DL_Guitar,0.22138334810733795,0
68,100,0.18181818181818182,3,1,82,DL_Guitar,6,3,DL_Guitar,0.9996819496154785,1
57,100,0.3181818181818182,66,0,82,DL_Guitar,6,5,DL_Guitar,0.035090912133455276,0
61,100,0.2,166,0,82,DL_Guitar,6,3,DL_Guitar,0.025206945836544037,0
61,100,0.2590909090909091,273,0,82,DL_Guitar,6,4,DL_Guitar,0.02087944746017456,0
64,100,0.2818181818181818,330,0,82,DL_Guitar,6,5,DL_Guitar,0.019746355712413788,0
57,100,0.37727272727272726,436,0,82,DL_Guitar,6,6,DL_Guitar,0.018522078171372414,0
61,100,0.2772727272727273,567,0,82,DL_Guitar,6,4,DL_Guitar,0.02332589216530323,0
57,100,0.2590909090909091,633,0,82,DL_Guitar,6,4,DL_Guitar,0.02958669699728489,0
61,100,0.2590909090909091,700,0,82,DL_Guitar,6,4,DL_Guitar,0.037716928869485855,0
61,100,0.4409090909090909,826,0,82,DL_Guitar,6,7,DL_Guitar,0.038296833634376526,0
59,100,0.12272727272727273,92,1,83,DL_Guitar,6,2,DL_Guitar,0.9998053908348083,1
64,100,0.17727272727272728,127,0,83,DL_Guitar,6,3,DL_Guitar,0.12925587594509125,0
57,100,0.33636363636363636,193,0,83,DL_Guitar,6,5,DL_Guitar,0.11927318572998047,0
61,100,0.5227272727272727,320,0,83,DL_Guitar,6,8,DL_Guitar,0.13981077075004578,0
57,100,0.9590909090909091,483,0,83,DL_Guitar,6,15,DL_Guitar,0.14187228679656982,0
62,100,1.2,703,0,83,DL_Guitar,6,15,DL_Guitar,0.1407337635755539,0
62,100,0.1409090909090909,263,1,84,DL_Guitar,6,2,DL_Guitar,0.9998613595962524,1
52,100,0.1,663,1,84,DL_Guitar,6,2,DL_Guitar,0.3289070129394531,0
64,100,0.16363636363636364,752,0,84,DL_Guitar,6,3,DL_Guitar,0.2887342572212219,0
68,100,0.1590909090909091,810,0,84,DL_Guitar,6,3,DL_Guitar,0.2944434881210327,0
64,100,0.18181818181818182,66,1,85,DL_Guitar,6,3,DL_Guitar,0.9997838139533997,1
64,100,0.11818181818181818,197,0,85,DL_Guitar,6,2,DL_Guitar,0.07983122766017914,0
59,100,0.23636363636363636,237,0,85,DL_Guitar,6,4,DL_Guitar,0.0721401646733284,0
64,100,0.16363636363636364,289,0,85,DL_Guitar,6,3,DL_Guitar,0.08215781301259995,0
57,100,0.3181818181818182,493,0,85,DL_Guitar,6,5,DL_Guitar,0.08707203716039658,0
57,100,0.759090909090909,567,0,85,DL_Guitar,6,12,DL_Guitar,0.09046000987291336,0
57,100,0.8409090909090909,752,0,85,DL_Guitar,6,13,DL_Guitar,0.0889093428850174,0
61,100,0.32272727272727275,56,1,86,DL_Guitar,6,5,DL_Guitar,0.9998292922973633,1
61,100,1.0,140,0,86,DL_Guitar,6,15,DL_Guitar,0.18555288016796112,0
64,100,0.2772727272727273,559,1,86,DL_Guitar,6,4,DL_Guitar,0.22503866255283356,0
62,100,1.0,624,0,86,DL_Guitar,6,15,DL_Guitar,0.19747942686080933,0
62,100,0.1409090909090909,849,0,86,DL_Guitar,6,2,DL_Guitar,0.23130185902118683,0
57,100,0.21818181818181817,17,1,87,DL_Guitar,6,3,DL_Guitar,0.9998483657836914,1
62,100,0.6590909090909091,210,0,87,DL_Guitar,6,11,DL_Guitar,0.31768035888671875,0
68,100,0.32272727272727275,773,1,87,DL_Guitar,6,5,DL_Guitar,0.29240891337394714,0
68,100,0.1409090909090909,862,0,87,DL_Guitar,6,2,DL_Guitar,0.3163689076900482,0
68,100,1.459090909090909,87,1,88,DL_Guitar,6,15,DL_Guitar,0.9994995594024658,1
68,100,0.18181818181818182,417,1,88,DL_Guitar,6,3,DL_Guitar,0.5879027247428894,0
62,100,0.12272727272727273,509,1,89,DL_Guitar,6,2,DL_Guitar,0.9936269521713257,0
61,100,0.3,480,1,90,DL_Guitar,6,5,DL_Guitar,0.9998408555984497,1
64,100,0.2818181818181818,553,0,90,DL_Guitar,6,5,DL_Guitar,0.21578563749790192,0
64,100,0.3,619,0,90,DL_Guitar,6,5,DL_Guitar,0.20506218075752258,0
61,100,0.5,690,0,90,DL_Guitar,6,8,DL_Guitar,0.20196592807769775,0
57,100,1.7363636363636363,810,0,90,DL_Guitar,6,15,DL_Guitar,0.19380971789360046,0
62,100,0.3181818181818182,316,1,91,DL_Guitar,6,5,DL_Guitar,0.9932524561882019,0
68,100,0.17727272727272728,546,1,92,DL_Guitar,6,3,DL_Guitar,0.9998359680175781,1
69,100,0.4590909090909091,646,0,92,DL_Guitar,6,7,DL_Guitar,0.20075958967208862,0
57,100,0.2,747,0,92,DL_Guitar,6,3,DL_Guitar,0.20801463723182678,0
64,100,0.2,805,0,92,DL_Guitar,6,3,DL_Guitar,0.21945124864578247,0
57,100,0.5590909090909091,853,0,92,DL_Guitar,6,9,DL_Guitar,0.1926795393228531,0
61,100,0.3181818181818182,110,1,93,DL_Guitar,6,5,DL_Guitar,0.9998199343681335,1
57,100,0.4,229,0,93,DL_Guitar,6,6,DL_Guitar,0.4081585705280304,0
61,100,0.17727272727272728,383,0,93,DL_Guitar,6,3,DL_Guitar,0.43493035435676575,0
68,100,0.12272727272727273,255,1,94,DL_Guitar,6,2,DL_Guitar,0.9998568296432495,1
68,100,0.1,509,1,94,DL_Guitar,6,2,DL_Guitar,0.32439297437667847,0
59,100,0.36363636363636365,663,0,94,DL_Guitar,6,6,DL_Guitar,0.27874547243118286,0
61,100,0.2409090909090909,773,0,94,DL_Guitar,6,4,DL_Guitar,0.3065233826637268,0
64,100,0.3181818181818182,140,1,95,DL_Guitar,6,5,DL_Guitar,0.9998363256454468,1
57,100,0.5409090909090909,210,0,95,DL_Guitar,6,9,DL_Guitar,0.20711494982242584,0
64,100,0.2,347,0,95,DL_Guitar,6,3,DL_Guitar,0.2114379107952118,0
57,100,1.0772727272727274,413,0,95,DL_Guitar,6,15,DL_Guitar,0.18751651048660278,0
56,100,0.9181818181818182,656,1,95,DL_Guitar,6,15,DL_Guitar,0.2194644957780838,0
62,100,0.12272727272727273,26,1,96,DL_Guitar,6,2,DL_Guitar,0.9996528625488281,1
52,100,0.1590909090909091,550,1,96,DL_Guitar,6,3,DL_Guitar,0.5532311797142029,0
57,100,1.8,233,1,97,DL_Guitar,6,15,DL_Guitar,0.9994503855705261,1
57,100,0.2590909090909091,823,1,97,DL_Guitar,6,4,DL_Guitar,0.5907792448997498,0
57,100,0.6590909090909091,166,1,98,DL_Guitar,6,11,DL_Guitar,0.9996967315673828,1
62,100,0.3,320,0,98,DL_Guitar,6,5,DL_Guitar,0.060842737555503845,0
62,100,0.2590909090909091,430,0,98,DL_Guitar,6,4,DL_Guitar,0.04902404174208641,0
57,100,0.2409090909090909,527,0,98,DL_Guitar,6,4,DL_Guitar,0.04591478407382965,0
62,100,0.11818181818181818,580,0,98,DL_Guitar,6,2,DL_Guitar,0.055898938328027725,0
62,100,0.1,633,0,98,DL_Guitar,6,2,DL_Guitar,0.06276746839284897,0
57,100,0.12272727272727273,695,0,98,DL_Guitar,6,2,DL_Guitar,0.06659049540758133,0
68,100,0.11818181818181818,876,0,98,DL_Guitar,6,2,DL_Guitar,0.06295890361070633,0
68,100,0.2,53,1,99,DL_Guitar,6,3,DL_Guitar,0.9997251629829407,1
68,100,0.2,110,0,99,DL_Guitar,6,3,DL_Guitar,0.055859606713056564,0
68,100,0.1409090909090909,197,0,99,DL_Guitar,6,2,DL_Guitar,0.04735571891069412,0
59,100,0.35909090909090907,316,0,99,DL_Guitar,6,6,DL_Guitar,0.04605453461408615,0
68,100,0.11818181818181818,726,1,99,DL_Guitar,6,2,DL_Guitar,0.053630948066711426,0
61,100,0.3181818181818182,770,0,99,DL_Guitar,6,5,DL_Guitar,0.0577985942363739,0
68,100,0.1409090909090909,844,0,99,DL_Guitar,6,2,DL_Guitar,0.06753584742546082,0
61,100,0.2,876,0,99,DL_Guitar,6,3,DL_Guitar,0.061163440346717834,0
64,100,0.23636363636363636,40,1,100,DL_Guitar,6,4,DL_Guitar,0.9998480081558228,1
61,100,0.5,96,0,100,DL_Guitar,6,8,DL_Guitar,0.3091640770435333,0
61,100,0.6181818181818182,237,0,100,DL_Guitar,6,10,DL_Guitar,0.29106807708740234,0
64,100,0.5181818181818182,483,1,100,DL_Guitar,6,8,DL_Guitar,0.3206902742385864,0
57,100,0.18181818181818182,189,1,101,DL_Guitar,6,3,DL_Guitar,0.9998553991317749,1
52,100,0.1,282,0,101,DL_Guitar,6,2,DL_Guitar,0.3296717703342438,0
52,100,0.1,330,0,101,DL_Guitar,6,2,DL_Guitar,0.29271838068962097,0
52,100,0.38181818181818183,813,1,101,DL_Guitar,6,6,DL_Guitar,0.2966786324977875,0
64,100,0.11818181818181818,87,1,104,DL_Guitar,6,2,DL_Guitar,0.9997411370277405,1
57,100,0.2,255,0,104,DL_Guitar,6,3,DL_Guitar,0.05325876176357269,0
57,100,0.13636363636363635,370,0,104,DL_Guitar,6,2,DL_Guitar,0.04778166860342026,0
57,100,0.2590909090909091,413,0,104,DL_Guitar,6,4,DL_Guitar,0.047370195388793945,0
52,100,0.2590909090909091,480,0,104,DL_Guitar,6,4,DL_Guitar,0.05592377856373787,0
57,100,0.21818181818181817,536,0,104,DL_Guitar,6,3,DL_Guitar,0.05767480283975601,0
57,100,0.3,597,0,104,DL_Guitar,6,5,DL_Guitar,0.06628601998090744,0
57,100,0.8409090909090909,695,0,104,DL_Guitar,6,13,DL_Guitar,0.05976906418800354,0
64,100,0.18181818181818182,202,1,105,DL_Guitar,6,3,DL_Guitar,0.9933799505233765,1
52,100,0.6227272727272727,246,1,0,DL_Remix_emotional_folk_Guitar,6,10,DL_Remix_emotional_folk_Guitar,0.9997977614402771,1
59,100,0.2590909090909091,396,0,0,DL_Remix_emotional_folk_Guitar,6,4,DL_Remix_emotional_folk_Guitar,0.1275956630706787,0
59,100,0.2,492,0,0,DL_Remix_emotional_folk_Guitar,6,3,DL_Remix_emotional_folk_Guitar,0.12559406459331512,0
59,100,0.21818181818181817,559,0,0,DL_Remix_emotional_folk_Guitar,6,3,DL_Remix_emotional_folk_Guitar,0.13360989093780518,0
59,100,0.18181818181818182,752,0,0,DL_Remix_emotional_folk_Guitar,6,3,DL_Remix_emotional_folk_Guitar,0.1491323858499527,0
59,100,0.3,867,0,0,DL_Remix_emotional_folk_Guitar,6,5,DL_Remix_emotional_folk_Guitar,0.13209474086761475,0
59,100,0.3409090909090909,136,1,1,DL_Remix_emotional_folk_Guitar,6,5,DL_Remix_emotional_folk_Guitar,0.9998468160629272,1
52,100,0.32272727272727275,356,0,1,DL_Remix_emotional_folk_Guitar,6,5,DL_Remix_emotional_folk_Guitar,0.3358030617237091,0
59,100,0.4590909090909091,458,0,1,DL_Remix_emotional_folk_Guitar,6,7,DL_Remix_emotional_folk_Guitar,0.2792404294013977,0
61,100,0.18181818181818182,606,0,1,DL_Remix_emotional_folk_Guitar,6,3,DL_Remix_emotional_folk_Guitar,0.320846825838089,0
66,100,0.2,663,1,2,DL_Remix_emotional_folk_Guitar,6,3,DL_Remix_emotional_folk_Guitar,0.9933098554611206,0
54,100,0.42272727272727273,34,1,3,DL_Remix_emotional_folk_Guitar,6,7,DL_Remix_emotional_folk_Guitar,0.9997557997703552,1
54,100,0.1409090909090909,131,0,3,DL_Remix_emotional_folk_Guitar,6,2,DL_Remix_emotional_folk_Guitar,0.08547139167785645,0
54,100,0.41818181818181815,396,1,3,DL_Remix_emotional_folk_Guitar,6,7,DL_Remix_emotional_folk_Guitar,0.07239838689565659,0
54,100,0.1590909090909091,506,0,3,DL_Remix_emotional_folk_Guitar,6,3,DL_Remix_emotional_folk_Guitar,0.08642764389514923,0
54,100,0.2818181818181818,553,0,3,DL_Remix_emotional_folk_Guitar,6,5,DL_Remix_emotional_folk_Guitar,0.0901142954826355,0
54,100,0.1590909090909091,629,0,3,DL_Remix_emotional_folk_Guitar,6,3,DL_Remix_emotional_folk_Guitar,0.1025729849934578,0
54,100,0.7,858,0,3,DL_Remix_emotional_folk_Guitar,6,11,DL_Remix_emotional_folk_Guitar,0.0856376439332962,0
54,100,0.38181818181818183,135,1,4,DL_Remix_emotional_folk_Guitar,6,6,DL_Remix_emotional_folk_Guitar,0.9997938275337219,1
54,100,0.1409090909090909,383,1,4,DL_Remix_emotional_folk_Guitar,6,2,DL_Remix_emotional_folk_Guitar,0.12888172268867493,0
54,100,0.17727272727272728,427,0,4,DL_Remix_emotional_folk_Guitar,6,3,DL_Remix_emotional_folk_Guitar,0.12311290204524994,0
59,100,0.6181818181818182,470,0,4,DL_Remix_emotional_folk_Guitar,6,10,DL_Remix_emotional_folk_Guitar,0.13122017681598663,0
54,100,0.11818181818181818,624,0,4,DL_Remix_emotional_folk_Guitar,6,2,DL_Remix_emotional_folk_Guitar,0.15600040555000305,0
59,100,0.6227272727272727,739,0,4,DL_Remix_emotional_folk_Guitar,6,10,DL_Remix_emotional_folk_Guitar,0.1340053230524063,0
59,100,0.1409090909090909,0,1,5,DL_Remix_emotional_folk_Guitar,6,2,DL_Remix_emotional_folk_Guitar,0.9998307228088379,1
54,100,0.18181818181818182,189,0,5,DL_Remix_emotional_folk_Guitar,6,3,DL_Remix_emotional_folk_Guitar,0.4126127064228058,0
59,100,0.1,782,1,5,DL_Remix_emotional_folk_Guitar,6,2,DL_Remix_emotional_folk_Guitar,0.4268644154071808,0
52,100,0.1409090909090909,0,1,6,DL_Remix_emotional_folk_Guitar,6,2,DL_Remix_emotional_folk_Guitar,0.9998588562011719,1
59,100,0.2409090909090909,245,1,6,DL_Remix_emotional_folk_Guitar,6,4,DL_Remix_emotional_folk_Guitar,0.31657329201698303,0
52,100,0.41818181818181815,440,0,6,DL_Remix_emotional_folk_Guitar,6,7,DL_Remix_emotional_folk_Guitar,0.29827365279197693,0
52,100,1.1227272727272728,871,1,6,DL_Remix_emotional_folk_Guitar,6,15,DL_Remix_emotional_folk_Guitar,0.2920646071434021,0
59,100,0.11818181818181818,263,1,7,DL_Remix_emotional_folk_Guitar,6,2,DL_Remix_emotional_folk_Guitar,0.999806821346283,1
63,100,0.12272727272727273,541,1,7,DL_Remix_emotional_folk_Guitar,6,2,DL_Remix_emotional_folk_Guitar,0.12272288650274277,0
63,100,0.1,585,0,7,DL_Remix_emotional_folk_Guitar,6,2,DL_Remix_emotional_folk_Guitar,0.12318035960197449,0
63,100,0.2772727272727273,647,0,7,DL_Remix_emotional_folk_Guitar,6,4,DL_Remix_emotional_folk_Guitar,0.13498981297016144,0
63,100,0.22272727272727272,739,0,7,DL_Remix_emotional_folk_Guitar,6,4,DL_Remix_emotional_folk_Guitar,0.15015102922916412,0
63,100,0.2,826,0,7,DL_Remix_emotional_folk_Guitar,6,3,DL_Remix_emotional_folk_Guitar,0.13659995794296265,0
59,100,0.7,53,1,8,DL_Remix_emotional_folk_Guitar,6,11,DL_Remix_emotional_folk_Guitar,0.9998257756233215,1
59,100,0.4772727272727273,237,0,8,DL_Remix_emotional_folk_Guitar,6,8,DL_Remix_emotional_folk_Guitar,0.35028982162475586,0
56,100,0.22272727272727272,519,1,8,DL_Remix_emotional_folk_Guitar,6,4,DL_Remix_emotional_folk_Guitar,0.3056966960430145,0
56,100,0.2636363636363636,818,1,8,DL_Remix_emotional_folk_Guitar,6,4,DL_Remix_emotional_folk_Guitar,0.3164937198162079,0
56,100,0.4818181818181818,3,1,9,DL_Remix_emotional_folk_Guitar,6,8,DL_Remix_emotional_folk_Guitar,0.9998400211334229,1
56,100,0.33636363636363636,259,1,9,DL_Remix_emotional_folk_Guitar,6,5,DL_Remix_emotional_folk_Guitar,0.33482709527015686,0
56,100,0.7636363636363637,553,1,9,DL_Remix_emotional_folk_Guitar,6,12,DL_Remix_emotional_folk_Guitar,0.2856573164463043,0
56,100,0.9818181818181818,725,0,9,DL_Remix_emotional_folk_Guitar,6,15,DL_Remix_emotional_folk_Guitar,0.3157344162464142,0
57,100,0.3409090909090909,144,1,10,DL_Remix_emotional_folk_Guitar,6,5,DL_Remix_emotional_folk_Guitar,0.9998342990875244,1
52,100,0.17727272727272728,369,0,10,DL_Remix_emotional_folk_Guitar,6,3,DL_Remix_emotional_folk_Guitar,0.22084610164165497,0
52,100,0.1,440,0,10,DL_Remix_emotional_folk_Guitar,6,2,DL_Remix_emotional_folk_Guitar,0.1943206936120987,0
64,100,0.18181818181818182,620,0,10,DL_Remix_emotional_folk_Guitar,6,3,DL_Remix_emotional_folk_Guitar,0.19996517896652222,0
64,100,0.12272727272727273,663,0,10,DL_Remix_emotional_folk_Guitar,6,2,DL_Remix_emotional_folk_Guitar,0.19641093909740448,0
59,100,0.12272727272727273,519,1,11,DL_Remix_emotional_folk_Guitar,6,2,DL_Remix_emotional_folk_Guitar,0.9996229410171509,1
59,100,0.5590909090909091,845,1,11,DL_Remix_emotional_folk_Guitar,6,9,DL_Remix_emotional_folk_Guitar,0.5383800864219666,0
59,100,0.2,259,1,12,DL_Remix_emotional_folk_Guitar,6,3,DL_Remix_emotional_folk_Guitar,0.9998317956924438,1
52,100,0.11818181818181818,589,1,12,DL_Remix_emotional_folk_Guitar,6,2,DL_Remix_emotional_folk_Guitar,0.41717594861984253,0
59,100,0.18181818181818182,804,0,12,DL_Remix_emotional_folk_Guitar,6,3,DL_Remix_emotional_folk_Guitar,0.41977453231811523,0
63,100,0.7227272727272728,443,1,13,DL_Remix_emotional_folk_Guitar,6,12,DL_Remix_emotional_folk_Guitar,0.9998043179512024,1
59,100,0.2,606,0,13,DL_Remix_emotional_folk_Guitar,6,3,DL_Remix_emotional_folk_Guitar,0.4452976882457733,0
63,100,1.0,673,0,13,DL_Remix_emotional_folk_Guitar,6,15,DL_Remix_emotional_folk_Guitar,0.4126896858215332,0
56,100,1.3636363636363635,510,1,14,DL_Remix_emotional_folk_Guitar,6,15,DL_Remix_emotional_folk_Guitar,0.9910659193992615,0
56,100,0.3,273,1,15,DL_Remix_emotional_folk_Guitar,6,5,DL_Remix_emotional_folk_Guitar,0.9998509883880615,1
54,100,0.1409090909090909,629,1,15,DL_Remix_emotional_folk_Guitar,6,2,DL_Remix_emotional_folk_Guitar,0.3264198303222656,0
59,100,0.5363636363636364,744,0,15,DL_Remix_emotional_folk_Guitar,6,9,DL_Remix_emotional_folk_Guitar,0.28718769550323486,0
52,100,0.7181818181818181,866,0,15,DL_Remix_emotional_folk_Guitar,6,11,DL_Remix_emotional_folk_Guitar,0.30520784854888916,0
57,100,0.7,144,1,16,DL_Remix_emotional_folk_Guitar,6,11,DL_Remix_emotional_folk_Guitar,0.9998051524162292,1
64,100,0.5409090909090909,299,0,16,DL_Remix_emotional_folk_Guitar,6,9,DL_Remix_emotional_folk_Guitar,0.44076648354530334,0
54,100,0.2409090909090909,440,0,16,DL_Remix_emotional_folk_Guitar,6,4,DL_Remix_emotional_folk_Guitar,0.4333800673484802,0
59,100,0.4409090909090909,52,1,17,DL_Remix_emotional_folk_Guitar,6,7,DL_Remix_emotional_folk_Guitar,0.9998409748077393,1
52,100,0.2,220,0,17,DL_Remix_emotional_folk_Guitar,6,3,DL_Remix_emotional_folk_Guitar,0.3429892063140869,0
52,100,0.6818181818181818,351,0,17,DL_Remix_emotional_folk_Guitar,6,11,DL_Remix_emotional_folk_Guitar,0.2790708839893341,0
61,100,0.7,660,1,17,DL_Remix_emotional_folk_Guitar,6,11,DL_Remix_emotional_folk_Guitar,0.3116065561771393,0
54,100,0.2409090909090909,92,1,18,DL_Remix_emotional_folk_Guitar,6,4,DL_Remix_emotional_folk_Guitar,0.9998346567153931,1
54,100,0.1409090909090909,154,0,18,DL_Remix_emotional_folk_Guitar,6,2,DL_Remix_emotional_folk_Guitar,0.21070562303066254,0
64,100,0.35909090909090907,395,1,18,DL_Remix_emotional_folk_Guitar,6,6,DL_Remix_emotional_folk_Guitar,0.2011360228061676,0
63,100,0.1409090909090909,515,0,18,DL_Remix_emotional_folk_Guitar,6,2,DL_Remix_emotional_folk_Guitar,0.20212893187999725,0
52,100,0.7,708,0,18,DL_Remix_emotional_folk_Guitar,6,11,DL_Remix_emotional_folk_Guitar,0.20397232472896576,0
57,100,0.2818181818181818,0,1,19,DL_Remix_emotional_folk_Guitar,6,5,DL_Remix_emotional_folk_Guitar,0.999600350856781,1
64,100,0.5590909090909091,140,0,19,DL_Remix_emotional_folk_Guitar,6,9,DL_Remix_emotional_folk_Guitar,0.5530891418457031,0
59,100,0.2,351,1,20,DL_Remix_emotional_folk_Guitar,6,3,DL_Remix_emotional_folk_Guitar,0.9998518228530884,1
64,100,0.2590909090909091,492,0,20,DL_Remix_emotional_folk_Guitar,6,4,DL_Remix_emotional_folk_Guitar,0.3392595648765564,0
64,100,0.1590909090909091,650,0,20,DL_Remix_emotional_folk_Guitar,6,3,DL_Remix_emotional_folk_Guitar,0.2921169400215149,0
59,100,0.17727272727272728,831,0,20,DL_Remix_emotional_folk_Guitar,6,3,DL_Remix_emotional_folk_Guitar,0.2928680181503296,0
59,100,0.33636363636363636,106,1,21,DL_Remix_emotional_folk_Guitar,6,5,DL_Remix_emotional_folk_Guitar,0.9996232986450195,1
59,100,0.2818181818181818,708,1,21,DL_Remix_emotional_folk_Guitar,6,5,DL_Remix_emotional_folk_Guitar,0.5525772571563721,0
54,100,0.1,457,1,22,DL_Remix_emotional_folk_Guitar,6,2,DL_Remix_emotional_folk_Guitar,0.9998145699501038,1
66,100,0.2590909090909091,480,0,22,DL_Remix_emotional_folk_Guitar,6,4,DL_Remix_emotional_folk_Guitar,0.1258651465177536,0
59,100,0.18181818181818182,540,0,22,DL_Remix_emotional_folk_Guitar,6,3,DL_Remix_emotional_folk_Guitar,0.12078573554754257,0
66,100,0.2,625,0,22,DL_Remix_emotional_folk_Guitar,6,3,DL_Remix_emotional_folk_Guitar,0.13491618633270264,0
66,100,0.11818181818181818,704,0,22,DL_Remix_emotional_folk_Guitar,6,2,DL_Remix_emotional_folk_Guitar,0.13789397478103638,0
52,100,0.4590909090909091,791,0,22,DL_Remix_emotional_folk_Guitar,6,7,DL_Remix_emotional_folk_Guitar,0.12618276476860046,0
52,100,0.2,44,1,23,DL_Remix_emotional_folk_Guitar,6,3,DL_Remix_emotional_folk_Guitar,0.9998099207878113,1
57,100,0.7227272727272728,113,0,23,DL_Remix_emotional_folk_Guitar,6,12,DL_Remix_emotional_folk_Guitar,0.1139754131436348,0
64,100,0.2818181818181818,505,1,23,DL_Remix_emotional_folk_Guitar,6,5,DL_Remix_emotional_folk_Guitar,0.13241197168827057,0
57,100,0.16363636363636364,663,0,23,DL_Remix_emotional_folk_Guitar,6,3,DL_Remix_emotional_folk_Guitar,0.13189998269081116,0
57,100,0.3,717,0,23,DL_Remix_emotional_folk_Guitar,6,5,DL_Remix_emotional_folk_Guitar,0.13888563215732574,0
64,100,0.6590909090909091,822,0,23,DL_Remix_emotional_folk_Guitar,6,11,DL_Remix_emotional_folk_Guitar,0.13260091841220856,0
59,100,0.13636363636363635,106,1,24,DL_Remix_emotional_folk_Guitar,6,2,DL_Remix_emotional_folk_Guitar,0.999829888343811,1
59,100,0.11818181818181818,303,0,24,DL_Remix_emotional_folk_Guitar,6,2,DL_Remix_emotional_folk_Guitar,0.40874961018562317,0
64,100,1.0772727272727274,700,1,24,DL_Remix_emotional_folk_Guitar,6,15,DL_Remix_emotional_folk_Guitar,0.41438350081443787,0
59,100,0.13636363636363635,260,1,25,DL_Remix_emotional_folk_Guitar,6,2,DL_Remix_emotional_folk_Guitar,0.9998476505279541,1
64,100,0.7181818181818181,308,0,25,DL_Remix_emotional_folk_Guitar,6,11,DL_Remix_emotional_folk_Guitar,0.3153684735298157,0
57,100,0.1,646,1,25,DL_Remix_emotional_folk_Guitar,6,2,DL_Remix_emotional_folk_Guitar,0.3034628927707672,0
64,100,0.35909090909090907,673,0,25,DL_Remix_emotional_folk_Guitar,6,6,DL_Remix_emotional_folk_Guitar,0.31229168176651,0
64,100,0.1409090909090909,343,1,26,DL_Remix_emotional_folk_Guitar,6,2,DL_Remix_emotional_folk_Guitar,0.9998132586479187,1
59,100,0.3409090909090909,497,0,26,DL_Remix_emotional_folk_Guitar,6,5,DL_Remix_emotional_folk_Guitar,0.12208308279514313,0
54,100,0.18181818181818182,660,0,26,DL_Remix_emotional_folk_Guitar,6,3,DL_Remix_emotional_folk_Guitar,0.12302125990390778,0
66,100,0.1409090909090909,739,0,26,DL_Remix_emotional_folk_Guitar,6,2,DL_Remix_emotional_folk_Guitar,0.13424748182296753,0
66,100,0.12272727272727273,773,0,26,DL_Remix_emotional_folk_Guitar,6,2,DL_Remix_emotional_folk_Guitar,0.13832703232765198,0
66,100,0.3,804,0,26,DL_Remix_emotional_folk_Guitar,6,5,DL_Remix_emotional_folk_Guitar,0.1284562051296234,0
52,100,0.3181818181818182,17,1,27,DL_Remix_emotional_folk_Guitar,6,5,DL_Remix_emotional_folk_Guitar,0.9998372793197632,1
56,100,0.1409090909090909,268,1,27,DL_Remix_emotional_folk_Guitar,6,2,DL_Remix_emotional_folk_Guitar,0.40680992603302,0
54,100,0.1,870,1,27,DL_Remix_emotional_folk_Guitar,6,2,DL_Remix_emotional_folk_Guitar,0.42646726965904236,0
56,100,0.2409090909090909,88,1,28,DL_Remix_emotional_folk_Guitar,6,4,DL_Remix_emotional_folk_Guitar,0.9996262788772583,1
61,100,0.2,378,1,28,DL_Remix_emotional_folk_Guitar,6,3,DL_Remix_emotional_folk_Guitar,0.5535772442817688,0
59,100,0.3409090909090909,52,1,29,DL_Remix_emotional_folk_Guitar,6,5,DL_Remix_emotional_folk_Guitar,0.9998425245285034,1
63,100,0.3,360,1,29,DL_Remix_emotional_folk_Guitar,6,5,DL_Remix_emotional_folk_Guitar,0.31987109780311584,0
63,100,0.3,656,1,29,DL_Remix_emotional_folk_Guitar,6,5,DL_Remix_emotional_folk_Guitar,0.3011670410633087,0
56,100,0.1409090909090909,752,0,29,DL_Remix_emotional_folk_Guitar,6,2,DL_Remix_emotional_folk_Guitar,0.32172006368637085,0
59,100,0.17727272727272728,30,1,30,DL_Remix_emotional_folk_Guitar,6,3,DL_Remix_emotional_folk_Guitar,0.9998065829277039,1
57,100,0.21818181818181817,206,0,30,DL_Remix_emotional_folk_Guitar,6,3,DL_Remix_emotional_folk_Guitar,0.12735410034656525,0
57,100,0.1590909090909091,264,0,30,DL_Remix_emotional_folk_Guitar,6,3,DL_Remix_emotional_folk_Guitar,0.12209109961986542,0
57,100,0.3181818181818182,505,1,30,DL_Remix_emotional_folk_Guitar,6,5,DL_Remix_emotional_folk_Guitar,0.13786904513835907,0
57,100,0.2,646,0,30,DL_Remix_emotional_folk_Guitar,6,3,DL_Remix_emotional_folk_Guitar,0.14457906782627106,0
57,100,0.7818181818181819,804,0,30,DL_Remix_emotional_folk_Guitar,6,13,DL_Remix_emotional_folk_Guitar,0.12921622395515442,0
57,100,0.1,193,1,31,DL_Remix_emotional_folk_Guitar,6,2,DL_Remix_emotional_folk_Guitar,0.9996262788772583,1
57,100,0.21818181818181817,241,0,31,DL_Remix_emotional_folk_Guitar,6,3,DL_Remix_emotional_folk_Guitar,0.5490133762359619,0
54,100,0.1,201,1,32,DL_Remix_emotional_folk_Guitar,6,2,DL_Remix_emotional_folk_Guitar,0.9996427297592163,1
63,100,0.2,531,1,32,DL_Remix_emotional_folk_Guitar,6,3,DL_Remix_emotional_folk_Guitar,0.5405316352844238,0
57,100,0.2409090909090909,228,1,33,DL_Remix_emotional_folk_Guitar,6,4,DL_Remix_emotional_folk_Guitar,0.9998026490211487,1
57,100,0.6181818181818182,426,0,33,DL_Remix_emotional_folk_Guitar,6,10,DL_Remix_emotional_folk_Guitar,0.12382520735263824,0
64,100,0.5,584,0,33,DL_Remix_emotional_folk_Guitar,6,8,DL_Remix_emotional_folk_Guitar,0.12871573865413666,0
64,100,0.2590909090909091,716,0,33,DL_Remix_emotional_folk_Guitar,6,4,DL_Remix_emotional_folk_Guitar,0.1403663158416748,0
59,100,0.22272727272727272,774,0,33,DL_Remix_emotional_folk_Guitar,6,4,DL_Remix_emotional_folk_Guitar,0.13878679275512695,0
64,100,0.5818181818181818,826,0,33,DL_Remix_emotional_folk_Guitar,6,9,DL_Remix_emotional_folk_Guitar,0.1300455778837204,0
52,100,0.2,110,1,34,DL_Remix_emotional_folk_Guitar,6,3,DL_Remix_emotional_folk_Guitar,0.9997108578681946,1
52,100,0.22272727272727272,158,0,34,DL_Remix_emotional_folk_Guitar,6,4,DL_Remix_emotional_folk_Guitar,0.042647864669561386,0
59,100,0.11818181818181818,295,0,34,DL_Remix_emotional_folk_Guitar,6,2,DL_Remix_emotional_folk_Guitar,0.031965840607881546,0
52,100,0.12272727272727273,378,0,34,DL_Remix_emotional_folk_Guitar,6,2,DL_Remix_emotional_folk_Guitar,0.030547672882676125,0
52,100,0.1409090909090909,418,0,34,DL_Remix_emotional_folk_Guitar,6,2,DL_Remix_emotional_folk_Guitar,0.029464595019817352,0
59,100,0.4,461,0,34,DL_Remix_emotional_folk_Guitar,6,6,DL_Remix_emotional_folk_Guitar,0.030874796211719513,0
59,100,0.3181818181818182,681,0,34,DL_Remix_emotional_folk_Guitar,6,5,DL_Remix_emotional_folk_Guitar,0.04081074148416519,0
59,100,0.1590909090909091,765,0,34,DL_Remix_emotional_folk_Guitar,6,3,DL_Remix_emotional_folk_Guitar,0.04817064851522446,0
52,100,0.2590909090909091,801,0,34,DL_Remix_emotional_folk_Guitar,6,4,DL_Remix_emotional_folk_Guitar,0.04617318883538246,0
52,100,0.4590909090909091,40,1,35,DL_Remix_emotional_folk_Guitar,6,7,DL_Remix_emotional_folk_Guitar,0.9997561573982239,1
64,100,0.13636363636363635,150,0,35,DL_Remix_emotional_folk_Guitar,6,2,DL_Remix_emotional_folk_Guitar,0.0849251076579094,0
64,100,0.18181818181818182,321,0,35,DL_Remix_emotional_folk_Guitar,6,3,DL_Remix_emotional_folk_Guitar,0.07229786366224289,0
64,100,0.1409090909090909,440,0,35,DL_Remix_emotional_folk_Guitar,6,2,DL_Remix_emotional_folk_Guitar,0.0787077397108078,0
52,100,0.1409090909090909,471,0,35,DL_Remix_emotional_folk_Guitar,6,2,DL_Remix_emotional_folk_Guitar,0.08453444391489029,0
59,100,0.1409090909090909,664,0,35,DL_Remix_emotional_folk_Guitar,6,2,DL_Remix_emotional_folk_Guitar,0.09163068979978561,0
59,100,0.3181818181818182,743,0,35,DL_Remix_emotional_folk_Guitar,6,5,DL_Remix_emotional_folk_Guitar,0.0826084092259407,0
64,100,0.13636363636363635,150,1,36,DL_Remix_emotional_folk_Guitar,6,2,DL_Remix_emotional_folk_Guitar,0.9998140931129456,1
59,100,0.12272727272727273,399,1,36,DL_Remix_emotional_folk_Guitar,6,2,DL_Remix_emotional_folk_Guitar,0.12148095667362213,0
59,100,0.3,496,0,36,DL_Remix_emotional_folk_Guitar,6,5,DL_Remix_emotional_folk_Guitar,0.11769696325063705,0
60,100,0.17727272727272728,603,0,36,DL_Remix_emotional_folk_Guitar,6,3,DL_Remix_emotional_folk_Guitar,0.13574060797691345,0
60,100,0.2590909090909091,668,0,36,DL_Remix_emotional_folk_Guitar,6,4,DL_Remix_emotional_folk_Guitar,0.13907620310783386,0
61,100,0.1409090909090909,866,0,36,DL_Remix_emotional_folk_Guitar,6,2,DL_Remix_emotional_folk_Guitar,0.13115763664245605,0
61,100,0.3,144,1,37,DL_Remix_emotional_folk_Guitar,6,5,DL_Remix_emotional_folk_Guitar,0.9931731820106506,0
66,100,0.1590909090909091,34,1,38,DL_Remix_emotional_folk_Guitar,6,3,DL_Remix_emotional_folk_Guitar,0.9998375177383423,1
66,100,0.1590909090909091,150,0,38,DL_Remix_emotional_folk_Guitar,6,3,DL_Remix_emotional_folk_Guitar,0.21023797988891602,0
66,100,0.1590909090909091,241,0,38,DL_Remix_emotional_folk_Guitar,6,3,DL_Remix_emotional_folk_Guitar,0.19712413847446442,0
63,100,0.21818181818181817,461,0,38,DL_Remix_emotional_folk_Guitar,6,3,DL_Remix_emotional_folk_Guitar,0.20151673257350922,0
63,100,0.32272727272727275,598,0,38,DL_Remix_emotional_folk_Guitar,6,5,DL_Remix_emotional_folk_Guitar,0.20369048416614532,0
56,100,0.4,241,1,39,DL_Remix_emotional_folk_Guitar,6,6,DL_Remix_emotional_folk_Guitar,0.9998315572738647,1
56,100,0.1,373,0,39,DL_Remix_emotional_folk_Guitar,6,2,DL_Remix_emotional_folk_Guitar,0.21599268913269043,0
56,100,1.0227272727272727,399,0,39,DL_Remix_emotional_folk_Guitar,6,15,DL_Remix_emotional_folk_Guitar,0.1794445663690567,0
57,100,0.1590909090909091,735,1,39,DL_Remix_emotional_folk_Guitar,6,3,DL_Remix_emotional_folk_Guitar,0.23375092446804047,0
57,100,0.3409090909090909,866,0,39,DL_Remix_emotional_folk_Guitar,6,5,DL_Remix_emotional_folk_Guitar,0.2053791880607605,0
57,100,0.4590909090909091,150,1,40,DL_Remix_emotional_folk_Guitar,6,7,DL_Remix_emotional_folk_Guitar,0.9997496008872986,1
57,100,0.12272727272727273,268,0,40,DL_Remix_emotional_folk_Guitar,6,2,DL_Remix_emotional_folk_Guitar,0.08427240699529648,0
64,100,0.7181818181818181,303,0,40,DL_Remix_emotional_folk_Guitar,6,11,DL_Remix_emotional_folk_Guitar,0.07196328043937683,0
64,100,0.3409090909090909,576,1,40,DL_Remix_emotional_folk_Guitar,6,5,DL_Remix_emotional_folk_Guitar,0.08714206516742706,0
57,100,0.5590909090909091,651,0,40,DL_Remix_emotional_folk_Guitar,6,9,DL_Remix_emotional_folk_Guitar,0.08824370056390762,0
52,100,0.2590909090909091,778,0,40,DL_Remix_emotional_folk_Guitar,6,4,DL_Remix_emotional_folk_Guitar,0.10538250207901001,0
57,100,0.37727272727272726,845,0,40,DL_Remix_emotional_folk_Guitar,6,6,DL_Remix_emotional_folk_Guitar,0.0857975035905838,0
57,100,0.2,61,1,41,DL_Remix_emotional_folk_Guitar,6,3,DL_Remix_emotional_folk_Guitar,0.9997199177742004,1
57,100,0.3,123,0,41,DL_Remix_emotional_folk_Guitar,6,5,DL_Remix_emotional_folk_Guitar,0.055158842355012894,0
59,100,0.18181818181818182,241,0,41,DL_Remix_emotional_folk_Guitar,6,3,DL_Remix_emotional_folk_Guitar,0.05000204220414162,0
59,100,0.7363636363636363,348,0,41,DL_Remix_emotional_folk_Guitar,6,12,DL_Remix_emotional_folk_Guitar,0.04468996822834015,0
64,100,0.3181818181818182,616,1,41,DL_Remix_emotional_folk_Guitar,6,5,DL_Remix_emotional_folk_Guitar,0.058073509484529495,0
52,100,0.11818181818181818,713,0,41,DL_Remix_emotional_folk_Guitar,6,2,DL_Remix_emotional_folk_Guitar,0.06361173093318939,0
64,100,0.22272727272727272,738,0,41,DL_Remix_emotional_folk_Guitar,6,4,DL_Remix_emotional_folk_Guitar,0.06685527414083481,0
52,100,0.4,796,0,41,DL_Remix_emotional_folk_Guitar,6,6,DL_Remix_emotional_folk_Guitar,0.06062788516283035,0
64,100,0.3,4,1,42,DL_Remix_emotional_folk_Guitar,6,5,DL_Remix_emotional_folk_Guitar,0.999700665473938,1
52,100,0.21818181818181817,75,0,42,DL_Remix_emotional_folk_Guitar,6,3,DL_Remix_emotional_folk_Guitar,0.04373413324356079,0
64,100,0.3,163,0,42,DL_Remix_emotional_folk_Guitar,6,5,DL_Remix_emotional_folk_Guitar,0.03285815194249153,0
52,100,0.42272727272727273,254,0,42,DL_Remix_emotional_folk_Guitar,6,7,DL_Remix_emotional_folk_Guitar,0.029770782217383385,0
52,100,0.1590909090909091,351,0,42,DL_Remix_emotional_folk_Guitar,6,3,DL_Remix_emotional_folk_Guitar,0.03045818768441677,0
52,100,0.759090909090909,396,0,42,DL_Remix_emotional_folk_Guitar,6,12,DL_Remix_emotional_folk_Guitar,0.03137888014316559,0
57,100,0.1409090909090909,571,0,42,DL_Remix_emotional_folk_Guitar,6,2,DL_Remix_emotional_folk_Guitar,0.04137072339653969,0
61,100,0.2818181818181818,791,0,42,DL_Remix_emotional_folk_Guitar,6,5,DL_Remix_emotional_folk_Guitar,0.04874926805496216,0
54,100,0.11818181818181818,858,0,42,DL_Remix_emotional_folk_Guitar,6,2,DL_Remix_emotional_folk_Guitar,0.048021186143159866,0
54,100,0.2,18,1,43,DL_Remix_emotional_folk_Guitar,6,3,DL_Remix_emotional_folk_Guitar,0.9998005032539368,1
54,100,0.2,91,0,43,DL_Remix_emotional_folk_Guitar,6,3,DL_Remix_emotional_folk_Guitar,0.12748274207115173,0
54,100,1.7772727272727273,141,0,43,DL_Remix_emotional_folk_Guitar,6,15,DL_Remix_emotional_folk_Guitar,0.10432065278291702,0
54,100,0.13636363636363635,590,1,43,DL_Remix_emotional_folk_Guitar,6,2,DL_Remix_emotional_folk_Guitar,0.16998296976089478,0
66,100,0.2818181818181818,619,0,43,DL_Remix_emotional_folk_Guitar,6,5,DL_Remix_emotional_folk_Guitar,0.14853224158287048,0
54,100,0.1409090909090909,726,0,43,DL_Remix_emotional_folk_Guitar,6,2,DL_Remix_emotional_folk_Guitar,0.14332517981529236,0
52,100,0.1409090909090909,43,1,44,DL_Remix_emotional_folk_Guitar,6,2,DL_Remix_emotional_folk_Guitar,0.9998476505279541,1
64,100,0.2590909090909091,351,1,44,DL_Remix_emotional_folk_Guitar,6,4,DL_Remix_emotional_folk_Guitar,0.20317798852920532,0
57,100,0.4,418,0,44,DL_Remix_emotional_folk_Guitar,6,6,DL_Remix_emotional_folk_Guitar,0.19203944504261017,0
66,100,0.2,729,1,44,DL_Remix_emotional_folk_Guitar,6,3,DL_Remix_emotional_folk_Guitar,0.2183995544910431,0
66,100,0.11818181818181818,831,0,44,DL_Remix_emotional_folk_Guitar,6,2,DL_Remix_emotional_folk_Guitar,0.1982353925704956,0
66,100,0.11818181818181818,43,1,45,DL_Remix_emotional_folk_Guitar,6,2,DL_Remix_emotional_folk_Guitar,0.9998561143875122,1
64,100,0.6409090909090909,431,1,45,DL_Remix_emotional_folk_Guitar,6,10,DL_Remix_emotional_folk_Guitar,0.31260809302330017,0
59,100,0.5590909090909091,628,0,45,DL_Remix_emotional_folk_Guitar,6,9,DL_Remix_emotional_folk_Guitar,0.2844596207141876,0
64,100,0.8,861,1,45,DL_Remix_emotional_folk_Guitar,6,13,DL_Remix_emotional_folk_Guitar,0.31720593571662903,0
64,100,0.37727272727272726,193,1,46,DL_Remix_emotional_folk_Guitar,6,6,DL_Remix_emotional_folk_Guitar,0.9998461008071899,1
59,100,0.7,289,0,46,DL_Remix_emotional_folk_Guitar,6,11,DL_Remix_emotional_folk_Guitar,0.29937949776649475,0
64,100,1.3181818181818181,448,0,46,DL_Remix_emotional_folk_Guitar,6,15,DL_Remix_emotional_folk_Guitar,0.2880569100379944,0
52,100,0.11818181818181818,831,1,46,DL_Remix_emotional_folk_Guitar,6,2,DL_Remix_emotional_folk_Guitar,0.3392617404460907,0
57,100,0.5818181818181818,373,1,47,DL_Remix_emotional_folk_Guitar,6,9,DL_Remix_emotional_folk_Guitar,0.9924188852310181,0
54,100,0.1590909090909091,198,1,48,DL_Remix_emotional_folk_Guitar,6,3,DL_Remix_emotional_folk_Guitar,0.9998565912246704,1
63,100,0.12272727272727273,298,0,48,DL_Remix_emotional_folk_Guitar,6,2,DL_Remix_emotional_folk_Guitar,0.3067254424095154,0
63,100,0.5590909090909091,523,0,48,DL_Remix_emotional_folk_Guitar,6,9,DL_Remix_emotional_folk_Guitar,0.27905911207199097,0
54,100,0.1590909090909091,703,0,48,DL_Remix_emotional_folk_Guitar,6,3,DL_Remix_emotional_folk_Guitar,0.3237816393375397,0
59,100,0.4,118,1,49,DL_Remix_emotional_folk_Guitar,6,6,DL_Remix_emotional_folk_Guitar,0.9998169541358948,1
59,100,0.11818181818181818,260,0,49,DL_Remix_emotional_folk_Guitar,6,2,DL_Remix_emotional_folk_Guitar,0.42161816358566284,0
54,100,0.2409090909090909,295,0,49,DL_Remix_emotional_folk_Guitar,6,4,DL_Remix_emotional_folk_Guitar,0.4322625398635864,0
56,100,0.2,83,1,50,DL_Remix_emotional_folk_Guitar,6,3,DL_Remix_emotional_folk_Guitar,0.9998196959495544,1
56,100,0.5590909090909091,515,1,50,DL_Remix_emotional_folk_Guitar,6,9,DL_Remix_emotional_folk_Guitar,0.404348224401474,0
56,100,0.759090909090909,700,0,50,DL_Remix_emotional_folk_Guitar,6,12,DL_Remix_emotional_folk_Guitar,0.42588138580322266,0
59,100,0.2636363636363636,378,1,53,DL_Remix_emotional_folk_Guitar,6,4,DL_Remix_emotional_folk_Guitar,0.999830961227417,1
59,100,0.1409090909090909,440,0,53,DL_Remix_emotional_folk_Guitar,6,2,DL_Remix_emotional_folk_Guitar,0.41521260142326355,0
57,100,0.6409090909090909,506,0,53,DL_Remix_emotional_folk_Guitar,6,10,DL_Remix_emotional_folk_Guitar,0.41602200269699097,0
63,100,0.11818181818181818,440,1,54,DL_Remix_emotional_folk_Guitar,6,2,DL_Remix_emotional_folk_Guitar,0.9996377229690552,1
57,100,0.2409090909090909,584,0,54,DL_Remix_emotional_folk_Guitar,6,4,DL_Remix_emotional_folk_Guitar,0.5492981672286987,0
57,100,0.6818181818181818,0,1,55,DL_Remix_emotional_folk_Guitar,6,11,DL_Remix_emotional_folk_Guitar,0.999776303768158,1
64,100,0.7,163,0,55,DL_Remix_emotional_folk_Guitar,6,11,DL_Remix_emotional_folk_Guitar,0.1389831304550171,0
64,100,0.5181818181818182,483,1,55,DL_Remix_emotional_folk_Guitar,6,8,DL_Remix_emotional_folk_Guitar,0.1305822879076004,0
52,100,0.11818181818181818,616,0,55,DL_Remix_emotional_folk_Guitar,6,2,DL_Remix_emotional_folk_Guitar,0.14323455095291138,0
57,100,0.11818181818181818,646,0,55,DL_Remix_emotional_folk_Guitar,6,2,DL_Remix_emotional_folk_Guitar,0.14222103357315063,0
57,100,0.5,729,0,55,DL_Remix_emotional_folk_Guitar,6,8,DL_Remix_emotional_folk_Guitar,0.13281650841236115,0
59,100,0.12272727272727273,233,1,56,DL_Remix_emotional_folk_Guitar,6,2,DL_Remix_emotional_folk_Guitar,0.9996370077133179,1
59,100,0.11818181818181818,330,0,56,DL_Remix_emotional_folk_Guitar,6,2,DL_Remix_emotional_folk_Guitar,0.5510177612304688,0
64,100,0.2818181818181818,0,1,57,DL_Remix_emotional_folk_Guitar,6,5,DL_Remix_emotional_folk_Guitar,0.9997326731681824,1
64,100,0.8,118,0,57,DL_Remix_emotional_folk_Guitar,6,13,DL_Remix_emotional_folk_Guitar,0.05156901106238365,0
76,100,0.1590909090909091,295,0,57,DL_Remix_emotional_folk_Guitar,6,3,DL_Remix_emotional_folk_Guitar,0.05043676495552063,0
52,100,0.2636363636363636,334,0,57,DL_Remix_emotional_folk_Guitar,6,4,DL_Remix_emotional_folk_Guitar,0.047497380524873734,0
52,100,0.6,405,0,57,DL_Remix_emotional_folk_Guitar,6,10,DL_Remix_emotional_folk_Guitar,0.050320450216531754,0
64,100,0.33636363636363636,611,0,57,DL_Remix_emotional_folk_Guitar,6,5,DL_Remix_emotional_folk_Guitar,0.05834830552339554,0
52,100,0.21818181818181817,721,0,57,DL_Remix_emotional_folk_Guitar,6,3,DL_Remix_emotional_folk_Guitar,0.06812558323144913,0
52,100,0.1409090909090909,796,0,57,DL_Remix_emotional_folk_Guitar,6,2,DL_Remix_emotional_folk_Guitar,0.059708673506975174,0
59,100,0.21818181818181817,75,1,58,DL_Remix_emotional_folk_Guitar,6,3,DL_Remix_emotional_folk_Guitar,0.9998051524162292,1
54,100,0.1590909090909091,298,0,58,DL_Remix_emotional_folk_Guitar,6,3,DL_Remix_emotional_folk_Guitar,0.1291046440601349,0
64,100,0.2818181818181818,386,0,58,DL_Remix_emotional_folk_Guitar,6,5,DL_Remix_emotional_folk_Guitar,0.12214292585849762,0
52,100,0.35909090909090907,483,0,58,DL_Remix_emotional_folk_Guitar,6,6,DL_Remix_emotional_folk_Guitar,0.1324416697025299,0
64,100,0.33636363636363636,678,0,58,DL_Remix_emotional_folk_Guitar,6,5,DL_Remix_emotional_folk_Guitar,0.1368577778339386,0
61,100,0.11818181818181818,813,0,58,DL_Remix_emotional_folk_Guitar,6,2,DL_Remix_emotional_folk_Guitar,0.13070543110370636,0
66,100,0.12272727272727273,598,1,59,DL_Remix_emotional_folk_Guitar,6,2,DL_Remix_emotional_folk_Guitar,0.9934984445571899,0
59,100,0.4590909090909091,144,1,60,DL_Remix_emotional_folk_Guitar,6,7,DL_Remix_emotional_folk_Guitar,0.9998286962509155,1
59,100,0.2590909090909091,493,1,60,DL_Remix_emotional_folk_Guitar,6,4,DL_Remix_emotional_folk_Guitar,0.2140752673149109,0
59,100,0.3,633,0,60,DL_Remix_emotional_folk_Guitar,6,5,DL_Remix_emotional_folk_Guitar,0.19719198346138,0
64,100,0.1409090909090909,708,0,60,DL_Remix_emotional_folk_Guitar,6,2,DL_Remix_emotional_folk_Guitar,0.216159388422966,0
64,100,0.17727272727272728,801,0,60,DL_Remix_emotional_folk_Guitar,6,3,DL_Remix_emotional_folk_Guitar,0.20090845227241516,0
52,100,0.1590909090909091,40,1,61,DL_Remix_emotional_folk_Guitar,6,3,DL_Remix_emotional_folk_Guitar,0.9998550415039062,1
66,100,0.2818181818181818,466,1,61,DL_Remix_emotional_folk_Guitar,6,5,DL_Remix_emotional_folk_Guitar,0.32421863079071045,0
66,100,0.12272727272727273,576,0,61,DL_Remix_emotional_folk_Guitar,6,2,DL_Remix_emotional_folk_Guitar,0.2877194583415985,0
61,100,0.42272727272727273,738,0,61,DL_Remix_emotional_folk_Guitar,6,7,DL_Remix_emotional_folk_Guitar,0.2976159155368805,0
57,100,0.41818181818181815,43,1,62,DL_Remix_emotional_folk_Guitar,6,7,DL_Remix_emotional_folk_Guitar,0.9998453855514526,1
61,100,0.2818181818181818,408,1,62,DL_Remix_emotional_folk_Guitar,6,5,DL_Remix_emotional_folk_Guitar,0.333750456571579,0
64,100,0.1409090909090909,668,1,62,DL_Remix_emotional_folk_Guitar,6,2,DL_Remix_emotional_folk_Guitar,0.3004194498062134,0
57,100,0.2,788,0,62,DL_Remix_emotional_folk_Guitar,6,3,DL_Remix_emotional_folk_Guitar,0.29870617389678955,0
76,100,1.3590909090909091,145,1,64,DL_Remix_emotional_folk_Guitar,6,15,DL_Remix_emotional_folk_Guitar,0.999772846698761,1
52,100,1.3227272727272728,453,1,64,DL_Remix_emotional_folk_Guitar,6,15,DL_Remix_emotional_folk_Guitar,0.4258790612220764,0
52,100,0.11818181818181818,792,1,64,DL_Remix_emotional_folk_Guitar,6,2,DL_Remix_emotional_folk_Guitar,0.4705377221107483,0
59,100,0.6227272727272727,333,1,65,DL_Remix_emotional_folk_Guitar,6,10,DL_Remix_emotional_folk_Guitar,0.9998359680175781,1
52,100,0.12272727272727273,540,0,65,DL_Remix_emotional_folk_Guitar,6,2,DL_Remix_emotional_folk_Guitar,0.36256173253059387,0
52,100,0.38181818181818183,663,0,65,DL_Remix_emotional_folk_Guitar,6,6,DL_Remix_emotional_folk_Guitar,0.28568005561828613,0
64,100,0.1590909090909091,832,0,65,DL_Remix_emotional_folk_Guitar,6,3,DL_Remix_emotional_folk_Guitar,0.30611664056777954,0
59,100,0.2818181818181818,430,1,66,DL_Remix_emotional_folk_Guitar,6,5,DL_Remix_emotional_folk_Guitar,0.9931681156158447,0
64,100,0.1,360,1,67,DL_Remix_emotional_folk_Guitar,6,2,DL_Remix_emotional_folk_Guitar,0.999860405921936,1
61,100,0.3,383,0,67,DL_Remix_emotional_folk_Guitar,6,5,DL_Remix_emotional_folk_Guitar,0.2929888367652893,0
61,100,0.18181818181818182,519,0,67,DL_Remix_emotional_folk_Guitar,6,3,DL_Remix_emotional_folk_Guitar,0.2974913418292999,0
61,100,0.2818181818181818,642,0,67,DL_Remix_emotional_folk_Guitar,6,5,DL_Remix_emotional_folk_Guitar,0.3064917325973511,0
61,100,0.21818181818181817,612,1,68,DL_Remix_emotional_folk_Guitar,6,3,DL_Remix_emotional_folk_Guitar,0.9996343851089478,1
56,100,0.35909090909090907,844,1,68,DL_Remix_emotional_folk_Guitar,6,6,DL_Remix_emotional_folk_Guitar,0.5436326861381531,0
59,100,0.8590909090909091,110,1,69,DL_Remix_emotional_folk_Guitar,6,14,DL_Remix_emotional_folk_Guitar,0.9998100399971008,1
59,100,0.1,443,1,69,DL_Remix_emotional_folk_Guitar,6,2,DL_Remix_emotional_folk_Guitar,0.24567487835884094,0
56,100,0.12272727272727273,585,0,69,DL_Remix_emotional_folk_Guitar,6,2,DL_Remix_emotional_folk_Guitar,0.19815069437026978,0
59,100,0.8227272727272728,695,0,69,DL_Remix_emotional_folk_Guitar,6,13,DL_Remix_emotional_folk_Guitar,0.1994323432445526,0
63,100,0.21818181818181817,876,0,69,DL_Remix_emotional_folk_Guitar,6,3,DL_Remix_emotional_folk_Guitar,0.2214532345533371,0
63,100,0.12272727272727273,56,1,70,DL_Remix_emotional_folk_Guitar,6,2,DL_Remix_emotional_folk_Guitar,0.9998422861099243,1
64,100,0.17727272727272728,83,0,70,DL_Remix_emotional_folk_Guitar,6,3,DL_Remix_emotional_folk_Guitar,0.21317897737026215,0
64,100,0.42272727272727273,386,1,70,DL_Remix_emotional_folk_Guitar,6,7,DL_Remix_emotional_folk_Guitar,0.19872340559959412,0
57,100,0.11818181818181818,536,0,70,DL_Remix_emotional_folk_Guitar,6,2,DL_Remix_emotional_folk_Guitar,0.20277418196201324,0
64,100,0.8181818181818182,580,0,70,DL_Remix_emotional_folk_Guitar,6,13,DL_Remix_emotional_folk_Guitar,0.19606459140777588,0
57,100,0.4590909090909091,127,1,71,DL_Remix_emotional_folk_Guitar,6,7,DL_Remix_emotional_folk_Guitar,0.9998093247413635,1
64,100,0.16363636363636364,729,1,71,DL_Remix_emotional_folk_Guitar,6,3,DL_Remix_emotional_folk_Guitar,0.45783206820487976,0
64,100,0.1,832,0,71,DL_Remix_emotional_folk_Guitar,6,2,DL_Remix_emotional_folk_Guitar,0.42341190576553345,0
59,100,0.2636363636363636,179,1,72,DL_Remix_emotional_folk_Guitar,6,4,DL_Remix_emotional_folk_Guitar,0.9997963309288025,1
59,100,1.1590909090909092,260,0,72,DL_Remix_emotional_folk_Guitar,6,15,DL_Remix_emotional_folk_Guitar,0.11033295094966888,0
59,100,0.43636363636363634,567,1,72,DL_Remix_emotional_folk_Guitar,6,7,DL_Remix_emotional_folk_Guitar,0.1397581845521927,0
64,100,0.1409090909090909,663,0,72,DL_Remix_emotional_folk_Guitar,6,2,DL_Remix_emotional_folk_Guitar,0.15213902294635773,0
59,100,0.21818181818181817,726,0,72,DL_Remix_emotional_folk_Guitar,6,3,DL_Remix_emotional_folk_Guitar,0.14518269896507263,0
66,100,0.11818181818181818,823,0,72,DL_Remix_emotional_folk_Guitar,6,2,DL_Remix_emotional_folk_Guitar,0.14016926288604736,0
54,100,0.41818181818181815,30,1,73,DL_Remix_emotional_folk_Guitar,6,7,DL_Remix_emotional_folk_Guitar,0.9998458623886108,1
54,100,0.2590909090909091,172,0,73,DL_Remix_emotional_folk_Guitar,6,4,DL_Remix_emotional_folk_Guitar,0.335063099861145,0
54,100,0.1590909090909091,286,0,73,DL_Remix_emotional_folk_Guitar,6,3,DL_Remix_emotional_folk_Guitar,0.291220098733902,0
66,100,0.22272727272727272,430,0,73,DL_Remix_emotional_folk_Guitar,6,4,DL_Remix_emotional_folk_Guitar,0.30628058314323425,0
61,100,0.17727272727272728,260,1,74,DL_Remix_emotional_folk_Guitar,6,3,DL_Remix_emotional_folk_Guitar,0.9996293783187866,1
64,100,0.1409090909090909,792,1,74,DL_Remix_emotional_folk_Guitar,6,2,DL_Remix_emotional_folk_Guitar,0.5573770999908447,0
61,100,0.21818181818181817,30,1,75,DL_Remix_emotional_folk_Guitar,6,3,DL_Remix_emotional_folk_Guitar,0.9997022747993469,1
59,100,0.17727272727272728,250,0,75,DL_Remix_emotional_folk_Guitar,6,3,DL_Remix_emotional_folk_Guitar,0.042851775884628296,0
59,100,0.11818181818181818,303,0,75,DL_Remix_emotional_folk_Guitar,6,2,DL_Remix_emotional_folk_Guitar,0.03269467502832413,0
59,100,0.38181818181818183,333,0,75,DL_Remix_emotional_folk_Guitar,6,6,DL_Remix_emotional_folk_Guitar,0.029390044510364532,0
71,100,0.1409090909090909,487,0,75,DL_Remix_emotional_folk_Guitar,6,2,DL_Remix_emotional_folk_Guitar,0.03234443813562393,0
59,100,0.2409090909090909,563,0,75,DL_Remix_emotional_folk_Guitar,6,4,DL_Remix_emotional_folk_Guitar,0.0331232063472271,0
52,100,0.1590909090909091,722,0,75,DL_Remix_emotional_folk_Guitar,6,3,DL_Remix_emotional_folk_Guitar,0.04506409540772438,0
61,100,0.12272727272727273,783,0,75,DL_Remix_emotional_folk_Guitar,6,2,DL_Remix_emotional_folk_Guitar,0.045527245849370956,0
52,100,0.1,866,0,75,DL_Remix_emotional_folk_Guitar,6,2,DL_Remix_emotional_folk_Guitar,0.04931033402681351,0
52,100,0.3,56,1,76,DL_Remix_emotional_folk_Guitar,6,5,DL_Remix_emotional_folk_Guitar,0.9997392296791077,1
57,100,0.4409090909090909,157,0,76,DL_Remix_emotional_folk_Guitar,6,7,DL_Remix_emotional_folk_Guitar,0.05238883197307587,0
76,100,0.2590909090909091,273,0,76,DL_Remix_emotional_folk_Guitar,6,4,DL_Remix_emotional_folk_Guitar,0.051301371306180954,0
57,100,0.5181818181818182,339,0,76,DL_Remix_emotional_folk_Guitar,6,8,DL_Remix_emotional_folk_Guitar,0.04461180046200752,0
52,100,0.4409090909090909,509,0,76,DL_Remix_emotional_folk_Guitar,6,7,DL_Remix_emotional_folk_Guitar,0.058208167552948,0
52,100,0.2409090909090909,747,1,76,DL_Remix_emotional_folk_Guitar,6,4,DL_Remix_emotional_folk_Guitar,0.06219689920544624,0
64,100,0.17727272727272728,800,0,76,DL_Remix_emotional_folk_Guitar,6,3,DL_Remix_emotional_folk_Guitar,0.0678795874118805,0
64,100,1.0,849,0,76,DL_Remix_emotional_folk_Guitar,6,15,DL_Remix_emotional_folk_Guitar,0.056013673543930054,0
54,100,0.11818181818181818,193,1,77,DL_Remix_emotional_folk_Guitar,6,2,DL_Remix_emotional_folk_Guitar,0.9998387098312378,1
63,100,0.2409090909090909,255,0,77,DL_Remix_emotional_folk_Guitar,6,4,DL_Remix_emotional_folk_Guitar,0.20551887154579163,0
64,100,0.11818181818181818,480,0,77,DL_Remix_emotional_folk_Guitar,6,2,DL_Remix_emotional_folk_Guitar,0.20961543917655945,0
64,100,0.2409090909090909,585,0,77,DL_Remix_emotional_folk_Guitar,6,4,DL_Remix_emotional_folk_Guitar,0.2026422619819641,0
64,100,0.5409090909090909,690,0,77,DL_Remix_emotional_folk_Guitar,6,9,DL_Remix_emotional_folk_Guitar,0.1970670074224472,0
56,100,0.3181818181818182,150,1,78,DL_Remix_emotional_folk_Guitar,6,5,DL_Remix_emotional_folk_Guitar,0.9998321533203125,1
61,100,0.1,307,0,78,DL_Remix_emotional_folk_Guitar,6,2,DL_Remix_emotional_folk_Guitar,0.2047961950302124,0
64,100,0.23636363636363636,502,0,78,DL_Remix_emotional_folk_Guitar,6,4,DL_Remix_emotional_folk_Guitar,0.20085974037647247,0
61,100,0.11818181818181818,660,0,78,DL_Remix_emotional_folk_Guitar,6,2,DL_Remix_emotional_folk_Guitar,0.2038685828447342,0
64,100,0.2,866,0,78,DL_Remix_emotional_folk_Guitar,6,3,DL_Remix_emotional_folk_Guitar,0.20090340077877045,0
57,100,0.2772727272727273,40,1,79,DL_Remix_emotional_folk_Guitar,6,4,DL_Remix_emotional_folk_Guitar,0.9997076392173767,1
57,100,0.2590909090909091,110,0,79,DL_Remix_emotional_folk_Guitar,6,4,DL_Remix_emotional_folk_Guitar,0.056506842374801636,0
64,100,0.11818181818181818,176,0,79,DL_Remix_emotional_folk_Guitar,6,2,DL_Remix_emotional_folk_Guitar,0.04934128001332283,0
57,100,0.37727272727272726,206,0,79,DL_Remix_emotional_folk_Guitar,6,6,DL_Remix_emotional_folk_Guitar,0.045090604573488235,0
52,100,0.2409090909090909,470,1,79,DL_Remix_emotional_folk_Guitar,6,4,DL_Remix_emotional_folk_Guitar,0.054320916533470154,0
64,100,0.6590909090909091,624,0,79,DL_Remix_emotional_folk_Guitar,6,11,DL_Remix_emotional_folk_Guitar,0.05651901289820671,0
52,100,0.1,773,0,79,DL_Remix_emotional_folk_Guitar,6,2,DL_Remix_emotional_folk_Guitar,0.0719151496887207,0
64,100,0.4818181818181818,796,0,79,DL_Remix_emotional_folk_Guitar,6,8,DL_Remix_emotional_folk_Guitar,0.05981960892677307,0
64,100,0.2409090909090909,422,1,80,DL_Remix_emotional_folk_Guitar,6,4,DL_Remix_emotional_folk_Guitar,0.999859094619751,1
76,100,0.17727272727272728,580,0,80,DL_Remix_emotional_folk_Guitar,6,3,DL_Remix_emotional_folk_Guitar,0.31941428780555725,0
64,100,0.16363636363636364,619,0,80,DL_Remix_emotional_folk_Guitar,6,3,DL_Remix_emotional_folk_Guitar,0.2911580204963684,0
64,100,0.22272727272727272,760,0,80,DL_Remix_emotional_folk_Guitar,6,4,DL_Remix_emotional_folk_Guitar,0.30060625076293945,0
61,100,0.3,9,1,81,DL_Remix_emotional_folk_Guitar,6,5,DL_Remix_emotional_folk_Guitar,0.9998481273651123,1
61,100,0.2636363636363636,729,1,81,DL_Remix_emotional_folk_Guitar,6,4,DL_Remix_emotional_folk_Guitar,0.3309853672981262,0
59,100,0.12272727272727273,817,0,81,DL_Remix_emotional_folk_Guitar,6,2,DL_Remix_emotional_folk_Guitar,0.2914048731327057,0
61,100,0.12272727272727273,870,0,81,DL_Remix_emotional_folk_Guitar,6,2,DL_Remix_emotional_folk_Guitar,0.3039793074131012,0
64,100,0.13636363636363635,17,1,82,DL_Remix_emotional_folk_Guitar,6,2,DL_Remix_emotional_folk_Guitar,0.999860405921936,1
66,100,0.3409090909090909,255,1,82,DL_Remix_emotional_folk_Guitar,6,5,DL_Remix_emotional_folk_Guitar,0.30538302659988403,0
66,100,0.2590909090909091,404,0,82,DL_Remix_emotional_folk_Guitar,6,4,DL_Remix_emotional_folk_Guitar,0.2959487736225128,0
63,100,0.38181818181818183,673,1,82,DL_Remix_emotional_folk_Guitar,6,6,DL_Remix_emotional_folk_Guitar,0.29978054761886597,0
60,100,0.1409090909090909,289,1,83,DL_Remix_emotional_folk_Guitar,6,2,DL_Remix_emotional_folk_Guitar,0.9998592138290405,1
60,100,0.32272727272727275,386,0,83,DL_Remix_emotional_folk_Guitar,6,5,DL_Remix_emotional_folk_Guitar,0.31960606575012207,0
63,100,0.1409090909090909,466,0,83,DL_Remix_emotional_folk_Guitar,6,2,DL_Remix_emotional_folk_Guitar,0.29294121265411377,0
61,100,0.6409090909090909,536,0,83,DL_Remix_emotional_folk_Guitar,6,10,DL_Remix_emotional_folk_Guitar,0.29019564390182495,0
64,100,0.1590909090909091,79,1,84,DL_Remix_emotional_folk_Guitar,6,3,DL_Remix_emotional_folk_Guitar,0.9998120665550232,1
61,100,0.22272727272727272,157,0,84,DL_Remix_emotional_folk_Guitar,6,4,DL_Remix_emotional_folk_Guitar,0.11943794041872025,0
57,100,0.6363636363636364,413,1,84,DL_Remix_emotional_folk_Guitar,6,10,DL_Remix_emotional_folk_Guitar,0.11264541745185852,0
59,100,0.11818181818181818,616,0,84,DL_Remix_emotional_folk_Guitar,6,2,DL_Remix_emotional_folk_Guitar,0.145549476146698,0
59,100,0.18181818181818182,716,0,84,DL_Remix_emotional_folk_Guitar,6,3,DL_Remix_emotional_folk_Guitar,0.1473509520292282,0
57,100,0.3181818181818182,787,0,84,DL_Remix_emotional_folk_Guitar,6,5,DL_Remix_emotional_folk_Guitar,0.13026513159275055,0
64,100,0.8181818181818182,9,1,85,DL_Remix_emotional_folk_Guitar,6,13,DL_Remix_emotional_folk_Guitar,0.9998087286949158,1
64,100,0.1,193,0,85,DL_Remix_emotional_folk_Guitar,6,2,DL_Remix_emotional_folk_Guitar,0.4480442404747009,0
63,100,0.4409090909090909,506,1,85,DL_Remix_emotional_folk_Guitar,6,7,DL_Remix_emotional_folk_Guitar,0.4175809323787689,0
59,100,0.12272727272727273,123,1,86,DL_Remix_emotional_folk_Guitar,6,2,DL_Remix_emotional_folk_Guitar,0.9996312856674194,1
64,100,0.7636363636363637,796,1,86,DL_Remix_emotional_folk_Guitar,6,12,DL_Remix_emotional_folk_Guitar,0.543120265007019,0
59,100,0.740909090909091,246,1,87,DL_Remix_emotional_folk_Guitar,6,12,DL_Remix_emotional_folk_Guitar,0.9998076558113098,1
59,100,0.3181818181818182,493,1,87,DL_Remix_emotional_folk_Guitar,6,5,DL_Remix_emotional_folk_Guitar,0.4391666352748871,0
66,100,0.17727272727272728,677,0,87,DL_Remix_emotional_folk_Guitar,6,3,DL_Remix_emotional_folk_Guitar,0.4383898973464966,0
63,100,0.1409090909090909,184,1,88,DL_Remix_emotional_folk_Guitar,6,2,DL_Remix_emotional_folk_Guitar,0.9998490810394287,1
63,100,0.35909090909090907,220,0,88,DL_Remix_emotional_folk_Guitar,6,6,DL_Remix_emotional_folk_Guitar,0.3082195520401001,0
59,100,0.7,299,0,88,DL_Remix_emotional_folk_Guitar,6,11,DL_Remix_emotional_folk_Guitar,0.29231026768684387,0
52,100,0.4818181818181818,496,0,88,DL_Remix_emotional_folk_Guitar,6,8,DL_Remix_emotional_folk_Guitar,0.3269088864326477,0
64,100,0.2,43,1,89,DL_Remix_emotional_folk_Guitar,6,3,DL_Remix_emotional_folk_Guitar,0.9998618364334106,1
64,100,0.3,237,0,89,DL_Remix_emotional_folk_Guitar,6,5,DL_Remix_emotional_folk_Guitar,0.3225623369216919,0
69,100,0.2,356,0,89,DL_Remix_emotional_folk_Guitar,6,3,DL_Remix_emotional_folk_Guitar,0.2910956144332886,0
66,100,1.2818181818181817,496,0,89,DL_Remix_emotional_folk_Guitar,6,15,DL_Remix_emotional_folk_Guitar,0.28845226764678955,0
64,100,0.8409090909090909,505,1,0,_DL_Japanese_Folk_Pop_Acoustic_Folk_Guitar,6,13,_DL_Japanese_Folk_Pop_Acoustic_Folk_Guitar,0.9996131062507629,1
52,100,0.11818181818181818,858,1,0,_DL_Japanese_Folk_Pop_Acoustic_Folk_Guitar,6,2,_DL_Japanese_Folk_Pop_Acoustic_Folk_Guitar,0.5605320334434509,0
64,100,0.13636363636363635,62,1,1,_DL_Japanese_Folk_Pop_Acoustic_Folk_Guitar,6,2,_DL_Japanese_Folk_Pop_Acoustic_Folk_Guitar,0.999859094619751,1
59,100,0.1,157,0,1,_DL_Japanese_Folk_Pop_Acoustic_Folk_Guitar,6,2,_DL_Japanese_Folk_Pop_Acoustic_Folk_Guitar,0.31135907769203186,0
59,100,0.8,510,1,1,_DL_Japanese_Folk_Pop_Acoustic_Folk_Guitar,6,13,_DL_Japanese_Folk_Pop_Acoustic_Folk_Guitar,0.2752712666988373,0
57,100,0.16363636363636364,796,1,1,_DL_Japanese_Folk_Pop_Acoustic_Folk_Guitar,6,3,_DL_Japanese_Folk_Pop_Acoustic_Folk_Guitar,0.3222247362136841,0
61,100,0.2772727272727273,39,1,2,_DL_Japanese_Folk_Pop_Acoustic_Folk_Guitar,6,4,_DL_Japanese_Folk_Pop_Acoustic_Folk_Guitar,0.9997263550758362,1
52,100,0.3,140,0,2,_DL_Japanese_Folk_Pop_Acoustic_Folk_Guitar,6,5,_DL_Japanese_Folk_Pop_Acoustic_Folk_Guitar,0.056622464209795,0
56,100,0.11818181818181818,220,0,2,_DL_Japanese_Folk_Pop_Acoustic_Folk_Guitar,6,2,_DL_Japanese_Folk_Pop_Acoustic_Folk_Guitar,0.04800345376133919,0
57,100,0.6227272727272727,268,0,2,_DL_Japanese_Folk_Pop_Acoustic_Folk_Guitar,6,10,_DL_Japanese_Folk_Pop_Acoustic_Folk_Guitar,0.0443708561360836,0
57,100,0.1,409,0,2,_DL_Japanese_Folk_Pop_Acoustic_Folk_Guitar,6,2,_DL_Japanese_Folk_Pop_Acoustic_Folk_Guitar,0.057851556688547134,0
62,100,0.5772727272727273,479,0,2,_DL_Japanese_Folk_Pop_Acoustic_Folk_Guitar,6,9,_DL_Japanese_Folk_Pop_Acoustic_Folk_Guitar,0.06048062816262245,0
62,100,0.13636363636363635,611,0,2,_DL_Japanese_Folk_Pop_Acoustic_Folk_Guitar,6,2,_DL_Japanese_Folk_Pop_Acoustic_Folk_Guitar,0.07168582826852798,0
57,100,0.6,647,0,2,_DL_Japanese_Folk_Pop_Acoustic_Folk_Guitar,6,10,_DL_Japanese_Folk_Pop_Acoustic_Folk_Guitar,0.060071974992752075,0
62,100,0.13636363636363635,39,1,3,_DL_Japanese_Folk_Pop_Acoustic_Folk_Guitar,6,2,_DL_Japanese_Folk_Pop_Acoustic_Folk_Guitar,0.9998332262039185,1
64,100,0.5409090909090909,100,0,3,_DL_Japanese_Folk_Pop_Acoustic_Folk_Guitar,6,9,_DL_Japanese_Folk_Pop_Acoustic_Folk_Guitar,0.4030916392803192,0
59,100,0.5409090909090909,299,0,3,_DL_Japanese_Folk_Pop_Acoustic_Folk_Guitar,6,9,_DL_Japanese_Folk_Pop_Acoustic_Folk_Guitar,0.4201332926750183,0
61,100,0.5,66,1,6,_DL_Japanese_Folk_Pop_Acoustic_Folk_Guitar,6,8,_DL_Japanese_Folk_Pop_Acoustic_Folk_Guitar,0.9996740818023682,1
59,100,0.1590909090909091,176,0,6,_DL_Japanese_Folk_Pop_Acoustic_Folk_Guitar,6,3,_DL_Japanese_Folk_Pop_Acoustic_Folk_Guitar,0.036121346056461334,0
60,100,0.18181818181818182,211,0,6,_DL_Japanese_Folk_Pop_Acoustic_Folk_Guitar,6,3,_DL_Japanese_Folk_Pop_Acoustic_Folk_Guitar,0.026116525754332542,0
59,100,0.2409090909090909,250,0,6,_DL_Japanese_Folk_Pop_Acoustic_Folk_Guitar,6,4,_DL_Japanese_Folk_Pop_Acoustic_Folk_Guitar,0.021455863490700722,0
57,100,0.2409090909090909,311,0,6,_DL_Japanese_Folk_Pop_Acoustic_Folk_Guitar,6,4,_DL_Japanese_Folk_Pop_Acoustic_Folk_Guitar,0.01906766928732395,0
57,100,0.12272727272727273,409,0,6,_DL_Japanese_Folk_Pop_Acoustic_Folk_Guitar,6,2,_DL_Japanese_Folk_Pop_Acoustic_Folk_Guitar,0.020526953041553497,0
56,100,0.3,506,0,6,_DL_Japanese_Folk_Pop_Acoustic_Folk_Guitar,6,5,_DL_Japanese_Folk_Pop_Acoustic_Folk_Guitar,0.023088468238711357,0
52,100,0.3409090909090909,651,0,6,_DL_Japanese_Folk_Pop_Acoustic_Folk_Guitar,6,5,_DL_Japanese_Folk_Pop_Acoustic_Folk_Guitar,0.03003438003361225,0
52,100,0.1,739,0,6,_DL_Japanese_Folk_Pop_Acoustic_Folk_Guitar,6,2,_DL_Japanese_Folk_Pop_Acoustic_Folk_Guitar,0.03839162364602089,0
52,100,0.16363636363636364,774,0,6,_DL_Japanese_Folk_Pop_Acoustic_Folk_Guitar,6,3,_DL_Japanese_Folk_Pop_Acoustic_Folk_Guitar,0.03782384842634201,0
57,100,0.4590909090909091,118,1,7,_DL_Japanese_Folk_Pop_Acoustic_Folk_Guitar,6,7,_DL_Japanese_Folk_Pop_Acoustic_Folk_Guitar,0.9998338222503662,1
57,100,0.5,317,0,7,_DL_Japanese_Folk_Pop_Acoustic_Folk_Guitar,6,8,_DL_Japanese_Folk_Pop_Acoustic_Folk_Guitar,0.32333192229270935,0
57,100,0.2,452,0,7,_DL_Japanese_Folk_Pop_Acoustic_Folk_Guitar,6,3,_DL_Japanese_Folk_Pop_Acoustic_Folk_Guitar,0.3120013475418091,0
57,100,0.3409090909090909,642,0,7,_DL_Japanese_Folk_Pop_Acoustic_Folk_Guitar,6,5,_DL_Japanese_Folk_Pop_Acoustic_Folk_Guitar,0.31156861782073975,0
57,100,0.3409090909090909,307,1,8,_DL_Japanese_Folk_Pop_Acoustic_Folk_Guitar,6,5,_DL_Japanese_Folk_Pop_Acoustic_Folk_Guitar,0.9998353719711304,1
54,100,0.37727272727272726,493,0,8,_DL_Japanese_Folk_Pop_Acoustic_Folk_Guitar,6,6,_DL_Japanese_Folk_Pop_Acoustic_Folk_Guitar,0.3414037525653839,0
69,100,0.2590909090909091,584,0,8,_DL_Japanese_Folk_Pop_Acoustic_Folk_Guitar,6,4,_DL_Japanese_Folk_Pop_Acoustic_Folk_Guitar,0.2957138121128082,0
69,100,0.1,651,0,8,_DL_Japanese_Folk_Pop_Acoustic_Folk_Guitar,6,2,_DL_Japanese_Folk_Pop_Acoustic_Folk_Guitar,0.31467491388320923,0
57,100,0.6,216,1,9,_DL_Japanese_Folk_Pop_Acoustic_Folk_Guitar,6,10,_DL_Japanese_Folk_Pop_Acoustic_Folk_Guitar,0.9998160004615784,1
69,100,0.1,347,0,9,_DL_Japanese_Folk_Pop_Acoustic_Folk_Guitar,6,2,_DL_Japanese_Folk_Pop_Acoustic_Folk_Guitar,0.2259809523820877,0
56,100,0.35909090909090907,405,0,9,_DL_Japanese_Folk_Pop_Acoustic_Folk_Guitar,6,6,_DL_Japanese_Folk_Pop_Acoustic_Folk_Guitar,0.2003064900636673,0
56,100,0.1,488,0,9,_DL_Japanese_Folk_Pop_Acoustic_Folk_Guitar,6,2,_DL_Japanese_Folk_Pop_Acoustic_Folk_Guitar,0.2134353071451187,0
59,100,0.23636363636363636,589,0,9,_DL_Japanese_Folk_Pop_Acoustic_Folk_Guitar,6,4,_DL_Japanese_Folk_Pop_Acoustic_Folk_Guitar,0.1978672593832016,0
59,100,0.11818181818181818,216,1,10,_DL_Japanese_Folk_Pop_Acoustic_Folk_Guitar,6,2,_DL_Japanese_Folk_Pop_Acoustic_Folk_Guitar,0.99985671043396,1
52,100,0.2636363636363636,422,0,10,_DL_Japanese_Folk_Pop_Acoustic_Folk_Guitar,6,4,_DL_Japanese_Folk_Pop_Acoustic_Folk_Guitar,0.32905974984169006,0
52,100,0.1,496,0,10,_DL_Japanese_Folk_Pop_Acoustic_Folk_Guitar,6,2,_DL_Japanese_Folk_Pop_Acoustic_Folk_Guitar,0.30053794384002686,0
57,100,0.5590909090909091,546,0,10,_DL_Japanese_Folk_Pop_Acoustic_Folk_Guitar,6,9,_DL_Japanese_Folk_Pop_Acoustic_Folk_Guitar,0.28528910875320435,0
52,100,0.21818181818181817,65,1,11,_DL_Japanese_Folk_Pop_Acoustic_Folk_Guitar,6,3,_DL_Japanese_Folk_Pop_Acoustic_Folk_Guitar,0.9998385906219482,1
52,100,0.1409090909090909,118,0,11,_DL_Japanese_Folk_Pop_Acoustic_Folk_Guitar,6,2,_DL_Japanese_Folk_Pop_Acoustic_Folk_Guitar,0.4085058867931366,0
57,100,0.7227272727272728,673,1,11,_DL_Japanese_Folk_Pop_Acoustic_Folk_Guitar,6,12,_DL_Japanese_Folk_Pop_Acoustic_Folk_Guitar,0.4064773619174957,0
57,100,0.1,30,1,12,_DL_Japanese_Folk_Pop_Acoustic_Folk_Guitar,6,2,_DL_Japanese_Folk_Pop_Acoustic_Folk_Guitar,0.9998273253440857,1
64,100,0.740909090909091,96,0,12,_DL_Japanese_Folk_Pop_Acoustic_Folk_Guitar,6,12,_DL_Japanese_Folk_Pop_Acoustic_Folk_Guitar,0.4013754725456238,0
59,100,0.6181818181818182,615,1,12,_DL_Japanese_Folk_Pop_Acoustic_Folk_Guitar,6,10,_DL_Japanese_Folk_Pop_Acoustic_Folk_Guitar,0.42739543318748474,0
62,100,0.21818181818181817,39,1,13,_DL_Japanese_Folk_Pop_Acoustic_Folk_Guitar,6,3,_DL_Japanese_Folk_Pop_Acoustic_Folk_Guitar,0.9998024106025696,1
62,100,0.6409090909090909,245,0,13,_DL_Japanese_Folk_Pop_Acoustic_Folk_Guitar,6,10,_DL_Japanese_Folk_Pop_Acoustic_Folk_Guitar,0.1209862232208252,0
57,100,0.1590909090909091,386,0,13,_DL_Japanese_Folk_Pop_Acoustic_Folk_Guitar,6,3,_DL_Japanese_Folk_Pop_Acoustic_Folk_Guitar,0.12823140621185303,0
57,100,0.2818181818181818,474,0,13,_DL_Japanese_Folk_Pop_Acoustic_Folk_Guitar,6,5,_DL_Japanese_Folk_Pop_Acoustic_Folk_Guitar,0.12990669906139374,0
57,100,0.1409090909090909,606,0,13,_DL_Japanese_Folk_Pop_Acoustic_Folk_Guitar,6,2,_DL_Japanese_Folk_Pop_Acoustic_Folk_Guitar,0.15362919867038727,0
57,100,0.17727272727272728,646,0,13,_DL_Japanese_Folk_Pop_Acoustic_Folk_Guitar,6,3,_DL_Japanese_Folk_Pop_Acoustic_Folk_Guitar,0.13382451236248016,0
57,100,0.3409090909090909,202,1,14,_DL_Japanese_Folk_Pop_Acoustic_Folk_Guitar,6,5,_DL_Japanese_Folk_Pop_Acoustic_Folk_Guitar,0.9998258948326111,1
57,100,0.1409090909090909,295,0,14,_DL_Japanese_Folk_Pop_Acoustic_Folk_Guitar,6,2,_DL_Japanese_Folk_Pop_Acoustic_Folk_Guitar,0.21739470958709717,0
64,100,0.2590909090909091,637,1,14,_DL_Japanese_Folk_Pop_Acoustic_Folk_Guitar,6,4,_DL_Japanese_Folk_Pop_Acoustic_Folk_Guitar,0.20539942383766174,0
59,100,0.16363636363636364,795,0,14,_DL_Japanese_Folk_Pop_Acoustic_Folk_Guitar,6,3,_DL_Japanese_Folk_Pop_Acoustic_Folk_Guitar,0.20523078739643097,0
56,100,0.17727272727272728,831,0,14,_DL_Japanese_Folk_Pop_Acoustic_Folk_Guitar,6,3,_DL_Japanese_Folk_Pop_Acoustic_Folk_Guitar,0.1996898353099823,0
59,100,0.18181818181818182,22,1,15,_DL_Japanese_Folk_Pop_Acoustic_Folk_Guitar,6,3,_DL_Japanese_Folk_Pop_Acoustic_Folk_Guitar,0.9997290968894958,1
57,100,0.2,123,0,15,_DL_Japanese_Folk_Pop_Acoustic_Folk_Guitar,6,3,_DL_Japanese_Folk_Pop_Acoustic_Folk_Guitar,0.05554280802607536,0
59,100,0.1,197,0,15,_DL_Japanese_Folk_Pop_Acoustic_Folk_Guitar,6,2,_DL_Japanese_Folk_Pop_Acoustic_Folk_Guitar,0.04968293383717537,0
61,100,0.1,307,0,15,_DL_Japanese_Folk_Pop_Acoustic_Folk_Guitar,6,2,_DL_Japanese_Folk_Pop_Acoustic_Folk_Guitar,0.04784298688173294,0
61,100,0.5,355,0,15,_DL_Japanese_Folk_Pop_Acoustic_Folk_Guitar,6,8,_DL_Japanese_Folk_Pop_Acoustic_Folk_Guitar,0.051625899970531464,0
61,100,0.4590909090909091,470,0,15,_DL_Japanese_Folk_Pop_Acoustic_Folk_Guitar,6,7,_DL_Japanese_Folk_Pop_Acoustic_Folk_Guitar,0.06405146420001984,0
57,100,0.2,646,0,15,_DL_Japanese_Folk_Pop_Acoustic_Folk_Guitar,6,3,_DL_Japanese_Folk_Pop_Acoustic_Folk_Guitar,0.07221571356058121,0
61,100,0.8772727272727273,831,0,15,_DL_Japanese_Folk_Pop_Acoustic_Folk_Guitar,6,14,_DL_Japanese_Folk_Pop_Acoustic_Folk_Guitar,0.0595734640955925,0
57,100,0.21818181818181817,150,1,16,_DL_Japanese_Folk_Pop_Acoustic_Folk_Guitar,6,3,_DL_Japanese_Folk_Pop_Acoustic_Folk_Guitar,0.9998001456260681,1
61,100,0.3181818181818182,206,0,16,_DL_Japanese_Folk_Pop_Acoustic_Folk_Guitar,6,5,_DL_Japanese_Folk_Pop_Acoustic_Folk_Guitar,0.12850014865398407,0
62,100,0.13636363636363635,567,1,16,_DL_Japanese_Folk_Pop_Acoustic_Folk_Guitar,6,2,_DL_Japanese_Folk_Pop_Acoustic_Folk_Guitar,0.123817078769207,0
62,100,0.1,681,0,16,_DL_Japanese_Folk_Pop_Acoustic_Folk_Guitar,6,2,_DL_Japanese_Folk_Pop_Acoustic_Folk_Guitar,0.13883468508720398,0
57,100,0.2772727272727273,766,0,16,_DL_Japanese_Folk_Pop_Acoustic_Folk_Guitar,6,4,_DL_Japanese_Folk_Pop_Acoustic_Folk_Guitar,0.13401097059249878,0
56,100,0.2409090909090909,862,0,16,_DL_Japanese_Folk_Pop_Acoustic_Folk_Guitar,6,4,_DL_Japanese_Folk_Pop_Acoustic_Folk_Guitar,0.13321247696876526,0
59,100,0.21818181818181817,96,1,17,_DL_Japanese_Folk_Pop_Acoustic_Folk_Guitar,6,3,_DL_Japanese_Folk_Pop_Acoustic_Folk_Guitar,0.999852180480957,1
56,100,0.4,250,0,17,_DL_Japanese_Folk_Pop_Acoustic_Folk_Guitar,6,6,_DL_Japanese_Folk_Pop_Acoustic_Folk_Guitar,0.31879952549934387,0
57,100,0.3409090909090909,339,0,17,_DL_Japanese_Folk_Pop_Acoustic_Folk_Guitar,6,5,_DL_Japanese_Folk_Pop_Acoustic_Folk_Guitar,0.2864026725292206,0
57,100,0.2636363636363636,598,1,17,_DL_Japanese_Folk_Pop_Acoustic_Folk_Guitar,6,4,_DL_Japanese_Folk_Pop_Acoustic_Folk_Guitar,0.31431689858436584,0
64,100,0.12272727272727273,48,1,18,_DL_Japanese_Folk_Pop_Acoustic_Folk_Guitar,6,2,_DL_Japanese_Folk_Pop_Acoustic_Folk_Guitar,0.9998331069946289,1
57,100,0.8363636363636363,413,1,18,_DL_Japanese_Folk_Pop_Acoustic_Folk_Guitar,6,13,_DL_Japanese_Folk_Pop_Acoustic_Folk_Guitar,0.3751588463783264,0
57,100,0.5,602,0,18,_DL_Japanese_Folk_Pop_Acoustic_Folk_Guitar,6,8,_DL_Japanese_Folk_Pop_Acoustic_Folk_Guitar,0.43981343507766724,0
57,100,0.5818181818181818,113,1,19,_DL_Japanese_Folk_Pop_Acoustic_Folk_Guitar,6,9,_DL_Japanese_Folk_Pop_Acoustic_Folk_Guitar,0.9998390674591064,1
56,100,0.41818181818181815,241,0,19,_DL_Japanese_Folk_Pop_Acoustic_Folk_Guitar,6,7,_DL_Japanese_Folk_Pop_Acoustic_Folk_Guitar,0.3340699076652527,0
59,100,0.3,567,1,19,_DL_Japanese_Folk_Pop_Acoustic_Folk_Guitar,6,5,_DL_Japanese_Folk_Pop_Acoustic_Folk_Guitar,0.2948419153690338,0
59,100,0.1590909090909091,700,0,19,_DL_Japanese_Folk_Pop_Acoustic_Folk_Guitar,6,3,_DL_Japanese_Folk_Pop_Acoustic_Folk_Guitar,0.31264135241508484,0
61,100,0.6590909090909091,44,1,20,_DL_Japanese_Folk_Pop_Acoustic_Folk_Guitar,6,11,_DL_Japanese_Folk_Pop_Acoustic_Folk_Guitar,0.9997439980506897,1
59,100,0.2590909090909091,254,0,20,_DL_Japanese_Folk_Pop_Acoustic_Folk_Guitar,6,4,_DL_Japanese_Folk_Pop_Acoustic_Folk_Guitar,0.08619803190231323,0
57,100,0.2409090909090909,316,0,20,_DL_Japanese_Folk_Pop_Acoustic_Folk_Guitar,6,4,_DL_Japanese_Folk_Pop_Acoustic_Folk_Guitar,0.07347662001848221,0
64,100,0.2409090909090909,449,0,20,_DL_Japanese_Folk_Pop_Acoustic_Folk_Guitar,6,4,_DL_Japanese_Folk_Pop_Acoustic_Folk_Guitar,0.08335874229669571,0
64,100,0.2,505,0,20,_DL_Japanese_Folk_Pop_Acoustic_Folk_Guitar,6,3,_DL_Japanese_Folk_Pop_Acoustic_Folk_Guitar,0.093378946185112,0
57,100,0.2772727272727273,691,0,20,_DL_Japanese_Folk_Pop_Acoustic_Folk_Guitar,6,4,_DL_Japanese_Folk_Pop_Acoustic_Folk_Guitar,0.09135302901268005,0
57,100,0.1590909090909091,827,0,20,_DL_Japanese_Folk_Pop_Acoustic_Folk_Guitar,6,3,_DL_Japanese_Folk_Pop_Acoustic_Folk_Guitar,0.08774013817310333,0
57,100,0.2590909090909091,316,1,21,_DL_Japanese_Folk_Pop_Acoustic_Folk_Guitar,6,4,_DL_Japanese_Folk_Pop_Acoustic_Folk_Guitar,0.9998310804367065,1
69,100,0.11818181818181818,374,0,21,_DL_Japanese_Folk_Pop_Acoustic_Folk_Guitar,6,2,_DL_Japanese_Folk_Pop_Acoustic_Folk_Guitar,0.20547473430633545,0
57,100,0.32272727272727275,399,0,21,_DL_Japanese_Folk_Pop_Acoustic_Folk_Guitar,6,5,_DL_Japanese_Folk_Pop_Acoustic_Folk_Guitar,0.19267693161964417,0
59,100,0.13636363636363635,677,1,21,_DL_Japanese_Folk_Pop_Acoustic_Folk_Guitar,6,2,_DL_Japanese_Folk_Pop_Acoustic_Folk_Guitar,0.21578514575958252,0
52,100,0.1,787,0,21,_DL_Japanese_Folk_Pop_Acoustic_Folk_Guitar,6,2,_DL_Japanese_Folk_Pop_Acoustic_Folk_Guitar,0.20765505731105804,0
57,100,0.1409090909090909,57,1,22,_DL_Japanese_Folk_Pop_Acoustic_Folk_Guitar,6,2,_DL_Japanese_Folk_Pop_Acoustic_Folk_Guitar,0.999713122844696,1
57,100,0.16363636363636364,179,0,22,_DL_Japanese_Folk_Pop_Acoustic_Folk_Guitar,6,3,_DL_Japanese_Folk_Pop_Acoustic_Folk_Guitar,0.05743163451552391,0
57,100,0.13636363636363635,260,0,22,_DL_Japanese_Folk_Pop_Acoustic_Folk_Guitar,6,2,_DL_Japanese_Folk_Pop_Acoustic_Folk_Guitar,0.04677706956863403,0
57,100,0.2,295,0,22,_DL_Japanese_Folk_Pop_Acoustic_Folk_Guitar,6,3,_DL_Japanese_Folk_Pop_Acoustic_Folk_Guitar,0.048701342195272446,0
57,100,0.41818181818181815,351,0,22,_DL_Japanese_Folk_Pop_Acoustic_Folk_Guitar,6,7,_DL_Japanese_Folk_Pop_Acoustic_Folk_Guitar,0.05145832151174545,0
57,100,0.2818181818181818,453,0,22,_DL_Japanese_Folk_Pop_Acoustic_Folk_Guitar,6,5,_DL_Japanese_Folk_Pop_Acoustic_Folk_Guitar,0.06468074023723602,0
57,100,0.17727272727272728,611,0,22,_DL_Japanese_Folk_Pop_Acoustic_Folk_Guitar,6,3,_DL_Japanese_Folk_Pop_Acoustic_Folk_Guitar,0.06962259113788605,0
64,100,0.5363636363636364,721,0,22,_DL_Japanese_Folk_Pop_Acoustic_Folk_Guitar,6,9,_DL_Japanese_Folk_Pop_Acoustic_Folk_Guitar,0.06589863449335098,0
52,100,0.2,79,1,23,_DL_Japanese_Folk_Pop_Acoustic_Folk_Guitar,6,3,_DL_Japanese_Folk_Pop_Acoustic_Folk_Guitar,0.9996941089630127,1
52,100,0.11818181818181818,154,0,23,_DL_Japanese_Folk_Pop_Acoustic_Folk_Guitar,6,2,_DL_Japanese_Folk_Pop_Acoustic_Folk_Guitar,0.03519507870078087,0
52,100,0.17727272727272728,206,0,23,_DL_Japanese_Folk_Pop_Acoustic_Folk_Guitar,6,3,_DL_Japanese_Folk_Pop_Acoustic_Folk_Guitar,0.025400226935744286,0
62,100,0.5181818181818182,272,0,23,_DL_Japanese_Folk_Pop_Acoustic_Folk_Guitar,6,8,_DL_Japanese_Folk_Pop_Acoustic_Folk_Guitar,0.019587824121117592,0
62,100,0.5818181818181818,453,0,23,_DL_Japanese_Folk_Pop_Acoustic_Folk_Guitar,6,9,_DL_Japanese_Folk_Pop_Acoustic_Folk_Guitar,0.018947653472423553,0
64,100,0.2818181818181818,584,0,23,_DL_Japanese_Folk_Pop_Acoustic_Folk_Guitar,6,5,_DL_Japanese_Folk_Pop_Acoustic_Folk_Guitar,0.02105586603283882,0
57,100,0.3,650,0,23,_DL_Japanese_Folk_Pop_Acoustic_Folk_Guitar,6,5,_DL_Japanese_Folk_Pop_Acoustic_Folk_Guitar,0.02176831290125847,0
64,100,0.12272727272727273,739,0,23,_DL_Japanese_Folk_Pop_Acoustic_Folk_Guitar,6,2,_DL_Japanese_Folk_Pop_Acoustic_Folk_Guitar,0.03192339465022087,0
68,100,0.16363636363636364,773,0,23,_DL_Japanese_Folk_Pop_Acoustic_Folk_Guitar,6,3,_DL_Japanese_Folk_Pop_Acoustic_Folk_Guitar,0.03640815243124962,0
68,100,0.11818181818181818,814,0,23,_DL_Japanese_Folk_Pop_Acoustic_Folk_Guitar,6,2,_DL_Japanese_Folk_Pop_Acoustic_Folk_Guitar,0.039064470678567886,0
52,100,0.1590909090909091,154,1,24,_DL_Japanese_Folk_Pop_Acoustic_Folk_Guitar,6,3,_DL_Japanese_Folk_Pop_Acoustic_Folk_Guitar,0.9998401403427124,1
59,100,0.5409090909090909,268,0,24,_DL_Japanese_Folk_Pop_Acoustic_Folk_Guitar,6,9,_DL_Japanese_Folk_Pop_Acoustic_Folk_Guitar,0.19397729635238647,0
56,100,0.17727272727272728,457,0,24,_DL_Japanese_Folk_Pop_Acoustic_Folk_Guitar,6,3,_DL_Japanese_Folk_Pop_Acoustic_Folk_Guitar,0.21047024428844452,0
64,100,0.6,584,0,24,_DL_Japanese_Folk_Pop_Acoustic_Folk_Guitar,6,10,_DL_Japanese_Folk_Pop_Acoustic_Folk_Guitar,0.2037665992975235,0
59,100,0.23636363636363636,787,0,24,_DL_Japanese_Folk_Pop_Acoustic_Folk_Guitar,6,4,_DL_Japanese_Folk_Pop_Acoustic_Folk_Guitar,0.20656602084636688,0
61,100,0.2,88,1,25,_DL_Japanese_Folk_Pop_Acoustic_Folk_Guitar,6,3,_DL_Japanese_Folk_Pop_Acoustic_Folk_Guitar,0.9997237324714661,1
61,100,0.5636363636363636,136,0,25,_DL_Japanese_Folk_Pop_Acoustic_Folk_Guitar,6,9,_DL_Japanese_Folk_Pop_Acoustic_Folk_Guitar,0.0528891421854496,0
57,100,0.18181818181818182,268,0,25,_DL_Japanese_Folk_Pop_Acoustic_Folk_Guitar,6,3,_DL_Japanese_Folk_Pop_Acoustic_Folk_Guitar,0.04909135401248932,0
54,100,0.18181818181818182,312,0,25,_DL_Japanese_Folk_Pop_Acoustic_Folk_Guitar,6,3,_DL_Japanese_Folk_Pop_Acoustic_Folk_Guitar,0.049445707350969315,0
57,100,0.5590909090909091,409,0,25,_DL_Japanese_Folk_Pop_Acoustic_Folk_Guitar,6,9,_DL_Japanese_Folk_Pop_Acoustic_Folk_Guitar,0.05014786496758461,0
57,100,0.2,773,1,25,_DL_Japanese_Folk_Pop_Acoustic_Folk_Guitar,6,3,_DL_Japanese_Folk_Pop_Acoustic_Folk_Guitar,0.06396640837192535,0
57,100,0.1,839,0,25,_DL_Japanese_Folk_Pop_Acoustic_Folk_Guitar,6,2,_DL_Japanese_Folk_Pop_Acoustic_Folk_Guitar,0.06915837526321411,0
64,100,0.2590909090909091,866,0,25,_DL_Japanese_Folk_Pop_Acoustic_Folk_Guitar,6,4,_DL_Japanese_Folk_Pop_Acoustic_Folk_Guitar,0.06486529856920242,0
57,100,0.23636363636363636,106,1,26,_DL_Japanese_Folk_Pop_Acoustic_Folk_Guitar,6,4,_DL_Japanese_Folk_Pop_Acoustic_Folk_Guitar,0.999765932559967,1
68,100,0.22272727272727272,167,0,26,_DL_Japanese_Folk_Pop_Acoustic_Folk_Guitar,6,4,_DL_Japanese_Folk_Pop_Acoustic_Folk_Guitar,0.08226604014635086,0
64,100,0.1590909090909091,364,0,26,_DL_Japanese_Folk_Pop_Acoustic_Folk_Guitar,6,3,_DL_Japanese_Folk_Pop_Acoustic_Folk_Guitar,0.07747666537761688,0
69,100,0.22272727272727272,488,0,26,_DL_Japanese_Folk_Pop_Acoustic_Folk_Guitar,6,4,_DL_Japanese_Folk_Pop_Acoustic_Folk_Guitar,0.07891912758350372,0
59,100,0.12272727272727273,607,0,26,_DL_Japanese_Folk_Pop_Acoustic_Folk_Guitar,6,2,_DL_Japanese_Folk_Pop_Acoustic_Folk_Guitar,0.09002270549535751,0
57,100,0.1,787,0,26,_DL_Japanese_Folk_Pop_Acoustic_Folk_Guitar,6,2,_DL_Japanese_Folk_Pop_Acoustic_Folk_Guitar,0.09724181890487671,0
61,100,1.0772727272727274,866,0,26,_DL_Japanese_Folk_Pop_Acoustic_Folk_Guitar,6,15,_DL_Japanese_Folk_Pop_Acoustic_Folk_Guitar,0.0810973197221756,0
52,100,0.13636363636363635,656,1,27,_DL_Japanese_Folk_Pop_Acoustic_Folk_Guitar,6,2,_DL_Japanese_Folk_Pop_Acoustic_Folk_Guitar,0.9936724901199341,0
61,100,0.1590909090909091,83,1,28,_DL_Japanese_Folk_Pop_Acoustic_Folk_Guitar,6,3,_DL_Japanese_Folk_Pop_Acoustic_Folk_Guitar,0.9998016953468323,1
61,100,0.17727272727272728,127,0,28,_DL_Japanese_Folk_Pop_Acoustic_Folk_Guitar,6,3,_DL_Japanese_Folk_Pop_Acoustic_Folk_Guitar,0.12298857420682907,0
64,100,0.1590909090909091,264,0,28,_DL_Japanese_Folk_Pop_Acoustic_Folk_Guitar,6,3,_DL_Japanese_Folk_Pop_Acoustic_Folk_Guitar,0.1248321384191513,0
56,100,0.12272727272727273,430,0,28,_DL_Japanese_Folk_Pop_Acoustic_Folk_Guitar,6,2,_DL_Japanese_Folk_Pop_Acoustic_Folk_Guitar,0.13348665833473206,0
59,100,0.5772727272727273,625,0,28,_DL_Japanese_Folk_Pop_Acoustic_Folk_Guitar,6,9,_DL_Japanese_Folk_Pop_Acoustic_Folk_Guitar,0.1332237869501114,0
59,100,0.17727272727272728,801,0,28,_DL_Japanese_Folk_Pop_Acoustic_Folk_Guitar,6,3,_DL_Japanese_Folk_Pop_Acoustic_Folk_Guitar,0.13394024968147278,0
54,100,0.5590909090909091,57,1,29,_DL_Japanese_Folk_Pop_Acoustic_Folk_Guitar,6,9,_DL_Japanese_Folk_Pop_Acoustic_Folk_Guitar,0.9998013377189636,1
61,100,0.2772727272727273,700,1,29,_DL_Japanese_Folk_Pop_Acoustic_Folk_Guitar,6,4,_DL_Japanese_Folk_Pop_Acoustic_Folk_Guitar,0.44062554836273193,0
61,100,0.4,796,0,29,_DL_Japanese_Folk_Pop_Acoustic_Folk_Guitar,6,6,_DL_Japanese_Folk_Pop_Acoustic_Folk_Guitar,0.4314131736755371,0
62,100,0.13636363636363635,281,1,30,_DL_Japanese_Folk_Pop_Acoustic_Folk_Guitar,6,2,_DL_Japanese_Folk_Pop_Acoustic_Folk_Guitar,0.999842643737793,1
62,100,0.3,316,0,30,_DL_Japanese_Folk_Pop_Acoustic_Folk_Guitar,6,5,_DL_Japanese_Folk_Pop_Acoustic_Folk_Guitar,0.20748940110206604,0
62,100,0.1590909090909091,638,1,30,_DL_Japanese_Folk_Pop_Acoustic_Folk_Guitar,6,3,_DL_Japanese_Folk_Pop_Acoustic_Folk_Guitar,0.20396462082862854,0
73,100,0.17727272727272728,721,0,30,_DL_Japanese_Folk_Pop_Acoustic_Folk_Guitar,6,3,_DL_Japanese_Folk_Pop_Acoustic_Folk_Guitar,0.20702068507671356,0
62,100,0.9181818181818182,822,0,30,_DL_Japanese_Folk_Pop_Acoustic_Folk_Guitar,6,15,_DL_Japanese_Folk_Pop_Acoustic_Folk_Guitar,0.1934877634048462,0
62,100,0.41818181818181815,206,1,31,_DL_Japanese_Folk_Pop_Acoustic_Folk_Guitar,6,7,_DL_Japanese_Folk_Pop_Acoustic_Folk_Guitar,0.9996265172958374,1
52,100,0.7,642,1,31,_DL_Japanese_Folk_Pop_Acoustic_Folk_Guitar,6,11,_DL_Japanese_Folk_Pop_Acoustic_Folk_Guitar,0.5490908622741699,0
52,100,0.2818181818181818,373,1,32,_DL_Japanese_Folk_Pop_Acoustic_Folk_Guitar,6,5,_DL_Japanese_Folk_Pop_Acoustic_Folk_Guitar,0.9998353719711304,1
57,100,0.21818181818181817,791,1,32,_DL_Japanese_Folk_Pop_Acoustic_Folk_Guitar,6,3,_DL_Japanese_Folk_Pop_Acoustic_Folk_Guitar,0.39501112699508667,0
69,100,0.12272727272727273,839,0,32,_DL_Japanese_Folk_Pop_Acoustic_Folk_Guitar,6,2,_DL_Japanese_Folk_Pop_Acoustic_Folk_Guitar,0.42773208022117615,0
57,100,0.11818181818181818,66,1,33,_DL_Japanese_Folk_Pop_Acoustic_Folk_Guitar,6,2,_DL_Japanese_Folk_Pop_Acoustic_Folk_Guitar,0.9997718930244446,1
52,100,0.4818181818181818,136,0,33,_DL_Japanese_Folk_Pop_Acoustic_Folk_Guitar,6,8,_DL_Japanese_Folk_Pop_Acoustic_Folk_Guitar,0.07644110918045044,0
52,100,0.2,364,0,33,_DL_Japanese_Folk_Pop_Acoustic_Folk_Guitar,6,3,_DL_Japanese_Folk_Pop_Acoustic_Folk_Guitar,0.07625138759613037,0
59,100,0.17727272727272728,558,0,33,_DL_Japanese_Folk_Pop_Acoustic_Folk_Guitar,6,3,_DL_Japanese_Folk_Pop_Acoustic_Folk_Guitar,0.07646019011735916,0
57,100,0.2,603,0,33,_DL_Japanese_Folk_Pop_Acoustic_Folk_Guitar,6,3,_DL_Japanese_Folk_Pop_Acoustic_Folk_Guitar,0.08790137618780136,0
57,100,0.17727272727272728,721,0,33,_DL_Japanese_Folk_Pop_Acoustic_Folk_Guitar,6,3,_DL_Japanese_Folk_Pop_Acoustic_Folk_Guitar,0.09761270135641098,0
64,100,0.35909090909090907,791,0,33,_DL_Japanese_Folk_Pop_Acoustic_Folk_Guitar,6,6,_DL_Japanese_Folk_Pop_Acoustic_Folk_Guitar,0.08519434928894043,0
57,100,0.9,40,1,34,_DL_Japanese_Folk_Pop_Acoustic_Folk_Guitar,6,14,_DL_Japanese_Folk_Pop_Acoustic_Folk_Guitar,0.9997962117195129,1
57,100,0.2818181818181818,351,1,34,_DL_Japanese_Folk_Pop_Acoustic_Folk_Guitar,6,5,_DL_Japanese_Folk_Pop_Acoustic_Folk_Guitar,0.23623573780059814,0
64,100,0.4590909090909091,431,0,34,_DL_Japanese_Folk_Pop_Acoustic_Folk_Guitar,6,7,_DL_Japanese_Folk_Pop_Acoustic_Folk_Guitar,0.2128574401140213,0
57,100,0.3181818181818182,545,0,34,_DL_Japanese_Folk_Pop_Acoustic_Folk_Guitar,6,5,_DL_Japanese_Folk_Pop_Acoustic_Folk_Guitar,0.20523199439048767,0
57,100,0.16363636363636364,708,0,34,_DL_Japanese_Folk_Pop_Acoustic_Folk_Guitar,6,3,_DL_Japanese_Folk_Pop_Acoustic_Folk_Guitar,0.21798808872699738,0
57,100,0.2636363636363636,246,1,35,_DL_Japanese_Folk_Pop_Acoustic_Folk_Guitar,6,4,_DL_Japanese_Folk_Pop_Acoustic_Folk_Guitar,0.9998486042022705,1
57,100,0.1590909090909091,321,0,35,_DL_Japanese_Folk_Pop_Acoustic_Folk_Guitar,6,3,_DL_Japanese_Folk_Pop_Acoustic_Folk_Guitar,0.3282114565372467,0
59,100,0.1409090909090909,713,1,35,_DL_Japanese_Folk_Pop_Acoustic_Folk_Guitar,6,2,_DL_Japanese_Folk_Pop_Acoustic_Folk_Guitar,0.30071309208869934,0
57,100,1.040909090909091,871,0,35,_DL_Japanese_Folk_Pop_Acoustic_Folk_Guitar,6,15,_DL_Japanese_Folk_Pop_Acoustic_Folk_Guitar,0.28922417759895325,0
57,100,0.3409090909090909,224,1,36,_DL_Japanese_Folk_Pop_Acoustic_Folk_Guitar,6,5,_DL_Japanese_Folk_Pop_Acoustic_Folk_Guitar,0.9997231364250183,1
57,100,0.33636363636363636,435,0,36,_DL_Japanese_Folk_Pop_Acoustic_Folk_Guitar,6,5,_DL_Japanese_Folk_Pop_Acoustic_Folk_Guitar,0.05531242489814758,0
57,100,0.22272727272727272,518,0,36,_DL_Japanese_Folk_Pop_Acoustic_Folk_Guitar,6,4,_DL_Japanese_Folk_Pop_Acoustic_Folk_Guitar,0.048395413905382156,0
57,100,0.18181818181818182,593,0,36,_DL_Japanese_Folk_Pop_Acoustic_Folk_Guitar,6,3,_DL_Japanese_Folk_Pop_Acoustic_Folk_Guitar,0.04682031273841858,0
52,100,0.2772727272727273,633,0,36,_DL_Japanese_Folk_Pop_Acoustic_Folk_Guitar,6,4,_DL_Japanese_Folk_Pop_Acoustic_Folk_Guitar,0.055470578372478485,0
57,100,0.12272727272727273,694,0,36,_DL_Japanese_Folk_Pop_Acoustic_Folk_Guitar,6,2,_DL_Japanese_Folk_Pop_Acoustic_Folk_Guitar,0.05808289721608162,0
64,100,0.21818181818181817,765,0,36,_DL_Japanese_Folk_Pop_Acoustic_Folk_Guitar,6,3,_DL_Japanese_Folk_Pop_Acoustic_Folk_Guitar,0.06906809657812119,0
57,100,0.3409090909090909,813,0,36,_DL_Japanese_Folk_Pop_Acoustic_Folk_Guitar,6,5,_DL_Japanese_Folk_Pop_Acoustic_Folk_Guitar,0.05881231278181076,0
64,100,0.11818181818181818,75,1,37,_DL_Japanese_Folk_Pop_Acoustic_Folk_Guitar,6,2,_DL_Japanese_Folk_Pop_Acoustic_Folk_Guitar,0.999843955039978,1
57,100,0.12272727272727273,114,0,37,_DL_Japanese_Folk_Pop_Acoustic_Folk_Guitar,6,2,_DL_Japanese_Folk_Pop_Acoustic_Folk_Guitar,0.19926510751247406,0
57,100,0.2,254,0,37,_DL_Japanese_Folk_Pop_Acoustic_Folk_Guitar,6,3,_DL_Japanese_Folk_Pop_Acoustic_Folk_Guitar,0.194501593708992,0
57,100,0.3181818181818182,506,1,37,_DL_Japanese_Folk_Pop_Acoustic_Folk_Guitar,6,5,_DL_Japanese_Folk_Pop_Acoustic_Folk_Guitar,0.20374369621276855,0
57,100,0.1409090909090909,598,0,37,_DL_Japanese_Folk_Pop_Acoustic_Folk_Guitar,6,2,_DL_Japanese_Folk_Pop_Acoustic_Folk_Guitar,0.2068394273519516,0
59,100,0.37727272727272726,75,1,38,_DL_Japanese_Folk_Pop_Acoustic_Folk_Guitar,6,6,_DL_Japanese_Folk_Pop_Acoustic_Folk_Guitar,0.999845027923584,1
59,100,0.2590909090909091,206,0,38,_DL_Japanese_Folk_Pop_Acoustic_Folk_Guitar,6,4,_DL_Japanese_Folk_Pop_Acoustic_Folk_Guitar,0.3325884938240051,0
61,100,0.2409090909090909,581,1,38,_DL_Japanese_Folk_Pop_Acoustic_Folk_Guitar,6,4,_DL_Japanese_Folk_Pop_Acoustic_Folk_Guitar,0.29223230481147766,0
59,100,0.5,646,0,38,_DL_Japanese_Folk_Pop_Acoustic_Folk_Guitar,6,8,_DL_Japanese_Folk_Pop_Acoustic_Folk_Guitar,0.30801865458488464,0
64,100,0.18181818181818182,110,1,39,_DL_Japanese_Folk_Pop_Acoustic_Folk_Guitar,6,3,_DL_Japanese_Folk_Pop_Acoustic_Folk_Guitar,0.9998095631599426,1
57,100,0.2818181818181818,211,0,39,_DL_Japanese_Folk_Pop_Acoustic_Folk_Guitar,6,5,_DL_Japanese_Folk_Pop_Acoustic_Folk_Guitar,0.11859175562858582,0
61,100,0.1409090909090909,316,0,39,_DL_Japanese_Folk_Pop_Acoustic_Folk_Guitar,6,2,_DL_Japanese_Folk_Pop_Acoustic_Folk_Guitar,0.12789472937583923,0
57,100,0.2409090909090909,351,0,39,_DL_Japanese_Folk_Pop_Acoustic_Folk_Guitar,6,4,_DL_Japanese_Folk_Pop_Acoustic_Folk_Guitar,0.13291463255882263,0
57,100,0.35909090909090907,726,1,39,_DL_Japanese_Folk_Pop_Acoustic_Folk_Guitar,6,6,_DL_Japanese_Folk_Pop_Acoustic_Folk_Guitar,0.1460885852575302,0
57,100,0.17727272727272728,831,0,39,_DL_Japanese_Folk_Pop_Acoustic_Folk_Guitar,6,3,_DL_Japanese_Folk_Pop_Acoustic_Folk_Guitar,0.13434289395809174,0
69,100,0.12272727272727273,729,1,40,_DL_Japanese_Folk_Pop_Acoustic_Folk_Guitar,6,2,_DL_Japanese_Folk_Pop_Acoustic_Folk_Guitar,0.9996286630630493,1
57,100,0.4409090909090909,774,0,40,_DL_Japanese_Folk_Pop_Acoustic_Folk_Guitar,6,7,_DL_Japanese_Folk_Pop_Acoustic_Folk_Guitar,0.5393157005310059,0
57,100,0.1409090909090909,26,1,41,_DL_Japanese_Folk_Pop_Acoustic_Folk_Guitar,6,2,_DL_Japanese_Folk_Pop_Acoustic_Folk_Guitar,0.9998225569725037,1
57,100,0.22272727272727272,686,1,41,_DL_Japanese_Folk_Pop_Acoustic_Folk_Guitar,6,4,_DL_Japanese_Folk_Pop_Acoustic_Folk_Guitar,0.4178505837917328,0
61,100,0.6409090909090909,858,0,41,_DL_Japanese_Folk_Pop_Acoustic_Folk_Guitar,6,10,_DL_Japanese_Folk_Pop_Acoustic_Folk_Guitar,0.4185178577899933,0
66,100,0.21818181818181817,251,1,42,_DL_Japanese_Folk_Pop_Acoustic_Folk_Guitar,6,3,_DL_Japanese_Folk_Pop_Acoustic_Folk_Guitar,0.9996019005775452,1
61,100,1.459090909090909,804,1,42,_DL_Japanese_Folk_Pop_Acoustic_Folk_Guitar,6,15,_DL_Japanese_Folk_Pop_Acoustic_Folk_Guitar,0.5216761231422424,0
57,100,0.3,303,1,43,_DL_Japanese_Folk_Pop_Acoustic_Folk_Guitar,6,5,_DL_Japanese_Folk_Pop_Acoustic_Folk_Guitar,0.9998263716697693,1
59,100,0.1409090909090909,584,1,43,_DL_Japanese_Folk_Pop_Acoustic_Folk_Guitar,6,2,_DL_Japanese_Folk_Pop_Acoustic_Folk_Guitar,0.22396977245807648,0
68,100,0.3409090909090909,619,0,43,_DL_Japanese_Folk_Pop_Acoustic_Folk_Guitar,6,5,_DL_Japanese_Folk_Pop_Acoustic_Folk_Guitar,0.19443254172801971,0
64,100,0.17727272727272728,756,0,43,_DL_Japanese_Folk_Pop_Acoustic_Folk_Guitar,6,3,_DL_Japanese_Folk_Pop_Acoustic_Folk_Guitar,0.21788252890110016,0
52,100,0.16363636363636364,796,0,43,_DL_Japanese_Folk_Pop_Acoustic_Folk_Guitar,6,3,_DL_Japanese_Folk_Pop_Acoustic_Folk_Guitar,0.20254561305046082,0
64,100,0.1,43,1,44,_DL_Japanese_Folk_Pop_Acoustic_Folk_Guitar,6,2,_DL_Japanese_Folk_Pop_Acoustic_Folk_Guitar,0.9998500347137451,1
64,100,0.1,105,0,44,_DL_Japanese_Folk_Pop_Acoustic_Folk_Guitar,6,2,_DL_Japanese_Folk_Pop_Acoustic_Folk_Guitar,0.20258204638957977,0
64,100,0.1409090909090909,131,0,44,_DL_Japanese_Folk_Pop_Acoustic_Folk_Guitar,6,2,_DL_Japanese_Folk_Pop_Acoustic_Folk_Guitar,0.19477196037769318,0
64,100,0.38181818181818183,166,0,44,_DL_Japanese_Folk_Pop_Acoustic_Folk_Guitar,6,6,_DL_Japanese_Folk_Pop_Acoustic_Folk_Guitar,0.1985190212726593,0
57,100,0.17727272727272728,435,1,44,_DL_Japanese_Folk_Pop_Acoustic_Folk_Guitar,6,3,_DL_Japanese_Folk_Pop_Acoustic_Folk_Guitar,0.19742870330810547,0
64,100,0.2,136,1,45,_DL_Japanese_Folk_Pop_Acoustic_Folk_Guitar,6,3,_DL_Japanese_Folk_Pop_Acoustic_Folk_Guitar,0.9998229146003723,1
61,100,1.440909090909091,188,0,45,_DL_Japanese_Folk_Pop_Acoustic_Folk_Guitar,6,15,_DL_Japanese_Folk_Pop_Acoustic_Folk_Guitar,0.3626963496208191,0
59,100,0.21818181818181817,523,1,45,_DL_Japanese_Folk_Pop_Acoustic_Folk_Guitar,6,3,_DL_Japanese_Folk_Pop_Acoustic_Folk_Guitar,0.4661670923233032,0
61,100,1.4181818181818182,18,1,46,_DL_Japanese_Folk_Pop_Acoustic_Folk_Guitar,6,15,_DL_Japanese_Folk_Pop_Acoustic_Folk_Guitar,0.9998014569282532,1
62,100,0.8409090909090909,334,1,46,_DL_Japanese_Folk_Pop_Acoustic_Folk_Guitar,6,13,_DL_Japanese_Folk_Pop_Acoustic_Folk_Guitar,0.36864179372787476,0
62,100,0.37727272727272726,646,1,46,_DL_Japanese_Folk_Pop_Acoustic_Folk_Guitar,6,6,_DL_Japanese_Folk_Pop_Acoustic_Folk_Guitar,0.31636372208595276,0
62,100,0.41818181818181815,748,0,46,_DL_Japanese_Folk_Pop_Acoustic_Folk_Guitar,6,7,_DL_Japanese_Folk_Pop_Acoustic_Folk_Guitar,0.32798027992248535,0
59,100,0.3,373,1,47,_DL_Japanese_Folk_Pop_Acoustic_Folk_Guitar,6,5,_DL_Japanese_Folk_Pop_Acoustic_Folk_Guitar,0.9998286962509155,1
57,100,0.1409090909090909,466,0,47,_DL_Japanese_Folk_Pop_Acoustic_Folk_Guitar,6,2,_DL_Japanese_Folk_Pop_Acoustic_Folk_Guitar,0.4219321310520172,0
61,100,0.42272727272727273,818,1,47,_DL_Japanese_Folk_Pop_Acoustic_Folk_Guitar,6,7,_DL_Japanese_Folk_Pop_Acoustic_Folk_Guitar,0.4177234172821045,0
54,100,0.4772727272727273,105,1,48,_DL_Japanese_Folk_Pop_Acoustic_Folk_Guitar,6,8,_DL_Japanese_Folk_Pop_Acoustic_Folk_Guitar,0.9997534155845642,1
57,100,0.2818181818181818,224,0,48,_DL_Japanese_Folk_Pop_Acoustic_Folk_Guitar,6,5,_DL_Japanese_Folk_Pop_Acoustic_Folk_Guitar,0.08398038148880005,0
54,100,0.38181818181818183,311,0,48,_DL_Japanese_Folk_Pop_Acoustic_Folk_Guitar,6,6,_DL_Japanese_Folk_Pop_Acoustic_Folk_Guitar,0.07383241504430771,0
57,100,0.2818181818181818,421,0,48,_DL_Japanese_Folk_Pop_Acoustic_Folk_Guitar,6,5,_DL_Japanese_Folk_Pop_Acoustic_Folk_Guitar,0.08197584003210068,0
57,100,0.4,488,0,48,_DL_Japanese_Folk_Pop_Acoustic_Folk_Guitar,6,6,_DL_Japanese_Folk_Pop_Acoustic_Folk_Guitar,0.0922582745552063,0
62,100,0.8227272727272728,606,0,48,_DL_Japanese_Folk_Pop_Acoustic_Folk_Guitar,6,13,_DL_Japanese_Folk_Pop_Acoustic_Folk_Guitar,0.09521559625864029,0
69,100,0.21818181818181817,791,0,48,_DL_Japanese_Folk_Pop_Acoustic_Folk_Guitar,6,3,_DL_Japanese_Folk_Pop_Acoustic_Folk_Guitar,0.09245117753744125,0
62,100,0.6,88,1,49,_DL_Japanese_Folk_Pop_Acoustic_Folk_Guitar,6,10,_DL_Japanese_Folk_Pop_Acoustic_Folk_Guitar,0.9998138546943665,1
59,100,0.1,703,1,49,_DL_Japanese_Folk_Pop_Acoustic_Folk_Guitar,6,2,_DL_Japanese_Folk_Pop_Acoustic_Folk_Guitar,0.4369431734085083,0
52,100,0.23636363636363636,810,0,49,_DL_Japanese_Folk_Pop_Acoustic_Folk_Guitar,6,4,_DL_Japanese_Folk_Pop_Acoustic_Folk_Guitar,0.43106192350387573,0
52,100,0.4818181818181818,66,1,50,_DL_Japanese_Folk_Pop_Acoustic_Folk_Guitar,6,8,_DL_Japanese_Folk_Pop_Acoustic_Folk_Guitar,0.9997356534004211,1
52,100,0.2,260,0,50,_DL_Japanese_Folk_Pop_Acoustic_Folk_Guitar,6,3,_DL_Japanese_Folk_Pop_Acoustic_Folk_Guitar,0.05500787869095802,0
52,100,0.21818181818181817,308,0,50,_DL_Japanese_Folk_Pop_Acoustic_Folk_Guitar,6,3,_DL_Japanese_Folk_Pop_Acoustic_Folk_Guitar,0.04778416454792023,0
57,100,0.38181818181818183,364,0,50,_DL_Japanese_Folk_Pop_Acoustic_Folk_Guitar,6,6,_DL_Japanese_Folk_Pop_Acoustic_Folk_Guitar,0.045095354318618774,0
57,100,0.2,550,0,50,_DL_Japanese_Folk_Pop_Acoustic_Folk_Guitar,6,3,_DL_Japanese_Folk_Pop_Acoustic_Folk_Guitar,0.054207298904657364,0
56,100,0.4,593,0,50,_DL_Japanese_Folk_Pop_Acoustic_Folk_Guitar,6,6,_DL_Japanese_Folk_Pop_Acoustic_Folk_Guitar,0.05685848370194435,0
56,100,0.22272727272727272,738,0,50,_DL_Japanese_Folk_Pop_Acoustic_Folk_Guitar,6,4,_DL_Japanese_Folk_Pop_Acoustic_Folk_Guitar,0.07127121835947037,0
57,100,0.41818181818181815,810,0,50,_DL_Japanese_Folk_Pop_Acoustic_Folk_Guitar,6,7,_DL_Japanese_Folk_Pop_Acoustic_Folk_Guitar,0.05958970636129379,0
57,100,0.5772727272727273,61,1,51,_DL_Japanese_Folk_Pop_Acoustic_Folk_Guitar,6,9,_DL_Japanese_Folk_Pop_Acoustic_Folk_Guitar,0.9998296499252319,1
69,100,0.35909090909090907,193,0,51,_DL_Japanese_Folk_Pop_Acoustic_Folk_Guitar,6,6,_DL_Japanese_Folk_Pop_Acoustic_Folk_Guitar,0.3349378705024719,0
57,100,0.11818181818181818,273,0,51,_DL_Japanese_Folk_Pop_Acoustic_Folk_Guitar,6,2,_DL_Japanese_Folk_Pop_Acoustic_Folk_Guitar,0.3045589029788971,0
61,100,0.13636363636363635,413,0,51,_DL_Japanese_Folk_Pop_Acoustic_Folk_Guitar,6,2,_DL_Japanese_Folk_Pop_Acoustic_Folk_Guitar,0.31233322620391846,0
61,100,0.18181818181818182,373,1,52,_DL_Japanese_Folk_Pop_Acoustic_Folk_Guitar,6,3,_DL_Japanese_Folk_Pop_Acoustic_Folk_Guitar,0.999854326248169,1
61,100,0.2590909090909091,518,0,52,_DL_Japanese_Folk_Pop_Acoustic_Folk_Guitar,6,4,_DL_Japanese_Folk_Pop_Acoustic_Folk_Guitar,0.3189823627471924,0
64,100,0.6227272727272727,628,0,52,_DL_Japanese_Folk_Pop_Acoustic_Folk_Guitar,6,10,_DL_Japanese_Folk_Pop_Acoustic_Folk_Guitar,0.2942407429218292,0
61,100,0.5363636363636364,831,0,52,_DL_Japanese_Folk_Pop_Acoustic_Folk_Guitar,6,9,_DL_Japanese_Folk_Pop_Acoustic_Folk_Guitar,0.3004600703716278,0
61,100,0.3,141,1,53,_DL_Japanese_Folk_Pop_Acoustic_Folk_Guitar,6,5,_DL_Japanese_Folk_Pop_Acoustic_Folk_Guitar,0.9998434782028198,1
61,100,0.11818181818181818,220,0,53,_DL_Japanese_Folk_Pop_Acoustic_Folk_Guitar,6,2,_DL_Japanese_Folk_Pop_Acoustic_Folk_Guitar,0.33495259284973145,0
62,100,0.5,268,0,53,_DL_Japanese_Folk_Pop_Acoustic_Folk_Guitar,6,8,_DL_Japanese_Folk_Pop_Acoustic_Folk_Guitar,0.2875649631023407,0
62,100,0.8,584,1,53,_DL_Japanese_Folk_Pop_Acoustic_Folk_Guitar,6,13,_DL_Japanese_Folk_Pop_Acoustic_Folk_Guitar,0.31038540601730347,0
52,100,0.38181818181818183,4,1,54,_DL_Japanese_Folk_Pop_Acoustic_Folk_Guitar,6,6,_DL_Japanese_Folk_Pop_Acoustic_Folk_Guitar,0.9998501539230347,1
52,100,0.22272727272727272,343,1,54,_DL_Japanese_Folk_Pop_Acoustic_Folk_Guitar,6,4,_DL_Japanese_Folk_Pop_Acoustic_Folk_Guitar,0.3335556387901306,0
59,100,0.21818181818181817,713,1,54,_DL_Japanese_Folk_Pop_Acoustic_Folk_Guitar,6,3,_DL_Japanese_Folk_Pop_Acoustic_Folk_Guitar,0.28903260827064514,0
61,100,0.18181818181818182,839,0,54,_DL_Japanese_Folk_Pop_Acoustic_Folk_Guitar,6,3,_DL_Japanese_Folk_Pop_Acoustic_Folk_Guitar,0.3026364743709564,0
61,100,0.35909090909090907,18,1,55,_DL_Japanese_Folk_Pop_Acoustic_Folk_Guitar,6,6,_DL_Japanese_Folk_Pop_Acoustic_Folk_Guitar,0.9998468160629272,1
54,100,0.12272727272727273,563,1,55,_DL_Japanese_Folk_Pop_Acoustic_Folk_Guitar,6,2,_DL_Japanese_Folk_Pop_Acoustic_Folk_Guitar,0.3273841440677643,0
62,100,0.16363636363636364,796,1,55,_DL_Japanese_Folk_Pop_Acoustic_Folk_Guitar,6,3,_DL_Japanese_Folk_Pop_Acoustic_Folk_Guitar,0.3018304407596588,0
59,100,0.5,853,0,55,_DL_Japanese_Folk_Pop_Acoustic_Folk_Guitar,6,8,_DL_Japanese_Folk_Pop_Acoustic_Folk_Guitar,0.2968565821647644,0
54,100,0.1590909090909091,123,1,56,_DL_Japanese_Folk_Pop_Acoustic_Folk_Guitar,6,3,_DL_Japanese_Folk_Pop_Acoustic_Folk_Guitar,0.9998518228530884,1
62,100,0.2409090909090909,509,1,56,_DL_Japanese_Folk_Pop_Acoustic_Folk_Guitar,6,4,_DL_Japanese_Folk_Pop_Acoustic_Folk_Guitar,0.32813140749931335,0
61,100,0.8363636363636363,678,0,56,_DL_Japanese_Folk_Pop_Acoustic_Folk_Guitar,6,13,_DL_Japanese_Folk_Pop_Acoustic_Folk_Guitar,0.2695988714694977,0
61,100,0.21818181818181817,866,0,56,_DL_Japanese_Folk_Pop_Acoustic_Folk_Guitar,6,3,_DL_Japanese_Folk_Pop_Acoustic_Folk_Guitar,0.32696589827537537,0
69,100,0.2409090909090909,48,1,57,_DL_Japanese_Folk_Pop_Acoustic_Folk_Guitar,6,4,_DL_Japanese_Folk_Pop_Acoustic_Folk_Guitar,0.9997619986534119,1
61,100,0.2409090909090909,110,0,57,_DL_Japanese_Folk_Pop_Acoustic_Folk_Guitar,6,4,_DL_Japanese_Folk_Pop_Acoustic_Folk_Guitar,0.07983352243900299,0
61,100,0.1590909090909091,254,0,57,_DL_Japanese_Folk_Pop_Acoustic_Folk_Guitar,6,3,_DL_Japanese_Folk_Pop_Acoustic_Folk_Guitar,0.07510276138782501,0
69,100,0.2409090909090909,373,0,57,_DL_Japanese_Folk_Pop_Acoustic_Folk_Guitar,6,4,_DL_Japanese_Folk_Pop_Acoustic_Folk_Guitar,0.07798190414905548,0
57,100,0.11818181818181818,616,1,57,_DL_Japanese_Folk_Pop_Acoustic_Folk_Guitar,6,2,_DL_Japanese_Folk_Pop_Acoustic_Folk_Guitar,0.09142178297042847,0
66,100,0.16363636363636364,641,0,57,_DL_Japanese_Folk_Pop_Acoustic_Folk_Guitar,6,3,_DL_Japanese_Folk_Pop_Acoustic_Folk_Guitar,0.09908998757600784,0
62,100,0.6181818181818182,810,0,57,_DL_Japanese_Folk_Pop_Acoustic_Folk_Guitar,6,10,_DL_Japanese_Folk_Pop_Acoustic_Folk_Guitar,0.08536199480295181,0
62,100,0.4409090909090909,251,1,58,_DL_Japanese_Folk_Pop_Acoustic_Folk_Guitar,6,7,_DL_Japanese_Folk_Pop_Acoustic_Folk_Guitar,0.9998515844345093,1
59,100,0.2590909090909091,628,1,58,_DL_Japanese_Folk_Pop_Acoustic_Folk_Guitar,6,4,_DL_Japanese_Folk_Pop_Acoustic_Folk_Guitar,0.31712937355041504,0
62,100,0.41818181818181815,703,0,58,_DL_Japanese_Folk_Pop_Acoustic_Folk_Guitar,6,7,_DL_Japanese_Folk_Pop_Acoustic_Folk_Guitar,0.29158708453178406,0
59,100,0.1409090909090909,801,0,58,_DL_Japanese_Folk_Pop_Acoustic_Folk_Guitar,6,2,_DL_Japanese_Folk_Pop_Acoustic_Folk_Guitar,0.3115287125110626,0
66,100,0.1409090909090909,21,1,59,_DL_Japanese_Folk_Pop_Acoustic_Folk_Guitar,6,2,_DL_Japanese_Folk_Pop_Acoustic_Folk_Guitar,0.9998339414596558,1
59,100,0.11818181818181818,536,1,59,_DL_Japanese_Folk_Pop_Acoustic_Folk_Guitar,6,2,_DL_Japanese_Folk_Pop_Acoustic_Folk_Guitar,0.40396788716316223,0
59,100,0.18181818181818182,571,0,59,_DL_Japanese_Folk_Pop_Acoustic_Folk_Guitar,6,3,_DL_Japanese_Folk_Pop_Acoustic_Folk_Guitar,0.42336857318878174,0
62,100,0.1,201,1,60,_DL_Japanese_Folk_Pop_Acoustic_Folk_Guitar,6,2,_DL_Japanese_Folk_Pop_Acoustic_Folk_Guitar,0.9998445510864258,1
57,100,0.1,581,1,60,_DL_Japanese_Folk_Pop_Acoustic_Folk_Guitar,6,2,_DL_Japanese_Folk_Pop_Acoustic_Folk_Guitar,0.1948494166135788,0
57,100,0.3,606,0,60,_DL_Japanese_Folk_Pop_Acoustic_Folk_Guitar,6,5,_DL_Japanese_Folk_Pop_Acoustic_Folk_Guitar,0.19343511760234833,0
59,100,0.2590909090909091,700,0,60,_DL_Japanese_Folk_Pop_Acoustic_Folk_Guitar,6,4,_DL_Japanese_Folk_Pop_Acoustic_Folk_Guitar,0.20397232472896576,0
64,100,0.16363636363636364,861,0,60,_DL_Japanese_Folk_Pop_Acoustic_Folk_Guitar,6,3,_DL_Japanese_Folk_Pop_Acoustic_Folk_Guitar,0.21011841297149658,0
61,100,0.5818181818181818,21,1,61,_DL_Japanese_Folk_Pop_Acoustic_Folk_Guitar,6,9,_DL_Japanese_Folk_Pop_Acoustic_Folk_Guitar,0.999840259552002,1
59,100,0.11818181818181818,153,0,61,_DL_Japanese_Folk_Pop_Acoustic_Folk_Guitar,6,2,_DL_Japanese_Folk_Pop_Acoustic_Folk_Guitar,0.34288737177848816,0
57,100,0.2590909090909091,330,0,61,_DL_Japanese_Folk_Pop_Acoustic_Folk_Guitar,6,4,_DL_Japanese_Folk_Pop_Acoustic_Folk_Guitar,0.28882551193237305,0
59,100,0.5181818181818182,655,1,61,_DL_Japanese_Folk_Pop_Acoustic_Folk_Guitar,6,8,_DL_Japanese_Folk_Pop_Acoustic_Folk_Guitar,0.30655092000961304,0
61,100,0.12272727272727273,34,1,62,_DL_Japanese_Folk_Pop_Acoustic_Folk_Guitar,6,2,_DL_Japanese_Folk_Pop_Acoustic_Folk_Guitar,0.9998300075531006,1
57,100,0.8590909090909091,75,0,62,_DL_Japanese_Folk_Pop_Acoustic_Folk_Guitar,6,14,_DL_Japanese_Folk_Pop_Acoustic_Folk_Guitar,0.18300887942314148,0
61,100,0.8,268,0,62,_DL_Japanese_Folk_Pop_Acoustic_Folk_Guitar,6,13,_DL_Japanese_Folk_Pop_Acoustic_Folk_Guitar,0.20345951616764069,0
57,100,0.17727272727272728,691,1,62,_DL_Japanese_Folk_Pop_Acoustic_Folk_Guitar,6,3,_DL_Japanese_Folk_Pop_Acoustic_Folk_Guitar,0.2307702600955963,0
59,100,0.11818181818181818,791,0,62,_DL_Japanese_Folk_Pop_Acoustic_Folk_Guitar,6,2,_DL_Japanese_Folk_Pop_Acoustic_Folk_Guitar,0.2180684357881546,0
52,100,0.2409090909090909,176,1,63,_DL_Japanese_Folk_Pop_Acoustic_Folk_Guitar,6,4,_DL_Japanese_Folk_Pop_Acoustic_Folk_Guitar,0.9997069239616394,1
56,100,0.2,246,0,63,_DL_Japanese_Folk_Pop_Acoustic_Folk_Guitar,6,3,_DL_Japanese_Folk_Pop_Acoustic_Folk_Guitar,0.0425543338060379,0
56,100,0.1590909090909091,370,0,63,_DL_Japanese_Folk_Pop_Acoustic_Folk_Guitar,6,3,_DL_Japanese_Folk_Pop_Acoustic_Folk_Guitar,0.03346500173211098,0
68,100,0.17727272727272728,471,0,63,_DL_Japanese_Folk_Pop_Acoustic_Folk_Guitar,6,3,_DL_Japanese_Folk_Pop_Acoustic_Folk_Guitar,0.029552742838859558,0
57,100,0.18181818181818182,598,0,63,_DL_Japanese_Folk_Pop_Acoustic_Folk_Guitar,6,3,_DL_Japanese_Folk_Pop_Acoustic_Folk_Guitar,0.03080614097416401,0
61,100,0.11818181818181818,681,0,63,_DL_Japanese_Folk_Pop_Acoustic_Folk_Guitar,6,2,_DL_Japanese_Folk_Pop_Acoustic_Folk_Guitar,0.035213567316532135,0
57,100,0.3,716,0,63,_DL_Japanese_Folk_Pop_Acoustic_Folk_Guitar,6,5,_DL_Japanese_Folk_Pop_Acoustic_Folk_Guitar,0.03920228034257889,0
61,100,0.3,796,0,63,_DL_Japanese_Folk_Pop_Acoustic_Folk_Guitar,6,5,_DL_Japanese_Folk_Pop_Acoustic_Folk_Guitar,0.04870422184467316,0
57,100,0.3181818181818182,866,0,63,_DL_Japanese_Folk_Pop_Acoustic_Folk_Guitar,6,5,_DL_Japanese_Folk_Pop_Acoustic_Folk_Guitar,0.04520354047417641,0
61,100,0.23636363636363636,83,1,64,_DL_Japanese_Folk_Pop_Acoustic_Folk_Guitar,6,4,_DL_Japanese_Folk_Pop_Acoustic_Folk_Guitar,0.9998475313186646,1
59,100,0.1,179,0,64,_DL_Japanese_Folk_Pop_Acoustic_Folk_Guitar,6,2,_DL_Japanese_Folk_Pop_Acoustic_Folk_Guitar,0.3338889479637146,0
61,100,0.16363636363636364,422,1,64,_DL_Japanese_Folk_Pop_Acoustic_Folk_Guitar,6,3,_DL_Japanese_Folk_Pop_Acoustic_Folk_Guitar,0.2925221621990204,0
61,100,0.7,580,0,64,_DL_Japanese_Folk_Pop_Acoustic_Folk_Guitar,6,11,_DL_Japanese_Folk_Pop_Acoustic_Folk_Guitar,0.29729288816452026,0
59,100,0.12272727272727273,123,1,65,_DL_Japanese_Folk_Pop_Acoustic_Folk_Guitar,6,2,_DL_Japanese_Folk_Pop_Acoustic_Folk_Guitar,0.9998084902763367,1
56,100,0.2,509,1,65,_DL_Japanese_Folk_Pop_Acoustic_Folk_Guitar,6,3,_DL_Japanese_Folk_Pop_Acoustic_Folk_Guitar,0.13102386891841888,0
64,100,0.13636363636363635,633,0,65,_DL_Japanese_Folk_Pop_Acoustic_Folk_Guitar,6,2,_DL_Japanese_Folk_Pop_Acoustic_Folk_Guitar,0.1220301166176796,0
59,100,0.36363636363636365,686,0,65,_DL_Japanese_Folk_Pop_Acoustic_Folk_Guitar,6,6,_DL_Japanese_Folk_Pop_Acoustic_Folk_Guitar,0.1279759258031845,0
52,100,0.18181818181818182,792,0,65,_DL_Japanese_Folk_Pop_Acoustic_Folk_Guitar,6,3,_DL_Japanese_Folk_Pop_Acoustic_Folk_Guitar,0.14512450993061066,0
57,100,0.37727272727272726,876,0,65,_DL_Japanese_Folk_Pop_Acoustic_Folk_Guitar,6,6,_DL_Japanese_Folk_Pop_Acoustic_Folk_Guitar,0.12476740777492523,0
61,100,0.740909090909091,96,1,66,_DL_Japanese_Folk_Pop_Acoustic_Folk_Guitar,6,12,_DL_Japanese_Folk_Pop_Acoustic_Folk_Guitar,0.9997398257255554,1
57,100,0.21818181818181817,260,0,66,_DL_Japanese_Folk_Pop_Acoustic_Folk_Guitar,6,3,_DL_Japanese_Folk_Pop_Acoustic_Folk_Guitar,0.08248930424451828,0
61,100,0.2409090909090909,320,0,66,_DL_Japanese_Folk_Pop_Acoustic_Folk_Guitar,6,4,_DL_Japanese_Folk_Pop_Acoustic_Folk_Guitar,0.07617508620023727,0
57,100,0.12272727272727273,409,0,66,_DL_Japanese_Folk_Pop_Acoustic_Folk_Guitar,6,2,_DL_Japanese_Folk_Pop_Acoustic_Folk_Guitar,0.08203186839818954,0
57,100,0.12272727272727273,629,0,66,_DL_Japanese_Folk_Pop_Acoustic_Folk_Guitar,6,2,_DL_Japanese_Folk_Pop_Acoustic_Folk_Guitar,0.09177764505147934,0
61,100,0.5590909090909091,690,0,66,_DL_Japanese_Folk_Pop_Acoustic_Folk_Guitar,6,9,_DL_Japanese_Folk_Pop_Acoustic_Folk_Guitar,0.09446436911821365,0
61,100,0.11818181818181818,857,0,66,_DL_Japanese_Folk_Pop_Acoustic_Folk_Guitar,6,2,_DL_Japanese_Folk_Pop_Acoustic_Folk_Guitar,0.09511832892894745,0
61,100,0.1,17,1,67,_DL_Japanese_Folk_Pop_Acoustic_Folk_Guitar,6,2,_DL_Japanese_Folk_Pop_Acoustic_Folk_Guitar,0.9998396635055542,1
61,100,0.2772727272727273,53,0,67,_DL_Japanese_Folk_Pop_Acoustic_Folk_Guitar,6,4,_DL_Japanese_Folk_Pop_Acoustic_Folk_Guitar,0.19686169922351837,0
69,100,0.1590909090909091,360,1,67,_DL_Japanese_Folk_Pop_Acoustic_Folk_Guitar,6,3,_DL_Japanese_Folk_Pop_Acoustic_Folk_Guitar,0.19867020845413208,0
62,100,0.12272727272727273,475,0,67,_DL_Japanese_Folk_Pop_Acoustic_Folk_Guitar,6,2,_DL_Japanese_Folk_Pop_Acoustic_Folk_Guitar,0.2171851545572281,0
59,100,0.5818181818181818,760,1,67,_DL_Japanese_Folk_Pop_Acoustic_Folk_Guitar,6,9,_DL_Japanese_Folk_Pop_Acoustic_Folk_Guitar,0.19813276827335358,0
59,100,0.2590909090909091,13,1,68,_DL_Japanese_Folk_Pop_Acoustic_Folk_Guitar,6,4,_DL_Japanese_Folk_Pop_Acoustic_Folk_Guitar,0.9998350143432617,1
59,100,0.2409090909090909,519,1,68,_DL_Japanese_Folk_Pop_Acoustic_Folk_Guitar,6,4,_DL_Japanese_Folk_Pop_Acoustic_Folk_Guitar,0.20849505066871643,0
61,100,0.2409090909090909,585,0,68,_DL_Japanese_Folk_Pop_Acoustic_Folk_Guitar,6,4,_DL_Japanese_Folk_Pop_Acoustic_Folk_Guitar,0.19880731403827667,0
61,100,0.13636363636363635,677,0,68,_DL_Japanese_Folk_Pop_Acoustic_Folk_Guitar,6,2,_DL_Japanese_Folk_Pop_Acoustic_Folk_Guitar,0.21590422093868256,0
57,100,0.4409090909090909,747,0,68,_DL_Japanese_Folk_Pop_Acoustic_Folk_Guitar,6,7,_DL_Japanese_Folk_Pop_Acoustic_Folk_Guitar,0.19948731362819672,0
64,100,0.11818181818181818,373,1,69,_DL_Japanese_Folk_Pop_Acoustic_Folk_Guitar,6,2,_DL_Japanese_Folk_Pop_Acoustic_Folk_Guitar,0.9998360872268677,1
57,100,0.4590909090909091,593,0,69,_DL_Japanese_Folk_Pop_Acoustic_Folk_Guitar,6,7,_DL_Japanese_Folk_Pop_Acoustic_Folk_Guitar,0.38153713941574097,0
57,100,0.22272727272727272,849,1,69,_DL_Japanese_Folk_Pop_Acoustic_Folk_Guitar,6,4,_DL_Japanese_Folk_Pop_Acoustic_Folk_Guitar,0.4355889558792114,0
64,100,0.1,210,1,70,_DL_Japanese_Folk_Pop_Acoustic_Folk_Guitar,6,2,_DL_Japanese_Folk_Pop_Acoustic_Folk_Guitar,0.9998195767402649,1
64,100,0.3181818181818182,417,0,70,_DL_Japanese_Folk_Pop_Acoustic_Folk_Guitar,6,5,_DL_Japanese_Folk_Pop_Acoustic_Folk_Guitar,0.1166810542345047,0
57,100,0.7181818181818181,502,0,70,_DL_Japanese_Folk_Pop_Acoustic_Folk_Guitar,6,11,_DL_Japanese_Folk_Pop_Acoustic_Folk_Guitar,0.10935062915086746,0
61,100,0.18181818181818182,752,1,70,_DL_Japanese_Folk_Pop_Acoustic_Folk_Guitar,6,3,_DL_Japanese_Folk_Pop_Acoustic_Folk_Guitar,0.14510220289230347,0
61,100,0.17727272727272728,810,0,70,_DL_Japanese_Folk_Pop_Acoustic_Folk_Guitar,6,3,_DL_Japanese_Folk_Pop_Acoustic_Folk_Guitar,0.14231109619140625,0
61,100,0.2590909090909091,866,0,70,_DL_Japanese_Folk_Pop_Acoustic_Folk_Guitar,6,4,_DL_Japanese_Folk_Pop_Acoustic_Folk_Guitar,0.1305643618106842,0
57,100,0.2409090909090909,163,1,71,_DL_Japanese_Folk_Pop_Acoustic_Folk_Guitar,6,4,_DL_Japanese_Folk_Pop_Acoustic_Folk_Guitar,0.9998272061347961,1
57,100,0.4,263,0,71,_DL_Japanese_Folk_Pop_Acoustic_Folk_Guitar,6,6,_DL_Japanese_Folk_Pop_Acoustic_Folk_Guitar,0.20197314023971558,0
61,100,0.8227272727272728,365,0,71,_DL_Japanese_Folk_Pop_Acoustic_Folk_Guitar,6,13,_DL_Japanese_Folk_Pop_Acoustic_Folk_Guitar,0.1929006427526474,0
57,100,0.1409090909090909,553,0,71,_DL_Japanese_Folk_Pop_Acoustic_Folk_Guitar,6,2,_DL_Japanese_Folk_Pop_Acoustic_Folk_Guitar,0.22446107864379883,0
62,100,0.11818181818181818,612,0,71,_DL_Japanese_Folk_Pop_Acoustic_Folk_Guitar,6,2,_DL_Japanese_Folk_Pop_Acoustic_Folk_Guitar,0.21785055100917816,0
57,100,0.3409090909090909,26,1,72,_DL_Japanese_Folk_Pop_Acoustic_Folk_Guitar,6,5,_DL_Japanese_Folk_Pop_Acoustic_Folk_Guitar,0.9998394250869751,1
62,100,0.5227272727272727,113,0,72,_DL_Japanese_Folk_Pop_Acoustic_Folk_Guitar,6,8,_DL_Japanese_Folk_Pop_Acoustic_Folk_Guitar,0.3344860374927521,0
59,100,0.2409090909090909,462,1,72,_DL_Japanese_Folk_Pop_Acoustic_Folk_Guitar,6,4,_DL_Japanese_Folk_Pop_Acoustic_Folk_Guitar,0.29822105169296265,0
64,100,0.2409090909090909,650,0,72,_DL_Japanese_Folk_Pop_Acoustic_Folk_Guitar,6,4,_DL_Japanese_Folk_Pop_Acoustic_Folk_Guitar,0.313934862613678,0
64,100,0.16363636363636364,179,1,73,_DL_Japanese_Folk_Pop_Acoustic_Folk_Guitar,6,3,_DL_Japanese_Folk_Pop_Acoustic_Folk_Guitar,0.9998579025268555,1
61,100,0.4818181818181818,576,1,73,_DL_Japanese_Folk_Pop_Acoustic_Folk_Guitar,6,8,_DL_Japanese_Folk_Pop_Acoustic_Folk_Guitar,0.30108803510665894,0
61,100,0.1,722,0,73,_DL_Japanese_Folk_Pop_Acoustic_Folk_Guitar,6,2,_DL_Japanese_Folk_Pop_Acoustic_Folk_Guitar,0.3088163137435913,0
61,100,0.759090909090909,747,0,73,_DL_Japanese_Folk_Pop_Acoustic_Folk_Guitar,6,12,_DL_Japanese_Folk_Pop_Acoustic_Folk_Guitar,0.28921258449554443,0
66,100,0.8,74,1,74,_DL_Japanese_Folk_Pop_Acoustic_Folk_Guitar,6,13,_DL_Japanese_Folk_Pop_Acoustic_Folk_Guitar,0.9998138546943665,1
57,100,0.6409090909090909,255,0,74,_DL_Japanese_Folk_Pop_Acoustic_Folk_Guitar,6,10,_DL_Japanese_Folk_Pop_Acoustic_Folk_Guitar,0.2097087800502777,0
59,100,0.2772727272727273,567,1,74,_DL_Japanese_Folk_Pop_Acoustic_Folk_Guitar,6,4,_DL_Japanese_Folk_Pop_Acoustic_Folk_Guitar,0.21141761541366577,0
59,100,0.1,760,0,74,_DL_Japanese_Folk_Pop_Acoustic_Folk_Guitar,6,2,_DL_Japanese_Folk_Pop_Acoustic_Folk_Guitar,0.22126683592796326,0
64,100,0.1,813,0,74,_DL_Japanese_Folk_Pop_Acoustic_Folk_Guitar,6,2,_DL_Japanese_Folk_Pop_Acoustic_Folk_Guitar,0.21232299506664276,0
59,100,0.1,3,1,75,_DL_Japanese_Folk_Pop_Acoustic_Folk_Guitar,6,2,_DL_Japanese_Folk_Pop_Acoustic_Folk_Guitar,0.9996693134307861,1
61,100,0.1,30,0,75,_DL_Japanese_Folk_Pop_Acoustic_Folk_Guitar,6,2,_DL_Japanese_Folk_Pop_Acoustic_Folk_Guitar,0.03169974684715271,0
64,100,0.4772727272727273,83,0,75,_DL_Japanese_Folk_Pop_Acoustic_Folk_Guitar,6,8,_DL_Japanese_Folk_Pop_Acoustic_Folk_Guitar,0.020560400560498238,0
53,100,0.11818181818181818,193,0,75,_DL_Japanese_Folk_Pop_Acoustic_Folk_Guitar,6,2,_DL_Japanese_Folk_Pop_Acoustic_Folk_Guitar,0.016577420756220818,0
61,100,0.1590909090909091,263,0,75,_DL_Japanese_Folk_Pop_Acoustic_Folk_Guitar,6,3,_DL_Japanese_Folk_Pop_Acoustic_Folk_Guitar,0.01322279591113329,0
61,100,0.3409090909090909,312,0,75,_DL_Japanese_Folk_Pop_Acoustic_Folk_Guitar,6,5,_DL_Japanese_Folk_Pop_Acoustic_Folk_Guitar,0.012347678653895855,0
57,100,0.2590909090909091,392,0,75,_DL_Japanese_Folk_Pop_Acoustic_Folk_Guitar,6,4,_DL_Japanese_Folk_Pop_Acoustic_Folk_Guitar,0.013218977488577366,0
61,100,0.2409090909090909,509,0,75,_DL_Japanese_Folk_Pop_Acoustic_Folk_Guitar,6,4,_DL_Japanese_Folk_Pop_Acoustic_Folk_Guitar,0.017667751759290695,0
61,100,0.5818181818181818,572,0,75,_DL_Japanese_Folk_Pop_Acoustic_Folk_Guitar,6,9,_DL_Japanese_Folk_Pop_Acoustic_Folk_Guitar,0.022250596433877945,0
54,100,0.5181818181818182,722,0,75,_DL_Japanese_Folk_Pop_Acoustic_Folk_Guitar,6,8,_DL_Japanese_Folk_Pop_Acoustic_Folk_Guitar,0.03395077586174011,0
61,100,0.740909090909091,862,0,75,_DL_Japanese_Folk_Pop_Acoustic_Folk_Guitar,6,12,_DL_Japanese_Folk_Pop_Acoustic_Folk_Guitar,0.03409789502620697,0
62,100,0.2772727272727273,216,1,76,_DL_Japanese_Folk_Pop_Acoustic_Folk_Guitar,6,4,_DL_Japanese_Folk_Pop_Acoustic_Folk_Guitar,0.9998050332069397,1
59,100,0.21818181818181817,330,0,76,_DL_Japanese_Folk_Pop_Acoustic_Folk_Guitar,6,3,_DL_Japanese_Folk_Pop_Acoustic_Folk_Guitar,0.12776950001716614,0
62,100,0.6,386,0,76,_DL_Japanese_Folk_Pop_Acoustic_Folk_Guitar,6,10,_DL_Japanese_Folk_Pop_Acoustic_Folk_Guitar,0.11849117279052734,0
66,100,0.1409090909090909,682,1,76,_DL_Japanese_Folk_Pop_Acoustic_Folk_Guitar,6,2,_DL_Japanese_Folk_Pop_Acoustic_Folk_Guitar,0.14304181933403015,0
66,100,0.2,716,0,76,_DL_Japanese_Folk_Pop_Acoustic_Folk_Guitar,6,3,_DL_Japanese_Folk_Pop_Acoustic_Folk_Guitar,0.14054276049137115,0
59,100,0.1,839,0,76,_DL_Japanese_Folk_Pop_Acoustic_Folk_Guitar,6,2,_DL_Japanese_Folk_Pop_Acoustic_Folk_Guitar,0.12964563071727753,0
52,100,0.38181818181818183,22,1,77,_DL_Japanese_Folk_Pop_Acoustic_Folk_Guitar,6,6,_DL_Japanese_Folk_Pop_Acoustic_Folk_Guitar,0.9998015761375427,1
59,100,0.2409090909090909,220,0,77,_DL_Japanese_Folk_Pop_Acoustic_Folk_Guitar,6,4,_DL_Japanese_Folk_Pop_Acoustic_Folk_Guitar,0.12463381886482239,0
52,100,0.5409090909090909,299,0,77,_DL_Japanese_Folk_Pop_Acoustic_Folk_Guitar,6,9,_DL_Japanese_Folk_Pop_Acoustic_Folk_Guitar,0.12126446515321732,0
61,100,0.6590909090909091,519,0,77,_DL_Japanese_Folk_Pop_Acoustic_Folk_Guitar,6,11,_DL_Japanese_Folk_Pop_Acoustic_Folk_Guitar,0.12975260615348816,0
61,100,0.11818181818181818,756,1,77,_DL_Japanese_Folk_Pop_Acoustic_Folk_Guitar,6,2,_DL_Japanese_Folk_Pop_Acoustic_Folk_Guitar,0.15873195230960846,0
61,100,0.7,805,0,77,_DL_Japanese_Folk_Pop_Acoustic_Folk_Guitar,6,11,_DL_Japanese_Folk_Pop_Acoustic_Folk_Guitar,0.12957067787647247,0
61,100,0.1590909090909091,127,1,78,_DL_Japanese_Folk_Pop_Acoustic_Folk_Guitar,6,3,_DL_Japanese_Folk_Pop_Acoustic_Folk_Guitar,0.9998286962509155,1
61,100,0.1,166,0,78,_DL_Japanese_Folk_Pop_Acoustic_Folk_Guitar,6,2,_DL_Japanese_Folk_Pop_Acoustic_Folk_Guitar,0.21165437996387482,0
61,100,0.6181818181818182,220,0,78,_DL_Japanese_Folk_Pop_Acoustic_Folk_Guitar,6,10,_DL_Japanese_Folk_Pop_Acoustic_Folk_Guitar,0.18844018876552582,0
57,100,0.2409090909090909,396,0,78,_DL_Japanese_Folk_Pop_Acoustic_Folk_Guitar,6,4,_DL_Japanese_Folk_Pop_Acoustic_Folk_Guitar,0.2162390500307083,0
69,100,0.1409090909090909,449,0,78,_DL_Japanese_Folk_Pop_Acoustic_Folk_Guitar,6,2,_DL_Japanese_Folk_Pop_Acoustic_Folk_Guitar,0.21136415004730225,0
64,100,0.9363636363636364,565,1,0,_DL_Japanese_Folk_Pop_Acoustic_Folk_Guitar_1,6,15,_DL_Japanese_Folk_Pop_Acoustic_Folk_Guitar_1,0.9920184016227722,0
52,100,0.1318181818181818,77,1,1,_DL_Japanese_Folk_Pop_Acoustic_Folk_Guitar_1,6,2,_DL_Japanese_Folk_Pop_Acoustic_Folk_Guitar_1,0.9998579025268555,1
64,100,0.15454545454545454,171,0,1,_DL_Japanese_Folk_Pop_Acoustic_Folk_Guitar_1,6,2,_DL_Japanese_Folk_Pop_Acoustic_Folk_Guitar_1,0.3204646408557892,0
59,100,0.10909090909090909,279,0,1,_DL_Japanese_Folk_Pop_Acoustic_Folk_Guitar_1,6,2,_DL_Japanese_Folk_Pop_Acoustic_Folk_Guitar_1,0.2847921848297119,0
59,100,0.8909090909090909,672,1,1,_DL_Japanese_Folk_Pop_Acoustic_Folk_Guitar_1,6,14,_DL_Japanese_Folk_Pop_Acoustic_Folk_Guitar_1,0.2916323244571686,0
57,100,0.17727272727272728,110,1,2,_DL_Japanese_Folk_Pop_Acoustic_Folk_Guitar_1,6,3,_DL_Japanese_Folk_Pop_Acoustic_Folk_Guitar_1,0.9997599720954895,1
61,100,0.31363636363636366,247,0,2,_DL_Japanese_Folk_Pop_Acoustic_Folk_Guitar_1,6,5,_DL_Japanese_Folk_Pop_Acoustic_Folk_Guitar_1,0.08104598522186279,0
52,100,0.33636363636363636,360,0,2,_DL_Japanese_Folk_Pop_Acoustic_Folk_Guitar_1,6,5,_DL_Japanese_Folk_Pop_Acoustic_Folk_Guitar_1,0.0747709646821022,0
56,100,0.1318181818181818,449,0,2,_DL_Japanese_Folk_Pop_Acoustic_Folk_Guitar_1,6,2,_DL_Japanese_Folk_Pop_Acoustic_Folk_Guitar_1,0.08071434497833252,0
57,100,0.6909090909090909,504,0,2,_DL_Japanese_Folk_Pop_Acoustic_Folk_Guitar_1,6,11,_DL_Japanese_Folk_Pop_Acoustic_Folk_Guitar_1,0.08617984503507614,0
57,100,0.11363636363636363,660,0,2,_DL_Japanese_Folk_Pop_Acoustic_Folk_Guitar_1,6,2,_DL_Japanese_Folk_Pop_Acoustic_Folk_Guitar_1,0.10260791331529617,0
62,100,0.6454545454545455,739,0,2,_DL_Japanese_Folk_Pop_Acoustic_Folk_Guitar_1,6,10,_DL_Japanese_Folk_Pop_Acoustic_Folk_Guitar_1,0.08574818819761276,0
62,100,0.15454545454545454,6,1,3,_DL_Japanese_Folk_Pop_Acoustic_Folk_Guitar_1,6,2,_DL_Japanese_Folk_Pop_Acoustic_Folk_Guitar_1,0.9998396635055542,1
57,100,0.6681818181818182,45,0,3,_DL_Japanese_Folk_Pop_Acoustic_Folk_Guitar_1,6,11,_DL_Japanese_Folk_Pop_Acoustic_Folk_Guitar_1,0.1973802000284195,0
62,100,0.15454545454545454,351,1,3,_DL_Japanese_Folk_Pop_Acoustic_Folk_Guitar_1,6,2,_DL_Japanese_Folk_Pop_Acoustic_Folk_Guitar_1,0.21311017870903015,0
64,100,0.6045454545454545,418,0,3,_DL_Japanese_Folk_Pop_Acoustic_Folk_Guitar_1,6,10,_DL_Japanese_Folk_Pop_Acoustic_Folk_Guitar_1,0.21168380975723267,0
59,100,0.6045454545454545,639,0,3,_DL_Japanese_Folk_Pop_Acoustic_Folk_Guitar_1,6,10,_DL_Japanese_Folk_Pop_Acoustic_Folk_Guitar_1,0.20201238989830017,0
61,100,0.5545454545454546,686,1,6,_DL_Japanese_Folk_Pop_Acoustic_Folk_Guitar_1,6,9,_DL_Japanese_Folk_Pop_Acoustic_Folk_Guitar_1,0.999819815158844,1
59,100,0.18181818181818182,808,0,6,_DL_Japanese_Folk_Pop_Acoustic_Folk_Guitar_1,6,3,_DL_Japanese_Folk_Pop_Acoustic_Folk_Guitar_1,0.4161825180053711,0
60,100,0.2,849,0,6,_DL_Japanese_Folk_Pop_Acoustic_Folk_Guitar_1,6,3,_DL_Japanese_Folk_Pop_Acoustic_Folk_Guitar_1,0.43344420194625854,0
59,100,0.2681818181818182,12,1,7,_DL_Japanese_Folk_Pop_Acoustic_Folk_Guitar_1,6,4,_DL_Japanese_Folk_Pop_Acoustic_Folk_Guitar_1,0.9997249245643616,1
57,100,0.2636363636363636,81,0,7,_DL_Japanese_Folk_Pop_Acoustic_Folk_Guitar_1,6,4,_DL_Japanese_Folk_Pop_Acoustic_Folk_Guitar_1,0.054216038435697556,0
57,100,0.1318181818181818,189,0,7,_DL_Japanese_Folk_Pop_Acoustic_Folk_Guitar_1,6,2,_DL_Japanese_Folk_Pop_Acoustic_Folk_Guitar_1,0.04974943399429321,0
56,100,0.33181818181818185,298,0,7,_DL_Japanese_Folk_Pop_Acoustic_Folk_Guitar_1,6,5,_DL_Japanese_Folk_Pop_Acoustic_Folk_Guitar_1,0.048277147114276886,0
52,100,0.37727272727272726,459,0,7,_DL_Japanese_Folk_Pop_Acoustic_Folk_Guitar_1,6,6,_DL_Japanese_Folk_Pop_Acoustic_Folk_Guitar_1,0.053626690059900284,0
52,100,0.10909090909090909,557,0,7,_DL_Japanese_Folk_Pop_Acoustic_Folk_Guitar_1,6,2,_DL_Japanese_Folk_Pop_Acoustic_Folk_Guitar_1,0.06318723410367966,0
52,100,0.17727272727272728,597,0,7,_DL_Japanese_Folk_Pop_Acoustic_Folk_Guitar_1,6,3,_DL_Japanese_Folk_Pop_Acoustic_Folk_Guitar_1,0.06502806395292282,0
57,100,0.5136363636363637,848,1,7,_DL_Japanese_Folk_Pop_Acoustic_Folk_Guitar_1,6,8,_DL_Japanese_Folk_Pop_Acoustic_Folk_Guitar_1,0.05724890157580376,0
57,100,0.5545454545454546,189,1,8,_DL_Japanese_Folk_Pop_Acoustic_Folk_Guitar_1,6,9,_DL_Japanese_Folk_Pop_Acoustic_Folk_Guitar_1,0.9998095631599426,1
57,100,0.22272727272727272,340,0,8,_DL_Japanese_Folk_Pop_Acoustic_Folk_Guitar_1,6,4,_DL_Japanese_Folk_Pop_Acoustic_Folk_Guitar_1,0.43207311630249023,0
57,100,0.37727272727272726,551,0,8,_DL_Japanese_Folk_Pop_Acoustic_Folk_Guitar_1,6,6,_DL_Japanese_Folk_Pop_Acoustic_Folk_Guitar_1,0.42550456523895264,0
57,100,0.37727272727272726,280,1,9,_DL_Japanese_Folk_Pop_Acoustic_Folk_Guitar_1,6,6,_DL_Japanese_Folk_Pop_Acoustic_Folk_Guitar_1,0.9998375177383423,1
54,100,0.42272727272727273,486,0,9,_DL_Japanese_Folk_Pop_Acoustic_Folk_Guitar_1,6,7,_DL_Japanese_Folk_Pop_Acoustic_Folk_Guitar_1,0.3335070013999939,0
69,100,0.2909090909090909,589,0,9,_DL_Japanese_Folk_Pop_Acoustic_Folk_Guitar_1,6,5,_DL_Japanese_Folk_Pop_Acoustic_Folk_Guitar_1,0.29136502742767334,0
69,100,0.10909090909090909,663,0,9,_DL_Japanese_Folk_Pop_Acoustic_Folk_Guitar_1,6,2,_DL_Japanese_Folk_Pop_Acoustic_Folk_Guitar_1,0.32047703862190247,0
57,100,0.6681818181818182,280,1,10,_DL_Japanese_Folk_Pop_Acoustic_Folk_Guitar_1,6,11,_DL_Japanese_Folk_Pop_Acoustic_Folk_Guitar_1,0.9998127818107605,1
69,100,0.11363636363636363,426,0,10,_DL_Japanese_Folk_Pop_Acoustic_Folk_Guitar_1,6,2,_DL_Japanese_Folk_Pop_Acoustic_Folk_Guitar_1,0.2381116896867752,0
56,100,0.4,491,0,10,_DL_Japanese_Folk_Pop_Acoustic_Folk_Guitar_1,6,6,_DL_Japanese_Folk_Pop_Acoustic_Folk_Guitar_1,0.19344216585159302,0
56,100,0.11363636363636363,584,0,10,_DL_Japanese_Folk_Pop_Acoustic_Folk_Guitar_1,6,2,_DL_Japanese_Folk_Pop_Acoustic_Folk_Guitar_1,0.214910089969635,0
59,100,0.2681818181818182,697,0,10,_DL_Japanese_Folk_Pop_Acoustic_Folk_Guitar_1,6,4,_DL_Japanese_Folk_Pop_Acoustic_Folk_Guitar_1,0.20247241854667664,0
59,100,0.13636363636363635,381,1,11,_DL_Japanese_Folk_Pop_Acoustic_Folk_Guitar_1,6,2,_DL_Japanese_Folk_Pop_Acoustic_Folk_Guitar_1,0.999860405921936,1
52,100,0.2909090909090909,613,1,11,_DL_Japanese_Folk_Pop_Acoustic_Folk_Guitar_1,6,5,_DL_Japanese_Folk_Pop_Acoustic_Folk_Guitar_1,0.3239298164844513,0
52,100,0.11363636363636363,696,0,11,_DL_Japanese_Folk_Pop_Acoustic_Folk_Guitar_1,6,2,_DL_Japanese_Folk_Pop_Acoustic_Folk_Guitar_1,0.2989422380924225,0
57,100,0.6272727272727273,749,0,11,_DL_Japanese_Folk_Pop_Acoustic_Folk_Guitar_1,6,10,_DL_Japanese_Folk_Pop_Acoustic_Folk_Guitar_1,0.28800803422927856,0
52,100,0.24545454545454545,316,1,12,_DL_Japanese_Folk_Pop_Acoustic_Folk_Guitar_1,6,4,_DL_Japanese_Folk_Pop_Acoustic_Folk_Guitar_1,0.9996607303619385,1
52,100,0.1590909090909091,376,0,12,_DL_Japanese_Folk_Pop_Acoustic_Folk_Guitar_1,6,3,_DL_Japanese_Folk_Pop_Acoustic_Folk_Guitar_1,0.548232913017273,0
57,100,0.8045454545454546,115,1,13,_DL_Japanese_Folk_Pop_Acoustic_Folk_Guitar_1,6,13,_DL_Japanese_Folk_Pop_Acoustic_Folk_Guitar_1,0.9997910857200623,1
57,100,0.11363636363636363,379,1,13,_DL_Japanese_Folk_Pop_Acoustic_Folk_Guitar_1,6,2,_DL_Japanese_Folk_Pop_Acoustic_Folk_Guitar_1,0.4517773389816284,0
64,100,0.8227272727272728,453,0,13,_DL_Japanese_Folk_Pop_Acoustic_Folk_Guitar_1,6,13,_DL_Japanese_Folk_Pop_Acoustic_Folk_Guitar_1,0.4278096854686737,0
59,100,0.6909090909090909,152,1,14,_DL_Japanese_Folk_Pop_Acoustic_Folk_Guitar_1,6,11,_DL_Japanese_Folk_Pop_Acoustic_Folk_Guitar_1,0.9998100399971008,1
62,100,0.24545454545454545,491,1,14,_DL_Japanese_Folk_Pop_Acoustic_Folk_Guitar_1,6,4,_DL_Japanese_Folk_Pop_Acoustic_Folk_Guitar_1,0.44354185461997986,0
62,100,0.7136363636363636,723,1,14,_DL_Japanese_Folk_Pop_Acoustic_Folk_Guitar_1,6,11,_DL_Japanese_Folk_Pop_Acoustic_Folk_Guitar_1,0.4180665910243988,0
57,100,0.17727272727272728,0,1,15,_DL_Japanese_Folk_Pop_Acoustic_Folk_Guitar_1,6,3,_DL_Japanese_Folk_Pop_Acoustic_Folk_Guitar_1,0.9997983574867249,1
57,100,0.31363636363636366,97,0,15,_DL_Japanese_Folk_Pop_Acoustic_Folk_Guitar_1,6,5,_DL_Japanese_Folk_Pop_Acoustic_Folk_Guitar_1,0.12888340651988983,0
57,100,0.15454545454545454,245,0,15,_DL_Japanese_Folk_Pop_Acoustic_Folk_Guitar_1,6,2,_DL_Japanese_Folk_Pop_Acoustic_Folk_Guitar_1,0.12347757071256638,0
57,100,0.2,290,0,15,_DL_Japanese_Folk_Pop_Acoustic_Folk_Guitar_1,6,3,_DL_Japanese_Folk_Pop_Acoustic_Folk_Guitar_1,0.1336744874715805,0
57,100,0.37727272727272726,775,1,15,_DL_Japanese_Folk_Pop_Acoustic_Folk_Guitar_1,6,6,_DL_Japanese_Folk_Pop_Acoustic_Folk_Guitar_1,0.141995370388031,0
57,100,0.15454545454545454,878,0,15,_DL_Japanese_Folk_Pop_Acoustic_Folk_Guitar_1,6,2,_DL_Japanese_Folk_Pop_Acoustic_Folk_Guitar_1,0.13734854757785797,0
64,100,0.2909090909090909,381,1,16,_DL_Japanese_Folk_Pop_Acoustic_Folk_Guitar_1,6,5,_DL_Japanese_Folk_Pop_Acoustic_Folk_Guitar_1,0.9998138546943665,1
59,100,0.17727272727272728,559,0,16,_DL_Japanese_Folk_Pop_Acoustic_Folk_Guitar_1,6,3,_DL_Japanese_Folk_Pop_Acoustic_Folk_Guitar_1,0.11852307617664337,0
56,100,0.2,598,0,16,_DL_Japanese_Folk_Pop_Acoustic_Folk_Guitar_1,6,3,_DL_Japanese_Folk_Pop_Acoustic_Folk_Guitar_1,0.12183419615030289,0
59,100,0.2,677,0,16,_DL_Japanese_Folk_Pop_Acoustic_Folk_Guitar_1,6,3,_DL_Japanese_Folk_Pop_Acoustic_Folk_Guitar_1,0.13360153138637543,0
57,100,0.22272727272727272,790,0,16,_DL_Japanese_Folk_Pop_Acoustic_Folk_Guitar_1,6,4,_DL_Japanese_Folk_Pop_Acoustic_Folk_Guitar_1,0.13606616854667664,0
59,100,0.11363636363636363,873,0,16,_DL_Japanese_Folk_Pop_Acoustic_Folk_Guitar_1,6,2,_DL_Japanese_Folk_Pop_Acoustic_Folk_Guitar_1,0.13503113389015198,0
61,100,0.10909090909090909,116,1,17,_DL_Japanese_Folk_Pop_Acoustic_Folk_Guitar_1,6,2,_DL_Japanese_Folk_Pop_Acoustic_Folk_Guitar_1,0.9998366832733154,1
61,100,0.5590909090909091,169,0,17,_DL_Japanese_Folk_Pop_Acoustic_Folk_Guitar_1,6,9,_DL_Japanese_Folk_Pop_Acoustic_Folk_Guitar_1,0.20365381240844727,0
61,100,0.5136363636363637,298,0,17,_DL_Japanese_Folk_Pop_Acoustic_Folk_Guitar_1,6,8,_DL_Japanese_Folk_Pop_Acoustic_Folk_Guitar_1,0.19818101823329926,0
57,100,0.22272727272727272,494,0,17,_DL_Japanese_Folk_Pop_Acoustic_Folk_Guitar_1,6,4,_DL_Japanese_Folk_Pop_Acoustic_Folk_Guitar_1,0.2191106230020523,0
61,100,0.9818181818181818,700,0,17,_DL_Japanese_Folk_Pop_Acoustic_Folk_Guitar_1,6,15,_DL_Japanese_Folk_Pop_Acoustic_Folk_Guitar_1,0.2001066952943802,0
57,100,0.24545454545454545,41,1,18,_DL_Japanese_Folk_Pop_Acoustic_Folk_Guitar_1,6,4,_DL_Japanese_Folk_Pop_Acoustic_Folk_Guitar_1,0.9997935891151428,1
61,100,0.35909090909090907,105,0,18,_DL_Japanese_Folk_Pop_Acoustic_Folk_Guitar_1,6,6,_DL_Japanese_Folk_Pop_Acoustic_Folk_Guitar_1,0.1281954050064087,0
62,100,0.15454545454545454,508,1,18,_DL_Japanese_Folk_Pop_Acoustic_Folk_Guitar_1,6,2,_DL_Japanese_Folk_Pop_Acoustic_Folk_Guitar_1,0.12810444831848145,0
62,100,0.11363636363636363,635,0,18,_DL_Japanese_Folk_Pop_Acoustic_Folk_Guitar_1,6,2,_DL_Japanese_Folk_Pop_Acoustic_Folk_Guitar_1,0.13795392215251923,0
57,100,0.31363636363636366,728,0,18,_DL_Japanese_Folk_Pop_Acoustic_Folk_Guitar_1,6,5,_DL_Japanese_Folk_Pop_Acoustic_Folk_Guitar_1,0.14012672007083893,0
56,100,0.2681818181818182,836,0,18,_DL_Japanese_Folk_Pop_Acoustic_Folk_Guitar_1,6,4,_DL_Japanese_Folk_Pop_Acoustic_Folk_Guitar_1,0.13819542527198792,0
59,100,0.24545454545454545,83,1,19,_DL_Japanese_Folk_Pop_Acoustic_Folk_Guitar_1,6,4,_DL_Japanese_Folk_Pop_Acoustic_Folk_Guitar_1,0.9998437166213989,1
56,100,0.45,255,0,19,_DL_Japanese_Folk_Pop_Acoustic_Folk_Guitar_1,6,7,_DL_Japanese_Folk_Pop_Acoustic_Folk_Guitar_1,0.32281315326690674,0
57,100,0.37727272727272726,354,0,19,_DL_Japanese_Folk_Pop_Acoustic_Folk_Guitar_1,6,6,_DL_Japanese_Folk_Pop_Acoustic_Folk_Guitar_1,0.29267945885658264,0
57,100,0.2909090909090909,643,1,19,_DL_Japanese_Folk_Pop_Acoustic_Folk_Guitar_1,6,5,_DL_Japanese_Folk_Pop_Acoustic_Folk_Guitar_1,0.31702306866645813,0
64,100,0.1318181818181818,133,1,20,_DL_Japanese_Folk_Pop_Acoustic_Folk_Guitar_1,6,2,_DL_Japanese_Folk_Pop_Acoustic_Folk_Guitar_1,0.9998356103897095,1
57,100,0.9363636363636364,539,1,20,_DL_Japanese_Folk_Pop_Acoustic_Folk_Guitar_1,6,15,_DL_Japanese_Folk_Pop_Acoustic_Folk_Guitar_1,0.3700450658798218,0
57,100,0.5590909090909091,750,0,20,_DL_Japanese_Folk_Pop_Acoustic_Folk_Guitar_1,6,9,_DL_Japanese_Folk_Pop_Acoustic_Folk_Guitar_1,0.44250738620758057,0
57,100,0.65,308,1,21,_DL_Japanese_Folk_Pop_Acoustic_Folk_Guitar_1,6,10,_DL_Japanese_Folk_Pop_Acoustic_Folk_Guitar_1,0.9997978806495667,1
56,100,0.4681818181818182,450,0,21,_DL_Japanese_Folk_Pop_Acoustic_Folk_Guitar_1,6,7,_DL_Japanese_Folk_Pop_Acoustic_Folk_Guitar_1,0.43798717856407166,0
59,100,0.33636363636363636,814,1,21,_DL_Japanese_Folk_Pop_Acoustic_Folk_Guitar_1,6,5,_DL_Japanese_Folk_Pop_Acoustic_Folk_Guitar_1,0.433290958404541,0
59,100,0.17727272727272728,82,1,22,_DL_Japanese_Folk_Pop_Acoustic_Folk_Guitar_1,6,3,_DL_Japanese_Folk_Pop_Acoustic_Folk_Guitar_1,0.9998070597648621,1
61,100,0.7363636363636363,332,1,22,_DL_Japanese_Folk_Pop_Acoustic_Folk_Guitar_1,6,12,_DL_Japanese_Folk_Pop_Acoustic_Folk_Guitar_1,0.11572307348251343,0
59,100,0.2909090909090909,567,1,22,_DL_Japanese_Folk_Pop_Acoustic_Folk_Guitar_1,6,5,_DL_Japanese_Folk_Pop_Acoustic_Folk_Guitar_1,0.13034962117671967,0
57,100,0.2681818181818182,636,0,22,_DL_Japanese_Folk_Pop_Acoustic_Folk_Guitar_1,6,4,_DL_Japanese_Folk_Pop_Acoustic_Folk_Guitar_1,0.13966113328933716,0
64,100,0.2681818181818182,783,0,22,_DL_Japanese_Folk_Pop_Acoustic_Folk_Guitar_1,6,4,_DL_Japanese_Folk_Pop_Acoustic_Folk_Guitar_1,0.14326202869415283,0
64,100,0.22272727272727272,848,0,22,_DL_Japanese_Folk_Pop_Acoustic_Folk_Guitar_1,6,4,_DL_Japanese_Folk_Pop_Acoustic_Folk_Guitar_1,0.1367635577917099,0
57,100,0.31363636363636366,174,1,23,_DL_Japanese_Folk_Pop_Acoustic_Folk_Guitar_1,6,5,_DL_Japanese_Folk_Pop_Acoustic_Folk_Guitar_1,0.9998331069946289,1
57,100,0.17727272727272728,326,0,23,_DL_Japanese_Folk_Pop_Acoustic_Folk_Guitar_1,6,3,_DL_Japanese_Folk_Pop_Acoustic_Folk_Guitar_1,0.21178172528743744,0
57,100,0.2863636363636364,739,1,23,_DL_Japanese_Folk_Pop_Acoustic_Folk_Guitar_1,6,5,_DL_Japanese_Folk_Pop_Acoustic_Folk_Guitar_1,0.20346951484680176,0
69,100,0.13636363636363635,801,0,23,_DL_Japanese_Folk_Pop_Acoustic_Folk_Guitar_1,6,2,_DL_Japanese_Folk_Pop_Acoustic_Folk_Guitar_1,0.21286837756633759,0
57,100,0.35454545454545455,831,0,23,_DL_Japanese_Folk_Pop_Acoustic_Folk_Guitar_1,6,6,_DL_Japanese_Folk_Pop_Acoustic_Folk_Guitar_1,0.20011618733406067,0
59,100,0.1590909090909091,261,1,24,_DL_Japanese_Folk_Pop_Acoustic_Folk_Guitar_1,6,3,_DL_Japanese_Folk_Pop_Acoustic_Folk_Guitar_1,0.9998086094856262,1
52,100,0.11363636363636363,384,0,24,_DL_Japanese_Folk_Pop_Acoustic_Folk_Guitar_1,6,2,_DL_Japanese_Folk_Pop_Acoustic_Folk_Guitar_1,0.13343214988708496,0
57,100,0.15454545454545454,550,0,24,_DL_Japanese_Folk_Pop_Acoustic_Folk_Guitar_1,6,2,_DL_Japanese_Folk_Pop_Acoustic_Folk_Guitar_1,0.11750791221857071,0
57,100,0.18181818181818182,687,0,24,_DL_Japanese_Folk_Pop_Acoustic_Folk_Guitar_1,6,3,_DL_Japanese_Folk_Pop_Acoustic_Folk_Guitar_1,0.13338561356067657,0
57,100,0.15454545454545454,776,0,24,_DL_Japanese_Folk_Pop_Acoustic_Folk_Guitar_1,6,2,_DL_Japanese_Folk_Pop_Acoustic_Folk_Guitar_1,0.13762961328029633,0
57,100,0.22272727272727272,815,0,24,_DL_Japanese_Folk_Pop_Acoustic_Folk_Guitar_1,6,4,_DL_Japanese_Folk_Pop_Acoustic_Folk_Guitar_1,0.12838847935199738,0
57,100,0.4681818181818182,0,1,25,_DL_Japanese_Folk_Pop_Acoustic_Folk_Guitar_1,6,7,_DL_Japanese_Folk_Pop_Acoustic_Folk_Guitar_1,0.9997450709342957,1
57,100,0.31363636363636366,113,0,25,_DL_Japanese_Folk_Pop_Acoustic_Folk_Guitar_1,6,5,_DL_Japanese_Folk_Pop_Acoustic_Folk_Guitar_1,0.08509904891252518,0
57,100,0.2,289,0,25,_DL_Japanese_Folk_Pop_Acoustic_Folk_Guitar_1,6,3,_DL_Japanese_Folk_Pop_Acoustic_Folk_Guitar_1,0.07350505888462067,0
64,100,0.6045454545454545,412,0,25,_DL_Japanese_Folk_Pop_Acoustic_Folk_Guitar_1,6,10,_DL_Japanese_Folk_Pop_Acoustic_Folk_Guitar_1,0.07928503304719925,0
52,100,0.22272727272727272,677,1,25,_DL_Japanese_Folk_Pop_Acoustic_Folk_Guitar_1,6,4,_DL_Japanese_Folk_Pop_Acoustic_Folk_Guitar_1,0.09695037454366684,0
52,100,0.13636363636363635,760,0,25,_DL_Japanese_Folk_Pop_Acoustic_Folk_Guitar_1,6,2,_DL_Japanese_Folk_Pop_Acoustic_Folk_Guitar_1,0.09853040426969528,0
52,100,0.2,820,0,25,_DL_Japanese_Folk_Pop_Acoustic_Folk_Guitar_1,6,3,_DL_Japanese_Folk_Pop_Acoustic_Folk_Guitar_1,0.08465781062841415,0
62,100,0.5772727272727273,13,1,26,_DL_Japanese_Folk_Pop_Acoustic_Folk_Guitar_1,6,9,_DL_Japanese_Folk_Pop_Acoustic_Folk_Guitar_1,0.9997168183326721,1
62,100,0.65,215,0,26,_DL_Japanese_Folk_Pop_Acoustic_Folk_Guitar_1,6,10,_DL_Japanese_Folk_Pop_Acoustic_Folk_Guitar_1,0.053979553282260895,0
64,100,0.31363636363636366,361,0,26,_DL_Japanese_Folk_Pop_Acoustic_Folk_Guitar_1,6,5,_DL_Japanese_Folk_Pop_Acoustic_Folk_Guitar_1,0.05187425762414932,0
57,100,0.33636363636363636,436,0,26,_DL_Japanese_Folk_Pop_Acoustic_Folk_Guitar_1,6,5,_DL_Japanese_Folk_Pop_Acoustic_Folk_Guitar_1,0.047201547771692276,0
64,100,0.13636363636363635,533,0,26,_DL_Japanese_Folk_Pop_Acoustic_Folk_Guitar_1,6,2,_DL_Japanese_Folk_Pop_Acoustic_Folk_Guitar_1,0.05722550302743912,0
68,100,0.17727272727272728,574,0,26,_DL_Japanese_Folk_Pop_Acoustic_Folk_Guitar_1,6,3,_DL_Japanese_Folk_Pop_Acoustic_Folk_Guitar_1,0.05954940989613533,0
68,100,0.1318181818181818,618,0,26,_DL_Japanese_Folk_Pop_Acoustic_Folk_Guitar_1,6,2,_DL_Japanese_Folk_Pop_Acoustic_Folk_Guitar_1,0.0672585517168045,0
52,100,0.18181818181818182,862,1,26,_DL_Japanese_Folk_Pop_Acoustic_Folk_Guitar_1,6,3,_DL_Japanese_Folk_Pop_Acoustic_Folk_Guitar_1,0.06236353516578674,0
59,100,0.6045454545454545,110,1,27,_DL_Japanese_Folk_Pop_Acoustic_Folk_Guitar_1,6,10,_DL_Japanese_Folk_Pop_Acoustic_Folk_Guitar_1,0.999835729598999,1
56,100,0.2,322,0,27,_DL_Japanese_Folk_Pop_Acoustic_Folk_Guitar_1,6,3,_DL_Japanese_Folk_Pop_Acoustic_Folk_Guitar_1,0.35171693563461304,0
64,100,0.6681818181818182,464,0,27,_DL_Japanese_Folk_Pop_Acoustic_Folk_Guitar_1,6,11,_DL_Japanese_Folk_Pop_Acoustic_Folk_Guitar_1,0.2854073643684387,0
59,100,0.2681818181818182,690,0,27,_DL_Japanese_Folk_Pop_Acoustic_Folk_Guitar_1,6,4,_DL_Japanese_Folk_Pop_Acoustic_Folk_Guitar_1,0.31082358956336975,0
61,100,0.22272727272727272,11,1,28,_DL_Japanese_Folk_Pop_Acoustic_Folk_Guitar_1,6,4,_DL_Japanese_Folk_Pop_Acoustic_Folk_Guitar_1,0.9997624754905701,1
61,100,0.6227272727272727,65,0,28,_DL_Japanese_Folk_Pop_Acoustic_Folk_Guitar_1,6,10,_DL_Japanese_Folk_Pop_Acoustic_Folk_Guitar_1,0.07524767518043518,0
57,100,0.2,213,0,28,_DL_Japanese_Folk_Pop_Acoustic_Folk_Guitar_1,6,3,_DL_Japanese_Folk_Pop_Acoustic_Folk_Guitar_1,0.07583650946617126,0
54,100,0.2,261,0,28,_DL_Japanese_Folk_Pop_Acoustic_Folk_Guitar_1,6,3,_DL_Japanese_Folk_Pop_Acoustic_Folk_Guitar_1,0.08116304874420166,0
57,100,0.6272727272727273,370,0,28,_DL_Japanese_Folk_Pop_Acoustic_Folk_Guitar_1,6,10,_DL_Japanese_Folk_Pop_Acoustic_Folk_Guitar_1,0.08587050437927246,0
57,100,0.22272727272727272,777,1,28,_DL_Japanese_Folk_Pop_Acoustic_Folk_Guitar_1,6,4,_DL_Japanese_Folk_Pop_Acoustic_Folk_Guitar_1,0.10342521965503693,0
57,100,0.10909090909090909,852,0,28,_DL_Japanese_Folk_Pop_Acoustic_Folk_Guitar_1,6,2,_DL_Japanese_Folk_Pop_Acoustic_Folk_Guitar_1,0.09289900213479996,0
64,100,0.2909090909090909,0,1,29,_DL_Japanese_Folk_Pop_Acoustic_Folk_Guitar_1,6,5,_DL_Japanese_Folk_Pop_Acoustic_Folk_Guitar_1,0.9998083710670471,1
57,100,0.2636363636363636,134,0,29,_DL_Japanese_Folk_Pop_Acoustic_Folk_Guitar_1,6,4,_DL_Japanese_Folk_Pop_Acoustic_Folk_Guitar_1,0.12323345988988876,0
68,100,0.24545454545454545,202,0,29,_DL_Japanese_Folk_Pop_Acoustic_Folk_Guitar_1,6,4,_DL_Japanese_Folk_Pop_Acoustic_Folk_Guitar_1,0.122914619743824,0
64,100,0.18181818181818182,422,0,29,_DL_Japanese_Folk_Pop_Acoustic_Folk_Guitar_1,6,3,_DL_Japanese_Folk_Pop_Acoustic_Folk_Guitar_1,0.14109015464782715,0
69,100,0.24545454545454545,560,0,29,_DL_Japanese_Folk_Pop_Acoustic_Folk_Guitar_1,6,4,_DL_Japanese_Folk_Pop_Acoustic_Folk_Guitar_1,0.13766054809093475,0
59,100,0.13636363636363635,693,0,29,_DL_Japanese_Folk_Pop_Acoustic_Folk_Guitar_1,6,2,_DL_Japanese_Folk_Pop_Acoustic_Folk_Guitar_1,0.13466781377792358,0
57,100,0.10909090909090909,14,1,30,_DL_Japanese_Folk_Pop_Acoustic_Folk_Guitar_1,6,2,_DL_Japanese_Folk_Pop_Acoustic_Folk_Guitar_1,0.9998177886009216,1
61,100,1.2045454545454546,103,0,30,_DL_Japanese_Folk_Pop_Acoustic_Folk_Guitar_1,6,15,_DL_Japanese_Folk_Pop_Acoustic_Folk_Guitar_1,0.3817110061645508,0
52,100,0.15454545454545454,849,1,30,_DL_Japanese_Folk_Pop_Acoustic_Folk_Guitar_1,6,2,_DL_Japanese_Folk_Pop_Acoustic_Folk_Guitar_1,0.4607089161872864,0
61,100,0.18181818181818182,312,1,31,_DL_Japanese_Folk_Pop_Acoustic_Folk_Guitar_1,6,3,_DL_Japanese_Folk_Pop_Acoustic_Folk_Guitar_1,0.9998563528060913,1
61,100,0.20454545454545456,361,0,31,_DL_Japanese_Folk_Pop_Acoustic_Folk_Guitar_1,6,3,_DL_Japanese_Folk_Pop_Acoustic_Folk_Guitar_1,0.30977663397789,0
64,100,0.17727272727272728,515,0,31,_DL_Japanese_Folk_Pop_Acoustic_Folk_Guitar_1,6,3,_DL_Japanese_Folk_Pop_Acoustic_Folk_Guitar_1,0.2967899739742279,0
56,100,0.13636363636363635,701,0,31,_DL_Japanese_Folk_Pop_Acoustic_Folk_Guitar_1,6,2,_DL_Japanese_Folk_Pop_Acoustic_Folk_Guitar_1,0.2991982400417328,0
59,100,0.65,36,1,32,_DL_Japanese_Folk_Pop_Acoustic_Folk_Guitar_1,6,10,_DL_Japanese_Folk_Pop_Acoustic_Folk_Guitar_1,0.9998094439506531,1
59,100,0.2,233,0,32,_DL_Japanese_Folk_Pop_Acoustic_Folk_Guitar_1,6,3,_DL_Japanese_Folk_Pop_Acoustic_Folk_Guitar_1,0.4338359236717224,0
54,100,0.6227272727272727,385,0,32,_DL_Japanese_Folk_Pop_Acoustic_Folk_Guitar_1,6,10,_DL_Japanese_Folk_Pop_Acoustic_Folk_Guitar_1,0.4263386130332947,0
61,100,0.31363636363636366,222,1,33,_DL_Japanese_Folk_Pop_Acoustic_Folk_Guitar_1,6,5,_DL_Japanese_Folk_Pop_Acoustic_Folk_Guitar_1,0.9998511075973511,1
61,100,0.44545454545454544,330,0,33,_DL_Japanese_Folk_Pop_Acoustic_Folk_Guitar_1,6,7,_DL_Japanese_Folk_Pop_Acoustic_Folk_Guitar_1,0.3148927092552185,0
62,100,0.15454545454545454,738,1,33,_DL_Japanese_Folk_Pop_Acoustic_Folk_Guitar_1,6,2,_DL_Japanese_Folk_Pop_Acoustic_Folk_Guitar_1,0.30108386278152466,0
62,100,0.33636363636363636,777,0,33,_DL_Japanese_Folk_Pop_Acoustic_Folk_Guitar_1,6,5,_DL_Japanese_Folk_Pop_Acoustic_Folk_Guitar_1,0.2999245822429657,0
62,100,0.18181818181818182,255,1,34,_DL_Japanese_Folk_Pop_Acoustic_Folk_Guitar_1,6,3,_DL_Japanese_Folk_Pop_Acoustic_Folk_Guitar_1,0.9998542070388794,1
73,100,0.2,350,0,34,_DL_Japanese_Folk_Pop_Acoustic_Folk_Guitar_1,6,3,_DL_Japanese_Folk_Pop_Acoustic_Folk_Guitar_1,0.3196655213832855,0
62,100,1.0227272727272727,462,0,34,_DL_Japanese_Folk_Pop_Acoustic_Folk_Guitar_1,6,15,_DL_Japanese_Folk_Pop_Acoustic_Folk_Guitar_1,0.27259740233421326,0
62,100,0.4681818181818182,756,1,34,_DL_Japanese_Folk_Pop_Acoustic_Folk_Guitar_1,6,7,_DL_Japanese_Folk_Pop_Acoustic_Folk_Guitar_1,0.32809925079345703,0
52,100,0.7818181818181819,363,1,35,_DL_Japanese_Folk_Pop_Acoustic_Folk_Guitar_1,6,13,_DL_Japanese_Folk_Pop_Acoustic_Folk_Guitar_1,0.9926682114601135,0
52,100,0.31363636363636366,165,1,36,_DL_Japanese_Folk_Pop_Acoustic_Folk_Guitar_1,6,5,_DL_Japanese_Folk_Pop_Acoustic_Folk_Guitar_1,0.9998588562011719,1
57,100,0.25,632,1,36,_DL_Japanese_Folk_Pop_Acoustic_Folk_Guitar_1,6,4,_DL_Japanese_Folk_Pop_Acoustic_Folk_Guitar_1,0.30994731187820435,0
69,100,0.1318181818181818,687,0,36,_DL_Japanese_Folk_Pop_Acoustic_Folk_Guitar_1,6,2,_DL_Japanese_Folk_Pop_Acoustic_Folk_Guitar_1,0.29402992129325867,0
57,100,0.13636363636363635,804,0,36,_DL_Japanese_Folk_Pop_Acoustic_Folk_Guitar_1,6,2,_DL_Japanese_Folk_Pop_Acoustic_Folk_Guitar_1,0.30163586139678955,0
52,100,0.5363636363636364,2,1,37,_DL_Japanese_Folk_Pop_Acoustic_Folk_Guitar_1,6,9,_DL_Japanese_Folk_Pop_Acoustic_Folk_Guitar_1,0.9997602105140686,1
52,100,0.22272727272727272,258,1,37,_DL_Japanese_Folk_Pop_Acoustic_Folk_Guitar_1,6,4,_DL_Japanese_Folk_Pop_Acoustic_Folk_Guitar_1,0.08440497517585754,0
59,100,0.20454545454545456,474,0,37,_DL_Japanese_Folk_Pop_Acoustic_Folk_Guitar_1,6,3,_DL_Japanese_Folk_Pop_Acoustic_Folk_Guitar_1,0.07148120552301407,0
57,100,0.22727272727272727,522,0,37,_DL_Japanese_Folk_Pop_Acoustic_Folk_Guitar_1,6,4,_DL_Japanese_Folk_Pop_Acoustic_Folk_Guitar_1,0.08093444257974625,0
57,100,0.2,655,0,37,_DL_Japanese_Folk_Pop_Acoustic_Folk_Guitar_1,6,3,_DL_Japanese_Folk_Pop_Acoustic_Folk_Guitar_1,0.09358549863100052,0
64,100,0.4,735,0,37,_DL_Japanese_Folk_Pop_Acoustic_Folk_Guitar_1,6,6,_DL_Japanese_Folk_Pop_Acoustic_Folk_Guitar_1,0.10287036746740341,0
57,100,1.0045454545454546,877,0,37,_DL_Japanese_Folk_Pop_Acoustic_Folk_Guitar_1,6,15,_DL_Japanese_Folk_Pop_Acoustic_Folk_Guitar_1,0.08219827711582184,0
57,100,0.3090909090909091,345,1,38,_DL_Japanese_Folk_Pop_Acoustic_Folk_Guitar_1,6,5,_DL_Japanese_Folk_Pop_Acoustic_Folk_Guitar_1,0.9998407363891602,1
64,100,0.5136363636363637,433,0,38,_DL_Japanese_Folk_Pop_Acoustic_Folk_Guitar_1,6,8,_DL_Japanese_Folk_Pop_Acoustic_Folk_Guitar_1,0.3360086977481842,0
57,100,0.35454545454545455,562,0,38,_DL_Japanese_Folk_Pop_Acoustic_Folk_Guitar_1,6,6,_DL_Japanese_Folk_Pop_Acoustic_Folk_Guitar_1,0.28982916474342346,0
57,100,0.18181818181818182,742,0,38,_DL_Japanese_Folk_Pop_Acoustic_Folk_Guitar_1,6,3,_DL_Japanese_Folk_Pop_Acoustic_Folk_Guitar_1,0.3166729807853699,0
57,100,0.2909090909090909,330,1,39,_DL_Japanese_Folk_Pop_Acoustic_Folk_Guitar_1,6,5,_DL_Japanese_Folk_Pop_Acoustic_Folk_Guitar_1,0.9998243451118469,1
57,100,0.18181818181818182,412,0,39,_DL_Japanese_Folk_Pop_Acoustic_Folk_Guitar_1,6,3,_DL_Japanese_Folk_Pop_Acoustic_Folk_Guitar_1,0.40956994891166687,0
59,100,0.15454545454545454,851,1,39,_DL_Japanese_Folk_Pop_Acoustic_Folk_Guitar_1,6,2,_DL_Japanese_Folk_Pop_Acoustic_Folk_Guitar_1,0.43123483657836914,0
57,100,1.1636363636363636,146,1,40,_DL_Japanese_Folk_Pop_Acoustic_Folk_Guitar_1,6,15,_DL_Japanese_Folk_Pop_Acoustic_Folk_Guitar_1,0.9997633099555969,1
57,100,0.37727272727272726,407,1,40,_DL_Japanese_Folk_Pop_Acoustic_Folk_Guitar_1,6,6,_DL_Japanese_Folk_Pop_Acoustic_Folk_Guitar_1,0.14423924684524536,0
57,100,0.38181818181818183,643,1,40,_DL_Japanese_Folk_Pop_Acoustic_Folk_Guitar_1,6,6,_DL_Japanese_Folk_Pop_Acoustic_Folk_Guitar_1,0.12441224604845047,0
57,100,0.24545454545454545,736,0,40,_DL_Japanese_Folk_Pop_Acoustic_Folk_Guitar_1,6,4,_DL_Japanese_Folk_Pop_Acoustic_Folk_Guitar_1,0.1456390619277954,0
57,100,0.2,819,0,40,_DL_Japanese_Folk_Pop_Acoustic_Folk_Guitar_1,6,3,_DL_Japanese_Folk_Pop_Acoustic_Folk_Guitar_1,0.14309658110141754,0
52,100,0.31363636363636366,864,0,40,_DL_Japanese_Folk_Pop_Acoustic_Folk_Guitar_1,6,5,_DL_Japanese_Folk_Pop_Acoustic_Folk_Guitar_1,0.14346301555633545,0
57,100,0.1318181818181818,53,1,41,_DL_Japanese_Folk_Pop_Acoustic_Folk_Guitar_1,6,2,_DL_Japanese_Folk_Pop_Acoustic_Folk_Guitar_1,0.9997585415840149,1
64,100,0.24545454545454545,131,0,41,_DL_Japanese_Folk_Pop_Acoustic_Folk_Guitar_1,6,4,_DL_Japanese_Folk_Pop_Acoustic_Folk_Guitar_1,0.08273909986019135,0
57,100,0.37727272727272726,185,0,41,_DL_Japanese_Folk_Pop_Acoustic_Folk_Guitar_1,6,6,_DL_Japanese_Folk_Pop_Acoustic_Folk_Guitar_1,0.07022266834974289,0
64,100,0.1318181818181818,343,0,41,_DL_Japanese_Folk_Pop_Acoustic_Folk_Guitar_1,6,2,_DL_Japanese_Folk_Pop_Acoustic_Folk_Guitar_1,0.08266531676054001,0
57,100,0.1318181818181818,386,0,41,_DL_Japanese_Folk_Pop_Acoustic_Folk_Guitar_1,6,2,_DL_Japanese_Folk_Pop_Acoustic_Folk_Guitar_1,0.08812643587589264,0
57,100,0.22272727272727272,543,0,41,_DL_Japanese_Folk_Pop_Acoustic_Folk_Guitar_1,6,4,_DL_Japanese_Folk_Pop_Acoustic_Folk_Guitar_1,0.09167484194040298,0
57,100,0.35909090909090907,824,1,41,_DL_Japanese_Folk_Pop_Acoustic_Folk_Guitar_1,6,6,_DL_Japanese_Folk_Pop_Acoustic_Folk_Guitar_1,0.0875367745757103,0
57,100,0.1590909090909091,47,1,42,_DL_Japanese_Folk_Pop_Acoustic_Folk_Guitar_1,6,3,_DL_Japanese_Folk_Pop_Acoustic_Folk_Guitar_1,0.9998177886009216,1
59,100,0.42272727272727273,445,1,42,_DL_Japanese_Folk_Pop_Acoustic_Folk_Guitar_1,6,7,_DL_Japanese_Folk_Pop_Acoustic_Folk_Guitar_1,0.40871337056159973,0
59,100,0.2909090909090909,591,0,42,_DL_Japanese_Folk_Pop_Acoustic_Folk_Guitar_1,6,5,_DL_Japanese_Folk_Pop_Acoustic_Folk_Guitar_1,0.4336099624633789,0
61,100,0.2681818181818182,130,1,43,_DL_Japanese_Folk_Pop_Acoustic_Folk_Guitar_1,6,4,_DL_Japanese_Folk_Pop_Acoustic_Folk_Guitar_1,0.9998077750205994,1
59,100,0.5590909090909091,203,0,43,_DL_Japanese_Folk_Pop_Acoustic_Folk_Guitar_1,6,9,_DL_Japanese_Folk_Pop_Acoustic_Folk_Guitar_1,0.12040078639984131,0
64,100,0.20454545454545456,585,1,43,_DL_Japanese_Folk_Pop_Acoustic_Folk_Guitar_1,6,3,_DL_Japanese_Folk_Pop_Acoustic_Folk_Guitar_1,0.13214734196662903,0
57,100,0.31363636363636366,699,0,43,_DL_Japanese_Folk_Pop_Acoustic_Folk_Guitar_1,6,5,_DL_Japanese_Folk_Pop_Acoustic_Folk_Guitar_1,0.13294538855552673,0
61,100,0.1590909090909091,817,0,43,_DL_Japanese_Folk_Pop_Acoustic_Folk_Guitar_1,6,3,_DL_Japanese_Folk_Pop_Acoustic_Folk_Guitar_1,0.1456541121006012,0
57,100,0.2681818181818182,856,0,43,_DL_Japanese_Folk_Pop_Acoustic_Folk_Guitar_1,6,4,_DL_Japanese_Folk_Pop_Acoustic_Folk_Guitar_1,0.12871967256069183,0
57,100,0.4,393,1,44,_DL_Japanese_Folk_Pop_Acoustic_Folk_Guitar_1,6,6,_DL_Japanese_Folk_Pop_Acoustic_Folk_Guitar_1,0.9995911717414856,1
57,100,0.2,511,0,44,_DL_Japanese_Folk_Pop_Acoustic_Folk_Guitar_1,6,3,_DL_Japanese_Folk_Pop_Acoustic_Folk_Guitar_1,0.559094250202179,0
69,100,0.1318181818181818,501,1,45,_DL_Japanese_Folk_Pop_Acoustic_Folk_Guitar_1,6,2,_DL_Japanese_Folk_Pop_Acoustic_Folk_Guitar_1,0.9998278617858887,1
57,100,0.4909090909090909,550,0,45,_DL_Japanese_Folk_Pop_Acoustic_Folk_Guitar_1,6,8,_DL_Japanese_Folk_Pop_Acoustic_Folk_Guitar_1,0.3978655934333801,0
57,100,0.1590909090909091,696,0,45,_DL_Japanese_Folk_Pop_Acoustic_Folk_Guitar_1,6,3,_DL_Japanese_Folk_Pop_Acoustic_Folk_Guitar_1,0.4340769052505493,0
57,100,0.24545454545454545,554,1,46,_DL_Japanese_Folk_Pop_Acoustic_Folk_Guitar_1,6,4,_DL_Japanese_Folk_Pop_Acoustic_Folk_Guitar_1,0.9996094107627869,1
61,100,0.7181818181818181,744,0,46,_DL_Japanese_Folk_Pop_Acoustic_Folk_Guitar_1,6,11,_DL_Japanese_Folk_Pop_Acoustic_Folk_Guitar_1,0.545678436756134,0
66,100,0.24545454545454545,170,1,47,_DL_Japanese_Folk_Pop_Acoustic_Folk_Guitar_1,6,4,_DL_Japanese_Folk_Pop_Acoustic_Folk_Guitar_1,0.9996007084846497,1
61,100,1.6272727272727272,789,1,47,_DL_Japanese_Folk_Pop_Acoustic_Folk_Guitar_1,6,15,_DL_Japanese_Folk_Pop_Acoustic_Folk_Guitar_1,0.5181726813316345,0
57,100,0.33636363636363636,330,1,48,_DL_Japanese_Folk_Pop_Acoustic_Folk_Guitar_1,6,5,_DL_Japanese_Folk_Pop_Acoustic_Folk_Guitar_1,0.9998496770858765,1
59,100,0.1590909090909091,645,1,48,_DL_Japanese_Folk_Pop_Acoustic_Folk_Guitar_1,6,3,_DL_Japanese_Folk_Pop_Acoustic_Folk_Guitar_1,0.33595094084739685,0
68,100,0.37727272727272726,685,0,48,_DL_Japanese_Folk_Pop_Acoustic_Folk_Guitar_1,6,6,_DL_Japanese_Folk_Pop_Acoustic_Folk_Guitar_1,0.2837770879268646,0
64,100,0.2,837,0,48,_DL_Japanese_Folk_Pop_Acoustic_Folk_Guitar_1,6,3,_DL_Japanese_Folk_Pop_Acoustic_Folk_Guitar_1,0.3116450309753418,0
52,100,0.17727272727272728,0,1,49,_DL_Japanese_Folk_Pop_Acoustic_Folk_Guitar_1,6,3,_DL_Japanese_Folk_Pop_Acoustic_Folk_Guitar_1,0.9998165965080261,1
64,100,0.11363636363636363,143,0,49,_DL_Japanese_Folk_Pop_Acoustic_Folk_Guitar_1,6,2,_DL_Japanese_Folk_Pop_Acoustic_Folk_Guitar_1,0.13045309484004974,0
64,100,0.11363636363636363,212,0,49,_DL_Japanese_Folk_Pop_Acoustic_Folk_Guitar_1,6,2,_DL_Japanese_Folk_Pop_Acoustic_Folk_Guitar_1,0.1215486079454422,0
64,100,0.15454545454545454,241,0,49,_DL_Japanese_Folk_Pop_Acoustic_Folk_Guitar_1,6,2,_DL_Japanese_Folk_Pop_Acoustic_Folk_Guitar_1,0.13224032521247864,0
64,100,0.42272727272727273,281,0,49,_DL_Japanese_Folk_Pop_Acoustic_Folk_Guitar_1,6,7,_DL_Japanese_Folk_Pop_Acoustic_Folk_Guitar_1,0.13290035724639893,0
57,100,0.20454545454545456,579,1,49,_DL_Japanese_Folk_Pop_Acoustic_Folk_Guitar_1,6,3,_DL_Japanese_Folk_Pop_Acoustic_Folk_Guitar_1,0.1243860051035881,0
64,100,0.22272727272727272,349,1,50,_DL_Japanese_Folk_Pop_Acoustic_Folk_Guitar_1,6,4,_DL_Japanese_Folk_Pop_Acoustic_Folk_Guitar_1,0.9998308420181274,1
61,100,1.6045454545454545,407,0,50,_DL_Japanese_Folk_Pop_Acoustic_Folk_Guitar_1,6,15,_DL_Japanese_Folk_Pop_Acoustic_Folk_Guitar_1,0.35375285148620605,0
59,100,0.24545454545454545,781,1,50,_DL_Japanese_Folk_Pop_Acoustic_Folk_Guitar_1,6,4,_DL_Japanese_Folk_Pop_Acoustic_Folk_Guitar_1,0.4655017554759979,0
61,100,1.5863636363636364,317,1,51,_DL_Japanese_Folk_Pop_Acoustic_Folk_Guitar_1,6,15,_DL_Japanese_Folk_Pop_Acoustic_Folk_Guitar_1,0.9994572997093201,1
62,100,0.9363636363636364,672,1,51,_DL_Japanese_Folk_Pop_Acoustic_Folk_Guitar_1,6,15,_DL_Japanese_Folk_Pop_Acoustic_Folk_Guitar_1,0.5781140923500061,0
62,100,0.42727272727272725,139,1,52,_DL_Japanese_Folk_Pop_Acoustic_Folk_Guitar_1,6,7,_DL_Japanese_Folk_Pop_Acoustic_Folk_Guitar_1,0.9998282194137573,1
62,100,0.4727272727272727,253,0,52,_DL_Japanese_Folk_Pop_Acoustic_Folk_Guitar_1,6,8,_DL_Japanese_Folk_Pop_Acoustic_Folk_Guitar_1,0.41187119483947754,0
59,100,0.33636363636363636,818,1,52,_DL_Japanese_Folk_Pop_Acoustic_Folk_Guitar_1,6,5,_DL_Japanese_Folk_Pop_Acoustic_Folk_Guitar_1,0.4263738989830017,0
57,100,0.1590909090909091,41,1,53,_DL_Japanese_Folk_Pop_Acoustic_Folk_Guitar_1,6,3,_DL_Japanese_Folk_Pop_Acoustic_Folk_Guitar_1,0.9998296499252319,1
61,100,0.4681818181818182,433,1,53,_DL_Japanese_Folk_Pop_Acoustic_Folk_Guitar_1,6,7,_DL_Japanese_Folk_Pop_Acoustic_Folk_Guitar_1,0.20767347514629364,0
54,100,0.5363636363636364,620,0,53,_DL_Japanese_Folk_Pop_Acoustic_Folk_Guitar_1,6,9,_DL_Japanese_Folk_Pop_Acoustic_Folk_Guitar_1,0.2021368443965912,0
57,100,0.31363636363636366,753,0,53,_DL_Japanese_Folk_Pop_Acoustic_Folk_Guitar_1,6,5,_DL_Japanese_Folk_Pop_Acoustic_Folk_Guitar_1,0.21719369292259216,0
54,100,0.42272727272727273,852,0,53,_DL_Japanese_Folk_Pop_Acoustic_Folk_Guitar_1,6,7,_DL_Japanese_Folk_Pop_Acoustic_Folk_Guitar_1,0.21050675213336945,0
57,100,0.31363636363636366,94,1,54,_DL_Japanese_Folk_Pop_Acoustic_Folk_Guitar_1,6,5,_DL_Japanese_Folk_Pop_Acoustic_Folk_Guitar_1,0.9998301267623901,1
57,100,0.44545454545454544,167,0,54,_DL_Japanese_Folk_Pop_Acoustic_Folk_Guitar_1,6,7,_DL_Japanese_Folk_Pop_Acoustic_Folk_Guitar_1,0.20033487677574158,0
62,100,0.9136363636363637,301,0,54,_DL_Japanese_Folk_Pop_Acoustic_Folk_Guitar_1,6,15,_DL_Japanese_Folk_Pop_Acoustic_Folk_Guitar_1,0.20079289376735687,0
69,100,0.24545454545454545,507,0,54,_DL_Japanese_Folk_Pop_Acoustic_Folk_Guitar_1,6,4,_DL_Japanese_Folk_Pop_Acoustic_Folk_Guitar_1,0.22600507736206055,0
62,100,0.6727272727272727,702,0,54,_DL_Japanese_Folk_Pop_Acoustic_Folk_Guitar_1,6,11,_DL_Japanese_Folk_Pop_Acoustic_Folk_Guitar_1,0.20723097026348114,0
59,100,0.10909090909090909,510,1,55,_DL_Japanese_Folk_Pop_Acoustic_Folk_Guitar_1,6,2,_DL_Japanese_Folk_Pop_Acoustic_Folk_Guitar_1,0.99983811378479,1
52,100,0.2636363636363636,628,0,55,_DL_Japanese_Folk_Pop_Acoustic_Folk_Guitar_1,6,4,_DL_Japanese_Folk_Pop_Acoustic_Folk_Guitar_1,0.4080713987350464,0
52,100,0.5363636363636364,781,0,55,_DL_Japanese_Folk_Pop_Acoustic_Folk_Guitar_1,6,9,_DL_Japanese_Folk_Pop_Acoustic_Folk_Guitar_1,0.41999655961990356,0
52,100,0.22272727272727272,116,1,56,_DL_Japanese_Folk_Pop_Acoustic_Folk_Guitar_1,6,4,_DL_Japanese_Folk_Pop_Acoustic_Folk_Guitar_1,0.9997398257255554,1
52,100,0.24545454545454545,171,0,56,_DL_Japanese_Folk_Pop_Acoustic_Folk_Guitar_1,6,4,_DL_Japanese_Folk_Pop_Acoustic_Folk_Guitar_1,0.055985622107982635,0
57,100,0.42272727272727273,234,0,56,_DL_Japanese_Folk_Pop_Acoustic_Folk_Guitar_1,6,7,_DL_Japanese_Folk_Pop_Acoustic_Folk_Guitar_1,0.04635309427976608,0
57,100,0.22272727272727272,440,0,56,_DL_Japanese_Folk_Pop_Acoustic_Folk_Guitar_1,6,4,_DL_Japanese_Folk_Pop_Acoustic_Folk_Guitar_1,0.050293538719415665,0
56,100,0.44545454545454544,489,0,56,_DL_Japanese_Folk_Pop_Acoustic_Folk_Guitar_1,6,7,_DL_Japanese_Folk_Pop_Acoustic_Folk_Guitar_1,0.05281778797507286,0
56,100,0.24545454545454545,652,0,56,_DL_Japanese_Folk_Pop_Acoustic_Folk_Guitar_1,6,4,_DL_Japanese_Folk_Pop_Acoustic_Folk_Guitar_1,0.06438832730054855,0
57,100,0.4681818181818182,730,0,56,_DL_Japanese_Folk_Pop_Acoustic_Folk_Guitar_1,6,7,_DL_Japanese_Folk_Pop_Acoustic_Folk_Guitar_1,0.06462759524583817,0
57,100,0.6454545454545455,878,0,56,_DL_Japanese_Folk_Pop_Acoustic_Folk_Guitar_1,6,10,_DL_Japanese_Folk_Pop_Acoustic_Folk_Guitar_1,0.06351953744888306,0
69,100,0.40454545454545454,144,1,57,_DL_Japanese_Folk_Pop_Acoustic_Folk_Guitar_1,6,6,_DL_Japanese_Folk_Pop_Acoustic_Folk_Guitar_1,0.9998189806938171,1
57,100,0.1318181818181818,233,0,57,_DL_Japanese_Folk_Pop_Acoustic_Folk_Guitar_1,6,2,_DL_Japanese_Folk_Pop_Acoustic_Folk_Guitar_1,0.4198252856731415,0
61,100,0.15454545454545454,391,0,57,_DL_Japanese_Folk_Pop_Acoustic_Folk_Guitar_1,6,2,_DL_Japanese_Folk_Pop_Acoustic_Folk_Guitar_1,0.43038859963417053,0
61,100,0.2,448,1,58,_DL_Japanese_Folk_Pop_Acoustic_Folk_Guitar_1,6,3,_DL_Japanese_Folk_Pop_Acoustic_Folk_Guitar_1,0.9998263716697693,1
61,100,0.2909090909090909,611,0,58,_DL_Japanese_Folk_Pop_Acoustic_Folk_Guitar_1,6,5,_DL_Japanese_Folk_Pop_Acoustic_Folk_Guitar_1,0.40478596091270447,0
64,100,0.6909090909090909,734,0,58,_DL_Japanese_Folk_Pop_Acoustic_Folk_Guitar_1,6,11,_DL_Japanese_Folk_Pop_Acoustic_Folk_Guitar_1,0.42880335450172424,0
61,100,0.6,80,1,59,_DL_Japanese_Folk_Pop_Acoustic_Folk_Guitar_1,6,10,_DL_Japanese_Folk_Pop_Acoustic_Folk_Guitar_1,0.9998217225074768,1
61,100,0.33181818181818185,290,0,59,_DL_Japanese_Folk_Pop_Acoustic_Folk_Guitar_1,6,5,_DL_Japanese_Folk_Pop_Acoustic_Folk_Guitar_1,0.2188315987586975,0
61,100,0.13636363636363635,378,0,59,_DL_Japanese_Folk_Pop_Acoustic_Folk_Guitar_1,6,2,_DL_Japanese_Folk_Pop_Acoustic_Folk_Guitar_1,0.2091308832168579,0
62,100,0.5590909090909091,433,0,59,_DL_Japanese_Folk_Pop_Acoustic_Folk_Guitar_1,6,9,_DL_Japanese_Folk_Pop_Acoustic_Folk_Guitar_1,0.20564329624176025,0
62,100,0.8909090909090909,786,1,59,_DL_Japanese_Folk_Pop_Acoustic_Folk_Guitar_1,6,14,_DL_Japanese_Folk_Pop_Acoustic_Folk_Guitar_1,0.2057679295539856,0
52,100,0.42272727272727273,240,1,60,_DL_Japanese_Folk_Pop_Acoustic_Folk_Guitar_1,6,7,_DL_Japanese_Folk_Pop_Acoustic_Folk_Guitar_1,0.9996477365493774,1
52,100,0.24545454545454545,618,1,60,_DL_Japanese_Folk_Pop_Acoustic_Folk_Guitar_1,6,4,_DL_Japanese_Folk_Pop_Acoustic_Folk_Guitar_1,0.5490203499794006,0
59,100,0.24545454545454545,151,1,61,_DL_Japanese_Folk_Pop_Acoustic_Folk_Guitar_1,6,4,_DL_Japanese_Folk_Pop_Acoustic_Folk_Guitar_1,0.9998308420181274,1
61,100,0.2,294,0,61,_DL_Japanese_Folk_Pop_Acoustic_Folk_Guitar_1,6,3,_DL_Japanese_Folk_Pop_Acoustic_Folk_Guitar_1,0.41381293535232544,0
61,100,0.4,357,0,61,_DL_Japanese_Folk_Pop_Acoustic_Folk_Guitar_1,6,6,_DL_Japanese_Folk_Pop_Acoustic_Folk_Guitar_1,0.4199633300304413,0
54,100,0.13636363636363635,86,1,62,_DL_Japanese_Folk_Pop_Acoustic_Folk_Guitar_1,6,2,_DL_Japanese_Folk_Pop_Acoustic_Folk_Guitar_1,0.99985671043396,1
62,100,0.17727272727272728,346,1,62,_DL_Japanese_Folk_Pop_Acoustic_Folk_Guitar_1,6,3,_DL_Japanese_Folk_Pop_Acoustic_Folk_Guitar_1,0.31026580929756165,0
59,100,0.5545454545454546,411,0,62,_DL_Japanese_Folk_Pop_Acoustic_Folk_Guitar_1,6,9,_DL_Japanese_Folk_Pop_Acoustic_Folk_Guitar_1,0.2798333466053009,0
54,100,0.17727272727272728,577,0,62,_DL_Japanese_Folk_Pop_Acoustic_Folk_Guitar_1,6,3,_DL_Japanese_Folk_Pop_Acoustic_Folk_Guitar_1,0.3158609867095947,0
62,100,0.2681818181818182,130,1,63,_DL_Japanese_Folk_Pop_Acoustic_Folk_Guitar_1,6,4,_DL_Japanese_Folk_Pop_Acoustic_Folk_Guitar_1,0.9998051524162292,1
61,100,0.9363636363636364,316,0,63,_DL_Japanese_Folk_Pop_Acoustic_Folk_Guitar_1,6,15,_DL_Japanese_Folk_Pop_Acoustic_Folk_Guitar_1,0.10984126478433609,0
61,100,0.24545454545454545,527,0,63,_DL_Japanese_Folk_Pop_Acoustic_Folk_Guitar_1,6,4,_DL_Japanese_Folk_Pop_Acoustic_Folk_Guitar_1,0.12782727181911469,0
69,100,0.2681818181818182,596,0,63,_DL_Japanese_Folk_Pop_Acoustic_Folk_Guitar_1,6,4,_DL_Japanese_Folk_Pop_Acoustic_Folk_Guitar_1,0.1402914673089981,0
61,100,0.2681818181818182,665,0,63,_DL_Japanese_Folk_Pop_Acoustic_Folk_Guitar_1,6,4,_DL_Japanese_Folk_Pop_Acoustic_Folk_Guitar_1,0.1491810828447342,0
61,100,0.17727272727272728,826,0,63,_DL_Japanese_Folk_Pop_Acoustic_Folk_Guitar_1,6,3,_DL_Japanese_Folk_Pop_Acoustic_Folk_Guitar_1,0.13761712610721588,0
69,100,0.2636363636363636,80,1,64,_DL_Japanese_Folk_Pop_Acoustic_Folk_Guitar_1,6,4,_DL_Japanese_Folk_Pop_Acoustic_Folk_Guitar_1,0.9998502731323242,1
57,100,0.1318181818181818,349,1,64,_DL_Japanese_Folk_Pop_Acoustic_Folk_Guitar_1,6,2,_DL_Japanese_Folk_Pop_Acoustic_Folk_Guitar_1,0.3406884968280792,0
66,100,0.17727272727272728,379,0,64,_DL_Japanese_Folk_Pop_Acoustic_Folk_Guitar_1,6,3,_DL_Japanese_Folk_Pop_Acoustic_Folk_Guitar_1,0.2911868691444397,0
62,100,0.6909090909090909,565,0,64,_DL_Japanese_Folk_Pop_Acoustic_Folk_Guitar_1,6,11,_DL_Japanese_Folk_Pop_Acoustic_Folk_Guitar_1,0.297829270362854,0
62,100,0.4909090909090909,43,1,65,_DL_Japanese_Folk_Pop_Acoustic_Folk_Guitar_1,6,8,_DL_Japanese_Folk_Pop_Acoustic_Folk_Guitar_1,0.9998308420181274,1
59,100,0.2863636363636364,467,1,65,_DL_Japanese_Folk_Pop_Acoustic_Folk_Guitar_1,6,5,_DL_Japanese_Folk_Pop_Acoustic_Folk_Guitar_1,0.20577678084373474,0
62,100,0.4681818181818182,550,0,65,_DL_Japanese_Folk_Pop_Acoustic_Folk_Guitar_1,6,7,_DL_Japanese_Folk_Pop_Acoustic_Folk_Guitar_1,0.2031853348016739,0
59,100,0.15454545454545454,658,0,65,_DL_Japanese_Folk_Pop_Acoustic_Folk_Guitar_1,6,2,_DL_Japanese_Folk_Pop_Acoustic_Folk_Guitar_1,0.21580664813518524,0
66,100,0.15454545454545454,770,0,65,_DL_Japanese_Folk_Pop_Acoustic_Folk_Guitar_1,6,2,_DL_Japanese_Folk_Pop_Acoustic_Folk_Guitar_1,0.2077503353357315,0
59,100,0.1318181818181818,466,1,66,_DL_Japanese_Folk_Pop_Acoustic_Folk_Guitar_1,6,2,_DL_Japanese_Folk_Pop_Acoustic_Folk_Guitar_1,0.9996564388275146,1
59,100,0.2,505,0,66,_DL_Japanese_Folk_Pop_Acoustic_Folk_Guitar_1,6,3,_DL_Japanese_Folk_Pop_Acoustic_Folk_Guitar_1,0.5420469641685486,0
62,100,0.11363636363636363,193,1,67,_DL_Japanese_Folk_Pop_Acoustic_Folk_Guitar_1,6,2,_DL_Japanese_Folk_Pop_Acoustic_Folk_Guitar_1,0.9998559951782227,1
57,100,0.10909090909090909,617,1,67,_DL_Japanese_Folk_Pop_Acoustic_Folk_Guitar_1,6,2,_DL_Japanese_Folk_Pop_Acoustic_Folk_Guitar_1,0.3104383647441864,0
57,100,0.33636363636363636,646,0,67,_DL_Japanese_Folk_Pop_Acoustic_Folk_Guitar_1,6,5,_DL_Japanese_Folk_Pop_Acoustic_Folk_Guitar_1,0.2859892249107361,0
59,100,0.2909090909090909,748,0,67,_DL_Japanese_Folk_Pop_Acoustic_Folk_Guitar_1,6,5,_DL_Japanese_Folk_Pop_Acoustic_Folk_Guitar_1,0.31421178579330444,0
64,100,0.17727272727272728,51,1,68,_DL_Japanese_Folk_Pop_Acoustic_Folk_Guitar_1,6,3,_DL_Japanese_Folk_Pop_Acoustic_Folk_Guitar_1,0.9998311996459961,1
61,100,0.65,95,0,68,_DL_Japanese_Folk_Pop_Acoustic_Folk_Guitar_1,6,10,_DL_Japanese_Folk_Pop_Acoustic_Folk_Guitar_1,0.1925031542778015,0
59,100,0.1318181818181818,243,0,68,_DL_Japanese_Folk_Pop_Acoustic_Folk_Guitar_1,6,2,_DL_Japanese_Folk_Pop_Acoustic_Folk_Guitar_1,0.2162477821111679,0
57,100,0.2909090909090909,439,0,68,_DL_Japanese_Folk_Pop_Acoustic_Folk_Guitar_1,6,5,_DL_Japanese_Folk_Pop_Acoustic_Folk_Guitar_1,0.20955698192119598,0
59,100,0.5818181818181818,801,1,68,_DL_Japanese_Folk_Pop_Acoustic_Folk_Guitar_1,6,9,_DL_Japanese_Folk_Pop_Acoustic_Folk_Guitar_1,0.20550893247127533,0
61,100,0.13636363636363635,211,1,69,_DL_Japanese_Folk_Pop_Acoustic_Folk_Guitar_1,6,2,_DL_Japanese_Folk_Pop_Acoustic_Folk_Guitar_1,0.9998123049736023,1
57,100,0.9590909090909091,256,0,69,_DL_Japanese_Folk_Pop_Acoustic_Folk_Guitar_1,6,15,_DL_Japanese_Folk_Pop_Acoustic_Folk_Guitar_1,0.3882092237472534,0
61,100,0.8954545454545455,471,0,69,_DL_Japanese_Folk_Pop_Acoustic_Folk_Guitar_1,6,14,_DL_Japanese_Folk_Pop_Acoustic_Folk_Guitar_1,0.4412342607975006,0
57,100,0.2,64,1,70,_DL_Japanese_Folk_Pop_Acoustic_Folk_Guitar_1,6,3,_DL_Japanese_Folk_Pop_Acoustic_Folk_Guitar_1,0.9998028874397278,1
59,100,0.1318181818181818,177,0,70,_DL_Japanese_Folk_Pop_Acoustic_Folk_Guitar_1,6,2,_DL_Japanese_Folk_Pop_Acoustic_Folk_Guitar_1,0.1293518990278244,0
52,100,0.2681818181818182,470,1,70,_DL_Japanese_Folk_Pop_Acoustic_Folk_Guitar_1,6,4,_DL_Japanese_Folk_Pop_Acoustic_Folk_Guitar_1,0.12181084603071213,0
56,100,0.22272727272727272,550,0,70,_DL_Japanese_Folk_Pop_Acoustic_Folk_Guitar_1,6,4,_DL_Japanese_Folk_Pop_Acoustic_Folk_Guitar_1,0.1330815702676773,0
56,100,0.17727272727272728,687,0,70,_DL_Japanese_Folk_Pop_Acoustic_Folk_Guitar_1,6,3,_DL_Japanese_Folk_Pop_Acoustic_Folk_Guitar_1,0.14098848402500153,0
68,100,0.20454545454545456,799,0,70,_DL_Japanese_Folk_Pop_Acoustic_Folk_Guitar_1,6,3,_DL_Japanese_Folk_Pop_Acoustic_Folk_Guitar_1,0.1275070458650589,0
57,100,0.2,63,1,71,_DL_Japanese_Folk_Pop_Acoustic_Folk_Guitar_1,6,3,_DL_Japanese_Folk_Pop_Acoustic_Folk_Guitar_1,0.9997040629386902,1
61,100,0.13636363636363635,155,0,71,_DL_Japanese_Folk_Pop_Acoustic_Folk_Guitar_1,6,2,_DL_Japanese_Folk_Pop_Acoustic_Folk_Guitar_1,0.05938006937503815,0
57,100,0.33636363636363636,194,0,71,_DL_Japanese_Folk_Pop_Acoustic_Folk_Guitar_1,6,5,_DL_Japanese_Folk_Pop_Acoustic_Folk_Guitar_1,0.0464860275387764,0
61,100,0.33181818181818185,284,0,71,_DL_Japanese_Folk_Pop_Acoustic_Folk_Guitar_1,6,5,_DL_Japanese_Folk_Pop_Acoustic_Folk_Guitar_1,0.04850735887885094,0
57,100,0.35909090909090907,361,0,71,_DL_Japanese_Folk_Pop_Acoustic_Folk_Guitar_1,6,6,_DL_Japanese_Folk_Pop_Acoustic_Folk_Guitar_1,0.05060108006000519,0
61,100,0.2681818181818182,469,0,71,_DL_Japanese_Folk_Pop_Acoustic_Folk_Guitar_1,6,4,_DL_Japanese_Folk_Pop_Acoustic_Folk_Guitar_1,0.06225307658314705,0
59,100,0.11363636363636363,577,0,71,_DL_Japanese_Folk_Pop_Acoustic_Folk_Guitar_1,6,2,_DL_Japanese_Folk_Pop_Acoustic_Folk_Guitar_1,0.06925230473279953,0
61,100,0.17727272727272728,849,1,71,_DL_Japanese_Folk_Pop_Acoustic_Folk_Guitar_1,6,3,_DL_Japanese_Folk_Pop_Acoustic_Folk_Guitar_1,0.06097482517361641,0
61,100,0.7818181818181819,145,1,72,_DL_Japanese_Folk_Pop_Acoustic_Folk_Guitar_1,6,13,_DL_Japanese_Folk_Pop_Acoustic_Folk_Guitar_1,0.9995738863945007,1
59,100,0.1318181818181818,617,1,72,_DL_Japanese_Folk_Pop_Acoustic_Folk_Guitar_1,6,2,_DL_Japanese_Folk_Pop_Acoustic_Folk_Guitar_1,0.5661994218826294,0
56,100,0.22272727272727272,168,1,73,_DL_Japanese_Folk_Pop_Acoustic_Folk_Guitar_1,6,4,_DL_Japanese_Folk_Pop_Acoustic_Folk_Guitar_1,0.9997664093971252,1
64,100,0.1590909090909091,305,0,73,_DL_Japanese_Folk_Pop_Acoustic_Folk_Guitar_1,6,3,_DL_Japanese_Folk_Pop_Acoustic_Folk_Guitar_1,0.08226998150348663,0
59,100,0.40454545454545454,365,0,73,_DL_Japanese_Folk_Pop_Acoustic_Folk_Guitar_1,6,6,_DL_Japanese_Folk_Pop_Acoustic_Folk_Guitar_1,0.07009302079677582,0
52,100,0.2,482,0,73,_DL_Japanese_Folk_Pop_Acoustic_Folk_Guitar_1,6,3,_DL_Japanese_Folk_Pop_Acoustic_Folk_Guitar_1,0.08426301926374435,0
57,100,0.42272727272727273,577,0,73,_DL_Japanese_Folk_Pop_Acoustic_Folk_Guitar_1,6,7,_DL_Japanese_Folk_Pop_Acoustic_Folk_Guitar_1,0.08440685272216797,0
61,100,0.8272727272727273,688,0,73,_DL_Japanese_Folk_Pop_Acoustic_Folk_Guitar_1,6,13,_DL_Japanese_Folk_Pop_Acoustic_Folk_Guitar_1,0.09174355119466782,0
57,100,0.24545454545454545,870,0,73,_DL_Japanese_Folk_Pop_Acoustic_Folk_Guitar_1,6,4,_DL_Japanese_Folk_Pop_Acoustic_Folk_Guitar_1,0.09417177736759186,0
61,100,0.2681818181818182,59,1,74,_DL_Japanese_Folk_Pop_Acoustic_Folk_Guitar_1,6,4,_DL_Japanese_Folk_Pop_Acoustic_Folk_Guitar_1,0.9997538924217224,1
57,100,0.13636363636363635,157,0,74,_DL_Japanese_Folk_Pop_Acoustic_Folk_Guitar_1,6,2,_DL_Japanese_Folk_Pop_Acoustic_Folk_Guitar_1,0.08201298862695694,0
57,100,0.1318181818181818,403,1,74,_DL_Japanese_Folk_Pop_Acoustic_Folk_Guitar_1,6,2,_DL_Japanese_Folk_Pop_Acoustic_Folk_Guitar_1,0.07367446273565292,0
61,100,0.6272727272727273,471,0,74,_DL_Japanese_Folk_Pop_Acoustic_Folk_Guitar_1,6,10,_DL_Japanese_Folk_Pop_Acoustic_Folk_Guitar_1,0.07462562620639801,0
61,100,0.1318181818181818,659,0,74,_DL_Japanese_Folk_Pop_Acoustic_Folk_Guitar_1,6,2,_DL_Japanese_Folk_Pop_Acoustic_Folk_Guitar_1,0.0995350256562233,0
61,100,0.11363636363636363,702,0,74,_DL_Japanese_Folk_Pop_Acoustic_Folk_Guitar_1,6,2,_DL_Japanese_Folk_Pop_Acoustic_Folk_Guitar_1,0.10041308403015137,0
61,100,0.31363636363636366,742,0,74,_DL_Japanese_Folk_Pop_Acoustic_Folk_Guitar_1,6,5,_DL_Japanese_Folk_Pop_Acoustic_Folk_Guitar_1,0.08732493966817856,0
69,100,0.18181818181818182,206,1,75,_DL_Japanese_Folk_Pop_Acoustic_Folk_Guitar_1,6,3,_DL_Japanese_Folk_Pop_Acoustic_Folk_Guitar_1,0.9998515844345093,1
62,100,0.1318181818181818,333,0,75,_DL_Japanese_Folk_Pop_Acoustic_Folk_Guitar_1,6,2,_DL_Japanese_Folk_Pop_Acoustic_Folk_Guitar_1,0.3211445212364197,0
59,100,0.65,652,1,75,_DL_Japanese_Folk_Pop_Acoustic_Folk_Guitar_1,6,10,_DL_Japanese_Folk_Pop_Acoustic_Folk_Guitar_1,0.2767844796180725,0
59,100,0.2909090909090909,799,0,75,_DL_Japanese_Folk_Pop_Acoustic_Folk_Guitar_1,6,5,_DL_Japanese_Folk_Pop_Acoustic_Folk_Guitar_1,0.31969040632247925,0
59,100,0.2681818181818182,484,1,76,_DL_Japanese_Folk_Pop_Acoustic_Folk_Guitar_1,6,4,_DL_Japanese_Folk_Pop_Acoustic_Folk_Guitar_1,0.9998511075973511,1
61,100,0.2681818181818182,559,0,76,_DL_Japanese_Folk_Pop_Acoustic_Folk_Guitar_1,6,4,_DL_Japanese_Folk_Pop_Acoustic_Folk_Guitar_1,0.3163926899433136,0
61,100,0.15454545454545454,661,0,76,_DL_Japanese_Folk_Pop_Acoustic_Folk_Guitar_1,6,2,_DL_Japanese_Folk_Pop_Acoustic_Folk_Guitar_1,0.3055689036846161,0
57,100,0.4909090909090909,741,0,76,_DL_Japanese_Folk_Pop_Acoustic_Folk_Guitar_1,6,8,_DL_Japanese_Folk_Pop_Acoustic_Folk_Guitar_1,0.29603174328804016,0
64,100,0.13636363636363635,425,1,77,_DL_Japanese_Folk_Pop_Acoustic_Folk_Guitar_1,6,2,_DL_Japanese_Folk_Pop_Acoustic_Folk_Guitar_1,0.9996626377105713,1
57,100,0.5136363636363637,671,1,77,_DL_Japanese_Folk_Pop_Acoustic_Folk_Guitar_1,6,8,_DL_Japanese_Folk_Pop_Acoustic_Folk_Guitar_1,0.5306315422058105,0
57,100,0.24545454545454545,76,1,78,_DL_Japanese_Folk_Pop_Acoustic_Folk_Guitar_1,6,4,_DL_Japanese_Folk_Pop_Acoustic_Folk_Guitar_1,0.9998490810394287,1
64,100,0.10909090909090909,345,1,78,_DL_Japanese_Folk_Pop_Acoustic_Folk_Guitar_1,6,2,_DL_Japanese_Folk_Pop_Acoustic_Folk_Guitar_1,0.34203091263771057,0
64,100,0.35454545454545455,577,1,78,_DL_Japanese_Folk_Pop_Acoustic_Folk_Guitar_1,6,6,_DL_Japanese_Folk_Pop_Acoustic_Folk_Guitar_1,0.2922166883945465,0
57,100,0.8045454545454546,670,0,78,_DL_Japanese_Folk_Pop_Acoustic_Folk_Guitar_1,6,13,_DL_Japanese_Folk_Pop_Acoustic_Folk_Guitar_1,0.28882455825805664,0
61,100,0.2,69,1,79,_DL_Japanese_Folk_Pop_Acoustic_Folk_Guitar_1,6,3,_DL_Japanese_Folk_Pop_Acoustic_Folk_Guitar_1,0.9997618794441223,1
61,100,0.2,134,0,79,_DL_Japanese_Folk_Pop_Acoustic_Folk_Guitar_1,6,3,_DL_Japanese_Folk_Pop_Acoustic_Folk_Guitar_1,0.07987816631793976,0
61,100,0.2909090909090909,196,0,79,_DL_Japanese_Folk_Pop_Acoustic_Folk_Guitar_1,6,5,_DL_Japanese_Folk_Pop_Acoustic_Folk_Guitar_1,0.0743681937456131,0
57,100,0.2681818181818182,394,0,79,_DL_Japanese_Folk_Pop_Acoustic_Folk_Guitar_1,6,4,_DL_Japanese_Folk_Pop_Acoustic_Folk_Guitar_1,0.07875799387693405,0
57,100,0.44545454545454544,507,0,79,_DL_Japanese_Folk_Pop_Acoustic_Folk_Guitar_1,6,7,_DL_Japanese_Folk_Pop_Acoustic_Folk_Guitar_1,0.09179907292127609,0
61,100,0.9136363636363637,619,0,79,_DL_Japanese_Folk_Pop_Acoustic_Folk_Guitar_1,6,15,_DL_Japanese_Folk_Pop_Acoustic_Folk_Guitar_1,0.0926835685968399,0
57,100,0.15454545454545454,830,0,79,_DL_Japanese_Folk_Pop_Acoustic_Folk_Guitar_1,6,2,_DL_Japanese_Folk_Pop_Acoustic_Folk_Guitar_1,0.09721578657627106,0
62,100,0.1318181818181818,14,1,80,_DL_Japanese_Folk_Pop_Acoustic_Folk_Guitar_1,6,2,_DL_Japanese_Folk_Pop_Acoustic_Folk_Guitar_1,0.9998546838760376,1
57,100,0.37727272727272726,343,1,80,_DL_Japanese_Folk_Pop_Acoustic_Folk_Guitar_1,6,6,_DL_Japanese_Folk_Pop_Acoustic_Folk_Guitar_1,0.3040187656879425,0
62,100,0.5818181818181818,441,0,80,_DL_Japanese_Folk_Pop_Acoustic_Folk_Guitar_1,6,9,_DL_Japanese_Folk_Pop_Acoustic_Folk_Guitar_1,0.2962022125720978,0
59,100,0.2681818181818182,829,1,80,_DL_Japanese_Folk_Pop_Acoustic_Folk_Guitar_1,6,4,_DL_Japanese_Folk_Pop_Acoustic_Folk_Guitar_1,0.31023716926574707,0
64,100,0.2681818181818182,161,1,81,_DL_Japanese_Folk_Pop_Acoustic_Folk_Guitar_1,6,4,_DL_Japanese_Folk_Pop_Acoustic_Folk_Guitar_1,0.9996551275253296,1
64,100,0.17727272727272728,618,1,81,_DL_Japanese_Folk_Pop_Acoustic_Folk_Guitar_1,6,3,_DL_Japanese_Folk_Pop_Acoustic_Folk_Guitar_1,0.5479324460029602,0
61,100,0.5363636363636364,179,1,82,_DL_Japanese_Folk_Pop_Acoustic_Folk_Guitar_1,6,9,_DL_Japanese_Folk_Pop_Acoustic_Folk_Guitar_1,0.9998237490653992,1
61,100,0.10909090909090909,342,0,82,_DL_Japanese_Folk_Pop_Acoustic_Folk_Guitar_1,6,2,_DL_Japanese_Folk_Pop_Acoustic_Folk_Guitar_1,0.22460195422172546,0
61,100,0.85,371,0,82,_DL_Japanese_Folk_Pop_Acoustic_Folk_Guitar_1,6,14,_DL_Japanese_Folk_Pop_Acoustic_Folk_Guitar_1,0.18696348369121552,0
66,100,0.8909090909090909,602,1,82,_DL_Japanese_Folk_Pop_Acoustic_Folk_Guitar_1,6,14,_DL_Japanese_Folk_Pop_Acoustic_Folk_Guitar_1,0.21724005043506622,0
57,100,0.7181818181818181,802,0,82,_DL_Japanese_Folk_Pop_Acoustic_Folk_Guitar_1,6,11,_DL_Japanese_Folk_Pop_Acoustic_Folk_Guitar_1,0.2206098884344101,0
59,100,0.31363636363636366,272,1,83,_DL_Japanese_Folk_Pop_Acoustic_Folk_Guitar_1,6,5,_DL_Japanese_Folk_Pop_Acoustic_Folk_Guitar_1,0.9997624754905701,1
59,100,0.11363636363636363,487,0,83,_DL_Japanese_Folk_Pop_Acoustic_Folk_Guitar_1,6,2,_DL_Japanese_Folk_Pop_Acoustic_Folk_Guitar_1,0.08276153355836868,0
64,100,0.11363636363636363,547,0,83,_DL_Japanese_Folk_Pop_Acoustic_Folk_Guitar_1,6,2,_DL_Japanese_Folk_Pop_Acoustic_Folk_Guitar_1,0.07487165927886963,0
59,100,0.10909090909090909,626,0,83,_DL_Japanese_Folk_Pop_Acoustic_Folk_Guitar_1,6,2,_DL_Japanese_Folk_Pop_Acoustic_Folk_Guitar_1,0.07714381814002991,0
61,100,0.11363636363636363,655,0,83,_DL_Japanese_Folk_Pop_Acoustic_Folk_Guitar_1,6,2,_DL_Japanese_Folk_Pop_Acoustic_Folk_Guitar_1,0.08892674744129181,0
64,100,0.5363636363636364,714,0,83,_DL_Japanese_Folk_Pop_Acoustic_Folk_Guitar_1,6,9,_DL_Japanese_Folk_Pop_Acoustic_Folk_Guitar_1,0.09264921396970749,0
53,100,0.1318181818181818,837,0,83,_DL_Japanese_Folk_Pop_Acoustic_Folk_Guitar_1,6,2,_DL_Japanese_Folk_Pop_Acoustic_Folk_Guitar_1,0.089455746114254,0
61,100,0.18181818181818182,35,1,84,_DL_Japanese_Folk_Pop_Acoustic_Folk_Guitar_1,6,3,_DL_Japanese_Folk_Pop_Acoustic_Folk_Guitar_1,0.9997712969779968,1
61,100,0.38181818181818183,88,0,84,_DL_Japanese_Folk_Pop_Acoustic_Folk_Guitar_1,6,6,_DL_Japanese_Folk_Pop_Acoustic_Folk_Guitar_1,0.07654169201850891,0
57,100,0.2909090909090909,178,0,84,_DL_Japanese_Folk_Pop_Acoustic_Folk_Guitar_1,6,5,_DL_Japanese_Folk_Pop_Acoustic_Folk_Guitar_1,0.07492220401763916,0
61,100,0.2681818181818182,310,0,84,_DL_Japanese_Folk_Pop_Acoustic_Folk_Guitar_1,6,4,_DL_Japanese_Folk_Pop_Acoustic_Folk_Guitar_1,0.0846996158361435,0
61,100,0.65,379,0,84,_DL_Japanese_Folk_Pop_Acoustic_Folk_Guitar_1,6,10,_DL_Japanese_Folk_Pop_Acoustic_Folk_Guitar_1,0.08837489038705826,0
54,100,0.5818181818181818,546,0,84,_DL_Japanese_Folk_Pop_Acoustic_Folk_Guitar_1,6,9,_DL_Japanese_Folk_Pop_Acoustic_Folk_Guitar_1,0.10360907018184662,0
61,100,0.8272727272727273,702,0,84,_DL_Japanese_Folk_Pop_Acoustic_Folk_Guitar_1,6,13,_DL_Japanese_Folk_Pop_Acoustic_Folk_Guitar_1,0.09144598245620728,0
62,100,0.31363636363636366,82,1,85,_DL_Japanese_Folk_Pop_Acoustic_Folk_Guitar_1,6,5,_DL_Japanese_Folk_Pop_Acoustic_Folk_Guitar_1,0.9997711777687073,1
59,100,0.24545454545454545,210,0,85,_DL_Japanese_Folk_Pop_Acoustic_Folk_Guitar_1,6,4,_DL_Japanese_Folk_Pop_Acoustic_Folk_Guitar_1,0.07988541573286057,0
62,100,0.6681818181818182,275,0,85,_DL_Japanese_Folk_Pop_Acoustic_Folk_Guitar_1,6,11,_DL_Japanese_Folk_Pop_Acoustic_Folk_Guitar_1,0.06866388767957687,0
66,100,0.15454545454545454,604,1,85,_DL_Japanese_Folk_Pop_Acoustic_Folk_Guitar_1,6,2,_DL_Japanese_Folk_Pop_Acoustic_Folk_Guitar_1,0.08355038613080978,0
66,100,0.22272727272727272,643,0,85,_DL_Japanese_Folk_Pop_Acoustic_Folk_Guitar_1,6,4,_DL_Japanese_Folk_Pop_Acoustic_Folk_Guitar_1,0.08977431803941727,0
59,100,0.10909090909090909,781,0,85,_DL_Japanese_Folk_Pop_Acoustic_Folk_Guitar_1,6,2,_DL_Japanese_Folk_Pop_Acoustic_Folk_Guitar_1,0.09845909476280212,0
52,100,0.42272727272727273,850,0,85,_DL_Japanese_Folk_Pop_Acoustic_Folk_Guitar_1,6,7,_DL_Japanese_Folk_Pop_Acoustic_Folk_Guitar_1,0.08923039585351944,0
59,100,0.2636363636363636,191,1,86,_DL_Japanese_Folk_Pop_Acoustic_Folk_Guitar_1,6,4,_DL_Japanese_Folk_Pop_Acoustic_Folk_Guitar_1,0.9998311996459961,1
52,100,0.6045454545454545,278,0,86,_DL_Japanese_Folk_Pop_Acoustic_Folk_Guitar_1,6,10,_DL_Japanese_Folk_Pop_Acoustic_Folk_Guitar_1,0.2010353058576584,0
61,100,0.740909090909091,523,1,86,_DL_Japanese_Folk_Pop_Acoustic_Folk_Guitar_1,6,12,_DL_Japanese_Folk_Pop_Acoustic_Folk_Guitar_1,0.19333191215991974,0
61,100,0.1318181818181818,789,1,86,_DL_Japanese_Folk_Pop_Acoustic_Folk_Guitar_1,6,2,_DL_Japanese_Folk_Pop_Acoustic_Folk_Guitar_1,0.23073872923851013,0
61,100,0.7818181818181819,843,0,86,_DL_Japanese_Folk_Pop_Acoustic_Folk_Guitar_1,6,13,_DL_Japanese_Folk_Pop_Acoustic_Folk_Guitar_1,0.20189201831817627,0
61,100,0.17727272727272728,190,1,87,_DL_Japanese_Folk_Pop_Acoustic_Folk_Guitar_1,6,3,_DL_Japanese_Folk_Pop_Acoustic_Folk_Guitar_1,0.9998387098312378,1
61,100,0.10909090909090909,233,0,87,_DL_Japanese_Folk_Pop_Acoustic_Folk_Guitar_1,6,2,_DL_Japanese_Folk_Pop_Acoustic_Folk_Guitar_1,0.20155686140060425,0
61,100,0.6909090909090909,292,0,87,_DL_Japanese_Folk_Pop_Acoustic_Folk_Guitar_1,6,11,_DL_Japanese_Folk_Pop_Acoustic_Folk_Guitar_1,0.18629348278045654,0
57,100,0.2681818181818182,489,0,87,_DL_Japanese_Folk_Pop_Acoustic_Folk_Guitar_1,6,4,_DL_Japanese_Folk_Pop_Acoustic_Folk_Guitar_1,0.214863121509552,0
69,100,0.15454545454545454,548,0,87,_DL_Japanese_Folk_Pop_Acoustic_Folk_Guitar_1,6,2,_DL_Japanese_Folk_Pop_Acoustic_Folk_Guitar_1,0.21113350987434387,0
57,100,0.17727272727272728,492,1,0,DL_Guitar,6,3,DL_Guitar,0.9931262731552124,0
69,100,0.33636363636363636,39,1,1,DL_Guitar,6,5,DL_Guitar,0.9997922778129578,1
52,100,0.7,166,0,1,DL_Guitar,6,11,DL_Guitar,0.1285792589187622,0
52,100,0.1,351,0,1,DL_Guitar,6,2,DL_Guitar,0.1305968165397644,0
59,100,0.1409090909090909,449,0,1,DL_Guitar,6,2,DL_Guitar,0.1352781504392624,0
52,100,0.11818181818181818,638,0,1,DL_Guitar,6,2,DL_Guitar,0.1508890986442566,0
54,100,0.4409090909090909,796,0,1,DL_Guitar,6,7,DL_Guitar,0.12687835097312927,0
59,100,0.2,12,1,2,DL_Guitar,6,3,DL_Guitar,0.9998281002044678,1
54,100,0.3409090909090909,421,1,2,DL_Guitar,6,5,DL_Guitar,0.41294175386428833,0
57,100,0.33636363636363636,501,0,2,DL_Guitar,6,5,DL_Guitar,0.4254588186740875,0
57,100,0.1409090909090909,70,1,3,DL_Guitar,6,2,DL_Guitar,0.9998489618301392,1
69,100,0.2772727272727273,295,0,3,DL_Guitar,6,4,DL_Guitar,0.31228891015052795,0
59,100,0.3,550,1,3,DL_Guitar,6,5,DL_Guitar,0.29776889085769653,0
64,100,0.2818181818181818,629,0,3,DL_Guitar,6,5,DL_Guitar,0.3118912875652313,0
61,100,0.2590909090909091,255,1,4,DL_Guitar,6,4,DL_Guitar,0.9996323585510254,1
64,100,0.3,871,1,4,DL_Guitar,6,5,DL_Guitar,0.5530964732170105,0
52,100,0.3,56,1,5,DL_Guitar,6,5,DL_Guitar,0.9998592138290405,1
69,100,0.11818181818181818,514,1,5,DL_Guitar,6,2,DL_Guitar,0.30836614966392517,0
52,100,0.5772727272727273,678,0,5,DL_Guitar,6,9,DL_Guitar,0.2850421667098999,0
52,100,0.2636363636363636,862,0,5,DL_Guitar,6,4,DL_Guitar,0.31180277466773987,0
64,100,0.1,79,1,6,DL_Guitar,6,2,DL_Guitar,0.9998581409454346,1
52,100,0.8,105,0,6,DL_Guitar,6,13,DL_Guitar,0.2907165586948395,0
54,100,0.43636363636363634,414,1,6,DL_Guitar,6,7,DL_Guitar,0.2985842823982239,0
59,100,0.2409090909090909,514,0,6,DL_Guitar,6,4,DL_Guitar,0.3118429183959961,0
54,100,0.1409090909090909,87,1,7,DL_Guitar,6,2,DL_Guitar,0.9998304843902588,1
57,100,0.32272727272727275,122,0,7,DL_Guitar,6,5,DL_Guitar,0.40406033396720886,0
54,100,0.1409090909090909,317,0,7,DL_Guitar,6,2,DL_Guitar,0.42856770753860474,0
59,100,0.1,34,1,8,DL_Guitar,6,2,DL_Guitar,0.9997689127922058,1
52,100,0.1,127,0,8,DL_Guitar,6,2,DL_Guitar,0.07985062152147293,0
59,100,0.37727272727272726,347,0,8,DL_Guitar,6,6,DL_Guitar,0.07051268219947815,0
54,100,0.3409090909090909,448,0,8,DL_Guitar,6,5,DL_Guitar,0.07957637310028076,0
52,100,0.38181818181818183,673,0,8,DL_Guitar,6,6,DL_Guitar,0.09211529046297073,0
57,100,0.3,766,0,8,DL_Guitar,6,5,DL_Guitar,0.09348923712968826,0
52,100,0.1,840,0,8,DL_Guitar,6,2,DL_Guitar,0.09178613126277924,0
57,100,0.21818181818181817,0,1,9,DL_Guitar,6,3,DL_Guitar,0.9997580647468567,1
61,100,0.23636363636363636,106,0,9,DL_Guitar,6,4,DL_Guitar,0.0819203108549118,0
57,100,0.2590909090909091,163,0,9,DL_Guitar,6,4,DL_Guitar,0.07147655636072159,0
61,100,0.2772727272727273,405,1,9,DL_Guitar,6,4,DL_Guitar,0.08243709057569504,0
57,100,0.11818181818181818,484,0,9,DL_Guitar,6,2,DL_Guitar,0.0889337807893753,0
57,100,0.1409090909090909,515,0,9,DL_Guitar,6,2,DL_Guitar,0.0951046496629715,0
52,100,0.23636363636363636,809,1,9,DL_Guitar,6,4,DL_Guitar,0.08768587559461594,0
52,100,0.2409090909090909,113,1,10,DL_Guitar,6,4,DL_Guitar,0.9997817873954773,1
52,100,0.2409090909090909,299,0,10,DL_Guitar,6,4,DL_Guitar,0.07828479260206223,0
64,100,0.1,400,0,10,DL_Guitar,6,2,DL_Guitar,0.0731344148516655,0
59,100,0.32272727272727275,431,0,10,DL_Guitar,6,5,DL_Guitar,0.0746200829744339,0
52,100,0.1590909090909091,611,0,10,DL_Guitar,6,3,DL_Guitar,0.08858243376016617,0
52,100,0.43636363636363634,656,0,10,DL_Guitar,6,7,DL_Guitar,0.09160672128200531,0
52,100,0.4409090909090909,795,0,10,DL_Guitar,6,7,DL_Guitar,0.08351214230060577,0
52,100,0.11818181818181818,264,1,11,DL_Guitar,6,2,DL_Guitar,0.9936309456825256,0
66,100,0.17727272727272728,185,1,12,DL_Guitar,6,3,DL_Guitar,0.9998382329940796,1
52,100,0.1,572,1,12,DL_Guitar,6,2,DL_Guitar,0.4165319502353668,0
68,100,0.2590909090909091,756,0,12,DL_Guitar,6,4,DL_Guitar,0.41870322823524475,0
54,100,0.2590909090909091,189,1,13,DL_Guitar,6,4,DL_Guitar,0.9996370077133179,1
54,100,0.1,691,1,13,DL_Guitar,6,2,DL_Guitar,0.5517067313194275,0
64,100,0.11818181818181818,457,1,14,DL_Guitar,6,2,DL_Guitar,0.9998496770858765,1
71,100,0.18181818181818182,496,0,14,DL_Guitar,6,3,DL_Guitar,0.19913800060749054,0
72,100,0.16363636363636364,553,0,14,DL_Guitar,6,3,DL_Guitar,0.1948978453874588,0
68,100,0.11818181818181818,625,0,14,DL_Guitar,6,2,DL_Guitar,0.20576216280460358,0
64,100,0.2590909090909091,871,1,14,DL_Guitar,6,4,DL_Guitar,0.19855783879756927,0
54,100,0.1,694,1,15,DL_Guitar,6,2,DL_Guitar,0.9996451139450073,1
55,100,0.1,747,0,15,DL_Guitar,6,2,DL_Guitar,0.543136715888977,0
52,100,0.2,52,1,16,DL_Guitar,6,3,DL_Guitar,0.9998399019241333,1
52,100,0.35909090909090907,100,0,16,DL_Guitar,6,6,DL_Guitar,0.4060843884944916,0
52,100,0.1409090909090909,638,1,16,DL_Guitar,6,2,DL_Guitar,0.42547935247421265,0
52,100,0.2,193,1,17,DL_Guitar,6,3,DL_Guitar,0.9998397827148438,1
52,100,0.2409090909090909,250,0,17,DL_Guitar,6,4,DL_Guitar,0.4114251732826233,0
55,100,0.16363636363636364,443,0,17,DL_Guitar,6,3,DL_Guitar,0.4161529541015625,0
55,100,0.1,492,1,18,DL_Guitar,6,2,DL_Guitar,0.9931640028953552,0
57,100,0.2590909090909091,430,1,19,DL_Guitar,6,4,DL_Guitar,0.999854564666748,1
52,100,0.2636363636363636,488,0,19,DL_Guitar,6,4,DL_Guitar,0.3357895016670227,0
64,100,0.1,677,0,19,DL_Guitar,6,2,DL_Guitar,0.2899185121059418,0
64,100,0.2,704,0,19,DL_Guitar,6,3,DL_Guitar,0.2944360375404358,0
54,100,1.0818181818181818,57,1,20,DL_Guitar,6,15,DL_Guitar,0.9997976422309875,1
54,100,0.17727272727272728,382,1,20,DL_Guitar,6,3,DL_Guitar,0.25444453954696655,0
54,100,0.1409090909090909,426,0,20,DL_Guitar,6,2,DL_Guitar,0.20372667908668518,0
57,100,0.2636363636363636,686,1,20,DL_Guitar,6,4,DL_Guitar,0.20401418209075928,0
57,100,0.18181818181818182,760,0,20,DL_Guitar,6,3,DL_Guitar,0.21094997227191925,0
57,100,0.23636363636363636,106,1,21,DL_Guitar,6,4,DL_Guitar,0.9998325109481812,1
57,100,0.1,179,0,21,DL_Guitar,6,2,DL_Guitar,0.20982128381729126,0
57,100,0.38181818181818183,285,0,21,DL_Guitar,6,6,DL_Guitar,0.18691007792949677,0
61,100,0.21818181818181817,505,0,21,DL_Guitar,6,3,DL_Guitar,0.22076162695884705,0
57,100,0.11818181818181818,590,0,21,DL_Guitar,6,2,DL_Guitar,0.20595434308052063,0
54,100,1.0772727272727274,326,1,22,DL_Guitar,6,15,DL_Guitar,0.9997885823249817,1
54,100,0.2818181818181818,694,1,22,DL_Guitar,6,5,DL_Guitar,0.46340540051460266,0
62,100,0.1409090909090909,791,0,22,DL_Guitar,6,2,DL_Guitar,0.43693599104881287,0
57,100,0.1,206,1,23,DL_Guitar,6,2,DL_Guitar,0.9998393058776855,1
57,100,0.35909090909090907,299,0,23,DL_Guitar,6,6,DL_Guitar,0.1994701772928238,0
57,100,0.1590909090909091,382,0,23,DL_Guitar,6,3,DL_Guitar,0.20176032185554504,0
52,100,0.6,546,0,23,DL_Guitar,6,10,DL_Guitar,0.20071616768836975,0
52,100,0.12272727272727273,717,0,23,DL_Guitar,6,2,DL_Guitar,0.2118261754512787,0
64,100,0.1409090909090909,9,1,24,DL_Guitar,6,2,DL_Guitar,0.9997407793998718,1
54,100,0.4,48,0,24,DL_Guitar,6,6,DL_Guitar,0.05373334512114525,0
54,100,0.2409090909090909,189,0,24,DL_Guitar,6,4,DL_Guitar,0.04842959716916084,0
52,100,0.2590909090909091,308,0,24,DL_Guitar,6,4,DL_Guitar,0.04889053851366043,0
68,100,0.1590909090909091,461,0,24,DL_Guitar,6,3,DL_Guitar,0.052247121930122375,0
54,100,0.1409090909090909,515,0,24,DL_Guitar,6,2,DL_Guitar,0.059917889535427094,0
54,100,0.7772727272727272,567,0,24,DL_Guitar,6,12,DL_Guitar,0.06048073247075081,0
54,100,0.21818181818181817,748,0,24,DL_Guitar,6,3,DL_Guitar,0.06630077213048935,0
54,100,0.11818181818181818,52,1,25,DL_Guitar,6,2,DL_Guitar,0.9998050332069397,1
54,100,0.11818181818181818,131,0,25,DL_Guitar,6,2,DL_Guitar,0.12594980001449585,0
62,100,0.2409090909090909,316,0,25,DL_Guitar,6,4,DL_Guitar,0.11920199543237686,0
62,100,0.2818181818181818,374,0,25,DL_Guitar,6,5,DL_Guitar,0.13226105272769928,0
57,100,0.11818181818181818,677,1,25,DL_Guitar,6,2,DL_Guitar,0.14533798396587372,0
61,100,0.1409090909090909,818,0,25,DL_Guitar,6,2,DL_Guitar,0.13248342275619507,0
57,100,0.5363636363636364,61,1,26,DL_Guitar,6,9,DL_Guitar,0.9998353719711304,1
52,100,0.35909090909090907,409,1,26,DL_Guitar,6,6,DL_Guitar,0.35121673345565796,0
52,100,0.1590909090909091,515,0,26,DL_Guitar,6,3,DL_Guitar,0.29527559876441956,0
52,100,0.5227272727272727,686,0,26,DL_Guitar,6,8,DL_Guitar,0.3008112907409668,0
54,100,0.1409090909090909,57,1,27,DL_Guitar,6,2,DL_Guitar,0.9998486042022705,1
62,100,0.1409090909090909,625,1,27,DL_Guitar,6,2,DL_Guitar,0.34271326661109924,0
62,100,0.12272727272727273,739,0,27,DL_Guitar,6,2,DL_Guitar,0.29474112391471863,0
57,100,0.2590909090909091,814,0,27,DL_Guitar,6,4,DL_Guitar,0.2946253716945648,0
52,100,0.8,52,1,28,DL_Guitar,6,13,DL_Guitar,0.9998133778572083,1
52,100,0.42272727272727273,443,1,28,DL_Guitar,6,7,DL_Guitar,0.44043347239494324,0
52,100,0.5409090909090909,686,1,28,DL_Guitar,6,9,DL_Guitar,0.4237132966518402,0
52,100,0.3,13,1,29,DL_Guitar,6,5,DL_Guitar,0.9998406171798706,1
52,100,0.1590909090909091,83,0,29,DL_Guitar,6,3,DL_Guitar,0.40889793634414673,0
64,100,0.2,119,0,29,DL_Guitar,6,3,DL_Guitar,0.4222284257411957,0
57,100,0.4818181818181818,320,1,30,DL_Guitar,6,8,DL_Guitar,0.9997501969337463,1
57,100,0.38181818181818183,440,0,30,DL_Guitar,6,6,DL_Guitar,0.08375508338212967,0
69,100,0.1409090909090909,694,1,30,DL_Guitar,6,2,DL_Guitar,0.0777229368686676,0
69,100,0.11818181818181818,735,0,30,DL_Guitar,6,2,DL_Guitar,0.08335649967193604,0
57,100,0.1590909090909091,770,0,30,DL_Guitar,6,3,DL_Guitar,0.0910540446639061,0
69,100,0.1,804,0,30,DL_Guitar,6,2,DL_Guitar,0.10068699717521667,0
57,100,0.8409090909090909,866,0,30,DL_Guitar,6,13,DL_Guitar,0.08276558667421341,0
57,100,0.5181818181818182,185,1,31,DL_Guitar,6,8,DL_Guitar,0.9997503161430359,1
57,100,0.5409090909090909,308,0,31,DL_Guitar,6,9,DL_Guitar,0.07678069919347763,0
52,100,0.18181818181818182,453,0,31,DL_Guitar,6,3,DL_Guitar,0.07980729639530182,0
52,100,0.13636363636363635,523,0,31,DL_Guitar,6,2,DL_Guitar,0.08006425946950912,0
59,100,0.35909090909090907,571,0,31,DL_Guitar,6,6,DL_Guitar,0.08341064304113388,0
59,100,0.2590909090909091,700,0,31,DL_Guitar,6,4,DL_Guitar,0.09934662282466888,0
52,100,0.1,822,0,31,DL_Guitar,6,2,DL_Guitar,0.09195646643638611,0
59,100,0.5,188,1,32,DL_Guitar,6,8,DL_Guitar,0.9997928738594055,1
54,100,0.1590909090909091,426,1,32,DL_Guitar,6,3,DL_Guitar,0.1429988294839859,0
54,100,0.2636363636363636,488,0,32,DL_Guitar,6,4,DL_Guitar,0.12318189442157745,0
59,100,0.1,593,0,32,DL_Guitar,6,2,DL_Guitar,0.13404960930347443,0
54,100,0.3409090909090909,691,0,32,DL_Guitar,6,5,DL_Guitar,0.14394205808639526,0
59,100,0.4772727272727273,831,0,32,DL_Guitar,6,8,DL_Guitar,0.12861858308315277,0
57,100,0.2409090909090909,118,1,33,DL_Guitar,6,4,DL_Guitar,0.9998300075531006,1
52,100,0.5181818181818182,308,0,33,DL_Guitar,6,8,DL_Guitar,0.2118111103773117,0
52,100,0.1590909090909091,453,0,33,DL_Guitar,6,3,DL_Guitar,0.20600168406963348,0
52,100,0.2,571,0,33,DL_Guitar,6,3,DL_Guitar,0.20385366678237915,0
69,100,0.12272727272727273,818,1,33,DL_Guitar,6,2,DL_Guitar,0.2010982185602188,0
69,100,0.2,69,1,34,DL_Guitar,6,3,DL_Guitar,0.9997984766960144,1
57,100,0.2,188,0,34,DL_Guitar,6,3,DL_Guitar,0.13297007977962494,0
57,100,0.22272727272727272,254,0,34,DL_Guitar,6,4,DL_Guitar,0.12596431374549866,0
52,100,0.2,480,0,34,DL_Guitar,6,3,DL_Guitar,0.1456398218870163,0
69,100,0.3,616,0,34,DL_Guitar,6,5,DL_Guitar,0.13752754032611847,0
57,100,1.0818181818181818,818,0,34,DL_Guitar,6,15,DL_Guitar,0.12675727903842926,0
57,100,0.5590909090909091,298,1,35,DL_Guitar,6,9,DL_Guitar,0.9998212456703186,1
52,100,0.3,488,0,35,DL_Guitar,6,5,DL_Guitar,0.23022598028182983,0
52,100,0.5772727272727273,558,0,35,DL_Guitar,6,9,DL_Guitar,0.1855347752571106,0
59,100,0.3181818181818182,735,0,35,DL_Guitar,6,5,DL_Guitar,0.2112625241279602,0
52,100,0.1409090909090909,826,0,35,DL_Guitar,6,2,DL_Guitar,0.20844373106956482,0
57,100,0.22272727272727272,4,1,36,DL_Guitar,6,4,DL_Guitar,0.9997143149375916,1
53,100,0.4818181818181818,66,0,36,DL_Guitar,6,8,DL_Guitar,0.05814439430832863,0
53,100,0.5409090909090909,179,0,36,DL_Guitar,6,9,DL_Guitar,0.04677034541964531,0
59,100,0.1590909090909091,325,0,36,DL_Guitar,6,3,DL_Guitar,0.05006144568324089,0
53,100,0.37727272727272726,435,0,36,DL_Guitar,6,6,DL_Guitar,0.05356878787279129,0
54,100,0.42272727272727273,554,0,36,DL_Guitar,6,7,DL_Guitar,0.06145762652158737,0
54,100,0.1409090909090909,813,1,36,DL_Guitar,6,2,DL_Guitar,0.0724085345864296,0
54,100,0.5409090909090909,871,0,36,DL_Guitar,6,9,DL_Guitar,0.060076646506786346,0
54,100,0.5409090909090909,179,1,37,DL_Guitar,6,9,DL_Guitar,0.9997928738594055,1
54,100,0.5,311,0,37,DL_Guitar,6,8,DL_Guitar,0.127799853682518,0
59,100,0.13636363636363635,523,0,37,DL_Guitar,6,2,DL_Guitar,0.12836283445358276,0
59,100,0.1409090909090909,584,0,37,DL_Guitar,6,2,DL_Guitar,0.13975128531455994,0
57,100,0.22272727272727272,628,0,37,DL_Guitar,6,4,DL_Guitar,0.1403188854455948,0
59,100,0.2,708,0,37,DL_Guitar,6,3,DL_Guitar,0.13932546973228455,0
59,100,0.2818181818181818,48,1,38,DL_Guitar,6,5,DL_Guitar,0.9998369216918945,1
59,100,0.2,198,0,38,DL_Guitar,6,3,DL_Guitar,0.21525652706623077,0
57,100,0.1590909090909091,260,0,38,DL_Guitar,6,3,DL_Guitar,0.19066357612609863,0
57,100,0.1590909090909091,571,1,38,DL_Guitar,6,3,DL_Guitar,0.209529846906662,0
69,100,0.3,606,0,38,DL_Guitar,6,5,DL_Guitar,0.2106494903564453,0
62,100,0.2,461,1,39,DL_Guitar,6,3,DL_Guitar,0.9996299743652344,1
57,100,0.5590909090909091,804,1,39,DL_Guitar,6,9,DL_Guitar,0.5377393364906311,0
52,100,0.8772727272727273,75,1,40,DL_Guitar,6,14,DL_Guitar,0.9998229146003723,1
52,100,0.13636363636363635,413,1,40,DL_Guitar,6,2,DL_Guitar,0.23366640508174896,0
52,100,0.17727272727272728,448,0,40,DL_Guitar,6,3,DL_Guitar,0.1970367133617401,0
65,100,0.2772727272727273,603,0,40,DL_Guitar,6,4,DL_Guitar,0.20192517340183258,0
53,100,0.6,681,0,40,DL_Guitar,6,10,DL_Guitar,0.20422151684761047,0
53,100,0.2636363636363636,48,1,41,DL_Guitar,6,4,DL_Guitar,0.9997368454933167,1
59,100,0.18181818181818182,224,0,41,DL_Guitar,6,3,DL_Guitar,0.05596664920449257,0
54,100,0.4772727272727273,316,0,41,DL_Guitar,6,8,DL_Guitar,0.04557229205965996,0
59,100,0.2590909090909091,435,0,41,DL_Guitar,6,4,DL_Guitar,0.049186836928129196,0
54,100,0.3,501,0,41,DL_Guitar,6,5,DL_Guitar,0.052833572030067444,0
54,100,0.2409090909090909,576,0,41,DL_Guitar,6,4,DL_Guitar,0.06078590080142021,0
54,100,0.2772727272727273,678,0,41,DL_Guitar,6,4,DL_Guitar,0.06675773113965988,0
54,100,0.4590909090909091,813,0,41,DL_Guitar,6,7,DL_Guitar,0.06285280734300613,0
59,100,0.2409090909090909,66,1,42,DL_Guitar,6,4,DL_Guitar,0.9997705817222595,1
62,100,0.2,128,0,42,DL_Guitar,6,3,DL_Guitar,0.0800933986902237,0
57,100,0.2,254,0,42,DL_Guitar,6,3,DL_Guitar,0.0719045028090477,0
52,100,0.4818181818181818,321,0,42,DL_Guitar,6,8,DL_Guitar,0.07862182706594467,0
59,100,0.2818181818181818,616,1,42,DL_Guitar,6,5,DL_Guitar,0.08800172805786133,0
52,100,0.16363636363636364,708,0,42,DL_Guitar,6,3,DL_Guitar,0.10211030393838882,0
52,100,0.11818181818181818,831,0,42,DL_Guitar,6,2,DL_Guitar,0.08347943425178528,0
57,100,0.2818181818181818,48,1,43,DL_Guitar,6,5,DL_Guitar,0.9998217225074768,1
69,100,0.3181818181818182,743,1,43,DL_Guitar,6,5,DL_Guitar,0.41141265630722046,0
57,100,0.5181818181818182,813,0,43,DL_Guitar,6,8,DL_Guitar,0.4282133877277374,0
64,100,0.1590909090909091,721,1,44,DL_Guitar,6,3,DL_Guitar,0.9998465776443481,1
64,100,0.35909090909090907,788,0,44,DL_Guitar,6,6,DL_Guitar,0.3917059898376465,0
64,100,0.32272727272727275,871,0,44,DL_Guitar,6,5,DL_Guitar,0.4241849184036255,0
53,100,0.12272727272727273,211,1,45,DL_Guitar,6,2,DL_Guitar,0.9998401403427124,1
65,100,0.18181818181818182,334,0,45,DL_Guitar,6,3,DL_Guitar,0.2136717438697815,0
54,100,0.36363636363636365,686,1,45,DL_Guitar,6,6,DL_Guitar,0.19264541566371918,0
54,100,0.23636363636363636,810,0,45,DL_Guitar,6,4,DL_Guitar,0.208101287484169,0
66,100,0.1409090909090909,866,0,45,DL_Guitar,6,2,DL_Guitar,0.20204392075538635,0
62,100,0.3181818181818182,668,1,46,DL_Guitar,6,5,DL_Guitar,0.9996341466903687,1
52,100,0.2818181818181818,826,0,46,DL_Guitar,6,5,DL_Guitar,0.5535104274749756,0
52,100,0.12272727272727273,13,1,47,DL_Guitar,6,2,DL_Guitar,0.9998615980148315,1
52,100,0.4409090909090909,43,0,47,DL_Guitar,6,7,DL_Guitar,0.31224358081817627,0
52,100,0.5818181818181818,179,0,47,DL_Guitar,6,9,DL_Guitar,0.28874149918556213,0
53,100,1.240909090909091,426,1,47,DL_Guitar,6,15,DL_Guitar,0.29498767852783203,0
54,100,0.42272727272727273,48,1,48,DL_Guitar,6,7,DL_Guitar,0.9998219609260559,1
61,100,0.2,163,0,48,DL_Guitar,6,3,DL_Guitar,0.4189111888408661,0
61,100,0.4818181818181818,440,1,48,DL_Guitar,6,8,DL_Guitar,0.42525994777679443,0
62,100,0.4,34,1,49,DL_Guitar,6,6,DL_Guitar,0.9998281002044678,1
52,100,1.3590909090909091,176,0,49,DL_Guitar,6,15,DL_Guitar,0.19351792335510254,0
52,100,0.2,480,1,49,DL_Guitar,6,3,DL_Guitar,0.24337345361709595,0
52,100,0.1590909090909091,638,0,49,DL_Guitar,6,3,DL_Guitar,0.22100184857845306,0
53,100,1.6363636363636365,678,0,49,DL_Guitar,6,15,DL_Guitar,0.18727053701877594,0
54,100,0.23636363636363636,303,1,50,DL_Guitar,6,4,DL_Guitar,0.9998286962509155,1
61,100,0.2409090909090909,440,0,50,DL_Guitar,6,4,DL_Guitar,0.21249961853027344,0
61,100,0.4818181818181818,571,0,50,DL_Guitar,6,8,DL_Guitar,0.187737375497818,0
61,100,0.3,691,0,50,DL_Guitar,6,5,DL_Guitar,0.2205704152584076,0
57,100,0.13636363636363635,788,0,50,DL_Guitar,6,2,DL_Guitar,0.20995324850082397,0
52,100,0.5,431,1,51,DL_Guitar,6,8,DL_Guitar,0.9998382329940796,1
52,100,0.1,545,0,51,DL_Guitar,6,2,DL_Guitar,0.4150010943412781,0
52,100,0.11818181818181818,691,0,51,DL_Guitar,6,2,DL_Guitar,0.42207932472229004,0
54,100,0.1590909090909091,0,1,52,DL_Guitar,6,3,DL_Guitar,0.9998064637184143,1
54,100,0.1,56,0,52,DL_Guitar,6,2,DL_Guitar,0.13541771471500397,0
61,100,0.7,91,0,52,DL_Guitar,6,11,DL_Guitar,0.11699461191892624,0
54,100,0.3,254,0,52,DL_Guitar,6,5,DL_Guitar,0.15247473120689392,0
54,100,0.1,325,0,52,DL_Guitar,6,2,DL_Guitar,0.15195304155349731,0
61,100,2.640909090909091,426,0,52,DL_Guitar,6,15,DL_Guitar,0.1204836517572403,0
57,100,1.440909090909091,158,1,53,DL_Guitar,6,15,DL_Guitar,0.9994269609451294,1
52,100,2.1,681,1,53,DL_Guitar,6,15,DL_Guitar,0.5622178316116333,0
52,100,0.11818181818181818,303,1,54,DL_Guitar,6,2,DL_Guitar,0.9934820532798767,0
57,100,0.18181818181818182,418,1,55,DL_Guitar,6,3,DL_Guitar,0.9998356103897095,1
57,100,0.1409090909090909,518,0,55,DL_Guitar,6,2,DL_Guitar,0.20866703987121582,0
57,100,0.37727272727272726,558,0,55,DL_Guitar,6,6,DL_Guitar,0.19139567017555237,0
57,100,0.21818181818181817,660,0,55,DL_Guitar,6,3,DL_Guitar,0.21839337050914764,0
57,100,0.38181818181818183,726,0,55,DL_Guitar,6,6,DL_Guitar,0.20289121568202972,0
57,100,0.2409090909090909,625,1,56,DL_Guitar,6,4,DL_Guitar,0.9996201992034912,1
57,100,0.4818181818181818,703,0,56,DL_Guitar,6,8,DL_Guitar,0.5411243438720703,0
57,100,0.22272727272727272,4,1,57,DL_Guitar,6,4,DL_Guitar,0.9997507929801941,1
57,100,0.4,91,0,57,DL_Guitar,6,6,DL_Guitar,0.08037861436605453,0
57,100,0.4818181818181818,330,1,57,DL_Guitar,6,8,DL_Guitar,0.07554987818002701,0
57,100,0.2590909090909091,453,0,57,DL_Guitar,6,4,DL_Guitar,0.0841546580195427,0
69,100,0.1409090909090909,531,0,57,DL_Guitar,6,2,DL_Guitar,0.0947091355919838,0
61,100,0.5,691,0,57,DL_Guitar,6,8,DL_Guitar,0.09744469821453094,0
59,100,0.6,810,0,57,DL_Guitar,6,10,DL_Guitar,0.09184140712022781,0
59,100,0.18181818181818182,153,1,58,DL_Guitar,6,3,DL_Guitar,0.9998564720153809,1
59,100,0.1,215,0,58,DL_Guitar,6,2,DL_Guitar,0.31348487734794617,0
52,100,0.4409090909090909,330,0,58,DL_Guitar,6,7,DL_Guitar,0.29539936780929565,0
52,100,0.11818181818181818,536,0,58,DL_Guitar,6,2,DL_Guitar,0.30680063366889954,0
61,100,0.1409090909090909,48,1,59,DL_Guitar,6,2,DL_Guitar,0.9998351335525513,1
61,100,0.3,110,0,59,DL_Guitar,6,5,DL_Guitar,0.401505708694458,0
57,100,0.1409090909090909,770,1,59,DL_Guitar,6,2,DL_Guitar,0.4269081652164459,0
57,100,0.11818181818181818,330,1,60,DL_Guitar,6,2,DL_Guitar,0.9998296499252319,1
61,100,0.5636363636363636,421,0,60,DL_Guitar,6,9,DL_Guitar,0.39763689041137695,0
61,100,0.3181818181818182,678,1,60,DL_Guitar,6,5,DL_Guitar,0.4326595664024353,0
57,100,0.4636363636363636,444,1,61,DL_Guitar,6,7,DL_Guitar,0.9998118281364441,1
54,100,0.35909090909090907,550,0,61,DL_Guitar,6,6,DL_Guitar,0.4298953115940094,0
57,100,0.13636363636363635,633,0,61,DL_Guitar,6,2,DL_Guitar,0.4297865331172943,0
57,100,0.11818181818181818,316,1,62,DL_Guitar,6,2,DL_Guitar,0.999852180480957,1
57,100,0.1,471,0,62,DL_Guitar,6,2,DL_Guitar,0.31254062056541443,0
57,100,0.18181818181818182,628,0,62,DL_Guitar,6,3,DL_Guitar,0.2944142818450928,0
59,100,0.4590909090909091,810,0,62,DL_Guitar,6,7,DL_Guitar,0.3055243194103241,0
61,100,0.13636363636363635,171,1,63,DL_Guitar,6,2,DL_Guitar,0.9997301697731018,1
59,100,0.35909090909090907,316,0,63,DL_Guitar,6,6,DL_Guitar,0.05445948988199234,0
57,100,0.2409090909090909,431,0,63,DL_Guitar,6,4,DL_Guitar,0.04843989387154579,0
54,100,0.1,691,1,63,DL_Guitar,6,2,DL_Guitar,0.0485648550093174,0
54,100,0.17727272727272728,721,0,63,DL_Guitar,6,3,DL_Guitar,0.052878450602293015,0
57,100,0.12272727272727273,774,0,63,DL_Guitar,6,2,DL_Guitar,0.05804114788770676,0
54,100,0.11818181818181818,813,0,63,DL_Guitar,6,2,DL_Guitar,0.06846048682928085,0
54,100,0.12272727272727273,848,0,63,DL_Guitar,6,2,DL_Guitar,0.05999329313635826,0
57,100,0.1590909090909091,0,1,64,DL_Guitar,6,3,DL_Guitar,0.9998167157173157,1
57,100,0.7181818181818181,550,1,64,DL_Guitar,6,11,DL_Guitar,0.4034218490123749,0
57,100,0.4,849,1,64,DL_Guitar,6,6,DL_Guitar,0.43470898270606995,0
57,100,0.2409090909090909,66,1,65,DL_Guitar,6,4,DL_Guitar,0.9998252987861633,1
59,100,0.8363636363636363,172,0,65,DL_Guitar,6,13,DL_Guitar,0.3869090676307678,0
61,100,0.2409090909090909,404,1,65,DL_Guitar,6,4,DL_Guitar,0.444551557302475,0
59,100,0.8590909090909091,426,1,66,DL_Guitar,6,14,DL_Guitar,0.9998096823692322,1
69,100,0.1,796,1,66,DL_Guitar,6,2,DL_Guitar,0.4440137445926666,0
62,100,0.12272727272727273,849,0,66,DL_Guitar,6,2,DL_Guitar,0.4272758662700653,0
62,100,0.1590909090909091,0,1,67,DL_Guitar,6,3,DL_Guitar,0.9997074007987976,1
64,100,0.5181818181818182,40,0,67,DL_Guitar,6,8,DL_Guitar,0.041256893426179886,0
64,100,0.3409090909090909,176,0,67,DL_Guitar,6,5,DL_Guitar,0.03421389311552048,0
52,100,0.37727272727272726,436,1,67,DL_Guitar,6,6,DL_Guitar,0.030409913510084152,0
52,100,0.17727272727272728,546,0,67,DL_Guitar,6,3,DL_Guitar,0.03092329390347004,0
52,100,0.1590909090909091,603,0,67,DL_Guitar,6,3,DL_Guitar,0.03381979838013649,0
52,100,0.13636363636363635,656,0,67,DL_Guitar,6,2,DL_Guitar,0.04073597490787506,0
52,100,0.3409090909090909,690,0,67,DL_Guitar,6,5,DL_Guitar,0.04615432396531105,0
52,100,0.38181818181818183,849,0,67,DL_Guitar,6,6,DL_Guitar,0.0452706515789032,0
52,100,0.2,233,1,68,DL_Guitar,6,3,DL_Guitar,0.9998378753662109,1
52,100,0.37727272727272726,294,0,68,DL_Guitar,6,6,DL_Guitar,0.4055527150630951,0
59,100,0.13636363636363635,457,0,68,DL_Guitar,6,2,DL_Guitar,0.42098307609558105,0
57,100,0.4,189,1,69,DL_Guitar,6,6,DL_Guitar,0.9998243451118469,1
52,100,0.2,686,1,69,DL_Guitar,6,3,DL_Guitar,0.43549928069114685,0
52,100,0.1590909090909091,832,0,69,DL_Guitar,6,3,DL_Guitar,0.4227783679962158,0
52,100,0.2590909090909091,56,1,70,DL_Guitar,6,4,DL_Guitar,0.9998111128807068,1
59,100,0.1409090909090909,140,0,70,DL_Guitar,6,2,DL_Guitar,0.11845757067203522,0
53,100,0.5818181818181818,307,0,70,DL_Guitar,6,9,DL_Guitar,0.11137489974498749,0
53,100,0.1590909090909091,453,0,70,DL_Guitar,6,3,DL_Guitar,0.1435191035270691,0
53,100,0.1409090909090909,642,0,70,DL_Guitar,6,2,DL_Guitar,0.14546674489974976,0
56,100,0.11818181818181818,734,0,70,DL_Guitar,6,2,DL_Guitar,0.1327601820230484,0
61,100,0.11818181818181818,153,1,71,DL_Guitar,6,2,DL_Guitar,0.9998378753662109,1
57,100,0.1590909090909091,673,1,71,DL_Guitar,6,3,DL_Guitar,0.40238845348358154,0
57,100,0.2,823,0,71,DL_Guitar,6,3,DL_Guitar,0.4236893355846405,0
57,100,0.1590909090909091,9,1,72,DL_Guitar,6,3,DL_Guitar,0.9998388290405273,1
59,100,1.059090909090909,193,0,72,DL_Guitar,6,15,DL_Guitar,0.29019084572792053,0
69,100,0.21818181818181817,502,1,72,DL_Guitar,6,3,DL_Guitar,0.3254443109035492,0
57,100,0.33636363636363636,743,1,72,DL_Guitar,6,5,DL_Guitar,0.3168945610523224,0
61,100,0.11818181818181818,514,1,73,DL_Guitar,6,2,DL_Guitar,0.9998291730880737,1
61,100,0.42272727272727273,585,0,73,DL_Guitar,6,7,DL_Guitar,0.4002556800842285,0
57,100,0.3409090909090909,870,1,73,DL_Guitar,6,5,DL_Guitar,0.42823106050491333,0
57,100,0.21818181818181817,132,1,74,DL_Guitar,6,3,DL_Guitar,0.9998013377189636,1
57,100,0.2772727272727273,237,0,74,DL_Guitar,6,4,DL_Guitar,0.12597092986106873,0
52,100,0.2590909090909091,559,1,74,DL_Guitar,6,4,DL_Guitar,0.12241362035274506,0
52,100,0.18181818181818182,619,0,74,DL_Guitar,6,3,DL_Guitar,0.1375436782836914,0
64,100,0.18181818181818182,682,0,74,DL_Guitar,6,3,DL_Guitar,0.14254775643348694,0
59,100,0.2818181818181818,726,0,74,DL_Guitar,6,5,DL_Guitar,0.1247200071811676,0
61,100,0.1,17,1,75,DL_Guitar,6,2,DL_Guitar,0.999832272529602,1
53,100,1.1409090909090909,47,0,75,DL_Guitar,6,15,DL_Guitar,0.17410576343536377,0
61,100,0.6409090909090909,316,1,75,DL_Guitar,6,10,DL_Guitar,0.21409624814987183,0
61,100,0.12272727272727273,606,1,75,DL_Guitar,6,2,DL_Guitar,0.2289920449256897,0
61,100,0.3,739,0,75,DL_Guitar,6,5,DL_Guitar,0.21082617342472076,0
59,100,0.17727272727272728,9,1,76,DL_Guitar,6,3,DL_Guitar,0.9998373985290527,1
52,100,0.18181818181818182,550,1,76,DL_Guitar,6,3,DL_Guitar,0.2178601622581482,0
52,100,0.1409090909090909,739,0,76,DL_Guitar,6,2,DL_Guitar,0.19453121721744537,0
52,100,0.16363636363636364,773,0,76,DL_Guitar,6,3,DL_Guitar,0.19863662123680115,0
59,100,0.21818181818181817,813,0,76,DL_Guitar,6,3,DL_Guitar,0.1948307901620865,0
59,100,0.3,176,1,77,DL_Guitar,6,5,DL_Guitar,0.9998251795768738,1
59,100,0.5590909090909091,307,0,77,DL_Guitar,6,9,DL_Guitar,0.1995994597673416,0
64,100,0.18181818181818182,440,0,77,DL_Guitar,6,3,DL_Guitar,0.22071035206317902,0
59,100,0.17727272727272728,502,0,77,DL_Guitar,6,3,DL_Guitar,0.20669974386692047,0
59,100,0.4409090909090909,559,0,77,DL_Guitar,6,7,DL_Guitar,0.2043507844209671,0
57,100,0.3,289,1,78,DL_Guitar,6,5,DL_Guitar,0.9928298592567444,0
65,100,0.1409090909090909,449,1,79,DL_Guitar,6,2,DL_Guitar,0.9998112320899963,1
65,100,0.18181818181818182,550,0,79,DL_Guitar,6,3,DL_Guitar,0.12678030133247375,0
65,100,0.2,597,0,79,DL_Guitar,6,3,DL_Guitar,0.11796557903289795,0
65,100,0.6636363636363637,663,0,79,DL_Guitar,6,11,DL_Guitar,0.12846426665782928,0
65,100,0.1409090909090909,813,0,79,DL_Guitar,6,2,DL_Guitar,0.15336425602436066,0
65,100,0.5227272727272727,849,0,79,DL_Guitar,6,8,DL_Guitar,0.12379702180624008,0
59,100,0.2,246,1,80,DL_Guitar,6,3,DL_Guitar,0.9998549222946167,1
59,100,0.17727272727272728,294,0,80,DL_Guitar,6,3,DL_Guitar,0.32314532995224,0
59,100,0.2,496,0,80,DL_Guitar,6,3,DL_Guitar,0.28991955518722534,0
52,100,0.2772727272727273,722,0,80,DL_Guitar,6,4,DL_Guitar,0.30965515971183777,0
52,100,0.6227272727272727,47,1,81,DL_Guitar,6,10,DL_Guitar,0.9995505213737488,1
61,100,1.7818181818181817,263,0,81,DL_Guitar,6,15,DL_Guitar,0.5296853184700012,0
57,100,0.2590909090909091,127,1,82,DL_Guitar,6,4,DL_Guitar,0.9998371601104736,1
57,100,0.2409090909090909,263,0,82,DL_Guitar,6,4,DL_Guitar,0.3374786972999573,0
57,100,0.1,320,0,82,DL_Guitar,6,2,DL_Guitar,0.30159661173820496,0
57,100,0.759090909090909,440,0,82,DL_Guitar,6,12,DL_Guitar,0.2985606789588928,0
57,100,0.12272727272727273,13,1,83,DL_Guitar,6,2,DL_Guitar,0.9998308420181274,1
57,100,0.2,303,1,83,DL_Guitar,6,3,DL_Guitar,0.39959967136383057,0
52,100,0.1,857,1,83,DL_Guitar,6,2,DL_Guitar,0.43649718165397644,0
61,100,0.3,197,1,84,DL_Guitar,6,5,DL_Guitar,0.9998427629470825,1
61,100,1.0,347,0,84,DL_Guitar,6,15,DL_Guitar,0.29180094599723816,0
61,100,0.5227272727272727,707,1,84,DL_Guitar,6,8,DL_Guitar,0.31643229722976685,0
61,100,0.38181818181818183,836,0,84,DL_Guitar,6,6,DL_Guitar,0.3213009536266327,0
52,100,0.4818181818181818,166,1,85,DL_Guitar,6,8,DL_Guitar,0.999800980091095,1
52,100,0.6,286,0,85,DL_Guitar,6,10,DL_Guitar,0.1268392652273178,0
52,100,0.3,422,0,85,DL_Guitar,6,5,DL_Guitar,0.1243526041507721,0
52,100,0.35909090909090907,603,0,85,DL_Guitar,6,6,DL_Guitar,0.13458330929279327,0
59,100,0.32272727272727275,729,0,85,DL_Guitar,6,5,DL_Guitar,0.1416262984275818,0
59,100,0.18181818181818182,817,0,85,DL_Guitar,6,3,DL_Guitar,0.13238964974880219,0
64,100,0.2409090909090909,113,1,86,DL_Guitar,6,4,DL_Guitar,0.9998142123222351,1
59,100,0.42272727272727273,202,0,86,DL_Guitar,6,7,DL_Guitar,0.11914826929569244,0
57,100,0.1409090909090909,493,1,86,DL_Guitar,6,2,DL_Guitar,0.1294807642698288,0
57,100,0.35909090909090907,527,0,86,DL_Guitar,6,6,DL_Guitar,0.13186050951480865,0
57,100,0.2772727272727273,624,0,86,DL_Guitar,6,4,DL_Guitar,0.15440183877944946,0
57,100,1.1590909090909092,813,0,86,DL_Guitar,6,15,DL_Guitar,0.13243946433067322,0
57,100,0.2409090909090909,250,1,87,DL_Guitar,6,4,DL_Guitar,0.9930496215820312,0
59,100,0.1409090909090909,506,1,90,DL_Guitar,6,2,DL_Guitar,0.9998338222503662,1
59,100,0.1,646,0,90,DL_Guitar,6,2,DL_Guitar,0.40793436765670776,0
59,100,0.4590909090909091,823,0,90,DL_Guitar,6,7,DL_Guitar,0.41996270418167114,0
59,100,0.5,79,1,91,DL_Guitar,6,8,DL_Guitar,0.999823272228241,1
52,100,0.17727272727272728,316,1,91,DL_Guitar,6,3,DL_Guitar,0.43485790491104126,0
52,100,0.4,817,1,91,DL_Guitar,6,6,DL_Guitar,0.42179495096206665,0
57,100,0.22272727272727272,100,1,92,DL_Guitar,6,4,DL_Guitar,0.9997652173042297,1
66,100,0.18181818181818182,197,0,92,DL_Guitar,6,3,DL_Guitar,0.08188475668430328,0
55,100,0.11818181818181818,426,0,92,DL_Guitar,6,2,DL_Guitar,0.07472951710224152,0
55,100,0.11818181818181818,480,0,92,DL_Guitar,6,2,DL_Guitar,0.07904917001724243,0
56,100,0.1409090909090909,506,0,92,DL_Guitar,6,2,DL_Guitar,0.09009578824043274,0
52,100,0.4,572,0,92,DL_Guitar,6,6,DL_Guitar,0.09334412962198257,0
59,100,0.32272727272727275,707,0,92,DL_Guitar,6,5,DL_Guitar,0.08322232961654663,0
64,100,0.16363636363636364,3,1,93,DL_Guitar,6,3,DL_Guitar,0.9998431205749512,1
59,100,0.11818181818181818,150,0,93,DL_Guitar,6,2,DL_Guitar,0.20033319294452667,0
65,100,0.4590909090909091,320,0,93,DL_Guitar,6,7,DL_Guitar,0.1899864673614502,0
65,100,0.2772727272727273,426,0,93,DL_Guitar,6,4,DL_Guitar,0.21501420438289642,0
57,100,0.5181818181818182,844,1,93,DL_Guitar,6,8,DL_Guitar,0.1944589614868164,0
59,100,0.3181818181818182,813,1,94,DL_Guitar,6,5,DL_Guitar,0.9932971596717834,0
59,100,0.32272727272727275,92,1,95,DL_Guitar,6,5,DL_Guitar,0.9996163845062256,1
59,100,0.1409090909090909,223,0,95,DL_Guitar,6,2,DL_Guitar,0.5561642646789551,0
54,100,0.1590909090909091,53,1,96,DL_Guitar,6,3,DL_Guitar,0.999606192111969,1
57,100,0.6181818181818182,734,1,96,DL_Guitar,6,10,DL_Guitar,0.5415828227996826,0
57,100,0.21818181818181817,0,1,97,DL_Guitar,6,3,DL_Guitar,0.9998443126678467,1
59,100,0.4818181818181818,189,0,97,DL_Guitar,6,8,DL_Guitar,0.3275149464607239,0
64,100,0.11818181818181818,493,1,97,DL_Guitar,6,2,DL_Guitar,0.3176456093788147,0
57,100,0.8409090909090909,823,1,97,DL_Guitar,6,13,DL_Guitar,0.2891322374343872,0
57,100,0.12272727272727273,157,1,98,DL_Guitar,6,2,DL_Guitar,0.993175208568573,0
57,100,0.2409090909090909,443,1,100,DL_Guitar,6,4,DL_Guitar,0.999848484992981,1
57,100,0.2409090909090909,563,0,100,DL_Guitar,6,4,DL_Guitar,0.30453214049339294,0
57,100,0.2,633,0,100,DL_Guitar,6,3,DL_Guitar,0.30147844552993774,0
59,100,0.5590909090909091,810,0,100,DL_Guitar,6,9,DL_Guitar,0.30114349722862244,0
59,100,0.11818181818181818,83,1,101,DL_Guitar,6,2,DL_Guitar,0.9997979998588562,1
59,100,0.4,153,0,101,DL_Guitar,6,6,DL_Guitar,0.12414807826280594,0
59,100,0.2,260,0,101,DL_Guitar,6,3,DL_Guitar,0.12061017006635666,0
59,100,0.5227272727272727,430,0,101,DL_Guitar,6,8,DL_Guitar,0.13633443415164948,0
53,100,0.3,677,1,101,DL_Guitar,6,5,DL_Guitar,0.15168291330337524,0
59,100,0.2,756,0,101,DL_Guitar,6,3,DL_Guitar,0.1387503743171692,0
57,100,0.4772727272727273,193,1,102,DL_Guitar,6,8,DL_Guitar,0.9998356103897095,1
57,100,0.18181818181818182,597,1,102,DL_Guitar,6,3,DL_Guitar,0.340047150850296,0
57,100,0.4636363636363636,707,0,102,DL_Guitar,6,7,DL_Guitar,0.2891765236854553,0
57,100,0.1,839,0,102,DL_Guitar,6,2,DL_Guitar,0.3201853036880493,0
57,100,0.12272727272727273,35,1,103,DL_Guitar,6,2,DL_Guitar,0.9998512268066406,1
59,100,0.5181818181818182,184,0,103,DL_Guitar,6,8,DL_Guitar,0.3046678602695465,0
59,100,0.7227272727272728,312,0,103,DL_Guitar,6,12,DL_Guitar,0.2878299057483673,0
52,100,0.13636363636363635,502,0,103,DL_Guitar,6,2,DL_Guitar,0.32937315106391907,0
57,100,0.1,282,1,104,DL_Guitar,6,2,DL_Guitar,0.9996992349624634,1
57,100,0.18181818181818182,466,0,104,DL_Guitar,6,3,DL_Guitar,0.044207070022821426,0
57,100,0.1,514,0,104,DL_Guitar,6,2,DL_Guitar,0.03268038481473923,0
57,100,0.2590909090909091,540,0,104,DL_Guitar,6,4,DL_Guitar,0.029808638617396355,0
57,100,0.11818181818181818,616,0,104,DL_Guitar,6,2,DL_Guitar,0.030344689264893532,0
57,100,0.2409090909090909,682,0,104,DL_Guitar,6,4,DL_Guitar,0.034337449818849564,0
57,100,0.1,743,0,104,DL_Guitar,6,2,DL_Guitar,0.04079343378543854,0
57,100,0.1590909090909091,770,0,104,DL_Guitar,6,3,DL_Guitar,0.047011230140924454,0
57,100,0.1,813,0,104,DL_Guitar,6,2,DL_Guitar,0.047356996685266495,0
57,100,0.11818181818181818,9,1,105,DL_Guitar,6,2,DL_Guitar,0.9931146502494812,0
52,100,0.10454545454545454,863,1,0,DL_Guitar_1,6,2,DL_Guitar_1,0.9935251474380493,0
52,100,0.1409090909090909,29,1,1,DL_Guitar_1,6,2,DL_Guitar_1,0.9998347759246826,1
52,100,0.38181818181818183,197,0,1,DL_Guitar_1,6,6,DL_Guitar_1,0.40703630447387695,0
52,100,0.29545454545454547,862,1,1,DL_Guitar_1,6,5,DL_Guitar_1,0.4262937307357788,0
52,100,0.29545454545454547,100,1,2,DL_Guitar_1,6,5,DL_Guitar_1,0.9934764504432678,1
52,100,0.2590909090909091,73,1,4,DL_Guitar_1,6,4,DL_Guitar_1,0.9934147596359253,0
52,100,0.29545454545454547,73,1,5,DL_Guitar_1,6,5,DL_Guitar_1,0.9998360872268677,1
52,100,0.2772727272727273,179,0,5,DL_Guitar_1,6,4,DL_Guitar_1,0.4110592305660248,0
52,100,0.13636363636363635,282,0,5,DL_Guitar_1,6,2,DL_Guitar_1,0.42318207025527954,0
52,100,0.32727272727272727,60,1,6,DL_Guitar_1,6,5,DL_Guitar_1,0.9998593330383301,1
52,100,0.11818181818181818,163,0,6,DL_Guitar_1,6,2,DL_Guitar_1,0.3253585994243622,0
52,100,0.10454545454545454,201,0,6,DL_Guitar_1,6,2,DL_Guitar_1,0.28939202427864075,0
52,100,0.1590909090909091,273,0,6,DL_Guitar_1,6,3,DL_Guitar_1,0.2951273024082184,0
54,100,0.10454545454545454,563,1,11,DL_Guitar_1,6,2,DL_Guitar_1,0.9996320009231567,1
52,100,0.17727272727272728,780,0,11,DL_Guitar_1,6,3,DL_Guitar_1,0.5534656047821045,0
52,100,0.4,8,1,12,DL_Guitar_1,6,6,DL_Guitar_1,0.9998317956924438,1
54,100,0.1,111,0,12,DL_Guitar_1,6,2,DL_Guitar_1,0.415077805519104,0
52,100,0.09090909090909091,218,0,12,DL_Guitar_1,6,1,DL_Guitar_1,0.42577341198921204,0
52,100,0.41363636363636364,771,1,13,DL_Guitar_1,6,7,DL_Guitar_1,0.9996320009231567,1
52,100,0.43636363636363634,866,0,13,DL_Guitar_1,6,7,DL_Guitar_1,0.5465665459632874,0
54,100,0.1409090909090909,111,1,14,DL_Guitar_1,6,2,DL_Guitar_1,0.9998319149017334,1
54,100,0.13636363636363635,147,0,14,DL_Guitar_1,6,2,DL_Guitar_1,0.4122491776943207,0
52,100,0.20909090909090908,204,0,14,DL_Guitar_1,6,3,DL_Guitar_1,0.42965802550315857,0
56,100,0.20909090909090908,99,1,15,DL_Guitar_1,6,3,DL_Guitar_1,0.9998294115066528,1
52,100,0.34545454545454546,759,1,15,DL_Guitar_1,6,6,DL_Guitar_1,0.4210832417011261,0
56,100,0.2409090909090909,874,0,15,DL_Guitar_1,6,4,DL_Guitar_1,0.42222756147384644,0
52,100,0.11818181818181818,185,1,16,DL_Guitar_1,6,2,DL_Guitar_1,0.9996676445007324,1
52,100,0.1590909090909091,216,0,16,DL_Guitar_1,6,3,DL_Guitar_1,0.5433792471885681,0
52,100,0.6045454545454545,722,1,17,DL_Guitar_1,6,10,DL_Guitar_1,0.9932593703269958,0
52,100,0.1590909090909091,21,1,18,DL_Guitar_1,6,3,DL_Guitar_1,0.999862790107727,1
54,100,0.10454545454545454,147,0,18,DL_Guitar_1,6,2,DL_Guitar_1,0.30958062410354614,0
52,100,0.2590909090909091,175,0,18,DL_Guitar_1,6,4,DL_Guitar_1,0.2917967438697815,0
52,100,0.08636363636363636,506,1,18,DL_Guitar_1,6,1,DL_Guitar_1,0.3000231981277466,0
52,100,0.85,735,1,19,DL_Guitar_1,6,14,DL_Guitar_1,0.9926262497901917,0
52,100,0.13636363636363635,72,1,20,DL_Guitar_1,6,2,DL_Guitar_1,0.9996708631515503,1
52,100,0.1409090909090909,164,0,20,DL_Guitar_1,6,2,DL_Guitar_1,0.5436394810676575,0
56,100,0.33181818181818185,831,1,21,DL_Guitar_1,6,5,DL_Guitar_1,0.9923882484436035,0
52,100,0.22727272727272727,38,1,22,DL_Guitar_1,6,4,DL_Guitar_1,0.993698239326477,1
57,100,0.19090909090909092,855,1,23,DL_Guitar_1,6,3,DL_Guitar_1,0.9930176734924316,0
54,100,0.10454545454545454,35,1,24,DL_Guitar_1,6,2,DL_Guitar_1,0.9935452938079834,0
56,100,0.39545454545454545,30,1,25,DL_Guitar_1,6,6,DL_Guitar_1,0.9998219609260559,1
56,100,0.5045454545454545,477,1,25,DL_Guitar_1,6,8,DL_Guitar_1,0.41103866696357727,0
56,100,0.31363636363636366,691,0,25,DL_Guitar_1,6,5,DL_Guitar_1,0.4331873953342438,0
56,100,0.13636363636363635,185,1,26,DL_Guitar_1,6,2,DL_Guitar_1,0.9934646487236023,0
64,100,0.08636363636363636,677,1,27,DL_Guitar_1,6,1,DL_Guitar_1,0.9937223792076111,0
56,100,0.15454545454545454,285,1,28,DL_Guitar_1,6,2,DL_Guitar_1,0.9998482465744019,1
56,100,0.29545454545454547,354,0,28,DL_Guitar_1,6,5,DL_Guitar_1,0.3194686472415924,0
56,100,0.41818181818181815,450,0,28,DL_Guitar_1,6,7,DL_Guitar_1,0.2925845980644226,0
52,100,0.33181818181818185,781,1,28,DL_Guitar_1,6,5,DL_Guitar_1,0.31441402435302734,0
56,100,0.4863636363636364,4,1,29,DL_Guitar_1,6,8,DL_Guitar_1,0.9998121857643127,1
56,100,0.19090909090909092,116,0,29,DL_Guitar_1,6,3,DL_Guitar_1,0.44070377945899963,0
57,100,0.15454545454545454,605,1,29,DL_Guitar_1,6,2,DL_Guitar_1,0.43391844630241394,0
56,100,0.6772727272727272,821,1,30,DL_Guitar_1,6,11,DL_Guitar_1,0.9921144247055054,0
56,100,0.20909090909090908,422,1,31,DL_Guitar_1,6,3,DL_Guitar_1,0.9931469559669495,0
56,100,0.19090909090909092,96,1,32,DL_Guitar_1,6,3,DL_Guitar_1,0.993354082107544,1
56,100,0.19090909090909092,597,1,37,DL_Guitar_1,6,3,DL_Guitar_1,0.9931566119194031,0
52,100,0.41363636363636364,370,1,38,DL_Guitar_1,6,7,DL_Guitar_1,0.9932805895805359,0
56,100,0.29545454545454547,555,1,44,DL_Guitar_1,6,5,DL_Guitar_1,0.9998332262039185,1
56,100,0.08636363636363636,669,0,44,DL_Guitar_1,6,1,DL_Guitar_1,0.41536745429039,0
56,100,0.17272727272727273,772,0,44,DL_Guitar_1,6,3,DL_Guitar_1,0.42086952924728394,0
56,100,0.29545454545454547,836,1,48,DL_Guitar_1,6,5,DL_Guitar_1,0.9929823875427246,0
56,100,0.2772727272727273,829,1,50,DL_Guitar_1,6,4,DL_Guitar_1,0.9930213093757629,0
56,100,0.10454545454545454,840,1,52,DL_Guitar_1,6,2,DL_Guitar_1,0.9935771822929382,1
56,100,0.13636363636363635,859,1,53,DL_Guitar_1,6,2,DL_Guitar_1,0.9933003187179565,0
64,100,0.10454545454545454,282,1,55,DL_Guitar_1,6,2,DL_Guitar_1,0.993556797504425,1
56,100,0.5,111,1,57,DL_Guitar_1,6,8,DL_Guitar_1,0.9926119446754456,0
54,100,0.10454545454545454,220,1,58,DL_Guitar_1,6,2,DL_Guitar_1,0.9998094439506531,1
58,100,0.2590909090909091,495,1,58,DL_Guitar_1,6,4,DL_Guitar_1,0.12046657502651215,0
58,100,0.24545454545454545,595,0,58,DL_Guitar_1,6,4,DL_Guitar_1,0.12076200544834137,0
54,100,0.17272727272727273,655,0,58,DL_Guitar_1,6,3,DL_Guitar_1,0.14775991439819336,0
54,100,0.13636363636363635,770,0,58,DL_Guitar_1,6,2,DL_Guitar_1,0.14630623161792755,0
64,100,0.13636363636363635,836,0,58,DL_Guitar_1,6,2,DL_Guitar_1,0.13664333522319794,0
52,100,0.13636363636363635,282,1,60,DL_Guitar_1,6,2,DL_Guitar_1,0.9998568296432495,1
52,100,0.45,432,0,60,DL_Guitar_1,6,7,DL_Guitar_1,0.3080938160419464,0
56,100,0.4681818181818182,535,0,60,DL_Guitar_1,6,7,DL_Guitar_1,0.28343814611434937,0
52,100,0.41818181818181815,648,0,60,DL_Guitar_1,6,7,DL_Guitar_1,0.31305524706840515,0
64,100,0.17272727272727273,335,1,61,DL_Guitar_1,6,3,DL_Guitar_1,0.9935885667800903,0
61,100,0.1409090909090909,713,1,63,DL_Guitar_1,6,2,DL_Guitar_1,0.9996349811553955,1
58,100,0.41818181818181815,861,0,63,DL_Guitar_1,6,7,DL_Guitar_1,0.5366306900978088,0
54,100,0.11818181818181818,85,1,64,DL_Guitar_1,6,2,DL_Guitar_1,0.9998364448547363,1
54,100,0.1590909090909091,177,0,64,DL_Guitar_1,6,3,DL_Guitar_1,0.21320942044258118,0
58,100,0.6772727272727272,219,0,64,DL_Guitar_1,6,11,DL_Guitar_1,0.18675334751605988,0
58,100,0.4,422,0,64,DL_Guitar_1,6,6,DL_Guitar_1,0.21900463104248047,0
58,100,0.2590909090909091,528,0,64,DL_Guitar_1,6,4,DL_Guitar_1,0.2194993793964386,0
69,100,0.20909090909090908,447,1,65,DL_Guitar_1,6,3,DL_Guitar_1,0.9930167198181152,1
56,100,0.5045454545454545,384,1,66,DL_Guitar_1,6,8,DL_Guitar_1,0.9927802681922913,0
83,100,0.1409090909090909,176,1,67,DL_Guitar_1,6,2,DL_Guitar_1,0.9930993318557739,0
83,100,0.08636363636363636,736,1,68,DL_Guitar_1,6,1,DL_Guitar_1,0.9934076070785522,0
59,100,0.1590909090909091,215,1,69,DL_Guitar_1,6,3,DL_Guitar_1,0.9996095299720764,1
54,100,0.4318181818181818,803,1,69,DL_Guitar_1,6,7,DL_Guitar_1,0.5511214733123779,0
58,100,0.5363636363636364,27,1,70,DL_Guitar_1,6,9,DL_Guitar_1,0.9997724890708923,1
58,100,0.41818181818181815,167,0,70,DL_Guitar_1,6,7,DL_Guitar_1,0.13515202701091766,0
58,100,0.38181818181818183,278,0,70,DL_Guitar_1,6,6,DL_Guitar_1,0.13072770833969116,0
54,100,0.4,367,0,70,DL_Guitar_1,6,6,DL_Guitar_1,0.1537952870130539,0
58,100,0.41818181818181815,477,0,70,DL_Guitar_1,6,7,DL_Guitar_1,0.14896981418132782,0
62,100,0.2772727272727273,810,1,70,DL_Guitar_1,6,4,DL_Guitar_1,0.1532723754644394,0
56,100,0.2772727272727273,808,1,71,DL_Guitar_1,6,4,DL_Guitar_1,0.9996101260185242,1
56,100,0.10454545454545454,872,0,71,DL_Guitar_1,6,2,DL_Guitar_1,0.5577497482299805,0
56,100,0.45,131,1,72,DL_Guitar_1,6,7,DL_Guitar_1,0.9998281002044678,1
56,100,0.38181818181818183,252,0,72,DL_Guitar_1,6,6,DL_Guitar_1,0.21499276161193848,0
56,100,0.9227272727272727,352,0,72,DL_Guitar_1,6,15,DL_Guitar_1,0.18923784792423248,0
56,100,0.34545454545454546,596,1,72,DL_Guitar_1,6,6,DL_Guitar_1,0.23114559054374695,0
57,100,0.15454545454545454,733,0,72,DL_Guitar_1,6,2,DL_Guitar_1,0.21536709368228912,0
69,100,0.19090909090909092,457,1,73,DL_Guitar_1,6,3,DL_Guitar_1,0.9998302459716797,1
69,100,0.12272727272727273,522,0,73,DL_Guitar_1,6,2,DL_Guitar_1,0.40448468923568726,0
56,100,0.36818181818181817,800,1,73,DL_Guitar_1,6,6,DL_Guitar_1,0.4263486862182617,0
56,100,0.4727272727272727,215,1,74,DL_Guitar_1,6,8,DL_Guitar_1,0.9998334646224976,1
56,100,0.32727272727272727,360,0,74,DL_Guitar_1,6,5,DL_Guitar_1,0.3462752103805542,0
69,100,0.2590909090909091,440,0,74,DL_Guitar_1,6,4,DL_Guitar_1,0.30433446168899536,0
56,100,0.8181818181818182,581,0,74,DL_Guitar_1,6,13,DL_Guitar_1,0.3020627796649933,0
59,100,0.08636363636363636,320,1,75,DL_Guitar_1,6,1,DL_Guitar_1,0.9998395442962646,1
59,100,0.22727272727272727,355,0,75,DL_Guitar_1,6,4,DL_Guitar_1,0.20209595561027527,0
59,100,0.12272727272727273,447,0,75,DL_Guitar_1,6,2,DL_Guitar_1,0.2021344155073166,0
59,100,0.10454545454545454,477,0,75,DL_Guitar_1,6,2,DL_Guitar_1,0.2098921835422516,0
59,100,0.24545454545454545,652,0,75,DL_Guitar_1,6,4,DL_Guitar_1,0.20058785378932953,0
56,100,0.1590909090909091,105,1,76,DL_Guitar_1,6,3,DL_Guitar_1,0.9998077750205994,1
56,100,0.36363636363636365,151,0,76,DL_Guitar_1,6,6,DL_Guitar_1,0.12502430379390717,0
56,100,0.08636363636363636,238,0,76,DL_Guitar_1,6,1,DL_Guitar_1,0.12498119473457336,0
56,100,0.29545454545454547,349,0,76,DL_Guitar_1,6,5,DL_Guitar_1,0.13370899856090546,0
56,100,0.2772727272727273,453,0,76,DL_Guitar_1,6,4,DL_Guitar_1,0.137132927775383,0
56,100,0.10454545454545454,605,0,76,DL_Guitar_1,6,2,DL_Guitar_1,0.1341354250907898,0
69,100,0.12272727272727273,431,1,77,DL_Guitar_1,6,2,DL_Guitar_1,0.9933748841285706,0
52,100,0.15454545454545454,180,1,79,DL_Guitar_1,6,2,DL_Guitar_1,0.9998438358306885,1
56,100,0.35,321,0,79,DL_Guitar_1,6,6,DL_Guitar_1,0.19893497228622437,0
56,100,0.41818181818181815,410,0,79,DL_Guitar_1,6,7,DL_Guitar_1,0.19208407402038574,0
56,100,0.13636363636363635,548,0,79,DL_Guitar_1,6,2,DL_Guitar_1,0.2203291654586792,0
57,100,0.5909090909090909,781,1,79,DL_Guitar_1,6,9,DL_Guitar_1,0.19790010154247284,0
57,100,0.2590909090909091,5,1,81,DL_Guitar_1,6,4,DL_Guitar_1,0.9996011853218079,1
57,100,0.5227272727272727,719,1,81,DL_Guitar_1,6,8,DL_Guitar_1,0.5481032729148865,0
57,100,0.35,726,1,82,DL_Guitar_1,6,6,DL_Guitar_1,0.9927123785018921,0
57,100,0.45,151,1,83,DL_Guitar_1,6,7,DL_Guitar_1,0.9997549653053284,1
52,100,0.2772727272727273,282,0,83,DL_Guitar_1,6,4,DL_Guitar_1,0.08479228615760803,0
52,100,0.10454545454545454,408,0,83,DL_Guitar_1,6,2,DL_Guitar_1,0.07578800618648529,0
52,100,0.10454545454545454,435,0,83,DL_Guitar_1,6,2,DL_Guitar_1,0.0783144012093544,0
52,100,0.08636363636363636,461,0,83,DL_Guitar_1,6,1,DL_Guitar_1,0.08795394003391266,0
64,100,0.22727272727272727,507,0,83,DL_Guitar_1,6,4,DL_Guitar_1,0.09166375547647476,0
83,100,0.22727272727272727,632,0,83,DL_Guitar_1,6,4,DL_Guitar_1,0.08058607578277588,0
57,100,0.13636363636363635,608,1,84,DL_Guitar_1,6,2,DL_Guitar_1,0.9932552576065063,1
54,100,0.4,689,1,86,DL_Guitar_1,6,6,DL_Guitar_1,0.9928336143493652,0
54,100,0.3090909090909091,153,1,87,DL_Guitar_1,6,5,DL_Guitar_1,0.9998311996459961,1
61,100,0.19090909090909092,352,0,87,DL_Guitar_1,6,3,DL_Guitar_1,0.4128487706184387,0
61,100,0.41363636363636364,470,0,87,DL_Guitar_1,6,7,DL_Guitar_1,0.42207711935043335,0
52,100,0.12272727272727273,114,1,1,DL_Guitar,6,2,DL_Guitar,0.9998444318771362,1
52,100,0.1590909090909091,166,0,1,DL_Guitar,6,3,DL_Guitar,0.4044246971607208,0
52,100,0.4409090909090909,360,0,1,DL_Guitar,6,7,DL_Guitar,0.41697415709495544,0
52,100,0.3409090909090909,246,1,2,DL_Guitar,6,5,DL_Guitar,0.9996505975723267,1
52,100,0.3409090909090909,382,0,2,DL_Guitar,6,5,DL_Guitar,0.5484589338302612,0
52,100,0.3,619,1,4,DL_Guitar,6,5,DL_Guitar,0.9934919476509094,0
52,100,0.3409090909090909,752,1,5,DL_Guitar,6,5,DL_Guitar,0.9996523857116699,1
52,100,0.3181818181818182,875,0,5,DL_Guitar,6,5,DL_Guitar,0.5470430850982666,0
52,100,0.16363636363636364,114,1,6,DL_Guitar,6,3,DL_Guitar,0.9996612071990967,1
52,100,0.38181818181818183,871,1,6,DL_Guitar,6,6,DL_Guitar,0.5428543090820312,0
52,100,0.1409090909090909,110,1,7,DL_Guitar,6,2,DL_Guitar,0.999841570854187,1
52,100,0.11818181818181818,153,0,7,DL_Guitar,6,2,DL_Guitar,0.4109179377555847,0
52,100,0.17727272727272728,238,0,7,DL_Guitar,6,3,DL_Guitar,0.4203324317932129,0
54,100,0.11818181818181818,360,1,13,DL_Guitar,6,2,DL_Guitar,0.9998571872711182,1
52,100,0.2,611,1,13,DL_Guitar,6,3,DL_Guitar,0.3212656080722809,0
52,100,0.4590909090909091,735,0,13,DL_Guitar,6,7,DL_Guitar,0.2883268892765045,0
54,100,0.11818181818181818,854,0,13,DL_Guitar,6,2,DL_Guitar,0.303464412689209,0
52,100,0.1,96,1,14,DL_Guitar,6,2,DL_Guitar,0.9937159419059753,1
52,100,0.4772727272727273,866,1,15,DL_Guitar,6,8,DL_Guitar,0.9930150508880615,0
52,100,0.5,96,1,16,DL_Guitar,6,8,DL_Guitar,0.9998539686203003,1
54,100,0.1590909090909091,241,0,16,DL_Guitar,6,3,DL_Guitar,0.32924291491508484,0
54,100,0.1590909090909091,281,0,16,DL_Guitar,6,3,DL_Guitar,0.28871893882751465,0
52,100,0.23636363636363636,347,0,16,DL_Guitar,6,4,DL_Guitar,0.3064988851547241,0
56,100,0.2409090909090909,360,1,17,DL_Guitar,6,4,DL_Guitar,0.9931349754333496,0
52,100,0.4,241,1,18,DL_Guitar,6,6,DL_Guitar,0.9998546838760376,1
56,100,0.2818181818181818,374,0,18,DL_Guitar,6,5,DL_Guitar,0.31057968735694885,0
52,100,0.1409090909090909,594,0,18,DL_Guitar,6,2,DL_Guitar,0.3021203875541687,0
52,100,0.18181818181818182,629,0,18,DL_Guitar,6,3,DL_Guitar,0.29978063702583313,0
52,100,0.7,466,1,20,DL_Guitar,6,11,DL_Guitar,0.9998537302017212,1
52,100,0.18181818181818182,673,0,20,DL_Guitar,6,3,DL_Guitar,0.3341808617115021,0
54,100,0.12272727272727273,818,0,20,DL_Guitar,6,2,DL_Guitar,0.28760960698127747,0
52,100,0.3,849,0,20,DL_Guitar,6,5,DL_Guitar,0.3008134663105011,0
52,100,0.1,351,1,21,DL_Guitar,6,2,DL_Guitar,0.993530809879303,1
52,100,0.9818181818181818,748,1,22,DL_Guitar,6,15,DL_Guitar,0.9921850562095642,0
52,100,0.1590909090909091,119,1,23,DL_Guitar,6,3,DL_Guitar,0.9996656179428101,1
52,100,0.16363636363636364,223,0,23,DL_Guitar,6,3,DL_Guitar,0.5456607937812805,0
56,100,0.38181818181818183,246,1,25,DL_Guitar,6,6,DL_Guitar,0.9996286630630493,1
52,100,0.2590909090909091,347,0,25,DL_Guitar,6,4,DL_Guitar,0.5548123121261597,0
57,100,0.22272727272727272,540,1,27,DL_Guitar,6,4,DL_Guitar,0.9996275901794434,1
54,100,0.11818181818181818,611,0,27,DL_Guitar,6,2,DL_Guitar,0.5493835210800171,0
56,100,0.4590909090909091,739,1,28,DL_Guitar,6,7,DL_Guitar,0.9929465651512146,0
56,100,0.5818181818181818,374,1,29,DL_Guitar,6,9,DL_Guitar,0.9995853304862976,1
56,100,0.36363636363636365,619,1,29,DL_Guitar,6,6,DL_Guitar,0.5621797442436218,0
56,100,0.1590909090909091,171,1,30,DL_Guitar,6,3,DL_Guitar,0.9931411147117615,0
64,100,0.1,870,1,31,DL_Guitar,6,2,DL_Guitar,0.9935651421546936,0
56,100,0.18181818181818182,554,1,32,DL_Guitar,6,3,DL_Guitar,0.9998326301574707,1
56,100,0.33636363636363636,633,0,32,DL_Guitar,6,5,DL_Guitar,0.40581950545310974,0
56,100,0.4772727272727273,743,0,32,DL_Guitar,6,8,DL_Guitar,0.421936959028244,0
52,100,0.38181818181818183,246,1,33,DL_Guitar,6,6,DL_Guitar,0.9998315572738647,1
56,100,0.5590909090909091,364,0,33,DL_Guitar,6,9,DL_Guitar,0.3939226567745209,0
56,100,0.21818181818181817,493,0,33,DL_Guitar,6,3,DL_Guitar,0.44057801365852356,0
57,100,0.18181818181818182,176,1,34,DL_Guitar,6,3,DL_Guitar,0.9928876757621765,1
56,100,0.7772727272727272,558,1,35,DL_Guitar,6,12,DL_Guitar,0.9920178651809692,0
56,100,0.2409090909090909,233,1,36,DL_Guitar,6,4,DL_Guitar,0.9996263980865479,1
56,100,0.22272727272727272,871,1,36,DL_Guitar,6,4,DL_Guitar,0.5523659586906433,0
56,100,0.22272727272727272,356,1,43,DL_Guitar,6,4,DL_Guitar,0.9932884573936462,1
52,100,0.4772727272727273,228,1,44,DL_Guitar,6,8,DL_Guitar,0.9931830763816833,0
56,100,0.3409090909090909,364,1,51,DL_Guitar,6,5,DL_Guitar,0.999828577041626,1
56,100,0.1,496,0,51,DL_Guitar,6,2,DL_Guitar,0.425891250371933,0
56,100,0.2,616,0,51,DL_Guitar,6,3,DL_Guitar,0.4213939309120178,0
56,100,0.3409090909090909,343,1,56,DL_Guitar,6,5,DL_Guitar,0.9929718375205994,0
56,100,0.3181818181818182,603,1,58,DL_Guitar,6,5,DL_Guitar,0.9929936528205872,0
56,100,0.12272727272727273,4,1,61,DL_Guitar,6,2,DL_Guitar,0.9931703805923462,0
56,100,0.16363636363636364,158,1,62,DL_Guitar,6,3,DL_Guitar,0.9932987689971924,0
64,100,0.12272727272727273,641,1,63,DL_Guitar,6,2,DL_Guitar,0.993645191192627,1
56,100,0.5772727272727273,713,1,65,DL_Guitar,6,9,DL_Guitar,0.9927806258201599,0
54,100,0.12272727272727273,92,1,67,DL_Guitar,6,2,DL_Guitar,0.9998032450675964,1
58,100,0.3,409,1,67,DL_Guitar,6,5,DL_Guitar,0.12171627581119537,0
58,100,0.2772727272727273,523,0,67,DL_Guitar,6,4,DL_Guitar,0.12397327274084091,0
54,100,0.2,593,0,67,DL_Guitar,6,3,DL_Guitar,0.14447684586048126,0
54,100,0.1590909090909091,726,0,67,DL_Guitar,6,3,DL_Guitar,0.15162712335586548,0
64,100,0.1590909090909091,800,0,67,DL_Guitar,6,3,DL_Guitar,0.1392541229724884,0
52,100,0.1590909090909091,430,1,69,DL_Guitar,6,3,DL_Guitar,0.999862551689148,1
52,100,0.5181818181818182,603,0,69,DL_Guitar,6,8,DL_Guitar,0.3036542534828186,0
56,100,0.5363636363636364,722,0,69,DL_Guitar,6,9,DL_Guitar,0.2928237020969391,0
52,100,0.4772727272727273,853,0,69,DL_Guitar,6,8,DL_Guitar,0.30402296781539917,0
64,100,0.2,624,1,70,DL_Guitar,6,3,DL_Guitar,0.9934442043304443,0
61,100,0.1590909090909091,449,1,73,DL_Guitar,6,3,DL_Guitar,0.9998502731323242,1
58,100,0.4818181818181818,619,0,73,DL_Guitar,6,8,DL_Guitar,0.297871857881546,0
54,100,0.1409090909090909,739,0,73,DL_Guitar,6,2,DL_Guitar,0.32123321294784546,0
54,100,0.17727272727272728,844,0,73,DL_Guitar,6,3,DL_Guitar,0.3069695234298706,0
58,100,0.7818181818181819,13,1,74,DL_Guitar,6,13,DL_Guitar,0.9997730851173401,1
58,100,0.4636363636363636,246,1,74,DL_Guitar,6,7,DL_Guitar,0.4453994035720825,0
58,100,0.3,370,0,74,DL_Guitar,6,5,DL_Guitar,0.4506022036075592,0
69,100,0.2409090909090909,409,1,75,DL_Guitar,6,4,DL_Guitar,0.9931284189224243,1
56,100,0.5772727272727273,470,1,76,DL_Guitar,6,9,DL_Guitar,0.9924709796905518,0
83,100,0.1590909090909091,365,1,77,DL_Guitar,6,3,DL_Guitar,0.993314802646637,0
83,100,0.1,263,1,79,DL_Guitar,6,2,DL_Guitar,0.9996417760848999,1
59,100,0.17727272727272728,677,1,79,DL_Guitar,6,3,DL_Guitar,0.5484407544136047,0
54,100,0.5,475,1,80,DL_Guitar,6,8,DL_Guitar,0.9998113512992859,1
58,100,0.6181818181818182,593,0,80,DL_Guitar,6,10,DL_Guitar,0.3905097246170044,0
58,100,0.4772727272727273,756,0,80,DL_Guitar,6,8,DL_Guitar,0.4520302712917328,0
58,100,0.4409090909090909,3,1,81,DL_Guitar,6,7,DL_Guitar,0.999824583530426,1
54,100,0.4590909090909091,106,0,81,DL_Guitar,6,7,DL_Guitar,0.3505057692527771,0
58,100,0.4818181818181818,233,0,81,DL_Guitar,6,8,DL_Guitar,0.28506821393966675,0
62,100,0.3181818181818182,616,1,81,DL_Guitar,6,5,DL_Guitar,0.33726826310157776,0
56,100,0.3181818181818182,747,1,82,DL_Guitar,6,5,DL_Guitar,0.9996315240859985,1
56,100,0.11818181818181818,823,0,82,DL_Guitar,6,2,DL_Guitar,0.5509032607078552,0
56,100,0.5227272727272727,100,1,83,DL_Guitar,6,8,DL_Guitar,0.9998226761817932,1
56,100,0.4409090909090909,242,0,83,DL_Guitar,6,7,DL_Guitar,0.20729298889636993,0
56,100,1.0636363636363637,356,0,83,DL_Guitar,6,15,DL_Guitar,0.19022293388843536,0
56,100,0.4,637,1,83,DL_Guitar,6,6,DL_Guitar,0.23633843660354614,0
57,100,0.18181818181818182,796,0,83,DL_Guitar,6,3,DL_Guitar,0.2158040702342987,0
69,100,0.21818181818181817,612,1,84,DL_Guitar,6,3,DL_Guitar,0.9996278285980225,1
69,100,0.1409090909090909,686,0,84,DL_Guitar,6,2,DL_Guitar,0.5515345931053162,0
56,100,0.41818181818181815,127,1,85,DL_Guitar,6,7,DL_Guitar,0.9998362064361572,1
56,100,0.5409090909090909,466,1,85,DL_Guitar,6,9,DL_Guitar,0.341158002614975,0
56,100,0.37727272727272726,633,0,85,DL_Guitar,6,6,DL_Guitar,0.2963048815727234,0
69,100,0.3,726,0,85,DL_Guitar,6,5,DL_Guitar,0.30608880519866943,0
56,100,0.9409090909090909,9,1,86,DL_Guitar,6,15,DL_Guitar,0.9998230338096619,1
59,100,0.1,722,1,86,DL_Guitar,6,2,DL_Guitar,0.37551310658454895,0
59,100,0.2590909090909091,760,0,86,DL_Guitar,6,4,DL_Guitar,0.2906060814857483,0
59,100,0.1409090909090909,866,0,86,DL_Guitar,6,2,DL_Guitar,0.30619901418685913,0
59,100,0.11818181818181818,22,1,87,DL_Guitar,6,2,DL_Guitar,0.99983811378479,1
59,100,0.2818181818181818,223,0,87,DL_Guitar,6,5,DL_Guitar,0.20708774030208588,0
56,100,0.18181818181818182,606,1,87,DL_Guitar,6,3,DL_Guitar,0.19898243248462677,0
56,100,0.41818181818181815,660,0,87,DL_Guitar,6,7,DL_Guitar,0.20030300319194794,0
56,100,0.1,760,0,87,DL_Guitar,6,2,DL_Guitar,0.2087985724210739,0
56,100,0.3409090909090909,9,1,88,DL_Guitar,6,5,DL_Guitar,0.9998188614845276,1
56,100,0.3181818181818182,127,0,88,DL_Guitar,6,5,DL_Guitar,0.40899625420570374,0
56,100,0.11818181818181818,303,0,88,DL_Guitar,6,2,DL_Guitar,0.43725746870040894,0
69,100,0.13636363636363635,237,1,89,DL_Guitar,6,2,DL_Guitar,0.9932571649551392,0
52,100,0.17727272727272728,216,1,91,DL_Guitar,6,3,DL_Guitar,0.9998586177825928,1
56,100,0.4,377,0,91,DL_Guitar,6,6,DL_Guitar,0.3073514699935913,0
56,100,0.4772727272727273,480,0,91,DL_Guitar,6,8,DL_Guitar,0.2868907153606415,0
56,100,0.1590909090909091,637,0,91,DL_Guitar,6,3,DL_Guitar,0.3123963475227356,0
57,100,0.6818181818181818,26,1,92,DL_Guitar,6,11,DL_Guitar,0.9919923543930054,0
57,100,0.3,282,1,93,DL_Guitar,6,5,DL_Guitar,0.9927549958229065,1
57,100,0.6,223,1,94,DL_Guitar,6,10,DL_Guitar,0.9924775958061218,0
57,100,0.4,365,1,95,DL_Guitar,6,6,DL_Guitar,0.9998156428337097,1
57,100,0.5227272727272727,716,1,95,DL_Guitar,6,8,DL_Guitar,0.4117986559867859,0
52,100,0.3181818181818182,866,0,95,DL_Guitar,6,5,DL_Guitar,0.4386002719402313,0
52,100,0.11818181818181818,132,1,96,DL_Guitar,6,2,DL_Guitar,0.9998478889465332,1
52,100,0.11818181818181818,163,0,96,DL_Guitar,6,2,DL_Guitar,0.20465466380119324,0
52,100,0.1,193,0,96,DL_Guitar,6,2,DL_Guitar,0.19331805408000946,0
64,100,0.2636363636363636,246,0,96,DL_Guitar,6,4,DL_Guitar,0.19870281219482422,0
83,100,0.2590909090909091,392,0,96,DL_Guitar,6,4,DL_Guitar,0.1926814317703247,0
57,100,0.1590909090909091,496,1,97,DL_Guitar,6,3,DL_Guitar,0.9932082295417786,1
54,100,0.4590909090909091,857,1,99,DL_Guitar,6,7,DL_Guitar,0.9926038384437561,0
54,100,0.35909090909090907,373,1,100,DL_Guitar,6,6,DL_Guitar,0.9998239874839783,1
61,100,0.21818181818181817,603,0,100,DL_Guitar,6,3,DL_Guitar,0.4143395721912384,0
61,100,0.4818181818181818,739,0,100,DL_Guitar,6,8,DL_Guitar,0.4257682263851166,0
53,100,0.11818181818181818,282,1,0,DL_Guitar,6,2,DL_Guitar,0.9998525381088257,1
55,100,0.4409090909090909,317,0,0,DL_Guitar,6,7,DL_Guitar,0.30020061135292053,0
58,100,0.13636363636363635,634,1,0,DL_Guitar,6,2,DL_Guitar,0.3016563951969147,0
67,100,0.22272727272727272,695,0,0,DL_Guitar,6,4,DL_Guitar,0.3169262409210205,0
58,100,0.36363636363636365,180,1,1,DL_Guitar,6,6,DL_Guitar,0.9995595812797546,1
53,100,0.3409090909090909,559,1,1,DL_Guitar,6,5,DL_Guitar,0.563693642616272,0
70,100,0.2818181818181818,330,1,2,DL_Guitar,6,5,DL_Guitar,0.9997907280921936,1
72,100,0.2409090909090909,396,0,2,DL_Guitar,6,4,DL_Guitar,0.1422131508588791,0
70,100,0.2772727272727273,523,0,2,DL_Guitar,6,4,DL_Guitar,0.1180475503206253,0
72,100,0.2772727272727273,590,0,2,DL_Guitar,6,4,DL_Guitar,0.15259484946727753,0
53,100,0.12272727272727273,651,0,2,DL_Guitar,6,2,DL_Guitar,0.15120965242385864,0
70,100,0.8,726,0,2,DL_Guitar,6,13,DL_Guitar,0.1237737163901329,0
58,100,0.2590909090909091,21,1,3,DL_Guitar,6,4,DL_Guitar,0.9997434020042419,1
70,100,0.21818181818181817,83,0,3,DL_Guitar,6,3,DL_Guitar,0.08116237819194794,0
70,100,0.3181818181818182,140,0,3,DL_Guitar,6,5,DL_Guitar,0.07503177225589752,0
65,100,0.2772727272727273,470,1,3,DL_Guitar,6,4,DL_Guitar,0.08974730223417282,0
67,100,0.2772727272727273,537,0,3,DL_Guitar,6,4,DL_Guitar,0.09286381304264069,0
65,100,0.2818181818181818,663,0,3,DL_Guitar,6,5,DL_Guitar,0.10676251351833344,0
67,100,0.2409090909090909,730,0,3,DL_Guitar,6,4,DL_Guitar,0.09015383571386337,0
53,100,0.2409090909090909,0,1,4,DL_Guitar,6,4,DL_Guitar,0.9996776580810547,1
53,100,0.6227272727272727,79,0,4,DL_Guitar,6,10,DL_Guitar,0.034712571650743484,0
65,100,0.37727272727272726,215,0,4,DL_Guitar,6,6,DL_Guitar,0.02588793821632862,0
53,100,0.4590909090909091,299,0,4,DL_Guitar,6,7,DL_Guitar,0.021850712597370148,0
53,100,0.11818181818181818,493,0,4,DL_Guitar,6,2,DL_Guitar,0.02046857960522175,0
53,100,0.3181818181818182,527,0,4,DL_Guitar,6,5,DL_Guitar,0.019365323707461357,0
53,100,0.17727272727272728,611,0,4,DL_Guitar,6,3,DL_Guitar,0.024433186277747154,0
65,100,0.4,651,0,4,DL_Guitar,6,6,DL_Guitar,0.0301311444491148,0
53,100,0.2,739,0,4,DL_Guitar,6,3,DL_Guitar,0.039702046662569046,0
65,100,0.4590909090909091,782,0,4,DL_Guitar,6,7,DL_Guitar,0.038186557590961456,0
53,100,0.1409090909090909,493,1,5,DL_Guitar,6,2,DL_Guitar,0.9996389150619507,1
58,100,0.2,524,0,5,DL_Guitar,6,3,DL_Guitar,0.5350576639175415,0
53,100,0.3,255,1,6,DL_Guitar,6,5,DL_Guitar,0.9996309280395508,1
53,100,0.17727272727272728,647,1,6,DL_Guitar,6,3,DL_Guitar,0.5511196851730347,0
58,100,0.5181818181818182,457,1,9,DL_Guitar,6,8,DL_Guitar,0.9920560717582703,0
53,100,0.18181818181818182,783,1,10,DL_Guitar,6,3,DL_Guitar,0.9996168613433838,1
53,100,0.2590909090909091,835,0,10,DL_Guitar,6,4,DL_Guitar,0.5537828207015991,0
63,100,0.1,259,1,13,DL_Guitar,6,2,DL_Guitar,0.993269145488739,0
53,100,0.11818181818181818,668,1,14,DL_Guitar,6,2,DL_Guitar,0.9933416247367859,0
55,100,0.5636363636363636,290,1,15,DL_Guitar,6,9,DL_Guitar,0.999830961227417,1
53,100,0.38181818181818183,519,0,15,DL_Guitar,6,6,DL_Guitar,0.3441303074359894,0
53,100,0.18181818181818182,739,0,15,DL_Guitar,6,3,DL_Guitar,0.30311572551727295,0
53,100,0.17727272727272728,801,0,15,DL_Guitar,6,3,DL_Guitar,0.30768054723739624,0
53,100,0.22272727272727272,48,1,16,DL_Guitar,6,4,DL_Guitar,0.9998428821563721,1
53,100,0.11818181818181818,308,1,16,DL_Guitar,6,2,DL_Guitar,0.20632797479629517,0
53,100,0.12272727272727273,343,0,16,DL_Guitar,6,2,DL_Guitar,0.1932862251996994,0
53,100,0.2590909090909091,436,0,16,DL_Guitar,6,4,DL_Guitar,0.2001185119152069,0
53,100,0.2772727272727273,700,1,16,DL_Guitar,6,4,DL_Guitar,0.19913798570632935,0
53,100,0.17727272727272728,546,1,18,DL_Guitar,6,3,DL_Guitar,0.9933449029922485,0
53,100,0.2409090909090909,505,1,19,DL_Guitar,6,4,DL_Guitar,0.9996542930603027,1
53,100,0.2590909090909091,681,0,19,DL_Guitar,6,4,DL_Guitar,0.5479961633682251,0
53,100,0.13636363636363635,150,1,20,DL_Guitar,6,2,DL_Guitar,0.9996349811553955,1
58,100,0.2818181818181818,461,1,20,DL_Guitar,6,5,DL_Guitar,0.5358914136886597,0
53,100,0.43636363636363634,810,1,21,DL_Guitar,6,7,DL_Guitar,0.9930608868598938,0
53,100,0.2,162,1,22,DL_Guitar,6,3,DL_Guitar,0.9998375177383423,1
53,100,0.2,299,0,22,DL_Guitar,6,3,DL_Guitar,0.40512213110923767,0
53,100,0.13636363636363635,436,0,22,DL_Guitar,6,2,DL_Guitar,0.4235822558403015,0
58,100,0.11818181818181818,0,1,23,DL_Guitar,6,2,DL_Guitar,0.9998103976249695,1
63,100,0.22272727272727272,100,0,23,DL_Guitar,6,4,DL_Guitar,0.42899665236473083,0
63,100,0.18181818181818182,179,0,23,DL_Guitar,6,3,DL_Guitar,0.434014230966568,0
53,100,0.1590909090909091,430,1,26,DL_Guitar,6,3,DL_Guitar,0.9998123049736023,1
53,100,0.4818181818181818,474,0,26,DL_Guitar,6,8,DL_Guitar,0.11530105024576187,0
53,100,0.11818181818181818,700,0,26,DL_Guitar,6,2,DL_Guitar,0.12841537594795227,0
53,100,0.1,756,0,26,DL_Guitar,6,2,DL_Guitar,0.13674716651439667,0
53,100,0.2590909090909091,801,0,26,DL_Guitar,6,4,DL_Guitar,0.13657285273075104,0
53,100,0.2818181818181818,870,0,26,DL_Guitar,6,5,DL_Guitar,0.1304696500301361,0
53,100,0.21818181818181817,131,1,27,DL_Guitar,6,3,DL_Guitar,0.9932848215103149,0
63,100,0.33636363636363636,106,1,28,DL_Guitar,6,5,DL_Guitar,0.9998195767402649,1
70,100,0.2772727272727273,260,0,28,DL_Guitar,6,4,DL_Guitar,0.3931925892829895,0
53,100,0.1,426,0,28,DL_Guitar,6,2,DL_Guitar,0.45855724811553955,0
70,100,0.1409090909090909,409,1,29,DL_Guitar,6,2,DL_Guitar,0.9927892088890076,0
53,100,0.2409090909090909,607,1,30,DL_Guitar,6,4,DL_Guitar,0.9995948672294617,1
58,100,0.8409090909090909,866,1,30,DL_Guitar,6,13,DL_Guitar,0.5304042100906372,0
58,100,0.1409090909090909,405,1,31,DL_Guitar,6,2,DL_Guitar,0.992973804473877,0
58,100,0.11818181818181818,43,1,33,DL_Guitar,6,2,DL_Guitar,0.999821126461029,1
58,100,1.0,118,0,33,DL_Guitar,6,15,DL_Guitar,0.18554221093654633,0
53,100,0.2,364,1,33,DL_Guitar,6,3,DL_Guitar,0.2405022829771042,0
58,100,0.21818181818181817,616,1,33,DL_Guitar,6,3,DL_Guitar,0.20951281487941742,0
58,100,0.17727272727272728,765,0,33,DL_Guitar,6,3,DL_Guitar,0.2265273779630661,0
53,100,0.2818181818181818,123,1,35,DL_Guitar,6,5,DL_Guitar,0.9931356906890869,0
55,100,0.1409090909090909,483,1,36,DL_Guitar,6,2,DL_Guitar,0.9996305704116821,1
55,100,0.2,818,1,36,DL_Guitar,6,3,DL_Guitar,0.5437790751457214,0
55,100,0.2409090909090909,34,1,37,DL_Guitar,6,4,DL_Guitar,0.9998288154602051,1
55,100,0.1409090909090909,228,0,37,DL_Guitar,6,2,DL_Guitar,0.21464912593364716,0
53,100,0.1590909090909091,616,1,37,DL_Guitar,6,3,DL_Guitar,0.19980771839618683,0
53,100,0.2,678,0,37,DL_Guitar,6,3,DL_Guitar,0.20882637798786163,0
53,100,0.2,866,0,37,DL_Guitar,6,3,DL_Guitar,0.20699454843997955,0
53,100,0.2,114,1,38,DL_Guitar,6,3,DL_Guitar,0.9998356103897095,1
53,100,0.2590909090909091,298,0,38,DL_Guitar,6,4,DL_Guitar,0.4030555486679077,0
53,100,0.32272727272727275,431,0,38,DL_Guitar,6,5,DL_Guitar,0.42522260546684265,0
53,100,0.22272727272727272,518,1,39,DL_Guitar,6,4,DL_Guitar,0.9933515191078186,0
53,100,0.3,13,1,40,DL_Guitar,6,5,DL_Guitar,0.9998273253440857,1
58,100,0.3181818181818182,338,1,40,DL_Guitar,6,5,DL_Guitar,0.405598908662796,0
58,100,0.38181818181818183,571,1,40,DL_Guitar,6,6,DL_Guitar,0.4252655506134033,0
53,100,0.2409090909090909,813,1,41,DL_Guitar,6,4,DL_Guitar,0.9935715198516846,1
53,100,0.2,298,1,42,DL_Guitar,6,3,DL_Guitar,0.9934234619140625,0
53,100,0.4636363636363636,378,1,44,DL_Guitar,6,7,DL_Guitar,0.999631404876709,1
53,100,0.1409090909090909,483,0,44,DL_Guitar,6,2,DL_Guitar,0.5566912293434143,0
53,100,0.17727272727272728,193,1,46,DL_Guitar,6,3,DL_Guitar,0.9996359348297119,1
53,100,0.3409090909090909,246,0,46,DL_Guitar,6,5,DL_Guitar,0.5463639497756958,0
53,100,0.4590909090909091,396,1,47,DL_Guitar,6,7,DL_Guitar,0.9998134970664978,1
53,100,0.7181818181818181,655,1,47,DL_Guitar,6,11,DL_Guitar,0.4060949683189392,0
53,100,0.6818181818181818,839,0,47,DL_Guitar,6,11,DL_Guitar,0.43366727232933044,0
58,100,0.5409090909090909,289,1,48,DL_Guitar,6,9,DL_Guitar,0.9997962117195129,1
53,100,0.17727272727272728,536,1,48,DL_Guitar,6,3,DL_Guitar,0.45702171325683594,0
57,100,0.21818181818181817,791,1,48,DL_Guitar,6,3,DL_Guitar,0.4267476201057434,0
53,100,0.21818181818181817,286,1,49,DL_Guitar,6,3,DL_Guitar,0.9998353719711304,1
54,100,0.11818181818181818,616,1,49,DL_Guitar,6,2,DL_Guitar,0.4070626199245453,0
53,100,0.2590909090909091,678,0,49,DL_Guitar,6,4,DL_Guitar,0.42364224791526794,0
53,100,0.2,128,1,50,DL_Guitar,6,3,DL_Guitar,0.9998445510864258,1
53,100,0.18181818181818182,286,0,50,DL_Guitar,6,3,DL_Guitar,0.2076731026172638,0
53,100,0.11818181818181818,330,0,50,DL_Guitar,6,2,DL_Guitar,0.19722147285938263,0
53,100,0.1590909090909091,370,0,50,DL_Guitar,6,3,DL_Guitar,0.2040046602487564,0
70,100,0.11818181818181818,791,1,50,DL_Guitar,6,2,DL_Guitar,0.19266584515571594,0
58,100,0.1409090909090909,681,1,56,DL_Guitar,6,2,DL_Guitar,0.9930570125579834,0
53,100,0.11818181818181818,396,1,58,DL_Guitar,6,2,DL_Guitar,0.99985671043396,1
53,100,0.1409090909090909,509,0,58,DL_Guitar,6,2,DL_Guitar,0.3252408802509308,0
53,100,0.37727272727272726,646,0,58,DL_Guitar,6,6,DL_Guitar,0.28212103247642517,0
58,100,0.11818181818181818,858,0,58,DL_Guitar,6,2,DL_Guitar,0.30094704031944275,0
53,100,0.4,150,1,59,DL_Guitar,6,6,DL_Guitar,0.9996137022972107,1
58,100,0.12272727272727273,276,0,59,DL_Guitar,6,2,DL_Guitar,0.5436723232269287,0
63,100,0.4409090909090909,703,1,74,DL_Guitar,6,7,DL_Guitar,0.9995920062065125,1
63,100,0.3409090909090909,826,0,74,DL_Guitar,6,5,DL_Guitar,0.55339515209198,0
53,100,0.3409090909090909,487,1,75,DL_Guitar,6,5,DL_Guitar,0.9998338222503662,1
53,100,0.12272727272727273,805,1,75,DL_Guitar,6,2,DL_Guitar,0.41529250144958496,0
53,100,0.23636363636363636,876,0,75,DL_Guitar,6,4,DL_Guitar,0.4212783873081207,0
58,100,0.1409090909090909,770,1,86,DL_Guitar,6,2,DL_Guitar,0.9925820827484131,0
58,100,0.4590909090909091,132,1,87,DL_Guitar,6,7,DL_Guitar,0.9995712637901306,1
60,100,0.18181818181818182,487,1,87,DL_Guitar,6,3,DL_Guitar,0.5737051963806152,0
53,100,0.1590909090909091,153,1,88,DL_Guitar,6,3,DL_Guitar,0.999843955039978,1
53,100,0.22272727272727272,202,0,88,DL_Guitar,6,4,DL_Guitar,0.20131386816501617,0
53,100,0.3,286,0,88,DL_Guitar,6,5,DL_Guitar,0.19619065523147583,0
62,100,0.33636363636363636,523,1,88,DL_Guitar,6,5,DL_Guitar,0.2049449384212494,0
53,100,0.16363636363636364,839,1,88,DL_Guitar,6,3,DL_Guitar,0.20508533716201782,0
58,100,0.5409090909090909,197,1,90,DL_Guitar,6,9,DL_Guitar,0.999795138835907,1
58,100,0.1,509,1,90,DL_Guitar,6,2,DL_Guitar,0.4524421989917755,0
62,100,0.1590909090909091,810,1,90,DL_Guitar,6,3,DL_Guitar,0.4405367374420166,0
62,100,0.22272727272727272,246,1,91,DL_Guitar,6,4,DL_Guitar,0.9996138215065002,1
53,100,1.040909090909091,703,1,91,DL_Guitar,6,15,DL_Guitar,0.531924307346344,0
53,100,0.18181818181818182,289,1,92,DL_Guitar,6,3,DL_Guitar,0.9996367692947388,1
53,100,0.4,430,0,92,DL_Guitar,6,6,DL_Guitar,0.5465919375419617,0
60,100,0.33636363636363636,348,1,1,DL_Guitar,6,5,DL_Guitar,0.999840497970581,1
55,100,0.1409090909090909,431,0,1,DL_Guitar,6,2,DL_Guitar,0.21236735582351685,0
60,100,0.1,487,0,1,DL_Guitar,6,2,DL_Guitar,0.2032424956560135,0
52,100,0.2,590,0,1,DL_Guitar,6,3,DL_Guitar,0.20981648564338684,0
55,100,0.38181818181818183,849,1,1,DL_Guitar,6,6,DL_Guitar,0.1883833110332489,0
53,100,0.11818181818181818,712,1,3,DL_Guitar,6,2,DL_Guitar,0.9935125708580017,0
53,100,0.1409090909090909,74,1,4,DL_Guitar,6,2,DL_Guitar,0.9998371601104736,1
55,100,0.3,114,0,4,DL_Guitar,6,5,DL_Guitar,0.3932601809501648,0
60,100,0.37727272727272726,678,1,4,DL_Guitar,6,6,DL_Guitar,0.4312768876552582,0
60,100,0.3181818181818182,220,1,5,DL_Guitar,6,5,DL_Guitar,0.9998113512992859,1
60,100,0.1409090909090909,311,0,5,DL_Guitar,6,2,DL_Guitar,0.12961074709892273,0
57,100,0.3,360,0,5,DL_Guitar,6,5,DL_Guitar,0.1158851906657219,0
55,100,0.2,431,0,5,DL_Guitar,6,3,DL_Guitar,0.14022120833396912,0
55,100,0.2409090909090909,716,1,5,DL_Guitar,6,4,DL_Guitar,0.14207357168197632,0
55,100,0.3409090909090909,774,0,5,DL_Guitar,6,5,DL_Guitar,0.12896372377872467,0
55,100,0.6227272727272727,465,1,6,DL_Guitar,6,10,DL_Guitar,0.9995920062065125,1
57,100,0.3409090909090909,606,0,6,DL_Guitar,6,5,DL_Guitar,0.5581406354904175,0
60,100,0.1,40,1,7,DL_Guitar,6,2,DL_Guitar,0.999853253364563,1
55,100,0.2818181818181818,79,0,7,DL_Guitar,6,5,DL_Guitar,0.3045707941055298,0
59,100,0.4818181818181818,703,1,7,DL_Guitar,6,8,DL_Guitar,0.2898406386375427,0
55,100,0.2772727272727273,844,0,7,DL_Guitar,6,4,DL_Guitar,0.3097413182258606,0
55,100,0.3,333,1,8,DL_Guitar,6,5,DL_Guitar,0.9998137354850769,1
55,100,0.17727272727272728,470,0,8,DL_Guitar,6,3,DL_Guitar,0.4284747838973999,0
54,100,0.1,656,0,8,DL_Guitar,6,2,DL_Guitar,0.4357095956802368,0
60,100,0.1409090909090909,65,1,9,DL_Guitar,6,2,DL_Guitar,0.9998401403427124,1
60,100,0.2818181818181818,135,0,9,DL_Guitar,6,5,DL_Guitar,0.4027189314365387,0
57,100,0.3409090909090909,211,0,9,DL_Guitar,6,5,DL_Guitar,0.4140942096710205,0
60,100,0.2,677,1,10,DL_Guitar,6,3,DL_Guitar,0.9996424913406372,1
55,100,0.4818181818181818,818,0,10,DL_Guitar,6,8,DL_Guitar,0.532394528388977,0
54,100,0.2818181818181818,355,1,11,DL_Guitar,6,5,DL_Guitar,0.9929234981536865,0
55,100,0.3,180,1,12,DL_Guitar,6,5,DL_Guitar,0.9997512698173523,1
55,100,0.2,250,0,12,DL_Guitar,6,3,DL_Guitar,0.08412184566259384,0
52,100,0.7181818181818181,360,0,12,DL_Guitar,6,11,DL_Guitar,0.07352127134799957,0
55,100,0.2818181818181818,527,0,12,DL_Guitar,6,5,DL_Guitar,0.08193114399909973,0
57,100,0.6,594,0,12,DL_Guitar,6,10,DL_Guitar,0.09595080465078354,0
52,100,0.3,739,0,12,DL_Guitar,6,5,DL_Guitar,0.1111675575375557,0
55,100,0.9409090909090909,804,0,12,DL_Guitar,6,15,DL_Guitar,0.08393757790327072,0
52,100,0.3,140,1,13,DL_Guitar,6,5,DL_Guitar,0.999843955039978,1
55,100,1.2818181818181817,211,0,13,DL_Guitar,6,15,DL_Guitar,0.2693255543708801,0
55,100,0.1409090909090909,505,1,13,DL_Guitar,6,2,DL_Guitar,0.340050607919693,0
60,100,0.1590909090909091,783,1,13,DL_Guitar,6,3,DL_Guitar,0.31687507033348083,0
54,100,0.21818181818181817,175,1,14,DL_Guitar,6,3,DL_Guitar,0.9998434782028198,1
62,100,0.1,338,0,14,DL_Guitar,6,2,DL_Guitar,0.21201205253601074,0
52,100,0.4409090909090909,448,0,14,DL_Guitar,6,7,DL_Guitar,0.19155576825141907,0
52,100,0.3409090909090909,584,0,14,DL_Guitar,6,5,DL_Guitar,0.2100152224302292,0
59,100,0.6,663,0,14,DL_Guitar,6,10,DL_Guitar,0.19269311428070068,0
57,100,0.32272727272727275,409,1,15,DL_Guitar,6,5,DL_Guitar,0.999617338180542,1
59,100,0.3181818181818182,479,0,15,DL_Guitar,6,5,DL_Guitar,0.5525901913642883,0
57,100,0.3,656,1,16,DL_Guitar,6,5,DL_Guitar,0.999619722366333,1
59,100,0.33636363636363636,721,0,16,DL_Guitar,6,5,DL_Guitar,0.5534157752990723,0
55,100,0.1409090909090909,268,1,17,DL_Guitar,6,2,DL_Guitar,0.9997968077659607,1
57,100,0.6,343,0,17,DL_Guitar,6,10,DL_Guitar,0.12013435363769531,0
59,100,0.6,480,0,17,DL_Guitar,6,10,DL_Guitar,0.1272447109222412,0
62,100,0.4,611,0,17,DL_Guitar,6,6,DL_Guitar,0.14090126752853394,0
62,100,0.1409090909090909,804,0,17,DL_Guitar,6,2,DL_Guitar,0.1554740071296692,0
62,100,0.18181818181818182,870,0,17,DL_Guitar,6,3,DL_Guitar,0.13752949237823486,0
55,100,0.1590909090909091,119,1,18,DL_Guitar,6,3,DL_Guitar,0.9998347759246826,1
62,100,0.21818181818181817,237,0,18,DL_Guitar,6,3,DL_Guitar,0.2123195081949234,0
67,100,0.11818181818181818,326,0,18,DL_Guitar,6,2,DL_Guitar,0.19398312270641327,0
55,100,0.3,356,0,18,DL_Guitar,6,5,DL_Guitar,0.2075381726026535,0
79,100,0.12272727272727273,422,0,18,DL_Guitar,6,2,DL_Guitar,0.20884357392787933,0
55,100,0.8409090909090909,540,1,19,DL_Guitar,6,13,DL_Guitar,0.9918946623802185,0
62,100,0.6636363636363637,223,1,20,DL_Guitar,6,11,DL_Guitar,0.9997949004173279,1
57,100,0.2772727272727273,413,0,20,DL_Guitar,6,4,DL_Guitar,0.1314363330602646,0
62,100,0.1409090909090909,474,0,20,DL_Guitar,6,2,DL_Guitar,0.12525446712970734,0
62,100,0.1409090909090909,686,0,20,DL_Guitar,6,2,DL_Guitar,0.14367863535881042,0
55,100,0.3,725,0,20,DL_Guitar,6,5,DL_Guitar,0.138627827167511,0
52,100,0.5409090909090909,814,0,20,DL_Guitar,6,9,DL_Guitar,0.1349780261516571,0
55,100,0.6409090909090909,57,1,21,DL_Guitar,6,10,DL_Guitar,0.9996839761734009,1
55,100,0.18181818181818182,289,1,21,DL_Guitar,6,3,DL_Guitar,0.06296359747648239,0
55,100,0.38181818181818183,333,0,21,DL_Guitar,6,6,DL_Guitar,0.04755576699972153,0
55,100,0.1409090909090909,426,0,21,DL_Guitar,6,2,DL_Guitar,0.05343161150813103,0
55,100,0.12272727272727273,466,0,21,DL_Guitar,6,2,DL_Guitar,0.05498626455664635,0
54,100,0.11818181818181818,756,1,21,DL_Guitar,6,2,DL_Guitar,0.06189160421490669,0
62,100,0.1,787,0,21,DL_Guitar,6,2,DL_Guitar,0.06748520582914352,0
54,100,0.2590909090909091,810,0,21,DL_Guitar,6,4,DL_Guitar,0.0619208887219429,0
55,100,0.3181818181818182,83,1,22,DL_Guitar,6,5,DL_Guitar,0.9998095631599426,1
55,100,0.4,440,1,22,DL_Guitar,6,6,DL_Guitar,0.41887128353118896,0
55,100,0.2818181818181818,642,0,22,DL_Guitar,6,5,DL_Guitar,0.43724334239959717,0
62,100,0.1,21,1,23,DL_Guitar,6,2,DL_Guitar,0.999815046787262,1
62,100,0.1,237,0,23,DL_Guitar,6,2,DL_Guitar,0.12689988315105438,0
55,100,0.3409090909090909,330,0,23,DL_Guitar,6,5,DL_Guitar,0.11631311476230621,0
64,100,0.5772727272727273,426,0,23,DL_Guitar,6,9,DL_Guitar,0.13923043012619019,0
55,100,0.2409090909090909,752,1,23,DL_Guitar,6,4,DL_Guitar,0.14123980700969696,0
52,100,0.5,814,0,23,DL_Guitar,6,8,DL_Guitar,0.13020925223827362,0
62,100,0.2,220,1,24,DL_Guitar,6,3,DL_Guitar,0.9998549222946167,1
55,100,0.2772727272727273,567,1,24,DL_Guitar,6,4,DL_Guitar,0.3073159456253052,0
55,100,0.3,642,0,24,DL_Guitar,6,5,DL_Guitar,0.3002651333808899,0
62,100,0.5227272727272727,796,0,24,DL_Guitar,6,8,DL_Guitar,0.30806827545166016,0
55,100,0.6,44,1,25,DL_Guitar,6,10,DL_Guitar,0.9995701909065247,1
62,100,0.32272727272727275,179,0,25,DL_Guitar,6,5,DL_Guitar,0.5665265917778015,0
64,100,0.2818181818181818,3,1,26,DL_Guitar,6,5,DL_Guitar,0.9997350573539734,1
52,100,0.3181818181818182,75,0,26,DL_Guitar,6,5,DL_Guitar,0.055101774632930756,0
55,100,0.5590909090909091,144,0,26,DL_Guitar,6,9,DL_Guitar,0.04541914537549019,0
55,100,1.1,281,0,26,DL_Guitar,6,15,DL_Guitar,0.04500460624694824,0
54,100,0.1,540,1,26,DL_Guitar,6,2,DL_Guitar,0.06315887719392776,0
54,100,0.11818181818181818,602,0,26,DL_Guitar,6,2,DL_Guitar,0.062071479856967926,0
54,100,0.6409090909090909,691,0,26,DL_Guitar,6,10,DL_Guitar,0.06514345854520798,0
62,100,0.1409090909090909,862,0,26,DL_Guitar,6,2,DL_Guitar,0.068705715239048,0
62,100,0.43636363636363634,17,1,27,DL_Guitar,6,7,DL_Guitar,0.9998321533203125,1
54,100,0.22272727272727272,113,0,27,DL_Guitar,6,4,DL_Guitar,0.2160934954881668,0
55,100,0.41818181818181815,162,0,27,DL_Guitar,6,7,DL_Guitar,0.19019754230976105,0
55,100,0.5181818181818182,413,1,27,DL_Guitar,6,8,DL_Guitar,0.20595867931842804,0
55,100,0.11818181818181818,756,1,27,DL_Guitar,6,2,DL_Guitar,0.2193136364221573,0
62,100,0.12272727272727273,179,1,28,DL_Guitar,6,2,DL_Guitar,0.9996045231819153,1
55,100,1.4181818181818182,418,1,28,DL_Guitar,6,15,DL_Guitar,0.5202425122261047,0
62,100,0.1,285,1,29,DL_Guitar,6,2,DL_Guitar,0.9998267292976379,1
69,100,0.42272727272727273,532,1,29,DL_Guitar,6,7,DL_Guitar,0.39245808124542236,0
69,100,0.2590909090909091,633,0,29,DL_Guitar,6,4,DL_Guitar,0.43820658326148987,0
67,100,1.2181818181818183,66,1,39,DL_Guitar,6,15,DL_Guitar,0.9997946619987488,1
67,100,0.3,356,1,39,DL_Guitar,6,5,DL_Guitar,0.2391318678855896,0
67,100,0.7363636363636363,480,0,39,DL_Guitar,6,12,DL_Guitar,0.19830071926116943,0
67,100,0.8,678,0,39,DL_Guitar,6,13,DL_Guitar,0.21455779671669006,0
67,100,0.18181818181818182,858,0,39,DL_Guitar,6,3,DL_Guitar,0.23463545739650726,0
55,100,0.6409090909090909,316,1,40,DL_Guitar,6,10,DL_Guitar,0.9922187328338623,0
62,100,0.5818181818181818,153,1,41,DL_Guitar,6,9,DL_Guitar,0.9998428821563721,1
52,100,1.2,286,0,41,DL_Guitar,6,15,DL_Guitar,0.30175456404685974,0
52,100,0.18181818181818182,619,1,41,DL_Guitar,6,3,DL_Guitar,0.3288940191268921,0
52,100,0.4818181818181818,664,0,41,DL_Guitar,6,8,DL_Guitar,0.30914780497550964,0
55,100,0.35909090909090907,343,1,43,DL_Guitar,6,6,DL_Guitar,0.999809205532074,1
55,100,0.5227272727272727,453,0,43,DL_Guitar,6,8,DL_Guitar,0.406998872756958,0
62,100,0.5409090909090909,641,0,43,DL_Guitar,6,9,DL_Guitar,0.4401780962944031,0
57,100,0.1409090909090909,251,1,44,DL_Guitar,6,2,DL_Guitar,0.999834418296814,1
69,100,0.1409090909090909,453,0,44,DL_Guitar,6,2,DL_Guitar,0.4005420506000519,0
69,100,0.1,606,0,44,DL_Guitar,6,2,DL_Guitar,0.42751434445381165,0
59,100,0.12272727272727273,254,1,45,DL_Guitar,6,2,DL_Guitar,0.999852180480957,1
55,100,0.5181818181818182,303,0,45,DL_Guitar,6,8,DL_Guitar,0.2906697988510132,0
67,100,0.1590909090909091,440,0,45,DL_Guitar,6,3,DL_Guitar,0.3101992905139923,0
62,100,0.2409090909090909,641,0,45,DL_Guitar,6,4,DL_Guitar,0.3126161992549896,0
52,100,1.9181818181818182,383,1,46,DL_Guitar,6,15,DL_Guitar,0.9902477860450745,0
62,100,0.1409090909090909,21,1,47,DL_Guitar,6,2,DL_Guitar,0.9998561143875122,1
55,100,0.17727272727272728,348,1,47,DL_Guitar,6,3,DL_Guitar,0.3061964213848114,0
55,100,1.018181818181818,391,0,47,DL_Guitar,6,15,DL_Guitar,0.26837942004203796,0
60,100,0.1590909090909091,813,1,47,DL_Guitar,6,3,DL_Guitar,0.344004362821579,0
62,100,0.23636363636363636,238,1,48,DL_Guitar,6,4,DL_Guitar,0.9996411800384521,1
62,100,0.4,871,1,48,DL_Guitar,6,6,DL_Guitar,0.5456036329269409,0
62,100,1.6,101,1,49,DL_Guitar,6,15,DL_Guitar,0.9997655749320984,1
67,100,0.2590909090909091,453,1,49,DL_Guitar,6,4,DL_Guitar,0.4779270589351654,0
62,100,0.18181818181818182,791,1,49,DL_Guitar,6,3,DL_Guitar,0.4457889199256897,0
62,100,1.040909090909091,0,1,50,DL_Guitar,6,15,DL_Guitar,0.9995483756065369,1
74,100,0.12272727272727273,254,1,50,DL_Guitar,6,2,DL_Guitar,0.5812565088272095,0
67,100,0.7818181818181819,220,1,76,DL_Guitar,6,13,DL_Guitar,0.999790608882904,1
67,100,0.32272727272727275,422,0,76,DL_Guitar,6,5,DL_Guitar,0.4400803744792938,0
67,100,0.4,832,1,76,DL_Guitar,6,6,DL_Guitar,0.4367500841617584,0
62,100,0.1,43,1,77,DL_Guitar,6,2,DL_Guitar,0.99981290102005,1
62,100,0.35909090909090907,150,0,77,DL_Guitar,6,6,DL_Guitar,0.1224420815706253,0
55,100,0.11818181818181818,360,0,77,DL_Guitar,6,2,DL_Guitar,0.1224634051322937,0
55,100,0.17727272727272728,392,0,77,DL_Guitar,6,3,DL_Guitar,0.1369970142841339,0
62,100,0.3409090909090909,690,1,77,DL_Guitar,6,5,DL_Guitar,0.14937151968479156,0
67,100,0.7818181818181819,770,0,77,DL_Guitar,6,13,DL_Guitar,0.12919911742210388,0
62,100,0.32272727272727275,69,1,78,DL_Guitar,6,5,DL_Guitar,0.9998481273651123,1
62,100,0.16363636363636364,422,1,78,DL_Guitar,6,3,DL_Guitar,0.33360856771469116,0
55,100,0.4590909090909091,475,0,78,DL_Guitar,6,7,DL_Guitar,0.28888341784477234,0
55,100,0.5227272727272727,597,0,78,DL_Guitar,6,8,DL_Guitar,0.3048047423362732,0
55,100,0.1590909090909091,22,1,79,DL_Guitar,6,3,DL_Guitar,0.9997991919517517,1
52,100,0.13636363636363635,62,0,79,DL_Guitar,6,2,DL_Guitar,0.1366095393896103,0
55,100,0.759090909090909,110,0,79,DL_Guitar,6,12,DL_Guitar,0.10946618020534515,0
55,100,0.5,286,0,79,DL_Guitar,6,8,DL_Guitar,0.14467056095600128,0
55,100,0.2772727272727273,480,0,79,DL_Guitar,6,4,DL_Guitar,0.15458866953849792,0
55,100,0.2636363636363636,839,1,79,DL_Guitar,6,4,DL_Guitar,0.1361846625804901,0
55,100,0.16363636363636364,47,1,80,DL_Guitar,6,3,DL_Guitar,0.9997872710227966,1
62,100,0.9409090909090909,233,0,80,DL_Guitar,6,15,DL_Guitar,0.11785020679235458,0
67,100,0.3,453,0,80,DL_Guitar,6,5,DL_Guitar,0.13091032207012177,0
62,100,0.5181818181818182,523,0,80,DL_Guitar,6,8,DL_Guitar,0.14007799327373505,0
67,100,0.1409090909090909,660,0,80,DL_Guitar,6,2,DL_Guitar,0.1531876176595688,0
62,100,0.13636363636363635,810,0,80,DL_Guitar,6,2,DL_Guitar,0.14096757769584656,0
55,100,0.3181818181818182,40,1,81,DL_Guitar,6,5,DL_Guitar,0.9998018145561218,1
55,100,0.2772727272727273,470,1,81,DL_Guitar,6,4,DL_Guitar,0.43023303151130676,0
55,100,1.3590909090909091,590,0,81,DL_Guitar,6,15,DL_Guitar,0.4132102131843567,0
55,100,0.3,87,1,82,DL_Guitar,6,5,DL_Guitar,0.9997907280921936,1
62,100,0.5,312,0,82,DL_Guitar,6,8,DL_Guitar,0.13116751611232758,0
62,100,0.5590909090909091,436,0,82,DL_Guitar,6,9,DL_Guitar,0.12138395011425018,0
62,100,0.2,722,1,82,DL_Guitar,6,3,DL_Guitar,0.14755699038505554,0
62,100,0.13636363636363635,810,0,82,DL_Guitar,6,2,DL_Guitar,0.14529339969158173,0
57,100,0.2409090909090909,839,0,82,DL_Guitar,6,4,DL_Guitar,0.13054724037647247,0
67,100,0.4818181818181818,13,1,83,DL_Guitar,6,8,DL_Guitar,0.9998000264167786,1
57,100,1.3227272727272728,386,1,83,DL_Guitar,6,15,DL_Guitar,0.38916173577308655,0
62,100,0.13636363636363635,787,1,83,DL_Guitar,6,2,DL_Guitar,0.46965113282203674,0
59,100,0.37727272727272726,83,1,84,DL_Guitar,6,6,DL_Guitar,0.9998213648796082,1
59,100,0.2590909090909091,303,0,84,DL_Guitar,6,4,DL_Guitar,0.21474029123783112,0
59,100,0.2772727272727273,404,0,84,DL_Guitar,6,4,DL_Guitar,0.20608197152614594,0
59,100,0.41818181818181815,502,0,84,DL_Guitar,6,7,DL_Guitar,0.21050138771533966,0
62,100,0.9,716,0,84,DL_Guitar,6,14,DL_Guitar,0.20943526923656464,0
55,100,0.17727272727272728,127,1,85,DL_Guitar,6,3,DL_Guitar,0.9998119473457336,1
57,100,0.2590909090909091,616,1,85,DL_Guitar,6,4,DL_Guitar,0.41976067423820496,0
57,100,0.17727272727272728,700,0,85,DL_Guitar,6,3,DL_Guitar,0.4344998896121979,0
55,100,0.5409090909090909,0,1,86,DL_Guitar,6,9,DL_Guitar,0.9997345805168152,1
67,100,0.2,123,0,86,DL_Guitar,6,3,DL_Guitar,0.088134765625,0
67,100,0.8363636363636363,172,0,86,DL_Guitar,6,13,DL_Guitar,0.07297959178686142,0
55,100,0.1409090909090909,377,0,86,DL_Guitar,6,2,DL_Guitar,0.09342459589242935,0
55,100,1.6181818181818182,449,0,86,DL_Guitar,6,15,DL_Guitar,0.08186811208724976,0
67,100,0.1590909090909091,805,1,86,DL_Guitar,6,3,DL_Guitar,0.12892413139343262,0
55,100,0.6,853,0,86,DL_Guitar,6,10,DL_Guitar,0.09297250956296921,0
67,100,0.3,242,1,87,DL_Guitar,6,5,DL_Guitar,0.999593198299408,1
67,100,0.2590909090909091,475,1,87,DL_Guitar,6,4,DL_Guitar,0.5587193369865417,0
57,100,0.5818181818181818,220,1,88,DL_Guitar,6,9,DL_Guitar,0.9995823502540588,1
55,100,0.13636363636363635,612,1,88,DL_Guitar,6,2,DL_Guitar,0.5626164674758911,0
59,100,0.2590909090909091,106,1,89,DL_Guitar,6,4,DL_Guitar,0.999823272228241,1
59,100,0.6,176,0,89,DL_Guitar,6,10,DL_Guitar,0.39107686281204224,0
59,100,0.1590909090909091,320,0,89,DL_Guitar,6,3,DL_Guitar,0.4442025125026703,0
55,100,0.5181818181818182,537,1,0,DL_Warm_Pop_Rock_Guitar,6,8,DL_Warm_Pop_Rock_Guitar,0.9995514750480652,1
55,100,0.6590909090909091,845,1,0,DL_Warm_Pop_Rock_Guitar,6,11,DL_Warm_Pop_Rock_Guitar,0.5504307746887207,0
62,100,0.4636363636363636,576,1,1,DL_Warm_Pop_Rock_Guitar,6,7,DL_Warm_Pop_Rock_Guitar,0.9996161460876465,1
52,100,0.740909090909091,862,1,1,DL_Warm_Pop_Rock_Guitar,6,12,DL_Warm_Pop_Rock_Guitar,0.5503690838813782,0
55,100,0.1,629,1,2,DL_Warm_Pop_Rock_Guitar,6,2,DL_Warm_Pop_Rock_Guitar,0.9996322393417358,1
55,100,0.21818181818181817,660,0,2,DL_Warm_Pop_Rock_Guitar,6,3,DL_Warm_Pop_Rock_Guitar,0.5469970107078552,0
55,100,0.2,91,1,3,DL_Warm_Pop_Rock_Guitar,6,3,DL_Warm_Pop_Rock_Guitar,0.9998225569725037,1
52,100,0.6772727272727272,590,1,3,DL_Warm_Pop_Rock_Guitar,6,11,DL_Warm_Pop_Rock_Guitar,0.4144313633441925,0
52,100,0.12272727272727273,761,0,3,DL_Warm_Pop_Rock_Guitar,6,2,DL_Warm_Pop_Rock_Guitar,0.43811511993408203,0
52,100,0.740909090909091,35,1,4,DL_Warm_Pop_Rock_Guitar,6,12,DL_Warm_Pop_Rock_Guitar,0.9996243715286255,1
52,100,0.2,330,1,4,DL_Warm_Pop_Rock_Guitar,6,3,DL_Warm_Pop_Rock_Guitar,0.5622880458831787,0
64,100,0.2,8,1,5,DL_Warm_Pop_Rock_Guitar,6,3,DL_Warm_Pop_Rock_Guitar,0.9998397827148438,1
55,100,0.5636363636363636,135,0,5,DL_Warm_Pop_Rock_Guitar,6,9,DL_Warm_Pop_Rock_Guitar,0.18936388194561005,0
55,100,0.2818181818181818,330,0,5,DL_Warm_Pop_Rock_Guitar,6,5,DL_Warm_Pop_Rock_Guitar,0.21067948639392853,0
67,100,0.17727272727272728,458,0,5,DL_Warm_Pop_Rock_Guitar,6,3,DL_Warm_Pop_Rock_Guitar,0.21159318089485168,0
57,100,0.17727272727272728,823,1,5,DL_Warm_Pop_Rock_Guitar,6,3,DL_Warm_Pop_Rock_Guitar,0.21143825352191925,0
62,100,0.1409090909090909,56,1,6,DL_Warm_Pop_Rock_Guitar,6,2,DL_Warm_Pop_Rock_Guitar,0.9998434782028198,1
62,100,0.2409090909090909,132,0,6,DL_Warm_Pop_Rock_Guitar,6,4,DL_Warm_Pop_Rock_Guitar,0.2045847326517105,0
62,100,0.9818181818181818,330,0,6,DL_Warm_Pop_Rock_Guitar,6,15,DL_Warm_Pop_Rock_Guitar,0.18697576224803925,0
62,100,0.1409090909090909,581,1,6,DL_Warm_Pop_Rock_Guitar,6,2,DL_Warm_Pop_Rock_Guitar,0.23246479034423828,0
57,100,0.6409090909090909,691,0,6,DL_Warm_Pop_Rock_Guitar,6,10,DL_Warm_Pop_Rock_Guitar,0.2024516463279724,0
62,100,0.38181818181818183,606,1,7,DL_Warm_Pop_Rock_Guitar,6,6,DL_Warm_Pop_Rock_Guitar,0.9996442794799805,1
52,100,0.2818181818181818,826,0,7,DL_Warm_Pop_Rock_Guitar,6,5,DL_Warm_Pop_Rock_Guitar,0.5491548180580139,0
52,100,0.42272727272727273,245,1,8,DL_Warm_Pop_Rock_Guitar,6,7,DL_Warm_Pop_Rock_Guitar,0.9932178854942322,0
60,100,0.1590909090909091,140,1,9,DL_Warm_Pop_Rock_Guitar,6,3,DL_Warm_Pop_Rock_Guitar,0.9998418092727661,1
62,100,0.5409090909090909,185,0,9,DL_Warm_Pop_Rock_Guitar,6,9,DL_Warm_Pop_Rock_Guitar,0.2014082372188568,0
62,100,0.4,347,0,9,DL_Warm_Pop_Rock_Guitar,6,6,DL_Warm_Pop_Rock_Guitar,0.2019117772579193,0
62,100,0.11818181818181818,524,0,9,DL_Warm_Pop_Rock_Guitar,6,2,DL_Warm_Pop_Rock_Guitar,0.21962866187095642,0
62,100,0.8590909090909091,563,0,9,DL_Warm_Pop_Rock_Guitar,6,14,DL_Warm_Pop_Rock_Guitar,0.19499602913856506,0
57,100,0.17727272727272728,171,1,10,DL_Warm_Pop_Rock_Guitar,6,3,DL_Warm_Pop_Rock_Guitar,0.9929001331329346,0
55,100,0.1,211,1,11,DL_Warm_Pop_Rock_Guitar,6,2,DL_Warm_Pop_Rock_Guitar,0.9996119141578674,1
62,100,0.32272727272727275,519,1,11,DL_Warm_Pop_Rock_Guitar,6,5,DL_Warm_Pop_Rock_Guitar,0.5534652471542358,0
62,100,1.059090909090909,536,1,12,DL_Warm_Pop_Rock_Guitar,6,15,DL_Warm_Pop_Rock_Guitar,0.9916024804115295,0
55,100,0.2409090909090909,321,1,13,DL_Warm_Pop_Rock_Guitar,6,4,DL_Warm_Pop_Rock_Guitar,0.9998477697372437,1
62,100,0.1,479,0,13,DL_Warm_Pop_Rock_Guitar,6,2,DL_Warm_Pop_Rock_Guitar,0.3391486406326294,0
55,100,0.4590909090909091,694,0,13,DL_Warm_Pop_Rock_Guitar,6,7,DL_Warm_Pop_Rock_Guitar,0.2786678969860077,0
57,100,0.2590909090909091,814,0,13,DL_Warm_Pop_Rock_Guitar,6,4,DL_Warm_Pop_Rock_Guitar,0.3108861446380615,0
57,100,0.740909090909091,3,1,14,DL_Warm_Pop_Rock_Guitar,6,12,DL_Warm_Pop_Rock_Guitar,0.9998010993003845,1
57,100,0.6,194,0,14,DL_Warm_Pop_Rock_Guitar,6,10,DL_Warm_Pop_Rock_Guitar,0.21894580125808716,0
57,100,1.3,347,0,14,DL_Warm_Pop_Rock_Guitar,6,15,DL_Warm_Pop_Rock_Guitar,0.18815985321998596,0
57,100,0.5772727272727273,691,1,14,DL_Warm_Pop_Rock_Guitar,6,9,DL_Warm_Pop_Rock_Guitar,0.2402181178331375,0
57,100,0.2,862,0,14,DL_Warm_Pop_Rock_Guitar,6,3,DL_Warm_Pop_Rock_Guitar,0.23522581160068512,0
55,100,0.38181818181818183,123,1,15,DL_Warm_Pop_Rock_Guitar,6,6,DL_Warm_Pop_Rock_Guitar,0.9997881054878235,1
55,100,0.36363636363636365,268,0,15,DL_Warm_Pop_Rock_Guitar,6,6,DL_Warm_Pop_Rock_Guitar,0.1309717893600464,0
52,100,0.1,383,0,15,DL_Warm_Pop_Rock_Guitar,6,2,DL_Warm_Pop_Rock_Guitar,0.12890173494815826,0
52,100,0.2818181818181818,550,0,15,DL_Warm_Pop_Rock_Guitar,6,5,DL_Warm_Pop_Rock_Guitar,0.13833974301815033,0
55,100,0.22272727272727272,651,0,15,DL_Warm_Pop_Rock_Guitar,6,4,DL_Warm_Pop_Rock_Guitar,0.13754233717918396,0
55,100,0.1,761,0,15,DL_Warm_Pop_Rock_Guitar,6,2,DL_Warm_Pop_Rock_Guitar,0.13334427773952484,0
62,100,0.5772727272727273,391,1,16,DL_Warm_Pop_Rock_Guitar,6,9,DL_Warm_Pop_Rock_Guitar,0.9998164772987366,1
57,100,0.1,712,1,16,DL_Warm_Pop_Rock_Guitar,6,2,DL_Warm_Pop_Rock_Guitar,0.43397256731987,0
57,100,0.2772727272727273,756,0,16,DL_Warm_Pop_Rock_Guitar,6,4,DL_Warm_Pop_Rock_Guitar,0.42721182107925415,0
52,100,0.2409090909090909,96,1,17,DL_Warm_Pop_Rock_Guitar,6,4,DL_Warm_Pop_Rock_Guitar,0.99965500831604,1
64,100,0.4,250,0,17,DL_Warm_Pop_Rock_Guitar,6,6,DL_Warm_Pop_Rock_Guitar,0.5444930195808411,0
62,100,0.18181818181818182,528,1,18,DL_Warm_Pop_Rock_Guitar,6,3,DL_Warm_Pop_Rock_Guitar,0.9998570680618286,1
62,100,0.2,660,0,18,DL_Warm_Pop_Rock_Guitar,6,3,DL_Warm_Pop_Rock_Guitar,0.32778599858283997,0
62,100,0.3,748,0,18,DL_Warm_Pop_Rock_Guitar,6,5,DL_Warm_Pop_Rock_Guitar,0.29343581199645996,0
62,100,0.5818181818181818,839,0,18,DL_Warm_Pop_Rock_Guitar,6,9,DL_Warm_Pop_Rock_Guitar,0.29776716232299805,0
62,100,0.5590909090909091,154,1,19,DL_Warm_Pop_Rock_Guitar,6,9,DL_Warm_Pop_Rock_Guitar,0.992501974105835,0
62,100,0.1590909090909091,519,1,21,DL_Warm_Pop_Rock_Guitar,6,3,DL_Warm_Pop_Rock_Guitar,0.9998593330383301,1
52,100,0.35909090909090907,567,0,21,DL_Warm_Pop_Rock_Guitar,6,6,DL_Warm_Pop_Rock_Guitar,0.3200032114982605,0
52,100,0.1,677,0,21,DL_Warm_Pop_Rock_Guitar,6,2,DL_Warm_Pop_Rock_Guitar,0.3000394403934479,0
62,100,0.5,810,0,21,DL_Warm_Pop_Rock_Guitar,6,8,DL_Warm_Pop_Rock_Guitar,0.29195642471313477,0
62,100,0.1409090909090909,57,1,22,DL_Warm_Pop_Rock_Guitar,6,2,DL_Warm_Pop_Rock_Guitar,0.9998482465744019,1
62,100,0.4818181818181818,92,0,22,DL_Warm_Pop_Rock_Guitar,6,8,DL_Warm_Pop_Rock_Guitar,0.3150709569454193,0
55,100,0.3181818181818182,360,1,22,DL_Warm_Pop_Rock_Guitar,6,5,DL_Warm_Pop_Rock_Guitar,0.29214414954185486,0
60,100,0.11818181818181818,638,1,22,DL_Warm_Pop_Rock_Guitar,6,2,DL_Warm_Pop_Rock_Guitar,0.3255431652069092,0
62,100,0.5,158,1,23,DL_Warm_Pop_Rock_Guitar,6,8,DL_Warm_Pop_Rock_Guitar,0.9998313188552856,1
62,100,0.2409090909090909,343,0,23,DL_Warm_Pop_Rock_Guitar,6,4,DL_Warm_Pop_Rock_Guitar,0.21876436471939087,0
55,100,0.1,443,0,23,DL_Warm_Pop_Rock_Guitar,6,2,DL_Warm_Pop_Rock_Guitar,0.20086900889873505,0
62,100,0.11818181818181818,501,0,23,DL_Warm_Pop_Rock_Guitar,6,2,DL_Warm_Pop_Rock_Guitar,0.20852240920066833,0
62,100,0.1409090909090909,607,0,23,DL_Warm_Pop_Rock_Guitar,6,2,DL_Warm_Pop_Rock_Guitar,0.20165598392486572,0
55,100,0.32272727272727275,92,1,24,DL_Warm_Pop_Rock_Guitar,6,5,DL_Warm_Pop_Rock_Guitar,0.9998416900634766,1
62,100,0.2818181818181818,461,1,24,DL_Warm_Pop_Rock_Guitar,6,5,DL_Warm_Pop_Rock_Guitar,0.3445945382118225,0
62,100,0.2409090909090909,704,1,24,DL_Warm_Pop_Rock_Guitar,6,4,DL_Warm_Pop_Rock_Guitar,0.2960617244243622,0
62,100,0.2,835,0,24,DL_Warm_Pop_Rock_Guitar,6,3,DL_Warm_Pop_Rock_Guitar,0.30934590101242065,0
61,100,0.11818181818181818,0,1,25,DL_Warm_Pop_Rock_Guitar,6,2,DL_Warm_Pop_Rock_Guitar,0.9998542070388794,1
55,100,0.12272727272727273,277,1,25,DL_Warm_Pop_Rock_Guitar,6,2,DL_Warm_Pop_Rock_Guitar,0.32071512937545776,0
62,100,0.3409090909090909,497,0,25,DL_Warm_Pop_Rock_Guitar,6,5,DL_Warm_Pop_Rock_Guitar,0.29305002093315125,0
62,100,0.2409090909090909,712,0,25,DL_Warm_Pop_Rock_Guitar,6,4,DL_Warm_Pop_Rock_Guitar,0.30737629532814026,0
62,100,0.2818181818181818,13,1,26,DL_Warm_Pop_Rock_Guitar,6,5,DL_Warm_Pop_Rock_Guitar,0.9998544454574585,1
62,100,0.2636363636363636,136,0,26,DL_Warm_Pop_Rock_Guitar,6,4,DL_Warm_Pop_Rock_Guitar,0.31887105107307434,0
66,100,0.1,646,1,26,DL_Warm_Pop_Rock_Guitar,6,2,DL_Warm_Pop_Rock_Guitar,0.29693248867988586,0
52,100,0.2818181818181818,708,0,26,DL_Warm_Pop_Rock_Guitar,6,5,DL_Warm_Pop_Rock_Guitar,0.3116130530834198,0
62,100,0.3409090909090909,48,1,27,DL_Warm_Pop_Rock_Guitar,6,5,DL_Warm_Pop_Rock_Guitar,0.999765932559967,1
57,100,0.2409090909090909,158,0,27,DL_Warm_Pop_Rock_Guitar,6,4,DL_Warm_Pop_Rock_Guitar,0.07838347554206848,0
52,100,0.6,260,0,27,DL_Warm_Pop_Rock_Guitar,6,10,DL_Warm_Pop_Rock_Guitar,0.07221870124340057,0
55,100,0.23636363636363636,413,0,27,DL_Warm_Pop_Rock_Guitar,6,4,DL_Warm_Pop_Rock_Guitar,0.08331779390573502,0
55,100,0.3409090909090909,484,0,27,DL_Warm_Pop_Rock_Guitar,6,5,DL_Warm_Pop_Rock_Guitar,0.0923924595117569,0
62,100,0.2590909090909091,567,0,27,DL_Warm_Pop_Rock_Guitar,6,4,DL_Warm_Pop_Rock_Guitar,0.10313592106103897,0
67,100,0.42272727272727273,629,0,27,DL_Warm_Pop_Rock_Guitar,6,7,DL_Warm_Pop_Rock_Guitar,0.08837258070707321,0
62,100,0.21818181818181817,162,1,28,DL_Warm_Pop_Rock_Guitar,6,3,DL_Warm_Pop_Rock_Guitar,0.999841570854187,1
54,100,0.4636363636363636,443,1,28,DL_Warm_Pop_Rock_Guitar,6,7,DL_Warm_Pop_Rock_Guitar,0.2017947882413864,0
66,100,0.21818181818181817,546,0,28,DL_Warm_Pop_Rock_Guitar,6,3,DL_Warm_Pop_Rock_Guitar,0.19681335985660553,0
66,100,0.1409090909090909,660,0,28,DL_Warm_Pop_Rock_Guitar,6,2,DL_Warm_Pop_Rock_Guitar,0.20982830226421356,0
59,100,0.13636363636363635,810,0,28,DL_Warm_Pop_Rock_Guitar,6,2,DL_Warm_Pop_Rock_Guitar,0.20267803966999054,0
64,100,0.23636363636363636,61,1,29,DL_Warm_Pop_Rock_Guitar,6,4,DL_Warm_Pop_Rock_Guitar,0.9998070597648621,1
52,100,0.5818181818181818,113,0,29,DL_Warm_Pop_Rock_Guitar,6,9,DL_Warm_Pop_Rock_Guitar,0.12376386672258377,0
52,100,0.3,333,0,29,DL_Warm_Pop_Rock_Guitar,6,5,DL_Warm_Pop_Rock_Guitar,0.12031204253435135,0
62,100,0.37727272727272726,625,1,29,DL_Warm_Pop_Rock_Guitar,6,6,DL_Warm_Pop_Rock_Guitar,0.13410955667495728,0
64,100,0.4,708,0,29,DL_Warm_Pop_Rock_Guitar,6,6,DL_Warm_Pop_Rock_Guitar,0.14345547556877136,0
62,100,0.11818181818181818,801,0,29,DL_Warm_Pop_Rock_Guitar,6,2,DL_Warm_Pop_Rock_Guitar,0.12980075180530548,0
62,100,0.3181818181818182,150,1,30,DL_Warm_Pop_Rock_Guitar,6,5,DL_Warm_Pop_Rock_Guitar,0.9998526573181152,1
62,100,0.2,594,1,30,DL_Warm_Pop_Rock_Guitar,6,3,DL_Warm_Pop_Rock_Guitar,0.331597238779068,0
62,100,0.2772727272727273,646,0,30,DL_Warm_Pop_Rock_Guitar,6,4,DL_Warm_Pop_Rock_Guitar,0.2905663549900055,0
57,100,0.4,739,0,30,DL_Warm_Pop_Rock_Guitar,6,6,DL_Warm_Pop_Rock_Guitar,0.30568191409111023,0
57,100,0.36363636363636365,48,1,31,DL_Warm_Pop_Rock_Guitar,6,6,DL_Warm_Pop_Rock_Guitar,0.9997544884681702,1
62,100,0.5363636363636364,171,0,31,DL_Warm_Pop_Rock_Guitar,6,9,DL_Warm_Pop_Rock_Guitar,0.07931928336620331,0
53,100,0.11818181818181818,461,1,31,DL_Warm_Pop_Rock_Guitar,6,2,DL_Warm_Pop_Rock_Guitar,0.07928819209337234,0
62,100,0.4772727272727273,523,0,31,DL_Warm_Pop_Rock_Guitar,6,8,DL_Warm_Pop_Rock_Guitar,0.07817257940769196,0
62,100,0.11818181818181818,638,0,31,DL_Warm_Pop_Rock_Guitar,6,2,DL_Warm_Pop_Rock_Guitar,0.0967644527554512,0
62,100,0.18181818181818182,694,0,31,DL_Warm_Pop_Rock_Guitar,6,3,DL_Warm_Pop_Rock_Guitar,0.0961868092417717,0
62,100,0.33636363636363636,853,0,31,DL_Warm_Pop_Rock_Guitar,6,5,DL_Warm_Pop_Rock_Guitar,0.08644377440214157,0
62,100,0.38181818181818183,201,1,32,DL_Warm_Pop_Rock_Guitar,6,6,DL_Warm_Pop_Rock_Guitar,0.9932066202163696,0
62,100,0.21818181818181817,185,1,33,DL_Warm_Pop_Rock_Guitar,6,3,DL_Warm_Pop_Rock_Guitar,0.9998410940170288,1
62,100,0.2,289,0,33,DL_Warm_Pop_Rock_Guitar,6,3,DL_Warm_Pop_Rock_Guitar,0.20188477635383606,0
57,100,0.33636363636363636,370,0,33,DL_Warm_Pop_Rock_Guitar,6,5,DL_Warm_Pop_Rock_Guitar,0.1902879923582077,0
55,100,0.1409090909090909,668,1,33,DL_Warm_Pop_Rock_Guitar,6,2,DL_Warm_Pop_Rock_Guitar,0.2100214809179306,0
62,100,0.13636363636363635,721,0,33,DL_Warm_Pop_Rock_Guitar,6,2,DL_Warm_Pop_Rock_Guitar,0.21433481574058533,0
62,100,0.8,774,1,34,DL_Warm_Pop_Rock_Guitar,6,13,DL_Warm_Pop_Rock_Guitar,0.9923223853111267,0
57,100,0.2409090909090909,571,1,35,DL_Warm_Pop_Rock_Guitar,6,4,DL_Warm_Pop_Rock_Guitar,0.9998270869255066,1
52,100,0.3,655,0,35,DL_Warm_Pop_Rock_Guitar,6,5,DL_Warm_Pop_Rock_Guitar,0.22481301426887512,0
62,100,0.11818181818181818,721,0,35,DL_Warm_Pop_Rock_Guitar,6,2,DL_Warm_Pop_Rock_Guitar,0.20127354562282562,0
62,100,0.1409090909090909,823,0,35,DL_Warm_Pop_Rock_Guitar,6,2,DL_Warm_Pop_Rock_Guitar,0.20325912535190582,0
52,100,0.21818181818181817,866,0,35,DL_Warm_Pop_Rock_Guitar,6,3,DL_Warm_Pop_Rock_Guitar,0.20191043615341187,0
52,100,0.21818181818181817,40,1,36,DL_Warm_Pop_Rock_Guitar,6,3,DL_Warm_Pop_Rock_Guitar,0.9998360872268677,1
52,100,0.17727272727272728,206,0,36,DL_Warm_Pop_Rock_Guitar,6,3,DL_Warm_Pop_Rock_Guitar,0.21704505383968353,0
62,100,1.0,321,0,36,DL_Warm_Pop_Rock_Guitar,6,15,DL_Warm_Pop_Rock_Guitar,0.18123872578144073,0
52,100,0.21818181818181817,545,0,36,DL_Warm_Pop_Rock_Guitar,6,3,DL_Warm_Pop_Rock_Guitar,0.23363326489925385,0
62,100,1.1818181818181819,716,0,36,DL_Warm_Pop_Rock_Guitar,6,15,DL_Warm_Pop_Rock_Guitar,0.1939513087272644,0
60,100,0.11818181818181818,118,1,37,DL_Warm_Pop_Rock_Guitar,6,2,DL_Warm_Pop_Rock_Guitar,0.9998584985733032,1
62,100,0.2818181818181818,201,0,37,DL_Warm_Pop_Rock_Guitar,6,5,DL_Warm_Pop_Rock_Guitar,0.317618727684021,0
62,100,0.2,545,1,37,DL_Warm_Pop_Rock_Guitar,6,3,DL_Warm_Pop_Rock_Guitar,0.2902383506298065,0
62,100,0.4,721,0,37,DL_Warm_Pop_Rock_Guitar,6,6,DL_Warm_Pop_Rock_Guitar,0.30542245507240295,0
62,100,0.8227272727272728,56,1,38,DL_Warm_Pop_Rock_Guitar,6,13,DL_Warm_Pop_Rock_Guitar,0.9997848868370056,1
57,100,0.1590909090909091,325,1,38,DL_Warm_Pop_Rock_Guitar,6,3,DL_Warm_Pop_Rock_Guitar,0.13532793521881104,0
62,100,0.1590909090909091,396,0,38,DL_Warm_Pop_Rock_Guitar,6,3,DL_Warm_Pop_Rock_Guitar,0.12582314014434814,0
62,100,0.2772727272727273,471,0,38,DL_Warm_Pop_Rock_Guitar,6,4,DL_Warm_Pop_Rock_Guitar,0.13279201090335846,0
62,100,0.13636363636363635,810,1,38,DL_Warm_Pop_Rock_Guitar,6,2,DL_Warm_Pop_Rock_Guitar,0.14993233978748322,0
52,100,0.38181818181818183,861,0,38,DL_Warm_Pop_Rock_Guitar,6,6,DL_Warm_Pop_Rock_Guitar,0.13490386307239532,0
62,100,0.32272727272727275,298,1,39,DL_Warm_Pop_Rock_Guitar,6,5,DL_Warm_Pop_Rock_Guitar,0.999828577041626,1
55,100,0.4409090909090909,421,0,39,DL_Warm_Pop_Rock_Guitar,6,7,DL_Warm_Pop_Rock_Guitar,0.39935803413391113,0
55,100,0.22272727272727272,584,0,39,DL_Warm_Pop_Rock_Guitar,6,4,DL_Warm_Pop_Rock_Guitar,0.43614187836647034,0
60,100,0.2409090909090909,48,1,40,DL_Warm_Pop_Rock_Guitar,6,4,DL_Warm_Pop_Rock_Guitar,0.9998127818107605,1
62,100,0.3,220,0,40,DL_Warm_Pop_Rock_Guitar,6,5,DL_Warm_Pop_Rock_Guitar,0.12405037879943848,0
62,100,0.1409090909090909,289,0,40,DL_Warm_Pop_Rock_Guitar,6,2,DL_Warm_Pop_Rock_Guitar,0.12370917201042175,0
62,100,0.38181818181818183,474,0,40,DL_Warm_Pop_Rock_Guitar,6,6,DL_Warm_Pop_Rock_Guitar,0.13041642308235168,0
57,100,0.2772727272727273,691,0,40,DL_Warm_Pop_Rock_Guitar,6,4,DL_Warm_Pop_Rock_Guitar,0.1474023312330246,0
52,100,0.4818181818181818,783,0,40,DL_Warm_Pop_Rock_Guitar,6,8,DL_Warm_Pop_Rock_Guitar,0.1345468908548355,0
52,100,0.4772727272727273,18,1,41,DL_Warm_Pop_Rock_Guitar,6,8,DL_Warm_Pop_Rock_Guitar,0.9998027682304382,1
52,100,0.16363636363636364,158,0,41,DL_Warm_Pop_Rock_Guitar,6,3,DL_Warm_Pop_Rock_Guitar,0.13328015804290771,0
52,100,0.22272727272727272,201,0,41,DL_Warm_Pop_Rock_Guitar,6,4,DL_Warm_Pop_Rock_Guitar,0.12058185786008835,0
52,100,0.3,260,0,41,DL_Warm_Pop_Rock_Guitar,6,5,DL_Warm_Pop_Rock_Guitar,0.12969247996807098,0
52,100,0.38181818181818183,396,0,41,DL_Warm_Pop_Rock_Guitar,6,6,DL_Warm_Pop_Rock_Guitar,0.14163024723529816,0
64,100,0.6590909090909091,496,0,41,DL_Warm_Pop_Rock_Guitar,6,11,DL_Warm_Pop_Rock_Guitar,0.1285756528377533,0
57,100,0.35909090909090907,206,1,43,DL_Warm_Pop_Rock_Guitar,6,6,DL_Warm_Pop_Rock_Guitar,0.9998229146003723,1
54,100,0.22272727272727272,421,0,43,DL_Warm_Pop_Rock_Guitar,6,4,DL_Warm_Pop_Rock_Guitar,0.4250625669956207,0
66,100,0.4,471,0,43,DL_Warm_Pop_Rock_Guitar,6,6,DL_Warm_Pop_Rock_Guitar,0.41761544346809387,0
62,100,0.21818181818181817,571,1,44,DL_Warm_Pop_Rock_Guitar,6,3,DL_Warm_Pop_Rock_Guitar,0.999829888343811,1
52,100,0.2409090909090909,625,0,44,DL_Warm_Pop_Rock_Guitar,6,4,DL_Warm_Pop_Rock_Guitar,0.4269675612449646,0
52,100,0.2818181818181818,738,0,44,DL_Warm_Pop_Rock_Guitar,6,5,DL_Warm_Pop_Rock_Guitar,0.4220001995563507,0
62,100,0.2818181818181818,198,1,45,DL_Warm_Pop_Rock_Guitar,6,5,DL_Warm_Pop_Rock_Guitar,0.9934285283088684,0
52,100,0.1409090909090909,13,1,46,DL_Warm_Pop_Rock_Guitar,6,2,DL_Warm_Pop_Rock_Guitar,0.9998464584350586,1
52,100,0.6818181818181818,69,0,46,DL_Warm_Pop_Rock_Guitar,6,11,DL_Warm_Pop_Rock_Guitar,0.19592197239398956,0
52,100,0.1590909090909091,241,0,46,DL_Warm_Pop_Rock_Guitar,6,3,DL_Warm_Pop_Rock_Guitar,0.21670299768447876,0
52,100,0.7,471,0,46,DL_Warm_Pop_Rock_Guitar,6,11,DL_Warm_Pop_Rock_Guitar,0.19284191727638245,0
52,100,0.9772727272727273,668,0,46,DL_Warm_Pop_Rock_Guitar,6,15,DL_Warm_Pop_Rock_Guitar,0.20303688943386078,0
62,100,0.1590909090909091,276,1,47,DL_Warm_Pop_Rock_Guitar,6,3,DL_Warm_Pop_Rock_Guitar,0.9996294975280762,1
62,100,0.6818181818181818,606,1,47,DL_Warm_Pop_Rock_Guitar,6,11,DL_Warm_Pop_Rock_Guitar,0.5430945158004761,0
57,100,0.2409090909090909,871,1,56,DL_Warm_Pop_Rock_Guitar,6,4,DL_Warm_Pop_Rock_Guitar,0.993046224117279,0
52,100,0.2409090909090909,431,1,60,DL_Warm_Pop_Rock_Guitar,6,4,DL_Warm_Pop_Rock_Guitar,0.999864935874939,1
52,100,0.11818181818181818,493,0,60,DL_Warm_Pop_Rock_Guitar,6,2,DL_Warm_Pop_Rock_Guitar,0.32019615173339844,0
52,100,0.1,531,0,60,DL_Warm_Pop_Rock_Guitar,6,2,DL_Warm_Pop_Rock_Guitar,0.2861438989639282,0
52,100,0.42272727272727273,826,1,60,DL_Warm_Pop_Rock_Guitar,6,7,DL_Warm_Pop_Rock_Guitar,0.2912048101425171,0
62,100,0.21818181818181817,198,1,61,DL_Warm_Pop_Rock_Guitar,6,3,DL_Warm_Pop_Rock_Guitar,0.9996511936187744,1
55,100,0.17727272727272728,691,1,61,DL_Warm_Pop_Rock_Guitar,6,3,DL_Warm_Pop_Rock_Guitar,0.5409815311431885,0
62,100,0.7,9,1,66,DL_Warm_Pop_Rock_Guitar,6,11,DL_Warm_Pop_Rock_Guitar,0.9995179176330566,1
62,100,2.081818181818182,716,1,66,DL_Warm_Pop_Rock_Guitar,6,15,DL_Warm_Pop_Rock_Guitar,0.536645233631134,0
62,100,0.2,603,1,67,DL_Warm_Pop_Rock_Guitar,6,3,DL_Warm_Pop_Rock_Guitar,0.9933092594146729,0
62,100,0.1,756,1,70,DL_Warm_Pop_Rock_Guitar,6,2,DL_Warm_Pop_Rock_Guitar,0.9935792684555054,1
62,100,0.2590909090909091,743,1,74,DL_Warm_Pop_Rock_Guitar,6,4,DL_Warm_Pop_Rock_Guitar,0.9933195114135742,0
52,100,0.6818181818181818,35,1,75,DL_Warm_Pop_Rock_Guitar,6,11,DL_Warm_Pop_Rock_Guitar,0.9998015761375427,1
64,100,0.1,330,1,75,DL_Warm_Pop_Rock_Guitar,6,2,DL_Warm_Pop_Rock_Guitar,0.14015372097492218,0
62,100,0.759090909090909,365,0,75,DL_Warm_Pop_Rock_Guitar,6,12,DL_Warm_Pop_Rock_Guitar,0.11444605141878128,0
52,100,0.21818181818181817,546,0,75,DL_Warm_Pop_Rock_Guitar,6,3,DL_Warm_Pop_Rock_Guitar,0.15063917636871338,0
62,100,0.5,734,0,75,DL_Warm_Pop_Rock_Guitar,6,8,DL_Warm_Pop_Rock_Guitar,0.14399395883083344,0
62,100,1.0,849,0,75,DL_Warm_Pop_Rock_Guitar,6,15,DL_Warm_Pop_Rock_Guitar,0.12756410241127014,0
62,100,0.35909090909090907,426,1,76,DL_Warm_Pop_Rock_Guitar,6,6,DL_Warm_Pop_Rock_Guitar,0.9996508359909058,1
62,100,0.2,590,0,76,DL_Warm_Pop_Rock_Guitar,6,3,DL_Warm_Pop_Rock_Guitar,0.549181342124939,0
62,100,0.11818181818181818,282,1,77,DL_Warm_Pop_Rock_Guitar,6,2,DL_Warm_Pop_Rock_Guitar,0.9996418952941895,1
62,100,0.3181818181818182,572,1,77,DL_Warm_Pop_Rock_Guitar,6,5,DL_Warm_Pop_Rock_Guitar,0.548822820186615,0
52,100,0.3,206,1,78,DL_Warm_Pop_Rock_Guitar,6,5,DL_Warm_Pop_Rock_Guitar,0.9998433589935303,1
52,100,0.2818181818181818,276,0,78,DL_Warm_Pop_Rock_Guitar,6,5,DL_Warm_Pop_Rock_Guitar,0.20080111920833588,0
67,100,0.1590909090909091,370,0,78,DL_Warm_Pop_Rock_Guitar,6,3,DL_Warm_Pop_Rock_Guitar,0.1920619010925293,0
62,100,0.18181818181818182,695,1,78,DL_Warm_Pop_Rock_Guitar,6,3,DL_Warm_Pop_Rock_Guitar,0.21017888188362122,0
62,100,0.12272727272727273,739,0,78,DL_Warm_Pop_Rock_Guitar,6,2,DL_Warm_Pop_Rock_Guitar,0.2040024846792221,0
62,100,0.3,163,1,79,DL_Warm_Pop_Rock_Guitar,6,5,DL_Warm_Pop_Rock_Guitar,0.9931400418281555,1
52,100,0.4590909090909091,193,1,80,DL_Warm_Pop_Rock_Guitar,6,7,DL_Warm_Pop_Rock_Guitar,0.993030846118927,0
62,100,0.5181818181818182,440,1,81,DL_Warm_Pop_Rock_Guitar,6,8,DL_Warm_Pop_Rock_Guitar,0.9996001124382019,1
62,100,0.7,624,0,81,DL_Warm_Pop_Rock_Guitar,6,11,DL_Warm_Pop_Rock_Guitar,0.5465695858001709,0
52,100,0.22272727272727272,532,1,82,DL_Warm_Pop_Rock_Guitar,6,4,DL_Warm_Pop_Rock_Guitar,0.9998352527618408,1
62,100,0.1,839,1,82,DL_Warm_Pop_Rock_Guitar,6,2,DL_Warm_Pop_Rock_Guitar,0.40945911407470703,0
62,100,0.1,866,0,82,DL_Warm_Pop_Rock_Guitar,6,2,DL_Warm_Pop_Rock_Guitar,0.4267248213291168,0
62,100,0.13636363636363635,150,1,83,DL_Warm_Pop_Rock_Guitar,6,2,DL_Warm_Pop_Rock_Guitar,0.993436336517334,1
63,100,0.1,519,1,0,DL_Guitar,6,2,DL_Guitar,0.9932599663734436,1
58,100,0.1590909090909091,704,1,1,DL_Guitar,6,3,DL_Guitar,0.9924466609954834,0
56,100,0.12272727272727273,311,1,2,DL_Guitar,6,2,DL_Guitar,0.9995949864387512,1
63,100,1.3590909090909091,537,0,2,DL_Guitar,6,15,DL_Guitar,0.5235270261764526,0
63,100,1.0,836,1,4,DL_Guitar,6,15,DL_Guitar,0.9913865327835083,0
53,100,0.7181818181818181,373,1,5,DL_Guitar,6,11,DL_Guitar,0.9995549321174622,1
56,100,0.9818181818181818,593,0,5,DL_Guitar,6,15,DL_Guitar,0.5430516600608826,0
53,100,0.7,854,1,6,DL_Guitar,6,11,DL_Guitar,0.9926482439041138,0
53,100,0.1409090909090909,158,1,7,DL_Guitar,6,2,DL_Guitar,0.999841570854187,1
53,100,0.4,311,0,7,DL_Guitar,6,6,DL_Guitar,0.19900432229042053,0
63,100,0.2818181818181818,747,1,7,DL_Guitar,6,5,DL_Guitar,0.19811849296092987,0
63,100,0.1590909090909091,831,0,7,DL_Guitar,6,3,DL_Guitar,0.20235301554203033,0
63,100,0.1409090909090909,871,0,7,DL_Guitar,6,2,DL_Guitar,0.21545179188251495,0
53,100,0.18181818181818182,527,1,8,DL_Guitar,6,3,DL_Guitar,0.9998457431793213,1
53,100,0.4590909090909091,581,0,8,DL_Guitar,6,7,DL_Guitar,0.31992849707603455,0
53,100,0.22272727272727272,685,0,8,DL_Guitar,6,4,DL_Guitar,0.3068709373474121,0
63,100,0.8590909090909091,787,0,8,DL_Guitar,6,14,DL_Guitar,0.29475167393684387,0
63,100,0.21818181818181817,448,1,13,DL_Guitar,6,3,DL_Guitar,0.9929186701774597,0
56,100,1.740909090909091,92,1,14,DL_Guitar,6,15,DL_Guitar,0.999798595905304,1
56,100,0.2818181818181818,519,1,14,DL_Guitar,6,5,DL_Guitar,0.39647558331489563,0
56,100,0.1409090909090909,735,0,14,DL_Guitar,6,2,DL_Guitar,0.31058841943740845,0
63,100,0.2409090909090909,783,0,14,DL_Guitar,6,4,DL_Guitar,0.30842405557632446,0
56,100,0.2409090909090909,22,1,15,DL_Guitar,6,4,DL_Guitar,0.9997656941413879,1
56,100,0.1590909090909091,96,0,15,DL_Guitar,6,3,DL_Guitar,0.08101726323366165,0
53,100,0.3,144,0,15,DL_Guitar,6,5,DL_Guitar,0.07217589020729065,0
53,100,0.2,276,0,15,DL_Guitar,6,3,DL_Guitar,0.07723647356033325,0
63,100,0.4,386,0,15,DL_Guitar,6,6,DL_Guitar,0.08695869147777557,0
53,100,0.1,536,0,15,DL_Guitar,6,2,DL_Guitar,0.10022363811731339,0
55,100,0.1,778,1,15,DL_Guitar,6,2,DL_Guitar,0.08495907485485077,0
63,100,0.4818181818181818,210,1,16,DL_Guitar,6,8,DL_Guitar,0.9998494386672974,1
53,100,0.12272727272727273,356,0,16,DL_Guitar,6,2,DL_Guitar,0.33683323860168457,0
58,100,0.2,391,0,16,DL_Guitar,6,3,DL_Guitar,0.2763603627681732,0
63,100,0.3,804,1,16,DL_Guitar,6,5,DL_Guitar,0.31577402353286743,0
56,100,0.11818181818181818,461,1,17,DL_Guitar,6,2,DL_Guitar,0.9998570680618286,1
53,100,0.2590909090909091,519,0,17,DL_Guitar,6,4,DL_Guitar,0.3157308101654053,0
53,100,0.1590909090909091,646,0,17,DL_Guitar,6,3,DL_Guitar,0.2953435182571411,0
63,100,0.33636363636363636,831,0,17,DL_Guitar,6,5,DL_Guitar,0.29318732023239136,0
53,100,0.2409090909090909,44,1,18,DL_Guitar,6,4,DL_Guitar,0.9998026490211487,1
55,100,0.3181818181818182,216,0,18,DL_Guitar,6,5,DL_Guitar,0.11875402927398682,0
55,100,0.9227272727272727,356,0,18,DL_Guitar,6,15,DL_Guitar,0.11206676810979843,0
55,100,0.22272727272727272,642,1,18,DL_Guitar,6,4,DL_Guitar,0.1509576290845871,0
60,100,0.1409090909090909,748,0,18,DL_Guitar,6,2,DL_Guitar,0.15222474932670593,0
60,100,0.18181818181818182,783,0,18,DL_Guitar,6,3,DL_Guitar,0.13302373886108398,0
63,100,0.12272727272727273,79,1,19,DL_Guitar,6,2,DL_Guitar,0.9998512268066406,1
53,100,0.5227272727272727,356,1,19,DL_Guitar,6,8,DL_Guitar,0.31259873509407043,0
53,100,0.2590909090909091,492,0,19,DL_Guitar,6,4,DL_Guitar,0.30169475078582764,0
53,100,0.2590909090909091,563,0,19,DL_Guitar,6,4,DL_Guitar,0.3024139404296875,0
53,100,0.11818181818181818,17,1,20,DL_Guitar,6,2,DL_Guitar,0.9997408986091614,1
55,100,0.2590909090909091,285,1,20,DL_Guitar,6,4,DL_Guitar,0.05171249061822891,0
53,100,0.11818181818181818,351,0,20,DL_Guitar,6,2,DL_Guitar,0.04990701749920845,0
55,100,0.5818181818181818,399,0,20,DL_Guitar,6,9,DL_Guitar,0.04558149352669716,0
56,100,0.21818181818181817,567,0,20,DL_Guitar,6,3,DL_Guitar,0.05649610608816147,0
56,100,0.12272727272727273,642,0,20,DL_Guitar,6,2,DL_Guitar,0.0637616366147995,0
56,100,0.21818181818181817,691,0,20,DL_Guitar,6,3,DL_Guitar,0.06636690348386765,0
56,100,0.3,801,0,20,DL_Guitar,6,5,DL_Guitar,0.06149376928806305,0
56,100,0.17727272727272728,9,1,21,DL_Guitar,6,3,DL_Guitar,0.9998459815979004,1
63,100,0.2590909090909091,303,1,21,DL_Guitar,6,4,DL_Guitar,0.3114243745803833,0
63,100,0.4,515,0,21,DL_Guitar,6,6,DL_Guitar,0.29697054624557495,0
63,100,0.8590909090909091,743,0,21,DL_Guitar,6,14,DL_Guitar,0.3097725212574005,0
63,100,0.35909090909090907,96,1,22,DL_Guitar,6,6,DL_Guitar,0.9998156428337097,1
63,100,0.4,260,0,22,DL_Guitar,6,6,DL_Guitar,0.40363356471061707,0
63,100,0.17727272727272728,480,0,22,DL_Guitar,6,3,DL_Guitar,0.45144838094711304,0
58,100,0.12272727272727273,223,1,26,DL_Guitar,6,2,DL_Guitar,0.9996565580368042,1
53,100,0.2409090909090909,254,0,26,DL_Guitar,6,4,DL_Guitar,0.03348657488822937,0
58,100,0.1590909090909091,351,0,26,DL_Guitar,6,3,DL_Guitar,0.02064172364771366,0
53,100,0.11818181818181818,395,0,26,DL_Guitar,6,2,DL_Guitar,0.01816628873348236,0
53,100,0.17727272727272728,449,0,26,DL_Guitar,6,3,DL_Guitar,0.013847230933606625,0
58,100,0.2818181818181818,519,0,26,DL_Guitar,6,5,DL_Guitar,0.01228636410087347,0
53,100,0.1590909090909091,602,0,26,DL_Guitar,6,3,DL_Guitar,0.015045737847685814,0
58,100,0.2,673,0,26,DL_Guitar,6,3,DL_Guitar,0.01647992618381977,0
53,100,0.2,725,0,26,DL_Guitar,6,3,DL_Guitar,0.0253817867487669,0
58,100,0.3,783,0,26,DL_Guitar,6,5,DL_Guitar,0.02944037690758705,0
74,100,0.11818181818181818,866,0,26,DL_Guitar,6,2,DL_Guitar,0.03843405470252037,0
63,100,0.6590909090909091,501,1,27,DL_Guitar,6,11,DL_Guitar,0.9997996687889099,1
58,100,0.11818181818181818,725,0,27,DL_Guitar,6,2,DL_Guitar,0.4368143081665039,0
58,100,1.0,827,0,27,DL_Guitar,6,15,DL_Guitar,0.4184745252132416,0
63,100,0.1409090909090909,175,1,28,DL_Guitar,6,2,DL_Guitar,0.999849796295166,1
58,100,0.3181818181818182,360,0,28,DL_Guitar,6,5,DL_Guitar,0.2991570830345154,0
63,100,1.040909090909091,474,0,28,DL_Guitar,6,15,DL_Guitar,0.2860391438007355,0
63,100,0.2590909090909091,783,1,28,DL_Guitar,6,4,DL_Guitar,0.3461836278438568,0
55,100,0.5409090909090909,100,1,29,DL_Guitar,6,9,DL_Guitar,0.9997788071632385,1
58,100,0.18181818181818182,246,0,29,DL_Guitar,6,3,DL_Guitar,0.12992419302463531,0
55,100,0.1409090909090909,312,0,29,DL_Guitar,6,2,DL_Guitar,0.12606313824653625,0
63,100,1.040909090909091,378,0,29,DL_Guitar,6,15,DL_Guitar,0.12459980696439743,0
63,100,0.32272727272727275,642,1,29,DL_Guitar,6,5,DL_Guitar,0.16573454439640045,0
63,100,0.13636363636363635,876,1,29,DL_Guitar,6,2,DL_Guitar,0.14745108783245087,0
63,100,0.1590909090909091,57,1,30,DL_Guitar,6,3,DL_Guitar,0.9995951056480408,1
63,100,0.21818181818181817,193,0,30,DL_Guitar,6,3,DL_Guitar,0.5565618276596069,0
58,100,0.41818181818181815,52,1,31,DL_Guitar,6,7,DL_Guitar,0.999817430973053,1
58,100,0.740909090909091,272,0,31,DL_Guitar,6,12,DL_Guitar,0.3197651505470276,0
58,100,0.4818181818181818,509,1,31,DL_Guitar,6,8,DL_Guitar,0.32207953929901123,0
58,100,0.2590909090909091,660,0,31,DL_Guitar,6,4,DL_Guitar,0.3335789740085602,0
63,100,0.2,66,1,32,DL_Guitar,6,3,DL_Guitar,0.9997355341911316,1
63,100,0.17727272727272728,206,0,32,DL_Guitar,6,3,DL_Guitar,0.0555536188185215,0
58,100,0.1409090909090909,321,0,32,DL_Guitar,6,2,DL_Guitar,0.046758294105529785,0
63,100,0.11818181818181818,493,0,32,DL_Guitar,6,2,DL_Guitar,0.050131965428590775,0
63,100,0.1,606,0,32,DL_Guitar,6,2,DL_Guitar,0.05426324903964996,0
53,100,0.21818181818181817,638,0,32,DL_Guitar,6,3,DL_Guitar,0.0629093274474144,0
58,100,0.4,686,0,32,DL_Guitar,6,6,DL_Guitar,0.06321869045495987,0
58,100,0.2,796,0,32,DL_Guitar,6,3,DL_Guitar,0.06414885818958282,0
53,100,0.11818181818181818,53,1,33,DL_Guitar,6,2,DL_Guitar,0.9998373985290527,1
53,100,0.22272727272727272,114,0,33,DL_Guitar,6,4,DL_Guitar,0.20859995484352112,0
55,100,0.18181818181818182,386,1,33,DL_Guitar,6,3,DL_Guitar,0.1979430764913559,0
59,100,0.4818181818181818,453,0,33,DL_Guitar,6,8,DL_Guitar,0.20342344045639038,0
55,100,0.5,563,0,33,DL_Guitar,6,8,DL_Guitar,0.202415332198143,0
55,100,0.2,26,1,34,DL_Guitar,6,3,DL_Guitar,0.9998276233673096,1
63,100,0.11818181818181818,105,0,34,DL_Guitar,6,2,DL_Guitar,0.21645987033843994,0
55,100,0.16363636363636364,268,0,34,DL_Guitar,6,3,DL_Guitar,0.20139475166797638,0
58,100,0.1590909090909091,364,0,34,DL_Guitar,6,3,DL_Guitar,0.20876893401145935,0
56,100,0.1590909090909091,756,1,34,DL_Guitar,6,3,DL_Guitar,0.2203548401594162,0
58,100,0.3,201,1,35,DL_Guitar,6,5,DL_Guitar,0.99982088804245,1
58,100,0.37727272727272726,458,1,35,DL_Guitar,6,6,DL_Guitar,0.20925334095954895,0
53,100,0.1,545,0,35,DL_Guitar,6,2,DL_Guitar,0.2276049554347992,0
58,100,0.2818181818181818,576,0,35,DL_Guitar,6,5,DL_Guitar,0.20654815435409546,0
58,100,0.4,729,0,35,DL_Guitar,6,6,DL_Guitar,0.21720759570598602,0
63,100,0.17727272727272728,426,1,36,DL_Guitar,6,3,DL_Guitar,0.9996299743652344,1
63,100,0.43636363636363634,655,0,36,DL_Guitar,6,7,DL_Guitar,0.5412886738777161,0
56,100,0.11818181818181818,96,1,37,DL_Guitar,6,2,DL_Guitar,0.99983811378479,1
63,100,0.2772727272727273,370,1,37,DL_Guitar,6,4,DL_Guitar,0.19667190313339233,0
63,100,0.41818181818181815,435,0,37,DL_Guitar,6,7,DL_Guitar,0.19419798254966736,0
63,100,0.11818181818181818,655,0,37,DL_Guitar,6,2,DL_Guitar,0.21984411776065826,0
63,100,0.38181818181818183,748,0,37,DL_Guitar,6,6,DL_Guitar,0.21148644387722015,0
63,100,0.35909090909090907,88,1,38,DL_Guitar,6,6,DL_Guitar,0.9926022887229919,0
65,100,0.4818181818181818,233,1,39,DL_Guitar,6,8,DL_Guitar,0.9998258948326111,1
56,100,0.4636363636363636,421,0,39,DL_Guitar,6,7,DL_Guitar,0.2101086527109146,0
63,100,0.36363636363636365,531,0,39,DL_Guitar,6,6,DL_Guitar,0.19631648063659668,0
63,100,0.35909090909090907,748,0,39,DL_Guitar,6,6,DL_Guitar,0.2173767238855362,0
58,100,0.1409090909090909,861,0,39,DL_Guitar,6,2,DL_Guitar,0.21497602760791779,0
53,100,0.23636363636363636,18,1,40,DL_Guitar,6,4,DL_Guitar,0.9998487234115601,1
58,100,0.16363636363636364,114,0,40,DL_Guitar,6,3,DL_Guitar,0.31379765272140503,0
58,100,0.759090909090909,163,0,40,DL_Guitar,6,12,DL_Guitar,0.2831493318080902,0
58,100,0.2590909090909091,351,0,40,DL_Guitar,6,4,DL_Guitar,0.3326577842235565,0
53,100,0.3181818181818182,198,1,41,DL_Guitar,6,5,DL_Guitar,0.9998354911804199,1
58,100,0.9409090909090909,273,0,41,DL_Guitar,6,15,DL_Guitar,0.18071115016937256,0
58,100,0.4818181818181818,483,0,41,DL_Guitar,6,8,DL_Guitar,0.22278830409049988,0
58,100,0.1590909090909091,593,0,41,DL_Guitar,6,3,DL_Guitar,0.2230166792869568,0
63,100,0.41818181818181815,770,0,41,DL_Guitar,6,7,DL_Guitar,0.22644931077957153,0
63,100,0.32272727272727275,34,1,42,DL_Guitar,6,5,DL_Guitar,0.9995885491371155,1
63,100,0.5,188,0,42,DL_Guitar,6,8,DL_Guitar,0.5503524541854858,0
63,100,0.11818181818181818,110,1,43,DL_Guitar,6,2,DL_Guitar,0.99982750415802,1
58,100,0.2,263,0,43,DL_Guitar,6,3,DL_Guitar,0.39748793840408325,0
65,100,0.13636363636363635,523,1,43,DL_Guitar,6,2,DL_Guitar,0.4437854290008545,0
65,100,0.37727272727272726,105,1,44,DL_Guitar,6,6,DL_Guitar,0.9998248219490051,1
63,100,0.1590909090909091,418,1,44,DL_Guitar,6,3,DL_Guitar,0.41431060433387756,0
63,100,0.11818181818181818,681,1,44,DL_Guitar,6,2,DL_Guitar,0.43377795815467834,0
63,100,0.8590909090909091,198,1,45,DL_Guitar,6,14,DL_Guitar,0.9998323917388916,1
56,100,0.2409090909090909,399,0,45,DL_Guitar,6,4,DL_Guitar,0.3542080819606781,0
56,100,0.13636363636363635,458,0,45,DL_Guitar,6,2,DL_Guitar,0.296393483877182,0
56,100,0.16363636363636364,509,0,45,DL_Guitar,6,3,DL_Guitar,0.31695395708084106,0
62,100,0.5181818181818182,0,1,47,DL_Guitar,6,8,DL_Guitar,0.9995434880256653,1
63,100,1.8,370,1,47,DL_Guitar,6,15,DL_Guitar,0.5324142575263977,0
58,100,0.5181818181818182,308,1,48,DL_Guitar,6,8,DL_Guitar,0.9918033480644226,0
58,100,0.2,21,1,49,DL_Guitar,6,3,DL_Guitar,0.9925886392593384,0
58,100,0.16363636363636364,224,1,50,DL_Guitar,6,3,DL_Guitar,0.9996107220649719,1
56,100,0.21818181818181817,273,0,50,DL_Guitar,6,3,DL_Guitar,0.557615339756012,0
62,100,0.16363636363636364,136,1,51,DL_Guitar,6,3,DL_Guitar,0.9932748079299927,0
63,100,0.11818181818181818,501,1,52,DL_Guitar,6,2,DL_Guitar,0.9998310804367065,1
63,100,0.1,531,0,52,DL_Guitar,6,2,DL_Guitar,0.4061107039451599,0
63,100,0.21818181818181817,558,0,52,DL_Guitar,6,3,DL_Guitar,0.4262988269329071,0
58,100,0.12272727272727273,796,1,53,DL_Guitar,6,2,DL_Guitar,0.9928106665611267,0
58,100,0.2,681,1,55,DL_Guitar,6,3,DL_Guitar,0.9929516911506653,0
58,100,0.2772727272727273,8,1,56,DL_Guitar,6,4,DL_Guitar,0.9995582699775696,1
55,100,0.5409090909090909,603,1,56,DL_Guitar,6,9,DL_Guitar,0.5557987689971924,0
55,100,0.18181818181818182,4,1,57,DL_Guitar,6,3,DL_Guitar,0.9998414516448975,1
55,100,0.11818181818181818,413,1,57,DL_Guitar,6,2,DL_Guitar,0.33581599593162537,0
63,100,0.11818181818181818,703,1,57,DL_Guitar,6,2,DL_Guitar,0.2961902618408203,0
63,100,0.3409090909090909,778,0,57,DL_Guitar,6,5,DL_Guitar,0.3059183955192566,0
58,100,0.2,153,1,58,DL_Guitar,6,3,DL_Guitar,0.9998437166213989,1
53,100,0.38181818181818183,431,1,58,DL_Guitar,6,6,DL_Guitar,0.3391968607902527,0
65,100,0.11818181818181818,528,0,58,DL_Guitar,6,2,DL_Guitar,0.29812559485435486,0
58,100,0.2409090909090909,576,0,58,DL_Guitar,6,4,DL_Guitar,0.29787540435791016,0
63,100,0.1,483,1,59,DL_Guitar,6,2,DL_Guitar,0.9933417439460754,0
58,100,0.3,801,1,60,DL_Guitar,6,5,DL_Guitar,0.9995799660682678,1
53,100,0.17727272727272728,875,0,60,DL_Guitar,6,3,DL_Guitar,0.5691547393798828,0
53,100,0.18181818181818182,298,1,63,DL_Guitar,6,3,DL_Guitar,0.9996497631072998,1
53,100,0.18181818181818182,373,0,63,DL_Guitar,6,3,DL_Guitar,0.5476471185684204,0
53,100,0.1409090909090909,163,1,64,DL_Guitar,6,2,DL_Guitar,0.9933684468269348,0
53,100,0.17727272727272728,612,1,65,DL_Guitar,6,3,DL_Guitar,0.9996515512466431,1
53,100,0.2,826,0,65,DL_Guitar,6,3,DL_Guitar,0.543796956539154,0
53,100,0.2818181818181818,189,1,66,DL_Guitar,6,5,DL_Guitar,0.9998531341552734,1
53,100,0.2772727272727273,392,0,66,DL_Guitar,6,4,DL_Guitar,0.3144022822380066,0
53,100,0.5409090909090909,466,0,66,DL_Guitar,6,9,DL_Guitar,0.2934894859790802,0
55,100,0.11818181818181818,747,1,66,DL_Guitar,6,2,DL_Guitar,0.30624714493751526,0
53,100,0.17727272727272728,184,1,67,DL_Guitar,6,3,DL_Guitar,0.9996474981307983,1
56,100,0.2,536,1,67,DL_Guitar,6,3,DL_Guitar,0.5432700514793396,0
58,100,0.1409090909090909,629,1,69,DL_Guitar,6,2,DL_Guitar,0.9995884299278259,1
58,100,0.2818181818181818,663,0,69,DL_Guitar,6,5,DL_Guitar,0.5500431060791016,0
53,100,0.18181818181818182,422,1,70,DL_Guitar,6,3,DL_Guitar,0.999854326248169,1
58,100,0.1590909090909091,546,0,70,DL_Guitar,6,3,DL_Guitar,0.30468764901161194,0
58,100,0.1590909090909091,585,0,70,DL_Guitar,6,3,DL_Guitar,0.294881671667099,0
53,100,0.12272727272727273,619,0,70,DL_Guitar,6,2,DL_Guitar,0.3262242376804352,0
58,100,0.3409090909090909,462,1,71,DL_Guitar,6,5,DL_Guitar,0.9995614886283875,1
58,100,0.4772727272727273,743,1,71,DL_Guitar,6,8,DL_Guitar,0.5523092150688171,0
53,100,0.1409090909090909,0,1,72,DL_Guitar,6,2,DL_Guitar,0.9996225833892822,1
58,100,0.3,792,1,72,DL_Guitar,6,5,DL_Guitar,0.5378538370132446,0
58,100,0.1,13,1,73,DL_Guitar,6,2,DL_Guitar,0.9998294115066528,1
65,100,0.38181818181818183,330,1,73,DL_Guitar,6,6,DL_Guitar,0.2158859521150589,0
65,100,0.1,417,0,73,DL_Guitar,6,2,DL_Guitar,0.2010129690170288,0
65,100,0.12272727272727273,629,0,73,DL_Guitar,6,2,DL_Guitar,0.20672239363193512,0
65,100,0.18181818181818182,770,0,73,DL_Guitar,6,3,DL_Guitar,0.20197542011737823,0
65,100,0.13636363636363635,83,1,74,DL_Guitar,6,2,DL_Guitar,0.999828577041626,1
63,100,0.2818181818181818,597,1,74,DL_Guitar,6,5,DL_Guitar,0.39711183309555054,0
63,100,0.3181818181818182,669,0,74,DL_Guitar,6,5,DL_Guitar,0.43046680092811584,0
58,100,0.2,263,1,75,DL_Guitar,6,3,DL_Guitar,0.9998409748077393,1
62,100,0.2,352,0,75,DL_Guitar,6,3,DL_Guitar,0.3474368155002594,0
53,100,0.2409090909090909,756,1,75,DL_Guitar,6,4,DL_Guitar,0.2945684790611267,0
53,100,0.18181818181818182,813,0,75,DL_Guitar,6,3,DL_Guitar,0.3096274435520172,0
53,100,0.1409090909090909,9,1,76,DL_Guitar,6,2,DL_Guitar,0.9998565912246704,1
53,100,0.1590909090909091,66,0,76,DL_Guitar,6,3,DL_Guitar,0.3238794803619385,0
65,100,0.1,282,0,76,DL_Guitar,6,2,DL_Guitar,0.28257426619529724,0
55,100,0.1,673,1,76,DL_Guitar,6,2,DL_Guitar,0.300179660320282,0
58,100,0.2409090909090909,532,1,77,DL_Guitar,6,4,DL_Guitar,0.9995713829994202,1
58,100,0.21818181818181817,590,0,77,DL_Guitar,6,3,DL_Guitar,0.560844361782074,0
58,100,0.1,83,1,78,DL_Guitar,6,2,DL_Guitar,0.9995788931846619,1
58,100,0.21818181818181817,339,1,78,DL_Guitar,6,3,DL_Guitar,0.5497599244117737,0
58,100,0.13636363636363635,83,1,79,DL_Guitar,6,2,DL_Guitar,0.9995933175086975,1
60,100,0.32272727272727275,519,1,79,DL_Guitar,6,5,DL_Guitar,0.5609388947486877,0
58,100,0.1,3,1,80,DL_Guitar,6,2,DL_Guitar,0.9998005032539368,1
58,100,1.0772727272727274,40,0,80,DL_Guitar,6,15,DL_Guitar,0.38247403502464294,0
58,100,0.1409090909090909,462,1,80,DL_Guitar,6,2,DL_Guitar,0.4692683517932892,0
58,100,0.2818181818181818,839,1,82,DL_Guitar,6,5,DL_Guitar,0.9920405745506287,1
58,100,1.2818181818181817,466,1,84,DL_Guitar,6,15,DL_Guitar,0.990885317325592,0
58,100,0.4409090909090909,817,1,86,DL_Guitar,6,7,DL_Guitar,0.9920378923416138,0
58,100,0.4772727272727273,62,1,87,DL_Guitar,6,8,DL_Guitar,0.9995461106300354,1
58,100,0.2818181818181818,179,0,87,DL_Guitar,6,5,DL_Guitar,0.5616430044174194,0
58,100,1.2363636363636363,853,1,89,DL_Guitar,6,15,DL_Guitar,0.9905849099159241,0
63,100,0.11818181818181818,703,1,90,DL_Guitar,6,2,DL_Guitar,0.9996229410171509,1
58,100,0.2818181818181818,739,0,90,DL_Guitar,6,5,DL_Guitar,0.5434868931770325,0
58,100,0.11818181818181818,43,1,91,DL_Guitar,6,2,DL_Guitar,0.999840259552002,1
58,100,0.32272727272727275,123,0,91,DL_Guitar,6,5,DL_Guitar,0.32237082719802856,0
58,100,0.2409090909090909,356,1,91,DL_Guitar,6,4,DL_Guitar,0.31758952140808105,0
58,100,1.0227272727272727,650,1,91,DL_Guitar,6,15,DL_Guitar,0.30846187472343445,0
58,100,0.4818181818181818,3,1,92,DL_Guitar,6,8,DL_Guitar,0.9998238682746887,1
58,100,0.1590909090909091,373,1,92,DL_Guitar,6,3,DL_Guitar,0.3494655191898346,0
58,100,0.1,440,0,92,DL_Guitar,6,2,DL_Guitar,0.30427494645118713,0
53,100,0.18181818181818182,593,0,92,DL_Guitar,6,3,DL_Guitar,0.32167676091194153,0
53,100,0.18181818181818182,246,1,93,DL_Guitar,6,3,DL_Guitar,0.9933710098266602,0
58,100,0.3409090909090909,22,1,94,DL_Guitar,6,5,DL_Guitar,0.9998254179954529,1
58,100,0.17727272727272728,250,0,94,DL_Guitar,6,3,DL_Guitar,0.35252270102500916,0
58,100,0.5181818181818182,713,1,94,DL_Guitar,6,8,DL_Guitar,0.299651563167572,0
58,100,0.7181818181818181,853,0,94,DL_Guitar,6,11,DL_Guitar,0.31845325231552124,0
56,100,0.5409090909090909,145,1,95,DL_Guitar,6,9,DL_Guitar,0.9998180270195007,1
56,100,0.18181818181818182,267,0,95,DL_Guitar,6,3,DL_Guitar,0.4293845593929291,0
62,100,0.3181818181818182,690,1,95,DL_Guitar,6,5,DL_Guitar,0.42811259627342224,0
63,100,0.2772727272727273,787,1,96,DL_Guitar,6,4,DL_Guitar,0.9929331541061401,0
63,100,0.18181818181818182,862,1,97,DL_Guitar,6,3,DL_Guitar,0.993304431438446,1
52,100,0.37727272727272726,414,1,0,Dl_Nostalgic_2_Guitar,6,6,Dl_Nostalgic_2_Guitar,0.9998303651809692,1
54,100,0.3181818181818182,502,0,0,Dl_Nostalgic_2_Guitar,6,5,Dl_Nostalgic_2_Guitar,0.40613335371017456,0
57,100,0.2818181818181818,585,0,0,Dl_Nostalgic_2_Guitar,6,5,Dl_Nostalgic_2_Guitar,0.4250352680683136,0
61,100,0.2,157,1,1,Dl_Nostalgic_2_Guitar,6,3,Dl_Nostalgic_2_Guitar,0.9998329877853394,1
61,100,0.17727272727272728,206,0,1,Dl_Nostalgic_2_Guitar,6,3,Dl_Nostalgic_2_Guitar,0.4108907878398895,0
52,100,0.2,752,1,1,Dl_Nostalgic_2_Guitar,6,3,Dl_Nostalgic_2_Guitar,0.4292306900024414,0
61,100,0.1409090909090909,220,1,2,Dl_Nostalgic_2_Guitar,6,2,Dl_Nostalgic_2_Guitar,0.9998573064804077,1
52,100,0.12272727272727273,342,0,2,Dl_Nostalgic_2_Guitar,6,2,Dl_Nostalgic_2_Guitar,0.33291810750961304,0
61,100,0.2,440,0,2,Dl_Nostalgic_2_Guitar,6,3,Dl_Nostalgic_2_Guitar,0.2882510721683502,0
54,100,1.1590909090909092,804,1,2,Dl_Nostalgic_2_Guitar,6,15,Dl_Nostalgic_2_Guitar,0.28590983152389526,0
66,100,0.1409090909090909,268,1,3,Dl_Nostalgic_2_Guitar,6,2,Dl_Nostalgic_2_Guitar,0.999832272529602,1
54,100,0.2409090909090909,421,0,3,Dl_Nostalgic_2_Guitar,6,4,Dl_Nostalgic_2_Guitar,0.4121127724647522,0
54,100,0.21818181818181817,703,1,3,Dl_Nostalgic_2_Guitar,6,3,Dl_Nostalgic_2_Guitar,0.42447295784950256,0
54,100,0.12272727272727273,48,1,4,Dl_Nostalgic_2_Guitar,6,2,Dl_Nostalgic_2_Guitar,0.9998084902763367,1
54,100,0.4,435,1,4,Dl_Nostalgic_2_Guitar,6,6,Dl_Nostalgic_2_Guitar,0.12041965126991272,0
57,100,0.17727272727272728,524,0,4,Dl_Nostalgic_2_Guitar,6,3,Dl_Nostalgic_2_Guitar,0.12048598378896713,0
57,100,0.2409090909090909,606,0,4,Dl_Nostalgic_2_Guitar,6,4,Dl_Nostalgic_2_Guitar,0.13634619116783142,0
57,100,0.21818181818181817,691,0,4,Dl_Nostalgic_2_Guitar,6,3,Dl_Nostalgic_2_Guitar,0.14086580276489258,0
57,100,0.1409090909090909,813,0,4,Dl_Nostalgic_2_Guitar,6,2,Dl_Nostalgic_2_Guitar,0.1368105113506317,0
52,100,0.1409090909090909,8,1,5,Dl_Nostalgic_2_Guitar,6,2,Dl_Nostalgic_2_Guitar,0.9998387098312378,1
57,100,0.2409090909090909,338,1,5,Dl_Nostalgic_2_Guitar,6,4,Dl_Nostalgic_2_Guitar,0.40062054991722107,0
57,100,0.2772727272727273,810,1,5,Dl_Nostalgic_2_Guitar,6,4,Dl_Nostalgic_2_Guitar,0.4221917986869812,0
57,100,0.16363636363636364,4,1,6,Dl_Nostalgic_2_Guitar,6,3,Dl_Nostalgic_2_Guitar,0.9996106028556824,1
69,100,0.18181818181818182,431,1,6,Dl_Nostalgic_2_Guitar,6,3,Dl_Nostalgic_2_Guitar,0.5572352409362793,0
69,100,0.2590909090909091,18,1,7,Dl_Nostalgic_2_Guitar,6,4,Dl_Nostalgic_2_Guitar,0.9998310804367065,1
57,100,0.1590909090909091,74,0,7,Dl_Nostalgic_2_Guitar,6,3,Dl_Nostalgic_2_Guitar,0.21738691627979279,0
61,100,0.22272727272727272,158,0,7,Dl_Nostalgic_2_Guitar,6,4,Dl_Nostalgic_2_Guitar,0.1997297704219818,0
66,100,0.17727272727272728,721,1,7,Dl_Nostalgic_2_Guitar,6,3,Dl_Nostalgic_2_Guitar,0.21652933955192566,0
54,100,0.9409090909090909,761,0,7,Dl_Nostalgic_2_Guitar,6,15,Dl_Nostalgic_2_Guitar,0.1930171549320221,0
57,100,0.2,110,1,8,Dl_Nostalgic_2_Guitar,6,3,Dl_Nostalgic_2_Guitar,0.9997585415840149,1
54,100,0.2,154,0,8,Dl_Nostalgic_2_Guitar,6,3,Dl_Nostalgic_2_Guitar,0.08130504935979843,0
66,100,0.5,211,0,8,Dl_Nostalgic_2_Guitar,6,8,Dl_Nostalgic_2_Guitar,0.07136937975883484,0
52,100,0.13636363636363635,326,0,8,Dl_Nostalgic_2_Guitar,6,2,Dl_Nostalgic_2_Guitar,0.08806930482387543,0
52,100,0.8636363636363636,378,0,8,Dl_Nostalgic_2_Guitar,6,14,Dl_Nostalgic_2_Guitar,0.08774276077747345,0
54,100,0.1590909090909091,625,1,8,Dl_Nostalgic_2_Guitar,6,3,Dl_Nostalgic_2_Guitar,0.10835929214954376,0
52,100,0.9,792,0,8,Dl_Nostalgic_2_Guitar,6,14,Dl_Nostalgic_2_Guitar,0.08498784154653549,0
64,100,0.22272727272727272,123,1,9,Dl_Nostalgic_2_Guitar,6,4,Dl_Nostalgic_2_Guitar,0.9998101592063904,1
57,100,0.1409090909090909,202,0,9,Dl_Nostalgic_2_Guitar,6,2,Dl_Nostalgic_2_Guitar,0.1229817122220993,0
52,100,0.2,259,0,9,Dl_Nostalgic_2_Guitar,6,3,Dl_Nostalgic_2_Guitar,0.12588870525360107,0
59,100,0.33636363636363636,326,0,9,Dl_Nostalgic_2_Guitar,6,5,Dl_Nostalgic_2_Guitar,0.13073894381523132,0
57,100,1.1818181818181819,400,0,9,Dl_Nostalgic_2_Guitar,6,15,Dl_Nostalgic_2_Guitar,0.13201233744621277,0
57,100,0.22272727272727272,761,1,9,Dl_Nostalgic_2_Guitar,6,4,Dl_Nostalgic_2_Guitar,0.1525004655122757,0
57,100,0.12272727272727273,25,1,10,Dl_Nostalgic_2_Guitar,6,2,Dl_Nostalgic_2_Guitar,0.9998342990875244,1
69,100,0.1,254,0,10,Dl_Nostalgic_2_Guitar,6,2,Dl_Nostalgic_2_Guitar,0.21132966876029968,0
57,100,0.6409090909090909,276,0,10,Dl_Nostalgic_2_Guitar,6,10,Dl_Nostalgic_2_Guitar,0.1840483844280243,0
57,100,0.1,470,0,10,Dl_Nostalgic_2_Guitar,6,2,Dl_Nostalgic_2_Guitar,0.22695718705654144,0
57,100,0.740909090909091,735,1,10,Dl_Nostalgic_2_Guitar,6,12,Dl_Nostalgic_2_Guitar,0.20049461722373962,0
57,100,0.2590909090909091,233,1,11,Dl_Nostalgic_2_Guitar,6,4,Dl_Nostalgic_2_Guitar,0.9998239874839783,1
57,100,0.5,295,0,11,Dl_Nostalgic_2_Guitar,6,8,Dl_Nostalgic_2_Guitar,0.2060592919588089,0
57,100,0.5363636363636364,414,0,11,Dl_Nostalgic_2_Guitar,6,9,Dl_Nostalgic_2_Guitar,0.20620852708816528,0
54,100,1.240909090909091,541,0,11,Dl_Nostalgic_2_Guitar,6,15,Dl_Nostalgic_2_Guitar,0.20271633565425873,0
57,100,0.2818181818181818,818,1,11,Dl_Nostalgic_2_Guitar,6,5,Dl_Nostalgic_2_Guitar,0.23894070088863373,0
54,100,0.4,175,1,12,Dl_Nostalgic_2_Guitar,6,6,Dl_Nostalgic_2_Guitar,0.9998039603233337,1
54,100,0.1,268,0,12,Dl_Nostalgic_2_Guitar,6,2,Dl_Nostalgic_2_Guitar,0.1275898665189743,0
57,100,0.4590909090909091,414,0,12,Dl_Nostalgic_2_Guitar,6,7,Dl_Nostalgic_2_Guitar,0.11518210917711258,0
61,100,0.17727272727272728,536,0,12,Dl_Nostalgic_2_Guitar,6,3,Dl_Nostalgic_2_Guitar,0.14125896990299225,0
54,100,0.5409090909090909,660,0,12,Dl_Nostalgic_2_Guitar,6,9,Dl_Nostalgic_2_Guitar,0.14129412174224854,0
57,100,0.1,809,0,12,Dl_Nostalgic_2_Guitar,6,2,Dl_Nostalgic_2_Guitar,0.13651716709136963,0
57,100,0.1590909090909091,13,1,13,Dl_Nostalgic_2_Guitar,6,3,Dl_Nostalgic_2_Guitar,0.9998358488082886,1
69,100,0.3,79,0,13,Dl_Nostalgic_2_Guitar,6,5,Dl_Nostalgic_2_Guitar,0.2066691517829895,0
69,100,0.2409090909090909,163,0,13,Dl_Nostalgic_2_Guitar,6,4,Dl_Nostalgic_2_Guitar,0.20278941094875336,0
57,100,0.2636363636363636,290,0,13,Dl_Nostalgic_2_Guitar,6,4,Dl_Nostalgic_2_Guitar,0.21319471299648285,0
57,100,0.6818181818181818,527,1,13,Dl_Nostalgic_2_Guitar,6,11,Dl_Nostalgic_2_Guitar,0.20126578211784363,0
57,100,0.3409090909090909,96,1,14,Dl_Nostalgic_2_Guitar,6,5,Dl_Nostalgic_2_Guitar,0.9995905756950378,1
57,100,0.8363636363636363,567,1,14,Dl_Nostalgic_2_Guitar,6,13,Dl_Nostalgic_2_Guitar,0.5390655398368835,0
57,100,0.35909090909090907,171,1,15,Dl_Nostalgic_2_Guitar,6,6,Dl_Nostalgic_2_Guitar,0.9997890591621399,1
57,100,0.2590909090909091,254,0,15,Dl_Nostalgic_2_Guitar,6,4,Dl_Nostalgic_2_Guitar,0.13382339477539062,0
57,100,0.38181818181818183,321,0,15,Dl_Nostalgic_2_Guitar,6,6,Dl_Nostalgic_2_Guitar,0.12084303051233292,0
57,100,0.1409090909090909,558,1,15,Dl_Nostalgic_2_Guitar,6,2,Dl_Nostalgic_2_Guitar,0.1391168236732483,0
57,100,0.42272727272727273,651,0,15,Dl_Nostalgic_2_Guitar,6,7,Dl_Nostalgic_2_Guitar,0.14310266077518463,0
57,100,0.38181818181818183,804,0,15,Dl_Nostalgic_2_Guitar,6,6,Dl_Nostalgic_2_Guitar,0.13608652353286743,0
57,100,0.1,100,1,16,Dl_Nostalgic_2_Guitar,6,2,Dl_Nostalgic_2_Guitar,0.9998052716255188,1
57,100,0.38181818181818183,254,0,16,Dl_Nostalgic_2_Guitar,6,6,Dl_Nostalgic_2_Guitar,0.12198440730571747,0
57,100,0.21818181818181817,347,0,16,Dl_Nostalgic_2_Guitar,6,3,Dl_Nostalgic_2_Guitar,0.12193998694419861,0
57,100,0.3,426,0,16,Dl_Nostalgic_2_Guitar,6,5,Dl_Nostalgic_2_Guitar,0.138229101896286,0
57,100,0.2818181818181818,550,0,16,Dl_Nostalgic_2_Guitar,6,5,Dl_Nostalgic_2_Guitar,0.14427731931209564,0
57,100,0.6409090909090909,729,0,16,Dl_Nostalgic_2_Guitar,6,10,Dl_Nostalgic_2_Guitar,0.1298658847808838,0
57,100,1.3818181818181818,3,1,17,Dl_Nostalgic_2_Guitar,6,15,Dl_Nostalgic_2_Guitar,0.9996951818466187,1
57,100,0.5590909090909091,326,1,17,Dl_Nostalgic_2_Guitar,6,9,Dl_Nostalgic_2_Guitar,0.09138207882642746,0
57,100,0.4590909090909091,457,0,17,Dl_Nostalgic_2_Guitar,6,7,Dl_Nostalgic_2_Guitar,0.0794016420841217,0
57,100,0.2409090909090909,594,0,17,Dl_Nostalgic_2_Guitar,6,4,Dl_Nostalgic_2_Guitar,0.08722908049821854,0
57,100,0.1409090909090909,660,0,17,Dl_Nostalgic_2_Guitar,6,2,Dl_Nostalgic_2_Guitar,0.09758505970239639,0
57,100,0.2,700,0,17,Dl_Nostalgic_2_Guitar,6,3,Dl_Nostalgic_2_Guitar,0.1003250852227211,0
57,100,0.38181818181818183,804,0,17,Dl_Nostalgic_2_Guitar,6,6,Dl_Nostalgic_2_Guitar,0.09265951067209244,0
69,100,0.2,9,1,18,Dl_Nostalgic_2_Guitar,6,3,Dl_Nostalgic_2_Guitar,0.9998433589935303,1
57,100,0.5,52,0,18,Dl_Nostalgic_2_Guitar,6,8,Dl_Nostalgic_2_Guitar,0.3117443323135376,0
52,100,0.3409090909090909,185,0,18,Dl_Nostalgic_2_Guitar,6,5,Dl_Nostalgic_2_Guitar,0.31128352880477905,0
57,100,0.3409090909090909,409,0,18,Dl_Nostalgic_2_Guitar,6,5,Dl_Nostalgic_2_Guitar,0.3023887574672699,0
59,100,0.22272727272727272,3,1,19,Dl_Nostalgic_2_Guitar,6,4,Dl_Nostalgic_2_Guitar,0.999803364276886,1
64,100,0.2818181818181818,110,0,19,Dl_Nostalgic_2_Guitar,6,5,Dl_Nostalgic_2_Guitar,0.13037118315696716,0
61,100,0.2590909090909091,189,0,19,Dl_Nostalgic_2_Guitar,6,4,Dl_Nostalgic_2_Guitar,0.12077265977859497,0
61,100,0.2409090909090909,673,1,19,Dl_Nostalgic_2_Guitar,6,4,Dl_Nostalgic_2_Guitar,0.1367999166250229,0
59,100,0.2,752,0,19,Dl_Nostalgic_2_Guitar,6,3,Dl_Nostalgic_2_Guitar,0.14777135848999023,0
59,100,0.9,814,0,19,Dl_Nostalgic_2_Guitar,6,14,Dl_Nostalgic_2_Guitar,0.12420792877674103,0
59,100,0.1409090909090909,136,1,20,Dl_Nostalgic_2_Guitar,6,2,Dl_Nostalgic_2_Guitar,0.9997323155403137,1
59,100,0.21818181818181817,175,0,20,Dl_Nostalgic_2_Guitar,6,3,Dl_Nostalgic_2_Guitar,0.05645771324634552,0
64,100,0.1409090909090909,295,0,20,Dl_Nostalgic_2_Guitar,6,2,Dl_Nostalgic_2_Guitar,0.047796644270420074,0
61,100,0.2409090909090909,409,0,20,Dl_Nostalgic_2_Guitar,6,4,Dl_Nostalgic_2_Guitar,0.04611091688275337,0
64,100,0.18181818181818182,488,0,20,Dl_Nostalgic_2_Guitar,6,3,Dl_Nostalgic_2_Guitar,0.053999800235033035,0
61,100,0.3,638,0,20,Dl_Nostalgic_2_Guitar,6,5,Dl_Nostalgic_2_Guitar,0.05653198063373566,0
61,100,0.2590909090909091,756,0,20,Dl_Nostalgic_2_Guitar,6,4,Dl_Nostalgic_2_Guitar,0.06555110216140747,0
61,100,0.2772727272727273,866,0,20,Dl_Nostalgic_2_Guitar,6,4,Dl_Nostalgic_2_Guitar,0.059066977351903915,0
61,100,0.3181818181818182,162,1,21,Dl_Nostalgic_2_Guitar,6,5,Dl_Nostalgic_2_Guitar,0.9998015761375427,1
61,100,0.35909090909090907,330,0,21,Dl_Nostalgic_2_Guitar,6,6,Dl_Nostalgic_2_Guitar,0.12494054436683655,0
61,100,0.4818181818181818,430,0,21,Dl_Nostalgic_2_Guitar,6,8,Dl_Nostalgic_2_Guitar,0.1200045496225357,0
61,100,0.1590909090909091,611,0,21,Dl_Nostalgic_2_Guitar,6,3,Dl_Nostalgic_2_Guitar,0.13821941614151,0
61,100,0.43636363636363634,656,0,21,Dl_Nostalgic_2_Guitar,6,7,Dl_Nostalgic_2_Guitar,0.1427288055419922,0
61,100,0.37727272727272726,810,0,21,Dl_Nostalgic_2_Guitar,6,6,Dl_Nostalgic_2_Guitar,0.13520938158035278,0
52,100,0.1409090909090909,220,1,22,Dl_Nostalgic_2_Guitar,6,2,Dl_Nostalgic_2_Guitar,0.9996575117111206,1
57,100,0.11818181818181818,748,1,22,Dl_Nostalgic_2_Guitar,6,2,Dl_Nostalgic_2_Guitar,0.5423664450645447,0
52,100,0.1,21,1,23,Dl_Nostalgic_2_Guitar,6,2,Dl_Nostalgic_2_Guitar,0.9998422861099243,1
61,100,0.759090909090909,339,1,23,Dl_Nostalgic_2_Guitar,6,12,Dl_Nostalgic_2_Guitar,0.1806461364030838,0
62,100,0.3,584,1,23,Dl_Nostalgic_2_Guitar,6,5,Dl_Nostalgic_2_Guitar,0.2174689918756485,0
62,100,0.8590909090909091,673,0,23,Dl_Nostalgic_2_Guitar,6,14,Dl_Nostalgic_2_Guitar,0.197675883769989,0
62,100,0.1409090909090909,870,0,23,Dl_Nostalgic_2_Guitar,6,2,Dl_Nostalgic_2_Guitar,0.22350619733333588,0
62,100,0.12272727272727273,144,1,24,Dl_Nostalgic_2_Guitar,6,2,Dl_Nostalgic_2_Guitar,0.999858021736145,1
59,100,0.1590909090909091,320,0,24,Dl_Nostalgic_2_Guitar,6,3,Dl_Nostalgic_2_Guitar,0.3110083043575287,0
59,100,0.6,436,0,24,Dl_Nostalgic_2_Guitar,6,10,Dl_Nostalgic_2_Guitar,0.2795829474925995,0
61,100,0.4,717,1,24,Dl_Nostalgic_2_Guitar,6,6,Dl_Nostalgic_2_Guitar,0.31679654121398926,0
57,100,0.4590909090909091,30,1,25,Dl_Nostalgic_2_Guitar,6,7,Dl_Nostalgic_2_Guitar,0.9998362064361572,1
58,100,0.2818181818181818,179,0,25,Dl_Nostalgic_2_Guitar,6,5,Dl_Nostalgic_2_Guitar,0.3231404423713684,0
61,100,0.21818181818181817,339,0,25,Dl_Nostalgic_2_Guitar,6,3,Dl_Nostalgic_2_Guitar,0.31019723415374756,0
62,100,0.6181818181818182,756,1,25,Dl_Nostalgic_2_Guitar,6,10,Dl_Nostalgic_2_Guitar,0.3131740093231201,0
57,100,0.12272727272727273,48,1,26,Dl_Nostalgic_2_Guitar,6,2,Dl_Nostalgic_2_Guitar,0.9998049139976501,1
62,100,0.2,100,0,26,Dl_Nostalgic_2_Guitar,6,3,Dl_Nostalgic_2_Guitar,0.12658444046974182,0
57,100,0.6181818181818182,150,0,26,Dl_Nostalgic_2_Guitar,6,10,Dl_Nostalgic_2_Guitar,0.11087117344141006,0
59,100,0.1590909090909091,656,1,26,Dl_Nostalgic_2_Guitar,6,3,Dl_Nostalgic_2_Guitar,0.14510264992713928,0
59,100,0.12272727272727273,708,0,26,Dl_Nostalgic_2_Guitar,6,2,Dl_Nostalgic_2_Guitar,0.1446867287158966,0
57,100,0.1590909090909091,822,0,26,Dl_Nostalgic_2_Guitar,6,3,Dl_Nostalgic_2_Guitar,0.13188792765140533,0
61,100,0.3409090909090909,92,1,27,Dl_Nostalgic_2_Guitar,6,5,Dl_Nostalgic_2_Guitar,0.9997960925102234,1
61,100,0.3,316,0,27,Dl_Nostalgic_2_Guitar,6,5,Dl_Nostalgic_2_Guitar,0.12656673789024353,0
52,100,0.4,488,0,27,Dl_Nostalgic_2_Guitar,6,6,Dl_Nostalgic_2_Guitar,0.1234685555100441,0
52,100,0.11818181818181818,602,0,27,Dl_Nostalgic_2_Guitar,6,2,Dl_Nostalgic_2_Guitar,0.1336842030286789,0
61,100,0.2590909090909091,700,0,27,Dl_Nostalgic_2_Guitar,6,4,Dl_Nostalgic_2_Guitar,0.13387948274612427,0
64,100,0.12272727272727273,862,0,27,Dl_Nostalgic_2_Guitar,6,2,Dl_Nostalgic_2_Guitar,0.13379967212677002,0
61,100,0.11818181818181818,9,1,28,Dl_Nostalgic_2_Guitar,6,2,Dl_Nostalgic_2_Guitar,0.9998052716255188,1
61,100,0.1409090909090909,44,0,28,Dl_Nostalgic_2_Guitar,6,2,Dl_Nostalgic_2_Guitar,0.12625698745250702,0
57,100,0.3181818181818182,281,1,28,Dl_Nostalgic_2_Guitar,6,5,Dl_Nostalgic_2_Guitar,0.11666157096624374,0
57,100,0.2409090909090909,387,0,28,Dl_Nostalgic_2_Guitar,6,4,Dl_Nostalgic_2_Guitar,0.13795524835586548,0
61,100,0.1590909090909091,691,1,28,Dl_Nostalgic_2_Guitar,6,3,Dl_Nostalgic_2_Guitar,0.14853546023368835,0
57,100,0.5409090909090909,791,0,28,Dl_Nostalgic_2_Guitar,6,9,Dl_Nostalgic_2_Guitar,0.12792910635471344,0
61,100,0.2409090909090909,123,1,29,Dl_Nostalgic_2_Guitar,6,4,Dl_Nostalgic_2_Guitar,0.9998303651809692,1
52,100,0.11818181818181818,501,1,29,Dl_Nostalgic_2_Guitar,6,2,Dl_Nostalgic_2_Guitar,0.4291597008705139,0
69,100,0.1409090909090909,827,1,29,Dl_Nostalgic_2_Guitar,6,2,Dl_Nostalgic_2_Guitar,0.41332903504371643,0
57,100,0.1409090909090909,167,1,30,Dl_Nostalgic_2_Guitar,6,2,Dl_Nostalgic_2_Guitar,0.9998501539230347,1
57,100,0.2,202,0,30,Dl_Nostalgic_2_Guitar,6,3,Dl_Nostalgic_2_Guitar,0.31638848781585693,0
69,100,0.21818181818181817,418,0,30,Dl_Nostalgic_2_Guitar,6,3,Dl_Nostalgic_2_Guitar,0.2950192391872406,0
57,100,0.1409090909090909,466,0,30,Dl_Nostalgic_2_Guitar,6,2,Dl_Nostalgic_2_Guitar,0.3118422329425812,0
57,100,0.1409090909090909,48,1,31,Dl_Nostalgic_2_Guitar,6,2,Dl_Nostalgic_2_Guitar,0.9998530149459839,1
61,100,0.1409090909090909,532,1,31,Dl_Nostalgic_2_Guitar,6,2,Dl_Nostalgic_2_Guitar,0.31751999258995056,0
61,100,0.17727272727272728,567,0,31,Dl_Nostalgic_2_Guitar,6,3,Dl_Nostalgic_2_Guitar,0.290160596370697,0
61,100,0.1,646,0,31,Dl_Nostalgic_2_Guitar,6,2,Dl_Nostalgic_2_Guitar,0.30614954233169556,0
69,100,0.21818181818181817,105,1,32,Dl_Nostalgic_2_Guitar,6,3,Dl_Nostalgic_2_Guitar,0.9998435974121094,1
57,100,0.7227272727272728,334,0,32,Dl_Nostalgic_2_Guitar,6,12,Dl_Nostalgic_2_Guitar,0.3157437741756439,0
69,100,0.1409090909090909,576,1,32,Dl_Nostalgic_2_Guitar,6,2,Dl_Nostalgic_2_Guitar,0.31954577565193176,0
57,100,1.8227272727272728,651,0,32,Dl_Nostalgic_2_Guitar,6,15,Dl_Nostalgic_2_Guitar,0.28999826312065125,0
69,100,0.18181818181818182,176,1,33,Dl_Nostalgic_2_Guitar,6,3,Dl_Nostalgic_2_Guitar,0.9998218417167664,1
57,100,0.9181818181818182,215,0,33,Dl_Nostalgic_2_Guitar,6,15,Dl_Nostalgic_2_Guitar,0.18298250436782837,0
57,100,0.6227272727272727,509,1,33,Dl_Nostalgic_2_Guitar,6,10,Dl_Nostalgic_2_Guitar,0.2177295833826065,0
57,100,0.33636363636363636,655,0,33,Dl_Nostalgic_2_Guitar,6,5,Dl_Nostalgic_2_Guitar,0.21740980446338654,0
64,100,0.2,765,0,33,Dl_Nostalgic_2_Guitar,6,3,Dl_Nostalgic_2_Guitar,0.22673986852169037,0
61,100,0.11818181818181818,0,1,34,Dl_Nostalgic_2_Guitar,6,2,Dl_Nostalgic_2_Guitar,0.9998015761375427,1
57,100,1.018181818181818,263,1,34,Dl_Nostalgic_2_Guitar,6,15,Dl_Nostalgic_2_Guitar,0.11271476745605469,0
54,100,0.2409090909090909,496,1,34,Dl_Nostalgic_2_Guitar,6,4,Dl_Nostalgic_2_Guitar,0.14040875434875488,0
54,100,0.12272727272727273,619,0,34,Dl_Nostalgic_2_Guitar,6,2,Dl_Nostalgic_2_Guitar,0.14095641672611237,0
69,100,0.11818181818181818,756,0,34,Dl_Nostalgic_2_Guitar,6,2,Dl_Nostalgic_2_Guitar,0.14586471021175385,0
54,100,0.2409090909090909,804,0,34,Dl_Nostalgic_2_Guitar,6,4,Dl_Nostalgic_2_Guitar,0.1352756917476654,0
54,100,0.3409090909090909,21,1,35,Dl_Nostalgic_2_Guitar,6,5,Dl_Nostalgic_2_Guitar,0.999724805355072,1
69,100,0.11818181818181818,348,1,35,Dl_Nostalgic_2_Guitar,6,2,Dl_Nostalgic_2_Guitar,0.05538482218980789,0
54,100,0.42272727272727273,399,0,35,Dl_Nostalgic_2_Guitar,6,7,Dl_Nostalgic_2_Guitar,0.046110209077596664,0
54,100,0.11818181818181818,506,0,35,Dl_Nostalgic_2_Guitar,6,2,Dl_Nostalgic_2_Guitar,0.04954436793923378,0
52,100,0.4,576,0,35,Dl_Nostalgic_2_Guitar,6,6,Dl_Nostalgic_2_Guitar,0.05107627809047699,0
61,100,0.16363636363636364,664,0,35,Dl_Nostalgic_2_Guitar,6,3,Dl_Nostalgic_2_Guitar,0.06014050915837288,0
52,100,0.3409090909090909,729,0,35,Dl_Nostalgic_2_Guitar,6,5,Dl_Nostalgic_2_Guitar,0.06749190390110016,0
52,100,0.2590909090909091,810,0,35,Dl_Nostalgic_2_Guitar,6,4,Dl_Nostalgic_2_Guitar,0.06098117679357529,0
52,100,0.4,8,1,36,Dl_Nostalgic_2_Guitar,6,6,Dl_Nostalgic_2_Guitar,0.9997014403343201,1
61,100,0.21818181818181817,96,0,36,Dl_Nostalgic_2_Guitar,6,3,Dl_Nostalgic_2_Guitar,0.042742643505334854,0
52,100,0.2,185,0,36,Dl_Nostalgic_2_Guitar,6,3,Dl_Nostalgic_2_Guitar,0.0337267704308033,0
52,100,0.3181818181818182,308,0,36,Dl_Nostalgic_2_Guitar,6,5,Dl_Nostalgic_2_Guitar,0.029104985296726227,0
57,100,0.1409090909090909,421,0,36,Dl_Nostalgic_2_Guitar,6,2,Dl_Nostalgic_2_Guitar,0.029502375051379204,0
52,100,0.1409090909090909,619,0,36,Dl_Nostalgic_2_Guitar,6,2,Dl_Nostalgic_2_Guitar,0.034040696918964386,0
61,100,0.13636363636363635,700,0,36,Dl_Nostalgic_2_Guitar,6,2,Dl_Nostalgic_2_Guitar,0.03842867910861969,0
52,100,0.2,778,0,36,Dl_Nostalgic_2_Guitar,6,3,Dl_Nostalgic_2_Guitar,0.04764186590909958,0
52,100,0.17727272727272728,845,0,36,Dl_Nostalgic_2_Guitar,6,3,Dl_Nostalgic_2_Guitar,0.045560289174318314,0
69,100,0.1409090909090909,21,1,37,Dl_Nostalgic_2_Guitar,6,2,Dl_Nostalgic_2_Guitar,0.9997321963310242,1
52,100,0.1409090909090909,185,0,37,Dl_Nostalgic_2_Guitar,6,2,Dl_Nostalgic_2_Guitar,0.0565878301858902,0
59,100,0.2772727272727273,238,0,37,Dl_Nostalgic_2_Guitar,6,4,Dl_Nostalgic_2_Guitar,0.04496762901544571,0
59,100,0.3,348,0,37,Dl_Nostalgic_2_Guitar,6,5,Dl_Nostalgic_2_Guitar,0.046357352286577225,0
52,100,0.2,426,0,37,Dl_Nostalgic_2_Guitar,6,3,Dl_Nostalgic_2_Guitar,0.05438651889562607,0
52,100,0.2,506,0,37,Dl_Nostalgic_2_Guitar,6,3,Dl_Nostalgic_2_Guitar,0.05829377844929695,0
61,100,0.2590909090909091,660,0,37,Dl_Nostalgic_2_Guitar,6,4,Dl_Nostalgic_2_Guitar,0.06303715705871582,0
61,100,0.3181818181818182,823,0,37,Dl_Nostalgic_2_Guitar,6,5,Dl_Nostalgic_2_Guitar,0.059143271297216415,0
61,100,0.2,179,1,38,Dl_Nostalgic_2_Guitar,6,3,Dl_Nostalgic_2_Guitar,0.9997053742408752,1
57,100,0.1,263,0,38,Dl_Nostalgic_2_Guitar,6,2,Dl_Nostalgic_2_Guitar,0.04268955439329147,0
61,100,0.1409090909090909,298,0,38,Dl_Nostalgic_2_Guitar,6,2,Dl_Nostalgic_2_Guitar,0.03361256793141365,0
56,100,0.4,338,0,38,Dl_Nostalgic_2_Guitar,6,6,Dl_Nostalgic_2_Guitar,0.03004470281302929,0
56,100,0.3,431,0,38,Dl_Nostalgic_2_Guitar,6,5,Dl_Nostalgic_2_Guitar,0.031483475118875504,0
59,100,0.11818181818181818,536,0,38,Dl_Nostalgic_2_Guitar,6,2,Dl_Nostalgic_2_Guitar,0.034395743161439896,0
64,100,0.18181818181818182,783,1,38,Dl_Nostalgic_2_Guitar,6,3,Dl_Nostalgic_2_Guitar,0.041583407670259476,0
52,100,0.11818181818181818,831,0,38,Dl_Nostalgic_2_Guitar,6,2,Dl_Nostalgic_2_Guitar,0.04887905716896057,0
57,100,0.8227272727272728,871,0,38,Dl_Nostalgic_2_Guitar,6,13,Dl_Nostalgic_2_Guitar,0.04403991252183914,0
57,100,0.2,246,1,39,Dl_Nostalgic_2_Guitar,6,3,Dl_Nostalgic_2_Guitar,0.999834418296814,1
57,100,0.11818181818181818,295,0,39,Dl_Nostalgic_2_Guitar,6,2,Dl_Nostalgic_2_Guitar,0.21031010150909424,0
57,100,0.7818181818181819,364,0,39,Dl_Nostalgic_2_Guitar,6,13,Dl_Nostalgic_2_Guitar,0.18982236087322235,0
61,100,0.17727272727272728,611,1,39,Dl_Nostalgic_2_Guitar,6,3,Dl_Nostalgic_2_Guitar,0.23198255896568298,0
57,100,1.040909090909091,664,0,39,Dl_Nostalgic_2_Guitar,6,15,Dl_Nostalgic_2_Guitar,0.2013748586177826,0
61,100,0.21818181818181817,118,1,40,Dl_Nostalgic_2_Guitar,6,3,Dl_Nostalgic_2_Guitar,0.999798595905304,1
61,100,0.41818181818181815,418,1,40,Dl_Nostalgic_2_Guitar,6,7,Dl_Nostalgic_2_Guitar,0.12406305968761444,0
56,100,0.6,515,0,40,Dl_Nostalgic_2_Guitar,6,10,Dl_Nostalgic_2_Guitar,0.11797218769788742,0
64,100,0.1409090909090909,686,0,40,Dl_Nostalgic_2_Guitar,6,2,Dl_Nostalgic_2_Guitar,0.1488221436738968,0
57,100,0.2,748,0,40,Dl_Nostalgic_2_Guitar,6,3,Dl_Nostalgic_2_Guitar,0.13890184462070465,0
64,100,0.5,796,0,40,Dl_Nostalgic_2_Guitar,6,8,Dl_Nostalgic_2_Guitar,0.13308317959308624,0
57,100,0.2590909090909091,131,1,41,Dl_Nostalgic_2_Guitar,6,4,Dl_Nostalgic_2_Guitar,0.9998445510864258,1
57,100,0.1590909090909091,506,1,41,Dl_Nostalgic_2_Guitar,6,3,Dl_Nostalgic_2_Guitar,0.3263137936592102,0
57,100,1.0,598,0,41,Dl_Nostalgic_2_Guitar,6,15,Dl_Nostalgic_2_Guitar,0.27025845646858215,0
61,100,0.12272727272727273,839,1,41,Dl_Nostalgic_2_Guitar,6,2,Dl_Nostalgic_2_Guitar,0.3331722915172577,0
57,100,0.23636363636363636,40,1,42,Dl_Nostalgic_2_Guitar,6,4,Dl_Nostalgic_2_Guitar,0.9998230338096619,1
62,100,0.35909090909090907,330,1,42,Dl_Nostalgic_2_Guitar,6,6,Dl_Nostalgic_2_Guitar,0.2181287705898285,0
62,100,0.38181818181818183,571,1,42,Dl_Nostalgic_2_Guitar,6,6,Dl_Nostalgic_2_Guitar,0.19145622849464417,0
59,100,0.36363636363636365,664,0,42,Dl_Nostalgic_2_Guitar,6,6,Dl_Nostalgic_2_Guitar,0.2141198217868805,0
64,100,0.11818181818181818,858,0,42,Dl_Nostalgic_2_Guitar,6,2,Dl_Nostalgic_2_Guitar,0.2148837149143219,0
57,100,0.9227272727272727,254,1,43,Dl_Nostalgic_2_Guitar,6,15,Dl_Nostalgic_2_Guitar,0.9998202919960022,1
57,100,0.2,506,1,43,Dl_Nostalgic_2_Guitar,6,3,Dl_Nostalgic_2_Guitar,0.3666931092739105,0
58,100,0.740909090909091,651,0,43,Dl_Nostalgic_2_Guitar,6,12,Dl_Nostalgic_2_Guitar,0.28111326694488525,0
58,100,0.37727272727272726,875,0,43,Dl_Nostalgic_2_Guitar,6,6,Dl_Nostalgic_2_Guitar,0.33035364747047424,0
54,100,0.12272727272727273,364,1,44,Dl_Nostalgic_2_Guitar,6,2,Dl_Nostalgic_2_Guitar,0.9998563528060913,1
57,100,0.2590909090909091,625,1,44,Dl_Nostalgic_2_Guitar,6,4,Dl_Nostalgic_2_Guitar,0.31566840410232544,0
57,100,0.2590909090909091,756,0,44,Dl_Nostalgic_2_Guitar,6,4,Dl_Nostalgic_2_Guitar,0.29073846340179443,0
59,100,0.21818181818181817,823,0,44,Dl_Nostalgic_2_Guitar,6,3,Dl_Nostalgic_2_Guitar,0.30448126792907715,0
52,100,0.35909090909090907,298,1,45,Dl_Nostalgic_2_Guitar,6,6,Dl_Nostalgic_2_Guitar,0.9998501539230347,1
61,100,1.1,418,0,45,Dl_Nostalgic_2_Guitar,6,15,Dl_Nostalgic_2_Guitar,0.28369688987731934,0
52,100,0.1409090909090909,716,1,45,Dl_Nostalgic_2_Guitar,6,2,Dl_Nostalgic_2_Guitar,0.33001700043678284,0
61,100,0.2590909090909091,813,0,45,Dl_Nostalgic_2_Guitar,6,4,Dl_Nostalgic_2_Guitar,0.3046698272228241,0
61,100,0.2409090909090909,166,1,46,Dl_Nostalgic_2_Guitar,6,4,Dl_Nostalgic_2_Guitar,0.9998352527618408,1
61,100,0.1,496,1,46,Dl_Nostalgic_2_Guitar,6,2,Dl_Nostalgic_2_Guitar,0.21243630349636078,0
61,100,0.4,523,0,46,Dl_Nostalgic_2_Guitar,6,6,Dl_Nostalgic_2_Guitar,0.18884696066379547,0
61,100,0.17727272727272728,655,0,46,Dl_Nostalgic_2_Guitar,6,3,Dl_Nostalgic_2_Guitar,0.21118102967739105,0
62,100,0.41818181818181815,813,0,46,Dl_Nostalgic_2_Guitar,6,7,Dl_Nostalgic_2_Guitar,0.2061455398797989,0
61,100,0.32272727272727275,26,1,47,Dl_Nostalgic_2_Guitar,6,5,Dl_Nostalgic_2_Guitar,0.9997944235801697,1
56,100,0.9,110,0,47,Dl_Nostalgic_2_Guitar,6,14,Dl_Nostalgic_2_Guitar,0.11912661045789719,0
52,100,0.1590909090909091,528,1,47,Dl_Nostalgic_2_Guitar,6,3,Dl_Nostalgic_2_Guitar,0.13913030922412872,0
52,100,0.11818181818181818,568,0,47,Dl_Nostalgic_2_Guitar,6,2,Dl_Nostalgic_2_Guitar,0.14011698961257935,0
57,100,0.11818181818181818,625,0,47,Dl_Nostalgic_2_Guitar,6,2,Dl_Nostalgic_2_Guitar,0.14139840006828308,0
57,100,0.4,678,0,47,Dl_Nostalgic_2_Guitar,6,6,Dl_Nostalgic_2_Guitar,0.128384068608284,0
57,100,0.3,31,1,48,Dl_Nostalgic_2_Guitar,6,5,Dl_Nostalgic_2_Guitar,0.9998186230659485,1
57,100,0.6590909090909091,101,0,48,Dl_Nostalgic_2_Guitar,6,11,Dl_Nostalgic_2_Guitar,0.20285049080848694,0
57,100,0.8590909090909091,343,1,48,Dl_Nostalgic_2_Guitar,6,14,Dl_Nostalgic_2_Guitar,0.1992068588733673,0
61,100,1.0,646,1,48,Dl_Nostalgic_2_Guitar,6,15,Dl_Nostalgic_2_Guitar,0.21893951296806335,0
61,100,0.12272727272727273,871,0,48,Dl_Nostalgic_2_Guitar,6,2,Dl_Nostalgic_2_Guitar,0.240356907248497,0
61,100,0.1409090909090909,53,1,49,Dl_Nostalgic_2_Guitar,6,2,Dl_Nostalgic_2_Guitar,0.9997649788856506,1
62,100,0.1409090909090909,179,0,49,Dl_Nostalgic_2_Guitar,6,2,Dl_Nostalgic_2_Guitar,0.08348038792610168,0
62,100,0.1,215,0,49,Dl_Nostalgic_2_Guitar,6,2,Dl_Nostalgic_2_Guitar,0.07452337443828583,0
56,100,0.32272727272727275,268,0,49,Dl_Nostalgic_2_Guitar,6,5,Dl_Nostalgic_2_Guitar,0.08136066794395447,0
59,100,1.1409090909090909,383,0,49,Dl_Nostalgic_2_Guitar,6,15,Dl_Nostalgic_2_Guitar,0.08260146528482437,0
52,100,0.18181818181818182,694,1,49,Dl_Nostalgic_2_Guitar,6,3,Dl_Nostalgic_2_Guitar,0.1225467175245285,0
61,100,1.1227272727272728,738,0,49,Dl_Nostalgic_2_Guitar,6,15,Dl_Nostalgic_2_Guitar,0.08407596498727798,0
57,100,0.1590909090909091,123,1,50,Dl_Nostalgic_2_Guitar,6,3,Dl_Nostalgic_2_Guitar,0.999832034111023,1
61,100,0.2409090909090909,268,0,50,Dl_Nostalgic_2_Guitar,6,4,Dl_Nostalgic_2_Guitar,0.2088528424501419,0
57,100,0.5181818181818182,325,0,50,Dl_Nostalgic_2_Guitar,6,8,Dl_Nostalgic_2_Guitar,0.18773691356182098,0
52,100,0.17727272727272728,448,0,50,Dl_Nostalgic_2_Guitar,6,3,Dl_Nostalgic_2_Guitar,0.2259417027235031,0
52,100,0.11818181818181818,743,1,50,Dl_Nostalgic_2_Guitar,6,2,Dl_Nostalgic_2_Guitar,0.20647293329238892,0
62,100,0.3,144,1,51,Dl_Nostalgic_2_Guitar,6,5,Dl_Nostalgic_2_Guitar,0.9998403787612915,1
62,100,0.1590909090909091,316,0,51,Dl_Nostalgic_2_Guitar,6,3,Dl_Nostalgic_2_Guitar,0.21026112139225006,0
56,100,0.4,483,0,51,Dl_Nostalgic_2_Guitar,6,6,Dl_Nostalgic_2_Guitar,0.19397269189357758,0
64,100,0.12272727272727273,686,0,51,Dl_Nostalgic_2_Guitar,6,2,Dl_Nostalgic_2_Guitar,0.21705475449562073,0
61,100,0.22272727272727272,839,0,51,Dl_Nostalgic_2_Guitar,6,4,Dl_Nostalgic_2_Guitar,0.1949453055858612,0
57,100,0.11818181818181818,31,1,52,Dl_Nostalgic_2_Guitar,6,2,Dl_Nostalgic_2_Guitar,0.9997981190681458,1
57,100,0.13636363636363635,61,0,52,Dl_Nostalgic_2_Guitar,6,2,Dl_Nostalgic_2_Guitar,0.12458628416061401,0
57,100,0.5227272727272727,123,0,52,Dl_Nostalgic_2_Guitar,6,8,Dl_Nostalgic_2_Guitar,0.11538345366716385,0
61,100,0.37727272727272726,238,0,52,Dl_Nostalgic_2_Guitar,6,6,Dl_Nostalgic_2_Guitar,0.14423702657222748,0
61,100,0.36363636363636365,421,0,52,Dl_Nostalgic_2_Guitar,6,6,Dl_Nostalgic_2_Guitar,0.14944468438625336,0
61,100,0.41818181818181815,545,0,52,Dl_Nostalgic_2_Guitar,6,7,Dl_Nostalgic_2_Guitar,0.1365475356578827,0
57,100,0.1409090909090909,13,1,53,Dl_Nostalgic_2_Guitar,6,2,Dl_Nostalgic_2_Guitar,0.9997329115867615,1
61,100,0.1,43,0,53,Dl_Nostalgic_2_Guitar,6,2,Dl_Nostalgic_2_Guitar,0.05630206689238548,0
54,100,0.35909090909090907,101,0,53,Dl_Nostalgic_2_Guitar,6,6,Dl_Nostalgic_2_Guitar,0.045982543379068375,0
57,100,0.1409090909090909,220,0,53,Dl_Nostalgic_2_Guitar,6,2,Dl_Nostalgic_2_Guitar,0.048864733427762985,0
57,100,0.1,276,0,53,Dl_Nostalgic_2_Guitar,6,2,Dl_Nostalgic_2_Guitar,0.05268213152885437,0
57,100,0.1409090909090909,506,0,53,Dl_Nostalgic_2_Guitar,6,2,Dl_Nostalgic_2_Guitar,0.06209629401564598,0
56,100,0.11818181818181818,590,0,53,Dl_Nostalgic_2_Guitar,6,2,Dl_Nostalgic_2_Guitar,0.06970353424549103,0
56,100,0.8409090909090909,619,0,53,Dl_Nostalgic_2_Guitar,6,13,Dl_Nostalgic_2_Guitar,0.058076243847608566,0
61,100,0.2590909090909091,96,1,54,Dl_Nostalgic_2_Guitar,6,4,Dl_Nostalgic_2_Guitar,0.9998492002487183,1
57,100,0.5590909090909091,163,0,54,Dl_Nostalgic_2_Guitar,6,9,Dl_Nostalgic_2_Guitar,0.30637818574905396,0
57,100,0.3,480,1,54,Dl_Nostalgic_2_Guitar,6,5,Dl_Nostalgic_2_Guitar,0.3153165578842163,0
57,100,1.0,584,0,54,Dl_Nostalgic_2_Guitar,6,15,Dl_Nostalgic_2_Guitar,0.3011997938156128,0
57,100,0.21818181818181817,40,1,55,Dl_Nostalgic_2_Guitar,6,3,Dl_Nostalgic_2_Guitar,0.999612033367157,1
52,100,0.13636363636363635,875,1,55,Dl_Nostalgic_2_Guitar,6,2,Dl_Nostalgic_2_Guitar,0.5623804926872253,0
52,100,0.6,31,1,56,Dl_Nostalgic_2_Guitar,6,10,Dl_Nostalgic_2_Guitar,0.9998249411582947,1
52,100,0.4818181818181818,188,0,56,Dl_Nostalgic_2_Guitar,6,8,Dl_Nostalgic_2_Guitar,0.21850307285785675,0
61,100,0.5363636363636364,325,0,56,Dl_Nostalgic_2_Guitar,6,9,Dl_Nostalgic_2_Guitar,0.19516867399215698,0
61,100,0.1590909090909091,448,0,56,Dl_Nostalgic_2_Guitar,6,3,Dl_Nostalgic_2_Guitar,0.226501002907753,0
61,100,0.9590909090909091,866,1,56,Dl_Nostalgic_2_Guitar,6,15,Dl_Nostalgic_2_Guitar,0.19759798049926758,0
61,100,0.2,211,1,57,Dl_Nostalgic_2_Guitar,6,3,Dl_Nostalgic_2_Guitar,0.9998499155044556,1
64,100,0.21818181818181817,273,0,57,Dl_Nostalgic_2_Guitar,6,3,Dl_Nostalgic_2_Guitar,0.33134356141090393,0
61,100,0.2590909090909091,321,0,57,Dl_Nostalgic_2_Guitar,6,4,Dl_Nostalgic_2_Guitar,0.2815510630607605,0
62,100,0.1409090909090909,848,1,57,Dl_Nostalgic_2_Guitar,6,2,Dl_Nostalgic_2_Guitar,0.305625855922699,0
52,100,0.32272727272727275,188,1,58,Dl_Nostalgic_2_Guitar,6,5,Dl_Nostalgic_2_Guitar,0.9998276233673096,1
52,100,0.5590909090909091,386,0,58,Dl_Nostalgic_2_Guitar,6,9,Dl_Nostalgic_2_Guitar,0.41573888063430786,0
57,100,1.540909090909091,515,0,58,Dl_Nostalgic_2_Guitar,6,15,Dl_Nostalgic_2_Guitar,0.3991211950778961,0
57,100,0.3181818181818182,21,1,59,Dl_Nostalgic_2_Guitar,6,5,Dl_Nostalgic_2_Guitar,0.999843955039978,1
61,100,0.6181818181818182,96,0,59,Dl_Nostalgic_2_Guitar,6,10,Dl_Nostalgic_2_Guitar,0.3138693571090698,0
52,100,0.1409090909090909,431,1,59,Dl_Nostalgic_2_Guitar,6,2,Dl_Nostalgic_2_Guitar,0.31416529417037964,0
61,100,0.2,506,0,59,Dl_Nostalgic_2_Guitar,6,3,Dl_Nostalgic_2_Guitar,0.3019595742225647,0
62,100,0.18181818181818182,91,1,60,Dl_Nostalgic_2_Guitar,6,3,Dl_Nostalgic_2_Guitar,0.9998082518577576,1
56,100,0.4409090909090909,166,0,60,Dl_Nostalgic_2_Guitar,6,7,Dl_Nostalgic_2_Guitar,0.12340035289525986,0
56,100,0.1409090909090909,273,0,60,Dl_Nostalgic_2_Guitar,6,2,Dl_Nostalgic_2_Guitar,0.12827782332897186,0
56,100,0.3181818181818182,308,0,60,Dl_Nostalgic_2_Guitar,6,5,Dl_Nostalgic_2_Guitar,0.13315314054489136,0
59,100,0.9409090909090909,638,1,60,Dl_Nostalgic_2_Guitar,6,15,Dl_Nostalgic_2_Guitar,0.13421235978603363,0
59,100,0.11818181818181818,866,0,60,Dl_Nostalgic_2_Guitar,6,2,Dl_Nostalgic_2_Guitar,0.14385424554347992,0
61,100,0.5,105,1,61,Dl_Nostalgic_2_Guitar,6,8,Dl_Nostalgic_2_Guitar,0.9998257756233215,1
61,100,0.3409090909090909,251,0,61,Dl_Nostalgic_2_Guitar,6,5,Dl_Nostalgic_2_Guitar,0.2250644564628601,0
61,100,0.11818181818181818,536,1,61,Dl_Nostalgic_2_Guitar,6,2,Dl_Nostalgic_2_Guitar,0.20408816635608673,0
57,100,0.12272727272727273,686,0,61,Dl_Nostalgic_2_Guitar,6,2,Dl_Nostalgic_2_Guitar,0.21583503484725952,0
62,100,1.5818181818181818,729,0,61,Dl_Nostalgic_2_Guitar,6,15,Dl_Nostalgic_2_Guitar,0.19054359197616577,0
62,100,0.4409090909090909,220,1,62,Dl_Nostalgic_2_Guitar,6,7,Dl_Nostalgic_2_Guitar,0.9998180270195007,1
52,100,1.1772727272727272,338,0,62,Dl_Nostalgic_2_Guitar,6,15,Dl_Nostalgic_2_Guitar,0.39255109429359436,0
64,100,0.42272727272727273,804,1,62,Dl_Nostalgic_2_Guitar,6,7,Dl_Nostalgic_2_Guitar,0.4524582624435425,0
59,100,0.3,96,1,63,Dl_Nostalgic_2_Guitar,6,5,Dl_Nostalgic_2_Guitar,0.9998290538787842,1
52,100,0.4409090909090909,201,0,63,Dl_Nostalgic_2_Guitar,6,7,Dl_Nostalgic_2_Guitar,0.4182121455669403,0
52,100,0.43636363636363634,303,0,63,Dl_Nostalgic_2_Guitar,6,7,Dl_Nostalgic_2_Guitar,0.42184165120124817,0
68,100,0.2,153,1,64,Dl_Nostalgic_2_Guitar,6,3,Dl_Nostalgic_2_Guitar,0.9996421337127686,1
59,100,0.21818181818181817,546,1,64,Dl_Nostalgic_2_Guitar,6,3,Dl_Nostalgic_2_Guitar,0.5449517965316772,0
61,100,0.22272727272727272,377,1,65,Dl_Nostalgic_2_Guitar,6,4,Dl_Nostalgic_2_Guitar,0.9996141195297241,1
56,100,1.0,585,0,65,Dl_Nostalgic_2_Guitar,6,15,Dl_Nostalgic_2_Guitar,0.529025137424469,0
68,100,0.35909090909090907,87,1,66,Dl_Nostalgic_2_Guitar,6,6,Dl_Nostalgic_2_Guitar,0.9996914863586426,1
61,100,0.1409090909090909,202,0,66,Dl_Nostalgic_2_Guitar,6,2,Dl_Nostalgic_2_Guitar,0.04357626661658287,0
64,100,0.41818181818181815,260,0,66,Dl_Nostalgic_2_Guitar,6,7,Dl_Nostalgic_2_Guitar,0.03273997828364372,0
61,100,0.35909090909090907,352,0,66,Dl_Nostalgic_2_Guitar,6,6,Dl_Nostalgic_2_Guitar,0.03084932640194893,0
57,100,0.12272727272727273,443,0,66,Dl_Nostalgic_2_Guitar,6,2,Dl_Nostalgic_2_Guitar,0.031697776168584824,0
61,100,0.11818181818181818,590,0,66,Dl_Nostalgic_2_Guitar,6,2,Dl_Nostalgic_2_Guitar,0.03440486639738083,0
64,100,0.1,673,0,66,Dl_Nostalgic_2_Guitar,6,2,Dl_Nostalgic_2_Guitar,0.04145702347159386,0
59,100,0.21818181818181817,722,0,66,Dl_Nostalgic_2_Guitar,6,3,Dl_Nostalgic_2_Guitar,0.047649893909692764,0
61,100,0.5409090909090909,817,0,66,Dl_Nostalgic_2_Guitar,6,9,Dl_Nostalgic_2_Guitar,0.04425208270549774,0
62,100,0.7181818181818181,567,1,67,Dl_Nostalgic_2_Guitar,6,11,Dl_Nostalgic_2_Guitar,0.9995483756065369,1
56,100,0.9590909090909091,726,0,67,Dl_Nostalgic_2_Guitar,6,15,Dl_Nostalgic_2_Guitar,0.5505704879760742,0
68,100,0.18181818181818182,92,1,68,Dl_Nostalgic_2_Guitar,6,3,Dl_Nostalgic_2_Guitar,0.9996657371520996,1
59,100,0.12272727272727273,136,0,68,Dl_Nostalgic_2_Guitar,6,2,Dl_Nostalgic_2_Guitar,0.03187043219804764,0
68,100,0.1590909090909091,197,0,68,Dl_Nostalgic_2_Guitar,6,3,Dl_Nostalgic_2_Guitar,0.02185436151921749,0
52,100,0.12272727272727273,255,0,68,Dl_Nostalgic_2_Guitar,6,2,Dl_Nostalgic_2_Guitar,0.01670350506901741,0
52,100,0.1,294,0,68,Dl_Nostalgic_2_Guitar,6,2,Dl_Nostalgic_2_Guitar,0.01337936706840992,0
64,100,0.1,316,0,68,Dl_Nostalgic_2_Guitar,6,2,Dl_Nostalgic_2_Guitar,0.012178679928183556,0
61,100,0.22272727272727272,343,0,68,Dl_Nostalgic_2_Guitar,6,4,Dl_Nostalgic_2_Guitar,0.01256301999092102,0
61,100,0.21818181818181817,457,0,68,Dl_Nostalgic_2_Guitar,6,3,Dl_Nostalgic_2_Guitar,0.016422908753156662,0
61,100,0.2409090909090909,509,0,68,Dl_Nostalgic_2_Guitar,6,4,Dl_Nostalgic_2_Guitar,0.023068204522132874,0
61,100,0.12272727272727273,576,0,68,Dl_Nostalgic_2_Guitar,6,2,Dl_Nostalgic_2_Guitar,0.03176495060324669,0
57,100,0.7,792,0,68,Dl_Nostalgic_2_Guitar,6,11,Dl_Nostalgic_2_Guitar,0.032329607754945755,0
57,100,0.13636363636363635,83,1,69,Dl_Nostalgic_2_Guitar,6,2,Dl_Nostalgic_2_Guitar,0.9998241066932678,1
57,100,0.17727272727272728,119,0,69,Dl_Nostalgic_2_Guitar,6,3,Dl_Nostalgic_2_Guitar,0.4147050976753235,0
57,100,0.2,650,1,69,Dl_Nostalgic_2_Guitar,6,3,Dl_Nostalgic_2_Guitar,0.4255386292934418,0
68,100,0.1409090909090909,267,1,70,Dl_Nostalgic_2_Guitar,6,2,Dl_Nostalgic_2_Guitar,0.9998065829277039,1
52,100,0.21818181818181817,440,0,70,Dl_Nostalgic_2_Guitar,6,3,Dl_Nostalgic_2_Guitar,0.12571778893470764,0
61,100,1.1,502,0,70,Dl_Nostalgic_2_Guitar,6,15,Dl_Nostalgic_2_Guitar,0.10523773729801178,0
61,100,0.1409090909090909,770,1,70,Dl_Nostalgic_2_Guitar,6,2,Dl_Nostalgic_2_Guitar,0.14996089041233063,0
61,100,0.1590909090909091,805,0,70,Dl_Nostalgic_2_Guitar,6,3,Dl_Nostalgic_2_Guitar,0.14576977491378784,0
61,100,0.1409090909090909,844,0,70,Dl_Nostalgic_2_Guitar,6,2,Dl_Nostalgic_2_Guitar,0.13257279992103577,0
61,100,0.4590909090909091,87,1,71,Dl_Nostalgic_2_Guitar,6,7,Dl_Nostalgic_2_Guitar,0.9998233914375305,1
57,100,0.5409090909090909,210,0,71,Dl_Nostalgic_2_Guitar,6,9,Dl_Nostalgic_2_Guitar,0.20806610584259033,0
61,100,0.7,413,0,71,Dl_Nostalgic_2_Guitar,6,11,Dl_Nostalgic_2_Guitar,0.19103124737739563,0
62,100,0.2818181818181818,619,0,71,Dl_Nostalgic_2_Guitar,6,5,Dl_Nostalgic_2_Guitar,0.22581098973751068,0
62,100,0.1,787,0,71,Dl_Nostalgic_2_Guitar,6,2,Dl_Nostalgic_2_Guitar,0.21329444646835327,0
62,100,0.12272727272727273,56,1,72,Dl_Nostalgic_2_Guitar,6,2,Dl_Nostalgic_2_Guitar,0.9998470544815063,1
52,100,0.12272727272727273,166,0,72,Dl_Nostalgic_2_Guitar,6,2,Dl_Nostalgic_2_Guitar,0.20781701803207397,0
59,100,0.3181818181818182,347,0,72,Dl_Nostalgic_2_Guitar,6,5,Dl_Nostalgic_2_Guitar,0.18837296962738037,0
56,100,0.1,483,0,72,Dl_Nostalgic_2_Guitar,6,2,Dl_Nostalgic_2_Guitar,0.21511952579021454,0
57,100,0.11818181818181818,656,0,72,Dl_Nostalgic_2_Guitar,6,2,Dl_Nostalgic_2_Guitar,0.19929033517837524,0
59,100,0.17727272727272728,216,1,73,Dl_Nostalgic_2_Guitar,6,3,Dl_Nostalgic_2_Guitar,0.9997982382774353,1
61,100,0.8772727272727273,260,0,73,Dl_Nostalgic_2_Guitar,6,14,Dl_Nostalgic_2_Guitar,0.11282575875520706,0
61,100,0.18181818181818182,466,0,73,Dl_Nostalgic_2_Guitar,6,3,Dl_Nostalgic_2_Guitar,0.1405576765537262,0
57,100,0.4818181818181818,553,0,73,Dl_Nostalgic_2_Guitar,6,8,Dl_Nostalgic_2_Guitar,0.12785542011260986,0
64,100,0.1409090909090909,703,0,73,Dl_Nostalgic_2_Guitar,6,2,Dl_Nostalgic_2_Guitar,0.1604887843132019,0
61,100,0.5590909090909091,743,0,73,Dl_Nostalgic_2_Guitar,6,9,Dl_Nostalgic_2_Guitar,0.13048741221427917,0
57,100,0.11818181818181818,119,1,74,Dl_Nostalgic_2_Guitar,6,2,Dl_Nostalgic_2_Guitar,0.9998031258583069,1
61,100,0.7181818181818181,163,0,74,Dl_Nostalgic_2_Guitar,6,11,Dl_Nostalgic_2_Guitar,0.11730635911226273,0
68,100,0.42272727272727273,343,0,74,Dl_Nostalgic_2_Guitar,6,7,Dl_Nostalgic_2_Guitar,0.128635436296463,0
68,100,0.1,580,1,74,Dl_Nostalgic_2_Guitar,6,2,Dl_Nostalgic_2_Guitar,0.14214418828487396,0
59,100,0.2409090909090909,752,0,74,Dl_Nostalgic_2_Guitar,6,4,Dl_Nostalgic_2_Guitar,0.14605605602264404,0
57,100,0.3,832,0,74,Dl_Nostalgic_2_Guitar,6,5,Dl_Nostalgic_2_Guitar,0.13227210938930511,0
61,100,0.38181818181818183,87,1,75,Dl_Nostalgic_2_Guitar,6,6,Dl_Nostalgic_2_Guitar,0.9998264908790588,1
57,100,0.2818181818181818,286,0,75,Dl_Nostalgic_2_Guitar,6,5,Dl_Nostalgic_2_Guitar,0.2094314992427826,0
59,100,0.5590909090909091,370,0,75,Dl_Nostalgic_2_Guitar,6,9,Dl_Nostalgic_2_Guitar,0.19661033153533936,0
57,100,0.2772727272727273,502,0,75,Dl_Nostalgic_2_Guitar,6,4,Dl_Nostalgic_2_Guitar,0.2195601463317871,0
59,100,0.9,677,0,75,Dl_Nostalgic_2_Guitar,6,14,Dl_Nostalgic_2_Guitar,0.20614638924598694,0
61,100,1.0636363636363637,3,1,76,Dl_Nostalgic_2_Guitar,6,15,Dl_Nostalgic_2_Guitar,0.9997586607933044,1
61,100,0.9409090909090909,276,1,76,Dl_Nostalgic_2_Guitar,6,15,Dl_Nostalgic_2_Guitar,0.13156384229660034,0
56,100,0.2590909090909091,493,0,76,Dl_Nostalgic_2_Guitar,6,4,Dl_Nostalgic_2_Guitar,0.14085453748703003,0
52,100,0.2,603,0,76,Dl_Nostalgic_2_Guitar,6,3,Dl_Nostalgic_2_Guitar,0.14497986435890198,0
52,100,0.11818181818181818,660,0,76,Dl_Nostalgic_2_Guitar,6,2,Dl_Nostalgic_2_Guitar,0.15190063416957855,0
56,100,0.6181818181818182,779,0,76,Dl_Nostalgic_2_Guitar,6,10,Dl_Nostalgic_2_Guitar,0.12935234606266022,0
61,100,0.7181818181818181,110,1,77,Dl_Nostalgic_2_Guitar,6,11,Dl_Nostalgic_2_Guitar,0.9998282194137573,1
61,100,0.4,399,1,77,Dl_Nostalgic_2_Guitar,6,6,Dl_Nostalgic_2_Guitar,0.34405794739723206,0
57,100,0.4,493,0,77,Dl_Nostalgic_2_Guitar,6,6,Dl_Nostalgic_2_Guitar,0.2986321747303009,0
57,100,0.37727272727272726,656,0,77,Dl_Nostalgic_2_Guitar,6,6,Dl_Nostalgic_2_Guitar,0.31704971194267273,0
57,100,0.41818181818181815,184,1,78,Dl_Nostalgic_2_Guitar,6,7,Dl_Nostalgic_2_Guitar,0.9998214840888977,1
57,100,0.1409090909090909,440,1,78,Dl_Nostalgic_2_Guitar,6,2,Dl_Nostalgic_2_Guitar,0.4277971684932709,0
52,100,0.1,796,1,78,Dl_Nostalgic_2_Guitar,6,2,Dl_Nostalgic_2_Guitar,0.43404629826545715,0
59,100,0.16363636363636364,69,1,79,Dl_Nostalgic_2_Guitar,6,3,Dl_Nostalgic_2_Guitar,0.9997591376304626,1
56,100,0.38181818181818183,145,0,79,Dl_Nostalgic_2_Guitar,6,6,Dl_Nostalgic_2_Guitar,0.07791750878095627,0
61,100,0.759090909090909,263,0,79,Dl_Nostalgic_2_Guitar,6,12,Dl_Nostalgic_2_Guitar,0.07003597915172577,0
61,100,0.21818181818181817,436,0,79,Dl_Nostalgic_2_Guitar,6,3,Dl_Nostalgic_2_Guitar,0.08632990717887878,0
61,100,0.5409090909090909,506,0,79,Dl_Nostalgic_2_Guitar,6,9,Dl_Nostalgic_2_Guitar,0.09036142379045486,0
61,100,0.5181818181818182,633,0,79,Dl_Nostalgic_2_Guitar,6,8,Dl_Nostalgic_2_Guitar,0.10077349096536636,0
54,100,0.4818181818181818,747,0,79,Dl_Nostalgic_2_Guitar,6,8,Dl_Nostalgic_2_Guitar,0.09081784635782242,0
62,100,0.8,333,1,80,Dl_Nostalgic_2_Guitar,6,13,Dl_Nostalgic_2_Guitar,0.9998083710670471,1
62,100,0.5590909090909091,563,0,80,Dl_Nostalgic_2_Guitar,6,9,Dl_Nostalgic_2_Guitar,0.2203974723815918,0
59,100,0.1409090909090909,734,0,80,Dl_Nostalgic_2_Guitar,6,2,Dl_Nostalgic_2_Guitar,0.21843916177749634,0
59,100,0.1590909090909091,770,0,80,Dl_Nostalgic_2_Guitar,6,3,Dl_Nostalgic_2_Guitar,0.21391291916370392,0
68,100,0.4409090909090909,817,0,80,Dl_Nostalgic_2_Guitar,6,7,Dl_Nostalgic_2_Guitar,0.2093285769224167,0
68,100,0.41818181818181815,193,1,81,Dl_Nostalgic_2_Guitar,6,7,Dl_Nostalgic_2_Guitar,0.9997945427894592,1
64,100,0.2409090909090909,343,0,81,Dl_Nostalgic_2_Guitar,6,4,Dl_Nostalgic_2_Guitar,0.1336369514465332,0
61,100,0.2818181818181818,396,0,81,Dl_Nostalgic_2_Guitar,6,5,Dl_Nostalgic_2_Guitar,0.11653229594230652,0
61,100,0.33636363636363636,502,0,81,Dl_Nostalgic_2_Guitar,6,5,Dl_Nostalgic_2_Guitar,0.13459362089633942,0
57,100,0.11818181818181818,669,0,81,Dl_Nostalgic_2_Guitar,6,2,Dl_Nostalgic_2_Guitar,0.14473554491996765,0
57,100,0.41818181818181815,713,0,81,Dl_Nostalgic_2_Guitar,6,7,Dl_Nostalgic_2_Guitar,0.13098359107971191,0
57,100,0.2,202,1,82,Dl_Nostalgic_2_Guitar,6,3,Dl_Nostalgic_2_Guitar,0.9998076558113098,1
59,100,1.240909090909091,255,0,82,Dl_Nostalgic_2_Guitar,6,15,Dl_Nostalgic_2_Guitar,0.3823298513889313,0
73,100,0.1409090909090909,559,1,82,Dl_Nostalgic_2_Guitar,6,2,Dl_Nostalgic_2_Guitar,0.4652016758918762,1
58,100,0.33636363636363636,876,1,0,DL_MelancholicFolk_Guitar,6,5,DL_MelancholicFolk_Guitar,0.9922323226928711,0
58,100,0.21818181818181817,325,1,1,DL_MelancholicFolk_Guitar,6,3,DL_MelancholicFolk_Guitar,0.9995682835578918,1
65,100,0.5409090909090909,669,1,1,DL_MelancholicFolk_Guitar,6,9,DL_MelancholicFolk_Guitar,0.5600214600563049,0
58,100,0.17727272727272728,39,1,2,DL_MelancholicFolk_Guitar,6,3,DL_MelancholicFolk_Guitar,0.999705970287323,1
60,100,0.4590909090909091,83,0,2,DL_MelancholicFolk_Guitar,6,7,DL_MelancholicFolk_Guitar,0.05742262303829193,0
60,100,0.1590909090909091,232,0,2,DL_MelancholicFolk_Guitar,6,3,DL_MelancholicFolk_Guitar,0.04987317696213722,0
60,100,0.740909090909091,382,0,2,DL_MelancholicFolk_Guitar,6,12,DL_MelancholicFolk_Guitar,0.044483330100774765,0
63,100,0.1409090909090909,550,0,2,DL_MelancholicFolk_Guitar,6,2,DL_MelancholicFolk_Guitar,0.05365738645195961,0
60,100,0.2409090909090909,638,0,2,DL_MelancholicFolk_Guitar,6,4,DL_MelancholicFolk_Guitar,0.06139674782752991,0
60,100,0.12272727272727273,773,0,2,DL_MelancholicFolk_Guitar,6,2,DL_MelancholicFolk_Guitar,0.06646189093589783,0
60,100,0.2818181818181818,818,0,2,DL_MelancholicFolk_Guitar,6,5,DL_MelancholicFolk_Guitar,0.06107198819518089,0
60,100,0.5409090909090909,30,1,3,DL_MelancholicFolk_Guitar,6,9,DL_MelancholicFolk_Guitar,0.9998481273651123,1
60,100,0.21818181818181817,216,0,3,DL_MelancholicFolk_Guitar,6,3,DL_MelancholicFolk_Guitar,0.33603450655937195,0
63,100,0.2,268,0,3,DL_MelancholicFolk_Guitar,6,3,DL_MelancholicFolk_Guitar,0.2925695776939392,0
56,100,1.3409090909090908,553,1,3,DL_MelancholicFolk_Guitar,6,15,DL_MelancholicFolk_Guitar,0.2935260236263275,0
56,100,0.1409090909090909,101,1,4,DL_MelancholicFolk_Guitar,6,2,DL_MelancholicFolk_Guitar,0.9998205304145813,1
60,100,1.5,355,1,4,DL_MelancholicFolk_Guitar,6,15,DL_MelancholicFolk_Guitar,0.3729100525379181,0
58,100,0.2772727272727273,721,1,4,DL_MelancholicFolk_Guitar,6,4,DL_MelancholicFolk_Guitar,0.4644757807254791,0
65,100,0.1,128,1,6,DL_MelancholicFolk_Guitar,6,2,DL_MelancholicFolk_Guitar,0.9996472597122192,1
65,100,0.2772727272727273,458,1,6,DL_MelancholicFolk_Guitar,6,4,DL_MelancholicFolk_Guitar,0.5435178279876709,0
58,100,0.6590909090909091,716,1,7,DL_MelancholicFolk_Guitar,6,11,DL_MelancholicFolk_Guitar,0.9917098879814148,0
58,100,0.3409090909090909,53,1,8,DL_MelancholicFolk_Guitar,6,5,DL_MelancholicFolk_Guitar,0.991975724697113,0
58,100,1.2818181818181817,110,1,9,DL_MelancholicFolk_Guitar,6,15,DL_MelancholicFolk_Guitar,0.9994388222694397,1
58,100,0.6409090909090909,685,1,9,DL_MelancholicFolk_Guitar,6,10,DL_MelancholicFolk_Guitar,0.5791468024253845,0
58,100,1.3409090909090908,386,1,10,DL_MelancholicFolk_Guitar,6,15,DL_MelancholicFolk_Guitar,0.9906291365623474,0
60,100,0.3,440,1,11,DL_MelancholicFolk_Guitar,6,5,DL_MelancholicFolk_Guitar,0.999834418296814,1
60,100,0.6772727272727272,646,0,11,DL_MelancholicFolk_Guitar,6,11,DL_MelancholicFolk_Guitar,0.3931306302547455,0
53,100,0.22272727272727272,871,0,11,DL_MelancholicFolk_Guitar,6,4,DL_MelancholicFolk_Guitar,0.4395027160644531,0
55,100,0.6590909090909091,61,1,12,DL_MelancholicFolk_Guitar,6,11,DL_MelancholicFolk_Guitar,0.9997755885124207,1
63,100,0.1,527,1,12,DL_MelancholicFolk_Guitar,6,2,DL_MelancholicFolk_Guitar,0.14155615866184235,0
63,100,0.23636363636363636,567,0,12,DL_MelancholicFolk_Guitar,6,4,DL_MelancholicFolk_Guitar,0.1291990876197815,0
56,100,0.2772727272727273,656,0,12,DL_MelancholicFolk_Guitar,6,4,DL_MelancholicFolk_Guitar,0.14721761643886566,0
56,100,0.11818181818181818,814,0,12,DL_MelancholicFolk_Guitar,6,2,DL_MelancholicFolk_Guitar,0.14975135028362274,0
56,100,0.3,849,0,12,DL_MelancholicFolk_Guitar,6,5,DL_MelancholicFolk_Guitar,0.1345335841178894,0
63,100,0.12272727272727273,575,1,13,DL_MelancholicFolk_Guitar,6,2,DL_MelancholicFolk_Guitar,0.9925932288169861,0
55,100,0.18181818181818182,34,1,14,DL_MelancholicFolk_Guitar,6,3,DL_MelancholicFolk_Guitar,0.9997982382774353,1
60,100,0.3,216,0,14,DL_MelancholicFolk_Guitar,6,5,DL_MelancholicFolk_Guitar,0.13183201849460602,0
60,100,0.2818181818181818,343,0,14,DL_MelancholicFolk_Guitar,6,5,DL_MelancholicFolk_Guitar,0.12178798019886017,0
53,100,0.1590909090909091,524,0,14,DL_MelancholicFolk_Guitar,6,3,DL_MelancholicFolk_Guitar,0.13526208698749542,0
62,100,0.1590909090909091,778,1,14,DL_MelancholicFolk_Guitar,6,3,DL_MelancholicFolk_Guitar,0.1414978802204132,0
62,100,0.2590909090909091,826,0,14,DL_MelancholicFolk_Guitar,6,4,DL_MelancholicFolk_Guitar,0.13046123087406158,0
62,100,0.4818181818181818,34,1,15,DL_MelancholicFolk_Guitar,6,8,DL_MelancholicFolk_Guitar,0.9997578263282776,1
58,100,0.11818181818181818,175,0,15,DL_MelancholicFolk_Guitar,6,2,DL_MelancholicFolk_Guitar,0.08409111201763153,0
53,100,0.12272727272727273,268,0,15,DL_MelancholicFolk_Guitar,6,2,DL_MelancholicFolk_Guitar,0.0796622484922409,0
58,100,0.7,417,0,15,DL_MelancholicFolk_Guitar,6,11,DL_MelancholicFolk_Guitar,0.07461179047822952,0
58,100,0.3,594,0,15,DL_MelancholicFolk_Guitar,6,5,DL_MelancholicFolk_Guitar,0.10312771797180176,0
58,100,0.13636363636363635,721,0,15,DL_MelancholicFolk_Guitar,6,2,DL_MelancholicFolk_Guitar,0.10825852304697037,0
70,100,0.2,752,0,15,DL_MelancholicFolk_Guitar,6,3,DL_MelancholicFolk_Guitar,0.09299642592668533,0
55,100,0.32272727272727275,167,1,16,DL_MelancholicFolk_Guitar,6,5,DL_MelancholicFolk_Guitar,0.9998278617858887,1
55,100,0.11818181818181818,360,0,16,DL_MelancholicFolk_Guitar,6,2,DL_MelancholicFolk_Guitar,0.22609341144561768,0
63,100,0.1409090909090909,638,1,16,DL_MelancholicFolk_Guitar,6,2,DL_MelancholicFolk_Guitar,0.21045765280723572,0
56,100,0.5181818181818182,725,0,16,DL_MelancholicFolk_Guitar,6,8,DL_MelancholicFolk_Guitar,0.20899184048175812,0
56,100,1.1772727272727272,866,0,16,DL_MelancholicFolk_Guitar,6,15,DL_MelancholicFolk_Guitar,0.2012282758951187,0
56,100,0.1,382,1,17,DL_MelancholicFolk_Guitar,6,2,DL_MelancholicFolk_Guitar,0.9998403787612915,1
56,100,0.2,536,0,17,DL_MelancholicFolk_Guitar,6,3,DL_MelancholicFolk_Guitar,0.3966233730316162,0
53,100,0.2818181818181818,773,1,17,DL_MelancholicFolk_Guitar,6,5,DL_MelancholicFolk_Guitar,0.4240090250968933,0
58,100,1.459090909090909,57,1,18,DL_MelancholicFolk_Guitar,6,15,DL_MelancholicFolk_Guitar,0.9997472167015076,1
58,100,0.3409090909090909,735,1,18,DL_MelancholicFolk_Guitar,6,5,DL_MelancholicFolk_Guitar,0.4846913814544678,0
58,100,0.3181818181818182,822,0,18,DL_MelancholicFolk_Guitar,6,5,DL_MelancholicFolk_Guitar,0.4512784779071808,0
63,100,0.3,638,1,19,DL_MelancholicFolk_Guitar,6,5,DL_MelancholicFolk_Guitar,0.9930797219276428,0
62,100,0.1,21,1,20,DL_MelancholicFolk_Guitar,6,2,DL_MelancholicFolk_Guitar,0.9998446702957153,1
53,100,0.2,422,1,20,DL_MelancholicFolk_Guitar,6,3,DL_MelancholicFolk_Guitar,0.20096471905708313,0
60,100,0.2590909090909091,484,0,20,DL_MelancholicFolk_Guitar,6,4,DL_MelancholicFolk_Guitar,0.19640564918518066,0
60,100,0.1409090909090909,607,0,20,DL_MelancholicFolk_Guitar,6,2,DL_MelancholicFolk_Guitar,0.20599476993083954,0
63,100,0.21818181818181817,712,0,20,DL_MelancholicFolk_Guitar,6,3,DL_MelancholicFolk_Guitar,0.20027022063732147,0
55,100,0.5590909090909091,185,1,21,DL_MelancholicFolk_Guitar,6,9,DL_MelancholicFolk_Guitar,0.9998338222503662,1
55,100,0.5,347,0,21,DL_MelancholicFolk_Guitar,6,8,DL_MelancholicFolk_Guitar,0.31907325983047485,0
65,100,0.5590909090909091,484,0,21,DL_MelancholicFolk_Guitar,6,9,DL_MelancholicFolk_Guitar,0.30539798736572266,0
56,100,0.17727272727272728,853,1,21,DL_MelancholicFolk_Guitar,6,3,DL_MelancholicFolk_Guitar,0.32443884015083313,0
56,100,0.36363636363636365,223,1,22,DL_MelancholicFolk_Guitar,6,6,DL_MelancholicFolk_Guitar,0.9998471736907959,1
55,100,0.7818181818181819,430,0,22,DL_MelancholicFolk_Guitar,6,13,DL_MelancholicFolk_Guitar,0.30110591650009155,0
55,100,0.2818181818181818,673,1,22,DL_MelancholicFolk_Guitar,6,5,DL_MelancholicFolk_Guitar,0.3152507245540619,0
58,100,0.2590909090909091,814,0,22,DL_MelancholicFolk_Guitar,6,4,DL_MelancholicFolk_Guitar,0.308234840631485,0
58,100,0.2590909090909091,13,1,23,DL_MelancholicFolk_Guitar,6,4,DL_MelancholicFolk_Guitar,0.9997867941856384,1
56,100,0.6818181818181818,277,1,23,DL_MelancholicFolk_Guitar,6,11,DL_MelancholicFolk_Guitar,0.1290169209241867,0
56,100,0.1409090909090909,484,0,23,DL_MelancholicFolk_Guitar,6,2,DL_MelancholicFolk_Guitar,0.13192100822925568,0
56,100,0.2,519,0,23,DL_MelancholicFolk_Guitar,6,3,DL_MelancholicFolk_Guitar,0.13728037476539612,0
56,100,0.2818181818181818,576,0,23,DL_MelancholicFolk_Guitar,6,5,DL_MelancholicFolk_Guitar,0.14397713541984558,0
53,100,0.1590909090909091,691,0,23,DL_MelancholicFolk_Guitar,6,3,DL_MelancholicFolk_Guitar,0.13707120716571808,0
58,100,0.1590909090909091,83,1,24,DL_MelancholicFolk_Guitar,6,3,DL_MelancholicFolk_Guitar,0.9997990727424622,1
58,100,0.6181818181818182,250,0,24,DL_MelancholicFolk_Guitar,6,10,DL_MelancholicFolk_Guitar,0.405435174703598,0
58,100,0.11818181818181818,550,1,24,DL_MelancholicFolk_Guitar,6,2,DL_MelancholicFolk_Guitar,0.45324042439460754,0
58,100,0.1409090909090909,119,1,25,DL_MelancholicFolk_Guitar,6,2,DL_MelancholicFolk_Guitar,0.9997938275337219,1
58,100,0.11818181818181818,285,0,25,DL_MelancholicFolk_Guitar,6,2,DL_MelancholicFolk_Guitar,0.13346658647060394,0
58,100,0.1590909090909091,343,0,25,DL_MelancholicFolk_Guitar,6,3,DL_MelancholicFolk_Guitar,0.13195905089378357,0
58,100,0.2772727272727273,391,0,25,DL_MelancholicFolk_Guitar,6,4,DL_MelancholicFolk_Guitar,0.14380787312984467,0
58,100,0.4409090909090909,505,0,25,DL_MelancholicFolk_Guitar,6,7,DL_MelancholicFolk_Guitar,0.1564401388168335,0
55,100,1.0818181818181818,717,0,25,DL_MelancholicFolk_Guitar,6,15,DL_MelancholicFolk_Guitar,0.14000961184501648,0
60,100,0.6590909090909091,83,1,26,DL_MelancholicFolk_Guitar,6,11,DL_MelancholicFolk_Guitar,0.9998186230659485,1
63,100,0.11818181818181818,326,1,26,DL_MelancholicFolk_Guitar,6,2,DL_MelancholicFolk_Guitar,0.21740221977233887,0
55,100,0.6409090909090909,509,0,26,DL_MelancholicFolk_Guitar,6,10,DL_MelancholicFolk_Guitar,0.19499289989471436,0
65,100,0.32272727272727275,717,0,26,DL_MelancholicFolk_Guitar,6,5,DL_MelancholicFolk_Guitar,0.2243773639202118,0
55,100,0.3,810,0,26,DL_MelancholicFolk_Guitar,6,5,DL_MelancholicFolk_Guitar,0.21056559681892395,0
56,100,0.8363636363636363,106,1,27,DL_MelancholicFolk_Guitar,6,13,DL_MelancholicFolk_Guitar,0.9997952580451965,1
56,100,0.759090909090909,374,1,27,DL_MelancholicFolk_Guitar,6,12,DL_MelancholicFolk_Guitar,0.4188309609889984,0
58,100,0.1,650,1,27,DL_MelancholicFolk_Guitar,6,2,DL_MelancholicFolk_Guitar,0.44966334104537964,0
65,100,0.2818181818181818,69,1,28,DL_MelancholicFolk_Guitar,6,5,DL_MelancholicFolk_Guitar,0.9998237490653992,1
58,100,0.3409090909090909,598,1,28,DL_MelancholicFolk_Guitar,6,5,DL_MelancholicFolk_Guitar,0.3971218168735504,0
65,100,0.2409090909090909,673,0,28,DL_MelancholicFolk_Guitar,6,4,DL_MelancholicFolk_Guitar,0.4429453909397125,0
63,100,0.2,30,1,29,DL_MelancholicFolk_Guitar,6,3,DL_MelancholicFolk_Guitar,0.9998176693916321,1
63,100,0.8590909090909091,216,0,29,DL_MelancholicFolk_Guitar,6,14,DL_MelancholicFolk_Guitar,0.38395172357559204,0
63,100,0.12272727272727273,584,1,29,DL_MelancholicFolk_Guitar,6,2,DL_MelancholicFolk_Guitar,0.4586437940597534,0
58,100,0.41818181818181815,193,1,30,DL_MelancholicFolk_Guitar,6,7,DL_MelancholicFolk_Guitar,0.9998236298561096,1
53,100,0.6409090909090909,285,0,30,DL_MelancholicFolk_Guitar,6,10,DL_MelancholicFolk_Guitar,0.33433499932289124,0
53,100,0.16363636363636364,818,1,30,DL_MelancholicFolk_Guitar,6,3,DL_MelancholicFolk_Guitar,0.3161189556121826,0
55,100,0.22272727272727272,862,0,30,DL_MelancholicFolk_Guitar,6,4,DL_MelancholicFolk_Guitar,0.313489705324173,0
55,100,0.1,34,1,31,DL_MelancholicFolk_Guitar,6,2,DL_MelancholicFolk_Guitar,0.9998492002487183,1
55,100,0.1590909090909091,106,0,31,DL_MelancholicFolk_Guitar,6,3,DL_MelancholicFolk_Guitar,0.324270635843277,0
55,100,0.2409090909090909,673,1,31,DL_MelancholicFolk_Guitar,6,4,DL_MelancholicFolk_Guitar,0.2898564338684082,0
55,100,0.16363636363636364,729,0,31,DL_MelancholicFolk_Guitar,6,3,DL_MelancholicFolk_Guitar,0.312044620513916,0
58,100,0.3409090909090909,21,1,32,DL_MelancholicFolk_Guitar,6,5,DL_MelancholicFolk_Guitar,0.9998216032981873,1
56,100,0.1590909090909091,251,0,32,DL_MelancholicFolk_Guitar,6,3,DL_MelancholicFolk_Guitar,0.23984132707118988,0
56,100,0.37727272727272726,545,1,32,DL_MelancholicFolk_Guitar,6,6,DL_MelancholicFolk_Guitar,0.19606460630893707,0
56,100,0.2409090909090909,761,0,32,DL_MelancholicFolk_Guitar,6,4,DL_MelancholicFolk_Guitar,0.22251081466674805,0
58,100,0.6818181818181818,826,0,32,DL_MelancholicFolk_Guitar,6,11,DL_MelancholicFolk_Guitar,0.1933557093143463,0
56,100,0.18181818181818182,69,1,34,DL_MelancholicFolk_Guitar,6,3,DL_MelancholicFolk_Guitar,0.9998019337654114,1
53,100,0.2590909090909091,153,0,34,DL_MelancholicFolk_Guitar,6,4,DL_MelancholicFolk_Guitar,0.13045111298561096,0
53,100,0.5181818181818182,215,0,34,DL_MelancholicFolk_Guitar,6,8,DL_MelancholicFolk_Guitar,0.11617159843444824,0
53,100,0.2772727272727273,361,0,34,DL_MelancholicFolk_Guitar,6,4,DL_MelancholicFolk_Guitar,0.14467088878154755,0
58,100,0.5818181818181818,440,0,34,DL_MelancholicFolk_Guitar,6,9,DL_MelancholicFolk_Guitar,0.13516446948051453,0
56,100,0.5181818181818182,810,1,34,DL_MelancholicFolk_Guitar,6,8,DL_MelancholicFolk_Guitar,0.14425842463970184,0
56,100,0.11818181818181818,220,1,35,DL_MelancholicFolk_Guitar,6,2,DL_MelancholicFolk_Guitar,0.999840497970581,1
56,100,0.2590909090909091,254,0,35,DL_MelancholicFolk_Guitar,6,4,DL_MelancholicFolk_Guitar,0.20857201516628265,0
58,100,0.5818181818181818,418,0,35,DL_MelancholicFolk_Guitar,6,9,DL_MelancholicFolk_Guitar,0.18521565198898315,0
65,100,0.3409090909090909,581,0,35,DL_MelancholicFolk_Guitar,6,5,DL_MelancholicFolk_Guitar,0.23029129207134247,0
58,100,0.7,761,0,35,DL_MelancholicFolk_Guitar,6,11,DL_MelancholicFolk_Guitar,0.2030514031648636,0
53,100,0.3,40,1,36,DL_MelancholicFolk_Guitar,6,5,DL_MelancholicFolk_Guitar,0.9998279809951782,1
58,100,0.1409090909090909,110,0,36,DL_MelancholicFolk_Guitar,6,2,DL_MelancholicFolk_Guitar,0.20582981407642365,0
53,100,0.21818181818181817,176,0,36,DL_MelancholicFolk_Guitar,6,3,DL_MelancholicFolk_Guitar,0.20922014117240906,0
55,100,0.5181818181818182,351,0,36,DL_MelancholicFolk_Guitar,6,8,DL_MelancholicFolk_Guitar,0.20147205889225006,0
55,100,0.1590909090909091,783,1,36,DL_MelancholicFolk_Guitar,6,3,DL_MelancholicFolk_Guitar,0.21828797459602356,0
60,100,0.9772727272727273,8,1,37,DL_MelancholicFolk_Guitar,6,15,DL_MelancholicFolk_Guitar,0.9997335076332092,1
60,100,0.11818181818181818,228,0,37,DL_MelancholicFolk_Guitar,6,2,DL_MelancholicFolk_Guitar,0.09131652116775513,0
55,100,0.12272727272727273,321,0,37,DL_MelancholicFolk_Guitar,6,2,DL_MelancholicFolk_Guitar,0.07208690792322159,0
53,100,1.3818181818181818,440,0,37,DL_MelancholicFolk_Guitar,6,15,DL_MelancholicFolk_Guitar,0.07068415731191635,0
53,100,0.1590909090909091,765,1,37,DL_MelancholicFolk_Guitar,6,3,DL_MelancholicFolk_Guitar,0.1080855280160904,0
53,100,0.18181818181818182,804,0,37,DL_MelancholicFolk_Guitar,6,3,DL_MelancholicFolk_Guitar,0.09859763830900192,0
65,100,0.11818181818181818,875,0,37,DL_MelancholicFolk_Guitar,6,2,DL_MelancholicFolk_Guitar,0.09221581369638443,0
65,100,0.12272727272727273,101,1,38,DL_MelancholicFolk_Guitar,6,2,DL_MelancholicFolk_Guitar,0.9997767806053162,1
65,100,0.2409090909090909,201,0,38,DL_MelancholicFolk_Guitar,6,4,DL_MelancholicFolk_Guitar,0.07960064709186554,0
65,100,0.11818181818181818,273,0,38,DL_MelancholicFolk_Guitar,6,2,DL_MelancholicFolk_Guitar,0.0738813728094101,0
65,100,0.11818181818181818,303,0,38,DL_MelancholicFolk_Guitar,6,2,DL_MelancholicFolk_Guitar,0.07892907410860062,0
58,100,0.2,361,0,38,DL_MelancholicFolk_Guitar,6,3,DL_MelancholicFolk_Guitar,0.08526687324047089,0
58,100,0.17727272727272728,536,0,38,DL_MelancholicFolk_Guitar,6,3,DL_MelancholicFolk_Guitar,0.0964294821023941,0
58,100,0.17727272727272728,633,0,38,DL_MelancholicFolk_Guitar,6,3,DL_MelancholicFolk_Guitar,0.08996272832155228,0
53,100,0.21818181818181817,348,1,39,DL_MelancholicFolk_Guitar,6,3,DL_MelancholicFolk_Guitar,0.9998373985290527,1
58,100,0.2,509,0,39,DL_MelancholicFolk_Guitar,6,3,DL_MelancholicFolk_Guitar,0.20690475404262543,0
53,100,0.5409090909090909,554,0,39,DL_MelancholicFolk_Guitar,6,9,DL_MelancholicFolk_Guitar,0.20427069067955017,0
58,100,0.5,721,0,39,DL_MelancholicFolk_Guitar,6,8,DL_MelancholicFolk_Guitar,0.2111179530620575,0
58,100,0.4,853,0,39,DL_MelancholicFolk_Guitar,6,6,DL_MelancholicFolk_Guitar,0.21332691609859467,0
56,100,0.4,418,1,41,DL_MelancholicFolk_Guitar,6,6,DL_MelancholicFolk_Guitar,0.9998241066932678,1
56,100,0.3,558,0,41,DL_MelancholicFolk_Guitar,6,5,DL_MelancholicFolk_Guitar,0.41102156043052673,0
58,100,0.2,655,0,41,DL_MelancholicFolk_Guitar,6,3,DL_MelancholicFolk_Guitar,0.42619192600250244,0
60,100,0.18181818181818182,21,1,42,DL_MelancholicFolk_Guitar,6,3,DL_MelancholicFolk_Guitar,0.9998127818107605,1
65,100,0.5227272727272727,211,0,42,DL_MelancholicFolk_Guitar,6,8,DL_MelancholicFolk_Guitar,0.11539018899202347,0
65,100,0.2590909090909091,448,1,42,DL_MelancholicFolk_Guitar,6,4,DL_MelancholicFolk_Guitar,0.12640896439552307,0
65,100,0.1590909090909091,563,0,42,DL_MelancholicFolk_Guitar,6,3,DL_MelancholicFolk_Guitar,0.1327987164258957,0
56,100,0.2409090909090909,641,0,42,DL_MelancholicFolk_Guitar,6,4,DL_MelancholicFolk_Guitar,0.1436198353767395,0
63,100,0.1590909090909091,866,0,42,DL_MelancholicFolk_Guitar,6,3,DL_MelancholicFolk_Guitar,0.13085724413394928,0
58,100,0.4590909090909091,198,1,43,DL_MelancholicFolk_Guitar,6,7,DL_MelancholicFolk_Guitar,0.9998170733451843,1
65,100,0.42272727272727273,386,0,43,DL_MelancholicFolk_Guitar,6,7,DL_MelancholicFolk_Guitar,0.23027032613754272,0
58,100,0.1409090909090909,581,0,43,DL_MelancholicFolk_Guitar,6,2,DL_MelancholicFolk_Guitar,0.19647954404354095,0
58,100,0.4590909090909091,646,0,43,DL_MelancholicFolk_Guitar,6,7,DL_MelancholicFolk_Guitar,0.20980164408683777,0
63,100,0.1409090909090909,866,0,43,DL_MelancholicFolk_Guitar,6,2,DL_MelancholicFolk_Guitar,0.2276882529258728,0
63,100,0.8181818181818182,150,1,44,DL_MelancholicFolk_Guitar,6,13,DL_MelancholicFolk_Guitar,0.9998241066932678,1
63,100,0.1590909090909091,461,1,44,DL_MelancholicFolk_Guitar,6,3,DL_MelancholicFolk_Guitar,0.37087664008140564,0
58,100,0.11818181818181818,528,0,44,DL_MelancholicFolk_Guitar,6,2,DL_MelancholicFolk_Guitar,0.30079397559165955,0
58,100,0.8363636363636363,875,1,44,DL_MelancholicFolk_Guitar,6,13,DL_MelancholicFolk_Guitar,0.3073939383029938,0
58,100,0.11818181818181818,228,1,45,DL_MelancholicFolk_Guitar,6,2,DL_MelancholicFolk_Guitar,0.9998440742492676,1
55,100,0.2,399,0,45,DL_MelancholicFolk_Guitar,6,3,DL_MelancholicFolk_Guitar,0.3289601802825928,0
55,100,0.2772727272727273,721,1,45,DL_MelancholicFolk_Guitar,6,4,DL_MelancholicFolk_Guitar,0.2961749732494354,0
65,100,0.2,791,0,45,DL_MelancholicFolk_Guitar,6,3,DL_MelancholicFolk_Guitar,0.3095589876174927,0
55,100,0.2590909090909091,131,1,46,DL_MelancholicFolk_Guitar,6,4,DL_MelancholicFolk_Guitar,0.9997610449790955,1
58,100,0.16363636363636364,289,0,46,DL_MelancholicFolk_Guitar,6,3,DL_MelancholicFolk_Guitar,0.08194060623645782,0
58,100,0.3409090909090909,330,0,46,DL_MelancholicFolk_Guitar,6,5,DL_MelancholicFolk_Guitar,0.07729722559452057,0
65,100,0.2772727272727273,405,0,46,DL_MelancholicFolk_Guitar,6,4,DL_MelancholicFolk_Guitar,0.09260152280330658,0
58,100,0.3,480,0,46,DL_MelancholicFolk_Guitar,6,5,DL_MelancholicFolk_Guitar,0.0919959768652916,0
70,100,0.5,581,0,46,DL_MelancholicFolk_Guitar,6,8,DL_MelancholicFolk_Guitar,0.09813522547483444,0
70,100,0.12272727272727273,694,0,46,DL_MelancholicFolk_Guitar,6,2,DL_MelancholicFolk_Guitar,0.0987788513302803,0
70,100,0.12272727272727273,179,1,47,DL_MelancholicFolk_Guitar,6,2,DL_MelancholicFolk_Guitar,0.9998263716697693,1
65,100,0.17727272727272728,303,0,47,DL_MelancholicFolk_Guitar,6,3,DL_MelancholicFolk_Guitar,0.22383545339107513,0
65,100,0.2,399,0,47,DL_MelancholicFolk_Guitar,6,3,DL_MelancholicFolk_Guitar,0.2066715508699417,0
58,100,0.32272727272727275,541,0,47,DL_MelancholicFolk_Guitar,6,5,DL_MelancholicFolk_Guitar,0.19849255681037903,0
58,100,0.21818181818181817,801,1,47,DL_MelancholicFolk_Guitar,6,3,DL_MelancholicFolk_Guitar,0.21543309092521667,0
58,100,0.11818181818181818,0,1,48,DL_MelancholicFolk_Guitar,6,2,DL_MelancholicFolk_Guitar,0.9998090863227844,1
63,100,0.3409090909090909,660,1,48,DL_MelancholicFolk_Guitar,6,5,DL_MelancholicFolk_Guitar,0.42683443427085876,0
65,100,0.6409090909090909,804,0,48,DL_MelancholicFolk_Guitar,6,10,DL_MelancholicFolk_Guitar,0.43090948462486267,0
55,100,0.11818181818181818,66,1,49,DL_MelancholicFolk_Guitar,6,2,DL_MelancholicFolk_Guitar,0.9998101592063904,1
56,100,0.5181818181818182,241,0,49,DL_MelancholicFolk_Guitar,6,8,DL_MelancholicFolk_Guitar,0.12573599815368652,0
56,100,0.4,509,1,49,DL_MelancholicFolk_Guitar,6,6,DL_MelancholicFolk_Guitar,0.12970788776874542,0
56,100,0.2409090909090909,646,0,49,DL_MelancholicFolk_Guitar,6,4,DL_MelancholicFolk_Guitar,0.14038118720054626,0
65,100,0.18181818181818182,751,0,49,DL_MelancholicFolk_Guitar,6,3,DL_MelancholicFolk_Guitar,0.15193398296833038,0
58,100,1.1636363636363636,818,0,49,DL_MelancholicFolk_Guitar,6,15,DL_MelancholicFolk_Guitar,0.12079981714487076,0
58,100,0.38181818181818183,201,1,50,DL_MelancholicFolk_Guitar,6,6,DL_MelancholicFolk_Guitar,0.9997976422309875,1
58,100,0.740909090909091,295,0,50,DL_MelancholicFolk_Guitar,6,12,DL_MelancholicFolk_Guitar,0.3977522552013397,0
65,100,0.4409090909090909,515,0,50,DL_MelancholicFolk_Guitar,6,7,DL_MelancholicFolk_Guitar,0.46192246675491333,0
53,100,0.33636363636363636,105,1,51,DL_MelancholicFolk_Guitar,6,5,DL_MelancholicFolk_Guitar,0.9996250867843628,1
55,100,0.1590909090909091,185,0,51,DL_MelancholicFolk_Guitar,6,3,DL_MelancholicFolk_Guitar,0.5510324835777283,0
58,100,0.1409090909090909,405,1,52,DL_MelancholicFolk_Guitar,6,2,DL_MelancholicFolk_Guitar,0.999823272228241,1
65,100,0.17727272727272728,721,1,52,DL_MelancholicFolk_Guitar,6,3,DL_MelancholicFolk_Guitar,0.4325163662433624,0
58,100,1.1409090909090909,761,0,52,DL_MelancholicFolk_Guitar,6,15,DL_MelancholicFolk_Guitar,0.3978855311870575,0
70,100,0.17727272727272728,435,1,53,DL_MelancholicFolk_Guitar,6,3,DL_MelancholicFolk_Guitar,0.99981290102005,1
70,100,0.12272727272727273,774,1,53,DL_MelancholicFolk_Guitar,6,2,DL_MelancholicFolk_Guitar,0.418774276971817,0
65,100,0.2,818,0,53,DL_MelancholicFolk_Guitar,6,3,DL_MelancholicFolk_Guitar,0.4428199231624603,0
58,100,0.21818181818181817,141,1,54,DL_MelancholicFolk_Guitar,6,3,DL_MelancholicFolk_Guitar,0.9995527863502502,1
58,100,0.4772727272727273,273,0,54,DL_MelancholicFolk_Guitar,6,8,DL_MelancholicFolk_Guitar,0.5525692105293274,0
53,100,0.18181818181818182,48,1,55,DL_MelancholicFolk_Guitar,6,3,DL_MelancholicFolk_Guitar,0.9998024106025696,1
58,100,1.3,105,0,55,DL_MelancholicFolk_Guitar,6,15,DL_MelancholicFolk_Guitar,0.10598379373550415,0
58,100,0.6818181818181818,396,1,55,DL_MelancholicFolk_Guitar,6,11,DL_MelancholicFolk_Guitar,0.13674010336399078,0
58,100,0.18181818181818182,563,0,55,DL_MelancholicFolk_Guitar,6,3,DL_MelancholicFolk_Guitar,0.15340542793273926,0
55,100,0.4590909090909091,673,0,55,DL_MelancholicFolk_Guitar,6,7,DL_MelancholicFolk_Guitar,0.16260606050491333,0
70,100,0.18181818181818182,813,0,55,DL_MelancholicFolk_Guitar,6,3,DL_MelancholicFolk_Guitar,0.1527763158082962,0
53,100,0.2590909090909091,303,1,56,DL_MelancholicFolk_Guitar,6,4,DL_MelancholicFolk_Guitar,0.9998016953468323,1
60,100,0.11818181818181818,383,0,56,DL_MelancholicFolk_Guitar,6,2,DL_MelancholicFolk_Guitar,0.12831346690654755,0
55,100,0.2,458,0,56,DL_MelancholicFolk_Guitar,6,3,DL_MelancholicFolk_Guitar,0.11604416370391846,0
55,100,0.22272727272727272,694,1,56,DL_MelancholicFolk_Guitar,6,4,DL_MelancholicFolk_Guitar,0.1349981278181076,0
65,100,0.1590909090909091,788,0,56,DL_MelancholicFolk_Guitar,6,3,DL_MelancholicFolk_Guitar,0.14334534108638763,0
53,100,0.2636363636363636,861,0,56,DL_MelancholicFolk_Guitar,6,4,DL_MelancholicFolk_Guitar,0.13463056087493896,0
65,100,0.37727272727272726,40,1,57,DL_MelancholicFolk_Guitar,6,6,DL_MelancholicFolk_Guitar,0.9997518658638,1
65,100,0.3,128,0,57,DL_MelancholicFolk_Guitar,6,5,DL_MelancholicFolk_Guitar,0.08332396298646927,0
53,100,0.5,215,0,57,DL_MelancholicFolk_Guitar,6,8,DL_MelancholicFolk_Guitar,0.07097849249839783,0
53,100,0.8772727272727273,348,0,57,DL_MelancholicFolk_Guitar,6,14,DL_MelancholicFolk_Guitar,0.07858578860759735,0
65,100,0.7227272727272728,628,1,57,DL_MelancholicFolk_Guitar,6,12,DL_MelancholicFolk_Guitar,0.0955720916390419,0
53,100,0.21818181818181817,788,0,57,DL_MelancholicFolk_Guitar,6,3,DL_MelancholicFolk_Guitar,0.10797571390867233,0
53,100,0.21818181818181817,858,0,57,DL_MelancholicFolk_Guitar,6,3,DL_MelancholicFolk_Guitar,0.09325026720762253,0
53,100,0.1590909090909091,40,1,58,DL_MelancholicFolk_Guitar,6,3,DL_MelancholicFolk_Guitar,0.9998182654380798,1
58,100,1.0636363636363637,334,1,58,DL_MelancholicFolk_Guitar,6,15,DL_MelancholicFolk_Guitar,0.3753100037574768,0
65,100,0.1590909090909091,778,1,58,DL_MelancholicFolk_Guitar,6,3,DL_MelancholicFolk_Guitar,0.4656965136528015,0
65,100,0.7,738,1,59,DL_MelancholicFolk_Guitar,6,11,DL_MelancholicFolk_Guitar,0.9925244450569153,0
65,100,0.2,136,1,60,DL_MelancholicFolk_Guitar,6,3,DL_MelancholicFolk_Guitar,0.9998377561569214,1
58,100,0.13636363636363635,238,0,60,DL_MelancholicFolk_Guitar,6,2,DL_MelancholicFolk_Guitar,0.2084987759590149,0
63,100,0.36363636363636365,311,0,60,DL_MelancholicFolk_Guitar,6,6,DL_MelancholicFolk_Guitar,0.20619584619998932,0
63,100,0.5,458,0,60,DL_MelancholicFolk_Guitar,6,8,DL_MelancholicFolk_Guitar,0.21730411052703857,0
58,100,1.2636363636363637,861,1,60,DL_MelancholicFolk_Guitar,6,15,DL_MelancholicFolk_Guitar,0.21027609705924988,0
65,100,0.21818181818181817,263,1,61,DL_MelancholicFolk_Guitar,6,3,DL_MelancholicFolk_Guitar,0.9998376369476318,1
58,100,0.5,334,0,61,DL_MelancholicFolk_Guitar,6,8,DL_MelancholicFolk_Guitar,0.19604744017124176,0
55,100,0.2409090909090909,691,1,61,DL_MelancholicFolk_Guitar,6,4,DL_MelancholicFolk_Guitar,0.21597741544246674,0
55,100,0.11818181818181818,778,0,61,DL_MelancholicFolk_Guitar,6,2,DL_MelancholicFolk_Guitar,0.2175675630569458,0
58,100,0.5227272727272727,871,0,61,DL_MelancholicFolk_Guitar,6,8,DL_MelancholicFolk_Guitar,0.20413967967033386,0
65,100,0.12272727272727273,356,1,62,DL_MelancholicFolk_Guitar,6,2,DL_MelancholicFolk_Guitar,0.9998341798782349,1
65,100,0.4409090909090909,399,0,62,DL_MelancholicFolk_Guitar,6,7,DL_MelancholicFolk_Guitar,0.4000795781612396,0
58,100,0.6227272727272727,686,1,62,DL_MelancholicFolk_Guitar,6,10,DL_MelancholicFolk_Guitar,0.41670775413513184,0
58,100,0.2409090909090909,461,1,63,DL_MelancholicFolk_Guitar,6,4,DL_MelancholicFolk_Guitar,0.9998364448547363,1
63,100,0.2409090909090909,531,0,63,DL_MelancholicFolk_Guitar,6,4,DL_MelancholicFolk_Guitar,0.33493292331695557,0
63,100,0.1590909090909091,638,0,63,DL_MelancholicFolk_Guitar,6,3,DL_MelancholicFolk_Guitar,0.3033585250377655,0
63,100,0.5181818181818182,681,0,63,DL_MelancholicFolk_Guitar,6,8,DL_MelancholicFolk_Guitar,0.3106800615787506,0
58,100,0.3,140,1,64,DL_MelancholicFolk_Guitar,6,5,DL_MelancholicFolk_Guitar,0.9995688796043396,1
56,100,0.2772727272727273,559,1,64,DL_MelancholicFolk_Guitar,6,4,DL_MelancholicFolk_Guitar,0.5615438222885132,0
65,100,0.1,56,1,65,DL_MelancholicFolk_Guitar,6,2,DL_MelancholicFolk_Guitar,0.9998113512992859,1
58,100,0.7227272727272728,189,0,65,DL_MelancholicFolk_Guitar,6,12,DL_MelancholicFolk_Guitar,0.10748080909252167,0
65,100,0.21818181818181817,352,0,65,DL_MelancholicFolk_Guitar,6,3,DL_MelancholicFolk_Guitar,0.1375967413187027,0
56,100,0.2,580,0,65,DL_MelancholicFolk_Guitar,6,3,DL_MelancholicFolk_Guitar,0.1344062089920044,0
56,100,0.21818181818181817,633,0,65,DL_MelancholicFolk_Guitar,6,3,DL_MelancholicFolk_Guitar,0.14753176271915436,0
56,100,0.1409090909090909,686,0,65,DL_MelancholicFolk_Guitar,6,2,DL_MelancholicFolk_Guitar,0.13499349355697632,0
56,100,0.37727272727272726,30,1,66,DL_MelancholicFolk_Guitar,6,6,DL_MelancholicFolk_Guitar,0.9997991919517517,1
58,100,0.1590909090909091,276,1,66,DL_MelancholicFolk_Guitar,6,3,DL_MelancholicFolk_Guitar,0.12659724056720734,0
65,100,0.36363636363636365,312,0,66,DL_MelancholicFolk_Guitar,6,6,DL_MelancholicFolk_Guitar,0.13350723683834076,0
53,100,0.11818181818181818,483,0,66,DL_MelancholicFolk_Guitar,6,2,DL_MelancholicFolk_Guitar,0.14843976497650146,0
58,100,1.0,509,0,66,DL_MelancholicFolk_Guitar,6,15,DL_MelancholicFolk_Guitar,0.13014188408851624,0
55,100,1.240909090909091,747,1,66,DL_MelancholicFolk_Guitar,6,15,DL_MelancholicFolk_Guitar,0.14099723100662231,0
55,100,0.12272727272727273,157,1,67,DL_MelancholicFolk_Guitar,6,2,DL_MelancholicFolk_Guitar,0.9998321533203125,1
55,100,0.21818181818181817,216,0,67,DL_MelancholicFolk_Guitar,6,3,DL_MelancholicFolk_Guitar,0.2055472731590271,0
55,100,0.3,326,0,67,DL_MelancholicFolk_Guitar,6,5,DL_MelancholicFolk_Guitar,0.1966969072818756,0
55,100,0.12272727272727273,409,0,67,DL_MelancholicFolk_Guitar,6,2,DL_MelancholicFolk_Guitar,0.22108758985996246,0
58,100,0.2,650,1,67,DL_MelancholicFolk_Guitar,6,3,DL_MelancholicFolk_Guitar,0.2059546709060669,0
58,100,0.3,62,1,68,DL_MelancholicFolk_Guitar,6,5,DL_MelancholicFolk_Guitar,0.9997076392173767,1
56,100,0.22272727272727272,145,0,68,DL_MelancholicFolk_Guitar,6,4,DL_MelancholicFolk_Guitar,0.061529491096735,0
56,100,0.12272727272727273,255,0,68,DL_MelancholicFolk_Guitar,6,2,DL_MelancholicFolk_Guitar,0.05000190809369087,0
56,100,0.4,320,0,68,DL_MelancholicFolk_Guitar,6,6,DL_MelancholicFolk_Guitar,0.04813852161169052,0
56,100,0.2,506,0,68,DL_MelancholicFolk_Guitar,6,3,DL_MelancholicFolk_Guitar,0.05630001798272133,0
63,100,0.1590909090909091,590,0,68,DL_MelancholicFolk_Guitar,6,3,DL_MelancholicFolk_Guitar,0.06273575127124786,0
58,100,0.22272727272727272,650,0,68,DL_MelancholicFolk_Guitar,6,4,DL_MelancholicFolk_Guitar,0.06655023247003555,0
58,100,0.7,703,0,68,DL_MelancholicFolk_Guitar,6,11,DL_MelancholicFolk_Guitar,0.062106162309646606,0
58,100,0.3181818181818182,184,1,69,DL_MelancholicFolk_Guitar,6,5,DL_MelancholicFolk_Guitar,0.9998295307159424,1
58,100,0.5772727272727273,273,0,69,DL_MelancholicFolk_Guitar,6,9,DL_MelancholicFolk_Guitar,0.32120010256767273,0
63,100,0.21818181818181817,572,1,69,DL_MelancholicFolk_Guitar,6,3,DL_MelancholicFolk_Guitar,0.3264545500278473,0
58,100,0.18181818181818182,849,1,69,DL_MelancholicFolk_Guitar,6,3,DL_MelancholicFolk_Guitar,0.3145254850387573,0
63,100,0.1,83,1,70,DL_MelancholicFolk_Guitar,6,2,DL_MelancholicFolk_Guitar,0.9998227953910828,1
58,100,0.11818181818181818,140,0,70,DL_MelancholicFolk_Guitar,6,2,DL_MelancholicFolk_Guitar,0.40548115968704224,0
58,100,0.23636363636363636,237,0,70,DL_MelancholicFolk_Guitar,6,4,DL_MelancholicFolk_Guitar,0.43380504846572876,0
63,100,0.35909090909090907,206,1,71,DL_MelancholicFolk_Guitar,6,6,DL_MelancholicFolk_Guitar,0.992878258228302,0
56,100,0.2636363636363636,422,1,76,DL_MelancholicFolk_Guitar,6,4,DL_MelancholicFolk_Guitar,0.9998362064361572,1
53,100,0.16363636363636364,509,0,76,DL_MelancholicFolk_Guitar,6,3,DL_MelancholicFolk_Guitar,0.22956609725952148,0
58,100,0.3409090909090909,553,0,76,DL_MelancholicFolk_Guitar,6,5,DL_MelancholicFolk_Guitar,0.1896391361951828,0
58,100,0.37727272727272726,669,0,76,DL_MelancholicFolk_Guitar,6,6,DL_MelancholicFolk_Guitar,0.2219994068145752,0
58,100,1.018181818181818,756,0,76,DL_MelancholicFolk_Guitar,6,15,DL_MelancholicFolk_Guitar,0.20978258550167084,0
58,100,0.2409090909090909,110,1,77,DL_MelancholicFolk_Guitar,6,4,DL_MelancholicFolk_Guitar,0.9998278617858887,1
58,100,0.18181818181818182,176,0,77,DL_MelancholicFolk_Guitar,6,3,DL_MelancholicFolk_Guitar,0.3350316882133484,0
55,100,1.0636363636363637,289,0,77,DL_MelancholicFolk_Guitar,6,15,DL_MelancholicFolk_Guitar,0.2895927131175995,0
58,100,0.4772727272727273,656,1,77,DL_MelancholicFolk_Guitar,6,8,DL_MelancholicFolk_Guitar,0.3387039601802826,0
70,100,0.5818181818181818,22,1,78,DL_MelancholicFolk_Guitar,6,9,DL_MelancholicFolk_Guitar,0.9996473789215088,1
55,100,0.16363636363636364,246,0,78,DL_MelancholicFolk_Guitar,6,3,DL_MelancholicFolk_Guitar,0.04886951297521591,0
65,100,0.35909090909090907,282,0,78,DL_MelancholicFolk_Guitar,6,6,DL_MelancholicFolk_Guitar,0.03383480757474899,0
55,100,0.3409090909090909,360,0,78,DL_MelancholicFolk_Guitar,6,5,DL_MelancholicFolk_Guitar,0.03115111030638218,0
65,100,0.1409090909090909,440,0,78,DL_MelancholicFolk_Guitar,6,2,DL_MelancholicFolk_Guitar,0.034102655947208405,0
56,100,0.5227272727272727,519,0,78,DL_MelancholicFolk_Guitar,6,8,DL_MelancholicFolk_Guitar,0.033645134419202805,0
63,100,0.1590909090909091,660,0,78,DL_MelancholicFolk_Guitar,6,3,DL_MelancholicFolk_Guitar,0.04445119574666023,0
65,100,0.2818181818181818,703,0,78,DL_MelancholicFolk_Guitar,6,5,DL_MelancholicFolk_Guitar,0.05036706477403641,0
65,100,0.5363636363636364,832,0,78,DL_MelancholicFolk_Guitar,6,9,DL_MelancholicFolk_Guitar,0.04740351438522339,0
65,100,0.4772727272727273,96,1,79,DL_MelancholicFolk_Guitar,6,8,DL_MelancholicFolk_Guitar,0.9998313188552856,1
55,100,0.32272727272727275,365,1,79,DL_MelancholicFolk_Guitar,6,5,DL_MelancholicFolk_Guitar,0.20815958082675934,0
55,100,0.21818181818181817,440,0,79,DL_MelancholicFolk_Guitar,6,3,DL_MelancholicFolk_Guitar,0.2029525339603424,0
55,100,0.2,509,0,79,DL_MelancholicFolk_Guitar,6,3,DL_MelancholicFolk_Guitar,0.21354565024375916,0
65,100,0.4818181818181818,673,0,79,DL_MelancholicFolk_Guitar,6,8,DL_MelancholicFolk_Guitar,0.2041063904762268,0
63,100,0.32272727272727275,26,1,80,DL_MelancholicFolk_Guitar,6,5,DL_MelancholicFolk_Guitar,0.9997912049293518,1
63,100,0.1409090909090909,153,0,80,DL_MelancholicFolk_Guitar,6,2,DL_MelancholicFolk_Guitar,0.1369185447692871,0
63,100,0.22272727272727272,365,0,80,DL_MelancholicFolk_Guitar,6,4,DL_MelancholicFolk_Guitar,0.12599819898605347,0
58,100,1.0,475,0,80,DL_MelancholicFolk_Guitar,6,15,DL_MelancholicFolk_Guitar,0.12747612595558167,0
53,100,0.2409090909090909,703,0,80,DL_MelancholicFolk_Guitar,6,4,DL_MelancholicFolk_Guitar,0.17404229938983917,0
53,100,0.8590909090909091,766,0,80,DL_MelancholicFolk_Guitar,6,14,DL_MelancholicFolk_Guitar,0.13642175495624542,0
53,100,0.18181818181818182,79,1,81,DL_MelancholicFolk_Guitar,6,3,DL_MelancholicFolk_Guitar,0.9997718930244446,1
60,100,0.11818181818181818,193,0,81,DL_MelancholicFolk_Guitar,6,2,DL_MelancholicFolk_Guitar,0.07876815646886826,0
60,100,0.5363636363636364,303,0,81,DL_MelancholicFolk_Guitar,6,9,DL_MelancholicFolk_Guitar,0.06855843961238861,0
60,100,0.13636363636363635,436,0,81,DL_MelancholicFolk_Guitar,6,2,DL_MelancholicFolk_Guitar,0.0832759290933609,0
55,100,0.4409090909090909,475,0,81,DL_MelancholicFolk_Guitar,6,7,DL_MelancholicFolk_Guitar,0.08507876098155975,0
60,100,0.4,603,0,81,DL_MelancholicFolk_Guitar,6,6,DL_MelancholicFolk_Guitar,0.09788959473371506,0
56,100,0.1,857,1,81,DL_MelancholicFolk_Guitar,6,2,DL_MelancholicFolk_Guitar,0.08775806427001953,0
58,100,0.33636363636363636,480,1,82,DL_MelancholicFolk_Guitar,6,5,DL_MelancholicFolk_Guitar,0.9997982382774353,1
58,100,0.8,590,0,82,DL_MelancholicFolk_Guitar,6,13,DL_MelancholicFolk_Guitar,0.40769121050834656,0
58,100,0.6181818181818182,832,1,82,DL_MelancholicFolk_Guitar,6,10,DL_MelancholicFolk_Guitar,0.4466112554073334,0
70,100,0.2409090909090909,87,1,83,DL_MelancholicFolk_Guitar,6,4,DL_MelancholicFolk_Guitar,0.9997046589851379,1
63,100,0.11818181818181818,140,0,83,DL_MelancholicFolk_Guitar,6,2,DL_MelancholicFolk_Guitar,0.05999461188912392,0
58,100,0.11818181818181818,307,0,83,DL_MelancholicFolk_Guitar,6,2,DL_MelancholicFolk_Guitar,0.046645376831293106,0
58,100,0.2772727272727273,339,0,83,DL_MelancholicFolk_Guitar,6,4,DL_MelancholicFolk_Guitar,0.04878339543938637,0
62,100,0.6409090909090909,426,0,83,DL_MelancholicFolk_Guitar,6,10,DL_MelancholicFolk_Guitar,0.057545654475688934,0
62,100,0.2,572,0,83,DL_MelancholicFolk_Guitar,6,3,DL_MelancholicFolk_Guitar,0.06601619720458984,0
58,100,0.2409090909090909,650,0,83,DL_MelancholicFolk_Guitar,6,4,DL_MelancholicFolk_Guitar,0.0664338544011116,0
60,100,0.11818181818181818,787,0,83,DL_MelancholicFolk_Guitar,6,2,DL_MelancholicFolk_Guitar,0.06990162283182144,0
60,100,0.37727272727272726,184,1,84,DL_MelancholicFolk_Guitar,6,6,DL_MelancholicFolk_Guitar,0.9998117089271545,1
60,100,0.3,273,0,84,DL_MelancholicFolk_Guitar,6,5,DL_MelancholicFolk_Guitar,0.130427747964859,0
60,100,0.2,343,0,84,DL_MelancholicFolk_Guitar,6,3,DL_MelancholicFolk_Guitar,0.12401419878005981,0
63,100,0.1590909090909091,519,0,84,DL_MelancholicFolk_Guitar,6,3,DL_MelancholicFolk_Guitar,0.13521228730678558,0
56,100,0.22272727272727272,563,0,84,DL_MelancholicFolk_Guitar,6,4,DL_MelancholicFolk_Guitar,0.14513008296489716,0
56,100,1.3409090909090908,823,1,84,DL_MelancholicFolk_Guitar,6,15,DL_MelancholicFolk_Guitar,0.12548303604125977,0
56,100,0.11818181818181818,392,1,85,DL_MelancholicFolk_Guitar,6,2,DL_MelancholicFolk_Guitar,0.999841570854187,1
56,100,0.1,576,0,85,DL_MelancholicFolk_Guitar,6,2,DL_MelancholicFolk_Guitar,0.20783184468746185,0
58,100,0.1590909090909091,616,0,85,DL_MelancholicFolk_Guitar,6,3,DL_MelancholicFolk_Guitar,0.1853957623243332,0
60,100,0.18181818181818182,773,0,85,DL_MelancholicFolk_Guitar,6,3,DL_MelancholicFolk_Guitar,0.2197539061307907,0
53,100,0.11818181818181818,823,0,85,DL_MelancholicFolk_Guitar,6,2,DL_MelancholicFolk_Guitar,0.20567838847637177,0
53,100,0.17727272727272728,30,1,86,DL_MelancholicFolk_Guitar,6,3,DL_MelancholicFolk_Guitar,0.9997729659080505,1
53,100,0.1590909090909091,189,0,86,DL_MelancholicFolk_Guitar,6,3,DL_MelancholicFolk_Guitar,0.07890813797712326,0
58,100,0.4772727272727273,229,0,86,DL_MelancholicFolk_Guitar,6,8,DL_MelancholicFolk_Guitar,0.06647353619337082,0
60,100,0.38181818181818183,409,0,86,DL_MelancholicFolk_Guitar,6,6,DL_MelancholicFolk_Guitar,0.08707089722156525,0
60,100,0.2,519,0,86,DL_MelancholicFolk_Guitar,6,3,DL_MelancholicFolk_Guitar,0.0933966115117073,0
60,100,0.1,567,0,86,DL_MelancholicFolk_Guitar,6,2,DL_MelancholicFolk_Guitar,0.09954158961772919,0
60,100,0.8,752,0,86,DL_MelancholicFolk_Guitar,6,13,DL_MelancholicFolk_Guitar,0.08448803424835205,0
56,100,0.5409090909090909,69,1,87,DL_MelancholicFolk_Guitar,6,9,DL_MelancholicFolk_Guitar,0.9995381832122803,1
58,100,1.259090909090909,637,1,87,DL_MelancholicFolk_Guitar,6,15,DL_MelancholicFolk_Guitar,0.5392818450927734,0
58,100,0.1590909090909091,53,1,88,DL_MelancholicFolk_Guitar,6,3,DL_MelancholicFolk_Guitar,0.9997361302375793,1
58,100,0.7,100,0,88,DL_MelancholicFolk_Guitar,6,11,DL_MelancholicFolk_Guitar,0.07737630605697632,0
70,100,0.12272727272727273,289,0,88,DL_MelancholicFolk_Guitar,6,2,DL_MelancholicFolk_Guitar,0.08042314648628235,0
63,100,0.11818181818181818,330,0,88,DL_MelancholicFolk_Guitar,6,2,DL_MelancholicFolk_Guitar,0.08733145147562027,0
63,100,0.6,453,0,88,DL_MelancholicFolk_Guitar,6,10,DL_MelancholicFolk_Guitar,0.0903439149260521,0
62,100,0.3181818181818182,612,0,88,DL_MelancholicFolk_Guitar,6,5,DL_MelancholicFolk_Guitar,0.11211080104112625,0
62,100,0.13636363636363635,722,0,88,DL_MelancholicFolk_Guitar,6,2,DL_MelancholicFolk_Guitar,0.09770648181438446,0
60,100,0.5409090909090909,30,1,89,DL_MelancholicFolk_Guitar,6,9,DL_MelancholicFolk_Guitar,0.9996299743652344,1
60,100,0.17727272727272728,493,1,89,DL_MelancholicFolk_Guitar,6,3,DL_MelancholicFolk_Guitar,0.5566883683204651,0
70,100,0.2409090909090909,220,1,90,DL_MelancholicFolk_Guitar,6,4,DL_MelancholicFolk_Guitar,0.9997908473014832,1
58,100,1.6409090909090909,299,0,90,DL_MelancholicFolk_Guitar,6,15,DL_MelancholicFolk_Guitar,0.3837164640426636,0
58,100,0.11818181818181818,677,1,90,DL_MelancholicFolk_Guitar,6,2,DL_MelancholicFolk_Guitar,0.48080331087112427,0
62,100,0.16363636363636364,487,1,1,_Remix_Guitar,6,3,_Remix_Guitar,0.9996551275253296,1
60,100,0.1,801,1,1,_Remix_Guitar,6,2,_Remix_Guitar,0.5486608743667603,0
60,100,0.12272727272727273,122,1,2,_Remix_Guitar,6,2,_Remix_Guitar,0.9996601343154907,1
55,100,0.1409090909090909,616,1,2,_Remix_Guitar,6,2,_Remix_Guitar,0.5382848381996155,0
56,100,0.21818181818181817,229,1,3,_Remix_Guitar,6,3,_Remix_Guitar,0.9998325109481812,1
56,100,0.1409090909090909,364,0,3,_Remix_Guitar,6,2,_Remix_Guitar,0.41306746006011963,0
63,100,0.2409090909090909,730,1,3,_Remix_Guitar,6,4,_Remix_Guitar,0.4172530770301819,0
62,100,0.17727272727272728,118,1,6,_Remix_Guitar,6,3,_Remix_Guitar,0.9996322393417358,1
63,100,0.11818181818181818,747,1,6,_Remix_Guitar,6,2,_Remix_Guitar,0.5488296151161194,0
56,100,0.22272727272727272,25,1,7,_Remix_Guitar,6,4,_Remix_Guitar,0.9931991696357727,0
62,100,0.1409090909090909,374,1,8,_Remix_Guitar,6,2,_Remix_Guitar,0.9996362924575806,1
63,100,0.1,761,1,8,_Remix_Guitar,6,2,_Remix_Guitar,0.5492995381355286,0
56,100,0.13636363636363635,171,1,9,_Remix_Guitar,6,2,_Remix_Guitar,0.9998332262039185,1
56,100,0.12272727272727273,290,0,9,_Remix_Guitar,6,2,_Remix_Guitar,0.41007015109062195,0
56,100,0.12272727272727273,804,1,9,_Remix_Guitar,6,2,_Remix_Guitar,0.4269760847091675,0
56,100,0.1409090909090909,175,1,10,_Remix_Guitar,6,2,_Remix_Guitar,0.9996335506439209,1
63,100,0.5818181818181818,792,1,10,_Remix_Guitar,6,9,_Remix_Guitar,0.5308614373207092,0
65,100,0.17727272727272728,118,1,11,_Remix_Guitar,6,3,_Remix_Guitar,0.9997678399085999,1
67,100,0.2590909090909091,163,0,11,_Remix_Guitar,6,4,_Remix_Guitar,0.07787308841943741,0
70,100,0.3409090909090909,285,0,11,_Remix_Guitar,6,5,_Remix_Guitar,0.06972155719995499,0
67,100,0.2409090909090909,360,0,11,_Remix_Guitar,6,4,_Remix_Guitar,0.08576828241348267,0
56,100,0.2409090909090909,426,0,11,_Remix_Guitar,6,4,_Remix_Guitar,0.096661277115345,0
65,100,0.2818181818181818,795,1,11,_Remix_Guitar,6,5,_Remix_Guitar,0.09757950901985168,0
67,100,0.2409090909090909,862,0,11,_Remix_Guitar,6,4,_Remix_Guitar,0.08901382237672806,0
70,100,0.1,79,1,12,_Remix_Guitar,6,2,_Remix_Guitar,0.9996364116668701,1
70,100,0.1590909090909091,175,0,12,_Remix_Guitar,6,3,_Remix_Guitar,0.029903898015618324,0
67,100,0.17727272727272728,237,0,12,_Remix_Guitar,6,3,_Remix_Guitar,0.019725700840353966,0
65,100,0.33636363636363636,281,0,12,_Remix_Guitar,6,5,_Remix_Guitar,0.01399849820882082,0
63,100,0.2,360,0,12,_Remix_Guitar,6,3,_Remix_Guitar,0.010753986425697803,0
60,100,0.21818181818181817,414,0,12,_Remix_Guitar,6,3,_Remix_Guitar,0.009537942707538605,0
58,100,0.1,501,0,12,_Remix_Guitar,6,2,_Remix_Guitar,0.008368846960365772,0
60,100,0.36363636363636365,532,0,12,_Remix_Guitar,6,6,_Remix_Guitar,0.010054884478449821,0
63,100,0.1409090909090909,620,0,12,_Remix_Guitar,6,2,_Remix_Guitar,0.01322669256478548,0
65,100,0.3,660,0,12,_Remix_Guitar,6,5,_Remix_Guitar,0.019848965108394623,0
67,100,0.3181818181818182,787,0,12,_Remix_Guitar,6,5,_Remix_Guitar,0.027190526947379112,0
53,100,0.1,876,0,12,_Remix_Guitar,6,2,_Remix_Guitar,0.0337056964635849,0
65,100,0.38181818181818183,22,1,13,_Remix_Guitar,6,6,_Remix_Guitar,0.999672532081604,1
63,100,0.1,135,0,13,_Remix_Guitar,6,2,_Remix_Guitar,0.0368364043533802,0
63,100,0.41818181818181815,185,0,13,_Remix_Guitar,6,7,_Remix_Guitar,0.025502048432826996,0
63,100,0.3181818181818182,281,0,13,_Remix_Guitar,6,5,_Remix_Guitar,0.02174070104956627,0
65,100,0.12272727272727273,355,0,13,_Remix_Guitar,6,2,_Remix_Guitar,0.020933834835886955,0
55,100,0.1,505,0,13,_Remix_Guitar,6,2,_Remix_Guitar,0.02083905041217804,0
70,100,0.3,532,0,13,_Remix_Guitar,6,5,_Remix_Guitar,0.02174038253724575,0
67,100,0.2,615,0,13,_Remix_Guitar,6,3,_Remix_Guitar,0.032046519219875336,0
56,100,0.3409090909090909,663,0,13,_Remix_Guitar,6,5,_Remix_Guitar,0.03863270953297615,0
72,100,0.2590909090909091,787,0,13,_Remix_Guitar,6,4,_Remix_Guitar,0.04026306793093681,0
70,100,0.2772727272727273,30,1,14,_Remix_Guitar,6,4,_Remix_Guitar,0.999672532081604,1
65,100,0.3,163,0,14,_Remix_Guitar,6,5,_Remix_Guitar,0.04524759575724602,0
63,100,0.22272727272727272,233,0,14,_Remix_Guitar,6,4,_Remix_Guitar,0.033016033470630646,0
65,100,0.3,295,0,14,_Remix_Guitar,6,5,_Remix_Guitar,0.031047701835632324,0
65,100,0.12272727272727273,400,0,14,_Remix_Guitar,6,2,_Remix_Guitar,0.031653113663196564,0
67,100,0.18181818181818182,488,0,14,_Remix_Guitar,6,3,_Remix_Guitar,0.03332027792930603,0
67,100,0.1409090909090909,550,0,14,_Remix_Guitar,6,2,_Remix_Guitar,0.0401005893945694,0
65,100,0.3409090909090909,660,0,14,_Remix_Guitar,6,5,_Remix_Guitar,0.047718595713377,0
65,100,0.2772727272727273,744,0,14,_Remix_Guitar,6,4,_Remix_Guitar,0.047539882361888885,0
58,100,0.22272727272727272,233,1,16,_Remix_Guitar,6,4,_Remix_Guitar,0.9922705888748169,0
58,100,0.18181818181818182,233,1,19,_Remix_Guitar,6,3,_Remix_Guitar,0.9923558235168457,0
56,100,0.16363636363636364,158,1,20,_Remix_Guitar,6,3,_Remix_Guitar,0.9998345375061035,1
56,100,0.1590909090909091,364,0,20,_Remix_Guitar,6,3,_Remix_Guitar,0.4132622182369232,0
58,100,0.1409090909090909,870,1,20,_Remix_Guitar,6,2,_Remix_Guitar,0.4166063070297241,0
58,100,0.1409090909090909,113,1,21,_Remix_Guitar,6,2,_Remix_Guitar,0.9928533434867859,1
56,100,0.2409090909090909,474,1,22,_Remix_Guitar,6,4,_Remix_Guitar,0.9927043914794922,0
58,100,0.1590909090909091,229,1,23,_Remix_Guitar,6,3,_Remix_Guitar,0.9925503730773926,0
56,100,0.1590909090909091,656,1,24,_Remix_Guitar,6,3,_Remix_Guitar,0.9996498823165894,1
56,100,0.13636363636363635,876,0,24,_Remix_Guitar,6,2,_Remix_Guitar,0.5471064448356628,0
63,100,0.42272727272727273,387,1,25,_Remix_Guitar,6,7,_Remix_Guitar,0.9998156428337097,1
55,100,0.2772727272727273,721,1,25,_Remix_Guitar,6,4,_Remix_Guitar,0.429740309715271,0
67,100,0.38181818181818183,804,0,25,_Remix_Guitar,6,6,_Remix_Guitar,0.4259241223335266,0
67,100,0.17727272727272728,40,1,26,_Remix_Guitar,6,3,_Remix_Guitar,0.9998201727867126,1
58,100,0.2409090909090909,167,0,26,_Remix_Guitar,6,4,_Remix_Guitar,0.2024490237236023,0
63,100,0.35909090909090907,370,0,26,_Remix_Guitar,6,6,_Remix_Guitar,0.2040739357471466,0
63,100,0.2818181818181818,461,0,26,_Remix_Guitar,6,5,_Remix_Guitar,0.21717412769794464,0
53,100,0.2409090909090909,791,1,26,_Remix_Guitar,6,4,_Remix_Guitar,0.2175862044095993,0
56,100,0.1590909090909091,79,1,27,_Remix_Guitar,6,3,_Remix_Guitar,0.9998552799224854,1
63,100,0.2409090909090909,198,0,27,_Remix_Guitar,6,4,_Remix_Guitar,0.31793269515037537,0
63,100,0.12272727272727273,254,0,27,_Remix_Guitar,6,2,_Remix_Guitar,0.2919119894504547,0
58,100,0.11818181818181818,735,1,27,_Remix_Guitar,6,2,_Remix_Guitar,0.30312374234199524,0
67,100,0.5590909090909091,34,1,28,_Remix_Guitar,6,9,_Remix_Guitar,0.9997795224189758,1
67,100,0.18181818181818182,202,0,28,_Remix_Guitar,6,3,_Remix_Guitar,0.13888873159885406,0
67,100,0.1409090909090909,272,0,28,_Remix_Guitar,6,2,_Remix_Guitar,0.12719139456748962,0
67,100,0.2772727272727273,347,0,28,_Remix_Guitar,6,4,_Remix_Guitar,0.13781411945819855,0
67,100,0.3,453,0,28,_Remix_Guitar,6,5,_Remix_Guitar,0.14959609508514404,0
67,100,0.5772727272727273,536,0,28,_Remix_Guitar,6,9,_Remix_Guitar,0.13499367237091064,0
58,100,0.35909090909090907,57,1,29,_Remix_Guitar,6,6,_Remix_Guitar,0.9997950196266174,1
58,100,0.11818181818181818,625,1,29,_Remix_Guitar,6,2,_Remix_Guitar,0.45104581117630005,0
53,100,0.2,770,0,29,_Remix_Guitar,6,3,_Remix_Guitar,0.43951377272605896,0
58,100,0.1409090909090909,119,1,30,_Remix_Guitar,6,2,_Remix_Guitar,0.9997890591621399,1
67,100,0.8636363636363636,289,0,30,_Remix_Guitar,6,14,_Remix_Guitar,0.1183096170425415,0
53,100,0.1590909090909091,484,0,30,_Remix_Guitar,6,3,_Remix_Guitar,0.14184340834617615,0
67,100,0.2590909090909091,536,0,30,_Remix_Guitar,6,4,_Remix_Guitar,0.13563133776187897,0
53,100,0.12272727272727273,598,0,30,_Remix_Guitar,6,2,_Remix_Guitar,0.15727336704730988,0
63,100,0.8227272727272728,796,0,30,_Remix_Guitar,6,13,_Remix_Guitar,0.12929818034172058,0
63,100,0.1,210,1,31,_Remix_Guitar,6,2,_Remix_Guitar,0.9997765421867371,1
63,100,0.2409090909090909,295,0,31,_Remix_Guitar,6,4,_Remix_Guitar,0.07514110207557678,0
53,100,0.5409090909090909,418,0,31,_Remix_Guitar,6,9,_Remix_Guitar,0.0735112726688385,0
53,100,0.2590909090909091,611,0,31,_Remix_Guitar,6,4,_Remix_Guitar,0.08151055127382278,0
53,100,0.16363636363636364,818,0,31,_Remix_Guitar,6,3,_Remix_Guitar,0.09353992342948914,0
54,100,0.1,853,0,31,_Remix_Guitar,6,2,_Remix_Guitar,0.0975382998585701,0
53,100,0.43636363636363634,876,0,31,_Remix_Guitar,6,7,_Remix_Guitar,0.08668559044599533,0
63,100,0.18181818181818182,188,1,32,_Remix_Guitar,6,3,_Remix_Guitar,0.9998262524604797,1
52,100,0.1409090909090909,421,1,32,_Remix_Guitar,6,2,_Remix_Guitar,0.4343447685241699,0
62,100,1.5772727272727274,568,0,32,_Remix_Guitar,6,15,_Remix_Guitar,0.395862877368927,0
62,100,0.5409090909090909,69,1,33,_Remix_Guitar,6,9,_Remix_Guitar,0.9998043179512024,1
62,100,1.1227272727272728,233,0,33,_Remix_Guitar,6,15,_Remix_Guitar,0.3943849503993988,0
53,100,0.1409090909090909,619,1,33,_Remix_Guitar,6,2,_Remix_Guitar,0.4665197730064392,0
53,100,0.21818181818181817,493,1,34,_Remix_Guitar,6,3,_Remix_Guitar,0.999647855758667,1
56,100,0.1409090909090909,646,0,34,_Remix_Guitar,6,2,_Remix_Guitar,0.5467628240585327,0
53,100,0.2,611,1,35,_Remix_Guitar,6,3,_Remix_Guitar,0.9996414184570312,1
62,100,0.12272727272727273,818,0,35,_Remix_Guitar,6,2,_Remix_Guitar,0.5516062378883362,0
55,100,0.1,56,1,36,_Remix_Guitar,6,2,_Remix_Guitar,0.9998300075531006,1
55,100,0.18181818181818182,298,1,36,_Remix_Guitar,6,3,_Remix_Guitar,0.4069787263870239,0
58,100,0.3181818181818182,660,1,36,_Remix_Guitar,6,5,_Remix_Guitar,0.42140069603919983,0
56,100,0.2409090909090909,298,1,37,_Remix_Guitar,6,4,_Remix_Guitar,0.9996403455734253,1
56,100,0.12272727272727273,378,0,37,_Remix_Guitar,6,2,_Remix_Guitar,0.5523883104324341,0
53,100,0.1409090909090909,53,1,40,_Remix_Guitar,6,2,_Remix_Guitar,0.9997695088386536,1
58,100,0.18181818181818182,224,0,40,_Remix_Guitar,6,3,_Remix_Guitar,0.07864823937416077,0
58,100,0.1409090909090909,386,0,40,_Remix_Guitar,6,2,_Remix_Guitar,0.07632838934659958,0
55,100,0.5181818181818182,550,0,40,_Remix_Guitar,6,8,_Remix_Guitar,0.0813128873705864,0
58,100,0.1,703,0,40,_Remix_Guitar,6,2,_Remix_Guitar,0.09421955049037933,0
55,100,0.2818181818181818,748,0,40,_Remix_Guitar,6,5,_Remix_Guitar,0.10190771520137787,0
58,100,0.21818181818181817,858,0,40,_Remix_Guitar,6,3,_Remix_Guitar,0.087980717420578,0
58,100,0.2,224,1,41,_Remix_Guitar,6,3,_Remix_Guitar,0.9998165965080261,1
63,100,0.2818181818181818,408,0,41,_Remix_Guitar,6,5,_Remix_Guitar,0.42073819041252136,0
53,100,0.4,664,1,41,_Remix_Guitar,6,6,_Remix_Guitar,0.43493369221687317,0
58,100,0.2,678,1,42,_Remix_Guitar,6,3,_Remix_Guitar,0.999576985836029,1
58,100,0.13636363636363635,743,0,42,_Remix_Guitar,6,2,_Remix_Guitar,0.5589188933372498,0
62,100,0.13636363636363635,303,1,43,_Remix_Guitar,6,2,_Remix_Guitar,0.9996434450149536,1
53,100,0.1409090909090909,625,1,43,_Remix_Guitar,6,2,_Remix_Guitar,0.5525543093681335,0
56,100,0.11818181818181818,373,1,46,_Remix_Guitar,6,2,_Remix_Guitar,0.9996426105499268,1
53,100,0.12272727272727273,783,1,46,_Remix_Guitar,6,2,_Remix_Guitar,0.5436641573905945,0
55,100,0.1590909090909091,536,1,47,_Remix_Guitar,6,3,_Remix_Guitar,0.999614953994751,1
55,100,0.18181818181818182,576,0,47,_Remix_Guitar,6,3,_Remix_Guitar,0.5506479144096375,0
56,100,0.2590909090909091,558,1,48,_Remix_Guitar,6,4,_Remix_Guitar,0.9996217489242554,1
56,100,0.3,721,0,48,_Remix_Guitar,6,5,_Remix_Guitar,0.5558270812034607,0
53,100,0.5,796,1,50,_Remix_Guitar,6,8,_Remix_Guitar,0.9930253028869629,1
56,100,0.5636363636363636,179,1,52,_Remix_Guitar,6,9,_Remix_Guitar,0.9925755262374878,0
56,100,0.11818181818181818,263,1,53,_Remix_Guitar,6,2,_Remix_Guitar,0.9996324777603149,1
58,100,0.2,823,1,53,_Remix_Guitar,6,3,_Remix_Guitar,0.5395827293395996,0
58,100,0.18181818181818182,0,1,54,_Remix_Guitar,6,3,_Remix_Guitar,0.9998193383216858,1
53,100,0.18181818181818182,91,0,54,_Remix_Guitar,6,3,_Remix_Guitar,0.22776226699352264,0
55,100,0.32272727272727275,289,0,54,_Remix_Guitar,6,5,_Remix_Guitar,0.19215799868106842,0
55,100,0.11818181818181818,506,0,54,_Remix_Guitar,6,2,_Remix_Guitar,0.21865850687026978,0
55,100,0.2772727272727273,668,0,54,_Remix_Guitar,6,4,_Remix_Guitar,0.20395223796367645,0
63,100,0.21818181818181817,96,1,55,_Remix_Guitar,6,3,_Remix_Guitar,0.9998520612716675,1
53,100,0.4772727272727273,426,1,55,_Remix_Guitar,6,8,_Remix_Guitar,0.3235611021518707,0
53,100,0.3409090909090909,584,0,55,_Remix_Guitar,6,5,_Remix_Guitar,0.2924569249153137,0
53,100,0.12272727272727273,826,1,55,_Remix_Guitar,6,2,_Remix_Guitar,0.30836912989616394,0
53,100,0.2409090909090909,26,1,56,_Remix_Guitar,6,4,_Remix_Guitar,0.9998534917831421,1
65,100,0.11818181818181818,88,0,56,_Remix_Guitar,6,2,_Remix_Guitar,0.32678014039993286,0
53,100,0.1409090909090909,311,0,56,_Remix_Guitar,6,2,_Remix_Guitar,0.2915947735309601,0
63,100,0.2409090909090909,729,1,56,_Remix_Guitar,6,4,_Remix_Guitar,0.303539901971817,0
53,100,0.11818181818181818,286,1,58,_Remix_Guitar,6,2,_Remix_Guitar,0.9996403455734253,1
58,100,0.11818181818181818,853,1,58,_Remix_Guitar,6,2,_Remix_Guitar,0.5368531942367554,0
55,100,0.2772727272727273,105,1,59,_Remix_Guitar,6,4,_Remix_Guitar,0.9927738904953003,0
53,100,0.4590909090909091,166,1,60,_Remix_Guitar,6,7,_Remix_Guitar,0.9996180534362793,1
53,100,0.1409090909090909,364,0,60,_Remix_Guitar,6,2,_Remix_Guitar,0.558918833732605,0
53,100,0.1409090909090909,110,1,61,_Remix_Guitar,6,2,_Remix_Guitar,0.9998325109481812,1
53,100,0.33636363636363636,171,0,61,_Remix_Guitar,6,5,_Remix_Guitar,0.39728042483329773,0
63,100,0.1409090909090909,703,1,61,_Remix_Guitar,6,2,_Remix_Guitar,0.4291117191314697,0
53,100,0.3,163,1,62,_Remix_Guitar,6,5,_Remix_Guitar,0.9998531341552734,1
53,100,0.2,289,0,62,_Remix_Guitar,6,3,_Remix_Guitar,0.3213576078414917,0
53,100,0.13636363636363635,435,0,62,_Remix_Guitar,6,2,_Remix_Guitar,0.29132890701293945,0
53,100,0.22272727272727272,584,0,62,_Remix_Guitar,6,4,_Remix_Guitar,0.3036433458328247,0
63,100,0.38181818181818183,694,1,63,_Remix_Guitar,6,6,_Remix_Guitar,0.9927460551261902,0
56,100,0.22272727272727272,540,1,64,_Remix_Guitar,6,4,_Remix_Guitar,0.9933502078056335,0
56,100,0.1409090909090909,30,1,65,_Remix_Guitar,6,2,_Remix_Guitar,0.9998393058776855,1
63,100,0.1,113,0,65,_Remix_Guitar,6,2,_Remix_Guitar,0.2123892456293106,0
58,100,0.7227272727272728,356,1,65,_Remix_Guitar,6,12,_Remix_Guitar,0.18331192433834076,0
56,100,0.8,536,0,65,_Remix_Guitar,6,13,_Remix_Guitar,0.22172628343105316,0
56,100,0.4,783,1,65,_Remix_Guitar,6,6,_Remix_Guitar,0.2225528508424759,0
63,100,0.1409090909090909,66,1,66,_Remix_Guitar,6,2,_Remix_Guitar,0.9996457099914551,1
56,100,0.2409090909090909,157,0,66,_Remix_Guitar,6,4,_Remix_Guitar,0.5453751087188721,0
63,100,0.1,100,1,67,_Remix_Guitar,6,2,_Remix_Guitar,0.9998290538787842,1
63,100,0.2409090909090909,136,0,67,_Remix_Guitar,6,4,_Remix_Guitar,0.40240275859832764,0
58,100,0.1409090909090909,273,0,67,_Remix_Guitar,6,2,_Remix_Guitar,0.4312978982925415,0
58,100,0.35909090909090907,176,1,68,_Remix_Guitar,6,6,_Remix_Guitar,0.9995620846748352,1
56,100,0.32272727272727275,430,1,68,_Remix_Guitar,6,5,_Remix_Guitar,0.5703174471855164,0
56,100,0.16363636363636364,157,1,69,_Remix_Guitar,6,3,_Remix_Guitar,0.9998352527618408,1
60,100,0.2590909090909091,726,1,69,_Remix_Guitar,6,4,_Remix_Guitar,0.41153228282928467,0
60,100,0.2409090909090909,796,0,69,_Remix_Guitar,6,4,_Remix_Guitar,0.4260772168636322,0
60,100,0.12272727272727273,69,1,70,_Remix_Guitar,6,2,_Remix_Guitar,0.9998142123222351,1
54,100,0.11818181818181818,119,0,70,_Remix_Guitar,6,2,_Remix_Guitar,0.12320464104413986,0
60,100,0.1409090909090909,365,1,70,_Remix_Guitar,6,2,_Remix_Guitar,0.1199774444103241,0
63,100,0.5,475,0,70,_Remix_Guitar,6,8,_Remix_Guitar,0.12642815709114075,0
56,100,0.5227272727272727,663,0,70,_Remix_Guitar,6,8,_Remix_Guitar,0.14252112805843353,0
56,100,0.18181818181818182,826,0,70,_Remix_Guitar,6,3,_Remix_Guitar,0.1358925700187683,0
56,100,0.2409090909090909,475,1,71,_Remix_Guitar,6,4,_Remix_Guitar,0.9996403455734253,1
63,100,0.22272727272727272,673,0,71,_Remix_Guitar,6,4,_Remix_Guitar,0.5430564880371094,0
55,100,0.2,853,1,72,_Remix_Guitar,6,3,_Remix_Guitar,0.9928622841835022,0
55,100,0.1409090909090909,113,1,73,_Remix_Guitar,6,2,_Remix_Guitar,0.9998544454574585,1
63,100,0.18181818181818182,286,0,73,_Remix_Guitar,6,3,_Remix_Guitar,0.31650102138519287,0
55,100,0.23636363636363636,546,1,73,_Remix_Guitar,6,4,_Remix_Guitar,0.2884148955345154,0
56,100,0.11818181818181818,836,1,73,_Remix_Guitar,6,2,_Remix_Guitar,0.31334036588668823,0
53,100,0.23636363636363636,502,1,74,_Remix_Guitar,6,4,_Remix_Guitar,0.9996438026428223,1
60,100,0.1409090909090909,839,1,74,_Remix_Guitar,6,2,_Remix_Guitar,0.5496063232421875,0
55,100,0.1,123,1,75,_Remix_Guitar,6,2,_Remix_Guitar,0.9998332262039185,1
55,100,0.1409090909090909,299,0,75,_Remix_Guitar,6,2,_Remix_Guitar,0.21004618704319,0
63,100,0.23636363636363636,392,0,75,_Remix_Guitar,6,4,_Remix_Guitar,0.1950887143611908,0
55,100,0.5,669,1,75,_Remix_Guitar,6,8,_Remix_Guitar,0.2089984118938446,0
55,100,0.2590909090909091,800,0,75,_Remix_Guitar,6,4,_Remix_Guitar,0.21623137593269348,0
60,100,0.1,250,1,76,_Remix_Guitar,6,2,_Remix_Guitar,0.9998629093170166,1
63,100,0.1590909090909091,299,0,76,_Remix_Guitar,6,3,_Remix_Guitar,0.30578523874282837,0
56,100,0.13636363636363635,743,1,76,_Remix_Guitar,6,2,_Remix_Guitar,0.29468443989753723,0
63,100,0.2409090909090909,800,0,76,_Remix_Guitar,6,4,_Remix_Guitar,0.29944559931755066,0
62,100,0.3,462,1,77,_Remix_Guitar,6,5,_Remix_Guitar,0.9998347759246826,1
62,100,0.3,590,0,77,_Remix_Guitar,6,5,_Remix_Guitar,0.41198039054870605,0
62,100,0.37727272727272726,690,0,77,_Remix_Guitar,6,6,_Remix_Guitar,0.42423614859580994,0
62,100,0.21818181818181817,119,1,78,_Remix_Guitar,6,3,_Remix_Guitar,0.9996362924575806,1
63,100,0.2409090909090909,470,1,78,_Remix_Guitar,6,4,_Remix_Guitar,0.5438243746757507,0
63,100,0.2,96,1,79,_Remix_Guitar,6,3,_Remix_Guitar,0.9996302127838135,1
63,100,0.21818181818181817,352,1,79,_Remix_Guitar,6,3,_Remix_Guitar,0.5513138175010681,0
56,100,0.1,796,1,80,_Remix_Guitar,6,2,_Remix_Guitar,0.993522584438324,0
58,100,0.1409090909090909,286,1,81,_Remix_Guitar,6,2,_Remix_Guitar,0.9995951056480408,1
58,100,0.1409090909090909,320,0,81,_Remix_Guitar,6,2,_Remix_Guitar,0.5523053407669067,0
63,100,0.3409090909090909,330,1,82,_Remix_Guitar,6,5,_Remix_Guitar,0.9929900169372559,0
62,100,0.22272727272727272,475,1,83,_Remix_Guitar,6,4,_Remix_Guitar,0.9998617172241211,1
53,100,0.1409090909090909,619,0,83,_Remix_Guitar,6,2,_Remix_Guitar,0.31961533427238464,0
62,100,0.2409090909090909,729,0,83,_Remix_Guitar,6,4,_Remix_Guitar,0.289959579706192,0
62,100,0.1409090909090909,817,0,83,_Remix_Guitar,6,2,_Remix_Guitar,0.3008417785167694,0
63,100,0.3181818181818182,30,1,85,_Remix_Guitar,6,5,_Remix_Guitar,0.9998213648796082,1
63,100,0.21818181818181817,294,1,85,_Remix_Guitar,6,3,_Remix_Guitar,0.41820672154426575,0
63,100,0.3,347,0,85,_Remix_Guitar,6,5,_Remix_Guitar,0.4280717670917511,0
62,100,0.11818181818181818,74,1,86,_Remix_Guitar,6,2,_Remix_Guitar,0.9998610019683838,1
55,100,0.11818181818181818,237,0,86,_Remix_Guitar,6,2,_Remix_Guitar,0.3179771304130554,0
55,100,0.22272727272727272,343,0,86,_Remix_Guitar,6,4,_Remix_Guitar,0.2905125319957733,0
58,100,0.4,800,1,86,_Remix_Guitar,6,6,_Remix_Guitar,0.298767626285553,0
63,100,0.16363636363636364,223,1,87,_Remix_Guitar,6,3,_Remix_Guitar,0.999835729598999,1
63,100,0.4590909090909091,303,0,87,_Remix_Guitar,6,7,_Remix_Guitar,0.1947254091501236,0
56,100,0.11818181818181818,436,0,87,_Remix_Guitar,6,2,_Remix_Guitar,0.21376284956932068,0
63,100,0.18181818181818182,686,1,87,_Remix_Guitar,6,3,_Remix_Guitar,0.21032333374023438,0
63,100,0.38181818181818183,796,0,87,_Remix_Guitar,6,6,_Remix_Guitar,0.20668059587478638,0
56,100,0.12272727272727273,35,1,88,_Remix_Guitar,6,2,_Remix_Guitar,0.9996492862701416,1
56,100,0.2,83,0,88,_Remix_Guitar,6,3,_Remix_Guitar,0.5442723631858826,0
53,100,0.2409090909090909,113,1,90,_Remix_Guitar,6,4,_Remix_Guitar,0.9996534585952759,1
54,100,0.1,237,0,90,_Remix_Guitar,6,2,_Remix_Guitar,0.5474878549575806,0
63,100,0.11818181818181818,62,1,91,_Remix_Guitar,6,2,_Remix_Guitar,0.9998279809951782,1
63,100,0.2409090909090909,163,0,91,_Remix_Guitar,6,4,_Remix_Guitar,0.40376612544059753,0
63,100,0.2590909090909091,726,1,91,_Remix_Guitar,6,4,_Remix_Guitar,0.43413615226745605,0
58,100,0.2,677,1,92,_Remix_Guitar,6,3,_Remix_Guitar,0.9925738573074341,0
63,100,0.5409090909090909,157,1,93,_Remix_Guitar,6,9,_Remix_Guitar,0.9995922446250916,1
56,100,0.1590909090909091,787,1,93,_Remix_Guitar,6,3,_Remix_Guitar,0.5650172829627991,0
62,100,0.2590909090909091,559,1,94,_Remix_Guitar,6,4,_Remix_Guitar,0.9996316432952881,1
55,100,0.18181818181818182,805,1,94,_Remix_Guitar,6,3,_Remix_Guitar,0.5508086681365967,0
55,100,0.2,540,1,95,_Remix_Guitar,6,3,_Remix_Guitar,0.9931007623672485,0
63,100,0.18181818181818182,110,1,96,_Remix_Guitar,6,3,_Remix_Guitar,0.9998469352722168,1
63,100,0.11818181818181818,197,0,96,_Remix_Guitar,6,2,_Remix_Guitar,0.32330065965652466,0
63,100,0.35909090909090907,263,0,96,_Remix_Guitar,6,6,_Remix_Guitar,0.28857237100601196,0
55,100,0.1409090909090909,673,1,96,_Remix_Guitar,6,2,_Remix_Guitar,0.3194216191768646,0
62,100,0.37727272727272726,193,1,97,_Remix_Guitar,6,6,_Remix_Guitar,0.9998137354850769,1
62,100,1.0636363636363637,289,0,97,_Remix_Guitar,6,15,_Remix_Guitar,0.39176926016807556,0
62,100,0.7772727272727272,800,1,97,_Remix_Guitar,6,12,_Remix_Guitar,0.4485442340373993,0
53,100,0.1590909090909091,145,1,98,_Remix_Guitar,6,3,_Remix_Guitar,0.9998544454574585,1
62,100,0.1590909090909091,193,0,98,_Remix_Guitar,6,3,_Remix_Guitar,0.31693732738494873,0
62,100,1.9772727272727273,339,0,98,_Remix_Guitar,6,15,_Remix_Guitar,0.25141003727912903,0
62,100,0.11818181818181818,779,1,98,_Remix_Guitar,6,2,_Remix_Guitar,0.3566212058067322,0
62,100,0.1409090909090909,356,1,99,_Remix_Guitar,6,2,_Remix_Guitar,0.993511974811554,1
55,100,0.35909090909090907,540,1,100,_Remix_Guitar,6,6,_Remix_Guitar,0.9928309917449951,0
55,100,0.3,157,1,101,_Remix_Guitar,6,5,_Remix_Guitar,0.9927661418914795,0
63,100,0.1590909090909091,580,1,102,_Remix_Guitar,6,3,_Remix_Guitar,0.9929976463317871,0
56,100,0.2590909090909091,163,1,104,_Remix_Guitar,6,4,_Remix_Guitar,0.999619722366333,1
63,100,0.3,320,0,104,_Remix_Guitar,6,5,_Remix_Guitar,0.5473552346229553,0
53,100,0.36363636363636365,157,1,105,_Remix_Guitar,6,6,_Remix_Guitar,0.9998319149017334,1
62,100,0.1,466,1,105,_Remix_Guitar,6,2,_Remix_Guitar,0.42637598514556885,0
63,100,0.2409090909090909,739,1,105,_Remix_Guitar,6,4,_Remix_Guitar,0.41697341203689575,0
60,100,0.17727272727272728,193,1,106,_Remix_Guitar,6,3,_Remix_Guitar,0.9996453523635864,1
63,100,0.1,690,1,106,_Remix_Guitar,6,2,_Remix_Guitar,0.5434815287590027,0
62,100,0.2,436,1,107,_Remix_Guitar,6,3,_Remix_Guitar,0.9998331069946289,1
62,100,0.4,509,0,107,_Remix_Guitar,6,6,_Remix_Guitar,0.41134241223335266,0
62,100,0.2590909090909091,695,0,107,_Remix_Guitar,6,4,_Remix_Guitar,0.4286486506462097,0
62,100,0.4,13,1,108,_Remix_Guitar,6,6,_Remix_Guitar,0.9998526573181152,1
62,100,0.17727272727272728,106,0,108,_Remix_Guitar,6,3,_Remix_Guitar,0.3307020366191864,0
62,100,0.2,430,1,108,_Remix_Guitar,6,3,_Remix_Guitar,0.29187890887260437,0
53,100,0.18181818181818182,862,1,108,_Remix_Guitar,6,3,_Remix_Guitar,0.30561405420303345,0
53,100,0.11818181818181818,30,1,109,_Remix_Guitar,6,2,_Remix_Guitar,0.9996291399002075,1
63,100,0.6,857,1,109,_Remix_Guitar,6,10,_Remix_Guitar,0.5325753092765808,0
63,100,0.1,113,1,110,_Remix_Guitar,6,2,_Remix_Guitar,0.9996521472930908,1
53,100,0.1,294,0,110,_Remix_Guitar,6,2,_Remix_Guitar,0.549579381942749,0
63,100,0.3409090909090909,496,1,111,_Remix_Guitar,6,5,_Remix_Guitar,0.9996143579483032,1
63,100,0.1409090909090909,650,0,111,_Remix_Guitar,6,2,_Remix_Guitar,0.5545194149017334,0
65,100,0.3,320,1,112,_Remix_Guitar,6,5,_Remix_Guitar,0.9996309280395508,1
65,100,0.3409090909090909,399,0,112,_Remix_Guitar,6,5,_Remix_Guitar,0.5474976897239685,0
58,100,0.2,686,1,113,_Remix_Guitar,6,3,_Remix_Guitar,0.9995803236961365,1
82,100,0.5181818181818182,779,0,113,_Remix_Guitar,6,8,_Remix_Guitar,0.5438977479934692,0
53,100,0.3181818181818182,677,1,115,_Remix_Guitar,6,5,_Remix_Guitar,0.9932519793510437,0
55,100,0.1590909090909091,62,1,116,_Remix_Guitar,6,3,_Remix_Guitar,0.9998261332511902,1
55,100,0.1590909090909091,360,1,116,_Remix_Guitar,6,3,_Remix_Guitar,0.4094092547893524,0
53,100,0.2,677,1,116,_Remix_Guitar,6,3,_Remix_Guitar,0.43569719791412354,0
53,100,0.1590909090909091,426,1,117,_Remix_Guitar,6,3,_Remix_Guitar,0.9936140179634094,0
53,100,0.11818181818181818,237,1,119,_Remix_Guitar,6,2,_Remix_Guitar,0.9996564388275146,1
55,100,0.1,457,0,119,_Remix_Guitar,6,2,_Remix_Guitar,0.5434833765029907,0
53,100,0.12272727272727273,210,1,121,_Remix_Guitar,6,2,_Remix_Guitar,0.9937154650688171,1
53,100,0.1409090909090909,660,1,122,_Remix_Guitar,6,2,_Remix_Guitar,0.9935672879219055,0
63,100,0.1,839,1,124,_Remix_Guitar,6,2,_Remix_Guitar,0.9930111765861511,1
53,100,0.3,40,1,127,_Remix_Guitar,6,5,_Remix_Guitar,0.9929115176200867,0
57,100,0.2,232,1,128,_Remix_Guitar,6,3,_Remix_Guitar,0.9933069348335266,0
53,100,0.1409090909090909,295,1,129,_Remix_Guitar,6,2,_Remix_Guitar,0.993395984172821,0
53,100,0.41818181818181815,413,1,130,_Remix_Guitar,6,7,_Remix_Guitar,0.9998297691345215,1
53,100,0.1,682,1,130,_Remix_Guitar,6,2,_Remix_Guitar,0.42645344138145447,0
53,100,0.38181818181818183,796,0,130,_Remix_Guitar,6,6,_Remix_Guitar,0.41708314418792725,0
53,100,0.1590909090909091,238,1,131,_Remix_Guitar,6,3,_Remix_Guitar,0.9934362173080444,0
60,100,0.1,228,1,135,_Remix_Guitar,6,2,_Remix_Guitar,0.9936320185661316,0
53,100,0.1409090909090909,79,1,136,_Remix_Guitar,6,2,_Remix_Guitar,0.999647855758667,1
53,100,0.18181818181818182,180,0,136,_Remix_Guitar,6,3,_Remix_Guitar,0.5454238653182983,0
60,100,0.1590909090909091,185,1,142,_Remix_Guitar,6,3,_Remix_Guitar,0.9936303496360779,0
57,100,0.17727272727272728,492,1,0,DL_Guitar,6,3,DL_Guitar,0.9931262731552124,0
69,100,0.33636363636363636,39,1,1,DL_Guitar,6,5,DL_Guitar,0.9997922778129578,1
52,100,0.7,166,0,1,DL_Guitar,6,11,DL_Guitar,0.1285792589187622,0
52,100,0.1,351,0,1,DL_Guitar,6,2,DL_Guitar,0.1305968165397644,0
59,100,0.1409090909090909,449,0,1,DL_Guitar,6,2,DL_Guitar,0.1352781504392624,0
52,100,0.11818181818181818,638,0,1,DL_Guitar,6,2,DL_Guitar,0.1508890986442566,0
54,100,0.4409090909090909,796,0,1,DL_Guitar,6,7,DL_Guitar,0.12687835097312927,0
59,100,0.2,12,1,2,DL_Guitar,6,3,DL_Guitar,0.9998281002044678,1
54,100,0.3409090909090909,421,1,2,DL_Guitar,6,5,DL_Guitar,0.41294175386428833,0
57,100,0.33636363636363636,501,0,2,DL_Guitar,6,5,DL_Guitar,0.4254588186740875,0
57,100,0.1409090909090909,70,1,3,DL_Guitar,6,2,DL_Guitar,0.9998489618301392,1
69,100,0.2772727272727273,295,0,3,DL_Guitar,6,4,DL_Guitar,0.31228891015052795,0
59,100,0.3,550,1,3,DL_Guitar,6,5,DL_Guitar,0.29776889085769653,0
64,100,0.2818181818181818,629,0,3,DL_Guitar,6,5,DL_Guitar,0.3118912875652313,0
61,100,0.2590909090909091,255,1,4,DL_Guitar,6,4,DL_Guitar,0.9996323585510254,1
64,100,0.3,871,1,4,DL_Guitar,6,5,DL_Guitar,0.5530964732170105,0
52,100,0.3,56,1,5,DL_Guitar,6,5,DL_Guitar,0.9998592138290405,1
69,100,0.11818181818181818,514,1,5,DL_Guitar,6,2,DL_Guitar,0.30836614966392517,0
52,100,0.5772727272727273,678,0,5,DL_Guitar,6,9,DL_Guitar,0.2850421667098999,0
52,100,0.2636363636363636,862,0,5,DL_Guitar,6,4,DL_Guitar,0.31180277466773987,0
64,100,0.1,79,1,6,DL_Guitar,6,2,DL_Guitar,0.9998581409454346,1
52,100,0.8,105,0,6,DL_Guitar,6,13,DL_Guitar,0.2907165586948395,0
54,100,0.43636363636363634,414,1,6,DL_Guitar,6,7,DL_Guitar,0.2985842823982239,0
59,100,0.2409090909090909,514,0,6,DL_Guitar,6,4,DL_Guitar,0.3118429183959961,0
54,100,0.1409090909090909,87,1,7,DL_Guitar,6,2,DL_Guitar,0.9998304843902588,1
57,100,0.32272727272727275,122,0,7,DL_Guitar,6,5,DL_Guitar,0.40406033396720886,0
54,100,0.1409090909090909,317,0,7,DL_Guitar,6,2,DL_Guitar,0.42856770753860474,0
59,100,0.1,34,1,8,DL_Guitar,6,2,DL_Guitar,0.9997689127922058,1
52,100,0.1,127,0,8,DL_Guitar,6,2,DL_Guitar,0.07985062152147293,0
59,100,0.37727272727272726,347,0,8,DL_Guitar,6,6,DL_Guitar,0.07051268219947815,0
54,100,0.3409090909090909,448,0,8,DL_Guitar,6,5,DL_Guitar,0.07957637310028076,0
52,100,0.38181818181818183,673,0,8,DL_Guitar,6,6,DL_Guitar,0.09211529046297073,0
57,100,0.3,766,0,8,DL_Guitar,6,5,DL_Guitar,0.09348923712968826,0
52,100,0.1,840,0,8,DL_Guitar,6,2,DL_Guitar,0.09178613126277924,0
57,100,0.21818181818181817,0,1,9,DL_Guitar,6,3,DL_Guitar,0.9997580647468567,1
61,100,0.23636363636363636,106,0,9,DL_Guitar,6,4,DL_Guitar,0.0819203108549118,0
57,100,0.2590909090909091,163,0,9,DL_Guitar,6,4,DL_Guitar,0.07147655636072159,0
61,100,0.2772727272727273,405,1,9,DL_Guitar,6,4,DL_Guitar,0.08243709057569504,0
57,100,0.11818181818181818,484,0,9,DL_Guitar,6,2,DL_Guitar,0.0889337807893753,0
57,100,0.1409090909090909,515,0,9,DL_Guitar,6,2,DL_Guitar,0.0951046496629715,0
52,100,0.23636363636363636,809,1,9,DL_Guitar,6,4,DL_Guitar,0.08768587559461594,0
52,100,0.2409090909090909,113,1,10,DL_Guitar,6,4,DL_Guitar,0.9997817873954773,1
52,100,0.2409090909090909,299,0,10,DL_Guitar,6,4,DL_Guitar,0.07828479260206223,0
64,100,0.1,400,0,10,DL_Guitar,6,2,DL_Guitar,0.0731344148516655,0
59,100,0.32272727272727275,431,0,10,DL_Guitar,6,5,DL_Guitar,0.0746200829744339,0
52,100,0.1590909090909091,611,0,10,DL_Guitar,6,3,DL_Guitar,0.08858243376016617,0
52,100,0.43636363636363634,656,0,10,DL_Guitar,6,7,DL_Guitar,0.09160672128200531,0
52,100,0.4409090909090909,795,0,10,DL_Guitar,6,7,DL_Guitar,0.08351214230060577,0
52,100,0.11818181818181818,264,1,11,DL_Guitar,6,2,DL_Guitar,0.9936309456825256,0
66,100,0.17727272727272728,185,1,12,DL_Guitar,6,3,DL_Guitar,0.9998382329940796,1
52,100,0.1,572,1,12,DL_Guitar,6,2,DL_Guitar,0.4165319502353668,0
68,100,0.2590909090909091,756,0,12,DL_Guitar,6,4,DL_Guitar,0.41870322823524475,0
54,100,0.2590909090909091,189,1,13,DL_Guitar,6,4,DL_Guitar,0.9996370077133179,1
54,100,0.1,691,1,13,DL_Guitar,6,2,DL_Guitar,0.5517067313194275,0
64,100,0.11818181818181818,457,1,14,DL_Guitar,6,2,DL_Guitar,0.9998496770858765,1
71,100,0.18181818181818182,496,0,14,DL_Guitar,6,3,DL_Guitar,0.19913800060749054,0
72,100,0.16363636363636364,553,0,14,DL_Guitar,6,3,DL_Guitar,0.1948978453874588,0
68,100,0.11818181818181818,625,0,14,DL_Guitar,6,2,DL_Guitar,0.20576216280460358,0
64,100,0.2590909090909091,871,1,14,DL_Guitar,6,4,DL_Guitar,0.19855783879756927,0
54,100,0.1,694,1,15,DL_Guitar,6,2,DL_Guitar,0.9996451139450073,1
55,100,0.1,747,0,15,DL_Guitar,6,2,DL_Guitar,0.543136715888977,0
52,100,0.2,52,1,16,DL_Guitar,6,3,DL_Guitar,0.9998399019241333,1
52,100,0.35909090909090907,100,0,16,DL_Guitar,6,6,DL_Guitar,0.4060843884944916,0
52,100,0.1409090909090909,638,1,16,DL_Guitar,6,2,DL_Guitar,0.42547935247421265,0
52,100,0.2,193,1,17,DL_Guitar,6,3,DL_Guitar,0.9998397827148438,1
52,100,0.2409090909090909,250,0,17,DL_Guitar,6,4,DL_Guitar,0.4114251732826233,0
55,100,0.16363636363636364,443,0,17,DL_Guitar,6,3,DL_Guitar,0.4161529541015625,0
55,100,0.1,492,1,18,DL_Guitar,6,2,DL_Guitar,0.9931640028953552,0
57,100,0.2590909090909091,430,1,19,DL_Guitar,6,4,DL_Guitar,0.999854564666748,1
52,100,0.2636363636363636,488,0,19,DL_Guitar,6,4,DL_Guitar,0.3357895016670227,0
64,100,0.1,677,0,19,DL_Guitar,6,2,DL_Guitar,0.2899185121059418,0
64,100,0.2,704,0,19,DL_Guitar,6,3,DL_Guitar,0.2944360375404358,0
54,100,1.0818181818181818,57,1,20,DL_Guitar,6,15,DL_Guitar,0.9997976422309875,1
54,100,0.17727272727272728,382,1,20,DL_Guitar,6,3,DL_Guitar,0.25444453954696655,0
54,100,0.1409090909090909,426,0,20,DL_Guitar,6,2,DL_Guitar,0.20372667908668518,0
57,100,0.2636363636363636,686,1,20,DL_Guitar,6,4,DL_Guitar,0.20401418209075928,0
57,100,0.18181818181818182,760,0,20,DL_Guitar,6,3,DL_Guitar,0.21094997227191925,0
57,100,0.23636363636363636,106,1,21,DL_Guitar,6,4,DL_Guitar,0.9998325109481812,1
57,100,0.1,179,0,21,DL_Guitar,6,2,DL_Guitar,0.20982128381729126,0
57,100,0.38181818181818183,285,0,21,DL_Guitar,6,6,DL_Guitar,0.18691007792949677,0
61,100,0.21818181818181817,505,0,21,DL_Guitar,6,3,DL_Guitar,0.22076162695884705,0
57,100,0.11818181818181818,590,0,21,DL_Guitar,6,2,DL_Guitar,0.20595434308052063,0
54,100,1.0772727272727274,326,1,22,DL_Guitar,6,15,DL_Guitar,0.9997885823249817,1
54,100,0.2818181818181818,694,1,22,DL_Guitar,6,5,DL_Guitar,0.46340540051460266,0
62,100,0.1409090909090909,791,0,22,DL_Guitar,6,2,DL_Guitar,0.43693599104881287,0
57,100,0.1,206,1,23,DL_Guitar,6,2,DL_Guitar,0.9998393058776855,1
57,100,0.35909090909090907,299,0,23,DL_Guitar,6,6,DL_Guitar,0.1994701772928238,0
57,100,0.1590909090909091,382,0,23,DL_Guitar,6,3,DL_Guitar,0.20176032185554504,0
52,100,0.6,546,0,23,DL_Guitar,6,10,DL_Guitar,0.20071616768836975,0
52,100,0.12272727272727273,717,0,23,DL_Guitar,6,2,DL_Guitar,0.2118261754512787,0
64,100,0.1409090909090909,9,1,24,DL_Guitar,6,2,DL_Guitar,0.9997407793998718,1
54,100,0.4,48,0,24,DL_Guitar,6,6,DL_Guitar,0.05373334512114525,0
54,100,0.2409090909090909,189,0,24,DL_Guitar,6,4,DL_Guitar,0.04842959716916084,0
52,100,0.2590909090909091,308,0,24,DL_Guitar,6,4,DL_Guitar,0.04889053851366043,0
68,100,0.1590909090909091,461,0,24,DL_Guitar,6,3,DL_Guitar,0.052247121930122375,0
54,100,0.1409090909090909,515,0,24,DL_Guitar,6,2,DL_Guitar,0.059917889535427094,0
54,100,0.7772727272727272,567,0,24,DL_Guitar,6,12,DL_Guitar,0.06048073247075081,0
54,100,0.21818181818181817,748,0,24,DL_Guitar,6,3,DL_Guitar,0.06630077213048935,0
54,100,0.11818181818181818,52,1,25,DL_Guitar,6,2,DL_Guitar,0.9998050332069397,1
54,100,0.11818181818181818,131,0,25,DL_Guitar,6,2,DL_Guitar,0.12594980001449585,0
62,100,0.2409090909090909,316,0,25,DL_Guitar,6,4,DL_Guitar,0.11920199543237686,0
62,100,0.2818181818181818,374,0,25,DL_Guitar,6,5,DL_Guitar,0.13226105272769928,0
57,100,0.11818181818181818,677,1,25,DL_Guitar,6,2,DL_Guitar,0.14533798396587372,0
61,100,0.1409090909090909,818,0,25,DL_Guitar,6,2,DL_Guitar,0.13248342275619507,0
57,100,0.5363636363636364,61,1,26,DL_Guitar,6,9,DL_Guitar,0.9998353719711304,1
52,100,0.35909090909090907,409,1,26,DL_Guitar,6,6,DL_Guitar,0.35121673345565796,0
52,100,0.1590909090909091,515,0,26,DL_Guitar,6,3,DL_Guitar,0.29527559876441956,0
52,100,0.5227272727272727,686,0,26,DL_Guitar,6,8,DL_Guitar,0.3008112907409668,0
54,100,0.1409090909090909,57,1,27,DL_Guitar,6,2,DL_Guitar,0.9998486042022705,1
62,100,0.1409090909090909,625,1,27,DL_Guitar,6,2,DL_Guitar,0.34271326661109924,0
62,100,0.12272727272727273,739,0,27,DL_Guitar,6,2,DL_Guitar,0.29474112391471863,0
57,100,0.2590909090909091,814,0,27,DL_Guitar,6,4,DL_Guitar,0.2946253716945648,0
52,100,0.8,52,1,28,DL_Guitar,6,13,DL_Guitar,0.9998133778572083,1
52,100,0.42272727272727273,443,1,28,DL_Guitar,6,7,DL_Guitar,0.44043347239494324,0
52,100,0.5409090909090909,686,1,28,DL_Guitar,6,9,DL_Guitar,0.4237132966518402,0
52,100,0.3,13,1,29,DL_Guitar,6,5,DL_Guitar,0.9998406171798706,1
52,100,0.1590909090909091,83,0,29,DL_Guitar,6,3,DL_Guitar,0.40889793634414673,0
64,100,0.2,119,0,29,DL_Guitar,6,3,DL_Guitar,0.4222284257411957,0
57,100,0.4818181818181818,320,1,30,DL_Guitar,6,8,DL_Guitar,0.9997501969337463,1
57,100,0.38181818181818183,440,0,30,DL_Guitar,6,6,DL_Guitar,0.08375508338212967,0
69,100,0.1409090909090909,694,1,30,DL_Guitar,6,2,DL_Guitar,0.0777229368686676,0
69,100,0.11818181818181818,735,0,30,DL_Guitar,6,2,DL_Guitar,0.08335649967193604,0
57,100,0.1590909090909091,770,0,30,DL_Guitar,6,3,DL_Guitar,0.0910540446639061,0
69,100,0.1,804,0,30,DL_Guitar,6,2,DL_Guitar,0.10068699717521667,0
57,100,0.8409090909090909,866,0,30,DL_Guitar,6,13,DL_Guitar,0.08276558667421341,0
57,100,0.5181818181818182,185,1,31,DL_Guitar,6,8,DL_Guitar,0.9997503161430359,1
57,100,0.5409090909090909,308,0,31,DL_Guitar,6,9,DL_Guitar,0.07678069919347763,0
52,100,0.18181818181818182,453,0,31,DL_Guitar,6,3,DL_Guitar,0.07980729639530182,0
52,100,0.13636363636363635,523,0,31,DL_Guitar,6,2,DL_Guitar,0.08006425946950912,0
59,100,0.35909090909090907,571,0,31,DL_Guitar,6,6,DL_Guitar,0.08341064304113388,0
59,100,0.2590909090909091,700,0,31,DL_Guitar,6,4,DL_Guitar,0.09934662282466888,0
52,100,0.1,822,0,31,DL_Guitar,6,2,DL_Guitar,0.09195646643638611,0
59,100,0.5,188,1,32,DL_Guitar,6,8,DL_Guitar,0.9997928738594055,1
54,100,0.1590909090909091,426,1,32,DL_Guitar,6,3,DL_Guitar,0.1429988294839859,0
54,100,0.2636363636363636,488,0,32,DL_Guitar,6,4,DL_Guitar,0.12318189442157745,0
59,100,0.1,593,0,32,DL_Guitar,6,2,DL_Guitar,0.13404960930347443,0
54,100,0.3409090909090909,691,0,32,DL_Guitar,6,5,DL_Guitar,0.14394205808639526,0
59,100,0.4772727272727273,831,0,32,DL_Guitar,6,8,DL_Guitar,0.12861858308315277,0
57,100,0.2409090909090909,118,1,33,DL_Guitar,6,4,DL_Guitar,0.9998300075531006,1
52,100,0.5181818181818182,308,0,33,DL_Guitar,6,8,DL_Guitar,0.2118111103773117,0
52,100,0.1590909090909091,453,0,33,DL_Guitar,6,3,DL_Guitar,0.20600168406963348,0
52,100,0.2,571,0,33,DL_Guitar,6,3,DL_Guitar,0.20385366678237915,0
69,100,0.12272727272727273,818,1,33,DL_Guitar,6,2,DL_Guitar,0.2010982185602188,0
69,100,0.2,69,1,34,DL_Guitar,6,3,DL_Guitar,0.9997984766960144,1
57,100,0.2,188,0,34,DL_Guitar,6,3,DL_Guitar,0.13297007977962494,0
57,100,0.22272727272727272,254,0,34,DL_Guitar,6,4,DL_Guitar,0.12596431374549866,0
52,100,0.2,480,0,34,DL_Guitar,6,3,DL_Guitar,0.1456398218870163,0
69,100,0.3,616,0,34,DL_Guitar,6,5,DL_Guitar,0.13752754032611847,0
57,100,1.0818181818181818,818,0,34,DL_Guitar,6,15,DL_Guitar,0.12675727903842926,0
57,100,0.5590909090909091,298,1,35,DL_Guitar,6,9,DL_Guitar,0.9998212456703186,1
52,100,0.3,488,0,35,DL_Guitar,6,5,DL_Guitar,0.23022598028182983,0
52,100,0.5772727272727273,558,0,35,DL_Guitar,6,9,DL_Guitar,0.1855347752571106,0
59,100,0.3181818181818182,735,0,35,DL_Guitar,6,5,DL_Guitar,0.2112625241279602,0
52,100,0.1409090909090909,826,0,35,DL_Guitar,6,2,DL_Guitar,0.20844373106956482,0
57,100,0.22272727272727272,4,1,36,DL_Guitar,6,4,DL_Guitar,0.9997143149375916,1
53,100,0.4818181818181818,66,0,36,DL_Guitar,6,8,DL_Guitar,0.05814439430832863,0
53,100,0.5409090909090909,179,0,36,DL_Guitar,6,9,DL_Guitar,0.04677034541964531,0
59,100,0.1590909090909091,325,0,36,DL_Guitar,6,3,DL_Guitar,0.05006144568324089,0
53,100,0.37727272727272726,435,0,36,DL_Guitar,6,6,DL_Guitar,0.05356878787279129,0
54,100,0.42272727272727273,554,0,36,DL_Guitar,6,7,DL_Guitar,0.06145762652158737,0
54,100,0.1409090909090909,813,1,36,DL_Guitar,6,2,DL_Guitar,0.0724085345864296,0
54,100,0.5409090909090909,871,0,36,DL_Guitar,6,9,DL_Guitar,0.060076646506786346,0
54,100,0.5409090909090909,179,1,37,DL_Guitar,6,9,DL_Guitar,0.9997928738594055,1
54,100,0.5,311,0,37,DL_Guitar,6,8,DL_Guitar,0.127799853682518,0
59,100,0.13636363636363635,523,0,37,DL_Guitar,6,2,DL_Guitar,0.12836283445358276,0
59,100,0.1409090909090909,584,0,37,DL_Guitar,6,2,DL_Guitar,0.13975128531455994,0
57,100,0.22272727272727272,628,0,37,DL_Guitar,6,4,DL_Guitar,0.1403188854455948,0
59,100,0.2,708,0,37,DL_Guitar,6,3,DL_Guitar,0.13932546973228455,0
59,100,0.2818181818181818,48,1,38,DL_Guitar,6,5,DL_Guitar,0.9998369216918945,1
59,100,0.2,198,0,38,DL_Guitar,6,3,DL_Guitar,0.21525652706623077,0
57,100,0.1590909090909091,260,0,38,DL_Guitar,6,3,DL_Guitar,0.19066357612609863,0
57,100,0.1590909090909091,571,1,38,DL_Guitar,6,3,DL_Guitar,0.209529846906662,0
69,100,0.3,606,0,38,DL_Guitar,6,5,DL_Guitar,0.2106494903564453,0
62,100,0.2,461,1,39,DL_Guitar,6,3,DL_Guitar,0.9996299743652344,1
57,100,0.5590909090909091,804,1,39,DL_Guitar,6,9,DL_Guitar,0.5377393364906311,0
52,100,0.8772727272727273,75,1,40,DL_Guitar,6,14,DL_Guitar,0.9998229146003723,1
52,100,0.13636363636363635,413,1,40,DL_Guitar,6,2,DL_Guitar,0.23366640508174896,0
52,100,0.17727272727272728,448,0,40,DL_Guitar,6,3,DL_Guitar,0.1970367133617401,0
65,100,0.2772727272727273,603,0,40,DL_Guitar,6,4,DL_Guitar,0.20192517340183258,0
53,100,0.6,681,0,40,DL_Guitar,6,10,DL_Guitar,0.20422151684761047,0
53,100,0.2636363636363636,48,1,41,DL_Guitar,6,4,DL_Guitar,0.9997368454933167,1
59,100,0.18181818181818182,224,0,41,DL_Guitar,6,3,DL_Guitar,0.05596664920449257,0
54,100,0.4772727272727273,316,0,41,DL_Guitar,6,8,DL_Guitar,0.04557229205965996,0
59,100,0.2590909090909091,435,0,41,DL_Guitar,6,4,DL_Guitar,0.049186836928129196,0
54,100,0.3,501,0,41,DL_Guitar,6,5,DL_Guitar,0.052833572030067444,0
54,100,0.2409090909090909,576,0,41,DL_Guitar,6,4,DL_Guitar,0.06078590080142021,0
54,100,0.2772727272727273,678,0,41,DL_Guitar,6,4,DL_Guitar,0.06675773113965988,0
54,100,0.4590909090909091,813,0,41,DL_Guitar,6,7,DL_Guitar,0.06285280734300613,0
59,100,0.2409090909090909,66,1,42,DL_Guitar,6,4,DL_Guitar,0.9997705817222595,1
62,100,0.2,128,0,42,DL_Guitar,6,3,DL_Guitar,0.0800933986902237,0
57,100,0.2,254,0,42,DL_Guitar,6,3,DL_Guitar,0.0719045028090477,0
52,100,0.4818181818181818,321,0,42,DL_Guitar,6,8,DL_Guitar,0.07862182706594467,0
59,100,0.2818181818181818,616,1,42,DL_Guitar,6,5,DL_Guitar,0.08800172805786133,0
52,100,0.16363636363636364,708,0,42,DL_Guitar,6,3,DL_Guitar,0.10211030393838882,0
52,100,0.11818181818181818,831,0,42,DL_Guitar,6,2,DL_Guitar,0.08347943425178528,0
57,100,0.2818181818181818,48,1,43,DL_Guitar,6,5,DL_Guitar,0.9998217225074768,1
69,100,0.3181818181818182,743,1,43,DL_Guitar,6,5,DL_Guitar,0.41141265630722046,0
57,100,0.5181818181818182,813,0,43,DL_Guitar,6,8,DL_Guitar,0.4282133877277374,0
64,100,0.1590909090909091,721,1,44,DL_Guitar,6,3,DL_Guitar,0.9998465776443481,1
64,100,0.35909090909090907,788,0,44,DL_Guitar,6,6,DL_Guitar,0.3917059898376465,0
64,100,0.32272727272727275,871,0,44,DL_Guitar,6,5,DL_Guitar,0.4241849184036255,0
53,100,0.12272727272727273,211,1,45,DL_Guitar,6,2,DL_Guitar,0.9998401403427124,1
65,100,0.18181818181818182,334,0,45,DL_Guitar,6,3,DL_Guitar,0.2136717438697815,0
54,100,0.36363636363636365,686,1,45,DL_Guitar,6,6,DL_Guitar,0.19264541566371918,0
54,100,0.23636363636363636,810,0,45,DL_Guitar,6,4,DL_Guitar,0.208101287484169,0
66,100,0.1409090909090909,866,0,45,DL_Guitar,6,2,DL_Guitar,0.20204392075538635,0
62,100,0.3181818181818182,668,1,46,DL_Guitar,6,5,DL_Guitar,0.9996341466903687,1
52,100,0.2818181818181818,826,0,46,DL_Guitar,6,5,DL_Guitar,0.5535104274749756,0
52,100,0.12272727272727273,13,1,47,DL_Guitar,6,2,DL_Guitar,0.9998615980148315,1
52,100,0.4409090909090909,43,0,47,DL_Guitar,6,7,DL_Guitar,0.31224358081817627,0
52,100,0.5818181818181818,179,0,47,DL_Guitar,6,9,DL_Guitar,0.28874149918556213,0
53,100,1.240909090909091,426,1,47,DL_Guitar,6,15,DL_Guitar,0.29498767852783203,0
54,100,0.42272727272727273,48,1,48,DL_Guitar,6,7,DL_Guitar,0.9998219609260559,1
61,100,0.2,163,0,48,DL_Guitar,6,3,DL_Guitar,0.4189111888408661,0
61,100,0.4818181818181818,440,1,48,DL_Guitar,6,8,DL_Guitar,0.42525994777679443,0
62,100,0.4,34,1,49,DL_Guitar,6,6,DL_Guitar,0.9998281002044678,1
52,100,1.3590909090909091,176,0,49,DL_Guitar,6,15,DL_Guitar,0.19351792335510254,0
52,100,0.2,480,1,49,DL_Guitar,6,3,DL_Guitar,0.24337345361709595,0
52,100,0.1590909090909091,638,0,49,DL_Guitar,6,3,DL_Guitar,0.22100184857845306,0
53,100,1.6363636363636365,678,0,49,DL_Guitar,6,15,DL_Guitar,0.18727053701877594,0
54,100,0.23636363636363636,303,1,50,DL_Guitar,6,4,DL_Guitar,0.9998286962509155,1
61,100,0.2409090909090909,440,0,50,DL_Guitar,6,4,DL_Guitar,0.21249961853027344,0
61,100,0.4818181818181818,571,0,50,DL_Guitar,6,8,DL_Guitar,0.187737375497818,0
61,100,0.3,691,0,50,DL_Guitar,6,5,DL_Guitar,0.2205704152584076,0
57,100,0.13636363636363635,788,0,50,DL_Guitar,6,2,DL_Guitar,0.20995324850082397,0
52,100,0.5,431,1,51,DL_Guitar,6,8,DL_Guitar,0.9998382329940796,1
52,100,0.1,545,0,51,DL_Guitar,6,2,DL_Guitar,0.4150010943412781,0
52,100,0.11818181818181818,691,0,51,DL_Guitar,6,2,DL_Guitar,0.42207932472229004,0
54,100,0.1590909090909091,0,1,52,DL_Guitar,6,3,DL_Guitar,0.9998064637184143,1
54,100,0.1,56,0,52,DL_Guitar,6,2,DL_Guitar,0.13541771471500397,0
61,100,0.7,91,0,52,DL_Guitar,6,11,DL_Guitar,0.11699461191892624,0
54,100,0.3,254,0,52,DL_Guitar,6,5,DL_Guitar,0.15247473120689392,0
54,100,0.1,325,0,52,DL_Guitar,6,2,DL_Guitar,0.15195304155349731,0
61,100,2.640909090909091,426,0,52,DL_Guitar,6,15,DL_Guitar,0.1204836517572403,0
57,100,1.440909090909091,158,1,53,DL_Guitar,6,15,DL_Guitar,0.9994269609451294,1
52,100,2.1,681,1,53,DL_Guitar,6,15,DL_Guitar,0.5622178316116333,0
52,100,0.11818181818181818,303,1,54,DL_Guitar,6,2,DL_Guitar,0.9934820532798767,0
57,100,0.18181818181818182,418,1,55,DL_Guitar,6,3,DL_Guitar,0.9998356103897095,1
57,100,0.1409090909090909,518,0,55,DL_Guitar,6,2,DL_Guitar,0.20866703987121582,0
57,100,0.37727272727272726,558,0,55,DL_Guitar,6,6,DL_Guitar,0.19139567017555237,0
57,100,0.21818181818181817,660,0,55,DL_Guitar,6,3,DL_Guitar,0.21839337050914764,0
57,100,0.38181818181818183,726,0,55,DL_Guitar,6,6,DL_Guitar,0.20289121568202972,0
57,100,0.2409090909090909,625,1,56,DL_Guitar,6,4,DL_Guitar,0.9996201992034912,1
57,100,0.4818181818181818,703,0,56,DL_Guitar,6,8,DL_Guitar,0.5411243438720703,0
57,100,0.22272727272727272,4,1,57,DL_Guitar,6,4,DL_Guitar,0.9997507929801941,1
57,100,0.4,91,0,57,DL_Guitar,6,6,DL_Guitar,0.08037861436605453,0
57,100,0.4818181818181818,330,1,57,DL_Guitar,6,8,DL_Guitar,0.07554987818002701,0
57,100,0.2590909090909091,453,0,57,DL_Guitar,6,4,DL_Guitar,0.0841546580195427,0
69,100,0.1409090909090909,531,0,57,DL_Guitar,6,2,DL_Guitar,0.0947091355919838,0
61,100,0.5,691,0,57,DL_Guitar,6,8,DL_Guitar,0.09744469821453094,0
59,100,0.6,810,0,57,DL_Guitar,6,10,DL_Guitar,0.09184140712022781,0
59,100,0.18181818181818182,153,1,58,DL_Guitar,6,3,DL_Guitar,0.9998564720153809,1
59,100,0.1,215,0,58,DL_Guitar,6,2,DL_Guitar,0.31348487734794617,0
52,100,0.4409090909090909,330,0,58,DL_Guitar,6,7,DL_Guitar,0.29539936780929565,0
52,100,0.11818181818181818,536,0,58,DL_Guitar,6,2,DL_Guitar,0.30680063366889954,0
61,100,0.1409090909090909,48,1,59,DL_Guitar,6,2,DL_Guitar,0.9998351335525513,1
61,100,0.3,110,0,59,DL_Guitar,6,5,DL_Guitar,0.401505708694458,0
57,100,0.1409090909090909,770,1,59,DL_Guitar,6,2,DL_Guitar,0.4269081652164459,0
57,100,0.11818181818181818,330,1,60,DL_Guitar,6,2,DL_Guitar,0.9998296499252319,1
61,100,0.5636363636363636,421,0,60,DL_Guitar,6,9,DL_Guitar,0.39763689041137695,0
61,100,0.3181818181818182,678,1,60,DL_Guitar,6,5,DL_Guitar,0.4326595664024353,0
57,100,0.4636363636363636,444,1,61,DL_Guitar,6,7,DL_Guitar,0.9998118281364441,1
54,100,0.35909090909090907,550,0,61,DL_Guitar,6,6,DL_Guitar,0.4298953115940094,0
57,100,0.13636363636363635,633,0,61,DL_Guitar,6,2,DL_Guitar,0.4297865331172943,0
57,100,0.11818181818181818,316,1,62,DL_Guitar,6,2,DL_Guitar,0.999852180480957,1
57,100,0.1,471,0,62,DL_Guitar,6,2,DL_Guitar,0.31254062056541443,0
57,100,0.18181818181818182,628,0,62,DL_Guitar,6,3,DL_Guitar,0.2944142818450928,0
59,100,0.4590909090909091,810,0,62,DL_Guitar,6,7,DL_Guitar,0.3055243194103241,0
61,100,0.13636363636363635,171,1,63,DL_Guitar,6,2,DL_Guitar,0.9997301697731018,1
59,100,0.35909090909090907,316,0,63,DL_Guitar,6,6,DL_Guitar,0.05445948988199234,0
57,100,0.2409090909090909,431,0,63,DL_Guitar,6,4,DL_Guitar,0.04843989387154579,0
54,100,0.1,691,1,63,DL_Guitar,6,2,DL_Guitar,0.0485648550093174,0
54,100,0.17727272727272728,721,0,63,DL_Guitar,6,3,DL_Guitar,0.052878450602293015,0
57,100,0.12272727272727273,774,0,63,DL_Guitar,6,2,DL_Guitar,0.05804114788770676,0
54,100,0.11818181818181818,813,0,63,DL_Guitar,6,2,DL_Guitar,0.06846048682928085,0
54,100,0.12272727272727273,848,0,63,DL_Guitar,6,2,DL_Guitar,0.05999329313635826,0
57,100,0.1590909090909091,0,1,64,DL_Guitar,6,3,DL_Guitar,0.9998167157173157,1
57,100,0.7181818181818181,550,1,64,DL_Guitar,6,11,DL_Guitar,0.4034218490123749,0
57,100,0.4,849,1,64,DL_Guitar,6,6,DL_Guitar,0.43470898270606995,0
57,100,0.2409090909090909,66,1,65,DL_Guitar,6,4,DL_Guitar,0.9998252987861633,1
59,100,0.8363636363636363,172,0,65,DL_Guitar,6,13,DL_Guitar,0.3869090676307678,0
61,100,0.2409090909090909,404,1,65,DL_Guitar,6,4,DL_Guitar,0.444551557302475,0
59,100,0.8590909090909091,426,1,66,DL_Guitar,6,14,DL_Guitar,0.9998096823692322,1
69,100,0.1,796,1,66,DL_Guitar,6,2,DL_Guitar,0.4440137445926666,0
62,100,0.12272727272727273,849,0,66,DL_Guitar,6,2,DL_Guitar,0.4272758662700653,0
62,100,0.1590909090909091,0,1,67,DL_Guitar,6,3,DL_Guitar,0.9997074007987976,1
64,100,0.5181818181818182,40,0,67,DL_Guitar,6,8,DL_Guitar,0.041256893426179886,0
64,100,0.3409090909090909,176,0,67,DL_Guitar,6,5,DL_Guitar,0.03421389311552048,0
52,100,0.37727272727272726,436,1,67,DL_Guitar,6,6,DL_Guitar,0.030409913510084152,0
52,100,0.17727272727272728,546,0,67,DL_Guitar,6,3,DL_Guitar,0.03092329390347004,0
52,100,0.1590909090909091,603,0,67,DL_Guitar,6,3,DL_Guitar,0.03381979838013649,0
52,100,0.13636363636363635,656,0,67,DL_Guitar,6,2,DL_Guitar,0.04073597490787506,0
52,100,0.3409090909090909,690,0,67,DL_Guitar,6,5,DL_Guitar,0.04615432396531105,0
52,100,0.38181818181818183,849,0,67,DL_Guitar,6,6,DL_Guitar,0.0452706515789032,0
52,100,0.2,233,1,68,DL_Guitar,6,3,DL_Guitar,0.9998378753662109,1
52,100,0.37727272727272726,294,0,68,DL_Guitar,6,6,DL_Guitar,0.4055527150630951,0
59,100,0.13636363636363635,457,0,68,DL_Guitar,6,2,DL_Guitar,0.42098307609558105,0
57,100,0.4,189,1,69,DL_Guitar,6,6,DL_Guitar,0.9998243451118469,1
52,100,0.2,686,1,69,DL_Guitar,6,3,DL_Guitar,0.43549928069114685,0
52,100,0.1590909090909091,832,0,69,DL_Guitar,6,3,DL_Guitar,0.4227783679962158,0
52,100,0.2590909090909091,56,1,70,DL_Guitar,6,4,DL_Guitar,0.9998111128807068,1
59,100,0.1409090909090909,140,0,70,DL_Guitar,6,2,DL_Guitar,0.11845757067203522,0
53,100,0.5818181818181818,307,0,70,DL_Guitar,6,9,DL_Guitar,0.11137489974498749,0
53,100,0.1590909090909091,453,0,70,DL_Guitar,6,3,DL_Guitar,0.1435191035270691,0
53,100,0.1409090909090909,642,0,70,DL_Guitar,6,2,DL_Guitar,0.14546674489974976,0
56,100,0.11818181818181818,734,0,70,DL_Guitar,6,2,DL_Guitar,0.1327601820230484,0
61,100,0.11818181818181818,153,1,71,DL_Guitar,6,2,DL_Guitar,0.9998378753662109,1
57,100,0.1590909090909091,673,1,71,DL_Guitar,6,3,DL_Guitar,0.40238845348358154,0
57,100,0.2,823,0,71,DL_Guitar,6,3,DL_Guitar,0.4236893355846405,0
57,100,0.1590909090909091,9,1,72,DL_Guitar,6,3,DL_Guitar,0.9998388290405273,1
59,100,1.059090909090909,193,0,72,DL_Guitar,6,15,DL_Guitar,0.29019084572792053,0
69,100,0.21818181818181817,502,1,72,DL_Guitar,6,3,DL_Guitar,0.3254443109035492,0
57,100,0.33636363636363636,743,1,72,DL_Guitar,6,5,DL_Guitar,0.3168945610523224,0
61,100,0.11818181818181818,514,1,73,DL_Guitar,6,2,DL_Guitar,0.9998291730880737,1
61,100,0.42272727272727273,585,0,73,DL_Guitar,6,7,DL_Guitar,0.4002556800842285,0
57,100,0.3409090909090909,870,1,73,DL_Guitar,6,5,DL_Guitar,0.42823106050491333,0
57,100,0.21818181818181817,132,1,74,DL_Guitar,6,3,DL_Guitar,0.9998013377189636,1
57,100,0.2772727272727273,237,0,74,DL_Guitar,6,4,DL_Guitar,0.12597092986106873,0
52,100,0.2590909090909091,559,1,74,DL_Guitar,6,4,DL_Guitar,0.12241362035274506,0
52,100,0.18181818181818182,619,0,74,DL_Guitar,6,3,DL_Guitar,0.1375436782836914,0
64,100,0.18181818181818182,682,0,74,DL_Guitar,6,3,DL_Guitar,0.14254775643348694,0
59,100,0.2818181818181818,726,0,74,DL_Guitar,6,5,DL_Guitar,0.1247200071811676,0
61,100,0.1,17,1,75,DL_Guitar,6,2,DL_Guitar,0.999832272529602,1
53,100,1.1409090909090909,47,0,75,DL_Guitar,6,15,DL_Guitar,0.17410576343536377,0
61,100,0.6409090909090909,316,1,75,DL_Guitar,6,10,DL_Guitar,0.21409624814987183,0
61,100,0.12272727272727273,606,1,75,DL_Guitar,6,2,DL_Guitar,0.2289920449256897,0
61,100,0.3,739,0,75,DL_Guitar,6,5,DL_Guitar,0.21082617342472076,0
59,100,0.17727272727272728,9,1,76,DL_Guitar,6,3,DL_Guitar,0.9998373985290527,1
52,100,0.18181818181818182,550,1,76,DL_Guitar,6,3,DL_Guitar,0.2178601622581482,0
52,100,0.1409090909090909,739,0,76,DL_Guitar,6,2,DL_Guitar,0.19453121721744537,0
52,100,0.16363636363636364,773,0,76,DL_Guitar,6,3,DL_Guitar,0.19863662123680115,0
59,100,0.21818181818181817,813,0,76,DL_Guitar,6,3,DL_Guitar,0.1948307901620865,0
59,100,0.3,176,1,77,DL_Guitar,6,5,DL_Guitar,0.9998251795768738,1
59,100,0.5590909090909091,307,0,77,DL_Guitar,6,9,DL_Guitar,0.1995994597673416,0
64,100,0.18181818181818182,440,0,77,DL_Guitar,6,3,DL_Guitar,0.22071035206317902,0
59,100,0.17727272727272728,502,0,77,DL_Guitar,6,3,DL_Guitar,0.20669974386692047,0
59,100,0.4409090909090909,559,0,77,DL_Guitar,6,7,DL_Guitar,0.2043507844209671,0
57,100,0.3,289,1,78,DL_Guitar,6,5,DL_Guitar,0.9928298592567444,0
65,100,0.1409090909090909,449,1,79,DL_Guitar,6,2,DL_Guitar,0.9998112320899963,1
65,100,0.18181818181818182,550,0,79,DL_Guitar,6,3,DL_Guitar,0.12678030133247375,0
65,100,0.2,597,0,79,DL_Guitar,6,3,DL_Guitar,0.11796557903289795,0
65,100,0.6636363636363637,663,0,79,DL_Guitar,6,11,DL_Guitar,0.12846426665782928,0
65,100,0.1409090909090909,813,0,79,DL_Guitar,6,2,DL_Guitar,0.15336425602436066,0
65,100,0.5227272727272727,849,0,79,DL_Guitar,6,8,DL_Guitar,0.12379702180624008,0
59,100,0.2,246,1,80,DL_Guitar,6,3,DL_Guitar,0.9998549222946167,1
59,100,0.17727272727272728,294,0,80,DL_Guitar,6,3,DL_Guitar,0.32314532995224,0
59,100,0.2,496,0,80,DL_Guitar,6,3,DL_Guitar,0.28991955518722534,0
52,100,0.2772727272727273,722,0,80,DL_Guitar,6,4,DL_Guitar,0.30965515971183777,0
52,100,0.6227272727272727,47,1,81,DL_Guitar,6,10,DL_Guitar,0.9995505213737488,1
61,100,1.7818181818181817,263,0,81,DL_Guitar,6,15,DL_Guitar,0.5296853184700012,0
57,100,0.2590909090909091,127,1,82,DL_Guitar,6,4,DL_Guitar,0.9998371601104736,1
57,100,0.2409090909090909,263,0,82,DL_Guitar,6,4,DL_Guitar,0.3374786972999573,0
57,100,0.1,320,0,82,DL_Guitar,6,2,DL_Guitar,0.30159661173820496,0
57,100,0.759090909090909,440,0,82,DL_Guitar,6,12,DL_Guitar,0.2985606789588928,0
57,100,0.12272727272727273,13,1,83,DL_Guitar,6,2,DL_Guitar,0.9998308420181274,1
57,100,0.2,303,1,83,DL_Guitar,6,3,DL_Guitar,0.39959967136383057,0
52,100,0.1,857,1,83,DL_Guitar,6,2,DL_Guitar,0.43649718165397644,0
61,100,0.3,197,1,84,DL_Guitar,6,5,DL_Guitar,0.9998427629470825,1
61,100,1.0,347,0,84,DL_Guitar,6,15,DL_Guitar,0.29180094599723816,0
61,100,0.5227272727272727,707,1,84,DL_Guitar,6,8,DL_Guitar,0.31643229722976685,0
61,100,0.38181818181818183,836,0,84,DL_Guitar,6,6,DL_Guitar,0.3213009536266327,0
52,100,0.4818181818181818,166,1,85,DL_Guitar,6,8,DL_Guitar,0.999800980091095,1
52,100,0.6,286,0,85,DL_Guitar,6,10,DL_Guitar,0.1268392652273178,0
52,100,0.3,422,0,85,DL_Guitar,6,5,DL_Guitar,0.1243526041507721,0
52,100,0.35909090909090907,603,0,85,DL_Guitar,6,6,DL_Guitar,0.13458330929279327,0
59,100,0.32272727272727275,729,0,85,DL_Guitar,6,5,DL_Guitar,0.1416262984275818,0
59,100,0.18181818181818182,817,0,85,DL_Guitar,6,3,DL_Guitar,0.13238964974880219,0
64,100,0.2409090909090909,113,1,86,DL_Guitar,6,4,DL_Guitar,0.9998142123222351,1
59,100,0.42272727272727273,202,0,86,DL_Guitar,6,7,DL_Guitar,0.11914826929569244,0
57,100,0.1409090909090909,493,1,86,DL_Guitar,6,2,DL_Guitar,0.1294807642698288,0
57,100,0.35909090909090907,527,0,86,DL_Guitar,6,6,DL_Guitar,0.13186050951480865,0
57,100,0.2772727272727273,624,0,86,DL_Guitar,6,4,DL_Guitar,0.15440183877944946,0
57,100,1.1590909090909092,813,0,86,DL_Guitar,6,15,DL_Guitar,0.13243946433067322,0
57,100,0.2409090909090909,250,1,87,DL_Guitar,6,4,DL_Guitar,0.9930496215820312,0
59,100,0.1409090909090909,506,1,90,DL_Guitar,6,2,DL_Guitar,0.9998338222503662,1
59,100,0.1,646,0,90,DL_Guitar,6,2,DL_Guitar,0.40793436765670776,0
59,100,0.4590909090909091,823,0,90,DL_Guitar,6,7,DL_Guitar,0.41996270418167114,0
59,100,0.5,79,1,91,DL_Guitar,6,8,DL_Guitar,0.999823272228241,1
52,100,0.17727272727272728,316,1,91,DL_Guitar,6,3,DL_Guitar,0.43485790491104126,0
52,100,0.4,817,1,91,DL_Guitar,6,6,DL_Guitar,0.42179495096206665,0
57,100,0.22272727272727272,100,1,92,DL_Guitar,6,4,DL_Guitar,0.9997652173042297,1
66,100,0.18181818181818182,197,0,92,DL_Guitar,6,3,DL_Guitar,0.08188475668430328,0
55,100,0.11818181818181818,426,0,92,DL_Guitar,6,2,DL_Guitar,0.07472951710224152,0
55,100,0.11818181818181818,480,0,92,DL_Guitar,6,2,DL_Guitar,0.07904917001724243,0
56,100,0.1409090909090909,506,0,92,DL_Guitar,6,2,DL_Guitar,0.09009578824043274,0
52,100,0.4,572,0,92,DL_Guitar,6,6,DL_Guitar,0.09334412962198257,0
59,100,0.32272727272727275,707,0,92,DL_Guitar,6,5,DL_Guitar,0.08322232961654663,0
64,100,0.16363636363636364,3,1,93,DL_Guitar,6,3,DL_Guitar,0.9998431205749512,1
59,100,0.11818181818181818,150,0,93,DL_Guitar,6,2,DL_Guitar,0.20033319294452667,0
65,100,0.4590909090909091,320,0,93,DL_Guitar,6,7,DL_Guitar,0.1899864673614502,0
65,100,0.2772727272727273,426,0,93,DL_Guitar,6,4,DL_Guitar,0.21501420438289642,0
57,100,0.5181818181818182,844,1,93,DL_Guitar,6,8,DL_Guitar,0.1944589614868164,0
59,100,0.3181818181818182,813,1,94,DL_Guitar,6,5,DL_Guitar,0.9932971596717834,0
59,100,0.32272727272727275,92,1,95,DL_Guitar,6,5,DL_Guitar,0.9996163845062256,1
59,100,0.1409090909090909,223,0,95,DL_Guitar,6,2,DL_Guitar,0.5561642646789551,0
54,100,0.1590909090909091,53,1,96,DL_Guitar,6,3,DL_Guitar,0.999606192111969,1
57,100,0.6181818181818182,734,1,96,DL_Guitar,6,10,DL_Guitar,0.5415828227996826,0
57,100,0.21818181818181817,0,1,97,DL_Guitar,6,3,DL_Guitar,0.9998443126678467,1
59,100,0.4818181818181818,189,0,97,DL_Guitar,6,8,DL_Guitar,0.3275149464607239,0
64,100,0.11818181818181818,493,1,97,DL_Guitar,6,2,DL_Guitar,0.3176456093788147,0
57,100,0.8409090909090909,823,1,97,DL_Guitar,6,13,DL_Guitar,0.2891322374343872,0
57,100,0.12272727272727273,157,1,98,DL_Guitar,6,2,DL_Guitar,0.993175208568573,0
57,100,0.2409090909090909,443,1,100,DL_Guitar,6,4,DL_Guitar,0.999848484992981,1
57,100,0.2409090909090909,563,0,100,DL_Guitar,6,4,DL_Guitar,0.30453214049339294,0
57,100,0.2,633,0,100,DL_Guitar,6,3,DL_Guitar,0.30147844552993774,0
59,100,0.5590909090909091,810,0,100,DL_Guitar,6,9,DL_Guitar,0.30114349722862244,0
59,100,0.11818181818181818,83,1,101,DL_Guitar,6,2,DL_Guitar,0.9997979998588562,1
59,100,0.4,153,0,101,DL_Guitar,6,6,DL_Guitar,0.12414807826280594,0
59,100,0.2,260,0,101,DL_Guitar,6,3,DL_Guitar,0.12061017006635666,0
59,100,0.5227272727272727,430,0,101,DL_Guitar,6,8,DL_Guitar,0.13633443415164948,0
53,100,0.3,677,1,101,DL_Guitar,6,5,DL_Guitar,0.15168291330337524,0
59,100,0.2,756,0,101,DL_Guitar,6,3,DL_Guitar,0.1387503743171692,0
57,100,0.4772727272727273,193,1,102,DL_Guitar,6,8,DL_Guitar,0.9998356103897095,1
57,100,0.18181818181818182,597,1,102,DL_Guitar,6,3,DL_Guitar,0.340047150850296,0
57,100,0.4636363636363636,707,0,102,DL_Guitar,6,7,DL_Guitar,0.2891765236854553,0
57,100,0.1,839,0,102,DL_Guitar,6,2,DL_Guitar,0.3201853036880493,0
57,100,0.12272727272727273,35,1,103,DL_Guitar,6,2,DL_Guitar,0.9998512268066406,1
59,100,0.5181818181818182,184,0,103,DL_Guitar,6,8,DL_Guitar,0.3046678602695465,0
59,100,0.7227272727272728,312,0,103,DL_Guitar,6,12,DL_Guitar,0.2878299057483673,0
52,100,0.13636363636363635,502,0,103,DL_Guitar,6,2,DL_Guitar,0.32937315106391907,0
57,100,0.1,282,1,104,DL_Guitar,6,2,DL_Guitar,0.9996992349624634,1
57,100,0.18181818181818182,466,0,104,DL_Guitar,6,3,DL_Guitar,0.044207070022821426,0
57,100,0.1,514,0,104,DL_Guitar,6,2,DL_Guitar,0.03268038481473923,0
57,100,0.2590909090909091,540,0,104,DL_Guitar,6,4,DL_Guitar,0.029808638617396355,0
57,100,0.11818181818181818,616,0,104,DL_Guitar,6,2,DL_Guitar,0.030344689264893532,0
57,100,0.2409090909090909,682,0,104,DL_Guitar,6,4,DL_Guitar,0.034337449818849564,0
57,100,0.1,743,0,104,DL_Guitar,6,2,DL_Guitar,0.04079343378543854,0
57,100,0.1590909090909091,770,0,104,DL_Guitar,6,3,DL_Guitar,0.047011230140924454,0
57,100,0.1,813,0,104,DL_Guitar,6,2,DL_Guitar,0.047356996685266495,0
57,100,0.11818181818181818,9,1,105,DL_Guitar,6,2,DL_Guitar,0.9931146502494812,0
57,100,0.18181818181818182,356,1,0,DL_JapaneseFolk_Guitar,6,3,DL_JapaneseFolk_Guitar,0.9998518228530884,1
61,100,0.17727272727272728,524,0,0,DL_JapaneseFolk_Guitar,6,3,DL_JapaneseFolk_Guitar,0.3240136504173279,0
54,100,0.18181818181818182,717,0,0,DL_JapaneseFolk_Guitar,6,3,DL_JapaneseFolk_Guitar,0.2950856387615204,0
52,100,0.2590909090909091,849,0,0,DL_JapaneseFolk_Guitar,6,4,DL_JapaneseFolk_Guitar,0.30301564931869507,0
57,100,0.3181818181818182,30,1,1,DL_JapaneseFolk_Guitar,6,5,DL_JapaneseFolk_Guitar,0.9997947812080383,1
59,100,0.37727272727272726,149,0,1,DL_JapaneseFolk_Guitar,6,6,DL_JapaneseFolk_Guitar,0.13141529262065887,0
59,100,0.2409090909090909,290,0,1,DL_JapaneseFolk_Guitar,6,4,DL_JapaneseFolk_Guitar,0.12177316099405289,0
57,100,0.2772727272727273,479,0,1,DL_JapaneseFolk_Guitar,6,4,DL_JapaneseFolk_Guitar,0.13825999200344086,0
57,100,0.7,673,0,1,DL_JapaneseFolk_Guitar,6,11,DL_JapaneseFolk_Guitar,0.1371530145406723,0
54,100,0.3,866,0,1,DL_JapaneseFolk_Guitar,6,5,DL_JapaneseFolk_Guitar,0.14370065927505493,0
52,100,0.5590909090909091,57,1,2,DL_JapaneseFolk_Guitar,6,9,DL_JapaneseFolk_Guitar,0.9998200535774231,1
57,100,0.2818181818181818,180,0,2,DL_JapaneseFolk_Guitar,6,5,DL_JapaneseFolk_Guitar,0.21500606834888458,0
57,100,0.2590909090909091,633,1,2,DL_JapaneseFolk_Guitar,6,4,DL_JapaneseFolk_Guitar,0.20265120267868042,0
59,100,0.2590909090909091,703,0,2,DL_JapaneseFolk_Guitar,6,4,DL_JapaneseFolk_Guitar,0.21075858175754547,0
57,100,0.740909090909091,822,0,2,DL_JapaneseFolk_Guitar,6,12,DL_JapaneseFolk_Guitar,0.20305977761745453,0
54,100,0.1409090909090909,144,1,3,DL_JapaneseFolk_Guitar,6,2,DL_JapaneseFolk_Guitar,0.9998369216918945,1
57,100,0.9,201,0,3,DL_JapaneseFolk_Guitar,6,14,DL_JapaneseFolk_Guitar,0.18544091284275055,0
52,100,0.2409090909090909,466,1,3,DL_JapaneseFolk_Guitar,6,4,DL_JapaneseFolk_Guitar,0.22257240116596222,0
52,100,0.1590909090909091,611,0,3,DL_JapaneseFolk_Guitar,6,3,DL_JapaneseFolk_Guitar,0.20368897914886475,0
52,100,0.11818181818181818,788,0,3,DL_JapaneseFolk_Guitar,6,2,DL_JapaneseFolk_Guitar,0.20375043153762817,0
59,100,0.6409090909090909,91,1,4,DL_JapaneseFolk_Guitar,6,10,DL_JapaneseFolk_Guitar,0.9997814297676086,1
56,100,0.2,307,0,4,DL_JapaneseFolk_Guitar,6,3,DL_JapaneseFolk_Guitar,0.13535255193710327,0
64,100,0.21818181818181817,373,0,4,DL_JapaneseFolk_Guitar,6,3,DL_JapaneseFolk_Guitar,0.1278785765171051,0
52,100,0.22272727272727272,421,0,4,DL_JapaneseFolk_Guitar,6,4,DL_JapaneseFolk_Guitar,0.13651913404464722,0
59,100,0.1409090909090909,509,0,4,DL_JapaneseFolk_Guitar,6,2,DL_JapaneseFolk_Guitar,0.14139369130134583,0
59,100,0.6590909090909091,637,0,4,DL_JapaneseFolk_Guitar,6,11,DL_JapaneseFolk_Guitar,0.12779055535793304,0
61,100,0.1590909090909091,128,1,5,DL_JapaneseFolk_Guitar,6,3,DL_JapaneseFolk_Guitar,0.9998080134391785,1
57,100,0.740909090909091,242,0,5,DL_JapaneseFolk_Guitar,6,12,DL_JapaneseFolk_Guitar,0.11418309062719345,0
52,100,0.1590909090909091,452,0,5,DL_JapaneseFolk_Guitar,6,3,DL_JapaneseFolk_Guitar,0.14144515991210938,0
52,100,0.3409090909090909,496,0,5,DL_JapaneseFolk_Guitar,6,5,DL_JapaneseFolk_Guitar,0.13540378212928772,0
52,100,0.38181818181818183,761,1,5,DL_JapaneseFolk_Guitar,6,6,DL_JapaneseFolk_Guitar,0.14354002475738525,0
57,100,0.5181818181818182,844,0,5,DL_JapaneseFolk_Guitar,6,8,DL_JapaneseFolk_Guitar,0.1245238184928894,0
57,100,0.4,207,1,6,DL_JapaneseFolk_Guitar,6,6,DL_JapaneseFolk_Guitar,0.9998444318771362,1
52,100,0.1,307,0,6,DL_JapaneseFolk_Guitar,6,2,DL_JapaneseFolk_Guitar,0.3381289839744568,0
57,100,0.8772727272727273,391,0,6,DL_JapaneseFolk_Guitar,6,14,DL_JapaneseFolk_Guitar,0.2708531618118286,0
52,100,0.6181818181818182,593,0,6,DL_JapaneseFolk_Guitar,6,10,DL_JapaneseFolk_Guitar,0.3251893222332001,0
57,100,0.3181818181818182,40,1,7,DL_JapaneseFolk_Guitar,6,5,DL_JapaneseFolk_Guitar,0.9998130202293396,1
52,100,0.2590909090909091,110,0,7,DL_JapaneseFolk_Guitar,6,4,DL_JapaneseFolk_Guitar,0.4385131001472473,0
57,100,0.3181818181818182,545,1,7,DL_JapaneseFolk_Guitar,6,5,DL_JapaneseFolk_Guitar,0.41822677850723267,0
59,100,0.36363636363636365,180,1,8,DL_JapaneseFolk_Guitar,6,6,DL_JapaneseFolk_Guitar,0.9927573204040527,0
57,100,0.23636363636363636,17,1,9,DL_JapaneseFolk_Guitar,6,4,DL_JapaneseFolk_Guitar,0.9998247027397156,1
62,100,0.3181818181818182,646,1,9,DL_JapaneseFolk_Guitar,6,5,DL_JapaneseFolk_Guitar,0.4170014560222626,0
57,100,0.5590909090909091,876,0,9,DL_JapaneseFolk_Guitar,6,9,DL_JapaneseFolk_Guitar,0.42269980907440186,0
62,100,0.5409090909090909,233,1,10,DL_JapaneseFolk_Guitar,6,9,DL_JapaneseFolk_Guitar,0.9998409748077393,1
57,100,0.2818181818181818,355,0,10,DL_JapaneseFolk_Guitar,6,5,DL_JapaneseFolk_Guitar,0.32835397124290466,0
62,100,0.11818181818181818,470,0,10,DL_JapaneseFolk_Guitar,6,2,DL_JapaneseFolk_Guitar,0.30854928493499756,0
52,100,0.3,818,1,10,DL_JapaneseFolk_Guitar,6,5,DL_JapaneseFolk_Guitar,0.30967646837234497,0
56,100,0.7,395,1,11,DL_JapaneseFolk_Guitar,6,11,DL_JapaneseFolk_Guitar,0.9925031661987305,0
66,100,0.12272727272727273,79,1,12,DL_JapaneseFolk_Guitar,6,2,DL_JapaneseFolk_Guitar,0.9998086094856262,1
66,100,0.1409090909090909,110,0,12,DL_JapaneseFolk_Guitar,6,2,DL_JapaneseFolk_Guitar,0.12567059695720673,0
69,100,0.2636363636363636,202,0,12,DL_JapaneseFolk_Guitar,6,4,DL_JapaneseFolk_Guitar,0.11781149357557297,0
57,100,0.35909090909090907,259,0,12,DL_JapaneseFolk_Guitar,6,6,DL_JapaneseFolk_Guitar,0.1355597823858261,0
56,100,0.1409090909090909,488,0,12,DL_JapaneseFolk_Guitar,6,2,DL_JapaneseFolk_Guitar,0.15388332307338715,0
68,100,0.2409090909090909,730,1,12,DL_JapaneseFolk_Guitar,6,4,DL_JapaneseFolk_Guitar,0.1298029124736786,0
71,100,0.2818181818181818,355,1,13,DL_JapaneseFolk_Guitar,6,5,DL_JapaneseFolk_Guitar,0.9998326301574707,1
56,100,0.18181818181818182,440,0,13,DL_JapaneseFolk_Guitar,6,3,DL_JapaneseFolk_Guitar,0.21972788870334625,0
57,100,0.2590909090909091,625,0,13,DL_JapaneseFolk_Guitar,6,4,DL_JapaneseFolk_Guitar,0.19582754373550415,0
56,100,0.2,818,0,13,DL_JapaneseFolk_Guitar,6,3,DL_JapaneseFolk_Guitar,0.20843808352947235,0
64,100,0.2772727272727273,876,0,13,DL_JapaneseFolk_Guitar,6,4,DL_JapaneseFolk_Guitar,0.20794014632701874,0
56,100,0.17727272727272728,75,1,14,DL_JapaneseFolk_Guitar,6,3,DL_JapaneseFolk_Guitar,0.9998379945755005,1
57,100,0.2409090909090909,448,1,14,DL_JapaneseFolk_Guitar,6,4,DL_JapaneseFolk_Guitar,0.20107898116111755,0
62,100,0.2409090909090909,510,0,14,DL_JapaneseFolk_Guitar,6,4,DL_JapaneseFolk_Guitar,0.201262965798378,0
57,100,0.32272727272727275,642,0,14,DL_JapaneseFolk_Guitar,6,5,DL_JapaneseFolk_Guitar,0.20237688720226288,0
52,100,0.1409090909090909,770,0,14,DL_JapaneseFolk_Guitar,6,2,DL_JapaneseFolk_Guitar,0.21005471050739288,0
71,100,0.2,140,1,15,DL_JapaneseFolk_Guitar,6,3,DL_JapaneseFolk_Guitar,0.9997995495796204,1
57,100,0.12272727272727273,189,0,15,DL_JapaneseFolk_Guitar,6,2,DL_JapaneseFolk_Guitar,0.12907300889492035,0
57,100,0.6,254,0,15,DL_JapaneseFolk_Guitar,6,10,DL_JapaneseFolk_Guitar,0.1154588982462883,0
52,100,0.6409090909090909,465,0,15,DL_JapaneseFolk_Guitar,6,10,DL_JapaneseFolk_Guitar,0.1440124213695526,0
57,100,0.1,716,1,15,DL_JapaneseFolk_Guitar,6,2,DL_JapaneseFolk_Guitar,0.1475636065006256,0
52,100,0.6363636363636364,766,0,15,DL_JapaneseFolk_Guitar,6,10,DL_JapaneseFolk_Guitar,0.13054537773132324,0
52,100,0.2,119,1,16,DL_JapaneseFolk_Guitar,6,3,DL_JapaneseFolk_Guitar,0.9998459815979004,1
64,100,0.2772727272727273,216,0,16,DL_JapaneseFolk_Guitar,6,4,DL_JapaneseFolk_Guitar,0.2022513896226883,0
52,100,0.13636363636363635,326,0,16,DL_JapaneseFolk_Guitar,6,2,DL_JapaneseFolk_Guitar,0.1953922063112259,0
64,100,0.1409090909090909,374,0,16,DL_JapaneseFolk_Guitar,6,2,DL_JapaneseFolk_Guitar,0.2022899091243744,0
52,100,0.37727272727272726,413,0,16,DL_JapaneseFolk_Guitar,6,6,DL_JapaneseFolk_Guitar,0.19619803130626678,0
52,100,0.5,299,1,17,DL_JapaneseFolk_Guitar,6,8,DL_JapaneseFolk_Guitar,0.999830961227417,1
52,100,0.6409090909090909,430,0,17,DL_JapaneseFolk_Guitar,6,10,DL_JapaneseFolk_Guitar,0.4053519666194916,0
64,100,0.11818181818181818,625,0,17,DL_JapaneseFolk_Guitar,6,2,DL_JapaneseFolk_Guitar,0.4364016354084015,0
57,100,0.2590909090909091,198,1,18,DL_JapaneseFolk_Guitar,6,4,DL_JapaneseFolk_Guitar,0.9998500347137451,1
61,100,0.3181818181818182,326,0,18,DL_JapaneseFolk_Guitar,6,5,DL_JapaneseFolk_Guitar,0.31233397126197815,0
61,100,0.4,509,0,18,DL_JapaneseFolk_Guitar,6,6,DL_JapaneseFolk_Guitar,0.29986125230789185,0
52,100,0.5409090909090909,845,1,18,DL_JapaneseFolk_Guitar,6,9,DL_JapaneseFolk_Guitar,0.3067455589771271,0
68,100,0.4772727272727273,119,1,19,DL_JapaneseFolk_Guitar,6,8,DL_JapaneseFolk_Guitar,0.9996951818466187,1
52,100,0.1409090909090909,241,0,19,DL_JapaneseFolk_Guitar,6,2,DL_JapaneseFolk_Guitar,0.04595567286014557,0
59,100,0.2,303,0,19,DL_JapaneseFolk_Guitar,6,3,DL_JapaneseFolk_Guitar,0.03188202902674675,0
52,100,0.4,382,0,19,DL_JapaneseFolk_Guitar,6,6,DL_JapaneseFolk_Guitar,0.031311701983213425,0
59,100,0.4,480,0,19,DL_JapaneseFolk_Guitar,6,6,DL_JapaneseFolk_Guitar,0.029829401522874832,0
59,100,0.11818181818181818,581,0,19,DL_JapaneseFolk_Guitar,6,2,DL_JapaneseFolk_Guitar,0.03447450324892998,0
68,100,0.18181818181818182,619,0,19,DL_JapaneseFolk_Guitar,6,3,DL_JapaneseFolk_Guitar,0.04133886098861694,0
62,100,0.2818181818181818,673,0,19,DL_JapaneseFolk_Guitar,6,5,DL_JapaneseFolk_Guitar,0.04798286780714989,0
59,100,0.32272727272727275,796,0,19,DL_JapaneseFolk_Guitar,6,5,DL_JapaneseFolk_Guitar,0.046540290117263794,0
54,100,0.5818181818181818,113,1,20,DL_JapaneseFolk_Guitar,6,9,DL_JapaneseFolk_Guitar,0.9997171759605408,1
66,100,0.2590909090909091,260,0,20,DL_JapaneseFolk_Guitar,6,4,DL_JapaneseFolk_Guitar,0.05626702681183815,0
54,100,0.1409090909090909,316,0,20,DL_JapaneseFolk_Guitar,6,2,DL_JapaneseFolk_Guitar,0.04962078854441643,0
66,100,0.11818181818181818,347,0,20,DL_JapaneseFolk_Guitar,6,2,DL_JapaneseFolk_Guitar,0.048492107540369034,0
54,100,0.2590909090909091,374,0,20,DL_JapaneseFolk_Guitar,6,4,DL_JapaneseFolk_Guitar,0.05181894451379776,0
61,100,0.3181818181818182,436,0,20,DL_JapaneseFolk_Guitar,6,5,DL_JapaneseFolk_Guitar,0.061645157635211945,0
69,100,0.4772727272727273,646,0,20,DL_JapaneseFolk_Guitar,6,8,DL_JapaneseFolk_Guitar,0.06664926558732986,0
66,100,0.3181818181818182,845,0,20,DL_JapaneseFolk_Guitar,6,5,DL_JapaneseFolk_Guitar,0.06524361670017242,0
66,100,0.1590909090909091,65,1,21,DL_JapaneseFolk_Guitar,6,3,DL_JapaneseFolk_Guitar,0.9997697472572327,1
66,100,0.2,106,0,21,DL_JapaneseFolk_Guitar,6,3,DL_JapaneseFolk_Guitar,0.07811864465475082,0
66,100,0.2,210,0,21,DL_JapaneseFolk_Guitar,6,3,DL_JapaneseFolk_Guitar,0.07250355184078217,0
59,100,0.3409090909090909,409,0,21,DL_JapaneseFolk_Guitar,6,5,DL_JapaneseFolk_Guitar,0.07514502108097076,0
59,100,0.18181818181818182,528,0,21,DL_JapaneseFolk_Guitar,6,3,DL_JapaneseFolk_Guitar,0.08903142064809799,0
59,100,0.2590909090909091,594,0,21,DL_JapaneseFolk_Guitar,6,4,DL_JapaneseFolk_Guitar,0.09525276720523834,0
59,100,0.1,694,0,21,DL_JapaneseFolk_Guitar,6,2,DL_JapaneseFolk_Guitar,0.0883350744843483,0
68,100,0.1409090909090909,48,1,22,DL_JapaneseFolk_Guitar,6,2,DL_JapaneseFolk_Guitar,0.9998400211334229,1
59,100,0.21818181818181817,83,0,22,DL_JapaneseFolk_Guitar,6,3,DL_JapaneseFolk_Guitar,0.20072796940803528,0
59,100,0.12272727272727273,144,0,22,DL_JapaneseFolk_Guitar,6,2,DL_JapaneseFolk_Guitar,0.20155498385429382,0
59,100,0.6181818181818182,216,0,22,DL_JapaneseFolk_Guitar,6,10,DL_JapaneseFolk_Guitar,0.1945117712020874,0
69,100,0.18181818181818182,686,1,22,DL_JapaneseFolk_Guitar,6,3,DL_JapaneseFolk_Guitar,0.21589159965515137,0
52,100,0.1590909090909091,144,1,23,DL_JapaneseFolk_Guitar,6,3,DL_JapaneseFolk_Guitar,0.9997437596321106,1
59,100,0.2409090909090909,229,0,23,DL_JapaneseFolk_Guitar,6,4,DL_JapaneseFolk_Guitar,0.05229320749640465,0
52,100,0.1590909090909091,320,0,23,DL_JapaneseFolk_Guitar,6,3,DL_JapaneseFolk_Guitar,0.04743524268269539,0
62,100,0.1590909090909091,387,0,23,DL_JapaneseFolk_Guitar,6,3,DL_JapaneseFolk_Guitar,0.045761942863464355,0
52,100,0.4590909090909091,440,0,23,DL_JapaneseFolk_Guitar,6,7,DL_JapaneseFolk_Guitar,0.050701677799224854,0
53,100,0.6409090909090909,553,0,23,DL_JapaneseFolk_Guitar,6,10,DL_JapaneseFolk_Guitar,0.055140234529972076,0
65,100,0.1,694,0,23,DL_JapaneseFolk_Guitar,6,2,DL_JapaneseFolk_Guitar,0.0719543993473053,0
61,100,0.4590909090909091,779,0,23,DL_JapaneseFolk_Guitar,6,7,DL_JapaneseFolk_Guitar,0.0587489940226078,0
68,100,0.1,3,1,24,DL_JapaneseFolk_Guitar,6,2,DL_JapaneseFolk_Guitar,0.9997355341911316,1
53,100,0.1,69,0,24,DL_JapaneseFolk_Guitar,6,2,DL_JapaneseFolk_Guitar,0.05509012192487717,0
54,100,0.5818181818181818,189,0,24,DL_JapaneseFolk_Guitar,6,9,DL_JapaneseFolk_Guitar,0.044865138828754425,0
66,100,0.6772727272727272,316,0,24,DL_JapaneseFolk_Guitar,6,11,DL_JapaneseFolk_Guitar,0.04699099436402321,0
54,100,0.1590909090909091,571,1,24,DL_JapaneseFolk_Guitar,6,3,DL_JapaneseFolk_Guitar,0.05497535318136215,0
54,100,0.1,615,0,24,DL_JapaneseFolk_Guitar,6,2,DL_JapaneseFolk_Guitar,0.06276707351207733,0
54,100,0.1409090909090909,642,0,24,DL_JapaneseFolk_Guitar,6,2,DL_JapaneseFolk_Guitar,0.06863382458686829,0
66,100,0.18181818181818182,673,0,24,DL_JapaneseFolk_Guitar,6,3,DL_JapaneseFolk_Guitar,0.061774563044309616,0
54,100,0.23636363636363636,40,1,25,DL_JapaneseFolk_Guitar,6,4,DL_JapaneseFolk_Guitar,0.9997928738594055,1
57,100,0.38181818181818183,154,0,25,DL_JapaneseFolk_Guitar,6,6,DL_JapaneseFolk_Guitar,0.12434706091880798,0
54,100,0.2818181818181818,550,1,25,DL_JapaneseFolk_Guitar,6,5,DL_JapaneseFolk_Guitar,0.13022726774215698,0
62,100,0.2818181818181818,619,0,25,DL_JapaneseFolk_Guitar,6,5,DL_JapaneseFolk_Guitar,0.138562873005867,0
62,100,0.21818181818181817,756,0,25,DL_JapaneseFolk_Guitar,6,3,DL_JapaneseFolk_Guitar,0.14899079501628876,0
52,100,0.6,866,0,25,DL_JapaneseFolk_Guitar,6,10,DL_JapaneseFolk_Guitar,0.13113220036029816,0
52,100,0.3,123,1,26,DL_JapaneseFolk_Guitar,6,5,DL_JapaneseFolk_Guitar,0.9997712969779968,1
52,100,0.18181818181818182,223,0,26,DL_JapaneseFolk_Guitar,6,3,DL_JapaneseFolk_Guitar,0.08126986771821976,0
64,100,0.11818181818181818,295,0,26,DL_JapaneseFolk_Guitar,6,2,DL_JapaneseFolk_Guitar,0.07157009840011597,0
52,100,0.5818181818181818,374,0,26,DL_JapaneseFolk_Guitar,6,9,DL_JapaneseFolk_Guitar,0.07300979644060135,0
59,100,0.4590909090909091,515,0,26,DL_JapaneseFolk_Guitar,6,7,DL_JapaneseFolk_Guitar,0.08738445490598679,0
64,100,0.35909090909090907,677,0,26,DL_JapaneseFolk_Guitar,6,6,DL_JapaneseFolk_Guitar,0.09998375177383423,0
68,100,0.2,766,0,26,DL_JapaneseFolk_Guitar,6,3,DL_JapaneseFolk_Guitar,0.08598214387893677,0
52,100,0.3,17,1,27,DL_JapaneseFolk_Guitar,6,5,DL_JapaneseFolk_Guitar,0.9998394250869751,1
57,100,0.2409090909090909,136,0,27,DL_JapaneseFolk_Guitar,6,4,DL_JapaneseFolk_Guitar,0.19964104890823364,0
57,100,0.1590909090909091,260,0,27,DL_JapaneseFolk_Guitar,6,3,DL_JapaneseFolk_Guitar,0.19772885739803314,0
57,100,0.1590909090909091,528,1,27,DL_JapaneseFolk_Guitar,6,3,DL_JapaneseFolk_Guitar,0.2157234400510788,0
61,100,0.38181818181818183,835,1,27,DL_JapaneseFolk_Guitar,6,6,DL_JapaneseFolk_Guitar,0.20536097884178162,0
61,100,0.2,88,1,28,DL_JapaneseFolk_Guitar,6,3,DL_JapaneseFolk_Guitar,0.9998000264167786,1
52,100,0.5409090909090909,285,0,28,DL_JapaneseFolk_Guitar,6,9,DL_JapaneseFolk_Guitar,0.12149176746606827,0
59,100,0.3181818181818182,470,0,28,DL_JapaneseFolk_Guitar,6,5,DL_JapaneseFolk_Guitar,0.12213806062936783,0
52,100,0.2818181818181818,550,0,28,DL_JapaneseFolk_Guitar,6,5,DL_JapaneseFolk_Guitar,0.14080901443958282,0
52,100,0.4772727272727273,691,0,28,DL_JapaneseFolk_Guitar,6,8,DL_JapaneseFolk_Guitar,0.1377364695072174,0
62,100,0.2,804,0,28,DL_JapaneseFolk_Guitar,6,3,DL_JapaneseFolk_Guitar,0.13474597036838531,0
69,100,0.4590909090909091,65,1,29,DL_JapaneseFolk_Guitar,6,7,DL_JapaneseFolk_Guitar,0.9997150301933289,1
68,100,0.2,189,0,29,DL_JapaneseFolk_Guitar,6,3,DL_JapaneseFolk_Guitar,0.05878301337361336,0
59,100,0.23636363636363636,237,0,29,DL_JapaneseFolk_Guitar,6,4,DL_JapaneseFolk_Guitar,0.04788762703537941,0
52,100,0.1,382,0,29,DL_JapaneseFolk_Guitar,6,2,DL_JapaneseFolk_Guitar,0.05035465955734253,0
66,100,0.3181818181818182,457,0,29,DL_JapaneseFolk_Guitar,6,5,DL_JapaneseFolk_Guitar,0.049880433827638626,0
54,100,0.11818181818181818,528,0,29,DL_JapaneseFolk_Guitar,6,2,DL_JapaneseFolk_Guitar,0.06058017164468765,0
66,100,0.740909090909091,584,0,29,DL_JapaneseFolk_Guitar,6,12,DL_JapaneseFolk_Guitar,0.06229846552014351,0
61,100,0.36363636363636365,752,0,29,DL_JapaneseFolk_Guitar,6,6,DL_JapaneseFolk_Guitar,0.06472411006689072,0
61,100,0.1590909090909091,40,1,30,DL_JapaneseFolk_Guitar,6,3,DL_JapaneseFolk_Guitar,0.9997991919517517,1
54,100,0.35909090909090907,110,0,30,DL_JapaneseFolk_Guitar,6,6,DL_JapaneseFolk_Guitar,0.12730158865451813,0
69,100,0.2818181818181818,198,0,30,DL_JapaneseFolk_Guitar,6,5,DL_JapaneseFolk_Guitar,0.12551380693912506,0
66,100,0.1409090909090909,333,0,30,DL_JapaneseFolk_Guitar,6,2,DL_JapaneseFolk_Guitar,0.13592451810836792,0
54,100,0.3409090909090909,453,0,30,DL_JapaneseFolk_Guitar,6,5,DL_JapaneseFolk_Guitar,0.14341449737548828,0
57,100,0.22272727272727272,532,0,30,DL_JapaneseFolk_Guitar,6,4,DL_JapaneseFolk_Guitar,0.13384222984313965,0
59,100,0.2409090909090909,44,1,31,DL_JapaneseFolk_Guitar,6,4,DL_JapaneseFolk_Guitar,0.9998231530189514,1
59,100,0.42272727272727273,399,1,31,DL_JapaneseFolk_Guitar,6,7,DL_JapaneseFolk_Guitar,0.4067186415195465,0
59,100,0.6181818181818182,559,0,31,DL_JapaneseFolk_Guitar,6,10,DL_JapaneseFolk_Guitar,0.423913836479187,0
61,100,0.3181818181818182,176,1,32,DL_JapaneseFolk_Guitar,6,5,DL_JapaneseFolk_Guitar,0.9997969269752502,1
57,100,0.2409090909090909,263,0,32,DL_JapaneseFolk_Guitar,6,4,DL_JapaneseFolk_Guitar,0.1278088539838791,0
57,100,0.2,330,0,32,DL_JapaneseFolk_Guitar,6,3,DL_JapaneseFolk_Guitar,0.12366630882024765,0
52,100,0.5590909090909091,383,0,32,DL_JapaneseFolk_Guitar,6,9,DL_JapaneseFolk_Guitar,0.12996287643909454,0
59,100,0.12272727272727273,598,0,32,DL_JapaneseFolk_Guitar,6,2,DL_JapaneseFolk_Guitar,0.15137110650539398,0
52,100,0.17727272727272728,845,1,32,DL_JapaneseFolk_Guitar,6,3,DL_JapaneseFolk_Guitar,0.13400886952877045,0
56,100,0.4818181818181818,166,1,33,DL_JapaneseFolk_Guitar,6,8,DL_JapaneseFolk_Guitar,0.9998260140419006,1
61,100,0.21818181818181817,316,0,33,DL_JapaneseFolk_Guitar,6,3,DL_JapaneseFolk_Guitar,0.21900701522827148,0
61,100,0.32272727272727275,431,0,33,DL_JapaneseFolk_Guitar,6,5,DL_JapaneseFolk_Guitar,0.199182391166687,0
57,100,0.21818181818181817,791,1,33,DL_JapaneseFolk_Guitar,6,3,DL_JapaneseFolk_Guitar,0.20452241599559784,0
66,100,0.2590909090909091,853,0,33,DL_JapaneseFolk_Guitar,6,4,DL_JapaneseFolk_Guitar,0.20766940712928772,0
54,100,0.2772727272727273,31,1,34,DL_JapaneseFolk_Guitar,6,4,DL_JapaneseFolk_Guitar,0.9998303651809692,1
57,100,0.21818181818181817,105,0,34,DL_JapaneseFolk_Guitar,6,3,DL_JapaneseFolk_Guitar,0.20849184691905975,0
62,100,0.2636363636363636,289,0,34,DL_JapaneseFolk_Guitar,6,4,DL_JapaneseFolk_Guitar,0.20186029374599457,0
57,100,0.38181818181818183,378,0,34,DL_JapaneseFolk_Guitar,6,6,DL_JapaneseFolk_Guitar,0.20638127624988556,0
62,100,0.4590909090909091,545,0,34,DL_JapaneseFolk_Guitar,6,7,DL_JapaneseFolk_Guitar,0.20943118631839752,0
64,100,0.13636363636363635,18,1,35,DL_JapaneseFolk_Guitar,6,2,DL_JapaneseFolk_Guitar,0.9998458623886108,1
64,100,0.17727272727272728,171,0,35,DL_JapaneseFolk_Guitar,6,3,DL_JapaneseFolk_Guitar,0.2103453129529953,0
64,100,0.2,273,0,35,DL_JapaneseFolk_Guitar,6,3,DL_JapaneseFolk_Guitar,0.2007080316543579,0
57,100,0.2409090909090909,316,0,35,DL_JapaneseFolk_Guitar,6,4,DL_JapaneseFolk_Guitar,0.20153920352458954,0
61,100,1.240909090909091,444,0,35,DL_JapaneseFolk_Guitar,6,15,DL_JapaneseFolk_Guitar,0.18867835402488708,0
57,100,0.16363636363636364,334,1,36,DL_JapaneseFolk_Guitar,6,3,DL_JapaneseFolk_Guitar,0.999840497970581,1
57,100,0.1409090909090909,444,0,36,DL_JapaneseFolk_Guitar,6,2,DL_JapaneseFolk_Guitar,0.20983514189720154,0
66,100,0.35909090909090907,651,0,36,DL_JapaneseFolk_Guitar,6,6,DL_JapaneseFolk_Guitar,0.20077747106552124,0
66,100,0.2,788,0,36,DL_JapaneseFolk_Guitar,6,3,DL_JapaneseFolk_Guitar,0.20935706794261932,0
57,100,0.5636363636363636,839,0,36,DL_JapaneseFolk_Guitar,6,9,DL_JapaneseFolk_Guitar,0.19711172580718994,0
57,100,0.4409090909090909,198,1,37,DL_JapaneseFolk_Guitar,6,7,DL_JapaneseFolk_Guitar,0.9998235106468201,1
52,100,0.6,606,1,37,DL_JapaneseFolk_Guitar,6,10,DL_JapaneseFolk_Guitar,0.4176676869392395,0
68,100,0.2772727272727273,756,0,37,DL_JapaneseFolk_Guitar,6,4,DL_JapaneseFolk_Guitar,0.4310845136642456,0
54,100,0.5818181818181818,110,1,38,DL_JapaneseFolk_Guitar,6,9,DL_JapaneseFolk_Guitar,0.9997442364692688,1
54,100,0.3409090909090909,246,0,38,DL_JapaneseFolk_Guitar,6,5,DL_JapaneseFolk_Guitar,0.08573884516954422,0
57,100,0.1590909090909091,330,0,38,DL_JapaneseFolk_Guitar,6,3,DL_JapaneseFolk_Guitar,0.07650037109851837,0
64,100,0.2772727272727273,383,0,38,DL_JapaneseFolk_Guitar,6,4,DL_JapaneseFolk_Guitar,0.08114641159772873,0
54,100,0.1590909090909091,461,0,38,DL_JapaneseFolk_Guitar,6,3,DL_JapaneseFolk_Guitar,0.0931975468993187,0
54,100,0.4772727272727273,568,0,38,DL_JapaneseFolk_Guitar,6,8,DL_JapaneseFolk_Guitar,0.094544418156147,0
54,100,0.1409090909090909,694,0,38,DL_JapaneseFolk_Guitar,6,2,DL_JapaneseFolk_Guitar,0.09141647070646286,0
66,100,0.22272727272727272,101,1,39,DL_JapaneseFolk_Guitar,6,4,DL_JapaneseFolk_Guitar,0.9998306035995483,1
66,100,0.2409090909090909,201,0,39,DL_JapaneseFolk_Guitar,6,4,DL_JapaneseFolk_Guitar,0.41504019498825073,0
69,100,0.1590909090909091,260,0,39,DL_JapaneseFolk_Guitar,6,3,DL_JapaneseFolk_Guitar,0.42060843110084534,0
52,100,0.5409090909090909,34,1,40,DL_JapaneseFolk_Guitar,6,9,DL_JapaneseFolk_Guitar,0.9997977614402771,1
59,100,0.32272727272727275,356,1,40,DL_JapaneseFolk_Guitar,6,5,DL_JapaneseFolk_Guitar,0.12923479080200195,0
52,100,0.18181818181818182,496,0,40,DL_JapaneseFolk_Guitar,6,3,DL_JapaneseFolk_Guitar,0.12603877484798431,0
59,100,0.36363636363636365,554,0,40,DL_JapaneseFolk_Guitar,6,6,DL_JapaneseFolk_Guitar,0.12826478481292725,0
59,100,0.1409090909090909,641,0,40,DL_JapaneseFolk_Guitar,6,2,DL_JapaneseFolk_Guitar,0.14573456346988678,0
68,100,0.2,748,0,40,DL_JapaneseFolk_Guitar,6,3,DL_JapaneseFolk_Guitar,0.13377584517002106,0
52,100,0.1409090909090909,141,1,41,DL_JapaneseFolk_Guitar,6,2,DL_JapaneseFolk_Guitar,0.9998373985290527,1
66,100,0.2590909090909091,386,1,41,DL_JapaneseFolk_Guitar,6,4,DL_JapaneseFolk_Guitar,0.4078196883201599,0
66,100,0.1590909090909091,518,0,41,DL_JapaneseFolk_Guitar,6,3,DL_JapaneseFolk_Guitar,0.423836350440979,0
54,100,0.6590909090909091,703,1,42,DL_JapaneseFolk_Guitar,6,11,DL_JapaneseFolk_Guitar,0.9995852112770081,1
54,100,0.3,853,0,42,DL_JapaneseFolk_Guitar,6,5,DL_JapaneseFolk_Guitar,0.557778537273407,0
57,100,0.13636363636363635,61,1,43,DL_JapaneseFolk_Guitar,6,2,DL_JapaneseFolk_Guitar,0.9997605681419373,1
64,100,0.3181818181818182,105,0,43,DL_JapaneseFolk_Guitar,6,5,DL_JapaneseFolk_Guitar,0.08053171634674072,0
61,100,0.2409090909090909,176,0,43,DL_JapaneseFolk_Guitar,6,4,DL_JapaneseFolk_Guitar,0.0725085511803627,0
54,100,0.3409090909090909,276,0,43,DL_JapaneseFolk_Guitar,6,5,DL_JapaneseFolk_Guitar,0.07935313880443573,0
54,100,0.16363636363636364,356,0,43,DL_JapaneseFolk_Guitar,6,3,DL_JapaneseFolk_Guitar,0.09436209499835968,0
54,100,0.1590909090909091,431,0,43,DL_JapaneseFolk_Guitar,6,3,DL_JapaneseFolk_Guitar,0.09814328700304031,0
57,100,0.2,611,0,43,DL_JapaneseFolk_Guitar,6,3,DL_JapaneseFolk_Guitar,0.08525130897760391,0
61,100,0.38181818181818183,13,1,44,DL_JapaneseFolk_Guitar,6,6,DL_JapaneseFolk_Guitar,0.9998517036437988,1
64,100,0.13636363636363635,435,1,44,DL_JapaneseFolk_Guitar,6,2,DL_JapaneseFolk_Guitar,0.3376140296459198,0
52,100,0.11818181818181818,501,0,44,DL_JapaneseFolk_Guitar,6,2,DL_JapaneseFolk_Guitar,0.2912329435348511,0
52,100,0.4,531,0,44,DL_JapaneseFolk_Guitar,6,6,DL_JapaneseFolk_Guitar,0.29431912302970886,0
57,100,0.37727272727272726,426,1,46,DL_JapaneseFolk_Guitar,6,6,DL_JapaneseFolk_Guitar,0.9996088147163391,1
57,100,0.5181818181818182,743,1,46,DL_JapaneseFolk_Guitar,6,8,DL_JapaneseFolk_Guitar,0.5448675751686096,0
57,100,0.8590909090909091,348,1,47,DL_JapaneseFolk_Guitar,6,14,DL_JapaneseFolk_Guitar,0.9995368719100952,1
57,100,0.18181818181818182,571,0,47,DL_JapaneseFolk_Guitar,6,3,DL_JapaneseFolk_Guitar,0.5693047642707825,0
57,100,0.3409090909090909,13,1,48,DL_JapaneseFolk_Guitar,6,5,DL_JapaneseFolk_Guitar,0.9998470544815063,1
56,100,0.2409090909090909,408,1,48,DL_JapaneseFolk_Guitar,6,4,DL_JapaneseFolk_Guitar,0.333627313375473,0
59,100,0.1,581,0,48,DL_JapaneseFolk_Guitar,6,2,DL_JapaneseFolk_Guitar,0.2912741005420685,0
56,100,0.18181818181818182,791,0,48,DL_JapaneseFolk_Guitar,6,3,DL_JapaneseFolk_Guitar,0.3051195442676544,0
56,100,0.18181818181818182,26,1,49,DL_JapaneseFolk_Guitar,6,3,DL_JapaneseFolk_Guitar,0.9998277425765991,1
59,100,0.1409090909090909,163,0,49,DL_JapaneseFolk_Guitar,6,2,DL_JapaneseFolk_Guitar,0.41717472672462463,0
54,100,0.4772727272727273,545,1,49,DL_JapaneseFolk_Guitar,6,8,DL_JapaneseFolk_Guitar,0.42087727785110474,0
54,100,0.21818181818181817,193,1,50,DL_JapaneseFolk_Guitar,6,3,DL_JapaneseFolk_Guitar,0.9998283386230469,1
61,100,0.2,325,0,50,DL_JapaneseFolk_Guitar,6,3,DL_JapaneseFolk_Guitar,0.40698671340942383,0
61,100,0.11818181818181818,405,0,50,DL_JapaneseFolk_Guitar,6,2,DL_JapaneseFolk_Guitar,0.4324769377708435,0
59,100,0.21818181818181817,480,1,51,DL_JapaneseFolk_Guitar,6,3,DL_JapaneseFolk_Guitar,0.9996397495269775,1
59,100,0.13636363636363635,875,1,51,DL_JapaneseFolk_Guitar,6,2,DL_JapaneseFolk_Guitar,0.5491993427276611,0
59,100,0.2772727272727273,105,1,52,DL_JapaneseFolk_Guitar,6,4,DL_JapaneseFolk_Guitar,0.999849796295166,1
56,100,0.22272727272727272,298,0,52,DL_JapaneseFolk_Guitar,6,4,DL_JapaneseFolk_Guitar,0.3255620002746582,0
61,100,0.12272727272727273,576,1,52,DL_JapaneseFolk_Guitar,6,2,DL_JapaneseFolk_Guitar,0.2896401286125183,0
59,100,0.17727272727272728,625,0,52,DL_JapaneseFolk_Guitar,6,3,DL_JapaneseFolk_Guitar,0.3057222068309784,0
57,100,0.4409090909090909,440,1,53,DL_JapaneseFolk_Guitar,6,7,DL_JapaneseFolk_Guitar,0.9996013045310974,1
57,100,0.2590909090909091,761,1,53,DL_JapaneseFolk_Guitar,6,4,DL_JapaneseFolk_Guitar,0.5575419068336487,0
52,100,0.8181818181818182,83,1,54,DL_JapaneseFolk_Guitar,6,13,DL_JapaneseFolk_Guitar,0.9998366832733154,1
52,100,0.11818181818181818,361,1,54,DL_JapaneseFolk_Guitar,6,2,DL_JapaneseFolk_Guitar,0.3561079800128937,0
66,100,0.2,518,0,54,DL_JapaneseFolk_Guitar,6,3,DL_JapaneseFolk_Guitar,0.28708067536354065,0
52,100,0.11818181818181818,836,1,54,DL_JapaneseFolk_Guitar,6,2,DL_JapaneseFolk_Guitar,0.31053096055984497,0
66,100,0.1409090909090909,53,1,55,DL_JapaneseFolk_Guitar,6,2,DL_JapaneseFolk_Guitar,0.993115246295929,0
66,100,0.1590909090909091,123,1,56,DL_JapaneseFolk_Guitar,6,3,DL_JapaneseFolk_Guitar,0.9998277425765991,1
57,100,0.2772727272727273,370,1,56,DL_JapaneseFolk_Guitar,6,4,DL_JapaneseFolk_Guitar,0.4065713584423065,0
57,100,0.5,694,1,56,DL_JapaneseFolk_Guitar,6,8,DL_JapaneseFolk_Guitar,0.4249432384967804,0
57,100,0.21818181818181817,0,1,57,DL_JapaneseFolk_Guitar,6,3,DL_JapaneseFolk_Guitar,0.9996017813682556,1
61,100,0.6409090909090909,330,1,57,DL_JapaneseFolk_Guitar,6,10,DL_JapaneseFolk_Guitar,0.5497987866401672,0
59,100,0.22272727272727272,364,1,58,DL_JapaneseFolk_Guitar,6,4,DL_JapaneseFolk_Guitar,0.9931608438491821,0
61,100,0.2,141,1,59,DL_JapaneseFolk_Guitar,6,3,DL_JapaneseFolk_Guitar,0.9997623562812805,1
54,100,0.11818181818181818,185,0,59,DL_JapaneseFolk_Guitar,6,2,DL_JapaneseFolk_Guitar,0.08207835257053375,0
54,100,0.1,215,0,59,DL_JapaneseFolk_Guitar,6,2,DL_JapaneseFolk_Guitar,0.07081516087055206,0
61,100,0.1409090909090909,276,0,59,DL_JapaneseFolk_Guitar,6,2,DL_JapaneseFolk_Guitar,0.07891234755516052,0
64,100,0.1590909090909091,453,0,59,DL_JapaneseFolk_Guitar,6,3,DL_JapaneseFolk_Guitar,0.09217896312475204,0
64,100,0.32272727272727275,751,1,59,DL_JapaneseFolk_Guitar,6,5,DL_JapaneseFolk_Guitar,0.09423774480819702,0
54,100,0.1,826,0,59,DL_JapaneseFolk_Guitar,6,2,DL_JapaneseFolk_Guitar,0.08484967052936554,0
62,100,0.38181818181818183,136,1,60,DL_JapaneseFolk_Guitar,6,6,DL_JapaneseFolk_Guitar,0.9998237490653992,1
62,100,0.3,788,1,60,DL_JapaneseFolk_Guitar,6,5,DL_JapaneseFolk_Guitar,0.4155820608139038,0
73,100,0.5,858,0,60,DL_JapaneseFolk_Guitar,6,8,DL_JapaneseFolk_Guitar,0.42622795701026917,0
57,100,0.1590909090909091,386,1,61,DL_JapaneseFolk_Guitar,6,3,DL_JapaneseFolk_Guitar,0.9996412992477417,1
57,100,0.21818181818181817,875,1,61,DL_JapaneseFolk_Guitar,6,3,DL_JapaneseFolk_Guitar,0.5454263091087341,0
66,100,0.32272727272727275,56,1,62,DL_JapaneseFolk_Guitar,6,5,DL_JapaneseFolk_Guitar,0.9998371601104736,1
52,100,0.4409090909090909,233,0,62,DL_JapaneseFolk_Guitar,6,7,DL_JapaneseFolk_Guitar,0.20858581364154816,0
52,100,0.2409090909090909,619,1,62,DL_JapaneseFolk_Guitar,6,4,DL_JapaneseFolk_Guitar,0.20332323014736176,0
52,100,0.11818181818181818,726,0,62,DL_JapaneseFolk_Guitar,6,2,DL_JapaneseFolk_Guitar,0.20778238773345947,0
56,100,0.1409090909090909,845,0,62,DL_JapaneseFolk_Guitar,6,2,DL_JapaneseFolk_Guitar,0.19641169905662537,0
52,100,0.1409090909090909,8,1,63,DL_JapaneseFolk_Guitar,6,2,DL_JapaneseFolk_Guitar,0.9997771382331848,1
52,100,0.11818181818181818,75,0,63,DL_JapaneseFolk_Guitar,6,2,DL_JapaneseFolk_Guitar,0.07820989936590195,0
64,100,0.18181818181818182,220,0,63,DL_JapaneseFolk_Guitar,6,3,DL_JapaneseFolk_Guitar,0.07174001634120941,0
52,100,0.4,263,0,63,DL_JapaneseFolk_Guitar,6,6,DL_JapaneseFolk_Guitar,0.07627671957015991,0
69,100,0.5,584,1,63,DL_JapaneseFolk_Guitar,6,8,DL_JapaneseFolk_Guitar,0.08402292430400848,0
71,100,0.38181818181818183,791,0,63,DL_JapaneseFolk_Guitar,6,6,DL_JapaneseFolk_Guitar,0.09509964287281036,0
59,100,0.1590909090909091,875,0,63,DL_JapaneseFolk_Guitar,6,3,DL_JapaneseFolk_Guitar,0.08981356769800186,0
59,100,0.6227272727272727,136,1,64,DL_JapaneseFolk_Guitar,6,10,DL_JapaneseFolk_Guitar,0.9997979998588562,1
59,100,0.5590909090909091,383,1,64,DL_JapaneseFolk_Guitar,6,9,DL_JapaneseFolk_Guitar,0.4204392433166504,0
57,100,1.1636363636363636,553,0,64,DL_JapaneseFolk_Guitar,6,15,DL_JapaneseFolk_Guitar,0.4311571717262268,0
61,100,0.3,303,1,65,DL_JapaneseFolk_Guitar,6,5,DL_JapaneseFolk_Guitar,0.9997960925102234,1
61,100,0.1590909090909091,404,0,65,DL_JapaneseFolk_Guitar,6,3,DL_JapaneseFolk_Guitar,0.1325865238904953,0
57,100,0.1590909090909091,449,0,65,DL_JapaneseFolk_Guitar,6,3,DL_JapaneseFolk_Guitar,0.11817362904548645,0
61,100,0.3,496,0,65,DL_JapaneseFolk_Guitar,6,5,DL_JapaneseFolk_Guitar,0.13677021861076355,0
57,100,0.22272727272727272,576,0,65,DL_JapaneseFolk_Guitar,6,4,DL_JapaneseFolk_Guitar,0.14022301137447357,0
68,100,0.2,832,1,65,DL_JapaneseFolk_Guitar,6,3,DL_JapaneseFolk_Guitar,0.13430112600326538,0
59,100,0.1590909090909091,9,1,66,DL_JapaneseFolk_Guitar,6,3,DL_JapaneseFolk_Guitar,0.9997674822807312,1
68,100,0.21818181818181817,62,0,66,DL_JapaneseFolk_Guitar,6,3,DL_JapaneseFolk_Guitar,0.08136928826570511,0
68,100,0.1,113,0,66,DL_JapaneseFolk_Guitar,6,2,DL_JapaneseFolk_Guitar,0.07528139650821686,0
68,100,0.1590909090909091,166,0,66,DL_JapaneseFolk_Guitar,6,3,DL_JapaneseFolk_Guitar,0.0774279236793518,0
52,100,0.1590909090909091,206,0,66,DL_JapaneseFolk_Guitar,6,3,DL_JapaneseFolk_Guitar,0.09103459864854813,0
59,100,0.22272727272727272,673,1,66,DL_JapaneseFolk_Guitar,6,4,DL_JapaneseFolk_Guitar,0.09028267860412598,0
52,100,0.42272727272727273,729,0,66,DL_JapaneseFolk_Guitar,6,7,DL_JapaneseFolk_Guitar,0.0861060842871666,0
61,100,0.3,223,1,67,DL_JapaneseFolk_Guitar,6,5,DL_JapaneseFolk_Guitar,0.9998379945755005,1
57,100,0.1,523,1,67,DL_JapaneseFolk_Guitar,6,2,DL_JapaneseFolk_Guitar,0.20505087077617645,0
57,100,0.2409090909090909,550,0,67,DL_JapaneseFolk_Guitar,6,4,DL_JapaneseFolk_Guitar,0.19563929736614227,0
57,100,0.21818181818181817,810,1,67,DL_JapaneseFolk_Guitar,6,3,DL_JapaneseFolk_Guitar,0.2046964317560196,0
54,100,0.18181818181818182,862,0,67,DL_JapaneseFolk_Guitar,6,3,DL_JapaneseFolk_Guitar,0.20689742267131805,0
54,100,0.2,26,1,68,DL_JapaneseFolk_Guitar,6,3,DL_JapaneseFolk_Guitar,0.9998006224632263,1
61,100,0.1590909090909091,206,0,68,DL_JapaneseFolk_Guitar,6,3,DL_JapaneseFolk_Guitar,0.12781105935573578,0
59,100,0.3181818181818182,250,0,68,DL_JapaneseFolk_Guitar,6,5,DL_JapaneseFolk_Guitar,0.11808309704065323,0
61,100,0.12272727272727273,365,0,68,DL_JapaneseFolk_Guitar,6,2,DL_JapaneseFolk_Guitar,0.13673892617225647,0
59,100,0.2818181818181818,773,1,68,DL_JapaneseFolk_Guitar,6,5,DL_JapaneseFolk_Guitar,0.139888197183609,0
59,100,0.22272727272727272,839,0,68,DL_JapaneseFolk_Guitar,6,4,DL_JapaneseFolk_Guitar,0.13394305109977722,0
61,100,0.22272727272727272,166,1,69,DL_JapaneseFolk_Guitar,6,4,DL_JapaneseFolk_Guitar,0.9998317956924438,1
54,100,0.1409090909090909,826,1,69,DL_JapaneseFolk_Guitar,6,2,DL_JapaneseFolk_Guitar,0.41386356949806213,0
54,100,0.12272727272727273,862,0,69,DL_JapaneseFolk_Guitar,6,2,DL_JapaneseFolk_Guitar,0.42736634612083435,0
57,100,0.3409090909090909,53,1,70,DL_JapaneseFolk_Guitar,6,5,DL_JapaneseFolk_Guitar,0.9996019005775452,1
56,100,0.1590909090909091,546,1,70,DL_JapaneseFolk_Guitar,6,3,DL_JapaneseFolk_Guitar,0.5595818758010864,0
61,100,0.1590909090909091,206,1,71,DL_JapaneseFolk_Guitar,6,3,DL_JapaneseFolk_Guitar,0.9998587369918823,1
54,100,0.1,440,1,71,DL_JapaneseFolk_Guitar,6,2,DL_JapaneseFolk_Guitar,0.3248341679573059,0
54,100,0.11818181818181818,593,0,71,DL_JapaneseFolk_Guitar,6,2,DL_JapaneseFolk_Guitar,0.28393110632896423,0
57,100,0.21818181818181817,703,0,71,DL_JapaneseFolk_Guitar,6,3,DL_JapaneseFolk_Guitar,0.3031128942966461,0
52,100,0.6772727272727272,722,1,72,DL_JapaneseFolk_Guitar,6,11,DL_JapaneseFolk_Guitar,0.9931471943855286,0
52,100,0.2409090909090909,96,1,73,DL_JapaneseFolk_Guitar,6,4,DL_JapaneseFolk_Guitar,0.9997766613960266,1
59,100,0.11818181818181818,184,0,73,DL_JapaneseFolk_Guitar,6,2,DL_JapaneseFolk_Guitar,0.07768948376178741,0
52,100,0.3181818181818182,220,0,73,DL_JapaneseFolk_Guitar,6,5,DL_JapaneseFolk_Guitar,0.0720037966966629,0
52,100,0.1,294,0,73,DL_JapaneseFolk_Guitar,6,2,DL_JapaneseFolk_Guitar,0.08007383346557617,0
52,100,0.5227272727272727,356,0,73,DL_JapaneseFolk_Guitar,6,8,DL_JapaneseFolk_Guitar,0.08361562341451645,0
52,100,0.5,673,1,73,DL_JapaneseFolk_Guitar,6,8,DL_JapaneseFolk_Guitar,0.09243565052747726,0
52,100,0.22272727272727272,817,0,73,DL_JapaneseFolk_Guitar,6,4,DL_JapaneseFolk_Guitar,0.08612208813428879,0
61,100,0.35909090909090907,166,1,74,DL_JapaneseFolk_Guitar,6,6,DL_JapaneseFolk_Guitar,0.999843955039978,1
57,100,0.35909090909090907,260,0,74,DL_JapaneseFolk_Guitar,6,6,DL_JapaneseFolk_Guitar,0.3118000328540802,0
61,100,0.32272727272727275,443,0,74,DL_JapaneseFolk_Guitar,6,5,DL_JapaneseFolk_Guitar,0.3083946704864502,0
61,100,0.2409090909090909,637,0,74,DL_JapaneseFolk_Guitar,6,4,DL_JapaneseFolk_Guitar,0.31118783354759216,0
52,100,0.2772727272727273,140,1,75,DL_JapaneseFolk_Guitar,6,4,DL_JapaneseFolk_Guitar,0.9997696280479431,1
52,100,0.1,206,0,75,DL_JapaneseFolk_Guitar,6,2,DL_JapaneseFolk_Guitar,0.08089365810155869,0
52,100,0.1409090909090909,242,0,75,DL_JapaneseFolk_Guitar,6,2,DL_JapaneseFolk_Guitar,0.0709160789847374,0
52,100,0.7363636363636363,282,0,75,DL_JapaneseFolk_Guitar,6,12,DL_JapaneseFolk_Guitar,0.07228235900402069,0
52,100,0.2590909090909091,449,0,75,DL_JapaneseFolk_Guitar,6,4,DL_JapaneseFolk_Guitar,0.09409843385219574,0
52,100,0.2409090909090909,646,0,75,DL_JapaneseFolk_Guitar,6,4,DL_JapaneseFolk_Guitar,0.09480996429920197,0
52,100,0.1590909090909091,766,0,75,DL_JapaneseFolk_Guitar,6,3,DL_JapaneseFolk_Guitar,0.08647532016038895,0
52,100,0.2409090909090909,233,1,76,DL_JapaneseFolk_Guitar,6,4,DL_JapaneseFolk_Guitar,0.999858021736145,1
54,100,0.1590909090909091,430,0,76,DL_JapaneseFolk_Guitar,6,3,DL_JapaneseFolk_Guitar,0.3238946497440338,0
66,100,0.3181818181818182,483,0,76,DL_JapaneseFolk_Guitar,6,5,DL_JapaneseFolk_Guitar,0.28750860691070557,0
66,100,0.3,612,0,76,DL_JapaneseFolk_Guitar,6,5,DL_JapaneseFolk_Guitar,0.30232468247413635,0
61,100,0.2772727272727273,119,1,77,DL_JapaneseFolk_Guitar,6,4,DL_JapaneseFolk_Guitar,0.9998345375061035,1
54,100,0.2,303,0,77,DL_JapaneseFolk_Guitar,6,3,DL_JapaneseFolk_Guitar,0.20375598967075348,0
56,100,0.5181818181818182,580,1,77,DL_JapaneseFolk_Guitar,6,8,DL_JapaneseFolk_Guitar,0.19073385000228882,0
59,100,0.2409090909090909,695,0,77,DL_JapaneseFolk_Guitar,6,4,DL_JapaneseFolk_Guitar,0.22108528017997742,0
59,100,0.35909090909090907,756,0,77,DL_JapaneseFolk_Guitar,6,6,DL_JapaneseFolk_Guitar,0.20802530646324158,0
59,100,0.12272727272727273,47,1,78,DL_JapaneseFolk_Guitar,6,2,DL_JapaneseFolk_Guitar,0.9996250867843628,1
61,100,0.2409090909090909,140,0,78,DL_JapaneseFolk_Guitar,6,4,DL_JapaneseFolk_Guitar,0.5489068627357483,0
52,100,0.17727272727272728,229,1,79,DL_JapaneseFolk_Guitar,6,3,DL_JapaneseFolk_Guitar,0.9998453855514526,1
59,100,0.32272727272727275,409,0,79,DL_JapaneseFolk_Guitar,6,5,DL_JapaneseFolk_Guitar,0.20256388187408447,0
52,100,0.11818181818181818,502,0,79,DL_JapaneseFolk_Guitar,6,2,DL_JapaneseFolk_Guitar,0.2077866941690445,0
52,100,0.2636363636363636,532,0,79,DL_JapaneseFolk_Guitar,6,4,DL_JapaneseFolk_Guitar,0.20571741461753845,0
56,100,1.1181818181818182,747,0,79,DL_JapaneseFolk_Guitar,6,15,DL_JapaneseFolk_Guitar,0.18793532252311707,0
61,100,0.5363636363636364,127,1,80,DL_JapaneseFolk_Guitar,6,9,DL_JapaneseFolk_Guitar,0.999806821346283,1
64,100,0.3,509,1,80,DL_JapaneseFolk_Guitar,6,5,DL_JapaneseFolk_Guitar,0.45519763231277466,0
54,100,0.4,629,0,80,DL_JapaneseFolk_Guitar,6,6,DL_JapaneseFolk_Guitar,0.42048338055610657,0
62,100,0.1,263,1,81,DL_JapaneseFolk_Guitar,6,2,DL_JapaneseFolk_Guitar,0.9998354911804199,1
66,100,0.11818181818181818,383,0,81,DL_JapaneseFolk_Guitar,6,2,DL_JapaneseFolk_Guitar,0.4036198854446411,0
59,100,0.5227272727272727,783,1,81,DL_JapaneseFolk_Guitar,6,8,DL_JapaneseFolk_Guitar,0.4177676737308502,0
61,100,0.1,17,1,82,DL_JapaneseFolk_Guitar,6,2,DL_JapaneseFolk_Guitar,0.9998586177825928,1
66,100,0.11818181818181818,153,0,82,DL_JapaneseFolk_Guitar,6,2,DL_JapaneseFolk_Guitar,0.32182249426841736,0
52,100,0.2,506,1,82,DL_JapaneseFolk_Guitar,6,3,DL_JapaneseFolk_Guitar,0.2949426472187042,0
57,100,0.42272727272727273,716,0,82,DL_JapaneseFolk_Guitar,6,7,DL_JapaneseFolk_Guitar,0.29190656542778015,0
54,100,0.11818181818181818,339,1,83,DL_JapaneseFolk_Guitar,6,2,DL_JapaneseFolk_Guitar,0.9931468367576599,0
52,100,0.38181818181818183,453,1,84,DL_JapaneseFolk_Guitar,6,6,DL_JapaneseFolk_Guitar,0.999832034111023,1
52,100,0.5227272727272727,597,0,84,DL_JapaneseFolk_Guitar,6,8,DL_JapaneseFolk_Guitar,0.40407148003578186,0
52,100,0.38181818181818183,849,1,84,DL_JapaneseFolk_Guitar,6,6,DL_JapaneseFolk_Guitar,0.4262388050556183,0
59,100,0.1590909090909091,193,1,85,DL_JapaneseFolk_Guitar,6,3,DL_JapaneseFolk_Guitar,0.9931100606918335,0
64,100,0.1409090909090909,220,1,86,DL_JapaneseFolk_Guitar,6,2,DL_JapaneseFolk_Guitar,0.9998345375061035,1
64,100,0.8590909090909091,307,0,86,DL_JapaneseFolk_Guitar,6,14,DL_JapaneseFolk_Guitar,0.3754802942276001,0
64,100,0.4,616,1,86,DL_JapaneseFolk_Guitar,6,6,DL_JapaneseFolk_Guitar,0.4453665018081665,0
68,100,0.2818181818181818,153,1,87,DL_JapaneseFolk_Guitar,6,5,DL_JapaneseFolk_Guitar,0.9998041987419128,1
68,100,0.5590909090909091,220,0,87,DL_JapaneseFolk_Guitar,6,9,DL_JapaneseFolk_Guitar,0.12140382081270218,0
66,100,0.1590909090909091,396,0,87,DL_JapaneseFolk_Guitar,6,3,DL_JapaneseFolk_Guitar,0.12712222337722778,0
57,100,0.5227272727272727,532,0,87,DL_JapaneseFolk_Guitar,6,8,DL_JapaneseFolk_Guitar,0.12827084958553314,0
52,100,0.6818181818181818,660,0,87,DL_JapaneseFolk_Guitar,6,11,DL_JapaneseFolk_Guitar,0.1523224413394928,0
57,100,0.17727272727272728,866,0,87,DL_JapaneseFolk_Guitar,6,3,DL_JapaneseFolk_Guitar,0.13618238270282745,0
57,100,0.5772727272727273,294,1,88,DL_JapaneseFolk_Guitar,6,9,DL_JapaneseFolk_Guitar,0.9998433589935303,1
52,100,0.6,540,1,88,DL_JapaneseFolk_Guitar,6,10,DL_JapaneseFolk_Guitar,0.33209559321403503,0
52,100,0.21818181818181817,682,0,88,DL_JapaneseFolk_Guitar,6,3,DL_JapaneseFolk_Guitar,0.30330103635787964,0
52,100,0.3181818181818182,734,0,88,DL_JapaneseFolk_Guitar,6,5,DL_JapaneseFolk_Guitar,0.3000902533531189,0
64,100,0.2409090909090909,13,1,89,DL_JapaneseFolk_Guitar,6,4,DL_JapaneseFolk_Guitar,0.999861478805542,1
64,100,0.22272727272727272,92,0,89,DL_JapaneseFolk_Guitar,6,4,DL_JapaneseFolk_Guitar,0.31968608498573303,0
64,100,0.2590909090909091,184,0,89,DL_JapaneseFolk_Guitar,6,4,DL_JapaneseFolk_Guitar,0.29241350293159485,0
64,100,0.5590909090909091,603,1,89,DL_JapaneseFolk_Guitar,6,9,DL_JapaneseFolk_Guitar,0.29357922077178955,0
61,100,0.38181818181818183,0,1,34,DL_Nostalgic_Guitar,6,6,DL_Nostalgic_Guitar,0.9998272061347961,1
58,100,2.459090909090909,83,0,34,DL_Nostalgic_Guitar,6,15,DL_Nostalgic_Guitar,0.2801986634731293,0
58,100,0.2590909090909091,646,1,34,DL_Nostalgic_Guitar,6,4,DL_Nostalgic_Guitar,0.3632582426071167,0
58,100,1.3,708,0,34,DL_Nostalgic_Guitar,6,15,DL_Nostalgic_Guitar,0.32410484552383423,0
61,100,0.2409090909090909,114,1,35,DL_Nostalgic_Guitar,6,4,DL_Nostalgic_Guitar,0.9998332262039185,1
60,100,0.23636363636363636,260,0,35,DL_Nostalgic_Guitar,6,4,DL_Nostalgic_Guitar,0.20971058309078217,0
63,100,1.5772727272727274,413,0,35,DL_Nostalgic_Guitar,6,15,DL_Nostalgic_Guitar,0.17765454947948456,0
56,100,0.2772727272727273,765,1,35,DL_Nostalgic_Guitar,6,4,DL_Nostalgic_Guitar,0.26187074184417725,0
63,100,1.1227272727272728,826,0,35,DL_Nostalgic_Guitar,6,15,DL_Nostalgic_Guitar,0.20343126356601715,0
63,100,0.8409090909090909,241,1,36,DL_Nostalgic_Guitar,6,13,DL_Nostalgic_Guitar,0.9998028874397278,1
63,100,0.6,471,0,36,DL_Nostalgic_Guitar,6,10,DL_Nostalgic_Guitar,0.22153273224830627,0
63,100,0.3,611,0,36,DL_Nostalgic_Guitar,6,5,DL_Nostalgic_Guitar,0.22387836873531342,0
63,100,0.6590909090909091,681,0,36,DL_Nostalgic_Guitar,6,11,DL_Nostalgic_Guitar,0.22869139909744263,0
63,100,1.7818181818181817,871,0,36,DL_Nostalgic_Guitar,6,15,DL_Nostalgic_Guitar,0.21318599581718445,0
58,100,0.5409090909090909,386,1,37,DL_Nostalgic_Guitar,6,9,DL_Nostalgic_Guitar,0.9998270869255066,1
58,100,0.2409090909090909,558,0,37,DL_Nostalgic_Guitar,6,4,DL_Nostalgic_Guitar,0.34372347593307495,0
63,100,0.18181818181818182,638,0,37,DL_Nostalgic_Guitar,6,3,DL_Nostalgic_Guitar,0.327269971370697,0
58,100,1.6590909090909092,770,0,37,DL_Nostalgic_Guitar,6,15,DL_Nostalgic_Guitar,0.2922336459159851,0
65,100,1.9,254,1,38,DL_Nostalgic_Guitar,6,15,DL_Nostalgic_Guitar,0.9997465014457703,1
58,100,0.3,796,1,38,DL_Nostalgic_Guitar,6,5,DL_Nostalgic_Guitar,0.48220887780189514,0
58,100,2.118181818181818,875,0,38,DL_Nostalgic_Guitar,6,15,DL_Nostalgic_Guitar,0.42167335748672485,0
63,100,0.9,619,1,39,DL_Nostalgic_Guitar,6,14,DL_Nostalgic_Guitar,0.999541163444519,1
63,100,0.37727272727272726,823,0,39,DL_Nostalgic_Guitar,6,6,DL_Nostalgic_Guitar,0.5700886845588684,0
63,100,3.4,43,1,40,DL_Nostalgic_Guitar,6,15,DL_Nostalgic_Guitar,0.9997273087501526,1
65,100,0.17727272727272728,801,1,40,DL_Nostalgic_Guitar,6,3,DL_Nostalgic_Guitar,0.53267502784729,0
63,100,1.1227272727272728,839,0,40,DL_Nostalgic_Guitar,6,15,DL_Nostalgic_Guitar,0.42511284351348877,0
63,100,0.2772727272727273,383,1,41,DL_Nostalgic_Guitar,6,4,DL_Nostalgic_Guitar,0.9998353719711304,1
63,100,0.12272727272727273,488,0,41,DL_Nostalgic_Guitar,6,2,DL_Nostalgic_Guitar,0.349041610956192,0
63,100,0.5772727272727273,668,0,41,DL_Nostalgic_Guitar,6,9,DL_Nostalgic_Guitar,0.2823184132575989,0
63,100,1.040909090909091,848,0,41,DL_Nostalgic_Guitar,6,15,DL_Nostalgic_Guitar,0.315788596868515,0
58,100,1.1181818181818182,198,1,42,DL_Nostalgic_Guitar,6,15,DL_Nostalgic_Guitar,0.9997512698173523,1
56,100,1.559090909090909,448,1,42,DL_Nostalgic_Guitar,6,15,DL_Nostalgic_Guitar,0.42632684111595154,0
56,100,1.2363636363636363,810,1,42,DL_Nostalgic_Guitar,6,15,DL_Nostalgic_Guitar,0.4627200961112976,0
58,100,2.922727272727273,201,1,43,DL_Nostalgic_Guitar,6,15,DL_Nostalgic_Guitar,0.9993820190429688,1
56,100,0.759090909090909,848,1,43,DL_Nostalgic_Guitar,6,12,DL_Nostalgic_Guitar,0.5967921018600464,0
53,100,0.35909090909090907,141,1,44,DL_Nostalgic_Guitar,6,6,DL_Nostalgic_Guitar,0.9998267292976379,1
56,100,0.5409090909090909,220,0,44,DL_Nostalgic_Guitar,6,9,DL_Nostalgic_Guitar,0.20580728352069855,0
53,100,0.22272727272727272,356,0,44,DL_Nostalgic_Guitar,6,4,DL_Nostalgic_Guitar,0.21025294065475464,0
56,100,0.7818181818181819,431,0,44,DL_Nostalgic_Guitar,6,13,DL_Nostalgic_Guitar,0.19994615018367767,0
58,100,0.1409090909090909,606,0,44,DL_Nostalgic_Guitar,6,2,DL_Nostalgic_Guitar,0.21532778441905975,0
63,100,0.3,26,1,45,DL_Nostalgic_Guitar,6,5,DL_Nostalgic_Guitar,0.9998329877853394,1
58,100,0.8818181818181818,131,0,45,DL_Nostalgic_Guitar,6,14,DL_Nostalgic_Guitar,0.31246063113212585,0
56,100,0.4590909090909091,383,1,45,DL_Nostalgic_Guitar,6,7,DL_Nostalgic_Guitar,0.33645394444465637,0
56,100,3.3227272727272728,606,0,45,DL_Nostalgic_Guitar,6,15,DL_Nostalgic_Guitar,0.30719342827796936,0
56,100,0.7,783,1,46,DL_Nostalgic_Guitar,6,11,DL_Nostalgic_Guitar,0.9919028878211975,0
53,100,0.3409090909090909,66,1,47,DL_Nostalgic_Guitar,6,5,DL_Nostalgic_Guitar,0.9998394250869751,1
56,100,0.38181818181818183,144,0,47,DL_Nostalgic_Guitar,6,6,DL_Nostalgic_Guitar,0.21082095801830292,0
56,100,1.1409090909090909,289,0,47,DL_Nostalgic_Guitar,6,15,DL_Nostalgic_Guitar,0.18877220153808594,0
58,100,0.9818181818181818,541,1,47,DL_Nostalgic_Guitar,6,15,DL_Nostalgic_Guitar,0.21821270883083344,0
58,100,0.4409090909090909,783,1,47,DL_Nostalgic_Guitar,6,7,DL_Nostalgic_Guitar,0.23246480524539948,0
70,100,0.1590909090909091,83,1,48,DL_Nostalgic_Guitar,6,3,DL_Nostalgic_Guitar,0.9996716976165771,1
58,100,0.17727272727272728,118,0,48,DL_Nostalgic_Guitar,6,3,DL_Nostalgic_Guitar,0.04371224716305733,0
53,100,0.23636363636363636,391,1,48,DL_Nostalgic_Guitar,6,4,DL_Nostalgic_Guitar,0.03604549169540405,0
53,100,0.4590909090909091,448,0,48,DL_Nostalgic_Guitar,6,7,DL_Nostalgic_Guitar,0.030887601897120476,0
56,100,0.3181818181818182,550,0,48,DL_Nostalgic_Guitar,6,5,DL_Nostalgic_Guitar,0.03298424556851387,0
53,100,0.2590909090909091,628,0,48,DL_Nostalgic_Guitar,6,4,DL_Nostalgic_Guitar,0.03608976677060127,0
56,100,0.5409090909090909,703,0,48,DL_Nostalgic_Guitar,6,9,DL_Nostalgic_Guitar,0.04173320531845093,0
56,100,0.1590909090909091,826,0,48,DL_Nostalgic_Guitar,6,3,DL_Nostalgic_Guitar,0.05338325351476669,0
58,100,0.35909090909090907,871,0,48,DL_Nostalgic_Guitar,6,6,DL_Nostalgic_Guitar,0.04610341042280197,0
56,100,0.2,351,1,49,DL_Nostalgic_Guitar,6,3,DL_Nostalgic_Guitar,0.9996198415756226,1
61,100,0.5,756,1,49,DL_Nostalgic_Guitar,6,8,DL_Nostalgic_Guitar,0.5497962236404419,0
56,100,0.9818181818181818,166,1,50,DL_Nostalgic_Guitar,6,15,DL_Nostalgic_Guitar,0.9998055100440979,1
58,100,0.1590909090909091,405,1,50,DL_Nostalgic_Guitar,6,3,DL_Nostalgic_Guitar,0.2439974844455719,0
70,100,0.11818181818181818,440,0,50,DL_Nostalgic_Guitar,6,2,DL_Nostalgic_Guitar,0.20670461654663086,0
58,100,0.3,729,1,50,DL_Nostalgic_Guitar,6,5,DL_Nostalgic_Guitar,0.21602863073349,0
70,100,0.1590909090909091,813,0,50,DL_Nostalgic_Guitar,6,3,DL_Nostalgic_Guitar,0.21944472193717957,0
58,100,0.38181818181818183,4,1,51,DL_Nostalgic_Guitar,6,6,DL_Nostalgic_Guitar,0.9998181462287903,1
63,100,0.12272727272727273,136,0,51,DL_Nostalgic_Guitar,6,2,DL_Nostalgic_Guitar,0.35750433802604675,0
56,100,1.059090909090909,405,1,51,DL_Nostalgic_Guitar,6,15,DL_Nostalgic_Guitar,0.286865234375,0
61,100,0.4409090909090909,703,1,51,DL_Nostalgic_Guitar,6,7,DL_Nostalgic_Guitar,0.3344951570034027,0
60,100,1.1,8,1,52,DL_Nostalgic_Guitar,6,15,DL_Nostalgic_Guitar,0.9997866749763489,1
63,100,0.1409090909090909,263,1,52,DL_Nostalgic_Guitar,6,2,DL_Nostalgic_Guitar,0.4547540545463562,0
63,100,1.0772727272727274,413,0,52,DL_Nostalgic_Guitar,6,15,DL_Nostalgic_Guitar,0.42097052931785583,0
56,100,0.3409090909090909,91,1,53,DL_Nostalgic_Guitar,6,5,DL_Nostalgic_Guitar,0.9998267292976379,1
56,100,0.38181818181818183,179,0,53,DL_Nostalgic_Guitar,6,6,DL_Nostalgic_Guitar,0.210782989859581,0
63,100,1.059090909090909,263,0,53,DL_Nostalgic_Guitar,6,15,DL_Nostalgic_Guitar,0.1876073032617569,0
58,100,0.7818181818181819,638,1,53,DL_Nostalgic_Guitar,6,13,DL_Nostalgic_Guitar,0.22249609231948853,0
63,100,0.2636363636363636,818,0,53,DL_Nostalgic_Guitar,6,4,DL_Nostalgic_Guitar,0.2363104224205017,0
63,100,0.11818181818181818,61,1,54,DL_Nostalgic_Guitar,6,2,DL_Nostalgic_Guitar,0.9998266100883484,1
56,100,0.2590909090909091,338,1,54,DL_Nostalgic_Guitar,6,4,DL_Nostalgic_Guitar,0.420948326587677,0
63,100,0.740909090909091,563,0,54,DL_Nostalgic_Guitar,6,12,DL_Nostalgic_Guitar,0.4101015627384186,0
55,100,0.13636363636363635,150,1,55,DL_Nostalgic_Guitar,6,2,DL_Nostalgic_Guitar,0.9998264908790588,1
63,100,0.1,703,1,55,DL_Nostalgic_Guitar,6,2,DL_Nostalgic_Guitar,0.4137478172779083,0
56,100,0.36363636363636365,751,0,55,DL_Nostalgic_Guitar,6,6,DL_Nostalgic_Guitar,0.4273972511291504,0
56,100,0.9590909090909091,31,1,56,DL_Nostalgic_Guitar,6,15,DL_Nostalgic_Guitar,0.9997672438621521,1
56,100,0.12272727272727273,268,1,56,DL_Nostalgic_Guitar,6,2,DL_Nostalgic_Guitar,0.1483812928199768,0
56,100,0.7,338,0,56,DL_Nostalgic_Guitar,6,11,DL_Nostalgic_Guitar,0.11952057480812073,0
56,100,0.8590909090909091,501,0,56,DL_Nostalgic_Guitar,6,14,DL_Nostalgic_Guitar,0.13616304099559784,0
56,100,0.12272727272727273,694,0,56,DL_Nostalgic_Guitar,6,2,DL_Nostalgic_Guitar,0.16353510320186615,0
56,100,0.2590909090909091,761,0,56,DL_Nostalgic_Guitar,6,4,DL_Nostalgic_Guitar,0.1392969936132431,0
56,100,1.4,26,1,57,DL_Nostalgic_Guitar,6,15,DL_Nostalgic_Guitar,0.9994716048240662,1
56,100,0.8409090909090909,338,1,57,DL_Nostalgic_Guitar,6,13,DL_Nostalgic_Guitar,0.5799129009246826,0
58,100,0.2590909090909091,118,1,58,DL_Nostalgic_Guitar,6,4,DL_Nostalgic_Guitar,0.9998237490653992,1
58,100,0.7636363636363637,179,0,58,DL_Nostalgic_Guitar,6,12,DL_Nostalgic_Guitar,0.31861379742622375,0
58,100,0.1590909090909091,448,1,58,DL_Nostalgic_Guitar,6,3,DL_Nostalgic_Guitar,0.3262673020362854,0
56,100,0.9,681,1,58,DL_Nostalgic_Guitar,6,14,DL_Nostalgic_Guitar,0.32504260540008545,0
56,100,0.9409090909090909,26,1,59,DL_Nostalgic_Guitar,6,15,DL_Nostalgic_Guitar,0.9997662901878357,1
58,100,0.2409090909090909,298,1,59,DL_Nostalgic_Guitar,6,4,DL_Nostalgic_Guitar,0.14809399843215942,0
58,100,0.2409090909090909,378,0,59,DL_Nostalgic_Guitar,6,4,DL_Nostalgic_Guitar,0.13345910608768463,0
55,100,0.21818181818181817,448,0,59,DL_Nostalgic_Guitar,6,3,DL_Nostalgic_Guitar,0.15172161161899567,0
58,100,1.4,518,0,59,DL_Nostalgic_Guitar,6,15,DL_Nostalgic_Guitar,0.13563072681427002,0
58,100,0.2,853,1,59,DL_Nostalgic_Guitar,6,3,DL_Nostalgic_Guitar,0.16307206451892853,0
60,100,0.7227272727272728,48,1,60,DL_Nostalgic_Guitar,6,12,DL_Nostalgic_Guitar,0.9997968077659607,1
56,100,0.5590909090909091,241,0,60,DL_Nostalgic_Guitar,6,9,DL_Nostalgic_Guitar,0.13078159093856812,0
60,100,0.11818181818181818,405,0,60,DL_Nostalgic_Guitar,6,2,DL_Nostalgic_Guitar,0.13367506861686707,0
56,100,0.23636363636363636,545,0,60,DL_Nostalgic_Guitar,6,4,DL_Nostalgic_Guitar,0.13124904036521912,0
56,100,0.3181818181818182,616,0,60,DL_Nostalgic_Guitar,6,5,DL_Nostalgic_Guitar,0.14246512949466705,0
56,100,0.6,848,1,60,DL_Nostalgic_Guitar,6,10,DL_Nostalgic_Guitar,0.13214294612407684,0
56,100,0.6818181818181818,289,1,61,DL_Nostalgic_Guitar,6,11,DL_Nostalgic_Guitar,0.9998059868812561,1
56,100,0.12272727272727273,453,0,61,DL_Nostalgic_Guitar,6,2,DL_Nostalgic_Guitar,0.4451481103897095,0
56,100,0.3,700,1,61,DL_Nostalgic_Guitar,6,5,DL_Nostalgic_Guitar,0.42672139406204224,0
56,100,0.1,43,1,62,DL_Nostalgic_Guitar,6,2,DL_Nostalgic_Guitar,0.9998425245285034,1
56,100,0.5818181818181818,91,0,62,DL_Nostalgic_Guitar,6,9,DL_Nostalgic_Guitar,0.2006009817123413,0
58,100,0.2,228,0,62,DL_Nostalgic_Guitar,6,3,DL_Nostalgic_Guitar,0.21148060262203217,0
58,100,0.1,483,1,62,DL_Nostalgic_Guitar,6,2,DL_Nostalgic_Guitar,0.22629651427268982,0
58,100,1.559090909090909,518,0,62,DL_Nostalgic_Guitar,6,15,DL_Nostalgic_Guitar,0.1963185966014862,0
63,100,0.35909090909090907,677,1,64,DL_Nostalgic_Guitar,6,6,DL_Nostalgic_Guitar,0.9928622841835022,1
58,100,0.38181818181818183,817,1,1,DL_warm_Guitar,6,6,DL_warm_Guitar,0.9921633005142212,0
58,100,0.17727272727272728,259,1,2,DL_warm_Guitar,6,3,DL_warm_Guitar,0.9998218417167664,1
58,100,0.2818181818181818,330,0,2,DL_warm_Guitar,6,5,DL_warm_Guitar,0.21998220682144165,0
55,100,0.1,501,0,2,DL_warm_Guitar,6,2,DL_warm_Guitar,0.21840427815914154,0
58,100,0.18181818181818182,528,0,2,DL_warm_Guitar,6,3,DL_warm_Guitar,0.2107929140329361,0
58,100,0.759090909090909,607,0,2,DL_warm_Guitar,6,12,DL_warm_Guitar,0.20501010119915009,0
58,100,0.7227272727272728,510,1,3,DL_warm_Guitar,6,12,DL_warm_Guitar,0.9995187520980835,1
58,100,0.36363636363636365,840,1,3,DL_warm_Guitar,6,6,DL_warm_Guitar,0.5685915946960449,0
58,100,0.1409090909090909,43,1,4,DL_warm_Guitar,6,2,DL_warm_Guitar,0.9995875954627991,1
58,100,0.5818181818181818,770,1,4,DL_warm_Guitar,6,9,DL_warm_Guitar,0.5390387177467346,0
58,100,0.5,43,1,5,DL_warm_Guitar,6,8,DL_warm_Guitar,0.999797523021698,1
58,100,0.2409090909090909,232,0,5,DL_warm_Guitar,6,4,DL_warm_Guitar,0.4426545798778534,0
58,100,0.2636363636363636,818,1,5,DL_warm_Guitar,6,4,DL_warm_Guitar,0.43316081166267395,0
58,100,0.8409090909090909,56,1,6,DL_warm_Guitar,6,13,DL_warm_Guitar,0.9997937083244324,1
58,100,0.5227272727272727,268,0,6,DL_warm_Guitar,6,8,DL_warm_Guitar,0.2298910915851593,0
58,100,0.16363636363636364,399,0,6,DL_warm_Guitar,6,3,DL_warm_Guitar,0.2261323183774948,0
58,100,0.2,440,0,6,DL_warm_Guitar,6,3,DL_warm_Guitar,0.22832322120666504,0
58,100,0.2590909090909091,770,1,6,DL_warm_Guitar,6,4,DL_warm_Guitar,0.22315281629562378,0
58,100,0.3409090909090909,69,1,7,DL_warm_Guitar,6,5,DL_warm_Guitar,0.999824583530426,1
58,100,0.2409090909090909,299,0,7,DL_warm_Guitar,6,4,DL_warm_Guitar,0.34887418150901794,0
58,100,0.32272727272727275,355,0,7,DL_warm_Guitar,6,5,DL_warm_Guitar,0.2967001497745514,0
58,100,0.16363636363636364,444,0,7,DL_warm_Guitar,6,3,DL_warm_Guitar,0.32937246561050415,0
58,100,0.13636363636363635,171,1,8,DL_warm_Guitar,6,2,DL_warm_Guitar,0.9998107552528381,1
58,100,0.11818181818181818,646,1,8,DL_warm_Guitar,6,2,DL_warm_Guitar,0.4239853024482727,0
56,100,0.1,721,0,8,DL_warm_Guitar,6,2,DL_warm_Guitar,0.44837114214897156,0
58,100,0.1,391,1,9,DL_warm_Guitar,6,2,DL_warm_Guitar,0.9998084902763367,1
58,100,0.5409090909090909,651,1,9,DL_warm_Guitar,6,9,DL_warm_Guitar,0.41036102175712585,0
58,100,0.3,818,0,9,DL_warm_Guitar,6,5,DL_warm_Guitar,0.44105368852615356,0
58,100,0.5772727272727273,75,1,10,DL_warm_Guitar,6,9,DL_warm_Guitar,0.9917275905609131,0
58,100,0.5,53,1,11,DL_warm_Guitar,6,8,DL_warm_Guitar,0.9997960925102234,1
58,100,0.6,166,0,11,DL_warm_Guitar,6,10,DL_warm_Guitar,0.22164307534694672,0
58,100,0.5818181818181818,307,0,11,DL_warm_Guitar,6,9,DL_warm_Guitar,0.21196673810482025,0
58,100,0.32272727272727275,443,0,11,DL_warm_Guitar,6,5,DL_warm_Guitar,0.2450740933418274,0
60,100,0.740909090909091,826,1,11,DL_warm_Guitar,6,12,DL_warm_Guitar,0.229349285364151,0
58,100,1.1590909090909092,132,1,12,DL_warm_Guitar,6,15,DL_warm_Guitar,0.9997830986976624,1
58,100,0.41818181818181815,414,1,12,DL_warm_Guitar,6,7,DL_warm_Guitar,0.23934829235076904,0
55,100,0.12272727272727273,541,0,12,DL_warm_Guitar,6,2,DL_warm_Guitar,0.21822787821292877,0
55,100,0.1409090909090909,572,0,12,DL_warm_Guitar,6,2,DL_warm_Guitar,0.22429387271404266,0
55,100,0.13636363636363635,611,0,12,DL_warm_Guitar,6,2,DL_warm_Guitar,0.21657821536064148,0
60,100,0.3,158,1,13,DL_warm_Guitar,6,5,DL_warm_Guitar,0.9996399879455566,1
58,100,0.1409090909090909,862,1,13,DL_warm_Guitar,6,2,DL_warm_Guitar,0.5430473685264587,0
58,100,0.21818181818181817,660,1,14,DL_warm_Guitar,6,3,DL_warm_Guitar,0.9996035695075989,1
58,100,0.11818181818181818,854,0,14,DL_warm_Guitar,6,2,DL_warm_Guitar,0.5534946918487549,0
58,100,0.4818181818181818,3,1,15,DL_warm_Guitar,6,8,DL_warm_Guitar,0.9998229146003723,1
67,100,0.1409090909090909,189,0,15,DL_warm_Guitar,6,2,DL_warm_Guitar,0.3598327338695526,0
58,100,0.8,254,0,15,DL_warm_Guitar,6,13,DL_warm_Guitar,0.2785893976688385,0
58,100,0.11818181818181818,876,1,15,DL_warm_Guitar,6,2,DL_warm_Guitar,0.33877328038215637,0
58,100,0.6818181818181818,110,1,16,DL_warm_Guitar,6,11,DL_warm_Guitar,0.999815046787262,1
58,100,0.1409090909090909,364,1,16,DL_warm_Guitar,6,2,DL_warm_Guitar,0.36753949522972107,0
58,100,0.22272727272727272,430,0,16,DL_warm_Guitar,6,4,DL_warm_Guitar,0.308956116437912,0
58,100,0.3409090909090909,691,1,16,DL_warm_Guitar,6,5,DL_warm_Guitar,0.3195587992668152,0
58,100,0.1409090909090909,21,1,17,DL_warm_Guitar,6,2,DL_warm_Guitar,0.9998335838317871,1
58,100,0.5409090909090909,246,0,17,DL_warm_Guitar,6,9,DL_warm_Guitar,0.3159286081790924,0
58,100,0.9590909090909091,497,1,17,DL_warm_Guitar,6,15,DL_warm_Guitar,0.2969612181186676,0
58,100,0.16363636363636364,729,1,17,DL_warm_Guitar,6,3,DL_warm_Guitar,0.34951555728912354,0
58,100,0.1590909090909091,260,1,18,DL_warm_Guitar,6,3,DL_warm_Guitar,0.9998027682304382,1
56,100,0.17727272727272728,691,1,18,DL_warm_Guitar,6,3,DL_warm_Guitar,0.45141491293907166,0
58,100,0.6409090909090909,752,0,18,DL_warm_Guitar,6,10,DL_warm_Guitar,0.4177790582180023,0
58,100,0.11818181818181818,30,1,19,DL_warm_Guitar,6,2,DL_warm_Guitar,0.9997898936271667,1
58,100,0.38181818181818183,92,0,19,DL_warm_Guitar,6,6,DL_warm_Guitar,0.127272829413414,0
58,100,0.16363636363636364,179,0,19,DL_warm_Guitar,6,3,DL_warm_Guitar,0.1342409998178482,0
58,100,0.1590909090909091,320,0,19,DL_warm_Guitar,6,3,DL_warm_Guitar,0.14673171937465668,0
58,100,0.5818181818181818,488,0,19,DL_warm_Guitar,6,9,DL_warm_Guitar,0.15107586979866028,0
58,100,0.5772727272727273,721,1,19,DL_warm_Guitar,6,9,DL_warm_Guitar,0.14773418009281158,0
58,100,0.740909090909091,92,1,20,DL_warm_Guitar,6,12,DL_warm_Guitar,0.9997965693473816,1
58,100,0.1409090909090909,268,0,20,DL_warm_Guitar,6,2,DL_warm_Guitar,0.24891087412834167,0
58,100,0.1409090909090909,316,0,20,DL_warm_Guitar,6,2,DL_warm_Guitar,0.21998299658298492,0
58,100,0.8409090909090909,351,0,20,DL_warm_Guitar,6,13,DL_warm_Guitar,0.2098003327846527,0
58,100,1.018181818181818,669,1,20,DL_warm_Guitar,6,15,DL_warm_Guitar,0.23230788111686707,0
58,100,0.2590909090909091,61,1,21,DL_warm_Guitar,6,4,DL_warm_Guitar,0.9998047947883606,1
58,100,1.3,123,0,21,DL_warm_Guitar,6,15,DL_warm_Guitar,0.18873293697834015,0
63,100,0.21818181818181817,413,1,21,DL_warm_Guitar,6,3,DL_warm_Guitar,0.24125726521015167,0
67,100,0.1409090909090909,470,0,21,DL_warm_Guitar,6,2,DL_warm_Guitar,0.22579620778560638,0
55,100,0.2,540,0,21,DL_warm_Guitar,6,3,DL_warm_Guitar,0.222355917096138,0
60,100,0.11818181818181818,330,1,22,DL_warm_Guitar,6,2,DL_warm_Guitar,0.9996629953384399,1
60,100,0.2590909090909091,559,0,22,DL_warm_Guitar,6,4,DL_warm_Guitar,0.5403169989585876,0
67,100,0.2818181818181818,607,1,23,DL_warm_Guitar,6,5,DL_warm_Guitar,0.9926194548606873,0
58,100,0.2,61,1,24,DL_warm_Guitar,6,3,DL_warm_Guitar,0.9998171925544739,1
58,100,0.3,343,1,24,DL_warm_Guitar,6,5,DL_warm_Guitar,0.2191094309091568,0
58,100,0.1,540,0,24,DL_warm_Guitar,6,2,DL_warm_Guitar,0.21518227458000183,0
58,100,0.2,743,0,24,DL_warm_Guitar,6,3,DL_warm_Guitar,0.21659602224826813,0
58,100,0.6772727272727272,822,0,24,DL_warm_Guitar,6,11,DL_warm_Guitar,0.21300305426120758,0
58,100,0.37727272727272726,162,1,25,DL_warm_Guitar,6,6,DL_warm_Guitar,0.9997789263725281,1
58,100,0.9590909090909091,277,0,25,DL_warm_Guitar,6,15,DL_warm_Guitar,0.12392561137676239,0
62,100,0.11818181818181818,528,1,25,DL_warm_Guitar,6,2,DL_warm_Guitar,0.15303200483322144,0
58,100,0.2772727272727273,567,0,25,DL_warm_Guitar,6,4,DL_warm_Guitar,0.13735127449035645,0
62,100,0.1409090909090909,669,0,25,DL_warm_Guitar,6,2,DL_warm_Guitar,0.16995079815387726,0
58,100,0.6,770,0,25,DL_warm_Guitar,6,10,DL_warm_Guitar,0.133982315659523,0
58,100,0.2,123,1,26,DL_warm_Guitar,6,3,DL_warm_Guitar,0.9997450709342957,1
58,100,0.3181818181818182,175,0,26,DL_warm_Guitar,6,5,DL_warm_Guitar,0.08845870941877365,0
58,100,0.5772727272727273,272,0,26,DL_warm_Guitar,6,9,DL_warm_Guitar,0.07614246755838394,0
58,100,0.11818181818181818,413,0,26,DL_warm_Guitar,6,2,DL_warm_Guitar,0.0950273871421814,0
58,100,0.5,461,0,26,DL_warm_Guitar,6,8,DL_warm_Guitar,0.09701032936573029,0
58,100,0.2636363636363636,619,0,26,DL_warm_Guitar,6,4,DL_warm_Guitar,0.11394580453634262,0
58,100,0.2590909090909091,831,0,26,DL_warm_Guitar,6,4,DL_warm_Guitar,0.09614235907793045,0
58,100,0.6227272727272727,69,1,27,DL_warm_Guitar,6,10,DL_warm_Guitar,0.9997977614402771,1
60,100,0.17727272727272728,260,0,27,DL_warm_Guitar,6,3,DL_warm_Guitar,0.2543438971042633,0
58,100,0.6227272727272727,333,0,27,DL_warm_Guitar,6,10,DL_warm_Guitar,0.19268985092639923,0
58,100,1.4636363636363636,488,0,27,DL_warm_Guitar,6,15,DL_warm_Guitar,0.21947531402111053,0
56,100,0.43636363636363634,831,1,27,DL_warm_Guitar,6,7,DL_warm_Guitar,0.2474919557571411,0
68,100,0.35909090909090907,144,1,28,DL_warm_Guitar,6,6,DL_warm_Guitar,0.9998328685760498,1
68,100,0.4772727272727273,237,0,28,DL_warm_Guitar,6,8,DL_warm_Guitar,0.2058010697364807,0
68,100,0.4590909090909091,387,0,28,DL_warm_Guitar,6,7,DL_warm_Guitar,0.1984024941921234,0
58,100,0.13636363636363635,677,1,28,DL_warm_Guitar,6,2,DL_warm_Guitar,0.21219125390052795,0
56,100,0.1590909090909091,787,0,28,DL_warm_Guitar,6,3,DL_warm_Guitar,0.21495825052261353,0
68,100,0.2590909090909091,96,1,29,DL_warm_Guitar,6,4,DL_warm_Guitar,0.9998268485069275,1
58,100,0.1409090909090909,229,0,29,DL_warm_Guitar,6,2,DL_warm_Guitar,0.40525922179222107,0
58,100,0.4,804,1,29,DL_warm_Guitar,6,6,DL_warm_Guitar,0.42738786339759827,0
58,100,0.3409090909090909,57,1,30,DL_warm_Guitar,6,5,DL_warm_Guitar,0.9998177886009216,1
58,100,0.2590909090909091,254,0,30,DL_warm_Guitar,6,4,DL_warm_Guitar,0.3584897816181183,0
58,100,0.6409090909090909,387,0,30,DL_warm_Guitar,6,10,DL_warm_Guitar,0.3011830151081085,0
58,100,2.0,804,1,30,DL_warm_Guitar,6,15,DL_warm_Guitar,0.3177396059036255,0
58,100,0.7227272727272728,453,1,31,DL_warm_Guitar,6,12,DL_warm_Guitar,0.9998117089271545,1
58,100,0.5818181818181818,619,0,31,DL_warm_Guitar,6,9,DL_warm_Guitar,0.34717249870300293,0
60,100,0.17727272727272728,801,0,31,DL_warm_Guitar,6,3,DL_warm_Guitar,0.33695343136787415,0
70,100,0.2590909090909091,845,0,31,DL_warm_Guitar,6,4,DL_warm_Guitar,0.3083965480327606,0
63,100,0.36363636363636365,48,1,32,DL_warm_Guitar,6,6,DL_warm_Guitar,0.9998365640640259,1
58,100,0.5590909090909091,166,0,32,DL_warm_Guitar,6,9,DL_warm_Guitar,0.3106604218482971,0
58,100,1.018181818181818,435,1,32,DL_warm_Guitar,6,15,DL_warm_Guitar,0.30266833305358887,0
58,100,0.7227272727272728,694,1,32,DL_warm_Guitar,6,12,DL_warm_Guitar,0.3402463495731354,0
68,100,0.36363636363636365,69,1,33,DL_warm_Guitar,6,6,DL_warm_Guitar,0.9998266100883484,1
68,100,0.1409090909090909,188,0,33,DL_warm_Guitar,6,2,DL_warm_Guitar,0.22030726075172424,0
60,100,0.9636363636363636,268,0,33,DL_warm_Guitar,6,15,DL_warm_Guitar,0.1885002851486206,0
58,100,0.6227272727272727,673,1,33,DL_warm_Guitar,6,10,DL_warm_Guitar,0.2124498188495636,0
68,100,0.2409090909090909,823,0,33,DL_warm_Guitar,6,4,DL_warm_Guitar,0.23093698918819427,0
58,100,0.12272727272727273,201,1,34,DL_warm_Guitar,6,2,DL_warm_Guitar,0.9995847344398499,1
58,100,0.5409090909090909,581,1,34,DL_warm_Guitar,6,9,DL_warm_Guitar,0.538641095161438,0
58,100,0.1,251,1,35,DL_warm_Guitar,6,2,DL_warm_Guitar,0.9997960925102234,1
58,100,0.7818181818181819,364,0,35,DL_warm_Guitar,6,13,DL_warm_Guitar,0.1188831776380539,0
70,100,0.3,655,1,35,DL_warm_Guitar,6,5,DL_warm_Guitar,0.13756608963012695,0
62,100,0.17727272727272728,778,0,35,DL_warm_Guitar,6,3,DL_warm_Guitar,0.15591512620449066,0
62,100,0.1590909090909091,823,0,35,DL_warm_Guitar,6,3,DL_warm_Guitar,0.1580488532781601,0
58,100,0.740909090909091,866,0,35,DL_warm_Guitar,6,12,DL_warm_Guitar,0.13068416714668274,0
70,100,0.3,193,1,36,DL_warm_Guitar,6,5,DL_warm_Guitar,0.9997335076332092,1
58,100,0.4590909090909091,260,0,36,DL_warm_Guitar,6,7,DL_warm_Guitar,0.080027274787426,0
58,100,0.4636363636363636,378,0,36,DL_warm_Guitar,6,7,DL_warm_Guitar,0.08153089135885239,0
58,100,0.6,515,0,36,DL_warm_Guitar,6,10,DL_warm_Guitar,0.08397373557090759,0
70,100,0.11818181818181818,646,0,36,DL_warm_Guitar,6,2,DL_warm_Guitar,0.10564005374908447,0
55,100,0.2818181818181818,686,0,36,DL_warm_Guitar,6,5,DL_warm_Guitar,0.11008947342634201,0
60,100,0.11818181818181818,801,0,36,DL_warm_Guitar,6,2,DL_warm_Guitar,0.10057040303945541,0
58,100,0.3,8,1,37,DL_warm_Guitar,6,5,DL_warm_Guitar,0.9997379183769226,1
58,100,0.1590909090909091,166,0,37,DL_warm_Guitar,6,3,DL_warm_Guitar,0.08848734945058823,0
58,100,1.0227272727272727,211,0,37,DL_warm_Guitar,6,15,DL_warm_Guitar,0.07207311689853668,0
70,100,0.2,435,0,37,DL_warm_Guitar,6,3,DL_warm_Guitar,0.10000883787870407,0
58,100,0.4409090909090909,483,0,37,DL_warm_Guitar,6,7,DL_warm_Guitar,0.10109572857618332,0
55,100,0.11818181818181818,633,0,37,DL_warm_Guitar,6,2,DL_warm_Guitar,0.11970248073339462,0
58,100,0.9,703,0,37,DL_warm_Guitar,6,14,DL_warm_Guitar,0.09071534872055054,0
58,100,0.2409090909090909,34,1,38,DL_warm_Guitar,6,4,DL_warm_Guitar,0.9997847676277161,1
68,100,0.17727272727272728,141,0,38,DL_warm_Guitar,6,3,DL_warm_Guitar,0.14171846210956573,0
58,100,0.2590909090909091,281,0,38,DL_warm_Guitar,6,4,DL_warm_Guitar,0.12176956981420517,0
58,100,0.2,444,0,38,DL_warm_Guitar,6,3,DL_warm_Guitar,0.14495305716991425,0
68,100,0.16363636363636364,554,0,38,DL_warm_Guitar,6,3,DL_warm_Guitar,0.16330702602863312,0
58,100,0.5818181818181818,726,0,38,DL_warm_Guitar,6,9,DL_warm_Guitar,0.1317393183708191,0
68,100,0.6818181818181818,48,1,39,DL_warm_Guitar,6,11,DL_warm_Guitar,0.9998078942298889,1
68,100,0.17727272727272728,206,0,39,DL_warm_Guitar,6,3,DL_warm_Guitar,0.44547322392463684,0
58,100,0.6409090909090909,668,1,39,DL_warm_Guitar,6,10,DL_warm_Guitar,0.4102036952972412,0
58,100,0.4590909090909091,0,1,40,DL_warm_Guitar,6,7,DL_warm_Guitar,0.999803364276886,1
58,100,0.3,383,1,40,DL_warm_Guitar,6,5,DL_warm_Guitar,0.2237888127565384,0
70,100,0.1590909090909091,448,0,40,DL_warm_Guitar,6,3,DL_warm_Guitar,0.220585897564888,0
58,100,0.5,483,0,40,DL_warm_Guitar,6,8,DL_warm_Guitar,0.2185436636209488,0
70,100,0.2409090909090909,703,0,40,DL_warm_Guitar,6,4,DL_warm_Guitar,0.22706978023052216,0
58,100,0.740909090909091,31,1,41,DL_warm_Guitar,6,12,DL_warm_Guitar,0.9997544884681702,1
70,100,0.22272727272727272,246,0,41,DL_warm_Guitar,6,4,DL_warm_Guitar,0.1531098186969757,0
58,100,0.5,295,0,41,DL_warm_Guitar,6,8,DL_warm_Guitar,0.1269228309392929,0
58,100,0.6590909090909091,435,0,41,DL_warm_Guitar,6,11,DL_warm_Guitar,0.14934076368808746,0
70,100,0.2590909090909091,660,0,41,DL_warm_Guitar,6,4,DL_warm_Guitar,0.17558369040489197,0
58,100,0.8227272727272728,716,0,41,DL_warm_Guitar,6,13,DL_warm_Guitar,0.1467808485031128,0
58,100,0.4,75,1,42,DL_warm_Guitar,6,6,DL_warm_Guitar,0.9997983574867249,1
60,100,0.12272727272727273,224,0,42,DL_warm_Guitar,6,2,DL_warm_Guitar,0.4682351052761078,0
58,100,2.2772727272727273,260,0,42,DL_warm_Guitar,6,15,DL_warm_Guitar,0.392957478761673,0
58,100,0.2818181818181818,4,1,43,DL_warm_Guitar,6,5,DL_warm_Guitar,0.9996910095214844,1
58,100,0.35909090909090907,83,0,43,DL_warm_Guitar,6,6,DL_warm_Guitar,0.05842529982328415,0
68,100,0.3409090909090909,286,0,43,DL_warm_Guitar,6,5,DL_warm_Guitar,0.053520504385232925,0
60,100,0.5,373,0,43,DL_warm_Guitar,6,8,DL_warm_Guitar,0.05171152949333191,0
58,100,0.21818181818181817,501,0,43,DL_warm_Guitar,6,3,DL_warm_Guitar,0.05483928322792053,0
68,100,0.12272727272727273,664,0,43,DL_warm_Guitar,6,2,DL_warm_Guitar,0.06940267980098724,0
60,100,0.2590909090909091,703,0,43,DL_warm_Guitar,6,4,DL_warm_Guitar,0.07235903292894363,0
58,100,0.6818181818181818,770,0,43,DL_warm_Guitar,6,11,DL_warm_Guitar,0.059821560978889465,0
68,100,0.6,40,1,44,DL_warm_Guitar,6,10,DL_warm_Guitar,0.9995446801185608,1
58,100,0.5409090909090909,716,1,44,DL_warm_Guitar,6,9,DL_warm_Guitar,0.5540184378623962,0
58,100,0.33636363636363636,40,1,45,DL_warm_Guitar,6,5,DL_warm_Guitar,0.9998074173927307,1
58,100,0.18181818181818182,131,0,45,DL_warm_Guitar,6,3,DL_warm_Guitar,0.2363767772912979,0
58,100,0.2409090909090909,276,0,45,DL_warm_Guitar,6,4,DL_warm_Guitar,0.210674449801445,0
58,100,0.18181818181818182,483,0,45,DL_warm_Guitar,6,3,DL_warm_Guitar,0.23547974228858948,0
58,100,1.8590909090909091,545,0,45,DL_warm_Guitar,6,15,DL_warm_Guitar,0.20287597179412842,0
58,100,1.8,96,1,46,DL_warm_Guitar,6,15,DL_warm_Guitar,0.9997796416282654,1
58,100,0.8,518,1,46,DL_warm_Guitar,6,13,DL_warm_Guitar,0.37503716349601746,0
58,100,0.2,708,0,46,DL_warm_Guitar,6,3,DL_warm_Guitar,0.3433625400066376,0
58,100,0.4590909090909091,848,0,46,DL_warm_Guitar,6,7,DL_warm_Guitar,0.3295285403728485,0
60,100,0.6,171,1,47,DL_warm_Guitar,6,10,DL_warm_Guitar,0.9998326301574707,1
58,100,0.7181818181818181,383,0,47,DL_warm_Guitar,6,11,DL_warm_Guitar,0.29852575063705444,0
58,100,0.6181818181818182,593,0,47,DL_warm_Guitar,6,10,DL_warm_Guitar,0.31301450729370117,0
58,100,0.3181818181818182,813,0,47,DL_warm_Guitar,6,5,DL_warm_Guitar,0.34660616517066956,0
58,100,0.35909090909090907,118,1,48,DL_warm_Guitar,6,6,DL_warm_Guitar,0.9998031258583069,1
60,100,0.22272727272727272,343,0,48,DL_warm_Guitar,6,4,DL_warm_Guitar,0.45232364535331726,0
60,100,0.2818181818181818,708,1,48,DL_warm_Guitar,6,5,DL_warm_Guitar,0.4326660931110382,0
60,100,0.16363636363636364,641,1,49,DL_warm_Guitar,6,3,DL_warm_Guitar,0.9935870170593262,0
60,100,0.42272727272727273,69,1,50,DL_warm_Guitar,6,7,DL_warm_Guitar,0.9998250603675842,1
53,100,0.2590909090909091,176,0,50,DL_warm_Guitar,6,4,DL_warm_Guitar,0.41096264123916626,0
53,100,0.2409090909090909,241,0,50,DL_warm_Guitar,6,4,DL_warm_Guitar,0.4319363832473755,0
58,100,0.41818181818181815,831,1,51,DL_warm_Guitar,6,7,DL_warm_Guitar,0.9914335012435913,0
53,100,0.5181818181818182,426,1,52,DL_warm_Guitar,6,8,DL_warm_Guitar,0.9931011199951172,0
58,100,2.340909090909091,163,1,53,DL_warm_Guitar,6,15,DL_warm_Guitar,0.9993797540664673,1
58,100,0.5590909090909091,845,1,53,DL_warm_Guitar,6,9,DL_warm_Guitar,0.587816596031189,0
58,100,0.5636363636363636,114,1,54,DL_warm_Guitar,6,9,DL_warm_Guitar,0.9994341731071472,1
58,100,5.318181818181818,295,0,54,DL_warm_Guitar,6,15,DL_warm_Guitar,0.5290189981460571,0
60,100,1.8227272727272728,641,1,55,DL_warm_Guitar,6,15,DL_warm_Guitar,0.9906242489814758,0
58,100,0.5181818181818182,171,1,56,DL_warm_Guitar,6,8,DL_warm_Guitar,0.9997987151145935,1
58,100,0.21818181818181817,396,0,56,DL_warm_Guitar,6,3,DL_warm_Guitar,0.23362386226654053,0
58,100,1.1181818181818182,448,0,56,DL_warm_Guitar,6,15,DL_warm_Guitar,0.19486737251281738,0
58,100,0.4,703,1,56,DL_warm_Guitar,6,6,DL_warm_Guitar,0.24769829213619232,0
58,100,0.4,871,0,56,DL_warm_Guitar,6,6,DL_warm_Guitar,0.2315041422843933,0
58,100,0.3181818181818182,678,1,57,DL_warm_Guitar,6,5,DL_warm_Guitar,0.9995473027229309,1
58,100,0.5,810,0,57,DL_warm_Guitar,6,8,DL_warm_Guitar,0.554193913936615,0
58,100,0.2,386,1,58,DL_warm_Guitar,6,3,DL_warm_Guitar,0.9998356103897095,1
58,100,0.7,435,0,58,DL_warm_Guitar,6,11,DL_warm_Guitar,0.3062005043029785,0
58,100,0.5181818181818182,625,0,58,DL_warm_Guitar,6,8,DL_warm_Guitar,0.3187575340270996,0
58,100,0.3,839,0,58,DL_warm_Guitar,6,5,DL_warm_Guitar,0.32724371552467346,0
58,100,1.759090909090909,31,1,59,DL_warm_Guitar,6,15,DL_warm_Guitar,0.9997797608375549,1
58,100,0.36363636363636365,444,1,59,DL_warm_Guitar,6,6,DL_warm_Guitar,0.4008091390132904,0
58,100,0.36363636363636365,531,0,59,DL_warm_Guitar,6,6,DL_warm_Guitar,0.3245980143547058,0
58,100,2.459090909090909,638,0,59,DL_warm_Guitar,6,15,DL_warm_Guitar,0.31781208515167236,0
58,100,0.4590909090909091,303,1,60,DL_warm_Guitar,6,7,DL_warm_Guitar,0.9997715353965759,1
58,100,1.1,426,0,60,DL_warm_Guitar,6,15,DL_warm_Guitar,0.41823700070381165,0
60,100,1.3818181818181818,791,1,60,DL_warm_Guitar,6,15,DL_warm_Guitar,0.4514629542827606,0
60,100,0.4409090909090909,334,1,61,DL_warm_Guitar,6,7,DL_warm_Guitar,0.9998501539230347,1
58,100,0.6409090909090909,483,0,61,DL_warm_Guitar,6,10,DL_warm_Guitar,0.2967853546142578,0
58,100,0.6409090909090909,638,0,61,DL_warm_Guitar,6,10,DL_warm_Guitar,0.3048078417778015,0
58,100,0.21818181818181817,858,0,61,DL_warm_Guitar,6,3,DL_warm_Guitar,0.3295000493526459,0
60,100,0.6181818181818182,96,1,62,DL_warm_Guitar,6,10,DL_warm_Guitar,0.9997586607933044,1
58,100,0.3409090909090909,246,0,62,DL_warm_Guitar,6,5,DL_warm_Guitar,0.08060286194086075,0
58,100,0.21818181818181817,351,0,62,DL_warm_Guitar,6,3,DL_warm_Guitar,0.07807867974042892,0
58,100,0.4409090909090909,440,0,62,DL_warm_Guitar,6,7,DL_warm_Guitar,0.08548292517662048,0
60,100,0.11818181818181818,703,1,62,DL_warm_Guitar,6,2,DL_warm_Guitar,0.10900574922561646,0
60,100,0.18181818181818182,813,0,62,DL_warm_Guitar,6,3,DL_warm_Guitar,0.10665592551231384,0
58,100,0.8590909090909091,858,0,62,DL_warm_Guitar,6,14,DL_warm_Guitar,0.08324645459651947,0
58,100,0.18181818181818182,92,1,64,DL_warm_Guitar,6,3,DL_warm_Guitar,0.9998136162757874,1
58,100,0.6409090909090909,145,0,64,DL_warm_Guitar,6,10,DL_warm_Guitar,0.20469117164611816,0
58,100,0.6,487,1,64,DL_warm_Guitar,6,10,DL_warm_Guitar,0.2127581089735031,0
70,100,0.1590909090909091,743,1,64,DL_warm_Guitar,6,3,DL_warm_Guitar,0.23785997927188873,0
58,100,0.13636363636363635,787,0,64,DL_warm_Guitar,6,2,DL_warm_Guitar,0.22488434612751007,0
58,100,0.2772727272727273,30,1,65,DL_warm_Guitar,6,4,DL_warm_Guitar,0.9998076558113098,1
58,100,0.2590909090909091,100,0,65,DL_warm_Guitar,6,4,DL_warm_Guitar,0.41961586475372314,0
60,100,0.11818181818181818,787,1,65,DL_warm_Guitar,6,2,DL_warm_Guitar,0.4464215338230133,0
60,100,0.12272727272727273,26,1,66,DL_warm_Guitar,6,2,DL_warm_Guitar,0.999840259552002,1
60,100,0.2409090909090909,123,0,66,DL_warm_Guitar,6,4,DL_warm_Guitar,0.20287510752677917,0
60,100,1.3636363636363635,179,0,66,DL_warm_Guitar,6,15,DL_warm_Guitar,0.17827396094799042,0
60,100,0.23636363636363636,546,1,66,DL_warm_Guitar,6,4,DL_warm_Guitar,0.2400289922952652,0
60,100,0.7181818181818181,787,1,66,DL_warm_Guitar,6,11,DL_warm_Guitar,0.20676711201667786,0
60,100,0.9409090909090909,79,1,67,DL_warm_Guitar,6,15,DL_warm_Guitar,0.9998037219047546,1
60,100,0.4772727272727273,502,1,67,DL_warm_Guitar,6,8,DL_warm_Guitar,0.43784281611442566,0
60,100,0.3409090909090909,629,0,67,DL_warm_Guitar,6,5,DL_warm_Guitar,0.436969131231308,0
58,100,0.22272727272727272,26,1,68,DL_warm_Guitar,6,4,DL_warm_Guitar,0.9997988343238831,1
58,100,0.2590909090909091,303,1,68,DL_warm_Guitar,6,4,DL_warm_Guitar,0.42295777797698975,0
58,100,0.22272727272727272,597,1,68,DL_warm_Guitar,6,4,DL_warm_Guitar,0.44408050179481506,0
58,100,0.2409090909090909,255,1,69,DL_warm_Guitar,6,4,DL_warm_Guitar,0.9997952580451965,1
58,100,0.6772727272727272,536,1,69,DL_warm_Guitar,6,11,DL_warm_Guitar,0.40652865171432495,0
58,100,0.5818181818181818,739,0,69,DL_warm_Guitar,6,9,DL_warm_Guitar,0.45131391286849976,0
58,100,0.38181818181818183,440,1,70,DL_warm_Guitar,6,6,DL_warm_Guitar,0.9995754361152649,1
60,100,0.6409090909090909,760,1,70,DL_warm_Guitar,6,10,DL_warm_Guitar,0.5667300820350647,0
60,100,0.17727272727272728,172,1,71,DL_warm_Guitar,6,3,DL_warm_Guitar,0.9998615980148315,1
60,100,0.18181818181818182,263,0,71,DL_warm_Guitar,6,3,DL_warm_Guitar,0.3122304677963257,0
60,100,0.9409090909090909,316,0,71,DL_warm_Guitar,6,15,DL_warm_Guitar,0.27705541253089905,0
70,100,0.43636363636363634,523,0,71,DL_warm_Guitar,6,7,DL_warm_Guitar,0.3099305033683777,0
58,100,0.2409090909090909,343,1,73,DL_warm_Guitar,6,4,DL_warm_Guitar,0.9997943043708801,1
58,100,0.7,559,0,73,DL_warm_Guitar,6,11,DL_warm_Guitar,0.40426695346832275,0
58,100,0.740909090909091,729,0,73,DL_warm_Guitar,6,12,DL_warm_Guitar,0.45122361183166504,0
58,100,0.13636363636363635,83,1,74,DL_warm_Guitar,6,2,DL_warm_Guitar,0.999805748462677,1
58,100,1.518181818181818,140,0,74,DL_warm_Guitar,6,15,DL_warm_Guitar,0.19177865982055664,0
58,100,1.1181818181818182,502,1,74,DL_warm_Guitar,6,15,DL_warm_Guitar,0.22631119191646576,0
70,100,0.11818181818181818,792,1,74,DL_warm_Guitar,6,2,DL_warm_Guitar,0.26157429814338684,0
58,100,0.8636363636363636,817,0,74,DL_warm_Guitar,6,14,DL_warm_Guitar,0.22731797397136688,0
58,100,0.21818181818181817,132,1,75,DL_warm_Guitar,6,3,DL_warm_Guitar,0.9998303651809692,1
58,100,0.7636363636363637,487,1,75,DL_warm_Guitar,6,12,DL_warm_Guitar,0.31633421778678894,0
58,100,0.2409090909090909,660,0,75,DL_warm_Guitar,6,4,DL_warm_Guitar,0.3349511921405792,0
58,100,1.3636363636363635,752,0,75,DL_warm_Guitar,6,15,DL_warm_Guitar,0.3082602024078369,0
70,100,0.17727272727272728,172,1,76,DL_warm_Guitar,6,3,DL_warm_Guitar,0.9997535347938538,1
58,100,0.41818181818181815,347,0,76,DL_warm_Guitar,6,7,DL_warm_Guitar,0.07759333401918411,0
60,100,0.37727272727272726,470,0,76,DL_warm_Guitar,6,6,DL_warm_Guitar,0.08394075930118561,0
70,100,0.11818181818181818,593,0,76,DL_warm_Guitar,6,2,DL_warm_Guitar,0.07883954793214798,0
58,100,0.33636363636363636,633,0,76,DL_warm_Guitar,6,5,DL_warm_Guitar,0.09742884337902069,0
58,100,0.2,783,0,76,DL_warm_Guitar,6,3,DL_warm_Guitar,0.09963168203830719,0
60,100,0.11818181818181818,853,0,76,DL_warm_Guitar,6,2,DL_warm_Guitar,0.10221628099679947,0
58,100,0.759090909090909,172,1,77,DL_warm_Guitar,6,12,DL_warm_Guitar,0.999794065952301,1
58,100,0.9,386,0,77,DL_warm_Guitar,6,14,DL_warm_Guitar,0.2195337563753128,0
58,100,0.2818181818181818,593,0,77,DL_warm_Guitar,6,5,DL_warm_Guitar,0.22120292484760284,0
60,100,0.5,743,0,77,DL_warm_Guitar,6,8,DL_warm_Guitar,0.24636048078536987,0
58,100,0.6181818181818182,866,0,77,DL_warm_Guitar,6,10,DL_warm_Guitar,0.21512717008590698,0
58,100,0.5409090909090909,136,1,78,DL_warm_Guitar,6,9,DL_warm_Guitar,0.9998000264167786,1
58,100,0.11818181818181818,316,0,78,DL_warm_Guitar,6,2,DL_warm_Guitar,0.2401612102985382,0
58,100,1.018181818181818,396,0,78,DL_warm_Guitar,6,15,DL_warm_Guitar,0.19195112586021423,0
70,100,0.36363636363636365,619,0,78,DL_warm_Guitar,6,6,DL_warm_Guitar,0.24867400527000427,0
58,100,0.37727272727272726,766,0,78,DL_warm_Guitar,6,6,DL_warm_Guitar,0.23241987824440002,0
70,100,0.18181818181818182,176,1,79,DL_warm_Guitar,6,3,DL_warm_Guitar,0.9995265007019043,1
58,100,1.240909090909091,220,0,79,DL_warm_Guitar,6,15,DL_warm_Guitar,0.5383465886116028,0
58,100,0.2409090909090909,119,1,80,DL_warm_Guitar,6,4,DL_warm_Guitar,0.9998347759246826,1
58,100,0.11818181818181818,220,0,80,DL_warm_Guitar,6,2,DL_warm_Guitar,0.34303686022758484,0
58,100,0.32272727272727275,707,1,80,DL_warm_Guitar,6,5,DL_warm_Guitar,0.30099567770957947,0
58,100,0.8818181818181818,783,0,80,DL_warm_Guitar,6,14,DL_warm_Guitar,0.3117358088493347,0
70,100,0.37727272727272726,184,1,81,DL_warm_Guitar,6,6,DL_warm_Guitar,0.9997784495353699,1
58,100,0.5409090909090909,396,0,81,DL_warm_Guitar,6,9,DL_warm_Guitar,0.12807467579841614,0
60,100,0.2772727272727273,536,0,81,DL_warm_Guitar,6,4,DL_warm_Guitar,0.14232152700424194,0
70,100,0.2772727272727273,612,0,81,DL_warm_Guitar,6,4,DL_warm_Guitar,0.13791866600513458,0
58,100,0.6227272727272727,673,0,81,DL_warm_Guitar,6,10,DL_warm_Guitar,0.14592795073986053,0
60,100,0.6590909090909091,813,0,81,DL_warm_Guitar,6,11,DL_warm_Guitar,0.1555647850036621,0
58,100,0.2409090909090909,206,1,82,DL_warm_Guitar,6,4,DL_warm_Guitar,0.9998385906219482,1
63,100,0.18181818181818182,453,1,82,DL_warm_Guitar,6,3,DL_warm_Guitar,0.3363596796989441,0
63,100,0.1,496,0,82,DL_warm_Guitar,6,2,DL_warm_Guitar,0.302745521068573,0
63,100,0.4,619,0,82,DL_warm_Guitar,6,6,DL_warm_Guitar,0.3083188831806183,0
58,100,0.11818181818181818,40,1,83,DL_warm_Guitar,6,2,DL_warm_Guitar,0.9998027682304382,1
58,100,0.11818181818181818,83,0,83,DL_warm_Guitar,6,2,DL_warm_Guitar,0.4254147410392761,0
58,100,0.5636363636363636,113,0,83,DL_warm_Guitar,6,9,DL_warm_Guitar,0.4302302896976471,1
52,100,1.290909090909091,610,1,13,DL_deepemotion_Guitar_1,6,15,DL_deepemotion_Guitar_1,0.9914078116416931,0
62,100,0.20909090909090908,764,1,15,DL_deepemotion_Guitar_1,6,3,DL_deepemotion_Guitar_1,0.9933567643165588,1
62,100,0.4772727272727273,37,1,16,DL_deepemotion_Guitar_1,6,8,DL_deepemotion_Guitar_1,0.9931148886680603,0
62,100,0.4590909090909091,715,1,17,DL_deepemotion_Guitar_1,6,7,DL_deepemotion_Guitar_1,0.9996180534362793,1
62,100,0.37727272727272726,834,0,17,DL_deepemotion_Guitar_1,6,6,DL_deepemotion_Guitar_1,0.5548480153083801,0
57,100,0.9181818181818182,270,1,19,DL_deepemotion_Guitar_1,6,15,DL_deepemotion_Guitar_1,0.9994675517082214,1
52,100,2.3363636363636364,655,1,19,DL_deepemotion_Guitar_1,6,15,DL_deepemotion_Guitar_1,0.5460669994354248,0
62,100,0.5181818181818182,288,1,20,DL_deepemotion_Guitar_1,6,8,DL_deepemotion_Guitar_1,0.9998214840888977,1
62,100,0.20909090909090908,416,0,20,DL_deepemotion_Guitar_1,6,3,DL_deepemotion_Guitar_1,0.4330395460128784,0
52,100,0.33181818181818185,540,0,20,DL_deepemotion_Guitar_1,6,5,DL_deepemotion_Guitar_1,0.4289981722831726,0
58,100,0.7318181818181818,292,1,21,DL_deepemotion_Guitar_1,6,12,DL_deepemotion_Guitar_1,0.9995073080062866,1
58,100,0.5227272727272727,536,1,21,DL_deepemotion_Guitar_1,6,8,DL_deepemotion_Guitar_1,0.561956524848938,0
57,100,0.16818181818181818,110,1,22,DL_deepemotion_Guitar_1,6,3,DL_deepemotion_Guitar_1,0.9998248219490051,1
57,100,0.16818181818181818,361,1,22,DL_deepemotion_Guitar_1,6,3,DL_deepemotion_Guitar_1,0.4103384017944336,0
66,100,0.2681818181818182,815,1,22,DL_deepemotion_Guitar_1,6,4,DL_deepemotion_Guitar_1,0.42648404836654663,0
66,100,0.14545454545454545,9,1,23,DL_deepemotion_Guitar_1,6,2,DL_deepemotion_Guitar_1,0.999832034111023,1
64,100,0.14545454545454545,261,1,23,DL_deepemotion_Guitar_1,6,2,DL_deepemotion_Guitar_1,0.4196665585041046,0
62,100,0.41363636363636364,797,1,23,DL_deepemotion_Guitar_1,6,7,DL_deepemotion_Guitar_1,0.41389036178588867,0
62,100,0.12272727272727273,188,1,24,DL_deepemotion_Guitar_1,6,2,DL_deepemotion_Guitar_1,0.9996410608291626,1
57,100,0.20909090909090908,361,0,24,DL_deepemotion_Guitar_1,6,3,DL_deepemotion_Guitar_1,0.5412656664848328,0
61,100,0.31363636363636366,518,1,25,DL_deepemotion_Guitar_1,6,5,DL_deepemotion_Guitar_1,0.9998189806938171,1
61,100,0.75,642,0,25,DL_deepemotion_Guitar_1,6,12,DL_deepemotion_Guitar_1,0.40193068981170654,0
61,100,0.37727272727272726,820,0,25,DL_deepemotion_Guitar_1,6,6,DL_deepemotion_Guitar_1,0.4380826950073242,0
61,100,0.2681818181818182,279,1,26,DL_deepemotion_Guitar_1,6,4,DL_deepemotion_Guitar_1,0.9995971322059631,1
61,100,1.0,536,1,26,DL_deepemotion_Guitar_1,6,15,DL_deepemotion_Guitar_1,0.5332014560699463,0
66,100,0.2727272727272727,251,1,27,DL_deepemotion_Guitar_1,6,4,DL_deepemotion_Guitar_1,0.9996297359466553,1
66,100,0.4818181818181818,435,0,27,DL_deepemotion_Guitar_1,6,8,DL_deepemotion_Guitar_1,0.540985107421875,0
57,100,0.16363636363636364,114,1,28,DL_deepemotion_Guitar_1,6,3,DL_deepemotion_Guitar_1,0.9998264908790588,1
66,100,0.4590909090909091,265,0,28,DL_deepemotion_Guitar_1,6,7,DL_deepemotion_Guitar_1,0.39838242530822754,0
57,100,0.16818181818181818,559,1,28,DL_deepemotion_Guitar_1,6,3,DL_deepemotion_Guitar_1,0.43281254172325134,0
57,100,0.25,224,1,29,DL_deepemotion_Guitar_1,6,4,DL_deepemotion_Guitar_1,0.9998370409011841,1
64,100,0.5,306,0,29,DL_deepemotion_Guitar_1,6,8,DL_deepemotion_Guitar_1,0.20983971655368805,0
64,100,0.25,444,0,29,DL_deepemotion_Guitar_1,6,4,DL_deepemotion_Guitar_1,0.20472046732902527,0
64,100,0.12272727272727273,532,0,29,DL_deepemotion_Guitar_1,6,2,DL_deepemotion_Guitar_1,0.21021446585655212,0
61,100,1.0,669,0,29,DL_deepemotion_Guitar_1,6,15,DL_deepemotion_Guitar_1,0.18706059455871582,0
57,100,0.41818181818181815,133,1,30,DL_deepemotion_Guitar_1,6,7,DL_deepemotion_Guitar_1,0.9998000264167786,1
57,100,0.12272727272727273,233,0,30,DL_deepemotion_Guitar_1,6,2,DL_deepemotion_Guitar_1,0.12987908720970154,0
64,100,0.16818181818181818,306,0,30,DL_deepemotion_Guitar_1,6,3,DL_deepemotion_Guitar_1,0.12575006484985352,0
57,100,0.16363636363636364,595,1,30,DL_deepemotion_Guitar_1,6,3,DL_deepemotion_Guitar_1,0.12916171550750732,0
61,100,0.10454545454545454,715,0,30,DL_deepemotion_Guitar_1,6,2,DL_deepemotion_Guitar_1,0.14523287117481232,0
57,100,0.39545454545454545,746,0,30,DL_deepemotion_Guitar_1,6,6,DL_deepemotion_Guitar_1,0.127607524394989,0
62,100,0.5636363636363636,41,1,31,DL_deepemotion_Guitar_1,6,9,DL_deepemotion_Guitar_1,0.9997873902320862,1
62,100,0.14545454545454545,206,0,31,DL_deepemotion_Guitar_1,6,2,DL_deepemotion_Guitar_1,0.1365809440612793,0
62,100,1.0,243,0,31,DL_deepemotion_Guitar_1,6,15,DL_deepemotion_Guitar_1,0.11070237308740616,0
54,100,0.3090909090909091,609,1,31,DL_deepemotion_Guitar_1,6,5,DL_deepemotion_Guitar_1,0.15094901621341705,0
62,100,0.20909090909090908,715,0,31,DL_deepemotion_Guitar_1,6,3,DL_deepemotion_Guitar_1,0.14891666173934937,0
62,100,0.41818181818181815,765,0,31,DL_deepemotion_Guitar_1,6,7,DL_deepemotion_Guitar_1,0.13910529017448425,0
62,100,0.39545454545454545,256,1,32,DL_deepemotion_Guitar_1,6,6,DL_deepemotion_Guitar_1,0.9997240900993347,1
62,100,0.22727272727272727,357,0,32,DL_deepemotion_Guitar_1,6,4,DL_deepemotion_Guitar_1,0.05783070996403694,0
62,100,0.15,412,0,32,DL_deepemotion_Guitar_1,6,2,DL_deepemotion_Guitar_1,0.04826715216040611,0
62,100,0.18636363636363637,467,0,32,DL_deepemotion_Guitar_1,6,3,DL_deepemotion_Guitar_1,0.048251036554574966,0
57,100,0.43636363636363634,531,0,32,DL_deepemotion_Guitar_1,6,7,DL_deepemotion_Guitar_1,0.05074955150485039,0
62,100,0.37727272727272726,632,0,32,DL_deepemotion_Guitar_1,6,6,DL_deepemotion_Guitar_1,0.06425889581441879,0
57,100,0.20909090909090908,733,0,32,DL_deepemotion_Guitar_1,6,3,DL_deepemotion_Guitar_1,0.0680849701166153,0
62,100,0.2727272727272727,811,0,32,DL_deepemotion_Guitar_1,6,4,DL_deepemotion_Guitar_1,0.06324583292007446,0
62,100,1.1045454545454545,18,1,33,DL_deepemotion_Guitar_1,6,15,DL_deepemotion_Guitar_1,0.9997925162315369,1
62,100,0.10454545454545454,266,1,33,DL_deepemotion_Guitar_1,6,2,DL_deepemotion_Guitar_1,0.4667188227176666,0
62,100,0.8363636363636363,293,0,33,DL_deepemotion_Guitar_1,6,13,DL_deepemotion_Guitar_1,0.4251742959022522,0
62,100,0.12272727272727273,22,1,34,DL_deepemotion_Guitar_1,6,2,DL_deepemotion_Guitar_1,0.9998456239700317,1
57,100,1.3727272727272728,156,0,34,DL_deepemotion_Guitar_1,6,15,DL_deepemotion_Guitar_1,0.2752290368080139,0
57,100,0.5,544,1,34,DL_deepemotion_Guitar_1,6,8,DL_deepemotion_Guitar_1,0.33127984404563904,0
57,100,1.0227272727272727,660,0,34,DL_deepemotion_Guitar_1,6,15,DL_deepemotion_Guitar_1,0.3191097378730774,0
57,100,0.2681818181818182,27,1,35,DL_deepemotion_Guitar_1,6,4,DL_deepemotion_Guitar_1,0.9998230338096619,1
62,100,0.7090909090909091,288,1,35,DL_deepemotion_Guitar_1,6,11,DL_deepemotion_Guitar_1,0.3982977569103241,0
62,100,0.20909090909090908,448,0,35,DL_deepemotion_Guitar_1,6,3,DL_deepemotion_Guitar_1,0.4453744888305664,0
57,100,0.22727272727272727,385,1,36,DL_deepemotion_Guitar_1,6,4,DL_deepemotion_Guitar_1,0.9998290538787842,1
62,100,0.2318181818181818,544,0,36,DL_deepemotion_Guitar_1,6,4,DL_deepemotion_Guitar_1,0.41448459029197693,0
62,100,0.29545454545454547,852,1,36,DL_deepemotion_Guitar_1,6,5,DL_deepemotion_Guitar_1,0.42824554443359375,0
62,100,0.12272727272727273,55,1,37,DL_deepemotion_Guitar_1,6,2,DL_deepemotion_Guitar_1,0.9996916055679321,1
62,100,0.14545454545454545,87,0,37,DL_deepemotion_Guitar_1,6,2,DL_deepemotion_Guitar_1,0.03614990413188934,0
64,100,0.14545454545454545,266,0,37,DL_deepemotion_Guitar_1,6,2,DL_deepemotion_Guitar_1,0.026215283200144768,0
57,100,0.31363636363636366,352,0,37,DL_deepemotion_Guitar_1,6,5,DL_deepemotion_Guitar_1,0.02070661447942257,0
57,100,0.25,558,0,37,DL_deepemotion_Guitar_1,6,4,DL_deepemotion_Guitar_1,0.019590917974710464,0
57,100,0.16818181818181818,623,0,37,DL_deepemotion_Guitar_1,6,3,DL_deepemotion_Guitar_1,0.02060028910636902,0
57,100,0.2318181818181818,668,0,37,DL_deepemotion_Guitar_1,6,4,DL_deepemotion_Guitar_1,0.023468881845474243,0
57,100,0.2318181818181818,733,0,37,DL_deepemotion_Guitar_1,6,4,DL_deepemotion_Guitar_1,0.03120020218193531,0
64,100,0.12727272727272726,788,0,37,DL_deepemotion_Guitar_1,6,2,DL_deepemotion_Guitar_1,0.04059654846787453,0
57,100,1.290909090909091,866,0,37,DL_deepemotion_Guitar_1,6,15,DL_deepemotion_Guitar_1,0.034940797835588455,0
64,100,0.5636363636363636,269,1,38,DL_deepemotion_Guitar_1,6,9,DL_deepemotion_Guitar_1,0.9996256828308105,1
64,100,0.4772727272727273,706,1,38,DL_deepemotion_Guitar_1,6,8,DL_deepemotion_Guitar_1,0.5523020029067993,0
62,100,0.14545454545454545,8,1,39,DL_deepemotion_Guitar_1,6,2,DL_deepemotion_Guitar_1,0.999855637550354,1
59,100,0.20909090909090908,311,1,39,DL_deepemotion_Guitar_1,6,3,DL_deepemotion_Guitar_1,0.31696784496307373,0
62,100,0.8318181818181818,495,0,39,DL_deepemotion_Guitar_1,6,13,DL_deepemotion_Guitar_1,0.28303205966949463,0
57,100,0.31363636363636366,833,1,39,DL_deepemotion_Guitar_1,6,5,DL_deepemotion_Guitar_1,0.3195995092391968,0
62,100,0.2681818181818182,101,1,40,DL_deepemotion_Guitar_1,6,4,DL_deepemotion_Guitar_1,0.999804675579071,1
57,100,0.16818181818181818,165,0,40,DL_deepemotion_Guitar_1,6,3,DL_deepemotion_Guitar_1,0.12600195407867432,0
62,100,0.8136363636363636,293,0,40,DL_deepemotion_Guitar_1,6,13,DL_deepemotion_Guitar_1,0.11581197381019592,0
57,100,0.5818181818181818,476,0,40,DL_deepemotion_Guitar_1,6,9,DL_deepemotion_Guitar_1,0.1374213993549347,0
57,100,0.25,627,0,40,DL_deepemotion_Guitar_1,6,4,DL_deepemotion_Guitar_1,0.15426981449127197,0
57,100,0.2727272727272727,733,0,40,DL_deepemotion_Guitar_1,6,4,DL_deepemotion_Guitar_1,0.14068393409252167,0
57,100,0.31363636363636366,41,1,41,DL_deepemotion_Guitar_1,6,5,DL_deepemotion_Guitar_1,0.9997856020927429,1
57,100,0.2727272727272727,118,0,41,DL_deepemotion_Guitar_1,6,4,DL_deepemotion_Guitar_1,0.125700443983078,0
59,100,1.3772727272727272,197,0,41,DL_deepemotion_Guitar_1,6,15,DL_deepemotion_Guitar_1,0.10935529321432114,0
59,100,0.33181818181818185,627,1,41,DL_deepemotion_Guitar_1,6,5,DL_deepemotion_Guitar_1,0.15769940614700317,0
64,100,0.2909090909090909,723,0,41,DL_deepemotion_Guitar_1,6,5,DL_deepemotion_Guitar_1,0.15380458533763885,0
64,100,0.2909090909090909,806,0,41,DL_deepemotion_Guitar_1,6,5,DL_deepemotion_Guitar_1,0.14388680458068848,0
59,100,0.12727272727272726,18,1,42,DL_deepemotion_Guitar_1,6,2,DL_deepemotion_Guitar_1,0.99973064661026,1
52,100,0.2909090909090909,63,0,42,DL_deepemotion_Guitar_1,6,5,DL_deepemotion_Guitar_1,0.05370871722698212,0
62,100,0.12727272727272726,159,0,42,DL_deepemotion_Guitar_1,6,2,DL_deepemotion_Guitar_1,0.049050696194171906,0
57,100,0.2727272727272727,220,0,42,DL_deepemotion_Guitar_1,6,4,DL_deepemotion_Guitar_1,0.04593927785754204,0
57,100,0.6681818181818182,283,0,42,DL_deepemotion_Guitar_1,6,11,DL_deepemotion_Guitar_1,0.05081698298454285,0
57,100,0.43636363636363634,582,1,42,DL_deepemotion_Guitar_1,6,7,DL_deepemotion_Guitar_1,0.06328903883695602,0
57,100,0.39545454545454545,706,0,42,DL_deepemotion_Guitar_1,6,6,DL_deepemotion_Guitar_1,0.07292880117893219,0
57,100,0.25,838,0,42,DL_deepemotion_Guitar_1,6,4,DL_deepemotion_Guitar_1,0.06629449129104614,0
57,100,0.18636363636363637,101,1,43,DL_deepemotion_Guitar_1,6,3,DL_deepemotion_Guitar_1,0.9996185302734375,1
66,100,0.41818181818181815,214,0,43,DL_deepemotion_Guitar_1,6,7,DL_deepemotion_Guitar_1,0.548027753829956,0
62,100,0.12727272727272726,214,1,44,DL_deepemotion_Guitar_1,6,2,DL_deepemotion_Guitar_1,0.999840497970581,1
57,100,0.4772727272727273,242,0,44,DL_deepemotion_Guitar_1,6,8,DL_deepemotion_Guitar_1,0.19138717651367188,0
62,100,0.1,500,1,44,DL_deepemotion_Guitar_1,6,2,DL_deepemotion_Guitar_1,0.21712933480739594,0
62,100,0.10454545454545454,527,0,44,DL_deepemotion_Guitar_1,6,2,DL_deepemotion_Guitar_1,0.20321986079216003,0
62,100,0.25,816,1,44,DL_deepemotion_Guitar_1,6,4,DL_deepemotion_Guitar_1,0.20864881575107574,0
62,100,0.12272727272727273,146,1,45,DL_deepemotion_Guitar_1,6,2,DL_deepemotion_Guitar_1,0.9997768998146057,1
57,100,0.25,178,0,45,DL_deepemotion_Guitar_1,6,4,DL_deepemotion_Guitar_1,0.07577625662088394,0
62,100,0.9818181818181818,238,0,45,DL_deepemotion_Guitar_1,6,15,DL_deepemotion_Guitar_1,0.07153870165348053,0
66,100,0.20909090909090908,558,1,45,DL_deepemotion_Guitar_1,6,3,DL_deepemotion_Guitar_1,0.08799728751182556,0
66,100,0.20909090909090908,637,0,45,DL_deepemotion_Guitar_1,6,3,DL_deepemotion_Guitar_1,0.09619538486003876,0
66,100,0.16818181818181818,733,0,45,DL_deepemotion_Guitar_1,6,3,DL_deepemotion_Guitar_1,0.09912995249032974,0
62,100,0.5636363636363636,816,0,45,DL_deepemotion_Guitar_1,6,9,DL_deepemotion_Guitar_1,0.08683096617460251,0
57,100,0.35454545454545455,142,1,46,DL_deepemotion_Guitar_1,6,6,DL_deepemotion_Guitar_1,0.9998302459716797,1
57,100,0.25,269,0,46,DL_deepemotion_Guitar_1,6,4,DL_deepemotion_Guitar_1,0.21270206570625305,0
59,100,0.29545454545454547,434,0,46,DL_deepemotion_Guitar_1,6,5,DL_deepemotion_Guitar_1,0.20177382230758667,0
57,100,0.33636363636363636,503,0,46,DL_deepemotion_Guitar_1,6,5,DL_deepemotion_Guitar_1,0.2148590087890625,0
57,100,0.7318181818181818,723,0,46,DL_deepemotion_Guitar_1,6,12,DL_deepemotion_Guitar_1,0.20002900063991547,0
59,100,0.14545454545454545,701,1,47,DL_deepemotion_Guitar_1,6,2,DL_deepemotion_Guitar_1,0.9996480941772461,1
52,100,0.20909090909090908,747,0,47,DL_deepemotion_Guitar_1,6,3,DL_deepemotion_Guitar_1,0.5512437224388123,0
62,100,0.33181818181818185,220,1,48,DL_deepemotion_Guitar_1,6,5,DL_deepemotion_Guitar_1,0.9998268485069275,1
57,100,0.33181818181818185,531,1,48,DL_deepemotion_Guitar_1,6,5,DL_deepemotion_Guitar_1,0.40394794940948486,0
66,100,0.4590909090909091,756,0,48,DL_deepemotion_Guitar_1,6,7,DL_deepemotion_Guitar_1,0.43504416942596436,0
57,100,0.20454545454545456,555,1,49,DL_deepemotion_Guitar_1,6,3,DL_deepemotion_Guitar_1,0.999637246131897,1
59,100,0.16363636363636364,861,1,49,DL_deepemotion_Guitar_1,6,3,DL_deepemotion_Guitar_1,0.5526100397109985,0
57,100,1.9136363636363636,115,1,50,DL_deepemotion_Guitar_1,6,15,DL_deepemotion_Guitar_1,0.9994288086891174,1
52,100,0.9772727272727273,792,1,50,DL_deepemotion_Guitar_1,6,15,DL_deepemotion_Guitar_1,0.5809609889984131,0
66,100,0.22727272727272727,357,1,51,DL_deepemotion_Guitar_1,6,4,DL_deepemotion_Guitar_1,0.9931992888450623,0
57,100,0.10454545454545454,362,1,52,DL_deepemotion_Guitar_1,6,2,DL_deepemotion_Guitar_1,0.9998290538787842,1
62,100,0.5454545454545454,489,0,52,DL_deepemotion_Guitar_1,6,9,DL_deepemotion_Guitar_1,0.39821699261665344,0
62,100,0.35454545454545455,737,1,52,DL_deepemotion_Guitar_1,6,6,DL_deepemotion_Guitar_1,0.437712162733078,0
62,100,0.16818181818181818,128,1,53,DL_deepemotion_Guitar_1,6,3,DL_deepemotion_Guitar_1,0.999778687953949,1
62,100,0.12272727272727273,288,0,53,DL_deepemotion_Guitar_1,6,2,DL_deepemotion_Guitar_1,0.08041594922542572,0
62,100,0.2727272727272727,330,0,53,DL_deepemotion_Guitar_1,6,4,DL_deepemotion_Guitar_1,0.07417873293161392,0
54,100,0.39545454545454545,407,0,53,DL_deepemotion_Guitar_1,6,6,DL_deepemotion_Guitar_1,0.0782550796866417,0
54,100,0.1,500,0,53,DL_deepemotion_Guitar_1,6,2,DL_deepemotion_Guitar_1,0.09358017891645432,0
66,100,0.20909090909090908,701,0,53,DL_deepemotion_Guitar_1,6,3,DL_deepemotion_Guitar_1,0.0939212366938591,0
69,100,0.29545454545454547,764,0,53,DL_deepemotion_Guitar_1,6,5,DL_deepemotion_Guitar_1,0.08567653596401215,0
57,100,0.18636363636363637,187,1,54,DL_deepemotion_Guitar_1,6,3,DL_deepemotion_Guitar_1,0.9998528957366943,1
62,100,0.18636363636363637,673,1,54,DL_deepemotion_Guitar_1,6,3,DL_deepemotion_Guitar_1,0.3285123109817505,0
57,100,0.25,783,0,54,DL_deepemotion_Guitar_1,6,4,DL_deepemotion_Guitar_1,0.2841348648071289,0
57,100,1.0,852,0,54,DL_deepemotion_Guitar_1,6,15,DL_deepemotion_Guitar_1,0.3021899163722992,0
57,100,0.9545454545454546,201,1,55,DL_deepemotion_Guitar_1,6,15,DL_deepemotion_Guitar_1,0.9997968077659607,1
57,100,0.14545454545454545,421,0,55,DL_deepemotion_Guitar_1,6,2,DL_deepemotion_Guitar_1,0.4543188214302063,0
57,100,0.18636363636363637,462,0,55,DL_deepemotion_Guitar_1,6,3,DL_deepemotion_Guitar_1,0.4318466782569885,0
69,100,0.2727272727272727,489,1,57,DL_deepemotion_Guitar_1,6,4,DL_deepemotion_Guitar_1,0.9998182654380798,1
59,100,0.33181818181818185,618,0,57,DL_deepemotion_Guitar_1,6,5,DL_deepemotion_Guitar_1,0.41999512910842896,0
62,100,0.2681818181818182,783,0,57,DL_deepemotion_Guitar_1,6,4,DL_deepemotion_Guitar_1,0.4287630319595337,0
62,100,0.14545454545454545,641,1,58,DL_deepemotion_Guitar_1,6,2,DL_deepemotion_Guitar_1,0.9998373985290527,1
62,100,0.20909090909090908,728,0,58,DL_deepemotion_Guitar_1,6,3,DL_deepemotion_Guitar_1,0.4049912095069885,0
62,100,0.20909090909090908,843,0,58,DL_deepemotion_Guitar_1,6,3,DL_deepemotion_Guitar_1,0.42479100823402405,0
62,100,0.2681818181818182,115,1,59,DL_deepemotion_Guitar_1,6,4,DL_deepemotion_Guitar_1,0.9996370077133179,1
62,100,0.2727272727272727,183,0,59,DL_deepemotion_Guitar_1,6,4,DL_deepemotion_Guitar_1,0.5515836477279663,0
57,100,0.8954545454545455,555,1,63,DL_deepemotion_Guitar_1,6,14,DL_deepemotion_Guitar_1,0.9997928738594055,1
57,100,0.16818181818181818,764,0,63,DL_deepemotion_Guitar_1,6,3,DL_deepemotion_Guitar_1,0.45423251390457153,0
57,100,0.5454545454545454,819,0,63,DL_deepemotion_Guitar_1,6,9,DL_deepemotion_Guitar_1,0.42169007658958435,0
57,100,0.20909090909090908,100,1,64,DL_deepemotion_Guitar_1,6,3,DL_deepemotion_Guitar_1,0.9997935891151428,1
57,100,1.209090909090909,151,0,64,DL_deepemotion_Guitar_1,6,15,DL_deepemotion_Guitar_1,0.10929683595895767,0
57,100,0.35454545454545455,550,1,64,DL_deepemotion_Guitar_1,6,6,DL_deepemotion_Guitar_1,0.13892747461795807,0
57,100,0.2727272727272727,655,0,64,DL_deepemotion_Guitar_1,6,4,DL_deepemotion_Guitar_1,0.13824163377285004,0
57,100,0.31363636363636366,732,0,64,DL_deepemotion_Guitar_1,6,5,DL_deepemotion_Guitar_1,0.14814524352550507,0
57,100,0.4590909090909091,834,0,64,DL_deepemotion_Guitar_1,6,7,DL_deepemotion_Guitar_1,0.14003202319145203,0
62,100,0.39545454545454545,68,1,65,DL_deepemotion_Guitar_1,6,6,DL_deepemotion_Guitar_1,0.9997596144676208,1
57,100,0.6227272727272727,210,0,65,DL_deepemotion_Guitar_1,6,10,DL_deepemotion_Guitar_1,0.07998660951852798,0
57,100,0.20909090909090908,375,0,65,DL_deepemotion_Guitar_1,6,3,DL_deepemotion_Guitar_1,0.07679610699415207,0
52,100,0.18636363636363637,440,0,65,DL_deepemotion_Guitar_1,6,3,DL_deepemotion_Guitar_1,0.08545392751693726,0
52,100,0.20909090909090908,485,0,65,DL_deepemotion_Guitar_1,6,3,DL_deepemotion_Guitar_1,0.09247374534606934,0
57,100,0.20909090909090908,600,0,65,DL_deepemotion_Guitar_1,6,3,DL_deepemotion_Guitar_1,0.09330911189317703,0
57,100,0.75,724,0,65,DL_deepemotion_Guitar_1,6,12,DL_deepemotion_Guitar_1,0.08542222529649734,0
57,100,1.25,13,1,66,DL_deepemotion_Guitar_1,6,15,DL_deepemotion_Guitar_1,0.9997692704200745,1
62,100,0.45454545454545453,499,1,66,DL_deepemotion_Guitar_1,6,7,DL_deepemotion_Guitar_1,0.4720751941204071,0
57,100,0.8136363636363636,618,0,66,DL_deepemotion_Guitar_1,6,13,DL_deepemotion_Guitar_1,0.42892196774482727,0
62,100,0.5227272727272727,9,1,67,DL_deepemotion_Guitar_1,6,8,DL_deepemotion_Guitar_1,0.9997939467430115,1
57,100,0.14545454545454545,174,0,67,DL_deepemotion_Guitar_1,6,2,DL_deepemotion_Guitar_1,0.1427658498287201,0
62,100,0.5409090909090909,210,0,67,DL_deepemotion_Guitar_1,6,9,DL_deepemotion_Guitar_1,0.12771514058113098,0
57,100,0.33636363636363636,347,0,67,DL_deepemotion_Guitar_1,6,5,DL_deepemotion_Guitar_1,0.1406571865081787,0
57,100,0.5636363636363636,471,0,67,DL_deepemotion_Guitar_1,6,9,DL_deepemotion_Guitar_1,0.14487352967262268,0
57,100,1.790909090909091,618,0,67,DL_deepemotion_Guitar_1,6,15,DL_deepemotion_Guitar_1,0.13353729248046875,0
62,100,0.7090909090909091,408,1,68,DL_deepemotion_Guitar_1,6,11,DL_deepemotion_Guitar_1,0.9998345375061035,1
57,100,1.0227272727272727,567,0,68,DL_deepemotion_Guitar_1,6,15,DL_deepemotion_Guitar_1,0.30483177304267883,0
57,100,0.12272727272727273,797,0,68,DL_deepemotion_Guitar_1,6,2,DL_deepemotion_Guitar_1,0.32887113094329834,0
57,100,0.6863636363636364,862,0,68,DL_deepemotion_Guitar_1,6,11,DL_deepemotion_Guitar_1,0.3144082725048065,0
62,100,0.39545454545454545,141,1,69,DL_deepemotion_Guitar_1,6,6,DL_deepemotion_Guitar_1,0.999823272228241,1
62,100,0.9772727272727273,233,0,69,DL_deepemotion_Guitar_1,6,15,DL_deepemotion_Guitar_1,0.19922982156276703,0
62,100,0.20909090909090908,453,0,69,DL_deepemotion_Guitar_1,6,3,DL_deepemotion_Guitar_1,0.22749848663806915,0
57,100,0.10454545454545454,701,1,69,DL_deepemotion_Guitar_1,6,2,DL_deepemotion_Guitar_1,0.21876780688762665,0
62,100,0.7272727272727273,825,0,69,DL_deepemotion_Guitar_1,6,12,DL_deepemotion_Guitar_1,0.2045345902442932,0
62,100,0.12272727272727273,165,1,70,DL_deepemotion_Guitar_1,6,2,DL_deepemotion_Guitar_1,0.9998358488082886,1
62,100,0.33181818181818185,306,0,70,DL_deepemotion_Guitar_1,6,5,DL_deepemotion_Guitar_1,0.4057210385799408,0
62,100,0.9409090909090909,467,0,70,DL_deepemotion_Guitar_1,6,15,DL_deepemotion_Guitar_1,0.4134717285633087,0
59,100,0.5818181818181818,37,1,71,DL_deepemotion_Guitar_1,6,9,DL_deepemotion_Guitar_1,0.999836802482605,1
62,100,0.7318181818181818,316,1,71,DL_deepemotion_Guitar_1,6,12,DL_deepemotion_Guitar_1,0.33504432439804077,0
62,100,0.31363636363636366,481,0,71,DL_deepemotion_Guitar_1,6,5,DL_deepemotion_Guitar_1,0.3244016468524933,0
62,100,2.331818181818182,783,1,71,DL_deepemotion_Guitar_1,6,15,DL_deepemotion_Guitar_1,0.2877750098705292,0
62,100,0.31363636363636366,430,1,72,DL_deepemotion_Guitar_1,6,5,DL_deepemotion_Guitar_1,0.9998544454574585,1
62,100,0.5227272727272727,522,0,72,DL_deepemotion_Guitar_1,6,8,DL_deepemotion_Guitar_1,0.3095918893814087,0
57,100,0.18636363636363637,636,0,72,DL_deepemotion_Guitar_1,6,3,DL_deepemotion_Guitar_1,0.3072187602519989,0
57,100,0.5818181818181818,697,0,72,DL_deepemotion_Guitar_1,6,9,DL_deepemotion_Guitar_1,0.3003052771091461,0
57,100,0.35454545454545455,41,1,73,DL_deepemotion_Guitar_1,6,6,DL_deepemotion_Guitar_1,0.9997897744178772,1
62,100,0.37272727272727274,422,1,73,DL_deepemotion_Guitar_1,6,6,DL_deepemotion_Guitar_1,0.13462524116039276,0
62,100,0.16818181818181818,526,0,73,DL_deepemotion_Guitar_1,6,3,DL_deepemotion_Guitar_1,0.1272822618484497,0
57,100,0.37272727272727274,573,0,73,DL_deepemotion_Guitar_1,6,6,DL_deepemotion_Guitar_1,0.1315763294696808,0
55,100,0.12272727272727273,719,0,73,DL_deepemotion_Guitar_1,6,2,DL_deepemotion_Guitar_1,0.1523519903421402,0
59,100,0.35454545454545455,815,0,73,DL_deepemotion_Guitar_1,6,6,DL_deepemotion_Guitar_1,0.13183510303497314,0
59,100,0.2909090909090909,68,1,74,DL_deepemotion_Guitar_1,6,5,DL_deepemotion_Guitar_1,0.9998250603675842,1
62,100,0.6454545454545455,292,0,74,DL_deepemotion_Guitar_1,6,10,DL_deepemotion_Guitar_1,0.20320720970630646,0
59,100,0.6681818181818182,435,0,74,DL_deepemotion_Guitar_1,6,11,DL_deepemotion_Guitar_1,0.1974766105413437,0
71,100,0.14545454545454545,614,0,74,DL_deepemotion_Guitar_1,6,2,DL_deepemotion_Guitar_1,0.22625073790550232,0
61,100,0.37727272727272726,655,0,74,DL_deepemotion_Guitar_1,6,6,DL_deepemotion_Guitar_1,0.21318504214286804,0
62,100,0.6681818181818182,86,1,75,DL_deepemotion_Guitar_1,6,11,DL_deepemotion_Guitar_1,0.9998325109481812,1
62,100,1.3545454545454545,302,0,75,DL_deepemotion_Guitar_1,6,15,DL_deepemotion_Guitar_1,0.29436013102531433,0
62,100,0.5181818181818182,642,1,75,DL_deepemotion_Guitar_1,6,8,DL_deepemotion_Guitar_1,0.3385663628578186,0
57,100,0.7954545454545454,765,0,75,DL_deepemotion_Guitar_1,6,13,DL_deepemotion_Guitar_1,0.31734412908554077,0
62,100,1.1863636363636363,64,1,76,DL_deepemotion_Guitar_1,6,15,DL_deepemotion_Guitar_1,0.9998103976249695,1
57,100,0.6272727272727273,325,1,76,DL_deepemotion_Guitar_1,6,10,DL_deepemotion_Guitar_1,0.3438989520072937,0
62,100,0.8954545454545455,554,0,76,DL_deepemotion_Guitar_1,6,14,DL_deepemotion_Guitar_1,0.3124813139438629,0
57,100,1.0,765,0,76,DL_deepemotion_Guitar_1,6,15,DL_deepemotion_Guitar_1,0.32775911688804626,0
62,100,0.14545454545454545,110,1,77,DL_deepemotion_Guitar_1,6,2,DL_deepemotion_Guitar_1,0.9997685551643372,1
57,100,0.4818181818181818,160,0,77,DL_deepemotion_Guitar_1,6,8,DL_deepemotion_Guitar_1,0.07592526078224182,0
62,100,0.10454545454545454,265,0,77,DL_deepemotion_Guitar_1,6,2,DL_deepemotion_Guitar_1,0.07767752557992935,0
57,100,0.18636363636363637,361,0,77,DL_deepemotion_Guitar_1,6,3,DL_deepemotion_Guitar_1,0.07787208259105682,0
62,100,0.5818181818181818,416,0,77,DL_deepemotion_Guitar_1,6,9,DL_deepemotion_Guitar_1,0.09097173064947128,0
57,100,0.37727272727272726,559,0,77,DL_deepemotion_Guitar_1,6,6,DL_deepemotion_Guitar_1,0.09682010859251022,0
54,100,0.12272727272727273,797,1,77,DL_deepemotion_Guitar_1,6,2,DL_deepemotion_Guitar_1,0.09373375028371811,0
62,100,0.6045454545454545,147,1,78,DL_deepemotion_Guitar_1,6,10,DL_deepemotion_Guitar_1,0.9998346567153931,1
62,100,0.8318181818181818,389,1,78,DL_deepemotion_Guitar_1,6,13,DL_deepemotion_Guitar_1,0.3392297029495239,0
57,100,0.29545454545454547,742,1,78,DL_deepemotion_Guitar_1,6,5,DL_deepemotion_Guitar_1,0.31418928503990173,0
62,100,1.8545454545454545,852,0,78,DL_deepemotion_Guitar_1,6,15,DL_deepemotion_Guitar_1,0.29881513118743896,0
62,100,0.8363636363636363,402,1,79,DL_deepemotion_Guitar_1,6,13,DL_deepemotion_Guitar_1,0.9998371601104736,1
59,100,0.14545454545454545,669,1,79,DL_deepemotion_Guitar_1,6,2,DL_deepemotion_Guitar_1,0.3545011281967163,0
62,100,0.5227272727272727,710,0,79,DL_deepemotion_Guitar_1,6,8,DL_deepemotion_Guitar_1,0.3013877868652344,0
52,100,1.309090909090909,829,0,79,DL_deepemotion_Guitar_1,6,15,DL_deepemotion_Guitar_1,0.29633045196533203,0
62,100,0.6681818181818182,237,1,80,DL_deepemotion_Guitar_1,6,11,DL_deepemotion_Guitar_1,0.999842643737793,1
57,100,0.2909090909090909,614,1,80,DL_deepemotion_Guitar_1,6,5,DL_deepemotion_Guitar_1,0.32711079716682434,0
57,100,0.12727272727272726,724,0,80,DL_deepemotion_Guitar_1,6,2,DL_deepemotion_Guitar_1,0.3074588477611542,0
57,100,0.18636363636363637,793,0,80,DL_deepemotion_Guitar_1,6,3,DL_deepemotion_Guitar_1,0.30762967467308044,0
57,100,0.35454545454545455,192,1,81,DL_deepemotion_Guitar_1,6,6,DL_deepemotion_Guitar_1,0.9995970129966736,1
57,100,0.22727272727272727,275,0,81,DL_deepemotion_Guitar_1,6,4,DL_deepemotion_Guitar_1,0.5527289509773254,0
57,100,0.14545454545454545,563,1,83,DL_deepemotion_Guitar_1,6,2,DL_deepemotion_Guitar_1,0.9998179078102112,1
57,100,0.20454545454545456,664,0,83,DL_deepemotion_Guitar_1,6,3,DL_deepemotion_Guitar_1,0.4225414991378784,0
57,100,0.10454545454545454,728,0,83,DL_deepemotion_Guitar_1,6,2,DL_deepemotion_Guitar_1,0.4294978678226471,0
64,100,0.6454545454545455,169,1,84,DL_deepemotion_Guitar_1,6,10,DL_deepemotion_Guitar_1,0.9998538494110107,1
57,100,0.33181818181818185,389,0,84,DL_deepemotion_Guitar_1,6,5,DL_deepemotion_Guitar_1,0.31962618231773376,0
64,100,0.6045454545454545,567,0,84,DL_deepemotion_Guitar_1,6,10,DL_deepemotion_Guitar_1,0.28829970955848694,0
57,100,0.33636363636363636,701,0,84,DL_deepemotion_Guitar_1,6,5,DL_deepemotion_Guitar_1,0.3080747127532959,0
54,100,0.1,27,1,85,DL_deepemotion_Guitar_1,6,2,DL_deepemotion_Guitar_1,0.9998444318771362,1
62,100,0.18636363636363637,247,0,85,DL_deepemotion_Guitar_1,6,3,DL_deepemotion_Guitar_1,0.21062573790550232,0
62,100,0.12272727272727273,298,0,85,DL_deepemotion_Guitar_1,6,2,DL_deepemotion_Guitar_1,0.2025514543056488,0
62,100,2.331818181818182,334,0,85,DL_deepemotion_Guitar_1,6,15,DL_deepemotion_Guitar_1,0.17380596697330475,0
57,100,0.2727272727272727,848,1,85,DL_deepemotion_Guitar_1,6,4,DL_deepemotion_Guitar_1,0.24061593413352966,0
62,100,0.14545454545454545,68,1,86,DL_deepemotion_Guitar_1,6,2,DL_deepemotion_Guitar_1,0.9998421669006348,1
62,100,1.5,105,0,86,DL_deepemotion_Guitar_1,6,15,DL_deepemotion_Guitar_1,0.27627307176589966,0
62,100,1.2727272727272727,440,1,86,DL_deepemotion_Guitar_1,6,15,DL_deepemotion_Guitar_1,0.31097114086151123,0
62,100,0.2909090909090909,756,1,86,DL_deepemotion_Guitar_1,6,5,DL_deepemotion_Guitar_1,0.35523751378059387,0
62,100,0.12727272727272726,31,1,87,DL_deepemotion_Guitar_1,6,2,DL_deepemotion_Guitar_1,0.9998345375061035,1
52,100,0.8545454545454545,72,0,87,DL_deepemotion_Guitar_1,6,14,DL_deepemotion_Guitar_1,0.19783936440944672,0
62,100,1.5636363636363637,306,1,87,DL_deepemotion_Guitar_1,6,15,DL_deepemotion_Guitar_1,0.18341641128063202,0
62,100,0.5636363636363636,746,1,87,DL_deepemotion_Guitar_1,6,9,DL_deepemotion_Guitar_1,0.2484641820192337,0
57,100,0.2727272727272727,875,0,87,DL_deepemotion_Guitar_1,6,4,DL_deepemotion_Guitar_1,0.2243257313966751,0
62,100,0.12272727272727273,78,1,88,DL_deepemotion_Guitar_1,6,2,DL_deepemotion_Guitar_1,0.9998452663421631,1
57,100,0.22727272727272727,243,0,88,DL_deepemotion_Guitar_1,6,4,DL_deepemotion_Guitar_1,0.19792474806308746,0
57,100,0.22727272727272727,312,0,88,DL_deepemotion_Guitar_1,6,4,DL_deepemotion_Guitar_1,0.1995592713356018,0
62,100,0.20454545454545456,367,0,88,DL_deepemotion_Guitar_1,6,3,DL_deepemotion_Guitar_1,0.21009550988674164,0
62,100,0.31363636363636366,467,0,88,DL_deepemotion_Guitar_1,6,5,DL_deepemotion_Guitar_1,0.20127737522125244,0
62,100,0.25,45,1,89,DL_deepemotion_Guitar_1,6,4,DL_deepemotion_Guitar_1,0.9997150301933289,1
59,100,0.12272727272727273,224,0,89,DL_deepemotion_Guitar_1,6,2,DL_deepemotion_Guitar_1,0.04307670518755913,0
59,100,0.5181818181818182,257,0,89,DL_deepemotion_Guitar_1,6,8,DL_deepemotion_Guitar_1,0.03138715401291847,0
62,100,0.12727272727272726,380,0,89,DL_deepemotion_Guitar_1,6,2,DL_deepemotion_Guitar_1,0.03343620523810387,0
62,100,1.1272727272727272,449,0,89,DL_deepemotion_Guitar_1,6,15,DL_deepemotion_Guitar_1,0.027110813185572624,0
62,100,0.10454545454545454,701,1,89,DL_deepemotion_Guitar_1,6,2,DL_deepemotion_Guitar_1,0.040234848856925964,0
62,100,0.20909090909090908,728,0,89,DL_deepemotion_Guitar_1,6,3,DL_deepemotion_Guitar_1,0.04226786270737648,0
62,100,0.16818181818181818,801,0,89,DL_deepemotion_Guitar_1,6,3,DL_deepemotion_Guitar_1,0.050360169261693954,0
59,100,0.4590909090909091,838,0,89,DL_deepemotion_Guitar_1,6,7,DL_deepemotion_Guitar_1,0.04646352306008339,0
57,100,0.19090909090909092,105,1,90,DL_deepemotion_Guitar_1,6,3,DL_deepemotion_Guitar_1,0.9997981190681458,1
64,100,0.2681818181818182,202,0,90,DL_deepemotion_Guitar_1,6,4,DL_deepemotion_Guitar_1,0.13024528324604034,0
57,100,0.37727272727272726,325,0,90,DL_deepemotion_Guitar_1,6,6,DL_deepemotion_Guitar_1,0.11564771831035614,0
64,100,1.018181818181818,563,1,90,DL_deepemotion_Guitar_1,6,15,DL_deepemotion_Guitar_1,0.12966758012771606,0
57,100,0.37727272727272726,787,0,90,DL_deepemotion_Guitar_1,6,6,DL_deepemotion_Guitar_1,0.15646955370903015,0
64,100,0.2727272727272727,875,0,90,DL_deepemotion_Guitar_1,6,4,DL_deepemotion_Guitar_1,0.1465000957250595,0
57,100,0.1,59,1,91,DL_deepemotion_Guitar_1,6,2,DL_deepemotion_Guitar_1,0.9998470544815063,1
62,100,0.16818181818181818,416,1,91,DL_deepemotion_Guitar_1,6,3,DL_deepemotion_Guitar_1,0.33700138330459595,0
62,100,0.20909090909090908,618,0,91,DL_deepemotion_Guitar_1,6,3,DL_deepemotion_Guitar_1,0.2902798652648926,0
62,100,0.18636363636363637,669,0,91,DL_deepemotion_Guitar_1,6,3,DL_deepemotion_Guitar_1,0.30490705370903015,0
57,100,0.20909090909090908,23,1,92,DL_deepemotion_Guitar_1,6,3,DL_deepemotion_Guitar_1,0.99972003698349,1
64,100,1.0863636363636364,151,0,92,DL_deepemotion_Guitar_1,6,15,DL_deepemotion_Guitar_1,0.05319633707404137,0
64,100,0.10454545454545454,394,1,92,DL_deepemotion_Guitar_1,6,2,DL_deepemotion_Guitar_1,0.05389820411801338,0
64,100,0.12727272727272726,426,0,92,DL_deepemotion_Guitar_1,6,2,DL_deepemotion_Guitar_1,0.05015886202454567,0
57,100,0.10454545454545454,526,0,92,DL_deepemotion_Guitar_1,6,2,DL_deepemotion_Guitar_1,0.050601113587617874,0
64,100,0.14545454545454545,614,0,92,DL_deepemotion_Guitar_1,6,2,DL_deepemotion_Guitar_1,0.06295063346624374,0
64,100,0.7909090909090909,650,0,92,DL_deepemotion_Guitar_1,6,13,DL_deepemotion_Guitar_1,0.06289654225111008,0
57,100,0.5409090909090909,825,0,92,DL_deepemotion_Guitar_1,6,9,DL_deepemotion_Guitar_1,0.060230810195207596,0
62,100,1.040909090909091,114,1,93,DL_deepemotion_Guitar_1,6,15,DL_deepemotion_Guitar_1,0.9995244741439819,1
59,100,1.0636363636363637,375,1,93,DL_deepemotion_Guitar_1,6,15,DL_deepemotion_Guitar_1,0.55656898021698,0
62,100,0.7045454545454546,4,1,94,DL_deepemotion_Guitar_1,6,11,DL_deepemotion_Guitar_1,0.9998303651809692,1
55,100,0.18636363636363637,196,0,94,DL_deepemotion_Guitar_1,6,3,DL_deepemotion_Guitar_1,0.35575616359710693,0
59,100,0.2318181818181818,316,0,94,DL_deepemotion_Guitar_1,6,4,DL_deepemotion_Guitar_1,0.29616427421569824,0
59,100,0.43636363636363634,532,0,94,DL_deepemotion_Guitar_1,6,7,DL_deepemotion_Guitar_1,0.3084058463573456,0
64,100,0.33636363636363636,50,1,95,DL_deepemotion_Guitar_1,6,5,DL_deepemotion_Guitar_1,0.9998337030410767,1
66,100,0.12272727272727273,312,1,95,DL_deepemotion_Guitar_1,6,2,DL_deepemotion_Guitar_1,0.4158993363380432,0
62,100,0.20909090909090908,495,0,95,DL_deepemotion_Guitar_1,6,3,DL_deepemotion_Guitar_1,0.424378901720047,0
66,100,0.41818181818181815,408,1,97,DL_deepemotion_Guitar_1,6,7,DL_deepemotion_Guitar_1,0.9996060729026794,1
66,100,0.8363636363636363,504,0,97,DL_deepemotion_Guitar_1,6,13,DL_deepemotion_Guitar_1,0.5450286865234375,0
66,100,0.35,27,1,98,DL_deepemotion_Guitar_1,6,6,DL_deepemotion_Guitar_1,0.9998377561569214,1
62,100,0.22727272727272727,196,0,98,DL_deepemotion_Guitar_1,6,4,DL_deepemotion_Guitar_1,0.21906818449497223,0
62,100,0.14545454545454545,292,0,98,DL_deepemotion_Guitar_1,6,2,DL_deepemotion_Guitar_1,0.20189417898654938,0
55,100,0.2909090909090909,536,1,98,DL_deepemotion_Guitar_1,6,5,DL_deepemotion_Guitar_1,0.20182089507579803,0
55,100,1.0818181818181818,605,0,98,DL_deepemotion_Guitar_1,6,15,DL_deepemotion_Guitar_1,0.1975579708814621,0
62,100,0.16818181818181818,100,1,99,DL_deepemotion_Guitar_1,6,3,DL_deepemotion_Guitar_1,0.9998548030853271,1
62,100,0.5818181818181818,141,0,99,DL_deepemotion_Guitar_1,6,9,DL_deepemotion_Guitar_1,0.29778075218200684,0
66,100,0.8545454545454545,375,1,99,DL_deepemotion_Guitar_1,6,14,DL_deepemotion_Guitar_1,0.2895204424858093,0
66,100,0.18636363636363637,609,1,99,DL_deepemotion_Guitar_1,6,3,DL_deepemotion_Guitar_1,0.3306681215763092,0
62,100,0.19090909090909092,347,1,100,DL_deepemotion_Guitar_1,6,3,DL_deepemotion_Guitar_1,0.9998369216918945,1
62,100,0.6863636363636364,408,0,100,DL_deepemotion_Guitar_1,6,11,DL_deepemotion_Guitar_1,0.1982594132423401,0
62,100,0.12272727272727273,587,0,100,DL_deepemotion_Guitar_1,6,2,DL_deepemotion_Guitar_1,0.20827651023864746,0
62,100,0.19090909090909092,677,0,100,DL_deepemotion_Guitar_1,6,3,DL_deepemotion_Guitar_1,0.21156154572963715,0
64,100,0.2727272727272727,724,0,100,DL_deepemotion_Guitar_1,6,4,DL_deepemotion_Guitar_1,0.20829473435878754,0
64,100,0.25,92,1,101,DL_deepemotion_Guitar_1,6,4,DL_deepemotion_Guitar_1,0.9998418092727661,1
52,100,0.18636363636363637,224,0,101,DL_deepemotion_Guitar_1,6,3,DL_deepemotion_Guitar_1,0.2142784744501114,0
54,100,0.9181818181818182,298,0,101,DL_deepemotion_Guitar_1,6,15,DL_deepemotion_Guitar_1,0.1782950907945633,0
66,100,0.10454545454545454,614,1,101,DL_deepemotion_Guitar_1,6,2,DL_deepemotion_Guitar_1,0.22851423919200897,0
54,100,0.43636363636363634,801,0,101,DL_deepemotion_Guitar_1,6,7,DL_deepemotion_Guitar_1,0.20215032994747162,0
62,100,0.5227272727272727,165,1,102,DL_deepemotion_Guitar_1,6,8,DL_deepemotion_Guitar_1,0.9995624423027039,1
55,100,1.7727272727272727,306,0,102,DL_deepemotion_Guitar_1,6,15,DL_deepemotion_Guitar_1,0.5251612663269043,0
62,100,0.22727272727272727,45,1,103,DL_deepemotion_Guitar_1,6,4,DL_deepemotion_Guitar_1,0.9998606443405151,1
62,100,0.10454545454545454,302,1,103,DL_deepemotion_Guitar_1,6,2,DL_deepemotion_Guitar_1,0.3184363543987274,0
62,100,0.6909090909090909,622,1,103,DL_deepemotion_Guitar_1,6,11,DL_deepemotion_Guitar_1,0.2813206911087036,0
57,100,0.16363636363636364,783,0,103,DL_deepemotion_Guitar_1,6,3,DL_deepemotion_Guitar_1,0.3146750032901764,0
62,100,0.5818181818181818,210,1,104,DL_deepemotion_Guitar_1,6,9,DL_deepemotion_Guitar_1,0.9998170733451843,1
62,100,1.1681818181818182,526,1,104,DL_deepemotion_Guitar_1,6,15,DL_deepemotion_Guitar_1,0.38293612003326416,0
62,100,0.35454545454545455,866,1,104,DL_deepemotion_Guitar_1,6,6,DL_deepemotion_Guitar_1,0.45897579193115234,0
64,100,0.2727272727272727,96,1,105,DL_deepemotion_Guitar_1,6,4,DL_deepemotion_Guitar_1,0.999809205532074,1
62,100,0.6909090909090909,206,0,105,DL_deepemotion_Guitar_1,6,11,DL_deepemotion_Guitar_1,0.1184338927268982,0
62,100,0.19090909090909092,380,0,105,DL_deepemotion_Guitar_1,6,3,DL_deepemotion_Guitar_1,0.13021185994148254,0
62,100,1.040909090909091,426,0,105,DL_deepemotion_Guitar_1,6,15,DL_deepemotion_Guitar_1,0.12562210857868195,0
66,100,0.22727272727272727,660,1,105,DL_deepemotion_Guitar_1,6,4,DL_deepemotion_Guitar_1,0.15858367085456848,0
66,100,0.41818181818181815,715,0,105,DL_deepemotion_Guitar_1,6,7,DL_deepemotion_Guitar_1,0.1327393651008606,0
66,100,0.20909090909090908,320,1,106,DL_deepemotion_Guitar_1,6,3,DL_deepemotion_Guitar_1,0.9998317956924438,1
62,100,0.22727272727272727,697,1,106,DL_deepemotion_Guitar_1,6,4,DL_deepemotion_Guitar_1,0.4135579466819763,0
62,100,0.12727272727272726,811,0,106,DL_deepemotion_Guitar_1,6,2,DL_deepemotion_Guitar_1,0.42608368396759033,0
62,100,0.6454545454545455,265,1,108,DL_deepemotion_Guitar_1,6,10,DL_deepemotion_Guitar_1,0.9925111532211304,1
52,100,1.2363636363636363,127,1,13,DL_deepemotion_Guitar,6,15,DL_deepemotion_Guitar,0.9911807179450989,0
62,100,0.2,206,1,15,DL_deepemotion_Guitar,6,3,DL_deepemotion_Guitar,0.9996446371078491,1
62,100,0.4590909090909091,352,0,15,DL_deepemotion_Guitar,6,7,DL_deepemotion_Guitar,0.5431510806083679,0
62,100,0.4409090909090909,88,1,17,DL_deepemotion_Guitar,6,7,DL_deepemotion_Guitar,0.9996040463447571,1
62,100,0.36363636363636365,202,0,17,DL_deepemotion_Guitar,6,6,DL_deepemotion_Guitar,0.5544618368148804,0
57,100,0.8772727272727273,470,1,18,DL_deepemotion_Guitar,6,14,DL_deepemotion_Guitar,0.999471127986908,1
52,100,2.2409090909090907,839,1,18,DL_deepemotion_Guitar,6,15,DL_deepemotion_Guitar,0.5423537492752075,0
62,100,0.5,453,1,19,DL_deepemotion_Guitar,6,8,DL_deepemotion_Guitar,0.9998248219490051,1
62,100,0.2,576,0,19,DL_deepemotion_Guitar,6,3,DL_deepemotion_Guitar,0.42429760098457336,0
52,100,0.32272727272727275,694,0,19,DL_deepemotion_Guitar,6,5,DL_deepemotion_Guitar,0.42935168743133545,0
58,100,0.7,422,1,20,DL_deepemotion_Guitar,6,11,DL_deepemotion_Guitar,0.9995028972625732,1
58,100,0.5,656,1,20,DL_deepemotion_Guitar,6,8,DL_deepemotion_Guitar,0.5675541758537292,0
57,100,0.1590909090909091,210,1,21,DL_deepemotion_Guitar,6,3,DL_deepemotion_Guitar,0.9996435642242432,1
57,100,0.1590909090909091,453,1,21,DL_deepemotion_Guitar,6,3,DL_deepemotion_Guitar,0.5420919060707092,0
66,100,0.2590909090909091,9,1,22,DL_deepemotion_Guitar,6,4,DL_deepemotion_Guitar,0.999849796295166,1
66,100,0.1409090909090909,79,0,22,DL_deepemotion_Guitar,6,2,DL_deepemotion_Guitar,0.33331549167633057,0
64,100,0.1409090909090909,320,1,22,DL_deepemotion_Guitar,6,2,DL_deepemotion_Guitar,0.2970995306968689,0
62,100,0.4,835,1,22,DL_deepemotion_Guitar,6,6,DL_deepemotion_Guitar,0.2950142025947571,0
62,100,0.11818181818181818,216,1,23,DL_deepemotion_Guitar,6,2,DL_deepemotion_Guitar,0.9996479749679565,1
57,100,0.2,382,0,23,DL_deepemotion_Guitar,6,3,DL_deepemotion_Guitar,0.5448009371757507,0
61,100,0.3,497,1,24,DL_deepemotion_Guitar,6,5,DL_deepemotion_Guitar,0.9998226761817932,1
61,100,0.7181818181818181,615,0,24,DL_deepemotion_Guitar,6,11,DL_deepemotion_Guitar,0.39337626099586487,0
61,100,0.35909090909090907,787,0,24,DL_deepemotion_Guitar,6,6,DL_deepemotion_Guitar,0.4391622543334961,0
61,100,0.2590909090909091,233,1,25,DL_deepemotion_Guitar,6,4,DL_deepemotion_Guitar,0.9996010661125183,1
61,100,0.9590909090909091,480,1,25,DL_deepemotion_Guitar,6,15,DL_deepemotion_Guitar,0.5394049882888794,0
66,100,0.2590909090909091,171,1,26,DL_deepemotion_Guitar,6,4,DL_deepemotion_Guitar,0.999610960483551,1
66,100,0.4590909090909091,347,0,26,DL_deepemotion_Guitar,6,7,DL_deepemotion_Guitar,0.546599805355072,0
57,100,0.16363636363636364,3,1,27,DL_deepemotion_Guitar,6,3,DL_deepemotion_Guitar,0.9998249411582947,1
66,100,0.43636363636363634,150,0,27,DL_deepemotion_Guitar,6,7,DL_deepemotion_Guitar,0.40317976474761963,0
57,100,0.1590909090909091,430,1,27,DL_deepemotion_Guitar,6,3,DL_deepemotion_Guitar,0.4338569641113281,0
57,100,0.2409090909090909,75,1,28,DL_deepemotion_Guitar,6,4,DL_deepemotion_Guitar,0.9997994303703308,1
64,100,0.4818181818181818,154,0,28,DL_deepemotion_Guitar,6,8,DL_deepemotion_Guitar,0.13038747012615204,0
64,100,0.2409090909090909,285,0,28,DL_deepemotion_Guitar,6,4,DL_deepemotion_Guitar,0.12718164920806885,0
64,100,0.11818181818181818,370,0,28,DL_deepemotion_Guitar,6,2,DL_deepemotion_Guitar,0.1432161182165146,0
61,100,0.9590909090909091,501,0,28,DL_deepemotion_Guitar,6,15,DL_deepemotion_Guitar,0.1301451325416565,0
57,100,0.4,831,1,28,DL_deepemotion_Guitar,6,6,DL_deepemotion_Guitar,0.13870865106582642,0
57,100,0.12272727272727273,48,1,29,DL_deepemotion_Guitar,6,2,DL_deepemotion_Guitar,0.9997714161872864,1
64,100,0.1590909090909091,119,0,29,DL_deepemotion_Guitar,6,3,DL_deepemotion_Guitar,0.08224260061979294,0
57,100,0.1590909090909091,395,1,29,DL_deepemotion_Guitar,6,3,DL_deepemotion_Guitar,0.07062322646379471,0
61,100,0.1,509,0,29,DL_deepemotion_Guitar,6,2,DL_deepemotion_Guitar,0.08046974241733551,0
57,100,0.38181818181818183,540,0,29,DL_deepemotion_Guitar,6,6,DL_deepemotion_Guitar,0.08338270336389542,0
62,100,0.5409090909090909,708,0,29,DL_deepemotion_Guitar,6,9,DL_deepemotion_Guitar,0.09488829970359802,0
62,100,0.1409090909090909,866,0,29,DL_deepemotion_Guitar,6,2,DL_deepemotion_Guitar,0.08740142732858658,0
62,100,0.9590909090909091,21,1,30,DL_deepemotion_Guitar,6,15,DL_deepemotion_Guitar,0.9998258948326111,1
54,100,0.3,374,1,30,DL_deepemotion_Guitar,6,5,DL_deepemotion_Guitar,0.35153234004974365,0
62,100,0.2,474,0,30,DL_deepemotion_Guitar,6,3,DL_deepemotion_Guitar,0.2999098300933838,0
62,100,0.4,523,0,30,DL_deepemotion_Guitar,6,6,DL_deepemotion_Guitar,0.31738224625587463,0
62,100,0.38181818181818183,0,1,31,DL_deepemotion_Guitar,6,6,DL_deepemotion_Guitar,0.9996744394302368,1
62,100,0.21818181818181817,96,0,31,DL_deepemotion_Guitar,6,3,DL_deepemotion_Guitar,0.037264157086610794,0
62,100,0.13636363636363635,150,0,31,DL_deepemotion_Guitar,6,2,DL_deepemotion_Guitar,0.026061981916427612,0
62,100,0.18181818181818182,202,0,31,DL_deepemotion_Guitar,6,3,DL_deepemotion_Guitar,0.021396826952695847,0
57,100,0.41818181818181815,264,0,31,DL_deepemotion_Guitar,6,7,DL_deepemotion_Guitar,0.01880628429353237,0
62,100,0.35909090909090907,360,0,31,DL_deepemotion_Guitar,6,6,DL_deepemotion_Guitar,0.02115088514983654,0
57,100,0.2,457,0,31,DL_deepemotion_Guitar,6,3,DL_deepemotion_Guitar,0.02410176955163479,0
62,100,0.2636363636363636,532,0,31,DL_deepemotion_Guitar,6,4,DL_deepemotion_Guitar,0.030324574559926987,0
62,100,1.059090909090909,615,0,31,DL_deepemotion_Guitar,6,15,DL_deepemotion_Guitar,0.035624727606773376,0
62,100,0.1,853,1,31,DL_deepemotion_Guitar,6,2,DL_deepemotion_Guitar,0.04449555277824402,0
62,100,0.8,0,1,32,DL_deepemotion_Guitar,6,13,DL_deepemotion_Guitar,0.9998014569282532,1
62,100,0.12272727272727273,584,1,32,DL_deepemotion_Guitar,6,2,DL_deepemotion_Guitar,0.4613940119743347,0
57,100,1.3181818181818181,713,0,32,DL_deepemotion_Guitar,6,15,DL_deepemotion_Guitar,0.40793377161026,0
57,100,0.4772727272727273,206,1,33,DL_deepemotion_Guitar,6,8,DL_deepemotion_Guitar,0.9998341798782349,1
57,100,0.9772727272727273,316,0,33,DL_deepemotion_Guitar,6,15,DL_deepemotion_Guitar,0.3001977205276489,0
57,100,0.2636363636363636,554,1,33,DL_deepemotion_Guitar,6,4,DL_deepemotion_Guitar,0.3237161934375763,0
62,100,0.6818181818181818,804,1,33,DL_deepemotion_Guitar,6,11,DL_deepemotion_Guitar,0.3154386878013611,0
62,100,0.2,78,1,34,DL_deepemotion_Guitar,6,3,DL_deepemotion_Guitar,0.999657392501831,1
57,100,0.22272727272727272,861,1,34,DL_deepemotion_Guitar,6,4,DL_deepemotion_Guitar,0.5462058186531067,0
62,100,0.22272727272727272,136,1,35,DL_deepemotion_Guitar,6,4,DL_deepemotion_Guitar,0.9998078942298889,1
62,100,0.2818181818181818,431,1,35,DL_deepemotion_Guitar,6,5,DL_deepemotion_Guitar,0.13147804141044617,0
62,100,0.12272727272727273,509,0,35,DL_deepemotion_Guitar,6,2,DL_deepemotion_Guitar,0.12498129904270172,0
62,100,0.1409090909090909,541,0,35,DL_deepemotion_Guitar,6,2,DL_deepemotion_Guitar,0.13176673650741577,0
64,100,0.1409090909090909,713,0,35,DL_deepemotion_Guitar,6,2,DL_deepemotion_Guitar,0.14749707281589508,0
57,100,0.3,796,0,35,DL_deepemotion_Guitar,6,5,DL_deepemotion_Guitar,0.12536102533340454,0
57,100,0.2409090909090909,114,1,36,DL_deepemotion_Guitar,6,4,DL_deepemotion_Guitar,0.9997618794441223,1
57,100,0.1590909090909091,176,0,36,DL_deepemotion_Guitar,6,3,DL_deepemotion_Guitar,0.07972946763038635,0
57,100,0.21818181818181817,220,0,36,DL_deepemotion_Guitar,6,3,DL_deepemotion_Guitar,0.07485219091176987,0
57,100,0.21818181818181817,281,0,36,DL_deepemotion_Guitar,6,3,DL_deepemotion_Guitar,0.08070886135101318,0
64,100,0.12272727272727273,334,0,36,DL_deepemotion_Guitar,6,2,DL_deepemotion_Guitar,0.09844063222408295,0
57,100,1.240909090909091,408,0,36,DL_deepemotion_Guitar,6,15,DL_deepemotion_Guitar,0.08205217123031616,0
64,100,0.5409090909090909,681,1,36,DL_deepemotion_Guitar,6,9,DL_deepemotion_Guitar,0.10164842754602432,0
64,100,0.4590909090909091,220,1,37,DL_deepemotion_Guitar,6,7,DL_deepemotion_Guitar,0.9998522996902466,1
62,100,0.1409090909090909,396,0,37,DL_deepemotion_Guitar,6,2,DL_deepemotion_Guitar,0.3258173167705536,0
59,100,0.2,686,1,37,DL_deepemotion_Guitar,6,3,DL_deepemotion_Guitar,0.29316434264183044,0
62,100,0.8,861,0,37,DL_deepemotion_Guitar,6,13,DL_deepemotion_Guitar,0.29972580075263977,0
57,100,0.3,308,1,38,DL_deepemotion_Guitar,6,5,DL_deepemotion_Guitar,0.9998268485069275,1
62,100,0.2590909090909091,448,0,38,DL_deepemotion_Guitar,6,4,DL_deepemotion_Guitar,0.21679140627384186,0
57,100,0.16363636363636364,509,0,38,DL_deepemotion_Guitar,6,3,DL_deepemotion_Guitar,0.2018229216337204,0
62,100,0.7772727272727272,633,0,38,DL_deepemotion_Guitar,6,12,DL_deepemotion_Guitar,0.20005762577056885,0
57,100,0.5590909090909091,810,0,38,DL_deepemotion_Guitar,6,9,DL_deepemotion_Guitar,0.209276020526886,0
57,100,0.2409090909090909,75,1,39,DL_deepemotion_Guitar,6,4,DL_deepemotion_Guitar,0.9998302459716797,1
57,100,0.2590909090909091,176,0,39,DL_deepemotion_Guitar,6,4,DL_deepemotion_Guitar,0.2100544422864914,0
57,100,0.3,356,0,39,DL_deepemotion_Guitar,6,5,DL_deepemotion_Guitar,0.205535426735878,0
57,100,0.2590909090909091,431,0,39,DL_deepemotion_Guitar,6,4,DL_deepemotion_Guitar,0.21773535013198853,0
59,100,1.3181818181818181,506,0,39,DL_deepemotion_Guitar,6,15,DL_deepemotion_Guitar,0.19539308547973633,0
59,100,0.3181818181818182,40,1,40,DL_deepemotion_Guitar,6,5,DL_deepemotion_Guitar,0.9996830224990845,1
64,100,0.2818181818181818,131,0,40,DL_deepemotion_Guitar,6,5,DL_deepemotion_Guitar,0.04581082984805107,0
64,100,0.2818181818181818,211,0,40,DL_deepemotion_Guitar,6,5,DL_deepemotion_Guitar,0.033041760325431824,0
59,100,0.12272727272727273,298,0,40,DL_deepemotion_Guitar,6,2,DL_deepemotion_Guitar,0.030909044668078423,0
52,100,0.2818181818181818,343,0,40,DL_deepemotion_Guitar,6,5,DL_deepemotion_Guitar,0.03095836751163006,0
62,100,0.11818181818181818,435,0,40,DL_deepemotion_Guitar,6,2,DL_deepemotion_Guitar,0.03445713222026825,0
57,100,0.2590909090909091,493,0,40,DL_deepemotion_Guitar,6,4,DL_deepemotion_Guitar,0.04018470644950867,0
57,100,0.6409090909090909,554,0,40,DL_deepemotion_Guitar,6,10,DL_deepemotion_Guitar,0.04672931507229805,0
57,100,0.42272727272727273,839,1,40,DL_deepemotion_Guitar,6,7,DL_deepemotion_Guitar,0.04870126396417618,0
57,100,0.38181818181818183,78,1,41,DL_deepemotion_Guitar,6,6,DL_deepemotion_Guitar,0.9998470544815063,1
57,100,0.2409090909090909,206,0,41,DL_deepemotion_Guitar,6,4,DL_deepemotion_Guitar,0.32746008038520813,0
57,100,0.18181818181818182,343,0,41,DL_deepemotion_Guitar,6,3,DL_deepemotion_Guitar,0.2921995222568512,0
66,100,0.4,453,0,41,DL_deepemotion_Guitar,6,6,DL_deepemotion_Guitar,0.3063611090183258,0
62,100,0.11818181818181818,418,1,42,DL_deepemotion_Guitar,6,2,DL_deepemotion_Guitar,0.99985671043396,1
57,100,0.4636363636363636,444,0,42,DL_deepemotion_Guitar,6,7,DL_deepemotion_Guitar,0.2965075969696045,0
62,100,0.1,691,1,42,DL_deepemotion_Guitar,6,2,DL_deepemotion_Guitar,0.30799442529678345,0
62,100,0.1,716,0,42,DL_deepemotion_Guitar,6,2,DL_deepemotion_Guitar,0.3095315396785736,0
62,100,0.2409090909090909,114,1,43,DL_deepemotion_Guitar,6,4,DL_deepemotion_Guitar,0.9998074173927307,1
62,100,0.11818181818181818,316,0,43,DL_deepemotion_Guitar,6,2,DL_deepemotion_Guitar,0.1280798316001892,0
57,100,0.23636363636363636,348,0,43,DL_deepemotion_Guitar,6,4,DL_deepemotion_Guitar,0.11665026843547821,0
62,100,0.9409090909090909,405,0,43,DL_deepemotion_Guitar,6,15,DL_deepemotion_Guitar,0.1319897472858429,0
66,100,0.2,713,1,43,DL_deepemotion_Guitar,6,3,DL_deepemotion_Guitar,0.1556691974401474,0
66,100,0.2,788,0,43,DL_deepemotion_Guitar,6,3,DL_deepemotion_Guitar,0.1337922215461731,0
66,100,0.1590909090909091,0,1,44,DL_deepemotion_Guitar,6,3,DL_deepemotion_Guitar,0.9997658133506775,1
62,100,0.5409090909090909,78,0,44,DL_deepemotion_Guitar,6,9,DL_deepemotion_Guitar,0.07978129386901855,0
57,100,0.3409090909090909,276,0,44,DL_deepemotion_Guitar,6,5,DL_deepemotion_Guitar,0.07355768978595734,0
57,100,0.2409090909090909,399,0,44,DL_deepemotion_Guitar,6,4,DL_deepemotion_Guitar,0.08430615067481995,0
59,100,0.2772727272727273,558,0,44,DL_deepemotion_Guitar,6,4,DL_deepemotion_Guitar,0.0936741754412651,0
57,100,0.3181818181818182,625,0,44,DL_deepemotion_Guitar,6,5,DL_deepemotion_Guitar,0.1023506373167038,0
57,100,0.7,836,0,44,DL_deepemotion_Guitar,6,11,DL_deepemotion_Guitar,0.08710421621799469,0
59,100,0.1409090909090909,778,1,45,DL_deepemotion_Guitar,6,2,DL_deepemotion_Guitar,0.9996364116668701,1
52,100,0.2,823,0,45,DL_deepemotion_Guitar,6,3,DL_deepemotion_Guitar,0.5544305443763733,0
62,100,0.3181818181818182,281,1,46,DL_deepemotion_Guitar,6,5,DL_deepemotion_Guitar,0.999826967716217,1
57,100,0.3181818181818182,581,1,46,DL_deepemotion_Guitar,6,5,DL_deepemotion_Guitar,0.4055038094520569,0
66,100,0.4409090909090909,796,0,46,DL_deepemotion_Guitar,6,7,DL_deepemotion_Guitar,0.4326017498970032,0
57,100,0.2,568,1,47,DL_deepemotion_Guitar,6,3,DL_deepemotion_Guitar,0.9996395111083984,1
59,100,0.16363636363636364,861,1,47,DL_deepemotion_Guitar,6,3,DL_deepemotion_Guitar,0.5518168210983276,0
57,100,1.8409090909090908,110,1,48,DL_deepemotion_Guitar,6,15,DL_deepemotion_Guitar,0.9994401335716248,1
52,100,0.9409090909090909,761,1,48,DL_deepemotion_Guitar,6,15,DL_deepemotion_Guitar,0.5871917009353638,0
66,100,0.21818181818181817,308,1,49,DL_deepemotion_Guitar,6,3,DL_deepemotion_Guitar,0.9931446313858032,0
57,100,0.1,276,1,50,DL_deepemotion_Guitar,6,2,DL_deepemotion_Guitar,0.9998242259025574,1
62,100,0.5227272727272727,399,0,50,DL_deepemotion_Guitar,6,8,DL_deepemotion_Guitar,0.406602680683136,0
62,100,0.3409090909090909,638,1,50,DL_deepemotion_Guitar,6,5,DL_deepemotion_Guitar,0.43750038743019104,0
62,100,0.1590909090909091,18,1,51,DL_deepemotion_Guitar,6,3,DL_deepemotion_Guitar,0.9997714161872864,1
62,100,0.11818181818181818,171,0,51,DL_deepemotion_Guitar,6,2,DL_deepemotion_Guitar,0.08008293062448502,0
62,100,0.2590909090909091,211,0,51,DL_deepemotion_Guitar,6,4,DL_deepemotion_Guitar,0.07301230728626251,0
54,100,0.38181818181818183,286,0,51,DL_deepemotion_Guitar,6,6,DL_deepemotion_Guitar,0.07988818734884262,0
54,100,0.1,373,0,51,DL_deepemotion_Guitar,6,2,DL_deepemotion_Guitar,0.09369419515132904,0
66,100,0.2,568,0,51,DL_deepemotion_Guitar,6,3,DL_deepemotion_Guitar,0.09731386601924896,0
69,100,0.2818181818181818,628,0,51,DL_deepemotion_Guitar,6,5,DL_deepemotion_Guitar,0.08617687970399857,0
57,100,0.17727272727272728,40,1,52,DL_deepemotion_Guitar,6,3,DL_deepemotion_Guitar,0.9998421669006348,1
62,100,0.18181818181818182,506,1,52,DL_deepemotion_Guitar,6,3,DL_deepemotion_Guitar,0.3474337160587311,0
57,100,0.23636363636363636,611,0,52,DL_deepemotion_Guitar,6,4,DL_deepemotion_Guitar,0.2877841293811798,0
57,100,0.9590909090909091,678,0,52,DL_deepemotion_Guitar,6,15,DL_deepemotion_Guitar,0.2981829345226288,0
57,100,0.9181818181818182,18,1,53,DL_deepemotion_Guitar,6,15,DL_deepemotion_Guitar,0.9997897744178772,1
57,100,0.1409090909090909,228,0,53,DL_deepemotion_Guitar,6,2,DL_deepemotion_Guitar,0.4597799479961395,0
57,100,0.18181818181818182,268,0,53,DL_deepemotion_Guitar,6,3,DL_deepemotion_Guitar,0.43241244554519653,0
69,100,0.2636363636363636,224,1,55,DL_deepemotion_Guitar,6,4,DL_deepemotion_Guitar,0.9998264908790588,1
59,100,0.3181818181818182,348,0,55,DL_deepemotion_Guitar,6,5,DL_deepemotion_Guitar,0.4056868553161621,0
62,100,0.2590909090909091,506,0,55,DL_deepemotion_Guitar,6,4,DL_deepemotion_Guitar,0.4342232048511505,0
62,100,0.1409090909090909,334,1,56,DL_deepemotion_Guitar,6,2,DL_deepemotion_Guitar,0.9998461008071899,1
62,100,0.2,418,0,56,DL_deepemotion_Guitar,6,3,DL_deepemotion_Guitar,0.20442381501197815,0
62,100,0.2,528,0,56,DL_deepemotion_Guitar,6,3,DL_deepemotion_Guitar,0.19595967233181,0
62,100,0.2590909090909091,673,0,56,DL_deepemotion_Guitar,6,4,DL_deepemotion_Guitar,0.20540542900562286,0
62,100,0.2590909090909091,738,0,56,DL_deepemotion_Guitar,6,4,DL_deepemotion_Guitar,0.20422182977199554,0
57,100,0.8590909090909091,75,1,61,DL_deepemotion_Guitar,6,14,DL_deepemotion_Guitar,0.9998075366020203,1
57,100,0.1590909090909091,276,0,61,DL_deepemotion_Guitar,6,3,DL_deepemotion_Guitar,0.23797956109046936,0
57,100,0.5181818181818182,330,0,61,DL_deepemotion_Guitar,6,8,DL_deepemotion_Guitar,0.2029004693031311,0
57,100,0.2,483,0,61,DL_deepemotion_Guitar,6,3,DL_deepemotion_Guitar,0.2290596067905426,0
57,100,1.1636363636363636,531,0,61,DL_deepemotion_Guitar,6,15,DL_deepemotion_Guitar,0.20022918283939362,0
57,100,0.3409090909090909,34,1,62,DL_deepemotion_Guitar,6,5,DL_deepemotion_Guitar,0.9996823072433472,1
57,100,0.2636363636363636,136,0,62,DL_deepemotion_Guitar,6,4,DL_deepemotion_Guitar,0.043669410049915314,0
57,100,0.3,211,0,62,DL_deepemotion_Guitar,6,5,DL_deepemotion_Guitar,0.033503998070955276,0
57,100,0.4409090909090909,308,0,62,DL_deepemotion_Guitar,6,7,DL_deepemotion_Guitar,0.030807698145508766,0
62,100,0.38181818181818183,418,0,62,DL_deepemotion_Guitar,6,6,DL_deepemotion_Guitar,0.032893985509872437,0
57,100,0.6,554,0,62,DL_deepemotion_Guitar,6,10,DL_deepemotion_Guitar,0.03369319811463356,0
57,100,0.2,713,0,62,DL_deepemotion_Guitar,6,3,DL_deepemotion_Guitar,0.04559071362018585,0
52,100,0.18181818181818182,774,0,62,DL_deepemotion_Guitar,6,3,DL_deepemotion_Guitar,0.05235009640455246,0
52,100,0.2,818,0,62,DL_deepemotion_Guitar,6,3,DL_deepemotion_Guitar,0.04818437620997429,0
57,100,0.2,48,1,63,DL_deepemotion_Guitar,6,3,DL_deepemotion_Guitar,0.9998431205749512,1
57,100,0.7227272727272728,166,0,63,DL_deepemotion_Guitar,6,12,DL_deepemotion_Guitar,0.29748111963272095,0
57,100,1.2,330,0,63,DL_deepemotion_Guitar,6,15,DL_deepemotion_Guitar,0.29091060161590576,0
62,100,0.4409090909090909,796,1,63,DL_deepemotion_Guitar,6,7,DL_deepemotion_Guitar,0.3444737493991852,0
57,100,0.7772727272727272,30,1,64,DL_deepemotion_Guitar,6,12,DL_deepemotion_Guitar,0.9997323155403137,1
62,100,0.5,289,1,64,DL_deepemotion_Guitar,6,8,DL_deepemotion_Guitar,0.08923663944005966,0
57,100,0.1409090909090909,449,0,64,DL_deepemotion_Guitar,6,2,DL_deepemotion_Guitar,0.07978761941194534,0
62,100,0.5181818181818182,483,0,64,DL_deepemotion_Guitar,6,8,DL_deepemotion_Guitar,0.08596865832805634,0
57,100,0.3181818181818182,616,0,64,DL_deepemotion_Guitar,6,5,DL_deepemotion_Guitar,0.09679197520017624,0
57,100,0.5409090909090909,734,0,64,DL_deepemotion_Guitar,6,9,DL_deepemotion_Guitar,0.10453534126281738,0
57,100,1.7181818181818183,876,0,64,DL_deepemotion_Guitar,6,15,DL_deepemotion_Guitar,0.08755789697170258,0
62,100,0.6818181818181818,637,1,65,DL_deepemotion_Guitar,6,11,DL_deepemotion_Guitar,0.9995796084403992,1
57,100,0.9818181818181818,792,0,65,DL_deepemotion_Guitar,6,15,DL_deepemotion_Guitar,0.536579966545105,0
57,100,0.11818181818181818,132,1,66,DL_deepemotion_Guitar,6,2,DL_deepemotion_Guitar,0.9998313188552856,1
57,100,0.6590909090909091,193,0,66,DL_deepemotion_Guitar,6,11,DL_deepemotion_Guitar,0.19135276973247528,0
62,100,0.37727272727272726,347,0,66,DL_deepemotion_Guitar,6,6,DL_deepemotion_Guitar,0.21502216160297394,0
62,100,0.9363636363636364,436,0,66,DL_deepemotion_Guitar,6,15,DL_deepemotion_Guitar,0.20153455436229706,0
62,100,0.2,646,0,66,DL_deepemotion_Guitar,6,3,DL_deepemotion_Guitar,0.22944720089435577,0
57,100,0.1,3,1,67,DL_deepemotion_Guitar,6,2,DL_deepemotion_Guitar,0.9998331069946289,1
62,100,0.7,123,0,67,DL_deepemotion_Guitar,6,11,DL_deepemotion_Guitar,0.19956067204475403,0
62,100,0.12272727272727273,333,0,67,DL_deepemotion_Guitar,6,2,DL_deepemotion_Guitar,0.2175205945968628,0
62,100,0.3181818181818182,470,0,67,DL_deepemotion_Guitar,6,5,DL_deepemotion_Guitar,0.2141004502773285,0
62,100,0.9,624,0,67,DL_deepemotion_Guitar,6,14,DL_deepemotion_Guitar,0.20220603048801422,0
59,100,0.5590909090909091,176,1,68,DL_deepemotion_Guitar,6,9,DL_deepemotion_Guitar,0.9998063445091248,1
62,100,0.7,443,1,68,DL_deepemotion_Guitar,6,11,DL_deepemotion_Guitar,0.4291303753852844,0
62,100,0.3,603,0,68,DL_deepemotion_Guitar,6,5,DL_deepemotion_Guitar,0.4399341940879822,0
62,100,2.2409090909090907,13,1,69,DL_deepemotion_Guitar,6,15,DL_deepemotion_Guitar,0.9997710585594177,1
62,100,0.3,519,1,69,DL_deepemotion_Guitar,6,5,DL_deepemotion_Guitar,0.2753552794456482,0
62,100,0.5,606,0,69,DL_deepemotion_Guitar,6,8,DL_deepemotion_Guitar,0.20851261913776398,0
57,100,0.18181818181818182,716,0,69,DL_deepemotion_Guitar,6,3,DL_deepemotion_Guitar,0.22524459660053253,0
57,100,0.5636363636363636,773,0,69,DL_deepemotion_Guitar,6,9,DL_deepemotion_Guitar,0.2102196365594864,0
57,100,0.3409090909090909,110,1,70,DL_deepemotion_Guitar,6,5,DL_deepemotion_Guitar,0.99979168176651,1
62,100,0.35909090909090907,475,1,70,DL_deepemotion_Guitar,6,6,DL_deepemotion_Guitar,0.13524310290813446,0
62,100,0.16363636363636364,576,0,70,DL_deepemotion_Guitar,6,3,DL_deepemotion_Guitar,0.12235508859157562,0
57,100,0.36363636363636365,619,0,70,DL_deepemotion_Guitar,6,6,DL_deepemotion_Guitar,0.13129489123821259,0
55,100,0.12272727272727273,760,0,70,DL_deepemotion_Guitar,6,2,DL_deepemotion_Guitar,0.15101005136966705,0
59,100,0.33636363636363636,853,0,70,DL_deepemotion_Guitar,6,5,DL_deepemotion_Guitar,0.12973590195178986,0
59,100,0.2818181818181818,100,1,71,DL_deepemotion_Guitar,6,5,DL_deepemotion_Guitar,0.999829888343811,1
62,100,0.6181818181818182,316,0,71,DL_deepemotion_Guitar,6,10,DL_deepemotion_Guitar,0.1984310746192932,0
59,100,0.6409090909090909,453,0,71,DL_deepemotion_Guitar,6,10,DL_deepemotion_Guitar,0.195558100938797,0
71,100,0.1409090909090909,624,0,71,DL_deepemotion_Guitar,6,2,DL_deepemotion_Guitar,0.22474771738052368,0
61,100,0.36363636363636365,663,0,71,DL_deepemotion_Guitar,6,6,DL_deepemotion_Guitar,0.2126864790916443,0
62,100,0.6363636363636364,83,1,72,DL_deepemotion_Guitar,6,10,DL_deepemotion_Guitar,0.9998242259025574,1
62,100,1.3,289,0,72,DL_deepemotion_Guitar,6,15,DL_deepemotion_Guitar,0.3070695102214813,0
62,100,0.5,616,1,72,DL_deepemotion_Guitar,6,8,DL_deepemotion_Guitar,0.3348886966705322,0
57,100,0.759090909090909,734,0,72,DL_deepemotion_Guitar,6,12,DL_deepemotion_Guitar,0.32240840792655945,0
62,100,1.1409090909090909,26,1,73,DL_deepemotion_Guitar,6,15,DL_deepemotion_Guitar,0.9998076558113098,1
57,100,0.6,276,1,73,DL_deepemotion_Guitar,6,10,DL_deepemotion_Guitar,0.3563366234302521,0
62,100,0.8590909090909091,496,0,73,DL_deepemotion_Guitar,6,14,DL_deepemotion_Guitar,0.3158957362174988,0
57,100,0.9590909090909091,700,0,73,DL_deepemotion_Guitar,6,15,DL_deepemotion_Guitar,0.3220502436161041,0
62,100,0.1409090909090909,35,1,74,DL_deepemotion_Guitar,6,2,DL_deepemotion_Guitar,0.9997748732566833,1
57,100,0.4590909090909091,83,0,74,DL_deepemotion_Guitar,6,7,DL_deepemotion_Guitar,0.07241923362016678,0
62,100,0.1,184,0,74,DL_deepemotion_Guitar,6,2,DL_deepemotion_Guitar,0.07993295788764954,0
57,100,0.18181818181818182,276,0,74,DL_deepemotion_Guitar,6,3,DL_deepemotion_Guitar,0.0766652375459671,0
62,100,0.5590909090909091,330,0,74,DL_deepemotion_Guitar,6,9,DL_deepemotion_Guitar,0.09086586534976959,0
57,100,0.36363636363636365,466,0,74,DL_deepemotion_Guitar,6,6,DL_deepemotion_Guitar,0.09937358647584915,0
54,100,0.12272727272727273,695,0,74,DL_deepemotion_Guitar,6,2,DL_deepemotion_Guitar,0.09042447805404663,0
62,100,0.5818181818181818,35,1,75,DL_deepemotion_Guitar,6,9,DL_deepemotion_Guitar,0.9998412132263184,1
62,100,0.8,267,1,75,DL_deepemotion_Guitar,6,13,DL_deepemotion_Guitar,0.3217155337333679,0
57,100,0.2818181818181818,606,1,75,DL_deepemotion_Guitar,6,5,DL_deepemotion_Guitar,0.3211368918418884,0
62,100,1.7772727272727273,713,0,75,DL_deepemotion_Guitar,6,15,DL_deepemotion_Guitar,0.29708150029182434,0
62,100,0.8,246,1,76,DL_deepemotion_Guitar,6,13,DL_deepemotion_Guitar,0.999835729598999,1
59,100,0.13636363636363635,502,1,76,DL_deepemotion_Guitar,6,2,DL_deepemotion_Guitar,0.3563256561756134,0
62,100,0.5,540,0,76,DL_deepemotion_Guitar,6,8,DL_deepemotion_Guitar,0.2981197237968445,0
52,100,1.259090909090909,656,0,76,DL_deepemotion_Guitar,6,15,DL_deepemotion_Guitar,0.30186891555786133,0
62,100,0.6409090909090909,53,1,77,DL_deepemotion_Guitar,6,10,DL_deepemotion_Guitar,0.999817430973053,1
57,100,0.2772727272727273,413,1,77,DL_deepemotion_Guitar,6,4,DL_deepemotion_Guitar,0.22341996431350708,0
57,100,0.12272727272727273,519,0,77,DL_deepemotion_Guitar,6,2,DL_deepemotion_Guitar,0.2046254426240921,0
57,100,0.18181818181818182,585,0,77,DL_deepemotion_Guitar,6,3,DL_deepemotion_Guitar,0.2120739072561264,0
57,100,0.33636363636363636,853,1,77,DL_deepemotion_Guitar,6,5,DL_deepemotion_Guitar,0.20897550880908966,0
57,100,0.21818181818181817,53,1,78,DL_deepemotion_Guitar,6,3,DL_deepemotion_Guitar,0.9928209185600281,0
57,100,0.13636363636363635,260,1,80,DL_deepemotion_Guitar,6,2,DL_deepemotion_Guitar,0.9998452663421631,1
57,100,0.2,356,0,80,DL_deepemotion_Guitar,6,3,DL_deepemotion_Guitar,0.3315447270870209,0
57,100,0.1,417,0,80,DL_deepemotion_Guitar,6,2,DL_deepemotion_Guitar,0.29566922783851624,0
64,100,0.6181818181818182,726,1,80,DL_deepemotion_Guitar,6,10,DL_deepemotion_Guitar,0.30362728238105774,0
57,100,0.32272727272727275,56,1,81,DL_deepemotion_Guitar,6,5,DL_deepemotion_Guitar,0.9997631907463074,1
64,100,0.5772727272727273,229,0,81,DL_deepemotion_Guitar,6,9,DL_deepemotion_Guitar,0.08389643579721451,0
57,100,0.32272727272727275,356,0,81,DL_deepemotion_Guitar,6,5,DL_deepemotion_Guitar,0.07724025100469589,0
54,100,0.1,553,0,81,DL_deepemotion_Guitar,6,2,DL_deepemotion_Guitar,0.08626005053520203,0
62,100,0.17727272727272728,766,0,81,DL_deepemotion_Guitar,6,3,DL_deepemotion_Guitar,0.09651412814855576,0
62,100,0.11818181818181818,813,0,81,DL_deepemotion_Guitar,6,2,DL_deepemotion_Guitar,0.10296685248613358,0
62,100,2.2409090909090907,849,0,81,DL_deepemotion_Guitar,6,15,DL_deepemotion_Guitar,0.0763404592871666,0
57,100,0.2590909090909091,462,1,82,DL_deepemotion_Guitar,6,4,DL_deepemotion_Guitar,0.9998225569725037,1
62,100,0.1409090909090909,559,0,82,DL_deepemotion_Guitar,6,2,DL_deepemotion_Guitar,0.42332515120506287,0
62,100,1.440909090909091,593,0,82,DL_deepemotion_Guitar,6,15,DL_deepemotion_Guitar,0.403790146112442,0
62,100,1.2227272727272727,35,1,83,DL_deepemotion_Guitar,6,15,DL_deepemotion_Guitar,0.9998041987419128,1
62,100,0.2772727272727273,339,1,83,DL_deepemotion_Guitar,6,4,DL_deepemotion_Guitar,0.25073379278182983,0
62,100,0.12272727272727273,487,0,83,DL_deepemotion_Guitar,6,2,DL_deepemotion_Guitar,0.21826548874378204,0
52,100,0.8181818181818182,527,0,83,DL_deepemotion_Guitar,6,13,DL_deepemotion_Guitar,0.20405127108097076,0
62,100,1.5,752,0,83,DL_deepemotion_Guitar,6,15,DL_deepemotion_Guitar,0.21306295692920685,0
62,100,0.5409090909090909,294,1,84,DL_deepemotion_Guitar,6,9,DL_deepemotion_Guitar,0.9997647404670715,1
57,100,0.2590909090909091,417,0,84,DL_deepemotion_Guitar,6,4,DL_deepemotion_Guitar,0.07961181551218033,0
62,100,0.12272727272727273,496,0,84,DL_deepemotion_Guitar,6,2,DL_deepemotion_Guitar,0.07724849134683609,0
57,100,0.21818181818181817,656,0,84,DL_deepemotion_Guitar,6,3,DL_deepemotion_Guitar,0.07763858139514923,0
57,100,0.21818181818181817,722,0,84,DL_deepemotion_Guitar,6,3,DL_deepemotion_Guitar,0.09093127399682999,0
62,100,0.2,773,0,84,DL_deepemotion_Guitar,6,3,DL_deepemotion_Guitar,0.0954495519399643,0
62,100,0.3,870,0,84,DL_deepemotion_Guitar,6,5,DL_deepemotion_Guitar,0.08596165478229523,0
62,100,0.2409090909090909,430,1,85,DL_deepemotion_Guitar,6,4,DL_deepemotion_Guitar,0.9998420476913452,1
59,100,0.11818181818181818,603,0,85,DL_deepemotion_Guitar,6,2,DL_deepemotion_Guitar,0.20801150798797607,0
59,100,0.5,633,0,85,DL_deepemotion_Guitar,6,8,DL_deepemotion_Guitar,0.19651372730731964,0
62,100,0.12272727272727273,752,0,85,DL_deepemotion_Guitar,6,2,DL_deepemotion_Guitar,0.22239434719085693,0
62,100,1.0818181818181818,817,0,85,DL_deepemotion_Guitar,6,15,DL_deepemotion_Guitar,0.19263896346092224,0
62,100,0.1,179,1,86,DL_deepemotion_Guitar,6,2,DL_deepemotion_Guitar,0.999775230884552,1
62,100,0.2,206,0,86,DL_deepemotion_Guitar,6,3,DL_deepemotion_Guitar,0.07831425964832306,0
62,100,0.1590909090909091,276,0,86,DL_deepemotion_Guitar,6,3,DL_deepemotion_Guitar,0.07189951837062836,0
59,100,0.4409090909090909,312,0,86,DL_deepemotion_Guitar,6,7,DL_deepemotion_Guitar,0.07725676894187927,0
57,100,0.18181818181818182,453,0,86,DL_deepemotion_Guitar,6,3,DL_deepemotion_Guitar,0.09161604940891266,0
64,100,0.2590909090909091,546,0,86,DL_deepemotion_Guitar,6,4,DL_deepemotion_Guitar,0.099477618932724,0
57,100,0.36363636363636365,663,0,86,DL_deepemotion_Guitar,6,6,DL_deepemotion_Guitar,0.08499789237976074,0
64,100,0.9818181818181818,13,1,87,DL_deepemotion_Guitar,6,15,DL_deepemotion_Guitar,0.9998151659965515,1
57,100,0.35909090909090907,229,0,87,DL_deepemotion_Guitar,6,6,DL_deepemotion_Guitar,0.2204979956150055,0
64,100,0.2636363636363636,312,0,87,DL_deepemotion_Guitar,6,4,DL_deepemotion_Guitar,0.21075502038002014,0
57,100,0.1,373,0,87,DL_deepemotion_Guitar,6,2,DL_deepemotion_Guitar,0.20519375801086426,0
62,100,0.1590909090909091,716,1,87,DL_deepemotion_Guitar,6,3,DL_deepemotion_Guitar,0.21007585525512695,0
62,100,0.2,30,1,88,DL_deepemotion_Guitar,6,3,DL_deepemotion_Guitar,0.9997355341911316,1
62,100,0.18181818181818182,79,0,88,DL_deepemotion_Guitar,6,3,DL_deepemotion_Guitar,0.05457545444369316,0
57,100,0.2,303,0,88,DL_deepemotion_Guitar,6,3,DL_deepemotion_Guitar,0.04532169550657272,0
64,100,1.040909090909091,426,0,88,DL_deepemotion_Guitar,6,15,DL_deepemotion_Guitar,0.04603477939963341,0
64,100,0.1,660,1,88,DL_deepemotion_Guitar,6,2,DL_deepemotion_Guitar,0.05721310153603554,0
64,100,0.11818181818181818,690,0,88,DL_deepemotion_Guitar,6,2,DL_deepemotion_Guitar,0.05926322564482689,0
57,100,0.1,787,0,88,DL_deepemotion_Guitar,6,2,DL_deepemotion_Guitar,0.06322688609361649,0
64,100,0.1409090909090909,870,0,88,DL_deepemotion_Guitar,6,2,DL_deepemotion_Guitar,0.062045712023973465,0
64,100,0.7636363636363637,26,1,89,DL_deepemotion_Guitar,6,12,DL_deepemotion_Guitar,0.9998283386230469,1
57,100,0.5181818181818182,193,0,89,DL_deepemotion_Guitar,6,8,DL_deepemotion_Guitar,0.3280903398990631,0
62,100,1.0,356,0,89,DL_deepemotion_Guitar,6,15,DL_deepemotion_Guitar,0.29873889684677124,0
59,100,1.0227272727272727,606,1,89,DL_deepemotion_Guitar,6,15,DL_deepemotion_Guitar,0.32571426033973694,0
62,100,0.6772727272727272,216,1,90,DL_deepemotion_Guitar,6,11,DL_deepemotion_Guitar,0.9998358488082886,1
55,100,0.18181818181818182,399,0,90,DL_deepemotion_Guitar,6,3,DL_deepemotion_Guitar,0.3384876549243927,0
59,100,0.21818181818181817,514,0,90,DL_deepemotion_Guitar,6,3,DL_deepemotion_Guitar,0.2952657639980316,0
59,100,0.41818181818181815,722,0,90,DL_deepemotion_Guitar,6,7,DL_deepemotion_Guitar,0.3111967444419861,0
64,100,0.32272727272727275,223,1,91,DL_deepemotion_Guitar,6,5,DL_deepemotion_Guitar,0.9998414516448975,1
66,100,0.12272727272727273,475,1,91,DL_deepemotion_Guitar,6,2,DL_deepemotion_Guitar,0.40883758664131165,0
62,100,0.2,650,0,91,DL_deepemotion_Guitar,6,3,DL_deepemotion_Guitar,0.41920965909957886,0
66,100,0.4,496,1,93,DL_deepemotion_Guitar,6,6,DL_deepemotion_Guitar,0.9996057152748108,1
66,100,0.8,590,0,93,DL_deepemotion_Guitar,6,13,DL_deepemotion_Guitar,0.5428617000579834,0
66,100,0.3409090909090909,96,1,94,DL_deepemotion_Guitar,6,5,DL_deepemotion_Guitar,0.9998354911804199,1
62,100,0.21818181818181817,260,0,94,DL_deepemotion_Guitar,6,3,DL_deepemotion_Guitar,0.21480520069599152,0
62,100,0.1409090909090909,352,0,94,DL_deepemotion_Guitar,6,2,DL_deepemotion_Guitar,0.2109232395887375,0
55,100,0.2818181818181818,585,1,94,DL_deepemotion_Guitar,6,5,DL_deepemotion_Guitar,0.20610085129737854,0
55,100,1.040909090909091,650,0,94,DL_deepemotion_Guitar,6,15,DL_deepemotion_Guitar,0.19961236417293549,0
62,100,0.1590909090909091,132,1,95,DL_deepemotion_Guitar,6,3,DL_deepemotion_Guitar,0.9998540878295898,1
62,100,0.5590909090909091,172,0,95,DL_deepemotion_Guitar,6,9,DL_deepemotion_Guitar,0.31235188245773315,0
66,100,0.8181818181818182,396,0,95,DL_deepemotion_Guitar,6,13,DL_deepemotion_Guitar,0.28006064891815186,0
66,100,0.18181818181818182,619,0,95,DL_deepemotion_Guitar,6,3,DL_deepemotion_Guitar,0.3318835496902466,0
62,100,0.18181818181818182,333,1,96,DL_deepemotion_Guitar,6,3,DL_deepemotion_Guitar,0.999832272529602,1
62,100,0.6590909090909091,392,0,96,DL_deepemotion_Guitar,6,11,DL_deepemotion_Guitar,0.19704391062259674,0
62,100,0.12272727272727273,563,0,96,DL_deepemotion_Guitar,6,2,DL_deepemotion_Guitar,0.20821107923984528,0
62,100,0.18181818181818182,650,0,96,DL_deepemotion_Guitar,6,3,DL_deepemotion_Guitar,0.21469514071941376,0
64,100,0.2590909090909091,695,0,96,DL_deepemotion_Guitar,6,4,DL_deepemotion_Guitar,0.21376140415668488,0
64,100,0.2409090909090909,53,1,97,DL_deepemotion_Guitar,6,4,DL_deepemotion_Guitar,0.9998375177383423,1
52,100,0.18181818181818182,179,0,97,DL_deepemotion_Guitar,6,3,DL_deepemotion_Guitar,0.21320484578609467,0
54,100,0.8772727272727273,250,0,97,DL_deepemotion_Guitar,6,14,DL_deepemotion_Guitar,0.18144464492797852,0
66,100,0.1,553,1,97,DL_deepemotion_Guitar,6,2,DL_deepemotion_Guitar,0.22627128660678864,0
54,100,0.41818181818181815,734,0,97,DL_deepemotion_Guitar,6,7,DL_deepemotion_Guitar,0.205806702375412,0
62,100,0.5,87,1,98,DL_deepemotion_Guitar,6,8,DL_deepemotion_Guitar,0.9998031258583069,1
55,100,1.7,223,0,98,DL_deepemotion_Guitar,6,15,DL_deepemotion_Guitar,0.3724237382411957,0
62,100,0.22272727272727272,817,1,98,DL_deepemotion_Guitar,6,4,DL_deepemotion_Guitar,0.4780910611152649,0
62,100,0.1,184,1,99,DL_deepemotion_Guitar,6,2,DL_deepemotion_Guitar,0.9998363256454468,1
62,100,0.6590909090909091,493,1,99,DL_deepemotion_Guitar,6,11,DL_deepemotion_Guitar,0.39259687066078186,0
57,100,0.1590909090909091,646,0,99,DL_deepemotion_Guitar,6,3,DL_deepemotion_Guitar,0.4364827275276184,0
62,100,0.5590909090909091,62,1,100,DL_deepemotion_Guitar,6,9,DL_deepemotion_Guitar,0.999836802482605,1
62,100,1.1227272727272728,365,1,100,DL_deepemotion_Guitar,6,15,DL_deepemotion_Guitar,0.3024052381515503,0
62,100,0.3409090909090909,690,1,100,DL_deepemotion_Guitar,6,5,DL_deepemotion_Guitar,0.3236437439918518,0
64,100,0.2636363636363636,796,0,100,DL_deepemotion_Guitar,6,4,DL_deepemotion_Guitar,0.32602980732917786,0
62,100,0.6590909090909091,22,1,101,DL_deepemotion_Guitar,6,11,DL_deepemotion_Guitar,0.9998190999031067,1
62,100,0.18181818181818182,189,0,101,DL_deepemotion_Guitar,6,3,DL_deepemotion_Guitar,0.22798584401607513,0
62,100,1.0,233,0,101,DL_deepemotion_Guitar,6,15,DL_deepemotion_Guitar,0.18392816185951233,0
66,100,0.21818181818181817,457,0,101,DL_deepemotion_Guitar,6,3,DL_deepemotion_Guitar,0.23699302971363068,0
66,100,0.4,509,0,101,DL_deepemotion_Guitar,6,6,DL_deepemotion_Guitar,0.21301239728927612,0
66,100,0.2,96,1,102,DL_deepemotion_Guitar,6,3,DL_deepemotion_Guitar,0.9998351335525513,1
62,100,0.21818181818181817,457,1,102,DL_deepemotion_Guitar,6,3,DL_deepemotion_Guitar,0.4148966670036316,0
62,100,0.11818181818181818,567,0,102,DL_deepemotion_Guitar,6,2,DL_deepemotion_Guitar,0.4258957505226135,0
62,100,0.6181818181818182,853,1,103,DL_deepemotion_Guitar,6,10,DL_deepemotion_Guitar,0.9925318360328674,0
53,100,0.2818181818181818,510,1,0,DL_heartfullpop_2_Guitar,6,5,DL_heartfullpop_2_Guitar,0.9998416900634766,1
60,100,0.1409090909090909,673,0,0,DL_heartfullpop_2_Guitar,6,2,DL_heartfullpop_2_Guitar,0.20825545489788055,0
60,100,0.16363636363636364,708,0,0,DL_heartfullpop_2_Guitar,6,3,DL_heartfullpop_2_Guitar,0.19452476501464844,0
60,100,0.2,748,0,0,DL_heartfullpop_2_Guitar,6,3,DL_heartfullpop_2_Guitar,0.20157235860824585,0
60,100,0.1,801,0,0,DL_heartfullpop_2_Guitar,6,2,DL_heartfullpop_2_Guitar,0.19728019833564758,0
60,100,0.1590909090909091,343,1,1,DL_heartfullpop_2_Guitar,6,3,DL_heartfullpop_2_Guitar,0.9998407363891602,1
60,100,0.3,695,1,1,DL_heartfullpop_2_Guitar,6,5,DL_heartfullpop_2_Guitar,0.4048938453197479,0
53,100,0.16363636363636364,796,0,1,DL_heartfullpop_2_Guitar,6,3,DL_heartfullpop_2_Guitar,0.4228380024433136,0
60,100,0.21818181818181817,106,1,2,DL_heartfullpop_2_Guitar,6,3,DL_heartfullpop_2_Guitar,0.9998598098754883,1
60,100,0.3409090909090909,616,1,2,DL_heartfullpop_2_Guitar,6,5,DL_heartfullpop_2_Guitar,0.30812448263168335,0
53,100,0.12272727272727273,694,0,2,DL_heartfullpop_2_Guitar,6,2,DL_heartfullpop_2_Guitar,0.2943340539932251,0
60,100,0.3,761,0,2,DL_heartfullpop_2_Guitar,6,5,DL_heartfullpop_2_Guitar,0.3021796643733978,0
65,100,0.21818181818181817,43,1,4,DL_heartfullpop_2_Guitar,6,3,DL_heartfullpop_2_Guitar,0.9996515512466431,1
53,100,0.13636363636363635,875,1,4,DL_heartfullpop_2_Guitar,6,2,DL_heartfullpop_2_Guitar,0.548842191696167,0
65,100,0.21818181818181817,40,1,5,DL_heartfullpop_2_Guitar,6,3,DL_heartfullpop_2_Guitar,0.9998329877853394,1
65,100,0.2409090909090909,189,0,5,DL_heartfullpop_2_Guitar,6,4,DL_heartfullpop_2_Guitar,0.21456079185009003,0
58,100,0.2,391,0,5,DL_heartfullpop_2_Guitar,6,3,DL_heartfullpop_2_Guitar,0.188121035695076,0
53,100,0.1590909090909091,721,1,5,DL_heartfullpop_2_Guitar,6,3,DL_heartfullpop_2_Guitar,0.22618204355239868,0
53,100,0.4409090909090909,770,0,5,DL_heartfullpop_2_Guitar,6,7,DL_heartfullpop_2_Guitar,0.19908033311367035,0
53,100,0.1590909090909091,150,1,6,DL_heartfullpop_2_Guitar,6,3,DL_heartfullpop_2_Guitar,0.9998123049736023,1
53,100,0.17727272727272728,545,1,6,DL_heartfullpop_2_Guitar,6,3,DL_heartfullpop_2_Guitar,0.12313465029001236,0
53,100,0.12272727272727273,598,0,6,DL_heartfullpop_2_Guitar,6,2,DL_heartfullpop_2_Guitar,0.11946771293878555,0
53,100,0.11818181818181818,721,0,6,DL_heartfullpop_2_Guitar,6,2,DL_heartfullpop_2_Guitar,0.13276252150535583,0
65,100,0.1,774,0,6,DL_heartfullpop_2_Guitar,6,2,DL_heartfullpop_2_Guitar,0.13533298671245575,0
53,100,0.11818181818181818,801,0,6,DL_heartfullpop_2_Guitar,6,2,DL_heartfullpop_2_Guitar,0.12636926770210266,0
53,100,0.38181818181818183,506,1,7,DL_heartfullpop_2_Guitar,6,6,DL_heartfullpop_2_Guitar,0.9931284189224243,0
65,100,0.1,0,1,8,DL_heartfullpop_2_Guitar,6,2,DL_heartfullpop_2_Guitar,0.9933165311813354,1
65,100,0.21818181818181817,171,1,9,DL_heartfullpop_2_Guitar,6,3,DL_heartfullpop_2_Guitar,0.993155300617218,0
53,100,0.3409090909090909,13,1,10,DL_heartfullpop_2_Guitar,6,5,DL_heartfullpop_2_Guitar,0.9997658133506775,1
53,100,0.4,118,0,10,DL_heartfullpop_2_Guitar,6,6,DL_heartfullpop_2_Guitar,0.07654674351215363,0
60,100,0.4772727272727273,216,0,10,DL_heartfullpop_2_Guitar,6,8,DL_heartfullpop_2_Guitar,0.07409346848726273,0
60,100,0.5590909090909091,391,0,10,DL_heartfullpop_2_Guitar,6,9,DL_heartfullpop_2_Guitar,0.07956680655479431,0
53,100,0.23636363636363636,524,0,10,DL_heartfullpop_2_Guitar,6,4,DL_heartfullpop_2_Guitar,0.09364417940378189,0
60,100,0.5409090909090909,584,0,10,DL_heartfullpop_2_Guitar,6,9,DL_heartfullpop_2_Guitar,0.09711167216300964,0
53,100,0.3,756,0,10,DL_heartfullpop_2_Guitar,6,5,DL_heartfullpop_2_Guitar,0.09102698415517807,0
53,100,0.2772727272727273,17,1,11,DL_heartfullpop_2_Guitar,6,4,DL_heartfullpop_2_Guitar,0.9998074173927307,1
65,100,0.1590909090909091,79,0,11,DL_heartfullpop_2_Guitar,6,3,DL_heartfullpop_2_Guitar,0.1244286447763443,0
53,100,0.12272727272727273,113,0,11,DL_heartfullpop_2_Guitar,6,2,DL_heartfullpop_2_Guitar,0.11909029632806778,0
53,100,0.3181818181818182,149,0,11,DL_heartfullpop_2_Guitar,6,5,DL_heartfullpop_2_Guitar,0.12960273027420044,0
60,100,0.5363636363636364,281,0,11,DL_heartfullpop_2_Guitar,6,9,DL_heartfullpop_2_Guitar,0.13279956579208374,0
60,100,0.1,422,0,11,DL_heartfullpop_2_Guitar,6,2,DL_heartfullpop_2_Guitar,0.13445375859737396,0
57,100,0.5,61,1,12,DL_heartfullpop_2_Guitar,6,8,DL_heartfullpop_2_Guitar,0.9998189806938171,1
62,100,0.2,206,0,12,DL_heartfullpop_2_Guitar,6,3,DL_heartfullpop_2_Guitar,0.22973796725273132,0
61,100,0.1409090909090909,250,0,12,DL_heartfullpop_2_Guitar,6,2,DL_heartfullpop_2_Guitar,0.2015027105808258,0
53,100,0.3181818181818182,307,0,12,DL_heartfullpop_2_Guitar,6,5,DL_heartfullpop_2_Guitar,0.203582763671875,0
58,100,0.5181818181818182,594,1,12,DL_heartfullpop_2_Guitar,6,8,DL_heartfullpop_2_Guitar,0.2044968158006668,0
58,100,0.2409090909090909,233,1,13,DL_heartfullpop_2_Guitar,6,4,DL_heartfullpop_2_Guitar,0.9995779395103455,1
53,100,0.21818181818181817,589,1,13,DL_heartfullpop_2_Guitar,6,3,DL_heartfullpop_2_Guitar,0.5636906027793884,0
53,100,0.22272727272727272,708,1,14,DL_heartfullpop_2_Guitar,6,4,DL_heartfullpop_2_Guitar,0.9998384714126587,1
60,100,0.2409090909090909,773,0,14,DL_heartfullpop_2_Guitar,6,4,DL_heartfullpop_2_Guitar,0.40352848172187805,0
60,100,0.23636363636363636,831,0,14,DL_heartfullpop_2_Guitar,6,4,DL_heartfullpop_2_Guitar,0.4190885126590729,0
53,100,0.2409090909090909,70,1,15,DL_heartfullpop_2_Guitar,6,4,DL_heartfullpop_2_Guitar,0.9997314810752869,1
53,100,0.42272727272727273,158,0,15,DL_heartfullpop_2_Guitar,6,7,DL_heartfullpop_2_Guitar,0.0545487217605114,0
53,100,0.35909090909090907,254,0,15,DL_heartfullpop_2_Guitar,6,6,DL_heartfullpop_2_Guitar,0.047898344695568085,0
53,100,0.35909090909090907,391,0,15,DL_heartfullpop_2_Guitar,6,6,DL_heartfullpop_2_Guitar,0.04695669189095497,0
60,100,0.33636363636363636,656,1,15,DL_heartfullpop_2_Guitar,6,5,DL_heartfullpop_2_Guitar,0.05315537005662918,0
60,100,0.11818181818181818,756,0,15,DL_heartfullpop_2_Guitar,6,2,DL_heartfullpop_2_Guitar,0.0608113668859005,0
60,100,0.1,840,0,15,DL_heartfullpop_2_Guitar,6,2,DL_heartfullpop_2_Guitar,0.06546178460121155,0
60,100,0.1409090909090909,866,0,15,DL_heartfullpop_2_Guitar,6,2,DL_heartfullpop_2_Guitar,0.059675995260477066,0
53,100,0.22272727272727272,26,1,16,DL_heartfullpop_2_Guitar,6,4,DL_heartfullpop_2_Guitar,0.9997034668922424,1
60,100,0.12272727272727273,92,0,16,DL_heartfullpop_2_Guitar,6,2,DL_heartfullpop_2_Guitar,0.04358850419521332,0
60,100,0.2590909090909091,220,0,16,DL_heartfullpop_2_Guitar,6,4,DL_heartfullpop_2_Guitar,0.032254163175821304,0
60,100,0.18181818181818182,308,0,16,DL_heartfullpop_2_Guitar,6,3,DL_heartfullpop_2_Guitar,0.029946884140372276,0
53,100,0.21818181818181817,347,0,16,DL_heartfullpop_2_Guitar,6,3,DL_heartfullpop_2_Guitar,0.02937418781220913,0
60,100,0.17727272727272728,501,0,16,DL_heartfullpop_2_Guitar,6,3,DL_heartfullpop_2_Guitar,0.033933743834495544,0
53,100,0.35909090909090907,540,0,16,DL_heartfullpop_2_Guitar,6,6,DL_heartfullpop_2_Guitar,0.038790445774793625,0
53,100,0.4,669,0,16,DL_heartfullpop_2_Guitar,6,6,DL_heartfullpop_2_Guitar,0.04662133380770683,0
65,100,0.2409090909090909,756,0,16,DL_heartfullpop_2_Guitar,6,4,DL_heartfullpop_2_Guitar,0.04787907376885414,0
53,100,0.11818181818181818,9,1,17,DL_heartfullpop_2_Guitar,6,2,DL_heartfullpop_2_Guitar,0.9997058510780334,1
53,100,0.4590909090909091,57,0,17,DL_heartfullpop_2_Guitar,6,7,DL_heartfullpop_2_Guitar,0.04041875898838043,0
62,100,0.1409090909090909,175,0,17,DL_heartfullpop_2_Guitar,6,2,DL_heartfullpop_2_Guitar,0.035201046615839005,0
62,100,0.11818181818181818,216,0,17,DL_heartfullpop_2_Guitar,6,2,DL_heartfullpop_2_Guitar,0.02982795238494873,0
65,100,0.12272727272727273,488,1,17,DL_heartfullpop_2_Guitar,6,2,DL_heartfullpop_2_Guitar,0.030945314094424248,0
57,100,0.32272727272727275,576,0,17,DL_heartfullpop_2_Guitar,6,5,DL_heartfullpop_2_Guitar,0.031433820724487305,0
62,100,0.18181818181818182,663,0,17,DL_heartfullpop_2_Guitar,6,3,DL_heartfullpop_2_Guitar,0.04214974865317345,0
62,100,0.1409090909090909,783,0,17,DL_heartfullpop_2_Guitar,6,2,DL_heartfullpop_2_Guitar,0.046885062009096146,0
65,100,0.35909090909090907,858,0,17,DL_heartfullpop_2_Guitar,6,6,DL_heartfullpop_2_Guitar,0.04662667587399483,0
57,100,0.11818181818181818,295,1,18,DL_heartfullpop_2_Guitar,6,2,DL_heartfullpop_2_Guitar,0.999850869178772,1
62,100,0.2818181818181818,443,0,18,DL_heartfullpop_2_Guitar,6,5,DL_heartfullpop_2_Guitar,0.3272991478443146,0
53,100,0.3,607,0,18,DL_heartfullpop_2_Guitar,6,5,DL_heartfullpop_2_Guitar,0.283244788646698,0
62,100,0.21818181818181817,858,1,18,DL_heartfullpop_2_Guitar,6,3,DL_heartfullpop_2_Guitar,0.310077428817749,0
65,100,0.2409090909090909,57,1,19,DL_heartfullpop_2_Guitar,6,4,DL_heartfullpop_2_Guitar,0.9997956156730652,1
65,100,0.4590909090909091,131,0,19,DL_heartfullpop_2_Guitar,6,7,DL_heartfullpop_2_Guitar,0.12527133524417877,0
60,100,0.2409090909090909,405,1,19,DL_heartfullpop_2_Guitar,6,4,DL_heartfullpop_2_Guitar,0.12657934427261353,0
53,100,0.2636363636363636,488,0,19,DL_heartfullpop_2_Guitar,6,4,DL_heartfullpop_2_Guitar,0.13259729743003845,0
53,100,0.35909090909090907,681,0,19,DL_heartfullpop_2_Guitar,6,6,DL_heartfullpop_2_Guitar,0.1400633454322815,0
62,100,0.11818181818181818,810,0,19,DL_heartfullpop_2_Guitar,6,2,DL_heartfullpop_2_Guitar,0.13154125213623047,0
53,100,0.9409090909090909,9,1,20,DL_heartfullpop_2_Guitar,6,15,DL_heartfullpop_2_Guitar,0.9996308088302612,1
65,100,0.17727272727272728,216,0,20,DL_heartfullpop_2_Guitar,6,3,DL_heartfullpop_2_Guitar,0.04045023396611214,0
53,100,0.2,254,0,20,DL_heartfullpop_2_Guitar,6,3,DL_heartfullpop_2_Guitar,0.02605096995830536,0
62,100,0.2590909090909091,320,0,20,DL_heartfullpop_2_Guitar,6,4,DL_heartfullpop_2_Guitar,0.02080434374511242,0
53,100,0.2,391,0,20,DL_heartfullpop_2_Guitar,6,3,DL_heartfullpop_2_Guitar,0.01933782361447811,0
65,100,0.1409090909090909,449,0,20,DL_heartfullpop_2_Guitar,6,2,DL_heartfullpop_2_Guitar,0.01989354006946087,0
53,100,0.36363636363636365,509,0,20,DL_heartfullpop_2_Guitar,6,6,DL_heartfullpop_2_Guitar,0.022922251373529434,0
62,100,0.1409090909090909,602,0,20,DL_heartfullpop_2_Guitar,6,2,DL_heartfullpop_2_Guitar,0.02958475798368454,0
53,100,0.740909090909091,642,0,20,DL_heartfullpop_2_Guitar,6,12,DL_heartfullpop_2_Guitar,0.03611020743846893,0
65,100,0.18181818181818182,818,0,20,DL_heartfullpop_2_Guitar,6,3,DL_heartfullpop_2_Guitar,0.041611749678850174,0
65,100,0.4409090909090909,52,1,21,DL_heartfullpop_2_Guitar,6,7,DL_heartfullpop_2_Guitar,0.9996684789657593,1
53,100,0.33636363636363636,150,0,21,DL_heartfullpop_2_Guitar,6,5,DL_heartfullpop_2_Guitar,0.036271851509809494,0
62,100,0.11818181818181818,241,0,21,DL_heartfullpop_2_Guitar,6,2,DL_heartfullpop_2_Guitar,0.026107043027877808,0
62,100,0.18181818181818182,299,0,21,DL_heartfullpop_2_Guitar,6,3,DL_heartfullpop_2_Guitar,0.02056211046874523,0
65,100,0.3,356,0,21,DL_heartfullpop_2_Guitar,6,5,DL_heartfullpop_2_Guitar,0.018720729276537895,0
53,100,0.2,422,0,21,DL_heartfullpop_2_Guitar,6,3,DL_heartfullpop_2_Guitar,0.019308926537632942,0
65,100,0.11818181818181818,550,0,21,DL_heartfullpop_2_Guitar,6,2,DL_heartfullpop_2_Guitar,0.022891845554113388,0
65,100,0.12272727272727273,642,0,21,DL_heartfullpop_2_Guitar,6,2,DL_heartfullpop_2_Guitar,0.02883954532444477,0
53,100,0.4,669,0,21,DL_heartfullpop_2_Guitar,6,6,DL_heartfullpop_2_Guitar,0.035565897822380066,0
53,100,0.1409090909090909,804,0,21,DL_heartfullpop_2_Guitar,6,2,DL_heartfullpop_2_Guitar,0.0398017019033432,0
55,100,0.3,30,1,22,DL_heartfullpop_2_Guitar,6,5,DL_heartfullpop_2_Guitar,0.9997512698173523,1
62,100,0.5590909090909091,171,0,22,DL_heartfullpop_2_Guitar,6,9,DL_heartfullpop_2_Guitar,0.07788483798503876,0
53,100,0.2409090909090909,316,0,22,DL_heartfullpop_2_Guitar,6,4,DL_heartfullpop_2_Guitar,0.07771314680576324,0
62,100,0.18181818181818182,528,0,22,DL_heartfullpop_2_Guitar,6,3,DL_heartfullpop_2_Guitar,0.08094103634357452,0
62,100,0.4590909090909091,594,0,22,DL_heartfullpop_2_Guitar,6,7,DL_heartfullpop_2_Guitar,0.09006088227033615,0
62,100,0.12272727272727273,729,0,22,DL_heartfullpop_2_Guitar,6,2,DL_heartfullpop_2_Guitar,0.1021537035703659,0
53,100,0.1409090909090909,801,0,22,DL_heartfullpop_2_Guitar,6,2,DL_heartfullpop_2_Guitar,0.08746371418237686,0
53,100,0.21818181818181817,0,1,23,DL_heartfullpop_2_Guitar,6,3,DL_heartfullpop_2_Guitar,0.9997312426567078,1
53,100,0.22272727272727272,79,0,23,DL_heartfullpop_2_Guitar,6,4,DL_heartfullpop_2_Guitar,0.05482952669262886,0
60,100,0.1590909090909091,150,0,23,DL_heartfullpop_2_Guitar,6,3,DL_heartfullpop_2_Guitar,0.046717461198568344,0
65,100,0.18181818181818182,356,0,23,DL_heartfullpop_2_Guitar,6,3,DL_heartfullpop_2_Guitar,0.04598574340343475,0
53,100,0.4590909090909091,453,0,23,DL_heartfullpop_2_Guitar,6,7,DL_heartfullpop_2_Guitar,0.04855181276798248,0
53,100,0.2772727272727273,590,0,23,DL_heartfullpop_2_Guitar,6,4,DL_heartfullpop_2_Guitar,0.06014975532889366,0
60,100,0.3,779,0,23,DL_heartfullpop_2_Guitar,6,5,DL_heartfullpop_2_Guitar,0.06472598761320114,0
53,100,0.2,862,0,23,DL_heartfullpop_2_Guitar,6,3,DL_heartfullpop_2_Guitar,0.060966528952121735,0
53,100,0.7181818181818181,119,1,24,DL_heartfullpop_2_Guitar,6,11,DL_heartfullpop_2_Guitar,0.9998236298561096,1
60,100,0.4590909090909091,347,0,24,DL_heartfullpop_2_Guitar,6,7,DL_heartfullpop_2_Guitar,0.21766136586666107,0
53,100,0.13636363636363635,567,0,24,DL_heartfullpop_2_Guitar,6,2,DL_heartfullpop_2_Guitar,0.20248115062713623,0
53,100,0.11818181818181818,656,0,24,DL_heartfullpop_2_Guitar,6,2,DL_heartfullpop_2_Guitar,0.2108212560415268,0
53,100,0.37727272727272726,735,0,24,DL_heartfullpop_2_Guitar,6,6,DL_heartfullpop_2_Guitar,0.20070338249206543,0
60,100,0.13636363636363635,61,1,25,DL_heartfullpop_2_Guitar,6,2,DL_heartfullpop_2_Guitar,0.9997401833534241,1
53,100,0.1409090909090909,144,0,25,DL_heartfullpop_2_Guitar,6,2,DL_heartfullpop_2_Guitar,0.05435841903090477,0
53,100,0.4409090909090909,206,0,25,DL_heartfullpop_2_Guitar,6,7,DL_heartfullpop_2_Guitar,0.044583868235349655,0
60,100,0.4590909090909091,440,1,25,DL_heartfullpop_2_Guitar,6,7,DL_heartfullpop_2_Guitar,0.047130387276411057,0
60,100,0.1409090909090909,563,0,25,DL_heartfullpop_2_Guitar,6,2,DL_heartfullpop_2_Guitar,0.051383428275585175,0
60,100,0.16363636363636364,729,0,25,DL_heartfullpop_2_Guitar,6,3,DL_heartfullpop_2_Guitar,0.060621730983257294,0
53,100,0.23636363636363636,766,0,25,DL_heartfullpop_2_Guitar,6,4,DL_heartfullpop_2_Guitar,0.06345552206039429,0
60,100,0.1,839,0,25,DL_heartfullpop_2_Guitar,6,2,DL_heartfullpop_2_Guitar,0.06064477190375328,0
53,100,0.6227272727272727,26,1,26,DL_heartfullpop_2_Guitar,6,10,DL_heartfullpop_2_Guitar,0.9998217225074768,1
53,100,0.1590909090909091,175,0,26,DL_heartfullpop_2_Guitar,6,3,DL_heartfullpop_2_Guitar,0.22868812084197998,0
60,100,0.13636363636363635,216,0,26,DL_heartfullpop_2_Guitar,6,2,DL_heartfullpop_2_Guitar,0.19697821140289307,0
53,100,0.7,370,0,26,DL_heartfullpop_2_Guitar,6,11,DL_heartfullpop_2_Guitar,0.19489619135856628,0
60,100,0.4772727272727273,779,1,26,DL_heartfullpop_2_Guitar,6,8,DL_heartfullpop_2_Guitar,0.2150019258260727,0
65,100,0.3409090909090909,162,1,27,DL_heartfullpop_2_Guitar,6,5,DL_heartfullpop_2_Guitar,0.9931952953338623,0
65,100,0.2,113,1,28,DL_heartfullpop_2_Guitar,6,3,DL_heartfullpop_2_Guitar,0.9998608827590942,1
57,100,0.18181818181818182,356,1,28,DL_heartfullpop_2_Guitar,6,3,DL_heartfullpop_2_Guitar,0.3112308382987976,0
62,100,0.4,584,0,28,DL_heartfullpop_2_Guitar,6,6,DL_heartfullpop_2_Guitar,0.29116883873939514,0
53,100,0.5,796,0,28,DL_heartfullpop_2_Guitar,6,8,DL_heartfullpop_2_Guitar,0.3020581603050232,0
60,100,1.2818181818181817,88,1,29,DL_heartfullpop_2_Guitar,6,15,DL_heartfullpop_2_Guitar,0.9997979998588562,1
53,100,0.3409090909090909,492,1,29,DL_heartfullpop_2_Guitar,6,5,DL_heartfullpop_2_Guitar,0.2460719347000122,0
65,100,0.2,567,0,29,DL_heartfullpop_2_Guitar,6,3,DL_heartfullpop_2_Guitar,0.2014380246400833,0
53,100,0.32272727272727275,629,0,29,DL_heartfullpop_2_Guitar,6,5,DL_heartfullpop_2_Guitar,0.209535151720047,0
65,100,0.18181818181818182,708,0,29,DL_heartfullpop_2_Guitar,6,3,DL_heartfullpop_2_Guitar,0.21328729391098022,0
60,100,0.2818181818181818,3,1,30,DL_heartfullpop_2_Guitar,6,5,DL_heartfullpop_2_Guitar,0.9997695088386536,1
53,100,0.4409090909090909,131,0,30,DL_heartfullpop_2_Guitar,6,7,DL_heartfullpop_2_Guitar,0.07487072050571442,0
65,100,0.4409090909090909,229,0,30,DL_heartfullpop_2_Guitar,6,7,DL_heartfullpop_2_Guitar,0.07303916662931442,0
53,100,0.2590909090909091,326,0,30,DL_heartfullpop_2_Guitar,6,4,DL_heartfullpop_2_Guitar,0.07998234778642654,0
65,100,0.33636363636363636,413,0,30,DL_heartfullpop_2_Guitar,6,5,DL_heartfullpop_2_Guitar,0.0904112383723259,0
60,100,0.2,650,1,30,DL_heartfullpop_2_Guitar,6,3,DL_heartfullpop_2_Guitar,0.09959641844034195,0
60,100,0.2636363636363636,708,0,30,DL_heartfullpop_2_Guitar,6,4,DL_heartfullpop_2_Guitar,0.08997482061386108,0
62,100,0.35909090909090907,21,1,31,DL_heartfullpop_2_Guitar,6,6,DL_heartfullpop_2_Guitar,0.9998517036437988,1
60,100,0.33636363636363636,150,0,31,DL_heartfullpop_2_Guitar,6,5,DL_heartfullpop_2_Guitar,0.3216661214828491,0
53,100,0.22272727272727272,223,0,31,DL_heartfullpop_2_Guitar,6,4,DL_heartfullpop_2_Guitar,0.293069452047348,0
62,100,0.1590909090909091,501,1,31,DL_heartfullpop_2_Guitar,6,3,DL_heartfullpop_2_Guitar,0.30513980984687805,0
53,100,0.3,748,1,32,DL_heartfullpop_2_Guitar,6,5,DL_heartfullpop_2_Guitar,0.9996362924575806,1
60,100,0.43636363636363634,875,0,32,DL_heartfullpop_2_Guitar,6,7,DL_heartfullpop_2_Guitar,0.5481954216957092,0
53,100,0.2,330,1,33,DL_heartfullpop_2_Guitar,6,3,DL_heartfullpop_2_Guitar,0.9934946894645691,0
53,100,0.1,91,1,34,DL_heartfullpop_2_Guitar,6,2,DL_heartfullpop_2_Guitar,0.9997387528419495,1
65,100,0.2,114,0,34,DL_heartfullpop_2_Guitar,6,3,DL_heartfullpop_2_Guitar,0.054697100073099136,0
62,100,0.2590909090909091,228,0,34,DL_heartfullpop_2_Guitar,6,4,DL_heartfullpop_2_Guitar,0.04680219292640686,0
62,100,0.21818181818181817,295,0,34,DL_heartfullpop_2_Guitar,6,3,DL_heartfullpop_2_Guitar,0.04715321213006973,0
53,100,0.2636363636363636,356,0,34,DL_heartfullpop_2_Guitar,6,4,DL_heartfullpop_2_Guitar,0.05203893035650253,0
62,100,0.3,418,0,34,DL_heartfullpop_2_Guitar,6,5,DL_heartfullpop_2_Guitar,0.05935129150748253,0
53,100,0.12272727272727273,628,0,34,DL_heartfullpop_2_Guitar,6,2,DL_heartfullpop_2_Guitar,0.06794970482587814,0
58,100,0.13636363636363635,700,0,34,DL_heartfullpop_2_Guitar,6,2,DL_heartfullpop_2_Guitar,0.05891282856464386,0
62,100,0.17727272727272728,8,1,35,DL_heartfullpop_2_Guitar,6,3,DL_heartfullpop_2_Guitar,0.9997072815895081,1
53,100,0.3,78,0,35,DL_heartfullpop_2_Guitar,6,5,DL_heartfullpop_2_Guitar,0.04277981072664261,0
65,100,0.1590909090909091,144,0,35,DL_heartfullpop_2_Guitar,6,3,DL_heartfullpop_2_Guitar,0.03355030342936516,0
62,100,0.9,251,0,35,DL_heartfullpop_2_Guitar,6,14,DL_heartfullpop_2_Guitar,0.027996055781841278,0
62,100,0.1409090909090909,471,0,35,DL_heartfullpop_2_Guitar,6,2,DL_heartfullpop_2_Guitar,0.03202566131949425,0
53,100,0.2590909090909091,528,0,35,DL_heartfullpop_2_Guitar,6,4,DL_heartfullpop_2_Guitar,0.034712571650743484,0
69,100,0.1409090909090909,593,0,35,DL_heartfullpop_2_Guitar,6,2,DL_heartfullpop_2_Guitar,0.039963383227586746,0
62,100,0.6590909090909091,691,0,35,DL_heartfullpop_2_Guitar,6,11,DL_heartfullpop_2_Guitar,0.048250094056129456,0
65,100,0.1409090909090909,836,0,35,DL_heartfullpop_2_Guitar,6,2,DL_heartfullpop_2_Guitar,0.05032525584101677,0
64,100,0.8,13,1,36,DL_heartfullpop_2_Guitar,6,13,DL_heartfullpop_2_Guitar,0.9997521042823792,1
60,100,0.21818181818181817,228,0,36,DL_heartfullpop_2_Guitar,6,3,DL_heartfullpop_2_Guitar,0.08649349212646484,0
60,100,0.4636363636363636,289,0,36,DL_heartfullpop_2_Guitar,6,7,DL_heartfullpop_2_Guitar,0.07217412441968918,0
64,100,0.35909090909090907,453,0,36,DL_heartfullpop_2_Guitar,6,6,DL_heartfullpop_2_Guitar,0.08224441111087799,0
60,100,0.2409090909090909,554,0,36,DL_heartfullpop_2_Guitar,6,4,DL_heartfullpop_2_Guitar,0.0925866961479187,0
57,100,0.2590909090909091,611,0,36,DL_heartfullpop_2_Guitar,6,4,DL_heartfullpop_2_Guitar,0.09202086925506592,0
60,100,0.5181818181818182,748,0,36,DL_heartfullpop_2_Guitar,6,8,DL_heartfullpop_2_Guitar,0.09046536684036255,0
57,100,0.1409090909090909,4,1,37,DL_heartfullpop_2_Guitar,6,2,DL_heartfullpop_2_Guitar,0.9998206496238708,1
69,100,0.21818181818181817,110,0,37,DL_heartfullpop_2_Guitar,6,3,DL_heartfullpop_2_Guitar,0.41545310616493225,0
62,100,0.13636363636363635,655,1,37,DL_heartfullpop_2_Guitar,6,2,DL_heartfullpop_2_Guitar,0.43600893020629883,0
62,100,0.1590909090909091,43,1,38,DL_heartfullpop_2_Guitar,6,3,DL_heartfullpop_2_Guitar,0.9997795224189758,1
64,100,0.11818181818181818,241,0,38,DL_heartfullpop_2_Guitar,6,2,DL_heartfullpop_2_Guitar,0.0804072916507721,0
65,100,0.22272727272727272,268,0,38,DL_heartfullpop_2_Guitar,6,4,DL_heartfullpop_2_Guitar,0.0698561891913414,0
53,100,0.11818181818181818,330,0,38,DL_heartfullpop_2_Guitar,6,2,DL_heartfullpop_2_Guitar,0.07968425750732422,0
53,100,0.22272727272727272,541,0,38,DL_heartfullpop_2_Guitar,6,4,DL_heartfullpop_2_Guitar,0.08463598042726517,0
53,100,0.1409090909090909,713,0,38,DL_heartfullpop_2_Guitar,6,2,DL_heartfullpop_2_Guitar,0.09592088311910629,0
62,100,0.11818181818181818,756,0,38,DL_heartfullpop_2_Guitar,6,2,DL_heartfullpop_2_Guitar,0.08483923226594925,0
65,100,0.3181818181818182,31,1,39,DL_heartfullpop_2_Guitar,6,5,DL_heartfullpop_2_Guitar,0.9998319149017334,1
53,100,0.37727272727272726,105,0,39,DL_heartfullpop_2_Guitar,6,6,DL_heartfullpop_2_Guitar,0.20608121156692505,0
58,100,0.1409090909090909,276,0,39,DL_heartfullpop_2_Guitar,6,2,DL_heartfullpop_2_Guitar,0.1904209852218628,0
65,100,0.2409090909090909,364,0,39,DL_heartfullpop_2_Guitar,6,4,DL_heartfullpop_2_Guitar,0.21987731754779816,0
60,100,0.4409090909090909,861,1,39,DL_heartfullpop_2_Guitar,6,7,DL_heartfullpop_2_Guitar,0.209480881690979,0
60,100,0.5636363636363636,268,1,40,DL_heartfullpop_2_Guitar,6,9,DL_heartfullpop_2_Guitar,0.9998005032539368,1
60,100,0.1,421,0,40,DL_heartfullpop_2_Guitar,6,2,DL_heartfullpop_2_Guitar,0.13608266413211823,0
65,100,0.12272727272727273,606,0,40,DL_heartfullpop_2_Guitar,6,2,DL_heartfullpop_2_Guitar,0.11888832598924637,0
53,100,0.3181818181818182,638,0,40,DL_heartfullpop_2_Guitar,6,5,DL_heartfullpop_2_Guitar,0.13038499653339386,0
53,100,0.2590909090909091,765,0,40,DL_heartfullpop_2_Guitar,6,4,DL_heartfullpop_2_Guitar,0.14126814901828766,0
53,100,0.3,839,0,40,DL_heartfullpop_2_Guitar,6,5,DL_heartfullpop_2_Guitar,0.12689916789531708,0
62,100,0.4,61,1,41,DL_heartfullpop_2_Guitar,6,6,DL_heartfullpop_2_Guitar,0.9998440742492676,1
62,100,0.4409090909090909,440,1,41,DL_heartfullpop_2_Guitar,6,7,DL_heartfullpop_2_Guitar,0.3316197693347931,0
62,100,0.2818181818181818,563,0,41,DL_heartfullpop_2_Guitar,6,5,DL_heartfullpop_2_Guitar,0.293136328458786,0
60,100,0.5590909090909091,668,0,41,DL_heartfullpop_2_Guitar,6,9,DL_heartfullpop_2_Guitar,0.3137950599193573,0
53,100,0.17727272727272728,75,1,43,DL_heartfullpop_2_Guitar,6,3,DL_heartfullpop_2_Guitar,0.9997066855430603,1
57,100,0.33636363636363636,193,0,43,DL_heartfullpop_2_Guitar,6,5,DL_heartfullpop_2_Guitar,0.04091566056013107,0
65,100,0.12272727272727273,356,0,43,DL_heartfullpop_2_Guitar,6,2,DL_heartfullpop_2_Guitar,0.034897658973932266,0
53,100,0.2772727272727273,383,0,43,DL_heartfullpop_2_Guitar,6,4,DL_heartfullpop_2_Guitar,0.028892027214169502,0
53,100,0.32272727272727275,453,0,43,DL_heartfullpop_2_Guitar,6,5,DL_heartfullpop_2_Guitar,0.031189773231744766,0
57,100,0.17727272727272728,545,0,43,DL_heartfullpop_2_Guitar,6,3,DL_heartfullpop_2_Guitar,0.033549562096595764,0
53,100,0.22272727272727272,598,0,43,DL_heartfullpop_2_Guitar,6,4,DL_heartfullpop_2_Guitar,0.04184442758560181,0
53,100,0.32272727272727275,716,0,43,DL_heartfullpop_2_Guitar,6,5,DL_heartfullpop_2_Guitar,0.04855380207300186,0
53,100,0.23636363636363636,853,0,43,DL_heartfullpop_2_Guitar,6,4,DL_heartfullpop_2_Guitar,0.04657931253314018,0
57,100,0.32272727272727275,144,1,44,DL_heartfullpop_2_Guitar,6,5,DL_heartfullpop_2_Guitar,0.9996918439865112,1
53,100,0.3409090909090909,228,0,44,DL_heartfullpop_2_Guitar,6,5,DL_heartfullpop_2_Guitar,0.0434388630092144,0
57,100,0.18181818181818182,378,0,44,DL_heartfullpop_2_Guitar,6,3,DL_heartfullpop_2_Guitar,0.033308595418930054,0
53,100,0.2,493,0,44,DL_heartfullpop_2_Guitar,6,3,DL_heartfullpop_2_Guitar,0.030989468097686768,0
53,100,0.6590909090909091,545,0,44,DL_heartfullpop_2_Guitar,6,11,DL_heartfullpop_2_Guitar,0.02893194556236267,0
53,100,0.18181818181818182,751,0,44,DL_heartfullpop_2_Guitar,6,3,DL_heartfullpop_2_Guitar,0.03705194965004921,0
65,100,0.1409090909090909,791,0,44,DL_heartfullpop_2_Guitar,6,2,DL_heartfullpop_2_Guitar,0.041278619319200516,0
53,100,0.1409090909090909,823,0,44,DL_heartfullpop_2_Guitar,6,2,DL_heartfullpop_2_Guitar,0.04950642213225365,0
53,100,0.8181818181818182,875,0,44,DL_heartfullpop_2_Guitar,6,13,DL_heartfullpop_2_Guitar,0.04497656971216202,0
53,100,0.4409090909090909,211,1,45,DL_heartfullpop_2_Guitar,6,7,DL_heartfullpop_2_Guitar,0.9998190999031067,1
62,100,0.2590909090909091,496,1,45,DL_heartfullpop_2_Guitar,6,4,DL_heartfullpop_2_Guitar,0.43520358204841614,0
62,100,0.1590909090909091,558,0,45,DL_heartfullpop_2_Guitar,6,3,DL_heartfullpop_2_Guitar,0.42693063616752625,0
62,100,0.37727272727272726,348,1,46,DL_heartfullpop_2_Guitar,6,6,DL_heartfullpop_2_Guitar,0.9998316764831543,1
62,100,0.2409090909090909,474,0,46,DL_heartfullpop_2_Guitar,6,4,DL_heartfullpop_2_Guitar,0.2082173079252243,0
65,100,0.22272727272727272,619,0,46,DL_heartfullpop_2_Guitar,6,4,DL_heartfullpop_2_Guitar,0.20476120710372925,0
62,100,0.4,694,0,46,DL_heartfullpop_2_Guitar,6,6,DL_heartfullpop_2_Guitar,0.20588701963424683,0
62,100,0.1409090909090909,861,0,46,DL_heartfullpop_2_Guitar,6,2,DL_heartfullpop_2_Guitar,0.2140229195356369,0
62,100,0.13636363636363635,61,1,47,DL_heartfullpop_2_Guitar,6,2,DL_heartfullpop_2_Guitar,0.9998340606689453,1
62,100,0.3,496,1,47,DL_heartfullpop_2_Guitar,6,5,DL_heartfullpop_2_Guitar,0.41281211376190186,0
53,100,0.3,638,0,47,DL_heartfullpop_2_Guitar,6,5,DL_heartfullpop_2_Guitar,0.4272347390651703,0
53,100,0.12272727272727273,201,1,48,DL_heartfullpop_2_Guitar,6,2,DL_heartfullpop_2_Guitar,0.9998455047607422,1
53,100,0.22272727272727272,453,1,48,DL_heartfullpop_2_Guitar,6,4,DL_heartfullpop_2_Guitar,0.19908557832241058,0
53,100,0.1590909090909091,506,0,48,DL_heartfullpop_2_Guitar,6,3,DL_heartfullpop_2_Guitar,0.19686582684516907,0
53,100,0.41818181818181815,655,0,48,DL_heartfullpop_2_Guitar,6,7,DL_heartfullpop_2_Guitar,0.19678539037704468,0
53,100,0.2590909090909091,853,0,48,DL_heartfullpop_2_Guitar,6,4,DL_heartfullpop_2_Guitar,0.20481763780117035,0
53,100,0.2818181818181818,179,1,49,DL_heartfullpop_2_Guitar,6,5,DL_heartfullpop_2_Guitar,0.9998071789741516,1
62,100,0.11818181818181818,458,1,49,DL_heartfullpop_2_Guitar,6,2,DL_heartfullpop_2_Guitar,0.1268095076084137,0
60,100,0.1409090909090909,515,0,49,DL_heartfullpop_2_Guitar,6,2,DL_heartfullpop_2_Guitar,0.12139686942100525,0
53,100,0.17727272727272728,558,0,49,DL_heartfullpop_2_Guitar,6,3,DL_heartfullpop_2_Guitar,0.1297379732131958,0
53,100,0.5590909090909091,738,0,49,DL_heartfullpop_2_Guitar,6,9,DL_heartfullpop_2_Guitar,0.1365775316953659,0
53,100,0.1590909090909091,871,0,49,DL_heartfullpop_2_Guitar,6,3,DL_heartfullpop_2_Guitar,0.13630366325378418,0
65,100,0.18181818181818182,26,1,50,DL_heartfullpop_2_Guitar,6,3,DL_heartfullpop_2_Guitar,0.9998389482498169,1
53,100,0.1409090909090909,66,0,50,DL_heartfullpop_2_Guitar,6,2,DL_heartfullpop_2_Guitar,0.21295367181301117,0
62,100,0.4409090909090909,185,0,50,DL_heartfullpop_2_Guitar,6,7,DL_heartfullpop_2_Guitar,0.18776437640190125,0
60,100,0.3,396,0,50,DL_heartfullpop_2_Guitar,6,5,DL_heartfullpop_2_Guitar,0.20780667662620544,0
60,100,0.12272727272727273,474,0,50,DL_heartfullpop_2_Guitar,6,2,DL_heartfullpop_2_Guitar,0.2029268443584442,0
62,100,0.4,114,1,51,DL_heartfullpop_2_Guitar,6,6,DL_heartfullpop_2_Guitar,0.9998282194137573,1
60,100,0.1409090909090909,211,0,51,DL_heartfullpop_2_Guitar,6,2,DL_heartfullpop_2_Guitar,0.41775286197662354,0
65,100,0.38181818181818183,330,0,51,DL_heartfullpop_2_Guitar,6,6,DL_heartfullpop_2_Guitar,0.4260648190975189,0
58,100,0.1590909090909091,651,1,52,DL_heartfullpop_2_Guitar,6,3,DL_heartfullpop_2_Guitar,0.9996137022972107,1
53,100,0.1,691,0,52,DL_heartfullpop_2_Guitar,6,2,DL_heartfullpop_2_Guitar,0.5590748190879822,0
58,100,0.3409090909090909,66,1,53,DL_heartfullpop_2_Guitar,6,5,DL_heartfullpop_2_Guitar,0.9998186230659485,1
53,100,0.12272727272727273,408,1,53,DL_heartfullpop_2_Guitar,6,2,DL_heartfullpop_2_Guitar,0.4355398118495941,0
62,100,0.4,616,0,53,DL_heartfullpop_2_Guitar,6,6,DL_heartfullpop_2_Guitar,0.42127373814582825,0
62,100,0.4590909090909091,853,1,54,DL_heartfullpop_2_Guitar,6,7,DL_heartfullpop_2_Guitar,0.9928526282310486,0
62,100,0.1409090909090909,166,1,55,DL_heartfullpop_2_Guitar,6,2,DL_heartfullpop_2_Guitar,0.9998044371604919,1
62,100,0.759090909090909,286,0,55,DL_heartfullpop_2_Guitar,6,12,DL_heartfullpop_2_Guitar,0.11639673262834549,0
55,100,0.5590909090909091,518,1,55,DL_heartfullpop_2_Guitar,6,9,DL_heartfullpop_2_Guitar,0.12091261893510818,0
55,100,0.43636363636363634,655,0,55,DL_heartfullpop_2_Guitar,6,7,DL_heartfullpop_2_Guitar,0.14064045250415802,0
53,100,0.11818181818181818,765,0,55,DL_heartfullpop_2_Guitar,6,2,DL_heartfullpop_2_Guitar,0.15979264676570892,0
55,100,0.1409090909090909,804,0,55,DL_heartfullpop_2_Guitar,6,2,DL_heartfullpop_2_Guitar,0.13611792027950287,0
55,100,0.12272727272727273,48,1,56,DL_heartfullpop_2_Guitar,6,2,DL_heartfullpop_2_Guitar,0.9998220801353455,1
60,100,0.7,351,1,56,DL_heartfullpop_2_Guitar,6,11,DL_heartfullpop_2_Guitar,0.4027855694293976,0
60,100,1.040909090909091,571,0,56,DL_heartfullpop_2_Guitar,6,15,DL_heartfullpop_2_Guitar,0.4272924065589905,0
53,100,0.11818181818181818,153,1,57,DL_heartfullpop_2_Guitar,6,2,DL_heartfullpop_2_Guitar,0.9935164451599121,0
65,100,0.18181818181818182,56,1,58,DL_heartfullpop_2_Guitar,6,3,DL_heartfullpop_2_Guitar,0.9998363256454468,1
65,100,0.3409090909090909,233,0,58,DL_heartfullpop_2_Guitar,6,5,DL_heartfullpop_2_Guitar,0.3977501392364502,0
60,100,0.4636363636363636,774,1,58,DL_heartfullpop_2_Guitar,6,7,DL_heartfullpop_2_Guitar,0.4285290241241455,0
60,100,0.18181818181818182,136,1,59,DL_heartfullpop_2_Guitar,6,3,DL_heartfullpop_2_Guitar,0.9997392296791077,1
60,100,0.2636363636363636,179,0,59,DL_heartfullpop_2_Guitar,6,4,DL_heartfullpop_2_Guitar,0.05488685891032219,0
60,100,0.1409090909090909,311,0,59,DL_heartfullpop_2_Guitar,6,2,DL_heartfullpop_2_Guitar,0.04739713296294212,0
53,100,0.5409090909090909,474,0,59,DL_heartfullpop_2_Guitar,6,9,DL_heartfullpop_2_Guitar,0.04322453960776329,0
53,100,0.3,606,0,59,DL_heartfullpop_2_Guitar,6,5,DL_heartfullpop_2_Guitar,0.054955463856458664,0
65,100,0.12272727272727273,673,0,59,DL_heartfullpop_2_Guitar,6,2,DL_heartfullpop_2_Guitar,0.0598096027970314,0
53,100,0.5363636363636364,743,0,59,DL_heartfullpop_2_Guitar,6,9,DL_heartfullpop_2_Guitar,0.06362351775169373,0
53,100,0.2818181818181818,871,0,59,DL_heartfullpop_2_Guitar,6,5,DL_heartfullpop_2_Guitar,0.06348105520009995,0
53,100,0.35909090909090907,128,1,60,DL_heartfullpop_2_Guitar,6,6,DL_heartfullpop_2_Guitar,0.9996827840805054,1
53,100,0.18181818181818182,276,0,60,DL_heartfullpop_2_Guitar,6,3,DL_heartfullpop_2_Guitar,0.03617898002266884,0
60,100,0.2,330,0,60,DL_heartfullpop_2_Guitar,6,3,DL_heartfullpop_2_Guitar,0.025957327336072922,0
53,100,0.2409090909090909,386,0,60,DL_heartfullpop_2_Guitar,6,4,DL_heartfullpop_2_Guitar,0.020644379779696465,0
65,100,0.11818181818181818,440,0,60,DL_heartfullpop_2_Guitar,6,2,DL_heartfullpop_2_Guitar,0.018991287797689438,0
53,100,0.16363636363636364,466,0,60,DL_heartfullpop_2_Guitar,6,3,DL_heartfullpop_2_Guitar,0.019227109849452972,0
53,100,0.16363636363636364,509,0,60,DL_heartfullpop_2_Guitar,6,3,DL_heartfullpop_2_Guitar,0.021729599684476852,0
60,100,0.1,606,0,60,DL_heartfullpop_2_Guitar,6,2,DL_heartfullpop_2_Guitar,0.028372235596179962,0
53,100,0.33636363636363636,633,0,60,DL_heartfullpop_2_Guitar,6,5,DL_heartfullpop_2_Guitar,0.03521905094385147,0
53,100,0.1590909090909091,716,0,60,DL_heartfullpop_2_Guitar,6,3,DL_heartfullpop_2_Guitar,0.03883224353194237,0
53,100,0.2590909090909091,18,1,61,DL_heartfullpop_2_Guitar,6,4,DL_heartfullpop_2_Guitar,0.9996699094772339,1
53,100,0.2590909090909091,78,0,61,DL_heartfullpop_2_Guitar,6,4,DL_heartfullpop_2_Guitar,0.0320780910551548,0
53,100,0.2,153,0,61,DL_heartfullpop_2_Guitar,6,3,DL_heartfullpop_2_Guitar,0.02152673341333866,0
53,100,0.2818181818181818,289,0,61,DL_heartfullpop_2_Guitar,6,5,DL_heartfullpop_2_Guitar,0.016117537394165993,0
65,100,0.2409090909090909,351,0,61,DL_heartfullpop_2_Guitar,6,4,DL_heartfullpop_2_Guitar,0.013508159667253494,0
53,100,0.3,405,0,61,DL_heartfullpop_2_Guitar,6,5,DL_heartfullpop_2_Guitar,0.01303804013878107,0
53,100,0.23636363636363636,545,0,61,DL_heartfullpop_2_Guitar,6,4,DL_heartfullpop_2_Guitar,0.013386625796556473,0
53,100,0.11818181818181818,625,0,61,DL_heartfullpop_2_Guitar,6,2,DL_heartfullpop_2_Guitar,0.01736164279282093,0
53,100,0.16363636363636364,664,0,61,DL_heartfullpop_2_Guitar,6,3,DL_heartfullpop_2_Guitar,0.02320641279220581,0
53,100,0.17727272727272728,713,0,61,DL_heartfullpop_2_Guitar,6,3,DL_heartfullpop_2_Guitar,0.032533109188079834,0
62,100,1.1636363636363636,796,0,61,DL_heartfullpop_2_Guitar,6,15,DL_heartfullpop_2_Guitar,0.032012250274419785,0
65,100,0.18181818181818182,188,1,62,DL_heartfullpop_2_Guitar,6,3,DL_heartfullpop_2_Guitar,0.9998076558113098,1
65,100,0.1,263,0,62,DL_heartfullpop_2_Guitar,6,2,DL_heartfullpop_2_Guitar,0.12607665359973907,0
62,100,0.2,361,0,62,DL_heartfullpop_2_Guitar,6,3,DL_heartfullpop_2_Guitar,0.1163863018155098,0
62,100,0.21818181818181817,506,0,62,DL_heartfullpop_2_Guitar,6,3,DL_heartfullpop_2_Guitar,0.1348126083612442,0
62,100,0.5590909090909091,568,0,62,DL_heartfullpop_2_Guitar,6,9,DL_heartfullpop_2_Guitar,0.13494588434696198,0
65,100,0.22272727272727272,761,0,62,DL_heartfullpop_2_Guitar,6,4,DL_heartfullpop_2_Guitar,0.13564646244049072,0
62,100,0.22272727272727272,13,1,63,DL_heartfullpop_2_Guitar,6,4,DL_heartfullpop_2_Guitar,0.9998428821563721,1
62,100,0.3181818181818182,198,0,63,DL_heartfullpop_2_Guitar,6,5,DL_heartfullpop_2_Guitar,0.2088944911956787,0
65,100,0.3,268,0,63,DL_heartfullpop_2_Guitar,6,5,DL_heartfullpop_2_Guitar,0.19275794923305511,0
62,100,0.11818181818181818,603,1,63,DL_heartfullpop_2_Guitar,6,2,DL_heartfullpop_2_Guitar,0.2110634744167328,0
65,100,0.22272727272727272,664,0,63,DL_heartfullpop_2_Guitar,6,4,DL_heartfullpop_2_Guitar,0.20398791134357452,0
65,100,0.17727272727272728,62,1,64,DL_heartfullpop_2_Guitar,6,3,DL_heartfullpop_2_Guitar,0.9996740818023682,1
62,100,0.1590909090909091,176,0,64,DL_heartfullpop_2_Guitar,6,3,DL_heartfullpop_2_Guitar,0.03124568611383438,0
53,100,0.3,237,0,64,DL_heartfullpop_2_Guitar,6,5,DL_heartfullpop_2_Guitar,0.021242182701826096,0
62,100,0.5,316,0,64,DL_heartfullpop_2_Guitar,6,8,DL_heartfullpop_2_Guitar,0.01583850011229515,0
65,100,0.2590909090909091,430,0,64,DL_heartfullpop_2_Guitar,6,4,DL_heartfullpop_2_Guitar,0.01410205289721489,0
58,100,0.2,519,0,64,DL_heartfullpop_2_Guitar,6,3,DL_heartfullpop_2_Guitar,0.012033926323056221,0
53,100,0.3,619,0,64,DL_heartfullpop_2_Guitar,6,5,DL_heartfullpop_2_Guitar,0.014302490279078484,0
65,100,0.3,686,0,64,DL_heartfullpop_2_Guitar,6,5,DL_heartfullpop_2_Guitar,0.017110487446188927,0
53,100,0.32272727272727275,752,0,64,DL_heartfullpop_2_Guitar,6,5,DL_heartfullpop_2_Guitar,0.02338307909667492,0
65,100,0.21818181818181817,823,0,64,DL_heartfullpop_2_Guitar,6,3,DL_heartfullpop_2_Guitar,0.03211848810315132,0
53,100,0.35909090909090907,876,0,64,DL_heartfullpop_2_Guitar,6,6,DL_heartfullpop_2_Guitar,0.03476176783442497,0
65,100,0.4636363636363636,113,1,65,DL_heartfullpop_2_Guitar,6,7,DL_heartfullpop_2_Guitar,0.9997274279594421,1
53,100,0.5181818181818182,250,0,65,DL_heartfullpop_2_Guitar,6,8,DL_heartfullpop_2_Guitar,0.054260700941085815,0
53,100,0.32272727272727275,377,0,65,DL_heartfullpop_2_Guitar,6,5,DL_heartfullpop_2_Guitar,0.04793644696474075,0
58,100,0.3409090909090909,475,0,65,DL_heartfullpop_2_Guitar,6,5,DL_heartfullpop_2_Guitar,0.04457005113363266,0
65,100,0.11818181818181818,580,0,65,DL_heartfullpop_2_Guitar,6,2,DL_heartfullpop_2_Guitar,0.054193973541259766,0
53,100,0.42272727272727273,642,0,65,DL_heartfullpop_2_Guitar,6,7,DL_heartfullpop_2_Guitar,0.059389688074588776,0
53,100,0.2,773,0,65,DL_heartfullpop_2_Guitar,6,3,DL_heartfullpop_2_Guitar,0.06806434690952301,0
62,100,0.3,823,0,65,DL_heartfullpop_2_Guitar,6,5,DL_heartfullpop_2_Guitar,0.061841562390327454,0
53,100,0.11818181818181818,150,1,66,DL_heartfullpop_2_Guitar,6,2,DL_heartfullpop_2_Guitar,0.9998114705085754,1
60,100,0.35909090909090907,193,0,66,DL_heartfullpop_2_Guitar,6,6,DL_heartfullpop_2_Guitar,0.122904933989048,0
53,100,0.4409090909090909,396,0,66,DL_heartfullpop_2_Guitar,6,7,DL_heartfullpop_2_Guitar,0.11808247119188309,0
53,100,0.1590909090909091,496,0,66,DL_heartfullpop_2_Guitar,6,3,DL_heartfullpop_2_Guitar,0.14160111546516418,0
53,100,0.1409090909090909,540,0,66,DL_heartfullpop_2_Guitar,6,2,DL_heartfullpop_2_Guitar,0.14232763648033142,0
60,100,0.8181818181818182,572,0,66,DL_heartfullpop_2_Guitar,6,13,DL_heartfullpop_2_Guitar,0.124172143638134,0
53,100,0.1,56,1,67,DL_heartfullpop_2_Guitar,6,2,DL_heartfullpop_2_Guitar,0.9997429251670837,1
65,100,0.3409090909090909,100,0,67,DL_heartfullpop_2_Guitar,6,5,DL_heartfullpop_2_Guitar,0.05270262062549591,0
60,100,0.32272727272727275,179,0,67,DL_heartfullpop_2_Guitar,6,5,DL_heartfullpop_2_Guitar,0.04628091678023338,0
65,100,0.17727272727272728,260,0,67,DL_heartfullpop_2_Guitar,6,3,DL_heartfullpop_2_Guitar,0.04543827101588249,0
60,100,0.2,365,0,67,DL_heartfullpop_2_Guitar,6,3,DL_heartfullpop_2_Guitar,0.05242873728275299,0
60,100,0.7,413,0,67,DL_heartfullpop_2_Guitar,6,11,DL_heartfullpop_2_Guitar,0.05531865358352661,0
60,100,0.3,612,0,67,DL_heartfullpop_2_Guitar,6,5,DL_heartfullpop_2_Guitar,0.06973068416118622,0
65,100,0.3,832,0,67,DL_heartfullpop_2_Guitar,6,5,DL_heartfullpop_2_Guitar,0.060246001929044724,0
60,100,0.21818181818181817,30,1,68,DL_heartfullpop_2_Guitar,6,3,DL_heartfullpop_2_Guitar,0.9997425675392151,1
65,100,0.38181818181818183,113,0,68,DL_heartfullpop_2_Guitar,6,6,DL_heartfullpop_2_Guitar,0.05448748916387558,0
53,100,0.12272727272727273,202,0,68,DL_heartfullpop_2_Guitar,6,2,DL_heartfullpop_2_Guitar,0.048072438687086105,0
65,100,0.4,242,0,68,DL_heartfullpop_2_Guitar,6,6,DL_heartfullpop_2_Guitar,0.04668606445193291,0
60,100,0.5409090909090909,330,0,68,DL_heartfullpop_2_Guitar,6,9,DL_heartfullpop_2_Guitar,0.05452796816825867,0
65,100,0.3181818181818182,457,0,68,DL_heartfullpop_2_Guitar,6,5,DL_heartfullpop_2_Guitar,0.06315210461616516,0
60,100,0.7818181818181819,593,0,68,DL_heartfullpop_2_Guitar,6,13,DL_heartfullpop_2_Guitar,0.0633264034986496,0
53,100,0.9409090909090909,839,1,68,DL_heartfullpop_2_Guitar,6,15,DL_heartfullpop_2_Guitar,0.06288450211286545,0
65,100,0.2818181818181818,166,1,69,DL_heartfullpop_2_Guitar,6,5,DL_heartfullpop_2_Guitar,0.9998064637184143,1
53,100,0.11818181818181818,263,0,69,DL_heartfullpop_2_Guitar,6,2,DL_heartfullpop_2_Guitar,0.1299118995666504,0
53,100,0.1590909090909091,294,0,69,DL_heartfullpop_2_Guitar,6,3,DL_heartfullpop_2_Guitar,0.12126412987709045,0
53,100,0.2590909090909091,352,0,69,DL_heartfullpop_2_Guitar,6,4,DL_heartfullpop_2_Guitar,0.13158230483531952,0
53,100,0.3,496,0,69,DL_heartfullpop_2_Guitar,6,5,DL_heartfullpop_2_Guitar,0.14107036590576172,0
65,100,0.22272727272727272,563,0,69,DL_heartfullpop_2_Guitar,6,4,DL_heartfullpop_2_Guitar,0.12794344127178192,0
60,100,0.1590909090909091,40,1,70,DL_heartfullpop_2_Guitar,6,3,DL_heartfullpop_2_Guitar,0.9996861219406128,1
60,100,0.11818181818181818,87,0,70,DL_heartfullpop_2_Guitar,6,2,DL_heartfullpop_2_Guitar,0.03609839826822281,0
53,100,0.2818181818181818,123,0,70,DL_heartfullpop_2_Guitar,6,5,DL_heartfullpop_2_Guitar,0.024746274575591087,0
65,100,0.3,330,0,70,DL_heartfullpop_2_Guitar,6,5,DL_heartfullpop_2_Guitar,0.021445875987410545,0
53,100,0.2818181818181818,396,0,70,DL_heartfullpop_2_Guitar,6,5,DL_heartfullpop_2_Guitar,0.01899365894496441,0
53,100,0.11818181818181818,470,0,70,DL_heartfullpop_2_Guitar,6,2,DL_heartfullpop_2_Guitar,0.02007937803864479,0
53,100,0.36363636363636365,509,0,70,DL_heartfullpop_2_Guitar,6,6,DL_heartfullpop_2_Guitar,0.022624649107456207,0
60,100,0.2409090909090909,597,0,70,DL_heartfullpop_2_Guitar,6,4,DL_heartfullpop_2_Guitar,0.029484840109944344,0
53,100,0.4772727272727273,656,0,70,DL_heartfullpop_2_Guitar,6,8,DL_heartfullpop_2_Guitar,0.03690413385629654,0
53,100,0.5772727272727273,766,0,70,DL_heartfullpop_2_Guitar,6,9,DL_heartfullpop_2_Guitar,0.038713112473487854,0
60,100,0.21818181818181817,40,1,71,DL_heartfullpop_2_Guitar,6,3,DL_heartfullpop_2_Guitar,0.999703586101532,1
53,100,0.11818181818181818,106,0,71,DL_heartfullpop_2_Guitar,6,2,DL_heartfullpop_2_Guitar,0.0435054637491703,0
53,100,0.1409090909090909,157,0,71,DL_heartfullpop_2_Guitar,6,2,DL_heartfullpop_2_Guitar,0.03263895958662033,0
60,100,0.21818181818181817,197,0,71,DL_heartfullpop_2_Guitar,6,3,DL_heartfullpop_2_Guitar,0.030047258362174034,0
62,100,0.2590909090909091,276,0,71,DL_heartfullpop_2_Guitar,6,4,DL_heartfullpop_2_Guitar,0.029651671648025513,0
62,100,0.6181818181818182,339,0,71,DL_heartfullpop_2_Guitar,6,10,DL_heartfullpop_2_Guitar,0.03196258842945099,0
62,100,0.2590909090909091,480,0,71,DL_heartfullpop_2_Guitar,6,4,DL_heartfullpop_2_Guitar,0.04386810213327408,0
62,100,0.2409090909090909,603,0,71,DL_heartfullpop_2_Guitar,6,4,DL_heartfullpop_2_Guitar,0.04782968387007713,0
65,100,0.2590909090909091,870,1,71,DL_heartfullpop_2_Guitar,6,4,DL_heartfullpop_2_Guitar,0.046595633029937744,0
65,100,0.4409090909090909,69,1,72,DL_heartfullpop_2_Guitar,6,7,DL_heartfullpop_2_Guitar,0.999717652797699,1
62,100,0.3,233,0,72,DL_heartfullpop_2_Guitar,6,5,DL_heartfullpop_2_Guitar,0.0568217895925045,0
65,100,0.17727272727272728,370,0,72,DL_heartfullpop_2_Guitar,6,3,DL_heartfullpop_2_Guitar,0.048317790031433105,0
62,100,0.36363636363636365,553,0,72,DL_heartfullpop_2_Guitar,6,6,DL_heartfullpop_2_Guitar,0.046372998505830765,0
65,100,0.3181818181818182,633,0,72,DL_heartfullpop_2_Guitar,6,5,DL_heartfullpop_2_Guitar,0.05381946638226509,0
53,100,0.2,716,0,72,DL_heartfullpop_2_Guitar,6,3,DL_heartfullpop_2_Guitar,0.06177326664328575,0
62,100,0.11818181818181818,823,0,72,DL_heartfullpop_2_Guitar,6,2,DL_heartfullpop_2_Guitar,0.06668032705783844,0
62,100,0.4,866,0,72,DL_heartfullpop_2_Guitar,6,6,DL_heartfullpop_2_Guitar,0.059779174625873566,0
57,100,0.1590909090909091,79,1,73,DL_heartfullpop_2_Guitar,6,3,DL_heartfullpop_2_Guitar,0.9998028874397278,1
65,100,0.1590909090909091,145,0,73,DL_heartfullpop_2_Guitar,6,3,DL_heartfullpop_2_Guitar,0.1278434842824936,0
57,100,0.13636363636363635,216,0,73,DL_heartfullpop_2_Guitar,6,2,DL_heartfullpop_2_Guitar,0.11645279079675674,0
65,100,0.2818181818181818,386,0,73,DL_heartfullpop_2_Guitar,6,5,DL_heartfullpop_2_Guitar,0.13588576018810272,0
62,100,0.12272727272727273,453,0,73,DL_heartfullpop_2_Guitar,6,2,DL_heartfullpop_2_Guitar,0.1423438936471939,0
53,100,0.18181818181818182,593,0,73,DL_heartfullpop_2_Guitar,6,3,DL_heartfullpop_2_Guitar,0.1284305304288864,0
60,100,0.32272727272727275,13,1,74,DL_heartfullpop_2_Guitar,6,5,DL_heartfullpop_2_Guitar,0.9997097849845886,1
53,100,0.2590909090909091,100,0,74,DL_heartfullpop_2_Guitar,6,4,DL_heartfullpop_2_Guitar,0.04232902079820633,0
53,100,0.35909090909090907,352,1,74,DL_heartfullpop_2_Guitar,6,6,DL_heartfullpop_2_Guitar,0.03232705593109131,0
53,100,0.2,436,0,74,DL_heartfullpop_2_Guitar,6,3,DL_heartfullpop_2_Guitar,0.03006640262901783,0
65,100,0.1,502,0,74,DL_heartfullpop_2_Guitar,6,2,DL_heartfullpop_2_Guitar,0.03024262748658657,0
65,100,0.1,536,0,74,DL_heartfullpop_2_Guitar,6,2,DL_heartfullpop_2_Guitar,0.03294007480144501,0
53,100,0.1409090909090909,619,0,74,DL_heartfullpop_2_Guitar,6,2,DL_heartfullpop_2_Guitar,0.04001873359084129,0
53,100,0.2,747,0,74,DL_heartfullpop_2_Guitar,6,3,DL_heartfullpop_2_Guitar,0.047238584607839584,0
60,100,0.2,849,0,74,DL_heartfullpop_2_Guitar,6,3,DL_heartfullpop_2_Guitar,0.04552596062421799,0
65,100,0.2,22,1,75,DL_heartfullpop_2_Guitar,6,3,DL_heartfullpop_2_Guitar,0.999703586101532,1
53,100,0.2409090909090909,69,0,75,DL_heartfullpop_2_Guitar,6,4,DL_heartfullpop_2_Guitar,0.04218611121177673,0
60,100,0.41818181818181815,150,0,75,DL_heartfullpop_2_Guitar,6,7,DL_heartfullpop_2_Guitar,0.03259581699967384,0
60,100,0.4818181818181818,286,0,75,DL_heartfullpop_2_Guitar,6,8,DL_heartfullpop_2_Guitar,0.02970874309539795,0
65,100,0.3,392,0,75,DL_heartfullpop_2_Guitar,6,5,DL_heartfullpop_2_Guitar,0.03004177287220955,0
60,100,0.12272727272727273,466,0,75,DL_heartfullpop_2_Guitar,6,2,DL_heartfullpop_2_Guitar,0.03578666225075722,0
53,100,0.16363636363636364,509,0,75,DL_heartfullpop_2_Guitar,6,3,DL_heartfullpop_2_Guitar,0.03994312882423401,0
65,100,0.4409090909090909,597,0,75,DL_heartfullpop_2_Guitar,6,7,DL_heartfullpop_2_Guitar,0.045416418462991714,0
53,100,0.4409090909090909,844,1,75,DL_heartfullpop_2_Guitar,6,7,DL_heartfullpop_2_Guitar,0.04696614667773247,0
53,100,0.2590909090909091,83,1,76,DL_heartfullpop_2_Guitar,6,4,DL_heartfullpop_2_Guitar,0.9998311996459961,1
53,100,0.18181818181818182,176,0,76,DL_heartfullpop_2_Guitar,6,3,DL_heartfullpop_2_Guitar,0.20494365692138672,0
53,100,1.1,229,0,76,DL_heartfullpop_2_Guitar,6,15,DL_heartfullpop_2_Guitar,0.1787690669298172,0
60,100,0.1409090909090909,713,1,76,DL_heartfullpop_2_Guitar,6,2,DL_heartfullpop_2_Guitar,0.23722951114177704,0
53,100,0.23636363636363636,876,0,76,DL_heartfullpop_2_Guitar,6,4,DL_heartfullpop_2_Guitar,0.20611190795898438,0
53,100,0.5590909090909091,127,1,77,DL_heartfullpop_2_Guitar,6,9,DL_heartfullpop_2_Guitar,0.999783456325531,1
60,100,0.1,413,1,77,DL_heartfullpop_2_Guitar,6,2,DL_heartfullpop_2_Guitar,0.1401492953300476,0
53,100,0.5,440,0,77,DL_heartfullpop_2_Guitar,6,8,DL_heartfullpop_2_Guitar,0.11566953361034393,0
53,100,0.18181818181818182,563,0,77,DL_heartfullpop_2_Guitar,6,3,DL_heartfullpop_2_Guitar,0.13544705510139465,0
65,100,0.11818181818181818,656,0,77,DL_heartfullpop_2_Guitar,6,2,DL_heartfullpop_2_Guitar,0.14842893183231354,0
60,100,0.3181818181818182,734,0,77,DL_heartfullpop_2_Guitar,6,5,DL_heartfullpop_2_Guitar,0.13207320868968964,0
53,100,0.12272727272727273,69,1,78,DL_heartfullpop_2_Guitar,6,2,DL_heartfullpop_2_Guitar,0.9997357726097107,1
60,100,0.11818181818181818,119,0,78,DL_heartfullpop_2_Guitar,6,2,DL_heartfullpop_2_Guitar,0.05539138615131378,0
53,100,0.8772727272727273,273,0,78,DL_heartfullpop_2_Guitar,6,14,DL_heartfullpop_2_Guitar,0.041992899030447006,0
65,100,0.22272727272727272,532,1,78,DL_heartfullpop_2_Guitar,6,4,DL_heartfullpop_2_Guitar,0.050016652792692184,0
65,100,0.36363636363636365,597,0,78,DL_heartfullpop_2_Guitar,6,6,DL_heartfullpop_2_Guitar,0.051029324531555176,0
65,100,0.18181818181818182,682,0,78,DL_heartfullpop_2_Guitar,6,3,DL_heartfullpop_2_Guitar,0.062194064259529114,0
53,100,0.1,722,0,78,DL_heartfullpop_2_Guitar,6,2,DL_heartfullpop_2_Guitar,0.06658416986465454,0
65,100,0.3,743,0,78,DL_heartfullpop_2_Guitar,6,5,DL_heartfullpop_2_Guitar,0.05866830796003342,0
53,100,0.1,110,1,79,DL_heartfullpop_2_Guitar,6,2,DL_heartfullpop_2_Guitar,0.9998316764831543,1
55,100,0.21818181818181817,457,1,79,DL_heartfullpop_2_Guitar,6,3,DL_heartfullpop_2_Guitar,0.40987643599510193,0
55,100,1.3,673,0,79,DL_heartfullpop_2_Guitar,6,15,DL_heartfullpop_2_Guitar,0.40342235565185547,0
55,100,0.42272727272727273,453,1,80,DL_heartfullpop_2_Guitar,6,7,DL_heartfullpop_2_Guitar,0.9998162388801575,1
53,100,0.1409090909090909,637,0,80,DL_heartfullpop_2_Guitar,6,2,DL_heartfullpop_2_Guitar,0.43824949860572815,0
65,100,0.38181818181818183,673,0,80,DL_heartfullpop_2_Guitar,6,6,DL_heartfullpop_2_Guitar,0.4218514859676361,0
53,100,0.11818181818181818,153,1,81,DL_heartfullpop_2_Guitar,6,2,DL_heartfullpop_2_Guitar,0.9998400211334229,1
65,100,0.12272727272727273,532,1,81,DL_heartfullpop_2_Guitar,6,2,DL_heartfullpop_2_Guitar,0.4003545045852661,0
62,100,0.1,743,0,81,DL_heartfullpop_2_Guitar,6,2,DL_heartfullpop_2_Guitar,0.4261549413204193,0
53,100,0.13636363636363635,303,1,82,DL_heartfullpop_2_Guitar,6,2,DL_heartfullpop_2_Guitar,0.9932706952095032,0
55,100,0.1,197,1,84,DL_heartfullpop_2_Guitar,6,2,DL_heartfullpop_2_Guitar,0.9998277425765991,1
60,100,0.1409090909090909,426,0,84,DL_heartfullpop_2_Guitar,6,2,DL_heartfullpop_2_Guitar,0.4312187135219574,0
60,100,1.8772727272727272,480,0,84,DL_heartfullpop_2_Guitar,6,15,DL_heartfullpop_2_Guitar,0.39354589581489563,0
53,100,0.1,330,1,85,DL_heartfullpop_2_Guitar,6,2,DL_heartfullpop_2_Guitar,0.9998151659965515,1
53,100,0.2772727272727273,392,0,85,DL_heartfullpop_2_Guitar,6,4,DL_heartfullpop_2_Guitar,0.12047956138849258,0
53,100,0.3,462,0,85,DL_heartfullpop_2_Guitar,6,5,DL_heartfullpop_2_Guitar,0.12197461724281311,0
53,100,0.2772727272727273,567,0,85,DL_heartfullpop_2_Guitar,6,4,DL_heartfullpop_2_Guitar,0.1335456520318985,0
53,100,0.2409090909090909,800,1,85,DL_heartfullpop_2_Guitar,6,4,DL_heartfullpop_2_Guitar,0.14280524849891663,0
57,100,0.1,866,0,85,DL_heartfullpop_2_Guitar,6,2,DL_heartfullpop_2_Guitar,0.13075010478496552,0
60,100,0.17727272727272728,273,1,86,DL_heartfullpop_2_Guitar,6,3,DL_heartfullpop_2_Guitar,0.9998136162757874,1
60,100,0.18181818181818182,320,0,86,DL_heartfullpop_2_Guitar,6,3,DL_heartfullpop_2_Guitar,0.12156765908002853,0
60,100,0.4,392,0,86,DL_heartfullpop_2_Guitar,6,6,DL_heartfullpop_2_Guitar,0.11471019685268402,0
53,100,0.3181818181818182,480,0,86,DL_heartfullpop_2_Guitar,6,5,DL_heartfullpop_2_Guitar,0.13575564324855804,0
60,100,0.2409090909090909,559,0,86,DL_heartfullpop_2_Guitar,6,4,DL_heartfullpop_2_Guitar,0.14082026481628418,0
60,100,0.2772727272727273,844,1,86,DL_heartfullpop_2_Guitar,6,4,DL_heartfullpop_2_Guitar,0.1320427656173706,0
60,100,0.2,30,1,87,DL_heartfullpop_2_Guitar,6,3,DL_heartfullpop_2_Guitar,0.9998610019683838,1
60,100,0.11818181818181818,87,0,87,DL_heartfullpop_2_Guitar,6,2,DL_heartfullpop_2_Guitar,0.31939128041267395,0
60,100,0.11818181818181818,197,0,87,DL_heartfullpop_2_Guitar,6,2,DL_heartfullpop_2_Guitar,0.2904541492462158,0
53,100,0.8590909090909091,703,1,87,DL_heartfullpop_2_Guitar,6,14,DL_heartfullpop_2_Guitar,0.28690916299819946,0
65,100,0.42272727272727273,13,1,88,DL_heartfullpop_2_Guitar,6,7,DL_heartfullpop_2_Guitar,0.9997292160987854,1
53,100,0.21818181818181817,140,0,88,DL_heartfullpop_2_Guitar,6,3,DL_heartfullpop_2_Guitar,0.0560738630592823,0
53,100,0.1409090909090909,202,0,88,DL_heartfullpop_2_Guitar,6,2,DL_heartfullpop_2_Guitar,0.04717245325446129,0
65,100,0.1590909090909091,260,0,88,DL_heartfullpop_2_Guitar,6,3,DL_heartfullpop_2_Guitar,0.04658597707748413,0
65,100,0.17727272727272728,413,0,88,DL_heartfullpop_2_Guitar,6,3,DL_heartfullpop_2_Guitar,0.05286167934536934,0
53,100,0.21818181818181817,480,0,88,DL_heartfullpop_2_Guitar,6,3,DL_heartfullpop_2_Guitar,0.06017215549945831,0
62,100,0.11818181818181818,580,0,88,DL_heartfullpop_2_Guitar,6,2,DL_heartfullpop_2_Guitar,0.06516451388597488,0
65,100,0.18181818181818182,673,0,88,DL_heartfullpop_2_Guitar,6,3,DL_heartfullpop_2_Guitar,0.06125028803944588,0
60,100,0.2409090909090909,35,1,89,DL_heartfullpop_2_Guitar,6,4,DL_heartfullpop_2_Guitar,0.9997120499610901,1
65,100,0.6818181818181818,87,0,89,DL_heartfullpop_2_Guitar,6,11,DL_heartfullpop_2_Guitar,0.039634909480810165,0
53,100,0.13636363636363635,282,0,89,DL_heartfullpop_2_Guitar,6,2,DL_heartfullpop_2_Guitar,0.03448256850242615,0
60,100,0.6590909090909091,370,0,89,DL_heartfullpop_2_Guitar,6,11,DL_heartfullpop_2_Guitar,0.02937943860888481,0
60,100,0.35909090909090907,536,0,89,DL_heartfullpop_2_Guitar,6,6,DL_heartfullpop_2_Guitar,0.03165234997868538,0
65,100,0.4636363636363636,619,0,89,DL_heartfullpop_2_Guitar,6,7,DL_heartfullpop_2_Guitar,0.03424013778567314,0
60,100,0.11818181818181818,792,0,89,DL_heartfullpop_2_Guitar,6,2,DL_heartfullpop_2_Guitar,0.04316829517483711,0
65,100,0.1,832,0,89,DL_heartfullpop_2_Guitar,6,2,DL_heartfullpop_2_Guitar,0.04869362339377403,0
53,100,0.1590909090909091,866,0,89,DL_heartfullpop_2_Guitar,6,3,DL_heartfullpop_2_Guitar,0.046713028103113174,0
60,100,1.2227272727272727,123,1,90,DL_heartfullpop_2_Guitar,6,15,DL_heartfullpop_2_Guitar,0.9997743964195251,1
60,100,1.1818181818181819,506,1,90,DL_heartfullpop_2_Guitar,6,15,DL_heartfullpop_2_Guitar,0.4326624274253845,0
65,100,0.41818181818181815,792,1,90,DL_heartfullpop_2_Guitar,6,7,DL_heartfullpop_2_Guitar,0.4582427442073822,0
65,100,0.1590909090909091,56,1,91,DL_heartfullpop_2_Guitar,6,3,DL_heartfullpop_2_Guitar,0.9996941089630127,1
60,100,0.1409090909090909,100,0,91,DL_heartfullpop_2_Guitar,6,2,DL_heartfullpop_2_Guitar,0.03552320599555969,0
65,100,0.18181818181818182,179,0,91,DL_heartfullpop_2_Guitar,6,3,DL_heartfullpop_2_Guitar,0.024487804621458054,0
53,100,0.11818181818181818,220,0,91,DL_heartfullpop_2_Guitar,6,2,DL_heartfullpop_2_Guitar,0.020562591031193733,0
53,100,0.6181818181818182,273,0,91,DL_heartfullpop_2_Guitar,6,10,DL_heartfullpop_2_Guitar,0.01774984411895275,0
53,100,0.2590909090909091,426,0,91,DL_heartfullpop_2_Guitar,6,4,DL_heartfullpop_2_Guitar,0.02035166136920452,0
53,100,0.38181818181818183,519,0,91,DL_heartfullpop_2_Guitar,6,6,DL_heartfullpop_2_Guitar,0.021709375083446503,0
53,100,0.23636363636363636,633,0,91,DL_heartfullpop_2_Guitar,6,4,DL_heartfullpop_2_Guitar,0.029930146411061287,0
53,100,0.3409090909090909,695,0,91,DL_heartfullpop_2_Guitar,6,5,DL_heartfullpop_2_Guitar,0.037141695618629456,0
53,100,0.32272727272727275,870,0,91,DL_heartfullpop_2_Guitar,6,5,DL_heartfullpop_2_Guitar,0.038469117134809494,0
53,100,0.1409090909090909,92,1,92,DL_heartfullpop_2_Guitar,6,2,DL_heartfullpop_2_Guitar,0.9998072981834412,1
53,100,0.759090909090909,172,0,92,DL_heartfullpop_2_Guitar,6,12,DL_heartfullpop_2_Guitar,0.11836526542901993,0
53,100,0.16363636363636364,399,0,92,DL_heartfullpop_2_Guitar,6,3,DL_heartfullpop_2_Guitar,0.1277744621038437,0
53,100,0.38181818181818183,440,0,92,DL_heartfullpop_2_Guitar,6,6,DL_heartfullpop_2_Guitar,0.1343289017677307,0
53,100,0.12272727272727273,629,0,92,DL_heartfullpop_2_Guitar,6,2,DL_heartfullpop_2_Guitar,0.14730802178382874,0
53,100,0.6,826,0,92,DL_heartfullpop_2_Guitar,6,10,DL_heartfullpop_2_Guitar,0.1274677813053131,0
53,100,0.3,399,1,93,DL_heartfullpop_2_Guitar,6,5,DL_heartfullpop_2_Guitar,0.9931821227073669,1
53,100,0.09090909090909091,469,1,0,_Heartfelt_folk-pop-rock_Guitar_1,6,1,_Heartfelt_folk-pop-rock_Guitar_1,0.9998358488082886,1
57,100,0.2409090909090909,562,0,0,_Heartfelt_folk-pop-rock_Guitar_1,6,4,_Heartfelt_folk-pop-rock_Guitar_1,0.39659029245376587,0
53,100,0.4409090909090909,704,0,0,_Heartfelt_folk-pop-rock_Guitar_1,6,7,_Heartfelt_folk-pop-rock_Guitar_1,0.42714202404022217,0
53,100,0.5681818181818182,114,1,1,_Heartfelt_folk-pop-rock_Guitar_1,6,9,_Heartfelt_folk-pop-rock_Guitar_1,0.9998444318771362,1
53,100,0.20454545454545456,259,0,1,_Heartfelt_folk-pop-rock_Guitar_1,6,3,_Heartfelt_folk-pop-rock_Guitar_1,0.33051130175590515,0
53,100,0.5318181818181819,398,0,1,_Heartfelt_folk-pop-rock_Guitar_1,6,9,_Heartfelt_folk-pop-rock_Guitar_1,0.28536131978034973,0
55,100,0.2590909090909091,539,0,1,_Heartfelt_folk-pop-rock_Guitar_1,6,4,_Heartfelt_folk-pop-rock_Guitar_1,0.309509813785553,0
53,100,0.31363636363636366,79,1,2,_Heartfelt_folk-pop-rock_Guitar_1,6,5,_Heartfelt_folk-pop-rock_Guitar_1,0.9998388290405273,1
55,100,0.2,234,0,2,_Heartfelt_folk-pop-rock_Guitar_1,6,3,_Heartfelt_folk-pop-rock_Guitar_1,0.20589344203472137,0
53,100,0.20454545454545456,375,0,2,_Heartfelt_folk-pop-rock_Guitar_1,6,3,_Heartfelt_folk-pop-rock_Guitar_1,0.19939054548740387,0
53,100,0.16363636363636364,424,0,2,_Heartfelt_folk-pop-rock_Guitar_1,6,3,_Heartfelt_folk-pop-rock_Guitar_1,0.20633916556835175,0
53,100,0.29545454545454547,657,1,2,_Heartfelt_folk-pop-rock_Guitar_1,6,5,_Heartfelt_folk-pop-rock_Guitar_1,0.20074357092380524,0
57,100,0.23636363636363636,171,1,3,_Heartfelt_folk-pop-rock_Guitar_1,6,4,_Heartfelt_folk-pop-rock_Guitar_1,0.9998273253440857,1
57,100,0.5681818181818182,376,0,3,_Heartfelt_folk-pop-rock_Guitar_1,6,9,_Heartfelt_folk-pop-rock_Guitar_1,0.20478349924087524,0
55,100,0.22272727272727272,513,0,3,_Heartfelt_folk-pop-rock_Guitar_1,6,4,_Heartfelt_folk-pop-rock_Guitar_1,0.2042286992073059,0
53,100,0.31363636363636366,567,0,3,_Heartfelt_folk-pop-rock_Guitar_1,6,5,_Heartfelt_folk-pop-rock_Guitar_1,0.21760259568691254,0
55,100,0.31363636363636366,651,0,3,_Heartfelt_folk-pop-rock_Guitar_1,6,5,_Heartfelt_folk-pop-rock_Guitar_1,0.20965427160263062,0
55,100,0.22272727272727272,67,1,4,_Heartfelt_folk-pop-rock_Guitar_1,6,4,_Heartfelt_folk-pop-rock_Guitar_1,0.9997547268867493,1
55,100,0.2909090909090909,208,0,4,_Heartfelt_folk-pop-rock_Guitar_1,6,5,_Heartfelt_folk-pop-rock_Guitar_1,0.0833372250199318,0
53,100,0.10909090909090909,407,0,4,_Heartfelt_folk-pop-rock_Guitar_1,6,2,_Heartfelt_folk-pop-rock_Guitar_1,0.07758516818284988,0
60,100,0.10909090909090909,495,0,4,_Heartfelt_folk-pop-rock_Guitar_1,6,2,_Heartfelt_folk-pop-rock_Guitar_1,0.0826280266046524,0
57,100,0.10909090909090909,597,0,4,_Heartfelt_folk-pop-rock_Guitar_1,6,2,_Heartfelt_folk-pop-rock_Guitar_1,0.08741388469934464,0
57,100,0.38636363636363635,682,0,4,_Heartfelt_folk-pop-rock_Guitar_1,6,6,_Heartfelt_folk-pop-rock_Guitar_1,0.09583289921283722,0
55,100,0.33181818181818185,856,0,4,_Heartfelt_folk-pop-rock_Guitar_1,6,5,_Heartfelt_folk-pop-rock_Guitar_1,0.08517340570688248,0
55,100,0.4409090909090909,85,1,5,_Heartfelt_folk-pop-rock_Guitar_1,6,7,_Heartfelt_folk-pop-rock_Guitar_1,0.9996718168258667,1
53,100,0.6954545454545454,258,0,5,_Heartfelt_folk-pop-rock_Guitar_1,6,11,_Heartfelt_folk-pop-rock_Guitar_1,0.04321064054965973,0
53,100,0.16818181818181818,481,0,5,_Heartfelt_folk-pop-rock_Guitar_1,6,3,_Heartfelt_folk-pop-rock_Guitar_1,0.03583579137921333,0
53,100,0.10909090909090909,521,0,5,_Heartfelt_folk-pop-rock_Guitar_1,6,2,_Heartfelt_folk-pop-rock_Guitar_1,0.030016351491212845,0
53,100,0.14545454545454545,557,0,5,_Heartfelt_folk-pop-rock_Guitar_1,6,2,_Heartfelt_folk-pop-rock_Guitar_1,0.031034065410494804,0
53,100,0.38636363636363635,611,0,5,_Heartfelt_folk-pop-rock_Guitar_1,6,6,_Heartfelt_folk-pop-rock_Guitar_1,0.031728219240903854,0
53,100,0.2727272727272727,700,0,5,_Heartfelt_folk-pop-rock_Guitar_1,6,4,_Heartfelt_folk-pop-rock_Guitar_1,0.041309721767902374,0
53,100,0.15,768,0,5,_Heartfelt_folk-pop-rock_Guitar_1,6,2,_Heartfelt_folk-pop-rock_Guitar_1,0.04863324388861656,0
53,100,0.18181818181818182,805,0,5,_Heartfelt_folk-pop-rock_Guitar_1,6,3,_Heartfelt_folk-pop-rock_Guitar_1,0.04792570695281029,0
53,100,0.2772727272727273,73,1,6,_Heartfelt_folk-pop-rock_Guitar_1,6,4,_Heartfelt_folk-pop-rock_Guitar_1,0.9998524188995361,1
53,100,0.10909090909090909,236,0,6,_Heartfelt_folk-pop-rock_Guitar_1,6,2,_Heartfelt_folk-pop-rock_Guitar_1,0.32860076427459717,0
57,100,0.6045454545454545,312,0,6,_Heartfelt_folk-pop-rock_Guitar_1,6,10,_Heartfelt_folk-pop-rock_Guitar_1,0.2715429961681366,0
53,100,0.42727272727272725,813,1,6,_Heartfelt_folk-pop-rock_Guitar_1,6,7,_Heartfelt_folk-pop-rock_Guitar_1,0.3173183798789978,0
53,100,0.2,72,1,7,_Heartfelt_folk-pop-rock_Guitar_1,6,3,_Heartfelt_folk-pop-rock_Guitar_1,0.9997749924659729,1
53,100,0.4409090909090909,136,0,7,_Heartfelt_folk-pop-rock_Guitar_1,6,7,_Heartfelt_folk-pop-rock_Guitar_1,0.07494436949491501,0
53,100,0.14545454545454545,330,0,7,_Heartfelt_folk-pop-rock_Guitar_1,6,2,_Heartfelt_folk-pop-rock_Guitar_1,0.07685057073831558,0
60,100,0.23636363636363636,501,0,7,_Heartfelt_folk-pop-rock_Guitar_1,6,4,_Heartfelt_folk-pop-rock_Guitar_1,0.07894346117973328,0
55,100,0.16363636363636364,602,0,7,_Heartfelt_folk-pop-rock_Guitar_1,6,3,_Heartfelt_folk-pop-rock_Guitar_1,0.08523375540971756,0
65,100,0.15,734,0,7,_Heartfelt_folk-pop-rock_Guitar_1,6,2,_Heartfelt_folk-pop-rock_Guitar_1,0.09777974337339401,0
55,100,0.09090909090909091,771,0,7,_Heartfelt_folk-pop-rock_Guitar_1,6,1,_Heartfelt_folk-pop-rock_Guitar_1,0.08382624387741089,0
53,100,0.14545454545454545,8,1,8,_Heartfelt_folk-pop-rock_Guitar_1,6,2,_Heartfelt_folk-pop-rock_Guitar_1,0.9997727274894714,1
53,100,0.2409090909090909,194,0,8,_Heartfelt_folk-pop-rock_Guitar_1,6,4,_Heartfelt_folk-pop-rock_Guitar_1,0.07917885482311249,0
53,100,0.2727272727272727,259,0,8,_Heartfelt_folk-pop-rock_Guitar_1,6,4,_Heartfelt_folk-pop-rock_Guitar_1,0.07156907767057419,0
60,100,0.31363636363636366,331,0,8,_Heartfelt_folk-pop-rock_Guitar_1,6,5,_Heartfelt_folk-pop-rock_Guitar_1,0.0784420520067215,0
63,100,0.21818181818181817,438,0,8,_Heartfelt_folk-pop-rock_Guitar_1,6,3,_Heartfelt_folk-pop-rock_Guitar_1,0.08805137127637863,0
53,100,0.09090909090909091,575,0,8,_Heartfelt_folk-pop-rock_Guitar_1,6,1,_Heartfelt_folk-pop-rock_Guitar_1,0.09535868465900421,0
55,100,0.16363636363636364,620,0,8,_Heartfelt_folk-pop-rock_Guitar_1,6,3,_Heartfelt_folk-pop-rock_Guitar_1,0.0879921242594719,0
53,100,0.12727272727272726,221,1,9,_Heartfelt_folk-pop-rock_Guitar_1,6,2,_Heartfelt_folk-pop-rock_Guitar_1,0.9998623132705688,1
53,100,0.09090909090909091,252,0,9,_Heartfelt_folk-pop-rock_Guitar_1,6,1,_Heartfelt_folk-pop-rock_Guitar_1,0.31531235575675964,0
53,100,0.2,605,1,9,_Heartfelt_folk-pop-rock_Guitar_1,6,3,_Heartfelt_folk-pop-rock_Guitar_1,0.2879583537578583,0
60,100,0.09545454545454546,737,0,9,_Heartfelt_folk-pop-rock_Guitar_1,6,2,_Heartfelt_folk-pop-rock_Guitar_1,0.2997385561466217,0
53,100,0.10909090909090909,453,1,10,_Heartfelt_folk-pop-rock_Guitar_1,6,2,_Heartfelt_folk-pop-rock_Guitar_1,0.9998140931129456,1
53,100,0.10909090909090909,513,0,10,_Heartfelt_folk-pop-rock_Guitar_1,6,2,_Heartfelt_folk-pop-rock_Guitar_1,0.1247846931219101,0
53,100,0.1318181818181818,570,0,10,_Heartfelt_folk-pop-rock_Guitar_1,6,2,_Heartfelt_folk-pop-rock_Guitar_1,0.12060602009296417,0
58,100,0.10909090909090909,622,0,10,_Heartfelt_folk-pop-rock_Guitar_1,6,2,_Heartfelt_folk-pop-rock_Guitar_1,0.12513482570648193,0
60,100,0.09090909090909091,728,0,10,_Heartfelt_folk-pop-rock_Guitar_1,6,1,_Heartfelt_folk-pop-rock_Guitar_1,0.1490088254213333,0
60,100,0.2545454545454545,780,0,10,_Heartfelt_folk-pop-rock_Guitar_1,6,4,_Heartfelt_folk-pop-rock_Guitar_1,0.12825974822044373,0
55,100,0.16363636363636364,41,1,11,_Heartfelt_folk-pop-rock_Guitar_1,6,3,_Heartfelt_folk-pop-rock_Guitar_1,0.9996001124382019,1
65,100,0.5909090909090909,77,0,11,_Heartfelt_folk-pop-rock_Guitar_1,6,9,_Heartfelt_folk-pop-rock_Guitar_1,0.5466580390930176,0
60,100,0.16363636363636364,56,1,12,_Heartfelt_folk-pop-rock_Guitar_1,6,3,_Heartfelt_folk-pop-rock_Guitar_1,0.9997783303260803,1
60,100,0.21818181818181817,335,1,12,_Heartfelt_folk-pop-rock_Guitar_1,6,3,_Heartfelt_folk-pop-rock_Guitar_1,0.07565303891897202,0
60,100,0.42272727272727273,386,0,12,_Heartfelt_folk-pop-rock_Guitar_1,6,7,_Heartfelt_folk-pop-rock_Guitar_1,0.0707990750670433,0
60,100,0.4954545454545455,512,0,12,_Heartfelt_folk-pop-rock_Guitar_1,6,8,_Heartfelt_folk-pop-rock_Guitar_1,0.07555250823497772,0
55,100,0.16818181818181818,637,0,12,_Heartfelt_folk-pop-rock_Guitar_1,6,3,_Heartfelt_folk-pop-rock_Guitar_1,0.09188350290060043,0
53,100,0.6409090909090909,691,0,12,_Heartfelt_folk-pop-rock_Guitar_1,6,10,_Heartfelt_folk-pop-rock_Guitar_1,0.09086614102125168,0
53,100,0.20454545454545456,852,0,12,_Heartfelt_folk-pop-rock_Guitar_1,6,3,_Heartfelt_folk-pop-rock_Guitar_1,0.09250597655773163,0
53,100,0.09090909090909091,29,1,13,_Heartfelt_folk-pop-rock_Guitar_1,6,1,_Heartfelt_folk-pop-rock_Guitar_1,0.9997674822807312,1
60,100,0.36818181818181817,110,0,13,_Heartfelt_folk-pop-rock_Guitar_1,6,6,_Heartfelt_folk-pop-rock_Guitar_1,0.07873240113258362,0
57,100,0.14545454545454545,280,0,13,_Heartfelt_folk-pop-rock_Guitar_1,6,2,_Heartfelt_folk-pop-rock_Guitar_1,0.07237177342176437,0
62,100,0.31363636363636366,316,0,13,_Heartfelt_folk-pop-rock_Guitar_1,6,5,_Heartfelt_folk-pop-rock_Guitar_1,0.0802309438586235,0
53,100,0.10909090909090909,539,0,13,_Heartfelt_folk-pop-rock_Guitar_1,6,2,_Heartfelt_folk-pop-rock_Guitar_1,0.09339560568332672,0
60,100,0.6454545454545455,599,0,13,_Heartfelt_folk-pop-rock_Guitar_1,6,10,_Heartfelt_folk-pop-rock_Guitar_1,0.09202317148447037,0
57,100,0.6454545454545455,749,0,13,_Heartfelt_folk-pop-rock_Guitar_1,6,10,_Heartfelt_folk-pop-rock_Guitar_1,0.0869612842798233,0
55,100,0.36818181818181817,228,1,14,_Heartfelt_folk-pop-rock_Guitar_1,6,6,_Heartfelt_folk-pop-rock_Guitar_1,0.9998290538787842,1
55,100,0.2545454545454545,314,0,14,_Heartfelt_folk-pop-rock_Guitar_1,6,4,_Heartfelt_folk-pop-rock_Guitar_1,0.21290290355682373,0
60,100,0.2772727272727273,410,0,14,_Heartfelt_folk-pop-rock_Guitar_1,6,4,_Heartfelt_folk-pop-rock_Guitar_1,0.20618323981761932,0
64,100,0.2590909090909091,737,1,14,_Heartfelt_folk-pop-rock_Guitar_1,6,4,_Heartfelt_folk-pop-rock_Guitar_1,0.21830718219280243,0
55,100,0.2727272727272727,835,0,14,_Heartfelt_folk-pop-rock_Guitar_1,6,4,_Heartfelt_folk-pop-rock_Guitar_1,0.1977793425321579,0
53,100,0.12727272727272726,77,1,15,_Heartfelt_folk-pop-rock_Guitar_1,6,2,_Heartfelt_folk-pop-rock_Guitar_1,0.9997062087059021,1
55,100,0.21818181818181817,149,0,15,_Heartfelt_folk-pop-rock_Guitar_1,6,3,_Heartfelt_folk-pop-rock_Guitar_1,0.04239562153816223,0
53,100,0.20454545454545456,206,0,15,_Heartfelt_folk-pop-rock_Guitar_1,6,3,_Heartfelt_folk-pop-rock_Guitar_1,0.032862089574337006,0
62,100,0.09090909090909091,278,0,15,_Heartfelt_folk-pop-rock_Guitar_1,6,1,_Heartfelt_folk-pop-rock_Guitar_1,0.029760492965579033,0
62,100,0.2772727272727273,371,0,15,_Heartfelt_folk-pop-rock_Guitar_1,6,4,_Heartfelt_folk-pop-rock_Guitar_1,0.029789408668875694,0
57,100,0.6272727272727273,489,0,15,_Heartfelt_folk-pop-rock_Guitar_1,6,10,_Heartfelt_folk-pop-rock_Guitar_1,0.030922479927539825,0
65,100,0.12727272727272726,651,0,15,_Heartfelt_folk-pop-rock_Guitar_1,6,2,_Heartfelt_folk-pop-rock_Guitar_1,0.04485250264406204,0
65,100,0.14545454545454545,711,0,15,_Heartfelt_folk-pop-rock_Guitar_1,6,2,_Heartfelt_folk-pop-rock_Guitar_1,0.048275064677000046,0
60,100,0.12727272727272726,837,0,15,_Heartfelt_folk-pop-rock_Guitar_1,6,2,_Heartfelt_folk-pop-rock_Guitar_1,0.0464223213493824,0
53,100,0.14545454545454545,305,1,16,_Heartfelt_folk-pop-rock_Guitar_1,6,2,_Heartfelt_folk-pop-rock_Guitar_1,0.9996527433395386,1
53,100,0.14545454545454545,632,1,16,_Heartfelt_folk-pop-rock_Guitar_1,6,2,_Heartfelt_folk-pop-rock_Guitar_1,0.5478933453559875,0
53,100,0.14545454545454545,718,1,17,_Heartfelt_folk-pop-rock_Guitar_1,6,2,_Heartfelt_folk-pop-rock_Guitar_1,0.9998382329940796,1
65,100,0.2409090909090909,750,0,17,_Heartfelt_folk-pop-rock_Guitar_1,6,4,_Heartfelt_folk-pop-rock_Guitar_1,0.40201032161712646,0
55,100,0.31363636363636366,828,0,17,_Heartfelt_folk-pop-rock_Guitar_1,6,5,_Heartfelt_folk-pop-rock_Guitar_1,0.4189048111438751,0
53,100,0.12727272727272726,20,1,18,_Heartfelt_folk-pop-rock_Guitar_1,6,2,_Heartfelt_folk-pop-rock_Guitar_1,0.9998323917388916,1
53,100,0.2772727272727273,57,0,18,_Heartfelt_folk-pop-rock_Guitar_1,6,4,_Heartfelt_folk-pop-rock_Guitar_1,0.39771589636802673,0
53,100,0.20454545454545456,388,1,18,_Heartfelt_folk-pop-rock_Guitar_1,6,3,_Heartfelt_folk-pop-rock_Guitar_1,0.4332784414291382,0
53,100,0.10909090909090909,512,1,22,_Heartfelt_folk-pop-rock_Guitar_1,6,2,_Heartfelt_folk-pop-rock_Guitar_1,0.999832034111023,1
53,100,0.4409090909090909,649,0,22,_Heartfelt_folk-pop-rock_Guitar_1,6,7,_Heartfelt_folk-pop-rock_Guitar_1,0.39517512917518616,0
53,100,0.2590909090909091,759,0,22,_Heartfelt_folk-pop-rock_Guitar_1,6,4,_Heartfelt_folk-pop-rock_Guitar_1,0.43491727113723755,0
53,100,0.2590909090909091,130,1,23,_Heartfelt_folk-pop-rock_Guitar_1,6,4,_Heartfelt_folk-pop-rock_Guitar_1,0.9998120665550232,1
55,100,0.29545454545454547,219,0,23,_Heartfelt_folk-pop-rock_Guitar_1,6,5,_Heartfelt_folk-pop-rock_Guitar_1,0.123740553855896,0
55,100,0.2,437,0,23,_Heartfelt_folk-pop-rock_Guitar_1,6,3,_Heartfelt_folk-pop-rock_Guitar_1,0.12058795988559723,0
55,100,0.18181818181818182,636,0,23,_Heartfelt_folk-pop-rock_Guitar_1,6,3,_Heartfelt_folk-pop-rock_Guitar_1,0.13764862716197968,0
55,100,0.23636363636363636,717,0,23,_Heartfelt_folk-pop-rock_Guitar_1,6,4,_Heartfelt_folk-pop-rock_Guitar_1,0.1389564573764801,0
57,100,0.18181818181818182,805,0,23,_Heartfelt_folk-pop-rock_Guitar_1,6,3,_Heartfelt_folk-pop-rock_Guitar_1,0.13143290579319,0
57,100,0.18636363636363637,264,1,24,_Heartfelt_folk-pop-rock_Guitar_1,6,3,_Heartfelt_folk-pop-rock_Guitar_1,0.9997574687004089,1
57,100,0.31363636363636366,337,0,24,_Heartfelt_folk-pop-rock_Guitar_1,6,5,_Heartfelt_folk-pop-rock_Guitar_1,0.07552364468574524,0
57,100,0.14545454545454545,415,0,24,_Heartfelt_folk-pop-rock_Guitar_1,6,2,_Heartfelt_folk-pop-rock_Guitar_1,0.07671771198511124,0
53,100,0.6818181818181818,528,0,24,_Heartfelt_folk-pop-rock_Guitar_1,6,11,_Heartfelt_folk-pop-rock_Guitar_1,0.07557009905576706,0
53,100,0.12727272727272726,755,0,24,_Heartfelt_folk-pop-rock_Guitar_1,6,2,_Heartfelt_folk-pop-rock_Guitar_1,0.09724929928779602,0
53,100,0.15,822,0,24,_Heartfelt_folk-pop-rock_Guitar_1,6,2,_Heartfelt_folk-pop-rock_Guitar_1,0.0990474671125412,0
53,100,0.38636363636363635,859,0,24,_Heartfelt_folk-pop-rock_Guitar_1,6,6,_Heartfelt_folk-pop-rock_Guitar_1,0.08770501613616943,0
53,100,0.5863636363636363,174,1,25,_Heartfelt_folk-pop-rock_Guitar_1,6,9,_Heartfelt_folk-pop-rock_Guitar_1,0.9997977614402771,1
53,100,0.4818181818181818,310,0,25,_Heartfelt_folk-pop-rock_Guitar_1,6,8,_Heartfelt_folk-pop-rock_Guitar_1,0.12839695811271667,0
53,100,0.2727272727272727,429,0,25,_Heartfelt_folk-pop-rock_Guitar_1,6,4,_Heartfelt_folk-pop-rock_Guitar_1,0.12317150086164474,0
53,100,0.12727272727272726,526,0,25,_Heartfelt_folk-pop-rock_Guitar_1,6,2,_Heartfelt_folk-pop-rock_Guitar_1,0.136210635304451,0
53,100,0.18636363636363637,683,0,25,_Heartfelt_folk-pop-rock_Guitar_1,6,3,_Heartfelt_folk-pop-rock_Guitar_1,0.1415398269891739,0
55,100,0.2590909090909091,752,0,25,_Heartfelt_folk-pop-rock_Guitar_1,6,4,_Heartfelt_folk-pop-rock_Guitar_1,0.13106651604175568,0
60,100,0.14545454545454545,30,1,26,_Heartfelt_folk-pop-rock_Guitar_1,6,2,_Heartfelt_folk-pop-rock_Guitar_1,0.999813973903656,1
60,100,0.2590909090909091,154,0,26,_Heartfelt_folk-pop-rock_Guitar_1,6,4,_Heartfelt_folk-pop-rock_Guitar_1,0.1207377016544342,0
55,100,0.33181818181818185,288,0,26,_Heartfelt_folk-pop-rock_Guitar_1,6,5,_Heartfelt_folk-pop-rock_Guitar_1,0.11551577597856522,0
55,100,0.3090909090909091,365,0,26,_Heartfelt_folk-pop-rock_Guitar_1,6,5,_Heartfelt_folk-pop-rock_Guitar_1,0.13554801046848297,0
62,100,0.20454545454545456,591,0,26,_Heartfelt_folk-pop-rock_Guitar_1,6,3,_Heartfelt_folk-pop-rock_Guitar_1,0.14673617482185364,0
65,100,0.09090909090909091,669,0,26,_Heartfelt_folk-pop-rock_Guitar_1,6,1,_Heartfelt_folk-pop-rock_Guitar_1,0.13411016762256622,0
53,100,0.3090909090909091,129,1,27,_Heartfelt_folk-pop-rock_Guitar_1,6,5,_Heartfelt_folk-pop-rock_Guitar_1,0.9998086094856262,1
53,100,0.14545454545454545,222,0,27,_Heartfelt_folk-pop-rock_Guitar_1,6,2,_Heartfelt_folk-pop-rock_Guitar_1,0.1280697137117386,0
53,100,0.2590909090909091,281,0,27,_Heartfelt_folk-pop-rock_Guitar_1,6,4,_Heartfelt_folk-pop-rock_Guitar_1,0.11644215136766434,0
53,100,0.32727272727272727,404,0,27,_Heartfelt_folk-pop-rock_Guitar_1,6,5,_Heartfelt_folk-pop-rock_Guitar_1,0.13400757312774658,0
53,100,0.32727272727272727,497,0,27,_Heartfelt_folk-pop-rock_Guitar_1,6,5,_Heartfelt_folk-pop-rock_Guitar_1,0.13922187685966492,0
55,100,0.09090909090909091,670,0,27,_Heartfelt_folk-pop-rock_Guitar_1,6,1,_Heartfelt_folk-pop-rock_Guitar_1,0.12905696034431458,0
53,100,0.23636363636363636,353,1,28,_Heartfelt_folk-pop-rock_Guitar_1,6,4,_Heartfelt_folk-pop-rock_Guitar_1,0.9998437166213989,1
53,100,0.2909090909090909,437,0,28,_Heartfelt_folk-pop-rock_Guitar_1,6,5,_Heartfelt_folk-pop-rock_Guitar_1,0.20248295366764069,0
53,100,0.2772727272727273,505,0,28,_Heartfelt_folk-pop-rock_Guitar_1,6,4,_Heartfelt_folk-pop-rock_Guitar_1,0.20079757273197174,0
53,100,0.2,615,0,28,_Heartfelt_folk-pop-rock_Guitar_1,6,3,_Heartfelt_folk-pop-rock_Guitar_1,0.2060050070285797,0
53,100,0.7,752,0,28,_Heartfelt_folk-pop-rock_Guitar_1,6,11,_Heartfelt_folk-pop-rock_Guitar_1,0.1963646113872528,0
55,100,0.16363636363636364,608,1,29,_Heartfelt_folk-pop-rock_Guitar_1,6,3,_Heartfelt_folk-pop-rock_Guitar_1,0.9931250810623169,0
53,100,0.4590909090909091,10,1,31,_Heartfelt_folk-pop-rock_Guitar_1,6,7,_Heartfelt_folk-pop-rock_Guitar_1,0.9998270869255066,1
53,100,0.12727272727272726,305,1,31,_Heartfelt_folk-pop-rock_Guitar_1,6,2,_Heartfelt_folk-pop-rock_Guitar_1,0.21892040967941284,0
53,100,0.31363636363636366,413,0,31,_Heartfelt_folk-pop-rock_Guitar_1,6,5,_Heartfelt_folk-pop-rock_Guitar_1,0.1916036158800125,0
53,100,0.22272727272727272,519,0,31,_Heartfelt_folk-pop-rock_Guitar_1,6,4,_Heartfelt_folk-pop-rock_Guitar_1,0.206851989030838,0
55,100,0.10909090909090909,576,0,31,_Heartfelt_folk-pop-rock_Guitar_1,6,2,_Heartfelt_folk-pop-rock_Guitar_1,0.20214828848838806,0
53,100,0.6818181818181818,533,1,32,_Heartfelt_folk-pop-rock_Guitar_1,6,11,_Heartfelt_folk-pop-rock_Guitar_1,0.9925966262817383,0
55,100,0.20454545454545456,36,1,33,_Heartfelt_folk-pop-rock_Guitar_1,6,3,_Heartfelt_folk-pop-rock_Guitar_1,0.9998338222503662,1
57,100,0.2409090909090909,385,1,33,_Heartfelt_folk-pop-rock_Guitar_1,6,4,_Heartfelt_folk-pop-rock_Guitar_1,0.20663794875144958,0
53,100,0.2545454545454545,543,0,33,_Heartfelt_folk-pop-rock_Guitar_1,6,4,_Heartfelt_folk-pop-rock_Guitar_1,0.19580556452274323,0
60,100,0.2727272727272727,619,0,33,_Heartfelt_folk-pop-rock_Guitar_1,6,4,_Heartfelt_folk-pop-rock_Guitar_1,0.2129778265953064,0
69,100,0.16363636363636364,813,0,33,_Heartfelt_folk-pop-rock_Guitar_1,6,3,_Heartfelt_folk-pop-rock_Guitar_1,0.2049715369939804,0
53,100,0.5727272727272728,1,1,34,_Heartfelt_folk-pop-rock_Guitar_1,6,9,_Heartfelt_folk-pop-rock_Guitar_1,0.999707043170929,1
60,100,0.22272727272727272,176,0,34,_Heartfelt_folk-pop-rock_Guitar_1,6,4,_Heartfelt_folk-pop-rock_Guitar_1,0.059440456330776215,0
55,100,0.33181818181818185,268,0,34,_Heartfelt_folk-pop-rock_Guitar_1,6,5,_Heartfelt_folk-pop-rock_Guitar_1,0.04535365849733353,0
55,100,0.36818181818181817,439,0,34,_Heartfelt_folk-pop-rock_Guitar_1,6,6,_Heartfelt_folk-pop-rock_Guitar_1,0.04835471510887146,0
55,100,0.40454545454545454,648,0,34,_Heartfelt_folk-pop-rock_Guitar_1,6,6,_Heartfelt_folk-pop-rock_Guitar_1,0.05122889578342438,0
55,100,0.14545454545454545,758,0,34,_Heartfelt_folk-pop-rock_Guitar_1,6,2,_Heartfelt_folk-pop-rock_Guitar_1,0.06434367597103119,0
55,100,0.12727272727272726,795,0,34,_Heartfelt_folk-pop-rock_Guitar_1,6,2,_Heartfelt_folk-pop-rock_Guitar_1,0.06929904222488403,0
53,100,0.14545454545454545,867,0,34,_Heartfelt_folk-pop-rock_Guitar_1,6,2,_Heartfelt_folk-pop-rock_Guitar_1,0.06390594691038132,0
53,100,0.2545454545454545,165,1,35,_Heartfelt_folk-pop-rock_Guitar_1,6,4,_Heartfelt_folk-pop-rock_Guitar_1,0.9998540878295898,1
53,100,0.55,275,0,35,_Heartfelt_folk-pop-rock_Guitar_1,6,9,_Heartfelt_folk-pop-rock_Guitar_1,0.3027596175670624,0
60,100,0.55,425,0,35,_Heartfelt_folk-pop-rock_Guitar_1,6,9,_Heartfelt_folk-pop-rock_Guitar_1,0.30481424927711487,0
55,100,0.1318181818181818,573,0,35,_Heartfelt_folk-pop-rock_Guitar_1,6,2,_Heartfelt_folk-pop-rock_Guitar_1,0.30434703826904297,0
57,100,0.29545454545454547,118,1,36,_Heartfelt_folk-pop-rock_Guitar_1,6,5,_Heartfelt_folk-pop-rock_Guitar_1,0.9996864795684814,1
53,100,0.2727272727272727,192,0,36,_Heartfelt_folk-pop-rock_Guitar_1,6,4,_Heartfelt_folk-pop-rock_Guitar_1,0.04397020861506462,0
53,100,0.16818181818181818,260,0,36,_Heartfelt_folk-pop-rock_Guitar_1,6,3,_Heartfelt_folk-pop-rock_Guitar_1,0.03281166031956673,0
53,100,0.11363636363636363,446,0,36,_Heartfelt_folk-pop-rock_Guitar_1,6,2,_Heartfelt_folk-pop-rock_Guitar_1,0.03142637759447098,0
53,100,0.1318181818181818,527,0,36,_Heartfelt_folk-pop-rock_Guitar_1,6,2,_Heartfelt_folk-pop-rock_Guitar_1,0.029665783047676086,0
60,100,0.18181818181818182,571,0,36,_Heartfelt_folk-pop-rock_Guitar_1,6,3,_Heartfelt_folk-pop-rock_Guitar_1,0.034808915108442307,0
69,100,0.2590909090909091,616,0,36,_Heartfelt_folk-pop-rock_Guitar_1,6,4,_Heartfelt_folk-pop-rock_Guitar_1,0.03996498882770538,0
53,100,0.31363636363636366,676,0,36,_Heartfelt_folk-pop-rock_Guitar_1,6,5,_Heartfelt_folk-pop-rock_Guitar_1,0.050352126359939575,0
55,100,0.2545454545454545,757,0,36,_Heartfelt_folk-pop-rock_Guitar_1,6,4,_Heartfelt_folk-pop-rock_Guitar_1,0.04680834710597992,0
55,100,0.21818181818181817,43,1,37,_Heartfelt_folk-pop-rock_Guitar_1,6,3,_Heartfelt_folk-pop-rock_Guitar_1,0.9997608065605164,1
55,100,0.29545454545454547,96,0,37,_Heartfelt_folk-pop-rock_Guitar_1,6,5,_Heartfelt_folk-pop-rock_Guitar_1,0.07903139293193817,0
55,100,0.5909090909090909,180,0,37,_Heartfelt_folk-pop-rock_Guitar_1,6,9,_Heartfelt_folk-pop-rock_Guitar_1,0.07105109840631485,0
55,100,0.10909090909090909,327,0,37,_Heartfelt_folk-pop-rock_Guitar_1,6,2,_Heartfelt_folk-pop-rock_Guitar_1,0.08592958748340607,0
55,100,0.4409090909090909,435,0,37,_Heartfelt_folk-pop-rock_Guitar_1,6,7,_Heartfelt_folk-pop-rock_Guitar_1,0.09105713665485382,0
53,100,0.09090909090909091,552,0,37,_Heartfelt_folk-pop-rock_Guitar_1,6,1,_Heartfelt_folk-pop-rock_Guitar_1,0.1055494025349617,0
55,100,0.10909090909090909,613,0,37,_Heartfelt_folk-pop-rock_Guitar_1,6,2,_Heartfelt_folk-pop-rock_Guitar_1,0.09042435139417648,0
58,100,0.16363636363636364,116,1,44,_Heartfelt_folk-pop-rock_Guitar_1,6,3,_Heartfelt_folk-pop-rock_Guitar_1,0.999840259552002,1
53,100,0.11363636363636363,192,0,44,_Heartfelt_folk-pop-rock_Guitar_1,6,2,_Heartfelt_folk-pop-rock_Guitar_1,0.3456023931503296,0
53,100,0.11363636363636363,536,1,44,_Heartfelt_folk-pop-rock_Guitar_1,6,2,_Heartfelt_folk-pop-rock_Guitar_1,0.28909164667129517,0
53,100,0.10909090909090909,686,0,44,_Heartfelt_folk-pop-rock_Guitar_1,6,2,_Heartfelt_folk-pop-rock_Guitar_1,0.3077710270881653,0
53,100,0.15,129,1,45,_Heartfelt_folk-pop-rock_Guitar_1,6,2,_Heartfelt_folk-pop-rock_Guitar_1,0.9998602867126465,1
53,100,0.12727272727272726,165,0,45,_Heartfelt_folk-pop-rock_Guitar_1,6,2,_Heartfelt_folk-pop-rock_Guitar_1,0.31892332434654236,0
60,100,0.21818181818181817,428,1,45,_Heartfelt_folk-pop-rock_Guitar_1,6,3,_Heartfelt_folk-pop-rock_Guitar_1,0.28947556018829346,0
64,100,0.2545454545454545,611,0,45,_Heartfelt_folk-pop-rock_Guitar_1,6,4,_Heartfelt_folk-pop-rock_Guitar_1,0.29627853631973267,0
60,100,0.2,357,1,46,_Heartfelt_folk-pop-rock_Guitar_1,6,3,_Heartfelt_folk-pop-rock_Guitar_1,0.9998396635055542,1
59,100,0.16818181818181818,421,0,46,_Heartfelt_folk-pop-rock_Guitar_1,6,3,_Heartfelt_folk-pop-rock_Guitar_1,0.40494582056999207,0
53,100,0.10909090909090909,866,1,46,_Heartfelt_folk-pop-rock_Guitar_1,6,2,_Heartfelt_folk-pop-rock_Guitar_1,0.42498692870140076,0
58,100,0.15,11,1,47,_Heartfelt_folk-pop-rock_Guitar_1,6,2,_Heartfelt_folk-pop-rock_Guitar_1,0.9998149275779724,1
53,100,0.20454545454545456,261,1,47,_Heartfelt_folk-pop-rock_Guitar_1,6,3,_Heartfelt_folk-pop-rock_Guitar_1,0.4284590482711792,0
53,100,0.20454545454545456,444,0,47,_Heartfelt_folk-pop-rock_Guitar_1,6,3,_Heartfelt_folk-pop-rock_Guitar_1,0.43042486906051636,0
55,100,0.29545454545454547,598,1,48,_Heartfelt_folk-pop-rock_Guitar_1,6,5,_Heartfelt_folk-pop-rock_Guitar_1,0.9930059909820557,1
55,100,0.09545454545454546,1,1,49,_Heartfelt_folk-pop-rock_Guitar_1,6,2,_Heartfelt_folk-pop-rock_Guitar_1,0.9929943680763245,0
53,100,0.10909090909090909,270,1,50,_Heartfelt_folk-pop-rock_Guitar_1,6,2,_Heartfelt_folk-pop-rock_Guitar_1,0.9998581409454346,1
53,100,0.10909090909090909,376,0,50,_Heartfelt_folk-pop-rock_Guitar_1,6,2,_Heartfelt_folk-pop-rock_Guitar_1,0.3219049870967865,0
53,100,0.5,593,0,50,_Heartfelt_folk-pop-rock_Guitar_1,6,8,_Heartfelt_folk-pop-rock_Guitar_1,0.2719813883304596,0
65,100,0.11363636363636363,771,0,50,_Heartfelt_folk-pop-rock_Guitar_1,6,2,_Heartfelt_folk-pop-rock_Guitar_1,0.3159871995449066,0
60,100,0.5863636363636363,21,1,51,_Heartfelt_folk-pop-rock_Guitar_1,6,9,_Heartfelt_folk-pop-rock_Guitar_1,0.999832034111023,1
60,100,0.1318181818181818,155,0,51,_Heartfelt_folk-pop-rock_Guitar_1,6,2,_Heartfelt_folk-pop-rock_Guitar_1,0.215525284409523,0
60,100,0.6590909090909091,548,1,51,_Heartfelt_folk-pop-rock_Guitar_1,6,11,_Heartfelt_folk-pop-rock_Guitar_1,0.18816235661506653,0
62,100,0.20454545454545456,721,0,51,_Heartfelt_folk-pop-rock_Guitar_1,6,3,_Heartfelt_folk-pop-rock_Guitar_1,0.22012047469615936,0
55,100,0.23636363636363636,846,0,51,_Heartfelt_folk-pop-rock_Guitar_1,6,4,_Heartfelt_folk-pop-rock_Guitar_1,0.20058344304561615,0
55,100,0.4409090909090909,68,1,52,_Heartfelt_folk-pop-rock_Guitar_1,6,7,_Heartfelt_folk-pop-rock_Guitar_1,0.99240642786026,0
55,100,0.33181818181818185,33,1,53,_Heartfelt_folk-pop-rock_Guitar_1,6,5,_Heartfelt_folk-pop-rock_Guitar_1,0.9998130202293396,1
55,100,0.31363636363636366,114,0,53,_Heartfelt_folk-pop-rock_Guitar_1,6,5,_Heartfelt_folk-pop-rock_Guitar_1,0.41907066106796265,0
57,100,0.14545454545454545,199,0,53,_Heartfelt_folk-pop-rock_Guitar_1,6,2,_Heartfelt_folk-pop-rock_Guitar_1,0.4398648142814636,0
53,100,0.7,511,1,54,_Heartfelt_folk-pop-rock_Guitar_1,6,11,_Heartfelt_folk-pop-rock_Guitar_1,0.9923500418663025,0
74,100,0.9727272727272728,627,1,58,_Heartfelt_folk-pop-rock_Guitar_1,6,15,_Heartfelt_folk-pop-rock_Guitar_1,0.9995063543319702,1
72,100,1.5454545454545454,841,0,58,_Heartfelt_folk-pop-rock_Guitar_1,6,15,_Heartfelt_folk-pop-rock_Guitar_1,0.5507088899612427,0
53,100,0.12727272727272726,689,1,59,_Heartfelt_folk-pop-rock_Guitar_1,6,2,_Heartfelt_folk-pop-rock_Guitar_1,0.999650239944458,1
53,100,0.1318181818181818,826,0,59,_Heartfelt_folk-pop-rock_Guitar_1,6,2,_Heartfelt_folk-pop-rock_Guitar_1,0.5457566380500793,0
53,100,0.22272727272727272,20,1,60,_Heartfelt_folk-pop-rock_Guitar_1,6,4,_Heartfelt_folk-pop-rock_Guitar_1,0.9998505115509033,1
53,100,0.6227272727272727,239,0,60,_Heartfelt_folk-pop-rock_Guitar_1,6,10,_Heartfelt_folk-pop-rock_Guitar_1,0.3115055561065674,0
55,100,0.12727272727272726,611,1,60,_Heartfelt_folk-pop-rock_Guitar_1,6,2,_Heartfelt_folk-pop-rock_Guitar_1,0.2984085977077484,0
55,100,0.12727272727272726,748,0,60,_Heartfelt_folk-pop-rock_Guitar_1,6,2,_Heartfelt_folk-pop-rock_Guitar_1,0.31297317147254944,0
53,100,0.2909090909090909,1,1,61,_Heartfelt_folk-pop-rock_Guitar_1,6,5,_Heartfelt_folk-pop-rock_Guitar_1,0.9997997879981995,1
62,100,0.29545454545454547,215,0,61,_Heartfelt_folk-pop-rock_Guitar_1,6,5,_Heartfelt_folk-pop-rock_Guitar_1,0.12309437990188599,0
53,100,0.10909090909090909,502,1,61,_Heartfelt_folk-pop-rock_Guitar_1,6,2,_Heartfelt_folk-pop-rock_Guitar_1,0.12403420358896255,0
53,100,0.2,657,0,61,_Heartfelt_folk-pop-rock_Guitar_1,6,3,_Heartfelt_folk-pop-rock_Guitar_1,0.1325223445892334,0
53,100,0.2409090909090909,785,0,61,_Heartfelt_folk-pop-rock_Guitar_1,6,4,_Heartfelt_folk-pop-rock_Guitar_1,0.14092124998569489,0
53,100,0.16818181818181818,874,0,61,_Heartfelt_folk-pop-rock_Guitar_1,6,3,_Heartfelt_folk-pop-rock_Guitar_1,0.13233739137649536,0
53,100,0.1318181818181818,200,1,62,_Heartfelt_folk-pop-rock_Guitar_1,6,2,_Heartfelt_folk-pop-rock_Guitar_1,0.9997782111167908,1
60,100,0.12727272727272726,238,0,62,_Heartfelt_folk-pop-rock_Guitar_1,6,2,_Heartfelt_folk-pop-rock_Guitar_1,0.07833011448383331,0
53,100,0.14545454545454545,269,0,62,_Heartfelt_folk-pop-rock_Guitar_1,6,2,_Heartfelt_folk-pop-rock_Guitar_1,0.07089252024888992,0
53,100,0.16363636363636364,350,0,62,_Heartfelt_folk-pop-rock_Guitar_1,6,3,_Heartfelt_folk-pop-rock_Guitar_1,0.07749678939580917,0
53,100,0.1318181818181818,480,0,62,_Heartfelt_folk-pop-rock_Guitar_1,6,2,_Heartfelt_folk-pop-rock_Guitar_1,0.08677376061677933,0
53,100,0.3090909090909091,763,1,62,_Heartfelt_folk-pop-rock_Guitar_1,6,5,_Heartfelt_folk-pop-rock_Guitar_1,0.09062331169843674,0
53,100,0.29545454545454547,847,0,62,_Heartfelt_folk-pop-rock_Guitar_1,6,5,_Heartfelt_folk-pop-rock_Guitar_1,0.08223927766084671,0
55,100,0.2,69,1,63,_Heartfelt_folk-pop-rock_Guitar_1,6,3,_Heartfelt_folk-pop-rock_Guitar_1,0.999842643737793,1
55,100,0.16363636363636364,178,0,63,_Heartfelt_folk-pop-rock_Guitar_1,6,3,_Heartfelt_folk-pop-rock_Guitar_1,0.3271504342556,0
53,100,0.18181818181818182,538,1,63,_Heartfelt_folk-pop-rock_Guitar_1,6,3,_Heartfelt_folk-pop-rock_Guitar_1,0.29610443115234375,0
60,100,0.5318181818181819,841,1,63,_Heartfelt_folk-pop-rock_Guitar_1,6,9,_Heartfelt_folk-pop-rock_Guitar_1,0.3081822991371155,0
54,100,0.09090909090909091,302,1,64,_Heartfelt_folk-pop-rock_Guitar_1,6,1,_Heartfelt_folk-pop-rock_Guitar_1,0.9997672438621521,1
53,100,0.10909090909090909,321,0,64,_Heartfelt_folk-pop-rock_Guitar_1,6,2,_Heartfelt_folk-pop-rock_Guitar_1,0.07883019745349884,0
53,100,0.11363636363636363,454,0,64,_Heartfelt_folk-pop-rock_Guitar_1,6,2,_Heartfelt_folk-pop-rock_Guitar_1,0.071912981569767,0
53,100,0.14545454545454545,516,0,64,_Heartfelt_folk-pop-rock_Guitar_1,6,2,_Heartfelt_folk-pop-rock_Guitar_1,0.07339171320199966,0
65,100,0.1318181818181818,548,0,64,_Heartfelt_folk-pop-rock_Guitar_1,6,2,_Heartfelt_folk-pop-rock_Guitar_1,0.08867228776216507,0
53,100,0.2,661,0,64,_Heartfelt_folk-pop-rock_Guitar_1,6,3,_Heartfelt_folk-pop-rock_Guitar_1,0.09382122755050659,0
53,100,0.11363636363636363,738,0,64,_Heartfelt_folk-pop-rock_Guitar_1,6,2,_Heartfelt_folk-pop-rock_Guitar_1,0.08450598269701004,0
53,100,0.09090909090909091,0,1,65,_Heartfelt_folk-pop-rock_Guitar_1,6,1,_Heartfelt_folk-pop-rock_Guitar_1,0.9998100399971008,1
53,100,0.40454545454545454,234,1,65,_Heartfelt_folk-pop-rock_Guitar_1,6,6,_Heartfelt_folk-pop-rock_Guitar_1,0.1220724955201149,0
53,100,0.5318181818181819,363,0,65,_Heartfelt_folk-pop-rock_Guitar_1,6,9,_Heartfelt_folk-pop-rock_Guitar_1,0.1173691526055336,0
60,100,0.16818181818181818,484,0,65,_Heartfelt_folk-pop-rock_Guitar_1,6,3,_Heartfelt_folk-pop-rock_Guitar_1,0.1409301459789276,0
53,100,0.10909090909090909,537,0,65,_Heartfelt_folk-pop-rock_Guitar_1,6,2,_Heartfelt_folk-pop-rock_Guitar_1,0.14148642122745514,0
53,100,0.16363636363636364,797,1,65,_Heartfelt_folk-pop-rock_Guitar_1,6,3,_Heartfelt_folk-pop-rock_Guitar_1,0.13114693760871887,0
53,100,0.15,154,1,66,_Heartfelt_folk-pop-rock_Guitar_1,6,2,_Heartfelt_folk-pop-rock_Guitar_1,0.9998292922973633,1
62,100,0.5681818181818182,316,0,66,_Heartfelt_folk-pop-rock_Guitar_1,6,9,_Heartfelt_folk-pop-rock_Guitar_1,0.4007916748523712,0
53,100,0.21818181818181817,851,1,66,_Heartfelt_folk-pop-rock_Guitar_1,6,3,_Heartfelt_folk-pop-rock_Guitar_1,0.4359477758407593,0
53,100,0.11363636363636363,96,1,67,_Heartfelt_folk-pop-rock_Guitar_1,6,2,_Heartfelt_folk-pop-rock_Guitar_1,0.9997788071632385,1
53,100,0.20454545454545456,189,0,67,_Heartfelt_folk-pop-rock_Guitar_1,6,3,_Heartfelt_folk-pop-rock_Guitar_1,0.07747150212526321,0
53,100,0.12727272727272726,334,0,67,_Heartfelt_folk-pop-rock_Guitar_1,6,2,_Heartfelt_folk-pop-rock_Guitar_1,0.07308053970336914,0
60,100,0.10909090909090909,455,0,67,_Heartfelt_folk-pop-rock_Guitar_1,6,2,_Heartfelt_folk-pop-rock_Guitar_1,0.07831558585166931,0
60,100,0.18181818181818182,489,0,67,_Heartfelt_folk-pop-rock_Guitar_1,6,3,_Heartfelt_folk-pop-rock_Guitar_1,0.08470519632101059,0
53,100,0.09090909090909091,683,0,67,_Heartfelt_folk-pop-rock_Guitar_1,6,1,_Heartfelt_folk-pop-rock_Guitar_1,0.09154139459133148,0
53,100,0.2409090909090909,746,0,67,_Heartfelt_folk-pop-rock_Guitar_1,6,4,_Heartfelt_folk-pop-rock_Guitar_1,0.0839817151427269,0
53,100,0.09090909090909091,113,1,68,_Heartfelt_folk-pop-rock_Guitar_1,6,1,_Heartfelt_folk-pop-rock_Guitar_1,0.9996592998504639,1
53,100,0.2,163,0,68,_Heartfelt_folk-pop-rock_Guitar_1,6,3,_Heartfelt_folk-pop-rock_Guitar_1,0.5420402884483337,0
60,100,0.11363636363636363,269,1,69,_Heartfelt_folk-pop-rock_Guitar_1,6,2,_Heartfelt_folk-pop-rock_Guitar_1,0.9998425245285034,1
53,100,0.15,439,0,69,_Heartfelt_folk-pop-rock_Guitar_1,6,2,_Heartfelt_folk-pop-rock_Guitar_1,0.40675628185272217,0
58,100,0.10909090909090909,523,0,69,_Heartfelt_folk-pop-rock_Guitar_1,6,2,_Heartfelt_folk-pop-rock_Guitar_1,0.41300174593925476,0
53,100,0.1,510,1,0,_Heartfelt_folk-pop-rock_Guitar,6,2,_Heartfelt_folk-pop-rock_Guitar,0.9998382329940796,1
57,100,0.2590909090909091,612,0,0,_Heartfelt_folk-pop-rock_Guitar,6,4,_Heartfelt_folk-pop-rock_Guitar,0.39442554116249084,0
53,100,0.4772727272727273,766,0,0,_Heartfelt_folk-pop-rock_Guitar,6,8,_Heartfelt_folk-pop-rock_Guitar,0.42435160279273987,0
53,100,0.6227272727272727,201,1,1,_Heartfelt_folk-pop-rock_Guitar,6,10,_Heartfelt_folk-pop-rock_Guitar,0.9998445510864258,1
53,100,0.21818181818181817,360,0,1,_Heartfelt_folk-pop-rock_Guitar,6,3,_Heartfelt_folk-pop-rock_Guitar,0.3303489089012146,0
53,100,0.5818181818181818,510,0,1,_Heartfelt_folk-pop-rock_Guitar,6,9,_Heartfelt_folk-pop-rock_Guitar,0.28769561648368835,0
55,100,0.2818181818181818,664,0,1,_Heartfelt_folk-pop-rock_Guitar,6,5,_Heartfelt_folk-pop-rock_Guitar,0.31281229853630066,0
53,100,0.3409090909090909,241,1,2,_Heartfelt_folk-pop-rock_Guitar,6,5,_Heartfelt_folk-pop-rock_Guitar,0.9998376369476318,1
55,100,0.22272727272727272,409,0,2,_Heartfelt_folk-pop-rock_Guitar,6,4,_Heartfelt_folk-pop-rock_Guitar,0.20501065254211426,0
53,100,0.22272727272727272,562,0,2,_Heartfelt_folk-pop-rock_Guitar,6,4,_Heartfelt_folk-pop-rock_Guitar,0.19825737178325653,0
53,100,0.18181818181818182,616,0,2,_Heartfelt_folk-pop-rock_Guitar,6,3,_Heartfelt_folk-pop-rock_Guitar,0.20824483036994934,0
53,100,0.32272727272727275,871,1,2,_Heartfelt_folk-pop-rock_Guitar,6,5,_Heartfelt_folk-pop-rock_Guitar,0.20516420900821686,0
57,100,0.2590909090909091,418,1,3,_Heartfelt_folk-pop-rock_Guitar,6,4,_Heartfelt_folk-pop-rock_Guitar,0.9998449087142944,1
57,100,0.6227272727272727,642,0,3,_Heartfelt_folk-pop-rock_Guitar,6,10,_Heartfelt_folk-pop-rock_Guitar,0.3093278706073761,0
55,100,0.2409090909090909,791,0,3,_Heartfelt_folk-pop-rock_Guitar,6,4,_Heartfelt_folk-pop-rock_Guitar,0.3006761968135834,0
53,100,0.3409090909090909,849,0,3,_Heartfelt_folk-pop-rock_Guitar,6,5,_Heartfelt_folk-pop-rock_Guitar,0.3124060034751892,0
55,100,0.33636363636363636,61,1,4,_Heartfelt_folk-pop-rock_Guitar,6,5,_Heartfelt_folk-pop-rock_Guitar,0.9998195767402649,1
55,100,0.2409090909090909,383,1,4,_Heartfelt_folk-pop-rock_Guitar,6,4,_Heartfelt_folk-pop-rock_Guitar,0.20768123865127563,0
55,100,0.3181818181818182,537,0,4,_Heartfelt_folk-pop-rock_Guitar,6,5,_Heartfelt_folk-pop-rock_Guitar,0.20213721692562103,0
53,100,0.12272727272727273,752,0,4,_Heartfelt_folk-pop-rock_Guitar,6,2,_Heartfelt_folk-pop-rock_Guitar,0.2248677760362625,0
60,100,0.12272727272727273,849,0,4,_Heartfelt_folk-pop-rock_Guitar,6,2,_Heartfelt_folk-pop-rock_Guitar,0.20894569158554077,0
57,100,0.12272727272727273,79,1,5,_Heartfelt_folk-pop-rock_Guitar,6,2,_Heartfelt_folk-pop-rock_Guitar,0.9998327493667603,1
57,100,0.41818181818181815,171,0,5,_Heartfelt_folk-pop-rock_Guitar,6,7,_Heartfelt_folk-pop-rock_Guitar,0.19736367464065552,0
55,100,0.35909090909090907,360,0,5,_Heartfelt_folk-pop-rock_Guitar,6,6,_Heartfelt_folk-pop-rock_Guitar,0.20460139214992523,0
55,100,0.4772727272727273,480,0,5,_Heartfelt_folk-pop-rock_Guitar,6,8,_Heartfelt_folk-pop-rock_Guitar,0.21676133573055267,0
53,100,0.759090909090909,668,0,5,_Heartfelt_folk-pop-rock_Guitar,6,12,_Heartfelt_folk-pop-rock_Guitar,0.2107750028371811,0
53,100,0.17727272727272728,30,1,6,_Heartfelt_folk-pop-rock_Guitar,6,3,_Heartfelt_folk-pop-rock_Guitar,0.9996907711029053,1
53,100,0.11818181818181818,74,0,6,_Heartfelt_folk-pop-rock_Guitar,6,2,_Heartfelt_folk-pop-rock_Guitar,0.035788387060165405,0
53,100,0.16363636363636364,114,0,6,_Heartfelt_folk-pop-rock_Guitar,6,3,_Heartfelt_folk-pop-rock_Guitar,0.025139523670077324,0
53,100,0.41818181818181815,171,0,6,_Heartfelt_folk-pop-rock_Guitar,6,7,_Heartfelt_folk-pop-rock_Guitar,0.020247917622327805,0
53,100,0.3,268,0,6,_Heartfelt_folk-pop-rock_Guitar,6,5,_Heartfelt_folk-pop-rock_Guitar,0.019648948684334755,0
53,100,0.1590909090909091,342,0,6,_Heartfelt_folk-pop-rock_Guitar,6,3,_Heartfelt_folk-pop-rock_Guitar,0.020502792671322823,0
53,100,0.2,383,0,6,_Heartfelt_folk-pop-rock_Guitar,6,3,_Heartfelt_folk-pop-rock_Guitar,0.022380733862519264,0
53,100,0.3,545,0,6,_Heartfelt_folk-pop-rock_Guitar,6,5,_Heartfelt_folk-pop-rock_Guitar,0.029910624027252197,0
53,100,0.11818181818181818,721,0,6,_Heartfelt_folk-pop-rock_Guitar,6,2,_Heartfelt_folk-pop-rock_Guitar,0.040166568011045456,0
57,100,0.6590909090909091,805,0,6,_Heartfelt_folk-pop-rock_Guitar,6,11,_Heartfelt_folk-pop-rock_Guitar,0.036491695791482925,0
53,100,0.4590909090909091,470,1,7,_Heartfelt_folk-pop-rock_Guitar,6,7,_Heartfelt_folk-pop-rock_Guitar,0.9998236298561096,1
53,100,0.22272727272727272,619,0,7,_Heartfelt_folk-pop-rock_Guitar,6,4,_Heartfelt_folk-pop-rock_Guitar,0.4224061667919159,0
53,100,0.4772727272727273,691,0,7,_Heartfelt_folk-pop-rock_Guitar,6,8,_Heartfelt_folk-pop-rock_Guitar,0.4221319556236267,0
53,100,0.1590909090909091,22,1,8,_Heartfelt_folk-pop-rock_Guitar,6,3,_Heartfelt_folk-pop-rock_Guitar,0.9997714161872864,1
60,100,0.2590909090909091,206,0,8,_Heartfelt_folk-pop-rock_Guitar,6,4,_Heartfelt_folk-pop-rock_Guitar,0.08016801625490189,0
55,100,0.17727272727272728,316,0,8,_Heartfelt_folk-pop-rock_Guitar,6,3,_Heartfelt_folk-pop-rock_Guitar,0.07092349231243134,0
65,100,0.1590909090909091,462,0,8,_Heartfelt_folk-pop-rock_Guitar,6,3,_Heartfelt_folk-pop-rock_Guitar,0.08100712299346924,0
55,100,0.1,501,0,8,_Heartfelt_folk-pop-rock_Guitar,6,2,_Heartfelt_folk-pop-rock_Guitar,0.08734384924173355,0
53,100,0.1590909090909091,629,0,8,_Heartfelt_folk-pop-rock_Guitar,6,3,_Heartfelt_folk-pop-rock_Guitar,0.09610842913389206,0
53,100,0.2590909090909091,831,0,8,_Heartfelt_folk-pop-rock_Guitar,6,4,_Heartfelt_folk-pop-rock_Guitar,0.08295837044715881,0
53,100,0.3,22,1,9,_Heartfelt_folk-pop-rock_Guitar,6,5,_Heartfelt_folk-pop-rock_Guitar,0.9998339414596558,1
60,100,0.3409090909090909,101,0,9,_Heartfelt_folk-pop-rock_Guitar,6,5,_Heartfelt_folk-pop-rock_Guitar,0.2089824676513672,0
63,100,0.23636363636363636,216,0,9,_Heartfelt_folk-pop-rock_Guitar,6,4,_Heartfelt_folk-pop-rock_Guitar,0.19234687089920044,0
53,100,0.1,364,0,9,_Heartfelt_folk-pop-rock_Guitar,6,2,_Heartfelt_folk-pop-rock_Guitar,0.21768836677074432,0
55,100,0.17727272727272728,414,0,9,_Heartfelt_folk-pop-rock_Guitar,6,3,_Heartfelt_folk-pop-rock_Guitar,0.20186784863471985,0
53,100,0.1409090909090909,56,1,10,_Heartfelt_folk-pop-rock_Guitar,6,2,_Heartfelt_folk-pop-rock_Guitar,0.9998607635498047,1
53,100,0.1,92,0,10,_Heartfelt_folk-pop-rock_Guitar,6,2,_Heartfelt_folk-pop-rock_Guitar,0.31264859437942505,0
53,100,0.22272727272727272,474,1,10,_Heartfelt_folk-pop-rock_Guitar,6,4,_Heartfelt_folk-pop-rock_Guitar,0.279426634311676,0
60,100,0.1,620,0,10,_Heartfelt_folk-pop-rock_Guitar,6,2,_Heartfelt_folk-pop-rock_Guitar,0.3115156590938568,0
53,100,0.12272727272727273,386,1,11,_Heartfelt_folk-pop-rock_Guitar,6,2,_Heartfelt_folk-pop-rock_Guitar,0.9998167157173157,1
53,100,0.12272727272727273,453,0,11,_Heartfelt_folk-pop-rock_Guitar,6,2,_Heartfelt_folk-pop-rock_Guitar,0.12263172119855881,0
53,100,0.1409090909090909,515,0,11,_Heartfelt_folk-pop-rock_Guitar,6,2,_Heartfelt_folk-pop-rock_Guitar,0.11842452734708786,0
58,100,0.11818181818181818,572,0,11,_Heartfelt_folk-pop-rock_Guitar,6,2,_Heartfelt_folk-pop-rock_Guitar,0.1251269280910492,0
60,100,0.1,685,0,11,_Heartfelt_folk-pop-rock_Guitar,6,2,_Heartfelt_folk-pop-rock_Guitar,0.14689114689826965,0
60,100,0.2772727272727273,744,0,11,_Heartfelt_folk-pop-rock_Guitar,6,4,_Heartfelt_folk-pop-rock_Guitar,0.12905244529247284,0
55,100,0.17727272727272728,17,1,12,_Heartfelt_folk-pop-rock_Guitar,6,3,_Heartfelt_folk-pop-rock_Guitar,0.9996159076690674,1
65,100,0.6409090909090909,56,0,12,_Heartfelt_folk-pop-rock_Guitar,6,10,_Heartfelt_folk-pop-rock_Guitar,0.5457772016525269,0
60,100,0.18181818181818182,110,1,13,_Heartfelt_folk-pop-rock_Guitar,6,3,_Heartfelt_folk-pop-rock_Guitar,0.9998109936714172,1
60,100,0.23636363636363636,414,1,13,_Heartfelt_folk-pop-rock_Guitar,6,4,_Heartfelt_folk-pop-rock_Guitar,0.12482503801584244,0
60,100,0.4590909090909091,470,0,13,_Heartfelt_folk-pop-rock_Guitar,6,7,_Heartfelt_folk-pop-rock_Guitar,0.11709863692522049,0
60,100,0.5409090909090909,606,0,13,_Heartfelt_folk-pop-rock_Guitar,6,9,_Heartfelt_folk-pop-rock_Guitar,0.13526049256324768,0
55,100,0.17727272727272728,744,0,13,_Heartfelt_folk-pop-rock_Guitar,6,3,_Heartfelt_folk-pop-rock_Guitar,0.1448725461959839,0
53,100,0.7,801,0,13,_Heartfelt_folk-pop-rock_Guitar,6,11,_Heartfelt_folk-pop-rock_Guitar,0.12622393667697906,0
53,100,0.21818181818181817,96,1,14,_Heartfelt_folk-pop-rock_Guitar,6,3,_Heartfelt_folk-pop-rock_Guitar,0.9997739195823669,1
53,100,0.1,158,0,14,_Heartfelt_folk-pop-rock_Guitar,6,2,_Heartfelt_folk-pop-rock_Guitar,0.07974705100059509,0
60,100,0.4,245,0,14,_Heartfelt_folk-pop-rock_Guitar,6,6,_Heartfelt_folk-pop-rock_Guitar,0.07190601527690887,0
57,100,0.1590909090909091,431,0,14,_Heartfelt_folk-pop-rock_Guitar,6,3,_Heartfelt_folk-pop-rock_Guitar,0.0789710283279419,0
62,100,0.3409090909090909,470,0,14,_Heartfelt_folk-pop-rock_Guitar,6,5,_Heartfelt_folk-pop-rock_Guitar,0.08759582787752151,0
53,100,0.11818181818181818,713,1,14,_Heartfelt_folk-pop-rock_Guitar,6,2,_Heartfelt_folk-pop-rock_Guitar,0.0990341529250145,0
60,100,0.7,778,0,14,_Heartfelt_folk-pop-rock_Guitar,6,11,_Heartfelt_folk-pop-rock_Guitar,0.08178005367517471,0
57,100,0.7,61,1,15,_Heartfelt_folk-pop-rock_Guitar,6,11,_Heartfelt_folk-pop-rock_Guitar,0.9998239874839783,1
55,100,0.4,453,1,15,_Heartfelt_folk-pop-rock_Guitar,6,6,_Heartfelt_folk-pop-rock_Guitar,0.34003946185112,0
55,100,0.2772727272727273,546,0,15,_Heartfelt_folk-pop-rock_Guitar,6,4,_Heartfelt_folk-pop-rock_Guitar,0.29957395792007446,0
60,100,0.3,651,0,15,_Heartfelt_folk-pop-rock_Guitar,6,5,_Heartfelt_folk-pop-rock_Guitar,0.32467395067214966,0
64,100,0.2772727272727273,127,1,16,_Heartfelt_folk-pop-rock_Guitar,6,4,_Heartfelt_folk-pop-rock_Guitar,0.999727189540863,1
55,100,0.3,233,0,16,_Heartfelt_folk-pop-rock_Guitar,6,5,_Heartfelt_folk-pop-rock_Guitar,0.05458106845617294,0
53,100,0.1409090909090909,364,0,16,_Heartfelt_folk-pop-rock_Guitar,6,2,_Heartfelt_folk-pop-rock_Guitar,0.0509975403547287,0
55,100,0.2409090909090909,443,0,16,_Heartfelt_folk-pop-rock_Guitar,6,4,_Heartfelt_folk-pop-rock_Guitar,0.04757378250360489,0
53,100,0.21818181818181817,505,0,16,_Heartfelt_folk-pop-rock_Guitar,6,3,_Heartfelt_folk-pop-rock_Guitar,0.05378279834985733,0
62,100,0.1,584,0,16,_Heartfelt_folk-pop-rock_Guitar,6,2,_Heartfelt_folk-pop-rock_Guitar,0.060776133090257645,0
62,100,0.3,686,0,16,_Heartfelt_folk-pop-rock_Guitar,6,5,_Heartfelt_folk-pop-rock_Guitar,0.06593535840511322,0
57,100,0.6818181818181818,814,0,16,_Heartfelt_folk-pop-rock_Guitar,6,11,_Heartfelt_folk-pop-rock_Guitar,0.05729540437459946,0
65,100,0.1409090909090909,110,1,17,_Heartfelt_folk-pop-rock_Guitar,6,2,_Heartfelt_folk-pop-rock_Guitar,0.9998583793640137,1
65,100,0.1590909090909091,175,0,17,_Heartfelt_folk-pop-rock_Guitar,6,3,_Heartfelt_folk-pop-rock_Guitar,0.32226744294166565,0
60,100,0.1409090909090909,312,0,17,_Heartfelt_folk-pop-rock_Guitar,6,2,_Heartfelt_folk-pop-rock_Guitar,0.2884114980697632,0
53,100,0.1590909090909091,691,1,17,_Heartfelt_folk-pop-rock_Guitar,6,3,_Heartfelt_folk-pop-rock_Guitar,0.2975033223628998,0
53,100,0.1590909090909091,167,1,18,_Heartfelt_folk-pop-rock_Guitar,6,3,_Heartfelt_folk-pop-rock_Guitar,0.9933577179908752,0
53,100,0.1590909090909091,339,1,19,_Heartfelt_folk-pop-rock_Guitar,6,3,_Heartfelt_folk-pop-rock_Guitar,0.9998359680175781,1
65,100,0.2590909090909091,374,0,19,_Heartfelt_folk-pop-rock_Guitar,6,4,_Heartfelt_folk-pop-rock_Guitar,0.20133323967456818,0
55,100,0.33636363636363636,457,0,19,_Heartfelt_folk-pop-rock_Guitar,6,5,_Heartfelt_folk-pop-rock_Guitar,0.1929457038640976,0
53,100,0.1409090909090909,536,0,19,_Heartfelt_folk-pop-rock_Guitar,6,2,_Heartfelt_folk-pop-rock_Guitar,0.210696280002594,0
53,100,0.3,576,0,19,_Heartfelt_folk-pop-rock_Guitar,6,5,_Heartfelt_folk-pop-rock_Guitar,0.20220334827899933,0
53,100,0.22272727272727272,57,1,20,_Heartfelt_folk-pop-rock_Guitar,6,4,_Heartfelt_folk-pop-rock_Guitar,0.9929627776145935,0
53,100,0.11818181818181818,501,1,24,_Heartfelt_folk-pop-rock_Guitar,6,2,_Heartfelt_folk-pop-rock_Guitar,0.9998360872268677,1
53,100,0.4818181818181818,650,0,24,_Heartfelt_folk-pop-rock_Guitar,6,8,_Heartfelt_folk-pop-rock_Guitar,0.3913392722606659,0
53,100,0.2818181818181818,770,0,24,_Heartfelt_folk-pop-rock_Guitar,6,5,_Heartfelt_folk-pop-rock_Guitar,0.4330790638923645,0
53,100,0.2772727272727273,162,1,25,_Heartfelt_folk-pop-rock_Guitar,6,4,_Heartfelt_folk-pop-rock_Guitar,0.9998371601104736,1
55,100,0.3181818181818182,260,0,25,_Heartfelt_folk-pop-rock_Guitar,6,5,_Heartfelt_folk-pop-rock_Guitar,0.19643253087997437,0
55,100,0.22272727272727272,497,1,25,_Heartfelt_folk-pop-rock_Guitar,6,4,_Heartfelt_folk-pop-rock_Guitar,0.20818184316158295,0
55,100,0.2,712,0,25,_Heartfelt_folk-pop-rock_Guitar,6,3,_Heartfelt_folk-pop-rock_Guitar,0.21159636974334717,0
55,100,0.2590909090909091,801,0,25,_Heartfelt_folk-pop-rock_Guitar,6,4,_Heartfelt_folk-pop-rock_Guitar,0.20356085896492004,0
57,100,0.2,17,1,26,_Heartfelt_folk-pop-rock_Guitar,6,3,_Heartfelt_folk-pop-rock_Guitar,0.9998335838317871,1
57,100,0.2,387,1,26,_Heartfelt_folk-pop-rock_Guitar,6,3,_Heartfelt_folk-pop-rock_Guitar,0.2076115906238556,0
57,100,0.3409090909090909,466,0,26,_Heartfelt_folk-pop-rock_Guitar,6,5,_Heartfelt_folk-pop-rock_Guitar,0.2001575529575348,0
57,100,0.1590909090909091,550,0,26,_Heartfelt_folk-pop-rock_Guitar,6,3,_Heartfelt_folk-pop-rock_Guitar,0.21048693358898163,0
53,100,0.740909090909091,673,0,26,_Heartfelt_folk-pop-rock_Guitar,6,12,_Heartfelt_folk-pop-rock_Guitar,0.1981024295091629,0
53,100,0.13636363636363635,40,1,27,_Heartfelt_folk-pop-rock_Guitar,6,2,_Heartfelt_folk-pop-rock_Guitar,0.9997645020484924,1
53,100,0.16363636363636364,113,0,27,_Heartfelt_folk-pop-rock_Guitar,6,3,_Heartfelt_folk-pop-rock_Guitar,0.08011586219072342,0
53,100,0.41818181818181815,154,0,27,_Heartfelt_folk-pop-rock_Guitar,6,7,_Heartfelt_folk-pop-rock_Guitar,0.06826366484165192,0
53,100,0.6409090909090909,364,0,27,_Heartfelt_folk-pop-rock_Guitar,6,10,_Heartfelt_folk-pop-rock_Guitar,0.07791373878717422,0
53,100,0.5181818181818182,515,0,27,_Heartfelt_folk-pop-rock_Guitar,6,8,_Heartfelt_folk-pop-rock_Guitar,0.09071601927280426,0
53,100,0.3,642,0,27,_Heartfelt_folk-pop-rock_Guitar,6,5,_Heartfelt_folk-pop-rock_Guitar,0.10086307674646378,0
53,100,0.1409090909090909,748,0,27,_Heartfelt_folk-pop-rock_Guitar,6,2,_Heartfelt_folk-pop-rock_Guitar,0.08982404321432114,0
53,100,0.2,40,1,28,_Heartfelt_folk-pop-rock_Guitar,6,3,_Heartfelt_folk-pop-rock_Guitar,0.9998021721839905,1
55,100,0.2818181818181818,113,0,28,_Heartfelt_folk-pop-rock_Guitar,6,5,_Heartfelt_folk-pop-rock_Guitar,0.12862171232700348,0
60,100,0.1590909090909091,285,0,28,_Heartfelt_folk-pop-rock_Guitar,6,3,_Heartfelt_folk-pop-rock_Guitar,0.12391644716262817,0
60,100,0.2818181818181818,422,0,28,_Heartfelt_folk-pop-rock_Guitar,6,5,_Heartfelt_folk-pop-rock_Guitar,0.13636934757232666,0
55,100,0.35909090909090907,567,0,28,_Heartfelt_folk-pop-rock_Guitar,6,6,_Heartfelt_folk-pop-rock_Guitar,0.1367959827184677,0
55,100,0.3409090909090909,650,0,28,_Heartfelt_folk-pop-rock_Guitar,6,5,_Heartfelt_folk-pop-rock_Guitar,0.1339629739522934,0
62,100,0.21818181818181817,17,1,29,_Heartfelt_folk-pop-rock_Guitar,6,3,_Heartfelt_folk-pop-rock_Guitar,0.999772846698761,1
65,100,0.1,100,0,29,_Heartfelt_folk-pop-rock_Guitar,6,2,_Heartfelt_folk-pop-rock_Guitar,0.08013489842414856,0
53,100,0.3409090909090909,470,1,29,_Heartfelt_folk-pop-rock_Guitar,6,5,_Heartfelt_folk-pop-rock_Guitar,0.07066749781370163,0
53,100,0.1590909090909091,571,0,29,_Heartfelt_folk-pop-rock_Guitar,6,3,_Heartfelt_folk-pop-rock_Guitar,0.07883737981319427,0
53,100,0.2818181818181818,638,0,29,_Heartfelt_folk-pop-rock_Guitar,6,5,_Heartfelt_folk-pop-rock_Guitar,0.09106913208961487,0
53,100,0.35909090909090907,770,0,29,_Heartfelt_folk-pop-rock_Guitar,6,6,_Heartfelt_folk-pop-rock_Guitar,0.09277866780757904,0
53,100,0.35909090909090907,870,0,29,_Heartfelt_folk-pop-rock_Guitar,6,6,_Heartfelt_folk-pop-rock_Guitar,0.08564234524965286,0
55,100,0.1,179,1,30,_Heartfelt_folk-pop-rock_Guitar,6,2,_Heartfelt_folk-pop-rock_Guitar,0.999627947807312,1
53,100,0.2590909090909091,791,1,30,_Heartfelt_folk-pop-rock_Guitar,6,4,_Heartfelt_folk-pop-rock_Guitar,0.547226071357727,0
53,100,0.32272727272727275,3,1,31,_Heartfelt_folk-pop-rock_Guitar,6,5,_Heartfelt_folk-pop-rock_Guitar,0.9998517036437988,1
53,100,0.3,79,0,31,_Heartfelt_folk-pop-rock_Guitar,6,5,_Heartfelt_folk-pop-rock_Guitar,0.32281258702278137,0
53,100,0.21818181818181817,198,0,31,_Heartfelt_folk-pop-rock_Guitar,6,3,_Heartfelt_folk-pop-rock_Guitar,0.2995268702507019,0
53,100,0.759090909090909,347,0,31,_Heartfelt_folk-pop-rock_Guitar,6,12,_Heartfelt_folk-pop-rock_Guitar,0.29040783643722534,0
55,100,0.18181818181818182,268,1,32,_Heartfelt_folk-pop-rock_Guitar,6,3,_Heartfelt_folk-pop-rock_Guitar,0.9929904937744141,0
53,100,0.5,651,1,33,_Heartfelt_folk-pop-rock_Guitar,6,8,_Heartfelt_folk-pop-rock_Guitar,0.9930402040481567,0
53,100,0.1409090909090909,91,1,34,_Heartfelt_folk-pop-rock_Guitar,6,2,_Heartfelt_folk-pop-rock_Guitar,0.9998549222946167,1
53,100,0.3409090909090909,211,0,34,_Heartfelt_folk-pop-rock_Guitar,6,5,_Heartfelt_folk-pop-rock_Guitar,0.30446651577949524,0
53,100,0.23636363636363636,325,0,34,_Heartfelt_folk-pop-rock_Guitar,6,4,_Heartfelt_folk-pop-rock_Guitar,0.29444581270217896,0
55,100,0.12272727272727273,386,0,34,_Heartfelt_folk-pop-rock_Guitar,6,2,_Heartfelt_folk-pop-rock_Guitar,0.307987779378891,0
53,100,0.740909090909091,418,1,35,_Heartfelt_folk-pop-rock_Guitar,6,12,_Heartfelt_folk-pop-rock_Guitar,0.9995868802070618,1
55,100,0.21818181818181817,836,1,35,_Heartfelt_folk-pop-rock_Guitar,6,3,_Heartfelt_folk-pop-rock_Guitar,0.5564762353897095,0
57,100,0.2636363636363636,334,1,36,_Heartfelt_folk-pop-rock_Guitar,6,4,_Heartfelt_folk-pop-rock_Guitar,0.9998372793197632,1
53,100,0.2818181818181818,506,0,36,_Heartfelt_folk-pop-rock_Guitar,6,5,_Heartfelt_folk-pop-rock_Guitar,0.21365556120872498,0
60,100,0.3,590,0,36,_Heartfelt_folk-pop-rock_Guitar,6,5,_Heartfelt_folk-pop-rock_Guitar,0.20077531039714813,0
69,100,0.17727272727272728,801,0,36,_Heartfelt_folk-pop-rock_Guitar,6,3,_Heartfelt_folk-pop-rock_Guitar,0.20135582983493805,0
53,100,0.6181818181818182,875,0,36,_Heartfelt_folk-pop-rock_Guitar,6,10,_Heartfelt_folk-pop-rock_Guitar,0.20206941664218903,0
60,100,0.2409090909090909,185,1,37,_Heartfelt_folk-pop-rock_Guitar,6,4,_Heartfelt_folk-pop-rock_Guitar,0.9998103976249695,1
55,100,0.35909090909090907,286,0,37,_Heartfelt_folk-pop-rock_Guitar,6,6,_Heartfelt_folk-pop-rock_Guitar,0.11790014058351517,0
55,100,0.4,471,0,37,_Heartfelt_folk-pop-rock_Guitar,6,6,_Heartfelt_folk-pop-rock_Guitar,0.11742562800645828,0
55,100,0.43636363636363634,700,0,37,_Heartfelt_folk-pop-rock_Guitar,6,7,_Heartfelt_folk-pop-rock_Guitar,0.13943897187709808,0
55,100,0.16363636363636364,818,0,37,_Heartfelt_folk-pop-rock_Guitar,6,3,_Heartfelt_folk-pop-rock_Guitar,0.15120190382003784,0
55,100,0.1409090909090909,858,0,37,_Heartfelt_folk-pop-rock_Guitar,6,2,_Heartfelt_folk-pop-rock_Guitar,0.13700047135353088,0
53,100,0.1590909090909091,56,1,38,_Heartfelt_folk-pop-rock_Guitar,6,3,_Heartfelt_folk-pop-rock_Guitar,0.999842643737793,1
53,100,0.2772727272727273,251,0,38,_Heartfelt_folk-pop-rock_Guitar,6,4,_Heartfelt_folk-pop-rock_Guitar,0.20124772191047668,0
53,100,0.6,370,0,38,_Heartfelt_folk-pop-rock_Guitar,6,10,_Heartfelt_folk-pop-rock_Guitar,0.18501292169094086,0
60,100,0.6,531,0,38,_Heartfelt_folk-pop-rock_Guitar,6,10,_Heartfelt_folk-pop-rock_Guitar,0.20864538848400116,0
55,100,0.1409090909090909,694,0,38,_Heartfelt_folk-pop-rock_Guitar,6,2,_Heartfelt_folk-pop-rock_Guitar,0.2106107622385025,0
57,100,0.32272727272727275,276,1,39,_Heartfelt_folk-pop-rock_Guitar,6,5,_Heartfelt_folk-pop-rock_Guitar,0.9997531771659851,1
53,100,0.3,356,0,39,_Heartfelt_folk-pop-rock_Guitar,6,5,_Heartfelt_folk-pop-rock_Guitar,0.08376237750053406,0
53,100,0.18181818181818182,431,0,39,_Heartfelt_folk-pop-rock_Guitar,6,3,_Heartfelt_folk-pop-rock_Guitar,0.07454515248537064,0
53,100,0.11818181818181818,633,0,39,_Heartfelt_folk-pop-rock_Guitar,6,2,_Heartfelt_folk-pop-rock_Guitar,0.07937438040971756,0
53,100,0.13636363636363635,721,0,39,_Heartfelt_folk-pop-rock_Guitar,6,2,_Heartfelt_folk-pop-rock_Guitar,0.08966023474931717,0
60,100,0.2,770,0,39,_Heartfelt_folk-pop-rock_Guitar,6,3,_Heartfelt_folk-pop-rock_Guitar,0.09376922249794006,0
69,100,0.2818181818181818,818,0,39,_Heartfelt_folk-pop-rock_Guitar,6,5,_Heartfelt_folk-pop-rock_Guitar,0.0820554792881012,0
53,100,0.3409090909090909,4,1,40,_Heartfelt_folk-pop-rock_Guitar,6,5,_Heartfelt_folk-pop-rock_Guitar,0.9997188448905945,1
55,100,0.2818181818181818,91,0,40,_Heartfelt_folk-pop-rock_Guitar,6,5,_Heartfelt_folk-pop-rock_Guitar,0.05636246129870415,0
55,100,0.2409090909090909,273,0,40,_Heartfelt_folk-pop-rock_Guitar,6,4,_Heartfelt_folk-pop-rock_Guitar,0.04864157363772392,0
55,100,0.3181818181818182,330,0,40,_Heartfelt_folk-pop-rock_Guitar,6,5,_Heartfelt_folk-pop-rock_Guitar,0.04876085743308067,0
55,100,0.6409090909090909,421,0,40,_Heartfelt_folk-pop-rock_Guitar,6,10,_Heartfelt_folk-pop-rock_Guitar,0.051322080194950104,0
55,100,0.11818181818181818,581,0,40,_Heartfelt_folk-pop-rock_Guitar,6,2,_Heartfelt_folk-pop-rock_Guitar,0.06503864377737045,0
55,100,0.4772727272727273,700,0,40,_Heartfelt_folk-pop-rock_Guitar,6,8,_Heartfelt_folk-pop-rock_Guitar,0.06568746268749237,0
53,100,0.1,826,0,40,_Heartfelt_folk-pop-rock_Guitar,6,2,_Heartfelt_folk-pop-rock_Guitar,0.06704592704772949,0
55,100,0.12272727272727273,13,1,41,_Heartfelt_folk-pop-rock_Guitar,6,2,_Heartfelt_folk-pop-rock_Guitar,0.993267297744751,0
58,100,0.18181818181818182,13,1,48,_Heartfelt_folk-pop-rock_Guitar,6,3,_Heartfelt_folk-pop-rock_Guitar,0.9998430013656616,1
53,100,0.11818181818181818,96,0,48,_Heartfelt_folk-pop-rock_Guitar,6,2,_Heartfelt_folk-pop-rock_Guitar,0.3423362374305725,0
53,100,0.11818181818181818,471,1,48,_Heartfelt_folk-pop-rock_Guitar,6,2,_Heartfelt_folk-pop-rock_Guitar,0.28490880131721497,0
53,100,0.11818181818181818,633,0,48,_Heartfelt_folk-pop-rock_Guitar,6,2,_Heartfelt_folk-pop-rock_Guitar,0.30933311581611633,0
53,100,0.1590909090909091,105,1,49,_Heartfelt_folk-pop-rock_Guitar,6,3,_Heartfelt_folk-pop-rock_Guitar,0.9998576641082764,1
53,100,0.1409090909090909,144,0,49,_Heartfelt_folk-pop-rock_Guitar,6,2,_Heartfelt_folk-pop-rock_Guitar,0.3244233727455139,0
60,100,0.2409090909090909,431,1,49,_Heartfelt_folk-pop-rock_Guitar,6,4,_Heartfelt_folk-pop-rock_Guitar,0.28916531801223755,0
64,100,0.2818181818181818,628,0,49,_Heartfelt_folk-pop-rock_Guitar,6,5,_Heartfelt_folk-pop-rock_Guitar,0.29855722188949585,0
60,100,0.22272727272727272,431,1,50,_Heartfelt_folk-pop-rock_Guitar,6,4,_Heartfelt_folk-pop-rock_Guitar,0.9996570348739624,1
59,100,0.17727272727272728,501,0,50,_Heartfelt_folk-pop-rock_Guitar,6,3,_Heartfelt_folk-pop-rock_Guitar,0.5412076115608215,0
53,100,0.11818181818181818,105,1,51,_Heartfelt_folk-pop-rock_Guitar,6,2,_Heartfelt_folk-pop-rock_Guitar,0.9998550415039062,1
58,100,0.1590909090909091,131,0,51,_Heartfelt_folk-pop-rock_Guitar,6,3,_Heartfelt_folk-pop-rock_Guitar,0.30139824748039246,0
53,100,0.21818181818181817,405,1,51,_Heartfelt_folk-pop-rock_Guitar,6,3,_Heartfelt_folk-pop-rock_Guitar,0.3064882159233093,0
53,100,0.21818181818181817,603,0,51,_Heartfelt_folk-pop-rock_Guitar,6,3,_Heartfelt_folk-pop-rock_Guitar,0.3033372759819031,0
55,100,0.32272727272727275,848,1,52,_Heartfelt_folk-pop-rock_Guitar,6,5,_Heartfelt_folk-pop-rock_Guitar,0.9927668571472168,0
55,100,0.1,276,1,53,_Heartfelt_folk-pop-rock_Guitar,6,2,_Heartfelt_folk-pop-rock_Guitar,0.9930545687675476,0
53,100,0.11818181818181818,646,1,54,_Heartfelt_folk-pop-rock_Guitar,6,2,_Heartfelt_folk-pop-rock_Guitar,0.9996539354324341,1
53,100,0.12272727272727273,761,0,54,_Heartfelt_folk-pop-rock_Guitar,6,2,_Heartfelt_folk-pop-rock_Guitar,0.5488234758377075,0
53,100,0.5409090909090909,118,1,55,_Heartfelt_folk-pop-rock_Guitar,6,9,_Heartfelt_folk-pop-rock_Guitar,0.9998413324356079,1
65,100,0.12272727272727273,311,0,55,_Heartfelt_folk-pop-rock_Guitar,6,2,_Heartfelt_folk-pop-rock_Guitar,0.336079478263855,0
60,100,0.6409090909090909,453,0,55,_Heartfelt_folk-pop-rock_Guitar,6,10,_Heartfelt_folk-pop-rock_Guitar,0.2815474271774292,0
60,100,0.1409090909090909,598,0,55,_Heartfelt_folk-pop-rock_Guitar,6,2,_Heartfelt_folk-pop-rock_Guitar,0.32002443075180054,0
60,100,0.7227272727272728,144,1,56,_Heartfelt_folk-pop-rock_Guitar,6,12,_Heartfelt_folk-pop-rock_Guitar,0.9998441934585571,1
62,100,0.22272727272727272,334,0,56,_Heartfelt_folk-pop-rock_Guitar,6,4,_Heartfelt_folk-pop-rock_Guitar,0.34541943669319153,0
55,100,0.2590909090909091,471,0,56,_Heartfelt_folk-pop-rock_Guitar,6,4,_Heartfelt_folk-pop-rock_Guitar,0.28327617049217224,0
55,100,0.4772727272727273,581,0,56,_Heartfelt_folk-pop-rock_Guitar,6,8,_Heartfelt_folk-pop-rock_Guitar,0.30832135677337646,0
55,100,0.36363636363636365,619,1,57,_Heartfelt_folk-pop-rock_Guitar,6,6,_Heartfelt_folk-pop-rock_Guitar,0.9998182654380798,1
55,100,0.3409090909090909,708,0,57,_Heartfelt_folk-pop-rock_Guitar,6,5,_Heartfelt_folk-pop-rock_Guitar,0.42017725110054016,0
57,100,0.1590909090909091,801,0,57,_Heartfelt_folk-pop-rock_Guitar,6,3,_Heartfelt_folk-pop-rock_Guitar,0.43123936653137207,0
53,100,0.759090909090909,338,1,59,_Heartfelt_folk-pop-rock_Guitar,6,12,_Heartfelt_folk-pop-rock_Guitar,0.9926614761352539,1
74,100,1.0636363636363637,774,1,63,_Heartfelt_folk-pop-rock_Guitar,6,15,_Heartfelt_folk-pop-rock_Guitar,0.9917723536491394,0
72,100,1.6772727272727272,127,1,64,_Heartfelt_folk-pop-rock_Guitar,6,15,_Heartfelt_folk-pop-rock_Guitar,0.9904725551605225,0
53,100,0.13636363636363635,40,1,65,_Heartfelt_folk-pop-rock_Guitar,6,2,_Heartfelt_folk-pop-rock_Guitar,0.9998515844345093,1
53,100,0.1409090909090909,189,0,65,_Heartfelt_folk-pop-rock_Guitar,6,2,_Heartfelt_folk-pop-rock_Guitar,0.32462823390960693,0
53,100,0.2409090909090909,267,0,65,_Heartfelt_folk-pop-rock_Guitar,6,4,_Heartfelt_folk-pop-rock_Guitar,0.28834450244903564,0
53,100,0.6818181818181818,506,1,65,_Heartfelt_folk-pop-rock_Guitar,6,11,_Heartfelt_folk-pop-rock_Guitar,0.29828763008117676,0
55,100,0.1409090909090909,30,1,66,_Heartfelt_folk-pop-rock_Guitar,6,2,_Heartfelt_folk-pop-rock_Guitar,0.9998323917388916,1
55,100,0.1409090909090909,179,0,66,_Heartfelt_folk-pop-rock_Guitar,6,2,_Heartfelt_folk-pop-rock_Guitar,0.20730790495872498,0
53,100,0.3181818181818182,326,0,66,_Heartfelt_folk-pop-rock_Guitar,6,5,_Heartfelt_folk-pop-rock_Guitar,0.1956896036863327,0
62,100,0.3181818181818182,559,1,66,_Heartfelt_folk-pop-rock_Guitar,6,5,_Heartfelt_folk-pop-rock_Guitar,0.20993521809577942,0
53,100,0.12272727272727273,870,1,66,_Heartfelt_folk-pop-rock_Guitar,6,2,_Heartfelt_folk-pop-rock_Guitar,0.21378397941589355,0
53,100,0.22272727272727272,157,1,67,_Heartfelt_folk-pop-rock_Guitar,6,4,_Heartfelt_folk-pop-rock_Guitar,0.9997727274894714,1
53,100,0.2590909090909091,299,0,67,_Heartfelt_folk-pop-rock_Guitar,6,4,_Heartfelt_folk-pop-rock_Guitar,0.0784943699836731,0
53,100,0.18181818181818182,396,0,67,_Heartfelt_folk-pop-rock_Guitar,6,3,_Heartfelt_folk-pop-rock_Guitar,0.07213374227285385,0
53,100,0.1409090909090909,619,0,67,_Heartfelt_folk-pop-rock_Guitar,6,2,_Heartfelt_folk-pop-rock_Guitar,0.07915568351745605,0
60,100,0.1409090909090909,660,0,67,_Heartfelt_folk-pop-rock_Guitar,6,2,_Heartfelt_folk-pop-rock_Guitar,0.08937074989080429,0
53,100,0.1590909090909091,695,0,67,_Heartfelt_folk-pop-rock_Guitar,6,3,_Heartfelt_folk-pop-rock_Guitar,0.09307372570037842,0
53,100,0.18181818181818182,783,0,67,_Heartfelt_folk-pop-rock_Guitar,6,3,_Heartfelt_folk-pop-rock_Guitar,0.08293382078409195,0
53,100,0.1409090909090909,43,1,68,_Heartfelt_folk-pop-rock_Guitar,6,2,_Heartfelt_folk-pop-rock_Guitar,0.9998451471328735,1
53,100,0.3409090909090909,352,1,68,_Heartfelt_folk-pop-rock_Guitar,6,5,_Heartfelt_folk-pop-rock_Guitar,0.20261985063552856,0
53,100,0.32272727272727275,443,0,68,_Heartfelt_folk-pop-rock_Guitar,6,5,_Heartfelt_folk-pop-rock_Guitar,0.20008184015750885,0
55,100,0.22272727272727272,553,0,68,_Heartfelt_folk-pop-rock_Guitar,6,4,_Heartfelt_folk-pop-rock_Guitar,0.19795577228069305,0
55,100,0.18181818181818182,673,0,68,_Heartfelt_folk-pop-rock_Guitar,6,3,_Heartfelt_folk-pop-rock_Guitar,0.20414748787879944,0
53,100,0.2,184,1,69,_Heartfelt_folk-pop-rock_Guitar,6,3,_Heartfelt_folk-pop-rock_Guitar,0.999640941619873,1
60,100,0.5772727272727273,514,1,69,_Heartfelt_folk-pop-rock_Guitar,6,9,_Heartfelt_folk-pop-rock_Guitar,0.5414856672286987,0
54,100,0.1,3,1,70,_Heartfelt_folk-pop-rock_Guitar,6,2,_Heartfelt_folk-pop-rock_Guitar,0.999734103679657,1
53,100,0.12272727272727273,26,0,70,_Heartfelt_folk-pop-rock_Guitar,6,2,_Heartfelt_folk-pop-rock_Guitar,0.05384516343474388,0
53,100,0.11818181818181818,172,0,70,_Heartfelt_folk-pop-rock_Guitar,6,2,_Heartfelt_folk-pop-rock_Guitar,0.047139350324869156,0
53,100,0.1590909090909091,237,0,70,_Heartfelt_folk-pop-rock_Guitar,6,3,_Heartfelt_folk-pop-rock_Guitar,0.045646704733371735,0
65,100,0.1409090909090909,273,0,70,_Heartfelt_folk-pop-rock_Guitar,6,2,_Heartfelt_folk-pop-rock_Guitar,0.05007602274417877,0
53,100,0.21818181818181817,396,0,70,_Heartfelt_folk-pop-rock_Guitar,6,3,_Heartfelt_folk-pop-rock_Guitar,0.05644607171416283,0
53,100,0.11818181818181818,480,0,70,_Heartfelt_folk-pop-rock_Guitar,6,2,_Heartfelt_folk-pop-rock_Guitar,0.06581549346446991,0
53,100,0.1,633,0,70,_Heartfelt_folk-pop-rock_Guitar,6,2,_Heartfelt_folk-pop-rock_Guitar,0.0596957691013813,0
53,100,0.4409090909090909,9,1,71,_Heartfelt_folk-pop-rock_Guitar,6,7,_Heartfelt_folk-pop-rock_Guitar,0.9998263716697693,1
53,100,0.5772727272727273,150,0,71,_Heartfelt_folk-pop-rock_Guitar,6,9,_Heartfelt_folk-pop-rock_Guitar,0.20655177533626556,0
60,100,0.17727272727272728,282,0,71,_Heartfelt_folk-pop-rock_Guitar,6,3,_Heartfelt_folk-pop-rock_Guitar,0.2060634195804596,0
53,100,0.11818181818181818,339,0,71,_Heartfelt_folk-pop-rock_Guitar,6,2,_Heartfelt_folk-pop-rock_Guitar,0.20910611748695374,0
53,100,0.18181818181818182,619,1,71,_Heartfelt_folk-pop-rock_Guitar,6,3,_Heartfelt_folk-pop-rock_Guitar,0.20673894882202148,0
53,100,0.1590909090909091,0,1,72,_Heartfelt_folk-pop-rock_Guitar,6,3,_Heartfelt_folk-pop-rock_Guitar,0.9998284578323364,1
62,100,0.6181818181818182,176,0,72,_Heartfelt_folk-pop-rock_Guitar,6,10,_Heartfelt_folk-pop-rock_Guitar,0.39278507232666016,0
53,100,0.2409090909090909,756,1,72,_Heartfelt_folk-pop-rock_Guitar,6,4,_Heartfelt_folk-pop-rock_Guitar,0.445417582988739,0
53,100,0.12272727272727273,13,1,73,_Heartfelt_folk-pop-rock_Guitar,6,2,_Heartfelt_folk-pop-rock_Guitar,0.9997771382331848,1
53,100,0.22272727272727272,113,0,73,_Heartfelt_folk-pop-rock_Guitar,6,4,_Heartfelt_folk-pop-rock_Guitar,0.07755636423826218,0
53,100,0.1409090909090909,273,0,73,_Heartfelt_folk-pop-rock_Guitar,6,2,_Heartfelt_folk-pop-rock_Guitar,0.07110802829265594,0
60,100,0.11818181818181818,404,0,73,_Heartfelt_folk-pop-rock_Guitar,6,2,_Heartfelt_folk-pop-rock_Guitar,0.0774974375963211,0
60,100,0.2,440,0,73,_Heartfelt_folk-pop-rock_Guitar,6,3,_Heartfelt_folk-pop-rock_Guitar,0.08525343239307404,0
53,100,0.1,650,0,73,_Heartfelt_folk-pop-rock_Guitar,6,2,_Heartfelt_folk-pop-rock_Guitar,0.09086623787879944,0
53,100,0.2590909090909091,722,0,73,_Heartfelt_folk-pop-rock_Guitar,6,4,_Heartfelt_folk-pop-rock_Guitar,0.08466923236846924,0
53,100,0.1,110,1,74,_Heartfelt_folk-pop-rock_Guitar,6,2,_Heartfelt_folk-pop-rock_Guitar,0.9996457099914551,1
53,100,0.21818181818181817,163,0,74,_Heartfelt_folk-pop-rock_Guitar,6,3,_Heartfelt_folk-pop-rock_Guitar,0.5461722612380981,0
60,100,0.12272727272727273,356,1,75,_Heartfelt_folk-pop-rock_Guitar,6,2,_Heartfelt_folk-pop-rock_Guitar,0.9998444318771362,1
53,100,0.1590909090909091,540,0,75,_Heartfelt_folk-pop-rock_Guitar,6,3,_Heartfelt_folk-pop-rock_Guitar,0.4020552635192871,0
58,100,0.11818181818181818,633,0,75,_Heartfelt_folk-pop-rock_Guitar,6,2,_Heartfelt_folk-pop-rock_Guitar,0.413906067609787,0
52,100,0.2409090909090909,528,1,0,DL_Guitar,6,4,DL_Guitar,0.9998393058776855,1
52,100,0.3,660,0,0,DL_Guitar,6,5,DL_Guitar,0.4083366394042969,0
52,100,0.42272727272727273,761,0,0,DL_Guitar,6,7,DL_Guitar,0.4196871519088745,0
64,100,0.16363636363636364,4,1,1,DL_Guitar,6,3,DL_Guitar,0.9934072494506836,0
52,100,0.17727272727272728,229,1,2,DL_Guitar,6,3,DL_Guitar,0.9996583461761475,1
52,100,0.38181818181818183,409,0,2,DL_Guitar,6,6,DL_Guitar,0.543296754360199,0
56,100,0.2,488,1,3,DL_Guitar,6,3,DL_Guitar,0.9996508359909058,1
56,100,0.1590909090909091,546,0,3,DL_Guitar,6,3,DL_Guitar,0.544330894947052,0
52,100,0.17727272727272728,184,1,4,DL_Guitar,6,3,DL_Guitar,0.999843955039978,1
52,100,0.17727272727272728,317,0,4,DL_Guitar,6,3,DL_Guitar,0.40267401933670044,0
52,100,0.1590909090909091,458,0,4,DL_Guitar,6,3,DL_Guitar,0.42168691754341125,0
52,100,0.2772727272727273,700,1,5,DL_Guitar,6,4,DL_Guitar,0.9933387637138367,0
64,100,0.2,757,1,6,DL_Guitar,6,3,DL_Guitar,0.9996590614318848,1
64,100,0.12272727272727273,839,0,6,DL_Guitar,6,2,DL_Guitar,0.5441920757293701,0
57,100,0.13636363636363635,238,1,7,DL_Guitar,6,2,DL_Guitar,0.9998351335525513,1
52,100,0.12272727272727273,629,1,7,DL_Guitar,6,2,DL_Guitar,0.41961973905563354,0
52,100,0.17727272727272728,757,0,7,DL_Guitar,6,3,DL_Guitar,0.42021965980529785,0
64,100,0.1,8,1,8,DL_Guitar,6,2,DL_Guitar,0.9997449517250061,1
52,100,0.1,92,0,8,DL_Guitar,6,2,DL_Guitar,0.054920803755521774,0
52,100,0.2772727272727273,127,0,8,DL_Guitar,6,4,DL_Guitar,0.04473056271672249,0
52,100,0.11818181818181818,237,0,8,DL_Guitar,6,2,DL_Guitar,0.04846236854791641,0
57,100,0.2590909090909091,285,0,8,DL_Guitar,6,4,DL_Guitar,0.04705236479640007,0
57,100,1.0,369,0,8,DL_Guitar,6,15,DL_Guitar,0.054544415324926376,0
52,100,0.2,708,1,8,DL_Guitar,6,3,DL_Guitar,0.07671919465065002,0
52,100,0.2590909090909091,857,0,8,DL_Guitar,6,4,DL_Guitar,0.05959804728627205,0
57,100,0.1590909090909091,34,1,9,DL_Guitar,6,3,DL_Guitar,0.9996210336685181,1
56,100,0.2590909090909091,835,1,9,DL_Guitar,6,4,DL_Guitar,0.5502765774726868,0
52,100,0.2,48,1,10,DL_Guitar,6,3,DL_Guitar,0.9998483657836914,1
52,100,0.1,118,0,10,DL_Guitar,6,2,DL_Guitar,0.20572437345981598,0
52,100,0.1,144,0,10,DL_Guitar,6,2,DL_Guitar,0.19664162397384644,0
54,100,0.1,330,0,10,DL_Guitar,6,2,DL_Guitar,0.1973658949136734,0
54,100,0.1590909090909091,854,1,10,DL_Guitar,6,3,DL_Guitar,0.1944328248500824,0
54,100,0.2,30,1,11,DL_Guitar,6,3,DL_Guitar,0.9996477365493774,1
64,100,0.1,770,1,11,DL_Guitar,6,2,DL_Guitar,0.5507224202156067,0
52,100,0.22272727272727272,826,1,12,DL_Guitar,6,4,DL_Guitar,0.9934544563293457,0
52,100,0.5,598,1,13,DL_Guitar,6,8,DL_Guitar,0.9998307228088379,1
52,100,0.42272727272727273,730,0,13,DL_Guitar,6,7,DL_Guitar,0.4025525748729706,0
52,100,0.18181818181818182,835,0,13,DL_Guitar,6,3,DL_Guitar,0.43500465154647827,0
52,100,0.21818181818181817,22,1,14,DL_Guitar,6,3,DL_Guitar,0.9996541738510132,1
64,100,0.1409090909090909,835,1,14,DL_Guitar,6,2,DL_Guitar,0.5485515594482422,0
71,100,0.12272727272727273,233,1,15,DL_Guitar,6,2,DL_Guitar,0.9998329877853394,1
54,100,0.13636363636363635,766,1,15,DL_Guitar,6,2,DL_Guitar,0.4160102903842926,0
54,100,0.11818181818181818,809,0,15,DL_Guitar,6,2,DL_Guitar,0.42152994871139526,0
56,100,0.2,663,1,17,DL_Guitar,6,3,DL_Guitar,0.9932953715324402,0
60,100,0.37727272727272726,96,1,19,DL_Guitar,6,6,DL_Guitar,0.9933516383171082,0
66,100,0.2772727272727273,40,1,20,DL_Guitar,6,4,DL_Guitar,0.9998248219490051,1
54,100,0.4409090909090909,140,0,20,DL_Guitar,6,7,DL_Guitar,0.207233265042305,0
54,100,0.4,272,0,20,DL_Guitar,6,6,DL_Guitar,0.20095477998256683,0
56,100,0.2818181818181818,550,1,20,DL_Guitar,6,5,DL_Guitar,0.21703296899795532,0
56,100,0.37727272727272726,756,0,20,DL_Guitar,6,6,DL_Guitar,0.2085774540901184,0
52,100,0.16363636363636364,3,1,21,DL_Guitar,6,3,DL_Guitar,0.9997150301933289,1
59,100,0.1,241,1,21,DL_Guitar,6,2,DL_Guitar,0.041946254670619965,0
52,100,0.3,339,0,21,DL_Guitar,6,5,DL_Guitar,0.032214388251304626,0
57,100,0.17727272727272728,413,0,21,DL_Guitar,6,3,DL_Guitar,0.02902323380112648,0
52,100,0.3,453,0,21,DL_Guitar,6,5,DL_Guitar,0.030419236049056053,0
52,100,0.21818181818181817,523,0,21,DL_Guitar,6,3,DL_Guitar,0.033407751470804214,0
52,100,0.11818181818181818,712,0,21,DL_Guitar,6,2,DL_Guitar,0.0400519035756588,0
64,100,0.2,787,0,21,DL_Guitar,6,3,DL_Guitar,0.0460742749273777,0
52,100,0.13636363636363635,831,0,21,DL_Guitar,6,2,DL_Guitar,0.04444001242518425,0
52,100,0.21818181818181817,0,1,22,DL_Guitar,6,3,DL_Guitar,0.9998438358306885,1
52,100,0.1,52,0,22,DL_Guitar,6,2,DL_Guitar,0.21033217012882233,0
57,100,0.17727272727272728,75,0,22,DL_Guitar,6,3,DL_Guitar,0.18782106041908264,0
57,100,0.38181818181818183,175,0,22,DL_Guitar,6,6,DL_Guitar,0.2054276317358017,0
57,100,0.1,567,1,22,DL_Guitar,6,2,DL_Guitar,0.20527806878089905,0
54,100,0.1409090909090909,308,1,23,DL_Guitar,6,2,DL_Guitar,0.9996436834335327,1
54,100,0.1409090909090909,550,1,23,DL_Guitar,6,2,DL_Guitar,0.5489609241485596,0
59,100,0.16363636363636364,466,1,24,DL_Guitar,6,3,DL_Guitar,0.9998394250869751,1
54,100,0.1409090909090909,571,0,24,DL_Guitar,6,2,DL_Guitar,0.39635998010635376,0
55,100,0.1409090909090909,691,0,24,DL_Guitar,6,2,DL_Guitar,0.425966739654541,0
64,100,0.3,167,1,25,DL_Guitar,6,5,DL_Guitar,0.9998360872268677,1
52,100,0.22272727272727272,320,0,25,DL_Guitar,6,4,DL_Guitar,0.4103759527206421,0
59,100,0.11818181818181818,831,1,25,DL_Guitar,6,2,DL_Guitar,0.41315096616744995,0
52,100,0.22272727272727272,57,1,26,DL_Guitar,6,4,DL_Guitar,0.9996252059936523,1
52,100,0.6,206,0,26,DL_Guitar,6,10,DL_Guitar,0.5467556118965149,0
52,100,0.16363636363636364,3,1,27,DL_Guitar,6,3,DL_Guitar,0.9998611211776733,1
52,100,0.2636363636363636,48,0,27,DL_Guitar,6,4,DL_Guitar,0.3133675158023834,0
59,100,0.2636363636363636,223,0,27,DL_Guitar,6,4,DL_Guitar,0.28107932209968567,0
52,100,0.12272727272727273,299,0,27,DL_Guitar,6,2,DL_Guitar,0.30474913120269775,0
56,100,0.1409090909090909,246,1,29,DL_Guitar,6,2,DL_Guitar,0.9996469020843506,1
52,100,0.2409090909090909,607,1,29,DL_Guitar,6,4,DL_Guitar,0.5468565821647644,0
62,100,0.32272727272727275,752,1,30,DL_Guitar,6,5,DL_Guitar,0.9932658672332764,1
54,100,0.2,215,1,32,DL_Guitar,6,3,DL_Guitar,0.992763102054596,0
66,100,0.1409090909090909,311,1,33,DL_Guitar,6,2,DL_Guitar,0.9998327493667603,1
66,100,0.22272727272727272,488,0,33,DL_Guitar,6,4,DL_Guitar,0.41740506887435913,0
54,100,0.1,801,1,33,DL_Guitar,6,2,DL_Guitar,0.4205946922302246,0
52,100,0.18181818181818182,69,1,34,DL_Guitar,6,3,DL_Guitar,0.9998114705085754,1
64,100,0.2590909090909091,123,0,34,DL_Guitar,6,4,DL_Guitar,0.1263565868139267,0
59,100,0.12272727272727273,254,0,34,DL_Guitar,6,2,DL_Guitar,0.12041524797677994,0
59,100,0.2,373,0,34,DL_Guitar,6,3,DL_Guitar,0.13268937170505524,0
52,100,0.22272727272727272,716,1,34,DL_Guitar,6,4,DL_Guitar,0.146377295255661,0
56,100,0.1590909090909091,831,0,34,DL_Guitar,6,3,DL_Guitar,0.12385678291320801,0
52,100,0.1590909090909091,13,1,35,DL_Guitar,6,3,DL_Guitar,0.9997460246086121,1
64,100,0.11818181818181818,105,0,35,DL_Guitar,6,2,DL_Guitar,0.053483523428440094,0
52,100,0.11818181818181818,150,0,35,DL_Guitar,6,2,DL_Guitar,0.04609222710132599,0
52,100,0.22272727272727272,378,0,35,DL_Guitar,6,4,DL_Guitar,0.0457444041967392,0
57,100,0.21818181818181817,483,0,35,DL_Guitar,6,3,DL_Guitar,0.047901444137096405,0
52,100,0.1409090909090909,584,0,35,DL_Guitar,6,2,DL_Guitar,0.05887354537844658,0
64,100,0.1,655,0,35,DL_Guitar,6,2,DL_Guitar,0.062403604388237,0
52,100,0.21818181818181817,735,0,35,DL_Guitar,6,3,DL_Guitar,0.058045919984579086,0
52,100,0.2590909090909091,56,1,36,DL_Guitar,6,4,DL_Guitar,0.999815046787262,1
64,100,0.1409090909090909,251,0,36,DL_Guitar,6,2,DL_Guitar,0.12627314031124115,0
64,100,0.2818181818181818,576,1,36,DL_Guitar,6,5,DL_Guitar,0.11405272781848907,0
61,100,0.21818181818181817,660,0,36,DL_Guitar,6,3,DL_Guitar,0.1287602186203003,0
61,100,0.1,716,0,36,DL_Guitar,6,2,DL_Guitar,0.1389312595129013,0
64,100,0.32272727272727275,738,0,36,DL_Guitar,6,5,DL_Guitar,0.12559477984905243,0
64,100,0.18181818181818182,34,1,37,DL_Guitar,6,3,DL_Guitar,0.9996559619903564,1
64,100,0.1,105,0,37,DL_Guitar,6,2,DL_Guitar,0.5470060110092163,0
54,100,0.13636363636363635,193,1,38,DL_Guitar,6,2,DL_Guitar,0.9998569488525391,1
52,100,0.12272727272727273,311,0,38,DL_Guitar,6,2,DL_Guitar,0.32756945490837097,0
64,100,0.1590909090909091,735,1,38,DL_Guitar,6,3,DL_Guitar,0.2888388931751251,0
61,100,0.12272727272727273,861,0,38,DL_Guitar,6,2,DL_Guitar,0.29589781165122986,0
61,100,0.3181818181818182,110,1,39,DL_Guitar,6,5,DL_Guitar,0.999619722366333,1
56,100,0.1590909090909091,351,1,39,DL_Guitar,6,3,DL_Guitar,0.5529683828353882,0
64,100,0.12272727272727273,91,1,40,DL_Guitar,6,2,DL_Guitar,0.9996627569198608,1
52,100,0.13636363636363635,150,0,40,DL_Guitar,6,2,DL_Guitar,0.5461005568504333,0
54,100,0.5,220,1,41,DL_Guitar,6,8,DL_Guitar,0.9996094107627869,1
54,100,0.1409090909090909,418,0,41,DL_Guitar,6,2,DL_Guitar,0.5593165159225464,0
66,100,0.12272727272727273,4,1,42,DL_Guitar,6,2,DL_Guitar,0.999824583530426,1
59,100,0.13636363636363635,171,0,42,DL_Guitar,6,2,DL_Guitar,0.4167404770851135,0
54,100,0.5772727272727273,391,0,42,DL_Guitar,6,9,DL_Guitar,0.42173436284065247,0
52,100,0.2590909090909091,171,1,43,DL_Guitar,6,4,DL_Guitar,0.9998562335968018,1
52,100,0.2,260,0,43,DL_Guitar,6,3,DL_Guitar,0.32215139269828796,0
52,100,0.4772727272727273,480,0,43,DL_Guitar,6,8,DL_Guitar,0.29417309165000916,0
52,100,0.3409090909090909,593,0,43,DL_Guitar,6,5,DL_Guitar,0.3008759617805481,0
62,100,0.9181818181818182,31,1,44,DL_Guitar,6,15,DL_Guitar,0.9997963309288025,1
61,100,0.1590909090909091,448,1,44,DL_Guitar,6,3,DL_Guitar,0.45565199851989746,0
64,100,0.5590909090909091,493,0,44,DL_Guitar,6,9,DL_Guitar,0.4312785565853119,0
54,100,0.4409090909090909,26,1,45,DL_Guitar,6,7,DL_Guitar,0.9998261332511902,1
54,100,0.2,131,0,45,DL_Guitar,6,3,DL_Guitar,0.22050870954990387,0
52,100,0.13636363636363635,545,1,45,DL_Guitar,6,2,DL_Guitar,0.2018500715494156,0
59,100,0.12272727272727273,651,0,45,DL_Guitar,6,2,DL_Guitar,0.2052059769630432,0
52,100,0.33636363636363636,721,0,45,DL_Guitar,6,5,DL_Guitar,0.20464807748794556,0
54,100,0.2818181818181818,211,1,46,DL_Guitar,6,5,DL_Guitar,0.9998476505279541,1
52,100,0.1409090909090909,571,1,46,DL_Guitar,6,2,DL_Guitar,0.3367215096950531,0
52,100,0.1409090909090909,756,0,46,DL_Guitar,6,2,DL_Guitar,0.2958982586860657,0
52,100,0.11818181818181818,875,0,46,DL_Guitar,6,2,DL_Guitar,0.3008289635181427,0
57,100,0.2772727272727273,40,1,47,DL_Guitar,6,4,DL_Guitar,0.9998422861099243,1
52,100,0.2,101,0,47,DL_Guitar,6,3,DL_Guitar,0.3469609022140503,0
52,100,0.11818181818181818,523,1,47,DL_Guitar,6,2,DL_Guitar,0.291560560464859,0
52,100,0.2590909090909091,584,0,47,DL_Guitar,6,4,DL_Guitar,0.30179229378700256,0
52,100,0.42272727272727273,26,1,48,DL_Guitar,6,7,DL_Guitar,0.9996237754821777,1
57,100,0.1,361,1,48,DL_Guitar,6,2,DL_Guitar,0.5505185723304749,0
59,100,0.2772727272727273,251,1,49,DL_Guitar,6,4,DL_Guitar,0.9998424053192139,1
52,100,0.1,545,1,49,DL_Guitar,6,2,DL_Guitar,0.21227283775806427,0
56,100,0.11818181818181818,721,0,49,DL_Guitar,6,2,DL_Guitar,0.19390682876110077,0
52,100,0.2,804,0,49,DL_Guitar,6,3,DL_Guitar,0.20215380191802979,0
52,100,0.11818181818181818,866,0,49,DL_Guitar,6,2,DL_Guitar,0.19611294567584991,0
52,100,0.1409090909090909,69,1,50,DL_Guitar,6,2,DL_Guitar,0.9998452663421631,1
64,100,0.12272727272727273,123,0,50,DL_Guitar,6,2,DL_Guitar,0.20848418772220612,0
52,100,0.1,166,0,50,DL_Guitar,6,2,DL_Guitar,0.19444026052951813,0
56,100,0.1590909090909091,506,1,50,DL_Guitar,6,3,DL_Guitar,0.20023305714130402,0
56,100,0.12272727272727273,554,0,50,DL_Guitar,6,2,DL_Guitar,0.19831059873104095,0
54,100,0.6,136,1,52,DL_Guitar,6,10,DL_Guitar,0.9997857213020325,1
57,100,0.3,325,0,52,DL_Guitar,6,5,DL_Guitar,0.13250458240509033,0
59,100,0.1590909090909091,515,0,52,DL_Guitar,6,3,DL_Guitar,0.12832258641719818,0
59,100,0.1590909090909091,568,0,52,DL_Guitar,6,3,DL_Guitar,0.14040572941303253,0
54,100,0.4590909090909091,703,0,52,DL_Guitar,6,7,DL_Guitar,0.1413150131702423,0
54,100,0.3409090909090909,826,0,52,DL_Guitar,6,5,DL_Guitar,0.1373894214630127,0
54,100,0.18181818181818182,408,1,53,DL_Guitar,6,3,DL_Guitar,0.9998571872711182,1
61,100,0.22272727272727272,651,1,53,DL_Guitar,6,4,DL_Guitar,0.31705597043037415,0
61,100,0.1590909090909091,721,0,53,DL_Guitar,6,3,DL_Guitar,0.29048487544059753,0
61,100,0.1,765,0,53,DL_Guitar,6,2,DL_Guitar,0.30163878202438354,0
59,100,0.2,0,1,54,DL_Guitar,6,3,DL_Guitar,0.9998260140419006,1
61,100,0.4,206,0,54,DL_Guitar,6,6,DL_Guitar,0.4074401557445526,0
57,100,0.17727272727272728,743,1,54,DL_Guitar,6,3,DL_Guitar,0.4323973059654236,0
57,100,0.1,215,1,55,DL_Guitar,6,2,DL_Guitar,0.9998183846473694,1
52,100,0.5,678,1,55,DL_Guitar,6,8,DL_Guitar,0.4168153703212738,0
52,100,0.6181818181818182,791,0,55,DL_Guitar,6,10,DL_Guitar,0.4240012466907501,0
52,100,0.18181818181818182,136,1,56,DL_Guitar,6,3,DL_Guitar,0.9997768998146057,1
64,100,0.16363636363636364,179,0,56,DL_Guitar,6,3,DL_Guitar,0.08022472262382507,0
52,100,0.6363636363636364,391,0,56,DL_Guitar,6,10,DL_Guitar,0.0690741315484047,0
52,100,0.11818181818181818,568,0,56,DL_Guitar,6,2,DL_Guitar,0.0840369462966919,0
52,100,0.16363636363636364,598,0,56,DL_Guitar,6,3,DL_Guitar,0.08878803998231888,0
52,100,0.5590909090909091,700,0,56,DL_Guitar,6,9,DL_Guitar,0.08938851952552795,0
52,100,0.5818181818181818,839,0,56,DL_Guitar,6,9,DL_Guitar,0.08394898474216461,0
52,100,1.059090909090909,286,1,57,DL_Guitar,6,15,DL_Guitar,0.9998049139976501,1
52,100,0.4409090909090909,541,1,57,DL_Guitar,6,7,DL_Guitar,0.4397931694984436,0
52,100,0.18181818181818182,770,0,57,DL_Guitar,6,3,DL_Guitar,0.43746817111968994,0
52,100,0.12272727272727273,114,1,58,DL_Guitar,6,2,DL_Guitar,0.9998445510864258,1
52,100,0.2,603,1,58,DL_Guitar,6,3,DL_Guitar,0.402942955493927,0
52,100,0.3,678,0,58,DL_Guitar,6,5,DL_Guitar,0.41900601983070374,0
52,100,0.11818181818181818,523,1,59,DL_Guitar,6,2,DL_Guitar,0.9996613264083862,1
56,100,0.22272727272727272,606,0,59,DL_Guitar,6,4,DL_Guitar,0.5438919067382812,0
57,100,0.3,185,1,60,DL_Guitar,6,5,DL_Guitar,0.9998353719711304,1
52,100,0.18181818181818182,444,1,60,DL_Guitar,6,3,DL_Guitar,0.21380272507667542,0
52,100,0.18181818181818182,488,0,60,DL_Guitar,6,3,DL_Guitar,0.19761446118354797,0
52,100,0.4590909090909091,660,0,60,DL_Guitar,6,7,DL_Guitar,0.19552068412303925,0
52,100,0.11818181818181818,810,0,60,DL_Guitar,6,2,DL_Guitar,0.20091411471366882,0
52,100,0.2,176,1,61,DL_Guitar,6,3,DL_Guitar,0.9998409748077393,1
52,100,0.37727272727272726,361,0,61,DL_Guitar,6,6,DL_Guitar,0.20180080831050873,0
52,100,0.2590909090909091,458,0,61,DL_Guitar,6,4,DL_Guitar,0.19740158319473267,0
64,100,0.42272727272727273,563,0,61,DL_Guitar,6,7,DL_Guitar,0.1981288641691208,0
52,100,0.11818181818181818,655,0,61,DL_Guitar,6,2,DL_Guitar,0.2094828486442566,0
64,100,0.2409090909090909,603,1,62,DL_Guitar,6,4,DL_Guitar,0.9998399019241333,1
64,100,0.11818181818181818,660,0,62,DL_Guitar,6,2,DL_Guitar,0.41685062646865845,0
52,100,0.18181818181818182,751,0,62,DL_Guitar,6,3,DL_Guitar,0.4188542366027832,0
52,100,0.11818181818181818,75,1,63,DL_Guitar,6,2,DL_Guitar,0.9998375177383423,1
57,100,0.3409090909090909,246,0,63,DL_Guitar,6,5,DL_Guitar,0.3914701044559479,0
56,100,0.1590909090909091,673,1,63,DL_Guitar,6,3,DL_Guitar,0.4343530237674713,0
54,100,0.21818181818181817,260,1,64,DL_Guitar,6,3,DL_Guitar,0.999830961227417,1
66,100,0.1409090909090909,462,0,64,DL_Guitar,6,2,DL_Guitar,0.2191043496131897,0
54,100,0.4,563,0,64,DL_Guitar,6,6,DL_Guitar,0.18779481947422028,0
66,100,0.2409090909090909,695,0,64,DL_Guitar,6,4,DL_Guitar,0.22047021985054016,0
54,100,0.1409090909090909,756,0,64,DL_Guitar,6,2,DL_Guitar,0.20986177027225494,0
52,100,0.1,373,1,65,DL_Guitar,6,2,DL_Guitar,0.9996644258499146,1
52,100,0.3181818181818182,770,1,65,DL_Guitar,6,5,DL_Guitar,0.5399317145347595,0
52,100,0.16363636363636364,92,1,66,DL_Guitar,6,3,DL_Guitar,0.9997768998146057,1
52,100,0.2772727272727273,184,0,66,DL_Guitar,6,4,DL_Guitar,0.0789237767457962,0
52,100,0.2409090909090909,273,0,66,DL_Guitar,6,4,DL_Guitar,0.07224464416503906,0
52,100,0.2409090909090909,356,0,66,DL_Guitar,6,4,DL_Guitar,0.07783693820238113,0
52,100,0.13636363636363635,413,0,66,DL_Guitar,6,2,DL_Guitar,0.08710240572690964,0
64,100,0.12272727272727273,509,0,66,DL_Guitar,6,2,DL_Guitar,0.09367448836565018,0
54,100,0.3409090909090909,576,0,66,DL_Guitar,6,5,DL_Guitar,0.07913936674594879,0
52,100,0.3409090909090909,563,1,67,DL_Guitar,6,5,DL_Guitar,0.9998260140419006,1
52,100,0.2818181818181818,686,0,67,DL_Guitar,6,5,DL_Guitar,0.4270934462547302,0
52,100,0.4590909090909091,766,0,67,DL_Guitar,6,7,DL_Guitar,0.4207373261451721,0
59,100,0.18181818181818182,79,1,68,DL_Guitar,6,3,DL_Guitar,0.9996466636657715,1
52,100,0.17727272727272728,523,1,68,DL_Guitar,6,3,DL_Guitar,0.5510852932929993,0
56,100,0.11818181818181818,74,1,69,DL_Guitar,6,2,DL_Guitar,0.9998568296432495,1
59,100,0.4590909090909091,189,0,69,DL_Guitar,6,7,DL_Guitar,0.3030657470226288,0
56,100,0.4409090909090909,430,1,69,DL_Guitar,6,7,DL_Guitar,0.2952819764614105,0
52,100,0.13636363636363635,612,0,69,DL_Guitar,6,2,DL_Guitar,0.31663766503334045,0
52,100,0.1409090909090909,35,1,70,DL_Guitar,6,2,DL_Guitar,0.9998620748519897,1
54,100,0.3,140,0,70,DL_Guitar,6,5,DL_Guitar,0.3086889386177063,0
54,100,0.2409090909090909,399,1,70,DL_Guitar,6,4,DL_Guitar,0.3016578257083893,0
54,100,1.3409090909090908,747,1,70,DL_Guitar,6,15,DL_Guitar,0.28793609142303467,0
54,100,0.2409090909090909,220,1,71,DL_Guitar,6,4,DL_Guitar,0.9998376369476318,1
54,100,0.18181818181818182,286,0,71,DL_Guitar,6,3,DL_Guitar,0.2095603346824646,0
54,100,0.1,453,0,71,DL_Guitar,6,2,DL_Guitar,0.1984672248363495,0
54,100,0.1590909090909091,580,0,71,DL_Guitar,6,3,DL_Guitar,0.20219753682613373,0
61,100,0.1,796,0,71,DL_Guitar,6,2,DL_Guitar,0.20584332942962646,0
61,100,0.42272727272727273,540,1,72,DL_Guitar,6,7,DL_Guitar,0.9930399656295776,1
57,100,0.21818181818181817,242,1,73,DL_Guitar,6,3,DL_Guitar,0.992728590965271,0
52,100,0.11818181818181818,66,1,74,DL_Guitar,6,2,DL_Guitar,0.9997498393058777,1
52,100,0.2772727272727273,150,0,74,DL_Guitar,6,4,DL_Guitar,0.052722714841365814,0
52,100,0.12272727272727273,289,0,74,DL_Guitar,6,2,DL_Guitar,0.04596564546227455,0
64,100,0.1409090909090909,320,0,74,DL_Guitar,6,2,DL_Guitar,0.045187585055828094,0
52,100,0.12272727272727273,386,0,74,DL_Guitar,6,2,DL_Guitar,0.04975520819425583,0
64,100,0.13636363636363635,413,0,74,DL_Guitar,6,2,DL_Guitar,0.05529376491904259,0
52,100,0.1409090909090909,603,0,74,DL_Guitar,6,2,DL_Guitar,0.06183268502354622,0
52,100,0.2590909090909091,787,0,74,DL_Guitar,6,4,DL_Guitar,0.056798115372657776,0
52,100,0.2590909090909091,79,1,75,DL_Guitar,6,4,DL_Guitar,0.9997766613960266,1
52,100,0.11818181818181818,184,0,75,DL_Guitar,6,2,DL_Guitar,0.079851433634758,0
52,100,0.1,223,0,75,DL_Guitar,6,2,DL_Guitar,0.07154601812362671,0
52,100,0.12272727272727273,267,0,75,DL_Guitar,6,2,DL_Guitar,0.07536834478378296,0
64,100,0.11818181818181818,316,0,75,DL_Guitar,6,2,DL_Guitar,0.08494143187999725,0
52,100,0.2818181818181818,409,0,75,DL_Guitar,6,5,DL_Guitar,0.08964290469884872,0
52,100,0.22272727272727272,540,0,75,DL_Guitar,6,4,DL_Guitar,0.08247386664152145,0
52,100,0.3409090909090909,462,1,76,DL_Guitar,6,5,DL_Guitar,0.9998403787612915,1
52,100,0.12272727272727273,650,0,76,DL_Guitar,6,2,DL_Guitar,0.410432904958725,0
53,100,0.1,677,0,76,DL_Guitar,6,2,DL_Guitar,0.4217784106731415,0
64,100,0.1,576,1,77,DL_Guitar,6,2,DL_Guitar,0.9936483502388,1
54,100,0.2,360,1,78,DL_Guitar,6,3,DL_Guitar,0.9932123422622681,0
54,100,0.3,443,1,79,DL_Guitar,6,5,DL_Guitar,0.9996353387832642,1
54,100,0.3409090909090909,682,1,79,DL_Guitar,6,5,DL_Guitar,0.5479509234428406,0
69,100,0.2590909090909091,22,1,80,DL_Guitar,6,4,DL_Guitar,0.9998452663421631,1
54,100,0.12272727272727273,166,0,80,DL_Guitar,6,2,DL_Guitar,0.33291563391685486,0
54,100,0.4590909090909091,519,1,80,DL_Guitar,6,7,DL_Guitar,0.2830035090446472,0
54,100,0.1,633,0,80,DL_Guitar,6,2,DL_Guitar,0.31679031252861023,0
52,100,0.2,106,1,81,DL_Guitar,6,3,DL_Guitar,0.9998576641082764,1
56,100,0.2590909090909091,220,0,81,DL_Guitar,6,4,DL_Guitar,0.307259202003479,0
52,100,0.8818181818181818,333,0,81,DL_Guitar,6,14,DL_Guitar,0.2755013108253479,0
61,100,0.2590909090909091,760,1,81,DL_Guitar,6,4,DL_Guitar,0.3247305452823639,0
57,100,0.1409090909090909,136,1,82,DL_Guitar,6,2,DL_Guitar,0.9996978044509888,1
61,100,0.18181818181818182,246,0,82,DL_Guitar,6,3,DL_Guitar,0.04375675320625305,0
61,100,0.2772727272727273,347,0,82,DL_Guitar,6,4,DL_Guitar,0.033081602305173874,0
54,100,0.1409090909090909,553,0,82,DL_Guitar,6,2,DL_Guitar,0.03095943108201027,0
54,100,0.3,646,0,82,DL_Guitar,6,5,DL_Guitar,0.030526528134942055,0
54,100,0.1590909090909091,716,0,82,DL_Guitar,6,3,DL_Guitar,0.03562505915760994,0
57,100,0.18181818181818182,752,0,82,DL_Guitar,6,3,DL_Guitar,0.040329188108444214,0
62,100,0.1,826,0,82,DL_Guitar,6,2,DL_Guitar,0.049387913197278976,0
62,100,0.1,853,0,82,DL_Guitar,6,2,DL_Guitar,0.046691518276929855,0
54,100,0.32272727272727275,136,1,83,DL_Guitar,6,5,DL_Guitar,0.9998210072517395,1
57,100,0.4,233,0,83,DL_Guitar,6,6,DL_Guitar,0.40445590019226074,0
52,100,0.1,839,1,83,DL_Guitar,6,2,DL_Guitar,0.44479072093963623,0
52,100,0.43636363636363634,83,1,84,DL_Guitar,6,7,DL_Guitar,0.9998339414596558,1
59,100,0.1409090909090909,210,0,84,DL_Guitar,6,2,DL_Guitar,0.22095747292041779,0
64,100,0.1590909090909091,713,1,84,DL_Guitar,6,3,DL_Guitar,0.19775106012821198,0
54,100,0.1,787,0,84,DL_Guitar,6,2,DL_Guitar,0.19938264787197113,0
63,100,0.1409090909090909,836,0,84,DL_Guitar,6,2,DL_Guitar,0.1977495402097702,0
63,100,0.1,26,1,85,DL_Guitar,6,2,DL_Guitar,0.9998050332069397,1
54,100,0.1,87,0,85,DL_Guitar,6,2,DL_Guitar,0.13226811587810516,0
54,100,0.2409090909090909,163,0,85,DL_Guitar,6,4,DL_Guitar,0.1205495223402977,0
66,100,0.11818181818181818,242,0,85,DL_Guitar,6,2,DL_Guitar,0.13604308664798737,0
54,100,0.1409090909090909,299,0,85,DL_Guitar,6,2,DL_Guitar,0.14467395842075348,0
54,100,0.2,729,1,85,DL_Guitar,6,3,DL_Guitar,0.13249298930168152,0
63,100,0.2818181818181818,35,1,86,DL_Guitar,6,5,DL_Guitar,0.9998030066490173,1
63,100,0.23636363636363636,106,0,86,DL_Guitar,6,4,DL_Guitar,0.13099834322929382,0
59,100,0.1409090909090909,267,0,86,DL_Guitar,6,2,DL_Guitar,0.12562856078147888,0
66,100,0.1,619,1,86,DL_Guitar,6,2,DL_Guitar,0.13950040936470032,0
54,100,0.3,690,0,86,DL_Guitar,6,5,DL_Guitar,0.14105156064033508,0
66,100,0.18181818181818182,770,0,86,DL_Guitar,6,3,DL_Guitar,0.1358344852924347,0
52,100,0.4590909090909091,163,1,87,DL_Guitar,6,7,DL_Guitar,0.9996349811553955,1
52,100,0.1409090909090909,470,1,87,DL_Guitar,6,2,DL_Guitar,0.5557042956352234,0
61,100,0.12272727272727273,26,1,88,DL_Guitar,6,2,DL_Guitar,0.9996356964111328,1
66,100,0.1590909090909091,506,1,88,DL_Guitar,6,3,DL_Guitar,0.5521664619445801,0
54,100,0.21818181818181817,30,1,89,DL_Guitar,6,3,DL_Guitar,0.9997685551643372,1
64,100,0.11818181818181818,176,0,89,DL_Guitar,6,2,DL_Guitar,0.0817311480641365,0
64,100,0.21818181818181817,237,0,89,DL_Guitar,6,3,DL_Guitar,0.07304862886667252,0
64,100,0.11818181818181818,330,0,89,DL_Guitar,6,2,DL_Guitar,0.07957246154546738,0
52,100,0.5590909090909091,417,0,89,DL_Guitar,6,9,DL_Guitar,0.08346349745988846,0
64,100,0.1,593,0,89,DL_Guitar,6,2,DL_Guitar,0.09653107076883316,0
54,100,0.2,857,1,89,DL_Guitar,6,3,DL_Guitar,0.08258981257677078,0
63,100,0.2409090909090909,307,1,90,DL_Guitar,6,4,DL_Guitar,0.9998103976249695,1
63,100,0.37727272727272726,404,0,90,DL_Guitar,6,6,DL_Guitar,0.42283618450164795,0
59,100,0.3181818181818182,726,1,90,DL_Guitar,6,5,DL_Guitar,0.43580082058906555,0
63,100,0.1,233,1,91,DL_Guitar,6,2,DL_Guitar,0.9997313618659973,1
54,100,0.1,276,0,91,DL_Guitar,6,2,DL_Guitar,0.056129489094018936,0
64,100,0.2818181818181818,333,0,91,DL_Guitar,6,5,DL_Guitar,0.0469728484749794,0
64,100,0.12272727272727273,443,0,91,DL_Guitar,6,2,DL_Guitar,0.048474155366420746,0
52,100,0.2590909090909091,502,0,91,DL_Guitar,6,4,DL_Guitar,0.049372490495443344,0
52,100,0.2409090909090909,572,0,91,DL_Guitar,6,4,DL_Guitar,0.057897016406059265,0
52,100,0.21818181818181817,747,0,91,DL_Guitar,6,3,DL_Guitar,0.06443537026643753,0
52,100,0.2,870,0,91,DL_Guitar,6,3,DL_Guitar,0.05831585079431534,0
64,100,0.1409090909090909,206,1,92,DL_Guitar,6,2,DL_Guitar,0.9998468160629272,1
59,100,0.1590909090909091,276,0,92,DL_Guitar,6,3,DL_Guitar,0.1979442536830902,0
54,100,0.3181818181818182,436,0,92,DL_Guitar,6,5,DL_Guitar,0.19497932493686676,0
54,100,0.2409090909090909,572,0,92,DL_Guitar,6,4,DL_Guitar,0.2099260538816452,0
52,100,0.5,700,0,92,DL_Guitar,6,8,DL_Guitar,0.20213524997234344,0
54,100,0.2636363636363636,47,1,93,DL_Guitar,6,4,DL_Guitar,0.9996168613433838,1
54,100,0.18181818181818182,132,0,93,DL_Guitar,6,3,DL_Guitar,0.555146336555481,0
54,100,0.1409090909090909,110,1,94,DL_Guitar,6,2,DL_Guitar,0.9998505115509033,1
54,100,0.41818181818181815,307,0,94,DL_Guitar,6,7,DL_Guitar,0.3026440143585205,0
63,100,0.11818181818181818,612,1,94,DL_Guitar,6,2,DL_Guitar,0.30555686354637146,0
59,100,0.42272727272727273,796,0,94,DL_Guitar,6,7,DL_Guitar,0.3070893883705139,0
63,100,0.1590909090909091,206,1,95,DL_Guitar,6,3,DL_Guitar,0.9998072981834412,1
54,100,0.23636363636363636,392,0,95,DL_Guitar,6,4,DL_Guitar,0.12650801241397858,0
54,100,0.2409090909090909,475,0,95,DL_Guitar,6,4,DL_Guitar,0.12475194036960602,0
52,100,0.2590909090909091,606,0,95,DL_Guitar,6,4,DL_Guitar,0.13761964440345764,0
52,100,0.2409090909090909,716,0,95,DL_Guitar,6,4,DL_Guitar,0.14229457080364227,0
52,100,0.9181818181818182,813,0,95,DL_Guitar,6,15,DL_Guitar,0.12331734597682953,0
54,100,0.11818181818181818,176,1,96,DL_Guitar,6,2,DL_Guitar,0.9998332262039185,1
54,100,0.1409090909090909,404,0,96,DL_Guitar,6,2,DL_Guitar,0.416391521692276,0
54,100,0.12272727272727273,629,0,96,DL_Guitar,6,2,DL_Guitar,0.4234955310821533,0
54,100,0.11818181818181818,132,1,97,DL_Guitar,6,2,DL_Guitar,0.9998563528060913,1
54,100,0.1590909090909091,453,1,97,DL_Guitar,6,3,DL_Guitar,0.3181550204753876,0
54,100,0.4818181818181818,509,0,97,DL_Guitar,6,8,DL_Guitar,0.2866341471672058,0
52,100,0.4,805,1,97,DL_Guitar,6,6,DL_Guitar,0.31013765931129456,0
52,100,0.3181818181818182,153,1,98,DL_Guitar,6,5,DL_Guitar,0.9998593330383301,1
54,100,0.22272727272727272,475,1,98,DL_Guitar,6,4,DL_Guitar,0.31692928075790405,0
61,100,0.2409090909090909,650,0,98,DL_Guitar,6,4,DL_Guitar,0.28441518545150757,0
63,100,0.35909090909090907,779,0,98,DL_Guitar,6,6,DL_Guitar,0.30239975452423096,0
56,100,0.2409090909090909,9,1,99,DL_Guitar,6,4,DL_Guitar,0.9998000264167786,1
63,100,0.1409090909090909,74,0,99,DL_Guitar,6,2,DL_Guitar,0.13013696670532227,0
59,100,0.1590909090909091,119,0,99,DL_Guitar,6,3,DL_Guitar,0.12259285151958466,0
63,100,0.5818181818181818,176,0,99,DL_Guitar,6,9,DL_Guitar,0.12727977335453033,0
63,100,0.6181818181818182,527,1,99,DL_Guitar,6,10,DL_Guitar,0.14480489492416382,0
63,100,0.41818181818181815,722,0,99,DL_Guitar,6,7,DL_Guitar,0.1510365754365921,0
52,100,0.3409090909090909,849,1,100,DL_Guitar,6,5,DL_Guitar,0.9930003881454468,0
61,100,0.3,136,1,101,DL_Guitar,6,5,DL_Guitar,0.999847412109375,1
54,100,0.23636363636363636,282,0,101,DL_Guitar,6,4,DL_Guitar,0.32556164264678955,0
54,100,0.4590909090909091,624,1,101,DL_Guitar,6,7,DL_Guitar,0.29344654083251953,0
54,100,0.5590909090909091,787,0,101,DL_Guitar,6,9,DL_Guitar,0.3131496012210846,0
54,100,0.1,153,1,102,DL_Guitar,6,2,DL_Guitar,0.9935035109519958,0
54,100,0.1409090909090909,92,1,103,DL_Guitar,6,2,DL_Guitar,0.9998353719711304,1
66,100,0.2409090909090909,307,0,103,DL_Guitar,6,4,DL_Guitar,0.19835908710956573,0
63,100,0.38181818181818183,386,0,103,DL_Guitar,6,6,DL_Guitar,0.19997833669185638,0
54,100,0.21818181818181817,527,0,103,DL_Guitar,6,3,DL_Guitar,0.2098279595375061,0
54,100,0.11818181818181818,832,1,103,DL_Guitar,6,2,DL_Guitar,0.21536928415298462,0
59,100,0.12272727272727273,267,1,104,DL_Guitar,6,2,DL_Guitar,0.9998282194137573,1
59,100,0.7227272727272728,343,0,104,DL_Guitar,6,12,DL_Guitar,0.38674357533454895,0
54,100,0.1409090909090909,550,0,104,DL_Guitar,6,2,DL_Guitar,0.4470323324203491,0
54,100,0.3,100,1,105,DL_Guitar,6,5,DL_Guitar,0.9998507499694824,1
54,100,0.2772727272727273,172,0,105,DL_Guitar,6,4,DL_Guitar,0.32568997144699097,0
66,100,0.2,487,1,105,DL_Guitar,6,3,DL_Guitar,0.29156726598739624,0
63,100,0.2818181818181818,739,1,105,DL_Guitar,6,5,DL_Guitar,0.30325642228126526,0
64,100,0.3409090909090909,110,1,106,DL_Guitar,6,5,DL_Guitar,0.9997707009315491,1
64,100,0.11818181818181818,250,0,106,DL_Guitar,6,2,DL_Guitar,0.08408595621585846,0
64,100,0.11818181818181818,303,0,106,DL_Guitar,6,2,DL_Guitar,0.07241754233837128,0
64,100,0.12272727272727273,365,0,106,DL_Guitar,6,2,DL_Guitar,0.08064913004636765,0
66,100,0.1,567,0,106,DL_Guitar,6,2,DL_Guitar,0.08686736226081848,0
66,100,0.4,593,0,106,DL_Guitar,6,6,DL_Guitar,0.08805425465106964,0
66,100,0.1409090909090909,747,0,106,DL_Guitar,6,2,DL_Guitar,0.08853521198034286,0
66,100,0.1,330,1,107,DL_Guitar,6,2,DL_Guitar,0.9998594522476196,1
64,100,0.2818181818181818,386,0,107,DL_Guitar,6,5,DL_Guitar,0.32021674513816833,0
63,100,0.1,633,1,107,DL_Guitar,6,2,DL_Guitar,0.2838498055934906,0
54,100,0.4818181818181818,760,0,107,DL_Guitar,6,8,DL_Guitar,0.29988089203834534,0
54,100,0.12272727272727273,3,1,108,DL_Guitar,6,2,DL_Guitar,0.9998352527618408,1
54,100,0.759090909090909,123,0,108,DL_Guitar,6,12,DL_Guitar,0.18926239013671875,0
64,100,0.2409090909090909,726,1,108,DL_Guitar,6,4,DL_Guitar,0.21811529994010925,0
64,100,0.1409090909090909,792,0,108,DL_Guitar,6,2,DL_Guitar,0.2100471556186676,0
66,100,0.13636363636363635,832,0,108,DL_Guitar,6,2,DL_Guitar,0.20149558782577515,0
66,100,0.11818181818181818,216,1,109,DL_Guitar,6,2,DL_Guitar,0.9997668862342834,1
56,100,0.4,316,0,109,DL_Guitar,6,6,DL_Guitar,0.07683657854795456,0
66,100,0.2,449,0,109,DL_Guitar,6,3,DL_Guitar,0.07394734025001526,0
66,100,0.18181818181818182,509,0,109,DL_Guitar,6,3,DL_Guitar,0.08142358064651489,0
63,100,0.3181818181818182,593,0,109,DL_Guitar,6,5,DL_Guitar,0.0836210697889328,0
63,100,0.13636363636363635,677,0,109,DL_Guitar,6,2,DL_Guitar,0.10390902310609818,0
54,100,0.11818181818181818,770,0,109,DL_Guitar,6,2,DL_Guitar,0.09001719206571579,0
63,100,0.1409090909090909,87,1,110,DL_Guitar,6,2,DL_Guitar,0.9998018145561218,1
63,100,0.18181818181818182,153,0,110,DL_Guitar,6,3,DL_Guitar,0.1283046156167984,0
54,100,0.12272727272727273,320,0,110,DL_Guitar,6,2,DL_Guitar,0.12343423068523407,0
63,100,0.1409090909090909,383,0,110,DL_Guitar,6,2,DL_Guitar,0.13046056032180786,0
59,100,0.1590909090909091,563,0,110,DL_Guitar,6,3,DL_Guitar,0.14584359526634216,0
63,100,0.12272727272727273,752,0,110,DL_Guitar,6,2,DL_Guitar,0.13841009140014648,0
54,100,0.2590909090909091,83,1,111,DL_Guitar,6,4,DL_Guitar,0.9998416900634766,1
54,100,0.5590909090909091,220,0,111,DL_Guitar,6,9,DL_Guitar,0.312404602766037,0
61,100,0.38181818181818183,475,1,111,DL_Guitar,6,6,DL_Guitar,0.3006387948989868,0
54,100,0.18181818181818182,637,0,111,DL_Guitar,6,3,DL_Guitar,0.31473666429519653,0
66,100,0.1409090909090909,140,1,112,DL_Guitar,6,2,DL_Guitar,0.9998296499252319,1
66,100,0.1,282,0,112,DL_Guitar,6,2,DL_Guitar,0.4110919237136841,0
54,100,0.32272727272727275,422,0,112,DL_Guitar,6,5,DL_Guitar,0.42389529943466187,0
54,100,0.18181818181818182,255,1,113,DL_Guitar,6,3,DL_Guitar,0.9998058676719666,1
54,100,0.18181818181818182,299,0,113,DL_Guitar,6,3,DL_Guitar,0.12753421068191528,0
66,100,0.21818181818181817,352,0,113,DL_Guitar,6,3,DL_Guitar,0.11903783679008484,0
54,100,0.22272727272727272,409,0,113,DL_Guitar,6,4,DL_Guitar,0.13458354771137238,0
66,100,0.11818181818181818,457,0,113,DL_Guitar,6,2,DL_Guitar,0.1425572633743286,0
59,100,0.12272727272727273,496,0,113,DL_Guitar,6,2,DL_Guitar,0.13176435232162476,0
54,100,0.2,0,1,21,_Remix_Guitar,6,3,_Remix_Guitar,0.9998302459716797,1
54,100,0.1,712,1,21,_Remix_Guitar,6,2,_Remix_Guitar,0.42020657658576965,0
54,100,0.22272727272727272,752,0,21,_Remix_Guitar,6,4,_Remix_Guitar,0.42381834983825684,0
53,100,0.6,814,1,23,_Remix_Guitar,6,10,_Remix_Guitar,0.9925239682197571,0
53,100,0.18181818181818182,113,1,24,_Remix_Guitar,6,3,_Remix_Guitar,0.9998338222503662,1
53,100,0.8,272,0,24,_Remix_Guitar,6,13,_Remix_Guitar,0.3789446949958801,0
53,100,0.12272727272727273,509,1,24,_Remix_Guitar,6,2,_Remix_Guitar,0.44794756174087524,0
54,100,0.8818181818181818,113,1,25,_Remix_Guitar,6,14,_Remix_Guitar,0.9921759963035583,0
54,100,0.1409090909090909,13,1,27,_Remix_Guitar,6,2,_Remix_Guitar,0.9998575448989868,1
54,100,0.2,347,1,27,_Remix_Guitar,6,3,_Remix_Guitar,0.32140761613845825,0
54,100,0.17727272727272728,801,1,27,_Remix_Guitar,6,3,_Remix_Guitar,0.293810099363327,0
54,100,0.3,849,0,27,_Remix_Guitar,6,5,_Remix_Guitar,0.30003485083580017,0
54,100,0.2409090909090909,373,1,89,_Remix_Guitar,6,4,_Remix_Guitar,0.9998531341552734,1
54,100,0.2590909090909091,475,0,89,_Remix_Guitar,6,4,_Remix_Guitar,0.3263827860355377,0
54,100,0.2818181818181818,663,0,89,_Remix_Guitar,6,5,_Remix_Guitar,0.2892787456512451,0
54,100,0.2,857,0,89,_Remix_Guitar,6,3,_Remix_Guitar,0.3041812777519226,0
54,100,0.1590909090909091,184,1,90,_Remix_Guitar,6,3,_Remix_Guitar,0.999840259552002,1
54,100,0.3409090909090909,267,0,90,_Remix_Guitar,6,5,_Remix_Guitar,0.20299701392650604,0
54,100,0.1,392,0,90,_Remix_Guitar,6,2,_Remix_Guitar,0.20179696381092072,0
54,100,0.21818181818181817,462,0,90,_Remix_Guitar,6,3,_Remix_Guitar,0.20968231558799744,0
54,100,0.37727272727272726,523,0,90,_Remix_Guitar,6,6,_Remix_Guitar,0.20287439227104187,0
54,100,0.2,356,1,91,_Remix_Guitar,6,3,_Remix_Guitar,0.9996408224105835,1
56,100,0.1409090909090909,616,1,91,_Remix_Guitar,6,2,_Remix_Guitar,0.548043429851532,0
56,100,0.13636363636363635,216,1,92,_Remix_Guitar,6,2,_Remix_Guitar,0.9932522177696228,1
53,100,0.2409090909090909,580,1,93,_Remix_Guitar,6,4,_Remix_Guitar,0.9931727051734924,0
54,100,0.11818181818181818,140,1,94,_Remix_Guitar,6,2,_Remix_Guitar,0.9998539686203003,1
54,100,0.3,466,1,94,_Remix_Guitar,6,5,_Remix_Guitar,0.32630327343940735,0
55,100,0.1,826,1,94,_Remix_Guitar,6,2,_Remix_Guitar,0.28589704632759094,0
54,100,0.1590909090909091,870,0,94,_Remix_Guitar,6,3,_Remix_Guitar,0.30330678820610046,0
56,100,0.1590909090909091,263,1,95,_Remix_Guitar,6,3,_Remix_Guitar,0.9998421669006348,1
54,100,0.11818181818181818,396,0,95,_Remix_Guitar,6,2,_Remix_Guitar,0.2090698778629303,0
54,100,0.1409090909090909,716,1,95,_Remix_Guitar,6,2,_Remix_Guitar,0.19969186186790466,0
54,100,0.1409090909090909,760,0,95,_Remix_Guitar,6,2,_Remix_Guitar,0.20564831793308258,0
56,100,0.17727272727272728,832,0,95,_Remix_Guitar,6,3,_Remix_Guitar,0.19619524478912354,0
61,100,0.41818181818181815,39,1,15,DL_deepemotion_Guitar,6,7,DL_deepemotion_Guitar,0.9928314685821533,0
54,100,0.2,712,1,17,DL_deepemotion_Guitar,6,3,DL_deepemotion_Guitar,0.9996190071105957,1
56,100,0.7,801,0,17,DL_deepemotion_Guitar,6,11,DL_deepemotion_Guitar,0.5348168611526489,0
56,100,0.2,83,1,18,DL_deepemotion_Guitar,6,3,DL_deepemotion_Guitar,0.9930617213249207,0
54,100,0.4818181818181818,34,1,20,DL_deepemotion_Guitar,6,8,DL_deepemotion_Guitar,0.9996017813682556,1
54,100,0.22272727272727272,179,0,20,DL_deepemotion_Guitar,6,4,DL_deepemotion_Guitar,0.5583922266960144,0
54,100,0.32272727272727275,409,1,21,DL_deepemotion_Guitar,6,5,DL_deepemotion_Guitar,0.9931892156600952,0
54,100,0.11818181818181818,326,1,22,DL_deepemotion_Guitar,6,2,DL_deepemotion_Guitar,0.9932733774185181,0
63,100,0.2818181818181818,189,1,23,DL_deepemotion_Guitar,6,5,DL_deepemotion_Guitar,0.9996218681335449,1
61,100,0.1409090909090909,866,1,23,DL_deepemotion_Guitar,6,2,DL_deepemotion_Guitar,0.5548323392868042,0
54,100,0.11818181818181818,326,1,24,DL_deepemotion_Guitar,6,2,DL_deepemotion_Guitar,0.9932733774185181,0
59,100,0.740909090909091,65,1,25,DL_deepemotion_Guitar,6,12,DL_deepemotion_Guitar,0.9998360872268677,1
59,100,0.11818181818181818,295,0,25,DL_deepemotion_Guitar,6,2,DL_deepemotion_Guitar,0.35250532627105713,0
56,100,0.11818181818181818,656,1,25,DL_deepemotion_Guitar,6,2,DL_deepemotion_Guitar,0.30142664909362793,0
56,100,0.2818181818181818,818,0,25,DL_deepemotion_Guitar,6,5,DL_deepemotion_Guitar,0.3046104907989502,0
56,100,0.37727272727272726,61,1,26,DL_deepemotion_Guitar,6,6,DL_deepemotion_Guitar,0.9996107220649719,1
56,100,0.2409090909090909,223,0,26,DL_deepemotion_Guitar,6,4,DL_deepemotion_Guitar,0.5573743581771851,0
62,100,0.18181818181818182,202,1,27,DL_deepemotion_Guitar,6,3,DL_deepemotion_Guitar,0.9931954145431519,1
63,100,0.23636363636363636,810,1,28,DL_deepemotion_Guitar,6,4,DL_deepemotion_Guitar,0.9930776357650757,0
52,100,0.11818181818181818,382,1,29,DL_deepemotion_Guitar,6,2,DL_deepemotion_Guitar,0.9998650550842285,1
54,100,0.12272727272727273,422,0,29,DL_deepemotion_Guitar,6,2,DL_deepemotion_Guitar,0.309565007686615,0
66,100,0.12272727272727273,453,0,29,DL_deepemotion_Guitar,6,2,DL_deepemotion_Guitar,0.2918950319290161,0
54,100,0.2,567,0,29,DL_deepemotion_Guitar,6,3,DL_deepemotion_Guitar,0.2997775971889496,0
53,100,0.12272727272727273,400,1,0,_Guitar,6,2,_Guitar,0.9998420476913452,1
60,100,0.1,686,1,0,_Guitar,6,2,_Guitar,0.4099798798561096,0
60,100,0.6772727272727272,713,0,0,_Guitar,6,11,_Guitar,0.4116431772708893,0
53,100,0.12272727272727273,597,1,1,_Guitar,6,2,_Guitar,0.9996523857116699,1
60,100,0.2,651,0,1,_Guitar,6,3,_Guitar,0.550213098526001,0
60,100,0.12272727272727273,254,1,3,_Guitar,6,2,_Guitar,0.9998612403869629,1
62,100,0.1590909090909091,387,0,3,_Guitar,6,3,_Guitar,0.3071599006652832,0
55,100,0.4409090909090909,660,1,3,_Guitar,6,7,_Guitar,0.2800297141075134,0
55,100,0.1409090909090909,773,0,3,_Guitar,6,2,_Guitar,0.30864691734313965,0
60,100,1.7772727272727273,228,1,4,_Guitar,6,15,_Guitar,0.9994169473648071,1
60,100,2.081818181818182,672,1,4,_Guitar,6,15,_Guitar,0.5615999698638916,0
53,100,0.2636363636363636,289,1,5,_Guitar,6,4,_Guitar,0.999835729598999,1
65,100,0.11818181818181818,527,1,5,_Guitar,6,2,_Guitar,0.20510239899158478,0
58,100,0.38181818181818183,585,0,5,_Guitar,6,6,_Guitar,0.18538013100624084,0
53,100,0.17727272727272728,744,0,5,_Guitar,6,3,_Guitar,0.23150531947612762,0
53,100,0.2590909090909091,788,0,5,_Guitar,6,4,_Guitar,0.20388391613960266,0
60,100,0.2409090909090909,554,1,6,_Guitar,6,4,_Guitar,0.9998394250869751,1
53,100,0.1409090909090909,682,0,6,_Guitar,6,2,_Guitar,0.41085079312324524,0
53,100,0.7,805,0,6,_Guitar,6,11,_Guitar,0.4106897711753845,0
53,100,0.3181818181818182,150,1,7,_Guitar,6,5,_Guitar,0.9998370409011841,1
65,100,0.2818181818181818,224,0,7,_Guitar,6,5,_Guitar,0.20964303612709045,0
57,100,0.2590909090909091,307,0,7,_Guitar,6,4,_Guitar,0.18498536944389343,0
60,100,0.1409090909090909,452,0,7,_Guitar,6,2,_Guitar,0.22110506892204285,0
53,100,0.2,713,1,7,_Guitar,6,3,_Guitar,0.20022447407245636,0
53,100,0.11818181818181818,8,1,8,_Guitar,6,2,_Guitar,0.999810516834259,1
60,100,0.1590909090909091,118,0,8,_Guitar,6,3,_Guitar,0.12494375556707382,0
58,100,0.17727272727272728,194,0,8,_Guitar,6,3,_Guitar,0.11479230225086212,0
53,100,0.12272727272727273,312,0,8,_Guitar,6,2,_Guitar,0.1411726027727127,0
60,100,0.2409090909090909,713,1,8,_Guitar,6,4,_Guitar,0.14166319370269775,0
55,100,0.2590909090909091,787,0,8,_Guitar,6,4,_Guitar,0.12654435634613037,0
60,100,0.35909090909090907,211,1,9,_Guitar,6,6,_Guitar,0.9998354911804199,1
60,100,0.12272727272727273,333,0,9,_Guitar,6,2,_Guitar,0.2158314287662506,0
53,100,0.1590909090909091,558,0,9,_Guitar,6,3,_Guitar,0.193314328789711,0
53,100,0.1590909090909091,603,0,9,_Guitar,6,3,_Guitar,0.20671755075454712,0
60,100,0.3181818181818182,756,0,9,_Guitar,6,5,_Guitar,0.20378272235393524,0
53,100,0.5590909090909091,84,1,10,_Guitar,6,9,_Guitar,0.9998294115066528,1
53,100,0.3,276,0,10,_Guitar,6,5,_Guitar,0.21629227697849274,0
53,100,0.1,479,0,10,_Guitar,6,2,_Guitar,0.20768146216869354,0
69,100,0.2,668,0,10,_Guitar,6,3,_Guitar,0.20195303857326508,0
69,100,0.6409090909090909,756,0,10,_Guitar,6,10,_Guitar,0.20364879071712494,0
69,100,0.16363636363636364,202,1,11,_Guitar,6,3,_Guitar,0.9998341798782349,1
53,100,0.16363636363636364,443,1,11,_Guitar,6,3,_Guitar,0.22193299233913422,0
60,100,0.2818181818181818,527,0,11,_Guitar,6,5,_Guitar,0.1913202702999115,0
53,100,0.3181818181818182,594,0,11,_Guitar,6,5,_Guitar,0.21580682694911957,0
60,100,1.4772727272727273,721,0,11,_Guitar,6,15,_Guitar,0.19442258775234222,0
53,100,0.18181818181818182,180,1,12,_Guitar,6,3,_Guitar,0.9998350143432617,1
72,100,0.3,536,1,12,_Guitar,6,5,_Guitar,0.40376904606819153,0
65,100,0.11818181818181818,634,0,12,_Guitar,6,2,_Guitar,0.4275662302970886,0
53,100,0.22272727272727272,13,1,13,_Guitar,6,4,_Guitar,0.9998096823692322,1
53,100,0.12272727272727273,79,0,13,_Guitar,6,2,_Guitar,0.12471254914999008,0
60,100,0.6,154,0,13,_Guitar,6,10,_Guitar,0.11280115693807602,0
65,100,0.12272727272727273,453,1,13,_Guitar,6,2,_Guitar,0.14225465059280396,0
60,100,0.11818181818181818,615,0,13,_Guitar,6,2,_Guitar,0.1446705460548401,0
53,100,0.13636363636363635,831,0,13,_Guitar,6,2,_Guitar,0.12660528719425201,0
53,100,0.4590909090909091,166,1,14,_Guitar,6,7,_Guitar,0.9998331069946289,1
60,100,0.12272727272727273,290,0,14,_Guitar,6,2,_Guitar,0.22097903490066528,0
60,100,0.1,567,1,14,_Guitar,6,2,_Guitar,0.19683952629566193,0
60,100,0.11818181818181818,699,0,14,_Guitar,6,2,_Guitar,0.20751658082008362,0
60,100,0.11818181818181818,766,0,14,_Guitar,6,2,_Guitar,0.19760960340499878,0
60,100,0.2409090909090909,312,1,15,_Guitar,6,4,_Guitar,0.9998161196708679,1
60,100,0.1409090909090909,400,0,15,_Guitar,6,2,_Guitar,0.1264161616563797,0
60,100,0.12272727272727273,496,0,15,_Guitar,6,2,_Guitar,0.11852321773767471,0
60,100,0.5590909090909091,615,0,15,_Guitar,6,9,_Guitar,0.1251690536737442,0
53,100,0.1409090909090909,792,0,15,_Guitar,6,2,_Guitar,0.14297516644001007,0
53,100,0.2590909090909091,857,0,15,_Guitar,6,4,_Guitar,0.12767331302165985,0
60,100,0.22272727272727272,100,1,16,_Guitar,6,4,_Guitar,0.9997435212135315,1
60,100,0.18181818181818182,233,0,16,_Guitar,6,3,_Guitar,0.05425069481134415,0
53,100,0.21818181818181817,281,0,16,_Guitar,6,3,_Guitar,0.04599757492542267,0
60,100,0.2590909090909091,351,0,16,_Guitar,6,4,_Guitar,0.04686889424920082,0
60,100,0.41818181818181815,550,0,16,_Guitar,6,7,_Guitar,0.05177558958530426,0
60,100,0.1409090909090909,673,0,16,_Guitar,6,2,_Guitar,0.06034405156970024,0
57,100,0.11818181818181818,721,0,16,_Guitar,6,2,_Guitar,0.06511866301298141,0
60,100,0.35909090909090907,831,0,16,_Guitar,6,6,_Guitar,0.05788625404238701,0
60,100,0.2409090909090909,119,1,17,_Guitar,6,4,_Guitar,0.999776303768158,1
65,100,0.18181818181818182,198,0,17,_Guitar,6,3,_Guitar,0.07920599728822708,0
65,100,0.11818181818181818,264,0,17,_Guitar,6,2,_Guitar,0.07206809520721436,0
57,100,1.1772727272727272,316,0,17,_Guitar,6,15,_Guitar,0.06850747019052505,0
57,100,0.2409090909090909,650,1,17,_Guitar,6,4,_Guitar,0.10193848609924316,0
57,100,0.4409090909090909,739,0,17,_Guitar,6,7,_Guitar,0.09815432876348495,0
53,100,0.2,858,0,17,_Guitar,6,3,_Guitar,0.09303761273622513,0
53,100,0.21818181818181817,30,1,18,_Guitar,6,3,_Guitar,0.9998371601104736,1
58,100,0.4,175,0,18,_Guitar,6,6,_Guitar,0.19330912828445435,0
58,100,0.38181818181818183,268,0,18,_Guitar,6,6,_Guitar,0.19514100253582,0
60,100,0.5409090909090909,615,1,18,_Guitar,6,9,_Guitar,0.22608858346939087,0
60,100,0.21818181818181817,756,0,18,_Guitar,6,3,_Guitar,0.22103773057460785,0
60,100,0.22272727272727272,233,1,19,_Guitar,6,4,_Guitar,0.9996447563171387,1
55,100,0.18181818181818182,299,0,19,_Guitar,6,3,_Guitar,0.5438858866691589,0
55,100,0.11818181818181818,281,1,20,_Guitar,6,2,_Guitar,0.999835729598999,1
60,100,0.2,378,0,20,_Guitar,6,3,_Guitar,0.22137171030044556,0
60,100,0.3,430,0,20,_Guitar,6,5,_Guitar,0.19983835518360138,0
53,100,0.11818181818181818,581,0,20,_Guitar,6,2,_Guitar,0.20997202396392822,0
58,100,0.7818181818181819,619,0,20,_Guitar,6,13,_Guitar,0.1899295300245285,0
53,100,0.2409090909090909,44,1,21,_Guitar,6,4,_Guitar,0.9998075366020203,1
53,100,0.17727272727272728,119,0,21,_Guitar,6,3,_Guitar,0.12577566504478455,0
60,100,0.6,206,0,21,_Guitar,6,10,_Guitar,0.11598411947488785,0
58,100,0.3409090909090909,399,0,21,_Guitar,6,5,_Guitar,0.1284901350736618,0
53,100,0.1590909090909091,546,0,21,_Guitar,6,3,_Guitar,0.15339389443397522,0
60,100,0.1,646,0,21,_Guitar,6,2,_Guitar,0.13631002604961395,0
53,100,0.12272727272727273,13,1,22,_Guitar,6,2,_Guitar,0.9997429251670837,1
60,100,0.41818181818181815,119,0,22,_Guitar,6,7,_Guitar,0.05349912866950035,0
65,100,0.1590909090909091,241,0,22,_Guitar,6,3,_Guitar,0.0470891073346138,0
60,100,0.12272727272727273,378,0,22,_Guitar,6,2,_Guitar,0.046782877296209335,0
60,100,0.2818181818181818,474,0,22,_Guitar,6,5,_Guitar,0.04805563762784004,0
65,100,0.18181818181818182,650,0,22,_Guitar,6,3,_Guitar,0.059288498014211655,0
53,100,0.2590909090909091,691,0,22,_Guitar,6,4,_Guitar,0.06516838073730469,0
53,100,0.4409090909090909,752,0,22,_Guitar,6,7,_Guitar,0.060610637068748474,0
53,100,0.17727272727272728,96,1,23,_Guitar,6,3,_Guitar,0.9998334646224976,1
60,100,0.7181818181818181,602,1,23,_Guitar,6,11,_Guitar,0.3912529945373535,0
57,100,0.2590909090909091,791,0,23,_Guitar,6,4,_Guitar,0.43220481276512146,0
57,100,0.21818181818181817,9,1,24,_Guitar,6,3,_Guitar,0.9997969269752502,1
57,100,0.11818181818181818,131,0,24,_Guitar,6,2,_Guitar,0.13252681493759155,0
57,100,0.2,343,0,24,_Guitar,6,3,_Guitar,0.12140451371669769,0
60,100,0.11818181818181818,492,0,24,_Guitar,6,2,_Guitar,0.14458796381950378,0
57,100,0.3,598,0,24,_Guitar,6,5,_Guitar,0.1378510743379593,0
57,100,0.8636363636363636,796,0,24,_Guitar,6,14,_Guitar,0.12673614919185638,0
57,100,0.11818181818181818,110,1,25,_Guitar,6,2,_Guitar,0.9998021721839905,1
62,100,0.2,422,1,25,_Guitar,6,3,_Guitar,0.1276431530714035,0
53,100,0.2409090909090909,563,0,25,_Guitar,6,4,_Guitar,0.11638309061527252,0
60,100,0.2818181818181818,663,0,25,_Guitar,6,5,_Guitar,0.1387876272201538,0
60,100,0.2,787,0,25,_Guitar,6,3,_Guitar,0.14255277812480927,0
53,100,0.18181818181818182,839,0,25,_Guitar,6,3,_Guitar,0.1315155029296875,0
53,100,0.22272727272727272,34,1,26,_Guitar,6,4,_Guitar,0.9998335838317871,1
58,100,0.7181818181818181,229,0,26,_Guitar,6,11,_Guitar,0.18947862088680267,0
58,100,0.2818181818181818,395,0,26,_Guitar,6,5,_Guitar,0.22143065929412842,0
58,100,0.1409090909090909,466,0,26,_Guitar,6,2,_Guitar,0.22738975286483765,0
58,100,0.1,567,0,26,_Guitar,6,2,_Guitar,0.2113254964351654,0
58,100,0.11818181818181818,0,1,27,_Guitar,6,2,_Guitar,0.9997976422309875,1
58,100,0.6818181818181818,34,0,27,_Guitar,6,11,_Guitar,0.40583816170692444,0
58,100,0.7,413,1,27,_Guitar,6,11,_Guitar,0.4464320242404938,0
55,100,0.37727272727272726,480,1,28,_Guitar,6,6,_Guitar,0.9995842576026917,1
55,100,0.9,625,0,28,_Guitar,6,14,_Guitar,0.5403653383255005,0
55,100,0.41818181818181815,154,1,29,_Guitar,6,7,_Guitar,0.9998372793197632,1
60,100,0.11818181818181818,264,0,29,_Guitar,6,2,_Guitar,0.3515220880508423,0
65,100,0.13636363636363635,523,1,29,_Guitar,6,2,_Guitar,0.2905535399913788,0
60,100,0.3409090909090909,773,1,29,_Guitar,6,5,_Guitar,0.30570363998413086,0
60,100,0.4409090909090909,92,1,30,_Guitar,6,7,_Guitar,0.9998281002044678,1
60,100,0.33636363636363636,546,1,30,_Guitar,6,5,_Guitar,0.41307538747787476,0
53,100,0.2590909090909091,673,0,30,_Guitar,6,4,_Guitar,0.4286869466304779,0
60,100,0.37727272727272726,326,1,31,_Guitar,6,6,_Guitar,0.9998238682746887,1
60,100,0.759090909090909,449,0,31,_Guitar,6,12,_Guitar,0.3967294692993164,0
53,100,0.18181818181818182,858,1,31,_Guitar,6,3,_Guitar,0.44483840465545654,0
58,100,0.2818181818181818,254,1,32,_Guitar,6,5,_Guitar,0.999747097492218,1
60,100,0.38181818181818183,334,0,32,_Guitar,6,6,_Guitar,0.08730106055736542,0
58,100,0.17727272727272728,448,0,32,_Guitar,6,3,_Guitar,0.07028867304325104,0
58,100,0.1409090909090909,493,0,32,_Guitar,6,2,_Guitar,0.08215048164129257,0
53,100,0.2818181818181818,716,0,32,_Guitar,6,5,_Guitar,0.09603036940097809,0
60,100,0.1409090909090909,823,0,32,_Guitar,6,2,_Guitar,0.09981351345777512,0
53,100,0.22272727272727272,871,0,32,_Guitar,6,4,_Guitar,0.08873018622398376,0
60,100,0.1409090909090909,188,1,33,_Guitar,6,2,_Guitar,0.9996562004089355,1
60,100,0.2590909090909091,826,1,33,_Guitar,6,4,_Guitar,0.5438645482063293,0
55,100,0.21818181818181817,215,1,34,_Guitar,6,3,_Guitar,0.999808132648468,1
60,100,0.6227272727272727,563,1,34,_Guitar,6,10,_Guitar,0.40972158312797546,0
53,100,0.17727272727272728,721,0,34,_Guitar,6,3,_Guitar,0.4495241045951843,0
60,100,0.11818181818181818,153,1,35,_Guitar,6,2,_Guitar,0.999665379524231,1
60,100,0.1590909090909091,810,1,35,_Guitar,6,3,_Guitar,0.5452269911766052,0
60,100,0.4818181818181818,298,1,36,_Guitar,6,8,_Guitar,0.9998353719711304,1
53,100,0.1590909090909091,474,0,36,_Guitar,6,3,_Guitar,0.20538277924060822,0
60,100,0.5227272727272727,554,0,36,_Guitar,6,8,_Guitar,0.19681739807128906,0
69,100,0.1,703,0,36,_Guitar,6,2,_Guitar,0.21025201678276062,0
60,100,0.3181818181818182,823,0,36,_Guitar,6,5,_Guitar,0.20650646090507507,0
60,100,0.17727272727272728,18,1,37,_Guitar,6,3,_Guitar,0.9998595714569092,1
53,100,0.2409090909090909,286,1,37,_Guitar,6,4,_Guitar,0.3119189441204071,0
53,100,0.1590909090909091,493,0,37,_Guitar,6,3,_Guitar,0.2891681492328644,0
60,100,0.1409090909090909,668,0,37,_Guitar,6,2,_Guitar,0.3018145263195038,0
53,100,0.1590909090909091,21,1,38,_Guitar,6,3,_Guitar,0.9998443126678467,1
65,100,0.18181818181818182,78,0,38,_Guitar,6,3,_Guitar,0.20495916903018951,0
53,100,0.1409090909090909,444,1,38,_Guitar,6,2,_Guitar,0.1918594390153885,0
53,100,0.2590909090909091,716,1,38,_Guitar,6,4,_Guitar,0.2029956579208374,0
53,100,0.16363636363636364,861,0,38,_Guitar,6,3,_Guitar,0.2003011703491211,0
53,100,0.2818181818181818,34,1,39,_Guitar,6,5,_Guitar,0.9998304843902588,1
60,100,0.21818181818181817,131,0,39,_Guitar,6,3,_Guitar,0.4129992723464966,0
60,100,0.22272727272727272,431,1,39,_Guitar,6,4,_Guitar,0.4273291528224945,0
60,100,0.3,69,1,40,_Guitar,6,5,_Guitar,0.9998302459716797,1
58,100,0.1409090909090909,356,1,40,_Guitar,6,2,_Guitar,0.39879775047302246,0
53,100,0.2409090909090909,708,1,40,_Guitar,6,4,_Guitar,0.43838968873023987,0
58,100,0.36363636363636365,26,1,41,_Guitar,6,6,_Guitar,0.9998061060905457,1
58,100,0.35909090909090907,303,1,41,_Guitar,6,6,_Guitar,0.2123962789773941,0
53,100,0.3181818181818182,506,0,41,_Guitar,6,5,_Guitar,0.220861554145813,0
60,100,0.11818181818181818,581,0,41,_Guitar,6,2,_Guitar,0.21970362961292267,0
57,100,0.2409090909090909,735,0,41,_Guitar,6,4,_Guitar,0.2105930596590042,0
53,100,0.1409090909090909,351,1,43,_Guitar,6,2,_Guitar,0.9998575448989868,1
53,100,0.17727272727272728,611,1,43,_Guitar,6,3,_Guitar,0.31806910037994385,0
53,100,0.11818181818181818,770,0,43,_Guitar,6,2,_Guitar,0.2919824421405792,0
60,100,0.1,826,0,43,_Guitar,6,2,_Guitar,0.30352938175201416,0
53,100,0.3181818181818182,96,1,44,_Guitar,6,5,_Guitar,0.9998319149017334,1
60,100,0.3409090909090909,166,0,44,_Guitar,6,5,_Guitar,0.4085697829723358,0
60,100,0.3409090909090909,444,1,44,_Guitar,6,5,_Guitar,0.4279538691043854,0
53,100,0.11818181818181818,480,1,45,_Guitar,6,2,_Guitar,0.993541955947876,0
53,100,0.3181818181818182,88,1,46,_Guitar,6,5,_Guitar,0.9996285438537598,1
62,100,0.18181818181818182,373,1,46,_Guitar,6,3,_Guitar,0.555294394493103,0
60,100,0.8,166,1,47,_Guitar,6,13,_Guitar,0.9923936128616333,0
60,100,0.18181818181818182,254,1,48,_Guitar,6,3,_Guitar,0.9998592138290405,1
58,100,0.2,418,0,48,_Guitar,6,3,_Guitar,0.2977790832519531,0
58,100,0.18181818181818182,509,0,48,_Guitar,6,3,_Guitar,0.29796069860458374,0
65,100,0.4,694,0,48,_Guitar,6,6,_Guitar,0.3121272921562195,0
60,100,0.3409090909090909,53,1,49,_Guitar,6,5,_Guitar,0.9996044039726257,1
57,100,0.9590909090909091,633,1,49,_Guitar,6,15,_Guitar,0.5361984968185425,0
60,100,0.3409090909090909,91,1,50,_Guitar,6,5,_Guitar,0.9997997879981995,1
57,100,1.1818181818181819,188,0,50,_Guitar,6,15,_Guitar,0.10836302489042282,0
57,100,0.2818181818181818,453,1,50,_Guitar,6,5,_Guitar,0.13981667160987854,0
57,100,0.18181818181818182,528,0,50,_Guitar,6,3,_Guitar,0.14273282885551453,0
57,100,0.5772727272727273,590,0,50,_Guitar,6,9,_Guitar,0.14383567869663239,0
60,100,0.6,721,0,50,_Guitar,6,10,_Guitar,0.14527110755443573,0
60,100,0.1409090909090909,246,1,51,_Guitar,6,2,_Guitar,0.9998170733451843,1
60,100,0.2409090909090909,334,0,51,_Guitar,6,4,_Guitar,0.12755483388900757,0
53,100,0.4590909090909091,396,0,51,_Guitar,6,7,_Guitar,0.11705464869737625,0
65,100,0.1409090909090909,496,0,51,_Guitar,6,2,_Guitar,0.14479511976242065,0
60,100,1.2636363636363637,531,0,51,_Guitar,6,15,_Guitar,0.1283479481935501,0
57,100,0.8,853,1,51,_Guitar,6,13,_Guitar,0.13968464732170105,0
65,100,0.7181818181818181,458,1,52,_Guitar,6,11,_Guitar,0.9995631575584412,1
62,100,0.7818181818181819,651,0,52,_Guitar,6,13,_Guitar,0.5591802000999451,0
57,100,0.16363636363636364,48,1,53,_Guitar,6,3,_Guitar,0.9998512268066406,1
60,100,0.5,268,0,53,_Guitar,6,8,_Guitar,0.31277745962142944,0
60,100,0.2590909090909091,523,1,53,_Guitar,6,4,_Guitar,0.2981904447078705,0
53,100,0.1590909090909091,655,0,53,_Guitar,6,3,_Guitar,0.30660584568977356,0
53,100,0.1590909090909091,43,1,54,_Guitar,6,3,_Guitar,0.9998307228088379,1
58,100,0.6,179,0,54,_Guitar,6,10,_Guitar,0.3750035762786865,0
53,100,0.2,515,1,54,_Guitar,6,3,_Guitar,0.4539497494697571,0
53,100,0.1409090909090909,75,1,55,_Guitar,6,2,_Guitar,0.9997714161872864,1
53,100,0.35909090909090907,110,0,55,_Guitar,6,6,_Guitar,0.07628728449344635,0
53,100,0.3181818181818182,206,0,55,_Guitar,6,5,_Guitar,0.07371515035629272,0
60,100,0.3181818181818182,281,0,55,_Guitar,6,5,_Guitar,0.07923265546560287,0
60,100,0.5181818181818182,506,0,55,_Guitar,6,8,_Guitar,0.08968469500541687,0
60,100,0.3181818181818182,713,0,55,_Guitar,6,5,_Guitar,0.09962485730648041,0
60,100,0.3181818181818182,831,0,55,_Guitar,6,5,_Guitar,0.08519353717565536,0
62,100,0.21818181818181817,176,1,56,_Guitar,6,3,_Guitar,0.999803364276886,1
60,100,0.6772727272727272,281,0,56,_Guitar,6,11,_Guitar,0.12291836738586426,0
53,100,0.21818181818181817,448,0,56,_Guitar,6,3,_Guitar,0.12877795100212097,0
65,100,0.22272727272727272,509,0,56,_Guitar,6,4,_Guitar,0.140237495303154,0
57,100,0.2772727272727273,590,0,56,_Guitar,6,4,_Guitar,0.1400662362575531,0
60,100,0.9818181818181818,703,0,56,_Guitar,6,15,_Guitar,0.12865333259105682,0
60,100,0.6,118,1,57,_Guitar,6,10,_Guitar,0.999822199344635,1
65,100,0.5590909090909091,471,1,57,_Guitar,6,9,_Guitar,0.20227088034152985,0
58,100,0.33636363636363636,655,0,57,_Guitar,6,5,_Guitar,0.19975166022777557,0
60,100,0.1590909090909091,765,0,57,_Guitar,6,3,_Guitar,0.23321180045604706,0
53,100,0.3181818181818182,810,0,57,_Guitar,6,5,_Guitar,0.207758367061615,0
60,100,0.2818181818181818,4,1,58,_Guitar,6,5,_Guitar,0.999835729598999,1
53,100,0.4818181818181818,78,0,58,_Guitar,6,8,_Guitar,0.2059580385684967,0
53,100,0.13636363636363635,215,0,58,_Guitar,6,2,_Guitar,0.19645777344703674,0
53,100,0.12272727272727273,298,0,58,_Guitar,6,2,_Guitar,0.21021488308906555,0
60,100,0.18181818181818182,378,0,58,_Guitar,6,3,_Guitar,0.2045738846063614,0
60,100,0.9181818181818182,105,1,59,_Guitar,6,15,_Guitar,0.999816358089447,1
55,100,0.1,361,1,59,_Guitar,6,2,_Guitar,0.22702042758464813,0
60,100,0.22272727272727272,619,1,59,_Guitar,6,4,_Guitar,0.20704534649848938,0
60,100,0.1409090909090909,694,0,59,_Guitar,6,2,_Guitar,0.2143629789352417,0
60,100,0.8,748,0,59,_Guitar,6,13,_Guitar,0.20018143951892853,0
53,100,0.2,43,1,60,_Guitar,6,3,_Guitar,0.9998528957366943,1
60,100,0.5409090909090909,141,0,60,_Guitar,6,9,_Guitar,0.30115288496017456,0
60,100,1.3590909090909091,308,0,60,_Guitar,6,15,_Guitar,0.274763286113739,0
60,100,0.4409090909090909,726,1,60,_Guitar,6,7,_Guitar,0.34046584367752075,0
60,100,0.35909090909090907,263,1,61,_Guitar,6,6,_Guitar,0.9998291730880737,1
62,100,0.35909090909090907,351,0,61,_Guitar,6,6,_Guitar,0.403816819190979,0
60,100,0.6590909090909091,703,1,61,_Guitar,6,11,_Guitar,0.4303281009197235,0
60,100,0.6181818181818182,171,1,62,_Guitar,6,10,_Guitar,0.9998268485069275,1
58,100,0.1590909090909091,405,1,62,_Guitar,6,3,_Guitar,0.22100308537483215,0
60,100,0.5,461,0,62,_Guitar,6,8,_Guitar,0.20660041272640228,0
58,100,0.13636363636363635,678,0,62,_Guitar,6,2,_Guitar,0.20927295088768005,0
60,100,1.0227272727272727,774,0,62,_Guitar,6,15,_Guitar,0.2095484584569931,0
60,100,0.2818181818181818,289,1,63,_Guitar,6,5,_Guitar,0.9998534917831421,1
60,100,0.22272727272727272,444,0,63,_Guitar,6,4,_Guitar,0.3238025903701782,0
58,100,0.5409090909090909,563,0,63,_Guitar,6,9,_Guitar,0.2651000916957855,0
60,100,0.5,818,1,63,_Guitar,6,8,_Guitar,0.3322932720184326,0
58,100,0.5227272727272727,430,1,64,_Guitar,6,8,_Guitar,0.9998024106025696,1
60,100,0.36363636363636365,553,0,64,_Guitar,6,6,_Guitar,0.44525983929634094,0
60,100,0.1,870,1,64,_Guitar,6,2,_Guitar,0.4389795660972595,0
57,100,0.3181818181818182,163,1,65,_Guitar,6,5,_Guitar,0.9998183846473694,1
60,100,0.5227272727272727,629,1,65,_Guitar,6,8,_Guitar,0.4183685779571533,0
53,100,0.12272727272727273,870,1,65,_Guitar,6,2,_Guitar,0.43410253524780273,0
60,100,0.1590909090909091,79,1,66,_Guitar,6,3,_Guitar,0.9998378753662109,1
58,100,0.8,136,0,66,_Guitar,6,13,_Guitar,0.17717812955379486,0
58,100,0.2409090909090909,316,0,66,_Guitar,6,4,_Guitar,0.2216317355632782,0
58,100,0.12272727272727273,650,1,66,_Guitar,6,2,_Guitar,0.22263497114181519,0
65,100,0.2818181818181818,849,0,66,_Guitar,6,5,_Guitar,0.2223731428384781,0
58,100,0.2,157,1,67,_Guitar,6,3,_Guitar,0.9997474551200867,1
53,100,0.1409090909090909,286,0,67,_Guitar,6,2,_Guitar,0.08687255531549454,0
57,100,0.33636363636363636,392,0,67,_Guitar,6,5,_Guitar,0.07077034562826157,0
53,100,0.3181818181818182,493,0,67,_Guitar,6,5,_Guitar,0.08510097861289978,0
53,100,0.18181818181818182,585,0,67,_Guitar,6,3,_Guitar,0.09433502703905106,0
60,100,0.5,650,0,67,_Guitar,6,8,_Guitar,0.0991763025522232,0
60,100,1.1409090909090909,770,0,67,_Guitar,6,15,_Guitar,0.08730459213256836,0
60,100,0.1409090909090909,233,1,68,_Guitar,6,2,_Guitar,0.9998347759246826,1
60,100,0.4772727272727273,392,0,68,_Guitar,6,8,_Guitar,0.39469122886657715,0
65,100,0.35909090909090907,624,1,68,_Guitar,6,6,_Guitar,0.4300239086151123,0
60,100,0.35909090909090907,233,1,69,_Guitar,6,6,_Guitar,0.9997337460517883,1
53,100,0.2409090909090909,399,0,69,_Guitar,6,4,_Guitar,0.055785130709409714,0
60,100,0.18181818181818182,487,0,69,_Guitar,6,3,_Guitar,0.04797561094164848,0
60,100,0.12272727272727273,673,0,69,_Guitar,6,2,_Guitar,0.0472186841070652,0
60,100,0.1590909090909091,713,0,69,_Guitar,6,3,_Guitar,0.05120832100510597,0
53,100,0.1590909090909091,756,0,69,_Guitar,6,3,_Guitar,0.05821889638900757,0
53,100,0.12272727272727273,826,0,69,_Guitar,6,2,_Guitar,0.0643816664814949,0
57,100,0.37727272727272726,853,0,69,_Guitar,6,6,_Guitar,0.05701866000890732,0
60,100,0.2,166,1,70,_Guitar,6,3,_Guitar,0.9997760653495789,1
60,100,0.21818181818181817,273,0,70,_Guitar,6,3,_Guitar,0.077826127409935,0
53,100,0.12272727272727273,356,0,70,_Guitar,6,2,_Guitar,0.07155501842498779,0
57,100,0.1,550,0,70,_Guitar,6,2,_Guitar,0.07573623955249786,0
53,100,0.1,633,0,70,_Guitar,6,2,_Guitar,0.08723892271518707,0
53,100,0.16363636363636364,663,0,70,_Guitar,6,3,_Guitar,0.09108942747116089,0
60,100,0.2,826,0,70,_Guitar,6,3,_Guitar,0.08393801748752594,0
53,100,0.2409090909090909,35,1,71,_Guitar,6,4,_Guitar,0.9998090863227844,1
58,100,0.1,184,0,71,_Guitar,6,2,_Guitar,0.12241539359092712,0
58,100,1.0227272727272727,210,0,71,_Guitar,6,15,_Guitar,0.11152598261833191,0
60,100,0.2590909090909091,519,1,71,_Guitar,6,4,_Guitar,0.15768910944461823,0
60,100,0.3,734,0,71,_Guitar,6,5,_Guitar,0.15078824758529663,0
60,100,0.8181818181818182,844,0,71,_Guitar,6,13,_Guitar,0.1323348730802536,0
60,100,0.12272727272727273,157,1,72,_Guitar,6,2,_Guitar,0.9998621940612793,1
53,100,0.12272727272727273,276,0,72,_Guitar,6,2,_Guitar,0.30763253569602966,0
53,100,0.12272727272727273,399,0,72,_Guitar,6,2,_Guitar,0.28787344694137573,0
65,100,0.3,426,0,72,_Guitar,6,5,_Guitar,0.30164334177970886,0
53,100,0.2590909090909091,210,1,73,_Guitar,6,4,_Guitar,0.9998601675033569,1
60,100,0.21818181818181817,303,0,73,_Guitar,6,3,_Guitar,0.309212327003479,0
53,100,0.18181818181818182,487,0,73,_Guitar,6,3,_Guitar,0.29196611046791077,0
55,100,0.37727272727272726,832,1,73,_Guitar,6,6,_Guitar,0.2943127751350403,0
60,100,0.4590909090909091,56,1,74,_Guitar,6,7,_Guitar,0.9996416568756104,1
64,100,0.17727272727272728,392,1,74,_Guitar,6,3,_Guitar,0.5508003830909729,0
60,100,0.4772727272727273,40,1,75,_Guitar,6,8,_Guitar,0.9998373985290527,1
60,100,0.9590909090909091,299,1,75,_Guitar,6,15,_Guitar,0.3169087767601013,0
53,100,0.1409090909090909,550,1,75,_Guitar,6,2,_Guitar,0.32177048921585083,0
60,100,1.6409090909090909,682,0,75,_Guitar,6,15,_Guitar,0.29140618443489075,0
65,100,0.21818181818181817,787,1,76,_Guitar,6,3,_Guitar,0.9933288097381592,0
60,100,0.8590909090909091,96,1,77,_Guitar,6,14,_Guitar,0.9998396635055542,1
53,100,0.12272727272727273,443,1,77,_Guitar,6,2,_Guitar,0.36952149868011475,0
58,100,0.13636363636363635,480,0,77,_Guitar,6,2,_Guitar,0.2928842008113861,0
58,100,1.3590909090909091,563,0,77,_Guitar,6,15,_Guitar,0.29011958837509155,0
58,100,0.1409090909090909,22,1,78,_Guitar,6,2,_Guitar,0.999823272228241,1
55,100,0.1,263,1,78,_Guitar,6,2,_Guitar,0.2322562038898468,0
55,100,0.1,289,0,78,_Guitar,6,2,_Guitar,0.20633381605148315,0
60,100,0.5590909090909091,493,0,78,_Guitar,6,9,_Guitar,0.21792817115783691,0
60,100,2.2590909090909093,677,0,78,_Guitar,6,15,_Guitar,0.1937919557094574,0
60,100,0.8636363636363636,356,1,79,_Guitar,6,14,_Guitar,0.9924556016921997,0
60,100,0.1,123,1,80,_Guitar,6,2,_Guitar,0.9935736060142517,0
60,100,0.38181818181818183,386,1,81,_Guitar,6,6,_Guitar,0.9998338222503662,1
60,100,0.5227272727272727,519,0,81,_Guitar,6,8,_Guitar,0.39797496795654297,0
60,100,0.6772727272727272,669,0,81,_Guitar,6,11,_Guitar,0.426683247089386,0
60,100,0.9409090909090909,3,1,82,_Guitar,6,15,_Guitar,0.9998160004615784,1
65,100,0.11818181818181818,373,1,82,_Guitar,6,2,_Guitar,0.23513764142990112,0
65,100,0.17727272727272728,413,0,82,_Guitar,6,3,_Guitar,0.200017049908638,0
62,100,0.5,493,0,82,_Guitar,6,8,_Guitar,0.2057855874300003,0
60,100,1.1818181818181819,637,0,82,_Guitar,6,15,_Guitar,0.20297054946422577,0
53,100,0.2,26,1,83,_Guitar,6,3,_Guitar,0.9998354911804199,1
60,100,0.8409090909090909,229,0,83,_Guitar,6,13,_Guitar,0.19782662391662598,0
53,100,0.1,466,1,83,_Guitar,6,2,_Guitar,0.2176053524017334,0
53,100,0.22272727272727272,716,1,83,_Guitar,6,4,_Guitar,0.20570853352546692,0
60,100,0.35909090909090907,783,0,83,_Guitar,6,6,_Guitar,0.19933417439460754,0
58,100,0.13636363636363635,40,1,84,_Guitar,6,2,_Guitar,0.999817430973053,1
60,100,0.2409090909090909,189,0,84,_Guitar,6,4,_Guitar,0.22954635322093964,0
53,100,0.11818181818181818,326,0,84,_Guitar,6,2,_Guitar,0.1986244171857834,0
60,100,0.9409090909090909,466,0,84,_Guitar,6,15,_Guitar,0.20288865268230438,0
60,100,0.6,677,0,84,_Guitar,6,10,_Guitar,0.2149946689605713,0
65,100,0.1,3,1,85,_Guitar,6,2,_Guitar,0.999739944934845,1
65,100,0.17727272727272728,30,0,85,_Guitar,6,3,_Guitar,0.05505555123090744,0
58,100,0.1,184,0,85,_Guitar,6,2,_Guitar,0.0451887771487236,0
62,100,0.2409090909090909,220,0,85,_Guitar,6,4,_Guitar,0.04896771162748337,0
58,100,0.6181818181818182,370,0,85,_Guitar,6,10,_Guitar,0.04773559793829918,0
58,100,0.5636363636363636,509,0,85,_Guitar,6,9,_Guitar,0.06317532807588577,0
64,100,0.22272727272727272,642,0,85,_Guitar,6,4,_Guitar,0.07814215123653412,0
60,100,0.5818181818181818,695,0,85,_Guitar,6,9,_Guitar,0.06168060749769211,0
65,100,0.21818181818181817,176,1,86,_Guitar,6,3,_Guitar,0.999850869178772,1
53,100,0.35909090909090907,237,0,86,_Guitar,6,6,_Guitar,0.3186061680316925,0
60,100,0.6181818181818182,373,0,86,_Guitar,6,10,_Guitar,0.2859032452106476,0
60,100,0.18181818181818182,839,1,86,_Guitar,6,3,_Guitar,0.31589654088020325,0
64,100,0.35909090909090907,386,1,87,_Guitar,6,6,_Guitar,0.9998601675033569,1
60,100,0.17727272727272728,493,0,87,_Guitar,6,3,_Guitar,0.3185015916824341,0
57,100,0.1590909090909091,612,0,87,_Guitar,6,3,_Guitar,0.28103843331336975,0
60,100,0.2818181818181818,686,0,87,_Guitar,6,5,_Guitar,0.3050410747528076,0
53,100,0.2,66,1,88,_Guitar,6,3,_Guitar,0.9997755885124207,1
65,100,0.2,189,0,88,_Guitar,6,3,_Guitar,0.07562503218650818,0
53,100,0.37727272727272726,347,0,88,_Guitar,6,6,_Guitar,0.06962905079126358,0
65,100,0.1409090909090909,430,0,88,_Guitar,6,2,_Guitar,0.0799889862537384,0
65,100,0.3,637,0,88,_Guitar,6,5,_Guitar,0.08608555793762207,0
60,100,0.21818181818181817,703,0,88,_Guitar,6,3,_Guitar,0.09392086416482925,0
53,100,0.11818181818181818,766,0,88,_Guitar,6,2,_Guitar,0.08513777703046799,0
60,100,0.17727272727272728,40,1,89,_Guitar,6,3,_Guitar,0.9998038411140442,1
65,100,0.4,92,0,89,_Guitar,6,6,_Guitar,0.12102806568145752,0
60,100,0.4772727272727273,193,0,89,_Guitar,6,8,_Guitar,0.12080218642950058,0
58,100,0.1590909090909091,303,0,89,_Guitar,6,3,_Guitar,0.12931004166603088,0
60,100,0.2409090909090909,409,0,89,_Guitar,6,4,_Guitar,0.1555033177137375,0
64,100,0.11818181818181818,677,1,89,_Guitar,6,2,_Guitar,0.13769224286079407,0
65,100,0.22272727272727272,56,1,90,_Guitar,6,4,_Guitar,0.9997099041938782,1
53,100,0.5,294,1,90,_Guitar,6,8,_Guitar,0.04125429317355156,0
65,100,0.3181818181818182,404,0,90,_Guitar,6,5,_Guitar,0.03318893164396286,0
65,100,0.2409090909090909,483,0,90,_Guitar,6,4,_Guitar,0.029897591099143028,0
77,100,0.11818181818181818,550,0,90,_Guitar,6,2,_Guitar,0.029992515221238136,0
60,100,0.2409090909090909,593,0,90,_Guitar,6,4,_Guitar,0.03176118806004524,0
60,100,0.1,686,0,90,_Guitar,6,2,_Guitar,0.041065722703933716,0
55,100,0.2,743,0,90,_Guitar,6,3,_Guitar,0.0447029210627079,0
60,100,0.18181818181818182,813,0,90,_Guitar,6,3,_Guitar,0.047331493347883224,0
84,100,0.2409090909090909,9,1,91,_Guitar,6,4,_Guitar,0.9997355341911316,1
60,100,0.42272727272727273,113,0,91,_Guitar,6,7,_Guitar,0.05520608648657799,0
77,100,0.21818181818181817,220,0,91,_Guitar,6,3,_Guitar,0.04717376083135605,0
55,100,0.2818181818181818,276,0,91,_Guitar,6,5,_Guitar,0.04567718878388405,0
58,100,0.2590909090909091,360,0,91,_Guitar,6,4,_Guitar,0.05052318051457405,0
81,100,0.1,426,0,91,_Guitar,6,2,_Guitar,0.06516315042972565,0
65,100,0.2409090909090909,650,0,91,_Guitar,6,4,_Guitar,0.06575622409582138,0
76,100,0.2636363636363636,752,0,91,_Guitar,6,4,_Guitar,0.0634719580411911,0
72,100,0.17727272727272728,106,1,92,_Guitar,6,3,_Guitar,0.9996968507766724,1
72,100,0.3,229,0,92,_Guitar,6,5,_Guitar,0.03494257479906082,0
53,100,0.1590909090909091,409,0,92,_Guitar,6,3,_Guitar,0.02557471953332424,0
77,100,0.1590909090909091,457,0,92,_Guitar,6,3,_Guitar,0.021075373515486717,0
81,100,0.1,553,0,92,_Guitar,6,2,_Guitar,0.018276911228895187,0
60,100,0.1409090909090909,616,0,92,_Guitar,6,2,_Guitar,0.019936207681894302,0
79,100,0.16363636363636364,663,0,92,_Guitar,6,3,_Guitar,0.021927310153841972,0
84,100,0.1590909090909091,716,0,92,_Guitar,6,3,_Guitar,0.0300096794962883,0
53,100,0.38181818181818183,760,0,92,_Guitar,6,6,_Guitar,0.036173660308122635,0
65,100,0.2409090909090909,870,0,92,_Guitar,6,4,_Guitar,0.03777609393000603,0
77,100,0.2,69,1,93,_Guitar,6,3,_Guitar,0.9997015595436096,1
53,100,0.18181818181818182,136,0,93,_Guitar,6,3,_Guitar,0.04250664636492729,0
60,100,0.32272727272727275,179,0,93,_Guitar,6,5,_Guitar,0.03293014317750931,0
60,100,0.2409090909090909,267,0,93,_Guitar,6,4,_Guitar,0.03018992394208908,0
60,100,0.3181818181818182,396,0,93,_Guitar,6,5,_Guitar,0.029721485450863838,0
84,100,0.2,466,0,93,_Guitar,6,3,_Guitar,0.03474621847271919,0
60,100,0.6409090909090909,532,0,93,_Guitar,6,10,_Guitar,0.036946170032024384,0
60,100,0.1409090909090909,726,0,93,_Guitar,6,2,_Guitar,0.05188591778278351,0
55,100,0.21818181818181817,756,0,93,_Guitar,6,3,_Guitar,0.04570618271827698,0
60,100,0.11818181818181818,22,1,94,_Guitar,6,2,_Guitar,0.9997134804725647,1
58,100,0.4,113,0,94,_Guitar,6,6,_Guitar,0.03965507075190544,0
65,100,0.1409090909090909,210,0,94,_Guitar,6,2,_Guitar,0.03598250448703766,0
77,100,0.1,282,0,94,_Guitar,6,2,_Guitar,0.02920347824692726,0
76,100,0.1,356,0,94,_Guitar,6,2,_Guitar,0.031128427013754845,0
57,100,0.2,436,0,94,_Guitar,6,3,_Guitar,0.03136533126235008,0
57,100,0.13636363636363635,656,0,94,_Guitar,6,2,_Guitar,0.04004576429724693,0
72,100,0.2590909090909091,695,0,94,_Guitar,6,4,_Guitar,0.04778633639216423,0
76,100,0.1,844,0,94,_Guitar,6,2,_Guitar,0.04599892348051071,0
79,100,0.1,113,1,95,_Guitar,6,2,_Guitar,0.999707043170929,1
81,100,0.1,140,0,95,_Guitar,6,2,_Guitar,0.04167011007666588,0
84,100,0.1590909090909091,294,0,95,_Guitar,6,3,_Guitar,0.03369687870144844,0
53,100,0.18181818181818182,462,0,95,_Guitar,6,3,_Guitar,0.029301241040229797,0
77,100,0.21818181818181817,536,0,95,_Guitar,6,3,_Guitar,0.02948985993862152,0
53,100,0.22272727272727272,585,0,95,_Guitar,6,4,_Guitar,0.03335719183087349,0
60,100,0.21818181818181817,660,0,95,_Guitar,6,3,_Guitar,0.04126810282468796,0
86,100,0.12272727272727273,752,0,95,_Guitar,6,2,_Guitar,0.04786406084895134,0
60,100,0.6181818181818182,787,0,95,_Guitar,6,10,_Guitar,0.04408097267150879,0
84,100,0.2636363636363636,47,1,96,_Guitar,6,4,_Guitar,0.9997699856758118,1
81,100,0.2,106,0,96,_Guitar,6,3,_Guitar,0.07973942160606384,0
60,100,0.4,172,0,96,_Guitar,6,6,_Guitar,0.07594326138496399,0
76,100,0.12272727272727273,343,0,96,_Guitar,6,2,_Guitar,0.08221093565225601,0
53,100,0.12272727272727273,409,0,96,_Guitar,6,2,_Guitar,0.09059121459722519,0
65,100,0.2409090909090909,449,0,96,_Guitar,6,4,_Guitar,0.09628443419933319,0
57,100,1.5818181818181818,673,0,96,_Guitar,6,15,_Guitar,0.07884581387042999,0
53,100,0.5590909090909091,343,1,97,_Guitar,6,9,_Guitar,0.9996044039726257,1
57,100,0.2409090909090909,739,1,97,_Guitar,6,4,_Guitar,0.5564943552017212,0
57,100,0.33636363636363636,347,1,98,_Guitar,6,5,_Guitar,0.9927419424057007,1
52,100,0.7227272727272728,48,1,0,_tunecore_Remastered_Guitar,6,12,_tunecore_Remastered_Guitar,0.9998249411582947,1
59,100,0.2,370,1,0,_tunecore_Remastered_Guitar,6,3,_tunecore_Remastered_Guitar,0.2167423963546753,0
59,100,0.1,559,0,0,_tunecore_Remastered_Guitar,6,2,_tunecore_Remastered_Guitar,0.19803793728351593,0
59,100,0.2,713,0,0,_tunecore_Remastered_Guitar,6,3,_tunecore_Remastered_Guitar,0.21318212151527405,0
61,100,0.4,801,0,0,_tunecore_Remastered_Guitar,6,6,_tunecore_Remastered_Guitar,0.20337072014808655,0
64,100,0.6181818181818182,18,1,1,_tunecore_Remastered_Guitar,6,10,_tunecore_Remastered_Guitar,0.999688982963562,1
61,100,0.1590909090909091,241,0,1,_tunecore_Remastered_Guitar,6,3,_tunecore_Remastered_Guitar,0.044588394463062286,0
66,100,0.2409090909090909,299,0,1,_tunecore_Remastered_Guitar,6,4,_tunecore_Remastered_Guitar,0.032850269228219986,0
68,100,0.3181818181818182,369,0,1,_tunecore_Remastered_Guitar,6,5,_tunecore_Remastered_Guitar,0.03049090877175331,0
66,100,0.4818181818181818,475,0,1,_tunecore_Remastered_Guitar,6,8,_tunecore_Remastered_Guitar,0.030221519991755486,0
66,100,0.1590909090909091,669,0,1,_tunecore_Remastered_Guitar,6,3,_tunecore_Remastered_Guitar,0.03474799171090126,0
59,100,0.1590909090909091,744,0,1,_tunecore_Remastered_Guitar,6,3,_tunecore_Remastered_Guitar,0.042084675282239914,0
61,100,0.3181818181818182,791,0,1,_tunecore_Remastered_Guitar,6,5,_tunecore_Remastered_Guitar,0.04659559205174446,0
59,100,0.759090909090909,871,0,1,_tunecore_Remastered_Guitar,6,12,_tunecore_Remastered_Guitar,0.04584489017724991,0
59,100,0.6772727272727272,193,1,2,_tunecore_Remastered_Guitar,6,11,_tunecore_Remastered_Guitar,0.9997405409812927,1
64,100,0.21818181818181817,348,0,2,_tunecore_Remastered_Guitar,6,3,_tunecore_Remastered_Guitar,0.0896710604429245,0
59,100,0.2409090909090909,427,0,2,_tunecore_Remastered_Guitar,6,4,_tunecore_Remastered_Guitar,0.07181236892938614,0
64,100,0.2409090909090909,488,0,2,_tunecore_Remastered_Guitar,6,4,_tunecore_Remastered_Guitar,0.08536788076162338,0
52,100,0.6409090909090909,541,0,2,_tunecore_Remastered_Guitar,6,10,_tunecore_Remastered_Guitar,0.08306246995925903,0
64,100,0.1,779,1,2,_tunecore_Remastered_Guitar,6,2,_tunecore_Remastered_Guitar,0.10436417907476425,0
64,100,0.1,849,0,2,_tunecore_Remastered_Guitar,6,2,_tunecore_Remastered_Guitar,0.08574583381414413,0
59,100,0.2,34,1,3,_tunecore_Remastered_Guitar,6,3,_tunecore_Remastered_Guitar,0.9996639490127563,1
61,100,0.2818181818181818,100,0,3,_tunecore_Remastered_Guitar,6,5,_tunecore_Remastered_Guitar,0.032168660312891006,0
64,100,0.3181818181818182,176,0,3,_tunecore_Remastered_Guitar,6,5,_tunecore_Remastered_Guitar,0.02186756581068039,0
61,100,0.35909090909090907,369,0,3,_tunecore_Remastered_Guitar,6,6,_tunecore_Remastered_Guitar,0.01646987348794937,0
64,100,0.2,458,0,3,_tunecore_Remastered_Guitar,6,3,_tunecore_Remastered_Guitar,0.014037996530532837,0
68,100,0.17727272727272728,537,0,3,_tunecore_Remastered_Guitar,6,3,_tunecore_Remastered_Guitar,0.0127240139991045,0
66,100,0.2590909090909091,593,0,3,_tunecore_Remastered_Guitar,6,4,_tunecore_Remastered_Guitar,0.013318398036062717,0
64,100,0.23636363636363636,656,0,3,_tunecore_Remastered_Guitar,6,4,_tunecore_Remastered_Guitar,0.01791663095355034,0
61,100,0.2636363636363636,708,0,3,_tunecore_Remastered_Guitar,6,4,_tunecore_Remastered_Guitar,0.022895056754350662,0
57,100,0.13636363636363635,810,0,3,_tunecore_Remastered_Guitar,6,2,_tunecore_Remastered_Guitar,0.03225407376885414,0
66,100,0.8181818181818182,853,0,3,_tunecore_Remastered_Guitar,6,13,_tunecore_Remastered_Guitar,0.03291814774274826,0
66,100,0.7,158,1,4,_tunecore_Remastered_Guitar,6,11,_tunecore_Remastered_Guitar,0.9997995495796204,1
64,100,1.2636363636363637,334,0,4,_tunecore_Remastered_Guitar,6,15,_tunecore_Remastered_Guitar,0.406353622674942,0
63,100,0.1409090909090909,836,1,4,_tunecore_Remastered_Guitar,6,2,_tunecore_Remastered_Guitar,0.45508265495300293,0
64,100,0.12272727272727273,135,1,5,_tunecore_Remastered_Guitar,6,2,_tunecore_Remastered_Guitar,0.9998359680175781,1
52,100,0.740909090909091,163,0,5,_tunecore_Remastered_Guitar,6,12,_tunecore_Remastered_Guitar,0.38849085569381714,0
61,100,0.4590909090909091,854,1,5,_tunecore_Remastered_Guitar,6,7,_tunecore_Remastered_Guitar,0.4315672218799591,0
64,100,0.1409090909090909,74,1,6,_tunecore_Remastered_Guitar,6,2,_tunecore_Remastered_Guitar,0.9997817873954773,1
64,100,0.42272727272727273,145,0,6,_tunecore_Remastered_Guitar,6,7,_tunecore_Remastered_Guitar,0.07546736299991608,0
61,100,0.1,550,1,6,_tunecore_Remastered_Guitar,6,2,_tunecore_Remastered_Guitar,0.07326602935791016,0
61,100,0.1,598,0,6,_tunecore_Remastered_Guitar,6,2,_tunecore_Remastered_Guitar,0.07769419252872467,0
61,100,0.2,721,0,6,_tunecore_Remastered_Guitar,6,3,_tunecore_Remastered_Guitar,0.08829911798238754,0
57,100,0.1409090909090909,826,0,6,_tunecore_Remastered_Guitar,6,2,_tunecore_Remastered_Guitar,0.0908239334821701,0
61,100,0.3409090909090909,871,0,6,_tunecore_Remastered_Guitar,6,5,_tunecore_Remastered_Guitar,0.08348994702100754,0
63,100,0.4,220,1,7,_tunecore_Remastered_Guitar,6,6,_tunecore_Remastered_Guitar,0.9998183846473694,1
52,100,0.6363636363636364,634,1,7,_tunecore_Remastered_Guitar,6,10,_tunecore_Remastered_Guitar,0.4223794639110565,0
52,100,0.22272727272727272,818,0,7,_tunecore_Remastered_Guitar,6,4,_tunecore_Remastered_Guitar,0.43768277764320374,0
68,100,0.2409090909090909,110,1,8,_tunecore_Remastered_Guitar,6,4,_tunecore_Remastered_Guitar,0.9998310804367065,1
64,100,0.2590909090909091,462,1,8,_tunecore_Remastered_Guitar,6,4,_tunecore_Remastered_Guitar,0.423841655254364,0
64,100,0.1590909090909091,558,0,8,_tunecore_Remastered_Guitar,6,3,_tunecore_Remastered_Guitar,0.4221036732196808,0
61,100,0.1590909090909091,194,1,9,_tunecore_Remastered_Guitar,6,3,_tunecore_Remastered_Guitar,0.9998600482940674,1
64,100,0.1,369,0,9,_tunecore_Remastered_Guitar,6,2,_tunecore_Remastered_Guitar,0.32594460248947144,0
59,100,0.11818181818181818,527,0,9,_tunecore_Remastered_Guitar,6,2,_tunecore_Remastered_Guitar,0.27460768818855286,0
63,100,0.2590909090909091,677,0,9,_tunecore_Remastered_Guitar,6,4,_tunecore_Remastered_Guitar,0.30506426095962524,0
52,100,0.5818181818181818,245,1,10,_tunecore_Remastered_Guitar,6,9,_tunecore_Remastered_Guitar,0.9929524064064026,0
61,100,0.5,65,1,11,_tunecore_Remastered_Guitar,6,8,_tunecore_Remastered_Guitar,0.9998421669006348,1
61,100,0.42272727272727273,343,1,11,_tunecore_Remastered_Guitar,6,7,_tunecore_Remastered_Guitar,0.3228853642940521,0
61,100,0.36363636363636365,663,1,11,_tunecore_Remastered_Guitar,6,6,_tunecore_Remastered_Guitar,0.3003607392311096,0
57,100,0.2,849,0,11,_tunecore_Remastered_Guitar,6,3,_tunecore_Remastered_Guitar,0.30707356333732605,0
57,100,0.1409090909090909,48,1,12,_tunecore_Remastered_Guitar,6,2,_tunecore_Remastered_Guitar,0.9998366832733154,1
61,100,0.12272727272727273,135,0,12,_tunecore_Remastered_Guitar,6,2,_tunecore_Remastered_Guitar,0.20868554711341858,0
59,100,0.11818181818181818,307,0,12,_tunecore_Remastered_Guitar,6,2,_tunecore_Remastered_Guitar,0.19270659983158112,0
63,100,0.2,378,0,12,_tunecore_Remastered_Guitar,6,3,_tunecore_Remastered_Guitar,0.21093273162841797,0
52,100,0.6,730,1,12,_tunecore_Remastered_Guitar,6,10,_tunecore_Remastered_Guitar,0.20276513695716858,0
52,100,0.12272727272727273,48,1,13,_tunecore_Remastered_Guitar,6,2,_tunecore_Remastered_Guitar,0.9998176693916321,1
52,100,0.1409090909090909,285,1,13,_tunecore_Remastered_Guitar,6,2,_tunecore_Remastered_Guitar,0.12072949856519699,0
61,100,0.18181818181818182,615,1,13,_tunecore_Remastered_Guitar,6,3,_tunecore_Remastered_Guitar,0.11652392894029617,0
64,100,0.2818181818181818,716,0,13,_tunecore_Remastered_Guitar,6,5,_tunecore_Remastered_Guitar,0.13409532606601715,0
61,100,0.1,787,0,13,_tunecore_Remastered_Guitar,6,2,_tunecore_Remastered_Guitar,0.13388890027999878,0
61,100,0.12272727272727273,840,0,13,_tunecore_Remastered_Guitar,6,2,_tunecore_Remastered_Guitar,0.12826354801654816,0
61,100,0.3181818181818182,295,1,14,_tunecore_Remastered_Guitar,6,5,_tunecore_Remastered_Guitar,0.9998321533203125,1
61,100,0.3409090909090909,395,0,14,_tunecore_Remastered_Guitar,6,5,_tunecore_Remastered_Guitar,0.2113427072763443,0
64,100,0.1,470,0,14,_tunecore_Remastered_Guitar,6,2,_tunecore_Remastered_Guitar,0.20303480327129364,0
57,100,0.2590909090909091,519,0,14,_tunecore_Remastered_Guitar,6,4,_tunecore_Remastered_Guitar,0.1957603096961975,0
63,100,0.32272727272727275,840,1,14,_tunecore_Remastered_Guitar,6,5,_tunecore_Remastered_Guitar,0.20419439673423767,0
59,100,0.18181818181818182,276,1,15,_tunecore_Remastered_Guitar,6,3,_tunecore_Remastered_Guitar,0.9998021721839905,1
57,100,0.2,426,0,15,_tunecore_Remastered_Guitar,6,3,_tunecore_Remastered_Guitar,0.12874992191791534,0
61,100,0.4409090909090909,510,0,15,_tunecore_Remastered_Guitar,6,7,_tunecore_Remastered_Guitar,0.11650904268026352,0
61,100,0.2,656,0,15,_tunecore_Remastered_Guitar,6,3,_tunecore_Remastered_Guitar,0.1380959004163742,0
57,100,0.16363636363636364,773,0,15,_tunecore_Remastered_Guitar,6,3,_tunecore_Remastered_Guitar,0.14005210995674133,0
61,100,0.21818181818181817,823,0,15,_tunecore_Remastered_Guitar,6,3,_tunecore_Remastered_Guitar,0.13308241963386536,0
59,100,0.1409090909090909,3,1,16,_tunecore_Remastered_Guitar,6,2,_tunecore_Remastered_Guitar,0.9998020529747009,1
63,100,0.6772727272727272,61,0,16,_tunecore_Remastered_Guitar,6,11,_tunecore_Remastered_Guitar,0.11594241112470627,0
64,100,0.3181818181818182,505,1,16,_tunecore_Remastered_Guitar,6,5,_tunecore_Remastered_Guitar,0.1374250054359436,0
57,100,0.5818181818181818,584,0,16,_tunecore_Remastered_Guitar,6,9,_tunecore_Remastered_Guitar,0.12999452650547028,0
57,100,0.2,721,0,16,_tunecore_Remastered_Guitar,6,3,_tunecore_Remastered_Guitar,0.15690098702907562,0
61,100,0.35909090909090907,783,0,16,_tunecore_Remastered_Guitar,6,6,_tunecore_Remastered_Guitar,0.13265840709209442,0
57,100,0.6,0,1,17,_tunecore_Remastered_Guitar,6,10,_tunecore_Remastered_Guitar,0.9998301267623901,1
61,100,0.41818181818181815,405,1,17,_tunecore_Remastered_Guitar,6,7,_tunecore_Remastered_Guitar,0.35392293334007263,0
61,100,0.2,686,1,17,_tunecore_Remastered_Guitar,6,3,_tunecore_Remastered_Guitar,0.30193331837654114,0
52,100,0.6181818181818182,831,0,17,_tunecore_Remastered_Guitar,6,10,_tunecore_Remastered_Guitar,0.29816797375679016,0
52,100,0.32272727272727275,233,1,18,_tunecore_Remastered_Guitar,6,5,_tunecore_Remastered_Guitar,0.9998353719711304,1
52,100,0.21818181818181817,316,0,18,_tunecore_Remastered_Guitar,6,3,_tunecore_Remastered_Guitar,0.41546979546546936,0
52,100,0.1409090909090909,440,0,18,_tunecore_Remastered_Guitar,6,2,_tunecore_Remastered_Guitar,0.4244396388530731,0
59,100,0.22272727272727272,69,1,19,_tunecore_Remastered_Guitar,6,4,_tunecore_Remastered_Guitar,0.9998310804367065,1
57,100,0.21818181818181817,193,0,19,_tunecore_Remastered_Guitar,6,3,_tunecore_Remastered_Guitar,0.20973826944828033,0
57,100,0.35909090909090907,382,0,19,_tunecore_Remastered_Guitar,6,6,_tunecore_Remastered_Guitar,0.20034204423427582,0
57,100,0.6,470,0,19,_tunecore_Remastered_Guitar,6,10,_tunecore_Remastered_Guitar,0.20167650282382965,0
61,100,0.2590909090909091,677,0,19,_tunecore_Remastered_Guitar,6,4,_tunecore_Remastered_Guitar,0.21994180977344513,0
61,100,0.5,9,1,20,_tunecore_Remastered_Guitar,6,8,_tunecore_Remastered_Guitar,0.9998214840888977,1
61,100,0.13636363636363635,150,0,20,_tunecore_Remastered_Guitar,6,2,_tunecore_Remastered_Guitar,0.22120802104473114,0
52,100,0.6590909090909091,449,1,20,_tunecore_Remastered_Guitar,6,11,_tunecore_Remastered_Guitar,0.19229987263679504,0
52,100,0.1409090909090909,814,1,20,_tunecore_Remastered_Guitar,6,2,_tunecore_Remastered_Guitar,0.21905875205993652,0
52,100,0.42272727272727273,862,0,20,_tunecore_Remastered_Guitar,6,7,_tunecore_Remastered_Guitar,0.20343704521656036,0
59,100,0.1,113,1,21,_tunecore_Remastered_Guitar,6,2,_tunecore_Remastered_Guitar,0.9998583793640137,1
63,100,0.22272727272727272,584,1,21,_tunecore_Remastered_Guitar,6,4,_tunecore_Remastered_Guitar,0.31303825974464417,0
57,100,0.5818181818181818,681,0,21,_tunecore_Remastered_Guitar,6,9,_tunecore_Remastered_Guitar,0.2914712727069855,0
61,100,0.3181818181818182,831,0,21,_tunecore_Remastered_Guitar,6,5,_tunecore_Remastered_Guitar,0.3071436583995819,0
57,100,0.32272727272727275,69,1,22,_tunecore_Remastered_Guitar,6,5,_tunecore_Remastered_Guitar,0.9998094439506531,1
57,100,0.6818181818181818,144,0,22,_tunecore_Remastered_Guitar,6,11,_tunecore_Remastered_Guitar,0.40367746353149414,0
61,100,0.2409090909090909,509,1,22,_tunecore_Remastered_Guitar,6,4,_tunecore_Remastered_Guitar,0.44870442152023315,0
59,100,0.1409090909090909,110,1,23,_tunecore_Remastered_Guitar,6,2,_tunecore_Remastered_Guitar,0.9998350143432617,1
63,100,0.13636363636363635,237,0,23,_tunecore_Remastered_Guitar,6,2,_tunecore_Remastered_Guitar,0.20827510952949524,0
59,100,0.2772727272727273,405,0,23,_tunecore_Remastered_Guitar,6,4,_tunecore_Remastered_Guitar,0.1996268332004547,0
63,100,0.5181818181818182,546,0,23,_tunecore_Remastered_Guitar,6,8,_tunecore_Remastered_Guitar,0.19590850174427032,0
59,100,0.11818181818181818,866,1,23,_tunecore_Remastered_Guitar,6,2,_tunecore_Remastered_Guitar,0.21905303001403809,0
61,100,0.21818181818181817,480,1,24,_tunecore_Remastered_Guitar,6,3,_tunecore_Remastered_Guitar,0.9998356103897095,1
57,100,0.22272727272727272,576,0,24,_tunecore_Remastered_Guitar,6,4,_tunecore_Remastered_Guitar,0.3977881073951721,0
64,100,0.2,862,1,24,_tunecore_Remastered_Guitar,6,3,_tunecore_Remastered_Guitar,0.4324553608894348,0
61,100,0.17727272727272728,52,1,25,_tunecore_Remastered_Guitar,6,3,_tunecore_Remastered_Guitar,0.9997290968894958,1
64,100,0.4409090909090909,100,0,25,_tunecore_Remastered_Guitar,6,7,_tunecore_Remastered_Guitar,0.05446192994713783,0
61,100,0.3,220,0,25,_tunecore_Remastered_Guitar,6,5,_tunecore_Remastered_Guitar,0.04556426778435707,0
61,100,0.4,289,0,25,_tunecore_Remastered_Guitar,6,6,_tunecore_Remastered_Guitar,0.04590592160820961,0
61,100,0.16363636363636364,488,0,25,_tunecore_Remastered_Guitar,6,3,_tunecore_Remastered_Guitar,0.05416938289999962,0
52,100,0.17727272727272728,633,0,25,_tunecore_Remastered_Guitar,6,3,_tunecore_Remastered_Guitar,0.059821292757987976,0
52,100,0.1590909090909091,760,0,25,_tunecore_Remastered_Guitar,6,3,_tunecore_Remastered_Guitar,0.06578879058361053,0
59,100,0.17727272727272728,801,0,25,_tunecore_Remastered_Guitar,6,3,_tunecore_Remastered_Guitar,0.057374950498342514,0
52,100,0.1,34,1,26,_tunecore_Remastered_Guitar,6,2,_tunecore_Remastered_Guitar,0.99985671043396,1
63,100,0.2818181818181818,285,1,26,_tunecore_Remastered_Guitar,6,5,_tunecore_Remastered_Guitar,0.29645174741744995,0
63,100,0.3409090909090909,694,1,26,_tunecore_Remastered_Guitar,6,5,_tunecore_Remastered_Guitar,0.297279953956604,0
57,100,0.21818181818181817,858,0,26,_tunecore_Remastered_Guitar,6,3,_tunecore_Remastered_Guitar,0.31309059262275696,0
57,100,0.2,30,1,27,_tunecore_Remastered_Guitar,6,3,_tunecore_Remastered_Guitar,0.9996957778930664,1
57,100,0.1590909090909091,79,0,27,_tunecore_Remastered_Guitar,6,3,_tunecore_Remastered_Guitar,0.04277100786566734,0
57,100,0.1,127,0,27,_tunecore_Remastered_Guitar,6,2,_tunecore_Remastered_Guitar,0.032484591007232666,0
57,100,0.4590909090909091,198,0,27,_tunecore_Remastered_Guitar,6,7,_tunecore_Remastered_Guitar,0.03034829907119274,0
64,100,0.5181818181818182,461,1,27,_tunecore_Remastered_Guitar,6,8,_tunecore_Remastered_Guitar,0.031018780544400215,0
64,100,0.2,598,0,27,_tunecore_Remastered_Guitar,6,3,_tunecore_Remastered_Guitar,0.03545696660876274,0
64,100,0.11818181818181818,677,0,27,_tunecore_Remastered_Guitar,6,2,_tunecore_Remastered_Guitar,0.04154400900006294,0
61,100,0.38181818181818183,704,0,27,_tunecore_Remastered_Guitar,6,6,_tunecore_Remastered_Guitar,0.04498247802257538,0
61,100,0.38181818181818183,791,0,27,_tunecore_Remastered_Guitar,6,6,_tunecore_Remastered_Guitar,0.04632026329636574,0
52,100,0.2,154,1,28,_tunecore_Remastered_Guitar,6,3,_tunecore_Remastered_Guitar,0.9997733235359192,1
52,100,0.3,206,0,28,_tunecore_Remastered_Guitar,6,5,_tunecore_Remastered_Guitar,0.07999540120363235,0
52,100,0.11818181818181818,281,0,28,_tunecore_Remastered_Guitar,6,2,_tunecore_Remastered_Guitar,0.07319246977567673,0
52,100,0.5409090909090909,430,0,28,_tunecore_Remastered_Guitar,6,9,_tunecore_Remastered_Guitar,0.07602375000715256,0
59,100,0.12272727272727273,553,0,28,_tunecore_Remastered_Guitar,6,2,_tunecore_Remastered_Guitar,0.08764448761940002,0
59,100,0.11818181818181818,646,0,28,_tunecore_Remastered_Guitar,6,2,_tunecore_Remastered_Guitar,0.09471216052770615,0
59,100,0.11818181818181818,835,0,28,_tunecore_Remastered_Guitar,6,2,_tunecore_Remastered_Guitar,0.08579425513744354,0
59,100,0.1,210,1,29,_tunecore_Remastered_Guitar,6,2,_tunecore_Remastered_Guitar,0.9998605251312256,1
52,100,0.7227272727272728,364,0,29,_tunecore_Remastered_Guitar,6,12,_tunecore_Remastered_Guitar,0.2966170012950897,0
52,100,0.5818181818181818,576,0,29,_tunecore_Remastered_Guitar,6,9,_tunecore_Remastered_Guitar,0.2949952185153961,0
52,100,0.2636363636363636,818,1,29,_tunecore_Remastered_Guitar,6,4,_tunecore_Remastered_Guitar,0.3111659288406372,0
64,100,0.23636363636363636,281,1,30,_tunecore_Remastered_Guitar,6,4,_tunecore_Remastered_Guitar,0.9998362064361572,1
61,100,0.37727272727272726,515,1,30,_tunecore_Remastered_Guitar,6,6,_tunecore_Remastered_Guitar,0.39244335889816284,0
61,100,0.1,822,1,30,_tunecore_Remastered_Guitar,6,2,_tunecore_Remastered_Guitar,0.43232986330986023,0
71,100,0.11818181818181818,30,1,31,_tunecore_Remastered_Guitar,6,2,_tunecore_Remastered_Guitar,0.9997370839118958,1
52,100,0.22272727272727272,179,0,31,_tunecore_Remastered_Guitar,6,4,_tunecore_Remastered_Guitar,0.05626320466399193,0
52,100,0.1590909090909091,260,0,31,_tunecore_Remastered_Guitar,6,3,_tunecore_Remastered_Guitar,0.0465274341404438,0
59,100,0.12272727272727273,453,0,31,_tunecore_Remastered_Guitar,6,2,_tunecore_Remastered_Guitar,0.04724445939064026,0
63,100,0.2590909090909091,646,0,31,_tunecore_Remastered_Guitar,6,4,_tunecore_Remastered_Guitar,0.05079258605837822,0
54,100,0.12272727272727273,739,0,31,_tunecore_Remastered_Guitar,6,2,_tunecore_Remastered_Guitar,0.06321938335895538,0
59,100,0.16363636363636364,818,0,31,_tunecore_Remastered_Guitar,6,3,_tunecore_Remastered_Guitar,0.06550901383161545,0
52,100,0.8409090909090909,862,0,31,_tunecore_Remastered_Guitar,6,13,_tunecore_Remastered_Guitar,0.060152817517519,0
68,100,0.13636363636363635,281,1,32,_tunecore_Remastered_Guitar,6,2,_tunecore_Remastered_Guitar,0.9998551607131958,1
59,100,0.16363636363636364,421,0,32,_tunecore_Remastered_Guitar,6,3,_tunecore_Remastered_Guitar,0.3211856782436371,0
59,100,0.11818181818181818,506,0,32,_tunecore_Remastered_Guitar,6,2,_tunecore_Remastered_Guitar,0.29155808687210083,0
64,100,0.2,778,1,32,_tunecore_Remastered_Guitar,6,3,_tunecore_Remastered_Guitar,0.3029870390892029,0
61,100,0.4772727272727273,105,1,33,_tunecore_Remastered_Guitar,6,8,_tunecore_Remastered_Guitar,0.9997941851615906,1
64,100,0.1590909090909091,211,0,33,_tunecore_Remastered_Guitar,6,3,_tunecore_Remastered_Guitar,0.13601717352867126,0
64,100,0.3409090909090909,268,0,33,_tunecore_Remastered_Guitar,6,5,_tunecore_Remastered_Guitar,0.12084761261940002,0
61,100,0.1409090909090909,351,0,33,_tunecore_Remastered_Guitar,6,2,_tunecore_Remastered_Guitar,0.13447803258895874,0
68,100,0.17727272727272728,448,0,33,_tunecore_Remastered_Guitar,6,3,_tunecore_Remastered_Guitar,0.14424437284469604,0
68,100,0.5,509,0,33,_tunecore_Remastered_Guitar,6,8,_tunecore_Remastered_Guitar,0.13128265738487244,0
52,100,0.6590909090909091,461,1,34,_tunecore_Remastered_Guitar,6,11,_tunecore_Remastered_Guitar,0.9928032755851746,0
61,100,0.12272727272727273,364,1,35,_tunecore_Remastered_Guitar,6,2,_tunecore_Remastered_Guitar,0.9998433589935303,1
64,100,0.16363636363636364,399,0,35,_tunecore_Remastered_Guitar,6,3,_tunecore_Remastered_Guitar,0.21069492399692535,0
64,100,0.1409090909090909,474,0,35,_tunecore_Remastered_Guitar,6,2,_tunecore_Remastered_Guitar,0.1905655711889267,0
61,100,0.2,641,0,35,_tunecore_Remastered_Guitar,6,3,_tunecore_Remastered_Guitar,0.2017185389995575,0
52,100,0.2590909090909091,866,0,35,_tunecore_Remastered_Guitar,6,4,_tunecore_Remastered_Guitar,0.19967694580554962,0
52,100,0.5227272727272727,268,1,36,_tunecore_Remastered_Guitar,6,8,_tunecore_Remastered_Guitar,0.9998243451118469,1
59,100,0.1590909090909091,545,1,36,_tunecore_Remastered_Guitar,6,3,_tunecore_Remastered_Guitar,0.41503968834877014,0
59,100,0.32272727272727275,606,0,36,_tunecore_Remastered_Guitar,6,5,_tunecore_Remastered_Guitar,0.42789095640182495,0
52,100,0.6181818181818182,75,1,37,_tunecore_Remastered_Guitar,6,10,_tunecore_Remastered_Guitar,0.9998231530189514,1
61,100,0.1409090909090909,708,1,37,_tunecore_Remastered_Guitar,6,2,_tunecore_Remastered_Guitar,0.42818593978881836,0
61,100,0.2590909090909091,791,0,37,_tunecore_Remastered_Guitar,6,4,_tunecore_Remastered_Guitar,0.4202234148979187,0
64,100,0.1409090909090909,0,1,38,_tunecore_Remastered_Guitar,6,2,_tunecore_Remastered_Guitar,0.9997139573097229,1
61,100,0.18181818181818182,56,0,38,_tunecore_Remastered_Guitar,6,3,_tunecore_Remastered_Guitar,0.04194025695323944,0
64,100,0.12272727272727273,123,0,38,_tunecore_Remastered_Guitar,6,2,_tunecore_Remastered_Guitar,0.033529531210660934,0
61,100,0.3,215,0,38,_tunecore_Remastered_Guitar,6,5,_tunecore_Remastered_Guitar,0.028154945001006126,0
64,100,0.17727272727272728,281,0,38,_tunecore_Remastered_Guitar,6,3,_tunecore_Remastered_Guitar,0.031941674649715424,0
57,100,0.3,330,0,38,_tunecore_Remastered_Guitar,6,5,_tunecore_Remastered_Guitar,0.03243396803736687,0
57,100,0.1,471,0,38,_tunecore_Remastered_Guitar,6,2,_tunecore_Remastered_Guitar,0.039639100432395935,0
61,100,0.23636363636363636,765,1,38,_tunecore_Remastered_Guitar,6,4,_tunecore_Remastered_Guitar,0.049847498536109924,0
52,100,0.17727272727272728,831,0,38,_tunecore_Remastered_Guitar,6,3,_tunecore_Remastered_Guitar,0.04534604027867317,0
59,100,0.5818181818181818,136,1,39,_tunecore_Remastered_Guitar,6,9,_tunecore_Remastered_Guitar,0.9997461438179016,1
59,100,0.13636363636363635,281,0,39,_tunecore_Remastered_Guitar,6,2,_tunecore_Remastered_Guitar,0.08804506063461304,0
63,100,0.1590909090909091,321,0,39,_tunecore_Remastered_Guitar,6,3,_tunecore_Remastered_Guitar,0.07588977366685867,0
57,100,0.17727272727272728,700,1,39,_tunecore_Remastered_Guitar,6,3,_tunecore_Remastered_Guitar,0.08208312839269638,0
57,100,0.12272727272727273,751,0,39,_tunecore_Remastered_Guitar,6,2,_tunecore_Remastered_Guitar,0.09477946162223816,0
52,100,0.2409090909090909,778,0,39,_tunecore_Remastered_Guitar,6,4,_tunecore_Remastered_Guitar,0.09984033554792404,0
64,100,0.6818181818181818,839,0,39,_tunecore_Remastered_Guitar,6,11,_tunecore_Remastered_Guitar,0.08455533534288406,0
52,100,0.11818181818181818,150,1,40,_tunecore_Remastered_Guitar,6,2,_tunecore_Remastered_Guitar,0.9997748732566833,1
64,100,0.9,188,0,40,_tunecore_Remastered_Guitar,6,14,_tunecore_Remastered_Guitar,0.07109388709068298,0
61,100,0.11818181818181818,391,0,40,_tunecore_Remastered_Guitar,6,2,_tunecore_Remastered_Guitar,0.07848914712667465,0
61,100,0.3,431,0,40,_tunecore_Remastered_Guitar,6,5,_tunecore_Remastered_Guitar,0.08040560036897659,0
61,100,0.5227272727272727,541,0,40,_tunecore_Remastered_Guitar,6,8,_tunecore_Remastered_Guitar,0.08574414998292923,0
61,100,0.5772727272727273,668,0,40,_tunecore_Remastered_Guitar,6,9,_tunecore_Remastered_Guitar,0.09923374652862549,0
52,100,0.7,801,0,40,_tunecore_Remastered_Guitar,6,11,_tunecore_Remastered_Guitar,0.09208038449287415,0
64,100,0.6227272727272727,201,1,41,_tunecore_Remastered_Guitar,6,10,_tunecore_Remastered_Guitar,0.9998490810394287,1
64,100,0.13636363636363635,458,1,41,_tunecore_Remastered_Guitar,6,2,_tunecore_Remastered_Guitar,0.32996582984924316,0
63,100,1.040909090909091,628,0,41,_tunecore_Remastered_Guitar,6,15,_tunecore_Remastered_Guitar,0.2611973285675049,0
64,100,0.1590909090909091,858,0,41,_tunecore_Remastered_Guitar,6,3,_tunecore_Remastered_Guitar,0.3426811397075653,0
59,100,0.2409090909090909,26,1,42,_tunecore_Remastered_Guitar,6,4,_tunecore_Remastered_Guitar,0.9998457431793213,1
59,100,0.4818181818181818,91,0,42,_tunecore_Remastered_Guitar,6,8,_tunecore_Remastered_Guitar,0.31684884428977966,0
61,100,0.2,370,1,42,_tunecore_Remastered_Guitar,6,3,_tunecore_Remastered_Guitar,0.30487409234046936,0
64,100,0.32272727272727275,796,1,42,_tunecore_Remastered_Guitar,6,5,_tunecore_Remastered_Guitar,0.3140915036201477,0
66,100,0.37727272727272726,413,1,43,_tunecore_Remastered_Guitar,6,6,_tunecore_Remastered_Guitar,0.999847412109375,1
68,100,0.4590909090909091,584,0,43,_tunecore_Remastered_Guitar,6,7,_tunecore_Remastered_Guitar,0.3261815309524536,0
59,100,0.1,801,0,43,_tunecore_Remastered_Guitar,6,2,_tunecore_Remastered_Guitar,0.30094295740127563,0
52,100,0.6181818181818182,836,0,43,_tunecore_Remastered_Guitar,6,10,_tunecore_Remastered_Guitar,0.3027862012386322,0
59,100,0.3,171,1,44,_tunecore_Remastered_Guitar,6,5,_tunecore_Remastered_Guitar,0.9998282194137573,1
61,100,0.5590909090909091,241,0,44,_tunecore_Remastered_Guitar,6,9,_tunecore_Remastered_Guitar,0.211142435669899,0
64,100,0.4818181818181818,373,0,44,_tunecore_Remastered_Guitar,6,8,_tunecore_Remastered_Guitar,0.21055631339550018,0
66,100,0.4818181818181818,509,0,44,_tunecore_Remastered_Guitar,6,8,_tunecore_Remastered_Guitar,0.21348685026168823,0
66,100,0.9636363636363636,664,0,44,_tunecore_Remastered_Guitar,6,15,_tunecore_Remastered_Guitar,0.20222483575344086,0
64,100,0.4772727272727273,185,1,45,_tunecore_Remastered_Guitar,6,8,_tunecore_Remastered_Guitar,0.9997307658195496,1
61,100,0.17727272727272728,295,0,45,_tunecore_Remastered_Guitar,6,3,_tunecore_Remastered_Guitar,0.05404804274439812,0
59,100,0.16363636363636364,334,0,45,_tunecore_Remastered_Guitar,6,3,_tunecore_Remastered_Guitar,0.04718649387359619,0
59,100,0.1409090909090909,373,0,45,_tunecore_Remastered_Guitar,6,2,_tunecore_Remastered_Guitar,0.04726660996675491,0
59,100,1.2818181818181817,418,0,45,_tunecore_Remastered_Guitar,6,15,_tunecore_Remastered_Guitar,0.04549998790025711,0
64,100,0.2590909090909091,700,1,45,_tunecore_Remastered_Guitar,6,4,_tunecore_Remastered_Guitar,0.07109895348548889,0
61,100,0.23636363636363636,765,0,45,_tunecore_Remastered_Guitar,6,4,_tunecore_Remastered_Guitar,0.0688062310218811,0
64,100,0.2590909090909091,836,0,45,_tunecore_Remastered_Guitar,6,4,_tunecore_Remastered_Guitar,0.06324537098407745,0
59,100,0.3181818181818182,370,1,46,_tunecore_Remastered_Guitar,6,5,_tunecore_Remastered_Guitar,0.9998500347137451,1
61,100,0.3,440,0,46,_tunecore_Remastered_Guitar,6,5,_tunecore_Remastered_Guitar,0.32657569646835327,0
64,100,0.21818181818181817,528,0,46,_tunecore_Remastered_Guitar,6,3,_tunecore_Remastered_Guitar,0.29940611124038696,0
61,100,0.42272727272727273,716,0,46,_tunecore_Remastered_Guitar,6,7,_tunecore_Remastered_Guitar,0.30052462220191956,0
68,100,0.18181818181818182,4,1,47,_tunecore_Remastered_Guitar,6,3,_tunecore_Remastered_Guitar,0.9997977614402771,1
66,100,0.2590909090909091,56,0,47,_tunecore_Remastered_Guitar,6,4,_tunecore_Remastered_Guitar,0.13193154335021973,0
64,100,0.7772727272727272,141,0,47,_tunecore_Remastered_Guitar,6,12,_tunecore_Remastered_Guitar,0.11726585030555725,0
66,100,1.6,316,0,47,_tunecore_Remastered_Guitar,6,15,_tunecore_Remastered_Guitar,0.1267772614955902,0
64,100,0.6409090909090909,673,1,47,_tunecore_Remastered_Guitar,6,10,_tunecore_Remastered_Guitar,0.17401517927646637,0
63,100,0.22272727272727272,839,0,47,_tunecore_Remastered_Guitar,6,4,_tunecore_Remastered_Guitar,0.14461645483970642,0
64,100,1.9,75,1,48,_tunecore_Remastered_Guitar,6,15,_tunecore_Remastered_Guitar,0.9994691014289856,1
52,100,0.740909090909091,493,1,48,_tunecore_Remastered_Guitar,6,12,_tunecore_Remastered_Guitar,0.587153434753418,0
52,100,0.21818181818181817,96,1,49,_tunecore_Remastered_Guitar,6,3,_tunecore_Remastered_Guitar,0.9998589754104614,1
61,100,0.1590909090909091,351,1,49,_tunecore_Remastered_Guitar,6,3,_tunecore_Remastered_Guitar,0.3074508309364319,0
61,100,0.11818181818181818,506,0,49,_tunecore_Remastered_Guitar,6,2,_tunecore_Remastered_Guitar,0.29677748680114746,0
61,100,0.5227272727272727,598,0,49,_tunecore_Remastered_Guitar,6,8,_tunecore_Remastered_Guitar,0.2960251569747925,0
64,100,0.2,185,1,50,_tunecore_Remastered_Guitar,6,3,_tunecore_Remastered_Guitar,0.9998630285263062,1
52,100,0.13636363636363635,348,0,50,_tunecore_Remastered_Guitar,6,2,_tunecore_Remastered_Guitar,0.3152614235877991,0
59,100,0.1,421,0,50,_tunecore_Remastered_Guitar,6,2,_tunecore_Remastered_Guitar,0.28556177020072937,0
59,100,0.11818181818181818,558,0,50,_tunecore_Remastered_Guitar,6,2,_tunecore_Remastered_Guitar,0.29679790139198303,0
52,100,0.740909090909091,110,1,51,_tunecore_Remastered_Guitar,6,12,_tunecore_Remastered_Guitar,0.999596893787384,1
52,100,0.2772727272727273,458,1,51,_tunecore_Remastered_Guitar,6,4,_tunecore_Remastered_Guitar,0.5611734986305237,0
61,100,0.41818181818181815,198,1,52,_tunecore_Remastered_Guitar,6,7,_tunecore_Remastered_Guitar,0.9998353719711304,1
57,100,0.33636363636363636,370,0,52,_tunecore_Remastered_Guitar,6,5,_tunecore_Remastered_Guitar,0.2026130110025406,0
52,100,0.1590909090909091,448,0,52,_tunecore_Remastered_Guitar,6,3,_tunecore_Remastered_Guitar,0.20612335205078125,0
52,100,0.21818181818181817,581,0,52,_tunecore_Remastered_Guitar,6,3,_tunecore_Remastered_Guitar,0.20404687523841858,0
59,100,0.2,651,0,52,_tunecore_Remastered_Guitar,6,3,_tunecore_Remastered_Guitar,0.200253427028656,0
59,100,0.1409090909090909,176,1,53,_tunecore_Remastered_Guitar,6,2,_tunecore_Remastered_Guitar,0.9998500347137451,1
59,100,0.35909090909090907,238,0,53,_tunecore_Remastered_Guitar,6,6,_tunecore_Remastered_Guitar,0.31850549578666687,0
59,100,0.16363636363636364,554,1,53,_tunecore_Remastered_Guitar,6,3,_tunecore_Remastered_Guitar,0.298147052526474,0
52,100,0.3,818,1,53,_tunecore_Remastered_Guitar,6,5,_tunecore_Remastered_Guitar,0.3094349503517151,0
52,100,0.2,88,1,54,_tunecore_Remastered_Guitar,6,3,_tunecore_Remastered_Guitar,0.9998399019241333,1
61,100,0.17727272727272728,141,0,54,_tunecore_Remastered_Guitar,6,3,_tunecore_Remastered_Guitar,0.20106999576091766,0
52,100,0.22272727272727272,201,0,54,_tunecore_Remastered_Guitar,6,4,_tunecore_Remastered_Guitar,0.20326878130435944,0
54,100,0.4,276,0,54,_tunecore_Remastered_Guitar,6,6,_tunecore_Remastered_Guitar,0.1937018781900406,0
54,100,0.2409090909090909,761,1,54,_tunecore_Remastered_Guitar,6,4,_tunecore_Remastered_Guitar,0.20801261067390442,0
52,100,0.12272727272727273,56,1,55,_tunecore_Remastered_Guitar,6,2,_tunecore_Remastered_Guitar,0.999661922454834,1
57,100,0.1409090909090909,628,1,55,_tunecore_Remastered_Guitar,6,2,_tunecore_Remastered_Guitar,0.5385704636573792,0
54,100,0.2,158,1,56,_tunecore_Remastered_Guitar,6,3,_tunecore_Remastered_Guitar,0.993217408657074,0
57,100,0.3,593,1,57,_tunecore_Remastered_Guitar,6,5,_tunecore_Remastered_Guitar,0.9995939135551453,1
54,100,0.23636363636363636,875,1,57,_tunecore_Remastered_Guitar,6,4,_tunecore_Remastered_Guitar,0.5615530014038086,0
61,100,0.4590909090909091,823,1,58,_tunecore_Remastered_Guitar,6,7,_tunecore_Remastered_Guitar,0.992731511592865,0
68,100,0.1409090909090909,118,1,59,_tunecore_Remastered_Guitar,6,2,_tunecore_Remastered_Guitar,0.9997298121452332,1
66,100,0.21818181818181817,171,0,59,_tunecore_Remastered_Guitar,6,3,_tunecore_Remastered_Guitar,0.05405538156628609,0
64,100,0.23636363636363636,238,0,59,_tunecore_Remastered_Guitar,6,4,_tunecore_Remastered_Guitar,0.04822426289319992,0
66,100,0.3,303,0,59,_tunecore_Remastered_Guitar,6,5,_tunecore_Remastered_Guitar,0.04435887187719345,0
64,100,0.32272727272727275,444,0,59,_tunecore_Remastered_Guitar,6,5,_tunecore_Remastered_Guitar,0.052260205149650574,0
59,100,0.1409090909090909,681,1,59,_tunecore_Remastered_Guitar,6,2,_tunecore_Remastered_Guitar,0.05961114540696144,0
63,100,0.12272727272727273,804,0,59,_tunecore_Remastered_Guitar,6,2,_tunecore_Remastered_Guitar,0.06356053799390793,0
63,100,0.1,861,0,59,_tunecore_Remastered_Guitar,6,2,_tunecore_Remastered_Guitar,0.0626775398850441,0
57,100,0.1409090909090909,48,1,60,_tunecore_Remastered_Guitar,6,2,_tunecore_Remastered_Guitar,0.9998325109481812,1
56,100,0.12272727272727273,606,1,60,_tunecore_Remastered_Guitar,6,2,_tunecore_Remastered_Guitar,0.417889803647995,0
63,100,0.11818181818181818,831,0,60,_tunecore_Remastered_Guitar,6,2,_tunecore_Remastered_Guitar,0.4118668735027313,0
57,100,0.12272727272727273,224,1,61,_tunecore_Remastered_Guitar,6,2,_tunecore_Remastered_Guitar,0.9998421669006348,1
66,100,0.13636363636363635,413,0,61,_tunecore_Remastered_Guitar,6,2,_tunecore_Remastered_Guitar,0.20954261720180511,0
66,100,0.2,756,1,61,_tunecore_Remastered_Guitar,6,3,_tunecore_Remastered_Guitar,0.19765368103981018,0
66,100,0.1,826,0,61,_tunecore_Remastered_Guitar,6,2,_tunecore_Remastered_Guitar,0.2036808431148529,0
63,100,0.1409090909090909,858,0,61,_tunecore_Remastered_Guitar,6,2,_tunecore_Remastered_Guitar,0.1968550682067871,0
63,100,0.9590909090909091,13,1,62,_tunecore_Remastered_Guitar,6,15,_tunecore_Remastered_Guitar,0.9997900128364563,1
63,100,0.1,386,1,62,_tunecore_Remastered_Guitar,6,2,_tunecore_Remastered_Guitar,0.46561819314956665,0
63,100,0.3,448,0,62,_tunecore_Remastered_Guitar,6,5,_tunecore_Remastered_Guitar,0.4312565326690674,0
61,100,0.12272727272727273,13,1,63,_tunecore_Remastered_Guitar,6,2,_tunecore_Remastered_Guitar,0.9998371601104736,1
54,100,0.9,325,1,63,_tunecore_Remastered_Guitar,6,14,_tunecore_Remastered_Guitar,0.18319696187973022,0
54,100,0.32272727272727275,554,0,63,_tunecore_Remastered_Guitar,6,5,_tunecore_Remastered_Guitar,0.21769200265407562,0
56,100,0.22272727272727272,641,0,63,_tunecore_Remastered_Guitar,6,4,_tunecore_Remastered_Guitar,0.21466806530952454,0
54,100,0.18181818181818182,726,0,63,_tunecore_Remastered_Guitar,6,3,_tunecore_Remastered_Guitar,0.2093650847673416,0
59,100,0.1590909090909091,832,1,64,_tunecore_Remastered_Guitar,6,3,_tunecore_Remastered_Guitar,0.9932597279548645,0
64,100,0.35909090909090907,475,1,65,_tunecore_Remastered_Guitar,6,6,_tunecore_Remastered_Guitar,0.9996546506881714,1
52,100,0.38181818181818183,572,0,65,_tunecore_Remastered_Guitar,6,6,_tunecore_Remastered_Guitar,0.5430773496627808,0
59,100,0.5772727272727273,119,1,66,_tunecore_Remastered_Guitar,6,9,_tunecore_Remastered_Guitar,0.9998408555984497,1
54,100,0.2772727272727273,260,0,66,_tunecore_Remastered_Guitar,6,4,_tunecore_Remastered_Guitar,0.32680416107177734,0
61,100,0.18181818181818182,532,1,66,_tunecore_Remastered_Guitar,6,3,_tunecore_Remastered_Guitar,0.2998255789279938,0
52,100,0.21818181818181817,836,1,66,_tunecore_Remastered_Guitar,6,3,_tunecore_Remastered_Guitar,0.3146410882472992,0
61,100,0.2409090909090909,220,1,67,_tunecore_Remastered_Guitar,6,4,_tunecore_Remastered_Guitar,0.999629020690918,1
68,100,0.1,593,1,67,_tunecore_Remastered_Guitar,6,2,_tunecore_Remastered_Guitar,0.5483086705207825,0
56,100,0.1409090909090909,43,1,68,_tunecore_Remastered_Guitar,6,2,_tunecore_Remastered_Guitar,0.9998363256454468,1
61,100,0.4409090909090909,316,1,68,_tunecore_Remastered_Guitar,6,7,_tunecore_Remastered_Guitar,0.39481642842292786,0
59,100,0.18181818181818182,796,1,68,_tunecore_Remastered_Guitar,6,3,_tunecore_Remastered_Guitar,0.4323180615901947,0
52,100,0.21818181818181817,74,1,69,_tunecore_Remastered_Guitar,6,3,_tunecore_Remastered_Guitar,0.9998430013656616,1
52,100,0.3,197,0,69,_tunecore_Remastered_Guitar,6,5,_tunecore_Remastered_Guitar,0.40178757905960083,0
52,100,0.4,426,0,69,_tunecore_Remastered_Guitar,6,6,_tunecore_Remastered_Guitar,0.4230395257472992,0
56,100,0.3409090909090909,13,1,70,_tunecore_Remastered_Guitar,6,5,_tunecore_Remastered_Guitar,0.9997671246528625,1
52,100,0.12272727272727273,267,1,70,_tunecore_Remastered_Guitar,6,2,_tunecore_Remastered_Guitar,0.08332185447216034,0
52,100,0.18181818181818182,333,0,70,_tunecore_Remastered_Guitar,6,3,_tunecore_Remastered_Guitar,0.07171785831451416,0
52,100,0.3409090909090909,443,0,70,_tunecore_Remastered_Guitar,6,5,_tunecore_Remastered_Guitar,0.07795283943414688,0
52,100,0.17727272727272728,559,0,70,_tunecore_Remastered_Guitar,6,3,_tunecore_Remastered_Guitar,0.08566245436668396,0
52,100,0.1409090909090909,713,0,70,_tunecore_Remastered_Guitar,6,2,_tunecore_Remastered_Guitar,0.09367594122886658,0
52,100,0.18181818181818182,760,0,70,_tunecore_Remastered_Guitar,6,3,_tunecore_Remastered_Guitar,0.08339309692382812,0
63,100,0.1409090909090909,396,1,71,_tunecore_Remastered_Guitar,6,2,_tunecore_Remastered_Guitar,0.9998277425765991,1
57,100,0.12272727272727273,576,0,71,_tunecore_Remastered_Guitar,6,2,_tunecore_Remastered_Guitar,0.41201767325401306,0
52,100,0.21818181818181817,703,0,71,_tunecore_Remastered_Guitar,6,3,_tunecore_Remastered_Guitar,0.4305051565170288,0
52,100,0.4409090909090909,53,1,72,_tunecore_Remastered_Guitar,6,7,_tunecore_Remastered_Guitar,0.9996156692504883,1
57,100,0.21818181818181817,747,1,72,_tunecore_Remastered_Guitar,6,3,_tunecore_Remastered_Guitar,0.5505121946334839,0
59,100,0.12272727272727273,686,1,73,_tunecore_Remastered_Guitar,6,2,_tunecore_Remastered_Guitar,0.9996399879455566,1
59,100,0.4,743,0,73,_tunecore_Remastered_Guitar,6,6,_tunecore_Remastered_Guitar,0.5416837930679321,0
57,100,0.1,179,1,74,_tunecore_Remastered_Guitar,6,2,_tunecore_Remastered_Guitar,0.99982750415802,1
59,100,0.2409090909090909,383,0,74,_tunecore_Remastered_Guitar,6,4,_tunecore_Remastered_Guitar,0.4010728895664215,0
57,100,0.37727272727272726,523,0,74,_tunecore_Remastered_Guitar,6,6,_tunecore_Remastered_Guitar,0.42918872833251953,0
57,100,0.11818181818181818,127,1,75,_tunecore_Remastered_Guitar,6,2,_tunecore_Remastered_Guitar,0.9998444318771362,1
59,100,0.12272727272727273,532,1,75,_tunecore_Remastered_Guitar,6,2,_tunecore_Remastered_Guitar,0.32928693294525146,0
54,100,0.4,606,0,75,_tunecore_Remastered_Guitar,6,6,_tunecore_Remastered_Guitar,0.2891837954521179,0
52,100,0.3,810,0,75,_tunecore_Remastered_Guitar,6,5,_tunecore_Remastered_Guitar,0.31100985407829285,0
59,100,0.4,53,1,76,_tunecore_Remastered_Guitar,6,6,_tunecore_Remastered_Guitar,0.9998182654380798,1
59,100,0.7363636363636363,172,0,76,_tunecore_Remastered_Guitar,6,12,_tunecore_Remastered_Guitar,0.2067348212003708,0
59,100,0.2409090909090909,360,0,76,_tunecore_Remastered_Guitar,6,4,_tunecore_Remastered_Guitar,0.2072502225637436,0
59,100,0.41818181818181815,426,0,76,_tunecore_Remastered_Guitar,6,7,_tunecore_Remastered_Guitar,0.21481148898601532,0
52,100,0.18181818181818182,682,1,76,_tunecore_Remastered_Guitar,6,3,_tunecore_Remastered_Guitar,0.2193322330713272,0
52,100,0.2409090909090909,53,1,77,_tunecore_Remastered_Guitar,6,4,_tunecore_Remastered_Guitar,0.9996846914291382,1
52,100,0.17727272727272728,119,0,77,_tunecore_Remastered_Guitar,6,3,_tunecore_Remastered_Guitar,0.03635270521044731,0
52,100,0.37727272727272726,163,0,77,_tunecore_Remastered_Guitar,6,6,_tunecore_Remastered_Guitar,0.024542223662137985,0
64,100,0.1409090909090909,299,0,77,_tunecore_Remastered_Guitar,6,2,_tunecore_Remastered_Guitar,0.02112535946071148,0
64,100,0.3181818181818182,370,0,77,_tunecore_Remastered_Guitar,6,5,_tunecore_Remastered_Guitar,0.018327951431274414,0
61,100,0.1590909090909091,462,0,77,_tunecore_Remastered_Guitar,6,3,_tunecore_Remastered_Guitar,0.01901930384337902,0
64,100,0.11818181818181818,502,0,77,_tunecore_Remastered_Guitar,6,2,_tunecore_Remastered_Guitar,0.02290644496679306,0
61,100,0.35909090909090907,673,0,77,_tunecore_Remastered_Guitar,6,6,_tunecore_Remastered_Guitar,0.027307352051138878,0
52,100,0.1409090909090909,770,0,77,_tunecore_Remastered_Guitar,6,2,_tunecore_Remastered_Guitar,0.03948267176747322,0
52,100,0.12272727272727273,849,0,77,_tunecore_Remastered_Guitar,6,2,_tunecore_Remastered_Guitar,0.037720754742622375,0
52,100,0.38181818181818183,145,1,78,_tunecore_Remastered_Guitar,6,6,_tunecore_Remastered_Guitar,0.9996204376220703,1
54,100,0.5818181818181818,783,1,78,_tunecore_Remastered_Guitar,6,9,_tunecore_Remastered_Guitar,0.5350322723388672,0
52,100,0.2590909090909091,282,1,79,_tunecore_Remastered_Guitar,6,4,_tunecore_Remastered_Guitar,0.9998358488082886,1
52,100,0.2636363636363636,377,0,79,_tunecore_Remastered_Guitar,6,4,_tunecore_Remastered_Guitar,0.41484594345092773,0
52,100,0.2,700,1,79,_tunecore_Remastered_Guitar,6,3,_tunecore_Remastered_Guitar,0.4208793044090271,0
52,100,0.2636363636363636,289,1,80,_tunecore_Remastered_Guitar,6,4,_tunecore_Remastered_Guitar,0.9998431205749512,1
52,100,0.17727272727272728,567,1,80,_tunecore_Remastered_Guitar,6,3,_tunecore_Remastered_Guitar,0.20911012589931488,0
52,100,0.22272727272727272,650,0,80,_tunecore_Remastered_Guitar,6,4,_tunecore_Remastered_Guitar,0.19368430972099304,0
52,100,0.1,716,0,80,_tunecore_Remastered_Guitar,6,2,_tunecore_Remastered_Guitar,0.20705106854438782,0
52,100,0.17727272727272728,832,0,80,_tunecore_Remastered_Guitar,6,3,_tunecore_Remastered_Guitar,0.19323945045471191,0
54,100,0.18181818181818182,386,1,81,_tunecore_Remastered_Guitar,6,3,_tunecore_Remastered_Guitar,0.9998594522476196,1
59,100,0.18181818181818182,430,0,81,_tunecore_Remastered_Guitar,6,3,_tunecore_Remastered_Guitar,0.31755414605140686,0
52,100,0.1590909090909091,673,1,81,_tunecore_Remastered_Guitar,6,3,_tunecore_Remastered_Guitar,0.29286834597587585,0
52,100,0.3,739,0,81,_tunecore_Remastered_Guitar,6,5,_tunecore_Remastered_Guitar,0.29993847012519836,0
52,100,0.22272727272727272,3,1,82,_tunecore_Remastered_Guitar,6,4,_tunecore_Remastered_Guitar,0.9998366832733154,1
52,100,0.33636363636363636,127,0,82,_tunecore_Remastered_Guitar,6,5,_tunecore_Remastered_Guitar,0.3969952464103699,0
56,100,0.2590909090909091,229,0,82,_tunecore_Remastered_Guitar,6,4,_tunecore_Remastered_Guitar,0.42715176939964294,0
52,100,0.21818181818181817,307,1,83,_tunecore_Remastered_Guitar,6,3,_tunecore_Remastered_Guitar,0.9998509883880615,1
52,100,0.4,392,0,83,_tunecore_Remastered_Guitar,6,6,_tunecore_Remastered_Guitar,0.32394614815711975,0
52,100,0.1590909090909091,483,0,83,_tunecore_Remastered_Guitar,6,3,_tunecore_Remastered_Guitar,0.3037760257720947,0
54,100,0.5590909090909091,590,0,83,_tunecore_Remastered_Guitar,6,9,_tunecore_Remastered_Guitar,0.29401740431785583,0
54,100,0.32272727272727275,145,1,84,_tunecore_Remastered_Guitar,6,5,_tunecore_Remastered_Guitar,0.9998525381088257,1
52,100,0.12272727272727273,343,0,84,_tunecore_Remastered_Guitar,6,2,_tunecore_Remastered_Guitar,0.3367723822593689,0
52,100,0.3409090909090909,470,0,84,_tunecore_Remastered_Guitar,6,5,_tunecore_Remastered_Guitar,0.28795161843299866,0
52,100,0.4818181818181818,707,1,84,_tunecore_Remastered_Guitar,6,8,_tunecore_Remastered_Guitar,0.2981798052787781,0
61,100,0.12272727272727273,157,1,85,_tunecore_Remastered_Guitar,6,2,_tunecore_Remastered_Guitar,0.9933517575263977,0
54,100,0.1409090909090909,189,1,86,_tunecore_Remastered_Guitar,6,2,_tunecore_Remastered_Guitar,0.999854326248169,1
63,100,0.35909090909090907,373,0,86,_tunecore_Remastered_Guitar,6,6,_tunecore_Remastered_Guitar,0.303956001996994,0
59,100,0.1,663,1,86,_tunecore_Remastered_Guitar,6,2,_tunecore_Remastered_Guitar,0.3015438914299011,0
52,100,0.17727272727272728,787,0,86,_tunecore_Remastered_Guitar,6,3,_tunecore_Remastered_Guitar,0.3087620139122009,0
57,100,0.5409090909090909,210,1,87,_tunecore_Remastered_Guitar,6,9,_tunecore_Remastered_Guitar,0.9996168613433838,1
52,100,0.1590909090909091,383,0,87,_tunecore_Remastered_Guitar,6,3,_tunecore_Remastered_Guitar,0.5547422170639038,0
52,100,0.3181818181818182,30,1,88,_tunecore_Remastered_Guitar,6,5,_tunecore_Remastered_Guitar,0.9996367692947388,1
59,100,0.2590909090909091,857,1,88,_tunecore_Remastered_Guitar,6,4,_tunecore_Remastered_Guitar,0.541516125202179,0
59,100,0.1409090909090909,176,1,89,_tunecore_Remastered_Guitar,6,2,_tunecore_Remastered_Guitar,0.999849796295166,1
52,100,1.0,352,0,89,_tunecore_Remastered_Guitar,6,15,_tunecore_Remastered_Guitar,0.30193623900413513,0
64,100,0.11818181818181818,800,1,89,_tunecore_Remastered_Guitar,6,2,_tunecore_Remastered_Guitar,0.31707143783569336,0
64,100,0.21818181818181817,832,0,89,_tunecore_Remastered_Guitar,6,3,_tunecore_Remastered_Guitar,0.3061065971851349,0
64,100,0.4,480,1,90,_tunecore_Remastered_Guitar,6,6,_tunecore_Remastered_Guitar,0.9998558759689331,1
59,100,0.1590909090909091,603,0,90,_tunecore_Remastered_Guitar,6,3,_tunecore_Remastered_Guitar,0.31331953406333923,0
52,100,0.7227272727272728,673,0,90,_tunecore_Remastered_Guitar,6,12,_tunecore_Remastered_Guitar,0.28185203671455383,0
59,100,0.22272727272727272,862,0,90,_tunecore_Remastered_Guitar,6,4,_tunecore_Remastered_Guitar,0.31327006220817566,0
59,100,0.12272727272727273,35,1,91,_tunecore_Remastered_Guitar,6,2,_tunecore_Remastered_Guitar,0.9998407363891602,1
59,100,0.6,113,0,91,_tunecore_Remastered_Guitar,6,10,_tunecore_Remastered_Guitar,0.19873107969760895,0
54,100,0.12272727272727273,289,0,91,_tunecore_Remastered_Guitar,6,2,_tunecore_Remastered_Guitar,0.20297540724277496,0
59,100,0.1590909090909091,787,1,91,_tunecore_Remastered_Guitar,6,3,_tunecore_Remastered_Guitar,0.2060530185699463,0
52,100,0.21818181818181817,844,0,91,_tunecore_Remastered_Guitar,6,3,_tunecore_Remastered_Guitar,0.2077193558216095,0
59,100,0.4,22,1,92,_tunecore_Remastered_Guitar,6,6,_tunecore_Remastered_Guitar,0.9998461008071899,1
52,100,0.2,250,0,92,_tunecore_Remastered_Guitar,6,3,_tunecore_Remastered_Guitar,0.3445131182670593,0
52,100,0.3409090909090909,386,0,92,_tunecore_Remastered_Guitar,6,5,_tunecore_Remastered_Guitar,0.28929394483566284,0
52,100,0.35909090909090907,480,0,92,_tunecore_Remastered_Guitar,6,6,_tunecore_Remastered_Guitar,0.30285829305648804,0
52,100,0.2,74,1,93,_tunecore_Remastered_Guitar,6,3,_tunecore_Remastered_Guitar,0.999812662601471,1
52,100,1.1181818181818182,193,0,93,_tunecore_Remastered_Guitar,6,15,_tunecore_Remastered_Guitar,0.10941705107688904,0
52,100,0.21818181818181817,493,1,93,_tunecore_Remastered_Guitar,6,3,_tunecore_Remastered_Guitar,0.1373484581708908,0
52,100,0.1,646,0,93,_tunecore_Remastered_Guitar,6,2,_tunecore_Remastered_Guitar,0.13725687563419342,0
54,100,0.11818181818181818,779,0,93,_tunecore_Remastered_Guitar,6,2,_tunecore_Remastered_Guitar,0.14058886468410492,0
54,100,0.11818181818181818,823,0,93,_tunecore_Remastered_Guitar,6,2,_tunecore_Remastered_Guitar,0.1314583271741867,0
54,100,0.11818181818181818,330,1,94,_tunecore_Remastered_Guitar,6,2,_tunecore_Remastered_Guitar,0.9998412132263184,1
52,100,0.2,462,0,94,_tunecore_Remastered_Guitar,6,3,_tunecore_Remastered_Guitar,0.41138455271720886,0
52,100,0.1590909090909091,739,1,94,_tunecore_Remastered_Guitar,6,3,_tunecore_Remastered_Guitar,0.4226471781730652,0
52,100,0.7181818181818181,0,1,95,_tunecore_Remastered_Guitar,6,11,_tunecore_Remastered_Guitar,0.9998124241828918,1
52,100,0.18181818181818182,563,1,95,_tunecore_Remastered_Guitar,6,3,_tunecore_Remastered_Guitar,0.4341576397418976,0
52,100,1.0227272727272727,695,0,95,_tunecore_Remastered_Guitar,6,15,_tunecore_Remastered_Guitar,0.41954123973846436,0
52,100,0.1,100,1,96,_tunecore_Remastered_Guitar,6,2,_tunecore_Remastered_Guitar,0.9998483657836914,1
52,100,0.3,242,0,96,_tunecore_Remastered_Guitar,6,5,_tunecore_Remastered_Guitar,0.1998155564069748,0
53,100,0.11818181818181818,326,0,96,_tunecore_Remastered_Guitar,6,2,_tunecore_Remastered_Guitar,0.1977597028017044,0
54,100,0.2818181818181818,352,0,96,_tunecore_Remastered_Guitar,6,5,_tunecore_Remastered_Guitar,0.20511478185653687,0
54,100,0.2409090909090909,800,1,96,_tunecore_Remastered_Guitar,6,4,_tunecore_Remastered_Guitar,0.2026776671409607,0
52,100,0.5636363636363636,47,1,97,_tunecore_Remastered_Guitar,6,9,_tunecore_Remastered_Guitar,0.9998233914375305,1
52,100,0.22272727272727272,210,0,97,_tunecore_Remastered_Guitar,6,4,_tunecore_Remastered_Guitar,0.44016167521476746,0
52,100,0.1590909090909091,343,0,97,_tunecore_Remastered_Guitar,6,3,_tunecore_Remastered_Guitar,0.4195517301559448,0
54,100,0.38181818181818183,26,1,98,_tunecore_Remastered_Guitar,6,6,_tunecore_Remastered_Guitar,0.9997538924217224,1
54,100,0.1409090909090909,119,0,98,_tunecore_Remastered_Guitar,6,2,_tunecore_Remastered_Guitar,0.08440563827753067,0
59,100,0.4,202,0,98,_tunecore_Remastered_Guitar,6,6,_tunecore_Remastered_Guitar,0.07094786316156387,0
52,100,0.759090909090909,299,0,98,_tunecore_Remastered_Guitar,6,12,_tunecore_Remastered_Guitar,0.08176934719085693,0
59,100,0.35909090909090907,502,0,98,_tunecore_Remastered_Guitar,6,6,_tunecore_Remastered_Guitar,0.09558799862861633,0
54,100,0.35909090909090907,593,0,98,_tunecore_Remastered_Guitar,6,6,_tunecore_Remastered_Guitar,0.09861623495817184,0
54,100,0.1,870,1,98,_tunecore_Remastered_Guitar,6,2,_tunecore_Remastered_Guitar,0.09590131044387817,0
54,100,0.2,176,1,99,_tunecore_Remastered_Guitar,6,3,_tunecore_Remastered_Guitar,0.9998526573181152,1
52,100,0.21818181818181817,550,1,99,_tunecore_Remastered_Guitar,6,3,_tunecore_Remastered_Guitar,0.3347989320755005,0
52,100,0.4,673,0,99,_tunecore_Remastered_Guitar,6,6,_tunecore_Remastered_Guitar,0.2834240198135376,0
52,100,0.2590909090909091,836,0,99,_tunecore_Remastered_Guitar,6,4,_tunecore_Remastered_Guitar,0.3022094666957855,0
52,100,0.11818181818181818,197,1,100,_tunecore_Remastered_Guitar,6,2,_tunecore_Remastered_Guitar,0.9998164772987366,1
52,100,0.2,303,0,100,_tunecore_Remastered_Guitar,6,3,_tunecore_Remastered_Guitar,0.12146968394517899,0
61,100,0.11818181818181818,396,0,100,_tunecore_Remastered_Guitar,6,2,_tunecore_Remastered_Guitar,0.11771626770496368,0
52,100,0.17727272727272728,580,0,100,_tunecore_Remastered_Guitar,6,3,_tunecore_Remastered_Guitar,0.13354146480560303,0
61,100,0.4,646,0,100,_tunecore_Remastered_Guitar,6,6,_tunecore_Remastered_Guitar,0.13357169926166534,0
64,100,0.12272727272727273,783,0,100,_tunecore_Remastered_Guitar,6,2,_tunecore_Remastered_Guitar,0.13343967497348785,0
64,100,0.11818181818181818,127,1,101,_tunecore_Remastered_Guitar,6,2,_tunecore_Remastered_Guitar,0.9998094439506531,1
64,100,0.1,172,0,101,_tunecore_Remastered_Guitar,6,2,_tunecore_Remastered_Guitar,0.12929797172546387,0
64,100,0.3409090909090909,206,0,101,_tunecore_Remastered_Guitar,6,5,_tunecore_Remastered_Guitar,0.11460297554731369,0
52,100,0.16363636363636364,356,0,101,_tunecore_Remastered_Guitar,6,3,_tunecore_Remastered_Guitar,0.13194935023784637,0
52,100,0.1409090909090909,426,0,101,_tunecore_Remastered_Guitar,6,2,_tunecore_Remastered_Guitar,0.13719525933265686,0
53,100,0.11818181818181818,462,0,101,_tunecore_Remastered_Guitar,6,2,_tunecore_Remastered_Guitar,0.12221746891736984,0
52,100,0.11818181818181818,303,1,102,_tunecore_Remastered_Guitar,6,2,_tunecore_Remastered_Guitar,0.9998587369918823,1
52,100,0.6,590,1,102,_tunecore_Remastered_Guitar,6,10,_tunecore_Remastered_Guitar,0.31131288409233093,0
59,100,0.2409090909090909,800,0,102,_tunecore_Remastered_Guitar,6,4,_tunecore_Remastered_Guitar,0.28937193751335144,0
61,100,0.1,857,0,102,_tunecore_Remastered_Guitar,6,2,_tunecore_Remastered_Guitar,0.30887943506240845,0
64,100,0.32272727272727275,123,1,103,_tunecore_Remastered_Guitar,6,5,_tunecore_Remastered_Guitar,0.9997701048851013,1
66,100,0.1590909090909091,396,1,103,_tunecore_Remastered_Guitar,6,3,_tunecore_Remastered_Guitar,0.07885277271270752,0
68,100,0.37727272727272726,449,0,103,_tunecore_Remastered_Guitar,6,6,_tunecore_Remastered_Guitar,0.07198388874530792,0
66,100,0.37727272727272726,559,0,103,_tunecore_Remastered_Guitar,6,6,_tunecore_Remastered_Guitar,0.07891039550304413,0
66,100,0.17727272727272728,677,0,103,_tunecore_Remastered_Guitar,6,3,_tunecore_Remastered_Guitar,0.09469445794820786,0
64,100,0.1,800,0,103,_tunecore_Remastered_Guitar,6,2,_tunecore_Remastered_Guitar,0.09834519028663635,0
64,100,0.18181818181818182,862,0,103,_tunecore_Remastered_Guitar,6,3,_tunecore_Remastered_Guitar,0.08743772655725479,0
61,100,0.18181818181818182,26,1,104,_tunecore_Remastered_Guitar,6,3,_tunecore_Remastered_Guitar,0.9998307228088379,1
59,100,0.7,69,0,104,_tunecore_Remastered_Guitar,6,11,_tunecore_Remastered_Guitar,0.19423021376132965,0
59,100,0.2590909090909091,255,0,104,_tunecore_Remastered_Guitar,6,4,_tunecore_Remastered_Guitar,0.2156054973602295,0
64,100,0.2590909090909091,440,0,104,_tunecore_Remastered_Guitar,6,4,_tunecore_Remastered_Guitar,0.22089314460754395,0
64,100,0.3,593,0,104,_tunecore_Remastered_Guitar,6,5,_tunecore_Remastered_Guitar,0.205653578042984,0
59,100,0.2,123,1,105,_tunecore_Remastered_Guitar,6,3,_tunecore_Remastered_Guitar,0.9997280240058899,1
61,100,0.37727272727272726,172,0,105,_tunecore_Remastered_Guitar,6,6,_tunecore_Remastered_Guitar,0.05590618774294853,0
64,100,0.2636363636363636,267,0,105,_tunecore_Remastered_Guitar,6,4,_tunecore_Remastered_Guitar,0.048320282250642776,0
59,100,0.1590909090909091,550,1,105,_tunecore_Remastered_Guitar,6,3,_tunecore_Remastered_Guitar,0.047546565532684326,0
66,100,0.1,593,0,105,_tunecore_Remastered_Guitar,6,2,_tunecore_Remastered_Guitar,0.050242844969034195,0
68,100,0.1409090909090909,637,0,105,_tunecore_Remastered_Guitar,6,2,_tunecore_Remastered_Guitar,0.06121862679719925,0
66,100,0.2,690,0,105,_tunecore_Remastered_Guitar,6,3,_tunecore_Remastered_Guitar,0.06437169760465622,0
64,100,0.42272727272727273,739,0,105,_tunecore_Remastered_Guitar,6,7,_tunecore_Remastered_Guitar,0.06186043098568916,0
64,100,0.2409090909090909,0,1,106,_tunecore_Remastered_Guitar,6,4,_tunecore_Remastered_Guitar,0.9998077750205994,1
54,100,0.6,66,0,106,_tunecore_Remastered_Guitar,6,10,_tunecore_Remastered_Guitar,0.12084854394197464,0
66,100,0.6181818181818182,263,0,106,_tunecore_Remastered_Guitar,6,10,_tunecore_Remastered_Guitar,0.11900553852319717,0
52,100,0.38181818181818183,422,0,106,_tunecore_Remastered_Guitar,6,6,_tunecore_Remastered_Guitar,0.14468923211097717,0
59,100,0.11818181818181818,792,1,106,_tunecore_Remastered_Guitar,6,2,_tunecore_Remastered_Guitar,0.14587897062301636,0
59,100,0.5227272727272727,839,0,106,_tunecore_Remastered_Guitar,6,8,_tunecore_Remastered_Guitar,0.13089409470558167,0
60,100,0.2,188,1,45,DL_Guitar,6,3,DL_Guitar,0.9996503591537476,1
71,100,0.2,584,1,45,DL_Guitar,6,3,DL_Guitar,0.5454694628715515,0
52,100,0.1409090909090909,136,1,46,DL_Guitar,6,2,DL_Guitar,0.9998170733451843,1
52,100,0.1590909090909091,185,0,46,DL_Guitar,6,3,DL_Guitar,0.13020634651184082,0
52,100,0.16363636363636364,311,0,46,DL_Guitar,6,3,DL_Guitar,0.12041356414556503,0
52,100,0.2409090909090909,373,0,46,DL_Guitar,6,4,DL_Guitar,0.13388600945472717,0
52,100,0.2818181818181818,681,1,46,DL_Guitar,6,5,DL_Guitar,0.14280584454536438,0
52,100,1.1590909090909092,756,0,46,DL_Guitar,6,15,DL_Guitar,0.11814229935407639,0
52,100,0.38181818181818183,136,1,47,DL_Guitar,6,6,DL_Guitar,0.999829888343811,1
69,100,0.2772727272727273,536,1,47,DL_Guitar,6,4,DL_Guitar,0.39995768666267395,0
52,100,0.21818181818181817,845,1,47,DL_Guitar,6,3,DL_Guitar,0.43625012040138245,0
52,100,0.4590909090909091,18,1,48,DL_Guitar,6,7,DL_Guitar,0.9998496770858765,1
52,100,0.1409090909090909,136,0,48,DL_Guitar,6,2,DL_Guitar,0.32845863699913025,0
52,100,0.6409090909090909,188,0,48,DL_Guitar,6,10,DL_Guitar,0.2779832184314728,0
52,100,0.1409090909090909,338,0,48,DL_Guitar,6,2,DL_Guitar,0.3165568709373474,0
71,100,0.3,228,1,49,DL_Guitar,6,5,DL_Guitar,0.9930493831634521,0
55,100,0.2590909090909091,75,1,50,DL_Guitar,6,4,DL_Guitar,0.9998239874839783,1
71,100,0.16363636363636364,421,1,50,DL_Guitar,6,3,DL_Guitar,0.4276733696460724,0
52,100,0.18181818181818182,796,1,50,DL_Guitar,6,3,DL_Guitar,0.4321206510066986,0
52,100,0.11818181818181818,96,1,51,DL_Guitar,6,2,DL_Guitar,0.9998490810394287,1
52,100,0.37727272727272726,171,0,51,DL_Guitar,6,6,DL_Guitar,0.20133128762245178,0
60,100,0.16363636363636364,268,0,51,DL_Guitar,6,3,DL_Guitar,0.20215626060962677,0
52,100,0.1,545,1,51,DL_Guitar,6,2,DL_Guitar,0.2102196365594864,0
52,100,1.2181818181818183,590,0,51,DL_Guitar,6,15,DL_Guitar,0.18658298254013062,0
69,100,0.2,171,1,52,DL_Guitar,6,3,DL_Guitar,0.9997989535331726,1
69,100,0.22272727272727272,224,0,52,DL_Guitar,6,4,DL_Guitar,0.1322534680366516,0
69,100,0.1590909090909091,361,0,52,DL_Guitar,6,3,DL_Guitar,0.12024783343076706,0
52,100,0.5227272727272727,641,1,52,DL_Guitar,6,8,DL_Guitar,0.13726507127285004,0
64,100,0.11818181818181818,791,0,52,DL_Guitar,6,2,DL_Guitar,0.14796438813209534,0
52,100,0.8227272727272728,839,0,52,DL_Guitar,6,13,DL_Guitar,0.12341547012329102,0
71,100,0.1590909090909091,56,1,54,DL_Guitar,6,3,DL_Guitar,0.9933558702468872,0
64,100,0.1409090909090909,598,1,60,DL_Guitar,6,2,DL_Guitar,0.993720531463623,0
62,100,0.2,246,1,61,DL_Guitar,6,3,DL_Guitar,0.9996483325958252,1
52,100,0.1590909090909091,845,1,61,DL_Guitar,6,3,DL_Guitar,0.5489448308944702,0
52,100,0.12272727272727273,158,1,62,DL_Guitar,6,2,DL_Guitar,0.999848484992981,1
52,100,0.1409090909090909,418,1,62,DL_Guitar,6,2,DL_Guitar,0.2057880163192749,0
52,100,0.35909090909090907,536,0,62,DL_Guitar,6,6,DL_Guitar,0.18806934356689453,0
52,100,0.2818181818181818,729,0,62,DL_Guitar,6,5,DL_Guitar,0.20685411989688873,0
53,100,0.1409090909090909,804,0,62,DL_Guitar,6,2,DL_Guitar,0.19513237476348877,0
60,100,0.2,8,1,63,DL_Guitar,6,3,DL_Guitar,0.9998583793640137,1
60,100,0.2409090909090909,56,0,63,DL_Guitar,6,4,DL_Guitar,0.31703686714172363,0
53,100,0.22272727272727272,136,0,63,DL_Guitar,6,4,DL_Guitar,0.28348198533058167,0
52,100,0.5409090909090909,466,1,63,DL_Guitar,6,9,DL_Guitar,0.3070219159126282,0
52,100,0.18181818181818182,13,1,64,DL_Guitar,6,3,DL_Guitar,0.9998594522476196,1
62,100,0.2,229,0,64,DL_Guitar,6,3,DL_Guitar,0.31240206956863403,0
62,100,0.5772727272727273,559,1,64,DL_Guitar,6,9,DL_Guitar,0.2778643071651459,0
62,100,0.1409090909090909,792,1,64,DL_Guitar,6,2,DL_Guitar,0.31890639662742615,0
62,100,0.11818181818181818,106,1,65,DL_Guitar,6,2,DL_Guitar,0.9996445178985596,1
55,100,0.35909090909090907,413,1,65,DL_Guitar,6,6,DL_Guitar,0.537326455116272,0
62,100,0.8409090909090909,462,1,66,DL_Guitar,6,13,DL_Guitar,0.9995651841163635,1
62,100,0.9409090909090909,713,1,66,DL_Guitar,6,15,DL_Guitar,0.555075466632843,0
52,100,0.3,106,1,67,DL_Guitar,6,5,DL_Guitar,0.9998421669006348,1
60,100,0.1590909090909091,250,0,67,DL_Guitar,6,3,DL_Guitar,0.20791175961494446,0
52,100,0.4818181818181818,320,0,67,DL_Guitar,6,8,DL_Guitar,0.18740960955619812,0
65,100,0.2,700,1,67,DL_Guitar,6,3,DL_Guitar,0.20557980239391327,0
53,100,0.36363636363636365,817,0,67,DL_Guitar,6,6,DL_Guitar,0.19949305057525635,0
53,100,0.4590909090909091,22,1,68,DL_Guitar,6,7,DL_Guitar,0.9996696710586548,1
53,100,0.13636363636363635,216,0,68,DL_Guitar,6,2,DL_Guitar,0.03778635337948799,0
52,100,0.2772727272727273,282,0,68,DL_Guitar,6,4,DL_Guitar,0.025508463382720947,0
52,100,0.2,417,0,68,DL_Guitar,6,3,DL_Guitar,0.021390076726675034,0
52,100,0.37727272727272726,493,0,68,DL_Guitar,6,6,DL_Guitar,0.01875610649585724,0
52,100,0.1,580,0,68,DL_Guitar,6,2,DL_Guitar,0.01960679516196251,0
52,100,0.1,606,0,68,DL_Guitar,6,2,DL_Guitar,0.022803641855716705,0
52,100,0.13636363636363635,633,0,68,DL_Guitar,6,2,DL_Guitar,0.028748707845807076,0
62,100,0.12272727272727273,817,0,68,DL_Guitar,6,2,DL_Guitar,0.036536429077386856,0
62,100,0.3409090909090909,849,0,68,DL_Guitar,6,5,DL_Guitar,0.03704778105020523,0
62,100,0.36363636363636365,69,1,69,DL_Guitar,6,6,DL_Guitar,0.9997238516807556,1
62,100,0.11818181818181818,172,0,69,DL_Guitar,6,2,DL_Guitar,0.05860818922519684,0
62,100,0.2636363636363636,202,0,69,DL_Guitar,6,4,DL_Guitar,0.04597403109073639,0
62,100,0.1409090909090909,383,0,69,DL_Guitar,6,2,DL_Guitar,0.04781101271510124,0
52,100,0.2818181818181818,593,0,69,DL_Guitar,6,5,DL_Guitar,0.052080005407333374,0
52,100,0.1590909090909091,673,0,69,DL_Guitar,6,3,DL_Guitar,0.06173188239336014,0
52,100,0.5363636363636364,722,0,69,DL_Guitar,6,9,DL_Guitar,0.0648619681596756,0
60,100,0.1409090909090909,870,0,69,DL_Guitar,6,2,DL_Guitar,0.060849111527204514,0
53,100,0.38181818181818183,307,1,70,DL_Guitar,6,6,DL_Guitar,0.99979168176651,1
53,100,0.3,396,0,70,DL_Guitar,6,5,DL_Guitar,0.1327187865972519,0
60,100,0.2818181818181818,506,0,70,DL_Guitar,6,5,DL_Guitar,0.1257028877735138,0
52,100,0.5636363636363636,642,0,70,DL_Guitar,6,9,DL_Guitar,0.13539449870586395,0
52,100,0.18181818181818182,770,0,70,DL_Guitar,6,3,DL_Guitar,0.14860643446445465,0
52,100,0.8,839,0,70,DL_Guitar,6,13,DL_Guitar,0.12369254976511002,0
62,100,0.1,417,1,71,DL_Guitar,6,2,DL_Guitar,0.999858021736145,1
62,100,0.21818181818181817,493,0,71,DL_Guitar,6,3,DL_Guitar,0.31762659549713135,0
62,100,0.6409090909090909,650,0,71,DL_Guitar,6,10,DL_Guitar,0.2801324129104614,0
62,100,0.1590909090909091,823,0,71,DL_Guitar,6,3,DL_Guitar,0.32222670316696167,0
52,100,0.2,399,1,72,DL_Guitar,6,3,DL_Guitar,0.9998443126678467,1
53,100,0.33636363636363636,457,0,72,DL_Guitar,6,5,DL_Guitar,0.19740743935108185,0
53,100,0.16363636363636364,576,0,72,DL_Guitar,6,3,DL_Guitar,0.19289612770080566,0
53,100,0.1590909090909091,660,0,72,DL_Guitar,6,3,DL_Guitar,0.20381587743759155,0
60,100,0.1,734,0,72,DL_Guitar,6,2,DL_Guitar,0.2009744942188263,0
53,100,0.2,30,1,73,DL_Guitar,6,3,DL_Guitar,0.9998517036437988,1
55,100,0.6181818181818182,413,1,73,DL_Guitar,6,10,DL_Guitar,0.2940126359462738,0
55,100,0.35909090909090907,590,0,73,DL_Guitar,6,6,DL_Guitar,0.3077526390552521,0
55,100,0.5,722,0,73,DL_Guitar,6,8,DL_Guitar,0.3120027780532837,0
53,100,0.42272727272727273,796,1,74,DL_Guitar,6,7,DL_Guitar,0.993157684803009,0
53,100,0.4590909090909091,62,1,75,DL_Guitar,6,7,DL_Guitar,0.9998329877853394,1
60,100,0.17727272727272728,250,0,75,DL_Guitar,6,3,DL_Guitar,0.21614286303520203,0
53,100,0.1,303,0,75,DL_Guitar,6,2,DL_Guitar,0.1909932941198349,0
53,100,0.12272727272727273,356,0,75,DL_Guitar,6,2,DL_Guitar,0.2075510174036026,0
53,100,0.1590909090909091,417,0,75,DL_Guitar,6,3,DL_Guitar,0.20048788189888,0
52,100,0.2818181818181818,92,1,76,DL_Guitar,6,5,DL_Guitar,0.9997379183769226,1
52,100,0.1,263,0,76,DL_Guitar,6,2,DL_Guitar,0.05611628666520119,0
52,100,0.2,352,0,76,DL_Guitar,6,3,DL_Guitar,0.04627465084195137,0
52,100,0.2636363636363636,399,0,76,DL_Guitar,6,4,DL_Guitar,0.045676566660404205,0
52,100,0.17727272727272728,480,0,76,DL_Guitar,6,3,DL_Guitar,0.05106213688850403,0
52,100,0.1409090909090909,563,0,76,DL_Guitar,6,2,DL_Guitar,0.054852236062288284,0
52,100,0.2,624,0,76,DL_Guitar,6,3,DL_Guitar,0.06348205357789993,0
53,100,0.12272727272727273,729,0,76,DL_Guitar,6,2,DL_Guitar,0.05900996923446655,0
52,100,0.2,157,1,77,DL_Guitar,6,3,DL_Guitar,0.9997743964195251,1
53,100,0.35909090909090907,263,0,77,DL_Guitar,6,6,DL_Guitar,0.07451988756656647,0
53,100,0.1590909090909091,417,0,77,DL_Guitar,6,3,DL_Guitar,0.07306467741727829,0
53,100,0.11818181818181818,457,0,77,DL_Guitar,6,2,DL_Guitar,0.07794088870286942,0
53,100,0.6,523,0,77,DL_Guitar,6,10,DL_Guitar,0.08179881423711777,0
53,100,0.16363636363636364,663,0,77,DL_Guitar,6,3,DL_Guitar,0.09988875687122345,0
60,100,0.11818181818181818,713,0,77,DL_Guitar,6,2,DL_Guitar,0.0876043289899826,0
53,100,0.12272727272727273,35,1,78,DL_Guitar,6,2,DL_Guitar,0.9998619556427002,1
64,100,0.13636363636363635,260,0,78,DL_Guitar,6,2,DL_Guitar,0.3170411288738251,0
52,100,0.1409090909090909,316,0,78,DL_Guitar,6,2,DL_Guitar,0.2945188879966736,0
57,100,0.42272727272727273,466,0,78,DL_Guitar,6,7,DL_Guitar,0.293429434299469,0
52,100,0.7181818181818181,810,1,80,DL_Guitar,6,11,DL_Guitar,0.9927942156791687,0
52,100,0.1409090909090909,189,1,81,DL_Guitar,6,2,DL_Guitar,0.999813973903656,1
52,100,0.7181818181818181,263,0,81,DL_Guitar,6,11,DL_Guitar,0.11738916486501694,0
52,100,0.6363636363636364,436,0,81,DL_Guitar,6,10,DL_Guitar,0.12329079210758209,0
52,100,0.6,656,0,81,DL_Guitar,6,10,DL_Guitar,0.13929927349090576,0
52,100,0.1,800,0,81,DL_Guitar,6,2,DL_Guitar,0.15072084963321686,0
52,100,0.5,849,0,81,DL_Guitar,6,8,DL_Guitar,0.12627822160720825,0
53,100,0.35909090909090907,140,1,82,DL_Guitar,6,6,DL_Guitar,0.9998007416725159,1
53,100,0.1590909090909091,326,0,82,DL_Guitar,6,3,DL_Guitar,0.13077078759670258,0
53,100,0.3181818181818182,383,0,82,DL_Guitar,6,5,DL_Guitar,0.1194121241569519,0
53,100,0.2409090909090909,527,0,82,DL_Guitar,6,4,DL_Guitar,0.13933280110359192,0
52,100,0.9,629,0,82,DL_Guitar,6,14,DL_Guitar,0.14401085674762726,0
52,100,0.7636363636363637,839,0,82,DL_Guitar,6,12,DL_Guitar,0.13812997937202454,0
52,100,0.4772727272727273,150,1,83,DL_Guitar,6,8,DL_Guitar,0.9931201934814453,0
52,100,0.7636363636363637,466,1,84,DL_Guitar,6,12,DL_Guitar,0.9998273253440857,1
52,100,0.4590909090909091,682,0,84,DL_Guitar,6,7,DL_Guitar,0.42044028639793396,0
52,100,0.6181818181818182,810,0,84,DL_Guitar,6,10,DL_Guitar,0.4186881482601166,0
52,100,0.2590909090909091,229,1,85,DL_Guitar,6,4,DL_Guitar,0.9998354911804199,1
52,100,0.8,316,0,85,DL_Guitar,6,13,DL_Guitar,0.3894234597682953,0
52,100,0.1409090909090909,514,0,85,DL_Guitar,6,2,DL_Guitar,0.4403887689113617,0
55,100,0.1409090909090909,417,1,86,DL_Guitar,6,2,DL_Guitar,0.9930658340454102,0
65,100,0.3409090909090909,286,1,89,DL_Guitar,6,5,DL_Guitar,0.9932230710983276,0
55,100,0.6818181818181818,572,1,93,DL_Guitar,6,11,DL_Guitar,0.9995619654655457,1
55,100,0.18181818181818182,849,1,93,DL_Guitar,6,3,DL_Guitar,0.5607455968856812,0
78,100,0.17727272727272728,250,1,94,DL_Guitar,6,3,DL_Guitar,0.9998561143875122,1
53,100,0.21818181818181817,360,0,94,DL_Guitar,6,3,DL_Guitar,0.31358081102371216,0
53,100,0.1590909090909091,493,0,94,DL_Guitar,6,3,DL_Guitar,0.29386502504348755,0
61,100,0.2,779,1,94,DL_Guitar,6,3,DL_Guitar,0.30043232440948486,0
53,100,0.12272727272727273,3,1,96,DL_Guitar,6,2,DL_Guitar,0.9998121857643127,1
53,100,0.1590909090909091,140,0,96,DL_Guitar,6,3,DL_Guitar,0.12357979267835617,0
53,100,0.1409090909090909,320,0,96,DL_Guitar,6,2,DL_Guitar,0.11889467388391495,0
53,100,0.2,373,0,96,DL_Guitar,6,3,DL_Guitar,0.1318490207195282,0
56,100,0.1,619,1,96,DL_Guitar,6,2,DL_Guitar,0.1407122015953064,0
61,100,0.1590909090909091,866,1,96,DL_Guitar,6,3,DL_Guitar,0.12712940573692322,0
61,100,0.16363636363636364,47,1,97,DL_Guitar,6,3,DL_Guitar,0.9998505115509033,1
54,100,0.17727272727272728,163,0,97,DL_Guitar,6,3,DL_Guitar,0.3231630027294159,0
54,100,0.3,242,0,97,DL_Guitar,6,5,DL_Guitar,0.28512921929359436,0
53,100,0.1,330,0,97,DL_Guitar,6,2,DL_Guitar,0.3160122036933899,0
61,100,0.12272727272727273,92,1,98,DL_Guitar,6,2,DL_Guitar,0.999852180480957,1
61,100,0.32272727272727275,202,0,98,DL_Guitar,6,5,DL_Guitar,0.3079998791217804,0
61,100,0.13636363636363635,303,0,98,DL_Guitar,6,2,DL_Guitar,0.29607611894607544,0
61,100,0.2,440,0,98,DL_Guitar,6,3,DL_Guitar,0.310207337141037,0
53,100,0.17727272727272728,370,1,100,DL_Guitar,6,3,DL_Guitar,0.9998425245285034,1
53,100,0.1,502,0,100,DL_Guitar,6,2,DL_Guitar,0.20553436875343323,0
53,100,0.1409090909090909,637,0,100,DL_Guitar,6,2,DL_Guitar,0.19462940096855164,0
53,100,0.21818181818181817,779,0,100,DL_Guitar,6,3,DL_Guitar,0.2006223499774933,0
53,100,0.2590909090909091,870,0,100,DL_Guitar,6,4,DL_Guitar,0.19908902049064636,0
53,100,0.11818181818181818,150,1,101,DL_Guitar,6,2,DL_Guitar,0.9998576641082764,1
53,100,0.1,307,0,101,DL_Guitar,6,2,DL_Guitar,0.3062397837638855,0
53,100,0.2818181818181818,409,0,101,DL_Guitar,6,5,DL_Guitar,0.28979381918907166,0
54,100,0.1,734,1,101,DL_Guitar,6,2,DL_Guitar,0.30707260966300964,0
54,100,0.1590909090909091,9,1,102,DL_Guitar,6,3,DL_Guitar,0.9998308420181274,1
53,100,0.1409090909090909,43,0,102,DL_Guitar,6,2,DL_Guitar,0.4137119948863983,0
53,100,0.17727272727272728,633,1,102,DL_Guitar,6,3,DL_Guitar,0.42296066880226135,0
58,100,1.481818181818182,343,1,1,DL_MelancholicFolk_Guitar,6,15,DL_MelancholicFolk_Guitar,0.9993700385093689,1
58,100,2.7181818181818183,681,1,1,DL_MelancholicFolk_Guitar,6,15,DL_MelancholicFolk_Guitar,0.5613092184066772,0
70,100,0.21818181818181817,413,1,2,DL_MelancholicFolk_Guitar,6,3,DL_MelancholicFolk_Guitar,0.9997939467430115,1
58,100,1.2818181818181817,461,0,2,DL_MelancholicFolk_Guitar,6,15,DL_MelancholicFolk_Guitar,0.3879290819168091,0
53,100,0.7227272727272728,752,1,2,DL_MelancholicFolk_Guitar,6,12,DL_MelancholicFolk_Guitar,0.4714069664478302,0
60,100,0.8409090909090909,34,1,3,DL_MelancholicFolk_Guitar,6,13,DL_MelancholicFolk_Guitar,0.9997864365577698,1
60,100,2.6227272727272726,223,0,3,DL_MelancholicFolk_Guitar,6,15,DL_MelancholicFolk_Guitar,0.37827450037002563,0
60,100,0.2,827,1,3,DL_MelancholicFolk_Guitar,6,3,DL_MelancholicFolk_Guitar,0.4892289936542511,0
60,100,0.3181818181818182,194,1,4,DL_MelancholicFolk_Guitar,6,5,DL_MelancholicFolk_Guitar,0.9998366832733154,1
55,100,0.8227272727272728,276,0,4,DL_MelancholicFolk_Guitar,6,13,DL_MelancholicFolk_Guitar,0.17738467454910278,0
62,100,0.7,462,0,4,DL_MelancholicFolk_Guitar,6,11,DL_MelancholicFolk_Guitar,0.21124252676963806,0
65,100,0.1409090909090909,619,0,4,DL_MelancholicFolk_Guitar,6,2,DL_MelancholicFolk_Guitar,0.22569142282009125,0
62,100,0.21818181818181817,682,0,4,DL_MelancholicFolk_Guitar,6,3,DL_MelancholicFolk_Guitar,0.21436946094036102,0
65,100,0.12272727272727273,48,1,5,DL_MelancholicFolk_Guitar,6,2,DL_MelancholicFolk_Guitar,0.9996461868286133,1
62,100,0.5409090909090909,558,1,5,DL_MelancholicFolk_Guitar,6,9,DL_MelancholicFolk_Guitar,0.5366712808609009,0
58,100,0.11818181818181818,128,1,6,DL_MelancholicFolk_Guitar,6,2,DL_MelancholicFolk_Guitar,0.9995957016944885,1
58,100,0.2409090909090909,184,0,6,DL_MelancholicFolk_Guitar,6,4,DL_MelancholicFolk_Guitar,0.5527318120002747,0
58,100,0.1590909090909091,541,1,7,DL_MelancholicFolk_Guitar,6,3,DL_MelancholicFolk_Guitar,0.9923374056816101,1
53,100,0.8227272727272728,620,1,8,DL_MelancholicFolk_Guitar,6,13,DL_MelancholicFolk_Guitar,0.9922469854354858,0
60,100,0.8409090909090909,206,1,9,DL_MelancholicFolk_Guitar,6,13,DL_MelancholicFolk_Guitar,0.9925512075424194,0
60,100,0.4409090909090909,25,1,10,DL_MelancholicFolk_Guitar,6,7,DL_MelancholicFolk_Guitar,0.9931632280349731,0
58,100,0.1,56,1,13,DL_MelancholicFolk_Guitar,6,2,DL_MelancholicFolk_Guitar,0.9998457431793213,1
65,100,0.2409090909090909,409,1,13,DL_MelancholicFolk_Guitar,6,4,DL_MelancholicFolk_Guitar,0.33463209867477417,0
62,100,0.11818181818181818,831,1,13,DL_MelancholicFolk_Guitar,6,2,DL_MelancholicFolk_Guitar,0.28605547547340393,0
62,100,0.12272727272727273,862,0,13,DL_MelancholicFolk_Guitar,6,2,DL_MelancholicFolk_Guitar,0.31579601764678955,0
65,100,0.8590909090909091,166,1,14,DL_MelancholicFolk_Guitar,6,14,DL_MelancholicFolk_Guitar,0.9998131394386292,1
58,100,0.1409090909090909,355,0,14,DL_MelancholicFolk_Guitar,6,2,DL_MelancholicFolk_Guitar,0.22522704303264618,0
58,100,0.1,391,0,14,DL_MelancholicFolk_Guitar,6,2,DL_MelancholicFolk_Guitar,0.20903854072093964,0
65,100,0.1,465,0,14,DL_MelancholicFolk_Guitar,6,2,DL_MelancholicFolk_Guitar,0.2339647263288498,0
58,100,0.4636363636363636,795,1,14,DL_MelancholicFolk_Guitar,6,7,DL_MelancholicFolk_Guitar,0.20084752142429352,0
65,100,0.2,44,1,15,DL_MelancholicFolk_Guitar,6,3,DL_MelancholicFolk_Guitar,0.9998489618301392,1
58,100,0.7,106,0,15,DL_MelancholicFolk_Guitar,6,11,DL_MelancholicFolk_Guitar,0.290341317653656,0
58,100,0.4818181818181818,422,1,15,DL_MelancholicFolk_Guitar,6,8,DL_MelancholicFolk_Guitar,0.307298868894577,0
65,100,0.8409090909090909,716,1,15,DL_MelancholicFolk_Guitar,6,13,DL_MelancholicFolk_Guitar,0.33052271604537964,0
65,100,0.2,113,1,17,DL_MelancholicFolk_Guitar,6,3,DL_MelancholicFolk_Guitar,0.9996546506881714,1
65,100,0.18181818181818182,223,0,17,DL_MelancholicFolk_Guitar,6,3,DL_MelancholicFolk_Guitar,0.5459969639778137,0
65,100,1.459090909090909,515,1,18,DL_MelancholicFolk_Guitar,6,15,DL_MelancholicFolk_Guitar,0.9909548163414001,0
58,100,0.6181818181818182,457,1,19,DL_MelancholicFolk_Guitar,6,10,DL_MelancholicFolk_Guitar,0.9997902512550354,1
53,100,0.8409090909090909,598,0,19,DL_MelancholicFolk_Guitar,6,13,DL_MelancholicFolk_Guitar,0.4273529350757599,0
53,100,0.18181818181818182,858,1,19,DL_MelancholicFolk_Guitar,6,3,DL_MelancholicFolk_Guitar,0.4522154927253723,0
65,100,0.12272727272727273,48,1,20,DL_MelancholicFolk_Guitar,6,2,DL_MelancholicFolk_Guitar,0.9998582601547241,1
53,100,0.4,75,0,20,DL_MelancholicFolk_Guitar,6,6,DL_MelancholicFolk_Guitar,0.30278098583221436,0
65,100,0.23636363636363636,171,0,20,DL_MelancholicFolk_Guitar,6,4,DL_MelancholicFolk_Guitar,0.2933328449726105,0
65,100,0.3409090909090909,691,1,20,DL_MelancholicFolk_Guitar,6,5,DL_MelancholicFolk_Guitar,0.3066915273666382,0
70,100,0.740909090909091,581,1,21,DL_MelancholicFolk_Guitar,6,12,DL_MelancholicFolk_Guitar,0.9912617206573486,0
58,100,0.35909090909090907,52,1,22,DL_MelancholicFolk_Guitar,6,6,DL_MelancholicFolk_Guitar,0.9997736811637878,1
65,100,0.8590909090909091,229,0,22,DL_MelancholicFolk_Guitar,6,14,DL_MelancholicFolk_Guitar,0.12940853834152222,0
63,100,0.12272727272727273,422,0,22,DL_MelancholicFolk_Guitar,6,2,DL_MelancholicFolk_Guitar,0.13248132169246674,0
53,100,0.3181818181818182,461,0,22,DL_MelancholicFolk_Guitar,6,5,DL_MelancholicFolk_Guitar,0.1423989236354828,0
53,100,0.1,540,0,22,DL_MelancholicFolk_Guitar,6,2,DL_MelancholicFolk_Guitar,0.15196801722049713,0
60,100,0.1,835,1,22,DL_MelancholicFolk_Guitar,6,2,DL_MelancholicFolk_Guitar,0.13633041083812714,0
65,100,0.33636363636363636,193,1,23,DL_MelancholicFolk_Guitar,6,5,DL_MelancholicFolk_Guitar,0.999830961227417,1
55,100,0.6,370,0,23,DL_MelancholicFolk_Guitar,6,10,DL_MelancholicFolk_Guitar,0.19927389919757843,0
55,100,0.11818181818181818,546,0,23,DL_MelancholicFolk_Guitar,6,2,DL_MelancholicFolk_Guitar,0.21157588064670563,0
53,100,0.1590909090909091,625,0,23,DL_MelancholicFolk_Guitar,6,3,DL_MelancholicFolk_Guitar,0.2216099351644516,0
65,100,1.240909090909091,663,0,23,DL_MelancholicFolk_Guitar,6,15,DL_MelancholicFolk_Guitar,0.1936381310224533,0
53,100,0.1,65,1,24,DL_MelancholicFolk_Guitar,6,2,DL_MelancholicFolk_Guitar,0.999832272529602,1
65,100,1.1,395,1,24,DL_MelancholicFolk_Guitar,6,15,DL_MelancholicFolk_Guitar,0.3739684820175171,0
65,100,0.21818181818181817,656,1,24,DL_MelancholicFolk_Guitar,6,3,DL_MelancholicFolk_Guitar,0.4518980085849762,0
58,100,0.2590909090909091,83,1,25,DL_MelancholicFolk_Guitar,6,4,DL_MelancholicFolk_Guitar,0.9998291730880737,1
65,100,0.43636363636363634,171,0,25,DL_MelancholicFolk_Guitar,6,7,DL_MelancholicFolk_Guitar,0.33512523770332336,0
53,100,0.2409090909090909,409,1,25,DL_MelancholicFolk_Guitar,6,4,DL_MelancholicFolk_Guitar,0.30267074704170227,0
60,100,0.2409090909090909,712,1,25,DL_MelancholicFolk_Guitar,6,4,DL_MelancholicFolk_Guitar,0.3149195909500122,0
69,100,0.2636363636363636,48,1,26,DL_MelancholicFolk_Guitar,6,4,DL_MelancholicFolk_Guitar,0.9997643828392029,1
53,100,0.2818181818181818,241,0,26,DL_MelancholicFolk_Guitar,6,5,DL_MelancholicFolk_Guitar,0.08263884484767914,0
53,100,0.35909090909090907,480,1,26,DL_MelancholicFolk_Guitar,6,6,DL_MelancholicFolk_Guitar,0.0741269588470459,0
58,100,0.5,590,0,26,DL_MelancholicFolk_Guitar,6,8,DL_MelancholicFolk_Guitar,0.07412844896316528,0
53,100,0.2818181818181818,729,0,26,DL_MelancholicFolk_Guitar,6,5,DL_MelancholicFolk_Guitar,0.09832443296909332,0
65,100,0.11818181818181818,791,0,26,DL_MelancholicFolk_Guitar,6,2,DL_MelancholicFolk_Guitar,0.09579179435968399,0
53,100,0.16363636363636364,818,0,26,DL_MelancholicFolk_Guitar,6,3,DL_MelancholicFolk_Guitar,0.08722055703401566,0
65,100,1.1409090909090909,88,1,28,DL_MelancholicFolk_Guitar,6,15,DL_MelancholicFolk_Guitar,0.9995319843292236,1
53,100,0.1409090909090909,339,1,28,DL_MelancholicFolk_Guitar,6,2,DL_MelancholicFolk_Guitar,0.5801246166229248,0
55,100,1.059090909090909,254,1,29,DL_MelancholicFolk_Guitar,6,15,DL_MelancholicFolk_Guitar,0.9997735619544983,1
58,100,0.5,523,1,29,DL_MelancholicFolk_Guitar,6,8,DL_MelancholicFolk_Guitar,0.4359138607978821,0
65,100,0.5,694,0,29,DL_MelancholicFolk_Guitar,6,8,DL_MelancholicFolk_Guitar,0.45714494585990906,0
65,100,0.17727272727272728,391,1,30,DL_MelancholicFolk_Guitar,6,3,DL_MelancholicFolk_Guitar,0.9998561143875122,1
53,100,0.18181818181818182,430,0,30,DL_MelancholicFolk_Guitar,6,3,DL_MelancholicFolk_Guitar,0.32216450572013855,0
65,100,0.1409090909090909,470,0,30,DL_MelancholicFolk_Guitar,6,2,DL_MelancholicFolk_Guitar,0.28722816705703735,0
53,100,0.2590909090909091,501,0,30,DL_MelancholicFolk_Guitar,6,4,DL_MelancholicFolk_Guitar,0.30004605650901794,0
58,100,0.6363636363636364,40,1,31,DL_MelancholicFolk_Guitar,6,10,DL_MelancholicFolk_Guitar,0.9998000264167786,1
65,100,0.1,254,0,31,DL_MelancholicFolk_Guitar,6,2,DL_MelancholicFolk_Guitar,0.2473127692937851,0
53,100,0.13636363636363635,303,0,31,DL_MelancholicFolk_Guitar,6,2,DL_MelancholicFolk_Guitar,0.19467192888259888,0
60,100,0.1590909090909091,791,1,31,DL_MelancholicFolk_Guitar,6,3,DL_MelancholicFolk_Guitar,0.2112477570772171,0
65,100,0.1,870,0,31,DL_MelancholicFolk_Guitar,6,2,DL_MelancholicFolk_Guitar,0.20580214262008667,0
65,100,0.22272727272727272,641,1,32,DL_MelancholicFolk_Guitar,6,4,DL_MelancholicFolk_Guitar,0.999829888343811,1
58,100,0.1590909090909091,765,0,32,DL_MelancholicFolk_Guitar,6,3,DL_MelancholicFolk_Guitar,0.4091918468475342,0
55,100,1.1409090909090909,818,0,32,DL_MelancholicFolk_Guitar,6,15,DL_MelancholicFolk_Guitar,0.41038742661476135,0
53,100,0.11818181818181818,193,1,33,DL_MelancholicFolk_Guitar,6,2,DL_MelancholicFolk_Guitar,0.9998568296432495,1
53,100,0.1409090909090909,361,0,33,DL_MelancholicFolk_Guitar,6,2,DL_MelancholicFolk_Guitar,0.3120478093624115,0
53,100,0.1409090909090909,453,0,33,DL_MelancholicFolk_Guitar,6,2,DL_MelancholicFolk_Guitar,0.28867965936660767,0
63,100,0.2772727272727273,765,1,33,DL_MelancholicFolk_Guitar,6,4,DL_MelancholicFolk_Guitar,0.30060261487960815,0
55,100,0.32272727272727275,48,1,34,DL_MelancholicFolk_Guitar,6,5,DL_MelancholicFolk_Guitar,0.9997500777244568,1
55,100,0.6,136,0,34,DL_MelancholicFolk_Guitar,6,10,DL_MelancholicFolk_Guitar,0.07553816586732864,0
62,100,0.4818181818181818,298,0,34,DL_MelancholicFolk_Guitar,6,8,DL_MelancholicFolk_Guitar,0.07870252430438995,0
60,100,0.6409090909090909,616,1,34,DL_MelancholicFolk_Guitar,6,10,DL_MelancholicFolk_Guitar,0.08078573644161224,0
53,100,0.1590909090909091,765,0,34,DL_MelancholicFolk_Guitar,6,3,DL_MelancholicFolk_Guitar,0.10094437748193741,0
65,100,0.17727272727272728,801,0,34,DL_MelancholicFolk_Guitar,6,3,DL_MelancholicFolk_Guitar,0.09798964112997055,0
53,100,0.2,861,0,34,DL_MelancholicFolk_Guitar,6,3,DL_MelancholicFolk_Guitar,0.09244933724403381,0
65,100,0.6227272727272727,56,1,35,DL_MelancholicFolk_Guitar,6,10,DL_MelancholicFolk_Guitar,0.9997958540916443,1
65,100,0.1409090909090909,211,0,35,DL_MelancholicFolk_Guitar,6,2,DL_MelancholicFolk_Guitar,0.13182486593723297,0
65,100,0.6818181818181818,378,0,35,DL_MelancholicFolk_Guitar,6,11,DL_MelancholicFolk_Guitar,0.11756614595651627,0
65,100,0.2,584,0,35,DL_MelancholicFolk_Guitar,6,3,DL_MelancholicFolk_Guitar,0.14549770951271057,0
53,100,0.2409090909090909,628,0,35,DL_MelancholicFolk_Guitar,6,4,DL_MelancholicFolk_Guitar,0.14353786408901215,0
53,100,0.8363636363636363,765,0,35,DL_MelancholicFolk_Guitar,6,13,DL_MelancholicFolk_Guitar,0.13111506402492523,0
53,100,0.1590909090909091,118,1,36,DL_MelancholicFolk_Guitar,6,3,DL_MelancholicFolk_Guitar,0.999828577041626,1
53,100,0.22272727272727272,311,0,36,DL_MelancholicFolk_Guitar,6,4,DL_MelancholicFolk_Guitar,0.4137097895145416,0
53,100,0.9409090909090909,474,0,36,DL_MelancholicFolk_Guitar,6,15,DL_MelancholicFolk_Guitar,0.4090869128704071,0
53,100,0.17727272727272728,523,1,37,DL_MelancholicFolk_Guitar,6,3,DL_MelancholicFolk_Guitar,0.9996495246887207,1
60,100,0.11818181818181818,611,0,37,DL_MelancholicFolk_Guitar,6,2,DL_MelancholicFolk_Guitar,0.5497515797615051,0
65,100,0.2,0,1,38,DL_MelancholicFolk_Guitar,6,3,DL_MelancholicFolk_Guitar,0.9997672438621521,1
58,100,0.4636363636363636,69,0,38,DL_MelancholicFolk_Guitar,6,7,DL_MelancholicFolk_Guitar,0.07180558145046234,0
65,100,0.18181818181818182,268,0,38,DL_MelancholicFolk_Guitar,6,3,DL_MelancholicFolk_Guitar,0.08173276484012604,0
65,100,0.3181818181818182,625,1,38,DL_MelancholicFolk_Guitar,6,5,DL_MelancholicFolk_Guitar,0.08130785077810287,0
65,100,0.2,756,0,38,DL_MelancholicFolk_Guitar,6,3,DL_MelancholicFolk_Guitar,0.09232693910598755,0
65,100,0.11818181818181818,813,0,38,DL_MelancholicFolk_Guitar,6,2,DL_MelancholicFolk_Guitar,0.09772208333015442,0
65,100,0.2,845,0,38,DL_MelancholicFolk_Guitar,6,3,DL_MelancholicFolk_Guitar,0.08505829423666,0
65,100,1.518181818181818,53,1,39,DL_MelancholicFolk_Guitar,6,15,DL_MelancholicFolk_Guitar,0.9997828602790833,1
53,100,0.4,444,1,39,DL_MelancholicFolk_Guitar,6,6,DL_MelancholicFolk_Guitar,0.25023993849754333,0
65,100,0.4,531,0,39,DL_MelancholicFolk_Guitar,6,6,DL_MelancholicFolk_Guitar,0.2024291604757309,0
60,100,0.22272727272727272,694,0,39,DL_MelancholicFolk_Guitar,6,4,DL_MelancholicFolk_Guitar,0.22216840088367462,0
60,100,0.21818181818181817,748,0,39,DL_MelancholicFolk_Guitar,6,3,DL_MelancholicFolk_Guitar,0.21424703299999237,0
65,100,0.2,61,1,40,DL_MelancholicFolk_Guitar,6,3,DL_MelancholicFolk_Guitar,0.9998396635055542,1
65,100,0.11818181818181818,206,0,40,DL_MelancholicFolk_Guitar,6,2,DL_MelancholicFolk_Guitar,0.21618184447288513,0
53,100,0.22272727272727272,651,1,40,DL_MelancholicFolk_Guitar,6,4,DL_MelancholicFolk_Guitar,0.19865624606609344,0
65,100,0.37727272727272726,700,0,40,DL_MelancholicFolk_Guitar,6,6,DL_MelancholicFolk_Guitar,0.20394562184810638,0
55,100,1.3409090909090908,813,0,40,DL_MelancholicFolk_Guitar,6,15,DL_MelancholicFolk_Guitar,0.18980737030506134,0
58,100,0.7227272727272728,246,1,41,DL_MelancholicFolk_Guitar,6,12,DL_MelancholicFolk_Guitar,0.9997797608375549,1
58,100,0.4,550,1,41,DL_MelancholicFolk_Guitar,6,6,DL_MelancholicFolk_Guitar,0.4448372721672058,0
55,100,0.6590909090909091,735,0,41,DL_MelancholicFolk_Guitar,6,11,DL_MelancholicFolk_Guitar,0.4410543143749237,0
65,100,0.11818181818181818,131,1,42,DL_MelancholicFolk_Guitar,6,2,DL_MelancholicFolk_Guitar,0.9998403787612915,1
58,100,0.18181818181818182,179,0,42,DL_MelancholicFolk_Guitar,6,3,DL_MelancholicFolk_Guitar,0.19535234570503235,0
65,100,0.35909090909090907,228,0,42,DL_MelancholicFolk_Guitar,6,6,DL_MelancholicFolk_Guitar,0.20636945962905884,0
63,100,0.2818181818181818,334,0,42,DL_MelancholicFolk_Guitar,6,5,DL_MelancholicFolk_Guitar,0.21276594698429108,0
58,100,0.13636363636363635,545,0,42,DL_MelancholicFolk_Guitar,6,2,DL_MelancholicFolk_Guitar,0.20637600123882294,0
63,100,0.11818181818181818,241,1,43,DL_MelancholicFolk_Guitar,6,2,DL_MelancholicFolk_Guitar,0.9998514652252197,1
58,100,0.35909090909090907,581,1,43,DL_MelancholicFolk_Guitar,6,6,DL_MelancholicFolk_Guitar,0.3012244999408722,0
65,100,0.12272727272727273,694,0,43,DL_MelancholicFolk_Guitar,6,2,DL_MelancholicFolk_Guitar,0.32700029015541077,0
55,100,1.040909090909091,756,0,43,DL_MelancholicFolk_Guitar,6,15,DL_MelancholicFolk_Guitar,0.29181209206581116,0
55,100,0.4,364,1,44,DL_MelancholicFolk_Guitar,6,6,DL_MelancholicFolk_Guitar,0.9998114705085754,1
58,100,0.2409090909090909,606,1,44,DL_MelancholicFolk_Guitar,6,4,DL_MelancholicFolk_Guitar,0.42493560910224915,0
58,100,0.6181818181818182,836,0,44,DL_MelancholicFolk_Guitar,6,10,DL_MelancholicFolk_Guitar,0.4213387370109558,0
53,100,0.1590909090909091,101,1,45,DL_MelancholicFolk_Guitar,6,3,DL_MelancholicFolk_Guitar,0.9997721314430237,1
65,100,0.3,136,0,45,DL_MelancholicFolk_Guitar,6,5,DL_MelancholicFolk_Guitar,0.07698458433151245,0
58,100,0.1409090909090909,220,0,45,DL_MelancholicFolk_Guitar,6,2,DL_MelancholicFolk_Guitar,0.07199504226446152,0
65,100,0.740909090909091,298,0,45,DL_MelancholicFolk_Guitar,6,12,DL_MelancholicFolk_Guitar,0.07956579327583313,0
65,100,0.5227272727272727,466,0,45,DL_MelancholicFolk_Guitar,6,8,DL_MelancholicFolk_Guitar,0.09766531735658646,0
53,100,0.1590909090909091,584,0,45,DL_MelancholicFolk_Guitar,6,3,DL_MelancholicFolk_Guitar,0.10199412703514099,0
65,100,0.4818181818181818,628,0,45,DL_MelancholicFolk_Guitar,6,8,DL_MelancholicFolk_Guitar,0.08741255104541779,0
60,100,0.8772727272727273,8,1,46,DL_MelancholicFolk_Guitar,6,14,DL_MelancholicFolk_Guitar,0.9998026490211487,1
60,100,0.5818181818181818,373,1,46,DL_MelancholicFolk_Guitar,6,9,DL_MelancholicFolk_Guitar,0.4355388581752777,0
53,100,0.4,515,0,46,DL_MelancholicFolk_Guitar,6,6,DL_MelancholicFolk_Guitar,0.43502986431121826,0
58,100,0.12272727272727273,276,1,47,DL_MelancholicFolk_Guitar,6,2,DL_MelancholicFolk_Guitar,0.9996010661125183,1
65,100,0.16363636363636364,774,1,47,DL_MelancholicFolk_Guitar,6,3,DL_MelancholicFolk_Guitar,0.5618607401847839,0
58,100,0.6227272727272727,48,1,48,DL_MelancholicFolk_Guitar,6,10,DL_MelancholicFolk_Guitar,0.9997676014900208,1
53,100,0.4,188,0,48,DL_MelancholicFolk_Guitar,6,6,DL_MelancholicFolk_Guitar,0.14072875678539276,0
60,100,0.5,413,0,48,DL_MelancholicFolk_Guitar,6,8,DL_MelancholicFolk_Guitar,0.12288131564855576,0
53,100,0.2772727272727273,603,0,48,DL_MelancholicFolk_Guitar,6,4,DL_MelancholicFolk_Guitar,0.13883300125598907,0
53,100,0.2,668,0,48,DL_MelancholicFolk_Guitar,6,3,DL_MelancholicFolk_Guitar,0.14632678031921387,0
65,100,0.12272727272727273,716,0,48,DL_MelancholicFolk_Guitar,6,2,DL_MelancholicFolk_Guitar,0.14061148464679718,0
65,100,0.21818181818181817,40,1,49,DL_MelancholicFolk_Guitar,6,3,DL_MelancholicFolk_Guitar,0.9997223019599915,1
53,100,0.8181818181818182,96,0,49,DL_MelancholicFolk_Guitar,6,13,DL_MelancholicFolk_Guitar,0.05297105386853218,0
65,100,0.11818181818181818,281,0,49,DL_MelancholicFolk_Guitar,6,2,DL_MelancholicFolk_Guitar,0.05166676267981529,0
53,100,0.4409090909090909,351,0,49,DL_MelancholicFolk_Guitar,6,7,DL_MelancholicFolk_Guitar,0.04682065173983574,0
53,100,0.23636363636363636,458,0,49,DL_MelancholicFolk_Guitar,6,4,DL_MelancholicFolk_Guitar,0.05505529046058655,0
65,100,0.12272727272727273,509,0,49,DL_MelancholicFolk_Guitar,6,2,DL_MelancholicFolk_Guitar,0.06456148624420166,0
58,100,0.35909090909090907,651,0,49,DL_MelancholicFolk_Guitar,6,6,DL_MelancholicFolk_Guitar,0.061706654727458954,0
65,100,0.1409090909090909,791,0,49,DL_MelancholicFolk_Guitar,6,2,DL_MelancholicFolk_Guitar,0.06566411256790161,0
58,100,0.5409090909090909,716,1,50,DL_MelancholicFolk_Guitar,6,9,DL_MelancholicFolk_Guitar,0.9995667338371277,1
53,100,0.1409090909090909,858,0,50,DL_MelancholicFolk_Guitar,6,2,DL_MelancholicFolk_Guitar,0.5695624351501465,0
58,100,0.17727272727272728,8,1,51,DL_MelancholicFolk_Guitar,6,3,DL_MelancholicFolk_Guitar,0.9997890591621399,1
53,100,0.2,48,0,51,DL_MelancholicFolk_Guitar,6,3,DL_MelancholicFolk_Guitar,0.13988171517848969,0
58,100,0.11818181818181818,96,0,51,DL_MelancholicFolk_Guitar,6,2,DL_MelancholicFolk_Guitar,0.1168108806014061,0
53,100,0.21818181818181817,448,1,51,DL_MelancholicFolk_Guitar,6,3,DL_MelancholicFolk_Guitar,0.13996417820453644,0
53,100,0.17727272727272728,523,0,51,DL_MelancholicFolk_Guitar,6,3,DL_MelancholicFolk_Guitar,0.14353595674037933,0
53,100,0.35909090909090907,568,0,51,DL_MelancholicFolk_Guitar,6,6,DL_MelancholicFolk_Guitar,0.13251304626464844,0
62,100,0.1590909090909091,153,1,52,DL_MelancholicFolk_Guitar,6,3,DL_MelancholicFolk_Guitar,0.9998619556427002,1
60,100,0.12272727272727273,268,0,52,DL_MelancholicFolk_Guitar,6,2,DL_MelancholicFolk_Guitar,0.32190975546836853,0
62,100,0.18181818181818182,466,0,52,DL_MelancholicFolk_Guitar,6,3,DL_MelancholicFolk_Guitar,0.29175689816474915,0
60,100,0.5409090909090909,598,0,52,DL_MelancholicFolk_Guitar,6,9,DL_MelancholicFolk_Guitar,0.2948773503303528,0
65,100,0.21818181818181817,96,1,53,DL_MelancholicFolk_Guitar,6,3,DL_MelancholicFolk_Guitar,0.9998134970664978,1
53,100,0.18181818181818182,224,0,53,DL_MelancholicFolk_Guitar,6,3,DL_MelancholicFolk_Guitar,0.12809360027313232,0
65,100,0.1,263,0,53,DL_MelancholicFolk_Guitar,6,2,DL_MelancholicFolk_Guitar,0.11966493725776672,0
65,100,0.2,399,0,53,DL_MelancholicFolk_Guitar,6,3,DL_MelancholicFolk_Guitar,0.131924107670784,0
65,100,0.21818181818181817,515,0,53,DL_MelancholicFolk_Guitar,6,3,DL_MelancholicFolk_Guitar,0.14042897522449493,0
65,100,0.8227272727272728,619,0,53,DL_MelancholicFolk_Guitar,6,13,DL_MelancholicFolk_Guitar,0.12400010228157043,0
65,100,0.2818181818181818,0,1,54,DL_MelancholicFolk_Guitar,6,5,DL_MelancholicFolk_Guitar,0.9996997117996216,1
53,100,0.16363636363636364,69,0,54,DL_MelancholicFolk_Guitar,6,3,DL_MelancholicFolk_Guitar,0.043399590998888016,0
65,100,0.21818181818181817,141,0,54,DL_MelancholicFolk_Guitar,6,3,DL_MelancholicFolk_Guitar,0.03283002972602844,0
53,100,0.7181818181818181,215,0,54,DL_MelancholicFolk_Guitar,6,11,DL_MelancholicFolk_Guitar,0.027998190373182297,0
53,100,0.37727272727272726,391,0,54,DL_MelancholicFolk_Guitar,6,6,DL_MelancholicFolk_Guitar,0.032617710530757904,0
53,100,0.2590909090909091,501,0,54,DL_MelancholicFolk_Guitar,6,4,DL_MelancholicFolk_Guitar,0.03500641509890556,0
60,100,0.1409090909090909,606,0,54,DL_MelancholicFolk_Guitar,6,2,DL_MelancholicFolk_Guitar,0.042108725756406784,0
55,100,0.1409090909090909,735,0,54,DL_MelancholicFolk_Guitar,6,2,DL_MelancholicFolk_Guitar,0.047057002782821655,0
65,100,0.11818181818181818,823,0,54,DL_MelancholicFolk_Guitar,6,2,DL_MelancholicFolk_Guitar,0.04732593148946762,0
65,100,0.6772727272727272,171,1,55,DL_MelancholicFolk_Guitar,6,11,DL_MelancholicFolk_Guitar,0.9998078942298889,1
55,100,0.2590909090909091,338,0,55,DL_MelancholicFolk_Guitar,6,4,DL_MelancholicFolk_Guitar,0.4335485100746155,0
55,100,0.21818181818181817,413,0,55,DL_MelancholicFolk_Guitar,6,3,DL_MelancholicFolk_Guitar,0.43024009466171265,0
53,100,0.17727272727272728,75,1,56,DL_MelancholicFolk_Guitar,6,3,DL_MelancholicFolk_Guitar,0.9998065829277039,1
58,100,0.2,114,0,56,DL_MelancholicFolk_Guitar,6,3,DL_MelancholicFolk_Guitar,0.12033004313707352,0
58,100,0.18181818181818182,179,0,56,DL_MelancholicFolk_Guitar,6,3,DL_MelancholicFolk_Guitar,0.12306972593069077,0
58,100,0.18181818181818182,483,1,56,DL_MelancholicFolk_Guitar,6,3,DL_MelancholicFolk_Guitar,0.14025992155075073,0
65,100,0.21818181818181817,616,0,56,DL_MelancholicFolk_Guitar,6,3,DL_MelancholicFolk_Guitar,0.15197578072547913,0
65,100,0.1409090909090909,845,0,56,DL_MelancholicFolk_Guitar,6,2,DL_MelancholicFolk_Guitar,0.14007049798965454,0
60,100,0.41818181818181815,8,1,57,DL_MelancholicFolk_Guitar,6,7,DL_MelancholicFolk_Guitar,0.9998536109924316,1
65,100,0.12272727272727273,334,1,57,DL_MelancholicFolk_Guitar,6,2,DL_MelancholicFolk_Guitar,0.33109739422798157,0
53,100,0.3,488,0,57,DL_MelancholicFolk_Guitar,6,5,DL_MelancholicFolk_Guitar,0.2879951596260071,0
60,100,0.1409090909090909,593,0,57,DL_MelancholicFolk_Guitar,6,2,DL_MelancholicFolk_Guitar,0.3023887872695923,0
65,100,0.2409090909090909,91,1,58,DL_MelancholicFolk_Guitar,6,4,DL_MelancholicFolk_Guitar,0.999854326248169,1
65,100,0.11818181818181818,163,0,58,DL_MelancholicFolk_Guitar,6,2,DL_MelancholicFolk_Guitar,0.33139386773109436,0
62,100,0.21818181818181817,325,0,58,DL_MelancholicFolk_Guitar,6,3,DL_MelancholicFolk_Guitar,0.2936452031135559,0
60,100,1.440909090909091,418,0,58,DL_MelancholicFolk_Guitar,6,15,DL_MelancholicFolk_Guitar,0.2895294725894928,0
65,100,0.18181818181818182,123,1,59,DL_MelancholicFolk_Guitar,6,3,DL_MelancholicFolk_Guitar,0.999625563621521,1
58,100,0.2818181818181818,751,1,59,DL_MelancholicFolk_Guitar,6,5,DL_MelancholicFolk_Guitar,0.5418592691421509,0
60,100,0.11818181818181818,21,1,60,DL_MelancholicFolk_Guitar,6,2,DL_MelancholicFolk_Guitar,0.999747097492218,1
53,100,0.1,91,0,60,DL_MelancholicFolk_Guitar,6,2,DL_MelancholicFolk_Guitar,0.053519949316978455,0
53,100,0.1409090909090909,131,0,60,DL_MelancholicFolk_Guitar,6,2,DL_MelancholicFolk_Guitar,0.04594643414020538,0
60,100,0.4,176,0,60,DL_MelancholicFolk_Guitar,6,6,DL_MelancholicFolk_Guitar,0.045481570065021515,0
53,100,0.1590909090909091,263,0,60,DL_MelancholicFolk_Guitar,6,3,DL_MelancholicFolk_Guitar,0.052074652165174484,0
53,100,0.21818181818181817,330,0,60,DL_MelancholicFolk_Guitar,6,3,DL_MelancholicFolk_Guitar,0.059050552546978,0
53,100,0.1590909090909091,426,0,60,DL_MelancholicFolk_Guitar,6,3,DL_MelancholicFolk_Guitar,0.06650086492300034,0
55,100,0.41818181818181815,646,0,60,DL_MelancholicFolk_Guitar,6,7,DL_MelancholicFolk_Guitar,0.05680723488330841,0
58,100,0.12272727272727273,246,1,61,DL_MelancholicFolk_Guitar,6,2,DL_MelancholicFolk_Guitar,0.9998409748077393,1
60,100,0.5409090909090909,541,1,61,DL_MelancholicFolk_Guitar,6,9,DL_MelancholicFolk_Guitar,0.3205031156539917,0
60,100,0.7636363636363637,664,0,61,DL_MelancholicFolk_Guitar,6,12,DL_MelancholicFolk_Guitar,0.29589933156967163,0
53,100,0.16363636363636364,839,0,61,DL_MelancholicFolk_Guitar,6,3,DL_MelancholicFolk_Guitar,0.32430365681648254,0
57,100,0.17727272727272728,61,1,62,DL_MelancholicFolk_Guitar,6,3,DL_MelancholicFolk_Guitar,0.9998204112052917,1
58,100,0.11818181818181818,418,1,62,DL_MelancholicFolk_Guitar,6,2,DL_MelancholicFolk_Guitar,0.41370823979377747,0
58,100,0.2,853,1,62,DL_MelancholicFolk_Guitar,6,3,DL_MelancholicFolk_Guitar,0.4267016649246216,0
65,100,0.18181818181818182,408,1,63,DL_MelancholicFolk_Guitar,6,3,DL_MelancholicFolk_Guitar,0.9996544122695923,1
53,100,0.16363636363636364,509,0,63,DL_MelancholicFolk_Guitar,6,3,DL_MelancholicFolk_Guitar,0.5487736463546753,0
53,100,0.1590909090909091,286,1,64,DL_MelancholicFolk_Guitar,6,3,DL_MelancholicFolk_Guitar,0.9997733235359192,1
65,100,0.11818181818181818,370,0,64,DL_MelancholicFolk_Guitar,6,2,DL_MelancholicFolk_Guitar,0.07749027013778687,0
65,100,0.11818181818181818,413,0,64,DL_MelancholicFolk_Guitar,6,2,DL_MelancholicFolk_Guitar,0.07156071811914444,0
53,100,0.1409090909090909,440,0,64,DL_MelancholicFolk_Guitar,6,2,DL_MelancholicFolk_Guitar,0.07772033661603928,0
60,100,0.4,502,0,64,DL_MelancholicFolk_Guitar,6,6,DL_MelancholicFolk_Guitar,0.08548415452241898,0
53,100,0.35909090909090907,760,1,64,DL_MelancholicFolk_Guitar,6,6,DL_MelancholicFolk_Guitar,0.09528273344039917,0
65,100,0.18181818181818182,839,0,64,DL_MelancholicFolk_Guitar,6,3,DL_MelancholicFolk_Guitar,0.08428487926721573,0
58,100,0.35909090909090907,760,1,65,DL_MelancholicFolk_Guitar,6,6,DL_MelancholicFolk_Guitar,0.9995946288108826,1
58,100,0.16363636363636364,862,0,65,DL_MelancholicFolk_Guitar,6,3,DL_MelancholicFolk_Guitar,0.5544465184211731,0
58,100,0.7,106,1,66,DL_MelancholicFolk_Guitar,6,11,DL_MelancholicFolk_Guitar,0.9998195767402649,1
63,100,0.18181818181818182,333,0,66,DL_MelancholicFolk_Guitar,6,3,DL_MelancholicFolk_Guitar,0.35735371708869934,0
53,100,0.17727272727272728,436,0,66,DL_MelancholicFolk_Guitar,6,3,DL_MelancholicFolk_Guitar,0.30643826723098755,0
53,100,0.2590909090909091,519,0,66,DL_MelancholicFolk_Guitar,6,4,DL_MelancholicFolk_Guitar,0.31414613127708435,0
53,100,0.2,127,1,67,DL_MelancholicFolk_Guitar,6,3,DL_MelancholicFolk_Guitar,0.9998493194580078,1
65,100,0.13636363636363635,172,0,67,DL_MelancholicFolk_Guitar,6,2,DL_MelancholicFolk_Guitar,0.33555322885513306,0
53,100,0.12272727272727273,202,0,67,DL_MelancholicFolk_Guitar,6,2,DL_MelancholicFolk_Guitar,0.28754767775535583,0
53,100,0.8409090909090909,862,1,67,DL_MelancholicFolk_Guitar,6,13,DL_MelancholicFolk_Guitar,0.29542797803878784,0
65,100,0.11818181818181818,193,1,68,DL_MelancholicFolk_Guitar,6,2,DL_MelancholicFolk_Guitar,0.9998430013656616,1
65,100,0.2636363636363636,223,0,68,DL_MelancholicFolk_Guitar,6,4,DL_MelancholicFolk_Guitar,0.20820662379264832,0
65,100,0.2,286,0,68,DL_MelancholicFolk_Guitar,6,3,DL_MelancholicFolk_Guitar,0.19756712019443512,0
65,100,0.1,399,0,68,DL_MelancholicFolk_Guitar,6,2,DL_MelancholicFolk_Guitar,0.20787975192070007,0
65,100,1.2227272727272727,487,0,68,DL_MelancholicFolk_Guitar,6,15,DL_MelancholicFolk_Guitar,0.18736155331134796,0
65,100,1.0772727272727274,140,1,69,DL_MelancholicFolk_Guitar,6,15,DL_MelancholicFolk_Guitar,0.9995255470275879,1
58,100,0.1590909090909091,493,1,69,DL_MelancholicFolk_Guitar,6,3,DL_MelancholicFolk_Guitar,0.5729659795761108,0
65,100,0.12272727272727273,320,1,70,DL_MelancholicFolk_Guitar,6,2,DL_MelancholicFolk_Guitar,0.9998432397842407,1
65,100,0.1590909090909091,352,0,70,DL_MelancholicFolk_Guitar,6,3,DL_MelancholicFolk_Guitar,0.21396154165267944,0
65,100,0.2818181818181818,409,0,70,DL_MelancholicFolk_Guitar,6,5,DL_MelancholicFolk_Guitar,0.20449042320251465,0
58,100,1.3772727272727272,470,0,70,DL_MelancholicFolk_Guitar,6,15,DL_MelancholicFolk_Guitar,0.18434301018714905,0
60,100,1.518181818181818,787,1,70,DL_MelancholicFolk_Guitar,6,15,DL_MelancholicFolk_Guitar,0.2241518646478653,0
65,100,0.6,276,1,71,DL_MelancholicFolk_Guitar,6,10,DL_MelancholicFolk_Guitar,0.9998045563697815,1
65,100,0.6,430,0,71,DL_MelancholicFolk_Guitar,6,10,DL_MelancholicFolk_Guitar,0.42623013257980347,0
65,100,1.3636363636363635,576,0,71,DL_MelancholicFolk_Guitar,6,15,DL_MelancholicFolk_Guitar,0.41763997077941895,0
60,100,1.3,0,1,72,DL_MelancholicFolk_Guitar,6,15,DL_MelancholicFolk_Guitar,0.9997630715370178,1
58,100,1.2227272727272727,333,1,72,DL_MelancholicFolk_Guitar,6,15,DL_MelancholicFolk_Guitar,0.41195252537727356,0
55,100,0.1,663,1,72,DL_MelancholicFolk_Guitar,6,2,DL_MelancholicFolk_Guitar,0.48451367020606995,0
62,100,1.518181818181818,83,1,73,DL_MelancholicFolk_Guitar,6,15,DL_MelancholicFolk_Guitar,0.999797523021698,1
55,100,0.7,426,1,73,DL_MelancholicFolk_Guitar,6,11,DL_MelancholicFolk_Guitar,0.3743053376674652,0
65,100,0.2,663,1,73,DL_MelancholicFolk_Guitar,6,3,DL_MelancholicFolk_Guitar,0.3269641399383545,0
53,100,1.518181818181818,722,0,73,DL_MelancholicFolk_Guitar,6,15,DL_MelancholicFolk_Guitar,0.30318325757980347,0
60,100,0.759090909090909,286,1,74,DL_MelancholicFolk_Guitar,6,12,DL_MelancholicFolk_Guitar,0.9998242259025574,1
69,100,0.1590909090909091,496,0,74,DL_MelancholicFolk_Guitar,6,3,DL_MelancholicFolk_Guitar,0.2220539152622223,0
57,100,0.5181818181818182,546,0,74,DL_MelancholicFolk_Guitar,6,8,DL_MelancholicFolk_Guitar,0.19007320702075958,0
57,100,0.5227272727272727,695,0,74,DL_MelancholicFolk_Guitar,6,8,DL_MelancholicFolk_Guitar,0.21655064821243286,0
65,100,0.759090909090909,813,0,74,DL_MelancholicFolk_Guitar,6,12,DL_MelancholicFolk_Guitar,0.2146204560995102,0
65,100,0.18181818181818182,220,1,75,DL_MelancholicFolk_Guitar,6,3,DL_MelancholicFolk_Guitar,0.999613344669342,1
65,100,1.018181818181818,580,1,75,DL_MelancholicFolk_Guitar,6,15,DL_MelancholicFolk_Guitar,0.5298338532447815,0
53,100,0.759090909090909,30,1,76,DL_MelancholicFolk_Guitar,6,12,DL_MelancholicFolk_Guitar,0.9998206496238708,1
60,100,0.1409090909090909,316,1,76,DL_MelancholicFolk_Guitar,6,2,DL_MelancholicFolk_Guitar,0.23203517496585846,0
65,100,0.2590909090909091,392,0,76,DL_MelancholicFolk_Guitar,6,4,DL_MelancholicFolk_Guitar,0.19624367356300354,0
65,100,0.1409090909090909,453,0,76,DL_MelancholicFolk_Guitar,6,2,DL_MelancholicFolk_Guitar,0.2196245938539505,0
58,100,0.8181818181818182,514,0,76,DL_MelancholicFolk_Guitar,6,13,DL_MelancholicFolk_Guitar,0.19288119673728943,0
60,100,0.2,119,1,77,DL_MelancholicFolk_Guitar,6,3,DL_MelancholicFolk_Guitar,0.999842643737793,1
60,100,0.17727272727272728,229,0,77,DL_MelancholicFolk_Guitar,6,3,DL_MelancholicFolk_Guitar,0.20659133791923523,0
60,100,0.5590909090909091,307,0,77,DL_MelancholicFolk_Guitar,6,9,DL_MelancholicFolk_Guitar,0.1884380429983139,0
55,100,1.3590909090909091,449,0,77,DL_MelancholicFolk_Guitar,6,15,DL_MelancholicFolk_Guitar,0.19100050628185272,0
65,100,0.6818181818181818,760,1,77,DL_MelancholicFolk_Guitar,6,11,DL_MelancholicFolk_Guitar,0.23516151309013367,0
65,100,0.7,35,1,78,DL_MelancholicFolk_Guitar,6,11,DL_MelancholicFolk_Guitar,0.9998360872268677,1
65,100,0.7363636363636363,523,1,78,DL_MelancholicFolk_Guitar,6,12,DL_MelancholicFolk_Guitar,0.3282904028892517,0
58,100,0.38181818181818183,752,0,78,DL_MelancholicFolk_Guitar,6,6,DL_MelancholicFolk_Guitar,0.30598384141921997,0
53,100,0.759090909090909,849,0,78,DL_MelancholicFolk_Guitar,6,12,DL_MelancholicFolk_Guitar,0.3180127441883087,0
65,100,0.4,282,1,79,DL_MelancholicFolk_Guitar,6,6,DL_MelancholicFolk_Guitar,0.9998455047607422,1
60,100,0.2818181818181818,386,0,79,DL_MelancholicFolk_Guitar,6,5,DL_MelancholicFolk_Guitar,0.3392094671726227,0
58,100,0.4,509,0,79,DL_MelancholicFolk_Guitar,6,6,DL_MelancholicFolk_Guitar,0.2778727412223816,0
65,100,0.18181818181818182,597,0,79,DL_MelancholicFolk_Guitar,6,3,DL_MelancholicFolk_Guitar,0.32119065523147583,0
65,100,0.21818181818181817,163,1,80,DL_MelancholicFolk_Guitar,6,3,DL_MelancholicFolk_Guitar,0.9998522996902466,1
58,100,0.2,440,1,80,DL_MelancholicFolk_Guitar,6,3,DL_MelancholicFolk_Guitar,0.3126330077648163,0
58,100,0.18181818181818182,519,0,80,DL_MelancholicFolk_Guitar,6,3,DL_MelancholicFolk_Guitar,0.29863426089286804,0
60,100,1.1409090909090909,703,0,80,DL_MelancholicFolk_Guitar,6,15,DL_MelancholicFolk_Guitar,0.3084236979484558,0
63,100,0.11818181818181818,660,1,81,DL_MelancholicFolk_Guitar,6,2,DL_MelancholicFolk_Guitar,0.9998562335968018,1
63,100,0.1,690,0,81,DL_MelancholicFolk_Guitar,6,2,DL_MelancholicFolk_Guitar,0.31159675121307373,0
53,100,0.35909090909090907,770,0,81,DL_MelancholicFolk_Guitar,6,6,DL_MelancholicFolk_Guitar,0.29015806317329407,0
53,100,0.12272727272727273,862,0,81,DL_MelancholicFolk_Guitar,6,2,DL_MelancholicFolk_Guitar,0.3128929138183594,0
53,100,0.5772727272727273,30,1,82,DL_MelancholicFolk_Guitar,6,9,DL_MelancholicFolk_Guitar,0.9997197985649109,1
53,100,0.21818181818181817,163,0,82,DL_MelancholicFolk_Guitar,6,3,DL_MelancholicFolk_Guitar,0.05889556184411049,0
60,100,0.5227272727272727,299,0,82,DL_MelancholicFolk_Guitar,6,8,DL_MelancholicFolk_Guitar,0.04791858419775963,0
60,100,0.36363636363636365,443,0,82,DL_MelancholicFolk_Guitar,6,6,DL_MelancholicFolk_Guitar,0.05032062903046608,0
53,100,0.2409090909090909,540,0,82,DL_MelancholicFolk_Guitar,6,4,DL_MelancholicFolk_Guitar,0.05336460843682289,0
58,100,0.2590909090909091,743,0,82,DL_MelancholicFolk_Guitar,6,4,DL_MelancholicFolk_Guitar,0.05756836384534836,0
58,100,0.18181818181818182,805,0,82,DL_MelancholicFolk_Guitar,6,3,DL_MelancholicFolk_Guitar,0.06910128146409988,0
53,100,0.7,857,0,82,DL_MelancholicFolk_Guitar,6,11,DL_MelancholicFolk_Guitar,0.060962021350860596,0
58,100,0.1,193,1,83,DL_MelancholicFolk_Guitar,6,2,DL_MelancholicFolk_Guitar,0.9998365640640259,1
65,100,0.759090909090909,453,1,83,DL_MelancholicFolk_Guitar,6,12,DL_MelancholicFolk_Guitar,0.32262998819351196,0
62,100,0.1409090909090909,800,1,83,DL_MelancholicFolk_Guitar,6,2,DL_MelancholicFolk_Guitar,0.3177067041397095,0
65,100,0.38181818181818183,849,0,83,DL_MelancholicFolk_Guitar,6,6,DL_MelancholicFolk_Guitar,0.30671417713165283,0
58,100,0.3,330,1,84,DL_MelancholicFolk_Guitar,6,5,DL_MelancholicFolk_Guitar,0.999830961227417,1
58,100,0.5181818181818182,502,0,84,DL_MelancholicFolk_Guitar,6,8,DL_MelancholicFolk_Guitar,0.3199477195739746,0
58,100,0.2590909090909091,637,0,84,DL_MelancholicFolk_Guitar,6,4,DL_MelancholicFolk_Guitar,0.31467199325561523,0
53,100,0.5818181818181818,726,0,84,DL_MelancholicFolk_Guitar,6,9,DL_MelancholicFolk_Guitar,0.32326123118400574,0
60,100,0.2590909090909091,30,1,85,DL_MelancholicFolk_Guitar,6,4,DL_MelancholicFolk_Guitar,0.999776303768158,1
60,100,0.12272727272727273,100,0,85,DL_MelancholicFolk_Guitar,6,2,DL_MelancholicFolk_Guitar,0.0813305601477623,0
57,100,0.4818181818181818,166,0,85,DL_MelancholicFolk_Guitar,6,8,DL_MelancholicFolk_Guitar,0.06836327165365219,0
53,100,0.37727272727272726,316,0,85,DL_MelancholicFolk_Guitar,6,6,DL_MelancholicFolk_Guitar,0.08471241593360901,0
60,100,0.1590909090909091,417,0,85,DL_MelancholicFolk_Guitar,6,3,DL_MelancholicFolk_Guitar,0.09573245048522949,0
53,100,0.2409090909090909,470,0,85,DL_MelancholicFolk_Guitar,6,4,DL_MelancholicFolk_Guitar,0.0977877750992775,0
58,100,0.8818181818181818,817,1,85,DL_MelancholicFolk_Guitar,6,14,DL_MelancholicFolk_Guitar,0.080800861120224,0
53,100,0.32272727272727275,136,1,86,DL_MelancholicFolk_Guitar,6,5,DL_MelancholicFolk_Guitar,0.9996769428253174,1
55,100,0.3181818181818182,220,0,86,DL_MelancholicFolk_Guitar,6,5,DL_MelancholicFolk_Guitar,0.036168456077575684,0
58,100,0.2409090909090909,339,0,86,DL_MelancholicFolk_Guitar,6,4,DL_MelancholicFolk_Guitar,0.025329062715172768,0
65,100,0.18181818181818182,509,0,86,DL_MelancholicFolk_Guitar,6,3,DL_MelancholicFolk_Guitar,0.023810887709259987,0
53,100,0.1409090909090909,550,0,86,DL_MelancholicFolk_Guitar,6,2,DL_MelancholicFolk_Guitar,0.020330462604761124,0
58,100,0.4590909090909091,612,0,86,DL_MelancholicFolk_Guitar,6,7,DL_MelancholicFolk_Guitar,0.01866193860769272,0
65,100,0.3181818181818182,713,0,86,DL_MelancholicFolk_Guitar,6,5,DL_MelancholicFolk_Guitar,0.026016665622591972,0
58,100,0.13636363636363635,810,0,86,DL_MelancholicFolk_Guitar,6,2,DL_MelancholicFolk_Guitar,0.02954179234802723,0
58,100,0.1,844,0,86,DL_MelancholicFolk_Guitar,6,2,DL_MelancholicFolk_Guitar,0.03872603923082352,0
65,100,0.11818181818181818,866,0,86,DL_MelancholicFolk_Guitar,6,2,DL_MelancholicFolk_Guitar,0.04168081283569336,0
58,100,0.6409090909090909,119,1,87,DL_MelancholicFolk_Guitar,6,10,DL_MelancholicFolk_Guitar,0.9997881054878235,1
53,100,0.759090909090909,633,1,87,DL_MelancholicFolk_Guitar,6,12,DL_MelancholicFolk_Guitar,0.4385579228401184,0
60,100,0.6772727272727272,810,0,87,DL_MelancholicFolk_Guitar,6,11,DL_MelancholicFolk_Guitar,0.4409048557281494,0
57,100,0.2,87,1,88,DL_MelancholicFolk_Guitar,6,3,DL_MelancholicFolk_Guitar,0.9997569918632507,1
57,100,0.37727272727272726,140,0,88,DL_MelancholicFolk_Guitar,6,6,DL_MelancholicFolk_Guitar,0.07682660222053528,0
60,100,0.12272727272727273,223,0,88,DL_MelancholicFolk_Guitar,6,2,DL_MelancholicFolk_Guitar,0.07882639020681381,0
60,100,0.5772727272727273,273,0,88,DL_MelancholicFolk_Guitar,6,9,DL_MelancholicFolk_Guitar,0.07664196938276291,0
53,100,0.7227272727272728,399,0,88,DL_MelancholicFolk_Guitar,6,12,DL_MelancholicFolk_Guitar,0.08842306584119797,0
53,100,0.759090909090909,624,0,88,DL_MelancholicFolk_Guitar,6,12,DL_MelancholicFolk_Guitar,0.09989412873983383,0
58,100,0.2772727272727273,832,0,88,DL_MelancholicFolk_Guitar,6,4,DL_MelancholicFolk_Guitar,0.0942339152097702,0
53,100,0.38181818181818183,22,1,89,DL_MelancholicFolk_Guitar,6,6,DL_MelancholicFolk_Guitar,0.9997226595878601,1
58,100,0.2409090909090909,140,0,89,DL_MelancholicFolk_Guitar,6,4,DL_MelancholicFolk_Guitar,0.05389709025621414,0
60,100,0.4,250,0,89,DL_MelancholicFolk_Guitar,6,6,DL_MelancholicFolk_Guitar,0.05173632502555847,0
58,100,0.18181818181818182,343,0,89,DL_MelancholicFolk_Guitar,6,3,DL_MelancholicFolk_Guitar,0.04640299081802368,0
58,100,0.5,386,0,89,DL_MelancholicFolk_Guitar,6,8,DL_MelancholicFolk_Guitar,0.052161138504743576,0
60,100,0.1409090909090909,559,0,89,DL_MelancholicFolk_Guitar,6,2,DL_MelancholicFolk_Guitar,0.06826333701610565,0
60,100,0.9818181818181818,637,0,89,DL_MelancholicFolk_Guitar,6,15,DL_MelancholicFolk_Guitar,0.06541233509778976,0
60,100,0.5590909090909091,866,0,89,DL_MelancholicFolk_Guitar,6,9,DL_MelancholicFolk_Guitar,0.06744261085987091,0
53,100,0.33636363636363636,260,1,90,DL_MelancholicFolk_Guitar,6,5,DL_MelancholicFolk_Guitar,0.9997543692588806,1
57,100,0.6181818181818182,436,0,90,DL_MelancholicFolk_Guitar,6,10,DL_MelancholicFolk_Guitar,0.07538353651762009,0
53,100,0.22272727272727272,585,0,90,DL_MelancholicFolk_Guitar,6,4,DL_MelancholicFolk_Guitar,0.07911383360624313,0
53,100,0.3,660,0,90,DL_MelancholicFolk_Guitar,6,5,DL_MelancholicFolk_Guitar,0.08087068796157837,0
60,100,0.11818181818181818,726,0,90,DL_MelancholicFolk_Guitar,6,2,DL_MelancholicFolk_Guitar,0.09227372705936432,0
53,100,0.1,770,0,90,DL_MelancholicFolk_Guitar,6,2,DL_MelancholicFolk_Guitar,0.09522860497236252,0
60,100,0.16363636363636364,862,0,90,DL_MelancholicFolk_Guitar,6,3,DL_MelancholicFolk_Guitar,0.08761847019195557,0
60,100,0.5636363636363636,26,1,91,DL_MelancholicFolk_Guitar,6,9,DL_MelancholicFolk_Guitar,0.9997214674949646,1
60,100,0.1,153,0,91,DL_MelancholicFolk_Guitar,6,2,DL_MelancholicFolk_Guitar,0.061659447848796844,0
53,100,0.1409090909090909,286,0,91,DL_MelancholicFolk_Guitar,6,2,DL_MelancholicFolk_Guitar,0.04891218617558479,0
58,100,0.5181818181818182,396,0,91,DL_MelancholicFolk_Guitar,6,8,DL_MelancholicFolk_Guitar,0.0439244769513607,0
58,100,0.12272727272727273,576,0,91,DL_MelancholicFolk_Guitar,6,2,DL_MelancholicFolk_Guitar,0.057415787130594254,0
58,100,0.32272727272727275,606,0,91,DL_MelancholicFolk_Guitar,6,5,DL_MelancholicFolk_Guitar,0.06159672886133194,0
53,100,0.13636363636363635,677,0,91,DL_MelancholicFolk_Guitar,6,2,DL_MelancholicFolk_Guitar,0.07582658529281616,0
58,100,0.2,707,0,91,DL_MelancholicFolk_Guitar,6,3,DL_MelancholicFolk_Guitar,0.06056714802980423,0
58,100,0.2590909090909091,96,1,92,DL_MelancholicFolk_Guitar,6,4,DL_MelancholicFolk_Guitar,0.9997462630271912,1
58,100,0.2,202,0,92,DL_MelancholicFolk_Guitar,6,3,DL_MelancholicFolk_Guitar,0.08103922754526138,0
53,100,0.1,440,1,92,DL_MelancholicFolk_Guitar,6,2,DL_MelancholicFolk_Guitar,0.08193178474903107,0
65,100,0.3181818181818182,462,0,92,DL_MelancholicFolk_Guitar,6,5,DL_MelancholicFolk_Guitar,0.08077230304479599,0
53,100,0.1,593,0,92,DL_MelancholicFolk_Guitar,6,2,DL_MelancholicFolk_Guitar,0.09273266047239304,0
65,100,0.17727272727272728,624,0,92,DL_MelancholicFolk_Guitar,6,3,DL_MelancholicFolk_Guitar,0.10045266896486282,0
57,100,0.3,783,0,92,DL_MelancholicFolk_Guitar,6,5,DL_MelancholicFolk_Guitar,0.08703085780143738,0
53,100,0.6,179,1,93,DL_MelancholicFolk_Guitar,6,10,DL_MelancholicFolk_Guitar,0.9998241066932678,1
65,100,0.4409090909090909,312,0,93,DL_MelancholicFolk_Guitar,6,7,DL_MelancholicFolk_Guitar,0.2162865698337555,0
57,100,0.3409090909090909,453,0,93,DL_MelancholicFolk_Guitar,6,5,DL_MelancholicFolk_Guitar,0.19746561348438263,0
57,100,0.3409090909090909,559,0,93,DL_MelancholicFolk_Guitar,6,5,DL_MelancholicFolk_Guitar,0.20891164243221283,0
60,100,0.9181818181818182,633,0,93,DL_MelancholicFolk_Guitar,6,15,DL_MelancholicFolk_Guitar,0.21169163286685944,0
53,100,0.18181818181818182,113,1,94,DL_MelancholicFolk_Guitar,6,3,DL_MelancholicFolk_Guitar,0.9998449087142944,1
65,100,0.2772727272727273,163,0,94,DL_MelancholicFolk_Guitar,6,4,DL_MelancholicFolk_Guitar,0.19837826490402222,0
65,100,0.11818181818181818,237,0,94,DL_MelancholicFolk_Guitar,6,2,DL_MelancholicFolk_Guitar,0.19789499044418335,0
53,100,0.11818181818181818,603,1,94,DL_MelancholicFolk_Guitar,6,2,DL_MelancholicFolk_Guitar,0.20109783113002777,0
65,100,0.2590909090909091,633,0,94,DL_MelancholicFolk_Guitar,6,4,DL_MelancholicFolk_Guitar,0.19861705601215363,0
65,100,0.3,440,1,95,DL_MelancholicFolk_Guitar,6,5,DL_MelancholicFolk_Guitar,0.999855637550354,1
53,100,0.38181818181818183,540,0,95,DL_MelancholicFolk_Guitar,6,6,DL_MelancholicFolk_Guitar,0.31937193870544434,0
53,100,0.2,663,0,95,DL_MelancholicFolk_Guitar,6,3,DL_MelancholicFolk_Guitar,0.2966262102127075,0
60,100,0.9636363636363636,796,0,95,DL_MelancholicFolk_Guitar,6,15,DL_MelancholicFolk_Guitar,0.2936181128025055,0
53,100,0.9,166,1,96,DL_MelancholicFolk_Guitar,6,14,DL_MelancholicFolk_Guitar,0.9997969269752502,1
60,100,0.2772727272727273,404,1,96,DL_MelancholicFolk_Guitar,6,4,DL_MelancholicFolk_Guitar,0.46138274669647217,0
60,100,1.3590909090909091,470,0,96,DL_MelancholicFolk_Guitar,6,15,DL_MelancholicFolk_Guitar,0.41001489758491516,0
53,100,0.7,40,1,97,DL_MelancholicFolk_Guitar,6,11,DL_MelancholicFolk_Guitar,0.999828577041626,1
65,100,0.1,193,0,97,DL_MelancholicFolk_Guitar,6,2,DL_MelancholicFolk_Guitar,0.3554746210575104,0
63,100,0.2,783,1,97,DL_MelancholicFolk_Guitar,6,3,DL_MelancholicFolk_Guitar,0.2822754681110382,0
53,100,0.1590909090909091,849,0,97,DL_MelancholicFolk_Guitar,6,3,DL_MelancholicFolk_Guitar,0.3209298253059387,0
57,100,0.1409090909090909,74,1,98,DL_MelancholicFolk_Guitar,6,2,DL_MelancholicFolk_Guitar,0.9997691512107849,1
53,100,0.1409090909090909,145,0,98,DL_MelancholicFolk_Guitar,6,2,DL_MelancholicFolk_Guitar,0.07910497486591339,0
60,100,0.35909090909090907,216,0,98,DL_MelancholicFolk_Guitar,6,6,DL_MelancholicFolk_Guitar,0.07069867849349976,0
60,100,0.11818181818181818,404,0,98,DL_MelancholicFolk_Guitar,6,2,DL_MelancholicFolk_Guitar,0.08052681386470795,0
53,100,0.4590909090909091,470,0,98,DL_MelancholicFolk_Guitar,6,7,DL_MelancholicFolk_Guitar,0.08304522186517715,0
53,100,0.5,629,0,98,DL_MelancholicFolk_Guitar,6,8,DL_MelancholicFolk_Guitar,0.09402982145547867,0
65,100,0.2,810,0,98,DL_MelancholicFolk_Guitar,6,3,DL_MelancholicFolk_Guitar,0.0894843190908432,0
53,100,0.2,74,1,99,DL_MelancholicFolk_Guitar,6,3,DL_MelancholicFolk_Guitar,0.9998577833175659,1
65,100,0.3181818181818182,119,0,99,DL_MelancholicFolk_Guitar,6,5,DL_MelancholicFolk_Guitar,0.3173210024833679,0
58,100,0.33636363636363636,237,0,99,DL_MelancholicFolk_Guitar,6,5,DL_MelancholicFolk_Guitar,0.2848266065120697,0
62,100,0.9590909090909091,506,1,99,DL_MelancholicFolk_Guitar,6,15,DL_MelancholicFolk_Guitar,0.3087385594844818,0
53,100,0.1590909090909091,0,1,100,DL_MelancholicFolk_Guitar,6,3,DL_MelancholicFolk_Guitar,0.9998534917831421,1
58,100,0.12272727272727273,35,0,100,DL_MelancholicFolk_Guitar,6,2,DL_MelancholicFolk_Guitar,0.31361037492752075,0
58,100,0.2,716,1,100,DL_MelancholicFolk_Guitar,6,3,DL_MelancholicFolk_Guitar,0.2937047481536865,0
53,100,0.35909090909090907,810,0,100,DL_MelancholicFolk_Guitar,6,6,DL_MelancholicFolk_Guitar,0.3148895502090454,0
60,100,0.3,176,1,101,DL_MelancholicFolk_Guitar,6,5,DL_MelancholicFolk_Guitar,0.9998067021369934,1
53,100,0.2772727272727273,250,0,101,DL_MelancholicFolk_Guitar,6,4,DL_MelancholicFolk_Guitar,0.12904535233974457,0
60,100,0.12272727272727273,333,0,101,DL_MelancholicFolk_Guitar,6,2,DL_MelancholicFolk_Guitar,0.12245094776153564,0
53,100,0.4409090909090909,386,0,101,DL_MelancholicFolk_Guitar,6,7,DL_MelancholicFolk_Guitar,0.13329756259918213,0
53,100,0.16363636363636364,576,0,101,DL_MelancholicFolk_Guitar,6,3,DL_MelancholicFolk_Guitar,0.1475229412317276,0
58,100,0.5181818181818182,770,0,101,DL_MelancholicFolk_Guitar,6,8,DL_MelancholicFolk_Guitar,0.12329121679067612,0
58,100,0.2,43,1,102,DL_MelancholicFolk_Guitar,6,3,DL_MelancholicFolk_Guitar,0.9996598958969116,1
58,100,0.2409090909090909,123,0,102,DL_MelancholicFolk_Guitar,6,4,DL_MelancholicFolk_Guitar,0.0358443446457386,0
53,100,0.12272727272727273,255,0,102,DL_MelancholicFolk_Guitar,6,2,DL_MelancholicFolk_Guitar,0.029041867703199387,0
58,100,0.5409090909090909,286,0,102,DL_MelancholicFolk_Guitar,6,9,DL_MelancholicFolk_Guitar,0.020161213353276253,0
53,100,0.2590909090909091,417,0,102,DL_MelancholicFolk_Guitar,6,4,DL_MelancholicFolk_Guitar,0.022470748052001,0
58,100,0.23636363636363636,502,0,102,DL_MelancholicFolk_Guitar,6,4,DL_MelancholicFolk_Guitar,0.020394572988152504,0
65,100,0.17727272727272728,590,0,102,DL_MelancholicFolk_Guitar,6,3,DL_MelancholicFolk_Guitar,0.0264775101095438,0
53,100,0.3409090909090909,629,0,102,DL_MelancholicFolk_Guitar,6,5,DL_MelancholicFolk_Guitar,0.03098556399345398,0
58,100,0.3,716,0,102,DL_MelancholicFolk_Guitar,6,5,DL_MelancholicFolk_Guitar,0.03834810480475426,0
65,100,0.17727272727272728,800,0,102,DL_MelancholicFolk_Guitar,6,3,DL_MelancholicFolk_Guitar,0.04240531846880913,0
65,100,0.16363636363636364,686,1,103,DL_MelancholicFolk_Guitar,6,3,DL_MelancholicFolk_Guitar,0.9996528625488281,1
53,100,0.2409090909090909,726,0,103,DL_MelancholicFolk_Guitar,6,4,DL_MelancholicFolk_Guitar,0.5439001321792603,0
60,100,0.2590909090909091,110,1,104,DL_MelancholicFolk_Guitar,6,4,DL_MelancholicFolk_Guitar,0.9997095465660095,1
53,100,0.1,172,0,104,DL_MelancholicFolk_Guitar,6,2,DL_MelancholicFolk_Guitar,0.0438082180917263,0
65,100,0.32272727272727275,255,0,104,DL_MelancholicFolk_Guitar,6,5,DL_MelancholicFolk_Guitar,0.03229653462767601,0
53,100,0.2818181818181818,343,0,104,DL_MelancholicFolk_Guitar,6,5,DL_MelancholicFolk_Guitar,0.030268384143710136,0
65,100,0.1409090909090909,409,0,104,DL_MelancholicFolk_Guitar,6,2,DL_MelancholicFolk_Guitar,0.03137217089533806,0
65,100,0.18181818181818182,443,0,104,DL_MelancholicFolk_Guitar,6,3,DL_MelancholicFolk_Guitar,0.03472936525940895,0
62,100,0.42272727272727273,563,0,104,DL_MelancholicFolk_Guitar,6,7,DL_MelancholicFolk_Guitar,0.03808826208114624,0
62,100,0.1590909090909091,660,0,104,DL_MelancholicFolk_Guitar,6,3,DL_MelancholicFolk_Guitar,0.05258549377322197,0
65,100,1.440909090909091,713,0,104,DL_MelancholicFolk_Guitar,6,15,DL_MelancholicFolk_Guitar,0.04240136221051216,0
65,100,0.9409090909090909,163,1,105,DL_MelancholicFolk_Guitar,6,15,DL_MelancholicFolk_Guitar,0.9997976422309875,1
62,100,0.1409090909090909,713,1,105,DL_MelancholicFolk_Guitar,6,2,DL_MelancholicFolk_Guitar,0.4624033570289612,0
53,100,0.6590909090909091,747,0,105,DL_MelancholicFolk_Guitar,6,11,DL_MelancholicFolk_Guitar,0.42089614272117615,0
53,100,0.18181818181818182,673,1,106,DL_MelancholicFolk_Guitar,6,3,DL_MelancholicFolk_Guitar,0.9998328685760498,1
57,100,0.18181818181818182,726,0,106,DL_MelancholicFolk_Guitar,6,3,DL_MelancholicFolk_Guitar,0.40214645862579346,0
60,100,0.6409090909090909,844,0,106,DL_MelancholicFolk_Guitar,6,10,DL_MelancholicFolk_Guitar,0.42221006751060486,0
53,100,0.11818181818181818,119,1,107,DL_MelancholicFolk_Guitar,6,2,DL_MelancholicFolk_Guitar,0.9998107552528381,1
60,100,0.7772727272727272,250,0,107,DL_MelancholicFolk_Guitar,6,12,DL_MelancholicFolk_Guitar,0.1171259880065918,0
53,100,0.2590909090909091,430,0,107,DL_MelancholicFolk_Guitar,6,4,DL_MelancholicFolk_Guitar,0.12703223526477814,0
65,100,0.1409090909090909,487,0,107,DL_MelancholicFolk_Guitar,6,2,DL_MelancholicFolk_Guitar,0.13714106380939484,0
58,100,0.1590909090909091,677,0,107,DL_MelancholicFolk_Guitar,6,3,DL_MelancholicFolk_Guitar,0.13543912768363953,0
53,100,0.2590909090909091,747,0,107,DL_MelancholicFolk_Guitar,6,4,DL_MelancholicFolk_Guitar,0.13577432930469513,0
65,100,0.36363636363636365,113,1,108,DL_MelancholicFolk_Guitar,6,6,DL_MelancholicFolk_Guitar,0.9998390674591064,1
58,100,0.12272727272727273,386,1,108,DL_MelancholicFolk_Guitar,6,2,DL_MelancholicFolk_Guitar,0.20208844542503357,0
53,100,0.16363636363636364,686,1,108,DL_MelancholicFolk_Guitar,6,3,DL_MelancholicFolk_Guitar,0.20385660231113434,0
65,100,0.2772727272727273,766,0,108,DL_MelancholicFolk_Guitar,6,4,DL_MelancholicFolk_Guitar,0.20336425304412842,0
65,100,0.1409090909090909,857,0,108,DL_MelancholicFolk_Guitar,6,2,DL_MelancholicFolk_Guitar,0.2023596316576004,0
65,100,0.1409090909090909,396,1,109,DL_MelancholicFolk_Guitar,6,2,DL_MelancholicFolk_Guitar,0.9997712969779968,1
65,100,0.2590909090909091,475,0,109,DL_MelancholicFolk_Guitar,6,4,DL_MelancholicFolk_Guitar,0.07887178659439087,0
65,100,0.2,553,0,109,DL_MelancholicFolk_Guitar,6,3,DL_MelancholicFolk_Guitar,0.07063162326812744,0
53,100,0.2,597,0,109,DL_MelancholicFolk_Guitar,6,3,DL_MelancholicFolk_Guitar,0.07779250293970108,0
60,100,0.4590909090909091,650,0,109,DL_MelancholicFolk_Guitar,6,7,DL_MelancholicFolk_Guitar,0.08639947324991226,0
53,100,0.3409090909090909,779,0,109,DL_MelancholicFolk_Guitar,6,5,DL_MelancholicFolk_Guitar,0.09590626507997513,0
53,100,0.1590909090909091,857,0,109,DL_MelancholicFolk_Guitar,6,3,DL_MelancholicFolk_Guitar,0.087676502764225,0
53,100,0.5181818181818182,43,1,110,DL_MelancholicFolk_Guitar,6,8,DL_MelancholicFolk_Guitar,0.9998292922973633,1
53,100,0.6636363636363637,179,0,110,DL_MelancholicFolk_Guitar,6,11,DL_MelancholicFolk_Guitar,0.20691150426864624,0
53,100,0.2772727272727273,370,0,110,DL_MelancholicFolk_Guitar,6,4,DL_MelancholicFolk_Guitar,0.21667425334453583,0
58,100,0.6818181818181818,443,0,110,DL_MelancholicFolk_Guitar,6,11,DL_MelancholicFolk_Guitar,0.20040957629680634,0
58,100,0.2,853,1,110,DL_MelancholicFolk_Guitar,6,3,DL_MelancholicFolk_Guitar,0.2208011895418167,0
65,100,0.17727272727272728,40,1,111,DL_MelancholicFolk_Guitar,6,3,DL_MelancholicFolk_Guitar,0.9996985197067261,1
65,100,0.11818181818181818,83,0,111,DL_MelancholicFolk_Guitar,6,2,DL_MelancholicFolk_Guitar,0.04394608736038208,0
65,100,0.4590909090909091,193,0,111,DL_MelancholicFolk_Guitar,6,7,DL_MelancholicFolk_Guitar,0.03259147331118584,0
58,100,0.1590909090909091,409,0,111,DL_MelancholicFolk_Guitar,6,3,DL_MelancholicFolk_Guitar,0.03125873580574989,0
58,100,0.6,493,0,111,DL_MelancholicFolk_Guitar,6,10,DL_MelancholicFolk_Guitar,0.030067475512623787,0
53,100,0.1409090909090909,624,0,111,DL_MelancholicFolk_Guitar,6,2,DL_MelancholicFolk_Guitar,0.039927151054143906,0
58,100,0.1590909090909091,656,0,111,DL_MelancholicFolk_Guitar,6,3,DL_MelancholicFolk_Guitar,0.04163488745689392,0
65,100,0.1590909090909091,690,0,111,DL_MelancholicFolk_Guitar,6,3,DL_MelancholicFolk_Guitar,0.05344406142830849,0
58,100,0.1590909090909091,726,0,111,DL_MelancholicFolk_Guitar,6,3,DL_MelancholicFolk_Guitar,0.047045521438121796,0
65,100,0.11818181818181818,263,1,112,DL_MelancholicFolk_Guitar,6,2,DL_MelancholicFolk_Guitar,0.9998421669006348,1
53,100,0.16363636363636364,532,1,112,DL_MelancholicFolk_Guitar,6,3,DL_MelancholicFolk_Guitar,0.20262886583805084,0
53,100,0.5590909090909091,593,0,112,DL_MelancholicFolk_Guitar,6,9,DL_MelancholicFolk_Guitar,0.18549905717372894,0
65,100,0.12272727272727273,817,0,112,DL_MelancholicFolk_Guitar,6,2,DL_MelancholicFolk_Guitar,0.2225130796432495,0
65,100,0.1409090909090909,849,0,112,DL_MelancholicFolk_Guitar,6,2,DL_MelancholicFolk_Guitar,0.20246513187885284,0
53,100,0.2590909090909091,0,1,113,DL_MelancholicFolk_Guitar,6,4,DL_MelancholicFolk_Guitar,0.9997014403343201,1
65,100,0.2409090909090909,56,0,113,DL_MelancholicFolk_Guitar,6,4,DL_MelancholicFolk_Guitar,0.04379115253686905,0
53,100,0.41818181818181815,110,0,113,DL_MelancholicFolk_Guitar,6,7,DL_MelancholicFolk_Guitar,0.032179538160562515,0
65,100,0.17727272727272728,206,0,113,DL_MelancholicFolk_Guitar,6,3,DL_MelancholicFolk_Guitar,0.03157905116677284,0
65,100,0.18181818181818182,307,0,113,DL_MelancholicFolk_Guitar,6,3,DL_MelancholicFolk_Guitar,0.029857661575078964,0
65,100,0.21818181818181817,352,0,113,DL_MelancholicFolk_Guitar,6,3,DL_MelancholicFolk_Guitar,0.0355280302464962,0
58,100,0.5227272727272727,399,0,113,DL_MelancholicFolk_Guitar,6,8,DL_MelancholicFolk_Guitar,0.03765550255775452,0
53,100,0.2409090909090909,624,0,113,DL_MelancholicFolk_Guitar,6,4,DL_MelancholicFolk_Guitar,0.05499408766627312,0
65,100,0.6227272727272727,783,0,113,DL_MelancholicFolk_Guitar,6,10,DL_MelancholicFolk_Guitar,0.04624945670366287,0
58,100,0.2,145,1,114,DL_MelancholicFolk_Guitar,6,3,DL_MelancholicFolk_Guitar,0.99978107213974,1
58,100,0.8,220,0,114,DL_MelancholicFolk_Guitar,6,13,DL_MelancholicFolk_Guitar,0.11799701303243637,0
58,100,0.6227272727272727,409,0,114,DL_MelancholicFolk_Guitar,6,10,DL_MelancholicFolk_Guitar,0.12964613735675812,0
53,100,0.1,553,0,114,DL_MelancholicFolk_Guitar,6,2,DL_MelancholicFolk_Guitar,0.1584768444299698,0
65,100,0.1,673,0,114,DL_MelancholicFolk_Guitar,6,2,DL_MelancholicFolk_Guitar,0.15443573892116547,0
65,100,0.2636363636363636,729,0,114,DL_MelancholicFolk_Guitar,6,4,DL_MelancholicFolk_Guitar,0.14310991764068604,0
60,100,0.2636363636363636,487,1,115,DL_MelancholicFolk_Guitar,6,4,DL_MelancholicFolk_Guitar,0.999651312828064,1
60,100,0.23636363636363636,787,1,115,DL_MelancholicFolk_Guitar,6,4,DL_MelancholicFolk_Guitar,0.5468225479125977,0
60,100,0.23636363636363636,656,1,116,DL_MelancholicFolk_Guitar,6,4,DL_MelancholicFolk_Guitar,0.9995958209037781,1
60,100,2.7,734,0,116,DL_MelancholicFolk_Guitar,6,15,DL_MelancholicFolk_Guitar,0.5107154250144958,0
65,100,0.2409090909090909,92,1,118,DL_MelancholicFolk_Guitar,6,4,DL_MelancholicFolk_Guitar,0.9998291730880737,1
65,100,0.35909090909090907,176,0,118,DL_MelancholicFolk_Guitar,6,6,DL_MelancholicFolk_Guitar,0.4002550542354584,0
65,100,0.11818181818181818,734,1,118,DL_MelancholicFolk_Guitar,6,2,DL_MelancholicFolk_Guitar,0.43593230843544006,0
65,100,0.5,210,1,119,DL_MelancholicFolk_Guitar,6,8,DL_MelancholicFolk_Guitar,0.9996399879455566,1
65,100,0.2409090909090909,483,1,119,DL_MelancholicFolk_Guitar,6,4,DL_MelancholicFolk_Guitar,0.5504862666130066,0
65,100,2.7181818181818183,426,1,120,DL_MelancholicFolk_Guitar,6,15,DL_MelancholicFolk_Guitar,0.9896866679191589,1
55,100,0.42272727272727273,354,1,0,DL_Guitar_1,6,7,DL_Guitar_1,0.992435872554779,1
53,100,0.6227272727272727,730,1,1,DL_Guitar_1,6,10,DL_Guitar_1,0.9920799136161804,0
53,100,0.2681818181818182,76,1,2,DL_Guitar_1,6,4,DL_Guitar_1,0.9998358488082886,1
70,100,0.24545454545454545,581,1,2,DL_Guitar_1,6,4,DL_Guitar_1,0.19497546553611755,0
72,100,0.24545454545454545,645,0,2,DL_Guitar_1,6,4,DL_Guitar_1,0.2191101610660553,0
70,100,0.2863636363636364,794,0,2,DL_Guitar_1,6,5,DL_Guitar_1,0.19031894207000732,0
72,100,0.31363636363636366,862,0,2,DL_Guitar_1,6,5,DL_Guitar_1,0.22244520485401154,0
70,100,0.33636363636363636,256,1,3,DL_Guitar_1,6,5,DL_Guitar_1,0.999809205532074,1
58,100,0.22272727272727272,336,0,3,DL_Guitar_1,6,4,DL_Guitar_1,0.22422248125076294,0
70,100,0.6227272727272727,400,0,3,DL_Guitar_1,6,10,DL_Guitar_1,0.19918787479400635,0
58,100,0.18181818181818182,537,0,3,DL_Guitar_1,6,3,DL_Guitar_1,0.2285236120223999,0
65,100,0.22272727272727272,842,1,3,DL_Guitar_1,6,4,DL_Guitar_1,0.2318803071975708,0
67,100,0.15454545454545454,55,1,4,DL_Guitar_1,6,2,DL_Guitar_1,0.9996901750564575,1
65,100,0.2,183,0,4,DL_Guitar_1,6,3,DL_Guitar_1,0.04385404661297798,0
67,100,0.24545454545454545,246,0,4,DL_Guitar_1,6,4,DL_Guitar_1,0.03156796097755432,0
53,100,0.5590909090909091,368,0,4,DL_Guitar_1,6,9,DL_Guitar_1,0.02918492630124092,0
65,100,0.24545454545454545,492,0,4,DL_Guitar_1,6,4,DL_Guitar_1,0.03211411461234093,0
53,100,0.24545454545454545,594,0,4,DL_Guitar_1,6,4,DL_Guitar_1,0.03378355875611305,0
65,100,0.42272727272727273,648,0,4,DL_Guitar_1,6,7,DL_Guitar_1,0.03898080438375473,0
53,100,0.22727272727272727,741,0,4,DL_Guitar_1,6,4,DL_Guitar_1,0.05047322437167168,0
53,100,0.24545454545454545,806,0,4,DL_Guitar_1,6,4,DL_Guitar_1,0.04790350794792175,0
65,100,0.13636363636363635,108,1,5,DL_Guitar_1,6,2,DL_Guitar_1,0.9998575448989868,1
53,100,0.2,220,0,5,DL_Guitar_1,6,3,DL_Guitar_1,0.31097668409347534,0
65,100,0.31363636363636366,280,0,5,DL_Guitar_1,6,5,DL_Guitar_1,0.2828079164028168,0
53,100,0.1318181818181818,392,0,5,DL_Guitar_1,6,2,DL_Guitar_1,0.30563223361968994,0
58,100,0.11363636363636363,205,1,6,DL_Guitar_1,6,2,DL_Guitar_1,0.9926723837852478,0
58,100,0.10909090909090909,118,1,10,DL_Guitar_1,6,2,DL_Guitar_1,0.9998342990875244,1
58,100,0.33636363636363636,544,1,10,DL_Guitar_1,6,5,DL_Guitar_1,0.3230132758617401,0
58,100,0.22272727272727272,653,0,10,DL_Guitar_1,6,4,DL_Guitar_1,0.305204302072525,0
58,100,0.13636363636363635,706,0,10,DL_Guitar_1,6,2,DL_Guitar_1,0.32938024401664734,0
58,100,0.17727272727272728,338,1,11,DL_Guitar_1,6,3,DL_Guitar_1,0.9928561449050903,0
53,100,0.4909090909090909,194,1,12,DL_Guitar_1,6,8,DL_Guitar_1,0.999850869178772,1
53,100,0.4,352,0,12,DL_Guitar_1,6,6,DL_Guitar_1,0.32250526547431946,0
53,100,0.15454545454545454,632,1,12,DL_Guitar_1,6,2,DL_Guitar_1,0.2987431287765503,0
60,100,0.37727272727272726,768,0,12,DL_Guitar_1,6,6,DL_Guitar_1,0.3020963668823242,0
53,100,0.22272727272727272,183,1,13,DL_Guitar_1,6,4,DL_Guitar_1,0.9998595714569092,1
60,100,0.13636363636363635,316,0,13,DL_Guitar_1,6,2,DL_Guitar_1,0.3185853064060211,0
55,100,0.10909090909090909,458,0,13,DL_Guitar_1,6,2,DL_Guitar_1,0.2791052758693695,0
65,100,0.11363636363636363,591,0,13,DL_Guitar_1,6,2,DL_Guitar_1,0.3078160285949707,0
55,100,0.37727272727272726,462,1,14,DL_Guitar_1,6,6,DL_Guitar_1,0.9927706122398376,0
53,100,0.1590909090909091,145,1,16,DL_Guitar_1,6,3,DL_Guitar_1,0.9934104084968567,0
57,100,0.42727272727272725,425,1,17,DL_Guitar_1,6,7,DL_Guitar_1,0.9996277093887329,1
53,100,0.22272727272727272,807,1,17,DL_Guitar_1,6,4,DL_Guitar_1,0.551259458065033,0
53,100,0.2,148,1,18,DL_Guitar_1,6,3,DL_Guitar_1,0.9998611211776733,1
53,100,0.22272727272727272,227,0,18,DL_Guitar_1,6,4,DL_Guitar_1,0.31553250551223755,0
53,100,0.1318181818181818,356,0,18,DL_Guitar_1,6,2,DL_Guitar_1,0.28965356945991516,0
57,100,0.33636363636363636,433,0,18,DL_Guitar_1,6,5,DL_Guitar_1,0.2919299006462097,0
58,100,0.40454545454545454,588,1,20,DL_Guitar_1,6,6,DL_Guitar_1,0.9919877052307129,0
58,100,0.17727272727272728,52,1,21,DL_Guitar_1,6,3,DL_Guitar_1,0.9998078942298889,1
58,100,0.24545454545454545,161,0,21,DL_Guitar_1,6,4,DL_Guitar_1,0.41799500584602356,0
57,100,0.22272727272727272,515,1,21,DL_Guitar_1,6,4,DL_Guitar_1,0.44058454036712646,0
53,100,0.15454545454545454,169,1,22,DL_Guitar_1,6,2,DL_Guitar_1,0.9998632669448853,1
53,100,0.2909090909090909,302,0,22,DL_Guitar_1,6,5,DL_Guitar_1,0.30026185512542725,0
53,100,0.31363636363636366,587,1,22,DL_Guitar_1,6,5,DL_Guitar_1,0.2912217378616333,0
58,100,0.1318181818181818,686,0,22,DL_Guitar_1,6,2,DL_Guitar_1,0.30372777581214905,0
58,100,0.2681818181818182,45,1,23,DL_Guitar_1,6,4,DL_Guitar_1,0.9996091723442078,1
53,100,0.2,336,1,23,DL_Guitar_1,6,3,DL_Guitar_1,0.5593132972717285,0
57,100,0.6454545454545455,388,1,24,DL_Guitar_1,6,10,DL_Guitar_1,0.9995771050453186,1
57,100,0.2,536,0,24,DL_Guitar_1,6,3,DL_Guitar_1,0.5603566765785217,0
58,100,0.24545454545454545,185,1,26,DL_Guitar_1,6,4,DL_Guitar_1,0.9998403787612915,1
58,100,0.11363636363636363,436,1,26,DL_Guitar_1,6,2,DL_Guitar_1,0.32584914565086365,0
53,100,0.1590909090909091,705,1,26,DL_Guitar_1,6,3,DL_Guitar_1,0.3095971643924713,0
57,100,0.22272727272727272,774,0,26,DL_Guitar_1,6,4,DL_Guitar_1,0.30941057205200195,0
57,100,0.6909090909090909,61,1,27,DL_Guitar_1,6,11,DL_Guitar_1,0.9998037219047546,1
53,100,0.1318181818181818,278,0,27,DL_Guitar_1,6,2,DL_Guitar_1,0.4438251554965973,0
60,100,0.15454545454545454,547,1,27,DL_Guitar_1,6,2,DL_Guitar_1,0.4349939525127411,0
55,100,0.35454545454545455,846,1,28,DL_Guitar_1,6,6,DL_Guitar_1,0.992950439453125,0
53,100,0.2,123,1,29,DL_Guitar_1,6,3,DL_Guitar_1,0.9998407363891602,1
53,100,0.2681818181818182,172,0,29,DL_Guitar_1,6,4,DL_Guitar_1,0.2098962515592575,0
53,100,0.1590909090909091,358,0,29,DL_Guitar_1,6,3,DL_Guitar_1,0.1940586119890213,0
53,100,0.18181818181818182,584,0,29,DL_Guitar_1,6,3,DL_Guitar_1,0.2085849642753601,0
53,100,0.2909090909090909,772,0,29,DL_Guitar_1,6,5,DL_Guitar_1,0.19674988090991974,0
63,100,0.24545454545454545,436,1,30,DL_Guitar_1,6,4,DL_Guitar_1,0.9998189806938171,1
63,100,0.22272727272727272,521,0,30,DL_Guitar_1,6,4,DL_Guitar_1,0.41144290566444397,0
63,100,0.5818181818181818,721,0,30,DL_Guitar_1,6,9,DL_Guitar_1,0.4321066737174988,0
63,100,0.35909090909090907,268,1,31,DL_Guitar_1,6,6,DL_Guitar_1,0.999812662601471,1
63,100,0.5136363636363637,470,0,31,DL_Guitar_1,6,8,DL_Guitar_1,0.4091874659061432,0
53,100,0.22272727272727272,587,0,31,DL_Guitar_1,6,4,DL_Guitar_1,0.44756898283958435,0
53,100,0.24545454545454545,685,1,33,DL_Guitar_1,6,4,DL_Guitar_1,0.9933324456214905,0
53,100,0.22272727272727272,241,1,34,DL_Guitar_1,6,4,DL_Guitar_1,0.9996417760848999,1
53,100,0.13636363636363635,315,0,34,DL_Guitar_1,6,2,DL_Guitar_1,0.5450065732002258,0
53,100,0.10909090909090909,397,1,36,DL_Guitar_1,6,2,DL_Guitar_1,0.9998326301574707,1
53,100,0.2681818181818182,744,1,36,DL_Guitar_1,6,4,DL_Guitar_1,0.41172492504119873,0
53,100,0.4681818181818182,809,0,36,DL_Guitar_1,6,7,DL_Guitar_1,0.41516178846359253,0
53,100,0.24545454545454545,174,1,37,DL_Guitar_1,6,4,DL_Guitar_1,0.9998103976249695,1
53,100,0.2,243,0,37,DL_Guitar_1,6,3,DL_Guitar_1,0.12372826039791107,0
53,100,0.2909090909090909,307,0,37,DL_Guitar_1,6,5,DL_Guitar_1,0.11568310856819153,0
53,100,0.6045454545454545,380,0,37,DL_Guitar_1,6,10,DL_Guitar_1,0.13386116921901703,0
53,100,0.2681818181818182,602,0,37,DL_Guitar_1,6,4,DL_Guitar_1,0.14520278573036194,0
53,100,0.2681818181818182,680,0,37,DL_Guitar_1,6,4,DL_Guitar_1,0.1334824115037918,0
53,100,0.1590909090909091,860,1,38,DL_Guitar_1,6,3,DL_Guitar_1,0.9933550357818604,0
55,100,0.2909090909090909,383,1,40,DL_Guitar_1,6,5,DL_Guitar_1,0.9995844960212708,1
60,100,0.5136363636363637,830,1,40,DL_Guitar_1,6,8,DL_Guitar_1,0.5602202415466309,0
60,100,0.6227272727272727,352,1,41,DL_Guitar_1,6,10,DL_Guitar_1,0.9929457306861877,0
53,100,0.35909090909090907,56,1,42,DL_Guitar_1,6,6,DL_Guitar_1,0.9998527765274048,1
53,100,0.45,414,1,42,DL_Guitar_1,6,7,DL_Guitar_1,0.3115009665489197,0
53,100,0.33181818181818185,632,0,42,DL_Guitar_1,6,5,DL_Guitar_1,0.2955974340438843,0
53,100,0.24545454545454545,832,0,42,DL_Guitar_1,6,4,DL_Guitar_1,0.3068692684173584,0
60,100,0.22272727272727272,458,1,44,DL_Guitar_1,6,4,DL_Guitar_1,0.9996429681777954,1
53,100,0.22272727272727272,576,0,44,DL_Guitar_1,6,4,DL_Guitar_1,0.5474188327789307,0
53,100,0.2909090909090909,0,1,45,DL_Guitar_1,6,5,DL_Guitar_1,0.9998351335525513,1
53,100,0.1590909090909091,206,0,45,DL_Guitar_1,6,3,DL_Guitar_1,0.21588419377803802,0
58,100,0.4909090909090909,300,0,45,DL_Guitar_1,6,8,DL_Guitar_1,0.18006779253482819,0
53,100,0.17727272727272728,432,0,45,DL_Guitar_1,6,3,DL_Guitar_1,0.22875358164310455,0
53,100,0.5590909090909091,638,0,45,DL_Guitar_1,6,9,DL_Guitar_1,0.20724131166934967,0
53,100,0.2909090909090909,691,1,46,DL_Guitar_1,6,5,DL_Guitar_1,0.9931849837303162,1
53,100,0.3090909090909091,22,1,47,DL_Guitar_1,6,5,DL_Guitar_1,0.9930838346481323,0
60,100,0.6909090909090909,522,1,49,DL_Guitar_1,6,11,DL_Guitar_1,0.9925671815872192,0
53,100,0.13636363636363635,361,1,52,DL_Guitar_1,6,2,DL_Guitar_1,0.9933428764343262,1
55,100,0.2681818181818182,831,1,53,DL_Guitar_1,6,4,DL_Guitar_1,0.9922112226486206,0
57,100,0.7818181818181819,545,1,54,DL_Guitar_1,6,13,DL_Guitar_1,0.9995579123497009,1
57,100,0.20454545454545456,805,1,54,DL_Guitar_1,6,3,DL_Guitar_1,0.5716067552566528,0
55,100,0.2909090909090909,343,1,55,DL_Guitar_1,6,5,DL_Guitar_1,0.9996065497398376,1
53,100,0.3090909090909091,845,1,55,DL_Guitar_1,6,5,DL_Guitar_1,0.5521965622901917,0
53,100,0.31363636363636366,111,1,56,DL_Guitar_1,6,5,DL_Guitar_1,0.9998237490653992,1
53,100,0.13636363636363635,248,0,56,DL_Guitar_1,6,2,DL_Guitar_1,0.4335400462150574,0
55,100,3.036363636363636,386,0,56,DL_Guitar_1,6,15,DL_Guitar_1,0.38329648971557617,0
53,100,0.10909090909090909,58,1,65,DL_Guitar_1,6,2,DL_Guitar_1,0.9934524297714233,1
55,100,0.37727272727272726,317,1,0,DL_Guitar,6,6,DL_Guitar,0.9925242066383362,0
53,100,0.5590909090909091,563,1,1,DL_Guitar,6,9,DL_Guitar,0.9995840191841125,1
53,100,0.23636363636363636,765,0,1,DL_Guitar,6,4,DL_Guitar,0.5672680735588074,0
70,100,0.21818181818181817,339,1,2,DL_Guitar,6,3,DL_Guitar,0.9998182654380798,1
72,100,0.21818181818181817,396,0,2,DL_Guitar,6,3,DL_Guitar,0.23359113931655884,0
70,100,0.2590909090909091,528,0,2,DL_Guitar,6,4,DL_Guitar,0.1905263364315033,0
72,100,0.2772727272727273,590,0,2,DL_Guitar,6,4,DL_Guitar,0.23119519650936127,0
70,100,0.3,836,1,2,DL_Guitar,6,5,DL_Guitar,0.20007359981536865,0
58,100,0.2,26,1,3,DL_Guitar,6,3,DL_Guitar,0.9997004270553589,1
70,100,0.5590909090909091,83,0,3,DL_Guitar,6,9,DL_Guitar,0.05505567789077759,0
58,100,0.1590909090909091,207,0,3,DL_Guitar,6,3,DL_Guitar,0.05306025594472885,0
65,100,0.2,479,1,3,DL_Guitar,6,3,DL_Guitar,0.05309733375906944,0
67,100,0.1409090909090909,562,0,3,DL_Guitar,6,2,DL_Guitar,0.053745780140161514,0
65,100,0.17727272727272728,678,0,3,DL_Guitar,6,3,DL_Guitar,0.06437508761882782,0
67,100,0.21818181818181817,735,0,3,DL_Guitar,6,3,DL_Guitar,0.06930284947156906,0
53,100,0.5,845,0,3,DL_Guitar,6,8,DL_Guitar,0.06233610212802887,0
65,100,0.21818181818181817,74,1,4,DL_Guitar,6,3,DL_Guitar,0.9997115731239319,1
53,100,0.22272727272727272,166,0,4,DL_Guitar,6,4,DL_Guitar,0.04196438565850258,0
65,100,0.37727272727272726,215,0,4,DL_Guitar,6,6,DL_Guitar,0.03157084062695503,0
53,100,0.2,299,0,4,DL_Guitar,6,3,DL_Guitar,0.030993182212114334,0
53,100,0.22272727272727272,355,0,4,DL_Guitar,6,4,DL_Guitar,0.029186248779296875,0
65,100,0.12272727272727273,519,0,4,DL_Guitar,6,2,DL_Guitar,0.0338849313557148,0
53,100,0.18181818181818182,619,0,4,DL_Guitar,6,3,DL_Guitar,0.04017151892185211,0
65,100,0.2818181818181818,672,0,4,DL_Guitar,6,5,DL_Guitar,0.04748566448688507,0
53,100,0.12272727272727273,774,0,4,DL_Guitar,6,2,DL_Guitar,0.047357700765132904,0
58,100,0.1,514,1,5,DL_Guitar,6,2,DL_Guitar,0.9926590323448181,0
58,100,0.1,70,1,9,DL_Guitar,6,2,DL_Guitar,0.9998375177383423,1
58,100,0.3,453,1,9,DL_Guitar,6,5,DL_Guitar,0.32104459404945374,0
58,100,0.2,550,0,9,DL_Guitar,6,3,DL_Guitar,0.3094862103462219,0
58,100,0.12272727272727273,598,0,9,DL_Guitar,6,2,DL_Guitar,0.31921127438545227,0
58,100,0.1590909090909091,175,1,10,DL_Guitar,6,3,DL_Guitar,0.9996073842048645,1
53,100,0.4409090909090909,835,1,10,DL_Guitar,6,7,DL_Guitar,0.5498232841491699,0
53,100,0.35909090909090907,96,1,11,DL_Guitar,6,6,DL_Guitar,0.9998372793197632,1
53,100,0.13636363636363635,347,1,11,DL_Guitar,6,2,DL_Guitar,0.20835573971271515,0
60,100,0.3409090909090909,470,0,11,DL_Guitar,6,5,DL_Guitar,0.19208431243896484,0
53,100,0.2,735,1,11,DL_Guitar,6,3,DL_Guitar,0.20582954585552216,0
60,100,0.11818181818181818,854,0,11,DL_Guitar,6,2,DL_Guitar,0.20231813192367554,0
55,100,0.1,101,1,12,DL_Guitar,6,2,DL_Guitar,0.9996323585510254,1
65,100,0.1,220,0,12,DL_Guitar,6,2,DL_Guitar,0.5523850917816162,0
55,100,0.3409090909090909,13,1,13,DL_Guitar,6,5,DL_Guitar,0.9929059743881226,0
53,100,0.1409090909090909,426,1,14,DL_Guitar,6,2,DL_Guitar,0.9936345815658569,1
57,100,0.38181818181818183,584,1,15,DL_Guitar,6,6,DL_Guitar,0.9929659366607666,0
53,100,0.2,48,1,16,DL_Guitar,6,3,DL_Guitar,0.9998421669006348,1
53,100,0.18181818181818182,246,0,16,DL_Guitar,6,3,DL_Guitar,0.2043808251619339,0
53,100,0.2,316,0,16,DL_Guitar,6,3,DL_Guitar,0.19441558420658112,0
53,100,0.12272727272727273,430,0,16,DL_Guitar,6,2,DL_Guitar,0.20794954895973206,0
57,100,0.3,501,0,16,DL_Guitar,6,5,DL_Guitar,0.19444943964481354,0
58,100,0.35909090909090907,457,1,18,DL_Guitar,6,6,DL_Guitar,0.9998075366020203,1
58,100,0.1590909090909091,766,1,18,DL_Guitar,6,3,DL_Guitar,0.427807480096817,0
58,100,0.22272727272727272,862,0,18,DL_Guitar,6,4,DL_Guitar,0.43482980132102966,0
57,100,0.2,299,1,19,DL_Guitar,6,3,DL_Guitar,0.9996391534805298,1
53,100,0.1409090909090909,779,1,19,DL_Guitar,6,2,DL_Guitar,0.5504190921783447,0
53,100,0.2590909090909091,17,1,20,DL_Guitar,6,4,DL_Guitar,0.9998397827148438,1
53,100,0.2772727272727273,272,1,20,DL_Guitar,6,4,DL_Guitar,0.2074304223060608,0
58,100,0.11818181818181818,360,0,20,DL_Guitar,6,2,DL_Guitar,0.1940516233444214,0
58,100,0.2409090909090909,576,0,20,DL_Guitar,6,4,DL_Guitar,0.20901592075824738,0
53,100,0.18181818181818182,835,1,20,DL_Guitar,6,3,DL_Guitar,0.2157793790102005,0
57,100,0.5818181818181818,791,1,21,DL_Guitar,6,9,DL_Guitar,0.9922810196876526,0
57,100,0.18181818181818182,44,1,22,DL_Guitar,6,3,DL_Guitar,0.9931237101554871,0
58,100,0.21818181818181817,426,1,23,DL_Guitar,6,3,DL_Guitar,0.9996016621589661,1
58,100,0.1,650,0,23,DL_Guitar,6,2,DL_Guitar,0.5517359375953674,0
53,100,0.1409090909090909,13,1,24,DL_Guitar,6,2,DL_Guitar,0.9998409748077393,1
57,100,0.2,75,0,24,DL_Guitar,6,3,DL_Guitar,0.19380979239940643,0
57,100,0.6227272727272727,223,0,24,DL_Guitar,6,10,DL_Guitar,0.1873098462820053,0
53,100,0.11818181818181818,418,0,24,DL_Guitar,6,2,DL_Guitar,0.22103378176689148,0
60,100,0.1409090909090909,660,1,24,DL_Guitar,6,2,DL_Guitar,0.20691628754138947,0
55,100,0.3181818181818182,835,1,25,DL_Guitar,6,5,DL_Guitar,0.9925647974014282,0
53,100,0.17727272727272728,96,1,26,DL_Guitar,6,3,DL_Guitar,0.9998431205749512,1
53,100,0.2409090909090909,140,0,26,DL_Guitar,6,4,DL_Guitar,0.20130528509616852,0
53,100,0.1409090909090909,308,0,26,DL_Guitar,6,2,DL_Guitar,0.19600917398929596,0
53,100,0.16363636363636364,509,0,26,DL_Guitar,6,3,DL_Guitar,0.20609205961227417,0
53,100,0.2590909090909091,677,0,26,DL_Guitar,6,4,DL_Guitar,0.19785761833190918,0
63,100,0.21818181818181817,285,1,27,DL_Guitar,6,3,DL_Guitar,0.9998155236244202,1
63,100,0.2,360,0,27,DL_Guitar,6,3,DL_Guitar,0.42100369930267334,0
63,100,0.5227272727272727,540,0,27,DL_Guitar,6,8,DL_Guitar,0.43119245767593384,0
63,100,0.3181818181818182,44,1,28,DL_Guitar,6,5,DL_Guitar,0.9998182654380798,1
63,100,0.4636363636363636,223,0,28,DL_Guitar,6,7,DL_Guitar,0.4098929166793823,0
53,100,0.2,330,0,28,DL_Guitar,6,3,DL_Guitar,0.44373705983161926,0
53,100,0.22272727272727272,233,1,30,DL_Guitar,6,4,DL_Guitar,0.9998335838317871,1
53,100,0.2,625,1,30,DL_Guitar,6,3,DL_Guitar,0.41363659501075745,0
53,100,0.11818181818181818,691,0,30,DL_Guitar,6,2,DL_Guitar,0.42320728302001953,0
53,100,0.1,581,1,32,DL_Guitar,6,2,DL_Guitar,0.9933926463127136,0
53,100,0.2409090909090909,13,1,33,DL_Guitar,6,4,DL_Guitar,0.9997357726097107,1
53,100,0.42272727272727273,69,0,33,DL_Guitar,6,7,DL_Guitar,0.05299949273467064,0
53,100,0.22272727272727272,289,0,33,DL_Guitar,6,4,DL_Guitar,0.04788168519735336,0
53,100,0.18181818181818182,351,0,33,DL_Guitar,6,3,DL_Guitar,0.046892136335372925,0
53,100,0.2590909090909091,408,0,33,DL_Guitar,6,4,DL_Guitar,0.052434004843235016,0
53,100,0.5409090909090909,474,0,33,DL_Guitar,6,9,DL_Guitar,0.055448684841394424,0
53,100,0.2409090909090909,673,0,33,DL_Guitar,6,4,DL_Guitar,0.07158850878477097,0
53,100,0.23636363636363636,743,0,33,DL_Guitar,6,4,DL_Guitar,0.06247581169009209,0
53,100,0.1409090909090909,813,1,34,DL_Guitar,6,2,DL_Guitar,0.9936807155609131,0
55,100,0.2636363636363636,201,1,36,DL_Guitar,6,4,DL_Guitar,0.9996211528778076,1
60,100,0.4590909090909091,603,1,36,DL_Guitar,6,7,DL_Guitar,0.5498022437095642,0
60,100,0.5590909090909091,83,1,37,DL_Guitar,6,9,DL_Guitar,0.9996128678321838,1
53,100,0.32272727272727275,606,1,37,DL_Guitar,6,5,DL_Guitar,0.5574881434440613,0
53,100,0.4,48,1,38,DL_Guitar,6,6,DL_Guitar,0.9998292922973633,1
53,100,0.3,241,0,38,DL_Guitar,6,5,DL_Guitar,0.4142718017101288,0
53,100,0.22272727272727272,421,0,38,DL_Guitar,6,4,DL_Guitar,0.42769309878349304,0
60,100,0.2,783,1,39,DL_Guitar,6,3,DL_Guitar,0.993196964263916,0
53,100,0.2,8,1,40,DL_Guitar,6,3,DL_Guitar,0.9998080134391785,1
53,100,0.2590909090909091,281,1,40,DL_Guitar,6,4,DL_Guitar,0.1262364387512207,0
53,100,0.1409090909090909,466,0,40,DL_Guitar,6,2,DL_Guitar,0.12538312375545502,0
58,100,0.4409090909090909,550,0,40,DL_Guitar,6,7,DL_Guitar,0.12208433449268341,0
53,100,0.1590909090909091,668,0,40,DL_Guitar,6,3,DL_Guitar,0.1515134871006012,0
53,100,0.5,853,0,40,DL_Guitar,6,8,DL_Guitar,0.13063152134418488,0
53,100,0.2590909090909091,810,1,41,DL_Guitar,6,4,DL_Guitar,0.9933413863182068,1
53,100,0.2772727272727273,118,1,42,DL_Guitar,6,4,DL_Guitar,0.9930626749992371,0
60,100,0.6181818181818182,383,1,44,DL_Guitar,6,10,DL_Guitar,0.992384672164917,0
53,100,0.11818181818181818,845,1,46,DL_Guitar,6,2,DL_Guitar,0.9933218359947205,0
55,100,0.2409090909090909,295,1,48,DL_Guitar,6,4,DL_Guitar,0.9995889067649841,1
57,100,0.7,826,1,48,DL_Guitar,6,11,DL_Guitar,0.5409069657325745,0
57,100,0.18181818181818182,179,1,49,DL_Guitar,6,3,DL_Guitar,0.9996205568313599,1
55,100,0.2636363636363636,554,1,49,DL_Guitar,6,4,DL_Guitar,0.546637237071991,0
53,100,0.2818181818181818,123,1,50,DL_Guitar,6,5,DL_Guitar,0.9998519420623779,1
53,100,0.2818181818181818,254,0,50,DL_Guitar,6,5,DL_Guitar,0.3354179859161377,0
53,100,0.12272727272727273,378,0,50,DL_Guitar,6,2,DL_Guitar,0.3052825629711151,0
55,100,2.7181818181818183,501,0,50,DL_Guitar,6,15,DL_Guitar,0.27190738916397095,0
53,100,0.1,263,1,58,DL_Guitar,6,2,DL_Guitar,0.9935291409492493,1
