pitch,velocity,duration,pos,boundary,bar,instrument,velocity_bucket,duration_bucket,song_id,pred_prob,pred_boundary
52,100,0.4818181818181818,730,1,0,DL_Guitar,6,8,koumoururiko,0.9792243838310242,1
52,100,0.21818181818181817,105,1,1,DL_Guitar,6,3,koumoururiko,0.9983004927635193,1
67,100,0.1409090909090909,175,0,1,DL_Guitar,6,2,koumoururiko,0.0446622408926487,0
62,100,0.1409090909090909,276,0,1,DL_Guitar,6,2,koumoururiko,0.03337213024497032,0
52,100,0.2590909090909091,348,0,1,DL_Guitar,6,4,koumoururiko,0.02694878913462162,0
67,100,0.5181818181818182,414,0,1,DL_Guitar,6,8,koumoururiko,0.02408467046916485,0
69,100,0.2636363636363636,597,0,1,DL_Guitar,6,4,koumoururiko,0.024974031373858452,0
69,100,0.18181818181818182,686,0,1,DL_Guitar,6,3,koumoururiko,0.030648883432149887,0
52,100,0.11818181818181818,744,0,1,DL_Guitar,6,2,koumoururiko,0.041372060775756836,0
59,100,0.32272727272727275,849,0,1,DL_Guitar,6,5,koumoururiko,0.0720716044306755,0
69,100,0.1409090909090909,185,1,2,DL_Guitar,6,2,koumoururiko,0.9983004927635193,1
59,100,0.3,229,0,2,DL_Guitar,6,5,koumoururiko,0.04466318339109421,0
74,100,0.1,299,0,2,DL_Guitar,6,2,koumoururiko,0.03337297588586807,0
57,100,0.2818181818181818,488,0,2,DL_Guitar,6,5,koumoururiko,0.026949424296617508,0
67,100,0.1409090909090909,571,0,2,DL_Guitar,6,2,koumoururiko,0.024085531011223793,0
69,100,0.37727272727272726,602,0,2,DL_Guitar,6,6,koumoururiko,0.024974368512630463,0
55,100,0.11818181818181818,721,0,2,DL_Guitar,6,2,koumoururiko,0.030650610104203224,0
67,100,0.2409090909090909,748,0,2,DL_Guitar,6,4,koumoururiko,0.04137015715241432,0
67,100,0.1,831,0,2,DL_Guitar,6,2,koumoururiko,0.07207223773002625,0
64,100,0.11818181818181818,373,1,3,DL_Guitar,6,2,koumoururiko,0.9986507296562195,1
67,100,0.2818181818181818,443,0,3,DL_Guitar,6,5,koumoururiko,0.08798489719629288,0
64,100,0.1,629,0,3,DL_Guitar,6,2,koumoururiko,0.0929904580116272,0
52,100,0.1409090909090909,651,0,3,DL_Guitar,6,2,koumoururiko,0.1099582239985466,0
67,100,0.5181818181818182,700,0,3,DL_Guitar,6,8,koumoururiko,0.12868034839630127,0
69,100,0.5,831,0,3,DL_Guitar,6,8,koumoururiko,0.1822257786989212,0
59,100,0.759090909090909,163,1,4,DL_Guitar,6,12,koumoururiko,0.9988439083099365,1
74,100,0.2,348,0,4,DL_Guitar,6,3,koumoururiko,0.13798724114894867,0
69,100,0.1590909090909091,462,0,4,DL_Guitar,6,3,koumoururiko,0.1623697727918625,0
59,100,0.3409090909090909,514,0,4,DL_Guitar,6,5,koumoururiko,0.19106297194957733,0
62,100,0.11818181818181818,757,1,4,DL_Guitar,6,2,koumoururiko,0.2619715631008148,0
62,100,0.3409090909090909,122,1,5,DL_Guitar,6,5,koumoururiko,0.9990094900131226,1
55,100,0.3409090909090909,263,0,5,DL_Guitar,6,5,koumoururiko,0.23324184119701385,0
55,100,0.3409090909090909,360,0,5,DL_Guitar,6,5,koumoururiko,0.27058646082878113,0
55,100,0.4818181818181818,496,0,5,DL_Guitar,6,8,koumoururiko,0.3579205870628357,0
56,100,0.35909090909090907,0,1,6,DL_Guitar,6,6,koumoururiko,0.9990094900131226,1
56,100,0.12272727272727273,245,1,6,DL_Guitar,6,2,koumoururiko,0.23323649168014526,0
52,100,0.18181818181818182,452,0,6,DL_Guitar,6,3,koumoururiko,0.2705937325954437,0
57,100,0.759090909090909,651,0,6,DL_Guitar,6,12,koumoururiko,0.35792702436447144,0
59,100,0.17727272727272728,470,1,7,DL_Guitar,6,3,koumoururiko,0.9990280866622925,1
62,100,0.11818181818181818,603,0,7,DL_Guitar,6,2,koumoururiko,0.3703371584415436,0
55,100,0.2,774,0,7,DL_Guitar,6,3,koumoururiko,0.4561820328235626,0
64,100,0.1409090909090909,48,1,8,DL_Guitar,6,2,koumoururiko,0.9990280866622925,1
60,100,0.2,79,0,8,DL_Guitar,6,3,koumoururiko,0.3703427016735077,0
55,100,0.3181818181818182,405,1,8,DL_Guitar,6,5,koumoururiko,0.4561665952205658,0
59,100,0.21818181818181817,747,1,9,DL_Guitar,6,3,koumoururiko,0.979223906993866,1
59,100,0.4590909090909091,185,1,10,DL_Guitar,6,7,koumoururiko,0.9988439083099365,1
64,100,0.32272727272727275,378,0,10,DL_Guitar,6,5,koumoururiko,0.1379808485507965,0
59,100,0.4,567,0,10,DL_Guitar,6,6,koumoururiko,0.16236554086208344,0
59,100,0.5363636363636364,699,0,10,DL_Guitar,6,9,koumoururiko,0.1910630166530609,0
67,100,0.11818181818181818,845,0,10,DL_Guitar,6,2,koumoururiko,0.2619628310203552,0
59,100,0.2409090909090909,13,1,11,DL_Guitar,6,4,koumoururiko,0.9984880685806274,1
57,100,0.17727272727272728,414,1,11,DL_Guitar,6,3,koumoururiko,0.06335493922233582,0
57,100,0.12272727272727273,474,0,11,DL_Guitar,6,2,koumoururiko,0.05829032510519028,0
67,100,0.11818181818181818,704,0,11,DL_Guitar,6,2,koumoururiko,0.061366498470306396,0
55,100,0.12272727272727273,730,0,11,DL_Guitar,6,2,koumoururiko,0.07168633490800858,0
67,100,0.3,756,0,11,DL_Guitar,6,5,koumoururiko,0.0847400650382042,0
59,100,0.1409090909090909,871,0,11,DL_Guitar,6,2,koumoururiko,0.12635448575019836,0
59,100,0.22272727272727272,25,1,12,DL_Guitar,6,4,koumoururiko,0.9988439083099365,1
55,100,0.2409090909090909,92,0,12,DL_Guitar,6,4,koumoururiko,0.13798217475414276,0
55,100,0.2409090909090909,163,0,12,DL_Guitar,6,4,koumoururiko,0.1623619645833969,0
60,100,0.1,682,1,12,DL_Guitar,6,2,koumoururiko,0.19106002151966095,0
55,100,0.2818181818181818,795,0,12,DL_Guitar,6,5,koumoururiko,0.26195621490478516,0
55,100,0.16363636363636364,3,1,13,DL_Guitar,6,3,koumoururiko,0.9990280866622925,1
60,100,0.1,202,0,13,DL_Guitar,6,2,koumoururiko,0.37033867835998535,0
55,100,0.1,391,0,13,DL_Guitar,6,2,koumoururiko,0.4561602473258972,0
55,100,0.2590909090909091,194,1,14,DL_Guitar,6,4,koumoururiko,0.9990280866622925,1
57,100,0.2409090909090909,409,0,14,DL_Guitar,6,4,koumoururiko,0.3703356683254242,0
62,100,0.37727272727272726,809,1,14,DL_Guitar,6,6,koumoururiko,0.45617225766181946,0
55,100,0.21818181818181817,220,1,15,DL_Guitar,6,3,koumoururiko,0.9792240262031555,1
62,100,0.23636363636363636,281,1,16,DL_Guitar,6,4,koumoururiko,0.9988439083099365,1
56,100,0.17727272727272728,492,0,16,DL_Guitar,6,3,koumoururiko,0.13798440992832184,0
55,100,0.2590909090909091,550,0,16,DL_Guitar,6,4,koumoururiko,0.1623695343732834,0
55,100,0.21818181818181817,611,0,16,DL_Guitar,6,3,koumoururiko,0.19106106460094452,0
55,100,0.5636363636363636,796,0,16,DL_Guitar,6,9,koumoururiko,0.2619645297527313,0
52,100,0.22272727272727272,48,1,17,DL_Guitar,6,4,koumoururiko,0.9986506104469299,1
52,100,0.1409090909090909,246,0,17,DL_Guitar,6,2,koumoururiko,0.08798202127218246,0
57,100,0.1,430,0,17,DL_Guitar,6,2,koumoururiko,0.09298872202634811,0
81,100,0.1590909090909091,515,0,17,DL_Guitar,6,3,koumoururiko,0.10995824635028839,0
57,100,0.22272727272727272,729,0,17,DL_Guitar,6,4,koumoururiko,0.1286812722682953,0
57,100,0.5181818181818182,814,0,17,DL_Guitar,6,8,koumoururiko,0.18222558498382568,0
62,100,0.1590909090909091,409,1,19,DL_Guitar,6,3,koumoururiko,0.9990280866622925,1
59,100,0.5181818181818182,602,0,19,DL_Guitar,6,8,koumoururiko,0.37034547328948975,0
62,100,0.21818181818181817,858,1,19,DL_Guitar,6,3,koumoururiko,0.45617225766181946,0
59,100,0.2409090909090909,48,1,20,DL_Guitar,6,4,koumoururiko,0.9986506104469299,1
62,100,0.5409090909090909,229,0,20,DL_Guitar,6,9,koumoururiko,0.08798064291477203,0
62,100,0.11818181818181818,370,0,20,DL_Guitar,6,2,koumoururiko,0.09299010038375854,0
62,100,0.11818181818181818,436,0,20,DL_Guitar,6,2,koumoururiko,0.10995616763830185,0
62,100,0.22272727272727272,739,1,20,DL_Guitar,6,4,koumoururiko,0.12868331372737885,0
62,100,0.7227272727272728,870,0,20,DL_Guitar,6,12,koumoururiko,0.18223543465137482,0
57,100,0.11818181818181818,150,1,21,DL_Guitar,6,2,koumoururiko,0.9990094900131226,1
62,100,0.11818181818181818,175,0,21,DL_Guitar,6,2,koumoururiko,0.23323504626750946,0
62,100,0.2,501,1,21,DL_Guitar,6,3,koumoururiko,0.2705861032009125,0
62,100,0.13636363636363635,567,0,21,DL_Guitar,6,2,koumoururiko,0.3579384982585907,0
60,100,0.1590909090909091,237,1,22,DL_Guitar,6,3,koumoururiko,0.9990094900131226,1
60,100,0.12272727272727273,312,0,22,DL_Guitar,6,2,koumoururiko,0.233228862285614,0
60,100,0.3409090909090909,443,0,22,DL_Guitar,6,5,koumoururiko,0.2705863416194916,0
55,100,0.1590909090909091,646,0,22,DL_Guitar,6,3,koumoururiko,0.35792076587677,0
59,100,0.12272727272727273,158,1,23,DL_Guitar,6,2,koumoururiko,0.9983004927635193,1
59,100,0.4590909090909091,250,0,23,DL_Guitar,6,7,koumoururiko,0.044661302119493484,0
59,100,0.1409090909090909,430,0,23,DL_Guitar,6,2,koumoururiko,0.03337110951542854,0
59,100,0.17727272727272728,492,0,23,DL_Guitar,6,3,koumoururiko,0.0269473847001791,0
59,100,0.2590909090909091,571,0,23,DL_Guitar,6,4,koumoururiko,0.024083301424980164,0
59,100,0.2,633,0,23,DL_Guitar,6,3,koumoururiko,0.0249730683863163,0
59,100,0.5,681,0,23,DL_Guitar,6,8,koumoururiko,0.030647356063127518,0
59,100,0.1409090909090909,801,0,23,DL_Guitar,6,2,koumoururiko,0.04136938974261284,0
59,100,0.2,862,0,23,DL_Guitar,6,3,koumoururiko,0.0720718577504158,0
64,100,0.1590909090909091,44,1,24,DL_Guitar,6,3,koumoururiko,0.9986506104469299,1
59,100,0.8363636363636363,127,0,24,DL_Guitar,6,13,koumoururiko,0.08797723799943924,0
52,100,0.3,320,0,24,DL_Guitar,6,5,koumoururiko,0.09298703819513321,0
59,100,0.17727272727272728,413,0,24,DL_Guitar,6,3,koumoururiko,0.10995110869407654,0
59,100,0.9,567,0,24,DL_Guitar,6,14,koumoururiko,0.12867285311222076,0
59,100,0.3409090909090909,801,1,24,DL_Guitar,6,5,koumoururiko,0.18222148716449738,0
59,100,0.2,281,1,25,DL_Guitar,6,3,koumoururiko,0.9986506104469299,1
59,100,0.17727272727272728,413,0,25,DL_Guitar,6,3,koumoururiko,0.0879790410399437,0
62,100,0.2590909090909091,567,0,25,DL_Guitar,6,4,koumoururiko,0.09298398345708847,0
59,100,0.5772727272727273,625,0,25,DL_Guitar,6,9,koumoururiko,0.10995092242956161,0
62,100,0.3,756,0,25,DL_Guitar,6,5,koumoururiko,0.12867480516433716,0
59,100,0.16363636363636364,862,0,25,DL_Guitar,6,3,koumoururiko,0.18222469091415405,0
60,100,0.2409090909090909,387,1,26,DL_Guitar,6,4,koumoururiko,0.9988439083099365,1
60,100,0.4,480,0,26,DL_Guitar,6,6,koumoururiko,0.13798315823078156,0
55,100,0.22272727272727272,584,0,26,DL_Guitar,6,4,koumoururiko,0.16236476600170135,0
60,100,0.1590909090909091,760,0,26,DL_Guitar,6,3,koumoururiko,0.19106034934520721,0
60,100,0.2,839,0,26,DL_Guitar,6,3,koumoururiko,0.26196572184562683,0
60,100,0.740909090909091,57,1,27,DL_Guitar,6,12,koumoururiko,0.9988439083099365,1
55,100,0.11818181818181818,250,0,27,DL_Guitar,6,2,koumoururiko,0.13798484206199646,0
60,100,0.1590909090909091,285,0,27,DL_Guitar,6,3,koumoururiko,0.16236889362335205,0
57,100,0.1590909090909091,735,1,27,DL_Guitar,6,3,koumoururiko,0.19105814397335052,0
57,100,0.35909090909090907,835,0,27,DL_Guitar,6,6,koumoururiko,0.26196524500846863,0
62,100,0.2409090909090909,44,1,28,DL_Guitar,6,4,koumoururiko,0.9988439083099365,1
62,100,0.4409090909090909,131,0,28,DL_Guitar,6,7,koumoururiko,0.13799048960208893,0
57,100,0.5590909090909091,360,0,28,DL_Guitar,6,9,koumoururiko,0.16237109899520874,0
57,100,0.17727272727272728,515,0,28,DL_Guitar,6,3,koumoururiko,0.19107216596603394,0
62,100,0.740909090909091,725,0,28,DL_Guitar,6,12,koumoururiko,0.2619737386703491,0
62,100,0.11818181818181818,40,1,29,DL_Guitar,6,2,koumoururiko,0.9983735084533691,1
59,100,0.17727272727272728,75,0,29,DL_Guitar,6,3,koumoururiko,0.05105045810341835,0
62,100,0.42272727272727273,202,0,29,DL_Guitar,6,7,koumoururiko,0.041613806039094925,0
55,100,0.5409090909090909,382,0,29,DL_Guitar,6,9,koumoururiko,0.037980854511260986,0
59,100,0.11818181818181818,523,0,29,DL_Guitar,6,2,koumoururiko,0.0392620787024498,0
62,100,0.23636363636363636,567,0,29,DL_Guitar,6,4,koumoururiko,0.04616871476173401,0
62,100,0.3409090909090909,629,0,29,DL_Guitar,6,5,koumoururiko,0.05713633820414543,0
57,100,0.6181818181818182,756,0,29,DL_Guitar,6,10,koumoururiko,0.09188398718833923,0
57,100,0.5590909090909091,144,1,30,DL_Guitar,6,9,koumoururiko,0.9990094900131226,1
57,100,0.37727272727272726,339,0,30,DL_Guitar,6,6,koumoururiko,0.2332361787557602,0
62,100,0.2409090909090909,422,0,30,DL_Guitar,6,4,koumoururiko,0.27059099078178406,0
57,100,0.6181818181818182,660,1,30,DL_Guitar,6,10,koumoururiko,0.3579287827014923,0
57,100,0.4636363636363636,48,1,31,DL_Guitar,6,7,koumoururiko,0.9986506104469299,1
57,100,0.2409090909090909,223,0,31,DL_Guitar,6,4,koumoururiko,0.08798221498727798,0
57,100,0.6409090909090909,285,0,31,DL_Guitar,6,10,koumoururiko,0.09298824518918991,0
57,100,0.3,474,0,31,DL_Guitar,6,5,koumoururiko,0.10995494574308395,0
57,100,0.12272727272727273,629,0,31,DL_Guitar,6,2,koumoururiko,0.12867982685565948,0
57,100,0.5181818181818182,810,0,31,DL_Guitar,6,8,koumoururiko,0.18222235143184662,0
57,100,0.1409090909090909,48,1,32,DL_Guitar,6,2,koumoururiko,0.9983735084533691,1
57,100,0.2,114,0,32,DL_Guitar,6,3,koumoururiko,0.05105101317167282,0
59,100,0.22272727272727272,246,0,32,DL_Guitar,6,4,koumoururiko,0.04161268100142479,0
59,100,0.11818181818181818,316,0,32,DL_Guitar,6,2,koumoururiko,0.03798067569732666,0
59,100,0.3,361,0,32,DL_Guitar,6,5,koumoururiko,0.039260800927877426,0
62,100,0.11818181818181818,590,0,32,DL_Guitar,6,2,koumoururiko,0.04616643860936165,0
57,100,0.18181818181818182,641,0,32,DL_Guitar,6,3,koumoururiko,0.05713239684700966,0
55,100,0.21818181818181817,691,0,32,DL_Guitar,6,3,koumoururiko,0.09188287705183029,0
55,100,0.1409090909090909,21,1,33,DL_Guitar,6,2,koumoururiko,0.9986506104469299,1
59,100,0.11818181818181818,131,0,33,DL_Guitar,6,2,koumoururiko,0.08797843009233475,0
57,100,0.3,241,0,33,DL_Guitar,6,5,koumoururiko,0.09298289567232132,0
60,100,0.35909090909090907,581,1,33,DL_Guitar,6,6,koumoururiko,0.1099478080868721,0
60,100,0.2636363636363636,708,0,33,DL_Guitar,6,4,koumoururiko,0.12867052853107452,0
59,100,0.2,778,0,33,DL_Guitar,6,3,koumoururiko,0.18221712112426758,0
65,100,0.11818181818181818,435,1,34,DL_Guitar,6,2,koumoururiko,0.979223906993866,1
62,100,0.2772727272727273,31,1,35,DL_Guitar,6,4,koumoururiko,0.9988439083099365,1
52,100,0.38181818181818183,110,0,35,DL_Guitar,6,6,koumoururiko,0.13798676431179047,0
52,100,0.21818181818181817,251,0,35,DL_Guitar,6,3,koumoururiko,0.16237114369869232,0
59,100,0.6409090909090909,466,0,35,DL_Guitar,6,10,koumoururiko,0.19106625020503998,0
57,100,1.059090909090909,628,0,35,DL_Guitar,6,15,koumoururiko,0.2619674801826477,0
52,100,0.2409090909090909,4,1,36,DL_Guitar,6,4,koumoururiko,0.9990280866622925,1
57,100,0.9818181818181818,110,0,36,DL_Guitar,6,15,koumoururiko,0.37033629417419434,0
59,100,0.5,761,1,36,DL_Guitar,6,8,koumoururiko,0.45616987347602844,0
67,100,0.2590909090909091,13,1,37,DL_Guitar,6,4,koumoururiko,0.9984880685806274,1
55,100,0.22272727272727272,78,0,37,DL_Guitar,6,4,koumoururiko,0.06335339695215225,0
62,100,0.2,131,0,37,DL_Guitar,6,3,koumoururiko,0.058288976550102234,0
64,100,0.38181818181818183,179,0,37,DL_Guitar,6,6,koumoururiko,0.06136224791407585,0
64,100,0.35909090909090907,435,1,37,DL_Guitar,6,6,koumoururiko,0.07168327271938324,0
67,100,0.1,531,0,37,DL_Guitar,6,2,koumoururiko,0.08473725616931915,0
55,100,0.21818181818181817,655,0,37,DL_Guitar,6,3,koumoururiko,0.12635110318660736,0
71,100,0.37727272727272726,53,1,38,DL_Guitar,6,6,koumoururiko,0.9983735084533691,1
55,100,0.11818181818181818,150,0,38,DL_Guitar,6,2,koumoururiko,0.05104975402355194,0
62,100,0.18181818181818182,220,0,38,DL_Guitar,6,3,koumoururiko,0.04161203280091286,0
69,100,0.17727272727272728,281,0,38,DL_Guitar,6,3,koumoururiko,0.03798021003603935,0
71,100,0.18181818181818182,334,0,38,DL_Guitar,6,3,koumoururiko,0.03926144912838936,0
74,100,0.3,396,0,38,DL_Guitar,6,5,koumoururiko,0.04616831615567207,0
69,100,0.22272727272727272,563,0,38,DL_Guitar,6,4,koumoururiko,0.05713373422622681,0
69,100,0.18181818181818182,616,0,38,DL_Guitar,6,3,koumoururiko,0.09188400208950043,0
62,100,0.2,131,1,39,DL_Guitar,6,3,koumoururiko,0.9984880685806274,1
67,100,0.2,303,0,39,DL_Guitar,6,3,koumoururiko,0.06335471570491791,0
55,100,0.3181818181818182,348,0,39,DL_Guitar,6,5,koumoururiko,0.058291178196668625,0
62,100,0.1590909090909091,435,0,39,DL_Guitar,6,3,koumoururiko,0.061363425105810165,0
64,100,0.35909090909090907,474,0,39,DL_Guitar,6,6,koumoururiko,0.07168478518724442,0
67,100,0.21818181818181817,558,0,39,DL_Guitar,6,3,koumoururiko,0.08473751693964005,0
64,100,0.3,738,0,39,DL_Guitar,6,5,koumoururiko,0.12635686993598938,0
64,100,0.2,88,1,40,DL_Guitar,6,3,koumoururiko,0.9984879493713379,1
64,100,0.16363636363636364,136,0,40,DL_Guitar,6,3,koumoururiko,0.06335435807704926,0
55,100,0.1,201,0,40,DL_Guitar,6,2,koumoururiko,0.058294136077165604,0
69,100,0.2590909090909091,563,1,40,DL_Guitar,6,4,koumoururiko,0.061363812536001205,0
59,100,0.1409090909090909,646,0,40,DL_Guitar,6,2,koumoururiko,0.07168728858232498,0
74,100,0.2818181818181818,694,0,40,DL_Guitar,6,5,koumoururiko,0.08474135398864746,0
69,100,0.6181818181818182,858,0,40,DL_Guitar,6,10,koumoururiko,0.1263492852449417,0
62,100,0.5590909090909091,321,1,41,DL_Guitar,6,9,koumoururiko,0.9990094900131226,1
55,100,0.2,584,1,41,DL_Guitar,6,3,koumoururiko,0.23323442041873932,0
59,100,0.5590909090909091,713,0,41,DL_Guitar,6,9,koumoururiko,0.2705920934677124,0
55,100,0.2,839,0,41,DL_Guitar,6,3,koumoururiko,0.3579263985157013,0
55,100,0.2,101,1,42,DL_Guitar,6,3,koumoururiko,0.9984880685806274,1
55,100,0.1590909090909091,150,0,42,DL_Guitar,6,3,koumoururiko,0.06335380673408508,0
55,100,0.3409090909090909,201,0,42,DL_Guitar,6,5,koumoururiko,0.0582895390689373,0
59,100,0.6409090909090909,351,0,42,DL_Guitar,6,10,koumoururiko,0.06136106327176094,0
55,100,0.2772727272727273,515,0,42,DL_Guitar,6,4,koumoururiko,0.07168405503034592,0
57,100,1.1409090909090909,606,0,42,DL_Guitar,6,15,koumoururiko,0.08473438769578934,0
64,100,1.1409090909090909,871,1,42,DL_Guitar,6,15,koumoururiko,0.12635473906993866,0
57,100,0.1409090909090909,241,1,43,DL_Guitar,6,2,koumoururiko,0.9986507296562195,1
81,100,0.3181818181818182,273,0,43,DL_Guitar,6,5,koumoururiko,0.0879812017083168,0
57,100,0.3,413,0,43,DL_Guitar,6,5,koumoururiko,0.0929887667298317,0
57,100,0.16363636363636364,509,0,43,DL_Guitar,6,3,koumoururiko,0.1099565401673317,0
55,100,0.6,611,0,43,DL_Guitar,6,10,koumoururiko,0.12867598235607147,0
60,100,0.1590909090909091,875,1,43,DL_Guitar,6,3,koumoururiko,0.18222665786743164,0
60,100,0.5590909090909091,61,1,44,DL_Guitar,6,9,koumoururiko,0.9988439083099365,1
60,100,0.16363636363636364,224,0,44,DL_Guitar,6,3,koumoururiko,0.13798490166664124,0
62,100,0.33636363636363636,348,0,44,DL_Guitar,6,5,koumoururiko,0.16236768662929535,0
60,100,0.5590909090909091,496,0,44,DL_Guitar,6,9,koumoururiko,0.19105860590934753,0
74,100,0.35909090909090907,660,0,44,DL_Guitar,6,6,koumoururiko,0.2619688808917999,0
60,100,0.12272727272727273,69,1,51,DL_Guitar,6,2,koumoururiko,0.9792243838310242,1
62,100,0.1,361,1,52,DL_Guitar,6,2,koumoururiko,0.9792237281799316,1
60,100,0.38181818181818183,311,1,53,DL_Guitar,6,6,koumoururiko,0.9990280866622925,1
60,100,1.1409090909090909,471,0,53,DL_Guitar,6,15,koumoururiko,0.37033402919769287,0
60,100,0.2,861,1,53,DL_Guitar,6,3,koumoururiko,0.4561772048473358,0
60,100,0.4772727272727273,53,1,54,DL_Guitar,6,8,koumoururiko,0.9990280866622925,1
59,100,0.16363636363636364,224,0,54,DL_Guitar,6,3,koumoururiko,0.37033939361572266,0
59,100,0.11818181818181818,743,1,54,DL_Guitar,6,2,koumoururiko,0.4561709463596344,0
62,100,0.2590909090909091,123,1,57,DL_Guitar,6,4,koumoururiko,0.9792237281799316,1
59,100,0.2636363636363636,114,1,63,DL_Guitar,6,4,koumoururiko,0.9983231425285339,1
58,100,0.13636363636363635,501,1,63,DL_Guitar,6,2,koumoururiko,0.5462168455123901,1
59,100,0.1,360,1,65,DL_Guitar,6,2,koumoururiko,0.9988439083099365,1
59,100,0.1,386,0,65,DL_Guitar,6,2,koumoururiko,0.1379851996898651,0
59,100,0.2636363636363636,422,0,65,DL_Guitar,6,4,koumoururiko,0.1623639315366745,0
59,100,0.4409090909090909,506,0,65,DL_Guitar,6,7,koumoururiko,0.19105727970600128,0
59,100,0.5409090909090909,624,0,65,DL_Guitar,6,9,koumoururiko,0.26196369528770447,0
57,100,0.41818181818181815,9,1,66,DL_Guitar,6,7,koumoururiko,0.9792236089706421,1
59,100,0.2409090909090909,443,1,77,DL_Guitar,6,4,koumoururiko,0.9983232617378235,1
57,100,0.23636363636363636,700,1,77,DL_Guitar,6,4,koumoururiko,0.5462175607681274,1
57,100,0.2409090909090909,0,1,78,DL_Guitar,6,4,koumoururiko,0.9988439083099365,1
57,100,0.1,83,0,78,DL_Guitar,6,2,koumoururiko,0.13798518478870392,0
57,100,0.22272727272727272,145,0,78,DL_Guitar,6,4,koumoururiko,0.16236497461795807,0
57,100,0.11818181818181818,294,0,78,DL_Guitar,6,2,koumoururiko,0.19105972349643707,0
59,100,0.1,360,0,78,DL_Guitar,6,2,koumoururiko,0.26197296380996704,0
62,100,0.2818181818181818,0,1,94,DL_Guitar,6,5,koumoururiko,0.9982556700706482,1
62,100,0.11818181818181818,110,0,94,DL_Guitar,6,2,koumoururiko,0.041293445974588394,0
62,100,0.1409090909090909,229,0,94,DL_Guitar,6,2,koumoururiko,0.029125861823558807,0
64,100,0.35909090909090907,260,0,94,DL_Guitar,6,6,koumoururiko,0.02157059870660305,0
55,100,0.17727272727272728,347,0,94,DL_Guitar,6,3,koumoururiko,0.017060136422514915,0
62,100,0.21818181818181817,413,0,94,DL_Guitar,6,3,koumoururiko,0.015269279479980469,0
62,100,0.13636363636363635,480,0,94,DL_Guitar,6,2,koumoururiko,0.01645718142390251,0
64,100,0.3409090909090909,514,0,94,DL_Guitar,6,5,koumoururiko,0.021838515996932983,0
67,100,0.5590909090909091,590,0,94,DL_Guitar,6,9,koumoururiko,0.03251834958791733,0
66,100,0.13636363636363635,876,1,94,DL_Guitar,6,2,koumoururiko,0.060915250331163406,0
71,100,0.3,47,1,95,DL_Guitar,6,5,koumoururiko,0.9984879493713379,1
71,100,0.3,150,0,95,DL_Guitar,6,5,koumoururiko,0.06335406005382538,0
66,100,0.2,233,0,95,DL_Guitar,6,3,koumoururiko,0.05828990787267685,0
62,100,0.1,307,0,95,DL_Guitar,6,2,koumoururiko,0.06136228144168854,0
71,100,0.17727272727272728,413,0,95,DL_Guitar,6,3,koumoururiko,0.07168608903884888,0
69,100,0.22272727272727272,805,1,95,DL_Guitar,6,4,koumoururiko,0.08473966270685196,0
67,100,1.259090909090909,876,0,95,DL_Guitar,6,15,koumoururiko,0.12635250389575958,0
62,100,0.12272727272727273,365,1,96,DL_Guitar,6,2,koumoururiko,0.9984879493713379,1
64,100,0.13636363636363635,392,0,96,DL_Guitar,6,2,koumoururiko,0.06335482746362686,0
62,100,0.1409090909090909,506,0,96,DL_Guitar,6,2,koumoururiko,0.05829079821705818,0
64,100,0.38181818181818183,540,0,96,DL_Guitar,6,6,koumoururiko,0.06136463209986687,0
62,100,0.11818181818181818,726,0,96,DL_Guitar,6,2,koumoururiko,0.07168424874544144,0
62,100,0.17727272727272728,756,0,96,DL_Guitar,6,3,koumoururiko,0.08474042266607285,0
64,100,0.3409090909090909,796,0,96,DL_Guitar,6,5,koumoururiko,0.126357764005661,0
67,100,0.5818181818181818,0,1,97,DL_Guitar,6,9,koumoururiko,0.9986506104469299,1
69,100,0.21818181818181817,132,0,97,DL_Guitar,6,3,koumoururiko,0.087980717420578,0
71,100,0.8,330,0,97,DL_Guitar,6,13,koumoururiko,0.09298396855592728,0
66,100,0.1,536,0,97,DL_Guitar,6,2,koumoururiko,0.1099502444267273,0
62,100,0.2590909090909091,567,0,97,DL_Guitar,6,4,koumoururiko,0.1286703497171402,0
69,100,0.1409090909090909,650,0,97,DL_Guitar,6,2,koumoururiko,0.18222016096115112,0
69,100,0.18181818181818182,233,1,98,DL_Guitar,6,3,koumoururiko,0.9983232617378235,1
67,100,0.12272727272727273,399,0,98,DL_Guitar,6,2,koumoururiko,0.5462173223495483,1
57,100,0.18181818181818182,356,1,0,DL_JapaneseFolk_Guitar,6,3,koumouJapaneseFolk,0.9990094900131226,1
61,100,0.17727272727272728,524,0,0,DL_JapaneseFolk_Guitar,6,3,koumouJapaneseFolk,0.23323042690753937,0
54,100,0.18181818181818182,717,0,0,DL_JapaneseFolk_Guitar,6,3,koumouJapaneseFolk,0.2705822288990021,0
52,100,0.2590909090909091,849,0,0,DL_JapaneseFolk_Guitar,6,4,koumouJapaneseFolk,0.3579281270503998,0
57,100,0.3181818181818182,30,1,1,DL_JapaneseFolk_Guitar,6,5,koumouJapaneseFolk,0.9986506104469299,1
59,100,0.37727272727272726,149,0,1,DL_JapaneseFolk_Guitar,6,6,koumouJapaneseFolk,0.08798175305128098,0
59,100,0.2409090909090909,290,0,1,DL_JapaneseFolk_Guitar,6,4,koumouJapaneseFolk,0.09298587590456009,0
57,100,0.2772727272727273,479,0,1,DL_JapaneseFolk_Guitar,6,4,koumouJapaneseFolk,0.10994959622621536,0
57,100,0.7,673,0,1,DL_JapaneseFolk_Guitar,6,11,koumouJapaneseFolk,0.1286708563566208,0
54,100,0.3,866,0,1,DL_JapaneseFolk_Guitar,6,5,koumouJapaneseFolk,0.18222647905349731,0
52,100,0.5590909090909091,57,1,2,DL_JapaneseFolk_Guitar,6,9,koumouJapaneseFolk,0.9988439083099365,1
57,100,0.2818181818181818,180,0,2,DL_JapaneseFolk_Guitar,6,5,koumouJapaneseFolk,0.13798558712005615,0
57,100,0.2590909090909091,633,1,2,DL_JapaneseFolk_Guitar,6,4,koumouJapaneseFolk,0.16237129271030426,0
59,100,0.2590909090909091,703,0,2,DL_JapaneseFolk_Guitar,6,4,koumouJapaneseFolk,0.1910649538040161,0
57,100,0.740909090909091,822,0,2,DL_JapaneseFolk_Guitar,6,12,koumouJapaneseFolk,0.26196545362472534,0
54,100,0.1409090909090909,144,1,3,DL_JapaneseFolk_Guitar,6,2,koumouJapaneseFolk,0.9988439083099365,1
57,100,0.9,201,0,3,DL_JapaneseFolk_Guitar,6,14,koumouJapaneseFolk,0.13798148930072784,0
52,100,0.2409090909090909,466,1,3,DL_JapaneseFolk_Guitar,6,4,koumouJapaneseFolk,0.16236740350723267,0
52,100,0.1590909090909091,611,0,3,DL_JapaneseFolk_Guitar,6,3,koumouJapaneseFolk,0.19105693697929382,0
52,100,0.11818181818181818,788,0,3,DL_JapaneseFolk_Guitar,6,2,koumouJapaneseFolk,0.2619733214378357,0
59,100,0.6409090909090909,91,1,4,DL_JapaneseFolk_Guitar,6,10,koumouJapaneseFolk,0.9986506104469299,1
56,100,0.2,307,0,4,DL_JapaneseFolk_Guitar,6,3,koumouJapaneseFolk,0.08797615021467209,0
64,100,0.21818181818181817,373,0,4,DL_JapaneseFolk_Guitar,6,3,koumouJapaneseFolk,0.0929832011461258,0
52,100,0.22272727272727272,421,0,4,DL_JapaneseFolk_Guitar,6,4,koumouJapaneseFolk,0.10994582623243332,0
59,100,0.1409090909090909,509,0,4,DL_JapaneseFolk_Guitar,6,2,koumouJapaneseFolk,0.12866947054862976,0
59,100,0.6590909090909091,637,0,4,DL_JapaneseFolk_Guitar,6,11,koumouJapaneseFolk,0.18221186101436615,0
61,100,0.1590909090909091,128,1,5,DL_JapaneseFolk_Guitar,6,3,koumouJapaneseFolk,0.9986506104469299,1
57,100,0.740909090909091,242,0,5,DL_JapaneseFolk_Guitar,6,12,koumouJapaneseFolk,0.08798164129257202,0
52,100,0.1590909090909091,452,0,5,DL_JapaneseFolk_Guitar,6,3,koumouJapaneseFolk,0.09299110621213913,0
52,100,0.3409090909090909,496,0,5,DL_JapaneseFolk_Guitar,6,5,koumouJapaneseFolk,0.1099555566906929,0
52,100,0.38181818181818183,761,1,5,DL_JapaneseFolk_Guitar,6,6,koumouJapaneseFolk,0.1286802589893341,0
57,100,0.5181818181818182,844,0,5,DL_JapaneseFolk_Guitar,6,8,koumouJapaneseFolk,0.18222138285636902,0
57,100,0.4,207,1,6,DL_JapaneseFolk_Guitar,6,6,koumouJapaneseFolk,0.9990094900131226,1
52,100,0.1,307,0,6,DL_JapaneseFolk_Guitar,6,2,koumouJapaneseFolk,0.23323555290699005,0
57,100,0.8772727272727273,391,0,6,DL_JapaneseFolk_Guitar,6,14,koumouJapaneseFolk,0.2705763876438141,0
52,100,0.6181818181818182,593,0,6,DL_JapaneseFolk_Guitar,6,10,koumouJapaneseFolk,0.3579312562942505,0
57,100,0.3181818181818182,40,1,7,DL_JapaneseFolk_Guitar,6,5,koumouJapaneseFolk,0.9990280866622925,1
52,100,0.2590909090909091,110,0,7,DL_JapaneseFolk_Guitar,6,4,koumouJapaneseFolk,0.3703511357307434,0
57,100,0.3181818181818182,545,1,7,DL_JapaneseFolk_Guitar,6,5,koumouJapaneseFolk,0.4561684727668762,0
59,100,0.36363636363636365,180,1,8,DL_JapaneseFolk_Guitar,6,6,koumouJapaneseFolk,0.9792232513427734,1
57,100,0.23636363636363636,17,1,9,DL_JapaneseFolk_Guitar,6,4,koumouJapaneseFolk,0.9990280866622925,1
62,100,0.3181818181818182,646,1,9,DL_JapaneseFolk_Guitar,6,5,koumouJapaneseFolk,0.3703468441963196,0
57,100,0.5590909090909091,876,0,9,DL_JapaneseFolk_Guitar,6,9,koumouJapaneseFolk,0.4561758041381836,0
62,100,0.5409090909090909,233,1,10,DL_JapaneseFolk_Guitar,6,9,koumouJapaneseFolk,0.9990094900131226,1
57,100,0.2818181818181818,355,0,10,DL_JapaneseFolk_Guitar,6,5,koumouJapaneseFolk,0.23322927951812744,0
62,100,0.11818181818181818,470,0,10,DL_JapaneseFolk_Guitar,6,2,koumouJapaneseFolk,0.2705867290496826,0
52,100,0.3,818,1,10,DL_JapaneseFolk_Guitar,6,5,koumouJapaneseFolk,0.3579401969909668,0
56,100,0.7,395,1,11,DL_JapaneseFolk_Guitar,6,11,koumouJapaneseFolk,0.9792234897613525,1
66,100,0.12272727272727273,79,1,12,DL_JapaneseFolk_Guitar,6,2,koumouJapaneseFolk,0.9986507296562195,1
66,100,0.1409090909090909,110,0,12,DL_JapaneseFolk_Guitar,6,2,koumouJapaneseFolk,0.08798003941774368,0
69,100,0.2636363636363636,202,0,12,DL_JapaneseFolk_Guitar,6,4,koumouJapaneseFolk,0.09298458695411682,0
57,100,0.35909090909090907,259,0,12,DL_JapaneseFolk_Guitar,6,6,koumouJapaneseFolk,0.10995261371135712,0
56,100,0.1409090909090909,488,0,12,DL_JapaneseFolk_Guitar,6,2,koumouJapaneseFolk,0.12867315113544464,0
68,100,0.2409090909090909,730,1,12,DL_JapaneseFolk_Guitar,6,4,koumouJapaneseFolk,0.18221354484558105,0
71,100,0.2818181818181818,355,1,13,DL_JapaneseFolk_Guitar,6,5,koumouJapaneseFolk,0.9988439083099365,1
56,100,0.18181818181818182,440,0,13,DL_JapaneseFolk_Guitar,6,3,koumouJapaneseFolk,0.1379830688238144,0
57,100,0.2590909090909091,625,0,13,DL_JapaneseFolk_Guitar,6,4,koumouJapaneseFolk,0.1623644381761551,0
56,100,0.2,818,0,13,DL_JapaneseFolk_Guitar,6,3,koumouJapaneseFolk,0.1910560429096222,0
64,100,0.2772727272727273,876,0,13,DL_JapaneseFolk_Guitar,6,4,koumouJapaneseFolk,0.2619726061820984,0
56,100,0.17727272727272728,75,1,14,DL_JapaneseFolk_Guitar,6,3,koumouJapaneseFolk,0.9988439083099365,1
57,100,0.2409090909090909,448,1,14,DL_JapaneseFolk_Guitar,6,4,koumouJapaneseFolk,0.13798271119594574,0
62,100,0.2409090909090909,510,0,14,DL_JapaneseFolk_Guitar,6,4,koumouJapaneseFolk,0.16236816346645355,0
57,100,0.32272727272727275,642,0,14,DL_JapaneseFolk_Guitar,6,5,koumouJapaneseFolk,0.19105984270572662,0
52,100,0.1409090909090909,770,0,14,DL_JapaneseFolk_Guitar,6,2,koumouJapaneseFolk,0.26197946071624756,0
71,100,0.2,140,1,15,DL_JapaneseFolk_Guitar,6,3,koumouJapaneseFolk,0.9986506104469299,1
57,100,0.12272727272727273,189,0,15,DL_JapaneseFolk_Guitar,6,2,koumouJapaneseFolk,0.08797968924045563,0
57,100,0.6,254,0,15,DL_JapaneseFolk_Guitar,6,10,koumouJapaneseFolk,0.09298636019229889,0
52,100,0.6409090909090909,465,0,15,DL_JapaneseFolk_Guitar,6,10,koumouJapaneseFolk,0.10995546728372574,0
57,100,0.1,716,1,15,DL_JapaneseFolk_Guitar,6,2,koumouJapaneseFolk,0.12867294251918793,0
52,100,0.6363636363636364,766,0,15,DL_JapaneseFolk_Guitar,6,10,koumouJapaneseFolk,0.18223169445991516,0
52,100,0.2,119,1,16,DL_JapaneseFolk_Guitar,6,3,koumouJapaneseFolk,0.9988439083099365,1
64,100,0.2772727272727273,216,0,16,DL_JapaneseFolk_Guitar,6,4,koumouJapaneseFolk,0.13798193633556366,0
52,100,0.13636363636363635,326,0,16,DL_JapaneseFolk_Guitar,6,2,koumouJapaneseFolk,0.16236081719398499,0
64,100,0.1409090909090909,374,0,16,DL_JapaneseFolk_Guitar,6,2,koumouJapaneseFolk,0.19105972349643707,0
52,100,0.37727272727272726,413,0,16,DL_JapaneseFolk_Guitar,6,6,koumouJapaneseFolk,0.26197534799575806,0
52,100,0.5,299,1,17,DL_JapaneseFolk_Guitar,6,8,koumouJapaneseFolk,0.9990280866622925,1
52,100,0.6409090909090909,430,0,17,DL_JapaneseFolk_Guitar,6,10,koumouJapaneseFolk,0.3703388273715973,0
64,100,0.11818181818181818,625,0,17,DL_JapaneseFolk_Guitar,6,2,koumouJapaneseFolk,0.4561781883239746,0
57,100,0.2590909090909091,198,1,18,DL_JapaneseFolk_Guitar,6,4,koumouJapaneseFolk,0.9990094900131226,1
61,100,0.3181818181818182,326,0,18,DL_JapaneseFolk_Guitar,6,5,koumouJapaneseFolk,0.23322570323944092,0
61,100,0.4,509,0,18,DL_JapaneseFolk_Guitar,6,6,koumouJapaneseFolk,0.27058055996894836,0
52,100,0.5409090909090909,845,1,18,DL_JapaneseFolk_Guitar,6,9,koumouJapaneseFolk,0.3579242527484894,0
68,100,0.4772727272727273,119,1,19,DL_JapaneseFolk_Guitar,6,8,koumouJapaneseFolk,0.9983004927635193,1
52,100,0.1409090909090909,241,0,19,DL_JapaneseFolk_Guitar,6,2,koumouJapaneseFolk,0.04466237127780914,0
59,100,0.2,303,0,19,DL_JapaneseFolk_Guitar,6,3,koumouJapaneseFolk,0.03337114676833153,0
52,100,0.4,382,0,19,DL_JapaneseFolk_Guitar,6,6,koumouJapaneseFolk,0.026947902515530586,0
59,100,0.4,480,0,19,DL_JapaneseFolk_Guitar,6,6,koumouJapaneseFolk,0.02408408559858799,0
59,100,0.11818181818181818,581,0,19,DL_JapaneseFolk_Guitar,6,2,koumouJapaneseFolk,0.024973032996058464,0
68,100,0.18181818181818182,619,0,19,DL_JapaneseFolk_Guitar,6,3,koumouJapaneseFolk,0.030647391453385353,0
62,100,0.2818181818181818,673,0,19,DL_JapaneseFolk_Guitar,6,5,koumouJapaneseFolk,0.04137036204338074,0
59,100,0.32272727272727275,796,0,19,DL_JapaneseFolk_Guitar,6,5,koumouJapaneseFolk,0.07207158952951431,0
54,100,0.5818181818181818,113,1,20,DL_JapaneseFolk_Guitar,6,9,koumouJapaneseFolk,0.9983736276626587,1
66,100,0.2590909090909091,260,0,20,DL_JapaneseFolk_Guitar,6,4,koumouJapaneseFolk,0.05105032026767731,0
54,100,0.1409090909090909,316,0,20,DL_JapaneseFolk_Guitar,6,2,koumouJapaneseFolk,0.041613101959228516,0
66,100,0.11818181818181818,347,0,20,DL_JapaneseFolk_Guitar,6,2,koumouJapaneseFolk,0.037979867309331894,0
54,100,0.2590909090909091,374,0,20,DL_JapaneseFolk_Guitar,6,4,koumouJapaneseFolk,0.039260901510715485,0
61,100,0.3181818181818182,436,0,20,DL_JapaneseFolk_Guitar,6,5,koumouJapaneseFolk,0.04616617411375046,0
69,100,0.4772727272727273,646,0,20,DL_JapaneseFolk_Guitar,6,8,koumouJapaneseFolk,0.057132575660943985,0
66,100,0.3181818181818182,845,0,20,DL_JapaneseFolk_Guitar,6,5,koumouJapaneseFolk,0.0918840616941452,0
66,100,0.1590909090909091,65,1,21,DL_JapaneseFolk_Guitar,6,3,koumouJapaneseFolk,0.9984879493713379,1
66,100,0.2,106,0,21,DL_JapaneseFolk_Guitar,6,3,koumouJapaneseFolk,0.06335199624300003,0
66,100,0.2,210,0,21,DL_JapaneseFolk_Guitar,6,3,koumouJapaneseFolk,0.05828817933797836,0
59,100,0.3409090909090909,409,0,21,DL_JapaneseFolk_Guitar,6,5,koumouJapaneseFolk,0.06135867163538933,0
59,100,0.18181818181818182,528,0,21,DL_JapaneseFolk_Guitar,6,3,koumouJapaneseFolk,0.07167910784482956,0
59,100,0.2590909090909091,594,0,21,DL_JapaneseFolk_Guitar,6,4,koumouJapaneseFolk,0.0847320556640625,0
59,100,0.1,694,0,21,DL_JapaneseFolk_Guitar,6,2,koumouJapaneseFolk,0.1263454705476761,0
68,100,0.1409090909090909,48,1,22,DL_JapaneseFolk_Guitar,6,2,koumouJapaneseFolk,0.9988439083099365,1
59,100,0.21818181818181817,83,0,22,DL_JapaneseFolk_Guitar,6,3,koumouJapaneseFolk,0.13798439502716064,0
59,100,0.12272727272727273,144,0,22,DL_JapaneseFolk_Guitar,6,2,koumouJapaneseFolk,0.16236576437950134,0
59,100,0.6181818181818182,216,0,22,DL_JapaneseFolk_Guitar,6,10,koumouJapaneseFolk,0.19105905294418335,0
69,100,0.18181818181818182,686,1,22,DL_JapaneseFolk_Guitar,6,3,koumouJapaneseFolk,0.26196515560150146,0
52,100,0.1590909090909091,144,1,23,DL_JapaneseFolk_Guitar,6,3,koumouJapaneseFolk,0.9983735084533691,1
59,100,0.2409090909090909,229,0,23,DL_JapaneseFolk_Guitar,6,4,koumouJapaneseFolk,0.05104881897568703,0
52,100,0.1590909090909091,320,0,23,DL_JapaneseFolk_Guitar,6,3,koumouJapaneseFolk,0.04161258786916733,0
62,100,0.1590909090909091,387,0,23,DL_JapaneseFolk_Guitar,6,3,koumouJapaneseFolk,0.03797907754778862,0
52,100,0.4590909090909091,440,0,23,DL_JapaneseFolk_Guitar,6,7,koumouJapaneseFolk,0.039261214435100555,0
53,100,0.6409090909090909,553,0,23,DL_JapaneseFolk_Guitar,6,10,koumouJapaneseFolk,0.04616500064730644,0
65,100,0.1,694,0,23,DL_JapaneseFolk_Guitar,6,2,koumouJapaneseFolk,0.05713362991809845,0
61,100,0.4590909090909091,779,0,23,DL_JapaneseFolk_Guitar,6,7,koumouJapaneseFolk,0.09187962859869003,0
68,100,0.1,3,1,24,DL_JapaneseFolk_Guitar,6,2,koumouJapaneseFolk,0.9983735084533691,1
53,100,0.1,69,0,24,DL_JapaneseFolk_Guitar,6,2,koumouJapaneseFolk,0.05104999616742134,0
54,100,0.5818181818181818,189,0,24,DL_JapaneseFolk_Guitar,6,9,koumouJapaneseFolk,0.04161282256245613,0
66,100,0.6772727272727272,316,0,24,DL_JapaneseFolk_Guitar,6,11,koumouJapaneseFolk,0.03797970339655876,0
54,100,0.1590909090909091,571,1,24,DL_JapaneseFolk_Guitar,6,3,koumouJapaneseFolk,0.03926040604710579,0
54,100,0.1,615,0,24,DL_JapaneseFolk_Guitar,6,2,koumouJapaneseFolk,0.046165838837623596,0
54,100,0.1409090909090909,642,0,24,DL_JapaneseFolk_Guitar,6,2,koumouJapaneseFolk,0.05713154748082161,0
66,100,0.18181818181818182,673,0,24,DL_JapaneseFolk_Guitar,6,3,koumouJapaneseFolk,0.09188131988048553,0
54,100,0.23636363636363636,40,1,25,DL_JapaneseFolk_Guitar,6,4,koumouJapaneseFolk,0.9986507296562195,1
57,100,0.38181818181818183,154,0,25,DL_JapaneseFolk_Guitar,6,6,koumouJapaneseFolk,0.087977334856987,0
54,100,0.2818181818181818,550,1,25,DL_JapaneseFolk_Guitar,6,5,koumouJapaneseFolk,0.09298539161682129,0
62,100,0.2818181818181818,619,0,25,DL_JapaneseFolk_Guitar,6,5,koumouJapaneseFolk,0.10994799435138702,0
62,100,0.21818181818181817,756,0,25,DL_JapaneseFolk_Guitar,6,3,koumouJapaneseFolk,0.12867197394371033,0
52,100,0.6,866,0,25,DL_JapaneseFolk_Guitar,6,10,koumouJapaneseFolk,0.18221813440322876,0
52,100,0.3,123,1,26,DL_JapaneseFolk_Guitar,6,5,koumouJapaneseFolk,0.9984879493713379,1
52,100,0.18181818181818182,223,0,26,DL_JapaneseFolk_Guitar,6,3,koumouJapaneseFolk,0.06335383653640747,0
64,100,0.11818181818181818,295,0,26,DL_JapaneseFolk_Guitar,6,2,koumouJapaneseFolk,0.05828935652971268,0
52,100,0.5818181818181818,374,0,26,DL_JapaneseFolk_Guitar,6,9,koumouJapaneseFolk,0.06136372685432434,0
59,100,0.4590909090909091,515,0,26,DL_JapaneseFolk_Guitar,6,7,koumouJapaneseFolk,0.0716865286231041,0
64,100,0.35909090909090907,677,0,26,DL_JapaneseFolk_Guitar,6,6,koumouJapaneseFolk,0.08474010229110718,0
68,100,0.2,766,0,26,DL_JapaneseFolk_Guitar,6,3,koumouJapaneseFolk,0.12635718286037445,0
52,100,0.3,17,1,27,DL_JapaneseFolk_Guitar,6,5,koumouJapaneseFolk,0.9988439083099365,1
57,100,0.2409090909090909,136,0,27,DL_JapaneseFolk_Guitar,6,4,koumouJapaneseFolk,0.1379854828119278,0
57,100,0.1590909090909091,260,0,27,DL_JapaneseFolk_Guitar,6,3,koumouJapaneseFolk,0.16237270832061768,0
57,100,0.1590909090909091,528,1,27,DL_JapaneseFolk_Guitar,6,3,koumouJapaneseFolk,0.19106733798980713,0
61,100,0.38181818181818183,835,1,27,DL_JapaneseFolk_Guitar,6,6,koumouJapaneseFolk,0.2619726061820984,0
61,100,0.2,88,1,28,DL_JapaneseFolk_Guitar,6,3,koumouJapaneseFolk,0.9986506104469299,1
52,100,0.5409090909090909,285,0,28,DL_JapaneseFolk_Guitar,6,9,koumouJapaneseFolk,0.08798175305128098,0
59,100,0.3181818181818182,470,0,28,DL_JapaneseFolk_Guitar,6,5,koumouJapaneseFolk,0.09298668056726456,0
52,100,0.2818181818181818,550,0,28,DL_JapaneseFolk_Guitar,6,5,koumouJapaneseFolk,0.10995197296142578,0
52,100,0.4772727272727273,691,0,28,DL_JapaneseFolk_Guitar,6,8,koumouJapaneseFolk,0.12867914140224457,0
62,100,0.2,804,0,28,DL_JapaneseFolk_Guitar,6,3,koumouJapaneseFolk,0.1822279840707779,0
69,100,0.4590909090909091,65,1,29,DL_JapaneseFolk_Guitar,6,7,koumouJapaneseFolk,0.9983735084533691,1
68,100,0.2,189,0,29,DL_JapaneseFolk_Guitar,6,3,koumouJapaneseFolk,0.05104998126626015,0
59,100,0.23636363636363636,237,0,29,DL_JapaneseFolk_Guitar,6,4,koumouJapaneseFolk,0.04161334037780762,0
52,100,0.1,382,0,29,DL_JapaneseFolk_Guitar,6,2,koumouJapaneseFolk,0.03798076510429382,0
66,100,0.3181818181818182,457,0,29,DL_JapaneseFolk_Guitar,6,5,koumouJapaneseFolk,0.039262231439352036,0
54,100,0.11818181818181818,528,0,29,DL_JapaneseFolk_Guitar,6,2,koumouJapaneseFolk,0.046166591346263885,0
66,100,0.740909090909091,584,0,29,DL_JapaneseFolk_Guitar,6,12,koumouJapaneseFolk,0.05713425204157829,0
61,100,0.36363636363636365,752,0,29,DL_JapaneseFolk_Guitar,6,6,koumouJapaneseFolk,0.0918775349855423,0
61,100,0.1590909090909091,40,1,30,DL_JapaneseFolk_Guitar,6,3,koumouJapaneseFolk,0.9986506104469299,1
54,100,0.35909090909090907,110,0,30,DL_JapaneseFolk_Guitar,6,6,koumouJapaneseFolk,0.08798175305128098,0
69,100,0.2818181818181818,198,0,30,DL_JapaneseFolk_Guitar,6,5,koumouJapaneseFolk,0.09298844635486603,0
66,100,0.1409090909090909,333,0,30,DL_JapaneseFolk_Guitar,6,2,koumouJapaneseFolk,0.1099516823887825,0
54,100,0.3409090909090909,453,0,30,DL_JapaneseFolk_Guitar,6,5,koumouJapaneseFolk,0.1286761462688446,0
57,100,0.22272727272727272,532,0,30,DL_JapaneseFolk_Guitar,6,4,koumouJapaneseFolk,0.18222036957740784,0
59,100,0.2409090909090909,44,1,31,DL_JapaneseFolk_Guitar,6,4,koumouJapaneseFolk,0.9990280866622925,1
59,100,0.42272727272727273,399,1,31,DL_JapaneseFolk_Guitar,6,7,koumouJapaneseFolk,0.3703395128250122,0
59,100,0.6181818181818182,559,0,31,DL_JapaneseFolk_Guitar,6,10,koumouJapaneseFolk,0.45616376399993896,0
61,100,0.3181818181818182,176,1,32,DL_JapaneseFolk_Guitar,6,5,koumouJapaneseFolk,0.9986506104469299,1
57,100,0.2409090909090909,263,0,32,DL_JapaneseFolk_Guitar,6,4,koumouJapaneseFolk,0.08798155188560486,0
57,100,0.2,330,0,32,DL_JapaneseFolk_Guitar,6,3,koumouJapaneseFolk,0.09298502653837204,0
52,100,0.5590909090909091,383,0,32,DL_JapaneseFolk_Guitar,6,9,koumouJapaneseFolk,0.10995077341794968,0
59,100,0.12272727272727273,598,0,32,DL_JapaneseFolk_Guitar,6,2,koumouJapaneseFolk,0.12867923080921173,0
52,100,0.17727272727272728,845,1,32,DL_JapaneseFolk_Guitar,6,3,koumouJapaneseFolk,0.18222491443157196,0
56,100,0.4818181818181818,166,1,33,DL_JapaneseFolk_Guitar,6,8,koumouJapaneseFolk,0.9988439083099365,1
61,100,0.21818181818181817,316,0,33,DL_JapaneseFolk_Guitar,6,3,koumouJapaneseFolk,0.13798154890537262,0
61,100,0.32272727272727275,431,0,33,DL_JapaneseFolk_Guitar,6,5,koumouJapaneseFolk,0.16236022114753723,0
57,100,0.21818181818181817,791,1,33,DL_JapaneseFolk_Guitar,6,3,koumouJapaneseFolk,0.1910497546195984,0
66,100,0.2590909090909091,853,0,33,DL_JapaneseFolk_Guitar,6,4,koumouJapaneseFolk,0.2619638442993164,0
54,100,0.2772727272727273,31,1,34,DL_JapaneseFolk_Guitar,6,4,koumouJapaneseFolk,0.9988439083099365,1
57,100,0.21818181818181817,105,0,34,DL_JapaneseFolk_Guitar,6,3,koumouJapaneseFolk,0.13798215985298157,0
62,100,0.2636363636363636,289,0,34,DL_JapaneseFolk_Guitar,6,4,koumouJapaneseFolk,0.16236911714076996,0
57,100,0.38181818181818183,378,0,34,DL_JapaneseFolk_Guitar,6,6,koumouJapaneseFolk,0.19105558097362518,0
62,100,0.4590909090909091,545,0,34,DL_JapaneseFolk_Guitar,6,7,koumouJapaneseFolk,0.26196950674057007,0
64,100,0.13636363636363635,18,1,35,DL_JapaneseFolk_Guitar,6,2,koumouJapaneseFolk,0.9988439083099365,1
64,100,0.17727272727272728,171,0,35,DL_JapaneseFolk_Guitar,6,3,koumouJapaneseFolk,0.13798433542251587,0
64,100,0.2,273,0,35,DL_JapaneseFolk_Guitar,6,3,koumouJapaneseFolk,0.16237202286720276,0
57,100,0.2409090909090909,316,0,35,DL_JapaneseFolk_Guitar,6,4,koumouJapaneseFolk,0.1910637617111206,0
61,100,1.240909090909091,444,0,35,DL_JapaneseFolk_Guitar,6,15,koumouJapaneseFolk,0.2619714140892029,0
57,100,0.16363636363636364,334,1,36,DL_JapaneseFolk_Guitar,6,3,koumouJapaneseFolk,0.9988439083099365,1
57,100,0.1409090909090909,444,0,36,DL_JapaneseFolk_Guitar,6,2,koumouJapaneseFolk,0.13798809051513672,0
66,100,0.35909090909090907,651,0,36,DL_JapaneseFolk_Guitar,6,6,koumouJapaneseFolk,0.16237419843673706,0
66,100,0.2,788,0,36,DL_JapaneseFolk_Guitar,6,3,koumouJapaneseFolk,0.1910671591758728,0
57,100,0.5636363636363636,839,0,36,DL_JapaneseFolk_Guitar,6,9,koumouJapaneseFolk,0.261962354183197,0
57,100,0.4409090909090909,198,1,37,DL_JapaneseFolk_Guitar,6,7,koumouJapaneseFolk,0.9990280866622925,1
52,100,0.6,606,1,37,DL_JapaneseFolk_Guitar,6,10,koumouJapaneseFolk,0.37035083770751953,0
68,100,0.2772727272727273,756,0,37,DL_JapaneseFolk_Guitar,6,4,koumouJapaneseFolk,0.4561707675457001,0
54,100,0.5818181818181818,110,1,38,DL_JapaneseFolk_Guitar,6,9,koumouJapaneseFolk,0.9984880685806274,1
54,100,0.3409090909090909,246,0,38,DL_JapaneseFolk_Guitar,6,5,koumouJapaneseFolk,0.0633540228009224,0
57,100,0.1590909090909091,330,0,38,DL_JapaneseFolk_Guitar,6,3,koumouJapaneseFolk,0.05828888341784477,0
64,100,0.2772727272727273,383,0,38,DL_JapaneseFolk_Guitar,6,4,koumouJapaneseFolk,0.06136251986026764,0
54,100,0.1590909090909091,461,0,38,DL_JapaneseFolk_Guitar,6,3,koumouJapaneseFolk,0.07168401777744293,0
54,100,0.4772727272727273,568,0,38,DL_JapaneseFolk_Guitar,6,8,koumouJapaneseFolk,0.08473536372184753,0
54,100,0.1409090909090909,694,0,38,DL_JapaneseFolk_Guitar,6,2,koumouJapaneseFolk,0.12635336816310883,0
66,100,0.22272727272727272,101,1,39,DL_JapaneseFolk_Guitar,6,4,koumouJapaneseFolk,0.9990280866622925,1
66,100,0.2409090909090909,201,0,39,DL_JapaneseFolk_Guitar,6,4,koumouJapaneseFolk,0.37035149335861206,0
69,100,0.1590909090909091,260,0,39,DL_JapaneseFolk_Guitar,6,3,koumouJapaneseFolk,0.45616352558135986,0
52,100,0.5409090909090909,34,1,40,DL_JapaneseFolk_Guitar,6,9,koumouJapaneseFolk,0.9986506104469299,1
59,100,0.32272727272727275,356,1,40,DL_JapaneseFolk_Guitar,6,5,koumouJapaneseFolk,0.08797881007194519,0
52,100,0.18181818181818182,496,0,40,DL_JapaneseFolk_Guitar,6,3,koumouJapaneseFolk,0.09298388659954071,0
59,100,0.36363636363636365,554,0,40,DL_JapaneseFolk_Guitar,6,6,koumouJapaneseFolk,0.10994870960712433,0
59,100,0.1409090909090909,641,0,40,DL_JapaneseFolk_Guitar,6,2,koumouJapaneseFolk,0.12867355346679688,0
68,100,0.2,748,0,40,DL_JapaneseFolk_Guitar,6,3,koumouJapaneseFolk,0.18221379816532135,0
52,100,0.1409090909090909,141,1,41,DL_JapaneseFolk_Guitar,6,2,koumouJapaneseFolk,0.9990280866622925,1
66,100,0.2590909090909091,386,1,41,DL_JapaneseFolk_Guitar,6,4,koumouJapaneseFolk,0.3703371584415436,0
66,100,0.1590909090909091,518,0,41,DL_JapaneseFolk_Guitar,6,3,koumouJapaneseFolk,0.4561770558357239,0
54,100,0.6590909090909091,703,1,42,DL_JapaneseFolk_Guitar,6,11,koumouJapaneseFolk,0.9983231425285339,1
54,100,0.3,853,0,42,DL_JapaneseFolk_Guitar,6,5,koumouJapaneseFolk,0.5462158918380737,1
57,100,0.13636363636363635,61,1,43,DL_JapaneseFolk_Guitar,6,2,koumouJapaneseFolk,0.9984879493713379,1
64,100,0.3181818181818182,105,0,43,DL_JapaneseFolk_Guitar,6,5,koumouJapaneseFolk,0.06335443258285522,0
61,100,0.2409090909090909,176,0,43,DL_JapaneseFolk_Guitar,6,4,koumouJapaneseFolk,0.05829053744673729,0
54,100,0.3409090909090909,276,0,43,DL_JapaneseFolk_Guitar,6,5,koumouJapaneseFolk,0.06136617064476013,0
54,100,0.16363636363636364,356,0,43,DL_JapaneseFolk_Guitar,6,3,koumouJapaneseFolk,0.07168706506490707,0
54,100,0.1590909090909091,431,0,43,DL_JapaneseFolk_Guitar,6,3,koumouJapaneseFolk,0.08474033325910568,0
57,100,0.2,611,0,43,DL_JapaneseFolk_Guitar,6,3,koumouJapaneseFolk,0.12635424733161926,0
61,100,0.38181818181818183,13,1,44,DL_JapaneseFolk_Guitar,6,6,koumouJapaneseFolk,0.9990094900131226,1
64,100,0.13636363636363635,435,1,44,DL_JapaneseFolk_Guitar,6,2,koumouJapaneseFolk,0.23322902619838715,0
52,100,0.11818181818181818,501,0,44,DL_JapaneseFolk_Guitar,6,2,koumouJapaneseFolk,0.270578533411026,0
52,100,0.4,531,0,44,DL_JapaneseFolk_Guitar,6,6,koumouJapaneseFolk,0.3579353094100952,0
57,100,0.37727272727272726,426,1,46,DL_JapaneseFolk_Guitar,6,6,koumouJapaneseFolk,0.9983231425285339,1
57,100,0.5181818181818182,743,1,46,DL_JapaneseFolk_Guitar,6,8,koumouJapaneseFolk,0.5462198853492737,1
57,100,0.8590909090909091,348,1,47,DL_JapaneseFolk_Guitar,6,14,koumouJapaneseFolk,0.9983232617378235,1
57,100,0.18181818181818182,571,0,47,DL_JapaneseFolk_Guitar,6,3,koumouJapaneseFolk,0.5462208390235901,1
57,100,0.3409090909090909,13,1,48,DL_JapaneseFolk_Guitar,6,5,koumouJapaneseFolk,0.9990094900131226,1
56,100,0.2409090909090909,408,1,48,DL_JapaneseFolk_Guitar,6,4,koumouJapaneseFolk,0.23323704302310944,0
59,100,0.1,581,0,48,DL_JapaneseFolk_Guitar,6,2,koumouJapaneseFolk,0.2705847918987274,0
56,100,0.18181818181818182,791,0,48,DL_JapaneseFolk_Guitar,6,3,koumouJapaneseFolk,0.3579190671443939,0
56,100,0.18181818181818182,26,1,49,DL_JapaneseFolk_Guitar,6,3,koumouJapaneseFolk,0.9990280866622925,1
59,100,0.1409090909090909,163,0,49,DL_JapaneseFolk_Guitar,6,2,koumouJapaneseFolk,0.3703451156616211,0
54,100,0.4772727272727273,545,1,49,DL_JapaneseFolk_Guitar,6,8,koumouJapaneseFolk,0.4561672806739807,0
54,100,0.21818181818181817,193,1,50,DL_JapaneseFolk_Guitar,6,3,koumouJapaneseFolk,0.9990280866622925,1
61,100,0.2,325,0,50,DL_JapaneseFolk_Guitar,6,3,koumouJapaneseFolk,0.3703315258026123,0
61,100,0.11818181818181818,405,0,50,DL_JapaneseFolk_Guitar,6,2,koumouJapaneseFolk,0.45616811513900757,0
59,100,0.21818181818181817,480,1,51,DL_JapaneseFolk_Guitar,6,3,koumouJapaneseFolk,0.9983232617378235,1
59,100,0.13636363636363635,875,1,51,DL_JapaneseFolk_Guitar,6,2,koumouJapaneseFolk,0.5462156534194946,1
59,100,0.2772727272727273,105,1,52,DL_JapaneseFolk_Guitar,6,4,koumouJapaneseFolk,0.9990094900131226,1
56,100,0.22272727272727272,298,0,52,DL_JapaneseFolk_Guitar,6,4,koumouJapaneseFolk,0.23322150111198425,0
61,100,0.12272727272727273,576,1,52,DL_JapaneseFolk_Guitar,6,2,koumouJapaneseFolk,0.2705830931663513,0
59,100,0.17727272727272728,625,0,52,DL_JapaneseFolk_Guitar,6,3,koumouJapaneseFolk,0.3579266369342804,0
57,100,0.4409090909090909,440,1,53,DL_JapaneseFolk_Guitar,6,7,koumouJapaneseFolk,0.9983232617378235,1
57,100,0.2590909090909091,761,1,53,DL_JapaneseFolk_Guitar,6,4,koumouJapaneseFolk,0.5462166666984558,1
52,100,0.8181818181818182,83,1,54,DL_JapaneseFolk_Guitar,6,13,koumouJapaneseFolk,0.9990094900131226,1
52,100,0.11818181818181818,361,1,54,DL_JapaneseFolk_Guitar,6,2,koumouJapaneseFolk,0.23322775959968567,0
66,100,0.2,518,0,54,DL_JapaneseFolk_Guitar,6,3,koumouJapaneseFolk,0.2705819010734558,0
52,100,0.11818181818181818,836,1,54,DL_JapaneseFolk_Guitar,6,2,koumouJapaneseFolk,0.35793018341064453,0
66,100,0.1409090909090909,53,1,55,DL_JapaneseFolk_Guitar,6,2,koumouJapaneseFolk,0.9792243838310242,1
66,100,0.1590909090909091,123,1,56,DL_JapaneseFolk_Guitar,6,3,koumouJapaneseFolk,0.9990280866622925,1
57,100,0.2772727272727273,370,1,56,DL_JapaneseFolk_Guitar,6,4,koumouJapaneseFolk,0.37034520506858826,0
57,100,0.5,694,1,56,DL_JapaneseFolk_Guitar,6,8,koumouJapaneseFolk,0.4561731517314911,0
57,100,0.21818181818181817,0,1,57,DL_JapaneseFolk_Guitar,6,3,koumouJapaneseFolk,0.9983231425285339,1
61,100,0.6409090909090909,330,1,57,DL_JapaneseFolk_Guitar,6,10,koumouJapaneseFolk,0.5462130308151245,1
59,100,0.22272727272727272,364,1,58,DL_JapaneseFolk_Guitar,6,4,koumouJapaneseFolk,0.9792241454124451,1
61,100,0.2,141,1,59,DL_JapaneseFolk_Guitar,6,3,koumouJapaneseFolk,0.9984879493713379,1
54,100,0.11818181818181818,185,0,59,DL_JapaneseFolk_Guitar,6,2,koumouJapaneseFolk,0.06335468590259552,0
54,100,0.1,215,0,59,DL_JapaneseFolk_Guitar,6,2,koumouJapaneseFolk,0.058290399610996246,0
61,100,0.1409090909090909,276,0,59,DL_JapaneseFolk_Guitar,6,2,koumouJapaneseFolk,0.0613618865609169,0
64,100,0.1590909090909091,453,0,59,DL_JapaneseFolk_Guitar,6,3,koumouJapaneseFolk,0.07168357819318771,0
64,100,0.32272727272727275,751,1,59,DL_JapaneseFolk_Guitar,6,5,koumouJapaneseFolk,0.08473774045705795,0
54,100,0.1,826,0,59,DL_JapaneseFolk_Guitar,6,2,koumouJapaneseFolk,0.12635476887226105,0
62,100,0.38181818181818183,136,1,60,DL_JapaneseFolk_Guitar,6,6,koumouJapaneseFolk,0.9990280866622925,1
62,100,0.3,788,1,60,DL_JapaneseFolk_Guitar,6,5,koumouJapaneseFolk,0.37035343050956726,0
73,100,0.5,858,0,60,DL_JapaneseFolk_Guitar,6,8,koumouJapaneseFolk,0.4561706483364105,0
57,100,0.1590909090909091,386,1,61,DL_JapaneseFolk_Guitar,6,3,koumouJapaneseFolk,0.9983232617378235,1
57,100,0.21818181818181817,875,1,61,DL_JapaneseFolk_Guitar,6,3,koumouJapaneseFolk,0.5462189316749573,1
66,100,0.32272727272727275,56,1,62,DL_JapaneseFolk_Guitar,6,5,koumouJapaneseFolk,0.9988439083099365,1
52,100,0.4409090909090909,233,0,62,DL_JapaneseFolk_Guitar,6,7,koumouJapaneseFolk,0.13798418641090393,0
52,100,0.2409090909090909,619,1,62,DL_JapaneseFolk_Guitar,6,4,koumouJapaneseFolk,0.16236752271652222,0
52,100,0.11818181818181818,726,0,62,DL_JapaneseFolk_Guitar,6,2,koumouJapaneseFolk,0.1910650134086609,0
56,100,0.1409090909090909,845,0,62,DL_JapaneseFolk_Guitar,6,2,koumouJapaneseFolk,0.26196160912513733,0
52,100,0.1409090909090909,8,1,63,DL_JapaneseFolk_Guitar,6,2,koumouJapaneseFolk,0.9984879493713379,1
52,100,0.11818181818181818,75,0,63,DL_JapaneseFolk_Guitar,6,2,koumouJapaneseFolk,0.06335235387086868,0
64,100,0.18181818181818182,220,0,63,DL_JapaneseFolk_Guitar,6,3,koumouJapaneseFolk,0.05828857421875,0
52,100,0.4,263,0,63,DL_JapaneseFolk_Guitar,6,6,koumouJapaneseFolk,0.061362188309431076,0
69,100,0.5,584,1,63,DL_JapaneseFolk_Guitar,6,8,koumouJapaneseFolk,0.07168363779783249,0
71,100,0.38181818181818183,791,0,63,DL_JapaneseFolk_Guitar,6,6,koumouJapaneseFolk,0.084737628698349,0
59,100,0.1590909090909091,875,0,63,DL_JapaneseFolk_Guitar,6,3,koumouJapaneseFolk,0.12635469436645508,0
59,100,0.6227272727272727,136,1,64,DL_JapaneseFolk_Guitar,6,10,koumouJapaneseFolk,0.9990280866622925,1
59,100,0.5590909090909091,383,1,64,DL_JapaneseFolk_Guitar,6,9,koumouJapaneseFolk,0.3703468441963196,0
57,100,1.1636363636363636,553,0,64,DL_JapaneseFolk_Guitar,6,15,koumouJapaneseFolk,0.4561702609062195,0
61,100,0.3,303,1,65,DL_JapaneseFolk_Guitar,6,5,koumouJapaneseFolk,0.9986506104469299,1
61,100,0.1590909090909091,404,0,65,DL_JapaneseFolk_Guitar,6,3,koumouJapaneseFolk,0.08797992020845413,0
57,100,0.1590909090909091,449,0,65,DL_JapaneseFolk_Guitar,6,3,koumouJapaneseFolk,0.0929853543639183,0
61,100,0.3,496,0,65,DL_JapaneseFolk_Guitar,6,5,koumouJapaneseFolk,0.10994865000247955,0
57,100,0.22272727272727272,576,0,65,DL_JapaneseFolk_Guitar,6,4,koumouJapaneseFolk,0.128675177693367,0
68,100,0.2,832,1,65,DL_JapaneseFolk_Guitar,6,3,koumouJapaneseFolk,0.1822175681591034,0
59,100,0.1590909090909091,9,1,66,DL_JapaneseFolk_Guitar,6,3,koumouJapaneseFolk,0.9984880685806274,1
68,100,0.21818181818181817,62,0,66,DL_JapaneseFolk_Guitar,6,3,koumouJapaneseFolk,0.06335338205099106,0
68,100,0.1,113,0,66,DL_JapaneseFolk_Guitar,6,2,koumouJapaneseFolk,0.058290302753448486,0
68,100,0.1590909090909091,166,0,66,DL_JapaneseFolk_Guitar,6,3,koumouJapaneseFolk,0.06136083975434303,0
52,100,0.1590909090909091,206,0,66,DL_JapaneseFolk_Guitar,6,3,koumouJapaneseFolk,0.0716828852891922,0
59,100,0.22272727272727272,673,1,66,DL_JapaneseFolk_Guitar,6,4,koumouJapaneseFolk,0.08473388850688934,0
52,100,0.42272727272727273,729,0,66,DL_JapaneseFolk_Guitar,6,7,koumouJapaneseFolk,0.12635330855846405,0
61,100,0.3,223,1,67,DL_JapaneseFolk_Guitar,6,5,koumouJapaneseFolk,0.9988439083099365,1
57,100,0.1,523,1,67,DL_JapaneseFolk_Guitar,6,2,koumouJapaneseFolk,0.13798215985298157,0
57,100,0.2409090909090909,550,0,67,DL_JapaneseFolk_Guitar,6,4,koumouJapaneseFolk,0.16236765682697296,0
57,100,0.21818181818181817,810,1,67,DL_JapaneseFolk_Guitar,6,3,koumouJapaneseFolk,0.19106461107730865,0
54,100,0.18181818181818182,862,0,67,DL_JapaneseFolk_Guitar,6,3,koumouJapaneseFolk,0.26198357343673706,0
54,100,0.2,26,1,68,DL_JapaneseFolk_Guitar,6,3,koumouJapaneseFolk,0.9986506104469299,1
61,100,0.1590909090909091,206,0,68,DL_JapaneseFolk_Guitar,6,3,koumouJapaneseFolk,0.08797787129878998,0
59,100,0.3181818181818182,250,0,68,DL_JapaneseFolk_Guitar,6,5,koumouJapaneseFolk,0.09298238158226013,0
61,100,0.12272727272727273,365,0,68,DL_JapaneseFolk_Guitar,6,2,koumouJapaneseFolk,0.10994422435760498,0
59,100,0.2818181818181818,773,1,68,DL_JapaneseFolk_Guitar,6,5,koumouJapaneseFolk,0.12867046892642975,0
59,100,0.22272727272727272,839,0,68,DL_JapaneseFolk_Guitar,6,4,koumouJapaneseFolk,0.18221578001976013,0
61,100,0.22272727272727272,166,1,69,DL_JapaneseFolk_Guitar,6,4,koumouJapaneseFolk,0.9990280866622925,1
54,100,0.1409090909090909,826,1,69,DL_JapaneseFolk_Guitar,6,2,koumouJapaneseFolk,0.37033796310424805,0
54,100,0.12272727272727273,862,0,69,DL_JapaneseFolk_Guitar,6,2,koumouJapaneseFolk,0.4561747908592224,0
57,100,0.3409090909090909,53,1,70,DL_JapaneseFolk_Guitar,6,5,koumouJapaneseFolk,0.9983232617378235,1
56,100,0.1590909090909091,546,1,70,DL_JapaneseFolk_Guitar,6,3,koumouJapaneseFolk,0.5462128520011902,1
61,100,0.1590909090909091,206,1,71,DL_JapaneseFolk_Guitar,6,3,koumouJapaneseFolk,0.9990094900131226,1
54,100,0.1,440,1,71,DL_JapaneseFolk_Guitar,6,2,koumouJapaneseFolk,0.23323532938957214,0
54,100,0.11818181818181818,593,0,71,DL_JapaneseFolk_Guitar,6,2,koumouJapaneseFolk,0.2705830931663513,0
57,100,0.21818181818181817,703,0,71,DL_JapaneseFolk_Guitar,6,3,koumouJapaneseFolk,0.357927143573761,0
52,100,0.6772727272727272,722,1,72,DL_JapaneseFolk_Guitar,6,11,koumouJapaneseFolk,0.9792247414588928,1
52,100,0.2409090909090909,96,1,73,DL_JapaneseFolk_Guitar,6,4,koumouJapaneseFolk,0.9984879493713379,1
59,100,0.11818181818181818,184,0,73,DL_JapaneseFolk_Guitar,6,2,koumouJapaneseFolk,0.06335574388504028,0
52,100,0.3181818181818182,220,0,73,DL_JapaneseFolk_Guitar,6,5,koumouJapaneseFolk,0.05828933045268059,0
52,100,0.1,294,0,73,DL_JapaneseFolk_Guitar,6,2,koumouJapaneseFolk,0.061363037675619125,0
52,100,0.5227272727272727,356,0,73,DL_JapaneseFolk_Guitar,6,8,koumouJapaneseFolk,0.0716845765709877,0
52,100,0.5,673,1,73,DL_JapaneseFolk_Guitar,6,8,koumouJapaneseFolk,0.0847378820180893,0
52,100,0.22272727272727272,817,0,73,DL_JapaneseFolk_Guitar,6,4,koumouJapaneseFolk,0.1263567954301834,0
61,100,0.35909090909090907,166,1,74,DL_JapaneseFolk_Guitar,6,6,koumouJapaneseFolk,0.9990094900131226,1
57,100,0.35909090909090907,260,0,74,DL_JapaneseFolk_Guitar,6,6,koumouJapaneseFolk,0.23322951793670654,0
61,100,0.32272727272727275,443,0,74,DL_JapaneseFolk_Guitar,6,5,koumouJapaneseFolk,0.27058887481689453,0
61,100,0.2409090909090909,637,0,74,DL_JapaneseFolk_Guitar,6,4,koumouJapaneseFolk,0.3579261600971222,0
52,100,0.2772727272727273,140,1,75,DL_JapaneseFolk_Guitar,6,4,koumouJapaneseFolk,0.9984879493713379,1
52,100,0.1,206,0,75,DL_JapaneseFolk_Guitar,6,2,koumouJapaneseFolk,0.0633539929986,0
52,100,0.1409090909090909,242,0,75,DL_JapaneseFolk_Guitar,6,2,koumouJapaneseFolk,0.05828985571861267,0
52,100,0.7363636363636363,282,0,75,DL_JapaneseFolk_Guitar,6,12,koumouJapaneseFolk,0.06136174499988556,0
52,100,0.2590909090909091,449,0,75,DL_JapaneseFolk_Guitar,6,4,koumouJapaneseFolk,0.07168500870466232,0
52,100,0.2409090909090909,646,0,75,DL_JapaneseFolk_Guitar,6,4,koumouJapaneseFolk,0.08473686873912811,0
52,100,0.1590909090909091,766,0,75,DL_JapaneseFolk_Guitar,6,3,koumouJapaneseFolk,0.1263584941625595,0
52,100,0.2409090909090909,233,1,76,DL_JapaneseFolk_Guitar,6,4,koumouJapaneseFolk,0.9990094900131226,1
54,100,0.1590909090909091,430,0,76,DL_JapaneseFolk_Guitar,6,3,koumouJapaneseFolk,0.2332320362329483,0
66,100,0.3181818181818182,483,0,76,DL_JapaneseFolk_Guitar,6,5,koumouJapaneseFolk,0.27058884501457214,0
66,100,0.3,612,0,76,DL_JapaneseFolk_Guitar,6,5,koumouJapaneseFolk,0.3579308092594147,0
61,100,0.2772727272727273,119,1,77,DL_JapaneseFolk_Guitar,6,4,koumouJapaneseFolk,0.9988439083099365,1
54,100,0.2,303,0,77,DL_JapaneseFolk_Guitar,6,3,koumouJapaneseFolk,0.13798081874847412,0
56,100,0.5181818181818182,580,1,77,DL_JapaneseFolk_Guitar,6,8,koumouJapaneseFolk,0.16235747933387756,0
59,100,0.2409090909090909,695,0,77,DL_JapaneseFolk_Guitar,6,4,koumouJapaneseFolk,0.19105786085128784,0
59,100,0.35909090909090907,756,0,77,DL_JapaneseFolk_Guitar,6,6,koumouJapaneseFolk,0.26196134090423584,0
59,100,0.12272727272727273,47,1,78,DL_JapaneseFolk_Guitar,6,2,koumouJapaneseFolk,0.9983231425285339,1
61,100,0.2409090909090909,140,0,78,DL_JapaneseFolk_Guitar,6,4,koumouJapaneseFolk,0.546209990978241,1
52,100,0.17727272727272728,229,1,79,DL_JapaneseFolk_Guitar,6,3,koumouJapaneseFolk,0.9988439083099365,1
59,100,0.32272727272727275,409,0,79,DL_JapaneseFolk_Guitar,6,5,koumouJapaneseFolk,0.13798470795154572,0
52,100,0.11818181818181818,502,0,79,DL_JapaneseFolk_Guitar,6,2,koumouJapaneseFolk,0.16237026453018188,0
52,100,0.2636363636363636,532,0,79,DL_JapaneseFolk_Guitar,6,4,koumouJapaneseFolk,0.19107142090797424,0
56,100,1.1181818181818182,747,0,79,DL_JapaneseFolk_Guitar,6,15,koumouJapaneseFolk,0.2619646191596985,0
61,100,0.5363636363636364,127,1,80,DL_JapaneseFolk_Guitar,6,9,koumouJapaneseFolk,0.9990280866622925,1
64,100,0.3,509,1,80,DL_JapaneseFolk_Guitar,6,5,koumouJapaneseFolk,0.37034910917282104,0
54,100,0.4,629,0,80,DL_JapaneseFolk_Guitar,6,6,koumouJapaneseFolk,0.4561731517314911,0
62,100,0.1,263,1,81,DL_JapaneseFolk_Guitar,6,2,koumouJapaneseFolk,0.9990280866622925,1
66,100,0.11818181818181818,383,0,81,DL_JapaneseFolk_Guitar,6,2,koumouJapaneseFolk,0.37034690380096436,0
59,100,0.5227272727272727,783,1,81,DL_JapaneseFolk_Guitar,6,8,koumouJapaneseFolk,0.456169456243515,0
61,100,0.1,17,1,82,DL_JapaneseFolk_Guitar,6,2,koumouJapaneseFolk,0.9990094900131226,1
66,100,0.11818181818181818,153,0,82,DL_JapaneseFolk_Guitar,6,2,koumouJapaneseFolk,0.23323719203472137,0
52,100,0.2,506,1,82,DL_JapaneseFolk_Guitar,6,3,koumouJapaneseFolk,0.2705931067466736,0
57,100,0.42272727272727273,716,0,82,DL_JapaneseFolk_Guitar,6,7,koumouJapaneseFolk,0.35792794823646545,0
54,100,0.11818181818181818,339,1,83,DL_JapaneseFolk_Guitar,6,2,koumouJapaneseFolk,0.9792246222496033,1
52,100,0.38181818181818183,453,1,84,DL_JapaneseFolk_Guitar,6,6,koumouJapaneseFolk,0.9990280866622925,1
52,100,0.5227272727272727,597,0,84,DL_JapaneseFolk_Guitar,6,8,koumouJapaneseFolk,0.3703407049179077,0
52,100,0.38181818181818183,849,1,84,DL_JapaneseFolk_Guitar,6,6,koumouJapaneseFolk,0.45617324113845825,0
59,100,0.1590909090909091,193,1,85,DL_JapaneseFolk_Guitar,6,3,koumouJapaneseFolk,0.9792236089706421,1
64,100,0.1409090909090909,220,1,86,DL_JapaneseFolk_Guitar,6,2,koumouJapaneseFolk,0.9990280866622925,1
64,100,0.8590909090909091,307,0,86,DL_JapaneseFolk_Guitar,6,14,koumouJapaneseFolk,0.3703382909297943,0
64,100,0.4,616,1,86,DL_JapaneseFolk_Guitar,6,6,koumouJapaneseFolk,0.4561707675457001,0
68,100,0.2818181818181818,153,1,87,DL_JapaneseFolk_Guitar,6,5,koumouJapaneseFolk,0.9986506104469299,1
68,100,0.5590909090909091,220,0,87,DL_JapaneseFolk_Guitar,6,9,koumouJapaneseFolk,0.08797938376665115,0
66,100,0.1590909090909091,396,0,87,DL_JapaneseFolk_Guitar,6,3,koumouJapaneseFolk,0.09298631548881531,0
57,100,0.5227272727272727,532,0,87,DL_JapaneseFolk_Guitar,6,8,koumouJapaneseFolk,0.10994702577590942,0
52,100,0.6818181818181818,660,0,87,DL_JapaneseFolk_Guitar,6,11,koumouJapaneseFolk,0.12867119908332825,0
57,100,0.17727272727272728,866,0,87,DL_JapaneseFolk_Guitar,6,3,koumouJapaneseFolk,0.18221618235111237,0
57,100,0.5772727272727273,294,1,88,DL_JapaneseFolk_Guitar,6,9,koumouJapaneseFolk,0.9990094900131226,1
52,100,0.6,540,1,88,DL_JapaneseFolk_Guitar,6,10,koumouJapaneseFolk,0.23323708772659302,0
52,100,0.21818181818181817,682,0,88,DL_JapaneseFolk_Guitar,6,3,koumouJapaneseFolk,0.2705855369567871,0
52,100,0.3181818181818182,734,0,88,DL_JapaneseFolk_Guitar,6,5,koumouJapaneseFolk,0.3579322099685669,0
64,100,0.2409090909090909,13,1,89,DL_JapaneseFolk_Guitar,6,4,koumouJapaneseFolk,0.9990094900131226,1
64,100,0.22272727272727272,92,0,89,DL_JapaneseFolk_Guitar,6,4,koumouJapaneseFolk,0.23323123157024384,0
64,100,0.2590909090909091,184,0,89,DL_JapaneseFolk_Guitar,6,4,koumouJapaneseFolk,0.27058935165405273,0
64,100,0.5590909090909091,603,1,89,DL_JapaneseFolk_Guitar,6,9,koumouJapaneseFolk,0.3579317033290863,0
58,100,0.33636363636363636,876,1,0,DL_MelancholicFolk_Guitar,6,5,sinpen_melancholic,0.9792245030403137,1
58,100,0.21818181818181817,325,1,1,DL_MelancholicFolk_Guitar,6,3,sinpen_melancholic,0.9983232617378235,1
65,100,0.5409090909090909,669,1,1,DL_MelancholicFolk_Guitar,6,9,sinpen_melancholic,0.5462156534194946,1
58,100,0.17727272727272728,39,1,2,DL_MelancholicFolk_Guitar,6,3,sinpen_melancholic,0.9983735084533691,1
60,100,0.4590909090909091,83,0,2,DL_MelancholicFolk_Guitar,6,7,sinpen_melancholic,0.05104995146393776,0
60,100,0.1590909090909091,232,0,2,DL_MelancholicFolk_Guitar,6,3,sinpen_melancholic,0.041611917316913605,0
60,100,0.740909090909091,382,0,2,DL_MelancholicFolk_Guitar,6,12,sinpen_melancholic,0.037978265434503555,0
63,100,0.1409090909090909,550,0,2,DL_MelancholicFolk_Guitar,6,2,sinpen_melancholic,0.039258137345314026,0
60,100,0.2409090909090909,638,0,2,DL_MelancholicFolk_Guitar,6,4,sinpen_melancholic,0.046165648847818375,0
60,100,0.12272727272727273,773,0,2,DL_MelancholicFolk_Guitar,6,2,sinpen_melancholic,0.057131294161081314,0
60,100,0.2818181818181818,818,0,2,DL_MelancholicFolk_Guitar,6,5,sinpen_melancholic,0.09188060462474823,0
60,100,0.5409090909090909,30,1,3,DL_MelancholicFolk_Guitar,6,9,sinpen_melancholic,0.9990094900131226,1
60,100,0.21818181818181817,216,0,3,DL_MelancholicFolk_Guitar,6,3,sinpen_melancholic,0.23324128985404968,0
63,100,0.2,268,0,3,DL_MelancholicFolk_Guitar,6,3,sinpen_melancholic,0.27058786153793335,0
56,100,1.3409090909090908,553,1,3,DL_MelancholicFolk_Guitar,6,15,sinpen_melancholic,0.35792720317840576,0
56,100,0.1409090909090909,101,1,4,DL_MelancholicFolk_Guitar,6,2,sinpen_melancholic,0.9990280866622925,1
60,100,1.5,355,1,4,DL_MelancholicFolk_Guitar,6,15,sinpen_melancholic,0.3703397214412689,0
58,100,0.2772727272727273,721,1,4,DL_MelancholicFolk_Guitar,6,4,sinpen_melancholic,0.45617204904556274,0
65,100,0.1,128,1,6,DL_MelancholicFolk_Guitar,6,2,sinpen_melancholic,0.9983231425285339,1
65,100,0.2772727272727273,458,1,6,DL_MelancholicFolk_Guitar,6,4,sinpen_melancholic,0.5462091565132141,1
58,100,0.6590909090909091,716,1,7,DL_MelancholicFolk_Guitar,6,11,sinpen_melancholic,0.9792238473892212,1
58,100,0.3409090909090909,53,1,8,DL_MelancholicFolk_Guitar,6,5,sinpen_melancholic,0.9792240262031555,1
58,100,1.2818181818181817,110,1,9,DL_MelancholicFolk_Guitar,6,15,sinpen_melancholic,0.9983231425285339,1
58,100,0.6409090909090909,685,1,9,DL_MelancholicFolk_Guitar,6,10,sinpen_melancholic,0.5462195873260498,1
58,100,1.3409090909090908,386,1,10,DL_MelancholicFolk_Guitar,6,15,sinpen_melancholic,0.979223906993866,1
60,100,0.3,440,1,11,DL_MelancholicFolk_Guitar,6,5,sinpen_melancholic,0.9990280866622925,1
60,100,0.6772727272727272,646,0,11,DL_MelancholicFolk_Guitar,6,11,sinpen_melancholic,0.3703381419181824,0
53,100,0.22272727272727272,871,0,11,DL_MelancholicFolk_Guitar,6,4,sinpen_melancholic,0.45617347955703735,0
55,100,0.6590909090909091,61,1,12,DL_MelancholicFolk_Guitar,6,11,sinpen_melancholic,0.9986506104469299,1
63,100,0.1,527,1,12,DL_MelancholicFolk_Guitar,6,2,sinpen_melancholic,0.08798079937696457,0
63,100,0.23636363636363636,567,0,12,DL_MelancholicFolk_Guitar,6,4,sinpen_melancholic,0.09298894554376602,0
56,100,0.2772727272727273,656,0,12,DL_MelancholicFolk_Guitar,6,4,sinpen_melancholic,0.10995630919933319,0
56,100,0.11818181818181818,814,0,12,DL_MelancholicFolk_Guitar,6,2,sinpen_melancholic,0.1286771595478058,0
56,100,0.3,849,0,12,DL_MelancholicFolk_Guitar,6,5,sinpen_melancholic,0.18222439289093018,0
63,100,0.12272727272727273,575,1,13,DL_MelancholicFolk_Guitar,6,2,sinpen_melancholic,0.9792230129241943,1
55,100,0.18181818181818182,34,1,14,DL_MelancholicFolk_Guitar,6,3,sinpen_melancholic,0.9986507296562195,1
60,100,0.3,216,0,14,DL_MelancholicFolk_Guitar,6,5,sinpen_melancholic,0.08798239380121231,0
60,100,0.2818181818181818,343,0,14,DL_MelancholicFolk_Guitar,6,5,sinpen_melancholic,0.0929860919713974,0
53,100,0.1590909090909091,524,0,14,DL_MelancholicFolk_Guitar,6,3,sinpen_melancholic,0.1099499762058258,0
62,100,0.1590909090909091,778,1,14,DL_MelancholicFolk_Guitar,6,3,sinpen_melancholic,0.1286727339029312,0
62,100,0.2590909090909091,826,0,14,DL_MelancholicFolk_Guitar,6,4,sinpen_melancholic,0.18221932649612427,0
62,100,0.4818181818181818,34,1,15,DL_MelancholicFolk_Guitar,6,8,sinpen_melancholic,0.9984880685806274,1
58,100,0.11818181818181818,175,0,15,DL_MelancholicFolk_Guitar,6,2,sinpen_melancholic,0.0633532851934433,0
53,100,0.12272727272727273,268,0,15,DL_MelancholicFolk_Guitar,6,2,sinpen_melancholic,0.0582873672246933,0
58,100,0.7,417,0,15,DL_MelancholicFolk_Guitar,6,11,sinpen_melancholic,0.061359770596027374,0
58,100,0.3,594,0,15,DL_MelancholicFolk_Guitar,6,5,sinpen_melancholic,0.07168117165565491,0
58,100,0.13636363636363635,721,0,15,DL_MelancholicFolk_Guitar,6,2,sinpen_melancholic,0.08473289012908936,0
70,100,0.2,752,0,15,DL_MelancholicFolk_Guitar,6,3,sinpen_melancholic,0.12634173035621643,0
55,100,0.32272727272727275,167,1,16,DL_MelancholicFolk_Guitar,6,5,sinpen_melancholic,0.9988439083099365,1
55,100,0.11818181818181818,360,0,16,DL_MelancholicFolk_Guitar,6,2,sinpen_melancholic,0.13798515498638153,0
63,100,0.1409090909090909,638,1,16,DL_MelancholicFolk_Guitar,6,2,sinpen_melancholic,0.16236960887908936,0
56,100,0.5181818181818182,725,0,16,DL_MelancholicFolk_Guitar,6,8,sinpen_melancholic,0.19105909764766693,0
56,100,1.1772727272727272,866,0,16,DL_MelancholicFolk_Guitar,6,15,sinpen_melancholic,0.2619609832763672,0
56,100,0.1,382,1,17,DL_MelancholicFolk_Guitar,6,2,sinpen_melancholic,0.9990280866622925,1
56,100,0.2,536,0,17,DL_MelancholicFolk_Guitar,6,3,sinpen_melancholic,0.37033993005752563,0
53,100,0.2818181818181818,773,1,17,DL_MelancholicFolk_Guitar,6,5,sinpen_melancholic,0.45616650581359863,0
58,100,1.459090909090909,57,1,18,DL_MelancholicFolk_Guitar,6,15,sinpen_melancholic,0.9990280866622925,1
58,100,0.3409090909090909,735,1,18,DL_MelancholicFolk_Guitar,6,5,sinpen_melancholic,0.3703417479991913,0
58,100,0.3181818181818182,822,0,18,DL_MelancholicFolk_Guitar,6,5,sinpen_melancholic,0.4561629295349121,0
63,100,0.3,638,1,19,DL_MelancholicFolk_Guitar,6,5,sinpen_melancholic,0.9792238473892212,1
62,100,0.1,21,1,20,DL_MelancholicFolk_Guitar,6,2,sinpen_melancholic,0.9988439083099365,1
53,100,0.2,422,1,20,DL_MelancholicFolk_Guitar,6,3,sinpen_melancholic,0.13798071444034576,0
60,100,0.2590909090909091,484,0,20,DL_MelancholicFolk_Guitar,6,4,sinpen_melancholic,0.1623663455247879,0
60,100,0.1409090909090909,607,0,20,DL_MelancholicFolk_Guitar,6,2,sinpen_melancholic,0.1910615861415863,0
63,100,0.21818181818181817,712,0,20,DL_MelancholicFolk_Guitar,6,3,sinpen_melancholic,0.261966735124588,0
55,100,0.5590909090909091,185,1,21,DL_MelancholicFolk_Guitar,6,9,sinpen_melancholic,0.9990094900131226,1
55,100,0.5,347,0,21,DL_MelancholicFolk_Guitar,6,8,sinpen_melancholic,0.23323151469230652,0
65,100,0.5590909090909091,484,0,21,DL_MelancholicFolk_Guitar,6,9,sinpen_melancholic,0.2705843150615692,0
56,100,0.17727272727272728,853,1,21,DL_MelancholicFolk_Guitar,6,3,sinpen_melancholic,0.3579258620738983,0
56,100,0.36363636363636365,223,1,22,DL_MelancholicFolk_Guitar,6,6,sinpen_melancholic,0.9990094900131226,1
55,100,0.7818181818181819,430,0,22,DL_MelancholicFolk_Guitar,6,13,sinpen_melancholic,0.2332337647676468,0
55,100,0.2818181818181818,673,1,22,DL_MelancholicFolk_Guitar,6,5,sinpen_melancholic,0.27058422565460205,0
58,100,0.2590909090909091,814,0,22,DL_MelancholicFolk_Guitar,6,4,sinpen_melancholic,0.3579263389110565,0
58,100,0.2590909090909091,13,1,23,DL_MelancholicFolk_Guitar,6,4,sinpen_melancholic,0.9986506104469299,1
56,100,0.6818181818181818,277,1,23,DL_MelancholicFolk_Guitar,6,11,sinpen_melancholic,0.08797712624073029,0
56,100,0.1409090909090909,484,0,23,DL_MelancholicFolk_Guitar,6,2,sinpen_melancholic,0.09298374503850937,0
56,100,0.2,519,0,23,DL_MelancholicFolk_Guitar,6,3,sinpen_melancholic,0.10994849354028702,0
56,100,0.2818181818181818,576,0,23,DL_MelancholicFolk_Guitar,6,5,sinpen_melancholic,0.12867075204849243,0
53,100,0.1590909090909091,691,0,23,DL_MelancholicFolk_Guitar,6,3,sinpen_melancholic,0.18221251666545868,0
58,100,0.1590909090909091,83,1,24,DL_MelancholicFolk_Guitar,6,3,sinpen_melancholic,0.9990280866622925,1
58,100,0.6181818181818182,250,0,24,DL_MelancholicFolk_Guitar,6,10,sinpen_melancholic,0.3703354001045227,0
58,100,0.11818181818181818,550,1,24,DL_MelancholicFolk_Guitar,6,2,sinpen_melancholic,0.45616263151168823,0
58,100,0.1409090909090909,119,1,25,DL_MelancholicFolk_Guitar,6,2,sinpen_melancholic,0.9986506104469299,1
58,100,0.11818181818181818,285,0,25,DL_MelancholicFolk_Guitar,6,2,sinpen_melancholic,0.08797949552536011,0
58,100,0.1590909090909091,343,0,25,DL_MelancholicFolk_Guitar,6,3,sinpen_melancholic,0.09298490732908249,0
58,100,0.2772727272727273,391,0,25,DL_MelancholicFolk_Guitar,6,4,sinpen_melancholic,0.10995060950517654,0
58,100,0.4409090909090909,505,0,25,DL_MelancholicFolk_Guitar,6,7,sinpen_melancholic,0.1286696195602417,0
55,100,1.0818181818181818,717,0,25,DL_MelancholicFolk_Guitar,6,15,sinpen_melancholic,0.18220992386341095,0
60,100,0.6590909090909091,83,1,26,DL_MelancholicFolk_Guitar,6,11,sinpen_melancholic,0.9988439083099365,1
63,100,0.11818181818181818,326,1,26,DL_MelancholicFolk_Guitar,6,2,sinpen_melancholic,0.1379789561033249,0
55,100,0.6409090909090909,509,0,26,DL_MelancholicFolk_Guitar,6,10,sinpen_melancholic,0.1623643934726715,0
65,100,0.32272727272727275,717,0,26,DL_MelancholicFolk_Guitar,6,5,sinpen_melancholic,0.19105257093906403,0
55,100,0.3,810,0,26,DL_MelancholicFolk_Guitar,6,5,sinpen_melancholic,0.2619593143463135,0
56,100,0.8363636363636363,106,1,27,DL_MelancholicFolk_Guitar,6,13,sinpen_melancholic,0.9990280866622925,1
56,100,0.759090909090909,374,1,27,DL_MelancholicFolk_Guitar,6,12,sinpen_melancholic,0.37033596634864807,0
58,100,0.1,650,1,27,DL_MelancholicFolk_Guitar,6,2,sinpen_melancholic,0.45617684721946716,0
65,100,0.2818181818181818,69,1,28,DL_MelancholicFolk_Guitar,6,5,sinpen_melancholic,0.9990280866622925,1
58,100,0.3409090909090909,598,1,28,DL_MelancholicFolk_Guitar,6,5,sinpen_melancholic,0.370344877243042,0
65,100,0.2409090909090909,673,0,28,DL_MelancholicFolk_Guitar,6,4,sinpen_melancholic,0.4561631679534912,0
63,100,0.2,30,1,29,DL_MelancholicFolk_Guitar,6,3,sinpen_melancholic,0.9990280866622925,1
63,100,0.8590909090909091,216,0,29,DL_MelancholicFolk_Guitar,6,14,sinpen_melancholic,0.37033990025520325,0
63,100,0.12272727272727273,584,1,29,DL_MelancholicFolk_Guitar,6,2,sinpen_melancholic,0.4561852514743805,0
58,100,0.41818181818181815,193,1,30,DL_MelancholicFolk_Guitar,6,7,sinpen_melancholic,0.9990094900131226,1
53,100,0.6409090909090909,285,0,30,DL_MelancholicFolk_Guitar,6,10,sinpen_melancholic,0.23322191834449768,0
53,100,0.16363636363636364,818,1,30,DL_MelancholicFolk_Guitar,6,3,sinpen_melancholic,0.27057942748069763,0
55,100,0.22272727272727272,862,0,30,DL_MelancholicFolk_Guitar,6,4,sinpen_melancholic,0.35792890191078186,0
55,100,0.1,34,1,31,DL_MelancholicFolk_Guitar,6,2,sinpen_melancholic,0.9990094900131226,1
55,100,0.1590909090909091,106,0,31,DL_MelancholicFolk_Guitar,6,3,sinpen_melancholic,0.2332298308610916,0
55,100,0.2409090909090909,673,1,31,DL_MelancholicFolk_Guitar,6,4,sinpen_melancholic,0.27057579159736633,0
55,100,0.16363636363636364,729,0,31,DL_MelancholicFolk_Guitar,6,3,sinpen_melancholic,0.35792621970176697,0
58,100,0.3409090909090909,21,1,32,DL_MelancholicFolk_Guitar,6,5,sinpen_melancholic,0.9988439083099365,1
56,100,0.1590909090909091,251,0,32,DL_MelancholicFolk_Guitar,6,3,sinpen_melancholic,0.13798299431800842,0
56,100,0.37727272727272726,545,1,32,DL_MelancholicFolk_Guitar,6,6,sinpen_melancholic,0.16236315667629242,0
56,100,0.2409090909090909,761,0,32,DL_MelancholicFolk_Guitar,6,4,sinpen_melancholic,0.19104890525341034,0
58,100,0.6818181818181818,826,0,32,DL_MelancholicFolk_Guitar,6,11,sinpen_melancholic,0.2619529068470001,0
56,100,0.18181818181818182,69,1,34,DL_MelancholicFolk_Guitar,6,3,sinpen_melancholic,0.9986506104469299,1
53,100,0.2590909090909091,153,0,34,DL_MelancholicFolk_Guitar,6,4,sinpen_melancholic,0.08797811716794968,0
53,100,0.5181818181818182,215,0,34,DL_MelancholicFolk_Guitar,6,8,sinpen_melancholic,0.09298151731491089,0
53,100,0.2772727272727273,361,0,34,DL_MelancholicFolk_Guitar,6,4,sinpen_melancholic,0.10994625091552734,0
58,100,0.5818181818181818,440,0,34,DL_MelancholicFolk_Guitar,6,9,sinpen_melancholic,0.12867166101932526,0
56,100,0.5181818181818182,810,1,34,DL_MelancholicFolk_Guitar,6,8,sinpen_melancholic,0.18220758438110352,0
56,100,0.11818181818181818,220,1,35,DL_MelancholicFolk_Guitar,6,2,sinpen_melancholic,0.9988439083099365,1
56,100,0.2590909090909091,254,0,35,DL_MelancholicFolk_Guitar,6,4,sinpen_melancholic,0.13798299431800842,0
58,100,0.5818181818181818,418,0,35,DL_MelancholicFolk_Guitar,6,9,sinpen_melancholic,0.1623668521642685,0
65,100,0.3409090909090909,581,0,35,DL_MelancholicFolk_Guitar,6,5,sinpen_melancholic,0.1910567432641983,0
58,100,0.7,761,0,35,DL_MelancholicFolk_Guitar,6,11,sinpen_melancholic,0.2619612514972687,0
53,100,0.3,40,1,36,DL_MelancholicFolk_Guitar,6,5,sinpen_melancholic,0.9988439083099365,1
58,100,0.1409090909090909,110,0,36,DL_MelancholicFolk_Guitar,6,2,sinpen_melancholic,0.1379839926958084,0
53,100,0.21818181818181817,176,0,36,DL_MelancholicFolk_Guitar,6,3,sinpen_melancholic,0.16236452758312225,0
55,100,0.5181818181818182,351,0,36,DL_MelancholicFolk_Guitar,6,8,sinpen_melancholic,0.19105887413024902,0
55,100,0.1590909090909091,783,1,36,DL_MelancholicFolk_Guitar,6,3,sinpen_melancholic,0.2619616985321045,0
60,100,0.9772727272727273,8,1,37,DL_MelancholicFolk_Guitar,6,15,sinpen_melancholic,0.9984879493713379,1
60,100,0.11818181818181818,228,0,37,DL_MelancholicFolk_Guitar,6,2,sinpen_melancholic,0.06335318833589554,0
55,100,0.12272727272727273,321,0,37,DL_MelancholicFolk_Guitar,6,2,sinpen_melancholic,0.0582883320748806,0
53,100,1.3818181818181818,440,0,37,DL_MelancholicFolk_Guitar,6,15,sinpen_melancholic,0.06136032193899155,0
53,100,0.1590909090909091,765,1,37,DL_MelancholicFolk_Guitar,6,3,sinpen_melancholic,0.07168111950159073,0
53,100,0.18181818181818182,804,0,37,DL_MelancholicFolk_Guitar,6,3,sinpen_melancholic,0.08473318815231323,0
65,100,0.11818181818181818,875,0,37,DL_MelancholicFolk_Guitar,6,2,sinpen_melancholic,0.12634745240211487,0
65,100,0.12272727272727273,101,1,38,DL_MelancholicFolk_Guitar,6,2,sinpen_melancholic,0.9984879493713379,1
65,100,0.2409090909090909,201,0,38,DL_MelancholicFolk_Guitar,6,4,sinpen_melancholic,0.06335281580686569,0
65,100,0.11818181818181818,273,0,38,DL_MelancholicFolk_Guitar,6,2,sinpen_melancholic,0.05828674137592316,0
65,100,0.11818181818181818,303,0,38,DL_MelancholicFolk_Guitar,6,2,sinpen_melancholic,0.06135884299874306,0
58,100,0.2,361,0,38,DL_MelancholicFolk_Guitar,6,3,sinpen_melancholic,0.0716795027256012,0
58,100,0.17727272727272728,536,0,38,DL_MelancholicFolk_Guitar,6,3,sinpen_melancholic,0.08473008126020432,0
58,100,0.17727272727272728,633,0,38,DL_MelancholicFolk_Guitar,6,3,sinpen_melancholic,0.1263428032398224,0
53,100,0.21818181818181817,348,1,39,DL_MelancholicFolk_Guitar,6,3,sinpen_melancholic,0.9988439083099365,1
58,100,0.2,509,0,39,DL_MelancholicFolk_Guitar,6,3,sinpen_melancholic,0.13798114657402039,0
53,100,0.5409090909090909,554,0,39,DL_MelancholicFolk_Guitar,6,9,sinpen_melancholic,0.16235873103141785,0
58,100,0.5,721,0,39,DL_MelancholicFolk_Guitar,6,8,sinpen_melancholic,0.19105656445026398,0
58,100,0.4,853,0,39,DL_MelancholicFolk_Guitar,6,6,sinpen_melancholic,0.26196056604385376,0
56,100,0.4,418,1,41,DL_MelancholicFolk_Guitar,6,6,sinpen_melancholic,0.9990280866622925,1
56,100,0.3,558,0,41,DL_MelancholicFolk_Guitar,6,5,sinpen_melancholic,0.37033748626708984,0
58,100,0.2,655,0,41,DL_MelancholicFolk_Guitar,6,3,sinpen_melancholic,0.45617085695266724,0
60,100,0.18181818181818182,21,1,42,DL_MelancholicFolk_Guitar,6,3,sinpen_melancholic,0.9986506104469299,1
65,100,0.5227272727272727,211,0,42,DL_MelancholicFolk_Guitar,6,8,sinpen_melancholic,0.08797582983970642,0
65,100,0.2590909090909091,448,1,42,DL_MelancholicFolk_Guitar,6,4,sinpen_melancholic,0.09298606961965561,0
65,100,0.1590909090909091,563,0,42,DL_MelancholicFolk_Guitar,6,3,sinpen_melancholic,0.10994812101125717,0
56,100,0.2409090909090909,641,0,42,DL_MelancholicFolk_Guitar,6,4,sinpen_melancholic,0.1286684274673462,0
63,100,0.1590909090909091,866,0,42,DL_MelancholicFolk_Guitar,6,3,sinpen_melancholic,0.18221597373485565,0
58,100,0.4590909090909091,198,1,43,DL_MelancholicFolk_Guitar,6,7,sinpen_melancholic,0.9988439083099365,1
65,100,0.42272727272727273,386,0,43,DL_MelancholicFolk_Guitar,6,7,sinpen_melancholic,0.1379821002483368,0
58,100,0.1409090909090909,581,0,43,DL_MelancholicFolk_Guitar,6,2,sinpen_melancholic,0.16236616671085358,0
58,100,0.4590909090909091,646,0,43,DL_MelancholicFolk_Guitar,6,7,sinpen_melancholic,0.191053107380867,0
63,100,0.1409090909090909,866,0,43,DL_MelancholicFolk_Guitar,6,2,sinpen_melancholic,0.2619645297527313,0
63,100,0.8181818181818182,150,1,44,DL_MelancholicFolk_Guitar,6,13,sinpen_melancholic,0.9990094900131226,1
63,100,0.1590909090909091,461,1,44,DL_MelancholicFolk_Guitar,6,3,sinpen_melancholic,0.23323509097099304,0
58,100,0.11818181818181818,528,0,44,DL_MelancholicFolk_Guitar,6,2,sinpen_melancholic,0.2705926299095154,0
58,100,0.8363636363636363,875,1,44,DL_MelancholicFolk_Guitar,6,13,sinpen_melancholic,0.3579280376434326,0
58,100,0.11818181818181818,228,1,45,DL_MelancholicFolk_Guitar,6,2,sinpen_melancholic,0.9990094900131226,1
55,100,0.2,399,0,45,DL_MelancholicFolk_Guitar,6,3,sinpen_melancholic,0.2332332283258438,0
55,100,0.2772727272727273,721,1,45,DL_MelancholicFolk_Guitar,6,4,sinpen_melancholic,0.2705821394920349,0
65,100,0.2,791,0,45,DL_MelancholicFolk_Guitar,6,3,sinpen_melancholic,0.35791924595832825,0
55,100,0.2590909090909091,131,1,46,DL_MelancholicFolk_Guitar,6,4,sinpen_melancholic,0.9984879493713379,1
58,100,0.16363636363636364,289,0,46,DL_MelancholicFolk_Guitar,6,3,sinpen_melancholic,0.06335312873125076,0
58,100,0.3409090909090909,330,0,46,DL_MelancholicFolk_Guitar,6,5,sinpen_melancholic,0.05828739330172539,0
65,100,0.2772727272727273,405,0,46,DL_MelancholicFolk_Guitar,6,4,sinpen_melancholic,0.06135941669344902,0
58,100,0.3,480,0,46,DL_MelancholicFolk_Guitar,6,5,sinpen_melancholic,0.07168204337358475,0
70,100,0.5,581,0,46,DL_MelancholicFolk_Guitar,6,8,sinpen_melancholic,0.08473093062639236,0
70,100,0.12272727272727273,694,0,46,DL_MelancholicFolk_Guitar,6,2,sinpen_melancholic,0.1263490468263626,0
70,100,0.12272727272727273,179,1,47,DL_MelancholicFolk_Guitar,6,2,sinpen_melancholic,0.9988439083099365,1
65,100,0.17727272727272728,303,0,47,DL_MelancholicFolk_Guitar,6,3,sinpen_melancholic,0.13797588646411896,0
65,100,0.2,399,0,47,DL_MelancholicFolk_Guitar,6,3,sinpen_melancholic,0.16235974431037903,0
58,100,0.32272727272727275,541,0,47,DL_MelancholicFolk_Guitar,6,5,sinpen_melancholic,0.19104932248592377,0
58,100,0.21818181818181817,801,1,47,DL_MelancholicFolk_Guitar,6,3,sinpen_melancholic,0.2619553208351135,0
58,100,0.11818181818181818,0,1,48,DL_MelancholicFolk_Guitar,6,2,sinpen_melancholic,0.9990280866622925,1
63,100,0.3409090909090909,660,1,48,DL_MelancholicFolk_Guitar,6,5,sinpen_melancholic,0.3703373074531555,0
65,100,0.6409090909090909,804,0,48,DL_MelancholicFolk_Guitar,6,10,sinpen_melancholic,0.45616650581359863,0
55,100,0.11818181818181818,66,1,49,DL_MelancholicFolk_Guitar,6,2,sinpen_melancholic,0.9986506104469299,1
56,100,0.5181818181818182,241,0,49,DL_MelancholicFolk_Guitar,6,8,sinpen_melancholic,0.08797922730445862,0
56,100,0.4,509,1,49,DL_MelancholicFolk_Guitar,6,6,sinpen_melancholic,0.0929834246635437,0
56,100,0.2409090909090909,646,0,49,DL_MelancholicFolk_Guitar,6,4,sinpen_melancholic,0.10994454473257065,0
65,100,0.18181818181818182,751,0,49,DL_MelancholicFolk_Guitar,6,3,sinpen_melancholic,0.1286715865135193,0
58,100,1.1636363636363636,818,0,49,DL_MelancholicFolk_Guitar,6,15,sinpen_melancholic,0.1822114884853363,0
58,100,0.38181818181818183,201,1,50,DL_MelancholicFolk_Guitar,6,6,sinpen_melancholic,0.9990280866622925,1
58,100,0.740909090909091,295,0,50,DL_MelancholicFolk_Guitar,6,12,sinpen_melancholic,0.37032896280288696,0
65,100,0.4409090909090909,515,0,50,DL_MelancholicFolk_Guitar,6,7,sinpen_melancholic,0.45616766810417175,0
53,100,0.33636363636363636,105,1,51,DL_MelancholicFolk_Guitar,6,5,sinpen_melancholic,0.9983232617378235,1
55,100,0.1590909090909091,185,0,51,DL_MelancholicFolk_Guitar,6,3,sinpen_melancholic,0.546211838722229,1
58,100,0.1409090909090909,405,1,52,DL_MelancholicFolk_Guitar,6,2,sinpen_melancholic,0.9990280866622925,1
65,100,0.17727272727272728,721,1,52,DL_MelancholicFolk_Guitar,6,3,sinpen_melancholic,0.37034371495246887,0
58,100,1.1409090909090909,761,0,52,DL_MelancholicFolk_Guitar,6,15,sinpen_melancholic,0.45615676045417786,0
70,100,0.17727272727272728,435,1,53,DL_MelancholicFolk_Guitar,6,3,sinpen_melancholic,0.9990280866622925,1
70,100,0.12272727272727273,774,1,53,DL_MelancholicFolk_Guitar,6,2,sinpen_melancholic,0.37034010887145996,0
65,100,0.2,818,0,53,DL_MelancholicFolk_Guitar,6,3,sinpen_melancholic,0.4561684727668762,0
58,100,0.21818181818181817,141,1,54,DL_MelancholicFolk_Guitar,6,3,sinpen_melancholic,0.9983232617378235,1
58,100,0.4772727272727273,273,0,54,DL_MelancholicFolk_Guitar,6,8,sinpen_melancholic,0.5462141633033752,1
53,100,0.18181818181818182,48,1,55,DL_MelancholicFolk_Guitar,6,3,sinpen_melancholic,0.9986506104469299,1
58,100,1.3,105,0,55,DL_MelancholicFolk_Guitar,6,15,sinpen_melancholic,0.0879792720079422,0
58,100,0.6818181818181818,396,1,55,DL_MelancholicFolk_Guitar,6,11,sinpen_melancholic,0.09298539161682129,0
58,100,0.18181818181818182,563,0,55,DL_MelancholicFolk_Guitar,6,3,sinpen_melancholic,0.10994569957256317,0
55,100,0.4590909090909091,673,0,55,DL_MelancholicFolk_Guitar,6,7,sinpen_melancholic,0.12866419553756714,0
70,100,0.18181818181818182,813,0,55,DL_MelancholicFolk_Guitar,6,3,sinpen_melancholic,0.1822102963924408,0
53,100,0.2590909090909091,303,1,56,DL_MelancholicFolk_Guitar,6,4,sinpen_melancholic,0.9986506104469299,1
60,100,0.11818181818181818,383,0,56,DL_MelancholicFolk_Guitar,6,2,sinpen_melancholic,0.08798064291477203,0
55,100,0.2,458,0,56,DL_MelancholicFolk_Guitar,6,3,sinpen_melancholic,0.09298434853553772,0
55,100,0.22272727272727272,694,1,56,DL_MelancholicFolk_Guitar,6,4,sinpen_melancholic,0.10995020717382431,0
65,100,0.1590909090909091,788,0,56,DL_MelancholicFolk_Guitar,6,3,sinpen_melancholic,0.12866802513599396,0
53,100,0.2636363636363636,861,0,56,DL_MelancholicFolk_Guitar,6,4,sinpen_melancholic,0.18221667408943176,0
65,100,0.37727272727272726,40,1,57,DL_MelancholicFolk_Guitar,6,6,sinpen_melancholic,0.9984879493713379,1
65,100,0.3,128,0,57,DL_MelancholicFolk_Guitar,6,5,sinpen_melancholic,0.06335229426622391,0
53,100,0.5,215,0,57,DL_MelancholicFolk_Guitar,6,8,sinpen_melancholic,0.058287858963012695,0
53,100,0.8772727272727273,348,0,57,DL_MelancholicFolk_Guitar,6,14,sinpen_melancholic,0.0613616444170475,0
65,100,0.7227272727272728,628,1,57,DL_MelancholicFolk_Guitar,6,12,sinpen_melancholic,0.07168154418468475,0
53,100,0.21818181818181817,788,0,57,DL_MelancholicFolk_Guitar,6,3,sinpen_melancholic,0.08473432064056396,0
53,100,0.21818181818181817,858,0,57,DL_MelancholicFolk_Guitar,6,3,sinpen_melancholic,0.12634558975696564,0
53,100,0.1590909090909091,40,1,58,DL_MelancholicFolk_Guitar,6,3,sinpen_melancholic,0.9990280866622925,1
58,100,1.0636363636363637,334,1,58,DL_MelancholicFolk_Guitar,6,15,sinpen_melancholic,0.37033602595329285,0
65,100,0.1590909090909091,778,1,58,DL_MelancholicFolk_Guitar,6,3,sinpen_melancholic,0.4561667740345001,0
65,100,0.7,738,1,59,DL_MelancholicFolk_Guitar,6,11,sinpen_melancholic,0.9792236089706421,1
65,100,0.2,136,1,60,DL_MelancholicFolk_Guitar,6,3,sinpen_melancholic,0.9988439083099365,1
58,100,0.13636363636363635,238,0,60,DL_MelancholicFolk_Guitar,6,2,sinpen_melancholic,0.13798516988754272,0
63,100,0.36363636363636365,311,0,60,DL_MelancholicFolk_Guitar,6,6,sinpen_melancholic,0.16236624121665955,0
63,100,0.5,458,0,60,DL_MelancholicFolk_Guitar,6,8,sinpen_melancholic,0.19105738401412964,0
58,100,1.2636363636363637,861,1,60,DL_MelancholicFolk_Guitar,6,15,sinpen_melancholic,0.2619684934616089,0
65,100,0.21818181818181817,263,1,61,DL_MelancholicFolk_Guitar,6,3,sinpen_melancholic,0.9988439083099365,1
58,100,0.5,334,0,61,DL_MelancholicFolk_Guitar,6,8,sinpen_melancholic,0.13798436522483826,0
55,100,0.2409090909090909,691,1,61,DL_MelancholicFolk_Guitar,6,4,sinpen_melancholic,0.16236798465251923,0
55,100,0.11818181818181818,778,0,61,DL_MelancholicFolk_Guitar,6,2,sinpen_melancholic,0.19105680286884308,0
58,100,0.5227272727272727,871,0,61,DL_MelancholicFolk_Guitar,6,8,sinpen_melancholic,0.2619645595550537,0
65,100,0.12272727272727273,356,1,62,DL_MelancholicFolk_Guitar,6,2,sinpen_melancholic,0.9990280866622925,1
65,100,0.4409090909090909,399,0,62,DL_MelancholicFolk_Guitar,6,7,sinpen_melancholic,0.3703400492668152,0
58,100,0.6227272727272727,686,1,62,DL_MelancholicFolk_Guitar,6,10,sinpen_melancholic,0.4561654031276703,0
58,100,0.2409090909090909,461,1,63,DL_MelancholicFolk_Guitar,6,4,sinpen_melancholic,0.9990094900131226,1
63,100,0.2409090909090909,531,0,63,DL_MelancholicFolk_Guitar,6,4,sinpen_melancholic,0.2332344949245453,0
63,100,0.1590909090909091,638,0,63,DL_MelancholicFolk_Guitar,6,3,sinpen_melancholic,0.2705880105495453,0
63,100,0.5181818181818182,681,0,63,DL_MelancholicFolk_Guitar,6,8,sinpen_melancholic,0.35793638229370117,0
58,100,0.3,140,1,64,DL_MelancholicFolk_Guitar,6,5,sinpen_melancholic,0.9983231425285339,1
56,100,0.2772727272727273,559,1,64,DL_MelancholicFolk_Guitar,6,4,sinpen_melancholic,0.5462045669555664,1
65,100,0.1,56,1,65,DL_MelancholicFolk_Guitar,6,2,sinpen_melancholic,0.9986506104469299,1
58,100,0.7227272727272728,189,0,65,DL_MelancholicFolk_Guitar,6,12,sinpen_melancholic,0.08798015117645264,0
65,100,0.21818181818181817,352,0,65,DL_MelancholicFolk_Guitar,6,3,sinpen_melancholic,0.09298475086688995,0
56,100,0.2,580,0,65,DL_MelancholicFolk_Guitar,6,3,sinpen_melancholic,0.10995203256607056,0
56,100,0.21818181818181817,633,0,65,DL_MelancholicFolk_Guitar,6,3,sinpen_melancholic,0.12867596745491028,0
56,100,0.1409090909090909,686,0,65,DL_MelancholicFolk_Guitar,6,2,sinpen_melancholic,0.18221460282802582,0
56,100,0.37727272727272726,30,1,66,DL_MelancholicFolk_Guitar,6,6,sinpen_melancholic,0.9986506104469299,1
58,100,0.1590909090909091,276,1,66,DL_MelancholicFolk_Guitar,6,3,sinpen_melancholic,0.08798003941774368,0
65,100,0.36363636363636365,312,0,66,DL_MelancholicFolk_Guitar,6,6,sinpen_melancholic,0.09298313409090042,0
53,100,0.11818181818181818,483,0,66,DL_MelancholicFolk_Guitar,6,2,sinpen_melancholic,0.109951451420784,0
58,100,1.0,509,0,66,DL_MelancholicFolk_Guitar,6,15,sinpen_melancholic,0.12867340445518494,0
55,100,1.240909090909091,747,1,66,DL_MelancholicFolk_Guitar,6,15,sinpen_melancholic,0.18221573531627655,0
55,100,0.12272727272727273,157,1,67,DL_MelancholicFolk_Guitar,6,2,sinpen_melancholic,0.9988439083099365,1
55,100,0.21818181818181817,216,0,67,DL_MelancholicFolk_Guitar,6,3,sinpen_melancholic,0.13798415660858154,0
55,100,0.3,326,0,67,DL_MelancholicFolk_Guitar,6,5,sinpen_melancholic,0.1623602658510208,0
55,100,0.12272727272727273,409,0,67,DL_MelancholicFolk_Guitar,6,2,sinpen_melancholic,0.19105264544487,0
58,100,0.2,650,1,67,DL_MelancholicFolk_Guitar,6,3,sinpen_melancholic,0.2619590759277344,0
58,100,0.3,62,1,68,DL_MelancholicFolk_Guitar,6,5,sinpen_melancholic,0.9983736276626587,1
56,100,0.22272727272727272,145,0,68,DL_MelancholicFolk_Guitar,6,4,sinpen_melancholic,0.05104902759194374,0
56,100,0.12272727272727273,255,0,68,DL_MelancholicFolk_Guitar,6,2,sinpen_melancholic,0.041612617671489716,0
56,100,0.4,320,0,68,DL_MelancholicFolk_Guitar,6,6,sinpen_melancholic,0.037979722023010254,0
56,100,0.2,506,0,68,DL_MelancholicFolk_Guitar,6,3,sinpen_melancholic,0.03925880417227745,0
63,100,0.1590909090909091,590,0,68,DL_MelancholicFolk_Guitar,6,3,sinpen_melancholic,0.046163853257894516,0
58,100,0.22272727272727272,650,0,68,DL_MelancholicFolk_Guitar,6,4,sinpen_melancholic,0.057131730020046234,0
58,100,0.7,703,0,68,DL_MelancholicFolk_Guitar,6,11,sinpen_melancholic,0.09187673777341843,0
58,100,0.3181818181818182,184,1,69,DL_MelancholicFolk_Guitar,6,5,sinpen_melancholic,0.9990096092224121,1
58,100,0.5772727272727273,273,0,69,DL_MelancholicFolk_Guitar,6,9,sinpen_melancholic,0.2332315593957901,0
63,100,0.21818181818181817,572,1,69,DL_MelancholicFolk_Guitar,6,3,sinpen_melancholic,0.270579069852829,0
58,100,0.18181818181818182,849,1,69,DL_MelancholicFolk_Guitar,6,3,sinpen_melancholic,0.35793355107307434,0
63,100,0.1,83,1,70,DL_MelancholicFolk_Guitar,6,2,sinpen_melancholic,0.9990280866622925,1
58,100,0.11818181818181818,140,0,70,DL_MelancholicFolk_Guitar,6,2,sinpen_melancholic,0.37034180760383606,0
58,100,0.23636363636363636,237,0,70,DL_MelancholicFolk_Guitar,6,4,sinpen_melancholic,0.4561712443828583,0
63,100,0.35909090909090907,206,1,71,DL_MelancholicFolk_Guitar,6,6,sinpen_melancholic,0.9792234897613525,1
56,100,0.2636363636363636,422,1,76,DL_MelancholicFolk_Guitar,6,4,sinpen_melancholic,0.9988439083099365,1
53,100,0.16363636363636364,509,0,76,DL_MelancholicFolk_Guitar,6,3,sinpen_melancholic,0.13798145949840546,0
58,100,0.3409090909090909,553,0,76,DL_MelancholicFolk_Guitar,6,5,sinpen_melancholic,0.16236503422260284,0
58,100,0.37727272727272726,669,0,76,DL_MelancholicFolk_Guitar,6,6,sinpen_melancholic,0.19105751812458038,0
58,100,1.018181818181818,756,0,76,DL_MelancholicFolk_Guitar,6,15,sinpen_melancholic,0.261959969997406,0
58,100,0.2409090909090909,110,1,77,DL_MelancholicFolk_Guitar,6,4,sinpen_melancholic,0.9990094900131226,1
58,100,0.18181818181818182,176,0,77,DL_MelancholicFolk_Guitar,6,3,sinpen_melancholic,0.2332385629415512,0
55,100,1.0636363636363637,289,0,77,DL_MelancholicFolk_Guitar,6,15,sinpen_melancholic,0.2705771327018738,0
58,100,0.4772727272727273,656,1,77,DL_MelancholicFolk_Guitar,6,8,sinpen_melancholic,0.3579310178756714,0
70,100,0.5818181818181818,22,1,78,DL_MelancholicFolk_Guitar,6,9,sinpen_melancholic,0.9983004927635193,1
55,100,0.16363636363636364,246,0,78,DL_MelancholicFolk_Guitar,6,3,sinpen_melancholic,0.04466170072555542,0
65,100,0.35909090909090907,282,0,78,DL_MelancholicFolk_Guitar,6,6,sinpen_melancholic,0.03337075561285019,0
55,100,0.3409090909090909,360,0,78,DL_MelancholicFolk_Guitar,6,5,sinpen_melancholic,0.02694675326347351,0
65,100,0.1409090909090909,440,0,78,DL_MelancholicFolk_Guitar,6,2,sinpen_melancholic,0.02408323623239994,0
56,100,0.5227272727272727,519,0,78,DL_MelancholicFolk_Guitar,6,8,sinpen_melancholic,0.02497067116200924,0
63,100,0.1590909090909091,660,0,78,DL_MelancholicFolk_Guitar,6,3,sinpen_melancholic,0.030646083876490593,0
65,100,0.2818181818181818,703,0,78,DL_MelancholicFolk_Guitar,6,5,sinpen_melancholic,0.0413670539855957,0
65,100,0.5363636363636364,832,0,78,DL_MelancholicFolk_Guitar,6,9,sinpen_melancholic,0.0720684751868248,0
65,100,0.4772727272727273,96,1,79,DL_MelancholicFolk_Guitar,6,8,sinpen_melancholic,0.9988439083099365,1
55,100,0.32272727272727275,365,1,79,DL_MelancholicFolk_Guitar,6,5,sinpen_melancholic,0.13798560202121735,0
55,100,0.21818181818181817,440,0,79,DL_MelancholicFolk_Guitar,6,3,sinpen_melancholic,0.16237182915210724,0
55,100,0.2,509,0,79,DL_MelancholicFolk_Guitar,6,3,sinpen_melancholic,0.191057950258255,0
65,100,0.4818181818181818,673,0,79,DL_MelancholicFolk_Guitar,6,8,sinpen_melancholic,0.2619610130786896,0
63,100,0.32272727272727275,26,1,80,DL_MelancholicFolk_Guitar,6,5,sinpen_melancholic,0.9986506104469299,1
63,100,0.1409090909090909,153,0,80,DL_MelancholicFolk_Guitar,6,2,sinpen_melancholic,0.0879809558391571,0
63,100,0.22272727272727272,365,0,80,DL_MelancholicFolk_Guitar,6,4,sinpen_melancholic,0.09298554807901382,0
58,100,1.0,475,0,80,DL_MelancholicFolk_Guitar,6,15,sinpen_melancholic,0.10995170474052429,0
53,100,0.2409090909090909,703,0,80,DL_MelancholicFolk_Guitar,6,4,sinpen_melancholic,0.1286724954843521,0
53,100,0.8590909090909091,766,0,80,DL_MelancholicFolk_Guitar,6,14,sinpen_melancholic,0.18222065269947052,0
53,100,0.18181818181818182,79,1,81,DL_MelancholicFolk_Guitar,6,3,sinpen_melancholic,0.9984879493713379,1
60,100,0.11818181818181818,193,0,81,DL_MelancholicFolk_Guitar,6,2,sinpen_melancholic,0.06335446238517761,0
60,100,0.5363636363636364,303,0,81,DL_MelancholicFolk_Guitar,6,9,sinpen_melancholic,0.05828957259654999,0
60,100,0.13636363636363635,436,0,81,DL_MelancholicFolk_Guitar,6,2,sinpen_melancholic,0.06136452406644821,0
55,100,0.4409090909090909,475,0,81,DL_MelancholicFolk_Guitar,6,7,sinpen_melancholic,0.07168465852737427,0
60,100,0.4,603,0,81,DL_MelancholicFolk_Guitar,6,6,sinpen_melancholic,0.08473890274763107,0
56,100,0.1,857,1,81,DL_MelancholicFolk_Guitar,6,2,sinpen_melancholic,0.12635086476802826,0
58,100,0.33636363636363636,480,1,82,DL_MelancholicFolk_Guitar,6,5,sinpen_melancholic,0.9990280866622925,1
58,100,0.8,590,0,82,DL_MelancholicFolk_Guitar,6,13,sinpen_melancholic,0.3703335225582123,0
58,100,0.6181818181818182,832,1,82,DL_MelancholicFolk_Guitar,6,10,sinpen_melancholic,0.4561721980571747,0
70,100,0.2409090909090909,87,1,83,DL_MelancholicFolk_Guitar,6,4,sinpen_melancholic,0.9983736276626587,1
63,100,0.11818181818181818,140,0,83,DL_MelancholicFolk_Guitar,6,2,sinpen_melancholic,0.0510496124625206,0
58,100,0.11818181818181818,307,0,83,DL_MelancholicFolk_Guitar,6,2,sinpen_melancholic,0.041611503809690475,0
58,100,0.2772727272727273,339,0,83,DL_MelancholicFolk_Guitar,6,4,sinpen_melancholic,0.037978995591402054,0
62,100,0.6409090909090909,426,0,83,DL_MelancholicFolk_Guitar,6,10,sinpen_melancholic,0.03925786912441254,0
62,100,0.2,572,0,83,DL_MelancholicFolk_Guitar,6,3,sinpen_melancholic,0.04616300389170647,0
58,100,0.2409090909090909,650,0,83,DL_MelancholicFolk_Guitar,6,4,sinpen_melancholic,0.057129595428705215,0
60,100,0.11818181818181818,787,0,83,DL_MelancholicFolk_Guitar,6,2,sinpen_melancholic,0.09187841415405273,0
60,100,0.37727272727272726,184,1,84,DL_MelancholicFolk_Guitar,6,6,sinpen_melancholic,0.9986507296562195,1
60,100,0.3,273,0,84,DL_MelancholicFolk_Guitar,6,5,sinpen_melancholic,0.08798062801361084,0
60,100,0.2,343,0,84,DL_MelancholicFolk_Guitar,6,3,sinpen_melancholic,0.09298905730247498,0
63,100,0.1590909090909091,519,0,84,DL_MelancholicFolk_Guitar,6,3,sinpen_melancholic,0.10995888710021973,0
56,100,0.22272727272727272,563,0,84,DL_MelancholicFolk_Guitar,6,4,sinpen_melancholic,0.12867683172225952,0
56,100,1.3409090909090908,823,1,84,DL_MelancholicFolk_Guitar,6,15,sinpen_melancholic,0.1822206974029541,0
56,100,0.11818181818181818,392,1,85,DL_MelancholicFolk_Guitar,6,2,sinpen_melancholic,0.9988439083099365,1
56,100,0.1,576,0,85,DL_MelancholicFolk_Guitar,6,2,sinpen_melancholic,0.1379825472831726,0
58,100,0.1590909090909091,616,0,85,DL_MelancholicFolk_Guitar,6,3,sinpen_melancholic,0.16235946118831635,0
60,100,0.18181818181818182,773,0,85,DL_MelancholicFolk_Guitar,6,3,sinpen_melancholic,0.19105593860149384,0
53,100,0.11818181818181818,823,0,85,DL_MelancholicFolk_Guitar,6,2,sinpen_melancholic,0.26196229457855225,0
53,100,0.17727272727272728,30,1,86,DL_MelancholicFolk_Guitar,6,3,sinpen_melancholic,0.9984879493713379,1
53,100,0.1590909090909091,189,0,86,DL_MelancholicFolk_Guitar,6,3,sinpen_melancholic,0.06335274875164032,0
58,100,0.4772727272727273,229,0,86,DL_MelancholicFolk_Guitar,6,8,sinpen_melancholic,0.05828885734081268,0
60,100,0.38181818181818183,409,0,86,DL_MelancholicFolk_Guitar,6,6,sinpen_melancholic,0.06136172264814377,0
60,100,0.2,519,0,86,DL_MelancholicFolk_Guitar,6,3,sinpen_melancholic,0.07168268412351608,0
60,100,0.1,567,0,86,DL_MelancholicFolk_Guitar,6,2,sinpen_melancholic,0.08473529666662216,0
60,100,0.8,752,0,86,DL_MelancholicFolk_Guitar,6,13,sinpen_melancholic,0.12634582817554474,0
56,100,0.5409090909090909,69,1,87,DL_MelancholicFolk_Guitar,6,9,sinpen_melancholic,0.9983231425285339,1
58,100,1.259090909090909,637,1,87,DL_MelancholicFolk_Guitar,6,15,sinpen_melancholic,0.54621422290802,1
58,100,0.1590909090909091,53,1,88,DL_MelancholicFolk_Guitar,6,3,sinpen_melancholic,0.9984880685806274,1
58,100,0.7,100,0,88,DL_MelancholicFolk_Guitar,6,11,sinpen_melancholic,0.06335287541151047,0
70,100,0.12272727272727273,289,0,88,DL_MelancholicFolk_Guitar,6,2,sinpen_melancholic,0.05828931927680969,0
63,100,0.11818181818181818,330,0,88,DL_MelancholicFolk_Guitar,6,2,sinpen_melancholic,0.061360668390989304,0
63,100,0.6,453,0,88,DL_MelancholicFolk_Guitar,6,10,sinpen_melancholic,0.0716821476817131,0
62,100,0.3181818181818182,612,0,88,DL_MelancholicFolk_Guitar,6,5,sinpen_melancholic,0.08473673462867737,0
62,100,0.13636363636363635,722,0,88,DL_MelancholicFolk_Guitar,6,2,sinpen_melancholic,0.12635491788387299,0
60,100,0.5409090909090909,30,1,89,DL_MelancholicFolk_Guitar,6,9,sinpen_melancholic,0.9983232617378235,1
60,100,0.17727272727272728,493,1,89,DL_MelancholicFolk_Guitar,6,3,sinpen_melancholic,0.5462201833724976,1
70,100,0.2409090909090909,220,1,90,DL_MelancholicFolk_Guitar,6,4,sinpen_melancholic,0.9990280866622925,1
58,100,1.6409090909090909,299,0,90,DL_MelancholicFolk_Guitar,6,15,sinpen_melancholic,0.37032952904701233,0
58,100,0.11818181818181818,677,1,90,DL_MelancholicFolk_Guitar,6,2,sinpen_melancholic,0.45617055892944336,0
63,100,0.1,519,1,0,DL_Guitar,6,2,umon_kokounohito_ruriko,0.9792237281799316,1
58,100,0.1590909090909091,704,1,1,DL_Guitar,6,3,umon_kokounohito_ruriko,0.9792241454124451,1
56,100,0.12272727272727273,311,1,2,DL_Guitar,6,2,umon_kokounohito_ruriko,0.9983232617378235,1
63,100,1.3590909090909091,537,0,2,DL_Guitar,6,15,umon_kokounohito_ruriko,0.5462067127227783,1
63,100,1.0,836,1,4,DL_Guitar,6,15,umon_kokounohito_ruriko,0.9792232513427734,1
53,100,0.7181818181818181,373,1,5,DL_Guitar,6,11,umon_kokounohito_ruriko,0.9983231425285339,1
56,100,0.9818181818181818,593,0,5,DL_Guitar,6,15,umon_kokounohito_ruriko,0.5462067723274231,1
53,100,0.7,854,1,6,DL_Guitar,6,11,umon_kokounohito_ruriko,0.9792238473892212,1
53,100,0.1409090909090909,158,1,7,DL_Guitar,6,2,umon_kokounohito_ruriko,0.9988439083099365,1
53,100,0.4,311,0,7,DL_Guitar,6,6,umon_kokounohito_ruriko,0.13798487186431885,0
63,100,0.2818181818181818,747,1,7,DL_Guitar,6,5,umon_kokounohito_ruriko,0.16236647963523865,0
63,100,0.1590909090909091,831,0,7,DL_Guitar,6,3,umon_kokounohito_ruriko,0.1910635083913803,0
63,100,0.1409090909090909,871,0,7,DL_Guitar,6,2,umon_kokounohito_ruriko,0.2619773745536804,0
53,100,0.18181818181818182,527,1,8,DL_Guitar,6,3,umon_kokounohito_ruriko,0.9990094900131226,1
53,100,0.4590909090909091,581,0,8,DL_Guitar,6,7,umon_kokounohito_ruriko,0.2332310974597931,0
53,100,0.22272727272727272,685,0,8,DL_Guitar,6,4,umon_kokounohito_ruriko,0.2705838084220886,0
63,100,0.8590909090909091,787,0,8,DL_Guitar,6,14,umon_kokounohito_ruriko,0.3579248785972595,0
63,100,0.21818181818181817,448,1,13,DL_Guitar,6,3,umon_kokounohito_ruriko,0.9792237281799316,1
56,100,1.740909090909091,92,1,14,DL_Guitar,6,15,umon_kokounohito_ruriko,0.9990094900131226,1
56,100,0.2818181818181818,519,1,14,DL_Guitar,6,5,umon_kokounohito_ruriko,0.23323605954647064,0
56,100,0.1409090909090909,735,0,14,DL_Guitar,6,2,umon_kokounohito_ruriko,0.27058228850364685,0
63,100,0.2409090909090909,783,0,14,DL_Guitar,6,4,umon_kokounohito_ruriko,0.35791924595832825,0
56,100,0.2409090909090909,22,1,15,DL_Guitar,6,4,umon_kokounohito_ruriko,0.9984879493713379,1
56,100,0.1590909090909091,96,0,15,DL_Guitar,6,3,umon_kokounohito_ruriko,0.06335131824016571,0
53,100,0.3,144,0,15,DL_Guitar,6,5,umon_kokounohito_ruriko,0.05828876793384552,0
53,100,0.2,276,0,15,DL_Guitar,6,3,umon_kokounohito_ruriko,0.061360761523246765,0
63,100,0.4,386,0,15,DL_Guitar,6,6,umon_kokounohito_ruriko,0.071680948138237,0
53,100,0.1,536,0,15,DL_Guitar,6,2,umon_kokounohito_ruriko,0.08473474532365799,0
55,100,0.1,778,1,15,DL_Guitar,6,2,umon_kokounohito_ruriko,0.12634718418121338,0
63,100,0.4818181818181818,210,1,16,DL_Guitar,6,8,umon_kokounohito_ruriko,0.9990094900131226,1
53,100,0.12272727272727273,356,0,16,DL_Guitar,6,2,umon_kokounohito_ruriko,0.23323245346546173,0
58,100,0.2,391,0,16,DL_Guitar,6,3,umon_kokounohito_ruriko,0.27058857679367065,0
63,100,0.3,804,1,16,DL_Guitar,6,5,umon_kokounohito_ruriko,0.3579259514808655,0
56,100,0.11818181818181818,461,1,17,DL_Guitar,6,2,umon_kokounohito_ruriko,0.9990094900131226,1
53,100,0.2590909090909091,519,0,17,DL_Guitar,6,4,umon_kokounohito_ruriko,0.23323555290699005,0
53,100,0.1590909090909091,646,0,17,DL_Guitar,6,3,umon_kokounohito_ruriko,0.2705800533294678,0
63,100,0.33636363636363636,831,0,17,DL_Guitar,6,5,umon_kokounohito_ruriko,0.35792720317840576,0
53,100,0.2409090909090909,44,1,18,DL_Guitar,6,4,umon_kokounohito_ruriko,0.9986506104469299,1
55,100,0.3181818181818182,216,0,18,DL_Guitar,6,5,umon_kokounohito_ruriko,0.08798209577798843,0
55,100,0.9227272727272727,356,0,18,DL_Guitar,6,15,umon_kokounohito_ruriko,0.09298250079154968,0
55,100,0.22272727272727272,642,1,18,DL_Guitar,6,4,umon_kokounohito_ruriko,0.10994955897331238,0
60,100,0.1409090909090909,748,0,18,DL_Guitar,6,2,umon_kokounohito_ruriko,0.12866806983947754,0
60,100,0.18181818181818182,783,0,18,DL_Guitar,6,3,umon_kokounohito_ruriko,0.18221519887447357,0
63,100,0.12272727272727273,79,1,19,DL_Guitar,6,2,umon_kokounohito_ruriko,0.9990094900131226,1
53,100,0.5227272727272727,356,1,19,DL_Guitar,6,8,umon_kokounohito_ruriko,0.23323330283164978,0
53,100,0.2590909090909091,492,0,19,DL_Guitar,6,4,umon_kokounohito_ruriko,0.2705882489681244,0
53,100,0.2590909090909091,563,0,19,DL_Guitar,6,4,umon_kokounohito_ruriko,0.3579232394695282,0
53,100,0.11818181818181818,17,1,20,DL_Guitar,6,2,umon_kokounohito_ruriko,0.9983735084533691,1
55,100,0.2590909090909091,285,1,20,DL_Guitar,6,4,umon_kokounohito_ruriko,0.05104969069361687,0
53,100,0.11818181818181818,351,0,20,DL_Guitar,6,2,umon_kokounohito_ruriko,0.04161257669329643,0
55,100,0.5818181818181818,399,0,20,DL_Guitar,6,9,umon_kokounohito_ruriko,0.037980686873197556,0
56,100,0.21818181818181817,567,0,20,DL_Guitar,6,3,umon_kokounohito_ruriko,0.03926083818078041,0
56,100,0.12272727272727273,642,0,20,DL_Guitar,6,2,umon_kokounohito_ruriko,0.04616641625761986,0
56,100,0.21818181818181817,691,0,20,DL_Guitar,6,3,umon_kokounohito_ruriko,0.05713237076997757,0
56,100,0.3,801,0,20,DL_Guitar,6,5,umon_kokounohito_ruriko,0.09187714010477066,0
56,100,0.17727272727272728,9,1,21,DL_Guitar,6,3,umon_kokounohito_ruriko,0.9990094900131226,1
63,100,0.2590909090909091,303,1,21,DL_Guitar,6,4,umon_kokounohito_ruriko,0.23322956264019012,0
63,100,0.4,515,0,21,DL_Guitar,6,6,umon_kokounohito_ruriko,0.27058669924736023,0
63,100,0.8590909090909091,743,0,21,DL_Guitar,6,14,umon_kokounohito_ruriko,0.35792988538742065,0
63,100,0.35909090909090907,96,1,22,DL_Guitar,6,6,umon_kokounohito_ruriko,0.9990280866622925,1
63,100,0.4,260,0,22,DL_Guitar,6,6,umon_kokounohito_ruriko,0.37034958600997925,0
63,100,0.17727272727272728,480,0,22,DL_Guitar,6,3,umon_kokounohito_ruriko,0.45618367195129395,0
58,100,0.12272727272727273,223,1,26,DL_Guitar,6,2,umon_kokounohito_ruriko,0.998228132724762,1
53,100,0.2409090909090909,254,0,26,DL_Guitar,6,4,umon_kokounohito_ruriko,0.03940211609005928,0
58,100,0.1590909090909091,351,0,26,DL_Guitar,6,3,umon_kokounohito_ruriko,0.026854049414396286,0
53,100,0.11818181818181818,395,0,26,DL_Guitar,6,2,umon_kokounohito_ruriko,0.018830539658665657,0
53,100,0.17727272727272728,449,0,26,DL_Guitar,6,3,umon_kokounohito_ruriko,0.013653740286827087,0
58,100,0.2818181818181818,519,0,26,DL_Guitar,6,5,umon_kokounohito_ruriko,0.010812424123287201,0
53,100,0.1590909090909091,602,0,26,DL_Guitar,6,3,umon_kokounohito_ruriko,0.010072593577206135,0
58,100,0.2,673,0,26,DL_Guitar,6,3,umon_kokounohito_ruriko,0.01171573530882597,0
53,100,0.2,725,0,26,DL_Guitar,6,3,umon_kokounohito_ruriko,0.01699119433760643,0
58,100,0.3,783,0,26,DL_Guitar,6,5,umon_kokounohito_ruriko,0.027576932683587074,0
74,100,0.11818181818181818,866,0,26,DL_Guitar,6,2,umon_kokounohito_ruriko,0.054592009633779526,0
63,100,0.6590909090909091,501,1,27,DL_Guitar,6,11,umon_kokounohito_ruriko,0.9990280866622925,1
58,100,0.11818181818181818,725,0,27,DL_Guitar,6,2,umon_kokounohito_ruriko,0.3703513741493225,0
58,100,1.0,827,0,27,DL_Guitar,6,15,umon_kokounohito_ruriko,0.4561704695224762,0
63,100,0.1409090909090909,175,1,28,DL_Guitar,6,2,umon_kokounohito_ruriko,0.9990094900131226,1
58,100,0.3181818181818182,360,0,28,DL_Guitar,6,5,umon_kokounohito_ruriko,0.23324215412139893,0
63,100,1.040909090909091,474,0,28,DL_Guitar,6,15,umon_kokounohito_ruriko,0.2705831825733185,0
63,100,0.2590909090909091,783,1,28,DL_Guitar,6,4,umon_kokounohito_ruriko,0.3579300343990326,0
55,100,0.5409090909090909,100,1,29,DL_Guitar,6,9,umon_kokounohito_ruriko,0.9986506104469299,1
58,100,0.18181818181818182,246,0,29,DL_Guitar,6,3,umon_kokounohito_ruriko,0.08797816187143326,0
55,100,0.1409090909090909,312,0,29,DL_Guitar,6,2,umon_kokounohito_ruriko,0.09298478811979294,0
63,100,1.040909090909091,378,0,29,DL_Guitar,6,15,umon_kokounohito_ruriko,0.109942726790905,0
63,100,0.32272727272727275,642,1,29,DL_Guitar,6,5,umon_kokounohito_ruriko,0.12867243587970734,0
63,100,0.13636363636363635,876,1,29,DL_Guitar,6,2,umon_kokounohito_ruriko,0.18221986293792725,0
63,100,0.1590909090909091,57,1,30,DL_Guitar,6,3,umon_kokounohito_ruriko,0.9983231425285339,1
63,100,0.21818181818181817,193,0,30,DL_Guitar,6,3,umon_kokounohito_ruriko,0.5462208390235901,1
58,100,0.41818181818181815,52,1,31,DL_Guitar,6,7,umon_kokounohito_ruriko,0.9990094900131226,1
58,100,0.740909090909091,272,0,31,DL_Guitar,6,12,umon_kokounohito_ruriko,0.23322884738445282,0
58,100,0.4818181818181818,509,1,31,DL_Guitar,6,8,umon_kokounohito_ruriko,0.27058035135269165,0
58,100,0.2590909090909091,660,0,31,DL_Guitar,6,4,umon_kokounohito_ruriko,0.3579239249229431,0
63,100,0.2,66,1,32,DL_Guitar,6,3,umon_kokounohito_ruriko,0.9983735084533691,1
63,100,0.17727272727272728,206,0,32,DL_Guitar,6,3,umon_kokounohito_ruriko,0.051050201058387756,0
58,100,0.1409090909090909,321,0,32,DL_Guitar,6,2,umon_kokounohito_ruriko,0.04161285236477852,0
63,100,0.11818181818181818,493,0,32,DL_Guitar,6,2,umon_kokounohito_ruriko,0.03797963261604309,0
63,100,0.1,606,0,32,DL_Guitar,6,2,umon_kokounohito_ruriko,0.039261654019355774,0
53,100,0.21818181818181817,638,0,32,DL_Guitar,6,3,umon_kokounohito_ruriko,0.046167559921741486,0
58,100,0.4,686,0,32,DL_Guitar,6,6,umon_kokounohito_ruriko,0.057134196162223816,0
58,100,0.2,796,0,32,DL_Guitar,6,3,umon_kokounohito_ruriko,0.09188251197338104,0
53,100,0.11818181818181818,53,1,33,DL_Guitar,6,2,umon_kokounohito_ruriko,0.9988439083099365,1
53,100,0.22272727272727272,114,0,33,DL_Guitar,6,4,umon_kokounohito_ruriko,0.13798421621322632,0
55,100,0.18181818181818182,386,1,33,DL_Guitar,6,3,umon_kokounohito_ruriko,0.162367582321167,0
59,100,0.4818181818181818,453,0,33,DL_Guitar,6,8,umon_kokounohito_ruriko,0.19106309115886688,0
55,100,0.5,563,0,33,DL_Guitar,6,8,umon_kokounohito_ruriko,0.2619576156139374,0
55,100,0.2,26,1,34,DL_Guitar,6,3,umon_kokounohito_ruriko,0.9988439083099365,1
63,100,0.11818181818181818,105,0,34,DL_Guitar,6,2,umon_kokounohito_ruriko,0.13798390328884125,0
55,100,0.16363636363636364,268,0,34,DL_Guitar,6,3,umon_kokounohito_ruriko,0.1623668074607849,0
58,100,0.1590909090909091,364,0,34,DL_Guitar,6,3,umon_kokounohito_ruriko,0.19105951488018036,0
56,100,0.1590909090909091,756,1,34,DL_Guitar,6,3,umon_kokounohito_ruriko,0.2619589567184448,0
58,100,0.3,201,1,35,DL_Guitar,6,5,umon_kokounohito_ruriko,0.9988439083099365,1
58,100,0.37727272727272726,458,1,35,DL_Guitar,6,6,umon_kokounohito_ruriko,0.13797742128372192,0
53,100,0.1,545,0,35,DL_Guitar,6,2,umon_kokounohito_ruriko,0.16235704720020294,0
58,100,0.2818181818181818,576,0,35,DL_Guitar,6,5,umon_kokounohito_ruriko,0.19105516374111176,0
58,100,0.4,729,0,35,DL_Guitar,6,6,umon_kokounohito_ruriko,0.2619589567184448,0
63,100,0.17727272727272728,426,1,36,DL_Guitar,6,3,umon_kokounohito_ruriko,0.9983231425285339,1
63,100,0.43636363636363634,655,0,36,DL_Guitar,6,7,umon_kokounohito_ruriko,0.5462193489074707,1
56,100,0.11818181818181818,96,1,37,DL_Guitar,6,2,umon_kokounohito_ruriko,0.9988439083099365,1
63,100,0.2772727272727273,370,1,37,DL_Guitar,6,4,umon_kokounohito_ruriko,0.13798727095127106,0
63,100,0.41818181818181815,435,0,37,DL_Guitar,6,7,umon_kokounohito_ruriko,0.16237154603004456,0
63,100,0.11818181818181818,655,0,37,DL_Guitar,6,2,umon_kokounohito_ruriko,0.19106696546077728,0
63,100,0.38181818181818183,748,0,37,DL_Guitar,6,6,umon_kokounohito_ruriko,0.2619726359844208,0
63,100,0.35909090909090907,88,1,38,DL_Guitar,6,6,umon_kokounohito_ruriko,0.9792234897613525,1
65,100,0.4818181818181818,233,1,39,DL_Guitar,6,8,umon_kokounohito_ruriko,0.9988439083099365,1
56,100,0.4636363636363636,421,0,39,DL_Guitar,6,7,umon_kokounohito_ruriko,0.13798107206821442,0
63,100,0.36363636363636365,531,0,39,DL_Guitar,6,6,umon_kokounohito_ruriko,0.1623663753271103,0
63,100,0.35909090909090907,748,0,39,DL_Guitar,6,6,umon_kokounohito_ruriko,0.19105635583400726,0
58,100,0.1409090909090909,861,0,39,DL_Guitar,6,2,umon_kokounohito_ruriko,0.2619776725769043,0
53,100,0.23636363636363636,18,1,40,DL_Guitar,6,4,umon_kokounohito_ruriko,0.9990094900131226,1
58,100,0.16363636363636364,114,0,40,DL_Guitar,6,3,umon_kokounohito_ruriko,0.23323224484920502,0
58,100,0.759090909090909,163,0,40,DL_Guitar,6,12,umon_kokounohito_ruriko,0.2705778479576111,0
58,100,0.2590909090909091,351,0,40,DL_Guitar,6,4,umon_kokounohito_ruriko,0.3579280376434326,0
53,100,0.3181818181818182,198,1,41,DL_Guitar,6,5,umon_kokounohito_ruriko,0.9988439083099365,1
58,100,0.9409090909090909,273,0,41,DL_Guitar,6,15,umon_kokounohito_ruriko,0.137979656457901,0
58,100,0.4818181818181818,483,0,41,DL_Guitar,6,8,umon_kokounohito_ruriko,0.1623649299144745,0
58,100,0.1590909090909091,593,0,41,DL_Guitar,6,3,umon_kokounohito_ruriko,0.1910572201013565,0
63,100,0.41818181818181815,770,0,41,DL_Guitar,6,7,umon_kokounohito_ruriko,0.26196160912513733,0
63,100,0.32272727272727275,34,1,42,DL_Guitar,6,5,umon_kokounohito_ruriko,0.9983232617378235,1
63,100,0.5,188,0,42,DL_Guitar,6,8,umon_kokounohito_ruriko,0.5462254285812378,1
63,100,0.11818181818181818,110,1,43,DL_Guitar,6,2,umon_kokounohito_ruriko,0.9990280866622925,1
58,100,0.2,263,0,43,DL_Guitar,6,3,umon_kokounohito_ruriko,0.37034356594085693,0
65,100,0.13636363636363635,523,1,43,DL_Guitar,6,2,umon_kokounohito_ruriko,0.4561675786972046,0
65,100,0.37727272727272726,105,1,44,DL_Guitar,6,6,umon_kokounohito_ruriko,0.9990280866622925,1
63,100,0.1590909090909091,418,1,44,DL_Guitar,6,3,umon_kokounohito_ruriko,0.37034159898757935,0
63,100,0.11818181818181818,681,1,44,DL_Guitar,6,2,umon_kokounohito_ruriko,0.456173300743103,0
63,100,0.8590909090909091,198,1,45,DL_Guitar,6,14,umon_kokounohito_ruriko,0.9990094900131226,1
56,100,0.2409090909090909,399,0,45,DL_Guitar,6,4,umon_kokounohito_ruriko,0.23323477804660797,0
56,100,0.13636363636363635,458,0,45,DL_Guitar,6,2,umon_kokounohito_ruriko,0.27058306336402893,0
56,100,0.16363636363636364,509,0,45,DL_Guitar,6,3,umon_kokounohito_ruriko,0.3579227328300476,0
62,100,0.5181818181818182,0,1,47,DL_Guitar,6,8,umon_kokounohito_ruriko,0.9983231425285339,1
63,100,1.8,370,1,47,DL_Guitar,6,15,umon_kokounohito_ruriko,0.5462155342102051,1
58,100,0.5181818181818182,308,1,48,DL_Guitar,6,8,umon_kokounohito_ruriko,0.9792237281799316,1
58,100,0.2,21,1,49,DL_Guitar,6,3,umon_kokounohito_ruriko,0.9792242646217346,1
58,100,0.16363636363636364,224,1,50,DL_Guitar,6,3,umon_kokounohito_ruriko,0.9983232617378235,1
56,100,0.21818181818181817,273,0,50,DL_Guitar,6,3,umon_kokounohito_ruriko,0.5462127923965454,1
62,100,0.16363636363636364,136,1,51,DL_Guitar,6,3,umon_kokounohito_ruriko,0.9792237281799316,1
63,100,0.11818181818181818,501,1,52,DL_Guitar,6,2,umon_kokounohito_ruriko,0.9990280866622925,1
63,100,0.1,531,0,52,DL_Guitar,6,2,umon_kokounohito_ruriko,0.3703465163707733,0
63,100,0.21818181818181817,558,0,52,DL_Guitar,6,3,umon_kokounohito_ruriko,0.45617759227752686,0
58,100,0.12272727272727273,796,1,53,DL_Guitar,6,2,umon_kokounohito_ruriko,0.9792242646217346,1
58,100,0.2,681,1,55,DL_Guitar,6,3,umon_kokounohito_ruriko,0.9792240262031555,1
58,100,0.2772727272727273,8,1,56,DL_Guitar,6,4,umon_kokounohito_ruriko,0.9983231425285339,1
55,100,0.5409090909090909,603,1,56,DL_Guitar,6,9,umon_kokounohito_ruriko,0.5462087988853455,1
55,100,0.18181818181818182,4,1,57,DL_Guitar,6,3,umon_kokounohito_ruriko,0.9990094900131226,1
55,100,0.11818181818181818,413,1,57,DL_Guitar,6,2,umon_kokounohito_ruriko,0.2332344949245453,0
63,100,0.11818181818181818,703,1,57,DL_Guitar,6,2,umon_kokounohito_ruriko,0.27057987451553345,0
63,100,0.3409090909090909,778,0,57,DL_Guitar,6,5,umon_kokounohito_ruriko,0.3579283058643341,0
58,100,0.2,153,1,58,DL_Guitar,6,3,umon_kokounohito_ruriko,0.9990094900131226,1
53,100,0.38181818181818183,431,1,58,DL_Guitar,6,6,umon_kokounohito_ruriko,0.23322412371635437,0
65,100,0.11818181818181818,528,0,58,DL_Guitar,6,2,umon_kokounohito_ruriko,0.2705730199813843,0
58,100,0.2409090909090909,576,0,58,DL_Guitar,6,4,umon_kokounohito_ruriko,0.35792484879493713,0
63,100,0.1,483,1,59,DL_Guitar,6,2,umon_kokounohito_ruriko,0.9792240262031555,1
58,100,0.3,801,1,60,DL_Guitar,6,5,umon_kokounohito_ruriko,0.9983231425285339,1
53,100,0.17727272727272728,875,0,60,DL_Guitar,6,3,umon_kokounohito_ruriko,0.5462131500244141,1
53,100,0.18181818181818182,298,1,63,DL_Guitar,6,3,umon_kokounohito_ruriko,0.9983231425285339,1
53,100,0.18181818181818182,373,0,63,DL_Guitar,6,3,umon_kokounohito_ruriko,0.5462142825126648,1
53,100,0.1409090909090909,163,1,64,DL_Guitar,6,2,umon_kokounohito_ruriko,0.9792234897613525,1
53,100,0.17727272727272728,612,1,65,DL_Guitar,6,3,umon_kokounohito_ruriko,0.9983231425285339,1
53,100,0.2,826,0,65,DL_Guitar,6,3,umon_kokounohito_ruriko,0.5462159514427185,1
53,100,0.2818181818181818,189,1,66,DL_Guitar,6,5,umon_kokounohito_ruriko,0.9990094900131226,1
53,100,0.2772727272727273,392,0,66,DL_Guitar,6,4,umon_kokounohito_ruriko,0.23322626948356628,0
53,100,0.5409090909090909,466,0,66,DL_Guitar,6,9,umon_kokounohito_ruriko,0.2705817222595215,0
55,100,0.11818181818181818,747,1,66,DL_Guitar,6,2,umon_kokounohito_ruriko,0.3579263389110565,0
53,100,0.17727272727272728,184,1,67,DL_Guitar,6,3,umon_kokounohito_ruriko,0.9983232617378235,1
56,100,0.2,536,1,67,DL_Guitar,6,3,umon_kokounohito_ruriko,0.5462131500244141,1
58,100,0.1409090909090909,629,1,69,DL_Guitar,6,2,umon_kokounohito_ruriko,0.9983232617378235,1
58,100,0.2818181818181818,663,0,69,DL_Guitar,6,5,umon_kokounohito_ruriko,0.5462111830711365,1
53,100,0.18181818181818182,422,1,70,DL_Guitar,6,3,umon_kokounohito_ruriko,0.9990094900131226,1
58,100,0.1590909090909091,546,0,70,DL_Guitar,6,3,umon_kokounohito_ruriko,0.23322854936122894,0
58,100,0.1590909090909091,585,0,70,DL_Guitar,6,3,umon_kokounohito_ruriko,0.2705773413181305,0
53,100,0.12272727272727273,619,0,70,DL_Guitar,6,2,umon_kokounohito_ruriko,0.3579159677028656,0
58,100,0.3409090909090909,462,1,71,DL_Guitar,6,5,umon_kokounohito_ruriko,0.9983231425285339,1
58,100,0.4772727272727273,743,1,71,DL_Guitar,6,8,umon_kokounohito_ruriko,0.5462168455123901,1
53,100,0.1409090909090909,0,1,72,DL_Guitar,6,2,umon_kokounohito_ruriko,0.9983231425285339,1
58,100,0.3,792,1,72,DL_Guitar,6,5,umon_kokounohito_ruriko,0.5462153553962708,1
58,100,0.1,13,1,73,DL_Guitar,6,2,umon_kokounohito_ruriko,0.9988439083099365,1
65,100,0.38181818181818183,330,1,73,DL_Guitar,6,6,umon_kokounohito_ruriko,0.13797788321971893,0
65,100,0.1,417,0,73,DL_Guitar,6,2,umon_kokounohito_ruriko,0.1623595654964447,0
65,100,0.12272727272727273,629,0,73,DL_Guitar,6,2,umon_kokounohito_ruriko,0.19105181097984314,0
65,100,0.18181818181818182,770,0,73,DL_Guitar,6,3,umon_kokounohito_ruriko,0.2619551122188568,0
65,100,0.13636363636363635,83,1,74,DL_Guitar,6,2,umon_kokounohito_ruriko,0.9990280866622925,1
63,100,0.2818181818181818,597,1,74,DL_Guitar,6,5,umon_kokounohito_ruriko,0.37034231424331665,0
63,100,0.3181818181818182,669,0,74,DL_Guitar,6,5,umon_kokounohito_ruriko,0.45617273449897766,0
58,100,0.2,263,1,75,DL_Guitar,6,3,umon_kokounohito_ruriko,0.9990094900131226,1
62,100,0.2,352,0,75,DL_Guitar,6,3,umon_kokounohito_ruriko,0.2332240492105484,0
53,100,0.2409090909090909,756,1,75,DL_Guitar,6,4,umon_kokounohito_ruriko,0.27058589458465576,0
53,100,0.18181818181818182,813,0,75,DL_Guitar,6,3,umon_kokounohito_ruriko,0.35792988538742065,0
53,100,0.1409090909090909,9,1,76,DL_Guitar,6,2,umon_kokounohito_ruriko,0.9990094900131226,1
53,100,0.1590909090909091,66,0,76,DL_Guitar,6,3,umon_kokounohito_ruriko,0.23322847485542297,0
65,100,0.1,282,0,76,DL_Guitar,6,2,umon_kokounohito_ruriko,0.2705772817134857,0
55,100,0.1,673,1,76,DL_Guitar,6,2,umon_kokounohito_ruriko,0.3579283654689789,0
58,100,0.2409090909090909,532,1,77,DL_Guitar,6,4,umon_kokounohito_ruriko,0.9983232617378235,1
58,100,0.21818181818181817,590,0,77,DL_Guitar,6,3,umon_kokounohito_ruriko,0.5462125539779663,1
58,100,0.1,83,1,78,DL_Guitar,6,2,umon_kokounohito_ruriko,0.9983232617378235,1
58,100,0.21818181818181817,339,1,78,DL_Guitar,6,3,umon_kokounohito_ruriko,0.546215295791626,1
58,100,0.13636363636363635,83,1,79,DL_Guitar,6,2,umon_kokounohito_ruriko,0.9983232617378235,1
60,100,0.32272727272727275,519,1,79,DL_Guitar,6,5,umon_kokounohito_ruriko,0.5462154150009155,1
58,100,0.1,3,1,80,DL_Guitar,6,2,umon_kokounohito_ruriko,0.9990280866622925,1
58,100,1.0772727272727274,40,0,80,DL_Guitar,6,15,umon_kokounohito_ruriko,0.3703365921974182,0
58,100,0.1409090909090909,462,1,80,DL_Guitar,6,2,umon_kokounohito_ruriko,0.4561712145805359,0
58,100,0.2818181818181818,839,1,82,DL_Guitar,6,5,umon_kokounohito_ruriko,0.979223906993866,1
58,100,1.2818181818181817,466,1,84,DL_Guitar,6,15,umon_kokounohito_ruriko,0.979223906993866,1
58,100,0.4409090909090909,817,1,86,DL_Guitar,6,7,umon_kokounohito_ruriko,0.9792242646217346,1
58,100,0.4772727272727273,62,1,87,DL_Guitar,6,8,umon_kokounohito_ruriko,0.9983232617378235,1
58,100,0.2818181818181818,179,0,87,DL_Guitar,6,5,umon_kokounohito_ruriko,0.5462188720703125,1
58,100,1.2363636363636363,853,1,89,DL_Guitar,6,15,umon_kokounohito_ruriko,0.9792238473892212,1
63,100,0.11818181818181818,703,1,90,DL_Guitar,6,2,umon_kokounohito_ruriko,0.9983231425285339,1
58,100,0.2818181818181818,739,0,90,DL_Guitar,6,5,umon_kokounohito_ruriko,0.5462220311164856,1
58,100,0.11818181818181818,43,1,91,DL_Guitar,6,2,umon_kokounohito_ruriko,0.9990094900131226,1
58,100,0.32272727272727275,123,0,91,DL_Guitar,6,5,umon_kokounohito_ruriko,0.23322975635528564,0
58,100,0.2409090909090909,356,1,91,DL_Guitar,6,4,umon_kokounohito_ruriko,0.2705806493759155,0
58,100,1.0227272727272727,650,1,91,DL_Guitar,6,15,umon_kokounohito_ruriko,0.3579215705394745,0
58,100,0.4818181818181818,3,1,92,DL_Guitar,6,8,umon_kokounohito_ruriko,0.9990094900131226,1
58,100,0.1590909090909091,373,1,92,DL_Guitar,6,3,umon_kokounohito_ruriko,0.2332315891981125,0
58,100,0.1,440,0,92,DL_Guitar,6,2,umon_kokounohito_ruriko,0.27058282494544983,0
53,100,0.18181818181818182,593,0,92,DL_Guitar,6,3,umon_kokounohito_ruriko,0.3579196631908417,0
53,100,0.18181818181818182,246,1,93,DL_Guitar,6,3,umon_kokounohito_ruriko,0.979223906993866,1
58,100,0.3409090909090909,22,1,94,DL_Guitar,6,5,umon_kokounohito_ruriko,0.9990094900131226,1
58,100,0.17727272727272728,250,0,94,DL_Guitar,6,3,umon_kokounohito_ruriko,0.23322884738445282,0
58,100,0.5181818181818182,713,1,94,DL_Guitar,6,8,umon_kokounohito_ruriko,0.27058079838752747,0
58,100,0.7181818181818181,853,0,94,DL_Guitar,6,11,umon_kokounohito_ruriko,0.35792097449302673,0
56,100,0.5409090909090909,145,1,95,DL_Guitar,6,9,umon_kokounohito_ruriko,0.9990280866622925,1
56,100,0.18181818181818182,267,0,95,DL_Guitar,6,3,umon_kokounohito_ruriko,0.37034326791763306,0
62,100,0.3181818181818182,690,1,95,DL_Guitar,6,5,umon_kokounohito_ruriko,0.4561733305454254,0
63,100,0.2772727272727273,787,1,96,DL_Guitar,6,4,umon_kokounohito_ruriko,0.979223906993866,1
63,100,0.18181818181818182,862,1,97,DL_Guitar,6,3,umon_kokounohito_ruriko,0.9792236089706421,1
60,100,0.33636363636363636,348,1,1,DL_Guitar,6,5,ninjyou,0.9988439083099365,1
55,100,0.1409090909090909,431,0,1,DL_Guitar,6,2,ninjyou,0.13798187673091888,0
60,100,0.1,487,0,1,DL_Guitar,6,2,ninjyou,0.16236700117588043,0
52,100,0.2,590,0,1,DL_Guitar,6,3,ninjyou,0.19105643033981323,0
55,100,0.38181818181818183,849,1,1,DL_Guitar,6,6,ninjyou,0.26196321845054626,0
53,100,0.11818181818181818,712,1,3,DL_Guitar,6,2,ninjyou,0.9792241454124451,1
53,100,0.1409090909090909,74,1,4,DL_Guitar,6,2,ninjyou,0.9990280866622925,1
55,100,0.3,114,0,4,DL_Guitar,6,5,ninjyou,0.3703443109989166,0
60,100,0.37727272727272726,678,1,4,DL_Guitar,6,6,ninjyou,0.45616891980171204,0
60,100,0.3181818181818182,220,1,5,DL_Guitar,6,5,ninjyou,0.9986506104469299,1
60,100,0.1409090909090909,311,0,5,DL_Guitar,6,2,ninjyou,0.0879833996295929,0
57,100,0.3,360,0,5,DL_Guitar,6,5,ninjyou,0.09298624098300934,0
55,100,0.2,431,0,5,DL_Guitar,6,3,ninjyou,0.10995510965585709,0
55,100,0.2409090909090909,716,1,5,DL_Guitar,6,4,ninjyou,0.12867286801338196,0
55,100,0.3409090909090909,774,0,5,DL_Guitar,6,5,ninjyou,0.18222461640834808,0
55,100,0.6227272727272727,465,1,6,DL_Guitar,6,10,ninjyou,0.9983232617378235,1
57,100,0.3409090909090909,606,0,6,DL_Guitar,6,5,ninjyou,0.5462190508842468,1
60,100,0.1,40,1,7,DL_Guitar,6,2,ninjyou,0.9990094900131226,1
55,100,0.2818181818181818,79,0,7,DL_Guitar,6,5,ninjyou,0.23323005437850952,0
59,100,0.4818181818181818,703,1,7,DL_Guitar,6,8,ninjyou,0.27058297395706177,0
55,100,0.2772727272727273,844,0,7,DL_Guitar,6,4,ninjyou,0.35791829228401184,0
55,100,0.3,333,1,8,DL_Guitar,6,5,ninjyou,0.9990280866622925,1
55,100,0.17727272727272728,470,0,8,DL_Guitar,6,3,ninjyou,0.3703344762325287,0
54,100,0.1,656,0,8,DL_Guitar,6,2,ninjyou,0.4561663866043091,0
60,100,0.1409090909090909,65,1,9,DL_Guitar,6,2,ninjyou,0.9990280866622925,1
60,100,0.2818181818181818,135,0,9,DL_Guitar,6,5,ninjyou,0.370344340801239,0
57,100,0.3409090909090909,211,0,9,DL_Guitar,6,5,ninjyou,0.4561630189418793,0
60,100,0.2,677,1,10,DL_Guitar,6,3,ninjyou,0.9983232617378235,1
55,100,0.4818181818181818,818,0,10,DL_Guitar,6,8,ninjyou,0.5462118983268738,1
54,100,0.2818181818181818,355,1,11,DL_Guitar,6,5,ninjyou,0.9792245030403137,1
55,100,0.3,180,1,12,DL_Guitar,6,5,ninjyou,0.9984880685806274,1
55,100,0.2,250,0,12,DL_Guitar,6,3,ninjyou,0.06335420161485672,0
52,100,0.7181818181818181,360,0,12,DL_Guitar,6,11,ninjyou,0.058289382606744766,0
55,100,0.2818181818181818,527,0,12,DL_Guitar,6,5,ninjyou,0.061362382024526596,0
57,100,0.6,594,0,12,DL_Guitar,6,10,ninjyou,0.07168359309434891,0
52,100,0.3,739,0,12,DL_Guitar,6,5,ninjyou,0.08473899215459824,0
55,100,0.9409090909090909,804,0,12,DL_Guitar,6,15,ninjyou,0.1263502985239029,0
52,100,0.3,140,1,13,DL_Guitar,6,5,ninjyou,0.9990094900131226,1
55,100,1.2818181818181817,211,0,13,DL_Guitar,6,15,ninjyou,0.23322944343090057,0
55,100,0.1409090909090909,505,1,13,DL_Guitar,6,2,ninjyou,0.2705857455730438,0
60,100,0.1590909090909091,783,1,13,DL_Guitar,6,3,ninjyou,0.3579254150390625,0
54,100,0.21818181818181817,175,1,14,DL_Guitar,6,3,ninjyou,0.9988439083099365,1
62,100,0.1,338,0,14,DL_Guitar,6,2,ninjyou,0.13797950744628906,0
52,100,0.4409090909090909,448,0,14,DL_Guitar,6,7,ninjyou,0.16236382722854614,0
52,100,0.3409090909090909,584,0,14,DL_Guitar,6,5,ninjyou,0.19106237590312958,0
59,100,0.6,663,0,14,DL_Guitar,6,10,ninjyou,0.2619680166244507,0
57,100,0.32272727272727275,409,1,15,DL_Guitar,6,5,ninjyou,0.9983231425285339,1
59,100,0.3181818181818182,479,0,15,DL_Guitar,6,5,ninjyou,0.546215832233429,1
57,100,0.3,656,1,16,DL_Guitar,6,5,ninjyou,0.9983232617378235,1
59,100,0.33636363636363636,721,0,16,DL_Guitar,6,5,ninjyou,0.5462177395820618,1
55,100,0.1409090909090909,268,1,17,DL_Guitar,6,2,ninjyou,0.9986506104469299,1
57,100,0.6,343,0,17,DL_Guitar,6,10,ninjyou,0.08797895908355713,0
59,100,0.6,480,0,17,DL_Guitar,6,10,ninjyou,0.09298708289861679,0
62,100,0.4,611,0,17,DL_Guitar,6,6,ninjyou,0.10994912683963776,0
62,100,0.1409090909090909,804,0,17,DL_Guitar,6,2,ninjyou,0.12867510318756104,0
62,100,0.18181818181818182,870,0,17,DL_Guitar,6,3,ninjyou,0.18222559988498688,0
55,100,0.1590909090909091,119,1,18,DL_Guitar,6,3,ninjyou,0.9988439083099365,1
62,100,0.21818181818181817,237,0,18,DL_Guitar,6,3,ninjyou,0.13798652589321136,0
67,100,0.11818181818181818,326,0,18,DL_Guitar,6,2,ninjyou,0.1623692810535431,0
55,100,0.3,356,0,18,DL_Guitar,6,5,ninjyou,0.19106005132198334,0
79,100,0.12272727272727273,422,0,18,DL_Guitar,6,2,ninjyou,0.2619636356830597,0
55,100,0.8409090909090909,540,1,19,DL_Guitar,6,13,ninjyou,0.979223906993866,1
62,100,0.6636363636363637,223,1,20,DL_Guitar,6,11,ninjyou,0.9986506104469299,1
57,100,0.2772727272727273,413,0,20,DL_Guitar,6,4,ninjyou,0.08798325061798096,0
62,100,0.1409090909090909,474,0,20,DL_Guitar,6,2,ninjyou,0.09298990666866302,0
62,100,0.1409090909090909,686,0,20,DL_Guitar,6,2,ninjyou,0.10995951294898987,0
55,100,0.3,725,0,20,DL_Guitar,6,5,ninjyou,0.12868288159370422,0
52,100,0.5409090909090909,814,0,20,DL_Guitar,6,9,ninjyou,0.1822332888841629,0
55,100,0.6409090909090909,57,1,21,DL_Guitar,6,10,ninjyou,0.9983735084533691,1
55,100,0.18181818181818182,289,1,21,DL_Guitar,6,3,ninjyou,0.051050737500190735,0
55,100,0.38181818181818183,333,0,21,DL_Guitar,6,6,ninjyou,0.041610490530729294,0
55,100,0.1409090909090909,426,0,21,DL_Guitar,6,2,ninjyou,0.0379786416888237,0
55,100,0.12272727272727273,466,0,21,DL_Guitar,6,2,ninjyou,0.03925824910402298,0
54,100,0.11818181818181818,756,1,21,DL_Guitar,6,2,ninjyou,0.04616262763738632,0
62,100,0.1,787,0,21,DL_Guitar,6,2,ninjyou,0.05712775141000748,0
54,100,0.2590909090909091,810,0,21,DL_Guitar,6,4,ninjyou,0.0918760597705841,0
55,100,0.3181818181818182,83,1,22,DL_Guitar,6,5,ninjyou,0.9990280866622925,1
55,100,0.4,440,1,22,DL_Guitar,6,6,ninjyou,0.3703453540802002,0
55,100,0.2818181818181818,642,0,22,DL_Guitar,6,5,ninjyou,0.4561674892902374,0
62,100,0.1,21,1,23,DL_Guitar,6,2,ninjyou,0.9986506104469299,1
62,100,0.1,237,0,23,DL_Guitar,6,2,ninjyou,0.08798336982727051,0
55,100,0.3409090909090909,330,0,23,DL_Guitar,6,5,ninjyou,0.09298884868621826,0
64,100,0.5772727272727273,426,0,23,DL_Guitar,6,9,ninjyou,0.10995721817016602,0
55,100,0.2409090909090909,752,1,23,DL_Guitar,6,4,ninjyou,0.12867297232151031,0
52,100,0.5,814,0,23,DL_Guitar,6,8,ninjyou,0.18222375214099884,0
62,100,0.2,220,1,24,DL_Guitar,6,3,ninjyou,0.9990094900131226,1
55,100,0.2772727272727273,567,1,24,DL_Guitar,6,4,ninjyou,0.23324289917945862,0
55,100,0.3,642,0,24,DL_Guitar,6,5,ninjyou,0.2705896496772766,0
62,100,0.5227272727272727,796,0,24,DL_Guitar,6,8,ninjyou,0.3579360246658325,0
55,100,0.6,44,1,25,DL_Guitar,6,10,ninjyou,0.9983232617378235,1
62,100,0.32272727272727275,179,0,25,DL_Guitar,6,5,ninjyou,0.5462228059768677,1
64,100,0.2818181818181818,3,1,26,DL_Guitar,6,5,ninjyou,0.9983735084533691,1
52,100,0.3181818181818182,75,0,26,DL_Guitar,6,5,ninjyou,0.051049552857875824,0
55,100,0.5590909090909091,144,0,26,DL_Guitar,6,9,ninjyou,0.041613612323999405,0
55,100,1.1,281,0,26,DL_Guitar,6,15,ninjyou,0.03797914460301399,0
54,100,0.1,540,1,26,DL_Guitar,6,2,ninjyou,0.039260972291231155,0
54,100,0.11818181818181818,602,0,26,DL_Guitar,6,2,ninjyou,0.04616400972008705,0
54,100,0.6409090909090909,691,0,26,DL_Guitar,6,10,ninjyou,0.05713009834289551,0
62,100,0.1409090909090909,862,0,26,DL_Guitar,6,2,ninjyou,0.0918787345290184,0
62,100,0.43636363636363634,17,1,27,DL_Guitar,6,7,ninjyou,0.9988439083099365,1
54,100,0.22272727272727272,113,0,27,DL_Guitar,6,4,ninjyou,0.13798831403255463,0
55,100,0.41818181818181815,162,0,27,DL_Guitar,6,7,ninjyou,0.16236941516399384,0
55,100,0.5181818181818182,413,1,27,DL_Guitar,6,8,ninjyou,0.19106313586235046,0
55,100,0.11818181818181818,756,1,27,DL_Guitar,6,2,ninjyou,0.2619710862636566,0
62,100,0.12272727272727273,179,1,28,DL_Guitar,6,2,ninjyou,0.9983232617378235,1
55,100,1.4181818181818182,418,1,28,DL_Guitar,6,15,ninjyou,0.5462129712104797,1
62,100,0.1,285,1,29,DL_Guitar,6,2,ninjyou,0.9990280866622925,1
69,100,0.42272727272727273,532,1,29,DL_Guitar,6,7,ninjyou,0.37034207582473755,0
69,100,0.2590909090909091,633,0,29,DL_Guitar,6,4,ninjyou,0.4561755061149597,0
67,100,1.2181818181818183,66,1,39,DL_Guitar,6,15,ninjyou,0.9988439083099365,1
67,100,0.3,356,1,39,DL_Guitar,6,5,ninjyou,0.13798582553863525,0
67,100,0.7363636363636363,480,0,39,DL_Guitar,6,12,ninjyou,0.16236916184425354,0
67,100,0.8,678,0,39,DL_Guitar,6,13,ninjyou,0.19105404615402222,0
67,100,0.18181818181818182,858,0,39,DL_Guitar,6,3,ninjyou,0.2619563639163971,0
55,100,0.6409090909090909,316,1,40,DL_Guitar,6,10,ninjyou,0.9792237281799316,1
62,100,0.5818181818181818,153,1,41,DL_Guitar,6,9,ninjyou,0.9990094900131226,1
52,100,1.2,286,0,41,DL_Guitar,6,15,ninjyou,0.2332349419593811,0
52,100,0.18181818181818182,619,1,41,DL_Guitar,6,3,ninjyou,0.270585834980011,0
52,100,0.4818181818181818,664,0,41,DL_Guitar,6,8,ninjyou,0.35793930292129517,0
55,100,0.35909090909090907,343,1,43,DL_Guitar,6,6,ninjyou,0.9990280866622925,1
55,100,0.5227272727272727,453,0,43,DL_Guitar,6,8,ninjyou,0.370341956615448,0
62,100,0.5409090909090909,641,0,43,DL_Guitar,6,9,ninjyou,0.456167072057724,0
57,100,0.1409090909090909,251,1,44,DL_Guitar,6,2,ninjyou,0.9990280866622925,1
69,100,0.1409090909090909,453,0,44,DL_Guitar,6,2,ninjyou,0.3703392744064331,0
69,100,0.1,606,0,44,DL_Guitar,6,2,ninjyou,0.45617353916168213,0
59,100,0.12272727272727273,254,1,45,DL_Guitar,6,2,ninjyou,0.9990094900131226,1
55,100,0.5181818181818182,303,0,45,DL_Guitar,6,8,ninjyou,0.2332291305065155,0
67,100,0.1590909090909091,440,0,45,DL_Guitar,6,3,ninjyou,0.2705906331539154,0
62,100,0.2409090909090909,641,0,45,DL_Guitar,6,4,ninjyou,0.35792508721351624,0
52,100,1.9181818181818182,383,1,46,DL_Guitar,6,15,ninjyou,0.979223370552063,1
62,100,0.1409090909090909,21,1,47,DL_Guitar,6,2,ninjyou,0.9990094900131226,1
55,100,0.17727272727272728,348,1,47,DL_Guitar,6,3,ninjyou,0.23323488235473633,0
55,100,1.018181818181818,391,0,47,DL_Guitar,6,15,ninjyou,0.27057453989982605,0
60,100,0.1590909090909091,813,1,47,DL_Guitar,6,3,ninjyou,0.3579309582710266,0
62,100,0.23636363636363636,238,1,48,DL_Guitar,6,4,ninjyou,0.9983231425285339,1
62,100,0.4,871,1,48,DL_Guitar,6,6,ninjyou,0.5462238192558289,1
62,100,1.6,101,1,49,DL_Guitar,6,15,ninjyou,0.9990280866622925,1
67,100,0.2590909090909091,453,1,49,DL_Guitar,6,4,ninjyou,0.3703479766845703,0
62,100,0.18181818181818182,791,1,49,DL_Guitar,6,3,ninjyou,0.45617324113845825,0
62,100,1.040909090909091,0,1,50,DL_Guitar,6,15,ninjyou,0.9983231425285339,1
74,100,0.12272727272727273,254,1,50,DL_Guitar,6,2,ninjyou,0.5462245345115662,1
67,100,0.7818181818181819,220,1,76,DL_Guitar,6,13,ninjyou,0.9990280866622925,1
67,100,0.32272727272727275,422,0,76,DL_Guitar,6,5,ninjyou,0.37033915519714355,0
67,100,0.4,832,1,76,DL_Guitar,6,6,ninjyou,0.456169456243515,0
62,100,0.1,43,1,77,DL_Guitar,6,2,ninjyou,0.9986506104469299,1
62,100,0.35909090909090907,150,0,77,DL_Guitar,6,6,ninjyou,0.08798293769359589,0
55,100,0.11818181818181818,360,0,77,DL_Guitar,6,2,ninjyou,0.09298692643642426,0
55,100,0.17727272727272728,392,0,77,DL_Guitar,6,3,ninjyou,0.10995493829250336,0
62,100,0.3409090909090909,690,1,77,DL_Guitar,6,5,ninjyou,0.1286768913269043,0
67,100,0.7818181818181819,770,0,77,DL_Guitar,6,13,ninjyou,0.18222692608833313,0
62,100,0.32272727272727275,69,1,78,DL_Guitar,6,5,ninjyou,0.9990094900131226,1
62,100,0.16363636363636364,422,1,78,DL_Guitar,6,3,ninjyou,0.23323826491832733,0
55,100,0.4590909090909091,475,0,78,DL_Guitar,6,7,ninjyou,0.27058809995651245,0
55,100,0.5227272727272727,597,0,78,DL_Guitar,6,8,ninjyou,0.35793331265449524,0
55,100,0.1590909090909091,22,1,79,DL_Guitar,6,3,ninjyou,0.9986506104469299,1
52,100,0.13636363636363635,62,0,79,DL_Guitar,6,2,ninjyou,0.08798391371965408,0
55,100,0.759090909090909,110,0,79,DL_Guitar,6,12,ninjyou,0.092987060546875,0
55,100,0.5,286,0,79,DL_Guitar,6,8,ninjyou,0.1099543496966362,0
55,100,0.2772727272727273,480,0,79,DL_Guitar,6,4,ninjyou,0.12867356836795807,0
55,100,0.2636363636363636,839,1,79,DL_Guitar,6,4,ninjyou,0.18221251666545868,0
55,100,0.16363636363636364,47,1,80,DL_Guitar,6,3,ninjyou,0.9986506104469299,1
62,100,0.9409090909090909,233,0,80,DL_Guitar,6,15,ninjyou,0.08798035979270935,0
67,100,0.3,453,0,80,DL_Guitar,6,5,ninjyou,0.09298606961965561,0
62,100,0.5181818181818182,523,0,80,DL_Guitar,6,8,ninjyou,0.10995131731033325,0
67,100,0.1409090909090909,660,0,80,DL_Guitar,6,2,ninjyou,0.128678560256958,0
62,100,0.13636363636363635,810,0,80,DL_Guitar,6,2,ninjyou,0.18222609162330627,0
55,100,0.3181818181818182,40,1,81,DL_Guitar,6,5,ninjyou,0.9990280866622925,1
55,100,0.2772727272727273,470,1,81,DL_Guitar,6,4,ninjyou,0.3703472316265106,0
55,100,1.3590909090909091,590,0,81,DL_Guitar,6,15,ninjyou,0.45615315437316895,0
55,100,0.3,87,1,82,DL_Guitar,6,5,ninjyou,0.9986506104469299,1
62,100,0.5,312,0,82,DL_Guitar,6,8,ninjyou,0.08798114210367203,0
62,100,0.5590909090909091,436,0,82,DL_Guitar,6,9,ninjyou,0.0929872989654541,0
62,100,0.2,722,1,82,DL_Guitar,6,3,ninjyou,0.10995688289403915,0
62,100,0.13636363636363635,810,0,82,DL_Guitar,6,2,ninjyou,0.12867991626262665,0
57,100,0.2409090909090909,839,0,82,DL_Guitar,6,4,ninjyou,0.18222807347774506,0
67,100,0.4818181818181818,13,1,83,DL_Guitar,6,8,ninjyou,0.9990280866622925,1
57,100,1.3227272727272728,386,1,83,DL_Guitar,6,15,ninjyou,0.37033501267433167,0
62,100,0.13636363636363635,787,1,83,DL_Guitar,6,2,ninjyou,0.45617741346359253,0
59,100,0.37727272727272726,83,1,84,DL_Guitar,6,6,ninjyou,0.9988439083099365,1
59,100,0.2590909090909091,303,0,84,DL_Guitar,6,4,ninjyou,0.13798008859157562,0
59,100,0.2772727272727273,404,0,84,DL_Guitar,6,4,ninjyou,0.16236445307731628,0
59,100,0.41818181818181815,502,0,84,DL_Guitar,6,7,ninjyou,0.1910560131072998,0
62,100,0.9,716,0,84,DL_Guitar,6,14,ninjyou,0.26196175813674927,0
55,100,0.17727272727272728,127,1,85,DL_Guitar,6,3,ninjyou,0.9990280866622925,1
57,100,0.2590909090909091,616,1,85,DL_Guitar,6,4,ninjyou,0.3703426718711853,0
57,100,0.17727272727272728,700,0,85,DL_Guitar,6,3,ninjyou,0.45617908239364624,0
55,100,0.5409090909090909,0,1,86,DL_Guitar,6,9,ninjyou,0.9984880685806274,1
67,100,0.2,123,0,86,DL_Guitar,6,3,ninjyou,0.06335411220788956,0
67,100,0.8363636363636363,172,0,86,DL_Guitar,6,13,ninjyou,0.0582893043756485,0
55,100,0.1409090909090909,377,0,86,DL_Guitar,6,2,ninjyou,0.061364416033029556,0
55,100,1.6181818181818182,449,0,86,DL_Guitar,6,15,ninjyou,0.07167980074882507,0
67,100,0.1590909090909091,805,1,86,DL_Guitar,6,3,ninjyou,0.08473780751228333,0
55,100,0.6,853,0,86,DL_Guitar,6,10,ninjyou,0.1263476461172104,0
67,100,0.3,242,1,87,DL_Guitar,6,5,ninjyou,0.9983232617378235,1
67,100,0.2590909090909091,475,1,87,DL_Guitar,6,4,ninjyou,0.5462126135826111,1
57,100,0.5818181818181818,220,1,88,DL_Guitar,6,9,ninjyou,0.9983231425285339,1
55,100,0.13636363636363635,612,1,88,DL_Guitar,6,2,ninjyou,0.5462168455123901,1
59,100,0.2590909090909091,106,1,89,DL_Guitar,6,4,ninjyou,0.9990280866622925,1
59,100,0.6,176,0,89,DL_Guitar,6,10,ninjyou,0.3703319728374481,0
59,100,0.1590909090909091,320,0,89,DL_Guitar,6,3,ninjyou,0.45617711544036865,0
64,100,0.3409090909090909,79,1,0,_Remastered_Guitar,6,5,yuumoyanonaka,0.9983004927635193,1
66,100,0.2636363636363636,158,0,0,_Remastered_Guitar,6,4,yuumoyanonaka,0.044662658125162125,0
69,100,0.23636363636363636,238,0,0,_Remastered_Guitar,6,4,yuumoyanonaka,0.033370908349752426,0
73,100,0.22272727272727272,299,0,0,_Remastered_Guitar,6,4,yuumoyanonaka,0.0269477479159832,0
71,100,0.22272727272727272,356,0,0,_Remastered_Guitar,6,4,yuumoyanonaka,0.024083489552140236,0
73,100,0.6363636363636364,414,0,0,_Remastered_Guitar,6,10,yuumoyanonaka,0.02497275546193123,0
71,100,0.8227272727272728,563,0,0,_Remastered_Guitar,6,13,yuumoyanonaka,0.030647477135062218,0
71,100,0.1,757,0,0,_Remastered_Guitar,6,2,yuumoyanonaka,0.04137132689356804,0
73,100,1.018181818181818,792,0,0,_Remastered_Guitar,6,15,yuumoyanonaka,0.07206962257623672,0
71,100,1.0818181818181818,157,1,1,_Remastered_Guitar,6,15,yuumoyanonaka,0.9983004927635193,1
69,100,0.2590909090909091,414,1,1,_Remastered_Guitar,6,4,yuumoyanonaka,0.04466204717755318,0
71,100,0.41818181818181815,470,0,1,_Remastered_Guitar,6,7,yuumoyanonaka,0.03337176889181137,0
72,100,0.1,563,0,1,_Remastered_Guitar,6,2,yuumoyanonaka,0.02694791741669178,0
73,100,0.35909090909090907,585,0,1,_Remastered_Guitar,6,6,yuumoyanonaka,0.024083390831947327,0
71,100,0.17727272727272728,669,0,1,_Remastered_Guitar,6,3,yuumoyanonaka,0.024972939863801003,0
73,100,0.1,707,0,1,_Remastered_Guitar,6,2,yuumoyanonaka,0.030647076666355133,0
71,100,0.2590909090909091,744,0,1,_Remastered_Guitar,6,4,yuumoyanonaka,0.04137049615383148,0
69,100,0.5227272727272727,817,0,1,_Remastered_Guitar,6,8,yuumoyanonaka,0.07206989824771881,0
66,100,2.359090909090909,61,1,2,_Remastered_Guitar,6,15,yuumoyanonaka,0.9988439083099365,1
64,100,0.2772727272727273,590,1,2,_Remastered_Guitar,6,4,yuumoyanonaka,0.13798169791698456,0
66,100,0.2590909090909091,660,0,2,_Remastered_Guitar,6,4,yuumoyanonaka,0.16236147284507751,0
71,100,0.18181818181818182,726,0,2,_Remastered_Guitar,6,3,yuumoyanonaka,0.19105039536952972,0
73,100,0.6227272727272727,782,0,2,_Remastered_Guitar,6,10,yuumoyanonaka,0.2619570195674896,0
71,100,1.040909090909091,43,1,3,_Remastered_Guitar,6,15,yuumoyanonaka,0.9988440275192261,1
73,100,0.9636363636363636,290,1,3,_Remastered_Guitar,6,15,yuumoyanonaka,0.13799242675304413,0
71,100,0.5181818181818182,528,1,3,_Remastered_Guitar,6,8,yuumoyanonaka,0.16238825023174286,0
69,100,0.5409090909090909,651,0,3,_Remastered_Guitar,6,9,yuumoyanonaka,0.19109505414962769,0
69,100,4.463636363636364,796,0,3,_Remastered_Guitar,6,15,yuumoyanonaka,0.2619204819202423,0
69,100,1.4181818181818182,30,1,5,_Remastered_Guitar,6,15,yuumoyanonaka,0.9983231425285339,1
69,100,0.1,399,1,5,_Remastered_Guitar,6,2,yuumoyanonaka,0.5462213754653931,1
66,100,0.16363636363636364,839,1,50,_Remastered_Guitar,6,3,yuumoyanonaka,0.9792242646217346,1
64,100,0.36363636363636365,4,1,51,_Remastered_Guitar,6,6,yuumoyanonaka,0.998228132724762,1
66,100,0.23636363636363636,83,0,51,_Remastered_Guitar,6,4,yuumoyanonaka,0.039402831345796585,0
69,100,0.32272727272727275,136,0,51,_Remastered_Guitar,6,5,yuumoyanonaka,0.02685404382646084,0
73,100,0.2772727272727273,206,0,51,_Remastered_Guitar,6,4,yuumoyanonaka,0.018831146880984306,0
71,100,0.2,268,0,51,_Remastered_Guitar,6,3,yuumoyanonaka,0.013654536567628384,0
73,100,0.35909090909090907,330,0,51,_Remastered_Guitar,6,6,yuumoyanonaka,0.010812765918672085,0
69,100,0.2590909090909091,408,0,51,_Remastered_Guitar,6,4,yuumoyanonaka,0.010073654353618622,0
71,100,0.2818181818181818,466,0,51,_Remastered_Guitar,6,5,yuumoyanonaka,0.01171643566340208,0
73,100,0.3181818181818182,528,0,51,_Remastered_Guitar,6,5,yuumoyanonaka,0.01699191890656948,0
71,100,0.18181818181818182,664,0,51,_Remastered_Guitar,6,3,yuumoyanonaka,0.027579987421631813,0
73,100,0.9363636363636364,721,0,51,_Remastered_Guitar,6,15,yuumoyanonaka,0.05459224060177803,0
72,100,0.12272727272727273,48,1,52,_Remastered_Guitar,6,2,yuumoyanonaka,0.999028205871582,1
71,100,0.5409090909090909,75,0,52,_Remastered_Guitar,6,9,yuumoyanonaka,0.37045061588287354,0
69,100,5.636363636363637,193,0,52,_Remastered_Guitar,6,15,yuumoyanonaka,0.45604825019836426,0
57,100,0.3409090909090909,751,1,60,_Remastered_Guitar,6,5,yuumoyanonaka,0.9983232617378235,1
54,100,0.2,836,0,60,_Remastered_Guitar,6,3,yuumoyanonaka,0.5462208986282349,1
71,100,0.22272727272727272,4,1,61,_Remastered_Guitar,6,4,yuumoyanonaka,0.9983735084533691,1
73,100,0.6181818181818182,61,0,61,_Remastered_Guitar,6,10,yuumoyanonaka,0.05104873701930046,0
71,100,0.3409090909090909,201,0,61,_Remastered_Guitar,6,5,yuumoyanonaka,0.04161304607987404,0
73,100,0.41818181818181815,281,0,61,_Remastered_Guitar,6,7,yuumoyanonaka,0.037978485226631165,0
71,100,0.21818181818181817,391,0,61,_Remastered_Guitar,6,3,yuumoyanonaka,0.03926064074039459,0
73,100,0.9590909090909091,453,0,61,_Remastered_Guitar,6,15,yuumoyanonaka,0.046165164560079575,0
71,100,0.5,691,1,61,_Remastered_Guitar,6,8,yuumoyanonaka,0.05713570863008499,0
69,100,1.5,804,0,61,_Remastered_Guitar,6,15,yuumoyanonaka,0.09187821298837662,0
69,100,2.640909090909091,295,1,62,_Remastered_Guitar,6,15,yuumoyanonaka,0.979221522808075,1
69,100,0.3409090909090909,114,1,63,_Remastered_Guitar,6,5,yuumoyanonaka,0.9792241454124451,1
64,100,0.3409090909090909,56,1,97,_Remastered_Guitar,6,5,yuumoyanonaka,0.9982556700706482,1
66,100,0.2590909090909091,132,0,97,_Remastered_Guitar,6,4,yuumoyanonaka,0.04129238799214363,0
69,100,0.2590909090909091,197,0,97,_Remastered_Guitar,6,4,yuumoyanonaka,0.02912408858537674,0
73,100,0.2818181818181818,263,0,97,_Remastered_Guitar,6,5,yuumoyanonaka,0.02156835049390793,0
71,100,0.21818181818181817,330,0,97,_Remastered_Guitar,6,3,yuumoyanonaka,0.01705850474536419,0
73,100,0.6181818181818182,396,0,97,_Remastered_Guitar,6,10,yuumoyanonaka,0.01526720728725195,0
71,100,0.4409090909090909,536,0,97,_Remastered_Guitar,6,7,yuumoyanonaka,0.016455676406621933,0
71,100,0.3181818181818182,646,0,97,_Remastered_Guitar,6,5,yuumoyanonaka,0.021836254745721817,0
71,100,0.1409090909090909,726,0,97,_Remastered_Guitar,6,2,yuumoyanonaka,0.032518599182367325,0
73,100,1.0,770,0,97,_Remastered_Guitar,6,15,yuumoyanonaka,0.060910459607839584,0
71,100,0.6409090909090909,136,1,98,_Remastered_Guitar,6,10,yuumoyanonaka,0.9982556700706482,1
73,100,0.2590909090909091,282,0,98,_Remastered_Guitar,6,4,yuumoyanonaka,0.04129250347614288,0
71,100,0.1,343,0,98,_Remastered_Guitar,6,2,yuumoyanonaka,0.029125848785042763,0
69,100,0.2636363636363636,377,0,98,_Remastered_Guitar,6,4,yuumoyanonaka,0.021569324657320976,0
71,100,0.5,436,0,98,_Remastered_Guitar,6,8,yuumoyanonaka,0.01705910451710224,0
73,100,0.35909090909090907,559,0,98,_Remastered_Guitar,6,6,yuumoyanonaka,0.015267851762473583,0
71,100,0.1409090909090909,646,0,98,_Remastered_Guitar,6,2,yuumoyanonaka,0.01645592413842678,0
73,100,0.1409090909090909,682,0,98,_Remastered_Guitar,6,2,yuumoyanonaka,0.021837394684553146,0
71,100,0.2409090909090909,716,0,98,_Remastered_Guitar,6,4,yuumoyanonaka,0.0325184091925621,0
69,100,0.6,779,0,98,_Remastered_Guitar,6,10,yuumoyanonaka,0.06091263145208359,0
66,100,1.559090909090909,35,1,99,_Remastered_Guitar,6,15,yuumoyanonaka,0.9986506104469299,1
66,100,0.7181818181818181,396,1,99,_Remastered_Guitar,6,11,yuumoyanonaka,0.08797995746135712,0
64,100,0.3,563,0,99,_Remastered_Guitar,6,5,yuumoyanonaka,0.09298337996006012,0
66,100,0.2,650,0,99,_Remastered_Guitar,6,3,yuumoyanonaka,0.1099504753947258,0
71,100,0.17727272727272728,700,0,99,_Remastered_Guitar,6,3,yuumoyanonaka,0.12867486476898193,0
73,100,0.6409090909090909,752,0,99,_Remastered_Guitar,6,10,yuumoyanonaka,0.1822102665901184,0
71,100,0.5818181818181818,22,1,100,_Remastered_Guitar,6,9,yuumoyanonaka,0.9986506104469299,1
71,100,0.1590909090909091,220,0,100,_Remastered_Guitar,6,3,yuumoyanonaka,0.08798711001873016,0
73,100,1.0818181818181818,267,0,100,_Remastered_Guitar,6,15,yuumoyanonaka,0.09299762547016144,0
71,100,0.4590909090909091,514,1,100,_Remastered_Guitar,6,7,yuumoyanonaka,0.10998392850160599,0
69,100,0.5636363636363636,619,0,100,_Remastered_Guitar,6,9,yuumoyanonaka,0.12872396409511566,0
69,100,4.840909090909091,752,0,100,_Remastered_Guitar,6,15,yuumoyanonaka,0.182168647646904,0
53,100,0.12272727272727273,400,1,0,_Guitar,6,2,watasino,0.9990280866622925,1
60,100,0.1,686,1,0,_Guitar,6,2,watasino,0.3703371584415436,0
60,100,0.6772727272727272,713,0,0,_Guitar,6,11,watasino,0.45617392659187317,0
53,100,0.12272727272727273,597,1,1,_Guitar,6,2,watasino,0.9983232617378235,1
60,100,0.2,651,0,1,_Guitar,6,3,watasino,0.5462204813957214,1
60,100,0.12272727272727273,254,1,3,_Guitar,6,2,watasino,0.9990094900131226,1
62,100,0.1590909090909091,387,0,3,_Guitar,6,3,watasino,0.2332332581281662,0
55,100,0.4409090909090909,660,1,3,_Guitar,6,7,watasino,0.2705853581428528,0
55,100,0.1409090909090909,773,0,3,_Guitar,6,2,watasino,0.3579304814338684,0
60,100,1.7772727272727273,228,1,4,_Guitar,6,15,watasino,0.9983231425285339,1
60,100,2.081818181818182,672,1,4,_Guitar,6,15,watasino,0.5462169051170349,1
53,100,0.2636363636363636,289,1,5,_Guitar,6,4,watasino,0.9988439083099365,1
65,100,0.11818181818181818,527,1,5,_Guitar,6,2,watasino,0.1379789412021637,0
58,100,0.38181818181818183,585,0,5,_Guitar,6,6,watasino,0.16236229240894318,0
53,100,0.17727272727272728,744,0,5,_Guitar,6,3,watasino,0.19105194509029388,0
53,100,0.2590909090909091,788,0,5,_Guitar,6,4,watasino,0.2619570195674896,0
60,100,0.2409090909090909,554,1,6,_Guitar,6,4,watasino,0.9990280866622925,1
53,100,0.1409090909090909,682,0,6,_Guitar,6,2,watasino,0.3703378140926361,0
53,100,0.7,805,0,6,_Guitar,6,11,watasino,0.45616817474365234,0
53,100,0.3181818181818182,150,1,7,_Guitar,6,5,watasino,0.9988439083099365,1
65,100,0.2818181818181818,224,0,7,_Guitar,6,5,watasino,0.13798204064369202,0
57,100,0.2590909090909091,307,0,7,_Guitar,6,4,watasino,0.16235582530498505,0
60,100,0.1409090909090909,452,0,7,_Guitar,6,2,watasino,0.19105486571788788,0
53,100,0.2,713,1,7,_Guitar,6,3,watasino,0.2619575560092926,0
53,100,0.11818181818181818,8,1,8,_Guitar,6,2,watasino,0.9986506104469299,1
60,100,0.1590909090909091,118,0,8,_Guitar,6,3,watasino,0.08797921240329742,0
58,100,0.17727272727272728,194,0,8,_Guitar,6,3,watasino,0.09298250079154968,0
53,100,0.12272727272727273,312,0,8,_Guitar,6,2,watasino,0.10994607210159302,0
60,100,0.2409090909090909,713,1,8,_Guitar,6,4,watasino,0.1286720633506775,0
55,100,0.2590909090909091,787,0,8,_Guitar,6,4,watasino,0.18221646547317505,0
60,100,0.35909090909090907,211,1,9,_Guitar,6,6,watasino,0.9988439083099365,1
60,100,0.12272727272727273,333,0,9,_Guitar,6,2,watasino,0.137983500957489,0
53,100,0.1590909090909091,558,0,9,_Guitar,6,3,watasino,0.16236411035060883,0
53,100,0.1590909090909091,603,0,9,_Guitar,6,3,watasino,0.19105535745620728,0
60,100,0.3181818181818182,756,0,9,_Guitar,6,5,watasino,0.26197272539138794,0
53,100,0.5590909090909091,84,1,10,_Guitar,6,9,watasino,0.9988439083099365,1
53,100,0.3,276,0,10,_Guitar,6,5,watasino,0.13798464834690094,0
53,100,0.1,479,0,10,_Guitar,6,2,watasino,0.16236835718154907,0
69,100,0.2,668,0,10,_Guitar,6,3,watasino,0.19106023013591766,0
69,100,0.6409090909090909,756,0,10,_Guitar,6,10,watasino,0.26197052001953125,0
69,100,0.16363636363636364,202,1,11,_Guitar,6,3,watasino,0.9988439083099365,1
53,100,0.16363636363636364,443,1,11,_Guitar,6,3,watasino,0.13798336684703827,0
60,100,0.2818181818181818,527,0,11,_Guitar,6,5,watasino,0.1623614877462387,0
53,100,0.3181818181818182,594,0,11,_Guitar,6,5,watasino,0.19105635583400726,0
60,100,1.4772727272727273,721,0,11,_Guitar,6,15,watasino,0.26196029782295227,0
53,100,0.18181818181818182,180,1,12,_Guitar,6,3,watasino,0.9990280866622925,1
72,100,0.3,536,1,12,_Guitar,6,5,watasino,0.3703432083129883,0
65,100,0.11818181818181818,634,0,12,_Guitar,6,2,watasino,0.45616212487220764,0
53,100,0.22272727272727272,13,1,13,_Guitar,6,4,watasino,0.9986506104469299,1
53,100,0.12272727272727273,79,0,13,_Guitar,6,2,watasino,0.08798041194677353,0
60,100,0.6,154,0,13,_Guitar,6,10,watasino,0.09298115968704224,0
65,100,0.12272727272727273,453,1,13,_Guitar,6,2,watasino,0.10994603484869003,0
60,100,0.11818181818181818,615,0,13,_Guitar,6,2,watasino,0.12866850197315216,0
53,100,0.13636363636363635,831,0,13,_Guitar,6,2,watasino,0.18220998346805573,0
53,100,0.4590909090909091,166,1,14,_Guitar,6,7,watasino,0.9988439083099365,1
60,100,0.12272727272727273,290,0,14,_Guitar,6,2,watasino,0.13797955214977264,0
60,100,0.1,567,1,14,_Guitar,6,2,watasino,0.16235847771167755,0
60,100,0.11818181818181818,699,0,14,_Guitar,6,2,watasino,0.19105252623558044,0
60,100,0.11818181818181818,766,0,14,_Guitar,6,2,watasino,0.2619628608226776,0
60,100,0.2409090909090909,312,1,15,_Guitar,6,4,watasino,0.9986506104469299,1
60,100,0.1409090909090909,400,0,15,_Guitar,6,2,watasino,0.0879812240600586,0
60,100,0.12272727272727273,496,0,15,_Guitar,6,2,watasino,0.09298410266637802,0
60,100,0.5590909090909091,615,0,15,_Guitar,6,9,watasino,0.10994919389486313,0
53,100,0.1409090909090909,792,0,15,_Guitar,6,2,watasino,0.12867014110088348,0
53,100,0.2590909090909091,857,0,15,_Guitar,6,4,watasino,0.18221262097358704,0
60,100,0.22272727272727272,100,1,16,_Guitar,6,4,watasino,0.9983735084533691,1
60,100,0.18181818181818182,233,0,16,_Guitar,6,3,watasino,0.051050666719675064,0
53,100,0.21818181818181817,281,0,16,_Guitar,6,3,watasino,0.04161154106259346,0
60,100,0.2590909090909091,351,0,16,_Guitar,6,4,watasino,0.03797972947359085,0
60,100,0.41818181818181815,550,0,16,_Guitar,6,7,watasino,0.039259959012269974,0
60,100,0.1409090909090909,673,0,16,_Guitar,6,2,watasino,0.046166446059942245,0
57,100,0.11818181818181818,721,0,16,_Guitar,6,2,watasino,0.05713140591979027,0
60,100,0.35909090909090907,831,0,16,_Guitar,6,6,watasino,0.09187904745340347,0
60,100,0.2409090909090909,119,1,17,_Guitar,6,4,watasino,0.9984879493713379,1
65,100,0.18181818181818182,198,0,17,_Guitar,6,3,watasino,0.06335383653640747,0
65,100,0.11818181818181818,264,0,17,_Guitar,6,2,watasino,0.0582890547811985,0
57,100,1.1772727272727272,316,0,17,_Guitar,6,15,watasino,0.06136032193899155,0
57,100,0.2409090909090909,650,1,17,_Guitar,6,4,watasino,0.0716833770275116,0
57,100,0.4409090909090909,739,0,17,_Guitar,6,7,watasino,0.08473513275384903,0
53,100,0.2,858,0,17,_Guitar,6,3,watasino,0.12634731829166412,0
53,100,0.21818181818181817,30,1,18,_Guitar,6,3,watasino,0.9988439083099365,1
58,100,0.4,175,0,18,_Guitar,6,6,watasino,0.137983500957489,0
58,100,0.38181818181818183,268,0,18,_Guitar,6,6,watasino,0.16236288845539093,0
60,100,0.5409090909090909,615,1,18,_Guitar,6,9,watasino,0.19105517864227295,0
60,100,0.21818181818181817,756,0,18,_Guitar,6,3,watasino,0.26196593046188354,0
60,100,0.22272727272727272,233,1,19,_Guitar,6,4,watasino,0.9983232617378235,1
55,100,0.18181818181818182,299,0,19,_Guitar,6,3,watasino,0.546211302280426,1
55,100,0.11818181818181818,281,1,20,_Guitar,6,2,watasino,0.9988439083099365,1
60,100,0.2,378,0,20,_Guitar,6,3,watasino,0.13798217475414276,0
60,100,0.3,430,0,20,_Guitar,6,5,watasino,0.1623649001121521,0
53,100,0.11818181818181818,581,0,20,_Guitar,6,2,watasino,0.19105535745620728,0
58,100,0.7818181818181819,619,0,20,_Guitar,6,13,watasino,0.2619597315788269,0
53,100,0.2409090909090909,44,1,21,_Guitar,6,4,watasino,0.9986506104469299,1
53,100,0.17727272727272728,119,0,21,_Guitar,6,3,watasino,0.0879792720079422,0
60,100,0.6,206,0,21,_Guitar,6,10,watasino,0.09298519790172577,0
58,100,0.3409090909090909,399,0,21,_Guitar,6,5,watasino,0.10994963347911835,0
53,100,0.1590909090909091,546,0,21,_Guitar,6,3,watasino,0.12866584956645966,0
60,100,0.1,646,0,21,_Guitar,6,2,watasino,0.18221236765384674,0
53,100,0.12272727272727273,13,1,22,_Guitar,6,2,watasino,0.9983735084533691,1
60,100,0.41818181818181815,119,0,22,_Guitar,6,7,watasino,0.051049523055553436,0
65,100,0.1590909090909091,241,0,22,_Guitar,6,3,watasino,0.041611362248659134,0
60,100,0.12272727272727273,378,0,22,_Guitar,6,2,watasino,0.037978559732437134,0
60,100,0.2818181818181818,474,0,22,_Guitar,6,5,watasino,0.03925856575369835,0
65,100,0.18181818181818182,650,0,22,_Guitar,6,3,watasino,0.046163685619831085,0
53,100,0.2590909090909091,691,0,22,_Guitar,6,4,watasino,0.0571308508515358,0
53,100,0.4409090909090909,752,0,22,_Guitar,6,7,watasino,0.09187484532594681,0
53,100,0.17727272727272728,96,1,23,_Guitar,6,3,watasino,0.9990280866622925,1
60,100,0.7181818181818181,602,1,23,_Guitar,6,11,watasino,0.37034377455711365,0
57,100,0.2590909090909091,791,0,23,_Guitar,6,4,watasino,0.4561648964881897,0
57,100,0.21818181818181817,9,1,24,_Guitar,6,3,watasino,0.9986506104469299,1
57,100,0.11818181818181818,131,0,24,_Guitar,6,2,watasino,0.08798234909772873,0
57,100,0.2,343,0,24,_Guitar,6,3,watasino,0.09298679232597351,0
60,100,0.11818181818181818,492,0,24,_Guitar,6,2,watasino,0.10995452851057053,0
57,100,0.3,598,0,24,_Guitar,6,5,watasino,0.1286775767803192,0
57,100,0.8636363636363636,796,0,24,_Guitar,6,14,watasino,0.18222148716449738,0
57,100,0.11818181818181818,110,1,25,_Guitar,6,2,watasino,0.9986506104469299,1
62,100,0.2,422,1,25,_Guitar,6,3,watasino,0.08798003941774368,0
53,100,0.2409090909090909,563,0,25,_Guitar,6,4,watasino,0.09298231452703476,0
60,100,0.2818181818181818,663,0,25,_Guitar,6,5,watasino,0.10994897782802582,0
60,100,0.2,787,0,25,_Guitar,6,3,watasino,0.12867048382759094,0
53,100,0.18181818181818182,839,0,25,_Guitar,6,3,watasino,0.18220986425876617,0
53,100,0.22272727272727272,34,1,26,_Guitar,6,4,watasino,0.9988439083099365,1
58,100,0.7181818181818181,229,0,26,_Guitar,6,11,watasino,0.1379777491092682,0
58,100,0.2818181818181818,395,0,26,_Guitar,6,5,watasino,0.1623617559671402,0
58,100,0.1409090909090909,466,0,26,_Guitar,6,2,watasino,0.19105181097984314,0
58,100,0.1,567,0,26,_Guitar,6,2,watasino,0.26195797324180603,0
58,100,0.11818181818181818,0,1,27,_Guitar,6,2,watasino,0.9990280866622925,1
58,100,0.6818181818181818,34,0,27,_Guitar,6,11,watasino,0.3703376352787018,0
58,100,0.7,413,1,27,_Guitar,6,11,watasino,0.4561665952205658,0
55,100,0.37727272727272726,480,1,28,_Guitar,6,6,watasino,0.9983232617378235,1
55,100,0.9,625,0,28,_Guitar,6,14,watasino,0.5462164878845215,1
55,100,0.41818181818181815,154,1,29,_Guitar,6,7,watasino,0.9990094900131226,1
60,100,0.11818181818181818,264,0,29,_Guitar,6,2,watasino,0.23323047161102295,0
65,100,0.13636363636363635,523,1,29,_Guitar,6,2,watasino,0.27057352662086487,0
60,100,0.3409090909090909,773,1,29,_Guitar,6,5,watasino,0.35793012380599976,0
60,100,0.4409090909090909,92,1,30,_Guitar,6,7,watasino,0.9990280866622925,1
60,100,0.33636363636363636,546,1,30,_Guitar,6,5,watasino,0.3703402578830719,0
53,100,0.2590909090909091,673,0,30,_Guitar,6,4,watasino,0.4561643600463867,0
60,100,0.37727272727272726,326,1,31,_Guitar,6,6,watasino,0.9990280866622925,1
60,100,0.759090909090909,449,0,31,_Guitar,6,12,watasino,0.37033823132514954,0
53,100,0.18181818181818182,858,1,31,_Guitar,6,3,watasino,0.45616137981414795,0
58,100,0.2818181818181818,254,1,32,_Guitar,6,5,watasino,0.9984880685806274,1
60,100,0.38181818181818183,334,0,32,_Guitar,6,6,watasino,0.06335237622261047,0
58,100,0.17727272727272728,448,0,32,_Guitar,6,3,watasino,0.05828888341784477,0
58,100,0.1409090909090909,493,0,32,_Guitar,6,2,watasino,0.06136167421936989,0
53,100,0.2818181818181818,716,0,32,_Guitar,6,5,watasino,0.07168084383010864,0
60,100,0.1409090909090909,823,0,32,_Guitar,6,2,watasino,0.08473647385835648,0
53,100,0.22272727272727272,871,0,32,_Guitar,6,4,watasino,0.12634846568107605,0
60,100,0.1409090909090909,188,1,33,_Guitar,6,2,watasino,0.9983232617378235,1
60,100,0.2590909090909091,826,1,33,_Guitar,6,4,watasino,0.5462179780006409,1
55,100,0.21818181818181817,215,1,34,_Guitar,6,3,watasino,0.9990280866622925,1
60,100,0.6227272727272727,563,1,34,_Guitar,6,10,watasino,0.3703373372554779,0
53,100,0.17727272727272728,721,0,34,_Guitar,6,3,watasino,0.45616570115089417,0
60,100,0.11818181818181818,153,1,35,_Guitar,6,2,watasino,0.9983232617378235,1
60,100,0.1590909090909091,810,1,35,_Guitar,6,3,watasino,0.5462133884429932,1
60,100,0.4818181818181818,298,1,36,_Guitar,6,8,watasino,0.9988439083099365,1
53,100,0.1590909090909091,474,0,36,_Guitar,6,3,watasino,0.1379781812429428,0
60,100,0.5227272727272727,554,0,36,_Guitar,6,8,watasino,0.1623626947402954,0
69,100,0.1,703,0,36,_Guitar,6,2,watasino,0.19105131924152374,0
60,100,0.3181818181818182,823,0,36,_Guitar,6,5,watasino,0.2619670331478119,0
60,100,0.17727272727272728,18,1,37,_Guitar,6,3,watasino,0.9990094900131226,1
53,100,0.2409090909090909,286,1,37,_Guitar,6,4,watasino,0.23322762548923492,0
53,100,0.1590909090909091,493,0,37,_Guitar,6,3,watasino,0.2705783247947693,0
60,100,0.1409090909090909,668,0,37,_Guitar,6,2,watasino,0.357925683259964,0
53,100,0.1590909090909091,21,1,38,_Guitar,6,3,watasino,0.9988439083099365,1
65,100,0.18181818181818182,78,0,38,_Guitar,6,3,watasino,0.13797840476036072,0
53,100,0.1409090909090909,444,1,38,_Guitar,6,2,watasino,0.16236278414726257,0
53,100,0.2590909090909091,716,1,38,_Guitar,6,4,watasino,0.19104979932308197,0
53,100,0.16363636363636364,861,0,38,_Guitar,6,3,watasino,0.2619626820087433,0
53,100,0.2818181818181818,34,1,39,_Guitar,6,5,watasino,0.9990280866622925,1
60,100,0.21818181818181817,131,0,39,_Guitar,6,3,watasino,0.37034186720848083,0
60,100,0.22272727272727272,431,1,39,_Guitar,6,4,watasino,0.4561658501625061,0
60,100,0.3,69,1,40,_Guitar,6,5,watasino,0.9990280866622925,1
58,100,0.1409090909090909,356,1,40,_Guitar,6,2,watasino,0.3703412115573883,0
53,100,0.2409090909090909,708,1,40,_Guitar,6,4,watasino,0.4561660885810852,0
58,100,0.36363636363636365,26,1,41,_Guitar,6,6,watasino,0.9988439083099365,1
58,100,0.35909090909090907,303,1,41,_Guitar,6,6,watasino,0.13798178732395172,0
53,100,0.3181818181818182,506,0,41,_Guitar,6,5,watasino,0.1623615026473999,0
60,100,0.11818181818181818,581,0,41,_Guitar,6,2,watasino,0.19105522334575653,0
57,100,0.2409090909090909,735,0,41,_Guitar,6,4,watasino,0.26195481419563293,0
53,100,0.1409090909090909,351,1,43,_Guitar,6,2,watasino,0.9990094900131226,1
53,100,0.17727272727272728,611,1,43,_Guitar,6,3,watasino,0.23322845995426178,0
53,100,0.11818181818181818,770,0,43,_Guitar,6,2,watasino,0.2705802917480469,0
60,100,0.1,826,0,43,_Guitar,6,2,watasino,0.35792645812034607,0
53,100,0.3181818181818182,96,1,44,_Guitar,6,5,watasino,0.9990280866622925,1
60,100,0.3409090909090909,166,0,44,_Guitar,6,5,watasino,0.3703419864177704,0
60,100,0.3409090909090909,444,1,44,_Guitar,6,5,watasino,0.4561731517314911,0
53,100,0.11818181818181818,480,1,45,_Guitar,6,2,watasino,0.9792234897613525,1
53,100,0.3181818181818182,88,1,46,_Guitar,6,5,watasino,0.9983231425285339,1
62,100,0.18181818181818182,373,1,46,_Guitar,6,3,watasino,0.5462195873260498,1
60,100,0.8,166,1,47,_Guitar,6,13,watasino,0.9792240262031555,1
60,100,0.18181818181818182,254,1,48,_Guitar,6,3,watasino,0.9990094900131226,1
58,100,0.2,418,0,48,_Guitar,6,3,watasino,0.23323091864585876,0
58,100,0.18181818181818182,509,0,48,_Guitar,6,3,watasino,0.2705810070037842,0
65,100,0.4,694,0,48,_Guitar,6,6,watasino,0.35792675614356995,0
60,100,0.3409090909090909,53,1,49,_Guitar,6,5,watasino,0.9983232617378235,1
57,100,0.9590909090909091,633,1,49,_Guitar,6,15,watasino,0.5462126135826111,1
60,100,0.3409090909090909,91,1,50,_Guitar,6,5,watasino,0.9986506104469299,1
57,100,1.1818181818181819,188,0,50,_Guitar,6,15,watasino,0.08798003941774368,0
57,100,0.2818181818181818,453,1,50,_Guitar,6,5,watasino,0.09298695623874664,0
57,100,0.18181818181818182,528,0,50,_Guitar,6,3,watasino,0.10995309799909592,0
57,100,0.5772727272727273,590,0,50,_Guitar,6,9,watasino,0.12867406010627747,0
60,100,0.6,721,0,50,_Guitar,6,10,watasino,0.18222762644290924,0
60,100,0.1409090909090909,246,1,51,_Guitar,6,2,watasino,0.9986506104469299,1
60,100,0.2409090909090909,334,0,51,_Guitar,6,4,watasino,0.087980717420578,0
53,100,0.4590909090909091,396,0,51,_Guitar,6,7,watasino,0.09298519790172577,0
65,100,0.1409090909090909,496,0,51,_Guitar,6,2,watasino,0.10994883626699448,0
60,100,1.2636363636363637,531,0,51,_Guitar,6,15,watasino,0.12867207825183868,0
57,100,0.8,853,1,51,_Guitar,6,13,watasino,0.18221423029899597,0
65,100,0.7181818181818181,458,1,52,_Guitar,6,11,watasino,0.9983231425285339,1
62,100,0.7818181818181819,651,0,52,_Guitar,6,13,watasino,0.5462176203727722,1
57,100,0.16363636363636364,48,1,53,_Guitar,6,3,watasino,0.9990094900131226,1
60,100,0.5,268,0,53,_Guitar,6,8,watasino,0.2332368791103363,0
60,100,0.2590909090909091,523,1,53,_Guitar,6,4,watasino,0.27058717608451843,0
53,100,0.1590909090909091,655,0,53,_Guitar,6,3,watasino,0.3579319715499878,0
53,100,0.1590909090909091,43,1,54,_Guitar,6,3,watasino,0.9990280866622925,1
58,100,0.6,179,0,54,_Guitar,6,10,watasino,0.37033611536026,0
53,100,0.2,515,1,54,_Guitar,6,3,watasino,0.4561641216278076,0
53,100,0.1409090909090909,75,1,55,_Guitar,6,2,watasino,0.9984879493713379,1
53,100,0.35909090909090907,110,0,55,_Guitar,6,6,watasino,0.06335372477769852,0
53,100,0.3181818181818182,206,0,55,_Guitar,6,5,watasino,0.058288704603910446,0
60,100,0.3181818181818182,281,0,55,_Guitar,6,5,watasino,0.06136085465550423,0
60,100,0.5181818181818182,506,0,55,_Guitar,6,8,watasino,0.07167946547269821,0
60,100,0.3181818181818182,713,0,55,_Guitar,6,5,watasino,0.08473196625709534,0
60,100,0.3181818181818182,831,0,55,_Guitar,6,5,watasino,0.12634092569351196,0
62,100,0.21818181818181817,176,1,56,_Guitar,6,3,watasino,0.9986506104469299,1
60,100,0.6772727272727272,281,0,56,_Guitar,6,11,watasino,0.08798244595527649,0
53,100,0.21818181818181817,448,0,56,_Guitar,6,3,watasino,0.0929875448346138,0
65,100,0.22272727272727272,509,0,56,_Guitar,6,4,watasino,0.10995471477508545,0
57,100,0.2772727272727273,590,0,56,_Guitar,6,4,watasino,0.12867571413516998,0
60,100,0.9818181818181818,703,0,56,_Guitar,6,15,watasino,0.18222598731517792,0
60,100,0.6,118,1,57,_Guitar,6,10,watasino,0.9988439083099365,1
65,100,0.5590909090909091,471,1,57,_Guitar,6,9,watasino,0.1379803717136383,0
58,100,0.33636363636363636,655,0,57,_Guitar,6,5,watasino,0.16236430406570435,0
60,100,0.1590909090909091,765,0,57,_Guitar,6,3,watasino,0.19105593860149384,0
53,100,0.3181818181818182,810,0,57,_Guitar,6,5,watasino,0.2619595229625702,0
60,100,0.2818181818181818,4,1,58,_Guitar,6,5,watasino,0.9988439083099365,1
53,100,0.4818181818181818,78,0,58,_Guitar,6,8,watasino,0.13797533512115479,0
53,100,0.13636363636363635,215,0,58,_Guitar,6,2,watasino,0.16235795617103577,0
53,100,0.12272727272727273,298,0,58,_Guitar,6,2,watasino,0.19105008244514465,0
60,100,0.18181818181818182,378,0,58,_Guitar,6,3,watasino,0.26196175813674927,0
60,100,0.9181818181818182,105,1,59,_Guitar,6,15,watasino,0.9988439083099365,1
55,100,0.1,361,1,59,_Guitar,6,2,watasino,0.13798165321350098,0
60,100,0.22272727272727272,619,1,59,_Guitar,6,4,watasino,0.16236205399036407,0
60,100,0.1409090909090909,694,0,59,_Guitar,6,2,watasino,0.19105543196201324,0
60,100,0.8,748,0,59,_Guitar,6,13,watasino,0.26195499300956726,0
53,100,0.2,43,1,60,_Guitar,6,3,watasino,0.9990094900131226,1
60,100,0.5409090909090909,141,0,60,_Guitar,6,9,watasino,0.2332315593957901,0
60,100,1.3590909090909091,308,0,60,_Guitar,6,15,watasino,0.2705751359462738,0
60,100,0.4409090909090909,726,1,60,_Guitar,6,7,watasino,0.3579273521900177,0
60,100,0.35909090909090907,263,1,61,_Guitar,6,6,watasino,0.9990280866622925,1
62,100,0.35909090909090907,351,0,61,_Guitar,6,6,watasino,0.37033775448799133,0
60,100,0.6590909090909091,703,1,61,_Guitar,6,11,watasino,0.4561758041381836,0
60,100,0.6181818181818182,171,1,62,_Guitar,6,10,watasino,0.9988439083099365,1
58,100,0.1590909090909091,405,1,62,_Guitar,6,3,watasino,0.1379822939634323,0
60,100,0.5,461,0,62,_Guitar,6,8,watasino,0.16236254572868347,0
58,100,0.13636363636363635,678,0,62,_Guitar,6,2,watasino,0.19105443358421326,0
60,100,1.0227272727272727,774,0,62,_Guitar,6,15,watasino,0.26196613907814026,0
60,100,0.2818181818181818,289,1,63,_Guitar,6,5,watasino,0.9990094900131226,1
60,100,0.22272727272727272,444,0,63,_Guitar,6,4,watasino,0.23323576152324677,0
58,100,0.5409090909090909,563,0,63,_Guitar,6,9,watasino,0.2705729603767395,0
60,100,0.5,818,1,63,_Guitar,6,8,watasino,0.35792848467826843,0
58,100,0.5227272727272727,430,1,64,_Guitar,6,8,watasino,0.9990280866622925,1
60,100,0.36363636363636365,553,0,64,_Guitar,6,6,watasino,0.37034109234809875,0
60,100,0.1,870,1,64,_Guitar,6,2,watasino,0.4561741352081299,0
57,100,0.3181818181818182,163,1,65,_Guitar,6,5,watasino,0.9990280866622925,1
60,100,0.5227272727272727,629,1,65,_Guitar,6,8,watasino,0.3703494071960449,0
53,100,0.12272727272727273,870,1,65,_Guitar,6,2,watasino,0.4561687707901001,0
60,100,0.1590909090909091,79,1,66,_Guitar,6,3,watasino,0.9988439083099365,1
58,100,0.8,136,0,66,_Guitar,6,13,watasino,0.13798072934150696,0
58,100,0.2409090909090909,316,0,66,_Guitar,6,4,watasino,0.16236445307731628,0
58,100,0.12272727272727273,650,1,66,_Guitar,6,2,watasino,0.19105719029903412,0
65,100,0.2818181818181818,849,0,66,_Guitar,6,5,watasino,0.26196035742759705,0
58,100,0.2,157,1,67,_Guitar,6,3,watasino,0.9984879493713379,1
53,100,0.1409090909090909,286,0,67,_Guitar,6,2,watasino,0.06335344165563583,0
57,100,0.33636363636363636,392,0,67,_Guitar,6,5,watasino,0.05828750506043434,0
53,100,0.3181818181818182,493,0,67,_Guitar,6,5,watasino,0.06136227771639824,0
53,100,0.18181818181818182,585,0,67,_Guitar,6,3,watasino,0.0716828852891922,0
60,100,0.5,650,0,67,_Guitar,6,8,watasino,0.08473706990480423,0
60,100,1.1409090909090909,770,0,67,_Guitar,6,15,watasino,0.12635040283203125,0
60,100,0.1409090909090909,233,1,68,_Guitar,6,2,watasino,0.9990280866622925,1
60,100,0.4772727272727273,392,0,68,_Guitar,6,8,watasino,0.3703404664993286,0
65,100,0.35909090909090907,624,1,68,_Guitar,6,6,watasino,0.4561692774295807,0
60,100,0.35909090909090907,233,1,69,_Guitar,6,6,watasino,0.9983736276626587,1
53,100,0.2409090909090909,399,0,69,_Guitar,6,4,watasino,0.051049601286649704,0
60,100,0.18181818181818182,487,0,69,_Guitar,6,3,watasino,0.041612397879362106,0
60,100,0.12272727272727273,673,0,69,_Guitar,6,2,watasino,0.03797972947359085,0
60,100,0.1590909090909091,713,0,69,_Guitar,6,3,watasino,0.039261072874069214,0
53,100,0.1590909090909091,756,0,69,_Guitar,6,3,watasino,0.046165551990270615,0
53,100,0.12272727272727273,826,0,69,_Guitar,6,2,watasino,0.057131681591272354,0
57,100,0.37727272727272726,853,0,69,_Guitar,6,6,watasino,0.09188159555196762,0
60,100,0.2,166,1,70,_Guitar,6,3,watasino,0.9984879493713379,1
60,100,0.21818181818181817,273,0,70,_Guitar,6,3,watasino,0.06335309892892838,0
53,100,0.12272727272727273,356,0,70,_Guitar,6,2,watasino,0.0582873672246933,0
57,100,0.1,550,0,70,_Guitar,6,2,watasino,0.06135914474725723,0
53,100,0.1,633,0,70,_Guitar,6,2,watasino,0.0716826394200325,0
53,100,0.16363636363636364,663,0,70,_Guitar,6,3,watasino,0.08473141491413116,0
60,100,0.2,826,0,70,_Guitar,6,3,watasino,0.12634867429733276,0
53,100,0.2409090909090909,35,1,71,_Guitar,6,4,watasino,0.9986506104469299,1
58,100,0.1,184,0,71,_Guitar,6,2,watasino,0.08798233419656754,0
58,100,1.0227272727272727,210,0,71,_Guitar,6,15,watasino,0.09298434853553772,0
60,100,0.2590909090909091,519,1,71,_Guitar,6,4,watasino,0.10994991660118103,0
60,100,0.3,734,0,71,_Guitar,6,5,watasino,0.128670796751976,0
60,100,0.8181818181818182,844,0,71,_Guitar,6,13,watasino,0.182216614484787,0
60,100,0.12272727272727273,157,1,72,_Guitar,6,2,watasino,0.9990094900131226,1
53,100,0.12272727272727273,276,0,72,_Guitar,6,2,watasino,0.23322664201259613,0
53,100,0.12272727272727273,399,0,72,_Guitar,6,2,watasino,0.2705773413181305,0
65,100,0.3,426,0,72,_Guitar,6,5,watasino,0.3579219579696655,0
53,100,0.2590909090909091,210,1,73,_Guitar,6,4,watasino,0.9990094900131226,1
60,100,0.21818181818181817,303,0,73,_Guitar,6,3,watasino,0.23322486877441406,0
53,100,0.18181818181818182,487,0,73,_Guitar,6,3,watasino,0.27057740092277527,0
55,100,0.37727272727272726,832,1,73,_Guitar,6,6,watasino,0.35792937874794006,0
60,100,0.4590909090909091,56,1,74,_Guitar,6,7,watasino,0.9983232617378235,1
64,100,0.17727272727272728,392,1,74,_Guitar,6,3,watasino,0.5462135672569275,1
60,100,0.4772727272727273,40,1,75,_Guitar,6,8,watasino,0.9990094900131226,1
60,100,0.9590909090909091,299,1,75,_Guitar,6,15,watasino,0.23322954773902893,0
53,100,0.1409090909090909,550,1,75,_Guitar,6,2,watasino,0.2705775201320648,0
60,100,1.6409090909090909,682,0,75,_Guitar,6,15,watasino,0.35792502760887146,0
65,100,0.21818181818181817,787,1,76,_Guitar,6,3,watasino,0.979223906993866,1
60,100,0.8590909090909091,96,1,77,_Guitar,6,14,watasino,0.9990094900131226,1
53,100,0.12272727272727273,443,1,77,_Guitar,6,2,watasino,0.23324216902256012,0
58,100,0.13636363636363635,480,0,77,_Guitar,6,2,watasino,0.2705990672111511,0
58,100,1.3590909090909091,563,0,77,_Guitar,6,15,watasino,0.3579128384590149,0
58,100,0.1409090909090909,22,1,78,_Guitar,6,2,watasino,0.9988439083099365,1
55,100,0.1,263,1,78,_Guitar,6,2,watasino,0.13798324763774872,0
55,100,0.1,289,0,78,_Guitar,6,2,watasino,0.16236324608325958,0
60,100,0.5590909090909091,493,0,78,_Guitar,6,9,watasino,0.19105860590934753,0
60,100,2.2590909090909093,677,0,78,_Guitar,6,15,watasino,0.26195645332336426,0
60,100,0.8636363636363636,356,1,79,_Guitar,6,14,watasino,0.9792240262031555,1
60,100,0.1,123,1,80,_Guitar,6,2,watasino,0.9792246222496033,1
60,100,0.38181818181818183,386,1,81,_Guitar,6,6,watasino,0.9990280866622925,1
60,100,0.5227272727272727,519,0,81,_Guitar,6,8,watasino,0.3703416883945465,0
60,100,0.6772727272727272,669,0,81,_Guitar,6,11,watasino,0.4561699628829956,0
60,100,0.9409090909090909,3,1,82,_Guitar,6,15,watasino,0.9988439083099365,1
65,100,0.11818181818181818,373,1,82,_Guitar,6,2,watasino,0.137982577085495,0
65,100,0.17727272727272728,413,0,82,_Guitar,6,3,watasino,0.1623625010251999,0
62,100,0.5,493,0,82,_Guitar,6,8,watasino,0.19105777144432068,0
60,100,1.1818181818181819,637,0,82,_Guitar,6,15,watasino,0.26196298003196716,0
53,100,0.2,26,1,83,_Guitar,6,3,watasino,0.9988439083099365,1
60,100,0.8409090909090909,229,0,83,_Guitar,6,13,watasino,0.13798239827156067,0
53,100,0.1,466,1,83,_Guitar,6,2,watasino,0.1623661369085312,0
53,100,0.22272727272727272,716,1,83,_Guitar,6,4,watasino,0.19105292856693268,0
60,100,0.35909090909090907,783,0,83,_Guitar,6,6,watasino,0.2619668245315552,0
58,100,0.13636363636363635,40,1,84,_Guitar,6,2,watasino,0.9988439083099365,1
60,100,0.2409090909090909,189,0,84,_Guitar,6,4,watasino,0.13798034191131592,0
53,100,0.11818181818181818,326,0,84,_Guitar,6,2,watasino,0.16235925257205963,0
60,100,0.9409090909090909,466,0,84,_Guitar,6,15,watasino,0.19105690717697144,0
60,100,0.6,677,0,84,_Guitar,6,10,watasino,0.2619641125202179,0
65,100,0.1,3,1,85,_Guitar,6,2,watasino,0.9983735084533691,1
65,100,0.17727272727272728,30,0,85,_Guitar,6,3,watasino,0.05104980245232582,0
58,100,0.1,184,0,85,_Guitar,6,2,watasino,0.041612185537815094,0
62,100,0.2409090909090909,220,0,85,_Guitar,6,4,watasino,0.03797827661037445,0
58,100,0.6181818181818182,370,0,85,_Guitar,6,10,watasino,0.03926071152091026,0
58,100,0.5636363636363636,509,0,85,_Guitar,6,9,watasino,0.04616464301943779,0
64,100,0.22272727272727272,642,0,85,_Guitar,6,4,watasino,0.05713135749101639,0
60,100,0.5818181818181818,695,0,85,_Guitar,6,9,watasino,0.09188128262758255,0
65,100,0.21818181818181817,176,1,86,_Guitar,6,3,watasino,0.9990094900131226,1
53,100,0.35909090909090907,237,0,86,_Guitar,6,6,watasino,0.23323333263397217,0
60,100,0.6181818181818182,373,0,86,_Guitar,6,10,watasino,0.2705886662006378,0
60,100,0.18181818181818182,839,1,86,_Guitar,6,3,watasino,0.35792964696884155,0
64,100,0.35909090909090907,386,1,87,_Guitar,6,6,watasino,0.9990094900131226,1
60,100,0.17727272727272728,493,0,87,_Guitar,6,3,watasino,0.2332368642091751,0
57,100,0.1590909090909091,612,0,87,_Guitar,6,3,watasino,0.27058103680610657,0
60,100,0.2818181818181818,686,0,87,_Guitar,6,5,watasino,0.3579372465610504,0
53,100,0.2,66,1,88,_Guitar,6,3,watasino,0.9984879493713379,1
65,100,0.2,189,0,88,_Guitar,6,3,watasino,0.06335318833589554,0
53,100,0.37727272727272726,347,0,88,_Guitar,6,6,watasino,0.05828758329153061,0
65,100,0.1409090909090909,430,0,88,_Guitar,6,2,watasino,0.06136108934879303,0
65,100,0.3,637,0,88,_Guitar,6,5,watasino,0.07167935371398926,0
60,100,0.21818181818181817,703,0,88,_Guitar,6,3,watasino,0.08473304659128189,0
53,100,0.11818181818181818,766,0,88,_Guitar,6,2,watasino,0.1263454556465149,0
60,100,0.17727272727272728,40,1,89,_Guitar,6,3,watasino,0.9986506104469299,1
65,100,0.4,92,0,89,_Guitar,6,6,watasino,0.08797796815633774,0
60,100,0.4772727272727273,193,0,89,_Guitar,6,8,watasino,0.09298227727413177,0
58,100,0.1590909090909091,303,0,89,_Guitar,6,3,watasino,0.10994502902030945,0
60,100,0.2409090909090909,409,0,89,_Guitar,6,4,watasino,0.12866604328155518,0
64,100,0.11818181818181818,677,1,89,_Guitar,6,2,watasino,0.1822148859500885,0
65,100,0.22272727272727272,56,1,90,_Guitar,6,4,watasino,0.9983004927635193,1
53,100,0.5,294,1,90,_Guitar,6,8,watasino,0.04466146603226662,0
65,100,0.3181818181818182,404,0,90,_Guitar,6,5,watasino,0.0333714634180069,0
65,100,0.2409090909090909,483,0,90,_Guitar,6,4,watasino,0.02694760449230671,0
77,100,0.11818181818181818,550,0,90,_Guitar,6,2,watasino,0.02408294379711151,0
60,100,0.2409090909090909,593,0,90,_Guitar,6,4,watasino,0.02497248910367489,0
60,100,0.1,686,0,90,_Guitar,6,2,watasino,0.030646592378616333,0
55,100,0.2,743,0,90,_Guitar,6,3,watasino,0.04136661812663078,0
60,100,0.18181818181818182,813,0,90,_Guitar,6,3,watasino,0.07206691056489944,0
84,100,0.2409090909090909,9,1,91,_Guitar,6,4,watasino,0.9983735084533691,1
60,100,0.42272727272727273,113,0,91,_Guitar,6,7,watasino,0.05104948952794075,0
77,100,0.21818181818181817,220,0,91,_Guitar,6,3,watasino,0.04161132127046585,0
55,100,0.2818181818181818,276,0,91,_Guitar,6,5,watasino,0.03797909617424011,0
58,100,0.2590909090909091,360,0,91,_Guitar,6,4,watasino,0.03925878927111626,0
81,100,0.1,426,0,91,_Guitar,6,2,watasino,0.04616419970989227,0
65,100,0.2409090909090909,650,0,91,_Guitar,6,4,watasino,0.057129867374897,0
76,100,0.2636363636363636,752,0,91,_Guitar,6,4,watasino,0.0918784961104393,0
72,100,0.17727272727272728,106,1,92,_Guitar,6,3,watasino,0.9982556700706482,1
72,100,0.3,229,0,92,_Guitar,6,5,watasino,0.04129231348633766,0
53,100,0.1590909090909091,409,0,92,_Guitar,6,3,watasino,0.029124541208148003,0
77,100,0.1590909090909091,457,0,92,_Guitar,6,3,watasino,0.02156919613480568,0
81,100,0.1,553,0,92,_Guitar,6,2,watasino,0.017058776691555977,0
60,100,0.1409090909090909,616,0,92,_Guitar,6,2,watasino,0.015268010087311268,0
79,100,0.16363636363636364,663,0,92,_Guitar,6,3,watasino,0.016455646604299545,0
84,100,0.1590909090909091,716,0,92,_Guitar,6,3,watasino,0.021836765110492706,0
53,100,0.38181818181818183,760,0,92,_Guitar,6,6,watasino,0.03251684829592705,0
65,100,0.2409090909090909,870,0,92,_Guitar,6,4,watasino,0.06091064214706421,0
77,100,0.2,69,1,93,_Guitar,6,3,watasino,0.9983004927635193,1
53,100,0.18181818181818182,136,0,93,_Guitar,6,3,watasino,0.044661302119493484,0
60,100,0.32272727272727275,179,0,93,_Guitar,6,5,watasino,0.03337140753865242,0
60,100,0.2409090909090909,267,0,93,_Guitar,6,4,watasino,0.026947254315018654,0
60,100,0.3181818181818182,396,0,93,_Guitar,6,5,watasino,0.024083547294139862,0
84,100,0.2,466,0,93,_Guitar,6,3,watasino,0.024972593411803246,0
60,100,0.6409090909090909,532,0,93,_Guitar,6,10,watasino,0.030646538361907005,0
60,100,0.1409090909090909,726,0,93,_Guitar,6,2,watasino,0.041368141770362854,0
55,100,0.21818181818181817,756,0,93,_Guitar,6,3,watasino,0.0720687285065651,0
60,100,0.11818181818181818,22,1,94,_Guitar,6,2,watasino,0.9983004927635193,1
58,100,0.4,113,0,94,_Guitar,6,6,watasino,0.044662173837423325,0
65,100,0.1409090909090909,210,0,94,_Guitar,6,2,watasino,0.03337176889181137,0
77,100,0.1,282,0,94,_Guitar,6,2,watasino,0.026947254315018654,0
76,100,0.1,356,0,94,_Guitar,6,2,watasino,0.02408408559858799,0
57,100,0.2,436,0,94,_Guitar,6,3,watasino,0.02497231401503086,0
57,100,0.13636363636363635,656,0,94,_Guitar,6,2,watasino,0.030647527426481247,0
72,100,0.2590909090909091,695,0,94,_Guitar,6,4,watasino,0.041369833052158356,0
76,100,0.1,844,0,94,_Guitar,6,2,watasino,0.07206924259662628,0
79,100,0.1,113,1,95,_Guitar,6,2,watasino,0.9983004927635193,1
81,100,0.1,140,0,95,_Guitar,6,2,watasino,0.044661376625299454,0
84,100,0.1590909090909091,294,0,95,_Guitar,6,3,watasino,0.03337100148200989,0
53,100,0.18181818181818182,462,0,95,_Guitar,6,3,watasino,0.02694724127650261,0
77,100,0.21818181818181817,536,0,95,_Guitar,6,3,watasino,0.024082932621240616,0
53,100,0.22272727272727272,585,0,95,_Guitar,6,4,watasino,0.024971570819616318,0
60,100,0.21818181818181817,660,0,95,_Guitar,6,3,watasino,0.030646804720163345,0
86,100,0.12272727272727273,752,0,95,_Guitar,6,2,watasino,0.04136628657579422,0
60,100,0.6181818181818182,787,0,95,_Guitar,6,10,watasino,0.07206819206476212,0
84,100,0.2636363636363636,47,1,96,_Guitar,6,4,watasino,0.9984879493713379,1
81,100,0.2,106,0,96,_Guitar,6,3,watasino,0.06335368007421494,0
60,100,0.4,172,0,96,_Guitar,6,6,watasino,0.05829060077667236,0
76,100,0.12272727272727273,343,0,96,_Guitar,6,2,watasino,0.06136361137032509,0
53,100,0.12272727272727273,409,0,96,_Guitar,6,2,watasino,0.07168526202440262,0
65,100,0.2409090909090909,449,0,96,_Guitar,6,4,watasino,0.08473973721265793,0
57,100,1.5818181818181818,673,0,96,_Guitar,6,15,watasino,0.12634998559951782,0
53,100,0.5590909090909091,343,1,97,_Guitar,6,9,watasino,0.9983231425285339,1
57,100,0.2409090909090909,739,1,97,_Guitar,6,4,watasino,0.5462177991867065,1
57,100,0.33636363636363636,347,1,98,_Guitar,6,5,watasino,0.9792237281799316,1
62,100,0.16363636363636364,487,1,1,_Remix_Guitar,6,3, (Remix) Stems,0.9983232617378235,1
60,100,0.1,801,1,1,_Remix_Guitar,6,2, (Remix) Stems,0.5462237596511841,1
60,100,0.12272727272727273,122,1,2,_Remix_Guitar,6,2, (Remix) Stems,0.9983232617378235,1
55,100,0.1409090909090909,616,1,2,_Remix_Guitar,6,2, (Remix) Stems,0.5462077260017395,1
56,100,0.21818181818181817,229,1,3,_Remix_Guitar,6,3, (Remix) Stems,0.9990280866622925,1
56,100,0.1409090909090909,364,0,3,_Remix_Guitar,6,2, (Remix) Stems,0.370344877243042,0
63,100,0.2409090909090909,730,1,3,_Remix_Guitar,6,4, (Remix) Stems,0.4561639130115509,0
62,100,0.17727272727272728,118,1,6,_Remix_Guitar,6,3, (Remix) Stems,0.9983231425285339,1
63,100,0.11818181818181818,747,1,6,_Remix_Guitar,6,2, (Remix) Stems,0.5462250113487244,1
56,100,0.22272727272727272,25,1,7,_Remix_Guitar,6,4, (Remix) Stems,0.979223370552063,1
62,100,0.1409090909090909,374,1,8,_Remix_Guitar,6,2, (Remix) Stems,0.9983232617378235,1
63,100,0.1,761,1,8,_Remix_Guitar,6,2, (Remix) Stems,0.5462215542793274,1
56,100,0.13636363636363635,171,1,9,_Remix_Guitar,6,2, (Remix) Stems,0.9990280866622925,1
56,100,0.12272727272727273,290,0,9,_Remix_Guitar,6,2, (Remix) Stems,0.370342493057251,0
56,100,0.12272727272727273,804,1,9,_Remix_Guitar,6,2, (Remix) Stems,0.45616430044174194,0
56,100,0.1409090909090909,175,1,10,_Remix_Guitar,6,2, (Remix) Stems,0.9983231425285339,1
63,100,0.5818181818181818,792,1,10,_Remix_Guitar,6,9, (Remix) Stems,0.5462135672569275,1
65,100,0.17727272727272728,118,1,11,_Remix_Guitar,6,3, (Remix) Stems,0.9984879493713379,1
67,100,0.2590909090909091,163,0,11,_Remix_Guitar,6,4, (Remix) Stems,0.06335317343473434,0
70,100,0.3409090909090909,285,0,11,_Remix_Guitar,6,5, (Remix) Stems,0.058289460837841034,0
67,100,0.2409090909090909,360,0,11,_Remix_Guitar,6,4, (Remix) Stems,0.06136036664247513,0
56,100,0.2409090909090909,426,0,11,_Remix_Guitar,6,4, (Remix) Stems,0.07168088108301163,0
65,100,0.2818181818181818,795,1,11,_Remix_Guitar,6,5, (Remix) Stems,0.08473070710897446,0
67,100,0.2409090909090909,862,0,11,_Remix_Guitar,6,4, (Remix) Stems,0.12634843587875366,0
70,100,0.1,79,1,12,_Remix_Guitar,6,2, (Remix) Stems,0.9982110261917114,1
70,100,0.1590909090909091,175,0,12,_Remix_Guitar,6,3, (Remix) Stems,0.03828305006027222,0
67,100,0.17727272727272728,237,0,12,_Remix_Guitar,6,3, (Remix) Stems,0.025583455339074135,0
65,100,0.33636363636363636,281,0,12,_Remix_Guitar,6,5, (Remix) Stems,0.01735786721110344,0
63,100,0.2,360,0,12,_Remix_Guitar,6,3, (Remix) Stems,0.011908242478966713,0
60,100,0.21818181818181817,414,0,12,_Remix_Guitar,6,3, (Remix) Stems,0.00864390004426241,0
58,100,0.1,501,0,12,_Remix_Guitar,6,2, (Remix) Stems,0.007122731301933527,0
60,100,0.36363636363636365,532,0,12,_Remix_Guitar,6,6, (Remix) Stems,0.007161981891840696,0
63,100,0.1409090909090909,620,0,12,_Remix_Guitar,6,2, (Remix) Stems,0.009123412892222404,0
65,100,0.3,660,0,12,_Remix_Guitar,6,5, (Remix) Stems,0.014322865754365921,0
67,100,0.3181818181818182,787,0,12,_Remix_Guitar,6,5, (Remix) Stems,0.024766668677330017,0
53,100,0.1,876,0,12,_Remix_Guitar,6,2, (Remix) Stems,0.05090152099728584,0
65,100,0.38181818181818183,22,1,13,_Remix_Guitar,6,6, (Remix) Stems,0.9982556700706482,1
63,100,0.1,135,0,13,_Remix_Guitar,6,2, (Remix) Stems,0.04129274934530258,0
63,100,0.41818181818181815,185,0,13,_Remix_Guitar,6,7, (Remix) Stems,0.029125068336725235,0
63,100,0.3181818181818182,281,0,13,_Remix_Guitar,6,5, (Remix) Stems,0.021569225937128067,0
65,100,0.12272727272727273,355,0,13,_Remix_Guitar,6,2, (Remix) Stems,0.017059113830327988,0
55,100,0.1,505,0,13,_Remix_Guitar,6,2, (Remix) Stems,0.015268196351826191,0
70,100,0.3,532,0,13,_Remix_Guitar,6,5, (Remix) Stems,0.016455968841910362,0
67,100,0.2,615,0,13,_Remix_Guitar,6,3, (Remix) Stems,0.021837132051587105,0
56,100,0.3409090909090909,663,0,13,_Remix_Guitar,6,5, (Remix) Stems,0.032516490668058395,0
72,100,0.2590909090909091,787,0,13,_Remix_Guitar,6,4, (Remix) Stems,0.06091385707259178,0
70,100,0.2772727272727273,30,1,14,_Remix_Guitar,6,4, (Remix) Stems,0.9983004927635193,1
65,100,0.3,163,0,14,_Remix_Guitar,6,5, (Remix) Stems,0.04466131329536438,0
63,100,0.22272727272727272,233,0,14,_Remix_Guitar,6,4, (Remix) Stems,0.03337175399065018,0
65,100,0.3,295,0,14,_Remix_Guitar,6,5, (Remix) Stems,0.02694757841527462,0
65,100,0.12272727272727273,400,0,14,_Remix_Guitar,6,2, (Remix) Stems,0.02408383972942829,0
67,100,0.18181818181818182,488,0,14,_Remix_Guitar,6,3, (Remix) Stems,0.02497239224612713,0
67,100,0.1409090909090909,550,0,14,_Remix_Guitar,6,2, (Remix) Stems,0.030646495521068573,0
65,100,0.3409090909090909,660,0,14,_Remix_Guitar,6,5, (Remix) Stems,0.04136807844042778,0
65,100,0.2772727272727273,744,0,14,_Remix_Guitar,6,4, (Remix) Stems,0.07206834852695465,0
58,100,0.22272727272727272,233,1,16,_Remix_Guitar,6,4, (Remix) Stems,0.9792240262031555,1
58,100,0.18181818181818182,233,1,19,_Remix_Guitar,6,3, (Remix) Stems,0.9792240262031555,1
56,100,0.16363636363636364,158,1,20,_Remix_Guitar,6,3, (Remix) Stems,0.9990280866622925,1
56,100,0.1590909090909091,364,0,20,_Remix_Guitar,6,3, (Remix) Stems,0.37033364176750183,0
58,100,0.1409090909090909,870,1,20,_Remix_Guitar,6,2, (Remix) Stems,0.4561699628829956,0
58,100,0.1409090909090909,113,1,21,_Remix_Guitar,6,2, (Remix) Stems,0.9792246222496033,1
56,100,0.2409090909090909,474,1,22,_Remix_Guitar,6,4, (Remix) Stems,0.979223370552063,1
58,100,0.1590909090909091,229,1,23,_Remix_Guitar,6,3, (Remix) Stems,0.9792241454124451,1
56,100,0.1590909090909091,656,1,24,_Remix_Guitar,6,3, (Remix) Stems,0.9983232617378235,1
56,100,0.13636363636363635,876,0,24,_Remix_Guitar,6,2, (Remix) Stems,0.5462111830711365,1
63,100,0.42272727272727273,387,1,25,_Remix_Guitar,6,7, (Remix) Stems,0.9990280866622925,1
55,100,0.2772727272727273,721,1,25,_Remix_Guitar,6,4, (Remix) Stems,0.3703525960445404,0
67,100,0.38181818181818183,804,0,25,_Remix_Guitar,6,6, (Remix) Stems,0.4561689794063568,0
67,100,0.17727272727272728,40,1,26,_Remix_Guitar,6,3, (Remix) Stems,0.9988439083099365,1
58,100,0.2409090909090909,167,0,26,_Remix_Guitar,6,4, (Remix) Stems,0.13798092305660248,0
63,100,0.35909090909090907,370,0,26,_Remix_Guitar,6,6, (Remix) Stems,0.16236425936222076,0
63,100,0.2818181818181818,461,0,26,_Remix_Guitar,6,5, (Remix) Stems,0.19105517864227295,0
53,100,0.2409090909090909,791,1,26,_Remix_Guitar,6,4, (Remix) Stems,0.2619667053222656,0
56,100,0.1590909090909091,79,1,27,_Remix_Guitar,6,3, (Remix) Stems,0.9990094900131226,1
63,100,0.2409090909090909,198,0,27,_Remix_Guitar,6,4, (Remix) Stems,0.23323164880275726,0
63,100,0.12272727272727273,254,0,27,_Remix_Guitar,6,2, (Remix) Stems,0.2705830931663513,0
58,100,0.11818181818181818,735,1,27,_Remix_Guitar,6,2, (Remix) Stems,0.3579345643520355,0
67,100,0.5590909090909091,34,1,28,_Remix_Guitar,6,9, (Remix) Stems,0.9986507296562195,1
67,100,0.18181818181818182,202,0,28,_Remix_Guitar,6,3, (Remix) Stems,0.08798060566186905,0
67,100,0.1409090909090909,272,0,28,_Remix_Guitar,6,2, (Remix) Stems,0.09298470616340637,0
67,100,0.2772727272727273,347,0,28,_Remix_Guitar,6,4, (Remix) Stems,0.10994698852300644,0
67,100,0.3,453,0,28,_Remix_Guitar,6,5, (Remix) Stems,0.12866844236850739,0
67,100,0.5772727272727273,536,0,28,_Remix_Guitar,6,9, (Remix) Stems,0.18221060931682587,0
58,100,0.35909090909090907,57,1,29,_Remix_Guitar,6,6, (Remix) Stems,0.9990280866622925,1
58,100,0.11818181818181818,625,1,29,_Remix_Guitar,6,2, (Remix) Stems,0.3703436851501465,0
53,100,0.2,770,0,29,_Remix_Guitar,6,3, (Remix) Stems,0.45616278052330017,0
58,100,0.1409090909090909,119,1,30,_Remix_Guitar,6,2, (Remix) Stems,0.9986506104469299,1
67,100,0.8636363636363636,289,0,30,_Remix_Guitar,6,14, (Remix) Stems,0.08797670900821686,0
53,100,0.1590909090909091,484,0,30,_Remix_Guitar,6,3, (Remix) Stems,0.09298218041658401,0
67,100,0.2590909090909091,536,0,30,_Remix_Guitar,6,4, (Remix) Stems,0.10994729399681091,0
53,100,0.12272727272727273,598,0,30,_Remix_Guitar,6,2, (Remix) Stems,0.12866875529289246,0
63,100,0.8227272727272728,796,0,30,_Remix_Guitar,6,13, (Remix) Stems,0.18220926821231842,0
63,100,0.1,210,1,31,_Remix_Guitar,6,2, (Remix) Stems,0.9984880685806274,1
63,100,0.2409090909090909,295,0,31,_Remix_Guitar,6,4, (Remix) Stems,0.0633520632982254,0
53,100,0.5409090909090909,418,0,31,_Remix_Guitar,6,9, (Remix) Stems,0.058289751410484314,0
53,100,0.2590909090909091,611,0,31,_Remix_Guitar,6,4, (Remix) Stems,0.06136132776737213,0
53,100,0.16363636363636364,818,0,31,_Remix_Guitar,6,3, (Remix) Stems,0.07168353348970413,0
54,100,0.1,853,0,31,_Remix_Guitar,6,2, (Remix) Stems,0.08473826944828033,0
53,100,0.43636363636363634,876,0,31,_Remix_Guitar,6,7, (Remix) Stems,0.1263515055179596,0
63,100,0.18181818181818182,188,1,32,_Remix_Guitar,6,3, (Remix) Stems,0.9990280866622925,1
52,100,0.1409090909090909,421,1,32,_Remix_Guitar,6,2, (Remix) Stems,0.37035003304481506,0
62,100,1.5772727272727274,568,0,32,_Remix_Guitar,6,15, (Remix) Stems,0.45617353916168213,0
62,100,0.5409090909090909,69,1,33,_Remix_Guitar,6,9, (Remix) Stems,0.9990280866622925,1
62,100,1.1227272727272728,233,0,33,_Remix_Guitar,6,15, (Remix) Stems,0.3703482151031494,0
53,100,0.1409090909090909,619,1,33,_Remix_Guitar,6,2, (Remix) Stems,0.45617759227752686,0
53,100,0.21818181818181817,493,1,34,_Remix_Guitar,6,3, (Remix) Stems,0.9983231425285339,1
56,100,0.1409090909090909,646,0,34,_Remix_Guitar,6,2, (Remix) Stems,0.546207845211029,1
53,100,0.2,611,1,35,_Remix_Guitar,6,3, (Remix) Stems,0.9983231425285339,1
62,100,0.12272727272727273,818,0,35,_Remix_Guitar,6,2, (Remix) Stems,0.5462199449539185,1
55,100,0.1,56,1,36,_Remix_Guitar,6,2, (Remix) Stems,0.9990280866622925,1
55,100,0.18181818181818182,298,1,36,_Remix_Guitar,6,3, (Remix) Stems,0.3703348934650421,0
58,100,0.3181818181818182,660,1,36,_Remix_Guitar,6,5, (Remix) Stems,0.4561659097671509,0
56,100,0.2409090909090909,298,1,37,_Remix_Guitar,6,4, (Remix) Stems,0.9983231425285339,1
56,100,0.12272727272727273,378,0,37,_Remix_Guitar,6,2, (Remix) Stems,0.5462082624435425,1
53,100,0.1409090909090909,53,1,40,_Remix_Guitar,6,2, (Remix) Stems,0.9984880685806274,1
58,100,0.18181818181818182,224,0,40,_Remix_Guitar,6,3, (Remix) Stems,0.06335505098104477,0
58,100,0.1409090909090909,386,0,40,_Remix_Guitar,6,2, (Remix) Stems,0.0582905039191246,0
55,100,0.5181818181818182,550,0,40,_Remix_Guitar,6,8, (Remix) Stems,0.06136157363653183,0
58,100,0.1,703,0,40,_Remix_Guitar,6,2, (Remix) Stems,0.07168494164943695,0
55,100,0.2818181818181818,748,0,40,_Remix_Guitar,6,5, (Remix) Stems,0.08473407477140427,0
58,100,0.21818181818181817,858,0,40,_Remix_Guitar,6,3, (Remix) Stems,0.12634986639022827,0
58,100,0.2,224,1,41,_Remix_Guitar,6,3, (Remix) Stems,0.9990280866622925,1
63,100,0.2818181818181818,408,0,41,_Remix_Guitar,6,5, (Remix) Stems,0.3703431189060211,0
53,100,0.4,664,1,41,_Remix_Guitar,6,6, (Remix) Stems,0.4561760127544403,0
58,100,0.2,678,1,42,_Remix_Guitar,6,3, (Remix) Stems,0.9983232617378235,1
58,100,0.13636363636363635,743,0,42,_Remix_Guitar,6,2, (Remix) Stems,0.5462172031402588,1
62,100,0.13636363636363635,303,1,43,_Remix_Guitar,6,2, (Remix) Stems,0.9983231425285339,1
53,100,0.1409090909090909,625,1,43,_Remix_Guitar,6,2, (Remix) Stems,0.5462194085121155,1
56,100,0.11818181818181818,373,1,46,_Remix_Guitar,6,2, (Remix) Stems,0.9983232617378235,1
53,100,0.12272727272727273,783,1,46,_Remix_Guitar,6,2, (Remix) Stems,0.5462120175361633,1
55,100,0.1590909090909091,536,1,47,_Remix_Guitar,6,3, (Remix) Stems,0.9983232617378235,1
55,100,0.18181818181818182,576,0,47,_Remix_Guitar,6,3, (Remix) Stems,0.5462173223495483,1
56,100,0.2590909090909091,558,1,48,_Remix_Guitar,6,4, (Remix) Stems,0.9983231425285339,1
56,100,0.3,721,0,48,_Remix_Guitar,6,5, (Remix) Stems,0.5462166666984558,1
53,100,0.5,796,1,50,_Remix_Guitar,6,8, (Remix) Stems,0.9792234897613525,1
56,100,0.5636363636363636,179,1,52,_Remix_Guitar,6,9, (Remix) Stems,0.9792236089706421,1
56,100,0.11818181818181818,263,1,53,_Remix_Guitar,6,2, (Remix) Stems,0.9983232617378235,1
58,100,0.2,823,1,53,_Remix_Guitar,6,3, (Remix) Stems,0.5462186932563782,1
58,100,0.18181818181818182,0,1,54,_Remix_Guitar,6,3, (Remix) Stems,0.9988439083099365,1
53,100,0.18181818181818182,91,0,54,_Remix_Guitar,6,3, (Remix) Stems,0.13798412680625916,0
55,100,0.32272727272727275,289,0,54,_Remix_Guitar,6,5, (Remix) Stems,0.1623672991991043,0
55,100,0.11818181818181818,506,0,54,_Remix_Guitar,6,2, (Remix) Stems,0.19105656445026398,0
55,100,0.2772727272727273,668,0,54,_Remix_Guitar,6,4, (Remix) Stems,0.2619546949863434,0
63,100,0.21818181818181817,96,1,55,_Remix_Guitar,6,3, (Remix) Stems,0.9990094900131226,1
53,100,0.4772727272727273,426,1,55,_Remix_Guitar,6,8, (Remix) Stems,0.2332356572151184,0
53,100,0.3409090909090909,584,0,55,_Remix_Guitar,6,5, (Remix) Stems,0.2705875635147095,0
53,100,0.12272727272727273,826,1,55,_Remix_Guitar,6,2, (Remix) Stems,0.357932448387146,0
53,100,0.2409090909090909,26,1,56,_Remix_Guitar,6,4, (Remix) Stems,0.9990094900131226,1
65,100,0.11818181818181818,88,0,56,_Remix_Guitar,6,2, (Remix) Stems,0.23323063552379608,0
53,100,0.1409090909090909,311,0,56,_Remix_Guitar,6,2, (Remix) Stems,0.27058035135269165,0
63,100,0.2409090909090909,729,1,56,_Remix_Guitar,6,4, (Remix) Stems,0.35792845487594604,0
53,100,0.11818181818181818,286,1,58,_Remix_Guitar,6,2, (Remix) Stems,0.9983231425285339,1
58,100,0.11818181818181818,853,1,58,_Remix_Guitar,6,2, (Remix) Stems,0.5462206602096558,1
55,100,0.2772727272727273,105,1,59,_Remix_Guitar,6,4, (Remix) Stems,0.9792242646217346,1
53,100,0.4590909090909091,166,1,60,_Remix_Guitar,6,7, (Remix) Stems,0.9983232617378235,1
53,100,0.1409090909090909,364,0,60,_Remix_Guitar,6,2, (Remix) Stems,0.5462136268615723,1
53,100,0.1409090909090909,110,1,61,_Remix_Guitar,6,2, (Remix) Stems,0.9990280866622925,1
53,100,0.33636363636363636,171,0,61,_Remix_Guitar,6,5, (Remix) Stems,0.3703399896621704,0
63,100,0.1409090909090909,703,1,61,_Remix_Guitar,6,2, (Remix) Stems,0.45616352558135986,0
53,100,0.3,163,1,62,_Remix_Guitar,6,5, (Remix) Stems,0.9990094900131226,1
53,100,0.2,289,0,62,_Remix_Guitar,6,3, (Remix) Stems,0.2332252413034439,0
53,100,0.13636363636363635,435,0,62,_Remix_Guitar,6,2, (Remix) Stems,0.2705754339694977,0
53,100,0.22272727272727272,584,0,62,_Remix_Guitar,6,4, (Remix) Stems,0.3579231798648834,0
63,100,0.38181818181818183,694,1,63,_Remix_Guitar,6,6, (Remix) Stems,0.979223906993866,1
56,100,0.22272727272727272,540,1,64,_Remix_Guitar,6,4, (Remix) Stems,0.9792236089706421,1
56,100,0.1409090909090909,30,1,65,_Remix_Guitar,6,2, (Remix) Stems,0.9988440275192261,1
63,100,0.1,113,0,65,_Remix_Guitar,6,2, (Remix) Stems,0.1379900425672531,0
58,100,0.7227272727272728,356,1,65,_Remix_Guitar,6,12, (Remix) Stems,0.16237662732601166,0
56,100,0.8,536,0,65,_Remix_Guitar,6,13, (Remix) Stems,0.19106721878051758,0
56,100,0.4,783,1,65,_Remix_Guitar,6,6, (Remix) Stems,0.2619627118110657,0
63,100,0.1409090909090909,66,1,66,_Remix_Guitar,6,2, (Remix) Stems,0.9983231425285339,1
56,100,0.2409090909090909,157,0,66,_Remix_Guitar,6,4, (Remix) Stems,0.5462200045585632,1
63,100,0.1,100,1,67,_Remix_Guitar,6,2, (Remix) Stems,0.9990280866622925,1
63,100,0.2409090909090909,136,0,67,_Remix_Guitar,6,4, (Remix) Stems,0.37034231424331665,0
58,100,0.1409090909090909,273,0,67,_Remix_Guitar,6,2, (Remix) Stems,0.45618027448654175,0
58,100,0.35909090909090907,176,1,68,_Remix_Guitar,6,6, (Remix) Stems,0.9983231425285339,1
56,100,0.32272727272727275,430,1,68,_Remix_Guitar,6,5, (Remix) Stems,0.546213686466217,1
56,100,0.16363636363636364,157,1,69,_Remix_Guitar,6,3, (Remix) Stems,0.9990280866622925,1
60,100,0.2590909090909091,726,1,69,_Remix_Guitar,6,4, (Remix) Stems,0.37033775448799133,0
60,100,0.2409090909090909,796,0,69,_Remix_Guitar,6,4, (Remix) Stems,0.45617005228996277,0
60,100,0.12272727272727273,69,1,70,_Remix_Guitar,6,2, (Remix) Stems,0.9986506104469299,1
54,100,0.11818181818181818,119,0,70,_Remix_Guitar,6,2, (Remix) Stems,0.08798152953386307,0
60,100,0.1409090909090909,365,1,70,_Remix_Guitar,6,2, (Remix) Stems,0.09298799932003021,0
63,100,0.5,475,0,70,_Remix_Guitar,6,8, (Remix) Stems,0.10995382815599442,0
56,100,0.5227272727272727,663,0,70,_Remix_Guitar,6,8, (Remix) Stems,0.1286756694316864,0
56,100,0.18181818181818182,826,0,70,_Remix_Guitar,6,3, (Remix) Stems,0.1822224259376526,0
56,100,0.2409090909090909,475,1,71,_Remix_Guitar,6,4, (Remix) Stems,0.9983231425285339,1
63,100,0.22272727272727272,673,0,71,_Remix_Guitar,6,4, (Remix) Stems,0.5462175607681274,1
55,100,0.2,853,1,72,_Remix_Guitar,6,3, (Remix) Stems,0.9792243838310242,1
55,100,0.1409090909090909,113,1,73,_Remix_Guitar,6,2, (Remix) Stems,0.9990096092224121,1
63,100,0.18181818181818182,286,0,73,_Remix_Guitar,6,3, (Remix) Stems,0.2332392930984497,0
55,100,0.23636363636363636,546,1,73,_Remix_Guitar,6,4, (Remix) Stems,0.2705855965614319,0
56,100,0.11818181818181818,836,1,73,_Remix_Guitar,6,2, (Remix) Stems,0.3579227924346924,0
53,100,0.23636363636363636,502,1,74,_Remix_Guitar,6,4, (Remix) Stems,0.9983232617378235,1
60,100,0.1409090909090909,839,1,74,_Remix_Guitar,6,2, (Remix) Stems,0.5462185144424438,1
55,100,0.1,123,1,75,_Remix_Guitar,6,2, (Remix) Stems,0.9988439083099365,1
55,100,0.1409090909090909,299,0,75,_Remix_Guitar,6,2, (Remix) Stems,0.13798320293426514,0
63,100,0.23636363636363636,392,0,75,_Remix_Guitar,6,4, (Remix) Stems,0.16236302256584167,0
55,100,0.5,669,1,75,_Remix_Guitar,6,8, (Remix) Stems,0.1910591870546341,0
55,100,0.2590909090909091,800,0,75,_Remix_Guitar,6,4, (Remix) Stems,0.26196426153182983,0
60,100,0.1,250,1,76,_Remix_Guitar,6,2, (Remix) Stems,0.9990094900131226,1
63,100,0.1590909090909091,299,0,76,_Remix_Guitar,6,3, (Remix) Stems,0.2332308143377304,0
56,100,0.13636363636363635,743,1,76,_Remix_Guitar,6,2, (Remix) Stems,0.2705875039100647,0
63,100,0.2409090909090909,800,0,76,_Remix_Guitar,6,4, (Remix) Stems,0.35793209075927734,0
62,100,0.3,462,1,77,_Remix_Guitar,6,5, (Remix) Stems,0.9990280866622925,1
62,100,0.3,590,0,77,_Remix_Guitar,6,5, (Remix) Stems,0.37034714221954346,0
62,100,0.37727272727272726,690,0,77,_Remix_Guitar,6,6, (Remix) Stems,0.45617586374282837,0
62,100,0.21818181818181817,119,1,78,_Remix_Guitar,6,3, (Remix) Stems,0.9983232617378235,1
63,100,0.2409090909090909,470,1,78,_Remix_Guitar,6,4, (Remix) Stems,0.5462144017219543,1
63,100,0.2,96,1,79,_Remix_Guitar,6,3, (Remix) Stems,0.9983231425285339,1
63,100,0.21818181818181817,352,1,79,_Remix_Guitar,6,3, (Remix) Stems,0.5462210178375244,1
56,100,0.1,796,1,80,_Remix_Guitar,6,2, (Remix) Stems,0.9792236089706421,1
58,100,0.1409090909090909,286,1,81,_Remix_Guitar,6,2, (Remix) Stems,0.9983232617378235,1
58,100,0.1409090909090909,320,0,81,_Remix_Guitar,6,2, (Remix) Stems,0.5462208390235901,1
63,100,0.3409090909090909,330,1,82,_Remix_Guitar,6,5, (Remix) Stems,0.9792242646217346,1
62,100,0.22272727272727272,475,1,83,_Remix_Guitar,6,4, (Remix) Stems,0.9990094900131226,1
53,100,0.1409090909090909,619,0,83,_Remix_Guitar,6,2, (Remix) Stems,0.23323224484920502,0
62,100,0.2409090909090909,729,0,83,_Remix_Guitar,6,4, (Remix) Stems,0.27058738470077515,0
62,100,0.1409090909090909,817,0,83,_Remix_Guitar,6,2, (Remix) Stems,0.35793617367744446,0
63,100,0.3181818181818182,30,1,85,_Remix_Guitar,6,5, (Remix) Stems,0.9990280866622925,1
63,100,0.21818181818181817,294,1,85,_Remix_Guitar,6,3, (Remix) Stems,0.3703453540802002,0
63,100,0.3,347,0,85,_Remix_Guitar,6,5, (Remix) Stems,0.4561798870563507,0
62,100,0.11818181818181818,74,1,86,_Remix_Guitar,6,2, (Remix) Stems,0.9990094900131226,1
55,100,0.11818181818181818,237,0,86,_Remix_Guitar,6,2, (Remix) Stems,0.23324033617973328,0
55,100,0.22272727272727272,343,0,86,_Remix_Guitar,6,4, (Remix) Stems,0.27058666944503784,0
58,100,0.4,800,1,86,_Remix_Guitar,6,6, (Remix) Stems,0.357933908700943,0
63,100,0.16363636363636364,223,1,87,_Remix_Guitar,6,3, (Remix) Stems,0.9988439083099365,1
63,100,0.4590909090909091,303,0,87,_Remix_Guitar,6,7, (Remix) Stems,0.13798610866069794,0
56,100,0.11818181818181818,436,0,87,_Remix_Guitar,6,2, (Remix) Stems,0.16237422823905945,0
63,100,0.18181818181818182,686,1,87,_Remix_Guitar,6,3, (Remix) Stems,0.19106754660606384,0
63,100,0.38181818181818183,796,0,87,_Remix_Guitar,6,6, (Remix) Stems,0.2619803547859192,0
56,100,0.12272727272727273,35,1,88,_Remix_Guitar,6,2, (Remix) Stems,0.9983232617378235,1
56,100,0.2,83,0,88,_Remix_Guitar,6,3, (Remix) Stems,0.5462139248847961,1
53,100,0.2409090909090909,113,1,90,_Remix_Guitar,6,4, (Remix) Stems,0.9983232617378235,1
54,100,0.1,237,0,90,_Remix_Guitar,6,2, (Remix) Stems,0.546218991279602,1
63,100,0.11818181818181818,62,1,91,_Remix_Guitar,6,2, (Remix) Stems,0.9990280866622925,1
63,100,0.2409090909090909,163,0,91,_Remix_Guitar,6,4, (Remix) Stems,0.3703477680683136,0
63,100,0.2590909090909091,726,1,91,_Remix_Guitar,6,4, (Remix) Stems,0.4561826288700104,0
58,100,0.2,677,1,92,_Remix_Guitar,6,3, (Remix) Stems,0.9792241454124451,1
63,100,0.5409090909090909,157,1,93,_Remix_Guitar,6,9, (Remix) Stems,0.9983231425285339,1
56,100,0.1590909090909091,787,1,93,_Remix_Guitar,6,3, (Remix) Stems,0.5462225079536438,1
62,100,0.2590909090909091,559,1,94,_Remix_Guitar,6,4, (Remix) Stems,0.9983231425285339,1
55,100,0.18181818181818182,805,1,94,_Remix_Guitar,6,3, (Remix) Stems,0.5462213754653931,1
55,100,0.2,540,1,95,_Remix_Guitar,6,3, (Remix) Stems,0.9792242646217346,1
63,100,0.18181818181818182,110,1,96,_Remix_Guitar,6,3, (Remix) Stems,0.9990094900131226,1
63,100,0.11818181818181818,197,0,96,_Remix_Guitar,6,2, (Remix) Stems,0.2332330197095871,0
63,100,0.35909090909090907,263,0,96,_Remix_Guitar,6,6, (Remix) Stems,0.27058863639831543,0
55,100,0.1409090909090909,673,1,96,_Remix_Guitar,6,2, (Remix) Stems,0.3579372465610504,0
62,100,0.37727272727272726,193,1,97,_Remix_Guitar,6,6, (Remix) Stems,0.9990280866622925,1
62,100,1.0636363636363637,289,0,97,_Remix_Guitar,6,15, (Remix) Stems,0.3703444302082062,0
62,100,0.7772727272727272,800,1,97,_Remix_Guitar,6,12, (Remix) Stems,0.45618173480033875,0
53,100,0.1590909090909091,145,1,98,_Remix_Guitar,6,3, (Remix) Stems,0.9990094900131226,1
62,100,0.1590909090909091,193,0,98,_Remix_Guitar,6,3, (Remix) Stems,0.23323506116867065,0
62,100,1.9772727272727273,339,0,98,_Remix_Guitar,6,15, (Remix) Stems,0.27058079838752747,0
62,100,0.11818181818181818,779,1,98,_Remix_Guitar,6,2, (Remix) Stems,0.3579416573047638,0
62,100,0.1409090909090909,356,1,99,_Remix_Guitar,6,2, (Remix) Stems,0.9792236089706421,1
55,100,0.35909090909090907,540,1,100,_Remix_Guitar,6,6, (Remix) Stems,0.9792241454124451,1
55,100,0.3,157,1,101,_Remix_Guitar,6,5, (Remix) Stems,0.9792242646217346,1
63,100,0.1590909090909091,580,1,102,_Remix_Guitar,6,3, (Remix) Stems,0.9792238473892212,1
56,100,0.2590909090909091,163,1,104,_Remix_Guitar,6,4, (Remix) Stems,0.9983231425285339,1
63,100,0.3,320,0,104,_Remix_Guitar,6,5, (Remix) Stems,0.5462243556976318,1
53,100,0.36363636363636365,157,1,105,_Remix_Guitar,6,6, (Remix) Stems,0.9990280866622925,1
62,100,0.1,466,1,105,_Remix_Guitar,6,2, (Remix) Stems,0.3703448176383972,0
63,100,0.2409090909090909,739,1,105,_Remix_Guitar,6,4, (Remix) Stems,0.4561758041381836,0
60,100,0.17727272727272728,193,1,106,_Remix_Guitar,6,3, (Remix) Stems,0.9983232617378235,1
63,100,0.1,690,1,106,_Remix_Guitar,6,2, (Remix) Stems,0.5462062954902649,1
62,100,0.2,436,1,107,_Remix_Guitar,6,3, (Remix) Stems,0.9990280866622925,1
62,100,0.4,509,0,107,_Remix_Guitar,6,6, (Remix) Stems,0.3703470230102539,0
62,100,0.2590909090909091,695,0,107,_Remix_Guitar,6,4, (Remix) Stems,0.45618557929992676,0
62,100,0.4,13,1,108,_Remix_Guitar,6,6, (Remix) Stems,0.9990094900131226,1
62,100,0.17727272727272728,106,0,108,_Remix_Guitar,6,3, (Remix) Stems,0.2332342118024826,0
62,100,0.2,430,1,108,_Remix_Guitar,6,3, (Remix) Stems,0.27058759331703186,0
53,100,0.18181818181818182,862,1,108,_Remix_Guitar,6,3, (Remix) Stems,0.3579438030719757,0
53,100,0.11818181818181818,30,1,109,_Remix_Guitar,6,2, (Remix) Stems,0.9983231425285339,1
63,100,0.6,857,1,109,_Remix_Guitar,6,10, (Remix) Stems,0.5462122559547424,1
63,100,0.1,113,1,110,_Remix_Guitar,6,2, (Remix) Stems,0.9983232617378235,1
53,100,0.1,294,0,110,_Remix_Guitar,6,2, (Remix) Stems,0.5462185144424438,1
63,100,0.3409090909090909,496,1,111,_Remix_Guitar,6,5, (Remix) Stems,0.9983231425285339,1
63,100,0.1409090909090909,650,0,111,_Remix_Guitar,6,2, (Remix) Stems,0.5462252497673035,1
65,100,0.3,320,1,112,_Remix_Guitar,6,5, (Remix) Stems,0.9983232617378235,1
65,100,0.3409090909090909,399,0,112,_Remix_Guitar,6,5, (Remix) Stems,0.5462099313735962,1
58,100,0.2,686,1,113,_Remix_Guitar,6,3, (Remix) Stems,0.9983232617378235,1
82,100,0.5181818181818182,779,0,113,_Remix_Guitar,6,8, (Remix) Stems,0.546217679977417,1
53,100,0.3181818181818182,677,1,115,_Remix_Guitar,6,5, (Remix) Stems,0.9792237281799316,1
55,100,0.1590909090909091,62,1,116,_Remix_Guitar,6,3, (Remix) Stems,0.9990280866622925,1
55,100,0.1590909090909091,360,1,116,_Remix_Guitar,6,3, (Remix) Stems,0.3703344166278839,0
53,100,0.2,677,1,116,_Remix_Guitar,6,3, (Remix) Stems,0.45616936683654785,0
53,100,0.1590909090909091,426,1,117,_Remix_Guitar,6,3, (Remix) Stems,0.9792242646217346,1
53,100,0.11818181818181818,237,1,119,_Remix_Guitar,6,2, (Remix) Stems,0.9983232617378235,1
55,100,0.1,457,0,119,_Remix_Guitar,6,2, (Remix) Stems,0.5462180972099304,1
53,100,0.12272727272727273,210,1,121,_Remix_Guitar,6,2, (Remix) Stems,0.9792241454124451,1
53,100,0.1409090909090909,660,1,122,_Remix_Guitar,6,2, (Remix) Stems,0.9792237281799316,1
63,100,0.1,839,1,124,_Remix_Guitar,6,2, (Remix) Stems,0.9792234897613525,1
53,100,0.3,40,1,127,_Remix_Guitar,6,5, (Remix) Stems,0.9792232513427734,1
57,100,0.2,232,1,128,_Remix_Guitar,6,3, (Remix) Stems,0.9792242646217346,1
53,100,0.1409090909090909,295,1,129,_Remix_Guitar,6,2, (Remix) Stems,0.979223906993866,1
53,100,0.41818181818181815,413,1,130,_Remix_Guitar,6,7, (Remix) Stems,0.9990280866622925,1
53,100,0.1,682,1,130,_Remix_Guitar,6,2, (Remix) Stems,0.3703407645225525,0
53,100,0.38181818181818183,796,0,130,_Remix_Guitar,6,6, (Remix) Stems,0.4561660587787628,0
53,100,0.1590909090909091,238,1,131,_Remix_Guitar,6,3, (Remix) Stems,0.9792236089706421,1
60,100,0.1,228,1,135,_Remix_Guitar,6,2, (Remix) Stems,0.9792243838310242,1
53,100,0.1409090909090909,79,1,136,_Remix_Guitar,6,2, (Remix) Stems,0.9983231425285339,1
53,100,0.18181818181818182,180,0,136,_Remix_Guitar,6,3, (Remix) Stems,0.5462137460708618,1
60,100,0.1590909090909091,185,1,142,_Remix_Guitar,6,3, (Remix) Stems,0.9792241454124451,1
58,100,1.481818181818182,343,1,1,DL_MelancholicFolk_Guitar,6,15,hanamokatanamoMelancholicFolk,0.9983231425285339,1
58,100,2.7181818181818183,681,1,1,DL_MelancholicFolk_Guitar,6,15,hanamokatanamoMelancholicFolk,0.5462042689323425,1
70,100,0.21818181818181817,413,1,2,DL_MelancholicFolk_Guitar,6,3,hanamokatanamoMelancholicFolk,0.9990280866622925,1
58,100,1.2818181818181817,461,0,2,DL_MelancholicFolk_Guitar,6,15,hanamokatanamoMelancholicFolk,0.3703456223011017,0
53,100,0.7227272727272728,752,1,2,DL_MelancholicFolk_Guitar,6,12,hanamokatanamoMelancholicFolk,0.45616018772125244,0
60,100,0.8409090909090909,34,1,3,DL_MelancholicFolk_Guitar,6,13,hanamokatanamoMelancholicFolk,0.9990280866622925,1
60,100,2.6227272727272726,223,0,3,DL_MelancholicFolk_Guitar,6,15,hanamokatanamoMelancholicFolk,0.3703279495239258,0
60,100,0.2,827,1,3,DL_MelancholicFolk_Guitar,6,3,hanamokatanamoMelancholicFolk,0.45617422461509705,0
60,100,0.3181818181818182,194,1,4,DL_MelancholicFolk_Guitar,6,5,hanamokatanamoMelancholicFolk,0.9988439083099365,1
55,100,0.8227272727272728,276,0,4,DL_MelancholicFolk_Guitar,6,13,hanamokatanamoMelancholicFolk,0.13798056542873383,0
62,100,0.7,462,0,4,DL_MelancholicFolk_Guitar,6,11,hanamokatanamoMelancholicFolk,0.16236399114131927,0
65,100,0.1409090909090909,619,0,4,DL_MelancholicFolk_Guitar,6,2,hanamokatanamoMelancholicFolk,0.1910533607006073,0
62,100,0.21818181818181817,682,0,4,DL_MelancholicFolk_Guitar,6,3,hanamokatanamoMelancholicFolk,0.2619645297527313,0
65,100,0.12272727272727273,48,1,5,DL_MelancholicFolk_Guitar,6,2,hanamokatanamoMelancholicFolk,0.9983231425285339,1
62,100,0.5409090909090909,558,1,5,DL_MelancholicFolk_Guitar,6,9,hanamokatanamoMelancholicFolk,0.5462165474891663,1
58,100,0.11818181818181818,128,1,6,DL_MelancholicFolk_Guitar,6,2,hanamokatanamoMelancholicFolk,0.9983232617378235,1
58,100,0.2409090909090909,184,0,6,DL_MelancholicFolk_Guitar,6,4,hanamokatanamoMelancholicFolk,0.5462182760238647,1
58,100,0.1590909090909091,541,1,7,DL_MelancholicFolk_Guitar,6,3,hanamokatanamoMelancholicFolk,0.9792242646217346,1
53,100,0.8227272727272728,620,1,8,DL_MelancholicFolk_Guitar,6,13,hanamokatanamoMelancholicFolk,0.9792238473892212,1
60,100,0.8409090909090909,206,1,9,DL_MelancholicFolk_Guitar,6,13,hanamokatanamoMelancholicFolk,0.9792240262031555,1
60,100,0.4409090909090909,25,1,10,DL_MelancholicFolk_Guitar,6,7,hanamokatanamoMelancholicFolk,0.9792242646217346,1
58,100,0.1,56,1,13,DL_MelancholicFolk_Guitar,6,2,hanamokatanamoMelancholicFolk,0.9990094900131226,1
65,100,0.2409090909090909,409,1,13,DL_MelancholicFolk_Guitar,6,4,hanamokatanamoMelancholicFolk,0.2332254946231842,0
62,100,0.11818181818181818,831,1,13,DL_MelancholicFolk_Guitar,6,2,hanamokatanamoMelancholicFolk,0.2705816626548767,0
62,100,0.12272727272727273,862,0,13,DL_MelancholicFolk_Guitar,6,2,hanamokatanamoMelancholicFolk,0.35793760418891907,0
65,100,0.8590909090909091,166,1,14,DL_MelancholicFolk_Guitar,6,14,hanamokatanamoMelancholicFolk,0.9988439083099365,1
58,100,0.1409090909090909,355,0,14,DL_MelancholicFolk_Guitar,6,2,hanamokatanamoMelancholicFolk,0.1379796266555786,0
58,100,0.1,391,0,14,DL_MelancholicFolk_Guitar,6,2,hanamokatanamoMelancholicFolk,0.16235953569412231,0
65,100,0.1,465,0,14,DL_MelancholicFolk_Guitar,6,2,hanamokatanamoMelancholicFolk,0.19104984402656555,0
58,100,0.4636363636363636,795,1,14,DL_MelancholicFolk_Guitar,6,7,hanamokatanamoMelancholicFolk,0.26194900274276733,0
65,100,0.2,44,1,15,DL_MelancholicFolk_Guitar,6,3,hanamokatanamoMelancholicFolk,0.9990094900131226,1
58,100,0.7,106,0,15,DL_MelancholicFolk_Guitar,6,11,hanamokatanamoMelancholicFolk,0.2332368642091751,0
58,100,0.4818181818181818,422,1,15,DL_MelancholicFolk_Guitar,6,8,hanamokatanamoMelancholicFolk,0.2705874443054199,0
65,100,0.8409090909090909,716,1,15,DL_MelancholicFolk_Guitar,6,13,hanamokatanamoMelancholicFolk,0.35792097449302673,0
65,100,0.2,113,1,17,DL_MelancholicFolk_Guitar,6,3,hanamokatanamoMelancholicFolk,0.9983232617378235,1
65,100,0.18181818181818182,223,0,17,DL_MelancholicFolk_Guitar,6,3,hanamokatanamoMelancholicFolk,0.546212375164032,1
65,100,1.459090909090909,515,1,18,DL_MelancholicFolk_Guitar,6,15,hanamokatanamoMelancholicFolk,0.9792231321334839,1
58,100,0.6181818181818182,457,1,19,DL_MelancholicFolk_Guitar,6,10,hanamokatanamoMelancholicFolk,0.9990280866622925,1
53,100,0.8409090909090909,598,0,19,DL_MelancholicFolk_Guitar,6,13,hanamokatanamoMelancholicFolk,0.3703362047672272,0
53,100,0.18181818181818182,858,1,19,DL_MelancholicFolk_Guitar,6,3,hanamokatanamoMelancholicFolk,0.45616182684898376,0
65,100,0.12272727272727273,48,1,20,DL_MelancholicFolk_Guitar,6,2,hanamokatanamoMelancholicFolk,0.9990094900131226,1
53,100,0.4,75,0,20,DL_MelancholicFolk_Guitar,6,6,hanamokatanamoMelancholicFolk,0.23322995007038116,0
65,100,0.23636363636363636,171,0,20,DL_MelancholicFolk_Guitar,6,4,hanamokatanamoMelancholicFolk,0.27058425545692444,0
65,100,0.3409090909090909,691,1,20,DL_MelancholicFolk_Guitar,6,5,hanamokatanamoMelancholicFolk,0.35792744159698486,0
70,100,0.740909090909091,581,1,21,DL_MelancholicFolk_Guitar,6,12,hanamokatanamoMelancholicFolk,0.9792237281799316,1
58,100,0.35909090909090907,52,1,22,DL_MelancholicFolk_Guitar,6,6,hanamokatanamoMelancholicFolk,0.9986506104469299,1
65,100,0.8590909090909091,229,0,22,DL_MelancholicFolk_Guitar,6,14,hanamokatanamoMelancholicFolk,0.08797843009233475,0
63,100,0.12272727272727273,422,0,22,DL_MelancholicFolk_Guitar,6,2,hanamokatanamoMelancholicFolk,0.09298417717218399,0
53,100,0.3181818181818182,461,0,22,DL_MelancholicFolk_Guitar,6,5,hanamokatanamoMelancholicFolk,0.10994816571474075,0
53,100,0.1,540,0,22,DL_MelancholicFolk_Guitar,6,2,hanamokatanamoMelancholicFolk,0.12866969406604767,0
60,100,0.1,835,1,22,DL_MelancholicFolk_Guitar,6,2,hanamokatanamoMelancholicFolk,0.18221476674079895,0
65,100,0.33636363636363636,193,1,23,DL_MelancholicFolk_Guitar,6,5,hanamokatanamoMelancholicFolk,0.9988439083099365,1
55,100,0.6,370,0,23,DL_MelancholicFolk_Guitar,6,10,hanamokatanamoMelancholicFolk,0.13798610866069794,0
55,100,0.11818181818181818,546,0,23,DL_MelancholicFolk_Guitar,6,2,hanamokatanamoMelancholicFolk,0.16236454248428345,0
53,100,0.1590909090909091,625,0,23,DL_MelancholicFolk_Guitar,6,3,hanamokatanamoMelancholicFolk,0.19105814397335052,0
65,100,1.240909090909091,663,0,23,DL_MelancholicFolk_Guitar,6,15,hanamokatanamoMelancholicFolk,0.2619498074054718,0
53,100,0.1,65,1,24,DL_MelancholicFolk_Guitar,6,2,hanamokatanamoMelancholicFolk,0.9990280866622925,1
65,100,1.1,395,1,24,DL_MelancholicFolk_Guitar,6,15,hanamokatanamoMelancholicFolk,0.3703327476978302,0
65,100,0.21818181818181817,656,1,24,DL_MelancholicFolk_Guitar,6,3,hanamokatanamoMelancholicFolk,0.4561667740345001,0
58,100,0.2590909090909091,83,1,25,DL_MelancholicFolk_Guitar,6,4,hanamokatanamoMelancholicFolk,0.9990094900131226,1
65,100,0.43636363636363634,171,0,25,DL_MelancholicFolk_Guitar,6,7,hanamokatanamoMelancholicFolk,0.23322583734989166,0
53,100,0.2409090909090909,409,1,25,DL_MelancholicFolk_Guitar,6,4,hanamokatanamoMelancholicFolk,0.2705745995044708,0
60,100,0.2409090909090909,712,1,25,DL_MelancholicFolk_Guitar,6,4,hanamokatanamoMelancholicFolk,0.35792407393455505,0
69,100,0.2636363636363636,48,1,26,DL_MelancholicFolk_Guitar,6,4,hanamokatanamoMelancholicFolk,0.9984879493713379,1
53,100,0.2818181818181818,241,0,26,DL_MelancholicFolk_Guitar,6,5,hanamokatanamoMelancholicFolk,0.06335403025150299,0
53,100,0.35909090909090907,480,1,26,DL_MelancholicFolk_Guitar,6,6,hanamokatanamoMelancholicFolk,0.058289021253585815,0
58,100,0.5,590,0,26,DL_MelancholicFolk_Guitar,6,8,hanamokatanamoMelancholicFolk,0.06136038154363632,0
53,100,0.2818181818181818,729,0,26,DL_MelancholicFolk_Guitar,6,5,hanamokatanamoMelancholicFolk,0.07168151438236237,0
65,100,0.11818181818181818,791,0,26,DL_MelancholicFolk_Guitar,6,2,hanamokatanamoMelancholicFolk,0.08473145961761475,0
53,100,0.16363636363636364,818,0,26,DL_MelancholicFolk_Guitar,6,3,hanamokatanamoMelancholicFolk,0.12634776532649994,0
65,100,1.1409090909090909,88,1,28,DL_MelancholicFolk_Guitar,6,15,hanamokatanamoMelancholicFolk,0.9983231425285339,1
53,100,0.1409090909090909,339,1,28,DL_MelancholicFolk_Guitar,6,2,hanamokatanamoMelancholicFolk,0.5462181568145752,1
55,100,1.059090909090909,254,1,29,DL_MelancholicFolk_Guitar,6,15,hanamokatanamoMelancholicFolk,0.9990280866622925,1
58,100,0.5,523,1,29,DL_MelancholicFolk_Guitar,6,8,hanamokatanamoMelancholicFolk,0.3703397214412689,0
65,100,0.5,694,0,29,DL_MelancholicFolk_Guitar,6,8,hanamokatanamoMelancholicFolk,0.45617035031318665,0
65,100,0.17727272727272728,391,1,30,DL_MelancholicFolk_Guitar,6,3,hanamokatanamoMelancholicFolk,0.9990094900131226,1
53,100,0.18181818181818182,430,0,30,DL_MelancholicFolk_Guitar,6,3,hanamokatanamoMelancholicFolk,0.23322798311710358,0
65,100,0.1409090909090909,470,0,30,DL_MelancholicFolk_Guitar,6,2,hanamokatanamoMelancholicFolk,0.27057722210884094,0
53,100,0.2590909090909091,501,0,30,DL_MelancholicFolk_Guitar,6,4,hanamokatanamoMelancholicFolk,0.35792428255081177,0
58,100,0.6363636363636364,40,1,31,DL_MelancholicFolk_Guitar,6,10,hanamokatanamoMelancholicFolk,0.9988439083099365,1
65,100,0.1,254,0,31,DL_MelancholicFolk_Guitar,6,2,hanamokatanamoMelancholicFolk,0.1379786729812622,0
53,100,0.13636363636363635,303,0,31,DL_MelancholicFolk_Guitar,6,2,hanamokatanamoMelancholicFolk,0.16235652565956116,0
60,100,0.1590909090909091,791,1,31,DL_MelancholicFolk_Guitar,6,3,hanamokatanamoMelancholicFolk,0.1910538375377655,0
65,100,0.1,870,0,31,DL_MelancholicFolk_Guitar,6,2,hanamokatanamoMelancholicFolk,0.26196128129959106,0
65,100,0.22272727272727272,641,1,32,DL_MelancholicFolk_Guitar,6,4,hanamokatanamoMelancholicFolk,0.9990280866622925,1
58,100,0.1590909090909091,765,0,32,DL_MelancholicFolk_Guitar,6,3,hanamokatanamoMelancholicFolk,0.3703460097312927,0
55,100,1.1409090909090909,818,0,32,DL_MelancholicFolk_Guitar,6,15,hanamokatanamoMelancholicFolk,0.45616161823272705,0
53,100,0.11818181818181818,193,1,33,DL_MelancholicFolk_Guitar,6,2,hanamokatanamoMelancholicFolk,0.9990094900131226,1
53,100,0.1409090909090909,361,0,33,DL_MelancholicFolk_Guitar,6,2,hanamokatanamoMelancholicFolk,0.23322342336177826,0
53,100,0.1409090909090909,453,0,33,DL_MelancholicFolk_Guitar,6,2,hanamokatanamoMelancholicFolk,0.2705775201320648,0
63,100,0.2772727272727273,765,1,33,DL_MelancholicFolk_Guitar,6,4,hanamokatanamoMelancholicFolk,0.3579234480857849,0
55,100,0.32272727272727275,48,1,34,DL_MelancholicFolk_Guitar,6,5,hanamokatanamoMelancholicFolk,0.9984879493713379,1
55,100,0.6,136,0,34,DL_MelancholicFolk_Guitar,6,10,hanamokatanamoMelancholicFolk,0.06335309892892838,0
62,100,0.4818181818181818,298,0,34,DL_MelancholicFolk_Guitar,6,8,hanamokatanamoMelancholicFolk,0.058289460837841034,0
60,100,0.6409090909090909,616,1,34,DL_MelancholicFolk_Guitar,6,10,hanamokatanamoMelancholicFolk,0.06136265769600868,0
53,100,0.1590909090909091,765,0,34,DL_MelancholicFolk_Guitar,6,3,hanamokatanamoMelancholicFolk,0.0716836228966713,0
65,100,0.17727272727272728,801,0,34,DL_MelancholicFolk_Guitar,6,3,hanamokatanamoMelancholicFolk,0.08473437279462814,0
53,100,0.2,861,0,34,DL_MelancholicFolk_Guitar,6,3,hanamokatanamoMelancholicFolk,0.126351997256279,0
65,100,0.6227272727272727,56,1,35,DL_MelancholicFolk_Guitar,6,10,hanamokatanamoMelancholicFolk,0.9986506104469299,1
65,100,0.1409090909090909,211,0,35,DL_MelancholicFolk_Guitar,6,2,hanamokatanamoMelancholicFolk,0.08797827363014221,0
65,100,0.6818181818181818,378,0,35,DL_MelancholicFolk_Guitar,6,11,hanamokatanamoMelancholicFolk,0.0929814875125885,0
65,100,0.2,584,0,35,DL_MelancholicFolk_Guitar,6,3,hanamokatanamoMelancholicFolk,0.109949491918087,0
53,100,0.2409090909090909,628,0,35,DL_MelancholicFolk_Guitar,6,4,hanamokatanamoMelancholicFolk,0.12866869568824768,0
53,100,0.8363636363636363,765,0,35,DL_MelancholicFolk_Guitar,6,13,hanamokatanamoMelancholicFolk,0.18221363425254822,0
53,100,0.1590909090909091,118,1,36,DL_MelancholicFolk_Guitar,6,3,hanamokatanamoMelancholicFolk,0.9990280866622925,1
53,100,0.22272727272727272,311,0,36,DL_MelancholicFolk_Guitar,6,4,hanamokatanamoMelancholicFolk,0.37035050988197327,0
53,100,0.9409090909090909,474,0,36,DL_MelancholicFolk_Guitar,6,15,hanamokatanamoMelancholicFolk,0.4561634063720703,0
53,100,0.17727272727272728,523,1,37,DL_MelancholicFolk_Guitar,6,3,hanamokatanamoMelancholicFolk,0.9983231425285339,1
60,100,0.11818181818181818,611,0,37,DL_MelancholicFolk_Guitar,6,2,hanamokatanamoMelancholicFolk,0.5462213158607483,1
65,100,0.2,0,1,38,DL_MelancholicFolk_Guitar,6,3,hanamokatanamoMelancholicFolk,0.9984879493713379,1
58,100,0.4636363636363636,69,0,38,DL_MelancholicFolk_Guitar,6,7,hanamokatanamoMelancholicFolk,0.06335284560918808,0
65,100,0.18181818181818182,268,0,38,DL_MelancholicFolk_Guitar,6,3,hanamokatanamoMelancholicFolk,0.05828678980469704,0
65,100,0.3181818181818182,625,1,38,DL_MelancholicFolk_Guitar,6,5,hanamokatanamoMelancholicFolk,0.06135936081409454,0
65,100,0.2,756,0,38,DL_MelancholicFolk_Guitar,6,3,hanamokatanamoMelancholicFolk,0.07168024778366089,0
65,100,0.11818181818181818,813,0,38,DL_MelancholicFolk_Guitar,6,2,hanamokatanamoMelancholicFolk,0.08473185449838638,0
65,100,0.2,845,0,38,DL_MelancholicFolk_Guitar,6,3,hanamokatanamoMelancholicFolk,0.1263405680656433,0
65,100,1.518181818181818,53,1,39,DL_MelancholicFolk_Guitar,6,15,hanamokatanamoMelancholicFolk,0.9988439083099365,1
53,100,0.4,444,1,39,DL_MelancholicFolk_Guitar,6,6,hanamokatanamoMelancholicFolk,0.13798308372497559,0
65,100,0.4,531,0,39,DL_MelancholicFolk_Guitar,6,6,hanamokatanamoMelancholicFolk,0.1623615175485611,0
60,100,0.22272727272727272,694,0,39,DL_MelancholicFolk_Guitar,6,4,hanamokatanamoMelancholicFolk,0.19105881452560425,0
60,100,0.21818181818181817,748,0,39,DL_MelancholicFolk_Guitar,6,3,hanamokatanamoMelancholicFolk,0.2619619071483612,0
65,100,0.2,61,1,40,DL_MelancholicFolk_Guitar,6,3,hanamokatanamoMelancholicFolk,0.9988439083099365,1
65,100,0.11818181818181818,206,0,40,DL_MelancholicFolk_Guitar,6,2,hanamokatanamoMelancholicFolk,0.1379808932542801,0
53,100,0.22272727272727272,651,1,40,DL_MelancholicFolk_Guitar,6,4,hanamokatanamoMelancholicFolk,0.16236165165901184,0
65,100,0.37727272727272726,700,0,40,DL_MelancholicFolk_Guitar,6,6,hanamokatanamoMelancholicFolk,0.1910548210144043,0
55,100,1.3409090909090908,813,0,40,DL_MelancholicFolk_Guitar,6,15,hanamokatanamoMelancholicFolk,0.2619578540325165,0
58,100,0.7227272727272728,246,1,41,DL_MelancholicFolk_Guitar,6,12,hanamokatanamoMelancholicFolk,0.9990280866622925,1
58,100,0.4,550,1,41,DL_MelancholicFolk_Guitar,6,6,hanamokatanamoMelancholicFolk,0.3703371584415436,0
55,100,0.6590909090909091,735,0,41,DL_MelancholicFolk_Guitar,6,11,hanamokatanamoMelancholicFolk,0.4561651051044464,0
65,100,0.11818181818181818,131,1,42,DL_MelancholicFolk_Guitar,6,2,hanamokatanamoMelancholicFolk,0.9988439083099365,1
58,100,0.18181818181818182,179,0,42,DL_MelancholicFolk_Guitar,6,3,hanamokatanamoMelancholicFolk,0.13798360526561737,0
65,100,0.35909090909090907,228,0,42,DL_MelancholicFolk_Guitar,6,6,hanamokatanamoMelancholicFolk,0.16236227750778198,0
63,100,0.2818181818181818,334,0,42,DL_MelancholicFolk_Guitar,6,5,hanamokatanamoMelancholicFolk,0.19105470180511475,0
58,100,0.13636363636363635,545,0,42,DL_MelancholicFolk_Guitar,6,2,hanamokatanamoMelancholicFolk,0.2619679272174835,0
63,100,0.11818181818181818,241,1,43,DL_MelancholicFolk_Guitar,6,2,hanamokatanamoMelancholicFolk,0.9990094900131226,1
58,100,0.35909090909090907,581,1,43,DL_MelancholicFolk_Guitar,6,6,hanamokatanamoMelancholicFolk,0.2332351952791214,0
65,100,0.12272727272727273,694,0,43,DL_MelancholicFolk_Guitar,6,2,hanamokatanamoMelancholicFolk,0.27059316635131836,0
55,100,1.040909090909091,756,0,43,DL_MelancholicFolk_Guitar,6,15,hanamokatanamoMelancholicFolk,0.35792654752731323,0
55,100,0.4,364,1,44,DL_MelancholicFolk_Guitar,6,6,hanamokatanamoMelancholicFolk,0.9990280866622925,1
58,100,0.2409090909090909,606,1,44,DL_MelancholicFolk_Guitar,6,4,hanamokatanamoMelancholicFolk,0.3703402578830719,0
58,100,0.6181818181818182,836,0,44,DL_MelancholicFolk_Guitar,6,10,hanamokatanamoMelancholicFolk,0.4561620354652405,0
53,100,0.1590909090909091,101,1,45,DL_MelancholicFolk_Guitar,6,3,hanamokatanamoMelancholicFolk,0.9984879493713379,1
65,100,0.3,136,0,45,DL_MelancholicFolk_Guitar,6,5,hanamokatanamoMelancholicFolk,0.06335103511810303,0
58,100,0.1409090909090909,220,0,45,DL_MelancholicFolk_Guitar,6,2,hanamokatanamoMelancholicFolk,0.05828750506043434,0
65,100,0.740909090909091,298,0,45,DL_MelancholicFolk_Guitar,6,12,hanamokatanamoMelancholicFolk,0.06135779619216919,0
65,100,0.5227272727272727,466,0,45,DL_MelancholicFolk_Guitar,6,8,hanamokatanamoMelancholicFolk,0.07168010622262955,0
53,100,0.1590909090909091,584,0,45,DL_MelancholicFolk_Guitar,6,3,hanamokatanamoMelancholicFolk,0.0847320556640625,0
65,100,0.4818181818181818,628,0,45,DL_MelancholicFolk_Guitar,6,8,hanamokatanamoMelancholicFolk,0.12634478509426117,0
60,100,0.8772727272727273,8,1,46,DL_MelancholicFolk_Guitar,6,14,hanamokatanamoMelancholicFolk,0.9990280866622925,1
60,100,0.5818181818181818,373,1,46,DL_MelancholicFolk_Guitar,6,9,hanamokatanamoMelancholicFolk,0.37033993005752563,0
53,100,0.4,515,0,46,DL_MelancholicFolk_Guitar,6,6,hanamokatanamoMelancholicFolk,0.4561603367328644,0
58,100,0.12272727272727273,276,1,47,DL_MelancholicFolk_Guitar,6,2,hanamokatanamoMelancholicFolk,0.9983232617378235,1
65,100,0.16363636363636364,774,1,47,DL_MelancholicFolk_Guitar,6,3,hanamokatanamoMelancholicFolk,0.5462173223495483,1
58,100,0.6227272727272727,48,1,48,DL_MelancholicFolk_Guitar,6,10,hanamokatanamoMelancholicFolk,0.9986506104469299,1
53,100,0.4,188,0,48,DL_MelancholicFolk_Guitar,6,6,hanamokatanamoMelancholicFolk,0.08798030018806458,0
60,100,0.5,413,0,48,DL_MelancholicFolk_Guitar,6,8,hanamokatanamoMelancholicFolk,0.09298638999462128,0
53,100,0.2772727272727273,603,0,48,DL_MelancholicFolk_Guitar,6,4,hanamokatanamoMelancholicFolk,0.10994932800531387,0
53,100,0.2,668,0,48,DL_MelancholicFolk_Guitar,6,3,hanamokatanamoMelancholicFolk,0.12867261469364166,0
65,100,0.12272727272727273,716,0,48,DL_MelancholicFolk_Guitar,6,2,hanamokatanamoMelancholicFolk,0.1822185069322586,0
65,100,0.21818181818181817,40,1,49,DL_MelancholicFolk_Guitar,6,3,hanamokatanamoMelancholicFolk,0.9983735084533691,1
53,100,0.8181818181818182,96,0,49,DL_MelancholicFolk_Guitar,6,13,hanamokatanamoMelancholicFolk,0.05104810371994972,0
65,100,0.11818181818181818,281,0,49,DL_MelancholicFolk_Guitar,6,2,hanamokatanamoMelancholicFolk,0.04161173477768898,0
53,100,0.4409090909090909,351,0,49,DL_MelancholicFolk_Guitar,6,7,hanamokatanamoMelancholicFolk,0.03797808289527893,0
53,100,0.23636363636363636,458,0,49,DL_MelancholicFolk_Guitar,6,4,hanamokatanamoMelancholicFolk,0.03925873339176178,0
65,100,0.12272727272727273,509,0,49,DL_MelancholicFolk_Guitar,6,2,hanamokatanamoMelancholicFolk,0.04616319015622139,0
58,100,0.35909090909090907,651,0,49,DL_MelancholicFolk_Guitar,6,6,hanamokatanamoMelancholicFolk,0.05712856724858284,0
65,100,0.1409090909090909,791,0,49,DL_MelancholicFolk_Guitar,6,2,hanamokatanamoMelancholicFolk,0.0918726846575737,0
58,100,0.5409090909090909,716,1,50,DL_MelancholicFolk_Guitar,6,9,hanamokatanamoMelancholicFolk,0.9983231425285339,1
53,100,0.1409090909090909,858,0,50,DL_MelancholicFolk_Guitar,6,2,hanamokatanamoMelancholicFolk,0.5462137460708618,1
58,100,0.17727272727272728,8,1,51,DL_MelancholicFolk_Guitar,6,3,hanamokatanamoMelancholicFolk,0.9986506104469299,1
53,100,0.2,48,0,51,DL_MelancholicFolk_Guitar,6,3,hanamokatanamoMelancholicFolk,0.08797778189182281,0
58,100,0.11818181818181818,96,0,51,DL_MelancholicFolk_Guitar,6,2,hanamokatanamoMelancholicFolk,0.09298181533813477,0
53,100,0.21818181818181817,448,1,51,DL_MelancholicFolk_Guitar,6,3,hanamokatanamoMelancholicFolk,0.10994723439216614,0
53,100,0.17727272727272728,523,0,51,DL_MelancholicFolk_Guitar,6,3,hanamokatanamoMelancholicFolk,0.12866751849651337,0
53,100,0.35909090909090907,568,0,51,DL_MelancholicFolk_Guitar,6,6,hanamokatanamoMelancholicFolk,0.1822170615196228,0
62,100,0.1590909090909091,153,1,52,DL_MelancholicFolk_Guitar,6,3,hanamokatanamoMelancholicFolk,0.9990094900131226,1
60,100,0.12272727272727273,268,0,52,DL_MelancholicFolk_Guitar,6,2,hanamokatanamoMelancholicFolk,0.23323309421539307,0
62,100,0.18181818181818182,466,0,52,DL_MelancholicFolk_Guitar,6,3,hanamokatanamoMelancholicFolk,0.2705835700035095,0
60,100,0.5409090909090909,598,0,52,DL_MelancholicFolk_Guitar,6,9,hanamokatanamoMelancholicFolk,0.3579378128051758,0
65,100,0.21818181818181817,96,1,53,DL_MelancholicFolk_Guitar,6,3,hanamokatanamoMelancholicFolk,0.9986506104469299,1
53,100,0.18181818181818182,224,0,53,DL_MelancholicFolk_Guitar,6,3,hanamokatanamoMelancholicFolk,0.08797957003116608,0
65,100,0.1,263,0,53,DL_MelancholicFolk_Guitar,6,2,hanamokatanamoMelancholicFolk,0.09298277646303177,0
65,100,0.2,399,0,53,DL_MelancholicFolk_Guitar,6,3,hanamokatanamoMelancholicFolk,0.10994655638933182,0
65,100,0.21818181818181817,515,0,53,DL_MelancholicFolk_Guitar,6,3,hanamokatanamoMelancholicFolk,0.12866738438606262,0
65,100,0.8227272727272728,619,0,53,DL_MelancholicFolk_Guitar,6,13,hanamokatanamoMelancholicFolk,0.18220733106136322,0
65,100,0.2818181818181818,0,1,54,DL_MelancholicFolk_Guitar,6,5,hanamokatanamoMelancholicFolk,0.9983004927635193,1
53,100,0.16363636363636364,69,0,54,DL_MelancholicFolk_Guitar,6,3,hanamokatanamoMelancholicFolk,0.04466109350323677,0
65,100,0.21818181818181817,141,0,54,DL_MelancholicFolk_Guitar,6,3,hanamokatanamoMelancholicFolk,0.03337061032652855,0
53,100,0.7181818181818181,215,0,54,DL_MelancholicFolk_Guitar,6,11,hanamokatanamoMelancholicFolk,0.026946695521473885,0
53,100,0.37727272727272726,391,0,54,DL_MelancholicFolk_Guitar,6,6,hanamokatanamoMelancholicFolk,0.024082696065306664,0
53,100,0.2590909090909091,501,0,54,DL_MelancholicFolk_Guitar,6,4,hanamokatanamoMelancholicFolk,0.024971336126327515,0
60,100,0.1409090909090909,606,0,54,DL_MelancholicFolk_Guitar,6,2,hanamokatanamoMelancholicFolk,0.03064665012061596,0
55,100,0.1409090909090909,735,0,54,DL_MelancholicFolk_Guitar,6,2,hanamokatanamoMelancholicFolk,0.0413668267428875,0
65,100,0.11818181818181818,823,0,54,DL_MelancholicFolk_Guitar,6,2,hanamokatanamoMelancholicFolk,0.07206738740205765,0
65,100,0.6772727272727272,171,1,55,DL_MelancholicFolk_Guitar,6,11,hanamokatanamoMelancholicFolk,0.9990280866622925,1
55,100,0.2590909090909091,338,0,55,DL_MelancholicFolk_Guitar,6,4,hanamokatanamoMelancholicFolk,0.3703445494174957,0
55,100,0.21818181818181817,413,0,55,DL_MelancholicFolk_Guitar,6,3,hanamokatanamoMelancholicFolk,0.4561682641506195,0
53,100,0.17727272727272728,75,1,56,DL_MelancholicFolk_Guitar,6,3,hanamokatanamoMelancholicFolk,0.9986506104469299,1
58,100,0.2,114,0,56,DL_MelancholicFolk_Guitar,6,3,hanamokatanamoMelancholicFolk,0.08798125386238098,0
58,100,0.18181818181818182,179,0,56,DL_MelancholicFolk_Guitar,6,3,hanamokatanamoMelancholicFolk,0.09298406541347504,0
58,100,0.18181818181818182,483,1,56,DL_MelancholicFolk_Guitar,6,3,hanamokatanamoMelancholicFolk,0.10994988679885864,0
65,100,0.21818181818181817,616,0,56,DL_MelancholicFolk_Guitar,6,3,hanamokatanamoMelancholicFolk,0.12866754829883575,0
65,100,0.1409090909090909,845,0,56,DL_MelancholicFolk_Guitar,6,2,hanamokatanamoMelancholicFolk,0.18221691250801086,0
60,100,0.41818181818181815,8,1,57,DL_MelancholicFolk_Guitar,6,7,hanamokatanamoMelancholicFolk,0.9990094900131226,1
65,100,0.12272727272727273,334,1,57,DL_MelancholicFolk_Guitar,6,2,hanamokatanamoMelancholicFolk,0.2332245111465454,0
53,100,0.3,488,0,57,DL_MelancholicFolk_Guitar,6,5,hanamokatanamoMelancholicFolk,0.27057504653930664,0
60,100,0.1409090909090909,593,0,57,DL_MelancholicFolk_Guitar,6,2,hanamokatanamoMelancholicFolk,0.35792335867881775,0
65,100,0.2409090909090909,91,1,58,DL_MelancholicFolk_Guitar,6,4,hanamokatanamoMelancholicFolk,0.9990094900131226,1
65,100,0.11818181818181818,163,0,58,DL_MelancholicFolk_Guitar,6,2,hanamokatanamoMelancholicFolk,0.2332340031862259,0
62,100,0.21818181818181817,325,0,58,DL_MelancholicFolk_Guitar,6,3,hanamokatanamoMelancholicFolk,0.2705884873867035,0
60,100,1.440909090909091,418,0,58,DL_MelancholicFolk_Guitar,6,15,hanamokatanamoMelancholicFolk,0.35793355107307434,0
65,100,0.18181818181818182,123,1,59,DL_MelancholicFolk_Guitar,6,3,hanamokatanamoMelancholicFolk,0.9983231425285339,1
58,100,0.2818181818181818,751,1,59,DL_MelancholicFolk_Guitar,6,5,hanamokatanamoMelancholicFolk,0.5462209582328796,1
60,100,0.11818181818181818,21,1,60,DL_MelancholicFolk_Guitar,6,2,hanamokatanamoMelancholicFolk,0.9983735084533691,1
53,100,0.1,91,0,60,DL_MelancholicFolk_Guitar,6,2,hanamokatanamoMelancholicFolk,0.05104820802807808,0
53,100,0.1409090909090909,131,0,60,DL_MelancholicFolk_Guitar,6,2,hanamokatanamoMelancholicFolk,0.04161040857434273,0
60,100,0.4,176,0,60,DL_MelancholicFolk_Guitar,6,6,hanamokatanamoMelancholicFolk,0.037977855652570724,0
53,100,0.1590909090909091,263,0,60,DL_MelancholicFolk_Guitar,6,3,hanamokatanamoMelancholicFolk,0.03925801441073418,0
53,100,0.21818181818181817,330,0,60,DL_MelancholicFolk_Guitar,6,3,hanamokatanamoMelancholicFolk,0.04616277292370796,0
53,100,0.1590909090909091,426,0,60,DL_MelancholicFolk_Guitar,6,3,hanamokatanamoMelancholicFolk,0.05712942034006119,0
55,100,0.41818181818181815,646,0,60,DL_MelancholicFolk_Guitar,6,7,hanamokatanamoMelancholicFolk,0.0918738842010498,0
58,100,0.12272727272727273,246,1,61,DL_MelancholicFolk_Guitar,6,2,hanamokatanamoMelancholicFolk,0.9990094900131226,1
60,100,0.5409090909090909,541,1,61,DL_MelancholicFolk_Guitar,6,9,hanamokatanamoMelancholicFolk,0.23323467373847961,0
60,100,0.7636363636363637,664,0,61,DL_MelancholicFolk_Guitar,6,12,hanamokatanamoMelancholicFolk,0.2705923616886139,0
53,100,0.16363636363636364,839,0,61,DL_MelancholicFolk_Guitar,6,3,hanamokatanamoMelancholicFolk,0.35792413353919983,0
57,100,0.17727272727272728,61,1,62,DL_MelancholicFolk_Guitar,6,3,hanamokatanamoMelancholicFolk,0.9990280866622925,1
58,100,0.11818181818181818,418,1,62,DL_MelancholicFolk_Guitar,6,2,hanamokatanamoMelancholicFolk,0.3703419864177704,0
58,100,0.2,853,1,62,DL_MelancholicFolk_Guitar,6,3,hanamokatanamoMelancholicFolk,0.4561709463596344,0
65,100,0.18181818181818182,408,1,63,DL_MelancholicFolk_Guitar,6,3,hanamokatanamoMelancholicFolk,0.9983231425285339,1
53,100,0.16363636363636364,509,0,63,DL_MelancholicFolk_Guitar,6,3,hanamokatanamoMelancholicFolk,0.5462132692337036,1
53,100,0.1590909090909091,286,1,64,DL_MelancholicFolk_Guitar,6,3,hanamokatanamoMelancholicFolk,0.9984879493713379,1
65,100,0.11818181818181818,370,0,64,DL_MelancholicFolk_Guitar,6,2,hanamokatanamoMelancholicFolk,0.0633532702922821,0
65,100,0.11818181818181818,413,0,64,DL_MelancholicFolk_Guitar,6,2,hanamokatanamoMelancholicFolk,0.05828831344842911,0
53,100,0.1409090909090909,440,0,64,DL_MelancholicFolk_Guitar,6,2,hanamokatanamoMelancholicFolk,0.06136270612478256,0
60,100,0.4,502,0,64,DL_MelancholicFolk_Guitar,6,6,hanamokatanamoMelancholicFolk,0.07168316841125488,0
53,100,0.35909090909090907,760,1,64,DL_MelancholicFolk_Guitar,6,6,hanamokatanamoMelancholicFolk,0.0847364068031311,0
65,100,0.18181818181818182,839,0,64,DL_MelancholicFolk_Guitar,6,3,hanamokatanamoMelancholicFolk,0.12634925544261932,0
58,100,0.35909090909090907,760,1,65,DL_MelancholicFolk_Guitar,6,6,hanamokatanamoMelancholicFolk,0.9983232617378235,1
58,100,0.16363636363636364,862,0,65,DL_MelancholicFolk_Guitar,6,3,hanamokatanamoMelancholicFolk,0.5462173819541931,1
58,100,0.7,106,1,66,DL_MelancholicFolk_Guitar,6,11,hanamokatanamoMelancholicFolk,0.9990094900131226,1
63,100,0.18181818181818182,333,0,66,DL_MelancholicFolk_Guitar,6,3,hanamokatanamoMelancholicFolk,0.23322170972824097,0
53,100,0.17727272727272728,436,0,66,DL_MelancholicFolk_Guitar,6,3,hanamokatanamoMelancholicFolk,0.2705824673175812,0
53,100,0.2590909090909091,519,0,66,DL_MelancholicFolk_Guitar,6,4,hanamokatanamoMelancholicFolk,0.3579234182834625,0
53,100,0.2,127,1,67,DL_MelancholicFolk_Guitar,6,3,hanamokatanamoMelancholicFolk,0.9990094900131226,1
65,100,0.13636363636363635,172,0,67,DL_MelancholicFolk_Guitar,6,2,hanamokatanamoMelancholicFolk,0.2332288920879364,0
53,100,0.12272727272727273,202,0,67,DL_MelancholicFolk_Guitar,6,2,hanamokatanamoMelancholicFolk,0.27057579159736633,0
53,100,0.8409090909090909,862,1,67,DL_MelancholicFolk_Guitar,6,13,hanamokatanamoMelancholicFolk,0.3579213321208954,0
65,100,0.11818181818181818,193,1,68,DL_MelancholicFolk_Guitar,6,2,hanamokatanamoMelancholicFolk,0.9988439083099365,1
65,100,0.2636363636363636,223,0,68,DL_MelancholicFolk_Guitar,6,4,hanamokatanamoMelancholicFolk,0.1379798948764801,0
65,100,0.2,286,0,68,DL_MelancholicFolk_Guitar,6,3,hanamokatanamoMelancholicFolk,0.16236451268196106,0
65,100,0.1,399,0,68,DL_MelancholicFolk_Guitar,6,2,hanamokatanamoMelancholicFolk,0.1910536289215088,0
65,100,1.2227272727272727,487,0,68,DL_MelancholicFolk_Guitar,6,15,hanamokatanamoMelancholicFolk,0.2619551718235016,0
65,100,1.0772727272727274,140,1,69,DL_MelancholicFolk_Guitar,6,15,hanamokatanamoMelancholicFolk,0.9983231425285339,1
58,100,0.1590909090909091,493,1,69,DL_MelancholicFolk_Guitar,6,3,hanamokatanamoMelancholicFolk,0.5462191104888916,1
65,100,0.12272727272727273,320,1,70,DL_MelancholicFolk_Guitar,6,2,hanamokatanamoMelancholicFolk,0.9988439083099365,1
65,100,0.1590909090909091,352,0,70,DL_MelancholicFolk_Guitar,6,3,hanamokatanamoMelancholicFolk,0.1379784345626831,0
65,100,0.2818181818181818,409,0,70,DL_MelancholicFolk_Guitar,6,5,hanamokatanamoMelancholicFolk,0.16236568987369537,0
58,100,1.3772727272727272,470,0,70,DL_MelancholicFolk_Guitar,6,15,hanamokatanamoMelancholicFolk,0.19105149805545807,0
60,100,1.518181818181818,787,1,70,DL_MelancholicFolk_Guitar,6,15,hanamokatanamoMelancholicFolk,0.26196303963661194,0
65,100,0.6,276,1,71,DL_MelancholicFolk_Guitar,6,10,hanamokatanamoMelancholicFolk,0.9990280866622925,1
65,100,0.6,430,0,71,DL_MelancholicFolk_Guitar,6,10,hanamokatanamoMelancholicFolk,0.3703405261039734,0
65,100,1.3636363636363635,576,0,71,DL_MelancholicFolk_Guitar,6,15,hanamokatanamoMelancholicFolk,0.45617061853408813,0
60,100,1.3,0,1,72,DL_MelancholicFolk_Guitar,6,15,hanamokatanamoMelancholicFolk,0.9990280866622925,1
58,100,1.2227272727272727,333,1,72,DL_MelancholicFolk_Guitar,6,15,hanamokatanamoMelancholicFolk,0.37032896280288696,0
55,100,0.1,663,1,72,DL_MelancholicFolk_Guitar,6,2,hanamokatanamoMelancholicFolk,0.45616427063941956,0
62,100,1.518181818181818,83,1,73,DL_MelancholicFolk_Guitar,6,15,hanamokatanamoMelancholicFolk,0.9990094900131226,1
55,100,0.7,426,1,73,DL_MelancholicFolk_Guitar,6,11,hanamokatanamoMelancholicFolk,0.23323635756969452,0
65,100,0.2,663,1,73,DL_MelancholicFolk_Guitar,6,3,hanamokatanamoMelancholicFolk,0.27058371901512146,0
53,100,1.518181818181818,722,0,73,DL_MelancholicFolk_Guitar,6,15,hanamokatanamoMelancholicFolk,0.35792097449302673,0
60,100,0.759090909090909,286,1,74,DL_MelancholicFolk_Guitar,6,12,hanamokatanamoMelancholicFolk,0.9988439083099365,1
69,100,0.1590909090909091,496,0,74,DL_MelancholicFolk_Guitar,6,3,hanamokatanamoMelancholicFolk,0.13798204064369202,0
57,100,0.5181818181818182,546,0,74,DL_MelancholicFolk_Guitar,6,8,hanamokatanamoMelancholicFolk,0.16235989332199097,0
57,100,0.5227272727272727,695,0,74,DL_MelancholicFolk_Guitar,6,8,hanamokatanamoMelancholicFolk,0.19105564057826996,0
65,100,0.759090909090909,813,0,74,DL_MelancholicFolk_Guitar,6,12,hanamokatanamoMelancholicFolk,0.2619587481021881,0
65,100,0.18181818181818182,220,1,75,DL_MelancholicFolk_Guitar,6,3,hanamokatanamoMelancholicFolk,0.9983231425285339,1
65,100,1.018181818181818,580,1,75,DL_MelancholicFolk_Guitar,6,15,hanamokatanamoMelancholicFolk,0.546209990978241,1
53,100,0.759090909090909,30,1,76,DL_MelancholicFolk_Guitar,6,12,hanamokatanamoMelancholicFolk,0.9988439083099365,1
60,100,0.1409090909090909,316,1,76,DL_MelancholicFolk_Guitar,6,2,hanamokatanamoMelancholicFolk,0.13798151910305023,0
65,100,0.2590909090909091,392,0,76,DL_MelancholicFolk_Guitar,6,4,hanamokatanamoMelancholicFolk,0.16235974431037903,0
65,100,0.1409090909090909,453,0,76,DL_MelancholicFolk_Guitar,6,2,hanamokatanamoMelancholicFolk,0.19105663895606995,0
58,100,0.8181818181818182,514,0,76,DL_MelancholicFolk_Guitar,6,13,hanamokatanamoMelancholicFolk,0.26196348667144775,0
60,100,0.2,119,1,77,DL_MelancholicFolk_Guitar,6,3,hanamokatanamoMelancholicFolk,0.9988439083099365,1
60,100,0.17727272727272728,229,0,77,DL_MelancholicFolk_Guitar,6,3,hanamokatanamoMelancholicFolk,0.1379861831665039,0
60,100,0.5590909090909091,307,0,77,DL_MelancholicFolk_Guitar,6,9,hanamokatanamoMelancholicFolk,0.16236957907676697,0
55,100,1.3590909090909091,449,0,77,DL_MelancholicFolk_Guitar,6,15,hanamokatanamoMelancholicFolk,0.19105443358421326,0
65,100,0.6818181818181818,760,1,77,DL_MelancholicFolk_Guitar,6,11,hanamokatanamoMelancholicFolk,0.26196223497390747,0
65,100,0.7,35,1,78,DL_MelancholicFolk_Guitar,6,11,hanamokatanamoMelancholicFolk,0.9990094900131226,1
65,100,0.7363636363636363,523,1,78,DL_MelancholicFolk_Guitar,6,12,hanamokatanamoMelancholicFolk,0.23323337733745575,0
58,100,0.38181818181818183,752,0,78,DL_MelancholicFolk_Guitar,6,6,hanamokatanamoMelancholicFolk,0.27058619260787964,0
53,100,0.759090909090909,849,0,78,DL_MelancholicFolk_Guitar,6,12,hanamokatanamoMelancholicFolk,0.35792291164398193,0
65,100,0.4,282,1,79,DL_MelancholicFolk_Guitar,6,6,hanamokatanamoMelancholicFolk,0.9990094900131226,1
60,100,0.2818181818181818,386,0,79,DL_MelancholicFolk_Guitar,6,5,hanamokatanamoMelancholicFolk,0.2332361340522766,0
58,100,0.4,509,0,79,DL_MelancholicFolk_Guitar,6,6,hanamokatanamoMelancholicFolk,0.27058035135269165,0
65,100,0.18181818181818182,597,0,79,DL_MelancholicFolk_Guitar,6,3,hanamokatanamoMelancholicFolk,0.3579277992248535,0
65,100,0.21818181818181817,163,1,80,DL_MelancholicFolk_Guitar,6,3,hanamokatanamoMelancholicFolk,0.9990094900131226,1
58,100,0.2,440,1,80,DL_MelancholicFolk_Guitar,6,3,hanamokatanamoMelancholicFolk,0.23323789238929749,0
58,100,0.18181818181818182,519,0,80,DL_MelancholicFolk_Guitar,6,3,hanamokatanamoMelancholicFolk,0.27058282494544983,0
60,100,1.1409090909090909,703,0,80,DL_MelancholicFolk_Guitar,6,15,hanamokatanamoMelancholicFolk,0.35792243480682373,0
63,100,0.11818181818181818,660,1,81,DL_MelancholicFolk_Guitar,6,2,hanamokatanamoMelancholicFolk,0.9990094900131226,1
63,100,0.1,690,0,81,DL_MelancholicFolk_Guitar,6,2,hanamokatanamoMelancholicFolk,0.2332247644662857,0
53,100,0.35909090909090907,770,0,81,DL_MelancholicFolk_Guitar,6,6,hanamokatanamoMelancholicFolk,0.27058327198028564,0
53,100,0.12272727272727273,862,0,81,DL_MelancholicFolk_Guitar,6,2,hanamokatanamoMelancholicFolk,0.35792842507362366,0
53,100,0.5772727272727273,30,1,82,DL_MelancholicFolk_Guitar,6,9,hanamokatanamoMelancholicFolk,0.9983735084533691,1
53,100,0.21818181818181817,163,0,82,DL_MelancholicFolk_Guitar,6,3,hanamokatanamoMelancholicFolk,0.051049474626779556,0
60,100,0.5227272727272727,299,0,82,DL_MelancholicFolk_Guitar,6,8,hanamokatanamoMelancholicFolk,0.041612815111875534,0
60,100,0.36363636363636365,443,0,82,DL_MelancholicFolk_Guitar,6,6,hanamokatanamoMelancholicFolk,0.03798067569732666,0
53,100,0.2409090909090909,540,0,82,DL_MelancholicFolk_Guitar,6,4,hanamokatanamoMelancholicFolk,0.039260029792785645,0
58,100,0.2590909090909091,743,0,82,DL_MelancholicFolk_Guitar,6,4,hanamokatanamoMelancholicFolk,0.046166278421878815,0
58,100,0.18181818181818182,805,0,82,DL_MelancholicFolk_Guitar,6,3,hanamokatanamoMelancholicFolk,0.05713338032364845,0
53,100,0.7,857,0,82,DL_MelancholicFolk_Guitar,6,11,hanamokatanamoMelancholicFolk,0.09187745302915573,0
58,100,0.1,193,1,83,DL_MelancholicFolk_Guitar,6,2,hanamokatanamoMelancholicFolk,0.9990094900131226,1
65,100,0.759090909090909,453,1,83,DL_MelancholicFolk_Guitar,6,12,hanamokatanamoMelancholicFolk,0.2332281917333603,0
62,100,0.1409090909090909,800,1,83,DL_MelancholicFolk_Guitar,6,2,hanamokatanamoMelancholicFolk,0.27058741450309753,0
65,100,0.38181818181818183,849,0,83,DL_MelancholicFolk_Guitar,6,6,hanamokatanamoMelancholicFolk,0.35793179273605347,0
58,100,0.3,330,1,84,DL_MelancholicFolk_Guitar,6,5,hanamokatanamoMelancholicFolk,0.9990094900131226,1
58,100,0.5181818181818182,502,0,84,DL_MelancholicFolk_Guitar,6,8,hanamokatanamoMelancholicFolk,0.23323047161102295,0
58,100,0.2590909090909091,637,0,84,DL_MelancholicFolk_Guitar,6,4,hanamokatanamoMelancholicFolk,0.2705807387828827,0
53,100,0.5818181818181818,726,0,84,DL_MelancholicFolk_Guitar,6,9,hanamokatanamoMelancholicFolk,0.3579208254814148,0
60,100,0.2590909090909091,30,1,85,DL_MelancholicFolk_Guitar,6,4,hanamokatanamoMelancholicFolk,0.9984880685806274,1
60,100,0.12272727272727273,100,0,85,DL_MelancholicFolk_Guitar,6,2,hanamokatanamoMelancholicFolk,0.06335385143756866,0
57,100,0.4818181818181818,166,0,85,DL_MelancholicFolk_Guitar,6,8,hanamokatanamoMelancholicFolk,0.05828770622611046,0
53,100,0.37727272727272726,316,0,85,DL_MelancholicFolk_Guitar,6,6,hanamokatanamoMelancholicFolk,0.06136106327176094,0
60,100,0.1590909090909091,417,0,85,DL_MelancholicFolk_Guitar,6,3,hanamokatanamoMelancholicFolk,0.07168310135602951,0
53,100,0.2409090909090909,470,0,85,DL_MelancholicFolk_Guitar,6,4,hanamokatanamoMelancholicFolk,0.08473337441682816,0
58,100,0.8818181818181818,817,1,85,DL_MelancholicFolk_Guitar,6,14,hanamokatanamoMelancholicFolk,0.12635040283203125,0
53,100,0.32272727272727275,136,1,86,DL_MelancholicFolk_Guitar,6,5,hanamokatanamoMelancholicFolk,0.9982556700706482,1
55,100,0.3181818181818182,220,0,86,DL_MelancholicFolk_Guitar,6,5,hanamokatanamoMelancholicFolk,0.04129261523485184,0
58,100,0.2409090909090909,339,0,86,DL_MelancholicFolk_Guitar,6,4,hanamokatanamoMelancholicFolk,0.02912498451769352,0
65,100,0.18181818181818182,509,0,86,DL_MelancholicFolk_Guitar,6,3,hanamokatanamoMelancholicFolk,0.021568110212683678,0
53,100,0.1409090909090909,550,0,86,DL_MelancholicFolk_Guitar,6,2,hanamokatanamoMelancholicFolk,0.017058152705430984,0
58,100,0.4590909090909091,612,0,86,DL_MelancholicFolk_Guitar,6,7,hanamokatanamoMelancholicFolk,0.01526743546128273,0
65,100,0.3181818181818182,713,0,86,DL_MelancholicFolk_Guitar,6,5,hanamokatanamoMelancholicFolk,0.016455020755529404,0
58,100,0.13636363636363635,810,0,86,DL_MelancholicFolk_Guitar,6,2,hanamokatanamoMelancholicFolk,0.02183554135262966,0
58,100,0.1,844,0,86,DL_MelancholicFolk_Guitar,6,2,hanamokatanamoMelancholicFolk,0.0325155146420002,0
65,100,0.11818181818181818,866,0,86,DL_MelancholicFolk_Guitar,6,2,hanamokatanamoMelancholicFolk,0.06091023236513138,0
58,100,0.6409090909090909,119,1,87,DL_MelancholicFolk_Guitar,6,10,hanamokatanamoMelancholicFolk,0.9990280866622925,1
53,100,0.759090909090909,633,1,87,DL_MelancholicFolk_Guitar,6,12,hanamokatanamoMelancholicFolk,0.37033212184906006,0
60,100,0.6772727272727272,810,0,87,DL_MelancholicFolk_Guitar,6,11,hanamokatanamoMelancholicFolk,0.4561648666858673,0
57,100,0.2,87,1,88,DL_MelancholicFolk_Guitar,6,3,hanamokatanamoMelancholicFolk,0.9984879493713379,1
57,100,0.37727272727272726,140,0,88,DL_MelancholicFolk_Guitar,6,6,hanamokatanamoMelancholicFolk,0.06335210800170898,0
60,100,0.12272727272727273,223,0,88,DL_MelancholicFolk_Guitar,6,2,hanamokatanamoMelancholicFolk,0.05828828364610672,0
60,100,0.5772727272727273,273,0,88,DL_MelancholicFolk_Guitar,6,9,hanamokatanamoMelancholicFolk,0.06136131286621094,0
53,100,0.7227272727272728,399,0,88,DL_MelancholicFolk_Guitar,6,12,hanamokatanamoMelancholicFolk,0.07168059796094894,0
53,100,0.759090909090909,624,0,88,DL_MelancholicFolk_Guitar,6,12,hanamokatanamoMelancholicFolk,0.08473222702741623,0
58,100,0.2772727272727273,832,0,88,DL_MelancholicFolk_Guitar,6,4,hanamokatanamoMelancholicFolk,0.12635089457035065,0
53,100,0.38181818181818183,22,1,89,DL_MelancholicFolk_Guitar,6,6,hanamokatanamoMelancholicFolk,0.9983735084533691,1
58,100,0.2409090909090909,140,0,89,DL_MelancholicFolk_Guitar,6,4,hanamokatanamoMelancholicFolk,0.05105038732290268,0
60,100,0.4,250,0,89,DL_MelancholicFolk_Guitar,6,6,hanamokatanamoMelancholicFolk,0.041612062603235245,0
58,100,0.18181818181818182,343,0,89,DL_MelancholicFolk_Guitar,6,3,hanamokatanamoMelancholicFolk,0.037978921085596085,0
58,100,0.5,386,0,89,DL_MelancholicFolk_Guitar,6,8,hanamokatanamoMelancholicFolk,0.03925914689898491,0
60,100,0.1409090909090909,559,0,89,DL_MelancholicFolk_Guitar,6,2,hanamokatanamoMelancholicFolk,0.04616367444396019,0
60,100,0.9818181818181818,637,0,89,DL_MelancholicFolk_Guitar,6,15,hanamokatanamoMelancholicFolk,0.05712852254509926,0
60,100,0.5590909090909091,866,0,89,DL_MelancholicFolk_Guitar,6,9,hanamokatanamoMelancholicFolk,0.09187965095043182,0
53,100,0.33636363636363636,260,1,90,DL_MelancholicFolk_Guitar,6,5,hanamokatanamoMelancholicFolk,0.9984879493713379,1
57,100,0.6181818181818182,436,0,90,DL_MelancholicFolk_Guitar,6,10,hanamokatanamoMelancholicFolk,0.06335163116455078,0
53,100,0.22272727272727272,585,0,90,DL_MelancholicFolk_Guitar,6,4,hanamokatanamoMelancholicFolk,0.058286964893341064,0
53,100,0.3,660,0,90,DL_MelancholicFolk_Guitar,6,5,hanamokatanamoMelancholicFolk,0.06135845556855202,0
60,100,0.11818181818181818,726,0,90,DL_MelancholicFolk_Guitar,6,2,hanamokatanamoMelancholicFolk,0.07167872041463852,0
53,100,0.1,770,0,90,DL_MelancholicFolk_Guitar,6,2,hanamokatanamoMelancholicFolk,0.08472930639982224,0
60,100,0.16363636363636364,862,0,90,DL_MelancholicFolk_Guitar,6,3,hanamokatanamoMelancholicFolk,0.12634649872779846,0
60,100,0.5636363636363636,26,1,91,DL_MelancholicFolk_Guitar,6,9,hanamokatanamoMelancholicFolk,0.9983735084533691,1
60,100,0.1,153,0,91,DL_MelancholicFolk_Guitar,6,2,hanamokatanamoMelancholicFolk,0.05104915052652359,0
53,100,0.1409090909090909,286,0,91,DL_MelancholicFolk_Guitar,6,2,hanamokatanamoMelancholicFolk,0.04161081835627556,0
58,100,0.5181818181818182,396,0,91,DL_MelancholicFolk_Guitar,6,8,hanamokatanamoMelancholicFolk,0.03797707334160805,0
58,100,0.12272727272727273,576,0,91,DL_MelancholicFolk_Guitar,6,2,hanamokatanamoMelancholicFolk,0.03925783559679985,0
58,100,0.32272727272727275,606,0,91,DL_MelancholicFolk_Guitar,6,5,hanamokatanamoMelancholicFolk,0.0461612194776535,0
53,100,0.13636363636363635,677,0,91,DL_MelancholicFolk_Guitar,6,2,hanamokatanamoMelancholicFolk,0.057127222418785095,0
58,100,0.2,707,0,91,DL_MelancholicFolk_Guitar,6,3,hanamokatanamoMelancholicFolk,0.0918751135468483,0
58,100,0.2590909090909091,96,1,92,DL_MelancholicFolk_Guitar,6,4,hanamokatanamoMelancholicFolk,0.9984879493713379,1
58,100,0.2,202,0,92,DL_MelancholicFolk_Guitar,6,3,hanamokatanamoMelancholicFolk,0.06335309892892838,0
53,100,0.1,440,1,92,DL_MelancholicFolk_Guitar,6,2,hanamokatanamoMelancholicFolk,0.058288611471652985,0
65,100,0.3181818181818182,462,0,92,DL_MelancholicFolk_Guitar,6,5,hanamokatanamoMelancholicFolk,0.06136009469628334,0
53,100,0.1,593,0,92,DL_MelancholicFolk_Guitar,6,2,hanamokatanamoMelancholicFolk,0.07168121635913849,0
65,100,0.17727272727272728,624,0,92,DL_MelancholicFolk_Guitar,6,3,hanamokatanamoMelancholicFolk,0.08473531901836395,0
57,100,0.3,783,0,92,DL_MelancholicFolk_Guitar,6,5,hanamokatanamoMelancholicFolk,0.12634706497192383,0
53,100,0.6,179,1,93,DL_MelancholicFolk_Guitar,6,10,hanamokatanamoMelancholicFolk,0.9988439083099365,1
65,100,0.4409090909090909,312,0,93,DL_MelancholicFolk_Guitar,6,7,hanamokatanamoMelancholicFolk,0.13797950744628906,0
57,100,0.3409090909090909,453,0,93,DL_MelancholicFolk_Guitar,6,5,hanamokatanamoMelancholicFolk,0.16236135363578796,0
57,100,0.3409090909090909,559,0,93,DL_MelancholicFolk_Guitar,6,5,hanamokatanamoMelancholicFolk,0.19105061888694763,0
60,100,0.9181818181818182,633,0,93,DL_MelancholicFolk_Guitar,6,15,hanamokatanamoMelancholicFolk,0.26196715235710144,0
53,100,0.18181818181818182,113,1,94,DL_MelancholicFolk_Guitar,6,3,hanamokatanamoMelancholicFolk,0.9988439083099365,1
65,100,0.2772727272727273,163,0,94,DL_MelancholicFolk_Guitar,6,4,hanamokatanamoMelancholicFolk,0.13797937333583832,0
65,100,0.11818181818181818,237,0,94,DL_MelancholicFolk_Guitar,6,2,hanamokatanamoMelancholicFolk,0.16236461699008942,0
53,100,0.11818181818181818,603,1,94,DL_MelancholicFolk_Guitar,6,2,hanamokatanamoMelancholicFolk,0.1910516917705536,0
65,100,0.2590909090909091,633,0,94,DL_MelancholicFolk_Guitar,6,4,hanamokatanamoMelancholicFolk,0.26196688413619995,0
65,100,0.3,440,1,95,DL_MelancholicFolk_Guitar,6,5,hanamokatanamoMelancholicFolk,0.9990094900131226,1
53,100,0.38181818181818183,540,0,95,DL_MelancholicFolk_Guitar,6,6,hanamokatanamoMelancholicFolk,0.23322749137878418,0
53,100,0.2,663,0,95,DL_MelancholicFolk_Guitar,6,3,hanamokatanamoMelancholicFolk,0.2705751061439514,0
60,100,0.9636363636363636,796,0,95,DL_MelancholicFolk_Guitar,6,15,hanamokatanamoMelancholicFolk,0.3579231798648834,0
53,100,0.9,166,1,96,DL_MelancholicFolk_Guitar,6,14,hanamokatanamoMelancholicFolk,0.9990280866622925,1
60,100,0.2772727272727273,404,1,96,DL_MelancholicFolk_Guitar,6,4,hanamokatanamoMelancholicFolk,0.37034326791763306,0
60,100,1.3590909090909091,470,0,96,DL_MelancholicFolk_Guitar,6,15,hanamokatanamoMelancholicFolk,0.4561573565006256,0
53,100,0.7,40,1,97,DL_MelancholicFolk_Guitar,6,11,hanamokatanamoMelancholicFolk,0.9990094900131226,1
65,100,0.1,193,0,97,DL_MelancholicFolk_Guitar,6,2,hanamokatanamoMelancholicFolk,0.23323141038417816,0
63,100,0.2,783,1,97,DL_MelancholicFolk_Guitar,6,3,hanamokatanamoMelancholicFolk,0.27057603001594543,0
53,100,0.1590909090909091,849,0,97,DL_MelancholicFolk_Guitar,6,3,hanamokatanamoMelancholicFolk,0.3579297661781311,0
57,100,0.1409090909090909,74,1,98,DL_MelancholicFolk_Guitar,6,2,hanamokatanamoMelancholicFolk,0.9984879493713379,1
53,100,0.1409090909090909,145,0,98,DL_MelancholicFolk_Guitar,6,2,hanamokatanamoMelancholicFolk,0.06335112452507019,0
60,100,0.35909090909090907,216,0,98,DL_MelancholicFolk_Guitar,6,6,hanamokatanamoMelancholicFolk,0.05828758329153061,0
60,100,0.11818181818181818,404,0,98,DL_MelancholicFolk_Guitar,6,2,hanamokatanamoMelancholicFolk,0.06135900318622589,0
53,100,0.4590909090909091,470,0,98,DL_MelancholicFolk_Guitar,6,7,hanamokatanamoMelancholicFolk,0.07167750597000122,0
53,100,0.5,629,0,98,DL_MelancholicFolk_Guitar,6,8,hanamokatanamoMelancholicFolk,0.08473145216703415,0
65,100,0.2,810,0,98,DL_MelancholicFolk_Guitar,6,3,hanamokatanamoMelancholicFolk,0.12634585797786713,0
53,100,0.2,74,1,99,DL_MelancholicFolk_Guitar,6,3,hanamokatanamoMelancholicFolk,0.9990094900131226,1
65,100,0.3181818181818182,119,0,99,DL_MelancholicFolk_Guitar,6,5,hanamokatanamoMelancholicFolk,0.23323176801204681,0
58,100,0.33636363636363636,237,0,99,DL_MelancholicFolk_Guitar,6,5,hanamokatanamoMelancholicFolk,0.2705848515033722,0
62,100,0.9590909090909091,506,1,99,DL_MelancholicFolk_Guitar,6,15,hanamokatanamoMelancholicFolk,0.3579258322715759,0
53,100,0.1590909090909091,0,1,100,DL_MelancholicFolk_Guitar,6,3,hanamokatanamoMelancholicFolk,0.9990094900131226,1
58,100,0.12272727272727273,35,0,100,DL_MelancholicFolk_Guitar,6,2,hanamokatanamoMelancholicFolk,0.23323218524456024,0
58,100,0.2,716,1,100,DL_MelancholicFolk_Guitar,6,3,hanamokatanamoMelancholicFolk,0.2705759108066559,0
53,100,0.35909090909090907,810,0,100,DL_MelancholicFolk_Guitar,6,6,hanamokatanamoMelancholicFolk,0.35792502760887146,0
60,100,0.3,176,1,101,DL_MelancholicFolk_Guitar,6,5,hanamokatanamoMelancholicFolk,0.9986506104469299,1
53,100,0.2772727272727273,250,0,101,DL_MelancholicFolk_Guitar,6,4,hanamokatanamoMelancholicFolk,0.08797907829284668,0
60,100,0.12272727272727273,333,0,101,DL_MelancholicFolk_Guitar,6,2,hanamokatanamoMelancholicFolk,0.09298305958509445,0
53,100,0.4409090909090909,386,0,101,DL_MelancholicFolk_Guitar,6,7,hanamokatanamoMelancholicFolk,0.10994736105203629,0
53,100,0.16363636363636364,576,0,101,DL_MelancholicFolk_Guitar,6,3,hanamokatanamoMelancholicFolk,0.12867307662963867,0
58,100,0.5181818181818182,770,0,101,DL_MelancholicFolk_Guitar,6,8,hanamokatanamoMelancholicFolk,0.18221500515937805,0
58,100,0.2,43,1,102,DL_MelancholicFolk_Guitar,6,3,hanamokatanamoMelancholicFolk,0.9982556700706482,1
58,100,0.2409090909090909,123,0,102,DL_MelancholicFolk_Guitar,6,4,hanamokatanamoMelancholicFolk,0.04129204899072647,0
53,100,0.12272727272727273,255,0,102,DL_MelancholicFolk_Guitar,6,2,hanamokatanamoMelancholicFolk,0.02912447415292263,0
58,100,0.5409090909090909,286,0,102,DL_MelancholicFolk_Guitar,6,9,hanamokatanamoMelancholicFolk,0.02156810462474823,0
53,100,0.2590909090909091,417,0,102,DL_MelancholicFolk_Guitar,6,4,hanamokatanamoMelancholicFolk,0.0170577522367239,0
58,100,0.23636363636363636,502,0,102,DL_MelancholicFolk_Guitar,6,4,hanamokatanamoMelancholicFolk,0.015267200767993927,0
65,100,0.17727272727272728,590,0,102,DL_MelancholicFolk_Guitar,6,3,hanamokatanamoMelancholicFolk,0.01645471900701523,0
53,100,0.3409090909090909,629,0,102,DL_MelancholicFolk_Guitar,6,5,hanamokatanamoMelancholicFolk,0.021836234256625175,0
58,100,0.3,716,0,102,DL_MelancholicFolk_Guitar,6,5,hanamokatanamoMelancholicFolk,0.03251683712005615,0
65,100,0.17727272727272728,800,0,102,DL_MelancholicFolk_Guitar,6,3,hanamokatanamoMelancholicFolk,0.06091184541583061,0
65,100,0.16363636363636364,686,1,103,DL_MelancholicFolk_Guitar,6,3,hanamokatanamoMelancholicFolk,0.9983232617378235,1
53,100,0.2409090909090909,726,0,103,DL_MelancholicFolk_Guitar,6,4,hanamokatanamoMelancholicFolk,0.5462151169776917,1
60,100,0.2590909090909091,110,1,104,DL_MelancholicFolk_Guitar,6,4,hanamokatanamoMelancholicFolk,0.9983004927635193,1
53,100,0.1,172,0,104,DL_MelancholicFolk_Guitar,6,2,hanamokatanamoMelancholicFolk,0.04466121271252632,0
65,100,0.32272727272727275,255,0,104,DL_MelancholicFolk_Guitar,6,5,hanamokatanamoMelancholicFolk,0.03337112441658974,0
53,100,0.2818181818181818,343,0,104,DL_MelancholicFolk_Guitar,6,5,hanamokatanamoMelancholicFolk,0.026946717873215675,0
65,100,0.1409090909090909,409,0,104,DL_MelancholicFolk_Guitar,6,2,hanamokatanamoMelancholicFolk,0.02408245950937271,0
65,100,0.18181818181818182,443,0,104,DL_MelancholicFolk_Guitar,6,3,hanamokatanamoMelancholicFolk,0.024971960112452507,0
62,100,0.42272727272727273,563,0,104,DL_MelancholicFolk_Guitar,6,7,hanamokatanamoMelancholicFolk,0.03064504824578762,0
62,100,0.1590909090909091,660,0,104,DL_MelancholicFolk_Guitar,6,3,hanamokatanamoMelancholicFolk,0.04136722534894943,0
65,100,1.440909090909091,713,0,104,DL_MelancholicFolk_Guitar,6,15,hanamokatanamoMelancholicFolk,0.07206522673368454,0
65,100,0.9409090909090909,163,1,105,DL_MelancholicFolk_Guitar,6,15,hanamokatanamoMelancholicFolk,0.9990280866622925,1
62,100,0.1409090909090909,713,1,105,DL_MelancholicFolk_Guitar,6,2,hanamokatanamoMelancholicFolk,0.3703537881374359,0
53,100,0.6590909090909091,747,0,105,DL_MelancholicFolk_Guitar,6,11,hanamokatanamoMelancholicFolk,0.45616811513900757,0
53,100,0.18181818181818182,673,1,106,DL_MelancholicFolk_Guitar,6,3,hanamokatanamoMelancholicFolk,0.9990280866622925,1
57,100,0.18181818181818182,726,0,106,DL_MelancholicFolk_Guitar,6,3,hanamokatanamoMelancholicFolk,0.37033969163894653,0
60,100,0.6409090909090909,844,0,106,DL_MelancholicFolk_Guitar,6,10,hanamokatanamoMelancholicFolk,0.45616912841796875,0
53,100,0.11818181818181818,119,1,107,DL_MelancholicFolk_Guitar,6,2,hanamokatanamoMelancholicFolk,0.9986506104469299,1
60,100,0.7772727272727272,250,0,107,DL_MelancholicFolk_Guitar,6,12,hanamokatanamoMelancholicFolk,0.08797869086265564,0
53,100,0.2590909090909091,430,0,107,DL_MelancholicFolk_Guitar,6,4,hanamokatanamoMelancholicFolk,0.09298084676265717,0
65,100,0.1409090909090909,487,0,107,DL_MelancholicFolk_Guitar,6,2,hanamokatanamoMelancholicFolk,0.10994664579629898,0
58,100,0.1590909090909091,677,0,107,DL_MelancholicFolk_Guitar,6,3,hanamokatanamoMelancholicFolk,0.1286691278219223,0
53,100,0.2590909090909091,747,0,107,DL_MelancholicFolk_Guitar,6,4,hanamokatanamoMelancholicFolk,0.18221329152584076,0
65,100,0.36363636363636365,113,1,108,DL_MelancholicFolk_Guitar,6,6,hanamokatanamoMelancholicFolk,0.9988439083099365,1
58,100,0.12272727272727273,386,1,108,DL_MelancholicFolk_Guitar,6,2,hanamokatanamoMelancholicFolk,0.13798631727695465,0
53,100,0.16363636363636364,686,1,108,DL_MelancholicFolk_Guitar,6,3,hanamokatanamoMelancholicFolk,0.162364661693573,0
65,100,0.2772727272727273,766,0,108,DL_MelancholicFolk_Guitar,6,4,hanamokatanamoMelancholicFolk,0.191060870885849,0
65,100,0.1409090909090909,857,0,108,DL_MelancholicFolk_Guitar,6,2,hanamokatanamoMelancholicFolk,0.26196348667144775,0
65,100,0.1409090909090909,396,1,109,DL_MelancholicFolk_Guitar,6,2,hanamokatanamoMelancholicFolk,0.9984879493713379,1
65,100,0.2590909090909091,475,0,109,DL_MelancholicFolk_Guitar,6,4,hanamokatanamoMelancholicFolk,0.0633518248796463,0
65,100,0.2,553,0,109,DL_MelancholicFolk_Guitar,6,3,hanamokatanamoMelancholicFolk,0.05828791856765747,0
53,100,0.2,597,0,109,DL_MelancholicFolk_Guitar,6,3,hanamokatanamoMelancholicFolk,0.061360809952020645,0
60,100,0.4590909090909091,650,0,109,DL_MelancholicFolk_Guitar,6,7,hanamokatanamoMelancholicFolk,0.07168195396661758,0
53,100,0.3409090909090909,779,0,109,DL_MelancholicFolk_Guitar,6,5,hanamokatanamoMelancholicFolk,0.0847335234284401,0
53,100,0.1590909090909091,857,0,109,DL_MelancholicFolk_Guitar,6,3,hanamokatanamoMelancholicFolk,0.12634901702404022,0
53,100,0.5181818181818182,43,1,110,DL_MelancholicFolk_Guitar,6,8,hanamokatanamoMelancholicFolk,0.9988439083099365,1
53,100,0.6636363636363637,179,0,110,DL_MelancholicFolk_Guitar,6,11,hanamokatanamoMelancholicFolk,0.13797807693481445,0
53,100,0.2772727272727273,370,0,110,DL_MelancholicFolk_Guitar,6,4,hanamokatanamoMelancholicFolk,0.16236096620559692,0
58,100,0.6818181818181818,443,0,110,DL_MelancholicFolk_Guitar,6,11,hanamokatanamoMelancholicFolk,0.1910543143749237,0
58,100,0.2,853,1,110,DL_MelancholicFolk_Guitar,6,3,hanamokatanamoMelancholicFolk,0.26196348667144775,0
65,100,0.17727272727272728,40,1,111,DL_MelancholicFolk_Guitar,6,3,hanamokatanamoMelancholicFolk,0.9983004927635193,1
65,100,0.11818181818181818,83,0,111,DL_MelancholicFolk_Guitar,6,2,hanamokatanamoMelancholicFolk,0.044661641120910645,0
65,100,0.4590909090909091,193,0,111,DL_MelancholicFolk_Guitar,6,7,hanamokatanamoMelancholicFolk,0.033370185643434525,0
58,100,0.1590909090909091,409,0,111,DL_MelancholicFolk_Guitar,6,3,hanamokatanamoMelancholicFolk,0.026946689933538437,0
58,100,0.6,493,0,111,DL_MelancholicFolk_Guitar,6,10,hanamokatanamoMelancholicFolk,0.024082103744149208,0
53,100,0.1409090909090909,624,0,111,DL_MelancholicFolk_Guitar,6,2,hanamokatanamoMelancholicFolk,0.024970583617687225,0
58,100,0.1590909090909091,656,0,111,DL_MelancholicFolk_Guitar,6,3,hanamokatanamoMelancholicFolk,0.03064623847603798,0
65,100,0.1590909090909091,690,0,111,DL_MelancholicFolk_Guitar,6,3,hanamokatanamoMelancholicFolk,0.041365522891283035,0
58,100,0.1590909090909091,726,0,111,DL_MelancholicFolk_Guitar,6,3,hanamokatanamoMelancholicFolk,0.07206892222166061,0
65,100,0.11818181818181818,263,1,112,DL_MelancholicFolk_Guitar,6,2,hanamokatanamoMelancholicFolk,0.9988439083099365,1
53,100,0.16363636363636364,532,1,112,DL_MelancholicFolk_Guitar,6,3,hanamokatanamoMelancholicFolk,0.13798044621944427,0
53,100,0.5590909090909091,593,0,112,DL_MelancholicFolk_Guitar,6,9,hanamokatanamoMelancholicFolk,0.1623610556125641,0
65,100,0.12272727272727273,817,0,112,DL_MelancholicFolk_Guitar,6,2,hanamokatanamoMelancholicFolk,0.1910572201013565,0
65,100,0.1409090909090909,849,0,112,DL_MelancholicFolk_Guitar,6,2,hanamokatanamoMelancholicFolk,0.2619612514972687,0
53,100,0.2590909090909091,0,1,113,DL_MelancholicFolk_Guitar,6,4,hanamokatanamoMelancholicFolk,0.9983004927635193,1
65,100,0.2409090909090909,56,0,113,DL_MelancholicFolk_Guitar,6,4,hanamokatanamoMelancholicFolk,0.04466170072555542,0
53,100,0.41818181818181815,110,0,113,DL_MelancholicFolk_Guitar,6,7,hanamokatanamoMelancholicFolk,0.03337007761001587,0
65,100,0.17727272727272728,206,0,113,DL_MelancholicFolk_Guitar,6,3,hanamokatanamoMelancholicFolk,0.026946842670440674,0
65,100,0.18181818181818182,307,0,113,DL_MelancholicFolk_Guitar,6,3,hanamokatanamoMelancholicFolk,0.02408171072602272,0
65,100,0.21818181818181817,352,0,113,DL_MelancholicFolk_Guitar,6,3,hanamokatanamoMelancholicFolk,0.024970678612589836,0
58,100,0.5227272727272727,399,0,113,DL_MelancholicFolk_Guitar,6,8,hanamokatanamoMelancholicFolk,0.03064597025513649,0
53,100,0.2409090909090909,624,0,113,DL_MelancholicFolk_Guitar,6,4,hanamokatanamoMelancholicFolk,0.0413665808737278,0
65,100,0.6227272727272727,783,0,113,DL_MelancholicFolk_Guitar,6,10,hanamokatanamoMelancholicFolk,0.07206425070762634,0
58,100,0.2,145,1,114,DL_MelancholicFolk_Guitar,6,3,hanamokatanamoMelancholicFolk,0.9986506104469299,1
58,100,0.8,220,0,114,DL_MelancholicFolk_Guitar,6,13,hanamokatanamoMelancholicFolk,0.08797889947891235,0
58,100,0.6227272727272727,409,0,114,DL_MelancholicFolk_Guitar,6,10,hanamokatanamoMelancholicFolk,0.09298120439052582,0
53,100,0.1,553,0,114,DL_MelancholicFolk_Guitar,6,2,hanamokatanamoMelancholicFolk,0.10994523018598557,0
65,100,0.1,673,0,114,DL_MelancholicFolk_Guitar,6,2,hanamokatanamoMelancholicFolk,0.1286655068397522,0
65,100,0.2636363636363636,729,0,114,DL_MelancholicFolk_Guitar,6,4,hanamokatanamoMelancholicFolk,0.18221643567085266,0
60,100,0.2636363636363636,487,1,115,DL_MelancholicFolk_Guitar,6,4,hanamokatanamoMelancholicFolk,0.9983232617378235,1
60,100,0.23636363636363636,787,1,115,DL_MelancholicFolk_Guitar,6,4,hanamokatanamoMelancholicFolk,0.5462186932563782,1
60,100,0.23636363636363636,656,1,116,DL_MelancholicFolk_Guitar,6,4,hanamokatanamoMelancholicFolk,0.9983232617378235,1
60,100,2.7,734,0,116,DL_MelancholicFolk_Guitar,6,15,hanamokatanamoMelancholicFolk,0.546202540397644,1
65,100,0.2409090909090909,92,1,118,DL_MelancholicFolk_Guitar,6,4,hanamokatanamoMelancholicFolk,0.9990280866622925,1
65,100,0.35909090909090907,176,0,118,DL_MelancholicFolk_Guitar,6,6,hanamokatanamoMelancholicFolk,0.37033769488334656,0
65,100,0.11818181818181818,734,1,118,DL_MelancholicFolk_Guitar,6,2,hanamokatanamoMelancholicFolk,0.4561704695224762,0
65,100,0.5,210,1,119,DL_MelancholicFolk_Guitar,6,8,hanamokatanamoMelancholicFolk,0.9983232617378235,1
65,100,0.2409090909090909,483,1,119,DL_MelancholicFolk_Guitar,6,4,hanamokatanamoMelancholicFolk,0.5462151765823364,1
65,100,2.7181818181818183,426,1,120,DL_MelancholicFolk_Guitar,6,15,hanamokatanamoMelancholicFolk,0.9792221188545227,1
53,100,0.2818181818181818,510,1,0,DL_heartfullpop_2_Guitar,6,5,koumou_heartfullpop_ruriko,0.9988439083099365,1
60,100,0.1409090909090909,673,0,0,DL_heartfullpop_2_Guitar,6,2,koumou_heartfullpop_ruriko,0.13798193633556366,0
60,100,0.16363636363636364,708,0,0,DL_heartfullpop_2_Guitar,6,3,koumou_heartfullpop_ruriko,0.1623636931180954,0
60,100,0.2,748,0,0,DL_heartfullpop_2_Guitar,6,3,koumou_heartfullpop_ruriko,0.19105264544487,0
60,100,0.1,801,0,0,DL_heartfullpop_2_Guitar,6,2,koumou_heartfullpop_ruriko,0.2619659900665283,0
60,100,0.1590909090909091,343,1,1,DL_heartfullpop_2_Guitar,6,3,koumou_heartfullpop_ruriko,0.9990280866622925,1
60,100,0.3,695,1,1,DL_heartfullpop_2_Guitar,6,5,koumou_heartfullpop_ruriko,0.37034058570861816,0
53,100,0.16363636363636364,796,0,1,DL_heartfullpop_2_Guitar,6,3,koumou_heartfullpop_ruriko,0.45616480708122253,0
60,100,0.21818181818181817,106,1,2,DL_heartfullpop_2_Guitar,6,3,koumou_heartfullpop_ruriko,0.9990094900131226,1
60,100,0.3409090909090909,616,1,2,DL_heartfullpop_2_Guitar,6,5,koumou_heartfullpop_ruriko,0.23322515189647675,0
53,100,0.12272727272727273,694,0,2,DL_heartfullpop_2_Guitar,6,2,koumou_heartfullpop_ruriko,0.27058273553848267,0
60,100,0.3,761,0,2,DL_heartfullpop_2_Guitar,6,5,koumou_heartfullpop_ruriko,0.35792574286460876,0
65,100,0.21818181818181817,43,1,4,DL_heartfullpop_2_Guitar,6,3,koumou_heartfullpop_ruriko,0.9983231425285339,1
53,100,0.13636363636363635,875,1,4,DL_heartfullpop_2_Guitar,6,2,koumou_heartfullpop_ruriko,0.5462111234664917,1
65,100,0.21818181818181817,40,1,5,DL_heartfullpop_2_Guitar,6,3,koumou_heartfullpop_ruriko,0.9988439083099365,1
65,100,0.2409090909090909,189,0,5,DL_heartfullpop_2_Guitar,6,4,koumou_heartfullpop_ruriko,0.1379786729812622,0
58,100,0.2,391,0,5,DL_heartfullpop_2_Guitar,6,3,koumou_heartfullpop_ruriko,0.16236194968223572,0
53,100,0.1590909090909091,721,1,5,DL_heartfullpop_2_Guitar,6,3,koumou_heartfullpop_ruriko,0.191054105758667,0
53,100,0.4409090909090909,770,0,5,DL_heartfullpop_2_Guitar,6,7,koumou_heartfullpop_ruriko,0.26195546984672546,0
53,100,0.1590909090909091,150,1,6,DL_heartfullpop_2_Guitar,6,3,koumou_heartfullpop_ruriko,0.9986506104469299,1
53,100,0.17727272727272728,545,1,6,DL_heartfullpop_2_Guitar,6,3,koumou_heartfullpop_ruriko,0.08797627687454224,0
53,100,0.12272727272727273,598,0,6,DL_heartfullpop_2_Guitar,6,2,koumou_heartfullpop_ruriko,0.09298161417245865,0
53,100,0.11818181818181818,721,0,6,DL_heartfullpop_2_Guitar,6,2,koumou_heartfullpop_ruriko,0.10994529724121094,0
65,100,0.1,774,0,6,DL_heartfullpop_2_Guitar,6,2,koumou_heartfullpop_ruriko,0.1286664754152298,0
53,100,0.11818181818181818,801,0,6,DL_heartfullpop_2_Guitar,6,2,koumou_heartfullpop_ruriko,0.18221226334571838,0
53,100,0.38181818181818183,506,1,7,DL_heartfullpop_2_Guitar,6,6,koumou_heartfullpop_ruriko,0.9792240262031555,1
65,100,0.1,0,1,8,DL_heartfullpop_2_Guitar,6,2,koumou_heartfullpop_ruriko,0.979223906993866,1
65,100,0.21818181818181817,171,1,9,DL_heartfullpop_2_Guitar,6,3,koumou_heartfullpop_ruriko,0.9792237281799316,1
53,100,0.3409090909090909,13,1,10,DL_heartfullpop_2_Guitar,6,5,koumou_heartfullpop_ruriko,0.9984879493713379,1
53,100,0.4,118,0,10,DL_heartfullpop_2_Guitar,6,6,koumou_heartfullpop_ruriko,0.06335251033306122,0
60,100,0.4772727272727273,216,0,10,DL_heartfullpop_2_Guitar,6,8,koumou_heartfullpop_ruriko,0.05828986316919327,0
60,100,0.5590909090909091,391,0,10,DL_heartfullpop_2_Guitar,6,9,koumou_heartfullpop_ruriko,0.0613616444170475,0
53,100,0.23636363636363636,524,0,10,DL_heartfullpop_2_Guitar,6,4,koumou_heartfullpop_ruriko,0.07168170809745789,0
60,100,0.5409090909090909,584,0,10,DL_heartfullpop_2_Guitar,6,9,koumou_heartfullpop_ruriko,0.08473725616931915,0
53,100,0.3,756,0,10,DL_heartfullpop_2_Guitar,6,5,koumou_heartfullpop_ruriko,0.12635096907615662,0
53,100,0.2772727272727273,17,1,11,DL_heartfullpop_2_Guitar,6,4,koumou_heartfullpop_ruriko,0.9986506104469299,1
65,100,0.1590909090909091,79,0,11,DL_heartfullpop_2_Guitar,6,3,koumou_heartfullpop_ruriko,0.08797792345285416,0
53,100,0.12272727272727273,113,0,11,DL_heartfullpop_2_Guitar,6,2,koumou_heartfullpop_ruriko,0.0929826945066452,0
53,100,0.3181818181818182,149,0,11,DL_heartfullpop_2_Guitar,6,5,koumou_heartfullpop_ruriko,0.10994719713926315,0
60,100,0.5363636363636364,281,0,11,DL_heartfullpop_2_Guitar,6,9,koumou_heartfullpop_ruriko,0.12866954505443573,0
60,100,0.1,422,0,11,DL_heartfullpop_2_Guitar,6,2,koumou_heartfullpop_ruriko,0.18221767246723175,0
57,100,0.5,61,1,12,DL_heartfullpop_2_Guitar,6,8,koumou_heartfullpop_ruriko,0.9988439083099365,1
62,100,0.2,206,0,12,DL_heartfullpop_2_Guitar,6,3,koumou_heartfullpop_ruriko,0.13798169791698456,0
61,100,0.1409090909090909,250,0,12,DL_heartfullpop_2_Guitar,6,2,koumou_heartfullpop_ruriko,0.16236309707164764,0
53,100,0.3181818181818182,307,0,12,DL_heartfullpop_2_Guitar,6,5,koumou_heartfullpop_ruriko,0.1910480409860611,0
58,100,0.5181818181818182,594,1,12,DL_heartfullpop_2_Guitar,6,8,koumou_heartfullpop_ruriko,0.26196223497390747,0
58,100,0.2409090909090909,233,1,13,DL_heartfullpop_2_Guitar,6,4,koumou_heartfullpop_ruriko,0.9983232617378235,1
53,100,0.21818181818181817,589,1,13,DL_heartfullpop_2_Guitar,6,3,koumou_heartfullpop_ruriko,0.5462083220481873,1
53,100,0.22272727272727272,708,1,14,DL_heartfullpop_2_Guitar,6,4,koumou_heartfullpop_ruriko,0.9990280866622925,1
60,100,0.2409090909090909,773,0,14,DL_heartfullpop_2_Guitar,6,4,koumou_heartfullpop_ruriko,0.37034398317337036,0
60,100,0.23636363636363636,831,0,14,DL_heartfullpop_2_Guitar,6,4,koumou_heartfullpop_ruriko,0.4561713635921478,0
53,100,0.2409090909090909,70,1,15,DL_heartfullpop_2_Guitar,6,4,koumou_heartfullpop_ruriko,0.9983735084533691,1
53,100,0.42272727272727273,158,0,15,DL_heartfullpop_2_Guitar,6,7,koumou_heartfullpop_ruriko,0.05104951187968254,0
53,100,0.35909090909090907,254,0,15,DL_heartfullpop_2_Guitar,6,6,koumou_heartfullpop_ruriko,0.0416114367544651,0
53,100,0.35909090909090907,391,0,15,DL_heartfullpop_2_Guitar,6,6,koumou_heartfullpop_ruriko,0.037977997213602066,0
60,100,0.33636363636363636,656,1,15,DL_heartfullpop_2_Guitar,6,5,koumou_heartfullpop_ruriko,0.03925914689898491,0
60,100,0.11818181818181818,756,0,15,DL_heartfullpop_2_Guitar,6,2,koumou_heartfullpop_ruriko,0.04616384208202362,0
60,100,0.1,840,0,15,DL_heartfullpop_2_Guitar,6,2,koumou_heartfullpop_ruriko,0.05712895467877388,0
60,100,0.1409090909090909,866,0,15,DL_heartfullpop_2_Guitar,6,2,koumou_heartfullpop_ruriko,0.0918770581483841,0
53,100,0.22272727272727272,26,1,16,DL_heartfullpop_2_Guitar,6,4,koumou_heartfullpop_ruriko,0.9983004927635193,1
60,100,0.12272727272727273,92,0,16,DL_heartfullpop_2_Guitar,6,2,koumou_heartfullpop_ruriko,0.044662922620773315,0
60,100,0.2590909090909091,220,0,16,DL_heartfullpop_2_Guitar,6,4,koumou_heartfullpop_ruriko,0.03337112441658974,0
60,100,0.18181818181818182,308,0,16,DL_heartfullpop_2_Guitar,6,3,koumou_heartfullpop_ruriko,0.026947416365146637,0
53,100,0.21818181818181817,347,0,16,DL_heartfullpop_2_Guitar,6,3,koumou_heartfullpop_ruriko,0.0240828525274992,0
60,100,0.17727272727272728,501,0,16,DL_heartfullpop_2_Guitar,6,3,koumou_heartfullpop_ruriko,0.02497246488928795,0
53,100,0.35909090909090907,540,0,16,DL_heartfullpop_2_Guitar,6,6,koumou_heartfullpop_ruriko,0.030646607279777527,0
53,100,0.4,669,0,16,DL_heartfullpop_2_Guitar,6,6,koumou_heartfullpop_ruriko,0.04136771336197853,0
65,100,0.2409090909090909,756,0,16,DL_heartfullpop_2_Guitar,6,4,koumou_heartfullpop_ruriko,0.07206834852695465,0
53,100,0.11818181818181818,9,1,17,DL_heartfullpop_2_Guitar,6,2,koumou_heartfullpop_ruriko,0.9983004927635193,1
53,100,0.4590909090909091,57,0,17,DL_heartfullpop_2_Guitar,6,7,koumou_heartfullpop_ruriko,0.044661711901426315,0
62,100,0.1409090909090909,175,0,17,DL_heartfullpop_2_Guitar,6,2,koumou_heartfullpop_ruriko,0.033371783792972565,0
62,100,0.11818181818181818,216,0,17,DL_heartfullpop_2_Guitar,6,2,koumou_heartfullpop_ruriko,0.026947928592562675,0
65,100,0.12272727272727273,488,1,17,DL_heartfullpop_2_Guitar,6,2,koumou_heartfullpop_ruriko,0.024083806201815605,0
57,100,0.32272727272727275,576,0,17,DL_heartfullpop_2_Guitar,6,5,koumou_heartfullpop_ruriko,0.024973126128315926,0
62,100,0.18181818181818182,663,0,17,DL_heartfullpop_2_Guitar,6,3,koumou_heartfullpop_ruriko,0.03064781054854393,0
62,100,0.1409090909090909,783,0,17,DL_heartfullpop_2_Guitar,6,2,koumou_heartfullpop_ruriko,0.04136958718299866,0
65,100,0.35909090909090907,858,0,17,DL_heartfullpop_2_Guitar,6,6,koumou_heartfullpop_ruriko,0.07207019627094269,0
57,100,0.11818181818181818,295,1,18,DL_heartfullpop_2_Guitar,6,2,koumou_heartfullpop_ruriko,0.9990094900131226,1
62,100,0.2818181818181818,443,0,18,DL_heartfullpop_2_Guitar,6,5,koumou_heartfullpop_ruriko,0.23324225842952728,0
53,100,0.3,607,0,18,DL_heartfullpop_2_Guitar,6,5,koumou_heartfullpop_ruriko,0.2705868184566498,0
62,100,0.21818181818181817,858,1,18,DL_heartfullpop_2_Guitar,6,3,koumou_heartfullpop_ruriko,0.35793715715408325,0
65,100,0.2409090909090909,57,1,19,DL_heartfullpop_2_Guitar,6,4,koumou_heartfullpop_ruriko,0.9986506104469299,1
65,100,0.4590909090909091,131,0,19,DL_heartfullpop_2_Guitar,6,7,koumou_heartfullpop_ruriko,0.08797746896743774,0
60,100,0.2409090909090909,405,1,19,DL_heartfullpop_2_Guitar,6,4,koumou_heartfullpop_ruriko,0.09298277646303177,0
53,100,0.2636363636363636,488,0,19,DL_heartfullpop_2_Guitar,6,4,koumou_heartfullpop_ruriko,0.10994506627321243,0
53,100,0.35909090909090907,681,0,19,DL_heartfullpop_2_Guitar,6,6,koumou_heartfullpop_ruriko,0.1286652535200119,0
62,100,0.11818181818181818,810,0,19,DL_heartfullpop_2_Guitar,6,2,koumou_heartfullpop_ruriko,0.1822158247232437,0
53,100,0.9409090909090909,9,1,20,DL_heartfullpop_2_Guitar,6,15,koumou_heartfullpop_ruriko,0.9982556700706482,1
65,100,0.17727272727272728,216,0,20,DL_heartfullpop_2_Guitar,6,3,koumou_heartfullpop_ruriko,0.04129263386130333,0
53,100,0.2,254,0,20,DL_heartfullpop_2_Guitar,6,3,koumou_heartfullpop_ruriko,0.029124049469828606,0
62,100,0.2590909090909091,320,0,20,DL_heartfullpop_2_Guitar,6,4,koumou_heartfullpop_ruriko,0.021568747237324715,0
53,100,0.2,391,0,20,DL_heartfullpop_2_Guitar,6,3,koumou_heartfullpop_ruriko,0.01705838367342949,0
65,100,0.1409090909090909,449,0,20,DL_heartfullpop_2_Guitar,6,2,koumou_heartfullpop_ruriko,0.015267666429281235,0
53,100,0.36363636363636365,509,0,20,DL_heartfullpop_2_Guitar,6,6,koumou_heartfullpop_ruriko,0.01645542122423649,0
62,100,0.1409090909090909,602,0,20,DL_heartfullpop_2_Guitar,6,2,koumou_heartfullpop_ruriko,0.021836532279849052,0
53,100,0.740909090909091,642,0,20,DL_heartfullpop_2_Guitar,6,12,koumou_heartfullpop_ruriko,0.032516688108444214,0
65,100,0.18181818181818182,818,0,20,DL_heartfullpop_2_Guitar,6,3,koumou_heartfullpop_ruriko,0.060912251472473145,0
65,100,0.4409090909090909,52,1,21,DL_heartfullpop_2_Guitar,6,7,koumou_heartfullpop_ruriko,0.9982556700706482,1
53,100,0.33636363636363636,150,0,21,DL_heartfullpop_2_Guitar,6,5,koumou_heartfullpop_ruriko,0.041292496025562286,0
62,100,0.11818181818181818,241,0,21,DL_heartfullpop_2_Guitar,6,2,koumou_heartfullpop_ruriko,0.02912471629679203,0
62,100,0.18181818181818182,299,0,21,DL_heartfullpop_2_Guitar,6,3,koumou_heartfullpop_ruriko,0.021568750962615013,0
65,100,0.3,356,0,21,DL_heartfullpop_2_Guitar,6,5,koumou_heartfullpop_ruriko,0.017058664932847023,0
53,100,0.2,422,0,21,DL_heartfullpop_2_Guitar,6,3,koumou_heartfullpop_ruriko,0.01526762917637825,0
65,100,0.11818181818181818,550,0,21,DL_heartfullpop_2_Guitar,6,2,koumou_heartfullpop_ruriko,0.016455188393592834,0
65,100,0.12272727272727273,642,0,21,DL_heartfullpop_2_Guitar,6,2,koumou_heartfullpop_ruriko,0.021836744621396065,0
53,100,0.4,669,0,21,DL_heartfullpop_2_Guitar,6,6,koumou_heartfullpop_ruriko,0.032516732811927795,0
53,100,0.1409090909090909,804,0,21,DL_heartfullpop_2_Guitar,6,2,koumou_heartfullpop_ruriko,0.060910098254680634,0
55,100,0.3,30,1,22,DL_heartfullpop_2_Guitar,6,5,koumou_heartfullpop_ruriko,0.9984880685806274,1
62,100,0.5590909090909091,171,0,22,DL_heartfullpop_2_Guitar,6,9,koumou_heartfullpop_ruriko,0.06335414946079254,0
53,100,0.2409090909090909,316,0,22,DL_heartfullpop_2_Guitar,6,4,koumou_heartfullpop_ruriko,0.05828992277383804,0
62,100,0.18181818181818182,528,0,22,DL_heartfullpop_2_Guitar,6,3,koumou_heartfullpop_ruriko,0.06136278063058853,0
62,100,0.4590909090909091,594,0,22,DL_heartfullpop_2_Guitar,6,7,koumou_heartfullpop_ruriko,0.07168544828891754,0
62,100,0.12272727272727273,729,0,22,DL_heartfullpop_2_Guitar,6,2,koumou_heartfullpop_ruriko,0.08473984152078629,0
53,100,0.1409090909090909,801,0,22,DL_heartfullpop_2_Guitar,6,2,koumou_heartfullpop_ruriko,0.12635429203510284,0
53,100,0.21818181818181817,0,1,23,DL_heartfullpop_2_Guitar,6,3,koumou_heartfullpop_ruriko,0.9983735084533691,1
53,100,0.22272727272727272,79,0,23,DL_heartfullpop_2_Guitar,6,4,koumou_heartfullpop_ruriko,0.051048655062913895,0
60,100,0.1590909090909091,150,0,23,DL_heartfullpop_2_Guitar,6,3,koumou_heartfullpop_ruriko,0.04161146655678749,0
65,100,0.18181818181818182,356,0,23,DL_heartfullpop_2_Guitar,6,3,koumou_heartfullpop_ruriko,0.037976812571287155,0
53,100,0.4590909090909091,453,0,23,DL_heartfullpop_2_Guitar,6,7,koumou_heartfullpop_ruriko,0.03925756365060806,0
53,100,0.2772727272727273,590,0,23,DL_heartfullpop_2_Guitar,6,4,koumou_heartfullpop_ruriko,0.046162016689777374,0
60,100,0.3,779,0,23,DL_heartfullpop_2_Guitar,6,5,koumou_heartfullpop_ruriko,0.05712926387786865,0
53,100,0.2,862,0,23,DL_heartfullpop_2_Guitar,6,3,koumou_heartfullpop_ruriko,0.09187730401754379,0
53,100,0.7181818181818181,119,1,24,DL_heartfullpop_2_Guitar,6,11,koumou_heartfullpop_ruriko,0.9988439083099365,1
60,100,0.4590909090909091,347,0,24,DL_heartfullpop_2_Guitar,6,7,koumou_heartfullpop_ruriko,0.137979656457901,0
53,100,0.13636363636363635,567,0,24,DL_heartfullpop_2_Guitar,6,2,koumou_heartfullpop_ruriko,0.1623598039150238,0
53,100,0.11818181818181818,656,0,24,DL_heartfullpop_2_Guitar,6,2,koumou_heartfullpop_ruriko,0.19105081260204315,0
53,100,0.37727272727272726,735,0,24,DL_heartfullpop_2_Guitar,6,6,koumou_heartfullpop_ruriko,0.2619569003582001,0
60,100,0.13636363636363635,61,1,25,DL_heartfullpop_2_Guitar,6,2,koumou_heartfullpop_ruriko,0.9983735084533691,1
53,100,0.1409090909090909,144,0,25,DL_heartfullpop_2_Guitar,6,2,koumou_heartfullpop_ruriko,0.05104893073439598,0
53,100,0.4409090909090909,206,0,25,DL_heartfullpop_2_Guitar,6,7,koumou_heartfullpop_ruriko,0.04161085560917854,0
60,100,0.4590909090909091,440,1,25,DL_heartfullpop_2_Guitar,6,7,koumou_heartfullpop_ruriko,0.037979722023010254,0
60,100,0.1409090909090909,563,0,25,DL_heartfullpop_2_Guitar,6,2,koumou_heartfullpop_ruriko,0.039258211851119995,0
60,100,0.16363636363636364,729,0,25,DL_heartfullpop_2_Guitar,6,3,koumou_heartfullpop_ruriko,0.04616451635956764,0
53,100,0.23636363636363636,766,0,25,DL_heartfullpop_2_Guitar,6,4,koumou_heartfullpop_ruriko,0.05712928995490074,0
60,100,0.1,839,0,25,DL_heartfullpop_2_Guitar,6,2,koumou_heartfullpop_ruriko,0.09187785536050797,0
53,100,0.6227272727272727,26,1,26,DL_heartfullpop_2_Guitar,6,10,koumou_heartfullpop_ruriko,0.9988439083099365,1
53,100,0.1590909090909091,175,0,26,DL_heartfullpop_2_Guitar,6,3,koumou_heartfullpop_ruriko,0.13797900080680847,0
60,100,0.13636363636363635,216,0,26,DL_heartfullpop_2_Guitar,6,2,koumou_heartfullpop_ruriko,0.1623595952987671,0
53,100,0.7,370,0,26,DL_heartfullpop_2_Guitar,6,11,koumou_heartfullpop_ruriko,0.19104766845703125,0
60,100,0.4772727272727273,779,1,26,DL_heartfullpop_2_Guitar,6,8,koumou_heartfullpop_ruriko,0.2619612216949463,0
65,100,0.3409090909090909,162,1,27,DL_heartfullpop_2_Guitar,6,5,koumou_heartfullpop_ruriko,0.9792238473892212,1
65,100,0.2,113,1,28,DL_heartfullpop_2_Guitar,6,3,koumou_heartfullpop_ruriko,0.9990094900131226,1
57,100,0.18181818181818182,356,1,28,DL_heartfullpop_2_Guitar,6,3,koumou_heartfullpop_ruriko,0.23322825133800507,0
62,100,0.4,584,0,28,DL_heartfullpop_2_Guitar,6,6,koumou_heartfullpop_ruriko,0.2705874443054199,0
53,100,0.5,796,0,28,DL_heartfullpop_2_Guitar,6,8,koumou_heartfullpop_ruriko,0.3579303026199341,0
60,100,1.2818181818181817,88,1,29,DL_heartfullpop_2_Guitar,6,15,koumou_heartfullpop_ruriko,0.9988439083099365,1
53,100,0.3409090909090909,492,1,29,DL_heartfullpop_2_Guitar,6,5,koumou_heartfullpop_ruriko,0.1379793882369995,0
65,100,0.2,567,0,29,DL_heartfullpop_2_Guitar,6,3,koumou_heartfullpop_ruriko,0.16236326098442078,0
53,100,0.32272727272727275,629,0,29,DL_heartfullpop_2_Guitar,6,5,koumou_heartfullpop_ruriko,0.19105328619480133,0
65,100,0.18181818181818182,708,0,29,DL_heartfullpop_2_Guitar,6,3,koumou_heartfullpop_ruriko,0.26195913553237915,0
60,100,0.2818181818181818,3,1,30,DL_heartfullpop_2_Guitar,6,5,koumou_heartfullpop_ruriko,0.9984879493713379,1
53,100,0.4409090909090909,131,0,30,DL_heartfullpop_2_Guitar,6,7,koumou_heartfullpop_ruriko,0.06335171312093735,0
65,100,0.4409090909090909,229,0,30,DL_heartfullpop_2_Guitar,6,7,koumou_heartfullpop_ruriko,0.05828706547617912,0
53,100,0.2590909090909091,326,0,30,DL_heartfullpop_2_Guitar,6,4,koumou_heartfullpop_ruriko,0.061359159648418427,0
65,100,0.33636363636363636,413,0,30,DL_heartfullpop_2_Guitar,6,5,koumou_heartfullpop_ruriko,0.07167937606573105,0
60,100,0.2,650,1,30,DL_heartfullpop_2_Guitar,6,3,koumou_heartfullpop_ruriko,0.0847323015332222,0
60,100,0.2636363636363636,708,0,30,DL_heartfullpop_2_Guitar,6,4,koumou_heartfullpop_ruriko,0.12634646892547607,0
62,100,0.35909090909090907,21,1,31,DL_heartfullpop_2_Guitar,6,6,koumou_heartfullpop_ruriko,0.9990094900131226,1
60,100,0.33636363636363636,150,0,31,DL_heartfullpop_2_Guitar,6,5,koumou_heartfullpop_ruriko,0.23323515057563782,0
53,100,0.22272727272727272,223,0,31,DL_heartfullpop_2_Guitar,6,4,koumou_heartfullpop_ruriko,0.2705773413181305,0
62,100,0.1590909090909091,501,1,31,DL_heartfullpop_2_Guitar,6,3,koumou_heartfullpop_ruriko,0.3579312562942505,0
53,100,0.3,748,1,32,DL_heartfullpop_2_Guitar,6,5,koumou_heartfullpop_ruriko,0.9983231425285339,1
60,100,0.43636363636363634,875,0,32,DL_heartfullpop_2_Guitar,6,7,koumou_heartfullpop_ruriko,0.5462197661399841,1
53,100,0.2,330,1,33,DL_heartfullpop_2_Guitar,6,3,koumou_heartfullpop_ruriko,0.9792245030403137,1
53,100,0.1,91,1,34,DL_heartfullpop_2_Guitar,6,2,koumou_heartfullpop_ruriko,0.9983735084533691,1
65,100,0.2,114,0,34,DL_heartfullpop_2_Guitar,6,3,koumou_heartfullpop_ruriko,0.05105074495077133,0
62,100,0.2590909090909091,228,0,34,DL_heartfullpop_2_Guitar,6,4,koumou_heartfullpop_ruriko,0.041612349450588226,0
62,100,0.21818181818181817,295,0,34,DL_heartfullpop_2_Guitar,6,3,koumou_heartfullpop_ruriko,0.03798125311732292,0
53,100,0.2636363636363636,356,0,34,DL_heartfullpop_2_Guitar,6,4,koumou_heartfullpop_ruriko,0.03926189988851547,0
62,100,0.3,418,0,34,DL_heartfullpop_2_Guitar,6,5,koumou_heartfullpop_ruriko,0.04616774991154671,0
53,100,0.12272727272727273,628,0,34,DL_heartfullpop_2_Guitar,6,2,koumou_heartfullpop_ruriko,0.0571335032582283,0
58,100,0.13636363636363635,700,0,34,DL_heartfullpop_2_Guitar,6,2,koumou_heartfullpop_ruriko,0.09188367426395416,0
62,100,0.17727272727272728,8,1,35,DL_heartfullpop_2_Guitar,6,3,koumou_heartfullpop_ruriko,0.9983004927635193,1
53,100,0.3,78,0,35,DL_heartfullpop_2_Guitar,6,5,koumou_heartfullpop_ruriko,0.04466168209910393,0
65,100,0.1590909090909091,144,0,35,DL_heartfullpop_2_Guitar,6,3,koumou_heartfullpop_ruriko,0.033371832221746445,0
62,100,0.9,251,0,35,DL_heartfullpop_2_Guitar,6,14,koumou_heartfullpop_ruriko,0.026947416365146637,0
62,100,0.1409090909090909,471,0,35,DL_heartfullpop_2_Guitar,6,2,koumou_heartfullpop_ruriko,0.024083571508526802,0
53,100,0.2590909090909091,528,0,35,DL_heartfullpop_2_Guitar,6,4,koumou_heartfullpop_ruriko,0.024972498416900635,0
69,100,0.1409090909090909,593,0,35,DL_heartfullpop_2_Guitar,6,2,koumou_heartfullpop_ruriko,0.030647514387965202,0
62,100,0.6590909090909091,691,0,35,DL_heartfullpop_2_Guitar,6,11,koumou_heartfullpop_ruriko,0.04136945307254791,0
65,100,0.1409090909090909,836,0,35,DL_heartfullpop_2_Guitar,6,2,koumou_heartfullpop_ruriko,0.07206974923610687,0
64,100,0.8,13,1,36,DL_heartfullpop_2_Guitar,6,13,koumou_heartfullpop_ruriko,0.9984879493713379,1
60,100,0.21818181818181817,228,0,36,DL_heartfullpop_2_Guitar,6,3,koumou_heartfullpop_ruriko,0.06335468590259552,0
60,100,0.4636363636363636,289,0,36,DL_heartfullpop_2_Guitar,6,7,koumou_heartfullpop_ruriko,0.058290064334869385,0
64,100,0.35909090909090907,453,0,36,DL_heartfullpop_2_Guitar,6,6,koumou_heartfullpop_ruriko,0.06136331707239151,0
60,100,0.2409090909090909,554,0,36,DL_heartfullpop_2_Guitar,6,4,koumou_heartfullpop_ruriko,0.07168659567832947,0
57,100,0.2590909090909091,611,0,36,DL_heartfullpop_2_Guitar,6,4,koumou_heartfullpop_ruriko,0.08473912626504898,0
60,100,0.5181818181818182,748,0,36,DL_heartfullpop_2_Guitar,6,8,koumou_heartfullpop_ruriko,0.12635912001132965,0
57,100,0.1409090909090909,4,1,37,DL_heartfullpop_2_Guitar,6,2,koumou_heartfullpop_ruriko,0.9990280866622925,1
69,100,0.21818181818181817,110,0,37,DL_heartfullpop_2_Guitar,6,3,koumou_heartfullpop_ruriko,0.3703450858592987,0
62,100,0.13636363636363635,655,1,37,DL_heartfullpop_2_Guitar,6,2,koumou_heartfullpop_ruriko,0.4561750292778015,0
62,100,0.1590909090909091,43,1,38,DL_heartfullpop_2_Guitar,6,3,koumou_heartfullpop_ruriko,0.9984879493713379,1
64,100,0.11818181818181818,241,0,38,DL_heartfullpop_2_Guitar,6,2,koumou_heartfullpop_ruriko,0.06335432827472687,0
65,100,0.22272727272727272,268,0,38,DL_heartfullpop_2_Guitar,6,4,koumou_heartfullpop_ruriko,0.05828835815191269,0
53,100,0.11818181818181818,330,0,38,DL_heartfullpop_2_Guitar,6,2,koumou_heartfullpop_ruriko,0.061361271888017654,0
53,100,0.22272727272727272,541,0,38,DL_heartfullpop_2_Guitar,6,4,koumou_heartfullpop_ruriko,0.07168097048997879,0
53,100,0.1409090909090909,713,0,38,DL_heartfullpop_2_Guitar,6,2,koumou_heartfullpop_ruriko,0.08473517745733261,0
62,100,0.11818181818181818,756,0,38,DL_heartfullpop_2_Guitar,6,2,koumou_heartfullpop_ruriko,0.12634792923927307,0
65,100,0.3181818181818182,31,1,39,DL_heartfullpop_2_Guitar,6,5,koumou_heartfullpop_ruriko,0.9988439083099365,1
53,100,0.37727272727272726,105,0,39,DL_heartfullpop_2_Guitar,6,6,koumou_heartfullpop_ruriko,0.1379789113998413,0
58,100,0.1409090909090909,276,0,39,DL_heartfullpop_2_Guitar,6,2,koumou_heartfullpop_ruriko,0.16236087679862976,0
65,100,0.2409090909090909,364,0,39,DL_heartfullpop_2_Guitar,6,4,koumou_heartfullpop_ruriko,0.19104725122451782,0
60,100,0.4409090909090909,861,1,39,DL_heartfullpop_2_Guitar,6,7,koumou_heartfullpop_ruriko,0.2619582414627075,0
60,100,0.5636363636363636,268,1,40,DL_heartfullpop_2_Guitar,6,9,koumou_heartfullpop_ruriko,0.9986506104469299,1
60,100,0.1,421,0,40,DL_heartfullpop_2_Guitar,6,2,koumou_heartfullpop_ruriko,0.08797892183065414,0
65,100,0.12272727272727273,606,0,40,DL_heartfullpop_2_Guitar,6,2,koumou_heartfullpop_ruriko,0.09298297762870789,0
53,100,0.3181818181818182,638,0,40,DL_heartfullpop_2_Guitar,6,5,koumou_heartfullpop_ruriko,0.10994748771190643,0
53,100,0.2590909090909091,765,0,40,DL_heartfullpop_2_Guitar,6,4,koumou_heartfullpop_ruriko,0.1286706030368805,0
53,100,0.3,839,0,40,DL_heartfullpop_2_Guitar,6,5,koumou_heartfullpop_ruriko,0.1822119653224945,0
62,100,0.4,61,1,41,DL_heartfullpop_2_Guitar,6,6,koumou_heartfullpop_ruriko,0.9990094900131226,1
62,100,0.4409090909090909,440,1,41,DL_heartfullpop_2_Guitar,6,7,koumou_heartfullpop_ruriko,0.23324048519134521,0
62,100,0.2818181818181818,563,0,41,DL_heartfullpop_2_Guitar,6,5,koumou_heartfullpop_ruriko,0.27058637142181396,0
60,100,0.5590909090909091,668,0,41,DL_heartfullpop_2_Guitar,6,9,koumou_heartfullpop_ruriko,0.35793617367744446,0
53,100,0.17727272727272728,75,1,43,DL_heartfullpop_2_Guitar,6,3,koumou_heartfullpop_ruriko,0.9983004927635193,1
57,100,0.33636363636363636,193,0,43,DL_heartfullpop_2_Guitar,6,5,koumou_heartfullpop_ruriko,0.04466190189123154,0
65,100,0.12272727272727273,356,0,43,DL_heartfullpop_2_Guitar,6,2,koumou_heartfullpop_ruriko,0.03337078541517258,0
53,100,0.2772727272727273,383,0,43,DL_heartfullpop_2_Guitar,6,4,koumou_heartfullpop_ruriko,0.026946360245347023,0
53,100,0.32272727272727275,453,0,43,DL_heartfullpop_2_Guitar,6,5,koumou_heartfullpop_ruriko,0.024082651361823082,0
57,100,0.17727272727272728,545,0,43,DL_heartfullpop_2_Guitar,6,3,koumou_heartfullpop_ruriko,0.02497103065252304,0
53,100,0.22272727272727272,598,0,43,DL_heartfullpop_2_Guitar,6,4,koumou_heartfullpop_ruriko,0.03064640238881111,0
53,100,0.32272727272727275,716,0,43,DL_heartfullpop_2_Guitar,6,5,koumou_heartfullpop_ruriko,0.04136597365140915,0
53,100,0.23636363636363636,853,0,43,DL_heartfullpop_2_Guitar,6,4,koumou_heartfullpop_ruriko,0.07206845283508301,0
57,100,0.32272727272727275,144,1,44,DL_heartfullpop_2_Guitar,6,5,koumou_heartfullpop_ruriko,0.9983004927635193,1
53,100,0.3409090909090909,228,0,44,DL_heartfullpop_2_Guitar,6,5,koumou_heartfullpop_ruriko,0.044662024825811386,0
57,100,0.18181818181818182,378,0,44,DL_heartfullpop_2_Guitar,6,3,koumou_heartfullpop_ruriko,0.0333709642291069,0
53,100,0.2,493,0,44,DL_heartfullpop_2_Guitar,6,3,koumou_heartfullpop_ruriko,0.026947518810629845,0
53,100,0.6590909090909091,545,0,44,DL_heartfullpop_2_Guitar,6,11,koumou_heartfullpop_ruriko,0.024082450196146965,0
53,100,0.18181818181818182,751,0,44,DL_heartfullpop_2_Guitar,6,3,koumou_heartfullpop_ruriko,0.02497185952961445,0
65,100,0.1409090909090909,791,0,44,DL_heartfullpop_2_Guitar,6,2,koumou_heartfullpop_ruriko,0.03064623847603798,0
53,100,0.1409090909090909,823,0,44,DL_heartfullpop_2_Guitar,6,2,koumou_heartfullpop_ruriko,0.04136853665113449,0
53,100,0.8181818181818182,875,0,44,DL_heartfullpop_2_Guitar,6,13,koumou_heartfullpop_ruriko,0.07206608355045319,0
53,100,0.4409090909090909,211,1,45,DL_heartfullpop_2_Guitar,6,7,koumou_heartfullpop_ruriko,0.9990280866622925,1
62,100,0.2590909090909091,496,1,45,DL_heartfullpop_2_Guitar,6,4,koumou_heartfullpop_ruriko,0.37034618854522705,0
62,100,0.1590909090909091,558,0,45,DL_heartfullpop_2_Guitar,6,3,koumou_heartfullpop_ruriko,0.4561753273010254,0
62,100,0.37727272727272726,348,1,46,DL_heartfullpop_2_Guitar,6,6,koumou_heartfullpop_ruriko,0.9988439083099365,1
62,100,0.2409090909090909,474,0,46,DL_heartfullpop_2_Guitar,6,4,koumou_heartfullpop_ruriko,0.1379873901605606,0
65,100,0.22272727272727272,619,0,46,DL_heartfullpop_2_Guitar,6,4,koumou_heartfullpop_ruriko,0.16236905753612518,0
62,100,0.4,694,0,46,DL_heartfullpop_2_Guitar,6,6,koumou_heartfullpop_ruriko,0.1910635530948639,0
62,100,0.1409090909090909,861,0,46,DL_heartfullpop_2_Guitar,6,2,koumou_heartfullpop_ruriko,0.2619737684726715,0
62,100,0.13636363636363635,61,1,47,DL_heartfullpop_2_Guitar,6,2,koumou_heartfullpop_ruriko,0.9990280866622925,1
62,100,0.3,496,1,47,DL_heartfullpop_2_Guitar,6,5,koumou_heartfullpop_ruriko,0.37034574151039124,0
53,100,0.3,638,0,47,DL_heartfullpop_2_Guitar,6,5,koumou_heartfullpop_ruriko,0.456171452999115,0
53,100,0.12272727272727273,201,1,48,DL_heartfullpop_2_Guitar,6,2,koumou_heartfullpop_ruriko,0.9988439083099365,1
53,100,0.22272727272727272,453,1,48,DL_heartfullpop_2_Guitar,6,4,koumou_heartfullpop_ruriko,0.13797812163829803,0
53,100,0.1590909090909091,506,0,48,DL_heartfullpop_2_Guitar,6,3,koumou_heartfullpop_ruriko,0.16236065328121185,0
53,100,0.41818181818181815,655,0,48,DL_heartfullpop_2_Guitar,6,7,koumou_heartfullpop_ruriko,0.1910482943058014,0
53,100,0.2590909090909091,853,0,48,DL_heartfullpop_2_Guitar,6,4,koumou_heartfullpop_ruriko,0.26195651292800903,0
53,100,0.2818181818181818,179,1,49,DL_heartfullpop_2_Guitar,6,5,koumou_heartfullpop_ruriko,0.9986506104469299,1
62,100,0.11818181818181818,458,1,49,DL_heartfullpop_2_Guitar,6,2,koumou_heartfullpop_ruriko,0.08797911554574966,0
60,100,0.1409090909090909,515,0,49,DL_heartfullpop_2_Guitar,6,2,koumou_heartfullpop_ruriko,0.09298606961965561,0
53,100,0.17727272727272728,558,0,49,DL_heartfullpop_2_Guitar,6,3,koumou_heartfullpop_ruriko,0.10994759947061539,0
53,100,0.5590909090909091,738,0,49,DL_heartfullpop_2_Guitar,6,9,koumou_heartfullpop_ruriko,0.12866927683353424,0
53,100,0.1590909090909091,871,0,49,DL_heartfullpop_2_Guitar,6,3,koumou_heartfullpop_ruriko,0.18222011625766754,0
65,100,0.18181818181818182,26,1,50,DL_heartfullpop_2_Guitar,6,3,koumou_heartfullpop_ruriko,0.9988439083099365,1
53,100,0.1409090909090909,66,0,50,DL_heartfullpop_2_Guitar,6,2,koumou_heartfullpop_ruriko,0.1379796713590622,0
62,100,0.4409090909090909,185,0,50,DL_heartfullpop_2_Guitar,6,7,koumou_heartfullpop_ruriko,0.16236022114753723,0
60,100,0.3,396,0,50,DL_heartfullpop_2_Guitar,6,5,koumou_heartfullpop_ruriko,0.19105781614780426,0
60,100,0.12272727272727273,474,0,50,DL_heartfullpop_2_Guitar,6,2,koumou_heartfullpop_ruriko,0.2619644105434418,0
62,100,0.4,114,1,51,DL_heartfullpop_2_Guitar,6,6,koumou_heartfullpop_ruriko,0.9990280866622925,1
60,100,0.1409090909090909,211,0,51,DL_heartfullpop_2_Guitar,6,2,koumou_heartfullpop_ruriko,0.3703480362892151,0
65,100,0.38181818181818183,330,0,51,DL_heartfullpop_2_Guitar,6,6,koumou_heartfullpop_ruriko,0.45617830753326416,0
58,100,0.1590909090909091,651,1,52,DL_heartfullpop_2_Guitar,6,3,koumou_heartfullpop_ruriko,0.9983232617378235,1
53,100,0.1,691,0,52,DL_heartfullpop_2_Guitar,6,2,koumou_heartfullpop_ruriko,0.5462138652801514,1
58,100,0.3409090909090909,66,1,53,DL_heartfullpop_2_Guitar,6,5,koumou_heartfullpop_ruriko,0.9990280866622925,1
53,100,0.12272727272727273,408,1,53,DL_heartfullpop_2_Guitar,6,2,koumou_heartfullpop_ruriko,0.37034767866134644,0
62,100,0.4,616,0,53,DL_heartfullpop_2_Guitar,6,6,koumou_heartfullpop_ruriko,0.4561653137207031,0
62,100,0.4590909090909091,853,1,54,DL_heartfullpop_2_Guitar,6,7,koumou_heartfullpop_ruriko,0.979223370552063,1
62,100,0.1409090909090909,166,1,55,DL_heartfullpop_2_Guitar,6,2,koumou_heartfullpop_ruriko,0.9986506104469299,1
62,100,0.759090909090909,286,0,55,DL_heartfullpop_2_Guitar,6,12,koumou_heartfullpop_ruriko,0.0879819244146347,0
55,100,0.5590909090909091,518,1,55,DL_heartfullpop_2_Guitar,6,9,koumou_heartfullpop_ruriko,0.09298884868621826,0
55,100,0.43636363636363634,655,0,55,DL_heartfullpop_2_Guitar,6,7,koumou_heartfullpop_ruriko,0.109952412545681,0
53,100,0.11818181818181818,765,0,55,DL_heartfullpop_2_Guitar,6,2,koumou_heartfullpop_ruriko,0.12867462635040283,0
55,100,0.1409090909090909,804,0,55,DL_heartfullpop_2_Guitar,6,2,koumou_heartfullpop_ruriko,0.18222235143184662,0
55,100,0.12272727272727273,48,1,56,DL_heartfullpop_2_Guitar,6,2,koumou_heartfullpop_ruriko,0.9990280866622925,1
60,100,0.7,351,1,56,DL_heartfullpop_2_Guitar,6,11,koumou_heartfullpop_ruriko,0.3703443109989166,0
60,100,1.040909090909091,571,0,56,DL_heartfullpop_2_Guitar,6,15,koumou_heartfullpop_ruriko,0.45617181062698364,0
53,100,0.11818181818181818,153,1,57,DL_heartfullpop_2_Guitar,6,2,koumou_heartfullpop_ruriko,0.9792236089706421,1
65,100,0.18181818181818182,56,1,58,DL_heartfullpop_2_Guitar,6,3,koumou_heartfullpop_ruriko,0.9990280866622925,1
65,100,0.3409090909090909,233,0,58,DL_heartfullpop_2_Guitar,6,5,koumou_heartfullpop_ruriko,0.3703334629535675,0
60,100,0.4636363636363636,774,1,58,DL_heartfullpop_2_Guitar,6,7,koumou_heartfullpop_ruriko,0.45617640018463135,0
60,100,0.18181818181818182,136,1,59,DL_heartfullpop_2_Guitar,6,3,koumou_heartfullpop_ruriko,0.9983735084533691,1
60,100,0.2636363636363636,179,0,59,DL_heartfullpop_2_Guitar,6,4,koumou_heartfullpop_ruriko,0.0510498583316803,0
60,100,0.1409090909090909,311,0,59,DL_heartfullpop_2_Guitar,6,2,koumou_heartfullpop_ruriko,0.04161207005381584,0
53,100,0.5409090909090909,474,0,59,DL_heartfullpop_2_Guitar,6,9,koumou_heartfullpop_ruriko,0.03797794505953789,0
53,100,0.3,606,0,59,DL_heartfullpop_2_Guitar,6,5,koumou_heartfullpop_ruriko,0.03925959765911102,0
65,100,0.12272727272727273,673,0,59,DL_heartfullpop_2_Guitar,6,2,koumou_heartfullpop_ruriko,0.04616426303982735,0
53,100,0.5363636363636364,743,0,59,DL_heartfullpop_2_Guitar,6,9,koumou_heartfullpop_ruriko,0.05713034048676491,0
53,100,0.2818181818181818,871,0,59,DL_heartfullpop_2_Guitar,6,5,koumou_heartfullpop_ruriko,0.09187833219766617,0
53,100,0.35909090909090907,128,1,60,DL_heartfullpop_2_Guitar,6,6,koumou_heartfullpop_ruriko,0.9982556700706482,1
53,100,0.18181818181818182,276,0,60,DL_heartfullpop_2_Guitar,6,3,koumou_heartfullpop_ruriko,0.041291821748018265,0
60,100,0.2,330,0,60,DL_heartfullpop_2_Guitar,6,3,koumou_heartfullpop_ruriko,0.029123961925506592,0
53,100,0.2409090909090909,386,0,60,DL_heartfullpop_2_Guitar,6,4,koumou_heartfullpop_ruriko,0.021567773073911667,0
65,100,0.11818181818181818,440,0,60,DL_heartfullpop_2_Guitar,6,2,koumou_heartfullpop_ruriko,0.017058096826076508,0
53,100,0.16363636363636364,466,0,60,DL_heartfullpop_2_Guitar,6,3,koumou_heartfullpop_ruriko,0.015267019160091877,0
53,100,0.16363636363636364,509,0,60,DL_heartfullpop_2_Guitar,6,3,koumou_heartfullpop_ruriko,0.016454502940177917,0
60,100,0.1,606,0,60,DL_heartfullpop_2_Guitar,6,2,koumou_heartfullpop_ruriko,0.02183595485985279,0
53,100,0.33636363636363636,633,0,60,DL_heartfullpop_2_Guitar,6,5,koumou_heartfullpop_ruriko,0.032515935599803925,0
53,100,0.1590909090909091,716,0,60,DL_heartfullpop_2_Guitar,6,3,koumou_heartfullpop_ruriko,0.060908131301403046,0
53,100,0.2590909090909091,18,1,61,DL_heartfullpop_2_Guitar,6,4,koumou_heartfullpop_ruriko,0.998228132724762,1
53,100,0.2590909090909091,78,0,61,DL_heartfullpop_2_Guitar,6,4,koumou_heartfullpop_ruriko,0.03940153494477272,0
53,100,0.2,153,0,61,DL_heartfullpop_2_Guitar,6,3,koumou_heartfullpop_ruriko,0.026853926479816437,0
53,100,0.2818181818181818,289,0,61,DL_heartfullpop_2_Guitar,6,5,koumou_heartfullpop_ruriko,0.01883004605770111,0
65,100,0.2409090909090909,351,0,61,DL_heartfullpop_2_Guitar,6,4,koumou_heartfullpop_ruriko,0.013653515838086605,0
53,100,0.3,405,0,61,DL_heartfullpop_2_Guitar,6,5,koumou_heartfullpop_ruriko,0.010812195017933846,0
53,100,0.23636363636363636,545,0,61,DL_heartfullpop_2_Guitar,6,4,koumou_heartfullpop_ruriko,0.010072526521980762,0
53,100,0.11818181818181818,625,0,61,DL_heartfullpop_2_Guitar,6,2,koumou_heartfullpop_ruriko,0.011715496890246868,0
53,100,0.16363636363636364,664,0,61,DL_heartfullpop_2_Guitar,6,3,koumou_heartfullpop_ruriko,0.016991186887025833,0
53,100,0.17727272727272728,713,0,61,DL_heartfullpop_2_Guitar,6,3,koumou_heartfullpop_ruriko,0.027576763182878494,0
62,100,1.1636363636363636,796,0,61,DL_heartfullpop_2_Guitar,6,15,koumou_heartfullpop_ruriko,0.05458815023303032,0
65,100,0.18181818181818182,188,1,62,DL_heartfullpop_2_Guitar,6,3,koumou_heartfullpop_ruriko,0.9986506104469299,1
65,100,0.1,263,0,62,DL_heartfullpop_2_Guitar,6,2,koumou_heartfullpop_ruriko,0.08798003941774368,0
62,100,0.2,361,0,62,DL_heartfullpop_2_Guitar,6,3,koumou_heartfullpop_ruriko,0.09298370033502579,0
62,100,0.21818181818181817,506,0,62,DL_heartfullpop_2_Guitar,6,3,koumou_heartfullpop_ruriko,0.10995010286569595,0
62,100,0.5590909090909091,568,0,62,DL_heartfullpop_2_Guitar,6,9,koumou_heartfullpop_ruriko,0.1286730170249939,0
65,100,0.22272727272727272,761,0,62,DL_heartfullpop_2_Guitar,6,4,koumou_heartfullpop_ruriko,0.18222098052501678,0
62,100,0.22272727272727272,13,1,63,DL_heartfullpop_2_Guitar,6,4,koumou_heartfullpop_ruriko,0.9988439083099365,1
62,100,0.3181818181818182,198,0,63,DL_heartfullpop_2_Guitar,6,5,koumou_heartfullpop_ruriko,0.13798952102661133,0
65,100,0.3,268,0,63,DL_heartfullpop_2_Guitar,6,5,koumou_heartfullpop_ruriko,0.16237029433250427,0
62,100,0.11818181818181818,603,1,63,DL_heartfullpop_2_Guitar,6,2,koumou_heartfullpop_ruriko,0.19106465578079224,0
65,100,0.22272727272727272,664,0,63,DL_heartfullpop_2_Guitar,6,4,koumou_heartfullpop_ruriko,0.2619801461696625,0
65,100,0.17727272727272728,62,1,64,DL_heartfullpop_2_Guitar,6,3,koumou_heartfullpop_ruriko,0.998228132724762,1
62,100,0.1590909090909091,176,0,64,DL_heartfullpop_2_Guitar,6,3,koumou_heartfullpop_ruriko,0.03940204530954361,0
53,100,0.3,237,0,64,DL_heartfullpop_2_Guitar,6,5,koumou_heartfullpop_ruriko,0.026854798197746277,0
62,100,0.5,316,0,64,DL_heartfullpop_2_Guitar,6,8,koumou_heartfullpop_ruriko,0.01883102022111416,0
65,100,0.2590909090909091,430,0,64,DL_heartfullpop_2_Guitar,6,4,koumou_heartfullpop_ruriko,0.013654503971338272,0
58,100,0.2,519,0,64,DL_heartfullpop_2_Guitar,6,3,koumou_heartfullpop_ruriko,0.010812959633767605,0
53,100,0.3,619,0,64,DL_heartfullpop_2_Guitar,6,5,koumou_heartfullpop_ruriko,0.010072988457977772,0
65,100,0.3,686,0,64,DL_heartfullpop_2_Guitar,6,5,koumou_heartfullpop_ruriko,0.011716065928339958,0
53,100,0.32272727272727275,752,0,64,DL_heartfullpop_2_Guitar,6,5,koumou_heartfullpop_ruriko,0.016991617158055305,0
65,100,0.21818181818181817,823,0,64,DL_heartfullpop_2_Guitar,6,3,koumou_heartfullpop_ruriko,0.027578286826610565,0
53,100,0.35909090909090907,876,0,64,DL_heartfullpop_2_Guitar,6,6,koumou_heartfullpop_ruriko,0.05459221825003624,0
65,100,0.4636363636363636,113,1,65,DL_heartfullpop_2_Guitar,6,7,koumou_heartfullpop_ruriko,0.9983735084533691,1
53,100,0.5181818181818182,250,0,65,DL_heartfullpop_2_Guitar,6,8,koumou_heartfullpop_ruriko,0.05104796215891838,0
53,100,0.32272727272727275,377,0,65,DL_heartfullpop_2_Guitar,6,5,koumou_heartfullpop_ruriko,0.04161032661795616,0
58,100,0.3409090909090909,475,0,65,DL_heartfullpop_2_Guitar,6,5,koumou_heartfullpop_ruriko,0.03797684609889984,0
65,100,0.11818181818181818,580,0,65,DL_heartfullpop_2_Guitar,6,2,koumou_heartfullpop_ruriko,0.03925666585564613,0
53,100,0.42272727272727273,642,0,65,DL_heartfullpop_2_Guitar,6,7,koumou_heartfullpop_ruriko,0.04616222530603409,0
53,100,0.2,773,0,65,DL_heartfullpop_2_Guitar,6,3,koumou_heartfullpop_ruriko,0.05712839215993881,0
62,100,0.3,823,0,65,DL_heartfullpop_2_Guitar,6,5,koumou_heartfullpop_ruriko,0.09187718480825424,0
53,100,0.11818181818181818,150,1,66,DL_heartfullpop_2_Guitar,6,2,koumou_heartfullpop_ruriko,0.9986506104469299,1
60,100,0.35909090909090907,193,0,66,DL_heartfullpop_2_Guitar,6,6,koumou_heartfullpop_ruriko,0.08797822892665863,0
53,100,0.4409090909090909,396,0,66,DL_heartfullpop_2_Guitar,6,7,koumou_heartfullpop_ruriko,0.09298151731491089,0
53,100,0.1590909090909091,496,0,66,DL_heartfullpop_2_Guitar,6,3,koumou_heartfullpop_ruriko,0.10994407534599304,0
53,100,0.1409090909090909,540,0,66,DL_heartfullpop_2_Guitar,6,2,koumou_heartfullpop_ruriko,0.12866543233394623,0
60,100,0.8181818181818182,572,0,66,DL_heartfullpop_2_Guitar,6,13,koumou_heartfullpop_ruriko,0.18220703303813934,0
53,100,0.1,56,1,67,DL_heartfullpop_2_Guitar,6,2,koumou_heartfullpop_ruriko,0.9983735084533691,1
65,100,0.3409090909090909,100,0,67,DL_heartfullpop_2_Guitar,6,5,koumou_heartfullpop_ruriko,0.05104875937104225,0
60,100,0.32272727272727275,179,0,67,DL_heartfullpop_2_Guitar,6,5,koumou_heartfullpop_ruriko,0.041611772030591965,0
65,100,0.17727272727272728,260,0,67,DL_heartfullpop_2_Guitar,6,3,koumou_heartfullpop_ruriko,0.0379776656627655,0
60,100,0.2,365,0,67,DL_heartfullpop_2_Guitar,6,3,koumou_heartfullpop_ruriko,0.03925883024930954,0
60,100,0.7,413,0,67,DL_heartfullpop_2_Guitar,6,11,koumou_heartfullpop_ruriko,0.046163566410541534,0
60,100,0.3,612,0,67,DL_heartfullpop_2_Guitar,6,5,koumou_heartfullpop_ruriko,0.057129207998514175,0
65,100,0.3,832,0,67,DL_heartfullpop_2_Guitar,6,5,koumou_heartfullpop_ruriko,0.09187772125005722,0
60,100,0.21818181818181817,30,1,68,DL_heartfullpop_2_Guitar,6,3,koumou_heartfullpop_ruriko,0.9983736276626587,1
65,100,0.38181818181818183,113,0,68,DL_heartfullpop_2_Guitar,6,6,koumou_heartfullpop_ruriko,0.05104902759194374,0
53,100,0.12272727272727273,202,0,68,DL_heartfullpop_2_Guitar,6,2,koumou_heartfullpop_ruriko,0.04161171242594719,0
65,100,0.4,242,0,68,DL_heartfullpop_2_Guitar,6,6,koumou_heartfullpop_ruriko,0.03797886520624161,0
60,100,0.5409090909090909,330,0,68,DL_heartfullpop_2_Guitar,6,9,koumou_heartfullpop_ruriko,0.03925977647304535,0
65,100,0.3181818181818182,457,0,68,DL_heartfullpop_2_Guitar,6,5,koumou_heartfullpop_ruriko,0.04616529121994972,0
60,100,0.7818181818181819,593,0,68,DL_heartfullpop_2_Guitar,6,13,koumou_heartfullpop_ruriko,0.0571310892701149,0
53,100,0.9409090909090909,839,1,68,DL_heartfullpop_2_Guitar,6,15,koumou_heartfullpop_ruriko,0.09187642484903336,0
65,100,0.2818181818181818,166,1,69,DL_heartfullpop_2_Guitar,6,5,koumou_heartfullpop_ruriko,0.9986506104469299,1
53,100,0.11818181818181818,263,0,69,DL_heartfullpop_2_Guitar,6,2,koumou_heartfullpop_ruriko,0.08797798305749893,0
53,100,0.1590909090909091,294,0,69,DL_heartfullpop_2_Guitar,6,3,koumou_heartfullpop_ruriko,0.09298120439052582,0
53,100,0.2590909090909091,352,0,69,DL_heartfullpop_2_Guitar,6,4,koumou_heartfullpop_ruriko,0.10994799435138702,0
53,100,0.3,496,0,69,DL_heartfullpop_2_Guitar,6,5,koumou_heartfullpop_ruriko,0.1286693960428238,0
65,100,0.22272727272727272,563,0,69,DL_heartfullpop_2_Guitar,6,4,koumou_heartfullpop_ruriko,0.182207852602005,0
60,100,0.1590909090909091,40,1,70,DL_heartfullpop_2_Guitar,6,3,koumou_heartfullpop_ruriko,0.9982556700706482,1
60,100,0.11818181818181818,87,0,70,DL_heartfullpop_2_Guitar,6,2,koumou_heartfullpop_ruriko,0.041292332112789154,0
53,100,0.2818181818181818,123,0,70,DL_heartfullpop_2_Guitar,6,5,koumou_heartfullpop_ruriko,0.029123865067958832,0
65,100,0.3,330,0,70,DL_heartfullpop_2_Guitar,6,5,koumou_heartfullpop_ruriko,0.02156822755932808,0
53,100,0.2818181818181818,396,0,70,DL_heartfullpop_2_Guitar,6,5,koumou_heartfullpop_ruriko,0.0170578733086586,0
53,100,0.11818181818181818,470,0,70,DL_heartfullpop_2_Guitar,6,2,koumou_heartfullpop_ruriko,0.01526680402457714,0
53,100,0.36363636363636365,509,0,70,DL_heartfullpop_2_Guitar,6,6,koumou_heartfullpop_ruriko,0.01645440235733986,0
60,100,0.2409090909090909,597,0,70,DL_heartfullpop_2_Guitar,6,4,koumou_heartfullpop_ruriko,0.021835561841726303,0
53,100,0.4772727272727273,656,0,70,DL_heartfullpop_2_Guitar,6,8,koumou_heartfullpop_ruriko,0.0325150303542614,0
53,100,0.5772727272727273,766,0,70,DL_heartfullpop_2_Guitar,6,9,koumou_heartfullpop_ruriko,0.060909003019332886,0
60,100,0.21818181818181817,40,1,71,DL_heartfullpop_2_Guitar,6,3,koumou_heartfullpop_ruriko,0.9983004927635193,1
53,100,0.11818181818181818,106,0,71,DL_heartfullpop_2_Guitar,6,2,koumou_heartfullpop_ruriko,0.04466190189123154,0
53,100,0.1409090909090909,157,0,71,DL_heartfullpop_2_Guitar,6,2,koumou_heartfullpop_ruriko,0.03337157890200615,0
60,100,0.21818181818181817,197,0,71,DL_heartfullpop_2_Guitar,6,3,koumou_heartfullpop_ruriko,0.026948565617203712,0
62,100,0.2590909090909091,276,0,71,DL_heartfullpop_2_Guitar,6,4,koumou_heartfullpop_ruriko,0.024084394797682762,0
62,100,0.6181818181818182,339,0,71,DL_heartfullpop_2_Guitar,6,10,koumou_heartfullpop_ruriko,0.024973556399345398,0
62,100,0.2590909090909091,480,0,71,DL_heartfullpop_2_Guitar,6,4,koumou_heartfullpop_ruriko,0.03064907342195511,0
62,100,0.2409090909090909,603,0,71,DL_heartfullpop_2_Guitar,6,4,koumou_heartfullpop_ruriko,0.04137004166841507,0
65,100,0.2590909090909091,870,1,71,DL_heartfullpop_2_Guitar,6,4,koumou_heartfullpop_ruriko,0.07207300513982773,0
65,100,0.4409090909090909,69,1,72,DL_heartfullpop_2_Guitar,6,7,koumou_heartfullpop_ruriko,0.9983735084533691,1
62,100,0.3,233,0,72,DL_heartfullpop_2_Guitar,6,5,koumou_heartfullpop_ruriko,0.051050011068582535,0
65,100,0.17727272727272728,370,0,72,DL_heartfullpop_2_Guitar,6,3,koumou_heartfullpop_ruriko,0.041612833738327026,0
62,100,0.36363636363636365,553,0,72,DL_heartfullpop_2_Guitar,6,6,koumou_heartfullpop_ruriko,0.03798028081655502,0
65,100,0.3181818181818182,633,0,72,DL_heartfullpop_2_Guitar,6,5,koumou_heartfullpop_ruriko,0.03926180675625801,0
53,100,0.2,716,0,72,DL_heartfullpop_2_Guitar,6,3,koumou_heartfullpop_ruriko,0.04616624861955643,0
62,100,0.11818181818181818,823,0,72,DL_heartfullpop_2_Guitar,6,2,koumou_heartfullpop_ruriko,0.05713357776403427,0
62,100,0.4,866,0,72,DL_heartfullpop_2_Guitar,6,6,koumou_heartfullpop_ruriko,0.0918816551566124,0
57,100,0.1590909090909091,79,1,73,DL_heartfullpop_2_Guitar,6,3,koumou_heartfullpop_ruriko,0.9986506104469299,1
65,100,0.1590909090909091,145,0,73,DL_heartfullpop_2_Guitar,6,3,koumou_heartfullpop_ruriko,0.08797894418239594,0
57,100,0.13636363636363635,216,0,73,DL_heartfullpop_2_Guitar,6,2,koumou_heartfullpop_ruriko,0.09298547357320786,0
65,100,0.2818181818181818,386,0,73,DL_heartfullpop_2_Guitar,6,5,koumou_heartfullpop_ruriko,0.10994981229305267,0
62,100,0.12272727272727273,453,0,73,DL_heartfullpop_2_Guitar,6,2,koumou_heartfullpop_ruriko,0.1286724954843521,0
53,100,0.18181818181818182,593,0,73,DL_heartfullpop_2_Guitar,6,3,koumou_heartfullpop_ruriko,0.18222248554229736,0
60,100,0.32272727272727275,13,1,74,DL_heartfullpop_2_Guitar,6,5,koumou_heartfullpop_ruriko,0.9983004927635193,1
53,100,0.2590909090909091,100,0,74,DL_heartfullpop_2_Guitar,6,4,koumou_heartfullpop_ruriko,0.044660843908786774,0
53,100,0.35909090909090907,352,1,74,DL_heartfullpop_2_Guitar,6,6,koumou_heartfullpop_ruriko,0.03336969390511513,0
53,100,0.2,436,0,74,DL_heartfullpop_2_Guitar,6,3,koumou_heartfullpop_ruriko,0.02694658935070038,0
65,100,0.1,502,0,74,DL_heartfullpop_2_Guitar,6,2,koumou_heartfullpop_ruriko,0.02408197894692421,0
65,100,0.1,536,0,74,DL_heartfullpop_2_Guitar,6,2,koumou_heartfullpop_ruriko,0.02497124671936035,0
53,100,0.1409090909090909,619,0,74,DL_heartfullpop_2_Guitar,6,2,koumou_heartfullpop_ruriko,0.030645105987787247,0
53,100,0.2,747,0,74,DL_heartfullpop_2_Guitar,6,3,koumou_heartfullpop_ruriko,0.04136604815721512,0
60,100,0.2,849,0,74,DL_heartfullpop_2_Guitar,6,3,koumou_heartfullpop_ruriko,0.07206613570451736,0
65,100,0.2,22,1,75,DL_heartfullpop_2_Guitar,6,3,koumou_heartfullpop_ruriko,0.9983004927635193,1
53,100,0.2409090909090909,69,0,75,DL_heartfullpop_2_Guitar,6,4,koumou_heartfullpop_ruriko,0.04466155543923378,0
60,100,0.41818181818181815,150,0,75,DL_heartfullpop_2_Guitar,6,7,koumou_heartfullpop_ruriko,0.03337172418832779,0
60,100,0.4818181818181818,286,0,75,DL_heartfullpop_2_Guitar,6,8,koumou_heartfullpop_ruriko,0.02694743126630783,0
65,100,0.3,392,0,75,DL_heartfullpop_2_Guitar,6,5,koumou_heartfullpop_ruriko,0.02408262901008129,0
60,100,0.12272727272727273,466,0,75,DL_heartfullpop_2_Guitar,6,2,koumou_heartfullpop_ruriko,0.024972867220640182,0
53,100,0.16363636363636364,509,0,75,DL_heartfullpop_2_Guitar,6,3,koumou_heartfullpop_ruriko,0.030646417289972305,0
65,100,0.4409090909090909,597,0,75,DL_heartfullpop_2_Guitar,6,7,koumou_heartfullpop_ruriko,0.04136856645345688,0
53,100,0.4409090909090909,844,1,75,DL_heartfullpop_2_Guitar,6,7,koumou_heartfullpop_ruriko,0.07206714153289795,0
53,100,0.2590909090909091,83,1,76,DL_heartfullpop_2_Guitar,6,4,koumou_heartfullpop_ruriko,0.9988439083099365,1
53,100,0.18181818181818182,176,0,76,DL_heartfullpop_2_Guitar,6,3,koumou_heartfullpop_ruriko,0.1379782259464264,0
53,100,1.1,229,0,76,DL_heartfullpop_2_Guitar,6,15,koumou_heartfullpop_ruriko,0.16235528886318207,0
60,100,0.1409090909090909,713,1,76,DL_heartfullpop_2_Guitar,6,2,koumou_heartfullpop_ruriko,0.19106030464172363,0
53,100,0.23636363636363636,876,0,76,DL_heartfullpop_2_Guitar,6,4,koumou_heartfullpop_ruriko,0.2619567811489105,0
53,100,0.5590909090909091,127,1,77,DL_heartfullpop_2_Guitar,6,9,koumou_heartfullpop_ruriko,0.9986506104469299,1
60,100,0.1,413,1,77,DL_heartfullpop_2_Guitar,6,2,koumou_heartfullpop_ruriko,0.08798062801361084,0
53,100,0.5,440,0,77,DL_heartfullpop_2_Guitar,6,8,koumou_heartfullpop_ruriko,0.09298494458198547,0
53,100,0.18181818181818182,563,0,77,DL_heartfullpop_2_Guitar,6,3,koumou_heartfullpop_ruriko,0.10994497686624527,0
65,100,0.11818181818181818,656,0,77,DL_heartfullpop_2_Guitar,6,2,koumou_heartfullpop_ruriko,0.12866999208927155,0
60,100,0.3181818181818182,734,0,77,DL_heartfullpop_2_Guitar,6,5,koumou_heartfullpop_ruriko,0.18221482634544373,0
53,100,0.12272727272727273,69,1,78,DL_heartfullpop_2_Guitar,6,2,koumou_heartfullpop_ruriko,0.9983735084533691,1
60,100,0.11818181818181818,119,0,78,DL_heartfullpop_2_Guitar,6,2,koumou_heartfullpop_ruriko,0.05104983225464821,0
53,100,0.8772727272727273,273,0,78,DL_heartfullpop_2_Guitar,6,14,koumou_heartfullpop_ruriko,0.0416102297604084,0
65,100,0.22272727272727272,532,1,78,DL_heartfullpop_2_Guitar,6,4,koumou_heartfullpop_ruriko,0.03797827661037445,0
65,100,0.36363636363636365,597,0,78,DL_heartfullpop_2_Guitar,6,6,koumou_heartfullpop_ruriko,0.03925824910402298,0
65,100,0.18181818181818182,682,0,78,DL_heartfullpop_2_Guitar,6,3,koumou_heartfullpop_ruriko,0.046162962913513184,0
53,100,0.1,722,0,78,DL_heartfullpop_2_Guitar,6,2,koumou_heartfullpop_ruriko,0.05712876468896866,0
65,100,0.3,743,0,78,DL_heartfullpop_2_Guitar,6,5,koumou_heartfullpop_ruriko,0.09187428653240204,0
53,100,0.1,110,1,79,DL_heartfullpop_2_Guitar,6,2,koumou_heartfullpop_ruriko,0.9990280866622925,1
55,100,0.21818181818181817,457,1,79,DL_heartfullpop_2_Guitar,6,3,koumou_heartfullpop_ruriko,0.3703518211841583,0
55,100,1.3,673,0,79,DL_heartfullpop_2_Guitar,6,15,koumou_heartfullpop_ruriko,0.4561566114425659,0
55,100,0.42272727272727273,453,1,80,DL_heartfullpop_2_Guitar,6,7,koumou_heartfullpop_ruriko,0.9990280866622925,1
53,100,0.1409090909090909,637,0,80,DL_heartfullpop_2_Guitar,6,2,koumou_heartfullpop_ruriko,0.3703388273715973,0
65,100,0.38181818181818183,673,0,80,DL_heartfullpop_2_Guitar,6,6,koumou_heartfullpop_ruriko,0.4561684727668762,0
53,100,0.11818181818181818,153,1,81,DL_heartfullpop_2_Guitar,6,2,koumou_heartfullpop_ruriko,0.9990280866622925,1
65,100,0.12272727272727273,532,1,81,DL_heartfullpop_2_Guitar,6,2,koumou_heartfullpop_ruriko,0.37033677101135254,0
62,100,0.1,743,0,81,DL_heartfullpop_2_Guitar,6,2,koumou_heartfullpop_ruriko,0.4561697542667389,0
53,100,0.13636363636363635,303,1,82,DL_heartfullpop_2_Guitar,6,2,koumou_heartfullpop_ruriko,0.9792227745056152,1
55,100,0.1,197,1,84,DL_heartfullpop_2_Guitar,6,2,koumou_heartfullpop_ruriko,0.9990280866622925,1
60,100,0.1409090909090909,426,0,84,DL_heartfullpop_2_Guitar,6,2,koumou_heartfullpop_ruriko,0.3703482151031494,0
60,100,1.8772727272727272,480,0,84,DL_heartfullpop_2_Guitar,6,15,koumou_heartfullpop_ruriko,0.45616331696510315,0
53,100,0.1,330,1,85,DL_heartfullpop_2_Guitar,6,2,koumou_heartfullpop_ruriko,0.9986506104469299,1
53,100,0.2772727272727273,392,0,85,DL_heartfullpop_2_Guitar,6,4,koumou_heartfullpop_ruriko,0.08797862380743027,0
53,100,0.3,462,0,85,DL_heartfullpop_2_Guitar,6,5,koumou_heartfullpop_ruriko,0.09298434853553772,0
53,100,0.2772727272727273,567,0,85,DL_heartfullpop_2_Guitar,6,4,koumou_heartfullpop_ruriko,0.1099487692117691,0
53,100,0.2409090909090909,800,1,85,DL_heartfullpop_2_Guitar,6,4,koumou_heartfullpop_ruriko,0.12866893410682678,0
57,100,0.1,866,0,85,DL_heartfullpop_2_Guitar,6,2,koumou_heartfullpop_ruriko,0.18221744894981384,0
60,100,0.17727272727272728,273,1,86,DL_heartfullpop_2_Guitar,6,3,koumou_heartfullpop_ruriko,0.9986506104469299,1
60,100,0.18181818181818182,320,0,86,DL_heartfullpop_2_Guitar,6,3,koumou_heartfullpop_ruriko,0.08798114210367203,0
60,100,0.4,392,0,86,DL_heartfullpop_2_Guitar,6,6,koumou_heartfullpop_ruriko,0.09298378229141235,0
53,100,0.3181818181818182,480,0,86,DL_heartfullpop_2_Guitar,6,5,koumou_heartfullpop_ruriko,0.10995084047317505,0
60,100,0.2409090909090909,559,0,86,DL_heartfullpop_2_Guitar,6,4,koumou_heartfullpop_ruriko,0.1286722868680954,0
60,100,0.2772727272727273,844,1,86,DL_heartfullpop_2_Guitar,6,4,koumou_heartfullpop_ruriko,0.1822192668914795,0
60,100,0.2,30,1,87,DL_heartfullpop_2_Guitar,6,3,koumou_heartfullpop_ruriko,0.9990094900131226,1
60,100,0.11818181818181818,87,0,87,DL_heartfullpop_2_Guitar,6,2,koumou_heartfullpop_ruriko,0.23322927951812744,0
60,100,0.11818181818181818,197,0,87,DL_heartfullpop_2_Guitar,6,2,koumou_heartfullpop_ruriko,0.2705843448638916,0
53,100,0.8590909090909091,703,1,87,DL_heartfullpop_2_Guitar,6,14,koumou_heartfullpop_ruriko,0.35792261362075806,0
65,100,0.42272727272727273,13,1,88,DL_heartfullpop_2_Guitar,6,7,koumou_heartfullpop_ruriko,0.9983735084533691,1
53,100,0.21818181818181817,140,0,88,DL_heartfullpop_2_Guitar,6,3,koumou_heartfullpop_ruriko,0.0510491207242012,0
53,100,0.1409090909090909,202,0,88,DL_heartfullpop_2_Guitar,6,2,koumou_heartfullpop_ruriko,0.041610781103372574,0
65,100,0.1590909090909091,260,0,88,DL_heartfullpop_2_Guitar,6,3,koumou_heartfullpop_ruriko,0.03797776997089386,0
65,100,0.17727272727272728,413,0,88,DL_heartfullpop_2_Guitar,6,3,koumou_heartfullpop_ruriko,0.03925811126828194,0
53,100,0.21818181818181817,480,0,88,DL_heartfullpop_2_Guitar,6,3,koumou_heartfullpop_ruriko,0.04616273194551468,0
62,100,0.11818181818181818,580,0,88,DL_heartfullpop_2_Guitar,6,2,koumou_heartfullpop_ruriko,0.0571274533867836,0
65,100,0.18181818181818182,673,0,88,DL_heartfullpop_2_Guitar,6,3,koumou_heartfullpop_ruriko,0.09187431633472443,0
60,100,0.2409090909090909,35,1,89,DL_heartfullpop_2_Guitar,6,4,koumou_heartfullpop_ruriko,0.9983004927635193,1
65,100,0.6818181818181818,87,0,89,DL_heartfullpop_2_Guitar,6,11,koumou_heartfullpop_ruriko,0.04466165974736214,0
53,100,0.13636363636363635,282,0,89,DL_heartfullpop_2_Guitar,6,2,koumou_heartfullpop_ruriko,0.03337103873491287,0
60,100,0.6590909090909091,370,0,89,DL_heartfullpop_2_Guitar,6,11,koumou_heartfullpop_ruriko,0.02694820426404476,0
60,100,0.35909090909090907,536,0,89,DL_heartfullpop_2_Guitar,6,6,koumou_heartfullpop_ruriko,0.024083346128463745,0
65,100,0.4636363636363636,619,0,89,DL_heartfullpop_2_Guitar,6,7,koumou_heartfullpop_ruriko,0.024971047416329384,0
60,100,0.11818181818181818,792,0,89,DL_heartfullpop_2_Guitar,6,2,koumou_heartfullpop_ruriko,0.030646495521068573,0
65,100,0.1,832,0,89,DL_heartfullpop_2_Guitar,6,2,koumou_heartfullpop_ruriko,0.041366469115018845,0
53,100,0.1590909090909091,866,0,89,DL_heartfullpop_2_Guitar,6,3,koumou_heartfullpop_ruriko,0.07206467539072037,0
60,100,1.2227272727272727,123,1,90,DL_heartfullpop_2_Guitar,6,15,koumou_heartfullpop_ruriko,0.9990280866622925,1
60,100,1.1818181818181819,506,1,90,DL_heartfullpop_2_Guitar,6,15,koumou_heartfullpop_ruriko,0.37034153938293457,0
65,100,0.41818181818181815,792,1,90,DL_heartfullpop_2_Guitar,6,7,koumou_heartfullpop_ruriko,0.45616525411605835,0
65,100,0.1590909090909091,56,1,91,DL_heartfullpop_2_Guitar,6,3,koumou_heartfullpop_ruriko,0.9982556700706482,1
60,100,0.1409090909090909,100,0,91,DL_heartfullpop_2_Guitar,6,2,koumou_heartfullpop_ruriko,0.04129176586866379,0
65,100,0.18181818181818182,179,0,91,DL_heartfullpop_2_Guitar,6,3,koumou_heartfullpop_ruriko,0.029123099520802498,0
53,100,0.11818181818181818,220,0,91,DL_heartfullpop_2_Guitar,6,2,koumou_heartfullpop_ruriko,0.021567203104496002,0
53,100,0.6181818181818182,273,0,91,DL_heartfullpop_2_Guitar,6,10,koumou_heartfullpop_ruriko,0.017057329416275024,0
53,100,0.2590909090909091,426,0,91,DL_heartfullpop_2_Guitar,6,4,koumou_heartfullpop_ruriko,0.015266654081642628,0
53,100,0.38181818181818183,519,0,91,DL_heartfullpop_2_Guitar,6,6,koumou_heartfullpop_ruriko,0.016454055905342102,0
53,100,0.23636363636363636,633,0,91,DL_heartfullpop_2_Guitar,6,4,koumou_heartfullpop_ruriko,0.021835077553987503,0
53,100,0.3409090909090909,695,0,91,DL_heartfullpop_2_Guitar,6,5,koumou_heartfullpop_ruriko,0.03251536563038826,0
53,100,0.32272727272727275,870,0,91,DL_heartfullpop_2_Guitar,6,5,koumou_heartfullpop_ruriko,0.06090805307030678,0
53,100,0.1409090909090909,92,1,92,DL_heartfullpop_2_Guitar,6,2,koumou_heartfullpop_ruriko,0.9986506104469299,1
53,100,0.759090909090909,172,0,92,DL_heartfullpop_2_Guitar,6,12,koumou_heartfullpop_ruriko,0.08797846734523773,0
53,100,0.16363636363636364,399,0,92,DL_heartfullpop_2_Guitar,6,3,koumou_heartfullpop_ruriko,0.0929826945066452,0
53,100,0.38181818181818183,440,0,92,DL_heartfullpop_2_Guitar,6,6,koumou_heartfullpop_ruriko,0.1099470853805542,0
53,100,0.12272727272727273,629,0,92,DL_heartfullpop_2_Guitar,6,2,koumou_heartfullpop_ruriko,0.1286650002002716,0
53,100,0.6,826,0,92,DL_heartfullpop_2_Guitar,6,10,koumou_heartfullpop_ruriko,0.18220637738704681,0
53,100,0.3,399,1,93,DL_heartfullpop_2_Guitar,6,5,koumou_heartfullpop_ruriko,0.979223370552063,1
55,100,0.2590909090909091,475,1,0,_Guitar,6,4,rocky_japanesefolk,0.9990094900131226,1
52,100,0.1590909090909091,704,0,0,_Guitar,6,3,rocky_japanesefolk,0.23323091864585876,0
52,100,0.17727272727272728,757,0,0,_Guitar,6,3,rocky_japanesefolk,0.27058279514312744,0
55,100,0.35909090909090907,871,0,0,_Guitar,6,6,rocky_japanesefolk,0.35792994499206543,0
55,100,0.18181818181818182,597,1,1,_Guitar,6,3,rocky_japanesefolk,0.9983232617378235,1
55,100,0.3,642,0,1,_Guitar,6,5,rocky_japanesefolk,0.5462172627449036,1
55,100,0.11818181818181818,339,1,2,_Guitar,6,2,rocky_japanesefolk,0.9983232617378235,1
60,100,0.2590909090909091,474,0,2,_Guitar,6,4,rocky_japanesefolk,0.5462166666984558,1
55,100,0.32272727272727275,136,1,3,_Guitar,6,5,rocky_japanesefolk,0.9988439083099365,1
53,100,0.2590909090909091,351,0,3,_Guitar,6,4,rocky_japanesefolk,0.13798271119594574,0
53,100,0.1409090909090909,537,0,3,_Guitar,6,2,rocky_japanesefolk,0.16236695647239685,0
57,100,0.5,571,0,3,_Guitar,6,8,rocky_japanesefolk,0.19105856120586395,0
57,100,0.2590909090909091,703,0,3,_Guitar,6,4,rocky_japanesefolk,0.2619692385196686,0
57,100,0.1590909090909091,61,1,4,_Guitar,6,3,rocky_japanesefolk,0.9986506104469299,1
53,100,0.35909090909090907,101,0,4,_Guitar,6,6,rocky_japanesefolk,0.08797995746135712,0
52,100,0.2,179,0,4,_Guitar,6,3,rocky_japanesefolk,0.09298603236675262,0
52,100,0.2,238,0,4,_Guitar,6,3,rocky_japanesefolk,0.10995129495859146,0
55,100,0.1409090909090909,317,0,4,_Guitar,6,2,rocky_japanesefolk,0.12867280840873718,0
60,100,0.4,496,0,4,_Guitar,6,6,rocky_japanesefolk,0.18221895396709442,0
57,100,0.5,317,1,5,_Guitar,6,8,rocky_japanesefolk,0.9983232617378235,1
55,100,1.0,744,1,5,_Guitar,6,15,rocky_japanesefolk,0.5462126731872559,1
55,100,0.1409090909090909,135,1,6,_Guitar,6,2,rocky_japanesefolk,0.9990280866622925,1
52,100,0.5590909090909091,352,0,6,_Guitar,6,9,rocky_japanesefolk,0.37034130096435547,0
55,100,1.3818181818181818,483,0,6,_Guitar,6,15,rocky_japanesefolk,0.4561680853366852,0
55,100,0.8590909090909091,220,1,7,_Guitar,6,14,rocky_japanesefolk,0.9792237281799316,1
52,100,0.7181818181818181,250,1,8,_Guitar,6,11,rocky_japanesefolk,0.9986506104469299,1
55,100,0.33636363636363636,436,0,8,_Guitar,6,5,rocky_japanesefolk,0.08798041194677353,0
55,100,0.1590909090909091,515,0,8,_Guitar,6,3,rocky_japanesefolk,0.09298652410507202,0
57,100,0.7772727272727272,567,0,8,_Guitar,6,12,rocky_japanesefolk,0.10994955152273178,0
57,100,0.4,744,0,8,_Guitar,6,6,rocky_japanesefolk,0.1286729872226715,0
53,100,0.759090909090909,871,0,8,_Guitar,6,12,rocky_japanesefolk,0.18222004175186157,0
53,100,0.18181818181818182,166,1,9,_Guitar,6,3,rocky_japanesefolk,0.9990280866622925,1
53,100,0.11818181818181818,259,0,9,_Guitar,6,2,rocky_japanesefolk,0.37034887075424194,0
57,100,1.3590909090909091,295,0,9,_Guitar,6,15,rocky_japanesefolk,0.45615527033805847,0
52,100,0.6818181818181818,44,1,10,_Guitar,6,11,rocky_japanesefolk,0.9983232617378235,1
55,100,0.9818181818181818,660,1,10,_Guitar,6,15,rocky_japanesefolk,0.546212375164032,1
55,100,0.3,0,1,11,_Guitar,6,5,rocky_japanesefolk,0.9984879493713379,1
52,100,0.6181818181818182,228,0,11,_Guitar,6,10,rocky_japanesefolk,0.06335383653640747,0
55,100,0.4590909090909091,383,0,11,_Guitar,6,7,rocky_japanesefolk,0.0582893043756485,0
55,100,0.11818181818181818,493,0,11,_Guitar,6,2,rocky_japanesefolk,0.06136389821767807,0
53,100,0.3181818181818182,646,0,11,_Guitar,6,5,rocky_japanesefolk,0.07168283313512802,0
57,100,0.2409090909090909,783,0,11,_Guitar,6,4,rocky_japanesefolk,0.08473695069551468,0
53,100,0.18181818181818182,849,0,11,_Guitar,6,3,rocky_japanesefolk,0.1263551265001297,0
55,100,0.1,352,1,12,_Guitar,6,2,rocky_japanesefolk,0.9990094900131226,1
55,100,0.38181818181818183,462,0,12,_Guitar,6,6,rocky_japanesefolk,0.23323768377304077,0
55,100,0.21818181818181817,634,0,12,_Guitar,6,3,rocky_japanesefolk,0.270579993724823,0
55,100,0.4,871,1,12,_Guitar,6,6,rocky_japanesefolk,0.3579232394695282,0
52,100,0.21818181818181817,110,1,13,_Guitar,6,3,rocky_japanesefolk,0.9990094900131226,1
52,100,0.6,171,0,13,_Guitar,6,10,rocky_japanesefolk,0.23322716355323792,0
60,100,0.32272727272727275,321,0,13,_Guitar,6,5,rocky_japanesefolk,0.270583838224411,0
55,100,0.2409090909090909,663,1,13,_Guitar,6,4,rocky_japanesefolk,0.35792213678359985,0
57,100,0.35909090909090907,206,1,14,_Guitar,6,6,rocky_japanesefolk,0.9990094900131226,1
60,100,0.2818181818181818,386,0,14,_Guitar,6,5,rocky_japanesefolk,0.23323968052864075,0
53,100,0.21818181818181817,493,0,14,_Guitar,6,3,rocky_japanesefolk,0.2705872654914856,0
62,100,0.37727272727272726,546,0,14,_Guitar,6,6,rocky_japanesefolk,0.35793209075927734,0
52,100,0.35909090909090907,189,1,15,_Guitar,6,6,rocky_japanesefolk,0.9990280866622925,1
64,100,0.2,716,1,15,_Guitar,6,3,rocky_japanesefolk,0.370332270860672,0
64,100,0.1,766,0,15,_Guitar,6,2,rocky_japanesefolk,0.4561777114868164,0
57,100,0.3181818181818182,281,1,16,_Guitar,6,5,rocky_japanesefolk,0.9990094900131226,1
52,100,0.2,598,1,16,_Guitar,6,3,rocky_japanesefolk,0.23323698341846466,0
52,100,0.18181818181818182,650,0,16,_Guitar,6,3,rocky_japanesefolk,0.2705880105495453,0
57,100,0.12272727272727273,804,0,16,_Guitar,6,2,rocky_japanesefolk,0.35793396830558777,0
59,100,1.2,9,1,17,_Guitar,6,15,rocky_japanesefolk,0.9990280866622925,1
53,100,0.18181818181818182,285,1,17,_Guitar,6,3,rocky_japanesefolk,0.37034058570861816,0
57,100,0.21818181818181817,470,0,17,_Guitar,6,3,rocky_japanesefolk,0.456167072057724,0
56,100,0.7181818181818181,656,1,18,_Guitar,6,11,rocky_japanesefolk,0.9792234897613525,1
56,100,0.2409090909090909,88,1,19,_Guitar,6,4,rocky_japanesefolk,0.9983231425285339,1
56,100,0.8590909090909091,144,0,19,_Guitar,6,14,rocky_japanesefolk,0.5462137460708618,1
57,100,0.18181818181818182,88,1,20,_Guitar,6,3,rocky_japanesefolk,0.9792240262031555,1
55,100,0.2590909090909091,131,1,22,_Guitar,6,4,rocky_japanesefolk,0.9988439083099365,1
55,100,0.3409090909090909,210,0,22,_Guitar,6,5,rocky_japanesefolk,0.13798734545707703,0
55,100,0.1409090909090909,333,0,22,_Guitar,6,2,rocky_japanesefolk,0.16236263513565063,0
55,100,0.5409090909090909,405,0,22,_Guitar,6,9,rocky_japanesefolk,0.19105377793312073,0
52,100,0.33636363636363636,831,1,22,_Guitar,6,5,rocky_japanesefolk,0.26195865869522095,0
52,100,0.2590909090909091,61,1,23,_Guitar,6,4,rocky_japanesefolk,0.9984879493713379,1
52,100,0.5590909090909091,123,0,23,_Guitar,6,9,rocky_japanesefolk,0.06335324048995972,0
52,100,0.2818181818181818,277,0,23,_Guitar,6,5,rocky_japanesefolk,0.05829065293073654,0
55,100,0.32272727272727275,356,0,23,_Guitar,6,5,rocky_japanesefolk,0.06136316806077957,0
52,100,0.3409090909090909,426,0,23,_Guitar,6,5,rocky_japanesefolk,0.07168716937303543,0
55,100,0.5181818181818182,581,0,23,_Guitar,6,8,rocky_japanesefolk,0.08473659306764603,0
55,100,0.37727272727272726,779,0,23,_Guitar,6,6,rocky_japanesefolk,0.12635549902915955,0
55,100,0.16363636363636364,113,1,24,_Guitar,6,3,rocky_japanesefolk,0.9983004927635193,1
55,100,0.22272727272727272,246,0,24,_Guitar,6,4,rocky_japanesefolk,0.04466148838400841,0
53,100,0.4409090909090909,308,0,24,_Guitar,6,7,rocky_japanesefolk,0.03337075561285019,0
53,100,0.4,430,0,24,_Guitar,6,6,rocky_japanesefolk,0.02694707177579403,0
53,100,0.4,594,0,24,_Guitar,6,6,rocky_japanesefolk,0.02408314310014248,0
57,100,0.3,694,0,24,_Guitar,6,5,rocky_japanesefolk,0.02497202344238758,0
53,100,0.2,770,0,24,_Guitar,6,3,rocky_japanesefolk,0.03064645268023014,0
57,100,0.1,822,0,24,_Guitar,6,2,rocky_japanesefolk,0.041366733610630035,0
53,100,0.1590909090909091,853,0,24,_Guitar,6,3,rocky_japanesefolk,0.07206927239894867,0
55,100,0.5636363636363636,69,1,25,_Guitar,6,9,rocky_japanesefolk,0.9983735084533691,1
52,100,0.12272727272727273,210,0,25,_Guitar,6,2,rocky_japanesefolk,0.05105126276612282,0
52,100,0.17727272727272728,250,0,25,_Guitar,6,3,rocky_japanesefolk,0.041611939668655396,0
52,100,0.21818181818181817,374,0,25,_Guitar,6,3,rocky_japanesefolk,0.037980157881975174,0
52,100,0.1,457,0,25,_Guitar,6,2,rocky_japanesefolk,0.0392630510032177,0
55,100,0.11818181818181818,492,0,25,_Guitar,6,2,rocky_japanesefolk,0.04616765305399895,0
52,100,0.6227272727272727,663,0,25,_Guitar,6,10,rocky_japanesefolk,0.05713630095124245,0
57,100,0.3,839,0,25,_Guitar,6,5,rocky_japanesefolk,0.09188318997621536,0
52,100,0.18181818181818182,443,1,26,_Guitar,6,3,rocky_japanesefolk,0.9990094900131226,1
52,100,0.35909090909090907,501,0,26,_Guitar,6,6,rocky_japanesefolk,0.23322710394859314,0
52,100,0.42272727272727273,752,1,26,_Guitar,6,7,rocky_japanesefolk,0.270578533411026,0
52,100,0.5818181818181818,862,0,26,_Guitar,6,9,rocky_japanesefolk,0.3579317033290863,0
53,100,0.12272727272727273,123,1,27,_Guitar,6,2,rocky_japanesefolk,0.9984879493713379,1
53,100,0.2818181818181818,154,0,27,_Guitar,6,5,rocky_japanesefolk,0.06335083395242691,0
53,100,0.2590909090909091,220,0,27,_Guitar,6,4,rocky_japanesefolk,0.0582866370677948,0
53,100,0.4590909090909091,413,0,27,_Guitar,6,7,rocky_japanesefolk,0.06135781109333038,0
57,100,0.1590909090909091,615,0,27,_Guitar,6,3,rocky_japanesefolk,0.07167796045541763,0
53,100,0.2818181818181818,660,0,27,_Guitar,6,5,rocky_japanesefolk,0.08473000675439835,0
55,100,0.1,791,0,27,_Guitar,6,2,rocky_japanesefolk,0.12634330987930298,0
55,100,0.11818181818181818,285,1,28,_Guitar,6,2,rocky_japanesefolk,0.9990094900131226,1
52,100,0.11818181818181818,470,0,28,_Guitar,6,2,rocky_japanesefolk,0.23322804272174835,0
52,100,0.2,717,1,28,_Guitar,6,3,rocky_japanesefolk,0.2705802917480469,0
52,100,0.3409090909090909,773,0,28,_Guitar,6,5,rocky_japanesefolk,0.35793307423591614,0
55,100,0.1590909090909091,17,1,29,_Guitar,6,3,rocky_japanesefolk,0.9986506104469299,1
55,100,0.5,206,0,29,_Guitar,6,8,rocky_japanesefolk,0.08797933161258698,0
55,100,0.3181818181818182,426,0,29,_Guitar,6,5,rocky_japanesefolk,0.09298345446586609,0
62,100,0.1409090909090909,584,0,29,_Guitar,6,2,rocky_japanesefolk,0.10994870960712433,0
55,100,0.11818181818181818,735,0,29,_Guitar,6,2,rocky_japanesefolk,0.12867090106010437,0
53,100,0.3,818,0,29,_Guitar,6,5,rocky_japanesefolk,0.1822180598974228,0
53,100,0.2818181818181818,92,1,30,_Guitar,6,5,rocky_japanesefolk,0.9988439083099365,1
53,100,0.32272727272727275,223,0,30,_Guitar,6,5,rocky_japanesefolk,0.13797925412654877,0
53,100,0.37727272727272726,303,0,30,_Guitar,6,6,rocky_japanesefolk,0.1623586118221283,0
53,100,0.11818181818181818,413,0,30,_Guitar,6,2,rocky_japanesefolk,0.19105485081672668,0
53,100,0.32272727272727275,474,0,30,_Guitar,6,5,rocky_japanesefolk,0.26195427775382996,0
52,100,0.1590909090909091,285,1,31,_Guitar,6,3,rocky_japanesefolk,0.9986506104469299,1
52,100,0.1,333,0,31,_Guitar,6,2,rocky_japanesefolk,0.08798091113567352,0
52,100,0.5,430,0,31,_Guitar,6,8,rocky_japanesefolk,0.09298834204673767,0
52,100,0.8409090909090909,576,0,31,_Guitar,6,13,rocky_japanesefolk,0.10995835810899734,0
57,100,0.1590909090909091,760,0,31,_Guitar,6,3,rocky_japanesefolk,0.1286792904138565,0
57,100,0.11818181818181818,801,0,31,_Guitar,6,2,rocky_japanesefolk,0.18222679197788239,0
62,100,0.13636363636363635,348,1,32,_Guitar,6,2,rocky_japanesefolk,0.9983232617378235,1
55,100,0.7181818181818181,778,1,32,_Guitar,6,11,rocky_japanesefolk,0.5462154746055603,1
55,100,0.11818181818181818,206,1,33,_Guitar,6,2,rocky_japanesefolk,0.9986506104469299,1
52,100,0.2,295,0,33,_Guitar,6,3,rocky_japanesefolk,0.08797968924045563,0
52,100,0.2,461,0,33,_Guitar,6,3,rocky_japanesefolk,0.09298551827669144,0
52,100,0.1,691,0,33,_Guitar,6,2,rocky_japanesefolk,0.10995317995548248,0
67,100,0.1590909090909091,783,0,33,_Guitar,6,3,rocky_japanesefolk,0.12867216765880585,0
55,100,0.5409090909090909,818,0,33,_Guitar,6,9,rocky_japanesefolk,0.18222276866436005,0
60,100,0.1409090909090909,541,1,34,_Guitar,6,2,rocky_japanesefolk,0.9983232617378235,1
55,100,0.18181818181818182,871,1,34,_Guitar,6,3,rocky_japanesefolk,0.5462156534194946,1
62,100,1.018181818181818,141,1,35,_Guitar,6,15,rocky_japanesefolk,0.9988439083099365,1
57,100,0.16363636363636364,444,1,35,_Guitar,6,3,rocky_japanesefolk,0.13798904418945312,0
57,100,0.4,660,0,35,_Guitar,6,6,rocky_japanesefolk,0.16236983239650726,0
60,100,0.11818181818181818,765,0,35,_Guitar,6,2,rocky_japanesefolk,0.1910688281059265,0
57,100,0.12272727272727273,826,0,35,_Guitar,6,2,rocky_japanesefolk,0.261972039937973,0
57,100,0.22272727272727272,26,1,36,_Guitar,6,4,rocky_japanesefolk,0.9983231425285339,1
62,100,0.3409090909090909,554,1,36,_Guitar,6,5,rocky_japanesefolk,0.546219527721405,1
53,100,0.11818181818181818,220,1,37,_Guitar,6,2,rocky_japanesefolk,0.9990280866622925,1
52,100,0.13636363636363635,700,1,37,_Guitar,6,2,rocky_japanesefolk,0.37034085392951965,0
52,100,0.3181818181818182,866,0,37,_Guitar,6,5,rocky_japanesefolk,0.4561740458011627,0
52,100,0.3409090909090909,96,1,38,_Guitar,6,5,rocky_japanesefolk,0.9984879493713379,1
60,100,0.4,171,0,38,_Guitar,6,6,rocky_japanesefolk,0.06335600465536118,0
57,100,0.35909090909090907,260,0,38,_Guitar,6,6,rocky_japanesefolk,0.058290258049964905,0
57,100,0.740909090909091,386,0,38,_Guitar,6,12,rocky_japanesefolk,0.061364494264125824,0
62,100,0.3181818181818182,646,1,38,_Guitar,6,5,rocky_japanesefolk,0.07168535143136978,0
57,100,0.12272727272727273,738,0,38,_Guitar,6,2,rocky_japanesefolk,0.08473876863718033,0
53,100,0.3181818181818182,810,0,38,_Guitar,6,5,rocky_japanesefolk,0.12635603547096252,0
62,100,0.17727272727272728,361,1,39,_Guitar,6,3,rocky_japanesefolk,0.9990280866622925,1
59,100,0.2,471,0,39,_Guitar,6,3,rocky_japanesefolk,0.37033915519714355,0
52,100,0.6227272727272727,774,1,39,_Guitar,6,10,rocky_japanesefolk,0.45617997646331787,0
60,100,0.5181818181818182,75,1,40,_Guitar,6,8,rocky_japanesefolk,0.9988439083099365,1
52,100,0.2818181818181818,201,0,40,_Guitar,6,5,rocky_japanesefolk,0.13798658549785614,0
55,100,0.13636363636363635,303,0,40,_Guitar,6,2,rocky_japanesefolk,0.1623636931180954,0
55,100,0.2409090909090909,488,0,40,_Guitar,6,4,rocky_japanesefolk,0.19105930626392365,0
55,100,0.36363636363636365,796,1,40,_Guitar,6,6,rocky_japanesefolk,0.26196181774139404,0
67,100,0.2,0,1,41,_Guitar,6,3,rocky_japanesefolk,0.9990094900131226,1
60,100,0.6409090909090909,396,1,41,_Guitar,6,10,rocky_japanesefolk,0.23323555290699005,0
57,100,0.12272727272727273,541,0,41,_Guitar,6,2,rocky_japanesefolk,0.2705845236778259,0
57,100,0.33636363636363636,611,0,41,_Guitar,6,5,rocky_japanesefolk,0.35792818665504456,0
62,100,0.3,211,1,42,_Guitar,6,5,rocky_japanesefolk,0.9988439083099365,1
57,100,0.6590909090909091,426,0,42,_Guitar,6,11,rocky_japanesefolk,0.13798673450946808,0
57,100,0.41818181818181815,633,0,42,_Guitar,6,7,rocky_japanesefolk,0.1623692363500595,0
60,100,0.16363636363636364,751,0,42,_Guitar,6,3,rocky_japanesefolk,0.19106610119342804,0
60,100,0.22272727272727272,839,0,42,_Guitar,6,4,rocky_japanesefolk,0.2619742155075073,0
60,100,0.38181818181818183,43,1,43,_Guitar,6,6,rocky_japanesefolk,0.9990280866622925,1
55,100,0.3181818181818182,383,1,43,_Guitar,6,5,rocky_japanesefolk,0.3703356981277466,0
55,100,0.16363636363636364,509,0,43,_Guitar,6,3,rocky_japanesefolk,0.4561693072319031,0
52,100,0.4818181818181818,48,1,44,_Guitar,6,8,rocky_japanesefolk,0.9986506104469299,1
60,100,0.18181818181818182,351,1,44,_Guitar,6,3,rocky_japanesefolk,0.08798278868198395,0
60,100,0.2818181818181818,408,0,44,_Guitar,6,5,rocky_japanesefolk,0.0929923877120018,0
55,100,0.3181818181818182,515,0,44,_Guitar,6,5,rocky_japanesefolk,0.10995539277791977,0
55,100,0.2590909090909091,616,0,44,_Guitar,6,4,rocky_japanesefolk,0.12867489457130432,0
52,100,1.7,678,0,44,_Guitar,6,15,rocky_japanesefolk,0.182221457362175,0
60,100,0.12272727272727273,201,1,45,_Guitar,6,2,rocky_japanesefolk,0.9990280866622925,1
53,100,0.11818181818181818,238,0,45,_Guitar,6,2,rocky_japanesefolk,0.37032824754714966,0
53,100,0.18181818181818182,791,1,45,_Guitar,6,3,rocky_japanesefolk,0.45616161823272705,0
59,100,0.8227272727272728,276,1,46,_Guitar,6,13,rocky_japanesefolk,0.9983231425285339,1
52,100,0.8,581,1,46,_Guitar,6,13,rocky_japanesefolk,0.5462151765823364,1
52,100,0.2772727272727273,31,1,47,_Guitar,6,4,rocky_japanesefolk,0.9983231425285339,1
62,100,0.9,105,0,47,_Guitar,6,14,rocky_japanesefolk,0.5462163686752319,1
53,100,0.2636363636363636,686,1,50,_Guitar,6,4,rocky_japanesefolk,0.9983231425285339,1
53,100,1.4,748,0,50,_Guitar,6,15,rocky_japanesefolk,0.546212375164032,1
60,100,0.759090909090909,185,1,51,_Guitar,6,12,rocky_japanesefolk,0.9990280866622925,1
53,100,0.4,391,0,51,_Guitar,6,6,rocky_japanesefolk,0.37033554911613464,0
59,100,0.4409090909090909,550,0,51,_Guitar,6,7,rocky_japanesefolk,0.4561659097671509,0
55,100,0.1,276,1,52,_Guitar,6,2,rocky_japanesefolk,0.9990280866622925,1
52,100,1.0818181818181818,528,1,52,_Guitar,6,15,rocky_japanesefolk,0.37033945322036743,0
52,100,0.5818181818181818,826,1,52,_Guitar,6,9,rocky_japanesefolk,0.4561716616153717,0
52,100,0.1590909090909091,96,1,53,_Guitar,6,3,rocky_japanesefolk,0.9986506104469299,1
52,100,0.22272727272727272,166,0,53,_Guitar,6,4,rocky_japanesefolk,0.08798173815011978,0
60,100,0.4590909090909091,308,0,53,_Guitar,6,7,rocky_japanesefolk,0.09298788011074066,0
55,100,0.2772727272727273,493,0,53,_Guitar,6,4,rocky_japanesefolk,0.10995467007160187,0
57,100,0.18181818181818182,703,0,53,_Guitar,6,3,rocky_japanesefolk,0.12867459654808044,0
57,100,0.21818181818181817,770,0,53,_Guitar,6,3,rocky_japanesefolk,0.18222256004810333,0
57,100,0.18181818181818182,616,1,54,_Guitar,6,3,rocky_japanesefolk,0.9792234897613525,1
55,100,0.4590909090909091,383,1,55,_Guitar,6,7,rocky_japanesefolk,0.9792238473892212,1
57,100,0.1409090909090909,541,1,56,_Guitar,6,2,rocky_japanesefolk,0.979223906993866,1
57,100,1.0818181818181818,748,1,57,_Guitar,6,15,rocky_japanesefolk,0.9792230129241943,1
55,100,0.18181818181818182,399,1,58,_Guitar,6,3,rocky_japanesefolk,0.9990280866622925,1
55,100,0.11818181818181818,506,0,58,_Guitar,6,2,rocky_japanesefolk,0.37034377455711365,0
55,100,1.9227272727272726,598,0,58,_Guitar,6,15,rocky_japanesefolk,0.4561573266983032,0
53,100,0.8181818181818182,193,1,59,_Guitar,6,13,rocky_japanesefolk,0.9990094900131226,1
60,100,0.2590909090909091,418,0,59,_Guitar,6,4,rocky_japanesefolk,0.23323732614517212,0
55,100,1.2181818181818183,506,0,59,_Guitar,6,15,rocky_japanesefolk,0.2705698013305664,0
52,100,0.18181818181818182,813,1,59,_Guitar,6,3,rocky_japanesefolk,0.3579294681549072,0
57,100,0.4,0,1,61,_Guitar,6,6,rocky_japanesefolk,0.9792241454124451,1
55,100,0.12272727272727273,861,1,62,_Guitar,6,2,rocky_japanesefolk,0.9792245030403137,1
55,100,0.7181818181818181,370,1,63,_Guitar,6,11,rocky_japanesefolk,0.9990094900131226,1
55,100,0.13636363636363635,633,1,63,_Guitar,6,2,rocky_japanesefolk,0.2332390546798706,0
55,100,0.6772727272727272,668,0,63,_Guitar,6,11,rocky_japanesefolk,0.27058109641075134,0
55,100,0.6181818181818182,823,0,63,_Guitar,6,10,rocky_japanesefolk,0.3579288423061371,0
55,100,0.1,96,1,64,_Guitar,6,2,rocky_japanesefolk,0.9792241454124451,1
52,100,0.11818181818181818,197,1,65,_Guitar,6,2,rocky_japanesefolk,0.9982556700706482,1
52,100,0.1,250,0,65,_Guitar,6,2,rocky_japanesefolk,0.04129359871149063,0
57,100,0.13636363636363635,282,0,65,_Guitar,6,2,rocky_japanesefolk,0.02912483550608158,0
55,100,0.1590909090909091,457,0,65,_Guitar,6,3,rocky_japanesefolk,0.021570300683379173,0
55,100,0.1409090909090909,496,0,65,_Guitar,6,2,rocky_japanesefolk,0.017058920115232468,0
55,100,0.18181818181818182,540,0,65,_Guitar,6,3,rocky_japanesefolk,0.015268383547663689,0
55,100,0.11818181818181818,590,0,65,_Guitar,6,2,rocky_japanesefolk,0.01645573042333126,0
55,100,0.5409090909090909,619,0,65,_Guitar,6,9,rocky_japanesefolk,0.02183668315410614,0
55,100,0.11818181818181818,756,0,65,_Guitar,6,2,rocky_japanesefolk,0.03251812607049942,0
52,100,0.5363636363636364,787,0,65,_Guitar,6,9,rocky_japanesefolk,0.06091192364692688,0
55,100,0.4818181818181818,35,1,66,_Guitar,6,8,rocky_japanesefolk,0.9988439083099365,1
53,100,0.2590909090909091,184,0,66,_Guitar,6,4,rocky_japanesefolk,0.13798078894615173,0
53,100,0.2772727272727273,470,1,66,_Guitar,6,4,rocky_japanesefolk,0.16235759854316711,0
53,100,0.2409090909090909,572,0,66,_Guitar,6,4,rocky_japanesefolk,0.19105061888694763,0
55,100,0.41818181818181815,726,0,66,_Guitar,6,7,rocky_japanesefolk,0.2619561553001404,0
52,100,0.12272727272727273,13,1,67,_Guitar,6,2,rocky_japanesefolk,0.9990280866622925,1
55,100,0.1590909090909091,66,0,67,_Guitar,6,3,rocky_japanesefolk,0.37034672498703003,0
57,100,0.6818181818181818,540,1,67,_Guitar,6,11,rocky_japanesefolk,0.45616668462753296,0
62,100,0.1409090909090909,66,1,68,_Guitar,6,2,rocky_japanesefolk,0.9983231425285339,1
57,100,0.3,110,0,68,_Guitar,6,5,rocky_japanesefolk,0.5462166666984558,1
52,100,0.3,330,1,69,_Guitar,6,5,rocky_japanesefolk,0.9990094900131226,1
57,100,0.12272727272727273,475,0,69,_Guitar,6,2,rocky_japanesefolk,0.23323403298854828,0
55,100,0.1409090909090909,624,0,69,_Guitar,6,2,rocky_japanesefolk,0.2705909311771393,0
55,100,0.6772727272727272,756,0,69,_Guitar,6,11,rocky_japanesefolk,0.35793110728263855,0
52,100,0.759090909090909,35,1,70,_Guitar,6,12,rocky_japanesefolk,0.9988439083099365,1
55,100,0.37727272727272726,229,0,70,_Guitar,6,6,rocky_japanesefolk,0.13797913491725922,0
53,100,0.41818181818181815,347,0,70,_Guitar,6,7,rocky_japanesefolk,0.16235791146755219,0
60,100,0.1590909090909091,457,0,70,_Guitar,6,3,rocky_japanesefolk,0.19105903804302216,0
53,100,0.11818181818181818,590,0,70,_Guitar,6,2,rocky_japanesefolk,0.2619537115097046,0
52,100,0.6409090909090909,92,1,71,_Guitar,6,10,rocky_japanesefolk,0.9990280866622925,1
55,100,0.3409090909090909,550,1,71,_Guitar,6,5,rocky_japanesefolk,0.37033894658088684,0
55,100,0.2409090909090909,629,0,71,_Guitar,6,4,rocky_japanesefolk,0.45616868138313293,0
57,100,0.5818181818181818,3,1,72,_Guitar,6,9,rocky_japanesefolk,0.9983004927635193,1
57,100,0.4,202,0,72,_Guitar,6,6,rocky_japanesefolk,0.044662415981292725,0
52,100,0.1,316,0,72,_Guitar,6,2,rocky_japanesefolk,0.033372584730386734,0
52,100,0.3409090909090909,426,0,72,_Guitar,6,5,rocky_japanesefolk,0.026949269697070122,0
55,100,0.2409090909090909,509,0,72,_Guitar,6,4,rocky_japanesefolk,0.02408461645245552,0
52,100,0.1409090909090909,585,0,72,_Guitar,6,2,rocky_japanesefolk,0.024973653256893158,0
52,100,0.4590909090909091,633,0,72,_Guitar,6,7,rocky_japanesefolk,0.030648574233055115,0
52,100,0.12272727272727273,817,0,72,_Guitar,6,2,rocky_japanesefolk,0.04136955365538597,0
52,100,0.12272727272727273,849,0,72,_Guitar,6,2,rocky_japanesefolk,0.07207005470991135,0
53,100,0.5409090909090909,166,1,73,_Guitar,6,9,rocky_japanesefolk,0.9990280866622925,1
53,100,0.18181818181818182,487,1,73,_Guitar,6,3,rocky_japanesefolk,0.37034663558006287,0
53,100,0.6,783,1,73,_Guitar,6,10,rocky_japanesefolk,0.4561629295349121,0
53,100,0.7181818181818181,43,1,74,_Guitar,6,11,rocky_japanesefolk,0.9986506104469299,1
53,100,0.5409090909090909,242,0,74,_Guitar,6,9,rocky_japanesefolk,0.08797762542963028,0
53,100,0.2,502,1,74,_Guitar,6,3,rocky_japanesefolk,0.0929819718003273,0
53,100,0.2818181818181818,593,0,74,_Guitar,6,5,rocky_japanesefolk,0.10994935780763626,0
57,100,0.5181818181818182,690,0,74,_Guitar,6,8,rocky_japanesefolk,0.1286662518978119,0
53,100,0.3,817,0,74,_Guitar,6,5,rocky_japanesefolk,0.18222133815288544,0
53,100,0.2409090909090909,92,1,75,_Guitar,6,4,rocky_japanesefolk,0.9986506104469299,1
53,100,0.2636363636363636,223,0,75,_Guitar,6,4,rocky_japanesefolk,0.08797848224639893,0
64,100,0.2772727272727273,326,0,75,_Guitar,6,4,rocky_japanesefolk,0.09298313409090042,0
53,100,0.4772727272727273,392,0,75,_Guitar,6,8,rocky_japanesefolk,0.10994719713926315,0
53,100,0.2,532,0,75,_Guitar,6,3,rocky_japanesefolk,0.12867014110088348,0
53,100,0.6818181818181818,686,0,75,_Guitar,6,11,rocky_japanesefolk,0.18221160769462585,0
55,100,0.2590909090909091,62,1,76,_Guitar,6,4,rocky_japanesefolk,0.9792242646217346,1
64,100,0.6772727272727272,119,1,77,_Guitar,6,11,rocky_japanesefolk,0.9986506104469299,1
55,100,0.2590909090909091,457,1,77,_Guitar,6,4,rocky_japanesefolk,0.08798064291477203,0
55,100,0.2409090909090909,642,0,77,_Guitar,6,4,rocky_japanesefolk,0.09298325330018997,0
60,100,0.1409090909090909,703,0,77,_Guitar,6,2,rocky_japanesefolk,0.10994778573513031,0
60,100,0.18181818181818182,739,0,77,_Guitar,6,3,rocky_japanesefolk,0.12867026031017303,0
55,100,0.4,805,0,77,_Guitar,6,6,rocky_japanesefolk,0.18221794068813324,0
55,100,0.11818181818181818,373,1,78,_Guitar,6,2,rocky_japanesefolk,0.9990094900131226,1
55,100,0.1,523,0,78,_Guitar,6,2,rocky_japanesefolk,0.23322445154190063,0
53,100,0.4,677,0,78,_Guitar,6,6,rocky_japanesefolk,0.27057793736457825,0
53,100,0.1590909090909091,770,0,78,_Guitar,6,3,rocky_japanesefolk,0.3579225242137909,0
53,100,0.4409090909090909,100,1,79,_Guitar,6,7,rocky_japanesefolk,0.9986506104469299,1
53,100,0.2818181818181818,263,0,79,_Guitar,6,5,rocky_japanesefolk,0.08798033744096756,0
52,100,0.3,417,0,79,_Guitar,6,5,rocky_japanesefolk,0.09298663586378098,0
55,100,0.11818181818181818,546,0,79,_Guitar,6,2,rocky_japanesefolk,0.10994862765073776,0
52,100,0.12272727272727273,629,0,79,_Guitar,6,2,rocky_japanesefolk,0.12867195904254913,0
55,100,0.2,703,0,79,_Guitar,6,3,rocky_japanesefolk,0.18221278488636017,0
55,100,0.22272727272727272,35,1,80,_Guitar,6,4,rocky_japanesefolk,0.9988439083099365,1
57,100,1.2181818181818183,140,0,80,_Guitar,6,15,rocky_japanesefolk,0.1379801481962204,0
57,100,1.0636363636363637,422,1,80,_Guitar,6,15,rocky_japanesefolk,0.16235996782779694,0
57,100,0.11818181818181818,677,1,80,_Guitar,6,2,rocky_japanesefolk,0.1910562962293625,0
52,100,0.5590909090909091,756,0,80,_Guitar,6,9,rocky_japanesefolk,0.2619645297527313,0
55,100,0.1,136,1,81,_Guitar,6,2,rocky_japanesefolk,0.9990094900131226,1
52,100,1.059090909090909,172,0,81,_Guitar,6,15,rocky_japanesefolk,0.2332305610179901,0
52,100,0.2,436,1,81,_Guitar,6,3,rocky_japanesefolk,0.2705850601196289,0
53,100,0.3,480,0,81,_Guitar,6,5,rocky_japanesefolk,0.3579283654689789,0
55,100,0.5409090909090909,220,1,82,_Guitar,6,9,rocky_japanesefolk,0.9990280866622925,1
62,100,0.1409090909090909,703,1,82,_Guitar,6,2,rocky_japanesefolk,0.3703456223011017,0
55,100,0.5590909090909091,826,0,82,_Guitar,6,9,rocky_japanesefolk,0.4561687111854553,0
55,100,0.38181818181818183,289,1,84,_Guitar,6,6,rocky_japanesefolk,0.9990094900131226,1
52,100,0.13636363636363635,436,0,84,_Guitar,6,2,rocky_japanesefolk,0.2332344651222229,0
55,100,0.6818181818181818,606,0,84,_Guitar,6,11,rocky_japanesefolk,0.27058178186416626,0
52,100,0.6181818181818182,770,0,84,_Guitar,6,10,rocky_japanesefolk,0.3579306900501251,0
52,100,0.13636363636363635,106,1,85,_Guitar,6,2,rocky_japanesefolk,0.9792245030403137,1
60,100,0.11818181818181818,96,1,86,_Guitar,6,2,rocky_japanesefolk,0.9988439083099365,1
60,100,0.2818181818181818,307,0,86,_Guitar,6,5,rocky_japanesefolk,0.13798648118972778,0
55,100,0.6818181818181818,377,0,86,_Guitar,6,11,rocky_japanesefolk,0.16236896812915802,0
67,100,0.2590909090909091,766,1,86,_Guitar,6,4,rocky_japanesefolk,0.19106104969978333,0
60,100,0.5,844,0,86,_Guitar,6,8,rocky_japanesefolk,0.26196226477622986,0
53,100,0.5,119,1,87,_Guitar,6,8,rocky_japanesefolk,0.9990280866622925,1
59,100,0.2636363636363636,443,1,87,_Guitar,6,4,rocky_japanesefolk,0.37034302949905396,0
59,100,0.8818181818181818,509,0,87,_Guitar,6,14,rocky_japanesefolk,0.4561645984649658,0
62,100,0.8818181818181818,0,1,89,_Guitar,6,14,rocky_japanesefolk,0.9990280866622925,1
53,100,0.6181818181818182,360,1,89,_Guitar,6,10,rocky_japanesefolk,0.37033554911613464,0
67,100,0.17727272727272728,866,1,89,_Guitar,6,3,rocky_japanesefolk,0.4561772644519806,0
55,100,0.11818181818181818,339,1,92,_Guitar,6,2,rocky_japanesefolk,0.9990280866622925,1
55,100,0.37727272727272726,493,0,92,_Guitar,6,6,rocky_japanesefolk,0.3703465163707733,0
55,100,0.4590909090909091,646,0,92,_Guitar,6,7,rocky_japanesefolk,0.45615965127944946,0
52,100,0.2636363636363636,333,1,93,_Guitar,6,4,rocky_japanesefolk,0.9990094900131226,1
52,100,0.22272727272727272,553,0,93,_Guitar,6,4,rocky_japanesefolk,0.23322895169258118,0
57,100,0.2,677,0,93,_Guitar,6,3,rocky_japanesefolk,0.2705775201320648,0
52,100,0.18181818181818182,729,0,93,_Guitar,6,3,rocky_japanesefolk,0.35793763399124146,0
52,100,0.11818181818181818,66,1,94,_Guitar,6,2,rocky_japanesefolk,0.9990280866622925,1
52,100,0.5,276,0,94,_Guitar,6,8,rocky_japanesefolk,0.3703400790691376,0
52,100,1.0,417,0,94,_Guitar,6,15,rocky_japanesefolk,0.4561687707901001,0
53,100,0.1409090909090909,100,1,95,_Guitar,6,2,rocky_japanesefolk,0.9990094900131226,1
53,100,0.2590909090909091,303,0,95,_Guitar,6,4,rocky_japanesefolk,0.2332286536693573,0
55,100,0.41818181818181815,449,0,95,_Guitar,6,7,rocky_japanesefolk,0.27057957649230957,0
60,100,0.5,624,0,95,_Guitar,6,8,rocky_japanesefolk,0.3579266667366028,0
57,100,0.2,184,1,96,_Guitar,6,3,rocky_japanesefolk,0.9990096092224121,1
55,100,0.11818181818181818,770,1,96,_Guitar,6,2,rocky_japanesefolk,0.23323120176792145,0
55,100,0.11818181818181818,823,0,96,_Guitar,6,2,rocky_japanesefolk,0.2705817222595215,0
55,100,0.22272727272727272,862,0,96,_Guitar,6,4,rocky_japanesefolk,0.3579254448413849,0
52,100,0.12272727272727273,509,1,97,_Guitar,6,2,rocky_japanesefolk,0.9792247414588928,1
70,100,0.11818181818181818,304,1,1,_Remix_Guitar,6,2, (Remix) Stems (1),0.9990280866622925,1
58,100,0.2818181818181818,421,0,1,_Remix_Guitar,6,5, (Remix) Stems (1),0.3703451454639435,0
63,100,0.1590909090909091,673,1,1,_Remix_Guitar,6,3, (Remix) Stems (1),0.4561684727668762,0
70,100,0.1409090909090909,12,1,2,_Remix_Guitar,6,2, (Remix) Stems (1),0.9986506104469299,1
58,100,0.2590909090909091,57,0,2,_Remix_Guitar,6,4, (Remix) Stems (1),0.08797838538885117,0
63,100,0.18181818181818182,443,1,2,_Remix_Guitar,6,3, (Remix) Stems (1),0.09298478811979294,0
63,100,0.3409090909090909,488,0,2,_Remix_Guitar,6,5, (Remix) Stems (1),0.10994767397642136,0
58,100,0.2772727272727273,568,0,2,_Remix_Guitar,6,4, (Remix) Stems (1),0.12867316603660583,0
62,100,0.1409090909090909,845,1,2,_Remix_Guitar,6,2, (Remix) Stems (1),0.1822168529033661,0
58,100,0.23636363636363636,216,1,3,_Remix_Guitar,6,4, (Remix) Stems (1),0.9983231425285339,1
63,100,0.21818181818181817,461,1,3,_Remix_Guitar,6,3, (Remix) Stems (1),0.5462161302566528,1
63,100,0.22272727272727272,114,1,4,_Remix_Guitar,6,4, (Remix) Stems (1),0.9988439083099365,1
63,100,0.41818181818181815,184,0,4,_Remix_Guitar,6,7, (Remix) Stems (1),0.13798853754997253,0
58,100,0.2590909090909091,348,0,4,_Remix_Guitar,6,4, (Remix) Stems (1),0.16237759590148926,0
63,100,0.5409090909090909,629,1,4,_Remix_Guitar,6,9, (Remix) Stems (1),0.1910659521818161,0
63,100,0.2818181818181818,862,1,4,_Remix_Guitar,6,5, (Remix) Stems (1),0.2619832456111908,0
58,100,0.18181818181818182,409,1,5,_Remix_Guitar,6,3, (Remix) Stems (1),0.9983231425285339,1
63,100,0.2590909090909091,867,1,5,_Remix_Guitar,6,4, (Remix) Stems (1),0.5462121963500977,1
56,100,0.38181818181818183,201,1,6,_Remix_Guitar,6,6, (Remix) Stems (1),0.9990280866622925,1
63,100,0.7181818181818181,396,0,6,_Remix_Guitar,6,11, (Remix) Stems (1),0.37032821774482727,0
70,100,0.22272727272727272,739,1,6,_Remix_Guitar,6,4, (Remix) Stems (1),0.45617419481277466,0
63,100,0.1409090909090909,8,1,7,_Remix_Guitar,6,2, (Remix) Stems (1),0.9990280866622925,1
63,100,0.1,220,0,7,_Remix_Guitar,6,2, (Remix) Stems (1),0.3703438937664032,0
62,100,0.1,629,1,7,_Remix_Guitar,6,2, (Remix) Stems (1),0.45617929100990295,0
63,100,0.2636363636363636,422,1,8,_Remix_Guitar,6,4, (Remix) Stems (1),0.9990280866622925,1
56,100,0.35909090909090907,505,0,8,_Remix_Guitar,6,6, (Remix) Stems (1),0.37033748626708984,0
63,100,0.2772727272727273,744,1,8,_Remix_Guitar,6,4, (Remix) Stems (1),0.4561700224876404,0
63,100,0.13636363636363635,17,1,9,_Remix_Guitar,6,2, (Remix) Stems (1),0.9983231425285339,1
63,100,0.38181818181818183,637,1,9,_Remix_Guitar,6,6, (Remix) Stems (1),0.5462180376052856,1
63,100,0.23636363636363636,39,1,10,_Remix_Guitar,6,4, (Remix) Stems (1),0.9988439083099365,1
58,100,0.1,211,0,10,_Remix_Guitar,6,2, (Remix) Stems (1),0.1379862278699875,0
58,100,0.32272727272727275,584,1,10,_Remix_Guitar,6,5, (Remix) Stems (1),0.16237403452396393,0
58,100,0.22272727272727272,716,0,10,_Remix_Guitar,6,4, (Remix) Stems (1),0.1910642683506012,0
56,100,0.4772727272727273,787,0,10,_Remix_Guitar,6,8, (Remix) Stems (1),0.2619762420654297,0
56,100,0.1590909090909091,30,1,11,_Remix_Guitar,6,3, (Remix) Stems (1),0.9986506104469299,1
58,100,0.2590909090909091,343,1,11,_Remix_Guitar,6,4, (Remix) Stems (1),0.08797862380743027,0
63,100,0.1,642,1,11,_Remix_Guitar,6,2, (Remix) Stems (1),0.09298161417245865,0
58,100,0.18181818181818182,739,0,11,_Remix_Guitar,6,3, (Remix) Stems (1),0.10994856059551239,0
58,100,0.1,795,0,11,_Remix_Guitar,6,2, (Remix) Stems (1),0.1286657452583313,0
58,100,0.2772727272727273,854,0,11,_Remix_Guitar,6,4, (Remix) Stems (1),0.18221703171730042,0
58,100,0.21818181818181817,493,1,12,_Remix_Guitar,6,3, (Remix) Stems (1),0.9983232617378235,1
55,100,0.5181818181818182,756,1,12,_Remix_Guitar,6,8, (Remix) Stems (1),0.5462149977684021,1
55,100,0.18181818181818182,65,1,13,_Remix_Guitar,6,3, (Remix) Stems (1),0.9986506104469299,1
56,100,0.11818181818181818,316,1,13,_Remix_Guitar,6,2, (Remix) Stems (1),0.08797725290060043,0
56,100,0.6,369,0,13,_Remix_Guitar,6,10, (Remix) Stems (1),0.09298136830329895,0
58,100,0.2590909090909091,634,1,13,_Remix_Guitar,6,4, (Remix) Stems (1),0.10994342714548111,0
58,100,0.1,694,0,13,_Remix_Guitar,6,2, (Remix) Stems (1),0.128665491938591,0
58,100,0.22272727272727272,840,0,13,_Remix_Guitar,6,4, (Remix) Stems (1),0.18220676481723785,0
63,100,0.5409090909090909,13,1,14,_Remix_Guitar,6,9, (Remix) Stems (1),0.9986506104469299,1
58,100,0.3,140,0,14,_Remix_Guitar,6,5, (Remix) Stems (1),0.08798202127218246,0
58,100,0.32272727272727275,268,0,14,_Remix_Guitar,6,5, (Remix) Stems (1),0.09298475086688995,0
62,100,0.2,603,1,14,_Remix_Guitar,6,3, (Remix) Stems (1),0.10994976758956909,0
58,100,0.1409090909090909,730,0,14,_Remix_Guitar,6,2, (Remix) Stems (1),0.12867385149002075,0
58,100,0.2772727272727273,778,0,14,_Remix_Guitar,6,4, (Remix) Stems (1),0.18222111463546753,0
63,100,0.1590909090909091,383,1,15,_Remix_Guitar,6,3, (Remix) Stems (1),0.9990280866622925,1
56,100,0.12272727272727273,474,0,15,_Remix_Guitar,6,2, (Remix) Stems (1),0.3703431487083435,0
58,100,0.1,795,1,15,_Remix_Guitar,6,2, (Remix) Stems (1),0.4561711549758911,0
58,100,0.2590909090909091,40,1,16,_Remix_Guitar,6,4, (Remix) Stems (1),0.9990094900131226,1
55,100,0.4818181818181818,223,0,16,_Remix_Guitar,6,8, (Remix) Stems (1),0.23322629928588867,0
65,100,0.8181818181818182,351,0,16,_Remix_Guitar,6,13, (Remix) Stems (1),0.27057376503944397,0
58,100,0.2,567,0,16,_Remix_Guitar,6,3, (Remix) Stems (1),0.35792842507362366,0
53,100,0.2,391,1,17,_Remix_Guitar,6,3, (Remix) Stems (1),0.9990094900131226,1
53,100,0.3,440,0,17,_Remix_Guitar,6,5, (Remix) Stems (1),0.2332324981689453,0
56,100,0.2,656,0,17,_Remix_Guitar,6,3, (Remix) Stems (1),0.27057865262031555,0
58,100,0.17727272727272728,712,0,17,_Remix_Guitar,6,3, (Remix) Stems (1),0.357927143573761,0
58,100,0.1590909090909091,52,1,18,_Remix_Guitar,6,3, (Remix) Stems (1),0.9986506104469299,1
60,100,0.2409090909090909,96,0,18,_Remix_Guitar,6,4, (Remix) Stems (1),0.0879812240600586,0
58,100,0.8,154,0,18,_Remix_Guitar,6,13, (Remix) Stems (1),0.09298253059387207,0
58,100,0.2590909090909091,339,0,18,_Remix_Guitar,6,4, (Remix) Stems (1),0.10995161533355713,0
58,100,0.2,729,1,18,_Remix_Guitar,6,3, (Remix) Stems (1),0.12867119908332825,0
63,100,0.12272727272727273,827,0,18,_Remix_Guitar,6,2, (Remix) Stems (1),0.1822132170200348,0
63,100,0.2,550,1,19,_Remix_Guitar,6,3, (Remix) Stems (1),0.9983231425285339,1
60,100,0.11818181818181818,779,0,19,_Remix_Guitar,6,2, (Remix) Stems (1),0.5462251305580139,1
63,100,0.2,343,1,20,_Remix_Guitar,6,3, (Remix) Stems (1),0.979223906993866,1
53,100,0.2409090909090909,144,1,21,_Remix_Guitar,6,4, (Remix) Stems (1),0.979223906993866,1
56,100,0.1,351,1,22,_Remix_Guitar,6,2, (Remix) Stems (1),0.9983231425285339,1
53,100,0.1409090909090909,822,1,22,_Remix_Guitar,6,2, (Remix) Stems (1),0.5462169647216797,1
65,100,0.11818181818181818,9,1,23,_Remix_Guitar,6,2, (Remix) Stems (1),0.9988439083099365,1
53,100,0.1,34,0,23,_Remix_Guitar,6,2, (Remix) Stems (1),0.13797849416732788,0
65,100,0.37727272727272726,140,0,23,_Remix_Guitar,6,6, (Remix) Stems (1),0.16235627233982086,0
65,100,0.2409090909090909,312,0,23,_Remix_Guitar,6,4, (Remix) Stems (1),0.19104740023612976,0
65,100,0.2,426,0,23,_Remix_Guitar,6,3, (Remix) Stems (1),0.2619549334049225,0
63,100,0.3181818181818182,0,1,24,_Remix_Guitar,6,5, (Remix) Stems (1),0.9990094900131226,1
55,100,0.12272727272727273,79,0,24,_Remix_Guitar,6,2, (Remix) Stems (1),0.23323677480220795,0
63,100,0.1409090909090909,461,1,24,_Remix_Guitar,6,2, (Remix) Stems (1),0.2705819606781006,0
60,100,0.1,602,0,24,_Remix_Guitar,6,2, (Remix) Stems (1),0.35793444514274597,0
62,100,0.11818181818181818,171,1,25,_Remix_Guitar,6,2, (Remix) Stems (1),0.9983232617378235,1
53,100,0.17727272727272728,250,0,25,_Remix_Guitar,6,3, (Remix) Stems (1),0.5462194085121155,1
63,100,0.16363636363636364,69,1,26,_Remix_Guitar,6,3, (Remix) Stems (1),0.9983004927635193,1
63,100,0.2590909090909091,140,0,26,_Remix_Guitar,6,4, (Remix) Stems (1),0.044662006199359894,0
60,100,0.3,223,0,26,_Remix_Guitar,6,5, (Remix) Stems (1),0.033372215926647186,0
55,100,0.21818181818181817,360,0,26,_Remix_Guitar,6,3, (Remix) Stems (1),0.026947539299726486,0
53,100,0.1409090909090909,509,0,26,_Remix_Guitar,6,2, (Remix) Stems (1),0.024083850905299187,0
53,100,0.12272727272727273,553,0,26,_Remix_Guitar,6,2, (Remix) Stems (1),0.02497304417192936,0
63,100,0.4818181818181818,663,0,26,_Remix_Guitar,6,8, (Remix) Stems (1),0.030647728592157364,0
63,100,0.1409090909090909,818,0,26,_Remix_Guitar,6,2, (Remix) Stems (1),0.04137050360441208,0
63,100,0.1,853,0,26,_Remix_Guitar,6,2, (Remix) Stems (1),0.07207293808460236,0
63,100,0.1409090909090909,277,1,27,_Remix_Guitar,6,2, (Remix) Stems (1),0.9986506104469299,1
63,100,0.22272727272727272,312,0,27,_Remix_Guitar,6,4, (Remix) Stems (1),0.08798123151063919,0
63,100,0.1,382,0,27,_Remix_Guitar,6,2, (Remix) Stems (1),0.09298595041036606,0
63,100,0.2590909090909091,484,0,27,_Remix_Guitar,6,4, (Remix) Stems (1),0.10995227098464966,0
53,100,0.22272727272727272,673,0,27,_Remix_Guitar,6,4, (Remix) Stems (1),0.1286788135766983,0
60,100,0.12272727272727273,839,0,27,_Remix_Guitar,6,2, (Remix) Stems (1),0.18222907185554504,0
53,100,0.3409090909090909,44,1,28,_Remix_Guitar,6,5, (Remix) Stems (1),0.9986506104469299,1
53,100,0.1590909090909091,185,0,28,_Remix_Guitar,6,3, (Remix) Stems (1),0.08797723799943924,0
53,100,0.17727272727272728,260,0,28,_Remix_Guitar,6,3, (Remix) Stems (1),0.09298145025968552,0
62,100,0.11818181818181818,418,0,28,_Remix_Guitar,6,2, (Remix) Stems (1),0.10994742065668106,0
53,100,0.2,519,0,28,_Remix_Guitar,6,3, (Remix) Stems (1),0.1286689043045044,0
53,100,0.1,567,0,28,_Remix_Guitar,6,2, (Remix) Stems (1),0.1822156012058258,0
55,100,0.18181818181818182,88,1,29,_Remix_Guitar,6,3, (Remix) Stems (1),0.9984879493713379,1
53,100,1.1,202,0,29,_Remix_Guitar,6,15, (Remix) Stems (1),0.06335151940584183,0
58,100,0.12272727272727273,474,1,29,_Remix_Guitar,6,2, (Remix) Stems (1),0.058288417756557465,0
58,100,0.12272727272727273,563,0,29,_Remix_Guitar,6,2, (Remix) Stems (1),0.061358124017715454,0
58,100,0.13636363636363635,656,0,29,_Remix_Guitar,6,2, (Remix) Stems (1),0.07167831063270569,0
58,100,0.3409090909090909,694,0,29,_Remix_Guitar,6,5, (Remix) Stems (1),0.08472847193479538,0
60,100,0.16363636363636364,862,0,29,_Remix_Guitar,6,3, (Remix) Stems (1),0.12634140253067017,0
58,100,0.21818181818181817,40,1,30,_Remix_Guitar,6,3, (Remix) Stems (1),0.9984880685806274,1
53,100,0.2772727272727273,96,0,30,_Remix_Guitar,6,4, (Remix) Stems (1),0.06335097551345825,0
58,100,0.11818181818181818,171,0,30,_Remix_Guitar,6,2, (Remix) Stems (1),0.05828896164894104,0
53,100,0.6,216,0,30,_Remix_Guitar,6,10, (Remix) Stems (1),0.061360351741313934,0
58,100,0.12272727272727273,422,0,30,_Remix_Guitar,6,2, (Remix) Stems (1),0.07168037444353104,0
53,100,0.1,492,0,30,_Remix_Guitar,6,2, (Remix) Stems (1),0.08473087102174759,0
55,100,0.5181818181818182,766,1,30,_Remix_Guitar,6,8, (Remix) Stems (1),0.1263480931520462,0
55,100,0.12272727272727273,179,1,31,_Remix_Guitar,6,2, (Remix) Stems (1),0.9983232617378235,1
53,100,0.1409090909090909,646,1,31,_Remix_Guitar,6,2, (Remix) Stems (1),0.5462083220481873,1
53,100,0.37727272727272726,383,1,32,_Remix_Guitar,6,6, (Remix) Stems (1),0.9990280866622925,1
53,100,0.2,471,0,32,_Remix_Guitar,6,3, (Remix) Stems (1),0.37033796310424805,0
53,100,0.13636363636363635,765,1,32,_Remix_Guitar,6,2, (Remix) Stems (1),0.45616868138313293,0
55,100,0.21818181818181817,581,1,33,_Remix_Guitar,6,3, (Remix) Stems (1),0.9983232617378235,1
55,100,0.6,726,0,33,_Remix_Guitar,6,10, (Remix) Stems (1),0.546212911605835,1
58,100,0.2772727272727273,413,1,34,_Remix_Guitar,6,4, (Remix) Stems (1),0.9990280866622925,1
53,100,0.11818181818181818,681,1,34,_Remix_Guitar,6,2, (Remix) Stems (1),0.37033843994140625,0
53,100,0.2818181818181818,804,0,34,_Remix_Guitar,6,5, (Remix) Stems (1),0.456169068813324,0
53,100,0.1409090909090909,75,1,35,_Remix_Guitar,6,2, (Remix) Stems (1),0.9986506104469299,1
53,100,0.1409090909090909,179,0,35,_Remix_Guitar,6,2, (Remix) Stems (1),0.08797945827245712,0
58,100,0.1,215,0,35,_Remix_Guitar,6,2, (Remix) Stems (1),0.09298422187566757,0
58,100,0.18181818181818182,241,0,35,_Remix_Guitar,6,3, (Remix) Stems (1),0.10995224863290787,0
55,100,0.6,311,0,35,_Remix_Guitar,6,10, (Remix) Stems (1),0.12866926193237305,0
53,100,0.17727272727272728,823,1,35,_Remix_Guitar,6,3, (Remix) Stems (1),0.18221749365329742,0
53,100,0.1590909090909091,18,1,36,_Remix_Guitar,6,3, (Remix) Stems (1),0.9988439083099365,1
53,100,0.2,338,1,36,_Remix_Guitar,6,3, (Remix) Stems (1),0.13797909021377563,0
53,100,0.2409090909090909,466,0,36,_Remix_Guitar,6,4, (Remix) Stems (1),0.1623639017343521,0
53,100,0.7227272727272728,541,0,36,_Remix_Guitar,6,12, (Remix) Stems (1),0.19105137884616852,0
53,100,0.3,778,1,36,_Remix_Guitar,6,5, (Remix) Stems (1),0.26196300983428955,0
55,100,0.18181818181818182,263,1,37,_Remix_Guitar,6,3, (Remix) Stems (1),0.9983232617378235,1
55,100,0.5,804,1,37,_Remix_Guitar,6,8, (Remix) Stems (1),0.5462125539779663,1
56,100,0.4590909090909091,361,1,38,_Remix_Guitar,6,7, (Remix) Stems (1),0.9983231425285339,1
53,100,0.5181818181818182,748,1,38,_Remix_Guitar,6,8, (Remix) Stems (1),0.5462158918380737,1
53,100,0.23636363636363636,40,1,39,_Remix_Guitar,6,4, (Remix) Stems (1),0.9986506104469299,1
58,100,0.2772727272727273,185,0,39,_Remix_Guitar,6,4, (Remix) Stems (1),0.0879792869091034,0
58,100,0.2636363636363636,268,0,39,_Remix_Guitar,6,4, (Remix) Stems (1),0.09298289567232132,0
53,100,0.1590909090909091,515,1,39,_Remix_Guitar,6,3, (Remix) Stems (1),0.10994670540094376,0
53,100,0.2,703,0,39,_Remix_Guitar,6,3, (Remix) Stems (1),0.12866604328155518,0
53,100,0.1590909090909091,756,0,39,_Remix_Guitar,6,3, (Remix) Stems (1),0.1822139024734497,0
63,100,0.11818181818181818,215,1,40,_Remix_Guitar,6,2, (Remix) Stems (1),0.9988439083099365,1
53,100,0.3,528,1,40,_Remix_Guitar,6,5, (Remix) Stems (1),0.13798634707927704,0
53,100,0.2409090909090909,646,0,40,_Remix_Guitar,6,4, (Remix) Stems (1),0.1623697131872177,0
56,100,0.1590909090909091,783,0,40,_Remix_Guitar,6,3, (Remix) Stems (1),0.19106020033359528,0
53,100,0.11818181818181818,858,0,40,_Remix_Guitar,6,2, (Remix) Stems (1),0.26196908950805664,0
53,100,0.4,153,1,41,_Remix_Guitar,6,6, (Remix) Stems (1),0.9983735084533691,1
58,100,0.1409090909090909,241,0,41,_Remix_Guitar,6,2, (Remix) Stems (1),0.05105005204677582,0
53,100,0.2409090909090909,276,0,41,_Remix_Guitar,6,4, (Remix) Stems (1),0.04161035269498825,0
53,100,0.16363636363636364,334,0,41,_Remix_Guitar,6,3, (Remix) Stems (1),0.03797687217593193,0
65,100,0.2,370,0,41,_Remix_Guitar,6,3, (Remix) Stems (1),0.03925797715783119,0
53,100,0.23636363636363636,413,0,41,_Remix_Guitar,6,4, (Remix) Stems (1),0.04616178944706917,0
53,100,0.13636363636363635,501,0,41,_Remix_Guitar,6,2, (Remix) Stems (1),0.05712712183594704,0
53,100,0.1590909090909091,541,0,41,_Remix_Guitar,6,3, (Remix) Stems (1),0.09187425673007965,0
53,100,0.1409090909090909,123,1,42,_Remix_Guitar,6,2, (Remix) Stems (1),0.9986506104469299,1
63,100,0.13636363636363635,391,1,42,_Remix_Guitar,6,2, (Remix) Stems (1),0.08797953277826309,0
55,100,0.32272727272727275,554,0,42,_Remix_Guitar,6,5, (Remix) Stems (1),0.09298470616340637,0
60,100,0.12272727272727273,641,0,42,_Remix_Guitar,6,2, (Remix) Stems (1),0.10995133966207504,0
60,100,0.2,761,0,42,_Remix_Guitar,6,3, (Remix) Stems (1),0.12867185473442078,0
56,100,0.21818181818181817,866,0,42,_Remix_Guitar,6,3, (Remix) Stems (1),0.1822175234556198,0
53,100,0.2818181818181818,440,1,43,_Remix_Guitar,6,5, (Remix) Stems (1),0.9986507296562195,1
53,100,0.3,581,0,43,_Remix_Guitar,6,5, (Remix) Stems (1),0.0879775807261467,0
58,100,0.2,651,0,43,_Remix_Guitar,6,3, (Remix) Stems (1),0.09298494458198547,0
53,100,0.1590909090909091,703,0,43,_Remix_Guitar,6,3, (Remix) Stems (1),0.1099456176161766,0
53,100,0.13636363636363635,788,0,43,_Remix_Guitar,6,2, (Remix) Stems (1),0.12866725027561188,0
53,100,0.1590909090909091,826,0,43,_Remix_Guitar,6,3, (Remix) Stems (1),0.182212233543396,0
53,100,0.13636363636363635,18,1,44,_Remix_Guitar,6,2, (Remix) Stems (1),0.9988439083099365,1
53,100,0.5,83,0,44,_Remix_Guitar,6,8, (Remix) Stems (1),0.13797880709171295,0
53,100,0.2409090909090909,206,0,44,_Remix_Guitar,6,4, (Remix) Stems (1),0.1623619645833969,0
53,100,0.18181818181818182,431,0,44,_Remix_Guitar,6,3, (Remix) Stems (1),0.19105024635791779,0
60,100,0.33636363636363636,765,1,44,_Remix_Guitar,6,5, (Remix) Stems (1),0.2619609236717224,0
53,100,0.18181818181818182,220,1,45,_Remix_Guitar,6,3, (Remix) Stems (1),0.9990280866622925,1
53,100,0.36363636363636365,356,0,45,_Remix_Guitar,6,6, (Remix) Stems (1),0.3703371584415436,0
53,100,0.12272727272727273,871,1,45,_Remix_Guitar,6,2, (Remix) Stems (1),0.4561702609062195,0
53,100,0.2,185,1,46,_Remix_Guitar,6,3, (Remix) Stems (1),0.9986506104469299,1
58,100,0.3181818181818182,391,0,46,_Remix_Guitar,6,5, (Remix) Stems (1),0.0879797637462616,0
53,100,0.2,501,0,46,_Remix_Guitar,6,3, (Remix) Stems (1),0.0929822102189064,0
53,100,0.17727272727272728,558,0,46,_Remix_Guitar,6,3, (Remix) Stems (1),0.10994632542133331,0
53,100,0.2,700,0,46,_Remix_Guitar,6,3, (Remix) Stems (1),0.12867069244384766,0
53,100,0.5,751,0,46,_Remix_Guitar,6,8, (Remix) Stems (1),0.18221648037433624,0
53,100,0.1590909090909091,8,1,47,_Remix_Guitar,6,3, (Remix) Stems (1),0.9986506104469299,1
53,100,0.2409090909090909,69,0,47,_Remix_Guitar,6,4, (Remix) Stems (1),0.08797772228717804,0
53,100,0.12272727272727273,136,0,47,_Remix_Guitar,6,2, (Remix) Stems (1),0.09298195689916611,0
58,100,0.22272727272727272,321,0,47,_Remix_Guitar,6,4, (Remix) Stems (1),0.10994858294725418,0
53,100,0.22272727272727272,386,0,47,_Remix_Guitar,6,4, (Remix) Stems (1),0.12866820394992828,0
58,100,0.2818181818181818,616,0,47,_Remix_Guitar,6,5, (Remix) Stems (1),0.18221357464790344,0
55,100,0.1,153,1,49,_Remix_Guitar,6,2, (Remix) Stems (1),0.9990280866622925,1
55,100,0.2590909090909091,558,1,49,_Remix_Guitar,6,4, (Remix) Stems (1),0.37033867835998535,0
53,100,0.2772727272727273,823,1,49,_Remix_Guitar,6,4, (Remix) Stems (1),0.45616838335990906,0
53,100,0.4,43,1,50,_Remix_Guitar,6,6, (Remix) Stems (1),0.9983004927635193,1
58,100,0.2409090909090909,131,0,50,_Remix_Guitar,6,4, (Remix) Stems (1),0.044661395251750946,0
53,100,0.18181818181818182,188,0,50,_Remix_Guitar,6,3, (Remix) Stems (1),0.033370401710271835,0
53,100,0.21818181818181817,260,0,50,_Remix_Guitar,6,3, (Remix) Stems (1),0.02694636583328247,0
53,100,0.18181818181818182,311,0,50,_Remix_Guitar,6,3, (Remix) Stems (1),0.024082673713564873,0
53,100,0.1409090909090909,399,0,50,_Remix_Guitar,6,2, (Remix) Stems (1),0.024971267208456993,0
53,100,0.6,545,0,50,_Remix_Guitar,6,10, (Remix) Stems (1),0.030645277351140976,0
53,100,0.17727272727272728,765,0,50,_Remix_Guitar,6,3, (Remix) Stems (1),0.04136728122830391,0
53,100,0.16363636363636364,818,0,50,_Remix_Guitar,6,3, (Remix) Stems (1),0.07206697762012482,0
55,100,0.11818181818181818,281,1,51,_Remix_Guitar,6,2, (Remix) Stems (1),0.9792241454124451,1
55,100,0.1,91,1,52,_Remix_Guitar,6,2, (Remix) Stems (1),0.9990280866622925,1
55,100,0.1,166,0,52,_Remix_Guitar,6,2, (Remix) Stems (1),0.3703421950340271,0
55,100,0.3181818181818182,853,1,52,_Remix_Guitar,6,5, (Remix) Stems (1),0.4561660885810852,0
55,100,0.2590909090909091,171,1,53,_Remix_Guitar,6,4, (Remix) Stems (1),0.9990094900131226,1
53,100,0.1590909090909091,303,0,53,_Remix_Guitar,6,3, (Remix) Stems (1),0.23323141038417816,0
56,100,0.2409090909090909,396,0,53,_Remix_Guitar,6,4, (Remix) Stems (1),0.27057912945747375,0
56,100,0.11818181818181818,853,1,53,_Remix_Guitar,6,2, (Remix) Stems (1),0.35792163014411926,0
63,100,0.1409090909090909,461,1,54,_Remix_Guitar,6,2, (Remix) Stems (1),0.9983232617378235,1
58,100,0.2409090909090909,528,0,54,_Remix_Guitar,6,4, (Remix) Stems (1),0.5462252497673035,1
63,100,0.2,75,1,55,_Remix_Guitar,6,3, (Remix) Stems (1),0.9990280866622925,1
55,100,0.11818181818181818,458,1,55,_Remix_Guitar,6,2, (Remix) Stems (1),0.3703441023826599,0
53,100,0.2590909090909091,606,0,55,_Remix_Guitar,6,4, (Remix) Stems (1),0.45617055892944336,0
53,100,0.12272727272727273,166,1,56,_Remix_Guitar,6,2, (Remix) Stems (1),0.9986506104469299,1
53,100,0.1590909090909091,220,0,56,_Remix_Guitar,6,3, (Remix) Stems (1),0.0879761353135109,0
53,100,0.17727272727272728,338,0,56,_Remix_Guitar,6,3, (Remix) Stems (1),0.09298025071620941,0
53,100,0.2,554,0,56,_Remix_Guitar,6,3, (Remix) Stems (1),0.10994268208742142,0
53,100,0.22272727272727272,606,0,56,_Remix_Guitar,6,4, (Remix) Stems (1),0.12866711616516113,0
53,100,0.4590909090909091,801,0,56,_Remix_Guitar,6,7, (Remix) Stems (1),0.18220996856689453,0
53,100,0.21818181818181817,40,1,57,_Remix_Guitar,6,3, (Remix) Stems (1),0.9986506104469299,1
53,100,0.16363636363636364,114,0,57,_Remix_Guitar,6,3, (Remix) Stems (1),0.0879785493016243,0
53,100,0.17727272727272728,185,0,57,_Remix_Guitar,6,3, (Remix) Stems (1),0.09298048913478851,0
53,100,0.1409090909090909,254,0,57,_Remix_Guitar,6,2, (Remix) Stems (1),0.10994734615087509,0
53,100,0.1,373,0,57,_Remix_Guitar,6,2, (Remix) Stems (1),0.1286674439907074,0
53,100,0.42272727272727273,421,0,57,_Remix_Guitar,6,7, (Remix) Stems (1),0.18221259117126465,0
53,100,0.1409090909090909,201,1,59,_Remix_Guitar,6,2, (Remix) Stems (1),0.9983735084533691,1
53,100,0.12272727272727273,298,0,59,_Remix_Guitar,6,2, (Remix) Stems (1),0.05104861035943031,0
53,100,0.18181818181818182,343,0,59,_Remix_Guitar,6,3, (Remix) Stems (1),0.04161102697253227,0
58,100,0.38181818181818183,440,0,59,_Remix_Guitar,6,6, (Remix) Stems (1),0.03797924891114235,0
58,100,0.2,536,0,59,_Remix_Guitar,6,3, (Remix) Stems (1),0.03925839066505432,0
53,100,0.5590909090909091,590,0,59,_Remix_Guitar,6,9, (Remix) Stems (1),0.046161167323589325,0
58,100,0.5772727272727273,721,0,59,_Remix_Guitar,6,9, (Remix) Stems (1),0.05712852254509926,0
58,100,0.21818181818181817,866,0,59,_Remix_Guitar,6,3, (Remix) Stems (1),0.09187393635511398,0
53,100,0.18181818181818182,114,1,60,_Remix_Guitar,6,3, (Remix) Stems (1),0.9983231425285339,1
53,100,0.12272727272727273,311,0,60,_Remix_Guitar,6,2, (Remix) Stems (1),0.5462161898612976,1
53,100,0.12272727272727273,466,1,61,_Remix_Guitar,6,2, (Remix) Stems (1),0.9990094900131226,1
53,100,1.059090909090909,501,0,61,_Remix_Guitar,6,15, (Remix) Stems (1),0.23321986198425293,0
53,100,0.22272727272727272,761,1,61,_Remix_Guitar,6,4, (Remix) Stems (1),0.27057069540023804,0
53,100,0.21818181818181817,813,0,61,_Remix_Guitar,6,3, (Remix) Stems (1),0.357917845249176,0
53,100,0.11818181818181818,8,1,62,_Remix_Guitar,6,2, (Remix) Stems (1),0.9984879493713379,1
53,100,0.1409090909090909,56,0,62,_Remix_Guitar,6,2, (Remix) Stems (1),0.06335199624300003,0
53,100,0.21818181818181817,260,0,62,_Remix_Guitar,6,3, (Remix) Stems (1),0.05828579515218735,0
53,100,0.32272727272727275,321,0,62,_Remix_Guitar,6,5, (Remix) Stems (1),0.06135827675461769,0
53,100,0.17727272727272728,413,0,62,_Remix_Guitar,6,3, (Remix) Stems (1),0.0716780573129654,0
53,100,0.16363636363636364,466,0,62,_Remix_Guitar,6,3, (Remix) Stems (1),0.08472984284162521,0
53,100,0.22272727272727272,576,0,62,_Remix_Guitar,6,4, (Remix) Stems (1),0.12634241580963135,0
53,100,0.4409090909090909,289,1,63,_Remix_Guitar,6,7, (Remix) Stems (1),0.9990094900131226,1
58,100,0.7636363636363637,421,0,63,_Remix_Guitar,6,12, (Remix) Stems (1),0.23322276771068573,0
53,100,0.32272727272727275,598,0,63,_Remix_Guitar,6,5, (Remix) Stems (1),0.2705744504928589,0
55,100,0.2818181818181818,813,0,63,_Remix_Guitar,6,5, (Remix) Stems (1),0.3579202890396118,0
55,100,0.4590909090909091,87,1,64,_Remix_Guitar,6,7, (Remix) Stems (1),0.9990280866622925,1
55,100,0.17727272727272728,502,1,64,_Remix_Guitar,6,3, (Remix) Stems (1),0.3703366219997406,0
55,100,0.11818181818181818,853,1,64,_Remix_Guitar,6,2, (Remix) Stems (1),0.45616742968559265,0
53,100,0.13636363636363635,62,1,65,_Remix_Guitar,6,2, (Remix) Stems (1),0.9988439083099365,1
53,100,0.2772727272727273,96,0,65,_Remix_Guitar,6,4, (Remix) Stems (1),0.13797859847545624,0
53,100,0.1590909090909091,606,1,65,_Remix_Guitar,6,3, (Remix) Stems (1),0.16236655414104462,0
53,100,0.6590909090909091,700,0,65,_Remix_Guitar,6,11, (Remix) Stems (1),0.1910581886768341,0
53,100,0.1590909090909091,849,0,65,_Remix_Guitar,6,3, (Remix) Stems (1),0.26196742057800293,0
53,100,0.3181818181818182,150,1,66,_Remix_Guitar,6,5, (Remix) Stems (1),0.9983735084533691,1
58,100,0.36363636363636365,223,0,66,_Remix_Guitar,6,6, (Remix) Stems (1),0.051049139350652695,0
53,100,0.6181818181818182,330,0,66,_Remix_Guitar,6,10, (Remix) Stems (1),0.04161019250750542,0
58,100,0.18181818181818182,466,0,66,_Remix_Guitar,6,3, (Remix) Stems (1),0.03797851875424385,0
53,100,0.23636363636363636,523,0,66,_Remix_Guitar,6,4, (Remix) Stems (1),0.039256881922483444,0
53,100,0.4409090909090909,593,0,66,_Remix_Guitar,6,7, (Remix) Stems (1),0.04616306722164154,0
53,100,0.4409090909090909,695,0,66,_Remix_Guitar,6,7, (Remix) Stems (1),0.05713029205799103,0
53,100,0.1590909090909091,849,0,66,_Remix_Guitar,6,3, (Remix) Stems (1),0.0918763279914856,0
53,100,0.5636363636363636,26,1,67,_Remix_Guitar,6,9, (Remix) Stems (1),0.9990094900131226,1
58,100,0.12272727272727273,246,0,67,_Remix_Guitar,6,2, (Remix) Stems (1),0.2332356870174408,0
55,100,0.11818181818181818,690,1,67,_Remix_Guitar,6,2, (Remix) Stems (1),0.27057668566703796,0
55,100,0.11818181818181818,779,0,67,_Remix_Guitar,6,2, (Remix) Stems (1),0.3579251766204834,0
53,100,0.1,624,1,68,_Remix_Guitar,6,2, (Remix) Stems (1),0.9792238473892212,1
58,100,0.1590909090909091,87,1,69,_Remix_Guitar,6,3, (Remix) Stems (1),0.9990280866622925,1
55,100,0.13636363636363635,392,1,69,_Remix_Guitar,6,2, (Remix) Stems (1),0.3703383505344391,0
55,100,0.41818181818181815,426,0,69,_Remix_Guitar,6,7, (Remix) Stems (1),0.45616576075553894,0
56,100,0.11818181818181818,603,1,70,_Remix_Guitar,6,2, (Remix) Stems (1),0.979223370552063,1
63,100,0.5227272727272727,409,1,71,_Remix_Guitar,6,8, (Remix) Stems (1),0.9983231425285339,1
63,100,0.4,832,1,71,_Remix_Guitar,6,6, (Remix) Stems (1),0.5462254881858826,1
63,100,0.21818181818181817,83,1,72,_Remix_Guitar,6,3, (Remix) Stems (1),0.9990094900131226,1
55,100,0.2772727272727273,250,0,72,_Remix_Guitar,6,4, (Remix) Stems (1),0.23323795199394226,0
55,100,0.3,333,0,72,_Remix_Guitar,6,5, (Remix) Stems (1),0.2705806493759155,0
55,100,0.1409090909090909,422,0,72,_Remix_Guitar,6,2, (Remix) Stems (1),0.3579235374927521,0
53,100,0.6,176,1,73,_Remix_Guitar,6,10, (Remix) Stems (1),0.9984879493713379,1
53,100,0.11818181818181818,330,0,73,_Remix_Guitar,6,2, (Remix) Stems (1),0.06335407495498657,0
58,100,0.6181818181818182,436,0,73,_Remix_Guitar,6,10, (Remix) Stems (1),0.05828925222158432,0
70,100,0.1,619,0,73,_Remix_Guitar,6,2, (Remix) Stems (1),0.06136111170053482,0
58,100,0.2,650,0,73,_Remix_Guitar,6,3, (Remix) Stems (1),0.07168151438236237,0
58,100,0.2590909090909091,722,0,73,_Remix_Guitar,6,4, (Remix) Stems (1),0.08473441004753113,0
53,100,1.018181818181818,787,0,73,_Remix_Guitar,6,15, (Remix) Stems (1),0.12634606659412384,0
58,100,0.22272727272727272,145,1,74,_Remix_Guitar,6,4, (Remix) Stems (1),0.9983231425285339,1
58,100,0.38181818181818183,246,0,74,_Remix_Guitar,6,6, (Remix) Stems (1),0.5462153553962708,1
53,100,0.1,179,1,75,_Remix_Guitar,6,2, (Remix) Stems (1),0.9986506104469299,1
60,100,0.1,443,1,75,_Remix_Guitar,6,2, (Remix) Stems (1),0.08798317611217499,0
55,100,0.3181818181818182,483,0,75,_Remix_Guitar,6,5, (Remix) Stems (1),0.09298624843358994,0
55,100,0.1590909090909091,559,0,75,_Remix_Guitar,6,3, (Remix) Stems (1),0.10995037853717804,0
55,100,0.1590909090909091,766,0,75,_Remix_Guitar,6,3, (Remix) Stems (1),0.1286744773387909,0
58,100,0.4590909090909091,866,0,75,_Remix_Guitar,6,7, (Remix) Stems (1),0.18221968412399292,0
55,100,0.2409090909090909,250,1,76,_Remix_Guitar,6,4, (Remix) Stems (1),0.9792243838310242,1
63,100,0.3,449,1,77,_Remix_Guitar,6,5, (Remix) Stems (1),0.9792234897613525,1
55,100,0.11818181818181818,294,1,78,_Remix_Guitar,6,2, (Remix) Stems (1),0.9990094900131226,1
55,100,0.13636363636363635,326,0,78,_Remix_Guitar,6,2, (Remix) Stems (1),0.2332344949245453,0
55,100,0.4,430,0,78,_Remix_Guitar,6,6, (Remix) Stems (1),0.27058425545692444,0
55,100,0.8,729,1,78,_Remix_Guitar,6,13, (Remix) Stems (1),0.35792604088783264,0
63,100,0.1409090909090909,606,1,79,_Remix_Guitar,6,2, (Remix) Stems (1),0.9792237281799316,1
53,100,0.4818181818181818,22,1,80,_Remix_Guitar,6,8, (Remix) Stems (1),0.9990280866622925,1
53,100,0.11818181818181818,506,1,80,_Remix_Guitar,6,2, (Remix) Stems (1),0.37033742666244507,0
53,100,0.2590909090909091,567,0,80,_Remix_Guitar,6,4, (Remix) Stems (1),0.4561637043952942,0
53,100,0.1409090909090909,22,1,81,_Remix_Guitar,6,2, (Remix) Stems (1),0.9990280866622925,1
53,100,0.1,136,0,81,_Remix_Guitar,6,2, (Remix) Stems (1),0.37033578753471375,0
53,100,0.5409090909090909,202,0,81,_Remix_Guitar,6,9, (Remix) Stems (1),0.4561615288257599,0
58,100,0.2,436,1,83,_Remix_Guitar,6,3, (Remix) Stems (1),0.9990094900131226,1
53,100,0.12272727272727273,496,0,83,_Remix_Guitar,6,2, (Remix) Stems (1),0.23322616517543793,0
53,100,0.3,532,0,83,_Remix_Guitar,6,5, (Remix) Stems (1),0.2705792486667633,0
53,100,0.35909090909090907,646,0,83,_Remix_Guitar,6,6, (Remix) Stems (1),0.3579151928424835,0
53,100,0.2,79,1,84,_Remix_Guitar,6,3, (Remix) Stems (1),0.9984879493713379,1
53,100,0.1590909090909091,153,0,84,_Remix_Guitar,6,3, (Remix) Stems (1),0.06335151940584183,0
53,100,0.1409090909090909,210,0,84,_Remix_Guitar,6,2, (Remix) Stems (1),0.05828758329153061,0
53,100,0.1409090909090909,250,0,84,_Remix_Guitar,6,2, (Remix) Stems (1),0.06135820969939232,0
53,100,0.2590909090909091,299,0,84,_Remix_Guitar,6,4, (Remix) Stems (1),0.07167775928974152,0
53,100,0.2,377,0,84,_Remix_Guitar,6,3, (Remix) Stems (1),0.08473018556833267,0
53,100,0.11818181818181818,593,0,84,_Remix_Guitar,6,2, (Remix) Stems (1),0.1263413429260254,0
55,100,0.1409090909090909,289,1,85,_Remix_Guitar,6,2, (Remix) Stems (1),0.9983231425285339,1
67,100,0.1,333,0,85,_Remix_Guitar,6,2, (Remix) Stems (1),0.5462097525596619,1
55,100,0.1409090909090909,417,1,86,_Remix_Guitar,6,2, (Remix) Stems (1),0.9792240262031555,1
53,100,0.16363636363636364,707,1,88,_Remix_Guitar,6,3, (Remix) Stems (1),0.9983231425285339,1
53,100,0.1,760,0,88,_Remix_Guitar,6,2, (Remix) Stems (1),0.5462146401405334,1
58,100,0.12272727272727273,13,1,89,_Remix_Guitar,6,2, (Remix) Stems (1),0.9990280866622925,1
53,100,0.2409090909090909,462,1,89,_Remix_Guitar,6,4, (Remix) Stems (1),0.3703356683254242,0
53,100,0.1590909090909091,823,1,89,_Remix_Guitar,6,3, (Remix) Stems (1),0.4561675786972046,0
53,100,0.1,140,1,90,_Remix_Guitar,6,2, (Remix) Stems (1),0.9990094900131226,1
58,100,0.11818181818181818,633,1,90,_Remix_Guitar,6,2, (Remix) Stems (1),0.2332274168729782,0
53,100,0.1590909090909091,726,0,90,_Remix_Guitar,6,3, (Remix) Stems (1),0.2705693542957306,0
53,100,0.5409090909090909,862,0,90,_Remix_Guitar,6,9, (Remix) Stems (1),0.35792088508605957,0
53,100,0.12272727272727273,202,1,91,_Remix_Guitar,6,2, (Remix) Stems (1),0.9983735084533691,1
53,100,0.38181818181818183,242,0,91,_Remix_Guitar,6,6, (Remix) Stems (1),0.05104786902666092,0
53,100,0.1409090909090909,330,0,91,_Remix_Guitar,6,2, (Remix) Stems (1),0.04160952568054199,0
53,100,0.1,373,0,91,_Remix_Guitar,6,2, (Remix) Stems (1),0.03797628730535507,0
53,100,0.18181818181818182,440,0,91,_Remix_Guitar,6,3, (Remix) Stems (1),0.03925618156790733,0
53,100,0.2,514,0,91,_Remix_Guitar,6,3, (Remix) Stems (1),0.0461592897772789,0
53,100,0.35909090909090907,590,0,91,_Remix_Guitar,6,6, (Remix) Stems (1),0.0571233369410038,0
53,100,0.11818181818181818,713,0,91,_Remix_Guitar,6,2, (Remix) Stems (1),0.09187228977680206,0
53,100,0.7363636363636363,40,1,93,_Remix_Guitar,6,12, (Remix) Stems (1),0.9984879493713379,1
53,100,0.3181818181818182,250,0,93,_Remix_Guitar,6,5, (Remix) Stems (1),0.06335187703371048,0
53,100,0.2590909090909091,404,0,93,_Remix_Guitar,6,4, (Remix) Stems (1),0.05828561261296272,0
53,100,0.11818181818181818,483,0,93,_Remix_Guitar,6,2, (Remix) Stems (1),0.061357736587524414,0
53,100,0.1,540,0,93,_Remix_Guitar,6,2, (Remix) Stems (1),0.07167770713567734,0
53,100,0.2,606,0,93,_Remix_Guitar,6,3, (Remix) Stems (1),0.08472897112369537,0
53,100,0.4590909090909091,669,0,93,_Remix_Guitar,6,7, (Remix) Stems (1),0.1263417750597,0
53,100,0.2409090909090909,43,1,94,_Remix_Guitar,6,4, (Remix) Stems (1),0.9983232617378235,1
58,100,0.22272727272727272,100,0,94,_Remix_Guitar,6,4, (Remix) Stems (1),0.5462140440940857,1
55,100,0.12272727272727273,13,1,95,_Remix_Guitar,6,2, (Remix) Stems (1),0.9990280866622925,1
55,100,0.18181818181818182,47,0,95,_Remix_Guitar,6,3, (Remix) Stems (1),0.37033331394195557,0
53,100,0.1409090909090909,312,1,95,_Remix_Guitar,6,2, (Remix) Stems (1),0.45616471767425537,0
60,100,0.1,496,1,96,_Remix_Guitar,6,2, (Remix) Stems (1),0.9792238473892212,1
53,100,0.18181818181818182,220,1,97,_Remix_Guitar,6,3, (Remix) Stems (1),0.9983231425285339,1
53,100,0.1590909090909091,475,1,97,_Remix_Guitar,6,3, (Remix) Stems (1),0.5462120771408081,1
53,100,0.11818181818181818,770,1,98,_Remix_Guitar,6,2, (Remix) Stems (1),0.9792241454124451,1
53,100,0.11818181818181818,700,1,99,_Remix_Guitar,6,2, (Remix) Stems (1),0.9983232617378235,1
53,100,0.1409090909090909,773,0,99,_Remix_Guitar,6,2, (Remix) Stems (1),0.546219527721405,1
53,100,0.36363636363636365,157,1,100,_Remix_Guitar,6,6, (Remix) Stems (1),0.9984879493713379,1
53,100,0.18181818181818182,267,0,100,_Remix_Guitar,6,3, (Remix) Stems (1),0.06335216760635376,0
53,100,0.1409090909090909,352,0,100,_Remix_Guitar,6,2, (Remix) Stems (1),0.05828801169991493,0
53,100,0.2818181818181818,386,0,100,_Remix_Guitar,6,5, (Remix) Stems (1),0.0613628514111042,0
53,100,0.4409090909090909,470,0,100,_Remix_Guitar,6,7, (Remix) Stems (1),0.07168202847242355,0
53,100,1.1409090909090909,593,0,100,_Remix_Guitar,6,15, (Remix) Stems (1),0.08473304659128189,0
53,100,0.1590909090909091,853,1,100,_Remix_Guitar,6,3, (Remix) Stems (1),0.12635254859924316,0
53,100,0.3,22,1,101,_Remix_Guitar,6,5, (Remix) Stems (1),0.9990280866622925,1
53,100,0.2,106,0,101,_Remix_Guitar,6,3, (Remix) Stems (1),0.37034109234809875,0
63,100,0.11818181818181818,330,0,101,_Remix_Guitar,6,2, (Remix) Stems (1),0.4561658501625061,0
63,100,0.3409090909090909,92,1,102,_Remix_Guitar,6,5, (Remix) Stems (1),0.9990094900131226,1
53,100,0.33636363636363636,326,1,102,_Remix_Guitar,6,5, (Remix) Stems (1),0.23323078453540802,0
53,100,0.2590909090909091,426,0,102,_Remix_Guitar,6,4, (Remix) Stems (1),0.27058544754981995,0
53,100,0.36363636363636365,619,0,102,_Remix_Guitar,6,6, (Remix) Stems (1),0.3579225540161133,0
65,100,0.2818181818181818,123,1,103,_Remix_Guitar,6,5, (Remix) Stems (1),0.9983231425285339,1
60,100,0.4818181818181818,817,1,103,_Remix_Guitar,6,8, (Remix) Stems (1),0.5462218523025513,1
63,100,0.1,140,1,104,_Remix_Guitar,6,2, (Remix) Stems (1),0.9990280866622925,1
63,100,0.1409090909090909,206,0,104,_Remix_Guitar,6,2, (Remix) Stems (1),0.37034764885902405,0
63,100,0.7636363636363637,267,0,104,_Remix_Guitar,6,12, (Remix) Stems (1),0.45617353916168213,0
56,100,0.1,96,1,105,_Remix_Guitar,6,2, (Remix) Stems (1),0.9984879493713379,1
60,100,0.43636363636363634,260,0,105,_Remix_Guitar,6,7, (Remix) Stems (1),0.0633544847369194,0
58,100,0.11818181818181818,493,1,105,_Remix_Guitar,6,2, (Remix) Stems (1),0.05828933045268059,0
58,100,0.18181818181818182,553,0,105,_Remix_Guitar,6,3, (Remix) Stems (1),0.06136263534426689,0
70,100,0.2,603,0,105,_Remix_Guitar,6,3, (Remix) Stems (1),0.07168275117874146,0
58,100,0.1590909090909091,690,0,105,_Remix_Guitar,6,3, (Remix) Stems (1),0.0847337394952774,0
53,100,0.16363636363636364,729,0,105,_Remix_Guitar,6,3, (Remix) Stems (1),0.12635250389575958,0
58,100,0.11818181818181818,326,1,106,_Remix_Guitar,6,2, (Remix) Stems (1),0.9990094900131226,1
63,100,0.2590909090909091,656,1,106,_Remix_Guitar,6,4, (Remix) Stems (1),0.23323291540145874,0
63,100,0.2,770,0,106,_Remix_Guitar,6,3, (Remix) Stems (1),0.27058207988739014,0
53,100,0.1,826,0,106,_Remix_Guitar,6,2, (Remix) Stems (1),0.3579272925853729,0
53,100,0.2,132,1,107,_Remix_Guitar,6,3, (Remix) Stems (1),0.9986506104469299,1
63,100,0.8409090909090909,189,0,107,_Remix_Guitar,6,13, (Remix) Stems (1),0.08797570317983627,0
53,100,0.12272727272727273,377,0,107,_Remix_Guitar,6,2, (Remix) Stems (1),0.09298361837863922,0
65,100,0.12272727272727273,409,0,107,_Remix_Guitar,6,2, (Remix) Stems (1),0.10994422435760498,0
60,100,0.11818181818181818,590,0,107,_Remix_Guitar,6,2, (Remix) Stems (1),0.12866735458374023,0
60,100,0.18181818181818182,660,0,107,_Remix_Guitar,6,3, (Remix) Stems (1),0.18221323192119598,0
63,100,0.11818181818181818,43,1,108,_Remix_Guitar,6,2, (Remix) Stems (1),0.9990280866622925,1
63,100,0.1590909090909091,347,1,108,_Remix_Guitar,6,3, (Remix) Stems (1),0.3703438341617584,0
63,100,0.2,386,0,108,_Remix_Guitar,6,3, (Remix) Stems (1),0.45618247985839844,0
53,100,0.2,823,1,109,_Remix_Guitar,6,3, (Remix) Stems (1),0.9792243838310242,1
53,100,0.16363636363636364,179,1,110,_Remix_Guitar,6,3, (Remix) Stems (1),0.9990094900131226,1
53,100,0.2,312,0,110,_Remix_Guitar,6,3, (Remix) Stems (1),0.23322254419326782,0
58,100,0.1,360,0,110,_Remix_Guitar,6,2, (Remix) Stems (1),0.27057120203971863,0
70,100,0.1,650,1,110,_Remix_Guitar,6,2, (Remix) Stems (1),0.35792580246925354,0
63,100,0.41818181818181815,462,1,111,_Remix_Guitar,6,7, (Remix) Stems (1),0.979223370552063,1
63,100,0.12272727272727273,386,1,112,_Remix_Guitar,6,2, (Remix) Stems (1),0.9792240262031555,1
56,100,0.11818181818181818,9,1,113,_Remix_Guitar,6,2, (Remix) Stems (1),0.9984879493713379,1
70,100,0.16363636363636364,267,1,113,_Remix_Guitar,6,3, (Remix) Stems (1),0.06335251033306122,0
53,100,0.740909090909091,312,0,113,_Remix_Guitar,6,12, (Remix) Stems (1),0.05828649923205376,0
53,100,0.18181818181818182,483,0,113,_Remix_Guitar,6,3, (Remix) Stems (1),0.06135983392596245,0
53,100,0.18181818181818182,527,0,113,_Remix_Guitar,6,3, (Remix) Stems (1),0.07167849689722061,0
53,100,0.1590909090909091,747,0,113,_Remix_Guitar,6,3, (Remix) Stems (1),0.08473163098096848,0
53,100,0.11818181818181818,810,0,113,_Remix_Guitar,6,2, (Remix) Stems (1),0.12634529173374176,0
55,100,0.22272727272727272,13,1,114,_Remix_Guitar,6,4, (Remix) Stems (1),0.9792243838310242,1
56,100,0.1590909090909091,216,1,115,_Remix_Guitar,6,3, (Remix) Stems (1),0.9990094900131226,1
53,100,0.1,650,1,115,_Remix_Guitar,6,2, (Remix) Stems (1),0.23323197662830353,0
53,100,0.1409090909090909,747,0,115,_Remix_Guitar,6,2, (Remix) Stems (1),0.2705848515033722,0
53,100,0.1590909090909091,857,0,115,_Remix_Guitar,6,3, (Remix) Stems (1),0.3579258620738983,0
53,100,0.1590909090909091,30,1,116,_Remix_Guitar,6,3, (Remix) Stems (1),0.9983231425285339,1
58,100,0.16363636363636364,69,0,116,_Remix_Guitar,6,3, (Remix) Stems (1),0.5462174415588379,1
55,100,0.4,26,1,117,_Remix_Guitar,6,6, (Remix) Stems (1),0.9983231425285339,1
55,100,0.3,127,0,117,_Remix_Guitar,6,5, (Remix) Stems (1),0.546215832233429,1
58,100,0.3,106,1,118,_Remix_Guitar,6,5, (Remix) Stems (1),0.9986507296562195,1
53,100,0.1409090909090909,184,0,118,_Remix_Guitar,6,2, (Remix) Stems (1),0.08798064291477203,0
53,100,0.1409090909090909,386,0,118,_Remix_Guitar,6,2, (Remix) Stems (1),0.09298470616340637,0
53,100,0.13636363636363635,457,0,118,_Remix_Guitar,6,2, (Remix) Stems (1),0.10995065420866013,0
62,100,0.1590909090909091,792,1,118,_Remix_Guitar,6,3, (Remix) Stems (1),0.128669872879982,0
62,100,0.37727272727272726,832,0,118,_Remix_Guitar,6,6, (Remix) Stems (1),0.18221966922283173,0
55,100,0.38181818181818183,223,1,119,_Remix_Guitar,6,6, (Remix) Stems (1),0.9983231425285339,1
53,100,0.12272727272727273,739,1,119,_Remix_Guitar,6,2, (Remix) Stems (1),0.5462149381637573,1
60,100,0.2590909090909091,110,1,120,_Remix_Guitar,6,4, (Remix) Stems (1),0.9983232617378235,1
53,100,0.1,866,1,120,_Remix_Guitar,6,2, (Remix) Stems (1),0.546213686466217,1
53,100,0.38181818181818183,22,1,121,_Remix_Guitar,6,6, (Remix) Stems (1),0.9983004927635193,1
53,100,0.18181818181818182,113,0,121,_Remix_Guitar,6,3, (Remix) Stems (1),0.0446619875729084,0
58,100,0.8818181818181818,153,0,121,_Remix_Guitar,6,14, (Remix) Stems (1),0.0333699993789196,0
53,100,0.18181818181818182,377,0,121,_Remix_Guitar,6,3, (Remix) Stems (1),0.02694667875766754,0
53,100,0.3,440,0,121,_Remix_Guitar,6,5, (Remix) Stems (1),0.024082327261567116,0
53,100,0.3,519,0,121,_Remix_Guitar,6,5, (Remix) Stems (1),0.0249708853662014,0
53,100,0.1590909090909091,637,0,121,_Remix_Guitar,6,3, (Remix) Stems (1),0.030645601451396942,0
53,100,0.2409090909090909,752,0,121,_Remix_Guitar,6,4, (Remix) Stems (1),0.041366562247276306,0
53,100,0.1409090909090909,826,0,121,_Remix_Guitar,6,2, (Remix) Stems (1),0.07206689566373825,0
53,100,0.2409090909090909,0,1,122,_Remix_Guitar,6,4, (Remix) Stems (1),0.9990280866622925,1
53,100,0.1409090909090909,56,0,122,_Remix_Guitar,6,2, (Remix) Stems (1),0.37033480405807495,0
63,100,0.2818181818181818,729,1,122,_Remix_Guitar,6,5, (Remix) Stems (1),0.45616987347602844,0
63,100,0.2772727272727273,722,1,123,_Remix_Guitar,6,4, (Remix) Stems (1),0.9792241454124451,1
63,100,0.12272727272727273,312,1,124,_Remix_Guitar,6,2, (Remix) Stems (1),0.9990280866622925,1
65,100,0.18181818181818182,637,1,124,_Remix_Guitar,6,3, (Remix) Stems (1),0.37033945322036743,0
65,100,0.21818181818181817,682,0,124,_Remix_Guitar,6,3, (Remix) Stems (1),0.4561758041381836,0
65,100,0.1409090909090909,286,1,125,_Remix_Guitar,6,2, (Remix) Stems (1),0.9792238473892212,1
60,100,0.4409090909090909,87,1,126,_Remix_Guitar,6,7, (Remix) Stems (1),0.9990280866622925,1
60,100,0.1,193,0,126,_Remix_Guitar,6,2, (Remix) Stems (1),0.3703392446041107,0
63,100,0.1409090909090909,663,1,126,_Remix_Guitar,6,2, (Remix) Stems (1),0.45616158843040466,0
58,100,0.17727272727272728,163,1,127,_Remix_Guitar,6,3, (Remix) Stems (1),0.9990094900131226,1
63,100,0.21818181818181817,546,1,127,_Remix_Guitar,6,3, (Remix) Stems (1),0.23323197662830353,0
58,100,0.2,734,0,127,_Remix_Guitar,6,3, (Remix) Stems (1),0.27058669924736023,0
56,100,0.1,876,0,127,_Remix_Guitar,6,2, (Remix) Stems (1),0.3579235374927521,0
58,100,0.2,436,1,128,_Remix_Guitar,6,3, (Remix) Stems (1),0.9792238473892212,1
53,100,0.1,285,1,130,_Remix_Guitar,6,2, (Remix) Stems (1),0.9988439083099365,1
53,100,0.1590909090909091,321,0,130,_Remix_Guitar,6,3, (Remix) Stems (1),0.1379794180393219,0
60,100,0.4772727272727273,479,0,130,_Remix_Guitar,6,8, (Remix) Stems (1),0.1623619794845581,0
60,100,0.2818181818181818,704,0,130,_Remix_Guitar,6,5, (Remix) Stems (1),0.19105815887451172,0
53,100,0.6,773,0,130,_Remix_Guitar,6,10, (Remix) Stems (1),0.2619626820087433,0
56,100,0.17727272727272728,39,1,131,_Remix_Guitar,6,3, (Remix) Stems (1),0.9990094900131226,1
60,100,0.2590909090909091,338,1,131,_Remix_Guitar,6,4, (Remix) Stems (1),0.23323415219783783,0
58,100,0.12272727272727273,400,0,131,_Remix_Guitar,6,2, (Remix) Stems (1),0.27058371901512146,0
58,100,0.18181818181818182,431,0,131,_Remix_Guitar,6,3, (Remix) Stems (1),0.35792580246925354,0
58,100,0.16363636363636364,751,1,132,_Remix_Guitar,6,3, (Remix) Stems (1),0.9792242646217346,1
53,100,0.1409090909090909,603,1,133,_Remix_Guitar,6,2, (Remix) Stems (1),0.9983231425285339,1
58,100,0.2772727272727273,831,0,133,_Remix_Guitar,6,4, (Remix) Stems (1),0.5462210178375244,1
58,100,0.1409090909090909,30,1,134,_Remix_Guitar,6,2, (Remix) Stems (1),0.9983736276626587,1
58,100,0.2636363636363636,70,0,134,_Remix_Guitar,6,4, (Remix) Stems (1),0.05104852840304375,0
58,100,0.2409090909090909,273,0,134,_Remix_Guitar,6,4, (Remix) Stems (1),0.041611578315496445,0
58,100,0.41818181818181815,352,0,134,_Remix_Guitar,6,7, (Remix) Stems (1),0.03797769919037819,0
53,100,0.1,479,0,134,_Remix_Guitar,6,2, (Remix) Stems (1),0.039258893579244614,0
53,100,0.1,546,0,134,_Remix_Guitar,6,2, (Remix) Stems (1),0.04616297408938408,0
62,100,0.13636363636363635,678,0,134,_Remix_Guitar,6,2, (Remix) Stems (1),0.05712854862213135,0
58,100,0.11818181818181818,721,0,134,_Remix_Guitar,6,2, (Remix) Stems (1),0.09187622368335724,0
63,100,0.1,694,1,135,_Remix_Guitar,6,2, (Remix) Stems (1),0.9983232617378235,1
63,100,0.1409090909090909,747,0,135,_Remix_Guitar,6,2, (Remix) Stems (1),0.5462186336517334,1
63,100,0.38181818181818183,840,1,136,_Remix_Guitar,6,6, (Remix) Stems (1),0.979223906993866,1
58,100,0.4772727272727273,53,1,138,_Remix_Guitar,6,8, (Remix) Stems (1),0.9990094900131226,1
58,100,0.17727272727272728,273,0,138,_Remix_Guitar,6,3, (Remix) Stems (1),0.2332318276166916,0
58,100,0.2818181818181818,725,1,138,_Remix_Guitar,6,5, (Remix) Stems (1),0.2705800235271454,0
53,100,0.1,796,0,138,_Remix_Guitar,6,2, (Remix) Stems (1),0.35792383551597595,0
63,100,0.5,264,1,139,_Remix_Guitar,6,8, (Remix) Stems (1),0.9990094900131226,1
55,100,0.12272727272727273,466,0,139,_Remix_Guitar,6,2, (Remix) Stems (1),0.23323127627372742,0
53,100,0.12272727272727273,562,0,139,_Remix_Guitar,6,2, (Remix) Stems (1),0.2705748975276947,0
53,100,0.11818181818181818,594,0,139,_Remix_Guitar,6,2, (Remix) Stems (1),0.35792773962020874,0
53,100,0.1,185,1,140,_Remix_Guitar,6,2, (Remix) Stems (1),0.9988439083099365,1
53,100,0.2590909090909091,211,0,140,_Remix_Guitar,6,4, (Remix) Stems (1),0.13797979056835175,0
53,100,0.13636363636363635,611,1,140,_Remix_Guitar,6,2, (Remix) Stems (1),0.16236311197280884,0
58,100,0.18181818181818182,694,0,140,_Remix_Guitar,6,3, (Remix) Stems (1),0.1910620778799057,0
53,100,0.2409090909090909,823,0,140,_Remix_Guitar,6,4, (Remix) Stems (1),0.2619630992412567,0
58,100,0.2590909090909091,12,1,141,_Remix_Guitar,6,4, (Remix) Stems (1),0.9986506104469299,1
58,100,0.2,75,0,141,_Remix_Guitar,6,3, (Remix) Stems (1),0.0879770815372467,0
53,100,0.4,166,0,141,_Remix_Guitar,6,6, (Remix) Stems (1),0.09297992289066315,0
53,100,0.35909090909090907,452,1,141,_Remix_Guitar,6,6, (Remix) Stems (1),0.10994377732276917,0
53,100,0.1,576,0,141,_Remix_Guitar,6,2, (Remix) Stems (1),0.1286664605140686,0
58,100,0.2,660,0,141,_Remix_Guitar,6,3, (Remix) Stems (1),0.18220749497413635,0
58,100,0.1409090909090909,818,1,142,_Remix_Guitar,6,2, (Remix) Stems (1),0.9792245030403137,1
58,100,0.21818181818181817,436,1,143,_Remix_Guitar,6,3, (Remix) Stems (1),0.9792238473892212,1
63,100,0.18181818181818182,871,1,145,_Remix_Guitar,6,3, (Remix) Stems (1),0.979223906993866,1
55,100,0.4818181818181818,158,1,146,_Remix_Guitar,6,8, (Remix) Stems (1),0.9990280866622925,1
55,100,0.1,342,0,146,_Remix_Guitar,6,2, (Remix) Stems (1),0.3703486919403076,0
53,100,0.1,546,0,146,_Remix_Guitar,6,2, (Remix) Stems (1),0.45616161823272705,0
61,100,0.38181818181818183,0,1,34,DL_Nostalgic_Guitar,6,6,nostalgic_ninjyou,0.9990094900131226,1
58,100,2.459090909090909,83,0,34,DL_Nostalgic_Guitar,6,15,nostalgic_ninjyou,0.23323018848896027,0
58,100,0.2590909090909091,646,1,34,DL_Nostalgic_Guitar,6,4,nostalgic_ninjyou,0.2705909311771393,0
58,100,1.3,708,0,34,DL_Nostalgic_Guitar,6,15,nostalgic_ninjyou,0.35791778564453125,0
61,100,0.2409090909090909,114,1,35,DL_Nostalgic_Guitar,6,4,nostalgic_ninjyou,0.9988439083099365,1
60,100,0.23636363636363636,260,0,35,DL_Nostalgic_Guitar,6,4,nostalgic_ninjyou,0.13799315690994263,0
63,100,1.5772727272727274,413,0,35,DL_Nostalgic_Guitar,6,15,nostalgic_ninjyou,0.16237322986125946,0
56,100,0.2772727272727273,765,1,35,DL_Nostalgic_Guitar,6,4,nostalgic_ninjyou,0.19107718765735626,0
63,100,1.1227272727272728,826,0,35,DL_Nostalgic_Guitar,6,15,nostalgic_ninjyou,0.2619752585887909,0
63,100,0.8409090909090909,241,1,36,DL_Nostalgic_Guitar,6,13,nostalgic_ninjyou,0.9988439083099365,1
63,100,0.6,471,0,36,DL_Nostalgic_Guitar,6,10,nostalgic_ninjyou,0.13798968493938446,0
63,100,0.3,611,0,36,DL_Nostalgic_Guitar,6,5,nostalgic_ninjyou,0.1623789519071579,0
63,100,0.6590909090909091,681,0,36,DL_Nostalgic_Guitar,6,11,nostalgic_ninjyou,0.19107787311077118,0
63,100,1.7818181818181817,871,0,36,DL_Nostalgic_Guitar,6,15,nostalgic_ninjyou,0.26198139786720276,0
58,100,0.5409090909090909,386,1,37,DL_Nostalgic_Guitar,6,9,nostalgic_ninjyou,0.9990094900131226,1
58,100,0.2409090909090909,558,0,37,DL_Nostalgic_Guitar,6,4,nostalgic_ninjyou,0.2332383394241333,0
63,100,0.18181818181818182,638,0,37,DL_Nostalgic_Guitar,6,3,nostalgic_ninjyou,0.2705897390842438,0
58,100,1.6590909090909092,770,0,37,DL_Nostalgic_Guitar,6,15,nostalgic_ninjyou,0.35792508721351624,0
65,100,1.9,254,1,38,DL_Nostalgic_Guitar,6,15,nostalgic_ninjyou,0.9990280866622925,1
58,100,0.3,796,1,38,DL_Nostalgic_Guitar,6,5,nostalgic_ninjyou,0.37035953998565674,0
58,100,2.118181818181818,875,0,38,DL_Nostalgic_Guitar,6,15,nostalgic_ninjyou,0.4561474919319153,0
63,100,0.9,619,1,39,DL_Nostalgic_Guitar,6,14,nostalgic_ninjyou,0.9983231425285339,1
63,100,0.37727272727272726,823,0,39,DL_Nostalgic_Guitar,6,6,nostalgic_ninjyou,0.5462258458137512,1
63,100,3.4,43,1,40,DL_Nostalgic_Guitar,6,15,nostalgic_ninjyou,0.9990279674530029,1
65,100,0.17727272727272728,801,1,40,DL_Nostalgic_Guitar,6,3,nostalgic_ninjyou,0.3703695833683014,0
63,100,1.1227272727272728,839,0,40,DL_Nostalgic_Guitar,6,15,nostalgic_ninjyou,0.45615121722221375,0
63,100,0.2772727272727273,383,1,41,DL_Nostalgic_Guitar,6,4,nostalgic_ninjyou,0.9990094900131226,1
63,100,0.12272727272727273,488,0,41,DL_Nostalgic_Guitar,6,2,nostalgic_ninjyou,0.23324447870254517,0
63,100,0.5772727272727273,668,0,41,DL_Nostalgic_Guitar,6,9,nostalgic_ninjyou,0.2705940008163452,0
63,100,1.040909090909091,848,0,41,DL_Nostalgic_Guitar,6,15,nostalgic_ninjyou,0.35793524980545044,0
58,100,1.1181818181818182,198,1,42,DL_Nostalgic_Guitar,6,15,nostalgic_ninjyou,0.9990280866622925,1
56,100,1.559090909090909,448,1,42,DL_Nostalgic_Guitar,6,15,nostalgic_ninjyou,0.37034308910369873,0
56,100,1.2363636363636363,810,1,42,DL_Nostalgic_Guitar,6,15,nostalgic_ninjyou,0.45616018772125244,0
58,100,2.922727272727273,201,1,43,DL_Nostalgic_Guitar,6,15,nostalgic_ninjyou,0.9983231425285339,1
56,100,0.759090909090909,848,1,43,DL_Nostalgic_Guitar,6,12,nostalgic_ninjyou,0.5462074875831604,1
53,100,0.35909090909090907,141,1,44,DL_Nostalgic_Guitar,6,6,nostalgic_ninjyou,0.9988439083099365,1
56,100,0.5409090909090909,220,0,44,DL_Nostalgic_Guitar,6,9,nostalgic_ninjyou,0.13798095285892487,0
53,100,0.22272727272727272,356,0,44,DL_Nostalgic_Guitar,6,4,nostalgic_ninjyou,0.1623668074607849,0
56,100,0.7818181818181819,431,0,44,DL_Nostalgic_Guitar,6,13,nostalgic_ninjyou,0.19104500114917755,0
58,100,0.1409090909090909,606,0,44,DL_Nostalgic_Guitar,6,2,nostalgic_ninjyou,0.26196080446243286,0
63,100,0.3,26,1,45,DL_Nostalgic_Guitar,6,5,nostalgic_ninjyou,0.9990094900131226,1
58,100,0.8818181818181818,131,0,45,DL_Nostalgic_Guitar,6,14,nostalgic_ninjyou,0.23325669765472412,0
56,100,0.4590909090909091,383,1,45,DL_Nostalgic_Guitar,6,7,nostalgic_ninjyou,0.27061131596565247,0
56,100,3.3227272727272728,606,0,45,DL_Nostalgic_Guitar,6,15,nostalgic_ninjyou,0.35790252685546875,0
56,100,0.7,783,1,46,DL_Nostalgic_Guitar,6,11,nostalgic_ninjyou,0.9792227745056152,1
53,100,0.3409090909090909,66,1,47,DL_Nostalgic_Guitar,6,5,nostalgic_ninjyou,0.9988439083099365,1
56,100,0.38181818181818183,144,0,47,DL_Nostalgic_Guitar,6,6,nostalgic_ninjyou,0.13798440992832184,0
56,100,1.1409090909090909,289,0,47,DL_Nostalgic_Guitar,6,15,nostalgic_ninjyou,0.1623593419790268,0
58,100,0.9818181818181818,541,1,47,DL_Nostalgic_Guitar,6,15,nostalgic_ninjyou,0.19105635583400726,0
58,100,0.4409090909090909,783,1,47,DL_Nostalgic_Guitar,6,7,nostalgic_ninjyou,0.2619533836841583,0
70,100,0.1590909090909091,83,1,48,DL_Nostalgic_Guitar,6,3,nostalgic_ninjyou,0.9983004927635193,1
58,100,0.17727272727272728,118,0,48,DL_Nostalgic_Guitar,6,3,nostalgic_ninjyou,0.04466210678219795,0
53,100,0.23636363636363636,391,1,48,DL_Nostalgic_Guitar,6,4,nostalgic_ninjyou,0.03337141498923302,0
53,100,0.4590909090909091,448,0,48,DL_Nostalgic_Guitar,6,7,nostalgic_ninjyou,0.026948528364300728,0
56,100,0.3181818181818182,550,0,48,DL_Nostalgic_Guitar,6,5,nostalgic_ninjyou,0.02408386394381523,0
53,100,0.2590909090909091,628,0,48,DL_Nostalgic_Guitar,6,4,nostalgic_ninjyou,0.0249741580337286,0
56,100,0.5409090909090909,703,0,48,DL_Nostalgic_Guitar,6,9,nostalgic_ninjyou,0.03064800053834915,0
56,100,0.1590909090909091,826,0,48,DL_Nostalgic_Guitar,6,3,nostalgic_ninjyou,0.04136992618441582,0
58,100,0.35909090909090907,871,0,48,DL_Nostalgic_Guitar,6,6,nostalgic_ninjyou,0.07207265496253967,0
56,100,0.2,351,1,49,DL_Nostalgic_Guitar,6,3,nostalgic_ninjyou,0.9983231425285339,1
61,100,0.5,756,1,49,DL_Nostalgic_Guitar,6,8,nostalgic_ninjyou,0.5462186932563782,1
56,100,0.9818181818181818,166,1,50,DL_Nostalgic_Guitar,6,15,nostalgic_ninjyou,0.9988439083099365,1
58,100,0.1590909090909091,405,1,50,DL_Nostalgic_Guitar,6,3,nostalgic_ninjyou,0.1379808932542801,0
70,100,0.11818181818181818,440,0,50,DL_Nostalgic_Guitar,6,2,nostalgic_ninjyou,0.16236114501953125,0
58,100,0.3,729,1,50,DL_Nostalgic_Guitar,6,5,nostalgic_ninjyou,0.19104944169521332,0
70,100,0.1590909090909091,813,0,50,DL_Nostalgic_Guitar,6,3,nostalgic_ninjyou,0.2619585394859314,0
58,100,0.38181818181818183,4,1,51,DL_Nostalgic_Guitar,6,6,nostalgic_ninjyou,0.9990094900131226,1
63,100,0.12272727272727273,136,0,51,DL_Nostalgic_Guitar,6,2,nostalgic_ninjyou,0.2332363873720169,0
56,100,1.059090909090909,405,1,51,DL_Nostalgic_Guitar,6,15,nostalgic_ninjyou,0.2705823481082916,0
61,100,0.4409090909090909,703,1,51,DL_Nostalgic_Guitar,6,7,nostalgic_ninjyou,0.35792824625968933,0
60,100,1.1,8,1,52,DL_Nostalgic_Guitar,6,15,nostalgic_ninjyou,0.9990280866622925,1
63,100,0.1409090909090909,263,1,52,DL_Nostalgic_Guitar,6,2,nostalgic_ninjyou,0.37034913897514343,0
63,100,1.0772727272727274,413,0,52,DL_Nostalgic_Guitar,6,15,nostalgic_ninjyou,0.4561651945114136,0
56,100,0.3409090909090909,91,1,53,DL_Nostalgic_Guitar,6,5,nostalgic_ninjyou,0.9988439083099365,1
56,100,0.38181818181818183,179,0,53,DL_Nostalgic_Guitar,6,6,nostalgic_ninjyou,0.1379842907190323,0
63,100,1.059090909090909,263,0,53,DL_Nostalgic_Guitar,6,15,nostalgic_ninjyou,0.16236253082752228,0
58,100,0.7818181818181819,638,1,53,DL_Nostalgic_Guitar,6,13,nostalgic_ninjyou,0.19105598330497742,0
63,100,0.2636363636363636,818,0,53,DL_Nostalgic_Guitar,6,4,nostalgic_ninjyou,0.2619613707065582,0
63,100,0.11818181818181818,61,1,54,DL_Nostalgic_Guitar,6,2,nostalgic_ninjyou,0.9990280866622925,1
56,100,0.2590909090909091,338,1,54,DL_Nostalgic_Guitar,6,4,nostalgic_ninjyou,0.3703623414039612,0
63,100,0.740909090909091,563,0,54,DL_Nostalgic_Guitar,6,12,nostalgic_ninjyou,0.45615944266319275,0
55,100,0.13636363636363635,150,1,55,DL_Nostalgic_Guitar,6,2,nostalgic_ninjyou,0.9990280866622925,1
63,100,0.1,703,1,55,DL_Nostalgic_Guitar,6,2,nostalgic_ninjyou,0.37033945322036743,0
56,100,0.36363636363636365,751,0,55,DL_Nostalgic_Guitar,6,6,nostalgic_ninjyou,0.45617106556892395,0
56,100,0.9590909090909091,31,1,56,DL_Nostalgic_Guitar,6,15,nostalgic_ninjyou,0.9986506104469299,1
56,100,0.12272727272727273,268,1,56,DL_Nostalgic_Guitar,6,2,nostalgic_ninjyou,0.08798141032457352,0
56,100,0.7,338,0,56,DL_Nostalgic_Guitar,6,11,nostalgic_ninjyou,0.09298663586378098,0
56,100,0.8590909090909091,501,0,56,DL_Nostalgic_Guitar,6,14,nostalgic_ninjyou,0.10994897782802582,0
56,100,0.12272727272727273,694,0,56,DL_Nostalgic_Guitar,6,2,nostalgic_ninjyou,0.1286751627922058,0
56,100,0.2590909090909091,761,0,56,DL_Nostalgic_Guitar,6,4,nostalgic_ninjyou,0.18220829963684082,0
56,100,1.4,26,1,57,DL_Nostalgic_Guitar,6,15,nostalgic_ninjyou,0.9983231425285339,1
56,100,0.8409090909090909,338,1,57,DL_Nostalgic_Guitar,6,13,nostalgic_ninjyou,0.5462188124656677,1
58,100,0.2590909090909091,118,1,58,DL_Nostalgic_Guitar,6,4,nostalgic_ninjyou,0.9990094900131226,1
58,100,0.7636363636363637,179,0,58,DL_Nostalgic_Guitar,6,12,nostalgic_ninjyou,0.23323586583137512,0
58,100,0.1590909090909091,448,1,58,DL_Nostalgic_Guitar,6,3,nostalgic_ninjyou,0.2705916166305542,0
56,100,0.9,681,1,58,DL_Nostalgic_Guitar,6,14,nostalgic_ninjyou,0.3579208552837372,0
56,100,0.9409090909090909,26,1,59,DL_Nostalgic_Guitar,6,15,nostalgic_ninjyou,0.9986506104469299,1
58,100,0.2409090909090909,298,1,59,DL_Nostalgic_Guitar,6,4,nostalgic_ninjyou,0.08798225224018097,0
58,100,0.2409090909090909,378,0,59,DL_Nostalgic_Guitar,6,4,nostalgic_ninjyou,0.09298289567232132,0
55,100,0.21818181818181817,448,0,59,DL_Nostalgic_Guitar,6,3,nostalgic_ninjyou,0.10994856059551239,0
58,100,1.4,518,0,59,DL_Nostalgic_Guitar,6,15,nostalgic_ninjyou,0.12866738438606262,0
58,100,0.2,853,1,59,DL_Nostalgic_Guitar,6,3,nostalgic_ninjyou,0.18221808969974518,0
60,100,0.7227272727272728,48,1,60,DL_Nostalgic_Guitar,6,12,nostalgic_ninjyou,0.9986506104469299,1
56,100,0.5590909090909091,241,0,60,DL_Nostalgic_Guitar,6,9,nostalgic_ninjyou,0.08798070251941681,0
60,100,0.11818181818181818,405,0,60,DL_Nostalgic_Guitar,6,2,nostalgic_ninjyou,0.09298975765705109,0
56,100,0.23636363636363636,545,0,60,DL_Nostalgic_Guitar,6,4,nostalgic_ninjyou,0.10995329916477203,0
56,100,0.3181818181818182,616,0,60,DL_Nostalgic_Guitar,6,5,nostalgic_ninjyou,0.12867355346679688,0
56,100,0.6,848,1,60,DL_Nostalgic_Guitar,6,10,nostalgic_ninjyou,0.18221867084503174,0
56,100,0.6818181818181818,289,1,61,DL_Nostalgic_Guitar,6,11,nostalgic_ninjyou,0.9990280866622925,1
56,100,0.12272727272727273,453,0,61,DL_Nostalgic_Guitar,6,2,nostalgic_ninjyou,0.37034371495246887,0
56,100,0.3,700,1,61,DL_Nostalgic_Guitar,6,5,nostalgic_ninjyou,0.4561678171157837,0
56,100,0.1,43,1,62,DL_Nostalgic_Guitar,6,2,nostalgic_ninjyou,0.9988439083099365,1
56,100,0.5818181818181818,91,0,62,DL_Nostalgic_Guitar,6,9,nostalgic_ninjyou,0.13797752559185028,0
58,100,0.2,228,0,62,DL_Nostalgic_Guitar,6,3,nostalgic_ninjyou,0.16236436367034912,0
58,100,0.1,483,1,62,DL_Nostalgic_Guitar,6,2,nostalgic_ninjyou,0.19105690717697144,0
58,100,1.559090909090909,518,0,62,DL_Nostalgic_Guitar,6,15,nostalgic_ninjyou,0.2619602382183075,0
63,100,0.35909090909090907,677,1,64,DL_Nostalgic_Guitar,6,6,nostalgic_ninjyou,0.9792236089706421,1
60,100,0.2,188,1,45,DL_Guitar,6,3,synjyu_upbeat_poprock,0.9983232617378235,1
71,100,0.2,584,1,45,DL_Guitar,6,3,synjyu_upbeat_poprock,0.5462169051170349,1
52,100,0.1409090909090909,136,1,46,DL_Guitar,6,2,synjyu_upbeat_poprock,0.9986506104469299,1
52,100,0.1590909090909091,185,0,46,DL_Guitar,6,3,synjyu_upbeat_poprock,0.0879809558391571,0
52,100,0.16363636363636364,311,0,46,DL_Guitar,6,3,synjyu_upbeat_poprock,0.09298814833164215,0
52,100,0.2409090909090909,373,0,46,DL_Guitar,6,4,synjyu_upbeat_poprock,0.10995406657457352,0
52,100,0.2818181818181818,681,1,46,DL_Guitar,6,5,synjyu_upbeat_poprock,0.12867732346057892,0
52,100,1.1590909090909092,756,0,46,DL_Guitar,6,15,synjyu_upbeat_poprock,0.18222865462303162,0
52,100,0.38181818181818183,136,1,47,DL_Guitar,6,6,synjyu_upbeat_poprock,0.9990280866622925,1
69,100,0.2772727272727273,536,1,47,DL_Guitar,6,4,synjyu_upbeat_poprock,0.37033960223197937,0
52,100,0.21818181818181817,845,1,47,DL_Guitar,6,3,synjyu_upbeat_poprock,0.4561699628829956,0
52,100,0.4590909090909091,18,1,48,DL_Guitar,6,7,synjyu_upbeat_poprock,0.9990094900131226,1
52,100,0.1409090909090909,136,0,48,DL_Guitar,6,2,synjyu_upbeat_poprock,0.23322440683841705,0
52,100,0.6409090909090909,188,0,48,DL_Guitar,6,10,synjyu_upbeat_poprock,0.2705811560153961,0
52,100,0.1409090909090909,338,0,48,DL_Guitar,6,2,synjyu_upbeat_poprock,0.35793671011924744,0
71,100,0.3,228,1,49,DL_Guitar,6,5,synjyu_upbeat_poprock,0.9792237281799316,1
55,100,0.2590909090909091,75,1,50,DL_Guitar,6,4,synjyu_upbeat_poprock,0.9990280866622925,1
71,100,0.16363636363636364,421,1,50,DL_Guitar,6,3,synjyu_upbeat_poprock,0.3703349232673645,0
52,100,0.18181818181818182,796,1,50,DL_Guitar,6,3,synjyu_upbeat_poprock,0.45616841316223145,0
52,100,0.11818181818181818,96,1,51,DL_Guitar,6,2,synjyu_upbeat_poprock,0.9988439083099365,1
52,100,0.37727272727272726,171,0,51,DL_Guitar,6,6,synjyu_upbeat_poprock,0.137985497713089,0
60,100,0.16363636363636364,268,0,51,DL_Guitar,6,3,synjyu_upbeat_poprock,0.1623685508966446,0
52,100,0.1,545,1,51,DL_Guitar,6,2,synjyu_upbeat_poprock,0.19106025993824005,0
52,100,1.2181818181818183,590,0,51,DL_Guitar,6,15,synjyu_upbeat_poprock,0.261966347694397,0
69,100,0.2,171,1,52,DL_Guitar,6,3,synjyu_upbeat_poprock,0.9986506104469299,1
69,100,0.22272727272727272,224,0,52,DL_Guitar,6,4,synjyu_upbeat_poprock,0.08798248320817947,0
69,100,0.1590909090909091,361,0,52,DL_Guitar,6,3,synjyu_upbeat_poprock,0.09298522770404816,0
52,100,0.5227272727272727,641,1,52,DL_Guitar,6,8,synjyu_upbeat_poprock,0.10995284467935562,0
64,100,0.11818181818181818,791,0,52,DL_Guitar,6,2,synjyu_upbeat_poprock,0.12867608666419983,0
52,100,0.8227272727272728,839,0,52,DL_Guitar,6,13,synjyu_upbeat_poprock,0.18222282826900482,0
71,100,0.1590909090909091,56,1,54,DL_Guitar,6,3,synjyu_upbeat_poprock,0.9792236089706421,1
64,100,0.1409090909090909,598,1,60,DL_Guitar,6,2,synjyu_upbeat_poprock,0.9792247414588928,1
62,100,0.2,246,1,61,DL_Guitar,6,3,synjyu_upbeat_poprock,0.9983232617378235,1
52,100,0.1590909090909091,845,1,61,DL_Guitar,6,3,synjyu_upbeat_poprock,0.5462183952331543,1
52,100,0.12272727272727273,158,1,62,DL_Guitar,6,2,synjyu_upbeat_poprock,0.9988439083099365,1
52,100,0.1409090909090909,418,1,62,DL_Guitar,6,2,synjyu_upbeat_poprock,0.1379842758178711,0
52,100,0.35909090909090907,536,0,62,DL_Guitar,6,6,synjyu_upbeat_poprock,0.16236825287342072,0
52,100,0.2818181818181818,729,0,62,DL_Guitar,6,5,synjyu_upbeat_poprock,0.1910649538040161,0
53,100,0.1409090909090909,804,0,62,DL_Guitar,6,2,synjyu_upbeat_poprock,0.2619725465774536,0
60,100,0.2,8,1,63,DL_Guitar,6,3,synjyu_upbeat_poprock,0.9990094900131226,1
60,100,0.2409090909090909,56,0,63,DL_Guitar,6,4,synjyu_upbeat_poprock,0.23322591185569763,0
53,100,0.22272727272727272,136,0,63,DL_Guitar,6,4,synjyu_upbeat_poprock,0.27057084441185,0
52,100,0.5409090909090909,466,1,63,DL_Guitar,6,9,synjyu_upbeat_poprock,0.35792872309684753,0
52,100,0.18181818181818182,13,1,64,DL_Guitar,6,3,synjyu_upbeat_poprock,0.9990094900131226,1
62,100,0.2,229,0,64,DL_Guitar,6,3,synjyu_upbeat_poprock,0.23323291540145874,0
62,100,0.5772727272727273,559,1,64,DL_Guitar,6,9,synjyu_upbeat_poprock,0.27058684825897217,0
62,100,0.1409090909090909,792,1,64,DL_Guitar,6,2,synjyu_upbeat_poprock,0.357943058013916,0
62,100,0.11818181818181818,106,1,65,DL_Guitar,6,2,synjyu_upbeat_poprock,0.9983232617378235,1
55,100,0.35909090909090907,413,1,65,DL_Guitar,6,6,synjyu_upbeat_poprock,0.5462179780006409,1
62,100,0.8409090909090909,462,1,66,DL_Guitar,6,13,synjyu_upbeat_poprock,0.9983231425285339,1
62,100,0.9409090909090909,713,1,66,DL_Guitar,6,15,synjyu_upbeat_poprock,0.5462241768836975,1
52,100,0.3,106,1,67,DL_Guitar,6,5,synjyu_upbeat_poprock,0.9988439083099365,1
60,100,0.1590909090909091,250,0,67,DL_Guitar,6,3,synjyu_upbeat_poprock,0.13798187673091888,0
52,100,0.4818181818181818,320,0,67,DL_Guitar,6,8,synjyu_upbeat_poprock,0.16236519813537598,0
65,100,0.2,700,1,67,DL_Guitar,6,3,synjyu_upbeat_poprock,0.19105714559555054,0
53,100,0.36363636363636365,817,0,67,DL_Guitar,6,6,synjyu_upbeat_poprock,0.26196837425231934,0
53,100,0.4590909090909091,22,1,68,DL_Guitar,6,7,synjyu_upbeat_poprock,0.9982556700706482,1
53,100,0.13636363636363635,216,0,68,DL_Guitar,6,2,synjyu_upbeat_poprock,0.041293445974588394,0
52,100,0.2772727272727273,282,0,68,DL_Guitar,6,4,synjyu_upbeat_poprock,0.029124703258275986,0
52,100,0.2,417,0,68,DL_Guitar,6,3,synjyu_upbeat_poprock,0.02156960964202881,0
52,100,0.37727272727272726,493,0,68,DL_Guitar,6,6,synjyu_upbeat_poprock,0.01705954410135746,0
52,100,0.1,580,0,68,DL_Guitar,6,2,synjyu_upbeat_poprock,0.015268655493855476,0
52,100,0.1,606,0,68,DL_Guitar,6,2,synjyu_upbeat_poprock,0.016456695273518562,0
52,100,0.13636363636363635,633,0,68,DL_Guitar,6,2,synjyu_upbeat_poprock,0.021838190034031868,0
62,100,0.12272727272727273,817,0,68,DL_Guitar,6,2,synjyu_upbeat_poprock,0.032519012689590454,0
62,100,0.3409090909090909,849,0,68,DL_Guitar,6,5,synjyu_upbeat_poprock,0.0609128512442112,0
62,100,0.36363636363636365,69,1,69,DL_Guitar,6,6,synjyu_upbeat_poprock,0.9983735084533691,1
62,100,0.11818181818181818,172,0,69,DL_Guitar,6,2,synjyu_upbeat_poprock,0.05105108022689819,0
62,100,0.2636363636363636,202,0,69,DL_Guitar,6,4,synjyu_upbeat_poprock,0.041613005101680756,0
62,100,0.1409090909090909,383,0,69,DL_Guitar,6,2,synjyu_upbeat_poprock,0.03798056021332741,0
52,100,0.2818181818181818,593,0,69,DL_Guitar,6,5,synjyu_upbeat_poprock,0.03926245868206024,0
52,100,0.1590909090909091,673,0,69,DL_Guitar,6,3,synjyu_upbeat_poprock,0.04616840183734894,0
52,100,0.5363636363636364,722,0,69,DL_Guitar,6,9,synjyu_upbeat_poprock,0.05713563412427902,0
60,100,0.1409090909090909,870,0,69,DL_Guitar,6,2,synjyu_upbeat_poprock,0.09188593178987503,0
53,100,0.38181818181818183,307,1,70,DL_Guitar,6,6,synjyu_upbeat_poprock,0.9986506104469299,1
53,100,0.3,396,0,70,DL_Guitar,6,5,synjyu_upbeat_poprock,0.08797988295555115,0
60,100,0.2818181818181818,506,0,70,DL_Guitar,6,5,synjyu_upbeat_poprock,0.09298430383205414,0
52,100,0.5636363636363636,642,0,70,DL_Guitar,6,9,synjyu_upbeat_poprock,0.1099482849240303,0
52,100,0.18181818181818182,770,0,70,DL_Guitar,6,3,synjyu_upbeat_poprock,0.12867161631584167,0
52,100,0.8,839,0,70,DL_Guitar,6,13,synjyu_upbeat_poprock,0.18221434950828552,0
62,100,0.1,417,1,71,DL_Guitar,6,2,synjyu_upbeat_poprock,0.9990094900131226,1
62,100,0.21818181818181817,493,0,71,DL_Guitar,6,3,synjyu_upbeat_poprock,0.2332395762205124,0
62,100,0.6409090909090909,650,0,71,DL_Guitar,6,10,synjyu_upbeat_poprock,0.2705933749675751,0
62,100,0.1590909090909091,823,0,71,DL_Guitar,6,3,synjyu_upbeat_poprock,0.3579504191875458,0
52,100,0.2,399,1,72,DL_Guitar,6,3,synjyu_upbeat_poprock,0.9988439083099365,1
53,100,0.33636363636363636,457,0,72,DL_Guitar,6,5,synjyu_upbeat_poprock,0.13797862827777863,0
53,100,0.16363636363636364,576,0,72,DL_Guitar,6,3,synjyu_upbeat_poprock,0.16236047446727753,0
53,100,0.1590909090909091,660,0,72,DL_Guitar,6,3,synjyu_upbeat_poprock,0.19104920327663422,0
60,100,0.1,734,0,72,DL_Guitar,6,2,synjyu_upbeat_poprock,0.2619609236717224,0
53,100,0.2,30,1,73,DL_Guitar,6,3,synjyu_upbeat_poprock,0.9990094900131226,1
55,100,0.6181818181818182,413,1,73,DL_Guitar,6,10,synjyu_upbeat_poprock,0.23323655128479004,0
55,100,0.35909090909090907,590,0,73,DL_Guitar,6,6,synjyu_upbeat_poprock,0.27058497071266174,0
55,100,0.5,722,0,73,DL_Guitar,6,8,synjyu_upbeat_poprock,0.35793086886405945,0
53,100,0.42272727272727273,796,1,74,DL_Guitar,6,7,synjyu_upbeat_poprock,0.9792236089706421,1
53,100,0.4590909090909091,62,1,75,DL_Guitar,6,7,synjyu_upbeat_poprock,0.9988439083099365,1
60,100,0.17727272727272728,250,0,75,DL_Guitar,6,3,synjyu_upbeat_poprock,0.1379835456609726,0
53,100,0.1,303,0,75,DL_Guitar,6,2,synjyu_upbeat_poprock,0.16235993802547455,0
53,100,0.12272727272727273,356,0,75,DL_Guitar,6,2,synjyu_upbeat_poprock,0.19105269014835358,0
53,100,0.1590909090909091,417,0,75,DL_Guitar,6,3,synjyu_upbeat_poprock,0.2619606554508209,0
52,100,0.2818181818181818,92,1,76,DL_Guitar,6,5,synjyu_upbeat_poprock,0.9983735084533691,1
52,100,0.1,263,0,76,DL_Guitar,6,2,synjyu_upbeat_poprock,0.05104997009038925,0
52,100,0.2,352,0,76,DL_Guitar,6,3,synjyu_upbeat_poprock,0.04161197692155838,0
52,100,0.2636363636363636,399,0,76,DL_Guitar,6,4,synjyu_upbeat_poprock,0.03798071667551994,0
52,100,0.17727272727272728,480,0,76,DL_Guitar,6,3,synjyu_upbeat_poprock,0.03926139324903488,0
52,100,0.1409090909090909,563,0,76,DL_Guitar,6,2,synjyu_upbeat_poprock,0.04616586118936539,0
52,100,0.2,624,0,76,DL_Guitar,6,3,synjyu_upbeat_poprock,0.05713280662894249,0
53,100,0.12272727272727273,729,0,76,DL_Guitar,6,2,synjyu_upbeat_poprock,0.09188254922628403,0
52,100,0.2,157,1,77,DL_Guitar,6,3,synjyu_upbeat_poprock,0.9984879493713379,1
53,100,0.35909090909090907,263,0,77,DL_Guitar,6,6,synjyu_upbeat_poprock,0.06335185468196869,0
53,100,0.1590909090909091,417,0,77,DL_Guitar,6,3,synjyu_upbeat_poprock,0.058286894112825394,0
53,100,0.11818181818181818,457,0,77,DL_Guitar,6,2,synjyu_upbeat_poprock,0.06136048957705498,0
53,100,0.6,523,0,77,DL_Guitar,6,10,synjyu_upbeat_poprock,0.0716782808303833,0
53,100,0.16363636363636364,663,0,77,DL_Guitar,6,3,synjyu_upbeat_poprock,0.08473281562328339,0
60,100,0.11818181818181818,713,0,77,DL_Guitar,6,2,synjyu_upbeat_poprock,0.12635059654712677,0
53,100,0.12272727272727273,35,1,78,DL_Guitar,6,2,synjyu_upbeat_poprock,0.9990094900131226,1
64,100,0.13636363636363635,260,0,78,DL_Guitar,6,2,synjyu_upbeat_poprock,0.2332356572151184,0
52,100,0.1409090909090909,316,0,78,DL_Guitar,6,2,synjyu_upbeat_poprock,0.27058982849121094,0
57,100,0.42272727272727273,466,0,78,DL_Guitar,6,7,synjyu_upbeat_poprock,0.3579358160495758,0
52,100,0.7181818181818181,810,1,80,DL_Guitar,6,11,synjyu_upbeat_poprock,0.9792242646217346,1
52,100,0.1409090909090909,189,1,81,DL_Guitar,6,2,synjyu_upbeat_poprock,0.9986506104469299,1
52,100,0.7181818181818181,263,0,81,DL_Guitar,6,11,synjyu_upbeat_poprock,0.08798115700483322,0
52,100,0.6363636363636364,436,0,81,DL_Guitar,6,10,synjyu_upbeat_poprock,0.09298675507307053,0
52,100,0.6,656,0,81,DL_Guitar,6,10,synjyu_upbeat_poprock,0.10995357483625412,0
52,100,0.1,800,0,81,DL_Guitar,6,2,synjyu_upbeat_poprock,0.12867718935012817,0
52,100,0.5,849,0,81,DL_Guitar,6,8,synjyu_upbeat_poprock,0.18222805857658386,0
53,100,0.35909090909090907,140,1,82,DL_Guitar,6,6,synjyu_upbeat_poprock,0.9986506104469299,1
53,100,0.1590909090909091,326,0,82,DL_Guitar,6,3,synjyu_upbeat_poprock,0.08797840774059296,0
53,100,0.3181818181818182,383,0,82,DL_Guitar,6,5,synjyu_upbeat_poprock,0.09298277646303177,0
53,100,0.2409090909090909,527,0,82,DL_Guitar,6,4,synjyu_upbeat_poprock,0.10994770377874374,0
52,100,0.9,629,0,82,DL_Guitar,6,14,synjyu_upbeat_poprock,0.12867064774036407,0
52,100,0.7636363636363637,839,0,82,DL_Guitar,6,12,synjyu_upbeat_poprock,0.18221275508403778,0
52,100,0.4772727272727273,150,1,83,DL_Guitar,6,8,synjyu_upbeat_poprock,0.9792249798774719,1
52,100,0.7636363636363637,466,1,84,DL_Guitar,6,12,synjyu_upbeat_poprock,0.9990280866622925,1
52,100,0.4590909090909091,682,0,84,DL_Guitar,6,7,synjyu_upbeat_poprock,0.37033867835998535,0
52,100,0.6181818181818182,810,0,84,DL_Guitar,6,10,synjyu_upbeat_poprock,0.4561687707901001,0
52,100,0.2590909090909091,229,1,85,DL_Guitar,6,4,synjyu_upbeat_poprock,0.9990280866622925,1
52,100,0.8,316,0,85,DL_Guitar,6,13,synjyu_upbeat_poprock,0.37033790349960327,0
52,100,0.1409090909090909,514,0,85,DL_Guitar,6,2,synjyu_upbeat_poprock,0.4561777114868164,0
55,100,0.1409090909090909,417,1,86,DL_Guitar,6,2,synjyu_upbeat_poprock,0.9792240262031555,1
65,100,0.3409090909090909,286,1,89,DL_Guitar,6,5,synjyu_upbeat_poprock,0.9792238473892212,1
55,100,0.6818181818181818,572,1,93,DL_Guitar,6,11,synjyu_upbeat_poprock,0.9983231425285339,1
55,100,0.18181818181818182,849,1,93,DL_Guitar,6,3,synjyu_upbeat_poprock,0.5462155938148499,1
78,100,0.17727272727272728,250,1,94,DL_Guitar,6,3,synjyu_upbeat_poprock,0.9990094900131226,1
53,100,0.21818181818181817,360,0,94,DL_Guitar,6,3,synjyu_upbeat_poprock,0.23322276771068573,0
53,100,0.1590909090909091,493,0,94,DL_Guitar,6,3,synjyu_upbeat_poprock,0.2705801725387573,0
61,100,0.2,779,1,94,DL_Guitar,6,3,synjyu_upbeat_poprock,0.35792261362075806,0
53,100,0.12272727272727273,3,1,96,DL_Guitar,6,2,synjyu_upbeat_poprock,0.9986506104469299,1
53,100,0.1590909090909091,140,0,96,DL_Guitar,6,3,synjyu_upbeat_poprock,0.08797789365053177,0
53,100,0.1409090909090909,320,0,96,DL_Guitar,6,2,synjyu_upbeat_poprock,0.092984139919281,0
53,100,0.2,373,0,96,DL_Guitar,6,3,synjyu_upbeat_poprock,0.10994788259267807,0
56,100,0.1,619,1,96,DL_Guitar,6,2,synjyu_upbeat_poprock,0.1286638379096985,0
61,100,0.1590909090909091,866,1,96,DL_Guitar,6,3,synjyu_upbeat_poprock,0.18221250176429749,0
61,100,0.16363636363636364,47,1,97,DL_Guitar,6,3,synjyu_upbeat_poprock,0.9990094900131226,1
54,100,0.17727272727272728,163,0,97,DL_Guitar,6,3,synjyu_upbeat_poprock,0.23323291540145874,0
54,100,0.3,242,0,97,DL_Guitar,6,5,synjyu_upbeat_poprock,0.2705862820148468,0
53,100,0.1,330,0,97,DL_Guitar,6,2,synjyu_upbeat_poprock,0.3579290211200714,0
61,100,0.12272727272727273,92,1,98,DL_Guitar,6,2,synjyu_upbeat_poprock,0.9990094900131226,1
61,100,0.32272727272727275,202,0,98,DL_Guitar,6,5,synjyu_upbeat_poprock,0.23323039710521698,0
61,100,0.13636363636363635,303,0,98,DL_Guitar,6,2,synjyu_upbeat_poprock,0.27057915925979614,0
61,100,0.2,440,0,98,DL_Guitar,6,3,synjyu_upbeat_poprock,0.35793063044548035,0
53,100,0.17727272727272728,370,1,100,DL_Guitar,6,3,synjyu_upbeat_poprock,0.9988439083099365,1
53,100,0.1,502,0,100,DL_Guitar,6,2,synjyu_upbeat_poprock,0.1379801332950592,0
53,100,0.1409090909090909,637,0,100,DL_Guitar,6,2,synjyu_upbeat_poprock,0.1623624563217163,0
53,100,0.21818181818181817,779,0,100,DL_Guitar,6,3,synjyu_upbeat_poprock,0.1910577118396759,0
53,100,0.2590909090909091,870,0,100,DL_Guitar,6,4,synjyu_upbeat_poprock,0.261970579624176,0
53,100,0.11818181818181818,150,1,101,DL_Guitar,6,2,synjyu_upbeat_poprock,0.9990094900131226,1
53,100,0.1,307,0,101,DL_Guitar,6,2,synjyu_upbeat_poprock,0.2332245409488678,0
53,100,0.2818181818181818,409,0,101,DL_Guitar,6,5,synjyu_upbeat_poprock,0.27057501673698425,0
54,100,0.1,734,1,101,DL_Guitar,6,2,synjyu_upbeat_poprock,0.35792186856269836,0
54,100,0.1590909090909091,9,1,102,DL_Guitar,6,3,synjyu_upbeat_poprock,0.9990280866622925,1
53,100,0.1409090909090909,43,0,102,DL_Guitar,6,2,synjyu_upbeat_poprock,0.3703290522098541,0
53,100,0.17727272727272728,633,1,102,DL_Guitar,6,3,synjyu_upbeat_poprock,0.45616450905799866,0
52,100,0.7227272727272728,48,1,0,_tunecore_Remastered_Guitar,6,12,ninjyouuranagaya,0.9988439083099365,1
59,100,0.2,370,1,0,_tunecore_Remastered_Guitar,6,3,ninjyouuranagaya,0.13798324763774872,0
59,100,0.1,559,0,0,_tunecore_Remastered_Guitar,6,2,ninjyouuranagaya,0.16236194968223572,0
59,100,0.2,713,0,0,_tunecore_Remastered_Guitar,6,3,ninjyouuranagaya,0.19106242060661316,0
61,100,0.4,801,0,0,_tunecore_Remastered_Guitar,6,6,ninjyouuranagaya,0.26196014881134033,0
64,100,0.6181818181818182,18,1,1,_tunecore_Remastered_Guitar,6,10,ninjyouuranagaya,0.9983004927635193,1
61,100,0.1590909090909091,241,0,1,_tunecore_Remastered_Guitar,6,3,ninjyouuranagaya,0.0446619875729084,0
66,100,0.2409090909090909,299,0,1,_tunecore_Remastered_Guitar,6,4,ninjyouuranagaya,0.03337209299206734,0
68,100,0.3181818181818182,369,0,1,_tunecore_Remastered_Guitar,6,5,ninjyouuranagaya,0.0269477479159832,0
66,100,0.4818181818181818,475,0,1,_tunecore_Remastered_Guitar,6,8,ninjyouuranagaya,0.024083806201815605,0
66,100,0.1590909090909091,669,0,1,_tunecore_Remastered_Guitar,6,3,ninjyouuranagaya,0.024972662329673767,0
59,100,0.1590909090909091,744,0,1,_tunecore_Remastered_Guitar,6,3,ninjyouuranagaya,0.030647628009319305,0
61,100,0.3181818181818182,791,0,1,_tunecore_Remastered_Guitar,6,5,ninjyouuranagaya,0.04136815294623375,0
59,100,0.759090909090909,871,0,1,_tunecore_Remastered_Guitar,6,12,ninjyouuranagaya,0.07207094132900238,0
59,100,0.6772727272727272,193,1,2,_tunecore_Remastered_Guitar,6,11,ninjyouuranagaya,0.9984879493713379,1
64,100,0.21818181818181817,348,0,2,_tunecore_Remastered_Guitar,6,3,ninjyouuranagaya,0.06335455924272537,0
59,100,0.2409090909090909,427,0,2,_tunecore_Remastered_Guitar,6,4,ninjyouuranagaya,0.058290064334869385,0
64,100,0.2409090909090909,488,0,2,_tunecore_Remastered_Guitar,6,4,ninjyouuranagaya,0.06136364862322807,0
52,100,0.6409090909090909,541,0,2,_tunecore_Remastered_Guitar,6,10,ninjyouuranagaya,0.07168357819318771,0
64,100,0.1,779,1,2,_tunecore_Remastered_Guitar,6,2,ninjyouuranagaya,0.08473841845989227,0
64,100,0.1,849,0,2,_tunecore_Remastered_Guitar,6,2,ninjyouuranagaya,0.1263572722673416,0
59,100,0.2,34,1,3,_tunecore_Remastered_Guitar,6,3,ninjyouuranagaya,0.9982282519340515,1
61,100,0.2818181818181818,100,0,3,_tunecore_Remastered_Guitar,6,5,ninjyouuranagaya,0.03940176963806152,0
64,100,0.3181818181818182,176,0,3,_tunecore_Remastered_Guitar,6,5,ninjyouuranagaya,0.026855075731873512,0
61,100,0.35909090909090907,369,0,3,_tunecore_Remastered_Guitar,6,6,ninjyouuranagaya,0.018831314519047737,0
64,100,0.2,458,0,3,_tunecore_Remastered_Guitar,6,3,ninjyouuranagaya,0.013655242510139942,0
68,100,0.17727272727272728,537,0,3,_tunecore_Remastered_Guitar,6,3,ninjyouuranagaya,0.010813173837959766,0
66,100,0.2590909090909091,593,0,3,_tunecore_Remastered_Guitar,6,4,ninjyouuranagaya,0.010073849000036716,0
64,100,0.23636363636363636,656,0,3,_tunecore_Remastered_Guitar,6,4,ninjyouuranagaya,0.0117167504504323,0
61,100,0.2636363636363636,708,0,3,_tunecore_Remastered_Guitar,6,4,ninjyouuranagaya,0.01699233241379261,0
57,100,0.13636363636363635,810,0,3,_tunecore_Remastered_Guitar,6,2,ninjyouuranagaya,0.027579311281442642,0
66,100,0.8181818181818182,853,0,3,_tunecore_Remastered_Guitar,6,13,ninjyouuranagaya,0.054595720022916794,0
66,100,0.7,158,1,4,_tunecore_Remastered_Guitar,6,11,ninjyouuranagaya,0.9990280866622925,1
64,100,1.2636363636363637,334,0,4,_tunecore_Remastered_Guitar,6,15,ninjyouuranagaya,0.3703385889530182,0
63,100,0.1409090909090909,836,1,4,_tunecore_Remastered_Guitar,6,2,ninjyouuranagaya,0.45616915822029114,0
64,100,0.12272727272727273,135,1,5,_tunecore_Remastered_Guitar,6,2,ninjyouuranagaya,0.9990280866622925,1
52,100,0.740909090909091,163,0,5,_tunecore_Remastered_Guitar,6,12,ninjyouuranagaya,0.37033867835998535,0
61,100,0.4590909090909091,854,1,5,_tunecore_Remastered_Guitar,6,7,ninjyouuranagaya,0.456173837184906,0
64,100,0.1409090909090909,74,1,6,_tunecore_Remastered_Guitar,6,2,ninjyouuranagaya,0.9984879493713379,1
64,100,0.42272727272727273,145,0,6,_tunecore_Remastered_Guitar,6,7,ninjyouuranagaya,0.06335253268480301,0
61,100,0.1,550,1,6,_tunecore_Remastered_Guitar,6,2,ninjyouuranagaya,0.05828817933797836,0
61,100,0.1,598,0,6,_tunecore_Remastered_Guitar,6,2,ninjyouuranagaya,0.06136356294155121,0
61,100,0.2,721,0,6,_tunecore_Remastered_Guitar,6,3,ninjyouuranagaya,0.0716845765709877,0
57,100,0.1409090909090909,826,0,6,_tunecore_Remastered_Guitar,6,2,ninjyouuranagaya,0.08473706990480423,0
61,100,0.3409090909090909,871,0,6,_tunecore_Remastered_Guitar,6,5,ninjyouuranagaya,0.12635602056980133,0
63,100,0.4,220,1,7,_tunecore_Remastered_Guitar,6,6,ninjyouuranagaya,0.9990280866622925,1
52,100,0.6363636363636364,634,1,7,_tunecore_Remastered_Guitar,6,10,ninjyouuranagaya,0.37033993005752563,0
52,100,0.22272727272727272,818,0,7,_tunecore_Remastered_Guitar,6,4,ninjyouuranagaya,0.4561780095100403,0
68,100,0.2409090909090909,110,1,8,_tunecore_Remastered_Guitar,6,4,ninjyouuranagaya,0.9990280866622925,1
64,100,0.2590909090909091,462,1,8,_tunecore_Remastered_Guitar,6,4,ninjyouuranagaya,0.37033939361572266,0
64,100,0.1590909090909091,558,0,8,_tunecore_Remastered_Guitar,6,3,ninjyouuranagaya,0.4561671316623688,0
61,100,0.1590909090909091,194,1,9,_tunecore_Remastered_Guitar,6,3,ninjyouuranagaya,0.9990094900131226,1
64,100,0.1,369,0,9,_tunecore_Remastered_Guitar,6,2,ninjyouuranagaya,0.2332330197095871,0
59,100,0.11818181818181818,527,0,9,_tunecore_Remastered_Guitar,6,2,ninjyouuranagaya,0.270581990480423,0
63,100,0.2590909090909091,677,0,9,_tunecore_Remastered_Guitar,6,4,ninjyouuranagaya,0.3579326868057251,0
52,100,0.5818181818181818,245,1,10,_tunecore_Remastered_Guitar,6,9,ninjyouuranagaya,0.9792243838310242,1
61,100,0.5,65,1,11,_tunecore_Remastered_Guitar,6,8,ninjyouuranagaya,0.9990094900131226,1
61,100,0.42272727272727273,343,1,11,_tunecore_Remastered_Guitar,6,7,ninjyouuranagaya,0.23323389887809753,0
61,100,0.36363636363636365,663,1,11,_tunecore_Remastered_Guitar,6,6,ninjyouuranagaya,0.2705865800380707,0
57,100,0.2,849,0,11,_tunecore_Remastered_Guitar,6,3,ninjyouuranagaya,0.3579292595386505,0
57,100,0.1409090909090909,48,1,12,_tunecore_Remastered_Guitar,6,2,ninjyouuranagaya,0.9988439083099365,1
61,100,0.12272727272727273,135,0,12,_tunecore_Remastered_Guitar,6,2,ninjyouuranagaya,0.1379835456609726,0
59,100,0.11818181818181818,307,0,12,_tunecore_Remastered_Guitar,6,2,ninjyouuranagaya,0.16236567497253418,0
63,100,0.2,378,0,12,_tunecore_Remastered_Guitar,6,3,ninjyouuranagaya,0.1910516917705536,0
52,100,0.6,730,1,12,_tunecore_Remastered_Guitar,6,10,ninjyouuranagaya,0.26196739077568054,0
52,100,0.12272727272727273,48,1,13,_tunecore_Remastered_Guitar,6,2,ninjyouuranagaya,0.9986506104469299,1
52,100,0.1409090909090909,285,1,13,_tunecore_Remastered_Guitar,6,2,ninjyouuranagaya,0.08797965198755264,0
61,100,0.18181818181818182,615,1,13,_tunecore_Remastered_Guitar,6,3,ninjyouuranagaya,0.09298476576805115,0
64,100,0.2818181818181818,716,0,13,_tunecore_Remastered_Guitar,6,5,ninjyouuranagaya,0.10995033383369446,0
61,100,0.1,787,0,13,_tunecore_Remastered_Guitar,6,2,ninjyouuranagaya,0.1286735087633133,0
61,100,0.12272727272727273,840,0,13,_tunecore_Remastered_Guitar,6,2,ninjyouuranagaya,0.1822250783443451,0
61,100,0.3181818181818182,295,1,14,_tunecore_Remastered_Guitar,6,5,ninjyouuranagaya,0.9988439083099365,1
61,100,0.3409090909090909,395,0,14,_tunecore_Remastered_Guitar,6,5,ninjyouuranagaya,0.13798263669013977,0
64,100,0.1,470,0,14,_tunecore_Remastered_Guitar,6,2,ninjyouuranagaya,0.16236579418182373,0
57,100,0.2590909090909091,519,0,14,_tunecore_Remastered_Guitar,6,4,ninjyouuranagaya,0.1910579353570938,0
63,100,0.32272727272727275,840,1,14,_tunecore_Remastered_Guitar,6,5,ninjyouuranagaya,0.26197218894958496,0
59,100,0.18181818181818182,276,1,15,_tunecore_Remastered_Guitar,6,3,ninjyouuranagaya,0.9986506104469299,1
57,100,0.2,426,0,15,_tunecore_Remastered_Guitar,6,3,ninjyouuranagaya,0.08797850459814072,0
61,100,0.4409090909090909,510,0,15,_tunecore_Remastered_Guitar,6,7,ninjyouuranagaya,0.09298398345708847,0
61,100,0.2,656,0,15,_tunecore_Remastered_Guitar,6,3,ninjyouuranagaya,0.10995147377252579,0
57,100,0.16363636363636364,773,0,15,_tunecore_Remastered_Guitar,6,3,ninjyouuranagaya,0.1286749690771103,0
61,100,0.21818181818181817,823,0,15,_tunecore_Remastered_Guitar,6,3,ninjyouuranagaya,0.18222779035568237,0
59,100,0.1409090909090909,3,1,16,_tunecore_Remastered_Guitar,6,2,ninjyouuranagaya,0.9986506104469299,1
63,100,0.6772727272727272,61,0,16,_tunecore_Remastered_Guitar,6,11,ninjyouuranagaya,0.08797778189182281,0
64,100,0.3181818181818182,505,1,16,_tunecore_Remastered_Guitar,6,5,ninjyouuranagaya,0.0929863378405571,0
57,100,0.5818181818181818,584,0,16,_tunecore_Remastered_Guitar,6,9,ninjyouuranagaya,0.10995224863290787,0
57,100,0.2,721,0,16,_tunecore_Remastered_Guitar,6,3,ninjyouuranagaya,0.12867774069309235,0
61,100,0.35909090909090907,783,0,16,_tunecore_Remastered_Guitar,6,6,ninjyouuranagaya,0.18222039937973022,0
57,100,0.6,0,1,17,_tunecore_Remastered_Guitar,6,10,ninjyouuranagaya,0.9990094900131226,1
61,100,0.41818181818181815,405,1,17,_tunecore_Remastered_Guitar,6,7,ninjyouuranagaya,0.2332327514886856,0
61,100,0.2,686,1,17,_tunecore_Remastered_Guitar,6,3,ninjyouuranagaya,0.27058276534080505,0
52,100,0.6181818181818182,831,0,17,_tunecore_Remastered_Guitar,6,10,ninjyouuranagaya,0.35793545842170715,0
52,100,0.32272727272727275,233,1,18,_tunecore_Remastered_Guitar,6,5,ninjyouuranagaya,0.9990280866622925,1
52,100,0.21818181818181817,316,0,18,_tunecore_Remastered_Guitar,6,3,ninjyouuranagaya,0.3703380823135376,0
52,100,0.1409090909090909,440,0,18,_tunecore_Remastered_Guitar,6,2,ninjyouuranagaya,0.45617958903312683,0
59,100,0.22272727272727272,69,1,19,_tunecore_Remastered_Guitar,6,4,ninjyouuranagaya,0.9988439083099365,1
57,100,0.21818181818181817,193,0,19,_tunecore_Remastered_Guitar,6,3,ninjyouuranagaya,0.1379818171262741,0
57,100,0.35909090909090907,382,0,19,_tunecore_Remastered_Guitar,6,6,ninjyouuranagaya,0.16236361861228943,0
57,100,0.6,470,0,19,_tunecore_Remastered_Guitar,6,10,ninjyouuranagaya,0.1910528987646103,0
61,100,0.2590909090909091,677,0,19,_tunecore_Remastered_Guitar,6,4,ninjyouuranagaya,0.2619646191596985,0
61,100,0.5,9,1,20,_tunecore_Remastered_Guitar,6,8,ninjyouuranagaya,0.9988439083099365,1
61,100,0.13636363636363635,150,0,20,_tunecore_Remastered_Guitar,6,2,ninjyouuranagaya,0.13798218965530396,0
52,100,0.6590909090909091,449,1,20,_tunecore_Remastered_Guitar,6,11,ninjyouuranagaya,0.16236218810081482,0
52,100,0.1409090909090909,814,1,20,_tunecore_Remastered_Guitar,6,2,ninjyouuranagaya,0.19105887413024902,0
52,100,0.42272727272727273,862,0,20,_tunecore_Remastered_Guitar,6,7,ninjyouuranagaya,0.2619762420654297,0
59,100,0.1,113,1,21,_tunecore_Remastered_Guitar,6,2,ninjyouuranagaya,0.9990094900131226,1
63,100,0.22272727272727272,584,1,21,_tunecore_Remastered_Guitar,6,4,ninjyouuranagaya,0.2332383543252945,0
57,100,0.5818181818181818,681,0,21,_tunecore_Remastered_Guitar,6,9,ninjyouuranagaya,0.2705904245376587,0
61,100,0.3181818181818182,831,0,21,_tunecore_Remastered_Guitar,6,5,ninjyouuranagaya,0.3579384982585907,0
57,100,0.32272727272727275,69,1,22,_tunecore_Remastered_Guitar,6,5,ninjyouuranagaya,0.9990280866622925,1
57,100,0.6818181818181818,144,0,22,_tunecore_Remastered_Guitar,6,11,ninjyouuranagaya,0.37034332752227783,0
61,100,0.2409090909090909,509,1,22,_tunecore_Remastered_Guitar,6,4,ninjyouuranagaya,0.45617032051086426,0
59,100,0.1409090909090909,110,1,23,_tunecore_Remastered_Guitar,6,2,ninjyouuranagaya,0.9988439083099365,1
63,100,0.13636363636363635,237,0,23,_tunecore_Remastered_Guitar,6,2,ninjyouuranagaya,0.137981578707695,0
59,100,0.2772727272727273,405,0,23,_tunecore_Remastered_Guitar,6,4,ninjyouuranagaya,0.16237224638462067,0
63,100,0.5181818181818182,546,0,23,_tunecore_Remastered_Guitar,6,8,ninjyouuranagaya,0.19105440378189087,0
59,100,0.11818181818181818,866,1,23,_tunecore_Remastered_Guitar,6,2,ninjyouuranagaya,0.2619727551937103,0
61,100,0.21818181818181817,480,1,24,_tunecore_Remastered_Guitar,6,3,ninjyouuranagaya,0.9990280866622925,1
57,100,0.22272727272727272,576,0,24,_tunecore_Remastered_Guitar,6,4,ninjyouuranagaya,0.37033790349960327,0
64,100,0.2,862,1,24,_tunecore_Remastered_Guitar,6,3,ninjyouuranagaya,0.45617562532424927,0
61,100,0.17727272727272728,52,1,25,_tunecore_Remastered_Guitar,6,3,ninjyouuranagaya,0.9983735084533691,1
64,100,0.4409090909090909,100,0,25,_tunecore_Remastered_Guitar,6,7,ninjyouuranagaya,0.051050685346126556,0
61,100,0.3,220,0,25,_tunecore_Remastered_Guitar,6,5,ninjyouuranagaya,0.0416124127805233,0
61,100,0.4,289,0,25,_tunecore_Remastered_Guitar,6,6,ninjyouuranagaya,0.0379796139895916,0
61,100,0.16363636363636364,488,0,25,_tunecore_Remastered_Guitar,6,3,ninjyouuranagaya,0.039260134100914,0
52,100,0.17727272727272728,633,0,25,_tunecore_Remastered_Guitar,6,3,ninjyouuranagaya,0.0461660698056221,0
52,100,0.1590909090909091,760,0,25,_tunecore_Remastered_Guitar,6,3,ninjyouuranagaya,0.05713222175836563,0
59,100,0.17727272727272728,801,0,25,_tunecore_Remastered_Guitar,6,3,ninjyouuranagaya,0.09187917411327362,0
52,100,0.1,34,1,26,_tunecore_Remastered_Guitar,6,2,ninjyouuranagaya,0.9990096092224121,1
63,100,0.2818181818181818,285,1,26,_tunecore_Remastered_Guitar,6,5,ninjyouuranagaya,0.23323477804660797,0
63,100,0.3409090909090909,694,1,26,_tunecore_Remastered_Guitar,6,5,ninjyouuranagaya,0.2705982029438019,0
57,100,0.21818181818181817,858,0,26,_tunecore_Remastered_Guitar,6,3,ninjyouuranagaya,0.35793307423591614,0
57,100,0.2,30,1,27,_tunecore_Remastered_Guitar,6,3,ninjyouuranagaya,0.9983004927635193,1
57,100,0.1590909090909091,79,0,27,_tunecore_Remastered_Guitar,6,3,ninjyouuranagaya,0.044662415981292725,0
57,100,0.1,127,0,27,_tunecore_Remastered_Guitar,6,2,ninjyouuranagaya,0.033371906727552414,0
57,100,0.4590909090909091,198,0,27,_tunecore_Remastered_Guitar,6,7,ninjyouuranagaya,0.026949424296617508,0
64,100,0.5181818181818182,461,1,27,_tunecore_Remastered_Guitar,6,8,ninjyouuranagaya,0.024084260687232018,0
64,100,0.2,598,0,27,_tunecore_Remastered_Guitar,6,3,ninjyouuranagaya,0.024973738938570023,0
64,100,0.11818181818181818,677,0,27,_tunecore_Remastered_Guitar,6,2,ninjyouuranagaya,0.030648745596408844,0
61,100,0.38181818181818183,704,0,27,_tunecore_Remastered_Guitar,6,6,ninjyouuranagaya,0.04137036204338074,0
61,100,0.38181818181818183,791,0,27,_tunecore_Remastered_Guitar,6,6,ninjyouuranagaya,0.07207166403532028,0
52,100,0.2,154,1,28,_tunecore_Remastered_Guitar,6,3,ninjyouuranagaya,0.9984879493713379,1
52,100,0.3,206,0,28,_tunecore_Remastered_Guitar,6,5,ninjyouuranagaya,0.06335406005382538,0
52,100,0.11818181818181818,281,0,28,_tunecore_Remastered_Guitar,6,2,ninjyouuranagaya,0.05828941613435745,0
52,100,0.5409090909090909,430,0,28,_tunecore_Remastered_Guitar,6,9,ninjyouuranagaya,0.06136287748813629,0
59,100,0.12272727272727273,553,0,28,_tunecore_Remastered_Guitar,6,2,ninjyouuranagaya,0.07168605178594589,0
59,100,0.11818181818181818,646,0,28,_tunecore_Remastered_Guitar,6,2,ninjyouuranagaya,0.08473742753267288,0
59,100,0.11818181818181818,835,0,28,_tunecore_Remastered_Guitar,6,2,ninjyouuranagaya,0.12635521590709686,0
59,100,0.1,210,1,29,_tunecore_Remastered_Guitar,6,2,ninjyouuranagaya,0.9990094900131226,1
52,100,0.7227272727272728,364,0,29,_tunecore_Remastered_Guitar,6,12,ninjyouuranagaya,0.23322296142578125,0
52,100,0.5818181818181818,576,0,29,_tunecore_Remastered_Guitar,6,9,ninjyouuranagaya,0.2705821692943573,0
52,100,0.2636363636363636,818,1,29,_tunecore_Remastered_Guitar,6,4,ninjyouuranagaya,0.35793033242225647,0
64,100,0.23636363636363636,281,1,30,_tunecore_Remastered_Guitar,6,4,ninjyouuranagaya,0.9990280866622925,1
61,100,0.37727272727272726,515,1,30,_tunecore_Remastered_Guitar,6,6,ninjyouuranagaya,0.37033677101135254,0
61,100,0.1,822,1,30,_tunecore_Remastered_Guitar,6,2,ninjyouuranagaya,0.4561641216278076,0
71,100,0.11818181818181818,30,1,31,_tunecore_Remastered_Guitar,6,2,ninjyouuranagaya,0.9983735084533691,1
52,100,0.22272727272727272,179,0,31,_tunecore_Remastered_Guitar,6,4,ninjyouuranagaya,0.05104970932006836,0
52,100,0.1590909090909091,260,0,31,_tunecore_Remastered_Guitar,6,3,ninjyouuranagaya,0.04161231964826584,0
59,100,0.12272727272727273,453,0,31,_tunecore_Remastered_Guitar,6,2,ninjyouuranagaya,0.037980817258358,0
63,100,0.2590909090909091,646,0,31,_tunecore_Remastered_Guitar,6,4,ninjyouuranagaya,0.03926006332039833,0
54,100,0.12272727272727273,739,0,31,_tunecore_Remastered_Guitar,6,2,ninjyouuranagaya,0.04616880044341087,0
59,100,0.16363636363636364,818,0,31,_tunecore_Remastered_Guitar,6,3,ninjyouuranagaya,0.05713355541229248,0
52,100,0.8409090909090909,862,0,31,_tunecore_Remastered_Guitar,6,13,ninjyouuranagaya,0.09188428521156311,0
68,100,0.13636363636363635,281,1,32,_tunecore_Remastered_Guitar,6,2,ninjyouuranagaya,0.9990094900131226,1
59,100,0.16363636363636364,421,0,32,_tunecore_Remastered_Guitar,6,3,ninjyouuranagaya,0.23322689533233643,0
59,100,0.11818181818181818,506,0,32,_tunecore_Remastered_Guitar,6,2,ninjyouuranagaya,0.2705736756324768,0
64,100,0.2,778,1,32,_tunecore_Remastered_Guitar,6,3,ninjyouuranagaya,0.3579222559928894,0
61,100,0.4772727272727273,105,1,33,_tunecore_Remastered_Guitar,6,8,ninjyouuranagaya,0.9986506104469299,1
64,100,0.1590909090909091,211,0,33,_tunecore_Remastered_Guitar,6,3,ninjyouuranagaya,0.08798089623451233,0
64,100,0.3409090909090909,268,0,33,_tunecore_Remastered_Guitar,6,5,ninjyouuranagaya,0.09298910945653915,0
61,100,0.1409090909090909,351,0,33,_tunecore_Remastered_Guitar,6,2,ninjyouuranagaya,0.1099540963768959,0
68,100,0.17727272727272728,448,0,33,_tunecore_Remastered_Guitar,6,3,ninjyouuranagaya,0.1286815106868744,0
68,100,0.5,509,0,33,_tunecore_Remastered_Guitar,6,8,ninjyouuranagaya,0.1822269856929779,0
52,100,0.6590909090909091,461,1,34,_tunecore_Remastered_Guitar,6,11,ninjyouuranagaya,0.9792242646217346,1
61,100,0.12272727272727273,364,1,35,_tunecore_Remastered_Guitar,6,2,ninjyouuranagaya,0.9988439083099365,1
64,100,0.16363636363636364,399,0,35,_tunecore_Remastered_Guitar,6,3,ninjyouuranagaya,0.1379825472831726,0
64,100,0.1409090909090909,474,0,35,_tunecore_Remastered_Guitar,6,2,ninjyouuranagaya,0.1623626947402954,0
61,100,0.2,641,0,35,_tunecore_Remastered_Guitar,6,3,ninjyouuranagaya,0.19105373322963715,0
52,100,0.2590909090909091,866,0,35,_tunecore_Remastered_Guitar,6,4,ninjyouuranagaya,0.2619751989841461,0
52,100,0.5227272727272727,268,1,36,_tunecore_Remastered_Guitar,6,8,ninjyouuranagaya,0.9990280866622925,1
59,100,0.1590909090909091,545,1,36,_tunecore_Remastered_Guitar,6,3,ninjyouuranagaya,0.37033534049987793,0
59,100,0.32272727272727275,606,0,36,_tunecore_Remastered_Guitar,6,5,ninjyouuranagaya,0.4561689794063568,0
52,100,0.6181818181818182,75,1,37,_tunecore_Remastered_Guitar,6,10,ninjyouuranagaya,0.9990280866622925,1
61,100,0.1409090909090909,708,1,37,_tunecore_Remastered_Guitar,6,2,ninjyouuranagaya,0.3703371584415436,0
61,100,0.2590909090909091,791,0,37,_tunecore_Remastered_Guitar,6,4,ninjyouuranagaya,0.4561648964881897,0
64,100,0.1409090909090909,0,1,38,_tunecore_Remastered_Guitar,6,2,ninjyouuranagaya,0.9983004927635193,1
61,100,0.18181818181818182,56,0,38,_tunecore_Remastered_Guitar,6,3,ninjyouuranagaya,0.04466189444065094,0
64,100,0.12272727272727273,123,0,38,_tunecore_Remastered_Guitar,6,2,ninjyouuranagaya,0.03337191790342331,0
61,100,0.3,215,0,38,_tunecore_Remastered_Guitar,6,5,ninjyouuranagaya,0.02694820426404476,0
64,100,0.17727272727272728,281,0,38,_tunecore_Remastered_Guitar,6,3,ninjyouuranagaya,0.02408510632812977,0
57,100,0.3,330,0,38,_tunecore_Remastered_Guitar,6,5,ninjyouuranagaya,0.024973822757601738,0
57,100,0.1,471,0,38,_tunecore_Remastered_Guitar,6,2,ninjyouuranagaya,0.03064952790737152,0
61,100,0.23636363636363636,765,1,38,_tunecore_Remastered_Guitar,6,4,ninjyouuranagaya,0.04137082025408745,0
52,100,0.17727272727272728,831,0,38,_tunecore_Remastered_Guitar,6,3,ninjyouuranagaya,0.07207287102937698,0
59,100,0.5818181818181818,136,1,39,_tunecore_Remastered_Guitar,6,9,ninjyouuranagaya,0.9984879493713379,1
59,100,0.13636363636363635,281,0,39,_tunecore_Remastered_Guitar,6,2,ninjyouuranagaya,0.06335467100143433,0
63,100,0.1590909090909091,321,0,39,_tunecore_Remastered_Guitar,6,3,ninjyouuranagaya,0.058290090411901474,0
57,100,0.17727272727272728,700,1,39,_tunecore_Remastered_Guitar,6,3,ninjyouuranagaya,0.06136487424373627,0
57,100,0.12272727272727273,751,0,39,_tunecore_Remastered_Guitar,6,2,ninjyouuranagaya,0.07168672233819962,0
52,100,0.2409090909090909,778,0,39,_tunecore_Remastered_Guitar,6,4,ninjyouuranagaya,0.08474186062812805,0
64,100,0.6818181818181818,839,0,39,_tunecore_Remastered_Guitar,6,11,ninjyouuranagaya,0.126356840133667,0
52,100,0.11818181818181818,150,1,40,_tunecore_Remastered_Guitar,6,2,ninjyouuranagaya,0.9984879493713379,1
64,100,0.9,188,0,40,_tunecore_Remastered_Guitar,6,14,ninjyouuranagaya,0.06335233896970749,0
61,100,0.11818181818181818,391,0,40,_tunecore_Remastered_Guitar,6,2,ninjyouuranagaya,0.05828894302248955,0
61,100,0.3,431,0,40,_tunecore_Remastered_Guitar,6,5,ninjyouuranagaya,0.06136161461472511,0
61,100,0.5227272727272727,541,0,40,_tunecore_Remastered_Guitar,6,8,ninjyouuranagaya,0.07168243825435638,0
61,100,0.5772727272727273,668,0,40,_tunecore_Remastered_Guitar,6,9,ninjyouuranagaya,0.08473449945449829,0
52,100,0.7,801,0,40,_tunecore_Remastered_Guitar,6,11,ninjyouuranagaya,0.12635491788387299,0
64,100,0.6227272727272727,201,1,41,_tunecore_Remastered_Guitar,6,10,ninjyouuranagaya,0.9990094900131226,1
64,100,0.13636363636363635,458,1,41,_tunecore_Remastered_Guitar,6,2,ninjyouuranagaya,0.2332337647676468,0
63,100,1.040909090909091,628,0,41,_tunecore_Remastered_Guitar,6,15,ninjyouuranagaya,0.27057626843452454,0
64,100,0.1590909090909091,858,0,41,_tunecore_Remastered_Guitar,6,3,ninjyouuranagaya,0.3579358756542206,0
59,100,0.2409090909090909,26,1,42,_tunecore_Remastered_Guitar,6,4,ninjyouuranagaya,0.9990094900131226,1
59,100,0.4818181818181818,91,0,42,_tunecore_Remastered_Guitar,6,8,ninjyouuranagaya,0.23322482407093048,0
61,100,0.2,370,1,42,_tunecore_Remastered_Guitar,6,3,ninjyouuranagaya,0.2705792486667633,0
64,100,0.32272727272727275,796,1,42,_tunecore_Remastered_Guitar,6,5,ninjyouuranagaya,0.35792845487594604,0
66,100,0.37727272727272726,413,1,43,_tunecore_Remastered_Guitar,6,6,ninjyouuranagaya,0.9990094900131226,1
68,100,0.4590909090909091,584,0,43,_tunecore_Remastered_Guitar,6,7,ninjyouuranagaya,0.2332264631986618,0
59,100,0.1,801,0,43,_tunecore_Remastered_Guitar,6,2,ninjyouuranagaya,0.270579993724823,0
52,100,0.6181818181818182,836,0,43,_tunecore_Remastered_Guitar,6,10,ninjyouuranagaya,0.35792815685272217,0
59,100,0.3,171,1,44,_tunecore_Remastered_Guitar,6,5,ninjyouuranagaya,0.9988439083099365,1
61,100,0.5590909090909091,241,0,44,_tunecore_Remastered_Guitar,6,9,ninjyouuranagaya,0.13798263669013977,0
64,100,0.4818181818181818,373,0,44,_tunecore_Remastered_Guitar,6,8,ninjyouuranagaya,0.1623678058385849,0
66,100,0.4818181818181818,509,0,44,_tunecore_Remastered_Guitar,6,8,ninjyouuranagaya,0.19105969369411469,0
66,100,0.9636363636363636,664,0,44,_tunecore_Remastered_Guitar,6,15,ninjyouuranagaya,0.2619697153568268,0
64,100,0.4772727272727273,185,1,45,_tunecore_Remastered_Guitar,6,8,ninjyouuranagaya,0.9983735084533691,1
61,100,0.17727272727272728,295,0,45,_tunecore_Remastered_Guitar,6,3,ninjyouuranagaya,0.051049184054136276,0
59,100,0.16363636363636364,334,0,45,_tunecore_Remastered_Guitar,6,3,ninjyouuranagaya,0.041612207889556885,0
59,100,0.1409090909090909,373,0,45,_tunecore_Remastered_Guitar,6,2,ninjyouuranagaya,0.03797989711165428,0
59,100,1.2818181818181817,418,0,45,_tunecore_Remastered_Guitar,6,15,ninjyouuranagaya,0.03925848379731178,0
64,100,0.2590909090909091,700,1,45,_tunecore_Remastered_Guitar,6,4,ninjyouuranagaya,0.046165596693754196,0
61,100,0.23636363636363636,765,0,45,_tunecore_Remastered_Guitar,6,4,ninjyouuranagaya,0.05713026598095894,0
64,100,0.2590909090909091,836,0,45,_tunecore_Remastered_Guitar,6,4,ninjyouuranagaya,0.09188183397054672,0
59,100,0.3181818181818182,370,1,46,_tunecore_Remastered_Guitar,6,5,ninjyouuranagaya,0.9990094900131226,1
61,100,0.3,440,0,46,_tunecore_Remastered_Guitar,6,5,ninjyouuranagaya,0.23323586583137512,0
64,100,0.21818181818181817,528,0,46,_tunecore_Remastered_Guitar,6,3,ninjyouuranagaya,0.270592600107193,0
61,100,0.42272727272727273,716,0,46,_tunecore_Remastered_Guitar,6,7,ninjyouuranagaya,0.35793209075927734,0
68,100,0.18181818181818182,4,1,47,_tunecore_Remastered_Guitar,6,3,ninjyouuranagaya,0.9986506104469299,1
66,100,0.2590909090909091,56,0,47,_tunecore_Remastered_Guitar,6,4,ninjyouuranagaya,0.0879824087023735,0
64,100,0.7772727272727272,141,0,47,_tunecore_Remastered_Guitar,6,12,ninjyouuranagaya,0.09298752248287201,0
66,100,1.6,316,0,47,_tunecore_Remastered_Guitar,6,15,ninjyouuranagaya,0.10995010286569595,0
64,100,0.6409090909090909,673,1,47,_tunecore_Remastered_Guitar,6,10,ninjyouuranagaya,0.12867793440818787,0
63,100,0.22272727272727272,839,0,47,_tunecore_Remastered_Guitar,6,4,ninjyouuranagaya,0.18221831321716309,0
64,100,1.9,75,1,48,_tunecore_Remastered_Guitar,6,15,ninjyouuranagaya,0.9983231425285339,1
52,100,0.740909090909091,493,1,48,_tunecore_Remastered_Guitar,6,12,ninjyouuranagaya,0.5462214350700378,1
52,100,0.21818181818181817,96,1,49,_tunecore_Remastered_Guitar,6,3,ninjyouuranagaya,0.9990094900131226,1
61,100,0.1590909090909091,351,1,49,_tunecore_Remastered_Guitar,6,3,ninjyouuranagaya,0.23322804272174835,0
61,100,0.11818181818181818,506,0,49,_tunecore_Remastered_Guitar,6,2,ninjyouuranagaya,0.2705811560153961,0
61,100,0.5227272727272727,598,0,49,_tunecore_Remastered_Guitar,6,8,ninjyouuranagaya,0.3579280376434326,0
64,100,0.2,185,1,50,_tunecore_Remastered_Guitar,6,3,ninjyouuranagaya,0.9990094900131226,1
52,100,0.13636363636363635,348,0,50,_tunecore_Remastered_Guitar,6,2,ninjyouuranagaya,0.233229860663414,0
59,100,0.1,421,0,50,_tunecore_Remastered_Guitar,6,2,ninjyouuranagaya,0.27058348059654236,0
59,100,0.11818181818181818,558,0,50,_tunecore_Remastered_Guitar,6,2,ninjyouuranagaya,0.3579300343990326,0
52,100,0.740909090909091,110,1,51,_tunecore_Remastered_Guitar,6,12,ninjyouuranagaya,0.9983231425285339,1
52,100,0.2772727272727273,458,1,51,_tunecore_Remastered_Guitar,6,4,ninjyouuranagaya,0.5462169647216797,1
61,100,0.41818181818181815,198,1,52,_tunecore_Remastered_Guitar,6,7,ninjyouuranagaya,0.9988439083099365,1
57,100,0.33636363636363636,370,0,52,_tunecore_Remastered_Guitar,6,5,ninjyouuranagaya,0.13798461854457855,0
52,100,0.1590909090909091,448,0,52,_tunecore_Remastered_Guitar,6,3,ninjyouuranagaya,0.16237056255340576,0
52,100,0.21818181818181817,581,0,52,_tunecore_Remastered_Guitar,6,3,ninjyouuranagaya,0.19106484949588776,0
59,100,0.2,651,0,52,_tunecore_Remastered_Guitar,6,3,ninjyouuranagaya,0.261977881193161,0
59,100,0.1409090909090909,176,1,53,_tunecore_Remastered_Guitar,6,2,ninjyouuranagaya,0.9990094900131226,1
59,100,0.35909090909090907,238,0,53,_tunecore_Remastered_Guitar,6,6,ninjyouuranagaya,0.233226478099823,0
59,100,0.16363636363636364,554,1,53,_tunecore_Remastered_Guitar,6,3,ninjyouuranagaya,0.27058008313179016,0
52,100,0.3,818,1,53,_tunecore_Remastered_Guitar,6,5,ninjyouuranagaya,0.3579341173171997,0
52,100,0.2,88,1,54,_tunecore_Remastered_Guitar,6,3,ninjyouuranagaya,0.9988439083099365,1
61,100,0.17727272727272728,141,0,54,_tunecore_Remastered_Guitar,6,3,ninjyouuranagaya,0.1379791647195816,0
52,100,0.22272727272727272,201,0,54,_tunecore_Remastered_Guitar,6,4,ninjyouuranagaya,0.16236896812915802,0
54,100,0.4,276,0,54,_tunecore_Remastered_Guitar,6,6,ninjyouuranagaya,0.19105938076972961,0
54,100,0.2409090909090909,761,1,54,_tunecore_Remastered_Guitar,6,4,ninjyouuranagaya,0.26196858286857605,0
52,100,0.12272727272727273,56,1,55,_tunecore_Remastered_Guitar,6,2,ninjyouuranagaya,0.9983231425285339,1
57,100,0.1409090909090909,628,1,55,_tunecore_Remastered_Guitar,6,2,ninjyouuranagaya,0.5462149381637573,1
54,100,0.2,158,1,56,_tunecore_Remastered_Guitar,6,3,ninjyouuranagaya,0.9792248606681824,1
57,100,0.3,593,1,57,_tunecore_Remastered_Guitar,6,5,ninjyouuranagaya,0.9983231425285339,1
54,100,0.23636363636363636,875,1,57,_tunecore_Remastered_Guitar,6,4,ninjyouuranagaya,0.5462201833724976,1
61,100,0.4590909090909091,823,1,58,_tunecore_Remastered_Guitar,6,7,ninjyouuranagaya,0.9792237281799316,1
68,100,0.1409090909090909,118,1,59,_tunecore_Remastered_Guitar,6,2,ninjyouuranagaya,0.9983735084533691,1
66,100,0.21818181818181817,171,0,59,_tunecore_Remastered_Guitar,6,3,ninjyouuranagaya,0.05105169117450714,0
64,100,0.23636363636363636,238,0,59,_tunecore_Remastered_Guitar,6,4,ninjyouuranagaya,0.041612908244132996,0
66,100,0.3,303,0,59,_tunecore_Remastered_Guitar,6,5,ninjyouuranagaya,0.03797987848520279,0
64,100,0.32272727272727275,444,0,59,_tunecore_Remastered_Guitar,6,5,ninjyouuranagaya,0.039261285215616226,0
59,100,0.1409090909090909,681,1,59,_tunecore_Remastered_Guitar,6,2,ninjyouuranagaya,0.04616705700755119,0
63,100,0.12272727272727273,804,0,59,_tunecore_Remastered_Guitar,6,2,ninjyouuranagaya,0.05713370814919472,0
63,100,0.1,861,0,59,_tunecore_Remastered_Guitar,6,2,ninjyouuranagaya,0.09188632667064667,0
57,100,0.1409090909090909,48,1,60,_tunecore_Remastered_Guitar,6,2,ninjyouuranagaya,0.9990280866622925,1
56,100,0.12272727272727273,606,1,60,_tunecore_Remastered_Guitar,6,2,ninjyouuranagaya,0.37035298347473145,0
63,100,0.11818181818181818,831,0,60,_tunecore_Remastered_Guitar,6,2,ninjyouuranagaya,0.45617592334747314,0
57,100,0.12272727272727273,224,1,61,_tunecore_Remastered_Guitar,6,2,ninjyouuranagaya,0.9988439083099365,1
66,100,0.13636363636363635,413,0,61,_tunecore_Remastered_Guitar,6,2,ninjyouuranagaya,0.13798685371875763,0
66,100,0.2,756,1,61,_tunecore_Remastered_Guitar,6,3,ninjyouuranagaya,0.16237130761146545,0
66,100,0.1,826,0,61,_tunecore_Remastered_Guitar,6,2,ninjyouuranagaya,0.1910620778799057,0
63,100,0.1409090909090909,858,0,61,_tunecore_Remastered_Guitar,6,2,ninjyouuranagaya,0.2619677484035492,0
63,100,0.9590909090909091,13,1,62,_tunecore_Remastered_Guitar,6,15,ninjyouuranagaya,0.9990280866622925,1
63,100,0.1,386,1,62,_tunecore_Remastered_Guitar,6,2,ninjyouuranagaya,0.37034815549850464,0
63,100,0.3,448,0,62,_tunecore_Remastered_Guitar,6,5,ninjyouuranagaya,0.45618101954460144,0
61,100,0.12272727272727273,13,1,63,_tunecore_Remastered_Guitar,6,2,ninjyouuranagaya,0.9988439083099365,1
54,100,0.9,325,1,63,_tunecore_Remastered_Guitar,6,14,ninjyouuranagaya,0.13798148930072784,0
54,100,0.32272727272727275,554,0,63,_tunecore_Remastered_Guitar,6,5,ninjyouuranagaya,0.16236667335033417,0
56,100,0.22272727272727272,641,0,63,_tunecore_Remastered_Guitar,6,4,ninjyouuranagaya,0.19105373322963715,0
54,100,0.18181818181818182,726,0,63,_tunecore_Remastered_Guitar,6,3,ninjyouuranagaya,0.26196593046188354,0
59,100,0.1590909090909091,832,1,64,_tunecore_Remastered_Guitar,6,3,ninjyouuranagaya,0.9792240262031555,1
64,100,0.35909090909090907,475,1,65,_tunecore_Remastered_Guitar,6,6,ninjyouuranagaya,0.9983232617378235,1
52,100,0.38181818181818183,572,0,65,_tunecore_Remastered_Guitar,6,6,ninjyouuranagaya,0.546215832233429,1
59,100,0.5772727272727273,119,1,66,_tunecore_Remastered_Guitar,6,9,ninjyouuranagaya,0.9990094900131226,1
54,100,0.2772727272727273,260,0,66,_tunecore_Remastered_Guitar,6,4,ninjyouuranagaya,0.2332245111465454,0
61,100,0.18181818181818182,532,1,66,_tunecore_Remastered_Guitar,6,3,ninjyouuranagaya,0.27057141065597534,0
52,100,0.21818181818181817,836,1,66,_tunecore_Remastered_Guitar,6,3,ninjyouuranagaya,0.35792431235313416,0
61,100,0.2409090909090909,220,1,67,_tunecore_Remastered_Guitar,6,4,ninjyouuranagaya,0.9983231425285339,1
68,100,0.1,593,1,67,_tunecore_Remastered_Guitar,6,2,ninjyouuranagaya,0.5462133288383484,1
56,100,0.1409090909090909,43,1,68,_tunecore_Remastered_Guitar,6,2,ninjyouuranagaya,0.9990280866622925,1
61,100,0.4409090909090909,316,1,68,_tunecore_Remastered_Guitar,6,7,ninjyouuranagaya,0.3703327476978302,0
59,100,0.18181818181818182,796,1,68,_tunecore_Remastered_Guitar,6,3,ninjyouuranagaya,0.4561695158481598,0
52,100,0.21818181818181817,74,1,69,_tunecore_Remastered_Guitar,6,3,ninjyouuranagaya,0.9990280866622925,1
52,100,0.3,197,0,69,_tunecore_Remastered_Guitar,6,5,ninjyouuranagaya,0.37033557891845703,0
52,100,0.4,426,0,69,_tunecore_Remastered_Guitar,6,6,ninjyouuranagaya,0.4561745226383209,0
56,100,0.3409090909090909,13,1,70,_tunecore_Remastered_Guitar,6,5,ninjyouuranagaya,0.9984879493713379,1
52,100,0.12272727272727273,267,1,70,_tunecore_Remastered_Guitar,6,2,ninjyouuranagaya,0.06335420161485672,0
52,100,0.18181818181818182,333,0,70,_tunecore_Remastered_Guitar,6,3,ninjyouuranagaya,0.058289382606744766,0
52,100,0.3409090909090909,443,0,70,_tunecore_Remastered_Guitar,6,5,ninjyouuranagaya,0.06136387586593628,0
52,100,0.17727272727272728,559,0,70,_tunecore_Remastered_Guitar,6,3,ninjyouuranagaya,0.0716821476817131,0
52,100,0.1409090909090909,713,0,70,_tunecore_Remastered_Guitar,6,2,ninjyouuranagaya,0.08473943918943405,0
52,100,0.18181818181818182,760,0,70,_tunecore_Remastered_Guitar,6,3,ninjyouuranagaya,0.1263544261455536,0
63,100,0.1409090909090909,396,1,71,_tunecore_Remastered_Guitar,6,2,ninjyouuranagaya,0.9990280866622925,1
57,100,0.12272727272727273,576,0,71,_tunecore_Remastered_Guitar,6,2,ninjyouuranagaya,0.3703421354293823,0
52,100,0.21818181818181817,703,0,71,_tunecore_Remastered_Guitar,6,3,ninjyouuranagaya,0.45617255568504333,0
52,100,0.4409090909090909,53,1,72,_tunecore_Remastered_Guitar,6,7,ninjyouuranagaya,0.9983232617378235,1
57,100,0.21818181818181817,747,1,72,_tunecore_Remastered_Guitar,6,3,ninjyouuranagaya,0.5462169647216797,1
59,100,0.12272727272727273,686,1,73,_tunecore_Remastered_Guitar,6,2,ninjyouuranagaya,0.9983232617378235,1
59,100,0.4,743,0,73,_tunecore_Remastered_Guitar,6,6,ninjyouuranagaya,0.5462204813957214,1
57,100,0.1,179,1,74,_tunecore_Remastered_Guitar,6,2,ninjyouuranagaya,0.9990280866622925,1
59,100,0.2409090909090909,383,0,74,_tunecore_Remastered_Guitar,6,4,ninjyouuranagaya,0.37034332752227783,0
57,100,0.37727272727272726,523,0,74,_tunecore_Remastered_Guitar,6,6,ninjyouuranagaya,0.4561709463596344,0
57,100,0.11818181818181818,127,1,75,_tunecore_Remastered_Guitar,6,2,ninjyouuranagaya,0.9990094900131226,1
59,100,0.12272727272727273,532,1,75,_tunecore_Remastered_Guitar,6,2,ninjyouuranagaya,0.2332313060760498,0
54,100,0.4,606,0,75,_tunecore_Remastered_Guitar,6,6,ninjyouuranagaya,0.2705797255039215,0
52,100,0.3,810,0,75,_tunecore_Remastered_Guitar,6,5,ninjyouuranagaya,0.357928603887558,0
59,100,0.4,53,1,76,_tunecore_Remastered_Guitar,6,6,ninjyouuranagaya,0.9988439083099365,1
59,100,0.7363636363636363,172,0,76,_tunecore_Remastered_Guitar,6,12,ninjyouuranagaya,0.13798044621944427,0
59,100,0.2409090909090909,360,0,76,_tunecore_Remastered_Guitar,6,4,ninjyouuranagaya,0.16235916316509247,0
59,100,0.41818181818181815,426,0,76,_tunecore_Remastered_Guitar,6,7,ninjyouuranagaya,0.19105474650859833,0
52,100,0.18181818181818182,682,1,76,_tunecore_Remastered_Guitar,6,3,ninjyouuranagaya,0.26196569204330444,0
52,100,0.2409090909090909,53,1,77,_tunecore_Remastered_Guitar,6,4,ninjyouuranagaya,0.9982556700706482,1
52,100,0.17727272727272728,119,0,77,_tunecore_Remastered_Guitar,6,3,ninjyouuranagaya,0.04129274934530258,0
52,100,0.37727272727272726,163,0,77,_tunecore_Remastered_Guitar,6,6,ninjyouuranagaya,0.029125062748789787,0
64,100,0.1409090909090909,299,0,77,_tunecore_Remastered_Guitar,6,2,ninjyouuranagaya,0.021569738164544106,0
64,100,0.3181818181818182,370,0,77,_tunecore_Remastered_Guitar,6,5,ninjyouuranagaya,0.017059767618775368,0
61,100,0.1590909090909091,462,0,77,_tunecore_Remastered_Guitar,6,3,ninjyouuranagaya,0.015268497169017792,0
64,100,0.11818181818181818,502,0,77,_tunecore_Remastered_Guitar,6,2,ninjyouuranagaya,0.016456501558423042,0
61,100,0.35909090909090907,673,0,77,_tunecore_Remastered_Guitar,6,6,ninjyouuranagaya,0.021837452426552773,0
52,100,0.1409090909090909,770,0,77,_tunecore_Remastered_Guitar,6,2,ninjyouuranagaya,0.03251926600933075,0
52,100,0.12272727272727273,849,0,77,_tunecore_Remastered_Guitar,6,2,ninjyouuranagaya,0.060913149267435074,0
52,100,0.38181818181818183,145,1,78,_tunecore_Remastered_Guitar,6,6,ninjyouuranagaya,0.9983231425285339,1
54,100,0.5818181818181818,783,1,78,_tunecore_Remastered_Guitar,6,9,ninjyouuranagaya,0.5462143421173096,1
52,100,0.2590909090909091,282,1,79,_tunecore_Remastered_Guitar,6,4,ninjyouuranagaya,0.9990280866622925,1
52,100,0.2636363636363636,377,0,79,_tunecore_Remastered_Guitar,6,4,ninjyouuranagaya,0.37034139037132263,0
52,100,0.2,700,1,79,_tunecore_Remastered_Guitar,6,3,ninjyouuranagaya,0.45617353916168213,0
52,100,0.2636363636363636,289,1,80,_tunecore_Remastered_Guitar,6,4,ninjyouuranagaya,0.9988439083099365,1
52,100,0.17727272727272728,567,1,80,_tunecore_Remastered_Guitar,6,3,ninjyouuranagaya,0.13798220455646515,0
52,100,0.22272727272727272,650,0,80,_tunecore_Remastered_Guitar,6,4,ninjyouuranagaya,0.16236406564712524,0
52,100,0.1,716,0,80,_tunecore_Remastered_Guitar,6,2,ninjyouuranagaya,0.19105802476406097,0
52,100,0.17727272727272728,832,0,80,_tunecore_Remastered_Guitar,6,3,ninjyouuranagaya,0.26197823882102966,0
54,100,0.18181818181818182,386,1,81,_tunecore_Remastered_Guitar,6,3,ninjyouuranagaya,0.9990094900131226,1
59,100,0.18181818181818182,430,0,81,_tunecore_Remastered_Guitar,6,3,ninjyouuranagaya,0.23322829604148865,0
52,100,0.1590909090909091,673,1,81,_tunecore_Remastered_Guitar,6,3,ninjyouuranagaya,0.27058109641075134,0
52,100,0.3,739,0,81,_tunecore_Remastered_Guitar,6,5,ninjyouuranagaya,0.3579369783401489,0
52,100,0.22272727272727272,3,1,82,_tunecore_Remastered_Guitar,6,4,ninjyouuranagaya,0.9990280866622925,1
52,100,0.33636363636363636,127,0,82,_tunecore_Remastered_Guitar,6,5,ninjyouuranagaya,0.3703470528125763,0
56,100,0.2590909090909091,229,0,82,_tunecore_Remastered_Guitar,6,4,ninjyouuranagaya,0.45616668462753296,0
52,100,0.21818181818181817,307,1,83,_tunecore_Remastered_Guitar,6,3,ninjyouuranagaya,0.9990094900131226,1
52,100,0.4,392,0,83,_tunecore_Remastered_Guitar,6,6,ninjyouuranagaya,0.23322689533233643,0
52,100,0.1590909090909091,483,0,83,_tunecore_Remastered_Guitar,6,3,ninjyouuranagaya,0.27058663964271545,0
54,100,0.5590909090909091,590,0,83,_tunecore_Remastered_Guitar,6,9,ninjyouuranagaya,0.3579290807247162,0
54,100,0.32272727272727275,145,1,84,_tunecore_Remastered_Guitar,6,5,ninjyouuranagaya,0.9990094900131226,1
52,100,0.12272727272727273,343,0,84,_tunecore_Remastered_Guitar,6,2,ninjyouuranagaya,0.23322713375091553,0
52,100,0.3409090909090909,470,0,84,_tunecore_Remastered_Guitar,6,5,ninjyouuranagaya,0.27057909965515137,0
52,100,0.4818181818181818,707,1,84,_tunecore_Remastered_Guitar,6,8,ninjyouuranagaya,0.35792842507362366,0
61,100,0.12272727272727273,157,1,85,_tunecore_Remastered_Guitar,6,2,ninjyouuranagaya,0.9792232513427734,1
54,100,0.1409090909090909,189,1,86,_tunecore_Remastered_Guitar,6,2,ninjyouuranagaya,0.9990094900131226,1
63,100,0.35909090909090907,373,0,86,_tunecore_Remastered_Guitar,6,6,ninjyouuranagaya,0.23322175443172455,0
59,100,0.1,663,1,86,_tunecore_Remastered_Guitar,6,2,ninjyouuranagaya,0.2705763280391693,0
52,100,0.17727272727272728,787,0,86,_tunecore_Remastered_Guitar,6,3,ninjyouuranagaya,0.35792621970176697,0
57,100,0.5409090909090909,210,1,87,_tunecore_Remastered_Guitar,6,9,ninjyouuranagaya,0.9983232617378235,1
52,100,0.1590909090909091,383,0,87,_tunecore_Remastered_Guitar,6,3,ninjyouuranagaya,0.5462177991867065,1
52,100,0.3181818181818182,30,1,88,_tunecore_Remastered_Guitar,6,5,ninjyouuranagaya,0.9983231425285339,1
59,100,0.2590909090909091,857,1,88,_tunecore_Remastered_Guitar,6,4,ninjyouuranagaya,0.5462169051170349,1
59,100,0.1409090909090909,176,1,89,_tunecore_Remastered_Guitar,6,2,ninjyouuranagaya,0.9990094900131226,1
52,100,1.0,352,0,89,_tunecore_Remastered_Guitar,6,15,ninjyouuranagaya,0.23322808742523193,0
64,100,0.11818181818181818,800,1,89,_tunecore_Remastered_Guitar,6,2,ninjyouuranagaya,0.27058976888656616,0
64,100,0.21818181818181817,832,0,89,_tunecore_Remastered_Guitar,6,3,ninjyouuranagaya,0.35794469714164734,0
64,100,0.4,480,1,90,_tunecore_Remastered_Guitar,6,6,ninjyouuranagaya,0.9990094900131226,1
59,100,0.1590909090909091,603,0,90,_tunecore_Remastered_Guitar,6,3,ninjyouuranagaya,0.2332281917333603,0
52,100,0.7227272727272728,673,0,90,_tunecore_Remastered_Guitar,6,12,ninjyouuranagaya,0.2705807685852051,0
59,100,0.22272727272727272,862,0,90,_tunecore_Remastered_Guitar,6,4,ninjyouuranagaya,0.3579343259334564,0
59,100,0.12272727272727273,35,1,91,_tunecore_Remastered_Guitar,6,2,ninjyouuranagaya,0.9988439083099365,1
59,100,0.6,113,0,91,_tunecore_Remastered_Guitar,6,10,ninjyouuranagaya,0.13798081874847412,0
54,100,0.12272727272727273,289,0,91,_tunecore_Remastered_Guitar,6,2,ninjyouuranagaya,0.16236194968223572,0
59,100,0.1590909090909091,787,1,91,_tunecore_Remastered_Guitar,6,3,ninjyouuranagaya,0.19105710089206696,0
52,100,0.21818181818181817,844,0,91,_tunecore_Remastered_Guitar,6,3,ninjyouuranagaya,0.2619650363922119,0
59,100,0.4,22,1,92,_tunecore_Remastered_Guitar,6,6,ninjyouuranagaya,0.9990094900131226,1
52,100,0.2,250,0,92,_tunecore_Remastered_Guitar,6,3,ninjyouuranagaya,0.23323000967502594,0
52,100,0.3409090909090909,386,0,92,_tunecore_Remastered_Guitar,6,5,ninjyouuranagaya,0.2705807089805603,0
52,100,0.35909090909090907,480,0,92,_tunecore_Remastered_Guitar,6,6,ninjyouuranagaya,0.3579338788986206,0
52,100,0.2,74,1,93,_tunecore_Remastered_Guitar,6,3,ninjyouuranagaya,0.9986506104469299,1
52,100,1.1181818181818182,193,0,93,_tunecore_Remastered_Guitar,6,15,ninjyouuranagaya,0.0879783108830452,0
52,100,0.21818181818181817,493,1,93,_tunecore_Remastered_Guitar,6,3,ninjyouuranagaya,0.09298557043075562,0
52,100,0.1,646,0,93,_tunecore_Remastered_Guitar,6,2,ninjyouuranagaya,0.10995004326105118,0
54,100,0.11818181818181818,779,0,93,_tunecore_Remastered_Guitar,6,2,ninjyouuranagaya,0.1286763846874237,0
54,100,0.11818181818181818,823,0,93,_tunecore_Remastered_Guitar,6,2,ninjyouuranagaya,0.1822277158498764,0
54,100,0.11818181818181818,330,1,94,_tunecore_Remastered_Guitar,6,2,ninjyouuranagaya,0.9990280866622925,1
52,100,0.2,462,0,94,_tunecore_Remastered_Guitar,6,3,ninjyouuranagaya,0.37033504247665405,0
52,100,0.1590909090909091,739,1,94,_tunecore_Remastered_Guitar,6,3,ninjyouuranagaya,0.4561719596385956,0
52,100,0.7181818181818181,0,1,95,_tunecore_Remastered_Guitar,6,11,ninjyouuranagaya,0.9990280866622925,1
52,100,0.18181818181818182,563,1,95,_tunecore_Remastered_Guitar,6,3,ninjyouuranagaya,0.37033677101135254,0
52,100,1.0227272727272727,695,0,95,_tunecore_Remastered_Guitar,6,15,ninjyouuranagaya,0.45617106556892395,0
52,100,0.1,100,1,96,_tunecore_Remastered_Guitar,6,2,ninjyouuranagaya,0.9988439083099365,1
52,100,0.3,242,0,96,_tunecore_Remastered_Guitar,6,5,ninjyouuranagaya,0.1379818171262741,0
53,100,0.11818181818181818,326,0,96,_tunecore_Remastered_Guitar,6,2,ninjyouuranagaya,0.1623625010251999,0
54,100,0.2818181818181818,352,0,96,_tunecore_Remastered_Guitar,6,5,ninjyouuranagaya,0.1910567283630371,0
54,100,0.2409090909090909,800,1,96,_tunecore_Remastered_Guitar,6,4,ninjyouuranagaya,0.26196813583374023,0
52,100,0.5636363636363636,47,1,97,_tunecore_Remastered_Guitar,6,9,ninjyouuranagaya,0.9990280866622925,1
52,100,0.22272727272727272,210,0,97,_tunecore_Remastered_Guitar,6,4,ninjyouuranagaya,0.3703414797782898,0
52,100,0.1590909090909091,343,0,97,_tunecore_Remastered_Guitar,6,3,ninjyouuranagaya,0.45617055892944336,0
54,100,0.38181818181818183,26,1,98,_tunecore_Remastered_Guitar,6,6,ninjyouuranagaya,0.9984879493713379,1
54,100,0.1409090909090909,119,0,98,_tunecore_Remastered_Guitar,6,2,ninjyouuranagaya,0.06335306912660599,0
59,100,0.4,202,0,98,_tunecore_Remastered_Guitar,6,6,ninjyouuranagaya,0.05828706547617912,0
52,100,0.759090909090909,299,0,98,_tunecore_Remastered_Guitar,6,12,ninjyouuranagaya,0.06135983392596245,0
59,100,0.35909090909090907,502,0,98,_tunecore_Remastered_Guitar,6,6,ninjyouuranagaya,0.07168110460042953,0
54,100,0.35909090909090907,593,0,98,_tunecore_Remastered_Guitar,6,6,ninjyouuranagaya,0.08473435789346695,0
54,100,0.1,870,1,98,_tunecore_Remastered_Guitar,6,2,ninjyouuranagaya,0.12635305523872375,0
54,100,0.2,176,1,99,_tunecore_Remastered_Guitar,6,3,ninjyouuranagaya,0.9990094900131226,1
52,100,0.21818181818181817,550,1,99,_tunecore_Remastered_Guitar,6,3,ninjyouuranagaya,0.233226016163826,0
52,100,0.4,673,0,99,_tunecore_Remastered_Guitar,6,6,ninjyouuranagaya,0.2705843150615692,0
52,100,0.2590909090909091,836,0,99,_tunecore_Remastered_Guitar,6,4,ninjyouuranagaya,0.357937216758728,0
52,100,0.11818181818181818,197,1,100,_tunecore_Remastered_Guitar,6,2,ninjyouuranagaya,0.9986506104469299,1
52,100,0.2,303,0,100,_tunecore_Remastered_Guitar,6,3,ninjyouuranagaya,0.0879783108830452,0
61,100,0.11818181818181818,396,0,100,_tunecore_Remastered_Guitar,6,2,ninjyouuranagaya,0.0929826945066452,0
52,100,0.17727272727272728,580,0,100,_tunecore_Remastered_Guitar,6,3,ninjyouuranagaya,0.10994928330183029,0
61,100,0.4,646,0,100,_tunecore_Remastered_Guitar,6,6,ninjyouuranagaya,0.1286669820547104,0
64,100,0.12272727272727273,783,0,100,_tunecore_Remastered_Guitar,6,2,ninjyouuranagaya,0.18222399055957794,0
64,100,0.11818181818181818,127,1,101,_tunecore_Remastered_Guitar,6,2,ninjyouuranagaya,0.9986506104469299,1
64,100,0.1,172,0,101,_tunecore_Remastered_Guitar,6,2,ninjyouuranagaya,0.08798196166753769,0
64,100,0.3409090909090909,206,0,101,_tunecore_Remastered_Guitar,6,5,ninjyouuranagaya,0.09298638999462128,0
52,100,0.16363636363636364,356,0,101,_tunecore_Remastered_Guitar,6,3,ninjyouuranagaya,0.10995205491781235,0
52,100,0.1409090909090909,426,0,101,_tunecore_Remastered_Guitar,6,2,ninjyouuranagaya,0.12867602705955505,0
53,100,0.11818181818181818,462,0,101,_tunecore_Remastered_Guitar,6,2,ninjyouuranagaya,0.18222203850746155,0
52,100,0.11818181818181818,303,1,102,_tunecore_Remastered_Guitar,6,2,ninjyouuranagaya,0.9990094900131226,1
52,100,0.6,590,1,102,_tunecore_Remastered_Guitar,6,10,ninjyouuranagaya,0.23323218524456024,0
59,100,0.2409090909090909,800,0,102,_tunecore_Remastered_Guitar,6,4,ninjyouuranagaya,0.2705896198749542,0
61,100,0.1,857,0,102,_tunecore_Remastered_Guitar,6,2,ninjyouuranagaya,0.35792574286460876,0
64,100,0.32272727272727275,123,1,103,_tunecore_Remastered_Guitar,6,5,ninjyouuranagaya,0.9984879493713379,1
66,100,0.1590909090909091,396,1,103,_tunecore_Remastered_Guitar,6,3,ninjyouuranagaya,0.06335457414388657,0
68,100,0.37727272727272726,449,0,103,_tunecore_Remastered_Guitar,6,6,ninjyouuranagaya,0.058287523686885834,0
66,100,0.37727272727272726,559,0,103,_tunecore_Remastered_Guitar,6,6,ninjyouuranagaya,0.061360783874988556,0
66,100,0.17727272727272728,677,0,103,_tunecore_Remastered_Guitar,6,3,ninjyouuranagaya,0.07168103754520416,0
64,100,0.1,800,0,103,_tunecore_Remastered_Guitar,6,2,ninjyouuranagaya,0.08473196625709534,0
64,100,0.18181818181818182,862,0,103,_tunecore_Remastered_Guitar,6,3,ninjyouuranagaya,0.12634994089603424,0
61,100,0.18181818181818182,26,1,104,_tunecore_Remastered_Guitar,6,3,ninjyouuranagaya,0.9988439083099365,1
59,100,0.7,69,0,104,_tunecore_Remastered_Guitar,6,11,ninjyouuranagaya,0.13798290491104126,0
59,100,0.2590909090909091,255,0,104,_tunecore_Remastered_Guitar,6,4,ninjyouuranagaya,0.16236624121665955,0
64,100,0.2590909090909091,440,0,104,_tunecore_Remastered_Guitar,6,4,ninjyouuranagaya,0.19105905294418335,0
64,100,0.3,593,0,104,_tunecore_Remastered_Guitar,6,5,ninjyouuranagaya,0.26196691393852234,0
59,100,0.2,123,1,105,_tunecore_Remastered_Guitar,6,3,ninjyouuranagaya,0.9983735084533691,1
61,100,0.37727272727272726,172,0,105,_tunecore_Remastered_Guitar,6,6,ninjyouuranagaya,0.05104953423142433,0
64,100,0.2636363636363636,267,0,105,_tunecore_Remastered_Guitar,6,4,ninjyouuranagaya,0.04161226376891136,0
59,100,0.1590909090909091,550,1,105,_tunecore_Remastered_Guitar,6,3,ninjyouuranagaya,0.037980519235134125,0
66,100,0.1,593,0,105,_tunecore_Remastered_Guitar,6,2,ninjyouuranagaya,0.03926251083612442,0
68,100,0.1409090909090909,637,0,105,_tunecore_Remastered_Guitar,6,2,ninjyouuranagaya,0.04616642743349075,0
66,100,0.2,690,0,105,_tunecore_Remastered_Guitar,6,3,ninjyouuranagaya,0.0571342371404171,0
64,100,0.42272727272727273,739,0,105,_tunecore_Remastered_Guitar,6,7,ninjyouuranagaya,0.09188597649335861,0
64,100,0.2409090909090909,0,1,106,_tunecore_Remastered_Guitar,6,4,ninjyouuranagaya,0.9986506104469299,1
54,100,0.6,66,0,106,_tunecore_Remastered_Guitar,6,10,ninjyouuranagaya,0.08798068761825562,0
66,100,0.6181818181818182,263,0,106,_tunecore_Remastered_Guitar,6,10,ninjyouuranagaya,0.09298530966043472,0
52,100,0.38181818181818183,422,0,106,_tunecore_Remastered_Guitar,6,6,ninjyouuranagaya,0.10994942486286163,0
59,100,0.11818181818181818,792,1,106,_tunecore_Remastered_Guitar,6,2,ninjyouuranagaya,0.1286744326353073,0
59,100,0.5227272727272727,839,0,106,_tunecore_Remastered_Guitar,6,8,ninjyouuranagaya,0.18221533298492432,0
56,100,0.12272727272727273,575,1,4,_Remix_Guitar,6,2,watasino Stems,0.9792226552963257,1
58,100,0.18181818181818182,66,1,5,_Remix_Guitar,6,3,watasino Stems,0.9984879493713379,1
58,100,0.1,128,0,5,_Remix_Guitar,6,2,watasino Stems,0.06335273385047913,0
58,100,0.12272727272727273,232,0,5,_Remix_Guitar,6,2,watasino Stems,0.05828947573900223,0
56,100,0.13636363636363635,391,0,5,_Remix_Guitar,6,2,watasino Stems,0.061360567808151245,0
63,100,0.12272727272727273,431,0,5,_Remix_Guitar,6,2,watasino Stems,0.0716819241642952,0
56,100,0.2590909090909091,550,0,5,_Remix_Guitar,6,4,watasino Stems,0.08473222702741623,0
65,100,0.1409090909090909,778,0,5,_Remix_Guitar,6,2,watasino Stems,0.1263502985239029,0
58,100,0.22272727272727272,12,1,6,_Remix_Guitar,6,4,watasino Stems,0.9988440275192261,1
65,100,0.38181818181818183,286,1,6,_Remix_Guitar,6,6,watasino Stems,0.1379854381084442,0
55,100,0.2,399,0,6,_Remix_Guitar,6,3,watasino Stems,0.16236615180969238,0
55,100,0.21818181818181817,493,0,6,_Remix_Guitar,6,3,watasino Stems,0.19105710089206696,0
55,100,0.13636363636363635,678,0,6,_Remix_Guitar,6,2,watasino Stems,0.2619583308696747,0
70,100,0.1409090909090909,342,1,7,_Remix_Guitar,6,2,watasino Stems,0.9990096092224121,1
55,100,0.1409090909090909,581,1,7,_Remix_Guitar,6,2,watasino Stems,0.2332342118024826,0
55,100,0.1,810,0,7,_Remix_Guitar,6,2,watasino Stems,0.2705874741077423,0
63,100,0.22272727272727272,871,0,7,_Remix_Guitar,6,4,watasino Stems,0.35793057084083557,0
56,100,0.4818181818181818,254,1,8,_Remix_Guitar,6,8,watasino Stems,0.9983231425285339,1
58,100,0.11818181818181818,814,1,8,_Remix_Guitar,6,2,watasino Stems,0.5462161898612976,1
55,100,0.11818181818181818,22,1,9,_Remix_Guitar,6,2,watasino Stems,0.9792245030403137,1
58,100,0.12272727272727273,553,1,10,_Remix_Guitar,6,2,watasino Stems,0.9792247414588928,1
58,100,0.12272727272727273,101,1,13,_Remix_Guitar,6,2,watasino Stems,0.9983232617378235,1
56,100,0.16363636363636364,465,1,13,_Remix_Guitar,6,3,watasino Stems,0.5462126731872559,1
58,100,0.2590909090909091,326,1,14,_Remix_Guitar,6,4,watasino Stems,0.9983231425285339,1
63,100,0.18181818181818182,474,0,14,_Remix_Guitar,6,3,watasino Stems,0.5462114214897156,1
53,100,0.11818181818181818,876,1,15,_Remix_Guitar,6,2,watasino Stems,0.9792242646217346,1
53,100,0.11818181818181818,44,1,16,_Remix_Guitar,6,2,watasino Stems,0.9792241454124451,1
58,100,0.4772727272727273,449,1,18,_Remix_Guitar,6,8,watasino Stems,0.979223906993866,1
58,100,0.5,246,1,19,_Remix_Guitar,6,8,watasino Stems,0.9983232617378235,1
63,100,0.7,660,1,19,_Remix_Guitar,6,11,watasino Stems,0.5462105870246887,1
58,100,0.41818181818181815,528,1,20,_Remix_Guitar,6,7,watasino Stems,0.9792242646217346,1
58,100,0.18181818181818182,34,1,21,_Remix_Guitar,6,3,watasino Stems,0.9990280866622925,1
58,100,0.1590909090909091,119,0,21,_Remix_Guitar,6,3,watasino Stems,0.3703416883945465,0
58,100,0.41818181818181815,615,1,21,_Remix_Guitar,6,7,watasino Stems,0.45616796612739563,0
56,100,0.1409090909090909,405,1,22,_Remix_Guitar,6,2,watasino Stems,0.9983231425285339,1
56,100,0.3,602,0,22,_Remix_Guitar,6,5,watasino Stems,0.5462110638618469,1
53,100,0.18181818181818182,268,1,23,_Remix_Guitar,6,3,watasino Stems,0.9990280866622925,1
58,100,0.21818181818181817,316,0,23,_Remix_Guitar,6,3,watasino Stems,0.3703363239765167,0
58,100,0.1409090909090909,818,1,23,_Remix_Guitar,6,2,watasino Stems,0.45616772770881653,0
58,100,0.2590909090909091,743,1,24,_Remix_Guitar,6,4,watasino Stems,0.9792238473892212,1
53,100,0.41818181818181815,52,1,25,_Remix_Guitar,6,7,watasino Stems,0.9988439083099365,1
53,100,0.11818181818181818,206,0,25,_Remix_Guitar,6,2,watasino Stems,0.1379816234111786,0
58,100,0.4,246,0,25,_Remix_Guitar,6,6,watasino Stems,0.16236256062984467,0
53,100,0.18181818181818182,474,0,25,_Remix_Guitar,6,3,watasino Stems,0.19105224311351776,0
58,100,0.11818181818181818,700,0,25,_Remix_Guitar,6,2,watasino Stems,0.26196619868278503,0
58,100,0.3,61,1,26,_Remix_Guitar,6,5,watasino Stems,0.9990094900131226,1
53,100,0.17727272727272728,140,0,26,_Remix_Guitar,6,3,watasino Stems,0.23322920501232147,0
58,100,0.8227272727272728,422,1,26,_Remix_Guitar,6,13,watasino Stems,0.27057552337646484,0
58,100,0.2,849,1,26,_Remix_Guitar,6,3,watasino Stems,0.3579224944114685,0
63,100,0.1590909090909091,88,1,27,_Remix_Guitar,6,3,watasino Stems,0.9990094900131226,1
58,100,0.21818181818181817,281,0,27,_Remix_Guitar,6,3,watasino Stems,0.23323185741901398,0
65,100,0.17727272727272728,633,1,27,_Remix_Guitar,6,3,watasino Stems,0.27058643102645874,0
58,100,0.41818181818181815,822,0,27,_Remix_Guitar,6,7,watasino Stems,0.3579278290271759,0
55,100,0.1409090909090909,113,1,28,_Remix_Guitar,6,2,watasino Stems,0.9983232617378235,1
58,100,0.22272727272727272,752,1,28,_Remix_Guitar,6,4,watasino Stems,0.5462125539779663,1
58,100,0.1409090909090909,131,1,29,_Remix_Guitar,6,2,watasino Stems,0.9983232617378235,1
58,100,0.22272727272727272,320,0,29,_Remix_Guitar,6,4,watasino Stems,0.5462179780006409,1
58,100,0.2,44,1,30,_Remix_Guitar,6,3,watasino Stems,0.9990094900131226,1
58,100,0.38181818181818183,285,1,30,_Remix_Guitar,6,6,watasino Stems,0.23322804272174835,0
63,100,0.21818181818181817,567,1,30,_Remix_Guitar,6,3,watasino Stems,0.2705773115158081,0
70,100,0.1,633,0,30,_Remix_Guitar,6,2,watasino Stems,0.35793307423591614,0
58,100,0.1409090909090909,69,1,31,_Remix_Guitar,6,2,watasino Stems,0.9990280866622925,1
56,100,0.2,167,0,31,_Remix_Guitar,6,3,watasino Stems,0.3703305423259735,0
58,100,0.2,796,1,31,_Remix_Guitar,6,3,watasino Stems,0.45616787672042847,0
58,100,0.2409090909090909,311,1,32,_Remix_Guitar,6,4,watasino Stems,0.9990096092224121,1
63,100,0.21818181818181817,391,0,32,_Remix_Guitar,6,3,watasino Stems,0.23323270678520203,0
63,100,0.21818181818181817,678,1,32,_Remix_Guitar,6,3,watasino Stems,0.2705897092819214,0
63,100,0.18181818181818182,783,0,32,_Remix_Guitar,6,3,watasino Stems,0.3579304814338684,0
53,100,0.1590909090909091,743,1,33,_Remix_Guitar,6,3,watasino Stems,0.9983232617378235,1
53,100,0.1409090909090909,804,0,33,_Remix_Guitar,6,2,watasino Stems,0.5462167263031006,1
53,100,0.4818181818181818,43,1,34,_Remix_Guitar,6,8,watasino Stems,0.9984879493713379,1
53,100,0.18181818181818182,158,0,34,_Remix_Guitar,6,3,watasino Stems,0.0633535236120224,0
53,100,0.3181818181818182,215,0,34,_Remix_Guitar,6,5,watasino Stems,0.05828862637281418,0
53,100,0.2,295,0,34,_Remix_Guitar,6,3,watasino Stems,0.061361975967884064,0
63,100,0.1,606,1,34,_Remix_Guitar,6,2,watasino Stems,0.07168462127447128,0
60,100,0.32272727272727275,708,0,34,_Remix_Guitar,6,5,watasino Stems,0.08473864197731018,0
53,100,0.5772727272727273,831,0,34,_Remix_Guitar,6,9,watasino Stems,0.1263495534658432,0
53,100,0.1590909090909091,128,1,35,_Remix_Guitar,6,3,watasino Stems,0.9990280866622925,1
58,100,0.1409090909090909,373,1,35,_Remix_Guitar,6,2,watasino Stems,0.3703433573246002,0
58,100,0.2818181818181818,431,0,35,_Remix_Guitar,6,5,watasino Stems,0.45615994930267334,0
58,100,0.21818181818181817,163,1,37,_Remix_Guitar,6,3,watasino Stems,0.9990280866622925,1
58,100,0.12272727272727273,584,1,37,_Remix_Guitar,6,2,watasino Stems,0.3703496754169464,0
63,100,0.1409090909090909,770,0,37,_Remix_Guitar,6,2,watasino Stems,0.45616796612739563,0
62,100,0.17727272727272728,185,1,38,_Remix_Guitar,6,3,watasino Stems,0.9990280866622925,1
58,100,0.37727272727272726,448,1,38,_Remix_Guitar,6,6,watasino Stems,0.3703443109989166,0
58,100,0.3,536,0,38,_Remix_Guitar,6,5,watasino Stems,0.4561750292778015,0
58,100,0.2,338,1,39,_Remix_Guitar,6,3,watasino Stems,0.9990280866622925,1
58,100,0.2590909090909091,748,1,39,_Remix_Guitar,6,4,watasino Stems,0.3703414797782898,0
56,100,0.1409090909090909,823,0,39,_Remix_Guitar,6,2,watasino Stems,0.4561675786972046,0
58,100,0.16363636363636364,246,1,40,_Remix_Guitar,6,3,watasino Stems,0.9984879493713379,1
53,100,0.18181818181818182,308,0,40,_Remix_Guitar,6,3,watasino Stems,0.06335191428661346,0
65,100,0.18181818181818182,373,0,40,_Remix_Guitar,6,3,watasino Stems,0.05828766152262688,0
58,100,0.2,418,0,40,_Remix_Guitar,6,3,watasino Stems,0.06135925278067589,0
58,100,0.11818181818181818,550,0,40,_Remix_Guitar,6,2,watasino Stems,0.07167821377515793,0
53,100,0.2,655,0,40,_Remix_Guitar,6,3,watasino Stems,0.08472993224859238,0
58,100,0.1590909090909091,703,0,40,_Remix_Guitar,6,3,watasino Stems,0.12634333968162537,0
58,100,0.1590909090909091,496,1,41,_Remix_Guitar,6,3,watasino Stems,0.9983232617378235,1
58,100,0.3181818181818182,536,0,41,_Remix_Guitar,6,5,watasino Stems,0.5462179183959961,1
58,100,0.1590909090909091,21,1,42,_Remix_Guitar,6,3,watasino Stems,0.9990280866622925,1
58,100,0.2818181818181818,638,1,42,_Remix_Guitar,6,5,watasino Stems,0.37033355236053467,0
58,100,0.21818181818181817,823,0,42,_Remix_Guitar,6,3,watasino Stems,0.4561663866043091,0
58,100,0.2,179,1,43,_Remix_Guitar,6,3,watasino Stems,0.9983232617378235,1
58,100,0.18181818181818182,298,0,43,_Remix_Guitar,6,3,watasino Stems,0.5462121963500977,1
58,100,0.21818181818181817,31,1,45,_Remix_Guitar,6,3,watasino Stems,0.9986506104469299,1
56,100,0.18181818181818182,114,0,45,_Remix_Guitar,6,3,watasino Stems,0.08797943592071533,0
58,100,0.2590909090909091,228,0,45,_Remix_Guitar,6,4,watasino Stems,0.09298466891050339,0
58,100,0.1590909090909091,338,0,45,_Remix_Guitar,6,3,watasino Stems,0.10995309799909592,0
58,100,0.2818181818181818,378,0,45,_Remix_Guitar,6,5,watasino Stems,0.128670796751976,0
63,100,0.1409090909090909,461,0,45,_Remix_Guitar,6,2,watasino Stems,0.1822194755077362,0
56,100,0.1,56,1,46,_Remix_Guitar,6,2,watasino Stems,0.9990094900131226,1
63,100,0.2,171,0,46,_Remix_Guitar,6,3,watasino Stems,0.23323644697666168,0
56,100,0.6,474,1,46,_Remix_Guitar,6,10,watasino Stems,0.2705787122249603,0
58,100,0.3,770,1,46,_Remix_Guitar,6,5,watasino Stems,0.3579302430152893,0
58,100,0.22272727272727272,123,1,47,_Remix_Guitar,6,4,watasino Stems,0.9990280866622925,1
63,100,0.2,303,0,47,_Remix_Guitar,6,3,watasino Stems,0.3703288733959198,0
58,100,0.1590909090909091,810,1,47,_Remix_Guitar,6,3,watasino Stems,0.45617085695266724,0
55,100,0.3181818181818182,150,1,48,_Remix_Guitar,6,5,watasino Stems,0.9990094900131226,1
58,100,0.4818181818181818,289,0,48,_Remix_Guitar,6,8,watasino Stems,0.23322826623916626,0
53,100,0.12272727272727273,554,1,48,_Remix_Guitar,6,2,watasino Stems,0.27057725191116333,0
53,100,0.2590909090909091,646,0,48,_Remix_Guitar,6,4,watasino Stems,0.3579168915748596,0
58,100,0.2,356,1,50,_Remix_Guitar,6,3,watasino Stems,0.9990280866622925,1
58,100,0.16363636363636364,444,0,50,_Remix_Guitar,6,3,watasino Stems,0.37034592032432556,0
58,100,0.32272727272727275,651,0,50,_Remix_Guitar,6,5,watasino Stems,0.456171452999115,0
58,100,0.1409090909090909,518,1,51,_Remix_Guitar,6,2,watasino Stems,0.9990280866622925,1
63,100,0.2,576,0,51,_Remix_Guitar,6,3,watasino Stems,0.37034788727760315,0
63,100,0.18181818181818182,871,1,51,_Remix_Guitar,6,3,watasino Stems,0.4561745226383209,0
63,100,0.16363636363636364,69,1,52,_Remix_Guitar,6,3,watasino Stems,0.9990280866622925,1
63,100,0.11818181818181818,198,0,52,_Remix_Guitar,6,2,watasino Stems,0.37035518884658813,0
63,100,0.5,778,1,52,_Remix_Guitar,6,8,watasino Stems,0.45617493987083435,0
63,100,0.37727272727272726,171,1,53,_Remix_Guitar,6,6,watasino Stems,0.9988439083099365,1
56,100,0.1409090909090909,268,0,53,_Remix_Guitar,6,2,watasino Stems,0.13798153400421143,0
58,100,0.21818181818181817,483,0,53,_Remix_Guitar,6,3,watasino Stems,0.16236674785614014,0
58,100,0.21818181818181817,568,0,53,_Remix_Guitar,6,3,watasino Stems,0.19105783104896545,0
58,100,0.5590909090909091,646,0,53,_Remix_Guitar,6,9,watasino Stems,0.26195991039276123,0
58,100,0.1409090909090909,474,1,55,_Remix_Guitar,6,2,watasino Stems,0.9990094900131226,1
58,100,0.1409090909090909,673,0,55,_Remix_Guitar,6,2,watasino Stems,0.2332291305065155,0
58,100,0.2409090909090909,796,0,55,_Remix_Guitar,6,4,watasino Stems,0.2705777585506439,0
58,100,0.13636363636363635,853,0,55,_Remix_Guitar,6,2,watasino Stems,0.3579235374927521,0
58,100,0.1590909090909091,83,1,56,_Remix_Guitar,6,3,watasino Stems,0.9990094900131226,1
60,100,0.5,141,0,56,_Remix_Guitar,6,8,watasino Stems,0.23322975635528564,0
60,100,0.2818181818181818,431,1,56,_Remix_Guitar,6,5,watasino Stems,0.27058079838752747,0
53,100,0.1,641,0,56,_Remix_Guitar,6,2,watasino Stems,0.3579212725162506,0
58,100,0.22272727272727272,101,1,57,_Remix_Guitar,6,4,watasino Stems,0.9983232617378235,1
55,100,0.1,826,1,57,_Remix_Guitar,6,2,watasino Stems,0.5462143421173096,1
60,100,0.16363636363636364,488,1,58,_Remix_Guitar,6,3,watasino Stems,0.9983232617378235,1
58,100,0.1,581,0,58,_Remix_Guitar,6,2,watasino Stems,0.546211302280426,1
55,100,0.11818181818181818,625,1,59,_Remix_Guitar,6,2,watasino Stems,0.9983232617378235,1
58,100,0.1409090909090909,770,0,59,_Remix_Guitar,6,2,watasino Stems,0.5462163090705872,1
53,100,0.12272727272727273,584,1,60,_Remix_Guitar,6,2,watasino Stems,0.9792240262031555,1
74,100,0.5,726,1,61,_Remix_Guitar,6,8,watasino Stems,0.9792234897613525,1
58,100,0.3,96,1,62,_Remix_Guitar,6,5,watasino Stems,0.9990280866622925,1
58,100,0.1409090909090909,364,1,62,_Remix_Guitar,6,2,watasino Stems,0.3703398108482361,0
58,100,0.18181818181818182,738,1,62,_Remix_Guitar,6,3,watasino Stems,0.4561644196510315,0
58,100,0.22272727272727272,136,1,63,_Remix_Guitar,6,4,watasino Stems,0.9990094900131226,1
58,100,0.22272727272727272,233,0,63,_Remix_Guitar,6,4,watasino Stems,0.2332332283258438,0
58,100,0.3181818181818182,616,1,63,_Remix_Guitar,6,5,watasino Stems,0.2705762982368469,0
55,100,0.2,743,0,63,_Remix_Guitar,6,3,watasino Stems,0.3579319417476654,0
58,100,0.21818181818181817,176,1,64,_Remix_Guitar,6,3,watasino Stems,0.9792243838310242,1
58,100,0.4,267,1,65,_Remix_Guitar,6,6,watasino Stems,0.9990280866622925,1
58,100,0.33636363636363636,567,1,65,_Remix_Guitar,6,5,watasino Stems,0.3703400194644928,0
58,100,0.21818181818181817,713,0,65,_Remix_Guitar,6,3,watasino Stems,0.45617353916168213,0
58,100,0.1409090909090909,343,1,66,_Remix_Guitar,6,2,watasino Stems,0.9983232617378235,1
55,100,0.1409090909090909,839,1,66,_Remix_Guitar,6,2,watasino Stems,0.5462116599082947,1
55,100,0.1,303,1,67,_Remix_Guitar,6,2,watasino Stems,0.9988439083099365,1
55,100,0.11818181818181818,360,0,67,_Remix_Guitar,6,2,watasino Stems,0.13798251748085022,0
56,100,0.1409090909090909,422,0,67,_Remix_Guitar,6,2,watasino Stems,0.1623614877462387,0
58,100,0.1409090909090909,550,0,67,_Remix_Guitar,6,2,watasino Stems,0.19105452299118042,0
53,100,0.16363636363636364,839,1,67,_Remix_Guitar,6,3,watasino Stems,0.2619563043117523,0
53,100,0.2,30,1,68,_Remix_Guitar,6,3,watasino Stems,0.9988439083099365,1
58,100,0.3409090909090909,223,0,68,_Remix_Guitar,6,5,watasino Stems,0.13798266649246216,0
58,100,0.3181818181818182,339,0,68,_Remix_Guitar,6,5,watasino Stems,0.16236689686775208,0
58,100,0.3181818181818182,436,0,68,_Remix_Guitar,6,5,watasino Stems,0.19105859100818634,0
58,100,0.3,527,0,68,_Remix_Guitar,6,5,watasino Stems,0.2619629502296448,0
58,100,0.17727272727272728,163,1,69,_Remix_Guitar,6,3,watasino Stems,0.9988439083099365,1
53,100,0.17727272727272728,347,0,69,_Remix_Guitar,6,3,watasino Stems,0.13798202574253082,0
56,100,0.1409090909090909,637,1,69,_Remix_Guitar,6,2,watasino Stems,0.16235977411270142,0
53,100,0.2590909090909091,722,0,69,_Remix_Guitar,6,4,watasino Stems,0.19105640053749084,0
53,100,0.1590909090909091,832,0,69,_Remix_Guitar,6,3,watasino Stems,0.2619616985321045,0
53,100,0.18181818181818182,47,1,70,_Remix_Guitar,6,3,watasino Stems,0.9988439083099365,1
53,100,0.4,127,0,70,_Remix_Guitar,6,6,watasino Stems,0.13797877728939056,0
58,100,0.11818181818181818,417,1,70,_Remix_Guitar,6,2,watasino Stems,0.16236546635627747,0
70,100,0.1590909090909091,470,0,70,_Remix_Guitar,6,3,watasino Stems,0.19105476140975952,0
58,100,0.12272727272727273,783,1,70,_Remix_Guitar,6,2,watasino Stems,0.2619607448577881,0
58,100,0.1,30,1,71,_Remix_Guitar,6,2,watasino Stems,0.9986507296562195,1
58,100,0.1590909090909091,140,0,71,_Remix_Guitar,6,3,watasino Stems,0.08797953277826309,0
58,100,0.3409090909090909,184,0,71,_Remix_Guitar,6,5,watasino Stems,0.09298798441886902,0
58,100,0.12272727272727273,333,0,71,_Remix_Guitar,6,2,watasino Stems,0.10995149612426758,0
56,100,0.1590909090909091,496,0,71,_Remix_Guitar,6,3,watasino Stems,0.12866835296154022,0
58,100,0.12272727272727273,752,1,71,_Remix_Guitar,6,2,watasino Stems,0.1822146326303482,0
58,100,0.18181818181818182,43,1,72,_Remix_Guitar,6,3,watasino Stems,0.9988439083099365,1
58,100,0.1590909090909091,189,0,72,_Remix_Guitar,6,3,watasino Stems,0.13798044621944427,0
58,100,0.1409090909090909,462,1,72,_Remix_Guitar,6,2,watasino Stems,0.16236279904842377,0
58,100,0.1,619,0,72,_Remix_Guitar,6,2,watasino Stems,0.19105172157287598,0
55,100,0.17727272727272728,722,0,72,_Remix_Guitar,6,3,watasino Stems,0.2619610130786896,0
58,100,0.2,0,1,73,_Remix_Guitar,6,3,watasino Stems,0.9988439083099365,1
55,100,0.12272727272727273,365,1,73,_Remix_Guitar,6,2,watasino Stems,0.13798213005065918,0
70,100,0.1590909090909091,493,0,73,_Remix_Guitar,6,3,watasino Stems,0.16236907243728638,0
56,100,0.2,779,1,73,_Remix_Guitar,6,3,watasino Stems,0.1910557746887207,0
56,100,0.1590909090909091,836,0,73,_Remix_Guitar,6,3,watasino Stems,0.26196619868278503,0
58,100,0.2818181818181818,47,1,74,_Remix_Guitar,6,5,watasino Stems,0.9984879493713379,1
58,100,0.2409090909090909,136,0,74,_Remix_Guitar,6,4,watasino Stems,0.06335193663835526,0
58,100,0.1,250,0,74,_Remix_Guitar,6,2,watasino Stems,0.05828734114766121,0
58,100,0.22272727272727272,276,0,74,_Remix_Guitar,6,4,watasino Stems,0.06135864183306694,0
53,100,0.2409090909090909,449,0,74,_Remix_Guitar,6,4,watasino Stems,0.07167679071426392,0
58,100,0.2409090909090909,726,1,74,_Remix_Guitar,6,4,watasino Stems,0.0847301334142685,0
55,100,0.18181818181818182,813,0,74,_Remix_Guitar,6,3,watasino Stems,0.1263454258441925,0
58,100,0.18181818181818182,0,1,75,_Remix_Guitar,6,3,watasino Stems,0.9990094900131226,1
55,100,0.35909090909090907,237,1,75,_Remix_Guitar,6,6,watasino Stems,0.23323509097099304,0
56,100,0.1409090909090909,796,1,75,_Remix_Guitar,6,2,watasino Stems,0.27058401703834534,0
56,100,0.17727272727272728,876,0,75,_Remix_Guitar,6,3,watasino Stems,0.3579198718070984,0
58,100,0.2409090909090909,399,1,76,_Remix_Guitar,6,4,watasino Stems,0.9990094900131226,1
58,100,0.12272727272727273,553,0,76,_Remix_Guitar,6,2,watasino Stems,0.23322762548923492,0
58,100,0.22272727272727272,597,0,76,_Remix_Guitar,6,4,watasino Stems,0.2705775499343872,0
55,100,0.17727272727272728,832,1,76,_Remix_Guitar,6,3,watasino Stems,0.3579269051551819,0
58,100,0.1409090909090909,43,1,77,_Remix_Guitar,6,2,watasino Stems,0.9990280866622925,1
63,100,0.23636363636363636,436,1,77,_Remix_Guitar,6,4,watasino Stems,0.37034350633621216,0
63,100,0.3,593,0,77,_Remix_Guitar,6,5,watasino Stems,0.4561728537082672,0
53,100,0.3181818181818182,0,1,78,_Remix_Guitar,6,5,watasino Stems,0.9983735084533691,1
53,100,0.13636363636363635,106,0,78,_Remix_Guitar,6,2,watasino Stems,0.051049672067165375,0
53,100,0.4590909090909091,166,0,78,_Remix_Guitar,6,7,watasino Stems,0.041610997170209885,0
53,100,0.7,343,0,78,_Remix_Guitar,6,11,watasino Stems,0.0379784032702446,0
53,100,0.4818181818181818,619,1,78,_Remix_Guitar,6,8,watasino Stems,0.039258427917957306,0
53,100,0.11818181818181818,770,0,78,_Remix_Guitar,6,2,watasino Stems,0.04616308957338333,0
53,100,0.1,800,0,78,_Remix_Guitar,6,2,watasino Stems,0.05712766945362091,0
53,100,0.11818181818181818,857,0,78,_Remix_Guitar,6,2,watasino Stems,0.09187289327383041,0
58,100,0.12272727272727273,79,1,79,_Remix_Guitar,6,2,watasino Stems,0.9990094900131226,1
58,100,0.1590909090909091,119,0,79,_Remix_Guitar,6,3,watasino Stems,0.23323218524456024,0
63,100,0.7,246,0,79,_Remix_Guitar,6,11,watasino Stems,0.270574688911438,0
53,100,0.35909090909090907,660,1,79,_Remix_Guitar,6,6,watasino Stems,0.3579306900501251,0
53,100,0.2,22,1,80,_Remix_Guitar,6,3,watasino Stems,0.9986506104469299,1
58,100,0.1409090909090909,333,1,80,_Remix_Guitar,6,2,watasino Stems,0.08797850459814072,0
53,100,0.2409090909090909,409,0,80,_Remix_Guitar,6,4,watasino Stems,0.09298125654459,0
53,100,0.21818181818181817,506,0,80,_Remix_Guitar,6,3,watasino Stems,0.10994470864534378,0
53,100,0.11818181818181818,616,0,80,_Remix_Guitar,6,2,watasino Stems,0.12866145372390747,0
53,100,0.1409090909090909,686,0,80,_Remix_Guitar,6,2,watasino Stems,0.18220914900302887,0
55,100,0.1,800,1,81,_Remix_Guitar,6,2,watasino Stems,0.9792243838310242,1
55,100,0.38181818181818183,166,1,82,_Remix_Guitar,6,6,watasino Stems,0.9792240262031555,1
63,100,0.2,13,1,83,_Remix_Guitar,6,3,watasino Stems,0.9983231425285339,1
58,100,0.11818181818181818,792,1,83,_Remix_Guitar,6,2,watasino Stems,0.5462225079536438,1
58,100,0.1409090909090909,823,1,84,_Remix_Guitar,6,2,watasino Stems,0.9983232617378235,1
58,100,0.1590909090909091,857,0,84,_Remix_Guitar,6,3,watasino Stems,0.5462144017219543,1
58,100,0.2772727272727273,216,1,85,_Remix_Guitar,6,4,watasino Stems,0.9990280866622925,1
58,100,0.5,299,0,85,_Remix_Guitar,6,8,watasino Stems,0.37034398317337036,0
56,100,0.2409090909090909,550,1,85,_Remix_Guitar,6,4,watasino Stems,0.4561641216278076,0
58,100,0.17727272727272728,62,1,86,_Remix_Guitar,6,3,watasino Stems,0.9990094900131226,1
53,100,0.42272727272727273,255,0,86,_Remix_Guitar,6,7,watasino Stems,0.23322884738445282,0
53,100,0.1590909090909091,453,0,86,_Remix_Guitar,6,3,watasino Stems,0.2705788314342499,0
55,100,0.2,673,0,86,_Remix_Guitar,6,3,watasino Stems,0.3579268157482147,0
60,100,0.1,289,1,87,_Remix_Guitar,6,2,watasino Stems,0.9986506104469299,1
60,100,0.2,413,0,87,_Remix_Guitar,6,3,watasino Stems,0.0879785493016243,0
60,100,0.18181818181818182,462,0,87,_Remix_Guitar,6,3,watasino Stems,0.09298289567232132,0
60,100,0.2,519,0,87,_Remix_Guitar,6,3,watasino Stems,0.10994691401720047,0
60,100,0.11818181818181818,743,0,87,_Remix_Guitar,6,2,watasino Stems,0.1286693960428238,0
60,100,0.11818181818181818,876,0,87,_Remix_Guitar,6,2,watasino Stems,0.18221916258335114,0
60,100,0.13636363636363635,62,1,88,_Remix_Guitar,6,2,watasino Stems,0.9792242646217346,1
58,100,0.3,179,1,89,_Remix_Guitar,6,5,watasino Stems,0.9792243838310242,1
60,100,0.12272727272727273,145,1,90,_Remix_Guitar,6,2,watasino Stems,0.9990094900131226,1
60,100,0.41818181818181815,193,0,90,_Remix_Guitar,6,7,watasino Stems,0.233226016163826,0
53,100,0.21818181818181817,470,1,90,_Remix_Guitar,6,3,watasino Stems,0.2705719769001007,0
65,100,0.11818181818181818,787,1,90,_Remix_Guitar,6,2,watasino Stems,0.3579252362251282,0
67,100,0.11818181818181818,184,1,91,_Remix_Guitar,6,2,watasino Stems,0.9792243838310242,1
63,100,0.1590909090909091,339,1,92,_Remix_Guitar,6,3,watasino Stems,0.9990094900131226,1
58,100,0.13636363636363635,567,0,92,_Remix_Guitar,6,2,watasino Stems,0.233236625790596,0
58,100,0.2590909090909091,637,0,92,_Remix_Guitar,6,4,watasino Stems,0.2705807685852051,0
58,100,0.13636363636363635,700,0,92,_Remix_Guitar,6,2,watasino Stems,0.3579361140727997,0
58,100,0.12272727272727273,466,1,93,_Remix_Guitar,6,2,watasino Stems,0.9983232617378235,1
63,100,0.21818181818181817,523,0,93,_Remix_Guitar,6,3,watasino Stems,0.5462126731872559,1
58,100,0.1,17,1,94,_Remix_Guitar,6,2,watasino Stems,0.9988439083099365,1
63,100,0.1590909090909091,176,0,94,_Remix_Guitar,6,3,watasino Stems,0.13797974586486816,0
63,100,0.3181818181818182,216,0,94,_Remix_Guitar,6,5,watasino Stems,0.16236889362335205,0
53,100,0.1,289,0,94,_Remix_Guitar,6,2,watasino Stems,0.19106005132198334,0
53,100,0.3409090909090909,660,1,94,_Remix_Guitar,6,5,watasino Stems,0.26197031140327454,0
58,100,0.4772727272727273,83,1,95,_Remix_Guitar,6,8,watasino Stems,0.9990094900131226,1
58,100,0.17727272727272728,206,0,95,_Remix_Guitar,6,3,watasino Stems,0.23323343694210052,0
53,100,0.1,303,0,95,_Remix_Guitar,6,2,watasino Stems,0.27057933807373047,0
63,100,0.4772727272727273,624,1,95,_Remix_Guitar,6,8,watasino Stems,0.3579246997833252,0
67,100,0.2818181818181818,506,1,96,_Remix_Guitar,6,5,watasino Stems,0.9792242646217346,1
53,100,0.2818181818181818,166,1,97,_Remix_Guitar,6,5,watasino Stems,0.9990094900131226,1
58,100,0.23636363636363636,480,1,97,_Remix_Guitar,6,4,watasino Stems,0.23323945701122284,0
63,100,0.2,550,0,97,_Remix_Guitar,6,3,watasino Stems,0.27058279514312744,0
63,100,0.759090909090909,716,0,97,_Remix_Guitar,6,12,watasino Stems,0.3579297959804535,0
58,100,0.13636363636363635,83,1,98,_Remix_Guitar,6,2,watasino Stems,0.9990280866622925,1
63,100,0.1409090909090909,443,1,98,_Remix_Guitar,6,2,watasino Stems,0.37034159898757935,0
63,100,0.2,876,1,98,_Remix_Guitar,6,3,watasino Stems,0.45616886019706726,0
53,100,0.21818181818181817,96,1,99,_Remix_Guitar,6,3,watasino Stems,0.9983735084533691,1
63,100,0.23636363636363636,150,0,99,_Remix_Guitar,6,4,watasino Stems,0.05104922130703926,0
53,100,0.33636363636363636,216,0,99,_Remix_Guitar,6,5,watasino Stems,0.04161171242594719,0
53,100,0.2409090909090909,333,0,99,_Remix_Guitar,6,4,watasino Stems,0.037977203726768494,0
53,100,0.1590909090909091,449,0,99,_Remix_Guitar,6,3,watasino Stems,0.039257925003767014,0
53,100,0.17727272727272728,502,0,99,_Remix_Guitar,6,3,watasino Stems,0.046162500977516174,0
58,100,0.6227272727272727,695,0,99,_Remix_Guitar,6,10,watasino Stems,0.05712966248393059,0
53,100,0.42272727272727273,870,0,99,_Remix_Guitar,6,7,watasino Stems,0.09187471121549606,0
58,100,0.3409090909090909,179,1,100,_Remix_Guitar,6,5,watasino Stems,0.9990280866622925,1
58,100,0.1409090909090909,365,0,100,_Remix_Guitar,6,2,watasino Stems,0.3703335225582123,0
53,100,0.3,470,0,100,_Remix_Guitar,6,5,watasino Stems,0.45616233348846436,0
58,100,0.12272727272727273,540,1,101,_Remix_Guitar,6,2,watasino Stems,0.9990280866622925,1
67,100,0.2772727272727273,612,0,101,_Remix_Guitar,6,4,watasino Stems,0.37033358216285706,0
58,100,0.1590909090909091,703,0,101,_Remix_Guitar,6,3,watasino Stems,0.4561663866043091,0
53,100,0.18181818181818182,532,1,103,_Remix_Guitar,6,3,watasino Stems,0.9983231425285339,1
62,100,1.018181818181818,722,0,103,_Remix_Guitar,6,15,watasino Stems,0.546217143535614,1
63,100,0.1409090909090909,197,1,104,_Remix_Guitar,6,2,watasino Stems,0.9990094900131226,1
58,100,1.3772727272727272,360,0,104,_Remix_Guitar,6,15,watasino Stems,0.23323166370391846,0
58,100,0.11818181818181818,669,1,104,_Remix_Guitar,6,2,watasino Stems,0.27059704065322876,0
58,100,1.459090909090909,703,0,104,_Remix_Guitar,6,15,watasino Stems,0.3579207956790924,0
56,100,0.21818181818181817,567,1,105,_Remix_Guitar,6,3,watasino Stems,0.9983232617378235,1
62,100,0.1409090909090909,695,0,105,_Remix_Guitar,6,2,watasino Stems,0.5462222695350647,1
58,100,0.1590909090909091,826,1,107,_Remix_Guitar,6,3,watasino Stems,0.9792238473892212,1
63,100,0.3,260,1,108,_Remix_Guitar,6,5,watasino Stems,0.9990280866622925,1
58,100,0.5,343,0,108,_Remix_Guitar,6,8,watasino Stems,0.3703472316265106,0
58,100,1.3772727272727272,633,1,108,_Remix_Guitar,6,15,watasino Stems,0.4561713635921478,0
63,100,0.4,713,1,109,_Remix_Guitar,6,6,watasino Stems,0.9983232617378235,1
63,100,0.21818181818181817,832,0,109,_Remix_Guitar,6,3,watasino Stems,0.5462220311164856,1
58,100,0.12272727272727273,47,1,110,_Remix_Guitar,6,2,watasino Stems,0.9986506104469299,1
70,100,0.4636363636363636,92,0,110,_Remix_Guitar,6,7,watasino Stems,0.08798077702522278,0
58,100,0.13636363636363635,260,0,110,_Remix_Guitar,6,2,watasino Stems,0.09298527240753174,0
63,100,0.759090909090909,506,1,110,_Remix_Guitar,6,12,watasino Stems,0.10994641482830048,0
58,100,0.3,695,0,110,_Remix_Guitar,6,5,watasino Stems,0.12867522239685059,0
63,100,0.21818181818181817,792,0,110,_Remix_Guitar,6,3,watasino Stems,0.18221627175807953,0
63,100,0.2,92,1,111,_Remix_Guitar,6,3,watasino Stems,0.9988439083099365,1
58,100,0.1,179,0,111,_Remix_Guitar,6,2,watasino Stems,0.137987419962883,0
63,100,0.13636363636363635,237,0,111,_Remix_Guitar,6,2,watasino Stems,0.16236664354801178,0
63,100,0.2818181818181818,377,0,111,_Remix_Guitar,6,5,watasino Stems,0.19106552004814148,0
63,100,0.42272727272727273,443,0,111,_Remix_Guitar,6,7,watasino Stems,0.2619776725769043,0
63,100,0.7227272727272728,443,1,112,_Remix_Guitar,6,12,watasino Stems,0.9990280866622925,1
62,100,0.1409090909090909,616,0,112,_Remix_Guitar,6,2,watasino Stems,0.3703426122665405,0
58,100,0.2818181818181818,770,0,112,_Remix_Guitar,6,5,watasino Stems,0.456182062625885,0
60,100,0.7818181818181819,839,1,113,_Remix_Guitar,6,13,watasino Stems,0.979223906993866,1
58,100,0.2,157,1,114,_Remix_Guitar,6,3,watasino Stems,0.9984880685806274,1
63,100,0.3409090909090909,206,0,114,_Remix_Guitar,6,5,watasino Stems,0.06335331499576569,0
63,100,0.4,312,0,114,_Remix_Guitar,6,6,watasino Stems,0.058289721608161926,0
70,100,0.1409090909090909,443,0,114,_Remix_Guitar,6,2,watasino Stems,0.06136598065495491,0
58,100,0.4,593,0,114,_Remix_Guitar,6,6,watasino Stems,0.07168547809123993,0
63,100,0.6,686,0,114,_Remix_Guitar,6,10,watasino Stems,0.08473814278841019,0
58,100,0.4590909090909091,826,0,114,_Remix_Guitar,6,7,watasino Stems,0.12635889649391174,0
63,100,0.6,294,1,115,_Remix_Guitar,6,10,watasino Stems,0.9986506104469299,1
63,100,0.3,449,0,115,_Remix_Guitar,6,5,watasino Stems,0.08798263967037201,0
55,100,0.4818181818181818,540,0,115,_Remix_Guitar,6,8,watasino Stems,0.09298760443925858,0
58,100,0.11818181818181818,656,0,115,_Remix_Guitar,6,2,watasino Stems,0.109953872859478,0
58,100,0.4,686,0,115,_Remix_Guitar,6,6,watasino Stems,0.12867452204227448,0
63,100,0.4409090909090909,792,0,115,_Remix_Guitar,6,7,watasino Stems,0.1822219341993332,0
58,100,0.43636363636363634,17,1,116,_Remix_Guitar,6,7,watasino Stems,0.9983736276626587,1
60,100,0.6227272727272727,123,0,116,_Remix_Guitar,6,10,watasino Stems,0.05104948952794075,0
58,100,0.4590909090909091,263,0,116,_Remix_Guitar,6,7,watasino Stems,0.04161207005381584,0
63,100,0.5590909090909091,370,0,116,_Remix_Guitar,6,9,watasino Stems,0.037980034947395325,0
63,100,0.23636363636363636,546,0,116,_Remix_Guitar,6,4,watasino Stems,0.0392601452767849,0
58,100,0.5409090909090909,606,0,116,_Remix_Guitar,6,9,watasino Stems,0.04616682603955269,0
58,100,0.4,760,0,116,_Remix_Guitar,6,6,watasino Stems,0.05713222175836563,0
65,100,0.4409090909090909,866,0,116,_Remix_Guitar,6,7,watasino Stems,0.09187901020050049,0
62,100,0.5181818181818182,87,1,117,_Remix_Guitar,6,8,watasino Stems,0.9988439083099365,1
55,100,0.4,242,0,117,_Remix_Guitar,6,6,watasino Stems,0.13798481225967407,0
63,100,1.059090909090909,453,0,117,_Remix_Guitar,6,15,watasino Stems,0.16236397624015808,0
55,100,0.4818181818181818,703,1,117,_Remix_Guitar,6,8,watasino Stems,0.1910606473684311,0
58,100,0.4772727272727273,823,0,117,_Remix_Guitar,6,8,watasino Stems,0.26196837425231934,0
63,100,0.4409090909090909,69,1,118,_Remix_Guitar,6,7,watasino Stems,0.9983004927635193,1
58,100,0.5181818181818182,176,0,118,_Remix_Guitar,6,8,watasino Stems,0.04466351121664047,0
53,100,0.1590909090909091,303,0,118,_Remix_Guitar,6,3,watasino Stems,0.03337203338742256,0
53,100,0.3,343,0,118,_Remix_Guitar,6,5,watasino Stems,0.02694830670952797,0
58,100,0.41818181818181815,417,0,118,_Remix_Guitar,6,7,watasino Stems,0.02408442273736,0
62,100,0.5818181818181818,527,0,118,_Remix_Guitar,6,9,watasino Stems,0.024972964078187943,0
58,100,0.1409090909090909,663,0,118,_Remix_Guitar,6,2,watasino Stems,0.030649226158857346,0
62,100,0.2636363636363636,707,0,118,_Remix_Guitar,6,4,watasino Stems,0.0413702130317688,0
63,100,0.1,857,0,118,_Remix_Guitar,6,2,watasino Stems,0.0720701515674591,0
58,100,0.11818181818181818,17,1,119,_Remix_Guitar,6,2,watasino Stems,0.9983736276626587,1
63,100,0.7,119,0,119,_Remix_Guitar,6,11,watasino Stems,0.05104983225464821,0
63,100,0.11818181818181818,326,0,119,_Remix_Guitar,6,2,watasino Stems,0.04161272197961807,0
55,100,0.4409090909090909,396,0,119,_Remix_Guitar,6,7,watasino Stems,0.037980567663908005,0
58,100,0.4590909090909091,502,0,119,_Remix_Guitar,6,7,watasino Stems,0.03926089406013489,0
63,100,0.5772727272727273,612,0,119,_Remix_Guitar,6,9,watasino Stems,0.04616493359208107,0
58,100,0.41818181818181815,743,0,119,_Remix_Guitar,6,7,watasino Stems,0.05713414028286934,0
55,100,0.4409090909090909,866,0,119,_Remix_Guitar,6,7,watasino Stems,0.09188052266836166,0
63,100,0.5,216,1,120,_Remix_Guitar,6,8,watasino Stems,0.9986506104469299,1
58,100,0.5,330,0,120,_Remix_Guitar,6,8,watasino Stems,0.08798389881849289,0
56,100,0.2409090909090909,466,0,120,_Remix_Guitar,6,4,watasino Stems,0.09299053996801376,0
56,100,0.7,523,0,120,_Remix_Guitar,6,11,watasino Stems,0.10995345562696457,0
63,100,0.5409090909090909,695,0,120,_Remix_Guitar,6,9,watasino Stems,0.12868405878543854,0
58,100,0.4,826,0,120,_Remix_Guitar,6,6,watasino Stems,0.18223296105861664,0
56,100,0.5181818181818182,53,1,121,_Remix_Guitar,6,8,watasino Stems,0.9983735084533691,1
58,100,0.2,176,0,121,_Remix_Guitar,6,3,watasino Stems,0.05105096474289894,0
58,100,0.3,223,0,121,_Remix_Guitar,6,5,watasino Stems,0.04161262512207031,0
58,100,0.3,436,0,121,_Remix_Guitar,6,5,watasino Stems,0.03798095881938934,0
56,100,0.3409090909090909,585,0,121,_Remix_Guitar,6,5,watasino Stems,0.039261117577552795,0
56,100,0.1590909090909091,734,0,121,_Remix_Guitar,6,3,watasino Stems,0.046167246997356415,0
56,100,0.2,810,0,121,_Remix_Guitar,6,3,watasino Stems,0.05713454261422157,0
56,100,0.1409090909090909,857,0,121,_Remix_Guitar,6,2,watasino Stems,0.0918813943862915,0
58,100,0.3,43,1,122,_Remix_Guitar,6,5,watasino Stems,0.9983004927635193,1
56,100,0.1,136,0,122,_Remix_Guitar,6,2,watasino Stems,0.04466129466891289,0
55,100,0.2,193,0,122,_Remix_Guitar,6,3,watasino Stems,0.033371586352586746,0
58,100,0.1409090909090909,255,0,122,_Remix_Guitar,6,2,watasino Stems,0.026948129758238792,0
58,100,0.3409090909090909,289,0,122,_Remix_Guitar,6,5,watasino Stems,0.02408302202820778,0
63,100,0.5227272727272727,377,0,122,_Remix_Guitar,6,8,watasino Stems,0.02497219853103161,0
58,100,0.43636363636363634,502,0,122,_Remix_Guitar,6,7,watasino Stems,0.030647840350866318,0
58,100,1.018181818181818,624,0,122,_Remix_Guitar,6,15,watasino Stems,0.04136957228183746,0
63,100,0.5590909090909091,849,0,122,_Remix_Guitar,6,9,watasino Stems,0.07207071036100388,0
62,100,0.6227272727272727,92,1,123,_Remix_Guitar,6,10,watasino Stems,0.9988439083099365,1
62,100,0.4,255,0,123,_Remix_Guitar,6,6,watasino Stems,0.13798245787620544,0
62,100,0.11818181818181818,370,0,123,_Remix_Guitar,6,2,watasino Stems,0.16236649453639984,0
58,100,0.1,593,0,123,_Remix_Guitar,6,2,watasino Stems,0.19106118381023407,0
58,100,0.2772727272727273,823,0,123,_Remix_Guitar,6,4,watasino Stems,0.2619766891002655,0
58,100,0.18181818181818182,66,1,125,_Remix_Guitar,6,3,watasino Stems,0.9986506104469299,1
58,100,0.3181818181818182,172,0,125,_Remix_Guitar,6,5,watasino Stems,0.08797909319400787,0
58,100,0.1,333,0,125,_Remix_Guitar,6,2,watasino Stems,0.09298177063465118,0
70,100,0.3,360,0,125,_Remix_Guitar,6,5,watasino Stems,0.10994650423526764,0
63,100,0.2772727272727273,502,0,125,_Remix_Guitar,6,4,watasino Stems,0.12866699695587158,0
58,100,0.1409090909090909,817,1,125,_Remix_Guitar,6,2,watasino Stems,0.18221697211265564,0
70,100,0.33636363636363636,17,1,126,_Remix_Guitar,6,5,watasino Stems,0.9984880685806274,1
70,100,0.2,132,0,126,_Remix_Guitar,6,3,watasino Stems,0.06335358321666718,0
70,100,0.1,210,0,126,_Remix_Guitar,6,2,watasino Stems,0.05828988179564476,0
70,100,0.2,282,0,126,_Remix_Guitar,6,3,watasino Stems,0.06136113405227661,0
70,100,0.5,356,0,126,_Remix_Guitar,6,8,watasino Stems,0.07168227434158325,0
62,100,0.17727272727272728,779,1,126,_Remix_Guitar,6,3,watasino Stems,0.08473477512598038,0
62,100,0.2,876,0,126,_Remix_Guitar,6,3,watasino Stems,0.12635375559329987,0
63,100,0.41818181818181815,316,1,127,_Remix_Guitar,6,7,watasino Stems,0.9983231425285339,1
70,100,0.2590909090909091,519,0,127,_Remix_Guitar,6,4,watasino Stems,0.5462235808372498,1
70,100,0.5590909090909091,128,1,128,_Remix_Guitar,6,9,watasino Stems,0.9986506104469299,1
58,100,0.2409090909090909,264,0,128,_Remix_Guitar,6,4,watasino Stems,0.0879799947142601,0
70,100,0.5409090909090909,427,0,128,_Remix_Guitar,6,9,watasino Stems,0.09298519790172577,0
70,100,0.11818181818181818,603,0,128,_Remix_Guitar,6,2,watasino Stems,0.1099480390548706,0
58,100,0.33636363636363636,633,0,128,_Remix_Guitar,6,5,watasino Stems,0.12867116928100586,0
62,100,0.7227272727272728,773,0,128,_Remix_Guitar,6,12,watasino Stems,0.18221351504325867,0
65,100,0.1,185,1,129,_Remix_Guitar,6,2,watasino Stems,0.9984879493713379,1
70,100,0.2818181818181818,211,0,129,_Remix_Guitar,6,5,watasino Stems,0.06335273385047913,0
65,100,0.1590909090909091,276,0,129,_Remix_Guitar,6,3,watasino Stems,0.058288805186748505,0
70,100,0.1409090909090909,311,0,129,_Remix_Guitar,6,2,watasino Stems,0.061363209038972855,0
70,100,1.1,356,0,129,_Remix_Guitar,6,15,watasino Stems,0.07168075442314148,0
58,100,0.1590909090909091,611,1,129,_Remix_Guitar,6,3,watasino Stems,0.08473540842533112,0
58,100,0.1,778,0,129,_Remix_Guitar,6,2,watasino Stems,0.12634900212287903,0
70,100,0.1,12,1,130,_Remix_Guitar,6,2,watasino Stems,0.9984880685806274,1
58,100,0.2,242,0,130,_Remix_Guitar,6,3,watasino Stems,0.06335219740867615,0
58,100,0.1,452,0,130,_Remix_Guitar,6,2,watasino Stems,0.058287136256694794,0
60,100,0.17727272727272728,501,0,130,_Remix_Guitar,6,3,watasino Stems,0.061358895152807236,0
58,100,0.3,606,0,130,_Remix_Guitar,6,5,watasino Stems,0.07167965918779373,0
70,100,0.1,690,0,130,_Remix_Guitar,6,2,watasino Stems,0.08473000675439835,0
58,100,0.2636363636363636,818,0,130,_Remix_Guitar,6,4,watasino Stems,0.12634922564029694,0
63,100,0.1,158,1,131,_Remix_Guitar,6,2,watasino Stems,0.9983004927635193,1
63,100,0.1409090909090909,211,0,131,_Remix_Guitar,6,2,watasino Stems,0.044661764055490494,0
58,100,0.17727272727272728,250,0,131,_Remix_Guitar,6,3,watasino Stems,0.03337336704134941,0
58,100,0.35909090909090907,364,0,131,_Remix_Guitar,6,6,watasino Stems,0.026948440819978714,0
70,100,0.12272727272727273,466,0,131,_Remix_Guitar,6,2,watasino Stems,0.024084746837615967,0
70,100,0.7818181818181819,496,0,131,_Remix_Guitar,6,13,watasino Stems,0.024972347542643547,0
70,100,0.2,747,1,131,_Remix_Guitar,6,3,watasino Stems,0.030648216605186462,0
70,100,0.18181818181818182,814,0,131,_Remix_Guitar,6,3,watasino Stems,0.041368983685970306,0
65,100,0.1409090909090909,861,0,131,_Remix_Guitar,6,2,watasino Stems,0.07207013666629791,0
70,100,0.3409090909090909,140,1,132,_Remix_Guitar,6,5,watasino Stems,0.9990280866622925,1
70,100,0.18181818181818182,220,0,132,_Remix_Guitar,6,3,watasino Stems,0.37033939361572266,0
70,100,0.11818181818181818,264,0,132,_Remix_Guitar,6,2,watasino Stems,0.45616012811660767,0
58,100,0.3,83,1,133,_Remix_Guitar,6,5,watasino Stems,0.9990094900131226,1
58,100,0.1,189,0,133,_Remix_Guitar,6,2,watasino Stems,0.23322555422782898,0
58,100,0.18181818181818182,400,0,133,_Remix_Guitar,6,3,watasino Stems,0.2705777883529663,0
70,100,0.12272727272727273,553,0,133,_Remix_Guitar,6,2,watasino Stems,0.35792645812034607,0
60,100,0.11818181818181818,140,1,134,_Remix_Guitar,6,2,watasino Stems,0.9983232617378235,1
63,100,1.2,611,1,134,_Remix_Guitar,6,15,watasino Stems,0.5462040901184082,1
63,100,0.4818181818181818,0,1,135,_Remix_Guitar,6,8,watasino Stems,0.9990094900131226,1
70,100,0.1,268,1,135,_Remix_Guitar,6,2,watasino Stems,0.23322944343090057,0
70,100,0.18181818181818182,598,1,135,_Remix_Guitar,6,3,watasino Stems,0.27058184146881104,0
58,100,0.17727272727272728,656,0,135,_Remix_Guitar,6,3,watasino Stems,0.35792768001556396,0
58,100,0.11818181818181818,18,1,136,_Remix_Guitar,6,2,watasino Stems,0.9983735084533691,1
58,100,0.2,122,0,136,_Remix_Guitar,6,3,watasino Stems,0.051048632711172104,0
70,100,0.3181818181818182,238,0,136,_Remix_Guitar,6,5,watasino Stems,0.04161081835627556,0
63,100,0.18181818181818182,421,0,136,_Remix_Guitar,6,3,watasino Stems,0.03797784075140953,0
58,100,0.11818181818181818,493,0,136,_Remix_Guitar,6,2,watasino Stems,0.03925935551524162,0
58,100,0.4409090909090909,541,0,136,_Remix_Guitar,6,7,watasino Stems,0.04616419970989227,0
63,100,0.1409090909090909,682,0,136,_Remix_Guitar,6,2,watasino Stems,0.05713044852018356,0
63,100,0.1590909090909091,721,0,136,_Remix_Guitar,6,3,watasino Stems,0.09187956899404526,0
58,100,0.1409090909090909,166,1,137,_Remix_Guitar,6,2,watasino Stems,0.9990094900131226,1
58,100,0.1,378,0,137,_Remix_Guitar,6,2,watasino Stems,0.23322917520999908,0
58,100,0.7818181818181819,553,0,137,_Remix_Guitar,6,13,watasino Stems,0.2705809473991394,0
63,100,0.21818181818181817,747,0,137,_Remix_Guitar,6,3,watasino Stems,0.35792243480682373,0
58,100,0.18181818181818182,3,1,138,_Remix_Guitar,6,3,watasino Stems,0.9990280866622925,1
58,100,0.6409090909090909,185,0,138,_Remix_Guitar,6,10,watasino Stems,0.37033796310424805,0
63,100,0.1409090909090909,409,0,138,_Remix_Guitar,6,2,watasino Stems,0.4561639130115509,0
58,100,0.1409090909090909,307,1,139,_Remix_Guitar,6,2,watasino Stems,0.9990280866622925,1
70,100,0.1,369,0,139,_Remix_Guitar,6,2,watasino Stems,0.3703431189060211,0
70,100,0.1,831,1,139,_Remix_Guitar,6,2,watasino Stems,0.4561663866043091,0
58,100,0.2,739,1,140,_Remix_Guitar,6,3,watasino Stems,0.9983232617378235,1
58,100,0.41818181818181815,800,0,140,_Remix_Guitar,6,7,watasino Stems,0.5462157130241394,1
58,100,0.2409090909090909,158,1,141,_Remix_Guitar,6,4,watasino Stems,0.9792246222496033,1
58,100,0.1,30,1,142,_Remix_Guitar,6,2,watasino Stems,0.9986507296562195,1
58,100,0.2590909090909091,110,0,142,_Remix_Guitar,6,4,watasino Stems,0.08797911554574966,0
58,100,0.2409090909090909,223,0,142,_Remix_Guitar,6,4,watasino Stems,0.09298502653837204,0
63,100,0.1,496,1,142,_Remix_Guitar,6,2,watasino Stems,0.10994627326726913,0
63,100,0.12272727272727273,576,0,142,_Remix_Guitar,6,2,watasino Stems,0.12867286801338196,0
63,100,0.1,792,0,142,_Remix_Guitar,6,2,watasino Stems,0.18221521377563477,0
58,100,0.17727272727272728,18,1,143,_Remix_Guitar,6,3,watasino Stems,0.9990094900131226,1
58,100,0.17727272727272728,140,0,143,_Remix_Guitar,6,3,watasino Stems,0.23322902619838715,0
58,100,0.2,326,0,143,_Remix_Guitar,6,3,watasino Stems,0.2705761790275574,0
58,100,0.17727272727272728,436,0,143,_Remix_Guitar,6,3,watasino Stems,0.3579232394695282,0
63,100,0.2,338,1,144,_Remix_Guitar,6,3,watasino Stems,0.9986506104469299,1
70,100,0.1590909090909091,409,0,144,_Remix_Guitar,6,3,watasino Stems,0.08798068761825562,0
58,100,0.2,505,0,144,_Remix_Guitar,6,3,watasino Stems,0.09298370033502579,0
58,100,0.1409090909090909,594,0,144,_Remix_Guitar,6,2,watasino Stems,0.10995008051395416,0
58,100,0.3409090909090909,735,0,144,_Remix_Guitar,6,5,watasino Stems,0.12866823375225067,0
58,100,0.2818181818181818,826,0,144,_Remix_Guitar,6,5,watasino Stems,0.18221591413021088,0
70,100,0.12272727272727273,553,1,145,_Remix_Guitar,6,2,watasino Stems,0.9983232617378235,1
58,100,0.11818181818181818,704,0,145,_Remix_Guitar,6,2,watasino Stems,0.5462169647216797,1
70,100,0.1,405,1,146,_Remix_Guitar,6,2,watasino Stems,0.9990280866622925,1
58,100,0.2409090909090909,431,0,146,_Remix_Guitar,6,4,watasino Stems,0.3703392744064331,0
58,100,0.2772727272727273,537,0,146,_Remix_Guitar,6,4,watasino Stems,0.4561654031276703,0
53,100,0.5818181818181818,532,1,0,_Guitar,6,9,Rocky,0.9990280866622925,1
55,100,0.17727272727272728,722,0,0,_Guitar,6,3,Rocky,0.3703474998474121,0
53,100,0.3409090909090909,783,0,0,_Guitar,6,5,Rocky,0.45616233348846436,0
55,100,0.2409090909090909,47,1,1,_Guitar,6,4,Rocky,0.9983231425285339,1
60,100,0.2818181818181818,571,1,1,_Guitar,6,5,Rocky,0.5462210178375244,1
53,100,0.32272727272727275,144,1,2,_Guitar,6,5,Rocky,0.9983231425285339,1
53,100,0.3,272,0,2,_Guitar,6,5,Rocky,0.5462127327919006,1
53,100,0.4,3,1,3,_Guitar,6,6,Rocky,0.9988439083099365,1
55,100,0.2,189,0,3,_Guitar,6,3,Rocky,0.13797862827777863,0
53,100,0.5590909090909091,259,0,3,_Guitar,6,9,Rocky,0.16235890984535217,0
60,100,0.1409090909090909,717,1,3,_Guitar,6,2,Rocky,0.19105295836925507,0
60,100,0.1409090909090909,761,0,3,_Guitar,6,2,Rocky,0.26195886731147766,0
53,100,0.1590909090909091,496,1,4,_Guitar,6,3,Rocky,0.9983231425285339,1
53,100,0.22272727272727272,642,0,4,_Guitar,6,4,Rocky,0.5462196469306946,1
55,100,0.41818181818181815,352,1,5,_Guitar,6,7,Rocky,0.9988439083099365,1
53,100,0.6227272727272727,465,0,5,_Guitar,6,10,Rocky,0.13797979056835175,0
53,100,0.2409090909090909,637,0,5,_Guitar,6,4,Rocky,0.1623547375202179,0
53,100,0.1,695,0,5,_Guitar,6,2,Rocky,0.19105371832847595,0
55,100,0.2772727272727273,810,0,5,_Guitar,6,4,Rocky,0.26195576786994934,0
60,100,0.1,493,1,6,_Guitar,6,2,Rocky,0.9983232617378235,1
60,100,0.13636363636363635,721,0,6,_Guitar,6,2,Rocky,0.5462173223495483,1
53,100,0.2590909090909091,35,1,7,_Guitar,6,4,Rocky,0.9990280866622925,1
60,100,0.1,619,1,7,_Guitar,6,2,Rocky,0.3703429698944092,0
53,100,0.9,700,0,7,_Guitar,6,14,Rocky,0.45616474747657776,0
53,100,0.5818181818181818,87,1,8,_Guitar,6,9,Rocky,0.9990280866622925,1
55,100,0.3,285,0,8,_Guitar,6,5,Rocky,0.3703414797782898,0
55,100,0.2409090909090909,804,1,8,_Guitar,6,4,Rocky,0.45616698265075684,0
53,100,0.21818181818181817,127,1,9,_Guitar,6,3,Rocky,0.9990280866622925,1
53,100,0.3181818181818182,326,0,9,_Guitar,6,5,Rocky,0.3703363239765167,0
53,100,0.3,443,0,9,_Guitar,6,5,Rocky,0.4561716616153717,0
60,100,0.2,369,1,10,_Guitar,6,3,Rocky,0.9990094900131226,1
53,100,0.3181818181818182,436,0,10,_Guitar,6,5,Rocky,0.2332354635000229,0
55,100,0.5181818181818182,505,0,10,_Guitar,6,8,Rocky,0.27057987451553345,0
55,100,0.37727272727272726,625,0,10,_Guitar,6,6,Rocky,0.3579264283180237,0
65,100,0.2772727272727273,17,1,11,_Guitar,6,4,Rocky,0.9984879493713379,1
55,100,0.6,158,0,11,_Guitar,6,10,Rocky,0.0633537545800209,0
55,100,0.12272727272727273,343,0,11,_Guitar,6,2,Rocky,0.0582890659570694,0
55,100,0.32272727272727275,409,0,11,_Guitar,6,5,Rocky,0.06136036664247513,0
60,100,0.2818181818181818,541,0,11,_Guitar,6,5,Rocky,0.0716814398765564,0
60,100,0.1590909090909091,629,0,11,_Guitar,6,3,Rocky,0.08473392575979233,0
55,100,0.3181818181818182,677,0,11,_Guitar,6,5,Rocky,0.12634603679180145,0
60,100,0.13636363636363635,391,1,12,_Guitar,6,2,Rocky,0.9986506104469299,1
60,100,0.17727272727272728,426,0,12,_Guitar,6,3,Rocky,0.08797913789749146,0
55,100,0.1409090909090909,515,0,12,_Guitar,6,2,Rocky,0.09298329800367355,0
55,100,0.6590909090909091,572,0,12,_Guitar,6,11,Rocky,0.10994543135166168,0
53,100,0.35909090909090907,770,0,12,_Guitar,6,6,Rocky,0.12866714596748352,0
55,100,0.35909090909090907,854,0,12,_Guitar,6,6,Rocky,0.18221354484558105,0
65,100,0.2,378,1,13,_Guitar,6,3,Rocky,0.9792238473892212,1
65,100,0.1590909090909091,17,1,14,_Guitar,6,3,Rocky,0.9990094900131226,1
55,100,0.1409090909090909,101,0,14,_Guitar,6,2,Rocky,0.2332397848367691,0
55,100,0.8590909090909091,149,0,14,_Guitar,6,14,Rocky,0.2705899178981781,0
60,100,2.081818181818182,343,0,14,_Guitar,6,15,Rocky,0.35792046785354614,0
53,100,0.17727272727272728,810,1,25,_Guitar,6,3,Rocky,0.9983231425285339,1
53,100,0.17727272727272728,853,0,25,_Guitar,6,3,Rocky,0.5462154150009155,1
53,100,0.13636363636363635,17,1,26,_Guitar,6,2,Rocky,0.9792238473892212,1
53,100,0.1,839,1,27,_Guitar,6,2,Rocky,0.9792236089706421,1
53,100,0.1409090909090909,9,1,28,_Guitar,6,2,Rocky,0.9988439083099365,1
53,100,0.3,61,0,28,_Guitar,6,5,Rocky,0.13797880709171295,0
53,100,0.5590909090909091,144,0,28,_Guitar,6,9,Rocky,0.16236209869384766,0
53,100,0.8227272727272728,277,0,28,_Guitar,6,13,Rocky,0.19105114042758942,0
53,100,1.3227272727272728,466,0,28,_Guitar,6,15,Rocky,0.2619568705558777,0
53,100,0.7636363636363637,443,1,29,_Guitar,6,12,Rocky,0.9983231425285339,1
53,100,0.11818181818181818,615,0,29,_Guitar,6,2,Rocky,0.546217143535614,1
57,100,0.23636363636363636,150,1,45,_Guitar,6,4,Rocky,0.9990094900131226,1
60,100,0.6,201,0,45,_Guitar,6,10,Rocky,0.233236625790596,0
60,100,0.18181818181818182,791,1,45,_Guitar,6,3,Rocky,0.27058371901512146,0
57,100,0.1590909090909091,875,0,45,_Guitar,6,3,Rocky,0.3579278290271759,0
57,100,0.4,53,1,46,_Guitar,6,6,Rocky,0.9792234897613525,1
60,100,0.4590909090909091,721,1,48,_Guitar,6,7,Rocky,0.9792242646217346,1
60,100,0.4,370,1,49,_Guitar,6,6,Rocky,0.9990280866622925,1
60,100,0.18181818181818182,474,0,49,_Guitar,6,3,Rocky,0.3703395128250122,0
55,100,0.11818181818181818,691,0,49,_Guitar,6,2,Rocky,0.4561713635921478,0
55,100,0.2818181818181818,179,1,50,_Guitar,6,5,Rocky,0.9990280866622925,1
55,100,0.1409090909090909,246,0,50,_Guitar,6,2,Rocky,0.3703383803367615,0
55,100,0.1409090909090909,686,1,50,_Guitar,6,2,Rocky,0.4561662971973419,0
60,100,0.5590909090909091,198,1,51,_Guitar,6,9,Rocky,0.9983232617378235,1
60,100,0.2409090909090909,756,1,51,_Guitar,6,4,Rocky,0.5462202429771423,1
60,100,0.5636363636363636,378,1,52,_Guitar,6,9,Rocky,0.9792243838310242,1
60,100,0.2818181818181818,21,1,53,_Guitar,6,5,Rocky,0.9988439083099365,1
55,100,1.0227272727272727,144,0,53,_Guitar,6,15,Rocky,0.137980654835701,0
60,100,0.4590909090909091,558,1,53,_Guitar,6,7,Rocky,0.1623656004667282,0
55,100,0.17727272727272728,678,0,53,_Guitar,6,3,Rocky,0.19105693697929382,0
55,100,0.6409090909090909,726,0,53,_Guitar,6,10,Rocky,0.2619566023349762,0
60,100,0.5818181818181818,198,1,54,_Guitar,6,9,Rocky,0.9990096092224121,1
55,100,0.33636363636363636,325,0,54,_Guitar,6,5,Rocky,0.2332327514886856,0
55,100,0.2818181818181818,431,0,54,_Guitar,6,5,Rocky,0.27057966589927673,0
60,100,0.5,721,1,54,_Guitar,6,8,Rocky,0.3579237759113312,0
55,100,0.4,716,1,55,_Guitar,6,6,Rocky,0.9792240262031555,1
57,100,0.6181818181818182,875,1,62,_Guitar,6,10,Rocky,0.9792237281799316,1
60,100,0.6409090909090909,188,1,63,_Guitar,6,10,Rocky,0.9990280866622925,1
57,100,0.3409090909090909,334,0,63,_Guitar,6,5,Rocky,0.37033993005752563,0
60,100,0.6590909090909091,716,1,63,_Guitar,6,11,Rocky,0.45617374777793884,0
60,100,0.4,13,1,64,_Guitar,6,6,Rocky,0.9983736276626587,1
55,100,0.2772727272727273,106,0,64,_Guitar,6,4,Rocky,0.05104976147413254,0
57,100,0.2409090909090909,179,0,64,_Guitar,6,4,Rocky,0.04161208122968674,0
60,100,0.6227272727272727,365,0,64,_Guitar,6,10,Rocky,0.037980105727910995,0
60,100,0.1590909090909091,546,0,64,_Guitar,6,3,Rocky,0.03926100209355354,0
55,100,0.37727272727272726,612,0,64,_Guitar,6,6,Rocky,0.046165093779563904,0
55,100,0.42272727272727273,760,0,64,_Guitar,6,7,Rocky,0.05713196471333504,0
55,100,0.1,866,0,64,_Guitar,6,2,Rocky,0.09188009053468704,0
60,100,0.6409090909090909,22,1,65,_Guitar,6,10,Rocky,0.9990094900131226,1
55,100,0.6818181818181818,197,0,65,_Guitar,6,11,Rocky,0.2332334816455841,0
60,100,0.6590909090909091,540,1,65,_Guitar,6,11,Rocky,0.2705906331539154,0
57,100,0.5409090909090909,686,0,65,_Guitar,6,9,Rocky,0.3579217195510864,0
59,100,0.6409090909090909,47,1,66,_Guitar,6,10,Rocky,0.9990280866622925,1
60,100,1.540909090909091,189,0,66,_Guitar,6,15,Rocky,0.37034228444099426,0
55,100,0.5818181818181818,870,1,66,_Guitar,6,9,Rocky,0.45617055892944336,0
55,100,0.11818181818181818,153,1,67,_Guitar,6,2,Rocky,0.9988439083099365,1
55,100,0.1590909090909091,233,0,67,_Guitar,6,3,Rocky,0.13798193633556366,0
60,100,0.33636363636363636,370,0,67,_Guitar,6,5,Rocky,0.16236759722232819,0
55,100,0.8772727272727273,502,0,67,_Guitar,6,14,Rocky,0.1910511702299118,0
53,100,0.22272727272727272,805,1,67,_Guitar,6,4,Rocky,0.2619686424732208,0
60,100,0.8772727272727273,9,1,68,_Guitar,6,14,Rocky,0.9988439083099365,1
57,100,0.38181818181818183,202,0,68,_Guitar,6,6,Rocky,0.13797850906848907,0
53,100,0.2409090909090909,294,0,68,_Guitar,6,4,Rocky,0.16235913336277008,0
60,100,1.0,540,1,68,_Guitar,6,15,Rocky,0.1910550743341446,0
59,100,0.17727272727272728,779,1,68,_Guitar,6,3,Rocky,0.26196086406707764,0
59,100,0.1409090909090909,100,1,69,_Guitar,6,2,Rocky,0.9988439083099365,1
60,100,0.6,189,0,69,_Guitar,6,10,Rocky,0.13798385858535767,0
55,100,0.9,339,0,69,_Guitar,6,14,Rocky,0.16236363351345062,0
60,100,0.5409090909090909,726,1,69,_Guitar,6,9,Rocky,0.1910584717988968,0
55,100,0.8590909090909091,866,0,69,_Guitar,6,14,Rocky,0.2619640529155731,0
57,100,0.2,184,1,70,_Guitar,6,3,Rocky,0.9984880685806274,1
60,100,0.37727272727272726,360,0,70,_Guitar,6,6,Rocky,0.06335261464118958,0
57,100,0.16363636363636364,443,0,70,_Guitar,6,3,Rocky,0.0582893043756485,0
60,100,0.11818181818181818,483,0,70,_Guitar,6,2,Rocky,0.06136210262775421,0
57,100,0.2,519,0,70,_Guitar,6,3,Rocky,0.07168222963809967,0
53,100,0.1590909090909091,580,0,70,_Guitar,6,3,Rocky,0.0847361832857132,0
59,100,0.5227272727272727,773,0,70,_Guitar,6,8,Rocky,0.12635457515716553,0
60,100,1.1,13,1,71,_Guitar,6,15,Rocky,0.9988439083099365,1
55,100,0.759090909090909,365,1,71,_Guitar,6,12,Rocky,0.137984499335289,0
60,100,0.5818181818181818,540,0,71,_Guitar,6,9,Rocky,0.1623736321926117,0
55,100,0.2590909090909091,682,0,71,_Guitar,6,4,Rocky,0.19106289744377136,0
55,100,1.981818181818182,870,0,71,_Guitar,6,15,Rocky,0.26195213198661804,0
61,100,0.1590909090909091,541,1,0,DL_Guitar,6,3,sinjyufujin_warm_ruriko_Stems,0.9792232513427734,1
53,100,0.13636363636363635,172,1,1,DL_Guitar,6,2,sinjyufujin_warm_ruriko_Stems,0.9983231425285339,1
53,100,0.16363636363636364,224,0,1,DL_Guitar,6,3,sinjyufujin_warm_ruriko_Stems,0.5462128520011902,1
56,100,0.2772727272727273,625,1,2,DL_Guitar,6,4,sinjyufujin_warm_ruriko_Stems,0.9792238473892212,1
80,100,0.12272727272727273,223,1,3,DL_Guitar,6,2,sinjyufujin_warm_ruriko_Stems,0.9983231425285339,1
53,100,0.38181818181818183,461,1,3,DL_Guitar,6,6,sinjyufujin_warm_ruriko_Stems,0.5462129712104797,1
61,100,0.12272727272727273,818,1,4,DL_Guitar,6,2,sinjyufujin_warm_ruriko_Stems,0.9792236089706421,1
61,100,0.16363636363636364,179,1,5,DL_Guitar,6,3,sinjyufujin_warm_ruriko_Stems,0.9986506104469299,1
65,100,0.11818181818181818,215,0,5,DL_Guitar,6,2,sinjyufujin_warm_ruriko_Stems,0.08797919750213623,0
61,100,0.2,260,0,5,DL_Guitar,6,3,sinjyufujin_warm_ruriko_Stems,0.09298515319824219,0
61,100,0.2818181818181818,355,0,5,DL_Guitar,6,5,sinjyufujin_warm_ruriko_Stems,0.1099509671330452,0
65,100,0.1409090909090909,581,0,5,DL_Guitar,6,2,sinjyufujin_warm_ruriko_Stems,0.1286741942167282,0
61,100,0.4590909090909091,660,0,5,DL_Guitar,6,7,sinjyufujin_warm_ruriko_Stems,0.18221832811832428,0
61,100,0.16363636363636364,201,1,6,DL_Guitar,6,3,sinjyufujin_warm_ruriko_Stems,0.9986506104469299,1
66,100,0.4818181818181818,268,0,6,DL_Guitar,6,8,sinjyufujin_warm_ruriko_Stems,0.0879792720079422,0
61,100,0.11818181818181818,383,0,6,DL_Guitar,6,2,sinjyufujin_warm_ruriko_Stems,0.09298404306173325,0
66,100,0.1590909090909091,475,0,6,DL_Guitar,6,3,sinjyufujin_warm_ruriko_Stems,0.10995402187108994,0
61,100,0.5409090909090909,703,0,6,DL_Guitar,6,9,sinjyufujin_warm_ruriko_Stems,0.12867115437984467,0
61,100,0.12272727272727273,839,0,6,DL_Guitar,6,2,sinjyufujin_warm_ruriko_Stems,0.1822194755077362,0
53,100,0.17727272727272728,734,1,7,DL_Guitar,6,3,sinjyufujin_warm_ruriko_Stems,0.9792237281799316,1
56,100,0.18181818181818182,598,1,8,DL_Guitar,6,3,sinjyufujin_warm_ruriko_Stems,0.979223906993866,1
54,100,0.1590909090909091,374,1,9,DL_Guitar,6,3,sinjyufujin_warm_ruriko_Stems,0.9990280866622925,1
54,100,0.11818181818181818,426,0,9,DL_Guitar,6,2,sinjyufujin_warm_ruriko_Stems,0.37034356594085693,0
54,100,0.5227272727272727,849,1,9,DL_Guitar,6,8,sinjyufujin_warm_ruriko_Stems,0.45616915822029114,0
56,100,0.5,660,1,10,DL_Guitar,6,8,sinjyufujin_warm_ruriko_Stems,0.9983231425285339,1
53,100,0.11818181818181818,823,0,10,DL_Guitar,6,2,sinjyufujin_warm_ruriko_Stems,0.5462165474891663,1
61,100,0.17727272727272728,338,1,11,DL_Guitar,6,3,sinjyufujin_warm_ruriko_Stems,0.9990094900131226,1
61,100,0.1,391,0,11,DL_Guitar,6,2,sinjyufujin_warm_ruriko_Stems,0.2332310527563095,0
54,100,0.1409090909090909,505,0,11,DL_Guitar,6,2,sinjyufujin_warm_ruriko_Stems,0.27058401703834534,0
54,100,0.5636363636363636,575,0,11,DL_Guitar,6,9,sinjyufujin_warm_ruriko_Stems,0.3579292595386505,0
54,100,0.21818181818181817,501,1,12,DL_Guitar,6,3,sinjyufujin_warm_ruriko_Stems,0.9983231425285339,1
53,100,0.2590909090909091,550,0,12,DL_Guitar,6,4,sinjyufujin_warm_ruriko_Stems,0.546207845211029,1
56,100,0.2409090909090909,8,1,13,DL_Guitar,6,4,sinjyufujin_warm_ruriko_Stems,0.9990280866622925,1
61,100,0.4409090909090909,527,1,13,DL_Guitar,6,7,sinjyufujin_warm_ruriko_Stems,0.37033534049987793,0
61,100,0.12272727272727273,642,0,13,DL_Guitar,6,2,sinjyufujin_warm_ruriko_Stems,0.4561689794063568,0
56,100,0.2590909090909091,44,1,14,DL_Guitar,6,4,sinjyufujin_warm_ruriko_Stems,0.9990094900131226,1
56,100,0.37727272727272726,391,1,14,DL_Guitar,6,6,sinjyufujin_warm_ruriko_Stems,0.2332301139831543,0
60,100,0.12272727272727273,510,0,14,DL_Guitar,6,2,sinjyufujin_warm_ruriko_Stems,0.2705932855606079,0
56,100,0.4,801,1,14,DL_Guitar,6,6,sinjyufujin_warm_ruriko_Stems,0.35791730880737305,0
56,100,0.1590909090909091,118,1,15,DL_Guitar,6,3,sinjyufujin_warm_ruriko_Stems,0.9990280866622925,1
56,100,0.2409090909090909,166,0,15,DL_Guitar,6,4,sinjyufujin_warm_ruriko_Stems,0.3703485131263733,0
68,100,0.21818181818181817,634,1,15,DL_Guitar,6,3,sinjyufujin_warm_ruriko_Stems,0.45616188645362854,0
54,100,0.2,123,1,16,DL_Guitar,6,3,sinjyufujin_warm_ruriko_Stems,0.9988439083099365,1
61,100,0.2,466,1,16,DL_Guitar,6,3,sinjyufujin_warm_ruriko_Stems,0.13798099756240845,0
53,100,0.1,540,0,16,DL_Guitar,6,2,sinjyufujin_warm_ruriko_Stems,0.16236308217048645,0
61,100,0.43636363636363634,677,0,16,DL_Guitar,6,7,sinjyufujin_warm_ruriko_Stems,0.1910523921251297,0
61,100,0.1,835,0,16,DL_Guitar,6,2,sinjyufujin_warm_ruriko_Stems,0.2619611918926239,0
61,100,0.35909090909090907,0,1,17,DL_Guitar,6,6,sinjyufujin_warm_ruriko_Stems,0.9986506104469299,1
61,100,0.1590909090909091,96,0,17,DL_Guitar,6,3,sinjyufujin_warm_ruriko_Stems,0.0879792720079422,0
63,100,0.1409090909090909,272,0,17,DL_Guitar,6,2,sinjyufujin_warm_ruriko_Stems,0.09298736602067947,0
56,100,0.17727272727272728,470,0,17,DL_Guitar,6,3,sinjyufujin_warm_ruriko_Stems,0.10995419323444366,0
56,100,0.2772727272727273,515,0,17,DL_Guitar,6,4,sinjyufujin_warm_ruriko_Stems,0.12867705523967743,0
56,100,0.17727272727272728,810,1,17,DL_Guitar,6,3,sinjyufujin_warm_ruriko_Stems,0.18222111463546753,0
56,100,0.12272727272727273,13,1,18,DL_Guitar,6,2,sinjyufujin_warm_ruriko_Stems,0.9982282519340515,1
56,100,0.11818181818181818,44,0,18,DL_Guitar,6,2,sinjyufujin_warm_ruriko_Stems,0.03940286114811897,0
61,100,0.16363636363636364,92,0,18,DL_Guitar,6,3,sinjyufujin_warm_ruriko_Stems,0.02685534581542015,0
53,100,0.1590909090909091,272,0,18,DL_Guitar,6,3,sinjyufujin_warm_ruriko_Stems,0.018831297755241394,0
61,100,0.1590909090909091,360,0,18,DL_Guitar,6,3,sinjyufujin_warm_ruriko_Stems,0.013654652051627636,0
54,100,0.12272727272727273,453,0,18,DL_Guitar,6,2,sinjyufujin_warm_ruriko_Stems,0.010813362896442413,0
54,100,0.38181818181818183,484,0,18,DL_Guitar,6,6,sinjyufujin_warm_ruriko_Stems,0.010073620826005936,0
61,100,0.2772727272727273,581,0,18,DL_Guitar,6,4,sinjyufujin_warm_ruriko_Stems,0.01171649619936943,0
54,100,0.2,650,0,18,DL_Guitar,6,3,sinjyufujin_warm_ruriko_Stems,0.01699332892894745,0
54,100,0.1590909090909091,712,0,18,DL_Guitar,6,3,sinjyufujin_warm_ruriko_Stems,0.027579858899116516,0
61,100,0.1409090909090909,752,0,18,DL_Guitar,6,2,sinjyufujin_warm_ruriko_Stems,0.054593026638031006,0
61,100,0.13636363636363635,216,1,19,DL_Guitar,6,2,sinjyufujin_warm_ruriko_Stems,0.9990279674530029,1
61,100,0.43636363636363634,281,0,19,DL_Guitar,6,7,sinjyufujin_warm_ruriko_Stems,0.37033799290657043,0
63,100,0.2590909090909091,700,1,19,DL_Guitar,6,4,sinjyufujin_warm_ruriko_Stems,0.4561830163002014,0
61,100,0.5,193,1,20,DL_Guitar,6,8,sinjyufujin_warm_ruriko_Stems,0.9990280866622925,1
60,100,0.11818181818181818,501,1,20,DL_Guitar,6,2,sinjyufujin_warm_ruriko_Stems,0.37034615874290466,0
61,100,0.18181818181818182,835,1,20,DL_Guitar,6,3,sinjyufujin_warm_ruriko_Stems,0.4561656415462494,0
63,100,0.2,497,1,21,DL_Guitar,6,3,sinjyufujin_warm_ruriko_Stems,0.9792240262031555,1
61,100,0.1409090909090909,581,1,22,DL_Guitar,6,2,sinjyufujin_warm_ruriko_Stems,0.9990280866622925,1
61,100,0.2409090909090909,638,0,22,DL_Guitar,6,4,sinjyufujin_warm_ruriko_Stems,0.3703353703022003,0
61,100,0.2409090909090909,735,0,22,DL_Guitar,6,4,sinjyufujin_warm_ruriko_Stems,0.45616570115089417,0
56,100,0.22272727272727272,233,1,23,DL_Guitar,6,4,sinjyufujin_warm_ruriko_Stems,0.9792234897613525,1
61,100,0.21818181818181817,339,1,24,DL_Guitar,6,3,sinjyufujin_warm_ruriko_Stems,0.9988439083099365,1
61,100,0.43636363636363634,413,0,24,DL_Guitar,6,7,sinjyufujin_warm_ruriko_Stems,0.13798335194587708,0
61,100,0.5772727272727273,625,0,24,DL_Guitar,6,9,sinjyufujin_warm_ruriko_Stems,0.1623680144548416,0
61,100,0.11818181818181818,770,0,24,DL_Guitar,6,2,sinjyufujin_warm_ruriko_Stems,0.1910620778799057,0
61,100,0.5818181818181818,835,0,24,DL_Guitar,6,9,sinjyufujin_warm_ruriko_Stems,0.2619648575782776,0
61,100,0.2409090909090909,88,1,25,DL_Guitar,6,4,sinjyufujin_warm_ruriko_Stems,0.9988439083099365,1
54,100,0.5409090909090909,144,0,25,DL_Guitar,6,9,sinjyufujin_warm_ruriko_Stems,0.13798460364341736,0
54,100,0.4,295,0,25,DL_Guitar,6,6,sinjyufujin_warm_ruriko_Stems,0.16236457228660583,0
54,100,0.5590909090909091,413,0,25,DL_Guitar,6,9,sinjyufujin_warm_ruriko_Stems,0.1910601258277893,0
54,100,0.11818181818181818,550,0,25,DL_Guitar,6,2,sinjyufujin_warm_ruriko_Stems,0.2619677484035492,0
57,100,0.1,272,1,26,DL_Guitar,6,2,sinjyufujin_warm_ruriko_Stems,0.9792241454124451,1
61,100,1.0636363636363637,26,1,27,DL_Guitar,6,15,sinjyufujin_warm_ruriko_Stems,0.9990094900131226,1
61,100,0.11818181818181818,339,1,27,DL_Guitar,6,2,sinjyufujin_warm_ruriko_Stems,0.23323547840118408,0
61,100,0.2,638,1,27,DL_Guitar,6,3,sinjyufujin_warm_ruriko_Stems,0.27057912945747375,0
61,100,0.4,773,0,27,DL_Guitar,6,6,sinjyufujin_warm_ruriko_Stems,0.35792773962020874,0
60,100,0.2590909090909091,250,1,28,DL_Guitar,6,4,sinjyufujin_warm_ruriko_Stems,0.9988439083099365,1
60,100,0.2590909090909091,382,0,28,DL_Guitar,6,4,sinjyufujin_warm_ruriko_Stems,0.1379813253879547,0
60,100,0.13636363636363635,457,0,28,DL_Guitar,6,2,sinjyufujin_warm_ruriko_Stems,0.1623658984899521,0
53,100,0.5772727272727273,501,0,28,DL_Guitar,6,9,sinjyufujin_warm_ruriko_Stems,0.19104959070682526,0
53,100,0.22272727272727272,673,0,28,DL_Guitar,6,4,sinjyufujin_warm_ruriko_Stems,0.26196467876434326,0
53,100,0.11818181818181818,0,1,29,DL_Guitar,6,2,sinjyufujin_warm_ruriko_Stems,0.9990094900131226,1
54,100,0.11818181818181818,611,1,29,DL_Guitar,6,2,sinjyufujin_warm_ruriko_Stems,0.23323312401771545,0
54,100,0.12272727272727273,686,0,29,DL_Guitar,6,2,sinjyufujin_warm_ruriko_Stems,0.27058669924736023,0
54,100,0.41818181818181815,725,0,29,DL_Guitar,6,7,sinjyufujin_warm_ruriko_Stems,0.35792669653892517,0
54,100,0.7181818181818181,65,1,30,DL_Guitar,6,11,sinjyufujin_warm_ruriko_Stems,0.9988439083099365,1
54,100,0.2,246,0,30,DL_Guitar,6,3,sinjyufujin_warm_ruriko_Stems,0.13798153400421143,0
53,100,0.23636363636363636,721,1,30,DL_Guitar,6,4,sinjyufujin_warm_ruriko_Stems,0.16236424446105957,0
60,100,0.1,787,0,30,DL_Guitar,6,2,sinjyufujin_warm_ruriko_Stems,0.1910565048456192,0
53,100,0.5363636363636364,831,0,30,DL_Guitar,6,9,sinjyufujin_warm_ruriko_Stems,0.2619583308696747,0
65,100,0.12272727272727273,100,1,31,DL_Guitar,6,2,sinjyufujin_warm_ruriko_Stems,0.9988439083099365,1
53,100,0.9181818181818182,127,0,31,DL_Guitar,6,15,sinjyufujin_warm_ruriko_Stems,0.13797883689403534,0
53,100,0.4,356,0,31,DL_Guitar,6,6,sinjyufujin_warm_ruriko_Stems,0.16236382722854614,0
61,100,0.4,488,0,31,DL_Guitar,6,6,sinjyufujin_warm_ruriko_Stems,0.19105485081672668,0
61,100,0.8,642,0,31,DL_Guitar,6,13,sinjyufujin_warm_ruriko_Stems,0.26195961236953735,0
61,100,0.18181818181818182,0,1,32,DL_Guitar,6,3,sinjyufujin_warm_ruriko_Stems,0.9988439083099365,1
61,100,0.13636363636363635,171,0,32,DL_Guitar,6,2,sinjyufujin_warm_ruriko_Stems,0.137983039021492,0
54,100,0.1409090909090909,453,1,32,DL_Guitar,6,2,sinjyufujin_warm_ruriko_Stems,0.16236984729766846,0
61,100,0.11818181818181818,668,0,32,DL_Guitar,6,2,sinjyufujin_warm_ruriko_Stems,0.19106170535087585,0
56,100,0.11818181818181818,845,0,32,DL_Guitar,6,2,sinjyufujin_warm_ruriko_Stems,0.26196587085723877,0
53,100,0.22272727272727272,211,1,33,DL_Guitar,6,4,sinjyufujin_warm_ruriko_Stems,0.9986506104469299,1
53,100,0.5409090909090909,321,0,33,DL_Guitar,6,9,sinjyufujin_warm_ruriko_Stems,0.08797843009233475,0
53,100,0.42272727272727273,444,0,33,DL_Guitar,6,7,sinjyufujin_warm_ruriko_Stems,0.09298224747180939,0
61,100,0.2590909090909091,633,0,33,DL_Guitar,6,4,sinjyufujin_warm_ruriko_Stems,0.10994675010442734,0
53,100,0.11818181818181818,713,0,33,DL_Guitar,6,2,sinjyufujin_warm_ruriko_Stems,0.12866893410682678,0
70,100,0.12272727272727273,774,0,33,DL_Guitar,6,2,sinjyufujin_warm_ruriko_Stems,0.1822177916765213,0
56,100,0.11818181818181818,31,1,34,DL_Guitar,6,2,sinjyufujin_warm_ruriko_Stems,0.9986506104469299,1
70,100,0.1,105,0,34,DL_Guitar,6,2,sinjyufujin_warm_ruriko_Stems,0.08798088133335114,0
54,100,0.18181818181818182,201,0,34,DL_Guitar,6,3,sinjyufujin_warm_ruriko_Stems,0.09298660606145859,0
54,100,0.6227272727272727,289,0,34,DL_Guitar,6,10,sinjyufujin_warm_ruriko_Stems,0.10994698852300644,0
54,100,0.1409090909090909,619,1,34,DL_Guitar,6,2,sinjyufujin_warm_ruriko_Stems,0.12866835296154022,0
54,100,0.3409090909090909,694,0,34,DL_Guitar,6,5,sinjyufujin_warm_ruriko_Stems,0.1822168081998825,0
61,100,0.11818181818181818,118,1,35,DL_Guitar,6,2,sinjyufujin_warm_ruriko_Stems,0.9984879493713379,1
53,100,0.2409090909090909,308,0,35,DL_Guitar,6,4,sinjyufujin_warm_ruriko_Stems,0.06335362792015076,0
53,100,0.4,421,0,35,DL_Guitar,6,6,sinjyufujin_warm_ruriko_Stems,0.0582895390689373,0
65,100,0.12272727272727273,509,0,35,DL_Guitar,6,2,sinjyufujin_warm_ruriko_Stems,0.06136161461472511,0
60,100,0.2,576,0,35,DL_Guitar,6,3,sinjyufujin_warm_ruriko_Stems,0.0716843381524086,0
60,100,0.1409090909090909,625,0,35,DL_Guitar,6,2,sinjyufujin_warm_ruriko_Stems,0.08473511040210724,0
53,100,1.018181818181818,691,0,35,DL_Guitar,6,15,sinjyufujin_warm_ruriko_Stems,0.1263468712568283,0
61,100,0.38181818181818183,69,1,36,DL_Guitar,6,6,sinjyufujin_warm_ruriko_Stems,0.9990280866622925,1
61,100,0.2636363636363636,356,1,36,DL_Guitar,6,4,sinjyufujin_warm_ruriko_Stems,0.37033554911613464,0
54,100,0.8227272727272728,421,0,36,DL_Guitar,6,13,sinjyufujin_warm_ruriko_Stems,0.4561710059642792,0
54,100,0.2409090909090909,153,1,37,DL_Guitar,6,4,sinjyufujin_warm_ruriko_Stems,0.9990094900131226,1
54,100,0.11818181818181818,238,0,37,DL_Guitar,6,2,sinjyufujin_warm_ruriko_Stems,0.233226016163826,0
54,100,0.1590909090909091,298,0,37,DL_Guitar,6,3,sinjyufujin_warm_ruriko_Stems,0.2705767750740051,0
54,100,0.11818181818181818,418,0,37,DL_Guitar,6,2,sinjyufujin_warm_ruriko_Stems,0.35792598128318787,0
56,100,0.5,40,1,38,DL_Guitar,6,8,sinjyufujin_warm_ruriko_Stems,0.9990280866622925,1
54,100,0.1590909090909091,713,1,38,DL_Guitar,6,3,sinjyufujin_warm_ruriko_Stems,0.3703508675098419,0
61,100,0.7818181818181819,791,0,38,DL_Guitar,6,13,sinjyufujin_warm_ruriko_Stems,0.45615771412849426,0
61,100,0.5590909090909091,141,1,39,DL_Guitar,6,9,sinjyufujin_warm_ruriko_Stems,0.9990094900131226,1
61,100,0.3409090909090909,364,0,39,DL_Guitar,6,5,sinjyufujin_warm_ruriko_Stems,0.23322725296020508,0
65,100,0.16363636363636364,531,0,39,DL_Guitar,6,3,sinjyufujin_warm_ruriko_Stems,0.27058127522468567,0
61,100,0.6181818181818182,568,0,39,DL_Guitar,6,10,sinjyufujin_warm_ruriko_Stems,0.3579238951206207,0
56,100,0.12272727272727273,48,1,40,DL_Guitar,6,2,sinjyufujin_warm_ruriko_Stems,0.9990094900131226,1
60,100,0.11818181818181818,295,1,40,DL_Guitar,6,2,sinjyufujin_warm_ruriko_Stems,0.2332352250814438,0
53,100,0.5409090909090909,399,0,40,DL_Guitar,6,9,sinjyufujin_warm_ruriko_Stems,0.27058145403862,0
61,100,0.5181818181818182,703,1,40,DL_Guitar,6,8,sinjyufujin_warm_ruriko_Stems,0.35792121291160583,0
61,100,0.5590909090909091,193,1,41,DL_Guitar,6,9,sinjyufujin_warm_ruriko_Stems,0.9990094900131226,1
61,100,0.3,396,0,41,DL_Guitar,6,5,sinjyufujin_warm_ruriko_Stems,0.23322956264019012,0
61,100,0.41818181818181815,691,1,41,DL_Guitar,6,7,sinjyufujin_warm_ruriko_Stems,0.2705852687358856,0
61,100,0.9409090909090909,804,0,41,DL_Guitar,6,15,sinjyufujin_warm_ruriko_Stems,0.3579234778881073,0
56,100,0.11818181818181818,303,1,42,DL_Guitar,6,2,sinjyufujin_warm_ruriko_Stems,0.9983231425285339,1
53,100,0.5,638,1,42,DL_Guitar,6,8,sinjyufujin_warm_ruriko_Stems,0.5462125539779663,1
53,100,0.21818181818181817,0,1,43,DL_Guitar,6,3,sinjyufujin_warm_ruriko_Stems,0.9990094900131226,1
61,100,0.4636363636363636,48,0,43,DL_Guitar,6,7,sinjyufujin_warm_ruriko_Stems,0.23322860896587372,0
61,100,0.1590909090909091,373,1,43,DL_Guitar,6,3,sinjyufujin_warm_ruriko_Stems,0.27058303356170654,0
61,100,0.11818181818181818,448,0,43,DL_Guitar,6,2,sinjyufujin_warm_ruriko_Stems,0.3579268753528595,0
56,100,0.16363636363636364,311,1,44,DL_Guitar,6,3,sinjyufujin_warm_ruriko_Stems,0.9990280866622925,1
61,100,0.1409090909090909,660,1,44,DL_Guitar,6,2,sinjyufujin_warm_ruriko_Stems,0.37033379077911377,0
61,100,0.2409090909090909,694,0,44,DL_Guitar,6,4,sinjyufujin_warm_ruriko_Stems,0.4561672806739807,0
61,100,0.4409090909090909,118,1,45,DL_Guitar,6,7,sinjyufujin_warm_ruriko_Stems,0.9990094900131226,1
61,100,0.2,426,1,45,DL_Guitar,6,3,sinjyufujin_warm_ruriko_Stems,0.23323532938957214,0
54,100,0.1409090909090909,603,0,45,DL_Guitar,6,2,sinjyufujin_warm_ruriko_Stems,0.27058321237564087,0
54,100,0.1,751,0,45,DL_Guitar,6,2,sinjyufujin_warm_ruriko_Stems,0.35793861746788025,0
56,100,0.1590909090909091,96,1,46,DL_Guitar,6,3,sinjyufujin_warm_ruriko_Stems,0.9983231425285339,1
56,100,0.2,466,1,46,DL_Guitar,6,3,sinjyufujin_warm_ruriko_Stems,0.5462182760238647,1
58,100,0.1409090909090909,224,1,47,DL_Guitar,6,2,sinjyufujin_warm_ruriko_Stems,0.9990280866622925,1
61,100,0.18181818181818182,396,0,47,DL_Guitar,6,3,sinjyufujin_warm_ruriko_Stems,0.37033018469810486,0
58,100,0.1,593,0,47,DL_Guitar,6,2,sinjyufujin_warm_ruriko_Stems,0.4561694264411926,0
56,100,0.1590909090909091,260,1,48,DL_Guitar,6,3,sinjyufujin_warm_ruriko_Stems,0.9988439083099365,1
56,100,0.2818181818181818,518,1,48,DL_Guitar,6,5,sinjyufujin_warm_ruriko_Stems,0.13798362016677856,0
56,100,0.17727272727272728,633,0,48,DL_Guitar,6,3,sinjyufujin_warm_ruriko_Stems,0.16236421465873718,0
61,100,0.1409090909090909,694,0,48,DL_Guitar,6,2,sinjyufujin_warm_ruriko_Stems,0.19105811417102814,0
63,100,0.18181818181818182,770,0,48,DL_Guitar,6,3,sinjyufujin_warm_ruriko_Stems,0.26196303963661194,0
56,100,0.2590909090909091,260,1,49,DL_Guitar,6,4,sinjyufujin_warm_ruriko_Stems,0.9983231425285339,1
61,100,0.2590909090909091,633,1,49,DL_Guitar,6,4,sinjyufujin_warm_ruriko_Stems,0.546216607093811,1
54,100,0.3409090909090909,188,1,50,DL_Guitar,6,5,sinjyufujin_warm_ruriko_Stems,0.9986507296562195,1
54,100,0.1590909090909091,405,0,50,DL_Guitar,6,3,sinjyufujin_warm_ruriko_Stems,0.08798030018806458,0
66,100,0.12272727272727273,444,0,50,DL_Guitar,6,2,sinjyufujin_warm_ruriko_Stems,0.09298788011074066,0
56,100,0.16363636363636364,509,0,50,DL_Guitar,6,3,sinjyufujin_warm_ruriko_Stems,0.10995113104581833,0
56,100,0.5227272727272727,751,1,50,DL_Guitar,6,8,sinjyufujin_warm_ruriko_Stems,0.12867523729801178,0
61,100,0.2590909090909091,875,0,50,DL_Guitar,6,4,sinjyufujin_warm_ruriko_Stems,0.1822214424610138,0
56,100,0.2590909090909091,56,1,51,DL_Guitar,6,4,sinjyufujin_warm_ruriko_Stems,0.9986506104469299,1
56,100,0.5181818181818182,308,1,51,DL_Guitar,6,8,sinjyufujin_warm_ruriko_Stems,0.08798005431890488,0
56,100,0.3,444,0,51,DL_Guitar,6,5,sinjyufujin_warm_ruriko_Stems,0.09298896789550781,0
56,100,0.4409090909090909,550,0,51,DL_Guitar,6,7,sinjyufujin_warm_ruriko_Stems,0.10995182394981384,0
56,100,0.38181818181818183,686,0,51,DL_Guitar,6,6,sinjyufujin_warm_ruriko_Stems,0.12867650389671326,0
56,100,0.4590909090909091,791,0,51,DL_Guitar,6,7,sinjyufujin_warm_ruriko_Stems,0.18221811950206757,0
56,100,0.4772727272727273,61,1,52,DL_Guitar,6,8,sinjyufujin_warm_ruriko_Stems,0.9990280866622925,1
56,100,0.18181818181818182,233,0,52,DL_Guitar,6,3,sinjyufujin_warm_ruriko_Stems,0.3703400492668152,0
54,100,0.3,311,0,52,DL_Guitar,6,5,sinjyufujin_warm_ruriko_Stems,0.4561712443828583,0
56,100,0.2,40,1,53,DL_Guitar,6,3,sinjyufujin_warm_ruriko_Stems,0.9986507296562195,1
56,100,0.18181818181818182,110,0,53,DL_Guitar,6,3,sinjyufujin_warm_ruriko_Stems,0.08798076212406158,0
56,100,0.2590909090909091,281,0,53,DL_Guitar,6,4,sinjyufujin_warm_ruriko_Stems,0.09298443049192429,0
63,100,0.11818181818181818,373,0,53,DL_Guitar,6,2,sinjyufujin_warm_ruriko_Stems,0.10995028913021088,0
56,100,0.16363636363636364,774,1,53,DL_Guitar,6,3,sinjyufujin_warm_ruriko_Stems,0.12867163121700287,0
56,100,0.22272727272727272,848,0,53,DL_Guitar,6,4,sinjyufujin_warm_ruriko_Stems,0.18220941722393036,0
61,100,0.2409090909090909,48,1,54,DL_Guitar,6,4,sinjyufujin_warm_ruriko_Stems,0.9988439083099365,1
56,100,0.2,110,0,54,DL_Guitar,6,3,sinjyufujin_warm_ruriko_Stems,0.13798050582408905,0
66,100,0.11818181818181818,703,1,54,DL_Guitar,6,2,sinjyufujin_warm_ruriko_Stems,0.1623639166355133,0
61,100,0.2,810,0,54,DL_Guitar,6,3,sinjyufujin_warm_ruriko_Stems,0.19105011224746704,0
54,100,0.38181818181818183,861,0,54,DL_Guitar,6,6,sinjyufujin_warm_ruriko_Stems,0.26196742057800293,0
56,100,0.36363636363636365,818,1,55,DL_Guitar,6,6,sinjyufujin_warm_ruriko_Stems,0.979223906993866,1
61,100,2.040909090909091,268,1,56,DL_Guitar,6,15,sinjyufujin_warm_ruriko_Stems,0.9983230233192444,1
61,100,0.5772727272727273,866,1,56,DL_Guitar,6,9,sinjyufujin_warm_ruriko_Stems,0.5462222099304199,1
56,100,0.21818181818181817,361,1,58,DL_Guitar,6,3,sinjyufujin_warm_ruriko_Stems,0.9983231425285339,1
61,100,1.759090909090909,550,0,58,DL_Guitar,6,15,sinjyufujin_warm_ruriko_Stems,0.5462054014205933,1
61,100,0.1590909090909091,215,1,59,DL_Guitar,6,3,sinjyufujin_warm_ruriko_Stems,0.9986506104469299,1
61,100,0.1409090909090909,373,0,59,DL_Guitar,6,2,sinjyufujin_warm_ruriko_Stems,0.08798129111528397,0
56,100,0.22272727272727272,541,0,59,DL_Guitar,6,4,sinjyufujin_warm_ruriko_Stems,0.09298443049192429,0
57,100,0.1590909090909091,726,0,59,DL_Guitar,6,3,sinjyufujin_warm_ruriko_Stems,0.10995166003704071,0
57,100,0.35909090909090907,783,0,59,DL_Guitar,6,6,sinjyufujin_warm_ruriko_Stems,0.12867207825183868,0
53,100,0.2,875,0,59,DL_Guitar,6,3,sinjyufujin_warm_ruriko_Stems,0.18222317099571228,0
57,100,0.2409090909090909,48,1,60,DL_Guitar,6,4,sinjyufujin_warm_ruriko_Stems,0.9990094900131226,1
61,100,0.23636363636363636,171,0,60,DL_Guitar,6,4,sinjyufujin_warm_ruriko_Stems,0.2332470715045929,0
61,100,1.1181818181818182,228,0,60,DL_Guitar,6,15,sinjyufujin_warm_ruriko_Stems,0.27059727907180786,0
61,100,2.2409090909090907,673,1,60,DL_Guitar,6,15,sinjyufujin_warm_ruriko_Stems,0.3579249978065491,0
61,100,0.5818181818181818,364,1,61,DL_Guitar,6,9,sinjyufujin_warm_ruriko_Stems,0.9983231425285339,1
61,100,0.3409090909090909,531,0,61,DL_Guitar,6,5,sinjyufujin_warm_ruriko_Stems,0.5462154746055603,1
61,100,0.8818181818181818,461,1,62,DL_Guitar,6,14,sinjyufujin_warm_ruriko_Stems,0.9990280866622925,1
61,100,0.5,681,0,62,DL_Guitar,6,8,sinjyufujin_warm_ruriko_Stems,0.37033945322036743,0
61,100,0.2636363636363636,796,0,62,DL_Guitar,6,4,sinjyufujin_warm_ruriko_Stems,0.45617204904556274,0
61,100,1.9636363636363636,48,1,63,DL_Guitar,6,15,sinjyufujin_warm_ruriko_Stems,0.9983230233192444,1
61,100,0.2409090909090909,576,1,63,DL_Guitar,6,4,sinjyufujin_warm_ruriko_Stems,0.5462247729301453,1
61,100,0.5409090909090909,440,1,64,DL_Guitar,6,9,sinjyufujin_warm_ruriko_Stems,0.9990280866622925,1
56,100,0.4,713,1,64,DL_Guitar,6,6,sinjyufujin_warm_ruriko_Stems,0.3703484833240509,0
56,100,0.2772727272727273,853,0,64,DL_Guitar,6,4,sinjyufujin_warm_ruriko_Stems,0.45617184042930603,0
53,100,0.9590909090909091,470,1,65,DL_Guitar,6,15,sinjyufujin_warm_ruriko_Stems,0.9983231425285339,1
54,100,0.1590909090909091,805,1,65,DL_Guitar,6,3,sinjyufujin_warm_ruriko_Stems,0.5462225675582886,1
54,100,0.11818181818181818,40,1,66,DL_Guitar,6,2,sinjyufujin_warm_ruriko_Stems,0.9988439083099365,1
54,100,0.3,106,0,66,DL_Guitar,6,5,sinjyufujin_warm_ruriko_Stems,0.1379803717136383,0
54,100,0.2590909090909091,273,0,66,DL_Guitar,6,4,sinjyufujin_warm_ruriko_Stems,0.16236329078674316,0
54,100,0.1409090909090909,404,0,66,DL_Guitar,6,2,sinjyufujin_warm_ruriko_Stems,0.19105666875839233,0
56,100,0.18181818181818182,729,1,66,DL_Guitar,6,3,sinjyufujin_warm_ruriko_Stems,0.2619626820087433,0
56,100,0.740909090909091,113,1,67,DL_Guitar,6,12,sinjyufujin_warm_ruriko_Stems,0.9990094900131226,1
63,100,0.2409090909090909,377,1,67,DL_Guitar,6,4,sinjyufujin_warm_ruriko_Stems,0.23323483765125275,0
56,100,0.22272727272727272,487,0,67,DL_Guitar,6,4,sinjyufujin_warm_ruriko_Stems,0.2705851197242737,0
65,100,0.1409090909090909,760,1,67,DL_Guitar,6,2,sinjyufujin_warm_ruriko_Stems,0.35793250799179077,0
54,100,0.4,163,1,68,DL_Guitar,6,6,sinjyufujin_warm_ruriko_Stems,0.9990094900131226,1
54,100,0.9590909090909091,263,0,68,DL_Guitar,6,15,sinjyufujin_warm_ruriko_Stems,0.2332324981689453,0
54,100,0.3,480,0,68,DL_Guitar,6,5,sinjyufujin_warm_ruriko_Stems,0.27058517932891846,0
54,100,0.11818181818181818,624,0,68,DL_Guitar,6,2,sinjyufujin_warm_ruriko_Stems,0.3579295873641968,0
53,100,0.18181818181818182,110,1,70,DL_Guitar,6,3,sinjyufujin_warm_ruriko_Stems,0.9986506104469299,1
53,100,0.4590909090909091,176,0,70,DL_Guitar,6,7,sinjyufujin_warm_ruriko_Stems,0.08797809481620789,0
53,100,0.2590909090909091,316,0,70,DL_Guitar,6,4,sinjyufujin_warm_ruriko_Stems,0.09298337996006012,0
54,100,0.2,633,1,70,DL_Guitar,6,3,sinjyufujin_warm_ruriko_Stems,0.10995108634233475,0
54,100,0.1409090909090909,760,0,70,DL_Guitar,6,2,sinjyufujin_warm_ruriko_Stems,0.1286696046590805,0
54,100,0.3,813,0,70,DL_Guitar,6,5,sinjyufujin_warm_ruriko_Stems,0.1822156310081482,0
56,100,0.7227272727272728,356,1,71,DL_Guitar,6,12,sinjyufujin_warm_ruriko_Stems,0.9983231425285339,1
56,100,0.2,800,1,71,DL_Guitar,6,3,sinjyufujin_warm_ruriko_Stems,0.5462201237678528,1
54,100,0.3181818181818182,0,1,73,DL_Guitar,6,5,sinjyufujin_warm_ruriko_Stems,0.9990094900131226,1
54,100,0.11818181818181818,83,0,73,DL_Guitar,6,2,sinjyufujin_warm_ruriko_Stems,0.23322591185569763,0
61,100,0.3,606,1,73,DL_Guitar,6,5,sinjyufujin_warm_ruriko_Stems,0.2705727517604828,0
61,100,0.18181818181818182,695,0,73,DL_Guitar,6,3,sinjyufujin_warm_ruriko_Stems,0.3579263985157013,0
65,100,0.1409090909090909,449,1,74,DL_Guitar,6,2,sinjyufujin_warm_ruriko_Stems,0.9990280866622925,1
61,100,0.4,506,0,74,DL_Guitar,6,6,sinjyufujin_warm_ruriko_Stems,0.370339035987854,0
61,100,0.2409090909090909,783,1,74,DL_Guitar,6,4,sinjyufujin_warm_ruriko_Stems,0.45616117119789124,0
57,100,0.35909090909090907,140,1,75,DL_Guitar,6,6,sinjyufujin_warm_ruriko_Stems,0.9986506104469299,1
54,100,0.12272727272727273,255,0,75,DL_Guitar,6,2,sinjyufujin_warm_ruriko_Stems,0.08798127621412277,0
54,100,0.22272727272727272,422,0,75,DL_Guitar,6,4,sinjyufujin_warm_ruriko_Stems,0.09298398345708847,0
54,100,0.3,546,0,75,DL_Guitar,6,5,sinjyufujin_warm_ruriko_Stems,0.1099468320608139,0
61,100,0.1409090909090909,650,0,75,DL_Guitar,6,2,sinjyufujin_warm_ruriko_Stems,0.12866654992103577,0
61,100,0.17727272727272728,722,0,75,DL_Guitar,6,3,sinjyufujin_warm_ruriko_Stems,0.18221521377563477,0
56,100,0.11818181818181818,0,1,76,DL_Guitar,6,2,sinjyufujin_warm_ruriko_Stems,0.9984879493713379,1
53,100,1.1,100,0,76,DL_Guitar,6,15,sinjyufujin_warm_ruriko_Stems,0.06335103511810303,0
60,100,0.4772727272727273,370,1,76,DL_Guitar,6,8,sinjyufujin_warm_ruriko_Stems,0.05828959122300148,0
57,100,0.12272727272727273,509,0,76,DL_Guitar,6,2,sinjyufujin_warm_ruriko_Stems,0.06136012822389603,0
63,100,0.1,550,0,76,DL_Guitar,6,2,sinjyufujin_warm_ruriko_Stems,0.07168170809745789,0
61,100,0.3181818181818182,770,0,76,DL_Guitar,6,5,sinjyufujin_warm_ruriko_Stems,0.0847371444106102,0
60,100,0.2409090909090909,839,0,76,DL_Guitar,6,4,sinjyufujin_warm_ruriko_Stems,0.12635336816310883,0
56,100,0.3409090909090909,110,1,77,DL_Guitar,6,5,sinjyufujin_warm_ruriko_Stems,0.9984879493713379,1
61,100,0.2,356,1,77,DL_Guitar,6,3,sinjyufujin_warm_ruriko_Stems,0.06335224956274033,0
54,100,0.1590909090909091,413,0,77,DL_Guitar,6,3,sinjyufujin_warm_ruriko_Stems,0.05828865244984627,0
54,100,0.1,466,0,77,DL_Guitar,6,2,sinjyufujin_warm_ruriko_Stems,0.061362188309431076,0
54,100,0.3409090909090909,514,0,77,DL_Guitar,6,5,sinjyufujin_warm_ruriko_Stems,0.07168179750442505,0
61,100,0.17727272727272728,603,0,77,DL_Guitar,6,3,sinjyufujin_warm_ruriko_Stems,0.08473237603902817,0
61,100,0.21818181818181817,779,0,77,DL_Guitar,6,3,sinjyufujin_warm_ruriko_Stems,0.12635184824466705,0
61,100,0.9181818181818182,119,1,78,DL_Guitar,6,15,sinjyufujin_warm_ruriko_Stems,0.9983231425285339,1
56,100,0.12272727272727273,466,1,78,DL_Guitar,6,2,sinjyufujin_warm_ruriko_Stems,0.5462155938148499,1
61,100,0.2818181818181818,333,1,79,DL_Guitar,6,5,sinjyufujin_warm_ruriko_Stems,0.9988439083099365,1
61,100,0.16363636363636364,399,0,79,DL_Guitar,6,3,sinjyufujin_warm_ruriko_Stems,0.13798069953918457,0
54,100,0.3181818181818182,449,0,79,DL_Guitar,6,5,sinjyufujin_warm_ruriko_Stems,0.16236072778701782,0
54,100,0.11818181818181818,580,0,79,DL_Guitar,6,2,sinjyufujin_warm_ruriko_Stems,0.19105397164821625,0
54,100,0.1,624,0,79,DL_Guitar,6,2,sinjyufujin_warm_ruriko_Stems,0.2619621455669403,0
54,100,0.35909090909090907,9,1,80,DL_Guitar,6,6,sinjyufujin_warm_ruriko_Stems,0.9990094900131226,1
54,100,0.21818181818181817,153,0,80,DL_Guitar,6,3,sinjyufujin_warm_ruriko_Stems,0.23322759568691254,0
61,100,0.13636363636363635,436,1,80,DL_Guitar,6,2,sinjyufujin_warm_ruriko_Stems,0.2705771327018738,0
63,100,0.32272727272727275,606,0,80,DL_Guitar,6,5,sinjyufujin_warm_ruriko_Stems,0.35792773962020874,0
56,100,0.2409090909090909,307,1,81,DL_Guitar,6,4,sinjyufujin_warm_ruriko_Stems,0.9990280866622925,1
56,100,0.1,553,1,81,DL_Guitar,6,2,sinjyufujin_warm_ruriko_Stems,0.3703480362892151,0
56,100,0.33636363636363636,590,0,81,DL_Guitar,6,5,sinjyufujin_warm_ruriko_Stems,0.45615747570991516,0
54,100,0.1409090909090909,47,1,84,DL_Guitar,6,2,sinjyufujin_warm_ruriko_Stems,0.9983231425285339,1
54,100,0.22272727272727272,136,0,84,DL_Guitar,6,4,sinjyufujin_warm_ruriko_Stems,0.546213686466217,1
56,100,0.1,153,1,85,DL_Guitar,6,2,sinjyufujin_warm_ruriko_Stems,0.9792234897613525,1
59,100,0.2,443,1,86,DL_Guitar,6,3,sinjyufujin_warm_ruriko_Stems,0.9990280866622925,1
55,100,0.1409090909090909,572,0,86,DL_Guitar,6,2,sinjyufujin_warm_ruriko_Stems,0.3703416883945465,0
57,100,0.36363636363636365,796,0,86,DL_Guitar,6,6,sinjyufujin_warm_ruriko_Stems,0.45616936683654785,0
57,100,0.42272727272727273,136,1,87,DL_Guitar,6,7,sinjyufujin_warm_ruriko_Stems,0.9990280866622925,1
57,100,0.1,413,1,87,DL_Guitar,6,2,sinjyufujin_warm_ruriko_Stems,0.3703504502773285,0
57,100,0.16363636363636364,443,0,87,DL_Guitar,6,3,sinjyufujin_warm_ruriko_Stems,0.45618122816085815,0
59,100,0.2590909090909091,373,1,88,DL_Guitar,6,4,sinjyufujin_warm_ruriko_Stems,0.9990280866622925,1
55,100,0.18181818181818182,550,0,88,DL_Guitar,6,3,sinjyufujin_warm_ruriko_Stems,0.3703368306159973,0
62,100,0.2818181818181818,637,0,88,DL_Guitar,6,5,sinjyufujin_warm_ruriko_Stems,0.4561684727668762,0
57,100,0.9409090909090909,110,1,89,DL_Guitar,6,15,sinjyufujin_warm_ruriko_Stems,0.9990094900131226,1
57,100,0.6818181818181818,619,1,89,DL_Guitar,6,11,sinjyufujin_warm_ruriko_Stems,0.2332320362329483,0
57,100,0.16363636363636364,773,0,89,DL_Guitar,6,3,sinjyufujin_warm_ruriko_Stems,0.27058300375938416,0
57,100,0.1,866,0,89,DL_Guitar,6,2,sinjyufujin_warm_ruriko_Stems,0.3579312860965729,0
57,100,0.21818181818181817,53,1,90,DL_Guitar,6,3,sinjyufujin_warm_ruriko_Stems,0.9988439083099365,1
62,100,0.2409090909090909,157,0,90,DL_Guitar,6,4,sinjyufujin_warm_ruriko_Stems,0.13798481225967407,0
57,100,0.1590909090909091,294,0,90,DL_Guitar,6,3,sinjyufujin_warm_ruriko_Stems,0.16236549615859985,0
57,100,0.1,540,1,90,DL_Guitar,6,2,sinjyufujin_warm_ruriko_Stems,0.1910664290189743,0
55,100,0.41818181818181815,779,1,90,DL_Guitar,6,7,sinjyufujin_warm_ruriko_Stems,0.2619713842868805,0
61,100,0.759090909090909,347,1,91,DL_Guitar,6,12,sinjyufujin_warm_ruriko_Stems,0.9983231425285339,1
54,100,0.9409090909090909,836,1,91,DL_Guitar,6,15,sinjyufujin_warm_ruriko_Stems,0.5462207198143005,1
54,100,0.6818181818181818,255,1,92,DL_Guitar,6,11,sinjyufujin_warm_ruriko_Stems,0.9984880685806274,1
62,100,0.12272727272727273,430,0,92,DL_Guitar,6,2,sinjyufujin_warm_ruriko_Stems,0.06335330009460449,0
54,100,0.3,466,0,92,DL_Guitar,6,5,sinjyufujin_warm_ruriko_Stems,0.05829166620969772,0
59,100,0.1409090909090909,536,0,92,DL_Guitar,6,2,sinjyufujin_warm_ruriko_Stems,0.06136399880051613,0
54,100,0.1,612,0,92,DL_Guitar,6,2,sinjyufujin_warm_ruriko_Stems,0.07168417423963547,0
54,100,0.1590909090909091,656,0,92,DL_Guitar,6,3,sinjyufujin_warm_ruriko_Stems,0.08473847806453705,0
66,100,0.1,826,0,92,DL_Guitar,6,2,sinjyufujin_warm_ruriko_Stems,0.12635460495948792,0
55,100,0.2409090909090909,453,1,93,DL_Guitar,6,4,sinjyufujin_warm_ruriko_Stems,0.9990280866622925,1
57,100,0.21818181818181817,603,0,93,DL_Guitar,6,3,sinjyufujin_warm_ruriko_Stems,0.37033534049987793,0
57,100,0.11818181818181818,713,0,93,DL_Guitar,6,2,sinjyufujin_warm_ruriko_Stems,0.4561772048473358,0
54,100,0.2590909090909091,210,1,94,DL_Guitar,6,4,sinjyufujin_warm_ruriko_Stems,0.9986507296562195,1
59,100,0.18181818181818182,276,0,94,DL_Guitar,6,3,sinjyufujin_warm_ruriko_Stems,0.08797837048768997,0
54,100,0.2409090909090909,320,0,94,DL_Guitar,6,4,sinjyufujin_warm_ruriko_Stems,0.09298529475927353,0
59,100,0.1,457,0,94,DL_Guitar,6,2,sinjyufujin_warm_ruriko_Stems,0.10995068401098251,0
54,100,0.2818181818181818,637,0,94,DL_Guitar,6,5,sinjyufujin_warm_ruriko_Stems,0.12866860628128052,0
54,100,0.2818181818181818,826,0,94,DL_Guitar,6,5,sinjyufujin_warm_ruriko_Stems,0.1822206974029541,0
59,100,0.4409090909090909,197,1,95,DL_Guitar,6,7,sinjyufujin_warm_ruriko_Stems,0.9983231425285339,1
59,100,0.42272727272727273,826,1,95,DL_Guitar,6,7,sinjyufujin_warm_ruriko_Stems,0.5462163090705872,1
57,100,0.2818181818181818,110,1,96,DL_Guitar,6,5,sinjyufujin_warm_ruriko_Stems,0.9990280866622925,1
57,100,0.1,179,0,96,DL_Guitar,6,2,sinjyufujin_warm_ruriko_Stems,0.3703470528125763,0
57,100,0.4590909090909091,206,0,96,DL_Guitar,6,7,sinjyufujin_warm_ruriko_Stems,0.45616817474365234,0
57,100,0.17727272727272728,492,1,0,DL_Guitar,6,3,umon_taturo_upbeat,0.9792236089706421,1
69,100,0.33636363636363636,39,1,1,DL_Guitar,6,5,umon_taturo_upbeat,0.9986506104469299,1
52,100,0.7,166,0,1,DL_Guitar,6,11,umon_taturo_upbeat,0.08798006922006607,0
52,100,0.1,351,0,1,DL_Guitar,6,2,umon_taturo_upbeat,0.09298551827669144,0
59,100,0.1409090909090909,449,0,1,DL_Guitar,6,2,umon_taturo_upbeat,0.10995161533355713,0
52,100,0.11818181818181818,638,0,1,DL_Guitar,6,2,umon_taturo_upbeat,0.12867552042007446,0
54,100,0.4409090909090909,796,0,1,DL_Guitar,6,7,umon_taturo_upbeat,0.1822231411933899,0
59,100,0.2,12,1,2,DL_Guitar,6,3,umon_taturo_upbeat,0.9990280866622925,1
54,100,0.3409090909090909,421,1,2,DL_Guitar,6,5,umon_taturo_upbeat,0.3703438341617584,0
57,100,0.33636363636363636,501,0,2,DL_Guitar,6,5,umon_taturo_upbeat,0.4561663568019867,0
57,100,0.1409090909090909,70,1,3,DL_Guitar,6,2,umon_taturo_upbeat,0.9990094900131226,1
69,100,0.2772727272727273,295,0,3,DL_Guitar,6,4,umon_taturo_upbeat,0.23322515189647675,0
59,100,0.3,550,1,3,DL_Guitar,6,5,umon_taturo_upbeat,0.27057933807373047,0
64,100,0.2818181818181818,629,0,3,DL_Guitar,6,5,umon_taturo_upbeat,0.35793161392211914,0
61,100,0.2590909090909091,255,1,4,DL_Guitar,6,4,umon_taturo_upbeat,0.9983231425285339,1
64,100,0.3,871,1,4,DL_Guitar,6,5,umon_taturo_upbeat,0.5462226867675781,1
52,100,0.3,56,1,5,DL_Guitar,6,5,umon_taturo_upbeat,0.9990094900131226,1
69,100,0.11818181818181818,514,1,5,DL_Guitar,6,2,umon_taturo_upbeat,0.23322626948356628,0
52,100,0.5772727272727273,678,0,5,DL_Guitar,6,9,umon_taturo_upbeat,0.270577073097229,0
52,100,0.2636363636363636,862,0,5,DL_Guitar,6,4,umon_taturo_upbeat,0.3579307198524475,0
64,100,0.1,79,1,6,DL_Guitar,6,2,umon_taturo_upbeat,0.9990094900131226,1
52,100,0.8,105,0,6,DL_Guitar,6,13,umon_taturo_upbeat,0.23322804272174835,0
54,100,0.43636363636363634,414,1,6,DL_Guitar,6,7,umon_taturo_upbeat,0.27058663964271545,0
59,100,0.2409090909090909,514,0,6,DL_Guitar,6,4,umon_taturo_upbeat,0.3579294681549072,0
54,100,0.1409090909090909,87,1,7,DL_Guitar,6,2,umon_taturo_upbeat,0.9990280866622925,1
57,100,0.32272727272727275,122,0,7,DL_Guitar,6,5,umon_taturo_upbeat,0.37032896280288696,0
54,100,0.1409090909090909,317,0,7,DL_Guitar,6,2,umon_taturo_upbeat,0.4561678171157837,0
59,100,0.1,34,1,8,DL_Guitar,6,2,umon_taturo_upbeat,0.9984880685806274,1
52,100,0.1,127,0,8,DL_Guitar,6,2,umon_taturo_upbeat,0.06335325539112091,0
59,100,0.37727272727272726,347,0,8,DL_Guitar,6,6,umon_taturo_upbeat,0.058289676904678345,0
54,100,0.3409090909090909,448,0,8,DL_Guitar,6,5,umon_taturo_upbeat,0.061362866312265396,0
52,100,0.38181818181818183,673,0,8,DL_Guitar,6,6,umon_taturo_upbeat,0.0716826543211937,0
57,100,0.3,766,0,8,DL_Guitar,6,5,umon_taturo_upbeat,0.08473529666662216,0
52,100,0.1,840,0,8,DL_Guitar,6,2,umon_taturo_upbeat,0.12635594606399536,0
57,100,0.21818181818181817,0,1,9,DL_Guitar,6,3,umon_taturo_upbeat,0.9984879493713379,1
61,100,0.23636363636363636,106,0,9,DL_Guitar,6,4,umon_taturo_upbeat,0.06335334479808807,0
57,100,0.2590909090909091,163,0,9,DL_Guitar,6,4,umon_taturo_upbeat,0.058288805186748505,0
61,100,0.2772727272727273,405,1,9,DL_Guitar,6,4,umon_taturo_upbeat,0.0613635890185833,0
57,100,0.11818181818181818,484,0,9,DL_Guitar,6,2,umon_taturo_upbeat,0.07168456166982651,0
57,100,0.1409090909090909,515,0,9,DL_Guitar,6,2,umon_taturo_upbeat,0.0847398117184639,0
52,100,0.23636363636363636,809,1,9,DL_Guitar,6,4,umon_taturo_upbeat,0.12635882198810577,0
52,100,0.2409090909090909,113,1,10,DL_Guitar,6,4,umon_taturo_upbeat,0.9984880685806274,1
52,100,0.2409090909090909,299,0,10,DL_Guitar,6,4,umon_taturo_upbeat,0.06335360556840897,0
64,100,0.1,400,0,10,DL_Guitar,6,2,umon_taturo_upbeat,0.05829080939292908,0
59,100,0.32272727272727275,431,0,10,DL_Guitar,6,5,umon_taturo_upbeat,0.06136263534426689,0
52,100,0.1590909090909091,611,0,10,DL_Guitar,6,3,umon_taturo_upbeat,0.07168290764093399,0
52,100,0.43636363636363634,656,0,10,DL_Guitar,6,7,umon_taturo_upbeat,0.08473759144544601,0
52,100,0.4409090909090909,795,0,10,DL_Guitar,6,7,umon_taturo_upbeat,0.12635287642478943,0
52,100,0.11818181818181818,264,1,11,DL_Guitar,6,2,umon_taturo_upbeat,0.9792242646217346,1
66,100,0.17727272727272728,185,1,12,DL_Guitar,6,3,umon_taturo_upbeat,0.9990280866622925,1
52,100,0.1,572,1,12,DL_Guitar,6,2,umon_taturo_upbeat,0.3703474998474121,0
68,100,0.2590909090909091,756,0,12,DL_Guitar,6,4,umon_taturo_upbeat,0.4561701714992523,0
54,100,0.2590909090909091,189,1,13,DL_Guitar,6,4,umon_taturo_upbeat,0.9983232617378235,1
54,100,0.1,691,1,13,DL_Guitar,6,2,umon_taturo_upbeat,0.5462161302566528,1
64,100,0.11818181818181818,457,1,14,DL_Guitar,6,2,umon_taturo_upbeat,0.9988439083099365,1
71,100,0.18181818181818182,496,0,14,DL_Guitar,6,3,umon_taturo_upbeat,0.13798001408576965,0
72,100,0.16363636363636364,553,0,14,DL_Guitar,6,3,umon_taturo_upbeat,0.16236592829227448,0
68,100,0.11818181818181818,625,0,14,DL_Guitar,6,2,umon_taturo_upbeat,0.19105300307273865,0
64,100,0.2590909090909091,871,1,14,DL_Guitar,6,4,umon_taturo_upbeat,0.26196780800819397,0
54,100,0.1,694,1,15,DL_Guitar,6,2,umon_taturo_upbeat,0.9983232617378235,1
55,100,0.1,747,0,15,DL_Guitar,6,2,umon_taturo_upbeat,0.5462098121643066,1
52,100,0.2,52,1,16,DL_Guitar,6,3,umon_taturo_upbeat,0.9990280866622925,1
52,100,0.35909090909090907,100,0,16,DL_Guitar,6,6,umon_taturo_upbeat,0.3703403174877167,0
52,100,0.1409090909090909,638,1,16,DL_Guitar,6,2,umon_taturo_upbeat,0.45617473125457764,0
52,100,0.2,193,1,17,DL_Guitar,6,3,umon_taturo_upbeat,0.9990280866622925,1
52,100,0.2409090909090909,250,0,17,DL_Guitar,6,4,umon_taturo_upbeat,0.3703380525112152,0
55,100,0.16363636363636364,443,0,17,DL_Guitar,6,3,umon_taturo_upbeat,0.45617204904556274,0
55,100,0.1,492,1,18,DL_Guitar,6,2,umon_taturo_upbeat,0.9792240262031555,1
57,100,0.2590909090909091,430,1,19,DL_Guitar,6,4,umon_taturo_upbeat,0.9990094900131226,1
52,100,0.2636363636363636,488,0,19,DL_Guitar,6,4,umon_taturo_upbeat,0.2332324981689453,0
64,100,0.1,677,0,19,DL_Guitar,6,2,umon_taturo_upbeat,0.2705819606781006,0
64,100,0.2,704,0,19,DL_Guitar,6,3,umon_taturo_upbeat,0.3579370975494385,0
54,100,1.0818181818181818,57,1,20,DL_Guitar,6,15,umon_taturo_upbeat,0.9988439083099365,1
54,100,0.17727272727272728,382,1,20,DL_Guitar,6,3,umon_taturo_upbeat,0.1379866600036621,0
54,100,0.1409090909090909,426,0,20,DL_Guitar,6,2,umon_taturo_upbeat,0.16236945986747742,0
57,100,0.2636363636363636,686,1,20,DL_Guitar,6,4,umon_taturo_upbeat,0.19105727970600128,0
57,100,0.18181818181818182,760,0,20,DL_Guitar,6,3,umon_taturo_upbeat,0.2619694173336029,0
57,100,0.23636363636363636,106,1,21,DL_Guitar,6,4,umon_taturo_upbeat,0.9988439083099365,1
57,100,0.1,179,0,21,DL_Guitar,6,2,umon_taturo_upbeat,0.13798324763774872,0
57,100,0.38181818181818183,285,0,21,DL_Guitar,6,6,umon_taturo_upbeat,0.16236655414104462,0
61,100,0.21818181818181817,505,0,21,DL_Guitar,6,3,umon_taturo_upbeat,0.19106005132198334,0
57,100,0.11818181818181818,590,0,21,DL_Guitar,6,2,umon_taturo_upbeat,0.26196882128715515,0
54,100,1.0772727272727274,326,1,22,DL_Guitar,6,15,umon_taturo_upbeat,0.9990280866622925,1
54,100,0.2818181818181818,694,1,22,DL_Guitar,6,5,umon_taturo_upbeat,0.37034568190574646,0
62,100,0.1409090909090909,791,0,22,DL_Guitar,6,2,umon_taturo_upbeat,0.4561641216278076,0
57,100,0.1,206,1,23,DL_Guitar,6,2,umon_taturo_upbeat,0.9988439083099365,1
57,100,0.35909090909090907,299,0,23,DL_Guitar,6,6,umon_taturo_upbeat,0.13798418641090393,0
57,100,0.1590909090909091,382,0,23,DL_Guitar,6,3,umon_taturo_upbeat,0.16236688196659088,0
52,100,0.6,546,0,23,DL_Guitar,6,10,umon_taturo_upbeat,0.19105859100818634,0
52,100,0.12272727272727273,717,0,23,DL_Guitar,6,2,umon_taturo_upbeat,0.26196789741516113,0
64,100,0.1409090909090909,9,1,24,DL_Guitar,6,2,umon_taturo_upbeat,0.9983735084533691,1
54,100,0.4,48,0,24,DL_Guitar,6,6,umon_taturo_upbeat,0.051050201058387756,0
54,100,0.2409090909090909,189,0,24,DL_Guitar,6,4,umon_taturo_upbeat,0.04161294922232628,0
52,100,0.2590909090909091,308,0,24,DL_Guitar,6,4,umon_taturo_upbeat,0.037980906665325165,0
68,100,0.1590909090909091,461,0,24,DL_Guitar,6,3,umon_taturo_upbeat,0.039261072874069214,0
54,100,0.1409090909090909,515,0,24,DL_Guitar,6,2,umon_taturo_upbeat,0.04616834968328476,0
54,100,0.7772727272727272,567,0,24,DL_Guitar,6,12,umon_taturo_upbeat,0.05713306739926338,0
54,100,0.21818181818181817,748,0,24,DL_Guitar,6,3,umon_taturo_upbeat,0.09188191592693329,0
54,100,0.11818181818181818,52,1,25,DL_Guitar,6,2,umon_taturo_upbeat,0.9986506104469299,1
54,100,0.11818181818181818,131,0,25,DL_Guitar,6,2,umon_taturo_upbeat,0.08797995746135712,0
62,100,0.2409090909090909,316,0,25,DL_Guitar,6,4,umon_taturo_upbeat,0.0929831862449646,0
62,100,0.2818181818181818,374,0,25,DL_Guitar,6,5,umon_taturo_upbeat,0.10995110869407654,0
57,100,0.11818181818181818,677,1,25,DL_Guitar,6,2,umon_taturo_upbeat,0.12867790460586548,0
61,100,0.1409090909090909,818,0,25,DL_Guitar,6,2,umon_taturo_upbeat,0.18222860991954803,0
57,100,0.5363636363636364,61,1,26,DL_Guitar,6,9,umon_taturo_upbeat,0.9990094900131226,1
52,100,0.35909090909090907,409,1,26,DL_Guitar,6,6,umon_taturo_upbeat,0.23322954773902893,0
52,100,0.1590909090909091,515,0,26,DL_Guitar,6,3,umon_taturo_upbeat,0.2705829441547394,0
52,100,0.5227272727272727,686,0,26,DL_Guitar,6,8,umon_taturo_upbeat,0.35793009400367737,0
54,100,0.1409090909090909,57,1,27,DL_Guitar,6,2,umon_taturo_upbeat,0.9990094900131226,1
62,100,0.1409090909090909,625,1,27,DL_Guitar,6,2,umon_taturo_upbeat,0.23323369026184082,0
62,100,0.12272727272727273,739,0,27,DL_Guitar,6,2,umon_taturo_upbeat,0.2705915868282318,0
57,100,0.2590909090909091,814,0,27,DL_Guitar,6,4,umon_taturo_upbeat,0.35793471336364746,0
52,100,0.8,52,1,28,DL_Guitar,6,13,umon_taturo_upbeat,0.9990280866622925,1
52,100,0.42272727272727273,443,1,28,DL_Guitar,6,7,umon_taturo_upbeat,0.37034860253334045,0
52,100,0.5409090909090909,686,1,28,DL_Guitar,6,9,umon_taturo_upbeat,0.4561733305454254,0
52,100,0.3,13,1,29,DL_Guitar,6,5,umon_taturo_upbeat,0.9990280866622925,1
52,100,0.1590909090909091,83,0,29,DL_Guitar,6,3,umon_taturo_upbeat,0.3703366219997406,0
64,100,0.2,119,0,29,DL_Guitar,6,3,umon_taturo_upbeat,0.456173837184906,0
57,100,0.4818181818181818,320,1,30,DL_Guitar,6,8,umon_taturo_upbeat,0.9984880685806274,1
57,100,0.38181818181818183,440,0,30,DL_Guitar,6,6,umon_taturo_upbeat,0.06335446238517761,0
69,100,0.1409090909090909,694,1,30,DL_Guitar,6,2,umon_taturo_upbeat,0.058291397988796234,0
69,100,0.11818181818181818,735,0,30,DL_Guitar,6,2,umon_taturo_upbeat,0.061364416033029556,0
57,100,0.1590909090909091,770,0,30,DL_Guitar,6,3,umon_taturo_upbeat,0.07168746739625931,0
69,100,0.1,804,0,30,DL_Guitar,6,2,umon_taturo_upbeat,0.08474013954401016,0
57,100,0.8409090909090909,866,0,30,DL_Guitar,6,13,umon_taturo_upbeat,0.12635673582553864,0
57,100,0.5181818181818182,185,1,31,DL_Guitar,6,8,umon_taturo_upbeat,0.9984879493713379,1
57,100,0.5409090909090909,308,0,31,DL_Guitar,6,9,umon_taturo_upbeat,0.06335338205099106,0
52,100,0.18181818181818182,453,0,31,DL_Guitar,6,3,umon_taturo_upbeat,0.058290399610996246,0
52,100,0.13636363636363635,523,0,31,DL_Guitar,6,2,umon_taturo_upbeat,0.06136339530348778,0
59,100,0.35909090909090907,571,0,31,DL_Guitar,6,6,umon_taturo_upbeat,0.0716865286231041,0
59,100,0.2590909090909091,700,0,31,DL_Guitar,6,4,umon_taturo_upbeat,0.08474212884902954,0
52,100,0.1,822,0,31,DL_Guitar,6,2,umon_taturo_upbeat,0.12635867297649384,0
59,100,0.5,188,1,32,DL_Guitar,6,8,umon_taturo_upbeat,0.9986506104469299,1
54,100,0.1590909090909091,426,1,32,DL_Guitar,6,3,umon_taturo_upbeat,0.08798044919967651,0
54,100,0.2636363636363636,488,0,32,DL_Guitar,6,4,umon_taturo_upbeat,0.09298502653837204,0
59,100,0.1,593,0,32,DL_Guitar,6,2,umon_taturo_upbeat,0.10994935780763626,0
54,100,0.3409090909090909,691,0,32,DL_Guitar,6,5,umon_taturo_upbeat,0.12867313623428345,0
59,100,0.4772727272727273,831,0,32,DL_Guitar,6,8,umon_taturo_upbeat,0.18221786618232727,0
57,100,0.2409090909090909,118,1,33,DL_Guitar,6,4,umon_taturo_upbeat,0.9988439083099365,1
52,100,0.5181818181818182,308,0,33,DL_Guitar,6,8,umon_taturo_upbeat,0.13798528909683228,0
52,100,0.1590909090909091,453,0,33,DL_Guitar,6,3,umon_taturo_upbeat,0.1623692810535431,0
52,100,0.2,571,0,33,DL_Guitar,6,3,umon_taturo_upbeat,0.1910664588212967,0
69,100,0.12272727272727273,818,1,33,DL_Guitar,6,2,umon_taturo_upbeat,0.2619812786579132,0
69,100,0.2,69,1,34,DL_Guitar,6,3,umon_taturo_upbeat,0.9986506104469299,1
57,100,0.2,188,0,34,DL_Guitar,6,3,umon_taturo_upbeat,0.08798374235630035,0
57,100,0.22272727272727272,254,0,34,DL_Guitar,6,4,umon_taturo_upbeat,0.09298908710479736,0
52,100,0.2,480,0,34,DL_Guitar,6,3,umon_taturo_upbeat,0.10996000468730927,0
69,100,0.3,616,0,34,DL_Guitar,6,5,umon_taturo_upbeat,0.12867842614650726,0
57,100,1.0818181818181818,818,0,34,DL_Guitar,6,15,umon_taturo_upbeat,0.18223391473293304,0
57,100,0.5590909090909091,298,1,35,DL_Guitar,6,9,umon_taturo_upbeat,0.9988439083099365,1
52,100,0.3,488,0,35,DL_Guitar,6,5,umon_taturo_upbeat,0.13798369467258453,0
52,100,0.5772727272727273,558,0,35,DL_Guitar,6,9,umon_taturo_upbeat,0.16236183047294617,0
59,100,0.3181818181818182,735,0,35,DL_Guitar,6,5,umon_taturo_upbeat,0.1910582184791565,0
52,100,0.1409090909090909,826,0,35,DL_Guitar,6,2,umon_taturo_upbeat,0.26197150349617004,0
57,100,0.22272727272727272,4,1,36,DL_Guitar,6,4,umon_taturo_upbeat,0.9983735084533691,1
53,100,0.4818181818181818,66,0,36,DL_Guitar,6,8,umon_taturo_upbeat,0.051049742847681046,0
53,100,0.5409090909090909,179,0,36,DL_Guitar,6,9,umon_taturo_upbeat,0.04161173477768898,0
59,100,0.1590909090909091,325,0,36,DL_Guitar,6,3,umon_taturo_upbeat,0.03797890245914459,0
53,100,0.37727272727272726,435,0,36,DL_Guitar,6,6,umon_taturo_upbeat,0.039258942008018494,0
54,100,0.42272727272727273,554,0,36,DL_Guitar,6,7,umon_taturo_upbeat,0.04616409167647362,0
54,100,0.1409090909090909,813,1,36,DL_Guitar,6,2,umon_taturo_upbeat,0.0571310892701149,0
54,100,0.5409090909090909,871,0,36,DL_Guitar,6,9,umon_taturo_upbeat,0.09187662601470947,0
54,100,0.5409090909090909,179,1,37,DL_Guitar,6,9,umon_taturo_upbeat,0.9986506104469299,1
54,100,0.5,311,0,37,DL_Guitar,6,8,umon_taturo_upbeat,0.08797819912433624,0
59,100,0.13636363636363635,523,0,37,DL_Guitar,6,2,umon_taturo_upbeat,0.09298243373632431,0
59,100,0.1409090909090909,584,0,37,DL_Guitar,6,2,umon_taturo_upbeat,0.10995182394981384,0
57,100,0.22272727272727272,628,0,37,DL_Guitar,6,4,umon_taturo_upbeat,0.12867183983325958,0
59,100,0.2,708,0,37,DL_Guitar,6,3,umon_taturo_upbeat,0.18222466111183167,0
59,100,0.2818181818181818,48,1,38,DL_Guitar,6,5,umon_taturo_upbeat,0.9988439083099365,1
59,100,0.2,198,0,38,DL_Guitar,6,3,umon_taturo_upbeat,0.13798734545707703,0
57,100,0.1590909090909091,260,0,38,DL_Guitar,6,3,umon_taturo_upbeat,0.16236600279808044,0
57,100,0.1590909090909091,571,1,38,DL_Guitar,6,3,umon_taturo_upbeat,0.19106346368789673,0
69,100,0.3,606,0,38,DL_Guitar,6,5,umon_taturo_upbeat,0.2619788944721222,0
62,100,0.2,461,1,39,DL_Guitar,6,3,umon_taturo_upbeat,0.9983232617378235,1
57,100,0.5590909090909091,804,1,39,DL_Guitar,6,9,umon_taturo_upbeat,0.5462210178375244,1
52,100,0.8772727272727273,75,1,40,DL_Guitar,6,14,umon_taturo_upbeat,0.9988439083099365,1
52,100,0.13636363636363635,413,1,40,DL_Guitar,6,2,umon_taturo_upbeat,0.13798508048057556,0
52,100,0.17727272727272728,448,0,40,DL_Guitar,6,3,umon_taturo_upbeat,0.16236889362335205,0
65,100,0.2772727272727273,603,0,40,DL_Guitar,6,4,umon_taturo_upbeat,0.19105897843837738,0
53,100,0.6,681,0,40,DL_Guitar,6,10,umon_taturo_upbeat,0.26197174191474915,0
53,100,0.2636363636363636,48,1,41,DL_Guitar,6,4,umon_taturo_upbeat,0.9983735084533691,1
59,100,0.18181818181818182,224,0,41,DL_Guitar,6,3,umon_taturo_upbeat,0.05105108022689819,0
54,100,0.4772727272727273,316,0,41,DL_Guitar,6,8,umon_taturo_upbeat,0.04161199554800987,0
59,100,0.2590909090909091,435,0,41,DL_Guitar,6,4,umon_taturo_upbeat,0.03797975555062294,0
54,100,0.3,501,0,41,DL_Guitar,6,5,umon_taturo_upbeat,0.039259400218725204,0
54,100,0.2409090909090909,576,0,41,DL_Guitar,6,4,umon_taturo_upbeat,0.04616560786962509,0
54,100,0.2772727272727273,678,0,41,DL_Guitar,6,4,umon_taturo_upbeat,0.05712966248393059,0
54,100,0.4590909090909091,813,0,41,DL_Guitar,6,7,umon_taturo_upbeat,0.09187972545623779,0
59,100,0.2409090909090909,66,1,42,DL_Guitar,6,4,umon_taturo_upbeat,0.9984879493713379,1
62,100,0.2,128,0,42,DL_Guitar,6,3,umon_taturo_upbeat,0.06335416436195374,0
57,100,0.2,254,0,42,DL_Guitar,6,3,umon_taturo_upbeat,0.058290641754865646,0
52,100,0.4818181818181818,321,0,42,DL_Guitar,6,8,umon_taturo_upbeat,0.06136482581496239,0
59,100,0.2818181818181818,616,1,42,DL_Guitar,6,5,umon_taturo_upbeat,0.07168494164943695,0
52,100,0.16363636363636364,708,0,42,DL_Guitar,6,3,umon_taturo_upbeat,0.08474063873291016,0
52,100,0.11818181818181818,831,0,42,DL_Guitar,6,2,umon_taturo_upbeat,0.12635484337806702,0
57,100,0.2818181818181818,48,1,43,DL_Guitar,6,5,umon_taturo_upbeat,0.9990280866622925,1
69,100,0.3181818181818182,743,1,43,DL_Guitar,6,5,umon_taturo_upbeat,0.37035077810287476,0
57,100,0.5181818181818182,813,0,43,DL_Guitar,6,8,umon_taturo_upbeat,0.45617830753326416,0
64,100,0.1590909090909091,721,1,44,DL_Guitar,6,3,umon_taturo_upbeat,0.9990280866622925,1
64,100,0.35909090909090907,788,0,44,DL_Guitar,6,6,umon_taturo_upbeat,0.3703385591506958,0
64,100,0.32272727272727275,871,0,44,DL_Guitar,6,5,umon_taturo_upbeat,0.4561750292778015,0
53,100,0.12272727272727273,211,1,45,DL_Guitar,6,2,umon_taturo_upbeat,0.9988439083099365,1
65,100,0.18181818181818182,334,0,45,DL_Guitar,6,3,umon_taturo_upbeat,0.13798277080059052,0
54,100,0.36363636363636365,686,1,45,DL_Guitar,6,6,umon_taturo_upbeat,0.16236543655395508,0
54,100,0.23636363636363636,810,0,45,DL_Guitar,6,4,umon_taturo_upbeat,0.19105589389801025,0
66,100,0.1409090909090909,866,0,45,DL_Guitar,6,2,umon_taturo_upbeat,0.2619684934616089,0
62,100,0.3181818181818182,668,1,46,DL_Guitar,6,5,umon_taturo_upbeat,0.9983231425285339,1
52,100,0.2818181818181818,826,0,46,DL_Guitar,6,5,umon_taturo_upbeat,0.5462256669998169,1
52,100,0.12272727272727273,13,1,47,DL_Guitar,6,2,umon_taturo_upbeat,0.9990094900131226,1
52,100,0.4409090909090909,43,0,47,DL_Guitar,6,7,umon_taturo_upbeat,0.23323161900043488,0
52,100,0.5818181818181818,179,0,47,DL_Guitar,6,9,umon_taturo_upbeat,0.2705879807472229,0
53,100,1.240909090909091,426,1,47,DL_Guitar,6,15,umon_taturo_upbeat,0.3579254150390625,0
54,100,0.42272727272727273,48,1,48,DL_Guitar,6,7,umon_taturo_upbeat,0.9990280866622925,1
61,100,0.2,163,0,48,DL_Guitar,6,3,umon_taturo_upbeat,0.3703402578830719,0
61,100,0.4818181818181818,440,1,48,DL_Guitar,6,8,umon_taturo_upbeat,0.45617443323135376,0
62,100,0.4,34,1,49,DL_Guitar,6,6,umon_taturo_upbeat,0.9988439083099365,1
52,100,1.3590909090909091,176,0,49,DL_Guitar,6,15,umon_taturo_upbeat,0.13798503577709198,0
52,100,0.2,480,1,49,DL_Guitar,6,3,umon_taturo_upbeat,0.1623772531747818,0
52,100,0.1590909090909091,638,0,49,DL_Guitar,6,3,umon_taturo_upbeat,0.19107280671596527,0
53,100,1.6363636363636365,678,0,49,DL_Guitar,6,15,umon_taturo_upbeat,0.26196783781051636,0
54,100,0.23636363636363636,303,1,50,DL_Guitar,6,4,umon_taturo_upbeat,0.9988439083099365,1
61,100,0.2409090909090909,440,0,50,DL_Guitar,6,4,umon_taturo_upbeat,0.13798266649246216,0
61,100,0.4818181818181818,571,0,50,DL_Guitar,6,8,umon_taturo_upbeat,0.16236229240894318,0
61,100,0.3,691,0,50,DL_Guitar,6,5,umon_taturo_upbeat,0.19106191396713257,0
57,100,0.13636363636363635,788,0,50,DL_Guitar,6,2,umon_taturo_upbeat,0.261968731880188,0
52,100,0.5,431,1,51,DL_Guitar,6,8,umon_taturo_upbeat,0.9990280866622925,1
52,100,0.1,545,0,51,DL_Guitar,6,2,umon_taturo_upbeat,0.37033677101135254,0
52,100,0.11818181818181818,691,0,51,DL_Guitar,6,2,umon_taturo_upbeat,0.4561716616153717,0
54,100,0.1590909090909091,0,1,52,DL_Guitar,6,3,umon_taturo_upbeat,0.9986506104469299,1
54,100,0.1,56,0,52,DL_Guitar,6,2,umon_taturo_upbeat,0.08798271417617798,0
61,100,0.7,91,0,52,DL_Guitar,6,11,umon_taturo_upbeat,0.09298494458198547,0
54,100,0.3,254,0,52,DL_Guitar,6,5,umon_taturo_upbeat,0.1099584549665451,0
54,100,0.1,325,0,52,DL_Guitar,6,2,umon_taturo_upbeat,0.12868031859397888,0
61,100,2.640909090909091,426,0,52,DL_Guitar,6,15,umon_taturo_upbeat,0.1822100132703781,0
57,100,1.440909090909091,158,1,53,DL_Guitar,6,15,umon_taturo_upbeat,0.9983231425285339,1
52,100,2.1,681,1,53,DL_Guitar,6,15,umon_taturo_upbeat,0.5462164878845215,1
52,100,0.11818181818181818,303,1,54,DL_Guitar,6,2,umon_taturo_upbeat,0.9792238473892212,1
57,100,0.18181818181818182,418,1,55,DL_Guitar,6,3,umon_taturo_upbeat,0.9988439083099365,1
57,100,0.1409090909090909,518,0,55,DL_Guitar,6,2,umon_taturo_upbeat,0.13798663020133972,0
57,100,0.37727272727272726,558,0,55,DL_Guitar,6,6,umon_taturo_upbeat,0.16236749291419983,0
57,100,0.21818181818181817,660,0,55,DL_Guitar,6,3,umon_taturo_upbeat,0.1910664141178131,0
57,100,0.38181818181818183,726,0,55,DL_Guitar,6,6,umon_taturo_upbeat,0.26197072863578796,0
57,100,0.2409090909090909,625,1,56,DL_Guitar,6,4,umon_taturo_upbeat,0.9983232617378235,1
57,100,0.4818181818181818,703,0,56,DL_Guitar,6,8,umon_taturo_upbeat,0.5462151169776917,1
57,100,0.22272727272727272,4,1,57,DL_Guitar,6,4,umon_taturo_upbeat,0.9984879493713379,1
57,100,0.4,91,0,57,DL_Guitar,6,6,umon_taturo_upbeat,0.06335360556840897,0
57,100,0.4818181818181818,330,1,57,DL_Guitar,6,8,umon_taturo_upbeat,0.05828885734081268,0
57,100,0.2590909090909091,453,0,57,DL_Guitar,6,4,umon_taturo_upbeat,0.06136147305369377,0
69,100,0.1409090909090909,531,0,57,DL_Guitar,6,2,umon_taturo_upbeat,0.07168348133563995,0
61,100,0.5,691,0,57,DL_Guitar,6,8,umon_taturo_upbeat,0.0847356989979744,0
59,100,0.6,810,0,57,DL_Guitar,6,10,umon_taturo_upbeat,0.12635290622711182,0
59,100,0.18181818181818182,153,1,58,DL_Guitar,6,3,umon_taturo_upbeat,0.9990094900131226,1
59,100,0.1,215,0,58,DL_Guitar,6,2,umon_taturo_upbeat,0.23322905600070953,0
52,100,0.4409090909090909,330,0,58,DL_Guitar,6,7,umon_taturo_upbeat,0.2705818712711334,0
52,100,0.11818181818181818,536,0,58,DL_Guitar,6,2,umon_taturo_upbeat,0.35793566703796387,0
61,100,0.1409090909090909,48,1,59,DL_Guitar,6,2,umon_taturo_upbeat,0.9990280866622925,1
61,100,0.3,110,0,59,DL_Guitar,6,5,umon_taturo_upbeat,0.3703441321849823,0
57,100,0.1409090909090909,770,1,59,DL_Guitar,6,2,umon_taturo_upbeat,0.4561729431152344,0
57,100,0.11818181818181818,330,1,60,DL_Guitar,6,2,umon_taturo_upbeat,0.9990280866622925,1
61,100,0.5636363636363636,421,0,60,DL_Guitar,6,9,umon_taturo_upbeat,0.3703414797782898,0
61,100,0.3181818181818182,678,1,60,DL_Guitar,6,5,umon_taturo_upbeat,0.4561668932437897,0
57,100,0.4636363636363636,444,1,61,DL_Guitar,6,7,umon_taturo_upbeat,0.9990280866622925,1
54,100,0.35909090909090907,550,0,61,DL_Guitar,6,6,umon_taturo_upbeat,0.37033799290657043,0
57,100,0.13636363636363635,633,0,61,DL_Guitar,6,2,umon_taturo_upbeat,0.45617273449897766,0
57,100,0.11818181818181818,316,1,62,DL_Guitar,6,2,umon_taturo_upbeat,0.9990094900131226,1
57,100,0.1,471,0,62,DL_Guitar,6,2,umon_taturo_upbeat,0.23323094844818115,0
57,100,0.18181818181818182,628,0,62,DL_Guitar,6,3,umon_taturo_upbeat,0.27058473229408264,0
59,100,0.4590909090909091,810,0,62,DL_Guitar,6,7,umon_taturo_upbeat,0.3579334616661072,0
61,100,0.13636363636363635,171,1,63,DL_Guitar,6,2,umon_taturo_upbeat,0.9983735084533691,1
59,100,0.35909090909090907,316,0,63,DL_Guitar,6,6,umon_taturo_upbeat,0.05105135962367058,0
57,100,0.2409090909090909,431,0,63,DL_Guitar,6,4,umon_taturo_upbeat,0.041612252593040466,0
54,100,0.1,691,1,63,DL_Guitar,6,2,umon_taturo_upbeat,0.037980400025844574,0
54,100,0.17727272727272728,721,0,63,DL_Guitar,6,3,umon_taturo_upbeat,0.039260219782590866,0
57,100,0.12272727272727273,774,0,63,DL_Guitar,6,2,umon_taturo_upbeat,0.046164847910404205,0
54,100,0.11818181818181818,813,0,63,DL_Guitar,6,2,umon_taturo_upbeat,0.057132553309202194,0
54,100,0.12272727272727273,848,0,63,DL_Guitar,6,2,umon_taturo_upbeat,0.09187860786914825,0
57,100,0.1590909090909091,0,1,64,DL_Guitar,6,3,umon_taturo_upbeat,0.9990280866622925,1
57,100,0.7181818181818181,550,1,64,DL_Guitar,6,11,umon_taturo_upbeat,0.37034448981285095,0
57,100,0.4,849,1,64,DL_Guitar,6,6,umon_taturo_upbeat,0.4561760127544403,0
57,100,0.2409090909090909,66,1,65,DL_Guitar,6,4,umon_taturo_upbeat,0.9990280866622925,1
59,100,0.8363636363636363,172,0,65,DL_Guitar,6,13,umon_taturo_upbeat,0.3703399896621704,0
61,100,0.2409090909090909,404,1,65,DL_Guitar,6,4,umon_taturo_upbeat,0.4561631679534912,0
59,100,0.8590909090909091,426,1,66,DL_Guitar,6,14,umon_taturo_upbeat,0.9990280866622925,1
69,100,0.1,796,1,66,DL_Guitar,6,2,umon_taturo_upbeat,0.37034380435943604,0
62,100,0.12272727272727273,849,0,66,DL_Guitar,6,2,umon_taturo_upbeat,0.45617061853408813,0
62,100,0.1590909090909091,0,1,67,DL_Guitar,6,3,umon_taturo_upbeat,0.9983004927635193,1
64,100,0.5181818181818182,40,0,67,DL_Guitar,6,8,umon_taturo_upbeat,0.044663287699222565,0
64,100,0.3409090909090909,176,0,67,DL_Guitar,6,5,umon_taturo_upbeat,0.03337307646870613,0
52,100,0.37727272727272726,436,1,67,DL_Guitar,6,6,umon_taturo_upbeat,0.02695021592080593,0
52,100,0.17727272727272728,546,0,67,DL_Guitar,6,3,umon_taturo_upbeat,0.02408582530915737,0
52,100,0.1590909090909091,603,0,67,DL_Guitar,6,3,umon_taturo_upbeat,0.024974722415208817,0
52,100,0.13636363636363635,656,0,67,DL_Guitar,6,2,umon_taturo_upbeat,0.030650544911623,0
52,100,0.3409090909090909,690,0,67,DL_Guitar,6,5,umon_taturo_upbeat,0.04137113690376282,0
52,100,0.38181818181818183,849,0,67,DL_Guitar,6,6,umon_taturo_upbeat,0.07207562029361725,0
52,100,0.2,233,1,68,DL_Guitar,6,3,umon_taturo_upbeat,0.9990280866622925,1
52,100,0.37727272727272726,294,0,68,DL_Guitar,6,6,umon_taturo_upbeat,0.3703308403491974,0
59,100,0.13636363636363635,457,0,68,DL_Guitar,6,2,umon_taturo_upbeat,0.456177294254303,0
57,100,0.4,189,1,69,DL_Guitar,6,6,umon_taturo_upbeat,0.9990280866622925,1
52,100,0.2,686,1,69,DL_Guitar,6,3,umon_taturo_upbeat,0.3703398108482361,0
52,100,0.1590909090909091,832,0,69,DL_Guitar,6,3,umon_taturo_upbeat,0.45617949962615967,0
52,100,0.2590909090909091,56,1,70,DL_Guitar,6,4,umon_taturo_upbeat,0.9986506104469299,1
59,100,0.1409090909090909,140,0,70,DL_Guitar,6,2,umon_taturo_upbeat,0.08798053115606308,0
53,100,0.5818181818181818,307,0,70,DL_Guitar,6,9,umon_taturo_upbeat,0.0929800420999527,0
53,100,0.1590909090909091,453,0,70,DL_Guitar,6,3,umon_taturo_upbeat,0.1099480390548706,0
53,100,0.1409090909090909,642,0,70,DL_Guitar,6,2,umon_taturo_upbeat,0.12867030501365662,0
56,100,0.11818181818181818,734,0,70,DL_Guitar,6,2,umon_taturo_upbeat,0.18221311271190643,0
61,100,0.11818181818181818,153,1,71,DL_Guitar,6,2,umon_taturo_upbeat,0.9990280866622925,1
57,100,0.1590909090909091,673,1,71,DL_Guitar,6,3,umon_taturo_upbeat,0.3703456223011017,0
57,100,0.2,823,0,71,DL_Guitar,6,3,umon_taturo_upbeat,0.4561777114868164,0
57,100,0.1590909090909091,9,1,72,DL_Guitar,6,3,umon_taturo_upbeat,0.9990094900131226,1
59,100,1.059090909090909,193,0,72,DL_Guitar,6,15,umon_taturo_upbeat,0.2332332283258438,0
69,100,0.21818181818181817,502,1,72,DL_Guitar,6,3,umon_taturo_upbeat,0.2705853283405304,0
57,100,0.33636363636363636,743,1,72,DL_Guitar,6,5,umon_taturo_upbeat,0.35793444514274597,0
61,100,0.11818181818181818,514,1,73,DL_Guitar,6,2,umon_taturo_upbeat,0.9990280866622925,1
61,100,0.42272727272727273,585,0,73,DL_Guitar,6,7,umon_taturo_upbeat,0.37034016847610474,0
57,100,0.3409090909090909,870,1,73,DL_Guitar,6,5,umon_taturo_upbeat,0.4561727046966553,0
57,100,0.21818181818181817,132,1,74,DL_Guitar,6,3,umon_taturo_upbeat,0.9986506104469299,1
57,100,0.2772727272727273,237,0,74,DL_Guitar,6,4,umon_taturo_upbeat,0.08797995746135712,0
52,100,0.2590909090909091,559,1,74,DL_Guitar,6,4,umon_taturo_upbeat,0.09298519790172577,0
52,100,0.18181818181818182,619,0,74,DL_Guitar,6,3,umon_taturo_upbeat,0.109951451420784,0
64,100,0.18181818181818182,682,0,74,DL_Guitar,6,3,umon_taturo_upbeat,0.12867489457130432,0
59,100,0.2818181818181818,726,0,74,DL_Guitar,6,5,umon_taturo_upbeat,0.18222138285636902,0
61,100,0.1,17,1,75,DL_Guitar,6,2,umon_taturo_upbeat,0.9988439083099365,1
53,100,1.1409090909090909,47,0,75,DL_Guitar,6,15,umon_taturo_upbeat,0.13797780871391296,0
61,100,0.6409090909090909,316,1,75,DL_Guitar,6,10,umon_taturo_upbeat,0.162361741065979,0
61,100,0.12272727272727273,606,1,75,DL_Guitar,6,2,umon_taturo_upbeat,0.19105596840381622,0
61,100,0.3,739,0,75,DL_Guitar,6,5,umon_taturo_upbeat,0.2619644105434418,0
59,100,0.17727272727272728,9,1,76,DL_Guitar,6,3,umon_taturo_upbeat,0.9988439083099365,1
52,100,0.18181818181818182,550,1,76,DL_Guitar,6,3,umon_taturo_upbeat,0.1379781812429428,0
52,100,0.1409090909090909,739,0,76,DL_Guitar,6,2,umon_taturo_upbeat,0.16236461699008942,0
52,100,0.16363636363636364,773,0,76,DL_Guitar,6,3,umon_taturo_upbeat,0.19105979800224304,0
59,100,0.21818181818181817,813,0,76,DL_Guitar,6,3,umon_taturo_upbeat,0.2619746923446655,0
59,100,0.3,176,1,77,DL_Guitar,6,5,umon_taturo_upbeat,0.9988439083099365,1
59,100,0.5590909090909091,307,0,77,DL_Guitar,6,9,umon_taturo_upbeat,0.1379799097776413,0
64,100,0.18181818181818182,440,0,77,DL_Guitar,6,3,umon_taturo_upbeat,0.16236832737922668,0
59,100,0.17727272727272728,502,0,77,DL_Guitar,6,3,umon_taturo_upbeat,0.19105760753154755,0
59,100,0.4409090909090909,559,0,77,DL_Guitar,6,7,umon_taturo_upbeat,0.2619662284851074,0
57,100,0.3,289,1,78,DL_Guitar,6,5,umon_taturo_upbeat,0.9792237281799316,1
65,100,0.1409090909090909,449,1,79,DL_Guitar,6,2,umon_taturo_upbeat,0.9986506104469299,1
65,100,0.18181818181818182,550,0,79,DL_Guitar,6,3,umon_taturo_upbeat,0.0879766047000885,0
65,100,0.2,597,0,79,DL_Guitar,6,3,umon_taturo_upbeat,0.09298428893089294,0
65,100,0.6636363636363637,663,0,79,DL_Guitar,6,11,umon_taturo_upbeat,0.10994571447372437,0
65,100,0.1409090909090909,813,0,79,DL_Guitar,6,2,umon_taturo_upbeat,0.1286705881357193,0
65,100,0.5227272727272727,849,0,79,DL_Guitar,6,8,umon_taturo_upbeat,0.18220920860767365,0
59,100,0.2,246,1,80,DL_Guitar,6,3,umon_taturo_upbeat,0.9990094900131226,1
59,100,0.17727272727272728,294,0,80,DL_Guitar,6,3,umon_taturo_upbeat,0.2332274615764618,0
59,100,0.2,496,0,80,DL_Guitar,6,3,umon_taturo_upbeat,0.2705768346786499,0
52,100,0.2772727272727273,722,0,80,DL_Guitar,6,4,umon_taturo_upbeat,0.35793086886405945,0
52,100,0.6227272727272727,47,1,81,DL_Guitar,6,10,umon_taturo_upbeat,0.9983231425285339,1
61,100,1.7818181818181817,263,0,81,DL_Guitar,6,15,umon_taturo_upbeat,0.5462063550949097,1
57,100,0.2590909090909091,127,1,82,DL_Guitar,6,4,umon_taturo_upbeat,0.9990094900131226,1
57,100,0.2409090909090909,263,0,82,DL_Guitar,6,4,umon_taturo_upbeat,0.23324324190616608,0
57,100,0.1,320,0,82,DL_Guitar,6,2,umon_taturo_upbeat,0.2705990970134735,0
57,100,0.759090909090909,440,0,82,DL_Guitar,6,12,umon_taturo_upbeat,0.35793638229370117,0
57,100,0.12272727272727273,13,1,83,DL_Guitar,6,2,umon_taturo_upbeat,0.9990280866622925,1
57,100,0.2,303,1,83,DL_Guitar,6,3,umon_taturo_upbeat,0.37033480405807495,0
52,100,0.1,857,1,83,DL_Guitar,6,2,umon_taturo_upbeat,0.45617228746414185,0
61,100,0.3,197,1,84,DL_Guitar,6,5,umon_taturo_upbeat,0.9990094900131226,1
61,100,1.0,347,0,84,DL_Guitar,6,15,umon_taturo_upbeat,0.23322559893131256,0
61,100,0.5227272727272727,707,1,84,DL_Guitar,6,8,umon_taturo_upbeat,0.2705821394920349,0
61,100,0.38181818181818183,836,0,84,DL_Guitar,6,6,umon_taturo_upbeat,0.3579246401786804,0
52,100,0.4818181818181818,166,1,85,DL_Guitar,6,8,umon_taturo_upbeat,0.9986506104469299,1
52,100,0.6,286,0,85,DL_Guitar,6,10,umon_taturo_upbeat,0.08798103034496307,0
52,100,0.3,422,0,85,DL_Guitar,6,5,umon_taturo_upbeat,0.0929846540093422,0
52,100,0.35909090909090907,603,0,85,DL_Guitar,6,6,umon_taturo_upbeat,0.10995060205459595,0
59,100,0.32272727272727275,729,0,85,DL_Guitar,6,5,umon_taturo_upbeat,0.1286764144897461,0
59,100,0.18181818181818182,817,0,85,DL_Guitar,6,3,umon_taturo_upbeat,0.1822235882282257,0
64,100,0.2409090909090909,113,1,86,DL_Guitar,6,4,umon_taturo_upbeat,0.9986506104469299,1
59,100,0.42272727272727273,202,0,86,DL_Guitar,6,7,umon_taturo_upbeat,0.08798056840896606,0
57,100,0.1409090909090909,493,1,86,DL_Guitar,6,2,umon_taturo_upbeat,0.09298736602067947,0
57,100,0.35909090909090907,527,0,86,DL_Guitar,6,6,umon_taturo_upbeat,0.10995303094387054,0
57,100,0.2772727272727273,624,0,86,DL_Guitar,6,4,umon_taturo_upbeat,0.12867967784404755,0
57,100,1.1590909090909092,813,0,86,DL_Guitar,6,15,umon_taturo_upbeat,0.18222646415233612,0
57,100,0.2409090909090909,250,1,87,DL_Guitar,6,4,umon_taturo_upbeat,0.9792242646217346,1
59,100,0.1409090909090909,506,1,90,DL_Guitar,6,2,umon_taturo_upbeat,0.9990280866622925,1
59,100,0.1,646,0,90,DL_Guitar,6,2,umon_taturo_upbeat,0.37033528089523315,0
59,100,0.4590909090909091,823,0,90,DL_Guitar,6,7,umon_taturo_upbeat,0.45616915822029114,0
59,100,0.5,79,1,91,DL_Guitar,6,8,umon_taturo_upbeat,0.9990280866622925,1
52,100,0.17727272727272728,316,1,91,DL_Guitar,6,3,umon_taturo_upbeat,0.37033703923225403,0
52,100,0.4,817,1,91,DL_Guitar,6,6,umon_taturo_upbeat,0.45617422461509705,0
57,100,0.22272727272727272,100,1,92,DL_Guitar,6,4,umon_taturo_upbeat,0.9984879493713379,1
66,100,0.18181818181818182,197,0,92,DL_Guitar,6,3,umon_taturo_upbeat,0.0633544847369194,0
55,100,0.11818181818181818,426,0,92,DL_Guitar,6,2,umon_taturo_upbeat,0.05828933045268059,0
55,100,0.11818181818181818,480,0,92,DL_Guitar,6,2,umon_taturo_upbeat,0.06136300042271614,0
56,100,0.1409090909090909,506,0,92,DL_Guitar,6,2,umon_taturo_upbeat,0.07168145477771759,0
52,100,0.4,572,0,92,DL_Guitar,6,6,umon_taturo_upbeat,0.08473603427410126,0
59,100,0.32272727272727275,707,0,92,DL_Guitar,6,5,umon_taturo_upbeat,0.12635034322738647,0
64,100,0.16363636363636364,3,1,93,DL_Guitar,6,3,umon_taturo_upbeat,0.9988439083099365,1
59,100,0.11818181818181818,150,0,93,DL_Guitar,6,2,umon_taturo_upbeat,0.13798680901527405,0
65,100,0.4590909090909091,320,0,93,DL_Guitar,6,7,umon_taturo_upbeat,0.16237033903598785,0
65,100,0.2772727272727273,426,0,93,DL_Guitar,6,4,umon_taturo_upbeat,0.19106443226337433,0
57,100,0.5181818181818182,844,1,93,DL_Guitar,6,8,umon_taturo_upbeat,0.26196223497390747,0
59,100,0.3181818181818182,813,1,94,DL_Guitar,6,5,umon_taturo_upbeat,0.979223906993866,1
59,100,0.32272727272727275,92,1,95,DL_Guitar,6,5,umon_taturo_upbeat,0.9983232617378235,1
59,100,0.1409090909090909,223,0,95,DL_Guitar,6,2,umon_taturo_upbeat,0.5462120771408081,1
54,100,0.1590909090909091,53,1,96,DL_Guitar,6,3,umon_taturo_upbeat,0.9983232617378235,1
57,100,0.6181818181818182,734,1,96,DL_Guitar,6,10,umon_taturo_upbeat,0.5462133288383484,1
57,100,0.21818181818181817,0,1,97,DL_Guitar,6,3,umon_taturo_upbeat,0.9990094900131226,1
59,100,0.4818181818181818,189,0,97,DL_Guitar,6,8,umon_taturo_upbeat,0.23323708772659302,0
64,100,0.11818181818181818,493,1,97,DL_Guitar,6,2,umon_taturo_upbeat,0.2705942392349243,0
57,100,0.8409090909090909,823,1,97,DL_Guitar,6,13,umon_taturo_upbeat,0.35793250799179077,0
57,100,0.12272727272727273,157,1,98,DL_Guitar,6,2,umon_taturo_upbeat,0.979223906993866,1
57,100,0.2409090909090909,443,1,100,DL_Guitar,6,4,umon_taturo_upbeat,0.9990094900131226,1
57,100,0.2409090909090909,563,0,100,DL_Guitar,6,4,umon_taturo_upbeat,0.23322243988513947,0
57,100,0.2,633,0,100,DL_Guitar,6,3,umon_taturo_upbeat,0.2705824077129364,0
59,100,0.5590909090909091,810,0,100,DL_Guitar,6,9,umon_taturo_upbeat,0.35792097449302673,0
59,100,0.11818181818181818,83,1,101,DL_Guitar,6,2,umon_taturo_upbeat,0.9986506104469299,1
59,100,0.4,153,0,101,DL_Guitar,6,6,umon_taturo_upbeat,0.08797796815633774,0
59,100,0.2,260,0,101,DL_Guitar,6,3,umon_taturo_upbeat,0.09298308938741684,0
59,100,0.5227272727272727,430,0,101,DL_Guitar,6,8,umon_taturo_upbeat,0.10994771867990494,0
53,100,0.3,677,1,101,DL_Guitar,6,5,umon_taturo_upbeat,0.12866991758346558,0
59,100,0.2,756,0,101,DL_Guitar,6,3,umon_taturo_upbeat,0.1822212189435959,0
57,100,0.4772727272727273,193,1,102,DL_Guitar,6,8,umon_taturo_upbeat,0.9990094900131226,1
57,100,0.18181818181818182,597,1,102,DL_Guitar,6,3,umon_taturo_upbeat,0.23323985934257507,0
57,100,0.4636363636363636,707,0,102,DL_Guitar,6,7,umon_taturo_upbeat,0.2705889046192169,0
57,100,0.1,839,0,102,DL_Guitar,6,2,umon_taturo_upbeat,0.3579308092594147,0
57,100,0.12272727272727273,35,1,103,DL_Guitar,6,2,umon_taturo_upbeat,0.9990094900131226,1
59,100,0.5181818181818182,184,0,103,DL_Guitar,6,8,umon_taturo_upbeat,0.23323185741901398,0
59,100,0.7227272727272728,312,0,103,DL_Guitar,6,12,umon_taturo_upbeat,0.27057698369026184,0
52,100,0.13636363636363635,502,0,103,DL_Guitar,6,2,umon_taturo_upbeat,0.3579307496547699,0
57,100,0.1,282,1,104,DL_Guitar,6,2,umon_taturo_upbeat,0.9983004927635193,1
57,100,0.18181818181818182,466,0,104,DL_Guitar,6,3,umon_taturo_upbeat,0.04466354101896286,0
57,100,0.1,514,0,104,DL_Guitar,6,2,umon_taturo_upbeat,0.03337200731039047,0
57,100,0.2590909090909091,540,0,104,DL_Guitar,6,4,umon_taturo_upbeat,0.02694859355688095,0
57,100,0.11818181818181818,616,0,104,DL_Guitar,6,2,umon_taturo_upbeat,0.02408359944820404,0
57,100,0.2409090909090909,682,0,104,DL_Guitar,6,4,umon_taturo_upbeat,0.024973606690764427,0
57,100,0.1,743,0,104,DL_Guitar,6,2,umon_taturo_upbeat,0.03064858913421631,0
57,100,0.1590909090909091,770,0,104,DL_Guitar,6,3,umon_taturo_upbeat,0.0413697212934494,0
57,100,0.1,813,0,104,DL_Guitar,6,2,umon_taturo_upbeat,0.07207144051790237,0
57,100,0.11818181818181818,9,1,105,DL_Guitar,6,2,umon_taturo_upbeat,0.9792237281799316,1
56,100,0.18181818181818182,651,1,0,DL_Guitar,6,3,hanamokatanamo,0.9792238473892212,1
61,100,0.9,655,1,1,DL_Guitar,6,14,hanamokatanamo,0.9792223572731018,1
63,100,0.41818181818181815,140,1,5,DL_Guitar,6,7,hanamokatanamo,0.9990094900131226,1
56,100,0.1409090909090909,541,1,5,DL_Guitar,6,2,hanamokatanamo,0.23323732614517212,0
56,100,0.38181818181818183,575,0,5,DL_Guitar,6,6,hanamokatanamo,0.2705918550491333,0
56,100,0.3181818181818182,721,0,5,DL_Guitar,6,5,hanamokatanamo,0.35793545842170715,0
63,100,0.3409090909090909,153,1,6,DL_Guitar,6,5,hanamokatanamo,0.9988439083099365,1
63,100,0.1409090909090909,311,0,6,DL_Guitar,6,2,hanamokatanamo,0.13798215985298157,0
60,100,0.1590909090909091,386,0,6,DL_Guitar,6,3,hanamokatanamo,0.1623685657978058,0
53,100,0.42272727272727273,695,1,6,DL_Guitar,6,7,hanamokatanamo,0.19106024503707886,0
53,100,0.23636363636363636,810,0,6,DL_Guitar,6,4,hanamokatanamo,0.261972039937973,0
63,100,0.2772727272727273,325,1,7,DL_Guitar,6,4,hanamokatanamo,0.9983232617378235,1
63,100,0.6,818,1,7,DL_Guitar,6,10,hanamokatanamo,0.5462234020233154,1
63,100,0.32272727272727275,321,1,8,DL_Guitar,6,5,hanamokatanamo,0.9990280866622925,1
63,100,0.17727272727272728,426,0,8,DL_Guitar,6,3,hanamokatanamo,0.3703421354293823,0
53,100,0.12272727272727273,795,1,8,DL_Guitar,6,2,hanamokatanamo,0.4561687111854553,0
63,100,0.2636363636363636,862,1,9,DL_Guitar,6,4,hanamokatanamo,0.9792236089706421,1
56,100,0.1590909090909091,364,1,10,DL_Guitar,6,3,hanamokatanamo,0.9990094900131226,1
56,100,0.13636363636363635,457,0,10,DL_Guitar,6,2,hanamokatanamo,0.23324717581272125,0
56,100,0.740909090909091,527,0,10,DL_Guitar,6,12,hanamokatanamo,0.2705812156200409,0
56,100,0.5590909090909091,716,0,10,DL_Guitar,6,9,hanamokatanamo,0.3579232096672058,0
63,100,0.11818181818181818,110,1,11,DL_Guitar,6,2,hanamokatanamo,0.9988439083099365,1
56,100,0.2409090909090909,250,0,11,DL_Guitar,6,4,hanamokatanamo,0.137980118393898,0
63,100,0.22272727272727272,443,0,11,DL_Guitar,6,4,hanamokatanamo,0.16236600279808044,0
63,100,0.1,691,1,11,DL_Guitar,6,2,hanamokatanamo,0.1910586804151535,0
63,100,0.3,876,0,11,DL_Guitar,6,5,hanamokatanamo,0.2619679272174835,0
56,100,0.22272727272727272,70,1,12,DL_Guitar,6,4,hanamokatanamo,0.9988439083099365,1
63,100,0.1,144,0,12,DL_Guitar,6,2,hanamokatanamo,0.13798245787620544,0
63,100,0.2,273,0,12,DL_Guitar,6,3,hanamokatanamo,0.16236653923988342,0
56,100,0.2818181818181818,378,0,12,DL_Guitar,6,5,hanamokatanamo,0.19105207920074463,0
63,100,0.3,598,0,12,DL_Guitar,6,5,hanamokatanamo,0.2619679272174835,0
63,100,0.23636363636363636,149,1,13,DL_Guitar,6,4,hanamokatanamo,0.9990094900131226,1
63,100,0.1409090909090909,333,0,13,DL_Guitar,6,2,hanamokatanamo,0.23323550820350647,0
56,100,0.17727272727272728,436,0,13,DL_Guitar,6,3,hanamokatanamo,0.27059462666511536,0
63,100,0.8,660,0,13,DL_Guitar,6,13,hanamokatanamo,0.3579312264919281,0
63,100,1.6590909090909092,56,1,14,DL_Guitar,6,15,hanamokatanamo,0.9990094900131226,1
63,100,0.3409090909090909,488,1,14,DL_Guitar,6,5,hanamokatanamo,0.23324178159236908,0
56,100,0.22272727272727272,685,0,14,DL_Guitar,6,4,hanamokatanamo,0.2705899775028229,0
63,100,0.42272727272727273,849,0,14,DL_Guitar,6,7,hanamokatanamo,0.35793226957321167,0
63,100,0.2409090909090909,140,1,15,DL_Guitar,6,4,hanamokatanamo,0.9990280866622925,1
63,100,0.22272727272727272,355,0,15,DL_Guitar,6,4,hanamokatanamo,0.37034809589385986,0
63,100,0.1,835,1,15,DL_Guitar,6,2,hanamokatanamo,0.45617780089378357,0
56,100,0.1590909090909091,13,1,16,DL_Guitar,6,3,hanamokatanamo,0.9982556700706482,1
63,100,0.6227272727272727,69,0,16,DL_Guitar,6,10,hanamokatanamo,0.04129166156053543,0
63,100,0.18181818181818182,210,0,16,DL_Guitar,6,3,hanamokatanamo,0.029125593602657318,0
63,100,0.1409090909090909,308,0,16,DL_Guitar,6,2,hanamokatanamo,0.021568704396486282,0
63,100,0.16363636363636364,378,0,16,DL_Guitar,6,3,hanamokatanamo,0.017059016972780228,0
63,100,0.4772727272727273,449,0,16,DL_Guitar,6,8,hanamokatanamo,0.015268274582922459,0
63,100,0.36363636363636365,576,0,16,DL_Guitar,6,6,hanamokatanamo,0.016456810757517815,0
56,100,0.2,660,0,16,DL_Guitar,6,3,hanamokatanamo,0.02183777466416359,0
63,100,0.41818181818181815,725,0,16,DL_Guitar,6,7,hanamokatanamo,0.03251954913139343,0
63,100,0.1409090909090909,822,0,16,DL_Guitar,6,2,hanamokatanamo,0.060915201902389526,0
63,100,0.5409090909090909,21,1,17,DL_Guitar,6,9,hanamokatanamo,0.9986506104469299,1
63,100,0.3409090909090909,206,0,17,DL_Guitar,6,5,hanamokatanamo,0.0879799947142601,0
53,100,0.1590909090909091,480,1,17,DL_Guitar,6,3,hanamokatanamo,0.09298631548881531,0
53,100,0.3,532,0,17,DL_Guitar,6,5,hanamokatanamo,0.1099492609500885,0
52,100,0.3,611,0,17,DL_Guitar,6,5,hanamokatanamo,0.12867236137390137,0
52,100,0.2590909090909091,681,0,17,DL_Guitar,6,4,hanamokatanamo,0.1822235882282257,0
53,100,0.2409090909090909,119,1,18,DL_Guitar,6,4,hanamokatanamo,0.9986506104469299,1
63,100,0.2409090909090909,356,1,18,DL_Guitar,6,4,hanamokatanamo,0.08798030018806458,0
63,100,0.23636363636363636,436,0,18,DL_Guitar,6,4,hanamokatanamo,0.09298760443925858,0
63,100,0.22272727272727272,497,0,18,DL_Guitar,6,4,hanamokatanamo,0.10995660722255707,0
63,100,0.7,625,0,18,DL_Guitar,6,11,hanamokatanamo,0.12867896258831024,0
56,100,0.35909090909090907,804,0,18,DL_Guitar,6,6,hanamokatanamo,0.18222768604755402,0
63,100,0.5181818181818182,21,1,19,DL_Guitar,6,8,hanamokatanamo,0.9986506104469299,1
63,100,0.3181818181818182,370,1,19,DL_Guitar,6,5,hanamokatanamo,0.08798175305128098,0
56,100,0.18181818181818182,453,0,19,DL_Guitar,6,3,hanamokatanamo,0.09298767894506454,0
56,100,0.2590909090909091,501,0,19,DL_Guitar,6,4,hanamokatanamo,0.1099543496966362,0
56,100,0.2636363636363636,576,0,19,DL_Guitar,6,4,hanamokatanamo,0.12868140637874603,0
63,100,0.7818181818181819,791,0,19,DL_Guitar,6,13,hanamokatanamo,0.18222148716449738,0
56,100,0.7818181818181819,88,1,20,DL_Guitar,6,13,hanamokatanamo,0.9990280866622925,1
63,100,0.2409090909090909,272,0,20,DL_Guitar,6,4,hanamokatanamo,0.37034475803375244,0
63,100,0.41818181818181815,449,0,20,DL_Guitar,6,7,hanamokatanamo,0.45617005228996277,0
56,100,0.23636363636363636,40,1,21,DL_Guitar,6,4,hanamokatanamo,0.9988439083099365,1
63,100,0.2590909090909091,106,0,21,DL_Guitar,6,4,hanamokatanamo,0.13798435032367706,0
63,100,0.22272727272727272,422,1,21,DL_Guitar,6,4,hanamokatanamo,0.16236640512943268,0
63,100,0.1409090909090909,550,0,21,DL_Guitar,6,2,hanamokatanamo,0.19106078147888184,0
63,100,0.6181818181818182,700,0,21,DL_Guitar,6,10,hanamokatanamo,0.26197701692581177,0
60,100,0.1409090909090909,198,1,22,DL_Guitar,6,2,hanamokatanamo,0.9983736276626587,1
63,100,0.12272727272727273,246,0,22,DL_Guitar,6,2,hanamokatanamo,0.051048196852207184,0
63,100,0.1409090909090909,285,0,22,DL_Guitar,6,2,hanamokatanamo,0.041612908244132996,0
63,100,0.17727272727272728,326,0,22,DL_Guitar,6,3,hanamokatanamo,0.037979792803525925,0
53,100,0.17727272727272728,370,0,22,DL_Guitar,6,3,hanamokatanamo,0.03926221281290054,0
63,100,0.1,523,0,22,DL_Guitar,6,2,hanamokatanamo,0.04616701602935791,0
63,100,0.1590909090909091,779,1,22,DL_Guitar,6,3,hanamokatanamo,0.05713686719536781,0
63,100,0.11818181818181818,845,0,22,DL_Guitar,6,2,hanamokatanamo,0.09188685566186905,0
63,100,0.1409090909090909,308,1,23,DL_Guitar,6,2,hanamokatanamo,0.9988439083099365,1
63,100,0.3,581,1,23,DL_Guitar,6,5,hanamokatanamo,0.13798610866069794,0
56,100,0.1409090909090909,669,0,23,DL_Guitar,6,2,hanamokatanamo,0.16237398982048035,0
56,100,0.1590909090909091,760,0,23,DL_Guitar,6,3,hanamokatanamo,0.19106584787368774,0
63,100,0.2,810,0,23,DL_Guitar,6,3,hanamokatanamo,0.2619733214378357,0
63,100,0.3,3,1,24,DL_Guitar,6,5,hanamokatanamo,0.9983735084533691,1
56,100,0.3409090909090909,79,0,24,DL_Guitar,6,5,hanamokatanamo,0.05104995146393776,0
60,100,0.1590909090909091,175,0,24,DL_Guitar,6,3,hanamokatanamo,0.041613053530454636,0
63,100,0.13636363636363635,391,0,24,DL_Guitar,6,2,hanamokatanamo,0.037979207932949066,0
60,100,0.8590909090909091,453,0,24,DL_Guitar,6,14,hanamokatanamo,0.03926178440451622,0
56,100,0.1409090909090909,717,1,24,DL_Guitar,6,2,hanamokatanamo,0.0461672879755497,0
68,100,0.18181818181818182,748,0,24,DL_Guitar,6,3,hanamokatanamo,0.0571339912712574,0
56,100,0.2590909090909091,876,0,24,DL_Guitar,6,4,hanamokatanamo,0.09188424050807953,0
63,100,0.3181818181818182,171,1,25,DL_Guitar,6,5,hanamokatanamo,0.9988439083099365,1
63,100,0.1,347,0,25,DL_Guitar,6,2,hanamokatanamo,0.13798430562019348,0
63,100,0.2818181818181818,378,0,25,DL_Guitar,6,5,hanamokatanamo,0.1623653769493103,0
63,100,0.2636363636363636,443,0,25,DL_Guitar,6,4,hanamokatanamo,0.19106486439704895,0
61,100,0.3181818181818182,735,1,25,DL_Guitar,6,5,hanamokatanamo,0.26196831464767456,0
63,100,0.4590909090909091,17,1,26,DL_Guitar,6,7,hanamokatanamo,0.9983231425285339,1
56,100,0.32272727272727275,642,1,26,DL_Guitar,6,5,hanamokatanamo,0.5462221503257751,1
63,100,0.2,88,1,27,DL_Guitar,6,3,hanamokatanamo,0.9988439083099365,1
60,100,0.2409090909090909,333,1,27,DL_Guitar,6,4,hanamokatanamo,0.13798652589321136,0
60,100,0.3,519,0,27,DL_Guitar,6,5,hanamokatanamo,0.1623741090297699,0
63,100,0.5181818181818182,611,0,27,DL_Guitar,6,8,hanamokatanamo,0.19106005132198334,0
63,100,0.1590909090909091,743,0,27,DL_Guitar,6,3,hanamokatanamo,0.2619803845882416,0
63,100,0.3,216,1,28,DL_Guitar,6,5,hanamokatanamo,0.9983230233192444,1
63,100,0.17727272727272728,303,0,28,DL_Guitar,6,3,hanamokatanamo,0.5462204217910767,1
63,100,0.1590909090909091,0,1,29,DL_Guitar,6,3,hanamokatanamo,0.9983231425285339,1
63,100,0.9181818181818182,743,1,29,DL_Guitar,6,15,hanamokatanamo,0.5462208390235901,1
56,100,0.3,83,1,30,DL_Guitar,6,5,hanamokatanamo,0.9984880685806274,1
56,100,0.1409090909090909,154,0,30,DL_Guitar,6,2,hanamokatanamo,0.06335046887397766,0
63,100,0.740909090909091,320,0,30,DL_Guitar,6,12,hanamokatanamo,0.058288853615522385,0
56,100,0.13636363636363635,523,0,30,DL_Guitar,6,2,hanamokatanamo,0.06135917454957962,0
63,100,0.17727272727272728,602,0,30,DL_Guitar,6,3,hanamokatanamo,0.07168135792016983,0
60,100,0.11818181818181818,691,0,30,DL_Guitar,6,2,hanamokatanamo,0.08473709225654602,0
63,100,0.3409090909090909,783,0,30,DL_Guitar,6,5,hanamokatanamo,0.12634535133838654,0
63,100,0.3181818181818182,9,1,31,DL_Guitar,6,5,hanamokatanamo,0.9986506104469299,1
63,100,0.3,83,0,31,DL_Guitar,6,5,hanamokatanamo,0.08798284828662872,0
63,100,0.8227272727272728,189,0,31,DL_Guitar,6,13,hanamokatanamo,0.09298916906118393,0
63,100,1.1818181818181819,443,1,31,DL_Guitar,6,15,hanamokatanamo,0.10996052622795105,0
56,100,0.13636363636363635,721,1,31,DL_Guitar,6,2,hanamokatanamo,0.1286860704421997,0
63,100,0.36363636363636365,752,0,31,DL_Guitar,6,6,hanamokatanamo,0.1822265386581421,0
63,100,0.32272727272727275,26,1,32,DL_Guitar,6,5,hanamokatanamo,0.9984879493713379,1
63,100,0.4818181818181818,158,0,32,DL_Guitar,6,8,hanamokatanamo,0.06335493922233582,0
56,100,0.2409090909090909,298,0,32,DL_Guitar,6,4,hanamokatanamo,0.05828982964158058,0
63,100,0.1590909090909091,396,0,32,DL_Guitar,6,3,hanamokatanamo,0.06136372685432434,0
61,100,0.2772727272727273,536,0,32,DL_Guitar,6,4,hanamokatanamo,0.07168557494878769,0
53,100,0.2590909090909091,611,0,32,DL_Guitar,6,4,hanamokatanamo,0.08473770320415497,0
63,100,0.2772727272727273,735,0,32,DL_Guitar,6,4,hanamokatanamo,0.12635530531406403,0
63,100,0.6363636363636364,105,1,33,DL_Guitar,6,10,hanamokatanamo,0.9988439083099365,1
56,100,0.5227272727272727,444,1,33,DL_Guitar,6,8,hanamokatanamo,0.13798747956752777,0
63,100,0.35909090909090907,558,0,33,DL_Guitar,6,6,hanamokatanamo,0.16236868500709534,0
63,100,0.12272727272727273,751,0,33,DL_Guitar,6,2,hanamokatanamo,0.19107039272785187,0
63,100,0.6409090909090909,866,0,33,DL_Guitar,6,10,hanamokatanamo,0.26198187470436096,0
63,100,0.2590909090909091,518,1,34,DL_Guitar,6,4,hanamokatanamo,0.9990094900131226,1
63,100,0.2,619,0,34,DL_Guitar,6,3,hanamokatanamo,0.23323649168014526,0
63,100,0.2,770,0,34,DL_Guitar,6,3,hanamokatanamo,0.27058878540992737,0
61,100,0.4818181818181818,861,0,34,DL_Guitar,6,8,hanamokatanamo,0.35793381929397583,0
61,100,0.1409090909090909,241,1,35,DL_Guitar,6,2,hanamokatanamo,0.9990094900131226,1
63,100,0.1,361,0,35,DL_Guitar,6,2,hanamokatanamo,0.23323704302310944,0
63,100,0.9227272727272727,408,0,35,DL_Guitar,6,15,hanamokatanamo,0.27059322595596313,0
63,100,0.3,738,1,35,DL_Guitar,6,5,hanamokatanamo,0.3579361140727997,0
63,100,0.21818181818181817,8,1,36,DL_Guitar,6,3,hanamokatanamo,0.9990094900131226,1
53,100,0.13636363636363635,678,1,36,DL_Guitar,6,2,hanamokatanamo,0.23323099315166473,0
61,100,0.22272727272727272,751,0,36,DL_Guitar,6,4,hanamokatanamo,0.2705840766429901,0
53,100,0.5590909090909091,801,0,36,DL_Guitar,6,9,hanamokatanamo,0.357927531003952,0
65,100,0.5409090909090909,53,1,37,DL_Guitar,6,9,hanamokatanamo,0.9988439083099365,1
65,100,0.2818181818181818,241,0,37,DL_Guitar,6,5,hanamokatanamo,0.13798178732395172,0
53,100,0.2636363636363636,311,0,37,DL_Guitar,6,4,hanamokatanamo,0.1623626947402954,0
53,100,0.21818181818181817,373,0,37,DL_Guitar,6,3,hanamokatanamo,0.19105497002601624,0
63,100,0.5590909090909091,545,0,37,DL_Guitar,6,9,hanamokatanamo,0.26195505261421204,0
55,100,0.2772727272727273,141,1,38,DL_Guitar,6,4,hanamokatanamo,0.9983232617378235,1
55,100,0.21818181818181817,418,1,38,DL_Guitar,6,3,hanamokatanamo,0.5462161302566528,1
53,100,0.2,163,1,39,DL_Guitar,6,3,hanamokatanamo,0.9986506104469299,1
53,100,0.1590909090909091,211,0,39,DL_Guitar,6,3,hanamokatanamo,0.08797892183065414,0
53,100,0.2818181818181818,276,0,39,DL_Guitar,6,5,hanamokatanamo,0.09298567473888397,0
53,100,0.43636363636363634,348,0,39,DL_Guitar,6,7,hanamokatanamo,0.10995303094387054,0
63,100,0.6227272727272727,474,0,39,DL_Guitar,6,10,hanamokatanamo,0.12867021560668945,0
61,100,0.11818181818181818,765,1,39,DL_Guitar,6,2,hanamokatanamo,0.18222402036190033,0
63,100,0.1409090909090909,361,1,40,DL_Guitar,6,2,hanamokatanamo,0.9990094900131226,1
63,100,0.1409090909090909,405,0,40,DL_Guitar,6,2,hanamokatanamo,0.23323753476142883,0
63,100,0.18181818181818182,664,1,40,DL_Guitar,6,3,hanamokatanamo,0.27059563994407654,0
63,100,0.12272727272727273,861,0,40,DL_Guitar,6,2,hanamokatanamo,0.3579425811767578,0
63,100,0.21818181818181817,75,1,41,DL_Guitar,6,3,hanamokatanamo,0.9983004927635193,1
53,100,0.3409090909090909,246,0,41,DL_Guitar,6,5,hanamokatanamo,0.044662266969680786,0
63,100,0.12272727272727273,334,0,41,DL_Guitar,6,2,hanamokatanamo,0.033371370285749435,0
63,100,0.18181818181818182,399,0,41,DL_Guitar,6,3,hanamokatanamo,0.02694779261946678,0
53,100,0.2,448,0,41,DL_Guitar,6,3,hanamokatanamo,0.024083884432911873,0
56,100,0.2,619,0,41,DL_Guitar,6,3,hanamokatanamo,0.024972163140773773,0
63,100,0.1409090909090909,691,0,41,DL_Guitar,6,2,hanamokatanamo,0.030647965148091316,0
63,100,0.11818181818181818,735,0,41,DL_Guitar,6,2,hanamokatanamo,0.04136926308274269,0
63,100,0.33636363636363636,765,0,41,DL_Guitar,6,5,hanamokatanamo,0.07207144051790237,0
63,100,0.21818181818181817,0,1,42,DL_Guitar,6,3,hanamokatanamo,0.9990280866622925,1
63,100,0.2818181818181818,198,0,42,DL_Guitar,6,5,hanamokatanamo,0.3703479766845703,0
63,100,0.16363636363636364,774,1,42,DL_Guitar,6,3,hanamokatanamo,0.4561835527420044,0
63,100,0.3,295,1,43,DL_Guitar,6,5,hanamokatanamo,0.9990280866622925,1
63,100,0.6,399,0,43,DL_Guitar,6,10,hanamokatanamo,0.37034568190574646,0
53,100,0.18181818181818182,673,1,43,DL_Guitar,6,3,hanamokatanamo,0.4561767578125,0
63,100,0.12272727272727273,136,1,44,DL_Guitar,6,2,hanamokatanamo,0.9990094900131226,1
63,100,0.12272727272727273,268,0,44,DL_Guitar,6,2,hanamokatanamo,0.23323960602283478,0
63,100,0.1409090909090909,550,1,44,DL_Guitar,6,2,hanamokatanamo,0.2705928683280945,0
63,100,0.2409090909090909,616,0,44,DL_Guitar,6,4,hanamokatanamo,0.3579413890838623,0
58,100,0.18181818181818182,21,1,45,DL_Guitar,6,3,hanamokatanamo,0.9986506104469299,1
53,100,0.5409090909090909,321,1,45,DL_Guitar,6,9,hanamokatanamo,0.08797794580459595,0
60,100,0.16363636363636364,444,0,45,DL_Guitar,6,3,hanamokatanamo,0.09298563003540039,0
53,100,0.1590909090909091,506,0,45,DL_Guitar,6,3,hanamokatanamo,0.10994795709848404,0
63,100,0.18181818181818182,729,0,45,DL_Guitar,6,3,hanamokatanamo,0.12867134809494019,0
63,100,0.4,861,0,45,DL_Guitar,6,6,hanamokatanamo,0.18221773207187653,0
63,100,0.6818181818181818,254,1,46,DL_Guitar,6,11,hanamokatanamo,0.9988439083099365,1
61,100,0.13636363636363635,458,0,46,DL_Guitar,6,2,hanamokatanamo,0.13798198103904724,0
61,100,0.5,493,0,46,DL_Guitar,6,8,hanamokatanamo,0.1623644232749939,0
61,100,0.21818181818181817,678,0,46,DL_Guitar,6,3,hanamokatanamo,0.19105693697929382,0
61,100,0.16363636363636364,774,0,46,DL_Guitar,6,3,hanamokatanamo,0.26197317242622375,0
64,100,0.1590909090909091,810,1,47,DL_Guitar,6,3,hanamokatanamo,0.9792243838310242,1
53,100,0.18181818181818182,56,1,48,DL_Guitar,6,3,hanamokatanamo,0.9986506104469299,1
53,100,0.2818181818181818,263,0,48,DL_Guitar,6,5,hanamokatanamo,0.08797911554574966,0
56,100,0.1,421,0,48,DL_Guitar,6,2,hanamokatanamo,0.09298296272754669,0
63,100,0.2,483,0,48,DL_Guitar,6,3,hanamokatanamo,0.10994940251111984,0
53,100,0.16363636363636364,554,0,48,DL_Guitar,6,3,hanamokatanamo,0.1286729872226715,0
61,100,0.2,845,1,48,DL_Guitar,6,3,hanamokatanamo,0.18221715092658997,0
56,100,0.5590909090909091,251,1,49,DL_Guitar,6,9,hanamokatanamo,0.9990280866622925,1
63,100,0.9181818181818182,396,0,49,DL_Guitar,6,15,hanamokatanamo,0.37033796310424805,0
63,100,0.11818181818181818,770,1,49,DL_Guitar,6,2,hanamokatanamo,0.45616796612739563,0
63,100,0.41818181818181815,118,1,50,DL_Guitar,6,7,hanamokatanamo,0.9988439083099365,1
63,100,0.6590909090909091,263,0,50,DL_Guitar,6,11,hanamokatanamo,0.13798514008522034,0
53,100,0.18181818181818182,606,1,50,DL_Guitar,6,3,hanamokatanamo,0.16237205266952515,0
63,100,0.35909090909090907,655,0,50,DL_Guitar,6,6,hanamokatanamo,0.19106215238571167,0
63,100,0.1,765,0,50,DL_Guitar,6,2,hanamokatanamo,0.26197752356529236,0
56,100,0.5590909090909091,31,1,51,DL_Guitar,6,9,hanamokatanamo,0.9990094900131226,1
63,100,0.7227272727272728,254,0,51,DL_Guitar,6,12,hanamokatanamo,0.23323816061019897,0
63,100,0.6,531,1,51,DL_Guitar,6,10,hanamokatanamo,0.2705928087234497,0
63,100,0.2409090909090909,668,0,51,DL_Guitar,6,4,hanamokatanamo,0.35793671011924744,0
63,100,0.5818181818181818,110,1,52,DL_Guitar,6,9,hanamokatanamo,0.9990094900131226,1
63,100,0.5181818181818182,435,1,52,DL_Guitar,6,8,hanamokatanamo,0.23323623836040497,0
63,100,0.37727272727272726,721,1,52,DL_Guitar,6,6,hanamokatanamo,0.27058935165405273,0
63,100,0.1409090909090909,861,0,52,DL_Guitar,6,2,hanamokatanamo,0.3579377830028534,0
63,100,0.9181818181818182,18,1,53,DL_Guitar,6,15,hanamokatanamo,0.9988439083099365,1
56,100,0.1590909090909091,254,1,53,DL_Guitar,6,3,hanamokatanamo,0.13798566162586212,0
63,100,0.18181818181818182,289,0,53,DL_Guitar,6,3,hanamokatanamo,0.16236889362335205,0
63,100,0.3409090909090909,378,0,53,DL_Guitar,6,5,hanamokatanamo,0.19105951488018036,0
63,100,0.5590909090909091,480,0,53,DL_Guitar,6,9,hanamokatanamo,0.2619744837284088,0
53,100,0.3,26,1,54,DL_Guitar,6,5,hanamokatanamo,0.9990094900131226,1
61,100,0.8363636363636363,150,0,54,DL_Guitar,6,13,hanamokatanamo,0.23322944343090057,0
61,100,0.21818181818181817,370,0,54,DL_Guitar,6,3,hanamokatanamo,0.27058708667755127,0
63,100,0.42272727272727273,848,1,54,DL_Guitar,6,7,hanamokatanamo,0.3579218089580536,0
63,100,1.559090909090909,166,1,55,DL_Guitar,6,15,hanamokatanamo,0.9990094900131226,1
60,100,0.21818181818181817,523,1,55,DL_Guitar,6,3,hanamokatanamo,0.23323354125022888,0
53,100,0.1409090909090909,694,0,55,DL_Guitar,6,2,hanamokatanamo,0.2705844044685364,0
53,100,0.21818181818181817,735,0,55,DL_Guitar,6,3,hanamokatanamo,0.35792675614356995,0
56,100,0.1590909090909091,273,1,56,DL_Guitar,6,3,hanamokatanamo,0.9983231425285339,1
61,100,0.9227272727272727,421,0,56,DL_Guitar,6,15,hanamokatanamo,0.5462126135826111,1
63,100,0.11818181818181818,593,1,57,DL_Guitar,6,2,hanamokatanamo,0.9983231425285339,1
63,100,0.759090909090909,625,0,57,DL_Guitar,6,12,hanamokatanamo,0.5462250709533691,1
63,100,0.13636363636363635,370,1,58,DL_Guitar,6,2,hanamokatanamo,0.9990094900131226,1
63,100,0.11818181818181818,528,0,58,DL_Guitar,6,2,hanamokatanamo,0.23323415219783783,0
53,100,0.4,655,0,58,DL_Guitar,6,6,hanamokatanamo,0.2705916166305542,0
61,100,0.42272727272727273,774,0,58,DL_Guitar,6,7,hanamokatanamo,0.3579435646533966,0
61,100,0.3,34,1,59,DL_Guitar,6,5,hanamokatanamo,0.979223370552063,1
63,100,1.040909090909091,553,1,64,DL_Guitar,6,15,hanamokatanamo,0.9983231425285339,1
63,100,0.7181818181818181,853,1,64,DL_Guitar,6,11,hanamokatanamo,0.5462247133255005,1
63,100,0.1409090909090909,176,1,65,DL_Guitar,6,2,hanamokatanamo,0.9983231425285339,1
63,100,0.38181818181818183,220,0,65,DL_Guitar,6,6,hanamokatanamo,0.5462262034416199,1
53,100,0.6,113,1,68,DL_Guitar,6,10,hanamokatanamo,0.9990280866622925,1
53,100,0.6409090909090909,307,0,68,DL_Guitar,6,10,hanamokatanamo,0.37033265829086304,0
77,100,0.1590909090909091,593,1,68,DL_Guitar,6,3,hanamokatanamo,0.45616650581359863,0
63,100,0.35909090909090907,193,1,69,DL_Guitar,6,6,hanamokatanamo,0.9986506104469299,1
63,100,0.5590909090909091,276,0,69,DL_Guitar,6,9,hanamokatanamo,0.08798111975193024,0
63,100,0.2,443,0,69,DL_Guitar,6,3,hanamokatanamo,0.09299106895923615,0
63,100,0.1,612,0,69,DL_Guitar,6,2,hanamokatanamo,0.10995607823133469,0
63,100,0.1,650,0,69,DL_Guitar,6,2,hanamokatanamo,0.12868475914001465,0
63,100,1.6181818181818182,700,0,69,DL_Guitar,6,15,hanamokatanamo,0.18223051726818085,0
53,100,0.2590909090909091,343,1,70,DL_Guitar,6,4,hanamokatanamo,0.9990094900131226,1
53,100,0.9,462,0,70,DL_Guitar,6,14,hanamokatanamo,0.23322606086730957,0
65,100,0.35909090909090907,682,0,70,DL_Guitar,6,6,hanamokatanamo,0.27057668566703796,0
53,100,0.11818181818181818,766,0,70,DL_Guitar,6,2,hanamokatanamo,0.35792338848114014,0
65,100,0.16363636363636364,3,1,71,DL_Guitar,6,3,hanamokatanamo,0.9988439083099365,1
77,100,0.23636363636363636,260,1,71,DL_Guitar,6,4,hanamokatanamo,0.137978658080101,0
77,100,0.4,320,0,71,DL_Guitar,6,6,hanamokatanamo,0.16236408054828644,0
77,100,0.3,413,0,71,DL_Guitar,6,5,hanamokatanamo,0.19105368852615356,0
63,100,0.2636363636363636,509,0,71,DL_Guitar,6,4,hanamokatanamo,0.26196181774139404,0
63,100,0.11818181818181818,96,1,72,DL_Guitar,6,2,hanamokatanamo,0.9986506104469299,1
63,100,0.21818181818181817,700,1,72,DL_Guitar,6,3,hanamokatanamo,0.08798347413539886,0
63,100,0.1,756,0,72,DL_Guitar,6,2,hanamokatanamo,0.0929907038807869,0
75,100,0.1,783,0,72,DL_Guitar,6,2,hanamokatanamo,0.10995487868785858,0
63,100,0.3,805,0,72,DL_Guitar,6,5,hanamokatanamo,0.1286846399307251,0
75,100,0.1,870,0,72,DL_Guitar,6,2,hanamokatanamo,0.18223613500595093,0
75,100,0.2,30,1,73,DL_Guitar,6,3,hanamokatanamo,0.9990280866622925,1
63,100,0.35909090909090907,74,0,73,DL_Guitar,6,6,hanamokatanamo,0.3703528642654419,0
63,100,0.8636363636363636,157,0,73,DL_Guitar,6,14,hanamokatanamo,0.4561811685562134,0
62,100,0.8409090909090909,466,1,74,DL_Guitar,6,13,hanamokatanamo,0.9983231425285339,1
62,100,0.22272727272727272,663,0,74,DL_Guitar,6,4,hanamokatanamo,0.5462208390235901,1
62,100,0.1590909090909091,9,1,75,DL_Guitar,6,3,hanamokatanamo,0.9990094900131226,1
59,100,1.0818181818181818,92,0,75,DL_Guitar,6,15,hanamokatanamo,0.23323816061019897,0
61,100,1.0363636363636364,567,1,75,DL_Guitar,6,15,hanamokatanamo,0.2705844044685364,0
59,100,1.1590909090909092,823,1,75,DL_Guitar,6,15,hanamokatanamo,0.3579349219799042,0
61,100,1.2,202,1,76,DL_Guitar,6,15,hanamokatanamo,0.9983230233192444,1
61,100,3.2,509,1,76,DL_Guitar,6,15,hanamokatanamo,0.54619300365448,1
62,100,1.2227272727272727,343,1,77,DL_Guitar,6,15,hanamokatanamo,0.9983231425285339,1
62,100,0.5,853,1,77,DL_Guitar,6,8,hanamokatanamo,0.5462254285812378,1
57,100,0.4590909090909091,132,1,78,DL_Guitar,6,7,hanamokatanamo,0.9990280866622925,1
62,100,0.8181818181818182,502,1,78,DL_Guitar,6,13,hanamokatanamo,0.3703458607196808,0
62,100,0.3,826,1,78,DL_Guitar,6,5,hanamokatanamo,0.45617929100990295,0
54,100,0.12272727272727273,26,1,79,DL_Guitar,6,2,hanamokatanamo,0.9986506104469299,1
62,100,0.13636363636363635,83,0,79,DL_Guitar,6,2,hanamokatanamo,0.08798142522573471,0
68,100,0.2,123,0,79,DL_Guitar,6,3,hanamokatanamo,0.0929836630821228,0
68,100,0.12272727272727273,377,1,79,DL_Guitar,6,2,hanamokatanamo,0.10995378345251083,0
68,100,0.5227272727272727,509,0,79,DL_Guitar,6,8,hanamokatanamo,0.12866917252540588,0
61,100,0.8363636363636363,633,0,79,DL_Guitar,6,13,hanamokatanamo,0.18221747875213623,0
59,100,0.41818181818181815,9,1,80,DL_Guitar,6,7,hanamokatanamo,0.9986506104469299,1
59,100,0.11818181818181818,132,0,80,DL_Guitar,6,2,hanamokatanamo,0.08798021078109741,0
64,100,0.7363636363636363,303,0,80,DL_Guitar,6,12,hanamokatanamo,0.09298334270715714,0
61,100,0.17727272727272728,646,1,80,DL_Guitar,6,3,hanamokatanamo,0.10994851589202881,0
69,100,0.2590909090909091,713,0,80,DL_Guitar,6,4,hanamokatanamo,0.12867678701877594,0
62,100,0.4409090909090909,779,0,80,DL_Guitar,6,7,hanamokatanamo,0.18222276866436005,0
62,100,0.13636363636363635,17,1,81,DL_Guitar,6,2,hanamokatanamo,0.9988439083099365,1
62,100,0.5772727272727273,53,0,81,DL_Guitar,6,9,hanamokatanamo,0.13798390328884125,0
59,100,0.3,597,1,81,DL_Guitar,6,5,hanamokatanamo,0.16237227618694305,0
68,100,0.6181818181818182,677,0,81,DL_Guitar,6,10,hanamokatanamo,0.19105783104896545,0
52,100,0.12272727272727273,817,0,81,DL_Guitar,6,2,hanamokatanamo,0.2619788646697998,0
68,100,0.18181818181818182,3,1,82,DL_Guitar,6,3,hanamokatanamo,0.9982556700706482,1
57,100,0.3181818181818182,66,0,82,DL_Guitar,6,5,hanamokatanamo,0.041292522102594376,0
61,100,0.2,166,0,82,DL_Guitar,6,3,hanamokatanamo,0.029124541208148003,0
61,100,0.2590909090909091,273,0,82,DL_Guitar,6,4,hanamokatanamo,0.021568743512034416,0
64,100,0.2818181818181818,330,0,82,DL_Guitar,6,5,hanamokatanamo,0.017059002071619034,0
57,100,0.37727272727272726,436,0,82,DL_Guitar,6,6,hanamokatanamo,0.015267865732312202,0
61,100,0.2772727272727273,567,0,82,DL_Guitar,6,4,hanamokatanamo,0.016456054523587227,0
57,100,0.2590909090909091,633,0,82,DL_Guitar,6,4,hanamokatanamo,0.02183752879500389,0
61,100,0.2590909090909091,700,0,82,DL_Guitar,6,4,hanamokatanamo,0.03251823037862778,0
61,100,0.4409090909090909,826,0,82,DL_Guitar,6,7,hanamokatanamo,0.06091140955686569,0
59,100,0.12272727272727273,92,1,83,DL_Guitar,6,2,hanamokatanamo,0.9986506104469299,1
64,100,0.17727272727272728,127,0,83,DL_Guitar,6,3,hanamokatanamo,0.08798041194677353,0
57,100,0.33636363636363636,193,0,83,DL_Guitar,6,5,hanamokatanamo,0.09298668056726456,0
61,100,0.5227272727272727,320,0,83,DL_Guitar,6,8,hanamokatanamo,0.1099555566906929,0
57,100,0.9590909090909091,483,0,83,DL_Guitar,6,15,hanamokatanamo,0.1286749392747879,0
62,100,1.2,703,0,83,DL_Guitar,6,15,hanamokatanamo,0.1822236329317093,0
62,100,0.1409090909090909,263,1,84,DL_Guitar,6,2,hanamokatanamo,0.9990094900131226,1
52,100,0.1,663,1,84,DL_Guitar,6,2,hanamokatanamo,0.2332347333431244,0
64,100,0.16363636363636364,752,0,84,DL_Guitar,6,3,hanamokatanamo,0.270586758852005,0
68,100,0.1590909090909091,810,0,84,DL_Guitar,6,3,hanamokatanamo,0.3579270541667938,0
64,100,0.18181818181818182,66,1,85,DL_Guitar,6,3,hanamokatanamo,0.9984879493713379,1
64,100,0.11818181818181818,197,0,85,DL_Guitar,6,2,hanamokatanamo,0.06335432082414627,0
59,100,0.23636363636363636,237,0,85,DL_Guitar,6,4,hanamokatanamo,0.05829142406582832,0
64,100,0.16363636363636364,289,0,85,DL_Guitar,6,3,hanamokatanamo,0.061366282403469086,0
57,100,0.3181818181818182,493,0,85,DL_Guitar,6,5,hanamokatanamo,0.0716896578669548,0
57,100,0.759090909090909,567,0,85,DL_Guitar,6,12,hanamokatanamo,0.08474528044462204,0
57,100,0.8409090909090909,752,0,85,DL_Guitar,6,13,hanamokatanamo,0.12635616958141327,0
61,100,0.32272727272727275,56,1,86,DL_Guitar,6,5,hanamokatanamo,0.9988439083099365,1
61,100,1.0,140,0,86,DL_Guitar,6,15,hanamokatanamo,0.13798333704471588,0
64,100,0.2772727272727273,559,1,86,DL_Guitar,6,4,hanamokatanamo,0.16236983239650726,0
62,100,1.0,624,0,86,DL_Guitar,6,15,hanamokatanamo,0.19106365740299225,0
62,100,0.1409090909090909,849,0,86,DL_Guitar,6,2,hanamokatanamo,0.2619803845882416,0
57,100,0.21818181818181817,17,1,87,DL_Guitar,6,3,hanamokatanamo,0.9990094900131226,1
62,100,0.6590909090909091,210,0,87,DL_Guitar,6,11,hanamokatanamo,0.23323966562747955,0
68,100,0.32272727272727275,773,1,87,DL_Guitar,6,5,hanamokatanamo,0.27058646082878113,0
68,100,0.1409090909090909,862,0,87,DL_Guitar,6,2,hanamokatanamo,0.35793691873550415,0
68,100,1.459090909090909,87,1,88,DL_Guitar,6,15,hanamokatanamo,0.9983231425285339,1
68,100,0.18181818181818182,417,1,88,DL_Guitar,6,3,hanamokatanamo,0.5462180972099304,1
62,100,0.12272727272727273,509,1,89,DL_Guitar,6,2,hanamokatanamo,0.979223906993866,1
61,100,0.3,480,1,90,DL_Guitar,6,5,hanamokatanamo,0.9988439083099365,1
64,100,0.2818181818181818,553,0,90,DL_Guitar,6,5,hanamokatanamo,0.1379857361316681,0
64,100,0.3,619,0,90,DL_Guitar,6,5,hanamokatanamo,0.16237322986125946,0
61,100,0.5,690,0,90,DL_Guitar,6,8,hanamokatanamo,0.1910611242055893,0
57,100,1.7363636363636363,810,0,90,DL_Guitar,6,15,hanamokatanamo,0.2619689702987671,0
62,100,0.3181818181818182,316,1,91,DL_Guitar,6,5,hanamokatanamo,0.979223370552063,1
68,100,0.17727272727272728,546,1,92,DL_Guitar,6,3,hanamokatanamo,0.9988439083099365,1
69,100,0.4590909090909091,646,0,92,DL_Guitar,6,7,hanamokatanamo,0.13798262178897858,0
57,100,0.2,747,0,92,DL_Guitar,6,3,hanamokatanamo,0.16236938536167145,0
64,100,0.2,805,0,92,DL_Guitar,6,3,hanamokatanamo,0.19106532633304596,0
57,100,0.5590909090909091,853,0,92,DL_Guitar,6,9,hanamokatanamo,0.26196789741516113,0
61,100,0.3181818181818182,110,1,93,DL_Guitar,6,5,hanamokatanamo,0.9990280866622925,1
57,100,0.4,229,0,93,DL_Guitar,6,6,hanamokatanamo,0.3703380823135376,0
61,100,0.17727272727272728,383,0,93,DL_Guitar,6,3,hanamokatanamo,0.456171452999115,0
68,100,0.12272727272727273,255,1,94,DL_Guitar,6,2,hanamokatanamo,0.9990094900131226,1
68,100,0.1,509,1,94,DL_Guitar,6,2,hanamokatanamo,0.23322826623916626,0
59,100,0.36363636363636365,663,0,94,DL_Guitar,6,6,hanamokatanamo,0.27058205008506775,0
61,100,0.2409090909090909,773,0,94,DL_Guitar,6,4,hanamokatanamo,0.3579242527484894,0
64,100,0.3181818181818182,140,1,95,DL_Guitar,6,5,hanamokatanamo,0.9988439083099365,1
57,100,0.5409090909090909,210,0,95,DL_Guitar,6,9,hanamokatanamo,0.13798628747463226,0
64,100,0.2,347,0,95,DL_Guitar,6,3,hanamokatanamo,0.16237282752990723,0
57,100,1.0772727272727274,413,0,95,DL_Guitar,6,15,hanamokatanamo,0.19106361269950867,0
56,100,0.9181818181818182,656,1,95,DL_Guitar,6,15,hanamokatanamo,0.26197195053100586,0
62,100,0.12272727272727273,26,1,96,DL_Guitar,6,2,hanamokatanamo,0.9983232617378235,1
52,100,0.1590909090909091,550,1,96,DL_Guitar,6,3,hanamokatanamo,0.5462203621864319,1
57,100,1.8,233,1,97,DL_Guitar,6,15,hanamokatanamo,0.9983231425285339,1
57,100,0.2590909090909091,823,1,97,DL_Guitar,6,4,hanamokatanamo,0.5462262630462646,1
57,100,0.6590909090909091,166,1,98,DL_Guitar,6,11,hanamokatanamo,0.9983735084533691,1
62,100,0.3,320,0,98,DL_Guitar,6,5,hanamokatanamo,0.051050931215286255,0
62,100,0.2590909090909091,430,0,98,DL_Guitar,6,4,hanamokatanamo,0.0416126623749733,0
57,100,0.2409090909090909,527,0,98,DL_Guitar,6,4,hanamokatanamo,0.03798031434416771,0
62,100,0.11818181818181818,580,0,98,DL_Guitar,6,2,hanamokatanamo,0.03926180675625801,0
62,100,0.1,633,0,98,DL_Guitar,6,2,hanamokatanamo,0.04616817086935043,0
57,100,0.12272727272727273,695,0,98,DL_Guitar,6,2,hanamokatanamo,0.05713491141796112,0
68,100,0.11818181818181818,876,0,98,DL_Guitar,6,2,hanamokatanamo,0.09188278764486313,0
68,100,0.2,53,1,99,DL_Guitar,6,3,hanamokatanamo,0.9983735084533691,1
68,100,0.2,110,0,99,DL_Guitar,6,3,hanamokatanamo,0.05104853957891464,0
68,100,0.1409090909090909,197,0,99,DL_Guitar,6,2,hanamokatanamo,0.041610345244407654,0
59,100,0.35909090909090907,316,0,99,DL_Guitar,6,6,hanamokatanamo,0.03797834366559982,0
68,100,0.11818181818181818,726,1,99,DL_Guitar,6,2,hanamokatanamo,0.03925805911421776,0
61,100,0.3181818181818182,770,0,99,DL_Guitar,6,5,hanamokatanamo,0.046164222061634064,0
68,100,0.1409090909090909,844,0,99,DL_Guitar,6,2,hanamokatanamo,0.057127952575683594,0
61,100,0.2,876,0,99,DL_Guitar,6,3,hanamokatanamo,0.09187967330217361,0
64,100,0.23636363636363636,40,1,100,DL_Guitar,6,4,hanamokatanamo,0.9990094900131226,1
61,100,0.5,96,0,100,DL_Guitar,6,8,hanamokatanamo,0.23322394490242004,0
61,100,0.6181818181818182,237,0,100,DL_Guitar,6,10,hanamokatanamo,0.2705804705619812,0
64,100,0.5181818181818182,483,1,100,DL_Guitar,6,8,hanamokatanamo,0.3579363524913788,0
57,100,0.18181818181818182,189,1,101,DL_Guitar,6,3,hanamokatanamo,0.9990094900131226,1
52,100,0.1,282,0,101,DL_Guitar,6,2,hanamokatanamo,0.23322847485542297,0
52,100,0.1,330,0,101,DL_Guitar,6,2,hanamokatanamo,0.27058476209640503,0
52,100,0.38181818181818183,813,1,101,DL_Guitar,6,6,hanamokatanamo,0.3579353094100952,0
64,100,0.11818181818181818,87,1,104,DL_Guitar,6,2,hanamokatanamo,0.9983736276626587,1
57,100,0.2,255,0,104,DL_Guitar,6,3,hanamokatanamo,0.0510505773127079,0
57,100,0.13636363636363635,370,0,104,DL_Guitar,6,2,hanamokatanamo,0.041613709181547165,0
57,100,0.2590909090909091,413,0,104,DL_Guitar,6,4,hanamokatanamo,0.03798071667551994,0
52,100,0.2590909090909091,480,0,104,DL_Guitar,6,4,hanamokatanamo,0.039262980222702026,0
57,100,0.21818181818181817,536,0,104,DL_Guitar,6,3,hanamokatanamo,0.046167951077222824,0
57,100,0.3,597,0,104,DL_Guitar,6,5,hanamokatanamo,0.057134635746479034,0
57,100,0.8409090909090909,695,0,104,DL_Guitar,6,13,hanamokatanamo,0.09188350290060043,0
64,100,0.18181818181818182,202,1,105,DL_Guitar,6,3,hanamokatanamo,0.9792245030403137,1
57,100,0.17727272727272728,492,1,0,DL_Guitar,6,3,umontaturo_upbeat,0.9792236089706421,1
69,100,0.33636363636363636,39,1,1,DL_Guitar,6,5,umontaturo_upbeat,0.9986506104469299,1
52,100,0.7,166,0,1,DL_Guitar,6,11,umontaturo_upbeat,0.08798006922006607,0
52,100,0.1,351,0,1,DL_Guitar,6,2,umontaturo_upbeat,0.09298551827669144,0
59,100,0.1409090909090909,449,0,1,DL_Guitar,6,2,umontaturo_upbeat,0.10995161533355713,0
52,100,0.11818181818181818,638,0,1,DL_Guitar,6,2,umontaturo_upbeat,0.12867552042007446,0
54,100,0.4409090909090909,796,0,1,DL_Guitar,6,7,umontaturo_upbeat,0.1822231411933899,0
59,100,0.2,12,1,2,DL_Guitar,6,3,umontaturo_upbeat,0.9990280866622925,1
54,100,0.3409090909090909,421,1,2,DL_Guitar,6,5,umontaturo_upbeat,0.3703438341617584,0
57,100,0.33636363636363636,501,0,2,DL_Guitar,6,5,umontaturo_upbeat,0.4561663568019867,0
57,100,0.1409090909090909,70,1,3,DL_Guitar,6,2,umontaturo_upbeat,0.9990094900131226,1
69,100,0.2772727272727273,295,0,3,DL_Guitar,6,4,umontaturo_upbeat,0.23322515189647675,0
59,100,0.3,550,1,3,DL_Guitar,6,5,umontaturo_upbeat,0.27057933807373047,0
64,100,0.2818181818181818,629,0,3,DL_Guitar,6,5,umontaturo_upbeat,0.35793161392211914,0
61,100,0.2590909090909091,255,1,4,DL_Guitar,6,4,umontaturo_upbeat,0.9983231425285339,1
64,100,0.3,871,1,4,DL_Guitar,6,5,umontaturo_upbeat,0.5462226867675781,1
52,100,0.3,56,1,5,DL_Guitar,6,5,umontaturo_upbeat,0.9990094900131226,1
69,100,0.11818181818181818,514,1,5,DL_Guitar,6,2,umontaturo_upbeat,0.23322626948356628,0
52,100,0.5772727272727273,678,0,5,DL_Guitar,6,9,umontaturo_upbeat,0.270577073097229,0
52,100,0.2636363636363636,862,0,5,DL_Guitar,6,4,umontaturo_upbeat,0.3579307198524475,0
64,100,0.1,79,1,6,DL_Guitar,6,2,umontaturo_upbeat,0.9990094900131226,1
52,100,0.8,105,0,6,DL_Guitar,6,13,umontaturo_upbeat,0.23322804272174835,0
54,100,0.43636363636363634,414,1,6,DL_Guitar,6,7,umontaturo_upbeat,0.27058663964271545,0
59,100,0.2409090909090909,514,0,6,DL_Guitar,6,4,umontaturo_upbeat,0.3579294681549072,0
54,100,0.1409090909090909,87,1,7,DL_Guitar,6,2,umontaturo_upbeat,0.9990280866622925,1
57,100,0.32272727272727275,122,0,7,DL_Guitar,6,5,umontaturo_upbeat,0.37032896280288696,0
54,100,0.1409090909090909,317,0,7,DL_Guitar,6,2,umontaturo_upbeat,0.4561678171157837,0
59,100,0.1,34,1,8,DL_Guitar,6,2,umontaturo_upbeat,0.9984880685806274,1
52,100,0.1,127,0,8,DL_Guitar,6,2,umontaturo_upbeat,0.06335325539112091,0
59,100,0.37727272727272726,347,0,8,DL_Guitar,6,6,umontaturo_upbeat,0.058289676904678345,0
54,100,0.3409090909090909,448,0,8,DL_Guitar,6,5,umontaturo_upbeat,0.061362866312265396,0
52,100,0.38181818181818183,673,0,8,DL_Guitar,6,6,umontaturo_upbeat,0.0716826543211937,0
57,100,0.3,766,0,8,DL_Guitar,6,5,umontaturo_upbeat,0.08473529666662216,0
52,100,0.1,840,0,8,DL_Guitar,6,2,umontaturo_upbeat,0.12635594606399536,0
57,100,0.21818181818181817,0,1,9,DL_Guitar,6,3,umontaturo_upbeat,0.9984879493713379,1
61,100,0.23636363636363636,106,0,9,DL_Guitar,6,4,umontaturo_upbeat,0.06335334479808807,0
57,100,0.2590909090909091,163,0,9,DL_Guitar,6,4,umontaturo_upbeat,0.058288805186748505,0
61,100,0.2772727272727273,405,1,9,DL_Guitar,6,4,umontaturo_upbeat,0.0613635890185833,0
57,100,0.11818181818181818,484,0,9,DL_Guitar,6,2,umontaturo_upbeat,0.07168456166982651,0
57,100,0.1409090909090909,515,0,9,DL_Guitar,6,2,umontaturo_upbeat,0.0847398117184639,0
52,100,0.23636363636363636,809,1,9,DL_Guitar,6,4,umontaturo_upbeat,0.12635882198810577,0
52,100,0.2409090909090909,113,1,10,DL_Guitar,6,4,umontaturo_upbeat,0.9984880685806274,1
52,100,0.2409090909090909,299,0,10,DL_Guitar,6,4,umontaturo_upbeat,0.06335360556840897,0
64,100,0.1,400,0,10,DL_Guitar,6,2,umontaturo_upbeat,0.05829080939292908,0
59,100,0.32272727272727275,431,0,10,DL_Guitar,6,5,umontaturo_upbeat,0.06136263534426689,0
52,100,0.1590909090909091,611,0,10,DL_Guitar,6,3,umontaturo_upbeat,0.07168290764093399,0
52,100,0.43636363636363634,656,0,10,DL_Guitar,6,7,umontaturo_upbeat,0.08473759144544601,0
52,100,0.4409090909090909,795,0,10,DL_Guitar,6,7,umontaturo_upbeat,0.12635287642478943,0
52,100,0.11818181818181818,264,1,11,DL_Guitar,6,2,umontaturo_upbeat,0.9792242646217346,1
66,100,0.17727272727272728,185,1,12,DL_Guitar,6,3,umontaturo_upbeat,0.9990280866622925,1
52,100,0.1,572,1,12,DL_Guitar,6,2,umontaturo_upbeat,0.3703474998474121,0
68,100,0.2590909090909091,756,0,12,DL_Guitar,6,4,umontaturo_upbeat,0.4561701714992523,0
54,100,0.2590909090909091,189,1,13,DL_Guitar,6,4,umontaturo_upbeat,0.9983232617378235,1
54,100,0.1,691,1,13,DL_Guitar,6,2,umontaturo_upbeat,0.5462161302566528,1
64,100,0.11818181818181818,457,1,14,DL_Guitar,6,2,umontaturo_upbeat,0.9988439083099365,1
71,100,0.18181818181818182,496,0,14,DL_Guitar,6,3,umontaturo_upbeat,0.13798001408576965,0
72,100,0.16363636363636364,553,0,14,DL_Guitar,6,3,umontaturo_upbeat,0.16236592829227448,0
68,100,0.11818181818181818,625,0,14,DL_Guitar,6,2,umontaturo_upbeat,0.19105300307273865,0
64,100,0.2590909090909091,871,1,14,DL_Guitar,6,4,umontaturo_upbeat,0.26196780800819397,0
54,100,0.1,694,1,15,DL_Guitar,6,2,umontaturo_upbeat,0.9983232617378235,1
55,100,0.1,747,0,15,DL_Guitar,6,2,umontaturo_upbeat,0.5462098121643066,1
52,100,0.2,52,1,16,DL_Guitar,6,3,umontaturo_upbeat,0.9990280866622925,1
52,100,0.35909090909090907,100,0,16,DL_Guitar,6,6,umontaturo_upbeat,0.3703403174877167,0
52,100,0.1409090909090909,638,1,16,DL_Guitar,6,2,umontaturo_upbeat,0.45617473125457764,0
52,100,0.2,193,1,17,DL_Guitar,6,3,umontaturo_upbeat,0.9990280866622925,1
52,100,0.2409090909090909,250,0,17,DL_Guitar,6,4,umontaturo_upbeat,0.3703380525112152,0
55,100,0.16363636363636364,443,0,17,DL_Guitar,6,3,umontaturo_upbeat,0.45617204904556274,0
55,100,0.1,492,1,18,DL_Guitar,6,2,umontaturo_upbeat,0.9792240262031555,1
57,100,0.2590909090909091,430,1,19,DL_Guitar,6,4,umontaturo_upbeat,0.9990094900131226,1
52,100,0.2636363636363636,488,0,19,DL_Guitar,6,4,umontaturo_upbeat,0.2332324981689453,0
64,100,0.1,677,0,19,DL_Guitar,6,2,umontaturo_upbeat,0.2705819606781006,0
64,100,0.2,704,0,19,DL_Guitar,6,3,umontaturo_upbeat,0.3579370975494385,0
54,100,1.0818181818181818,57,1,20,DL_Guitar,6,15,umontaturo_upbeat,0.9988439083099365,1
54,100,0.17727272727272728,382,1,20,DL_Guitar,6,3,umontaturo_upbeat,0.1379866600036621,0
54,100,0.1409090909090909,426,0,20,DL_Guitar,6,2,umontaturo_upbeat,0.16236945986747742,0
57,100,0.2636363636363636,686,1,20,DL_Guitar,6,4,umontaturo_upbeat,0.19105727970600128,0
57,100,0.18181818181818182,760,0,20,DL_Guitar,6,3,umontaturo_upbeat,0.2619694173336029,0
57,100,0.23636363636363636,106,1,21,DL_Guitar,6,4,umontaturo_upbeat,0.9988439083099365,1
57,100,0.1,179,0,21,DL_Guitar,6,2,umontaturo_upbeat,0.13798324763774872,0
57,100,0.38181818181818183,285,0,21,DL_Guitar,6,6,umontaturo_upbeat,0.16236655414104462,0
61,100,0.21818181818181817,505,0,21,DL_Guitar,6,3,umontaturo_upbeat,0.19106005132198334,0
57,100,0.11818181818181818,590,0,21,DL_Guitar,6,2,umontaturo_upbeat,0.26196882128715515,0
54,100,1.0772727272727274,326,1,22,DL_Guitar,6,15,umontaturo_upbeat,0.9990280866622925,1
54,100,0.2818181818181818,694,1,22,DL_Guitar,6,5,umontaturo_upbeat,0.37034568190574646,0
62,100,0.1409090909090909,791,0,22,DL_Guitar,6,2,umontaturo_upbeat,0.4561641216278076,0
57,100,0.1,206,1,23,DL_Guitar,6,2,umontaturo_upbeat,0.9988439083099365,1
57,100,0.35909090909090907,299,0,23,DL_Guitar,6,6,umontaturo_upbeat,0.13798418641090393,0
57,100,0.1590909090909091,382,0,23,DL_Guitar,6,3,umontaturo_upbeat,0.16236688196659088,0
52,100,0.6,546,0,23,DL_Guitar,6,10,umontaturo_upbeat,0.19105859100818634,0
52,100,0.12272727272727273,717,0,23,DL_Guitar,6,2,umontaturo_upbeat,0.26196789741516113,0
64,100,0.1409090909090909,9,1,24,DL_Guitar,6,2,umontaturo_upbeat,0.9983735084533691,1
54,100,0.4,48,0,24,DL_Guitar,6,6,umontaturo_upbeat,0.051050201058387756,0
54,100,0.2409090909090909,189,0,24,DL_Guitar,6,4,umontaturo_upbeat,0.04161294922232628,0
52,100,0.2590909090909091,308,0,24,DL_Guitar,6,4,umontaturo_upbeat,0.037980906665325165,0
68,100,0.1590909090909091,461,0,24,DL_Guitar,6,3,umontaturo_upbeat,0.039261072874069214,0
54,100,0.1409090909090909,515,0,24,DL_Guitar,6,2,umontaturo_upbeat,0.04616834968328476,0
54,100,0.7772727272727272,567,0,24,DL_Guitar,6,12,umontaturo_upbeat,0.05713306739926338,0
54,100,0.21818181818181817,748,0,24,DL_Guitar,6,3,umontaturo_upbeat,0.09188191592693329,0
54,100,0.11818181818181818,52,1,25,DL_Guitar,6,2,umontaturo_upbeat,0.9986506104469299,1
54,100,0.11818181818181818,131,0,25,DL_Guitar,6,2,umontaturo_upbeat,0.08797995746135712,0
62,100,0.2409090909090909,316,0,25,DL_Guitar,6,4,umontaturo_upbeat,0.0929831862449646,0
62,100,0.2818181818181818,374,0,25,DL_Guitar,6,5,umontaturo_upbeat,0.10995110869407654,0
57,100,0.11818181818181818,677,1,25,DL_Guitar,6,2,umontaturo_upbeat,0.12867790460586548,0
61,100,0.1409090909090909,818,0,25,DL_Guitar,6,2,umontaturo_upbeat,0.18222860991954803,0
57,100,0.5363636363636364,61,1,26,DL_Guitar,6,9,umontaturo_upbeat,0.9990094900131226,1
52,100,0.35909090909090907,409,1,26,DL_Guitar,6,6,umontaturo_upbeat,0.23322954773902893,0
52,100,0.1590909090909091,515,0,26,DL_Guitar,6,3,umontaturo_upbeat,0.2705829441547394,0
52,100,0.5227272727272727,686,0,26,DL_Guitar,6,8,umontaturo_upbeat,0.35793009400367737,0
54,100,0.1409090909090909,57,1,27,DL_Guitar,6,2,umontaturo_upbeat,0.9990094900131226,1
62,100,0.1409090909090909,625,1,27,DL_Guitar,6,2,umontaturo_upbeat,0.23323369026184082,0
62,100,0.12272727272727273,739,0,27,DL_Guitar,6,2,umontaturo_upbeat,0.2705915868282318,0
57,100,0.2590909090909091,814,0,27,DL_Guitar,6,4,umontaturo_upbeat,0.35793471336364746,0
52,100,0.8,52,1,28,DL_Guitar,6,13,umontaturo_upbeat,0.9990280866622925,1
52,100,0.42272727272727273,443,1,28,DL_Guitar,6,7,umontaturo_upbeat,0.37034860253334045,0
52,100,0.5409090909090909,686,1,28,DL_Guitar,6,9,umontaturo_upbeat,0.4561733305454254,0
52,100,0.3,13,1,29,DL_Guitar,6,5,umontaturo_upbeat,0.9990280866622925,1
52,100,0.1590909090909091,83,0,29,DL_Guitar,6,3,umontaturo_upbeat,0.3703366219997406,0
64,100,0.2,119,0,29,DL_Guitar,6,3,umontaturo_upbeat,0.456173837184906,0
57,100,0.4818181818181818,320,1,30,DL_Guitar,6,8,umontaturo_upbeat,0.9984880685806274,1
57,100,0.38181818181818183,440,0,30,DL_Guitar,6,6,umontaturo_upbeat,0.06335446238517761,0
69,100,0.1409090909090909,694,1,30,DL_Guitar,6,2,umontaturo_upbeat,0.058291397988796234,0
69,100,0.11818181818181818,735,0,30,DL_Guitar,6,2,umontaturo_upbeat,0.061364416033029556,0
57,100,0.1590909090909091,770,0,30,DL_Guitar,6,3,umontaturo_upbeat,0.07168746739625931,0
69,100,0.1,804,0,30,DL_Guitar,6,2,umontaturo_upbeat,0.08474013954401016,0
57,100,0.8409090909090909,866,0,30,DL_Guitar,6,13,umontaturo_upbeat,0.12635673582553864,0
57,100,0.5181818181818182,185,1,31,DL_Guitar,6,8,umontaturo_upbeat,0.9984879493713379,1
57,100,0.5409090909090909,308,0,31,DL_Guitar,6,9,umontaturo_upbeat,0.06335338205099106,0
52,100,0.18181818181818182,453,0,31,DL_Guitar,6,3,umontaturo_upbeat,0.058290399610996246,0
52,100,0.13636363636363635,523,0,31,DL_Guitar,6,2,umontaturo_upbeat,0.06136339530348778,0
59,100,0.35909090909090907,571,0,31,DL_Guitar,6,6,umontaturo_upbeat,0.0716865286231041,0
59,100,0.2590909090909091,700,0,31,DL_Guitar,6,4,umontaturo_upbeat,0.08474212884902954,0
52,100,0.1,822,0,31,DL_Guitar,6,2,umontaturo_upbeat,0.12635867297649384,0
59,100,0.5,188,1,32,DL_Guitar,6,8,umontaturo_upbeat,0.9986506104469299,1
54,100,0.1590909090909091,426,1,32,DL_Guitar,6,3,umontaturo_upbeat,0.08798044919967651,0
54,100,0.2636363636363636,488,0,32,DL_Guitar,6,4,umontaturo_upbeat,0.09298502653837204,0
59,100,0.1,593,0,32,DL_Guitar,6,2,umontaturo_upbeat,0.10994935780763626,0
54,100,0.3409090909090909,691,0,32,DL_Guitar,6,5,umontaturo_upbeat,0.12867313623428345,0
59,100,0.4772727272727273,831,0,32,DL_Guitar,6,8,umontaturo_upbeat,0.18221786618232727,0
57,100,0.2409090909090909,118,1,33,DL_Guitar,6,4,umontaturo_upbeat,0.9988439083099365,1
52,100,0.5181818181818182,308,0,33,DL_Guitar,6,8,umontaturo_upbeat,0.13798528909683228,0
52,100,0.1590909090909091,453,0,33,DL_Guitar,6,3,umontaturo_upbeat,0.1623692810535431,0
52,100,0.2,571,0,33,DL_Guitar,6,3,umontaturo_upbeat,0.1910664588212967,0
69,100,0.12272727272727273,818,1,33,DL_Guitar,6,2,umontaturo_upbeat,0.2619812786579132,0
69,100,0.2,69,1,34,DL_Guitar,6,3,umontaturo_upbeat,0.9986506104469299,1
57,100,0.2,188,0,34,DL_Guitar,6,3,umontaturo_upbeat,0.08798374235630035,0
57,100,0.22272727272727272,254,0,34,DL_Guitar,6,4,umontaturo_upbeat,0.09298908710479736,0
52,100,0.2,480,0,34,DL_Guitar,6,3,umontaturo_upbeat,0.10996000468730927,0
69,100,0.3,616,0,34,DL_Guitar,6,5,umontaturo_upbeat,0.12867842614650726,0
57,100,1.0818181818181818,818,0,34,DL_Guitar,6,15,umontaturo_upbeat,0.18223391473293304,0
57,100,0.5590909090909091,298,1,35,DL_Guitar,6,9,umontaturo_upbeat,0.9988439083099365,1
52,100,0.3,488,0,35,DL_Guitar,6,5,umontaturo_upbeat,0.13798369467258453,0
52,100,0.5772727272727273,558,0,35,DL_Guitar,6,9,umontaturo_upbeat,0.16236183047294617,0
59,100,0.3181818181818182,735,0,35,DL_Guitar,6,5,umontaturo_upbeat,0.1910582184791565,0
52,100,0.1409090909090909,826,0,35,DL_Guitar,6,2,umontaturo_upbeat,0.26197150349617004,0
57,100,0.22272727272727272,4,1,36,DL_Guitar,6,4,umontaturo_upbeat,0.9983735084533691,1
53,100,0.4818181818181818,66,0,36,DL_Guitar,6,8,umontaturo_upbeat,0.051049742847681046,0
53,100,0.5409090909090909,179,0,36,DL_Guitar,6,9,umontaturo_upbeat,0.04161173477768898,0
59,100,0.1590909090909091,325,0,36,DL_Guitar,6,3,umontaturo_upbeat,0.03797890245914459,0
53,100,0.37727272727272726,435,0,36,DL_Guitar,6,6,umontaturo_upbeat,0.039258942008018494,0
54,100,0.42272727272727273,554,0,36,DL_Guitar,6,7,umontaturo_upbeat,0.04616409167647362,0
54,100,0.1409090909090909,813,1,36,DL_Guitar,6,2,umontaturo_upbeat,0.0571310892701149,0
54,100,0.5409090909090909,871,0,36,DL_Guitar,6,9,umontaturo_upbeat,0.09187662601470947,0
54,100,0.5409090909090909,179,1,37,DL_Guitar,6,9,umontaturo_upbeat,0.9986506104469299,1
54,100,0.5,311,0,37,DL_Guitar,6,8,umontaturo_upbeat,0.08797819912433624,0
59,100,0.13636363636363635,523,0,37,DL_Guitar,6,2,umontaturo_upbeat,0.09298243373632431,0
59,100,0.1409090909090909,584,0,37,DL_Guitar,6,2,umontaturo_upbeat,0.10995182394981384,0
57,100,0.22272727272727272,628,0,37,DL_Guitar,6,4,umontaturo_upbeat,0.12867183983325958,0
59,100,0.2,708,0,37,DL_Guitar,6,3,umontaturo_upbeat,0.18222466111183167,0
59,100,0.2818181818181818,48,1,38,DL_Guitar,6,5,umontaturo_upbeat,0.9988439083099365,1
59,100,0.2,198,0,38,DL_Guitar,6,3,umontaturo_upbeat,0.13798734545707703,0
57,100,0.1590909090909091,260,0,38,DL_Guitar,6,3,umontaturo_upbeat,0.16236600279808044,0
57,100,0.1590909090909091,571,1,38,DL_Guitar,6,3,umontaturo_upbeat,0.19106346368789673,0
69,100,0.3,606,0,38,DL_Guitar,6,5,umontaturo_upbeat,0.2619788944721222,0
62,100,0.2,461,1,39,DL_Guitar,6,3,umontaturo_upbeat,0.9983232617378235,1
57,100,0.5590909090909091,804,1,39,DL_Guitar,6,9,umontaturo_upbeat,0.5462210178375244,1
52,100,0.8772727272727273,75,1,40,DL_Guitar,6,14,umontaturo_upbeat,0.9988439083099365,1
52,100,0.13636363636363635,413,1,40,DL_Guitar,6,2,umontaturo_upbeat,0.13798508048057556,0
52,100,0.17727272727272728,448,0,40,DL_Guitar,6,3,umontaturo_upbeat,0.16236889362335205,0
65,100,0.2772727272727273,603,0,40,DL_Guitar,6,4,umontaturo_upbeat,0.19105897843837738,0
53,100,0.6,681,0,40,DL_Guitar,6,10,umontaturo_upbeat,0.26197174191474915,0
53,100,0.2636363636363636,48,1,41,DL_Guitar,6,4,umontaturo_upbeat,0.9983735084533691,1
59,100,0.18181818181818182,224,0,41,DL_Guitar,6,3,umontaturo_upbeat,0.05105108022689819,0
54,100,0.4772727272727273,316,0,41,DL_Guitar,6,8,umontaturo_upbeat,0.04161199554800987,0
59,100,0.2590909090909091,435,0,41,DL_Guitar,6,4,umontaturo_upbeat,0.03797975555062294,0
54,100,0.3,501,0,41,DL_Guitar,6,5,umontaturo_upbeat,0.039259400218725204,0
54,100,0.2409090909090909,576,0,41,DL_Guitar,6,4,umontaturo_upbeat,0.04616560786962509,0
54,100,0.2772727272727273,678,0,41,DL_Guitar,6,4,umontaturo_upbeat,0.05712966248393059,0
54,100,0.4590909090909091,813,0,41,DL_Guitar,6,7,umontaturo_upbeat,0.09187972545623779,0
59,100,0.2409090909090909,66,1,42,DL_Guitar,6,4,umontaturo_upbeat,0.9984879493713379,1
62,100,0.2,128,0,42,DL_Guitar,6,3,umontaturo_upbeat,0.06335416436195374,0
57,100,0.2,254,0,42,DL_Guitar,6,3,umontaturo_upbeat,0.058290641754865646,0
52,100,0.4818181818181818,321,0,42,DL_Guitar,6,8,umontaturo_upbeat,0.06136482581496239,0
59,100,0.2818181818181818,616,1,42,DL_Guitar,6,5,umontaturo_upbeat,0.07168494164943695,0
52,100,0.16363636363636364,708,0,42,DL_Guitar,6,3,umontaturo_upbeat,0.08474063873291016,0
52,100,0.11818181818181818,831,0,42,DL_Guitar,6,2,umontaturo_upbeat,0.12635484337806702,0
57,100,0.2818181818181818,48,1,43,DL_Guitar,6,5,umontaturo_upbeat,0.9990280866622925,1
69,100,0.3181818181818182,743,1,43,DL_Guitar,6,5,umontaturo_upbeat,0.37035077810287476,0
57,100,0.5181818181818182,813,0,43,DL_Guitar,6,8,umontaturo_upbeat,0.45617830753326416,0
64,100,0.1590909090909091,721,1,44,DL_Guitar,6,3,umontaturo_upbeat,0.9990280866622925,1
64,100,0.35909090909090907,788,0,44,DL_Guitar,6,6,umontaturo_upbeat,0.3703385591506958,0
64,100,0.32272727272727275,871,0,44,DL_Guitar,6,5,umontaturo_upbeat,0.4561750292778015,0
53,100,0.12272727272727273,211,1,45,DL_Guitar,6,2,umontaturo_upbeat,0.9988439083099365,1
65,100,0.18181818181818182,334,0,45,DL_Guitar,6,3,umontaturo_upbeat,0.13798277080059052,0
54,100,0.36363636363636365,686,1,45,DL_Guitar,6,6,umontaturo_upbeat,0.16236543655395508,0
54,100,0.23636363636363636,810,0,45,DL_Guitar,6,4,umontaturo_upbeat,0.19105589389801025,0
66,100,0.1409090909090909,866,0,45,DL_Guitar,6,2,umontaturo_upbeat,0.2619684934616089,0
62,100,0.3181818181818182,668,1,46,DL_Guitar,6,5,umontaturo_upbeat,0.9983231425285339,1
52,100,0.2818181818181818,826,0,46,DL_Guitar,6,5,umontaturo_upbeat,0.5462256669998169,1
52,100,0.12272727272727273,13,1,47,DL_Guitar,6,2,umontaturo_upbeat,0.9990094900131226,1
52,100,0.4409090909090909,43,0,47,DL_Guitar,6,7,umontaturo_upbeat,0.23323161900043488,0
52,100,0.5818181818181818,179,0,47,DL_Guitar,6,9,umontaturo_upbeat,0.2705879807472229,0
53,100,1.240909090909091,426,1,47,DL_Guitar,6,15,umontaturo_upbeat,0.3579254150390625,0
54,100,0.42272727272727273,48,1,48,DL_Guitar,6,7,umontaturo_upbeat,0.9990280866622925,1
61,100,0.2,163,0,48,DL_Guitar,6,3,umontaturo_upbeat,0.3703402578830719,0
61,100,0.4818181818181818,440,1,48,DL_Guitar,6,8,umontaturo_upbeat,0.45617443323135376,0
62,100,0.4,34,1,49,DL_Guitar,6,6,umontaturo_upbeat,0.9988439083099365,1
52,100,1.3590909090909091,176,0,49,DL_Guitar,6,15,umontaturo_upbeat,0.13798503577709198,0
52,100,0.2,480,1,49,DL_Guitar,6,3,umontaturo_upbeat,0.1623772531747818,0
52,100,0.1590909090909091,638,0,49,DL_Guitar,6,3,umontaturo_upbeat,0.19107280671596527,0
53,100,1.6363636363636365,678,0,49,DL_Guitar,6,15,umontaturo_upbeat,0.26196783781051636,0
54,100,0.23636363636363636,303,1,50,DL_Guitar,6,4,umontaturo_upbeat,0.9988439083099365,1
61,100,0.2409090909090909,440,0,50,DL_Guitar,6,4,umontaturo_upbeat,0.13798266649246216,0
61,100,0.4818181818181818,571,0,50,DL_Guitar,6,8,umontaturo_upbeat,0.16236229240894318,0
61,100,0.3,691,0,50,DL_Guitar,6,5,umontaturo_upbeat,0.19106191396713257,0
57,100,0.13636363636363635,788,0,50,DL_Guitar,6,2,umontaturo_upbeat,0.261968731880188,0
52,100,0.5,431,1,51,DL_Guitar,6,8,umontaturo_upbeat,0.9990280866622925,1
52,100,0.1,545,0,51,DL_Guitar,6,2,umontaturo_upbeat,0.37033677101135254,0
52,100,0.11818181818181818,691,0,51,DL_Guitar,6,2,umontaturo_upbeat,0.4561716616153717,0
54,100,0.1590909090909091,0,1,52,DL_Guitar,6,3,umontaturo_upbeat,0.9986506104469299,1
54,100,0.1,56,0,52,DL_Guitar,6,2,umontaturo_upbeat,0.08798271417617798,0
61,100,0.7,91,0,52,DL_Guitar,6,11,umontaturo_upbeat,0.09298494458198547,0
54,100,0.3,254,0,52,DL_Guitar,6,5,umontaturo_upbeat,0.1099584549665451,0
54,100,0.1,325,0,52,DL_Guitar,6,2,umontaturo_upbeat,0.12868031859397888,0
61,100,2.640909090909091,426,0,52,DL_Guitar,6,15,umontaturo_upbeat,0.1822100132703781,0
57,100,1.440909090909091,158,1,53,DL_Guitar,6,15,umontaturo_upbeat,0.9983231425285339,1
52,100,2.1,681,1,53,DL_Guitar,6,15,umontaturo_upbeat,0.5462164878845215,1
52,100,0.11818181818181818,303,1,54,DL_Guitar,6,2,umontaturo_upbeat,0.9792238473892212,1
57,100,0.18181818181818182,418,1,55,DL_Guitar,6,3,umontaturo_upbeat,0.9988439083099365,1
57,100,0.1409090909090909,518,0,55,DL_Guitar,6,2,umontaturo_upbeat,0.13798663020133972,0
57,100,0.37727272727272726,558,0,55,DL_Guitar,6,6,umontaturo_upbeat,0.16236749291419983,0
57,100,0.21818181818181817,660,0,55,DL_Guitar,6,3,umontaturo_upbeat,0.1910664141178131,0
57,100,0.38181818181818183,726,0,55,DL_Guitar,6,6,umontaturo_upbeat,0.26197072863578796,0
57,100,0.2409090909090909,625,1,56,DL_Guitar,6,4,umontaturo_upbeat,0.9983232617378235,1
57,100,0.4818181818181818,703,0,56,DL_Guitar,6,8,umontaturo_upbeat,0.5462151169776917,1
57,100,0.22272727272727272,4,1,57,DL_Guitar,6,4,umontaturo_upbeat,0.9984879493713379,1
57,100,0.4,91,0,57,DL_Guitar,6,6,umontaturo_upbeat,0.06335360556840897,0
57,100,0.4818181818181818,330,1,57,DL_Guitar,6,8,umontaturo_upbeat,0.05828885734081268,0
57,100,0.2590909090909091,453,0,57,DL_Guitar,6,4,umontaturo_upbeat,0.06136147305369377,0
69,100,0.1409090909090909,531,0,57,DL_Guitar,6,2,umontaturo_upbeat,0.07168348133563995,0
61,100,0.5,691,0,57,DL_Guitar,6,8,umontaturo_upbeat,0.0847356989979744,0
59,100,0.6,810,0,57,DL_Guitar,6,10,umontaturo_upbeat,0.12635290622711182,0
59,100,0.18181818181818182,153,1,58,DL_Guitar,6,3,umontaturo_upbeat,0.9990094900131226,1
59,100,0.1,215,0,58,DL_Guitar,6,2,umontaturo_upbeat,0.23322905600070953,0
52,100,0.4409090909090909,330,0,58,DL_Guitar,6,7,umontaturo_upbeat,0.2705818712711334,0
52,100,0.11818181818181818,536,0,58,DL_Guitar,6,2,umontaturo_upbeat,0.35793566703796387,0
61,100,0.1409090909090909,48,1,59,DL_Guitar,6,2,umontaturo_upbeat,0.9990280866622925,1
61,100,0.3,110,0,59,DL_Guitar,6,5,umontaturo_upbeat,0.3703441321849823,0
57,100,0.1409090909090909,770,1,59,DL_Guitar,6,2,umontaturo_upbeat,0.4561729431152344,0
57,100,0.11818181818181818,330,1,60,DL_Guitar,6,2,umontaturo_upbeat,0.9990280866622925,1
61,100,0.5636363636363636,421,0,60,DL_Guitar,6,9,umontaturo_upbeat,0.3703414797782898,0
61,100,0.3181818181818182,678,1,60,DL_Guitar,6,5,umontaturo_upbeat,0.4561668932437897,0
57,100,0.4636363636363636,444,1,61,DL_Guitar,6,7,umontaturo_upbeat,0.9990280866622925,1
54,100,0.35909090909090907,550,0,61,DL_Guitar,6,6,umontaturo_upbeat,0.37033799290657043,0
57,100,0.13636363636363635,633,0,61,DL_Guitar,6,2,umontaturo_upbeat,0.45617273449897766,0
57,100,0.11818181818181818,316,1,62,DL_Guitar,6,2,umontaturo_upbeat,0.9990094900131226,1
57,100,0.1,471,0,62,DL_Guitar,6,2,umontaturo_upbeat,0.23323094844818115,0
57,100,0.18181818181818182,628,0,62,DL_Guitar,6,3,umontaturo_upbeat,0.27058473229408264,0
59,100,0.4590909090909091,810,0,62,DL_Guitar,6,7,umontaturo_upbeat,0.3579334616661072,0
61,100,0.13636363636363635,171,1,63,DL_Guitar,6,2,umontaturo_upbeat,0.9983735084533691,1
59,100,0.35909090909090907,316,0,63,DL_Guitar,6,6,umontaturo_upbeat,0.05105135962367058,0
57,100,0.2409090909090909,431,0,63,DL_Guitar,6,4,umontaturo_upbeat,0.041612252593040466,0
54,100,0.1,691,1,63,DL_Guitar,6,2,umontaturo_upbeat,0.037980400025844574,0
54,100,0.17727272727272728,721,0,63,DL_Guitar,6,3,umontaturo_upbeat,0.039260219782590866,0
57,100,0.12272727272727273,774,0,63,DL_Guitar,6,2,umontaturo_upbeat,0.046164847910404205,0
54,100,0.11818181818181818,813,0,63,DL_Guitar,6,2,umontaturo_upbeat,0.057132553309202194,0
54,100,0.12272727272727273,848,0,63,DL_Guitar,6,2,umontaturo_upbeat,0.09187860786914825,0
57,100,0.1590909090909091,0,1,64,DL_Guitar,6,3,umontaturo_upbeat,0.9990280866622925,1
57,100,0.7181818181818181,550,1,64,DL_Guitar,6,11,umontaturo_upbeat,0.37034448981285095,0
57,100,0.4,849,1,64,DL_Guitar,6,6,umontaturo_upbeat,0.4561760127544403,0
57,100,0.2409090909090909,66,1,65,DL_Guitar,6,4,umontaturo_upbeat,0.9990280866622925,1
59,100,0.8363636363636363,172,0,65,DL_Guitar,6,13,umontaturo_upbeat,0.3703399896621704,0
61,100,0.2409090909090909,404,1,65,DL_Guitar,6,4,umontaturo_upbeat,0.4561631679534912,0
59,100,0.8590909090909091,426,1,66,DL_Guitar,6,14,umontaturo_upbeat,0.9990280866622925,1
69,100,0.1,796,1,66,DL_Guitar,6,2,umontaturo_upbeat,0.37034380435943604,0
62,100,0.12272727272727273,849,0,66,DL_Guitar,6,2,umontaturo_upbeat,0.45617061853408813,0
62,100,0.1590909090909091,0,1,67,DL_Guitar,6,3,umontaturo_upbeat,0.9983004927635193,1
64,100,0.5181818181818182,40,0,67,DL_Guitar,6,8,umontaturo_upbeat,0.044663287699222565,0
64,100,0.3409090909090909,176,0,67,DL_Guitar,6,5,umontaturo_upbeat,0.03337307646870613,0
52,100,0.37727272727272726,436,1,67,DL_Guitar,6,6,umontaturo_upbeat,0.02695021592080593,0
52,100,0.17727272727272728,546,0,67,DL_Guitar,6,3,umontaturo_upbeat,0.02408582530915737,0
52,100,0.1590909090909091,603,0,67,DL_Guitar,6,3,umontaturo_upbeat,0.024974722415208817,0
52,100,0.13636363636363635,656,0,67,DL_Guitar,6,2,umontaturo_upbeat,0.030650544911623,0
52,100,0.3409090909090909,690,0,67,DL_Guitar,6,5,umontaturo_upbeat,0.04137113690376282,0
52,100,0.38181818181818183,849,0,67,DL_Guitar,6,6,umontaturo_upbeat,0.07207562029361725,0
52,100,0.2,233,1,68,DL_Guitar,6,3,umontaturo_upbeat,0.9990280866622925,1
52,100,0.37727272727272726,294,0,68,DL_Guitar,6,6,umontaturo_upbeat,0.3703308403491974,0
59,100,0.13636363636363635,457,0,68,DL_Guitar,6,2,umontaturo_upbeat,0.456177294254303,0
57,100,0.4,189,1,69,DL_Guitar,6,6,umontaturo_upbeat,0.9990280866622925,1
52,100,0.2,686,1,69,DL_Guitar,6,3,umontaturo_upbeat,0.3703398108482361,0
52,100,0.1590909090909091,832,0,69,DL_Guitar,6,3,umontaturo_upbeat,0.45617949962615967,0
52,100,0.2590909090909091,56,1,70,DL_Guitar,6,4,umontaturo_upbeat,0.9986506104469299,1
59,100,0.1409090909090909,140,0,70,DL_Guitar,6,2,umontaturo_upbeat,0.08798053115606308,0
53,100,0.5818181818181818,307,0,70,DL_Guitar,6,9,umontaturo_upbeat,0.0929800420999527,0
53,100,0.1590909090909091,453,0,70,DL_Guitar,6,3,umontaturo_upbeat,0.1099480390548706,0
53,100,0.1409090909090909,642,0,70,DL_Guitar,6,2,umontaturo_upbeat,0.12867030501365662,0
56,100,0.11818181818181818,734,0,70,DL_Guitar,6,2,umontaturo_upbeat,0.18221311271190643,0
61,100,0.11818181818181818,153,1,71,DL_Guitar,6,2,umontaturo_upbeat,0.9990280866622925,1
57,100,0.1590909090909091,673,1,71,DL_Guitar,6,3,umontaturo_upbeat,0.3703456223011017,0
57,100,0.2,823,0,71,DL_Guitar,6,3,umontaturo_upbeat,0.4561777114868164,0
57,100,0.1590909090909091,9,1,72,DL_Guitar,6,3,umontaturo_upbeat,0.9990094900131226,1
59,100,1.059090909090909,193,0,72,DL_Guitar,6,15,umontaturo_upbeat,0.2332332283258438,0
69,100,0.21818181818181817,502,1,72,DL_Guitar,6,3,umontaturo_upbeat,0.2705853283405304,0
57,100,0.33636363636363636,743,1,72,DL_Guitar,6,5,umontaturo_upbeat,0.35793444514274597,0
61,100,0.11818181818181818,514,1,73,DL_Guitar,6,2,umontaturo_upbeat,0.9990280866622925,1
61,100,0.42272727272727273,585,0,73,DL_Guitar,6,7,umontaturo_upbeat,0.37034016847610474,0
57,100,0.3409090909090909,870,1,73,DL_Guitar,6,5,umontaturo_upbeat,0.4561727046966553,0
57,100,0.21818181818181817,132,1,74,DL_Guitar,6,3,umontaturo_upbeat,0.9986506104469299,1
57,100,0.2772727272727273,237,0,74,DL_Guitar,6,4,umontaturo_upbeat,0.08797995746135712,0
52,100,0.2590909090909091,559,1,74,DL_Guitar,6,4,umontaturo_upbeat,0.09298519790172577,0
52,100,0.18181818181818182,619,0,74,DL_Guitar,6,3,umontaturo_upbeat,0.109951451420784,0
64,100,0.18181818181818182,682,0,74,DL_Guitar,6,3,umontaturo_upbeat,0.12867489457130432,0
59,100,0.2818181818181818,726,0,74,DL_Guitar,6,5,umontaturo_upbeat,0.18222138285636902,0
61,100,0.1,17,1,75,DL_Guitar,6,2,umontaturo_upbeat,0.9988439083099365,1
53,100,1.1409090909090909,47,0,75,DL_Guitar,6,15,umontaturo_upbeat,0.13797780871391296,0
61,100,0.6409090909090909,316,1,75,DL_Guitar,6,10,umontaturo_upbeat,0.162361741065979,0
61,100,0.12272727272727273,606,1,75,DL_Guitar,6,2,umontaturo_upbeat,0.19105596840381622,0
61,100,0.3,739,0,75,DL_Guitar,6,5,umontaturo_upbeat,0.2619644105434418,0
59,100,0.17727272727272728,9,1,76,DL_Guitar,6,3,umontaturo_upbeat,0.9988439083099365,1
52,100,0.18181818181818182,550,1,76,DL_Guitar,6,3,umontaturo_upbeat,0.1379781812429428,0
52,100,0.1409090909090909,739,0,76,DL_Guitar,6,2,umontaturo_upbeat,0.16236461699008942,0
52,100,0.16363636363636364,773,0,76,DL_Guitar,6,3,umontaturo_upbeat,0.19105979800224304,0
59,100,0.21818181818181817,813,0,76,DL_Guitar,6,3,umontaturo_upbeat,0.2619746923446655,0
59,100,0.3,176,1,77,DL_Guitar,6,5,umontaturo_upbeat,0.9988439083099365,1
59,100,0.5590909090909091,307,0,77,DL_Guitar,6,9,umontaturo_upbeat,0.1379799097776413,0
64,100,0.18181818181818182,440,0,77,DL_Guitar,6,3,umontaturo_upbeat,0.16236832737922668,0
59,100,0.17727272727272728,502,0,77,DL_Guitar,6,3,umontaturo_upbeat,0.19105760753154755,0
59,100,0.4409090909090909,559,0,77,DL_Guitar,6,7,umontaturo_upbeat,0.2619662284851074,0
57,100,0.3,289,1,78,DL_Guitar,6,5,umontaturo_upbeat,0.9792237281799316,1
65,100,0.1409090909090909,449,1,79,DL_Guitar,6,2,umontaturo_upbeat,0.9986506104469299,1
65,100,0.18181818181818182,550,0,79,DL_Guitar,6,3,umontaturo_upbeat,0.0879766047000885,0
65,100,0.2,597,0,79,DL_Guitar,6,3,umontaturo_upbeat,0.09298428893089294,0
65,100,0.6636363636363637,663,0,79,DL_Guitar,6,11,umontaturo_upbeat,0.10994571447372437,0
65,100,0.1409090909090909,813,0,79,DL_Guitar,6,2,umontaturo_upbeat,0.1286705881357193,0
65,100,0.5227272727272727,849,0,79,DL_Guitar,6,8,umontaturo_upbeat,0.18220920860767365,0
59,100,0.2,246,1,80,DL_Guitar,6,3,umontaturo_upbeat,0.9990094900131226,1
59,100,0.17727272727272728,294,0,80,DL_Guitar,6,3,umontaturo_upbeat,0.2332274615764618,0
59,100,0.2,496,0,80,DL_Guitar,6,3,umontaturo_upbeat,0.2705768346786499,0
52,100,0.2772727272727273,722,0,80,DL_Guitar,6,4,umontaturo_upbeat,0.35793086886405945,0
52,100,0.6227272727272727,47,1,81,DL_Guitar,6,10,umontaturo_upbeat,0.9983231425285339,1
61,100,1.7818181818181817,263,0,81,DL_Guitar,6,15,umontaturo_upbeat,0.5462063550949097,1
57,100,0.2590909090909091,127,1,82,DL_Guitar,6,4,umontaturo_upbeat,0.9990094900131226,1
57,100,0.2409090909090909,263,0,82,DL_Guitar,6,4,umontaturo_upbeat,0.23324324190616608,0
57,100,0.1,320,0,82,DL_Guitar,6,2,umontaturo_upbeat,0.2705990970134735,0
57,100,0.759090909090909,440,0,82,DL_Guitar,6,12,umontaturo_upbeat,0.35793638229370117,0
57,100,0.12272727272727273,13,1,83,DL_Guitar,6,2,umontaturo_upbeat,0.9990280866622925,1
57,100,0.2,303,1,83,DL_Guitar,6,3,umontaturo_upbeat,0.37033480405807495,0
52,100,0.1,857,1,83,DL_Guitar,6,2,umontaturo_upbeat,0.45617228746414185,0
61,100,0.3,197,1,84,DL_Guitar,6,5,umontaturo_upbeat,0.9990094900131226,1
61,100,1.0,347,0,84,DL_Guitar,6,15,umontaturo_upbeat,0.23322559893131256,0
61,100,0.5227272727272727,707,1,84,DL_Guitar,6,8,umontaturo_upbeat,0.2705821394920349,0
61,100,0.38181818181818183,836,0,84,DL_Guitar,6,6,umontaturo_upbeat,0.3579246401786804,0
52,100,0.4818181818181818,166,1,85,DL_Guitar,6,8,umontaturo_upbeat,0.9986506104469299,1
52,100,0.6,286,0,85,DL_Guitar,6,10,umontaturo_upbeat,0.08798103034496307,0
52,100,0.3,422,0,85,DL_Guitar,6,5,umontaturo_upbeat,0.0929846540093422,0
52,100,0.35909090909090907,603,0,85,DL_Guitar,6,6,umontaturo_upbeat,0.10995060205459595,0
59,100,0.32272727272727275,729,0,85,DL_Guitar,6,5,umontaturo_upbeat,0.1286764144897461,0
59,100,0.18181818181818182,817,0,85,DL_Guitar,6,3,umontaturo_upbeat,0.1822235882282257,0
64,100,0.2409090909090909,113,1,86,DL_Guitar,6,4,umontaturo_upbeat,0.9986506104469299,1
59,100,0.42272727272727273,202,0,86,DL_Guitar,6,7,umontaturo_upbeat,0.08798056840896606,0
57,100,0.1409090909090909,493,1,86,DL_Guitar,6,2,umontaturo_upbeat,0.09298736602067947,0
57,100,0.35909090909090907,527,0,86,DL_Guitar,6,6,umontaturo_upbeat,0.10995303094387054,0
57,100,0.2772727272727273,624,0,86,DL_Guitar,6,4,umontaturo_upbeat,0.12867967784404755,0
57,100,1.1590909090909092,813,0,86,DL_Guitar,6,15,umontaturo_upbeat,0.18222646415233612,0
57,100,0.2409090909090909,250,1,87,DL_Guitar,6,4,umontaturo_upbeat,0.9792242646217346,1
59,100,0.1409090909090909,506,1,90,DL_Guitar,6,2,umontaturo_upbeat,0.9990280866622925,1
59,100,0.1,646,0,90,DL_Guitar,6,2,umontaturo_upbeat,0.37033528089523315,0
59,100,0.4590909090909091,823,0,90,DL_Guitar,6,7,umontaturo_upbeat,0.45616915822029114,0
59,100,0.5,79,1,91,DL_Guitar,6,8,umontaturo_upbeat,0.9990280866622925,1
52,100,0.17727272727272728,316,1,91,DL_Guitar,6,3,umontaturo_upbeat,0.37033703923225403,0
52,100,0.4,817,1,91,DL_Guitar,6,6,umontaturo_upbeat,0.45617422461509705,0
57,100,0.22272727272727272,100,1,92,DL_Guitar,6,4,umontaturo_upbeat,0.9984879493713379,1
66,100,0.18181818181818182,197,0,92,DL_Guitar,6,3,umontaturo_upbeat,0.0633544847369194,0
55,100,0.11818181818181818,426,0,92,DL_Guitar,6,2,umontaturo_upbeat,0.05828933045268059,0
55,100,0.11818181818181818,480,0,92,DL_Guitar,6,2,umontaturo_upbeat,0.06136300042271614,0
56,100,0.1409090909090909,506,0,92,DL_Guitar,6,2,umontaturo_upbeat,0.07168145477771759,0
52,100,0.4,572,0,92,DL_Guitar,6,6,umontaturo_upbeat,0.08473603427410126,0
59,100,0.32272727272727275,707,0,92,DL_Guitar,6,5,umontaturo_upbeat,0.12635034322738647,0
64,100,0.16363636363636364,3,1,93,DL_Guitar,6,3,umontaturo_upbeat,0.9988439083099365,1
59,100,0.11818181818181818,150,0,93,DL_Guitar,6,2,umontaturo_upbeat,0.13798680901527405,0
65,100,0.4590909090909091,320,0,93,DL_Guitar,6,7,umontaturo_upbeat,0.16237033903598785,0
65,100,0.2772727272727273,426,0,93,DL_Guitar,6,4,umontaturo_upbeat,0.19106443226337433,0
57,100,0.5181818181818182,844,1,93,DL_Guitar,6,8,umontaturo_upbeat,0.26196223497390747,0
59,100,0.3181818181818182,813,1,94,DL_Guitar,6,5,umontaturo_upbeat,0.979223906993866,1
59,100,0.32272727272727275,92,1,95,DL_Guitar,6,5,umontaturo_upbeat,0.9983232617378235,1
59,100,0.1409090909090909,223,0,95,DL_Guitar,6,2,umontaturo_upbeat,0.5462120771408081,1
54,100,0.1590909090909091,53,1,96,DL_Guitar,6,3,umontaturo_upbeat,0.9983232617378235,1
57,100,0.6181818181818182,734,1,96,DL_Guitar,6,10,umontaturo_upbeat,0.5462133288383484,1
57,100,0.21818181818181817,0,1,97,DL_Guitar,6,3,umontaturo_upbeat,0.9990094900131226,1
59,100,0.4818181818181818,189,0,97,DL_Guitar,6,8,umontaturo_upbeat,0.23323708772659302,0
64,100,0.11818181818181818,493,1,97,DL_Guitar,6,2,umontaturo_upbeat,0.2705942392349243,0
57,100,0.8409090909090909,823,1,97,DL_Guitar,6,13,umontaturo_upbeat,0.35793250799179077,0
57,100,0.12272727272727273,157,1,98,DL_Guitar,6,2,umontaturo_upbeat,0.979223906993866,1
57,100,0.2409090909090909,443,1,100,DL_Guitar,6,4,umontaturo_upbeat,0.9990094900131226,1
57,100,0.2409090909090909,563,0,100,DL_Guitar,6,4,umontaturo_upbeat,0.23322243988513947,0
57,100,0.2,633,0,100,DL_Guitar,6,3,umontaturo_upbeat,0.2705824077129364,0
59,100,0.5590909090909091,810,0,100,DL_Guitar,6,9,umontaturo_upbeat,0.35792097449302673,0
59,100,0.11818181818181818,83,1,101,DL_Guitar,6,2,umontaturo_upbeat,0.9986506104469299,1
59,100,0.4,153,0,101,DL_Guitar,6,6,umontaturo_upbeat,0.08797796815633774,0
59,100,0.2,260,0,101,DL_Guitar,6,3,umontaturo_upbeat,0.09298308938741684,0
59,100,0.5227272727272727,430,0,101,DL_Guitar,6,8,umontaturo_upbeat,0.10994771867990494,0
53,100,0.3,677,1,101,DL_Guitar,6,5,umontaturo_upbeat,0.12866991758346558,0
59,100,0.2,756,0,101,DL_Guitar,6,3,umontaturo_upbeat,0.1822212189435959,0
57,100,0.4772727272727273,193,1,102,DL_Guitar,6,8,umontaturo_upbeat,0.9990094900131226,1
57,100,0.18181818181818182,597,1,102,DL_Guitar,6,3,umontaturo_upbeat,0.23323985934257507,0
57,100,0.4636363636363636,707,0,102,DL_Guitar,6,7,umontaturo_upbeat,0.2705889046192169,0
57,100,0.1,839,0,102,DL_Guitar,6,2,umontaturo_upbeat,0.3579308092594147,0
57,100,0.12272727272727273,35,1,103,DL_Guitar,6,2,umontaturo_upbeat,0.9990094900131226,1
59,100,0.5181818181818182,184,0,103,DL_Guitar,6,8,umontaturo_upbeat,0.23323185741901398,0
59,100,0.7227272727272728,312,0,103,DL_Guitar,6,12,umontaturo_upbeat,0.27057698369026184,0
52,100,0.13636363636363635,502,0,103,DL_Guitar,6,2,umontaturo_upbeat,0.3579307496547699,0
57,100,0.1,282,1,104,DL_Guitar,6,2,umontaturo_upbeat,0.9983004927635193,1
57,100,0.18181818181818182,466,0,104,DL_Guitar,6,3,umontaturo_upbeat,0.04466354101896286,0
57,100,0.1,514,0,104,DL_Guitar,6,2,umontaturo_upbeat,0.03337200731039047,0
57,100,0.2590909090909091,540,0,104,DL_Guitar,6,4,umontaturo_upbeat,0.02694859355688095,0
57,100,0.11818181818181818,616,0,104,DL_Guitar,6,2,umontaturo_upbeat,0.02408359944820404,0
57,100,0.2409090909090909,682,0,104,DL_Guitar,6,4,umontaturo_upbeat,0.024973606690764427,0
57,100,0.1,743,0,104,DL_Guitar,6,2,umontaturo_upbeat,0.03064858913421631,0
57,100,0.1590909090909091,770,0,104,DL_Guitar,6,3,umontaturo_upbeat,0.0413697212934494,0
57,100,0.1,813,0,104,DL_Guitar,6,2,umontaturo_upbeat,0.07207144051790237,0
57,100,0.11818181818181818,9,1,105,DL_Guitar,6,2,umontaturo_upbeat,0.9792237281799316,1
61,100,0.41818181818181815,39,1,15,DL_deepemotion_Guitar,6,7,omokagedeepemotionruriko,0.979223370552063,1
54,100,0.2,712,1,17,DL_deepemotion_Guitar,6,3,omokagedeepemotionruriko,0.9983232617378235,1
56,100,0.7,801,0,17,DL_deepemotion_Guitar,6,11,omokagedeepemotionruriko,0.546204149723053,1
56,100,0.2,83,1,18,DL_deepemotion_Guitar,6,3,omokagedeepemotionruriko,0.9792238473892212,1
54,100,0.4818181818181818,34,1,20,DL_deepemotion_Guitar,6,8,omokagedeepemotionruriko,0.9983232617378235,1
54,100,0.22272727272727272,179,0,20,DL_deepemotion_Guitar,6,4,omokagedeepemotionruriko,0.5462180376052856,1
54,100,0.32272727272727275,409,1,21,DL_deepemotion_Guitar,6,5,omokagedeepemotionruriko,0.9792242646217346,1
54,100,0.11818181818181818,326,1,22,DL_deepemotion_Guitar,6,2,omokagedeepemotionruriko,0.9792245030403137,1
63,100,0.2818181818181818,189,1,23,DL_deepemotion_Guitar,6,5,omokagedeepemotionruriko,0.9983231425285339,1
61,100,0.1409090909090909,866,1,23,DL_deepemotion_Guitar,6,2,omokagedeepemotionruriko,0.5462210178375244,1
54,100,0.11818181818181818,326,1,24,DL_deepemotion_Guitar,6,2,omokagedeepemotionruriko,0.9792245030403137,1
59,100,0.740909090909091,65,1,25,DL_deepemotion_Guitar,6,12,omokagedeepemotionruriko,0.9990094900131226,1
59,100,0.11818181818181818,295,0,25,DL_deepemotion_Guitar,6,2,omokagedeepemotionruriko,0.23323068022727966,0
56,100,0.11818181818181818,656,1,25,DL_deepemotion_Guitar,6,2,omokagedeepemotionruriko,0.2705857753753662,0
56,100,0.2818181818181818,818,0,25,DL_deepemotion_Guitar,6,5,omokagedeepemotionruriko,0.3579268157482147,0
56,100,0.37727272727272726,61,1,26,DL_deepemotion_Guitar,6,6,omokagedeepemotionruriko,0.9983231425285339,1
56,100,0.2409090909090909,223,0,26,DL_deepemotion_Guitar,6,4,omokagedeepemotionruriko,0.5462116003036499,1
62,100,0.18181818181818182,202,1,27,DL_deepemotion_Guitar,6,3,omokagedeepemotionruriko,0.9792236089706421,1
63,100,0.23636363636363636,810,1,28,DL_deepemotion_Guitar,6,4,omokagedeepemotionruriko,0.9792237281799316,1
52,100,0.11818181818181818,382,1,29,DL_deepemotion_Guitar,6,2,omokagedeepemotionruriko,0.9990094900131226,1
54,100,0.12272727272727273,422,0,29,DL_deepemotion_Guitar,6,2,omokagedeepemotionruriko,0.23322643339633942,0
66,100,0.12272727272727273,453,0,29,DL_deepemotion_Guitar,6,2,omokagedeepemotionruriko,0.2705790400505066,0
54,100,0.2,567,0,29,DL_deepemotion_Guitar,6,3,omokagedeepemotionruriko,0.357927531003952,0
54,100,0.759090909090909,189,1,0,DL_EnglishEdition_Remastered_Guitar,6,12,umon_EnglishEdition,0.9988439083099365,1
54,100,0.2,374,0,0,DL_EnglishEdition_Remastered_Guitar,6,3,umon_EnglishEdition,0.1379825323820114,0
54,100,0.22272727272727272,466,0,0,DL_EnglishEdition_Remastered_Guitar,6,4,umon_EnglishEdition,0.16236744821071625,0
59,100,0.12272727272727273,673,0,0,DL_EnglishEdition_Remastered_Guitar,6,2,umon_EnglishEdition,0.19105887413024902,0
61,100,0.3,770,0,0,DL_EnglishEdition_Remastered_Guitar,6,5,umon_EnglishEdition,0.2619659900665283,0
61,100,0.3,18,1,1,DL_EnglishEdition_Remastered_Guitar,6,5,umon_EnglishEdition,0.9988439083099365,1
59,100,0.1590909090909091,238,0,1,DL_EnglishEdition_Remastered_Guitar,6,3,umon_EnglishEdition,0.13798178732395172,0
66,100,0.12272727272727273,444,0,1,DL_EnglishEdition_Remastered_Guitar,6,2,umon_EnglishEdition,0.16236765682697296,0
66,100,0.38181818181818183,475,0,1,DL_EnglishEdition_Remastered_Guitar,6,6,umon_EnglishEdition,0.1910572350025177,0
59,100,0.4409090909090909,625,0,1,DL_EnglishEdition_Remastered_Guitar,6,7,umon_EnglishEdition,0.26196667551994324,0
52,100,0.41818181818181815,140,1,2,DL_EnglishEdition_Remastered_Guitar,6,7,umon_EnglishEdition,0.9990280866622925,1
52,100,0.35909090909090907,364,0,2,DL_EnglishEdition_Remastered_Guitar,6,6,umon_EnglishEdition,0.3703400790691376,0
54,100,0.6181818181818182,770,1,2,DL_EnglishEdition_Remastered_Guitar,6,10,umon_EnglishEdition,0.4561648964881897,0
59,100,0.2636363636363636,26,1,3,DL_EnglishEdition_Remastered_Guitar,6,4,umon_EnglishEdition,0.9988439083099365,1
61,100,0.12272727272727273,210,0,3,DL_EnglishEdition_Remastered_Guitar,6,2,umon_EnglishEdition,0.13798154890537262,0
61,100,0.5227272727272727,246,0,3,DL_EnglishEdition_Remastered_Guitar,6,8,umon_EnglishEdition,0.1623605191707611,0
61,100,0.17727272727272728,458,0,3,DL_EnglishEdition_Remastered_Guitar,6,3,umon_EnglishEdition,0.19105693697929382,0
59,100,1.2,681,0,3,DL_EnglishEdition_Remastered_Guitar,6,15,umon_EnglishEdition,0.26196369528770447,0
59,100,0.8,87,1,4,DL_EnglishEdition_Remastered_Guitar,6,13,umon_EnglishEdition,0.9990094900131226,1
59,100,0.22272727272727272,276,0,4,DL_EnglishEdition_Remastered_Guitar,6,4,umon_EnglishEdition,0.23322752118110657,0
52,100,0.16363636363636364,795,1,4,DL_EnglishEdition_Remastered_Guitar,6,3,umon_EnglishEdition,0.2705758213996887,0
54,100,0.22272727272727272,849,0,4,DL_EnglishEdition_Remastered_Guitar,6,4,umon_EnglishEdition,0.35792529582977295,0
54,100,0.5,232,1,5,DL_EnglishEdition_Remastered_Guitar,6,8,umon_EnglishEdition,0.9988439083099365,1
54,100,0.21818181818181817,370,0,5,DL_EnglishEdition_Remastered_Guitar,6,3,umon_EnglishEdition,0.13798339664936066,0
61,100,0.12272727272727273,541,0,5,DL_EnglishEdition_Remastered_Guitar,6,2,umon_EnglishEdition,0.16236311197280884,0
54,100,0.11818181818181818,581,0,5,DL_EnglishEdition_Remastered_Guitar,6,2,umon_EnglishEdition,0.19106024503707886,0
66,100,0.2,672,0,5,DL_EnglishEdition_Remastered_Guitar,6,3,umon_EnglishEdition,0.2619674801826477,0
59,100,0.11818181818181818,18,1,6,DL_EnglishEdition_Remastered_Guitar,6,2,umon_EnglishEdition,0.9988439083099365,1
59,100,0.13636363636363635,61,0,6,DL_EnglishEdition_Remastered_Guitar,6,2,umon_EnglishEdition,0.13797953724861145,0
52,100,0.3409090909090909,163,0,6,DL_EnglishEdition_Remastered_Guitar,6,5,umon_EnglishEdition,0.16236305236816406,0
59,100,0.3,409,1,6,DL_EnglishEdition_Remastered_Guitar,6,5,umon_EnglishEdition,0.19105800986289978,0
61,100,0.2409090909090909,792,1,6,DL_EnglishEdition_Remastered_Guitar,6,4,umon_EnglishEdition,0.26196619868278503,0
59,100,0.18181818181818182,289,1,7,DL_EnglishEdition_Remastered_Guitar,6,3,umon_EnglishEdition,0.9988439083099365,1
59,100,0.1409090909090909,360,0,7,DL_EnglishEdition_Remastered_Guitar,6,2,umon_EnglishEdition,0.13798008859157562,0
54,100,0.1590909090909091,572,0,7,DL_EnglishEdition_Remastered_Guitar,6,3,umon_EnglishEdition,0.16236430406570435,0
59,100,0.11818181818181818,734,0,7,DL_EnglishEdition_Remastered_Guitar,6,2,umon_EnglishEdition,0.1910543441772461,0
59,100,0.1590909090909091,778,0,7,DL_EnglishEdition_Remastered_Guitar,6,3,umon_EnglishEdition,0.2619667053222656,0
54,100,0.2409090909090909,3,1,8,DL_EnglishEdition_Remastered_Guitar,6,4,umon_EnglishEdition,0.9986506104469299,1
54,100,0.7,206,0,8,DL_EnglishEdition_Remastered_Guitar,6,11,umon_EnglishEdition,0.08797789365053177,0
66,100,0.2409090909090909,378,0,8,DL_EnglishEdition_Remastered_Guitar,6,4,umon_EnglishEdition,0.09297999739646912,0
59,100,0.3409090909090909,453,0,8,DL_EnglishEdition_Remastered_Guitar,6,5,umon_EnglishEdition,0.10994497686624527,0
59,100,0.11818181818181818,589,0,8,DL_EnglishEdition_Remastered_Guitar,6,2,umon_EnglishEdition,0.12866482138633728,0
59,100,0.1,682,0,8,DL_EnglishEdition_Remastered_Guitar,6,2,umon_EnglishEdition,0.18221542239189148,0
52,100,0.5,245,1,9,DL_EnglishEdition_Remastered_Guitar,6,8,umon_EnglishEdition,0.9988439083099365,1
54,100,0.11818181818181818,374,0,9,DL_EnglishEdition_Remastered_Guitar,6,2,umon_EnglishEdition,0.13798217475414276,0
52,100,0.1590909090909091,519,0,9,DL_EnglishEdition_Remastered_Guitar,6,3,umon_EnglishEdition,0.1623668670654297,0
57,100,0.1,620,0,9,DL_EnglishEdition_Remastered_Guitar,6,2,umon_EnglishEdition,0.1910584419965744,0
57,100,0.5590909090909091,677,0,9,DL_EnglishEdition_Remastered_Guitar,6,9,umon_EnglishEdition,0.2619699537754059,0
61,100,0.18181818181818182,268,1,10,DL_EnglishEdition_Remastered_Guitar,6,3,umon_EnglishEdition,0.9988439083099365,1
59,100,0.1590909090909091,395,0,10,DL_EnglishEdition_Remastered_Guitar,6,3,umon_EnglishEdition,0.1379804015159607,0
59,100,0.1590909090909091,457,0,10,DL_EnglishEdition_Remastered_Guitar,6,3,umon_EnglishEdition,0.16236358880996704,0
59,100,0.38181818181818183,532,0,10,DL_EnglishEdition_Remastered_Guitar,6,6,umon_EnglishEdition,0.19105327129364014,0
59,100,0.5409090909090909,795,1,10,DL_EnglishEdition_Remastered_Guitar,6,9,umon_EnglishEdition,0.26195812225341797,0
59,100,0.2409090909090909,110,1,11,DL_EnglishEdition_Remastered_Guitar,6,4,umon_EnglishEdition,0.9990094900131226,1
52,100,0.2590909090909091,364,1,11,DL_EnglishEdition_Remastered_Guitar,6,4,umon_EnglishEdition,0.23322804272174835,0
54,100,0.1590909090909091,436,0,11,DL_EnglishEdition_Remastered_Guitar,6,3,umon_EnglishEdition,0.2705806791782379,0
59,100,0.4,470,0,11,DL_EnglishEdition_Remastered_Guitar,6,6,umon_EnglishEdition,0.35792481899261475,0
52,100,0.6409090909090909,87,1,12,DL_EnglishEdition_Remastered_Guitar,6,10,umon_EnglishEdition,0.9984879493713379,1
59,100,0.1,242,0,12,DL_EnglishEdition_Remastered_Guitar,6,2,umon_EnglishEdition,0.06335330009460449,0
59,100,0.2636363636363636,268,0,12,DL_EnglishEdition_Remastered_Guitar,6,4,umon_EnglishEdition,0.05828862637281418,0
59,100,0.37727272727272726,347,0,12,DL_EnglishEdition_Remastered_Guitar,6,6,umon_EnglishEdition,0.06136022135615349,0
64,100,0.1,620,1,12,DL_EnglishEdition_Remastered_Guitar,6,2,umon_EnglishEdition,0.07168172299861908,0
59,100,0.41818181818181815,656,0,12,DL_EnglishEdition_Remastered_Guitar,6,7,umon_EnglishEdition,0.08473314344882965,0
59,100,0.8772727272727273,866,0,12,DL_EnglishEdition_Remastered_Guitar,6,14,umon_EnglishEdition,0.12634868919849396,0
54,100,0.11818181818181818,194,1,13,DL_EnglishEdition_Remastered_Guitar,6,2,umon_EnglishEdition,0.9983232617378235,1
54,100,0.2772727272727273,250,0,13,DL_EnglishEdition_Remastered_Guitar,6,4,umon_EnglishEdition,0.5462145805358887,1
59,100,0.5409090909090909,496,1,14,DL_EnglishEdition_Remastered_Guitar,6,9,umon_EnglishEdition,0.9990280866622925,1
59,100,0.41818181818181815,660,0,14,DL_EnglishEdition_Remastered_Guitar,6,7,umon_EnglishEdition,0.37033817172050476,0
59,100,0.1409090909090909,756,0,14,DL_EnglishEdition_Remastered_Guitar,6,2,umon_EnglishEdition,0.45616981387138367,0
54,100,0.8409090909090909,113,1,15,DL_EnglishEdition_Remastered_Guitar,6,13,umon_EnglishEdition,0.9988439083099365,1
54,100,0.22272727272727272,333,0,15,DL_EnglishEdition_Remastered_Guitar,6,4,umon_EnglishEdition,0.13797830045223236,0
61,100,0.17727272727272728,426,0,15,DL_EnglishEdition_Remastered_Guitar,6,3,umon_EnglishEdition,0.16236142814159393,0
59,100,0.35909090909090907,501,0,15,DL_EnglishEdition_Remastered_Guitar,6,6,umon_EnglishEdition,0.19105231761932373,0
59,100,0.42272727272727273,673,0,15,DL_EnglishEdition_Remastered_Guitar,6,7,umon_EnglishEdition,0.26196035742759705,0
54,100,0.1590909090909091,175,1,16,DL_EnglishEdition_Remastered_Guitar,6,3,umon_EnglishEdition,0.9990280866622925,1
59,100,0.2409090909090909,594,1,16,DL_EnglishEdition_Remastered_Guitar,6,4,umon_EnglishEdition,0.37033385038375854,0
54,100,0.2590909090909091,677,0,16,DL_EnglishEdition_Remastered_Guitar,6,4,umon_EnglishEdition,0.4561655521392822,0
54,100,0.2,326,1,17,DL_EnglishEdition_Remastered_Guitar,6,3,umon_EnglishEdition,0.9984879493713379,1
54,100,0.2,457,0,17,DL_EnglishEdition_Remastered_Guitar,6,3,umon_EnglishEdition,0.06335406005382538,0
61,100,0.12272727272727273,509,0,17,DL_EnglishEdition_Remastered_Guitar,6,2,umon_EnglishEdition,0.0582873672246933,0
61,100,0.42272727272727273,540,0,17,DL_EnglishEdition_Remastered_Guitar,6,7,umon_EnglishEdition,0.06136106327176094,0
54,100,0.5772727272727273,646,0,17,DL_EnglishEdition_Remastered_Guitar,6,9,umon_EnglishEdition,0.07167945057153702,0
59,100,0.11818181818181818,835,0,17,DL_EnglishEdition_Remastered_Guitar,6,2,umon_EnglishEdition,0.0847330242395401,0
52,100,0.1,866,0,17,DL_EnglishEdition_Remastered_Guitar,6,2,umon_EnglishEdition,0.12634910643100739,0
59,100,0.5590909090909091,21,1,18,DL_EnglishEdition_Remastered_Guitar,6,9,umon_EnglishEdition,0.9988439083099365,1
59,100,1.059090909090909,193,0,18,DL_EnglishEdition_Remastered_Guitar,6,15,umon_EnglishEdition,0.13797546923160553,0
59,100,0.2,515,1,18,DL_EnglishEdition_Remastered_Guitar,6,3,umon_EnglishEdition,0.16235966980457306,0
59,100,0.1590909090909091,677,0,18,DL_EnglishEdition_Remastered_Guitar,6,3,umon_EnglishEdition,0.19105082750320435,0
54,100,0.4590909090909091,814,0,18,DL_EnglishEdition_Remastered_Guitar,6,7,umon_EnglishEdition,0.2619566023349762,0
59,100,0.32272727272727275,113,1,19,DL_EnglishEdition_Remastered_Guitar,6,5,umon_EnglishEdition,0.9986506104469299,1
59,100,0.2,395,1,19,DL_EnglishEdition_Remastered_Guitar,6,3,umon_EnglishEdition,0.08797895908355713,0
54,100,0.1,461,0,19,DL_EnglishEdition_Remastered_Guitar,6,2,umon_EnglishEdition,0.09298265725374222,0
54,100,0.1,646,0,19,DL_EnglishEdition_Remastered_Guitar,6,2,umon_EnglishEdition,0.10994607955217361,0
59,100,0.4,770,0,19,DL_EnglishEdition_Remastered_Guitar,6,6,umon_EnglishEdition,0.12866875529289246,0
54,100,0.22272727272727272,862,0,19,DL_EnglishEdition_Remastered_Guitar,6,4,umon_EnglishEdition,0.1822173297405243,0
59,100,0.11818181818181818,65,1,20,DL_EnglishEdition_Remastered_Guitar,6,2,umon_EnglishEdition,0.9986506104469299,1
54,100,0.2409090909090909,110,0,20,DL_EnglishEdition_Remastered_Guitar,6,4,umon_EnglishEdition,0.08797881007194519,0
59,100,0.2818181818181818,220,0,20,DL_EnglishEdition_Remastered_Guitar,6,5,umon_EnglishEdition,0.09298325330018997,0
59,100,0.21818181818181817,360,0,20,DL_EnglishEdition_Remastered_Guitar,6,3,umon_EnglishEdition,0.10994657874107361,0
59,100,0.8818181818181818,430,0,20,DL_EnglishEdition_Remastered_Guitar,6,14,umon_EnglishEdition,0.12866850197315216,0
52,100,0.2636363636363636,773,1,20,DL_EnglishEdition_Remastered_Guitar,6,4,umon_EnglishEdition,0.18221968412399292,0
52,100,0.2,9,1,21,DL_EnglishEdition_Remastered_Guitar,6,3,umon_EnglishEdition,0.9986506104469299,1
52,100,0.2818181818181818,65,0,21,DL_EnglishEdition_Remastered_Guitar,6,5,umon_EnglishEdition,0.08798006922006607,0
54,100,0.1409090909090909,154,0,21,DL_EnglishEdition_Remastered_Guitar,6,2,umon_EnglishEdition,0.09298265725374222,0
54,100,0.11818181818181818,480,1,21,DL_EnglishEdition_Remastered_Guitar,6,2,umon_EnglishEdition,0.10995131731033325,0
59,100,0.18181818181818182,708,0,21,DL_EnglishEdition_Remastered_Guitar,6,3,umon_EnglishEdition,0.12866836786270142,0
59,100,0.2590909090909091,866,0,21,DL_EnglishEdition_Remastered_Guitar,6,4,umon_EnglishEdition,0.1822163611650467,0
54,100,0.1,100,1,22,DL_EnglishEdition_Remastered_Guitar,6,2,umon_EnglishEdition,0.9984880685806274,1
59,100,0.1409090909090909,179,0,22,DL_EnglishEdition_Remastered_Guitar,6,2,umon_EnglishEdition,0.06335363537073135,0
54,100,0.8,237,0,22,DL_EnglishEdition_Remastered_Guitar,6,13,umon_EnglishEdition,0.058289021253585815,0
54,100,0.6590909090909091,426,0,22,DL_EnglishEdition_Remastered_Guitar,6,11,umon_EnglishEdition,0.06136317923665047,0
66,100,0.11818181818181818,581,0,22,DL_EnglishEdition_Remastered_Guitar,6,2,umon_EnglishEdition,0.07168387621641159,0
59,100,0.4,611,0,22,DL_EnglishEdition_Remastered_Guitar,6,6,umon_EnglishEdition,0.08473629504442215,0
59,100,0.1590909090909091,725,0,22,DL_EnglishEdition_Remastered_Guitar,6,3,umon_EnglishEdition,0.12635189294815063,0
64,100,0.1,193,1,23,DL_EnglishEdition_Remastered_Guitar,6,2,umon_EnglishEdition,0.9986506104469299,1
52,100,0.2818181818181818,268,0,23,DL_EnglishEdition_Remastered_Guitar,6,5,umon_EnglishEdition,0.08798009157180786,0
59,100,0.1409090909090909,387,0,23,DL_EnglishEdition_Remastered_Guitar,6,2,umon_EnglishEdition,0.09298563003540039,0
52,100,0.4409090909090909,484,0,23,DL_EnglishEdition_Remastered_Guitar,6,7,umon_EnglishEdition,0.10995131731033325,0
54,100,0.41818181818181815,602,0,23,DL_EnglishEdition_Remastered_Guitar,6,7,umon_EnglishEdition,0.1286742091178894,0
54,100,0.1590909090909091,814,0,23,DL_EnglishEdition_Remastered_Guitar,6,3,umon_EnglishEdition,0.1822240650653839,0
52,100,0.1,34,1,24,DL_EnglishEdition_Remastered_Guitar,6,2,umon_EnglishEdition,0.9986506104469299,1
59,100,0.2409090909090909,382,1,24,DL_EnglishEdition_Remastered_Guitar,6,4,umon_EnglishEdition,0.08797664940357208,0
59,100,0.2409090909090909,440,0,24,DL_EnglishEdition_Remastered_Guitar,6,4,umon_EnglishEdition,0.09298381954431534,0
59,100,0.5636363636363636,619,0,24,DL_EnglishEdition_Remastered_Guitar,6,9,umon_EnglishEdition,0.10994413495063782,0
59,100,0.2,773,0,24,DL_EnglishEdition_Remastered_Guitar,6,3,umon_EnglishEdition,0.1286684274673462,0
59,100,0.4590909090909091,827,0,24,DL_EnglishEdition_Remastered_Guitar,6,7,umon_EnglishEdition,0.1822158247232437,0
59,100,0.2772727272727273,52,1,25,DL_EnglishEdition_Remastered_Guitar,6,4,umon_EnglishEdition,0.9986506104469299,1
63,100,0.2590909090909091,216,0,25,DL_EnglishEdition_Remastered_Guitar,6,4,umon_EnglishEdition,0.08798043429851532,0
59,100,0.6,272,0,25,DL_EnglishEdition_Remastered_Guitar,6,10,umon_EnglishEdition,0.09298515319824219,0
59,100,0.6,409,0,25,DL_EnglishEdition_Remastered_Guitar,6,10,umon_EnglishEdition,0.10995108634233475,0
59,100,0.5,686,1,25,DL_EnglishEdition_Remastered_Guitar,6,8,umon_EnglishEdition,0.12867440283298492,0
54,100,0.2636363636363636,796,0,25,DL_EnglishEdition_Remastered_Guitar,6,4,umon_EnglishEdition,0.1822243183851242,0
54,100,0.4,52,1,26,DL_EnglishEdition_Remastered_Guitar,6,6,umon_EnglishEdition,0.9990094900131226,1
52,100,0.4,241,0,26,DL_EnglishEdition_Remastered_Guitar,6,6,umon_EnglishEdition,0.23323369026184082,0
52,100,0.6772727272727272,382,0,26,DL_EnglishEdition_Remastered_Guitar,6,11,umon_EnglishEdition,0.2705826759338379,0
59,100,0.3181818181818182,700,1,26,DL_EnglishEdition_Remastered_Guitar,6,5,umon_EnglishEdition,0.3579351007938385,0
59,100,0.4590909090909091,100,1,27,DL_EnglishEdition_Remastered_Guitar,6,7,umon_EnglishEdition,0.9990280866622925,1
59,100,0.5590909090909091,216,0,27,DL_EnglishEdition_Remastered_Guitar,6,9,umon_EnglishEdition,0.37034130096435547,0
59,100,0.6227272727272727,773,1,27,DL_EnglishEdition_Remastered_Guitar,6,10,umon_EnglishEdition,0.4561699628829956,0
59,100,0.35909090909090907,65,1,28,DL_EnglishEdition_Remastered_Guitar,6,6,umon_EnglishEdition,0.9983232617378235,1
59,100,0.1409090909090909,791,1,28,DL_EnglishEdition_Remastered_Guitar,6,2,umon_EnglishEdition,0.546209454536438,1
59,100,0.16363636363636364,26,1,29,DL_EnglishEdition_Remastered_Guitar,6,3,umon_EnglishEdition,0.9990280866622925,1
52,100,0.21818181818181817,154,0,29,DL_EnglishEdition_Remastered_Guitar,6,3,umon_EnglishEdition,0.37033596634864807,0
52,100,0.2590909090909091,206,0,29,DL_EnglishEdition_Remastered_Guitar,6,4,umon_EnglishEdition,0.456171452999115,0
54,100,0.6363636363636364,61,1,30,DL_EnglishEdition_Remastered_Guitar,6,10,umon_EnglishEdition,0.9983232617378235,1
56,100,0.3409090909090909,739,1,30,DL_EnglishEdition_Remastered_Guitar,6,5,umon_EnglishEdition,0.5462129712104797,1
52,100,0.2590909090909091,272,1,31,DL_EnglishEdition_Remastered_Guitar,6,4,umon_EnglishEdition,0.9983232617378235,1
59,100,0.11818181818181818,501,0,31,DL_EnglishEdition_Remastered_Guitar,6,2,umon_EnglishEdition,0.5462169051170349,1
59,100,0.12272727272727273,34,1,32,DL_EnglishEdition_Remastered_Guitar,6,2,umon_EnglishEdition,0.9988439083099365,1
59,100,0.2409090909090909,141,0,32,DL_EnglishEdition_Remastered_Guitar,6,4,umon_EnglishEdition,0.13797855377197266,0
61,100,0.22272727272727272,276,0,32,DL_EnglishEdition_Remastered_Guitar,6,4,umon_EnglishEdition,0.16235986351966858,0
54,100,0.4409090909090909,364,0,32,DL_EnglishEdition_Remastered_Guitar,6,7,umon_EnglishEdition,0.19105394184589386,0
54,100,0.6409090909090909,518,0,32,DL_EnglishEdition_Remastered_Guitar,6,10,umon_EnglishEdition,0.2619642913341522,0
61,100,0.2,128,1,33,DL_EnglishEdition_Remastered_Guitar,6,3,umon_EnglishEdition,0.9983735084533691,1
61,100,0.11818181818181818,193,0,33,DL_EnglishEdition_Remastered_Guitar,6,2,umon_EnglishEdition,0.05104925483465195,0
61,100,0.3,295,0,33,DL_EnglishEdition_Remastered_Guitar,6,5,umon_EnglishEdition,0.04161110147833824,0
59,100,0.22272727272727272,509,0,33,DL_EnglishEdition_Remastered_Guitar,6,4,umon_EnglishEdition,0.03798054903745651,0
59,100,0.4818181818181818,563,0,33,DL_EnglishEdition_Remastered_Guitar,6,8,umon_EnglishEdition,0.03925952687859535,0
59,100,0.23636363636363636,700,0,33,DL_EnglishEdition_Remastered_Guitar,6,4,umon_EnglishEdition,0.04616640508174896,0
52,100,0.1590909090909091,761,0,33,DL_EnglishEdition_Remastered_Guitar,6,3,umon_EnglishEdition,0.05713183432817459,0
59,100,0.4818181818181818,839,0,33,DL_EnglishEdition_Remastered_Guitar,6,8,umon_EnglishEdition,0.0918782576918602,0
59,100,0.6227272727272727,101,1,34,DL_EnglishEdition_Remastered_Guitar,6,10,umon_EnglishEdition,0.9988439083099365,1
54,100,0.3,325,0,34,DL_EnglishEdition_Remastered_Guitar,6,5,umon_EnglishEdition,0.1379832774400711,0
54,100,0.18181818181818182,681,1,34,DL_EnglishEdition_Remastered_Guitar,6,3,umon_EnglishEdition,0.16236642003059387,0
54,100,0.4590909090909091,726,0,34,DL_EnglishEdition_Remastered_Guitar,6,7,umon_EnglishEdition,0.19105415046215057,0
54,100,0.2590909090909091,831,0,34,DL_EnglishEdition_Remastered_Guitar,6,4,umon_EnglishEdition,0.2619650363922119,0
54,100,0.3409090909090909,13,1,35,DL_EnglishEdition_Remastered_Guitar,6,5,umon_EnglishEdition,0.9983736276626587,1
54,100,0.2818181818181818,166,0,35,DL_EnglishEdition_Remastered_Guitar,6,5,umon_EnglishEdition,0.051049333065748215,0
56,100,0.2,391,0,35,DL_EnglishEdition_Remastered_Guitar,6,3,umon_EnglishEdition,0.041610438376665115,0
59,100,0.2,458,0,35,DL_EnglishEdition_Remastered_Guitar,6,3,umon_EnglishEdition,0.037978220731019974,0
59,100,0.11818181818181818,536,0,35,DL_EnglishEdition_Remastered_Guitar,6,2,umon_EnglishEdition,0.03925805911421776,0
59,100,0.32272727272727275,641,0,35,DL_EnglishEdition_Remastered_Guitar,6,5,umon_EnglishEdition,0.046162061393260956,0
59,100,0.1409090909090909,751,0,35,DL_EnglishEdition_Remastered_Guitar,6,2,umon_EnglishEdition,0.05712918937206268,0
52,100,0.5818181818181818,871,0,35,DL_EnglishEdition_Remastered_Guitar,6,9,umon_EnglishEdition,0.09187698364257812,0
59,100,0.5590909090909091,150,1,36,DL_EnglishEdition_Remastered_Guitar,6,9,umon_EnglishEdition,0.9986506104469299,1
59,100,0.38181818181818183,286,0,36,DL_EnglishEdition_Remastered_Guitar,6,6,umon_EnglishEdition,0.08798019587993622,0
61,100,0.12272727272727273,466,0,36,DL_EnglishEdition_Remastered_Guitar,6,2,umon_EnglishEdition,0.09298519790172577,0
54,100,0.6363636363636364,655,0,36,DL_EnglishEdition_Remastered_Guitar,6,10,umon_EnglishEdition,0.10994955152273178,0
54,100,0.2409090909090909,818,0,36,DL_EnglishEdition_Remastered_Guitar,6,4,umon_EnglishEdition,0.12867294251918793,0
54,100,0.2590909090909091,875,0,36,DL_EnglishEdition_Remastered_Guitar,6,4,umon_EnglishEdition,0.18221840262413025,0
59,100,0.2,171,1,37,DL_EnglishEdition_Remastered_Guitar,6,3,umon_EnglishEdition,0.9988439083099365,1
54,100,0.1409090909090909,426,1,37,DL_EnglishEdition_Remastered_Guitar,6,2,umon_EnglishEdition,0.1379854530096054,0
54,100,0.38181818181818183,506,0,37,DL_EnglishEdition_Remastered_Guitar,6,6,umon_EnglishEdition,0.1623649299144745,0
54,100,0.3,603,0,37,DL_EnglishEdition_Remastered_Guitar,6,5,umon_EnglishEdition,0.1910524219274521,0
54,100,0.2,694,0,37,DL_EnglishEdition_Remastered_Guitar,6,3,umon_EnglishEdition,0.2619672417640686,0
54,100,0.1590909090909091,413,1,38,DL_EnglishEdition_Remastered_Guitar,6,3,umon_EnglishEdition,0.9983232617378235,1
54,100,0.6409090909090909,471,0,38,DL_EnglishEdition_Remastered_Guitar,6,10,umon_EnglishEdition,0.5462140440940857,1
59,100,0.18181818181818182,114,1,39,DL_EnglishEdition_Remastered_Guitar,6,3,umon_EnglishEdition,0.9988439083099365,1
52,100,0.2818181818181818,188,0,39,DL_EnglishEdition_Remastered_Guitar,6,5,umon_EnglishEdition,0.13798324763774872,0
59,100,0.6409090909090909,628,1,39,DL_EnglishEdition_Remastered_Guitar,6,10,umon_EnglishEdition,0.16236546635627747,0
59,100,0.13636363636363635,810,0,39,DL_EnglishEdition_Remastered_Guitar,6,2,umon_EnglishEdition,0.19106052815914154,0
54,100,0.1590909090909091,866,0,39,DL_EnglishEdition_Remastered_Guitar,6,3,umon_EnglishEdition,0.26197683811187744,0
52,100,0.12272727272727273,144,1,40,DL_EnglishEdition_Remastered_Guitar,6,2,umon_EnglishEdition,0.9988439083099365,1
54,100,0.2818181818181818,483,1,40,DL_EnglishEdition_Remastered_Guitar,6,5,umon_EnglishEdition,0.13798125088214874,0
54,100,0.21818181818181817,550,0,40,DL_EnglishEdition_Remastered_Guitar,6,3,umon_EnglishEdition,0.1623614877462387,0
59,100,0.1,641,0,40,DL_EnglishEdition_Remastered_Guitar,6,2,umon_EnglishEdition,0.19105593860149384,0
59,100,0.41818181818181815,853,0,40,DL_EnglishEdition_Remastered_Guitar,6,7,umon_EnglishEdition,0.26196515560150146,0
52,100,0.5181818181818182,308,1,41,DL_EnglishEdition_Remastered_Guitar,6,8,umon_EnglishEdition,0.9792241454124451,1
54,100,0.1409090909090909,88,1,42,DL_EnglishEdition_Remastered_Guitar,6,2,umon_EnglishEdition,0.9990280866622925,1
54,100,0.5227272727272727,276,0,42,DL_EnglishEdition_Remastered_Guitar,6,8,umon_EnglishEdition,0.3703434467315674,0
59,100,1.040909090909091,638,1,42,DL_EnglishEdition_Remastered_Guitar,6,15,umon_EnglishEdition,0.4561617374420166,0
54,100,0.4409090909090909,399,1,43,DL_EnglishEdition_Remastered_Guitar,6,7,umon_EnglishEdition,0.9990280866622925,1
52,100,0.7,509,0,43,DL_EnglishEdition_Remastered_Guitar,6,11,umon_EnglishEdition,0.3703360855579376,0
52,100,0.37727272727272726,823,1,43,DL_EnglishEdition_Remastered_Guitar,6,6,umon_EnglishEdition,0.45617225766181946,0
59,100,0.5181818181818182,413,1,44,DL_EnglishEdition_Remastered_Guitar,6,8,umon_EnglishEdition,0.9990280866622925,1
59,100,0.11818181818181818,593,0,44,DL_EnglishEdition_Remastered_Guitar,6,2,umon_EnglishEdition,0.3703290522098541,0
59,100,0.13636363636363635,633,0,44,DL_EnglishEdition_Remastered_Guitar,6,2,umon_EnglishEdition,0.4561709463596344,0
59,100,0.3409090909090909,220,1,45,DL_EnglishEdition_Remastered_Guitar,6,5,umon_EnglishEdition,0.9988439083099365,1
59,100,0.5181818181818182,303,0,45,DL_EnglishEdition_Remastered_Guitar,6,8,umon_EnglishEdition,0.13798034191131592,0
59,100,0.2772727272727273,501,0,45,DL_EnglishEdition_Remastered_Guitar,6,4,umon_EnglishEdition,0.16236451268196106,0
54,100,0.4,770,1,45,DL_EnglishEdition_Remastered_Guitar,6,6,umon_EnglishEdition,0.19105473160743713,0
54,100,0.1409090909090909,861,0,45,DL_EnglishEdition_Remastered_Guitar,6,2,umon_EnglishEdition,0.26196664571762085,0
54,100,0.16363636363636364,224,1,46,DL_EnglishEdition_Remastered_Guitar,6,3,umon_EnglishEdition,0.9990094900131226,1
59,100,0.5818181818181818,364,0,46,DL_EnglishEdition_Remastered_Guitar,6,9,umon_EnglishEdition,0.2332250326871872,0
54,100,0.2,673,1,46,DL_EnglishEdition_Remastered_Guitar,6,3,umon_EnglishEdition,0.27057868242263794,0
59,100,0.2772727272727273,823,0,46,DL_EnglishEdition_Remastered_Guitar,6,4,umon_EnglishEdition,0.35792702436447144,0
59,100,0.2409090909090909,53,1,47,DL_EnglishEdition_Remastered_Guitar,6,4,umon_EnglishEdition,0.9986506104469299,1
66,100,0.17727272727272728,448,1,47,DL_EnglishEdition_Remastered_Guitar,6,3,umon_EnglishEdition,0.08797888457775116,0
54,100,0.2818181818181818,506,0,47,DL_EnglishEdition_Remastered_Guitar,6,5,umon_EnglishEdition,0.0929814875125885,0
59,100,0.2409090909090909,584,0,47,DL_EnglishEdition_Remastered_Guitar,6,4,umon_EnglishEdition,0.1099463701248169,0
59,100,0.5181818181818182,735,0,47,DL_EnglishEdition_Remastered_Guitar,6,8,umon_EnglishEdition,0.12866617739200592,0
54,100,0.23636363636363636,853,0,47,DL_EnglishEdition_Remastered_Guitar,6,4,umon_EnglishEdition,0.18221965432167053,0
59,100,1.0,31,1,48,DL_EnglishEdition_Remastered_Guitar,6,15,umon_EnglishEdition,0.9983231425285339,1
59,100,0.2409090909090909,748,1,48,DL_EnglishEdition_Remastered_Guitar,6,4,umon_EnglishEdition,0.5462179780006409,1
59,100,0.13636363636363635,150,1,49,DL_EnglishEdition_Remastered_Guitar,6,2,umon_EnglishEdition,0.9986506104469299,1
54,100,0.3,215,0,49,DL_EnglishEdition_Remastered_Guitar,6,5,umon_EnglishEdition,0.08797779679298401,0
54,100,0.21818181818181817,286,0,49,DL_EnglishEdition_Remastered_Guitar,6,3,umon_EnglishEdition,0.09298398345708847,0
59,100,0.4772727272727273,568,1,49,DL_EnglishEdition_Remastered_Guitar,6,8,umon_EnglishEdition,0.10994675010442734,0
59,100,0.17727272727272728,678,0,49,DL_EnglishEdition_Remastered_Guitar,6,3,umon_EnglishEdition,0.12866848707199097,0
59,100,0.3,774,0,49,DL_EnglishEdition_Remastered_Guitar,6,5,umon_EnglishEdition,0.18222057819366455,0
59,100,0.18181818181818182,48,1,50,DL_EnglishEdition_Remastered_Guitar,6,3,umon_EnglishEdition,0.9990094900131226,1
59,100,0.5818181818181818,364,1,50,DL_EnglishEdition_Remastered_Guitar,6,9,umon_EnglishEdition,0.23322825133800507,0
59,100,0.17727272727272728,545,0,50,DL_EnglishEdition_Remastered_Guitar,6,3,umon_EnglishEdition,0.2705781161785126,0
59,100,0.7,735,0,50,DL_EnglishEdition_Remastered_Guitar,6,11,umon_EnglishEdition,0.3579230308532715,0
52,100,0.7818181818181819,26,1,51,DL_EnglishEdition_Remastered_Guitar,6,13,umon_EnglishEdition,0.9983232617378235,1
54,100,0.2590909090909091,783,1,51,DL_EnglishEdition_Remastered_Guitar,6,4,umon_EnglishEdition,0.5462177395820618,1
59,100,0.6409090909090909,26,1,52,DL_EnglishEdition_Remastered_Guitar,6,10,umon_EnglishEdition,0.9988439083099365,1
54,100,0.23636363636363636,171,0,52,DL_EnglishEdition_Remastered_Guitar,6,4,umon_EnglishEdition,0.13798415660858154,0
54,100,0.7181818181818181,308,0,52,DL_EnglishEdition_Remastered_Guitar,6,11,umon_EnglishEdition,0.16236093640327454,0
54,100,0.3409090909090909,681,1,52,DL_EnglishEdition_Remastered_Guitar,6,5,umon_EnglishEdition,0.191055029630661,0
59,100,0.11818181818181818,823,0,52,DL_EnglishEdition_Remastered_Guitar,6,2,umon_EnglishEdition,0.2619623839855194,0
59,100,0.11818181818181818,198,1,53,DL_EnglishEdition_Remastered_Guitar,6,2,umon_EnglishEdition,0.9990094900131226,1
52,100,0.4818181818181818,334,0,53,DL_EnglishEdition_Remastered_Guitar,6,8,umon_EnglishEdition,0.23322616517543793,0
54,100,0.3409090909090909,735,1,53,DL_EnglishEdition_Remastered_Guitar,6,5,umon_EnglishEdition,0.2705817222595215,0
59,100,0.5,875,0,53,DL_EnglishEdition_Remastered_Guitar,6,8,umon_EnglishEdition,0.35792413353919983,0
54,100,0.18181818181818182,110,1,54,DL_EnglishEdition_Remastered_Guitar,6,3,umon_EnglishEdition,0.9990094900131226,1
54,100,0.2590909090909091,153,0,54,DL_EnglishEdition_Remastered_Guitar,6,4,umon_EnglishEdition,0.23322772979736328,0
59,100,0.7,536,1,54,DL_EnglishEdition_Remastered_Guitar,6,11,umon_EnglishEdition,0.2705797255039215,0
54,100,0.2409090909090909,708,0,54,DL_EnglishEdition_Remastered_Guitar,6,4,umon_EnglishEdition,0.35792267322540283,0
59,100,0.2,78,1,55,DL_EnglishEdition_Remastered_Guitar,6,3,umon_EnglishEdition,0.9984879493713379,1
54,100,0.1,141,0,55,DL_EnglishEdition_Remastered_Guitar,6,2,umon_EnglishEdition,0.06335358321666718,0
54,100,0.2409090909090909,198,0,55,DL_EnglishEdition_Remastered_Guitar,6,4,umon_EnglishEdition,0.05829000100493431,0
66,100,0.2,373,0,55,DL_EnglishEdition_Remastered_Guitar,6,3,umon_EnglishEdition,0.06136147305369377,0
59,100,0.35909090909090907,536,0,55,DL_EnglishEdition_Remastered_Guitar,6,6,umon_EnglishEdition,0.07168145477771759,0
59,100,0.9590909090909091,651,0,55,DL_EnglishEdition_Remastered_Guitar,6,15,umon_EnglishEdition,0.08473244309425354,0
54,100,0.1,861,0,55,DL_EnglishEdition_Remastered_Guitar,6,2,umon_EnglishEdition,0.12635107338428497,0
54,100,0.35909090909090907,40,1,56,DL_EnglishEdition_Remastered_Guitar,6,6,umon_EnglishEdition,0.9988440275192261,1
54,100,0.5227272727272727,166,0,56,DL_EnglishEdition_Remastered_Guitar,6,8,umon_EnglishEdition,0.13798290491104126,0
56,100,0.21818181818181817,633,1,56,DL_EnglishEdition_Remastered_Guitar,6,3,umon_EnglishEdition,0.16236737370491028,0
56,100,0.33636363636363636,700,0,56,DL_EnglishEdition_Remastered_Guitar,6,5,umon_EnglishEdition,0.19105805456638336,0
56,100,0.5636363636363636,818,0,56,DL_EnglishEdition_Remastered_Guitar,6,9,umon_EnglishEdition,0.26196131110191345,0
63,100,0.2409090909090909,158,1,57,DL_EnglishEdition_Remastered_Guitar,6,4,umon_EnglishEdition,0.9990280866622925,1
56,100,0.1590909090909091,295,0,57,DL_EnglishEdition_Remastered_Guitar,6,3,umon_EnglishEdition,0.37033623456954956,0
59,100,0.42272727272727273,774,1,57,DL_EnglishEdition_Remastered_Guitar,6,7,umon_EnglishEdition,0.45618337392807007,0
54,100,0.1409090909090909,254,1,58,DL_EnglishEdition_Remastered_Guitar,6,2,umon_EnglishEdition,0.9990094900131226,1
54,100,0.16363636363636364,531,1,58,DL_EnglishEdition_Remastered_Guitar,6,3,umon_EnglishEdition,0.23323088884353638,0
54,100,0.22272727272727272,628,0,58,DL_EnglishEdition_Remastered_Guitar,6,4,umon_EnglishEdition,0.27058178186416626,0
54,100,0.1590909090909091,703,0,58,DL_EnglishEdition_Remastered_Guitar,6,3,umon_EnglishEdition,0.3579282760620117,0
59,100,0.21818181818181817,31,1,59,DL_EnglishEdition_Remastered_Guitar,6,3,umon_EnglishEdition,0.9986506104469299,1
59,100,0.2590909090909091,141,0,59,DL_EnglishEdition_Remastered_Guitar,6,4,umon_EnglishEdition,0.0879812017083168,0
59,100,0.4409090909090909,316,0,59,DL_EnglishEdition_Remastered_Guitar,6,7,umon_EnglishEdition,0.09298631548881531,0
66,100,0.3,531,0,59,DL_EnglishEdition_Remastered_Guitar,6,5,umon_EnglishEdition,0.10995494574308395,0
66,100,0.17727272727272728,603,0,59,DL_EnglishEdition_Remastered_Guitar,6,3,umon_EnglishEdition,0.12867534160614014,0
66,100,1.259090909090909,778,0,59,DL_EnglishEdition_Remastered_Guitar,6,15,umon_EnglishEdition,0.18222224712371826,0
61,100,0.5181818181818182,198,1,60,DL_EnglishEdition_Remastered_Guitar,6,8,umon_EnglishEdition,0.9986506104469299,1
66,100,0.21818181818181817,383,0,60,DL_EnglishEdition_Remastered_Guitar,6,3,umon_EnglishEdition,0.08797942101955414,0
61,100,0.6181818181818182,440,0,60,DL_EnglishEdition_Remastered_Guitar,6,10,umon_EnglishEdition,0.09298565983772278,0
54,100,0.2409090909090909,641,0,60,DL_EnglishEdition_Remastered_Guitar,6,4,umon_EnglishEdition,0.10994955152273178,0
64,100,0.12272727272727273,729,0,60,DL_EnglishEdition_Remastered_Guitar,6,2,umon_EnglishEdition,0.1286747306585312,0
66,100,0.5409090909090909,836,0,60,DL_EnglishEdition_Remastered_Guitar,6,9,umon_EnglishEdition,0.1822197139263153,0
66,100,0.5409090909090909,78,1,61,DL_EnglishEdition_Remastered_Guitar,6,9,umon_EnglishEdition,0.9986506104469299,1
66,100,0.2590909090909091,220,0,61,DL_EnglishEdition_Remastered_Guitar,6,4,umon_EnglishEdition,0.08798003941774368,0
59,100,0.1,325,0,61,DL_EnglishEdition_Remastered_Guitar,6,2,umon_EnglishEdition,0.09298422187566757,0
66,100,0.5590909090909091,474,0,61,DL_EnglishEdition_Remastered_Guitar,6,9,umon_EnglishEdition,0.10994618386030197,0
52,100,0.18181818181818182,606,0,61,DL_EnglishEdition_Remastered_Guitar,6,3,umon_EnglishEdition,0.1286710500717163,0
52,100,0.9409090909090909,871,1,61,DL_EnglishEdition_Remastered_Guitar,6,15,umon_EnglishEdition,0.18221646547317505,0
52,100,0.1409090909090909,211,1,62,DL_EnglishEdition_Remastered_Guitar,6,2,umon_EnglishEdition,0.9990280866622925,1
52,100,0.6,251,0,62,DL_EnglishEdition_Remastered_Guitar,6,10,umon_EnglishEdition,0.37034738063812256,0
59,100,0.6,641,1,62,DL_EnglishEdition_Remastered_Guitar,6,10,umon_EnglishEdition,0.4561697542667389,0
59,100,0.6,18,1,63,DL_EnglishEdition_Remastered_Guitar,6,10,umon_EnglishEdition,0.9990280866622925,1
54,100,0.1590909090909091,606,1,63,DL_EnglishEdition_Remastered_Guitar,6,3,umon_EnglishEdition,0.370345801115036,0
56,100,0.9818181818181818,694,0,63,DL_EnglishEdition_Remastered_Guitar,6,15,umon_EnglishEdition,0.45616599917411804,0
56,100,0.8409090909090909,66,1,64,DL_EnglishEdition_Remastered_Guitar,6,13,umon_EnglishEdition,0.9986506104469299,1
52,100,0.8818181818181818,320,1,64,DL_EnglishEdition_Remastered_Guitar,6,14,umon_EnglishEdition,0.08798084408044815,0
59,100,0.22272727272727272,519,0,64,DL_EnglishEdition_Remastered_Guitar,6,4,umon_EnglishEdition,0.09298515319824219,0
59,100,0.8590909090909091,590,0,64,DL_EnglishEdition_Remastered_Guitar,6,14,umon_EnglishEdition,0.10994851589202881,0
59,100,0.12272727272727273,817,0,64,DL_EnglishEdition_Remastered_Guitar,6,2,umon_EnglishEdition,0.12867501378059387,0
54,100,0.4409090909090909,857,0,64,DL_EnglishEdition_Remastered_Guitar,6,7,umon_EnglishEdition,0.18221497535705566,0
59,100,0.32272727272727275,157,1,65,DL_EnglishEdition_Remastered_Guitar,6,5,umon_EnglishEdition,0.9988439083099365,1
59,100,0.4409090909090909,255,0,65,DL_EnglishEdition_Remastered_Guitar,6,7,umon_EnglishEdition,0.13798436522483826,0
54,100,0.2,480,0,65,DL_EnglishEdition_Remastered_Guitar,6,3,umon_EnglishEdition,0.16236716508865356,0
54,100,0.12272727272727273,597,0,65,DL_EnglishEdition_Remastered_Guitar,6,2,umon_EnglishEdition,0.1910616010427475,0
54,100,0.5772727272727273,756,0,65,DL_EnglishEdition_Remastered_Guitar,6,9,umon_EnglishEdition,0.2619701325893402,0
54,100,0.5409090909090909,132,1,66,DL_EnglishEdition_Remastered_Guitar,6,9,umon_EnglishEdition,0.9984880685806274,1
54,100,0.23636363636363636,326,0,66,DL_EnglishEdition_Remastered_Guitar,6,4,umon_EnglishEdition,0.06335154175758362,0
54,100,0.2,396,0,66,DL_EnglishEdition_Remastered_Guitar,6,3,umon_EnglishEdition,0.05828697234392166,0
54,100,0.5181818181818182,527,0,66,DL_EnglishEdition_Remastered_Guitar,6,8,umon_EnglishEdition,0.061356473714113235,0
52,100,0.18181818181818182,660,0,66,DL_EnglishEdition_Remastered_Guitar,6,3,umon_EnglishEdition,0.07167799025774002,0
59,100,0.1409090909090909,726,0,66,DL_EnglishEdition_Remastered_Guitar,6,2,umon_EnglishEdition,0.0847286731004715,0
59,100,0.5181818181818182,779,0,66,DL_EnglishEdition_Remastered_Guitar,6,8,umon_EnglishEdition,0.12634550034999847,0
52,100,0.36363636363636365,47,1,67,DL_EnglishEdition_Remastered_Guitar,6,6,umon_EnglishEdition,0.9986506104469299,1
59,100,0.2,189,0,67,DL_EnglishEdition_Remastered_Guitar,6,3,umon_EnglishEdition,0.08797945827245712,0
54,100,0.18181818181818182,246,0,67,DL_EnglishEdition_Remastered_Guitar,6,3,umon_EnglishEdition,0.09298478811979294,0
54,100,0.17727272727272728,294,0,67,DL_EnglishEdition_Remastered_Guitar,6,3,umon_EnglishEdition,0.10995075851678848,0
54,100,0.22272727272727272,760,1,67,DL_EnglishEdition_Remastered_Guitar,6,4,umon_EnglishEdition,0.12867555022239685,0
54,100,0.3,823,0,67,DL_EnglishEdition_Remastered_Guitar,6,5,umon_EnglishEdition,0.1822216808795929,0
56,100,2.040909090909091,466,1,68,DL_EnglishEdition_Remastered_Guitar,6,15,umon_EnglishEdition,0.9792222380638123,1
54,100,0.13636363636363635,40,1,69,DL_EnglishEdition_Remastered_Guitar,6,2,umon_EnglishEdition,0.9984880685806274,1
52,100,1.7181818181818183,110,0,69,DL_EnglishEdition_Remastered_Guitar,6,15,umon_EnglishEdition,0.06335174292325974,0
52,100,0.1590909090909091,527,1,69,DL_EnglishEdition_Remastered_Guitar,6,3,umon_EnglishEdition,0.058289650827646255,0
54,100,0.1590909090909091,616,0,69,DL_EnglishEdition_Remastered_Guitar,6,3,umon_EnglishEdition,0.061362024396657944,0
54,100,0.2772727272727273,677,0,69,DL_EnglishEdition_Remastered_Guitar,6,4,umon_EnglishEdition,0.07168494164943695,0
61,100,0.12272727272727273,752,0,69,DL_EnglishEdition_Remastered_Guitar,6,2,umon_EnglishEdition,0.08473404496908188,0
61,100,0.35909090909090907,783,0,69,DL_EnglishEdition_Remastered_Guitar,6,6,umon_EnglishEdition,0.1263503134250641,0
54,100,0.6590909090909091,9,1,70,DL_EnglishEdition_Remastered_Guitar,6,11,umon_EnglishEdition,0.9986506104469299,1
59,100,0.16363636363636364,179,0,70,DL_EnglishEdition_Remastered_Guitar,6,3,umon_EnglishEdition,0.08797953277826309,0
59,100,0.1,453,1,70,DL_EnglishEdition_Remastered_Guitar,6,2,umon_EnglishEdition,0.09298434853553772,0
54,100,0.3,590,0,70,DL_EnglishEdition_Remastered_Guitar,6,5,umon_EnglishEdition,0.10994944721460342,0
54,100,0.2409090909090909,739,0,70,DL_EnglishEdition_Remastered_Guitar,6,4,umon_EnglishEdition,0.12867479026317596,0
52,100,1.7818181818181817,796,0,70,DL_EnglishEdition_Remastered_Guitar,6,15,umon_EnglishEdition,0.1822175532579422,0
52,100,0.2590909090909091,316,1,71,DL_EnglishEdition_Remastered_Guitar,6,4,umon_EnglishEdition,0.9990094900131226,1
52,100,0.740909090909091,399,0,71,DL_EnglishEdition_Remastered_Guitar,6,12,umon_EnglishEdition,0.23322752118110657,0
52,100,0.4409090909090909,597,0,71,DL_EnglishEdition_Remastered_Guitar,6,7,umon_EnglishEdition,0.27057981491088867,0
52,100,0.6181818181818182,713,0,71,DL_EnglishEdition_Remastered_Guitar,6,10,umon_EnglishEdition,0.35793378949165344,0
54,100,0.1,210,1,72,DL_EnglishEdition_Remastered_Guitar,6,2,umon_EnglishEdition,0.9988440275192261,1
59,100,0.17727272727272728,457,1,72,DL_EnglishEdition_Remastered_Guitar,6,3,umon_EnglishEdition,0.1379823386669159,0
59,100,0.2,509,0,72,DL_EnglishEdition_Remastered_Guitar,6,3,umon_EnglishEdition,0.16236509382724762,0
54,100,0.4590909090909091,612,0,72,DL_EnglishEdition_Remastered_Guitar,6,7,umon_EnglishEdition,0.19105614721775055,0
54,100,0.1590909090909091,716,0,72,DL_EnglishEdition_Remastered_Guitar,6,3,umon_EnglishEdition,0.26196587085723877,0
54,100,0.2818181818181818,166,1,73,DL_EnglishEdition_Remastered_Guitar,6,5,umon_EnglishEdition,0.9990094900131226,1
56,100,0.6409090909090909,242,0,73,DL_EnglishEdition_Remastered_Guitar,6,10,umon_EnglishEdition,0.23322920501232147,0
56,100,0.7818181818181819,506,1,73,DL_EnglishEdition_Remastered_Guitar,6,13,umon_EnglishEdition,0.27057236433029175,0
52,100,0.1590909090909091,770,1,73,DL_EnglishEdition_Remastered_Guitar,6,3,umon_EnglishEdition,0.3579238951206207,0
59,100,0.11818181818181818,30,1,74,DL_EnglishEdition_Remastered_Guitar,6,2,umon_EnglishEdition,0.9984880685806274,1
52,100,0.3409090909090909,153,0,74,DL_EnglishEdition_Remastered_Guitar,6,5,umon_EnglishEdition,0.06335287541151047,0
52,100,0.1,233,0,74,DL_EnglishEdition_Remastered_Guitar,6,2,umon_EnglishEdition,0.05829048529267311,0
59,100,0.12272727272727273,255,0,74,DL_EnglishEdition_Remastered_Guitar,6,2,umon_EnglishEdition,0.06136399880051613,0
52,100,0.2,303,0,74,DL_EnglishEdition_Remastered_Guitar,6,3,umon_EnglishEdition,0.07168427854776382,0
54,100,0.2590909090909091,783,1,74,DL_EnglishEdition_Remastered_Guitar,6,4,umon_EnglishEdition,0.08473920077085495,0
54,100,0.17727272727272728,876,0,74,DL_EnglishEdition_Remastered_Guitar,6,3,umon_EnglishEdition,0.12635914981365204,0
54,100,0.5227272727272727,56,1,75,DL_EnglishEdition_Remastered_Guitar,6,8,umon_EnglishEdition,0.9986506104469299,1
54,100,0.3,202,0,75,DL_EnglishEdition_Remastered_Guitar,6,5,umon_EnglishEdition,0.08797953277826309,0
54,100,0.18181818181818182,289,0,75,DL_EnglishEdition_Remastered_Guitar,6,3,umon_EnglishEdition,0.0929843857884407,0
54,100,0.2772727272727273,404,0,75,DL_EnglishEdition_Remastered_Guitar,6,4,umon_EnglishEdition,0.10994991660118103,0
54,100,0.7181818181818181,572,0,75,DL_EnglishEdition_Remastered_Guitar,6,11,umon_EnglishEdition,0.12866812944412231,0
54,100,0.4409090909090909,849,1,75,DL_EnglishEdition_Remastered_Guitar,6,7,umon_EnglishEdition,0.18221788108348846,0
54,100,0.5,92,1,76,DL_EnglishEdition_Remastered_Guitar,6,8,umon_EnglishEdition,0.9986507296562195,1
59,100,0.4590909090909091,242,0,76,DL_EnglishEdition_Remastered_Guitar,6,7,umon_EnglishEdition,0.08797886967658997,0
54,100,0.2409090909090909,365,0,76,DL_EnglishEdition_Remastered_Guitar,6,4,umon_EnglishEdition,0.0929834246635437,0
54,100,0.5181818181818182,436,0,76,DL_EnglishEdition_Remastered_Guitar,6,8,umon_EnglishEdition,0.10994762182235718,0
59,100,0.4818181818181818,629,0,76,DL_EnglishEdition_Remastered_Guitar,6,8,umon_EnglishEdition,0.12866725027561188,0
54,100,0.22272727272727272,739,0,76,DL_EnglishEdition_Remastered_Guitar,6,4,umon_EnglishEdition,0.1822153776884079,0
59,100,0.3181818181818182,17,1,77,DL_EnglishEdition_Remastered_Guitar,6,5,umon_EnglishEdition,0.9984880685806274,1
59,100,0.13636363636363635,216,0,77,DL_EnglishEdition_Remastered_Guitar,6,2,umon_EnglishEdition,0.06335434317588806,0
54,100,0.12272727272727273,255,0,77,DL_EnglishEdition_Remastered_Guitar,6,2,umon_EnglishEdition,0.058290090411901474,0
54,100,0.11818181818181818,303,0,77,DL_EnglishEdition_Remastered_Guitar,6,2,umon_EnglishEdition,0.061361443251371384,0
52,100,0.6,383,0,77,DL_EnglishEdition_Remastered_Guitar,6,10,umon_EnglishEdition,0.07168237119913101,0
59,100,0.12272727272727273,540,0,77,DL_EnglishEdition_Remastered_Guitar,6,2,umon_EnglishEdition,0.08473862707614899,0
52,100,0.9181818181818182,637,0,77,DL_EnglishEdition_Remastered_Guitar,6,15,umon_EnglishEdition,0.12635168433189392,0
54,100,0.21818181818181817,150,1,78,DL_EnglishEdition_Remastered_Guitar,6,3,umon_EnglishEdition,0.9988439083099365,1
59,100,0.4,250,0,78,DL_EnglishEdition_Remastered_Guitar,6,6,umon_EnglishEdition,0.13798075914382935,0
54,100,0.2818181818181818,475,0,78,DL_EnglishEdition_Remastered_Guitar,6,5,umon_EnglishEdition,0.16236373782157898,0
59,100,0.8363636363636363,612,0,78,DL_EnglishEdition_Remastered_Guitar,6,13,umon_EnglishEdition,0.19105039536952972,0
54,100,0.18181818181818182,817,0,78,DL_EnglishEdition_Remastered_Guitar,6,3,umon_EnglishEdition,0.2619641125202179,0
54,100,0.11818181818181818,119,1,79,DL_EnglishEdition_Remastered_Guitar,6,2,umon_EnglishEdition,0.9984880685806274,1
54,100,0.2772727272727273,193,0,79,DL_EnglishEdition_Remastered_Guitar,6,4,umon_EnglishEdition,0.06335154175758362,0
59,100,0.2409090909090909,263,0,79,DL_EnglishEdition_Remastered_Guitar,6,4,umon_EnglishEdition,0.058286987245082855,0
54,100,0.1409090909090909,320,0,79,DL_EnglishEdition_Remastered_Guitar,6,2,umon_EnglishEdition,0.06136098504066467,0
54,100,0.3409090909090909,365,0,79,DL_EnglishEdition_Remastered_Guitar,6,5,umon_EnglishEdition,0.07167881727218628,0
59,100,0.17727272727272728,449,0,79,DL_EnglishEdition_Remastered_Guitar,6,3,umon_EnglishEdition,0.08473224937915802,0
59,100,0.4636363636363636,729,1,79,DL_EnglishEdition_Remastered_Guitar,6,7,umon_EnglishEdition,0.12634986639022827,0
52,100,0.6409090909090909,79,1,80,DL_EnglishEdition_Remastered_Guitar,6,10,umon_EnglishEdition,0.9990094900131226,1
52,100,0.2818181818181818,409,1,80,DL_EnglishEdition_Remastered_Guitar,6,5,umon_EnglishEdition,0.23322854936122894,0
54,100,0.3181818181818182,747,1,80,DL_EnglishEdition_Remastered_Guitar,6,5,umon_EnglishEdition,0.2705819606781006,0
54,100,0.11818181818181818,823,0,80,DL_EnglishEdition_Remastered_Guitar,6,2,umon_EnglishEdition,0.3579314649105072,0
54,100,0.5227272727272727,3,1,81,DL_EnglishEdition_Remastered_Guitar,6,8,umon_EnglishEdition,0.9986506104469299,1
59,100,0.2409090909090909,163,0,81,DL_EnglishEdition_Remastered_Guitar,6,4,umon_EnglishEdition,0.08797852694988251,0
54,100,0.6,396,1,81,DL_EnglishEdition_Remastered_Guitar,6,10,umon_EnglishEdition,0.09298325330018997,0
59,100,0.12272727272727273,629,1,81,DL_EnglishEdition_Remastered_Guitar,6,2,umon_EnglishEdition,0.1099478080868721,0
59,100,0.4,700,0,81,DL_EnglishEdition_Remastered_Guitar,6,6,umon_EnglishEdition,0.1286681592464447,0
59,100,0.21818181818181817,853,0,81,DL_EnglishEdition_Remastered_Guitar,6,3,umon_EnglishEdition,0.18221676349639893,0
54,100,0.3,30,1,82,DL_EnglishEdition_Remastered_Guitar,6,5,umon_EnglishEdition,0.9984880685806274,1
52,100,0.4409090909090909,163,0,82,DL_EnglishEdition_Remastered_Guitar,6,7,umon_EnglishEdition,0.06335318833589554,0
59,100,0.35909090909090907,276,0,82,DL_EnglishEdition_Remastered_Guitar,6,6,umon_EnglishEdition,0.05829011648893356,0
52,100,0.4818181818181818,430,0,82,DL_EnglishEdition_Remastered_Guitar,6,8,umon_EnglishEdition,0.061361901462078094,0
52,100,0.11818181818181818,660,0,82,DL_EnglishEdition_Remastered_Guitar,6,2,umon_EnglishEdition,0.07168373465538025,0
52,100,0.1590909090909091,713,0,82,DL_EnglishEdition_Remastered_Guitar,6,3,umon_EnglishEdition,0.08473721891641617,0
54,100,0.17727272727272728,832,0,82,DL_EnglishEdition_Remastered_Guitar,6,3,umon_EnglishEdition,0.12635444104671478,0
54,100,0.16363636363636364,3,1,83,DL_EnglishEdition_Remastered_Guitar,6,3,umon_EnglishEdition,0.9988439083099365,1
54,100,0.3409090909090909,123,0,83,DL_EnglishEdition_Remastered_Guitar,6,5,umon_EnglishEdition,0.13797999918460846,0
54,100,0.18181818181818182,312,0,83,DL_EnglishEdition_Remastered_Guitar,6,3,umon_EnglishEdition,0.16236385703086853,0
54,100,0.41818181818181815,426,0,83,DL_EnglishEdition_Remastered_Guitar,6,7,umon_EnglishEdition,0.191053107380867,0
54,100,0.4409090909090909,713,1,83,DL_EnglishEdition_Remastered_Guitar,6,7,umon_EnglishEdition,0.2619653642177582,0
54,100,0.2818181818181818,110,1,84,DL_EnglishEdition_Remastered_Guitar,6,5,umon_EnglishEdition,0.9990094900131226,1
54,100,0.1590909090909091,347,1,84,DL_EnglishEdition_Remastered_Guitar,6,3,umon_EnglishEdition,0.23323068022727966,0
59,100,0.4818181818181818,386,0,84,DL_EnglishEdition_Remastered_Guitar,6,8,umon_EnglishEdition,0.27058714628219604,0
54,100,0.8227272727272728,496,0,84,DL_EnglishEdition_Remastered_Guitar,6,13,umon_EnglishEdition,0.357916921377182,0
54,100,0.17727272727272728,470,1,85,DL_EnglishEdition_Remastered_Guitar,6,3,umon_EnglishEdition,0.9792242646217346,1
67,100,0.11818181818181818,722,1,0,Guitar,6,2,Stems,0.9983232617378235,1
58,100,0.1590909090909091,823,0,0,Guitar,6,3,Stems,0.5462179183959961,1
67,100,0.1590909090909091,339,1,1,Guitar,6,3,Stems,0.9983231425285339,1
63,100,0.2409090909090909,686,1,1,Guitar,6,4,Stems,0.5462162494659424,1
70,100,0.18181818181818182,144,1,2,Guitar,6,3,Stems,0.9990094900131226,1
70,100,0.16363636363636364,223,0,2,Guitar,6,3,Stems,0.2332301139831543,0
65,100,0.11818181818181818,373,0,2,Guitar,6,2,Stems,0.27057895064353943,0
62,100,0.1409090909090909,782,1,2,Guitar,6,2,Stems,0.3579251766204834,0
63,100,0.3181818181818182,83,1,3,Guitar,6,5,Stems,0.9990094900131226,1
63,100,0.17727272727272728,171,0,3,Guitar,6,3,Stems,0.23323063552379608,0
58,100,0.1,391,0,3,Guitar,6,2,Stems,0.2705872058868408,0
65,100,0.2818181818181818,620,0,3,Guitar,6,5,Stems,0.35792842507362366,0
62,100,0.11818181818181818,128,1,4,Guitar,6,2,Stems,0.9983735084533691,1
62,100,0.16363636363636364,179,0,4,Guitar,6,3,Stems,0.05104983225464821,0
63,100,0.1,263,0,4,Guitar,6,2,Stems,0.04161233827471733,0
63,100,0.4772727272727273,317,0,4,Guitar,6,8,Stems,0.03797971084713936,0
63,100,0.1409090909090909,554,1,4,Guitar,6,2,Stems,0.03926153853535652,0
63,100,0.11818181818181818,611,0,4,Guitar,6,2,Stems,0.04616779834032059,0
63,100,0.1590909090909091,695,0,4,Guitar,6,3,Stems,0.057137083262205124,0
63,100,0.11818181818181818,792,0,4,Guitar,6,2,Stems,0.09188666939735413,0
63,100,0.18181818181818182,145,1,5,Guitar,6,3,Stems,0.9990280866622925,1
63,100,0.1409090909090909,211,0,5,Guitar,6,2,Stems,0.3703494071960449,0
63,100,0.2772727272727273,655,1,5,Guitar,6,4,Stems,0.45618346333503723,0
63,100,0.13636363636363635,348,1,6,Guitar,6,2,Stems,0.9983232617378235,1
63,100,0.1590909090909091,739,1,6,Guitar,6,3,Stems,0.5462225079536438,1
55,100,0.2,123,1,8,Guitar,6,3,Stems,0.9792241454124451,1
56,100,0.12272727272727273,211,1,9,Guitar,6,2,Stems,0.9990280866622925,1
63,100,0.11818181818181818,259,0,9,Guitar,6,2,Stems,0.37034887075424194,0
63,100,0.12272727272727273,355,0,9,Guitar,6,2,Stems,0.45617184042930603,0
65,100,0.12272727272727273,642,1,10,Guitar,6,2,Stems,0.9792241454124451,1
63,100,0.16363636363636364,180,1,13,Guitar,6,3,Stems,0.9990094900131226,1
63,100,0.1,268,0,13,Guitar,6,2,Stems,0.2332439422607422,0
56,100,0.3409090909090909,360,0,13,Guitar,6,5,Stems,0.270589679479599,0
56,100,0.18181818181818182,663,1,13,Guitar,6,3,Stems,0.3579375147819519,0
58,100,0.2,44,1,14,Guitar,6,3,Stems,0.9983232617378235,1
63,100,0.1590909090909091,118,0,14,Guitar,6,3,Stems,0.5462213754653931,1
55,100,0.17727272727272728,52,1,16,Guitar,6,3,Stems,0.9986506104469299,1
63,100,0.11818181818181818,220,0,16,Guitar,6,2,Stems,0.08798044919967651,0
55,100,0.1,254,0,16,Guitar,6,2,Stems,0.09298872202634811,0
63,100,0.11818181818181818,351,0,16,Guitar,6,2,Stems,0.10995250195264816,0
63,100,0.13636363636363635,436,0,16,Guitar,6,2,Stems,0.12868085503578186,0
63,100,0.21818181818181817,492,0,16,Guitar,6,3,Stems,0.18222874402999878,0
58,100,0.11818181818181818,845,1,17,Guitar,6,2,Stems,0.9792238473892212,1
56,100,0.11818181818181818,700,1,18,Guitar,6,2,Stems,0.9983232617378235,1
56,100,0.11818181818181818,735,0,18,Guitar,6,2,Stems,0.5462129712104797,1
56,100,0.3181818181818182,88,1,19,Guitar,6,5,Stems,0.9983231425285339,1
56,100,0.1,347,1,19,Guitar,6,2,Stems,0.5462104678153992,1
56,100,0.1590909090909091,65,1,21,Guitar,6,3,Stems,0.9988439083099365,1
63,100,0.1590909090909091,185,0,21,Guitar,6,3,Stems,0.1379823237657547,0
63,100,0.22272727272727272,268,0,21,Guitar,6,4,Stems,0.1623673439025879,0
63,100,0.11818181818181818,339,0,21,Guitar,6,2,Stems,0.19106236100196838,0
63,100,0.17727272727272728,735,1,21,Guitar,6,3,Stems,0.26196905970573425,0
63,100,0.12272727272727273,553,1,22,Guitar,6,2,Stems,0.9792242646217346,1
63,100,0.1,633,1,23,Guitar,6,2,Stems,0.9983231425285339,1
63,100,0.5772727272727273,876,1,23,Guitar,6,9,Stems,0.5462135672569275,1
63,100,0.11818181818181818,131,1,24,Guitar,6,2,Stems,0.9983231425285339,1
63,100,0.18181818181818182,285,0,24,Guitar,6,3,Stems,0.5462210178375244,1
58,100,0.1590909090909091,691,1,25,Guitar,6,3,Stems,0.9792245030403137,1
63,100,0.11818181818181818,590,1,26,Guitar,6,2,Stems,0.9990280866622925,1
64,100,0.1590909090909091,625,0,26,Guitar,6,3,Stems,0.37035587430000305,0
68,100,0.32272727272727275,804,0,26,Guitar,6,5,Stems,0.4561682641506195,0
63,100,0.1409090909090909,822,1,27,Guitar,6,2,Stems,0.9792236089706421,1
62,100,0.12272727272727273,202,1,29,Guitar,6,2,Stems,0.9983231425285339,1
63,100,0.1590909090909091,810,1,29,Guitar,6,3,Stems,0.5462127923965454,1
67,100,0.11818181818181818,0,1,30,Guitar,6,2,Stems,0.9983231425285339,1
63,100,0.21818181818181817,866,1,30,Guitar,6,3,Stems,0.5462163090705872,1
63,100,0.2818181818181818,113,1,31,Guitar,6,5,Stems,0.9986506104469299,1
63,100,0.22272727272727272,254,0,31,Guitar,6,4,Stems,0.08798282593488693,0
63,100,0.18181818181818182,422,0,31,Guitar,6,3,Stems,0.09298861026763916,0
63,100,0.2590909090909091,528,0,31,Guitar,6,4,Stems,0.10995598137378693,0
63,100,0.6,598,0,31,Guitar,6,10,Stems,0.12868456542491913,0
56,100,0.17727272727272728,822,0,31,Guitar,6,3,Stems,0.18223051726818085,0
63,100,0.11818181818181818,303,1,32,Guitar,6,2,Stems,0.9792227745056152,1
63,100,0.3,408,1,33,Guitar,6,5,Stems,0.9792238473892212,1
63,100,0.1590909090909091,391,1,34,Guitar,6,3,Stems,0.979223906993866,1
65,100,0.17727272727272728,163,1,35,Guitar,6,3,Stems,0.9990094900131226,1
58,100,0.2818181818181818,298,0,35,Guitar,6,5,Stems,0.2332330197095871,0
58,100,0.12272727272727273,474,0,35,Guitar,6,2,Stems,0.27058306336402893,0
63,100,0.11818181818181818,735,1,35,Guitar,6,2,Stems,0.35792553424835205,0
63,100,0.11818181818181818,110,1,36,Guitar,6,2,Stems,0.9990094900131226,1
63,100,0.2,246,0,36,Guitar,6,3,Stems,0.23323442041873932,0
58,100,0.2,316,0,36,Guitar,6,3,Stems,0.2705948054790497,0
63,100,0.18181818181818182,651,1,36,Guitar,6,3,Stems,0.3579372763633728,0
63,100,0.22272727272727272,179,1,37,Guitar,6,4,Stems,0.9990094900131226,1
63,100,0.11818181818181818,295,0,37,Guitar,6,2,Stems,0.23323018848896027,0
58,100,0.1590909090909091,743,1,37,Guitar,6,3,Stems,0.27059534192085266,0
58,100,0.22272727272727272,871,0,37,Guitar,6,4,Stems,0.3579408824443817,0
58,100,0.2,66,1,38,Guitar,6,3,Stems,0.9986506104469299,1
58,100,0.3,118,0,38,Guitar,6,5,Stems,0.0879792720079422,0
58,100,0.11818181818181818,215,0,38,Guitar,6,2,Stems,0.09298519790172577,0
58,100,0.11818181818181818,295,0,38,Guitar,6,2,Stems,0.10995056480169296,0
58,100,0.1590909090909091,343,0,38,Guitar,6,3,Stems,0.12867258489131927,0
58,100,0.18181818181818182,396,0,38,Guitar,6,3,Stems,0.18221724033355713,0
53,100,0.2409090909090909,66,1,39,Guitar,6,4,Stems,0.9986506104469299,1
63,100,0.22272727272727272,211,0,39,Guitar,6,4,Stems,0.08798064291477203,0
55,100,0.1409090909090909,289,0,39,Guitar,6,2,Stems,0.09299086034297943,0
55,100,0.18181818181818182,351,0,39,Guitar,6,3,Stems,0.10995525866746902,0
62,100,0.37727272727272726,480,0,39,Guitar,6,6,Stems,0.12867991626262665,0
63,100,0.21818181818181817,748,1,39,Guitar,6,3,Stems,0.18222469091415405,0
58,100,0.16363636363636364,26,1,40,Guitar,6,3,Stems,0.9988439083099365,1
58,100,0.17727272727272728,83,0,40,Guitar,6,3,Stems,0.13798055052757263,0
53,100,0.2409090909090909,286,0,40,Guitar,6,4,Stems,0.16235899925231934,0
53,100,0.18181818181818182,364,0,40,Guitar,6,3,Stems,0.19104903936386108,0
55,100,0.11818181818181818,493,0,40,Guitar,6,2,Stems,0.2619578540325165,0
63,100,0.2772727272727273,141,1,41,Guitar,6,4,Stems,0.9990280866622925,1
65,100,0.22272727272727272,496,1,41,Guitar,6,4,Stems,0.3703448474407196,0
67,100,0.18181818181818182,783,1,41,Guitar,6,3,Stems,0.45616742968559265,0
62,100,0.21818181818181817,31,1,42,Guitar,6,3,Stems,0.9990094900131226,1
62,100,0.22272727272727272,166,0,42,Guitar,6,4,Stems,0.23323914408683777,0
63,100,0.41818181818181815,286,0,42,Guitar,6,7,Stems,0.2705910801887512,0
63,100,0.3181818181818182,625,1,42,Guitar,6,5,Stems,0.3579424023628235,0
58,100,0.1,166,1,43,Guitar,6,2,Stems,0.9990280866622925,1
63,100,0.18181818181818182,421,1,43,Guitar,6,3,Stems,0.3703364431858063,0
63,100,0.2409090909090909,726,1,43,Guitar,6,4,Stems,0.4561672806739807,0
58,100,0.1590909090909091,53,1,44,Guitar,6,3,Stems,0.9986506104469299,1
58,100,0.22272727272727272,453,1,44,Guitar,6,4,Stems,0.08797924965620041,0
58,100,0.18181818181818182,593,0,44,Guitar,6,3,Stems,0.0929843857884407,0
58,100,0.1409090909090909,716,0,44,Guitar,6,2,Stems,0.10994938015937805,0
57,100,0.11818181818181818,748,0,44,Guitar,6,2,Stems,0.1286674290895462,0
58,100,0.2,853,0,44,Guitar,6,3,Stems,0.18222148716449738,0
53,100,0.4590909090909091,53,1,45,Guitar,6,7,Stems,0.9983735084533691,1
53,100,0.21818181818181817,193,0,45,Guitar,6,3,Stems,0.05104999616742134,0
53,100,0.11818181818181818,281,0,45,Guitar,6,2,Stems,0.041612301021814346,0
56,100,0.11818181818181818,413,0,45,Guitar,6,2,Stems,0.037979867309331894,0
56,100,0.11818181818181818,536,0,45,Guitar,6,2,Stems,0.03926076740026474,0
53,100,0.3409090909090909,581,0,45,Guitar,6,5,Stems,0.04616497829556465,0
55,100,0.3,664,0,45,Guitar,6,5,Stems,0.057131681591272354,0
55,100,0.2772727272727273,801,0,45,Guitar,6,4,Stems,0.09187597036361694,0
55,100,0.4818181818181818,56,1,46,Guitar,6,8,Stems,0.9988439083099365,1
55,100,0.22272727272727272,188,0,46,Guitar,6,4,Stems,0.13798823952674866,0
56,100,0.2409090909090909,466,1,46,Guitar,6,4,Stems,0.1623704582452774,0
56,100,0.22272727272727272,606,0,46,Guitar,6,4,Stems,0.1910620480775833,0
56,100,0.3409090909090909,871,1,46,Guitar,6,5,Stems,0.261966347694397,0
56,100,0.36363636363636365,136,1,47,Guitar,6,6,Stems,0.9986506104469299,1
56,100,0.2409090909090909,273,0,47,Guitar,6,4,Stems,0.08797838538885117,0
58,100,0.22272727272727272,488,0,47,Guitar,6,4,Stems,0.0929844006896019,0
58,100,0.4772727272727273,545,0,47,Guitar,6,8,Stems,0.10994502902030945,0
58,100,0.3,673,0,47,Guitar,6,5,Stems,0.12866657972335815,0
58,100,0.17727272727272728,823,0,47,Guitar,6,3,Stems,0.18221382796764374,0
53,100,0.1409090909090909,21,1,48,Guitar,6,2,Stems,0.9986506104469299,1
58,100,0.3,69,0,48,Guitar,6,5,Stems,0.08797755092382431,0
58,100,0.5636363636363636,201,0,48,Guitar,6,9,Stems,0.09298358857631683,0
58,100,0.12272727272727273,334,0,48,Guitar,6,2,Stems,0.10994543135166168,0
58,100,0.3,405,0,48,Guitar,6,5,Stems,0.12866835296154022,0
58,100,0.3,474,0,48,Guitar,6,5,Stems,0.18221008777618408,0
53,100,0.5181818181818182,40,1,50,Guitar,6,8,Stems,0.9983231425285339,1
53,100,0.2818181818181818,444,1,50,Guitar,6,5,Stems,0.5462186336517334,1
53,100,0.11818181818181818,853,1,51,Guitar,6,2,Stems,0.9792238473892212,1
58,100,0.1590909090909091,628,1,52,Guitar,6,3,Stems,0.9983231425285339,1
63,100,0.21818181818181817,735,0,52,Guitar,6,3,Stems,0.5462110638618469,1
63,100,0.11818181818181818,198,1,53,Guitar,6,2,Stems,0.9990280866622925,1
63,100,0.2,268,0,53,Guitar,6,3,Stems,0.37034666538238525,0
63,100,0.3409090909090909,408,0,53,Guitar,6,5,Stems,0.4561818838119507,0
63,100,0.18181818181818182,708,1,54,Guitar,6,3,Stems,0.9792238473892212,1
63,100,0.2409090909090909,153,1,55,Guitar,6,4,Stems,0.979223370552063,1
63,100,0.12272727272727273,444,1,58,Guitar,6,2,Stems,0.979223906993866,1
63,100,0.1409090909090909,343,1,61,Guitar,6,2,Stems,0.9983232617378235,1
63,100,0.18181818181818182,751,1,61,Guitar,6,3,Stems,0.5462244153022766,1
63,100,0.4590909090909091,848,1,63,Guitar,6,7,Stems,0.9792234897613525,1
63,100,0.1,87,1,64,Guitar,6,2,Stems,0.9990280866622925,1
63,100,0.2818181818181818,145,0,64,Guitar,6,5,Stems,0.37034133076667786,0
56,100,0.35909090909090907,866,1,64,Guitar,6,6,Stems,0.4561772644519806,0
56,100,0.17727272727272728,713,1,65,Guitar,6,3,Stems,0.9792242646217346,1
58,100,0.1,74,1,69,Guitar,6,2,Stems,0.9990094900131226,1
63,100,0.2,140,0,69,Guitar,6,3,Stems,0.23322489857673645,0
53,100,0.1,282,0,69,Guitar,6,2,Stems,0.27057480812072754,0
53,100,0.11818181818181818,677,1,69,Guitar,6,2,Stems,0.3579271137714386,0
53,100,0.2,153,1,70,Guitar,6,3,Stems,0.9990280866622925,1
53,100,0.12272727272727273,356,0,70,Guitar,6,2,Stems,0.3703385591506958,0
53,100,0.18181818181818182,422,0,70,Guitar,6,3,Stems,0.4561651051044464,0
70,100,0.17727272727272728,17,1,71,Guitar,6,3,Stems,0.9983232617378235,1
58,100,0.2,96,0,71,Guitar,6,3,Stems,0.5462117195129395,1
58,100,0.1,136,1,73,Guitar,6,2,Stems,0.9983232617378235,1
62,100,0.1,734,1,73,Guitar,6,2,Stems,0.546217143535614,1
63,100,0.1590909090909091,233,1,77,Guitar,6,3,Stems,0.9792236089706421,1
63,100,0.11818181818181818,792,1,78,Guitar,6,2,Stems,0.9792240262031555,1
63,100,0.1,246,1,79,Guitar,6,2,Stems,0.9792238473892212,1
63,100,0.11818181818181818,726,1,81,Guitar,6,2,Stems,0.9792234897613525,1
53,100,0.17727272727272728,127,1,82,Guitar,6,3,Stems,0.9990280866622925,1
53,100,0.2,184,0,82,Guitar,6,3,Stems,0.37034448981285095,0
53,100,0.18181818181818182,663,1,82,Guitar,6,3,Stems,0.4561634063720703,0
63,100,0.12272727272727273,3,1,83,Guitar,6,2,Stems,0.9983231425285339,1
58,100,0.2,677,1,83,Guitar,6,3,Stems,0.5462215542793274,1
67,100,0.2818181818181818,132,1,84,Guitar,6,5,Stems,0.9990094900131226,1
62,100,0.3181818181818182,263,0,84,Guitar,6,5,Stems,0.23323151469230652,0
63,100,0.6818181818181818,483,0,84,Guitar,6,11,Stems,0.27058160305023193,0
70,100,0.1,686,0,84,Guitar,6,2,Stems,0.3579355776309967,0
70,100,0.1,26,1,85,Guitar,6,2,Stems,0.9983735084533691,1
65,100,0.1,220,0,85,Guitar,6,2,Stems,0.05104973167181015,0
67,100,0.2,289,0,85,Guitar,6,3,Stems,0.041611578315496445,0
67,100,0.2590909090909091,404,0,85,Guitar,6,4,Stems,0.03797890245914459,0
62,100,0.2590909090909091,480,0,85,Guitar,6,4,Stems,0.03925963118672371,0
62,100,0.5227272727272727,553,0,85,Guitar,6,8,Stems,0.04616574943065643,0
63,100,0.3409090909090909,703,0,85,Guitar,6,5,Stems,0.05713316798210144,0
63,100,0.4,783,0,85,Guitar,6,6,Stems,0.09188259392976761,0
63,100,0.2590909090909091,13,1,86,Guitar,6,4,Stems,0.9990094900131226,1
56,100,0.1409090909090909,365,1,86,Guitar,6,2,Stems,0.23323065042495728,0
63,100,0.1,443,0,86,Guitar,6,2,Stems,0.2705910801887512,0
65,100,0.11818181818181818,734,1,86,Guitar,6,2,Stems,0.35793229937553406,0
63,100,0.11818181818181818,722,1,88,Guitar,6,2,Stems,0.9792242646217346,1
63,100,0.2590909090909091,106,1,89,Guitar,6,4,Stems,0.9792236089706421,1
55,100,0.5363636363636364,523,1,90,Guitar,6,9,Stems,0.9983231425285339,1
55,100,0.7772727272727272,646,0,90,Guitar,6,12,Stems,0.546212375164032,1
58,100,0.18181818181818182,597,1,97,Guitar,6,3,Stems,0.9792242646217346,1
58,100,0.2409090909090909,870,1,105,Guitar,6,4,Stems,0.9792246222496033,1
65,100,0.1590909090909091,197,1,106,Guitar,6,3,Stems,0.9990280866622925,1
65,100,0.17727272727272728,273,0,106,Guitar,6,3,Stems,0.37034180760383606,0
62,100,0.2,616,1,106,Guitar,6,3,Stems,0.45616960525512695,0
63,100,0.5181818181818182,22,1,107,Guitar,6,8,Stems,0.9983231425285339,1
62,100,0.2590909090909091,823,1,107,Guitar,6,4,Stems,0.546225905418396,1
62,100,0.2409090909090909,13,1,108,Guitar,6,4,Stems,0.9990280866622925,1
65,100,0.2,637,1,108,Guitar,6,3,Stems,0.3703426718711853,0
65,100,0.2590909090909091,690,0,108,Guitar,6,4,Stems,0.45616838335990906,0
62,100,0.3,163,1,109,Guitar,6,5,Stems,0.9988439083099365,1
62,100,0.1409090909090909,242,0,109,Guitar,6,2,Stems,0.13798749446868896,0
63,100,0.21818181818181817,383,0,109,Guitar,6,3,Stems,0.16236865520477295,0
63,100,0.16363636363636364,443,0,109,Guitar,6,3,Stems,0.19107438623905182,0
63,100,0.1,509,0,109,Guitar,6,2,Stems,0.26198482513427734,0
58,100,0.1409090909090909,163,1,110,Guitar,6,2,Stems,0.9983232617378235,1
63,100,0.17727272727272728,237,0,110,Guitar,6,3,Stems,0.5462194085121155,1
70,100,0.11818181818181818,417,1,111,Guitar,6,2,Stems,0.9792241454124451,1
58,100,0.38181818181818183,817,1,1,DL_warm_Guitar,6,6,omokagewarmruriko,0.9792242646217346,1
58,100,0.17727272727272728,259,1,2,DL_warm_Guitar,6,3,omokagewarmruriko,0.9988439083099365,1
58,100,0.2818181818181818,330,0,2,DL_warm_Guitar,6,5,omokagewarmruriko,0.1379818171262741,0
55,100,0.1,501,0,2,DL_warm_Guitar,6,2,omokagewarmruriko,0.1623619794845581,0
58,100,0.18181818181818182,528,0,2,DL_warm_Guitar,6,3,omokagewarmruriko,0.19105367362499237,0
58,100,0.759090909090909,607,0,2,DL_warm_Guitar,6,12,omokagewarmruriko,0.26195600628852844,0
58,100,0.7227272727272728,510,1,3,DL_warm_Guitar,6,12,omokagewarmruriko,0.9983232617378235,1
58,100,0.36363636363636365,840,1,3,DL_warm_Guitar,6,6,omokagewarmruriko,0.5462170243263245,1
58,100,0.1409090909090909,43,1,4,DL_warm_Guitar,6,2,omokagewarmruriko,0.9983232617378235,1
58,100,0.5818181818181818,770,1,4,DL_warm_Guitar,6,9,omokagewarmruriko,0.5462116599082947,1
58,100,0.5,43,1,5,DL_warm_Guitar,6,8,omokagewarmruriko,0.9990280866622925,1
58,100,0.2409090909090909,232,0,5,DL_warm_Guitar,6,4,omokagewarmruriko,0.37033507227897644,0
58,100,0.2636363636363636,818,1,5,DL_warm_Guitar,6,4,omokagewarmruriko,0.4561660885810852,0
58,100,0.8409090909090909,56,1,6,DL_warm_Guitar,6,13,omokagewarmruriko,0.9988439083099365,1
58,100,0.5227272727272727,268,0,6,DL_warm_Guitar,6,8,omokagewarmruriko,0.13798044621944427,0
58,100,0.16363636363636364,399,0,6,DL_warm_Guitar,6,3,omokagewarmruriko,0.16236156225204468,0
58,100,0.2,440,0,6,DL_warm_Guitar,6,3,omokagewarmruriko,0.19105510413646698,0
58,100,0.2590909090909091,770,1,6,DL_warm_Guitar,6,4,omokagewarmruriko,0.2619556486606598,0
58,100,0.3409090909090909,69,1,7,DL_warm_Guitar,6,5,omokagewarmruriko,0.9990094900131226,1
58,100,0.2409090909090909,299,0,7,DL_warm_Guitar,6,4,omokagewarmruriko,0.23323218524456024,0
58,100,0.32272727272727275,355,0,7,DL_warm_Guitar,6,5,omokagewarmruriko,0.27057763934135437,0
58,100,0.16363636363636364,444,0,7,DL_warm_Guitar,6,3,omokagewarmruriko,0.3579271137714386,0
58,100,0.13636363636363635,171,1,8,DL_warm_Guitar,6,2,omokagewarmruriko,0.9990280866622925,1
58,100,0.11818181818181818,646,1,8,DL_warm_Guitar,6,2,omokagewarmruriko,0.3703427314758301,0
56,100,0.1,721,0,8,DL_warm_Guitar,6,2,omokagewarmruriko,0.4561671316623688,0
58,100,0.1,391,1,9,DL_warm_Guitar,6,2,omokagewarmruriko,0.9990280866622925,1
58,100,0.5409090909090909,651,1,9,DL_warm_Guitar,6,9,omokagewarmruriko,0.3703385591506958,0
58,100,0.3,818,0,9,DL_warm_Guitar,6,5,omokagewarmruriko,0.4561677873134613,0
58,100,0.5772727272727273,75,1,10,DL_warm_Guitar,6,9,omokagewarmruriko,0.9792246222496033,1
58,100,0.5,53,1,11,DL_warm_Guitar,6,8,omokagewarmruriko,0.9988439083099365,1
58,100,0.6,166,0,11,DL_warm_Guitar,6,10,omokagewarmruriko,0.13798390328884125,0
58,100,0.5818181818181818,307,0,11,DL_warm_Guitar,6,9,omokagewarmruriko,0.16235965490341187,0
58,100,0.32272727272727275,443,0,11,DL_warm_Guitar,6,5,omokagewarmruriko,0.1910567432641983,0
60,100,0.740909090909091,826,1,11,DL_warm_Guitar,6,12,omokagewarmruriko,0.26195427775382996,0
58,100,1.1590909090909092,132,1,12,DL_warm_Guitar,6,15,omokagewarmruriko,0.9988439083099365,1
58,100,0.41818181818181815,414,1,12,DL_warm_Guitar,6,7,omokagewarmruriko,0.13798663020133972,0
55,100,0.12272727272727273,541,0,12,DL_warm_Guitar,6,2,omokagewarmruriko,0.1623680293560028,0
55,100,0.1409090909090909,572,0,12,DL_warm_Guitar,6,2,omokagewarmruriko,0.19105951488018036,0
55,100,0.13636363636363635,611,0,12,DL_warm_Guitar,6,2,omokagewarmruriko,0.26196473836898804,0
60,100,0.3,158,1,13,DL_warm_Guitar,6,5,omokagewarmruriko,0.9983232617378235,1
58,100,0.1409090909090909,862,1,13,DL_warm_Guitar,6,2,omokagewarmruriko,0.5462157130241394,1
58,100,0.21818181818181817,660,1,14,DL_warm_Guitar,6,3,omokagewarmruriko,0.9983232617378235,1
58,100,0.11818181818181818,854,0,14,DL_warm_Guitar,6,2,omokagewarmruriko,0.5462151765823364,1
58,100,0.4818181818181818,3,1,15,DL_warm_Guitar,6,8,omokagewarmruriko,0.9990094900131226,1
67,100,0.1409090909090909,189,0,15,DL_warm_Guitar,6,2,omokagewarmruriko,0.23322793841362,0
58,100,0.8,254,0,15,DL_warm_Guitar,6,13,omokagewarmruriko,0.270579993724823,0
58,100,0.11818181818181818,876,1,15,DL_warm_Guitar,6,2,omokagewarmruriko,0.3579258620738983,0
58,100,0.6818181818181818,110,1,16,DL_warm_Guitar,6,11,omokagewarmruriko,0.9990094900131226,1
58,100,0.1409090909090909,364,1,16,DL_warm_Guitar,6,2,omokagewarmruriko,0.23323047161102295,0
58,100,0.22272727272727272,430,0,16,DL_warm_Guitar,6,4,omokagewarmruriko,0.2705781161785126,0
58,100,0.3409090909090909,691,1,16,DL_warm_Guitar,6,5,omokagewarmruriko,0.3579252362251282,0
58,100,0.1409090909090909,21,1,17,DL_warm_Guitar,6,2,omokagewarmruriko,0.9990094900131226,1
58,100,0.5409090909090909,246,0,17,DL_warm_Guitar,6,9,omokagewarmruriko,0.2332245409488678,0
58,100,0.9590909090909091,497,1,17,DL_warm_Guitar,6,15,omokagewarmruriko,0.2705780565738678,0
58,100,0.16363636363636364,729,1,17,DL_warm_Guitar,6,3,omokagewarmruriko,0.35792917013168335,0
58,100,0.1590909090909091,260,1,18,DL_warm_Guitar,6,3,omokagewarmruriko,0.9990280866622925,1
56,100,0.17727272727272728,691,1,18,DL_warm_Guitar,6,3,omokagewarmruriko,0.3703455328941345,0
58,100,0.6409090909090909,752,0,18,DL_warm_Guitar,6,10,omokagewarmruriko,0.45616039633750916,0
58,100,0.11818181818181818,30,1,19,DL_warm_Guitar,6,2,omokagewarmruriko,0.9986506104469299,1
58,100,0.38181818181818183,92,0,19,DL_warm_Guitar,6,6,omokagewarmruriko,0.08797959238290787,0
58,100,0.16363636363636364,179,0,19,DL_warm_Guitar,6,3,omokagewarmruriko,0.09298443049192429,0
58,100,0.1590909090909091,320,0,19,DL_warm_Guitar,6,3,omokagewarmruriko,0.10995081067085266,0
58,100,0.5818181818181818,488,0,19,DL_warm_Guitar,6,9,omokagewarmruriko,0.12866835296154022,0
58,100,0.5772727272727273,721,1,19,DL_warm_Guitar,6,9,omokagewarmruriko,0.18221816420555115,0
58,100,0.740909090909091,92,1,20,DL_warm_Guitar,6,12,omokagewarmruriko,0.9988439083099365,1
58,100,0.1409090909090909,268,0,20,DL_warm_Guitar,6,2,omokagewarmruriko,0.13798275589942932,0
58,100,0.1409090909090909,316,0,20,DL_warm_Guitar,6,2,omokagewarmruriko,0.16236454248428345,0
58,100,0.8409090909090909,351,0,20,DL_warm_Guitar,6,13,omokagewarmruriko,0.191053569316864,0
58,100,1.018181818181818,669,1,20,DL_warm_Guitar,6,15,omokagewarmruriko,0.2619593143463135,0
58,100,0.2590909090909091,61,1,21,DL_warm_Guitar,6,4,omokagewarmruriko,0.9988439083099365,1
58,100,1.3,123,0,21,DL_warm_Guitar,6,15,omokagewarmruriko,0.13798107206821442,0
63,100,0.21818181818181817,413,1,21,DL_warm_Guitar,6,3,omokagewarmruriko,0.1623658388853073,0
67,100,0.1409090909090909,470,0,21,DL_warm_Guitar,6,2,omokagewarmruriko,0.1910569965839386,0
55,100,0.2,540,0,21,DL_warm_Guitar,6,3,omokagewarmruriko,0.2619628310203552,0
60,100,0.11818181818181818,330,1,22,DL_warm_Guitar,6,2,omokagewarmruriko,0.9983232617378235,1
60,100,0.2590909090909091,559,0,22,DL_warm_Guitar,6,4,omokagewarmruriko,0.5462122559547424,1
67,100,0.2818181818181818,607,1,23,DL_warm_Guitar,6,5,omokagewarmruriko,0.9792238473892212,1
58,100,0.2,61,1,24,DL_warm_Guitar,6,3,omokagewarmruriko,0.9988439083099365,1
58,100,0.3,343,1,24,DL_warm_Guitar,6,5,omokagewarmruriko,0.13798198103904724,0
58,100,0.1,540,0,24,DL_warm_Guitar,6,2,omokagewarmruriko,0.1623649150133133,0
58,100,0.2,743,0,24,DL_warm_Guitar,6,3,omokagewarmruriko,0.1910555362701416,0
58,100,0.6772727272727272,822,0,24,DL_warm_Guitar,6,11,omokagewarmruriko,0.2619572877883911,0
58,100,0.37727272727272726,162,1,25,DL_warm_Guitar,6,6,omokagewarmruriko,0.9986506104469299,1
58,100,0.9590909090909091,277,0,25,DL_warm_Guitar,6,15,omokagewarmruriko,0.08797792345285416,0
62,100,0.11818181818181818,528,1,25,DL_warm_Guitar,6,2,omokagewarmruriko,0.09298301488161087,0
58,100,0.2772727272727273,567,0,25,DL_warm_Guitar,6,4,omokagewarmruriko,0.1099509671330452,0
62,100,0.1409090909090909,669,0,25,DL_warm_Guitar,6,2,omokagewarmruriko,0.12867207825183868,0
58,100,0.6,770,0,25,DL_warm_Guitar,6,10,omokagewarmruriko,0.18221916258335114,0
58,100,0.2,123,1,26,DL_warm_Guitar,6,3,omokagewarmruriko,0.9984880685806274,1
58,100,0.3181818181818182,175,0,26,DL_warm_Guitar,6,5,omokagewarmruriko,0.0633537694811821,0
58,100,0.5772727272727273,272,0,26,DL_warm_Guitar,6,9,omokagewarmruriko,0.058287762105464935,0
58,100,0.11818181818181818,413,0,26,DL_warm_Guitar,6,2,omokagewarmruriko,0.06136152893304825,0
58,100,0.5,461,0,26,DL_warm_Guitar,6,8,omokagewarmruriko,0.07168024778366089,0
58,100,0.2636363636363636,619,0,26,DL_warm_Guitar,6,4,omokagewarmruriko,0.08473103493452072,0
58,100,0.2590909090909091,831,0,26,DL_warm_Guitar,6,4,omokagewarmruriko,0.1263444423675537,0
58,100,0.6227272727272727,69,1,27,DL_warm_Guitar,6,10,omokagewarmruriko,0.9988439083099365,1
60,100,0.17727272727272728,260,0,27,DL_warm_Guitar,6,3,omokagewarmruriko,0.13798992335796356,0
58,100,0.6227272727272727,333,0,27,DL_warm_Guitar,6,10,omokagewarmruriko,0.1623688042163849,0
58,100,1.4636363636363636,488,0,27,DL_warm_Guitar,6,15,omokagewarmruriko,0.1910591572523117,0
56,100,0.43636363636363634,831,1,27,DL_warm_Guitar,6,7,omokagewarmruriko,0.2619597911834717,0
68,100,0.35909090909090907,144,1,28,DL_warm_Guitar,6,6,omokagewarmruriko,0.9988439083099365,1
68,100,0.4772727272727273,237,0,28,DL_warm_Guitar,6,8,omokagewarmruriko,0.13798277080059052,0
68,100,0.4590909090909091,387,0,28,DL_warm_Guitar,6,7,omokagewarmruriko,0.162361279129982,0
58,100,0.13636363636363635,677,1,28,DL_warm_Guitar,6,2,omokagewarmruriko,0.1910576969385147,0
56,100,0.1590909090909091,787,0,28,DL_warm_Guitar,6,3,omokagewarmruriko,0.26195791363716125,0
68,100,0.2590909090909091,96,1,29,DL_warm_Guitar,6,4,omokagewarmruriko,0.9990280866622925,1
58,100,0.1409090909090909,229,0,29,DL_warm_Guitar,6,2,omokagewarmruriko,0.37034252285957336,0
58,100,0.4,804,1,29,DL_warm_Guitar,6,6,omokagewarmruriko,0.4561694264411926,0
58,100,0.3409090909090909,57,1,30,DL_warm_Guitar,6,5,omokagewarmruriko,0.9990094900131226,1
58,100,0.2590909090909091,254,0,30,DL_warm_Guitar,6,4,omokagewarmruriko,0.23324131965637207,0
58,100,0.6409090909090909,387,0,30,DL_warm_Guitar,6,10,omokagewarmruriko,0.2705894410610199,0
58,100,2.0,804,1,30,DL_warm_Guitar,6,15,omokagewarmruriko,0.3579156696796417,0
58,100,0.7227272727272728,453,1,31,DL_warm_Guitar,6,12,omokagewarmruriko,0.9990094900131226,1
58,100,0.5818181818181818,619,0,31,DL_warm_Guitar,6,9,omokagewarmruriko,0.23322920501232147,0
60,100,0.17727272727272728,801,0,31,DL_warm_Guitar,6,3,omokagewarmruriko,0.27058276534080505,0
70,100,0.2590909090909091,845,0,31,DL_warm_Guitar,6,4,omokagewarmruriko,0.357917845249176,0
63,100,0.36363636363636365,48,1,32,DL_warm_Guitar,6,6,omokagewarmruriko,0.9990094900131226,1
58,100,0.5590909090909091,166,0,32,DL_warm_Guitar,6,9,omokagewarmruriko,0.23323726654052734,0
58,100,1.018181818181818,435,1,32,DL_warm_Guitar,6,15,omokagewarmruriko,0.2705852687358856,0
58,100,0.7227272727272728,694,1,32,DL_warm_Guitar,6,12,omokagewarmruriko,0.3579336106777191,0
68,100,0.36363636363636365,69,1,33,DL_warm_Guitar,6,6,omokagewarmruriko,0.9988439083099365,1
68,100,0.1409090909090909,188,0,33,DL_warm_Guitar,6,2,omokagewarmruriko,0.1379864513874054,0
60,100,0.9636363636363636,268,0,33,DL_warm_Guitar,6,15,omokagewarmruriko,0.162366583943367,0
58,100,0.6227272727272727,673,1,33,DL_warm_Guitar,6,10,omokagewarmruriko,0.19105874001979828,0
68,100,0.2409090909090909,823,0,33,DL_warm_Guitar,6,4,omokagewarmruriko,0.26196202635765076,0
58,100,0.12272727272727273,201,1,34,DL_warm_Guitar,6,2,omokagewarmruriko,0.9983232617378235,1
58,100,0.5409090909090909,581,1,34,DL_warm_Guitar,6,9,omokagewarmruriko,0.5462096929550171,1
58,100,0.1,251,1,35,DL_warm_Guitar,6,2,omokagewarmruriko,0.9986506104469299,1
58,100,0.7818181818181819,364,0,35,DL_warm_Guitar,6,13,omokagewarmruriko,0.08797907829284668,0
70,100,0.3,655,1,35,DL_warm_Guitar,6,5,omokagewarmruriko,0.09298311918973923,0
62,100,0.17727272727272728,778,0,35,DL_warm_Guitar,6,3,omokagewarmruriko,0.1099463701248169,0
62,100,0.1590909090909091,823,0,35,DL_warm_Guitar,6,3,omokagewarmruriko,0.12866957485675812,0
58,100,0.740909090909091,866,0,35,DL_warm_Guitar,6,12,omokagewarmruriko,0.18221800029277802,0
70,100,0.3,193,1,36,DL_warm_Guitar,6,5,omokagewarmruriko,0.9984880685806274,1
58,100,0.4590909090909091,260,0,36,DL_warm_Guitar,6,7,omokagewarmruriko,0.06335372477769852,0
58,100,0.4636363636363636,378,0,36,DL_warm_Guitar,6,7,omokagewarmruriko,0.058288443833589554,0
58,100,0.6,515,0,36,DL_warm_Guitar,6,10,omokagewarmruriko,0.061361975967884064,0
70,100,0.11818181818181818,646,0,36,DL_warm_Guitar,6,2,omokagewarmruriko,0.07168037444353104,0
55,100,0.2818181818181818,686,0,36,DL_warm_Guitar,6,5,omokagewarmruriko,0.08473218977451324,0
60,100,0.11818181818181818,801,0,36,DL_warm_Guitar,6,2,omokagewarmruriko,0.12634633481502533,0
58,100,0.3,8,1,37,DL_warm_Guitar,6,5,omokagewarmruriko,0.9984880685806274,1
58,100,0.1590909090909091,166,0,37,DL_warm_Guitar,6,3,omokagewarmruriko,0.06335383653640747,0
58,100,1.0227272727272727,211,0,37,DL_warm_Guitar,6,15,omokagewarmruriko,0.05828739330172539,0
70,100,0.2,435,0,37,DL_warm_Guitar,6,3,omokagewarmruriko,0.06136254966259003,0
58,100,0.4409090909090909,483,0,37,DL_warm_Guitar,6,7,omokagewarmruriko,0.0716819018125534,0
55,100,0.11818181818181818,633,0,37,DL_warm_Guitar,6,2,omokagewarmruriko,0.08473470062017441,0
58,100,0.9,703,0,37,DL_warm_Guitar,6,14,omokagewarmruriko,0.12634477019309998,0
58,100,0.2409090909090909,34,1,38,DL_warm_Guitar,6,4,omokagewarmruriko,0.9986507296562195,1
68,100,0.17727272727272728,141,0,38,DL_warm_Guitar,6,3,omokagewarmruriko,0.08797731250524521,0
58,100,0.2590909090909091,281,0,38,DL_warm_Guitar,6,4,omokagewarmruriko,0.09298396855592728,0
58,100,0.2,444,0,38,DL_warm_Guitar,6,3,omokagewarmruriko,0.10995010286569595,0
68,100,0.16363636363636364,554,0,38,DL_warm_Guitar,6,3,omokagewarmruriko,0.1286662220954895,0
58,100,0.5818181818181818,726,0,38,DL_warm_Guitar,6,9,omokagewarmruriko,0.1822156310081482,0
68,100,0.6818181818181818,48,1,39,DL_warm_Guitar,6,11,omokagewarmruriko,0.9990280866622925,1
68,100,0.17727272727272728,206,0,39,DL_warm_Guitar,6,3,omokagewarmruriko,0.3703470528125763,0
58,100,0.6409090909090909,668,1,39,DL_warm_Guitar,6,10,omokagewarmruriko,0.4561663866043091,0
58,100,0.4590909090909091,0,1,40,DL_warm_Guitar,6,7,omokagewarmruriko,0.9988439083099365,1
58,100,0.3,383,1,40,DL_warm_Guitar,6,5,omokagewarmruriko,0.13797950744628906,0
70,100,0.1590909090909091,448,0,40,DL_warm_Guitar,6,3,omokagewarmruriko,0.16236406564712524,0
58,100,0.5,483,0,40,DL_warm_Guitar,6,8,omokagewarmruriko,0.19105525314807892,0
70,100,0.2409090909090909,703,0,40,DL_warm_Guitar,6,4,omokagewarmruriko,0.26196253299713135,0
58,100,0.740909090909091,31,1,41,DL_warm_Guitar,6,12,omokagewarmruriko,0.9986506104469299,1
70,100,0.22272727272727272,246,0,41,DL_warm_Guitar,6,4,omokagewarmruriko,0.08797954767942429,0
58,100,0.5,295,0,41,DL_warm_Guitar,6,8,omokagewarmruriko,0.09298305958509445,0
58,100,0.6590909090909091,435,0,41,DL_warm_Guitar,6,11,omokagewarmruriko,0.1099492609500885,0
70,100,0.2590909090909091,660,0,41,DL_warm_Guitar,6,4,omokagewarmruriko,0.12866994738578796,0
58,100,0.8227272727272728,716,0,41,DL_warm_Guitar,6,13,omokagewarmruriko,0.18220993876457214,0
58,100,0.4,75,1,42,DL_warm_Guitar,6,6,omokagewarmruriko,0.9990280866622925,1
60,100,0.12272727272727273,224,0,42,DL_warm_Guitar,6,2,omokagewarmruriko,0.3703610897064209,0
58,100,2.2772727272727273,260,0,42,DL_warm_Guitar,6,15,omokagewarmruriko,0.4561494290828705,0
58,100,0.2818181818181818,4,1,43,DL_warm_Guitar,6,5,omokagewarmruriko,0.9983735084533691,1
58,100,0.35909090909090907,83,0,43,DL_warm_Guitar,6,6,omokagewarmruriko,0.05105043947696686,0
68,100,0.3409090909090909,286,0,43,DL_warm_Guitar,6,5,omokagewarmruriko,0.041611332446336746,0
60,100,0.5,373,0,43,DL_warm_Guitar,6,8,omokagewarmruriko,0.037979163229465485,0
58,100,0.21818181818181817,501,0,43,DL_warm_Guitar,6,3,omokagewarmruriko,0.0392586886882782,0
68,100,0.12272727272727273,664,0,43,DL_warm_Guitar,6,2,omokagewarmruriko,0.04616381227970123,0
60,100,0.2590909090909091,703,0,43,DL_warm_Guitar,6,4,omokagewarmruriko,0.05713026598095894,0
58,100,0.6818181818181818,770,0,43,DL_warm_Guitar,6,11,omokagewarmruriko,0.09187690168619156,0
68,100,0.6,40,1,44,DL_warm_Guitar,6,10,omokagewarmruriko,0.9983231425285339,1
58,100,0.5409090909090909,716,1,44,DL_warm_Guitar,6,9,omokagewarmruriko,0.5462182760238647,1
58,100,0.33636363636363636,40,1,45,DL_warm_Guitar,6,5,omokagewarmruriko,0.9988439083099365,1
58,100,0.18181818181818182,131,0,45,DL_warm_Guitar,6,3,omokagewarmruriko,0.1379832774400711,0
58,100,0.2409090909090909,276,0,45,DL_warm_Guitar,6,4,omokagewarmruriko,0.16236506402492523,0
58,100,0.18181818181818182,483,0,45,DL_warm_Guitar,6,3,omokagewarmruriko,0.19106094539165497,0
58,100,1.8590909090909091,545,0,45,DL_warm_Guitar,6,15,omokagewarmruriko,0.2619515657424927,0
58,100,1.8,96,1,46,DL_warm_Guitar,6,15,omokagewarmruriko,0.9990094900131226,1
58,100,0.8,518,1,46,DL_warm_Guitar,6,13,omokagewarmruriko,0.23323753476142883,0
58,100,0.2,708,0,46,DL_warm_Guitar,6,3,omokagewarmruriko,0.2705831825733185,0
58,100,0.4590909090909091,848,0,46,DL_warm_Guitar,6,7,omokagewarmruriko,0.3579220175743103,0
60,100,0.6,171,1,47,DL_warm_Guitar,6,10,omokagewarmruriko,0.9990094900131226,1
58,100,0.7181818181818181,383,0,47,DL_warm_Guitar,6,11,omokagewarmruriko,0.23322425782680511,0
58,100,0.6181818181818182,593,0,47,DL_warm_Guitar,6,10,omokagewarmruriko,0.2705758810043335,0
58,100,0.3181818181818182,813,0,47,DL_warm_Guitar,6,5,omokagewarmruriko,0.35792651772499084,0
58,100,0.35909090909090907,118,1,48,DL_warm_Guitar,6,6,omokagewarmruriko,0.9990280866622925,1
60,100,0.22272727272727272,343,0,48,DL_warm_Guitar,6,4,omokagewarmruriko,0.37034326791763306,0
60,100,0.2818181818181818,708,1,48,DL_warm_Guitar,6,5,omokagewarmruriko,0.4561745822429657,0
60,100,0.16363636363636364,641,1,49,DL_warm_Guitar,6,3,omokagewarmruriko,0.9792243838310242,1
60,100,0.42272727272727273,69,1,50,DL_warm_Guitar,6,7,omokagewarmruriko,0.9990280866622925,1
53,100,0.2590909090909091,176,0,50,DL_warm_Guitar,6,4,omokagewarmruriko,0.37033501267433167,0
53,100,0.2409090909090909,241,0,50,DL_warm_Guitar,6,4,omokagewarmruriko,0.45617324113845825,0
58,100,0.41818181818181815,831,1,51,DL_warm_Guitar,6,7,omokagewarmruriko,0.979223370552063,1
53,100,0.5181818181818182,426,1,52,DL_warm_Guitar,6,8,omokagewarmruriko,0.9792241454124451,1
58,100,2.340909090909091,163,1,53,DL_warm_Guitar,6,15,omokagewarmruriko,0.9983231425285339,1
58,100,0.5590909090909091,845,1,53,DL_warm_Guitar,6,9,omokagewarmruriko,0.546217679977417,1
58,100,0.5636363636363636,114,1,54,DL_warm_Guitar,6,9,omokagewarmruriko,0.9983231425285339,1
58,100,5.318181818181818,295,0,54,DL_warm_Guitar,6,15,omokagewarmruriko,0.5461369752883911,1
60,100,1.8227272727272728,641,1,55,DL_warm_Guitar,6,15,omokagewarmruriko,0.9792236089706421,1
58,100,0.5181818181818182,171,1,56,DL_warm_Guitar,6,8,omokagewarmruriko,0.9988439083099365,1
58,100,0.21818181818181817,396,0,56,DL_warm_Guitar,6,3,omokagewarmruriko,0.13798245787620544,0
58,100,1.1181818181818182,448,0,56,DL_warm_Guitar,6,15,omokagewarmruriko,0.16236217319965363,0
58,100,0.4,703,1,56,DL_warm_Guitar,6,6,omokagewarmruriko,0.19105331599712372,0
58,100,0.4,871,0,56,DL_warm_Guitar,6,6,omokagewarmruriko,0.261961966753006,0
58,100,0.3181818181818182,678,1,57,DL_warm_Guitar,6,5,omokagewarmruriko,0.9983232617378235,1
58,100,0.5,810,0,57,DL_warm_Guitar,6,8,omokagewarmruriko,0.5462122559547424,1
58,100,0.2,386,1,58,DL_warm_Guitar,6,3,omokagewarmruriko,0.9990094900131226,1
58,100,0.7,435,0,58,DL_warm_Guitar,6,11,omokagewarmruriko,0.2332337498664856,0
58,100,0.5181818181818182,625,0,58,DL_warm_Guitar,6,8,omokagewarmruriko,0.2705864906311035,0
58,100,0.3,839,0,58,DL_warm_Guitar,6,5,omokagewarmruriko,0.3579248785972595,0
58,100,1.759090909090909,31,1,59,DL_warm_Guitar,6,15,omokagewarmruriko,0.9990094900131226,1
58,100,0.36363636363636365,444,1,59,DL_warm_Guitar,6,6,omokagewarmruriko,0.23324546217918396,0
58,100,0.36363636363636365,531,0,59,DL_warm_Guitar,6,6,omokagewarmruriko,0.27060115337371826,0
58,100,2.459090909090909,638,0,59,DL_warm_Guitar,6,15,omokagewarmruriko,0.357907772064209,0
58,100,0.4590909090909091,303,1,60,DL_warm_Guitar,6,7,omokagewarmruriko,0.9990280866622925,1
58,100,1.1,426,0,60,DL_warm_Guitar,6,15,omokagewarmruriko,0.37034285068511963,0
60,100,1.3818181818181818,791,1,60,DL_warm_Guitar,6,15,omokagewarmruriko,0.4561651945114136,0
60,100,0.4409090909090909,334,1,61,DL_warm_Guitar,6,7,omokagewarmruriko,0.9990094900131226,1
58,100,0.6409090909090909,483,0,61,DL_warm_Guitar,6,10,omokagewarmruriko,0.23323312401771545,0
58,100,0.6409090909090909,638,0,61,DL_warm_Guitar,6,10,omokagewarmruriko,0.2705787718296051,0
58,100,0.21818181818181817,858,0,61,DL_warm_Guitar,6,3,omokagewarmruriko,0.3579230010509491,0
60,100,0.6181818181818182,96,1,62,DL_warm_Guitar,6,10,omokagewarmruriko,0.9984879493713379,1
58,100,0.3409090909090909,246,0,62,DL_warm_Guitar,6,5,omokagewarmruriko,0.06335355341434479,0
58,100,0.21818181818181817,351,0,62,DL_warm_Guitar,6,3,omokagewarmruriko,0.058288730680942535,0
58,100,0.4409090909090909,440,0,62,DL_warm_Guitar,6,7,omokagewarmruriko,0.061362821608781815,0
60,100,0.11818181818181818,703,1,62,DL_warm_Guitar,6,2,omokagewarmruriko,0.07168164104223251,0
60,100,0.18181818181818182,813,0,62,DL_warm_Guitar,6,3,omokagewarmruriko,0.08473538607358932,0
58,100,0.8590909090909091,858,0,62,DL_warm_Guitar,6,14,omokagewarmruriko,0.12634335458278656,0
58,100,0.18181818181818182,92,1,64,DL_warm_Guitar,6,3,omokagewarmruriko,0.9988439083099365,1
58,100,0.6409090909090909,145,0,64,DL_warm_Guitar,6,10,omokagewarmruriko,0.1379793882369995,0
58,100,0.6,487,1,64,DL_warm_Guitar,6,10,omokagewarmruriko,0.16236373782157898,0
70,100,0.1590909090909091,743,1,64,DL_warm_Guitar,6,3,omokagewarmruriko,0.19105570018291473,0
58,100,0.13636363636363635,787,0,64,DL_warm_Guitar,6,2,omokagewarmruriko,0.2619650363922119,0
58,100,0.2772727272727273,30,1,65,DL_warm_Guitar,6,4,omokagewarmruriko,0.9990280866622925,1
58,100,0.2590909090909091,100,0,65,DL_warm_Guitar,6,4,omokagewarmruriko,0.3703344464302063,0
60,100,0.11818181818181818,787,1,65,DL_warm_Guitar,6,2,omokagewarmruriko,0.45617374777793884,0
60,100,0.12272727272727273,26,1,66,DL_warm_Guitar,6,2,omokagewarmruriko,0.9988439083099365,1
60,100,0.2409090909090909,123,0,66,DL_warm_Guitar,6,4,omokagewarmruriko,0.1379828304052353,0
60,100,1.3636363636363635,179,0,66,DL_warm_Guitar,6,15,omokagewarmruriko,0.162363663315773,0
60,100,0.23636363636363636,546,1,66,DL_warm_Guitar,6,4,omokagewarmruriko,0.19105449318885803,0
60,100,0.7181818181818181,787,1,66,DL_warm_Guitar,6,11,omokagewarmruriko,0.26196321845054626,0
60,100,0.9409090909090909,79,1,67,DL_warm_Guitar,6,15,omokagewarmruriko,0.9990280866622925,1
60,100,0.4772727272727273,502,1,67,DL_warm_Guitar,6,8,omokagewarmruriko,0.37033703923225403,0
60,100,0.3409090909090909,629,0,67,DL_warm_Guitar,6,5,omokagewarmruriko,0.4561719000339508,0
58,100,0.22272727272727272,26,1,68,DL_warm_Guitar,6,4,omokagewarmruriko,0.9990280866622925,1
58,100,0.2590909090909091,303,1,68,DL_warm_Guitar,6,4,omokagewarmruriko,0.37033510208129883,0
58,100,0.22272727272727272,597,1,68,DL_warm_Guitar,6,4,omokagewarmruriko,0.45617005228996277,0
58,100,0.2409090909090909,255,1,69,DL_warm_Guitar,6,4,omokagewarmruriko,0.9990280866622925,1
58,100,0.6772727272727272,536,1,69,DL_warm_Guitar,6,11,omokagewarmruriko,0.3703362047672272,0
58,100,0.5818181818181818,739,0,69,DL_warm_Guitar,6,9,omokagewarmruriko,0.45616915822029114,0
58,100,0.38181818181818183,440,1,70,DL_warm_Guitar,6,6,omokagewarmruriko,0.9983232617378235,1
60,100,0.6409090909090909,760,1,70,DL_warm_Guitar,6,10,omokagewarmruriko,0.5462203025817871,1
60,100,0.17727272727272728,172,1,71,DL_warm_Guitar,6,3,omokagewarmruriko,0.9990094900131226,1
60,100,0.18181818181818182,263,0,71,DL_warm_Guitar,6,3,omokagewarmruriko,0.23322951793670654,0
60,100,0.9409090909090909,316,0,71,DL_warm_Guitar,6,15,omokagewarmruriko,0.2705775499343872,0
70,100,0.43636363636363634,523,0,71,DL_warm_Guitar,6,7,omokagewarmruriko,0.3579273521900177,0
58,100,0.2409090909090909,343,1,73,DL_warm_Guitar,6,4,omokagewarmruriko,0.9990280866622925,1
58,100,0.7,559,0,73,DL_warm_Guitar,6,11,omokagewarmruriko,0.3703320622444153,0
58,100,0.740909090909091,729,0,73,DL_warm_Guitar,6,12,omokagewarmruriko,0.45617035031318665,0
58,100,0.13636363636363635,83,1,74,DL_warm_Guitar,6,2,omokagewarmruriko,0.9988439083099365,1
58,100,1.518181818181818,140,0,74,DL_warm_Guitar,6,15,omokagewarmruriko,0.13797976076602936,0
58,100,1.1181818181818182,502,1,74,DL_warm_Guitar,6,15,omokagewarmruriko,0.1623612344264984,0
70,100,0.11818181818181818,792,1,74,DL_warm_Guitar,6,2,omokagewarmruriko,0.19105742871761322,0
58,100,0.8636363636363636,817,0,74,DL_warm_Guitar,6,14,omokagewarmruriko,0.2619536519050598,0
58,100,0.21818181818181817,132,1,75,DL_warm_Guitar,6,3,omokagewarmruriko,0.9990094900131226,1
58,100,0.7636363636363637,487,1,75,DL_warm_Guitar,6,12,omokagewarmruriko,0.23323597013950348,0
58,100,0.2409090909090909,660,0,75,DL_warm_Guitar,6,4,omokagewarmruriko,0.27059224247932434,0
58,100,1.3636363636363635,752,0,75,DL_warm_Guitar,6,15,omokagewarmruriko,0.357911080121994,0
70,100,0.17727272727272728,172,1,76,DL_warm_Guitar,6,3,omokagewarmruriko,0.9984880685806274,1
58,100,0.41818181818181815,347,0,76,DL_warm_Guitar,6,7,omokagewarmruriko,0.0633518248796463,0
60,100,0.37727272727272726,470,0,76,DL_warm_Guitar,6,6,omokagewarmruriko,0.05828764662146568,0
70,100,0.11818181818181818,593,0,76,DL_warm_Guitar,6,2,omokagewarmruriko,0.061359476298093796,0
58,100,0.33636363636363636,633,0,76,DL_warm_Guitar,6,5,omokagewarmruriko,0.07168058305978775,0
58,100,0.2,783,0,76,DL_warm_Guitar,6,3,omokagewarmruriko,0.08472985029220581,0
60,100,0.11818181818181818,853,0,76,DL_warm_Guitar,6,2,omokagewarmruriko,0.1263493448495865,0
58,100,0.759090909090909,172,1,77,DL_warm_Guitar,6,12,omokagewarmruriko,0.9988439083099365,1
58,100,0.9,386,0,77,DL_warm_Guitar,6,14,omokagewarmruriko,0.1379813700914383,0
58,100,0.2818181818181818,593,0,77,DL_warm_Guitar,6,5,omokagewarmruriko,0.16236230731010437,0
60,100,0.5,743,0,77,DL_warm_Guitar,6,8,omokagewarmruriko,0.1910567730665207,0
58,100,0.6181818181818182,866,0,77,DL_warm_Guitar,6,10,omokagewarmruriko,0.2619645595550537,0
58,100,0.5409090909090909,136,1,78,DL_warm_Guitar,6,9,omokagewarmruriko,0.9988439083099365,1
58,100,0.11818181818181818,316,0,78,DL_warm_Guitar,6,2,omokagewarmruriko,0.1379823237657547,0
58,100,1.018181818181818,396,0,78,DL_warm_Guitar,6,15,omokagewarmruriko,0.16235975921154022,0
70,100,0.36363636363636365,619,0,78,DL_warm_Guitar,6,6,omokagewarmruriko,0.1910494863986969,0
58,100,0.37727272727272726,766,0,78,DL_warm_Guitar,6,6,omokagewarmruriko,0.26195788383483887,0
70,100,0.18181818181818182,176,1,79,DL_warm_Guitar,6,3,omokagewarmruriko,0.9983231425285339,1
58,100,1.240909090909091,220,0,79,DL_warm_Guitar,6,15,omokagewarmruriko,0.5462144613265991,1
58,100,0.2409090909090909,119,1,80,DL_warm_Guitar,6,4,omokagewarmruriko,0.9990094900131226,1
58,100,0.11818181818181818,220,0,80,DL_warm_Guitar,6,2,omokagewarmruriko,0.23323126137256622,0
58,100,0.32272727272727275,707,1,80,DL_warm_Guitar,6,5,omokagewarmruriko,0.2705816328525543,0
58,100,0.8818181818181818,783,0,80,DL_warm_Guitar,6,14,omokagewarmruriko,0.35791656374931335,0
70,100,0.37727272727272726,184,1,81,DL_warm_Guitar,6,6,omokagewarmruriko,0.9986507296562195,1
58,100,0.5409090909090909,396,0,81,DL_warm_Guitar,6,9,omokagewarmruriko,0.08797764778137207,0
60,100,0.2772727272727273,536,0,81,DL_warm_Guitar,6,4,omokagewarmruriko,0.09298408031463623,0
70,100,0.2772727272727273,612,0,81,DL_warm_Guitar,6,4,omokagewarmruriko,0.10994543135166168,0
58,100,0.6227272727272727,673,0,81,DL_warm_Guitar,6,10,omokagewarmruriko,0.1286657303571701,0
60,100,0.6590909090909091,813,0,81,DL_warm_Guitar,6,11,omokagewarmruriko,0.18221600353717804,0
58,100,0.2409090909090909,206,1,82,DL_warm_Guitar,6,4,omokagewarmruriko,0.9990094900131226,1
63,100,0.18181818181818182,453,1,82,DL_warm_Guitar,6,3,omokagewarmruriko,0.23323333263397217,0
63,100,0.1,496,0,82,DL_warm_Guitar,6,2,omokagewarmruriko,0.2705857753753662,0
63,100,0.4,619,0,82,DL_warm_Guitar,6,6,omokagewarmruriko,0.35792824625968933,0
58,100,0.11818181818181818,40,1,83,DL_warm_Guitar,6,2,omokagewarmruriko,0.9990280866622925,1
58,100,0.11818181818181818,83,0,83,DL_warm_Guitar,6,2,omokagewarmruriko,0.37034016847610474,0
58,100,0.5636363636363636,113,0,83,DL_warm_Guitar,6,9,omokagewarmruriko,0.4561680853366852,0
52,100,0.6227272727272727,246,1,0,DL_Remix_emotional_folk_Guitar,6,10,omokage_emotionalfolk,0.9986506104469299,1
59,100,0.2590909090909091,396,0,0,DL_Remix_emotional_folk_Guitar,6,4,omokage_emotionalfolk,0.08797984570264816,0
59,100,0.2,492,0,0,DL_Remix_emotional_folk_Guitar,6,3,omokage_emotionalfolk,0.09298370033502579,0
59,100,0.21818181818181817,559,0,0,DL_Remix_emotional_folk_Guitar,6,3,omokage_emotionalfolk,0.10994913429021835,0
59,100,0.18181818181818182,752,0,0,DL_Remix_emotional_folk_Guitar,6,3,omokage_emotionalfolk,0.12866996228694916,0
59,100,0.3,867,0,0,DL_Remix_emotional_folk_Guitar,6,5,omokage_emotionalfolk,0.18221639096736908,0
59,100,0.3409090909090909,136,1,1,DL_Remix_emotional_folk_Guitar,6,5,omokage_emotionalfolk,0.9990094900131226,1
52,100,0.32272727272727275,356,0,1,DL_Remix_emotional_folk_Guitar,6,5,omokage_emotionalfolk,0.23322980105876923,0
59,100,0.4590909090909091,458,0,1,DL_Remix_emotional_folk_Guitar,6,7,omokage_emotionalfolk,0.2705814838409424,0
61,100,0.18181818181818182,606,0,1,DL_Remix_emotional_folk_Guitar,6,3,omokage_emotionalfolk,0.3579290509223938,0
66,100,0.2,663,1,2,DL_Remix_emotional_folk_Guitar,6,3,omokage_emotionalfolk,0.9792242646217346,1
54,100,0.42272727272727273,34,1,3,DL_Remix_emotional_folk_Guitar,6,7,omokage_emotionalfolk,0.9984880685806274,1
54,100,0.1409090909090909,131,0,3,DL_Remix_emotional_folk_Guitar,6,2,omokage_emotionalfolk,0.0633537545800209,0
54,100,0.41818181818181815,396,1,3,DL_Remix_emotional_folk_Guitar,6,7,omokage_emotionalfolk,0.05828853324055672,0
54,100,0.1590909090909091,506,0,3,DL_Remix_emotional_folk_Guitar,6,3,omokage_emotionalfolk,0.06136086955666542,0
54,100,0.2818181818181818,553,0,3,DL_Remix_emotional_folk_Guitar,6,5,omokage_emotionalfolk,0.07168132811784744,0
54,100,0.1590909090909091,629,0,3,DL_Remix_emotional_folk_Guitar,6,3,omokage_emotionalfolk,0.08473411202430725,0
54,100,0.7,858,0,3,DL_Remix_emotional_folk_Guitar,6,11,omokage_emotionalfolk,0.12634578347206116,0
54,100,0.38181818181818183,135,1,4,DL_Remix_emotional_folk_Guitar,6,6,omokage_emotionalfolk,0.9986506104469299,1
54,100,0.1409090909090909,383,1,4,DL_Remix_emotional_folk_Guitar,6,2,omokage_emotionalfolk,0.08797860145568848,0
54,100,0.17727272727272728,427,0,4,DL_Remix_emotional_folk_Guitar,6,3,omokage_emotionalfolk,0.09298475086688995,0
59,100,0.6181818181818182,470,0,4,DL_Remix_emotional_folk_Guitar,6,10,omokage_emotionalfolk,0.10994654148817062,0
54,100,0.11818181818181818,624,0,4,DL_Remix_emotional_folk_Guitar,6,2,omokage_emotionalfolk,0.12867029011249542,0
59,100,0.6227272727272727,739,0,4,DL_Remix_emotional_folk_Guitar,6,10,omokage_emotionalfolk,0.1822185069322586,0
59,100,0.1409090909090909,0,1,5,DL_Remix_emotional_folk_Guitar,6,2,omokage_emotionalfolk,0.9990280866622925,1
54,100,0.18181818181818182,189,0,5,DL_Remix_emotional_folk_Guitar,6,3,omokage_emotionalfolk,0.3703382909297943,0
59,100,0.1,782,1,5,DL_Remix_emotional_folk_Guitar,6,2,omokage_emotionalfolk,0.45617204904556274,0
52,100,0.1409090909090909,0,1,6,DL_Remix_emotional_folk_Guitar,6,2,omokage_emotionalfolk,0.9990094900131226,1
59,100,0.2409090909090909,245,1,6,DL_Remix_emotional_folk_Guitar,6,4,omokage_emotionalfolk,0.2332305759191513,0
52,100,0.41818181818181815,440,0,6,DL_Remix_emotional_folk_Guitar,6,7,omokage_emotionalfolk,0.2705881893634796,0
52,100,1.1227272727272728,871,1,6,DL_Remix_emotional_folk_Guitar,6,15,omokage_emotionalfolk,0.357932448387146,0
59,100,0.11818181818181818,263,1,7,DL_Remix_emotional_folk_Guitar,6,2,omokage_emotionalfolk,0.9986506104469299,1
63,100,0.12272727272727273,541,1,7,DL_Remix_emotional_folk_Guitar,6,2,omokage_emotionalfolk,0.08797960728406906,0
63,100,0.1,585,0,7,DL_Remix_emotional_folk_Guitar,6,2,omokage_emotionalfolk,0.09298820793628693,0
63,100,0.2772727272727273,647,0,7,DL_Remix_emotional_folk_Guitar,6,4,omokage_emotionalfolk,0.10995494574308395,0
63,100,0.22272727272727272,739,0,7,DL_Remix_emotional_folk_Guitar,6,4,omokage_emotionalfolk,0.1286819726228714,0
63,100,0.2,826,0,7,DL_Remix_emotional_folk_Guitar,6,3,omokage_emotionalfolk,0.18223126232624054,0
59,100,0.7,53,1,8,DL_Remix_emotional_folk_Guitar,6,11,omokage_emotionalfolk,0.9990094900131226,1
59,100,0.4772727272727273,237,0,8,DL_Remix_emotional_folk_Guitar,6,8,omokage_emotionalfolk,0.23323659598827362,0
56,100,0.22272727272727272,519,1,8,DL_Remix_emotional_folk_Guitar,6,4,omokage_emotionalfolk,0.27058374881744385,0
56,100,0.2636363636363636,818,1,8,DL_Remix_emotional_folk_Guitar,6,4,omokage_emotionalfolk,0.35792648792266846,0
56,100,0.4818181818181818,3,1,9,DL_Remix_emotional_folk_Guitar,6,8,omokage_emotionalfolk,0.9990094900131226,1
56,100,0.33636363636363636,259,1,9,DL_Remix_emotional_folk_Guitar,6,5,omokage_emotionalfolk,0.23324307799339294,0
56,100,0.7636363636363637,553,1,9,DL_Remix_emotional_folk_Guitar,6,12,omokage_emotionalfolk,0.2705914378166199,0
56,100,0.9818181818181818,725,0,9,DL_Remix_emotional_folk_Guitar,6,15,omokage_emotionalfolk,0.357915461063385,0
57,100,0.3409090909090909,144,1,10,DL_Remix_emotional_folk_Guitar,6,5,omokage_emotionalfolk,0.9988439083099365,1
52,100,0.17727272727272728,369,0,10,DL_Remix_emotional_folk_Guitar,6,3,omokage_emotionalfolk,0.13798077404499054,0
52,100,0.1,440,0,10,DL_Remix_emotional_folk_Guitar,6,2,omokage_emotionalfolk,0.16236506402492523,0
64,100,0.18181818181818182,620,0,10,DL_Remix_emotional_folk_Guitar,6,3,omokage_emotionalfolk,0.19105598330497742,0
64,100,0.12272727272727273,663,0,10,DL_Remix_emotional_folk_Guitar,6,2,omokage_emotionalfolk,0.2619694769382477,0
59,100,0.12272727272727273,519,1,11,DL_Remix_emotional_folk_Guitar,6,2,omokage_emotionalfolk,0.9983231425285339,1
59,100,0.5590909090909091,845,1,11,DL_Remix_emotional_folk_Guitar,6,9,omokage_emotionalfolk,0.5462074279785156,1
59,100,0.2,259,1,12,DL_Remix_emotional_folk_Guitar,6,3,omokage_emotionalfolk,0.9990280866622925,1
52,100,0.11818181818181818,589,1,12,DL_Remix_emotional_folk_Guitar,6,2,omokage_emotionalfolk,0.37033364176750183,0
59,100,0.18181818181818182,804,0,12,DL_Remix_emotional_folk_Guitar,6,3,omokage_emotionalfolk,0.45616915822029114,0
63,100,0.7227272727272728,443,1,13,DL_Remix_emotional_folk_Guitar,6,12,omokage_emotionalfolk,0.9990280866622925,1
59,100,0.2,606,0,13,DL_Remix_emotional_folk_Guitar,6,3,omokage_emotionalfolk,0.37035462260246277,0
63,100,1.0,673,0,13,DL_Remix_emotional_folk_Guitar,6,15,omokage_emotionalfolk,0.45616719126701355,0
56,100,1.3636363636363635,510,1,14,DL_Remix_emotional_folk_Guitar,6,15,omokage_emotionalfolk,0.9792236089706421,1
56,100,0.3,273,1,15,DL_Remix_emotional_folk_Guitar,6,5,omokage_emotionalfolk,0.9990094900131226,1
54,100,0.1409090909090909,629,1,15,DL_Remix_emotional_folk_Guitar,6,2,omokage_emotionalfolk,0.23323005437850952,0
59,100,0.5363636363636364,744,0,15,DL_Remix_emotional_folk_Guitar,6,9,omokage_emotionalfolk,0.2705739438533783,0
52,100,0.7181818181818181,866,0,15,DL_Remix_emotional_folk_Guitar,6,11,omokage_emotionalfolk,0.3579241931438446,0
57,100,0.7,144,1,16,DL_Remix_emotional_folk_Guitar,6,11,omokage_emotionalfolk,0.9990280866622925,1
64,100,0.5409090909090909,299,0,16,DL_Remix_emotional_folk_Guitar,6,9,omokage_emotionalfolk,0.3703410029411316,0
54,100,0.2409090909090909,440,0,16,DL_Remix_emotional_folk_Guitar,6,4,omokage_emotionalfolk,0.4561748802661896,0
59,100,0.4409090909090909,52,1,17,DL_Remix_emotional_folk_Guitar,6,7,omokage_emotionalfolk,0.9990094900131226,1
52,100,0.2,220,0,17,DL_Remix_emotional_folk_Guitar,6,3,omokage_emotionalfolk,0.2332322895526886,0
52,100,0.6818181818181818,351,0,17,DL_Remix_emotional_folk_Guitar,6,11,omokage_emotionalfolk,0.27058568596839905,0
61,100,0.7,660,1,17,DL_Remix_emotional_folk_Guitar,6,11,omokage_emotionalfolk,0.3579290211200714,0
54,100,0.2409090909090909,92,1,18,DL_Remix_emotional_folk_Guitar,6,4,omokage_emotionalfolk,0.9988439083099365,1
54,100,0.1409090909090909,154,0,18,DL_Remix_emotional_folk_Guitar,6,2,omokage_emotionalfolk,0.13797862827777863,0
64,100,0.35909090909090907,395,1,18,DL_Remix_emotional_folk_Guitar,6,6,omokage_emotionalfolk,0.16236373782157898,0
63,100,0.1409090909090909,515,0,18,DL_Remix_emotional_folk_Guitar,6,2,omokage_emotionalfolk,0.1910509616136551,0
52,100,0.7,708,0,18,DL_Remix_emotional_folk_Guitar,6,11,omokage_emotionalfolk,0.2619639039039612,0
57,100,0.2818181818181818,0,1,19,DL_Remix_emotional_folk_Guitar,6,5,omokage_emotionalfolk,0.9983231425285339,1
64,100,0.5590909090909091,140,0,19,DL_Remix_emotional_folk_Guitar,6,9,omokage_emotionalfolk,0.5462163090705872,1
59,100,0.2,351,1,20,DL_Remix_emotional_folk_Guitar,6,3,omokage_emotionalfolk,0.9990094900131226,1
64,100,0.2590909090909091,492,0,20,DL_Remix_emotional_folk_Guitar,6,4,omokage_emotionalfolk,0.23323504626750946,0
64,100,0.1590909090909091,650,0,20,DL_Remix_emotional_folk_Guitar,6,3,omokage_emotionalfolk,0.2705910801887512,0
59,100,0.17727272727272728,831,0,20,DL_Remix_emotional_folk_Guitar,6,3,omokage_emotionalfolk,0.35793739557266235,0
59,100,0.33636363636363636,106,1,21,DL_Remix_emotional_folk_Guitar,6,5,omokage_emotionalfolk,0.9983232617378235,1
59,100,0.2818181818181818,708,1,21,DL_Remix_emotional_folk_Guitar,6,5,omokage_emotionalfolk,0.5462142825126648,1
54,100,0.1,457,1,22,DL_Remix_emotional_folk_Guitar,6,2,omokage_emotionalfolk,0.9986507296562195,1
66,100,0.2590909090909091,480,0,22,DL_Remix_emotional_folk_Guitar,6,4,omokage_emotionalfolk,0.08797889947891235,0
59,100,0.18181818181818182,540,0,22,DL_Remix_emotional_folk_Guitar,6,3,omokage_emotionalfolk,0.0929831862449646,0
66,100,0.2,625,0,22,DL_Remix_emotional_folk_Guitar,6,3,omokage_emotionalfolk,0.10994650423526764,0
66,100,0.11818181818181818,704,0,22,DL_Remix_emotional_folk_Guitar,6,2,omokage_emotionalfolk,0.12866860628128052,0
52,100,0.4590909090909091,791,0,22,DL_Remix_emotional_folk_Guitar,6,7,omokage_emotionalfolk,0.18221613764762878,0
52,100,0.2,44,1,23,DL_Remix_emotional_folk_Guitar,6,3,omokage_emotionalfolk,0.9986507296562195,1
57,100,0.7227272727272728,113,0,23,DL_Remix_emotional_folk_Guitar,6,12,omokage_emotionalfolk,0.08797930926084518,0
64,100,0.2818181818181818,505,1,23,DL_Remix_emotional_folk_Guitar,6,5,omokage_emotionalfolk,0.09298770129680634,0
57,100,0.16363636363636364,663,0,23,DL_Remix_emotional_folk_Guitar,6,3,omokage_emotionalfolk,0.10995252430438995,0
57,100,0.3,717,0,23,DL_Remix_emotional_folk_Guitar,6,5,omokage_emotionalfolk,0.1286741942167282,0
64,100,0.6590909090909091,822,0,23,DL_Remix_emotional_folk_Guitar,6,11,omokage_emotionalfolk,0.18222419917583466,0
59,100,0.13636363636363635,106,1,24,DL_Remix_emotional_folk_Guitar,6,2,omokage_emotionalfolk,0.9990280866622925,1
59,100,0.11818181818181818,303,0,24,DL_Remix_emotional_folk_Guitar,6,2,omokage_emotionalfolk,0.3703329265117645,0
64,100,1.0772727272727274,700,1,24,DL_Remix_emotional_folk_Guitar,6,15,omokage_emotionalfolk,0.45617228746414185,0
59,100,0.13636363636363635,260,1,25,DL_Remix_emotional_folk_Guitar,6,2,omokage_emotionalfolk,0.9990094900131226,1
64,100,0.7181818181818181,308,0,25,DL_Remix_emotional_folk_Guitar,6,11,omokage_emotionalfolk,0.23323145508766174,0
57,100,0.1,646,1,25,DL_Remix_emotional_folk_Guitar,6,2,omokage_emotionalfolk,0.27058008313179016,0
64,100,0.35909090909090907,673,0,25,DL_Remix_emotional_folk_Guitar,6,6,omokage_emotionalfolk,0.3579384386539459,0
64,100,0.1409090909090909,343,1,26,DL_Remix_emotional_folk_Guitar,6,2,omokage_emotionalfolk,0.9986506104469299,1
59,100,0.3409090909090909,497,0,26,DL_Remix_emotional_folk_Guitar,6,5,omokage_emotionalfolk,0.08797965198755264,0
54,100,0.18181818181818182,660,0,26,DL_Remix_emotional_folk_Guitar,6,3,omokage_emotionalfolk,0.09298385679721832,0
66,100,0.1409090909090909,739,0,26,DL_Remix_emotional_folk_Guitar,6,2,omokage_emotionalfolk,0.10994944721460342,0
66,100,0.12272727272727273,773,0,26,DL_Remix_emotional_folk_Guitar,6,2,omokage_emotionalfolk,0.12867099046707153,0
66,100,0.3,804,0,26,DL_Remix_emotional_folk_Guitar,6,5,omokage_emotionalfolk,0.18222004175186157,0
52,100,0.3181818181818182,17,1,27,DL_Remix_emotional_folk_Guitar,6,5,omokage_emotionalfolk,0.9990280866622925,1
56,100,0.1409090909090909,268,1,27,DL_Remix_emotional_folk_Guitar,6,2,omokage_emotionalfolk,0.3703334331512451,0
54,100,0.1,870,1,27,DL_Remix_emotional_folk_Guitar,6,2,omokage_emotionalfolk,0.4561740756034851,0
56,100,0.2409090909090909,88,1,28,DL_Remix_emotional_folk_Guitar,6,4,omokage_emotionalfolk,0.9983231425285339,1
61,100,0.2,378,1,28,DL_Remix_emotional_folk_Guitar,6,3,omokage_emotionalfolk,0.5462108254432678,1
59,100,0.3409090909090909,52,1,29,DL_Remix_emotional_folk_Guitar,6,5,omokage_emotionalfolk,0.9990094900131226,1
63,100,0.3,360,1,29,DL_Remix_emotional_folk_Guitar,6,5,omokage_emotionalfolk,0.2332344651222229,0
63,100,0.3,656,1,29,DL_Remix_emotional_folk_Guitar,6,5,omokage_emotionalfolk,0.2706005275249481,0
56,100,0.1409090909090909,752,0,29,DL_Remix_emotional_folk_Guitar,6,2,omokage_emotionalfolk,0.35792797803878784,0
59,100,0.17727272727272728,30,1,30,DL_Remix_emotional_folk_Guitar,6,3,omokage_emotionalfolk,0.9986507296562195,1
57,100,0.21818181818181817,206,0,30,DL_Remix_emotional_folk_Guitar,6,3,omokage_emotionalfolk,0.08798321336507797,0
57,100,0.1590909090909091,264,0,30,DL_Remix_emotional_folk_Guitar,6,3,omokage_emotionalfolk,0.09298888593912125,0
57,100,0.3181818181818182,505,1,30,DL_Remix_emotional_folk_Guitar,6,5,omokage_emotionalfolk,0.10995667427778244,0
57,100,0.2,646,0,30,DL_Remix_emotional_folk_Guitar,6,3,omokage_emotionalfolk,0.12867863476276398,0
57,100,0.7818181818181819,804,0,30,DL_Remix_emotional_folk_Guitar,6,13,omokage_emotionalfolk,0.18222664296627045,0
57,100,0.1,193,1,31,DL_Remix_emotional_folk_Guitar,6,2,omokage_emotionalfolk,0.9983231425285339,1
57,100,0.21818181818181817,241,0,31,DL_Remix_emotional_folk_Guitar,6,3,omokage_emotionalfolk,0.5462181568145752,1
54,100,0.1,201,1,32,DL_Remix_emotional_folk_Guitar,6,2,omokage_emotionalfolk,0.9983232617378235,1
63,100,0.2,531,1,32,DL_Remix_emotional_folk_Guitar,6,3,omokage_emotionalfolk,0.5462118983268738,1
57,100,0.2409090909090909,228,1,33,DL_Remix_emotional_folk_Guitar,6,4,omokage_emotionalfolk,0.9986506104469299,1
57,100,0.6181818181818182,426,0,33,DL_Remix_emotional_folk_Guitar,6,10,omokage_emotionalfolk,0.08798228949308395,0
64,100,0.5,584,0,33,DL_Remix_emotional_folk_Guitar,6,8,omokage_emotionalfolk,0.0929890125989914,0
64,100,0.2590909090909091,716,0,33,DL_Remix_emotional_folk_Guitar,6,4,omokage_emotionalfolk,0.10995445400476456,0
59,100,0.22272727272727272,774,0,33,DL_Remix_emotional_folk_Guitar,6,4,omokage_emotionalfolk,0.12868157029151917,0
64,100,0.5818181818181818,826,0,33,DL_Remix_emotional_folk_Guitar,6,9,omokage_emotionalfolk,0.18223059177398682,0
52,100,0.2,110,1,34,DL_Remix_emotional_folk_Guitar,6,3,omokage_emotionalfolk,0.9983004927635193,1
52,100,0.22272727272727272,158,0,34,DL_Remix_emotional_folk_Guitar,6,4,omokage_emotionalfolk,0.04466196894645691,0
59,100,0.11818181818181818,295,0,34,DL_Remix_emotional_folk_Guitar,6,2,omokage_emotionalfolk,0.033371586352586746,0
52,100,0.12272727272727273,378,0,34,DL_Remix_emotional_folk_Guitar,6,2,omokage_emotionalfolk,0.026948055252432823,0
52,100,0.1409090909090909,418,0,34,DL_Remix_emotional_folk_Guitar,6,2,omokage_emotionalfolk,0.024084147065877914,0
59,100,0.4,461,0,34,DL_Remix_emotional_folk_Guitar,6,6,omokage_emotionalfolk,0.02497280202805996,0
59,100,0.3181818181818182,681,0,34,DL_Remix_emotional_folk_Guitar,6,5,omokage_emotionalfolk,0.030647825449705124,0
59,100,0.1590909090909091,765,0,34,DL_Remix_emotional_folk_Guitar,6,3,omokage_emotionalfolk,0.04136902093887329,0
52,100,0.2590909090909091,801,0,34,DL_Remix_emotional_folk_Guitar,6,4,omokage_emotionalfolk,0.07206935435533524,0
52,100,0.4590909090909091,40,1,35,DL_Remix_emotional_folk_Guitar,6,7,omokage_emotionalfolk,0.9984880685806274,1
64,100,0.13636363636363635,150,0,35,DL_Remix_emotional_folk_Guitar,6,2,omokage_emotionalfolk,0.06335383653640747,0
64,100,0.18181818181818182,321,0,35,DL_Remix_emotional_folk_Guitar,6,3,omokage_emotionalfolk,0.058288976550102234,0
64,100,0.1409090909090909,440,0,35,DL_Remix_emotional_folk_Guitar,6,2,omokage_emotionalfolk,0.06136399880051613,0
52,100,0.1409090909090909,471,0,35,DL_Remix_emotional_folk_Guitar,6,2,omokage_emotionalfolk,0.07168383151292801,0
59,100,0.1409090909090909,664,0,35,DL_Remix_emotional_folk_Guitar,6,2,omokage_emotionalfolk,0.08473967760801315,0
59,100,0.3181818181818182,743,0,35,DL_Remix_emotional_folk_Guitar,6,5,omokage_emotionalfolk,0.1263534128665924,0
64,100,0.13636363636363635,150,1,36,DL_Remix_emotional_folk_Guitar,6,2,omokage_emotionalfolk,0.9986506104469299,1
59,100,0.12272727272727273,399,1,36,DL_Remix_emotional_folk_Guitar,6,2,omokage_emotionalfolk,0.08798011392354965,0
59,100,0.3,496,0,36,DL_Remix_emotional_folk_Guitar,6,5,omokage_emotionalfolk,0.09298241883516312,0
60,100,0.17727272727272728,603,0,36,DL_Remix_emotional_folk_Guitar,6,3,omokage_emotionalfolk,0.10994748771190643,0
60,100,0.2590909090909091,668,0,36,DL_Remix_emotional_folk_Guitar,6,4,omokage_emotionalfolk,0.1286674439907074,0
61,100,0.1409090909090909,866,0,36,DL_Remix_emotional_folk_Guitar,6,2,omokage_emotionalfolk,0.18221412599086761,0
61,100,0.3,144,1,37,DL_Remix_emotional_folk_Guitar,6,5,omokage_emotionalfolk,0.979223370552063,1
66,100,0.1590909090909091,34,1,38,DL_Remix_emotional_folk_Guitar,6,3,omokage_emotionalfolk,0.9988440275192261,1
66,100,0.1590909090909091,150,0,38,DL_Remix_emotional_folk_Guitar,6,3,omokage_emotionalfolk,0.13798139989376068,0
66,100,0.1590909090909091,241,0,38,DL_Remix_emotional_folk_Guitar,6,3,omokage_emotionalfolk,0.16236576437950134,0
63,100,0.21818181818181817,461,0,38,DL_Remix_emotional_folk_Guitar,6,3,omokage_emotionalfolk,0.19105148315429688,0
63,100,0.32272727272727275,598,0,38,DL_Remix_emotional_folk_Guitar,6,5,omokage_emotionalfolk,0.261968195438385,0
56,100,0.4,241,1,39,DL_Remix_emotional_folk_Guitar,6,6,omokage_emotionalfolk,0.9988439083099365,1
56,100,0.1,373,0,39,DL_Remix_emotional_folk_Guitar,6,2,omokage_emotionalfolk,0.13798408210277557,0
56,100,1.0227272727272727,399,0,39,DL_Remix_emotional_folk_Guitar,6,15,omokage_emotionalfolk,0.16235724091529846,0
57,100,0.1590909090909091,735,1,39,DL_Remix_emotional_folk_Guitar,6,3,omokage_emotionalfolk,0.19105015695095062,0
57,100,0.3409090909090909,866,0,39,DL_Remix_emotional_folk_Guitar,6,5,omokage_emotionalfolk,0.2619541883468628,0
57,100,0.4590909090909091,150,1,40,DL_Remix_emotional_folk_Guitar,6,7,omokage_emotionalfolk,0.9984880685806274,1
57,100,0.12272727272727273,268,0,40,DL_Remix_emotional_folk_Guitar,6,2,omokage_emotionalfolk,0.06335505098104477,0
64,100,0.7181818181818181,303,0,40,DL_Remix_emotional_folk_Guitar,6,11,omokage_emotionalfolk,0.05829077214002609,0
64,100,0.3409090909090909,576,1,40,DL_Remix_emotional_folk_Guitar,6,5,omokage_emotionalfolk,0.06136729568243027,0
57,100,0.5590909090909091,651,0,40,DL_Remix_emotional_folk_Guitar,6,9,omokage_emotionalfolk,0.07168659567832947,0
52,100,0.2590909090909091,778,0,40,DL_Remix_emotional_folk_Guitar,6,4,omokage_emotionalfolk,0.08474332094192505,0
57,100,0.37727272727272726,845,0,40,DL_Remix_emotional_folk_Guitar,6,6,omokage_emotionalfolk,0.1263531744480133,0
57,100,0.2,61,1,41,DL_Remix_emotional_folk_Guitar,6,3,omokage_emotionalfolk,0.9983736276626587,1
57,100,0.3,123,0,41,DL_Remix_emotional_folk_Guitar,6,5,omokage_emotionalfolk,0.05105026811361313,0
59,100,0.18181818181818182,241,0,41,DL_Remix_emotional_folk_Guitar,6,3,omokage_emotionalfolk,0.04161430150270462,0
59,100,0.7363636363636363,348,0,41,DL_Remix_emotional_folk_Guitar,6,12,omokage_emotionalfolk,0.037980817258358,0
64,100,0.3181818181818182,616,1,41,DL_Remix_emotional_folk_Guitar,6,5,omokage_emotionalfolk,0.03926064074039459,0
52,100,0.11818181818181818,713,0,41,DL_Remix_emotional_folk_Guitar,6,2,omokage_emotionalfolk,0.04616764560341835,0
64,100,0.22272727272727272,738,0,41,DL_Remix_emotional_folk_Guitar,6,4,omokage_emotionalfolk,0.05713190883398056,0
52,100,0.4,796,0,41,DL_Remix_emotional_folk_Guitar,6,6,omokage_emotionalfolk,0.09188318997621536,0
64,100,0.3,4,1,42,DL_Remix_emotional_folk_Guitar,6,5,omokage_emotionalfolk,0.9983004927635193,1
52,100,0.21818181818181817,75,0,42,DL_Remix_emotional_folk_Guitar,6,3,omokage_emotionalfolk,0.044662199914455414,0
64,100,0.3,163,0,42,DL_Remix_emotional_folk_Guitar,6,5,omokage_emotionalfolk,0.033372391015291214,0
52,100,0.42272727272727273,254,0,42,DL_Remix_emotional_folk_Guitar,6,7,omokage_emotionalfolk,0.026949480175971985,0
52,100,0.1590909090909091,351,0,42,DL_Remix_emotional_folk_Guitar,6,3,omokage_emotionalfolk,0.024085067212581635,0
52,100,0.759090909090909,396,0,42,DL_Remix_emotional_folk_Guitar,6,12,omokage_emotionalfolk,0.024974439293146133,0
57,100,0.1409090909090909,571,0,42,DL_Remix_emotional_folk_Guitar,6,2,omokage_emotionalfolk,0.030649710446596146,0
61,100,0.2818181818181818,791,0,42,DL_Remix_emotional_folk_Guitar,6,5,omokage_emotionalfolk,0.04137193039059639,0
54,100,0.11818181818181818,858,0,42,DL_Remix_emotional_folk_Guitar,6,2,omokage_emotionalfolk,0.07207479327917099,0
54,100,0.2,18,1,43,DL_Remix_emotional_folk_Guitar,6,3,omokage_emotionalfolk,0.9986506104469299,1
54,100,0.2,91,0,43,DL_Remix_emotional_folk_Guitar,6,3,omokage_emotionalfolk,0.08797922730445862,0
54,100,1.7772727272727273,141,0,43,DL_Remix_emotional_folk_Guitar,6,15,omokage_emotionalfolk,0.09298181533813477,0
54,100,0.13636363636363635,590,1,43,DL_Remix_emotional_folk_Guitar,6,2,omokage_emotionalfolk,0.1099482849240303,0
66,100,0.2818181818181818,619,0,43,DL_Remix_emotional_folk_Guitar,6,5,omokage_emotionalfolk,0.12866559624671936,0
54,100,0.1409090909090909,726,0,43,DL_Remix_emotional_folk_Guitar,6,2,omokage_emotionalfolk,0.18221165239810944,0
52,100,0.1409090909090909,43,1,44,DL_Remix_emotional_folk_Guitar,6,2,omokage_emotionalfolk,0.9988439083099365,1
64,100,0.2590909090909091,351,1,44,DL_Remix_emotional_folk_Guitar,6,4,omokage_emotionalfolk,0.13798381388187408,0
57,100,0.4,418,0,44,DL_Remix_emotional_folk_Guitar,6,6,omokage_emotionalfolk,0.16236741840839386,0
66,100,0.2,729,1,44,DL_Remix_emotional_folk_Guitar,6,3,omokage_emotionalfolk,0.19106630980968475,0
66,100,0.11818181818181818,831,0,44,DL_Remix_emotional_folk_Guitar,6,2,omokage_emotionalfolk,0.2619708776473999,0
66,100,0.11818181818181818,43,1,45,DL_Remix_emotional_folk_Guitar,6,2,omokage_emotionalfolk,0.9990094900131226,1
64,100,0.6409090909090909,431,1,45,DL_Remix_emotional_folk_Guitar,6,10,omokage_emotionalfolk,0.23322884738445282,0
59,100,0.5590909090909091,628,0,45,DL_Remix_emotional_folk_Guitar,6,9,omokage_emotionalfolk,0.270579993724823,0
64,100,0.8,861,1,45,DL_Remix_emotional_folk_Guitar,6,13,omokage_emotionalfolk,0.35792919993400574,0
64,100,0.37727272727272726,193,1,46,DL_Remix_emotional_folk_Guitar,6,6,omokage_emotionalfolk,0.9990094900131226,1
59,100,0.7,289,0,46,DL_Remix_emotional_folk_Guitar,6,11,omokage_emotionalfolk,0.2332313507795334,0
64,100,1.3181818181818181,448,0,46,DL_Remix_emotional_folk_Guitar,6,15,omokage_emotionalfolk,0.27058300375938416,0
52,100,0.11818181818181818,831,1,46,DL_Remix_emotional_folk_Guitar,6,2,omokage_emotionalfolk,0.3579348623752594,0
57,100,0.5818181818181818,373,1,47,DL_Remix_emotional_folk_Guitar,6,9,omokage_emotionalfolk,0.979223906993866,1
54,100,0.1590909090909091,198,1,48,DL_Remix_emotional_folk_Guitar,6,3,omokage_emotionalfolk,0.9990094900131226,1
63,100,0.12272727272727273,298,0,48,DL_Remix_emotional_folk_Guitar,6,2,omokage_emotionalfolk,0.2332262247800827,0
63,100,0.5590909090909091,523,0,48,DL_Remix_emotional_folk_Guitar,6,9,omokage_emotionalfolk,0.2705816626548767,0
54,100,0.1590909090909091,703,0,48,DL_Remix_emotional_folk_Guitar,6,3,omokage_emotionalfolk,0.3579404652118683,0
59,100,0.4,118,1,49,DL_Remix_emotional_folk_Guitar,6,6,omokage_emotionalfolk,0.9990280866622925,1
59,100,0.11818181818181818,260,0,49,DL_Remix_emotional_folk_Guitar,6,2,omokage_emotionalfolk,0.3703424632549286,0
54,100,0.2409090909090909,295,0,49,DL_Remix_emotional_folk_Guitar,6,4,omokage_emotionalfolk,0.45617204904556274,0
56,100,0.2,83,1,50,DL_Remix_emotional_folk_Guitar,6,3,omokage_emotionalfolk,0.9990280866622925,1
56,100,0.5590909090909091,515,1,50,DL_Remix_emotional_folk_Guitar,6,9,omokage_emotionalfolk,0.3703434467315674,0
56,100,0.759090909090909,700,0,50,DL_Remix_emotional_folk_Guitar,6,12,omokage_emotionalfolk,0.456163614988327,0
59,100,0.2636363636363636,378,1,53,DL_Remix_emotional_folk_Guitar,6,4,omokage_emotionalfolk,0.9990280866622925,1
59,100,0.1409090909090909,440,0,53,DL_Remix_emotional_folk_Guitar,6,2,omokage_emotionalfolk,0.3703478276729584,0
57,100,0.6409090909090909,506,0,53,DL_Remix_emotional_folk_Guitar,6,10,omokage_emotionalfolk,0.4561614394187927,0
63,100,0.11818181818181818,440,1,54,DL_Remix_emotional_folk_Guitar,6,2,omokage_emotionalfolk,0.9983232617378235,1
57,100,0.2409090909090909,584,0,54,DL_Remix_emotional_folk_Guitar,6,4,omokage_emotionalfolk,0.5462276935577393,1
57,100,0.6818181818181818,0,1,55,DL_Remix_emotional_folk_Guitar,6,11,omokage_emotionalfolk,0.9986506104469299,1
64,100,0.7,163,0,55,DL_Remix_emotional_folk_Guitar,6,11,omokage_emotionalfolk,0.08798160403966904,0
64,100,0.5181818181818182,483,1,55,DL_Remix_emotional_folk_Guitar,6,8,omokage_emotionalfolk,0.09298907220363617,0
52,100,0.11818181818181818,616,0,55,DL_Remix_emotional_folk_Guitar,6,2,omokage_emotionalfolk,0.10995600372552872,0
57,100,0.11818181818181818,646,0,55,DL_Remix_emotional_folk_Guitar,6,2,omokage_emotionalfolk,0.12867844104766846,0
57,100,0.5,729,0,55,DL_Remix_emotional_folk_Guitar,6,8,omokage_emotionalfolk,0.1822355091571808,0
59,100,0.12272727272727273,233,1,56,DL_Remix_emotional_folk_Guitar,6,2,omokage_emotionalfolk,0.9983232617378235,1
59,100,0.11818181818181818,330,0,56,DL_Remix_emotional_folk_Guitar,6,2,omokage_emotionalfolk,0.5462174415588379,1
64,100,0.2818181818181818,0,1,57,DL_Remix_emotional_folk_Guitar,6,5,omokage_emotionalfolk,0.9983735084533691,1
64,100,0.8,118,0,57,DL_Remix_emotional_folk_Guitar,6,13,omokage_emotionalfolk,0.0510500892996788,0
76,100,0.1590909090909091,295,0,57,DL_Remix_emotional_folk_Guitar,6,3,omokage_emotionalfolk,0.04161342605948448,0
52,100,0.2636363636363636,334,0,57,DL_Remix_emotional_folk_Guitar,6,4,omokage_emotionalfolk,0.03798128664493561,0
52,100,0.6,405,0,57,DL_Remix_emotional_folk_Guitar,6,10,omokage_emotionalfolk,0.03926229476928711,0
64,100,0.33636363636363636,611,0,57,DL_Remix_emotional_folk_Guitar,6,5,omokage_emotionalfolk,0.046167660504579544,0
52,100,0.21818181818181817,721,0,57,DL_Remix_emotional_folk_Guitar,6,3,omokage_emotionalfolk,0.05713583901524544,0
52,100,0.1409090909090909,796,0,57,DL_Remix_emotional_folk_Guitar,6,2,omokage_emotionalfolk,0.09188458323478699,0
59,100,0.21818181818181817,75,1,58,DL_Remix_emotional_folk_Guitar,6,3,omokage_emotionalfolk,0.9986506104469299,1
54,100,0.1590909090909091,298,0,58,DL_Remix_emotional_folk_Guitar,6,3,omokage_emotionalfolk,0.08797968924045563,0
64,100,0.2818181818181818,386,0,58,DL_Remix_emotional_folk_Guitar,6,5,omokage_emotionalfolk,0.09298475086688995,0
52,100,0.35909090909090907,483,0,58,DL_Remix_emotional_folk_Guitar,6,6,omokage_emotionalfolk,0.10994993150234222,0
64,100,0.33636363636363636,678,0,58,DL_Remix_emotional_folk_Guitar,6,5,omokage_emotionalfolk,0.12867297232151031,0
61,100,0.11818181818181818,813,0,58,DL_Remix_emotional_folk_Guitar,6,2,omokage_emotionalfolk,0.18222327530384064,0
66,100,0.12272727272727273,598,1,59,DL_Remix_emotional_folk_Guitar,6,2,omokage_emotionalfolk,0.9792248606681824,1
59,100,0.4590909090909091,144,1,60,DL_Remix_emotional_folk_Guitar,6,7,omokage_emotionalfolk,0.9988439083099365,1
59,100,0.2590909090909091,493,1,60,DL_Remix_emotional_folk_Guitar,6,4,omokage_emotionalfolk,0.1379801630973816,0
59,100,0.3,633,0,60,DL_Remix_emotional_folk_Guitar,6,5,omokage_emotionalfolk,0.1623634397983551,0
64,100,0.1409090909090909,708,0,60,DL_Remix_emotional_folk_Guitar,6,2,omokage_emotionalfolk,0.19105520844459534,0
64,100,0.17727272727272728,801,0,60,DL_Remix_emotional_folk_Guitar,6,3,omokage_emotionalfolk,0.2619672417640686,0
52,100,0.1590909090909091,40,1,61,DL_Remix_emotional_folk_Guitar,6,3,omokage_emotionalfolk,0.9990094900131226,1
66,100,0.2818181818181818,466,1,61,DL_Remix_emotional_folk_Guitar,6,5,omokage_emotionalfolk,0.23323304951190948,0
66,100,0.12272727272727273,576,0,61,DL_Remix_emotional_folk_Guitar,6,2,omokage_emotionalfolk,0.270589143037796,0
61,100,0.42272727272727273,738,0,61,DL_Remix_emotional_folk_Guitar,6,7,omokage_emotionalfolk,0.3579216003417969,0
57,100,0.41818181818181815,43,1,62,DL_Remix_emotional_folk_Guitar,6,7,omokage_emotionalfolk,0.9990094900131226,1
61,100,0.2818181818181818,408,1,62,DL_Remix_emotional_folk_Guitar,6,5,omokage_emotionalfolk,0.2332383096218109,0
64,100,0.1409090909090909,668,1,62,DL_Remix_emotional_folk_Guitar,6,2,omokage_emotionalfolk,0.27058711647987366,0
57,100,0.2,788,0,62,DL_Remix_emotional_folk_Guitar,6,3,omokage_emotionalfolk,0.3579303026199341,0
76,100,1.3590909090909091,145,1,64,DL_Remix_emotional_folk_Guitar,6,15,omokage_emotionalfolk,0.9990280866622925,1
52,100,1.3227272727272728,453,1,64,DL_Remix_emotional_folk_Guitar,6,15,omokage_emotionalfolk,0.37033697962760925,0
52,100,0.11818181818181818,792,1,64,DL_Remix_emotional_folk_Guitar,6,2,omokage_emotionalfolk,0.45617711544036865,0
59,100,0.6227272727272727,333,1,65,DL_Remix_emotional_folk_Guitar,6,10,omokage_emotionalfolk,0.9990094900131226,1
52,100,0.12272727272727273,540,0,65,DL_Remix_emotional_folk_Guitar,6,2,omokage_emotionalfolk,0.23322980105876923,0
52,100,0.38181818181818183,663,0,65,DL_Remix_emotional_folk_Guitar,6,6,omokage_emotionalfolk,0.2705734372138977,0
64,100,0.1590909090909091,832,0,65,DL_Remix_emotional_folk_Guitar,6,3,omokage_emotionalfolk,0.3579310178756714,0
59,100,0.2818181818181818,430,1,66,DL_Remix_emotional_folk_Guitar,6,5,omokage_emotionalfolk,0.9792236089706421,1
64,100,0.1,360,1,67,DL_Remix_emotional_folk_Guitar,6,2,omokage_emotionalfolk,0.9990094900131226,1
61,100,0.3,383,0,67,DL_Remix_emotional_folk_Guitar,6,5,omokage_emotionalfolk,0.23322762548923492,0
61,100,0.18181818181818182,519,0,67,DL_Remix_emotional_folk_Guitar,6,3,omokage_emotionalfolk,0.2705850899219513,0
61,100,0.2818181818181818,642,0,67,DL_Remix_emotional_folk_Guitar,6,5,omokage_emotionalfolk,0.3579285442829132,0
61,100,0.21818181818181817,612,1,68,DL_Remix_emotional_folk_Guitar,6,3,omokage_emotionalfolk,0.9983231425285339,1
56,100,0.35909090909090907,844,1,68,DL_Remix_emotional_folk_Guitar,6,6,omokage_emotionalfolk,0.5462102890014648,1
59,100,0.8590909090909091,110,1,69,DL_Remix_emotional_folk_Guitar,6,14,omokage_emotionalfolk,0.9988439083099365,1
59,100,0.1,443,1,69,DL_Remix_emotional_folk_Guitar,6,2,omokage_emotionalfolk,0.1379822939634323,0
56,100,0.12272727272727273,585,0,69,DL_Remix_emotional_folk_Guitar,6,2,omokage_emotionalfolk,0.16235820949077606,0
59,100,0.8227272727272728,695,0,69,DL_Remix_emotional_folk_Guitar,6,13,omokage_emotionalfolk,0.1910589337348938,0
63,100,0.21818181818181817,876,0,69,DL_Remix_emotional_folk_Guitar,6,3,omokage_emotionalfolk,0.26196205615997314,0
63,100,0.12272727272727273,56,1,70,DL_Remix_emotional_folk_Guitar,6,2,omokage_emotionalfolk,0.9988439083099365,1
64,100,0.17727272727272728,83,0,70,DL_Remix_emotional_folk_Guitar,6,3,omokage_emotionalfolk,0.137985497713089,0
64,100,0.42272727272727273,386,1,70,DL_Remix_emotional_folk_Guitar,6,7,omokage_emotionalfolk,0.16237004101276398,0
57,100,0.11818181818181818,536,0,70,DL_Remix_emotional_folk_Guitar,6,2,omokage_emotionalfolk,0.19106391072273254,0
64,100,0.8181818181818182,580,0,70,DL_Remix_emotional_folk_Guitar,6,13,omokage_emotionalfolk,0.261976420879364,0
57,100,0.4590909090909091,127,1,71,DL_Remix_emotional_folk_Guitar,6,7,omokage_emotionalfolk,0.9990280866622925,1
64,100,0.16363636363636364,729,1,71,DL_Remix_emotional_folk_Guitar,6,3,omokage_emotionalfolk,0.3703463077545166,0
64,100,0.1,832,0,71,DL_Remix_emotional_folk_Guitar,6,2,omokage_emotionalfolk,0.45617660880088806,0
59,100,0.2636363636363636,179,1,72,DL_Remix_emotional_folk_Guitar,6,4,omokage_emotionalfolk,0.9986506104469299,1
59,100,1.1590909090909092,260,0,72,DL_Remix_emotional_folk_Guitar,6,15,omokage_emotionalfolk,0.08797578513622284,0
59,100,0.43636363636363634,567,1,72,DL_Remix_emotional_folk_Guitar,6,7,omokage_emotionalfolk,0.09298213571310043,0
64,100,0.1409090909090909,663,0,72,DL_Remix_emotional_folk_Guitar,6,2,omokage_emotionalfolk,0.10994601994752884,0
59,100,0.21818181818181817,726,0,72,DL_Remix_emotional_folk_Guitar,6,3,omokage_emotionalfolk,0.12866778671741486,0
66,100,0.11818181818181818,823,0,72,DL_Remix_emotional_folk_Guitar,6,2,omokage_emotionalfolk,0.18221932649612427,0
54,100,0.41818181818181815,30,1,73,DL_Remix_emotional_folk_Guitar,6,7,omokage_emotionalfolk,0.9990094900131226,1
54,100,0.2590909090909091,172,0,73,DL_Remix_emotional_folk_Guitar,6,4,omokage_emotionalfolk,0.2332295924425125,0
54,100,0.1590909090909091,286,0,73,DL_Remix_emotional_folk_Guitar,6,3,omokage_emotionalfolk,0.27058321237564087,0
66,100,0.22272727272727272,430,0,73,DL_Remix_emotional_folk_Guitar,6,4,omokage_emotionalfolk,0.35792919993400574,0
61,100,0.17727272727272728,260,1,74,DL_Remix_emotional_folk_Guitar,6,3,omokage_emotionalfolk,0.9983231425285339,1
64,100,0.1409090909090909,792,1,74,DL_Remix_emotional_folk_Guitar,6,2,omokage_emotionalfolk,0.546220600605011,1
61,100,0.21818181818181817,30,1,75,DL_Remix_emotional_folk_Guitar,6,3,omokage_emotionalfolk,0.9983004927635193,1
59,100,0.17727272727272728,250,0,75,DL_Remix_emotional_folk_Guitar,6,3,omokage_emotionalfolk,0.04466233402490616,0
59,100,0.11818181818181818,303,0,75,DL_Remix_emotional_folk_Guitar,6,2,omokage_emotionalfolk,0.033371809870004654,0
59,100,0.38181818181818183,333,0,75,DL_Remix_emotional_folk_Guitar,6,6,omokage_emotionalfolk,0.02694760449230671,0
71,100,0.1409090909090909,487,0,75,DL_Remix_emotional_folk_Guitar,6,2,omokage_emotionalfolk,0.024084383621811867,0
59,100,0.2409090909090909,563,0,75,DL_Remix_emotional_folk_Guitar,6,4,omokage_emotionalfolk,0.02497239224612713,0
52,100,0.1590909090909091,722,0,75,DL_Remix_emotional_folk_Guitar,6,3,omokage_emotionalfolk,0.030648523941636086,0
61,100,0.12272727272727273,783,0,75,DL_Remix_emotional_folk_Guitar,6,2,omokage_emotionalfolk,0.04136737436056137,0
52,100,0.1,866,0,75,DL_Remix_emotional_folk_Guitar,6,2,omokage_emotionalfolk,0.07207300513982773,0
52,100,0.3,56,1,76,DL_Remix_emotional_folk_Guitar,6,5,omokage_emotionalfolk,0.9983735084533691,1
57,100,0.4409090909090909,157,0,76,DL_Remix_emotional_folk_Guitar,6,7,omokage_emotionalfolk,0.05105032026767731,0
76,100,0.2590909090909091,273,0,76,DL_Remix_emotional_folk_Guitar,6,4,omokage_emotionalfolk,0.0416145958006382,0
57,100,0.5181818181818182,339,0,76,DL_Remix_emotional_folk_Guitar,6,8,omokage_emotionalfolk,0.037981707602739334,0
52,100,0.4409090909090909,509,0,76,DL_Remix_emotional_folk_Guitar,6,7,omokage_emotionalfolk,0.03926292434334755,0
52,100,0.2409090909090909,747,1,76,DL_Remix_emotional_folk_Guitar,6,4,omokage_emotionalfolk,0.046168334782123566,0
64,100,0.17727272727272728,800,0,76,DL_Remix_emotional_folk_Guitar,6,3,omokage_emotionalfolk,0.057134922593832016,0
64,100,1.0,849,0,76,DL_Remix_emotional_folk_Guitar,6,15,omokage_emotionalfolk,0.0918835699558258,0
54,100,0.11818181818181818,193,1,77,DL_Remix_emotional_folk_Guitar,6,2,omokage_emotionalfolk,0.9988439083099365,1
63,100,0.2409090909090909,255,0,77,DL_Remix_emotional_folk_Guitar,6,4,omokage_emotionalfolk,0.13798151910305023,0
64,100,0.11818181818181818,480,0,77,DL_Remix_emotional_folk_Guitar,6,2,omokage_emotionalfolk,0.162367582321167,0
64,100,0.2409090909090909,585,0,77,DL_Remix_emotional_folk_Guitar,6,4,omokage_emotionalfolk,0.19106225669384003,0
64,100,0.5409090909090909,690,0,77,DL_Remix_emotional_folk_Guitar,6,9,omokage_emotionalfolk,0.26197129487991333,0
56,100,0.3181818181818182,150,1,78,DL_Remix_emotional_folk_Guitar,6,5,omokage_emotionalfolk,0.9988439083099365,1
61,100,0.1,307,0,78,DL_Remix_emotional_folk_Guitar,6,2,omokage_emotionalfolk,0.13797537982463837,0
64,100,0.23636363636363636,502,0,78,DL_Remix_emotional_folk_Guitar,6,4,omokage_emotionalfolk,0.16235916316509247,0
61,100,0.11818181818181818,660,0,78,DL_Remix_emotional_folk_Guitar,6,2,omokage_emotionalfolk,0.19104927778244019,0
64,100,0.2,866,0,78,DL_Remix_emotional_folk_Guitar,6,3,omokage_emotionalfolk,0.2619640827178955,0
57,100,0.2772727272727273,40,1,79,DL_Remix_emotional_folk_Guitar,6,4,omokage_emotionalfolk,0.9983736276626587,1
57,100,0.2590909090909091,110,0,79,DL_Remix_emotional_folk_Guitar,6,4,omokage_emotionalfolk,0.05105016008019447,0
64,100,0.11818181818181818,176,0,79,DL_Remix_emotional_folk_Guitar,6,2,omokage_emotionalfolk,0.04161320626735687,0
57,100,0.37727272727272726,206,0,79,DL_Remix_emotional_folk_Guitar,6,6,omokage_emotionalfolk,0.03798017278313637,0
52,100,0.2409090909090909,470,1,79,DL_Remix_emotional_folk_Guitar,6,4,omokage_emotionalfolk,0.03926094248890877,0
64,100,0.6590909090909091,624,0,79,DL_Remix_emotional_folk_Guitar,6,11,omokage_emotionalfolk,0.04616592079401016,0
52,100,0.1,773,0,79,DL_Remix_emotional_folk_Guitar,6,2,omokage_emotionalfolk,0.05713373422622681,0
64,100,0.4818181818181818,796,0,79,DL_Remix_emotional_folk_Guitar,6,8,omokage_emotionalfolk,0.09188318997621536,0
64,100,0.2409090909090909,422,1,80,DL_Remix_emotional_folk_Guitar,6,4,omokage_emotionalfolk,0.9990094900131226,1
76,100,0.17727272727272728,580,0,80,DL_Remix_emotional_folk_Guitar,6,3,omokage_emotionalfolk,0.23322798311710358,0
64,100,0.16363636363636364,619,0,80,DL_Remix_emotional_folk_Guitar,6,3,omokage_emotionalfolk,0.2705792486667633,0
64,100,0.22272727272727272,760,0,80,DL_Remix_emotional_folk_Guitar,6,4,omokage_emotionalfolk,0.35793203115463257,0
61,100,0.3,9,1,81,DL_Remix_emotional_folk_Guitar,6,5,omokage_emotionalfolk,0.9990094900131226,1
61,100,0.2636363636363636,729,1,81,DL_Remix_emotional_folk_Guitar,6,4,omokage_emotionalfolk,0.2332322895526886,0
59,100,0.12272727272727273,817,0,81,DL_Remix_emotional_folk_Guitar,6,2,omokage_emotionalfolk,0.2705884873867035,0
61,100,0.12272727272727273,870,0,81,DL_Remix_emotional_folk_Guitar,6,2,omokage_emotionalfolk,0.3579312264919281,0
64,100,0.13636363636363635,17,1,82,DL_Remix_emotional_folk_Guitar,6,2,omokage_emotionalfolk,0.9990094900131226,1
66,100,0.3409090909090909,255,1,82,DL_Remix_emotional_folk_Guitar,6,5,omokage_emotionalfolk,0.23323659598827362,0
66,100,0.2590909090909091,404,0,82,DL_Remix_emotional_folk_Guitar,6,4,omokage_emotionalfolk,0.27058687806129456,0
63,100,0.38181818181818183,673,1,82,DL_Remix_emotional_folk_Guitar,6,6,omokage_emotionalfolk,0.357925146818161,0
60,100,0.1409090909090909,289,1,83,DL_Remix_emotional_folk_Guitar,6,2,omokage_emotionalfolk,0.9990094900131226,1
60,100,0.32272727272727275,386,0,83,DL_Remix_emotional_folk_Guitar,6,5,omokage_emotionalfolk,0.233235165476799,0
63,100,0.1409090909090909,466,0,83,DL_Remix_emotional_folk_Guitar,6,2,omokage_emotionalfolk,0.2705846428871155,0
61,100,0.6409090909090909,536,0,83,DL_Remix_emotional_folk_Guitar,6,10,omokage_emotionalfolk,0.35792970657348633,0
64,100,0.1590909090909091,79,1,84,DL_Remix_emotional_folk_Guitar,6,3,omokage_emotionalfolk,0.9986506104469299,1
61,100,0.22272727272727272,157,0,84,DL_Remix_emotional_folk_Guitar,6,4,omokage_emotionalfolk,0.087980717420578,0
57,100,0.6363636363636364,413,1,84,DL_Remix_emotional_folk_Guitar,6,10,omokage_emotionalfolk,0.09298647195100784,0
59,100,0.11818181818181818,616,0,84,DL_Remix_emotional_folk_Guitar,6,2,omokage_emotionalfolk,0.10995406657457352,0
59,100,0.18181818181818182,716,0,84,DL_Remix_emotional_folk_Guitar,6,3,omokage_emotionalfolk,0.1286773532629013,0
57,100,0.3181818181818182,787,0,84,DL_Remix_emotional_folk_Guitar,6,5,omokage_emotionalfolk,0.1822262406349182,0
64,100,0.8181818181818182,9,1,85,DL_Remix_emotional_folk_Guitar,6,13,omokage_emotionalfolk,0.9990280866622925,1
64,100,0.1,193,0,85,DL_Remix_emotional_folk_Guitar,6,2,omokage_emotionalfolk,0.3703436553478241,0
63,100,0.4409090909090909,506,1,85,DL_Remix_emotional_folk_Guitar,6,7,omokage_emotionalfolk,0.45616623759269714,0
59,100,0.12272727272727273,123,1,86,DL_Remix_emotional_folk_Guitar,6,2,omokage_emotionalfolk,0.9983231425285339,1
64,100,0.7636363636363637,796,1,86,DL_Remix_emotional_folk_Guitar,6,12,omokage_emotionalfolk,0.5462183952331543,1
59,100,0.740909090909091,246,1,87,DL_Remix_emotional_folk_Guitar,6,12,omokage_emotionalfolk,0.9990280866622925,1
59,100,0.3181818181818182,493,1,87,DL_Remix_emotional_folk_Guitar,6,5,omokage_emotionalfolk,0.37033960223197937,0
66,100,0.17727272727272728,677,0,87,DL_Remix_emotional_folk_Guitar,6,3,omokage_emotionalfolk,0.4561726450920105,0
63,100,0.1409090909090909,184,1,88,DL_Remix_emotional_folk_Guitar,6,2,omokage_emotionalfolk,0.9990094900131226,1
63,100,0.35909090909090907,220,0,88,DL_Remix_emotional_folk_Guitar,6,6,omokage_emotionalfolk,0.2332313507795334,0
59,100,0.7,299,0,88,DL_Remix_emotional_folk_Guitar,6,11,omokage_emotionalfolk,0.27059057354927063,0
52,100,0.4818181818181818,496,0,88,DL_Remix_emotional_folk_Guitar,6,8,omokage_emotionalfolk,0.3579349219799042,0
64,100,0.2,43,1,89,DL_Remix_emotional_folk_Guitar,6,3,omokage_emotionalfolk,0.9990094900131226,1
64,100,0.3,237,0,89,DL_Remix_emotional_folk_Guitar,6,5,omokage_emotionalfolk,0.23324036598205566,0
69,100,0.2,356,0,89,DL_Remix_emotional_folk_Guitar,6,3,omokage_emotionalfolk,0.2705919146537781,0
66,100,1.2818181818181817,496,0,89,DL_Remix_emotional_folk_Guitar,6,15,omokage_emotionalfolk,0.3579220175743103,0
53,100,0.22272727272727272,488,1,0,DL_Remix_Guitar,6,4,omokage,0.9990280866622925,1
58,100,0.21818181818181817,682,0,0,DL_Remix_Guitar,6,3,omokage,0.3703441619873047,0
58,100,0.5818181818181818,748,0,0,DL_Remix_Guitar,6,9,omokage,0.4561645984649658,0
62,100,0.6636363636363637,4,1,1,DL_Remix_Guitar,6,11,omokage,0.9986506104469299,1
53,100,0.37727272727272726,163,0,1,DL_Remix_Guitar,6,6,omokage,0.08798037469387054,0
58,100,0.18181818181818182,255,0,1,DL_Remix_Guitar,6,3,omokage,0.09298880398273468,0
63,100,0.12272727272727273,597,1,1,DL_Remix_Guitar,6,2,omokage,0.10995133966207504,0
63,100,0.5,651,0,1,DL_Remix_Guitar,6,8,omokage,0.12867462635040283,0
58,100,0.3409090909090909,823,0,1,DL_Remix_Guitar,6,5,omokage,0.18222802877426147,0
53,100,0.2818181818181818,21,1,2,DL_Remix_Guitar,6,5,omokage,0.9990094900131226,1
60,100,0.3409090909090909,220,0,2,DL_Remix_Guitar,6,5,omokage,0.2332274168729782,0
65,100,0.6772727272727272,348,0,2,DL_Remix_Guitar,6,11,omokage,0.2705755829811096,0
60,100,0.32272727272727275,541,0,2,DL_Remix_Guitar,6,5,omokage,0.35792669653892517,0
53,100,0.9,61,1,3,DL_Remix_Guitar,6,14,omokage,0.9990094900131226,1
58,100,0.3409090909090909,263,0,3,DL_Remix_Guitar,6,5,omokage,0.23322829604148865,0
53,100,0.12272727272727273,364,0,3,DL_Remix_Guitar,6,2,omokage,0.27057310938835144,0
53,100,0.32272727272727275,818,1,3,DL_Remix_Guitar,6,5,omokage,0.35791775584220886,0
58,100,0.12272727272727273,56,1,4,DL_Remix_Guitar,6,2,omokage,0.9988439083099365,1
58,100,0.1409090909090909,255,0,4,DL_Remix_Guitar,6,2,omokage,0.13798220455646515,0
63,100,0.5409090909090909,532,1,4,DL_Remix_Guitar,6,9,omokage,0.162356436252594,0
53,100,0.2,695,0,4,DL_Remix_Guitar,6,3,omokage,0.19105598330497742,0
53,100,0.8818181818181818,813,0,4,DL_Remix_Guitar,6,14,omokage,0.26195916533470154,0
65,100,0.2409090909090909,263,1,5,DL_Remix_Guitar,6,4,omokage,0.9983231425285339,1
65,100,1.3181818181818181,637,1,5,DL_Remix_Guitar,6,15,omokage,0.546204149723053,1
62,100,0.1590909090909091,220,1,10,DL_Remix_Guitar,6,3,omokage,0.9983231425285339,1
69,100,0.2772727272727273,744,1,10,DL_Remix_Guitar,6,4,omokage,0.5462201833724976,1
65,100,0.6181818181818182,457,1,13,DL_Remix_Guitar,6,10,omokage,0.9983232617378235,1
65,100,0.22272727272727272,598,0,13,DL_Remix_Guitar,6,4,omokage,0.546212911605835,1
62,100,0.6227272727272727,166,1,14,DL_Remix_Guitar,6,10,omokage,0.9990280866622925,1
62,100,0.21818181818181817,307,0,14,DL_Remix_Guitar,6,3,omokage,0.370339035987854,0
58,100,0.22272727272727272,862,1,14,DL_Remix_Guitar,6,4,omokage,0.4561765193939209,0
62,100,0.21818181818181817,360,1,15,DL_Remix_Guitar,6,3,omokage,0.9990280866622925,1
58,100,0.6409090909090909,563,0,15,DL_Remix_Guitar,6,10,omokage,0.3703477680683136,0
53,100,0.32272727272727275,716,0,15,DL_Remix_Guitar,6,5,omokage,0.4561697542667389,0
58,100,0.35909090909090907,162,1,16,DL_Remix_Guitar,6,6,omokage,0.9990280866622925,1
53,100,1.018181818181818,413,1,16,DL_Remix_Guitar,6,15,omokage,0.3703402578830719,0
60,100,1.0,822,1,16,DL_Remix_Guitar,6,15,omokage,0.45616915822029114,0
53,100,0.1409090909090909,34,1,18,DL_Remix_Guitar,6,2,omokage,0.9990094900131226,1
53,100,0.1409090909090909,430,1,18,DL_Remix_Guitar,6,2,omokage,0.23322933912277222,0
53,100,0.2,474,0,18,DL_Remix_Guitar,6,3,omokage,0.2705788314342499,0
58,100,0.4590909090909091,835,1,18,DL_Remix_Guitar,6,7,omokage,0.35792332887649536,0
53,100,0.1409090909090909,804,1,19,DL_Remix_Guitar,6,2,omokage,0.9792241454124451,1
53,100,0.5181818181818182,492,1,20,DL_Remix_Guitar,6,8,omokage,0.9983231425285339,1
53,100,0.11818181818181818,725,1,20,DL_Remix_Guitar,6,2,omokage,0.5462176203727722,1
58,100,0.35909090909090907,611,1,21,DL_Remix_Guitar,6,6,omokage,0.9990280866622925,1
58,100,0.1,694,0,21,DL_Remix_Guitar,6,2,omokage,0.37034985423088074,0
62,100,0.8181818181818182,770,0,21,DL_Remix_Guitar,6,13,omokage,0.45616623759269714,0
58,100,0.6772727272727272,347,1,22,DL_Remix_Guitar,6,11,omokage,0.9792234897613525,1
65,100,0.6409090909090909,96,1,23,DL_Remix_Guitar,6,10,omokage,0.979223370552063,1
58,100,0.1590909090909091,413,1,24,DL_Remix_Guitar,6,3,omokage,0.9792242646217346,1
65,100,0.5772727272727273,127,1,25,DL_Remix_Guitar,6,9,omokage,0.9990280866622925,1
58,100,0.2,370,1,25,DL_Remix_Guitar,6,3,omokage,0.3703540563583374,0
65,100,0.6,725,1,25,DL_Remix_Guitar,6,10,omokage,0.4561630189418793,0
63,100,0.9409090909090909,449,1,27,DL_Remix_Guitar,6,15,omokage,0.9983231425285339,1
63,100,0.3409090909090909,708,1,27,DL_Remix_Guitar,6,5,omokage,0.5462210774421692,1
63,100,0.11818181818181818,65,1,28,DL_Remix_Guitar,6,2,omokage,0.9988439083099365,1
63,100,0.21818181818181817,119,0,28,DL_Remix_Guitar,6,3,omokage,0.13798192143440247,0
53,100,0.18181818181818182,202,0,28,DL_Remix_Guitar,6,3,omokage,0.16236568987369537,0
65,100,0.2,241,0,28,DL_Remix_Guitar,6,3,omokage,0.1910611242055893,0
65,100,0.35909090909090907,739,1,28,DL_Remix_Guitar,6,6,omokage,0.2619703412055969,0
65,100,1.0,260,1,29,DL_Remix_Guitar,6,15,omokage,0.9988439083099365,1
65,100,0.1409090909090909,515,1,29,DL_Remix_Guitar,6,2,omokage,0.13798190653324127,0
53,100,0.2409090909090909,553,0,29,DL_Remix_Guitar,6,4,omokage,0.16236037015914917,0
53,100,0.1,787,1,29,DL_Remix_Guitar,6,2,omokage,0.1910543292760849,0
53,100,0.3409090909090909,858,0,29,DL_Remix_Guitar,6,5,omokage,0.26195603609085083,0
53,100,0.1,289,1,30,DL_Remix_Guitar,6,2,omokage,0.9988439083099365,1
53,100,0.5363636363636364,413,0,30,DL_Remix_Guitar,6,9,omokage,0.13798096776008606,0
53,100,0.4590909090909091,581,0,30,DL_Remix_Guitar,6,7,omokage,0.16236145794391632,0
53,100,0.12272727272727273,760,0,30,DL_Remix_Guitar,6,2,omokage,0.19105710089206696,0
53,100,0.2818181818181818,791,0,30,DL_Remix_Guitar,6,5,omokage,0.2619583308696747,0
58,100,0.5227272727272727,201,1,32,DL_Remix_Guitar,6,8,omokage,0.9990280866622925,1
53,100,0.1409090909090909,804,1,32,DL_Remix_Guitar,6,2,omokage,0.3703313171863556,0
58,100,0.2590909090909091,836,0,32,DL_Remix_Guitar,6,4,omokage,0.4561668932437897,0
53,100,0.38181818181818183,13,1,33,DL_Remix_Guitar,6,6,omokage,0.9986506104469299,1
53,100,0.5590909090909091,105,0,33,DL_Remix_Guitar,6,9,omokage,0.08797811716794968,0
53,100,0.38181818181818183,378,1,33,DL_Remix_Guitar,6,6,omokage,0.09298168867826462,0
65,100,0.41818181818181815,461,0,33,DL_Remix_Guitar,6,7,omokage,0.10994555056095123,0
53,100,0.4636363636363636,554,0,33,DL_Remix_Guitar,6,7,omokage,0.12866637110710144,0
55,100,0.43636363636363634,678,0,33,DL_Remix_Guitar,6,7,omokage,0.18221114575862885,0
55,100,0.2772727272727273,215,1,34,DL_Remix_Guitar,6,4,omokage,0.9990094900131226,1
53,100,0.18181818181818182,321,0,34,DL_Remix_Guitar,6,3,omokage,0.233226478099823,0
60,100,0.16363636363636364,421,0,34,DL_Remix_Guitar,6,3,omokage,0.27058422565460205,0
53,100,1.2,681,1,34,DL_Remix_Guitar,6,15,omokage,0.3579173684120178,0
53,100,0.18181818181818182,69,1,35,DL_Remix_Guitar,6,3,omokage,0.9988439083099365,1
65,100,0.37727272727272726,435,1,35,DL_Remix_Guitar,6,6,omokage,0.137980118393898,0
65,100,0.32272727272727275,738,1,35,DL_Remix_Guitar,6,5,omokage,0.16235868632793427,0
65,100,0.11818181818181818,845,0,35,DL_Remix_Guitar,6,2,omokage,0.19104893505573273,0
65,100,0.2590909090909091,875,0,35,DL_Remix_Guitar,6,4,omokage,0.26195505261421204,0
63,100,0.1409090909090909,75,1,36,DL_Remix_Guitar,6,2,omokage,0.9988439083099365,1
53,100,0.6409090909090909,311,1,36,DL_Remix_Guitar,6,10,omokage,0.13798584043979645,0
53,100,0.8590909090909091,458,0,36,DL_Remix_Guitar,6,14,omokage,0.162363663315773,0
53,100,0.2590909090909091,694,1,36,DL_Remix_Guitar,6,4,omokage,0.1910628080368042,0
53,100,0.9,756,0,36,DL_Remix_Guitar,6,14,omokage,0.26196160912513733,0
53,100,0.1590909090909091,88,1,37,DL_Remix_Guitar,6,3,omokage,0.9983231425285339,1
53,100,0.2590909090909091,721,1,37,DL_Remix_Guitar,6,4,omokage,0.5462157130241394,1
63,100,0.17727272727272728,163,1,38,DL_Remix_Guitar,6,3,omokage,0.9990094900131226,1
53,100,0.1590909090909091,518,1,38,DL_Remix_Guitar,6,3,omokage,0.2332417368888855,0
53,100,0.1409090909090909,638,0,38,DL_Remix_Guitar,6,2,omokage,0.2705859839916229,0
53,100,0.5409090909090909,694,0,38,DL_Remix_Guitar,6,9,omokage,0.3579375147819519,0
58,100,0.1409090909090909,233,1,39,DL_Remix_Guitar,6,2,omokage,0.9792241454124451,1
60,100,0.5818181818181818,431,1,40,DL_Remix_Guitar,6,9,omokage,0.9792242646217346,1
65,100,0.2818181818181818,176,1,41,DL_Remix_Guitar,6,5,omokage,0.9990280866622925,1
58,100,0.11818181818181818,251,0,41,DL_Remix_Guitar,6,2,omokage,0.37034502625465393,0
58,100,0.41818181818181815,801,1,41,DL_Remix_Guitar,6,7,omokage,0.45616763830184937,0
53,100,0.2590909090909091,31,1,42,DL_Remix_Guitar,6,4,omokage,0.9990094900131226,1
53,100,0.18181818181818182,91,0,42,DL_Remix_Guitar,6,3,omokage,0.23322923481464386,0
53,100,0.1409090909090909,638,1,42,DL_Remix_Guitar,6,2,omokage,0.2705809473991394,0
53,100,0.740909090909091,791,0,42,DL_Remix_Guitar,6,12,omokage,0.3579176664352417,0
53,100,0.42272727272727273,334,1,43,DL_Remix_Guitar,6,7,omokage,0.9990280866622925,1
53,100,0.11818181818181818,700,1,43,DL_Remix_Guitar,6,2,omokage,0.37033796310424805,0
65,100,0.1590909090909091,836,0,43,DL_Remix_Guitar,6,3,omokage,0.456163227558136,0
53,100,0.2590909090909091,13,1,44,DL_Remix_Guitar,6,4,omokage,0.9984879493713379,1
55,100,0.2590909090909091,144,0,44,DL_Remix_Guitar,6,4,omokage,0.06335290521383286,0
53,100,0.1409090909090909,233,0,44,DL_Remix_Guitar,6,2,omokage,0.05828767269849777,0
55,100,0.21818181818181817,303,0,44,DL_Remix_Guitar,6,3,omokage,0.061359841376543045,0
65,100,0.36363636363636365,399,0,44,DL_Remix_Guitar,6,6,omokage,0.07168088108301163,0
65,100,0.22272727272727272,496,0,44,DL_Remix_Guitar,6,4,omokage,0.08472996950149536,0
53,100,0.11818181818181818,545,0,44,DL_Remix_Guitar,6,2,omokage,0.12634488940238953,0
65,100,0.35909090909090907,351,1,45,DL_Remix_Guitar,6,6,omokage,0.9990094900131226,1
65,100,0.1409090909090909,461,0,45,DL_Remix_Guitar,6,2,omokage,0.2332313060760498,0
58,100,0.6590909090909091,668,0,45,DL_Remix_Guitar,6,11,omokage,0.27058154344558716,0
58,100,0.4772727272727273,875,0,45,DL_Remix_Guitar,6,8,omokage,0.35792604088783264,0
58,100,0.1409090909090909,550,1,46,DL_Remix_Guitar,6,2,omokage,0.9990280866622925,1
58,100,0.12272727272727273,619,0,46,DL_Remix_Guitar,6,2,omokage,0.3703426122665405,0
53,100,0.8,761,0,46,DL_Remix_Guitar,6,13,omokage,0.45615628361701965,0
53,100,0.22272727272727272,408,1,47,DL_Remix_Guitar,6,4,omokage,0.9983231425285339,1
53,100,0.2818181818181818,804,1,47,DL_Remix_Guitar,6,5,omokage,0.5462137460708618,1
60,100,0.2,373,1,48,DL_Remix_Guitar,6,3,omokage,0.9990280866622925,1
57,100,0.1,703,1,48,DL_Remix_Guitar,6,2,omokage,0.3703300356864929,0
53,100,0.12272727272727273,751,0,48,DL_Remix_Guitar,6,2,omokage,0.45616868138313293,0
53,100,0.2409090909090909,418,1,49,DL_Remix_Guitar,6,4,omokage,0.9792238473892212,1
58,100,0.41818181818181815,43,1,50,DL_Remix_Guitar,6,7,omokage,0.9988439083099365,1
55,100,0.32272727272727275,364,1,50,DL_Remix_Guitar,6,5,omokage,0.1379820704460144,0
55,100,0.41818181818181815,440,0,50,DL_Remix_Guitar,6,7,omokage,0.16236655414104462,0
65,100,0.8818181818181818,619,0,50,DL_Remix_Guitar,6,14,omokage,0.19104620814323425,0
53,100,0.4409090909090909,861,1,50,DL_Remix_Guitar,6,7,omokage,0.2619592547416687,0
58,100,0.1590909090909091,144,1,51,DL_Remix_Guitar,6,3,omokage,0.9990094900131226,1
58,100,0.9772727272727273,383,1,51,DL_Remix_Guitar,6,15,omokage,0.23322580754756927,0
53,100,0.16363636363636364,751,1,51,DL_Remix_Guitar,6,3,omokage,0.27058497071266174,0
53,100,0.5409090909090909,801,0,51,DL_Remix_Guitar,6,9,omokage,0.3579223155975342,0
65,100,0.3181818181818182,40,1,52,DL_Remix_Guitar,6,5,omokage,0.9983004927635193,1
53,100,0.35909090909090907,188,0,52,DL_Remix_Guitar,6,6,omokage,0.044662151485681534,0
53,100,0.16363636363636364,334,0,52,DL_Remix_Guitar,6,3,omokage,0.03337089344859123,0
53,100,0.3,386,0,52,DL_Remix_Guitar,6,5,omokage,0.02694767899811268,0
53,100,0.21818181818181817,480,0,52,DL_Remix_Guitar,6,3,omokage,0.024083269760012627,0
53,100,0.2,536,0,52,DL_Remix_Guitar,6,3,omokage,0.024971896782517433,0
53,100,0.2590909090909091,646,0,52,DL_Remix_Guitar,6,4,omokage,0.03064587339758873,0
65,100,0.2409090909090909,804,0,52,DL_Remix_Guitar,6,4,omokage,0.04136834293603897,0
53,100,0.5,858,0,52,DL_Remix_Guitar,6,8,omokage,0.07206634432077408,0
53,100,0.4818181818181818,373,1,53,DL_Remix_Guitar,6,8,omokage,0.9986506104469299,1
53,100,0.23636363636363636,523,0,53,DL_Remix_Guitar,6,4,omokage,0.08797555416822433,0
53,100,0.11818181818181818,593,0,53,DL_Remix_Guitar,6,2,omokage,0.09298072755336761,0
53,100,0.1409090909090909,668,0,53,DL_Remix_Guitar,6,2,omokage,0.10994329303503036,0
53,100,0.12272727272727273,751,0,53,DL_Remix_Guitar,6,2,omokage,0.1286674290895462,0
53,100,0.1590909090909091,813,0,53,DL_Remix_Guitar,6,3,omokage,0.1822149008512497,0
53,100,0.3409090909090909,88,1,54,DL_Remix_Guitar,6,5,omokage,0.9990280866622925,1
53,100,0.17727272727272728,348,1,54,DL_Remix_Guitar,6,3,omokage,0.37033936381340027,0
58,100,0.22272727272727272,541,0,54,DL_Remix_Guitar,6,4,omokage,0.4561692774295807,0
55,100,0.2409090909090909,488,1,55,DL_Remix_Guitar,6,4,omokage,0.9983231425285339,1
53,100,0.1590909090909091,678,0,55,DL_Remix_Guitar,6,3,omokage,0.5462124347686768,1
58,100,0.18181818181818182,321,1,56,DL_Remix_Guitar,6,3,omokage,0.9990280866622925,1
53,100,0.2409090909090909,466,0,56,DL_Remix_Guitar,6,4,omokage,0.37034058570861816,0
53,100,0.9590909090909091,756,1,56,DL_Remix_Guitar,6,15,omokage,0.45616382360458374,0
53,100,0.2,91,1,57,DL_Remix_Guitar,6,3,omokage,0.9986506104469299,1
53,100,0.5590909090909091,141,0,57,DL_Remix_Guitar,6,9,omokage,0.08797766268253326,0
58,100,0.1409090909090909,263,0,57,DL_Remix_Guitar,6,2,omokage,0.09298325330018997,0
53,100,0.6,334,0,57,DL_Remix_Guitar,6,10,omokage,0.10994188487529755,0
53,100,0.23636363636363636,633,1,57,DL_Remix_Guitar,6,4,omokage,0.12866763770580292,0
53,100,0.2590909090909091,726,0,57,DL_Remix_Guitar,6,4,omokage,0.18220765888690948,0
65,100,0.16363636363636364,26,1,58,DL_Remix_Guitar,6,3,omokage,0.9986506104469299,1
53,100,0.11818181818181818,61,0,58,DL_Remix_Guitar,6,2,omokage,0.0879785493016243,0
65,100,0.4590909090909091,88,0,58,DL_Remix_Guitar,6,7,omokage,0.09298152476549149,0
53,100,0.22272727272727272,188,0,58,DL_Remix_Guitar,6,4,omokage,0.1099461168050766,0
53,100,0.4,241,0,58,DL_Remix_Guitar,6,6,omokage,0.12866821885108948,0
53,100,0.1590909090909091,458,0,58,DL_Remix_Guitar,6,3,omokage,0.18221357464790344,0
53,100,0.3181818181818182,18,1,59,DL_Remix_Guitar,6,5,omokage,0.9990094900131226,1
53,100,0.42272727272727273,101,0,59,DL_Remix_Guitar,6,7,omokage,0.23322682082653046,0
53,100,0.35909090909090907,558,1,59,DL_Remix_Guitar,6,6,omokage,0.2705780267715454,0
53,100,0.23636363636363636,788,0,59,DL_Remix_Guitar,6,4,omokage,0.3579241931438446,0
58,100,0.18181818181818182,91,1,60,DL_Remix_Guitar,6,3,omokage,0.9990094900131226,1
58,100,0.3181818181818182,501,1,60,DL_Remix_Guitar,6,5,omokage,0.23322787880897522,0
58,100,0.4,633,0,60,DL_Remix_Guitar,6,6,omokage,0.27057981491088867,0
58,100,0.1409090909090909,801,0,60,DL_Remix_Guitar,6,2,omokage,0.3579205274581909,0
53,100,0.18181818181818182,0,1,61,DL_Remix_Guitar,6,3,omokage,0.9983231425285339,1
53,100,0.16363636363636364,246,1,61,DL_Remix_Guitar,6,3,omokage,0.5462120175361633,1
58,100,0.11818181818181818,105,1,62,DL_Remix_Guitar,6,2,omokage,0.9990280866622925,1
53,100,0.5181818181818182,348,1,62,DL_Remix_Guitar,6,8,omokage,0.3703344762325287,0
53,100,0.1409090909090909,584,1,62,DL_Remix_Guitar,6,2,omokage,0.45616960525512695,0
63,100,0.2,4,1,63,DL_Remix_Guitar,6,3,omokage,0.9988439083099365,1
58,100,0.4,118,0,63,DL_Remix_Guitar,6,6,omokage,0.13798725605010986,0
58,100,0.18181818181818182,308,0,63,DL_Remix_Guitar,6,3,omokage,0.16236940026283264,0
53,100,0.5,378,0,63,DL_Remix_Guitar,6,8,omokage,0.19105547666549683,0
53,100,0.21818181818181817,493,0,63,DL_Remix_Guitar,6,3,omokage,0.2619704008102417,0
63,100,0.32272727272727275,189,1,65,DL_Remix_Guitar,6,5,omokage,0.979223370552063,1
53,100,0.2,92,1,66,DL_Remix_Guitar,6,3,omokage,0.9983232617378235,1
58,100,0.37727272727272726,612,1,66,DL_Remix_Guitar,6,6,omokage,0.5462139248847961,1
53,100,0.2590909090909091,493,1,67,DL_Remix_Guitar,6,4,omokage,0.9990094900131226,1
53,100,0.16363636363636364,553,0,67,DL_Remix_Guitar,6,3,omokage,0.23322699964046478,0
53,100,0.11818181818181818,593,0,67,DL_Remix_Guitar,6,2,omokage,0.27057671546936035,0
53,100,0.11818181818181818,624,0,67,DL_Remix_Guitar,6,2,omokage,0.3579273819923401,0
58,100,0.11818181818181818,66,1,68,DL_Remix_Guitar,6,2,omokage,0.9983231425285339,1
53,100,0.5409090909090909,686,1,68,DL_Remix_Guitar,6,9,omokage,0.5462107062339783,1
53,100,0.1409090909090909,273,1,69,DL_Remix_Guitar,6,2,omokage,0.9990094900131226,1
58,100,0.1409090909090909,399,0,69,DL_Remix_Guitar,6,2,omokage,0.2332310974597931,0
53,100,0.18181818181818182,430,0,69,DL_Remix_Guitar,6,3,omokage,0.27057743072509766,0
58,100,0.2409090909090909,470,0,69,DL_Remix_Guitar,6,4,omokage,0.3579258322715759,0
60,100,0.1409090909090909,316,1,70,DL_Remix_Guitar,6,2,omokage,0.9792243838310242,1
55,100,0.4818181818181818,682,1,71,DL_Remix_Guitar,6,8,omokage,0.9983232617378235,1
58,100,0.4,800,0,71,DL_Remix_Guitar,6,6,omokage,0.5462203025817871,1
55,100,0.22272727272727272,69,1,72,DL_Remix_Guitar,6,4,omokage,0.9990094900131226,1
58,100,0.3409090909090909,179,0,72,DL_Remix_Guitar,6,5,omokage,0.23323026299476624,0
65,100,0.2818181818181818,267,0,72,DL_Remix_Guitar,6,5,omokage,0.27057212591171265,0
65,100,0.21818181818181817,876,1,72,DL_Remix_Guitar,6,3,omokage,0.3579244911670685,0
65,100,0.18181818181818182,153,1,73,DL_Remix_Guitar,6,3,omokage,0.9792236089706421,1
65,100,0.2,326,1,74,DL_Remix_Guitar,6,3,omokage,0.9990094900131226,1
53,100,0.1,413,0,74,DL_Remix_Guitar,6,2,omokage,0.2332330197095871,0
55,100,0.1590909090909091,475,0,74,DL_Remix_Guitar,6,3,omokage,0.2705811560153961,0
65,100,0.2590909090909091,800,1,74,DL_Remix_Guitar,6,4,omokage,0.35792407393455505,0
65,100,0.5409090909090909,0,1,75,DL_Remix_Guitar,6,9,omokage,0.9990094900131226,1
53,100,0.11818181818181818,656,1,75,DL_Remix_Guitar,6,2,omokage,0.2332308441400528,0
65,100,0.1590909090909091,682,0,75,DL_Remix_Guitar,6,3,omokage,0.27058106660842896,0
53,100,0.35909090909090907,734,0,75,DL_Remix_Guitar,6,6,omokage,0.3579220771789551,0
63,100,0.2772727272727273,303,1,76,DL_Remix_Guitar,6,4,omokage,0.9988439083099365,1
53,100,0.22272727272727272,619,1,76,DL_Remix_Guitar,6,4,omokage,0.13798217475414276,0
53,100,0.11818181818181818,770,0,76,DL_Remix_Guitar,6,2,omokage,0.16236227750778198,0
53,100,0.11818181818181818,800,0,76,DL_Remix_Guitar,6,2,omokage,0.19105389714241028,0
53,100,0.4590909090909091,836,0,76,DL_Remix_Guitar,6,7,omokage,0.26196086406707764,0
53,100,0.33636363636363636,502,1,77,DL_Remix_Guitar,6,5,omokage,0.9990280866622925,1
53,100,0.4,637,0,77,DL_Remix_Guitar,6,6,omokage,0.3703339099884033,0
53,100,0.18181818181818182,729,0,77,DL_Remix_Guitar,6,3,omokage,0.4561750888824463,0
58,100,0.35909090909090907,119,1,78,DL_Remix_Guitar,6,6,omokage,0.9988439083099365,1
53,100,0.2772727272727273,383,1,78,DL_Remix_Guitar,6,4,omokage,0.13797800242900848,0
53,100,0.3409090909090909,527,0,78,DL_Remix_Guitar,6,5,omokage,0.16236045956611633,0
53,100,0.1409090909090909,703,0,78,DL_Remix_Guitar,6,2,omokage,0.19105388224124908,0
53,100,0.7,817,0,78,DL_Remix_Guitar,6,11,omokage,0.2619573473930359,0
53,100,0.3,106,1,79,DL_Remix_Guitar,6,5,omokage,0.9988439083099365,1
53,100,0.3,567,1,79,DL_Remix_Guitar,6,5,omokage,0.13798026740550995,0
53,100,0.17727272727272728,677,0,79,DL_Remix_Guitar,6,3,omokage,0.1623643934726715,0
57,100,0.3,716,0,79,DL_Remix_Guitar,6,5,omokage,0.19105371832847595,0
57,100,0.11818181818181818,813,0,79,DL_Remix_Guitar,6,2,omokage,0.2619698643684387,0
53,100,0.3,157,1,81,DL_Remix_Guitar,6,5,omokage,0.9986506104469299,1
58,100,0.22272727272727272,246,0,81,DL_Remix_Guitar,6,4,omokage,0.08797876536846161,0
53,100,0.2590909090909091,316,0,81,DL_Remix_Guitar,6,4,omokage,0.09298125654459,0
53,100,0.32272727272727275,453,0,81,DL_Remix_Guitar,6,5,omokage,0.10994559526443481,0
53,100,0.2,597,0,81,DL_Remix_Guitar,6,3,omokage,0.12866812944412231,0
53,100,0.3,766,0,81,DL_Remix_Guitar,6,5,omokage,0.18221551179885864,0
53,100,0.6818181818181818,26,1,82,DL_Remix_Guitar,6,11,omokage,0.9983735084533691,1
53,100,0.1590909090909091,193,0,82,DL_Remix_Guitar,6,3,omokage,0.05104941874742508,0
53,100,0.1,233,0,82,DL_Remix_Guitar,6,2,omokage,0.041610825806856155,0
53,100,0.1,343,0,82,DL_Remix_Guitar,6,2,omokage,0.037977684289216995,0
53,100,0.3181818181818182,506,0,82,DL_Remix_Guitar,6,5,omokage,0.03925785422325134,0
53,100,0.11818181818181818,612,0,82,DL_Remix_Guitar,6,2,omokage,0.04616229981184006,0
60,100,0.18181818181818182,770,0,82,DL_Remix_Guitar,6,3,omokage,0.0571289025247097,0
65,100,0.1590909090909091,857,0,82,DL_Remix_Guitar,6,3,omokage,0.09187144786119461,0
53,100,0.2409090909090909,13,1,83,DL_Remix_Guitar,6,4,omokage,0.9983231425285339,1
65,100,0.9818181818181818,100,0,83,DL_Remix_Guitar,6,15,omokage,0.5462093949317932,1
65,100,0.6409090909090909,739,1,85,DL_Remix_Guitar,6,10,omokage,0.9792238473892212,1
53,100,0.3181818181818182,303,1,86,DL_Remix_Guitar,6,5,omokage,0.9990280866622925,1
65,100,0.1,443,0,86,DL_Remix_Guitar,6,2,omokage,0.37034279108047485,0
65,100,0.5590909090909091,585,0,86,DL_Remix_Guitar,6,9,omokage,0.45616471767425537,0
65,100,0.17727272727272728,514,1,87,DL_Remix_Guitar,6,3,omokage,0.9988439083099365,1
53,100,0.22272727272727272,553,0,87,DL_Remix_Guitar,6,4,omokage,0.13797874748706818,0
53,100,0.38181818181818183,606,0,87,DL_Remix_Guitar,6,6,omokage,0.16236062347888947,0
65,100,0.42272727272727273,773,0,87,DL_Remix_Guitar,6,7,omokage,0.19105160236358643,0
53,100,0.5181818181818182,866,0,87,DL_Remix_Guitar,6,8,omokage,0.2619627118110657,0
65,100,0.4818181818181818,377,1,88,DL_Remix_Guitar,6,8,omokage,0.9990280866622925,1
70,100,0.18181818181818182,506,0,88,DL_Remix_Guitar,6,3,omokage,0.3703348636627197,0
53,100,0.23636363636363636,832,1,88,DL_Remix_Guitar,6,4,omokage,0.4561653435230255,0
55,100,0.5181818181818182,537,1,0,DL_Warm_Pop_Rock_Guitar,6,8,ruriko_tyusingura_warm_pop,0.9983231425285339,1
55,100,0.6590909090909091,845,1,0,DL_Warm_Pop_Rock_Guitar,6,11,ruriko_tyusingura_warm_pop,0.54620760679245,1
62,100,0.4636363636363636,576,1,1,DL_Warm_Pop_Rock_Guitar,6,7,ruriko_tyusingura_warm_pop,0.9983232617378235,1
52,100,0.740909090909091,862,1,1,DL_Warm_Pop_Rock_Guitar,6,12,ruriko_tyusingura_warm_pop,0.5462190508842468,1
55,100,0.1,629,1,2,DL_Warm_Pop_Rock_Guitar,6,2,ruriko_tyusingura_warm_pop,0.9983232617378235,1
55,100,0.21818181818181817,660,0,2,DL_Warm_Pop_Rock_Guitar,6,3,ruriko_tyusingura_warm_pop,0.5462109446525574,1
55,100,0.2,91,1,3,DL_Warm_Pop_Rock_Guitar,6,3,ruriko_tyusingura_warm_pop,0.9990280866622925,1
52,100,0.6772727272727272,590,1,3,DL_Warm_Pop_Rock_Guitar,6,11,ruriko_tyusingura_warm_pop,0.3703387379646301,0
52,100,0.12272727272727273,761,0,3,DL_Warm_Pop_Rock_Guitar,6,2,ruriko_tyusingura_warm_pop,0.45616772770881653,0
52,100,0.740909090909091,35,1,4,DL_Warm_Pop_Rock_Guitar,6,12,ruriko_tyusingura_warm_pop,0.9983232617378235,1
52,100,0.2,330,1,4,DL_Warm_Pop_Rock_Guitar,6,3,ruriko_tyusingura_warm_pop,0.5462192893028259,1
64,100,0.2,8,1,5,DL_Warm_Pop_Rock_Guitar,6,3,ruriko_tyusingura_warm_pop,0.9988439083099365,1
55,100,0.5636363636363636,135,0,5,DL_Warm_Pop_Rock_Guitar,6,9,ruriko_tyusingura_warm_pop,0.13798627257347107,0
55,100,0.2818181818181818,330,0,5,DL_Warm_Pop_Rock_Guitar,6,5,ruriko_tyusingura_warm_pop,0.16236935555934906,0
67,100,0.17727272727272728,458,0,5,DL_Warm_Pop_Rock_Guitar,6,3,ruriko_tyusingura_warm_pop,0.19105857610702515,0
57,100,0.17727272727272728,823,1,5,DL_Warm_Pop_Rock_Guitar,6,3,ruriko_tyusingura_warm_pop,0.26196131110191345,0
62,100,0.1409090909090909,56,1,6,DL_Warm_Pop_Rock_Guitar,6,2,ruriko_tyusingura_warm_pop,0.9988439083099365,1
62,100,0.2409090909090909,132,0,6,DL_Warm_Pop_Rock_Guitar,6,4,ruriko_tyusingura_warm_pop,0.1379913091659546,0
62,100,0.9818181818181818,330,0,6,DL_Warm_Pop_Rock_Guitar,6,15,ruriko_tyusingura_warm_pop,0.16237467527389526,0
62,100,0.1409090909090909,581,1,6,DL_Warm_Pop_Rock_Guitar,6,2,ruriko_tyusingura_warm_pop,0.19107498228549957,0
57,100,0.6409090909090909,691,0,6,DL_Warm_Pop_Rock_Guitar,6,10,ruriko_tyusingura_warm_pop,0.2619832754135132,0
62,100,0.38181818181818183,606,1,7,DL_Warm_Pop_Rock_Guitar,6,6,ruriko_tyusingura_warm_pop,0.9983231425285339,1
52,100,0.2818181818181818,826,0,7,DL_Warm_Pop_Rock_Guitar,6,5,ruriko_tyusingura_warm_pop,0.5462214946746826,1
52,100,0.42272727272727273,245,1,8,DL_Warm_Pop_Rock_Guitar,6,7,ruriko_tyusingura_warm_pop,0.9792245030403137,1
60,100,0.1590909090909091,140,1,9,DL_Warm_Pop_Rock_Guitar,6,3,ruriko_tyusingura_warm_pop,0.9988439083099365,1
62,100,0.5409090909090909,185,0,9,DL_Warm_Pop_Rock_Guitar,6,9,ruriko_tyusingura_warm_pop,0.13798581063747406,0
62,100,0.4,347,0,9,DL_Warm_Pop_Rock_Guitar,6,6,ruriko_tyusingura_warm_pop,0.16237479448318481,0
62,100,0.11818181818181818,524,0,9,DL_Warm_Pop_Rock_Guitar,6,2,ruriko_tyusingura_warm_pop,0.19107453525066376,0
62,100,0.8590909090909091,563,0,9,DL_Warm_Pop_Rock_Guitar,6,14,ruriko_tyusingura_warm_pop,0.2619730532169342,0
57,100,0.17727272727272728,171,1,10,DL_Warm_Pop_Rock_Guitar,6,3,ruriko_tyusingura_warm_pop,0.9792240262031555,1
55,100,0.1,211,1,11,DL_Warm_Pop_Rock_Guitar,6,2,ruriko_tyusingura_warm_pop,0.9983231425285339,1
62,100,0.32272727272727275,519,1,11,DL_Warm_Pop_Rock_Guitar,6,5,ruriko_tyusingura_warm_pop,0.5462211966514587,1
62,100,1.059090909090909,536,1,12,DL_Warm_Pop_Rock_Guitar,6,15,ruriko_tyusingura_warm_pop,0.9792234897613525,1
55,100,0.2409090909090909,321,1,13,DL_Warm_Pop_Rock_Guitar,6,4,ruriko_tyusingura_warm_pop,0.9990094900131226,1
62,100,0.1,479,0,13,DL_Warm_Pop_Rock_Guitar,6,2,ruriko_tyusingura_warm_pop,0.2332354635000229,0
55,100,0.4590909090909091,694,0,13,DL_Warm_Pop_Rock_Guitar,6,7,ruriko_tyusingura_warm_pop,0.2705930769443512,0
57,100,0.2590909090909091,814,0,13,DL_Warm_Pop_Rock_Guitar,6,4,ruriko_tyusingura_warm_pop,0.35792818665504456,0
57,100,0.740909090909091,3,1,14,DL_Warm_Pop_Rock_Guitar,6,12,ruriko_tyusingura_warm_pop,0.9988439083099365,1
57,100,0.6,194,0,14,DL_Warm_Pop_Rock_Guitar,6,10,ruriko_tyusingura_warm_pop,0.13798579573631287,0
57,100,1.3,347,0,14,DL_Warm_Pop_Rock_Guitar,6,15,ruriko_tyusingura_warm_pop,0.16236212849617004,0
57,100,0.5772727272727273,691,1,14,DL_Warm_Pop_Rock_Guitar,6,9,ruriko_tyusingura_warm_pop,0.19106289744377136,0
57,100,0.2,862,0,14,DL_Warm_Pop_Rock_Guitar,6,3,ruriko_tyusingura_warm_pop,0.2619660794734955,0
55,100,0.38181818181818183,123,1,15,DL_Warm_Pop_Rock_Guitar,6,6,ruriko_tyusingura_warm_pop,0.9986506104469299,1
55,100,0.36363636363636365,268,0,15,DL_Warm_Pop_Rock_Guitar,6,6,ruriko_tyusingura_warm_pop,0.08798015117645264,0
52,100,0.1,383,0,15,DL_Warm_Pop_Rock_Guitar,6,2,ruriko_tyusingura_warm_pop,0.09298381954431534,0
52,100,0.2818181818181818,550,0,15,DL_Warm_Pop_Rock_Guitar,6,5,ruriko_tyusingura_warm_pop,0.10994991660118103,0
55,100,0.22272727272727272,651,0,15,DL_Warm_Pop_Rock_Guitar,6,4,ruriko_tyusingura_warm_pop,0.1286744624376297,0
55,100,0.1,761,0,15,DL_Warm_Pop_Rock_Guitar,6,2,ruriko_tyusingura_warm_pop,0.1822165846824646,0
62,100,0.5772727272727273,391,1,16,DL_Warm_Pop_Rock_Guitar,6,9,ruriko_tyusingura_warm_pop,0.9990280866622925,1
57,100,0.1,712,1,16,DL_Warm_Pop_Rock_Guitar,6,2,ruriko_tyusingura_warm_pop,0.370349258184433,0
57,100,0.2772727272727273,756,0,16,DL_Warm_Pop_Rock_Guitar,6,4,ruriko_tyusingura_warm_pop,0.45617809891700745,0
52,100,0.2409090909090909,96,1,17,DL_Warm_Pop_Rock_Guitar,6,4,ruriko_tyusingura_warm_pop,0.9983232617378235,1
64,100,0.4,250,0,17,DL_Warm_Pop_Rock_Guitar,6,6,ruriko_tyusingura_warm_pop,0.5462181568145752,1
62,100,0.18181818181818182,528,1,18,DL_Warm_Pop_Rock_Guitar,6,3,ruriko_tyusingura_warm_pop,0.9990094900131226,1
62,100,0.2,660,0,18,DL_Warm_Pop_Rock_Guitar,6,3,ruriko_tyusingura_warm_pop,0.2332400679588318,0
62,100,0.3,748,0,18,DL_Warm_Pop_Rock_Guitar,6,5,ruriko_tyusingura_warm_pop,0.27059248089790344,0
62,100,0.5818181818181818,839,0,18,DL_Warm_Pop_Rock_Guitar,6,9,ruriko_tyusingura_warm_pop,0.35794198513031006,0
62,100,0.5590909090909091,154,1,19,DL_Warm_Pop_Rock_Guitar,6,9,ruriko_tyusingura_warm_pop,0.979223370552063,1
62,100,0.1590909090909091,519,1,21,DL_Warm_Pop_Rock_Guitar,6,3,ruriko_tyusingura_warm_pop,0.9990094900131226,1
52,100,0.35909090909090907,567,0,21,DL_Warm_Pop_Rock_Guitar,6,6,ruriko_tyusingura_warm_pop,0.23323193192481995,0
52,100,0.1,677,0,21,DL_Warm_Pop_Rock_Guitar,6,2,ruriko_tyusingura_warm_pop,0.27058547735214233,0
62,100,0.5,810,0,21,DL_Warm_Pop_Rock_Guitar,6,8,ruriko_tyusingura_warm_pop,0.35793593525886536,0
62,100,0.1409090909090909,57,1,22,DL_Warm_Pop_Rock_Guitar,6,2,ruriko_tyusingura_warm_pop,0.9990094900131226,1
62,100,0.4818181818181818,92,0,22,DL_Warm_Pop_Rock_Guitar,6,8,ruriko_tyusingura_warm_pop,0.2332419455051422,0
55,100,0.3181818181818182,360,1,22,DL_Warm_Pop_Rock_Guitar,6,5,ruriko_tyusingura_warm_pop,0.27058595418930054,0
60,100,0.11818181818181818,638,1,22,DL_Warm_Pop_Rock_Guitar,6,2,ruriko_tyusingura_warm_pop,0.3579404056072235,0
62,100,0.5,158,1,23,DL_Warm_Pop_Rock_Guitar,6,8,ruriko_tyusingura_warm_pop,0.9988439083099365,1
62,100,0.2409090909090909,343,0,23,DL_Warm_Pop_Rock_Guitar,6,4,ruriko_tyusingura_warm_pop,0.13798615336418152,0
55,100,0.1,443,0,23,DL_Warm_Pop_Rock_Guitar,6,2,ruriko_tyusingura_warm_pop,0.16237418353557587,0
62,100,0.11818181818181818,501,0,23,DL_Warm_Pop_Rock_Guitar,6,2,ruriko_tyusingura_warm_pop,0.19106270372867584,0
62,100,0.1409090909090909,607,0,23,DL_Warm_Pop_Rock_Guitar,6,2,ruriko_tyusingura_warm_pop,0.26197725534439087,0
55,100,0.32272727272727275,92,1,24,DL_Warm_Pop_Rock_Guitar,6,5,ruriko_tyusingura_warm_pop,0.9990094900131226,1
62,100,0.2818181818181818,461,1,24,DL_Warm_Pop_Rock_Guitar,6,5,ruriko_tyusingura_warm_pop,0.23323623836040497,0
62,100,0.2409090909090909,704,1,24,DL_Warm_Pop_Rock_Guitar,6,4,ruriko_tyusingura_warm_pop,0.27059170603752136,0
62,100,0.2,835,0,24,DL_Warm_Pop_Rock_Guitar,6,3,ruriko_tyusingura_warm_pop,0.35793814063072205,0
61,100,0.11818181818181818,0,1,25,DL_Warm_Pop_Rock_Guitar,6,2,ruriko_tyusingura_warm_pop,0.9990094900131226,1
55,100,0.12272727272727273,277,1,25,DL_Warm_Pop_Rock_Guitar,6,2,ruriko_tyusingura_warm_pop,0.23323078453540802,0
62,100,0.3409090909090909,497,0,25,DL_Warm_Pop_Rock_Guitar,6,5,ruriko_tyusingura_warm_pop,0.2705857455730438,0
62,100,0.2409090909090909,712,0,25,DL_Warm_Pop_Rock_Guitar,6,4,ruriko_tyusingura_warm_pop,0.35793372988700867,0
62,100,0.2818181818181818,13,1,26,DL_Warm_Pop_Rock_Guitar,6,5,ruriko_tyusingura_warm_pop,0.9990094900131226,1
62,100,0.2636363636363636,136,0,26,DL_Warm_Pop_Rock_Guitar,6,4,ruriko_tyusingura_warm_pop,0.23323221504688263,0
66,100,0.1,646,1,26,DL_Warm_Pop_Rock_Guitar,6,2,ruriko_tyusingura_warm_pop,0.27058711647987366,0
52,100,0.2818181818181818,708,0,26,DL_Warm_Pop_Rock_Guitar,6,5,ruriko_tyusingura_warm_pop,0.35794034600257874,0
62,100,0.3409090909090909,48,1,27,DL_Warm_Pop_Rock_Guitar,6,5,ruriko_tyusingura_warm_pop,0.9984879493713379,1
57,100,0.2409090909090909,158,0,27,DL_Warm_Pop_Rock_Guitar,6,4,ruriko_tyusingura_warm_pop,0.06335615366697311,0
52,100,0.6,260,0,27,DL_Warm_Pop_Rock_Guitar,6,10,ruriko_tyusingura_warm_pop,0.05829213187098503,0
55,100,0.23636363636363636,413,0,27,DL_Warm_Pop_Rock_Guitar,6,4,ruriko_tyusingura_warm_pop,0.06136636808514595,0
55,100,0.3409090909090909,484,0,27,DL_Warm_Pop_Rock_Guitar,6,5,ruriko_tyusingura_warm_pop,0.07168766856193542,0
62,100,0.2590909090909091,567,0,27,DL_Warm_Pop_Rock_Guitar,6,4,ruriko_tyusingura_warm_pop,0.08474313467741013,0
67,100,0.42272727272727273,629,0,27,DL_Warm_Pop_Rock_Guitar,6,7,ruriko_tyusingura_warm_pop,0.12635917961597443,0
62,100,0.21818181818181817,162,1,28,DL_Warm_Pop_Rock_Guitar,6,3,ruriko_tyusingura_warm_pop,0.9988439083099365,1
54,100,0.4636363636363636,443,1,28,DL_Warm_Pop_Rock_Guitar,6,7,ruriko_tyusingura_warm_pop,0.1379864364862442,0
66,100,0.21818181818181817,546,0,28,DL_Warm_Pop_Rock_Guitar,6,3,ruriko_tyusingura_warm_pop,0.16236141324043274,0
66,100,0.1409090909090909,660,0,28,DL_Warm_Pop_Rock_Guitar,6,2,ruriko_tyusingura_warm_pop,0.191055029630661,0
59,100,0.13636363636363635,810,0,28,DL_Warm_Pop_Rock_Guitar,6,2,ruriko_tyusingura_warm_pop,0.2619608938694,0
64,100,0.23636363636363636,61,1,29,DL_Warm_Pop_Rock_Guitar,6,4,ruriko_tyusingura_warm_pop,0.9986506104469299,1
52,100,0.5818181818181818,113,0,29,DL_Warm_Pop_Rock_Guitar,6,9,ruriko_tyusingura_warm_pop,0.08798135817050934,0
52,100,0.3,333,0,29,DL_Warm_Pop_Rock_Guitar,6,5,ruriko_tyusingura_warm_pop,0.09298543632030487,0
62,100,0.37727272727272726,625,1,29,DL_Warm_Pop_Rock_Guitar,6,6,ruriko_tyusingura_warm_pop,0.10995350778102875,0
64,100,0.4,708,0,29,DL_Warm_Pop_Rock_Guitar,6,6,ruriko_tyusingura_warm_pop,0.1286775767803192,0
62,100,0.11818181818181818,801,0,29,DL_Warm_Pop_Rock_Guitar,6,2,ruriko_tyusingura_warm_pop,0.18222655355930328,0
62,100,0.3181818181818182,150,1,30,DL_Warm_Pop_Rock_Guitar,6,5,ruriko_tyusingura_warm_pop,0.9990094900131226,1
62,100,0.2,594,1,30,DL_Warm_Pop_Rock_Guitar,6,3,ruriko_tyusingura_warm_pop,0.23323988914489746,0
62,100,0.2772727272727273,646,0,30,DL_Warm_Pop_Rock_Guitar,6,4,ruriko_tyusingura_warm_pop,0.2705916464328766,0
57,100,0.4,739,0,30,DL_Warm_Pop_Rock_Guitar,6,6,ruriko_tyusingura_warm_pop,0.3579481840133667,0
57,100,0.36363636363636365,48,1,31,DL_Warm_Pop_Rock_Guitar,6,6,ruriko_tyusingura_warm_pop,0.9984879493713379,1
62,100,0.5363636363636364,171,0,31,DL_Warm_Pop_Rock_Guitar,6,9,ruriko_tyusingura_warm_pop,0.06335706263780594,0
53,100,0.11818181818181818,461,1,31,DL_Warm_Pop_Rock_Guitar,6,2,ruriko_tyusingura_warm_pop,0.058292001485824585,0
62,100,0.4772727272727273,523,0,31,DL_Warm_Pop_Rock_Guitar,6,8,ruriko_tyusingura_warm_pop,0.06136570870876312,0
62,100,0.11818181818181818,638,0,31,DL_Warm_Pop_Rock_Guitar,6,2,ruriko_tyusingura_warm_pop,0.0716899037361145,0
62,100,0.18181818181818182,694,0,31,DL_Warm_Pop_Rock_Guitar,6,3,ruriko_tyusingura_warm_pop,0.08474323898553848,0
62,100,0.33636363636363636,853,0,31,DL_Warm_Pop_Rock_Guitar,6,5,ruriko_tyusingura_warm_pop,0.12635914981365204,0
62,100,0.38181818181818183,201,1,32,DL_Warm_Pop_Rock_Guitar,6,6,ruriko_tyusingura_warm_pop,0.979223906993866,1
62,100,0.21818181818181817,185,1,33,DL_Warm_Pop_Rock_Guitar,6,3,ruriko_tyusingura_warm_pop,0.9988439083099365,1
62,100,0.2,289,0,33,DL_Warm_Pop_Rock_Guitar,6,3,ruriko_tyusingura_warm_pop,0.13798747956752777,0
57,100,0.33636363636363636,370,0,33,DL_Warm_Pop_Rock_Guitar,6,5,ruriko_tyusingura_warm_pop,0.16237549483776093,0
55,100,0.1409090909090909,668,1,33,DL_Warm_Pop_Rock_Guitar,6,2,ruriko_tyusingura_warm_pop,0.19106660783290863,0
62,100,0.13636363636363635,721,0,33,DL_Warm_Pop_Rock_Guitar,6,2,ruriko_tyusingura_warm_pop,0.2619805634021759,0
62,100,0.8,774,1,34,DL_Warm_Pop_Rock_Guitar,6,13,ruriko_tyusingura_warm_pop,0.9792245030403137,1
57,100,0.2409090909090909,571,1,35,DL_Warm_Pop_Rock_Guitar,6,4,ruriko_tyusingura_warm_pop,0.9988439083099365,1
52,100,0.3,655,0,35,DL_Warm_Pop_Rock_Guitar,6,5,ruriko_tyusingura_warm_pop,0.13798603415489197,0
62,100,0.11818181818181818,721,0,35,DL_Warm_Pop_Rock_Guitar,6,2,ruriko_tyusingura_warm_pop,0.16236667335033417,0
62,100,0.1409090909090909,823,0,35,DL_Warm_Pop_Rock_Guitar,6,2,ruriko_tyusingura_warm_pop,0.19106005132198334,0
52,100,0.21818181818181817,866,0,35,DL_Warm_Pop_Rock_Guitar,6,3,ruriko_tyusingura_warm_pop,0.2619783580303192,0
52,100,0.21818181818181817,40,1,36,DL_Warm_Pop_Rock_Guitar,6,3,ruriko_tyusingura_warm_pop,0.9988439083099365,1
52,100,0.17727272727272728,206,0,36,DL_Warm_Pop_Rock_Guitar,6,3,ruriko_tyusingura_warm_pop,0.13798771798610687,0
62,100,1.0,321,0,36,DL_Warm_Pop_Rock_Guitar,6,15,ruriko_tyusingura_warm_pop,0.16237014532089233,0
52,100,0.21818181818181817,545,0,36,DL_Warm_Pop_Rock_Guitar,6,3,ruriko_tyusingura_warm_pop,0.19106847047805786,0
62,100,1.1818181818181819,716,0,36,DL_Warm_Pop_Rock_Guitar,6,15,ruriko_tyusingura_warm_pop,0.26197174191474915,0
60,100,0.11818181818181818,118,1,37,DL_Warm_Pop_Rock_Guitar,6,2,ruriko_tyusingura_warm_pop,0.9990094900131226,1
62,100,0.2818181818181818,201,0,37,DL_Warm_Pop_Rock_Guitar,6,5,ruriko_tyusingura_warm_pop,0.23324090242385864,0
62,100,0.2,545,1,37,DL_Warm_Pop_Rock_Guitar,6,3,ruriko_tyusingura_warm_pop,0.270587682723999,0
62,100,0.4,721,0,37,DL_Warm_Pop_Rock_Guitar,6,6,ruriko_tyusingura_warm_pop,0.3579423129558563,0
62,100,0.8227272727272728,56,1,38,DL_Warm_Pop_Rock_Guitar,6,13,ruriko_tyusingura_warm_pop,0.9986506104469299,1
57,100,0.1590909090909091,325,1,38,DL_Warm_Pop_Rock_Guitar,6,3,ruriko_tyusingura_warm_pop,0.08798060566186905,0
62,100,0.1590909090909091,396,0,38,DL_Warm_Pop_Rock_Guitar,6,3,ruriko_tyusingura_warm_pop,0.09298683702945709,0
62,100,0.2772727272727273,471,0,38,DL_Warm_Pop_Rock_Guitar,6,4,ruriko_tyusingura_warm_pop,0.10995177924633026,0
62,100,0.13636363636363635,810,1,38,DL_Warm_Pop_Rock_Guitar,6,2,ruriko_tyusingura_warm_pop,0.12867753207683563,0
52,100,0.38181818181818183,861,0,38,DL_Warm_Pop_Rock_Guitar,6,6,ruriko_tyusingura_warm_pop,0.18223418295383453,0
62,100,0.32272727272727275,298,1,39,DL_Warm_Pop_Rock_Guitar,6,5,ruriko_tyusingura_warm_pop,0.9990280866622925,1
55,100,0.4409090909090909,421,0,39,DL_Warm_Pop_Rock_Guitar,6,7,ruriko_tyusingura_warm_pop,0.370341032743454,0
55,100,0.22272727272727272,584,0,39,DL_Warm_Pop_Rock_Guitar,6,4,ruriko_tyusingura_warm_pop,0.4561753273010254,0
60,100,0.2409090909090909,48,1,40,DL_Warm_Pop_Rock_Guitar,6,4,ruriko_tyusingura_warm_pop,0.9986506104469299,1
62,100,0.3,220,0,40,DL_Warm_Pop_Rock_Guitar,6,5,ruriko_tyusingura_warm_pop,0.08798015117645264,0
62,100,0.1409090909090909,289,0,40,DL_Warm_Pop_Rock_Guitar,6,2,ruriko_tyusingura_warm_pop,0.09298668056726456,0
62,100,0.38181818181818183,474,0,40,DL_Warm_Pop_Rock_Guitar,6,6,ruriko_tyusingura_warm_pop,0.1099526509642601,0
57,100,0.2772727272727273,691,0,40,DL_Warm_Pop_Rock_Guitar,6,4,ruriko_tyusingura_warm_pop,0.12867788970470428,0
52,100,0.4818181818181818,783,0,40,DL_Warm_Pop_Rock_Guitar,6,8,ruriko_tyusingura_warm_pop,0.1822282373905182,0
52,100,0.4772727272727273,18,1,41,DL_Warm_Pop_Rock_Guitar,6,8,ruriko_tyusingura_warm_pop,0.9986506104469299,1
52,100,0.16363636363636364,158,0,41,DL_Warm_Pop_Rock_Guitar,6,3,ruriko_tyusingura_warm_pop,0.08798019587993622,0
52,100,0.22272727272727272,201,0,41,DL_Warm_Pop_Rock_Guitar,6,4,ruriko_tyusingura_warm_pop,0.09298782795667648,0
52,100,0.3,260,0,41,DL_Warm_Pop_Rock_Guitar,6,5,ruriko_tyusingura_warm_pop,0.10995227098464966,0
52,100,0.38181818181818183,396,0,41,DL_Warm_Pop_Rock_Guitar,6,6,ruriko_tyusingura_warm_pop,0.12867717444896698,0
64,100,0.6590909090909091,496,0,41,DL_Warm_Pop_Rock_Guitar,6,11,ruriko_tyusingura_warm_pop,0.18222370743751526,0
57,100,0.35909090909090907,206,1,43,DL_Warm_Pop_Rock_Guitar,6,6,ruriko_tyusingura_warm_pop,0.9990280866622925,1
54,100,0.22272727272727272,421,0,43,DL_Warm_Pop_Rock_Guitar,6,4,ruriko_tyusingura_warm_pop,0.3703392744064331,0
66,100,0.4,471,0,43,DL_Warm_Pop_Rock_Guitar,6,6,ruriko_tyusingura_warm_pop,0.45616960525512695,0
62,100,0.21818181818181817,571,1,44,DL_Warm_Pop_Rock_Guitar,6,3,ruriko_tyusingura_warm_pop,0.9990280866622925,1
52,100,0.2409090909090909,625,0,44,DL_Warm_Pop_Rock_Guitar,6,4,ruriko_tyusingura_warm_pop,0.37035059928894043,0
52,100,0.2818181818181818,738,0,44,DL_Warm_Pop_Rock_Guitar,6,5,ruriko_tyusingura_warm_pop,0.4561792314052582,0
62,100,0.2818181818181818,198,1,45,DL_Warm_Pop_Rock_Guitar,6,5,ruriko_tyusingura_warm_pop,0.9792227745056152,1
52,100,0.1409090909090909,13,1,46,DL_Warm_Pop_Rock_Guitar,6,2,ruriko_tyusingura_warm_pop,0.9988439083099365,1
52,100,0.6818181818181818,69,0,46,DL_Warm_Pop_Rock_Guitar,6,11,ruriko_tyusingura_warm_pop,0.1379820704460144,0
52,100,0.1590909090909091,241,0,46,DL_Warm_Pop_Rock_Guitar,6,3,ruriko_tyusingura_warm_pop,0.16236922144889832,0
52,100,0.7,471,0,46,DL_Warm_Pop_Rock_Guitar,6,11,ruriko_tyusingura_warm_pop,0.1910603940486908,0
52,100,0.9772727272727273,668,0,46,DL_Warm_Pop_Rock_Guitar,6,15,ruriko_tyusingura_warm_pop,0.26197338104248047,0
62,100,0.1590909090909091,276,1,47,DL_Warm_Pop_Rock_Guitar,6,3,ruriko_tyusingura_warm_pop,0.9983231425285339,1
62,100,0.6818181818181818,606,1,47,DL_Warm_Pop_Rock_Guitar,6,11,ruriko_tyusingura_warm_pop,0.5462210774421692,1
57,100,0.2409090909090909,871,1,56,DL_Warm_Pop_Rock_Guitar,6,4,ruriko_tyusingura_warm_pop,0.9792237281799316,1
52,100,0.2409090909090909,431,1,60,DL_Warm_Pop_Rock_Guitar,6,4,ruriko_tyusingura_warm_pop,0.9990094900131226,1
52,100,0.11818181818181818,493,0,60,DL_Warm_Pop_Rock_Guitar,6,2,ruriko_tyusingura_warm_pop,0.2332298308610916,0
52,100,0.1,531,0,60,DL_Warm_Pop_Rock_Guitar,6,2,ruriko_tyusingura_warm_pop,0.2705840468406677,0
52,100,0.42272727272727273,826,1,60,DL_Warm_Pop_Rock_Guitar,6,7,ruriko_tyusingura_warm_pop,0.35793304443359375,0
62,100,0.21818181818181817,198,1,61,DL_Warm_Pop_Rock_Guitar,6,3,ruriko_tyusingura_warm_pop,0.9983232617378235,1
55,100,0.17727272727272728,691,1,61,DL_Warm_Pop_Rock_Guitar,6,3,ruriko_tyusingura_warm_pop,0.5462213158607483,1
62,100,0.7,9,1,66,DL_Warm_Pop_Rock_Guitar,6,11,ruriko_tyusingura_warm_pop,0.9983231425285339,1
62,100,2.081818181818182,716,1,66,DL_Warm_Pop_Rock_Guitar,6,15,ruriko_tyusingura_warm_pop,0.5462150573730469,1
62,100,0.2,603,1,67,DL_Warm_Pop_Rock_Guitar,6,3,ruriko_tyusingura_warm_pop,0.9792234897613525,1
62,100,0.1,756,1,70,DL_Warm_Pop_Rock_Guitar,6,2,ruriko_tyusingura_warm_pop,0.9792237281799316,1
62,100,0.2590909090909091,743,1,74,DL_Warm_Pop_Rock_Guitar,6,4,ruriko_tyusingura_warm_pop,0.9792230129241943,1
52,100,0.6818181818181818,35,1,75,DL_Warm_Pop_Rock_Guitar,6,11,ruriko_tyusingura_warm_pop,0.9986506104469299,1
64,100,0.1,330,1,75,DL_Warm_Pop_Rock_Guitar,6,2,ruriko_tyusingura_warm_pop,0.08798424154520035,0
62,100,0.759090909090909,365,0,75,DL_Warm_Pop_Rock_Guitar,6,12,ruriko_tyusingura_warm_pop,0.09298931062221527,0
52,100,0.21818181818181817,546,0,75,DL_Warm_Pop_Rock_Guitar,6,3,ruriko_tyusingura_warm_pop,0.10995929688215256,0
62,100,0.5,734,0,75,DL_Warm_Pop_Rock_Guitar,6,8,ruriko_tyusingura_warm_pop,0.12867924571037292,0
62,100,1.0,849,0,75,DL_Warm_Pop_Rock_Guitar,6,15,ruriko_tyusingura_warm_pop,0.18223196268081665,0
62,100,0.35909090909090907,426,1,76,DL_Warm_Pop_Rock_Guitar,6,6,ruriko_tyusingura_warm_pop,0.9983231425285339,1
62,100,0.2,590,0,76,DL_Warm_Pop_Rock_Guitar,6,3,ruriko_tyusingura_warm_pop,0.5462207198143005,1
62,100,0.11818181818181818,282,1,77,DL_Warm_Pop_Rock_Guitar,6,2,ruriko_tyusingura_warm_pop,0.9983231425285339,1
62,100,0.3181818181818182,572,1,77,DL_Warm_Pop_Rock_Guitar,6,5,ruriko_tyusingura_warm_pop,0.5462220907211304,1
52,100,0.3,206,1,78,DL_Warm_Pop_Rock_Guitar,6,5,ruriko_tyusingura_warm_pop,0.9988439083099365,1
52,100,0.2818181818181818,276,0,78,DL_Warm_Pop_Rock_Guitar,6,5,ruriko_tyusingura_warm_pop,0.1379822939634323,0
67,100,0.1590909090909091,370,0,78,DL_Warm_Pop_Rock_Guitar,6,3,ruriko_tyusingura_warm_pop,0.16236600279808044,0
62,100,0.18181818181818182,695,1,78,DL_Warm_Pop_Rock_Guitar,6,3,ruriko_tyusingura_warm_pop,0.1910601556301117,0
62,100,0.12272727272727273,739,0,78,DL_Warm_Pop_Rock_Guitar,6,2,ruriko_tyusingura_warm_pop,0.2619745135307312,0
62,100,0.3,163,1,79,DL_Warm_Pop_Rock_Guitar,6,5,ruriko_tyusingura_warm_pop,0.9792232513427734,1
52,100,0.4590909090909091,193,1,80,DL_Warm_Pop_Rock_Guitar,6,7,ruriko_tyusingura_warm_pop,0.9792243838310242,1
62,100,0.5181818181818182,440,1,81,DL_Warm_Pop_Rock_Guitar,6,8,ruriko_tyusingura_warm_pop,0.9983232617378235,1
62,100,0.7,624,0,81,DL_Warm_Pop_Rock_Guitar,6,11,ruriko_tyusingura_warm_pop,0.5462259650230408,1
52,100,0.22272727272727272,532,1,82,DL_Warm_Pop_Rock_Guitar,6,4,ruriko_tyusingura_warm_pop,0.9990280866622925,1
62,100,0.1,839,1,82,DL_Warm_Pop_Rock_Guitar,6,2,ruriko_tyusingura_warm_pop,0.3703419864177704,0
62,100,0.1,866,0,82,DL_Warm_Pop_Rock_Guitar,6,2,ruriko_tyusingura_warm_pop,0.4561783969402313,0
62,100,0.13636363636363635,150,1,83,DL_Warm_Pop_Rock_Guitar,6,2,ruriko_tyusingura_warm_pop,0.9792241454124451,1
52,100,0.37727272727272726,414,1,0,Dl_Nostalgic_2_Guitar,6,6,zenigata_nostalgic,0.9990280866622925,1
54,100,0.3181818181818182,502,0,0,Dl_Nostalgic_2_Guitar,6,5,zenigata_nostalgic,0.3703426718711853,0
57,100,0.2818181818181818,585,0,0,Dl_Nostalgic_2_Guitar,6,5,zenigata_nostalgic,0.45617106556892395,0
61,100,0.2,157,1,1,Dl_Nostalgic_2_Guitar,6,3,zenigata_nostalgic,0.9990280866622925,1
61,100,0.17727272727272728,206,0,1,Dl_Nostalgic_2_Guitar,6,3,zenigata_nostalgic,0.3703390955924988,0
52,100,0.2,752,1,1,Dl_Nostalgic_2_Guitar,6,3,zenigata_nostalgic,0.45617324113845825,0
61,100,0.1409090909090909,220,1,2,Dl_Nostalgic_2_Guitar,6,2,zenigata_nostalgic,0.9990094900131226,1
52,100,0.12272727272727273,342,0,2,Dl_Nostalgic_2_Guitar,6,2,zenigata_nostalgic,0.23323415219783783,0
61,100,0.2,440,0,2,Dl_Nostalgic_2_Guitar,6,3,zenigata_nostalgic,0.270587295293808,0
54,100,1.1590909090909092,804,1,2,Dl_Nostalgic_2_Guitar,6,15,zenigata_nostalgic,0.35793280601501465,0
66,100,0.1409090909090909,268,1,3,Dl_Nostalgic_2_Guitar,6,2,zenigata_nostalgic,0.9990280866622925,1
54,100,0.2409090909090909,421,0,3,Dl_Nostalgic_2_Guitar,6,4,zenigata_nostalgic,0.37033528089523315,0
54,100,0.21818181818181817,703,1,3,Dl_Nostalgic_2_Guitar,6,3,zenigata_nostalgic,0.4561646580696106,0
54,100,0.12272727272727273,48,1,4,Dl_Nostalgic_2_Guitar,6,2,zenigata_nostalgic,0.9986506104469299,1
54,100,0.4,435,1,4,Dl_Nostalgic_2_Guitar,6,6,zenigata_nostalgic,0.08798060566186905,0
57,100,0.17727272727272728,524,0,4,Dl_Nostalgic_2_Guitar,6,3,zenigata_nostalgic,0.0929824709892273,0
57,100,0.2409090909090909,606,0,4,Dl_Nostalgic_2_Guitar,6,4,zenigata_nostalgic,0.10994987189769745,0
57,100,0.21818181818181817,691,0,4,Dl_Nostalgic_2_Guitar,6,3,zenigata_nostalgic,0.12867207825183868,0
57,100,0.1409090909090909,813,0,4,Dl_Nostalgic_2_Guitar,6,2,zenigata_nostalgic,0.18222057819366455,0
52,100,0.1409090909090909,8,1,5,Dl_Nostalgic_2_Guitar,6,2,zenigata_nostalgic,0.9990280866622925,1
57,100,0.2409090909090909,338,1,5,Dl_Nostalgic_2_Guitar,6,4,zenigata_nostalgic,0.3703424036502838,0
57,100,0.2772727272727273,810,1,5,Dl_Nostalgic_2_Guitar,6,4,zenigata_nostalgic,0.45616868138313293,0
57,100,0.16363636363636364,4,1,6,Dl_Nostalgic_2_Guitar,6,3,zenigata_nostalgic,0.9983232617378235,1
69,100,0.18181818181818182,431,1,6,Dl_Nostalgic_2_Guitar,6,3,zenigata_nostalgic,0.5462173223495483,1
69,100,0.2590909090909091,18,1,7,Dl_Nostalgic_2_Guitar,6,4,zenigata_nostalgic,0.9988439083099365,1
57,100,0.1590909090909091,74,0,7,Dl_Nostalgic_2_Guitar,6,3,zenigata_nostalgic,0.1379813402891159,0
61,100,0.22272727272727272,158,0,7,Dl_Nostalgic_2_Guitar,6,4,zenigata_nostalgic,0.162366583943367,0
66,100,0.17727272727272728,721,1,7,Dl_Nostalgic_2_Guitar,6,3,zenigata_nostalgic,0.1910654753446579,0
54,100,0.9409090909090909,761,0,7,Dl_Nostalgic_2_Guitar,6,15,zenigata_nostalgic,0.26196175813674927,0
57,100,0.2,110,1,8,Dl_Nostalgic_2_Guitar,6,3,zenigata_nostalgic,0.9984880685806274,1
54,100,0.2,154,0,8,Dl_Nostalgic_2_Guitar,6,3,zenigata_nostalgic,0.06335347145795822,0
66,100,0.5,211,0,8,Dl_Nostalgic_2_Guitar,6,8,zenigata_nostalgic,0.05828867852687836,0
52,100,0.13636363636363635,326,0,8,Dl_Nostalgic_2_Guitar,6,2,zenigata_nostalgic,0.061361901462078094,0
52,100,0.8636363636363636,378,0,8,Dl_Nostalgic_2_Guitar,6,14,zenigata_nostalgic,0.0716811865568161,0
54,100,0.1590909090909091,625,1,8,Dl_Nostalgic_2_Guitar,6,3,zenigata_nostalgic,0.08473622053861618,0
52,100,0.9,792,0,8,Dl_Nostalgic_2_Guitar,6,14,zenigata_nostalgic,0.12634959816932678,0
64,100,0.22272727272727272,123,1,9,Dl_Nostalgic_2_Guitar,6,4,zenigata_nostalgic,0.9986506104469299,1
57,100,0.1409090909090909,202,0,9,Dl_Nostalgic_2_Guitar,6,2,zenigata_nostalgic,0.08797953277826309,0
52,100,0.2,259,0,9,Dl_Nostalgic_2_Guitar,6,3,zenigata_nostalgic,0.09298828989267349,0
59,100,0.33636363636363636,326,0,9,Dl_Nostalgic_2_Guitar,6,5,zenigata_nostalgic,0.1099526658654213,0
57,100,1.1818181818181819,400,0,9,Dl_Nostalgic_2_Guitar,6,15,zenigata_nostalgic,0.128675177693367,0
57,100,0.22272727272727272,761,1,9,Dl_Nostalgic_2_Guitar,6,4,zenigata_nostalgic,0.1822231411933899,0
57,100,0.12272727272727273,25,1,10,Dl_Nostalgic_2_Guitar,6,2,zenigata_nostalgic,0.9988439083099365,1
69,100,0.1,254,0,10,Dl_Nostalgic_2_Guitar,6,2,zenigata_nostalgic,0.13798648118972778,0
57,100,0.6409090909090909,276,0,10,Dl_Nostalgic_2_Guitar,6,10,zenigata_nostalgic,0.16236761212348938,0
57,100,0.1,470,0,10,Dl_Nostalgic_2_Guitar,6,2,zenigata_nostalgic,0.1910611093044281,0
57,100,0.740909090909091,735,1,10,Dl_Nostalgic_2_Guitar,6,12,zenigata_nostalgic,0.2619653642177582,0
57,100,0.2590909090909091,233,1,11,Dl_Nostalgic_2_Guitar,6,4,zenigata_nostalgic,0.9988439083099365,1
57,100,0.5,295,0,11,Dl_Nostalgic_2_Guitar,6,8,zenigata_nostalgic,0.13798421621322632,0
57,100,0.5363636363636364,414,0,11,Dl_Nostalgic_2_Guitar,6,9,zenigata_nostalgic,0.16237400472164154,0
54,100,1.240909090909091,541,0,11,Dl_Nostalgic_2_Guitar,6,15,zenigata_nostalgic,0.19106517732143402,0
57,100,0.2818181818181818,818,1,11,Dl_Nostalgic_2_Guitar,6,5,zenigata_nostalgic,0.26197710633277893,0
54,100,0.4,175,1,12,Dl_Nostalgic_2_Guitar,6,6,zenigata_nostalgic,0.9986506104469299,1
54,100,0.1,268,0,12,Dl_Nostalgic_2_Guitar,6,2,zenigata_nostalgic,0.08797900378704071,0
57,100,0.4590909090909091,414,0,12,Dl_Nostalgic_2_Guitar,6,7,zenigata_nostalgic,0.09298277646303177,0
61,100,0.17727272727272728,536,0,12,Dl_Nostalgic_2_Guitar,6,3,zenigata_nostalgic,0.10994907468557358,0
54,100,0.5409090909090909,660,0,12,Dl_Nostalgic_2_Guitar,6,9,zenigata_nostalgic,0.12867042422294617,0
57,100,0.1,809,0,12,Dl_Nostalgic_2_Guitar,6,2,zenigata_nostalgic,0.18221737444400787,0
57,100,0.1590909090909091,13,1,13,Dl_Nostalgic_2_Guitar,6,3,zenigata_nostalgic,0.9988439083099365,1
69,100,0.3,79,0,13,Dl_Nostalgic_2_Guitar,6,5,zenigata_nostalgic,0.13798858225345612,0
69,100,0.2409090909090909,163,0,13,Dl_Nostalgic_2_Guitar,6,4,zenigata_nostalgic,0.16237549483776093,0
57,100,0.2636363636363636,290,0,13,Dl_Nostalgic_2_Guitar,6,4,zenigata_nostalgic,0.19106951355934143,0
57,100,0.6818181818181818,527,1,13,Dl_Nostalgic_2_Guitar,6,11,zenigata_nostalgic,0.2619689702987671,0
57,100,0.3409090909090909,96,1,14,Dl_Nostalgic_2_Guitar,6,5,zenigata_nostalgic,0.9983231425285339,1
57,100,0.8363636363636363,567,1,14,Dl_Nostalgic_2_Guitar,6,13,zenigata_nostalgic,0.5462209582328796,1
57,100,0.35909090909090907,171,1,15,Dl_Nostalgic_2_Guitar,6,6,zenigata_nostalgic,0.9986506104469299,1
57,100,0.2590909090909091,254,0,15,Dl_Nostalgic_2_Guitar,6,4,zenigata_nostalgic,0.08798393607139587,0
57,100,0.38181818181818183,321,0,15,Dl_Nostalgic_2_Guitar,6,6,zenigata_nostalgic,0.09298953413963318,0
57,100,0.1409090909090909,558,1,15,Dl_Nostalgic_2_Guitar,6,2,zenigata_nostalgic,0.10995719581842422,0
57,100,0.42272727272727273,651,0,15,Dl_Nostalgic_2_Guitar,6,7,zenigata_nostalgic,0.12868323922157288,0
57,100,0.38181818181818183,804,0,15,Dl_Nostalgic_2_Guitar,6,6,zenigata_nostalgic,0.18222902715206146,0
57,100,0.1,100,1,16,Dl_Nostalgic_2_Guitar,6,2,zenigata_nostalgic,0.9986506104469299,1
57,100,0.38181818181818183,254,0,16,Dl_Nostalgic_2_Guitar,6,6,zenigata_nostalgic,0.0879831314086914,0
57,100,0.21818181818181817,347,0,16,Dl_Nostalgic_2_Guitar,6,3,zenigata_nostalgic,0.09298733621835709,0
57,100,0.3,426,0,16,Dl_Nostalgic_2_Guitar,6,5,zenigata_nostalgic,0.10995586961507797,0
57,100,0.2818181818181818,550,0,16,Dl_Nostalgic_2_Guitar,6,5,zenigata_nostalgic,0.12867534160614014,0
57,100,0.6409090909090909,729,0,16,Dl_Nostalgic_2_Guitar,6,10,zenigata_nostalgic,0.1822313368320465,0
57,100,1.3818181818181818,3,1,17,Dl_Nostalgic_2_Guitar,6,15,zenigata_nostalgic,0.9984879493713379,1
57,100,0.5590909090909091,326,1,17,Dl_Nostalgic_2_Guitar,6,9,zenigata_nostalgic,0.06335366517305374,0
57,100,0.4590909090909091,457,0,17,Dl_Nostalgic_2_Guitar,6,7,zenigata_nostalgic,0.05829073116183281,0
57,100,0.2409090909090909,594,0,17,Dl_Nostalgic_2_Guitar,6,4,zenigata_nostalgic,0.0613633394241333,0
57,100,0.1409090909090909,660,0,17,Dl_Nostalgic_2_Guitar,6,2,zenigata_nostalgic,0.07168586552143097,0
57,100,0.2,700,0,17,Dl_Nostalgic_2_Guitar,6,3,zenigata_nostalgic,0.08474043756723404,0
57,100,0.38181818181818183,804,0,17,Dl_Nostalgic_2_Guitar,6,6,zenigata_nostalgic,0.12635460495948792,0
69,100,0.2,9,1,18,Dl_Nostalgic_2_Guitar,6,3,zenigata_nostalgic,0.9990094900131226,1
57,100,0.5,52,0,18,Dl_Nostalgic_2_Guitar,6,8,zenigata_nostalgic,0.23323185741901398,0
52,100,0.3409090909090909,185,0,18,Dl_Nostalgic_2_Guitar,6,5,zenigata_nostalgic,0.27059364318847656,0
57,100,0.3409090909090909,409,0,18,Dl_Nostalgic_2_Guitar,6,5,zenigata_nostalgic,0.3579293489456177,0
59,100,0.22272727272727272,3,1,19,Dl_Nostalgic_2_Guitar,6,4,zenigata_nostalgic,0.9986506104469299,1
64,100,0.2818181818181818,110,0,19,Dl_Nostalgic_2_Guitar,6,5,zenigata_nostalgic,0.08797888457775116,0
61,100,0.2590909090909091,189,0,19,Dl_Nostalgic_2_Guitar,6,4,zenigata_nostalgic,0.09298325330018997,0
61,100,0.2409090909090909,673,1,19,Dl_Nostalgic_2_Guitar,6,4,zenigata_nostalgic,0.10995092242956161,0
59,100,0.2,752,0,19,Dl_Nostalgic_2_Guitar,6,3,zenigata_nostalgic,0.12867282330989838,0
59,100,0.9,814,0,19,Dl_Nostalgic_2_Guitar,6,14,zenigata_nostalgic,0.18221667408943176,0
59,100,0.1409090909090909,136,1,20,Dl_Nostalgic_2_Guitar,6,2,zenigata_nostalgic,0.9983735084533691,1
59,100,0.21818181818181817,175,0,20,Dl_Nostalgic_2_Guitar,6,3,zenigata_nostalgic,0.051049843430519104,0
64,100,0.1409090909090909,295,0,20,Dl_Nostalgic_2_Guitar,6,2,zenigata_nostalgic,0.04161205515265465,0
61,100,0.2409090909090909,409,0,20,Dl_Nostalgic_2_Guitar,6,4,zenigata_nostalgic,0.037978991866111755,0
64,100,0.18181818181818182,488,0,20,Dl_Nostalgic_2_Guitar,6,3,zenigata_nostalgic,0.039261285215616226,0
61,100,0.3,638,0,20,Dl_Nostalgic_2_Guitar,6,5,zenigata_nostalgic,0.04616512358188629,0
61,100,0.2590909090909091,756,0,20,Dl_Nostalgic_2_Guitar,6,4,zenigata_nostalgic,0.05713336169719696,0
61,100,0.2772727272727273,866,0,20,Dl_Nostalgic_2_Guitar,6,4,zenigata_nostalgic,0.09188035875558853,0
61,100,0.3181818181818182,162,1,21,Dl_Nostalgic_2_Guitar,6,5,zenigata_nostalgic,0.9986506104469299,1
61,100,0.35909090909090907,330,0,21,Dl_Nostalgic_2_Guitar,6,6,zenigata_nostalgic,0.08797949552536011,0
61,100,0.4818181818181818,430,0,21,Dl_Nostalgic_2_Guitar,6,8,zenigata_nostalgic,0.09298450499773026,0
61,100,0.1590909090909091,611,0,21,Dl_Nostalgic_2_Guitar,6,3,zenigata_nostalgic,0.10995026677846909,0
61,100,0.43636363636363634,656,0,21,Dl_Nostalgic_2_Guitar,6,7,zenigata_nostalgic,0.12867438793182373,0
61,100,0.37727272727272726,810,0,21,Dl_Nostalgic_2_Guitar,6,6,zenigata_nostalgic,0.18222276866436005,0
52,100,0.1409090909090909,220,1,22,Dl_Nostalgic_2_Guitar,6,2,zenigata_nostalgic,0.9983231425285339,1
57,100,0.11818181818181818,748,1,22,Dl_Nostalgic_2_Guitar,6,2,zenigata_nostalgic,0.5462142825126648,1
52,100,0.1,21,1,23,Dl_Nostalgic_2_Guitar,6,2,zenigata_nostalgic,0.9988439083099365,1
61,100,0.759090909090909,339,1,23,Dl_Nostalgic_2_Guitar,6,12,zenigata_nostalgic,0.13798092305660248,0
62,100,0.3,584,1,23,Dl_Nostalgic_2_Guitar,6,5,zenigata_nostalgic,0.16236770153045654,0
62,100,0.8590909090909091,673,0,23,Dl_Nostalgic_2_Guitar,6,14,zenigata_nostalgic,0.19105979800224304,0
62,100,0.1409090909090909,870,0,23,Dl_Nostalgic_2_Guitar,6,2,zenigata_nostalgic,0.26197999715805054,0
62,100,0.12272727272727273,144,1,24,Dl_Nostalgic_2_Guitar,6,2,zenigata_nostalgic,0.9990094900131226,1
59,100,0.1590909090909091,320,0,24,Dl_Nostalgic_2_Guitar,6,3,zenigata_nostalgic,0.23323841392993927,0
59,100,0.6,436,0,24,Dl_Nostalgic_2_Guitar,6,10,zenigata_nostalgic,0.27058523893356323,0
61,100,0.4,717,1,24,Dl_Nostalgic_2_Guitar,6,6,zenigata_nostalgic,0.35792791843414307,0
57,100,0.4590909090909091,30,1,25,Dl_Nostalgic_2_Guitar,6,7,zenigata_nostalgic,0.9990094900131226,1
58,100,0.2818181818181818,179,0,25,Dl_Nostalgic_2_Guitar,6,5,zenigata_nostalgic,0.23323701322078705,0
61,100,0.21818181818181817,339,0,25,Dl_Nostalgic_2_Guitar,6,3,zenigata_nostalgic,0.2705828547477722,0
62,100,0.6181818181818182,756,1,25,Dl_Nostalgic_2_Guitar,6,10,zenigata_nostalgic,0.3579351007938385,0
57,100,0.12272727272727273,48,1,26,Dl_Nostalgic_2_Guitar,6,2,zenigata_nostalgic,0.9986506104469299,1
62,100,0.2,100,0,26,Dl_Nostalgic_2_Guitar,6,3,zenigata_nostalgic,0.08798331022262573,0
57,100,0.6181818181818182,150,0,26,Dl_Nostalgic_2_Guitar,6,10,zenigata_nostalgic,0.09298816323280334,0
59,100,0.1590909090909091,656,1,26,Dl_Nostalgic_2_Guitar,6,3,zenigata_nostalgic,0.10995742678642273,0
59,100,0.12272727272727273,708,0,26,Dl_Nostalgic_2_Guitar,6,2,zenigata_nostalgic,0.12867987155914307,0
57,100,0.1590909090909091,822,0,26,Dl_Nostalgic_2_Guitar,6,3,zenigata_nostalgic,0.1822260171175003,0
61,100,0.3409090909090909,92,1,27,Dl_Nostalgic_2_Guitar,6,5,zenigata_nostalgic,0.9986506104469299,1
61,100,0.3,316,0,27,Dl_Nostalgic_2_Guitar,6,5,zenigata_nostalgic,0.08797807991504669,0
52,100,0.4,488,0,27,Dl_Nostalgic_2_Guitar,6,6,zenigata_nostalgic,0.09298406541347504,0
52,100,0.11818181818181818,602,0,27,Dl_Nostalgic_2_Guitar,6,2,zenigata_nostalgic,0.10994776338338852,0
61,100,0.2590909090909091,700,0,27,Dl_Nostalgic_2_Guitar,6,4,zenigata_nostalgic,0.12866948544979095,0
64,100,0.12272727272727273,862,0,27,Dl_Nostalgic_2_Guitar,6,2,zenigata_nostalgic,0.18222498893737793,0
61,100,0.11818181818181818,9,1,28,Dl_Nostalgic_2_Guitar,6,2,zenigata_nostalgic,0.9986506104469299,1
61,100,0.1409090909090909,44,0,28,Dl_Nostalgic_2_Guitar,6,2,zenigata_nostalgic,0.08798135817050934,0
57,100,0.3181818181818182,281,1,28,Dl_Nostalgic_2_Guitar,6,5,zenigata_nostalgic,0.09298612177371979,0
57,100,0.2409090909090909,387,0,28,Dl_Nostalgic_2_Guitar,6,4,zenigata_nostalgic,0.10995294153690338,0
61,100,0.1590909090909091,691,1,28,Dl_Nostalgic_2_Guitar,6,3,zenigata_nostalgic,0.1286771446466446,0
57,100,0.5409090909090909,791,0,28,Dl_Nostalgic_2_Guitar,6,9,zenigata_nostalgic,0.18222148716449738,0
61,100,0.2409090909090909,123,1,29,Dl_Nostalgic_2_Guitar,6,4,zenigata_nostalgic,0.9990280866622925,1
52,100,0.11818181818181818,501,1,29,Dl_Nostalgic_2_Guitar,6,2,zenigata_nostalgic,0.3703487515449524,0
69,100,0.1409090909090909,827,1,29,Dl_Nostalgic_2_Guitar,6,2,zenigata_nostalgic,0.4561736285686493,0
57,100,0.1409090909090909,167,1,30,Dl_Nostalgic_2_Guitar,6,2,zenigata_nostalgic,0.9990094900131226,1
57,100,0.2,202,0,30,Dl_Nostalgic_2_Guitar,6,3,zenigata_nostalgic,0.2332332581281662,0
69,100,0.21818181818181817,418,0,30,Dl_Nostalgic_2_Guitar,6,3,zenigata_nostalgic,0.2705850601196289,0
57,100,0.1409090909090909,466,0,30,Dl_Nostalgic_2_Guitar,6,2,zenigata_nostalgic,0.3579321801662445,0
57,100,0.1409090909090909,48,1,31,Dl_Nostalgic_2_Guitar,6,2,zenigata_nostalgic,0.9990094900131226,1
61,100,0.1409090909090909,532,1,31,Dl_Nostalgic_2_Guitar,6,2,zenigata_nostalgic,0.23323214054107666,0
61,100,0.17727272727272728,567,0,31,Dl_Nostalgic_2_Guitar,6,3,zenigata_nostalgic,0.2705834209918976,0
61,100,0.1,646,0,31,Dl_Nostalgic_2_Guitar,6,2,zenigata_nostalgic,0.3579251766204834,0
69,100,0.21818181818181817,105,1,32,Dl_Nostalgic_2_Guitar,6,3,zenigata_nostalgic,0.9990094900131226,1
57,100,0.7227272727272728,334,0,32,Dl_Nostalgic_2_Guitar,6,12,zenigata_nostalgic,0.23324054479599,0
69,100,0.1409090909090909,576,1,32,Dl_Nostalgic_2_Guitar,6,2,zenigata_nostalgic,0.2706071138381958,0
57,100,1.8227272727272728,651,0,32,Dl_Nostalgic_2_Guitar,6,15,zenigata_nostalgic,0.3579241931438446,0
69,100,0.18181818181818182,176,1,33,Dl_Nostalgic_2_Guitar,6,3,zenigata_nostalgic,0.9988439083099365,1
57,100,0.9181818181818182,215,0,33,Dl_Nostalgic_2_Guitar,6,15,zenigata_nostalgic,0.13798533380031586,0
57,100,0.6227272727272727,509,1,33,Dl_Nostalgic_2_Guitar,6,10,zenigata_nostalgic,0.16237162053585052,0
57,100,0.33636363636363636,655,0,33,Dl_Nostalgic_2_Guitar,6,5,zenigata_nostalgic,0.19106343388557434,0
64,100,0.2,765,0,33,Dl_Nostalgic_2_Guitar,6,3,zenigata_nostalgic,0.2619779706001282,0
61,100,0.11818181818181818,0,1,34,Dl_Nostalgic_2_Guitar,6,2,zenigata_nostalgic,0.9986506104469299,1
57,100,1.018181818181818,263,1,34,Dl_Nostalgic_2_Guitar,6,15,zenigata_nostalgic,0.087980255484581,0
54,100,0.2409090909090909,496,1,34,Dl_Nostalgic_2_Guitar,6,4,zenigata_nostalgic,0.09298587590456009,0
54,100,0.12272727272727273,619,0,34,Dl_Nostalgic_2_Guitar,6,2,zenigata_nostalgic,0.10994981229305267,0
69,100,0.11818181818181818,756,0,34,Dl_Nostalgic_2_Guitar,6,2,zenigata_nostalgic,0.1286710947751999,0
54,100,0.2409090909090909,804,0,34,Dl_Nostalgic_2_Guitar,6,4,zenigata_nostalgic,0.18221700191497803,0
54,100,0.3409090909090909,21,1,35,Dl_Nostalgic_2_Guitar,6,5,zenigata_nostalgic,0.9983735084533691,1
69,100,0.11818181818181818,348,1,35,Dl_Nostalgic_2_Guitar,6,2,zenigata_nostalgic,0.051050666719675064,0
54,100,0.42272727272727273,399,0,35,Dl_Nostalgic_2_Guitar,6,7,zenigata_nostalgic,0.041612908244132996,0
54,100,0.11818181818181818,506,0,35,Dl_Nostalgic_2_Guitar,6,2,zenigata_nostalgic,0.03797926753759384,0
52,100,0.4,576,0,35,Dl_Nostalgic_2_Guitar,6,6,zenigata_nostalgic,0.03925957903265953,0
61,100,0.16363636363636364,664,0,35,Dl_Nostalgic_2_Guitar,6,3,zenigata_nostalgic,0.046163737773895264,0
52,100,0.3409090909090909,729,0,35,Dl_Nostalgic_2_Guitar,6,5,zenigata_nostalgic,0.05713023617863655,0
52,100,0.2590909090909091,810,0,35,Dl_Nostalgic_2_Guitar,6,4,zenigata_nostalgic,0.09187790006399155,0
52,100,0.4,8,1,36,Dl_Nostalgic_2_Guitar,6,6,zenigata_nostalgic,0.9983004927635193,1
61,100,0.21818181818181817,96,0,36,Dl_Nostalgic_2_Guitar,6,3,zenigata_nostalgic,0.044661566615104675,0
52,100,0.2,185,0,36,Dl_Nostalgic_2_Guitar,6,3,zenigata_nostalgic,0.033372752368450165,0
52,100,0.3181818181818182,308,0,36,Dl_Nostalgic_2_Guitar,6,5,zenigata_nostalgic,0.026948966085910797,0
57,100,0.1409090909090909,421,0,36,Dl_Nostalgic_2_Guitar,6,2,zenigata_nostalgic,0.0240850280970335,0
52,100,0.1409090909090909,619,0,36,Dl_Nostalgic_2_Guitar,6,2,zenigata_nostalgic,0.024974003434181213,0
61,100,0.13636363636363635,700,0,36,Dl_Nostalgic_2_Guitar,6,2,zenigata_nostalgic,0.03064858913421631,0
52,100,0.2,778,0,36,Dl_Nostalgic_2_Guitar,6,3,zenigata_nostalgic,0.04137060046195984,0
52,100,0.17727272727272728,845,0,36,Dl_Nostalgic_2_Guitar,6,3,zenigata_nostalgic,0.07207096368074417,0
69,100,0.1409090909090909,21,1,37,Dl_Nostalgic_2_Guitar,6,2,zenigata_nostalgic,0.9983735084533691,1
52,100,0.1409090909090909,185,0,37,Dl_Nostalgic_2_Guitar,6,2,zenigata_nostalgic,0.05104957893490791,0
59,100,0.2772727272727273,238,0,37,Dl_Nostalgic_2_Guitar,6,4,zenigata_nostalgic,0.041611045598983765,0
59,100,0.3,348,0,37,Dl_Nostalgic_2_Guitar,6,5,zenigata_nostalgic,0.03797883540391922,0
52,100,0.2,426,0,37,Dl_Nostalgic_2_Guitar,6,3,zenigata_nostalgic,0.03925905376672745,0
52,100,0.2,506,0,37,Dl_Nostalgic_2_Guitar,6,3,zenigata_nostalgic,0.04616419970989227,0
61,100,0.2590909090909091,660,0,37,Dl_Nostalgic_2_Guitar,6,4,zenigata_nostalgic,0.05713029205799103,0
61,100,0.3181818181818182,823,0,37,Dl_Nostalgic_2_Guitar,6,5,zenigata_nostalgic,0.09187949448823929,0
61,100,0.2,179,1,38,Dl_Nostalgic_2_Guitar,6,3,zenigata_nostalgic,0.9983004927635193,1
57,100,0.1,263,0,38,Dl_Nostalgic_2_Guitar,6,2,zenigata_nostalgic,0.04466305673122406,0
61,100,0.1409090909090909,298,0,38,Dl_Nostalgic_2_Guitar,6,2,zenigata_nostalgic,0.03337286785244942,0
56,100,0.4,338,0,38,Dl_Nostalgic_2_Guitar,6,6,zenigata_nostalgic,0.026950156316161156,0
56,100,0.3,431,0,38,Dl_Nostalgic_2_Guitar,6,5,zenigata_nostalgic,0.024085160344839096,0
59,100,0.11818181818181818,536,0,38,Dl_Nostalgic_2_Guitar,6,2,zenigata_nostalgic,0.024974822998046875,0
64,100,0.18181818181818182,783,1,38,Dl_Nostalgic_2_Guitar,6,3,zenigata_nostalgic,0.03064890392124653,0
52,100,0.11818181818181818,831,0,38,Dl_Nostalgic_2_Guitar,6,2,zenigata_nostalgic,0.041371461004018784,0
57,100,0.8227272727272728,871,0,38,Dl_Nostalgic_2_Guitar,6,13,zenigata_nostalgic,0.07206981629133224,0
57,100,0.2,246,1,39,Dl_Nostalgic_2_Guitar,6,3,zenigata_nostalgic,0.9988439083099365,1
57,100,0.11818181818181818,295,0,39,Dl_Nostalgic_2_Guitar,6,2,zenigata_nostalgic,0.13798931241035461,0
57,100,0.7818181818181819,364,0,39,Dl_Nostalgic_2_Guitar,6,13,zenigata_nostalgic,0.16237452626228333,0
61,100,0.17727272727272728,611,1,39,Dl_Nostalgic_2_Guitar,6,3,zenigata_nostalgic,0.19106850028038025,0
57,100,1.040909090909091,664,0,39,Dl_Nostalgic_2_Guitar,6,15,zenigata_nostalgic,0.26197418570518494,0
61,100,0.21818181818181817,118,1,40,Dl_Nostalgic_2_Guitar,6,3,zenigata_nostalgic,0.9986506104469299,1
61,100,0.41818181818181815,418,1,40,Dl_Nostalgic_2_Guitar,6,7,zenigata_nostalgic,0.08798246830701828,0
56,100,0.6,515,0,40,Dl_Nostalgic_2_Guitar,6,10,zenigata_nostalgic,0.09298589080572128,0
64,100,0.1409090909090909,686,0,40,Dl_Nostalgic_2_Guitar,6,2,zenigata_nostalgic,0.10995393246412277,0
57,100,0.2,748,0,40,Dl_Nostalgic_2_Guitar,6,3,zenigata_nostalgic,0.12867195904254913,0
64,100,0.5,796,0,40,Dl_Nostalgic_2_Guitar,6,8,zenigata_nostalgic,0.18222931027412415,0
57,100,0.2590909090909091,131,1,41,Dl_Nostalgic_2_Guitar,6,4,zenigata_nostalgic,0.9990094900131226,1
57,100,0.1590909090909091,506,1,41,Dl_Nostalgic_2_Guitar,6,3,zenigata_nostalgic,0.2332354038953781,0
57,100,1.0,598,0,41,Dl_Nostalgic_2_Guitar,6,15,zenigata_nostalgic,0.27058565616607666,0
61,100,0.12272727272727273,839,1,41,Dl_Nostalgic_2_Guitar,6,2,zenigata_nostalgic,0.35792431235313416,0
57,100,0.23636363636363636,40,1,42,Dl_Nostalgic_2_Guitar,6,4,zenigata_nostalgic,0.9988439083099365,1
62,100,0.35909090909090907,330,1,42,Dl_Nostalgic_2_Guitar,6,6,zenigata_nostalgic,0.1379842311143875,0
62,100,0.38181818181818183,571,1,42,Dl_Nostalgic_2_Guitar,6,6,zenigata_nostalgic,0.1623677760362625,0
59,100,0.36363636363636365,664,0,42,Dl_Nostalgic_2_Guitar,6,6,zenigata_nostalgic,0.19106946885585785,0
64,100,0.11818181818181818,858,0,42,Dl_Nostalgic_2_Guitar,6,2,zenigata_nostalgic,0.2619762718677521,0
57,100,0.9227272727272727,254,1,43,Dl_Nostalgic_2_Guitar,6,15,zenigata_nostalgic,0.9990094900131226,1
57,100,0.2,506,1,43,Dl_Nostalgic_2_Guitar,6,3,zenigata_nostalgic,0.23323389887809753,0
58,100,0.740909090909091,651,0,43,Dl_Nostalgic_2_Guitar,6,12,zenigata_nostalgic,0.27058497071266174,0
58,100,0.37727272727272726,875,0,43,Dl_Nostalgic_2_Guitar,6,6,zenigata_nostalgic,0.3579227924346924,0
54,100,0.12272727272727273,364,1,44,Dl_Nostalgic_2_Guitar,6,2,zenigata_nostalgic,0.9990094900131226,1
57,100,0.2590909090909091,625,1,44,Dl_Nostalgic_2_Guitar,6,4,zenigata_nostalgic,0.23322945833206177,0
57,100,0.2590909090909091,756,0,44,Dl_Nostalgic_2_Guitar,6,4,zenigata_nostalgic,0.27058544754981995,0
59,100,0.21818181818181817,823,0,44,Dl_Nostalgic_2_Guitar,6,3,zenigata_nostalgic,0.3579303026199341,0
52,100,0.35909090909090907,298,1,45,Dl_Nostalgic_2_Guitar,6,6,zenigata_nostalgic,0.9990094900131226,1
61,100,1.1,418,0,45,Dl_Nostalgic_2_Guitar,6,15,zenigata_nostalgic,0.23322637379169464,0
52,100,0.1409090909090909,716,1,45,Dl_Nostalgic_2_Guitar,6,2,zenigata_nostalgic,0.27058351039886475,0
61,100,0.2590909090909091,813,0,45,Dl_Nostalgic_2_Guitar,6,4,zenigata_nostalgic,0.35792988538742065,0
61,100,0.2409090909090909,166,1,46,Dl_Nostalgic_2_Guitar,6,4,zenigata_nostalgic,0.9988439083099365,1
61,100,0.1,496,1,46,Dl_Nostalgic_2_Guitar,6,2,zenigata_nostalgic,0.13797912001609802,0
61,100,0.4,523,0,46,Dl_Nostalgic_2_Guitar,6,6,zenigata_nostalgic,0.16235999763011932,0
61,100,0.17727272727272728,655,0,46,Dl_Nostalgic_2_Guitar,6,3,zenigata_nostalgic,0.19105394184589386,0
62,100,0.41818181818181815,813,0,46,Dl_Nostalgic_2_Guitar,6,7,zenigata_nostalgic,0.26196664571762085,0
61,100,0.32272727272727275,26,1,47,Dl_Nostalgic_2_Guitar,6,5,zenigata_nostalgic,0.9986506104469299,1
56,100,0.9,110,0,47,Dl_Nostalgic_2_Guitar,6,14,zenigata_nostalgic,0.08798019587993622,0
52,100,0.1590909090909091,528,1,47,Dl_Nostalgic_2_Guitar,6,3,zenigata_nostalgic,0.09298606961965561,0
52,100,0.11818181818181818,568,0,47,Dl_Nostalgic_2_Guitar,6,2,zenigata_nostalgic,0.10995229333639145,0
57,100,0.11818181818181818,625,0,47,Dl_Nostalgic_2_Guitar,6,2,zenigata_nostalgic,0.12867490947246552,0
57,100,0.4,678,0,47,Dl_Nostalgic_2_Guitar,6,6,zenigata_nostalgic,0.18221938610076904,0
57,100,0.3,31,1,48,Dl_Nostalgic_2_Guitar,6,5,zenigata_nostalgic,0.9988439083099365,1
57,100,0.6590909090909091,101,0,48,Dl_Nostalgic_2_Guitar,6,11,zenigata_nostalgic,0.1379893571138382,0
57,100,0.8590909090909091,343,1,48,Dl_Nostalgic_2_Guitar,6,14,zenigata_nostalgic,0.16237066686153412,0
61,100,1.0,646,1,48,Dl_Nostalgic_2_Guitar,6,15,zenigata_nostalgic,0.19105835258960724,0
61,100,0.12272727272727273,871,0,48,Dl_Nostalgic_2_Guitar,6,2,zenigata_nostalgic,0.2619730234146118,0
61,100,0.1409090909090909,53,1,49,Dl_Nostalgic_2_Guitar,6,2,zenigata_nostalgic,0.9984879493713379,1
62,100,0.1409090909090909,179,0,49,Dl_Nostalgic_2_Guitar,6,2,zenigata_nostalgic,0.06335526704788208,0
62,100,0.1,215,0,49,Dl_Nostalgic_2_Guitar,6,2,zenigata_nostalgic,0.05829288810491562,0
56,100,0.32272727272727275,268,0,49,Dl_Nostalgic_2_Guitar,6,5,zenigata_nostalgic,0.061366282403469086,0
59,100,1.1409090909090909,383,0,49,Dl_Nostalgic_2_Guitar,6,15,zenigata_nostalgic,0.07168781012296677,0
52,100,0.18181818181818182,694,1,49,Dl_Nostalgic_2_Guitar,6,3,zenigata_nostalgic,0.08474509418010712,0
61,100,1.1227272727272728,738,0,49,Dl_Nostalgic_2_Guitar,6,15,zenigata_nostalgic,0.12635226547718048,0
57,100,0.1590909090909091,123,1,50,Dl_Nostalgic_2_Guitar,6,3,zenigata_nostalgic,0.9988439083099365,1
61,100,0.2409090909090909,268,0,50,Dl_Nostalgic_2_Guitar,6,4,zenigata_nostalgic,0.13798470795154572,0
57,100,0.5181818181818182,325,0,50,Dl_Nostalgic_2_Guitar,6,8,zenigata_nostalgic,0.16236145794391632,0
52,100,0.17727272727272728,448,0,50,Dl_Nostalgic_2_Guitar,6,3,zenigata_nostalgic,0.1910603940486908,0
52,100,0.11818181818181818,743,1,50,Dl_Nostalgic_2_Guitar,6,2,zenigata_nostalgic,0.2619689702987671,0
62,100,0.3,144,1,51,Dl_Nostalgic_2_Guitar,6,5,zenigata_nostalgic,0.9988439083099365,1
62,100,0.1590909090909091,316,0,51,Dl_Nostalgic_2_Guitar,6,3,zenigata_nostalgic,0.1379871368408203,0
56,100,0.4,483,0,51,Dl_Nostalgic_2_Guitar,6,6,zenigata_nostalgic,0.1623719483613968,0
64,100,0.12272727272727273,686,0,51,Dl_Nostalgic_2_Guitar,6,2,zenigata_nostalgic,0.19107067584991455,0
61,100,0.22272727272727272,839,0,51,Dl_Nostalgic_2_Guitar,6,4,zenigata_nostalgic,0.26197195053100586,0
57,100,0.11818181818181818,31,1,52,Dl_Nostalgic_2_Guitar,6,2,zenigata_nostalgic,0.9986506104469299,1
57,100,0.13636363636363635,61,0,52,Dl_Nostalgic_2_Guitar,6,2,zenigata_nostalgic,0.08798115700483322,0
57,100,0.5227272727272727,123,0,52,Dl_Nostalgic_2_Guitar,6,8,zenigata_nostalgic,0.09298434853553772,0
61,100,0.37727272727272726,238,0,52,Dl_Nostalgic_2_Guitar,6,6,zenigata_nostalgic,0.10995003581047058,0
61,100,0.36363636363636365,421,0,52,Dl_Nostalgic_2_Guitar,6,6,zenigata_nostalgic,0.12867264449596405,0
61,100,0.41818181818181815,545,0,52,Dl_Nostalgic_2_Guitar,6,7,zenigata_nostalgic,0.18221759796142578,0
57,100,0.1409090909090909,13,1,53,Dl_Nostalgic_2_Guitar,6,2,zenigata_nostalgic,0.9983735084533691,1
61,100,0.1,43,0,53,Dl_Nostalgic_2_Guitar,6,2,zenigata_nostalgic,0.051050249487161636,0
54,100,0.35909090909090907,101,0,53,Dl_Nostalgic_2_Guitar,6,6,zenigata_nostalgic,0.0416126623749733,0
57,100,0.1409090909090909,220,0,53,Dl_Nostalgic_2_Guitar,6,2,zenigata_nostalgic,0.03797976300120354,0
57,100,0.1,276,0,53,Dl_Nostalgic_2_Guitar,6,2,zenigata_nostalgic,0.03926164656877518,0
57,100,0.1409090909090909,506,0,53,Dl_Nostalgic_2_Guitar,6,2,zenigata_nostalgic,0.04616806283593178,0
56,100,0.11818181818181818,590,0,53,Dl_Nostalgic_2_Guitar,6,2,zenigata_nostalgic,0.057135146111249924,0
56,100,0.8409090909090909,619,0,53,Dl_Nostalgic_2_Guitar,6,13,zenigata_nostalgic,0.09188061952590942,0
61,100,0.2590909090909091,96,1,54,Dl_Nostalgic_2_Guitar,6,4,zenigata_nostalgic,0.9990094900131226,1
57,100,0.5590909090909091,163,0,54,Dl_Nostalgic_2_Guitar,6,9,zenigata_nostalgic,0.23323872685432434,0
57,100,0.3,480,1,54,Dl_Nostalgic_2_Guitar,6,5,zenigata_nostalgic,0.2705983519554138,0
57,100,1.0,584,0,54,Dl_Nostalgic_2_Guitar,6,15,zenigata_nostalgic,0.35794082283973694,0
57,100,0.21818181818181817,40,1,55,Dl_Nostalgic_2_Guitar,6,3,zenigata_nostalgic,0.9983232617378235,1
52,100,0.13636363636363635,875,1,55,Dl_Nostalgic_2_Guitar,6,2,zenigata_nostalgic,0.5462203621864319,1
52,100,0.6,31,1,56,Dl_Nostalgic_2_Guitar,6,10,zenigata_nostalgic,0.9988439083099365,1
52,100,0.4818181818181818,188,0,56,Dl_Nostalgic_2_Guitar,6,8,zenigata_nostalgic,0.13798552751541138,0
61,100,0.5363636363636364,325,0,56,Dl_Nostalgic_2_Guitar,6,9,zenigata_nostalgic,0.16236275434494019,0
61,100,0.1590909090909091,448,0,56,Dl_Nostalgic_2_Guitar,6,3,zenigata_nostalgic,0.1910615861415863,0
61,100,0.9590909090909091,866,1,56,Dl_Nostalgic_2_Guitar,6,15,zenigata_nostalgic,0.2619670033454895,0
61,100,0.2,211,1,57,Dl_Nostalgic_2_Guitar,6,3,zenigata_nostalgic,0.9990094900131226,1
64,100,0.21818181818181817,273,0,57,Dl_Nostalgic_2_Guitar,6,3,zenigata_nostalgic,0.23323410749435425,0
61,100,0.2590909090909091,321,0,57,Dl_Nostalgic_2_Guitar,6,4,zenigata_nostalgic,0.27058279514312744,0
62,100,0.1409090909090909,848,1,57,Dl_Nostalgic_2_Guitar,6,2,zenigata_nostalgic,0.35793477296829224,0
52,100,0.32272727272727275,188,1,58,Dl_Nostalgic_2_Guitar,6,5,zenigata_nostalgic,0.9990280866622925,1
52,100,0.5590909090909091,386,0,58,Dl_Nostalgic_2_Guitar,6,9,zenigata_nostalgic,0.37035176157951355,0
57,100,1.540909090909091,515,0,58,Dl_Nostalgic_2_Guitar,6,15,zenigata_nostalgic,0.456168532371521,0
57,100,0.3181818181818182,21,1,59,Dl_Nostalgic_2_Guitar,6,5,zenigata_nostalgic,0.9990094900131226,1
61,100,0.6181818181818182,96,0,59,Dl_Nostalgic_2_Guitar,6,10,zenigata_nostalgic,0.23322570323944092,0
52,100,0.1409090909090909,431,1,59,Dl_Nostalgic_2_Guitar,6,2,zenigata_nostalgic,0.27058807015419006,0
61,100,0.2,506,0,59,Dl_Nostalgic_2_Guitar,6,3,zenigata_nostalgic,0.3579236567020416,0
62,100,0.18181818181818182,91,1,60,Dl_Nostalgic_2_Guitar,6,3,zenigata_nostalgic,0.9986506104469299,1
56,100,0.4409090909090909,166,0,60,Dl_Nostalgic_2_Guitar,6,7,zenigata_nostalgic,0.0879792720079422,0
56,100,0.1409090909090909,273,0,60,Dl_Nostalgic_2_Guitar,6,2,zenigata_nostalgic,0.09298675507307053,0
56,100,0.3181818181818182,308,0,60,Dl_Nostalgic_2_Guitar,6,5,zenigata_nostalgic,0.10994883626699448,0
59,100,0.9409090909090909,638,1,60,Dl_Nostalgic_2_Guitar,6,15,zenigata_nostalgic,0.12866981327533722,0
59,100,0.11818181818181818,866,0,60,Dl_Nostalgic_2_Guitar,6,2,zenigata_nostalgic,0.1822177618741989,0
61,100,0.5,105,1,61,Dl_Nostalgic_2_Guitar,6,8,zenigata_nostalgic,0.9988439083099365,1
61,100,0.3409090909090909,251,0,61,Dl_Nostalgic_2_Guitar,6,5,zenigata_nostalgic,0.13798591494560242,0
61,100,0.11818181818181818,536,1,61,Dl_Nostalgic_2_Guitar,6,2,zenigata_nostalgic,0.16236940026283264,0
57,100,0.12272727272727273,686,0,61,Dl_Nostalgic_2_Guitar,6,2,zenigata_nostalgic,0.19106073677539825,0
62,100,1.5818181818181818,729,0,61,Dl_Nostalgic_2_Guitar,6,15,zenigata_nostalgic,0.26197516918182373,0
62,100,0.4409090909090909,220,1,62,Dl_Nostalgic_2_Guitar,6,7,zenigata_nostalgic,0.9990280866622925,1
52,100,1.1772727272727272,338,0,62,Dl_Nostalgic_2_Guitar,6,15,zenigata_nostalgic,0.3703467845916748,0
64,100,0.42272727272727273,804,1,62,Dl_Nostalgic_2_Guitar,6,7,zenigata_nostalgic,0.45617982745170593,0
59,100,0.3,96,1,63,Dl_Nostalgic_2_Guitar,6,5,zenigata_nostalgic,0.9990280866622925,1
52,100,0.4409090909090909,201,0,63,Dl_Nostalgic_2_Guitar,6,7,zenigata_nostalgic,0.3703436851501465,0
52,100,0.43636363636363634,303,0,63,Dl_Nostalgic_2_Guitar,6,7,zenigata_nostalgic,0.45616644620895386,0
68,100,0.2,153,1,64,Dl_Nostalgic_2_Guitar,6,3,zenigata_nostalgic,0.9983231425285339,1
59,100,0.21818181818181817,546,1,64,Dl_Nostalgic_2_Guitar,6,3,zenigata_nostalgic,0.5462164878845215,1
61,100,0.22272727272727272,377,1,65,Dl_Nostalgic_2_Guitar,6,4,zenigata_nostalgic,0.9983231425285339,1
56,100,1.0,585,0,65,Dl_Nostalgic_2_Guitar,6,15,zenigata_nostalgic,0.546207070350647,1
68,100,0.35909090909090907,87,1,66,Dl_Nostalgic_2_Guitar,6,6,zenigata_nostalgic,0.9983004927635193,1
61,100,0.1409090909090909,202,0,66,Dl_Nostalgic_2_Guitar,6,2,zenigata_nostalgic,0.04466165974736214,0
64,100,0.41818181818181815,260,0,66,Dl_Nostalgic_2_Guitar,6,7,zenigata_nostalgic,0.03337150812149048,0
61,100,0.35909090909090907,352,0,66,Dl_Nostalgic_2_Guitar,6,6,zenigata_nostalgic,0.02694724127650261,0
57,100,0.12272727272727273,443,0,66,Dl_Nostalgic_2_Guitar,6,2,zenigata_nostalgic,0.024084681645035744,0
61,100,0.11818181818181818,590,0,66,Dl_Nostalgic_2_Guitar,6,2,zenigata_nostalgic,0.024972056970000267,0
64,100,0.1,673,0,66,Dl_Nostalgic_2_Guitar,6,2,zenigata_nostalgic,0.03064803034067154,0
59,100,0.21818181818181817,722,0,66,Dl_Nostalgic_2_Guitar,6,3,zenigata_nostalgic,0.04136945307254791,0
61,100,0.5409090909090909,817,0,66,Dl_Nostalgic_2_Guitar,6,9,zenigata_nostalgic,0.0720670074224472,0
62,100,0.7181818181818181,567,1,67,Dl_Nostalgic_2_Guitar,6,11,zenigata_nostalgic,0.9983232617378235,1
56,100,0.9590909090909091,726,0,67,Dl_Nostalgic_2_Guitar,6,15,zenigata_nostalgic,0.5462121963500977,1
68,100,0.18181818181818182,92,1,68,Dl_Nostalgic_2_Guitar,6,3,zenigata_nostalgic,0.9982282519340515,1
59,100,0.12272727272727273,136,0,68,Dl_Nostalgic_2_Guitar,6,2,zenigata_nostalgic,0.0394030325114727,0
68,100,0.1590909090909091,197,0,68,Dl_Nostalgic_2_Guitar,6,3,zenigata_nostalgic,0.026854734867811203,0
52,100,0.12272727272727273,255,0,68,Dl_Nostalgic_2_Guitar,6,2,zenigata_nostalgic,0.01883169449865818,0
52,100,0.1,294,0,68,Dl_Nostalgic_2_Guitar,6,2,zenigata_nostalgic,0.013654547743499279,0
64,100,0.1,316,0,68,Dl_Nostalgic_2_Guitar,6,2,zenigata_nostalgic,0.010813428089022636,0
61,100,0.22272727272727272,343,0,68,Dl_Nostalgic_2_Guitar,6,4,zenigata_nostalgic,0.010073564015328884,0
61,100,0.21818181818181817,457,0,68,Dl_Nostalgic_2_Guitar,6,3,zenigata_nostalgic,0.011716761626303196,0
61,100,0.2409090909090909,509,0,68,Dl_Nostalgic_2_Guitar,6,4,zenigata_nostalgic,0.016992174088954926,0
61,100,0.12272727272727273,576,0,68,Dl_Nostalgic_2_Guitar,6,2,zenigata_nostalgic,0.02757926844060421,0
57,100,0.7,792,0,68,Dl_Nostalgic_2_Guitar,6,11,zenigata_nostalgic,0.05459165573120117,0
57,100,0.13636363636363635,83,1,69,Dl_Nostalgic_2_Guitar,6,2,zenigata_nostalgic,0.9990280866622925,1
57,100,0.17727272727272728,119,0,69,Dl_Nostalgic_2_Guitar,6,3,zenigata_nostalgic,0.3703438639640808,0
57,100,0.2,650,1,69,Dl_Nostalgic_2_Guitar,6,3,zenigata_nostalgic,0.4561721384525299,0
68,100,0.1409090909090909,267,1,70,Dl_Nostalgic_2_Guitar,6,2,zenigata_nostalgic,0.9986506104469299,1
52,100,0.21818181818181817,440,0,70,Dl_Nostalgic_2_Guitar,6,3,zenigata_nostalgic,0.08798282593488693,0
61,100,1.1,502,0,70,Dl_Nostalgic_2_Guitar,6,15,zenigata_nostalgic,0.09298285841941833,0
61,100,0.1409090909090909,770,1,70,Dl_Nostalgic_2_Guitar,6,2,zenigata_nostalgic,0.10995222628116608,0
61,100,0.1590909090909091,805,0,70,Dl_Nostalgic_2_Guitar,6,3,zenigata_nostalgic,0.12867406010627747,0
61,100,0.1409090909090909,844,0,70,Dl_Nostalgic_2_Guitar,6,2,zenigata_nostalgic,0.1822180598974228,0
61,100,0.4590909090909091,87,1,71,Dl_Nostalgic_2_Guitar,6,7,zenigata_nostalgic,0.9988439083099365,1
57,100,0.5409090909090909,210,0,71,Dl_Nostalgic_2_Guitar,6,9,zenigata_nostalgic,0.1379856914281845,0
61,100,0.7,413,0,71,Dl_Nostalgic_2_Guitar,6,11,zenigata_nostalgic,0.1623646318912506,0
62,100,0.2818181818181818,619,0,71,Dl_Nostalgic_2_Guitar,6,5,zenigata_nostalgic,0.19105897843837738,0
62,100,0.1,787,0,71,Dl_Nostalgic_2_Guitar,6,2,zenigata_nostalgic,0.26197245717048645,0
62,100,0.12272727272727273,56,1,72,Dl_Nostalgic_2_Guitar,6,2,zenigata_nostalgic,0.9988439083099365,1
52,100,0.12272727272727273,166,0,72,Dl_Nostalgic_2_Guitar,6,2,zenigata_nostalgic,0.13798677921295166,0
59,100,0.3181818181818182,347,0,72,Dl_Nostalgic_2_Guitar,6,5,zenigata_nostalgic,0.16237014532089233,0
56,100,0.1,483,0,72,Dl_Nostalgic_2_Guitar,6,2,zenigata_nostalgic,0.19106467068195343,0
57,100,0.11818181818181818,656,0,72,Dl_Nostalgic_2_Guitar,6,2,zenigata_nostalgic,0.2619746923446655,0
59,100,0.17727272727272728,216,1,73,Dl_Nostalgic_2_Guitar,6,3,zenigata_nostalgic,0.9986506104469299,1
61,100,0.8772727272727273,260,0,73,Dl_Nostalgic_2_Guitar,6,14,zenigata_nostalgic,0.08797980099916458,0
61,100,0.18181818181818182,466,0,73,Dl_Nostalgic_2_Guitar,6,3,zenigata_nostalgic,0.09298985451459885,0
57,100,0.4818181818181818,553,0,73,Dl_Nostalgic_2_Guitar,6,8,zenigata_nostalgic,0.1099538654088974,0
64,100,0.1409090909090909,703,0,73,Dl_Nostalgic_2_Guitar,6,2,zenigata_nostalgic,0.12868034839630127,0
61,100,0.5590909090909091,743,0,73,Dl_Nostalgic_2_Guitar,6,9,zenigata_nostalgic,0.18222635984420776,0
57,100,0.11818181818181818,119,1,74,Dl_Nostalgic_2_Guitar,6,2,zenigata_nostalgic,0.9986506104469299,1
61,100,0.7181818181818181,163,0,74,Dl_Nostalgic_2_Guitar,6,11,zenigata_nostalgic,0.087980717420578,0
68,100,0.42272727272727273,343,0,74,Dl_Nostalgic_2_Guitar,6,7,zenigata_nostalgic,0.09298668056726456,0
68,100,0.1,580,1,74,Dl_Nostalgic_2_Guitar,6,2,zenigata_nostalgic,0.10995163768529892,0
59,100,0.2409090909090909,752,0,74,Dl_Nostalgic_2_Guitar,6,4,zenigata_nostalgic,0.12867122888565063,0
57,100,0.3,832,0,74,Dl_Nostalgic_2_Guitar,6,5,zenigata_nostalgic,0.18221715092658997,0
61,100,0.38181818181818183,87,1,75,Dl_Nostalgic_2_Guitar,6,6,zenigata_nostalgic,0.9988439083099365,1
57,100,0.2818181818181818,286,0,75,Dl_Nostalgic_2_Guitar,6,5,zenigata_nostalgic,0.13798175752162933,0
59,100,0.5590909090909091,370,0,75,Dl_Nostalgic_2_Guitar,6,9,zenigata_nostalgic,0.16236694157123566,0
57,100,0.2772727272727273,502,0,75,Dl_Nostalgic_2_Guitar,6,4,zenigata_nostalgic,0.19105583429336548,0
59,100,0.9,677,0,75,Dl_Nostalgic_2_Guitar,6,14,zenigata_nostalgic,0.26197198033332825,0
61,100,1.0636363636363637,3,1,76,Dl_Nostalgic_2_Guitar,6,15,zenigata_nostalgic,0.9986506104469299,1
61,100,0.9409090909090909,276,1,76,Dl_Nostalgic_2_Guitar,6,15,zenigata_nostalgic,0.08798043429851532,0
56,100,0.2590909090909091,493,0,76,Dl_Nostalgic_2_Guitar,6,4,zenigata_nostalgic,0.09298490732908249,0
52,100,0.2,603,0,76,Dl_Nostalgic_2_Guitar,6,3,zenigata_nostalgic,0.10995098203420639,0
52,100,0.11818181818181818,660,0,76,Dl_Nostalgic_2_Guitar,6,2,zenigata_nostalgic,0.12867742776870728,0
56,100,0.6181818181818182,779,0,76,Dl_Nostalgic_2_Guitar,6,10,zenigata_nostalgic,0.18221768736839294,0
61,100,0.7181818181818181,110,1,77,Dl_Nostalgic_2_Guitar,6,11,zenigata_nostalgic,0.9990094900131226,1
61,100,0.4,399,1,77,Dl_Nostalgic_2_Guitar,6,6,zenigata_nostalgic,0.2332351952791214,0
57,100,0.4,493,0,77,Dl_Nostalgic_2_Guitar,6,6,zenigata_nostalgic,0.2705857753753662,0
57,100,0.37727272727272726,656,0,77,Dl_Nostalgic_2_Guitar,6,6,zenigata_nostalgic,0.35793355107307434,0
57,100,0.41818181818181815,184,1,78,Dl_Nostalgic_2_Guitar,6,7,zenigata_nostalgic,0.9990280866622925,1
57,100,0.1409090909090909,440,1,78,Dl_Nostalgic_2_Guitar,6,2,zenigata_nostalgic,0.37034139037132263,0
52,100,0.1,796,1,78,Dl_Nostalgic_2_Guitar,6,2,zenigata_nostalgic,0.4561787545681,0
59,100,0.16363636363636364,69,1,79,Dl_Nostalgic_2_Guitar,6,3,zenigata_nostalgic,0.9984879493713379,1
56,100,0.38181818181818183,145,0,79,Dl_Nostalgic_2_Guitar,6,6,zenigata_nostalgic,0.06335145980119705,0
61,100,0.759090909090909,263,0,79,Dl_Nostalgic_2_Guitar,6,12,zenigata_nostalgic,0.058287762105464935,0
61,100,0.21818181818181817,436,0,79,Dl_Nostalgic_2_Guitar,6,3,zenigata_nostalgic,0.06136023625731468,0
61,100,0.5409090909090909,506,0,79,Dl_Nostalgic_2_Guitar,6,9,zenigata_nostalgic,0.0716794803738594,0
61,100,0.5181818181818182,633,0,79,Dl_Nostalgic_2_Guitar,6,8,zenigata_nostalgic,0.08473346382379532,0
54,100,0.4818181818181818,747,0,79,Dl_Nostalgic_2_Guitar,6,8,zenigata_nostalgic,0.12634767591953278,0
62,100,0.8,333,1,80,Dl_Nostalgic_2_Guitar,6,13,zenigata_nostalgic,0.9988439083099365,1
62,100,0.5590909090909091,563,0,80,Dl_Nostalgic_2_Guitar,6,9,zenigata_nostalgic,0.13798323273658752,0
59,100,0.1409090909090909,734,0,80,Dl_Nostalgic_2_Guitar,6,2,zenigata_nostalgic,0.16236817836761475,0
59,100,0.1590909090909091,770,0,80,Dl_Nostalgic_2_Guitar,6,3,zenigata_nostalgic,0.19106391072273254,0
68,100,0.4409090909090909,817,0,80,Dl_Nostalgic_2_Guitar,6,7,zenigata_nostalgic,0.2619614005088806,0
68,100,0.41818181818181815,193,1,81,Dl_Nostalgic_2_Guitar,6,7,zenigata_nostalgic,0.9986506104469299,1
64,100,0.2409090909090909,343,0,81,Dl_Nostalgic_2_Guitar,6,4,zenigata_nostalgic,0.08797915279865265,0
61,100,0.2818181818181818,396,0,81,Dl_Nostalgic_2_Guitar,6,5,zenigata_nostalgic,0.0929827094078064,0
61,100,0.33636363636363636,502,0,81,Dl_Nostalgic_2_Guitar,6,5,zenigata_nostalgic,0.10994771867990494,0
57,100,0.11818181818181818,669,0,81,Dl_Nostalgic_2_Guitar,6,2,zenigata_nostalgic,0.12867137789726257,0
57,100,0.41818181818181815,713,0,81,Dl_Nostalgic_2_Guitar,6,7,zenigata_nostalgic,0.1822199821472168,0
57,100,0.2,202,1,82,Dl_Nostalgic_2_Guitar,6,3,zenigata_nostalgic,0.9990280866622925,1
59,100,1.240909090909091,255,0,82,Dl_Nostalgic_2_Guitar,6,15,zenigata_nostalgic,0.37034106254577637,0
73,100,0.1409090909090909,559,1,82,Dl_Nostalgic_2_Guitar,6,2,zenigata_nostalgic,0.4561613202095032,0
54,100,0.2,0,1,21,_Remix_Guitar,6,3,sumimaru_ruriko,0.9990280866622925,1
54,100,0.1,712,1,21,_Remix_Guitar,6,2,sumimaru_ruriko,0.3703397512435913,0
54,100,0.22272727272727272,752,0,21,_Remix_Guitar,6,4,sumimaru_ruriko,0.45616063475608826,0
53,100,0.6,814,1,23,_Remix_Guitar,6,10,sumimaru_ruriko,0.979223370552063,1
53,100,0.18181818181818182,113,1,24,_Remix_Guitar,6,3,sumimaru_ruriko,0.9990280866622925,1
53,100,0.8,272,0,24,_Remix_Guitar,6,13,sumimaru_ruriko,0.370334267616272,0
53,100,0.12272727272727273,509,1,24,_Remix_Guitar,6,2,sumimaru_ruriko,0.4561693072319031,0
54,100,0.8818181818181818,113,1,25,_Remix_Guitar,6,14,sumimaru_ruriko,0.9792245030403137,1
54,100,0.1409090909090909,13,1,27,_Remix_Guitar,6,2,sumimaru_ruriko,0.9990094900131226,1
54,100,0.2,347,1,27,_Remix_Guitar,6,3,sumimaru_ruriko,0.23322933912277222,0
54,100,0.17727272727272728,801,1,27,_Remix_Guitar,6,3,sumimaru_ruriko,0.2705800235271454,0
54,100,0.3,849,0,27,_Remix_Guitar,6,5,sumimaru_ruriko,0.3579246997833252,0
54,100,0.2409090909090909,373,1,89,_Remix_Guitar,6,4,sumimaru_ruriko,0.9990094900131226,1
54,100,0.2590909090909091,475,0,89,_Remix_Guitar,6,4,sumimaru_ruriko,0.2332295924425125,0
54,100,0.2818181818181818,663,0,89,_Remix_Guitar,6,5,sumimaru_ruriko,0.27058008313179016,0
54,100,0.2,857,0,89,_Remix_Guitar,6,3,sumimaru_ruriko,0.35792243480682373,0
54,100,0.1590909090909091,184,1,90,_Remix_Guitar,6,3,sumimaru_ruriko,0.9988440275192261,1
54,100,0.3409090909090909,267,0,90,_Remix_Guitar,6,5,sumimaru_ruriko,0.13797937333583832,0
54,100,0.1,392,0,90,_Remix_Guitar,6,2,sumimaru_ruriko,0.1623649150133133,0
54,100,0.21818181818181817,462,0,90,_Remix_Guitar,6,3,sumimaru_ruriko,0.19105783104896545,0
54,100,0.37727272727272726,523,0,90,_Remix_Guitar,6,6,sumimaru_ruriko,0.2619676887989044,0
54,100,0.2,356,1,91,_Remix_Guitar,6,3,sumimaru_ruriko,0.9983232617378235,1
56,100,0.1409090909090909,616,1,91,_Remix_Guitar,6,2,sumimaru_ruriko,0.5462090969085693,1
56,100,0.13636363636363635,216,1,92,_Remix_Guitar,6,2,sumimaru_ruriko,0.9792232513427734,1
53,100,0.2409090909090909,580,1,93,_Remix_Guitar,6,4,sumimaru_ruriko,0.9792240262031555,1
54,100,0.11818181818181818,140,1,94,_Remix_Guitar,6,2,sumimaru_ruriko,0.9990094900131226,1
54,100,0.3,466,1,94,_Remix_Guitar,6,5,sumimaru_ruriko,0.23323176801204681,0
55,100,0.1,826,1,94,_Remix_Guitar,6,2,sumimaru_ruriko,0.2705787420272827,0
54,100,0.1590909090909091,870,0,94,_Remix_Guitar,6,3,sumimaru_ruriko,0.35793158411979675,0
56,100,0.1590909090909091,263,1,95,_Remix_Guitar,6,3,sumimaru_ruriko,0.9988439083099365,1
54,100,0.11818181818181818,396,0,95,_Remix_Guitar,6,2,sumimaru_ruriko,0.13798418641090393,0
54,100,0.1409090909090909,716,1,95,_Remix_Guitar,6,2,sumimaru_ruriko,0.16236461699008942,0
54,100,0.1409090909090909,760,0,95,_Remix_Guitar,6,2,sumimaru_ruriko,0.19105879962444305,0
56,100,0.17727272727272728,832,0,95,_Remix_Guitar,6,3,sumimaru_ruriko,0.26196226477622986,0
52,100,0.2409090909090909,528,1,0,DL_Guitar,6,4,DL.   Stems,0.9990280866622925,1
52,100,0.3,660,0,0,DL_Guitar,6,5,DL.   Stems,0.3703376054763794,0
52,100,0.42272727272727273,761,0,0,DL_Guitar,6,7,DL.   Stems,0.4561671316623688,0
64,100,0.16363636363636364,4,1,1,DL_Guitar,6,3,DL.   Stems,0.9792243838310242,1
52,100,0.17727272727272728,229,1,2,DL_Guitar,6,3,DL.   Stems,0.9983231425285339,1
52,100,0.38181818181818183,409,0,2,DL_Guitar,6,6,DL.   Stems,0.5462160706520081,1
56,100,0.2,488,1,3,DL_Guitar,6,3,DL.   Stems,0.9983231425285339,1
56,100,0.1590909090909091,546,0,3,DL_Guitar,6,3,DL.   Stems,0.5462083220481873,1
52,100,0.17727272727272728,184,1,4,DL_Guitar,6,3,DL.   Stems,0.9990280866622925,1
52,100,0.17727272727272728,317,0,4,DL_Guitar,6,3,DL.   Stems,0.37033557891845703,0
52,100,0.1590909090909091,458,0,4,DL_Guitar,6,3,DL.   Stems,0.45617154240608215,0
52,100,0.2772727272727273,700,1,5,DL_Guitar,6,4,DL.   Stems,0.9792246222496033,1
64,100,0.2,757,1,6,DL_Guitar,6,3,DL.   Stems,0.9983232617378235,1
64,100,0.12272727272727273,839,0,6,DL_Guitar,6,2,DL.   Stems,0.5462156534194946,1
57,100,0.13636363636363635,238,1,7,DL_Guitar,6,2,DL.   Stems,0.9990280866622925,1
52,100,0.12272727272727273,629,1,7,DL_Guitar,6,2,DL.   Stems,0.3703404366970062,0
52,100,0.17727272727272728,757,0,7,DL_Guitar,6,3,DL.   Stems,0.45616674423217773,0
64,100,0.1,8,1,8,DL_Guitar,6,2,DL.   Stems,0.9983735084533691,1
52,100,0.1,92,0,8,DL_Guitar,6,2,DL.   Stems,0.051050685346126556,0
52,100,0.2772727272727273,127,0,8,DL_Guitar,6,4,DL.   Stems,0.041612472385168076,0
52,100,0.11818181818181818,237,0,8,DL_Guitar,6,2,DL.   Stems,0.037981897592544556,0
57,100,0.2590909090909091,285,0,8,DL_Guitar,6,4,DL.   Stems,0.03926243633031845,0
57,100,1.0,369,0,8,DL_Guitar,6,15,DL.   Stems,0.04616842046380043,0
52,100,0.2,708,1,8,DL_Guitar,6,3,DL.   Stems,0.05713647976517677,0
52,100,0.2590909090909091,857,0,8,DL_Guitar,6,4,DL.   Stems,0.09188438206911087,0
57,100,0.1590909090909091,34,1,9,DL_Guitar,6,3,DL.   Stems,0.9983232617378235,1
56,100,0.2590909090909091,835,1,9,DL_Guitar,6,4,DL.   Stems,0.546213686466217,1
52,100,0.2,48,1,10,DL_Guitar,6,3,DL.   Stems,0.9988439083099365,1
52,100,0.1,118,0,10,DL_Guitar,6,2,DL.   Stems,0.1379823237657547,0
52,100,0.1,144,0,10,DL_Guitar,6,2,DL.   Stems,0.1623692363500595,0
54,100,0.1,330,0,10,DL_Guitar,6,2,DL.   Stems,0.19106082618236542,0
54,100,0.1590909090909091,854,1,10,DL_Guitar,6,3,DL.   Stems,0.261976033449173,0
54,100,0.2,30,1,11,DL_Guitar,6,3,DL.   Stems,0.9983232617378235,1
64,100,0.1,770,1,11,DL_Guitar,6,2,DL.   Stems,0.5462167859077454,1
52,100,0.22272727272727272,826,1,12,DL_Guitar,6,4,DL.   Stems,0.9792242646217346,1
52,100,0.5,598,1,13,DL_Guitar,6,8,DL.   Stems,0.9990280866622925,1
52,100,0.42272727272727273,730,0,13,DL_Guitar,6,7,DL.   Stems,0.37033775448799133,0
52,100,0.18181818181818182,835,0,13,DL_Guitar,6,3,DL.   Stems,0.456173837184906,0
52,100,0.21818181818181817,22,1,14,DL_Guitar,6,3,DL.   Stems,0.9983232617378235,1
64,100,0.1409090909090909,835,1,14,DL_Guitar,6,2,DL.   Stems,0.5462176203727722,1
71,100,0.12272727272727273,233,1,15,DL_Guitar,6,2,DL.   Stems,0.9990280866622925,1
54,100,0.13636363636363635,766,1,15,DL_Guitar,6,2,DL.   Stems,0.3703402578830719,0
54,100,0.11818181818181818,809,0,15,DL_Guitar,6,2,DL.   Stems,0.45617303252220154,0
56,100,0.2,663,1,17,DL_Guitar,6,3,DL.   Stems,0.979223370552063,1
60,100,0.37727272727272726,96,1,19,DL_Guitar,6,6,DL.   Stems,0.9792242646217346,1
66,100,0.2772727272727273,40,1,20,DL_Guitar,6,4,DL.   Stems,0.9988439083099365,1
54,100,0.4409090909090909,140,0,20,DL_Guitar,6,7,DL.   Stems,0.13798455893993378,0
54,100,0.4,272,0,20,DL_Guitar,6,6,DL.   Stems,0.16236825287342072,0
56,100,0.2818181818181818,550,1,20,DL_Guitar,6,5,DL.   Stems,0.19105590879917145,0
56,100,0.37727272727272726,756,0,20,DL_Guitar,6,6,DL.   Stems,0.2619657516479492,0
52,100,0.16363636363636364,3,1,21,DL_Guitar,6,3,DL.   Stems,0.9983004927635193,1
59,100,0.1,241,1,21,DL_Guitar,6,2,DL.   Stems,0.044662993401288986,0
52,100,0.3,339,0,21,DL_Guitar,6,5,DL.   Stems,0.03337278217077255,0
57,100,0.17727272727272728,413,0,21,DL_Guitar,6,3,DL.   Stems,0.02694881707429886,0
52,100,0.3,453,0,21,DL_Guitar,6,5,DL.   Stems,0.024085160344839096,0
52,100,0.21818181818181817,523,0,21,DL_Guitar,6,3,DL.   Stems,0.02497420832514763,0
52,100,0.11818181818181818,712,0,21,DL_Guitar,6,2,DL.   Stems,0.03064965270459652,0
64,100,0.2,787,0,21,DL_Guitar,6,3,DL.   Stems,0.04137100651860237,0
52,100,0.13636363636363635,831,0,21,DL_Guitar,6,2,DL.   Stems,0.07207131385803223,0
52,100,0.21818181818181817,0,1,22,DL_Guitar,6,3,DL.   Stems,0.9988439083099365,1
52,100,0.1,52,0,22,DL_Guitar,6,2,DL.   Stems,0.13798558712005615,0
57,100,0.17727272727272728,75,0,22,DL_Guitar,6,3,DL.   Stems,0.16237086057662964,0
57,100,0.38181818181818183,175,0,22,DL_Guitar,6,6,DL.   Stems,0.19106519222259521,0
57,100,0.1,567,1,22,DL_Guitar,6,2,DL.   Stems,0.26197609305381775,0
54,100,0.1409090909090909,308,1,23,DL_Guitar,6,2,DL.   Stems,0.9983232617378235,1
54,100,0.1409090909090909,550,1,23,DL_Guitar,6,2,DL.   Stems,0.5462133884429932,1
59,100,0.16363636363636364,466,1,24,DL_Guitar,6,3,DL.   Stems,0.9990280866622925,1
54,100,0.1409090909090909,571,0,24,DL_Guitar,6,2,DL.   Stems,0.37033697962760925,0
55,100,0.1409090909090909,691,0,24,DL_Guitar,6,2,DL.   Stems,0.4561702609062195,0
64,100,0.3,167,1,25,DL_Guitar,6,5,DL.   Stems,0.9990280866622925,1
52,100,0.22272727272727272,320,0,25,DL_Guitar,6,4,DL.   Stems,0.3703470230102539,0
59,100,0.11818181818181818,831,1,25,DL_Guitar,6,2,DL.   Stems,0.4561687111854553,0
52,100,0.22272727272727272,57,1,26,DL_Guitar,6,4,DL.   Stems,0.9983232617378235,1
52,100,0.6,206,0,26,DL_Guitar,6,10,DL.   Stems,0.5462182760238647,1
52,100,0.16363636363636364,3,1,27,DL_Guitar,6,3,DL.   Stems,0.9990094900131226,1
52,100,0.2636363636363636,48,0,27,DL_Guitar,6,4,DL.   Stems,0.23322570323944092,0
59,100,0.2636363636363636,223,0,27,DL_Guitar,6,4,DL.   Stems,0.2705787718296051,0
52,100,0.12272727272727273,299,0,27,DL_Guitar,6,2,DL.   Stems,0.357931911945343,0
56,100,0.1409090909090909,246,1,29,DL_Guitar,6,2,DL.   Stems,0.9983232617378235,1
52,100,0.2409090909090909,607,1,29,DL_Guitar,6,4,DL.   Stems,0.5462179780006409,1
62,100,0.32272727272727275,752,1,30,DL_Guitar,6,5,DL.   Stems,0.9792227745056152,1
54,100,0.2,215,1,32,DL_Guitar,6,3,DL.   Stems,0.9792243838310242,1
66,100,0.1409090909090909,311,1,33,DL_Guitar,6,2,DL.   Stems,0.9990280866622925,1
66,100,0.22272727272727272,488,0,33,DL_Guitar,6,4,DL.   Stems,0.37033435702323914,0
54,100,0.1,801,1,33,DL_Guitar,6,2,DL.   Stems,0.4561659097671509,0
52,100,0.18181818181818182,69,1,34,DL_Guitar,6,3,DL.   Stems,0.9986506104469299,1
64,100,0.2590909090909091,123,0,34,DL_Guitar,6,4,DL.   Stems,0.08798261731863022,0
59,100,0.12272727272727273,254,0,34,DL_Guitar,6,2,DL.   Stems,0.0929906815290451,0
59,100,0.2,373,0,34,DL_Guitar,6,3,DL.   Stems,0.10995637625455856,0
52,100,0.22272727272727272,716,1,34,DL_Guitar,6,4,DL.   Stems,0.1286771148443222,0
56,100,0.1590909090909091,831,0,34,DL_Guitar,6,3,DL.   Stems,0.18222390115261078,0
52,100,0.1590909090909091,13,1,35,DL_Guitar,6,3,DL.   Stems,0.9983735084533691,1
64,100,0.11818181818181818,105,0,35,DL_Guitar,6,2,DL.   Stems,0.05104951187968254,0
52,100,0.11818181818181818,150,0,35,DL_Guitar,6,2,DL.   Stems,0.04161308333277702,0
52,100,0.22272727272727272,378,0,35,DL_Guitar,6,4,DL.   Stems,0.037979792803525925,0
57,100,0.21818181818181817,483,0,35,DL_Guitar,6,3,DL.   Stems,0.03926056623458862,0
52,100,0.1409090909090909,584,0,35,DL_Guitar,6,2,DL.   Stems,0.0461668036878109,0
64,100,0.1,655,0,35,DL_Guitar,6,2,DL.   Stems,0.05713232234120369,0
52,100,0.21818181818181817,735,0,35,DL_Guitar,6,3,DL.   Stems,0.09188177436590195,0
52,100,0.2590909090909091,56,1,36,DL_Guitar,6,4,DL.   Stems,0.9986506104469299,1
64,100,0.1409090909090909,251,0,36,DL_Guitar,6,2,DL.   Stems,0.08797852694988251,0
64,100,0.2818181818181818,576,1,36,DL_Guitar,6,5,DL.   Stems,0.09298458695411682,0
61,100,0.21818181818181817,660,0,36,DL_Guitar,6,3,DL.   Stems,0.1099478080868721,0
61,100,0.1,716,0,36,DL_Guitar,6,2,DL.   Stems,0.12866906821727753,0
64,100,0.32272727272727275,738,0,36,DL_Guitar,6,5,DL.   Stems,0.18222545087337494,0
64,100,0.18181818181818182,34,1,37,DL_Guitar,6,3,DL.   Stems,0.9983232617378235,1
64,100,0.1,105,0,37,DL_Guitar,6,2,DL.   Stems,0.5462162494659424,1
54,100,0.13636363636363635,193,1,38,DL_Guitar,6,2,DL.   Stems,0.9990094900131226,1
52,100,0.12272727272727273,311,0,38,DL_Guitar,6,2,DL.   Stems,0.23322951793670654,0
64,100,0.1590909090909091,735,1,38,DL_Guitar,6,3,DL.   Stems,0.2705811560153961,0
61,100,0.12272727272727273,861,0,38,DL_Guitar,6,2,DL.   Stems,0.3579308092594147,0
61,100,0.3181818181818182,110,1,39,DL_Guitar,6,5,DL.   Stems,0.9983231425285339,1
56,100,0.1590909090909091,351,1,39,DL_Guitar,6,3,DL.   Stems,0.5462136268615723,1
64,100,0.12272727272727273,91,1,40,DL_Guitar,6,2,DL.   Stems,0.9983232617378235,1
52,100,0.13636363636363635,150,0,40,DL_Guitar,6,2,DL.   Stems,0.5462232828140259,1
54,100,0.5,220,1,41,DL_Guitar,6,8,DL.   Stems,0.9983232617378235,1
54,100,0.1409090909090909,418,0,41,DL_Guitar,6,2,DL.   Stems,0.5462169051170349,1
66,100,0.12272727272727273,4,1,42,DL_Guitar,6,2,DL.   Stems,0.9990280866622925,1
59,100,0.13636363636363635,171,0,42,DL_Guitar,6,2,DL.   Stems,0.3703415095806122,0
54,100,0.5772727272727273,391,0,42,DL_Guitar,6,9,DL.   Stems,0.45616525411605835,0
52,100,0.2590909090909091,171,1,43,DL_Guitar,6,4,DL.   Stems,0.9990094900131226,1
52,100,0.2,260,0,43,DL_Guitar,6,3,DL.   Stems,0.23323364555835724,0
52,100,0.4772727272727273,480,0,43,DL_Guitar,6,8,DL.   Stems,0.27058690786361694,0
52,100,0.3409090909090909,593,0,43,DL_Guitar,6,5,DL.   Stems,0.3579365313053131,0
62,100,0.9181818181818182,31,1,44,DL_Guitar,6,15,DL.   Stems,0.9990280866622925,1
61,100,0.1590909090909091,448,1,44,DL_Guitar,6,3,DL.   Stems,0.3703414797782898,0
64,100,0.5590909090909091,493,0,44,DL_Guitar,6,9,DL.   Stems,0.45617809891700745,0
54,100,0.4409090909090909,26,1,45,DL_Guitar,6,7,DL.   Stems,0.9988439083099365,1
54,100,0.2,131,0,45,DL_Guitar,6,3,DL.   Stems,0.1379813700914383,0
52,100,0.13636363636363635,545,1,45,DL_Guitar,6,2,DL.   Stems,0.1623600721359253,0
59,100,0.12272727272727273,651,0,45,DL_Guitar,6,2,DL.   Stems,0.1910528987646103,0
52,100,0.33636363636363636,721,0,45,DL_Guitar,6,5,DL.   Stems,0.261962354183197,0
54,100,0.2818181818181818,211,1,46,DL_Guitar,6,5,DL.   Stems,0.9990094900131226,1
52,100,0.1409090909090909,571,1,46,DL_Guitar,6,2,DL.   Stems,0.2332313507795334,0
52,100,0.1409090909090909,756,0,46,DL_Guitar,6,2,DL.   Stems,0.2705889344215393,0
52,100,0.11818181818181818,875,0,46,DL_Guitar,6,2,DL.   Stems,0.3579344153404236,0
57,100,0.2772727272727273,40,1,47,DL_Guitar,6,4,DL.   Stems,0.9990094900131226,1
52,100,0.2,101,0,47,DL_Guitar,6,3,DL.   Stems,0.233229860663414,0
52,100,0.11818181818181818,523,1,47,DL_Guitar,6,2,DL.   Stems,0.2705807387828827,0
52,100,0.2590909090909091,584,0,47,DL_Guitar,6,4,DL.   Stems,0.357940137386322,0
52,100,0.42272727272727273,26,1,48,DL_Guitar,6,7,DL.   Stems,0.9983232617378235,1
57,100,0.1,361,1,48,DL_Guitar,6,2,DL.   Stems,0.5462170243263245,1
59,100,0.2772727272727273,251,1,49,DL_Guitar,6,4,DL.   Stems,0.9988439083099365,1
52,100,0.1,545,1,49,DL_Guitar,6,2,DL.   Stems,0.13798192143440247,0
56,100,0.11818181818181818,721,0,49,DL_Guitar,6,2,DL.   Stems,0.16236168146133423,0
52,100,0.2,804,0,49,DL_Guitar,6,3,DL.   Stems,0.1910543143749237,0
52,100,0.11818181818181818,866,0,49,DL_Guitar,6,2,DL.   Stems,0.2619675397872925,0
52,100,0.1409090909090909,69,1,50,DL_Guitar,6,2,DL.   Stems,0.9988439083099365,1
64,100,0.12272727272727273,123,0,50,DL_Guitar,6,2,DL.   Stems,0.13798412680625916,0
52,100,0.1,166,0,50,DL_Guitar,6,2,DL.   Stems,0.162369966506958,0
56,100,0.1590909090909091,506,1,50,DL_Guitar,6,3,DL.   Stems,0.1910591423511505,0
56,100,0.12272727272727273,554,0,50,DL_Guitar,6,2,DL.   Stems,0.2619650661945343,0
54,100,0.6,136,1,52,DL_Guitar,6,10,DL.   Stems,0.9986506104469299,1
57,100,0.3,325,0,52,DL_Guitar,6,5,DL.   Stems,0.08797800540924072,0
59,100,0.1590909090909091,515,0,52,DL_Guitar,6,3,DL.   Stems,0.0929858386516571,0
59,100,0.1590909090909091,568,0,52,DL_Guitar,6,3,DL.   Stems,0.10994955152273178,0
54,100,0.4590909090909091,703,0,52,DL_Guitar,6,7,DL.   Stems,0.12866981327533722,0
54,100,0.3409090909090909,826,0,52,DL_Guitar,6,5,DL.   Stems,0.1822195053100586,0
54,100,0.18181818181818182,408,1,53,DL_Guitar,6,3,DL.   Stems,0.9990094900131226,1
61,100,0.22272727272727272,651,1,53,DL_Guitar,6,4,DL.   Stems,0.23322264850139618,0
61,100,0.1590909090909091,721,0,53,DL_Guitar,6,3,DL.   Stems,0.2705758810043335,0
61,100,0.1,765,0,53,DL_Guitar,6,2,DL.   Stems,0.35792076587677,0
59,100,0.2,0,1,54,DL_Guitar,6,3,DL.   Stems,0.9990280866622925,1
61,100,0.4,206,0,54,DL_Guitar,6,6,DL.   Stems,0.37033846974372864,0
57,100,0.17727272727272728,743,1,54,DL_Guitar,6,3,DL.   Stems,0.45617324113845825,0
57,100,0.1,215,1,55,DL_Guitar,6,2,DL.   Stems,0.9990280866622925,1
52,100,0.5,678,1,55,DL_Guitar,6,8,DL.   Stems,0.3703409731388092,0
52,100,0.6181818181818182,791,0,55,DL_Guitar,6,10,DL.   Stems,0.45617175102233887,0
52,100,0.18181818181818182,136,1,56,DL_Guitar,6,3,DL.   Stems,0.9984879493713379,1
64,100,0.16363636363636364,179,0,56,DL_Guitar,6,3,DL.   Stems,0.06335476785898209,0
52,100,0.6363636363636364,391,0,56,DL_Guitar,6,10,DL.   Stems,0.05828927829861641,0
52,100,0.11818181818181818,568,0,56,DL_Guitar,6,2,DL.   Stems,0.0613633394241333,0
52,100,0.16363636363636364,598,0,56,DL_Guitar,6,3,DL.   Stems,0.0716853216290474,0
52,100,0.5590909090909091,700,0,56,DL_Guitar,6,9,DL.   Stems,0.08473895490169525,0
52,100,0.5818181818181818,839,0,56,DL_Guitar,6,9,DL.   Stems,0.1263563632965088,0
52,100,1.059090909090909,286,1,57,DL_Guitar,6,15,DL.   Stems,0.9990280866622925,1
52,100,0.4409090909090909,541,1,57,DL_Guitar,6,7,DL.   Stems,0.37033867835998535,0
52,100,0.18181818181818182,770,0,57,DL_Guitar,6,3,DL.   Stems,0.4561760127544403,0
52,100,0.12272727272727273,114,1,58,DL_Guitar,6,2,DL.   Stems,0.9990280866622925,1
52,100,0.2,603,1,58,DL_Guitar,6,3,DL.   Stems,0.3703404366970062,0
52,100,0.3,678,0,58,DL_Guitar,6,5,DL.   Stems,0.45617786049842834,0
52,100,0.11818181818181818,523,1,59,DL_Guitar,6,2,DL.   Stems,0.9983232617378235,1
56,100,0.22272727272727272,606,0,59,DL_Guitar,6,4,DL.   Stems,0.5462172031402588,1
57,100,0.3,185,1,60,DL_Guitar,6,5,DL.   Stems,0.9988439083099365,1
52,100,0.18181818181818182,444,1,60,DL_Guitar,6,3,DL.   Stems,0.13798290491104126,0
52,100,0.18181818181818182,488,0,60,DL_Guitar,6,3,DL.   Stems,0.16236452758312225,0
52,100,0.4590909090909091,660,0,60,DL_Guitar,6,7,DL.   Stems,0.19105735421180725,0
52,100,0.11818181818181818,810,0,60,DL_Guitar,6,2,DL.   Stems,0.26197171211242676,0
52,100,0.2,176,1,61,DL_Guitar,6,3,DL.   Stems,0.9988439083099365,1
52,100,0.37727272727272726,361,0,61,DL_Guitar,6,6,DL.   Stems,0.13798312842845917,0
52,100,0.2590909090909091,458,0,61,DL_Guitar,6,4,DL.   Stems,0.16236872971057892,0
64,100,0.42272727272727273,563,0,61,DL_Guitar,6,7,DL.   Stems,0.19105887413024902,0
52,100,0.11818181818181818,655,0,61,DL_Guitar,6,2,DL.   Stems,0.26197350025177,0
64,100,0.2409090909090909,603,1,62,DL_Guitar,6,4,DL.   Stems,0.9990280866622925,1
64,100,0.11818181818181818,660,0,62,DL_Guitar,6,2,DL.   Stems,0.37033703923225403,0
52,100,0.18181818181818182,751,0,62,DL_Guitar,6,3,DL.   Stems,0.4561697542667389,0
52,100,0.11818181818181818,75,1,63,DL_Guitar,6,2,DL.   Stems,0.9990280866622925,1
57,100,0.3409090909090909,246,0,63,DL_Guitar,6,5,DL.   Stems,0.3703441321849823,0
56,100,0.1590909090909091,673,1,63,DL_Guitar,6,3,DL.   Stems,0.45617109537124634,0
54,100,0.21818181818181817,260,1,64,DL_Guitar,6,3,DL.   Stems,0.9988439083099365,1
66,100,0.1409090909090909,462,0,64,DL_Guitar,6,2,DL.   Stems,0.1379835456609726,0
54,100,0.4,563,0,64,DL_Guitar,6,6,DL.   Stems,0.16235792636871338,0
66,100,0.2409090909090909,695,0,64,DL_Guitar,6,4,DL.   Stems,0.19105640053749084,0
54,100,0.1409090909090909,756,0,64,DL_Guitar,6,2,DL.   Stems,0.26196029782295227,0
52,100,0.1,373,1,65,DL_Guitar,6,2,DL.   Stems,0.9983232617378235,1
52,100,0.3181818181818182,770,1,65,DL_Guitar,6,5,DL.   Stems,0.5462141036987305,1
52,100,0.16363636363636364,92,1,66,DL_Guitar,6,3,DL.   Stems,0.9984880685806274,1
52,100,0.2772727272727273,184,0,66,DL_Guitar,6,4,DL.   Stems,0.06335454434156418,0
52,100,0.2409090909090909,273,0,66,DL_Guitar,6,4,DL.   Stems,0.058289896696805954,0
52,100,0.2409090909090909,356,0,66,DL_Guitar,6,4,DL.   Stems,0.06136315315961838,0
52,100,0.13636363636363635,413,0,66,DL_Guitar,6,2,DL.   Stems,0.07168464362621307,0
64,100,0.12272727272727273,509,0,66,DL_Guitar,6,2,DL.   Stems,0.08473710715770721,0
54,100,0.3409090909090909,576,0,66,DL_Guitar,6,5,DL.   Stems,0.12635508179664612,0
52,100,0.3409090909090909,563,1,67,DL_Guitar,6,5,DL.   Stems,0.9990280866622925,1
52,100,0.2818181818181818,686,0,67,DL_Guitar,6,5,DL.   Stems,0.3703383207321167,0
52,100,0.4590909090909091,766,0,67,DL_Guitar,6,7,DL.   Stems,0.45617592334747314,0
59,100,0.18181818181818182,79,1,68,DL_Guitar,6,3,DL.   Stems,0.9983232617378235,1
52,100,0.17727272727272728,523,1,68,DL_Guitar,6,3,DL.   Stems,0.5462145805358887,1
56,100,0.11818181818181818,74,1,69,DL_Guitar,6,2,DL.   Stems,0.9990094900131226,1
59,100,0.4590909090909091,189,0,69,DL_Guitar,6,7,DL.   Stems,0.2332371175289154,0
56,100,0.4409090909090909,430,1,69,DL_Guitar,6,7,DL.   Stems,0.2705792784690857,0
52,100,0.13636363636363635,612,0,69,DL_Guitar,6,2,DL.   Stems,0.3579350709915161,0
52,100,0.1409090909090909,35,1,70,DL_Guitar,6,2,DL.   Stems,0.9990094900131226,1
54,100,0.3,140,0,70,DL_Guitar,6,5,DL.   Stems,0.23323257267475128,0
54,100,0.2409090909090909,399,1,70,DL_Guitar,6,4,DL.   Stems,0.27058497071266174,0
54,100,1.3409090909090908,747,1,70,DL_Guitar,6,15,DL.   Stems,0.35791879892349243,0
54,100,0.2409090909090909,220,1,71,DL_Guitar,6,4,DL.   Stems,0.9988439083099365,1
54,100,0.18181818181818182,286,0,71,DL_Guitar,6,3,DL.   Stems,0.1379818171262741,0
54,100,0.1,453,0,71,DL_Guitar,6,2,DL.   Stems,0.1623617708683014,0
54,100,0.1590909090909091,580,0,71,DL_Guitar,6,3,DL.   Stems,0.1910538673400879,0
61,100,0.1,796,0,71,DL_Guitar,6,2,DL.   Stems,0.2619612216949463,0
61,100,0.42272727272727273,540,1,72,DL_Guitar,6,7,DL.   Stems,0.9792228937149048,1
57,100,0.21818181818181817,242,1,73,DL_Guitar,6,3,DL.   Stems,0.9792242646217346,1
52,100,0.11818181818181818,66,1,74,DL_Guitar,6,2,DL.   Stems,0.9983735084533691,1
52,100,0.2772727272727273,150,0,74,DL_Guitar,6,4,DL.   Stems,0.05105094611644745,0
52,100,0.12272727272727273,289,0,74,DL_Guitar,6,2,DL.   Stems,0.04161285236477852,0
64,100,0.1409090909090909,320,0,74,DL_Guitar,6,2,DL.   Stems,0.037981513887643814,0
52,100,0.12272727272727273,386,0,74,DL_Guitar,6,2,DL.   Stems,0.0392618365585804,0
64,100,0.13636363636363635,413,0,74,DL_Guitar,6,2,DL.   Stems,0.04616720229387283,0
52,100,0.1409090909090909,603,0,74,DL_Guitar,6,2,DL.   Stems,0.05713262781500816,0
52,100,0.2590909090909091,787,0,74,DL_Guitar,6,4,DL.   Stems,0.09188448637723923,0
52,100,0.2590909090909091,79,1,75,DL_Guitar,6,4,DL.   Stems,0.9984879493713379,1
52,100,0.11818181818181818,184,0,75,DL_Guitar,6,2,DL.   Stems,0.06335437297821045,0
52,100,0.1,223,0,75,DL_Guitar,6,2,DL.   Stems,0.058289144188165665,0
52,100,0.12272727272727273,267,0,75,DL_Guitar,6,2,DL.   Stems,0.06136279180645943,0
64,100,0.11818181818181818,316,0,75,DL_Guitar,6,2,DL.   Stems,0.07168560475111008,0
52,100,0.2818181818181818,409,0,75,DL_Guitar,6,5,DL.   Stems,0.08473792672157288,0
52,100,0.22272727272727272,540,0,75,DL_Guitar,6,4,DL.   Stems,0.126357302069664,0
52,100,0.3409090909090909,462,1,76,DL_Guitar,6,5,DL.   Stems,0.9990280866622925,1
52,100,0.12272727272727273,650,0,76,DL_Guitar,6,2,DL.   Stems,0.37033697962760925,0
53,100,0.1,677,0,76,DL_Guitar,6,2,DL.   Stems,0.45616966485977173,0
64,100,0.1,576,1,77,DL_Guitar,6,2,DL.   Stems,0.9792247414588928,1
54,100,0.2,360,1,78,DL_Guitar,6,3,DL.   Stems,0.9792241454124451,1
54,100,0.3,443,1,79,DL_Guitar,6,5,DL.   Stems,0.9983232617378235,1
54,100,0.3409090909090909,682,1,79,DL_Guitar,6,5,DL.   Stems,0.5462145805358887,1
69,100,0.2590909090909091,22,1,80,DL_Guitar,6,4,DL.   Stems,0.9990094900131226,1
54,100,0.12272727272727273,166,0,80,DL_Guitar,6,2,DL.   Stems,0.23322917520999908,0
54,100,0.4590909090909091,519,1,80,DL_Guitar,6,7,DL.   Stems,0.2705767750740051,0
54,100,0.1,633,0,80,DL_Guitar,6,2,DL.   Stems,0.35792475938796997,0
52,100,0.2,106,1,81,DL_Guitar,6,3,DL.   Stems,0.9990094900131226,1
56,100,0.2590909090909091,220,0,81,DL_Guitar,6,4,DL.   Stems,0.23322966694831848,0
52,100,0.8818181818181818,333,0,81,DL_Guitar,6,14,DL.   Stems,0.27058249711990356,0
61,100,0.2590909090909091,760,1,81,DL_Guitar,6,4,DL.   Stems,0.35792818665504456,0
57,100,0.1409090909090909,136,1,82,DL_Guitar,6,2,DL.   Stems,0.9983004927635193,1
61,100,0.18181818181818182,246,0,82,DL_Guitar,6,3,DL.   Stems,0.044663816690444946,0
61,100,0.2772727272727273,347,0,82,DL_Guitar,6,4,DL.   Stems,0.03337303176522255,0
54,100,0.1409090909090909,553,0,82,DL_Guitar,6,2,DL.   Stems,0.026950253173708916,0
54,100,0.3,646,0,82,DL_Guitar,6,5,DL.   Stems,0.024085072800517082,0
54,100,0.1590909090909091,716,0,82,DL_Guitar,6,3,DL.   Stems,0.024974826723337173,0
57,100,0.18181818181818182,752,0,82,DL_Guitar,6,3,DL.   Stems,0.03064858913421631,0
62,100,0.1,826,0,82,DL_Guitar,6,2,DL.   Stems,0.041370704770088196,0
62,100,0.1,853,0,82,DL_Guitar,6,2,DL.   Stems,0.07207264006137848,0
54,100,0.32272727272727275,136,1,83,DL_Guitar,6,5,DL.   Stems,0.9990280866622925,1
57,100,0.4,233,0,83,DL_Guitar,6,6,DL.   Stems,0.3703387975692749,0
52,100,0.1,839,1,83,DL_Guitar,6,2,DL.   Stems,0.45617660880088806,0
52,100,0.43636363636363634,83,1,84,DL_Guitar,6,7,DL.   Stems,0.9988439083099365,1
59,100,0.1409090909090909,210,0,84,DL_Guitar,6,2,DL.   Stems,0.13798117637634277,0
64,100,0.1590909090909091,713,1,84,DL_Guitar,6,3,DL.   Stems,0.1623636931180954,0
54,100,0.1,787,0,84,DL_Guitar,6,2,DL.   Stems,0.19105874001979828,0
63,100,0.1409090909090909,836,0,84,DL_Guitar,6,2,DL.   Stems,0.2619655728340149,0
63,100,0.1,26,1,85,DL_Guitar,6,2,DL.   Stems,0.9986506104469299,1
54,100,0.1,87,0,85,DL_Guitar,6,2,DL.   Stems,0.08798187226057053,0
54,100,0.2409090909090909,163,0,85,DL_Guitar,6,4,DL.   Stems,0.09298527240753174,0
66,100,0.11818181818181818,242,0,85,DL_Guitar,6,2,DL.   Stems,0.10995054244995117,0
54,100,0.1409090909090909,299,0,85,DL_Guitar,6,2,DL.   Stems,0.12867119908332825,0
54,100,0.2,729,1,85,DL_Guitar,6,3,DL.   Stems,0.1822231411933899,0
63,100,0.2818181818181818,35,1,86,DL_Guitar,6,5,DL.   Stems,0.9986506104469299,1
63,100,0.23636363636363636,106,0,86,DL_Guitar,6,4,DL.   Stems,0.08798003941774368,0
59,100,0.1409090909090909,267,0,86,DL_Guitar,6,2,DL.   Stems,0.09298708289861679,0
66,100,0.1,619,1,86,DL_Guitar,6,2,DL.   Stems,0.10995537042617798,0
54,100,0.3,690,0,86,DL_Guitar,6,5,DL.   Stems,0.12867456674575806,0
66,100,0.18181818181818182,770,0,86,DL_Guitar,6,3,DL.   Stems,0.18222792446613312,0
52,100,0.4590909090909091,163,1,87,DL_Guitar,6,7,DL.   Stems,0.9983232617378235,1
52,100,0.1409090909090909,470,1,87,DL_Guitar,6,2,DL.   Stems,0.5462197661399841,1
61,100,0.12272727272727273,26,1,88,DL_Guitar,6,2,DL.   Stems,0.9983231425285339,1
66,100,0.1590909090909091,506,1,88,DL_Guitar,6,3,DL.   Stems,0.5462205410003662,1
54,100,0.21818181818181817,30,1,89,DL_Guitar,6,3,DL.   Stems,0.9984880685806274,1
64,100,0.11818181818181818,176,0,89,DL_Guitar,6,2,DL.   Stems,0.06335391849279404,0
64,100,0.21818181818181817,237,0,89,DL_Guitar,6,3,DL.   Stems,0.05829131603240967,0
64,100,0.11818181818181818,330,0,89,DL_Guitar,6,2,DL.   Stems,0.06136512756347656,0
52,100,0.5590909090909091,417,0,89,DL_Guitar,6,9,DL.   Stems,0.07168641686439514,0
64,100,0.1,593,0,89,DL_Guitar,6,2,DL.   Stems,0.08474169671535492,0
54,100,0.2,857,1,89,DL_Guitar,6,3,DL.   Stems,0.12635944783687592,0
63,100,0.2409090909090909,307,1,90,DL_Guitar,6,4,DL.   Stems,0.9990280866622925,1
63,100,0.37727272727272726,404,0,90,DL_Guitar,6,6,DL.   Stems,0.37033843994140625,0
59,100,0.3181818181818182,726,1,90,DL_Guitar,6,5,DL.   Stems,0.4561692774295807,0
63,100,0.1,233,1,91,DL_Guitar,6,2,DL.   Stems,0.9983736276626587,1
54,100,0.1,276,0,91,DL_Guitar,6,2,DL.   Stems,0.051051706075668335,0
64,100,0.2818181818181818,333,0,91,DL_Guitar,6,5,DL.   Stems,0.04161245375871658,0
64,100,0.12272727272727273,443,0,91,DL_Guitar,6,2,DL.   Stems,0.037981584668159485,0
52,100,0.2590909090909091,502,0,91,DL_Guitar,6,4,DL.   Stems,0.03926090896129608,0
52,100,0.2409090909090909,572,0,91,DL_Guitar,6,4,DL.   Stems,0.04616791754961014,0
52,100,0.21818181818181817,747,0,91,DL_Guitar,6,3,DL.   Stems,0.057134710252285004,0
52,100,0.2,870,0,91,DL_Guitar,6,3,DL.   Stems,0.09188526123762131,0
64,100,0.1409090909090909,206,1,92,DL_Guitar,6,2,DL.   Stems,0.9988439083099365,1
59,100,0.1590909090909091,276,0,92,DL_Guitar,6,3,DL.   Stems,0.13798312842845917,0
54,100,0.3181818181818182,436,0,92,DL_Guitar,6,5,DL.   Stems,0.16236566007137299,0
54,100,0.2409090909090909,572,0,92,DL_Guitar,6,4,DL.   Stems,0.1910560131072998,0
52,100,0.5,700,0,92,DL_Guitar,6,8,DL.   Stems,0.2619692087173462,0
54,100,0.2636363636363636,47,1,93,DL_Guitar,6,4,DL.   Stems,0.9983232617378235,1
54,100,0.18181818181818182,132,0,93,DL_Guitar,6,3,DL.   Stems,0.546217143535614,1
54,100,0.1409090909090909,110,1,94,DL_Guitar,6,2,DL.   Stems,0.9990094900131226,1
54,100,0.41818181818181815,307,0,94,DL_Guitar,6,7,DL.   Stems,0.2332274168729782,0
63,100,0.11818181818181818,612,1,94,DL_Guitar,6,2,DL.   Stems,0.2705748975276947,0
59,100,0.42272727272727273,796,0,94,DL_Guitar,6,7,DL.   Stems,0.357923299074173,0
63,100,0.1590909090909091,206,1,95,DL_Guitar,6,3,DL.   Stems,0.9986506104469299,1
54,100,0.23636363636363636,392,0,95,DL_Guitar,6,4,DL.   Stems,0.08798160403966904,0
54,100,0.2409090909090909,475,0,95,DL_Guitar,6,4,DL.   Stems,0.09298575669527054,0
52,100,0.2590909090909091,606,0,95,DL_Guitar,6,4,DL.   Stems,0.10995186865329742,0
52,100,0.2409090909090909,716,0,95,DL_Guitar,6,4,DL.   Stems,0.1286735236644745,0
52,100,0.9181818181818182,813,0,95,DL_Guitar,6,15,DL.   Stems,0.18222831189632416,0
54,100,0.11818181818181818,176,1,96,DL_Guitar,6,2,DL.   Stems,0.9990280866622925,1
54,100,0.1409090909090909,404,0,96,DL_Guitar,6,2,DL.   Stems,0.37033769488334656,0
54,100,0.12272727272727273,629,0,96,DL_Guitar,6,2,DL.   Stems,0.45616936683654785,0
54,100,0.11818181818181818,132,1,97,DL_Guitar,6,2,DL.   Stems,0.9990094900131226,1
54,100,0.1590909090909091,453,1,97,DL_Guitar,6,3,DL.   Stems,0.23322699964046478,0
54,100,0.4818181818181818,509,0,97,DL_Guitar,6,8,DL.   Stems,0.2705775201320648,0
52,100,0.4,805,1,97,DL_Guitar,6,6,DL.   Stems,0.35793086886405945,0
52,100,0.3181818181818182,153,1,98,DL_Guitar,6,5,DL.   Stems,0.9990094900131226,1
54,100,0.22272727272727272,475,1,98,DL_Guitar,6,4,DL.   Stems,0.23322954773902893,0
61,100,0.2409090909090909,650,0,98,DL_Guitar,6,4,DL.   Stems,0.270579993724823,0
63,100,0.35909090909090907,779,0,98,DL_Guitar,6,6,DL.   Stems,0.357928603887558,0
56,100,0.2409090909090909,9,1,99,DL_Guitar,6,4,DL.   Stems,0.9986506104469299,1
63,100,0.1409090909090909,74,0,99,DL_Guitar,6,2,DL.   Stems,0.0879792720079422,0
59,100,0.1590909090909091,119,0,99,DL_Guitar,6,3,DL.   Stems,0.09298776835203171,0
63,100,0.5818181818181818,176,0,99,DL_Guitar,6,9,DL.   Stems,0.10995297133922577,0
63,100,0.6181818181818182,527,1,99,DL_Guitar,6,10,DL.   Stems,0.12867853045463562,0
63,100,0.41818181818181815,722,0,99,DL_Guitar,6,7,DL.   Stems,0.18223583698272705,0
52,100,0.3409090909090909,849,1,100,DL_Guitar,6,5,DL.   Stems,0.9792241454124451,1
61,100,0.3,136,1,101,DL_Guitar,6,5,DL.   Stems,0.9990094900131226,1
54,100,0.23636363636363636,282,0,101,DL_Guitar,6,4,DL.   Stems,0.23323120176792145,0
54,100,0.4590909090909091,624,1,101,DL_Guitar,6,7,DL.   Stems,0.27058470249176025,0
54,100,0.5590909090909091,787,0,101,DL_Guitar,6,9,DL.   Stems,0.35793453454971313,0
54,100,0.1,153,1,102,DL_Guitar,6,2,DL.   Stems,0.9792243838310242,1
54,100,0.1409090909090909,92,1,103,DL_Guitar,6,2,DL.   Stems,0.9988439083099365,1
66,100,0.2409090909090909,307,0,103,DL_Guitar,6,4,DL.   Stems,0.13797959685325623,0
63,100,0.38181818181818183,386,0,103,DL_Guitar,6,6,DL.   Stems,0.16236142814159393,0
54,100,0.21818181818181817,527,0,103,DL_Guitar,6,3,DL.   Stems,0.19105245172977448,0
54,100,0.11818181818181818,832,1,103,DL_Guitar,6,2,DL.   Stems,0.2619650661945343,0
59,100,0.12272727272727273,267,1,104,DL_Guitar,6,2,DL.   Stems,0.9990280866622925,1
59,100,0.7227272727272728,343,0,104,DL_Guitar,6,12,DL.   Stems,0.3703388273715973,0
54,100,0.1409090909090909,550,0,104,DL_Guitar,6,2,DL.   Stems,0.4561709463596344,0
54,100,0.3,100,1,105,DL_Guitar,6,5,DL.   Stems,0.9990094900131226,1
54,100,0.2772727272727273,172,0,105,DL_Guitar,6,4,DL.   Stems,0.2332303524017334,0
66,100,0.2,487,1,105,DL_Guitar,6,3,DL.   Stems,0.2705833911895752,0
63,100,0.2818181818181818,739,1,105,DL_Guitar,6,5,DL.   Stems,0.3579292595386505,0
64,100,0.3409090909090909,110,1,106,DL_Guitar,6,5,DL.   Stems,0.9984879493713379,1
64,100,0.11818181818181818,250,0,106,DL_Guitar,6,2,DL.   Stems,0.06335267424583435,0
64,100,0.11818181818181818,303,0,106,DL_Guitar,6,2,DL.   Stems,0.0582878403365612,0
64,100,0.12272727272727273,365,0,106,DL_Guitar,6,2,DL.   Stems,0.061362024396657944,0
66,100,0.1,567,0,106,DL_Guitar,6,2,DL.   Stems,0.07168398797512054,0
66,100,0.4,593,0,106,DL_Guitar,6,6,DL.   Stems,0.0847354456782341,0
66,100,0.1409090909090909,747,0,106,DL_Guitar,6,2,DL.   Stems,0.126353919506073,0
66,100,0.1,330,1,107,DL_Guitar,6,2,DL.   Stems,0.9990094900131226,1
64,100,0.2818181818181818,386,0,107,DL_Guitar,6,5,DL.   Stems,0.2332308441400528,0
63,100,0.1,633,1,107,DL_Guitar,6,2,DL.   Stems,0.2705844044685364,0
54,100,0.4818181818181818,760,0,107,DL_Guitar,6,8,DL.   Stems,0.3579317033290863,0
54,100,0.12272727272727273,3,1,108,DL_Guitar,6,2,DL.   Stems,0.9988439083099365,1
54,100,0.759090909090909,123,0,108,DL_Guitar,6,12,DL.   Stems,0.13797903060913086,0
64,100,0.2409090909090909,726,1,108,DL_Guitar,6,4,DL.   Stems,0.1623612642288208,0
64,100,0.1409090909090909,792,0,108,DL_Guitar,6,2,DL.   Stems,0.19105449318885803,0
66,100,0.13636363636363635,832,0,108,DL_Guitar,6,2,DL.   Stems,0.261966735124588,0
66,100,0.11818181818181818,216,1,109,DL_Guitar,6,2,DL.   Stems,0.9984880685806274,1
56,100,0.4,316,0,109,DL_Guitar,6,6,DL.   Stems,0.06335140019655228,0
66,100,0.2,449,0,109,DL_Guitar,6,3,DL.   Stems,0.05828951299190521,0
66,100,0.18181818181818182,509,0,109,DL_Guitar,6,3,DL.   Stems,0.06136207655072212,0
63,100,0.3181818181818182,593,0,109,DL_Guitar,6,5,DL.   Stems,0.07168173789978027,0
63,100,0.13636363636363635,677,0,109,DL_Guitar,6,2,DL.   Stems,0.08473839610815048,0
54,100,0.11818181818181818,770,0,109,DL_Guitar,6,2,DL.   Stems,0.12635751068592072,0
63,100,0.1409090909090909,87,1,110,DL_Guitar,6,2,DL.   Stems,0.9986506104469299,1
63,100,0.18181818181818182,153,0,110,DL_Guitar,6,3,DL.   Stems,0.08797884732484818,0
54,100,0.12272727272727273,320,0,110,DL_Guitar,6,2,DL.   Stems,0.09299013763666153,0
63,100,0.1409090909090909,383,0,110,DL_Guitar,6,2,DL.   Stems,0.10995256900787354,0
59,100,0.1590909090909091,563,0,110,DL_Guitar,6,3,DL.   Stems,0.12868134677410126,0
63,100,0.12272727272727273,752,0,110,DL_Guitar,6,2,DL.   Stems,0.1822233349084854,0
54,100,0.2590909090909091,83,1,111,DL_Guitar,6,4,DL.   Stems,0.9990094900131226,1
54,100,0.5590909090909091,220,0,111,DL_Guitar,6,9,DL.   Stems,0.23322685062885284,0
61,100,0.38181818181818183,475,1,111,DL_Guitar,6,6,DL.   Stems,0.27057355642318726,0
54,100,0.18181818181818182,637,0,111,DL_Guitar,6,3,DL.   Stems,0.35792261362075806,0
66,100,0.1409090909090909,140,1,112,DL_Guitar,6,2,DL.   Stems,0.9990280866622925,1
66,100,0.1,282,0,112,DL_Guitar,6,2,DL.   Stems,0.3703361451625824,0
54,100,0.32272727272727275,422,0,112,DL_Guitar,6,5,DL.   Stems,0.45616668462753296,0
54,100,0.18181818181818182,255,1,113,DL_Guitar,6,3,DL.   Stems,0.9986507296562195,1
54,100,0.18181818181818182,299,0,113,DL_Guitar,6,3,DL.   Stems,0.08797934651374817,0
66,100,0.21818181818181817,352,0,113,DL_Guitar,6,3,DL.   Stems,0.09298337996006012,0
54,100,0.22272727272727272,409,0,113,DL_Guitar,6,4,DL.   Stems,0.1099487692117691,0
66,100,0.11818181818181818,457,0,113,DL_Guitar,6,2,DL.   Stems,0.12867391109466553,0
59,100,0.12272727272727273,496,0,113,DL_Guitar,6,2,DL.   Stems,0.18221215903759003,0
59,100,0.1409090909090909,686,1,0,DL_warmFolk_Guitar,6,2,omokagewarmfolk,0.9792237281799316,1
67,100,0.18181818181818182,0,1,1,DL_warmFolk_Guitar,6,3,omokagewarmfolk,0.9990280866622925,1
57,100,0.22272727272727272,554,1,1,DL_warmFolk_Guitar,6,4,omokagewarmfolk,0.3703426122665405,0
56,100,0.1409090909090909,603,0,1,DL_warmFolk_Guitar,6,2,omokagewarmfolk,0.45616263151168823,0
59,100,0.18181818181818182,672,1,2,DL_warmFolk_Guitar,6,3,omokagewarmfolk,0.9792236089706421,1
55,100,0.35909090909090907,198,1,3,DL_warmFolk_Guitar,6,6,omokagewarmfolk,0.9990094900131226,1
61,100,0.1590909090909091,739,1,3,DL_warmFolk_Guitar,6,3,omokagewarmfolk,0.23322850465774536,0
57,100,0.2590909090909091,782,0,3,DL_warmFolk_Guitar,6,4,omokagewarmfolk,0.27058374881744385,0
56,100,0.18181818181818182,840,0,3,DL_warmFolk_Guitar,6,3,omokagewarmfolk,0.3579302430152893,0
64,100,0.22272727272727272,532,1,4,DL_warmFolk_Guitar,6,4,omokagewarmfolk,0.9983232617378235,1
57,100,0.17727272727272728,655,0,4,DL_warmFolk_Guitar,6,3,omokagewarmfolk,0.546213686466217,1
57,100,0.1,114,1,5,DL_warmFolk_Guitar,6,2,omokagewarmfolk,0.9990094900131226,1
55,100,0.1590909090909091,145,0,5,DL_warmFolk_Guitar,6,3,omokagewarmfolk,0.23323218524456024,0
59,100,0.32272727272727275,268,0,5,DL_warmFolk_Guitar,6,5,omokagewarmfolk,0.27058491110801697,0
55,100,0.2,435,0,5,DL_warmFolk_Guitar,6,3,omokagewarmfolk,0.3579300045967102,0
57,100,0.2636363636363636,135,1,6,DL_warmFolk_Guitar,6,4,omokagewarmfolk,0.9983232617378235,1
56,100,0.2,201,0,6,DL_warmFolk_Guitar,6,3,omokagewarmfolk,0.5462184548377991,1
54,100,0.5409090909090909,255,1,7,DL_warmFolk_Guitar,6,9,omokagewarmfolk,0.9983232617378235,1
59,100,0.3,506,1,7,DL_warmFolk_Guitar,6,5,omokagewarmfolk,0.5462155938148499,1
57,100,0.2818181818181818,378,1,8,DL_warmFolk_Guitar,6,5,omokagewarmfolk,0.9990280866622925,1
56,100,0.2,440,0,8,DL_warmFolk_Guitar,6,3,omokagewarmfolk,0.37034282088279724,0
54,100,0.1409090909090909,615,0,8,DL_warmFolk_Guitar,6,2,omokagewarmfolk,0.4561726450920105,0
62,100,0.22272727272727272,312,1,9,DL_warmFolk_Guitar,6,4,omokagewarmfolk,0.9986506104469299,1
57,100,0.8772727272727273,369,0,9,DL_warmFolk_Guitar,6,14,omokagewarmfolk,0.08798027783632278,0
57,100,0.1,572,0,9,DL_warmFolk_Guitar,6,2,omokagewarmfolk,0.09298615902662277,0
55,100,0.1,615,0,9,DL_warmFolk_Guitar,6,2,omokagewarmfolk,0.10995284467935562,0
59,100,0.2772727272727273,735,0,9,DL_warmFolk_Guitar,6,4,omokagewarmfolk,0.12867259979248047,0
62,100,0.2,809,0,9,DL_warmFolk_Guitar,6,3,omokagewarmfolk,0.18222390115261078,0
55,100,0.21818181818181817,30,1,10,DL_warmFolk_Guitar,6,3,omokagewarmfolk,0.9990094900131226,1
55,100,0.23636363636363636,106,0,10,DL_warmFolk_Guitar,6,4,omokagewarmfolk,0.23323354125022888,0
57,100,0.2,527,1,10,DL_warmFolk_Guitar,6,3,omokagewarmfolk,0.2705763578414917,0
61,100,0.1,694,0,10,DL_warmFolk_Guitar,6,2,omokagewarmfolk,0.35793155431747437,0
62,100,0.11818181818181818,615,1,12,DL_warmFolk_Guitar,6,2,omokagewarmfolk,0.9990094900131226,1
57,100,0.1409090909090909,730,0,12,DL_warmFolk_Guitar,6,2,omokagewarmfolk,0.2332313507795334,0
59,100,0.21818181818181817,787,0,12,DL_warmFolk_Guitar,6,3,omokagewarmfolk,0.27059367299079895,0
62,100,0.1409090909090909,845,0,12,DL_warmFolk_Guitar,6,2,omokagewarmfolk,0.35793378949165344,0
57,100,0.2818181818181818,268,1,13,DL_warmFolk_Guitar,6,5,omokagewarmfolk,0.9990094900131226,1
57,100,0.13636363636363635,414,0,13,DL_warmFolk_Guitar,6,2,omokagewarmfolk,0.2332381010055542,0
59,100,0.2409090909090909,581,0,13,DL_warmFolk_Guitar,6,4,omokagewarmfolk,0.2705895006656647,0
61,100,0.2409090909090909,835,1,13,DL_warmFolk_Guitar,6,4,omokagewarmfolk,0.3579276502132416,0
57,100,0.2,25,1,14,DL_warmFolk_Guitar,6,3,omokagewarmfolk,0.9990094900131226,1
52,100,0.11818181818181818,87,0,14,DL_warmFolk_Guitar,6,2,omokagewarmfolk,0.23323379456996918,0
62,100,0.22272727272727272,386,1,14,DL_warmFolk_Guitar,6,4,omokagewarmfolk,0.27058833837509155,0
55,100,0.1,527,0,14,DL_warmFolk_Guitar,6,2,omokagewarmfolk,0.35793158411979675,0
57,100,0.5590909090909091,519,1,80,DL_warmFolk_Guitar,6,9,omokagewarmfolk,0.9990280866622925,1
62,100,0.5590909090909091,646,0,80,DL_warmFolk_Guitar,6,9,omokagewarmfolk,0.37033793330192566,0
64,100,0.2590909090909091,770,0,80,DL_warmFolk_Guitar,6,4,omokagewarmfolk,0.4561803340911865,0
69,100,0.1,17,1,81,DL_warmFolk_Guitar,6,2,omokagewarmfolk,0.9986506104469299,1
71,100,0.6590909090909091,53,0,81,DL_warmFolk_Guitar,6,11,omokagewarmfolk,0.08798231184482574,0
74,100,0.3181818181818182,206,0,81,DL_warmFolk_Guitar,6,5,omokagewarmfolk,0.09298864752054214,0
71,100,1.2181818181818183,370,0,81,DL_warmFolk_Guitar,6,15,omokagewarmfolk,0.10995784401893616,0
69,100,0.5,642,1,81,DL_warmFolk_Guitar,6,8,omokagewarmfolk,0.12868008017539978,0
69,100,0.5772727272727273,756,0,81,DL_warmFolk_Guitar,6,9,omokagewarmfolk,0.18223227560520172,0
67,100,0.5590909090909091,9,1,82,DL_warmFolk_Guitar,6,9,omokagewarmfolk,0.9988439083099365,1
66,100,0.740909090909091,132,0,82,DL_warmFolk_Guitar,6,12,omokagewarmfolk,0.13798947632312775,0
69,100,0.5590909090909091,316,0,82,DL_warmFolk_Guitar,6,9,omokagewarmfolk,0.16236865520477295,0
69,100,0.17727272727272728,457,0,82,DL_warmFolk_Guitar,6,3,omokagewarmfolk,0.1910727322101593,0
62,100,2.9,502,0,82,DL_warmFolk_Guitar,6,15,omokagewarmfolk,0.2619556784629822,0
74,100,0.2772727272727273,260,1,83,DL_warmFolk_Guitar,6,4,omokagewarmfolk,0.9984879493713379,1
62,100,0.4818181818181818,320,0,83,DL_warmFolk_Guitar,6,8,omokagewarmfolk,0.06335563957691193,0
74,100,0.3409090909090909,426,0,83,DL_warmFolk_Guitar,6,5,omokagewarmfolk,0.058290693908929825,0
76,100,0.1,502,0,83,DL_warmFolk_Guitar,6,2,omokagewarmfolk,0.0613652765750885,0
74,100,0.4,527,0,83,DL_warmFolk_Guitar,6,6,omokagewarmfolk,0.07168824225664139,0
78,100,1.018181818181818,624,0,83,DL_warmFolk_Guitar,6,15,omokagewarmfolk,0.08474402874708176,0
74,100,0.5181818181818182,876,1,83,DL_warmFolk_Guitar,6,8,omokagewarmfolk,0.12636402249336243,0
76,100,0.5818181818181818,113,1,84,DL_warmFolk_Guitar,6,9,omokagewarmfolk,0.9984880685806274,1
73,100,0.5409090909090909,242,0,84,DL_warmFolk_Guitar,6,9,omokagewarmfolk,0.06335462629795074,0
78,100,0.8227272727272728,365,0,84,DL_warmFolk_Guitar,6,13,omokagewarmfolk,0.05829109996557236,0
74,100,0.1,550,0,84,DL_warmFolk_Guitar,6,2,omokagewarmfolk,0.061364687979221344,0
76,100,0.35909090909090907,572,0,84,DL_warmFolk_Guitar,6,6,omokagewarmfolk,0.07168992608785629,0
78,100,0.1590909090909091,690,0,84,DL_warmFolk_Guitar,6,3,omokagewarmfolk,0.08474398404359818,0
74,100,2.8181818181818183,734,0,84,DL_warmFolk_Guitar,6,15,omokagewarmfolk,0.12635380029678345,0
78,100,0.5590909090909091,527,1,85,DL_warmFolk_Guitar,6,9,omokagewarmfolk,0.9990094900131226,1
57,100,0.5409090909090909,713,0,85,DL_warmFolk_Guitar,6,9,omokagewarmfolk,0.23323281109333038,0
69,100,0.11818181818181818,832,0,85,DL_warmFolk_Guitar,6,2,omokagewarmfolk,0.2705860733985901,0
74,100,0.38181818181818183,870,0,85,DL_warmFolk_Guitar,6,6,omokagewarmfolk,0.3579321801662445,0
76,100,0.1590909090909091,96,1,86,DL_warmFolk_Guitar,6,3,omokagewarmfolk,0.9983004927635193,1
57,100,0.38181818181818183,132,0,86,DL_warmFolk_Guitar,6,6,omokagewarmfolk,0.04466318339109421,0
69,100,0.6,216,0,86,DL_warmFolk_Guitar,6,10,omokagewarmfolk,0.033372875303030014,0
74,100,0.5,352,0,86,DL_warmFolk_Guitar,6,8,omokagewarmfolk,0.026948748156428337,0
76,100,0.18181818181818182,466,0,86,DL_warmFolk_Guitar,6,3,omokagewarmfolk,0.02408655360341072,0
78,100,0.3,514,0,86,DL_warmFolk_Guitar,6,5,omokagewarmfolk,0.02497483231127262,0
76,100,0.9,590,0,86,DL_warmFolk_Guitar,6,14,omokagewarmfolk,0.030649695545434952,0
81,100,0.3181818181818182,792,0,86,DL_warmFolk_Guitar,6,5,omokagewarmfolk,0.041371800005435944,0
57,100,0.4409090909090909,862,0,86,DL_warmFolk_Guitar,6,7,omokagewarmfolk,0.07207274436950684,0
74,100,1.1409090909090909,87,1,87,DL_warmFolk_Guitar,6,15,omokagewarmfolk,0.9986506104469299,1
66,100,0.2818181818181818,343,1,87,DL_warmFolk_Guitar,6,5,omokagewarmfolk,0.08798103034496307,0
66,100,0.7772727272727272,470,0,87,DL_warmFolk_Guitar,6,12,omokagewarmfolk,0.09298322349786758,0
66,100,0.12272727272727273,695,0,87,DL_warmFolk_Guitar,6,2,omokagewarmfolk,0.1099504753947258,0
62,100,0.43636363636363634,722,0,87,DL_warmFolk_Guitar,6,7,omokagewarmfolk,0.12867014110088348,0
64,100,0.740909090909091,836,0,87,DL_warmFolk_Guitar,6,12,omokagewarmfolk,0.1822195202112198,0
66,100,0.6,132,1,88,DL_warmFolk_Guitar,6,10,omokagewarmfolk,0.9986507296562195,1
61,100,0.5590909090909091,299,0,88,DL_warmFolk_Guitar,6,9,omokagewarmfolk,0.08798003941774368,0
62,100,0.32272727272727275,453,0,88,DL_warmFolk_Guitar,6,5,omokagewarmfolk,0.09298723936080933,0
62,100,0.1590909090909091,536,0,88,DL_warmFolk_Guitar,6,3,omokagewarmfolk,0.10995728522539139,0
61,100,0.5590909090909091,572,0,88,DL_warmFolk_Guitar,6,9,omokagewarmfolk,0.12867741286754608,0
62,100,2.459090909090909,700,0,88,DL_warmFolk_Guitar,6,15,omokagewarmfolk,0.1822253167629242,0
60,100,0.18181818181818182,378,1,0,DL_Remix_Guitar,6,3,katyan_taturo,0.9990280866622925,1
55,100,0.37727272727272726,546,0,0,DL_Remix_Guitar,6,6,katyan_taturo,0.3703348636627197,0
55,100,0.3409090909090909,796,1,0,DL_Remix_Guitar,6,5,katyan_taturo,0.4561627209186554,0
52,100,0.1,267,1,1,DL_Remix_Guitar,6,2,katyan_taturo,0.9986506104469299,1
53,100,0.18181818181818182,290,0,1,DL_Remix_Guitar,6,3,katyan_taturo,0.08797938376665115,0
60,100,0.1,360,0,1,DL_Remix_Guitar,6,2,katyan_taturo,0.09298322349786758,0
60,100,0.11818181818181818,405,0,1,DL_Remix_Guitar,6,2,katyan_taturo,0.10994856059551239,0
60,100,0.2636363636363636,487,0,1,DL_Remix_Guitar,6,4,katyan_taturo,0.12866933643817902,0
60,100,0.1590909090909091,700,0,1,DL_Remix_Guitar,6,3,katyan_taturo,0.1822197139263153,0
62,100,0.4409090909090909,34,1,2,DL_Remix_Guitar,6,7,katyan_taturo,0.9986507296562195,1
55,100,0.2772727272727273,281,1,2,DL_Remix_Guitar,6,4,katyan_taturo,0.08797992020845413,0
62,100,0.18181818181818182,421,0,2,DL_Remix_Guitar,6,3,katyan_taturo,0.09298679232597351,0
62,100,0.2818181818181818,528,0,2,DL_Remix_Guitar,6,5,katyan_taturo,0.10995154827833176,0
62,100,0.11818181818181818,611,0,2,DL_Remix_Guitar,6,2,katyan_taturo,0.1286768764257431,0
62,100,0.5227272727272727,642,0,2,DL_Remix_Guitar,6,8,katyan_taturo,0.18222850561141968,0
61,100,0.1590909090909091,83,1,3,DL_Remix_Guitar,6,3,katyan_taturo,0.9984879493713379,1
61,100,0.18181818181818182,122,0,3,DL_Remix_Guitar,6,3,katyan_taturo,0.06335315853357315,0
61,100,0.2818181818181818,254,0,3,DL_Remix_Guitar,6,5,katyan_taturo,0.05829053744673729,0
57,100,0.37727272727272726,427,0,3,DL_Remix_Guitar,6,6,katyan_taturo,0.06136312335729599,0
57,100,0.32272727272727275,607,0,3,DL_Remix_Guitar,6,5,katyan_taturo,0.07168401777744293,0
60,100,0.2,694,0,3,DL_Remix_Guitar,6,3,katyan_taturo,0.08474195003509521,0
57,100,0.38181818181818183,836,0,3,DL_Remix_Guitar,6,6,katyan_taturo,0.12635168433189392,0
57,100,0.22272727272727272,48,1,4,DL_Remix_Guitar,6,4,katyan_taturo,0.9986506104469299,1
62,100,0.6772727272727272,260,0,4,DL_Remix_Guitar,6,11,katyan_taturo,0.08798068761825562,0
59,100,0.2818181818181818,465,0,4,DL_Remix_Guitar,6,5,katyan_taturo,0.09298740327358246,0
60,100,0.1,527,0,4,DL_Remix_Guitar,6,2,katyan_taturo,0.1099492609500885,0
60,100,0.18181818181818182,575,0,4,DL_Remix_Guitar,6,3,katyan_taturo,0.12867361307144165,0
60,100,0.5772727272727273,765,0,4,DL_Remix_Guitar,6,9,katyan_taturo,0.18222376704216003,0
53,100,0.1,444,1,5,DL_Remix_Guitar,6,2,katyan_taturo,0.9990280866622925,1
55,100,0.2590909090909091,545,0,5,DL_Remix_Guitar,6,4,katyan_taturo,0.37033993005752563,0
60,100,0.2590909090909091,849,1,5,DL_Remix_Guitar,6,4,katyan_taturo,0.45617344975471497,0
57,100,0.4,150,1,6,DL_Remix_Guitar,6,6,katyan_taturo,0.9986506104469299,1
60,100,0.11818181818181818,360,0,6,DL_Remix_Guitar,6,2,katyan_taturo,0.0879807397723198,0
56,100,0.2409090909090909,399,0,6,DL_Remix_Guitar,6,4,katyan_taturo,0.09298253059387207,0
60,100,0.1,458,0,6,DL_Remix_Guitar,6,2,katyan_taturo,0.1099492609500885,0
57,100,0.18181818181818182,708,1,6,DL_Remix_Guitar,6,3,katyan_taturo,0.12866643071174622,0
52,100,0.36363636363636365,795,0,6,DL_Remix_Guitar,6,6,katyan_taturo,0.18221600353717804,0
52,100,0.42272727272727273,4,1,7,DL_Remix_Guitar,6,7,katyan_taturo,0.9990280866622925,1
55,100,0.3,726,1,7,DL_Remix_Guitar,6,5,katyan_taturo,0.37034180760383606,0
57,100,0.11818181818181818,836,0,7,DL_Remix_Guitar,6,2,katyan_taturo,0.4561674892902374,0
57,100,0.4590909090909091,84,1,8,DL_Remix_Guitar,6,7,katyan_taturo,0.9986506104469299,1
57,100,0.21818181818181817,338,1,8,DL_Remix_Guitar,6,3,katyan_taturo,0.08798152953386307,0
57,100,0.18181818181818182,400,0,8,DL_Remix_Guitar,6,3,katyan_taturo,0.09298965334892273,0
57,100,0.1409090909090909,462,0,8,DL_Remix_Guitar,6,2,katyan_taturo,0.10995978116989136,0
57,100,0.6818181818181818,563,0,8,DL_Remix_Guitar,6,11,katyan_taturo,0.1286759376525879,0
56,100,0.12272727272727273,761,0,8,DL_Remix_Guitar,6,2,katyan_taturo,0.18222615122795105,0
60,100,0.1409090909090909,56,1,9,DL_Remix_Guitar,6,2,katyan_taturo,0.9990094900131226,1
55,100,0.1,211,0,9,DL_Remix_Guitar,6,2,katyan_taturo,0.23323369026184082,0
55,100,0.1409090909090909,426,0,9,DL_Remix_Guitar,6,2,katyan_taturo,0.27058959007263184,0
53,100,0.3,804,1,9,DL_Remix_Guitar,6,5,katyan_taturo,0.35792815685272217,0
53,100,0.16363636363636364,48,1,10,DL_Remix_Guitar,6,3,katyan_taturo,0.9990280866622925,1
53,100,0.12272727272727273,101,0,10,DL_Remix_Guitar,6,2,katyan_taturo,0.37033990025520325,0
58,100,0.2409090909090909,756,1,10,DL_Remix_Guitar,6,4,katyan_taturo,0.45617324113845825,0
53,100,0.3,668,1,11,DL_Remix_Guitar,6,5,katyan_taturo,0.9990280866622925,1
53,100,0.16363636363636364,752,0,11,DL_Remix_Guitar,6,3,katyan_taturo,0.3703393340110779,0
53,100,0.4,826,0,11,DL_Remix_Guitar,6,6,katyan_taturo,0.45616599917411804,0
60,100,0.1590909090909091,61,1,12,DL_Remix_Guitar,6,3,katyan_taturo,0.9984880685806274,1
53,100,0.21818181818181817,96,0,12,DL_Remix_Guitar,6,3,katyan_taturo,0.06335253268480301,0
53,100,0.2,163,0,12,DL_Remix_Guitar,6,3,katyan_taturo,0.05828934535384178,0
52,100,0.3181818181818182,316,0,12,DL_Remix_Guitar,6,5,katyan_taturo,0.06136295944452286,0
52,100,0.2,493,0,12,DL_Remix_Guitar,6,3,katyan_taturo,0.07168357819318771,0
52,100,0.2409090909090909,625,0,12,DL_Remix_Guitar,6,4,katyan_taturo,0.0847366601228714,0
52,100,0.3,685,0,12,DL_Remix_Guitar,6,5,katyan_taturo,0.12635263800621033,0
52,100,0.3,44,1,13,DL_Remix_Guitar,6,5,katyan_taturo,0.9986507296562195,1
52,100,0.1409090909090909,132,0,13,DL_Remix_Guitar,6,2,katyan_taturo,0.08798179775476456,0
52,100,0.22272727272727272,180,0,13,DL_Remix_Guitar,6,4,katyan_taturo,0.09298888593912125,0
57,100,0.18181818181818182,355,0,13,DL_Remix_Guitar,6,3,katyan_taturo,0.1099541038274765,0
57,100,0.1,519,0,13,DL_Remix_Guitar,6,2,katyan_taturo,0.1286810040473938,0
57,100,0.740909090909091,801,1,13,DL_Remix_Guitar,6,12,katyan_taturo,0.1822228878736496,0
57,100,0.8818181818181818,123,1,14,DL_Remix_Guitar,6,14,katyan_taturo,0.9990094900131226,1
74,100,0.5227272727272727,321,0,14,DL_Remix_Guitar,6,8,katyan_taturo,0.23323607444763184,0
74,100,0.12272727272727273,510,0,14,DL_Remix_Guitar,6,2,katyan_taturo,0.27059000730514526,0
52,100,0.5590909090909091,611,0,14,DL_Remix_Guitar,6,9,katyan_taturo,0.3579387366771698,0
52,100,0.18181818181818182,25,1,15,DL_Remix_Guitar,6,3,katyan_taturo,0.9990280866622925,1
52,100,0.5,233,0,15,DL_Remix_Guitar,6,8,katyan_taturo,0.37034010887145996,0
52,100,0.2772727272727273,347,0,15,DL_Remix_Guitar,6,4,katyan_taturo,0.45617055892944336,0
53,100,0.21818181818181817,440,1,16,DL_Remix_Guitar,6,3,katyan_taturo,0.9792237281799316,1
58,100,0.2,343,1,17,DL_Remix_Guitar,6,3,katyan_taturo,0.9990280866622925,1
55,100,0.2409090909090909,519,0,17,DL_Remix_Guitar,6,4,katyan_taturo,0.3703458607196808,0
57,100,0.3,669,0,17,DL_Remix_Guitar,6,5,katyan_taturo,0.45616593956947327,0
53,100,0.2,17,1,18,DL_Remix_Guitar,6,3,katyan_taturo,0.9990280866622925,1
53,100,0.4636363636363636,488,1,18,DL_Remix_Guitar,6,7,katyan_taturo,0.37033504247665405,0
53,100,0.16363636363636364,619,0,18,DL_Remix_Guitar,6,3,katyan_taturo,0.4561639130115509,0
52,100,0.2772727272727273,229,1,19,DL_Remix_Guitar,6,4,katyan_taturo,0.9988439083099365,1
52,100,0.12272727272727273,364,0,19,DL_Remix_Guitar,6,2,katyan_taturo,0.1379825472831726,0
59,100,0.12272727272727273,488,0,19,DL_Remix_Guitar,6,2,katyan_taturo,0.1623653769493103,0
52,100,0.4,590,0,19,DL_Remix_Guitar,6,6,katyan_taturo,0.19105707108974457,0
52,100,0.32272727272727275,708,0,19,DL_Remix_Guitar,6,5,katyan_taturo,0.2619716227054596,0
55,100,0.11818181818181818,559,1,20,DL_Remix_Guitar,6,2,katyan_taturo,0.9983231425285339,1
55,100,0.17727272727272728,810,1,20,DL_Remix_Guitar,6,3,katyan_taturo,0.5462120175361633,1
56,100,0.2,656,1,21,DL_Remix_Guitar,6,3,katyan_taturo,0.9983232617378235,1
62,100,0.1409090909090909,773,0,21,DL_Remix_Guitar,6,2,katyan_taturo,0.5462218523025513,1
57,100,0.16363636363636364,422,1,22,DL_Remix_Guitar,6,3,katyan_taturo,0.9990094900131226,1
57,100,0.22272727272727272,497,0,22,DL_Remix_Guitar,6,4,katyan_taturo,0.23323431611061096,0
57,100,0.1,756,1,22,DL_Remix_Guitar,6,2,katyan_taturo,0.2705875635147095,0
57,100,0.11818181818181818,876,0,22,DL_Remix_Guitar,6,2,katyan_taturo,0.3579275906085968,0
65,100,0.23636363636363636,766,1,23,DL_Remix_Guitar,6,4,katyan_taturo,0.9983232617378235,1
65,100,0.18181818181818182,827,0,23,DL_Remix_Guitar,6,3,katyan_taturo,0.5462141036987305,1
57,100,0.4409090909090909,65,1,24,DL_Remix_Guitar,6,7,katyan_taturo,0.9990280866622925,1
55,100,0.2818181818181818,532,1,24,DL_Remix_Guitar,6,5,katyan_taturo,0.3703390955924988,0
53,100,0.22272727272727272,796,1,24,DL_Remix_Guitar,6,4,katyan_taturo,0.4561653137207031,0
55,100,0.12272727272727273,26,1,25,DL_Remix_Guitar,6,2,katyan_taturo,0.9988439083099365,1
55,100,0.5,150,0,25,DL_Remix_Guitar,6,8,katyan_taturo,0.13798752427101135,0
53,100,0.12272727272727273,378,0,25,DL_Remix_Guitar,6,2,katyan_taturo,0.16236495971679688,0
55,100,0.3,611,1,25,DL_Remix_Guitar,6,5,katyan_taturo,0.19105546176433563,0
55,100,0.43636363636363634,831,0,25,DL_Remix_Guitar,6,7,katyan_taturo,0.2619590163230896,0
60,100,0.18181818181818182,351,1,26,DL_Remix_Guitar,6,3,katyan_taturo,0.9988439083099365,1
53,100,0.1590909090909091,602,1,26,DL_Remix_Guitar,6,3,katyan_taturo,0.13798700273036957,0
57,100,0.16363636363636364,663,0,26,DL_Remix_Guitar,6,3,katyan_taturo,0.16237297654151917,0
57,100,0.5409090909090909,708,0,26,DL_Remix_Guitar,6,9,katyan_taturo,0.1910657435655594,0
57,100,0.759090909090909,858,0,26,DL_Remix_Guitar,6,12,katyan_taturo,0.2619648277759552,0
57,100,0.12272727272727273,223,1,27,DL_Remix_Guitar,6,2,katyan_taturo,0.9990094900131226,1
57,100,0.4818181818181818,285,0,27,DL_Remix_Guitar,6,8,katyan_taturo,0.2332332581281662,0
53,100,0.1409090909090909,453,0,27,DL_Remix_Guitar,6,2,katyan_taturo,0.2705918550491333,0
57,100,0.11818181818181818,581,0,27,DL_Remix_Guitar,6,2,katyan_taturo,0.35793110728263855,0
81,100,0.11818181818181818,295,1,28,DL_Remix_Guitar,6,2,katyan_taturo,0.9988439083099365,1
53,100,0.21818181818181817,581,1,28,DL_Remix_Guitar,6,3,katyan_taturo,0.1379805952310562,0
53,100,0.22272727272727272,663,0,28,DL_Remix_Guitar,6,4,katyan_taturo,0.1623598039150238,0
52,100,0.23636363636363636,787,0,28,DL_Remix_Guitar,6,4,katyan_taturo,0.19105589389801025,0
52,100,0.23636363636363636,876,0,28,DL_Remix_Guitar,6,4,katyan_taturo,0.2619660198688507,0
52,100,0.2,189,1,29,DL_Remix_Guitar,6,3,katyan_taturo,0.9990280866622925,1
59,100,0.11818181818181818,405,0,29,DL_Remix_Guitar,6,2,katyan_taturo,0.37034058570861816,0
62,100,0.1590909090909091,461,0,29,DL_Remix_Guitar,6,3,katyan_taturo,0.45616987347602844,0
53,100,0.5590909090909091,611,1,44,DL_Remix_Guitar,6,9,katyan_taturo,0.9792237281799316,1
55,100,0.1590909090909091,131,1,46,DL_Remix_Guitar,6,3,katyan_taturo,0.9990094900131226,1
55,100,0.3181818181818182,338,0,46,DL_Remix_Guitar,6,5,katyan_taturo,0.23323428630828857,0
57,100,0.8409090909090909,440,0,46,DL_Remix_Guitar,6,13,katyan_taturo,0.27058207988739014,0
60,100,0.11818181818181818,668,0,46,DL_Remix_Guitar,6,2,katyan_taturo,0.35792791843414307,0
52,100,0.13636363636363635,18,1,47,DL_Remix_Guitar,6,2,katyan_taturo,0.9983232617378235,1
60,100,0.11818181818181818,370,1,47,DL_Remix_Guitar,6,2,katyan_taturo,0.5462185144424438,1
62,100,0.1409090909090909,298,1,48,DL_Remix_Guitar,6,2,katyan_taturo,0.9990280866622925,1
52,100,0.1409090909090909,378,0,48,DL_Remix_Guitar,6,2,katyan_taturo,0.3703574538230896,0
57,100,0.8818181818181818,616,1,48,DL_Remix_Guitar,6,14,katyan_taturo,0.45616406202316284,0
62,100,0.18181818181818182,576,1,49,DL_Remix_Guitar,6,3,katyan_taturo,0.9983232617378235,1
53,100,0.18181818181818182,638,0,49,DL_Remix_Guitar,6,3,katyan_taturo,0.5462136268615723,1
59,100,0.1590909090909091,541,1,50,DL_Remix_Guitar,6,3,katyan_taturo,0.9792238473892212,1
57,100,0.21818181818181817,506,1,51,DL_Remix_Guitar,6,3,katyan_taturo,0.9983231425285339,1
57,100,0.12272727272727273,716,0,51,DL_Remix_Guitar,6,2,katyan_taturo,0.5462157726287842,1
59,100,0.2,738,1,52,DL_Remix_Guitar,6,3,katyan_taturo,0.9792238473892212,1
57,100,0.4636363636363636,311,1,53,DL_Remix_Guitar,6,7,katyan_taturo,0.9990280866622925,1
57,100,0.4,673,1,53,DL_Remix_Guitar,6,6,katyan_taturo,0.3703426122665405,0
57,100,0.17727272727272728,765,0,53,DL_Remix_Guitar,6,3,katyan_taturo,0.4561766982078552,0
64,100,0.37727272727272726,193,1,54,DL_Remix_Guitar,6,6,katyan_taturo,0.9792243838310242,1
67,100,0.5636363636363636,69,1,55,DL_Remix_Guitar,6,9,katyan_taturo,0.9986506104469299,1
55,100,0.1409090909090909,206,0,55,DL_Remix_Guitar,6,2,katyan_taturo,0.08798146992921829,0
57,100,0.8,276,0,55,DL_Remix_Guitar,6,13,katyan_taturo,0.09298322349786758,0
57,100,0.11818181818181818,458,0,55,DL_Remix_Guitar,6,2,katyan_taturo,0.10994891822338104,0
53,100,1.1181818181818182,568,0,55,DL_Remix_Guitar,6,15,katyan_taturo,0.12866802513599396,0
57,100,0.2590909090909091,848,1,55,DL_Remix_Guitar,6,4,katyan_taturo,0.1822136491537094,0
57,100,0.3,171,1,56,DL_Remix_Guitar,6,5,katyan_taturo,0.9988439083099365,1
52,100,0.1409090909090909,295,0,56,DL_Remix_Guitar,6,2,katyan_taturo,0.13798290491104126,0
52,100,0.4409090909090909,405,0,56,DL_Remix_Guitar,6,7,katyan_taturo,0.16236716508865356,0
52,100,0.7,628,0,56,DL_Remix_Guitar,6,11,katyan_taturo,0.19105930626392365,0
52,100,0.2409090909090909,836,0,56,DL_Remix_Guitar,6,4,katyan_taturo,0.2619747221469879,0
52,100,0.36363636363636365,224,1,57,DL_Remix_Guitar,6,6,katyan_taturo,0.9983232617378235,1
64,100,0.2590909090909091,364,0,57,DL_Remix_Guitar,6,4,katyan_taturo,0.5462189316749573,1
53,100,0.2772727272727273,206,1,58,DL_Remix_Guitar,6,4,katyan_taturo,0.9792236089706421,1
55,100,0.2409090909090909,66,1,59,DL_Remix_Guitar,6,4,katyan_taturo,0.9990094900131226,1
52,100,0.17727272727272728,568,1,59,DL_Remix_Guitar,6,3,katyan_taturo,0.2332266867160797,0
57,100,0.11818181818181818,735,0,59,DL_Remix_Guitar,6,2,katyan_taturo,0.27057355642318726,0
60,100,0.17727272727272728,875,0,59,DL_Remix_Guitar,6,3,katyan_taturo,0.3579277992248535,0
57,100,0.21818181818181817,105,1,60,DL_Remix_Guitar,6,3,katyan_taturo,0.9988439083099365,1
57,100,0.12272727272727273,179,0,60,DL_Remix_Guitar,6,2,katyan_taturo,0.13798746466636658,0
60,100,0.3,396,0,60,DL_Remix_Guitar,6,5,katyan_taturo,0.1623707413673401,0
64,100,0.13636363636363635,633,1,60,DL_Remix_Guitar,6,2,katyan_taturo,0.19106930494308472,0
57,100,1.040909090909091,716,0,60,DL_Remix_Guitar,6,15,katyan_taturo,0.2619629502296448,0
60,100,0.12272727272727273,158,1,61,DL_Remix_Guitar,6,2,katyan_taturo,0.9983232617378235,1
57,100,1.440909090909091,311,0,61,DL_Remix_Guitar,6,15,katyan_taturo,0.5462096929550171,1
57,100,0.2,584,1,62,DL_Remix_Guitar,6,3,katyan_taturo,0.9792242646217346,1
57,100,0.2409090909090909,8,1,63,DL_Remix_Guitar,6,4,katyan_taturo,0.9988439083099365,1
57,100,0.1590909090909091,273,1,63,DL_Remix_Guitar,6,3,katyan_taturo,0.13798344135284424,0
57,100,0.1590909090909091,364,0,63,DL_Remix_Guitar,6,3,katyan_taturo,0.16236472129821777,0
57,100,0.12272727272727273,453,0,63,DL_Remix_Guitar,6,2,katyan_taturo,0.1910569965839386,0
57,100,0.1409090909090909,515,0,63,DL_Remix_Guitar,6,2,katyan_taturo,0.26197025179862976,0
55,100,0.3,546,1,65,DL_Remix_Guitar,6,5,katyan_taturo,0.9792243838310242,1
52,100,0.9409090909090909,307,1,66,DL_Remix_Guitar,6,15,katyan_taturo,0.9990280866622925,1
52,100,0.2772727272727273,633,1,66,DL_Remix_Guitar,6,4,katyan_taturo,0.3703404366970062,0
52,100,0.33636363636363636,743,0,66,DL_Remix_Guitar,6,5,katyan_taturo,0.45616886019706726,0
62,100,0.5409090909090909,9,1,67,DL_Remix_Guitar,6,9,katyan_taturo,0.9990094900131226,1
59,100,0.22272727272727272,166,0,67,DL_Remix_Guitar,6,4,katyan_taturo,0.23323078453540802,0
60,100,0.2409090909090909,550,1,67,DL_Remix_Guitar,6,4,katyan_taturo,0.27058321237564087,0
57,100,0.3,813,1,67,DL_Remix_Guitar,6,5,katyan_taturo,0.35793229937553406,0
57,100,0.2,96,1,68,DL_Remix_Guitar,6,3,katyan_taturo,0.9990094900131226,1
57,100,0.12272727272727273,189,0,68,DL_Remix_Guitar,6,2,katyan_taturo,0.2332378476858139,0
57,100,0.3,470,1,68,DL_Remix_Guitar,6,5,katyan_taturo,0.27058663964271545,0
57,100,0.38181818181818183,606,0,68,DL_Remix_Guitar,6,6,katyan_taturo,0.3579382598400116,0
57,100,0.13636363636363635,347,1,69,DL_Remix_Guitar,6,2,katyan_taturo,0.9990280866622925,1
57,100,0.11818181818181818,462,0,69,DL_Remix_Guitar,6,2,katyan_taturo,0.3703404366970062,0
64,100,0.12272727272727273,540,0,69,DL_Remix_Guitar,6,2,katyan_taturo,0.45617520809173584,0
57,100,0.1590909090909091,462,1,70,DL_Remix_Guitar,6,3,katyan_taturo,0.9792238473892212,1
58,100,0.5636363636363636,157,1,71,DL_Remix_Guitar,6,9,katyan_taturo,0.9792241454124451,1
57,100,0.1590909090909091,30,1,72,DL_Remix_Guitar,6,3,katyan_taturo,0.9983232617378235,1
57,100,0.11818181818181818,150,0,72,DL_Remix_Guitar,6,2,katyan_taturo,0.5462225675582886,1
64,100,0.1,343,1,73,DL_Remix_Guitar,6,2,katyan_taturo,0.9990094900131226,1
64,100,0.4,377,0,73,DL_Remix_Guitar,6,6,katyan_taturo,0.2332324981689453,0
52,100,0.1,606,0,73,DL_Remix_Guitar,6,2,katyan_taturo,0.27058854699134827,0
57,100,0.6590909090909091,660,0,73,DL_Remix_Guitar,6,11,katyan_taturo,0.35792553424835205,0
56,100,0.2,53,1,74,DL_Remix_Guitar,6,3,katyan_taturo,0.9988439083099365,1
56,100,1.2227272727272727,100,0,74,DL_Remix_Guitar,6,15,katyan_taturo,0.1379779577255249,0
52,100,0.2409090909090909,383,1,74,DL_Remix_Guitar,6,4,katyan_taturo,0.1623651683330536,0
57,100,0.11818181818181818,483,0,74,DL_Remix_Guitar,6,2,katyan_taturo,0.19105760753154755,0
57,100,0.22272727272727272,519,0,74,DL_Remix_Guitar,6,4,katyan_taturo,0.26196253299713135,0
57,100,0.8,96,1,75,DL_Remix_Guitar,6,13,katyan_taturo,0.9990094900131226,1
57,100,0.2818181818181818,352,1,75,DL_Remix_Guitar,6,5,katyan_taturo,0.23323757946491241,0
57,100,0.2,417,0,75,DL_Remix_Guitar,6,3,katyan_taturo,0.2705953121185303,0
55,100,0.3,839,1,75,DL_Remix_Guitar,6,5,katyan_taturo,0.3579350709915161,0
62,100,0.6818181818181818,773,1,76,DL_Remix_Guitar,6,11,katyan_taturo,0.979223906993866,1
57,100,0.5818181818181818,263,1,77,DL_Remix_Guitar,6,9,katyan_taturo,0.9983231425285339,1
57,100,0.6,752,1,77,DL_Remix_Guitar,6,10,katyan_taturo,0.5462090373039246,1
57,100,0.2590909090909091,404,1,78,DL_Remix_Guitar,6,4,katyan_taturo,0.9792238473892212,1
53,100,0.12272727272727273,466,1,79,DL_Remix_Guitar,6,2,katyan_taturo,0.9983232617378235,1
57,100,0.12272727272727273,553,0,79,DL_Remix_Guitar,6,2,katyan_taturo,0.5462163090705872,1
57,100,0.4590909090909091,56,1,80,DL_Remix_Guitar,6,7,katyan_taturo,0.9983231425285339,1
57,100,0.5,550,1,80,DL_Remix_Guitar,6,8,katyan_taturo,0.5462126731872559,1
57,100,0.35909090909090907,633,1,81,DL_Remix_Guitar,6,6,katyan_taturo,0.9792240262031555,1
57,100,0.35909090909090907,30,1,82,DL_Remix_Guitar,6,6,katyan_taturo,0.9792240262031555,1
58,100,0.18181818181818182,157,1,83,DL_Remix_Guitar,6,3,katyan_taturo,0.9990094900131226,1
58,100,0.8772727272727273,326,0,83,DL_Remix_Guitar,6,14,katyan_taturo,0.23322845995426178,0
63,100,0.33636363636363636,567,1,83,DL_Remix_Guitar,6,5,katyan_taturo,0.2705819010734558,0
52,100,0.17727272727272728,844,1,83,DL_Remix_Guitar,6,3,katyan_taturo,0.35792839527130127,0
52,100,0.38181818181818183,396,1,84,DL_Remix_Guitar,6,6,katyan_taturo,0.9792242646217346,1
62,100,0.2818181818181818,35,1,85,DL_Remix_Guitar,6,5,katyan_taturo,0.9990280866622925,1
62,100,0.35909090909090907,150,0,85,DL_Remix_Guitar,6,6,katyan_taturo,0.3703465163707733,0
59,100,0.2772727272727273,480,1,85,DL_Remix_Guitar,6,4,katyan_taturo,0.45617997646331787,0
57,100,0.17727272727272728,184,1,86,DL_Remix_Guitar,6,3,katyan_taturo,0.9983232617378235,1
57,100,0.3409090909090909,229,0,86,DL_Remix_Guitar,6,5,katyan_taturo,0.5462176203727722,1
55,100,0.16363636363636364,817,1,87,DL_Remix_Guitar,6,3,katyan_taturo,0.9792243838310242,1
55,100,0.1,43,1,88,DL_Remix_Guitar,6,2,katyan_taturo,0.9983232617378235,1
55,100,0.1,69,0,88,DL_Remix_Guitar,6,2,katyan_taturo,0.5462111234664917,1
56,100,0.1,356,1,89,DL_Remix_Guitar,6,2,katyan_taturo,0.9983231425285339,1
57,100,0.2590909090909091,743,1,89,DL_Remix_Guitar,6,4,katyan_taturo,0.5462217330932617,1
57,100,0.1409090909090909,22,1,90,DL_Remix_Guitar,6,2,katyan_taturo,0.9990094900131226,1
57,100,0.21818181818181817,216,0,90,DL_Remix_Guitar,6,3,katyan_taturo,0.2332366555929184,0
55,100,0.21818181818181817,766,1,90,DL_Remix_Guitar,6,3,katyan_taturo,0.2705897390842438,0
55,100,0.4,817,0,90,DL_Remix_Guitar,6,6,katyan_taturo,0.35793018341064453,0
55,100,0.22272727272727272,862,1,91,DL_Remix_Guitar,6,4,katyan_taturo,0.9792245030403137,1
55,100,0.2409090909090909,66,1,92,DL_Remix_Guitar,6,4,katyan_taturo,0.9792243838310242,1
57,100,0.8,83,1,97,DL_Remix_Guitar,6,13,katyan_taturo,0.9990094900131226,1
52,100,0.2,707,1,97,DL_Remix_Guitar,6,3,katyan_taturo,0.2332308441400528,0
52,100,0.13636363636363635,766,0,97,DL_Remix_Guitar,6,2,katyan_taturo,0.2705863416194916,0
52,100,0.16363636363636364,839,0,97,DL_Remix_Guitar,6,3,katyan_taturo,0.3579309582710266,0
57,100,3.3,462,1,99,DL_Remix_Guitar,6,15,katyan_taturo,0.9792203903198242,1
55,100,0.2590909090909091,483,1,101,DL_Remix_Guitar,6,4,katyan_taturo,0.9983232617378235,1
67,100,0.4818181818181818,716,1,101,DL_Remix_Guitar,6,8,katyan_taturo,0.546211302280426,1
67,100,0.4,857,1,102,DL_Remix_Guitar,6,6,katyan_taturo,0.9792236089706421,1
67,100,0.1,220,1,103,DL_Remix_Guitar,6,2,katyan_taturo,0.9990280866622925,1
67,100,0.1,276,0,103,DL_Remix_Guitar,6,2,katyan_taturo,0.37034064531326294,0
60,100,0.4818181818181818,399,0,103,DL_Remix_Guitar,6,8,katyan_taturo,0.4561667740345001,0
52,100,0.1590909090909091,273,1,104,DL_Remix_Guitar,6,3,katyan_taturo,0.9990280866622925,1
52,100,0.22272727272727272,540,1,104,DL_Remix_Guitar,6,4,katyan_taturo,0.3703470528125763,0
53,100,0.7772727272727272,756,0,104,DL_Remix_Guitar,6,12,katyan_taturo,0.45616796612739563,0
60,100,0.1,136,1,105,DL_Remix_Guitar,6,2,katyan_taturo,0.9988439083099365,1
53,100,0.4590909090909091,233,0,105,DL_Remix_Guitar,6,7,katyan_taturo,0.1379808634519577,0
53,100,0.5181818181818182,457,0,105,DL_Remix_Guitar,6,8,katyan_taturo,0.1623660922050476,0
53,100,0.5181818181818182,590,0,105,DL_Remix_Guitar,6,8,katyan_taturo,0.19105137884616852,0
52,100,0.11818181818181818,857,1,105,DL_Remix_Guitar,6,2,katyan_taturo,0.26196566224098206,0
52,100,0.3,66,1,106,DL_Remix_Guitar,6,5,katyan_taturo,0.9990280866622925,1
52,100,0.23636363636363636,567,1,106,DL_Remix_Guitar,6,4,katyan_taturo,0.37034207582473755,0
55,100,0.17727272727272728,853,1,106,DL_Remix_Guitar,6,3,katyan_taturo,0.4561709463596344,0
55,100,0.5181818181818182,404,1,107,DL_Remix_Guitar,6,8,katyan_taturo,0.9983232617378235,1
55,100,0.1,523,0,107,DL_Remix_Guitar,6,2,katyan_taturo,0.5462127923965454,1
57,100,0.12272727272727273,386,1,108,DL_Remix_Guitar,6,2,katyan_taturo,0.9983232617378235,1
55,100,0.6,567,0,108,DL_Remix_Guitar,6,10,katyan_taturo,0.5462194681167603,1
55,100,0.5409090909090909,3,1,109,DL_Remix_Guitar,6,9,katyan_taturo,0.9990094900131226,1
55,100,0.2636363636363636,136,0,109,DL_Remix_Guitar,6,4,katyan_taturo,0.23322995007038116,0
55,100,0.18181818181818182,519,1,109,DL_Remix_Guitar,6,3,katyan_taturo,0.27058106660842896,0
55,100,0.11818181818181818,590,0,109,DL_Remix_Guitar,6,2,katyan_taturo,0.35791805386543274,0
55,100,0.18181818181818182,87,1,110,DL_Remix_Guitar,6,3,katyan_taturo,0.9792243838310242,1
55,100,0.12272727272727273,399,1,111,DL_Remix_Guitar,6,2,katyan_taturo,0.9990280866622925,1
55,100,0.21818181818181817,436,0,111,DL_Remix_Guitar,6,3,katyan_taturo,0.37033945322036743,0
67,100,0.11818181818181818,656,0,111,DL_Remix_Guitar,6,2,katyan_taturo,0.4561673700809479,0
56,100,0.1,426,1,112,DL_Remix_Guitar,6,2,katyan_taturo,0.9983231425285339,1
57,100,0.16363636363636364,532,0,112,DL_Remix_Guitar,6,3,katyan_taturo,0.5462172627449036,1
55,100,0.2409090909090909,642,1,113,DL_Remix_Guitar,6,4,katyan_taturo,0.9983232617378235,1
67,100,0.1409090909090909,857,0,113,DL_Remix_Guitar,6,2,katyan_taturo,0.5462151765823364,1
55,100,0.1590909090909091,9,1,114,DL_Remix_Guitar,6,3,katyan_taturo,0.9990280866622925,1
55,100,0.16363636363636364,47,0,114,DL_Remix_Guitar,6,3,katyan_taturo,0.3703359365463257,0
55,100,0.1409090909090909,179,0,114,DL_Remix_Guitar,6,2,katyan_taturo,0.456169068813324,0
53,100,0.35909090909090907,17,1,115,DL_Remix_Guitar,6,6,katyan_taturo,0.9988439083099365,1
53,100,0.1590909090909091,282,1,115,DL_Remix_Guitar,6,3,katyan_taturo,0.13798034191131592,0
53,100,0.5818181818181818,320,0,115,DL_Remix_Guitar,6,9,katyan_taturo,0.1623671054840088,0
67,100,0.1,453,0,115,DL_Remix_Guitar,6,2,katyan_taturo,0.19105494022369385,0
60,100,0.5590909090909091,536,0,115,DL_Remix_Guitar,6,9,katyan_taturo,0.2619667649269104,0
67,100,0.2772727272727273,163,1,116,DL_Remix_Guitar,6,4,katyan_taturo,0.9990280866622925,1
55,100,0.1590909090909091,320,0,116,DL_Remix_Guitar,6,3,katyan_taturo,0.3703482151031494,0
67,100,0.1,540,0,116,DL_Remix_Guitar,6,2,katyan_taturo,0.45616668462753296,0
59,100,0.3181818181818182,713,1,117,DL_Remix_Guitar,6,5,katyan_taturo,0.9792241454124451,1
53,100,0.6363636363636364,83,1,118,DL_Remix_Guitar,6,10,katyan_taturo,0.9986506104469299,1
53,100,0.5409090909090909,299,0,118,DL_Remix_Guitar,6,9,katyan_taturo,0.08797966688871384,0
53,100,0.1409090909090909,426,0,118,DL_Remix_Guitar,6,2,katyan_taturo,0.09298567473888397,0
55,100,0.4,572,0,118,DL_Remix_Guitar,6,6,katyan_taturo,0.10994813591241837,0
67,100,0.1409090909090909,703,0,118,DL_Remix_Guitar,6,2,katyan_taturo,0.12866999208927155,0
53,100,0.7636363636363637,796,0,118,DL_Remix_Guitar,6,12,katyan_taturo,0.182210773229599,0
53,100,0.35909090909090907,233,1,119,DL_Remix_Guitar,6,6,katyan_taturo,0.9986506104469299,1
53,100,0.18181818181818182,330,0,119,DL_Remix_Guitar,6,3,katyan_taturo,0.08797857910394669,0
53,100,0.1,466,0,119,DL_Remix_Guitar,6,2,katyan_taturo,0.09298378229141235,0
53,100,0.4636363636363636,576,0,119,DL_Remix_Guitar,6,7,katyan_taturo,0.10994841903448105,0
53,100,0.3,729,0,119,DL_Remix_Guitar,6,5,katyan_taturo,0.1286698877811432,0
67,100,0.1590909090909091,800,0,119,DL_Remix_Guitar,6,3,katyan_taturo,0.18221703171730042,0
53,100,0.1409090909090909,26,1,120,DL_Remix_Guitar,6,2,katyan_taturo,0.9990280866622925,1
52,100,0.3,722,1,120,DL_Remix_Guitar,6,5,katyan_taturo,0.37034130096435547,0
52,100,0.3,792,0,120,DL_Remix_Guitar,6,5,katyan_taturo,0.45617085695266724,0
52,100,0.2818181818181818,110,1,121,DL_Remix_Guitar,6,5,katyan_taturo,0.9983232617378235,1
55,100,0.2409090909090909,836,1,121,DL_Remix_Guitar,6,4,katyan_taturo,0.5462144017219543,1
55,100,0.2772727272727273,426,1,122,DL_Remix_Guitar,6,4,katyan_taturo,0.9792247414588928,1
57,100,0.11818181818181818,638,1,0,_Guitar,6,2,ninjyouupbeat+,0.9792241454124451,1
52,100,0.32272727272727275,122,1,5,_Guitar,6,5,ninjyouupbeat+,0.9984879493713379,1
52,100,0.36363636363636365,201,0,5,_Guitar,6,6,ninjyouupbeat+,0.06335417181253433,0
53,100,0.1,373,0,5,_Guitar,6,2,ninjyouupbeat+,0.058287858963012695,0
52,100,0.2818181818181818,396,0,5,_Guitar,6,5,ninjyouupbeat+,0.06136002019047737,0
52,100,0.3409090909090909,475,0,5,_Guitar,6,5,ninjyouupbeat+,0.07167992740869522,0
52,100,0.3,568,0,5,_Guitar,6,5,ninjyouupbeat+,0.08473281562328339,0
52,100,0.3,647,0,5,_Guitar,6,5,ninjyouupbeat+,0.1263500601053238,0
59,100,0.5590909090909091,79,1,6,_Guitar,6,9,ninjyouupbeat+,0.9990094900131226,1
59,100,0.1590909090909091,276,0,6,_Guitar,6,3,ninjyouupbeat+,0.23322847485542297,0
52,100,0.8181818181818182,634,1,6,_Guitar,6,13,ninjyouupbeat+,0.27057352662086487,0
52,100,0.2772727272727273,823,0,6,_Guitar,6,4,ninjyouupbeat+,0.35793250799179077,0
52,100,0.4409090909090909,12,1,7,_Guitar,6,7,ninjyouupbeat+,0.9988439083099365,1
52,100,1.1409090909090909,118,0,7,_Guitar,6,15,ninjyouupbeat+,0.13798239827156067,0
52,100,1.459090909090909,383,1,7,_Guitar,6,15,ninjyouupbeat+,0.16236424446105957,0
52,100,0.4409090909090909,726,1,7,_Guitar,6,7,ninjyouupbeat+,0.19106443226337433,0
52,100,0.7,836,0,7,_Guitar,6,11,ninjyouupbeat+,0.2619740962982178,0
52,100,0.1409090909090909,113,1,8,_Guitar,6,2,ninjyouupbeat+,0.9792248606681824,1
59,100,0.16363636363636364,70,1,9,_Guitar,6,3,ninjyouupbeat+,0.979223906993866,1
59,100,0.11818181818181818,44,1,12,_Guitar,6,2,ninjyouupbeat+,0.9792243838310242,1
57,100,0.37727272727272726,53,1,13,_Guitar,6,6,ninjyouupbeat+,0.9990094900131226,1
57,100,0.22272727272727272,409,1,13,_Guitar,6,4,ninjyouupbeat+,0.23322606086730957,0
59,100,0.11818181818181818,766,1,13,_Guitar,6,2,ninjyouupbeat+,0.2705831229686737,0
59,100,0.2409090909090909,840,0,13,_Guitar,6,4,ninjyouupbeat+,0.35792872309684753,0
64,100,0.11818181818181818,53,1,14,_Guitar,6,2,ninjyouupbeat+,0.9984879493713379,1
59,100,0.1,92,0,14,_Guitar,6,2,ninjyouupbeat+,0.06335407495498657,0
59,100,0.4,285,0,14,_Guitar,6,6,ninjyouupbeat+,0.058288514614105225,0
64,100,0.2409090909090909,383,0,14,_Guitar,6,4,ninjyouupbeat+,0.06136098504066467,0
64,100,0.17727272727272728,536,0,14,_Guitar,6,3,ninjyouupbeat+,0.07168332487344742,0
64,100,0.6227272727272727,598,0,14,_Guitar,6,10,ninjyouupbeat+,0.08473548293113708,0
52,100,0.21818181818181817,823,0,14,_Guitar,6,3,ninjyouupbeat+,0.12635338306427002,0
52,100,0.1,56,1,15,_Guitar,6,2,ninjyouupbeat+,0.9986506104469299,1
52,100,0.3,132,0,15,_Guitar,6,5,ninjyouupbeat+,0.08797876536846161,0
64,100,0.8818181818181818,197,0,15,_Guitar,6,14,ninjyouupbeat+,0.09298243373632431,0
59,100,0.2,395,0,15,_Guitar,6,3,ninjyouupbeat+,0.1099499985575676,0
59,100,0.11818181818181818,493,0,15,_Guitar,6,2,ninjyouupbeat+,0.12867090106010437,0
64,100,0.18181818181818182,553,0,15,_Guitar,6,3,ninjyouupbeat+,0.18222300708293915,0
59,100,0.2,123,1,16,_Guitar,6,3,ninjyouupbeat+,0.9988439083099365,1
59,100,0.2409090909090909,175,0,16,_Guitar,6,4,ninjyouupbeat+,0.13798125088214874,0
52,100,0.2,326,0,16,_Guitar,6,3,ninjyouupbeat+,0.16235965490341187,0
64,100,0.1,413,0,16,_Guitar,6,2,ninjyouupbeat+,0.19105586409568787,0
64,100,0.12272727272727273,729,1,16,_Guitar,6,2,ninjyouupbeat+,0.2619696855545044,0
59,100,0.1,303,1,17,_Guitar,6,2,ninjyouupbeat+,0.9986506104469299,1
59,100,0.18181818181818182,333,0,17,_Guitar,6,3,ninjyouupbeat+,0.0879775807261467,0
59,100,0.22272727272727272,519,0,17,_Guitar,6,4,ninjyouupbeat+,0.0929839015007019,0
59,100,0.4,646,0,17,_Guitar,6,6,ninjyouupbeat+,0.10994534194469452,0
59,100,0.18181818181818182,739,0,17,_Guitar,6,3,ninjyouupbeat+,0.12867355346679688,0
59,100,0.21818181818181817,845,0,17,_Guitar,6,3,ninjyouupbeat+,0.18221454322338104,0
64,100,0.12272727272727273,113,1,18,_Guitar,6,2,ninjyouupbeat+,0.9984880685806274,1
52,100,0.2590909090909091,140,0,18,_Guitar,6,4,ninjyouupbeat+,0.06335295736789703,0
52,100,0.11818181818181818,220,0,18,_Guitar,6,2,ninjyouupbeat+,0.058289144188165665,0
52,100,0.35909090909090907,308,0,18,_Guitar,6,6,ninjyouupbeat+,0.0613623708486557,0
52,100,0.17727272727272728,413,0,18,_Guitar,6,3,ninjyouupbeat+,0.07168509066104889,0
64,100,0.2,752,1,18,_Guitar,6,3,ninjyouupbeat+,0.08473721891641617,0
61,100,0.1409090909090909,870,0,18,_Guitar,6,2,ninjyouupbeat+,0.1263534426689148,0
64,100,0.4,26,1,19,_Guitar,6,6,ninjyouupbeat+,0.9984879493713379,1
64,100,0.1590909090909091,140,0,19,_Guitar,6,3,ninjyouupbeat+,0.06335336714982986,0
64,100,0.32272727272727275,210,0,19,_Guitar,6,5,ninjyouupbeat+,0.058289650827646255,0
59,100,0.1,351,0,19,_Guitar,6,2,ninjyouupbeat+,0.06136191636323929,0
52,100,0.21818181818181817,505,0,19,_Guitar,6,3,ninjyouupbeat+,0.07168474793434143,0
64,100,0.35909090909090907,563,0,19,_Guitar,6,6,ninjyouupbeat+,0.08473721891641617,0
57,100,0.2,766,0,19,_Guitar,6,3,ninjyouupbeat+,0.12635496258735657,0
57,100,0.17727272727272728,30,1,20,_Guitar,6,3,ninjyouupbeat+,0.9988439083099365,1
64,100,0.1409090909090909,113,0,20,_Guitar,6,2,ninjyouupbeat+,0.13798294961452484,0
59,100,0.11818181818181818,162,0,20,_Guitar,6,2,ninjyouupbeat+,0.16236597299575806,0
59,100,0.11818181818181818,206,0,20,_Guitar,6,2,ninjyouupbeat+,0.19106101989746094,0
59,100,0.3181818181818182,492,1,20,_Guitar,6,5,ninjyouupbeat+,0.26196858286857605,0
52,100,0.3,136,1,21,_Guitar,6,5,ninjyouupbeat+,0.9986506104469299,1
64,100,0.11818181818181818,241,0,21,_Guitar,6,2,ninjyouupbeat+,0.08798088133335114,0
59,100,0.13636363636363635,326,0,21,_Guitar,6,2,ninjyouupbeat+,0.09298349916934967,0
64,100,0.2409090909090909,364,0,21,_Guitar,6,4,ninjyouupbeat+,0.10994919389486313,0
52,100,0.38181818181818183,466,0,21,_Guitar,6,6,ninjyouupbeat+,0.1286713033914566,0
64,100,0.2772727272727273,766,1,21,_Guitar,6,4,ninjyouupbeat+,0.18222221732139587,0
52,100,0.22272727272727272,752,1,22,_Guitar,6,4,ninjyouupbeat+,0.9990280866622925,1
64,100,0.1409090909090909,801,0,22,_Guitar,6,2,ninjyouupbeat+,0.3703426122665405,0
64,100,0.3409090909090909,839,0,22,_Guitar,6,5,ninjyouupbeat+,0.45617184042930603,0
64,100,0.1409090909090909,382,1,23,_Guitar,6,2,ninjyouupbeat+,0.9984880685806274,1
64,100,0.21818181818181817,436,0,23,_Guitar,6,3,ninjyouupbeat+,0.06335380673408508,0
64,100,0.1409090909090909,571,0,23,_Guitar,6,2,ninjyouupbeat+,0.058289751410484314,0
64,100,0.11818181818181818,615,0,23,_Guitar,6,2,ninjyouupbeat+,0.06136464700102806,0
52,100,0.35909090909090907,681,0,23,_Guitar,6,6,ninjyouupbeat+,0.07168621569871902,0
52,100,0.1409090909090909,791,0,23,_Guitar,6,2,ninjyouupbeat+,0.08474113792181015,0
59,100,0.18181818181818182,839,0,23,_Guitar,6,3,ninjyouupbeat+,0.12635748088359833,0
64,100,0.11818181818181818,40,1,24,_Guitar,6,2,ninjyouupbeat+,0.9990094900131226,1
64,100,0.1409090909090909,69,0,24,_Guitar,6,2,ninjyouupbeat+,0.2332318276166916,0
64,100,0.1409090909090909,233,0,24,_Guitar,6,2,ninjyouupbeat+,0.27058929204940796,0
57,100,0.22272727272727272,364,0,24,_Guitar,6,4,ninjyouupbeat+,0.3579312860965729,0
59,100,0.2590909090909091,233,1,25,_Guitar,6,4,ninjyouupbeat+,0.9990094900131226,1
59,100,0.2,378,0,25,_Guitar,6,3,ninjyouupbeat+,0.2332272082567215,0
59,100,0.3409090909090909,466,0,25,_Guitar,6,5,ninjyouupbeat+,0.2705855667591095,0
71,100,0.1,839,1,25,_Guitar,6,2,ninjyouupbeat+,0.35792556405067444,0
52,100,0.11818181818181818,61,1,27,_Guitar,6,2,ninjyouupbeat+,0.9983004927635193,1
52,100,0.3,299,1,27,_Guitar,6,5,ninjyouupbeat+,0.04466131329536438,0
59,100,0.13636363636363635,391,0,27,_Guitar,6,2,ninjyouupbeat+,0.03337101638317108,0
59,100,0.2590909090909091,430,0,27,_Guitar,6,4,ninjyouupbeat+,0.02694729156792164,0
59,100,0.18181818181818182,497,0,27,_Guitar,6,3,ninjyouupbeat+,0.024083536118268967,0
59,100,0.1,584,0,27,_Guitar,6,2,ninjyouupbeat+,0.02497231401503086,0
59,100,0.1409090909090909,691,0,27,_Guitar,6,2,ninjyouupbeat+,0.030647099018096924,0
64,100,0.1590909090909091,756,0,27,_Guitar,6,3,ninjyouupbeat+,0.04136916995048523,0
64,100,0.2,853,0,27,_Guitar,6,3,ninjyouupbeat+,0.07206999510526657,0
59,100,0.21818181818181817,131,1,28,_Guitar,6,3,ninjyouupbeat+,0.9984879493713379,1
59,100,0.1409090909090909,289,0,28,_Guitar,6,2,ninjyouupbeat+,0.06335251033306122,0
59,100,0.4,378,0,28,_Guitar,6,6,ninjyouupbeat+,0.058286894112825394,0
59,100,0.5,474,0,28,_Guitar,6,8,ninjyouupbeat+,0.06135907396674156,0
59,100,0.1590909090909091,590,0,28,_Guitar,6,3,ninjyouupbeat+,0.07167896628379822,0
59,100,0.3,656,0,28,_Guitar,6,5,ninjyouupbeat+,0.08473179489374161,0
64,100,0.2636363636363636,729,0,28,_Guitar,6,4,ninjyouupbeat+,0.12634949386119843,0
59,100,0.2,57,1,29,_Guitar,6,3,ninjyouupbeat+,0.9990280866622925,1
59,100,0.41818181818181815,127,0,29,_Guitar,6,7,ninjyouupbeat+,0.3703352212905884,0
59,100,0.1409090909090909,818,1,29,_Guitar,6,2,ninjyouupbeat+,0.45617055892944336,0
61,100,0.2409090909090909,223,1,30,_Guitar,6,4,ninjyouupbeat+,0.9988439083099365,1
64,100,0.2409090909090909,576,1,30,_Guitar,6,4,ninjyouupbeat+,0.13798481225967407,0
59,100,0.17727272727272728,721,0,30,_Guitar,6,3,ninjyouupbeat+,0.1623668521642685,0
59,100,0.1409090909090909,796,0,30,_Guitar,6,2,ninjyouupbeat+,0.19105857610702515,0
54,100,0.5181818181818182,831,0,30,_Guitar,6,8,ninjyouupbeat+,0.2619664967060089,0
59,100,0.4590909090909091,96,1,31,_Guitar,6,7,ninjyouupbeat+,0.9983231425285339,1
64,100,0.11818181818181818,440,1,31,_Guitar,6,2,ninjyouupbeat+,0.5462221503257751,1
57,100,0.2409090909090909,123,1,32,_Guitar,6,4,ninjyouupbeat+,0.9983231425285339,1
59,100,0.1590909090909091,590,1,32,_Guitar,6,3,ninjyouupbeat+,0.546218991279602,1
64,100,0.11818181818181818,18,1,33,_Guitar,6,2,ninjyouupbeat+,0.9990094900131226,1
57,100,0.1590909090909091,233,0,33,_Guitar,6,3,ninjyouupbeat+,0.23322902619838715,0
52,100,0.3,303,0,33,_Guitar,6,5,ninjyouupbeat+,0.27058181166648865,0
64,100,0.2409090909090909,664,1,33,_Guitar,6,4,ninjyouupbeat+,0.3579404652118683,0
59,100,0.1590909090909091,330,1,34,_Guitar,6,3,ninjyouupbeat+,0.9990094900131226,1
59,100,0.3409090909090909,471,0,34,_Guitar,6,5,ninjyouupbeat+,0.2332293838262558,0
59,100,0.12272727272727273,686,0,34,_Guitar,6,2,ninjyouupbeat+,0.2705857753753662,0
66,100,0.1409090909090909,783,0,34,_Guitar,6,2,ninjyouupbeat+,0.35792985558509827,0
59,100,0.18181818181818182,386,1,35,_Guitar,6,3,ninjyouupbeat+,0.9792242646217346,1
64,100,0.22272727272727272,201,1,36,_Guitar,6,4,ninjyouupbeat+,0.9990280866622925,1
64,100,0.12272727272727273,783,1,36,_Guitar,6,2,ninjyouupbeat+,0.3703412711620331,0
57,100,0.2818181818181818,836,0,36,_Guitar,6,5,ninjyouupbeat+,0.4561690092086792,0
64,100,0.2590909090909091,761,1,37,_Guitar,6,4,ninjyouupbeat+,0.9983231425285339,1
52,100,0.3181818181818182,831,0,37,_Guitar,6,5,ninjyouupbeat+,0.5462165474891663,1
52,100,0.13636363636363635,238,1,38,_Guitar,6,2,ninjyouupbeat+,0.9792245030403137,1
64,100,0.35909090909090907,383,1,39,_Guitar,6,6,ninjyouupbeat+,0.9990280866622925,1
52,100,0.17727272727272728,646,1,39,_Guitar,6,3,ninjyouupbeat+,0.37034064531326294,0
52,100,0.12272727272727273,826,0,39,_Guitar,6,2,ninjyouupbeat+,0.45617571473121643,0
52,100,0.2,206,1,40,_Guitar,6,3,ninjyouupbeat+,0.9990280866622925,1
52,100,0.12272727272727273,474,1,40,_Guitar,6,2,ninjyouupbeat+,0.37033525109291077,0
52,100,0.13636363636363635,743,1,40,_Guitar,6,2,ninjyouupbeat+,0.45617303252220154,0
59,100,0.16363636363636364,554,1,42,_Guitar,6,3,ninjyouupbeat+,0.9792238473892212,1
61,100,0.11818181818181818,110,1,43,_Guitar,6,2,ninjyouupbeat+,0.9792225360870361,1
61,100,0.2,114,1,44,_Guitar,6,3,ninjyouupbeat+,0.9986506104469299,1
61,100,0.33636363636363636,171,0,44,_Guitar,6,5,ninjyouupbeat+,0.0879831314086914,0
57,100,0.21818181818181817,330,0,44,_Guitar,6,3,ninjyouupbeat+,0.09298893064260483,0
57,100,0.42272727272727273,584,1,44,_Guitar,6,7,ninjyouupbeat+,0.10995831340551376,0
57,100,0.11818181818181818,691,0,44,_Guitar,6,2,ninjyouupbeat+,0.12868307530879974,0
57,100,0.12272727272727273,738,0,44,_Guitar,6,2,ninjyouupbeat+,0.1822313368320465,0
57,100,0.2,408,1,45,_Guitar,6,3,ninjyouupbeat+,0.9983232617378235,1
57,100,0.2818181818181818,576,0,45,_Guitar,6,5,ninjyouupbeat+,0.5462181568145752,1
64,100,0.35909090909090907,364,1,46,_Guitar,6,6,ninjyouupbeat+,0.9990280866622925,1
59,100,0.2772727272727273,646,1,46,_Guitar,6,4,ninjyouupbeat+,0.3703386187553406,0
59,100,0.1590909090909091,845,0,46,_Guitar,6,3,ninjyouupbeat+,0.45616650581359863,0
59,100,0.16363636363636364,91,1,47,_Guitar,6,3,ninjyouupbeat+,0.9990280866622925,1
59,100,0.4,466,1,47,_Guitar,6,6,ninjyouupbeat+,0.3703496754169464,0
68,100,0.3181818181818182,823,1,47,_Guitar,6,5,ninjyouupbeat+,0.4561656415462494,0
68,100,0.16363636363636364,26,1,48,_Guitar,6,3,ninjyouupbeat+,0.9990280866622925,1
61,100,0.1590909090909091,211,0,48,_Guitar,6,3,ninjyouupbeat+,0.3703358769416809,0
59,100,0.2,334,0,48,_Guitar,6,3,ninjyouupbeat+,0.4561713635921478,0
61,100,0.12272727272727273,48,1,49,_Guitar,6,2,ninjyouupbeat+,0.9990094900131226,1
57,100,0.22272727272727272,224,0,49,_Guitar,6,4,ninjyouupbeat+,0.23323841392993927,0
59,100,0.2,496,1,49,_Guitar,6,3,ninjyouupbeat+,0.2705863416194916,0
57,100,0.17727272727272728,735,1,49,_Guitar,6,3,ninjyouupbeat+,0.3579281270503998,0
54,100,0.21818181818181817,61,1,50,_Guitar,6,3,ninjyouupbeat+,0.9990280866622925,1
57,100,0.2409090909090909,131,0,50,_Guitar,6,4,ninjyouupbeat+,0.37033286690711975,0
54,100,0.2409090909090909,576,1,50,_Guitar,6,4,ninjyouupbeat+,0.456174373626709,0
59,100,0.12272727272727273,861,1,51,_Guitar,6,2,ninjyouupbeat+,0.9792240262031555,1
52,100,0.13636363636363635,523,1,52,_Guitar,6,2,ninjyouupbeat+,0.9983232617378235,1
52,100,0.1590909090909091,633,0,52,_Guitar,6,3,ninjyouupbeat+,0.5462194681167603,1
52,100,0.1590909090909091,88,1,53,_Guitar,6,3,ninjyouupbeat+,0.9984879493713379,1
64,100,0.1,386,1,53,_Guitar,6,2,ninjyouupbeat+,0.06335446238517761,0
52,100,0.17727272727272728,633,1,53,_Guitar,6,3,ninjyouupbeat+,0.05829058215022087,0
64,100,0.13636363636363635,721,0,53,_Guitar,6,2,ninjyouupbeat+,0.06136414408683777,0
52,100,0.3,765,0,53,_Guitar,6,5,ninjyouupbeat+,0.07168450206518173,0
64,100,0.11818181818181818,831,0,53,_Guitar,6,2,ninjyouupbeat+,0.08473873138427734,0
52,100,0.2590909090909091,858,0,53,_Guitar,6,4,ninjyouupbeat+,0.12635694444179535,0
52,100,0.3,40,1,54,_Guitar,6,5,ninjyouupbeat+,0.9988439083099365,1
52,100,0.17727272727272728,215,0,54,_Guitar,6,3,ninjyouupbeat+,0.13798260688781738,0
57,100,0.2409090909090909,295,0,54,_Guitar,6,4,ninjyouupbeat+,0.162363201379776,0
64,100,0.1590909090909091,550,1,54,_Guitar,6,3,ninjyouupbeat+,0.19106104969978333,0
52,100,0.35909090909090907,593,0,54,_Guitar,6,6,ninjyouupbeat+,0.26197439432144165,0
52,100,0.21818181818181817,128,1,55,_Guitar,6,3,ninjyouupbeat+,0.9792245030403137,1
59,100,0.43636363636363634,633,1,56,_Guitar,6,7,ninjyouupbeat+,0.9792237281799316,1
52,100,0.18181818181818182,166,1,57,_Guitar,6,3,ninjyouupbeat+,0.9792245030403137,1
52,100,0.1590909090909091,413,1,58,_Guitar,6,3,ninjyouupbeat+,0.9983232617378235,1
52,100,0.13636363636363635,853,1,58,_Guitar,6,2,ninjyouupbeat+,0.5462182760238647,1
52,100,0.1590909090909091,78,1,59,_Guitar,6,3,ninjyouupbeat+,0.9986506104469299,1
52,100,0.1409090909090909,153,0,59,_Guitar,6,2,ninjyouupbeat+,0.08797844499349594,0
52,100,0.1409090909090909,220,0,59,_Guitar,6,2,ninjyouupbeat+,0.09298381954431534,0
52,100,0.2,308,0,59,_Guitar,6,3,ninjyouupbeat+,0.10994892567396164,0
64,100,0.1590909090909091,351,0,59,_Guitar,6,3,ninjyouupbeat+,0.12867172062397003,0
59,100,0.11818181818181818,480,0,59,_Guitar,6,2,ninjyouupbeat+,0.1822212189435959,0
61,100,0.2818181818181818,748,1,61,_Guitar,6,5,ninjyouupbeat+,0.9792227745056152,1
68,100,0.2590909090909091,584,1,62,_Guitar,6,4,ninjyouupbeat+,0.9983232617378235,1
59,100,0.1,655,0,62,_Guitar,6,2,ninjyouupbeat+,0.546216607093811,1
64,100,0.22272727272727272,123,1,63,_Guitar,6,4,ninjyouupbeat+,0.9990094900131226,1
54,100,0.2590909090909091,298,0,63,_Guitar,6,4,ninjyouupbeat+,0.2332272082567215,0
64,100,0.12272727272727273,408,0,63,_Guitar,6,2,ninjyouupbeat+,0.2705836296081543,0
64,100,0.22272727272727272,488,0,63,_Guitar,6,4,ninjyouupbeat+,0.35793086886405945,0
59,100,0.2,62,1,64,_Guitar,6,3,ninjyouupbeat+,0.9983232617378235,1
59,100,0.17727272727272728,713,1,64,_Guitar,6,3,ninjyouupbeat+,0.5462183356285095,1
64,100,0.3409090909090909,289,1,65,_Guitar,6,5,ninjyouupbeat+,0.9983231425285339,1
57,100,0.3,377,0,65,_Guitar,6,5,ninjyouupbeat+,0.5462159514427185,1
61,100,0.17727272727272728,656,1,67,_Guitar,6,3,ninjyouupbeat+,0.9983231425285339,1
61,100,0.18181818181818182,826,0,67,_Guitar,6,3,ninjyouupbeat+,0.54621422290802,1
52,100,0.11818181818181818,417,1,68,_Guitar,6,2,ninjyouupbeat+,0.9983231425285339,1
64,100,0.4590909090909091,726,1,68,_Guitar,6,7,ninjyouupbeat+,0.5462159514427185,1
59,100,0.1,140,1,69,_Guitar,6,2,ninjyouupbeat+,0.9986506104469299,1
59,100,0.22272727272727272,166,0,69,_Guitar,6,4,ninjyouupbeat+,0.08797547966241837,0
59,100,0.33636363636363636,392,0,69,_Guitar,6,5,ninjyouupbeat+,0.09298062324523926,0
59,100,0.1,496,0,69,_Guitar,6,2,ninjyouupbeat+,0.10994464159011841,0
59,100,0.21818181818181817,567,0,69,_Guitar,6,3,ninjyouupbeat+,0.1286667287349701,0
59,100,0.1409090909090909,779,0,69,_Guitar,6,2,ninjyouupbeat+,0.18221306800842285,0
61,100,0.17727272727272728,229,1,70,_Guitar,6,3,ninjyouupbeat+,0.9983231425285339,1
56,100,0.1590909090909091,660,1,70,_Guitar,6,3,ninjyouupbeat+,0.5462141633033752,1
56,100,0.2,303,1,71,_Guitar,6,3,ninjyouupbeat+,0.9983231425285339,1
52,100,0.13636363636363635,787,1,71,_Guitar,6,2,ninjyouupbeat+,0.5462186932563782,1
57,100,0.11818181818181818,127,1,72,_Guitar,6,2,ninjyouupbeat+,0.9792237281799316,1
61,100,0.1590909090909091,307,1,73,_Guitar,6,3,ninjyouupbeat+,0.9990094900131226,1
61,100,0.33636363636363636,480,0,73,_Guitar,6,5,ninjyouupbeat+,0.2332308441400528,0
61,100,0.11818181818181818,590,0,73,_Guitar,6,2,ninjyouupbeat+,0.27057644724845886,0
61,100,0.18181818181818182,739,0,73,_Guitar,6,3,ninjyouupbeat+,0.3579293191432953,0
59,100,0.18181818181818182,572,1,74,_Guitar,6,3,ninjyouupbeat+,0.9983231425285339,1
61,100,0.4590909090909091,726,0,74,_Guitar,6,7,ninjyouupbeat+,0.5462090969085693,1
61,100,0.11818181818181818,74,1,75,_Guitar,6,2,ninjyouupbeat+,0.9990280866622925,1
54,100,0.2590909090909091,233,0,75,_Guitar,6,4,ninjyouupbeat+,0.37034597992897034,0
56,100,0.3,483,1,75,_Guitar,6,5,ninjyouupbeat+,0.45617035031318665,0
52,100,0.2,409,1,76,_Guitar,6,3,ninjyouupbeat+,0.9990280866622925,1
59,100,0.17727272727272728,493,0,76,_Guitar,6,3,ninjyouupbeat+,0.37033697962760925,0
64,100,0.2409090909090909,576,0,76,_Guitar,6,4,ninjyouupbeat+,0.45617473125457764,0
59,100,0.1,289,1,77,_Guitar,6,2,ninjyouupbeat+,0.9983231425285339,1
59,100,0.1,813,1,77,_Guitar,6,2,ninjyouupbeat+,0.5462151765823364,1
59,100,0.18181818181818182,475,1,78,_Guitar,6,3,ninjyouupbeat+,0.9792237281799316,1
64,100,0.1409090909090909,475,1,79,_Guitar,6,2,ninjyouupbeat+,0.9990280866622925,1
64,100,0.1590909090909091,519,0,79,_Guitar,6,3,ninjyouupbeat+,0.3703424632549286,0
59,100,0.4590909090909091,572,0,79,_Guitar,6,7,ninjyouupbeat+,0.4561660587787628,0
52,100,0.1409090909090909,0,1,80,_Guitar,6,2,ninjyouupbeat+,0.9984879493713379,1
52,100,0.1,62,0,80,_Guitar,6,2,ninjyouupbeat+,0.0633542612195015,0
52,100,0.12272727272727273,233,0,80,_Guitar,6,2,ninjyouupbeat+,0.05829111486673355,0
64,100,0.2,422,0,80,_Guitar,6,3,ninjyouupbeat+,0.06136447191238403,0
52,100,0.4772727272727273,546,0,80,_Guitar,6,8,ninjyouupbeat+,0.07168557494878769,0
52,100,0.17727272727272728,743,0,80,_Guitar,6,3,ninjyouupbeat+,0.0847395807504654,0
59,100,0.42272727272727273,805,0,80,_Guitar,6,7,ninjyouupbeat+,0.1263563185930252,0
59,100,0.38181818181818183,637,1,81,_Guitar,6,6,ninjyouupbeat+,0.9792232513427734,1
59,100,0.18181818181818182,299,1,82,_Guitar,6,3,ninjyouupbeat+,0.9990094900131226,1
59,100,0.2772727272727273,404,0,82,_Guitar,6,4,ninjyouupbeat+,0.23322562873363495,0
59,100,0.2772727272727273,470,0,82,_Guitar,6,4,ninjyouupbeat+,0.2705739438533783,0
64,100,0.3409090909090909,734,1,82,_Guitar,6,5,ninjyouupbeat+,0.35792505741119385,0
64,100,0.5,26,1,83,_Guitar,6,8,ninjyouupbeat+,0.9988439083099365,1
64,100,0.6,157,0,83,_Guitar,6,10,ninjyouupbeat+,0.13798333704471588,0
64,100,0.1590909090909091,559,1,83,_Guitar,6,3,ninjyouupbeat+,0.16236402094364166,0
64,100,0.2,646,0,83,_Guitar,6,3,ninjyouupbeat+,0.19105848670005798,0
64,100,0.11818181818181818,743,0,83,_Guitar,6,2,ninjyouupbeat+,0.26197540760040283,0
64,100,0.2,123,1,84,_Guitar,6,3,ninjyouupbeat+,0.9983004927635193,1
64,100,0.13636363636363635,172,0,84,_Guitar,6,2,ninjyouupbeat+,0.044662151485681534,0
64,100,0.3,242,0,84,_Guitar,6,5,ninjyouupbeat+,0.033371277153491974,0
64,100,0.2409090909090909,312,0,84,_Guitar,6,4,ninjyouupbeat+,0.026948265731334686,0
64,100,0.3181818181818182,373,0,84,_Guitar,6,5,ninjyouupbeat+,0.024084417149424553,0
59,100,0.1,470,0,84,_Guitar,6,2,ninjyouupbeat+,0.024973081424832344,0
52,100,0.3,663,0,84,_Guitar,6,5,ninjyouupbeat+,0.030648352578282356,0
52,100,0.11818181818181818,787,0,84,_Guitar,6,2,ninjyouupbeat+,0.0413711741566658,0
59,100,0.18181818181818182,839,0,84,_Guitar,6,3,ninjyouupbeat+,0.07207071036100388,0
59,100,0.1,30,1,85,_Guitar,6,2,ninjyouupbeat+,0.9990280866622925,1
59,100,0.2409090909090909,756,1,85,_Guitar,6,4,ninjyouupbeat+,0.370341956615448,0
64,100,0.22272727272727272,826,0,85,_Guitar,6,4,ninjyouupbeat+,0.45617249608039856,0
64,100,0.11818181818181818,30,1,86,_Guitar,6,2,ninjyouupbeat+,0.9986506104469299,1
64,100,0.1409090909090909,74,0,86,_Guitar,6,2,ninjyouupbeat+,0.08797678351402283,0
52,100,0.32272727272727275,377,1,86,_Guitar,6,5,ninjyouupbeat+,0.09298329800367355,0
59,100,0.41818181818181815,470,0,86,_Guitar,6,7,ninjyouupbeat+,0.10994670540094376,0
59,100,0.1,663,0,86,_Guitar,6,2,ninjyouupbeat+,0.12867039442062378,0
59,100,0.2409090909090909,813,0,86,_Guitar,6,4,ninjyouupbeat+,0.18222011625766754,0
59,100,0.22272727272727272,13,1,87,_Guitar,6,4,ninjyouupbeat+,0.9986506104469299,1
59,100,0.2409090909090909,74,0,87,_Guitar,6,4,ninjyouupbeat+,0.08797874301671982,0
59,100,0.1,197,0,87,_Guitar,6,2,ninjyouupbeat+,0.09298305958509445,0
59,100,0.1,294,0,87,_Guitar,6,2,ninjyouupbeat+,0.10994725674390793,0
64,100,0.35909090909090907,483,0,87,_Guitar,6,6,ninjyouupbeat+,0.12867371737957,0
61,100,0.2409090909090909,747,1,87,_Guitar,6,4,ninjyouupbeat+,0.18221843242645264,0
68,100,0.16363636363636364,817,1,88,_Guitar,6,3,ninjyouupbeat+,0.9792238473892212,1
59,100,0.32272727272727275,453,1,89,_Guitar,6,5,ninjyouupbeat+,0.9792232513427734,1
59,100,0.22272727272727272,145,1,90,_Guitar,6,4,ninjyouupbeat+,0.9988439083099365,1
59,100,0.2,352,0,90,_Guitar,6,3,ninjyouupbeat+,0.1379811316728592,0
59,100,0.1590909090909091,404,0,90,_Guitar,6,3,ninjyouupbeat+,0.16236872971057892,0
59,100,0.2590909090909091,590,0,90,_Guitar,6,4,ninjyouupbeat+,0.19105981290340424,0
68,100,0.18181818181818182,673,0,90,_Guitar,6,3,ninjyouupbeat+,0.26196354627609253,0
64,100,0.2590909090909091,87,1,91,_Guitar,6,4,ninjyouupbeat+,0.9990280866622925,1
59,100,0.21818181818181817,392,1,91,_Guitar,6,3,ninjyouupbeat+,0.37033310532569885,0
64,100,0.1409090909090909,483,0,91,_Guitar,6,2,ninjyouupbeat+,0.4561716616153717,0
52,100,0.1,62,1,92,_Guitar,6,2,ninjyouupbeat+,0.9983735084533691,1
64,100,0.1,140,0,92,_Guitar,6,2,ninjyouupbeat+,0.05104998126626015,0
59,100,0.1409090909090909,197,0,92,_Guitar,6,2,ninjyouupbeat+,0.0416124127805233,0
59,100,0.2409090909090909,233,0,92,_Guitar,6,4,ninjyouupbeat+,0.03798012435436249,0
52,100,0.2818181818181818,299,0,92,_Guitar,6,5,ninjyouupbeat+,0.03926040604710579,0
64,100,0.1590909090909091,360,0,92,_Guitar,6,3,ninjyouupbeat+,0.04616523161530495,0
52,100,0.16363636363636364,399,0,92,_Guitar,6,3,ninjyouupbeat+,0.05713268369436264,0
64,100,0.22272727272727272,553,0,92,_Guitar,6,4,ninjyouupbeat+,0.09188191592693329,0
59,100,0.4409090909090909,210,1,93,_Guitar,6,7,ninjyouupbeat+,0.9990094900131226,1
59,100,0.22272727272727272,377,0,93,_Guitar,6,4,ninjyouupbeat+,0.2332293838262558,0
59,100,0.1590909090909091,603,0,93,_Guitar,6,3,ninjyouupbeat+,0.27057698369026184,0
59,100,0.2409090909090909,770,0,93,_Guitar,6,4,ninjyouupbeat+,0.3579270541667938,0
64,100,0.2818181818181818,132,1,94,_Guitar,6,5,ninjyouupbeat+,0.9990280866622925,1
64,100,0.1409090909090909,220,0,94,_Guitar,6,2,ninjyouupbeat+,0.37033700942993164,0
64,100,0.22272727272727272,430,0,94,_Guitar,6,4,ninjyouupbeat+,0.4561724364757538,0
64,100,0.1590909090909091,123,1,95,_Guitar,6,3,ninjyouupbeat+,0.9990280866622925,1
64,100,0.11818181818181818,303,0,95,_Guitar,6,2,ninjyouupbeat+,0.37033209204673767,0
52,100,0.12272727272727273,650,1,95,_Guitar,6,2,ninjyouupbeat+,0.4561741352081299,0
59,100,0.42272727272727273,356,1,96,_Guitar,6,7,ninjyouupbeat+,0.9983232617378235,1
59,100,0.3409090909090909,585,0,96,_Guitar,6,5,ninjyouupbeat+,0.5462178587913513,1
59,100,0.13636363636363635,83,1,97,_Guitar,6,2,ninjyouupbeat+,0.9988439083099365,1
64,100,0.13636363636363635,260,0,97,_Guitar,6,2,ninjyouupbeat+,0.1379832774400711,0
64,100,0.1409090909090909,496,1,97,_Guitar,6,2,ninjyouupbeat+,0.16236473619937897,0
64,100,0.2636363636363636,597,0,97,_Guitar,6,4,ninjyouupbeat+,0.19105936586856842,0
64,100,0.5818181818181818,826,0,97,_Guitar,6,9,ninjyouupbeat+,0.2619690001010895,0
64,100,0.2590909090909091,100,1,98,_Guitar,6,4,ninjyouupbeat+,0.9990094900131226,1
52,100,0.1409090909090909,157,0,98,_Guitar,6,2,ninjyouupbeat+,0.23323820531368256,0
64,100,0.22272727272727272,189,0,98,_Guitar,6,4,ninjyouupbeat+,0.2705937922000885,0
57,100,0.12272727272727273,783,1,98,_Guitar,6,2,ninjyouupbeat+,0.35793280601501465,0
64,100,0.1,197,1,99,_Guitar,6,2,ninjyouupbeat+,0.9988439083099365,1
52,100,0.35909090909090907,220,0,99,_Guitar,6,6,ninjyouupbeat+,0.13798169791698456,0
52,100,0.13636363636363635,326,0,99,_Guitar,6,2,ninjyouupbeat+,0.16236664354801178,0
59,100,0.1,690,1,99,_Guitar,6,2,ninjyouupbeat+,0.19105826318264008,0
59,100,0.1590909090909091,716,0,99,_Guitar,6,3,ninjyouupbeat+,0.26197105646133423,0
64,100,0.11818181818181818,514,1,100,_Guitar,6,2,ninjyouupbeat+,0.9990094900131226,1
68,100,0.2772727272727273,559,0,100,_Guitar,6,4,ninjyouupbeat+,0.23321589827537537,0
59,100,0.12272727272727273,695,0,100,_Guitar,6,2,ninjyouupbeat+,0.2705789804458618,0
64,100,0.2,832,0,100,_Guitar,6,3,ninjyouupbeat+,0.3579252362251282,0
68,100,0.21818181818181817,119,1,101,_Guitar,6,3,ninjyouupbeat+,0.9990280866622925,1
59,100,0.11818181818181818,612,1,101,_Guitar,6,2,ninjyouupbeat+,0.3703349530696869,0
59,100,0.1590909090909091,787,0,101,_Guitar,6,3,ninjyouupbeat+,0.4561685621738434,0
59,100,0.1590909090909091,172,1,102,_Guitar,6,3,ninjyouupbeat+,0.9983231425285339,1
56,100,0.6818181818181818,660,1,102,_Guitar,6,11,ninjyouupbeat+,0.5462047457695007,1
59,100,0.1409090909090909,255,1,103,_Guitar,6,2,ninjyouupbeat+,0.9983232617378235,1
59,100,0.1590909090909091,470,0,103,_Guitar,6,3,ninjyouupbeat+,0.5462139844894409,1
59,100,0.1409090909090909,69,1,104,_Guitar,6,2,ninjyouupbeat+,0.9983232617378235,1
59,100,0.4409090909090909,343,1,104,_Guitar,6,7,ninjyouupbeat+,0.5462146997451782,1
71,100,0.1409090909090909,862,1,105,_Guitar,6,2,ninjyouupbeat+,0.979223906993866,1
83,100,0.12272727272727273,26,1,106,_Guitar,6,2,ninjyouupbeat+,0.9983231425285339,1
83,100,0.1590909090909091,140,0,106,_Guitar,6,3,ninjyouupbeat+,0.5462161302566528,1
59,100,0.7,62,1,107,_Guitar,6,11,ninjyouupbeat+,0.9983231425285339,1
59,100,0.32272727272727275,233,0,107,_Guitar,6,5,ninjyouupbeat+,0.5462173223495483,1
59,100,0.2590909090909091,779,1,108,_Guitar,6,4,ninjyouupbeat+,0.9792242646217346,1
54,100,0.1,857,1,109,_Guitar,6,2,ninjyouupbeat+,0.9792240262031555,1
54,100,1.7,179,1,110,_Guitar,6,15,ninjyouupbeat+,0.9983231425285339,1
56,100,0.1590909090909091,572,1,110,_Guitar,6,3,ninjyouupbeat+,0.5462103486061096,1
59,100,0.12272727272727273,255,1,111,_Guitar,6,2,ninjyouupbeat+,0.9792237281799316,1
59,100,0.17727272727272728,83,1,112,_Guitar,6,3,ninjyouupbeat+,0.9983232617378235,1
64,100,1.1636363636363636,729,1,112,_Guitar,6,15,ninjyouupbeat+,0.5462174415588379,1
52,100,0.2,210,1,113,_Guitar,6,3,ninjyouupbeat+,0.9983232617378235,1
59,100,0.2818181818181818,747,1,113,_Guitar,6,5,ninjyouupbeat+,0.5462145805358887,1
59,100,0.3181818181818182,127,1,114,_Guitar,6,5,ninjyouupbeat+,0.9983231425285339,1
59,100,0.1,606,1,114,_Guitar,6,2,ninjyouupbeat+,0.5462188720703125,1
64,100,0.18181818181818182,66,1,115,_Guitar,6,3,ninjyouupbeat+,0.9988439083099365,1
64,100,0.4409090909090909,206,0,115,_Guitar,6,7,ninjyouupbeat+,0.13798175752162933,0
64,100,0.3,386,0,115,_Guitar,6,5,ninjyouupbeat+,0.16236551105976105,0
64,100,0.4409090909090909,726,1,115,_Guitar,6,7,ninjyouupbeat+,0.19105598330497742,0
64,100,0.2,832,0,115,_Guitar,6,3,ninjyouupbeat+,0.26197493076324463,0
64,100,0.3409090909090909,22,1,116,_Guitar,6,5,ninjyouupbeat+,0.9988439083099365,1
64,100,0.1,127,0,116,_Guitar,6,2,ninjyouupbeat+,0.13797922432422638,0
64,100,0.1,197,0,116,_Guitar,6,2,ninjyouupbeat+,0.16236506402492523,0
59,100,0.22272727272727272,233,0,116,_Guitar,6,4,ninjyouupbeat+,0.19106052815914154,0
54,100,0.1409090909090909,646,1,116,_Guitar,6,2,ninjyouupbeat+,0.26196813583374023,0
59,100,0.42272727272727273,35,1,117,_Guitar,6,7,ninjyouupbeat+,0.9990280866622925,1
59,100,0.3,132,0,117,_Guitar,6,5,ninjyouupbeat+,0.3703422546386719,0
59,100,0.1,716,1,117,_Guitar,6,2,ninjyouupbeat+,0.4561687111854553,0
59,100,0.37727272727272726,119,1,118,_Guitar,6,6,ninjyouupbeat+,0.9988439083099365,1
64,100,0.2409090909090909,233,0,118,_Guitar,6,4,ninjyouupbeat+,0.1379811316728592,0
59,100,0.3409090909090909,383,0,118,_Guitar,6,5,ninjyouupbeat+,0.1623612940311432,0
52,100,0.22272727272727272,496,0,118,_Guitar,6,4,ninjyouupbeat+,0.1910553127527237,0
64,100,0.1409090909090909,660,0,118,_Guitar,6,2,ninjyouupbeat+,0.26196709275245667,0
59,100,0.2590909090909091,756,1,119,_Guitar,6,4,ninjyouupbeat+,0.979223906993866,1
52,100,0.2409090909090909,56,1,120,_Guitar,6,4,ninjyouupbeat+,0.9986506104469299,1
59,100,0.2636363636363636,202,0,120,_Guitar,6,4,ninjyouupbeat+,0.08797721564769745,0
59,100,0.21818181818181817,426,0,120,_Guitar,6,3,ninjyouupbeat+,0.09298181533813477,0
59,100,0.1409090909090909,739,1,120,_Guitar,6,2,ninjyouupbeat+,0.1099470853805542,0
59,100,0.1,796,0,120,_Guitar,6,2,ninjyouupbeat+,0.12866966426372528,0
59,100,0.4409090909090909,823,0,120,_Guitar,6,7,ninjyouupbeat+,0.1822158843278885,0
64,100,0.23636363636363636,392,1,121,_Guitar,6,4,ninjyouupbeat+,0.9983232617378235,1
64,100,0.1590909090909091,475,0,121,_Guitar,6,3,ninjyouupbeat+,0.546216607093811,1
59,100,0.3181818181818182,43,1,122,_Guitar,6,5,ninjyouupbeat+,0.9986506104469299,1
64,100,0.18181818181818182,123,0,122,_Guitar,6,3,ninjyouupbeat+,0.08797838538885117,0
64,100,0.36363636363636365,289,0,122,_Guitar,6,6,ninjyouupbeat+,0.09298322349786758,0
64,100,0.21818181818181817,404,0,122,_Guitar,6,3,ninjyouupbeat+,0.10995031148195267,0
59,100,0.2,695,1,122,_Guitar,6,3,ninjyouupbeat+,0.12867484986782074,0
59,100,0.2,752,0,122,_Guitar,6,3,ninjyouupbeat+,0.18221840262413025,0
59,100,0.2636363636363636,399,1,123,_Guitar,6,4,ninjyouupbeat+,0.9990280866622925,1
64,100,0.1590909090909091,800,1,123,_Guitar,6,3,ninjyouupbeat+,0.37033843994140625,0
64,100,0.2590909090909091,849,0,123,_Guitar,6,4,ninjyouupbeat+,0.4561713933944702,0
59,100,0.1,30,1,124,_Guitar,6,2,ninjyouupbeat+,0.9984880685806274,1
59,100,0.2590909090909091,62,0,124,_Guitar,6,4,ninjyouupbeat+,0.06335317343473434,0
59,100,0.21818181818181817,417,1,124,_Guitar,6,3,ninjyouupbeat+,0.058289818465709686,0
59,100,0.11818181818181818,483,0,124,_Guitar,6,2,ninjyouupbeat+,0.06136379763484001,0
59,100,0.1,576,0,124,_Guitar,6,2,ninjyouupbeat+,0.07168716937303543,0
59,100,0.5772727272727273,603,0,124,_Guitar,6,9,ninjyouupbeat+,0.08473704010248184,0
59,100,0.2772727272727273,756,0,124,_Guitar,6,4,ninjyouupbeat+,0.12635941803455353,0
59,100,0.2,153,1,125,_Guitar,6,3,ninjyouupbeat+,0.9792237281799316,1
59,100,0.6590909090909091,172,1,126,_Guitar,6,11,ninjyouupbeat+,0.9990280866622925,1
59,100,0.5409090909090909,365,0,126,_Guitar,6,9,ninjyouupbeat+,0.3703323304653168,0
54,100,0.6363636363636364,722,1,126,_Guitar,6,10,ninjyouupbeat+,0.4561713635921478,0
59,100,1.4772727272727273,546,1,128,_Guitar,6,15,ninjyouupbeat+,0.9792232513427734,1
59,100,0.12272727272727273,70,1,129,_Guitar,6,2,ninjyouupbeat+,0.9990094900131226,1
52,100,1.940909090909091,118,0,129,_Guitar,6,15,ninjyouupbeat+,0.2332250028848648,0
52,100,0.1590909090909091,580,1,129,_Guitar,6,3,ninjyouupbeat+,0.2705850899219513,0
52,100,0.13636363636363635,743,0,129,_Guitar,6,2,ninjyouupbeat+,0.3579351305961609,0
59,100,0.1,527,1,130,_Guitar,6,2,ninjyouupbeat+,0.9792237281799316,1
64,100,0.6818181818181818,232,1,131,_Guitar,6,11,ninjyouupbeat+,0.9990094900131226,1
64,100,0.13636363636363635,436,0,131,_Guitar,6,2,ninjyouupbeat+,0.23322923481464386,0
64,100,0.35909090909090907,656,0,131,_Guitar,6,6,ninjyouupbeat+,0.27058282494544983,0
59,100,0.2,751,0,131,_Guitar,6,3,ninjyouupbeat+,0.35793474316596985,0
64,100,0.4409090909090909,189,1,132,_Guitar,6,7,ninjyouupbeat+,0.9990280866622925,1
52,100,1.3,285,0,132,_Guitar,6,15,ninjyouupbeat+,0.37033089995384216,0
52,100,0.3,633,1,132,_Guitar,6,5,ninjyouupbeat+,0.45617690682411194,0
66,100,0.18181818181818182,835,1,133,_Guitar,6,3,ninjyouupbeat+,0.9792243838310242,1
52,100,0.2818181818181818,197,1,134,_Guitar,6,5,ninjyouupbeat+,0.9983231425285339,1
59,100,0.11818181818181818,690,1,134,_Guitar,6,2,ninjyouupbeat+,0.5462132692337036,1
64,100,0.6818181818181818,770,1,135,_Guitar,6,11,ninjyouupbeat+,0.9792247414588928,1
64,100,0.1409090909090909,44,1,136,_Guitar,6,2,ninjyouupbeat+,0.9983232617378235,1
59,100,0.3,840,1,136,_Guitar,6,5,ninjyouupbeat+,0.546219527721405,1
52,100,0.35909090909090907,207,1,137,_Guitar,6,6,ninjyouupbeat+,0.9988439083099365,1
59,100,0.21818181818181817,458,1,137,_Guitar,6,3,ninjyouupbeat+,0.13798348605632782,0
59,100,0.1409090909090909,510,0,137,_Guitar,6,2,ninjyouupbeat+,0.16237083077430725,0
56,100,0.13636363636363635,678,0,137,_Guitar,6,2,ninjyouupbeat+,0.19105760753154755,0
56,100,0.1590909090909091,747,0,137,_Guitar,6,3,ninjyouupbeat+,0.26196348667144775,0
57,100,0.4590909090909091,53,1,138,_Guitar,6,7,ninjyouupbeat+,0.9990280866622925,1
57,100,0.3409090909090909,207,0,138,_Guitar,6,5,ninjyouupbeat+,0.3703431785106659,0
52,100,0.21818181818181817,835,1,138,_Guitar,6,3,ninjyouupbeat+,0.4561746418476105,0
57,100,0.17727272727272728,118,1,139,_Guitar,6,3,ninjyouupbeat+,0.9983735084533691,1
57,100,0.41818181818181815,197,0,139,_Guitar,6,7,ninjyouupbeat+,0.051050711423158646,0
59,100,0.2818181818181818,311,0,139,_Guitar,6,5,ninjyouupbeat+,0.04161364957690239,0
59,100,0.1590909090909091,562,1,139,_Guitar,6,3,ninjyouupbeat+,0.037980906665325165,0
59,100,0.11818181818181818,603,0,139,_Guitar,6,2,ninjyouupbeat+,0.03926153853535652,0
52,100,0.11818181818181818,678,0,139,_Guitar,6,2,ninjyouupbeat+,0.04616687074303627,0
64,100,0.1,735,0,139,_Guitar,6,2,ninjyouupbeat+,0.05713338032364845,0
52,100,0.11818181818181818,800,0,139,_Guitar,6,2,ninjyouupbeat+,0.09188377112150192,0
52,100,0.7,106,1,140,_Guitar,6,11,ninjyouupbeat+,0.9990280866622925,1
56,100,0.2409090909090909,299,0,140,_Guitar,6,4,ninjyouupbeat+,0.3703356981277466,0
59,100,0.18181818181818182,826,1,140,_Guitar,6,3,ninjyouupbeat+,0.4561702609062195,0
52,100,0.4590909090909091,391,1,141,_Guitar,6,7,ninjyouupbeat+,0.9990280866622925,1
52,100,0.1409090909090909,505,0,141,_Guitar,6,2,ninjyouupbeat+,0.37034788727760315,0
57,100,0.1,589,0,141,_Guitar,6,2,ninjyouupbeat+,0.45616236329078674,0
59,100,0.42272727272727273,246,1,142,_Guitar,6,7,ninjyouupbeat+,0.9990094900131226,1
52,100,0.1,699,1,142,_Guitar,6,2,ninjyouupbeat+,0.2332354635000229,0
52,100,0.1,804,0,142,_Guitar,6,2,ninjyouupbeat+,0.27058398723602295,0
52,100,0.759090909090909,849,0,142,_Guitar,6,12,ninjyouupbeat+,0.35793495178222656,0
52,100,0.1409090909090909,158,1,143,_Guitar,6,2,ninjyouupbeat+,0.9990094900131226,1
52,100,0.11818181818181818,307,0,143,_Guitar,6,2,ninjyouupbeat+,0.233226478099823,0
52,100,0.2409090909090909,405,0,143,_Guitar,6,4,ninjyouupbeat+,0.27058228850364685,0
52,100,0.38181818181818183,519,0,143,_Guitar,6,6,ninjyouupbeat+,0.3579312562942505,0
64,100,0.1,30,1,144,_Guitar,6,2,ninjyouupbeat+,0.9983231425285339,1
52,100,0.13636363636363635,479,1,144,_Guitar,6,2,ninjyouupbeat+,0.5462163090705872,1
58,100,0.17727272727272728,273,1,6,_Guitar,6,3, Stems,0.9983232617378235,1
58,100,0.13636363636363635,590,1,6,_Guitar,6,2, Stems,0.5462128520011902,1
58,100,0.2,40,1,7,_Guitar,6,3, Stems,0.9990094900131226,1
56,100,0.12272727272727273,268,0,7,_Guitar,6,2, Stems,0.23322713375091553,0
58,100,0.5181818181818182,360,0,7,_Guitar,6,8, Stems,0.2705753445625305,0
58,100,0.1409090909090909,685,1,7,_Guitar,6,2, Stems,0.3579255938529968,0
58,100,0.2590909090909091,123,1,8,_Guitar,6,4, Stems,0.9990280866622925,1
58,100,0.3181818181818182,440,1,8,_Guitar,6,5, Stems,0.3703517019748688,0
58,100,0.5409090909090909,752,1,8,_Guitar,6,9, Stems,0.45616069436073303,0
58,100,0.6181818181818182,185,1,9,_Guitar,6,10, Stems,0.9990280866622925,1
58,100,0.5,524,1,9,_Guitar,6,8, Stems,0.370341956615448,0
58,100,0.18181818181818182,857,1,9,_Guitar,6,3, Stems,0.4561660885810852,0
58,100,0.1,25,1,10,_Guitar,6,2, Stems,0.9990280866622925,1
58,100,0.5227272727272727,290,1,10,_Guitar,6,8, Stems,0.37033677101135254,0
58,100,0.5,625,1,10,_Guitar,6,8, Stems,0.45616668462753296,0
58,100,0.11818181818181818,53,1,11,_Guitar,6,2, Stems,0.9990280866622925,1
58,100,0.6,374,1,11,_Guitar,6,10, Stems,0.3703414797782898,0
58,100,0.5590909090909091,682,1,11,_Guitar,6,9, Stems,0.4561733305454254,0
58,100,0.38181818181818183,792,1,12,_Guitar,6,6, Stems,0.9792245030403137,1
56,100,0.18181818181818182,135,1,13,_Guitar,6,3, Stems,0.9990094900131226,1
58,100,0.5772727272727273,216,0,13,_Guitar,6,9, Stems,0.23323270678520203,0
58,100,0.5181818181818182,550,1,13,_Guitar,6,8, Stems,0.2705743610858917,0
58,100,0.3409090909090909,871,1,13,_Guitar,6,5, Stems,0.35792988538742065,0
58,100,0.1,312,1,14,_Guitar,6,2, Stems,0.9990280866622925,1
58,100,0.21818181818181817,338,0,14,_Guitar,6,3, Stems,0.370341420173645,0
58,100,0.2818181818181818,637,1,14,_Guitar,6,5, Stems,0.45616382360458374,0
63,100,0.18181818181818182,817,1,74,_Guitar,6,3, Stems,0.979223906993866,1
55,100,0.11818181818181818,457,1,75,_Guitar,6,2, Stems,0.9990094900131226,1
63,100,0.12272727272727273,597,0,75,_Guitar,6,2, Stems,0.23323175311088562,0
63,100,0.2818181818181818,637,0,75,_Guitar,6,5, Stems,0.27058109641075134,0
63,100,0.2409090909090909,729,0,75,_Guitar,6,4, Stems,0.35794147849082947,0
55,100,0.1,17,1,77,_Guitar,6,2, Stems,0.9988439083099365,1
63,100,0.8409090909090909,163,0,77,_Guitar,6,13, Stems,0.137983500957489,0
63,100,0.18181818181818182,352,0,77,_Guitar,6,3, Stems,0.16237345337867737,0
56,100,0.2,669,1,77,_Guitar,6,3, Stems,0.19107232987880707,0
63,100,0.4,857,0,77,_Guitar,6,6, Stems,0.26197174191474915,0
56,100,0.2590909090909091,189,1,78,_Guitar,6,4, Stems,0.9990280866622925,1
55,100,0.1409090909090909,426,1,78,_Guitar,6,2, Stems,0.3703419864177704,0
58,100,0.3181818181818182,660,1,78,_Guitar,6,5, Stems,0.45616650581359863,0
58,100,0.1409090909090909,294,1,79,_Guitar,6,2, Stems,0.9988439083099365,1
58,100,0.2,360,0,79,_Guitar,6,3, Stems,0.13798555731773376,0
58,100,0.2,514,0,79,_Guitar,6,3, Stems,0.1623689830303192,0
74,100,0.4818181818181818,637,0,79,_Guitar,6,8, Stems,0.1910545974969864,0
74,100,0.3,747,0,79,_Guitar,6,5, Stems,0.26197007298469543,0
63,100,1.3,9,1,80,_Guitar,6,15, Stems,0.9990094900131226,1
58,100,0.12272727272727273,299,1,80,_Guitar,6,2, Stems,0.2332485318183899,0
63,100,0.6590909090909091,343,0,80,_Guitar,6,11, Stems,0.2705909013748169,0
53,100,1.7227272727272727,663,1,80,_Guitar,6,15, Stems,0.35792383551597595,0
63,100,0.2,527,1,81,_Guitar,6,3, Stems,0.9990280866622925,1
56,100,0.3181818181818182,743,0,81,_Guitar,6,5, Stems,0.37035325169563293,0
58,100,0.42272727272727273,826,0,81,_Guitar,6,7, Stems,0.45617878437042236,0
58,100,0.18181818181818182,56,1,82,_Guitar,6,3, Stems,0.9990094900131226,1
53,100,0.4,286,0,82,_Guitar,6,6, Stems,0.23324118554592133,0
68,100,0.35909090909090907,493,0,82,_Guitar,6,6, Stems,0.27059292793273926,0
68,100,0.5409090909090909,839,1,82,_Guitar,6,9, Stems,0.35792064666748047,0
82,100,0.1409090909090909,356,1,83,_Guitar,6,2, Stems,0.9990094900131226,1
58,100,0.18181818181818182,399,0,83,_Guitar,6,3, Stems,0.23323628306388855,0
55,100,0.1409090909090909,619,0,83,_Guitar,6,2, Stems,0.2705807089805603,0
55,100,0.11818181818181818,690,0,83,_Guitar,6,2, Stems,0.3579164445400238,0
58,100,0.21818181818181817,83,1,84,_Guitar,6,3, Stems,0.9988439083099365,1
58,100,0.6818181818181818,197,0,84,_Guitar,6,11, Stems,0.13797974586486816,0
55,100,0.2,373,0,84,_Guitar,6,3, Stems,0.1623610109090805,0
58,100,0.1409090909090909,422,0,84,_Guitar,6,2, Stems,0.19105038046836853,0
58,100,0.1,567,0,84,_Guitar,6,2, Stems,0.2619583010673523,0
58,100,0.18181818181818182,312,1,85,_Guitar,6,3, Stems,0.9990094900131226,1
58,100,0.3,462,0,85,_Guitar,6,5, Stems,0.23323431611061096,0
55,100,0.1590909090909091,536,0,85,_Guitar,6,3, Stems,0.27058249711990356,0
58,100,0.21818181818181817,703,0,85,_Guitar,6,3, Stems,0.35792306065559387,0
58,100,0.2590909090909091,74,1,86,_Guitar,6,4, Stems,0.9990094900131226,1
55,100,0.12272727272727273,509,1,86,_Guitar,6,2, Stems,0.23322784900665283,0
63,100,0.21818181818181817,550,0,86,_Guitar,6,3, Stems,0.2705717980861664,0
58,100,0.13636363636363635,876,1,86,_Guitar,6,2, Stems,0.3579323887825012,0
55,100,0.17727272727272728,119,1,87,_Guitar,6,3, Stems,0.9990280866622925,1
55,100,0.17727272727272728,184,0,87,_Guitar,6,3, Stems,0.3703429400920868,0
58,100,0.18181818181818182,399,0,87,_Guitar,6,3, Stems,0.4561654031276703,0
58,100,0.5,66,1,88,_Guitar,6,8, Stems,0.9986506104469299,1
62,100,0.21818181818181817,176,0,88,_Guitar,6,3, Stems,0.08797909319400787,0
58,100,0.2772727272727273,237,0,88,_Guitar,6,4, Stems,0.09298764914274216,0
58,100,0.1590909090909091,409,0,88,_Guitar,6,3, Stems,0.10995149612426758,0
55,100,0.12272727272727273,475,0,88,_Guitar,6,2, Stems,0.12867258489131927,0
58,100,0.2,650,0,88,_Guitar,6,3, Stems,0.18221978843212128,0
58,100,0.13636363636363635,106,1,89,_Guitar,6,2, Stems,0.9792240262031555,1
53,100,0.11818181818181818,282,1,0,DL_Guitar,6,2,omokage_stem,0.9990094900131226,1
55,100,0.4409090909090909,317,0,0,DL_Guitar,6,7,omokage_stem,0.23322707414627075,0
58,100,0.13636363636363635,634,1,0,DL_Guitar,6,2,omokage_stem,0.2705725133419037,0
67,100,0.22272727272727272,695,0,0,DL_Guitar,6,4,omokage_stem,0.3579210638999939,0
58,100,0.36363636363636365,180,1,1,DL_Guitar,6,6,omokage_stem,0.9983231425285339,1
53,100,0.3409090909090909,559,1,1,DL_Guitar,6,5,omokage_stem,0.5462113618850708,1
70,100,0.2818181818181818,330,1,2,DL_Guitar,6,5,omokage_stem,0.9986506104469299,1
72,100,0.2409090909090909,396,0,2,DL_Guitar,6,4,omokage_stem,0.08797892183065414,0
70,100,0.2772727272727273,523,0,2,DL_Guitar,6,4,omokage_stem,0.09298211336135864,0
72,100,0.2772727272727273,590,0,2,DL_Guitar,6,4,omokage_stem,0.10994841903448105,0
53,100,0.12272727272727273,651,0,2,DL_Guitar,6,2,omokage_stem,0.12867005169391632,0
70,100,0.8,726,0,2,DL_Guitar,6,13,omokage_stem,0.18221257627010345,0
58,100,0.2590909090909091,21,1,3,DL_Guitar,6,4,omokage_stem,0.9984879493713379,1
70,100,0.21818181818181817,83,0,3,DL_Guitar,6,3,omokage_stem,0.06335236877202988,0
70,100,0.3181818181818182,140,0,3,DL_Guitar,6,5,omokage_stem,0.05828666314482689,0
65,100,0.2772727272727273,470,1,3,DL_Guitar,6,4,omokage_stem,0.06135871261358261,0
67,100,0.2772727272727273,537,0,3,DL_Guitar,6,4,omokage_stem,0.0716795027256012,0
65,100,0.2818181818181818,663,0,3,DL_Guitar,6,5,omokage_stem,0.08473148196935654,0
67,100,0.2409090909090909,730,0,3,DL_Guitar,6,4,omokage_stem,0.12634427845478058,0
53,100,0.2409090909090909,0,1,4,DL_Guitar,6,4,omokage_stem,0.9982556700706482,1
53,100,0.6227272727272727,79,0,4,DL_Guitar,6,10,omokage_stem,0.04129185900092125,0
65,100,0.37727272727272726,215,0,4,DL_Guitar,6,6,omokage_stem,0.029123933985829353,0
53,100,0.4590909090909091,299,0,4,DL_Guitar,6,7,omokage_stem,0.02156790718436241,0
53,100,0.11818181818181818,493,0,4,DL_Guitar,6,2,omokage_stem,0.017058106139302254,0
53,100,0.3181818181818182,527,0,4,DL_Guitar,6,5,omokage_stem,0.015266921371221542,0
53,100,0.17727272727272728,611,0,4,DL_Guitar,6,3,omokage_stem,0.01645481213927269,0
65,100,0.4,651,0,4,DL_Guitar,6,6,omokage_stem,0.021835846826434135,0
53,100,0.2,739,0,4,DL_Guitar,6,3,omokage_stem,0.03251590579748154,0
65,100,0.4590909090909091,782,0,4,DL_Guitar,6,7,omokage_stem,0.06090851500630379,0
53,100,0.1409090909090909,493,1,5,DL_Guitar,6,2,omokage_stem,0.9983232617378235,1
58,100,0.2,524,0,5,DL_Guitar,6,3,omokage_stem,0.5462153553962708,1
53,100,0.3,255,1,6,DL_Guitar,6,5,omokage_stem,0.9983231425285339,1
53,100,0.17727272727272728,647,1,6,DL_Guitar,6,3,omokage_stem,0.5462139248847961,1
58,100,0.5181818181818182,457,1,9,DL_Guitar,6,8,omokage_stem,0.9792245030403137,1
53,100,0.18181818181818182,783,1,10,DL_Guitar,6,3,omokage_stem,0.9983231425285339,1
53,100,0.2590909090909091,835,0,10,DL_Guitar,6,4,omokage_stem,0.5462165474891663,1
63,100,0.1,259,1,13,DL_Guitar,6,2,omokage_stem,0.9792238473892212,1
53,100,0.11818181818181818,668,1,14,DL_Guitar,6,2,omokage_stem,0.9792230129241943,1
55,100,0.5636363636363636,290,1,15,DL_Guitar,6,9,omokage_stem,0.9990094900131226,1
53,100,0.38181818181818183,519,0,15,DL_Guitar,6,6,omokage_stem,0.2332243025302887,0
53,100,0.18181818181818182,739,0,15,DL_Guitar,6,3,omokage_stem,0.2705744504928589,0
53,100,0.17727272727272728,801,0,15,DL_Guitar,6,3,omokage_stem,0.3579169511795044,0
53,100,0.22272727272727272,48,1,16,DL_Guitar,6,4,omokage_stem,0.9988439083099365,1
53,100,0.11818181818181818,308,1,16,DL_Guitar,6,2,omokage_stem,0.13798227906227112,0
53,100,0.12272727272727273,343,0,16,DL_Guitar,6,2,omokage_stem,0.16236364841461182,0
53,100,0.2590909090909091,436,0,16,DL_Guitar,6,4,omokage_stem,0.19105497002601624,0
53,100,0.2772727272727273,700,1,16,DL_Guitar,6,4,omokage_stem,0.2619628310203552,0
53,100,0.17727272727272728,546,1,18,DL_Guitar,6,3,omokage_stem,0.9792241454124451,1
53,100,0.2409090909090909,505,1,19,DL_Guitar,6,4,omokage_stem,0.9983231425285339,1
53,100,0.2590909090909091,681,0,19,DL_Guitar,6,4,omokage_stem,0.546211838722229,1
53,100,0.13636363636363635,150,1,20,DL_Guitar,6,2,omokage_stem,0.9983232617378235,1
58,100,0.2818181818181818,461,1,20,DL_Guitar,6,5,omokage_stem,0.546217143535614,1
53,100,0.43636363636363634,810,1,21,DL_Guitar,6,7,omokage_stem,0.9792237281799316,1
53,100,0.2,162,1,22,DL_Guitar,6,3,omokage_stem,0.9990280866622925,1
53,100,0.2,299,0,22,DL_Guitar,6,3,omokage_stem,0.3703371584415436,0
53,100,0.13636363636363635,436,0,22,DL_Guitar,6,2,omokage_stem,0.45616450905799866,0
58,100,0.11818181818181818,0,1,23,DL_Guitar,6,2,omokage_stem,0.9990280866622925,1
63,100,0.22272727272727272,100,0,23,DL_Guitar,6,4,omokage_stem,0.3703383207321167,0
63,100,0.18181818181818182,179,0,23,DL_Guitar,6,3,omokage_stem,0.4561746418476105,0
53,100,0.1590909090909091,430,1,26,DL_Guitar,6,3,omokage_stem,0.9986506104469299,1
53,100,0.4818181818181818,474,0,26,DL_Guitar,6,8,omokage_stem,0.0879775807261467,0
53,100,0.11818181818181818,700,0,26,DL_Guitar,6,2,omokage_stem,0.09298422187566757,0
53,100,0.1,756,0,26,DL_Guitar,6,2,omokage_stem,0.10994883626699448,0
53,100,0.2590909090909091,801,0,26,DL_Guitar,6,4,omokage_stem,0.12866586446762085,0
53,100,0.2818181818181818,870,0,26,DL_Guitar,6,5,omokage_stem,0.18221567571163177,0
53,100,0.21818181818181817,131,1,27,DL_Guitar,6,3,omokage_stem,0.9792241454124451,1
63,100,0.33636363636363636,106,1,28,DL_Guitar,6,5,omokage_stem,0.9990280866622925,1
70,100,0.2772727272727273,260,0,28,DL_Guitar,6,4,omokage_stem,0.3703423738479614,0
53,100,0.1,426,0,28,DL_Guitar,6,2,omokage_stem,0.4561746418476105,0
70,100,0.1409090909090909,409,1,29,DL_Guitar,6,2,omokage_stem,0.9792240262031555,1
53,100,0.2409090909090909,607,1,30,DL_Guitar,6,4,omokage_stem,0.9983231425285339,1
58,100,0.8409090909090909,866,1,30,DL_Guitar,6,13,omokage_stem,0.5462182760238647,1
58,100,0.1409090909090909,405,1,31,DL_Guitar,6,2,omokage_stem,0.9792245030403137,1
58,100,0.11818181818181818,43,1,33,DL_Guitar,6,2,omokage_stem,0.9988439083099365,1
58,100,1.0,118,0,33,DL_Guitar,6,15,omokage_stem,0.13797970116138458,0
53,100,0.2,364,1,33,DL_Guitar,6,3,omokage_stem,0.1623625010251999,0
58,100,0.21818181818181817,616,1,33,DL_Guitar,6,3,omokage_stem,0.19105099141597748,0
58,100,0.17727272727272728,765,0,33,DL_Guitar,6,3,omokage_stem,0.2619660496711731,0
53,100,0.2818181818181818,123,1,35,DL_Guitar,6,5,omokage_stem,0.9792238473892212,1
55,100,0.1409090909090909,483,1,36,DL_Guitar,6,2,omokage_stem,0.9983232617378235,1
55,100,0.2,818,1,36,DL_Guitar,6,3,omokage_stem,0.5462145805358887,1
55,100,0.2409090909090909,34,1,37,DL_Guitar,6,4,omokage_stem,0.9988439083099365,1
55,100,0.1409090909090909,228,0,37,DL_Guitar,6,2,omokage_stem,0.13798017799854279,0
53,100,0.1590909090909091,616,1,37,DL_Guitar,6,3,omokage_stem,0.1623593419790268,0
53,100,0.2,678,0,37,DL_Guitar,6,3,omokage_stem,0.19105152785778046,0
53,100,0.2,866,0,37,DL_Guitar,6,3,omokage_stem,0.2619588375091553,0
53,100,0.2,114,1,38,DL_Guitar,6,3,omokage_stem,0.9990280866622925,1
53,100,0.2590909090909091,298,0,38,DL_Guitar,6,4,omokage_stem,0.37033912539482117,0
53,100,0.32272727272727275,431,0,38,DL_Guitar,6,5,omokage_stem,0.4561687707901001,0
53,100,0.22272727272727272,518,1,39,DL_Guitar,6,4,omokage_stem,0.9792248606681824,1
53,100,0.3,13,1,40,DL_Guitar,6,5,omokage_stem,0.9990280866622925,1
58,100,0.3181818181818182,338,1,40,DL_Guitar,6,5,omokage_stem,0.3703426718711853,0
58,100,0.38181818181818183,571,1,40,DL_Guitar,6,6,omokage_stem,0.45616772770881653,0
53,100,0.2409090909090909,813,1,41,DL_Guitar,6,4,omokage_stem,0.9792240262031555,1
53,100,0.2,298,1,42,DL_Guitar,6,3,omokage_stem,0.9792238473892212,1
53,100,0.4636363636363636,378,1,44,DL_Guitar,6,7,omokage_stem,0.9983231425285339,1
53,100,0.1409090909090909,483,0,44,DL_Guitar,6,2,omokage_stem,0.5462141633033752,1
53,100,0.17727272727272728,193,1,46,DL_Guitar,6,3,omokage_stem,0.9983231425285339,1
53,100,0.3409090909090909,246,0,46,DL_Guitar,6,5,omokage_stem,0.5462111830711365,1
53,100,0.4590909090909091,396,1,47,DL_Guitar,6,7,omokage_stem,0.9990280866622925,1
53,100,0.7181818181818181,655,1,47,DL_Guitar,6,11,omokage_stem,0.3703421950340271,0
53,100,0.6818181818181818,839,0,47,DL_Guitar,6,11,omokage_stem,0.45615795254707336,0
58,100,0.5409090909090909,289,1,48,DL_Guitar,6,9,omokage_stem,0.9990280866622925,1
53,100,0.17727272727272728,536,1,48,DL_Guitar,6,3,omokage_stem,0.3703409731388092,0
57,100,0.21818181818181817,791,1,48,DL_Guitar,6,3,omokage_stem,0.45616161823272705,0
53,100,0.21818181818181817,286,1,49,DL_Guitar,6,3,omokage_stem,0.9990280866622925,1
54,100,0.11818181818181818,616,1,49,DL_Guitar,6,2,omokage_stem,0.3703397214412689,0
53,100,0.2590909090909091,678,0,49,DL_Guitar,6,4,omokage_stem,0.45616966485977173,0
53,100,0.2,128,1,50,DL_Guitar,6,3,omokage_stem,0.9988439083099365,1
53,100,0.18181818181818182,286,0,50,DL_Guitar,6,3,omokage_stem,0.1379791796207428,0
53,100,0.11818181818181818,330,0,50,DL_Guitar,6,2,omokage_stem,0.1623552143573761,0
53,100,0.1590909090909091,370,0,50,DL_Guitar,6,3,omokage_stem,0.191050186753273,0
70,100,0.11818181818181818,791,1,50,DL_Guitar,6,2,omokage_stem,0.2619554102420807,0
58,100,0.1409090909090909,681,1,56,DL_Guitar,6,2,omokage_stem,0.9792240262031555,1
53,100,0.11818181818181818,396,1,58,DL_Guitar,6,2,omokage_stem,0.9990094900131226,1
53,100,0.1409090909090909,509,0,58,DL_Guitar,6,2,omokage_stem,0.23322783410549164,0
53,100,0.37727272727272726,646,0,58,DL_Guitar,6,6,omokage_stem,0.27057355642318726,0
58,100,0.11818181818181818,858,0,58,DL_Guitar,6,2,omokage_stem,0.35792475938796997,0
53,100,0.4,150,1,59,DL_Guitar,6,6,omokage_stem,0.9983232617378235,1
58,100,0.12272727272727273,276,0,59,DL_Guitar,6,2,omokage_stem,0.5462185144424438,1
63,100,0.4409090909090909,703,1,74,DL_Guitar,6,7,omokage_stem,0.9983231425285339,1
63,100,0.3409090909090909,826,0,74,DL_Guitar,6,5,omokage_stem,0.5462198853492737,1
53,100,0.3409090909090909,487,1,75,DL_Guitar,6,5,omokage_stem,0.9990280866622925,1
53,100,0.12272727272727273,805,1,75,DL_Guitar,6,2,omokage_stem,0.37033945322036743,0
53,100,0.23636363636363636,876,0,75,DL_Guitar,6,4,omokage_stem,0.4561685621738434,0
58,100,0.1409090909090909,770,1,86,DL_Guitar,6,2,omokage_stem,0.9792246222496033,1
58,100,0.4590909090909091,132,1,87,DL_Guitar,6,7,omokage_stem,0.9983232617378235,1
60,100,0.18181818181818182,487,1,87,DL_Guitar,6,3,omokage_stem,0.5462185144424438,1
53,100,0.1590909090909091,153,1,88,DL_Guitar,6,3,omokage_stem,0.9988439083099365,1
53,100,0.22272727272727272,202,0,88,DL_Guitar,6,4,omokage_stem,0.13798241317272186,0
53,100,0.3,286,0,88,DL_Guitar,6,5,omokage_stem,0.16236615180969238,0
62,100,0.33636363636363636,523,1,88,DL_Guitar,6,5,omokage_stem,0.19105860590934753,0
53,100,0.16363636363636364,839,1,88,DL_Guitar,6,3,omokage_stem,0.2619681656360626,0
58,100,0.5409090909090909,197,1,90,DL_Guitar,6,9,omokage_stem,0.9990280866622925,1
58,100,0.1,509,1,90,DL_Guitar,6,2,omokage_stem,0.3703386187553406,0
62,100,0.1590909090909091,810,1,90,DL_Guitar,6,3,omokage_stem,0.4561682641506195,0
62,100,0.22272727272727272,246,1,91,DL_Guitar,6,4,omokage_stem,0.9983231425285339,1
53,100,1.040909090909091,703,1,91,DL_Guitar,6,15,omokage_stem,0.5462149381637573,1
53,100,0.18181818181818182,289,1,92,DL_Guitar,6,3,omokage_stem,0.9983231425285339,1
53,100,0.4,430,0,92,DL_Guitar,6,6,omokage_stem,0.54621422290802,1
52,100,0.20454545454545456,384,1,0,DL_Guitar_1,6,3,DL_Guitar_1,0.9990094900131226,1
60,100,0.09090909090909091,732,1,0,DL_Guitar_1,6,1,DL_Guitar_1,0.23322951793670654,0
64,100,0.12727272727272726,809,0,0,DL_Guitar_1,6,2,DL_Guitar_1,0.2705816626548767,0
64,100,0.2590909090909091,845,0,0,DL_Guitar_1,6,4,DL_Guitar_1,0.3579273223876953,0
52,100,0.36818181818181817,73,1,1,DL_Guitar_1,6,6,DL_Guitar_1,0.9983735084533691,1
59,100,0.14545454545454545,183,0,1,DL_Guitar_1,6,2,DL_Guitar_1,0.051050446927547455,0
52,100,0.5909090909090909,244,0,1,DL_Guitar_1,6,9,DL_Guitar_1,0.04161272197961807,0
53,100,0.09090909090909091,386,0,1,DL_Guitar_1,6,1,DL_Guitar_1,0.037980224937200546,0
60,100,0.40454545454545454,620,1,1,DL_Guitar_1,6,6,DL_Guitar_1,0.03926112502813339,0
65,100,0.1318181818181818,713,0,1,DL_Guitar_1,6,2,DL_Guitar_1,0.04616716131567955,0
57,100,0.16363636363636364,778,0,1,DL_Guitar_1,6,3,DL_Guitar_1,0.057132963091135025,0
57,100,0.2590909090909091,863,0,1,DL_Guitar_1,6,4,DL_Guitar_1,0.09188201278448105,0
53,100,0.23636363636363636,60,1,2,DL_Guitar_1,6,4,DL_Guitar_1,0.9983004927635193,1
53,100,0.11363636363636363,116,0,2,DL_Guitar_1,6,2,DL_Guitar_1,0.044662900269031525,0
53,100,0.16363636363636364,222,0,2,DL_Guitar_1,6,3,DL_Guitar_1,0.033372048288583755,0
60,100,0.40454545454545454,290,0,2,DL_Guitar_1,6,6,DL_Guitar_1,0.02694869041442871,0
57,100,0.40454545454545454,428,0,2,DL_Guitar_1,6,6,DL_Guitar_1,0.02408374845981598,0
62,100,0.15,573,0,2,DL_Guitar_1,6,2,DL_Guitar_1,0.02497309260070324,0
62,100,0.2772727272727273,638,0,2,DL_Guitar_1,6,4,DL_Guitar_1,0.030648674815893173,0
57,100,0.18181818181818182,776,0,2,DL_Guitar_1,6,3,DL_Guitar_1,0.04136883467435837,0
62,100,0.31363636363636366,852,0,2,DL_Guitar_1,6,5,DL_Guitar_1,0.07207225263118744,0
62,100,0.10909090909090909,210,1,3,DL_Guitar_1,6,2,DL_Guitar_1,0.9990280866622925,1
60,100,0.12727272727272726,663,1,3,DL_Guitar_1,6,2,DL_Guitar_1,0.3703417181968689,0
60,100,0.20454545454545456,877,0,3,DL_Guitar_1,6,3,DL_Guitar_1,0.45617079734802246,0
60,100,0.11363636363636363,551,1,4,DL_Guitar_1,6,2,DL_Guitar_1,0.9986506104469299,1
64,100,0.11363636363636363,633,0,4,DL_Guitar_1,6,2,DL_Guitar_1,0.0879809558391571,0
64,100,0.18181818181818182,682,0,4,DL_Guitar_1,6,3,DL_Guitar_1,0.0929853543639183,0
64,100,0.2772727272727273,733,0,4,DL_Guitar_1,6,4,DL_Guitar_1,0.10995189100503922,0
64,100,0.16818181818181818,799,0,4,DL_Guitar_1,6,3,DL_Guitar_1,0.12867075204849243,0
64,100,0.18181818181818182,851,0,4,DL_Guitar_1,6,3,DL_Guitar_1,0.18222664296627045,0
64,100,0.15,16,1,5,DL_Guitar_1,6,2,DL_Guitar_1,0.9988439083099365,1
52,100,0.09090909090909091,80,0,5,DL_Guitar_1,6,1,DL_Guitar_1,0.13798215985298157,0
52,100,0.4818181818181818,226,0,5,DL_Guitar_1,6,8,DL_Guitar_1,0.16236664354801178,0
60,100,0.29545454545454547,654,1,5,DL_Guitar_1,6,5,DL_Guitar_1,0.19106625020503998,0
57,100,0.7545454545454545,735,0,5,DL_Guitar_1,6,12,DL_Guitar_1,0.2619677484035492,0
60,100,0.10909090909090909,22,1,6,DL_Guitar_1,6,2,DL_Guitar_1,0.9990094900131226,1
62,100,0.2772727272727273,446,1,6,DL_Guitar_1,6,4,DL_Guitar_1,0.23322944343090057,0
62,100,0.31363636363636366,526,0,6,DL_Guitar_1,6,5,DL_Guitar_1,0.2705865502357483,0
62,100,0.2409090909090909,704,0,6,DL_Guitar_1,6,4,DL_Guitar_1,0.3579353094100952,0
62,100,0.4954545454545455,75,1,7,DL_Guitar_1,6,8,DL_Guitar_1,0.9986506104469299,1
62,100,0.12727272727272726,218,0,7,DL_Guitar_1,6,2,DL_Guitar_1,0.08798271417617798,0
62,100,0.22272727272727272,625,1,7,DL_Guitar_1,6,4,DL_Guitar_1,0.09298905730247498,0
62,100,0.16363636363636364,686,0,7,DL_Guitar_1,6,3,DL_Guitar_1,0.10995569825172424,0
62,100,0.15,731,0,7,DL_Guitar_1,6,2,DL_Guitar_1,0.12868079543113708,0
62,100,0.10909090909090909,865,0,7,DL_Guitar_1,6,2,DL_Guitar_1,0.18223397433757782,0
62,100,0.12727272727272726,199,1,8,DL_Guitar_1,6,2,DL_Guitar_1,0.9988439083099365,1
62,100,0.09090909090909091,369,0,8,DL_Guitar_1,6,1,DL_Guitar_1,0.13798527419567108,0
60,100,0.8454545454545455,453,0,8,DL_Guitar_1,6,14,DL_Guitar_1,0.16236990690231323,0
60,100,0.40454545454545454,648,0,8,DL_Guitar_1,6,6,DL_Guitar_1,0.1910679191350937,0
57,100,0.2409090909090909,842,0,8,DL_Guitar_1,6,4,DL_Guitar_1,0.261976033449173,0
60,100,0.14545454545454545,22,1,9,DL_Guitar_1,6,2,DL_Guitar_1,0.9983004927635193,1
53,100,0.20454545454545456,70,0,9,DL_Guitar_1,6,3,DL_Guitar_1,0.04466161131858826,0
59,100,0.09090909090909091,120,0,9,DL_Guitar_1,6,1,DL_Guitar_1,0.033371783792972565,0
59,100,0.38636363636363635,305,0,9,DL_Guitar_1,6,6,DL_Guitar_1,0.02694770134985447,0
60,100,0.09090909090909091,398,0,9,DL_Guitar_1,6,1,DL_Guitar_1,0.024083826690912247,0
60,100,0.7545454545454545,458,0,9,DL_Guitar_1,6,12,DL_Guitar_1,0.0249723382294178,0
55,100,0.22272727272727272,737,1,9,DL_Guitar_1,6,4,DL_Guitar_1,0.03064771182835102,0
53,100,0.09090909090909091,790,0,9,DL_Guitar_1,6,1,DL_Guitar_1,0.04136906936764717,0
55,100,0.16818181818181818,819,0,9,DL_Guitar_1,6,3,DL_Guitar_1,0.07206767797470093,0
55,100,0.14545454545454545,146,1,10,DL_Guitar_1,6,2,DL_Guitar_1,0.9988439083099365,1
55,100,0.18181818181818182,182,0,10,DL_Guitar_1,6,3,DL_Guitar_1,0.1379833221435547,0
62,100,0.09090909090909091,278,0,10,DL_Guitar_1,6,1,DL_Guitar_1,0.1623653769493103,0
62,100,0.36818181818181817,307,0,10,DL_Guitar_1,6,6,DL_Guitar_1,0.19105763733386993,0
55,100,0.6636363636363637,477,0,10,DL_Guitar_1,6,11,DL_Guitar_1,0.2619721293449402,0
52,100,0.44545454545454544,82,1,11,DL_Guitar_1,6,7,DL_Guitar_1,0.9988439083099365,1
52,100,0.1318181818181818,247,0,11,DL_Guitar_1,6,2,DL_Guitar_1,0.1379803866147995,0
53,100,0.12727272727272726,362,0,11,DL_Guitar_1,6,2,DL_Guitar_1,0.1623629778623581,0
60,100,0.16363636363636364,498,0,11,DL_Guitar_1,6,3,DL_Guitar_1,0.1910601258277893,0
67,100,0.5318181818181819,644,0,11,DL_Guitar_1,6,9,DL_Guitar_1,0.26196515560150146,0
53,100,0.18181818181818182,75,1,12,DL_Guitar_1,6,3,DL_Guitar_1,0.9984879493713379,1
53,100,0.14545454545454545,254,0,12,DL_Guitar_1,6,2,DL_Guitar_1,0.06335536390542984,0
55,100,0.11363636363636363,371,0,12,DL_Guitar_1,6,2,DL_Guitar_1,0.058290746062994,0
62,100,0.5681818181818182,508,0,12,DL_Guitar_1,6,9,DL_Guitar_1,0.06136363372206688,0
62,100,0.11363636363636363,665,0,12,DL_Guitar_1,6,2,DL_Guitar_1,0.07168487459421158,0
62,100,0.38636363636363635,694,0,12,DL_Guitar_1,6,6,DL_Guitar_1,0.08473924547433853,0
62,100,0.31363636363636366,792,0,12,DL_Guitar_1,6,5,DL_Guitar_1,0.12635499238967896,0
55,100,0.35,101,1,13,DL_Guitar_1,6,6,DL_Guitar_1,0.9990280866622925,1
55,100,0.12727272727272726,348,1,13,DL_Guitar_1,6,2,DL_Guitar_1,0.3703451454639435,0
64,100,0.33181818181818185,752,1,13,DL_Guitar_1,6,5,DL_Guitar_1,0.456165611743927,0
62,100,0.22272727272727272,1,1,14,DL_Guitar_1,6,4,DL_Guitar_1,0.9988439083099365,1
62,100,0.3090909090909091,123,0,14,DL_Guitar_1,6,5,DL_Guitar_1,0.13798630237579346,0
55,100,0.7,252,0,14,DL_Guitar_1,6,11,DL_Guitar_1,0.16237202286720276,0
52,100,0.33181818181818185,422,0,14,DL_Guitar_1,6,5,DL_Guitar_1,0.19106633961200714,0
55,100,0.36818181818181817,555,0,14,DL_Guitar_1,6,6,DL_Guitar_1,0.2619728147983551,0
52,100,0.18636363636363637,27,1,15,DL_Guitar_1,6,3,DL_Guitar_1,0.9986506104469299,1
52,100,0.16363636363636364,89,0,15,DL_Guitar_1,6,3,DL_Guitar_1,0.08798053115606308,0
60,100,0.18181818181818182,154,0,15,DL_Guitar_1,6,3,DL_Guitar_1,0.09298478811979294,0
52,100,0.6954545454545454,250,0,15,DL_Guitar_1,6,11,DL_Guitar_1,0.10994940251111984,0
60,100,0.2590909090909091,465,0,15,DL_Guitar_1,6,4,DL_Guitar_1,0.12867425382137299,0
65,100,0.12727272727272726,646,0,15,DL_Guitar_1,6,2,DL_Guitar_1,0.18221312761306763,0
65,100,0.14545454545454545,664,1,16,DL_Guitar_1,6,2,DL_Guitar_1,0.9983231425285339,1
65,100,0.11363636363636363,701,0,16,DL_Guitar_1,6,2,DL_Guitar_1,0.5462114810943604,1
53,100,0.16818181818181818,88,1,17,DL_Guitar_1,6,3,DL_Guitar_1,0.9990280866622925,1
53,100,0.10909090909090909,133,0,17,DL_Guitar_1,6,2,DL_Guitar_1,0.37033408880233765,0
64,100,0.29545454545454547,475,1,17,DL_Guitar_1,6,5,DL_Guitar_1,0.4561674892902374,0
52,100,0.23636363636363636,461,1,18,DL_Guitar_1,6,4,DL_Guitar_1,0.9990094900131226,1
60,100,0.6090909090909091,514,0,18,DL_Guitar_1,6,10,DL_Guitar_1,0.23323364555835724,0
55,100,0.14545454545454545,660,0,18,DL_Guitar_1,6,2,DL_Guitar_1,0.2705826759338379,0
55,100,0.7727272727272727,700,0,18,DL_Guitar_1,6,12,DL_Guitar_1,0.35792291164398193,0
55,100,0.16363636363636364,43,1,19,DL_Guitar_1,6,3,DL_Guitar_1,0.9988439083099365,1
55,100,0.22272727272727272,168,0,19,DL_Guitar_1,6,4,DL_Guitar_1,0.13798308372497559,0
52,100,0.5136363636363637,220,0,19,DL_Guitar_1,6,8,DL_Guitar_1,0.16236156225204468,0
52,100,0.1318181818181818,354,0,19,DL_Guitar_1,6,2,DL_Guitar_1,0.19105947017669678,0
55,100,0.4409090909090909,763,1,19,DL_Guitar_1,6,7,DL_Guitar_1,0.2619638442993164,0
55,100,0.29545454545454547,0,1,20,DL_Guitar_1,6,5,DL_Guitar_1,0.9988439083099365,1
62,100,0.12727272727272726,65,0,20,DL_Guitar_1,6,2,DL_Guitar_1,0.1379842758178711,0
55,100,0.18181818181818182,267,0,20,DL_Guitar_1,6,3,DL_Guitar_1,0.16236621141433716,0
55,100,0.34545454545454546,323,0,20,DL_Guitar_1,6,6,DL_Guitar_1,0.1910575032234192,0
52,100,0.2772727272727273,865,1,20,DL_Guitar_1,6,4,DL_Guitar_1,0.26196902990341187,0
52,100,0.18181818181818182,103,1,21,DL_Guitar_1,6,3,DL_Guitar_1,0.9988439083099365,1
52,100,0.2909090909090909,188,0,21,DL_Guitar_1,6,5,DL_Guitar_1,0.13798508048057556,0
52,100,1.3045454545454545,268,0,21,DL_Guitar_1,6,15,DL_Guitar_1,0.16236479580402374,0
55,100,0.11363636363636363,624,1,21,DL_Guitar_1,6,2,DL_Guitar_1,0.1910606473684311,0
52,100,0.2590909090909091,786,0,21,DL_Guitar_1,6,4,DL_Guitar_1,0.26197201013565063,0
55,100,0.2590909090909091,281,1,22,DL_Guitar_1,6,4,DL_Guitar_1,0.9990280866622925,1
56,100,0.10909090909090909,399,0,22,DL_Guitar_1,6,2,DL_Guitar_1,0.3703368306159973,0
60,100,0.8272727272727273,475,0,22,DL_Guitar_1,6,13,DL_Guitar_1,0.4561627209186554,0
52,100,0.4409090909090909,4,1,23,DL_Guitar_1,6,7,DL_Guitar_1,0.9990094900131226,1
55,100,0.2590909090909091,223,0,23,DL_Guitar_1,6,4,DL_Guitar_1,0.23323193192481995,0
55,100,0.22272727272727272,336,0,23,DL_Guitar_1,6,4,DL_Guitar_1,0.27057814598083496,0
59,100,0.23636363636363636,543,0,23,DL_Guitar_1,6,4,DL_Guitar_1,0.35792383551597595,0
52,100,0.29545454545454547,2,1,24,DL_Guitar_1,6,5,DL_Guitar_1,0.9983735084533691,1
52,100,0.5,277,1,24,DL_Guitar_1,6,8,DL_Guitar_1,0.05104750022292137,0
65,100,0.12727272727272726,402,0,24,DL_Guitar_1,6,2,DL_Guitar_1,0.04161019250750542,0
65,100,0.18181818181818182,488,0,24,DL_Guitar_1,6,3,DL_Guitar_1,0.037977736443281174,0
65,100,0.5136363636363637,532,0,24,DL_Guitar_1,6,8,DL_Guitar_1,0.039257243275642395,0
53,100,0.12727272727272726,657,0,24,DL_Guitar_1,6,2,DL_Guitar_1,0.04616239294409752,0
65,100,0.6818181818181818,686,0,24,DL_Guitar_1,6,11,DL_Guitar_1,0.05712859705090523,0
53,100,0.12727272727272726,876,0,24,DL_Guitar_1,6,2,DL_Guitar_1,0.09187788516283035,0
65,100,0.2772727272727273,40,1,25,DL_Guitar_1,6,4,DL_Guitar_1,0.9990094900131226,1
65,100,0.12727272727272726,189,0,25,DL_Guitar_1,6,2,DL_Guitar_1,0.23323026299476624,0
55,100,0.12727272727272726,550,1,25,DL_Guitar_1,6,2,DL_Guitar_1,0.27058014273643494,0
55,100,0.38636363636363635,683,0,25,DL_Guitar_1,6,6,DL_Guitar_1,0.3579268157482147,0
62,100,0.16363636363636364,6,1,26,DL_Guitar_1,6,3,DL_Guitar_1,0.9988439083099365,1
62,100,0.18181818181818182,130,0,26,DL_Guitar_1,6,3,DL_Guitar_1,0.13798673450946808,0
55,100,0.2772727272727273,227,0,26,DL_Guitar_1,6,4,DL_Guitar_1,0.16237162053585052,0
62,100,0.33181818181818185,316,0,26,DL_Guitar_1,6,5,DL_Guitar_1,0.19106365740299225,0
52,100,0.09090909090909091,450,0,26,DL_Guitar_1,6,1,DL_Guitar_1,0.2619822323322296,0
64,100,0.2,246,1,27,DL_Guitar_1,6,3,DL_Guitar_1,0.9792246222496033,1
62,100,0.10909090909090909,324,1,41,DL_Guitar_1,6,2,DL_Guitar_1,0.9983231425285339,1
62,100,0.2590909090909091,410,0,41,DL_Guitar_1,6,4,DL_Guitar_1,0.5462156534194946,1
62,100,0.10909090909090909,60,1,42,DL_Guitar_1,6,2,DL_Guitar_1,0.9986506104469299,1
67,100,0.9181818181818182,83,0,42,DL_Guitar_1,6,15,DL_Guitar_1,0.08798101544380188,0
67,100,0.8090909090909091,297,0,42,DL_Guitar_1,6,13,DL_Guitar_1,0.09298508614301682,0
60,100,0.1318181818181818,483,0,42,DL_Guitar_1,6,2,DL_Guitar_1,0.10995209962129593,0
55,100,0.23636363636363636,702,0,42,DL_Guitar_1,6,4,DL_Guitar_1,0.12867014110088348,0
55,100,0.10909090909090909,799,0,42,DL_Guitar_1,6,2,DL_Guitar_1,0.18221773207187653,0
67,100,0.1318181818181818,142,1,43,DL_Guitar_1,6,2,DL_Guitar_1,0.9983004927635193,1
67,100,0.2590909090909091,194,0,43,DL_Guitar_1,6,4,DL_Guitar_1,0.04466228932142258,0
67,100,0.32727272727272727,255,0,43,DL_Guitar_1,6,5,DL_Guitar_1,0.03337256982922554,0
67,100,0.33181818181818185,336,0,43,DL_Guitar_1,6,5,DL_Guitar_1,0.026947828009724617,0
55,100,0.2,441,0,43,DL_Guitar_1,6,3,DL_Guitar_1,0.024084310978651047,0
55,100,0.2409090909090909,489,0,43,DL_Guitar_1,6,4,DL_Guitar_1,0.024973927065730095,0
55,100,0.2772727272727273,563,0,43,DL_Guitar_1,6,4,DL_Guitar_1,0.03064778260886669,0
55,100,0.16818181818181818,700,0,43,DL_Guitar_1,6,3,DL_Guitar_1,0.041371192783117294,0
62,100,0.2409090909090909,772,0,43,DL_Guitar_1,6,4,DL_Guitar_1,0.07206960767507553,0
67,100,0.11363636363636363,1,1,44,DL_Guitar_1,6,2,DL_Guitar_1,0.9983735084533691,1
62,100,0.10909090909090909,123,0,44,DL_Guitar_1,6,2,DL_Guitar_1,0.051050081849098206,0
67,100,0.16363636363636364,151,0,44,DL_Guitar_1,6,3,DL_Guitar_1,0.041612789034843445,0
67,100,0.2909090909090909,217,0,44,DL_Guitar_1,6,5,DL_Guitar_1,0.03798071667551994,0
67,100,0.8454545454545455,294,0,44,DL_Guitar_1,6,14,DL_Guitar_1,0.03925930708646774,0
65,100,0.36818181818181817,483,0,44,DL_Guitar_1,6,6,DL_Guitar_1,0.046166930347681046,0
65,100,0.5863636363636363,569,0,44,DL_Guitar_1,6,9,DL_Guitar_1,0.057130906730890274,0
65,100,0.7909090909090909,701,0,44,DL_Guitar_1,6,13,DL_Guitar_1,0.09188076853752136,0
64,100,0.5318181818181819,150,1,45,DL_Guitar_1,6,9,DL_Guitar_1,0.9986506104469299,1
64,100,0.4409090909090909,298,0,45,DL_Guitar_1,6,7,DL_Guitar_1,0.08797965198755264,0
67,100,0.10909090909090909,456,0,45,DL_Guitar_1,6,2,DL_Guitar_1,0.09298548847436905,0
60,100,0.31363636363636366,537,0,45,DL_Guitar_1,6,5,DL_Guitar_1,0.10994981229305267,0
60,100,0.18181818181818182,715,0,45,DL_Guitar_1,6,3,DL_Guitar_1,0.12867195904254913,0
60,100,0.8272727272727273,792,0,45,DL_Guitar_1,6,13,DL_Guitar_1,0.18221963942050934,0
60,100,0.10909090909090909,103,1,46,DL_Guitar_1,6,2,DL_Guitar_1,0.9984880685806274,1
60,100,0.29545454545454547,151,0,46,DL_Guitar_1,6,5,DL_Guitar_1,0.06335407495498657,0
60,100,0.8818181818181818,235,0,46,DL_Guitar_1,6,14,DL_Guitar_1,0.058289021253585815,0
60,100,0.10909090909090909,467,1,46,DL_Guitar_1,6,2,DL_Guitar_1,0.061362024396657944,0
55,100,0.6045454545454545,495,0,46,DL_Guitar_1,6,10,DL_Guitar_1,0.07168484479188919,0
55,100,0.4818181818181818,713,0,46,DL_Guitar_1,6,8,DL_Guitar_1,0.08473856002092361,0
55,100,0.6636363636363637,874,0,46,DL_Guitar_1,6,11,DL_Guitar_1,0.12635166943073273,0
55,100,0.2,144,1,47,DL_Guitar_1,6,3,DL_Guitar_1,0.9988439083099365,1
55,100,0.8454545454545455,192,0,47,DL_Guitar_1,6,14,DL_Guitar_1,0.13798584043979645,0
67,100,0.15,386,0,47,DL_Guitar_1,6,2,DL_Guitar_1,0.16237235069274902,0
55,100,0.16363636363636364,419,0,47,DL_Guitar_1,6,3,DL_Guitar_1,0.19106455147266388,0
55,100,1.4681818181818183,602,0,47,DL_Guitar_1,6,15,DL_Guitar_1,0.2619565427303314,0
67,100,0.11363636363636363,45,1,48,DL_Guitar_1,6,2,DL_Guitar_1,0.9986506104469299,1
55,100,0.10909090909090909,122,0,48,DL_Guitar_1,6,2,DL_Guitar_1,0.0879787877202034,0
55,100,0.35,153,0,48,DL_Guitar_1,6,6,DL_Guitar_1,0.09298279881477356,0
67,100,0.2590909090909091,295,0,48,DL_Guitar_1,6,4,DL_Guitar_1,0.10994599014520645,0
60,100,0.2590909090909091,603,1,48,DL_Guitar_1,6,4,DL_Guitar_1,0.12866784632205963,0
65,100,0.18181818181818182,797,0,48,DL_Guitar_1,6,3,DL_Guitar_1,0.18221084773540497,0
62,100,0.14545454545454545,14,1,49,DL_Guitar_1,6,2,DL_Guitar_1,0.9983004927635193,1
60,100,0.33181818181818185,55,0,49,DL_Guitar_1,6,5,DL_Guitar_1,0.044662993401288986,0
65,100,0.14545454545454545,139,0,49,DL_Guitar_1,6,2,DL_Guitar_1,0.033371906727552414,0
62,100,0.12727272727272726,225,0,49,DL_Guitar_1,6,2,DL_Guitar_1,0.026948565617203712,0
60,100,0.09090909090909091,294,0,49,DL_Guitar_1,6,1,DL_Guitar_1,0.024084659293293953,0
65,100,0.6818181818181818,337,0,49,DL_Guitar_1,6,11,DL_Guitar_1,0.024973850697278976,0
55,100,0.44545454545454544,556,0,49,DL_Guitar_1,6,7,DL_Guitar_1,0.030649850144982338,0
55,100,0.2590909090909091,709,0,49,DL_Guitar_1,6,4,DL_Guitar_1,0.041371192783117294,0
55,100,0.20454545454545456,795,0,49,DL_Guitar_1,6,3,DL_Guitar_1,0.07207169383764267,0
55,100,0.23636363636363636,56,1,50,DL_Guitar_1,6,4,DL_Guitar_1,0.9988439083099365,1
55,100,0.35,112,0,50,DL_Guitar_1,6,6,DL_Guitar_1,0.13798554241657257,0
55,100,0.7,193,0,50,DL_Guitar_1,6,11,DL_Guitar_1,0.16236630082130432,0
62,100,0.18636363636363637,396,0,50,DL_Guitar_1,6,3,DL_Guitar_1,0.1910618096590042,0
57,100,0.7363636363636363,501,0,50,DL_Guitar_1,6,12,DL_Guitar_1,0.26196250319480896,0
55,100,0.15,57,1,51,DL_Guitar_1,6,2,DL_Guitar_1,0.9983231425285339,1
62,100,0.8272727272727273,284,0,51,DL_Guitar_1,6,13,DL_Guitar_1,0.54621821641922,1
67,100,0.2727272727272727,404,1,52,DL_Guitar_1,6,4,DL_Guitar_1,0.9990094900131226,1
55,100,0.21818181818181817,508,0,52,DL_Guitar_1,6,3,DL_Guitar_1,0.23323960602283478,0
55,100,0.4409090909090909,653,0,52,DL_Guitar_1,6,7,DL_Guitar_1,0.2705899178981781,0
57,100,0.10909090909090909,819,0,52,DL_Guitar_1,6,2,DL_Guitar_1,0.3579171299934387,0
55,100,0.7363636363636363,178,1,53,DL_Guitar_1,6,12,DL_Guitar_1,0.9986506104469299,1
55,100,0.2727272727272727,357,0,53,DL_Guitar_1,6,4,DL_Guitar_1,0.08798298239707947,0
55,100,0.18181818181818182,449,0,53,DL_Guitar_1,6,3,DL_Guitar_1,0.09298631548881531,0
55,100,0.10909090909090909,680,0,53,DL_Guitar_1,6,2,DL_Guitar_1,0.10995271056890488,0
55,100,0.1318181818181818,792,0,53,DL_Guitar_1,6,2,DL_Guitar_1,0.12867392599582672,0
55,100,0.8454545454545455,825,0,53,DL_Guitar_1,6,14,DL_Guitar_1,0.1822090595960617,0
55,100,0.6272727272727273,148,1,54,DL_Guitar_1,6,10,DL_Guitar_1,0.9990094900131226,1
55,100,0.10909090909090909,330,0,54,DL_Guitar_1,6,2,DL_Guitar_1,0.233235165476799,0
55,100,0.4409090909090909,378,0,54,DL_Guitar_1,6,7,DL_Guitar_1,0.2705744206905365,0
55,100,0.6272727272727273,698,1,54,DL_Guitar_1,6,10,DL_Guitar_1,0.357915461063385,0
62,100,0.20454545454545456,12,1,55,DL_Guitar_1,6,3,DL_Guitar_1,0.9983736276626587,1
55,100,0.18636363636363637,190,0,55,DL_Guitar_1,6,3,DL_Guitar_1,0.05105004087090492,0
62,100,0.10909090909090909,267,0,55,DL_Guitar_1,6,2,DL_Guitar_1,0.04161296784877777,0
55,100,0.22272727272727272,404,0,55,DL_Guitar_1,6,4,DL_Guitar_1,0.037982210516929626,0
55,100,0.2772727272727273,456,0,55,DL_Guitar_1,6,4,DL_Guitar_1,0.03926225006580353,0
55,100,0.40454545454545454,611,0,55,DL_Guitar_1,6,6,DL_Guitar_1,0.04616754129528999,0
55,100,0.4772727272727273,731,0,55,DL_Guitar_1,6,8,DL_Guitar_1,0.057134710252285004,0
55,100,0.5,857,0,55,DL_Guitar_1,6,8,DL_Guitar_1,0.09188022464513779,0
55,100,0.16818181818181818,151,1,56,DL_Guitar_1,6,3,DL_Guitar_1,0.9984880685806274,1
67,100,0.10909090909090909,196,0,56,DL_Guitar_1,6,2,DL_Guitar_1,0.06335309892892838,0
52,100,0.18181818181818182,296,0,56,DL_Guitar_1,6,3,DL_Guitar_1,0.05828922986984253,0
55,100,0.31363636363636366,421,0,56,DL_Guitar_1,6,5,DL_Guitar_1,0.06136240437626839,0
57,100,0.10909090909090909,648,0,56,DL_Guitar_1,6,2,DL_Guitar_1,0.07168304920196533,0
55,100,0.2772727272727273,782,0,56,DL_Guitar_1,6,4,DL_Guitar_1,0.08474065363407135,0
55,100,1.4863636363636363,846,0,56,DL_Guitar_1,6,15,DL_Guitar_1,0.1263473480939865,0
55,100,0.9409090909090909,297,1,57,DL_Guitar_1,6,15,DL_Guitar_1,0.9990280866622925,1
55,100,1.1045454545454545,521,0,57,DL_Guitar_1,6,15,DL_Guitar_1,0.3703426718711853,0
55,100,0.16363636363636364,776,1,57,DL_Guitar_1,6,3,DL_Guitar_1,0.45616263151168823,0
60,100,0.2590909090909091,13,1,58,DL_Guitar_1,6,4,DL_Guitar_1,0.9990280866622925,1
55,100,0.9545454545454546,206,0,58,DL_Guitar_1,6,15,DL_Guitar_1,0.370336651802063,0
55,100,0.1318181818181818,428,0,58,DL_Guitar_1,6,2,DL_Guitar_1,0.4561693072319031,0
62,100,0.2909090909090909,14,1,59,DL_Guitar_1,6,5,DL_Guitar_1,0.9988439083099365,1
55,100,1.05,90,0,59,DL_Guitar_1,6,15,DL_Guitar_1,0.13798075914382935,0
62,100,0.22272727272727272,337,1,59,DL_Guitar_1,6,4,DL_Guitar_1,0.16236604750156403,0
62,100,0.2772727272727273,451,0,59,DL_Guitar_1,6,4,DL_Guitar_1,0.19106052815914154,0
60,100,0.14545454545454545,852,1,59,DL_Guitar_1,6,2,DL_Guitar_1,0.2619779407978058,0
55,100,0.18181818181818182,93,1,60,DL_Guitar_1,6,3,DL_Guitar_1,0.9990094900131226,1
55,100,0.7,302,0,60,DL_Guitar_1,6,11,DL_Guitar_1,0.23322772979736328,0
57,100,0.38636363636363635,618,1,60,DL_Guitar_1,6,6,DL_Guitar_1,0.27058321237564087,0
55,100,0.9954545454545455,751,0,60,DL_Guitar_1,6,15,DL_Guitar_1,0.3579261302947998,0
55,100,0.31363636363636366,199,1,61,DL_Guitar_1,6,5,DL_Guitar_1,0.9983004927635193,1
55,100,0.2772727272727273,349,0,61,DL_Guitar_1,6,4,DL_Guitar_1,0.0446632094681263,0
67,100,0.20454545454545456,410,0,61,DL_Guitar_1,6,3,DL_Guitar_1,0.03337077051401138,0
55,100,0.21818181818181817,462,0,61,DL_Guitar_1,6,3,DL_Guitar_1,0.02694803848862648,0
55,100,0.09545454545454546,538,0,61,DL_Guitar_1,6,2,DL_Guitar_1,0.024083292111754417,0
55,100,0.12727272727272726,563,0,61,DL_Guitar_1,6,2,DL_Guitar_1,0.024972129613161087,0
55,100,0.2727272727272727,637,0,61,DL_Guitar_1,6,4,DL_Guitar_1,0.030646948143839836,0
55,100,0.40454545454545454,705,0,61,DL_Guitar_1,6,6,DL_Guitar_1,0.04136807844042778,0
60,100,0.15,797,0,61,DL_Guitar_1,6,2,DL_Guitar_1,0.07206984609365463,0
55,100,0.5909090909090909,19,1,62,DL_Guitar_1,6,9,DL_Guitar_1,0.9983735084533691,1
55,100,0.36818181818181817,165,0,62,DL_Guitar_1,6,6,DL_Guitar_1,0.0510500892996788,0
67,100,0.09090909090909091,254,0,62,DL_Guitar_1,6,1,DL_Guitar_1,0.04161298647522926,0
55,100,0.8272727272727273,289,0,62,DL_Guitar_1,6,13,DL_Guitar_1,0.03797873854637146,0
55,100,0.12727272727272726,501,0,62,DL_Guitar_1,6,2,DL_Guitar_1,0.03925972431898117,0
62,100,0.7,541,0,62,DL_Guitar_1,6,11,DL_Guitar_1,0.0461638979613781,0
74,100,0.23636363636363636,796,1,62,DL_Guitar_1,6,4,DL_Guitar_1,0.057132091373205185,0
67,100,0.12727272727272726,873,0,62,DL_Guitar_1,6,2,DL_Guitar_1,0.09187909215688705,0
62,100,0.12727272727272726,206,1,63,DL_Guitar_1,6,2,DL_Guitar_1,0.9990280866622925,1
55,100,0.23636363636363636,364,0,63,DL_Guitar_1,6,4,DL_Guitar_1,0.37034592032432556,0
55,100,1.4681818181818183,547,0,63,DL_Guitar_1,6,15,DL_Guitar_1,0.4561629295349121,0
55,100,0.42272727272727273,11,1,64,DL_Guitar_1,6,7,DL_Guitar_1,0.9982556700706482,1
52,100,0.10909090909090909,115,0,64,DL_Guitar_1,6,2,DL_Guitar_1,0.04129401966929436,0
55,100,0.09545454545454546,188,0,64,DL_Guitar_1,6,2,DL_Guitar_1,0.029125994071364403,0
67,100,0.42272727272727273,212,0,64,DL_Guitar_1,6,7,DL_Guitar_1,0.021569939330220222,0
55,100,1.009090909090909,305,0,64,DL_Guitar_1,6,15,DL_Guitar_1,0.017059551551938057,0
57,100,0.11363636363636363,632,1,64,DL_Guitar_1,6,2,DL_Guitar_1,0.015268540009856224,0
55,100,0.2545454545454545,670,0,64,DL_Guitar_1,6,4,DL_Guitar_1,0.016456563025712967,0
55,100,0.11363636363636363,738,0,64,DL_Guitar_1,6,2,DL_Guitar_1,0.021837355569005013,0
60,100,0.10909090909090909,762,0,64,DL_Guitar_1,6,2,DL_Guitar_1,0.03251967206597328,0
55,100,0.29545454545454547,802,0,64,DL_Guitar_1,6,5,DL_Guitar_1,0.060911763459444046,0
55,100,0.42272727272727273,0,1,65,DL_Guitar_1,6,7,DL_Guitar_1,0.9983735084533691,1
62,100,0.2909090909090909,141,0,65,DL_Guitar_1,6,5,DL_Guitar_1,0.0510505773127079,0
62,100,0.35,218,0,65,DL_Guitar_1,6,6,DL_Guitar_1,0.04161321744322777,0
62,100,0.38636363636363635,299,0,65,DL_Guitar_1,6,6,DL_Guitar_1,0.03798237070441246,0
55,100,0.5318181818181819,412,0,65,DL_Guitar_1,6,9,DL_Guitar_1,0.039263058453798294,0
55,100,0.1318181818181818,577,0,65,DL_Guitar_1,6,2,DL_Guitar_1,0.04617050290107727,0
55,100,1.0272727272727273,627,0,65,DL_Guitar_1,6,15,DL_Guitar_1,0.057136356830596924,0
55,100,2.040909090909091,861,1,65,DL_Guitar_1,6,15,DL_Guitar_1,0.09188291430473328,0
67,100,0.1318181818181818,429,1,66,DL_Guitar_1,6,2,DL_Guitar_1,0.9990094900131226,1
55,100,0.38636363636363635,458,0,66,DL_Guitar_1,6,6,DL_Guitar_1,0.23322707414627075,0
60,100,0.7727272727272727,560,0,66,DL_Guitar_1,6,12,DL_Guitar_1,0.27057886123657227,0
60,100,0.6227272727272727,733,0,66,DL_Guitar_1,6,10,DL_Guitar_1,0.35793134570121765,0
67,100,0.10909090909090909,225,1,67,DL_Guitar_1,6,2,DL_Guitar_1,0.9988439083099365,1
67,100,0.12727272727272726,424,0,67,DL_Guitar_1,6,2,DL_Guitar_1,0.13798312842845917,0
55,100,0.11363636363636363,476,0,67,DL_Guitar_1,6,2,DL_Guitar_1,0.16236330568790436,0
55,100,0.10909090909090909,533,0,67,DL_Guitar_1,6,2,DL_Guitar_1,0.19105543196201324,0
55,100,1.1181818181818182,605,0,67,DL_Guitar_1,6,15,DL_Guitar_1,0.2619560956954956,0
55,100,1.9090909090909092,0,1,68,DL_Guitar_1,6,15,DL_Guitar_1,0.9792230129241943,1
52,100,0.20454545454545456,384,1,0,DL_Guitar_2,6,3,DL_Guitar_2,0.9990094900131226,1
60,100,0.09090909090909091,732,1,0,DL_Guitar_2,6,1,DL_Guitar_2,0.23322951793670654,0
64,100,0.12727272727272726,809,0,0,DL_Guitar_2,6,2,DL_Guitar_2,0.2705816626548767,0
64,100,0.2590909090909091,845,0,0,DL_Guitar_2,6,4,DL_Guitar_2,0.3579273223876953,0
52,100,0.36818181818181817,73,1,1,DL_Guitar_2,6,6,DL_Guitar_2,0.9983735084533691,1
59,100,0.14545454545454545,183,0,1,DL_Guitar_2,6,2,DL_Guitar_2,0.051050446927547455,0
52,100,0.5909090909090909,244,0,1,DL_Guitar_2,6,9,DL_Guitar_2,0.04161272197961807,0
53,100,0.09090909090909091,386,0,1,DL_Guitar_2,6,1,DL_Guitar_2,0.037980224937200546,0
60,100,0.40454545454545454,620,1,1,DL_Guitar_2,6,6,DL_Guitar_2,0.03926112502813339,0
65,100,0.1318181818181818,713,0,1,DL_Guitar_2,6,2,DL_Guitar_2,0.04616716131567955,0
57,100,0.16363636363636364,778,0,1,DL_Guitar_2,6,3,DL_Guitar_2,0.057132963091135025,0
57,100,0.2590909090909091,863,0,1,DL_Guitar_2,6,4,DL_Guitar_2,0.09188201278448105,0
53,100,0.23636363636363636,60,1,2,DL_Guitar_2,6,4,DL_Guitar_2,0.9983004927635193,1
53,100,0.11363636363636363,116,0,2,DL_Guitar_2,6,2,DL_Guitar_2,0.044662900269031525,0
53,100,0.16363636363636364,222,0,2,DL_Guitar_2,6,3,DL_Guitar_2,0.033372048288583755,0
60,100,0.40454545454545454,290,0,2,DL_Guitar_2,6,6,DL_Guitar_2,0.02694869041442871,0
57,100,0.40454545454545454,428,0,2,DL_Guitar_2,6,6,DL_Guitar_2,0.02408374845981598,0
62,100,0.15,573,0,2,DL_Guitar_2,6,2,DL_Guitar_2,0.02497309260070324,0
62,100,0.2772727272727273,638,0,2,DL_Guitar_2,6,4,DL_Guitar_2,0.030648674815893173,0
57,100,0.18181818181818182,776,0,2,DL_Guitar_2,6,3,DL_Guitar_2,0.04136883467435837,0
62,100,0.31363636363636366,852,0,2,DL_Guitar_2,6,5,DL_Guitar_2,0.07207225263118744,0
62,100,0.10909090909090909,210,1,3,DL_Guitar_2,6,2,DL_Guitar_2,0.9990280866622925,1
60,100,0.12727272727272726,663,1,3,DL_Guitar_2,6,2,DL_Guitar_2,0.3703417181968689,0
60,100,0.20454545454545456,877,0,3,DL_Guitar_2,6,3,DL_Guitar_2,0.45617079734802246,0
60,100,0.11363636363636363,551,1,4,DL_Guitar_2,6,2,DL_Guitar_2,0.9986506104469299,1
64,100,0.11363636363636363,633,0,4,DL_Guitar_2,6,2,DL_Guitar_2,0.0879809558391571,0
64,100,0.18181818181818182,682,0,4,DL_Guitar_2,6,3,DL_Guitar_2,0.0929853543639183,0
64,100,0.2772727272727273,733,0,4,DL_Guitar_2,6,4,DL_Guitar_2,0.10995189100503922,0
64,100,0.16818181818181818,799,0,4,DL_Guitar_2,6,3,DL_Guitar_2,0.12867075204849243,0
64,100,0.18181818181818182,851,0,4,DL_Guitar_2,6,3,DL_Guitar_2,0.18222664296627045,0
64,100,0.15,16,1,5,DL_Guitar_2,6,2,DL_Guitar_2,0.9988439083099365,1
52,100,0.09090909090909091,80,0,5,DL_Guitar_2,6,1,DL_Guitar_2,0.13798215985298157,0
52,100,0.4818181818181818,226,0,5,DL_Guitar_2,6,8,DL_Guitar_2,0.16236664354801178,0
60,100,0.29545454545454547,654,1,5,DL_Guitar_2,6,5,DL_Guitar_2,0.19106625020503998,0
57,100,0.7545454545454545,735,0,5,DL_Guitar_2,6,12,DL_Guitar_2,0.2619677484035492,0
60,100,0.10909090909090909,22,1,6,DL_Guitar_2,6,2,DL_Guitar_2,0.9990094900131226,1
62,100,0.2772727272727273,446,1,6,DL_Guitar_2,6,4,DL_Guitar_2,0.23322944343090057,0
62,100,0.31363636363636366,526,0,6,DL_Guitar_2,6,5,DL_Guitar_2,0.2705865502357483,0
62,100,0.2409090909090909,704,0,6,DL_Guitar_2,6,4,DL_Guitar_2,0.3579353094100952,0
62,100,0.4954545454545455,75,1,7,DL_Guitar_2,6,8,DL_Guitar_2,0.9986506104469299,1
62,100,0.12727272727272726,218,0,7,DL_Guitar_2,6,2,DL_Guitar_2,0.08798271417617798,0
62,100,0.22272727272727272,625,1,7,DL_Guitar_2,6,4,DL_Guitar_2,0.09298905730247498,0
62,100,0.16363636363636364,686,0,7,DL_Guitar_2,6,3,DL_Guitar_2,0.10995569825172424,0
62,100,0.15,731,0,7,DL_Guitar_2,6,2,DL_Guitar_2,0.12868079543113708,0
62,100,0.10909090909090909,865,0,7,DL_Guitar_2,6,2,DL_Guitar_2,0.18223397433757782,0
62,100,0.12727272727272726,199,1,8,DL_Guitar_2,6,2,DL_Guitar_2,0.9988439083099365,1
62,100,0.09090909090909091,369,0,8,DL_Guitar_2,6,1,DL_Guitar_2,0.13798527419567108,0
60,100,0.8454545454545455,453,0,8,DL_Guitar_2,6,14,DL_Guitar_2,0.16236990690231323,0
60,100,0.40454545454545454,648,0,8,DL_Guitar_2,6,6,DL_Guitar_2,0.1910679191350937,0
57,100,0.2409090909090909,842,0,8,DL_Guitar_2,6,4,DL_Guitar_2,0.261976033449173,0
60,100,0.14545454545454545,22,1,9,DL_Guitar_2,6,2,DL_Guitar_2,0.9983004927635193,1
53,100,0.20454545454545456,70,0,9,DL_Guitar_2,6,3,DL_Guitar_2,0.04466161131858826,0
59,100,0.09090909090909091,120,0,9,DL_Guitar_2,6,1,DL_Guitar_2,0.033371783792972565,0
59,100,0.38636363636363635,305,0,9,DL_Guitar_2,6,6,DL_Guitar_2,0.02694770134985447,0
60,100,0.09090909090909091,398,0,9,DL_Guitar_2,6,1,DL_Guitar_2,0.024083826690912247,0
60,100,0.7545454545454545,458,0,9,DL_Guitar_2,6,12,DL_Guitar_2,0.0249723382294178,0
55,100,0.22272727272727272,737,1,9,DL_Guitar_2,6,4,DL_Guitar_2,0.03064771182835102,0
53,100,0.09090909090909091,790,0,9,DL_Guitar_2,6,1,DL_Guitar_2,0.04136906936764717,0
55,100,0.16818181818181818,819,0,9,DL_Guitar_2,6,3,DL_Guitar_2,0.07206767797470093,0
55,100,0.14545454545454545,146,1,10,DL_Guitar_2,6,2,DL_Guitar_2,0.9988439083099365,1
55,100,0.18181818181818182,182,0,10,DL_Guitar_2,6,3,DL_Guitar_2,0.1379833221435547,0
62,100,0.09090909090909091,278,0,10,DL_Guitar_2,6,1,DL_Guitar_2,0.1623653769493103,0
62,100,0.36818181818181817,307,0,10,DL_Guitar_2,6,6,DL_Guitar_2,0.19105763733386993,0
55,100,0.6636363636363637,477,0,10,DL_Guitar_2,6,11,DL_Guitar_2,0.2619721293449402,0
52,100,0.44545454545454544,82,1,11,DL_Guitar_2,6,7,DL_Guitar_2,0.9988439083099365,1
52,100,0.1318181818181818,247,0,11,DL_Guitar_2,6,2,DL_Guitar_2,0.1379803866147995,0
53,100,0.12727272727272726,362,0,11,DL_Guitar_2,6,2,DL_Guitar_2,0.1623629778623581,0
60,100,0.16363636363636364,498,0,11,DL_Guitar_2,6,3,DL_Guitar_2,0.1910601258277893,0
67,100,0.5318181818181819,644,0,11,DL_Guitar_2,6,9,DL_Guitar_2,0.26196515560150146,0
53,100,0.18181818181818182,75,1,12,DL_Guitar_2,6,3,DL_Guitar_2,0.9984879493713379,1
53,100,0.14545454545454545,254,0,12,DL_Guitar_2,6,2,DL_Guitar_2,0.06335536390542984,0
55,100,0.11363636363636363,371,0,12,DL_Guitar_2,6,2,DL_Guitar_2,0.058290746062994,0
62,100,0.5681818181818182,508,0,12,DL_Guitar_2,6,9,DL_Guitar_2,0.06136363372206688,0
62,100,0.11363636363636363,665,0,12,DL_Guitar_2,6,2,DL_Guitar_2,0.07168487459421158,0
62,100,0.38636363636363635,694,0,12,DL_Guitar_2,6,6,DL_Guitar_2,0.08473924547433853,0
62,100,0.31363636363636366,792,0,12,DL_Guitar_2,6,5,DL_Guitar_2,0.12635499238967896,0
55,100,0.35,101,1,13,DL_Guitar_2,6,6,DL_Guitar_2,0.9990280866622925,1
55,100,0.12727272727272726,348,1,13,DL_Guitar_2,6,2,DL_Guitar_2,0.3703451454639435,0
64,100,0.33181818181818185,752,1,13,DL_Guitar_2,6,5,DL_Guitar_2,0.456165611743927,0
62,100,0.22272727272727272,1,1,14,DL_Guitar_2,6,4,DL_Guitar_2,0.9988439083099365,1
62,100,0.3090909090909091,123,0,14,DL_Guitar_2,6,5,DL_Guitar_2,0.13798630237579346,0
55,100,0.7,252,0,14,DL_Guitar_2,6,11,DL_Guitar_2,0.16237202286720276,0
52,100,0.33181818181818185,422,0,14,DL_Guitar_2,6,5,DL_Guitar_2,0.19106633961200714,0
55,100,0.36818181818181817,555,0,14,DL_Guitar_2,6,6,DL_Guitar_2,0.2619728147983551,0
52,100,0.18636363636363637,27,1,15,DL_Guitar_2,6,3,DL_Guitar_2,0.9986506104469299,1
52,100,0.16363636363636364,89,0,15,DL_Guitar_2,6,3,DL_Guitar_2,0.08798053115606308,0
60,100,0.18181818181818182,154,0,15,DL_Guitar_2,6,3,DL_Guitar_2,0.09298478811979294,0
52,100,0.6954545454545454,250,0,15,DL_Guitar_2,6,11,DL_Guitar_2,0.10994940251111984,0
60,100,0.2590909090909091,465,0,15,DL_Guitar_2,6,4,DL_Guitar_2,0.12867425382137299,0
65,100,0.12727272727272726,646,0,15,DL_Guitar_2,6,2,DL_Guitar_2,0.18221312761306763,0
65,100,0.14545454545454545,664,1,16,DL_Guitar_2,6,2,DL_Guitar_2,0.9983231425285339,1
65,100,0.11363636363636363,701,0,16,DL_Guitar_2,6,2,DL_Guitar_2,0.5462114810943604,1
53,100,0.16818181818181818,88,1,17,DL_Guitar_2,6,3,DL_Guitar_2,0.9990280866622925,1
53,100,0.10909090909090909,133,0,17,DL_Guitar_2,6,2,DL_Guitar_2,0.37033408880233765,0
64,100,0.29545454545454547,475,1,17,DL_Guitar_2,6,5,DL_Guitar_2,0.4561674892902374,0
52,100,0.23636363636363636,461,1,18,DL_Guitar_2,6,4,DL_Guitar_2,0.9990094900131226,1
60,100,0.6090909090909091,514,0,18,DL_Guitar_2,6,10,DL_Guitar_2,0.23323364555835724,0
55,100,0.14545454545454545,660,0,18,DL_Guitar_2,6,2,DL_Guitar_2,0.2705826759338379,0
55,100,0.7727272727272727,700,0,18,DL_Guitar_2,6,12,DL_Guitar_2,0.35792291164398193,0
55,100,0.16363636363636364,43,1,19,DL_Guitar_2,6,3,DL_Guitar_2,0.9988439083099365,1
55,100,0.22272727272727272,168,0,19,DL_Guitar_2,6,4,DL_Guitar_2,0.13798308372497559,0
52,100,0.5136363636363637,220,0,19,DL_Guitar_2,6,8,DL_Guitar_2,0.16236156225204468,0
52,100,0.1318181818181818,354,0,19,DL_Guitar_2,6,2,DL_Guitar_2,0.19105947017669678,0
55,100,0.4409090909090909,763,1,19,DL_Guitar_2,6,7,DL_Guitar_2,0.2619638442993164,0
55,100,0.29545454545454547,0,1,20,DL_Guitar_2,6,5,DL_Guitar_2,0.9988439083099365,1
62,100,0.12727272727272726,65,0,20,DL_Guitar_2,6,2,DL_Guitar_2,0.1379842758178711,0
55,100,0.18181818181818182,267,0,20,DL_Guitar_2,6,3,DL_Guitar_2,0.16236621141433716,0
55,100,0.34545454545454546,323,0,20,DL_Guitar_2,6,6,DL_Guitar_2,0.1910575032234192,0
52,100,0.2772727272727273,865,1,20,DL_Guitar_2,6,4,DL_Guitar_2,0.26196902990341187,0
52,100,0.18181818181818182,103,1,21,DL_Guitar_2,6,3,DL_Guitar_2,0.9988439083099365,1
52,100,0.2909090909090909,188,0,21,DL_Guitar_2,6,5,DL_Guitar_2,0.13798508048057556,0
52,100,1.3045454545454545,268,0,21,DL_Guitar_2,6,15,DL_Guitar_2,0.16236479580402374,0
55,100,0.11363636363636363,624,1,21,DL_Guitar_2,6,2,DL_Guitar_2,0.1910606473684311,0
52,100,0.2590909090909091,786,0,21,DL_Guitar_2,6,4,DL_Guitar_2,0.26197201013565063,0
55,100,0.2590909090909091,281,1,22,DL_Guitar_2,6,4,DL_Guitar_2,0.9990280866622925,1
56,100,0.10909090909090909,399,0,22,DL_Guitar_2,6,2,DL_Guitar_2,0.3703368306159973,0
60,100,0.8272727272727273,475,0,22,DL_Guitar_2,6,13,DL_Guitar_2,0.4561627209186554,0
52,100,0.4409090909090909,4,1,23,DL_Guitar_2,6,7,DL_Guitar_2,0.9990094900131226,1
55,100,0.2590909090909091,223,0,23,DL_Guitar_2,6,4,DL_Guitar_2,0.23323193192481995,0
55,100,0.22272727272727272,336,0,23,DL_Guitar_2,6,4,DL_Guitar_2,0.27057814598083496,0
59,100,0.23636363636363636,543,0,23,DL_Guitar_2,6,4,DL_Guitar_2,0.35792383551597595,0
52,100,0.29545454545454547,2,1,24,DL_Guitar_2,6,5,DL_Guitar_2,0.9983735084533691,1
52,100,0.5,277,1,24,DL_Guitar_2,6,8,DL_Guitar_2,0.05104750022292137,0
65,100,0.12727272727272726,402,0,24,DL_Guitar_2,6,2,DL_Guitar_2,0.04161019250750542,0
65,100,0.18181818181818182,488,0,24,DL_Guitar_2,6,3,DL_Guitar_2,0.037977736443281174,0
65,100,0.5136363636363637,532,0,24,DL_Guitar_2,6,8,DL_Guitar_2,0.039257243275642395,0
53,100,0.12727272727272726,657,0,24,DL_Guitar_2,6,2,DL_Guitar_2,0.04616239294409752,0
65,100,0.6818181818181818,686,0,24,DL_Guitar_2,6,11,DL_Guitar_2,0.05712859705090523,0
53,100,0.12727272727272726,876,0,24,DL_Guitar_2,6,2,DL_Guitar_2,0.09187788516283035,0
65,100,0.2772727272727273,40,1,25,DL_Guitar_2,6,4,DL_Guitar_2,0.9990094900131226,1
65,100,0.12727272727272726,189,0,25,DL_Guitar_2,6,2,DL_Guitar_2,0.23323026299476624,0
55,100,0.12727272727272726,550,1,25,DL_Guitar_2,6,2,DL_Guitar_2,0.27058014273643494,0
55,100,0.38636363636363635,683,0,25,DL_Guitar_2,6,6,DL_Guitar_2,0.3579268157482147,0
62,100,0.16363636363636364,6,1,26,DL_Guitar_2,6,3,DL_Guitar_2,0.9988439083099365,1
62,100,0.18181818181818182,130,0,26,DL_Guitar_2,6,3,DL_Guitar_2,0.13798673450946808,0
55,100,0.2772727272727273,227,0,26,DL_Guitar_2,6,4,DL_Guitar_2,0.16237162053585052,0
62,100,0.33181818181818185,316,0,26,DL_Guitar_2,6,5,DL_Guitar_2,0.19106365740299225,0
52,100,0.09090909090909091,450,0,26,DL_Guitar_2,6,1,DL_Guitar_2,0.2619822323322296,0
64,100,0.2,246,1,27,DL_Guitar_2,6,3,DL_Guitar_2,0.9792246222496033,1
62,100,0.10909090909090909,324,1,41,DL_Guitar_2,6,2,DL_Guitar_2,0.9983231425285339,1
62,100,0.2590909090909091,410,0,41,DL_Guitar_2,6,4,DL_Guitar_2,0.5462156534194946,1
62,100,0.10909090909090909,60,1,42,DL_Guitar_2,6,2,DL_Guitar_2,0.9986506104469299,1
67,100,0.9181818181818182,83,0,42,DL_Guitar_2,6,15,DL_Guitar_2,0.08798101544380188,0
67,100,0.8090909090909091,297,0,42,DL_Guitar_2,6,13,DL_Guitar_2,0.09298508614301682,0
60,100,0.1318181818181818,483,0,42,DL_Guitar_2,6,2,DL_Guitar_2,0.10995209962129593,0
55,100,0.23636363636363636,702,0,42,DL_Guitar_2,6,4,DL_Guitar_2,0.12867014110088348,0
55,100,0.10909090909090909,799,0,42,DL_Guitar_2,6,2,DL_Guitar_2,0.18221773207187653,0
67,100,0.1318181818181818,142,1,43,DL_Guitar_2,6,2,DL_Guitar_2,0.9983004927635193,1
67,100,0.2590909090909091,194,0,43,DL_Guitar_2,6,4,DL_Guitar_2,0.04466228932142258,0
67,100,0.32727272727272727,255,0,43,DL_Guitar_2,6,5,DL_Guitar_2,0.03337256982922554,0
67,100,0.33181818181818185,336,0,43,DL_Guitar_2,6,5,DL_Guitar_2,0.026947828009724617,0
55,100,0.2,441,0,43,DL_Guitar_2,6,3,DL_Guitar_2,0.024084310978651047,0
55,100,0.2409090909090909,489,0,43,DL_Guitar_2,6,4,DL_Guitar_2,0.024973927065730095,0
55,100,0.2772727272727273,563,0,43,DL_Guitar_2,6,4,DL_Guitar_2,0.03064778260886669,0
55,100,0.16818181818181818,700,0,43,DL_Guitar_2,6,3,DL_Guitar_2,0.041371192783117294,0
62,100,0.2409090909090909,772,0,43,DL_Guitar_2,6,4,DL_Guitar_2,0.07206960767507553,0
67,100,0.11363636363636363,1,1,44,DL_Guitar_2,6,2,DL_Guitar_2,0.9983735084533691,1
62,100,0.10909090909090909,123,0,44,DL_Guitar_2,6,2,DL_Guitar_2,0.051050081849098206,0
67,100,0.16363636363636364,151,0,44,DL_Guitar_2,6,3,DL_Guitar_2,0.041612789034843445,0
67,100,0.2909090909090909,217,0,44,DL_Guitar_2,6,5,DL_Guitar_2,0.03798071667551994,0
67,100,0.8454545454545455,294,0,44,DL_Guitar_2,6,14,DL_Guitar_2,0.03925930708646774,0
65,100,0.36818181818181817,483,0,44,DL_Guitar_2,6,6,DL_Guitar_2,0.046166930347681046,0
65,100,0.5863636363636363,569,0,44,DL_Guitar_2,6,9,DL_Guitar_2,0.057130906730890274,0
65,100,0.7909090909090909,701,0,44,DL_Guitar_2,6,13,DL_Guitar_2,0.09188076853752136,0
64,100,0.5318181818181819,150,1,45,DL_Guitar_2,6,9,DL_Guitar_2,0.9986506104469299,1
64,100,0.4409090909090909,298,0,45,DL_Guitar_2,6,7,DL_Guitar_2,0.08797965198755264,0
67,100,0.10909090909090909,456,0,45,DL_Guitar_2,6,2,DL_Guitar_2,0.09298548847436905,0
60,100,0.31363636363636366,537,0,45,DL_Guitar_2,6,5,DL_Guitar_2,0.10994981229305267,0
60,100,0.18181818181818182,715,0,45,DL_Guitar_2,6,3,DL_Guitar_2,0.12867195904254913,0
60,100,0.8272727272727273,792,0,45,DL_Guitar_2,6,13,DL_Guitar_2,0.18221963942050934,0
60,100,0.10909090909090909,103,1,46,DL_Guitar_2,6,2,DL_Guitar_2,0.9984880685806274,1
60,100,0.29545454545454547,151,0,46,DL_Guitar_2,6,5,DL_Guitar_2,0.06335407495498657,0
60,100,0.8818181818181818,235,0,46,DL_Guitar_2,6,14,DL_Guitar_2,0.058289021253585815,0
60,100,0.10909090909090909,467,1,46,DL_Guitar_2,6,2,DL_Guitar_2,0.061362024396657944,0
55,100,0.6045454545454545,495,0,46,DL_Guitar_2,6,10,DL_Guitar_2,0.07168484479188919,0
55,100,0.4818181818181818,713,0,46,DL_Guitar_2,6,8,DL_Guitar_2,0.08473856002092361,0
55,100,0.6636363636363637,874,0,46,DL_Guitar_2,6,11,DL_Guitar_2,0.12635166943073273,0
55,100,0.2,144,1,47,DL_Guitar_2,6,3,DL_Guitar_2,0.9988439083099365,1
55,100,0.8454545454545455,192,0,47,DL_Guitar_2,6,14,DL_Guitar_2,0.13798584043979645,0
67,100,0.15,386,0,47,DL_Guitar_2,6,2,DL_Guitar_2,0.16237235069274902,0
55,100,0.16363636363636364,419,0,47,DL_Guitar_2,6,3,DL_Guitar_2,0.19106455147266388,0
55,100,1.4681818181818183,602,0,47,DL_Guitar_2,6,15,DL_Guitar_2,0.2619565427303314,0
67,100,0.11363636363636363,45,1,48,DL_Guitar_2,6,2,DL_Guitar_2,0.9986506104469299,1
55,100,0.10909090909090909,122,0,48,DL_Guitar_2,6,2,DL_Guitar_2,0.0879787877202034,0
55,100,0.35,153,0,48,DL_Guitar_2,6,6,DL_Guitar_2,0.09298279881477356,0
67,100,0.2590909090909091,295,0,48,DL_Guitar_2,6,4,DL_Guitar_2,0.10994599014520645,0
60,100,0.2590909090909091,603,1,48,DL_Guitar_2,6,4,DL_Guitar_2,0.12866784632205963,0
65,100,0.18181818181818182,797,0,48,DL_Guitar_2,6,3,DL_Guitar_2,0.18221084773540497,0
62,100,0.14545454545454545,14,1,49,DL_Guitar_2,6,2,DL_Guitar_2,0.9983004927635193,1
60,100,0.33181818181818185,55,0,49,DL_Guitar_2,6,5,DL_Guitar_2,0.044662993401288986,0
65,100,0.14545454545454545,139,0,49,DL_Guitar_2,6,2,DL_Guitar_2,0.033371906727552414,0
62,100,0.12727272727272726,225,0,49,DL_Guitar_2,6,2,DL_Guitar_2,0.026948565617203712,0
60,100,0.09090909090909091,294,0,49,DL_Guitar_2,6,1,DL_Guitar_2,0.024084659293293953,0
65,100,0.6818181818181818,337,0,49,DL_Guitar_2,6,11,DL_Guitar_2,0.024973850697278976,0
55,100,0.44545454545454544,556,0,49,DL_Guitar_2,6,7,DL_Guitar_2,0.030649850144982338,0
55,100,0.2590909090909091,709,0,49,DL_Guitar_2,6,4,DL_Guitar_2,0.041371192783117294,0
55,100,0.20454545454545456,795,0,49,DL_Guitar_2,6,3,DL_Guitar_2,0.07207169383764267,0
55,100,0.23636363636363636,56,1,50,DL_Guitar_2,6,4,DL_Guitar_2,0.9988439083099365,1
55,100,0.35,112,0,50,DL_Guitar_2,6,6,DL_Guitar_2,0.13798554241657257,0
55,100,0.7,193,0,50,DL_Guitar_2,6,11,DL_Guitar_2,0.16236630082130432,0
62,100,0.18636363636363637,396,0,50,DL_Guitar_2,6,3,DL_Guitar_2,0.1910618096590042,0
57,100,0.7363636363636363,501,0,50,DL_Guitar_2,6,12,DL_Guitar_2,0.26196250319480896,0
55,100,0.15,57,1,51,DL_Guitar_2,6,2,DL_Guitar_2,0.9983231425285339,1
62,100,0.8272727272727273,284,0,51,DL_Guitar_2,6,13,DL_Guitar_2,0.54621821641922,1
67,100,0.2727272727272727,404,1,52,DL_Guitar_2,6,4,DL_Guitar_2,0.9990094900131226,1
55,100,0.21818181818181817,508,0,52,DL_Guitar_2,6,3,DL_Guitar_2,0.23323960602283478,0
55,100,0.4409090909090909,653,0,52,DL_Guitar_2,6,7,DL_Guitar_2,0.2705899178981781,0
57,100,0.10909090909090909,819,0,52,DL_Guitar_2,6,2,DL_Guitar_2,0.3579171299934387,0
55,100,0.7363636363636363,178,1,53,DL_Guitar_2,6,12,DL_Guitar_2,0.9986506104469299,1
55,100,0.2727272727272727,357,0,53,DL_Guitar_2,6,4,DL_Guitar_2,0.08798298239707947,0
55,100,0.18181818181818182,449,0,53,DL_Guitar_2,6,3,DL_Guitar_2,0.09298631548881531,0
55,100,0.10909090909090909,680,0,53,DL_Guitar_2,6,2,DL_Guitar_2,0.10995271056890488,0
55,100,0.1318181818181818,792,0,53,DL_Guitar_2,6,2,DL_Guitar_2,0.12867392599582672,0
55,100,0.8454545454545455,825,0,53,DL_Guitar_2,6,14,DL_Guitar_2,0.1822090595960617,0
55,100,0.6272727272727273,148,1,54,DL_Guitar_2,6,10,DL_Guitar_2,0.9990094900131226,1
55,100,0.10909090909090909,330,0,54,DL_Guitar_2,6,2,DL_Guitar_2,0.233235165476799,0
55,100,0.4409090909090909,378,0,54,DL_Guitar_2,6,7,DL_Guitar_2,0.2705744206905365,0
55,100,0.6272727272727273,698,1,54,DL_Guitar_2,6,10,DL_Guitar_2,0.357915461063385,0
62,100,0.20454545454545456,12,1,55,DL_Guitar_2,6,3,DL_Guitar_2,0.9983736276626587,1
55,100,0.18636363636363637,190,0,55,DL_Guitar_2,6,3,DL_Guitar_2,0.05105004087090492,0
62,100,0.10909090909090909,267,0,55,DL_Guitar_2,6,2,DL_Guitar_2,0.04161296784877777,0
55,100,0.22272727272727272,404,0,55,DL_Guitar_2,6,4,DL_Guitar_2,0.037982210516929626,0
55,100,0.2772727272727273,456,0,55,DL_Guitar_2,6,4,DL_Guitar_2,0.03926225006580353,0
55,100,0.40454545454545454,611,0,55,DL_Guitar_2,6,6,DL_Guitar_2,0.04616754129528999,0
55,100,0.4772727272727273,731,0,55,DL_Guitar_2,6,8,DL_Guitar_2,0.057134710252285004,0
55,100,0.5,857,0,55,DL_Guitar_2,6,8,DL_Guitar_2,0.09188022464513779,0
55,100,0.16818181818181818,151,1,56,DL_Guitar_2,6,3,DL_Guitar_2,0.9984880685806274,1
67,100,0.10909090909090909,196,0,56,DL_Guitar_2,6,2,DL_Guitar_2,0.06335309892892838,0
52,100,0.18181818181818182,296,0,56,DL_Guitar_2,6,3,DL_Guitar_2,0.05828922986984253,0
55,100,0.31363636363636366,421,0,56,DL_Guitar_2,6,5,DL_Guitar_2,0.06136240437626839,0
57,100,0.10909090909090909,648,0,56,DL_Guitar_2,6,2,DL_Guitar_2,0.07168304920196533,0
55,100,0.2772727272727273,782,0,56,DL_Guitar_2,6,4,DL_Guitar_2,0.08474065363407135,0
55,100,1.4863636363636363,846,0,56,DL_Guitar_2,6,15,DL_Guitar_2,0.1263473480939865,0
55,100,0.9409090909090909,297,1,57,DL_Guitar_2,6,15,DL_Guitar_2,0.9990280866622925,1
55,100,1.1045454545454545,521,0,57,DL_Guitar_2,6,15,DL_Guitar_2,0.3703426718711853,0
55,100,0.16363636363636364,776,1,57,DL_Guitar_2,6,3,DL_Guitar_2,0.45616263151168823,0
60,100,0.2590909090909091,13,1,58,DL_Guitar_2,6,4,DL_Guitar_2,0.9990280866622925,1
55,100,0.9545454545454546,206,0,58,DL_Guitar_2,6,15,DL_Guitar_2,0.370336651802063,0
55,100,0.1318181818181818,428,0,58,DL_Guitar_2,6,2,DL_Guitar_2,0.4561693072319031,0
62,100,0.2909090909090909,14,1,59,DL_Guitar_2,6,5,DL_Guitar_2,0.9988439083099365,1
55,100,1.05,90,0,59,DL_Guitar_2,6,15,DL_Guitar_2,0.13798075914382935,0
62,100,0.22272727272727272,337,1,59,DL_Guitar_2,6,4,DL_Guitar_2,0.16236604750156403,0
62,100,0.2772727272727273,451,0,59,DL_Guitar_2,6,4,DL_Guitar_2,0.19106052815914154,0
60,100,0.14545454545454545,852,1,59,DL_Guitar_2,6,2,DL_Guitar_2,0.2619779407978058,0
55,100,0.18181818181818182,93,1,60,DL_Guitar_2,6,3,DL_Guitar_2,0.9990094900131226,1
55,100,0.7,302,0,60,DL_Guitar_2,6,11,DL_Guitar_2,0.23322772979736328,0
57,100,0.38636363636363635,618,1,60,DL_Guitar_2,6,6,DL_Guitar_2,0.27058321237564087,0
55,100,0.9954545454545455,751,0,60,DL_Guitar_2,6,15,DL_Guitar_2,0.3579261302947998,0
55,100,0.31363636363636366,199,1,61,DL_Guitar_2,6,5,DL_Guitar_2,0.9983004927635193,1
55,100,0.2772727272727273,349,0,61,DL_Guitar_2,6,4,DL_Guitar_2,0.0446632094681263,0
67,100,0.20454545454545456,410,0,61,DL_Guitar_2,6,3,DL_Guitar_2,0.03337077051401138,0
55,100,0.21818181818181817,462,0,61,DL_Guitar_2,6,3,DL_Guitar_2,0.02694803848862648,0
55,100,0.09545454545454546,538,0,61,DL_Guitar_2,6,2,DL_Guitar_2,0.024083292111754417,0
55,100,0.12727272727272726,563,0,61,DL_Guitar_2,6,2,DL_Guitar_2,0.024972129613161087,0
55,100,0.2727272727272727,637,0,61,DL_Guitar_2,6,4,DL_Guitar_2,0.030646948143839836,0
55,100,0.40454545454545454,705,0,61,DL_Guitar_2,6,6,DL_Guitar_2,0.04136807844042778,0
60,100,0.15,797,0,61,DL_Guitar_2,6,2,DL_Guitar_2,0.07206984609365463,0
55,100,0.5909090909090909,19,1,62,DL_Guitar_2,6,9,DL_Guitar_2,0.9983735084533691,1
55,100,0.36818181818181817,165,0,62,DL_Guitar_2,6,6,DL_Guitar_2,0.0510500892996788,0
67,100,0.09090909090909091,254,0,62,DL_Guitar_2,6,1,DL_Guitar_2,0.04161298647522926,0
55,100,0.8272727272727273,289,0,62,DL_Guitar_2,6,13,DL_Guitar_2,0.03797873854637146,0
55,100,0.12727272727272726,501,0,62,DL_Guitar_2,6,2,DL_Guitar_2,0.03925972431898117,0
62,100,0.7,541,0,62,DL_Guitar_2,6,11,DL_Guitar_2,0.0461638979613781,0
74,100,0.23636363636363636,796,1,62,DL_Guitar_2,6,4,DL_Guitar_2,0.057132091373205185,0
67,100,0.12727272727272726,873,0,62,DL_Guitar_2,6,2,DL_Guitar_2,0.09187909215688705,0
62,100,0.12727272727272726,206,1,63,DL_Guitar_2,6,2,DL_Guitar_2,0.9990280866622925,1
55,100,0.23636363636363636,364,0,63,DL_Guitar_2,6,4,DL_Guitar_2,0.37034592032432556,0
55,100,1.4681818181818183,547,0,63,DL_Guitar_2,6,15,DL_Guitar_2,0.4561629295349121,0
55,100,0.42272727272727273,11,1,64,DL_Guitar_2,6,7,DL_Guitar_2,0.9982556700706482,1
52,100,0.10909090909090909,115,0,64,DL_Guitar_2,6,2,DL_Guitar_2,0.04129401966929436,0
55,100,0.09545454545454546,188,0,64,DL_Guitar_2,6,2,DL_Guitar_2,0.029125994071364403,0
67,100,0.42272727272727273,212,0,64,DL_Guitar_2,6,7,DL_Guitar_2,0.021569939330220222,0
55,100,1.009090909090909,305,0,64,DL_Guitar_2,6,15,DL_Guitar_2,0.017059551551938057,0
57,100,0.11363636363636363,632,1,64,DL_Guitar_2,6,2,DL_Guitar_2,0.015268540009856224,0
55,100,0.2545454545454545,670,0,64,DL_Guitar_2,6,4,DL_Guitar_2,0.016456563025712967,0
55,100,0.11363636363636363,738,0,64,DL_Guitar_2,6,2,DL_Guitar_2,0.021837355569005013,0
60,100,0.10909090909090909,762,0,64,DL_Guitar_2,6,2,DL_Guitar_2,0.03251967206597328,0
55,100,0.29545454545454547,802,0,64,DL_Guitar_2,6,5,DL_Guitar_2,0.060911763459444046,0
55,100,0.42272727272727273,0,1,65,DL_Guitar_2,6,7,DL_Guitar_2,0.9983735084533691,1
62,100,0.2909090909090909,141,0,65,DL_Guitar_2,6,5,DL_Guitar_2,0.0510505773127079,0
62,100,0.35,218,0,65,DL_Guitar_2,6,6,DL_Guitar_2,0.04161321744322777,0
62,100,0.38636363636363635,299,0,65,DL_Guitar_2,6,6,DL_Guitar_2,0.03798237070441246,0
55,100,0.5318181818181819,412,0,65,DL_Guitar_2,6,9,DL_Guitar_2,0.039263058453798294,0
55,100,0.1318181818181818,577,0,65,DL_Guitar_2,6,2,DL_Guitar_2,0.04617050290107727,0
55,100,1.0272727272727273,627,0,65,DL_Guitar_2,6,15,DL_Guitar_2,0.057136356830596924,0
55,100,2.040909090909091,861,1,65,DL_Guitar_2,6,15,DL_Guitar_2,0.09188291430473328,0
67,100,0.1318181818181818,429,1,66,DL_Guitar_2,6,2,DL_Guitar_2,0.9990094900131226,1
55,100,0.38636363636363635,458,0,66,DL_Guitar_2,6,6,DL_Guitar_2,0.23322707414627075,0
60,100,0.7727272727272727,560,0,66,DL_Guitar_2,6,12,DL_Guitar_2,0.27057886123657227,0
60,100,0.6227272727272727,733,0,66,DL_Guitar_2,6,10,DL_Guitar_2,0.35793134570121765,0
67,100,0.10909090909090909,225,1,67,DL_Guitar_2,6,2,DL_Guitar_2,0.9988439083099365,1
67,100,0.12727272727272726,424,0,67,DL_Guitar_2,6,2,DL_Guitar_2,0.13798312842845917,0
55,100,0.11363636363636363,476,0,67,DL_Guitar_2,6,2,DL_Guitar_2,0.16236330568790436,0
55,100,0.10909090909090909,533,0,67,DL_Guitar_2,6,2,DL_Guitar_2,0.19105543196201324,0
55,100,1.1181818181818182,605,0,67,DL_Guitar_2,6,15,DL_Guitar_2,0.2619560956954956,0
55,100,1.9090909090909092,0,1,68,DL_Guitar_2,6,15,DL_Guitar_2,0.9792230129241943,1
52,100,0.21818181818181817,418,1,0,DL_Guitar,6,3,DL_Guitar,0.9983232617378235,1
60,100,0.1,796,1,0,DL_Guitar,6,2,DL_Guitar,0.5462185144424438,1
64,100,0.1409090909090909,0,1,1,DL_Guitar,6,2,DL_Guitar,0.9983735084533691,1
64,100,0.2772727272727273,39,0,1,DL_Guitar,6,4,DL_Guitar,0.05104885250329971,0
52,100,0.4,157,0,1,DL_Guitar,6,6,DL_Guitar,0.04161209240555763,0
59,100,0.1590909090909091,276,0,1,DL_Guitar,6,3,DL_Guitar,0.03797970339655876,0
52,100,0.6409090909090909,343,0,1,DL_Guitar,6,10,DL_Guitar,0.039260074496269226,0
53,100,0.1,496,0,1,DL_Guitar,6,2,DL_Guitar,0.046165190637111664,0
60,100,0.4409090909090909,752,1,1,DL_Guitar,6,7,DL_Guitar,0.05713082104921341,0
65,100,0.13636363636363635,854,0,1,DL_Guitar,6,2,DL_Guitar,0.09187902510166168,0
57,100,0.18181818181818182,43,1,2,DL_Guitar,6,3,DL_Guitar,0.9983004927635193,1
57,100,0.2818181818181818,136,0,2,DL_Guitar,6,5,DL_Guitar,0.04466180503368378,0
53,100,0.2590909090909091,220,0,2,DL_Guitar,6,4,DL_Guitar,0.03337196260690689,0
53,100,0.11818181818181818,281,0,2,DL_Guitar,6,2,DL_Guitar,0.026947958394885063,0
53,100,0.18181818181818182,396,0,2,DL_Guitar,6,3,DL_Guitar,0.024083727970719337,0
60,100,0.4409090909090909,470,0,2,DL_Guitar,6,7,DL_Guitar,0.024972915649414062,0
57,100,0.4409090909090909,620,0,2,DL_Guitar,6,7,DL_Guitar,0.030647441744804382,0
62,100,0.1590909090909091,779,0,2,DL_Guitar,6,3,DL_Guitar,0.0413697212934494,0
62,100,0.3,849,0,2,DL_Guitar,6,5,DL_Guitar,0.07207061350345612,0
57,100,0.2,119,1,3,DL_Guitar,6,3,DL_Guitar,0.9990280866622925,1
62,100,0.3409090909090909,201,0,3,DL_Guitar,6,5,DL_Guitar,0.3703489303588867,0
62,100,0.11818181818181818,461,1,3,DL_Guitar,6,2,DL_Guitar,0.4561745226383209,0
60,100,0.1409090909090909,74,1,4,DL_Guitar,6,2,DL_Guitar,0.9983232617378235,1
60,100,0.21818181818181817,307,1,4,DL_Guitar,6,3,DL_Guitar,0.5462121963500977,1
60,100,0.11818181818181818,30,1,5,DL_Guitar,6,2,DL_Guitar,0.9983004927635193,1
64,100,0.11818181818181818,118,0,5,DL_Guitar,6,2,DL_Guitar,0.04466237127780914,0
64,100,0.2,171,0,5,DL_Guitar,6,3,DL_Guitar,0.03337305411696434,0
64,100,0.3,228,0,5,DL_Guitar,6,5,DL_Guitar,0.026949340477585793,0
64,100,0.18181818181818182,299,0,5,DL_Guitar,6,3,DL_Guitar,0.024085678160190582,0
64,100,0.2,355,0,5,DL_Guitar,6,3,DL_Guitar,0.024974141269922256,0
64,100,0.1590909090909091,404,0,5,DL_Guitar,6,3,DL_Guitar,0.030649637803435326,0
52,100,0.1,475,0,5,DL_Guitar,6,2,DL_Guitar,0.04137063026428223,0
52,100,0.5181818181818182,634,0,5,DL_Guitar,6,8,DL_Guitar,0.07207129895687103,0
60,100,0.3181818181818182,220,1,6,DL_Guitar,6,5,DL_Guitar,0.9990280866622925,1
57,100,0.8181818181818182,307,0,6,DL_Guitar,6,13,DL_Guitar,0.370322585105896,0
60,100,0.12272727272727273,488,0,6,DL_Guitar,6,2,DL_Guitar,0.45617392659187317,0
62,100,0.3,69,1,7,DL_Guitar,6,5,DL_Guitar,0.9988439083099365,1
62,100,0.3409090909090909,158,0,7,DL_Guitar,6,5,DL_Guitar,0.13798703253269196,0
62,100,0.2590909090909091,352,0,7,DL_Guitar,6,4,DL_Guitar,0.1623697429895401,0
62,100,0.5409090909090909,624,1,7,DL_Guitar,6,9,DL_Guitar,0.19107095897197723,0
62,100,0.1409090909090909,778,0,7,DL_Guitar,6,2,DL_Guitar,0.26198965311050415,0
62,100,0.2409090909090909,343,1,8,DL_Guitar,6,4,DL_Guitar,0.9988439083099365,1
62,100,0.18181818181818182,409,0,8,DL_Guitar,6,3,DL_Guitar,0.13798797130584717,0
62,100,0.1590909090909091,457,0,8,DL_Guitar,6,3,DL_Guitar,0.16237792372703552,0
62,100,0.11818181818181818,603,0,8,DL_Guitar,6,2,DL_Guitar,0.19106808304786682,0
62,100,0.1409090909090909,835,1,8,DL_Guitar,6,2,DL_Guitar,0.2619846761226654,0
62,100,0.1,140,1,9,DL_Guitar,6,2,DL_Guitar,0.9984879493713379,1
60,100,0.9227272727272727,233,0,9,DL_Guitar,6,15,DL_Guitar,0.06335301697254181,0
60,100,0.4409090909090909,443,0,9,DL_Guitar,6,7,DL_Guitar,0.058290231972932816,0
57,100,0.2590909090909091,656,0,9,DL_Guitar,6,4,DL_Guitar,0.06136135756969452,0
60,100,0.1590909090909091,721,0,9,DL_Guitar,6,3,DL_Guitar,0.07168513536453247,0
53,100,0.22272727272727272,773,0,9,DL_Guitar,6,4,DL_Guitar,0.08473500609397888,0
59,100,0.1,826,0,9,DL_Guitar,6,2,DL_Guitar,0.1263553947210312,0
59,100,0.41818181818181815,149,1,10,DL_Guitar,6,7,DL_Guitar,0.9986506104469299,1
60,100,0.1,250,0,10,DL_Guitar,6,2,DL_Guitar,0.08797995746135712,0
60,100,0.8181818181818182,316,0,10,DL_Guitar,6,13,DL_Guitar,0.09298265725374222,0
55,100,0.2409090909090909,620,1,10,DL_Guitar,6,4,DL_Guitar,0.10994725674390793,0
53,100,0.1,677,0,10,DL_Guitar,6,2,DL_Guitar,0.12866947054862976,0
55,100,0.18181818181818182,708,0,10,DL_Guitar,6,3,DL_Guitar,0.1822167932987213,0
55,100,0.1590909090909091,53,1,11,DL_Guitar,6,3,DL_Guitar,0.9988439083099365,1
55,100,0.2,92,0,11,DL_Guitar,6,3,DL_Guitar,0.137983500957489,0
62,100,0.1,197,0,11,DL_Guitar,6,2,DL_Guitar,0.16236452758312225,0
62,100,0.4,228,0,11,DL_Guitar,6,6,DL_Guitar,0.19106125831604004,0
55,100,0.7181818181818181,414,0,11,DL_Guitar,6,11,DL_Guitar,0.2619764506816864,0
52,100,0.4772727272727273,61,1,12,DL_Guitar,6,8,DL_Guitar,0.9988439083099365,1
52,100,0.1409090909090909,242,0,12,DL_Guitar,6,2,DL_Guitar,0.1379803717136383,0
53,100,0.1409090909090909,364,0,12,DL_Guitar,6,2,DL_Guitar,0.16236068308353424,0
60,100,0.17727272727272728,515,0,12,DL_Guitar,6,3,DL_Guitar,0.19105693697929382,0
67,100,0.5818181818181818,673,0,12,DL_Guitar,6,9,DL_Guitar,0.26195821166038513,0
53,100,0.2,132,1,13,DL_Guitar,6,3,DL_Guitar,0.9986506104469299,1
53,100,0.1590909090909091,326,0,13,DL_Guitar,6,3,DL_Guitar,0.08798019587993622,0
55,100,0.12272727272727273,453,0,13,DL_Guitar,6,2,DL_Guitar,0.092986561357975,0
62,100,0.6181818181818182,603,0,13,DL_Guitar,6,10,DL_Guitar,0.10994935780763626,0
62,100,0.12272727272727273,773,0,13,DL_Guitar,6,2,DL_Guitar,0.12867596745491028,0
62,100,0.42272727272727273,804,0,13,DL_Guitar,6,7,DL_Guitar,0.1822255402803421,0
62,100,0.3409090909090909,30,1,14,DL_Guitar,6,5,DL_Guitar,0.9990280866622925,1
55,100,0.37727272727272726,237,0,14,DL_Guitar,6,6,DL_Guitar,0.37034866213798523,0
55,100,0.1409090909090909,505,1,14,DL_Guitar,6,2,DL_Guitar,0.45617130398750305,0
64,100,0.35909090909090907,65,1,15,DL_Guitar,6,6,DL_Guitar,0.9986506104469299,1
62,100,0.2409090909090909,206,0,15,DL_Guitar,6,4,DL_Guitar,0.08797953277826309,0
62,100,0.3409090909090909,338,0,15,DL_Guitar,6,5,DL_Guitar,0.09298747777938843,0
55,100,0.759090909090909,479,0,15,DL_Guitar,6,12,DL_Guitar,0.10995236039161682,0
52,100,0.36363636363636365,663,0,15,DL_Guitar,6,6,DL_Guitar,0.12867647409439087,0
55,100,0.4,809,0,15,DL_Guitar,6,6,DL_Guitar,0.18222372233867645,0
52,100,0.2,312,1,16,DL_Guitar,6,3,DL_Guitar,0.9988439083099365,1
52,100,0.18181818181818182,378,0,16,DL_Guitar,6,3,DL_Guitar,0.1379808634519577,0
60,100,0.2,449,0,16,DL_Guitar,6,3,DL_Guitar,0.16236324608325958,0
52,100,0.7636363636363637,553,0,16,DL_Guitar,6,12,DL_Guitar,0.19105586409568787,0
60,100,0.2772727272727273,787,1,16,DL_Guitar,6,4,DL_Guitar,0.261971652507782,0
65,100,0.13636363636363635,106,1,17,DL_Guitar,6,2,DL_Guitar,0.9792237281799316,1
65,100,0.16363636363636364,202,1,18,DL_Guitar,6,3,DL_Guitar,0.9990094900131226,1
65,100,0.11818181818181818,241,0,18,DL_Guitar,6,2,DL_Guitar,0.23322772979736328,0
53,100,0.18181818181818182,532,1,18,DL_Guitar,6,3,DL_Guitar,0.2705761194229126,0
53,100,0.11818181818181818,581,0,18,DL_Guitar,6,2,DL_Guitar,0.3579171299934387,0
64,100,0.3181818181818182,75,1,19,DL_Guitar,6,5,DL_Guitar,0.9792249798774719,1
52,100,0.2636363636363636,136,1,20,DL_Guitar,6,4,DL_Guitar,0.9984879493713379,1
60,100,0.6590909090909091,193,0,20,DL_Guitar,6,11,DL_Guitar,0.06335536390542984,0
55,100,0.1590909090909091,351,0,20,DL_Guitar,6,3,DL_Guitar,0.05829119309782982,0
55,100,0.8409090909090909,395,0,20,DL_Guitar,6,13,DL_Guitar,0.061364855617284775,0
55,100,0.18181818181818182,638,1,20,DL_Guitar,6,3,DL_Guitar,0.07168500870466232,0
55,100,0.2409090909090909,773,0,20,DL_Guitar,6,4,DL_Guitar,0.08473636209964752,0
52,100,0.5590909090909091,831,0,20,DL_Guitar,6,9,DL_Guitar,0.1263507455587387,0
52,100,0.1409090909090909,96,1,21,DL_Guitar,6,2,DL_Guitar,0.9990094900131226,1
55,100,0.4818181818181818,540,1,21,DL_Guitar,6,8,DL_Guitar,0.23323634266853333,0
55,100,0.3181818181818182,669,0,21,DL_Guitar,6,5,DL_Guitar,0.270582914352417,0
62,100,0.1409090909090909,739,0,21,DL_Guitar,6,2,DL_Guitar,0.3579287528991699,0
55,100,0.2,79,1,22,DL_Guitar,6,3,DL_Guitar,0.9990094900131226,1
55,100,0.37727272727272726,140,0,22,DL_Guitar,6,6,DL_Guitar,0.2332266867160797,0
52,100,0.3,729,1,22,DL_Guitar,6,5,DL_Guitar,0.27058154344558716,0
52,100,0.2,858,0,22,DL_Guitar,6,3,DL_Guitar,0.3579237759113312,0
52,100,0.32272727272727275,69,1,23,DL_Guitar,6,5,DL_Guitar,0.9990094900131226,1
52,100,1.4227272727272726,158,0,23,DL_Guitar,6,15,DL_Guitar,0.2332358956336975,0
55,100,0.11818181818181818,546,1,23,DL_Guitar,6,2,DL_Guitar,0.2705822288990021,0
52,100,0.2772727272727273,721,0,23,DL_Guitar,6,4,DL_Guitar,0.3579308092594147,0
55,100,0.2772727272727273,250,1,24,DL_Guitar,6,4,DL_Guitar,0.9990280866622925,1
56,100,0.12272727272727273,378,0,24,DL_Guitar,6,2,DL_Guitar,0.37033334374427795,0
60,100,0.9,461,0,24,DL_Guitar,6,14,DL_Guitar,0.45616352558135986,0
52,100,0.4818181818181818,26,1,25,DL_Guitar,6,8,DL_Guitar,0.9990094900131226,1
55,100,0.2818181818181818,264,1,25,DL_Guitar,6,5,DL_Guitar,0.23323385417461395,0
55,100,0.2409090909090909,387,0,25,DL_Guitar,6,4,DL_Guitar,0.27058517932891846,0
59,100,0.2590909090909091,611,0,25,DL_Guitar,6,4,DL_Guitar,0.3579220771789551,0
52,100,0.32272727272727275,100,1,26,DL_Guitar,6,5,DL_Guitar,0.9984879493713379,1
52,100,0.5409090909090909,399,1,26,DL_Guitar,6,9,DL_Guitar,0.06335281580686569,0
65,100,0.1409090909090909,536,0,26,DL_Guitar,6,2,DL_Guitar,0.05828767269849777,0
65,100,0.2,629,0,26,DL_Guitar,6,3,DL_Guitar,0.06136004999279976,0
65,100,0.5590909090909091,677,0,26,DL_Guitar,6,9,DL_Guitar,0.07167992740869522,0
53,100,0.1409090909090909,814,0,26,DL_Guitar,6,2,DL_Guitar,0.08473377674818039,0
65,100,0.740909090909091,845,0,26,DL_Guitar,6,12,DL_Guitar,0.12634511291980743,0
53,100,0.13636363636363635,171,1,27,DL_Guitar,6,2,DL_Guitar,0.9990094900131226,1
65,100,0.3,220,0,27,DL_Guitar,6,5,DL_Guitar,0.23322804272174835,0
65,100,0.1409090909090909,382,0,27,DL_Guitar,6,2,DL_Guitar,0.27057668566703796,0
55,100,0.1409090909090909,773,1,27,DL_Guitar,6,2,DL_Guitar,0.35792413353919983,0
55,100,0.41818181818181815,40,1,28,DL_Guitar,6,7,DL_Guitar,0.9986506104469299,1
62,100,0.17727272727272728,260,0,28,DL_Guitar,6,3,DL_Guitar,0.08797972649335861,0
62,100,0.2,395,0,28,DL_Guitar,6,3,DL_Guitar,0.09298613667488098,0
55,100,0.3,501,0,28,DL_Guitar,6,5,DL_Guitar,0.10994897782802582,0
62,100,0.36363636363636365,598,0,28,DL_Guitar,6,6,DL_Guitar,0.1286724954843521,0
52,100,0.1,743,0,28,DL_Guitar,6,2,DL_Guitar,0.18222391605377197,0
64,100,0.22272727272727272,598,1,29,DL_Guitar,6,4,DL_Guitar,0.9792247414588928,1
62,100,0.11818181818181818,8,1,45,DL_Guitar,6,2,DL_Guitar,0.9990094900131226,1
62,100,0.2818181818181818,101,0,45,DL_Guitar,6,5,DL_Guitar,0.2332373559474945,0
62,100,0.11818181818181818,678,1,45,DL_Guitar,6,2,DL_Guitar,0.27059441804885864,0
67,100,1.0,703,0,45,DL_Guitar,6,15,DL_Guitar,0.35793086886405945,0
67,100,0.8818181818181818,56,1,46,DL_Guitar,6,14,DL_Guitar,0.9988439083099365,1
60,100,0.13636363636363635,260,0,46,DL_Guitar,6,2,DL_Guitar,0.1379900872707367,0
55,100,0.2590909090909091,496,1,46,DL_Guitar,6,4,DL_Guitar,0.16236765682697296,0
55,100,0.11818181818181818,603,0,46,DL_Guitar,6,2,DL_Guitar,0.19105848670005798,0
67,100,0.1409090909090909,845,1,46,DL_Guitar,6,2,DL_Guitar,0.2619570195674896,0
67,100,0.2818181818181818,21,1,47,DL_Guitar,6,5,DL_Guitar,0.9983004927635193,1
67,100,0.35909090909090907,88,0,47,DL_Guitar,6,6,DL_Guitar,0.04466237127780914,0
67,100,0.35909090909090907,176,0,47,DL_Guitar,6,6,DL_Guitar,0.033371537923812866,0
55,100,0.22272727272727272,289,0,47,DL_Guitar,6,4,DL_Guitar,0.026948101818561554,0
55,100,0.2590909090909091,343,0,47,DL_Guitar,6,4,DL_Guitar,0.024083616212010384,0
55,100,0.3,421,0,47,DL_Guitar,6,5,DL_Guitar,0.02497253753244877,0
55,100,0.18181818181818182,571,0,47,DL_Guitar,6,3,DL_Guitar,0.030647259205579758,0
62,100,0.2590909090909091,651,0,47,DL_Guitar,6,4,DL_Guitar,0.04136950895190239,0
67,100,0.11818181818181818,770,0,47,DL_Guitar,6,2,DL_Guitar,0.07206962257623672,0
62,100,0.11818181818181818,21,1,48,DL_Guitar,6,2,DL_Guitar,0.9984879493713379,1
67,100,0.17727272727272728,53,0,48,DL_Guitar,6,3,DL_Guitar,0.06335462629795074,0
67,100,0.32272727272727275,123,0,48,DL_Guitar,6,5,DL_Guitar,0.05828876793384552,0
67,100,0.9181818181818182,206,0,48,DL_Guitar,6,15,DL_Guitar,0.061360809952020645,0
65,100,0.4,413,0,48,DL_Guitar,6,6,DL_Guitar,0.0716811940073967,0
65,100,0.6409090909090909,506,0,48,DL_Guitar,6,10,DL_Guitar,0.08473178744316101,0
65,100,0.8590909090909091,651,0,48,DL_Guitar,6,14,DL_Guitar,0.126346156001091,0
64,100,0.5772727272727273,128,1,49,DL_Guitar,6,9,DL_Guitar,0.9986506104469299,1
64,100,0.4818181818181818,289,0,49,DL_Guitar,6,8,DL_Guitar,0.08798084408044815,0
67,100,0.11818181818181818,461,0,49,DL_Guitar,6,2,DL_Guitar,0.09298466891050339,0
60,100,0.3409090909090909,550,0,49,DL_Guitar,6,5,DL_Guitar,0.10994846373796463,0
60,100,0.2,743,0,49,DL_Guitar,6,3,DL_Guitar,0.12867359817028046,0
60,100,0.9,826,0,49,DL_Guitar,6,14,DL_Guitar,0.18221761286258698,0
60,100,0.11818181818181818,153,1,50,DL_Guitar,6,2,DL_Guitar,0.9986506104469299,1
60,100,0.3181818181818182,206,0,50,DL_Guitar,6,5,DL_Guitar,0.087981678545475,0
60,100,0.9590909090909091,298,0,50,DL_Guitar,6,15,DL_Guitar,0.09298539161682129,0
60,100,0.11818181818181818,550,1,50,DL_Guitar,6,2,DL_Guitar,0.1099545806646347,0
55,100,0.6590909090909091,581,0,50,DL_Guitar,6,11,DL_Guitar,0.128673255443573,0
55,100,0.5227272727272727,818,1,50,DL_Guitar,6,8,DL_Guitar,0.18222366273403168,0
55,100,0.7227272727272728,114,1,51,DL_Guitar,6,12,DL_Guitar,0.9986506104469299,1
55,100,0.22272727272727272,276,0,51,DL_Guitar,6,4,DL_Guitar,0.08798237144947052,0
55,100,0.9181818181818182,330,0,51,DL_Guitar,6,15,DL_Guitar,0.09298484772443771,0
67,100,0.1590909090909091,541,0,51,DL_Guitar,6,3,DL_Guitar,0.1099507063627243,0
55,100,0.18181818181818182,576,0,51,DL_Guitar,6,3,DL_Guitar,0.12867480516433716,0
55,100,1.6,774,0,51,DL_Guitar,6,15,DL_Guitar,0.18221330642700195,0
67,100,0.12272727272727273,246,1,52,DL_Guitar,6,2,DL_Guitar,0.9988439083099365,1
55,100,0.11818181818181818,330,0,52,DL_Guitar,6,2,DL_Guitar,0.1379857212305069,0
55,100,0.38181818181818183,364,0,52,DL_Guitar,6,6,DL_Guitar,0.1623641550540924,0
67,100,0.2818181818181818,518,0,52,DL_Guitar,6,5,DL_Guitar,0.19105598330497742,0
60,100,0.2772727272727273,853,1,52,DL_Guitar,6,4,DL_Guitar,0.2619645297527313,0
65,100,0.2,185,1,53,DL_Guitar,6,3,DL_Guitar,0.9984879493713379,1
62,100,0.16363636363636364,289,0,53,DL_Guitar,6,3,DL_Guitar,0.06335372477769852,0
60,100,0.36363636363636365,334,0,53,DL_Guitar,6,6,DL_Guitar,0.05828958377242088,0
65,100,0.1590909090909091,426,0,53,DL_Guitar,6,3,DL_Guitar,0.061362382024526596,0
62,100,0.1409090909090909,518,0,53,DL_Guitar,6,2,DL_Guitar,0.07168440520763397,0
60,100,0.1,593,0,53,DL_Guitar,6,2,DL_Guitar,0.08473792672157288,0
65,100,0.740909090909091,641,0,53,DL_Guitar,6,12,DL_Guitar,0.12635117769241333,0
55,100,0.4818181818181818,0,1,54,DL_Guitar,6,8,DL_Guitar,0.9984880685806274,1
55,100,0.2818181818181818,166,0,54,DL_Guitar,6,5,DL_Guitar,0.06335417181253433,0
55,100,0.21818181818181817,260,0,54,DL_Guitar,6,3,DL_Guitar,0.05828986316919327,0
55,100,0.2590909090909091,413,0,54,DL_Guitar,6,4,DL_Guitar,0.06136414408683777,0
55,100,0.38181818181818183,474,0,54,DL_Guitar,6,6,DL_Guitar,0.07168535143136978,0
55,100,0.759090909090909,563,0,54,DL_Guitar,6,12,DL_Guitar,0.08473361283540726,0
62,100,0.2,783,0,54,DL_Guitar,6,3,DL_Guitar,0.12635236978530884,0
57,100,0.8,18,1,55,DL_Guitar,6,13,DL_Guitar,0.9990280866622925,1
55,100,0.1590909090909091,493,1,55,DL_Guitar,6,3,DL_Guitar,0.3703514337539673,0
62,100,0.9,738,1,55,DL_Guitar,6,14,DL_Guitar,0.4561692178249359,0
67,100,0.3,66,1,57,DL_Guitar,6,5,DL_Guitar,0.9988439083099365,1
55,100,0.2409090909090909,179,0,57,DL_Guitar,6,4,DL_Guitar,0.13798364996910095,0
55,100,0.4772727272727273,338,0,57,DL_Guitar,6,8,DL_Guitar,0.16236506402492523,0
57,100,0.12272727272727273,518,0,57,DL_Guitar,6,2,DL_Guitar,0.19106030464172363,0
55,100,0.8,778,1,57,DL_Guitar,6,13,DL_Guitar,0.26196324825286865,0
55,100,0.3,91,1,58,DL_Guitar,6,5,DL_Guitar,0.9986506104469299,1
55,100,0.2,193,0,58,DL_Guitar,6,3,DL_Guitar,0.08798175305128098,0
55,100,0.12272727272727273,444,1,58,DL_Guitar,6,2,DL_Guitar,0.092988021671772,0
55,100,0.13636363636363635,568,0,58,DL_Guitar,6,2,DL_Guitar,0.10995462536811829,0
55,100,0.9181818181818182,603,0,58,DL_Guitar,6,15,DL_Guitar,0.1286696046590805,0
55,100,0.6772727272727272,823,0,58,DL_Guitar,6,11,DL_Guitar,0.1822221279144287,0
55,100,0.11818181818181818,141,1,59,DL_Guitar,6,2,DL_Guitar,0.9990094900131226,1
55,100,0.4772727272727273,193,0,59,DL_Guitar,6,8,DL_Guitar,0.23323358595371246,0
55,100,0.6818181818181818,541,1,59,DL_Guitar,6,11,DL_Guitar,0.27057984471321106,0
62,100,0.22272727272727272,751,0,59,DL_Guitar,6,4,DL_Guitar,0.357927531003952,0
55,100,0.2,66,1,60,DL_Guitar,6,3,DL_Guitar,0.9984879493713379,1
62,100,0.11818181818181818,150,0,60,DL_Guitar,6,2,DL_Guitar,0.0633547455072403,0
55,100,0.2409090909090909,298,0,60,DL_Guitar,6,4,DL_Guitar,0.058290719985961914,0
55,100,0.3,356,0,60,DL_Guitar,6,5,DL_Guitar,0.06136424466967583,0
55,100,0.43636363636363634,523,0,60,DL_Guitar,6,7,DL_Guitar,0.07168535143136978,0
55,100,0.5181818181818182,655,0,60,DL_Guitar,6,8,DL_Guitar,0.08473803848028183,0
55,100,0.5409090909090909,791,0,60,DL_Guitar,6,9,DL_Guitar,0.12635135650634766,0
55,100,0.18181818181818182,101,1,61,DL_Guitar,6,3,DL_Guitar,0.9984880685806274,1
67,100,0.11818181818181818,150,0,61,DL_Guitar,6,2,DL_Guitar,0.06335417181253433,0
52,100,0.2,260,0,61,DL_Guitar,6,3,DL_Guitar,0.058289628475904465,0
55,100,0.3409090909090909,396,0,61,DL_Guitar,6,5,DL_Guitar,0.06136364862322807,0
57,100,0.12272727272727273,641,1,61,DL_Guitar,6,2,DL_Guitar,0.07168503105640411,0
55,100,0.3,788,0,61,DL_Guitar,6,5,DL_Guitar,0.08474047482013702,0
55,100,1.6181818181818182,858,0,61,DL_Guitar,6,15,DL_Guitar,0.12634697556495667,0
55,100,1.018181818181818,338,1,62,DL_Guitar,6,15,DL_Guitar,0.9990280866622925,1
55,100,1.2,581,1,62,DL_Guitar,6,15,DL_Guitar,0.37033918499946594,0
55,100,0.18181818181818182,858,1,62,DL_Guitar,6,3,DL_Guitar,0.4561654031276703,0
60,100,0.2772727272727273,105,1,63,DL_Guitar,6,4,DL_Guitar,0.9990280866622925,1
55,100,1.040909090909091,316,0,63,DL_Guitar,6,15,DL_Guitar,0.37033528089523315,0
55,100,0.1409090909090909,558,1,63,DL_Guitar,6,2,DL_Guitar,0.4561689794063568,0
62,100,0.3181818181818182,184,1,64,DL_Guitar,6,5,DL_Guitar,0.9990094900131226,1
55,100,1.1409090909090909,267,0,64,DL_Guitar,6,15,DL_Guitar,0.23323141038417816,0
62,100,0.2409090909090909,536,1,64,DL_Guitar,6,4,DL_Guitar,0.27059414982795715,0
62,100,0.3,660,0,64,DL_Guitar,6,5,DL_Guitar,0.3579356372356415,0
60,100,0.1590909090909091,216,1,65,DL_Guitar,6,3,DL_Guitar,0.9990280866622925,1
55,100,0.2,347,0,65,DL_Guitar,6,3,DL_Guitar,0.37033674120903015,0
55,100,0.7636363636363637,576,0,65,DL_Guitar,6,12,DL_Guitar,0.4561774432659149,0
57,100,0.41818181818181815,40,1,66,DL_Guitar,6,7,DL_Guitar,0.9986507296562195,1
55,100,1.0772727272727274,184,0,66,DL_Guitar,6,15,DL_Guitar,0.08798282593488693,0
55,100,0.3409090909090909,540,1,66,DL_Guitar,6,5,DL_Guitar,0.09298744797706604,0
55,100,0.3,703,0,66,DL_Guitar,6,5,DL_Guitar,0.10995028913021088,0
67,100,0.21818181818181817,770,0,66,DL_Guitar,6,3,DL_Guitar,0.12867064774036407,0
55,100,0.2409090909090909,826,0,66,DL_Guitar,6,4,DL_Guitar,0.1822136491537094,0
55,100,0.1,30,1,67,DL_Guitar,6,2,DL_Guitar,0.9983006119728088,1
55,100,0.1409090909090909,56,0,67,DL_Guitar,6,2,DL_Guitar,0.04466208443045616,0
55,100,0.3,136,0,67,DL_Guitar,6,5,DL_Guitar,0.03337157890200615,0
55,100,0.4409090909090909,210,0,67,DL_Guitar,6,7,DL_Guitar,0.02694830112159252,0
60,100,0.16363636363636364,312,0,67,DL_Guitar,6,3,DL_Guitar,0.02408427558839321,0
55,100,0.6409090909090909,422,0,67,DL_Guitar,6,10,DL_Guitar,0.024972662329673767,0
55,100,0.4,580,0,67,DL_Guitar,6,6,DL_Guitar,0.030648251995444298,0
67,100,0.1,677,0,67,DL_Guitar,6,2,DL_Guitar,0.04137100651860237,0
55,100,0.9,716,0,67,DL_Guitar,6,14,DL_Guitar,0.07206935435533524,0
55,100,0.1409090909090909,66,1,68,DL_Guitar,6,2,DL_Guitar,0.9986506104469299,1
62,100,0.759090909090909,110,0,68,DL_Guitar,6,12,DL_Guitar,0.0879790410399437,0
74,100,0.2590909090909091,386,1,68,DL_Guitar,6,4,DL_Guitar,0.09298613667488098,0
67,100,0.1409090909090909,470,0,68,DL_Guitar,6,2,DL_Guitar,0.10994996875524521,0
62,100,0.1409090909090909,703,1,68,DL_Guitar,6,2,DL_Guitar,0.12867291271686554,0
55,100,0.2590909090909091,876,0,68,DL_Guitar,6,4,DL_Guitar,0.18222105503082275,0
55,100,1.6,193,1,69,DL_Guitar,6,15,DL_Guitar,0.9988439083099365,1
55,100,0.4590909090909091,567,1,69,DL_Guitar,6,7,DL_Guitar,0.13798312842845917,0
52,100,0.11818181818181818,682,0,69,DL_Guitar,6,2,DL_Guitar,0.16236567497253418,0
55,100,0.1,760,0,69,DL_Guitar,6,2,DL_Guitar,0.19105517864227295,0
67,100,0.4590909090909091,787,0,69,DL_Guitar,6,7,DL_Guitar,0.26196202635765076,0
55,100,1.1,9,1,70,DL_Guitar,6,15,DL_Guitar,0.9983004927635193,1
57,100,0.12272727272727273,365,1,70,DL_Guitar,6,2,DL_Guitar,0.044662635773420334,0
55,100,0.2772727272727273,404,0,70,DL_Guitar,6,4,DL_Guitar,0.033372193574905396,0
55,100,0.11818181818181818,480,0,70,DL_Guitar,6,2,DL_Guitar,0.026948129758238792,0
60,100,0.11818181818181818,506,0,70,DL_Guitar,6,2,DL_Guitar,0.024083834141492844,0
55,100,0.3181818181818182,550,0,70,DL_Guitar,6,5,DL_Guitar,0.024971988052129745,0
55,100,0.4590909090909091,633,0,70,DL_Guitar,6,7,DL_Guitar,0.030647696927189827,0
62,100,0.3181818181818182,787,0,70,DL_Guitar,6,5,DL_Guitar,0.041368547827005386,0
62,100,0.38181818181818183,870,0,70,DL_Guitar,6,6,DL_Guitar,0.07206949591636658,0
62,100,0.42272727272727273,79,1,71,DL_Guitar,6,7,DL_Guitar,0.9988439083099365,1
55,100,0.5818181818181818,202,0,71,DL_Guitar,6,9,DL_Guitar,0.13799120485782623,0
55,100,0.1409090909090909,383,0,71,DL_Guitar,6,2,DL_Guitar,0.16238069534301758,0
55,100,1.1181818181818182,436,0,71,DL_Guitar,6,15,DL_Guitar,0.1910785585641861,0
55,100,2.2181818181818183,690,1,71,DL_Guitar,6,15,DL_Guitar,0.26194900274276733,0
67,100,0.1409090909090909,299,1,72,DL_Guitar,6,2,DL_Guitar,0.9990094900131226,1
55,100,0.41818181818181815,330,0,72,DL_Guitar,6,7,DL_Guitar,0.23322854936122894,0
60,100,0.8409090909090909,440,0,72,DL_Guitar,6,13,DL_Guitar,0.2705836892127991,0
60,100,0.6818181818181818,629,0,72,DL_Guitar,6,11,DL_Guitar,0.35792288184165955,0
67,100,0.11818181818181818,153,1,73,DL_Guitar,6,2,DL_Guitar,0.9986506104469299,1
67,100,0.13636363636363635,370,0,73,DL_Guitar,6,2,DL_Guitar,0.0879838615655899,0
55,100,0.11818181818181818,426,0,73,DL_Guitar,6,2,DL_Guitar,0.09298961609601974,0
55,100,0.12272727272727273,487,0,73,DL_Guitar,6,2,DL_Guitar,0.10995793342590332,0
55,100,1.2181818181818183,567,0,73,DL_Guitar,6,15,DL_Guitar,0.12867669761180878,0
55,100,2.077272727272727,866,1,73,DL_Guitar,6,15,DL_Guitar,0.18221977353096008,0
57,100,0.09545454545454546,525,1,0,_Guitar_1,6,2,_Guitar_1,0.9792242646217346,1
52,100,0.2636363636363636,200,1,4,_Guitar_1,6,4,_Guitar_1,0.9984879493713379,1
52,100,0.29545454545454547,264,0,4,_Guitar_1,6,5,_Guitar_1,0.06335268914699554,0
53,100,0.08181818181818182,405,0,4,_Guitar_1,6,1,_Guitar_1,0.058288831263780594,0
52,100,0.2318181818181818,423,0,4,_Guitar_1,6,4,_Guitar_1,0.0613611564040184,0
52,100,0.2818181818181818,489,0,4,_Guitar_1,6,5,_Guitar_1,0.07168249785900116,0
52,100,0.24545454545454545,564,0,4,_Guitar_1,6,4,_Guitar_1,0.08473437279462814,0
52,100,0.25,629,0,4,_Guitar_1,6,4,_Guitar_1,0.12635335326194763,0
59,100,0.4636363636363636,6,1,5,_Guitar_1,6,7,_Guitar_1,0.9986507296562195,1
59,100,0.1318181818181818,170,0,5,_Guitar_1,6,2,_Guitar_1,0.08798084408044815,0
52,100,0.6772727272727272,463,1,5,_Guitar_1,6,11,_Guitar_1,0.09298410266637802,0
52,100,0.22727272727272727,618,0,5,_Guitar_1,6,4,_Guitar_1,0.10995147377252579,0
52,100,0.35909090909090907,677,0,5,_Guitar_1,6,6,_Guitar_1,0.12867440283298492,0
52,100,0.9409090909090909,763,0,5,_Guitar_1,6,15,_Guitar_1,0.18222439289093018,0
52,100,1.2,101,1,6,_Guitar_1,6,15,_Guitar_1,0.9990094900131226,1
52,100,0.35909090909090907,383,1,6,_Guitar_1,6,6,_Guitar_1,0.23322643339633942,0
52,100,0.5772727272727273,472,0,6,_Guitar_1,6,9,_Guitar_1,0.27058228850364685,0
52,100,0.11363636363636363,604,0,6,_Guitar_1,6,2,_Guitar_1,0.357936292886734,0
59,100,0.1318181818181818,410,1,7,_Guitar_1,6,2,_Guitar_1,0.9792234897613525,1
59,100,0.1,799,1,9,_Guitar_1,6,2,_Guitar_1,0.979223906993866,1
57,100,0.31363636363636366,651,1,10,_Guitar_1,6,5,_Guitar_1,0.979223906993866,1
57,100,0.18181818181818182,63,1,11,_Guitar_1,6,3,_Guitar_1,0.9984879493713379,1
59,100,0.09545454545454546,357,1,11,_Guitar_1,6,2,_Guitar_1,0.0633549690246582,0
59,100,0.19545454545454546,419,0,11,_Guitar_1,6,3,_Guitar_1,0.0582888200879097,0
64,100,0.1,495,0,11,_Guitar_1,6,2,_Guitar_1,0.06136344000697136,0
59,100,0.08181818181818182,527,0,11,_Guitar_1,6,1,_Guitar_1,0.0716840848326683,0
59,100,0.32727272727272727,687,0,11,_Guitar_1,6,5,_Guitar_1,0.084737628698349,0
64,100,0.2,766,0,11,_Guitar_1,6,3,_Guitar_1,0.12635749578475952,0
64,100,0.15,13,1,12,_Guitar_1,6,2,_Guitar_1,0.9983004927635193,1
64,100,0.509090909090909,63,0,12,_Guitar_1,6,8,_Guitar_1,0.04466107115149498,0
52,100,0.18181818181818182,247,0,12,_Guitar_1,6,3,_Guitar_1,0.03337181732058525,0
52,100,0.08181818181818182,342,0,12,_Guitar_1,6,1,_Guitar_1,0.026948295533657074,0
52,100,0.24545454545454545,403,0,12,_Guitar_1,6,4,_Guitar_1,0.02408398687839508,0
64,100,0.7227272727272728,457,0,12,_Guitar_1,6,12,_Guitar_1,0.02497328259050846,0
59,100,0.16363636363636364,620,0,12,_Guitar_1,6,3,_Guitar_1,0.030647840350866318,0
59,100,0.09545454545454546,701,0,12,_Guitar_1,6,2,_Guitar_1,0.04136943444609642,0
64,100,0.15,751,0,12,_Guitar_1,6,2,_Guitar_1,0.07207153737545013,0
59,100,0.16363636363636364,240,1,13,_Guitar_1,6,3,_Guitar_1,0.9988439083099365,1
59,100,0.19545454545454546,283,0,13,_Guitar_1,6,3,_Guitar_1,0.13797836005687714,0
52,100,0.16363636363636364,407,0,13,_Guitar_1,6,3,_Guitar_1,0.1623619794845581,0
64,100,0.08181818181818182,479,0,13,_Guitar_1,6,1,_Guitar_1,0.1910557597875595,0
64,100,0.09545454545454546,740,1,13,_Guitar_1,6,2,_Guitar_1,0.261970192193985,0
59,100,0.08181818181818182,232,1,14,_Guitar_1,6,1,_Guitar_1,0.9983735084533691,1
59,100,0.14545454545454545,257,0,14,_Guitar_1,6,2,_Guitar_1,0.05105002224445343,0
59,100,0.17727272727272728,410,0,14,_Guitar_1,6,3,_Guitar_1,0.041611067950725555,0
59,100,0.32727272727272727,515,0,14,_Guitar_1,6,5,_Guitar_1,0.03797930106520653,0
59,100,0.14545454545454545,591,0,14,_Guitar_1,6,2,_Guitar_1,0.03925848379731178,0
59,100,0.18181818181818182,677,0,14,_Guitar_1,6,3,_Guitar_1,0.04616333916783333,0
64,100,0.1,799,0,14,_Guitar_1,6,2,_Guitar_1,0.057128891348838806,0
52,100,0.21363636363636362,821,0,14,_Guitar_1,6,3,_Guitar_1,0.0918789729475975,0
52,100,0.1,6,1,15,_Guitar_1,6,2,_Guitar_1,0.9983004927635193,1
52,100,0.29545454545454547,80,0,15,_Guitar_1,6,5,_Guitar_1,0.04466192424297333,0
52,100,0.15,166,0,15,_Guitar_1,6,2,_Guitar_1,0.03337244689464569,0
64,100,0.16363636363636364,445,1,15,_Guitar_1,6,3,_Guitar_1,0.026949090883135796,0
61,100,0.11363636363636363,543,0,15,_Guitar_1,6,2,_Guitar_1,0.02408415451645851,0
64,100,0.32727272727272727,572,0,15,_Guitar_1,6,5,_Guitar_1,0.024974148720502853,0
64,100,0.1318181818181818,665,0,15,_Guitar_1,6,2,_Guitar_1,0.030648531392216682,0
64,100,0.2636363636363636,723,0,15,_Guitar_1,6,4,_Guitar_1,0.04136987030506134,0
59,100,0.08636363636363636,838,0,15,_Guitar_1,6,1,_Guitar_1,0.07207171618938446,0
52,100,0.18181818181818182,85,1,16,_Guitar_1,6,3,_Guitar_1,0.9983735084533691,1
64,100,0.29545454545454547,133,0,16,_Guitar_1,6,5,_Guitar_1,0.05104941874742508,0
57,100,0.16363636363636364,299,0,16,_Guitar_1,6,3,_Guitar_1,0.041611067950725555,0
57,100,0.15,419,0,16,_Guitar_1,6,2,_Guitar_1,0.03797881677746773,0
64,100,0.11363636363636363,488,0,16,_Guitar_1,6,2,_Guitar_1,0.03926119953393936,0
59,100,0.09545454545454546,528,0,16,_Guitar_1,6,2,_Guitar_1,0.04616577550768852,0
59,100,0.09545454545454546,563,0,16,_Guitar_1,6,2,_Guitar_1,0.05713200941681862,0
59,100,0.2636363636363636,798,1,16,_Guitar_1,6,4,_Guitar_1,0.09188295155763626,0
52,100,0.24545454545454545,350,1,17,_Guitar_1,6,4,_Guitar_1,0.9986506104469299,1
64,100,0.1,436,0,17,_Guitar_1,6,2,_Guitar_1,0.08798114210367203,0
59,100,0.11363636363636363,505,0,17,_Guitar_1,6,2,_Guitar_1,0.09298529475927353,0
64,100,0.19545454545454546,538,0,17,_Guitar_1,6,3,_Guitar_1,0.10995033383369446,0
52,100,0.31363636363636366,621,0,17,_Guitar_1,6,5,_Guitar_1,0.12867459654808044,0
64,100,0.2318181818181818,866,1,17,_Guitar_1,6,4,_Guitar_1,0.18222765624523163,0
52,100,0.18181818181818182,700,1,18,_Guitar_1,6,3,_Guitar_1,0.9990280866622925,1
64,100,0.11363636363636363,739,0,18,_Guitar_1,6,2,_Guitar_1,0.37033993005752563,0
64,100,0.2818181818181818,772,0,18,_Guitar_1,6,5,_Guitar_1,0.45617353916168213,0
64,100,0.11363636363636363,240,1,19,_Guitar_1,6,2,_Guitar_1,0.9982556700706482,1
64,100,0.18181818181818182,282,0,19,_Guitar_1,6,3,_Guitar_1,0.04129236936569214,0
64,100,0.11363636363636363,395,0,19,_Guitar_1,6,2,_Guitar_1,0.02912568673491478,0
64,100,0.1,430,0,19,_Guitar_1,6,2,_Guitar_1,0.02156943641602993,0
52,100,0.29545454545454547,485,0,19,_Guitar_1,6,5,_Guitar_1,0.017059512436389923,0
52,100,0.11363636363636363,576,0,19,_Guitar_1,6,2,_Guitar_1,0.015269128605723381,0
59,100,0.14545454545454545,615,0,19,_Guitar_1,6,2,_Guitar_1,0.016456440091133118,0
64,100,0.1,680,0,19,_Guitar_1,6,2,_Guitar_1,0.021837763488292694,0
64,100,0.11818181818181818,705,0,19,_Guitar_1,6,2,_Guitar_1,0.032518111169338226,0
64,100,0.11818181818181818,839,0,19,_Guitar_1,6,2,_Guitar_1,0.06091317534446716,0
57,100,0.18181818181818182,68,1,20,_Guitar_1,6,3,_Guitar_1,0.9990094900131226,1
59,100,0.21363636363636362,684,1,20,_Guitar_1,6,3,_Guitar_1,0.23322710394859314,0
59,100,0.16363636363636364,803,0,20,_Guitar_1,6,3,_Guitar_1,0.2705787420272827,0
59,100,0.2772727272727273,876,0,20,_Guitar_1,6,4,_Guitar_1,0.35792413353919983,0
71,100,0.08181818181818182,302,1,21,_Guitar_1,6,1,_Guitar_1,0.9792236089706421,1
52,100,0.1,230,1,22,_Guitar_1,6,2,_Guitar_1,0.9983735084533691,1
52,100,0.24545454545454545,426,0,22,_Guitar_1,6,4,_Guitar_1,0.051048774272203445,0
59,100,0.11363636363636363,501,0,22,_Guitar_1,6,2,_Guitar_1,0.041610606014728546,0
59,100,0.21363636363636362,533,0,22,_Guitar_1,6,3,_Guitar_1,0.0379776656627655,0
59,100,0.15,587,0,22,_Guitar_1,6,2,_Guitar_1,0.03925803303718567,0
59,100,0.08181818181818182,660,0,22,_Guitar_1,6,1,_Guitar_1,0.04616380110383034,0
59,100,0.11363636363636363,748,0,22,_Guitar_1,6,2,_Guitar_1,0.05712905153632164,0
64,100,0.1318181818181818,801,0,22,_Guitar_1,6,2,_Guitar_1,0.09187977015972137,0
64,100,0.16818181818181818,0,1,23,_Guitar_1,6,3,_Guitar_1,0.9982556700706482,1
59,100,0.18181818181818182,131,0,23,_Guitar_1,6,3,_Guitar_1,0.04129231348633766,0
59,100,0.11363636363636363,261,0,23,_Guitar_1,6,2,_Guitar_1,0.029124997556209564,0
59,100,0.33181818181818185,333,0,23,_Guitar_1,6,5,_Guitar_1,0.021568410098552704,0
59,100,0.4090909090909091,413,0,23,_Guitar_1,6,7,_Guitar_1,0.017058704048395157,0
59,100,0.1318181818181818,508,0,23,_Guitar_1,6,2,_Guitar_1,0.015267808921635151,0
59,100,0.25,561,0,23,_Guitar_1,6,4,_Guitar_1,0.016455553472042084,0
64,100,0.21363636363636362,624,0,23,_Guitar_1,6,3,_Guitar_1,0.02183705009520054,0
59,100,0.16363636363636364,794,0,23,_Guitar_1,6,3,_Guitar_1,0.032517991960048676,0
59,100,0.34545454545454546,852,0,23,_Guitar_1,6,6,_Guitar_1,0.060913942754268646,0
59,100,0.11363636363636363,539,1,24,_Guitar_1,6,2,_Guitar_1,0.9983231425285339,1
61,100,0.19545454545454546,774,1,24,_Guitar_1,6,3,_Guitar_1,0.5462175607681274,1
64,100,0.19545454545454546,185,1,25,_Guitar_1,6,3,_Guitar_1,0.9986506104469299,1
59,100,0.15,303,0,25,_Guitar_1,6,2,_Guitar_1,0.08797762542963028,0
59,100,0.11818181818181818,364,0,25,_Guitar_1,6,2,_Guitar_1,0.09298291057348251,0
54,100,0.42727272727272725,394,0,25,_Guitar_1,6,7,_Guitar_1,0.109947070479393,0
59,100,0.37727272727272726,514,0,25,_Guitar_1,6,6,_Guitar_1,0.12866798043251038,0
64,100,0.1,796,1,25,_Guitar_1,6,2,_Guitar_1,0.1822175532579422,0
57,100,0.2,378,1,26,_Guitar_1,6,3,_Guitar_1,0.9983231425285339,1
59,100,0.1318181818181818,763,1,26,_Guitar_1,6,2,_Guitar_1,0.5462164282798767,1
64,100,0.1,136,1,27,_Guitar_1,6,2,_Guitar_1,0.9990094900131226,1
57,100,0.1318181818181818,312,0,27,_Guitar_1,6,2,_Guitar_1,0.23322783410549164,0
52,100,0.25,371,0,27,_Guitar_1,6,4,_Guitar_1,0.2705852687358856,0
64,100,0.19545454545454546,667,1,27,_Guitar_1,6,3,_Guitar_1,0.3579341471195221,0
59,100,0.1318181818181818,237,1,28,_Guitar_1,6,2,_Guitar_1,0.9990094900131226,1
59,100,0.2818181818181818,351,0,28,_Guitar_1,6,5,_Guitar_1,0.23322388529777527,0
59,100,0.09545454545454546,529,0,28,_Guitar_1,6,2,_Guitar_1,0.2705826163291931,0
66,100,0.11818181818181818,608,0,28,_Guitar_1,6,2,_Guitar_1,0.357927531003952,0
59,100,0.15,127,1,29,_Guitar_1,6,2,_Guitar_1,0.9983231425285339,1
64,100,0.18181818181818182,698,1,29,_Guitar_1,6,3,_Guitar_1,0.5462175607681274,1
64,100,0.09545454545454546,296,1,30,_Guitar_1,6,2,_Guitar_1,0.9983232617378235,1
57,100,0.2318181818181818,340,0,30,_Guitar_1,6,4,_Guitar_1,0.5462194085121155,1
64,100,0.21363636363636362,121,1,31,_Guitar_1,6,3,_Guitar_1,0.9990280866622925,1
52,100,0.2636363636363636,179,0,31,_Guitar_1,6,4,_Guitar_1,0.37033599615097046,0
52,100,0.11818181818181818,415,1,31,_Guitar_1,6,2,_Guitar_1,0.4561716616153717,0
64,100,0.3,378,1,32,_Guitar_1,6,5,_Guitar_1,0.9990280866622925,1
52,100,0.14545454545454545,596,0,32,_Guitar_1,6,2,_Guitar_1,0.370339035987854,0
52,100,0.1,743,0,32,_Guitar_1,6,2,_Guitar_1,0.45617467164993286,0
52,100,0.16818181818181818,76,1,33,_Guitar_1,6,3,_Guitar_1,0.9990280866622925,1
52,100,0.1,297,0,33,_Guitar_1,6,2,_Guitar_1,0.3703409731388092,0
52,100,0.11363636363636363,518,0,33,_Guitar_1,6,2,_Guitar_1,0.4561786949634552,0
59,100,0.1318181818181818,50,1,35,_Guitar_1,6,2,_Guitar_1,0.9983232617378235,1
61,100,0.1,408,1,35,_Guitar_1,6,2,_Guitar_1,0.5462191700935364,1
61,100,0.16363636363636364,255,1,36,_Guitar_1,6,3,_Guitar_1,0.9986506104469299,1
61,100,0.2818181818181818,302,0,36,_Guitar_1,6,5,_Guitar_1,0.08798088133335114,0
57,100,0.18181818181818182,433,0,36,_Guitar_1,6,3,_Guitar_1,0.0929890125989914,0
57,100,0.34545454545454546,643,0,36,_Guitar_1,6,6,_Guitar_1,0.10995549708604813,0
57,100,0.1,729,0,36,_Guitar_1,6,2,_Guitar_1,0.12868335843086243,0
57,100,0.1,770,0,36,_Guitar_1,6,2,_Guitar_1,0.18222948908805847,0
57,100,0.16363636363636364,342,1,37,_Guitar_1,6,3,_Guitar_1,0.9983232617378235,1
57,100,0.22727272727272727,480,0,37,_Guitar_1,6,4,_Guitar_1,0.5462168455123901,1
64,100,0.29545454545454547,150,1,38,_Guitar_1,6,5,_Guitar_1,0.9990094900131226,1
59,100,0.2318181818181818,380,0,38,_Guitar_1,6,4,_Guitar_1,0.2332295924425125,0
59,100,0.1318181818181818,543,0,38,_Guitar_1,6,2,_Guitar_1,0.27057549357414246,0
59,100,0.1318181818181818,648,0,38,_Guitar_1,6,2,_Guitar_1,0.3579280972480774,0
59,100,0.32727272727272727,76,1,39,_Guitar_1,6,5,_Guitar_1,0.9988439083099365,1
68,100,0.2636363636363636,370,1,39,_Guitar_1,6,4,_Guitar_1,0.13798345625400543,0
68,100,0.1318181818181818,439,0,39,_Guitar_1,6,2,_Guitar_1,0.1623656004667282,0
61,100,0.12727272727272726,591,0,39,_Guitar_1,6,2,_Guitar_1,0.19105564057826996,0
59,100,0.16363636363636364,692,0,39,_Guitar_1,6,3,_Guitar_1,0.26196691393852234,0
61,100,0.1,300,1,40,_Guitar_1,6,2,_Guitar_1,0.9990094900131226,1
57,100,0.18181818181818182,445,0,40,_Guitar_1,6,3,_Guitar_1,0.23323127627372742,0
59,100,0.16818181818181818,668,0,40,_Guitar_1,6,3,_Guitar_1,0.27058789134025574,0
57,100,0.14545454545454545,865,0,40,_Guitar_1,6,2,_Guitar_1,0.35793671011924744,0
54,100,0.18181818181818182,155,1,41,_Guitar_1,6,3,_Guitar_1,0.9990280866622925,1
57,100,0.19545454545454546,213,0,41,_Guitar_1,6,3,_Guitar_1,0.37033626437187195,0
54,100,0.2,577,1,41,_Guitar_1,6,3,_Guitar_1,0.45617473125457764,0
59,100,0.1,657,1,42,_Guitar_1,6,2,_Guitar_1,0.9792238473892212,1
52,100,0.11818181818181818,221,1,43,_Guitar_1,6,2,_Guitar_1,0.9990094900131226,1
52,100,0.1318181818181818,313,0,43,_Guitar_1,6,2,_Guitar_1,0.2332252860069275,0
52,100,0.1318181818181818,588,1,43,_Guitar_1,6,2,_Guitar_1,0.2705765962600708,0
64,100,0.08181818181818182,833,1,43,_Guitar_1,6,1,_Guitar_1,0.35793250799179077,0
52,100,0.15,156,1,44,_Guitar_1,6,2,_Guitar_1,0.9982556700706482,1
64,100,0.11363636363636363,228,0,44,_Guitar_1,6,2,_Guitar_1,0.041293106973171234,0
52,100,0.24545454545454545,265,0,44,_Guitar_1,6,4,_Guitar_1,0.029126010835170746,0
64,100,0.1,318,0,44,_Guitar_1,6,2,_Guitar_1,0.021570125594735146,0
52,100,0.21363636363636362,341,0,44,_Guitar_1,6,3,_Guitar_1,0.01706010289490223,0
52,100,0.24545454545454545,391,0,44,_Guitar_1,6,4,_Guitar_1,0.015268825925886631,0
52,100,0.15,536,0,44,_Guitar_1,6,2,_Guitar_1,0.01645674929022789,0
57,100,0.2,600,0,44,_Guitar_1,6,3,_Guitar_1,0.021837253123521805,0
64,100,0.1318181818181818,811,0,44,_Guitar_1,6,2,_Guitar_1,0.03251863643527031,0
52,100,0.3,846,0,44,_Guitar_1,6,5,_Guitar_1,0.06091230735182762,0
52,100,0.17727272727272728,308,1,45,_Guitar_1,6,3,_Guitar_1,0.9792242646217346,1
59,100,0.36363636363636365,566,1,46,_Guitar_1,6,6,_Guitar_1,0.9792237281799316,1
52,100,0.14545454545454545,27,1,47,_Guitar_1,6,2,_Guitar_1,0.9792242646217346,1
52,100,0.1318181818181818,74,1,48,_Guitar_1,6,2,_Guitar_1,0.9983735084533691,1
52,100,0.11363636363636363,435,1,48,_Guitar_1,6,2,_Guitar_1,0.05104970932006836,0
52,100,0.12727272727272726,522,0,48,_Guitar_1,6,2,_Guitar_1,0.0416121780872345,0
52,100,0.11363636363636363,584,0,48,_Guitar_1,6,2,_Guitar_1,0.0379805713891983,0
52,100,0.11818181818181818,638,0,48,_Guitar_1,6,2,_Guitar_1,0.03926132991909981,0
52,100,0.16363636363636364,710,0,48,_Guitar_1,6,3,_Guitar_1,0.046167854219675064,0
64,100,0.1318181818181818,747,0,48,_Guitar_1,6,2,_Guitar_1,0.05713378265500069,0
59,100,0.09545454545454546,852,0,48,_Guitar_1,6,2,_Guitar_1,0.09188350290060043,0
61,100,0.2318181818181818,760,1,50,_Guitar_1,6,4,_Guitar_1,0.979223370552063,1
68,100,0.21363636363636362,469,1,51,_Guitar_1,6,3,_Guitar_1,0.9990280866622925,1
59,100,0.08181818181818182,528,0,51,_Guitar_1,6,1,_Guitar_1,0.37034058570861816,0
64,100,0.18181818181818182,812,1,51,_Guitar_1,6,3,_Guitar_1,0.4561746418476105,0
54,100,0.21363636363636362,77,1,52,_Guitar_1,6,3,_Guitar_1,0.9990094900131226,1
64,100,0.09545454545454546,169,0,52,_Guitar_1,6,2,_Guitar_1,0.233229860663414,0
64,100,0.18181818181818182,233,0,52,_Guitar_1,6,3,_Guitar_1,0.270583838224411,0
59,100,0.16818181818181818,605,1,52,_Guitar_1,6,3,_Guitar_1,0.35793304443359375,0
59,100,0.15,261,1,53,_Guitar_1,6,2,_Guitar_1,0.9990280866622925,1
64,100,0.2818181818181818,638,1,53,_Guitar_1,6,5,_Guitar_1,0.37035080790519714,0
57,100,0.24545454545454545,710,0,53,_Guitar_1,6,4,_Guitar_1,0.45617949962615967,0
61,100,0.15,625,1,55,_Guitar_1,6,2,_Guitar_1,0.9983231425285339,1
61,100,0.15,767,0,55,_Guitar_1,6,2,_Guitar_1,0.5462188720703125,1
52,100,0.1,274,1,56,_Guitar_1,6,2,_Guitar_1,0.9990094900131226,1
64,100,0.37727272727272726,528,1,56,_Guitar_1,6,6,_Guitar_1,0.23322585225105286,0
59,100,0.08181818181818182,770,1,56,_Guitar_1,6,1,_Guitar_1,0.2705806791782379,0
59,100,0.18181818181818182,791,0,56,_Guitar_1,6,3,_Guitar_1,0.3579238951206207,0
59,100,0.2818181818181818,96,1,57,_Guitar_1,6,5,_Guitar_1,0.9988439083099365,1
59,100,0.08181818181818182,183,0,57,_Guitar_1,6,1,_Guitar_1,0.1379852443933487,0
59,100,0.18181818181818182,240,0,57,_Guitar_1,6,3,_Guitar_1,0.16236267983913422,0
59,100,0.11363636363636363,414,0,57,_Guitar_1,6,2,_Guitar_1,0.19105900824069977,0
61,100,0.15,686,1,57,_Guitar_1,6,2,_Guitar_1,0.2619604468345642,0
56,100,0.1318181818181818,160,1,58,_Guitar_1,6,2,_Guitar_1,0.9983232617378235,1
56,100,0.16363636363636364,591,1,58,_Guitar_1,6,3,_Guitar_1,0.5462140440940857,1
52,100,0.11818181818181818,109,1,59,_Guitar_1,6,2,_Guitar_1,0.9983232617378235,1
57,100,0.1,289,0,59,_Guitar_1,6,2,_Guitar_1,0.5462157726287842,1
61,100,0.1318181818181818,281,1,60,_Guitar_1,6,2,_Guitar_1,0.9990094900131226,1
61,100,0.2818181818181818,423,0,60,_Guitar_1,6,5,_Guitar_1,0.23322637379169464,0
61,100,0.1,514,0,60,_Guitar_1,6,2,_Guitar_1,0.2705790102481842,0
61,100,0.14545454545454545,637,0,60,_Guitar_1,6,2,_Guitar_1,0.3579169809818268,0
59,100,0.15,343,1,61,_Guitar_1,6,2,_Guitar_1,0.9990094900131226,1
61,100,0.37727272727272726,469,0,61,_Guitar_1,6,6,_Guitar_1,0.23322297632694244,0
61,100,0.1,658,0,61,_Guitar_1,6,2,_Guitar_1,0.2705813944339752,0
54,100,0.21363636363636362,788,0,61,_Guitar_1,6,3,_Guitar_1,0.3579297959804535,0
56,100,0.25,114,1,62,_Guitar_1,6,4,_Guitar_1,0.9990280866622925,1
52,100,0.16363636363636364,776,1,62,_Guitar_1,6,3,_Guitar_1,0.37034252285957336,0
59,100,0.15,845,0,62,_Guitar_1,6,2,_Guitar_1,0.4561682641506195,0
64,100,0.19545454545454546,34,1,63,_Guitar_1,6,3,_Guitar_1,0.9983232617378235,1
59,100,0.08636363636363636,522,1,63,_Guitar_1,6,1,_Guitar_1,0.5462169051170349,1
59,100,0.08181818181818182,72,1,64,_Guitar_1,6,1,_Guitar_1,0.9983232617378235,1
59,100,0.15,518,1,64,_Guitar_1,6,2,_Guitar_1,0.5462184548377991,1
64,100,0.11363636363636363,361,1,65,_Guitar_1,6,2,_Guitar_1,0.9988439083099365,1
64,100,0.1318181818181818,398,0,65,_Guitar_1,6,2,_Guitar_1,0.13797810673713684,0
59,100,0.38181818181818183,440,0,65,_Guitar_1,6,6,_Guitar_1,0.162362203001976,0
52,100,0.11363636363636363,695,1,65,_Guitar_1,6,2,_Guitar_1,0.1910548359155655,0
52,100,0.08181818181818182,744,0,65,_Guitar_1,6,1,_Guitar_1,0.2619694769382477,0
52,100,0.09545454545454546,7,1,66,_Guitar_1,6,2,_Guitar_1,0.9988439083099365,1
64,100,0.16363636363636364,162,0,66,_Guitar_1,6,3,_Guitar_1,0.13798309862613678,0
52,100,0.39545454545454545,262,0,66,_Guitar_1,6,6,_Guitar_1,0.16236886382102966,0
52,100,0.15,426,0,66,_Guitar_1,6,2,_Guitar_1,0.19106483459472656,0
59,100,0.34545454545454546,477,0,66,_Guitar_1,6,6,_Guitar_1,0.2619783580303192,0
59,100,0.31363636363636366,182,1,67,_Guitar_1,6,5,_Guitar_1,0.9990094900131226,1
59,100,0.15,628,1,67,_Guitar_1,6,2,_Guitar_1,0.23322881758213043,0
59,100,0.2318181818181818,715,0,67,_Guitar_1,6,4,_Guitar_1,0.27058282494544983,0
59,100,0.2318181818181818,769,0,67,_Guitar_1,6,4,_Guitar_1,0.3579300045967102,0
64,100,0.2818181818181818,106,1,68,_Guitar_1,6,5,_Guitar_1,0.9986506104469299,1
64,100,0.4090909090909091,247,0,68,_Guitar_1,6,7,_Guitar_1,0.08798043429851532,0
64,100,0.4954545454545455,356,0,68,_Guitar_1,6,8,_Guitar_1,0.09298543632030487,0
64,100,0.1318181818181818,685,1,68,_Guitar_1,6,2,_Guitar_1,0.10995254665613174,0
64,100,0.16363636363636364,757,0,68,_Guitar_1,6,3,_Guitar_1,0.12867416441440582,0
64,100,0.1,837,0,68,_Guitar_1,6,2,_Guitar_1,0.18222570419311523,0
64,100,0.16363636363636364,170,1,69,_Guitar_1,6,3,_Guitar_1,0.9982556700706482,1
64,100,0.11363636363636363,210,0,69,_Guitar_1,6,2,_Guitar_1,0.04129287973046303,0
64,100,0.25,267,0,69,_Guitar_1,6,4,_Guitar_1,0.029125208035111427,0
64,100,0.2,326,0,69,_Guitar_1,6,3,_Guitar_1,0.021569909527897835,0
64,100,0.2636363636363636,376,0,69,_Guitar_1,6,4,_Guitar_1,0.01705987937748432,0
59,100,0.08181818181818182,456,0,69,_Guitar_1,6,1,_Guitar_1,0.015268798917531967,0
52,100,0.24545454545454545,616,0,69,_Guitar_1,6,4,_Guitar_1,0.01645633950829506,0
52,100,0.1,716,0,69,_Guitar_1,6,2,_Guitar_1,0.02183801680803299,0
59,100,0.14545454545454545,760,0,69,_Guitar_1,6,2,_Guitar_1,0.032519176602363586,0
59,100,0.08636363636363636,817,0,69,_Guitar_1,6,1,_Guitar_1,0.0609133318066597,0
59,100,0.19545454545454546,536,1,70,_Guitar_1,6,3,_Guitar_1,0.9990094900131226,1
64,100,0.18181818181818182,592,0,70,_Guitar_1,6,3,_Guitar_1,0.23322118818759918,0
64,100,0.1,661,0,70,_Guitar_1,6,2,_Guitar_1,0.2705809772014618,0
64,100,0.11818181818181818,698,0,70,_Guitar_1,6,2,_Guitar_1,0.3579307198524475,0
52,100,0.2636363636363636,68,1,71,_Guitar_1,6,4,_Guitar_1,0.9983004927635193,1
59,100,0.34545454545454546,143,0,71,_Guitar_1,6,6,_Guitar_1,0.04466146603226662,0
59,100,0.08181818181818182,302,0,71,_Guitar_1,6,1,_Guitar_1,0.03337050974369049,0
59,100,0.2,426,0,71,_Guitar_1,6,3,_Guitar_1,0.02694726549088955,0
59,100,0.18181818181818182,491,0,71,_Guitar_1,6,3,_Guitar_1,0.02408272959291935,0
59,100,0.19545454545454546,541,0,71,_Guitar_1,6,3,_Guitar_1,0.024971719831228256,0
59,100,0.08181818181818182,643,0,71,_Guitar_1,6,1,_Guitar_1,0.030646665021777153,0
59,100,0.08181818181818182,723,0,71,_Guitar_1,6,1,_Guitar_1,0.041367366909980774,0
64,100,0.29545454545454547,879,0,71,_Guitar_1,6,5,_Guitar_1,0.07206981629133224,0
61,100,0.19545454545454546,216,1,72,_Guitar_1,6,3,_Guitar_1,0.9792223572731018,1
68,100,0.1318181818181818,117,1,73,_Guitar_1,6,2,_Guitar_1,0.9983231425285339,1
59,100,0.2590909090909091,540,1,73,_Guitar_1,6,4,_Guitar_1,0.5462157130241394,1
59,100,0.18181818181818182,131,1,74,_Guitar_1,6,3,_Guitar_1,0.9986506104469299,1
59,100,0.16363636363636364,301,0,74,_Guitar_1,6,3,_Guitar_1,0.0879804939031601,0
59,100,0.1318181818181818,343,0,74,_Guitar_1,6,2,_Guitar_1,0.09298381954431534,0
59,100,0.21363636363636362,495,0,74,_Guitar_1,6,3,_Guitar_1,0.10995205491781235,0
68,100,0.15,564,0,74,_Guitar_1,6,2,_Guitar_1,0.12866821885108948,0
64,100,0.21363636363636362,808,1,74,_Guitar_1,6,3,_Guitar_1,0.18222258985042572,0
59,100,0.18181818181818182,177,1,75,_Guitar_1,6,3,_Guitar_1,0.9983735084533691,1
64,100,0.11818181818181818,252,0,75,_Guitar_1,6,2,_Guitar_1,0.051049165427684784,0
52,100,0.08181818181818182,630,1,75,_Guitar_1,6,1,_Guitar_1,0.04161136969923973,0
64,100,0.08181818181818182,695,0,75,_Guitar_1,6,1,_Guitar_1,0.0379808247089386,0
59,100,0.11363636363636363,742,0,75,_Guitar_1,6,2,_Guitar_1,0.03926132246851921,0
59,100,0.19545454545454546,770,0,75,_Guitar_1,6,3,_Guitar_1,0.04616694897413254,0
52,100,0.2318181818181818,825,0,75,_Guitar_1,6,4,_Guitar_1,0.057132963091135025,0
64,100,0.1318181818181818,876,0,75,_Guitar_1,6,2,_Guitar_1,0.09188517928123474,0
52,100,0.1318181818181818,27,1,76,_Guitar_1,6,2,_Guitar_1,0.9990094900131226,1
64,100,0.18181818181818182,154,0,76,_Guitar_1,6,3,_Guitar_1,0.2332271784543991,0
59,100,0.36363636363636365,595,1,76,_Guitar_1,6,6,_Guitar_1,0.270582914352417,0
59,100,0.18181818181818182,733,0,76,_Guitar_1,6,3,_Guitar_1,0.35793325304985046,0
59,100,0.1318181818181818,38,1,77,_Guitar_1,6,2,_Guitar_1,0.9988439083099365,1
59,100,0.19545454545454546,176,0,77,_Guitar_1,6,3,_Guitar_1,0.1379811316728592,0
64,100,0.2318181818181818,374,0,77,_Guitar_1,6,4,_Guitar_1,0.16236461699008942,0
64,100,0.11818181818181818,447,0,77,_Guitar_1,6,2,_Guitar_1,0.19106215238571167,0
64,100,0.18181818181818182,620,0,77,_Guitar_1,6,3,_Guitar_1,0.2619784474372864,0
64,100,0.1318181818181818,210,1,78,_Guitar_1,6,2,_Guitar_1,0.9990280866622925,1
64,100,0.09545454545454546,359,0,78,_Guitar_1,6,2,_Guitar_1,0.3703373372554779,0
52,100,0.09545454545454546,646,1,78,_Guitar_1,6,2,_Guitar_1,0.4561685621738434,0
59,100,0.34545454545454546,247,1,79,_Guitar_1,6,6,_Guitar_1,0.9990280866622925,1
59,100,0.2772727272727273,435,0,79,_Guitar_1,6,4,_Guitar_1,0.3703373670578003,0
59,100,0.11363636363636363,745,1,79,_Guitar_1,6,2,_Guitar_1,0.4561677873134613,0
64,100,0.11363636363636363,11,1,80,_Guitar_1,6,2,_Guitar_1,0.9984879493713379,1
64,100,0.11818181818181818,206,0,80,_Guitar_1,6,2,_Guitar_1,0.06335560232400894,0
64,100,0.21818181818181817,288,0,80,_Guitar_1,6,3,_Guitar_1,0.05829121172428131,0
64,100,0.4772727272727273,478,0,80,_Guitar_1,6,8,_Guitar_1,0.06136396527290344,0
64,100,0.21363636363636362,604,0,80,_Guitar_1,6,3,_Guitar_1,0.07168741524219513,0
52,100,0.11818181818181818,650,0,80,_Guitar_1,6,2,_Guitar_1,0.08474033325910568,0
64,100,0.17727272727272728,676,0,80,_Guitar_1,6,3,_Guitar_1,0.12636081874370575,0
57,100,0.1,285,1,81,_Guitar_1,6,2,_Guitar_1,0.9990094900131226,1
64,100,0.08181818181818182,527,1,81,_Guitar_1,6,1,_Guitar_1,0.233234241604805,0
52,100,0.29545454545454547,546,0,81,_Guitar_1,6,5,_Guitar_1,0.27058395743370056,0
52,100,0.11818181818181818,632,0,81,_Guitar_1,6,2,_Guitar_1,0.35793477296829224,0
59,100,0.08181818181818182,53,1,82,_Guitar_1,6,1,_Guitar_1,0.9988439083099365,1
59,100,0.12727272727272726,74,0,82,_Guitar_1,6,2,_Guitar_1,0.1379823535680771,0
64,100,0.09545454545454546,632,1,82,_Guitar_1,6,2,_Guitar_1,0.16236655414104462,0
68,100,0.2318181818181818,668,0,82,_Guitar_1,6,4,_Guitar_1,0.19105522334575653,0
59,100,0.1,780,0,82,_Guitar_1,6,2,_Guitar_1,0.26197120547294617,0
64,100,0.16363636363636364,12,1,83,_Guitar_1,6,3,_Guitar_1,0.9990094900131226,1
68,100,0.18181818181818182,150,0,83,_Guitar_1,6,3,_Guitar_1,0.2332272082567215,0
59,100,0.1,554,1,83,_Guitar_1,6,2,_Guitar_1,0.27057886123657227,0
59,100,0.1318181818181818,700,0,83,_Guitar_1,6,2,_Guitar_1,0.35792940855026245,0
59,100,0.1318181818181818,37,1,84,_Guitar_1,6,2,_Guitar_1,0.9990280866622925,1
56,100,0.5590909090909091,439,1,84,_Guitar_1,6,9,_Guitar_1,0.3703365623950958,0
59,100,0.11818181818181818,828,1,84,_Guitar_1,6,2,_Guitar_1,0.4561712145805359,0
59,100,0.1318181818181818,126,1,85,_Guitar_1,6,2,_Guitar_1,0.9990280866622925,1
59,100,0.11363636363636363,521,1,85,_Guitar_1,6,2,_Guitar_1,0.37033259868621826,0
59,100,0.36363636363636365,744,0,85,_Guitar_1,6,6,_Guitar_1,0.4561682641506195,0
71,100,0.11363636363636363,136,1,87,_Guitar_1,6,2,_Guitar_1,0.9990280866622925,1
83,100,0.1,172,0,87,_Guitar_1,6,2,_Guitar_1,0.37033650279045105,0
83,100,0.1318181818181818,265,0,87,_Guitar_1,6,2,_Guitar_1,0.45616817474365234,0
59,100,0.5772727272727273,44,1,88,_Guitar_1,6,9,_Guitar_1,0.9983232617378235,1
59,100,0.2636363636363636,186,0,88,_Guitar_1,6,4,_Guitar_1,0.5462169647216797,1
59,100,0.21363636363636362,478,1,89,_Guitar_1,6,3,_Guitar_1,0.9792237281799316,1
54,100,0.08181818181818182,386,1,90,_Guitar_1,6,1,_Guitar_1,0.9990280866622925,1
54,100,1.3954545454545455,553,0,90,_Guitar_1,6,15,_Guitar_1,0.37034130096435547,0
56,100,0.1318181818181818,876,1,90,_Guitar_1,6,2,_Guitar_1,0.4561671316623688,0
59,100,0.1,458,1,91,_Guitar_1,6,2,_Guitar_1,0.979223906993866,1
59,100,0.15,161,1,92,_Guitar_1,6,2,_Guitar_1,0.9983231425285339,1
64,100,0.9545454545454546,692,1,92,_Guitar_1,6,15,_Guitar_1,0.5462178587913513,1
52,100,0.16363636363636364,110,1,93,_Guitar_1,6,3,_Guitar_1,0.9990280866622925,1
59,100,0.2318181818181818,550,1,93,_Guitar_1,6,4,_Guitar_1,0.3703323006629944,0
59,100,0.2636363636363636,765,0,93,_Guitar_1,6,4,_Guitar_1,0.45616957545280457,0
59,100,0.08181818181818182,278,1,94,_Guitar_1,6,1,_Guitar_1,0.9990094900131226,1
64,100,0.15,558,1,94,_Guitar_1,6,2,_Guitar_1,0.23322878777980804,0
64,100,0.35909090909090907,673,0,94,_Guitar_1,6,6,_Guitar_1,0.27058395743370056,0
64,100,0.24545454545454545,822,0,94,_Guitar_1,6,4,_Guitar_1,0.35793501138687134,0
64,100,0.35909090909090907,220,1,95,_Guitar_1,6,6,_Guitar_1,0.9984879493713379,1
64,100,0.16363636363636364,307,0,95,_Guitar_1,6,3,_Guitar_1,0.06335350126028061,0
64,100,0.2818181818181818,365,0,95,_Guitar_1,6,5,_Guitar_1,0.058289144188165665,0
64,100,0.08181818181818182,452,0,95,_Guitar_1,6,1,_Guitar_1,0.06136323884129524,0
64,100,0.08181818181818182,509,0,95,_Guitar_1,6,1,_Guitar_1,0.07168484479188919,0
59,100,0.18181818181818182,538,0,95,_Guitar_1,6,3,_Guitar_1,0.08473699539899826,0
54,100,0.11818181818181818,879,1,95,_Guitar_1,6,2,_Guitar_1,0.12635643780231476,0
59,100,0.34545454545454546,220,1,96,_Guitar_1,6,6,_Guitar_1,0.9990280866622925,1
59,100,0.24545454545454545,300,0,96,_Guitar_1,6,4,_Guitar_1,0.3703415095806122,0
59,100,0.08181818181818182,781,1,96,_Guitar_1,6,1,_Guitar_1,0.45617204904556274,0
59,100,0.31363636363636366,132,1,97,_Guitar_1,6,5,_Guitar_1,0.9988439083099365,1
64,100,0.19545454545454546,227,0,97,_Guitar_1,6,3,_Guitar_1,0.13797912001609802,0
59,100,0.2772727272727273,349,0,97,_Guitar_1,6,4,_Guitar_1,0.1623620092868805,0
52,100,0.17727272727272728,443,0,97,_Guitar_1,6,3,_Guitar_1,0.19105714559555054,0
64,100,0.11363636363636363,577,0,97,_Guitar_1,6,2,_Guitar_1,0.2619677484035492,0
59,100,0.21363636363636362,500,1,98,_Guitar_1,6,3,_Guitar_1,0.9990280866622925,1
52,100,0.2,648,0,98,_Guitar_1,6,3,_Guitar_1,0.37033703923225403,0
59,100,0.21363636363636362,769,0,98,_Guitar_1,6,3,_Guitar_1,0.4561709463596344,0
59,100,0.18181818181818182,72,1,99,_Guitar_1,6,3,_Guitar_1,0.9986506104469299,1
59,100,0.11363636363636363,330,1,99,_Guitar_1,6,2,_Guitar_1,0.08797857910394669,0
59,100,0.08181818181818182,376,0,99,_Guitar_1,6,1,_Guitar_1,0.0929822325706482,0
59,100,0.35909090909090907,398,0,99,_Guitar_1,6,6,_Guitar_1,0.10994808375835419,0
64,100,0.19545454545454546,768,1,99,_Guitar_1,6,3,_Guitar_1,0.1286713182926178,0
64,100,0.1318181818181818,837,0,99,_Guitar_1,6,2,_Guitar_1,0.18222245573997498,0
59,100,0.2636363636363636,326,1,100,_Guitar_1,6,4,_Guitar_1,0.9988439083099365,1
64,100,0.14545454545454545,390,0,100,_Guitar_1,6,2,_Guitar_1,0.13798128068447113,0
64,100,0.29545454545454547,527,0,100,_Guitar_1,6,5,_Guitar_1,0.16236472129821777,0
64,100,0.18181818181818182,621,0,100,_Guitar_1,6,3,_Guitar_1,0.1910589635372162,0
59,100,0.16363636363636364,861,1,100,_Guitar_1,6,3,_Guitar_1,0.2619723975658417,0
59,100,0.16363636363636364,27,1,101,_Guitar_1,6,3,_Guitar_1,0.9990094900131226,1
59,100,0.21363636363636362,462,1,101,_Guitar_1,6,3,_Guitar_1,0.2332296520471573,0
64,100,0.1318181818181818,792,1,101,_Guitar_1,6,2,_Guitar_1,0.2705810070037842,0
64,100,0.21363636363636362,832,0,101,_Guitar_1,6,3,_Guitar_1,0.3579343259334564,0
59,100,0.08181818181818182,1,1,102,_Guitar_1,6,1,_Guitar_1,0.9983735084533691,1
59,100,0.21363636363636362,27,0,102,_Guitar_1,6,3,_Guitar_1,0.05104805901646614,0
59,100,0.17727272727272728,320,1,102,_Guitar_1,6,3,_Guitar_1,0.041611865162849426,0
59,100,0.1,374,0,102,_Guitar_1,6,2,_Guitar_1,0.03797874599695206,0
59,100,0.08181818181818182,451,0,102,_Guitar_1,6,1,_Guitar_1,0.03926001861691475,0
59,100,0.4772727272727273,472,0,102,_Guitar_1,6,8,_Guitar_1,0.04616641625761986,0
59,100,0.2318181818181818,599,0,102,_Guitar_1,6,4,_Guitar_1,0.05713200941681862,0
59,100,0.16363636363636364,826,0,102,_Guitar_1,6,3,_Guitar_1,0.0918806716799736,0
59,100,0.5454545454545454,685,1,103,_Guitar_1,6,9,_Guitar_1,0.9983231425285339,1
59,100,0.4409090909090909,844,0,103,_Guitar_1,6,7,_Guitar_1,0.5462136268615723,1
54,100,0.5227272727272727,258,1,104,_Guitar_1,6,8,_Guitar_1,0.9792245030403137,1
59,100,1.2181818181818183,679,1,105,_Guitar_1,6,15,_Guitar_1,0.9792227745056152,1
59,100,0.1,133,1,106,_Guitar_1,6,2,_Guitar_1,0.9990094900131226,1
52,100,1.5954545454545455,173,0,106,_Guitar_1,6,15,_Guitar_1,0.23322629928588867,0
52,100,0.1318181818181818,552,1,106,_Guitar_1,6,2,_Guitar_1,0.270585834980011,0
52,100,0.11363636363636363,687,0,106,_Guitar_1,6,2,_Guitar_1,0.35793209075927734,0
59,100,0.08181818181818182,353,1,107,_Guitar_1,6,1,_Guitar_1,0.9983232617378235,1
64,100,0.5590909090909091,834,1,107,_Guitar_1,6,9,_Guitar_1,0.5462132692337036,1
64,100,0.11363636363636363,121,1,108,_Guitar_1,6,2,_Guitar_1,0.9988439083099365,1
64,100,0.29545454545454547,302,0,108,_Guitar_1,6,5,_Guitar_1,0.13798148930072784,0
59,100,0.16818181818181818,381,0,108,_Guitar_1,6,3,_Guitar_1,0.1623658984899521,0
64,100,0.36363636363636365,642,1,108,_Guitar_1,6,6,_Guitar_1,0.1910625845193863,0
52,100,1.0681818181818181,722,0,108,_Guitar_1,6,15,_Guitar_1,0.26197564601898193,0
52,100,0.25,126,1,109,_Guitar_1,6,4,_Guitar_1,0.9792248606681824,1
66,100,0.14545454545454545,137,1,110,_Guitar_1,6,2,_Guitar_1,0.9990280866622925,1
52,100,0.22727272727272727,337,0,110,_Guitar_1,6,4,_Guitar_1,0.37033915519714355,0
59,100,0.09545454545454546,742,1,110,_Guitar_1,6,2,_Guitar_1,0.4561706483364105,0
64,100,0.5590909090909091,650,1,111,_Guitar_1,6,9,_Guitar_1,0.9983231425285339,1
64,100,0.11818181818181818,777,0,111,_Guitar_1,6,2,_Guitar_1,0.5462163686752319,1
59,100,0.24545454545454545,551,1,112,_Guitar_1,6,4,_Guitar_1,0.9983231425285339,1
52,100,0.29545454545454547,755,0,112,_Guitar_1,6,5,_Guitar_1,0.5462192296981812,1
59,100,0.18181818181818182,81,1,113,_Guitar_1,6,3,_Guitar_1,0.9986506104469299,1
59,100,0.11818181818181818,123,0,113,_Guitar_1,6,2,_Guitar_1,0.08798271417617798,0
56,100,0.11363636363636363,261,0,113,_Guitar_1,6,2,_Guitar_1,0.0929877981543541,0
56,100,0.1318181818181818,319,0,113,_Guitar_1,6,2,_Guitar_1,0.10995473712682724,0
57,100,0.37727272727272726,471,0,113,_Guitar_1,6,6,_Guitar_1,0.12867887318134308,0
57,100,0.2818181818181818,597,0,113,_Guitar_1,6,5,_Guitar_1,0.18223156034946442,0
52,100,0.18181818181818182,235,1,114,_Guitar_1,6,3,_Guitar_1,0.9983735084533691,1
57,100,0.14545454545454545,370,0,114,_Guitar_1,6,2,_Guitar_1,0.05105016008019447,0
57,100,0.34545454545454546,435,0,114,_Guitar_1,6,6,_Guitar_1,0.041612349450588226,0
59,100,0.2318181818181818,528,0,114,_Guitar_1,6,4,_Guitar_1,0.03797989711165428,0
59,100,0.1318181818181818,734,0,114,_Guitar_1,6,2,_Guitar_1,0.039260100573301315,0
59,100,0.1,768,0,114,_Guitar_1,6,2,_Guitar_1,0.04616577550768852,0
52,100,0.1,828,0,114,_Guitar_1,6,2,_Guitar_1,0.057131703943014145,0
64,100,0.08181818181818182,876,0,114,_Guitar_1,6,1,_Guitar_1,0.09188252687454224,0
52,100,0.09545454545454546,51,1,115,_Guitar_1,6,2,_Guitar_1,0.9990094900131226,1
52,100,0.5727272727272728,203,0,115,_Guitar_1,6,9,_Guitar_1,0.2332349419593811,0
56,100,0.19545454545454546,361,0,115,_Guitar_1,6,3,_Guitar_1,0.2705800533294678,0
59,100,0.15,796,1,115,_Guitar_1,6,2,_Guitar_1,0.3579314649105072,0
52,100,0.37727272727272726,282,1,116,_Guitar_1,6,6,_Guitar_1,0.9990280866622925,1
52,100,0.11363636363636363,375,0,116,_Guitar_1,6,2,_Guitar_1,0.3703506290912628,0
57,100,0.08181818181818182,443,0,116,_Guitar_1,6,1,_Guitar_1,0.45617592334747314,0
59,100,0.34545454545454546,5,1,117,_Guitar_1,6,6,_Guitar_1,0.9984879493713379,1
52,100,0.08636363636363636,377,1,117,_Guitar_1,6,1,_Guitar_1,0.06335488706827164,0
52,100,0.08181818181818182,465,0,117,_Guitar_1,6,1,_Guitar_1,0.058290574699640274,0
52,100,0.6227272727272727,502,0,117,_Guitar_1,6,10,_Guitar_1,0.0613623708486557,0
52,100,0.11363636363636363,657,0,117,_Guitar_1,6,2,_Guitar_1,0.07168586552143097,0
52,100,0.1,780,0,117,_Guitar_1,6,2,_Guitar_1,0.08473999798297882,0
52,100,0.19545454545454546,860,0,117,_Guitar_1,6,3,_Guitar_1,0.12635913491249084,0
52,100,0.31363636363636366,73,1,118,_Guitar_1,6,5,_Guitar_1,0.9990280866622925,1
64,100,0.08181818181818182,396,1,118,_Guitar_1,6,1,_Guitar_1,0.3703365921974182,0
52,100,0.11363636363636363,765,1,118,_Guitar_1,6,2,_Guitar_1,0.4561719596385956,0
57,100,0.11818181818181818,638,1,0,_Guitar,6,2,_Guitar,0.9792241454124451,1
52,100,0.32272727272727275,122,1,5,_Guitar,6,5,_Guitar,0.9984879493713379,1
52,100,0.36363636363636365,201,0,5,_Guitar,6,6,_Guitar,0.06335417181253433,0
53,100,0.1,373,0,5,_Guitar,6,2,_Guitar,0.058287858963012695,0
52,100,0.2818181818181818,396,0,5,_Guitar,6,5,_Guitar,0.06136002019047737,0
52,100,0.3409090909090909,475,0,5,_Guitar,6,5,_Guitar,0.07167992740869522,0
52,100,0.3,568,0,5,_Guitar,6,5,_Guitar,0.08473281562328339,0
52,100,0.3,647,0,5,_Guitar,6,5,_Guitar,0.1263500601053238,0
59,100,0.5590909090909091,79,1,6,_Guitar,6,9,_Guitar,0.9990094900131226,1
59,100,0.1590909090909091,276,0,6,_Guitar,6,3,_Guitar,0.23322847485542297,0
52,100,0.8181818181818182,634,1,6,_Guitar,6,13,_Guitar,0.27057352662086487,0
52,100,0.2772727272727273,823,0,6,_Guitar,6,4,_Guitar,0.35793250799179077,0
52,100,0.4409090909090909,12,1,7,_Guitar,6,7,_Guitar,0.9988439083099365,1
52,100,1.1409090909090909,118,0,7,_Guitar,6,15,_Guitar,0.13798239827156067,0
52,100,1.459090909090909,383,1,7,_Guitar,6,15,_Guitar,0.16236424446105957,0
52,100,0.4409090909090909,726,1,7,_Guitar,6,7,_Guitar,0.19106443226337433,0
52,100,0.7,836,0,7,_Guitar,6,11,_Guitar,0.2619740962982178,0
52,100,0.1409090909090909,113,1,8,_Guitar,6,2,_Guitar,0.9792248606681824,1
59,100,0.16363636363636364,70,1,9,_Guitar,6,3,_Guitar,0.979223906993866,1
59,100,0.11818181818181818,44,1,12,_Guitar,6,2,_Guitar,0.9792243838310242,1
57,100,0.37727272727272726,53,1,13,_Guitar,6,6,_Guitar,0.9990094900131226,1
57,100,0.22272727272727272,409,1,13,_Guitar,6,4,_Guitar,0.23322606086730957,0
59,100,0.11818181818181818,766,1,13,_Guitar,6,2,_Guitar,0.2705831229686737,0
59,100,0.2409090909090909,840,0,13,_Guitar,6,4,_Guitar,0.35792872309684753,0
64,100,0.11818181818181818,53,1,14,_Guitar,6,2,_Guitar,0.9984879493713379,1
59,100,0.1,92,0,14,_Guitar,6,2,_Guitar,0.06335407495498657,0
59,100,0.4,285,0,14,_Guitar,6,6,_Guitar,0.058288514614105225,0
64,100,0.2409090909090909,383,0,14,_Guitar,6,4,_Guitar,0.06136098504066467,0
64,100,0.17727272727272728,536,0,14,_Guitar,6,3,_Guitar,0.07168332487344742,0
64,100,0.6227272727272727,598,0,14,_Guitar,6,10,_Guitar,0.08473548293113708,0
52,100,0.21818181818181817,823,0,14,_Guitar,6,3,_Guitar,0.12635338306427002,0
52,100,0.1,56,1,15,_Guitar,6,2,_Guitar,0.9986506104469299,1
52,100,0.3,132,0,15,_Guitar,6,5,_Guitar,0.08797876536846161,0
64,100,0.8818181818181818,197,0,15,_Guitar,6,14,_Guitar,0.09298243373632431,0
59,100,0.2,395,0,15,_Guitar,6,3,_Guitar,0.1099499985575676,0
59,100,0.11818181818181818,493,0,15,_Guitar,6,2,_Guitar,0.12867090106010437,0
64,100,0.18181818181818182,553,0,15,_Guitar,6,3,_Guitar,0.18222300708293915,0
59,100,0.2,123,1,16,_Guitar,6,3,_Guitar,0.9988439083099365,1
59,100,0.2409090909090909,175,0,16,_Guitar,6,4,_Guitar,0.13798125088214874,0
52,100,0.2,326,0,16,_Guitar,6,3,_Guitar,0.16235965490341187,0
64,100,0.1,413,0,16,_Guitar,6,2,_Guitar,0.19105586409568787,0
64,100,0.12272727272727273,729,1,16,_Guitar,6,2,_Guitar,0.2619696855545044,0
59,100,0.1,303,1,17,_Guitar,6,2,_Guitar,0.9986506104469299,1
59,100,0.18181818181818182,333,0,17,_Guitar,6,3,_Guitar,0.0879775807261467,0
59,100,0.22272727272727272,519,0,17,_Guitar,6,4,_Guitar,0.0929839015007019,0
59,100,0.4,646,0,17,_Guitar,6,6,_Guitar,0.10994534194469452,0
59,100,0.18181818181818182,739,0,17,_Guitar,6,3,_Guitar,0.12867355346679688,0
59,100,0.21818181818181817,845,0,17,_Guitar,6,3,_Guitar,0.18221454322338104,0
64,100,0.12272727272727273,113,1,18,_Guitar,6,2,_Guitar,0.9984880685806274,1
52,100,0.2590909090909091,140,0,18,_Guitar,6,4,_Guitar,0.06335295736789703,0
52,100,0.11818181818181818,220,0,18,_Guitar,6,2,_Guitar,0.058289144188165665,0
52,100,0.35909090909090907,308,0,18,_Guitar,6,6,_Guitar,0.0613623708486557,0
52,100,0.17727272727272728,413,0,18,_Guitar,6,3,_Guitar,0.07168509066104889,0
64,100,0.2,752,1,18,_Guitar,6,3,_Guitar,0.08473721891641617,0
61,100,0.1409090909090909,870,0,18,_Guitar,6,2,_Guitar,0.1263534426689148,0
64,100,0.4,26,1,19,_Guitar,6,6,_Guitar,0.9984879493713379,1
64,100,0.1590909090909091,140,0,19,_Guitar,6,3,_Guitar,0.06335336714982986,0
64,100,0.32272727272727275,210,0,19,_Guitar,6,5,_Guitar,0.058289650827646255,0
59,100,0.1,351,0,19,_Guitar,6,2,_Guitar,0.06136191636323929,0
52,100,0.21818181818181817,505,0,19,_Guitar,6,3,_Guitar,0.07168474793434143,0
64,100,0.35909090909090907,563,0,19,_Guitar,6,6,_Guitar,0.08473721891641617,0
57,100,0.2,766,0,19,_Guitar,6,3,_Guitar,0.12635496258735657,0
57,100,0.17727272727272728,30,1,20,_Guitar,6,3,_Guitar,0.9988439083099365,1
64,100,0.1409090909090909,113,0,20,_Guitar,6,2,_Guitar,0.13798294961452484,0
59,100,0.11818181818181818,162,0,20,_Guitar,6,2,_Guitar,0.16236597299575806,0
59,100,0.11818181818181818,206,0,20,_Guitar,6,2,_Guitar,0.19106101989746094,0
59,100,0.3181818181818182,492,1,20,_Guitar,6,5,_Guitar,0.26196858286857605,0
52,100,0.3,136,1,21,_Guitar,6,5,_Guitar,0.9986506104469299,1
64,100,0.11818181818181818,241,0,21,_Guitar,6,2,_Guitar,0.08798088133335114,0
59,100,0.13636363636363635,326,0,21,_Guitar,6,2,_Guitar,0.09298349916934967,0
64,100,0.2409090909090909,364,0,21,_Guitar,6,4,_Guitar,0.10994919389486313,0
52,100,0.38181818181818183,466,0,21,_Guitar,6,6,_Guitar,0.1286713033914566,0
64,100,0.2772727272727273,766,1,21,_Guitar,6,4,_Guitar,0.18222221732139587,0
52,100,0.22272727272727272,752,1,22,_Guitar,6,4,_Guitar,0.9990280866622925,1
64,100,0.1409090909090909,801,0,22,_Guitar,6,2,_Guitar,0.3703426122665405,0
64,100,0.3409090909090909,839,0,22,_Guitar,6,5,_Guitar,0.45617184042930603,0
64,100,0.1409090909090909,382,1,23,_Guitar,6,2,_Guitar,0.9984880685806274,1
64,100,0.21818181818181817,436,0,23,_Guitar,6,3,_Guitar,0.06335380673408508,0
64,100,0.1409090909090909,571,0,23,_Guitar,6,2,_Guitar,0.058289751410484314,0
64,100,0.11818181818181818,615,0,23,_Guitar,6,2,_Guitar,0.06136464700102806,0
52,100,0.35909090909090907,681,0,23,_Guitar,6,6,_Guitar,0.07168621569871902,0
52,100,0.1409090909090909,791,0,23,_Guitar,6,2,_Guitar,0.08474113792181015,0
59,100,0.18181818181818182,839,0,23,_Guitar,6,3,_Guitar,0.12635748088359833,0
64,100,0.11818181818181818,40,1,24,_Guitar,6,2,_Guitar,0.9990094900131226,1
64,100,0.1409090909090909,69,0,24,_Guitar,6,2,_Guitar,0.2332318276166916,0
64,100,0.1409090909090909,233,0,24,_Guitar,6,2,_Guitar,0.27058929204940796,0
57,100,0.22272727272727272,364,0,24,_Guitar,6,4,_Guitar,0.3579312860965729,0
59,100,0.2590909090909091,233,1,25,_Guitar,6,4,_Guitar,0.9990094900131226,1
59,100,0.2,378,0,25,_Guitar,6,3,_Guitar,0.2332272082567215,0
59,100,0.3409090909090909,466,0,25,_Guitar,6,5,_Guitar,0.2705855667591095,0
71,100,0.1,839,1,25,_Guitar,6,2,_Guitar,0.35792556405067444,0
52,100,0.11818181818181818,61,1,27,_Guitar,6,2,_Guitar,0.9983004927635193,1
52,100,0.3,299,1,27,_Guitar,6,5,_Guitar,0.04466131329536438,0
59,100,0.13636363636363635,391,0,27,_Guitar,6,2,_Guitar,0.03337101638317108,0
59,100,0.2590909090909091,430,0,27,_Guitar,6,4,_Guitar,0.02694729156792164,0
59,100,0.18181818181818182,497,0,27,_Guitar,6,3,_Guitar,0.024083536118268967,0
59,100,0.1,584,0,27,_Guitar,6,2,_Guitar,0.02497231401503086,0
59,100,0.1409090909090909,691,0,27,_Guitar,6,2,_Guitar,0.030647099018096924,0
64,100,0.1590909090909091,756,0,27,_Guitar,6,3,_Guitar,0.04136916995048523,0
64,100,0.2,853,0,27,_Guitar,6,3,_Guitar,0.07206999510526657,0
59,100,0.21818181818181817,131,1,28,_Guitar,6,3,_Guitar,0.9984879493713379,1
59,100,0.1409090909090909,289,0,28,_Guitar,6,2,_Guitar,0.06335251033306122,0
59,100,0.4,378,0,28,_Guitar,6,6,_Guitar,0.058286894112825394,0
59,100,0.5,474,0,28,_Guitar,6,8,_Guitar,0.06135907396674156,0
59,100,0.1590909090909091,590,0,28,_Guitar,6,3,_Guitar,0.07167896628379822,0
59,100,0.3,656,0,28,_Guitar,6,5,_Guitar,0.08473179489374161,0
64,100,0.2636363636363636,729,0,28,_Guitar,6,4,_Guitar,0.12634949386119843,0
59,100,0.2,57,1,29,_Guitar,6,3,_Guitar,0.9990280866622925,1
59,100,0.41818181818181815,127,0,29,_Guitar,6,7,_Guitar,0.3703352212905884,0
59,100,0.1409090909090909,818,1,29,_Guitar,6,2,_Guitar,0.45617055892944336,0
61,100,0.2409090909090909,223,1,30,_Guitar,6,4,_Guitar,0.9988439083099365,1
64,100,0.2409090909090909,576,1,30,_Guitar,6,4,_Guitar,0.13798481225967407,0
59,100,0.17727272727272728,721,0,30,_Guitar,6,3,_Guitar,0.1623668521642685,0
59,100,0.1409090909090909,796,0,30,_Guitar,6,2,_Guitar,0.19105857610702515,0
54,100,0.5181818181818182,831,0,30,_Guitar,6,8,_Guitar,0.2619664967060089,0
59,100,0.4590909090909091,96,1,31,_Guitar,6,7,_Guitar,0.9983231425285339,1
64,100,0.11818181818181818,440,1,31,_Guitar,6,2,_Guitar,0.5462221503257751,1
57,100,0.2409090909090909,123,1,32,_Guitar,6,4,_Guitar,0.9983231425285339,1
59,100,0.1590909090909091,590,1,32,_Guitar,6,3,_Guitar,0.546218991279602,1
64,100,0.11818181818181818,18,1,33,_Guitar,6,2,_Guitar,0.9990094900131226,1
57,100,0.1590909090909091,233,0,33,_Guitar,6,3,_Guitar,0.23322902619838715,0
52,100,0.3,303,0,33,_Guitar,6,5,_Guitar,0.27058181166648865,0
64,100,0.2409090909090909,664,1,33,_Guitar,6,4,_Guitar,0.3579404652118683,0
59,100,0.1590909090909091,330,1,34,_Guitar,6,3,_Guitar,0.9990094900131226,1
59,100,0.3409090909090909,471,0,34,_Guitar,6,5,_Guitar,0.2332293838262558,0
59,100,0.12272727272727273,686,0,34,_Guitar,6,2,_Guitar,0.2705857753753662,0
66,100,0.1409090909090909,783,0,34,_Guitar,6,2,_Guitar,0.35792985558509827,0
59,100,0.18181818181818182,386,1,35,_Guitar,6,3,_Guitar,0.9792242646217346,1
64,100,0.22272727272727272,201,1,36,_Guitar,6,4,_Guitar,0.9990280866622925,1
64,100,0.12272727272727273,783,1,36,_Guitar,6,2,_Guitar,0.3703412711620331,0
57,100,0.2818181818181818,836,0,36,_Guitar,6,5,_Guitar,0.4561690092086792,0
64,100,0.2590909090909091,761,1,37,_Guitar,6,4,_Guitar,0.9983231425285339,1
52,100,0.3181818181818182,831,0,37,_Guitar,6,5,_Guitar,0.5462165474891663,1
52,100,0.13636363636363635,238,1,38,_Guitar,6,2,_Guitar,0.9792245030403137,1
64,100,0.35909090909090907,383,1,39,_Guitar,6,6,_Guitar,0.9990280866622925,1
52,100,0.17727272727272728,646,1,39,_Guitar,6,3,_Guitar,0.37034064531326294,0
52,100,0.12272727272727273,826,0,39,_Guitar,6,2,_Guitar,0.45617571473121643,0
52,100,0.2,206,1,40,_Guitar,6,3,_Guitar,0.9990280866622925,1
52,100,0.12272727272727273,474,1,40,_Guitar,6,2,_Guitar,0.37033525109291077,0
52,100,0.13636363636363635,743,1,40,_Guitar,6,2,_Guitar,0.45617303252220154,0
59,100,0.16363636363636364,554,1,42,_Guitar,6,3,_Guitar,0.9792238473892212,1
61,100,0.11818181818181818,110,1,43,_Guitar,6,2,_Guitar,0.9792225360870361,1
61,100,0.2,114,1,44,_Guitar,6,3,_Guitar,0.9986506104469299,1
61,100,0.33636363636363636,171,0,44,_Guitar,6,5,_Guitar,0.0879831314086914,0
57,100,0.21818181818181817,330,0,44,_Guitar,6,3,_Guitar,0.09298893064260483,0
57,100,0.42272727272727273,584,1,44,_Guitar,6,7,_Guitar,0.10995831340551376,0
57,100,0.11818181818181818,691,0,44,_Guitar,6,2,_Guitar,0.12868307530879974,0
57,100,0.12272727272727273,738,0,44,_Guitar,6,2,_Guitar,0.1822313368320465,0
57,100,0.2,408,1,45,_Guitar,6,3,_Guitar,0.9983232617378235,1
57,100,0.2818181818181818,576,0,45,_Guitar,6,5,_Guitar,0.5462181568145752,1
64,100,0.35909090909090907,364,1,46,_Guitar,6,6,_Guitar,0.9990280866622925,1
59,100,0.2772727272727273,646,1,46,_Guitar,6,4,_Guitar,0.3703386187553406,0
59,100,0.1590909090909091,845,0,46,_Guitar,6,3,_Guitar,0.45616650581359863,0
59,100,0.16363636363636364,91,1,47,_Guitar,6,3,_Guitar,0.9990280866622925,1
59,100,0.4,466,1,47,_Guitar,6,6,_Guitar,0.3703496754169464,0
68,100,0.3181818181818182,823,1,47,_Guitar,6,5,_Guitar,0.4561656415462494,0
68,100,0.16363636363636364,26,1,48,_Guitar,6,3,_Guitar,0.9990280866622925,1
61,100,0.1590909090909091,211,0,48,_Guitar,6,3,_Guitar,0.3703358769416809,0
59,100,0.2,334,0,48,_Guitar,6,3,_Guitar,0.4561713635921478,0
61,100,0.12272727272727273,48,1,49,_Guitar,6,2,_Guitar,0.9990094900131226,1
57,100,0.22272727272727272,224,0,49,_Guitar,6,4,_Guitar,0.23323841392993927,0
59,100,0.2,496,1,49,_Guitar,6,3,_Guitar,0.2705863416194916,0
57,100,0.17727272727272728,735,1,49,_Guitar,6,3,_Guitar,0.3579281270503998,0
54,100,0.21818181818181817,61,1,50,_Guitar,6,3,_Guitar,0.9990280866622925,1
57,100,0.2409090909090909,131,0,50,_Guitar,6,4,_Guitar,0.37033286690711975,0
54,100,0.2409090909090909,576,1,50,_Guitar,6,4,_Guitar,0.456174373626709,0
59,100,0.12272727272727273,861,1,51,_Guitar,6,2,_Guitar,0.9792240262031555,1
52,100,0.13636363636363635,523,1,52,_Guitar,6,2,_Guitar,0.9983232617378235,1
52,100,0.1590909090909091,633,0,52,_Guitar,6,3,_Guitar,0.5462194681167603,1
52,100,0.1590909090909091,88,1,53,_Guitar,6,3,_Guitar,0.9984879493713379,1
64,100,0.1,386,1,53,_Guitar,6,2,_Guitar,0.06335446238517761,0
52,100,0.17727272727272728,633,1,53,_Guitar,6,3,_Guitar,0.05829058215022087,0
64,100,0.13636363636363635,721,0,53,_Guitar,6,2,_Guitar,0.06136414408683777,0
52,100,0.3,765,0,53,_Guitar,6,5,_Guitar,0.07168450206518173,0
64,100,0.11818181818181818,831,0,53,_Guitar,6,2,_Guitar,0.08473873138427734,0
52,100,0.2590909090909091,858,0,53,_Guitar,6,4,_Guitar,0.12635694444179535,0
52,100,0.3,40,1,54,_Guitar,6,5,_Guitar,0.9988439083099365,1
52,100,0.17727272727272728,215,0,54,_Guitar,6,3,_Guitar,0.13798260688781738,0
57,100,0.2409090909090909,295,0,54,_Guitar,6,4,_Guitar,0.162363201379776,0
64,100,0.1590909090909091,550,1,54,_Guitar,6,3,_Guitar,0.19106104969978333,0
52,100,0.35909090909090907,593,0,54,_Guitar,6,6,_Guitar,0.26197439432144165,0
52,100,0.21818181818181817,128,1,55,_Guitar,6,3,_Guitar,0.9792245030403137,1
59,100,0.43636363636363634,633,1,56,_Guitar,6,7,_Guitar,0.9792237281799316,1
52,100,0.18181818181818182,166,1,57,_Guitar,6,3,_Guitar,0.9792245030403137,1
52,100,0.1590909090909091,413,1,58,_Guitar,6,3,_Guitar,0.9983232617378235,1
52,100,0.13636363636363635,853,1,58,_Guitar,6,2,_Guitar,0.5462182760238647,1
52,100,0.1590909090909091,78,1,59,_Guitar,6,3,_Guitar,0.9986506104469299,1
52,100,0.1409090909090909,153,0,59,_Guitar,6,2,_Guitar,0.08797844499349594,0
52,100,0.1409090909090909,220,0,59,_Guitar,6,2,_Guitar,0.09298381954431534,0
52,100,0.2,308,0,59,_Guitar,6,3,_Guitar,0.10994892567396164,0
64,100,0.1590909090909091,351,0,59,_Guitar,6,3,_Guitar,0.12867172062397003,0
59,100,0.11818181818181818,480,0,59,_Guitar,6,2,_Guitar,0.1822212189435959,0
61,100,0.2818181818181818,748,1,61,_Guitar,6,5,_Guitar,0.9792227745056152,1
68,100,0.2590909090909091,584,1,62,_Guitar,6,4,_Guitar,0.9983232617378235,1
59,100,0.1,655,0,62,_Guitar,6,2,_Guitar,0.546216607093811,1
64,100,0.22272727272727272,123,1,63,_Guitar,6,4,_Guitar,0.9990094900131226,1
54,100,0.2590909090909091,298,0,63,_Guitar,6,4,_Guitar,0.2332272082567215,0
64,100,0.12272727272727273,408,0,63,_Guitar,6,2,_Guitar,0.2705836296081543,0
64,100,0.22272727272727272,488,0,63,_Guitar,6,4,_Guitar,0.35793086886405945,0
59,100,0.2,62,1,64,_Guitar,6,3,_Guitar,0.9983232617378235,1
59,100,0.17727272727272728,713,1,64,_Guitar,6,3,_Guitar,0.5462183356285095,1
64,100,0.3409090909090909,289,1,65,_Guitar,6,5,_Guitar,0.9983231425285339,1
57,100,0.3,377,0,65,_Guitar,6,5,_Guitar,0.5462159514427185,1
61,100,0.17727272727272728,656,1,67,_Guitar,6,3,_Guitar,0.9983231425285339,1
61,100,0.18181818181818182,826,0,67,_Guitar,6,3,_Guitar,0.54621422290802,1
52,100,0.11818181818181818,417,1,68,_Guitar,6,2,_Guitar,0.9983231425285339,1
64,100,0.4590909090909091,726,1,68,_Guitar,6,7,_Guitar,0.5462159514427185,1
59,100,0.1,140,1,69,_Guitar,6,2,_Guitar,0.9986506104469299,1
59,100,0.22272727272727272,166,0,69,_Guitar,6,4,_Guitar,0.08797547966241837,0
59,100,0.33636363636363636,392,0,69,_Guitar,6,5,_Guitar,0.09298062324523926,0
59,100,0.1,496,0,69,_Guitar,6,2,_Guitar,0.10994464159011841,0
59,100,0.21818181818181817,567,0,69,_Guitar,6,3,_Guitar,0.1286667287349701,0
59,100,0.1409090909090909,779,0,69,_Guitar,6,2,_Guitar,0.18221306800842285,0
61,100,0.17727272727272728,229,1,70,_Guitar,6,3,_Guitar,0.9983231425285339,1
56,100,0.1590909090909091,660,1,70,_Guitar,6,3,_Guitar,0.5462141633033752,1
56,100,0.2,303,1,71,_Guitar,6,3,_Guitar,0.9983231425285339,1
52,100,0.13636363636363635,787,1,71,_Guitar,6,2,_Guitar,0.5462186932563782,1
57,100,0.11818181818181818,127,1,72,_Guitar,6,2,_Guitar,0.9792237281799316,1
61,100,0.1590909090909091,307,1,73,_Guitar,6,3,_Guitar,0.9990094900131226,1
61,100,0.33636363636363636,480,0,73,_Guitar,6,5,_Guitar,0.2332308441400528,0
61,100,0.11818181818181818,590,0,73,_Guitar,6,2,_Guitar,0.27057644724845886,0
61,100,0.18181818181818182,739,0,73,_Guitar,6,3,_Guitar,0.3579293191432953,0
59,100,0.18181818181818182,572,1,74,_Guitar,6,3,_Guitar,0.9983231425285339,1
61,100,0.4590909090909091,726,0,74,_Guitar,6,7,_Guitar,0.5462090969085693,1
61,100,0.11818181818181818,74,1,75,_Guitar,6,2,_Guitar,0.9990280866622925,1
54,100,0.2590909090909091,233,0,75,_Guitar,6,4,_Guitar,0.37034597992897034,0
56,100,0.3,483,1,75,_Guitar,6,5,_Guitar,0.45617035031318665,0
52,100,0.2,409,1,76,_Guitar,6,3,_Guitar,0.9990280866622925,1
59,100,0.17727272727272728,493,0,76,_Guitar,6,3,_Guitar,0.37033697962760925,0
64,100,0.2409090909090909,576,0,76,_Guitar,6,4,_Guitar,0.45617473125457764,0
59,100,0.1,289,1,77,_Guitar,6,2,_Guitar,0.9983231425285339,1
59,100,0.1,813,1,77,_Guitar,6,2,_Guitar,0.5462151765823364,1
59,100,0.18181818181818182,475,1,78,_Guitar,6,3,_Guitar,0.9792237281799316,1
64,100,0.1409090909090909,475,1,79,_Guitar,6,2,_Guitar,0.9990280866622925,1
64,100,0.1590909090909091,519,0,79,_Guitar,6,3,_Guitar,0.3703424632549286,0
59,100,0.4590909090909091,572,0,79,_Guitar,6,7,_Guitar,0.4561660587787628,0
52,100,0.1409090909090909,0,1,80,_Guitar,6,2,_Guitar,0.9984879493713379,1
52,100,0.1,62,0,80,_Guitar,6,2,_Guitar,0.0633542612195015,0
52,100,0.12272727272727273,233,0,80,_Guitar,6,2,_Guitar,0.05829111486673355,0
64,100,0.2,422,0,80,_Guitar,6,3,_Guitar,0.06136447191238403,0
52,100,0.4772727272727273,546,0,80,_Guitar,6,8,_Guitar,0.07168557494878769,0
52,100,0.17727272727272728,743,0,80,_Guitar,6,3,_Guitar,0.0847395807504654,0
59,100,0.42272727272727273,805,0,80,_Guitar,6,7,_Guitar,0.1263563185930252,0
59,100,0.38181818181818183,637,1,81,_Guitar,6,6,_Guitar,0.9792232513427734,1
59,100,0.18181818181818182,299,1,82,_Guitar,6,3,_Guitar,0.9990094900131226,1
59,100,0.2772727272727273,404,0,82,_Guitar,6,4,_Guitar,0.23322562873363495,0
59,100,0.2772727272727273,470,0,82,_Guitar,6,4,_Guitar,0.2705739438533783,0
64,100,0.3409090909090909,734,1,82,_Guitar,6,5,_Guitar,0.35792505741119385,0
64,100,0.5,26,1,83,_Guitar,6,8,_Guitar,0.9988439083099365,1
64,100,0.6,157,0,83,_Guitar,6,10,_Guitar,0.13798333704471588,0
64,100,0.1590909090909091,559,1,83,_Guitar,6,3,_Guitar,0.16236402094364166,0
64,100,0.2,646,0,83,_Guitar,6,3,_Guitar,0.19105848670005798,0
64,100,0.11818181818181818,743,0,83,_Guitar,6,2,_Guitar,0.26197540760040283,0
64,100,0.2,123,1,84,_Guitar,6,3,_Guitar,0.9983004927635193,1
64,100,0.13636363636363635,172,0,84,_Guitar,6,2,_Guitar,0.044662151485681534,0
64,100,0.3,242,0,84,_Guitar,6,5,_Guitar,0.033371277153491974,0
64,100,0.2409090909090909,312,0,84,_Guitar,6,4,_Guitar,0.026948265731334686,0
64,100,0.3181818181818182,373,0,84,_Guitar,6,5,_Guitar,0.024084417149424553,0
59,100,0.1,470,0,84,_Guitar,6,2,_Guitar,0.024973081424832344,0
52,100,0.3,663,0,84,_Guitar,6,5,_Guitar,0.030648352578282356,0
52,100,0.11818181818181818,787,0,84,_Guitar,6,2,_Guitar,0.0413711741566658,0
59,100,0.18181818181818182,839,0,84,_Guitar,6,3,_Guitar,0.07207071036100388,0
59,100,0.1,30,1,85,_Guitar,6,2,_Guitar,0.9990280866622925,1
59,100,0.2409090909090909,756,1,85,_Guitar,6,4,_Guitar,0.370341956615448,0
64,100,0.22272727272727272,826,0,85,_Guitar,6,4,_Guitar,0.45617249608039856,0
64,100,0.11818181818181818,30,1,86,_Guitar,6,2,_Guitar,0.9986506104469299,1
64,100,0.1409090909090909,74,0,86,_Guitar,6,2,_Guitar,0.08797678351402283,0
52,100,0.32272727272727275,377,1,86,_Guitar,6,5,_Guitar,0.09298329800367355,0
59,100,0.41818181818181815,470,0,86,_Guitar,6,7,_Guitar,0.10994670540094376,0
59,100,0.1,663,0,86,_Guitar,6,2,_Guitar,0.12867039442062378,0
59,100,0.2409090909090909,813,0,86,_Guitar,6,4,_Guitar,0.18222011625766754,0
59,100,0.22272727272727272,13,1,87,_Guitar,6,4,_Guitar,0.9986506104469299,1
59,100,0.2409090909090909,74,0,87,_Guitar,6,4,_Guitar,0.08797874301671982,0
59,100,0.1,197,0,87,_Guitar,6,2,_Guitar,0.09298305958509445,0
59,100,0.1,294,0,87,_Guitar,6,2,_Guitar,0.10994725674390793,0
64,100,0.35909090909090907,483,0,87,_Guitar,6,6,_Guitar,0.12867371737957,0
61,100,0.2409090909090909,747,1,87,_Guitar,6,4,_Guitar,0.18221843242645264,0
68,100,0.16363636363636364,817,1,88,_Guitar,6,3,_Guitar,0.9792238473892212,1
59,100,0.32272727272727275,453,1,89,_Guitar,6,5,_Guitar,0.9792232513427734,1
59,100,0.22272727272727272,145,1,90,_Guitar,6,4,_Guitar,0.9988439083099365,1
59,100,0.2,352,0,90,_Guitar,6,3,_Guitar,0.1379811316728592,0
59,100,0.1590909090909091,404,0,90,_Guitar,6,3,_Guitar,0.16236872971057892,0
59,100,0.2590909090909091,590,0,90,_Guitar,6,4,_Guitar,0.19105981290340424,0
68,100,0.18181818181818182,673,0,90,_Guitar,6,3,_Guitar,0.26196354627609253,0
64,100,0.2590909090909091,87,1,91,_Guitar,6,4,_Guitar,0.9990280866622925,1
59,100,0.21818181818181817,392,1,91,_Guitar,6,3,_Guitar,0.37033310532569885,0
64,100,0.1409090909090909,483,0,91,_Guitar,6,2,_Guitar,0.4561716616153717,0
52,100,0.1,62,1,92,_Guitar,6,2,_Guitar,0.9983735084533691,1
64,100,0.1,140,0,92,_Guitar,6,2,_Guitar,0.05104998126626015,0
59,100,0.1409090909090909,197,0,92,_Guitar,6,2,_Guitar,0.0416124127805233,0
59,100,0.2409090909090909,233,0,92,_Guitar,6,4,_Guitar,0.03798012435436249,0
52,100,0.2818181818181818,299,0,92,_Guitar,6,5,_Guitar,0.03926040604710579,0
64,100,0.1590909090909091,360,0,92,_Guitar,6,3,_Guitar,0.04616523161530495,0
52,100,0.16363636363636364,399,0,92,_Guitar,6,3,_Guitar,0.05713268369436264,0
64,100,0.22272727272727272,553,0,92,_Guitar,6,4,_Guitar,0.09188191592693329,0
59,100,0.4409090909090909,210,1,93,_Guitar,6,7,_Guitar,0.9990094900131226,1
59,100,0.22272727272727272,377,0,93,_Guitar,6,4,_Guitar,0.2332293838262558,0
59,100,0.1590909090909091,603,0,93,_Guitar,6,3,_Guitar,0.27057698369026184,0
59,100,0.2409090909090909,770,0,93,_Guitar,6,4,_Guitar,0.3579270541667938,0
64,100,0.2818181818181818,132,1,94,_Guitar,6,5,_Guitar,0.9990280866622925,1
64,100,0.1409090909090909,220,0,94,_Guitar,6,2,_Guitar,0.37033700942993164,0
64,100,0.22272727272727272,430,0,94,_Guitar,6,4,_Guitar,0.4561724364757538,0
64,100,0.1590909090909091,123,1,95,_Guitar,6,3,_Guitar,0.9990280866622925,1
64,100,0.11818181818181818,303,0,95,_Guitar,6,2,_Guitar,0.37033209204673767,0
52,100,0.12272727272727273,650,1,95,_Guitar,6,2,_Guitar,0.4561741352081299,0
59,100,0.42272727272727273,356,1,96,_Guitar,6,7,_Guitar,0.9983232617378235,1
59,100,0.3409090909090909,585,0,96,_Guitar,6,5,_Guitar,0.5462178587913513,1
59,100,0.13636363636363635,83,1,97,_Guitar,6,2,_Guitar,0.9988439083099365,1
64,100,0.13636363636363635,260,0,97,_Guitar,6,2,_Guitar,0.1379832774400711,0
64,100,0.1409090909090909,496,1,97,_Guitar,6,2,_Guitar,0.16236473619937897,0
64,100,0.2636363636363636,597,0,97,_Guitar,6,4,_Guitar,0.19105936586856842,0
64,100,0.5818181818181818,826,0,97,_Guitar,6,9,_Guitar,0.2619690001010895,0
64,100,0.2590909090909091,100,1,98,_Guitar,6,4,_Guitar,0.9990094900131226,1
52,100,0.1409090909090909,157,0,98,_Guitar,6,2,_Guitar,0.23323820531368256,0
64,100,0.22272727272727272,189,0,98,_Guitar,6,4,_Guitar,0.2705937922000885,0
57,100,0.12272727272727273,783,1,98,_Guitar,6,2,_Guitar,0.35793280601501465,0
64,100,0.1,197,1,99,_Guitar,6,2,_Guitar,0.9988439083099365,1
52,100,0.35909090909090907,220,0,99,_Guitar,6,6,_Guitar,0.13798169791698456,0
52,100,0.13636363636363635,326,0,99,_Guitar,6,2,_Guitar,0.16236664354801178,0
59,100,0.1,690,1,99,_Guitar,6,2,_Guitar,0.19105826318264008,0
59,100,0.1590909090909091,716,0,99,_Guitar,6,3,_Guitar,0.26197105646133423,0
64,100,0.11818181818181818,514,1,100,_Guitar,6,2,_Guitar,0.9990094900131226,1
68,100,0.2772727272727273,559,0,100,_Guitar,6,4,_Guitar,0.23321589827537537,0
59,100,0.12272727272727273,695,0,100,_Guitar,6,2,_Guitar,0.2705789804458618,0
64,100,0.2,832,0,100,_Guitar,6,3,_Guitar,0.3579252362251282,0
68,100,0.21818181818181817,119,1,101,_Guitar,6,3,_Guitar,0.9990280866622925,1
59,100,0.11818181818181818,612,1,101,_Guitar,6,2,_Guitar,0.3703349530696869,0
59,100,0.1590909090909091,787,0,101,_Guitar,6,3,_Guitar,0.4561685621738434,0
59,100,0.1590909090909091,172,1,102,_Guitar,6,3,_Guitar,0.9983231425285339,1
56,100,0.6818181818181818,660,1,102,_Guitar,6,11,_Guitar,0.5462047457695007,1
59,100,0.1409090909090909,255,1,103,_Guitar,6,2,_Guitar,0.9983232617378235,1
59,100,0.1590909090909091,470,0,103,_Guitar,6,3,_Guitar,0.5462139844894409,1
59,100,0.1409090909090909,69,1,104,_Guitar,6,2,_Guitar,0.9983232617378235,1
59,100,0.4409090909090909,343,1,104,_Guitar,6,7,_Guitar,0.5462146997451782,1
71,100,0.1409090909090909,862,1,105,_Guitar,6,2,_Guitar,0.979223906993866,1
83,100,0.12272727272727273,26,1,106,_Guitar,6,2,_Guitar,0.9983231425285339,1
83,100,0.1590909090909091,140,0,106,_Guitar,6,3,_Guitar,0.5462161302566528,1
59,100,0.7,62,1,107,_Guitar,6,11,_Guitar,0.9983231425285339,1
59,100,0.32272727272727275,233,0,107,_Guitar,6,5,_Guitar,0.5462173223495483,1
59,100,0.2590909090909091,779,1,108,_Guitar,6,4,_Guitar,0.9792242646217346,1
54,100,0.1,857,1,109,_Guitar,6,2,_Guitar,0.9792240262031555,1
54,100,1.7,179,1,110,_Guitar,6,15,_Guitar,0.9983231425285339,1
56,100,0.1590909090909091,572,1,110,_Guitar,6,3,_Guitar,0.5462103486061096,1
59,100,0.12272727272727273,255,1,111,_Guitar,6,2,_Guitar,0.9792237281799316,1
59,100,0.17727272727272728,83,1,112,_Guitar,6,3,_Guitar,0.9983232617378235,1
64,100,1.1636363636363636,729,1,112,_Guitar,6,15,_Guitar,0.5462174415588379,1
52,100,0.2,210,1,113,_Guitar,6,3,_Guitar,0.9983232617378235,1
59,100,0.2818181818181818,747,1,113,_Guitar,6,5,_Guitar,0.5462145805358887,1
59,100,0.3181818181818182,127,1,114,_Guitar,6,5,_Guitar,0.9983231425285339,1
59,100,0.1,606,1,114,_Guitar,6,2,_Guitar,0.5462188720703125,1
64,100,0.18181818181818182,66,1,115,_Guitar,6,3,_Guitar,0.9988439083099365,1
64,100,0.4409090909090909,206,0,115,_Guitar,6,7,_Guitar,0.13798175752162933,0
64,100,0.3,386,0,115,_Guitar,6,5,_Guitar,0.16236551105976105,0
64,100,0.4409090909090909,726,1,115,_Guitar,6,7,_Guitar,0.19105598330497742,0
64,100,0.2,832,0,115,_Guitar,6,3,_Guitar,0.26197493076324463,0
64,100,0.3409090909090909,22,1,116,_Guitar,6,5,_Guitar,0.9988439083099365,1
64,100,0.1,127,0,116,_Guitar,6,2,_Guitar,0.13797922432422638,0
64,100,0.1,197,0,116,_Guitar,6,2,_Guitar,0.16236506402492523,0
59,100,0.22272727272727272,233,0,116,_Guitar,6,4,_Guitar,0.19106052815914154,0
54,100,0.1409090909090909,646,1,116,_Guitar,6,2,_Guitar,0.26196813583374023,0
59,100,0.42272727272727273,35,1,117,_Guitar,6,7,_Guitar,0.9990280866622925,1
59,100,0.3,132,0,117,_Guitar,6,5,_Guitar,0.3703422546386719,0
59,100,0.1,716,1,117,_Guitar,6,2,_Guitar,0.4561687111854553,0
59,100,0.37727272727272726,119,1,118,_Guitar,6,6,_Guitar,0.9988439083099365,1
64,100,0.2409090909090909,233,0,118,_Guitar,6,4,_Guitar,0.1379811316728592,0
59,100,0.3409090909090909,383,0,118,_Guitar,6,5,_Guitar,0.1623612940311432,0
52,100,0.22272727272727272,496,0,118,_Guitar,6,4,_Guitar,0.1910553127527237,0
64,100,0.1409090909090909,660,0,118,_Guitar,6,2,_Guitar,0.26196709275245667,0
59,100,0.2590909090909091,756,1,119,_Guitar,6,4,_Guitar,0.979223906993866,1
52,100,0.2409090909090909,56,1,120,_Guitar,6,4,_Guitar,0.9986506104469299,1
59,100,0.2636363636363636,202,0,120,_Guitar,6,4,_Guitar,0.08797721564769745,0
59,100,0.21818181818181817,426,0,120,_Guitar,6,3,_Guitar,0.09298181533813477,0
59,100,0.1409090909090909,739,1,120,_Guitar,6,2,_Guitar,0.1099470853805542,0
59,100,0.1,796,0,120,_Guitar,6,2,_Guitar,0.12866966426372528,0
59,100,0.4409090909090909,823,0,120,_Guitar,6,7,_Guitar,0.1822158843278885,0
64,100,0.23636363636363636,392,1,121,_Guitar,6,4,_Guitar,0.9983232617378235,1
64,100,0.1590909090909091,475,0,121,_Guitar,6,3,_Guitar,0.546216607093811,1
59,100,0.3181818181818182,43,1,122,_Guitar,6,5,_Guitar,0.9986506104469299,1
64,100,0.18181818181818182,123,0,122,_Guitar,6,3,_Guitar,0.08797838538885117,0
64,100,0.36363636363636365,289,0,122,_Guitar,6,6,_Guitar,0.09298322349786758,0
64,100,0.21818181818181817,404,0,122,_Guitar,6,3,_Guitar,0.10995031148195267,0
59,100,0.2,695,1,122,_Guitar,6,3,_Guitar,0.12867484986782074,0
59,100,0.2,752,0,122,_Guitar,6,3,_Guitar,0.18221840262413025,0
59,100,0.2636363636363636,399,1,123,_Guitar,6,4,_Guitar,0.9990280866622925,1
64,100,0.1590909090909091,800,1,123,_Guitar,6,3,_Guitar,0.37033843994140625,0
64,100,0.2590909090909091,849,0,123,_Guitar,6,4,_Guitar,0.4561713933944702,0
59,100,0.1,30,1,124,_Guitar,6,2,_Guitar,0.9984880685806274,1
59,100,0.2590909090909091,62,0,124,_Guitar,6,4,_Guitar,0.06335317343473434,0
59,100,0.21818181818181817,417,1,124,_Guitar,6,3,_Guitar,0.058289818465709686,0
59,100,0.11818181818181818,483,0,124,_Guitar,6,2,_Guitar,0.06136379763484001,0
59,100,0.1,576,0,124,_Guitar,6,2,_Guitar,0.07168716937303543,0
59,100,0.5772727272727273,603,0,124,_Guitar,6,9,_Guitar,0.08473704010248184,0
59,100,0.2772727272727273,756,0,124,_Guitar,6,4,_Guitar,0.12635941803455353,0
59,100,0.2,153,1,125,_Guitar,6,3,_Guitar,0.9792237281799316,1
59,100,0.6590909090909091,172,1,126,_Guitar,6,11,_Guitar,0.9990280866622925,1
59,100,0.5409090909090909,365,0,126,_Guitar,6,9,_Guitar,0.3703323304653168,0
54,100,0.6363636363636364,722,1,126,_Guitar,6,10,_Guitar,0.4561713635921478,0
59,100,1.4772727272727273,546,1,128,_Guitar,6,15,_Guitar,0.9792232513427734,1
59,100,0.12272727272727273,70,1,129,_Guitar,6,2,_Guitar,0.9990094900131226,1
52,100,1.940909090909091,118,0,129,_Guitar,6,15,_Guitar,0.2332250028848648,0
52,100,0.1590909090909091,580,1,129,_Guitar,6,3,_Guitar,0.2705850899219513,0
52,100,0.13636363636363635,743,0,129,_Guitar,6,2,_Guitar,0.3579351305961609,0
59,100,0.1,527,1,130,_Guitar,6,2,_Guitar,0.9792237281799316,1
64,100,0.6818181818181818,232,1,131,_Guitar,6,11,_Guitar,0.9990094900131226,1
64,100,0.13636363636363635,436,0,131,_Guitar,6,2,_Guitar,0.23322923481464386,0
64,100,0.35909090909090907,656,0,131,_Guitar,6,6,_Guitar,0.27058282494544983,0
59,100,0.2,751,0,131,_Guitar,6,3,_Guitar,0.35793474316596985,0
64,100,0.4409090909090909,189,1,132,_Guitar,6,7,_Guitar,0.9990280866622925,1
52,100,1.3,285,0,132,_Guitar,6,15,_Guitar,0.37033089995384216,0
52,100,0.3,633,1,132,_Guitar,6,5,_Guitar,0.45617690682411194,0
66,100,0.18181818181818182,835,1,133,_Guitar,6,3,_Guitar,0.9792243838310242,1
52,100,0.2818181818181818,197,1,134,_Guitar,6,5,_Guitar,0.9983231425285339,1
59,100,0.11818181818181818,690,1,134,_Guitar,6,2,_Guitar,0.5462132692337036,1
64,100,0.6818181818181818,770,1,135,_Guitar,6,11,_Guitar,0.9792247414588928,1
64,100,0.1409090909090909,44,1,136,_Guitar,6,2,_Guitar,0.9983232617378235,1
59,100,0.3,840,1,136,_Guitar,6,5,_Guitar,0.546219527721405,1
52,100,0.35909090909090907,207,1,137,_Guitar,6,6,_Guitar,0.9988439083099365,1
59,100,0.21818181818181817,458,1,137,_Guitar,6,3,_Guitar,0.13798348605632782,0
59,100,0.1409090909090909,510,0,137,_Guitar,6,2,_Guitar,0.16237083077430725,0
56,100,0.13636363636363635,678,0,137,_Guitar,6,2,_Guitar,0.19105760753154755,0
56,100,0.1590909090909091,747,0,137,_Guitar,6,3,_Guitar,0.26196348667144775,0
57,100,0.4590909090909091,53,1,138,_Guitar,6,7,_Guitar,0.9990280866622925,1
57,100,0.3409090909090909,207,0,138,_Guitar,6,5,_Guitar,0.3703431785106659,0
52,100,0.21818181818181817,835,1,138,_Guitar,6,3,_Guitar,0.4561746418476105,0
57,100,0.17727272727272728,118,1,139,_Guitar,6,3,_Guitar,0.9983735084533691,1
57,100,0.41818181818181815,197,0,139,_Guitar,6,7,_Guitar,0.051050711423158646,0
59,100,0.2818181818181818,311,0,139,_Guitar,6,5,_Guitar,0.04161364957690239,0
59,100,0.1590909090909091,562,1,139,_Guitar,6,3,_Guitar,0.037980906665325165,0
59,100,0.11818181818181818,603,0,139,_Guitar,6,2,_Guitar,0.03926153853535652,0
52,100,0.11818181818181818,678,0,139,_Guitar,6,2,_Guitar,0.04616687074303627,0
64,100,0.1,735,0,139,_Guitar,6,2,_Guitar,0.05713338032364845,0
52,100,0.11818181818181818,800,0,139,_Guitar,6,2,_Guitar,0.09188377112150192,0
52,100,0.7,106,1,140,_Guitar,6,11,_Guitar,0.9990280866622925,1
56,100,0.2409090909090909,299,0,140,_Guitar,6,4,_Guitar,0.3703356981277466,0
59,100,0.18181818181818182,826,1,140,_Guitar,6,3,_Guitar,0.4561702609062195,0
52,100,0.4590909090909091,391,1,141,_Guitar,6,7,_Guitar,0.9990280866622925,1
52,100,0.1409090909090909,505,0,141,_Guitar,6,2,_Guitar,0.37034788727760315,0
57,100,0.1,589,0,141,_Guitar,6,2,_Guitar,0.45616236329078674,0
59,100,0.42272727272727273,246,1,142,_Guitar,6,7,_Guitar,0.9990094900131226,1
52,100,0.1,699,1,142,_Guitar,6,2,_Guitar,0.2332354635000229,0
52,100,0.1,804,0,142,_Guitar,6,2,_Guitar,0.27058398723602295,0
52,100,0.759090909090909,849,0,142,_Guitar,6,12,_Guitar,0.35793495178222656,0
52,100,0.1409090909090909,158,1,143,_Guitar,6,2,_Guitar,0.9990094900131226,1
52,100,0.11818181818181818,307,0,143,_Guitar,6,2,_Guitar,0.233226478099823,0
52,100,0.2409090909090909,405,0,143,_Guitar,6,4,_Guitar,0.27058228850364685,0
52,100,0.38181818181818183,519,0,143,_Guitar,6,6,_Guitar,0.3579312562942505,0
64,100,0.1,30,1,144,_Guitar,6,2,_Guitar,0.9983231425285339,1
52,100,0.13636363636363635,479,1,144,_Guitar,6,2,_Guitar,0.5462163090705872,1
58,100,0.17727272727272728,273,1,6,_Guitar,6,3,_Guitar,0.9983232617378235,1
58,100,0.13636363636363635,590,1,6,_Guitar,6,2,_Guitar,0.5462128520011902,1
58,100,0.2,40,1,7,_Guitar,6,3,_Guitar,0.9990094900131226,1
56,100,0.12272727272727273,268,0,7,_Guitar,6,2,_Guitar,0.23322713375091553,0
58,100,0.5181818181818182,360,0,7,_Guitar,6,8,_Guitar,0.2705753445625305,0
58,100,0.1409090909090909,685,1,7,_Guitar,6,2,_Guitar,0.3579255938529968,0
58,100,0.2590909090909091,123,1,8,_Guitar,6,4,_Guitar,0.9990280866622925,1
58,100,0.3181818181818182,440,1,8,_Guitar,6,5,_Guitar,0.3703517019748688,0
58,100,0.5409090909090909,752,1,8,_Guitar,6,9,_Guitar,0.45616069436073303,0
58,100,0.6181818181818182,185,1,9,_Guitar,6,10,_Guitar,0.9990280866622925,1
58,100,0.5,524,1,9,_Guitar,6,8,_Guitar,0.370341956615448,0
58,100,0.18181818181818182,857,1,9,_Guitar,6,3,_Guitar,0.4561660885810852,0
58,100,0.1,25,1,10,_Guitar,6,2,_Guitar,0.9990280866622925,1
58,100,0.5227272727272727,290,1,10,_Guitar,6,8,_Guitar,0.37033677101135254,0
58,100,0.5,625,1,10,_Guitar,6,8,_Guitar,0.45616668462753296,0
58,100,0.11818181818181818,53,1,11,_Guitar,6,2,_Guitar,0.9990280866622925,1
58,100,0.6,374,1,11,_Guitar,6,10,_Guitar,0.3703414797782898,0
58,100,0.5590909090909091,682,1,11,_Guitar,6,9,_Guitar,0.4561733305454254,0
58,100,0.38181818181818183,792,1,12,_Guitar,6,6,_Guitar,0.9792245030403137,1
56,100,0.18181818181818182,135,1,13,_Guitar,6,3,_Guitar,0.9990094900131226,1
58,100,0.5772727272727273,216,0,13,_Guitar,6,9,_Guitar,0.23323270678520203,0
58,100,0.5181818181818182,550,1,13,_Guitar,6,8,_Guitar,0.2705743610858917,0
58,100,0.3409090909090909,871,1,13,_Guitar,6,5,_Guitar,0.35792988538742065,0
58,100,0.1,312,1,14,_Guitar,6,2,_Guitar,0.9990280866622925,1
58,100,0.21818181818181817,338,0,14,_Guitar,6,3,_Guitar,0.370341420173645,0
58,100,0.2818181818181818,637,1,14,_Guitar,6,5,_Guitar,0.45616382360458374,0
63,100,0.18181818181818182,817,1,74,_Guitar,6,3,_Guitar,0.979223906993866,1
55,100,0.11818181818181818,457,1,75,_Guitar,6,2,_Guitar,0.9990094900131226,1
63,100,0.12272727272727273,597,0,75,_Guitar,6,2,_Guitar,0.23323175311088562,0
63,100,0.2818181818181818,637,0,75,_Guitar,6,5,_Guitar,0.27058109641075134,0
63,100,0.2409090909090909,729,0,75,_Guitar,6,4,_Guitar,0.35794147849082947,0
55,100,0.1,17,1,77,_Guitar,6,2,_Guitar,0.9988439083099365,1
63,100,0.8409090909090909,163,0,77,_Guitar,6,13,_Guitar,0.137983500957489,0
63,100,0.18181818181818182,352,0,77,_Guitar,6,3,_Guitar,0.16237345337867737,0
56,100,0.2,669,1,77,_Guitar,6,3,_Guitar,0.19107232987880707,0
63,100,0.4,857,0,77,_Guitar,6,6,_Guitar,0.26197174191474915,0
56,100,0.2590909090909091,189,1,78,_Guitar,6,4,_Guitar,0.9990280866622925,1
55,100,0.1409090909090909,426,1,78,_Guitar,6,2,_Guitar,0.3703419864177704,0
58,100,0.3181818181818182,660,1,78,_Guitar,6,5,_Guitar,0.45616650581359863,0
58,100,0.1409090909090909,294,1,79,_Guitar,6,2,_Guitar,0.9988439083099365,1
58,100,0.2,360,0,79,_Guitar,6,3,_Guitar,0.13798555731773376,0
58,100,0.2,514,0,79,_Guitar,6,3,_Guitar,0.1623689830303192,0
74,100,0.4818181818181818,637,0,79,_Guitar,6,8,_Guitar,0.1910545974969864,0
74,100,0.3,747,0,79,_Guitar,6,5,_Guitar,0.26197007298469543,0
63,100,1.3,9,1,80,_Guitar,6,15,_Guitar,0.9990094900131226,1
58,100,0.12272727272727273,299,1,80,_Guitar,6,2,_Guitar,0.2332485318183899,0
63,100,0.6590909090909091,343,0,80,_Guitar,6,11,_Guitar,0.2705909013748169,0
53,100,1.7227272727272727,663,1,80,_Guitar,6,15,_Guitar,0.35792383551597595,0
63,100,0.2,527,1,81,_Guitar,6,3,_Guitar,0.9990280866622925,1
56,100,0.3181818181818182,743,0,81,_Guitar,6,5,_Guitar,0.37035325169563293,0
58,100,0.42272727272727273,826,0,81,_Guitar,6,7,_Guitar,0.45617878437042236,0
58,100,0.18181818181818182,56,1,82,_Guitar,6,3,_Guitar,0.9990094900131226,1
53,100,0.4,286,0,82,_Guitar,6,6,_Guitar,0.23324118554592133,0
68,100,0.35909090909090907,493,0,82,_Guitar,6,6,_Guitar,0.27059292793273926,0
68,100,0.5409090909090909,839,1,82,_Guitar,6,9,_Guitar,0.35792064666748047,0
82,100,0.1409090909090909,356,1,83,_Guitar,6,2,_Guitar,0.9990094900131226,1
58,100,0.18181818181818182,399,0,83,_Guitar,6,3,_Guitar,0.23323628306388855,0
55,100,0.1409090909090909,619,0,83,_Guitar,6,2,_Guitar,0.2705807089805603,0
55,100,0.11818181818181818,690,0,83,_Guitar,6,2,_Guitar,0.3579164445400238,0
58,100,0.21818181818181817,83,1,84,_Guitar,6,3,_Guitar,0.9988439083099365,1
58,100,0.6818181818181818,197,0,84,_Guitar,6,11,_Guitar,0.13797974586486816,0
55,100,0.2,373,0,84,_Guitar,6,3,_Guitar,0.1623610109090805,0
58,100,0.1409090909090909,422,0,84,_Guitar,6,2,_Guitar,0.19105038046836853,0
58,100,0.1,567,0,84,_Guitar,6,2,_Guitar,0.2619583010673523,0
58,100,0.18181818181818182,312,1,85,_Guitar,6,3,_Guitar,0.9990094900131226,1
58,100,0.3,462,0,85,_Guitar,6,5,_Guitar,0.23323431611061096,0
55,100,0.1590909090909091,536,0,85,_Guitar,6,3,_Guitar,0.27058249711990356,0
58,100,0.21818181818181817,703,0,85,_Guitar,6,3,_Guitar,0.35792306065559387,0
58,100,0.2590909090909091,74,1,86,_Guitar,6,4,_Guitar,0.9990094900131226,1
55,100,0.12272727272727273,509,1,86,_Guitar,6,2,_Guitar,0.23322784900665283,0
63,100,0.21818181818181817,550,0,86,_Guitar,6,3,_Guitar,0.2705717980861664,0
58,100,0.13636363636363635,876,1,86,_Guitar,6,2,_Guitar,0.3579323887825012,0
55,100,0.17727272727272728,119,1,87,_Guitar,6,3,_Guitar,0.9990280866622925,1
55,100,0.17727272727272728,184,0,87,_Guitar,6,3,_Guitar,0.3703429400920868,0
58,100,0.18181818181818182,399,0,87,_Guitar,6,3,_Guitar,0.4561654031276703,0
58,100,0.5,66,1,88,_Guitar,6,8,_Guitar,0.9986506104469299,1
62,100,0.21818181818181817,176,0,88,_Guitar,6,3,_Guitar,0.08797909319400787,0
58,100,0.2772727272727273,237,0,88,_Guitar,6,4,_Guitar,0.09298764914274216,0
58,100,0.1590909090909091,409,0,88,_Guitar,6,3,_Guitar,0.10995149612426758,0
55,100,0.12272727272727273,475,0,88,_Guitar,6,2,_Guitar,0.12867258489131927,0
58,100,0.2,650,0,88,_Guitar,6,3,_Guitar,0.18221978843212128,0
58,100,0.13636363636363635,106,1,89,_Guitar,6,2,_Guitar,0.9792240262031555,1
52,100,0.4818181818181818,730,1,0,DL_Guitar,6,8,DL_Guitar,0.9792243838310242,1
52,100,0.21818181818181817,105,1,1,DL_Guitar,6,3,DL_Guitar,0.9983004927635193,1
67,100,0.1409090909090909,175,0,1,DL_Guitar,6,2,DL_Guitar,0.0446622408926487,0
62,100,0.1409090909090909,276,0,1,DL_Guitar,6,2,DL_Guitar,0.03337213024497032,0
52,100,0.2590909090909091,348,0,1,DL_Guitar,6,4,DL_Guitar,0.02694878913462162,0
67,100,0.5181818181818182,414,0,1,DL_Guitar,6,8,DL_Guitar,0.02408467046916485,0
69,100,0.2636363636363636,597,0,1,DL_Guitar,6,4,DL_Guitar,0.024974031373858452,0
69,100,0.18181818181818182,686,0,1,DL_Guitar,6,3,DL_Guitar,0.030648883432149887,0
52,100,0.11818181818181818,744,0,1,DL_Guitar,6,2,DL_Guitar,0.041372060775756836,0
59,100,0.32272727272727275,849,0,1,DL_Guitar,6,5,DL_Guitar,0.0720716044306755,0
69,100,0.1409090909090909,185,1,2,DL_Guitar,6,2,DL_Guitar,0.9983004927635193,1
59,100,0.3,229,0,2,DL_Guitar,6,5,DL_Guitar,0.04466318339109421,0
74,100,0.1,299,0,2,DL_Guitar,6,2,DL_Guitar,0.03337297588586807,0
57,100,0.2818181818181818,488,0,2,DL_Guitar,6,5,DL_Guitar,0.026949424296617508,0
67,100,0.1409090909090909,571,0,2,DL_Guitar,6,2,DL_Guitar,0.024085531011223793,0
69,100,0.37727272727272726,602,0,2,DL_Guitar,6,6,DL_Guitar,0.024974368512630463,0
55,100,0.11818181818181818,721,0,2,DL_Guitar,6,2,DL_Guitar,0.030650610104203224,0
67,100,0.2409090909090909,748,0,2,DL_Guitar,6,4,DL_Guitar,0.04137015715241432,0
67,100,0.1,831,0,2,DL_Guitar,6,2,DL_Guitar,0.07207223773002625,0
64,100,0.11818181818181818,373,1,3,DL_Guitar,6,2,DL_Guitar,0.9986507296562195,1
67,100,0.2818181818181818,443,0,3,DL_Guitar,6,5,DL_Guitar,0.08798489719629288,0
64,100,0.1,629,0,3,DL_Guitar,6,2,DL_Guitar,0.0929904580116272,0
52,100,0.1409090909090909,651,0,3,DL_Guitar,6,2,DL_Guitar,0.1099582239985466,0
67,100,0.5181818181818182,700,0,3,DL_Guitar,6,8,DL_Guitar,0.12868034839630127,0
69,100,0.5,831,0,3,DL_Guitar,6,8,DL_Guitar,0.1822257786989212,0
59,100,0.759090909090909,163,1,4,DL_Guitar,6,12,DL_Guitar,0.9988439083099365,1
74,100,0.2,348,0,4,DL_Guitar,6,3,DL_Guitar,0.13798724114894867,0
69,100,0.1590909090909091,462,0,4,DL_Guitar,6,3,DL_Guitar,0.1623697727918625,0
59,100,0.3409090909090909,514,0,4,DL_Guitar,6,5,DL_Guitar,0.19106297194957733,0
62,100,0.11818181818181818,757,1,4,DL_Guitar,6,2,DL_Guitar,0.2619715631008148,0
62,100,0.3409090909090909,122,1,5,DL_Guitar,6,5,DL_Guitar,0.9990094900131226,1
55,100,0.3409090909090909,263,0,5,DL_Guitar,6,5,DL_Guitar,0.23324184119701385,0
55,100,0.3409090909090909,360,0,5,DL_Guitar,6,5,DL_Guitar,0.27058646082878113,0
55,100,0.4818181818181818,496,0,5,DL_Guitar,6,8,DL_Guitar,0.3579205870628357,0
56,100,0.35909090909090907,0,1,6,DL_Guitar,6,6,DL_Guitar,0.9990094900131226,1
56,100,0.12272727272727273,245,1,6,DL_Guitar,6,2,DL_Guitar,0.23323649168014526,0
52,100,0.18181818181818182,452,0,6,DL_Guitar,6,3,DL_Guitar,0.2705937325954437,0
57,100,0.759090909090909,651,0,6,DL_Guitar,6,12,DL_Guitar,0.35792702436447144,0
59,100,0.17727272727272728,470,1,7,DL_Guitar,6,3,DL_Guitar,0.9990280866622925,1
62,100,0.11818181818181818,603,0,7,DL_Guitar,6,2,DL_Guitar,0.3703371584415436,0
55,100,0.2,774,0,7,DL_Guitar,6,3,DL_Guitar,0.4561820328235626,0
64,100,0.1409090909090909,48,1,8,DL_Guitar,6,2,DL_Guitar,0.9990280866622925,1
60,100,0.2,79,0,8,DL_Guitar,6,3,DL_Guitar,0.3703427016735077,0
55,100,0.3181818181818182,405,1,8,DL_Guitar,6,5,DL_Guitar,0.4561665952205658,0
59,100,0.21818181818181817,747,1,9,DL_Guitar,6,3,DL_Guitar,0.979223906993866,1
59,100,0.4590909090909091,185,1,10,DL_Guitar,6,7,DL_Guitar,0.9988439083099365,1
64,100,0.32272727272727275,378,0,10,DL_Guitar,6,5,DL_Guitar,0.1379808485507965,0
59,100,0.4,567,0,10,DL_Guitar,6,6,DL_Guitar,0.16236554086208344,0
59,100,0.5363636363636364,699,0,10,DL_Guitar,6,9,DL_Guitar,0.1910630166530609,0
67,100,0.11818181818181818,845,0,10,DL_Guitar,6,2,DL_Guitar,0.2619628310203552,0
59,100,0.2409090909090909,13,1,11,DL_Guitar,6,4,DL_Guitar,0.9984880685806274,1
57,100,0.17727272727272728,414,1,11,DL_Guitar,6,3,DL_Guitar,0.06335493922233582,0
57,100,0.12272727272727273,474,0,11,DL_Guitar,6,2,DL_Guitar,0.05829032510519028,0
67,100,0.11818181818181818,704,0,11,DL_Guitar,6,2,DL_Guitar,0.061366498470306396,0
55,100,0.12272727272727273,730,0,11,DL_Guitar,6,2,DL_Guitar,0.07168633490800858,0
67,100,0.3,756,0,11,DL_Guitar,6,5,DL_Guitar,0.0847400650382042,0
59,100,0.1409090909090909,871,0,11,DL_Guitar,6,2,DL_Guitar,0.12635448575019836,0
59,100,0.22272727272727272,25,1,12,DL_Guitar,6,4,DL_Guitar,0.9988439083099365,1
55,100,0.2409090909090909,92,0,12,DL_Guitar,6,4,DL_Guitar,0.13798217475414276,0
55,100,0.2409090909090909,163,0,12,DL_Guitar,6,4,DL_Guitar,0.1623619645833969,0
60,100,0.1,682,1,12,DL_Guitar,6,2,DL_Guitar,0.19106002151966095,0
55,100,0.2818181818181818,795,0,12,DL_Guitar,6,5,DL_Guitar,0.26195621490478516,0
55,100,0.16363636363636364,3,1,13,DL_Guitar,6,3,DL_Guitar,0.9990280866622925,1
60,100,0.1,202,0,13,DL_Guitar,6,2,DL_Guitar,0.37033867835998535,0
55,100,0.1,391,0,13,DL_Guitar,6,2,DL_Guitar,0.4561602473258972,0
55,100,0.2590909090909091,194,1,14,DL_Guitar,6,4,DL_Guitar,0.9990280866622925,1
57,100,0.2409090909090909,409,0,14,DL_Guitar,6,4,DL_Guitar,0.3703356683254242,0
62,100,0.37727272727272726,809,1,14,DL_Guitar,6,6,DL_Guitar,0.45617225766181946,0
55,100,0.21818181818181817,220,1,15,DL_Guitar,6,3,DL_Guitar,0.9792240262031555,1
62,100,0.23636363636363636,281,1,16,DL_Guitar,6,4,DL_Guitar,0.9988439083099365,1
56,100,0.17727272727272728,492,0,16,DL_Guitar,6,3,DL_Guitar,0.13798440992832184,0
55,100,0.2590909090909091,550,0,16,DL_Guitar,6,4,DL_Guitar,0.1623695343732834,0
55,100,0.21818181818181817,611,0,16,DL_Guitar,6,3,DL_Guitar,0.19106106460094452,0
55,100,0.5636363636363636,796,0,16,DL_Guitar,6,9,DL_Guitar,0.2619645297527313,0
52,100,0.22272727272727272,48,1,17,DL_Guitar,6,4,DL_Guitar,0.9986506104469299,1
52,100,0.1409090909090909,246,0,17,DL_Guitar,6,2,DL_Guitar,0.08798202127218246,0
57,100,0.1,430,0,17,DL_Guitar,6,2,DL_Guitar,0.09298872202634811,0
81,100,0.1590909090909091,515,0,17,DL_Guitar,6,3,DL_Guitar,0.10995824635028839,0
57,100,0.22272727272727272,729,0,17,DL_Guitar,6,4,DL_Guitar,0.1286812722682953,0
57,100,0.5181818181818182,814,0,17,DL_Guitar,6,8,DL_Guitar,0.18222558498382568,0
62,100,0.1590909090909091,409,1,19,DL_Guitar,6,3,DL_Guitar,0.9990280866622925,1
59,100,0.5181818181818182,602,0,19,DL_Guitar,6,8,DL_Guitar,0.37034547328948975,0
62,100,0.21818181818181817,858,1,19,DL_Guitar,6,3,DL_Guitar,0.45617225766181946,0
59,100,0.2409090909090909,48,1,20,DL_Guitar,6,4,DL_Guitar,0.9986506104469299,1
62,100,0.5409090909090909,229,0,20,DL_Guitar,6,9,DL_Guitar,0.08798064291477203,0
62,100,0.11818181818181818,370,0,20,DL_Guitar,6,2,DL_Guitar,0.09299010038375854,0
62,100,0.11818181818181818,436,0,20,DL_Guitar,6,2,DL_Guitar,0.10995616763830185,0
62,100,0.22272727272727272,739,1,20,DL_Guitar,6,4,DL_Guitar,0.12868331372737885,0
62,100,0.7227272727272728,870,0,20,DL_Guitar,6,12,DL_Guitar,0.18223543465137482,0
57,100,0.11818181818181818,150,1,21,DL_Guitar,6,2,DL_Guitar,0.9990094900131226,1
62,100,0.11818181818181818,175,0,21,DL_Guitar,6,2,DL_Guitar,0.23323504626750946,0
62,100,0.2,501,1,21,DL_Guitar,6,3,DL_Guitar,0.2705861032009125,0
62,100,0.13636363636363635,567,0,21,DL_Guitar,6,2,DL_Guitar,0.3579384982585907,0
60,100,0.1590909090909091,237,1,22,DL_Guitar,6,3,DL_Guitar,0.9990094900131226,1
60,100,0.12272727272727273,312,0,22,DL_Guitar,6,2,DL_Guitar,0.233228862285614,0
60,100,0.3409090909090909,443,0,22,DL_Guitar,6,5,DL_Guitar,0.2705863416194916,0
55,100,0.1590909090909091,646,0,22,DL_Guitar,6,3,DL_Guitar,0.35792076587677,0
59,100,0.12272727272727273,158,1,23,DL_Guitar,6,2,DL_Guitar,0.9983004927635193,1
59,100,0.4590909090909091,250,0,23,DL_Guitar,6,7,DL_Guitar,0.044661302119493484,0
59,100,0.1409090909090909,430,0,23,DL_Guitar,6,2,DL_Guitar,0.03337110951542854,0
59,100,0.17727272727272728,492,0,23,DL_Guitar,6,3,DL_Guitar,0.0269473847001791,0
59,100,0.2590909090909091,571,0,23,DL_Guitar,6,4,DL_Guitar,0.024083301424980164,0
59,100,0.2,633,0,23,DL_Guitar,6,3,DL_Guitar,0.0249730683863163,0
59,100,0.5,681,0,23,DL_Guitar,6,8,DL_Guitar,0.030647356063127518,0
59,100,0.1409090909090909,801,0,23,DL_Guitar,6,2,DL_Guitar,0.04136938974261284,0
59,100,0.2,862,0,23,DL_Guitar,6,3,DL_Guitar,0.0720718577504158,0
64,100,0.1590909090909091,44,1,24,DL_Guitar,6,3,DL_Guitar,0.9986506104469299,1
59,100,0.8363636363636363,127,0,24,DL_Guitar,6,13,DL_Guitar,0.08797723799943924,0
52,100,0.3,320,0,24,DL_Guitar,6,5,DL_Guitar,0.09298703819513321,0
59,100,0.17727272727272728,413,0,24,DL_Guitar,6,3,DL_Guitar,0.10995110869407654,0
59,100,0.9,567,0,24,DL_Guitar,6,14,DL_Guitar,0.12867285311222076,0
59,100,0.3409090909090909,801,1,24,DL_Guitar,6,5,DL_Guitar,0.18222148716449738,0
59,100,0.2,281,1,25,DL_Guitar,6,3,DL_Guitar,0.9986506104469299,1
59,100,0.17727272727272728,413,0,25,DL_Guitar,6,3,DL_Guitar,0.0879790410399437,0
62,100,0.2590909090909091,567,0,25,DL_Guitar,6,4,DL_Guitar,0.09298398345708847,0
59,100,0.5772727272727273,625,0,25,DL_Guitar,6,9,DL_Guitar,0.10995092242956161,0
62,100,0.3,756,0,25,DL_Guitar,6,5,DL_Guitar,0.12867480516433716,0
59,100,0.16363636363636364,862,0,25,DL_Guitar,6,3,DL_Guitar,0.18222469091415405,0
60,100,0.2409090909090909,387,1,26,DL_Guitar,6,4,DL_Guitar,0.9988439083099365,1
60,100,0.4,480,0,26,DL_Guitar,6,6,DL_Guitar,0.13798315823078156,0
55,100,0.22272727272727272,584,0,26,DL_Guitar,6,4,DL_Guitar,0.16236476600170135,0
60,100,0.1590909090909091,760,0,26,DL_Guitar,6,3,DL_Guitar,0.19106034934520721,0
60,100,0.2,839,0,26,DL_Guitar,6,3,DL_Guitar,0.26196572184562683,0
60,100,0.740909090909091,57,1,27,DL_Guitar,6,12,DL_Guitar,0.9988439083099365,1
55,100,0.11818181818181818,250,0,27,DL_Guitar,6,2,DL_Guitar,0.13798484206199646,0
60,100,0.1590909090909091,285,0,27,DL_Guitar,6,3,DL_Guitar,0.16236889362335205,0
57,100,0.1590909090909091,735,1,27,DL_Guitar,6,3,DL_Guitar,0.19105814397335052,0
57,100,0.35909090909090907,835,0,27,DL_Guitar,6,6,DL_Guitar,0.26196524500846863,0
62,100,0.2409090909090909,44,1,28,DL_Guitar,6,4,DL_Guitar,0.9988439083099365,1
62,100,0.4409090909090909,131,0,28,DL_Guitar,6,7,DL_Guitar,0.13799048960208893,0
57,100,0.5590909090909091,360,0,28,DL_Guitar,6,9,DL_Guitar,0.16237109899520874,0
57,100,0.17727272727272728,515,0,28,DL_Guitar,6,3,DL_Guitar,0.19107216596603394,0
62,100,0.740909090909091,725,0,28,DL_Guitar,6,12,DL_Guitar,0.2619737386703491,0
62,100,0.11818181818181818,40,1,29,DL_Guitar,6,2,DL_Guitar,0.9983735084533691,1
59,100,0.17727272727272728,75,0,29,DL_Guitar,6,3,DL_Guitar,0.05105045810341835,0
62,100,0.42272727272727273,202,0,29,DL_Guitar,6,7,DL_Guitar,0.041613806039094925,0
55,100,0.5409090909090909,382,0,29,DL_Guitar,6,9,DL_Guitar,0.037980854511260986,0
59,100,0.11818181818181818,523,0,29,DL_Guitar,6,2,DL_Guitar,0.0392620787024498,0
62,100,0.23636363636363636,567,0,29,DL_Guitar,6,4,DL_Guitar,0.04616871476173401,0
62,100,0.3409090909090909,629,0,29,DL_Guitar,6,5,DL_Guitar,0.05713633820414543,0
57,100,0.6181818181818182,756,0,29,DL_Guitar,6,10,DL_Guitar,0.09188398718833923,0
57,100,0.5590909090909091,144,1,30,DL_Guitar,6,9,DL_Guitar,0.9990094900131226,1
57,100,0.37727272727272726,339,0,30,DL_Guitar,6,6,DL_Guitar,0.2332361787557602,0
62,100,0.2409090909090909,422,0,30,DL_Guitar,6,4,DL_Guitar,0.27059099078178406,0
57,100,0.6181818181818182,660,1,30,DL_Guitar,6,10,DL_Guitar,0.3579287827014923,0
57,100,0.4636363636363636,48,1,31,DL_Guitar,6,7,DL_Guitar,0.9986506104469299,1
57,100,0.2409090909090909,223,0,31,DL_Guitar,6,4,DL_Guitar,0.08798221498727798,0
57,100,0.6409090909090909,285,0,31,DL_Guitar,6,10,DL_Guitar,0.09298824518918991,0
57,100,0.3,474,0,31,DL_Guitar,6,5,DL_Guitar,0.10995494574308395,0
57,100,0.12272727272727273,629,0,31,DL_Guitar,6,2,DL_Guitar,0.12867982685565948,0
57,100,0.5181818181818182,810,0,31,DL_Guitar,6,8,DL_Guitar,0.18222235143184662,0
57,100,0.1409090909090909,48,1,32,DL_Guitar,6,2,DL_Guitar,0.9983735084533691,1
57,100,0.2,114,0,32,DL_Guitar,6,3,DL_Guitar,0.05105101317167282,0
59,100,0.22272727272727272,246,0,32,DL_Guitar,6,4,DL_Guitar,0.04161268100142479,0
59,100,0.11818181818181818,316,0,32,DL_Guitar,6,2,DL_Guitar,0.03798067569732666,0
59,100,0.3,361,0,32,DL_Guitar,6,5,DL_Guitar,0.039260800927877426,0
62,100,0.11818181818181818,590,0,32,DL_Guitar,6,2,DL_Guitar,0.04616643860936165,0
57,100,0.18181818181818182,641,0,32,DL_Guitar,6,3,DL_Guitar,0.05713239684700966,0
55,100,0.21818181818181817,691,0,32,DL_Guitar,6,3,DL_Guitar,0.09188287705183029,0
55,100,0.1409090909090909,21,1,33,DL_Guitar,6,2,DL_Guitar,0.9986506104469299,1
59,100,0.11818181818181818,131,0,33,DL_Guitar,6,2,DL_Guitar,0.08797843009233475,0
57,100,0.3,241,0,33,DL_Guitar,6,5,DL_Guitar,0.09298289567232132,0
60,100,0.35909090909090907,581,1,33,DL_Guitar,6,6,DL_Guitar,0.1099478080868721,0
60,100,0.2636363636363636,708,0,33,DL_Guitar,6,4,DL_Guitar,0.12867052853107452,0
59,100,0.2,778,0,33,DL_Guitar,6,3,DL_Guitar,0.18221712112426758,0
65,100,0.11818181818181818,435,1,34,DL_Guitar,6,2,DL_Guitar,0.979223906993866,1
62,100,0.2772727272727273,31,1,35,DL_Guitar,6,4,DL_Guitar,0.9988439083099365,1
52,100,0.38181818181818183,110,0,35,DL_Guitar,6,6,DL_Guitar,0.13798676431179047,0
52,100,0.21818181818181817,251,0,35,DL_Guitar,6,3,DL_Guitar,0.16237114369869232,0
59,100,0.6409090909090909,466,0,35,DL_Guitar,6,10,DL_Guitar,0.19106625020503998,0
57,100,1.059090909090909,628,0,35,DL_Guitar,6,15,DL_Guitar,0.2619674801826477,0
52,100,0.2409090909090909,4,1,36,DL_Guitar,6,4,DL_Guitar,0.9990280866622925,1
57,100,0.9818181818181818,110,0,36,DL_Guitar,6,15,DL_Guitar,0.37033629417419434,0
59,100,0.5,761,1,36,DL_Guitar,6,8,DL_Guitar,0.45616987347602844,0
67,100,0.2590909090909091,13,1,37,DL_Guitar,6,4,DL_Guitar,0.9984880685806274,1
55,100,0.22272727272727272,78,0,37,DL_Guitar,6,4,DL_Guitar,0.06335339695215225,0
62,100,0.2,131,0,37,DL_Guitar,6,3,DL_Guitar,0.058288976550102234,0
64,100,0.38181818181818183,179,0,37,DL_Guitar,6,6,DL_Guitar,0.06136224791407585,0
64,100,0.35909090909090907,435,1,37,DL_Guitar,6,6,DL_Guitar,0.07168327271938324,0
67,100,0.1,531,0,37,DL_Guitar,6,2,DL_Guitar,0.08473725616931915,0
55,100,0.21818181818181817,655,0,37,DL_Guitar,6,3,DL_Guitar,0.12635110318660736,0
71,100,0.37727272727272726,53,1,38,DL_Guitar,6,6,DL_Guitar,0.9983735084533691,1
55,100,0.11818181818181818,150,0,38,DL_Guitar,6,2,DL_Guitar,0.05104975402355194,0
62,100,0.18181818181818182,220,0,38,DL_Guitar,6,3,DL_Guitar,0.04161203280091286,0
69,100,0.17727272727272728,281,0,38,DL_Guitar,6,3,DL_Guitar,0.03798021003603935,0
71,100,0.18181818181818182,334,0,38,DL_Guitar,6,3,DL_Guitar,0.03926144912838936,0
74,100,0.3,396,0,38,DL_Guitar,6,5,DL_Guitar,0.04616831615567207,0
69,100,0.22272727272727272,563,0,38,DL_Guitar,6,4,DL_Guitar,0.05713373422622681,0
69,100,0.18181818181818182,616,0,38,DL_Guitar,6,3,DL_Guitar,0.09188400208950043,0
62,100,0.2,131,1,39,DL_Guitar,6,3,DL_Guitar,0.9984880685806274,1
67,100,0.2,303,0,39,DL_Guitar,6,3,DL_Guitar,0.06335471570491791,0
55,100,0.3181818181818182,348,0,39,DL_Guitar,6,5,DL_Guitar,0.058291178196668625,0
62,100,0.1590909090909091,435,0,39,DL_Guitar,6,3,DL_Guitar,0.061363425105810165,0
64,100,0.35909090909090907,474,0,39,DL_Guitar,6,6,DL_Guitar,0.07168478518724442,0
67,100,0.21818181818181817,558,0,39,DL_Guitar,6,3,DL_Guitar,0.08473751693964005,0
64,100,0.3,738,0,39,DL_Guitar,6,5,DL_Guitar,0.12635686993598938,0
64,100,0.2,88,1,40,DL_Guitar,6,3,DL_Guitar,0.9984879493713379,1
64,100,0.16363636363636364,136,0,40,DL_Guitar,6,3,DL_Guitar,0.06335435807704926,0
55,100,0.1,201,0,40,DL_Guitar,6,2,DL_Guitar,0.058294136077165604,0
69,100,0.2590909090909091,563,1,40,DL_Guitar,6,4,DL_Guitar,0.061363812536001205,0
59,100,0.1409090909090909,646,0,40,DL_Guitar,6,2,DL_Guitar,0.07168728858232498,0
74,100,0.2818181818181818,694,0,40,DL_Guitar,6,5,DL_Guitar,0.08474135398864746,0
69,100,0.6181818181818182,858,0,40,DL_Guitar,6,10,DL_Guitar,0.1263492852449417,0
62,100,0.5590909090909091,321,1,41,DL_Guitar,6,9,DL_Guitar,0.9990094900131226,1
55,100,0.2,584,1,41,DL_Guitar,6,3,DL_Guitar,0.23323442041873932,0
59,100,0.5590909090909091,713,0,41,DL_Guitar,6,9,DL_Guitar,0.2705920934677124,0
55,100,0.2,839,0,41,DL_Guitar,6,3,DL_Guitar,0.3579263985157013,0
55,100,0.2,101,1,42,DL_Guitar,6,3,DL_Guitar,0.9984880685806274,1
55,100,0.1590909090909091,150,0,42,DL_Guitar,6,3,DL_Guitar,0.06335380673408508,0
55,100,0.3409090909090909,201,0,42,DL_Guitar,6,5,DL_Guitar,0.0582895390689373,0
59,100,0.6409090909090909,351,0,42,DL_Guitar,6,10,DL_Guitar,0.06136106327176094,0
55,100,0.2772727272727273,515,0,42,DL_Guitar,6,4,DL_Guitar,0.07168405503034592,0
57,100,1.1409090909090909,606,0,42,DL_Guitar,6,15,DL_Guitar,0.08473438769578934,0
64,100,1.1409090909090909,871,1,42,DL_Guitar,6,15,DL_Guitar,0.12635473906993866,0
57,100,0.1409090909090909,241,1,43,DL_Guitar,6,2,DL_Guitar,0.9986507296562195,1
81,100,0.3181818181818182,273,0,43,DL_Guitar,6,5,DL_Guitar,0.0879812017083168,0
57,100,0.3,413,0,43,DL_Guitar,6,5,DL_Guitar,0.0929887667298317,0
57,100,0.16363636363636364,509,0,43,DL_Guitar,6,3,DL_Guitar,0.1099565401673317,0
55,100,0.6,611,0,43,DL_Guitar,6,10,DL_Guitar,0.12867598235607147,0
60,100,0.1590909090909091,875,1,43,DL_Guitar,6,3,DL_Guitar,0.18222665786743164,0
60,100,0.5590909090909091,61,1,44,DL_Guitar,6,9,DL_Guitar,0.9988439083099365,1
60,100,0.16363636363636364,224,0,44,DL_Guitar,6,3,DL_Guitar,0.13798490166664124,0
62,100,0.33636363636363636,348,0,44,DL_Guitar,6,5,DL_Guitar,0.16236768662929535,0
60,100,0.5590909090909091,496,0,44,DL_Guitar,6,9,DL_Guitar,0.19105860590934753,0
74,100,0.35909090909090907,660,0,44,DL_Guitar,6,6,DL_Guitar,0.2619688808917999,0
60,100,0.12272727272727273,69,1,51,DL_Guitar,6,2,DL_Guitar,0.9792243838310242,1
62,100,0.1,361,1,52,DL_Guitar,6,2,DL_Guitar,0.9792237281799316,1
60,100,0.38181818181818183,311,1,53,DL_Guitar,6,6,DL_Guitar,0.9990280866622925,1
60,100,1.1409090909090909,471,0,53,DL_Guitar,6,15,DL_Guitar,0.37033402919769287,0
60,100,0.2,861,1,53,DL_Guitar,6,3,DL_Guitar,0.4561772048473358,0
60,100,0.4772727272727273,53,1,54,DL_Guitar,6,8,DL_Guitar,0.9990280866622925,1
59,100,0.16363636363636364,224,0,54,DL_Guitar,6,3,DL_Guitar,0.37033939361572266,0
59,100,0.11818181818181818,743,1,54,DL_Guitar,6,2,DL_Guitar,0.4561709463596344,0
62,100,0.2590909090909091,123,1,57,DL_Guitar,6,4,DL_Guitar,0.9792237281799316,1
59,100,0.2636363636363636,114,1,63,DL_Guitar,6,4,DL_Guitar,0.9983231425285339,1
58,100,0.13636363636363635,501,1,63,DL_Guitar,6,2,DL_Guitar,0.5462168455123901,1
59,100,0.1,360,1,65,DL_Guitar,6,2,DL_Guitar,0.9988439083099365,1
59,100,0.1,386,0,65,DL_Guitar,6,2,DL_Guitar,0.1379851996898651,0
59,100,0.2636363636363636,422,0,65,DL_Guitar,6,4,DL_Guitar,0.1623639315366745,0
59,100,0.4409090909090909,506,0,65,DL_Guitar,6,7,DL_Guitar,0.19105727970600128,0
59,100,0.5409090909090909,624,0,65,DL_Guitar,6,9,DL_Guitar,0.26196369528770447,0
57,100,0.41818181818181815,9,1,66,DL_Guitar,6,7,DL_Guitar,0.9792236089706421,1
59,100,0.2409090909090909,443,1,77,DL_Guitar,6,4,DL_Guitar,0.9983232617378235,1
57,100,0.23636363636363636,700,1,77,DL_Guitar,6,4,DL_Guitar,0.5462175607681274,1
57,100,0.2409090909090909,0,1,78,DL_Guitar,6,4,DL_Guitar,0.9988439083099365,1
57,100,0.1,83,0,78,DL_Guitar,6,2,DL_Guitar,0.13798518478870392,0
57,100,0.22272727272727272,145,0,78,DL_Guitar,6,4,DL_Guitar,0.16236497461795807,0
57,100,0.11818181818181818,294,0,78,DL_Guitar,6,2,DL_Guitar,0.19105972349643707,0
59,100,0.1,360,0,78,DL_Guitar,6,2,DL_Guitar,0.26197296380996704,0
62,100,0.2818181818181818,0,1,94,DL_Guitar,6,5,DL_Guitar,0.9982556700706482,1
62,100,0.11818181818181818,110,0,94,DL_Guitar,6,2,DL_Guitar,0.041293445974588394,0
62,100,0.1409090909090909,229,0,94,DL_Guitar,6,2,DL_Guitar,0.029125861823558807,0
64,100,0.35909090909090907,260,0,94,DL_Guitar,6,6,DL_Guitar,0.02157059870660305,0
55,100,0.17727272727272728,347,0,94,DL_Guitar,6,3,DL_Guitar,0.017060136422514915,0
62,100,0.21818181818181817,413,0,94,DL_Guitar,6,3,DL_Guitar,0.015269279479980469,0
62,100,0.13636363636363635,480,0,94,DL_Guitar,6,2,DL_Guitar,0.01645718142390251,0
64,100,0.3409090909090909,514,0,94,DL_Guitar,6,5,DL_Guitar,0.021838515996932983,0
67,100,0.5590909090909091,590,0,94,DL_Guitar,6,9,DL_Guitar,0.03251834958791733,0
66,100,0.13636363636363635,876,1,94,DL_Guitar,6,2,DL_Guitar,0.060915250331163406,0
71,100,0.3,47,1,95,DL_Guitar,6,5,DL_Guitar,0.9984879493713379,1
71,100,0.3,150,0,95,DL_Guitar,6,5,DL_Guitar,0.06335406005382538,0
66,100,0.2,233,0,95,DL_Guitar,6,3,DL_Guitar,0.05828990787267685,0
62,100,0.1,307,0,95,DL_Guitar,6,2,DL_Guitar,0.06136228144168854,0
71,100,0.17727272727272728,413,0,95,DL_Guitar,6,3,DL_Guitar,0.07168608903884888,0
69,100,0.22272727272727272,805,1,95,DL_Guitar,6,4,DL_Guitar,0.08473966270685196,0
67,100,1.259090909090909,876,0,95,DL_Guitar,6,15,DL_Guitar,0.12635250389575958,0
62,100,0.12272727272727273,365,1,96,DL_Guitar,6,2,DL_Guitar,0.9984879493713379,1
64,100,0.13636363636363635,392,0,96,DL_Guitar,6,2,DL_Guitar,0.06335482746362686,0
62,100,0.1409090909090909,506,0,96,DL_Guitar,6,2,DL_Guitar,0.05829079821705818,0
64,100,0.38181818181818183,540,0,96,DL_Guitar,6,6,DL_Guitar,0.06136463209986687,0
62,100,0.11818181818181818,726,0,96,DL_Guitar,6,2,DL_Guitar,0.07168424874544144,0
62,100,0.17727272727272728,756,0,96,DL_Guitar,6,3,DL_Guitar,0.08474042266607285,0
64,100,0.3409090909090909,796,0,96,DL_Guitar,6,5,DL_Guitar,0.126357764005661,0
67,100,0.5818181818181818,0,1,97,DL_Guitar,6,9,DL_Guitar,0.9986506104469299,1
69,100,0.21818181818181817,132,0,97,DL_Guitar,6,3,DL_Guitar,0.087980717420578,0
71,100,0.8,330,0,97,DL_Guitar,6,13,DL_Guitar,0.09298396855592728,0
66,100,0.1,536,0,97,DL_Guitar,6,2,DL_Guitar,0.1099502444267273,0
62,100,0.2590909090909091,567,0,97,DL_Guitar,6,4,DL_Guitar,0.1286703497171402,0
69,100,0.1409090909090909,650,0,97,DL_Guitar,6,2,DL_Guitar,0.18222016096115112,0
69,100,0.18181818181818182,233,1,98,DL_Guitar,6,3,DL_Guitar,0.9983232617378235,1
67,100,0.12272727272727273,399,0,98,DL_Guitar,6,2,DL_Guitar,0.5462173223495483,1
70,100,0.11818181818181818,304,1,1,_Remix_Guitar,6,2,_Remix_Guitar,0.9990280866622925,1
58,100,0.2818181818181818,421,0,1,_Remix_Guitar,6,5,_Remix_Guitar,0.3703451454639435,0
63,100,0.1590909090909091,673,1,1,_Remix_Guitar,6,3,_Remix_Guitar,0.4561684727668762,0
70,100,0.1409090909090909,12,1,2,_Remix_Guitar,6,2,_Remix_Guitar,0.9986506104469299,1
58,100,0.2590909090909091,57,0,2,_Remix_Guitar,6,4,_Remix_Guitar,0.08797838538885117,0
63,100,0.18181818181818182,443,1,2,_Remix_Guitar,6,3,_Remix_Guitar,0.09298478811979294,0
63,100,0.3409090909090909,488,0,2,_Remix_Guitar,6,5,_Remix_Guitar,0.10994767397642136,0
58,100,0.2772727272727273,568,0,2,_Remix_Guitar,6,4,_Remix_Guitar,0.12867316603660583,0
62,100,0.1409090909090909,845,1,2,_Remix_Guitar,6,2,_Remix_Guitar,0.1822168529033661,0
58,100,0.23636363636363636,216,1,3,_Remix_Guitar,6,4,_Remix_Guitar,0.9983231425285339,1
63,100,0.21818181818181817,461,1,3,_Remix_Guitar,6,3,_Remix_Guitar,0.5462161302566528,1
63,100,0.22272727272727272,114,1,4,_Remix_Guitar,6,4,_Remix_Guitar,0.9988439083099365,1
63,100,0.41818181818181815,184,0,4,_Remix_Guitar,6,7,_Remix_Guitar,0.13798853754997253,0
58,100,0.2590909090909091,348,0,4,_Remix_Guitar,6,4,_Remix_Guitar,0.16237759590148926,0
63,100,0.5409090909090909,629,1,4,_Remix_Guitar,6,9,_Remix_Guitar,0.1910659521818161,0
63,100,0.2818181818181818,862,1,4,_Remix_Guitar,6,5,_Remix_Guitar,0.2619832456111908,0
58,100,0.18181818181818182,409,1,5,_Remix_Guitar,6,3,_Remix_Guitar,0.9983231425285339,1
63,100,0.2590909090909091,867,1,5,_Remix_Guitar,6,4,_Remix_Guitar,0.5462121963500977,1
56,100,0.38181818181818183,201,1,6,_Remix_Guitar,6,6,_Remix_Guitar,0.9990280866622925,1
63,100,0.7181818181818181,396,0,6,_Remix_Guitar,6,11,_Remix_Guitar,0.37032821774482727,0
70,100,0.22272727272727272,739,1,6,_Remix_Guitar,6,4,_Remix_Guitar,0.45617419481277466,0
63,100,0.1409090909090909,8,1,7,_Remix_Guitar,6,2,_Remix_Guitar,0.9990280866622925,1
63,100,0.1,220,0,7,_Remix_Guitar,6,2,_Remix_Guitar,0.3703438937664032,0
62,100,0.1,629,1,7,_Remix_Guitar,6,2,_Remix_Guitar,0.45617929100990295,0
63,100,0.2636363636363636,422,1,8,_Remix_Guitar,6,4,_Remix_Guitar,0.9990280866622925,1
56,100,0.35909090909090907,505,0,8,_Remix_Guitar,6,6,_Remix_Guitar,0.37033748626708984,0
63,100,0.2772727272727273,744,1,8,_Remix_Guitar,6,4,_Remix_Guitar,0.4561700224876404,0
63,100,0.13636363636363635,17,1,9,_Remix_Guitar,6,2,_Remix_Guitar,0.9983231425285339,1
63,100,0.38181818181818183,637,1,9,_Remix_Guitar,6,6,_Remix_Guitar,0.5462180376052856,1
63,100,0.23636363636363636,39,1,10,_Remix_Guitar,6,4,_Remix_Guitar,0.9988439083099365,1
58,100,0.1,211,0,10,_Remix_Guitar,6,2,_Remix_Guitar,0.1379862278699875,0
58,100,0.32272727272727275,584,1,10,_Remix_Guitar,6,5,_Remix_Guitar,0.16237403452396393,0
58,100,0.22272727272727272,716,0,10,_Remix_Guitar,6,4,_Remix_Guitar,0.1910642683506012,0
56,100,0.4772727272727273,787,0,10,_Remix_Guitar,6,8,_Remix_Guitar,0.2619762420654297,0
56,100,0.1590909090909091,30,1,11,_Remix_Guitar,6,3,_Remix_Guitar,0.9986506104469299,1
58,100,0.2590909090909091,343,1,11,_Remix_Guitar,6,4,_Remix_Guitar,0.08797862380743027,0
63,100,0.1,642,1,11,_Remix_Guitar,6,2,_Remix_Guitar,0.09298161417245865,0
58,100,0.18181818181818182,739,0,11,_Remix_Guitar,6,3,_Remix_Guitar,0.10994856059551239,0
58,100,0.1,795,0,11,_Remix_Guitar,6,2,_Remix_Guitar,0.1286657452583313,0
58,100,0.2772727272727273,854,0,11,_Remix_Guitar,6,4,_Remix_Guitar,0.18221703171730042,0
58,100,0.21818181818181817,493,1,12,_Remix_Guitar,6,3,_Remix_Guitar,0.9983232617378235,1
55,100,0.5181818181818182,756,1,12,_Remix_Guitar,6,8,_Remix_Guitar,0.5462149977684021,1
55,100,0.18181818181818182,65,1,13,_Remix_Guitar,6,3,_Remix_Guitar,0.9986506104469299,1
56,100,0.11818181818181818,316,1,13,_Remix_Guitar,6,2,_Remix_Guitar,0.08797725290060043,0
56,100,0.6,369,0,13,_Remix_Guitar,6,10,_Remix_Guitar,0.09298136830329895,0
58,100,0.2590909090909091,634,1,13,_Remix_Guitar,6,4,_Remix_Guitar,0.10994342714548111,0
58,100,0.1,694,0,13,_Remix_Guitar,6,2,_Remix_Guitar,0.128665491938591,0
58,100,0.22272727272727272,840,0,13,_Remix_Guitar,6,4,_Remix_Guitar,0.18220676481723785,0
63,100,0.5409090909090909,13,1,14,_Remix_Guitar,6,9,_Remix_Guitar,0.9986506104469299,1
58,100,0.3,140,0,14,_Remix_Guitar,6,5,_Remix_Guitar,0.08798202127218246,0
58,100,0.32272727272727275,268,0,14,_Remix_Guitar,6,5,_Remix_Guitar,0.09298475086688995,0
62,100,0.2,603,1,14,_Remix_Guitar,6,3,_Remix_Guitar,0.10994976758956909,0
58,100,0.1409090909090909,730,0,14,_Remix_Guitar,6,2,_Remix_Guitar,0.12867385149002075,0
58,100,0.2772727272727273,778,0,14,_Remix_Guitar,6,4,_Remix_Guitar,0.18222111463546753,0
63,100,0.1590909090909091,383,1,15,_Remix_Guitar,6,3,_Remix_Guitar,0.9990280866622925,1
56,100,0.12272727272727273,474,0,15,_Remix_Guitar,6,2,_Remix_Guitar,0.3703431487083435,0
58,100,0.1,795,1,15,_Remix_Guitar,6,2,_Remix_Guitar,0.4561711549758911,0
58,100,0.2590909090909091,40,1,16,_Remix_Guitar,6,4,_Remix_Guitar,0.9990094900131226,1
55,100,0.4818181818181818,223,0,16,_Remix_Guitar,6,8,_Remix_Guitar,0.23322629928588867,0
65,100,0.8181818181818182,351,0,16,_Remix_Guitar,6,13,_Remix_Guitar,0.27057376503944397,0
58,100,0.2,567,0,16,_Remix_Guitar,6,3,_Remix_Guitar,0.35792842507362366,0
53,100,0.2,391,1,17,_Remix_Guitar,6,3,_Remix_Guitar,0.9990094900131226,1
53,100,0.3,440,0,17,_Remix_Guitar,6,5,_Remix_Guitar,0.2332324981689453,0
56,100,0.2,656,0,17,_Remix_Guitar,6,3,_Remix_Guitar,0.27057865262031555,0
58,100,0.17727272727272728,712,0,17,_Remix_Guitar,6,3,_Remix_Guitar,0.357927143573761,0
58,100,0.1590909090909091,52,1,18,_Remix_Guitar,6,3,_Remix_Guitar,0.9986506104469299,1
60,100,0.2409090909090909,96,0,18,_Remix_Guitar,6,4,_Remix_Guitar,0.0879812240600586,0
58,100,0.8,154,0,18,_Remix_Guitar,6,13,_Remix_Guitar,0.09298253059387207,0
58,100,0.2590909090909091,339,0,18,_Remix_Guitar,6,4,_Remix_Guitar,0.10995161533355713,0
58,100,0.2,729,1,18,_Remix_Guitar,6,3,_Remix_Guitar,0.12867119908332825,0
63,100,0.12272727272727273,827,0,18,_Remix_Guitar,6,2,_Remix_Guitar,0.1822132170200348,0
63,100,0.2,550,1,19,_Remix_Guitar,6,3,_Remix_Guitar,0.9983231425285339,1
60,100,0.11818181818181818,779,0,19,_Remix_Guitar,6,2,_Remix_Guitar,0.5462251305580139,1
63,100,0.2,343,1,20,_Remix_Guitar,6,3,_Remix_Guitar,0.979223906993866,1
53,100,0.2409090909090909,144,1,21,_Remix_Guitar,6,4,_Remix_Guitar,0.979223906993866,1
56,100,0.1,351,1,22,_Remix_Guitar,6,2,_Remix_Guitar,0.9983231425285339,1
53,100,0.1409090909090909,822,1,22,_Remix_Guitar,6,2,_Remix_Guitar,0.5462169647216797,1
65,100,0.11818181818181818,9,1,23,_Remix_Guitar,6,2,_Remix_Guitar,0.9988439083099365,1
53,100,0.1,34,0,23,_Remix_Guitar,6,2,_Remix_Guitar,0.13797849416732788,0
65,100,0.37727272727272726,140,0,23,_Remix_Guitar,6,6,_Remix_Guitar,0.16235627233982086,0
65,100,0.2409090909090909,312,0,23,_Remix_Guitar,6,4,_Remix_Guitar,0.19104740023612976,0
65,100,0.2,426,0,23,_Remix_Guitar,6,3,_Remix_Guitar,0.2619549334049225,0
63,100,0.3181818181818182,0,1,24,_Remix_Guitar,6,5,_Remix_Guitar,0.9990094900131226,1
55,100,0.12272727272727273,79,0,24,_Remix_Guitar,6,2,_Remix_Guitar,0.23323677480220795,0
63,100,0.1409090909090909,461,1,24,_Remix_Guitar,6,2,_Remix_Guitar,0.2705819606781006,0
60,100,0.1,602,0,24,_Remix_Guitar,6,2,_Remix_Guitar,0.35793444514274597,0
62,100,0.11818181818181818,171,1,25,_Remix_Guitar,6,2,_Remix_Guitar,0.9983232617378235,1
53,100,0.17727272727272728,250,0,25,_Remix_Guitar,6,3,_Remix_Guitar,0.5462194085121155,1
63,100,0.16363636363636364,69,1,26,_Remix_Guitar,6,3,_Remix_Guitar,0.9983004927635193,1
63,100,0.2590909090909091,140,0,26,_Remix_Guitar,6,4,_Remix_Guitar,0.044662006199359894,0
60,100,0.3,223,0,26,_Remix_Guitar,6,5,_Remix_Guitar,0.033372215926647186,0
55,100,0.21818181818181817,360,0,26,_Remix_Guitar,6,3,_Remix_Guitar,0.026947539299726486,0
53,100,0.1409090909090909,509,0,26,_Remix_Guitar,6,2,_Remix_Guitar,0.024083850905299187,0
53,100,0.12272727272727273,553,0,26,_Remix_Guitar,6,2,_Remix_Guitar,0.02497304417192936,0
63,100,0.4818181818181818,663,0,26,_Remix_Guitar,6,8,_Remix_Guitar,0.030647728592157364,0
63,100,0.1409090909090909,818,0,26,_Remix_Guitar,6,2,_Remix_Guitar,0.04137050360441208,0
63,100,0.1,853,0,26,_Remix_Guitar,6,2,_Remix_Guitar,0.07207293808460236,0
63,100,0.1409090909090909,277,1,27,_Remix_Guitar,6,2,_Remix_Guitar,0.9986506104469299,1
63,100,0.22272727272727272,312,0,27,_Remix_Guitar,6,4,_Remix_Guitar,0.08798123151063919,0
63,100,0.1,382,0,27,_Remix_Guitar,6,2,_Remix_Guitar,0.09298595041036606,0
63,100,0.2590909090909091,484,0,27,_Remix_Guitar,6,4,_Remix_Guitar,0.10995227098464966,0
53,100,0.22272727272727272,673,0,27,_Remix_Guitar,6,4,_Remix_Guitar,0.1286788135766983,0
60,100,0.12272727272727273,839,0,27,_Remix_Guitar,6,2,_Remix_Guitar,0.18222907185554504,0
53,100,0.3409090909090909,44,1,28,_Remix_Guitar,6,5,_Remix_Guitar,0.9986506104469299,1
53,100,0.1590909090909091,185,0,28,_Remix_Guitar,6,3,_Remix_Guitar,0.08797723799943924,0
53,100,0.17727272727272728,260,0,28,_Remix_Guitar,6,3,_Remix_Guitar,0.09298145025968552,0
62,100,0.11818181818181818,418,0,28,_Remix_Guitar,6,2,_Remix_Guitar,0.10994742065668106,0
53,100,0.2,519,0,28,_Remix_Guitar,6,3,_Remix_Guitar,0.1286689043045044,0
53,100,0.1,567,0,28,_Remix_Guitar,6,2,_Remix_Guitar,0.1822156012058258,0
55,100,0.18181818181818182,88,1,29,_Remix_Guitar,6,3,_Remix_Guitar,0.9984879493713379,1
53,100,1.1,202,0,29,_Remix_Guitar,6,15,_Remix_Guitar,0.06335151940584183,0
58,100,0.12272727272727273,474,1,29,_Remix_Guitar,6,2,_Remix_Guitar,0.058288417756557465,0
58,100,0.12272727272727273,563,0,29,_Remix_Guitar,6,2,_Remix_Guitar,0.061358124017715454,0
58,100,0.13636363636363635,656,0,29,_Remix_Guitar,6,2,_Remix_Guitar,0.07167831063270569,0
58,100,0.3409090909090909,694,0,29,_Remix_Guitar,6,5,_Remix_Guitar,0.08472847193479538,0
60,100,0.16363636363636364,862,0,29,_Remix_Guitar,6,3,_Remix_Guitar,0.12634140253067017,0
58,100,0.21818181818181817,40,1,30,_Remix_Guitar,6,3,_Remix_Guitar,0.9984880685806274,1
53,100,0.2772727272727273,96,0,30,_Remix_Guitar,6,4,_Remix_Guitar,0.06335097551345825,0
58,100,0.11818181818181818,171,0,30,_Remix_Guitar,6,2,_Remix_Guitar,0.05828896164894104,0
53,100,0.6,216,0,30,_Remix_Guitar,6,10,_Remix_Guitar,0.061360351741313934,0
58,100,0.12272727272727273,422,0,30,_Remix_Guitar,6,2,_Remix_Guitar,0.07168037444353104,0
53,100,0.1,492,0,30,_Remix_Guitar,6,2,_Remix_Guitar,0.08473087102174759,0
55,100,0.5181818181818182,766,1,30,_Remix_Guitar,6,8,_Remix_Guitar,0.1263480931520462,0
55,100,0.12272727272727273,179,1,31,_Remix_Guitar,6,2,_Remix_Guitar,0.9983232617378235,1
53,100,0.1409090909090909,646,1,31,_Remix_Guitar,6,2,_Remix_Guitar,0.5462083220481873,1
53,100,0.37727272727272726,383,1,32,_Remix_Guitar,6,6,_Remix_Guitar,0.9990280866622925,1
53,100,0.2,471,0,32,_Remix_Guitar,6,3,_Remix_Guitar,0.37033796310424805,0
53,100,0.13636363636363635,765,1,32,_Remix_Guitar,6,2,_Remix_Guitar,0.45616868138313293,0
55,100,0.21818181818181817,581,1,33,_Remix_Guitar,6,3,_Remix_Guitar,0.9983232617378235,1
55,100,0.6,726,0,33,_Remix_Guitar,6,10,_Remix_Guitar,0.546212911605835,1
58,100,0.2772727272727273,413,1,34,_Remix_Guitar,6,4,_Remix_Guitar,0.9990280866622925,1
53,100,0.11818181818181818,681,1,34,_Remix_Guitar,6,2,_Remix_Guitar,0.37033843994140625,0
53,100,0.2818181818181818,804,0,34,_Remix_Guitar,6,5,_Remix_Guitar,0.456169068813324,0
53,100,0.1409090909090909,75,1,35,_Remix_Guitar,6,2,_Remix_Guitar,0.9986506104469299,1
53,100,0.1409090909090909,179,0,35,_Remix_Guitar,6,2,_Remix_Guitar,0.08797945827245712,0
58,100,0.1,215,0,35,_Remix_Guitar,6,2,_Remix_Guitar,0.09298422187566757,0
58,100,0.18181818181818182,241,0,35,_Remix_Guitar,6,3,_Remix_Guitar,0.10995224863290787,0
55,100,0.6,311,0,35,_Remix_Guitar,6,10,_Remix_Guitar,0.12866926193237305,0
53,100,0.17727272727272728,823,1,35,_Remix_Guitar,6,3,_Remix_Guitar,0.18221749365329742,0
53,100,0.1590909090909091,18,1,36,_Remix_Guitar,6,3,_Remix_Guitar,0.9988439083099365,1
53,100,0.2,338,1,36,_Remix_Guitar,6,3,_Remix_Guitar,0.13797909021377563,0
53,100,0.2409090909090909,466,0,36,_Remix_Guitar,6,4,_Remix_Guitar,0.1623639017343521,0
53,100,0.7227272727272728,541,0,36,_Remix_Guitar,6,12,_Remix_Guitar,0.19105137884616852,0
53,100,0.3,778,1,36,_Remix_Guitar,6,5,_Remix_Guitar,0.26196300983428955,0
55,100,0.18181818181818182,263,1,37,_Remix_Guitar,6,3,_Remix_Guitar,0.9983232617378235,1
55,100,0.5,804,1,37,_Remix_Guitar,6,8,_Remix_Guitar,0.5462125539779663,1
56,100,0.4590909090909091,361,1,38,_Remix_Guitar,6,7,_Remix_Guitar,0.9983231425285339,1
53,100,0.5181818181818182,748,1,38,_Remix_Guitar,6,8,_Remix_Guitar,0.5462158918380737,1
53,100,0.23636363636363636,40,1,39,_Remix_Guitar,6,4,_Remix_Guitar,0.9986506104469299,1
58,100,0.2772727272727273,185,0,39,_Remix_Guitar,6,4,_Remix_Guitar,0.0879792869091034,0
58,100,0.2636363636363636,268,0,39,_Remix_Guitar,6,4,_Remix_Guitar,0.09298289567232132,0
53,100,0.1590909090909091,515,1,39,_Remix_Guitar,6,3,_Remix_Guitar,0.10994670540094376,0
53,100,0.2,703,0,39,_Remix_Guitar,6,3,_Remix_Guitar,0.12866604328155518,0
53,100,0.1590909090909091,756,0,39,_Remix_Guitar,6,3,_Remix_Guitar,0.1822139024734497,0
63,100,0.11818181818181818,215,1,40,_Remix_Guitar,6,2,_Remix_Guitar,0.9988439083099365,1
53,100,0.3,528,1,40,_Remix_Guitar,6,5,_Remix_Guitar,0.13798634707927704,0
53,100,0.2409090909090909,646,0,40,_Remix_Guitar,6,4,_Remix_Guitar,0.1623697131872177,0
56,100,0.1590909090909091,783,0,40,_Remix_Guitar,6,3,_Remix_Guitar,0.19106020033359528,0
53,100,0.11818181818181818,858,0,40,_Remix_Guitar,6,2,_Remix_Guitar,0.26196908950805664,0
53,100,0.4,153,1,41,_Remix_Guitar,6,6,_Remix_Guitar,0.9983735084533691,1
58,100,0.1409090909090909,241,0,41,_Remix_Guitar,6,2,_Remix_Guitar,0.05105005204677582,0
53,100,0.2409090909090909,276,0,41,_Remix_Guitar,6,4,_Remix_Guitar,0.04161035269498825,0
53,100,0.16363636363636364,334,0,41,_Remix_Guitar,6,3,_Remix_Guitar,0.03797687217593193,0
65,100,0.2,370,0,41,_Remix_Guitar,6,3,_Remix_Guitar,0.03925797715783119,0
53,100,0.23636363636363636,413,0,41,_Remix_Guitar,6,4,_Remix_Guitar,0.04616178944706917,0
53,100,0.13636363636363635,501,0,41,_Remix_Guitar,6,2,_Remix_Guitar,0.05712712183594704,0
53,100,0.1590909090909091,541,0,41,_Remix_Guitar,6,3,_Remix_Guitar,0.09187425673007965,0
53,100,0.1409090909090909,123,1,42,_Remix_Guitar,6,2,_Remix_Guitar,0.9986506104469299,1
63,100,0.13636363636363635,391,1,42,_Remix_Guitar,6,2,_Remix_Guitar,0.08797953277826309,0
55,100,0.32272727272727275,554,0,42,_Remix_Guitar,6,5,_Remix_Guitar,0.09298470616340637,0
60,100,0.12272727272727273,641,0,42,_Remix_Guitar,6,2,_Remix_Guitar,0.10995133966207504,0
60,100,0.2,761,0,42,_Remix_Guitar,6,3,_Remix_Guitar,0.12867185473442078,0
56,100,0.21818181818181817,866,0,42,_Remix_Guitar,6,3,_Remix_Guitar,0.1822175234556198,0
53,100,0.2818181818181818,440,1,43,_Remix_Guitar,6,5,_Remix_Guitar,0.9986507296562195,1
53,100,0.3,581,0,43,_Remix_Guitar,6,5,_Remix_Guitar,0.0879775807261467,0
58,100,0.2,651,0,43,_Remix_Guitar,6,3,_Remix_Guitar,0.09298494458198547,0
53,100,0.1590909090909091,703,0,43,_Remix_Guitar,6,3,_Remix_Guitar,0.1099456176161766,0
53,100,0.13636363636363635,788,0,43,_Remix_Guitar,6,2,_Remix_Guitar,0.12866725027561188,0
53,100,0.1590909090909091,826,0,43,_Remix_Guitar,6,3,_Remix_Guitar,0.182212233543396,0
53,100,0.13636363636363635,18,1,44,_Remix_Guitar,6,2,_Remix_Guitar,0.9988439083099365,1
53,100,0.5,83,0,44,_Remix_Guitar,6,8,_Remix_Guitar,0.13797880709171295,0
53,100,0.2409090909090909,206,0,44,_Remix_Guitar,6,4,_Remix_Guitar,0.1623619645833969,0
53,100,0.18181818181818182,431,0,44,_Remix_Guitar,6,3,_Remix_Guitar,0.19105024635791779,0
60,100,0.33636363636363636,765,1,44,_Remix_Guitar,6,5,_Remix_Guitar,0.2619609236717224,0
53,100,0.18181818181818182,220,1,45,_Remix_Guitar,6,3,_Remix_Guitar,0.9990280866622925,1
53,100,0.36363636363636365,356,0,45,_Remix_Guitar,6,6,_Remix_Guitar,0.3703371584415436,0
53,100,0.12272727272727273,871,1,45,_Remix_Guitar,6,2,_Remix_Guitar,0.4561702609062195,0
53,100,0.2,185,1,46,_Remix_Guitar,6,3,_Remix_Guitar,0.9986506104469299,1
58,100,0.3181818181818182,391,0,46,_Remix_Guitar,6,5,_Remix_Guitar,0.0879797637462616,0
53,100,0.2,501,0,46,_Remix_Guitar,6,3,_Remix_Guitar,0.0929822102189064,0
53,100,0.17727272727272728,558,0,46,_Remix_Guitar,6,3,_Remix_Guitar,0.10994632542133331,0
53,100,0.2,700,0,46,_Remix_Guitar,6,3,_Remix_Guitar,0.12867069244384766,0
53,100,0.5,751,0,46,_Remix_Guitar,6,8,_Remix_Guitar,0.18221648037433624,0
53,100,0.1590909090909091,8,1,47,_Remix_Guitar,6,3,_Remix_Guitar,0.9986506104469299,1
53,100,0.2409090909090909,69,0,47,_Remix_Guitar,6,4,_Remix_Guitar,0.08797772228717804,0
53,100,0.12272727272727273,136,0,47,_Remix_Guitar,6,2,_Remix_Guitar,0.09298195689916611,0
58,100,0.22272727272727272,321,0,47,_Remix_Guitar,6,4,_Remix_Guitar,0.10994858294725418,0
53,100,0.22272727272727272,386,0,47,_Remix_Guitar,6,4,_Remix_Guitar,0.12866820394992828,0
58,100,0.2818181818181818,616,0,47,_Remix_Guitar,6,5,_Remix_Guitar,0.18221357464790344,0
55,100,0.1,153,1,49,_Remix_Guitar,6,2,_Remix_Guitar,0.9990280866622925,1
55,100,0.2590909090909091,558,1,49,_Remix_Guitar,6,4,_Remix_Guitar,0.37033867835998535,0
53,100,0.2772727272727273,823,1,49,_Remix_Guitar,6,4,_Remix_Guitar,0.45616838335990906,0
53,100,0.4,43,1,50,_Remix_Guitar,6,6,_Remix_Guitar,0.9983004927635193,1
58,100,0.2409090909090909,131,0,50,_Remix_Guitar,6,4,_Remix_Guitar,0.044661395251750946,0
53,100,0.18181818181818182,188,0,50,_Remix_Guitar,6,3,_Remix_Guitar,0.033370401710271835,0
53,100,0.21818181818181817,260,0,50,_Remix_Guitar,6,3,_Remix_Guitar,0.02694636583328247,0
53,100,0.18181818181818182,311,0,50,_Remix_Guitar,6,3,_Remix_Guitar,0.024082673713564873,0
53,100,0.1409090909090909,399,0,50,_Remix_Guitar,6,2,_Remix_Guitar,0.024971267208456993,0
53,100,0.6,545,0,50,_Remix_Guitar,6,10,_Remix_Guitar,0.030645277351140976,0
53,100,0.17727272727272728,765,0,50,_Remix_Guitar,6,3,_Remix_Guitar,0.04136728122830391,0
53,100,0.16363636363636364,818,0,50,_Remix_Guitar,6,3,_Remix_Guitar,0.07206697762012482,0
55,100,0.11818181818181818,281,1,51,_Remix_Guitar,6,2,_Remix_Guitar,0.9792241454124451,1
55,100,0.1,91,1,52,_Remix_Guitar,6,2,_Remix_Guitar,0.9990280866622925,1
55,100,0.1,166,0,52,_Remix_Guitar,6,2,_Remix_Guitar,0.3703421950340271,0
55,100,0.3181818181818182,853,1,52,_Remix_Guitar,6,5,_Remix_Guitar,0.4561660885810852,0
55,100,0.2590909090909091,171,1,53,_Remix_Guitar,6,4,_Remix_Guitar,0.9990094900131226,1
53,100,0.1590909090909091,303,0,53,_Remix_Guitar,6,3,_Remix_Guitar,0.23323141038417816,0
56,100,0.2409090909090909,396,0,53,_Remix_Guitar,6,4,_Remix_Guitar,0.27057912945747375,0
56,100,0.11818181818181818,853,1,53,_Remix_Guitar,6,2,_Remix_Guitar,0.35792163014411926,0
63,100,0.1409090909090909,461,1,54,_Remix_Guitar,6,2,_Remix_Guitar,0.9983232617378235,1
58,100,0.2409090909090909,528,0,54,_Remix_Guitar,6,4,_Remix_Guitar,0.5462252497673035,1
63,100,0.2,75,1,55,_Remix_Guitar,6,3,_Remix_Guitar,0.9990280866622925,1
55,100,0.11818181818181818,458,1,55,_Remix_Guitar,6,2,_Remix_Guitar,0.3703441023826599,0
53,100,0.2590909090909091,606,0,55,_Remix_Guitar,6,4,_Remix_Guitar,0.45617055892944336,0
53,100,0.12272727272727273,166,1,56,_Remix_Guitar,6,2,_Remix_Guitar,0.9986506104469299,1
53,100,0.1590909090909091,220,0,56,_Remix_Guitar,6,3,_Remix_Guitar,0.0879761353135109,0
53,100,0.17727272727272728,338,0,56,_Remix_Guitar,6,3,_Remix_Guitar,0.09298025071620941,0
53,100,0.2,554,0,56,_Remix_Guitar,6,3,_Remix_Guitar,0.10994268208742142,0
53,100,0.22272727272727272,606,0,56,_Remix_Guitar,6,4,_Remix_Guitar,0.12866711616516113,0
53,100,0.4590909090909091,801,0,56,_Remix_Guitar,6,7,_Remix_Guitar,0.18220996856689453,0
53,100,0.21818181818181817,40,1,57,_Remix_Guitar,6,3,_Remix_Guitar,0.9986506104469299,1
53,100,0.16363636363636364,114,0,57,_Remix_Guitar,6,3,_Remix_Guitar,0.0879785493016243,0
53,100,0.17727272727272728,185,0,57,_Remix_Guitar,6,3,_Remix_Guitar,0.09298048913478851,0
53,100,0.1409090909090909,254,0,57,_Remix_Guitar,6,2,_Remix_Guitar,0.10994734615087509,0
53,100,0.1,373,0,57,_Remix_Guitar,6,2,_Remix_Guitar,0.1286674439907074,0
53,100,0.42272727272727273,421,0,57,_Remix_Guitar,6,7,_Remix_Guitar,0.18221259117126465,0
53,100,0.1409090909090909,201,1,59,_Remix_Guitar,6,2,_Remix_Guitar,0.9983735084533691,1
53,100,0.12272727272727273,298,0,59,_Remix_Guitar,6,2,_Remix_Guitar,0.05104861035943031,0
53,100,0.18181818181818182,343,0,59,_Remix_Guitar,6,3,_Remix_Guitar,0.04161102697253227,0
58,100,0.38181818181818183,440,0,59,_Remix_Guitar,6,6,_Remix_Guitar,0.03797924891114235,0
58,100,0.2,536,0,59,_Remix_Guitar,6,3,_Remix_Guitar,0.03925839066505432,0
53,100,0.5590909090909091,590,0,59,_Remix_Guitar,6,9,_Remix_Guitar,0.046161167323589325,0
58,100,0.5772727272727273,721,0,59,_Remix_Guitar,6,9,_Remix_Guitar,0.05712852254509926,0
58,100,0.21818181818181817,866,0,59,_Remix_Guitar,6,3,_Remix_Guitar,0.09187393635511398,0
53,100,0.18181818181818182,114,1,60,_Remix_Guitar,6,3,_Remix_Guitar,0.9983231425285339,1
53,100,0.12272727272727273,311,0,60,_Remix_Guitar,6,2,_Remix_Guitar,0.5462161898612976,1
53,100,0.12272727272727273,466,1,61,_Remix_Guitar,6,2,_Remix_Guitar,0.9990094900131226,1
53,100,1.059090909090909,501,0,61,_Remix_Guitar,6,15,_Remix_Guitar,0.23321986198425293,0
53,100,0.22272727272727272,761,1,61,_Remix_Guitar,6,4,_Remix_Guitar,0.27057069540023804,0
53,100,0.21818181818181817,813,0,61,_Remix_Guitar,6,3,_Remix_Guitar,0.357917845249176,0
53,100,0.11818181818181818,8,1,62,_Remix_Guitar,6,2,_Remix_Guitar,0.9984879493713379,1
53,100,0.1409090909090909,56,0,62,_Remix_Guitar,6,2,_Remix_Guitar,0.06335199624300003,0
53,100,0.21818181818181817,260,0,62,_Remix_Guitar,6,3,_Remix_Guitar,0.05828579515218735,0
53,100,0.32272727272727275,321,0,62,_Remix_Guitar,6,5,_Remix_Guitar,0.06135827675461769,0
53,100,0.17727272727272728,413,0,62,_Remix_Guitar,6,3,_Remix_Guitar,0.0716780573129654,0
53,100,0.16363636363636364,466,0,62,_Remix_Guitar,6,3,_Remix_Guitar,0.08472984284162521,0
53,100,0.22272727272727272,576,0,62,_Remix_Guitar,6,4,_Remix_Guitar,0.12634241580963135,0
53,100,0.4409090909090909,289,1,63,_Remix_Guitar,6,7,_Remix_Guitar,0.9990094900131226,1
58,100,0.7636363636363637,421,0,63,_Remix_Guitar,6,12,_Remix_Guitar,0.23322276771068573,0
53,100,0.32272727272727275,598,0,63,_Remix_Guitar,6,5,_Remix_Guitar,0.2705744504928589,0
55,100,0.2818181818181818,813,0,63,_Remix_Guitar,6,5,_Remix_Guitar,0.3579202890396118,0
55,100,0.4590909090909091,87,1,64,_Remix_Guitar,6,7,_Remix_Guitar,0.9990280866622925,1
55,100,0.17727272727272728,502,1,64,_Remix_Guitar,6,3,_Remix_Guitar,0.3703366219997406,0
55,100,0.11818181818181818,853,1,64,_Remix_Guitar,6,2,_Remix_Guitar,0.45616742968559265,0
53,100,0.13636363636363635,62,1,65,_Remix_Guitar,6,2,_Remix_Guitar,0.9988439083099365,1
53,100,0.2772727272727273,96,0,65,_Remix_Guitar,6,4,_Remix_Guitar,0.13797859847545624,0
53,100,0.1590909090909091,606,1,65,_Remix_Guitar,6,3,_Remix_Guitar,0.16236655414104462,0
53,100,0.6590909090909091,700,0,65,_Remix_Guitar,6,11,_Remix_Guitar,0.1910581886768341,0
53,100,0.1590909090909091,849,0,65,_Remix_Guitar,6,3,_Remix_Guitar,0.26196742057800293,0
53,100,0.3181818181818182,150,1,66,_Remix_Guitar,6,5,_Remix_Guitar,0.9983735084533691,1
58,100,0.36363636363636365,223,0,66,_Remix_Guitar,6,6,_Remix_Guitar,0.051049139350652695,0
53,100,0.6181818181818182,330,0,66,_Remix_Guitar,6,10,_Remix_Guitar,0.04161019250750542,0
58,100,0.18181818181818182,466,0,66,_Remix_Guitar,6,3,_Remix_Guitar,0.03797851875424385,0
53,100,0.23636363636363636,523,0,66,_Remix_Guitar,6,4,_Remix_Guitar,0.039256881922483444,0
53,100,0.4409090909090909,593,0,66,_Remix_Guitar,6,7,_Remix_Guitar,0.04616306722164154,0
53,100,0.4409090909090909,695,0,66,_Remix_Guitar,6,7,_Remix_Guitar,0.05713029205799103,0
53,100,0.1590909090909091,849,0,66,_Remix_Guitar,6,3,_Remix_Guitar,0.0918763279914856,0
53,100,0.5636363636363636,26,1,67,_Remix_Guitar,6,9,_Remix_Guitar,0.9990094900131226,1
58,100,0.12272727272727273,246,0,67,_Remix_Guitar,6,2,_Remix_Guitar,0.2332356870174408,0
55,100,0.11818181818181818,690,1,67,_Remix_Guitar,6,2,_Remix_Guitar,0.27057668566703796,0
55,100,0.11818181818181818,779,0,67,_Remix_Guitar,6,2,_Remix_Guitar,0.3579251766204834,0
53,100,0.1,624,1,68,_Remix_Guitar,6,2,_Remix_Guitar,0.9792238473892212,1
58,100,0.1590909090909091,87,1,69,_Remix_Guitar,6,3,_Remix_Guitar,0.9990280866622925,1
55,100,0.13636363636363635,392,1,69,_Remix_Guitar,6,2,_Remix_Guitar,0.3703383505344391,0
55,100,0.41818181818181815,426,0,69,_Remix_Guitar,6,7,_Remix_Guitar,0.45616576075553894,0
56,100,0.11818181818181818,603,1,70,_Remix_Guitar,6,2,_Remix_Guitar,0.979223370552063,1
63,100,0.5227272727272727,409,1,71,_Remix_Guitar,6,8,_Remix_Guitar,0.9983231425285339,1
63,100,0.4,832,1,71,_Remix_Guitar,6,6,_Remix_Guitar,0.5462254881858826,1
63,100,0.21818181818181817,83,1,72,_Remix_Guitar,6,3,_Remix_Guitar,0.9990094900131226,1
55,100,0.2772727272727273,250,0,72,_Remix_Guitar,6,4,_Remix_Guitar,0.23323795199394226,0
55,100,0.3,333,0,72,_Remix_Guitar,6,5,_Remix_Guitar,0.2705806493759155,0
55,100,0.1409090909090909,422,0,72,_Remix_Guitar,6,2,_Remix_Guitar,0.3579235374927521,0
53,100,0.6,176,1,73,_Remix_Guitar,6,10,_Remix_Guitar,0.9984879493713379,1
53,100,0.11818181818181818,330,0,73,_Remix_Guitar,6,2,_Remix_Guitar,0.06335407495498657,0
58,100,0.6181818181818182,436,0,73,_Remix_Guitar,6,10,_Remix_Guitar,0.05828925222158432,0
70,100,0.1,619,0,73,_Remix_Guitar,6,2,_Remix_Guitar,0.06136111170053482,0
58,100,0.2,650,0,73,_Remix_Guitar,6,3,_Remix_Guitar,0.07168151438236237,0
58,100,0.2590909090909091,722,0,73,_Remix_Guitar,6,4,_Remix_Guitar,0.08473441004753113,0
53,100,1.018181818181818,787,0,73,_Remix_Guitar,6,15,_Remix_Guitar,0.12634606659412384,0
58,100,0.22272727272727272,145,1,74,_Remix_Guitar,6,4,_Remix_Guitar,0.9983231425285339,1
58,100,0.38181818181818183,246,0,74,_Remix_Guitar,6,6,_Remix_Guitar,0.5462153553962708,1
53,100,0.1,179,1,75,_Remix_Guitar,6,2,_Remix_Guitar,0.9986506104469299,1
60,100,0.1,443,1,75,_Remix_Guitar,6,2,_Remix_Guitar,0.08798317611217499,0
55,100,0.3181818181818182,483,0,75,_Remix_Guitar,6,5,_Remix_Guitar,0.09298624843358994,0
55,100,0.1590909090909091,559,0,75,_Remix_Guitar,6,3,_Remix_Guitar,0.10995037853717804,0
55,100,0.1590909090909091,766,0,75,_Remix_Guitar,6,3,_Remix_Guitar,0.1286744773387909,0
58,100,0.4590909090909091,866,0,75,_Remix_Guitar,6,7,_Remix_Guitar,0.18221968412399292,0
55,100,0.2409090909090909,250,1,76,_Remix_Guitar,6,4,_Remix_Guitar,0.9792243838310242,1
63,100,0.3,449,1,77,_Remix_Guitar,6,5,_Remix_Guitar,0.9792234897613525,1
55,100,0.11818181818181818,294,1,78,_Remix_Guitar,6,2,_Remix_Guitar,0.9990094900131226,1
55,100,0.13636363636363635,326,0,78,_Remix_Guitar,6,2,_Remix_Guitar,0.2332344949245453,0
55,100,0.4,430,0,78,_Remix_Guitar,6,6,_Remix_Guitar,0.27058425545692444,0
55,100,0.8,729,1,78,_Remix_Guitar,6,13,_Remix_Guitar,0.35792604088783264,0
63,100,0.1409090909090909,606,1,79,_Remix_Guitar,6,2,_Remix_Guitar,0.9792237281799316,1
53,100,0.4818181818181818,22,1,80,_Remix_Guitar,6,8,_Remix_Guitar,0.9990280866622925,1
53,100,0.11818181818181818,506,1,80,_Remix_Guitar,6,2,_Remix_Guitar,0.37033742666244507,0
53,100,0.2590909090909091,567,0,80,_Remix_Guitar,6,4,_Remix_Guitar,0.4561637043952942,0
53,100,0.1409090909090909,22,1,81,_Remix_Guitar,6,2,_Remix_Guitar,0.9990280866622925,1
53,100,0.1,136,0,81,_Remix_Guitar,6,2,_Remix_Guitar,0.37033578753471375,0
53,100,0.5409090909090909,202,0,81,_Remix_Guitar,6,9,_Remix_Guitar,0.4561615288257599,0
58,100,0.2,436,1,83,_Remix_Guitar,6,3,_Remix_Guitar,0.9990094900131226,1
53,100,0.12272727272727273,496,0,83,_Remix_Guitar,6,2,_Remix_Guitar,0.23322616517543793,0
53,100,0.3,532,0,83,_Remix_Guitar,6,5,_Remix_Guitar,0.2705792486667633,0
53,100,0.35909090909090907,646,0,83,_Remix_Guitar,6,6,_Remix_Guitar,0.3579151928424835,0
53,100,0.2,79,1,84,_Remix_Guitar,6,3,_Remix_Guitar,0.9984879493713379,1
53,100,0.1590909090909091,153,0,84,_Remix_Guitar,6,3,_Remix_Guitar,0.06335151940584183,0
53,100,0.1409090909090909,210,0,84,_Remix_Guitar,6,2,_Remix_Guitar,0.05828758329153061,0
53,100,0.1409090909090909,250,0,84,_Remix_Guitar,6,2,_Remix_Guitar,0.06135820969939232,0
53,100,0.2590909090909091,299,0,84,_Remix_Guitar,6,4,_Remix_Guitar,0.07167775928974152,0
53,100,0.2,377,0,84,_Remix_Guitar,6,3,_Remix_Guitar,0.08473018556833267,0
53,100,0.11818181818181818,593,0,84,_Remix_Guitar,6,2,_Remix_Guitar,0.1263413429260254,0
55,100,0.1409090909090909,289,1,85,_Remix_Guitar,6,2,_Remix_Guitar,0.9983231425285339,1
67,100,0.1,333,0,85,_Remix_Guitar,6,2,_Remix_Guitar,0.5462097525596619,1
55,100,0.1409090909090909,417,1,86,_Remix_Guitar,6,2,_Remix_Guitar,0.9792240262031555,1
53,100,0.16363636363636364,707,1,88,_Remix_Guitar,6,3,_Remix_Guitar,0.9983231425285339,1
53,100,0.1,760,0,88,_Remix_Guitar,6,2,_Remix_Guitar,0.5462146401405334,1
58,100,0.12272727272727273,13,1,89,_Remix_Guitar,6,2,_Remix_Guitar,0.9990280866622925,1
53,100,0.2409090909090909,462,1,89,_Remix_Guitar,6,4,_Remix_Guitar,0.3703356683254242,0
53,100,0.1590909090909091,823,1,89,_Remix_Guitar,6,3,_Remix_Guitar,0.4561675786972046,0
53,100,0.1,140,1,90,_Remix_Guitar,6,2,_Remix_Guitar,0.9990094900131226,1
58,100,0.11818181818181818,633,1,90,_Remix_Guitar,6,2,_Remix_Guitar,0.2332274168729782,0
53,100,0.1590909090909091,726,0,90,_Remix_Guitar,6,3,_Remix_Guitar,0.2705693542957306,0
53,100,0.5409090909090909,862,0,90,_Remix_Guitar,6,9,_Remix_Guitar,0.35792088508605957,0
53,100,0.12272727272727273,202,1,91,_Remix_Guitar,6,2,_Remix_Guitar,0.9983735084533691,1
53,100,0.38181818181818183,242,0,91,_Remix_Guitar,6,6,_Remix_Guitar,0.05104786902666092,0
53,100,0.1409090909090909,330,0,91,_Remix_Guitar,6,2,_Remix_Guitar,0.04160952568054199,0
53,100,0.1,373,0,91,_Remix_Guitar,6,2,_Remix_Guitar,0.03797628730535507,0
53,100,0.18181818181818182,440,0,91,_Remix_Guitar,6,3,_Remix_Guitar,0.03925618156790733,0
53,100,0.2,514,0,91,_Remix_Guitar,6,3,_Remix_Guitar,0.0461592897772789,0
53,100,0.35909090909090907,590,0,91,_Remix_Guitar,6,6,_Remix_Guitar,0.0571233369410038,0
53,100,0.11818181818181818,713,0,91,_Remix_Guitar,6,2,_Remix_Guitar,0.09187228977680206,0
53,100,0.7363636363636363,40,1,93,_Remix_Guitar,6,12,_Remix_Guitar,0.9984879493713379,1
53,100,0.3181818181818182,250,0,93,_Remix_Guitar,6,5,_Remix_Guitar,0.06335187703371048,0
53,100,0.2590909090909091,404,0,93,_Remix_Guitar,6,4,_Remix_Guitar,0.05828561261296272,0
53,100,0.11818181818181818,483,0,93,_Remix_Guitar,6,2,_Remix_Guitar,0.061357736587524414,0
53,100,0.1,540,0,93,_Remix_Guitar,6,2,_Remix_Guitar,0.07167770713567734,0
53,100,0.2,606,0,93,_Remix_Guitar,6,3,_Remix_Guitar,0.08472897112369537,0
53,100,0.4590909090909091,669,0,93,_Remix_Guitar,6,7,_Remix_Guitar,0.1263417750597,0
53,100,0.2409090909090909,43,1,94,_Remix_Guitar,6,4,_Remix_Guitar,0.9983232617378235,1
58,100,0.22272727272727272,100,0,94,_Remix_Guitar,6,4,_Remix_Guitar,0.5462140440940857,1
55,100,0.12272727272727273,13,1,95,_Remix_Guitar,6,2,_Remix_Guitar,0.9990280866622925,1
55,100,0.18181818181818182,47,0,95,_Remix_Guitar,6,3,_Remix_Guitar,0.37033331394195557,0
53,100,0.1409090909090909,312,1,95,_Remix_Guitar,6,2,_Remix_Guitar,0.45616471767425537,0
60,100,0.1,496,1,96,_Remix_Guitar,6,2,_Remix_Guitar,0.9792238473892212,1
53,100,0.18181818181818182,220,1,97,_Remix_Guitar,6,3,_Remix_Guitar,0.9983231425285339,1
53,100,0.1590909090909091,475,1,97,_Remix_Guitar,6,3,_Remix_Guitar,0.5462120771408081,1
53,100,0.11818181818181818,770,1,98,_Remix_Guitar,6,2,_Remix_Guitar,0.9792241454124451,1
53,100,0.11818181818181818,700,1,99,_Remix_Guitar,6,2,_Remix_Guitar,0.9983232617378235,1
53,100,0.1409090909090909,773,0,99,_Remix_Guitar,6,2,_Remix_Guitar,0.546219527721405,1
53,100,0.36363636363636365,157,1,100,_Remix_Guitar,6,6,_Remix_Guitar,0.9984879493713379,1
53,100,0.18181818181818182,267,0,100,_Remix_Guitar,6,3,_Remix_Guitar,0.06335216760635376,0
53,100,0.1409090909090909,352,0,100,_Remix_Guitar,6,2,_Remix_Guitar,0.05828801169991493,0
53,100,0.2818181818181818,386,0,100,_Remix_Guitar,6,5,_Remix_Guitar,0.0613628514111042,0
53,100,0.4409090909090909,470,0,100,_Remix_Guitar,6,7,_Remix_Guitar,0.07168202847242355,0
53,100,1.1409090909090909,593,0,100,_Remix_Guitar,6,15,_Remix_Guitar,0.08473304659128189,0
53,100,0.1590909090909091,853,1,100,_Remix_Guitar,6,3,_Remix_Guitar,0.12635254859924316,0
53,100,0.3,22,1,101,_Remix_Guitar,6,5,_Remix_Guitar,0.9990280866622925,1
53,100,0.2,106,0,101,_Remix_Guitar,6,3,_Remix_Guitar,0.37034109234809875,0
63,100,0.11818181818181818,330,0,101,_Remix_Guitar,6,2,_Remix_Guitar,0.4561658501625061,0
63,100,0.3409090909090909,92,1,102,_Remix_Guitar,6,5,_Remix_Guitar,0.9990094900131226,1
53,100,0.33636363636363636,326,1,102,_Remix_Guitar,6,5,_Remix_Guitar,0.23323078453540802,0
53,100,0.2590909090909091,426,0,102,_Remix_Guitar,6,4,_Remix_Guitar,0.27058544754981995,0
53,100,0.36363636363636365,619,0,102,_Remix_Guitar,6,6,_Remix_Guitar,0.3579225540161133,0
65,100,0.2818181818181818,123,1,103,_Remix_Guitar,6,5,_Remix_Guitar,0.9983231425285339,1
60,100,0.4818181818181818,817,1,103,_Remix_Guitar,6,8,_Remix_Guitar,0.5462218523025513,1
63,100,0.1,140,1,104,_Remix_Guitar,6,2,_Remix_Guitar,0.9990280866622925,1
63,100,0.1409090909090909,206,0,104,_Remix_Guitar,6,2,_Remix_Guitar,0.37034764885902405,0
63,100,0.7636363636363637,267,0,104,_Remix_Guitar,6,12,_Remix_Guitar,0.45617353916168213,0
56,100,0.1,96,1,105,_Remix_Guitar,6,2,_Remix_Guitar,0.9984879493713379,1
60,100,0.43636363636363634,260,0,105,_Remix_Guitar,6,7,_Remix_Guitar,0.0633544847369194,0
58,100,0.11818181818181818,493,1,105,_Remix_Guitar,6,2,_Remix_Guitar,0.05828933045268059,0
58,100,0.18181818181818182,553,0,105,_Remix_Guitar,6,3,_Remix_Guitar,0.06136263534426689,0
70,100,0.2,603,0,105,_Remix_Guitar,6,3,_Remix_Guitar,0.07168275117874146,0
58,100,0.1590909090909091,690,0,105,_Remix_Guitar,6,3,_Remix_Guitar,0.0847337394952774,0
53,100,0.16363636363636364,729,0,105,_Remix_Guitar,6,3,_Remix_Guitar,0.12635250389575958,0
58,100,0.11818181818181818,326,1,106,_Remix_Guitar,6,2,_Remix_Guitar,0.9990094900131226,1
63,100,0.2590909090909091,656,1,106,_Remix_Guitar,6,4,_Remix_Guitar,0.23323291540145874,0
63,100,0.2,770,0,106,_Remix_Guitar,6,3,_Remix_Guitar,0.27058207988739014,0
53,100,0.1,826,0,106,_Remix_Guitar,6,2,_Remix_Guitar,0.3579272925853729,0
53,100,0.2,132,1,107,_Remix_Guitar,6,3,_Remix_Guitar,0.9986506104469299,1
63,100,0.8409090909090909,189,0,107,_Remix_Guitar,6,13,_Remix_Guitar,0.08797570317983627,0
53,100,0.12272727272727273,377,0,107,_Remix_Guitar,6,2,_Remix_Guitar,0.09298361837863922,0
65,100,0.12272727272727273,409,0,107,_Remix_Guitar,6,2,_Remix_Guitar,0.10994422435760498,0
60,100,0.11818181818181818,590,0,107,_Remix_Guitar,6,2,_Remix_Guitar,0.12866735458374023,0
60,100,0.18181818181818182,660,0,107,_Remix_Guitar,6,3,_Remix_Guitar,0.18221323192119598,0
63,100,0.11818181818181818,43,1,108,_Remix_Guitar,6,2,_Remix_Guitar,0.9990280866622925,1
63,100,0.1590909090909091,347,1,108,_Remix_Guitar,6,3,_Remix_Guitar,0.3703438341617584,0
63,100,0.2,386,0,108,_Remix_Guitar,6,3,_Remix_Guitar,0.45618247985839844,0
53,100,0.2,823,1,109,_Remix_Guitar,6,3,_Remix_Guitar,0.9792243838310242,1
53,100,0.16363636363636364,179,1,110,_Remix_Guitar,6,3,_Remix_Guitar,0.9990094900131226,1
53,100,0.2,312,0,110,_Remix_Guitar,6,3,_Remix_Guitar,0.23322254419326782,0
58,100,0.1,360,0,110,_Remix_Guitar,6,2,_Remix_Guitar,0.27057120203971863,0
70,100,0.1,650,1,110,_Remix_Guitar,6,2,_Remix_Guitar,0.35792580246925354,0
63,100,0.41818181818181815,462,1,111,_Remix_Guitar,6,7,_Remix_Guitar,0.979223370552063,1
63,100,0.12272727272727273,386,1,112,_Remix_Guitar,6,2,_Remix_Guitar,0.9792240262031555,1
56,100,0.11818181818181818,9,1,113,_Remix_Guitar,6,2,_Remix_Guitar,0.9984879493713379,1
70,100,0.16363636363636364,267,1,113,_Remix_Guitar,6,3,_Remix_Guitar,0.06335251033306122,0
53,100,0.740909090909091,312,0,113,_Remix_Guitar,6,12,_Remix_Guitar,0.05828649923205376,0
53,100,0.18181818181818182,483,0,113,_Remix_Guitar,6,3,_Remix_Guitar,0.06135983392596245,0
53,100,0.18181818181818182,527,0,113,_Remix_Guitar,6,3,_Remix_Guitar,0.07167849689722061,0
53,100,0.1590909090909091,747,0,113,_Remix_Guitar,6,3,_Remix_Guitar,0.08473163098096848,0
53,100,0.11818181818181818,810,0,113,_Remix_Guitar,6,2,_Remix_Guitar,0.12634529173374176,0
55,100,0.22272727272727272,13,1,114,_Remix_Guitar,6,4,_Remix_Guitar,0.9792243838310242,1
56,100,0.1590909090909091,216,1,115,_Remix_Guitar,6,3,_Remix_Guitar,0.9990094900131226,1
53,100,0.1,650,1,115,_Remix_Guitar,6,2,_Remix_Guitar,0.23323197662830353,0
53,100,0.1409090909090909,747,0,115,_Remix_Guitar,6,2,_Remix_Guitar,0.2705848515033722,0
53,100,0.1590909090909091,857,0,115,_Remix_Guitar,6,3,_Remix_Guitar,0.3579258620738983,0
53,100,0.1590909090909091,30,1,116,_Remix_Guitar,6,3,_Remix_Guitar,0.9983231425285339,1
58,100,0.16363636363636364,69,0,116,_Remix_Guitar,6,3,_Remix_Guitar,0.5462174415588379,1
55,100,0.4,26,1,117,_Remix_Guitar,6,6,_Remix_Guitar,0.9983231425285339,1
55,100,0.3,127,0,117,_Remix_Guitar,6,5,_Remix_Guitar,0.546215832233429,1
58,100,0.3,106,1,118,_Remix_Guitar,6,5,_Remix_Guitar,0.9986507296562195,1
53,100,0.1409090909090909,184,0,118,_Remix_Guitar,6,2,_Remix_Guitar,0.08798064291477203,0
53,100,0.1409090909090909,386,0,118,_Remix_Guitar,6,2,_Remix_Guitar,0.09298470616340637,0
53,100,0.13636363636363635,457,0,118,_Remix_Guitar,6,2,_Remix_Guitar,0.10995065420866013,0
62,100,0.1590909090909091,792,1,118,_Remix_Guitar,6,3,_Remix_Guitar,0.128669872879982,0
62,100,0.37727272727272726,832,0,118,_Remix_Guitar,6,6,_Remix_Guitar,0.18221966922283173,0
55,100,0.38181818181818183,223,1,119,_Remix_Guitar,6,6,_Remix_Guitar,0.9983231425285339,1
53,100,0.12272727272727273,739,1,119,_Remix_Guitar,6,2,_Remix_Guitar,0.5462149381637573,1
60,100,0.2590909090909091,110,1,120,_Remix_Guitar,6,4,_Remix_Guitar,0.9983232617378235,1
53,100,0.1,866,1,120,_Remix_Guitar,6,2,_Remix_Guitar,0.546213686466217,1
53,100,0.38181818181818183,22,1,121,_Remix_Guitar,6,6,_Remix_Guitar,0.9983004927635193,1
53,100,0.18181818181818182,113,0,121,_Remix_Guitar,6,3,_Remix_Guitar,0.0446619875729084,0
58,100,0.8818181818181818,153,0,121,_Remix_Guitar,6,14,_Remix_Guitar,0.0333699993789196,0
53,100,0.18181818181818182,377,0,121,_Remix_Guitar,6,3,_Remix_Guitar,0.02694667875766754,0
53,100,0.3,440,0,121,_Remix_Guitar,6,5,_Remix_Guitar,0.024082327261567116,0
53,100,0.3,519,0,121,_Remix_Guitar,6,5,_Remix_Guitar,0.0249708853662014,0
53,100,0.1590909090909091,637,0,121,_Remix_Guitar,6,3,_Remix_Guitar,0.030645601451396942,0
53,100,0.2409090909090909,752,0,121,_Remix_Guitar,6,4,_Remix_Guitar,0.041366562247276306,0
53,100,0.1409090909090909,826,0,121,_Remix_Guitar,6,2,_Remix_Guitar,0.07206689566373825,0
53,100,0.2409090909090909,0,1,122,_Remix_Guitar,6,4,_Remix_Guitar,0.9990280866622925,1
53,100,0.1409090909090909,56,0,122,_Remix_Guitar,6,2,_Remix_Guitar,0.37033480405807495,0
63,100,0.2818181818181818,729,1,122,_Remix_Guitar,6,5,_Remix_Guitar,0.45616987347602844,0
63,100,0.2772727272727273,722,1,123,_Remix_Guitar,6,4,_Remix_Guitar,0.9792241454124451,1
63,100,0.12272727272727273,312,1,124,_Remix_Guitar,6,2,_Remix_Guitar,0.9990280866622925,1
65,100,0.18181818181818182,637,1,124,_Remix_Guitar,6,3,_Remix_Guitar,0.37033945322036743,0
65,100,0.21818181818181817,682,0,124,_Remix_Guitar,6,3,_Remix_Guitar,0.4561758041381836,0
65,100,0.1409090909090909,286,1,125,_Remix_Guitar,6,2,_Remix_Guitar,0.9792238473892212,1
60,100,0.4409090909090909,87,1,126,_Remix_Guitar,6,7,_Remix_Guitar,0.9990280866622925,1
60,100,0.1,193,0,126,_Remix_Guitar,6,2,_Remix_Guitar,0.3703392446041107,0
63,100,0.1409090909090909,663,1,126,_Remix_Guitar,6,2,_Remix_Guitar,0.45616158843040466,0
58,100,0.17727272727272728,163,1,127,_Remix_Guitar,6,3,_Remix_Guitar,0.9990094900131226,1
63,100,0.21818181818181817,546,1,127,_Remix_Guitar,6,3,_Remix_Guitar,0.23323197662830353,0
58,100,0.2,734,0,127,_Remix_Guitar,6,3,_Remix_Guitar,0.27058669924736023,0
56,100,0.1,876,0,127,_Remix_Guitar,6,2,_Remix_Guitar,0.3579235374927521,0
58,100,0.2,436,1,128,_Remix_Guitar,6,3,_Remix_Guitar,0.9792238473892212,1
53,100,0.1,285,1,130,_Remix_Guitar,6,2,_Remix_Guitar,0.9988439083099365,1
53,100,0.1590909090909091,321,0,130,_Remix_Guitar,6,3,_Remix_Guitar,0.1379794180393219,0
60,100,0.4772727272727273,479,0,130,_Remix_Guitar,6,8,_Remix_Guitar,0.1623619794845581,0
60,100,0.2818181818181818,704,0,130,_Remix_Guitar,6,5,_Remix_Guitar,0.19105815887451172,0
53,100,0.6,773,0,130,_Remix_Guitar,6,10,_Remix_Guitar,0.2619626820087433,0
56,100,0.17727272727272728,39,1,131,_Remix_Guitar,6,3,_Remix_Guitar,0.9990094900131226,1
60,100,0.2590909090909091,338,1,131,_Remix_Guitar,6,4,_Remix_Guitar,0.23323415219783783,0
58,100,0.12272727272727273,400,0,131,_Remix_Guitar,6,2,_Remix_Guitar,0.27058371901512146,0
58,100,0.18181818181818182,431,0,131,_Remix_Guitar,6,3,_Remix_Guitar,0.35792580246925354,0
58,100,0.16363636363636364,751,1,132,_Remix_Guitar,6,3,_Remix_Guitar,0.9792242646217346,1
53,100,0.1409090909090909,603,1,133,_Remix_Guitar,6,2,_Remix_Guitar,0.9983231425285339,1
58,100,0.2772727272727273,831,0,133,_Remix_Guitar,6,4,_Remix_Guitar,0.5462210178375244,1
58,100,0.1409090909090909,30,1,134,_Remix_Guitar,6,2,_Remix_Guitar,0.9983736276626587,1
58,100,0.2636363636363636,70,0,134,_Remix_Guitar,6,4,_Remix_Guitar,0.05104852840304375,0
58,100,0.2409090909090909,273,0,134,_Remix_Guitar,6,4,_Remix_Guitar,0.041611578315496445,0
58,100,0.41818181818181815,352,0,134,_Remix_Guitar,6,7,_Remix_Guitar,0.03797769919037819,0
53,100,0.1,479,0,134,_Remix_Guitar,6,2,_Remix_Guitar,0.039258893579244614,0
53,100,0.1,546,0,134,_Remix_Guitar,6,2,_Remix_Guitar,0.04616297408938408,0
62,100,0.13636363636363635,678,0,134,_Remix_Guitar,6,2,_Remix_Guitar,0.05712854862213135,0
58,100,0.11818181818181818,721,0,134,_Remix_Guitar,6,2,_Remix_Guitar,0.09187622368335724,0
63,100,0.1,694,1,135,_Remix_Guitar,6,2,_Remix_Guitar,0.9983232617378235,1
63,100,0.1409090909090909,747,0,135,_Remix_Guitar,6,2,_Remix_Guitar,0.5462186336517334,1
63,100,0.38181818181818183,840,1,136,_Remix_Guitar,6,6,_Remix_Guitar,0.979223906993866,1
58,100,0.4772727272727273,53,1,138,_Remix_Guitar,6,8,_Remix_Guitar,0.9990094900131226,1
58,100,0.17727272727272728,273,0,138,_Remix_Guitar,6,3,_Remix_Guitar,0.2332318276166916,0
58,100,0.2818181818181818,725,1,138,_Remix_Guitar,6,5,_Remix_Guitar,0.2705800235271454,0
53,100,0.1,796,0,138,_Remix_Guitar,6,2,_Remix_Guitar,0.35792383551597595,0
63,100,0.5,264,1,139,_Remix_Guitar,6,8,_Remix_Guitar,0.9990094900131226,1
55,100,0.12272727272727273,466,0,139,_Remix_Guitar,6,2,_Remix_Guitar,0.23323127627372742,0
53,100,0.12272727272727273,562,0,139,_Remix_Guitar,6,2,_Remix_Guitar,0.2705748975276947,0
53,100,0.11818181818181818,594,0,139,_Remix_Guitar,6,2,_Remix_Guitar,0.35792773962020874,0
53,100,0.1,185,1,140,_Remix_Guitar,6,2,_Remix_Guitar,0.9988439083099365,1
53,100,0.2590909090909091,211,0,140,_Remix_Guitar,6,4,_Remix_Guitar,0.13797979056835175,0
53,100,0.13636363636363635,611,1,140,_Remix_Guitar,6,2,_Remix_Guitar,0.16236311197280884,0
58,100,0.18181818181818182,694,0,140,_Remix_Guitar,6,3,_Remix_Guitar,0.1910620778799057,0
53,100,0.2409090909090909,823,0,140,_Remix_Guitar,6,4,_Remix_Guitar,0.2619630992412567,0
58,100,0.2590909090909091,12,1,141,_Remix_Guitar,6,4,_Remix_Guitar,0.9986506104469299,1
58,100,0.2,75,0,141,_Remix_Guitar,6,3,_Remix_Guitar,0.0879770815372467,0
53,100,0.4,166,0,141,_Remix_Guitar,6,6,_Remix_Guitar,0.09297992289066315,0
53,100,0.35909090909090907,452,1,141,_Remix_Guitar,6,6,_Remix_Guitar,0.10994377732276917,0
53,100,0.1,576,0,141,_Remix_Guitar,6,2,_Remix_Guitar,0.1286664605140686,0
58,100,0.2,660,0,141,_Remix_Guitar,6,3,_Remix_Guitar,0.18220749497413635,0
58,100,0.1409090909090909,818,1,142,_Remix_Guitar,6,2,_Remix_Guitar,0.9792245030403137,1
58,100,0.21818181818181817,436,1,143,_Remix_Guitar,6,3,_Remix_Guitar,0.9792238473892212,1
63,100,0.18181818181818182,871,1,145,_Remix_Guitar,6,3,_Remix_Guitar,0.979223906993866,1
55,100,0.4818181818181818,158,1,146,_Remix_Guitar,6,8,_Remix_Guitar,0.9990280866622925,1
55,100,0.1,342,0,146,_Remix_Guitar,6,2,_Remix_Guitar,0.3703486919403076,0
53,100,0.1,546,0,146,_Remix_Guitar,6,2,_Remix_Guitar,0.45616161823272705,0
59,100,0.1409090909090909,686,1,0,DL_warmFolk_Guitar,6,2,DL_warmFolk_Guitar,0.9792237281799316,1
67,100,0.18181818181818182,0,1,1,DL_warmFolk_Guitar,6,3,DL_warmFolk_Guitar,0.9990280866622925,1
57,100,0.22272727272727272,554,1,1,DL_warmFolk_Guitar,6,4,DL_warmFolk_Guitar,0.3703426122665405,0
56,100,0.1409090909090909,603,0,1,DL_warmFolk_Guitar,6,2,DL_warmFolk_Guitar,0.45616263151168823,0
59,100,0.18181818181818182,672,1,2,DL_warmFolk_Guitar,6,3,DL_warmFolk_Guitar,0.9792236089706421,1
55,100,0.35909090909090907,198,1,3,DL_warmFolk_Guitar,6,6,DL_warmFolk_Guitar,0.9990094900131226,1
61,100,0.1590909090909091,739,1,3,DL_warmFolk_Guitar,6,3,DL_warmFolk_Guitar,0.23322850465774536,0
57,100,0.2590909090909091,782,0,3,DL_warmFolk_Guitar,6,4,DL_warmFolk_Guitar,0.27058374881744385,0
56,100,0.18181818181818182,840,0,3,DL_warmFolk_Guitar,6,3,DL_warmFolk_Guitar,0.3579302430152893,0
64,100,0.22272727272727272,532,1,4,DL_warmFolk_Guitar,6,4,DL_warmFolk_Guitar,0.9983232617378235,1
57,100,0.17727272727272728,655,0,4,DL_warmFolk_Guitar,6,3,DL_warmFolk_Guitar,0.546213686466217,1
57,100,0.1,114,1,5,DL_warmFolk_Guitar,6,2,DL_warmFolk_Guitar,0.9990094900131226,1
55,100,0.1590909090909091,145,0,5,DL_warmFolk_Guitar,6,3,DL_warmFolk_Guitar,0.23323218524456024,0
59,100,0.32272727272727275,268,0,5,DL_warmFolk_Guitar,6,5,DL_warmFolk_Guitar,0.27058491110801697,0
55,100,0.2,435,0,5,DL_warmFolk_Guitar,6,3,DL_warmFolk_Guitar,0.3579300045967102,0
57,100,0.2636363636363636,135,1,6,DL_warmFolk_Guitar,6,4,DL_warmFolk_Guitar,0.9983232617378235,1
56,100,0.2,201,0,6,DL_warmFolk_Guitar,6,3,DL_warmFolk_Guitar,0.5462184548377991,1
54,100,0.5409090909090909,255,1,7,DL_warmFolk_Guitar,6,9,DL_warmFolk_Guitar,0.9983232617378235,1
59,100,0.3,506,1,7,DL_warmFolk_Guitar,6,5,DL_warmFolk_Guitar,0.5462155938148499,1
57,100,0.2818181818181818,378,1,8,DL_warmFolk_Guitar,6,5,DL_warmFolk_Guitar,0.9990280866622925,1
56,100,0.2,440,0,8,DL_warmFolk_Guitar,6,3,DL_warmFolk_Guitar,0.37034282088279724,0
54,100,0.1409090909090909,615,0,8,DL_warmFolk_Guitar,6,2,DL_warmFolk_Guitar,0.4561726450920105,0
62,100,0.22272727272727272,312,1,9,DL_warmFolk_Guitar,6,4,DL_warmFolk_Guitar,0.9986506104469299,1
57,100,0.8772727272727273,369,0,9,DL_warmFolk_Guitar,6,14,DL_warmFolk_Guitar,0.08798027783632278,0
57,100,0.1,572,0,9,DL_warmFolk_Guitar,6,2,DL_warmFolk_Guitar,0.09298615902662277,0
55,100,0.1,615,0,9,DL_warmFolk_Guitar,6,2,DL_warmFolk_Guitar,0.10995284467935562,0
59,100,0.2772727272727273,735,0,9,DL_warmFolk_Guitar,6,4,DL_warmFolk_Guitar,0.12867259979248047,0
62,100,0.2,809,0,9,DL_warmFolk_Guitar,6,3,DL_warmFolk_Guitar,0.18222390115261078,0
55,100,0.21818181818181817,30,1,10,DL_warmFolk_Guitar,6,3,DL_warmFolk_Guitar,0.9990094900131226,1
55,100,0.23636363636363636,106,0,10,DL_warmFolk_Guitar,6,4,DL_warmFolk_Guitar,0.23323354125022888,0
57,100,0.2,527,1,10,DL_warmFolk_Guitar,6,3,DL_warmFolk_Guitar,0.2705763578414917,0
61,100,0.1,694,0,10,DL_warmFolk_Guitar,6,2,DL_warmFolk_Guitar,0.35793155431747437,0
62,100,0.11818181818181818,615,1,12,DL_warmFolk_Guitar,6,2,DL_warmFolk_Guitar,0.9990094900131226,1
57,100,0.1409090909090909,730,0,12,DL_warmFolk_Guitar,6,2,DL_warmFolk_Guitar,0.2332313507795334,0
59,100,0.21818181818181817,787,0,12,DL_warmFolk_Guitar,6,3,DL_warmFolk_Guitar,0.27059367299079895,0
62,100,0.1409090909090909,845,0,12,DL_warmFolk_Guitar,6,2,DL_warmFolk_Guitar,0.35793378949165344,0
57,100,0.2818181818181818,268,1,13,DL_warmFolk_Guitar,6,5,DL_warmFolk_Guitar,0.9990094900131226,1
57,100,0.13636363636363635,414,0,13,DL_warmFolk_Guitar,6,2,DL_warmFolk_Guitar,0.2332381010055542,0
59,100,0.2409090909090909,581,0,13,DL_warmFolk_Guitar,6,4,DL_warmFolk_Guitar,0.2705895006656647,0
61,100,0.2409090909090909,835,1,13,DL_warmFolk_Guitar,6,4,DL_warmFolk_Guitar,0.3579276502132416,0
57,100,0.2,25,1,14,DL_warmFolk_Guitar,6,3,DL_warmFolk_Guitar,0.9990094900131226,1
52,100,0.11818181818181818,87,0,14,DL_warmFolk_Guitar,6,2,DL_warmFolk_Guitar,0.23323379456996918,0
62,100,0.22272727272727272,386,1,14,DL_warmFolk_Guitar,6,4,DL_warmFolk_Guitar,0.27058833837509155,0
55,100,0.1,527,0,14,DL_warmFolk_Guitar,6,2,DL_warmFolk_Guitar,0.35793158411979675,0
57,100,0.5590909090909091,519,1,80,DL_warmFolk_Guitar,6,9,DL_warmFolk_Guitar,0.9990280866622925,1
62,100,0.5590909090909091,646,0,80,DL_warmFolk_Guitar,6,9,DL_warmFolk_Guitar,0.37033793330192566,0
64,100,0.2590909090909091,770,0,80,DL_warmFolk_Guitar,6,4,DL_warmFolk_Guitar,0.4561803340911865,0
69,100,0.1,17,1,81,DL_warmFolk_Guitar,6,2,DL_warmFolk_Guitar,0.9986506104469299,1
71,100,0.6590909090909091,53,0,81,DL_warmFolk_Guitar,6,11,DL_warmFolk_Guitar,0.08798231184482574,0
74,100,0.3181818181818182,206,0,81,DL_warmFolk_Guitar,6,5,DL_warmFolk_Guitar,0.09298864752054214,0
71,100,1.2181818181818183,370,0,81,DL_warmFolk_Guitar,6,15,DL_warmFolk_Guitar,0.10995784401893616,0
69,100,0.5,642,1,81,DL_warmFolk_Guitar,6,8,DL_warmFolk_Guitar,0.12868008017539978,0
69,100,0.5772727272727273,756,0,81,DL_warmFolk_Guitar,6,9,DL_warmFolk_Guitar,0.18223227560520172,0
67,100,0.5590909090909091,9,1,82,DL_warmFolk_Guitar,6,9,DL_warmFolk_Guitar,0.9988439083099365,1
66,100,0.740909090909091,132,0,82,DL_warmFolk_Guitar,6,12,DL_warmFolk_Guitar,0.13798947632312775,0
69,100,0.5590909090909091,316,0,82,DL_warmFolk_Guitar,6,9,DL_warmFolk_Guitar,0.16236865520477295,0
69,100,0.17727272727272728,457,0,82,DL_warmFolk_Guitar,6,3,DL_warmFolk_Guitar,0.1910727322101593,0
62,100,2.9,502,0,82,DL_warmFolk_Guitar,6,15,DL_warmFolk_Guitar,0.2619556784629822,0
74,100,0.2772727272727273,260,1,83,DL_warmFolk_Guitar,6,4,DL_warmFolk_Guitar,0.9984879493713379,1
62,100,0.4818181818181818,320,0,83,DL_warmFolk_Guitar,6,8,DL_warmFolk_Guitar,0.06335563957691193,0
74,100,0.3409090909090909,426,0,83,DL_warmFolk_Guitar,6,5,DL_warmFolk_Guitar,0.058290693908929825,0
76,100,0.1,502,0,83,DL_warmFolk_Guitar,6,2,DL_warmFolk_Guitar,0.0613652765750885,0
74,100,0.4,527,0,83,DL_warmFolk_Guitar,6,6,DL_warmFolk_Guitar,0.07168824225664139,0
78,100,1.018181818181818,624,0,83,DL_warmFolk_Guitar,6,15,DL_warmFolk_Guitar,0.08474402874708176,0
74,100,0.5181818181818182,876,1,83,DL_warmFolk_Guitar,6,8,DL_warmFolk_Guitar,0.12636402249336243,0
76,100,0.5818181818181818,113,1,84,DL_warmFolk_Guitar,6,9,DL_warmFolk_Guitar,0.9984880685806274,1
73,100,0.5409090909090909,242,0,84,DL_warmFolk_Guitar,6,9,DL_warmFolk_Guitar,0.06335462629795074,0
78,100,0.8227272727272728,365,0,84,DL_warmFolk_Guitar,6,13,DL_warmFolk_Guitar,0.05829109996557236,0
74,100,0.1,550,0,84,DL_warmFolk_Guitar,6,2,DL_warmFolk_Guitar,0.061364687979221344,0
76,100,0.35909090909090907,572,0,84,DL_warmFolk_Guitar,6,6,DL_warmFolk_Guitar,0.07168992608785629,0
78,100,0.1590909090909091,690,0,84,DL_warmFolk_Guitar,6,3,DL_warmFolk_Guitar,0.08474398404359818,0
74,100,2.8181818181818183,734,0,84,DL_warmFolk_Guitar,6,15,DL_warmFolk_Guitar,0.12635380029678345,0
78,100,0.5590909090909091,527,1,85,DL_warmFolk_Guitar,6,9,DL_warmFolk_Guitar,0.9990094900131226,1
57,100,0.5409090909090909,713,0,85,DL_warmFolk_Guitar,6,9,DL_warmFolk_Guitar,0.23323281109333038,0
69,100,0.11818181818181818,832,0,85,DL_warmFolk_Guitar,6,2,DL_warmFolk_Guitar,0.2705860733985901,0
74,100,0.38181818181818183,870,0,85,DL_warmFolk_Guitar,6,6,DL_warmFolk_Guitar,0.3579321801662445,0
76,100,0.1590909090909091,96,1,86,DL_warmFolk_Guitar,6,3,DL_warmFolk_Guitar,0.9983004927635193,1
57,100,0.38181818181818183,132,0,86,DL_warmFolk_Guitar,6,6,DL_warmFolk_Guitar,0.04466318339109421,0
69,100,0.6,216,0,86,DL_warmFolk_Guitar,6,10,DL_warmFolk_Guitar,0.033372875303030014,0
74,100,0.5,352,0,86,DL_warmFolk_Guitar,6,8,DL_warmFolk_Guitar,0.026948748156428337,0
76,100,0.18181818181818182,466,0,86,DL_warmFolk_Guitar,6,3,DL_warmFolk_Guitar,0.02408655360341072,0
78,100,0.3,514,0,86,DL_warmFolk_Guitar,6,5,DL_warmFolk_Guitar,0.02497483231127262,0
76,100,0.9,590,0,86,DL_warmFolk_Guitar,6,14,DL_warmFolk_Guitar,0.030649695545434952,0
81,100,0.3181818181818182,792,0,86,DL_warmFolk_Guitar,6,5,DL_warmFolk_Guitar,0.041371800005435944,0
57,100,0.4409090909090909,862,0,86,DL_warmFolk_Guitar,6,7,DL_warmFolk_Guitar,0.07207274436950684,0
74,100,1.1409090909090909,87,1,87,DL_warmFolk_Guitar,6,15,DL_warmFolk_Guitar,0.9986506104469299,1
66,100,0.2818181818181818,343,1,87,DL_warmFolk_Guitar,6,5,DL_warmFolk_Guitar,0.08798103034496307,0
66,100,0.7772727272727272,470,0,87,DL_warmFolk_Guitar,6,12,DL_warmFolk_Guitar,0.09298322349786758,0
66,100,0.12272727272727273,695,0,87,DL_warmFolk_Guitar,6,2,DL_warmFolk_Guitar,0.1099504753947258,0
62,100,0.43636363636363634,722,0,87,DL_warmFolk_Guitar,6,7,DL_warmFolk_Guitar,0.12867014110088348,0
64,100,0.740909090909091,836,0,87,DL_warmFolk_Guitar,6,12,DL_warmFolk_Guitar,0.1822195202112198,0
66,100,0.6,132,1,88,DL_warmFolk_Guitar,6,10,DL_warmFolk_Guitar,0.9986507296562195,1
61,100,0.5590909090909091,299,0,88,DL_warmFolk_Guitar,6,9,DL_warmFolk_Guitar,0.08798003941774368,0
62,100,0.32272727272727275,453,0,88,DL_warmFolk_Guitar,6,5,DL_warmFolk_Guitar,0.09298723936080933,0
62,100,0.1590909090909091,536,0,88,DL_warmFolk_Guitar,6,3,DL_warmFolk_Guitar,0.10995728522539139,0
61,100,0.5590909090909091,572,0,88,DL_warmFolk_Guitar,6,9,DL_warmFolk_Guitar,0.12867741286754608,0
62,100,2.459090909090909,700,0,88,DL_warmFolk_Guitar,6,15,DL_warmFolk_Guitar,0.1822253167629242,0
55,100,0.2590909090909091,475,1,0,_Guitar,6,4,_Guitar,0.9990094900131226,1
52,100,0.1590909090909091,704,0,0,_Guitar,6,3,_Guitar,0.23323091864585876,0
52,100,0.17727272727272728,757,0,0,_Guitar,6,3,_Guitar,0.27058279514312744,0
55,100,0.35909090909090907,871,0,0,_Guitar,6,6,_Guitar,0.35792994499206543,0
55,100,0.18181818181818182,597,1,1,_Guitar,6,3,_Guitar,0.9983232617378235,1
55,100,0.3,642,0,1,_Guitar,6,5,_Guitar,0.5462172627449036,1
55,100,0.11818181818181818,339,1,2,_Guitar,6,2,_Guitar,0.9983232617378235,1
60,100,0.2590909090909091,474,0,2,_Guitar,6,4,_Guitar,0.5462166666984558,1
55,100,0.32272727272727275,136,1,3,_Guitar,6,5,_Guitar,0.9988439083099365,1
53,100,0.2590909090909091,351,0,3,_Guitar,6,4,_Guitar,0.13798271119594574,0
53,100,0.1409090909090909,537,0,3,_Guitar,6,2,_Guitar,0.16236695647239685,0
57,100,0.5,571,0,3,_Guitar,6,8,_Guitar,0.19105856120586395,0
57,100,0.2590909090909091,703,0,3,_Guitar,6,4,_Guitar,0.2619692385196686,0
57,100,0.1590909090909091,61,1,4,_Guitar,6,3,_Guitar,0.9986506104469299,1
53,100,0.35909090909090907,101,0,4,_Guitar,6,6,_Guitar,0.08797995746135712,0
52,100,0.2,179,0,4,_Guitar,6,3,_Guitar,0.09298603236675262,0
52,100,0.2,238,0,4,_Guitar,6,3,_Guitar,0.10995129495859146,0
55,100,0.1409090909090909,317,0,4,_Guitar,6,2,_Guitar,0.12867280840873718,0
60,100,0.4,496,0,4,_Guitar,6,6,_Guitar,0.18221895396709442,0
57,100,0.5,317,1,5,_Guitar,6,8,_Guitar,0.9983232617378235,1
55,100,1.0,744,1,5,_Guitar,6,15,_Guitar,0.5462126731872559,1
55,100,0.1409090909090909,135,1,6,_Guitar,6,2,_Guitar,0.9990280866622925,1
52,100,0.5590909090909091,352,0,6,_Guitar,6,9,_Guitar,0.37034130096435547,0
55,100,1.3818181818181818,483,0,6,_Guitar,6,15,_Guitar,0.4561680853366852,0
55,100,0.8590909090909091,220,1,7,_Guitar,6,14,_Guitar,0.9792237281799316,1
52,100,0.7181818181818181,250,1,8,_Guitar,6,11,_Guitar,0.9986506104469299,1
55,100,0.33636363636363636,436,0,8,_Guitar,6,5,_Guitar,0.08798041194677353,0
55,100,0.1590909090909091,515,0,8,_Guitar,6,3,_Guitar,0.09298652410507202,0
57,100,0.7772727272727272,567,0,8,_Guitar,6,12,_Guitar,0.10994955152273178,0
57,100,0.4,744,0,8,_Guitar,6,6,_Guitar,0.1286729872226715,0
53,100,0.759090909090909,871,0,8,_Guitar,6,12,_Guitar,0.18222004175186157,0
53,100,0.18181818181818182,166,1,9,_Guitar,6,3,_Guitar,0.9990280866622925,1
53,100,0.11818181818181818,259,0,9,_Guitar,6,2,_Guitar,0.37034887075424194,0
57,100,1.3590909090909091,295,0,9,_Guitar,6,15,_Guitar,0.45615527033805847,0
52,100,0.6818181818181818,44,1,10,_Guitar,6,11,_Guitar,0.9983232617378235,1
55,100,0.9818181818181818,660,1,10,_Guitar,6,15,_Guitar,0.546212375164032,1
55,100,0.3,0,1,11,_Guitar,6,5,_Guitar,0.9984879493713379,1
52,100,0.6181818181818182,228,0,11,_Guitar,6,10,_Guitar,0.06335383653640747,0
55,100,0.4590909090909091,383,0,11,_Guitar,6,7,_Guitar,0.0582893043756485,0
55,100,0.11818181818181818,493,0,11,_Guitar,6,2,_Guitar,0.06136389821767807,0
53,100,0.3181818181818182,646,0,11,_Guitar,6,5,_Guitar,0.07168283313512802,0
57,100,0.2409090909090909,783,0,11,_Guitar,6,4,_Guitar,0.08473695069551468,0
53,100,0.18181818181818182,849,0,11,_Guitar,6,3,_Guitar,0.1263551265001297,0
55,100,0.1,352,1,12,_Guitar,6,2,_Guitar,0.9990094900131226,1
55,100,0.38181818181818183,462,0,12,_Guitar,6,6,_Guitar,0.23323768377304077,0
55,100,0.21818181818181817,634,0,12,_Guitar,6,3,_Guitar,0.270579993724823,0
55,100,0.4,871,1,12,_Guitar,6,6,_Guitar,0.3579232394695282,0
52,100,0.21818181818181817,110,1,13,_Guitar,6,3,_Guitar,0.9990094900131226,1
52,100,0.6,171,0,13,_Guitar,6,10,_Guitar,0.23322716355323792,0
60,100,0.32272727272727275,321,0,13,_Guitar,6,5,_Guitar,0.270583838224411,0
55,100,0.2409090909090909,663,1,13,_Guitar,6,4,_Guitar,0.35792213678359985,0
57,100,0.35909090909090907,206,1,14,_Guitar,6,6,_Guitar,0.9990094900131226,1
60,100,0.2818181818181818,386,0,14,_Guitar,6,5,_Guitar,0.23323968052864075,0
53,100,0.21818181818181817,493,0,14,_Guitar,6,3,_Guitar,0.2705872654914856,0
62,100,0.37727272727272726,546,0,14,_Guitar,6,6,_Guitar,0.35793209075927734,0
52,100,0.35909090909090907,189,1,15,_Guitar,6,6,_Guitar,0.9990280866622925,1
64,100,0.2,716,1,15,_Guitar,6,3,_Guitar,0.370332270860672,0
64,100,0.1,766,0,15,_Guitar,6,2,_Guitar,0.4561777114868164,0
57,100,0.3181818181818182,281,1,16,_Guitar,6,5,_Guitar,0.9990094900131226,1
52,100,0.2,598,1,16,_Guitar,6,3,_Guitar,0.23323698341846466,0
52,100,0.18181818181818182,650,0,16,_Guitar,6,3,_Guitar,0.2705880105495453,0
57,100,0.12272727272727273,804,0,16,_Guitar,6,2,_Guitar,0.35793396830558777,0
59,100,1.2,9,1,17,_Guitar,6,15,_Guitar,0.9990280866622925,1
53,100,0.18181818181818182,285,1,17,_Guitar,6,3,_Guitar,0.37034058570861816,0
57,100,0.21818181818181817,470,0,17,_Guitar,6,3,_Guitar,0.456167072057724,0
56,100,0.7181818181818181,656,1,18,_Guitar,6,11,_Guitar,0.9792234897613525,1
56,100,0.2409090909090909,88,1,19,_Guitar,6,4,_Guitar,0.9983231425285339,1
56,100,0.8590909090909091,144,0,19,_Guitar,6,14,_Guitar,0.5462137460708618,1
57,100,0.18181818181818182,88,1,20,_Guitar,6,3,_Guitar,0.9792240262031555,1
55,100,0.2590909090909091,131,1,22,_Guitar,6,4,_Guitar,0.9988439083099365,1
55,100,0.3409090909090909,210,0,22,_Guitar,6,5,_Guitar,0.13798734545707703,0
55,100,0.1409090909090909,333,0,22,_Guitar,6,2,_Guitar,0.16236263513565063,0
55,100,0.5409090909090909,405,0,22,_Guitar,6,9,_Guitar,0.19105377793312073,0
52,100,0.33636363636363636,831,1,22,_Guitar,6,5,_Guitar,0.26195865869522095,0
52,100,0.2590909090909091,61,1,23,_Guitar,6,4,_Guitar,0.9984879493713379,1
52,100,0.5590909090909091,123,0,23,_Guitar,6,9,_Guitar,0.06335324048995972,0
52,100,0.2818181818181818,277,0,23,_Guitar,6,5,_Guitar,0.05829065293073654,0
55,100,0.32272727272727275,356,0,23,_Guitar,6,5,_Guitar,0.06136316806077957,0
52,100,0.3409090909090909,426,0,23,_Guitar,6,5,_Guitar,0.07168716937303543,0
55,100,0.5181818181818182,581,0,23,_Guitar,6,8,_Guitar,0.08473659306764603,0
55,100,0.37727272727272726,779,0,23,_Guitar,6,6,_Guitar,0.12635549902915955,0
55,100,0.16363636363636364,113,1,24,_Guitar,6,3,_Guitar,0.9983004927635193,1
55,100,0.22272727272727272,246,0,24,_Guitar,6,4,_Guitar,0.04466148838400841,0
53,100,0.4409090909090909,308,0,24,_Guitar,6,7,_Guitar,0.03337075561285019,0
53,100,0.4,430,0,24,_Guitar,6,6,_Guitar,0.02694707177579403,0
53,100,0.4,594,0,24,_Guitar,6,6,_Guitar,0.02408314310014248,0
57,100,0.3,694,0,24,_Guitar,6,5,_Guitar,0.02497202344238758,0
53,100,0.2,770,0,24,_Guitar,6,3,_Guitar,0.03064645268023014,0
57,100,0.1,822,0,24,_Guitar,6,2,_Guitar,0.041366733610630035,0
53,100,0.1590909090909091,853,0,24,_Guitar,6,3,_Guitar,0.07206927239894867,0
55,100,0.5636363636363636,69,1,25,_Guitar,6,9,_Guitar,0.9983735084533691,1
52,100,0.12272727272727273,210,0,25,_Guitar,6,2,_Guitar,0.05105126276612282,0
52,100,0.17727272727272728,250,0,25,_Guitar,6,3,_Guitar,0.041611939668655396,0
52,100,0.21818181818181817,374,0,25,_Guitar,6,3,_Guitar,0.037980157881975174,0
52,100,0.1,457,0,25,_Guitar,6,2,_Guitar,0.0392630510032177,0
55,100,0.11818181818181818,492,0,25,_Guitar,6,2,_Guitar,0.04616765305399895,0
52,100,0.6227272727272727,663,0,25,_Guitar,6,10,_Guitar,0.05713630095124245,0
57,100,0.3,839,0,25,_Guitar,6,5,_Guitar,0.09188318997621536,0
52,100,0.18181818181818182,443,1,26,_Guitar,6,3,_Guitar,0.9990094900131226,1
52,100,0.35909090909090907,501,0,26,_Guitar,6,6,_Guitar,0.23322710394859314,0
52,100,0.42272727272727273,752,1,26,_Guitar,6,7,_Guitar,0.270578533411026,0
52,100,0.5818181818181818,862,0,26,_Guitar,6,9,_Guitar,0.3579317033290863,0
53,100,0.12272727272727273,123,1,27,_Guitar,6,2,_Guitar,0.9984879493713379,1
53,100,0.2818181818181818,154,0,27,_Guitar,6,5,_Guitar,0.06335083395242691,0
53,100,0.2590909090909091,220,0,27,_Guitar,6,4,_Guitar,0.0582866370677948,0
53,100,0.4590909090909091,413,0,27,_Guitar,6,7,_Guitar,0.06135781109333038,0
57,100,0.1590909090909091,615,0,27,_Guitar,6,3,_Guitar,0.07167796045541763,0
53,100,0.2818181818181818,660,0,27,_Guitar,6,5,_Guitar,0.08473000675439835,0
55,100,0.1,791,0,27,_Guitar,6,2,_Guitar,0.12634330987930298,0
55,100,0.11818181818181818,285,1,28,_Guitar,6,2,_Guitar,0.9990094900131226,1
52,100,0.11818181818181818,470,0,28,_Guitar,6,2,_Guitar,0.23322804272174835,0
52,100,0.2,717,1,28,_Guitar,6,3,_Guitar,0.2705802917480469,0
52,100,0.3409090909090909,773,0,28,_Guitar,6,5,_Guitar,0.35793307423591614,0
55,100,0.1590909090909091,17,1,29,_Guitar,6,3,_Guitar,0.9986506104469299,1
55,100,0.5,206,0,29,_Guitar,6,8,_Guitar,0.08797933161258698,0
55,100,0.3181818181818182,426,0,29,_Guitar,6,5,_Guitar,0.09298345446586609,0
62,100,0.1409090909090909,584,0,29,_Guitar,6,2,_Guitar,0.10994870960712433,0
55,100,0.11818181818181818,735,0,29,_Guitar,6,2,_Guitar,0.12867090106010437,0
53,100,0.3,818,0,29,_Guitar,6,5,_Guitar,0.1822180598974228,0
53,100,0.2818181818181818,92,1,30,_Guitar,6,5,_Guitar,0.9988439083099365,1
53,100,0.32272727272727275,223,0,30,_Guitar,6,5,_Guitar,0.13797925412654877,0
53,100,0.37727272727272726,303,0,30,_Guitar,6,6,_Guitar,0.1623586118221283,0
53,100,0.11818181818181818,413,0,30,_Guitar,6,2,_Guitar,0.19105485081672668,0
53,100,0.32272727272727275,474,0,30,_Guitar,6,5,_Guitar,0.26195427775382996,0
52,100,0.1590909090909091,285,1,31,_Guitar,6,3,_Guitar,0.9986506104469299,1
52,100,0.1,333,0,31,_Guitar,6,2,_Guitar,0.08798091113567352,0
52,100,0.5,430,0,31,_Guitar,6,8,_Guitar,0.09298834204673767,0
52,100,0.8409090909090909,576,0,31,_Guitar,6,13,_Guitar,0.10995835810899734,0
57,100,0.1590909090909091,760,0,31,_Guitar,6,3,_Guitar,0.1286792904138565,0
57,100,0.11818181818181818,801,0,31,_Guitar,6,2,_Guitar,0.18222679197788239,0
62,100,0.13636363636363635,348,1,32,_Guitar,6,2,_Guitar,0.9983232617378235,1
55,100,0.7181818181818181,778,1,32,_Guitar,6,11,_Guitar,0.5462154746055603,1
55,100,0.11818181818181818,206,1,33,_Guitar,6,2,_Guitar,0.9986506104469299,1
52,100,0.2,295,0,33,_Guitar,6,3,_Guitar,0.08797968924045563,0
52,100,0.2,461,0,33,_Guitar,6,3,_Guitar,0.09298551827669144,0
52,100,0.1,691,0,33,_Guitar,6,2,_Guitar,0.10995317995548248,0
67,100,0.1590909090909091,783,0,33,_Guitar,6,3,_Guitar,0.12867216765880585,0
55,100,0.5409090909090909,818,0,33,_Guitar,6,9,_Guitar,0.18222276866436005,0
60,100,0.1409090909090909,541,1,34,_Guitar,6,2,_Guitar,0.9983232617378235,1
55,100,0.18181818181818182,871,1,34,_Guitar,6,3,_Guitar,0.5462156534194946,1
62,100,1.018181818181818,141,1,35,_Guitar,6,15,_Guitar,0.9988439083099365,1
57,100,0.16363636363636364,444,1,35,_Guitar,6,3,_Guitar,0.13798904418945312,0
57,100,0.4,660,0,35,_Guitar,6,6,_Guitar,0.16236983239650726,0
60,100,0.11818181818181818,765,0,35,_Guitar,6,2,_Guitar,0.1910688281059265,0
57,100,0.12272727272727273,826,0,35,_Guitar,6,2,_Guitar,0.261972039937973,0
57,100,0.22272727272727272,26,1,36,_Guitar,6,4,_Guitar,0.9983231425285339,1
62,100,0.3409090909090909,554,1,36,_Guitar,6,5,_Guitar,0.546219527721405,1
53,100,0.11818181818181818,220,1,37,_Guitar,6,2,_Guitar,0.9990280866622925,1
52,100,0.13636363636363635,700,1,37,_Guitar,6,2,_Guitar,0.37034085392951965,0
52,100,0.3181818181818182,866,0,37,_Guitar,6,5,_Guitar,0.4561740458011627,0
52,100,0.3409090909090909,96,1,38,_Guitar,6,5,_Guitar,0.9984879493713379,1
60,100,0.4,171,0,38,_Guitar,6,6,_Guitar,0.06335600465536118,0
57,100,0.35909090909090907,260,0,38,_Guitar,6,6,_Guitar,0.058290258049964905,0
57,100,0.740909090909091,386,0,38,_Guitar,6,12,_Guitar,0.061364494264125824,0
62,100,0.3181818181818182,646,1,38,_Guitar,6,5,_Guitar,0.07168535143136978,0
57,100,0.12272727272727273,738,0,38,_Guitar,6,2,_Guitar,0.08473876863718033,0
53,100,0.3181818181818182,810,0,38,_Guitar,6,5,_Guitar,0.12635603547096252,0
62,100,0.17727272727272728,361,1,39,_Guitar,6,3,_Guitar,0.9990280866622925,1
59,100,0.2,471,0,39,_Guitar,6,3,_Guitar,0.37033915519714355,0
52,100,0.6227272727272727,774,1,39,_Guitar,6,10,_Guitar,0.45617997646331787,0
60,100,0.5181818181818182,75,1,40,_Guitar,6,8,_Guitar,0.9988439083099365,1
52,100,0.2818181818181818,201,0,40,_Guitar,6,5,_Guitar,0.13798658549785614,0
55,100,0.13636363636363635,303,0,40,_Guitar,6,2,_Guitar,0.1623636931180954,0
55,100,0.2409090909090909,488,0,40,_Guitar,6,4,_Guitar,0.19105930626392365,0
55,100,0.36363636363636365,796,1,40,_Guitar,6,6,_Guitar,0.26196181774139404,0
67,100,0.2,0,1,41,_Guitar,6,3,_Guitar,0.9990094900131226,1
60,100,0.6409090909090909,396,1,41,_Guitar,6,10,_Guitar,0.23323555290699005,0
57,100,0.12272727272727273,541,0,41,_Guitar,6,2,_Guitar,0.2705845236778259,0
57,100,0.33636363636363636,611,0,41,_Guitar,6,5,_Guitar,0.35792818665504456,0
62,100,0.3,211,1,42,_Guitar,6,5,_Guitar,0.9988439083099365,1
57,100,0.6590909090909091,426,0,42,_Guitar,6,11,_Guitar,0.13798673450946808,0
57,100,0.41818181818181815,633,0,42,_Guitar,6,7,_Guitar,0.1623692363500595,0
60,100,0.16363636363636364,751,0,42,_Guitar,6,3,_Guitar,0.19106610119342804,0
60,100,0.22272727272727272,839,0,42,_Guitar,6,4,_Guitar,0.2619742155075073,0
60,100,0.38181818181818183,43,1,43,_Guitar,6,6,_Guitar,0.9990280866622925,1
55,100,0.3181818181818182,383,1,43,_Guitar,6,5,_Guitar,0.3703356981277466,0
55,100,0.16363636363636364,509,0,43,_Guitar,6,3,_Guitar,0.4561693072319031,0
52,100,0.4818181818181818,48,1,44,_Guitar,6,8,_Guitar,0.9986506104469299,1
60,100,0.18181818181818182,351,1,44,_Guitar,6,3,_Guitar,0.08798278868198395,0
60,100,0.2818181818181818,408,0,44,_Guitar,6,5,_Guitar,0.0929923877120018,0
55,100,0.3181818181818182,515,0,44,_Guitar,6,5,_Guitar,0.10995539277791977,0
55,100,0.2590909090909091,616,0,44,_Guitar,6,4,_Guitar,0.12867489457130432,0
52,100,1.7,678,0,44,_Guitar,6,15,_Guitar,0.182221457362175,0
60,100,0.12272727272727273,201,1,45,_Guitar,6,2,_Guitar,0.9990280866622925,1
53,100,0.11818181818181818,238,0,45,_Guitar,6,2,_Guitar,0.37032824754714966,0
53,100,0.18181818181818182,791,1,45,_Guitar,6,3,_Guitar,0.45616161823272705,0
59,100,0.8227272727272728,276,1,46,_Guitar,6,13,_Guitar,0.9983231425285339,1
52,100,0.8,581,1,46,_Guitar,6,13,_Guitar,0.5462151765823364,1
52,100,0.2772727272727273,31,1,47,_Guitar,6,4,_Guitar,0.9983231425285339,1
62,100,0.9,105,0,47,_Guitar,6,14,_Guitar,0.5462163686752319,1
53,100,0.2636363636363636,686,1,50,_Guitar,6,4,_Guitar,0.9983231425285339,1
53,100,1.4,748,0,50,_Guitar,6,15,_Guitar,0.546212375164032,1
60,100,0.759090909090909,185,1,51,_Guitar,6,12,_Guitar,0.9990280866622925,1
53,100,0.4,391,0,51,_Guitar,6,6,_Guitar,0.37033554911613464,0
59,100,0.4409090909090909,550,0,51,_Guitar,6,7,_Guitar,0.4561659097671509,0
55,100,0.1,276,1,52,_Guitar,6,2,_Guitar,0.9990280866622925,1
52,100,1.0818181818181818,528,1,52,_Guitar,6,15,_Guitar,0.37033945322036743,0
52,100,0.5818181818181818,826,1,52,_Guitar,6,9,_Guitar,0.4561716616153717,0
52,100,0.1590909090909091,96,1,53,_Guitar,6,3,_Guitar,0.9986506104469299,1
52,100,0.22272727272727272,166,0,53,_Guitar,6,4,_Guitar,0.08798173815011978,0
60,100,0.4590909090909091,308,0,53,_Guitar,6,7,_Guitar,0.09298788011074066,0
55,100,0.2772727272727273,493,0,53,_Guitar,6,4,_Guitar,0.10995467007160187,0
57,100,0.18181818181818182,703,0,53,_Guitar,6,3,_Guitar,0.12867459654808044,0
57,100,0.21818181818181817,770,0,53,_Guitar,6,3,_Guitar,0.18222256004810333,0
57,100,0.18181818181818182,616,1,54,_Guitar,6,3,_Guitar,0.9792234897613525,1
55,100,0.4590909090909091,383,1,55,_Guitar,6,7,_Guitar,0.9792238473892212,1
57,100,0.1409090909090909,541,1,56,_Guitar,6,2,_Guitar,0.979223906993866,1
57,100,1.0818181818181818,748,1,57,_Guitar,6,15,_Guitar,0.9792230129241943,1
55,100,0.18181818181818182,399,1,58,_Guitar,6,3,_Guitar,0.9990280866622925,1
55,100,0.11818181818181818,506,0,58,_Guitar,6,2,_Guitar,0.37034377455711365,0
55,100,1.9227272727272726,598,0,58,_Guitar,6,15,_Guitar,0.4561573266983032,0
53,100,0.8181818181818182,193,1,59,_Guitar,6,13,_Guitar,0.9990094900131226,1
60,100,0.2590909090909091,418,0,59,_Guitar,6,4,_Guitar,0.23323732614517212,0
55,100,1.2181818181818183,506,0,59,_Guitar,6,15,_Guitar,0.2705698013305664,0
52,100,0.18181818181818182,813,1,59,_Guitar,6,3,_Guitar,0.3579294681549072,0
57,100,0.4,0,1,61,_Guitar,6,6,_Guitar,0.9792241454124451,1
55,100,0.12272727272727273,861,1,62,_Guitar,6,2,_Guitar,0.9792245030403137,1
55,100,0.7181818181818181,370,1,63,_Guitar,6,11,_Guitar,0.9990094900131226,1
55,100,0.13636363636363635,633,1,63,_Guitar,6,2,_Guitar,0.2332390546798706,0
55,100,0.6772727272727272,668,0,63,_Guitar,6,11,_Guitar,0.27058109641075134,0
55,100,0.6181818181818182,823,0,63,_Guitar,6,10,_Guitar,0.3579288423061371,0
55,100,0.1,96,1,64,_Guitar,6,2,_Guitar,0.9792241454124451,1
52,100,0.11818181818181818,197,1,65,_Guitar,6,2,_Guitar,0.9982556700706482,1
52,100,0.1,250,0,65,_Guitar,6,2,_Guitar,0.04129359871149063,0
57,100,0.13636363636363635,282,0,65,_Guitar,6,2,_Guitar,0.02912483550608158,0
55,100,0.1590909090909091,457,0,65,_Guitar,6,3,_Guitar,0.021570300683379173,0
55,100,0.1409090909090909,496,0,65,_Guitar,6,2,_Guitar,0.017058920115232468,0
55,100,0.18181818181818182,540,0,65,_Guitar,6,3,_Guitar,0.015268383547663689,0
55,100,0.11818181818181818,590,0,65,_Guitar,6,2,_Guitar,0.01645573042333126,0
55,100,0.5409090909090909,619,0,65,_Guitar,6,9,_Guitar,0.02183668315410614,0
55,100,0.11818181818181818,756,0,65,_Guitar,6,2,_Guitar,0.03251812607049942,0
52,100,0.5363636363636364,787,0,65,_Guitar,6,9,_Guitar,0.06091192364692688,0
55,100,0.4818181818181818,35,1,66,_Guitar,6,8,_Guitar,0.9988439083099365,1
53,100,0.2590909090909091,184,0,66,_Guitar,6,4,_Guitar,0.13798078894615173,0
53,100,0.2772727272727273,470,1,66,_Guitar,6,4,_Guitar,0.16235759854316711,0
53,100,0.2409090909090909,572,0,66,_Guitar,6,4,_Guitar,0.19105061888694763,0
55,100,0.41818181818181815,726,0,66,_Guitar,6,7,_Guitar,0.2619561553001404,0
52,100,0.12272727272727273,13,1,67,_Guitar,6,2,_Guitar,0.9990280866622925,1
55,100,0.1590909090909091,66,0,67,_Guitar,6,3,_Guitar,0.37034672498703003,0
57,100,0.6818181818181818,540,1,67,_Guitar,6,11,_Guitar,0.45616668462753296,0
62,100,0.1409090909090909,66,1,68,_Guitar,6,2,_Guitar,0.9983231425285339,1
57,100,0.3,110,0,68,_Guitar,6,5,_Guitar,0.5462166666984558,1
52,100,0.3,330,1,69,_Guitar,6,5,_Guitar,0.9990094900131226,1
57,100,0.12272727272727273,475,0,69,_Guitar,6,2,_Guitar,0.23323403298854828,0
55,100,0.1409090909090909,624,0,69,_Guitar,6,2,_Guitar,0.2705909311771393,0
55,100,0.6772727272727272,756,0,69,_Guitar,6,11,_Guitar,0.35793110728263855,0
52,100,0.759090909090909,35,1,70,_Guitar,6,12,_Guitar,0.9988439083099365,1
55,100,0.37727272727272726,229,0,70,_Guitar,6,6,_Guitar,0.13797913491725922,0
53,100,0.41818181818181815,347,0,70,_Guitar,6,7,_Guitar,0.16235791146755219,0
60,100,0.1590909090909091,457,0,70,_Guitar,6,3,_Guitar,0.19105903804302216,0
53,100,0.11818181818181818,590,0,70,_Guitar,6,2,_Guitar,0.2619537115097046,0
52,100,0.6409090909090909,92,1,71,_Guitar,6,10,_Guitar,0.9990280866622925,1
55,100,0.3409090909090909,550,1,71,_Guitar,6,5,_Guitar,0.37033894658088684,0
55,100,0.2409090909090909,629,0,71,_Guitar,6,4,_Guitar,0.45616868138313293,0
57,100,0.5818181818181818,3,1,72,_Guitar,6,9,_Guitar,0.9983004927635193,1
57,100,0.4,202,0,72,_Guitar,6,6,_Guitar,0.044662415981292725,0
52,100,0.1,316,0,72,_Guitar,6,2,_Guitar,0.033372584730386734,0
52,100,0.3409090909090909,426,0,72,_Guitar,6,5,_Guitar,0.026949269697070122,0
55,100,0.2409090909090909,509,0,72,_Guitar,6,4,_Guitar,0.02408461645245552,0
52,100,0.1409090909090909,585,0,72,_Guitar,6,2,_Guitar,0.024973653256893158,0
52,100,0.4590909090909091,633,0,72,_Guitar,6,7,_Guitar,0.030648574233055115,0
52,100,0.12272727272727273,817,0,72,_Guitar,6,2,_Guitar,0.04136955365538597,0
52,100,0.12272727272727273,849,0,72,_Guitar,6,2,_Guitar,0.07207005470991135,0
53,100,0.5409090909090909,166,1,73,_Guitar,6,9,_Guitar,0.9990280866622925,1
53,100,0.18181818181818182,487,1,73,_Guitar,6,3,_Guitar,0.37034663558006287,0
53,100,0.6,783,1,73,_Guitar,6,10,_Guitar,0.4561629295349121,0
53,100,0.7181818181818181,43,1,74,_Guitar,6,11,_Guitar,0.9986506104469299,1
53,100,0.5409090909090909,242,0,74,_Guitar,6,9,_Guitar,0.08797762542963028,0
53,100,0.2,502,1,74,_Guitar,6,3,_Guitar,0.0929819718003273,0
53,100,0.2818181818181818,593,0,74,_Guitar,6,5,_Guitar,0.10994935780763626,0
57,100,0.5181818181818182,690,0,74,_Guitar,6,8,_Guitar,0.1286662518978119,0
53,100,0.3,817,0,74,_Guitar,6,5,_Guitar,0.18222133815288544,0
53,100,0.2409090909090909,92,1,75,_Guitar,6,4,_Guitar,0.9986506104469299,1
53,100,0.2636363636363636,223,0,75,_Guitar,6,4,_Guitar,0.08797848224639893,0
64,100,0.2772727272727273,326,0,75,_Guitar,6,4,_Guitar,0.09298313409090042,0
53,100,0.4772727272727273,392,0,75,_Guitar,6,8,_Guitar,0.10994719713926315,0
53,100,0.2,532,0,75,_Guitar,6,3,_Guitar,0.12867014110088348,0
53,100,0.6818181818181818,686,0,75,_Guitar,6,11,_Guitar,0.18221160769462585,0
55,100,0.2590909090909091,62,1,76,_Guitar,6,4,_Guitar,0.9792242646217346,1
64,100,0.6772727272727272,119,1,77,_Guitar,6,11,_Guitar,0.9986506104469299,1
55,100,0.2590909090909091,457,1,77,_Guitar,6,4,_Guitar,0.08798064291477203,0
55,100,0.2409090909090909,642,0,77,_Guitar,6,4,_Guitar,0.09298325330018997,0
60,100,0.1409090909090909,703,0,77,_Guitar,6,2,_Guitar,0.10994778573513031,0
60,100,0.18181818181818182,739,0,77,_Guitar,6,3,_Guitar,0.12867026031017303,0
55,100,0.4,805,0,77,_Guitar,6,6,_Guitar,0.18221794068813324,0
55,100,0.11818181818181818,373,1,78,_Guitar,6,2,_Guitar,0.9990094900131226,1
55,100,0.1,523,0,78,_Guitar,6,2,_Guitar,0.23322445154190063,0
53,100,0.4,677,0,78,_Guitar,6,6,_Guitar,0.27057793736457825,0
53,100,0.1590909090909091,770,0,78,_Guitar,6,3,_Guitar,0.3579225242137909,0
53,100,0.4409090909090909,100,1,79,_Guitar,6,7,_Guitar,0.9986506104469299,1
53,100,0.2818181818181818,263,0,79,_Guitar,6,5,_Guitar,0.08798033744096756,0
52,100,0.3,417,0,79,_Guitar,6,5,_Guitar,0.09298663586378098,0
55,100,0.11818181818181818,546,0,79,_Guitar,6,2,_Guitar,0.10994862765073776,0
52,100,0.12272727272727273,629,0,79,_Guitar,6,2,_Guitar,0.12867195904254913,0
55,100,0.2,703,0,79,_Guitar,6,3,_Guitar,0.18221278488636017,0
55,100,0.22272727272727272,35,1,80,_Guitar,6,4,_Guitar,0.9988439083099365,1
57,100,1.2181818181818183,140,0,80,_Guitar,6,15,_Guitar,0.1379801481962204,0
57,100,1.0636363636363637,422,1,80,_Guitar,6,15,_Guitar,0.16235996782779694,0
57,100,0.11818181818181818,677,1,80,_Guitar,6,2,_Guitar,0.1910562962293625,0
52,100,0.5590909090909091,756,0,80,_Guitar,6,9,_Guitar,0.2619645297527313,0
55,100,0.1,136,1,81,_Guitar,6,2,_Guitar,0.9990094900131226,1
52,100,1.059090909090909,172,0,81,_Guitar,6,15,_Guitar,0.2332305610179901,0
52,100,0.2,436,1,81,_Guitar,6,3,_Guitar,0.2705850601196289,0
53,100,0.3,480,0,81,_Guitar,6,5,_Guitar,0.3579283654689789,0
55,100,0.5409090909090909,220,1,82,_Guitar,6,9,_Guitar,0.9990280866622925,1
62,100,0.1409090909090909,703,1,82,_Guitar,6,2,_Guitar,0.3703456223011017,0
55,100,0.5590909090909091,826,0,82,_Guitar,6,9,_Guitar,0.4561687111854553,0
55,100,0.38181818181818183,289,1,84,_Guitar,6,6,_Guitar,0.9990094900131226,1
52,100,0.13636363636363635,436,0,84,_Guitar,6,2,_Guitar,0.2332344651222229,0
55,100,0.6818181818181818,606,0,84,_Guitar,6,11,_Guitar,0.27058178186416626,0
52,100,0.6181818181818182,770,0,84,_Guitar,6,10,_Guitar,0.3579306900501251,0
52,100,0.13636363636363635,106,1,85,_Guitar,6,2,_Guitar,0.9792245030403137,1
60,100,0.11818181818181818,96,1,86,_Guitar,6,2,_Guitar,0.9988439083099365,1
60,100,0.2818181818181818,307,0,86,_Guitar,6,5,_Guitar,0.13798648118972778,0
55,100,0.6818181818181818,377,0,86,_Guitar,6,11,_Guitar,0.16236896812915802,0
67,100,0.2590909090909091,766,1,86,_Guitar,6,4,_Guitar,0.19106104969978333,0
60,100,0.5,844,0,86,_Guitar,6,8,_Guitar,0.26196226477622986,0
53,100,0.5,119,1,87,_Guitar,6,8,_Guitar,0.9990280866622925,1
59,100,0.2636363636363636,443,1,87,_Guitar,6,4,_Guitar,0.37034302949905396,0
59,100,0.8818181818181818,509,0,87,_Guitar,6,14,_Guitar,0.4561645984649658,0
62,100,0.8818181818181818,0,1,89,_Guitar,6,14,_Guitar,0.9990280866622925,1
53,100,0.6181818181818182,360,1,89,_Guitar,6,10,_Guitar,0.37033554911613464,0
67,100,0.17727272727272728,866,1,89,_Guitar,6,3,_Guitar,0.4561772644519806,0
55,100,0.11818181818181818,339,1,92,_Guitar,6,2,_Guitar,0.9990280866622925,1
55,100,0.37727272727272726,493,0,92,_Guitar,6,6,_Guitar,0.3703465163707733,0
55,100,0.4590909090909091,646,0,92,_Guitar,6,7,_Guitar,0.45615965127944946,0
52,100,0.2636363636363636,333,1,93,_Guitar,6,4,_Guitar,0.9990094900131226,1
52,100,0.22272727272727272,553,0,93,_Guitar,6,4,_Guitar,0.23322895169258118,0
57,100,0.2,677,0,93,_Guitar,6,3,_Guitar,0.2705775201320648,0
52,100,0.18181818181818182,729,0,93,_Guitar,6,3,_Guitar,0.35793763399124146,0
52,100,0.11818181818181818,66,1,94,_Guitar,6,2,_Guitar,0.9990280866622925,1
52,100,0.5,276,0,94,_Guitar,6,8,_Guitar,0.3703400790691376,0
52,100,1.0,417,0,94,_Guitar,6,15,_Guitar,0.4561687707901001,0
53,100,0.1409090909090909,100,1,95,_Guitar,6,2,_Guitar,0.9990094900131226,1
53,100,0.2590909090909091,303,0,95,_Guitar,6,4,_Guitar,0.2332286536693573,0
55,100,0.41818181818181815,449,0,95,_Guitar,6,7,_Guitar,0.27057957649230957,0
60,100,0.5,624,0,95,_Guitar,6,8,_Guitar,0.3579266667366028,0
57,100,0.2,184,1,96,_Guitar,6,3,_Guitar,0.9990096092224121,1
55,100,0.11818181818181818,770,1,96,_Guitar,6,2,_Guitar,0.23323120176792145,0
55,100,0.11818181818181818,823,0,96,_Guitar,6,2,_Guitar,0.2705817222595215,0
55,100,0.22272727272727272,862,0,96,_Guitar,6,4,_Guitar,0.3579254448413849,0
52,100,0.12272727272727273,509,1,97,_Guitar,6,2,_Guitar,0.9792247414588928,1
67,100,0.11818181818181818,722,1,0,Guitar,6,2,Guitar,0.9983232617378235,1
58,100,0.1590909090909091,823,0,0,Guitar,6,3,Guitar,0.5462179183959961,1
67,100,0.1590909090909091,339,1,1,Guitar,6,3,Guitar,0.9983231425285339,1
63,100,0.2409090909090909,686,1,1,Guitar,6,4,Guitar,0.5462162494659424,1
70,100,0.18181818181818182,144,1,2,Guitar,6,3,Guitar,0.9990094900131226,1
70,100,0.16363636363636364,223,0,2,Guitar,6,3,Guitar,0.2332301139831543,0
65,100,0.11818181818181818,373,0,2,Guitar,6,2,Guitar,0.27057895064353943,0
62,100,0.1409090909090909,782,1,2,Guitar,6,2,Guitar,0.3579251766204834,0
63,100,0.3181818181818182,83,1,3,Guitar,6,5,Guitar,0.9990094900131226,1
63,100,0.17727272727272728,171,0,3,Guitar,6,3,Guitar,0.23323063552379608,0
58,100,0.1,391,0,3,Guitar,6,2,Guitar,0.2705872058868408,0
65,100,0.2818181818181818,620,0,3,Guitar,6,5,Guitar,0.35792842507362366,0
62,100,0.11818181818181818,128,1,4,Guitar,6,2,Guitar,0.9983735084533691,1
62,100,0.16363636363636364,179,0,4,Guitar,6,3,Guitar,0.05104983225464821,0
63,100,0.1,263,0,4,Guitar,6,2,Guitar,0.04161233827471733,0
63,100,0.4772727272727273,317,0,4,Guitar,6,8,Guitar,0.03797971084713936,0
63,100,0.1409090909090909,554,1,4,Guitar,6,2,Guitar,0.03926153853535652,0
63,100,0.11818181818181818,611,0,4,Guitar,6,2,Guitar,0.04616779834032059,0
63,100,0.1590909090909091,695,0,4,Guitar,6,3,Guitar,0.057137083262205124,0
63,100,0.11818181818181818,792,0,4,Guitar,6,2,Guitar,0.09188666939735413,0
63,100,0.18181818181818182,145,1,5,Guitar,6,3,Guitar,0.9990280866622925,1
63,100,0.1409090909090909,211,0,5,Guitar,6,2,Guitar,0.3703494071960449,0
63,100,0.2772727272727273,655,1,5,Guitar,6,4,Guitar,0.45618346333503723,0
63,100,0.13636363636363635,348,1,6,Guitar,6,2,Guitar,0.9983232617378235,1
63,100,0.1590909090909091,739,1,6,Guitar,6,3,Guitar,0.5462225079536438,1
55,100,0.2,123,1,8,Guitar,6,3,Guitar,0.9792241454124451,1
56,100,0.12272727272727273,211,1,9,Guitar,6,2,Guitar,0.9990280866622925,1
63,100,0.11818181818181818,259,0,9,Guitar,6,2,Guitar,0.37034887075424194,0
63,100,0.12272727272727273,355,0,9,Guitar,6,2,Guitar,0.45617184042930603,0
65,100,0.12272727272727273,642,1,10,Guitar,6,2,Guitar,0.9792241454124451,1
63,100,0.16363636363636364,180,1,13,Guitar,6,3,Guitar,0.9990094900131226,1
63,100,0.1,268,0,13,Guitar,6,2,Guitar,0.2332439422607422,0
56,100,0.3409090909090909,360,0,13,Guitar,6,5,Guitar,0.270589679479599,0
56,100,0.18181818181818182,663,1,13,Guitar,6,3,Guitar,0.3579375147819519,0
58,100,0.2,44,1,14,Guitar,6,3,Guitar,0.9983232617378235,1
63,100,0.1590909090909091,118,0,14,Guitar,6,3,Guitar,0.5462213754653931,1
55,100,0.17727272727272728,52,1,16,Guitar,6,3,Guitar,0.9986506104469299,1
63,100,0.11818181818181818,220,0,16,Guitar,6,2,Guitar,0.08798044919967651,0
55,100,0.1,254,0,16,Guitar,6,2,Guitar,0.09298872202634811,0
63,100,0.11818181818181818,351,0,16,Guitar,6,2,Guitar,0.10995250195264816,0
63,100,0.13636363636363635,436,0,16,Guitar,6,2,Guitar,0.12868085503578186,0
63,100,0.21818181818181817,492,0,16,Guitar,6,3,Guitar,0.18222874402999878,0
58,100,0.11818181818181818,845,1,17,Guitar,6,2,Guitar,0.9792238473892212,1
56,100,0.11818181818181818,700,1,18,Guitar,6,2,Guitar,0.9983232617378235,1
56,100,0.11818181818181818,735,0,18,Guitar,6,2,Guitar,0.5462129712104797,1
56,100,0.3181818181818182,88,1,19,Guitar,6,5,Guitar,0.9983231425285339,1
56,100,0.1,347,1,19,Guitar,6,2,Guitar,0.5462104678153992,1
56,100,0.1590909090909091,65,1,21,Guitar,6,3,Guitar,0.9988439083099365,1
63,100,0.1590909090909091,185,0,21,Guitar,6,3,Guitar,0.1379823237657547,0
63,100,0.22272727272727272,268,0,21,Guitar,6,4,Guitar,0.1623673439025879,0
63,100,0.11818181818181818,339,0,21,Guitar,6,2,Guitar,0.19106236100196838,0
63,100,0.17727272727272728,735,1,21,Guitar,6,3,Guitar,0.26196905970573425,0
63,100,0.12272727272727273,553,1,22,Guitar,6,2,Guitar,0.9792242646217346,1
63,100,0.1,633,1,23,Guitar,6,2,Guitar,0.9983231425285339,1
63,100,0.5772727272727273,876,1,23,Guitar,6,9,Guitar,0.5462135672569275,1
63,100,0.11818181818181818,131,1,24,Guitar,6,2,Guitar,0.9983231425285339,1
63,100,0.18181818181818182,285,0,24,Guitar,6,3,Guitar,0.5462210178375244,1
58,100,0.1590909090909091,691,1,25,Guitar,6,3,Guitar,0.9792245030403137,1
63,100,0.11818181818181818,590,1,26,Guitar,6,2,Guitar,0.9990280866622925,1
64,100,0.1590909090909091,625,0,26,Guitar,6,3,Guitar,0.37035587430000305,0
68,100,0.32272727272727275,804,0,26,Guitar,6,5,Guitar,0.4561682641506195,0
63,100,0.1409090909090909,822,1,27,Guitar,6,2,Guitar,0.9792236089706421,1
62,100,0.12272727272727273,202,1,29,Guitar,6,2,Guitar,0.9983231425285339,1
63,100,0.1590909090909091,810,1,29,Guitar,6,3,Guitar,0.5462127923965454,1
67,100,0.11818181818181818,0,1,30,Guitar,6,2,Guitar,0.9983231425285339,1
63,100,0.21818181818181817,866,1,30,Guitar,6,3,Guitar,0.5462163090705872,1
63,100,0.2818181818181818,113,1,31,Guitar,6,5,Guitar,0.9986506104469299,1
63,100,0.22272727272727272,254,0,31,Guitar,6,4,Guitar,0.08798282593488693,0
63,100,0.18181818181818182,422,0,31,Guitar,6,3,Guitar,0.09298861026763916,0
63,100,0.2590909090909091,528,0,31,Guitar,6,4,Guitar,0.10995598137378693,0
63,100,0.6,598,0,31,Guitar,6,10,Guitar,0.12868456542491913,0
56,100,0.17727272727272728,822,0,31,Guitar,6,3,Guitar,0.18223051726818085,0
63,100,0.11818181818181818,303,1,32,Guitar,6,2,Guitar,0.9792227745056152,1
63,100,0.3,408,1,33,Guitar,6,5,Guitar,0.9792238473892212,1
63,100,0.1590909090909091,391,1,34,Guitar,6,3,Guitar,0.979223906993866,1
65,100,0.17727272727272728,163,1,35,Guitar,6,3,Guitar,0.9990094900131226,1
58,100,0.2818181818181818,298,0,35,Guitar,6,5,Guitar,0.2332330197095871,0
58,100,0.12272727272727273,474,0,35,Guitar,6,2,Guitar,0.27058306336402893,0
63,100,0.11818181818181818,735,1,35,Guitar,6,2,Guitar,0.35792553424835205,0
63,100,0.11818181818181818,110,1,36,Guitar,6,2,Guitar,0.9990094900131226,1
63,100,0.2,246,0,36,Guitar,6,3,Guitar,0.23323442041873932,0
58,100,0.2,316,0,36,Guitar,6,3,Guitar,0.2705948054790497,0
63,100,0.18181818181818182,651,1,36,Guitar,6,3,Guitar,0.3579372763633728,0
63,100,0.22272727272727272,179,1,37,Guitar,6,4,Guitar,0.9990094900131226,1
63,100,0.11818181818181818,295,0,37,Guitar,6,2,Guitar,0.23323018848896027,0
58,100,0.1590909090909091,743,1,37,Guitar,6,3,Guitar,0.27059534192085266,0
58,100,0.22272727272727272,871,0,37,Guitar,6,4,Guitar,0.3579408824443817,0
58,100,0.2,66,1,38,Guitar,6,3,Guitar,0.9986506104469299,1
58,100,0.3,118,0,38,Guitar,6,5,Guitar,0.0879792720079422,0
58,100,0.11818181818181818,215,0,38,Guitar,6,2,Guitar,0.09298519790172577,0
58,100,0.11818181818181818,295,0,38,Guitar,6,2,Guitar,0.10995056480169296,0
58,100,0.1590909090909091,343,0,38,Guitar,6,3,Guitar,0.12867258489131927,0
58,100,0.18181818181818182,396,0,38,Guitar,6,3,Guitar,0.18221724033355713,0
53,100,0.2409090909090909,66,1,39,Guitar,6,4,Guitar,0.9986506104469299,1
63,100,0.22272727272727272,211,0,39,Guitar,6,4,Guitar,0.08798064291477203,0
55,100,0.1409090909090909,289,0,39,Guitar,6,2,Guitar,0.09299086034297943,0
55,100,0.18181818181818182,351,0,39,Guitar,6,3,Guitar,0.10995525866746902,0
62,100,0.37727272727272726,480,0,39,Guitar,6,6,Guitar,0.12867991626262665,0
63,100,0.21818181818181817,748,1,39,Guitar,6,3,Guitar,0.18222469091415405,0
58,100,0.16363636363636364,26,1,40,Guitar,6,3,Guitar,0.9988439083099365,1
58,100,0.17727272727272728,83,0,40,Guitar,6,3,Guitar,0.13798055052757263,0
53,100,0.2409090909090909,286,0,40,Guitar,6,4,Guitar,0.16235899925231934,0
53,100,0.18181818181818182,364,0,40,Guitar,6,3,Guitar,0.19104903936386108,0
55,100,0.11818181818181818,493,0,40,Guitar,6,2,Guitar,0.2619578540325165,0
63,100,0.2772727272727273,141,1,41,Guitar,6,4,Guitar,0.9990280866622925,1
65,100,0.22272727272727272,496,1,41,Guitar,6,4,Guitar,0.3703448474407196,0
67,100,0.18181818181818182,783,1,41,Guitar,6,3,Guitar,0.45616742968559265,0
62,100,0.21818181818181817,31,1,42,Guitar,6,3,Guitar,0.9990094900131226,1
62,100,0.22272727272727272,166,0,42,Guitar,6,4,Guitar,0.23323914408683777,0
63,100,0.41818181818181815,286,0,42,Guitar,6,7,Guitar,0.2705910801887512,0
63,100,0.3181818181818182,625,1,42,Guitar,6,5,Guitar,0.3579424023628235,0
58,100,0.1,166,1,43,Guitar,6,2,Guitar,0.9990280866622925,1
63,100,0.18181818181818182,421,1,43,Guitar,6,3,Guitar,0.3703364431858063,0
63,100,0.2409090909090909,726,1,43,Guitar,6,4,Guitar,0.4561672806739807,0
58,100,0.1590909090909091,53,1,44,Guitar,6,3,Guitar,0.9986506104469299,1
58,100,0.22272727272727272,453,1,44,Guitar,6,4,Guitar,0.08797924965620041,0
58,100,0.18181818181818182,593,0,44,Guitar,6,3,Guitar,0.0929843857884407,0
58,100,0.1409090909090909,716,0,44,Guitar,6,2,Guitar,0.10994938015937805,0
57,100,0.11818181818181818,748,0,44,Guitar,6,2,Guitar,0.1286674290895462,0
58,100,0.2,853,0,44,Guitar,6,3,Guitar,0.18222148716449738,0
53,100,0.4590909090909091,53,1,45,Guitar,6,7,Guitar,0.9983735084533691,1
53,100,0.21818181818181817,193,0,45,Guitar,6,3,Guitar,0.05104999616742134,0
53,100,0.11818181818181818,281,0,45,Guitar,6,2,Guitar,0.041612301021814346,0
56,100,0.11818181818181818,413,0,45,Guitar,6,2,Guitar,0.037979867309331894,0
56,100,0.11818181818181818,536,0,45,Guitar,6,2,Guitar,0.03926076740026474,0
53,100,0.3409090909090909,581,0,45,Guitar,6,5,Guitar,0.04616497829556465,0
55,100,0.3,664,0,45,Guitar,6,5,Guitar,0.057131681591272354,0
55,100,0.2772727272727273,801,0,45,Guitar,6,4,Guitar,0.09187597036361694,0
55,100,0.4818181818181818,56,1,46,Guitar,6,8,Guitar,0.9988439083099365,1
55,100,0.22272727272727272,188,0,46,Guitar,6,4,Guitar,0.13798823952674866,0
56,100,0.2409090909090909,466,1,46,Guitar,6,4,Guitar,0.1623704582452774,0
56,100,0.22272727272727272,606,0,46,Guitar,6,4,Guitar,0.1910620480775833,0
56,100,0.3409090909090909,871,1,46,Guitar,6,5,Guitar,0.261966347694397,0
56,100,0.36363636363636365,136,1,47,Guitar,6,6,Guitar,0.9986506104469299,1
56,100,0.2409090909090909,273,0,47,Guitar,6,4,Guitar,0.08797838538885117,0
58,100,0.22272727272727272,488,0,47,Guitar,6,4,Guitar,0.0929844006896019,0
58,100,0.4772727272727273,545,0,47,Guitar,6,8,Guitar,0.10994502902030945,0
58,100,0.3,673,0,47,Guitar,6,5,Guitar,0.12866657972335815,0
58,100,0.17727272727272728,823,0,47,Guitar,6,3,Guitar,0.18221382796764374,0
53,100,0.1409090909090909,21,1,48,Guitar,6,2,Guitar,0.9986506104469299,1
58,100,0.3,69,0,48,Guitar,6,5,Guitar,0.08797755092382431,0
58,100,0.5636363636363636,201,0,48,Guitar,6,9,Guitar,0.09298358857631683,0
58,100,0.12272727272727273,334,0,48,Guitar,6,2,Guitar,0.10994543135166168,0
58,100,0.3,405,0,48,Guitar,6,5,Guitar,0.12866835296154022,0
58,100,0.3,474,0,48,Guitar,6,5,Guitar,0.18221008777618408,0
53,100,0.5181818181818182,40,1,50,Guitar,6,8,Guitar,0.9983231425285339,1
53,100,0.2818181818181818,444,1,50,Guitar,6,5,Guitar,0.5462186336517334,1
53,100,0.11818181818181818,853,1,51,Guitar,6,2,Guitar,0.9792238473892212,1
58,100,0.1590909090909091,628,1,52,Guitar,6,3,Guitar,0.9983231425285339,1
63,100,0.21818181818181817,735,0,52,Guitar,6,3,Guitar,0.5462110638618469,1
63,100,0.11818181818181818,198,1,53,Guitar,6,2,Guitar,0.9990280866622925,1
63,100,0.2,268,0,53,Guitar,6,3,Guitar,0.37034666538238525,0
63,100,0.3409090909090909,408,0,53,Guitar,6,5,Guitar,0.4561818838119507,0
63,100,0.18181818181818182,708,1,54,Guitar,6,3,Guitar,0.9792238473892212,1
63,100,0.2409090909090909,153,1,55,Guitar,6,4,Guitar,0.979223370552063,1
63,100,0.12272727272727273,444,1,58,Guitar,6,2,Guitar,0.979223906993866,1
63,100,0.1409090909090909,343,1,61,Guitar,6,2,Guitar,0.9983232617378235,1
63,100,0.18181818181818182,751,1,61,Guitar,6,3,Guitar,0.5462244153022766,1
63,100,0.4590909090909091,848,1,63,Guitar,6,7,Guitar,0.9792234897613525,1
63,100,0.1,87,1,64,Guitar,6,2,Guitar,0.9990280866622925,1
63,100,0.2818181818181818,145,0,64,Guitar,6,5,Guitar,0.37034133076667786,0
56,100,0.35909090909090907,866,1,64,Guitar,6,6,Guitar,0.4561772644519806,0
56,100,0.17727272727272728,713,1,65,Guitar,6,3,Guitar,0.9792242646217346,1
58,100,0.1,74,1,69,Guitar,6,2,Guitar,0.9990094900131226,1
63,100,0.2,140,0,69,Guitar,6,3,Guitar,0.23322489857673645,0
53,100,0.1,282,0,69,Guitar,6,2,Guitar,0.27057480812072754,0
53,100,0.11818181818181818,677,1,69,Guitar,6,2,Guitar,0.3579271137714386,0
53,100,0.2,153,1,70,Guitar,6,3,Guitar,0.9990280866622925,1
53,100,0.12272727272727273,356,0,70,Guitar,6,2,Guitar,0.3703385591506958,0
53,100,0.18181818181818182,422,0,70,Guitar,6,3,Guitar,0.4561651051044464,0
70,100,0.17727272727272728,17,1,71,Guitar,6,3,Guitar,0.9983232617378235,1
58,100,0.2,96,0,71,Guitar,6,3,Guitar,0.5462117195129395,1
58,100,0.1,136,1,73,Guitar,6,2,Guitar,0.9983232617378235,1
62,100,0.1,734,1,73,Guitar,6,2,Guitar,0.546217143535614,1
63,100,0.1590909090909091,233,1,77,Guitar,6,3,Guitar,0.9792236089706421,1
63,100,0.11818181818181818,792,1,78,Guitar,6,2,Guitar,0.9792240262031555,1
63,100,0.1,246,1,79,Guitar,6,2,Guitar,0.9792238473892212,1
63,100,0.11818181818181818,726,1,81,Guitar,6,2,Guitar,0.9792234897613525,1
53,100,0.17727272727272728,127,1,82,Guitar,6,3,Guitar,0.9990280866622925,1
53,100,0.2,184,0,82,Guitar,6,3,Guitar,0.37034448981285095,0
53,100,0.18181818181818182,663,1,82,Guitar,6,3,Guitar,0.4561634063720703,0
63,100,0.12272727272727273,3,1,83,Guitar,6,2,Guitar,0.9983231425285339,1
58,100,0.2,677,1,83,Guitar,6,3,Guitar,0.5462215542793274,1
67,100,0.2818181818181818,132,1,84,Guitar,6,5,Guitar,0.9990094900131226,1
62,100,0.3181818181818182,263,0,84,Guitar,6,5,Guitar,0.23323151469230652,0
63,100,0.6818181818181818,483,0,84,Guitar,6,11,Guitar,0.27058160305023193,0
70,100,0.1,686,0,84,Guitar,6,2,Guitar,0.3579355776309967,0
70,100,0.1,26,1,85,Guitar,6,2,Guitar,0.9983735084533691,1
65,100,0.1,220,0,85,Guitar,6,2,Guitar,0.05104973167181015,0
67,100,0.2,289,0,85,Guitar,6,3,Guitar,0.041611578315496445,0
67,100,0.2590909090909091,404,0,85,Guitar,6,4,Guitar,0.03797890245914459,0
62,100,0.2590909090909091,480,0,85,Guitar,6,4,Guitar,0.03925963118672371,0
62,100,0.5227272727272727,553,0,85,Guitar,6,8,Guitar,0.04616574943065643,0
63,100,0.3409090909090909,703,0,85,Guitar,6,5,Guitar,0.05713316798210144,0
63,100,0.4,783,0,85,Guitar,6,6,Guitar,0.09188259392976761,0
63,100,0.2590909090909091,13,1,86,Guitar,6,4,Guitar,0.9990094900131226,1
56,100,0.1409090909090909,365,1,86,Guitar,6,2,Guitar,0.23323065042495728,0
63,100,0.1,443,0,86,Guitar,6,2,Guitar,0.2705910801887512,0
65,100,0.11818181818181818,734,1,86,Guitar,6,2,Guitar,0.35793229937553406,0
63,100,0.11818181818181818,722,1,88,Guitar,6,2,Guitar,0.9792242646217346,1
63,100,0.2590909090909091,106,1,89,Guitar,6,4,Guitar,0.9792236089706421,1
55,100,0.5363636363636364,523,1,90,Guitar,6,9,Guitar,0.9983231425285339,1
55,100,0.7772727272727272,646,0,90,Guitar,6,12,Guitar,0.546212375164032,1
58,100,0.18181818181818182,597,1,97,Guitar,6,3,Guitar,0.9792242646217346,1
58,100,0.2409090909090909,870,1,105,Guitar,6,4,Guitar,0.9792246222496033,1
65,100,0.1590909090909091,197,1,106,Guitar,6,3,Guitar,0.9990280866622925,1
65,100,0.17727272727272728,273,0,106,Guitar,6,3,Guitar,0.37034180760383606,0
62,100,0.2,616,1,106,Guitar,6,3,Guitar,0.45616960525512695,0
63,100,0.5181818181818182,22,1,107,Guitar,6,8,Guitar,0.9983231425285339,1
62,100,0.2590909090909091,823,1,107,Guitar,6,4,Guitar,0.546225905418396,1
62,100,0.2409090909090909,13,1,108,Guitar,6,4,Guitar,0.9990280866622925,1
65,100,0.2,637,1,108,Guitar,6,3,Guitar,0.3703426718711853,0
65,100,0.2590909090909091,690,0,108,Guitar,6,4,Guitar,0.45616838335990906,0
62,100,0.3,163,1,109,Guitar,6,5,Guitar,0.9988439083099365,1
62,100,0.1409090909090909,242,0,109,Guitar,6,2,Guitar,0.13798749446868896,0
63,100,0.21818181818181817,383,0,109,Guitar,6,3,Guitar,0.16236865520477295,0
63,100,0.16363636363636364,443,0,109,Guitar,6,3,Guitar,0.19107438623905182,0
63,100,0.1,509,0,109,Guitar,6,2,Guitar,0.26198482513427734,0
58,100,0.1409090909090909,163,1,110,Guitar,6,2,Guitar,0.9983232617378235,1
63,100,0.17727272727272728,237,0,110,Guitar,6,3,Guitar,0.5462194085121155,1
70,100,0.11818181818181818,417,1,111,Guitar,6,2,Guitar,0.9792241454124451,1
53,100,0.22272727272727272,488,1,0,DL_Remix_Guitar,6,4,DL_Remix_Guitar,0.9990280866622925,1
58,100,0.21818181818181817,682,0,0,DL_Remix_Guitar,6,3,DL_Remix_Guitar,0.3703441619873047,0
58,100,0.5818181818181818,748,0,0,DL_Remix_Guitar,6,9,DL_Remix_Guitar,0.4561645984649658,0
62,100,0.6636363636363637,4,1,1,DL_Remix_Guitar,6,11,DL_Remix_Guitar,0.9986506104469299,1
53,100,0.37727272727272726,163,0,1,DL_Remix_Guitar,6,6,DL_Remix_Guitar,0.08798037469387054,0
58,100,0.18181818181818182,255,0,1,DL_Remix_Guitar,6,3,DL_Remix_Guitar,0.09298880398273468,0
63,100,0.12272727272727273,597,1,1,DL_Remix_Guitar,6,2,DL_Remix_Guitar,0.10995133966207504,0
63,100,0.5,651,0,1,DL_Remix_Guitar,6,8,DL_Remix_Guitar,0.12867462635040283,0
58,100,0.3409090909090909,823,0,1,DL_Remix_Guitar,6,5,DL_Remix_Guitar,0.18222802877426147,0
53,100,0.2818181818181818,21,1,2,DL_Remix_Guitar,6,5,DL_Remix_Guitar,0.9990094900131226,1
60,100,0.3409090909090909,220,0,2,DL_Remix_Guitar,6,5,DL_Remix_Guitar,0.2332274168729782,0
65,100,0.6772727272727272,348,0,2,DL_Remix_Guitar,6,11,DL_Remix_Guitar,0.2705755829811096,0
60,100,0.32272727272727275,541,0,2,DL_Remix_Guitar,6,5,DL_Remix_Guitar,0.35792669653892517,0
53,100,0.9,61,1,3,DL_Remix_Guitar,6,14,DL_Remix_Guitar,0.9990094900131226,1
58,100,0.3409090909090909,263,0,3,DL_Remix_Guitar,6,5,DL_Remix_Guitar,0.23322829604148865,0
53,100,0.12272727272727273,364,0,3,DL_Remix_Guitar,6,2,DL_Remix_Guitar,0.27057310938835144,0
53,100,0.32272727272727275,818,1,3,DL_Remix_Guitar,6,5,DL_Remix_Guitar,0.35791775584220886,0
58,100,0.12272727272727273,56,1,4,DL_Remix_Guitar,6,2,DL_Remix_Guitar,0.9988439083099365,1
58,100,0.1409090909090909,255,0,4,DL_Remix_Guitar,6,2,DL_Remix_Guitar,0.13798220455646515,0
63,100,0.5409090909090909,532,1,4,DL_Remix_Guitar,6,9,DL_Remix_Guitar,0.162356436252594,0
53,100,0.2,695,0,4,DL_Remix_Guitar,6,3,DL_Remix_Guitar,0.19105598330497742,0
53,100,0.8818181818181818,813,0,4,DL_Remix_Guitar,6,14,DL_Remix_Guitar,0.26195916533470154,0
65,100,0.2409090909090909,263,1,5,DL_Remix_Guitar,6,4,DL_Remix_Guitar,0.9983231425285339,1
65,100,1.3181818181818181,637,1,5,DL_Remix_Guitar,6,15,DL_Remix_Guitar,0.546204149723053,1
62,100,0.1590909090909091,220,1,10,DL_Remix_Guitar,6,3,DL_Remix_Guitar,0.9983231425285339,1
69,100,0.2772727272727273,744,1,10,DL_Remix_Guitar,6,4,DL_Remix_Guitar,0.5462201833724976,1
65,100,0.6181818181818182,457,1,13,DL_Remix_Guitar,6,10,DL_Remix_Guitar,0.9983232617378235,1
65,100,0.22272727272727272,598,0,13,DL_Remix_Guitar,6,4,DL_Remix_Guitar,0.546212911605835,1
62,100,0.6227272727272727,166,1,14,DL_Remix_Guitar,6,10,DL_Remix_Guitar,0.9990280866622925,1
62,100,0.21818181818181817,307,0,14,DL_Remix_Guitar,6,3,DL_Remix_Guitar,0.370339035987854,0
58,100,0.22272727272727272,862,1,14,DL_Remix_Guitar,6,4,DL_Remix_Guitar,0.4561765193939209,0
62,100,0.21818181818181817,360,1,15,DL_Remix_Guitar,6,3,DL_Remix_Guitar,0.9990280866622925,1
58,100,0.6409090909090909,563,0,15,DL_Remix_Guitar,6,10,DL_Remix_Guitar,0.3703477680683136,0
53,100,0.32272727272727275,716,0,15,DL_Remix_Guitar,6,5,DL_Remix_Guitar,0.4561697542667389,0
58,100,0.35909090909090907,162,1,16,DL_Remix_Guitar,6,6,DL_Remix_Guitar,0.9990280866622925,1
53,100,1.018181818181818,413,1,16,DL_Remix_Guitar,6,15,DL_Remix_Guitar,0.3703402578830719,0
60,100,1.0,822,1,16,DL_Remix_Guitar,6,15,DL_Remix_Guitar,0.45616915822029114,0
53,100,0.1409090909090909,34,1,18,DL_Remix_Guitar,6,2,DL_Remix_Guitar,0.9990094900131226,1
53,100,0.1409090909090909,430,1,18,DL_Remix_Guitar,6,2,DL_Remix_Guitar,0.23322933912277222,0
53,100,0.2,474,0,18,DL_Remix_Guitar,6,3,DL_Remix_Guitar,0.2705788314342499,0
58,100,0.4590909090909091,835,1,18,DL_Remix_Guitar,6,7,DL_Remix_Guitar,0.35792332887649536,0
53,100,0.1409090909090909,804,1,19,DL_Remix_Guitar,6,2,DL_Remix_Guitar,0.9792241454124451,1
53,100,0.5181818181818182,492,1,20,DL_Remix_Guitar,6,8,DL_Remix_Guitar,0.9983231425285339,1
53,100,0.11818181818181818,725,1,20,DL_Remix_Guitar,6,2,DL_Remix_Guitar,0.5462176203727722,1
58,100,0.35909090909090907,611,1,21,DL_Remix_Guitar,6,6,DL_Remix_Guitar,0.9990280866622925,1
58,100,0.1,694,0,21,DL_Remix_Guitar,6,2,DL_Remix_Guitar,0.37034985423088074,0
62,100,0.8181818181818182,770,0,21,DL_Remix_Guitar,6,13,DL_Remix_Guitar,0.45616623759269714,0
58,100,0.6772727272727272,347,1,22,DL_Remix_Guitar,6,11,DL_Remix_Guitar,0.9792234897613525,1
65,100,0.6409090909090909,96,1,23,DL_Remix_Guitar,6,10,DL_Remix_Guitar,0.979223370552063,1
58,100,0.1590909090909091,413,1,24,DL_Remix_Guitar,6,3,DL_Remix_Guitar,0.9792242646217346,1
65,100,0.5772727272727273,127,1,25,DL_Remix_Guitar,6,9,DL_Remix_Guitar,0.9990280866622925,1
58,100,0.2,370,1,25,DL_Remix_Guitar,6,3,DL_Remix_Guitar,0.3703540563583374,0
65,100,0.6,725,1,25,DL_Remix_Guitar,6,10,DL_Remix_Guitar,0.4561630189418793,0
63,100,0.9409090909090909,449,1,27,DL_Remix_Guitar,6,15,DL_Remix_Guitar,0.9983231425285339,1
63,100,0.3409090909090909,708,1,27,DL_Remix_Guitar,6,5,DL_Remix_Guitar,0.5462210774421692,1
63,100,0.11818181818181818,65,1,28,DL_Remix_Guitar,6,2,DL_Remix_Guitar,0.9988439083099365,1
63,100,0.21818181818181817,119,0,28,DL_Remix_Guitar,6,3,DL_Remix_Guitar,0.13798192143440247,0
53,100,0.18181818181818182,202,0,28,DL_Remix_Guitar,6,3,DL_Remix_Guitar,0.16236568987369537,0
65,100,0.2,241,0,28,DL_Remix_Guitar,6,3,DL_Remix_Guitar,0.1910611242055893,0
65,100,0.35909090909090907,739,1,28,DL_Remix_Guitar,6,6,DL_Remix_Guitar,0.2619703412055969,0
65,100,1.0,260,1,29,DL_Remix_Guitar,6,15,DL_Remix_Guitar,0.9988439083099365,1
65,100,0.1409090909090909,515,1,29,DL_Remix_Guitar,6,2,DL_Remix_Guitar,0.13798190653324127,0
53,100,0.2409090909090909,553,0,29,DL_Remix_Guitar,6,4,DL_Remix_Guitar,0.16236037015914917,0
53,100,0.1,787,1,29,DL_Remix_Guitar,6,2,DL_Remix_Guitar,0.1910543292760849,0
53,100,0.3409090909090909,858,0,29,DL_Remix_Guitar,6,5,DL_Remix_Guitar,0.26195603609085083,0
53,100,0.1,289,1,30,DL_Remix_Guitar,6,2,DL_Remix_Guitar,0.9988439083099365,1
53,100,0.5363636363636364,413,0,30,DL_Remix_Guitar,6,9,DL_Remix_Guitar,0.13798096776008606,0
53,100,0.4590909090909091,581,0,30,DL_Remix_Guitar,6,7,DL_Remix_Guitar,0.16236145794391632,0
53,100,0.12272727272727273,760,0,30,DL_Remix_Guitar,6,2,DL_Remix_Guitar,0.19105710089206696,0
53,100,0.2818181818181818,791,0,30,DL_Remix_Guitar,6,5,DL_Remix_Guitar,0.2619583308696747,0
58,100,0.5227272727272727,201,1,32,DL_Remix_Guitar,6,8,DL_Remix_Guitar,0.9990280866622925,1
53,100,0.1409090909090909,804,1,32,DL_Remix_Guitar,6,2,DL_Remix_Guitar,0.3703313171863556,0
58,100,0.2590909090909091,836,0,32,DL_Remix_Guitar,6,4,DL_Remix_Guitar,0.4561668932437897,0
53,100,0.38181818181818183,13,1,33,DL_Remix_Guitar,6,6,DL_Remix_Guitar,0.9986506104469299,1
53,100,0.5590909090909091,105,0,33,DL_Remix_Guitar,6,9,DL_Remix_Guitar,0.08797811716794968,0
53,100,0.38181818181818183,378,1,33,DL_Remix_Guitar,6,6,DL_Remix_Guitar,0.09298168867826462,0
65,100,0.41818181818181815,461,0,33,DL_Remix_Guitar,6,7,DL_Remix_Guitar,0.10994555056095123,0
53,100,0.4636363636363636,554,0,33,DL_Remix_Guitar,6,7,DL_Remix_Guitar,0.12866637110710144,0
55,100,0.43636363636363634,678,0,33,DL_Remix_Guitar,6,7,DL_Remix_Guitar,0.18221114575862885,0
55,100,0.2772727272727273,215,1,34,DL_Remix_Guitar,6,4,DL_Remix_Guitar,0.9990094900131226,1
53,100,0.18181818181818182,321,0,34,DL_Remix_Guitar,6,3,DL_Remix_Guitar,0.233226478099823,0
60,100,0.16363636363636364,421,0,34,DL_Remix_Guitar,6,3,DL_Remix_Guitar,0.27058422565460205,0
53,100,1.2,681,1,34,DL_Remix_Guitar,6,15,DL_Remix_Guitar,0.3579173684120178,0
53,100,0.18181818181818182,69,1,35,DL_Remix_Guitar,6,3,DL_Remix_Guitar,0.9988439083099365,1
65,100,0.37727272727272726,435,1,35,DL_Remix_Guitar,6,6,DL_Remix_Guitar,0.137980118393898,0
65,100,0.32272727272727275,738,1,35,DL_Remix_Guitar,6,5,DL_Remix_Guitar,0.16235868632793427,0
65,100,0.11818181818181818,845,0,35,DL_Remix_Guitar,6,2,DL_Remix_Guitar,0.19104893505573273,0
65,100,0.2590909090909091,875,0,35,DL_Remix_Guitar,6,4,DL_Remix_Guitar,0.26195505261421204,0
63,100,0.1409090909090909,75,1,36,DL_Remix_Guitar,6,2,DL_Remix_Guitar,0.9988439083099365,1
53,100,0.6409090909090909,311,1,36,DL_Remix_Guitar,6,10,DL_Remix_Guitar,0.13798584043979645,0
53,100,0.8590909090909091,458,0,36,DL_Remix_Guitar,6,14,DL_Remix_Guitar,0.162363663315773,0
53,100,0.2590909090909091,694,1,36,DL_Remix_Guitar,6,4,DL_Remix_Guitar,0.1910628080368042,0
53,100,0.9,756,0,36,DL_Remix_Guitar,6,14,DL_Remix_Guitar,0.26196160912513733,0
53,100,0.1590909090909091,88,1,37,DL_Remix_Guitar,6,3,DL_Remix_Guitar,0.9983231425285339,1
53,100,0.2590909090909091,721,1,37,DL_Remix_Guitar,6,4,DL_Remix_Guitar,0.5462157130241394,1
63,100,0.17727272727272728,163,1,38,DL_Remix_Guitar,6,3,DL_Remix_Guitar,0.9990094900131226,1
53,100,0.1590909090909091,518,1,38,DL_Remix_Guitar,6,3,DL_Remix_Guitar,0.2332417368888855,0
53,100,0.1409090909090909,638,0,38,DL_Remix_Guitar,6,2,DL_Remix_Guitar,0.2705859839916229,0
53,100,0.5409090909090909,694,0,38,DL_Remix_Guitar,6,9,DL_Remix_Guitar,0.3579375147819519,0
58,100,0.1409090909090909,233,1,39,DL_Remix_Guitar,6,2,DL_Remix_Guitar,0.9792241454124451,1
60,100,0.5818181818181818,431,1,40,DL_Remix_Guitar,6,9,DL_Remix_Guitar,0.9792242646217346,1
65,100,0.2818181818181818,176,1,41,DL_Remix_Guitar,6,5,DL_Remix_Guitar,0.9990280866622925,1
58,100,0.11818181818181818,251,0,41,DL_Remix_Guitar,6,2,DL_Remix_Guitar,0.37034502625465393,0
58,100,0.41818181818181815,801,1,41,DL_Remix_Guitar,6,7,DL_Remix_Guitar,0.45616763830184937,0
53,100,0.2590909090909091,31,1,42,DL_Remix_Guitar,6,4,DL_Remix_Guitar,0.9990094900131226,1
53,100,0.18181818181818182,91,0,42,DL_Remix_Guitar,6,3,DL_Remix_Guitar,0.23322923481464386,0
53,100,0.1409090909090909,638,1,42,DL_Remix_Guitar,6,2,DL_Remix_Guitar,0.2705809473991394,0
53,100,0.740909090909091,791,0,42,DL_Remix_Guitar,6,12,DL_Remix_Guitar,0.3579176664352417,0
53,100,0.42272727272727273,334,1,43,DL_Remix_Guitar,6,7,DL_Remix_Guitar,0.9990280866622925,1
53,100,0.11818181818181818,700,1,43,DL_Remix_Guitar,6,2,DL_Remix_Guitar,0.37033796310424805,0
65,100,0.1590909090909091,836,0,43,DL_Remix_Guitar,6,3,DL_Remix_Guitar,0.456163227558136,0
53,100,0.2590909090909091,13,1,44,DL_Remix_Guitar,6,4,DL_Remix_Guitar,0.9984879493713379,1
55,100,0.2590909090909091,144,0,44,DL_Remix_Guitar,6,4,DL_Remix_Guitar,0.06335290521383286,0
53,100,0.1409090909090909,233,0,44,DL_Remix_Guitar,6,2,DL_Remix_Guitar,0.05828767269849777,0
55,100,0.21818181818181817,303,0,44,DL_Remix_Guitar,6,3,DL_Remix_Guitar,0.061359841376543045,0
65,100,0.36363636363636365,399,0,44,DL_Remix_Guitar,6,6,DL_Remix_Guitar,0.07168088108301163,0
65,100,0.22272727272727272,496,0,44,DL_Remix_Guitar,6,4,DL_Remix_Guitar,0.08472996950149536,0
53,100,0.11818181818181818,545,0,44,DL_Remix_Guitar,6,2,DL_Remix_Guitar,0.12634488940238953,0
65,100,0.35909090909090907,351,1,45,DL_Remix_Guitar,6,6,DL_Remix_Guitar,0.9990094900131226,1
65,100,0.1409090909090909,461,0,45,DL_Remix_Guitar,6,2,DL_Remix_Guitar,0.2332313060760498,0
58,100,0.6590909090909091,668,0,45,DL_Remix_Guitar,6,11,DL_Remix_Guitar,0.27058154344558716,0
58,100,0.4772727272727273,875,0,45,DL_Remix_Guitar,6,8,DL_Remix_Guitar,0.35792604088783264,0
58,100,0.1409090909090909,550,1,46,DL_Remix_Guitar,6,2,DL_Remix_Guitar,0.9990280866622925,1
58,100,0.12272727272727273,619,0,46,DL_Remix_Guitar,6,2,DL_Remix_Guitar,0.3703426122665405,0
53,100,0.8,761,0,46,DL_Remix_Guitar,6,13,DL_Remix_Guitar,0.45615628361701965,0
53,100,0.22272727272727272,408,1,47,DL_Remix_Guitar,6,4,DL_Remix_Guitar,0.9983231425285339,1
53,100,0.2818181818181818,804,1,47,DL_Remix_Guitar,6,5,DL_Remix_Guitar,0.5462137460708618,1
60,100,0.2,373,1,48,DL_Remix_Guitar,6,3,DL_Remix_Guitar,0.9990280866622925,1
57,100,0.1,703,1,48,DL_Remix_Guitar,6,2,DL_Remix_Guitar,0.3703300356864929,0
53,100,0.12272727272727273,751,0,48,DL_Remix_Guitar,6,2,DL_Remix_Guitar,0.45616868138313293,0
53,100,0.2409090909090909,418,1,49,DL_Remix_Guitar,6,4,DL_Remix_Guitar,0.9792238473892212,1
58,100,0.41818181818181815,43,1,50,DL_Remix_Guitar,6,7,DL_Remix_Guitar,0.9988439083099365,1
55,100,0.32272727272727275,364,1,50,DL_Remix_Guitar,6,5,DL_Remix_Guitar,0.1379820704460144,0
55,100,0.41818181818181815,440,0,50,DL_Remix_Guitar,6,7,DL_Remix_Guitar,0.16236655414104462,0
65,100,0.8818181818181818,619,0,50,DL_Remix_Guitar,6,14,DL_Remix_Guitar,0.19104620814323425,0
53,100,0.4409090909090909,861,1,50,DL_Remix_Guitar,6,7,DL_Remix_Guitar,0.2619592547416687,0
58,100,0.1590909090909091,144,1,51,DL_Remix_Guitar,6,3,DL_Remix_Guitar,0.9990094900131226,1
58,100,0.9772727272727273,383,1,51,DL_Remix_Guitar,6,15,DL_Remix_Guitar,0.23322580754756927,0
53,100,0.16363636363636364,751,1,51,DL_Remix_Guitar,6,3,DL_Remix_Guitar,0.27058497071266174,0
53,100,0.5409090909090909,801,0,51,DL_Remix_Guitar,6,9,DL_Remix_Guitar,0.3579223155975342,0
65,100,0.3181818181818182,40,1,52,DL_Remix_Guitar,6,5,DL_Remix_Guitar,0.9983004927635193,1
53,100,0.35909090909090907,188,0,52,DL_Remix_Guitar,6,6,DL_Remix_Guitar,0.044662151485681534,0
53,100,0.16363636363636364,334,0,52,DL_Remix_Guitar,6,3,DL_Remix_Guitar,0.03337089344859123,0
53,100,0.3,386,0,52,DL_Remix_Guitar,6,5,DL_Remix_Guitar,0.02694767899811268,0
53,100,0.21818181818181817,480,0,52,DL_Remix_Guitar,6,3,DL_Remix_Guitar,0.024083269760012627,0
53,100,0.2,536,0,52,DL_Remix_Guitar,6,3,DL_Remix_Guitar,0.024971896782517433,0
53,100,0.2590909090909091,646,0,52,DL_Remix_Guitar,6,4,DL_Remix_Guitar,0.03064587339758873,0
65,100,0.2409090909090909,804,0,52,DL_Remix_Guitar,6,4,DL_Remix_Guitar,0.04136834293603897,0
53,100,0.5,858,0,52,DL_Remix_Guitar,6,8,DL_Remix_Guitar,0.07206634432077408,0
53,100,0.4818181818181818,373,1,53,DL_Remix_Guitar,6,8,DL_Remix_Guitar,0.9986506104469299,1
53,100,0.23636363636363636,523,0,53,DL_Remix_Guitar,6,4,DL_Remix_Guitar,0.08797555416822433,0
53,100,0.11818181818181818,593,0,53,DL_Remix_Guitar,6,2,DL_Remix_Guitar,0.09298072755336761,0
53,100,0.1409090909090909,668,0,53,DL_Remix_Guitar,6,2,DL_Remix_Guitar,0.10994329303503036,0
53,100,0.12272727272727273,751,0,53,DL_Remix_Guitar,6,2,DL_Remix_Guitar,0.1286674290895462,0
53,100,0.1590909090909091,813,0,53,DL_Remix_Guitar,6,3,DL_Remix_Guitar,0.1822149008512497,0
53,100,0.3409090909090909,88,1,54,DL_Remix_Guitar,6,5,DL_Remix_Guitar,0.9990280866622925,1
53,100,0.17727272727272728,348,1,54,DL_Remix_Guitar,6,3,DL_Remix_Guitar,0.37033936381340027,0
58,100,0.22272727272727272,541,0,54,DL_Remix_Guitar,6,4,DL_Remix_Guitar,0.4561692774295807,0
55,100,0.2409090909090909,488,1,55,DL_Remix_Guitar,6,4,DL_Remix_Guitar,0.9983231425285339,1
53,100,0.1590909090909091,678,0,55,DL_Remix_Guitar,6,3,DL_Remix_Guitar,0.5462124347686768,1
58,100,0.18181818181818182,321,1,56,DL_Remix_Guitar,6,3,DL_Remix_Guitar,0.9990280866622925,1
53,100,0.2409090909090909,466,0,56,DL_Remix_Guitar,6,4,DL_Remix_Guitar,0.37034058570861816,0
53,100,0.9590909090909091,756,1,56,DL_Remix_Guitar,6,15,DL_Remix_Guitar,0.45616382360458374,0
53,100,0.2,91,1,57,DL_Remix_Guitar,6,3,DL_Remix_Guitar,0.9986506104469299,1
53,100,0.5590909090909091,141,0,57,DL_Remix_Guitar,6,9,DL_Remix_Guitar,0.08797766268253326,0
58,100,0.1409090909090909,263,0,57,DL_Remix_Guitar,6,2,DL_Remix_Guitar,0.09298325330018997,0
53,100,0.6,334,0,57,DL_Remix_Guitar,6,10,DL_Remix_Guitar,0.10994188487529755,0
53,100,0.23636363636363636,633,1,57,DL_Remix_Guitar,6,4,DL_Remix_Guitar,0.12866763770580292,0
53,100,0.2590909090909091,726,0,57,DL_Remix_Guitar,6,4,DL_Remix_Guitar,0.18220765888690948,0
65,100,0.16363636363636364,26,1,58,DL_Remix_Guitar,6,3,DL_Remix_Guitar,0.9986506104469299,1
53,100,0.11818181818181818,61,0,58,DL_Remix_Guitar,6,2,DL_Remix_Guitar,0.0879785493016243,0
65,100,0.4590909090909091,88,0,58,DL_Remix_Guitar,6,7,DL_Remix_Guitar,0.09298152476549149,0
53,100,0.22272727272727272,188,0,58,DL_Remix_Guitar,6,4,DL_Remix_Guitar,0.1099461168050766,0
53,100,0.4,241,0,58,DL_Remix_Guitar,6,6,DL_Remix_Guitar,0.12866821885108948,0
53,100,0.1590909090909091,458,0,58,DL_Remix_Guitar,6,3,DL_Remix_Guitar,0.18221357464790344,0
53,100,0.3181818181818182,18,1,59,DL_Remix_Guitar,6,5,DL_Remix_Guitar,0.9990094900131226,1
53,100,0.42272727272727273,101,0,59,DL_Remix_Guitar,6,7,DL_Remix_Guitar,0.23322682082653046,0
53,100,0.35909090909090907,558,1,59,DL_Remix_Guitar,6,6,DL_Remix_Guitar,0.2705780267715454,0
53,100,0.23636363636363636,788,0,59,DL_Remix_Guitar,6,4,DL_Remix_Guitar,0.3579241931438446,0
58,100,0.18181818181818182,91,1,60,DL_Remix_Guitar,6,3,DL_Remix_Guitar,0.9990094900131226,1
58,100,0.3181818181818182,501,1,60,DL_Remix_Guitar,6,5,DL_Remix_Guitar,0.23322787880897522,0
58,100,0.4,633,0,60,DL_Remix_Guitar,6,6,DL_Remix_Guitar,0.27057981491088867,0
58,100,0.1409090909090909,801,0,60,DL_Remix_Guitar,6,2,DL_Remix_Guitar,0.3579205274581909,0
53,100,0.18181818181818182,0,1,61,DL_Remix_Guitar,6,3,DL_Remix_Guitar,0.9983231425285339,1
53,100,0.16363636363636364,246,1,61,DL_Remix_Guitar,6,3,DL_Remix_Guitar,0.5462120175361633,1
58,100,0.11818181818181818,105,1,62,DL_Remix_Guitar,6,2,DL_Remix_Guitar,0.9990280866622925,1
53,100,0.5181818181818182,348,1,62,DL_Remix_Guitar,6,8,DL_Remix_Guitar,0.3703344762325287,0
53,100,0.1409090909090909,584,1,62,DL_Remix_Guitar,6,2,DL_Remix_Guitar,0.45616960525512695,0
63,100,0.2,4,1,63,DL_Remix_Guitar,6,3,DL_Remix_Guitar,0.9988439083099365,1
58,100,0.4,118,0,63,DL_Remix_Guitar,6,6,DL_Remix_Guitar,0.13798725605010986,0
58,100,0.18181818181818182,308,0,63,DL_Remix_Guitar,6,3,DL_Remix_Guitar,0.16236940026283264,0
53,100,0.5,378,0,63,DL_Remix_Guitar,6,8,DL_Remix_Guitar,0.19105547666549683,0
53,100,0.21818181818181817,493,0,63,DL_Remix_Guitar,6,3,DL_Remix_Guitar,0.2619704008102417,0
63,100,0.32272727272727275,189,1,65,DL_Remix_Guitar,6,5,DL_Remix_Guitar,0.979223370552063,1
53,100,0.2,92,1,66,DL_Remix_Guitar,6,3,DL_Remix_Guitar,0.9983232617378235,1
58,100,0.37727272727272726,612,1,66,DL_Remix_Guitar,6,6,DL_Remix_Guitar,0.5462139248847961,1
53,100,0.2590909090909091,493,1,67,DL_Remix_Guitar,6,4,DL_Remix_Guitar,0.9990094900131226,1
53,100,0.16363636363636364,553,0,67,DL_Remix_Guitar,6,3,DL_Remix_Guitar,0.23322699964046478,0
53,100,0.11818181818181818,593,0,67,DL_Remix_Guitar,6,2,DL_Remix_Guitar,0.27057671546936035,0
53,100,0.11818181818181818,624,0,67,DL_Remix_Guitar,6,2,DL_Remix_Guitar,0.3579273819923401,0
58,100,0.11818181818181818,66,1,68,DL_Remix_Guitar,6,2,DL_Remix_Guitar,0.9983231425285339,1
53,100,0.5409090909090909,686,1,68,DL_Remix_Guitar,6,9,DL_Remix_Guitar,0.5462107062339783,1
53,100,0.1409090909090909,273,1,69,DL_Remix_Guitar,6,2,DL_Remix_Guitar,0.9990094900131226,1
58,100,0.1409090909090909,399,0,69,DL_Remix_Guitar,6,2,DL_Remix_Guitar,0.2332310974597931,0
53,100,0.18181818181818182,430,0,69,DL_Remix_Guitar,6,3,DL_Remix_Guitar,0.27057743072509766,0
58,100,0.2409090909090909,470,0,69,DL_Remix_Guitar,6,4,DL_Remix_Guitar,0.3579258322715759,0
60,100,0.1409090909090909,316,1,70,DL_Remix_Guitar,6,2,DL_Remix_Guitar,0.9792243838310242,1
55,100,0.4818181818181818,682,1,71,DL_Remix_Guitar,6,8,DL_Remix_Guitar,0.9983232617378235,1
58,100,0.4,800,0,71,DL_Remix_Guitar,6,6,DL_Remix_Guitar,0.5462203025817871,1
55,100,0.22272727272727272,69,1,72,DL_Remix_Guitar,6,4,DL_Remix_Guitar,0.9990094900131226,1
58,100,0.3409090909090909,179,0,72,DL_Remix_Guitar,6,5,DL_Remix_Guitar,0.23323026299476624,0
65,100,0.2818181818181818,267,0,72,DL_Remix_Guitar,6,5,DL_Remix_Guitar,0.27057212591171265,0
65,100,0.21818181818181817,876,1,72,DL_Remix_Guitar,6,3,DL_Remix_Guitar,0.3579244911670685,0
65,100,0.18181818181818182,153,1,73,DL_Remix_Guitar,6,3,DL_Remix_Guitar,0.9792236089706421,1
65,100,0.2,326,1,74,DL_Remix_Guitar,6,3,DL_Remix_Guitar,0.9990094900131226,1
53,100,0.1,413,0,74,DL_Remix_Guitar,6,2,DL_Remix_Guitar,0.2332330197095871,0
55,100,0.1590909090909091,475,0,74,DL_Remix_Guitar,6,3,DL_Remix_Guitar,0.2705811560153961,0
65,100,0.2590909090909091,800,1,74,DL_Remix_Guitar,6,4,DL_Remix_Guitar,0.35792407393455505,0
65,100,0.5409090909090909,0,1,75,DL_Remix_Guitar,6,9,DL_Remix_Guitar,0.9990094900131226,1
53,100,0.11818181818181818,656,1,75,DL_Remix_Guitar,6,2,DL_Remix_Guitar,0.2332308441400528,0
65,100,0.1590909090909091,682,0,75,DL_Remix_Guitar,6,3,DL_Remix_Guitar,0.27058106660842896,0
53,100,0.35909090909090907,734,0,75,DL_Remix_Guitar,6,6,DL_Remix_Guitar,0.3579220771789551,0
63,100,0.2772727272727273,303,1,76,DL_Remix_Guitar,6,4,DL_Remix_Guitar,0.9988439083099365,1
53,100,0.22272727272727272,619,1,76,DL_Remix_Guitar,6,4,DL_Remix_Guitar,0.13798217475414276,0
53,100,0.11818181818181818,770,0,76,DL_Remix_Guitar,6,2,DL_Remix_Guitar,0.16236227750778198,0
53,100,0.11818181818181818,800,0,76,DL_Remix_Guitar,6,2,DL_Remix_Guitar,0.19105389714241028,0
53,100,0.4590909090909091,836,0,76,DL_Remix_Guitar,6,7,DL_Remix_Guitar,0.26196086406707764,0
53,100,0.33636363636363636,502,1,77,DL_Remix_Guitar,6,5,DL_Remix_Guitar,0.9990280866622925,1
53,100,0.4,637,0,77,DL_Remix_Guitar,6,6,DL_Remix_Guitar,0.3703339099884033,0
53,100,0.18181818181818182,729,0,77,DL_Remix_Guitar,6,3,DL_Remix_Guitar,0.4561750888824463,0
58,100,0.35909090909090907,119,1,78,DL_Remix_Guitar,6,6,DL_Remix_Guitar,0.9988439083099365,1
53,100,0.2772727272727273,383,1,78,DL_Remix_Guitar,6,4,DL_Remix_Guitar,0.13797800242900848,0
53,100,0.3409090909090909,527,0,78,DL_Remix_Guitar,6,5,DL_Remix_Guitar,0.16236045956611633,0
53,100,0.1409090909090909,703,0,78,DL_Remix_Guitar,6,2,DL_Remix_Guitar,0.19105388224124908,0
53,100,0.7,817,0,78,DL_Remix_Guitar,6,11,DL_Remix_Guitar,0.2619573473930359,0
53,100,0.3,106,1,79,DL_Remix_Guitar,6,5,DL_Remix_Guitar,0.9988439083099365,1
53,100,0.3,567,1,79,DL_Remix_Guitar,6,5,DL_Remix_Guitar,0.13798026740550995,0
53,100,0.17727272727272728,677,0,79,DL_Remix_Guitar,6,3,DL_Remix_Guitar,0.1623643934726715,0
57,100,0.3,716,0,79,DL_Remix_Guitar,6,5,DL_Remix_Guitar,0.19105371832847595,0
57,100,0.11818181818181818,813,0,79,DL_Remix_Guitar,6,2,DL_Remix_Guitar,0.2619698643684387,0
53,100,0.3,157,1,81,DL_Remix_Guitar,6,5,DL_Remix_Guitar,0.9986506104469299,1
58,100,0.22272727272727272,246,0,81,DL_Remix_Guitar,6,4,DL_Remix_Guitar,0.08797876536846161,0
53,100,0.2590909090909091,316,0,81,DL_Remix_Guitar,6,4,DL_Remix_Guitar,0.09298125654459,0
53,100,0.32272727272727275,453,0,81,DL_Remix_Guitar,6,5,DL_Remix_Guitar,0.10994559526443481,0
53,100,0.2,597,0,81,DL_Remix_Guitar,6,3,DL_Remix_Guitar,0.12866812944412231,0
53,100,0.3,766,0,81,DL_Remix_Guitar,6,5,DL_Remix_Guitar,0.18221551179885864,0
53,100,0.6818181818181818,26,1,82,DL_Remix_Guitar,6,11,DL_Remix_Guitar,0.9983735084533691,1
53,100,0.1590909090909091,193,0,82,DL_Remix_Guitar,6,3,DL_Remix_Guitar,0.05104941874742508,0
53,100,0.1,233,0,82,DL_Remix_Guitar,6,2,DL_Remix_Guitar,0.041610825806856155,0
53,100,0.1,343,0,82,DL_Remix_Guitar,6,2,DL_Remix_Guitar,0.037977684289216995,0
53,100,0.3181818181818182,506,0,82,DL_Remix_Guitar,6,5,DL_Remix_Guitar,0.03925785422325134,0
53,100,0.11818181818181818,612,0,82,DL_Remix_Guitar,6,2,DL_Remix_Guitar,0.04616229981184006,0
60,100,0.18181818181818182,770,0,82,DL_Remix_Guitar,6,3,DL_Remix_Guitar,0.0571289025247097,0
65,100,0.1590909090909091,857,0,82,DL_Remix_Guitar,6,3,DL_Remix_Guitar,0.09187144786119461,0
53,100,0.2409090909090909,13,1,83,DL_Remix_Guitar,6,4,DL_Remix_Guitar,0.9983231425285339,1
65,100,0.9818181818181818,100,0,83,DL_Remix_Guitar,6,15,DL_Remix_Guitar,0.5462093949317932,1
65,100,0.6409090909090909,739,1,85,DL_Remix_Guitar,6,10,DL_Remix_Guitar,0.9792238473892212,1
53,100,0.3181818181818182,303,1,86,DL_Remix_Guitar,6,5,DL_Remix_Guitar,0.9990280866622925,1
65,100,0.1,443,0,86,DL_Remix_Guitar,6,2,DL_Remix_Guitar,0.37034279108047485,0
65,100,0.5590909090909091,585,0,86,DL_Remix_Guitar,6,9,DL_Remix_Guitar,0.45616471767425537,0
65,100,0.17727272727272728,514,1,87,DL_Remix_Guitar,6,3,DL_Remix_Guitar,0.9988439083099365,1
53,100,0.22272727272727272,553,0,87,DL_Remix_Guitar,6,4,DL_Remix_Guitar,0.13797874748706818,0
53,100,0.38181818181818183,606,0,87,DL_Remix_Guitar,6,6,DL_Remix_Guitar,0.16236062347888947,0
65,100,0.42272727272727273,773,0,87,DL_Remix_Guitar,6,7,DL_Remix_Guitar,0.19105160236358643,0
53,100,0.5181818181818182,866,0,87,DL_Remix_Guitar,6,8,DL_Remix_Guitar,0.2619627118110657,0
65,100,0.4818181818181818,377,1,88,DL_Remix_Guitar,6,8,DL_Remix_Guitar,0.9990280866622925,1
70,100,0.18181818181818182,506,0,88,DL_Remix_Guitar,6,3,DL_Remix_Guitar,0.3703348636627197,0
53,100,0.23636363636363636,832,1,88,DL_Remix_Guitar,6,4,DL_Remix_Guitar,0.4561653435230255,0
61,100,0.1590909090909091,541,1,0,DL_Guitar,6,3,DL_Guitar,0.9792232513427734,1
53,100,0.13636363636363635,172,1,1,DL_Guitar,6,2,DL_Guitar,0.9983231425285339,1
53,100,0.16363636363636364,224,0,1,DL_Guitar,6,3,DL_Guitar,0.5462128520011902,1
56,100,0.2772727272727273,625,1,2,DL_Guitar,6,4,DL_Guitar,0.9792238473892212,1
80,100,0.12272727272727273,223,1,3,DL_Guitar,6,2,DL_Guitar,0.9983231425285339,1
53,100,0.38181818181818183,461,1,3,DL_Guitar,6,6,DL_Guitar,0.5462129712104797,1
61,100,0.12272727272727273,818,1,4,DL_Guitar,6,2,DL_Guitar,0.9792236089706421,1
61,100,0.16363636363636364,179,1,5,DL_Guitar,6,3,DL_Guitar,0.9986506104469299,1
65,100,0.11818181818181818,215,0,5,DL_Guitar,6,2,DL_Guitar,0.08797919750213623,0
61,100,0.2,260,0,5,DL_Guitar,6,3,DL_Guitar,0.09298515319824219,0
61,100,0.2818181818181818,355,0,5,DL_Guitar,6,5,DL_Guitar,0.1099509671330452,0
65,100,0.1409090909090909,581,0,5,DL_Guitar,6,2,DL_Guitar,0.1286741942167282,0
61,100,0.4590909090909091,660,0,5,DL_Guitar,6,7,DL_Guitar,0.18221832811832428,0
61,100,0.16363636363636364,201,1,6,DL_Guitar,6,3,DL_Guitar,0.9986506104469299,1
66,100,0.4818181818181818,268,0,6,DL_Guitar,6,8,DL_Guitar,0.0879792720079422,0
61,100,0.11818181818181818,383,0,6,DL_Guitar,6,2,DL_Guitar,0.09298404306173325,0
66,100,0.1590909090909091,475,0,6,DL_Guitar,6,3,DL_Guitar,0.10995402187108994,0
61,100,0.5409090909090909,703,0,6,DL_Guitar,6,9,DL_Guitar,0.12867115437984467,0
61,100,0.12272727272727273,839,0,6,DL_Guitar,6,2,DL_Guitar,0.1822194755077362,0
53,100,0.17727272727272728,734,1,7,DL_Guitar,6,3,DL_Guitar,0.9792237281799316,1
56,100,0.18181818181818182,598,1,8,DL_Guitar,6,3,DL_Guitar,0.979223906993866,1
54,100,0.1590909090909091,374,1,9,DL_Guitar,6,3,DL_Guitar,0.9990280866622925,1
54,100,0.11818181818181818,426,0,9,DL_Guitar,6,2,DL_Guitar,0.37034356594085693,0
54,100,0.5227272727272727,849,1,9,DL_Guitar,6,8,DL_Guitar,0.45616915822029114,0
56,100,0.5,660,1,10,DL_Guitar,6,8,DL_Guitar,0.9983231425285339,1
53,100,0.11818181818181818,823,0,10,DL_Guitar,6,2,DL_Guitar,0.5462165474891663,1
61,100,0.17727272727272728,338,1,11,DL_Guitar,6,3,DL_Guitar,0.9990094900131226,1
61,100,0.1,391,0,11,DL_Guitar,6,2,DL_Guitar,0.2332310527563095,0
54,100,0.1409090909090909,505,0,11,DL_Guitar,6,2,DL_Guitar,0.27058401703834534,0
54,100,0.5636363636363636,575,0,11,DL_Guitar,6,9,DL_Guitar,0.3579292595386505,0
54,100,0.21818181818181817,501,1,12,DL_Guitar,6,3,DL_Guitar,0.9983231425285339,1
53,100,0.2590909090909091,550,0,12,DL_Guitar,6,4,DL_Guitar,0.546207845211029,1
56,100,0.2409090909090909,8,1,13,DL_Guitar,6,4,DL_Guitar,0.9990280866622925,1
61,100,0.4409090909090909,527,1,13,DL_Guitar,6,7,DL_Guitar,0.37033534049987793,0
61,100,0.12272727272727273,642,0,13,DL_Guitar,6,2,DL_Guitar,0.4561689794063568,0
56,100,0.2590909090909091,44,1,14,DL_Guitar,6,4,DL_Guitar,0.9990094900131226,1
56,100,0.37727272727272726,391,1,14,DL_Guitar,6,6,DL_Guitar,0.2332301139831543,0
60,100,0.12272727272727273,510,0,14,DL_Guitar,6,2,DL_Guitar,0.2705932855606079,0
56,100,0.4,801,1,14,DL_Guitar,6,6,DL_Guitar,0.35791730880737305,0
56,100,0.1590909090909091,118,1,15,DL_Guitar,6,3,DL_Guitar,0.9990280866622925,1
56,100,0.2409090909090909,166,0,15,DL_Guitar,6,4,DL_Guitar,0.3703485131263733,0
68,100,0.21818181818181817,634,1,15,DL_Guitar,6,3,DL_Guitar,0.45616188645362854,0
54,100,0.2,123,1,16,DL_Guitar,6,3,DL_Guitar,0.9988439083099365,1
61,100,0.2,466,1,16,DL_Guitar,6,3,DL_Guitar,0.13798099756240845,0
53,100,0.1,540,0,16,DL_Guitar,6,2,DL_Guitar,0.16236308217048645,0
61,100,0.43636363636363634,677,0,16,DL_Guitar,6,7,DL_Guitar,0.1910523921251297,0
61,100,0.1,835,0,16,DL_Guitar,6,2,DL_Guitar,0.2619611918926239,0
61,100,0.35909090909090907,0,1,17,DL_Guitar,6,6,DL_Guitar,0.9986506104469299,1
61,100,0.1590909090909091,96,0,17,DL_Guitar,6,3,DL_Guitar,0.0879792720079422,0
63,100,0.1409090909090909,272,0,17,DL_Guitar,6,2,DL_Guitar,0.09298736602067947,0
56,100,0.17727272727272728,470,0,17,DL_Guitar,6,3,DL_Guitar,0.10995419323444366,0
56,100,0.2772727272727273,515,0,17,DL_Guitar,6,4,DL_Guitar,0.12867705523967743,0
56,100,0.17727272727272728,810,1,17,DL_Guitar,6,3,DL_Guitar,0.18222111463546753,0
56,100,0.12272727272727273,13,1,18,DL_Guitar,6,2,DL_Guitar,0.9982282519340515,1
56,100,0.11818181818181818,44,0,18,DL_Guitar,6,2,DL_Guitar,0.03940286114811897,0
61,100,0.16363636363636364,92,0,18,DL_Guitar,6,3,DL_Guitar,0.02685534581542015,0
53,100,0.1590909090909091,272,0,18,DL_Guitar,6,3,DL_Guitar,0.018831297755241394,0
61,100,0.1590909090909091,360,0,18,DL_Guitar,6,3,DL_Guitar,0.013654652051627636,0
54,100,0.12272727272727273,453,0,18,DL_Guitar,6,2,DL_Guitar,0.010813362896442413,0
54,100,0.38181818181818183,484,0,18,DL_Guitar,6,6,DL_Guitar,0.010073620826005936,0
61,100,0.2772727272727273,581,0,18,DL_Guitar,6,4,DL_Guitar,0.01171649619936943,0
54,100,0.2,650,0,18,DL_Guitar,6,3,DL_Guitar,0.01699332892894745,0
54,100,0.1590909090909091,712,0,18,DL_Guitar,6,3,DL_Guitar,0.027579858899116516,0
61,100,0.1409090909090909,752,0,18,DL_Guitar,6,2,DL_Guitar,0.054593026638031006,0
61,100,0.13636363636363635,216,1,19,DL_Guitar,6,2,DL_Guitar,0.9990279674530029,1
61,100,0.43636363636363634,281,0,19,DL_Guitar,6,7,DL_Guitar,0.37033799290657043,0
63,100,0.2590909090909091,700,1,19,DL_Guitar,6,4,DL_Guitar,0.4561830163002014,0
61,100,0.5,193,1,20,DL_Guitar,6,8,DL_Guitar,0.9990280866622925,1
60,100,0.11818181818181818,501,1,20,DL_Guitar,6,2,DL_Guitar,0.37034615874290466,0
61,100,0.18181818181818182,835,1,20,DL_Guitar,6,3,DL_Guitar,0.4561656415462494,0
63,100,0.2,497,1,21,DL_Guitar,6,3,DL_Guitar,0.9792240262031555,1
61,100,0.1409090909090909,581,1,22,DL_Guitar,6,2,DL_Guitar,0.9990280866622925,1
61,100,0.2409090909090909,638,0,22,DL_Guitar,6,4,DL_Guitar,0.3703353703022003,0
61,100,0.2409090909090909,735,0,22,DL_Guitar,6,4,DL_Guitar,0.45616570115089417,0
56,100,0.22272727272727272,233,1,23,DL_Guitar,6,4,DL_Guitar,0.9792234897613525,1
61,100,0.21818181818181817,339,1,24,DL_Guitar,6,3,DL_Guitar,0.9988439083099365,1
61,100,0.43636363636363634,413,0,24,DL_Guitar,6,7,DL_Guitar,0.13798335194587708,0
61,100,0.5772727272727273,625,0,24,DL_Guitar,6,9,DL_Guitar,0.1623680144548416,0
61,100,0.11818181818181818,770,0,24,DL_Guitar,6,2,DL_Guitar,0.1910620778799057,0
61,100,0.5818181818181818,835,0,24,DL_Guitar,6,9,DL_Guitar,0.2619648575782776,0
61,100,0.2409090909090909,88,1,25,DL_Guitar,6,4,DL_Guitar,0.9988439083099365,1
54,100,0.5409090909090909,144,0,25,DL_Guitar,6,9,DL_Guitar,0.13798460364341736,0
54,100,0.4,295,0,25,DL_Guitar,6,6,DL_Guitar,0.16236457228660583,0
54,100,0.5590909090909091,413,0,25,DL_Guitar,6,9,DL_Guitar,0.1910601258277893,0
54,100,0.11818181818181818,550,0,25,DL_Guitar,6,2,DL_Guitar,0.2619677484035492,0
57,100,0.1,272,1,26,DL_Guitar,6,2,DL_Guitar,0.9792241454124451,1
61,100,1.0636363636363637,26,1,27,DL_Guitar,6,15,DL_Guitar,0.9990094900131226,1
61,100,0.11818181818181818,339,1,27,DL_Guitar,6,2,DL_Guitar,0.23323547840118408,0
61,100,0.2,638,1,27,DL_Guitar,6,3,DL_Guitar,0.27057912945747375,0
61,100,0.4,773,0,27,DL_Guitar,6,6,DL_Guitar,0.35792773962020874,0
60,100,0.2590909090909091,250,1,28,DL_Guitar,6,4,DL_Guitar,0.9988439083099365,1
60,100,0.2590909090909091,382,0,28,DL_Guitar,6,4,DL_Guitar,0.1379813253879547,0
60,100,0.13636363636363635,457,0,28,DL_Guitar,6,2,DL_Guitar,0.1623658984899521,0
53,100,0.5772727272727273,501,0,28,DL_Guitar,6,9,DL_Guitar,0.19104959070682526,0
53,100,0.22272727272727272,673,0,28,DL_Guitar,6,4,DL_Guitar,0.26196467876434326,0
53,100,0.11818181818181818,0,1,29,DL_Guitar,6,2,DL_Guitar,0.9990094900131226,1
54,100,0.11818181818181818,611,1,29,DL_Guitar,6,2,DL_Guitar,0.23323312401771545,0
54,100,0.12272727272727273,686,0,29,DL_Guitar,6,2,DL_Guitar,0.27058669924736023,0
54,100,0.41818181818181815,725,0,29,DL_Guitar,6,7,DL_Guitar,0.35792669653892517,0
54,100,0.7181818181818181,65,1,30,DL_Guitar,6,11,DL_Guitar,0.9988439083099365,1
54,100,0.2,246,0,30,DL_Guitar,6,3,DL_Guitar,0.13798153400421143,0
53,100,0.23636363636363636,721,1,30,DL_Guitar,6,4,DL_Guitar,0.16236424446105957,0
60,100,0.1,787,0,30,DL_Guitar,6,2,DL_Guitar,0.1910565048456192,0
53,100,0.5363636363636364,831,0,30,DL_Guitar,6,9,DL_Guitar,0.2619583308696747,0
65,100,0.12272727272727273,100,1,31,DL_Guitar,6,2,DL_Guitar,0.9988439083099365,1
53,100,0.9181818181818182,127,0,31,DL_Guitar,6,15,DL_Guitar,0.13797883689403534,0
53,100,0.4,356,0,31,DL_Guitar,6,6,DL_Guitar,0.16236382722854614,0
61,100,0.4,488,0,31,DL_Guitar,6,6,DL_Guitar,0.19105485081672668,0
61,100,0.8,642,0,31,DL_Guitar,6,13,DL_Guitar,0.26195961236953735,0
61,100,0.18181818181818182,0,1,32,DL_Guitar,6,3,DL_Guitar,0.9988439083099365,1
61,100,0.13636363636363635,171,0,32,DL_Guitar,6,2,DL_Guitar,0.137983039021492,0
54,100,0.1409090909090909,453,1,32,DL_Guitar,6,2,DL_Guitar,0.16236984729766846,0
61,100,0.11818181818181818,668,0,32,DL_Guitar,6,2,DL_Guitar,0.19106170535087585,0
56,100,0.11818181818181818,845,0,32,DL_Guitar,6,2,DL_Guitar,0.26196587085723877,0
53,100,0.22272727272727272,211,1,33,DL_Guitar,6,4,DL_Guitar,0.9986506104469299,1
53,100,0.5409090909090909,321,0,33,DL_Guitar,6,9,DL_Guitar,0.08797843009233475,0
53,100,0.42272727272727273,444,0,33,DL_Guitar,6,7,DL_Guitar,0.09298224747180939,0
61,100,0.2590909090909091,633,0,33,DL_Guitar,6,4,DL_Guitar,0.10994675010442734,0
53,100,0.11818181818181818,713,0,33,DL_Guitar,6,2,DL_Guitar,0.12866893410682678,0
70,100,0.12272727272727273,774,0,33,DL_Guitar,6,2,DL_Guitar,0.1822177916765213,0
56,100,0.11818181818181818,31,1,34,DL_Guitar,6,2,DL_Guitar,0.9986506104469299,1
70,100,0.1,105,0,34,DL_Guitar,6,2,DL_Guitar,0.08798088133335114,0
54,100,0.18181818181818182,201,0,34,DL_Guitar,6,3,DL_Guitar,0.09298660606145859,0
54,100,0.6227272727272727,289,0,34,DL_Guitar,6,10,DL_Guitar,0.10994698852300644,0
54,100,0.1409090909090909,619,1,34,DL_Guitar,6,2,DL_Guitar,0.12866835296154022,0
54,100,0.3409090909090909,694,0,34,DL_Guitar,6,5,DL_Guitar,0.1822168081998825,0
61,100,0.11818181818181818,118,1,35,DL_Guitar,6,2,DL_Guitar,0.9984879493713379,1
53,100,0.2409090909090909,308,0,35,DL_Guitar,6,4,DL_Guitar,0.06335362792015076,0
53,100,0.4,421,0,35,DL_Guitar,6,6,DL_Guitar,0.0582895390689373,0
65,100,0.12272727272727273,509,0,35,DL_Guitar,6,2,DL_Guitar,0.06136161461472511,0
60,100,0.2,576,0,35,DL_Guitar,6,3,DL_Guitar,0.0716843381524086,0
60,100,0.1409090909090909,625,0,35,DL_Guitar,6,2,DL_Guitar,0.08473511040210724,0
53,100,1.018181818181818,691,0,35,DL_Guitar,6,15,DL_Guitar,0.1263468712568283,0
61,100,0.38181818181818183,69,1,36,DL_Guitar,6,6,DL_Guitar,0.9990280866622925,1
61,100,0.2636363636363636,356,1,36,DL_Guitar,6,4,DL_Guitar,0.37033554911613464,0
54,100,0.8227272727272728,421,0,36,DL_Guitar,6,13,DL_Guitar,0.4561710059642792,0
54,100,0.2409090909090909,153,1,37,DL_Guitar,6,4,DL_Guitar,0.9990094900131226,1
54,100,0.11818181818181818,238,0,37,DL_Guitar,6,2,DL_Guitar,0.233226016163826,0
54,100,0.1590909090909091,298,0,37,DL_Guitar,6,3,DL_Guitar,0.2705767750740051,0
54,100,0.11818181818181818,418,0,37,DL_Guitar,6,2,DL_Guitar,0.35792598128318787,0
56,100,0.5,40,1,38,DL_Guitar,6,8,DL_Guitar,0.9990280866622925,1
54,100,0.1590909090909091,713,1,38,DL_Guitar,6,3,DL_Guitar,0.3703508675098419,0
61,100,0.7818181818181819,791,0,38,DL_Guitar,6,13,DL_Guitar,0.45615771412849426,0
61,100,0.5590909090909091,141,1,39,DL_Guitar,6,9,DL_Guitar,0.9990094900131226,1
61,100,0.3409090909090909,364,0,39,DL_Guitar,6,5,DL_Guitar,0.23322725296020508,0
65,100,0.16363636363636364,531,0,39,DL_Guitar,6,3,DL_Guitar,0.27058127522468567,0
61,100,0.6181818181818182,568,0,39,DL_Guitar,6,10,DL_Guitar,0.3579238951206207,0
56,100,0.12272727272727273,48,1,40,DL_Guitar,6,2,DL_Guitar,0.9990094900131226,1
60,100,0.11818181818181818,295,1,40,DL_Guitar,6,2,DL_Guitar,0.2332352250814438,0
53,100,0.5409090909090909,399,0,40,DL_Guitar,6,9,DL_Guitar,0.27058145403862,0
61,100,0.5181818181818182,703,1,40,DL_Guitar,6,8,DL_Guitar,0.35792121291160583,0
61,100,0.5590909090909091,193,1,41,DL_Guitar,6,9,DL_Guitar,0.9990094900131226,1
61,100,0.3,396,0,41,DL_Guitar,6,5,DL_Guitar,0.23322956264019012,0
61,100,0.41818181818181815,691,1,41,DL_Guitar,6,7,DL_Guitar,0.2705852687358856,0
61,100,0.9409090909090909,804,0,41,DL_Guitar,6,15,DL_Guitar,0.3579234778881073,0
56,100,0.11818181818181818,303,1,42,DL_Guitar,6,2,DL_Guitar,0.9983231425285339,1
53,100,0.5,638,1,42,DL_Guitar,6,8,DL_Guitar,0.5462125539779663,1
53,100,0.21818181818181817,0,1,43,DL_Guitar,6,3,DL_Guitar,0.9990094900131226,1
61,100,0.4636363636363636,48,0,43,DL_Guitar,6,7,DL_Guitar,0.23322860896587372,0
61,100,0.1590909090909091,373,1,43,DL_Guitar,6,3,DL_Guitar,0.27058303356170654,0
61,100,0.11818181818181818,448,0,43,DL_Guitar,6,2,DL_Guitar,0.3579268753528595,0
56,100,0.16363636363636364,311,1,44,DL_Guitar,6,3,DL_Guitar,0.9990280866622925,1
61,100,0.1409090909090909,660,1,44,DL_Guitar,6,2,DL_Guitar,0.37033379077911377,0
61,100,0.2409090909090909,694,0,44,DL_Guitar,6,4,DL_Guitar,0.4561672806739807,0
61,100,0.4409090909090909,118,1,45,DL_Guitar,6,7,DL_Guitar,0.9990094900131226,1
61,100,0.2,426,1,45,DL_Guitar,6,3,DL_Guitar,0.23323532938957214,0
54,100,0.1409090909090909,603,0,45,DL_Guitar,6,2,DL_Guitar,0.27058321237564087,0
54,100,0.1,751,0,45,DL_Guitar,6,2,DL_Guitar,0.35793861746788025,0
56,100,0.1590909090909091,96,1,46,DL_Guitar,6,3,DL_Guitar,0.9983231425285339,1
56,100,0.2,466,1,46,DL_Guitar,6,3,DL_Guitar,0.5462182760238647,1
58,100,0.1409090909090909,224,1,47,DL_Guitar,6,2,DL_Guitar,0.9990280866622925,1
61,100,0.18181818181818182,396,0,47,DL_Guitar,6,3,DL_Guitar,0.37033018469810486,0
58,100,0.1,593,0,47,DL_Guitar,6,2,DL_Guitar,0.4561694264411926,0
56,100,0.1590909090909091,260,1,48,DL_Guitar,6,3,DL_Guitar,0.9988439083099365,1
56,100,0.2818181818181818,518,1,48,DL_Guitar,6,5,DL_Guitar,0.13798362016677856,0
56,100,0.17727272727272728,633,0,48,DL_Guitar,6,3,DL_Guitar,0.16236421465873718,0
61,100,0.1409090909090909,694,0,48,DL_Guitar,6,2,DL_Guitar,0.19105811417102814,0
63,100,0.18181818181818182,770,0,48,DL_Guitar,6,3,DL_Guitar,0.26196303963661194,0
56,100,0.2590909090909091,260,1,49,DL_Guitar,6,4,DL_Guitar,0.9983231425285339,1
61,100,0.2590909090909091,633,1,49,DL_Guitar,6,4,DL_Guitar,0.546216607093811,1
54,100,0.3409090909090909,188,1,50,DL_Guitar,6,5,DL_Guitar,0.9986507296562195,1
54,100,0.1590909090909091,405,0,50,DL_Guitar,6,3,DL_Guitar,0.08798030018806458,0
66,100,0.12272727272727273,444,0,50,DL_Guitar,6,2,DL_Guitar,0.09298788011074066,0
56,100,0.16363636363636364,509,0,50,DL_Guitar,6,3,DL_Guitar,0.10995113104581833,0
56,100,0.5227272727272727,751,1,50,DL_Guitar,6,8,DL_Guitar,0.12867523729801178,0
61,100,0.2590909090909091,875,0,50,DL_Guitar,6,4,DL_Guitar,0.1822214424610138,0
56,100,0.2590909090909091,56,1,51,DL_Guitar,6,4,DL_Guitar,0.9986506104469299,1
56,100,0.5181818181818182,308,1,51,DL_Guitar,6,8,DL_Guitar,0.08798005431890488,0
56,100,0.3,444,0,51,DL_Guitar,6,5,DL_Guitar,0.09298896789550781,0
56,100,0.4409090909090909,550,0,51,DL_Guitar,6,7,DL_Guitar,0.10995182394981384,0
56,100,0.38181818181818183,686,0,51,DL_Guitar,6,6,DL_Guitar,0.12867650389671326,0
56,100,0.4590909090909091,791,0,51,DL_Guitar,6,7,DL_Guitar,0.18221811950206757,0
56,100,0.4772727272727273,61,1,52,DL_Guitar,6,8,DL_Guitar,0.9990280866622925,1
56,100,0.18181818181818182,233,0,52,DL_Guitar,6,3,DL_Guitar,0.3703400492668152,0
54,100,0.3,311,0,52,DL_Guitar,6,5,DL_Guitar,0.4561712443828583,0
56,100,0.2,40,1,53,DL_Guitar,6,3,DL_Guitar,0.9986507296562195,1
56,100,0.18181818181818182,110,0,53,DL_Guitar,6,3,DL_Guitar,0.08798076212406158,0
56,100,0.2590909090909091,281,0,53,DL_Guitar,6,4,DL_Guitar,0.09298443049192429,0
63,100,0.11818181818181818,373,0,53,DL_Guitar,6,2,DL_Guitar,0.10995028913021088,0
56,100,0.16363636363636364,774,1,53,DL_Guitar,6,3,DL_Guitar,0.12867163121700287,0
56,100,0.22272727272727272,848,0,53,DL_Guitar,6,4,DL_Guitar,0.18220941722393036,0
61,100,0.2409090909090909,48,1,54,DL_Guitar,6,4,DL_Guitar,0.9988439083099365,1
56,100,0.2,110,0,54,DL_Guitar,6,3,DL_Guitar,0.13798050582408905,0
66,100,0.11818181818181818,703,1,54,DL_Guitar,6,2,DL_Guitar,0.1623639166355133,0
61,100,0.2,810,0,54,DL_Guitar,6,3,DL_Guitar,0.19105011224746704,0
54,100,0.38181818181818183,861,0,54,DL_Guitar,6,6,DL_Guitar,0.26196742057800293,0
56,100,0.36363636363636365,818,1,55,DL_Guitar,6,6,DL_Guitar,0.979223906993866,1
61,100,2.040909090909091,268,1,56,DL_Guitar,6,15,DL_Guitar,0.9983230233192444,1
61,100,0.5772727272727273,866,1,56,DL_Guitar,6,9,DL_Guitar,0.5462222099304199,1
56,100,0.21818181818181817,361,1,58,DL_Guitar,6,3,DL_Guitar,0.9983231425285339,1
61,100,1.759090909090909,550,0,58,DL_Guitar,6,15,DL_Guitar,0.5462054014205933,1
61,100,0.1590909090909091,215,1,59,DL_Guitar,6,3,DL_Guitar,0.9986506104469299,1
61,100,0.1409090909090909,373,0,59,DL_Guitar,6,2,DL_Guitar,0.08798129111528397,0
56,100,0.22272727272727272,541,0,59,DL_Guitar,6,4,DL_Guitar,0.09298443049192429,0
57,100,0.1590909090909091,726,0,59,DL_Guitar,6,3,DL_Guitar,0.10995166003704071,0
57,100,0.35909090909090907,783,0,59,DL_Guitar,6,6,DL_Guitar,0.12867207825183868,0
53,100,0.2,875,0,59,DL_Guitar,6,3,DL_Guitar,0.18222317099571228,0
57,100,0.2409090909090909,48,1,60,DL_Guitar,6,4,DL_Guitar,0.9990094900131226,1
61,100,0.23636363636363636,171,0,60,DL_Guitar,6,4,DL_Guitar,0.2332470715045929,0
61,100,1.1181818181818182,228,0,60,DL_Guitar,6,15,DL_Guitar,0.27059727907180786,0
61,100,2.2409090909090907,673,1,60,DL_Guitar,6,15,DL_Guitar,0.3579249978065491,0
61,100,0.5818181818181818,364,1,61,DL_Guitar,6,9,DL_Guitar,0.9983231425285339,1
61,100,0.3409090909090909,531,0,61,DL_Guitar,6,5,DL_Guitar,0.5462154746055603,1
61,100,0.8818181818181818,461,1,62,DL_Guitar,6,14,DL_Guitar,0.9990280866622925,1
61,100,0.5,681,0,62,DL_Guitar,6,8,DL_Guitar,0.37033945322036743,0
61,100,0.2636363636363636,796,0,62,DL_Guitar,6,4,DL_Guitar,0.45617204904556274,0
61,100,1.9636363636363636,48,1,63,DL_Guitar,6,15,DL_Guitar,0.9983230233192444,1
61,100,0.2409090909090909,576,1,63,DL_Guitar,6,4,DL_Guitar,0.5462247729301453,1
61,100,0.5409090909090909,440,1,64,DL_Guitar,6,9,DL_Guitar,0.9990280866622925,1
56,100,0.4,713,1,64,DL_Guitar,6,6,DL_Guitar,0.3703484833240509,0
56,100,0.2772727272727273,853,0,64,DL_Guitar,6,4,DL_Guitar,0.45617184042930603,0
53,100,0.9590909090909091,470,1,65,DL_Guitar,6,15,DL_Guitar,0.9983231425285339,1
54,100,0.1590909090909091,805,1,65,DL_Guitar,6,3,DL_Guitar,0.5462225675582886,1
54,100,0.11818181818181818,40,1,66,DL_Guitar,6,2,DL_Guitar,0.9988439083099365,1
54,100,0.3,106,0,66,DL_Guitar,6,5,DL_Guitar,0.1379803717136383,0
54,100,0.2590909090909091,273,0,66,DL_Guitar,6,4,DL_Guitar,0.16236329078674316,0
54,100,0.1409090909090909,404,0,66,DL_Guitar,6,2,DL_Guitar,0.19105666875839233,0
56,100,0.18181818181818182,729,1,66,DL_Guitar,6,3,DL_Guitar,0.2619626820087433,0
56,100,0.740909090909091,113,1,67,DL_Guitar,6,12,DL_Guitar,0.9990094900131226,1
63,100,0.2409090909090909,377,1,67,DL_Guitar,6,4,DL_Guitar,0.23323483765125275,0
56,100,0.22272727272727272,487,0,67,DL_Guitar,6,4,DL_Guitar,0.2705851197242737,0
65,100,0.1409090909090909,760,1,67,DL_Guitar,6,2,DL_Guitar,0.35793250799179077,0
54,100,0.4,163,1,68,DL_Guitar,6,6,DL_Guitar,0.9990094900131226,1
54,100,0.9590909090909091,263,0,68,DL_Guitar,6,15,DL_Guitar,0.2332324981689453,0
54,100,0.3,480,0,68,DL_Guitar,6,5,DL_Guitar,0.27058517932891846,0
54,100,0.11818181818181818,624,0,68,DL_Guitar,6,2,DL_Guitar,0.3579295873641968,0
53,100,0.18181818181818182,110,1,70,DL_Guitar,6,3,DL_Guitar,0.9986506104469299,1
53,100,0.4590909090909091,176,0,70,DL_Guitar,6,7,DL_Guitar,0.08797809481620789,0
53,100,0.2590909090909091,316,0,70,DL_Guitar,6,4,DL_Guitar,0.09298337996006012,0
54,100,0.2,633,1,70,DL_Guitar,6,3,DL_Guitar,0.10995108634233475,0
54,100,0.1409090909090909,760,0,70,DL_Guitar,6,2,DL_Guitar,0.1286696046590805,0
54,100,0.3,813,0,70,DL_Guitar,6,5,DL_Guitar,0.1822156310081482,0
56,100,0.7227272727272728,356,1,71,DL_Guitar,6,12,DL_Guitar,0.9983231425285339,1
56,100,0.2,800,1,71,DL_Guitar,6,3,DL_Guitar,0.5462201237678528,1
54,100,0.3181818181818182,0,1,73,DL_Guitar,6,5,DL_Guitar,0.9990094900131226,1
54,100,0.11818181818181818,83,0,73,DL_Guitar,6,2,DL_Guitar,0.23322591185569763,0
61,100,0.3,606,1,73,DL_Guitar,6,5,DL_Guitar,0.2705727517604828,0
61,100,0.18181818181818182,695,0,73,DL_Guitar,6,3,DL_Guitar,0.3579263985157013,0
65,100,0.1409090909090909,449,1,74,DL_Guitar,6,2,DL_Guitar,0.9990280866622925,1
61,100,0.4,506,0,74,DL_Guitar,6,6,DL_Guitar,0.370339035987854,0
61,100,0.2409090909090909,783,1,74,DL_Guitar,6,4,DL_Guitar,0.45616117119789124,0
57,100,0.35909090909090907,140,1,75,DL_Guitar,6,6,DL_Guitar,0.9986506104469299,1
54,100,0.12272727272727273,255,0,75,DL_Guitar,6,2,DL_Guitar,0.08798127621412277,0
54,100,0.22272727272727272,422,0,75,DL_Guitar,6,4,DL_Guitar,0.09298398345708847,0
54,100,0.3,546,0,75,DL_Guitar,6,5,DL_Guitar,0.1099468320608139,0
61,100,0.1409090909090909,650,0,75,DL_Guitar,6,2,DL_Guitar,0.12866654992103577,0
61,100,0.17727272727272728,722,0,75,DL_Guitar,6,3,DL_Guitar,0.18221521377563477,0
56,100,0.11818181818181818,0,1,76,DL_Guitar,6,2,DL_Guitar,0.9984879493713379,1
53,100,1.1,100,0,76,DL_Guitar,6,15,DL_Guitar,0.06335103511810303,0
60,100,0.4772727272727273,370,1,76,DL_Guitar,6,8,DL_Guitar,0.05828959122300148,0
57,100,0.12272727272727273,509,0,76,DL_Guitar,6,2,DL_Guitar,0.06136012822389603,0
63,100,0.1,550,0,76,DL_Guitar,6,2,DL_Guitar,0.07168170809745789,0
61,100,0.3181818181818182,770,0,76,DL_Guitar,6,5,DL_Guitar,0.0847371444106102,0
60,100,0.2409090909090909,839,0,76,DL_Guitar,6,4,DL_Guitar,0.12635336816310883,0
56,100,0.3409090909090909,110,1,77,DL_Guitar,6,5,DL_Guitar,0.9984879493713379,1
61,100,0.2,356,1,77,DL_Guitar,6,3,DL_Guitar,0.06335224956274033,0
54,100,0.1590909090909091,413,0,77,DL_Guitar,6,3,DL_Guitar,0.05828865244984627,0
54,100,0.1,466,0,77,DL_Guitar,6,2,DL_Guitar,0.061362188309431076,0
54,100,0.3409090909090909,514,0,77,DL_Guitar,6,5,DL_Guitar,0.07168179750442505,0
61,100,0.17727272727272728,603,0,77,DL_Guitar,6,3,DL_Guitar,0.08473237603902817,0
61,100,0.21818181818181817,779,0,77,DL_Guitar,6,3,DL_Guitar,0.12635184824466705,0
61,100,0.9181818181818182,119,1,78,DL_Guitar,6,15,DL_Guitar,0.9983231425285339,1
56,100,0.12272727272727273,466,1,78,DL_Guitar,6,2,DL_Guitar,0.5462155938148499,1
61,100,0.2818181818181818,333,1,79,DL_Guitar,6,5,DL_Guitar,0.9988439083099365,1
61,100,0.16363636363636364,399,0,79,DL_Guitar,6,3,DL_Guitar,0.13798069953918457,0
54,100,0.3181818181818182,449,0,79,DL_Guitar,6,5,DL_Guitar,0.16236072778701782,0
54,100,0.11818181818181818,580,0,79,DL_Guitar,6,2,DL_Guitar,0.19105397164821625,0
54,100,0.1,624,0,79,DL_Guitar,6,2,DL_Guitar,0.2619621455669403,0
54,100,0.35909090909090907,9,1,80,DL_Guitar,6,6,DL_Guitar,0.9990094900131226,1
54,100,0.21818181818181817,153,0,80,DL_Guitar,6,3,DL_Guitar,0.23322759568691254,0
61,100,0.13636363636363635,436,1,80,DL_Guitar,6,2,DL_Guitar,0.2705771327018738,0
63,100,0.32272727272727275,606,0,80,DL_Guitar,6,5,DL_Guitar,0.35792773962020874,0
56,100,0.2409090909090909,307,1,81,DL_Guitar,6,4,DL_Guitar,0.9990280866622925,1
56,100,0.1,553,1,81,DL_Guitar,6,2,DL_Guitar,0.3703480362892151,0
56,100,0.33636363636363636,590,0,81,DL_Guitar,6,5,DL_Guitar,0.45615747570991516,0
54,100,0.1409090909090909,47,1,84,DL_Guitar,6,2,DL_Guitar,0.9983231425285339,1
54,100,0.22272727272727272,136,0,84,DL_Guitar,6,4,DL_Guitar,0.546213686466217,1
56,100,0.1,153,1,85,DL_Guitar,6,2,DL_Guitar,0.9792234897613525,1
59,100,0.2,443,1,86,DL_Guitar,6,3,DL_Guitar,0.9990280866622925,1
55,100,0.1409090909090909,572,0,86,DL_Guitar,6,2,DL_Guitar,0.3703416883945465,0
57,100,0.36363636363636365,796,0,86,DL_Guitar,6,6,DL_Guitar,0.45616936683654785,0
57,100,0.42272727272727273,136,1,87,DL_Guitar,6,7,DL_Guitar,0.9990280866622925,1
57,100,0.1,413,1,87,DL_Guitar,6,2,DL_Guitar,0.3703504502773285,0
57,100,0.16363636363636364,443,0,87,DL_Guitar,6,3,DL_Guitar,0.45618122816085815,0
59,100,0.2590909090909091,373,1,88,DL_Guitar,6,4,DL_Guitar,0.9990280866622925,1
55,100,0.18181818181818182,550,0,88,DL_Guitar,6,3,DL_Guitar,0.3703368306159973,0
62,100,0.2818181818181818,637,0,88,DL_Guitar,6,5,DL_Guitar,0.4561684727668762,0
57,100,0.9409090909090909,110,1,89,DL_Guitar,6,15,DL_Guitar,0.9990094900131226,1
57,100,0.6818181818181818,619,1,89,DL_Guitar,6,11,DL_Guitar,0.2332320362329483,0
57,100,0.16363636363636364,773,0,89,DL_Guitar,6,3,DL_Guitar,0.27058300375938416,0
57,100,0.1,866,0,89,DL_Guitar,6,2,DL_Guitar,0.3579312860965729,0
57,100,0.21818181818181817,53,1,90,DL_Guitar,6,3,DL_Guitar,0.9988439083099365,1
62,100,0.2409090909090909,157,0,90,DL_Guitar,6,4,DL_Guitar,0.13798481225967407,0
57,100,0.1590909090909091,294,0,90,DL_Guitar,6,3,DL_Guitar,0.16236549615859985,0
57,100,0.1,540,1,90,DL_Guitar,6,2,DL_Guitar,0.1910664290189743,0
55,100,0.41818181818181815,779,1,90,DL_Guitar,6,7,DL_Guitar,0.2619713842868805,0
61,100,0.759090909090909,347,1,91,DL_Guitar,6,12,DL_Guitar,0.9983231425285339,1
54,100,0.9409090909090909,836,1,91,DL_Guitar,6,15,DL_Guitar,0.5462207198143005,1
54,100,0.6818181818181818,255,1,92,DL_Guitar,6,11,DL_Guitar,0.9984880685806274,1
62,100,0.12272727272727273,430,0,92,DL_Guitar,6,2,DL_Guitar,0.06335330009460449,0
54,100,0.3,466,0,92,DL_Guitar,6,5,DL_Guitar,0.05829166620969772,0
59,100,0.1409090909090909,536,0,92,DL_Guitar,6,2,DL_Guitar,0.06136399880051613,0
54,100,0.1,612,0,92,DL_Guitar,6,2,DL_Guitar,0.07168417423963547,0
54,100,0.1590909090909091,656,0,92,DL_Guitar,6,3,DL_Guitar,0.08473847806453705,0
66,100,0.1,826,0,92,DL_Guitar,6,2,DL_Guitar,0.12635460495948792,0
55,100,0.2409090909090909,453,1,93,DL_Guitar,6,4,DL_Guitar,0.9990280866622925,1
57,100,0.21818181818181817,603,0,93,DL_Guitar,6,3,DL_Guitar,0.37033534049987793,0
57,100,0.11818181818181818,713,0,93,DL_Guitar,6,2,DL_Guitar,0.4561772048473358,0
54,100,0.2590909090909091,210,1,94,DL_Guitar,6,4,DL_Guitar,0.9986507296562195,1
59,100,0.18181818181818182,276,0,94,DL_Guitar,6,3,DL_Guitar,0.08797837048768997,0
54,100,0.2409090909090909,320,0,94,DL_Guitar,6,4,DL_Guitar,0.09298529475927353,0
59,100,0.1,457,0,94,DL_Guitar,6,2,DL_Guitar,0.10995068401098251,0
54,100,0.2818181818181818,637,0,94,DL_Guitar,6,5,DL_Guitar,0.12866860628128052,0
54,100,0.2818181818181818,826,0,94,DL_Guitar,6,5,DL_Guitar,0.1822206974029541,0
59,100,0.4409090909090909,197,1,95,DL_Guitar,6,7,DL_Guitar,0.9983231425285339,1
59,100,0.42272727272727273,826,1,95,DL_Guitar,6,7,DL_Guitar,0.5462163090705872,1
57,100,0.2818181818181818,110,1,96,DL_Guitar,6,5,DL_Guitar,0.9990280866622925,1
57,100,0.1,179,0,96,DL_Guitar,6,2,DL_Guitar,0.3703470528125763,0
57,100,0.4590909090909091,206,0,96,DL_Guitar,6,7,DL_Guitar,0.45616817474365234,0
60,100,0.18181818181818182,378,1,0,DL_Remix_Guitar,6,3,DL_Remix_Guitar,0.9990280866622925,1
55,100,0.37727272727272726,546,0,0,DL_Remix_Guitar,6,6,DL_Remix_Guitar,0.3703348636627197,0
55,100,0.3409090909090909,796,1,0,DL_Remix_Guitar,6,5,DL_Remix_Guitar,0.4561627209186554,0
52,100,0.1,267,1,1,DL_Remix_Guitar,6,2,DL_Remix_Guitar,0.9986506104469299,1
53,100,0.18181818181818182,290,0,1,DL_Remix_Guitar,6,3,DL_Remix_Guitar,0.08797938376665115,0
60,100,0.1,360,0,1,DL_Remix_Guitar,6,2,DL_Remix_Guitar,0.09298322349786758,0
60,100,0.11818181818181818,405,0,1,DL_Remix_Guitar,6,2,DL_Remix_Guitar,0.10994856059551239,0
60,100,0.2636363636363636,487,0,1,DL_Remix_Guitar,6,4,DL_Remix_Guitar,0.12866933643817902,0
60,100,0.1590909090909091,700,0,1,DL_Remix_Guitar,6,3,DL_Remix_Guitar,0.1822197139263153,0
62,100,0.4409090909090909,34,1,2,DL_Remix_Guitar,6,7,DL_Remix_Guitar,0.9986507296562195,1
55,100,0.2772727272727273,281,1,2,DL_Remix_Guitar,6,4,DL_Remix_Guitar,0.08797992020845413,0
62,100,0.18181818181818182,421,0,2,DL_Remix_Guitar,6,3,DL_Remix_Guitar,0.09298679232597351,0
62,100,0.2818181818181818,528,0,2,DL_Remix_Guitar,6,5,DL_Remix_Guitar,0.10995154827833176,0
62,100,0.11818181818181818,611,0,2,DL_Remix_Guitar,6,2,DL_Remix_Guitar,0.1286768764257431,0
62,100,0.5227272727272727,642,0,2,DL_Remix_Guitar,6,8,DL_Remix_Guitar,0.18222850561141968,0
61,100,0.1590909090909091,83,1,3,DL_Remix_Guitar,6,3,DL_Remix_Guitar,0.9984879493713379,1
61,100,0.18181818181818182,122,0,3,DL_Remix_Guitar,6,3,DL_Remix_Guitar,0.06335315853357315,0
61,100,0.2818181818181818,254,0,3,DL_Remix_Guitar,6,5,DL_Remix_Guitar,0.05829053744673729,0
57,100,0.37727272727272726,427,0,3,DL_Remix_Guitar,6,6,DL_Remix_Guitar,0.06136312335729599,0
57,100,0.32272727272727275,607,0,3,DL_Remix_Guitar,6,5,DL_Remix_Guitar,0.07168401777744293,0
60,100,0.2,694,0,3,DL_Remix_Guitar,6,3,DL_Remix_Guitar,0.08474195003509521,0
57,100,0.38181818181818183,836,0,3,DL_Remix_Guitar,6,6,DL_Remix_Guitar,0.12635168433189392,0
57,100,0.22272727272727272,48,1,4,DL_Remix_Guitar,6,4,DL_Remix_Guitar,0.9986506104469299,1
62,100,0.6772727272727272,260,0,4,DL_Remix_Guitar,6,11,DL_Remix_Guitar,0.08798068761825562,0
59,100,0.2818181818181818,465,0,4,DL_Remix_Guitar,6,5,DL_Remix_Guitar,0.09298740327358246,0
60,100,0.1,527,0,4,DL_Remix_Guitar,6,2,DL_Remix_Guitar,0.1099492609500885,0
60,100,0.18181818181818182,575,0,4,DL_Remix_Guitar,6,3,DL_Remix_Guitar,0.12867361307144165,0
60,100,0.5772727272727273,765,0,4,DL_Remix_Guitar,6,9,DL_Remix_Guitar,0.18222376704216003,0
53,100,0.1,444,1,5,DL_Remix_Guitar,6,2,DL_Remix_Guitar,0.9990280866622925,1
55,100,0.2590909090909091,545,0,5,DL_Remix_Guitar,6,4,DL_Remix_Guitar,0.37033993005752563,0
60,100,0.2590909090909091,849,1,5,DL_Remix_Guitar,6,4,DL_Remix_Guitar,0.45617344975471497,0
57,100,0.4,150,1,6,DL_Remix_Guitar,6,6,DL_Remix_Guitar,0.9986506104469299,1
60,100,0.11818181818181818,360,0,6,DL_Remix_Guitar,6,2,DL_Remix_Guitar,0.0879807397723198,0
56,100,0.2409090909090909,399,0,6,DL_Remix_Guitar,6,4,DL_Remix_Guitar,0.09298253059387207,0
60,100,0.1,458,0,6,DL_Remix_Guitar,6,2,DL_Remix_Guitar,0.1099492609500885,0
57,100,0.18181818181818182,708,1,6,DL_Remix_Guitar,6,3,DL_Remix_Guitar,0.12866643071174622,0
52,100,0.36363636363636365,795,0,6,DL_Remix_Guitar,6,6,DL_Remix_Guitar,0.18221600353717804,0
52,100,0.42272727272727273,4,1,7,DL_Remix_Guitar,6,7,DL_Remix_Guitar,0.9990280866622925,1
55,100,0.3,726,1,7,DL_Remix_Guitar,6,5,DL_Remix_Guitar,0.37034180760383606,0
57,100,0.11818181818181818,836,0,7,DL_Remix_Guitar,6,2,DL_Remix_Guitar,0.4561674892902374,0
57,100,0.4590909090909091,84,1,8,DL_Remix_Guitar,6,7,DL_Remix_Guitar,0.9986506104469299,1
57,100,0.21818181818181817,338,1,8,DL_Remix_Guitar,6,3,DL_Remix_Guitar,0.08798152953386307,0
57,100,0.18181818181818182,400,0,8,DL_Remix_Guitar,6,3,DL_Remix_Guitar,0.09298965334892273,0
57,100,0.1409090909090909,462,0,8,DL_Remix_Guitar,6,2,DL_Remix_Guitar,0.10995978116989136,0
57,100,0.6818181818181818,563,0,8,DL_Remix_Guitar,6,11,DL_Remix_Guitar,0.1286759376525879,0
56,100,0.12272727272727273,761,0,8,DL_Remix_Guitar,6,2,DL_Remix_Guitar,0.18222615122795105,0
60,100,0.1409090909090909,56,1,9,DL_Remix_Guitar,6,2,DL_Remix_Guitar,0.9990094900131226,1
55,100,0.1,211,0,9,DL_Remix_Guitar,6,2,DL_Remix_Guitar,0.23323369026184082,0
55,100,0.1409090909090909,426,0,9,DL_Remix_Guitar,6,2,DL_Remix_Guitar,0.27058959007263184,0
53,100,0.3,804,1,9,DL_Remix_Guitar,6,5,DL_Remix_Guitar,0.35792815685272217,0
53,100,0.16363636363636364,48,1,10,DL_Remix_Guitar,6,3,DL_Remix_Guitar,0.9990280866622925,1
53,100,0.12272727272727273,101,0,10,DL_Remix_Guitar,6,2,DL_Remix_Guitar,0.37033990025520325,0
58,100,0.2409090909090909,756,1,10,DL_Remix_Guitar,6,4,DL_Remix_Guitar,0.45617324113845825,0
53,100,0.3,668,1,11,DL_Remix_Guitar,6,5,DL_Remix_Guitar,0.9990280866622925,1
53,100,0.16363636363636364,752,0,11,DL_Remix_Guitar,6,3,DL_Remix_Guitar,0.3703393340110779,0
53,100,0.4,826,0,11,DL_Remix_Guitar,6,6,DL_Remix_Guitar,0.45616599917411804,0
60,100,0.1590909090909091,61,1,12,DL_Remix_Guitar,6,3,DL_Remix_Guitar,0.9984880685806274,1
53,100,0.21818181818181817,96,0,12,DL_Remix_Guitar,6,3,DL_Remix_Guitar,0.06335253268480301,0
53,100,0.2,163,0,12,DL_Remix_Guitar,6,3,DL_Remix_Guitar,0.05828934535384178,0
52,100,0.3181818181818182,316,0,12,DL_Remix_Guitar,6,5,DL_Remix_Guitar,0.06136295944452286,0
52,100,0.2,493,0,12,DL_Remix_Guitar,6,3,DL_Remix_Guitar,0.07168357819318771,0
52,100,0.2409090909090909,625,0,12,DL_Remix_Guitar,6,4,DL_Remix_Guitar,0.0847366601228714,0
52,100,0.3,685,0,12,DL_Remix_Guitar,6,5,DL_Remix_Guitar,0.12635263800621033,0
52,100,0.3,44,1,13,DL_Remix_Guitar,6,5,DL_Remix_Guitar,0.9986507296562195,1
52,100,0.1409090909090909,132,0,13,DL_Remix_Guitar,6,2,DL_Remix_Guitar,0.08798179775476456,0
52,100,0.22272727272727272,180,0,13,DL_Remix_Guitar,6,4,DL_Remix_Guitar,0.09298888593912125,0
57,100,0.18181818181818182,355,0,13,DL_Remix_Guitar,6,3,DL_Remix_Guitar,0.1099541038274765,0
57,100,0.1,519,0,13,DL_Remix_Guitar,6,2,DL_Remix_Guitar,0.1286810040473938,0
57,100,0.740909090909091,801,1,13,DL_Remix_Guitar,6,12,DL_Remix_Guitar,0.1822228878736496,0
57,100,0.8818181818181818,123,1,14,DL_Remix_Guitar,6,14,DL_Remix_Guitar,0.9990094900131226,1
74,100,0.5227272727272727,321,0,14,DL_Remix_Guitar,6,8,DL_Remix_Guitar,0.23323607444763184,0
74,100,0.12272727272727273,510,0,14,DL_Remix_Guitar,6,2,DL_Remix_Guitar,0.27059000730514526,0
52,100,0.5590909090909091,611,0,14,DL_Remix_Guitar,6,9,DL_Remix_Guitar,0.3579387366771698,0
52,100,0.18181818181818182,25,1,15,DL_Remix_Guitar,6,3,DL_Remix_Guitar,0.9990280866622925,1
52,100,0.5,233,0,15,DL_Remix_Guitar,6,8,DL_Remix_Guitar,0.37034010887145996,0
52,100,0.2772727272727273,347,0,15,DL_Remix_Guitar,6,4,DL_Remix_Guitar,0.45617055892944336,0
53,100,0.21818181818181817,440,1,16,DL_Remix_Guitar,6,3,DL_Remix_Guitar,0.9792237281799316,1
58,100,0.2,343,1,17,DL_Remix_Guitar,6,3,DL_Remix_Guitar,0.9990280866622925,1
55,100,0.2409090909090909,519,0,17,DL_Remix_Guitar,6,4,DL_Remix_Guitar,0.3703458607196808,0
57,100,0.3,669,0,17,DL_Remix_Guitar,6,5,DL_Remix_Guitar,0.45616593956947327,0
53,100,0.2,17,1,18,DL_Remix_Guitar,6,3,DL_Remix_Guitar,0.9990280866622925,1
53,100,0.4636363636363636,488,1,18,DL_Remix_Guitar,6,7,DL_Remix_Guitar,0.37033504247665405,0
53,100,0.16363636363636364,619,0,18,DL_Remix_Guitar,6,3,DL_Remix_Guitar,0.4561639130115509,0
52,100,0.2772727272727273,229,1,19,DL_Remix_Guitar,6,4,DL_Remix_Guitar,0.9988439083099365,1
52,100,0.12272727272727273,364,0,19,DL_Remix_Guitar,6,2,DL_Remix_Guitar,0.1379825472831726,0
59,100,0.12272727272727273,488,0,19,DL_Remix_Guitar,6,2,DL_Remix_Guitar,0.1623653769493103,0
52,100,0.4,590,0,19,DL_Remix_Guitar,6,6,DL_Remix_Guitar,0.19105707108974457,0
52,100,0.32272727272727275,708,0,19,DL_Remix_Guitar,6,5,DL_Remix_Guitar,0.2619716227054596,0
55,100,0.11818181818181818,559,1,20,DL_Remix_Guitar,6,2,DL_Remix_Guitar,0.9983231425285339,1
55,100,0.17727272727272728,810,1,20,DL_Remix_Guitar,6,3,DL_Remix_Guitar,0.5462120175361633,1
56,100,0.2,656,1,21,DL_Remix_Guitar,6,3,DL_Remix_Guitar,0.9983232617378235,1
62,100,0.1409090909090909,773,0,21,DL_Remix_Guitar,6,2,DL_Remix_Guitar,0.5462218523025513,1
57,100,0.16363636363636364,422,1,22,DL_Remix_Guitar,6,3,DL_Remix_Guitar,0.9990094900131226,1
57,100,0.22272727272727272,497,0,22,DL_Remix_Guitar,6,4,DL_Remix_Guitar,0.23323431611061096,0
57,100,0.1,756,1,22,DL_Remix_Guitar,6,2,DL_Remix_Guitar,0.2705875635147095,0
57,100,0.11818181818181818,876,0,22,DL_Remix_Guitar,6,2,DL_Remix_Guitar,0.3579275906085968,0
65,100,0.23636363636363636,766,1,23,DL_Remix_Guitar,6,4,DL_Remix_Guitar,0.9983232617378235,1
65,100,0.18181818181818182,827,0,23,DL_Remix_Guitar,6,3,DL_Remix_Guitar,0.5462141036987305,1
57,100,0.4409090909090909,65,1,24,DL_Remix_Guitar,6,7,DL_Remix_Guitar,0.9990280866622925,1
55,100,0.2818181818181818,532,1,24,DL_Remix_Guitar,6,5,DL_Remix_Guitar,0.3703390955924988,0
53,100,0.22272727272727272,796,1,24,DL_Remix_Guitar,6,4,DL_Remix_Guitar,0.4561653137207031,0
55,100,0.12272727272727273,26,1,25,DL_Remix_Guitar,6,2,DL_Remix_Guitar,0.9988439083099365,1
55,100,0.5,150,0,25,DL_Remix_Guitar,6,8,DL_Remix_Guitar,0.13798752427101135,0
53,100,0.12272727272727273,378,0,25,DL_Remix_Guitar,6,2,DL_Remix_Guitar,0.16236495971679688,0
55,100,0.3,611,1,25,DL_Remix_Guitar,6,5,DL_Remix_Guitar,0.19105546176433563,0
55,100,0.43636363636363634,831,0,25,DL_Remix_Guitar,6,7,DL_Remix_Guitar,0.2619590163230896,0
60,100,0.18181818181818182,351,1,26,DL_Remix_Guitar,6,3,DL_Remix_Guitar,0.9988439083099365,1
53,100,0.1590909090909091,602,1,26,DL_Remix_Guitar,6,3,DL_Remix_Guitar,0.13798700273036957,0
57,100,0.16363636363636364,663,0,26,DL_Remix_Guitar,6,3,DL_Remix_Guitar,0.16237297654151917,0
57,100,0.5409090909090909,708,0,26,DL_Remix_Guitar,6,9,DL_Remix_Guitar,0.1910657435655594,0
57,100,0.759090909090909,858,0,26,DL_Remix_Guitar,6,12,DL_Remix_Guitar,0.2619648277759552,0
57,100,0.12272727272727273,223,1,27,DL_Remix_Guitar,6,2,DL_Remix_Guitar,0.9990094900131226,1
57,100,0.4818181818181818,285,0,27,DL_Remix_Guitar,6,8,DL_Remix_Guitar,0.2332332581281662,0
53,100,0.1409090909090909,453,0,27,DL_Remix_Guitar,6,2,DL_Remix_Guitar,0.2705918550491333,0
57,100,0.11818181818181818,581,0,27,DL_Remix_Guitar,6,2,DL_Remix_Guitar,0.35793110728263855,0
81,100,0.11818181818181818,295,1,28,DL_Remix_Guitar,6,2,DL_Remix_Guitar,0.9988439083099365,1
53,100,0.21818181818181817,581,1,28,DL_Remix_Guitar,6,3,DL_Remix_Guitar,0.1379805952310562,0
53,100,0.22272727272727272,663,0,28,DL_Remix_Guitar,6,4,DL_Remix_Guitar,0.1623598039150238,0
52,100,0.23636363636363636,787,0,28,DL_Remix_Guitar,6,4,DL_Remix_Guitar,0.19105589389801025,0
52,100,0.23636363636363636,876,0,28,DL_Remix_Guitar,6,4,DL_Remix_Guitar,0.2619660198688507,0
52,100,0.2,189,1,29,DL_Remix_Guitar,6,3,DL_Remix_Guitar,0.9990280866622925,1
59,100,0.11818181818181818,405,0,29,DL_Remix_Guitar,6,2,DL_Remix_Guitar,0.37034058570861816,0
62,100,0.1590909090909091,461,0,29,DL_Remix_Guitar,6,3,DL_Remix_Guitar,0.45616987347602844,0
53,100,0.5590909090909091,611,1,44,DL_Remix_Guitar,6,9,DL_Remix_Guitar,0.9792237281799316,1
55,100,0.1590909090909091,131,1,46,DL_Remix_Guitar,6,3,DL_Remix_Guitar,0.9990094900131226,1
55,100,0.3181818181818182,338,0,46,DL_Remix_Guitar,6,5,DL_Remix_Guitar,0.23323428630828857,0
57,100,0.8409090909090909,440,0,46,DL_Remix_Guitar,6,13,DL_Remix_Guitar,0.27058207988739014,0
60,100,0.11818181818181818,668,0,46,DL_Remix_Guitar,6,2,DL_Remix_Guitar,0.35792791843414307,0
52,100,0.13636363636363635,18,1,47,DL_Remix_Guitar,6,2,DL_Remix_Guitar,0.9983232617378235,1
60,100,0.11818181818181818,370,1,47,DL_Remix_Guitar,6,2,DL_Remix_Guitar,0.5462185144424438,1
62,100,0.1409090909090909,298,1,48,DL_Remix_Guitar,6,2,DL_Remix_Guitar,0.9990280866622925,1
52,100,0.1409090909090909,378,0,48,DL_Remix_Guitar,6,2,DL_Remix_Guitar,0.3703574538230896,0
57,100,0.8818181818181818,616,1,48,DL_Remix_Guitar,6,14,DL_Remix_Guitar,0.45616406202316284,0
62,100,0.18181818181818182,576,1,49,DL_Remix_Guitar,6,3,DL_Remix_Guitar,0.9983232617378235,1
53,100,0.18181818181818182,638,0,49,DL_Remix_Guitar,6,3,DL_Remix_Guitar,0.5462136268615723,1
59,100,0.1590909090909091,541,1,50,DL_Remix_Guitar,6,3,DL_Remix_Guitar,0.9792238473892212,1
57,100,0.21818181818181817,506,1,51,DL_Remix_Guitar,6,3,DL_Remix_Guitar,0.9983231425285339,1
57,100,0.12272727272727273,716,0,51,DL_Remix_Guitar,6,2,DL_Remix_Guitar,0.5462157726287842,1
59,100,0.2,738,1,52,DL_Remix_Guitar,6,3,DL_Remix_Guitar,0.9792238473892212,1
57,100,0.4636363636363636,311,1,53,DL_Remix_Guitar,6,7,DL_Remix_Guitar,0.9990280866622925,1
57,100,0.4,673,1,53,DL_Remix_Guitar,6,6,DL_Remix_Guitar,0.3703426122665405,0
57,100,0.17727272727272728,765,0,53,DL_Remix_Guitar,6,3,DL_Remix_Guitar,0.4561766982078552,0
64,100,0.37727272727272726,193,1,54,DL_Remix_Guitar,6,6,DL_Remix_Guitar,0.9792243838310242,1
67,100,0.5636363636363636,69,1,55,DL_Remix_Guitar,6,9,DL_Remix_Guitar,0.9986506104469299,1
55,100,0.1409090909090909,206,0,55,DL_Remix_Guitar,6,2,DL_Remix_Guitar,0.08798146992921829,0
57,100,0.8,276,0,55,DL_Remix_Guitar,6,13,DL_Remix_Guitar,0.09298322349786758,0
57,100,0.11818181818181818,458,0,55,DL_Remix_Guitar,6,2,DL_Remix_Guitar,0.10994891822338104,0
53,100,1.1181818181818182,568,0,55,DL_Remix_Guitar,6,15,DL_Remix_Guitar,0.12866802513599396,0
57,100,0.2590909090909091,848,1,55,DL_Remix_Guitar,6,4,DL_Remix_Guitar,0.1822136491537094,0
57,100,0.3,171,1,56,DL_Remix_Guitar,6,5,DL_Remix_Guitar,0.9988439083099365,1
52,100,0.1409090909090909,295,0,56,DL_Remix_Guitar,6,2,DL_Remix_Guitar,0.13798290491104126,0
52,100,0.4409090909090909,405,0,56,DL_Remix_Guitar,6,7,DL_Remix_Guitar,0.16236716508865356,0
52,100,0.7,628,0,56,DL_Remix_Guitar,6,11,DL_Remix_Guitar,0.19105930626392365,0
52,100,0.2409090909090909,836,0,56,DL_Remix_Guitar,6,4,DL_Remix_Guitar,0.2619747221469879,0
52,100,0.36363636363636365,224,1,57,DL_Remix_Guitar,6,6,DL_Remix_Guitar,0.9983232617378235,1
64,100,0.2590909090909091,364,0,57,DL_Remix_Guitar,6,4,DL_Remix_Guitar,0.5462189316749573,1
53,100,0.2772727272727273,206,1,58,DL_Remix_Guitar,6,4,DL_Remix_Guitar,0.9792236089706421,1
55,100,0.2409090909090909,66,1,59,DL_Remix_Guitar,6,4,DL_Remix_Guitar,0.9990094900131226,1
52,100,0.17727272727272728,568,1,59,DL_Remix_Guitar,6,3,DL_Remix_Guitar,0.2332266867160797,0
57,100,0.11818181818181818,735,0,59,DL_Remix_Guitar,6,2,DL_Remix_Guitar,0.27057355642318726,0
60,100,0.17727272727272728,875,0,59,DL_Remix_Guitar,6,3,DL_Remix_Guitar,0.3579277992248535,0
57,100,0.21818181818181817,105,1,60,DL_Remix_Guitar,6,3,DL_Remix_Guitar,0.9988439083099365,1
57,100,0.12272727272727273,179,0,60,DL_Remix_Guitar,6,2,DL_Remix_Guitar,0.13798746466636658,0
60,100,0.3,396,0,60,DL_Remix_Guitar,6,5,DL_Remix_Guitar,0.1623707413673401,0
64,100,0.13636363636363635,633,1,60,DL_Remix_Guitar,6,2,DL_Remix_Guitar,0.19106930494308472,0
57,100,1.040909090909091,716,0,60,DL_Remix_Guitar,6,15,DL_Remix_Guitar,0.2619629502296448,0
60,100,0.12272727272727273,158,1,61,DL_Remix_Guitar,6,2,DL_Remix_Guitar,0.9983232617378235,1
57,100,1.440909090909091,311,0,61,DL_Remix_Guitar,6,15,DL_Remix_Guitar,0.5462096929550171,1
57,100,0.2,584,1,62,DL_Remix_Guitar,6,3,DL_Remix_Guitar,0.9792242646217346,1
57,100,0.2409090909090909,8,1,63,DL_Remix_Guitar,6,4,DL_Remix_Guitar,0.9988439083099365,1
57,100,0.1590909090909091,273,1,63,DL_Remix_Guitar,6,3,DL_Remix_Guitar,0.13798344135284424,0
57,100,0.1590909090909091,364,0,63,DL_Remix_Guitar,6,3,DL_Remix_Guitar,0.16236472129821777,0
57,100,0.12272727272727273,453,0,63,DL_Remix_Guitar,6,2,DL_Remix_Guitar,0.1910569965839386,0
57,100,0.1409090909090909,515,0,63,DL_Remix_Guitar,6,2,DL_Remix_Guitar,0.26197025179862976,0
55,100,0.3,546,1,65,DL_Remix_Guitar,6,5,DL_Remix_Guitar,0.9792243838310242,1
52,100,0.9409090909090909,307,1,66,DL_Remix_Guitar,6,15,DL_Remix_Guitar,0.9990280866622925,1
52,100,0.2772727272727273,633,1,66,DL_Remix_Guitar,6,4,DL_Remix_Guitar,0.3703404366970062,0
52,100,0.33636363636363636,743,0,66,DL_Remix_Guitar,6,5,DL_Remix_Guitar,0.45616886019706726,0
62,100,0.5409090909090909,9,1,67,DL_Remix_Guitar,6,9,DL_Remix_Guitar,0.9990094900131226,1
59,100,0.22272727272727272,166,0,67,DL_Remix_Guitar,6,4,DL_Remix_Guitar,0.23323078453540802,0
60,100,0.2409090909090909,550,1,67,DL_Remix_Guitar,6,4,DL_Remix_Guitar,0.27058321237564087,0
57,100,0.3,813,1,67,DL_Remix_Guitar,6,5,DL_Remix_Guitar,0.35793229937553406,0
57,100,0.2,96,1,68,DL_Remix_Guitar,6,3,DL_Remix_Guitar,0.9990094900131226,1
57,100,0.12272727272727273,189,0,68,DL_Remix_Guitar,6,2,DL_Remix_Guitar,0.2332378476858139,0
57,100,0.3,470,1,68,DL_Remix_Guitar,6,5,DL_Remix_Guitar,0.27058663964271545,0
57,100,0.38181818181818183,606,0,68,DL_Remix_Guitar,6,6,DL_Remix_Guitar,0.3579382598400116,0
57,100,0.13636363636363635,347,1,69,DL_Remix_Guitar,6,2,DL_Remix_Guitar,0.9990280866622925,1
57,100,0.11818181818181818,462,0,69,DL_Remix_Guitar,6,2,DL_Remix_Guitar,0.3703404366970062,0
64,100,0.12272727272727273,540,0,69,DL_Remix_Guitar,6,2,DL_Remix_Guitar,0.45617520809173584,0
57,100,0.1590909090909091,462,1,70,DL_Remix_Guitar,6,3,DL_Remix_Guitar,0.9792238473892212,1
58,100,0.5636363636363636,157,1,71,DL_Remix_Guitar,6,9,DL_Remix_Guitar,0.9792241454124451,1
57,100,0.1590909090909091,30,1,72,DL_Remix_Guitar,6,3,DL_Remix_Guitar,0.9983232617378235,1
57,100,0.11818181818181818,150,0,72,DL_Remix_Guitar,6,2,DL_Remix_Guitar,0.5462225675582886,1
64,100,0.1,343,1,73,DL_Remix_Guitar,6,2,DL_Remix_Guitar,0.9990094900131226,1
64,100,0.4,377,0,73,DL_Remix_Guitar,6,6,DL_Remix_Guitar,0.2332324981689453,0
52,100,0.1,606,0,73,DL_Remix_Guitar,6,2,DL_Remix_Guitar,0.27058854699134827,0
57,100,0.6590909090909091,660,0,73,DL_Remix_Guitar,6,11,DL_Remix_Guitar,0.35792553424835205,0
56,100,0.2,53,1,74,DL_Remix_Guitar,6,3,DL_Remix_Guitar,0.9988439083099365,1
56,100,1.2227272727272727,100,0,74,DL_Remix_Guitar,6,15,DL_Remix_Guitar,0.1379779577255249,0
52,100,0.2409090909090909,383,1,74,DL_Remix_Guitar,6,4,DL_Remix_Guitar,0.1623651683330536,0
57,100,0.11818181818181818,483,0,74,DL_Remix_Guitar,6,2,DL_Remix_Guitar,0.19105760753154755,0
57,100,0.22272727272727272,519,0,74,DL_Remix_Guitar,6,4,DL_Remix_Guitar,0.26196253299713135,0
57,100,0.8,96,1,75,DL_Remix_Guitar,6,13,DL_Remix_Guitar,0.9990094900131226,1
57,100,0.2818181818181818,352,1,75,DL_Remix_Guitar,6,5,DL_Remix_Guitar,0.23323757946491241,0
57,100,0.2,417,0,75,DL_Remix_Guitar,6,3,DL_Remix_Guitar,0.2705953121185303,0
55,100,0.3,839,1,75,DL_Remix_Guitar,6,5,DL_Remix_Guitar,0.3579350709915161,0
62,100,0.6818181818181818,773,1,76,DL_Remix_Guitar,6,11,DL_Remix_Guitar,0.979223906993866,1
57,100,0.5818181818181818,263,1,77,DL_Remix_Guitar,6,9,DL_Remix_Guitar,0.9983231425285339,1
57,100,0.6,752,1,77,DL_Remix_Guitar,6,10,DL_Remix_Guitar,0.5462090373039246,1
57,100,0.2590909090909091,404,1,78,DL_Remix_Guitar,6,4,DL_Remix_Guitar,0.9792238473892212,1
53,100,0.12272727272727273,466,1,79,DL_Remix_Guitar,6,2,DL_Remix_Guitar,0.9983232617378235,1
57,100,0.12272727272727273,553,0,79,DL_Remix_Guitar,6,2,DL_Remix_Guitar,0.5462163090705872,1
57,100,0.4590909090909091,56,1,80,DL_Remix_Guitar,6,7,DL_Remix_Guitar,0.9983231425285339,1
57,100,0.5,550,1,80,DL_Remix_Guitar,6,8,DL_Remix_Guitar,0.5462126731872559,1
57,100,0.35909090909090907,633,1,81,DL_Remix_Guitar,6,6,DL_Remix_Guitar,0.9792240262031555,1
57,100,0.35909090909090907,30,1,82,DL_Remix_Guitar,6,6,DL_Remix_Guitar,0.9792240262031555,1
58,100,0.18181818181818182,157,1,83,DL_Remix_Guitar,6,3,DL_Remix_Guitar,0.9990094900131226,1
58,100,0.8772727272727273,326,0,83,DL_Remix_Guitar,6,14,DL_Remix_Guitar,0.23322845995426178,0
63,100,0.33636363636363636,567,1,83,DL_Remix_Guitar,6,5,DL_Remix_Guitar,0.2705819010734558,0
52,100,0.17727272727272728,844,1,83,DL_Remix_Guitar,6,3,DL_Remix_Guitar,0.35792839527130127,0
52,100,0.38181818181818183,396,1,84,DL_Remix_Guitar,6,6,DL_Remix_Guitar,0.9792242646217346,1
62,100,0.2818181818181818,35,1,85,DL_Remix_Guitar,6,5,DL_Remix_Guitar,0.9990280866622925,1
62,100,0.35909090909090907,150,0,85,DL_Remix_Guitar,6,6,DL_Remix_Guitar,0.3703465163707733,0
59,100,0.2772727272727273,480,1,85,DL_Remix_Guitar,6,4,DL_Remix_Guitar,0.45617997646331787,0
57,100,0.17727272727272728,184,1,86,DL_Remix_Guitar,6,3,DL_Remix_Guitar,0.9983232617378235,1
57,100,0.3409090909090909,229,0,86,DL_Remix_Guitar,6,5,DL_Remix_Guitar,0.5462176203727722,1
55,100,0.16363636363636364,817,1,87,DL_Remix_Guitar,6,3,DL_Remix_Guitar,0.9792243838310242,1
55,100,0.1,43,1,88,DL_Remix_Guitar,6,2,DL_Remix_Guitar,0.9983232617378235,1
55,100,0.1,69,0,88,DL_Remix_Guitar,6,2,DL_Remix_Guitar,0.5462111234664917,1
56,100,0.1,356,1,89,DL_Remix_Guitar,6,2,DL_Remix_Guitar,0.9983231425285339,1
57,100,0.2590909090909091,743,1,89,DL_Remix_Guitar,6,4,DL_Remix_Guitar,0.5462217330932617,1
57,100,0.1409090909090909,22,1,90,DL_Remix_Guitar,6,2,DL_Remix_Guitar,0.9990094900131226,1
57,100,0.21818181818181817,216,0,90,DL_Remix_Guitar,6,3,DL_Remix_Guitar,0.2332366555929184,0
55,100,0.21818181818181817,766,1,90,DL_Remix_Guitar,6,3,DL_Remix_Guitar,0.2705897390842438,0
55,100,0.4,817,0,90,DL_Remix_Guitar,6,6,DL_Remix_Guitar,0.35793018341064453,0
55,100,0.22272727272727272,862,1,91,DL_Remix_Guitar,6,4,DL_Remix_Guitar,0.9792245030403137,1
55,100,0.2409090909090909,66,1,92,DL_Remix_Guitar,6,4,DL_Remix_Guitar,0.9792243838310242,1
57,100,0.8,83,1,97,DL_Remix_Guitar,6,13,DL_Remix_Guitar,0.9990094900131226,1
52,100,0.2,707,1,97,DL_Remix_Guitar,6,3,DL_Remix_Guitar,0.2332308441400528,0
52,100,0.13636363636363635,766,0,97,DL_Remix_Guitar,6,2,DL_Remix_Guitar,0.2705863416194916,0
52,100,0.16363636363636364,839,0,97,DL_Remix_Guitar,6,3,DL_Remix_Guitar,0.3579309582710266,0
57,100,3.3,462,1,99,DL_Remix_Guitar,6,15,DL_Remix_Guitar,0.9792203903198242,1
55,100,0.2590909090909091,483,1,101,DL_Remix_Guitar,6,4,DL_Remix_Guitar,0.9983232617378235,1
67,100,0.4818181818181818,716,1,101,DL_Remix_Guitar,6,8,DL_Remix_Guitar,0.546211302280426,1
67,100,0.4,857,1,102,DL_Remix_Guitar,6,6,DL_Remix_Guitar,0.9792236089706421,1
67,100,0.1,220,1,103,DL_Remix_Guitar,6,2,DL_Remix_Guitar,0.9990280866622925,1
67,100,0.1,276,0,103,DL_Remix_Guitar,6,2,DL_Remix_Guitar,0.37034064531326294,0
60,100,0.4818181818181818,399,0,103,DL_Remix_Guitar,6,8,DL_Remix_Guitar,0.4561667740345001,0
52,100,0.1590909090909091,273,1,104,DL_Remix_Guitar,6,3,DL_Remix_Guitar,0.9990280866622925,1
52,100,0.22272727272727272,540,1,104,DL_Remix_Guitar,6,4,DL_Remix_Guitar,0.3703470528125763,0
53,100,0.7772727272727272,756,0,104,DL_Remix_Guitar,6,12,DL_Remix_Guitar,0.45616796612739563,0
60,100,0.1,136,1,105,DL_Remix_Guitar,6,2,DL_Remix_Guitar,0.9988439083099365,1
53,100,0.4590909090909091,233,0,105,DL_Remix_Guitar,6,7,DL_Remix_Guitar,0.1379808634519577,0
53,100,0.5181818181818182,457,0,105,DL_Remix_Guitar,6,8,DL_Remix_Guitar,0.1623660922050476,0
53,100,0.5181818181818182,590,0,105,DL_Remix_Guitar,6,8,DL_Remix_Guitar,0.19105137884616852,0
52,100,0.11818181818181818,857,1,105,DL_Remix_Guitar,6,2,DL_Remix_Guitar,0.26196566224098206,0
52,100,0.3,66,1,106,DL_Remix_Guitar,6,5,DL_Remix_Guitar,0.9990280866622925,1
52,100,0.23636363636363636,567,1,106,DL_Remix_Guitar,6,4,DL_Remix_Guitar,0.37034207582473755,0
55,100,0.17727272727272728,853,1,106,DL_Remix_Guitar,6,3,DL_Remix_Guitar,0.4561709463596344,0
55,100,0.5181818181818182,404,1,107,DL_Remix_Guitar,6,8,DL_Remix_Guitar,0.9983232617378235,1
55,100,0.1,523,0,107,DL_Remix_Guitar,6,2,DL_Remix_Guitar,0.5462127923965454,1
57,100,0.12272727272727273,386,1,108,DL_Remix_Guitar,6,2,DL_Remix_Guitar,0.9983232617378235,1
55,100,0.6,567,0,108,DL_Remix_Guitar,6,10,DL_Remix_Guitar,0.5462194681167603,1
55,100,0.5409090909090909,3,1,109,DL_Remix_Guitar,6,9,DL_Remix_Guitar,0.9990094900131226,1
55,100,0.2636363636363636,136,0,109,DL_Remix_Guitar,6,4,DL_Remix_Guitar,0.23322995007038116,0
55,100,0.18181818181818182,519,1,109,DL_Remix_Guitar,6,3,DL_Remix_Guitar,0.27058106660842896,0
55,100,0.11818181818181818,590,0,109,DL_Remix_Guitar,6,2,DL_Remix_Guitar,0.35791805386543274,0
55,100,0.18181818181818182,87,1,110,DL_Remix_Guitar,6,3,DL_Remix_Guitar,0.9792243838310242,1
55,100,0.12272727272727273,399,1,111,DL_Remix_Guitar,6,2,DL_Remix_Guitar,0.9990280866622925,1
55,100,0.21818181818181817,436,0,111,DL_Remix_Guitar,6,3,DL_Remix_Guitar,0.37033945322036743,0
67,100,0.11818181818181818,656,0,111,DL_Remix_Guitar,6,2,DL_Remix_Guitar,0.4561673700809479,0
56,100,0.1,426,1,112,DL_Remix_Guitar,6,2,DL_Remix_Guitar,0.9983231425285339,1
57,100,0.16363636363636364,532,0,112,DL_Remix_Guitar,6,3,DL_Remix_Guitar,0.5462172627449036,1
55,100,0.2409090909090909,642,1,113,DL_Remix_Guitar,6,4,DL_Remix_Guitar,0.9983232617378235,1
67,100,0.1409090909090909,857,0,113,DL_Remix_Guitar,6,2,DL_Remix_Guitar,0.5462151765823364,1
55,100,0.1590909090909091,9,1,114,DL_Remix_Guitar,6,3,DL_Remix_Guitar,0.9990280866622925,1
55,100,0.16363636363636364,47,0,114,DL_Remix_Guitar,6,3,DL_Remix_Guitar,0.3703359365463257,0
55,100,0.1409090909090909,179,0,114,DL_Remix_Guitar,6,2,DL_Remix_Guitar,0.456169068813324,0
53,100,0.35909090909090907,17,1,115,DL_Remix_Guitar,6,6,DL_Remix_Guitar,0.9988439083099365,1
53,100,0.1590909090909091,282,1,115,DL_Remix_Guitar,6,3,DL_Remix_Guitar,0.13798034191131592,0
53,100,0.5818181818181818,320,0,115,DL_Remix_Guitar,6,9,DL_Remix_Guitar,0.1623671054840088,0
67,100,0.1,453,0,115,DL_Remix_Guitar,6,2,DL_Remix_Guitar,0.19105494022369385,0
60,100,0.5590909090909091,536,0,115,DL_Remix_Guitar,6,9,DL_Remix_Guitar,0.2619667649269104,0
67,100,0.2772727272727273,163,1,116,DL_Remix_Guitar,6,4,DL_Remix_Guitar,0.9990280866622925,1
55,100,0.1590909090909091,320,0,116,DL_Remix_Guitar,6,3,DL_Remix_Guitar,0.3703482151031494,0
67,100,0.1,540,0,116,DL_Remix_Guitar,6,2,DL_Remix_Guitar,0.45616668462753296,0
59,100,0.3181818181818182,713,1,117,DL_Remix_Guitar,6,5,DL_Remix_Guitar,0.9792241454124451,1
53,100,0.6363636363636364,83,1,118,DL_Remix_Guitar,6,10,DL_Remix_Guitar,0.9986506104469299,1
53,100,0.5409090909090909,299,0,118,DL_Remix_Guitar,6,9,DL_Remix_Guitar,0.08797966688871384,0
53,100,0.1409090909090909,426,0,118,DL_Remix_Guitar,6,2,DL_Remix_Guitar,0.09298567473888397,0
55,100,0.4,572,0,118,DL_Remix_Guitar,6,6,DL_Remix_Guitar,0.10994813591241837,0
67,100,0.1409090909090909,703,0,118,DL_Remix_Guitar,6,2,DL_Remix_Guitar,0.12866999208927155,0
53,100,0.7636363636363637,796,0,118,DL_Remix_Guitar,6,12,DL_Remix_Guitar,0.182210773229599,0
53,100,0.35909090909090907,233,1,119,DL_Remix_Guitar,6,6,DL_Remix_Guitar,0.9986506104469299,1
53,100,0.18181818181818182,330,0,119,DL_Remix_Guitar,6,3,DL_Remix_Guitar,0.08797857910394669,0
53,100,0.1,466,0,119,DL_Remix_Guitar,6,2,DL_Remix_Guitar,0.09298378229141235,0
53,100,0.4636363636363636,576,0,119,DL_Remix_Guitar,6,7,DL_Remix_Guitar,0.10994841903448105,0
53,100,0.3,729,0,119,DL_Remix_Guitar,6,5,DL_Remix_Guitar,0.1286698877811432,0
67,100,0.1590909090909091,800,0,119,DL_Remix_Guitar,6,3,DL_Remix_Guitar,0.18221703171730042,0
53,100,0.1409090909090909,26,1,120,DL_Remix_Guitar,6,2,DL_Remix_Guitar,0.9990280866622925,1
52,100,0.3,722,1,120,DL_Remix_Guitar,6,5,DL_Remix_Guitar,0.37034130096435547,0
52,100,0.3,792,0,120,DL_Remix_Guitar,6,5,DL_Remix_Guitar,0.45617085695266724,0
52,100,0.2818181818181818,110,1,121,DL_Remix_Guitar,6,5,DL_Remix_Guitar,0.9983232617378235,1
55,100,0.2409090909090909,836,1,121,DL_Remix_Guitar,6,4,DL_Remix_Guitar,0.5462144017219543,1
55,100,0.2772727272727273,426,1,122,DL_Remix_Guitar,6,4,DL_Remix_Guitar,0.9792247414588928,1
53,100,0.5818181818181818,532,1,0,_Guitar,6,9,_Guitar,0.9990280866622925,1
55,100,0.17727272727272728,722,0,0,_Guitar,6,3,_Guitar,0.3703474998474121,0
53,100,0.3409090909090909,783,0,0,_Guitar,6,5,_Guitar,0.45616233348846436,0
55,100,0.2409090909090909,47,1,1,_Guitar,6,4,_Guitar,0.9983231425285339,1
60,100,0.2818181818181818,571,1,1,_Guitar,6,5,_Guitar,0.5462210178375244,1
53,100,0.32272727272727275,144,1,2,_Guitar,6,5,_Guitar,0.9983231425285339,1
53,100,0.3,272,0,2,_Guitar,6,5,_Guitar,0.5462127327919006,1
53,100,0.4,3,1,3,_Guitar,6,6,_Guitar,0.9988439083099365,1
55,100,0.2,189,0,3,_Guitar,6,3,_Guitar,0.13797862827777863,0
53,100,0.5590909090909091,259,0,3,_Guitar,6,9,_Guitar,0.16235890984535217,0
60,100,0.1409090909090909,717,1,3,_Guitar,6,2,_Guitar,0.19105295836925507,0
60,100,0.1409090909090909,761,0,3,_Guitar,6,2,_Guitar,0.26195886731147766,0
53,100,0.1590909090909091,496,1,4,_Guitar,6,3,_Guitar,0.9983231425285339,1
53,100,0.22272727272727272,642,0,4,_Guitar,6,4,_Guitar,0.5462196469306946,1
55,100,0.41818181818181815,352,1,5,_Guitar,6,7,_Guitar,0.9988439083099365,1
53,100,0.6227272727272727,465,0,5,_Guitar,6,10,_Guitar,0.13797979056835175,0
53,100,0.2409090909090909,637,0,5,_Guitar,6,4,_Guitar,0.1623547375202179,0
53,100,0.1,695,0,5,_Guitar,6,2,_Guitar,0.19105371832847595,0
55,100,0.2772727272727273,810,0,5,_Guitar,6,4,_Guitar,0.26195576786994934,0
60,100,0.1,493,1,6,_Guitar,6,2,_Guitar,0.9983232617378235,1
60,100,0.13636363636363635,721,0,6,_Guitar,6,2,_Guitar,0.5462173223495483,1
53,100,0.2590909090909091,35,1,7,_Guitar,6,4,_Guitar,0.9990280866622925,1
60,100,0.1,619,1,7,_Guitar,6,2,_Guitar,0.3703429698944092,0
53,100,0.9,700,0,7,_Guitar,6,14,_Guitar,0.45616474747657776,0
53,100,0.5818181818181818,87,1,8,_Guitar,6,9,_Guitar,0.9990280866622925,1
55,100,0.3,285,0,8,_Guitar,6,5,_Guitar,0.3703414797782898,0
55,100,0.2409090909090909,804,1,8,_Guitar,6,4,_Guitar,0.45616698265075684,0
53,100,0.21818181818181817,127,1,9,_Guitar,6,3,_Guitar,0.9990280866622925,1
53,100,0.3181818181818182,326,0,9,_Guitar,6,5,_Guitar,0.3703363239765167,0
53,100,0.3,443,0,9,_Guitar,6,5,_Guitar,0.4561716616153717,0
60,100,0.2,369,1,10,_Guitar,6,3,_Guitar,0.9990094900131226,1
53,100,0.3181818181818182,436,0,10,_Guitar,6,5,_Guitar,0.2332354635000229,0
55,100,0.5181818181818182,505,0,10,_Guitar,6,8,_Guitar,0.27057987451553345,0
55,100,0.37727272727272726,625,0,10,_Guitar,6,6,_Guitar,0.3579264283180237,0
65,100,0.2772727272727273,17,1,11,_Guitar,6,4,_Guitar,0.9984879493713379,1
55,100,0.6,158,0,11,_Guitar,6,10,_Guitar,0.0633537545800209,0
55,100,0.12272727272727273,343,0,11,_Guitar,6,2,_Guitar,0.0582890659570694,0
55,100,0.32272727272727275,409,0,11,_Guitar,6,5,_Guitar,0.06136036664247513,0
60,100,0.2818181818181818,541,0,11,_Guitar,6,5,_Guitar,0.0716814398765564,0
60,100,0.1590909090909091,629,0,11,_Guitar,6,3,_Guitar,0.08473392575979233,0
55,100,0.3181818181818182,677,0,11,_Guitar,6,5,_Guitar,0.12634603679180145,0
60,100,0.13636363636363635,391,1,12,_Guitar,6,2,_Guitar,0.9986506104469299,1
60,100,0.17727272727272728,426,0,12,_Guitar,6,3,_Guitar,0.08797913789749146,0
55,100,0.1409090909090909,515,0,12,_Guitar,6,2,_Guitar,0.09298329800367355,0
55,100,0.6590909090909091,572,0,12,_Guitar,6,11,_Guitar,0.10994543135166168,0
53,100,0.35909090909090907,770,0,12,_Guitar,6,6,_Guitar,0.12866714596748352,0
55,100,0.35909090909090907,854,0,12,_Guitar,6,6,_Guitar,0.18221354484558105,0
65,100,0.2,378,1,13,_Guitar,6,3,_Guitar,0.9792238473892212,1
65,100,0.1590909090909091,17,1,14,_Guitar,6,3,_Guitar,0.9990094900131226,1
55,100,0.1409090909090909,101,0,14,_Guitar,6,2,_Guitar,0.2332397848367691,0
55,100,0.8590909090909091,149,0,14,_Guitar,6,14,_Guitar,0.2705899178981781,0
60,100,2.081818181818182,343,0,14,_Guitar,6,15,_Guitar,0.35792046785354614,0
53,100,0.17727272727272728,810,1,25,_Guitar,6,3,_Guitar,0.9983231425285339,1
53,100,0.17727272727272728,853,0,25,_Guitar,6,3,_Guitar,0.5462154150009155,1
53,100,0.13636363636363635,17,1,26,_Guitar,6,2,_Guitar,0.9792238473892212,1
53,100,0.1,839,1,27,_Guitar,6,2,_Guitar,0.9792236089706421,1
53,100,0.1409090909090909,9,1,28,_Guitar,6,2,_Guitar,0.9988439083099365,1
53,100,0.3,61,0,28,_Guitar,6,5,_Guitar,0.13797880709171295,0
53,100,0.5590909090909091,144,0,28,_Guitar,6,9,_Guitar,0.16236209869384766,0
53,100,0.8227272727272728,277,0,28,_Guitar,6,13,_Guitar,0.19105114042758942,0
53,100,1.3227272727272728,466,0,28,_Guitar,6,15,_Guitar,0.2619568705558777,0
53,100,0.7636363636363637,443,1,29,_Guitar,6,12,_Guitar,0.9983231425285339,1
53,100,0.11818181818181818,615,0,29,_Guitar,6,2,_Guitar,0.546217143535614,1
57,100,0.23636363636363636,150,1,45,_Guitar,6,4,_Guitar,0.9990094900131226,1
60,100,0.6,201,0,45,_Guitar,6,10,_Guitar,0.233236625790596,0
60,100,0.18181818181818182,791,1,45,_Guitar,6,3,_Guitar,0.27058371901512146,0
57,100,0.1590909090909091,875,0,45,_Guitar,6,3,_Guitar,0.3579278290271759,0
57,100,0.4,53,1,46,_Guitar,6,6,_Guitar,0.9792234897613525,1
60,100,0.4590909090909091,721,1,48,_Guitar,6,7,_Guitar,0.9792242646217346,1
60,100,0.4,370,1,49,_Guitar,6,6,_Guitar,0.9990280866622925,1
60,100,0.18181818181818182,474,0,49,_Guitar,6,3,_Guitar,0.3703395128250122,0
55,100,0.11818181818181818,691,0,49,_Guitar,6,2,_Guitar,0.4561713635921478,0
55,100,0.2818181818181818,179,1,50,_Guitar,6,5,_Guitar,0.9990280866622925,1
55,100,0.1409090909090909,246,0,50,_Guitar,6,2,_Guitar,0.3703383803367615,0
55,100,0.1409090909090909,686,1,50,_Guitar,6,2,_Guitar,0.4561662971973419,0
60,100,0.5590909090909091,198,1,51,_Guitar,6,9,_Guitar,0.9983232617378235,1
60,100,0.2409090909090909,756,1,51,_Guitar,6,4,_Guitar,0.5462202429771423,1
60,100,0.5636363636363636,378,1,52,_Guitar,6,9,_Guitar,0.9792243838310242,1
60,100,0.2818181818181818,21,1,53,_Guitar,6,5,_Guitar,0.9988439083099365,1
55,100,1.0227272727272727,144,0,53,_Guitar,6,15,_Guitar,0.137980654835701,0
60,100,0.4590909090909091,558,1,53,_Guitar,6,7,_Guitar,0.1623656004667282,0
55,100,0.17727272727272728,678,0,53,_Guitar,6,3,_Guitar,0.19105693697929382,0
55,100,0.6409090909090909,726,0,53,_Guitar,6,10,_Guitar,0.2619566023349762,0
60,100,0.5818181818181818,198,1,54,_Guitar,6,9,_Guitar,0.9990096092224121,1
55,100,0.33636363636363636,325,0,54,_Guitar,6,5,_Guitar,0.2332327514886856,0
55,100,0.2818181818181818,431,0,54,_Guitar,6,5,_Guitar,0.27057966589927673,0
60,100,0.5,721,1,54,_Guitar,6,8,_Guitar,0.3579237759113312,0
55,100,0.4,716,1,55,_Guitar,6,6,_Guitar,0.9792240262031555,1
57,100,0.6181818181818182,875,1,62,_Guitar,6,10,_Guitar,0.9792237281799316,1
60,100,0.6409090909090909,188,1,63,_Guitar,6,10,_Guitar,0.9990280866622925,1
57,100,0.3409090909090909,334,0,63,_Guitar,6,5,_Guitar,0.37033993005752563,0
60,100,0.6590909090909091,716,1,63,_Guitar,6,11,_Guitar,0.45617374777793884,0
60,100,0.4,13,1,64,_Guitar,6,6,_Guitar,0.9983736276626587,1
55,100,0.2772727272727273,106,0,64,_Guitar,6,4,_Guitar,0.05104976147413254,0
57,100,0.2409090909090909,179,0,64,_Guitar,6,4,_Guitar,0.04161208122968674,0
60,100,0.6227272727272727,365,0,64,_Guitar,6,10,_Guitar,0.037980105727910995,0
60,100,0.1590909090909091,546,0,64,_Guitar,6,3,_Guitar,0.03926100209355354,0
55,100,0.37727272727272726,612,0,64,_Guitar,6,6,_Guitar,0.046165093779563904,0
55,100,0.42272727272727273,760,0,64,_Guitar,6,7,_Guitar,0.05713196471333504,0
55,100,0.1,866,0,64,_Guitar,6,2,_Guitar,0.09188009053468704,0
60,100,0.6409090909090909,22,1,65,_Guitar,6,10,_Guitar,0.9990094900131226,1
55,100,0.6818181818181818,197,0,65,_Guitar,6,11,_Guitar,0.2332334816455841,0
60,100,0.6590909090909091,540,1,65,_Guitar,6,11,_Guitar,0.2705906331539154,0
57,100,0.5409090909090909,686,0,65,_Guitar,6,9,_Guitar,0.3579217195510864,0
59,100,0.6409090909090909,47,1,66,_Guitar,6,10,_Guitar,0.9990280866622925,1
60,100,1.540909090909091,189,0,66,_Guitar,6,15,_Guitar,0.37034228444099426,0
55,100,0.5818181818181818,870,1,66,_Guitar,6,9,_Guitar,0.45617055892944336,0
55,100,0.11818181818181818,153,1,67,_Guitar,6,2,_Guitar,0.9988439083099365,1
55,100,0.1590909090909091,233,0,67,_Guitar,6,3,_Guitar,0.13798193633556366,0
60,100,0.33636363636363636,370,0,67,_Guitar,6,5,_Guitar,0.16236759722232819,0
55,100,0.8772727272727273,502,0,67,_Guitar,6,14,_Guitar,0.1910511702299118,0
53,100,0.22272727272727272,805,1,67,_Guitar,6,4,_Guitar,0.2619686424732208,0
60,100,0.8772727272727273,9,1,68,_Guitar,6,14,_Guitar,0.9988439083099365,1
57,100,0.38181818181818183,202,0,68,_Guitar,6,6,_Guitar,0.13797850906848907,0
53,100,0.2409090909090909,294,0,68,_Guitar,6,4,_Guitar,0.16235913336277008,0
60,100,1.0,540,1,68,_Guitar,6,15,_Guitar,0.1910550743341446,0
59,100,0.17727272727272728,779,1,68,_Guitar,6,3,_Guitar,0.26196086406707764,0
59,100,0.1409090909090909,100,1,69,_Guitar,6,2,_Guitar,0.9988439083099365,1
60,100,0.6,189,0,69,_Guitar,6,10,_Guitar,0.13798385858535767,0
55,100,0.9,339,0,69,_Guitar,6,14,_Guitar,0.16236363351345062,0
60,100,0.5409090909090909,726,1,69,_Guitar,6,9,_Guitar,0.1910584717988968,0
55,100,0.8590909090909091,866,0,69,_Guitar,6,14,_Guitar,0.2619640529155731,0
57,100,0.2,184,1,70,_Guitar,6,3,_Guitar,0.9984880685806274,1
60,100,0.37727272727272726,360,0,70,_Guitar,6,6,_Guitar,0.06335261464118958,0
57,100,0.16363636363636364,443,0,70,_Guitar,6,3,_Guitar,0.0582893043756485,0
60,100,0.11818181818181818,483,0,70,_Guitar,6,2,_Guitar,0.06136210262775421,0
57,100,0.2,519,0,70,_Guitar,6,3,_Guitar,0.07168222963809967,0
53,100,0.1590909090909091,580,0,70,_Guitar,6,3,_Guitar,0.0847361832857132,0
59,100,0.5227272727272727,773,0,70,_Guitar,6,8,_Guitar,0.12635457515716553,0
60,100,1.1,13,1,71,_Guitar,6,15,_Guitar,0.9988439083099365,1
55,100,0.759090909090909,365,1,71,_Guitar,6,12,_Guitar,0.137984499335289,0
60,100,0.5818181818181818,540,0,71,_Guitar,6,9,_Guitar,0.1623736321926117,0
55,100,0.2590909090909091,682,0,71,_Guitar,6,4,_Guitar,0.19106289744377136,0
55,100,1.981818181818182,870,0,71,_Guitar,6,15,_Guitar,0.26195213198661804,0
54,100,0.759090909090909,189,1,0,DL_EnglishEdition_Remastered_Guitar,6,12,DL_EnglishEdition_Remastered_Guitar,0.9988439083099365,1
54,100,0.2,374,0,0,DL_EnglishEdition_Remastered_Guitar,6,3,DL_EnglishEdition_Remastered_Guitar,0.1379825323820114,0
54,100,0.22272727272727272,466,0,0,DL_EnglishEdition_Remastered_Guitar,6,4,DL_EnglishEdition_Remastered_Guitar,0.16236744821071625,0
59,100,0.12272727272727273,673,0,0,DL_EnglishEdition_Remastered_Guitar,6,2,DL_EnglishEdition_Remastered_Guitar,0.19105887413024902,0
61,100,0.3,770,0,0,DL_EnglishEdition_Remastered_Guitar,6,5,DL_EnglishEdition_Remastered_Guitar,0.2619659900665283,0
61,100,0.3,18,1,1,DL_EnglishEdition_Remastered_Guitar,6,5,DL_EnglishEdition_Remastered_Guitar,0.9988439083099365,1
59,100,0.1590909090909091,238,0,1,DL_EnglishEdition_Remastered_Guitar,6,3,DL_EnglishEdition_Remastered_Guitar,0.13798178732395172,0
66,100,0.12272727272727273,444,0,1,DL_EnglishEdition_Remastered_Guitar,6,2,DL_EnglishEdition_Remastered_Guitar,0.16236765682697296,0
66,100,0.38181818181818183,475,0,1,DL_EnglishEdition_Remastered_Guitar,6,6,DL_EnglishEdition_Remastered_Guitar,0.1910572350025177,0
59,100,0.4409090909090909,625,0,1,DL_EnglishEdition_Remastered_Guitar,6,7,DL_EnglishEdition_Remastered_Guitar,0.26196667551994324,0
52,100,0.41818181818181815,140,1,2,DL_EnglishEdition_Remastered_Guitar,6,7,DL_EnglishEdition_Remastered_Guitar,0.9990280866622925,1
52,100,0.35909090909090907,364,0,2,DL_EnglishEdition_Remastered_Guitar,6,6,DL_EnglishEdition_Remastered_Guitar,0.3703400790691376,0
54,100,0.6181818181818182,770,1,2,DL_EnglishEdition_Remastered_Guitar,6,10,DL_EnglishEdition_Remastered_Guitar,0.4561648964881897,0
59,100,0.2636363636363636,26,1,3,DL_EnglishEdition_Remastered_Guitar,6,4,DL_EnglishEdition_Remastered_Guitar,0.9988439083099365,1
61,100,0.12272727272727273,210,0,3,DL_EnglishEdition_Remastered_Guitar,6,2,DL_EnglishEdition_Remastered_Guitar,0.13798154890537262,0
61,100,0.5227272727272727,246,0,3,DL_EnglishEdition_Remastered_Guitar,6,8,DL_EnglishEdition_Remastered_Guitar,0.1623605191707611,0
61,100,0.17727272727272728,458,0,3,DL_EnglishEdition_Remastered_Guitar,6,3,DL_EnglishEdition_Remastered_Guitar,0.19105693697929382,0
59,100,1.2,681,0,3,DL_EnglishEdition_Remastered_Guitar,6,15,DL_EnglishEdition_Remastered_Guitar,0.26196369528770447,0
59,100,0.8,87,1,4,DL_EnglishEdition_Remastered_Guitar,6,13,DL_EnglishEdition_Remastered_Guitar,0.9990094900131226,1
59,100,0.22272727272727272,276,0,4,DL_EnglishEdition_Remastered_Guitar,6,4,DL_EnglishEdition_Remastered_Guitar,0.23322752118110657,0
52,100,0.16363636363636364,795,1,4,DL_EnglishEdition_Remastered_Guitar,6,3,DL_EnglishEdition_Remastered_Guitar,0.2705758213996887,0
54,100,0.22272727272727272,849,0,4,DL_EnglishEdition_Remastered_Guitar,6,4,DL_EnglishEdition_Remastered_Guitar,0.35792529582977295,0
54,100,0.5,232,1,5,DL_EnglishEdition_Remastered_Guitar,6,8,DL_EnglishEdition_Remastered_Guitar,0.9988439083099365,1
54,100,0.21818181818181817,370,0,5,DL_EnglishEdition_Remastered_Guitar,6,3,DL_EnglishEdition_Remastered_Guitar,0.13798339664936066,0
61,100,0.12272727272727273,541,0,5,DL_EnglishEdition_Remastered_Guitar,6,2,DL_EnglishEdition_Remastered_Guitar,0.16236311197280884,0
54,100,0.11818181818181818,581,0,5,DL_EnglishEdition_Remastered_Guitar,6,2,DL_EnglishEdition_Remastered_Guitar,0.19106024503707886,0
66,100,0.2,672,0,5,DL_EnglishEdition_Remastered_Guitar,6,3,DL_EnglishEdition_Remastered_Guitar,0.2619674801826477,0
59,100,0.11818181818181818,18,1,6,DL_EnglishEdition_Remastered_Guitar,6,2,DL_EnglishEdition_Remastered_Guitar,0.9988439083099365,1
59,100,0.13636363636363635,61,0,6,DL_EnglishEdition_Remastered_Guitar,6,2,DL_EnglishEdition_Remastered_Guitar,0.13797953724861145,0
52,100,0.3409090909090909,163,0,6,DL_EnglishEdition_Remastered_Guitar,6,5,DL_EnglishEdition_Remastered_Guitar,0.16236305236816406,0
59,100,0.3,409,1,6,DL_EnglishEdition_Remastered_Guitar,6,5,DL_EnglishEdition_Remastered_Guitar,0.19105800986289978,0
61,100,0.2409090909090909,792,1,6,DL_EnglishEdition_Remastered_Guitar,6,4,DL_EnglishEdition_Remastered_Guitar,0.26196619868278503,0
59,100,0.18181818181818182,289,1,7,DL_EnglishEdition_Remastered_Guitar,6,3,DL_EnglishEdition_Remastered_Guitar,0.9988439083099365,1
59,100,0.1409090909090909,360,0,7,DL_EnglishEdition_Remastered_Guitar,6,2,DL_EnglishEdition_Remastered_Guitar,0.13798008859157562,0
54,100,0.1590909090909091,572,0,7,DL_EnglishEdition_Remastered_Guitar,6,3,DL_EnglishEdition_Remastered_Guitar,0.16236430406570435,0
59,100,0.11818181818181818,734,0,7,DL_EnglishEdition_Remastered_Guitar,6,2,DL_EnglishEdition_Remastered_Guitar,0.1910543441772461,0
59,100,0.1590909090909091,778,0,7,DL_EnglishEdition_Remastered_Guitar,6,3,DL_EnglishEdition_Remastered_Guitar,0.2619667053222656,0
54,100,0.2409090909090909,3,1,8,DL_EnglishEdition_Remastered_Guitar,6,4,DL_EnglishEdition_Remastered_Guitar,0.9986506104469299,1
54,100,0.7,206,0,8,DL_EnglishEdition_Remastered_Guitar,6,11,DL_EnglishEdition_Remastered_Guitar,0.08797789365053177,0
66,100,0.2409090909090909,378,0,8,DL_EnglishEdition_Remastered_Guitar,6,4,DL_EnglishEdition_Remastered_Guitar,0.09297999739646912,0
59,100,0.3409090909090909,453,0,8,DL_EnglishEdition_Remastered_Guitar,6,5,DL_EnglishEdition_Remastered_Guitar,0.10994497686624527,0
59,100,0.11818181818181818,589,0,8,DL_EnglishEdition_Remastered_Guitar,6,2,DL_EnglishEdition_Remastered_Guitar,0.12866482138633728,0
59,100,0.1,682,0,8,DL_EnglishEdition_Remastered_Guitar,6,2,DL_EnglishEdition_Remastered_Guitar,0.18221542239189148,0
52,100,0.5,245,1,9,DL_EnglishEdition_Remastered_Guitar,6,8,DL_EnglishEdition_Remastered_Guitar,0.9988439083099365,1
54,100,0.11818181818181818,374,0,9,DL_EnglishEdition_Remastered_Guitar,6,2,DL_EnglishEdition_Remastered_Guitar,0.13798217475414276,0
52,100,0.1590909090909091,519,0,9,DL_EnglishEdition_Remastered_Guitar,6,3,DL_EnglishEdition_Remastered_Guitar,0.1623668670654297,0
57,100,0.1,620,0,9,DL_EnglishEdition_Remastered_Guitar,6,2,DL_EnglishEdition_Remastered_Guitar,0.1910584419965744,0
57,100,0.5590909090909091,677,0,9,DL_EnglishEdition_Remastered_Guitar,6,9,DL_EnglishEdition_Remastered_Guitar,0.2619699537754059,0
61,100,0.18181818181818182,268,1,10,DL_EnglishEdition_Remastered_Guitar,6,3,DL_EnglishEdition_Remastered_Guitar,0.9988439083099365,1
59,100,0.1590909090909091,395,0,10,DL_EnglishEdition_Remastered_Guitar,6,3,DL_EnglishEdition_Remastered_Guitar,0.1379804015159607,0
59,100,0.1590909090909091,457,0,10,DL_EnglishEdition_Remastered_Guitar,6,3,DL_EnglishEdition_Remastered_Guitar,0.16236358880996704,0
59,100,0.38181818181818183,532,0,10,DL_EnglishEdition_Remastered_Guitar,6,6,DL_EnglishEdition_Remastered_Guitar,0.19105327129364014,0
59,100,0.5409090909090909,795,1,10,DL_EnglishEdition_Remastered_Guitar,6,9,DL_EnglishEdition_Remastered_Guitar,0.26195812225341797,0
59,100,0.2409090909090909,110,1,11,DL_EnglishEdition_Remastered_Guitar,6,4,DL_EnglishEdition_Remastered_Guitar,0.9990094900131226,1
52,100,0.2590909090909091,364,1,11,DL_EnglishEdition_Remastered_Guitar,6,4,DL_EnglishEdition_Remastered_Guitar,0.23322804272174835,0
54,100,0.1590909090909091,436,0,11,DL_EnglishEdition_Remastered_Guitar,6,3,DL_EnglishEdition_Remastered_Guitar,0.2705806791782379,0
59,100,0.4,470,0,11,DL_EnglishEdition_Remastered_Guitar,6,6,DL_EnglishEdition_Remastered_Guitar,0.35792481899261475,0
52,100,0.6409090909090909,87,1,12,DL_EnglishEdition_Remastered_Guitar,6,10,DL_EnglishEdition_Remastered_Guitar,0.9984879493713379,1
59,100,0.1,242,0,12,DL_EnglishEdition_Remastered_Guitar,6,2,DL_EnglishEdition_Remastered_Guitar,0.06335330009460449,0
59,100,0.2636363636363636,268,0,12,DL_EnglishEdition_Remastered_Guitar,6,4,DL_EnglishEdition_Remastered_Guitar,0.05828862637281418,0
59,100,0.37727272727272726,347,0,12,DL_EnglishEdition_Remastered_Guitar,6,6,DL_EnglishEdition_Remastered_Guitar,0.06136022135615349,0
64,100,0.1,620,1,12,DL_EnglishEdition_Remastered_Guitar,6,2,DL_EnglishEdition_Remastered_Guitar,0.07168172299861908,0
59,100,0.41818181818181815,656,0,12,DL_EnglishEdition_Remastered_Guitar,6,7,DL_EnglishEdition_Remastered_Guitar,0.08473314344882965,0
59,100,0.8772727272727273,866,0,12,DL_EnglishEdition_Remastered_Guitar,6,14,DL_EnglishEdition_Remastered_Guitar,0.12634868919849396,0
54,100,0.11818181818181818,194,1,13,DL_EnglishEdition_Remastered_Guitar,6,2,DL_EnglishEdition_Remastered_Guitar,0.9983232617378235,1
54,100,0.2772727272727273,250,0,13,DL_EnglishEdition_Remastered_Guitar,6,4,DL_EnglishEdition_Remastered_Guitar,0.5462145805358887,1
59,100,0.5409090909090909,496,1,14,DL_EnglishEdition_Remastered_Guitar,6,9,DL_EnglishEdition_Remastered_Guitar,0.9990280866622925,1
59,100,0.41818181818181815,660,0,14,DL_EnglishEdition_Remastered_Guitar,6,7,DL_EnglishEdition_Remastered_Guitar,0.37033817172050476,0
59,100,0.1409090909090909,756,0,14,DL_EnglishEdition_Remastered_Guitar,6,2,DL_EnglishEdition_Remastered_Guitar,0.45616981387138367,0
54,100,0.8409090909090909,113,1,15,DL_EnglishEdition_Remastered_Guitar,6,13,DL_EnglishEdition_Remastered_Guitar,0.9988439083099365,1
54,100,0.22272727272727272,333,0,15,DL_EnglishEdition_Remastered_Guitar,6,4,DL_EnglishEdition_Remastered_Guitar,0.13797830045223236,0
61,100,0.17727272727272728,426,0,15,DL_EnglishEdition_Remastered_Guitar,6,3,DL_EnglishEdition_Remastered_Guitar,0.16236142814159393,0
59,100,0.35909090909090907,501,0,15,DL_EnglishEdition_Remastered_Guitar,6,6,DL_EnglishEdition_Remastered_Guitar,0.19105231761932373,0
59,100,0.42272727272727273,673,0,15,DL_EnglishEdition_Remastered_Guitar,6,7,DL_EnglishEdition_Remastered_Guitar,0.26196035742759705,0
54,100,0.1590909090909091,175,1,16,DL_EnglishEdition_Remastered_Guitar,6,3,DL_EnglishEdition_Remastered_Guitar,0.9990280866622925,1
59,100,0.2409090909090909,594,1,16,DL_EnglishEdition_Remastered_Guitar,6,4,DL_EnglishEdition_Remastered_Guitar,0.37033385038375854,0
54,100,0.2590909090909091,677,0,16,DL_EnglishEdition_Remastered_Guitar,6,4,DL_EnglishEdition_Remastered_Guitar,0.4561655521392822,0
54,100,0.2,326,1,17,DL_EnglishEdition_Remastered_Guitar,6,3,DL_EnglishEdition_Remastered_Guitar,0.9984879493713379,1
54,100,0.2,457,0,17,DL_EnglishEdition_Remastered_Guitar,6,3,DL_EnglishEdition_Remastered_Guitar,0.06335406005382538,0
61,100,0.12272727272727273,509,0,17,DL_EnglishEdition_Remastered_Guitar,6,2,DL_EnglishEdition_Remastered_Guitar,0.0582873672246933,0
61,100,0.42272727272727273,540,0,17,DL_EnglishEdition_Remastered_Guitar,6,7,DL_EnglishEdition_Remastered_Guitar,0.06136106327176094,0
54,100,0.5772727272727273,646,0,17,DL_EnglishEdition_Remastered_Guitar,6,9,DL_EnglishEdition_Remastered_Guitar,0.07167945057153702,0
59,100,0.11818181818181818,835,0,17,DL_EnglishEdition_Remastered_Guitar,6,2,DL_EnglishEdition_Remastered_Guitar,0.0847330242395401,0
52,100,0.1,866,0,17,DL_EnglishEdition_Remastered_Guitar,6,2,DL_EnglishEdition_Remastered_Guitar,0.12634910643100739,0
59,100,0.5590909090909091,21,1,18,DL_EnglishEdition_Remastered_Guitar,6,9,DL_EnglishEdition_Remastered_Guitar,0.9988439083099365,1
59,100,1.059090909090909,193,0,18,DL_EnglishEdition_Remastered_Guitar,6,15,DL_EnglishEdition_Remastered_Guitar,0.13797546923160553,0
59,100,0.2,515,1,18,DL_EnglishEdition_Remastered_Guitar,6,3,DL_EnglishEdition_Remastered_Guitar,0.16235966980457306,0
59,100,0.1590909090909091,677,0,18,DL_EnglishEdition_Remastered_Guitar,6,3,DL_EnglishEdition_Remastered_Guitar,0.19105082750320435,0
54,100,0.4590909090909091,814,0,18,DL_EnglishEdition_Remastered_Guitar,6,7,DL_EnglishEdition_Remastered_Guitar,0.2619566023349762,0
59,100,0.32272727272727275,113,1,19,DL_EnglishEdition_Remastered_Guitar,6,5,DL_EnglishEdition_Remastered_Guitar,0.9986506104469299,1
59,100,0.2,395,1,19,DL_EnglishEdition_Remastered_Guitar,6,3,DL_EnglishEdition_Remastered_Guitar,0.08797895908355713,0
54,100,0.1,461,0,19,DL_EnglishEdition_Remastered_Guitar,6,2,DL_EnglishEdition_Remastered_Guitar,0.09298265725374222,0
54,100,0.1,646,0,19,DL_EnglishEdition_Remastered_Guitar,6,2,DL_EnglishEdition_Remastered_Guitar,0.10994607955217361,0
59,100,0.4,770,0,19,DL_EnglishEdition_Remastered_Guitar,6,6,DL_EnglishEdition_Remastered_Guitar,0.12866875529289246,0
54,100,0.22272727272727272,862,0,19,DL_EnglishEdition_Remastered_Guitar,6,4,DL_EnglishEdition_Remastered_Guitar,0.1822173297405243,0
59,100,0.11818181818181818,65,1,20,DL_EnglishEdition_Remastered_Guitar,6,2,DL_EnglishEdition_Remastered_Guitar,0.9986506104469299,1
54,100,0.2409090909090909,110,0,20,DL_EnglishEdition_Remastered_Guitar,6,4,DL_EnglishEdition_Remastered_Guitar,0.08797881007194519,0
59,100,0.2818181818181818,220,0,20,DL_EnglishEdition_Remastered_Guitar,6,5,DL_EnglishEdition_Remastered_Guitar,0.09298325330018997,0
59,100,0.21818181818181817,360,0,20,DL_EnglishEdition_Remastered_Guitar,6,3,DL_EnglishEdition_Remastered_Guitar,0.10994657874107361,0
59,100,0.8818181818181818,430,0,20,DL_EnglishEdition_Remastered_Guitar,6,14,DL_EnglishEdition_Remastered_Guitar,0.12866850197315216,0
52,100,0.2636363636363636,773,1,20,DL_EnglishEdition_Remastered_Guitar,6,4,DL_EnglishEdition_Remastered_Guitar,0.18221968412399292,0
52,100,0.2,9,1,21,DL_EnglishEdition_Remastered_Guitar,6,3,DL_EnglishEdition_Remastered_Guitar,0.9986506104469299,1
52,100,0.2818181818181818,65,0,21,DL_EnglishEdition_Remastered_Guitar,6,5,DL_EnglishEdition_Remastered_Guitar,0.08798006922006607,0
54,100,0.1409090909090909,154,0,21,DL_EnglishEdition_Remastered_Guitar,6,2,DL_EnglishEdition_Remastered_Guitar,0.09298265725374222,0
54,100,0.11818181818181818,480,1,21,DL_EnglishEdition_Remastered_Guitar,6,2,DL_EnglishEdition_Remastered_Guitar,0.10995131731033325,0
59,100,0.18181818181818182,708,0,21,DL_EnglishEdition_Remastered_Guitar,6,3,DL_EnglishEdition_Remastered_Guitar,0.12866836786270142,0
59,100,0.2590909090909091,866,0,21,DL_EnglishEdition_Remastered_Guitar,6,4,DL_EnglishEdition_Remastered_Guitar,0.1822163611650467,0
54,100,0.1,100,1,22,DL_EnglishEdition_Remastered_Guitar,6,2,DL_EnglishEdition_Remastered_Guitar,0.9984880685806274,1
59,100,0.1409090909090909,179,0,22,DL_EnglishEdition_Remastered_Guitar,6,2,DL_EnglishEdition_Remastered_Guitar,0.06335363537073135,0
54,100,0.8,237,0,22,DL_EnglishEdition_Remastered_Guitar,6,13,DL_EnglishEdition_Remastered_Guitar,0.058289021253585815,0
54,100,0.6590909090909091,426,0,22,DL_EnglishEdition_Remastered_Guitar,6,11,DL_EnglishEdition_Remastered_Guitar,0.06136317923665047,0
66,100,0.11818181818181818,581,0,22,DL_EnglishEdition_Remastered_Guitar,6,2,DL_EnglishEdition_Remastered_Guitar,0.07168387621641159,0
59,100,0.4,611,0,22,DL_EnglishEdition_Remastered_Guitar,6,6,DL_EnglishEdition_Remastered_Guitar,0.08473629504442215,0
59,100,0.1590909090909091,725,0,22,DL_EnglishEdition_Remastered_Guitar,6,3,DL_EnglishEdition_Remastered_Guitar,0.12635189294815063,0
64,100,0.1,193,1,23,DL_EnglishEdition_Remastered_Guitar,6,2,DL_EnglishEdition_Remastered_Guitar,0.9986506104469299,1
52,100,0.2818181818181818,268,0,23,DL_EnglishEdition_Remastered_Guitar,6,5,DL_EnglishEdition_Remastered_Guitar,0.08798009157180786,0
59,100,0.1409090909090909,387,0,23,DL_EnglishEdition_Remastered_Guitar,6,2,DL_EnglishEdition_Remastered_Guitar,0.09298563003540039,0
52,100,0.4409090909090909,484,0,23,DL_EnglishEdition_Remastered_Guitar,6,7,DL_EnglishEdition_Remastered_Guitar,0.10995131731033325,0
54,100,0.41818181818181815,602,0,23,DL_EnglishEdition_Remastered_Guitar,6,7,DL_EnglishEdition_Remastered_Guitar,0.1286742091178894,0
54,100,0.1590909090909091,814,0,23,DL_EnglishEdition_Remastered_Guitar,6,3,DL_EnglishEdition_Remastered_Guitar,0.1822240650653839,0
52,100,0.1,34,1,24,DL_EnglishEdition_Remastered_Guitar,6,2,DL_EnglishEdition_Remastered_Guitar,0.9986506104469299,1
59,100,0.2409090909090909,382,1,24,DL_EnglishEdition_Remastered_Guitar,6,4,DL_EnglishEdition_Remastered_Guitar,0.08797664940357208,0
59,100,0.2409090909090909,440,0,24,DL_EnglishEdition_Remastered_Guitar,6,4,DL_EnglishEdition_Remastered_Guitar,0.09298381954431534,0
59,100,0.5636363636363636,619,0,24,DL_EnglishEdition_Remastered_Guitar,6,9,DL_EnglishEdition_Remastered_Guitar,0.10994413495063782,0
59,100,0.2,773,0,24,DL_EnglishEdition_Remastered_Guitar,6,3,DL_EnglishEdition_Remastered_Guitar,0.1286684274673462,0
59,100,0.4590909090909091,827,0,24,DL_EnglishEdition_Remastered_Guitar,6,7,DL_EnglishEdition_Remastered_Guitar,0.1822158247232437,0
59,100,0.2772727272727273,52,1,25,DL_EnglishEdition_Remastered_Guitar,6,4,DL_EnglishEdition_Remastered_Guitar,0.9986506104469299,1
63,100,0.2590909090909091,216,0,25,DL_EnglishEdition_Remastered_Guitar,6,4,DL_EnglishEdition_Remastered_Guitar,0.08798043429851532,0
59,100,0.6,272,0,25,DL_EnglishEdition_Remastered_Guitar,6,10,DL_EnglishEdition_Remastered_Guitar,0.09298515319824219,0
59,100,0.6,409,0,25,DL_EnglishEdition_Remastered_Guitar,6,10,DL_EnglishEdition_Remastered_Guitar,0.10995108634233475,0
59,100,0.5,686,1,25,DL_EnglishEdition_Remastered_Guitar,6,8,DL_EnglishEdition_Remastered_Guitar,0.12867440283298492,0
54,100,0.2636363636363636,796,0,25,DL_EnglishEdition_Remastered_Guitar,6,4,DL_EnglishEdition_Remastered_Guitar,0.1822243183851242,0
54,100,0.4,52,1,26,DL_EnglishEdition_Remastered_Guitar,6,6,DL_EnglishEdition_Remastered_Guitar,0.9990094900131226,1
52,100,0.4,241,0,26,DL_EnglishEdition_Remastered_Guitar,6,6,DL_EnglishEdition_Remastered_Guitar,0.23323369026184082,0
52,100,0.6772727272727272,382,0,26,DL_EnglishEdition_Remastered_Guitar,6,11,DL_EnglishEdition_Remastered_Guitar,0.2705826759338379,0
59,100,0.3181818181818182,700,1,26,DL_EnglishEdition_Remastered_Guitar,6,5,DL_EnglishEdition_Remastered_Guitar,0.3579351007938385,0
59,100,0.4590909090909091,100,1,27,DL_EnglishEdition_Remastered_Guitar,6,7,DL_EnglishEdition_Remastered_Guitar,0.9990280866622925,1
59,100,0.5590909090909091,216,0,27,DL_EnglishEdition_Remastered_Guitar,6,9,DL_EnglishEdition_Remastered_Guitar,0.37034130096435547,0
59,100,0.6227272727272727,773,1,27,DL_EnglishEdition_Remastered_Guitar,6,10,DL_EnglishEdition_Remastered_Guitar,0.4561699628829956,0
59,100,0.35909090909090907,65,1,28,DL_EnglishEdition_Remastered_Guitar,6,6,DL_EnglishEdition_Remastered_Guitar,0.9983232617378235,1
59,100,0.1409090909090909,791,1,28,DL_EnglishEdition_Remastered_Guitar,6,2,DL_EnglishEdition_Remastered_Guitar,0.546209454536438,1
59,100,0.16363636363636364,26,1,29,DL_EnglishEdition_Remastered_Guitar,6,3,DL_EnglishEdition_Remastered_Guitar,0.9990280866622925,1
52,100,0.21818181818181817,154,0,29,DL_EnglishEdition_Remastered_Guitar,6,3,DL_EnglishEdition_Remastered_Guitar,0.37033596634864807,0
52,100,0.2590909090909091,206,0,29,DL_EnglishEdition_Remastered_Guitar,6,4,DL_EnglishEdition_Remastered_Guitar,0.456171452999115,0
54,100,0.6363636363636364,61,1,30,DL_EnglishEdition_Remastered_Guitar,6,10,DL_EnglishEdition_Remastered_Guitar,0.9983232617378235,1
56,100,0.3409090909090909,739,1,30,DL_EnglishEdition_Remastered_Guitar,6,5,DL_EnglishEdition_Remastered_Guitar,0.5462129712104797,1
52,100,0.2590909090909091,272,1,31,DL_EnglishEdition_Remastered_Guitar,6,4,DL_EnglishEdition_Remastered_Guitar,0.9983232617378235,1
59,100,0.11818181818181818,501,0,31,DL_EnglishEdition_Remastered_Guitar,6,2,DL_EnglishEdition_Remastered_Guitar,0.5462169051170349,1
59,100,0.12272727272727273,34,1,32,DL_EnglishEdition_Remastered_Guitar,6,2,DL_EnglishEdition_Remastered_Guitar,0.9988439083099365,1
59,100,0.2409090909090909,141,0,32,DL_EnglishEdition_Remastered_Guitar,6,4,DL_EnglishEdition_Remastered_Guitar,0.13797855377197266,0
61,100,0.22272727272727272,276,0,32,DL_EnglishEdition_Remastered_Guitar,6,4,DL_EnglishEdition_Remastered_Guitar,0.16235986351966858,0
54,100,0.4409090909090909,364,0,32,DL_EnglishEdition_Remastered_Guitar,6,7,DL_EnglishEdition_Remastered_Guitar,0.19105394184589386,0
54,100,0.6409090909090909,518,0,32,DL_EnglishEdition_Remastered_Guitar,6,10,DL_EnglishEdition_Remastered_Guitar,0.2619642913341522,0
61,100,0.2,128,1,33,DL_EnglishEdition_Remastered_Guitar,6,3,DL_EnglishEdition_Remastered_Guitar,0.9983735084533691,1
61,100,0.11818181818181818,193,0,33,DL_EnglishEdition_Remastered_Guitar,6,2,DL_EnglishEdition_Remastered_Guitar,0.05104925483465195,0
61,100,0.3,295,0,33,DL_EnglishEdition_Remastered_Guitar,6,5,DL_EnglishEdition_Remastered_Guitar,0.04161110147833824,0
59,100,0.22272727272727272,509,0,33,DL_EnglishEdition_Remastered_Guitar,6,4,DL_EnglishEdition_Remastered_Guitar,0.03798054903745651,0
59,100,0.4818181818181818,563,0,33,DL_EnglishEdition_Remastered_Guitar,6,8,DL_EnglishEdition_Remastered_Guitar,0.03925952687859535,0
59,100,0.23636363636363636,700,0,33,DL_EnglishEdition_Remastered_Guitar,6,4,DL_EnglishEdition_Remastered_Guitar,0.04616640508174896,0
52,100,0.1590909090909091,761,0,33,DL_EnglishEdition_Remastered_Guitar,6,3,DL_EnglishEdition_Remastered_Guitar,0.05713183432817459,0
59,100,0.4818181818181818,839,0,33,DL_EnglishEdition_Remastered_Guitar,6,8,DL_EnglishEdition_Remastered_Guitar,0.0918782576918602,0
59,100,0.6227272727272727,101,1,34,DL_EnglishEdition_Remastered_Guitar,6,10,DL_EnglishEdition_Remastered_Guitar,0.9988439083099365,1
54,100,0.3,325,0,34,DL_EnglishEdition_Remastered_Guitar,6,5,DL_EnglishEdition_Remastered_Guitar,0.1379832774400711,0
54,100,0.18181818181818182,681,1,34,DL_EnglishEdition_Remastered_Guitar,6,3,DL_EnglishEdition_Remastered_Guitar,0.16236642003059387,0
54,100,0.4590909090909091,726,0,34,DL_EnglishEdition_Remastered_Guitar,6,7,DL_EnglishEdition_Remastered_Guitar,0.19105415046215057,0
54,100,0.2590909090909091,831,0,34,DL_EnglishEdition_Remastered_Guitar,6,4,DL_EnglishEdition_Remastered_Guitar,0.2619650363922119,0
54,100,0.3409090909090909,13,1,35,DL_EnglishEdition_Remastered_Guitar,6,5,DL_EnglishEdition_Remastered_Guitar,0.9983736276626587,1
54,100,0.2818181818181818,166,0,35,DL_EnglishEdition_Remastered_Guitar,6,5,DL_EnglishEdition_Remastered_Guitar,0.051049333065748215,0
56,100,0.2,391,0,35,DL_EnglishEdition_Remastered_Guitar,6,3,DL_EnglishEdition_Remastered_Guitar,0.041610438376665115,0
59,100,0.2,458,0,35,DL_EnglishEdition_Remastered_Guitar,6,3,DL_EnglishEdition_Remastered_Guitar,0.037978220731019974,0
59,100,0.11818181818181818,536,0,35,DL_EnglishEdition_Remastered_Guitar,6,2,DL_EnglishEdition_Remastered_Guitar,0.03925805911421776,0
59,100,0.32272727272727275,641,0,35,DL_EnglishEdition_Remastered_Guitar,6,5,DL_EnglishEdition_Remastered_Guitar,0.046162061393260956,0
59,100,0.1409090909090909,751,0,35,DL_EnglishEdition_Remastered_Guitar,6,2,DL_EnglishEdition_Remastered_Guitar,0.05712918937206268,0
52,100,0.5818181818181818,871,0,35,DL_EnglishEdition_Remastered_Guitar,6,9,DL_EnglishEdition_Remastered_Guitar,0.09187698364257812,0
59,100,0.5590909090909091,150,1,36,DL_EnglishEdition_Remastered_Guitar,6,9,DL_EnglishEdition_Remastered_Guitar,0.9986506104469299,1
59,100,0.38181818181818183,286,0,36,DL_EnglishEdition_Remastered_Guitar,6,6,DL_EnglishEdition_Remastered_Guitar,0.08798019587993622,0
61,100,0.12272727272727273,466,0,36,DL_EnglishEdition_Remastered_Guitar,6,2,DL_EnglishEdition_Remastered_Guitar,0.09298519790172577,0
54,100,0.6363636363636364,655,0,36,DL_EnglishEdition_Remastered_Guitar,6,10,DL_EnglishEdition_Remastered_Guitar,0.10994955152273178,0
54,100,0.2409090909090909,818,0,36,DL_EnglishEdition_Remastered_Guitar,6,4,DL_EnglishEdition_Remastered_Guitar,0.12867294251918793,0
54,100,0.2590909090909091,875,0,36,DL_EnglishEdition_Remastered_Guitar,6,4,DL_EnglishEdition_Remastered_Guitar,0.18221840262413025,0
59,100,0.2,171,1,37,DL_EnglishEdition_Remastered_Guitar,6,3,DL_EnglishEdition_Remastered_Guitar,0.9988439083099365,1
54,100,0.1409090909090909,426,1,37,DL_EnglishEdition_Remastered_Guitar,6,2,DL_EnglishEdition_Remastered_Guitar,0.1379854530096054,0
54,100,0.38181818181818183,506,0,37,DL_EnglishEdition_Remastered_Guitar,6,6,DL_EnglishEdition_Remastered_Guitar,0.1623649299144745,0
54,100,0.3,603,0,37,DL_EnglishEdition_Remastered_Guitar,6,5,DL_EnglishEdition_Remastered_Guitar,0.1910524219274521,0
54,100,0.2,694,0,37,DL_EnglishEdition_Remastered_Guitar,6,3,DL_EnglishEdition_Remastered_Guitar,0.2619672417640686,0
54,100,0.1590909090909091,413,1,38,DL_EnglishEdition_Remastered_Guitar,6,3,DL_EnglishEdition_Remastered_Guitar,0.9983232617378235,1
54,100,0.6409090909090909,471,0,38,DL_EnglishEdition_Remastered_Guitar,6,10,DL_EnglishEdition_Remastered_Guitar,0.5462140440940857,1
59,100,0.18181818181818182,114,1,39,DL_EnglishEdition_Remastered_Guitar,6,3,DL_EnglishEdition_Remastered_Guitar,0.9988439083099365,1
52,100,0.2818181818181818,188,0,39,DL_EnglishEdition_Remastered_Guitar,6,5,DL_EnglishEdition_Remastered_Guitar,0.13798324763774872,0
59,100,0.6409090909090909,628,1,39,DL_EnglishEdition_Remastered_Guitar,6,10,DL_EnglishEdition_Remastered_Guitar,0.16236546635627747,0
59,100,0.13636363636363635,810,0,39,DL_EnglishEdition_Remastered_Guitar,6,2,DL_EnglishEdition_Remastered_Guitar,0.19106052815914154,0
54,100,0.1590909090909091,866,0,39,DL_EnglishEdition_Remastered_Guitar,6,3,DL_EnglishEdition_Remastered_Guitar,0.26197683811187744,0
52,100,0.12272727272727273,144,1,40,DL_EnglishEdition_Remastered_Guitar,6,2,DL_EnglishEdition_Remastered_Guitar,0.9988439083099365,1
54,100,0.2818181818181818,483,1,40,DL_EnglishEdition_Remastered_Guitar,6,5,DL_EnglishEdition_Remastered_Guitar,0.13798125088214874,0
54,100,0.21818181818181817,550,0,40,DL_EnglishEdition_Remastered_Guitar,6,3,DL_EnglishEdition_Remastered_Guitar,0.1623614877462387,0
59,100,0.1,641,0,40,DL_EnglishEdition_Remastered_Guitar,6,2,DL_EnglishEdition_Remastered_Guitar,0.19105593860149384,0
59,100,0.41818181818181815,853,0,40,DL_EnglishEdition_Remastered_Guitar,6,7,DL_EnglishEdition_Remastered_Guitar,0.26196515560150146,0
52,100,0.5181818181818182,308,1,41,DL_EnglishEdition_Remastered_Guitar,6,8,DL_EnglishEdition_Remastered_Guitar,0.9792241454124451,1
54,100,0.1409090909090909,88,1,42,DL_EnglishEdition_Remastered_Guitar,6,2,DL_EnglishEdition_Remastered_Guitar,0.9990280866622925,1
54,100,0.5227272727272727,276,0,42,DL_EnglishEdition_Remastered_Guitar,6,8,DL_EnglishEdition_Remastered_Guitar,0.3703434467315674,0
59,100,1.040909090909091,638,1,42,DL_EnglishEdition_Remastered_Guitar,6,15,DL_EnglishEdition_Remastered_Guitar,0.4561617374420166,0
54,100,0.4409090909090909,399,1,43,DL_EnglishEdition_Remastered_Guitar,6,7,DL_EnglishEdition_Remastered_Guitar,0.9990280866622925,1
52,100,0.7,509,0,43,DL_EnglishEdition_Remastered_Guitar,6,11,DL_EnglishEdition_Remastered_Guitar,0.3703360855579376,0
52,100,0.37727272727272726,823,1,43,DL_EnglishEdition_Remastered_Guitar,6,6,DL_EnglishEdition_Remastered_Guitar,0.45617225766181946,0
59,100,0.5181818181818182,413,1,44,DL_EnglishEdition_Remastered_Guitar,6,8,DL_EnglishEdition_Remastered_Guitar,0.9990280866622925,1
59,100,0.11818181818181818,593,0,44,DL_EnglishEdition_Remastered_Guitar,6,2,DL_EnglishEdition_Remastered_Guitar,0.3703290522098541,0
59,100,0.13636363636363635,633,0,44,DL_EnglishEdition_Remastered_Guitar,6,2,DL_EnglishEdition_Remastered_Guitar,0.4561709463596344,0
59,100,0.3409090909090909,220,1,45,DL_EnglishEdition_Remastered_Guitar,6,5,DL_EnglishEdition_Remastered_Guitar,0.9988439083099365,1
59,100,0.5181818181818182,303,0,45,DL_EnglishEdition_Remastered_Guitar,6,8,DL_EnglishEdition_Remastered_Guitar,0.13798034191131592,0
59,100,0.2772727272727273,501,0,45,DL_EnglishEdition_Remastered_Guitar,6,4,DL_EnglishEdition_Remastered_Guitar,0.16236451268196106,0
54,100,0.4,770,1,45,DL_EnglishEdition_Remastered_Guitar,6,6,DL_EnglishEdition_Remastered_Guitar,0.19105473160743713,0
54,100,0.1409090909090909,861,0,45,DL_EnglishEdition_Remastered_Guitar,6,2,DL_EnglishEdition_Remastered_Guitar,0.26196664571762085,0
54,100,0.16363636363636364,224,1,46,DL_EnglishEdition_Remastered_Guitar,6,3,DL_EnglishEdition_Remastered_Guitar,0.9990094900131226,1
59,100,0.5818181818181818,364,0,46,DL_EnglishEdition_Remastered_Guitar,6,9,DL_EnglishEdition_Remastered_Guitar,0.2332250326871872,0
54,100,0.2,673,1,46,DL_EnglishEdition_Remastered_Guitar,6,3,DL_EnglishEdition_Remastered_Guitar,0.27057868242263794,0
59,100,0.2772727272727273,823,0,46,DL_EnglishEdition_Remastered_Guitar,6,4,DL_EnglishEdition_Remastered_Guitar,0.35792702436447144,0
59,100,0.2409090909090909,53,1,47,DL_EnglishEdition_Remastered_Guitar,6,4,DL_EnglishEdition_Remastered_Guitar,0.9986506104469299,1
66,100,0.17727272727272728,448,1,47,DL_EnglishEdition_Remastered_Guitar,6,3,DL_EnglishEdition_Remastered_Guitar,0.08797888457775116,0
54,100,0.2818181818181818,506,0,47,DL_EnglishEdition_Remastered_Guitar,6,5,DL_EnglishEdition_Remastered_Guitar,0.0929814875125885,0
59,100,0.2409090909090909,584,0,47,DL_EnglishEdition_Remastered_Guitar,6,4,DL_EnglishEdition_Remastered_Guitar,0.1099463701248169,0
59,100,0.5181818181818182,735,0,47,DL_EnglishEdition_Remastered_Guitar,6,8,DL_EnglishEdition_Remastered_Guitar,0.12866617739200592,0
54,100,0.23636363636363636,853,0,47,DL_EnglishEdition_Remastered_Guitar,6,4,DL_EnglishEdition_Remastered_Guitar,0.18221965432167053,0
59,100,1.0,31,1,48,DL_EnglishEdition_Remastered_Guitar,6,15,DL_EnglishEdition_Remastered_Guitar,0.9983231425285339,1
59,100,0.2409090909090909,748,1,48,DL_EnglishEdition_Remastered_Guitar,6,4,DL_EnglishEdition_Remastered_Guitar,0.5462179780006409,1
59,100,0.13636363636363635,150,1,49,DL_EnglishEdition_Remastered_Guitar,6,2,DL_EnglishEdition_Remastered_Guitar,0.9986506104469299,1
54,100,0.3,215,0,49,DL_EnglishEdition_Remastered_Guitar,6,5,DL_EnglishEdition_Remastered_Guitar,0.08797779679298401,0
54,100,0.21818181818181817,286,0,49,DL_EnglishEdition_Remastered_Guitar,6,3,DL_EnglishEdition_Remastered_Guitar,0.09298398345708847,0
59,100,0.4772727272727273,568,1,49,DL_EnglishEdition_Remastered_Guitar,6,8,DL_EnglishEdition_Remastered_Guitar,0.10994675010442734,0
59,100,0.17727272727272728,678,0,49,DL_EnglishEdition_Remastered_Guitar,6,3,DL_EnglishEdition_Remastered_Guitar,0.12866848707199097,0
59,100,0.3,774,0,49,DL_EnglishEdition_Remastered_Guitar,6,5,DL_EnglishEdition_Remastered_Guitar,0.18222057819366455,0
59,100,0.18181818181818182,48,1,50,DL_EnglishEdition_Remastered_Guitar,6,3,DL_EnglishEdition_Remastered_Guitar,0.9990094900131226,1
59,100,0.5818181818181818,364,1,50,DL_EnglishEdition_Remastered_Guitar,6,9,DL_EnglishEdition_Remastered_Guitar,0.23322825133800507,0
59,100,0.17727272727272728,545,0,50,DL_EnglishEdition_Remastered_Guitar,6,3,DL_EnglishEdition_Remastered_Guitar,0.2705781161785126,0
59,100,0.7,735,0,50,DL_EnglishEdition_Remastered_Guitar,6,11,DL_EnglishEdition_Remastered_Guitar,0.3579230308532715,0
52,100,0.7818181818181819,26,1,51,DL_EnglishEdition_Remastered_Guitar,6,13,DL_EnglishEdition_Remastered_Guitar,0.9983232617378235,1
54,100,0.2590909090909091,783,1,51,DL_EnglishEdition_Remastered_Guitar,6,4,DL_EnglishEdition_Remastered_Guitar,0.5462177395820618,1
59,100,0.6409090909090909,26,1,52,DL_EnglishEdition_Remastered_Guitar,6,10,DL_EnglishEdition_Remastered_Guitar,0.9988439083099365,1
54,100,0.23636363636363636,171,0,52,DL_EnglishEdition_Remastered_Guitar,6,4,DL_EnglishEdition_Remastered_Guitar,0.13798415660858154,0
54,100,0.7181818181818181,308,0,52,DL_EnglishEdition_Remastered_Guitar,6,11,DL_EnglishEdition_Remastered_Guitar,0.16236093640327454,0
54,100,0.3409090909090909,681,1,52,DL_EnglishEdition_Remastered_Guitar,6,5,DL_EnglishEdition_Remastered_Guitar,0.191055029630661,0
59,100,0.11818181818181818,823,0,52,DL_EnglishEdition_Remastered_Guitar,6,2,DL_EnglishEdition_Remastered_Guitar,0.2619623839855194,0
59,100,0.11818181818181818,198,1,53,DL_EnglishEdition_Remastered_Guitar,6,2,DL_EnglishEdition_Remastered_Guitar,0.9990094900131226,1
52,100,0.4818181818181818,334,0,53,DL_EnglishEdition_Remastered_Guitar,6,8,DL_EnglishEdition_Remastered_Guitar,0.23322616517543793,0
54,100,0.3409090909090909,735,1,53,DL_EnglishEdition_Remastered_Guitar,6,5,DL_EnglishEdition_Remastered_Guitar,0.2705817222595215,0
59,100,0.5,875,0,53,DL_EnglishEdition_Remastered_Guitar,6,8,DL_EnglishEdition_Remastered_Guitar,0.35792413353919983,0
54,100,0.18181818181818182,110,1,54,DL_EnglishEdition_Remastered_Guitar,6,3,DL_EnglishEdition_Remastered_Guitar,0.9990094900131226,1
54,100,0.2590909090909091,153,0,54,DL_EnglishEdition_Remastered_Guitar,6,4,DL_EnglishEdition_Remastered_Guitar,0.23322772979736328,0
59,100,0.7,536,1,54,DL_EnglishEdition_Remastered_Guitar,6,11,DL_EnglishEdition_Remastered_Guitar,0.2705797255039215,0
54,100,0.2409090909090909,708,0,54,DL_EnglishEdition_Remastered_Guitar,6,4,DL_EnglishEdition_Remastered_Guitar,0.35792267322540283,0
59,100,0.2,78,1,55,DL_EnglishEdition_Remastered_Guitar,6,3,DL_EnglishEdition_Remastered_Guitar,0.9984879493713379,1
54,100,0.1,141,0,55,DL_EnglishEdition_Remastered_Guitar,6,2,DL_EnglishEdition_Remastered_Guitar,0.06335358321666718,0
54,100,0.2409090909090909,198,0,55,DL_EnglishEdition_Remastered_Guitar,6,4,DL_EnglishEdition_Remastered_Guitar,0.05829000100493431,0
66,100,0.2,373,0,55,DL_EnglishEdition_Remastered_Guitar,6,3,DL_EnglishEdition_Remastered_Guitar,0.06136147305369377,0
59,100,0.35909090909090907,536,0,55,DL_EnglishEdition_Remastered_Guitar,6,6,DL_EnglishEdition_Remastered_Guitar,0.07168145477771759,0
59,100,0.9590909090909091,651,0,55,DL_EnglishEdition_Remastered_Guitar,6,15,DL_EnglishEdition_Remastered_Guitar,0.08473244309425354,0
54,100,0.1,861,0,55,DL_EnglishEdition_Remastered_Guitar,6,2,DL_EnglishEdition_Remastered_Guitar,0.12635107338428497,0
54,100,0.35909090909090907,40,1,56,DL_EnglishEdition_Remastered_Guitar,6,6,DL_EnglishEdition_Remastered_Guitar,0.9988440275192261,1
54,100,0.5227272727272727,166,0,56,DL_EnglishEdition_Remastered_Guitar,6,8,DL_EnglishEdition_Remastered_Guitar,0.13798290491104126,0
56,100,0.21818181818181817,633,1,56,DL_EnglishEdition_Remastered_Guitar,6,3,DL_EnglishEdition_Remastered_Guitar,0.16236737370491028,0
56,100,0.33636363636363636,700,0,56,DL_EnglishEdition_Remastered_Guitar,6,5,DL_EnglishEdition_Remastered_Guitar,0.19105805456638336,0
56,100,0.5636363636363636,818,0,56,DL_EnglishEdition_Remastered_Guitar,6,9,DL_EnglishEdition_Remastered_Guitar,0.26196131110191345,0
63,100,0.2409090909090909,158,1,57,DL_EnglishEdition_Remastered_Guitar,6,4,DL_EnglishEdition_Remastered_Guitar,0.9990280866622925,1
56,100,0.1590909090909091,295,0,57,DL_EnglishEdition_Remastered_Guitar,6,3,DL_EnglishEdition_Remastered_Guitar,0.37033623456954956,0
59,100,0.42272727272727273,774,1,57,DL_EnglishEdition_Remastered_Guitar,6,7,DL_EnglishEdition_Remastered_Guitar,0.45618337392807007,0
54,100,0.1409090909090909,254,1,58,DL_EnglishEdition_Remastered_Guitar,6,2,DL_EnglishEdition_Remastered_Guitar,0.9990094900131226,1
54,100,0.16363636363636364,531,1,58,DL_EnglishEdition_Remastered_Guitar,6,3,DL_EnglishEdition_Remastered_Guitar,0.23323088884353638,0
54,100,0.22272727272727272,628,0,58,DL_EnglishEdition_Remastered_Guitar,6,4,DL_EnglishEdition_Remastered_Guitar,0.27058178186416626,0
54,100,0.1590909090909091,703,0,58,DL_EnglishEdition_Remastered_Guitar,6,3,DL_EnglishEdition_Remastered_Guitar,0.3579282760620117,0
59,100,0.21818181818181817,31,1,59,DL_EnglishEdition_Remastered_Guitar,6,3,DL_EnglishEdition_Remastered_Guitar,0.9986506104469299,1
59,100,0.2590909090909091,141,0,59,DL_EnglishEdition_Remastered_Guitar,6,4,DL_EnglishEdition_Remastered_Guitar,0.0879812017083168,0
59,100,0.4409090909090909,316,0,59,DL_EnglishEdition_Remastered_Guitar,6,7,DL_EnglishEdition_Remastered_Guitar,0.09298631548881531,0
66,100,0.3,531,0,59,DL_EnglishEdition_Remastered_Guitar,6,5,DL_EnglishEdition_Remastered_Guitar,0.10995494574308395,0
66,100,0.17727272727272728,603,0,59,DL_EnglishEdition_Remastered_Guitar,6,3,DL_EnglishEdition_Remastered_Guitar,0.12867534160614014,0
66,100,1.259090909090909,778,0,59,DL_EnglishEdition_Remastered_Guitar,6,15,DL_EnglishEdition_Remastered_Guitar,0.18222224712371826,0
61,100,0.5181818181818182,198,1,60,DL_EnglishEdition_Remastered_Guitar,6,8,DL_EnglishEdition_Remastered_Guitar,0.9986506104469299,1
66,100,0.21818181818181817,383,0,60,DL_EnglishEdition_Remastered_Guitar,6,3,DL_EnglishEdition_Remastered_Guitar,0.08797942101955414,0
61,100,0.6181818181818182,440,0,60,DL_EnglishEdition_Remastered_Guitar,6,10,DL_EnglishEdition_Remastered_Guitar,0.09298565983772278,0
54,100,0.2409090909090909,641,0,60,DL_EnglishEdition_Remastered_Guitar,6,4,DL_EnglishEdition_Remastered_Guitar,0.10994955152273178,0
64,100,0.12272727272727273,729,0,60,DL_EnglishEdition_Remastered_Guitar,6,2,DL_EnglishEdition_Remastered_Guitar,0.1286747306585312,0
66,100,0.5409090909090909,836,0,60,DL_EnglishEdition_Remastered_Guitar,6,9,DL_EnglishEdition_Remastered_Guitar,0.1822197139263153,0
66,100,0.5409090909090909,78,1,61,DL_EnglishEdition_Remastered_Guitar,6,9,DL_EnglishEdition_Remastered_Guitar,0.9986506104469299,1
66,100,0.2590909090909091,220,0,61,DL_EnglishEdition_Remastered_Guitar,6,4,DL_EnglishEdition_Remastered_Guitar,0.08798003941774368,0
59,100,0.1,325,0,61,DL_EnglishEdition_Remastered_Guitar,6,2,DL_EnglishEdition_Remastered_Guitar,0.09298422187566757,0
66,100,0.5590909090909091,474,0,61,DL_EnglishEdition_Remastered_Guitar,6,9,DL_EnglishEdition_Remastered_Guitar,0.10994618386030197,0
52,100,0.18181818181818182,606,0,61,DL_EnglishEdition_Remastered_Guitar,6,3,DL_EnglishEdition_Remastered_Guitar,0.1286710500717163,0
52,100,0.9409090909090909,871,1,61,DL_EnglishEdition_Remastered_Guitar,6,15,DL_EnglishEdition_Remastered_Guitar,0.18221646547317505,0
52,100,0.1409090909090909,211,1,62,DL_EnglishEdition_Remastered_Guitar,6,2,DL_EnglishEdition_Remastered_Guitar,0.9990280866622925,1
52,100,0.6,251,0,62,DL_EnglishEdition_Remastered_Guitar,6,10,DL_EnglishEdition_Remastered_Guitar,0.37034738063812256,0
59,100,0.6,641,1,62,DL_EnglishEdition_Remastered_Guitar,6,10,DL_EnglishEdition_Remastered_Guitar,0.4561697542667389,0
59,100,0.6,18,1,63,DL_EnglishEdition_Remastered_Guitar,6,10,DL_EnglishEdition_Remastered_Guitar,0.9990280866622925,1
54,100,0.1590909090909091,606,1,63,DL_EnglishEdition_Remastered_Guitar,6,3,DL_EnglishEdition_Remastered_Guitar,0.370345801115036,0
56,100,0.9818181818181818,694,0,63,DL_EnglishEdition_Remastered_Guitar,6,15,DL_EnglishEdition_Remastered_Guitar,0.45616599917411804,0
56,100,0.8409090909090909,66,1,64,DL_EnglishEdition_Remastered_Guitar,6,13,DL_EnglishEdition_Remastered_Guitar,0.9986506104469299,1
52,100,0.8818181818181818,320,1,64,DL_EnglishEdition_Remastered_Guitar,6,14,DL_EnglishEdition_Remastered_Guitar,0.08798084408044815,0
59,100,0.22272727272727272,519,0,64,DL_EnglishEdition_Remastered_Guitar,6,4,DL_EnglishEdition_Remastered_Guitar,0.09298515319824219,0
59,100,0.8590909090909091,590,0,64,DL_EnglishEdition_Remastered_Guitar,6,14,DL_EnglishEdition_Remastered_Guitar,0.10994851589202881,0
59,100,0.12272727272727273,817,0,64,DL_EnglishEdition_Remastered_Guitar,6,2,DL_EnglishEdition_Remastered_Guitar,0.12867501378059387,0
54,100,0.4409090909090909,857,0,64,DL_EnglishEdition_Remastered_Guitar,6,7,DL_EnglishEdition_Remastered_Guitar,0.18221497535705566,0
59,100,0.32272727272727275,157,1,65,DL_EnglishEdition_Remastered_Guitar,6,5,DL_EnglishEdition_Remastered_Guitar,0.9988439083099365,1
59,100,0.4409090909090909,255,0,65,DL_EnglishEdition_Remastered_Guitar,6,7,DL_EnglishEdition_Remastered_Guitar,0.13798436522483826,0
54,100,0.2,480,0,65,DL_EnglishEdition_Remastered_Guitar,6,3,DL_EnglishEdition_Remastered_Guitar,0.16236716508865356,0
54,100,0.12272727272727273,597,0,65,DL_EnglishEdition_Remastered_Guitar,6,2,DL_EnglishEdition_Remastered_Guitar,0.1910616010427475,0
54,100,0.5772727272727273,756,0,65,DL_EnglishEdition_Remastered_Guitar,6,9,DL_EnglishEdition_Remastered_Guitar,0.2619701325893402,0
54,100,0.5409090909090909,132,1,66,DL_EnglishEdition_Remastered_Guitar,6,9,DL_EnglishEdition_Remastered_Guitar,0.9984880685806274,1
54,100,0.23636363636363636,326,0,66,DL_EnglishEdition_Remastered_Guitar,6,4,DL_EnglishEdition_Remastered_Guitar,0.06335154175758362,0
54,100,0.2,396,0,66,DL_EnglishEdition_Remastered_Guitar,6,3,DL_EnglishEdition_Remastered_Guitar,0.05828697234392166,0
54,100,0.5181818181818182,527,0,66,DL_EnglishEdition_Remastered_Guitar,6,8,DL_EnglishEdition_Remastered_Guitar,0.061356473714113235,0
52,100,0.18181818181818182,660,0,66,DL_EnglishEdition_Remastered_Guitar,6,3,DL_EnglishEdition_Remastered_Guitar,0.07167799025774002,0
59,100,0.1409090909090909,726,0,66,DL_EnglishEdition_Remastered_Guitar,6,2,DL_EnglishEdition_Remastered_Guitar,0.0847286731004715,0
59,100,0.5181818181818182,779,0,66,DL_EnglishEdition_Remastered_Guitar,6,8,DL_EnglishEdition_Remastered_Guitar,0.12634550034999847,0
52,100,0.36363636363636365,47,1,67,DL_EnglishEdition_Remastered_Guitar,6,6,DL_EnglishEdition_Remastered_Guitar,0.9986506104469299,1
59,100,0.2,189,0,67,DL_EnglishEdition_Remastered_Guitar,6,3,DL_EnglishEdition_Remastered_Guitar,0.08797945827245712,0
54,100,0.18181818181818182,246,0,67,DL_EnglishEdition_Remastered_Guitar,6,3,DL_EnglishEdition_Remastered_Guitar,0.09298478811979294,0
54,100,0.17727272727272728,294,0,67,DL_EnglishEdition_Remastered_Guitar,6,3,DL_EnglishEdition_Remastered_Guitar,0.10995075851678848,0
54,100,0.22272727272727272,760,1,67,DL_EnglishEdition_Remastered_Guitar,6,4,DL_EnglishEdition_Remastered_Guitar,0.12867555022239685,0
54,100,0.3,823,0,67,DL_EnglishEdition_Remastered_Guitar,6,5,DL_EnglishEdition_Remastered_Guitar,0.1822216808795929,0
56,100,2.040909090909091,466,1,68,DL_EnglishEdition_Remastered_Guitar,6,15,DL_EnglishEdition_Remastered_Guitar,0.9792222380638123,1
54,100,0.13636363636363635,40,1,69,DL_EnglishEdition_Remastered_Guitar,6,2,DL_EnglishEdition_Remastered_Guitar,0.9984880685806274,1
52,100,1.7181818181818183,110,0,69,DL_EnglishEdition_Remastered_Guitar,6,15,DL_EnglishEdition_Remastered_Guitar,0.06335174292325974,0
52,100,0.1590909090909091,527,1,69,DL_EnglishEdition_Remastered_Guitar,6,3,DL_EnglishEdition_Remastered_Guitar,0.058289650827646255,0
54,100,0.1590909090909091,616,0,69,DL_EnglishEdition_Remastered_Guitar,6,3,DL_EnglishEdition_Remastered_Guitar,0.061362024396657944,0
54,100,0.2772727272727273,677,0,69,DL_EnglishEdition_Remastered_Guitar,6,4,DL_EnglishEdition_Remastered_Guitar,0.07168494164943695,0
61,100,0.12272727272727273,752,0,69,DL_EnglishEdition_Remastered_Guitar,6,2,DL_EnglishEdition_Remastered_Guitar,0.08473404496908188,0
61,100,0.35909090909090907,783,0,69,DL_EnglishEdition_Remastered_Guitar,6,6,DL_EnglishEdition_Remastered_Guitar,0.1263503134250641,0
54,100,0.6590909090909091,9,1,70,DL_EnglishEdition_Remastered_Guitar,6,11,DL_EnglishEdition_Remastered_Guitar,0.9986506104469299,1
59,100,0.16363636363636364,179,0,70,DL_EnglishEdition_Remastered_Guitar,6,3,DL_EnglishEdition_Remastered_Guitar,0.08797953277826309,0
59,100,0.1,453,1,70,DL_EnglishEdition_Remastered_Guitar,6,2,DL_EnglishEdition_Remastered_Guitar,0.09298434853553772,0
54,100,0.3,590,0,70,DL_EnglishEdition_Remastered_Guitar,6,5,DL_EnglishEdition_Remastered_Guitar,0.10994944721460342,0
54,100,0.2409090909090909,739,0,70,DL_EnglishEdition_Remastered_Guitar,6,4,DL_EnglishEdition_Remastered_Guitar,0.12867479026317596,0
52,100,1.7818181818181817,796,0,70,DL_EnglishEdition_Remastered_Guitar,6,15,DL_EnglishEdition_Remastered_Guitar,0.1822175532579422,0
52,100,0.2590909090909091,316,1,71,DL_EnglishEdition_Remastered_Guitar,6,4,DL_EnglishEdition_Remastered_Guitar,0.9990094900131226,1
52,100,0.740909090909091,399,0,71,DL_EnglishEdition_Remastered_Guitar,6,12,DL_EnglishEdition_Remastered_Guitar,0.23322752118110657,0
52,100,0.4409090909090909,597,0,71,DL_EnglishEdition_Remastered_Guitar,6,7,DL_EnglishEdition_Remastered_Guitar,0.27057981491088867,0
52,100,0.6181818181818182,713,0,71,DL_EnglishEdition_Remastered_Guitar,6,10,DL_EnglishEdition_Remastered_Guitar,0.35793378949165344,0
54,100,0.1,210,1,72,DL_EnglishEdition_Remastered_Guitar,6,2,DL_EnglishEdition_Remastered_Guitar,0.9988440275192261,1
59,100,0.17727272727272728,457,1,72,DL_EnglishEdition_Remastered_Guitar,6,3,DL_EnglishEdition_Remastered_Guitar,0.1379823386669159,0
59,100,0.2,509,0,72,DL_EnglishEdition_Remastered_Guitar,6,3,DL_EnglishEdition_Remastered_Guitar,0.16236509382724762,0
54,100,0.4590909090909091,612,0,72,DL_EnglishEdition_Remastered_Guitar,6,7,DL_EnglishEdition_Remastered_Guitar,0.19105614721775055,0
54,100,0.1590909090909091,716,0,72,DL_EnglishEdition_Remastered_Guitar,6,3,DL_EnglishEdition_Remastered_Guitar,0.26196587085723877,0
54,100,0.2818181818181818,166,1,73,DL_EnglishEdition_Remastered_Guitar,6,5,DL_EnglishEdition_Remastered_Guitar,0.9990094900131226,1
56,100,0.6409090909090909,242,0,73,DL_EnglishEdition_Remastered_Guitar,6,10,DL_EnglishEdition_Remastered_Guitar,0.23322920501232147,0
56,100,0.7818181818181819,506,1,73,DL_EnglishEdition_Remastered_Guitar,6,13,DL_EnglishEdition_Remastered_Guitar,0.27057236433029175,0
52,100,0.1590909090909091,770,1,73,DL_EnglishEdition_Remastered_Guitar,6,3,DL_EnglishEdition_Remastered_Guitar,0.3579238951206207,0
59,100,0.11818181818181818,30,1,74,DL_EnglishEdition_Remastered_Guitar,6,2,DL_EnglishEdition_Remastered_Guitar,0.9984880685806274,1
52,100,0.3409090909090909,153,0,74,DL_EnglishEdition_Remastered_Guitar,6,5,DL_EnglishEdition_Remastered_Guitar,0.06335287541151047,0
52,100,0.1,233,0,74,DL_EnglishEdition_Remastered_Guitar,6,2,DL_EnglishEdition_Remastered_Guitar,0.05829048529267311,0
59,100,0.12272727272727273,255,0,74,DL_EnglishEdition_Remastered_Guitar,6,2,DL_EnglishEdition_Remastered_Guitar,0.06136399880051613,0
52,100,0.2,303,0,74,DL_EnglishEdition_Remastered_Guitar,6,3,DL_EnglishEdition_Remastered_Guitar,0.07168427854776382,0
54,100,0.2590909090909091,783,1,74,DL_EnglishEdition_Remastered_Guitar,6,4,DL_EnglishEdition_Remastered_Guitar,0.08473920077085495,0
54,100,0.17727272727272728,876,0,74,DL_EnglishEdition_Remastered_Guitar,6,3,DL_EnglishEdition_Remastered_Guitar,0.12635914981365204,0
54,100,0.5227272727272727,56,1,75,DL_EnglishEdition_Remastered_Guitar,6,8,DL_EnglishEdition_Remastered_Guitar,0.9986506104469299,1
54,100,0.3,202,0,75,DL_EnglishEdition_Remastered_Guitar,6,5,DL_EnglishEdition_Remastered_Guitar,0.08797953277826309,0
54,100,0.18181818181818182,289,0,75,DL_EnglishEdition_Remastered_Guitar,6,3,DL_EnglishEdition_Remastered_Guitar,0.0929843857884407,0
54,100,0.2772727272727273,404,0,75,DL_EnglishEdition_Remastered_Guitar,6,4,DL_EnglishEdition_Remastered_Guitar,0.10994991660118103,0
54,100,0.7181818181818181,572,0,75,DL_EnglishEdition_Remastered_Guitar,6,11,DL_EnglishEdition_Remastered_Guitar,0.12866812944412231,0
54,100,0.4409090909090909,849,1,75,DL_EnglishEdition_Remastered_Guitar,6,7,DL_EnglishEdition_Remastered_Guitar,0.18221788108348846,0
54,100,0.5,92,1,76,DL_EnglishEdition_Remastered_Guitar,6,8,DL_EnglishEdition_Remastered_Guitar,0.9986507296562195,1
59,100,0.4590909090909091,242,0,76,DL_EnglishEdition_Remastered_Guitar,6,7,DL_EnglishEdition_Remastered_Guitar,0.08797886967658997,0
54,100,0.2409090909090909,365,0,76,DL_EnglishEdition_Remastered_Guitar,6,4,DL_EnglishEdition_Remastered_Guitar,0.0929834246635437,0
54,100,0.5181818181818182,436,0,76,DL_EnglishEdition_Remastered_Guitar,6,8,DL_EnglishEdition_Remastered_Guitar,0.10994762182235718,0
59,100,0.4818181818181818,629,0,76,DL_EnglishEdition_Remastered_Guitar,6,8,DL_EnglishEdition_Remastered_Guitar,0.12866725027561188,0
54,100,0.22272727272727272,739,0,76,DL_EnglishEdition_Remastered_Guitar,6,4,DL_EnglishEdition_Remastered_Guitar,0.1822153776884079,0
59,100,0.3181818181818182,17,1,77,DL_EnglishEdition_Remastered_Guitar,6,5,DL_EnglishEdition_Remastered_Guitar,0.9984880685806274,1
59,100,0.13636363636363635,216,0,77,DL_EnglishEdition_Remastered_Guitar,6,2,DL_EnglishEdition_Remastered_Guitar,0.06335434317588806,0
54,100,0.12272727272727273,255,0,77,DL_EnglishEdition_Remastered_Guitar,6,2,DL_EnglishEdition_Remastered_Guitar,0.058290090411901474,0
54,100,0.11818181818181818,303,0,77,DL_EnglishEdition_Remastered_Guitar,6,2,DL_EnglishEdition_Remastered_Guitar,0.061361443251371384,0
52,100,0.6,383,0,77,DL_EnglishEdition_Remastered_Guitar,6,10,DL_EnglishEdition_Remastered_Guitar,0.07168237119913101,0
59,100,0.12272727272727273,540,0,77,DL_EnglishEdition_Remastered_Guitar,6,2,DL_EnglishEdition_Remastered_Guitar,0.08473862707614899,0
52,100,0.9181818181818182,637,0,77,DL_EnglishEdition_Remastered_Guitar,6,15,DL_EnglishEdition_Remastered_Guitar,0.12635168433189392,0
54,100,0.21818181818181817,150,1,78,DL_EnglishEdition_Remastered_Guitar,6,3,DL_EnglishEdition_Remastered_Guitar,0.9988439083099365,1
59,100,0.4,250,0,78,DL_EnglishEdition_Remastered_Guitar,6,6,DL_EnglishEdition_Remastered_Guitar,0.13798075914382935,0
54,100,0.2818181818181818,475,0,78,DL_EnglishEdition_Remastered_Guitar,6,5,DL_EnglishEdition_Remastered_Guitar,0.16236373782157898,0
59,100,0.8363636363636363,612,0,78,DL_EnglishEdition_Remastered_Guitar,6,13,DL_EnglishEdition_Remastered_Guitar,0.19105039536952972,0
54,100,0.18181818181818182,817,0,78,DL_EnglishEdition_Remastered_Guitar,6,3,DL_EnglishEdition_Remastered_Guitar,0.2619641125202179,0
54,100,0.11818181818181818,119,1,79,DL_EnglishEdition_Remastered_Guitar,6,2,DL_EnglishEdition_Remastered_Guitar,0.9984880685806274,1
54,100,0.2772727272727273,193,0,79,DL_EnglishEdition_Remastered_Guitar,6,4,DL_EnglishEdition_Remastered_Guitar,0.06335154175758362,0
59,100,0.2409090909090909,263,0,79,DL_EnglishEdition_Remastered_Guitar,6,4,DL_EnglishEdition_Remastered_Guitar,0.058286987245082855,0
54,100,0.1409090909090909,320,0,79,DL_EnglishEdition_Remastered_Guitar,6,2,DL_EnglishEdition_Remastered_Guitar,0.06136098504066467,0
54,100,0.3409090909090909,365,0,79,DL_EnglishEdition_Remastered_Guitar,6,5,DL_EnglishEdition_Remastered_Guitar,0.07167881727218628,0
59,100,0.17727272727272728,449,0,79,DL_EnglishEdition_Remastered_Guitar,6,3,DL_EnglishEdition_Remastered_Guitar,0.08473224937915802,0
59,100,0.4636363636363636,729,1,79,DL_EnglishEdition_Remastered_Guitar,6,7,DL_EnglishEdition_Remastered_Guitar,0.12634986639022827,0
52,100,0.6409090909090909,79,1,80,DL_EnglishEdition_Remastered_Guitar,6,10,DL_EnglishEdition_Remastered_Guitar,0.9990094900131226,1
52,100,0.2818181818181818,409,1,80,DL_EnglishEdition_Remastered_Guitar,6,5,DL_EnglishEdition_Remastered_Guitar,0.23322854936122894,0
54,100,0.3181818181818182,747,1,80,DL_EnglishEdition_Remastered_Guitar,6,5,DL_EnglishEdition_Remastered_Guitar,0.2705819606781006,0
54,100,0.11818181818181818,823,0,80,DL_EnglishEdition_Remastered_Guitar,6,2,DL_EnglishEdition_Remastered_Guitar,0.3579314649105072,0
54,100,0.5227272727272727,3,1,81,DL_EnglishEdition_Remastered_Guitar,6,8,DL_EnglishEdition_Remastered_Guitar,0.9986506104469299,1
59,100,0.2409090909090909,163,0,81,DL_EnglishEdition_Remastered_Guitar,6,4,DL_EnglishEdition_Remastered_Guitar,0.08797852694988251,0
54,100,0.6,396,1,81,DL_EnglishEdition_Remastered_Guitar,6,10,DL_EnglishEdition_Remastered_Guitar,0.09298325330018997,0
59,100,0.12272727272727273,629,1,81,DL_EnglishEdition_Remastered_Guitar,6,2,DL_EnglishEdition_Remastered_Guitar,0.1099478080868721,0
59,100,0.4,700,0,81,DL_EnglishEdition_Remastered_Guitar,6,6,DL_EnglishEdition_Remastered_Guitar,0.1286681592464447,0
59,100,0.21818181818181817,853,0,81,DL_EnglishEdition_Remastered_Guitar,6,3,DL_EnglishEdition_Remastered_Guitar,0.18221676349639893,0
54,100,0.3,30,1,82,DL_EnglishEdition_Remastered_Guitar,6,5,DL_EnglishEdition_Remastered_Guitar,0.9984880685806274,1
52,100,0.4409090909090909,163,0,82,DL_EnglishEdition_Remastered_Guitar,6,7,DL_EnglishEdition_Remastered_Guitar,0.06335318833589554,0
59,100,0.35909090909090907,276,0,82,DL_EnglishEdition_Remastered_Guitar,6,6,DL_EnglishEdition_Remastered_Guitar,0.05829011648893356,0
52,100,0.4818181818181818,430,0,82,DL_EnglishEdition_Remastered_Guitar,6,8,DL_EnglishEdition_Remastered_Guitar,0.061361901462078094,0
52,100,0.11818181818181818,660,0,82,DL_EnglishEdition_Remastered_Guitar,6,2,DL_EnglishEdition_Remastered_Guitar,0.07168373465538025,0
52,100,0.1590909090909091,713,0,82,DL_EnglishEdition_Remastered_Guitar,6,3,DL_EnglishEdition_Remastered_Guitar,0.08473721891641617,0
54,100,0.17727272727272728,832,0,82,DL_EnglishEdition_Remastered_Guitar,6,3,DL_EnglishEdition_Remastered_Guitar,0.12635444104671478,0
54,100,0.16363636363636364,3,1,83,DL_EnglishEdition_Remastered_Guitar,6,3,DL_EnglishEdition_Remastered_Guitar,0.9988439083099365,1
54,100,0.3409090909090909,123,0,83,DL_EnglishEdition_Remastered_Guitar,6,5,DL_EnglishEdition_Remastered_Guitar,0.13797999918460846,0
54,100,0.18181818181818182,312,0,83,DL_EnglishEdition_Remastered_Guitar,6,3,DL_EnglishEdition_Remastered_Guitar,0.16236385703086853,0
54,100,0.41818181818181815,426,0,83,DL_EnglishEdition_Remastered_Guitar,6,7,DL_EnglishEdition_Remastered_Guitar,0.191053107380867,0
54,100,0.4409090909090909,713,1,83,DL_EnglishEdition_Remastered_Guitar,6,7,DL_EnglishEdition_Remastered_Guitar,0.2619653642177582,0
54,100,0.2818181818181818,110,1,84,DL_EnglishEdition_Remastered_Guitar,6,5,DL_EnglishEdition_Remastered_Guitar,0.9990094900131226,1
54,100,0.1590909090909091,347,1,84,DL_EnglishEdition_Remastered_Guitar,6,3,DL_EnglishEdition_Remastered_Guitar,0.23323068022727966,0
59,100,0.4818181818181818,386,0,84,DL_EnglishEdition_Remastered_Guitar,6,8,DL_EnglishEdition_Remastered_Guitar,0.27058714628219604,0
54,100,0.8227272727272728,496,0,84,DL_EnglishEdition_Remastered_Guitar,6,13,DL_EnglishEdition_Remastered_Guitar,0.357916921377182,0
54,100,0.17727272727272728,470,1,85,DL_EnglishEdition_Remastered_Guitar,6,3,DL_EnglishEdition_Remastered_Guitar,0.9792242646217346,1
56,100,0.12272727272727273,575,1,4,_Remix_Guitar,6,2,_Remix_Guitar,0.9792226552963257,1
58,100,0.18181818181818182,66,1,5,_Remix_Guitar,6,3,_Remix_Guitar,0.9984879493713379,1
58,100,0.1,128,0,5,_Remix_Guitar,6,2,_Remix_Guitar,0.06335273385047913,0
58,100,0.12272727272727273,232,0,5,_Remix_Guitar,6,2,_Remix_Guitar,0.05828947573900223,0
56,100,0.13636363636363635,391,0,5,_Remix_Guitar,6,2,_Remix_Guitar,0.061360567808151245,0
63,100,0.12272727272727273,431,0,5,_Remix_Guitar,6,2,_Remix_Guitar,0.0716819241642952,0
56,100,0.2590909090909091,550,0,5,_Remix_Guitar,6,4,_Remix_Guitar,0.08473222702741623,0
65,100,0.1409090909090909,778,0,5,_Remix_Guitar,6,2,_Remix_Guitar,0.1263502985239029,0
58,100,0.22272727272727272,12,1,6,_Remix_Guitar,6,4,_Remix_Guitar,0.9988440275192261,1
65,100,0.38181818181818183,286,1,6,_Remix_Guitar,6,6,_Remix_Guitar,0.1379854381084442,0
55,100,0.2,399,0,6,_Remix_Guitar,6,3,_Remix_Guitar,0.16236615180969238,0
55,100,0.21818181818181817,493,0,6,_Remix_Guitar,6,3,_Remix_Guitar,0.19105710089206696,0
55,100,0.13636363636363635,678,0,6,_Remix_Guitar,6,2,_Remix_Guitar,0.2619583308696747,0
70,100,0.1409090909090909,342,1,7,_Remix_Guitar,6,2,_Remix_Guitar,0.9990096092224121,1
55,100,0.1409090909090909,581,1,7,_Remix_Guitar,6,2,_Remix_Guitar,0.2332342118024826,0
55,100,0.1,810,0,7,_Remix_Guitar,6,2,_Remix_Guitar,0.2705874741077423,0
63,100,0.22272727272727272,871,0,7,_Remix_Guitar,6,4,_Remix_Guitar,0.35793057084083557,0
56,100,0.4818181818181818,254,1,8,_Remix_Guitar,6,8,_Remix_Guitar,0.9983231425285339,1
58,100,0.11818181818181818,814,1,8,_Remix_Guitar,6,2,_Remix_Guitar,0.5462161898612976,1
55,100,0.11818181818181818,22,1,9,_Remix_Guitar,6,2,_Remix_Guitar,0.9792245030403137,1
58,100,0.12272727272727273,553,1,10,_Remix_Guitar,6,2,_Remix_Guitar,0.9792247414588928,1
58,100,0.12272727272727273,101,1,13,_Remix_Guitar,6,2,_Remix_Guitar,0.9983232617378235,1
56,100,0.16363636363636364,465,1,13,_Remix_Guitar,6,3,_Remix_Guitar,0.5462126731872559,1
58,100,0.2590909090909091,326,1,14,_Remix_Guitar,6,4,_Remix_Guitar,0.9983231425285339,1
63,100,0.18181818181818182,474,0,14,_Remix_Guitar,6,3,_Remix_Guitar,0.5462114214897156,1
53,100,0.11818181818181818,876,1,15,_Remix_Guitar,6,2,_Remix_Guitar,0.9792242646217346,1
53,100,0.11818181818181818,44,1,16,_Remix_Guitar,6,2,_Remix_Guitar,0.9792241454124451,1
58,100,0.4772727272727273,449,1,18,_Remix_Guitar,6,8,_Remix_Guitar,0.979223906993866,1
58,100,0.5,246,1,19,_Remix_Guitar,6,8,_Remix_Guitar,0.9983232617378235,1
63,100,0.7,660,1,19,_Remix_Guitar,6,11,_Remix_Guitar,0.5462105870246887,1
58,100,0.41818181818181815,528,1,20,_Remix_Guitar,6,7,_Remix_Guitar,0.9792242646217346,1
58,100,0.18181818181818182,34,1,21,_Remix_Guitar,6,3,_Remix_Guitar,0.9990280866622925,1
58,100,0.1590909090909091,119,0,21,_Remix_Guitar,6,3,_Remix_Guitar,0.3703416883945465,0
58,100,0.41818181818181815,615,1,21,_Remix_Guitar,6,7,_Remix_Guitar,0.45616796612739563,0
56,100,0.1409090909090909,405,1,22,_Remix_Guitar,6,2,_Remix_Guitar,0.9983231425285339,1
56,100,0.3,602,0,22,_Remix_Guitar,6,5,_Remix_Guitar,0.5462110638618469,1
53,100,0.18181818181818182,268,1,23,_Remix_Guitar,6,3,_Remix_Guitar,0.9990280866622925,1
58,100,0.21818181818181817,316,0,23,_Remix_Guitar,6,3,_Remix_Guitar,0.3703363239765167,0
58,100,0.1409090909090909,818,1,23,_Remix_Guitar,6,2,_Remix_Guitar,0.45616772770881653,0
58,100,0.2590909090909091,743,1,24,_Remix_Guitar,6,4,_Remix_Guitar,0.9792238473892212,1
53,100,0.41818181818181815,52,1,25,_Remix_Guitar,6,7,_Remix_Guitar,0.9988439083099365,1
53,100,0.11818181818181818,206,0,25,_Remix_Guitar,6,2,_Remix_Guitar,0.1379816234111786,0
58,100,0.4,246,0,25,_Remix_Guitar,6,6,_Remix_Guitar,0.16236256062984467,0
53,100,0.18181818181818182,474,0,25,_Remix_Guitar,6,3,_Remix_Guitar,0.19105224311351776,0
58,100,0.11818181818181818,700,0,25,_Remix_Guitar,6,2,_Remix_Guitar,0.26196619868278503,0
58,100,0.3,61,1,26,_Remix_Guitar,6,5,_Remix_Guitar,0.9990094900131226,1
53,100,0.17727272727272728,140,0,26,_Remix_Guitar,6,3,_Remix_Guitar,0.23322920501232147,0
58,100,0.8227272727272728,422,1,26,_Remix_Guitar,6,13,_Remix_Guitar,0.27057552337646484,0
58,100,0.2,849,1,26,_Remix_Guitar,6,3,_Remix_Guitar,0.3579224944114685,0
63,100,0.1590909090909091,88,1,27,_Remix_Guitar,6,3,_Remix_Guitar,0.9990094900131226,1
58,100,0.21818181818181817,281,0,27,_Remix_Guitar,6,3,_Remix_Guitar,0.23323185741901398,0
65,100,0.17727272727272728,633,1,27,_Remix_Guitar,6,3,_Remix_Guitar,0.27058643102645874,0
58,100,0.41818181818181815,822,0,27,_Remix_Guitar,6,7,_Remix_Guitar,0.3579278290271759,0
55,100,0.1409090909090909,113,1,28,_Remix_Guitar,6,2,_Remix_Guitar,0.9983232617378235,1
58,100,0.22272727272727272,752,1,28,_Remix_Guitar,6,4,_Remix_Guitar,0.5462125539779663,1
58,100,0.1409090909090909,131,1,29,_Remix_Guitar,6,2,_Remix_Guitar,0.9983232617378235,1
58,100,0.22272727272727272,320,0,29,_Remix_Guitar,6,4,_Remix_Guitar,0.5462179780006409,1
58,100,0.2,44,1,30,_Remix_Guitar,6,3,_Remix_Guitar,0.9990094900131226,1
58,100,0.38181818181818183,285,1,30,_Remix_Guitar,6,6,_Remix_Guitar,0.23322804272174835,0
63,100,0.21818181818181817,567,1,30,_Remix_Guitar,6,3,_Remix_Guitar,0.2705773115158081,0
70,100,0.1,633,0,30,_Remix_Guitar,6,2,_Remix_Guitar,0.35793307423591614,0
58,100,0.1409090909090909,69,1,31,_Remix_Guitar,6,2,_Remix_Guitar,0.9990280866622925,1
56,100,0.2,167,0,31,_Remix_Guitar,6,3,_Remix_Guitar,0.3703305423259735,0
58,100,0.2,796,1,31,_Remix_Guitar,6,3,_Remix_Guitar,0.45616787672042847,0
58,100,0.2409090909090909,311,1,32,_Remix_Guitar,6,4,_Remix_Guitar,0.9990096092224121,1
63,100,0.21818181818181817,391,0,32,_Remix_Guitar,6,3,_Remix_Guitar,0.23323270678520203,0
63,100,0.21818181818181817,678,1,32,_Remix_Guitar,6,3,_Remix_Guitar,0.2705897092819214,0
63,100,0.18181818181818182,783,0,32,_Remix_Guitar,6,3,_Remix_Guitar,0.3579304814338684,0
53,100,0.1590909090909091,743,1,33,_Remix_Guitar,6,3,_Remix_Guitar,0.9983232617378235,1
53,100,0.1409090909090909,804,0,33,_Remix_Guitar,6,2,_Remix_Guitar,0.5462167263031006,1
53,100,0.4818181818181818,43,1,34,_Remix_Guitar,6,8,_Remix_Guitar,0.9984879493713379,1
53,100,0.18181818181818182,158,0,34,_Remix_Guitar,6,3,_Remix_Guitar,0.0633535236120224,0
53,100,0.3181818181818182,215,0,34,_Remix_Guitar,6,5,_Remix_Guitar,0.05828862637281418,0
53,100,0.2,295,0,34,_Remix_Guitar,6,3,_Remix_Guitar,0.061361975967884064,0
63,100,0.1,606,1,34,_Remix_Guitar,6,2,_Remix_Guitar,0.07168462127447128,0
60,100,0.32272727272727275,708,0,34,_Remix_Guitar,6,5,_Remix_Guitar,0.08473864197731018,0
53,100,0.5772727272727273,831,0,34,_Remix_Guitar,6,9,_Remix_Guitar,0.1263495534658432,0
53,100,0.1590909090909091,128,1,35,_Remix_Guitar,6,3,_Remix_Guitar,0.9990280866622925,1
58,100,0.1409090909090909,373,1,35,_Remix_Guitar,6,2,_Remix_Guitar,0.3703433573246002,0
58,100,0.2818181818181818,431,0,35,_Remix_Guitar,6,5,_Remix_Guitar,0.45615994930267334,0
58,100,0.21818181818181817,163,1,37,_Remix_Guitar,6,3,_Remix_Guitar,0.9990280866622925,1
58,100,0.12272727272727273,584,1,37,_Remix_Guitar,6,2,_Remix_Guitar,0.3703496754169464,0
63,100,0.1409090909090909,770,0,37,_Remix_Guitar,6,2,_Remix_Guitar,0.45616796612739563,0
62,100,0.17727272727272728,185,1,38,_Remix_Guitar,6,3,_Remix_Guitar,0.9990280866622925,1
58,100,0.37727272727272726,448,1,38,_Remix_Guitar,6,6,_Remix_Guitar,0.3703443109989166,0
58,100,0.3,536,0,38,_Remix_Guitar,6,5,_Remix_Guitar,0.4561750292778015,0
58,100,0.2,338,1,39,_Remix_Guitar,6,3,_Remix_Guitar,0.9990280866622925,1
58,100,0.2590909090909091,748,1,39,_Remix_Guitar,6,4,_Remix_Guitar,0.3703414797782898,0
56,100,0.1409090909090909,823,0,39,_Remix_Guitar,6,2,_Remix_Guitar,0.4561675786972046,0
58,100,0.16363636363636364,246,1,40,_Remix_Guitar,6,3,_Remix_Guitar,0.9984879493713379,1
53,100,0.18181818181818182,308,0,40,_Remix_Guitar,6,3,_Remix_Guitar,0.06335191428661346,0
65,100,0.18181818181818182,373,0,40,_Remix_Guitar,6,3,_Remix_Guitar,0.05828766152262688,0
58,100,0.2,418,0,40,_Remix_Guitar,6,3,_Remix_Guitar,0.06135925278067589,0
58,100,0.11818181818181818,550,0,40,_Remix_Guitar,6,2,_Remix_Guitar,0.07167821377515793,0
53,100,0.2,655,0,40,_Remix_Guitar,6,3,_Remix_Guitar,0.08472993224859238,0
58,100,0.1590909090909091,703,0,40,_Remix_Guitar,6,3,_Remix_Guitar,0.12634333968162537,0
58,100,0.1590909090909091,496,1,41,_Remix_Guitar,6,3,_Remix_Guitar,0.9983232617378235,1
58,100,0.3181818181818182,536,0,41,_Remix_Guitar,6,5,_Remix_Guitar,0.5462179183959961,1
58,100,0.1590909090909091,21,1,42,_Remix_Guitar,6,3,_Remix_Guitar,0.9990280866622925,1
58,100,0.2818181818181818,638,1,42,_Remix_Guitar,6,5,_Remix_Guitar,0.37033355236053467,0
58,100,0.21818181818181817,823,0,42,_Remix_Guitar,6,3,_Remix_Guitar,0.4561663866043091,0
58,100,0.2,179,1,43,_Remix_Guitar,6,3,_Remix_Guitar,0.9983232617378235,1
58,100,0.18181818181818182,298,0,43,_Remix_Guitar,6,3,_Remix_Guitar,0.5462121963500977,1
58,100,0.21818181818181817,31,1,45,_Remix_Guitar,6,3,_Remix_Guitar,0.9986506104469299,1
56,100,0.18181818181818182,114,0,45,_Remix_Guitar,6,3,_Remix_Guitar,0.08797943592071533,0
58,100,0.2590909090909091,228,0,45,_Remix_Guitar,6,4,_Remix_Guitar,0.09298466891050339,0
58,100,0.1590909090909091,338,0,45,_Remix_Guitar,6,3,_Remix_Guitar,0.10995309799909592,0
58,100,0.2818181818181818,378,0,45,_Remix_Guitar,6,5,_Remix_Guitar,0.128670796751976,0
63,100,0.1409090909090909,461,0,45,_Remix_Guitar,6,2,_Remix_Guitar,0.1822194755077362,0
56,100,0.1,56,1,46,_Remix_Guitar,6,2,_Remix_Guitar,0.9990094900131226,1
63,100,0.2,171,0,46,_Remix_Guitar,6,3,_Remix_Guitar,0.23323644697666168,0
56,100,0.6,474,1,46,_Remix_Guitar,6,10,_Remix_Guitar,0.2705787122249603,0
58,100,0.3,770,1,46,_Remix_Guitar,6,5,_Remix_Guitar,0.3579302430152893,0
58,100,0.22272727272727272,123,1,47,_Remix_Guitar,6,4,_Remix_Guitar,0.9990280866622925,1
63,100,0.2,303,0,47,_Remix_Guitar,6,3,_Remix_Guitar,0.3703288733959198,0
58,100,0.1590909090909091,810,1,47,_Remix_Guitar,6,3,_Remix_Guitar,0.45617085695266724,0
55,100,0.3181818181818182,150,1,48,_Remix_Guitar,6,5,_Remix_Guitar,0.9990094900131226,1
58,100,0.4818181818181818,289,0,48,_Remix_Guitar,6,8,_Remix_Guitar,0.23322826623916626,0
53,100,0.12272727272727273,554,1,48,_Remix_Guitar,6,2,_Remix_Guitar,0.27057725191116333,0
53,100,0.2590909090909091,646,0,48,_Remix_Guitar,6,4,_Remix_Guitar,0.3579168915748596,0
58,100,0.2,356,1,50,_Remix_Guitar,6,3,_Remix_Guitar,0.9990280866622925,1
58,100,0.16363636363636364,444,0,50,_Remix_Guitar,6,3,_Remix_Guitar,0.37034592032432556,0
58,100,0.32272727272727275,651,0,50,_Remix_Guitar,6,5,_Remix_Guitar,0.456171452999115,0
58,100,0.1409090909090909,518,1,51,_Remix_Guitar,6,2,_Remix_Guitar,0.9990280866622925,1
63,100,0.2,576,0,51,_Remix_Guitar,6,3,_Remix_Guitar,0.37034788727760315,0
63,100,0.18181818181818182,871,1,51,_Remix_Guitar,6,3,_Remix_Guitar,0.4561745226383209,0
63,100,0.16363636363636364,69,1,52,_Remix_Guitar,6,3,_Remix_Guitar,0.9990280866622925,1
63,100,0.11818181818181818,198,0,52,_Remix_Guitar,6,2,_Remix_Guitar,0.37035518884658813,0
63,100,0.5,778,1,52,_Remix_Guitar,6,8,_Remix_Guitar,0.45617493987083435,0
63,100,0.37727272727272726,171,1,53,_Remix_Guitar,6,6,_Remix_Guitar,0.9988439083099365,1
56,100,0.1409090909090909,268,0,53,_Remix_Guitar,6,2,_Remix_Guitar,0.13798153400421143,0
58,100,0.21818181818181817,483,0,53,_Remix_Guitar,6,3,_Remix_Guitar,0.16236674785614014,0
58,100,0.21818181818181817,568,0,53,_Remix_Guitar,6,3,_Remix_Guitar,0.19105783104896545,0
58,100,0.5590909090909091,646,0,53,_Remix_Guitar,6,9,_Remix_Guitar,0.26195991039276123,0
58,100,0.1409090909090909,474,1,55,_Remix_Guitar,6,2,_Remix_Guitar,0.9990094900131226,1
58,100,0.1409090909090909,673,0,55,_Remix_Guitar,6,2,_Remix_Guitar,0.2332291305065155,0
58,100,0.2409090909090909,796,0,55,_Remix_Guitar,6,4,_Remix_Guitar,0.2705777585506439,0
58,100,0.13636363636363635,853,0,55,_Remix_Guitar,6,2,_Remix_Guitar,0.3579235374927521,0
58,100,0.1590909090909091,83,1,56,_Remix_Guitar,6,3,_Remix_Guitar,0.9990094900131226,1
60,100,0.5,141,0,56,_Remix_Guitar,6,8,_Remix_Guitar,0.23322975635528564,0
60,100,0.2818181818181818,431,1,56,_Remix_Guitar,6,5,_Remix_Guitar,0.27058079838752747,0
53,100,0.1,641,0,56,_Remix_Guitar,6,2,_Remix_Guitar,0.3579212725162506,0
58,100,0.22272727272727272,101,1,57,_Remix_Guitar,6,4,_Remix_Guitar,0.9983232617378235,1
55,100,0.1,826,1,57,_Remix_Guitar,6,2,_Remix_Guitar,0.5462143421173096,1
60,100,0.16363636363636364,488,1,58,_Remix_Guitar,6,3,_Remix_Guitar,0.9983232617378235,1
58,100,0.1,581,0,58,_Remix_Guitar,6,2,_Remix_Guitar,0.546211302280426,1
55,100,0.11818181818181818,625,1,59,_Remix_Guitar,6,2,_Remix_Guitar,0.9983232617378235,1
58,100,0.1409090909090909,770,0,59,_Remix_Guitar,6,2,_Remix_Guitar,0.5462163090705872,1
53,100,0.12272727272727273,584,1,60,_Remix_Guitar,6,2,_Remix_Guitar,0.9792240262031555,1
74,100,0.5,726,1,61,_Remix_Guitar,6,8,_Remix_Guitar,0.9792234897613525,1
58,100,0.3,96,1,62,_Remix_Guitar,6,5,_Remix_Guitar,0.9990280866622925,1
58,100,0.1409090909090909,364,1,62,_Remix_Guitar,6,2,_Remix_Guitar,0.3703398108482361,0
58,100,0.18181818181818182,738,1,62,_Remix_Guitar,6,3,_Remix_Guitar,0.4561644196510315,0
58,100,0.22272727272727272,136,1,63,_Remix_Guitar,6,4,_Remix_Guitar,0.9990094900131226,1
58,100,0.22272727272727272,233,0,63,_Remix_Guitar,6,4,_Remix_Guitar,0.2332332283258438,0
58,100,0.3181818181818182,616,1,63,_Remix_Guitar,6,5,_Remix_Guitar,0.2705762982368469,0
55,100,0.2,743,0,63,_Remix_Guitar,6,3,_Remix_Guitar,0.3579319417476654,0
58,100,0.21818181818181817,176,1,64,_Remix_Guitar,6,3,_Remix_Guitar,0.9792243838310242,1
58,100,0.4,267,1,65,_Remix_Guitar,6,6,_Remix_Guitar,0.9990280866622925,1
58,100,0.33636363636363636,567,1,65,_Remix_Guitar,6,5,_Remix_Guitar,0.3703400194644928,0
58,100,0.21818181818181817,713,0,65,_Remix_Guitar,6,3,_Remix_Guitar,0.45617353916168213,0
58,100,0.1409090909090909,343,1,66,_Remix_Guitar,6,2,_Remix_Guitar,0.9983232617378235,1
55,100,0.1409090909090909,839,1,66,_Remix_Guitar,6,2,_Remix_Guitar,0.5462116599082947,1
55,100,0.1,303,1,67,_Remix_Guitar,6,2,_Remix_Guitar,0.9988439083099365,1
55,100,0.11818181818181818,360,0,67,_Remix_Guitar,6,2,_Remix_Guitar,0.13798251748085022,0
56,100,0.1409090909090909,422,0,67,_Remix_Guitar,6,2,_Remix_Guitar,0.1623614877462387,0
58,100,0.1409090909090909,550,0,67,_Remix_Guitar,6,2,_Remix_Guitar,0.19105452299118042,0
53,100,0.16363636363636364,839,1,67,_Remix_Guitar,6,3,_Remix_Guitar,0.2619563043117523,0
53,100,0.2,30,1,68,_Remix_Guitar,6,3,_Remix_Guitar,0.9988439083099365,1
58,100,0.3409090909090909,223,0,68,_Remix_Guitar,6,5,_Remix_Guitar,0.13798266649246216,0
58,100,0.3181818181818182,339,0,68,_Remix_Guitar,6,5,_Remix_Guitar,0.16236689686775208,0
58,100,0.3181818181818182,436,0,68,_Remix_Guitar,6,5,_Remix_Guitar,0.19105859100818634,0
58,100,0.3,527,0,68,_Remix_Guitar,6,5,_Remix_Guitar,0.2619629502296448,0
58,100,0.17727272727272728,163,1,69,_Remix_Guitar,6,3,_Remix_Guitar,0.9988439083099365,1
53,100,0.17727272727272728,347,0,69,_Remix_Guitar,6,3,_Remix_Guitar,0.13798202574253082,0
56,100,0.1409090909090909,637,1,69,_Remix_Guitar,6,2,_Remix_Guitar,0.16235977411270142,0
53,100,0.2590909090909091,722,0,69,_Remix_Guitar,6,4,_Remix_Guitar,0.19105640053749084,0
53,100,0.1590909090909091,832,0,69,_Remix_Guitar,6,3,_Remix_Guitar,0.2619616985321045,0
53,100,0.18181818181818182,47,1,70,_Remix_Guitar,6,3,_Remix_Guitar,0.9988439083099365,1
53,100,0.4,127,0,70,_Remix_Guitar,6,6,_Remix_Guitar,0.13797877728939056,0
58,100,0.11818181818181818,417,1,70,_Remix_Guitar,6,2,_Remix_Guitar,0.16236546635627747,0
70,100,0.1590909090909091,470,0,70,_Remix_Guitar,6,3,_Remix_Guitar,0.19105476140975952,0
58,100,0.12272727272727273,783,1,70,_Remix_Guitar,6,2,_Remix_Guitar,0.2619607448577881,0
58,100,0.1,30,1,71,_Remix_Guitar,6,2,_Remix_Guitar,0.9986507296562195,1
58,100,0.1590909090909091,140,0,71,_Remix_Guitar,6,3,_Remix_Guitar,0.08797953277826309,0
58,100,0.3409090909090909,184,0,71,_Remix_Guitar,6,5,_Remix_Guitar,0.09298798441886902,0
58,100,0.12272727272727273,333,0,71,_Remix_Guitar,6,2,_Remix_Guitar,0.10995149612426758,0
56,100,0.1590909090909091,496,0,71,_Remix_Guitar,6,3,_Remix_Guitar,0.12866835296154022,0
58,100,0.12272727272727273,752,1,71,_Remix_Guitar,6,2,_Remix_Guitar,0.1822146326303482,0
58,100,0.18181818181818182,43,1,72,_Remix_Guitar,6,3,_Remix_Guitar,0.9988439083099365,1
58,100,0.1590909090909091,189,0,72,_Remix_Guitar,6,3,_Remix_Guitar,0.13798044621944427,0
58,100,0.1409090909090909,462,1,72,_Remix_Guitar,6,2,_Remix_Guitar,0.16236279904842377,0
58,100,0.1,619,0,72,_Remix_Guitar,6,2,_Remix_Guitar,0.19105172157287598,0
55,100,0.17727272727272728,722,0,72,_Remix_Guitar,6,3,_Remix_Guitar,0.2619610130786896,0
58,100,0.2,0,1,73,_Remix_Guitar,6,3,_Remix_Guitar,0.9988439083099365,1
55,100,0.12272727272727273,365,1,73,_Remix_Guitar,6,2,_Remix_Guitar,0.13798213005065918,0
70,100,0.1590909090909091,493,0,73,_Remix_Guitar,6,3,_Remix_Guitar,0.16236907243728638,0
56,100,0.2,779,1,73,_Remix_Guitar,6,3,_Remix_Guitar,0.1910557746887207,0
56,100,0.1590909090909091,836,0,73,_Remix_Guitar,6,3,_Remix_Guitar,0.26196619868278503,0
58,100,0.2818181818181818,47,1,74,_Remix_Guitar,6,5,_Remix_Guitar,0.9984879493713379,1
58,100,0.2409090909090909,136,0,74,_Remix_Guitar,6,4,_Remix_Guitar,0.06335193663835526,0
58,100,0.1,250,0,74,_Remix_Guitar,6,2,_Remix_Guitar,0.05828734114766121,0
58,100,0.22272727272727272,276,0,74,_Remix_Guitar,6,4,_Remix_Guitar,0.06135864183306694,0
53,100,0.2409090909090909,449,0,74,_Remix_Guitar,6,4,_Remix_Guitar,0.07167679071426392,0
58,100,0.2409090909090909,726,1,74,_Remix_Guitar,6,4,_Remix_Guitar,0.0847301334142685,0
55,100,0.18181818181818182,813,0,74,_Remix_Guitar,6,3,_Remix_Guitar,0.1263454258441925,0
58,100,0.18181818181818182,0,1,75,_Remix_Guitar,6,3,_Remix_Guitar,0.9990094900131226,1
55,100,0.35909090909090907,237,1,75,_Remix_Guitar,6,6,_Remix_Guitar,0.23323509097099304,0
56,100,0.1409090909090909,796,1,75,_Remix_Guitar,6,2,_Remix_Guitar,0.27058401703834534,0
56,100,0.17727272727272728,876,0,75,_Remix_Guitar,6,3,_Remix_Guitar,0.3579198718070984,0
58,100,0.2409090909090909,399,1,76,_Remix_Guitar,6,4,_Remix_Guitar,0.9990094900131226,1
58,100,0.12272727272727273,553,0,76,_Remix_Guitar,6,2,_Remix_Guitar,0.23322762548923492,0
58,100,0.22272727272727272,597,0,76,_Remix_Guitar,6,4,_Remix_Guitar,0.2705775499343872,0
55,100,0.17727272727272728,832,1,76,_Remix_Guitar,6,3,_Remix_Guitar,0.3579269051551819,0
58,100,0.1409090909090909,43,1,77,_Remix_Guitar,6,2,_Remix_Guitar,0.9990280866622925,1
63,100,0.23636363636363636,436,1,77,_Remix_Guitar,6,4,_Remix_Guitar,0.37034350633621216,0
63,100,0.3,593,0,77,_Remix_Guitar,6,5,_Remix_Guitar,0.4561728537082672,0
53,100,0.3181818181818182,0,1,78,_Remix_Guitar,6,5,_Remix_Guitar,0.9983735084533691,1
53,100,0.13636363636363635,106,0,78,_Remix_Guitar,6,2,_Remix_Guitar,0.051049672067165375,0
53,100,0.4590909090909091,166,0,78,_Remix_Guitar,6,7,_Remix_Guitar,0.041610997170209885,0
53,100,0.7,343,0,78,_Remix_Guitar,6,11,_Remix_Guitar,0.0379784032702446,0
53,100,0.4818181818181818,619,1,78,_Remix_Guitar,6,8,_Remix_Guitar,0.039258427917957306,0
53,100,0.11818181818181818,770,0,78,_Remix_Guitar,6,2,_Remix_Guitar,0.04616308957338333,0
53,100,0.1,800,0,78,_Remix_Guitar,6,2,_Remix_Guitar,0.05712766945362091,0
53,100,0.11818181818181818,857,0,78,_Remix_Guitar,6,2,_Remix_Guitar,0.09187289327383041,0
58,100,0.12272727272727273,79,1,79,_Remix_Guitar,6,2,_Remix_Guitar,0.9990094900131226,1
58,100,0.1590909090909091,119,0,79,_Remix_Guitar,6,3,_Remix_Guitar,0.23323218524456024,0
63,100,0.7,246,0,79,_Remix_Guitar,6,11,_Remix_Guitar,0.270574688911438,0
53,100,0.35909090909090907,660,1,79,_Remix_Guitar,6,6,_Remix_Guitar,0.3579306900501251,0
53,100,0.2,22,1,80,_Remix_Guitar,6,3,_Remix_Guitar,0.9986506104469299,1
58,100,0.1409090909090909,333,1,80,_Remix_Guitar,6,2,_Remix_Guitar,0.08797850459814072,0
53,100,0.2409090909090909,409,0,80,_Remix_Guitar,6,4,_Remix_Guitar,0.09298125654459,0
53,100,0.21818181818181817,506,0,80,_Remix_Guitar,6,3,_Remix_Guitar,0.10994470864534378,0
53,100,0.11818181818181818,616,0,80,_Remix_Guitar,6,2,_Remix_Guitar,0.12866145372390747,0
53,100,0.1409090909090909,686,0,80,_Remix_Guitar,6,2,_Remix_Guitar,0.18220914900302887,0
55,100,0.1,800,1,81,_Remix_Guitar,6,2,_Remix_Guitar,0.9792243838310242,1
55,100,0.38181818181818183,166,1,82,_Remix_Guitar,6,6,_Remix_Guitar,0.9792240262031555,1
63,100,0.2,13,1,83,_Remix_Guitar,6,3,_Remix_Guitar,0.9983231425285339,1
58,100,0.11818181818181818,792,1,83,_Remix_Guitar,6,2,_Remix_Guitar,0.5462225079536438,1
58,100,0.1409090909090909,823,1,84,_Remix_Guitar,6,2,_Remix_Guitar,0.9983232617378235,1
58,100,0.1590909090909091,857,0,84,_Remix_Guitar,6,3,_Remix_Guitar,0.5462144017219543,1
58,100,0.2772727272727273,216,1,85,_Remix_Guitar,6,4,_Remix_Guitar,0.9990280866622925,1
58,100,0.5,299,0,85,_Remix_Guitar,6,8,_Remix_Guitar,0.37034398317337036,0
56,100,0.2409090909090909,550,1,85,_Remix_Guitar,6,4,_Remix_Guitar,0.4561641216278076,0
58,100,0.17727272727272728,62,1,86,_Remix_Guitar,6,3,_Remix_Guitar,0.9990094900131226,1
53,100,0.42272727272727273,255,0,86,_Remix_Guitar,6,7,_Remix_Guitar,0.23322884738445282,0
53,100,0.1590909090909091,453,0,86,_Remix_Guitar,6,3,_Remix_Guitar,0.2705788314342499,0
55,100,0.2,673,0,86,_Remix_Guitar,6,3,_Remix_Guitar,0.3579268157482147,0
60,100,0.1,289,1,87,_Remix_Guitar,6,2,_Remix_Guitar,0.9986506104469299,1
60,100,0.2,413,0,87,_Remix_Guitar,6,3,_Remix_Guitar,0.0879785493016243,0
60,100,0.18181818181818182,462,0,87,_Remix_Guitar,6,3,_Remix_Guitar,0.09298289567232132,0
60,100,0.2,519,0,87,_Remix_Guitar,6,3,_Remix_Guitar,0.10994691401720047,0
60,100,0.11818181818181818,743,0,87,_Remix_Guitar,6,2,_Remix_Guitar,0.1286693960428238,0
60,100,0.11818181818181818,876,0,87,_Remix_Guitar,6,2,_Remix_Guitar,0.18221916258335114,0
60,100,0.13636363636363635,62,1,88,_Remix_Guitar,6,2,_Remix_Guitar,0.9792242646217346,1
58,100,0.3,179,1,89,_Remix_Guitar,6,5,_Remix_Guitar,0.9792243838310242,1
60,100,0.12272727272727273,145,1,90,_Remix_Guitar,6,2,_Remix_Guitar,0.9990094900131226,1
60,100,0.41818181818181815,193,0,90,_Remix_Guitar,6,7,_Remix_Guitar,0.233226016163826,0
53,100,0.21818181818181817,470,1,90,_Remix_Guitar,6,3,_Remix_Guitar,0.2705719769001007,0
65,100,0.11818181818181818,787,1,90,_Remix_Guitar,6,2,_Remix_Guitar,0.3579252362251282,0
67,100,0.11818181818181818,184,1,91,_Remix_Guitar,6,2,_Remix_Guitar,0.9792243838310242,1
63,100,0.1590909090909091,339,1,92,_Remix_Guitar,6,3,_Remix_Guitar,0.9990094900131226,1
58,100,0.13636363636363635,567,0,92,_Remix_Guitar,6,2,_Remix_Guitar,0.233236625790596,0
58,100,0.2590909090909091,637,0,92,_Remix_Guitar,6,4,_Remix_Guitar,0.2705807685852051,0
58,100,0.13636363636363635,700,0,92,_Remix_Guitar,6,2,_Remix_Guitar,0.3579361140727997,0
58,100,0.12272727272727273,466,1,93,_Remix_Guitar,6,2,_Remix_Guitar,0.9983232617378235,1
63,100,0.21818181818181817,523,0,93,_Remix_Guitar,6,3,_Remix_Guitar,0.5462126731872559,1
58,100,0.1,17,1,94,_Remix_Guitar,6,2,_Remix_Guitar,0.9988439083099365,1
63,100,0.1590909090909091,176,0,94,_Remix_Guitar,6,3,_Remix_Guitar,0.13797974586486816,0
63,100,0.3181818181818182,216,0,94,_Remix_Guitar,6,5,_Remix_Guitar,0.16236889362335205,0
53,100,0.1,289,0,94,_Remix_Guitar,6,2,_Remix_Guitar,0.19106005132198334,0
53,100,0.3409090909090909,660,1,94,_Remix_Guitar,6,5,_Remix_Guitar,0.26197031140327454,0
58,100,0.4772727272727273,83,1,95,_Remix_Guitar,6,8,_Remix_Guitar,0.9990094900131226,1
58,100,0.17727272727272728,206,0,95,_Remix_Guitar,6,3,_Remix_Guitar,0.23323343694210052,0
53,100,0.1,303,0,95,_Remix_Guitar,6,2,_Remix_Guitar,0.27057933807373047,0
63,100,0.4772727272727273,624,1,95,_Remix_Guitar,6,8,_Remix_Guitar,0.3579246997833252,0
67,100,0.2818181818181818,506,1,96,_Remix_Guitar,6,5,_Remix_Guitar,0.9792242646217346,1
53,100,0.2818181818181818,166,1,97,_Remix_Guitar,6,5,_Remix_Guitar,0.9990094900131226,1
58,100,0.23636363636363636,480,1,97,_Remix_Guitar,6,4,_Remix_Guitar,0.23323945701122284,0
63,100,0.2,550,0,97,_Remix_Guitar,6,3,_Remix_Guitar,0.27058279514312744,0
63,100,0.759090909090909,716,0,97,_Remix_Guitar,6,12,_Remix_Guitar,0.3579297959804535,0
58,100,0.13636363636363635,83,1,98,_Remix_Guitar,6,2,_Remix_Guitar,0.9990280866622925,1
63,100,0.1409090909090909,443,1,98,_Remix_Guitar,6,2,_Remix_Guitar,0.37034159898757935,0
63,100,0.2,876,1,98,_Remix_Guitar,6,3,_Remix_Guitar,0.45616886019706726,0
53,100,0.21818181818181817,96,1,99,_Remix_Guitar,6,3,_Remix_Guitar,0.9983735084533691,1
63,100,0.23636363636363636,150,0,99,_Remix_Guitar,6,4,_Remix_Guitar,0.05104922130703926,0
53,100,0.33636363636363636,216,0,99,_Remix_Guitar,6,5,_Remix_Guitar,0.04161171242594719,0
53,100,0.2409090909090909,333,0,99,_Remix_Guitar,6,4,_Remix_Guitar,0.037977203726768494,0
53,100,0.1590909090909091,449,0,99,_Remix_Guitar,6,3,_Remix_Guitar,0.039257925003767014,0
53,100,0.17727272727272728,502,0,99,_Remix_Guitar,6,3,_Remix_Guitar,0.046162500977516174,0
58,100,0.6227272727272727,695,0,99,_Remix_Guitar,6,10,_Remix_Guitar,0.05712966248393059,0
53,100,0.42272727272727273,870,0,99,_Remix_Guitar,6,7,_Remix_Guitar,0.09187471121549606,0
58,100,0.3409090909090909,179,1,100,_Remix_Guitar,6,5,_Remix_Guitar,0.9990280866622925,1
58,100,0.1409090909090909,365,0,100,_Remix_Guitar,6,2,_Remix_Guitar,0.3703335225582123,0
53,100,0.3,470,0,100,_Remix_Guitar,6,5,_Remix_Guitar,0.45616233348846436,0
58,100,0.12272727272727273,540,1,101,_Remix_Guitar,6,2,_Remix_Guitar,0.9990280866622925,1
67,100,0.2772727272727273,612,0,101,_Remix_Guitar,6,4,_Remix_Guitar,0.37033358216285706,0
58,100,0.1590909090909091,703,0,101,_Remix_Guitar,6,3,_Remix_Guitar,0.4561663866043091,0
53,100,0.18181818181818182,532,1,103,_Remix_Guitar,6,3,_Remix_Guitar,0.9983231425285339,1
62,100,1.018181818181818,722,0,103,_Remix_Guitar,6,15,_Remix_Guitar,0.546217143535614,1
63,100,0.1409090909090909,197,1,104,_Remix_Guitar,6,2,_Remix_Guitar,0.9990094900131226,1
58,100,1.3772727272727272,360,0,104,_Remix_Guitar,6,15,_Remix_Guitar,0.23323166370391846,0
58,100,0.11818181818181818,669,1,104,_Remix_Guitar,6,2,_Remix_Guitar,0.27059704065322876,0
58,100,1.459090909090909,703,0,104,_Remix_Guitar,6,15,_Remix_Guitar,0.3579207956790924,0
56,100,0.21818181818181817,567,1,105,_Remix_Guitar,6,3,_Remix_Guitar,0.9983232617378235,1
62,100,0.1409090909090909,695,0,105,_Remix_Guitar,6,2,_Remix_Guitar,0.5462222695350647,1
58,100,0.1590909090909091,826,1,107,_Remix_Guitar,6,3,_Remix_Guitar,0.9792238473892212,1
63,100,0.3,260,1,108,_Remix_Guitar,6,5,_Remix_Guitar,0.9990280866622925,1
58,100,0.5,343,0,108,_Remix_Guitar,6,8,_Remix_Guitar,0.3703472316265106,0
58,100,1.3772727272727272,633,1,108,_Remix_Guitar,6,15,_Remix_Guitar,0.4561713635921478,0
63,100,0.4,713,1,109,_Remix_Guitar,6,6,_Remix_Guitar,0.9983232617378235,1
63,100,0.21818181818181817,832,0,109,_Remix_Guitar,6,3,_Remix_Guitar,0.5462220311164856,1
58,100,0.12272727272727273,47,1,110,_Remix_Guitar,6,2,_Remix_Guitar,0.9986506104469299,1
70,100,0.4636363636363636,92,0,110,_Remix_Guitar,6,7,_Remix_Guitar,0.08798077702522278,0
58,100,0.13636363636363635,260,0,110,_Remix_Guitar,6,2,_Remix_Guitar,0.09298527240753174,0
63,100,0.759090909090909,506,1,110,_Remix_Guitar,6,12,_Remix_Guitar,0.10994641482830048,0
58,100,0.3,695,0,110,_Remix_Guitar,6,5,_Remix_Guitar,0.12867522239685059,0
63,100,0.21818181818181817,792,0,110,_Remix_Guitar,6,3,_Remix_Guitar,0.18221627175807953,0
63,100,0.2,92,1,111,_Remix_Guitar,6,3,_Remix_Guitar,0.9988439083099365,1
58,100,0.1,179,0,111,_Remix_Guitar,6,2,_Remix_Guitar,0.137987419962883,0
63,100,0.13636363636363635,237,0,111,_Remix_Guitar,6,2,_Remix_Guitar,0.16236664354801178,0
63,100,0.2818181818181818,377,0,111,_Remix_Guitar,6,5,_Remix_Guitar,0.19106552004814148,0
63,100,0.42272727272727273,443,0,111,_Remix_Guitar,6,7,_Remix_Guitar,0.2619776725769043,0
63,100,0.7227272727272728,443,1,112,_Remix_Guitar,6,12,_Remix_Guitar,0.9990280866622925,1
62,100,0.1409090909090909,616,0,112,_Remix_Guitar,6,2,_Remix_Guitar,0.3703426122665405,0
58,100,0.2818181818181818,770,0,112,_Remix_Guitar,6,5,_Remix_Guitar,0.456182062625885,0
60,100,0.7818181818181819,839,1,113,_Remix_Guitar,6,13,_Remix_Guitar,0.979223906993866,1
58,100,0.2,157,1,114,_Remix_Guitar,6,3,_Remix_Guitar,0.9984880685806274,1
63,100,0.3409090909090909,206,0,114,_Remix_Guitar,6,5,_Remix_Guitar,0.06335331499576569,0
63,100,0.4,312,0,114,_Remix_Guitar,6,6,_Remix_Guitar,0.058289721608161926,0
70,100,0.1409090909090909,443,0,114,_Remix_Guitar,6,2,_Remix_Guitar,0.06136598065495491,0
58,100,0.4,593,0,114,_Remix_Guitar,6,6,_Remix_Guitar,0.07168547809123993,0
63,100,0.6,686,0,114,_Remix_Guitar,6,10,_Remix_Guitar,0.08473814278841019,0
58,100,0.4590909090909091,826,0,114,_Remix_Guitar,6,7,_Remix_Guitar,0.12635889649391174,0
63,100,0.6,294,1,115,_Remix_Guitar,6,10,_Remix_Guitar,0.9986506104469299,1
63,100,0.3,449,0,115,_Remix_Guitar,6,5,_Remix_Guitar,0.08798263967037201,0
55,100,0.4818181818181818,540,0,115,_Remix_Guitar,6,8,_Remix_Guitar,0.09298760443925858,0
58,100,0.11818181818181818,656,0,115,_Remix_Guitar,6,2,_Remix_Guitar,0.109953872859478,0
58,100,0.4,686,0,115,_Remix_Guitar,6,6,_Remix_Guitar,0.12867452204227448,0
63,100,0.4409090909090909,792,0,115,_Remix_Guitar,6,7,_Remix_Guitar,0.1822219341993332,0
58,100,0.43636363636363634,17,1,116,_Remix_Guitar,6,7,_Remix_Guitar,0.9983736276626587,1
60,100,0.6227272727272727,123,0,116,_Remix_Guitar,6,10,_Remix_Guitar,0.05104948952794075,0
58,100,0.4590909090909091,263,0,116,_Remix_Guitar,6,7,_Remix_Guitar,0.04161207005381584,0
63,100,0.5590909090909091,370,0,116,_Remix_Guitar,6,9,_Remix_Guitar,0.037980034947395325,0
63,100,0.23636363636363636,546,0,116,_Remix_Guitar,6,4,_Remix_Guitar,0.0392601452767849,0
58,100,0.5409090909090909,606,0,116,_Remix_Guitar,6,9,_Remix_Guitar,0.04616682603955269,0
58,100,0.4,760,0,116,_Remix_Guitar,6,6,_Remix_Guitar,0.05713222175836563,0
65,100,0.4409090909090909,866,0,116,_Remix_Guitar,6,7,_Remix_Guitar,0.09187901020050049,0
62,100,0.5181818181818182,87,1,117,_Remix_Guitar,6,8,_Remix_Guitar,0.9988439083099365,1
55,100,0.4,242,0,117,_Remix_Guitar,6,6,_Remix_Guitar,0.13798481225967407,0
63,100,1.059090909090909,453,0,117,_Remix_Guitar,6,15,_Remix_Guitar,0.16236397624015808,0
55,100,0.4818181818181818,703,1,117,_Remix_Guitar,6,8,_Remix_Guitar,0.1910606473684311,0
58,100,0.4772727272727273,823,0,117,_Remix_Guitar,6,8,_Remix_Guitar,0.26196837425231934,0
63,100,0.4409090909090909,69,1,118,_Remix_Guitar,6,7,_Remix_Guitar,0.9983004927635193,1
58,100,0.5181818181818182,176,0,118,_Remix_Guitar,6,8,_Remix_Guitar,0.04466351121664047,0
53,100,0.1590909090909091,303,0,118,_Remix_Guitar,6,3,_Remix_Guitar,0.03337203338742256,0
53,100,0.3,343,0,118,_Remix_Guitar,6,5,_Remix_Guitar,0.02694830670952797,0
58,100,0.41818181818181815,417,0,118,_Remix_Guitar,6,7,_Remix_Guitar,0.02408442273736,0
62,100,0.5818181818181818,527,0,118,_Remix_Guitar,6,9,_Remix_Guitar,0.024972964078187943,0
58,100,0.1409090909090909,663,0,118,_Remix_Guitar,6,2,_Remix_Guitar,0.030649226158857346,0
62,100,0.2636363636363636,707,0,118,_Remix_Guitar,6,4,_Remix_Guitar,0.0413702130317688,0
63,100,0.1,857,0,118,_Remix_Guitar,6,2,_Remix_Guitar,0.0720701515674591,0
58,100,0.11818181818181818,17,1,119,_Remix_Guitar,6,2,_Remix_Guitar,0.9983736276626587,1
63,100,0.7,119,0,119,_Remix_Guitar,6,11,_Remix_Guitar,0.05104983225464821,0
63,100,0.11818181818181818,326,0,119,_Remix_Guitar,6,2,_Remix_Guitar,0.04161272197961807,0
55,100,0.4409090909090909,396,0,119,_Remix_Guitar,6,7,_Remix_Guitar,0.037980567663908005,0
58,100,0.4590909090909091,502,0,119,_Remix_Guitar,6,7,_Remix_Guitar,0.03926089406013489,0
63,100,0.5772727272727273,612,0,119,_Remix_Guitar,6,9,_Remix_Guitar,0.04616493359208107,0
58,100,0.41818181818181815,743,0,119,_Remix_Guitar,6,7,_Remix_Guitar,0.05713414028286934,0
55,100,0.4409090909090909,866,0,119,_Remix_Guitar,6,7,_Remix_Guitar,0.09188052266836166,0
63,100,0.5,216,1,120,_Remix_Guitar,6,8,_Remix_Guitar,0.9986506104469299,1
58,100,0.5,330,0,120,_Remix_Guitar,6,8,_Remix_Guitar,0.08798389881849289,0
56,100,0.2409090909090909,466,0,120,_Remix_Guitar,6,4,_Remix_Guitar,0.09299053996801376,0
56,100,0.7,523,0,120,_Remix_Guitar,6,11,_Remix_Guitar,0.10995345562696457,0
63,100,0.5409090909090909,695,0,120,_Remix_Guitar,6,9,_Remix_Guitar,0.12868405878543854,0
58,100,0.4,826,0,120,_Remix_Guitar,6,6,_Remix_Guitar,0.18223296105861664,0
56,100,0.5181818181818182,53,1,121,_Remix_Guitar,6,8,_Remix_Guitar,0.9983735084533691,1
58,100,0.2,176,0,121,_Remix_Guitar,6,3,_Remix_Guitar,0.05105096474289894,0
58,100,0.3,223,0,121,_Remix_Guitar,6,5,_Remix_Guitar,0.04161262512207031,0
58,100,0.3,436,0,121,_Remix_Guitar,6,5,_Remix_Guitar,0.03798095881938934,0
56,100,0.3409090909090909,585,0,121,_Remix_Guitar,6,5,_Remix_Guitar,0.039261117577552795,0
56,100,0.1590909090909091,734,0,121,_Remix_Guitar,6,3,_Remix_Guitar,0.046167246997356415,0
56,100,0.2,810,0,121,_Remix_Guitar,6,3,_Remix_Guitar,0.05713454261422157,0
56,100,0.1409090909090909,857,0,121,_Remix_Guitar,6,2,_Remix_Guitar,0.0918813943862915,0
58,100,0.3,43,1,122,_Remix_Guitar,6,5,_Remix_Guitar,0.9983004927635193,1
56,100,0.1,136,0,122,_Remix_Guitar,6,2,_Remix_Guitar,0.04466129466891289,0
55,100,0.2,193,0,122,_Remix_Guitar,6,3,_Remix_Guitar,0.033371586352586746,0
58,100,0.1409090909090909,255,0,122,_Remix_Guitar,6,2,_Remix_Guitar,0.026948129758238792,0
58,100,0.3409090909090909,289,0,122,_Remix_Guitar,6,5,_Remix_Guitar,0.02408302202820778,0
63,100,0.5227272727272727,377,0,122,_Remix_Guitar,6,8,_Remix_Guitar,0.02497219853103161,0
58,100,0.43636363636363634,502,0,122,_Remix_Guitar,6,7,_Remix_Guitar,0.030647840350866318,0
58,100,1.018181818181818,624,0,122,_Remix_Guitar,6,15,_Remix_Guitar,0.04136957228183746,0
63,100,0.5590909090909091,849,0,122,_Remix_Guitar,6,9,_Remix_Guitar,0.07207071036100388,0
62,100,0.6227272727272727,92,1,123,_Remix_Guitar,6,10,_Remix_Guitar,0.9988439083099365,1
62,100,0.4,255,0,123,_Remix_Guitar,6,6,_Remix_Guitar,0.13798245787620544,0
62,100,0.11818181818181818,370,0,123,_Remix_Guitar,6,2,_Remix_Guitar,0.16236649453639984,0
58,100,0.1,593,0,123,_Remix_Guitar,6,2,_Remix_Guitar,0.19106118381023407,0
58,100,0.2772727272727273,823,0,123,_Remix_Guitar,6,4,_Remix_Guitar,0.2619766891002655,0
58,100,0.18181818181818182,66,1,125,_Remix_Guitar,6,3,_Remix_Guitar,0.9986506104469299,1
58,100,0.3181818181818182,172,0,125,_Remix_Guitar,6,5,_Remix_Guitar,0.08797909319400787,0
58,100,0.1,333,0,125,_Remix_Guitar,6,2,_Remix_Guitar,0.09298177063465118,0
70,100,0.3,360,0,125,_Remix_Guitar,6,5,_Remix_Guitar,0.10994650423526764,0
63,100,0.2772727272727273,502,0,125,_Remix_Guitar,6,4,_Remix_Guitar,0.12866699695587158,0
58,100,0.1409090909090909,817,1,125,_Remix_Guitar,6,2,_Remix_Guitar,0.18221697211265564,0
70,100,0.33636363636363636,17,1,126,_Remix_Guitar,6,5,_Remix_Guitar,0.9984880685806274,1
70,100,0.2,132,0,126,_Remix_Guitar,6,3,_Remix_Guitar,0.06335358321666718,0
70,100,0.1,210,0,126,_Remix_Guitar,6,2,_Remix_Guitar,0.05828988179564476,0
70,100,0.2,282,0,126,_Remix_Guitar,6,3,_Remix_Guitar,0.06136113405227661,0
70,100,0.5,356,0,126,_Remix_Guitar,6,8,_Remix_Guitar,0.07168227434158325,0
62,100,0.17727272727272728,779,1,126,_Remix_Guitar,6,3,_Remix_Guitar,0.08473477512598038,0
62,100,0.2,876,0,126,_Remix_Guitar,6,3,_Remix_Guitar,0.12635375559329987,0
63,100,0.41818181818181815,316,1,127,_Remix_Guitar,6,7,_Remix_Guitar,0.9983231425285339,1
70,100,0.2590909090909091,519,0,127,_Remix_Guitar,6,4,_Remix_Guitar,0.5462235808372498,1
70,100,0.5590909090909091,128,1,128,_Remix_Guitar,6,9,_Remix_Guitar,0.9986506104469299,1
58,100,0.2409090909090909,264,0,128,_Remix_Guitar,6,4,_Remix_Guitar,0.0879799947142601,0
70,100,0.5409090909090909,427,0,128,_Remix_Guitar,6,9,_Remix_Guitar,0.09298519790172577,0
70,100,0.11818181818181818,603,0,128,_Remix_Guitar,6,2,_Remix_Guitar,0.1099480390548706,0
58,100,0.33636363636363636,633,0,128,_Remix_Guitar,6,5,_Remix_Guitar,0.12867116928100586,0
62,100,0.7227272727272728,773,0,128,_Remix_Guitar,6,12,_Remix_Guitar,0.18221351504325867,0
65,100,0.1,185,1,129,_Remix_Guitar,6,2,_Remix_Guitar,0.9984879493713379,1
70,100,0.2818181818181818,211,0,129,_Remix_Guitar,6,5,_Remix_Guitar,0.06335273385047913,0
65,100,0.1590909090909091,276,0,129,_Remix_Guitar,6,3,_Remix_Guitar,0.058288805186748505,0
70,100,0.1409090909090909,311,0,129,_Remix_Guitar,6,2,_Remix_Guitar,0.061363209038972855,0
70,100,1.1,356,0,129,_Remix_Guitar,6,15,_Remix_Guitar,0.07168075442314148,0
58,100,0.1590909090909091,611,1,129,_Remix_Guitar,6,3,_Remix_Guitar,0.08473540842533112,0
58,100,0.1,778,0,129,_Remix_Guitar,6,2,_Remix_Guitar,0.12634900212287903,0
70,100,0.1,12,1,130,_Remix_Guitar,6,2,_Remix_Guitar,0.9984880685806274,1
58,100,0.2,242,0,130,_Remix_Guitar,6,3,_Remix_Guitar,0.06335219740867615,0
58,100,0.1,452,0,130,_Remix_Guitar,6,2,_Remix_Guitar,0.058287136256694794,0
60,100,0.17727272727272728,501,0,130,_Remix_Guitar,6,3,_Remix_Guitar,0.061358895152807236,0
58,100,0.3,606,0,130,_Remix_Guitar,6,5,_Remix_Guitar,0.07167965918779373,0
70,100,0.1,690,0,130,_Remix_Guitar,6,2,_Remix_Guitar,0.08473000675439835,0
58,100,0.2636363636363636,818,0,130,_Remix_Guitar,6,4,_Remix_Guitar,0.12634922564029694,0
63,100,0.1,158,1,131,_Remix_Guitar,6,2,_Remix_Guitar,0.9983004927635193,1
63,100,0.1409090909090909,211,0,131,_Remix_Guitar,6,2,_Remix_Guitar,0.044661764055490494,0
58,100,0.17727272727272728,250,0,131,_Remix_Guitar,6,3,_Remix_Guitar,0.03337336704134941,0
58,100,0.35909090909090907,364,0,131,_Remix_Guitar,6,6,_Remix_Guitar,0.026948440819978714,0
70,100,0.12272727272727273,466,0,131,_Remix_Guitar,6,2,_Remix_Guitar,0.024084746837615967,0
70,100,0.7818181818181819,496,0,131,_Remix_Guitar,6,13,_Remix_Guitar,0.024972347542643547,0
70,100,0.2,747,1,131,_Remix_Guitar,6,3,_Remix_Guitar,0.030648216605186462,0
70,100,0.18181818181818182,814,0,131,_Remix_Guitar,6,3,_Remix_Guitar,0.041368983685970306,0
65,100,0.1409090909090909,861,0,131,_Remix_Guitar,6,2,_Remix_Guitar,0.07207013666629791,0
70,100,0.3409090909090909,140,1,132,_Remix_Guitar,6,5,_Remix_Guitar,0.9990280866622925,1
70,100,0.18181818181818182,220,0,132,_Remix_Guitar,6,3,_Remix_Guitar,0.37033939361572266,0
70,100,0.11818181818181818,264,0,132,_Remix_Guitar,6,2,_Remix_Guitar,0.45616012811660767,0
58,100,0.3,83,1,133,_Remix_Guitar,6,5,_Remix_Guitar,0.9990094900131226,1
58,100,0.1,189,0,133,_Remix_Guitar,6,2,_Remix_Guitar,0.23322555422782898,0
58,100,0.18181818181818182,400,0,133,_Remix_Guitar,6,3,_Remix_Guitar,0.2705777883529663,0
70,100,0.12272727272727273,553,0,133,_Remix_Guitar,6,2,_Remix_Guitar,0.35792645812034607,0
60,100,0.11818181818181818,140,1,134,_Remix_Guitar,6,2,_Remix_Guitar,0.9983232617378235,1
63,100,1.2,611,1,134,_Remix_Guitar,6,15,_Remix_Guitar,0.5462040901184082,1
63,100,0.4818181818181818,0,1,135,_Remix_Guitar,6,8,_Remix_Guitar,0.9990094900131226,1
70,100,0.1,268,1,135,_Remix_Guitar,6,2,_Remix_Guitar,0.23322944343090057,0
70,100,0.18181818181818182,598,1,135,_Remix_Guitar,6,3,_Remix_Guitar,0.27058184146881104,0
58,100,0.17727272727272728,656,0,135,_Remix_Guitar,6,3,_Remix_Guitar,0.35792768001556396,0
58,100,0.11818181818181818,18,1,136,_Remix_Guitar,6,2,_Remix_Guitar,0.9983735084533691,1
58,100,0.2,122,0,136,_Remix_Guitar,6,3,_Remix_Guitar,0.051048632711172104,0
70,100,0.3181818181818182,238,0,136,_Remix_Guitar,6,5,_Remix_Guitar,0.04161081835627556,0
63,100,0.18181818181818182,421,0,136,_Remix_Guitar,6,3,_Remix_Guitar,0.03797784075140953,0
58,100,0.11818181818181818,493,0,136,_Remix_Guitar,6,2,_Remix_Guitar,0.03925935551524162,0
58,100,0.4409090909090909,541,0,136,_Remix_Guitar,6,7,_Remix_Guitar,0.04616419970989227,0
63,100,0.1409090909090909,682,0,136,_Remix_Guitar,6,2,_Remix_Guitar,0.05713044852018356,0
63,100,0.1590909090909091,721,0,136,_Remix_Guitar,6,3,_Remix_Guitar,0.09187956899404526,0
58,100,0.1409090909090909,166,1,137,_Remix_Guitar,6,2,_Remix_Guitar,0.9990094900131226,1
58,100,0.1,378,0,137,_Remix_Guitar,6,2,_Remix_Guitar,0.23322917520999908,0
58,100,0.7818181818181819,553,0,137,_Remix_Guitar,6,13,_Remix_Guitar,0.2705809473991394,0
63,100,0.21818181818181817,747,0,137,_Remix_Guitar,6,3,_Remix_Guitar,0.35792243480682373,0
58,100,0.18181818181818182,3,1,138,_Remix_Guitar,6,3,_Remix_Guitar,0.9990280866622925,1
58,100,0.6409090909090909,185,0,138,_Remix_Guitar,6,10,_Remix_Guitar,0.37033796310424805,0
63,100,0.1409090909090909,409,0,138,_Remix_Guitar,6,2,_Remix_Guitar,0.4561639130115509,0
58,100,0.1409090909090909,307,1,139,_Remix_Guitar,6,2,_Remix_Guitar,0.9990280866622925,1
70,100,0.1,369,0,139,_Remix_Guitar,6,2,_Remix_Guitar,0.3703431189060211,0
70,100,0.1,831,1,139,_Remix_Guitar,6,2,_Remix_Guitar,0.4561663866043091,0
58,100,0.2,739,1,140,_Remix_Guitar,6,3,_Remix_Guitar,0.9983232617378235,1
58,100,0.41818181818181815,800,0,140,_Remix_Guitar,6,7,_Remix_Guitar,0.5462157130241394,1
58,100,0.2409090909090909,158,1,141,_Remix_Guitar,6,4,_Remix_Guitar,0.9792246222496033,1
58,100,0.1,30,1,142,_Remix_Guitar,6,2,_Remix_Guitar,0.9986507296562195,1
58,100,0.2590909090909091,110,0,142,_Remix_Guitar,6,4,_Remix_Guitar,0.08797911554574966,0
58,100,0.2409090909090909,223,0,142,_Remix_Guitar,6,4,_Remix_Guitar,0.09298502653837204,0
63,100,0.1,496,1,142,_Remix_Guitar,6,2,_Remix_Guitar,0.10994627326726913,0
63,100,0.12272727272727273,576,0,142,_Remix_Guitar,6,2,_Remix_Guitar,0.12867286801338196,0
63,100,0.1,792,0,142,_Remix_Guitar,6,2,_Remix_Guitar,0.18221521377563477,0
58,100,0.17727272727272728,18,1,143,_Remix_Guitar,6,3,_Remix_Guitar,0.9990094900131226,1
58,100,0.17727272727272728,140,0,143,_Remix_Guitar,6,3,_Remix_Guitar,0.23322902619838715,0
58,100,0.2,326,0,143,_Remix_Guitar,6,3,_Remix_Guitar,0.2705761790275574,0
58,100,0.17727272727272728,436,0,143,_Remix_Guitar,6,3,_Remix_Guitar,0.3579232394695282,0
63,100,0.2,338,1,144,_Remix_Guitar,6,3,_Remix_Guitar,0.9986506104469299,1
70,100,0.1590909090909091,409,0,144,_Remix_Guitar,6,3,_Remix_Guitar,0.08798068761825562,0
58,100,0.2,505,0,144,_Remix_Guitar,6,3,_Remix_Guitar,0.09298370033502579,0
58,100,0.1409090909090909,594,0,144,_Remix_Guitar,6,2,_Remix_Guitar,0.10995008051395416,0
58,100,0.3409090909090909,735,0,144,_Remix_Guitar,6,5,_Remix_Guitar,0.12866823375225067,0
58,100,0.2818181818181818,826,0,144,_Remix_Guitar,6,5,_Remix_Guitar,0.18221591413021088,0
70,100,0.12272727272727273,553,1,145,_Remix_Guitar,6,2,_Remix_Guitar,0.9983232617378235,1
58,100,0.11818181818181818,704,0,145,_Remix_Guitar,6,2,_Remix_Guitar,0.5462169647216797,1
70,100,0.1,405,1,146,_Remix_Guitar,6,2,_Remix_Guitar,0.9990280866622925,1
58,100,0.2409090909090909,431,0,146,_Remix_Guitar,6,4,_Remix_Guitar,0.3703392744064331,0
58,100,0.2772727272727273,537,0,146,_Remix_Guitar,6,4,_Remix_Guitar,0.4561654031276703,0
64,100,0.3409090909090909,79,1,0,_Remastered_Guitar,6,5,_Remastered_Guitar,0.9983004927635193,1
66,100,0.2636363636363636,158,0,0,_Remastered_Guitar,6,4,_Remastered_Guitar,0.044662658125162125,0
69,100,0.23636363636363636,238,0,0,_Remastered_Guitar,6,4,_Remastered_Guitar,0.033370908349752426,0
73,100,0.22272727272727272,299,0,0,_Remastered_Guitar,6,4,_Remastered_Guitar,0.0269477479159832,0
71,100,0.22272727272727272,356,0,0,_Remastered_Guitar,6,4,_Remastered_Guitar,0.024083489552140236,0
73,100,0.6363636363636364,414,0,0,_Remastered_Guitar,6,10,_Remastered_Guitar,0.02497275546193123,0
71,100,0.8227272727272728,563,0,0,_Remastered_Guitar,6,13,_Remastered_Guitar,0.030647477135062218,0
71,100,0.1,757,0,0,_Remastered_Guitar,6,2,_Remastered_Guitar,0.04137132689356804,0
73,100,1.018181818181818,792,0,0,_Remastered_Guitar,6,15,_Remastered_Guitar,0.07206962257623672,0
71,100,1.0818181818181818,157,1,1,_Remastered_Guitar,6,15,_Remastered_Guitar,0.9983004927635193,1
69,100,0.2590909090909091,414,1,1,_Remastered_Guitar,6,4,_Remastered_Guitar,0.04466204717755318,0
71,100,0.41818181818181815,470,0,1,_Remastered_Guitar,6,7,_Remastered_Guitar,0.03337176889181137,0
72,100,0.1,563,0,1,_Remastered_Guitar,6,2,_Remastered_Guitar,0.02694791741669178,0
73,100,0.35909090909090907,585,0,1,_Remastered_Guitar,6,6,_Remastered_Guitar,0.024083390831947327,0
71,100,0.17727272727272728,669,0,1,_Remastered_Guitar,6,3,_Remastered_Guitar,0.024972939863801003,0
73,100,0.1,707,0,1,_Remastered_Guitar,6,2,_Remastered_Guitar,0.030647076666355133,0
71,100,0.2590909090909091,744,0,1,_Remastered_Guitar,6,4,_Remastered_Guitar,0.04137049615383148,0
69,100,0.5227272727272727,817,0,1,_Remastered_Guitar,6,8,_Remastered_Guitar,0.07206989824771881,0
66,100,2.359090909090909,61,1,2,_Remastered_Guitar,6,15,_Remastered_Guitar,0.9988439083099365,1
64,100,0.2772727272727273,590,1,2,_Remastered_Guitar,6,4,_Remastered_Guitar,0.13798169791698456,0
66,100,0.2590909090909091,660,0,2,_Remastered_Guitar,6,4,_Remastered_Guitar,0.16236147284507751,0
71,100,0.18181818181818182,726,0,2,_Remastered_Guitar,6,3,_Remastered_Guitar,0.19105039536952972,0
73,100,0.6227272727272727,782,0,2,_Remastered_Guitar,6,10,_Remastered_Guitar,0.2619570195674896,0
71,100,1.040909090909091,43,1,3,_Remastered_Guitar,6,15,_Remastered_Guitar,0.9988440275192261,1
73,100,0.9636363636363636,290,1,3,_Remastered_Guitar,6,15,_Remastered_Guitar,0.13799242675304413,0
71,100,0.5181818181818182,528,1,3,_Remastered_Guitar,6,8,_Remastered_Guitar,0.16238825023174286,0
69,100,0.5409090909090909,651,0,3,_Remastered_Guitar,6,9,_Remastered_Guitar,0.19109505414962769,0
69,100,4.463636363636364,796,0,3,_Remastered_Guitar,6,15,_Remastered_Guitar,0.2619204819202423,0
69,100,1.4181818181818182,30,1,5,_Remastered_Guitar,6,15,_Remastered_Guitar,0.9983231425285339,1
69,100,0.1,399,1,5,_Remastered_Guitar,6,2,_Remastered_Guitar,0.5462213754653931,1
66,100,0.16363636363636364,839,1,50,_Remastered_Guitar,6,3,_Remastered_Guitar,0.9792242646217346,1
64,100,0.36363636363636365,4,1,51,_Remastered_Guitar,6,6,_Remastered_Guitar,0.998228132724762,1
66,100,0.23636363636363636,83,0,51,_Remastered_Guitar,6,4,_Remastered_Guitar,0.039402831345796585,0
69,100,0.32272727272727275,136,0,51,_Remastered_Guitar,6,5,_Remastered_Guitar,0.02685404382646084,0
73,100,0.2772727272727273,206,0,51,_Remastered_Guitar,6,4,_Remastered_Guitar,0.018831146880984306,0
71,100,0.2,268,0,51,_Remastered_Guitar,6,3,_Remastered_Guitar,0.013654536567628384,0
73,100,0.35909090909090907,330,0,51,_Remastered_Guitar,6,6,_Remastered_Guitar,0.010812765918672085,0
69,100,0.2590909090909091,408,0,51,_Remastered_Guitar,6,4,_Remastered_Guitar,0.010073654353618622,0
71,100,0.2818181818181818,466,0,51,_Remastered_Guitar,6,5,_Remastered_Guitar,0.01171643566340208,0
73,100,0.3181818181818182,528,0,51,_Remastered_Guitar,6,5,_Remastered_Guitar,0.01699191890656948,0
71,100,0.18181818181818182,664,0,51,_Remastered_Guitar,6,3,_Remastered_Guitar,0.027579987421631813,0
73,100,0.9363636363636364,721,0,51,_Remastered_Guitar,6,15,_Remastered_Guitar,0.05459224060177803,0
72,100,0.12272727272727273,48,1,52,_Remastered_Guitar,6,2,_Remastered_Guitar,0.999028205871582,1
71,100,0.5409090909090909,75,0,52,_Remastered_Guitar,6,9,_Remastered_Guitar,0.37045061588287354,0
69,100,5.636363636363637,193,0,52,_Remastered_Guitar,6,15,_Remastered_Guitar,0.45604825019836426,0
57,100,0.3409090909090909,751,1,60,_Remastered_Guitar,6,5,_Remastered_Guitar,0.9983232617378235,1
54,100,0.2,836,0,60,_Remastered_Guitar,6,3,_Remastered_Guitar,0.5462208986282349,1
71,100,0.22272727272727272,4,1,61,_Remastered_Guitar,6,4,_Remastered_Guitar,0.9983735084533691,1
73,100,0.6181818181818182,61,0,61,_Remastered_Guitar,6,10,_Remastered_Guitar,0.05104873701930046,0
71,100,0.3409090909090909,201,0,61,_Remastered_Guitar,6,5,_Remastered_Guitar,0.04161304607987404,0
73,100,0.41818181818181815,281,0,61,_Remastered_Guitar,6,7,_Remastered_Guitar,0.037978485226631165,0
71,100,0.21818181818181817,391,0,61,_Remastered_Guitar,6,3,_Remastered_Guitar,0.03926064074039459,0
73,100,0.9590909090909091,453,0,61,_Remastered_Guitar,6,15,_Remastered_Guitar,0.046165164560079575,0
71,100,0.5,691,1,61,_Remastered_Guitar,6,8,_Remastered_Guitar,0.05713570863008499,0
69,100,1.5,804,0,61,_Remastered_Guitar,6,15,_Remastered_Guitar,0.09187821298837662,0
69,100,2.640909090909091,295,1,62,_Remastered_Guitar,6,15,_Remastered_Guitar,0.979221522808075,1
69,100,0.3409090909090909,114,1,63,_Remastered_Guitar,6,5,_Remastered_Guitar,0.9792241454124451,1
64,100,0.3409090909090909,56,1,97,_Remastered_Guitar,6,5,_Remastered_Guitar,0.9982556700706482,1
66,100,0.2590909090909091,132,0,97,_Remastered_Guitar,6,4,_Remastered_Guitar,0.04129238799214363,0
69,100,0.2590909090909091,197,0,97,_Remastered_Guitar,6,4,_Remastered_Guitar,0.02912408858537674,0
73,100,0.2818181818181818,263,0,97,_Remastered_Guitar,6,5,_Remastered_Guitar,0.02156835049390793,0
71,100,0.21818181818181817,330,0,97,_Remastered_Guitar,6,3,_Remastered_Guitar,0.01705850474536419,0
73,100,0.6181818181818182,396,0,97,_Remastered_Guitar,6,10,_Remastered_Guitar,0.01526720728725195,0
71,100,0.4409090909090909,536,0,97,_Remastered_Guitar,6,7,_Remastered_Guitar,0.016455676406621933,0
71,100,0.3181818181818182,646,0,97,_Remastered_Guitar,6,5,_Remastered_Guitar,0.021836254745721817,0
71,100,0.1409090909090909,726,0,97,_Remastered_Guitar,6,2,_Remastered_Guitar,0.032518599182367325,0
73,100,1.0,770,0,97,_Remastered_Guitar,6,15,_Remastered_Guitar,0.060910459607839584,0
71,100,0.6409090909090909,136,1,98,_Remastered_Guitar,6,10,_Remastered_Guitar,0.9982556700706482,1
73,100,0.2590909090909091,282,0,98,_Remastered_Guitar,6,4,_Remastered_Guitar,0.04129250347614288,0
71,100,0.1,343,0,98,_Remastered_Guitar,6,2,_Remastered_Guitar,0.029125848785042763,0
69,100,0.2636363636363636,377,0,98,_Remastered_Guitar,6,4,_Remastered_Guitar,0.021569324657320976,0
71,100,0.5,436,0,98,_Remastered_Guitar,6,8,_Remastered_Guitar,0.01705910451710224,0
73,100,0.35909090909090907,559,0,98,_Remastered_Guitar,6,6,_Remastered_Guitar,0.015267851762473583,0
71,100,0.1409090909090909,646,0,98,_Remastered_Guitar,6,2,_Remastered_Guitar,0.01645592413842678,0
73,100,0.1409090909090909,682,0,98,_Remastered_Guitar,6,2,_Remastered_Guitar,0.021837394684553146,0
71,100,0.2409090909090909,716,0,98,_Remastered_Guitar,6,4,_Remastered_Guitar,0.0325184091925621,0
69,100,0.6,779,0,98,_Remastered_Guitar,6,10,_Remastered_Guitar,0.06091263145208359,0
66,100,1.559090909090909,35,1,99,_Remastered_Guitar,6,15,_Remastered_Guitar,0.9986506104469299,1
66,100,0.7181818181818181,396,1,99,_Remastered_Guitar,6,11,_Remastered_Guitar,0.08797995746135712,0
64,100,0.3,563,0,99,_Remastered_Guitar,6,5,_Remastered_Guitar,0.09298337996006012,0
66,100,0.2,650,0,99,_Remastered_Guitar,6,3,_Remastered_Guitar,0.1099504753947258,0
71,100,0.17727272727272728,700,0,99,_Remastered_Guitar,6,3,_Remastered_Guitar,0.12867486476898193,0
73,100,0.6409090909090909,752,0,99,_Remastered_Guitar,6,10,_Remastered_Guitar,0.1822102665901184,0
71,100,0.5818181818181818,22,1,100,_Remastered_Guitar,6,9,_Remastered_Guitar,0.9986506104469299,1
71,100,0.1590909090909091,220,0,100,_Remastered_Guitar,6,3,_Remastered_Guitar,0.08798711001873016,0
73,100,1.0818181818181818,267,0,100,_Remastered_Guitar,6,15,_Remastered_Guitar,0.09299762547016144,0
71,100,0.4590909090909091,514,1,100,_Remastered_Guitar,6,7,_Remastered_Guitar,0.10998392850160599,0
69,100,0.5636363636363636,619,0,100,_Remastered_Guitar,6,9,_Remastered_Guitar,0.12872396409511566,0
69,100,4.840909090909091,752,0,100,_Remastered_Guitar,6,15,_Remastered_Guitar,0.182168647646904,0
56,100,0.18181818181818182,651,1,0,DL_Guitar,6,3,DL_Guitar,0.9792238473892212,1
61,100,0.9,655,1,1,DL_Guitar,6,14,DL_Guitar,0.9792223572731018,1
63,100,0.41818181818181815,140,1,5,DL_Guitar,6,7,DL_Guitar,0.9990094900131226,1
56,100,0.1409090909090909,541,1,5,DL_Guitar,6,2,DL_Guitar,0.23323732614517212,0
56,100,0.38181818181818183,575,0,5,DL_Guitar,6,6,DL_Guitar,0.2705918550491333,0
56,100,0.3181818181818182,721,0,5,DL_Guitar,6,5,DL_Guitar,0.35793545842170715,0
63,100,0.3409090909090909,153,1,6,DL_Guitar,6,5,DL_Guitar,0.9988439083099365,1
63,100,0.1409090909090909,311,0,6,DL_Guitar,6,2,DL_Guitar,0.13798215985298157,0
60,100,0.1590909090909091,386,0,6,DL_Guitar,6,3,DL_Guitar,0.1623685657978058,0
53,100,0.42272727272727273,695,1,6,DL_Guitar,6,7,DL_Guitar,0.19106024503707886,0
53,100,0.23636363636363636,810,0,6,DL_Guitar,6,4,DL_Guitar,0.261972039937973,0
63,100,0.2772727272727273,325,1,7,DL_Guitar,6,4,DL_Guitar,0.9983232617378235,1
63,100,0.6,818,1,7,DL_Guitar,6,10,DL_Guitar,0.5462234020233154,1
63,100,0.32272727272727275,321,1,8,DL_Guitar,6,5,DL_Guitar,0.9990280866622925,1
63,100,0.17727272727272728,426,0,8,DL_Guitar,6,3,DL_Guitar,0.3703421354293823,0
53,100,0.12272727272727273,795,1,8,DL_Guitar,6,2,DL_Guitar,0.4561687111854553,0
63,100,0.2636363636363636,862,1,9,DL_Guitar,6,4,DL_Guitar,0.9792236089706421,1
56,100,0.1590909090909091,364,1,10,DL_Guitar,6,3,DL_Guitar,0.9990094900131226,1
56,100,0.13636363636363635,457,0,10,DL_Guitar,6,2,DL_Guitar,0.23324717581272125,0
56,100,0.740909090909091,527,0,10,DL_Guitar,6,12,DL_Guitar,0.2705812156200409,0
56,100,0.5590909090909091,716,0,10,DL_Guitar,6,9,DL_Guitar,0.3579232096672058,0
63,100,0.11818181818181818,110,1,11,DL_Guitar,6,2,DL_Guitar,0.9988439083099365,1
56,100,0.2409090909090909,250,0,11,DL_Guitar,6,4,DL_Guitar,0.137980118393898,0
63,100,0.22272727272727272,443,0,11,DL_Guitar,6,4,DL_Guitar,0.16236600279808044,0
63,100,0.1,691,1,11,DL_Guitar,6,2,DL_Guitar,0.1910586804151535,0
63,100,0.3,876,0,11,DL_Guitar,6,5,DL_Guitar,0.2619679272174835,0
56,100,0.22272727272727272,70,1,12,DL_Guitar,6,4,DL_Guitar,0.9988439083099365,1
63,100,0.1,144,0,12,DL_Guitar,6,2,DL_Guitar,0.13798245787620544,0
63,100,0.2,273,0,12,DL_Guitar,6,3,DL_Guitar,0.16236653923988342,0
56,100,0.2818181818181818,378,0,12,DL_Guitar,6,5,DL_Guitar,0.19105207920074463,0
63,100,0.3,598,0,12,DL_Guitar,6,5,DL_Guitar,0.2619679272174835,0
63,100,0.23636363636363636,149,1,13,DL_Guitar,6,4,DL_Guitar,0.9990094900131226,1
63,100,0.1409090909090909,333,0,13,DL_Guitar,6,2,DL_Guitar,0.23323550820350647,0
56,100,0.17727272727272728,436,0,13,DL_Guitar,6,3,DL_Guitar,0.27059462666511536,0
63,100,0.8,660,0,13,DL_Guitar,6,13,DL_Guitar,0.3579312264919281,0
63,100,1.6590909090909092,56,1,14,DL_Guitar,6,15,DL_Guitar,0.9990094900131226,1
63,100,0.3409090909090909,488,1,14,DL_Guitar,6,5,DL_Guitar,0.23324178159236908,0
56,100,0.22272727272727272,685,0,14,DL_Guitar,6,4,DL_Guitar,0.2705899775028229,0
63,100,0.42272727272727273,849,0,14,DL_Guitar,6,7,DL_Guitar,0.35793226957321167,0
63,100,0.2409090909090909,140,1,15,DL_Guitar,6,4,DL_Guitar,0.9990280866622925,1
63,100,0.22272727272727272,355,0,15,DL_Guitar,6,4,DL_Guitar,0.37034809589385986,0
63,100,0.1,835,1,15,DL_Guitar,6,2,DL_Guitar,0.45617780089378357,0
56,100,0.1590909090909091,13,1,16,DL_Guitar,6,3,DL_Guitar,0.9982556700706482,1
63,100,0.6227272727272727,69,0,16,DL_Guitar,6,10,DL_Guitar,0.04129166156053543,0
63,100,0.18181818181818182,210,0,16,DL_Guitar,6,3,DL_Guitar,0.029125593602657318,0
63,100,0.1409090909090909,308,0,16,DL_Guitar,6,2,DL_Guitar,0.021568704396486282,0
63,100,0.16363636363636364,378,0,16,DL_Guitar,6,3,DL_Guitar,0.017059016972780228,0
63,100,0.4772727272727273,449,0,16,DL_Guitar,6,8,DL_Guitar,0.015268274582922459,0
63,100,0.36363636363636365,576,0,16,DL_Guitar,6,6,DL_Guitar,0.016456810757517815,0
56,100,0.2,660,0,16,DL_Guitar,6,3,DL_Guitar,0.02183777466416359,0
63,100,0.41818181818181815,725,0,16,DL_Guitar,6,7,DL_Guitar,0.03251954913139343,0
63,100,0.1409090909090909,822,0,16,DL_Guitar,6,2,DL_Guitar,0.060915201902389526,0
63,100,0.5409090909090909,21,1,17,DL_Guitar,6,9,DL_Guitar,0.9986506104469299,1
63,100,0.3409090909090909,206,0,17,DL_Guitar,6,5,DL_Guitar,0.0879799947142601,0
53,100,0.1590909090909091,480,1,17,DL_Guitar,6,3,DL_Guitar,0.09298631548881531,0
53,100,0.3,532,0,17,DL_Guitar,6,5,DL_Guitar,0.1099492609500885,0
52,100,0.3,611,0,17,DL_Guitar,6,5,DL_Guitar,0.12867236137390137,0
52,100,0.2590909090909091,681,0,17,DL_Guitar,6,4,DL_Guitar,0.1822235882282257,0
53,100,0.2409090909090909,119,1,18,DL_Guitar,6,4,DL_Guitar,0.9986506104469299,1
63,100,0.2409090909090909,356,1,18,DL_Guitar,6,4,DL_Guitar,0.08798030018806458,0
63,100,0.23636363636363636,436,0,18,DL_Guitar,6,4,DL_Guitar,0.09298760443925858,0
63,100,0.22272727272727272,497,0,18,DL_Guitar,6,4,DL_Guitar,0.10995660722255707,0
63,100,0.7,625,0,18,DL_Guitar,6,11,DL_Guitar,0.12867896258831024,0
56,100,0.35909090909090907,804,0,18,DL_Guitar,6,6,DL_Guitar,0.18222768604755402,0
63,100,0.5181818181818182,21,1,19,DL_Guitar,6,8,DL_Guitar,0.9986506104469299,1
63,100,0.3181818181818182,370,1,19,DL_Guitar,6,5,DL_Guitar,0.08798175305128098,0
56,100,0.18181818181818182,453,0,19,DL_Guitar,6,3,DL_Guitar,0.09298767894506454,0
56,100,0.2590909090909091,501,0,19,DL_Guitar,6,4,DL_Guitar,0.1099543496966362,0
56,100,0.2636363636363636,576,0,19,DL_Guitar,6,4,DL_Guitar,0.12868140637874603,0
63,100,0.7818181818181819,791,0,19,DL_Guitar,6,13,DL_Guitar,0.18222148716449738,0
56,100,0.7818181818181819,88,1,20,DL_Guitar,6,13,DL_Guitar,0.9990280866622925,1
63,100,0.2409090909090909,272,0,20,DL_Guitar,6,4,DL_Guitar,0.37034475803375244,0
63,100,0.41818181818181815,449,0,20,DL_Guitar,6,7,DL_Guitar,0.45617005228996277,0
56,100,0.23636363636363636,40,1,21,DL_Guitar,6,4,DL_Guitar,0.9988439083099365,1
63,100,0.2590909090909091,106,0,21,DL_Guitar,6,4,DL_Guitar,0.13798435032367706,0
63,100,0.22272727272727272,422,1,21,DL_Guitar,6,4,DL_Guitar,0.16236640512943268,0
63,100,0.1409090909090909,550,0,21,DL_Guitar,6,2,DL_Guitar,0.19106078147888184,0
63,100,0.6181818181818182,700,0,21,DL_Guitar,6,10,DL_Guitar,0.26197701692581177,0
60,100,0.1409090909090909,198,1,22,DL_Guitar,6,2,DL_Guitar,0.9983736276626587,1
63,100,0.12272727272727273,246,0,22,DL_Guitar,6,2,DL_Guitar,0.051048196852207184,0
63,100,0.1409090909090909,285,0,22,DL_Guitar,6,2,DL_Guitar,0.041612908244132996,0
63,100,0.17727272727272728,326,0,22,DL_Guitar,6,3,DL_Guitar,0.037979792803525925,0
53,100,0.17727272727272728,370,0,22,DL_Guitar,6,3,DL_Guitar,0.03926221281290054,0
63,100,0.1,523,0,22,DL_Guitar,6,2,DL_Guitar,0.04616701602935791,0
63,100,0.1590909090909091,779,1,22,DL_Guitar,6,3,DL_Guitar,0.05713686719536781,0
63,100,0.11818181818181818,845,0,22,DL_Guitar,6,2,DL_Guitar,0.09188685566186905,0
63,100,0.1409090909090909,308,1,23,DL_Guitar,6,2,DL_Guitar,0.9988439083099365,1
63,100,0.3,581,1,23,DL_Guitar,6,5,DL_Guitar,0.13798610866069794,0
56,100,0.1409090909090909,669,0,23,DL_Guitar,6,2,DL_Guitar,0.16237398982048035,0
56,100,0.1590909090909091,760,0,23,DL_Guitar,6,3,DL_Guitar,0.19106584787368774,0
63,100,0.2,810,0,23,DL_Guitar,6,3,DL_Guitar,0.2619733214378357,0
63,100,0.3,3,1,24,DL_Guitar,6,5,DL_Guitar,0.9983735084533691,1
56,100,0.3409090909090909,79,0,24,DL_Guitar,6,5,DL_Guitar,0.05104995146393776,0
60,100,0.1590909090909091,175,0,24,DL_Guitar,6,3,DL_Guitar,0.041613053530454636,0
63,100,0.13636363636363635,391,0,24,DL_Guitar,6,2,DL_Guitar,0.037979207932949066,0
60,100,0.8590909090909091,453,0,24,DL_Guitar,6,14,DL_Guitar,0.03926178440451622,0
56,100,0.1409090909090909,717,1,24,DL_Guitar,6,2,DL_Guitar,0.0461672879755497,0
68,100,0.18181818181818182,748,0,24,DL_Guitar,6,3,DL_Guitar,0.0571339912712574,0
56,100,0.2590909090909091,876,0,24,DL_Guitar,6,4,DL_Guitar,0.09188424050807953,0
63,100,0.3181818181818182,171,1,25,DL_Guitar,6,5,DL_Guitar,0.9988439083099365,1
63,100,0.1,347,0,25,DL_Guitar,6,2,DL_Guitar,0.13798430562019348,0
63,100,0.2818181818181818,378,0,25,DL_Guitar,6,5,DL_Guitar,0.1623653769493103,0
63,100,0.2636363636363636,443,0,25,DL_Guitar,6,4,DL_Guitar,0.19106486439704895,0
61,100,0.3181818181818182,735,1,25,DL_Guitar,6,5,DL_Guitar,0.26196831464767456,0
63,100,0.4590909090909091,17,1,26,DL_Guitar,6,7,DL_Guitar,0.9983231425285339,1
56,100,0.32272727272727275,642,1,26,DL_Guitar,6,5,DL_Guitar,0.5462221503257751,1
63,100,0.2,88,1,27,DL_Guitar,6,3,DL_Guitar,0.9988439083099365,1
60,100,0.2409090909090909,333,1,27,DL_Guitar,6,4,DL_Guitar,0.13798652589321136,0
60,100,0.3,519,0,27,DL_Guitar,6,5,DL_Guitar,0.1623741090297699,0
63,100,0.5181818181818182,611,0,27,DL_Guitar,6,8,DL_Guitar,0.19106005132198334,0
63,100,0.1590909090909091,743,0,27,DL_Guitar,6,3,DL_Guitar,0.2619803845882416,0
63,100,0.3,216,1,28,DL_Guitar,6,5,DL_Guitar,0.9983230233192444,1
63,100,0.17727272727272728,303,0,28,DL_Guitar,6,3,DL_Guitar,0.5462204217910767,1
63,100,0.1590909090909091,0,1,29,DL_Guitar,6,3,DL_Guitar,0.9983231425285339,1
63,100,0.9181818181818182,743,1,29,DL_Guitar,6,15,DL_Guitar,0.5462208390235901,1
56,100,0.3,83,1,30,DL_Guitar,6,5,DL_Guitar,0.9984880685806274,1
56,100,0.1409090909090909,154,0,30,DL_Guitar,6,2,DL_Guitar,0.06335046887397766,0
63,100,0.740909090909091,320,0,30,DL_Guitar,6,12,DL_Guitar,0.058288853615522385,0
56,100,0.13636363636363635,523,0,30,DL_Guitar,6,2,DL_Guitar,0.06135917454957962,0
63,100,0.17727272727272728,602,0,30,DL_Guitar,6,3,DL_Guitar,0.07168135792016983,0
60,100,0.11818181818181818,691,0,30,DL_Guitar,6,2,DL_Guitar,0.08473709225654602,0
63,100,0.3409090909090909,783,0,30,DL_Guitar,6,5,DL_Guitar,0.12634535133838654,0
63,100,0.3181818181818182,9,1,31,DL_Guitar,6,5,DL_Guitar,0.9986506104469299,1
63,100,0.3,83,0,31,DL_Guitar,6,5,DL_Guitar,0.08798284828662872,0
63,100,0.8227272727272728,189,0,31,DL_Guitar,6,13,DL_Guitar,0.09298916906118393,0
63,100,1.1818181818181819,443,1,31,DL_Guitar,6,15,DL_Guitar,0.10996052622795105,0
56,100,0.13636363636363635,721,1,31,DL_Guitar,6,2,DL_Guitar,0.1286860704421997,0
63,100,0.36363636363636365,752,0,31,DL_Guitar,6,6,DL_Guitar,0.1822265386581421,0
63,100,0.32272727272727275,26,1,32,DL_Guitar,6,5,DL_Guitar,0.9984879493713379,1
63,100,0.4818181818181818,158,0,32,DL_Guitar,6,8,DL_Guitar,0.06335493922233582,0
56,100,0.2409090909090909,298,0,32,DL_Guitar,6,4,DL_Guitar,0.05828982964158058,0
63,100,0.1590909090909091,396,0,32,DL_Guitar,6,3,DL_Guitar,0.06136372685432434,0
61,100,0.2772727272727273,536,0,32,DL_Guitar,6,4,DL_Guitar,0.07168557494878769,0
53,100,0.2590909090909091,611,0,32,DL_Guitar,6,4,DL_Guitar,0.08473770320415497,0
63,100,0.2772727272727273,735,0,32,DL_Guitar,6,4,DL_Guitar,0.12635530531406403,0
63,100,0.6363636363636364,105,1,33,DL_Guitar,6,10,DL_Guitar,0.9988439083099365,1
56,100,0.5227272727272727,444,1,33,DL_Guitar,6,8,DL_Guitar,0.13798747956752777,0
63,100,0.35909090909090907,558,0,33,DL_Guitar,6,6,DL_Guitar,0.16236868500709534,0
63,100,0.12272727272727273,751,0,33,DL_Guitar,6,2,DL_Guitar,0.19107039272785187,0
63,100,0.6409090909090909,866,0,33,DL_Guitar,6,10,DL_Guitar,0.26198187470436096,0
63,100,0.2590909090909091,518,1,34,DL_Guitar,6,4,DL_Guitar,0.9990094900131226,1
63,100,0.2,619,0,34,DL_Guitar,6,3,DL_Guitar,0.23323649168014526,0
63,100,0.2,770,0,34,DL_Guitar,6,3,DL_Guitar,0.27058878540992737,0
61,100,0.4818181818181818,861,0,34,DL_Guitar,6,8,DL_Guitar,0.35793381929397583,0
61,100,0.1409090909090909,241,1,35,DL_Guitar,6,2,DL_Guitar,0.9990094900131226,1
63,100,0.1,361,0,35,DL_Guitar,6,2,DL_Guitar,0.23323704302310944,0
63,100,0.9227272727272727,408,0,35,DL_Guitar,6,15,DL_Guitar,0.27059322595596313,0
63,100,0.3,738,1,35,DL_Guitar,6,5,DL_Guitar,0.3579361140727997,0
63,100,0.21818181818181817,8,1,36,DL_Guitar,6,3,DL_Guitar,0.9990094900131226,1
53,100,0.13636363636363635,678,1,36,DL_Guitar,6,2,DL_Guitar,0.23323099315166473,0
61,100,0.22272727272727272,751,0,36,DL_Guitar,6,4,DL_Guitar,0.2705840766429901,0
53,100,0.5590909090909091,801,0,36,DL_Guitar,6,9,DL_Guitar,0.357927531003952,0
65,100,0.5409090909090909,53,1,37,DL_Guitar,6,9,DL_Guitar,0.9988439083099365,1
65,100,0.2818181818181818,241,0,37,DL_Guitar,6,5,DL_Guitar,0.13798178732395172,0
53,100,0.2636363636363636,311,0,37,DL_Guitar,6,4,DL_Guitar,0.1623626947402954,0
53,100,0.21818181818181817,373,0,37,DL_Guitar,6,3,DL_Guitar,0.19105497002601624,0
63,100,0.5590909090909091,545,0,37,DL_Guitar,6,9,DL_Guitar,0.26195505261421204,0
55,100,0.2772727272727273,141,1,38,DL_Guitar,6,4,DL_Guitar,0.9983232617378235,1
55,100,0.21818181818181817,418,1,38,DL_Guitar,6,3,DL_Guitar,0.5462161302566528,1
53,100,0.2,163,1,39,DL_Guitar,6,3,DL_Guitar,0.9986506104469299,1
53,100,0.1590909090909091,211,0,39,DL_Guitar,6,3,DL_Guitar,0.08797892183065414,0
53,100,0.2818181818181818,276,0,39,DL_Guitar,6,5,DL_Guitar,0.09298567473888397,0
53,100,0.43636363636363634,348,0,39,DL_Guitar,6,7,DL_Guitar,0.10995303094387054,0
63,100,0.6227272727272727,474,0,39,DL_Guitar,6,10,DL_Guitar,0.12867021560668945,0
61,100,0.11818181818181818,765,1,39,DL_Guitar,6,2,DL_Guitar,0.18222402036190033,0
63,100,0.1409090909090909,361,1,40,DL_Guitar,6,2,DL_Guitar,0.9990094900131226,1
63,100,0.1409090909090909,405,0,40,DL_Guitar,6,2,DL_Guitar,0.23323753476142883,0
63,100,0.18181818181818182,664,1,40,DL_Guitar,6,3,DL_Guitar,0.27059563994407654,0
63,100,0.12272727272727273,861,0,40,DL_Guitar,6,2,DL_Guitar,0.3579425811767578,0
63,100,0.21818181818181817,75,1,41,DL_Guitar,6,3,DL_Guitar,0.9983004927635193,1
53,100,0.3409090909090909,246,0,41,DL_Guitar,6,5,DL_Guitar,0.044662266969680786,0
63,100,0.12272727272727273,334,0,41,DL_Guitar,6,2,DL_Guitar,0.033371370285749435,0
63,100,0.18181818181818182,399,0,41,DL_Guitar,6,3,DL_Guitar,0.02694779261946678,0
53,100,0.2,448,0,41,DL_Guitar,6,3,DL_Guitar,0.024083884432911873,0
56,100,0.2,619,0,41,DL_Guitar,6,3,DL_Guitar,0.024972163140773773,0
63,100,0.1409090909090909,691,0,41,DL_Guitar,6,2,DL_Guitar,0.030647965148091316,0
63,100,0.11818181818181818,735,0,41,DL_Guitar,6,2,DL_Guitar,0.04136926308274269,0
63,100,0.33636363636363636,765,0,41,DL_Guitar,6,5,DL_Guitar,0.07207144051790237,0
63,100,0.21818181818181817,0,1,42,DL_Guitar,6,3,DL_Guitar,0.9990280866622925,1
63,100,0.2818181818181818,198,0,42,DL_Guitar,6,5,DL_Guitar,0.3703479766845703,0
63,100,0.16363636363636364,774,1,42,DL_Guitar,6,3,DL_Guitar,0.4561835527420044,0
63,100,0.3,295,1,43,DL_Guitar,6,5,DL_Guitar,0.9990280866622925,1
63,100,0.6,399,0,43,DL_Guitar,6,10,DL_Guitar,0.37034568190574646,0
53,100,0.18181818181818182,673,1,43,DL_Guitar,6,3,DL_Guitar,0.4561767578125,0
63,100,0.12272727272727273,136,1,44,DL_Guitar,6,2,DL_Guitar,0.9990094900131226,1
63,100,0.12272727272727273,268,0,44,DL_Guitar,6,2,DL_Guitar,0.23323960602283478,0
63,100,0.1409090909090909,550,1,44,DL_Guitar,6,2,DL_Guitar,0.2705928683280945,0
63,100,0.2409090909090909,616,0,44,DL_Guitar,6,4,DL_Guitar,0.3579413890838623,0
58,100,0.18181818181818182,21,1,45,DL_Guitar,6,3,DL_Guitar,0.9986506104469299,1
53,100,0.5409090909090909,321,1,45,DL_Guitar,6,9,DL_Guitar,0.08797794580459595,0
60,100,0.16363636363636364,444,0,45,DL_Guitar,6,3,DL_Guitar,0.09298563003540039,0
53,100,0.1590909090909091,506,0,45,DL_Guitar,6,3,DL_Guitar,0.10994795709848404,0
63,100,0.18181818181818182,729,0,45,DL_Guitar,6,3,DL_Guitar,0.12867134809494019,0
63,100,0.4,861,0,45,DL_Guitar,6,6,DL_Guitar,0.18221773207187653,0
63,100,0.6818181818181818,254,1,46,DL_Guitar,6,11,DL_Guitar,0.9988439083099365,1
61,100,0.13636363636363635,458,0,46,DL_Guitar,6,2,DL_Guitar,0.13798198103904724,0
61,100,0.5,493,0,46,DL_Guitar,6,8,DL_Guitar,0.1623644232749939,0
61,100,0.21818181818181817,678,0,46,DL_Guitar,6,3,DL_Guitar,0.19105693697929382,0
61,100,0.16363636363636364,774,0,46,DL_Guitar,6,3,DL_Guitar,0.26197317242622375,0
64,100,0.1590909090909091,810,1,47,DL_Guitar,6,3,DL_Guitar,0.9792243838310242,1
53,100,0.18181818181818182,56,1,48,DL_Guitar,6,3,DL_Guitar,0.9986506104469299,1
53,100,0.2818181818181818,263,0,48,DL_Guitar,6,5,DL_Guitar,0.08797911554574966,0
56,100,0.1,421,0,48,DL_Guitar,6,2,DL_Guitar,0.09298296272754669,0
63,100,0.2,483,0,48,DL_Guitar,6,3,DL_Guitar,0.10994940251111984,0
53,100,0.16363636363636364,554,0,48,DL_Guitar,6,3,DL_Guitar,0.1286729872226715,0
61,100,0.2,845,1,48,DL_Guitar,6,3,DL_Guitar,0.18221715092658997,0
56,100,0.5590909090909091,251,1,49,DL_Guitar,6,9,DL_Guitar,0.9990280866622925,1
63,100,0.9181818181818182,396,0,49,DL_Guitar,6,15,DL_Guitar,0.37033796310424805,0
63,100,0.11818181818181818,770,1,49,DL_Guitar,6,2,DL_Guitar,0.45616796612739563,0
63,100,0.41818181818181815,118,1,50,DL_Guitar,6,7,DL_Guitar,0.9988439083099365,1
63,100,0.6590909090909091,263,0,50,DL_Guitar,6,11,DL_Guitar,0.13798514008522034,0
53,100,0.18181818181818182,606,1,50,DL_Guitar,6,3,DL_Guitar,0.16237205266952515,0
63,100,0.35909090909090907,655,0,50,DL_Guitar,6,6,DL_Guitar,0.19106215238571167,0
63,100,0.1,765,0,50,DL_Guitar,6,2,DL_Guitar,0.26197752356529236,0
56,100,0.5590909090909091,31,1,51,DL_Guitar,6,9,DL_Guitar,0.9990094900131226,1
63,100,0.7227272727272728,254,0,51,DL_Guitar,6,12,DL_Guitar,0.23323816061019897,0
63,100,0.6,531,1,51,DL_Guitar,6,10,DL_Guitar,0.2705928087234497,0
63,100,0.2409090909090909,668,0,51,DL_Guitar,6,4,DL_Guitar,0.35793671011924744,0
63,100,0.5818181818181818,110,1,52,DL_Guitar,6,9,DL_Guitar,0.9990094900131226,1
63,100,0.5181818181818182,435,1,52,DL_Guitar,6,8,DL_Guitar,0.23323623836040497,0
63,100,0.37727272727272726,721,1,52,DL_Guitar,6,6,DL_Guitar,0.27058935165405273,0
63,100,0.1409090909090909,861,0,52,DL_Guitar,6,2,DL_Guitar,0.3579377830028534,0
63,100,0.9181818181818182,18,1,53,DL_Guitar,6,15,DL_Guitar,0.9988439083099365,1
56,100,0.1590909090909091,254,1,53,DL_Guitar,6,3,DL_Guitar,0.13798566162586212,0
63,100,0.18181818181818182,289,0,53,DL_Guitar,6,3,DL_Guitar,0.16236889362335205,0
63,100,0.3409090909090909,378,0,53,DL_Guitar,6,5,DL_Guitar,0.19105951488018036,0
63,100,0.5590909090909091,480,0,53,DL_Guitar,6,9,DL_Guitar,0.2619744837284088,0
53,100,0.3,26,1,54,DL_Guitar,6,5,DL_Guitar,0.9990094900131226,1
61,100,0.8363636363636363,150,0,54,DL_Guitar,6,13,DL_Guitar,0.23322944343090057,0
61,100,0.21818181818181817,370,0,54,DL_Guitar,6,3,DL_Guitar,0.27058708667755127,0
63,100,0.42272727272727273,848,1,54,DL_Guitar,6,7,DL_Guitar,0.3579218089580536,0
63,100,1.559090909090909,166,1,55,DL_Guitar,6,15,DL_Guitar,0.9990094900131226,1
60,100,0.21818181818181817,523,1,55,DL_Guitar,6,3,DL_Guitar,0.23323354125022888,0
53,100,0.1409090909090909,694,0,55,DL_Guitar,6,2,DL_Guitar,0.2705844044685364,0
53,100,0.21818181818181817,735,0,55,DL_Guitar,6,3,DL_Guitar,0.35792675614356995,0
56,100,0.1590909090909091,273,1,56,DL_Guitar,6,3,DL_Guitar,0.9983231425285339,1
61,100,0.9227272727272727,421,0,56,DL_Guitar,6,15,DL_Guitar,0.5462126135826111,1
63,100,0.11818181818181818,593,1,57,DL_Guitar,6,2,DL_Guitar,0.9983231425285339,1
63,100,0.759090909090909,625,0,57,DL_Guitar,6,12,DL_Guitar,0.5462250709533691,1
63,100,0.13636363636363635,370,1,58,DL_Guitar,6,2,DL_Guitar,0.9990094900131226,1
63,100,0.11818181818181818,528,0,58,DL_Guitar,6,2,DL_Guitar,0.23323415219783783,0
53,100,0.4,655,0,58,DL_Guitar,6,6,DL_Guitar,0.2705916166305542,0
61,100,0.42272727272727273,774,0,58,DL_Guitar,6,7,DL_Guitar,0.3579435646533966,0
61,100,0.3,34,1,59,DL_Guitar,6,5,DL_Guitar,0.979223370552063,1
63,100,1.040909090909091,553,1,64,DL_Guitar,6,15,DL_Guitar,0.9983231425285339,1
63,100,0.7181818181818181,853,1,64,DL_Guitar,6,11,DL_Guitar,0.5462247133255005,1
63,100,0.1409090909090909,176,1,65,DL_Guitar,6,2,DL_Guitar,0.9983231425285339,1
63,100,0.38181818181818183,220,0,65,DL_Guitar,6,6,DL_Guitar,0.5462262034416199,1
53,100,0.6,113,1,68,DL_Guitar,6,10,DL_Guitar,0.9990280866622925,1
53,100,0.6409090909090909,307,0,68,DL_Guitar,6,10,DL_Guitar,0.37033265829086304,0
77,100,0.1590909090909091,593,1,68,DL_Guitar,6,3,DL_Guitar,0.45616650581359863,0
63,100,0.35909090909090907,193,1,69,DL_Guitar,6,6,DL_Guitar,0.9986506104469299,1
63,100,0.5590909090909091,276,0,69,DL_Guitar,6,9,DL_Guitar,0.08798111975193024,0
63,100,0.2,443,0,69,DL_Guitar,6,3,DL_Guitar,0.09299106895923615,0
63,100,0.1,612,0,69,DL_Guitar,6,2,DL_Guitar,0.10995607823133469,0
63,100,0.1,650,0,69,DL_Guitar,6,2,DL_Guitar,0.12868475914001465,0
63,100,1.6181818181818182,700,0,69,DL_Guitar,6,15,DL_Guitar,0.18223051726818085,0
53,100,0.2590909090909091,343,1,70,DL_Guitar,6,4,DL_Guitar,0.9990094900131226,1
53,100,0.9,462,0,70,DL_Guitar,6,14,DL_Guitar,0.23322606086730957,0
65,100,0.35909090909090907,682,0,70,DL_Guitar,6,6,DL_Guitar,0.27057668566703796,0
53,100,0.11818181818181818,766,0,70,DL_Guitar,6,2,DL_Guitar,0.35792338848114014,0
65,100,0.16363636363636364,3,1,71,DL_Guitar,6,3,DL_Guitar,0.9988439083099365,1
77,100,0.23636363636363636,260,1,71,DL_Guitar,6,4,DL_Guitar,0.137978658080101,0
77,100,0.4,320,0,71,DL_Guitar,6,6,DL_Guitar,0.16236408054828644,0
77,100,0.3,413,0,71,DL_Guitar,6,5,DL_Guitar,0.19105368852615356,0
63,100,0.2636363636363636,509,0,71,DL_Guitar,6,4,DL_Guitar,0.26196181774139404,0
63,100,0.11818181818181818,96,1,72,DL_Guitar,6,2,DL_Guitar,0.9986506104469299,1
63,100,0.21818181818181817,700,1,72,DL_Guitar,6,3,DL_Guitar,0.08798347413539886,0
63,100,0.1,756,0,72,DL_Guitar,6,2,DL_Guitar,0.0929907038807869,0
75,100,0.1,783,0,72,DL_Guitar,6,2,DL_Guitar,0.10995487868785858,0
63,100,0.3,805,0,72,DL_Guitar,6,5,DL_Guitar,0.1286846399307251,0
75,100,0.1,870,0,72,DL_Guitar,6,2,DL_Guitar,0.18223613500595093,0
75,100,0.2,30,1,73,DL_Guitar,6,3,DL_Guitar,0.9990280866622925,1
63,100,0.35909090909090907,74,0,73,DL_Guitar,6,6,DL_Guitar,0.3703528642654419,0
63,100,0.8636363636363636,157,0,73,DL_Guitar,6,14,DL_Guitar,0.4561811685562134,0
62,100,0.8409090909090909,466,1,74,DL_Guitar,6,13,DL_Guitar,0.9983231425285339,1
62,100,0.22272727272727272,663,0,74,DL_Guitar,6,4,DL_Guitar,0.5462208390235901,1
62,100,0.1590909090909091,9,1,75,DL_Guitar,6,3,DL_Guitar,0.9990094900131226,1
59,100,1.0818181818181818,92,0,75,DL_Guitar,6,15,DL_Guitar,0.23323816061019897,0
61,100,1.0363636363636364,567,1,75,DL_Guitar,6,15,DL_Guitar,0.2705844044685364,0
59,100,1.1590909090909092,823,1,75,DL_Guitar,6,15,DL_Guitar,0.3579349219799042,0
61,100,1.2,202,1,76,DL_Guitar,6,15,DL_Guitar,0.9983230233192444,1
61,100,3.2,509,1,76,DL_Guitar,6,15,DL_Guitar,0.54619300365448,1
62,100,1.2227272727272727,343,1,77,DL_Guitar,6,15,DL_Guitar,0.9983231425285339,1
62,100,0.5,853,1,77,DL_Guitar,6,8,DL_Guitar,0.5462254285812378,1
57,100,0.4590909090909091,132,1,78,DL_Guitar,6,7,DL_Guitar,0.9990280866622925,1
62,100,0.8181818181818182,502,1,78,DL_Guitar,6,13,DL_Guitar,0.3703458607196808,0
62,100,0.3,826,1,78,DL_Guitar,6,5,DL_Guitar,0.45617929100990295,0
54,100,0.12272727272727273,26,1,79,DL_Guitar,6,2,DL_Guitar,0.9986506104469299,1
62,100,0.13636363636363635,83,0,79,DL_Guitar,6,2,DL_Guitar,0.08798142522573471,0
68,100,0.2,123,0,79,DL_Guitar,6,3,DL_Guitar,0.0929836630821228,0
68,100,0.12272727272727273,377,1,79,DL_Guitar,6,2,DL_Guitar,0.10995378345251083,0
68,100,0.5227272727272727,509,0,79,DL_Guitar,6,8,DL_Guitar,0.12866917252540588,0
61,100,0.8363636363636363,633,0,79,DL_Guitar,6,13,DL_Guitar,0.18221747875213623,0
59,100,0.41818181818181815,9,1,80,DL_Guitar,6,7,DL_Guitar,0.9986506104469299,1
59,100,0.11818181818181818,132,0,80,DL_Guitar,6,2,DL_Guitar,0.08798021078109741,0
64,100,0.7363636363636363,303,0,80,DL_Guitar,6,12,DL_Guitar,0.09298334270715714,0
61,100,0.17727272727272728,646,1,80,DL_Guitar,6,3,DL_Guitar,0.10994851589202881,0
69,100,0.2590909090909091,713,0,80,DL_Guitar,6,4,DL_Guitar,0.12867678701877594,0
62,100,0.4409090909090909,779,0,80,DL_Guitar,6,7,DL_Guitar,0.18222276866436005,0
62,100,0.13636363636363635,17,1,81,DL_Guitar,6,2,DL_Guitar,0.9988439083099365,1
62,100,0.5772727272727273,53,0,81,DL_Guitar,6,9,DL_Guitar,0.13798390328884125,0
59,100,0.3,597,1,81,DL_Guitar,6,5,DL_Guitar,0.16237227618694305,0
68,100,0.6181818181818182,677,0,81,DL_Guitar,6,10,DL_Guitar,0.19105783104896545,0
52,100,0.12272727272727273,817,0,81,DL_Guitar,6,2,DL_Guitar,0.2619788646697998,0
68,100,0.18181818181818182,3,1,82,DL_Guitar,6,3,DL_Guitar,0.9982556700706482,1
57,100,0.3181818181818182,66,0,82,DL_Guitar,6,5,DL_Guitar,0.041292522102594376,0
61,100,0.2,166,0,82,DL_Guitar,6,3,DL_Guitar,0.029124541208148003,0
61,100,0.2590909090909091,273,0,82,DL_Guitar,6,4,DL_Guitar,0.021568743512034416,0
64,100,0.2818181818181818,330,0,82,DL_Guitar,6,5,DL_Guitar,0.017059002071619034,0
57,100,0.37727272727272726,436,0,82,DL_Guitar,6,6,DL_Guitar,0.015267865732312202,0
61,100,0.2772727272727273,567,0,82,DL_Guitar,6,4,DL_Guitar,0.016456054523587227,0
57,100,0.2590909090909091,633,0,82,DL_Guitar,6,4,DL_Guitar,0.02183752879500389,0
61,100,0.2590909090909091,700,0,82,DL_Guitar,6,4,DL_Guitar,0.03251823037862778,0
61,100,0.4409090909090909,826,0,82,DL_Guitar,6,7,DL_Guitar,0.06091140955686569,0
59,100,0.12272727272727273,92,1,83,DL_Guitar,6,2,DL_Guitar,0.9986506104469299,1
64,100,0.17727272727272728,127,0,83,DL_Guitar,6,3,DL_Guitar,0.08798041194677353,0
57,100,0.33636363636363636,193,0,83,DL_Guitar,6,5,DL_Guitar,0.09298668056726456,0
61,100,0.5227272727272727,320,0,83,DL_Guitar,6,8,DL_Guitar,0.1099555566906929,0
57,100,0.9590909090909091,483,0,83,DL_Guitar,6,15,DL_Guitar,0.1286749392747879,0
62,100,1.2,703,0,83,DL_Guitar,6,15,DL_Guitar,0.1822236329317093,0
62,100,0.1409090909090909,263,1,84,DL_Guitar,6,2,DL_Guitar,0.9990094900131226,1
52,100,0.1,663,1,84,DL_Guitar,6,2,DL_Guitar,0.2332347333431244,0
64,100,0.16363636363636364,752,0,84,DL_Guitar,6,3,DL_Guitar,0.270586758852005,0
68,100,0.1590909090909091,810,0,84,DL_Guitar,6,3,DL_Guitar,0.3579270541667938,0
64,100,0.18181818181818182,66,1,85,DL_Guitar,6,3,DL_Guitar,0.9984879493713379,1
64,100,0.11818181818181818,197,0,85,DL_Guitar,6,2,DL_Guitar,0.06335432082414627,0
59,100,0.23636363636363636,237,0,85,DL_Guitar,6,4,DL_Guitar,0.05829142406582832,0
64,100,0.16363636363636364,289,0,85,DL_Guitar,6,3,DL_Guitar,0.061366282403469086,0
57,100,0.3181818181818182,493,0,85,DL_Guitar,6,5,DL_Guitar,0.0716896578669548,0
57,100,0.759090909090909,567,0,85,DL_Guitar,6,12,DL_Guitar,0.08474528044462204,0
57,100,0.8409090909090909,752,0,85,DL_Guitar,6,13,DL_Guitar,0.12635616958141327,0
61,100,0.32272727272727275,56,1,86,DL_Guitar,6,5,DL_Guitar,0.9988439083099365,1
61,100,1.0,140,0,86,DL_Guitar,6,15,DL_Guitar,0.13798333704471588,0
64,100,0.2772727272727273,559,1,86,DL_Guitar,6,4,DL_Guitar,0.16236983239650726,0
62,100,1.0,624,0,86,DL_Guitar,6,15,DL_Guitar,0.19106365740299225,0
62,100,0.1409090909090909,849,0,86,DL_Guitar,6,2,DL_Guitar,0.2619803845882416,0
57,100,0.21818181818181817,17,1,87,DL_Guitar,6,3,DL_Guitar,0.9990094900131226,1
62,100,0.6590909090909091,210,0,87,DL_Guitar,6,11,DL_Guitar,0.23323966562747955,0
68,100,0.32272727272727275,773,1,87,DL_Guitar,6,5,DL_Guitar,0.27058646082878113,0
68,100,0.1409090909090909,862,0,87,DL_Guitar,6,2,DL_Guitar,0.35793691873550415,0
68,100,1.459090909090909,87,1,88,DL_Guitar,6,15,DL_Guitar,0.9983231425285339,1
68,100,0.18181818181818182,417,1,88,DL_Guitar,6,3,DL_Guitar,0.5462180972099304,1
62,100,0.12272727272727273,509,1,89,DL_Guitar,6,2,DL_Guitar,0.979223906993866,1
61,100,0.3,480,1,90,DL_Guitar,6,5,DL_Guitar,0.9988439083099365,1
64,100,0.2818181818181818,553,0,90,DL_Guitar,6,5,DL_Guitar,0.1379857361316681,0
64,100,0.3,619,0,90,DL_Guitar,6,5,DL_Guitar,0.16237322986125946,0
61,100,0.5,690,0,90,DL_Guitar,6,8,DL_Guitar,0.1910611242055893,0
57,100,1.7363636363636363,810,0,90,DL_Guitar,6,15,DL_Guitar,0.2619689702987671,0
62,100,0.3181818181818182,316,1,91,DL_Guitar,6,5,DL_Guitar,0.979223370552063,1
68,100,0.17727272727272728,546,1,92,DL_Guitar,6,3,DL_Guitar,0.9988439083099365,1
69,100,0.4590909090909091,646,0,92,DL_Guitar,6,7,DL_Guitar,0.13798262178897858,0
57,100,0.2,747,0,92,DL_Guitar,6,3,DL_Guitar,0.16236938536167145,0
64,100,0.2,805,0,92,DL_Guitar,6,3,DL_Guitar,0.19106532633304596,0
57,100,0.5590909090909091,853,0,92,DL_Guitar,6,9,DL_Guitar,0.26196789741516113,0
61,100,0.3181818181818182,110,1,93,DL_Guitar,6,5,DL_Guitar,0.9990280866622925,1
57,100,0.4,229,0,93,DL_Guitar,6,6,DL_Guitar,0.3703380823135376,0
61,100,0.17727272727272728,383,0,93,DL_Guitar,6,3,DL_Guitar,0.456171452999115,0
68,100,0.12272727272727273,255,1,94,DL_Guitar,6,2,DL_Guitar,0.9990094900131226,1
68,100,0.1,509,1,94,DL_Guitar,6,2,DL_Guitar,0.23322826623916626,0
59,100,0.36363636363636365,663,0,94,DL_Guitar,6,6,DL_Guitar,0.27058205008506775,0
61,100,0.2409090909090909,773,0,94,DL_Guitar,6,4,DL_Guitar,0.3579242527484894,0
64,100,0.3181818181818182,140,1,95,DL_Guitar,6,5,DL_Guitar,0.9988439083099365,1
57,100,0.5409090909090909,210,0,95,DL_Guitar,6,9,DL_Guitar,0.13798628747463226,0
64,100,0.2,347,0,95,DL_Guitar,6,3,DL_Guitar,0.16237282752990723,0
57,100,1.0772727272727274,413,0,95,DL_Guitar,6,15,DL_Guitar,0.19106361269950867,0
56,100,0.9181818181818182,656,1,95,DL_Guitar,6,15,DL_Guitar,0.26197195053100586,0
62,100,0.12272727272727273,26,1,96,DL_Guitar,6,2,DL_Guitar,0.9983232617378235,1
52,100,0.1590909090909091,550,1,96,DL_Guitar,6,3,DL_Guitar,0.5462203621864319,1
57,100,1.8,233,1,97,DL_Guitar,6,15,DL_Guitar,0.9983231425285339,1
57,100,0.2590909090909091,823,1,97,DL_Guitar,6,4,DL_Guitar,0.5462262630462646,1
57,100,0.6590909090909091,166,1,98,DL_Guitar,6,11,DL_Guitar,0.9983735084533691,1
62,100,0.3,320,0,98,DL_Guitar,6,5,DL_Guitar,0.051050931215286255,0
62,100,0.2590909090909091,430,0,98,DL_Guitar,6,4,DL_Guitar,0.0416126623749733,0
57,100,0.2409090909090909,527,0,98,DL_Guitar,6,4,DL_Guitar,0.03798031434416771,0
62,100,0.11818181818181818,580,0,98,DL_Guitar,6,2,DL_Guitar,0.03926180675625801,0
62,100,0.1,633,0,98,DL_Guitar,6,2,DL_Guitar,0.04616817086935043,0
57,100,0.12272727272727273,695,0,98,DL_Guitar,6,2,DL_Guitar,0.05713491141796112,0
68,100,0.11818181818181818,876,0,98,DL_Guitar,6,2,DL_Guitar,0.09188278764486313,0
68,100,0.2,53,1,99,DL_Guitar,6,3,DL_Guitar,0.9983735084533691,1
68,100,0.2,110,0,99,DL_Guitar,6,3,DL_Guitar,0.05104853957891464,0
68,100,0.1409090909090909,197,0,99,DL_Guitar,6,2,DL_Guitar,0.041610345244407654,0
59,100,0.35909090909090907,316,0,99,DL_Guitar,6,6,DL_Guitar,0.03797834366559982,0
68,100,0.11818181818181818,726,1,99,DL_Guitar,6,2,DL_Guitar,0.03925805911421776,0
61,100,0.3181818181818182,770,0,99,DL_Guitar,6,5,DL_Guitar,0.046164222061634064,0
68,100,0.1409090909090909,844,0,99,DL_Guitar,6,2,DL_Guitar,0.057127952575683594,0
61,100,0.2,876,0,99,DL_Guitar,6,3,DL_Guitar,0.09187967330217361,0
64,100,0.23636363636363636,40,1,100,DL_Guitar,6,4,DL_Guitar,0.9990094900131226,1
61,100,0.5,96,0,100,DL_Guitar,6,8,DL_Guitar,0.23322394490242004,0
61,100,0.6181818181818182,237,0,100,DL_Guitar,6,10,DL_Guitar,0.2705804705619812,0
64,100,0.5181818181818182,483,1,100,DL_Guitar,6,8,DL_Guitar,0.3579363524913788,0
57,100,0.18181818181818182,189,1,101,DL_Guitar,6,3,DL_Guitar,0.9990094900131226,1
52,100,0.1,282,0,101,DL_Guitar,6,2,DL_Guitar,0.23322847485542297,0
52,100,0.1,330,0,101,DL_Guitar,6,2,DL_Guitar,0.27058476209640503,0
52,100,0.38181818181818183,813,1,101,DL_Guitar,6,6,DL_Guitar,0.3579353094100952,0
64,100,0.11818181818181818,87,1,104,DL_Guitar,6,2,DL_Guitar,0.9983736276626587,1
57,100,0.2,255,0,104,DL_Guitar,6,3,DL_Guitar,0.0510505773127079,0
57,100,0.13636363636363635,370,0,104,DL_Guitar,6,2,DL_Guitar,0.041613709181547165,0
57,100,0.2590909090909091,413,0,104,DL_Guitar,6,4,DL_Guitar,0.03798071667551994,0
52,100,0.2590909090909091,480,0,104,DL_Guitar,6,4,DL_Guitar,0.039262980222702026,0
57,100,0.21818181818181817,536,0,104,DL_Guitar,6,3,DL_Guitar,0.046167951077222824,0
57,100,0.3,597,0,104,DL_Guitar,6,5,DL_Guitar,0.057134635746479034,0
57,100,0.8409090909090909,695,0,104,DL_Guitar,6,13,DL_Guitar,0.09188350290060043,0
64,100,0.18181818181818182,202,1,105,DL_Guitar,6,3,DL_Guitar,0.9792245030403137,1
52,100,0.6227272727272727,246,1,0,DL_Remix_emotional_folk_Guitar,6,10,DL_Remix_emotional_folk_Guitar,0.9986506104469299,1
59,100,0.2590909090909091,396,0,0,DL_Remix_emotional_folk_Guitar,6,4,DL_Remix_emotional_folk_Guitar,0.08797984570264816,0
59,100,0.2,492,0,0,DL_Remix_emotional_folk_Guitar,6,3,DL_Remix_emotional_folk_Guitar,0.09298370033502579,0
59,100,0.21818181818181817,559,0,0,DL_Remix_emotional_folk_Guitar,6,3,DL_Remix_emotional_folk_Guitar,0.10994913429021835,0
59,100,0.18181818181818182,752,0,0,DL_Remix_emotional_folk_Guitar,6,3,DL_Remix_emotional_folk_Guitar,0.12866996228694916,0
59,100,0.3,867,0,0,DL_Remix_emotional_folk_Guitar,6,5,DL_Remix_emotional_folk_Guitar,0.18221639096736908,0
59,100,0.3409090909090909,136,1,1,DL_Remix_emotional_folk_Guitar,6,5,DL_Remix_emotional_folk_Guitar,0.9990094900131226,1
52,100,0.32272727272727275,356,0,1,DL_Remix_emotional_folk_Guitar,6,5,DL_Remix_emotional_folk_Guitar,0.23322980105876923,0
59,100,0.4590909090909091,458,0,1,DL_Remix_emotional_folk_Guitar,6,7,DL_Remix_emotional_folk_Guitar,0.2705814838409424,0
61,100,0.18181818181818182,606,0,1,DL_Remix_emotional_folk_Guitar,6,3,DL_Remix_emotional_folk_Guitar,0.3579290509223938,0
66,100,0.2,663,1,2,DL_Remix_emotional_folk_Guitar,6,3,DL_Remix_emotional_folk_Guitar,0.9792242646217346,1
54,100,0.42272727272727273,34,1,3,DL_Remix_emotional_folk_Guitar,6,7,DL_Remix_emotional_folk_Guitar,0.9984880685806274,1
54,100,0.1409090909090909,131,0,3,DL_Remix_emotional_folk_Guitar,6,2,DL_Remix_emotional_folk_Guitar,0.0633537545800209,0
54,100,0.41818181818181815,396,1,3,DL_Remix_emotional_folk_Guitar,6,7,DL_Remix_emotional_folk_Guitar,0.05828853324055672,0
54,100,0.1590909090909091,506,0,3,DL_Remix_emotional_folk_Guitar,6,3,DL_Remix_emotional_folk_Guitar,0.06136086955666542,0
54,100,0.2818181818181818,553,0,3,DL_Remix_emotional_folk_Guitar,6,5,DL_Remix_emotional_folk_Guitar,0.07168132811784744,0
54,100,0.1590909090909091,629,0,3,DL_Remix_emotional_folk_Guitar,6,3,DL_Remix_emotional_folk_Guitar,0.08473411202430725,0
54,100,0.7,858,0,3,DL_Remix_emotional_folk_Guitar,6,11,DL_Remix_emotional_folk_Guitar,0.12634578347206116,0
54,100,0.38181818181818183,135,1,4,DL_Remix_emotional_folk_Guitar,6,6,DL_Remix_emotional_folk_Guitar,0.9986506104469299,1
54,100,0.1409090909090909,383,1,4,DL_Remix_emotional_folk_Guitar,6,2,DL_Remix_emotional_folk_Guitar,0.08797860145568848,0
54,100,0.17727272727272728,427,0,4,DL_Remix_emotional_folk_Guitar,6,3,DL_Remix_emotional_folk_Guitar,0.09298475086688995,0
59,100,0.6181818181818182,470,0,4,DL_Remix_emotional_folk_Guitar,6,10,DL_Remix_emotional_folk_Guitar,0.10994654148817062,0
54,100,0.11818181818181818,624,0,4,DL_Remix_emotional_folk_Guitar,6,2,DL_Remix_emotional_folk_Guitar,0.12867029011249542,0
59,100,0.6227272727272727,739,0,4,DL_Remix_emotional_folk_Guitar,6,10,DL_Remix_emotional_folk_Guitar,0.1822185069322586,0
59,100,0.1409090909090909,0,1,5,DL_Remix_emotional_folk_Guitar,6,2,DL_Remix_emotional_folk_Guitar,0.9990280866622925,1
54,100,0.18181818181818182,189,0,5,DL_Remix_emotional_folk_Guitar,6,3,DL_Remix_emotional_folk_Guitar,0.3703382909297943,0
59,100,0.1,782,1,5,DL_Remix_emotional_folk_Guitar,6,2,DL_Remix_emotional_folk_Guitar,0.45617204904556274,0
52,100,0.1409090909090909,0,1,6,DL_Remix_emotional_folk_Guitar,6,2,DL_Remix_emotional_folk_Guitar,0.9990094900131226,1
59,100,0.2409090909090909,245,1,6,DL_Remix_emotional_folk_Guitar,6,4,DL_Remix_emotional_folk_Guitar,0.2332305759191513,0
52,100,0.41818181818181815,440,0,6,DL_Remix_emotional_folk_Guitar,6,7,DL_Remix_emotional_folk_Guitar,0.2705881893634796,0
52,100,1.1227272727272728,871,1,6,DL_Remix_emotional_folk_Guitar,6,15,DL_Remix_emotional_folk_Guitar,0.357932448387146,0
59,100,0.11818181818181818,263,1,7,DL_Remix_emotional_folk_Guitar,6,2,DL_Remix_emotional_folk_Guitar,0.9986506104469299,1
63,100,0.12272727272727273,541,1,7,DL_Remix_emotional_folk_Guitar,6,2,DL_Remix_emotional_folk_Guitar,0.08797960728406906,0
63,100,0.1,585,0,7,DL_Remix_emotional_folk_Guitar,6,2,DL_Remix_emotional_folk_Guitar,0.09298820793628693,0
63,100,0.2772727272727273,647,0,7,DL_Remix_emotional_folk_Guitar,6,4,DL_Remix_emotional_folk_Guitar,0.10995494574308395,0
63,100,0.22272727272727272,739,0,7,DL_Remix_emotional_folk_Guitar,6,4,DL_Remix_emotional_folk_Guitar,0.1286819726228714,0
63,100,0.2,826,0,7,DL_Remix_emotional_folk_Guitar,6,3,DL_Remix_emotional_folk_Guitar,0.18223126232624054,0
59,100,0.7,53,1,8,DL_Remix_emotional_folk_Guitar,6,11,DL_Remix_emotional_folk_Guitar,0.9990094900131226,1
59,100,0.4772727272727273,237,0,8,DL_Remix_emotional_folk_Guitar,6,8,DL_Remix_emotional_folk_Guitar,0.23323659598827362,0
56,100,0.22272727272727272,519,1,8,DL_Remix_emotional_folk_Guitar,6,4,DL_Remix_emotional_folk_Guitar,0.27058374881744385,0
56,100,0.2636363636363636,818,1,8,DL_Remix_emotional_folk_Guitar,6,4,DL_Remix_emotional_folk_Guitar,0.35792648792266846,0
56,100,0.4818181818181818,3,1,9,DL_Remix_emotional_folk_Guitar,6,8,DL_Remix_emotional_folk_Guitar,0.9990094900131226,1
56,100,0.33636363636363636,259,1,9,DL_Remix_emotional_folk_Guitar,6,5,DL_Remix_emotional_folk_Guitar,0.23324307799339294,0
56,100,0.7636363636363637,553,1,9,DL_Remix_emotional_folk_Guitar,6,12,DL_Remix_emotional_folk_Guitar,0.2705914378166199,0
56,100,0.9818181818181818,725,0,9,DL_Remix_emotional_folk_Guitar,6,15,DL_Remix_emotional_folk_Guitar,0.357915461063385,0
57,100,0.3409090909090909,144,1,10,DL_Remix_emotional_folk_Guitar,6,5,DL_Remix_emotional_folk_Guitar,0.9988439083099365,1
52,100,0.17727272727272728,369,0,10,DL_Remix_emotional_folk_Guitar,6,3,DL_Remix_emotional_folk_Guitar,0.13798077404499054,0
52,100,0.1,440,0,10,DL_Remix_emotional_folk_Guitar,6,2,DL_Remix_emotional_folk_Guitar,0.16236506402492523,0
64,100,0.18181818181818182,620,0,10,DL_Remix_emotional_folk_Guitar,6,3,DL_Remix_emotional_folk_Guitar,0.19105598330497742,0
64,100,0.12272727272727273,663,0,10,DL_Remix_emotional_folk_Guitar,6,2,DL_Remix_emotional_folk_Guitar,0.2619694769382477,0
59,100,0.12272727272727273,519,1,11,DL_Remix_emotional_folk_Guitar,6,2,DL_Remix_emotional_folk_Guitar,0.9983231425285339,1
59,100,0.5590909090909091,845,1,11,DL_Remix_emotional_folk_Guitar,6,9,DL_Remix_emotional_folk_Guitar,0.5462074279785156,1
59,100,0.2,259,1,12,DL_Remix_emotional_folk_Guitar,6,3,DL_Remix_emotional_folk_Guitar,0.9990280866622925,1
52,100,0.11818181818181818,589,1,12,DL_Remix_emotional_folk_Guitar,6,2,DL_Remix_emotional_folk_Guitar,0.37033364176750183,0
59,100,0.18181818181818182,804,0,12,DL_Remix_emotional_folk_Guitar,6,3,DL_Remix_emotional_folk_Guitar,0.45616915822029114,0
63,100,0.7227272727272728,443,1,13,DL_Remix_emotional_folk_Guitar,6,12,DL_Remix_emotional_folk_Guitar,0.9990280866622925,1
59,100,0.2,606,0,13,DL_Remix_emotional_folk_Guitar,6,3,DL_Remix_emotional_folk_Guitar,0.37035462260246277,0
63,100,1.0,673,0,13,DL_Remix_emotional_folk_Guitar,6,15,DL_Remix_emotional_folk_Guitar,0.45616719126701355,0
56,100,1.3636363636363635,510,1,14,DL_Remix_emotional_folk_Guitar,6,15,DL_Remix_emotional_folk_Guitar,0.9792236089706421,1
56,100,0.3,273,1,15,DL_Remix_emotional_folk_Guitar,6,5,DL_Remix_emotional_folk_Guitar,0.9990094900131226,1
54,100,0.1409090909090909,629,1,15,DL_Remix_emotional_folk_Guitar,6,2,DL_Remix_emotional_folk_Guitar,0.23323005437850952,0
59,100,0.5363636363636364,744,0,15,DL_Remix_emotional_folk_Guitar,6,9,DL_Remix_emotional_folk_Guitar,0.2705739438533783,0
52,100,0.7181818181818181,866,0,15,DL_Remix_emotional_folk_Guitar,6,11,DL_Remix_emotional_folk_Guitar,0.3579241931438446,0
57,100,0.7,144,1,16,DL_Remix_emotional_folk_Guitar,6,11,DL_Remix_emotional_folk_Guitar,0.9990280866622925,1
64,100,0.5409090909090909,299,0,16,DL_Remix_emotional_folk_Guitar,6,9,DL_Remix_emotional_folk_Guitar,0.3703410029411316,0
54,100,0.2409090909090909,440,0,16,DL_Remix_emotional_folk_Guitar,6,4,DL_Remix_emotional_folk_Guitar,0.4561748802661896,0
59,100,0.4409090909090909,52,1,17,DL_Remix_emotional_folk_Guitar,6,7,DL_Remix_emotional_folk_Guitar,0.9990094900131226,1
52,100,0.2,220,0,17,DL_Remix_emotional_folk_Guitar,6,3,DL_Remix_emotional_folk_Guitar,0.2332322895526886,0
52,100,0.6818181818181818,351,0,17,DL_Remix_emotional_folk_Guitar,6,11,DL_Remix_emotional_folk_Guitar,0.27058568596839905,0
61,100,0.7,660,1,17,DL_Remix_emotional_folk_Guitar,6,11,DL_Remix_emotional_folk_Guitar,0.3579290211200714,0
54,100,0.2409090909090909,92,1,18,DL_Remix_emotional_folk_Guitar,6,4,DL_Remix_emotional_folk_Guitar,0.9988439083099365,1
54,100,0.1409090909090909,154,0,18,DL_Remix_emotional_folk_Guitar,6,2,DL_Remix_emotional_folk_Guitar,0.13797862827777863,0
64,100,0.35909090909090907,395,1,18,DL_Remix_emotional_folk_Guitar,6,6,DL_Remix_emotional_folk_Guitar,0.16236373782157898,0
63,100,0.1409090909090909,515,0,18,DL_Remix_emotional_folk_Guitar,6,2,DL_Remix_emotional_folk_Guitar,0.1910509616136551,0
52,100,0.7,708,0,18,DL_Remix_emotional_folk_Guitar,6,11,DL_Remix_emotional_folk_Guitar,0.2619639039039612,0
57,100,0.2818181818181818,0,1,19,DL_Remix_emotional_folk_Guitar,6,5,DL_Remix_emotional_folk_Guitar,0.9983231425285339,1
64,100,0.5590909090909091,140,0,19,DL_Remix_emotional_folk_Guitar,6,9,DL_Remix_emotional_folk_Guitar,0.5462163090705872,1
59,100,0.2,351,1,20,DL_Remix_emotional_folk_Guitar,6,3,DL_Remix_emotional_folk_Guitar,0.9990094900131226,1
64,100,0.2590909090909091,492,0,20,DL_Remix_emotional_folk_Guitar,6,4,DL_Remix_emotional_folk_Guitar,0.23323504626750946,0
64,100,0.1590909090909091,650,0,20,DL_Remix_emotional_folk_Guitar,6,3,DL_Remix_emotional_folk_Guitar,0.2705910801887512,0
59,100,0.17727272727272728,831,0,20,DL_Remix_emotional_folk_Guitar,6,3,DL_Remix_emotional_folk_Guitar,0.35793739557266235,0
59,100,0.33636363636363636,106,1,21,DL_Remix_emotional_folk_Guitar,6,5,DL_Remix_emotional_folk_Guitar,0.9983232617378235,1
59,100,0.2818181818181818,708,1,21,DL_Remix_emotional_folk_Guitar,6,5,DL_Remix_emotional_folk_Guitar,0.5462142825126648,1
54,100,0.1,457,1,22,DL_Remix_emotional_folk_Guitar,6,2,DL_Remix_emotional_folk_Guitar,0.9986507296562195,1
66,100,0.2590909090909091,480,0,22,DL_Remix_emotional_folk_Guitar,6,4,DL_Remix_emotional_folk_Guitar,0.08797889947891235,0
59,100,0.18181818181818182,540,0,22,DL_Remix_emotional_folk_Guitar,6,3,DL_Remix_emotional_folk_Guitar,0.0929831862449646,0
66,100,0.2,625,0,22,DL_Remix_emotional_folk_Guitar,6,3,DL_Remix_emotional_folk_Guitar,0.10994650423526764,0
66,100,0.11818181818181818,704,0,22,DL_Remix_emotional_folk_Guitar,6,2,DL_Remix_emotional_folk_Guitar,0.12866860628128052,0
52,100,0.4590909090909091,791,0,22,DL_Remix_emotional_folk_Guitar,6,7,DL_Remix_emotional_folk_Guitar,0.18221613764762878,0
52,100,0.2,44,1,23,DL_Remix_emotional_folk_Guitar,6,3,DL_Remix_emotional_folk_Guitar,0.9986507296562195,1
57,100,0.7227272727272728,113,0,23,DL_Remix_emotional_folk_Guitar,6,12,DL_Remix_emotional_folk_Guitar,0.08797930926084518,0
64,100,0.2818181818181818,505,1,23,DL_Remix_emotional_folk_Guitar,6,5,DL_Remix_emotional_folk_Guitar,0.09298770129680634,0
57,100,0.16363636363636364,663,0,23,DL_Remix_emotional_folk_Guitar,6,3,DL_Remix_emotional_folk_Guitar,0.10995252430438995,0
57,100,0.3,717,0,23,DL_Remix_emotional_folk_Guitar,6,5,DL_Remix_emotional_folk_Guitar,0.1286741942167282,0
64,100,0.6590909090909091,822,0,23,DL_Remix_emotional_folk_Guitar,6,11,DL_Remix_emotional_folk_Guitar,0.18222419917583466,0
59,100,0.13636363636363635,106,1,24,DL_Remix_emotional_folk_Guitar,6,2,DL_Remix_emotional_folk_Guitar,0.9990280866622925,1
59,100,0.11818181818181818,303,0,24,DL_Remix_emotional_folk_Guitar,6,2,DL_Remix_emotional_folk_Guitar,0.3703329265117645,0
64,100,1.0772727272727274,700,1,24,DL_Remix_emotional_folk_Guitar,6,15,DL_Remix_emotional_folk_Guitar,0.45617228746414185,0
59,100,0.13636363636363635,260,1,25,DL_Remix_emotional_folk_Guitar,6,2,DL_Remix_emotional_folk_Guitar,0.9990094900131226,1
64,100,0.7181818181818181,308,0,25,DL_Remix_emotional_folk_Guitar,6,11,DL_Remix_emotional_folk_Guitar,0.23323145508766174,0
57,100,0.1,646,1,25,DL_Remix_emotional_folk_Guitar,6,2,DL_Remix_emotional_folk_Guitar,0.27058008313179016,0
64,100,0.35909090909090907,673,0,25,DL_Remix_emotional_folk_Guitar,6,6,DL_Remix_emotional_folk_Guitar,0.3579384386539459,0
64,100,0.1409090909090909,343,1,26,DL_Remix_emotional_folk_Guitar,6,2,DL_Remix_emotional_folk_Guitar,0.9986506104469299,1
59,100,0.3409090909090909,497,0,26,DL_Remix_emotional_folk_Guitar,6,5,DL_Remix_emotional_folk_Guitar,0.08797965198755264,0
54,100,0.18181818181818182,660,0,26,DL_Remix_emotional_folk_Guitar,6,3,DL_Remix_emotional_folk_Guitar,0.09298385679721832,0
66,100,0.1409090909090909,739,0,26,DL_Remix_emotional_folk_Guitar,6,2,DL_Remix_emotional_folk_Guitar,0.10994944721460342,0
66,100,0.12272727272727273,773,0,26,DL_Remix_emotional_folk_Guitar,6,2,DL_Remix_emotional_folk_Guitar,0.12867099046707153,0
66,100,0.3,804,0,26,DL_Remix_emotional_folk_Guitar,6,5,DL_Remix_emotional_folk_Guitar,0.18222004175186157,0
52,100,0.3181818181818182,17,1,27,DL_Remix_emotional_folk_Guitar,6,5,DL_Remix_emotional_folk_Guitar,0.9990280866622925,1
56,100,0.1409090909090909,268,1,27,DL_Remix_emotional_folk_Guitar,6,2,DL_Remix_emotional_folk_Guitar,0.3703334331512451,0
54,100,0.1,870,1,27,DL_Remix_emotional_folk_Guitar,6,2,DL_Remix_emotional_folk_Guitar,0.4561740756034851,0
56,100,0.2409090909090909,88,1,28,DL_Remix_emotional_folk_Guitar,6,4,DL_Remix_emotional_folk_Guitar,0.9983231425285339,1
61,100,0.2,378,1,28,DL_Remix_emotional_folk_Guitar,6,3,DL_Remix_emotional_folk_Guitar,0.5462108254432678,1
59,100,0.3409090909090909,52,1,29,DL_Remix_emotional_folk_Guitar,6,5,DL_Remix_emotional_folk_Guitar,0.9990094900131226,1
63,100,0.3,360,1,29,DL_Remix_emotional_folk_Guitar,6,5,DL_Remix_emotional_folk_Guitar,0.2332344651222229,0
63,100,0.3,656,1,29,DL_Remix_emotional_folk_Guitar,6,5,DL_Remix_emotional_folk_Guitar,0.2706005275249481,0
56,100,0.1409090909090909,752,0,29,DL_Remix_emotional_folk_Guitar,6,2,DL_Remix_emotional_folk_Guitar,0.35792797803878784,0
59,100,0.17727272727272728,30,1,30,DL_Remix_emotional_folk_Guitar,6,3,DL_Remix_emotional_folk_Guitar,0.9986507296562195,1
57,100,0.21818181818181817,206,0,30,DL_Remix_emotional_folk_Guitar,6,3,DL_Remix_emotional_folk_Guitar,0.08798321336507797,0
57,100,0.1590909090909091,264,0,30,DL_Remix_emotional_folk_Guitar,6,3,DL_Remix_emotional_folk_Guitar,0.09298888593912125,0
57,100,0.3181818181818182,505,1,30,DL_Remix_emotional_folk_Guitar,6,5,DL_Remix_emotional_folk_Guitar,0.10995667427778244,0
57,100,0.2,646,0,30,DL_Remix_emotional_folk_Guitar,6,3,DL_Remix_emotional_folk_Guitar,0.12867863476276398,0
57,100,0.7818181818181819,804,0,30,DL_Remix_emotional_folk_Guitar,6,13,DL_Remix_emotional_folk_Guitar,0.18222664296627045,0
57,100,0.1,193,1,31,DL_Remix_emotional_folk_Guitar,6,2,DL_Remix_emotional_folk_Guitar,0.9983231425285339,1
57,100,0.21818181818181817,241,0,31,DL_Remix_emotional_folk_Guitar,6,3,DL_Remix_emotional_folk_Guitar,0.5462181568145752,1
54,100,0.1,201,1,32,DL_Remix_emotional_folk_Guitar,6,2,DL_Remix_emotional_folk_Guitar,0.9983232617378235,1
63,100,0.2,531,1,32,DL_Remix_emotional_folk_Guitar,6,3,DL_Remix_emotional_folk_Guitar,0.5462118983268738,1
57,100,0.2409090909090909,228,1,33,DL_Remix_emotional_folk_Guitar,6,4,DL_Remix_emotional_folk_Guitar,0.9986506104469299,1
57,100,0.6181818181818182,426,0,33,DL_Remix_emotional_folk_Guitar,6,10,DL_Remix_emotional_folk_Guitar,0.08798228949308395,0
64,100,0.5,584,0,33,DL_Remix_emotional_folk_Guitar,6,8,DL_Remix_emotional_folk_Guitar,0.0929890125989914,0
64,100,0.2590909090909091,716,0,33,DL_Remix_emotional_folk_Guitar,6,4,DL_Remix_emotional_folk_Guitar,0.10995445400476456,0
59,100,0.22272727272727272,774,0,33,DL_Remix_emotional_folk_Guitar,6,4,DL_Remix_emotional_folk_Guitar,0.12868157029151917,0
64,100,0.5818181818181818,826,0,33,DL_Remix_emotional_folk_Guitar,6,9,DL_Remix_emotional_folk_Guitar,0.18223059177398682,0
52,100,0.2,110,1,34,DL_Remix_emotional_folk_Guitar,6,3,DL_Remix_emotional_folk_Guitar,0.9983004927635193,1
52,100,0.22272727272727272,158,0,34,DL_Remix_emotional_folk_Guitar,6,4,DL_Remix_emotional_folk_Guitar,0.04466196894645691,0
59,100,0.11818181818181818,295,0,34,DL_Remix_emotional_folk_Guitar,6,2,DL_Remix_emotional_folk_Guitar,0.033371586352586746,0
52,100,0.12272727272727273,378,0,34,DL_Remix_emotional_folk_Guitar,6,2,DL_Remix_emotional_folk_Guitar,0.026948055252432823,0
52,100,0.1409090909090909,418,0,34,DL_Remix_emotional_folk_Guitar,6,2,DL_Remix_emotional_folk_Guitar,0.024084147065877914,0
59,100,0.4,461,0,34,DL_Remix_emotional_folk_Guitar,6,6,DL_Remix_emotional_folk_Guitar,0.02497280202805996,0
59,100,0.3181818181818182,681,0,34,DL_Remix_emotional_folk_Guitar,6,5,DL_Remix_emotional_folk_Guitar,0.030647825449705124,0
59,100,0.1590909090909091,765,0,34,DL_Remix_emotional_folk_Guitar,6,3,DL_Remix_emotional_folk_Guitar,0.04136902093887329,0
52,100,0.2590909090909091,801,0,34,DL_Remix_emotional_folk_Guitar,6,4,DL_Remix_emotional_folk_Guitar,0.07206935435533524,0
52,100,0.4590909090909091,40,1,35,DL_Remix_emotional_folk_Guitar,6,7,DL_Remix_emotional_folk_Guitar,0.9984880685806274,1
64,100,0.13636363636363635,150,0,35,DL_Remix_emotional_folk_Guitar,6,2,DL_Remix_emotional_folk_Guitar,0.06335383653640747,0
64,100,0.18181818181818182,321,0,35,DL_Remix_emotional_folk_Guitar,6,3,DL_Remix_emotional_folk_Guitar,0.058288976550102234,0
64,100,0.1409090909090909,440,0,35,DL_Remix_emotional_folk_Guitar,6,2,DL_Remix_emotional_folk_Guitar,0.06136399880051613,0
52,100,0.1409090909090909,471,0,35,DL_Remix_emotional_folk_Guitar,6,2,DL_Remix_emotional_folk_Guitar,0.07168383151292801,0
59,100,0.1409090909090909,664,0,35,DL_Remix_emotional_folk_Guitar,6,2,DL_Remix_emotional_folk_Guitar,0.08473967760801315,0
59,100,0.3181818181818182,743,0,35,DL_Remix_emotional_folk_Guitar,6,5,DL_Remix_emotional_folk_Guitar,0.1263534128665924,0
64,100,0.13636363636363635,150,1,36,DL_Remix_emotional_folk_Guitar,6,2,DL_Remix_emotional_folk_Guitar,0.9986506104469299,1
59,100,0.12272727272727273,399,1,36,DL_Remix_emotional_folk_Guitar,6,2,DL_Remix_emotional_folk_Guitar,0.08798011392354965,0
59,100,0.3,496,0,36,DL_Remix_emotional_folk_Guitar,6,5,DL_Remix_emotional_folk_Guitar,0.09298241883516312,0
60,100,0.17727272727272728,603,0,36,DL_Remix_emotional_folk_Guitar,6,3,DL_Remix_emotional_folk_Guitar,0.10994748771190643,0
60,100,0.2590909090909091,668,0,36,DL_Remix_emotional_folk_Guitar,6,4,DL_Remix_emotional_folk_Guitar,0.1286674439907074,0
61,100,0.1409090909090909,866,0,36,DL_Remix_emotional_folk_Guitar,6,2,DL_Remix_emotional_folk_Guitar,0.18221412599086761,0
61,100,0.3,144,1,37,DL_Remix_emotional_folk_Guitar,6,5,DL_Remix_emotional_folk_Guitar,0.979223370552063,1
66,100,0.1590909090909091,34,1,38,DL_Remix_emotional_folk_Guitar,6,3,DL_Remix_emotional_folk_Guitar,0.9988440275192261,1
66,100,0.1590909090909091,150,0,38,DL_Remix_emotional_folk_Guitar,6,3,DL_Remix_emotional_folk_Guitar,0.13798139989376068,0
66,100,0.1590909090909091,241,0,38,DL_Remix_emotional_folk_Guitar,6,3,DL_Remix_emotional_folk_Guitar,0.16236576437950134,0
63,100,0.21818181818181817,461,0,38,DL_Remix_emotional_folk_Guitar,6,3,DL_Remix_emotional_folk_Guitar,0.19105148315429688,0
63,100,0.32272727272727275,598,0,38,DL_Remix_emotional_folk_Guitar,6,5,DL_Remix_emotional_folk_Guitar,0.261968195438385,0
56,100,0.4,241,1,39,DL_Remix_emotional_folk_Guitar,6,6,DL_Remix_emotional_folk_Guitar,0.9988439083099365,1
56,100,0.1,373,0,39,DL_Remix_emotional_folk_Guitar,6,2,DL_Remix_emotional_folk_Guitar,0.13798408210277557,0
56,100,1.0227272727272727,399,0,39,DL_Remix_emotional_folk_Guitar,6,15,DL_Remix_emotional_folk_Guitar,0.16235724091529846,0
57,100,0.1590909090909091,735,1,39,DL_Remix_emotional_folk_Guitar,6,3,DL_Remix_emotional_folk_Guitar,0.19105015695095062,0
57,100,0.3409090909090909,866,0,39,DL_Remix_emotional_folk_Guitar,6,5,DL_Remix_emotional_folk_Guitar,0.2619541883468628,0
57,100,0.4590909090909091,150,1,40,DL_Remix_emotional_folk_Guitar,6,7,DL_Remix_emotional_folk_Guitar,0.9984880685806274,1
57,100,0.12272727272727273,268,0,40,DL_Remix_emotional_folk_Guitar,6,2,DL_Remix_emotional_folk_Guitar,0.06335505098104477,0
64,100,0.7181818181818181,303,0,40,DL_Remix_emotional_folk_Guitar,6,11,DL_Remix_emotional_folk_Guitar,0.05829077214002609,0
64,100,0.3409090909090909,576,1,40,DL_Remix_emotional_folk_Guitar,6,5,DL_Remix_emotional_folk_Guitar,0.06136729568243027,0
57,100,0.5590909090909091,651,0,40,DL_Remix_emotional_folk_Guitar,6,9,DL_Remix_emotional_folk_Guitar,0.07168659567832947,0
52,100,0.2590909090909091,778,0,40,DL_Remix_emotional_folk_Guitar,6,4,DL_Remix_emotional_folk_Guitar,0.08474332094192505,0
57,100,0.37727272727272726,845,0,40,DL_Remix_emotional_folk_Guitar,6,6,DL_Remix_emotional_folk_Guitar,0.1263531744480133,0
57,100,0.2,61,1,41,DL_Remix_emotional_folk_Guitar,6,3,DL_Remix_emotional_folk_Guitar,0.9983736276626587,1
57,100,0.3,123,0,41,DL_Remix_emotional_folk_Guitar,6,5,DL_Remix_emotional_folk_Guitar,0.05105026811361313,0
59,100,0.18181818181818182,241,0,41,DL_Remix_emotional_folk_Guitar,6,3,DL_Remix_emotional_folk_Guitar,0.04161430150270462,0
59,100,0.7363636363636363,348,0,41,DL_Remix_emotional_folk_Guitar,6,12,DL_Remix_emotional_folk_Guitar,0.037980817258358,0
64,100,0.3181818181818182,616,1,41,DL_Remix_emotional_folk_Guitar,6,5,DL_Remix_emotional_folk_Guitar,0.03926064074039459,0
52,100,0.11818181818181818,713,0,41,DL_Remix_emotional_folk_Guitar,6,2,DL_Remix_emotional_folk_Guitar,0.04616764560341835,0
64,100,0.22272727272727272,738,0,41,DL_Remix_emotional_folk_Guitar,6,4,DL_Remix_emotional_folk_Guitar,0.05713190883398056,0
52,100,0.4,796,0,41,DL_Remix_emotional_folk_Guitar,6,6,DL_Remix_emotional_folk_Guitar,0.09188318997621536,0
64,100,0.3,4,1,42,DL_Remix_emotional_folk_Guitar,6,5,DL_Remix_emotional_folk_Guitar,0.9983004927635193,1
52,100,0.21818181818181817,75,0,42,DL_Remix_emotional_folk_Guitar,6,3,DL_Remix_emotional_folk_Guitar,0.044662199914455414,0
64,100,0.3,163,0,42,DL_Remix_emotional_folk_Guitar,6,5,DL_Remix_emotional_folk_Guitar,0.033372391015291214,0
52,100,0.42272727272727273,254,0,42,DL_Remix_emotional_folk_Guitar,6,7,DL_Remix_emotional_folk_Guitar,0.026949480175971985,0
52,100,0.1590909090909091,351,0,42,DL_Remix_emotional_folk_Guitar,6,3,DL_Remix_emotional_folk_Guitar,0.024085067212581635,0
52,100,0.759090909090909,396,0,42,DL_Remix_emotional_folk_Guitar,6,12,DL_Remix_emotional_folk_Guitar,0.024974439293146133,0
57,100,0.1409090909090909,571,0,42,DL_Remix_emotional_folk_Guitar,6,2,DL_Remix_emotional_folk_Guitar,0.030649710446596146,0
61,100,0.2818181818181818,791,0,42,DL_Remix_emotional_folk_Guitar,6,5,DL_Remix_emotional_folk_Guitar,0.04137193039059639,0
54,100,0.11818181818181818,858,0,42,DL_Remix_emotional_folk_Guitar,6,2,DL_Remix_emotional_folk_Guitar,0.07207479327917099,0
54,100,0.2,18,1,43,DL_Remix_emotional_folk_Guitar,6,3,DL_Remix_emotional_folk_Guitar,0.9986506104469299,1
54,100,0.2,91,0,43,DL_Remix_emotional_folk_Guitar,6,3,DL_Remix_emotional_folk_Guitar,0.08797922730445862,0
54,100,1.7772727272727273,141,0,43,DL_Remix_emotional_folk_Guitar,6,15,DL_Remix_emotional_folk_Guitar,0.09298181533813477,0
54,100,0.13636363636363635,590,1,43,DL_Remix_emotional_folk_Guitar,6,2,DL_Remix_emotional_folk_Guitar,0.1099482849240303,0
66,100,0.2818181818181818,619,0,43,DL_Remix_emotional_folk_Guitar,6,5,DL_Remix_emotional_folk_Guitar,0.12866559624671936,0
54,100,0.1409090909090909,726,0,43,DL_Remix_emotional_folk_Guitar,6,2,DL_Remix_emotional_folk_Guitar,0.18221165239810944,0
52,100,0.1409090909090909,43,1,44,DL_Remix_emotional_folk_Guitar,6,2,DL_Remix_emotional_folk_Guitar,0.9988439083099365,1
64,100,0.2590909090909091,351,1,44,DL_Remix_emotional_folk_Guitar,6,4,DL_Remix_emotional_folk_Guitar,0.13798381388187408,0
57,100,0.4,418,0,44,DL_Remix_emotional_folk_Guitar,6,6,DL_Remix_emotional_folk_Guitar,0.16236741840839386,0
66,100,0.2,729,1,44,DL_Remix_emotional_folk_Guitar,6,3,DL_Remix_emotional_folk_Guitar,0.19106630980968475,0
66,100,0.11818181818181818,831,0,44,DL_Remix_emotional_folk_Guitar,6,2,DL_Remix_emotional_folk_Guitar,0.2619708776473999,0
66,100,0.11818181818181818,43,1,45,DL_Remix_emotional_folk_Guitar,6,2,DL_Remix_emotional_folk_Guitar,0.9990094900131226,1
64,100,0.6409090909090909,431,1,45,DL_Remix_emotional_folk_Guitar,6,10,DL_Remix_emotional_folk_Guitar,0.23322884738445282,0
59,100,0.5590909090909091,628,0,45,DL_Remix_emotional_folk_Guitar,6,9,DL_Remix_emotional_folk_Guitar,0.270579993724823,0
64,100,0.8,861,1,45,DL_Remix_emotional_folk_Guitar,6,13,DL_Remix_emotional_folk_Guitar,0.35792919993400574,0
64,100,0.37727272727272726,193,1,46,DL_Remix_emotional_folk_Guitar,6,6,DL_Remix_emotional_folk_Guitar,0.9990094900131226,1
59,100,0.7,289,0,46,DL_Remix_emotional_folk_Guitar,6,11,DL_Remix_emotional_folk_Guitar,0.2332313507795334,0
64,100,1.3181818181818181,448,0,46,DL_Remix_emotional_folk_Guitar,6,15,DL_Remix_emotional_folk_Guitar,0.27058300375938416,0
52,100,0.11818181818181818,831,1,46,DL_Remix_emotional_folk_Guitar,6,2,DL_Remix_emotional_folk_Guitar,0.3579348623752594,0
57,100,0.5818181818181818,373,1,47,DL_Remix_emotional_folk_Guitar,6,9,DL_Remix_emotional_folk_Guitar,0.979223906993866,1
54,100,0.1590909090909091,198,1,48,DL_Remix_emotional_folk_Guitar,6,3,DL_Remix_emotional_folk_Guitar,0.9990094900131226,1
63,100,0.12272727272727273,298,0,48,DL_Remix_emotional_folk_Guitar,6,2,DL_Remix_emotional_folk_Guitar,0.2332262247800827,0
63,100,0.5590909090909091,523,0,48,DL_Remix_emotional_folk_Guitar,6,9,DL_Remix_emotional_folk_Guitar,0.2705816626548767,0
54,100,0.1590909090909091,703,0,48,DL_Remix_emotional_folk_Guitar,6,3,DL_Remix_emotional_folk_Guitar,0.3579404652118683,0
59,100,0.4,118,1,49,DL_Remix_emotional_folk_Guitar,6,6,DL_Remix_emotional_folk_Guitar,0.9990280866622925,1
59,100,0.11818181818181818,260,0,49,DL_Remix_emotional_folk_Guitar,6,2,DL_Remix_emotional_folk_Guitar,0.3703424632549286,0
54,100,0.2409090909090909,295,0,49,DL_Remix_emotional_folk_Guitar,6,4,DL_Remix_emotional_folk_Guitar,0.45617204904556274,0
56,100,0.2,83,1,50,DL_Remix_emotional_folk_Guitar,6,3,DL_Remix_emotional_folk_Guitar,0.9990280866622925,1
56,100,0.5590909090909091,515,1,50,DL_Remix_emotional_folk_Guitar,6,9,DL_Remix_emotional_folk_Guitar,0.3703434467315674,0
56,100,0.759090909090909,700,0,50,DL_Remix_emotional_folk_Guitar,6,12,DL_Remix_emotional_folk_Guitar,0.456163614988327,0
59,100,0.2636363636363636,378,1,53,DL_Remix_emotional_folk_Guitar,6,4,DL_Remix_emotional_folk_Guitar,0.9990280866622925,1
59,100,0.1409090909090909,440,0,53,DL_Remix_emotional_folk_Guitar,6,2,DL_Remix_emotional_folk_Guitar,0.3703478276729584,0
57,100,0.6409090909090909,506,0,53,DL_Remix_emotional_folk_Guitar,6,10,DL_Remix_emotional_folk_Guitar,0.4561614394187927,0
63,100,0.11818181818181818,440,1,54,DL_Remix_emotional_folk_Guitar,6,2,DL_Remix_emotional_folk_Guitar,0.9983232617378235,1
57,100,0.2409090909090909,584,0,54,DL_Remix_emotional_folk_Guitar,6,4,DL_Remix_emotional_folk_Guitar,0.5462276935577393,1
57,100,0.6818181818181818,0,1,55,DL_Remix_emotional_folk_Guitar,6,11,DL_Remix_emotional_folk_Guitar,0.9986506104469299,1
64,100,0.7,163,0,55,DL_Remix_emotional_folk_Guitar,6,11,DL_Remix_emotional_folk_Guitar,0.08798160403966904,0
64,100,0.5181818181818182,483,1,55,DL_Remix_emotional_folk_Guitar,6,8,DL_Remix_emotional_folk_Guitar,0.09298907220363617,0
52,100,0.11818181818181818,616,0,55,DL_Remix_emotional_folk_Guitar,6,2,DL_Remix_emotional_folk_Guitar,0.10995600372552872,0
57,100,0.11818181818181818,646,0,55,DL_Remix_emotional_folk_Guitar,6,2,DL_Remix_emotional_folk_Guitar,0.12867844104766846,0
57,100,0.5,729,0,55,DL_Remix_emotional_folk_Guitar,6,8,DL_Remix_emotional_folk_Guitar,0.1822355091571808,0
59,100,0.12272727272727273,233,1,56,DL_Remix_emotional_folk_Guitar,6,2,DL_Remix_emotional_folk_Guitar,0.9983232617378235,1
59,100,0.11818181818181818,330,0,56,DL_Remix_emotional_folk_Guitar,6,2,DL_Remix_emotional_folk_Guitar,0.5462174415588379,1
64,100,0.2818181818181818,0,1,57,DL_Remix_emotional_folk_Guitar,6,5,DL_Remix_emotional_folk_Guitar,0.9983735084533691,1
64,100,0.8,118,0,57,DL_Remix_emotional_folk_Guitar,6,13,DL_Remix_emotional_folk_Guitar,0.0510500892996788,0
76,100,0.1590909090909091,295,0,57,DL_Remix_emotional_folk_Guitar,6,3,DL_Remix_emotional_folk_Guitar,0.04161342605948448,0
52,100,0.2636363636363636,334,0,57,DL_Remix_emotional_folk_Guitar,6,4,DL_Remix_emotional_folk_Guitar,0.03798128664493561,0
52,100,0.6,405,0,57,DL_Remix_emotional_folk_Guitar,6,10,DL_Remix_emotional_folk_Guitar,0.03926229476928711,0
64,100,0.33636363636363636,611,0,57,DL_Remix_emotional_folk_Guitar,6,5,DL_Remix_emotional_folk_Guitar,0.046167660504579544,0
52,100,0.21818181818181817,721,0,57,DL_Remix_emotional_folk_Guitar,6,3,DL_Remix_emotional_folk_Guitar,0.05713583901524544,0
52,100,0.1409090909090909,796,0,57,DL_Remix_emotional_folk_Guitar,6,2,DL_Remix_emotional_folk_Guitar,0.09188458323478699,0
59,100,0.21818181818181817,75,1,58,DL_Remix_emotional_folk_Guitar,6,3,DL_Remix_emotional_folk_Guitar,0.9986506104469299,1
54,100,0.1590909090909091,298,0,58,DL_Remix_emotional_folk_Guitar,6,3,DL_Remix_emotional_folk_Guitar,0.08797968924045563,0
64,100,0.2818181818181818,386,0,58,DL_Remix_emotional_folk_Guitar,6,5,DL_Remix_emotional_folk_Guitar,0.09298475086688995,0
52,100,0.35909090909090907,483,0,58,DL_Remix_emotional_folk_Guitar,6,6,DL_Remix_emotional_folk_Guitar,0.10994993150234222,0
64,100,0.33636363636363636,678,0,58,DL_Remix_emotional_folk_Guitar,6,5,DL_Remix_emotional_folk_Guitar,0.12867297232151031,0
61,100,0.11818181818181818,813,0,58,DL_Remix_emotional_folk_Guitar,6,2,DL_Remix_emotional_folk_Guitar,0.18222327530384064,0
66,100,0.12272727272727273,598,1,59,DL_Remix_emotional_folk_Guitar,6,2,DL_Remix_emotional_folk_Guitar,0.9792248606681824,1
59,100,0.4590909090909091,144,1,60,DL_Remix_emotional_folk_Guitar,6,7,DL_Remix_emotional_folk_Guitar,0.9988439083099365,1
59,100,0.2590909090909091,493,1,60,DL_Remix_emotional_folk_Guitar,6,4,DL_Remix_emotional_folk_Guitar,0.1379801630973816,0
59,100,0.3,633,0,60,DL_Remix_emotional_folk_Guitar,6,5,DL_Remix_emotional_folk_Guitar,0.1623634397983551,0
64,100,0.1409090909090909,708,0,60,DL_Remix_emotional_folk_Guitar,6,2,DL_Remix_emotional_folk_Guitar,0.19105520844459534,0
64,100,0.17727272727272728,801,0,60,DL_Remix_emotional_folk_Guitar,6,3,DL_Remix_emotional_folk_Guitar,0.2619672417640686,0
52,100,0.1590909090909091,40,1,61,DL_Remix_emotional_folk_Guitar,6,3,DL_Remix_emotional_folk_Guitar,0.9990094900131226,1
66,100,0.2818181818181818,466,1,61,DL_Remix_emotional_folk_Guitar,6,5,DL_Remix_emotional_folk_Guitar,0.23323304951190948,0
66,100,0.12272727272727273,576,0,61,DL_Remix_emotional_folk_Guitar,6,2,DL_Remix_emotional_folk_Guitar,0.270589143037796,0
61,100,0.42272727272727273,738,0,61,DL_Remix_emotional_folk_Guitar,6,7,DL_Remix_emotional_folk_Guitar,0.3579216003417969,0
57,100,0.41818181818181815,43,1,62,DL_Remix_emotional_folk_Guitar,6,7,DL_Remix_emotional_folk_Guitar,0.9990094900131226,1
61,100,0.2818181818181818,408,1,62,DL_Remix_emotional_folk_Guitar,6,5,DL_Remix_emotional_folk_Guitar,0.2332383096218109,0
64,100,0.1409090909090909,668,1,62,DL_Remix_emotional_folk_Guitar,6,2,DL_Remix_emotional_folk_Guitar,0.27058711647987366,0
57,100,0.2,788,0,62,DL_Remix_emotional_folk_Guitar,6,3,DL_Remix_emotional_folk_Guitar,0.3579303026199341,0
76,100,1.3590909090909091,145,1,64,DL_Remix_emotional_folk_Guitar,6,15,DL_Remix_emotional_folk_Guitar,0.9990280866622925,1
52,100,1.3227272727272728,453,1,64,DL_Remix_emotional_folk_Guitar,6,15,DL_Remix_emotional_folk_Guitar,0.37033697962760925,0
52,100,0.11818181818181818,792,1,64,DL_Remix_emotional_folk_Guitar,6,2,DL_Remix_emotional_folk_Guitar,0.45617711544036865,0
59,100,0.6227272727272727,333,1,65,DL_Remix_emotional_folk_Guitar,6,10,DL_Remix_emotional_folk_Guitar,0.9990094900131226,1
52,100,0.12272727272727273,540,0,65,DL_Remix_emotional_folk_Guitar,6,2,DL_Remix_emotional_folk_Guitar,0.23322980105876923,0
52,100,0.38181818181818183,663,0,65,DL_Remix_emotional_folk_Guitar,6,6,DL_Remix_emotional_folk_Guitar,0.2705734372138977,0
64,100,0.1590909090909091,832,0,65,DL_Remix_emotional_folk_Guitar,6,3,DL_Remix_emotional_folk_Guitar,0.3579310178756714,0
59,100,0.2818181818181818,430,1,66,DL_Remix_emotional_folk_Guitar,6,5,DL_Remix_emotional_folk_Guitar,0.9792236089706421,1
64,100,0.1,360,1,67,DL_Remix_emotional_folk_Guitar,6,2,DL_Remix_emotional_folk_Guitar,0.9990094900131226,1
61,100,0.3,383,0,67,DL_Remix_emotional_folk_Guitar,6,5,DL_Remix_emotional_folk_Guitar,0.23322762548923492,0
61,100,0.18181818181818182,519,0,67,DL_Remix_emotional_folk_Guitar,6,3,DL_Remix_emotional_folk_Guitar,0.2705850899219513,0
61,100,0.2818181818181818,642,0,67,DL_Remix_emotional_folk_Guitar,6,5,DL_Remix_emotional_folk_Guitar,0.3579285442829132,0
61,100,0.21818181818181817,612,1,68,DL_Remix_emotional_folk_Guitar,6,3,DL_Remix_emotional_folk_Guitar,0.9983231425285339,1
56,100,0.35909090909090907,844,1,68,DL_Remix_emotional_folk_Guitar,6,6,DL_Remix_emotional_folk_Guitar,0.5462102890014648,1
59,100,0.8590909090909091,110,1,69,DL_Remix_emotional_folk_Guitar,6,14,DL_Remix_emotional_folk_Guitar,0.9988439083099365,1
59,100,0.1,443,1,69,DL_Remix_emotional_folk_Guitar,6,2,DL_Remix_emotional_folk_Guitar,0.1379822939634323,0
56,100,0.12272727272727273,585,0,69,DL_Remix_emotional_folk_Guitar,6,2,DL_Remix_emotional_folk_Guitar,0.16235820949077606,0
59,100,0.8227272727272728,695,0,69,DL_Remix_emotional_folk_Guitar,6,13,DL_Remix_emotional_folk_Guitar,0.1910589337348938,0
63,100,0.21818181818181817,876,0,69,DL_Remix_emotional_folk_Guitar,6,3,DL_Remix_emotional_folk_Guitar,0.26196205615997314,0
63,100,0.12272727272727273,56,1,70,DL_Remix_emotional_folk_Guitar,6,2,DL_Remix_emotional_folk_Guitar,0.9988439083099365,1
64,100,0.17727272727272728,83,0,70,DL_Remix_emotional_folk_Guitar,6,3,DL_Remix_emotional_folk_Guitar,0.137985497713089,0
64,100,0.42272727272727273,386,1,70,DL_Remix_emotional_folk_Guitar,6,7,DL_Remix_emotional_folk_Guitar,0.16237004101276398,0
57,100,0.11818181818181818,536,0,70,DL_Remix_emotional_folk_Guitar,6,2,DL_Remix_emotional_folk_Guitar,0.19106391072273254,0
64,100,0.8181818181818182,580,0,70,DL_Remix_emotional_folk_Guitar,6,13,DL_Remix_emotional_folk_Guitar,0.261976420879364,0
57,100,0.4590909090909091,127,1,71,DL_Remix_emotional_folk_Guitar,6,7,DL_Remix_emotional_folk_Guitar,0.9990280866622925,1
64,100,0.16363636363636364,729,1,71,DL_Remix_emotional_folk_Guitar,6,3,DL_Remix_emotional_folk_Guitar,0.3703463077545166,0
64,100,0.1,832,0,71,DL_Remix_emotional_folk_Guitar,6,2,DL_Remix_emotional_folk_Guitar,0.45617660880088806,0
59,100,0.2636363636363636,179,1,72,DL_Remix_emotional_folk_Guitar,6,4,DL_Remix_emotional_folk_Guitar,0.9986506104469299,1
59,100,1.1590909090909092,260,0,72,DL_Remix_emotional_folk_Guitar,6,15,DL_Remix_emotional_folk_Guitar,0.08797578513622284,0
59,100,0.43636363636363634,567,1,72,DL_Remix_emotional_folk_Guitar,6,7,DL_Remix_emotional_folk_Guitar,0.09298213571310043,0
64,100,0.1409090909090909,663,0,72,DL_Remix_emotional_folk_Guitar,6,2,DL_Remix_emotional_folk_Guitar,0.10994601994752884,0
59,100,0.21818181818181817,726,0,72,DL_Remix_emotional_folk_Guitar,6,3,DL_Remix_emotional_folk_Guitar,0.12866778671741486,0
66,100,0.11818181818181818,823,0,72,DL_Remix_emotional_folk_Guitar,6,2,DL_Remix_emotional_folk_Guitar,0.18221932649612427,0
54,100,0.41818181818181815,30,1,73,DL_Remix_emotional_folk_Guitar,6,7,DL_Remix_emotional_folk_Guitar,0.9990094900131226,1
54,100,0.2590909090909091,172,0,73,DL_Remix_emotional_folk_Guitar,6,4,DL_Remix_emotional_folk_Guitar,0.2332295924425125,0
54,100,0.1590909090909091,286,0,73,DL_Remix_emotional_folk_Guitar,6,3,DL_Remix_emotional_folk_Guitar,0.27058321237564087,0
66,100,0.22272727272727272,430,0,73,DL_Remix_emotional_folk_Guitar,6,4,DL_Remix_emotional_folk_Guitar,0.35792919993400574,0
61,100,0.17727272727272728,260,1,74,DL_Remix_emotional_folk_Guitar,6,3,DL_Remix_emotional_folk_Guitar,0.9983231425285339,1
64,100,0.1409090909090909,792,1,74,DL_Remix_emotional_folk_Guitar,6,2,DL_Remix_emotional_folk_Guitar,0.546220600605011,1
61,100,0.21818181818181817,30,1,75,DL_Remix_emotional_folk_Guitar,6,3,DL_Remix_emotional_folk_Guitar,0.9983004927635193,1
59,100,0.17727272727272728,250,0,75,DL_Remix_emotional_folk_Guitar,6,3,DL_Remix_emotional_folk_Guitar,0.04466233402490616,0
59,100,0.11818181818181818,303,0,75,DL_Remix_emotional_folk_Guitar,6,2,DL_Remix_emotional_folk_Guitar,0.033371809870004654,0
59,100,0.38181818181818183,333,0,75,DL_Remix_emotional_folk_Guitar,6,6,DL_Remix_emotional_folk_Guitar,0.02694760449230671,0
71,100,0.1409090909090909,487,0,75,DL_Remix_emotional_folk_Guitar,6,2,DL_Remix_emotional_folk_Guitar,0.024084383621811867,0
59,100,0.2409090909090909,563,0,75,DL_Remix_emotional_folk_Guitar,6,4,DL_Remix_emotional_folk_Guitar,0.02497239224612713,0
52,100,0.1590909090909091,722,0,75,DL_Remix_emotional_folk_Guitar,6,3,DL_Remix_emotional_folk_Guitar,0.030648523941636086,0
61,100,0.12272727272727273,783,0,75,DL_Remix_emotional_folk_Guitar,6,2,DL_Remix_emotional_folk_Guitar,0.04136737436056137,0
52,100,0.1,866,0,75,DL_Remix_emotional_folk_Guitar,6,2,DL_Remix_emotional_folk_Guitar,0.07207300513982773,0
52,100,0.3,56,1,76,DL_Remix_emotional_folk_Guitar,6,5,DL_Remix_emotional_folk_Guitar,0.9983735084533691,1
57,100,0.4409090909090909,157,0,76,DL_Remix_emotional_folk_Guitar,6,7,DL_Remix_emotional_folk_Guitar,0.05105032026767731,0
76,100,0.2590909090909091,273,0,76,DL_Remix_emotional_folk_Guitar,6,4,DL_Remix_emotional_folk_Guitar,0.0416145958006382,0
57,100,0.5181818181818182,339,0,76,DL_Remix_emotional_folk_Guitar,6,8,DL_Remix_emotional_folk_Guitar,0.037981707602739334,0
52,100,0.4409090909090909,509,0,76,DL_Remix_emotional_folk_Guitar,6,7,DL_Remix_emotional_folk_Guitar,0.03926292434334755,0
52,100,0.2409090909090909,747,1,76,DL_Remix_emotional_folk_Guitar,6,4,DL_Remix_emotional_folk_Guitar,0.046168334782123566,0
64,100,0.17727272727272728,800,0,76,DL_Remix_emotional_folk_Guitar,6,3,DL_Remix_emotional_folk_Guitar,0.057134922593832016,0
64,100,1.0,849,0,76,DL_Remix_emotional_folk_Guitar,6,15,DL_Remix_emotional_folk_Guitar,0.0918835699558258,0
54,100,0.11818181818181818,193,1,77,DL_Remix_emotional_folk_Guitar,6,2,DL_Remix_emotional_folk_Guitar,0.9988439083099365,1
63,100,0.2409090909090909,255,0,77,DL_Remix_emotional_folk_Guitar,6,4,DL_Remix_emotional_folk_Guitar,0.13798151910305023,0
64,100,0.11818181818181818,480,0,77,DL_Remix_emotional_folk_Guitar,6,2,DL_Remix_emotional_folk_Guitar,0.162367582321167,0
64,100,0.2409090909090909,585,0,77,DL_Remix_emotional_folk_Guitar,6,4,DL_Remix_emotional_folk_Guitar,0.19106225669384003,0
64,100,0.5409090909090909,690,0,77,DL_Remix_emotional_folk_Guitar,6,9,DL_Remix_emotional_folk_Guitar,0.26197129487991333,0
56,100,0.3181818181818182,150,1,78,DL_Remix_emotional_folk_Guitar,6,5,DL_Remix_emotional_folk_Guitar,0.9988439083099365,1
61,100,0.1,307,0,78,DL_Remix_emotional_folk_Guitar,6,2,DL_Remix_emotional_folk_Guitar,0.13797537982463837,0
64,100,0.23636363636363636,502,0,78,DL_Remix_emotional_folk_Guitar,6,4,DL_Remix_emotional_folk_Guitar,0.16235916316509247,0
61,100,0.11818181818181818,660,0,78,DL_Remix_emotional_folk_Guitar,6,2,DL_Remix_emotional_folk_Guitar,0.19104927778244019,0
64,100,0.2,866,0,78,DL_Remix_emotional_folk_Guitar,6,3,DL_Remix_emotional_folk_Guitar,0.2619640827178955,0
57,100,0.2772727272727273,40,1,79,DL_Remix_emotional_folk_Guitar,6,4,DL_Remix_emotional_folk_Guitar,0.9983736276626587,1
57,100,0.2590909090909091,110,0,79,DL_Remix_emotional_folk_Guitar,6,4,DL_Remix_emotional_folk_Guitar,0.05105016008019447,0
64,100,0.11818181818181818,176,0,79,DL_Remix_emotional_folk_Guitar,6,2,DL_Remix_emotional_folk_Guitar,0.04161320626735687,0
57,100,0.37727272727272726,206,0,79,DL_Remix_emotional_folk_Guitar,6,6,DL_Remix_emotional_folk_Guitar,0.03798017278313637,0
52,100,0.2409090909090909,470,1,79,DL_Remix_emotional_folk_Guitar,6,4,DL_Remix_emotional_folk_Guitar,0.03926094248890877,0
64,100,0.6590909090909091,624,0,79,DL_Remix_emotional_folk_Guitar,6,11,DL_Remix_emotional_folk_Guitar,0.04616592079401016,0
52,100,0.1,773,0,79,DL_Remix_emotional_folk_Guitar,6,2,DL_Remix_emotional_folk_Guitar,0.05713373422622681,0
64,100,0.4818181818181818,796,0,79,DL_Remix_emotional_folk_Guitar,6,8,DL_Remix_emotional_folk_Guitar,0.09188318997621536,0
64,100,0.2409090909090909,422,1,80,DL_Remix_emotional_folk_Guitar,6,4,DL_Remix_emotional_folk_Guitar,0.9990094900131226,1
76,100,0.17727272727272728,580,0,80,DL_Remix_emotional_folk_Guitar,6,3,DL_Remix_emotional_folk_Guitar,0.23322798311710358,0
64,100,0.16363636363636364,619,0,80,DL_Remix_emotional_folk_Guitar,6,3,DL_Remix_emotional_folk_Guitar,0.2705792486667633,0
64,100,0.22272727272727272,760,0,80,DL_Remix_emotional_folk_Guitar,6,4,DL_Remix_emotional_folk_Guitar,0.35793203115463257,0
61,100,0.3,9,1,81,DL_Remix_emotional_folk_Guitar,6,5,DL_Remix_emotional_folk_Guitar,0.9990094900131226,1
61,100,0.2636363636363636,729,1,81,DL_Remix_emotional_folk_Guitar,6,4,DL_Remix_emotional_folk_Guitar,0.2332322895526886,0
59,100,0.12272727272727273,817,0,81,DL_Remix_emotional_folk_Guitar,6,2,DL_Remix_emotional_folk_Guitar,0.2705884873867035,0
61,100,0.12272727272727273,870,0,81,DL_Remix_emotional_folk_Guitar,6,2,DL_Remix_emotional_folk_Guitar,0.3579312264919281,0
64,100,0.13636363636363635,17,1,82,DL_Remix_emotional_folk_Guitar,6,2,DL_Remix_emotional_folk_Guitar,0.9990094900131226,1
66,100,0.3409090909090909,255,1,82,DL_Remix_emotional_folk_Guitar,6,5,DL_Remix_emotional_folk_Guitar,0.23323659598827362,0
66,100,0.2590909090909091,404,0,82,DL_Remix_emotional_folk_Guitar,6,4,DL_Remix_emotional_folk_Guitar,0.27058687806129456,0
63,100,0.38181818181818183,673,1,82,DL_Remix_emotional_folk_Guitar,6,6,DL_Remix_emotional_folk_Guitar,0.357925146818161,0
60,100,0.1409090909090909,289,1,83,DL_Remix_emotional_folk_Guitar,6,2,DL_Remix_emotional_folk_Guitar,0.9990094900131226,1
60,100,0.32272727272727275,386,0,83,DL_Remix_emotional_folk_Guitar,6,5,DL_Remix_emotional_folk_Guitar,0.233235165476799,0
63,100,0.1409090909090909,466,0,83,DL_Remix_emotional_folk_Guitar,6,2,DL_Remix_emotional_folk_Guitar,0.2705846428871155,0
61,100,0.6409090909090909,536,0,83,DL_Remix_emotional_folk_Guitar,6,10,DL_Remix_emotional_folk_Guitar,0.35792970657348633,0
64,100,0.1590909090909091,79,1,84,DL_Remix_emotional_folk_Guitar,6,3,DL_Remix_emotional_folk_Guitar,0.9986506104469299,1
61,100,0.22272727272727272,157,0,84,DL_Remix_emotional_folk_Guitar,6,4,DL_Remix_emotional_folk_Guitar,0.087980717420578,0
57,100,0.6363636363636364,413,1,84,DL_Remix_emotional_folk_Guitar,6,10,DL_Remix_emotional_folk_Guitar,0.09298647195100784,0
59,100,0.11818181818181818,616,0,84,DL_Remix_emotional_folk_Guitar,6,2,DL_Remix_emotional_folk_Guitar,0.10995406657457352,0
59,100,0.18181818181818182,716,0,84,DL_Remix_emotional_folk_Guitar,6,3,DL_Remix_emotional_folk_Guitar,0.1286773532629013,0
57,100,0.3181818181818182,787,0,84,DL_Remix_emotional_folk_Guitar,6,5,DL_Remix_emotional_folk_Guitar,0.1822262406349182,0
64,100,0.8181818181818182,9,1,85,DL_Remix_emotional_folk_Guitar,6,13,DL_Remix_emotional_folk_Guitar,0.9990280866622925,1
64,100,0.1,193,0,85,DL_Remix_emotional_folk_Guitar,6,2,DL_Remix_emotional_folk_Guitar,0.3703436553478241,0
63,100,0.4409090909090909,506,1,85,DL_Remix_emotional_folk_Guitar,6,7,DL_Remix_emotional_folk_Guitar,0.45616623759269714,0
59,100,0.12272727272727273,123,1,86,DL_Remix_emotional_folk_Guitar,6,2,DL_Remix_emotional_folk_Guitar,0.9983231425285339,1
64,100,0.7636363636363637,796,1,86,DL_Remix_emotional_folk_Guitar,6,12,DL_Remix_emotional_folk_Guitar,0.5462183952331543,1
59,100,0.740909090909091,246,1,87,DL_Remix_emotional_folk_Guitar,6,12,DL_Remix_emotional_folk_Guitar,0.9990280866622925,1
59,100,0.3181818181818182,493,1,87,DL_Remix_emotional_folk_Guitar,6,5,DL_Remix_emotional_folk_Guitar,0.37033960223197937,0
66,100,0.17727272727272728,677,0,87,DL_Remix_emotional_folk_Guitar,6,3,DL_Remix_emotional_folk_Guitar,0.4561726450920105,0
63,100,0.1409090909090909,184,1,88,DL_Remix_emotional_folk_Guitar,6,2,DL_Remix_emotional_folk_Guitar,0.9990094900131226,1
63,100,0.35909090909090907,220,0,88,DL_Remix_emotional_folk_Guitar,6,6,DL_Remix_emotional_folk_Guitar,0.2332313507795334,0
59,100,0.7,299,0,88,DL_Remix_emotional_folk_Guitar,6,11,DL_Remix_emotional_folk_Guitar,0.27059057354927063,0
52,100,0.4818181818181818,496,0,88,DL_Remix_emotional_folk_Guitar,6,8,DL_Remix_emotional_folk_Guitar,0.3579349219799042,0
64,100,0.2,43,1,89,DL_Remix_emotional_folk_Guitar,6,3,DL_Remix_emotional_folk_Guitar,0.9990094900131226,1
64,100,0.3,237,0,89,DL_Remix_emotional_folk_Guitar,6,5,DL_Remix_emotional_folk_Guitar,0.23324036598205566,0
69,100,0.2,356,0,89,DL_Remix_emotional_folk_Guitar,6,3,DL_Remix_emotional_folk_Guitar,0.2705919146537781,0
66,100,1.2818181818181817,496,0,89,DL_Remix_emotional_folk_Guitar,6,15,DL_Remix_emotional_folk_Guitar,0.3579220175743103,0
64,100,0.8409090909090909,505,1,0,_DL_Japanese_Folk_Pop_Acoustic_Folk_Guitar,6,13,_DL_Japanese_Folk_Pop_Acoustic_Folk_Guitar,0.9983231425285339,1
52,100,0.11818181818181818,858,1,0,_DL_Japanese_Folk_Pop_Acoustic_Folk_Guitar,6,2,_DL_Japanese_Folk_Pop_Acoustic_Folk_Guitar,0.5462155938148499,1
64,100,0.13636363636363635,62,1,1,_DL_Japanese_Folk_Pop_Acoustic_Folk_Guitar,6,2,_DL_Japanese_Folk_Pop_Acoustic_Folk_Guitar,0.9990094900131226,1
59,100,0.1,157,0,1,_DL_Japanese_Folk_Pop_Acoustic_Folk_Guitar,6,2,_DL_Japanese_Folk_Pop_Acoustic_Folk_Guitar,0.23323644697666168,0
59,100,0.8,510,1,1,_DL_Japanese_Folk_Pop_Acoustic_Folk_Guitar,6,13,_DL_Japanese_Folk_Pop_Acoustic_Folk_Guitar,0.27058979868888855,0
57,100,0.16363636363636364,796,1,1,_DL_Japanese_Folk_Pop_Acoustic_Folk_Guitar,6,3,_DL_Japanese_Folk_Pop_Acoustic_Folk_Guitar,0.3579345941543579,0
61,100,0.2772727272727273,39,1,2,_DL_Japanese_Folk_Pop_Acoustic_Folk_Guitar,6,4,_DL_Japanese_Folk_Pop_Acoustic_Folk_Guitar,0.9983735084533691,1
52,100,0.3,140,0,2,_DL_Japanese_Folk_Pop_Acoustic_Folk_Guitar,6,5,_DL_Japanese_Folk_Pop_Acoustic_Folk_Guitar,0.05105152353644371,0
56,100,0.11818181818181818,220,0,2,_DL_Japanese_Folk_Pop_Acoustic_Folk_Guitar,6,2,_DL_Japanese_Folk_Pop_Acoustic_Folk_Guitar,0.04161345586180687,0
57,100,0.6227272727272727,268,0,2,_DL_Japanese_Folk_Pop_Acoustic_Folk_Guitar,6,10,_DL_Japanese_Folk_Pop_Acoustic_Folk_Guitar,0.037980884313583374,0
57,100,0.1,409,0,2,_DL_Japanese_Folk_Pop_Acoustic_Folk_Guitar,6,2,_DL_Japanese_Folk_Pop_Acoustic_Folk_Guitar,0.039261575788259506,0
62,100,0.5772727272727273,479,0,2,_DL_Japanese_Folk_Pop_Acoustic_Folk_Guitar,6,9,_DL_Japanese_Folk_Pop_Acoustic_Folk_Guitar,0.046167388558387756,0
62,100,0.13636363636363635,611,0,2,_DL_Japanese_Folk_Pop_Acoustic_Folk_Guitar,6,2,_DL_Japanese_Folk_Pop_Acoustic_Folk_Guitar,0.05713425204157829,0
57,100,0.6,647,0,2,_DL_Japanese_Folk_Pop_Acoustic_Folk_Guitar,6,10,_DL_Japanese_Folk_Pop_Acoustic_Folk_Guitar,0.09188148379325867,0
62,100,0.13636363636363635,39,1,3,_DL_Japanese_Folk_Pop_Acoustic_Folk_Guitar,6,2,_DL_Japanese_Folk_Pop_Acoustic_Folk_Guitar,0.9990280866622925,1
64,100,0.5409090909090909,100,0,3,_DL_Japanese_Folk_Pop_Acoustic_Folk_Guitar,6,9,_DL_Japanese_Folk_Pop_Acoustic_Folk_Guitar,0.37034720182418823,0
59,100,0.5409090909090909,299,0,3,_DL_Japanese_Folk_Pop_Acoustic_Folk_Guitar,6,9,_DL_Japanese_Folk_Pop_Acoustic_Folk_Guitar,0.45617347955703735,0
61,100,0.5,66,1,6,_DL_Japanese_Folk_Pop_Acoustic_Folk_Guitar,6,8,_DL_Japanese_Folk_Pop_Acoustic_Folk_Guitar,0.9982556700706482,1
59,100,0.1590909090909091,176,0,6,_DL_Japanese_Folk_Pop_Acoustic_Folk_Guitar,6,3,_DL_Japanese_Folk_Pop_Acoustic_Folk_Guitar,0.041293349117040634,0
60,100,0.18181818181818182,211,0,6,_DL_Japanese_Folk_Pop_Acoustic_Folk_Guitar,6,3,_DL_Japanese_Folk_Pop_Acoustic_Folk_Guitar,0.029125483706593513,0
59,100,0.2409090909090909,250,0,6,_DL_Japanese_Folk_Pop_Acoustic_Folk_Guitar,6,4,_DL_Japanese_Folk_Pop_Acoustic_Folk_Guitar,0.021570181474089622,0
57,100,0.2409090909090909,311,0,6,_DL_Japanese_Folk_Pop_Acoustic_Folk_Guitar,6,4,_DL_Japanese_Folk_Pop_Acoustic_Folk_Guitar,0.01705976016819477,0
57,100,0.12272727272727273,409,0,6,_DL_Japanese_Folk_Pop_Acoustic_Folk_Guitar,6,2,_DL_Japanese_Folk_Pop_Acoustic_Folk_Guitar,0.01526876911520958,0
56,100,0.3,506,0,6,_DL_Japanese_Folk_Pop_Acoustic_Folk_Guitar,6,5,_DL_Japanese_Folk_Pop_Acoustic_Folk_Guitar,0.016456300392746925,0
52,100,0.3409090909090909,651,0,6,_DL_Japanese_Folk_Pop_Acoustic_Folk_Guitar,6,5,_DL_Japanese_Folk_Pop_Acoustic_Folk_Guitar,0.021837638691067696,0
52,100,0.1,739,0,6,_DL_Japanese_Folk_Pop_Acoustic_Folk_Guitar,6,2,_DL_Japanese_Folk_Pop_Acoustic_Folk_Guitar,0.03251754119992256,0
52,100,0.16363636363636364,774,0,6,_DL_Japanese_Folk_Pop_Acoustic_Folk_Guitar,6,3,_DL_Japanese_Folk_Pop_Acoustic_Folk_Guitar,0.060912687331438065,0
57,100,0.4590909090909091,118,1,7,_DL_Japanese_Folk_Pop_Acoustic_Folk_Guitar,6,7,_DL_Japanese_Folk_Pop_Acoustic_Folk_Guitar,0.9990094900131226,1
57,100,0.5,317,0,7,_DL_Japanese_Folk_Pop_Acoustic_Folk_Guitar,6,8,_DL_Japanese_Folk_Pop_Acoustic_Folk_Guitar,0.23324131965637207,0
57,100,0.2,452,0,7,_DL_Japanese_Folk_Pop_Acoustic_Folk_Guitar,6,3,_DL_Japanese_Folk_Pop_Acoustic_Folk_Guitar,0.27059346437454224,0
57,100,0.3409090909090909,642,0,7,_DL_Japanese_Folk_Pop_Acoustic_Folk_Guitar,6,5,_DL_Japanese_Folk_Pop_Acoustic_Folk_Guitar,0.3579380214214325,0
57,100,0.3409090909090909,307,1,8,_DL_Japanese_Folk_Pop_Acoustic_Folk_Guitar,6,5,_DL_Japanese_Folk_Pop_Acoustic_Folk_Guitar,0.9990094900131226,1
54,100,0.37727272727272726,493,0,8,_DL_Japanese_Folk_Pop_Acoustic_Folk_Guitar,6,6,_DL_Japanese_Folk_Pop_Acoustic_Folk_Guitar,0.23324048519134521,0
69,100,0.2590909090909091,584,0,8,_DL_Japanese_Folk_Pop_Acoustic_Folk_Guitar,6,4,_DL_Japanese_Folk_Pop_Acoustic_Folk_Guitar,0.27058982849121094,0
69,100,0.1,651,0,8,_DL_Japanese_Folk_Pop_Acoustic_Folk_Guitar,6,2,_DL_Japanese_Folk_Pop_Acoustic_Folk_Guitar,0.357933908700943,0
57,100,0.6,216,1,9,_DL_Japanese_Folk_Pop_Acoustic_Folk_Guitar,6,10,_DL_Japanese_Folk_Pop_Acoustic_Folk_Guitar,0.9988439083099365,1
69,100,0.1,347,0,9,_DL_Japanese_Folk_Pop_Acoustic_Folk_Guitar,6,2,_DL_Japanese_Folk_Pop_Acoustic_Folk_Guitar,0.13798508048057556,0
56,100,0.35909090909090907,405,0,9,_DL_Japanese_Folk_Pop_Acoustic_Folk_Guitar,6,6,_DL_Japanese_Folk_Pop_Acoustic_Folk_Guitar,0.16236978769302368,0
56,100,0.1,488,0,9,_DL_Japanese_Folk_Pop_Acoustic_Folk_Guitar,6,2,_DL_Japanese_Folk_Pop_Acoustic_Folk_Guitar,0.1910625845193863,0
59,100,0.23636363636363636,589,0,9,_DL_Japanese_Folk_Pop_Acoustic_Folk_Guitar,6,4,_DL_Japanese_Folk_Pop_Acoustic_Folk_Guitar,0.2619670629501343,0
59,100,0.11818181818181818,216,1,10,_DL_Japanese_Folk_Pop_Acoustic_Folk_Guitar,6,2,_DL_Japanese_Folk_Pop_Acoustic_Folk_Guitar,0.9990094900131226,1
52,100,0.2636363636363636,422,0,10,_DL_Japanese_Folk_Pop_Acoustic_Folk_Guitar,6,4,_DL_Japanese_Folk_Pop_Acoustic_Folk_Guitar,0.23324096202850342,0
52,100,0.1,496,0,10,_DL_Japanese_Folk_Pop_Acoustic_Folk_Guitar,6,2,_DL_Japanese_Folk_Pop_Acoustic_Folk_Guitar,0.27060237526893616,0
57,100,0.5590909090909091,546,0,10,_DL_Japanese_Folk_Pop_Acoustic_Folk_Guitar,6,9,_DL_Japanese_Folk_Pop_Acoustic_Folk_Guitar,0.3579317033290863,0
52,100,0.21818181818181817,65,1,11,_DL_Japanese_Folk_Pop_Acoustic_Folk_Guitar,6,3,_DL_Japanese_Folk_Pop_Acoustic_Folk_Guitar,0.9990280866622925,1
52,100,0.1409090909090909,118,0,11,_DL_Japanese_Folk_Pop_Acoustic_Folk_Guitar,6,2,_DL_Japanese_Folk_Pop_Acoustic_Folk_Guitar,0.37035101652145386,0
57,100,0.7227272727272728,673,1,11,_DL_Japanese_Folk_Pop_Acoustic_Folk_Guitar,6,12,_DL_Japanese_Folk_Pop_Acoustic_Folk_Guitar,0.4561716616153717,0
57,100,0.1,30,1,12,_DL_Japanese_Folk_Pop_Acoustic_Folk_Guitar,6,2,_DL_Japanese_Folk_Pop_Acoustic_Folk_Guitar,0.9990280866622925,1
64,100,0.740909090909091,96,0,12,_DL_Japanese_Folk_Pop_Acoustic_Folk_Guitar,6,12,_DL_Japanese_Folk_Pop_Acoustic_Folk_Guitar,0.37034377455711365,0
59,100,0.6181818181818182,615,1,12,_DL_Japanese_Folk_Pop_Acoustic_Folk_Guitar,6,10,_DL_Japanese_Folk_Pop_Acoustic_Folk_Guitar,0.4561780095100403,0
62,100,0.21818181818181817,39,1,13,_DL_Japanese_Folk_Pop_Acoustic_Folk_Guitar,6,3,_DL_Japanese_Folk_Pop_Acoustic_Folk_Guitar,0.9986506104469299,1
62,100,0.6409090909090909,245,0,13,_DL_Japanese_Folk_Pop_Acoustic_Folk_Guitar,6,10,_DL_Japanese_Folk_Pop_Acoustic_Folk_Guitar,0.08798309415578842,0
57,100,0.1590909090909091,386,0,13,_DL_Japanese_Folk_Pop_Acoustic_Folk_Guitar,6,3,_DL_Japanese_Folk_Pop_Acoustic_Folk_Guitar,0.09299086034297943,0
57,100,0.2818181818181818,474,0,13,_DL_Japanese_Folk_Pop_Acoustic_Folk_Guitar,6,5,_DL_Japanese_Folk_Pop_Acoustic_Folk_Guitar,0.1099553257226944,0
57,100,0.1409090909090909,606,0,13,_DL_Japanese_Folk_Pop_Acoustic_Folk_Guitar,6,2,_DL_Japanese_Folk_Pop_Acoustic_Folk_Guitar,0.12868376076221466,0
57,100,0.17727272727272728,646,0,13,_DL_Japanese_Folk_Pop_Acoustic_Folk_Guitar,6,3,_DL_Japanese_Folk_Pop_Acoustic_Folk_Guitar,0.1822279840707779,0
57,100,0.3409090909090909,202,1,14,_DL_Japanese_Folk_Pop_Acoustic_Folk_Guitar,6,5,_DL_Japanese_Folk_Pop_Acoustic_Folk_Guitar,0.9988439083099365,1
57,100,0.1409090909090909,295,0,14,_DL_Japanese_Folk_Pop_Acoustic_Folk_Guitar,6,2,_DL_Japanese_Folk_Pop_Acoustic_Folk_Guitar,0.13798391819000244,0
64,100,0.2590909090909091,637,1,14,_DL_Japanese_Folk_Pop_Acoustic_Folk_Guitar,6,4,_DL_Japanese_Folk_Pop_Acoustic_Folk_Guitar,0.16237030923366547,0
59,100,0.16363636363636364,795,0,14,_DL_Japanese_Folk_Pop_Acoustic_Folk_Guitar,6,3,_DL_Japanese_Folk_Pop_Acoustic_Folk_Guitar,0.19106166064739227,0
56,100,0.17727272727272728,831,0,14,_DL_Japanese_Folk_Pop_Acoustic_Folk_Guitar,6,3,_DL_Japanese_Folk_Pop_Acoustic_Folk_Guitar,0.26196473836898804,0
59,100,0.18181818181818182,22,1,15,_DL_Japanese_Folk_Pop_Acoustic_Folk_Guitar,6,3,_DL_Japanese_Folk_Pop_Acoustic_Folk_Guitar,0.9983735084533691,1
57,100,0.2,123,0,15,_DL_Japanese_Folk_Pop_Acoustic_Folk_Guitar,6,3,_DL_Japanese_Folk_Pop_Acoustic_Folk_Guitar,0.05104897543787956,0
59,100,0.1,197,0,15,_DL_Japanese_Folk_Pop_Acoustic_Folk_Guitar,6,2,_DL_Japanese_Folk_Pop_Acoustic_Folk_Guitar,0.04161369055509567,0
61,100,0.1,307,0,15,_DL_Japanese_Folk_Pop_Acoustic_Folk_Guitar,6,2,_DL_Japanese_Folk_Pop_Acoustic_Folk_Guitar,0.037979770451784134,0
61,100,0.5,355,0,15,_DL_Japanese_Folk_Pop_Acoustic_Folk_Guitar,6,8,_DL_Japanese_Folk_Pop_Acoustic_Folk_Guitar,0.03926100209355354,0
61,100,0.4590909090909091,470,0,15,_DL_Japanese_Folk_Pop_Acoustic_Folk_Guitar,6,7,_DL_Japanese_Folk_Pop_Acoustic_Folk_Guitar,0.046167194843292236,0
57,100,0.2,646,0,15,_DL_Japanese_Folk_Pop_Acoustic_Folk_Guitar,6,3,_DL_Japanese_Folk_Pop_Acoustic_Folk_Guitar,0.05713289976119995,0
61,100,0.8772727272727273,831,0,15,_DL_Japanese_Folk_Pop_Acoustic_Folk_Guitar,6,14,_DL_Japanese_Folk_Pop_Acoustic_Folk_Guitar,0.09188050776720047,0
57,100,0.21818181818181817,150,1,16,_DL_Japanese_Folk_Pop_Acoustic_Folk_Guitar,6,3,_DL_Japanese_Folk_Pop_Acoustic_Folk_Guitar,0.9986506104469299,1
61,100,0.3181818181818182,206,0,16,_DL_Japanese_Folk_Pop_Acoustic_Folk_Guitar,6,5,_DL_Japanese_Folk_Pop_Acoustic_Folk_Guitar,0.08798106014728546,0
62,100,0.13636363636363635,567,1,16,_DL_Japanese_Folk_Pop_Acoustic_Folk_Guitar,6,2,_DL_Japanese_Folk_Pop_Acoustic_Folk_Guitar,0.09298732131719589,0
62,100,0.1,681,0,16,_DL_Japanese_Folk_Pop_Acoustic_Folk_Guitar,6,2,_DL_Japanese_Folk_Pop_Acoustic_Folk_Guitar,0.10995510965585709,0
57,100,0.2772727272727273,766,0,16,_DL_Japanese_Folk_Pop_Acoustic_Folk_Guitar,6,4,_DL_Japanese_Folk_Pop_Acoustic_Folk_Guitar,0.1286812424659729,0
56,100,0.2409090909090909,862,0,16,_DL_Japanese_Folk_Pop_Acoustic_Folk_Guitar,6,4,_DL_Japanese_Folk_Pop_Acoustic_Folk_Guitar,0.1822310835123062,0
59,100,0.21818181818181817,96,1,17,_DL_Japanese_Folk_Pop_Acoustic_Folk_Guitar,6,3,_DL_Japanese_Folk_Pop_Acoustic_Folk_Guitar,0.9990094900131226,1
56,100,0.4,250,0,17,_DL_Japanese_Folk_Pop_Acoustic_Folk_Guitar,6,6,_DL_Japanese_Folk_Pop_Acoustic_Folk_Guitar,0.23323151469230652,0
57,100,0.3409090909090909,339,0,17,_DL_Japanese_Folk_Pop_Acoustic_Folk_Guitar,6,5,_DL_Japanese_Folk_Pop_Acoustic_Folk_Guitar,0.2705830931663513,0
57,100,0.2636363636363636,598,1,17,_DL_Japanese_Folk_Pop_Acoustic_Folk_Guitar,6,4,_DL_Japanese_Folk_Pop_Acoustic_Folk_Guitar,0.3579277992248535,0
64,100,0.12272727272727273,48,1,18,_DL_Japanese_Folk_Pop_Acoustic_Folk_Guitar,6,2,_DL_Japanese_Folk_Pop_Acoustic_Folk_Guitar,0.9990280866622925,1
57,100,0.8363636363636363,413,1,18,_DL_Japanese_Folk_Pop_Acoustic_Folk_Guitar,6,13,_DL_Japanese_Folk_Pop_Acoustic_Folk_Guitar,0.37035220861434937,0
57,100,0.5,602,0,18,_DL_Japanese_Folk_Pop_Acoustic_Folk_Guitar,6,8,_DL_Japanese_Folk_Pop_Acoustic_Folk_Guitar,0.4561716616153717,0
57,100,0.5818181818181818,113,1,19,_DL_Japanese_Folk_Pop_Acoustic_Folk_Guitar,6,9,_DL_Japanese_Folk_Pop_Acoustic_Folk_Guitar,0.9990094900131226,1
56,100,0.41818181818181815,241,0,19,_DL_Japanese_Folk_Pop_Acoustic_Folk_Guitar,6,7,_DL_Japanese_Folk_Pop_Acoustic_Folk_Guitar,0.23323068022727966,0
59,100,0.3,567,1,19,_DL_Japanese_Folk_Pop_Acoustic_Folk_Guitar,6,5,_DL_Japanese_Folk_Pop_Acoustic_Folk_Guitar,0.27058303356170654,0
59,100,0.1590909090909091,700,0,19,_DL_Japanese_Folk_Pop_Acoustic_Folk_Guitar,6,3,_DL_Japanese_Folk_Pop_Acoustic_Folk_Guitar,0.3579308092594147,0
61,100,0.6590909090909091,44,1,20,_DL_Japanese_Folk_Pop_Acoustic_Folk_Guitar,6,11,_DL_Japanese_Folk_Pop_Acoustic_Folk_Guitar,0.9984879493713379,1
59,100,0.2590909090909091,254,0,20,_DL_Japanese_Folk_Pop_Acoustic_Folk_Guitar,6,4,_DL_Japanese_Folk_Pop_Acoustic_Folk_Guitar,0.06335590034723282,0
57,100,0.2409090909090909,316,0,20,_DL_Japanese_Folk_Pop_Acoustic_Folk_Guitar,6,4,_DL_Japanese_Folk_Pop_Acoustic_Folk_Guitar,0.05828969553112984,0
64,100,0.2409090909090909,449,0,20,_DL_Japanese_Folk_Pop_Acoustic_Folk_Guitar,6,4,_DL_Japanese_Folk_Pop_Acoustic_Folk_Guitar,0.061364445835351944,0
64,100,0.2,505,0,20,_DL_Japanese_Folk_Pop_Acoustic_Folk_Guitar,6,3,_DL_Japanese_Folk_Pop_Acoustic_Folk_Guitar,0.07168613374233246,0
57,100,0.2772727272727273,691,0,20,_DL_Japanese_Folk_Pop_Acoustic_Folk_Guitar,6,4,_DL_Japanese_Folk_Pop_Acoustic_Folk_Guitar,0.08473995327949524,0
57,100,0.1590909090909091,827,0,20,_DL_Japanese_Folk_Pop_Acoustic_Folk_Guitar,6,3,_DL_Japanese_Folk_Pop_Acoustic_Folk_Guitar,0.12635725736618042,0
57,100,0.2590909090909091,316,1,21,_DL_Japanese_Folk_Pop_Acoustic_Folk_Guitar,6,4,_DL_Japanese_Folk_Pop_Acoustic_Folk_Guitar,0.9988439083099365,1
69,100,0.11818181818181818,374,0,21,_DL_Japanese_Folk_Pop_Acoustic_Folk_Guitar,6,2,_DL_Japanese_Folk_Pop_Acoustic_Folk_Guitar,0.13798266649246216,0
57,100,0.32272727272727275,399,0,21,_DL_Japanese_Folk_Pop_Acoustic_Folk_Guitar,6,5,_DL_Japanese_Folk_Pop_Acoustic_Folk_Guitar,0.16236473619937897,0
59,100,0.13636363636363635,677,1,21,_DL_Japanese_Folk_Pop_Acoustic_Folk_Guitar,6,2,_DL_Japanese_Folk_Pop_Acoustic_Folk_Guitar,0.19105859100818634,0
52,100,0.1,787,0,21,_DL_Japanese_Folk_Pop_Acoustic_Folk_Guitar,6,2,_DL_Japanese_Folk_Pop_Acoustic_Folk_Guitar,0.2619713842868805,0
57,100,0.1409090909090909,57,1,22,_DL_Japanese_Folk_Pop_Acoustic_Folk_Guitar,6,2,_DL_Japanese_Folk_Pop_Acoustic_Folk_Guitar,0.9983735084533691,1
57,100,0.16363636363636364,179,0,22,_DL_Japanese_Folk_Pop_Acoustic_Folk_Guitar,6,3,_DL_Japanese_Folk_Pop_Acoustic_Folk_Guitar,0.05105138197541237,0
57,100,0.13636363636363635,260,0,22,_DL_Japanese_Folk_Pop_Acoustic_Folk_Guitar,6,2,_DL_Japanese_Folk_Pop_Acoustic_Folk_Guitar,0.041612863540649414,0
57,100,0.2,295,0,22,_DL_Japanese_Folk_Pop_Acoustic_Folk_Guitar,6,3,_DL_Japanese_Folk_Pop_Acoustic_Folk_Guitar,0.03798095881938934,0
57,100,0.41818181818181815,351,0,22,_DL_Japanese_Folk_Pop_Acoustic_Folk_Guitar,6,7,_DL_Japanese_Folk_Pop_Acoustic_Folk_Guitar,0.03926176205277443,0
57,100,0.2818181818181818,453,0,22,_DL_Japanese_Folk_Pop_Acoustic_Folk_Guitar,6,5,_DL_Japanese_Folk_Pop_Acoustic_Folk_Guitar,0.04616840183734894,0
57,100,0.17727272727272728,611,0,22,_DL_Japanese_Folk_Pop_Acoustic_Folk_Guitar,6,3,_DL_Japanese_Folk_Pop_Acoustic_Folk_Guitar,0.05713389068841934,0
64,100,0.5363636363636364,721,0,22,_DL_Japanese_Folk_Pop_Acoustic_Folk_Guitar,6,9,_DL_Japanese_Folk_Pop_Acoustic_Folk_Guitar,0.09188543260097504,0
52,100,0.2,79,1,23,_DL_Japanese_Folk_Pop_Acoustic_Folk_Guitar,6,3,_DL_Japanese_Folk_Pop_Acoustic_Folk_Guitar,0.9982556700706482,1
52,100,0.11818181818181818,154,0,23,_DL_Japanese_Folk_Pop_Acoustic_Folk_Guitar,6,2,_DL_Japanese_Folk_Pop_Acoustic_Folk_Guitar,0.041292257606983185,0
52,100,0.17727272727272728,206,0,23,_DL_Japanese_Folk_Pop_Acoustic_Folk_Guitar,6,3,_DL_Japanese_Folk_Pop_Acoustic_Folk_Guitar,0.029125738888978958,0
62,100,0.5181818181818182,272,0,23,_DL_Japanese_Folk_Pop_Acoustic_Folk_Guitar,6,8,_DL_Japanese_Folk_Pop_Acoustic_Folk_Guitar,0.02156931161880493,0
62,100,0.5818181818181818,453,0,23,_DL_Japanese_Folk_Pop_Acoustic_Folk_Guitar,6,9,_DL_Japanese_Folk_Pop_Acoustic_Folk_Guitar,0.01705978438258171,0
64,100,0.2818181818181818,584,0,23,_DL_Japanese_Folk_Pop_Acoustic_Folk_Guitar,6,5,_DL_Japanese_Folk_Pop_Acoustic_Folk_Guitar,0.015269355848431587,0
57,100,0.3,650,0,23,_DL_Japanese_Folk_Pop_Acoustic_Folk_Guitar,6,5,_DL_Japanese_Folk_Pop_Acoustic_Folk_Guitar,0.016456857323646545,0
64,100,0.12272727272727273,739,0,23,_DL_Japanese_Folk_Pop_Acoustic_Folk_Guitar,6,2,_DL_Japanese_Folk_Pop_Acoustic_Folk_Guitar,0.021839341148734093,0
68,100,0.16363636363636364,773,0,23,_DL_Japanese_Folk_Pop_Acoustic_Folk_Guitar,6,3,_DL_Japanese_Folk_Pop_Acoustic_Folk_Guitar,0.03251974657177925,0
68,100,0.11818181818181818,814,0,23,_DL_Japanese_Folk_Pop_Acoustic_Folk_Guitar,6,2,_DL_Japanese_Folk_Pop_Acoustic_Folk_Guitar,0.060915280133485794,0
52,100,0.1590909090909091,154,1,24,_DL_Japanese_Folk_Pop_Acoustic_Folk_Guitar,6,3,_DL_Japanese_Folk_Pop_Acoustic_Folk_Guitar,0.9988439083099365,1
59,100,0.5409090909090909,268,0,24,_DL_Japanese_Folk_Pop_Acoustic_Folk_Guitar,6,9,_DL_Japanese_Folk_Pop_Acoustic_Folk_Guitar,0.1379813253879547,0
56,100,0.17727272727272728,457,0,24,_DL_Japanese_Folk_Pop_Acoustic_Folk_Guitar,6,3,_DL_Japanese_Folk_Pop_Acoustic_Folk_Guitar,0.16236281394958496,0
64,100,0.6,584,0,24,_DL_Japanese_Folk_Pop_Acoustic_Folk_Guitar,6,10,_DL_Japanese_Folk_Pop_Acoustic_Folk_Guitar,0.1910553127527237,0
59,100,0.23636363636363636,787,0,24,_DL_Japanese_Folk_Pop_Acoustic_Folk_Guitar,6,4,_DL_Japanese_Folk_Pop_Acoustic_Folk_Guitar,0.2619670331478119,0
61,100,0.2,88,1,25,_DL_Japanese_Folk_Pop_Acoustic_Folk_Guitar,6,3,_DL_Japanese_Folk_Pop_Acoustic_Folk_Guitar,0.9983735084533691,1
61,100,0.5636363636363636,136,0,25,_DL_Japanese_Folk_Pop_Acoustic_Folk_Guitar,6,9,_DL_Japanese_Folk_Pop_Acoustic_Folk_Guitar,0.05105078965425491,0
57,100,0.18181818181818182,268,0,25,_DL_Japanese_Folk_Pop_Acoustic_Folk_Guitar,6,3,_DL_Japanese_Folk_Pop_Acoustic_Folk_Guitar,0.041613370180130005,0
54,100,0.18181818181818182,312,0,25,_DL_Japanese_Folk_Pop_Acoustic_Folk_Guitar,6,3,_DL_Japanese_Folk_Pop_Acoustic_Folk_Guitar,0.03798229992389679,0
57,100,0.5590909090909091,409,0,25,_DL_Japanese_Folk_Pop_Acoustic_Folk_Guitar,6,9,_DL_Japanese_Folk_Pop_Acoustic_Folk_Guitar,0.039261143654584885,0
57,100,0.2,773,1,25,_DL_Japanese_Folk_Pop_Acoustic_Folk_Guitar,6,3,_DL_Japanese_Folk_Pop_Acoustic_Folk_Guitar,0.04616859182715416,0
57,100,0.1,839,0,25,_DL_Japanese_Folk_Pop_Acoustic_Folk_Guitar,6,2,_DL_Japanese_Folk_Pop_Acoustic_Folk_Guitar,0.05713378265500069,0
64,100,0.2590909090909091,866,0,25,_DL_Japanese_Folk_Pop_Acoustic_Folk_Guitar,6,4,_DL_Japanese_Folk_Pop_Acoustic_Folk_Guitar,0.09188573807477951,0
57,100,0.23636363636363636,106,1,26,_DL_Japanese_Folk_Pop_Acoustic_Folk_Guitar,6,4,_DL_Japanese_Folk_Pop_Acoustic_Folk_Guitar,0.9984880685806274,1
68,100,0.22272727272727272,167,0,26,_DL_Japanese_Folk_Pop_Acoustic_Folk_Guitar,6,4,_DL_Japanese_Folk_Pop_Acoustic_Folk_Guitar,0.0633516013622284,0
64,100,0.1590909090909091,364,0,26,_DL_Japanese_Folk_Pop_Acoustic_Folk_Guitar,6,3,_DL_Japanese_Folk_Pop_Acoustic_Folk_Guitar,0.058289628475904465,0
69,100,0.22272727272727272,488,0,26,_DL_Japanese_Folk_Pop_Acoustic_Folk_Guitar,6,4,_DL_Japanese_Folk_Pop_Acoustic_Folk_Guitar,0.06136106327176094,0
59,100,0.12272727272727273,607,0,26,_DL_Japanese_Folk_Pop_Acoustic_Folk_Guitar,6,2,_DL_Japanese_Folk_Pop_Acoustic_Folk_Guitar,0.07168249785900116,0
57,100,0.1,787,0,26,_DL_Japanese_Folk_Pop_Acoustic_Folk_Guitar,6,2,_DL_Japanese_Folk_Pop_Acoustic_Folk_Guitar,0.08473614603281021,0
61,100,1.0772727272727274,866,0,26,_DL_Japanese_Folk_Pop_Acoustic_Folk_Guitar,6,15,_DL_Japanese_Folk_Pop_Acoustic_Folk_Guitar,0.12635016441345215,0
52,100,0.13636363636363635,656,1,27,_DL_Japanese_Folk_Pop_Acoustic_Folk_Guitar,6,2,_DL_Japanese_Folk_Pop_Acoustic_Folk_Guitar,0.9792247414588928,1
61,100,0.1590909090909091,83,1,28,_DL_Japanese_Folk_Pop_Acoustic_Folk_Guitar,6,3,_DL_Japanese_Folk_Pop_Acoustic_Folk_Guitar,0.9986506104469299,1
61,100,0.17727272727272728,127,0,28,_DL_Japanese_Folk_Pop_Acoustic_Folk_Guitar,6,3,_DL_Japanese_Folk_Pop_Acoustic_Folk_Guitar,0.08797876536846161,0
64,100,0.1590909090909091,264,0,28,_DL_Japanese_Folk_Pop_Acoustic_Folk_Guitar,6,3,_DL_Japanese_Folk_Pop_Acoustic_Folk_Guitar,0.09298695623874664,0
56,100,0.12272727272727273,430,0,28,_DL_Japanese_Folk_Pop_Acoustic_Folk_Guitar,6,2,_DL_Japanese_Folk_Pop_Acoustic_Folk_Guitar,0.10995056480169296,0
59,100,0.5772727272727273,625,0,28,_DL_Japanese_Folk_Pop_Acoustic_Folk_Guitar,6,9,_DL_Japanese_Folk_Pop_Acoustic_Folk_Guitar,0.12867602705955505,0
59,100,0.17727272727272728,801,0,28,_DL_Japanese_Folk_Pop_Acoustic_Folk_Guitar,6,3,_DL_Japanese_Folk_Pop_Acoustic_Folk_Guitar,0.18222136795520782,0
54,100,0.5590909090909091,57,1,29,_DL_Japanese_Folk_Pop_Acoustic_Folk_Guitar,6,9,_DL_Japanese_Folk_Pop_Acoustic_Folk_Guitar,0.9990280866622925,1
61,100,0.2772727272727273,700,1,29,_DL_Japanese_Folk_Pop_Acoustic_Folk_Guitar,6,4,_DL_Japanese_Folk_Pop_Acoustic_Folk_Guitar,0.3703409433364868,0
61,100,0.4,796,0,29,_DL_Japanese_Folk_Pop_Acoustic_Folk_Guitar,6,6,_DL_Japanese_Folk_Pop_Acoustic_Folk_Guitar,0.4561654031276703,0
62,100,0.13636363636363635,281,1,30,_DL_Japanese_Folk_Pop_Acoustic_Folk_Guitar,6,2,_DL_Japanese_Folk_Pop_Acoustic_Folk_Guitar,0.9988439083099365,1
62,100,0.3,316,0,30,_DL_Japanese_Folk_Pop_Acoustic_Folk_Guitar,6,5,_DL_Japanese_Folk_Pop_Acoustic_Folk_Guitar,0.1379854679107666,0
62,100,0.1590909090909091,638,1,30,_DL_Japanese_Folk_Pop_Acoustic_Folk_Guitar,6,3,_DL_Japanese_Folk_Pop_Acoustic_Folk_Guitar,0.16237112879753113,0
73,100,0.17727272727272728,721,0,30,_DL_Japanese_Folk_Pop_Acoustic_Folk_Guitar,6,3,_DL_Japanese_Folk_Pop_Acoustic_Folk_Guitar,0.19106656312942505,0
62,100,0.9181818181818182,822,0,30,_DL_Japanese_Folk_Pop_Acoustic_Folk_Guitar,6,15,_DL_Japanese_Folk_Pop_Acoustic_Folk_Guitar,0.2619726061820984,0
62,100,0.41818181818181815,206,1,31,_DL_Japanese_Folk_Pop_Acoustic_Folk_Guitar,6,7,_DL_Japanese_Folk_Pop_Acoustic_Folk_Guitar,0.9983231425285339,1
52,100,0.7,642,1,31,_DL_Japanese_Folk_Pop_Acoustic_Folk_Guitar,6,11,_DL_Japanese_Folk_Pop_Acoustic_Folk_Guitar,0.5462231040000916,1
52,100,0.2818181818181818,373,1,32,_DL_Japanese_Folk_Pop_Acoustic_Folk_Guitar,6,5,_DL_Japanese_Folk_Pop_Acoustic_Folk_Guitar,0.9990280866622925,1
57,100,0.21818181818181817,791,1,32,_DL_Japanese_Folk_Pop_Acoustic_Folk_Guitar,6,3,_DL_Japanese_Folk_Pop_Acoustic_Folk_Guitar,0.3703426122665405,0
69,100,0.12272727272727273,839,0,32,_DL_Japanese_Folk_Pop_Acoustic_Folk_Guitar,6,2,_DL_Japanese_Folk_Pop_Acoustic_Folk_Guitar,0.45617005228996277,0
57,100,0.11818181818181818,66,1,33,_DL_Japanese_Folk_Pop_Acoustic_Folk_Guitar,6,2,_DL_Japanese_Folk_Pop_Acoustic_Folk_Guitar,0.9984879493713379,1
52,100,0.4818181818181818,136,0,33,_DL_Japanese_Folk_Pop_Acoustic_Folk_Guitar,6,8,_DL_Japanese_Folk_Pop_Acoustic_Folk_Guitar,0.0633532702922821,0
52,100,0.2,364,0,33,_DL_Japanese_Folk_Pop_Acoustic_Folk_Guitar,6,3,_DL_Japanese_Folk_Pop_Acoustic_Folk_Guitar,0.05829032510519028,0
59,100,0.17727272727272728,558,0,33,_DL_Japanese_Folk_Pop_Acoustic_Folk_Guitar,6,3,_DL_Japanese_Folk_Pop_Acoustic_Folk_Guitar,0.06136351078748703,0
57,100,0.2,603,0,33,_DL_Japanese_Folk_Pop_Acoustic_Folk_Guitar,6,3,_DL_Japanese_Folk_Pop_Acoustic_Folk_Guitar,0.07168424874544144,0
57,100,0.17727272727272728,721,0,33,_DL_Japanese_Folk_Pop_Acoustic_Folk_Guitar,6,3,_DL_Japanese_Folk_Pop_Acoustic_Folk_Guitar,0.08473935723304749,0
64,100,0.35909090909090907,791,0,33,_DL_Japanese_Folk_Pop_Acoustic_Folk_Guitar,6,6,_DL_Japanese_Folk_Pop_Acoustic_Folk_Guitar,0.12635400891304016,0
57,100,0.9,40,1,34,_DL_Japanese_Folk_Pop_Acoustic_Folk_Guitar,6,14,_DL_Japanese_Folk_Pop_Acoustic_Folk_Guitar,0.9988439083099365,1
57,100,0.2818181818181818,351,1,34,_DL_Japanese_Folk_Pop_Acoustic_Folk_Guitar,6,5,_DL_Japanese_Folk_Pop_Acoustic_Folk_Guitar,0.13798747956752777,0
64,100,0.4590909090909091,431,0,34,_DL_Japanese_Folk_Pop_Acoustic_Folk_Guitar,6,7,_DL_Japanese_Folk_Pop_Acoustic_Folk_Guitar,0.1623753160238266,0
57,100,0.3181818181818182,545,0,34,_DL_Japanese_Folk_Pop_Acoustic_Folk_Guitar,6,5,_DL_Japanese_Folk_Pop_Acoustic_Folk_Guitar,0.19106480479240417,0
57,100,0.16363636363636364,708,0,34,_DL_Japanese_Folk_Pop_Acoustic_Folk_Guitar,6,3,_DL_Japanese_Folk_Pop_Acoustic_Folk_Guitar,0.26197534799575806,0
57,100,0.2636363636363636,246,1,35,_DL_Japanese_Folk_Pop_Acoustic_Folk_Guitar,6,4,_DL_Japanese_Folk_Pop_Acoustic_Folk_Guitar,0.9990094900131226,1
57,100,0.1590909090909091,321,0,35,_DL_Japanese_Folk_Pop_Acoustic_Folk_Guitar,6,3,_DL_Japanese_Folk_Pop_Acoustic_Folk_Guitar,0.23323926329612732,0
59,100,0.1409090909090909,713,1,35,_DL_Japanese_Folk_Pop_Acoustic_Folk_Guitar,6,2,_DL_Japanese_Folk_Pop_Acoustic_Folk_Guitar,0.27060067653656006,0
57,100,1.040909090909091,871,0,35,_DL_Japanese_Folk_Pop_Acoustic_Folk_Guitar,6,15,_DL_Japanese_Folk_Pop_Acoustic_Folk_Guitar,0.35792919993400574,0
57,100,0.3409090909090909,224,1,36,_DL_Japanese_Folk_Pop_Acoustic_Folk_Guitar,6,5,_DL_Japanese_Folk_Pop_Acoustic_Folk_Guitar,0.9983736276626587,1
57,100,0.33636363636363636,435,0,36,_DL_Japanese_Folk_Pop_Acoustic_Folk_Guitar,6,5,_DL_Japanese_Folk_Pop_Acoustic_Folk_Guitar,0.051050640642642975,0
57,100,0.22272727272727272,518,0,36,_DL_Japanese_Folk_Pop_Acoustic_Folk_Guitar,6,4,_DL_Japanese_Folk_Pop_Acoustic_Folk_Guitar,0.0416141077876091,0
57,100,0.18181818181818182,593,0,36,_DL_Japanese_Folk_Pop_Acoustic_Folk_Guitar,6,3,_DL_Japanese_Folk_Pop_Acoustic_Folk_Guitar,0.037980906665325165,0
52,100,0.2772727272727273,633,0,36,_DL_Japanese_Folk_Pop_Acoustic_Folk_Guitar,6,4,_DL_Japanese_Folk_Pop_Acoustic_Folk_Guitar,0.03926301375031471,0
57,100,0.12272727272727273,694,0,36,_DL_Japanese_Folk_Pop_Acoustic_Folk_Guitar,6,2,_DL_Japanese_Folk_Pop_Acoustic_Folk_Guitar,0.04616783186793327,0
64,100,0.21818181818181817,765,0,36,_DL_Japanese_Folk_Pop_Acoustic_Folk_Guitar,6,3,_DL_Japanese_Folk_Pop_Acoustic_Folk_Guitar,0.05713486671447754,0
57,100,0.3409090909090909,813,0,36,_DL_Japanese_Folk_Pop_Acoustic_Folk_Guitar,6,5,_DL_Japanese_Folk_Pop_Acoustic_Folk_Guitar,0.0918831080198288,0
64,100,0.11818181818181818,75,1,37,_DL_Japanese_Folk_Pop_Acoustic_Folk_Guitar,6,2,_DL_Japanese_Folk_Pop_Acoustic_Folk_Guitar,0.9988439083099365,1
57,100,0.12272727272727273,114,0,37,_DL_Japanese_Folk_Pop_Acoustic_Folk_Guitar,6,2,_DL_Japanese_Folk_Pop_Acoustic_Folk_Guitar,0.13798636198043823,0
57,100,0.2,254,0,37,_DL_Japanese_Folk_Pop_Acoustic_Folk_Guitar,6,3,_DL_Japanese_Folk_Pop_Acoustic_Folk_Guitar,0.1623706966638565,0
57,100,0.3181818181818182,506,1,37,_DL_Japanese_Folk_Pop_Acoustic_Folk_Guitar,6,5,_DL_Japanese_Folk_Pop_Acoustic_Folk_Guitar,0.1910613775253296,0
57,100,0.1409090909090909,598,0,37,_DL_Japanese_Folk_Pop_Acoustic_Folk_Guitar,6,2,_DL_Japanese_Folk_Pop_Acoustic_Folk_Guitar,0.2619740068912506,0
59,100,0.37727272727272726,75,1,38,_DL_Japanese_Folk_Pop_Acoustic_Folk_Guitar,6,6,_DL_Japanese_Folk_Pop_Acoustic_Folk_Guitar,0.9990094900131226,1
59,100,0.2590909090909091,206,0,38,_DL_Japanese_Folk_Pop_Acoustic_Folk_Guitar,6,4,_DL_Japanese_Folk_Pop_Acoustic_Folk_Guitar,0.23323354125022888,0
61,100,0.2409090909090909,581,1,38,_DL_Japanese_Folk_Pop_Acoustic_Folk_Guitar,6,4,_DL_Japanese_Folk_Pop_Acoustic_Folk_Guitar,0.270577609539032,0
59,100,0.5,646,0,38,_DL_Japanese_Folk_Pop_Acoustic_Folk_Guitar,6,8,_DL_Japanese_Folk_Pop_Acoustic_Folk_Guitar,0.3579237461090088,0
64,100,0.18181818181818182,110,1,39,_DL_Japanese_Folk_Pop_Acoustic_Folk_Guitar,6,3,_DL_Japanese_Folk_Pop_Acoustic_Folk_Guitar,0.9986506104469299,1
57,100,0.2818181818181818,211,0,39,_DL_Japanese_Folk_Pop_Acoustic_Folk_Guitar,6,5,_DL_Japanese_Folk_Pop_Acoustic_Folk_Guitar,0.08798137307167053,0
61,100,0.1409090909090909,316,0,39,_DL_Japanese_Folk_Pop_Acoustic_Folk_Guitar,6,2,_DL_Japanese_Folk_Pop_Acoustic_Folk_Guitar,0.09299246966838837,0
57,100,0.2409090909090909,351,0,39,_DL_Japanese_Folk_Pop_Acoustic_Folk_Guitar,6,4,_DL_Japanese_Folk_Pop_Acoustic_Folk_Guitar,0.1099584549665451,0
57,100,0.35909090909090907,726,1,39,_DL_Japanese_Folk_Pop_Acoustic_Folk_Guitar,6,6,_DL_Japanese_Folk_Pop_Acoustic_Folk_Guitar,0.12868158519268036,0
57,100,0.17727272727272728,831,0,39,_DL_Japanese_Folk_Pop_Acoustic_Folk_Guitar,6,3,_DL_Japanese_Folk_Pop_Acoustic_Folk_Guitar,0.1822291612625122,0
69,100,0.12272727272727273,729,1,40,_DL_Japanese_Folk_Pop_Acoustic_Folk_Guitar,6,2,_DL_Japanese_Folk_Pop_Acoustic_Folk_Guitar,0.9983232617378235,1
57,100,0.4409090909090909,774,0,40,_DL_Japanese_Folk_Pop_Acoustic_Folk_Guitar,6,7,_DL_Japanese_Folk_Pop_Acoustic_Folk_Guitar,0.5462208986282349,1
57,100,0.1409090909090909,26,1,41,_DL_Japanese_Folk_Pop_Acoustic_Folk_Guitar,6,2,_DL_Japanese_Folk_Pop_Acoustic_Folk_Guitar,0.9990280866622925,1
57,100,0.22272727272727272,686,1,41,_DL_Japanese_Folk_Pop_Acoustic_Folk_Guitar,6,4,_DL_Japanese_Folk_Pop_Acoustic_Folk_Guitar,0.3703530430793762,0
61,100,0.6409090909090909,858,0,41,_DL_Japanese_Folk_Pop_Acoustic_Folk_Guitar,6,10,_DL_Japanese_Folk_Pop_Acoustic_Folk_Guitar,0.45617035031318665,0
66,100,0.21818181818181817,251,1,42,_DL_Japanese_Folk_Pop_Acoustic_Folk_Guitar,6,3,_DL_Japanese_Folk_Pop_Acoustic_Folk_Guitar,0.9983231425285339,1
61,100,1.459090909090909,804,1,42,_DL_Japanese_Folk_Pop_Acoustic_Folk_Guitar,6,15,_DL_Japanese_Folk_Pop_Acoustic_Folk_Guitar,0.5462056398391724,1
57,100,0.3,303,1,43,_DL_Japanese_Folk_Pop_Acoustic_Folk_Guitar,6,5,_DL_Japanese_Folk_Pop_Acoustic_Folk_Guitar,0.9988439083099365,1
59,100,0.1409090909090909,584,1,43,_DL_Japanese_Folk_Pop_Acoustic_Folk_Guitar,6,2,_DL_Japanese_Folk_Pop_Acoustic_Folk_Guitar,0.1379856914281845,0
68,100,0.3409090909090909,619,0,43,_DL_Japanese_Folk_Pop_Acoustic_Folk_Guitar,6,5,_DL_Japanese_Folk_Pop_Acoustic_Folk_Guitar,0.16235888004302979,0
64,100,0.17727272727272728,756,0,43,_DL_Japanese_Folk_Pop_Acoustic_Folk_Guitar,6,3,_DL_Japanese_Folk_Pop_Acoustic_Folk_Guitar,0.19105997681617737,0
52,100,0.16363636363636364,796,0,43,_DL_Japanese_Folk_Pop_Acoustic_Folk_Guitar,6,3,_DL_Japanese_Folk_Pop_Acoustic_Folk_Guitar,0.26196402311325073,0
64,100,0.1,43,1,44,_DL_Japanese_Folk_Pop_Acoustic_Folk_Guitar,6,2,_DL_Japanese_Folk_Pop_Acoustic_Folk_Guitar,0.9988439083099365,1
64,100,0.1,105,0,44,_DL_Japanese_Folk_Pop_Acoustic_Folk_Guitar,6,2,_DL_Japanese_Folk_Pop_Acoustic_Folk_Guitar,0.13798540830612183,0
64,100,0.1409090909090909,131,0,44,_DL_Japanese_Folk_Pop_Acoustic_Folk_Guitar,6,2,_DL_Japanese_Folk_Pop_Acoustic_Folk_Guitar,0.16237038373947144,0
64,100,0.38181818181818183,166,0,44,_DL_Japanese_Folk_Pop_Acoustic_Folk_Guitar,6,6,_DL_Japanese_Folk_Pop_Acoustic_Folk_Guitar,0.19106356799602509,0
57,100,0.17727272727272728,435,1,44,_DL_Japanese_Folk_Pop_Acoustic_Folk_Guitar,6,3,_DL_Japanese_Folk_Pop_Acoustic_Folk_Guitar,0.2619723379611969,0
64,100,0.2,136,1,45,_DL_Japanese_Folk_Pop_Acoustic_Folk_Guitar,6,3,_DL_Japanese_Folk_Pop_Acoustic_Folk_Guitar,0.9990280866622925,1
61,100,1.440909090909091,188,0,45,_DL_Japanese_Folk_Pop_Acoustic_Folk_Guitar,6,15,_DL_Japanese_Folk_Pop_Acoustic_Folk_Guitar,0.3703343868255615,0
59,100,0.21818181818181817,523,1,45,_DL_Japanese_Folk_Pop_Acoustic_Folk_Guitar,6,3,_DL_Japanese_Folk_Pop_Acoustic_Folk_Guitar,0.4561762511730194,0
61,100,1.4181818181818182,18,1,46,_DL_Japanese_Folk_Pop_Acoustic_Folk_Guitar,6,15,_DL_Japanese_Folk_Pop_Acoustic_Folk_Guitar,0.9990094900131226,1
62,100,0.8409090909090909,334,1,46,_DL_Japanese_Folk_Pop_Acoustic_Folk_Guitar,6,13,_DL_Japanese_Folk_Pop_Acoustic_Folk_Guitar,0.23323659598827362,0
62,100,0.37727272727272726,646,1,46,_DL_Japanese_Folk_Pop_Acoustic_Folk_Guitar,6,6,_DL_Japanese_Folk_Pop_Acoustic_Folk_Guitar,0.27059122920036316,0
62,100,0.41818181818181815,748,0,46,_DL_Japanese_Folk_Pop_Acoustic_Folk_Guitar,6,7,_DL_Japanese_Folk_Pop_Acoustic_Folk_Guitar,0.35794132947921753,0
59,100,0.3,373,1,47,_DL_Japanese_Folk_Pop_Acoustic_Folk_Guitar,6,5,_DL_Japanese_Folk_Pop_Acoustic_Folk_Guitar,0.9990280866622925,1
57,100,0.1409090909090909,466,0,47,_DL_Japanese_Folk_Pop_Acoustic_Folk_Guitar,6,2,_DL_Japanese_Folk_Pop_Acoustic_Folk_Guitar,0.37033870816230774,0
61,100,0.42272727272727273,818,1,47,_DL_Japanese_Folk_Pop_Acoustic_Folk_Guitar,6,7,_DL_Japanese_Folk_Pop_Acoustic_Folk_Guitar,0.45616719126701355,0
54,100,0.4772727272727273,105,1,48,_DL_Japanese_Folk_Pop_Acoustic_Folk_Guitar,6,8,_DL_Japanese_Folk_Pop_Acoustic_Folk_Guitar,0.9984880685806274,1
57,100,0.2818181818181818,224,0,48,_DL_Japanese_Folk_Pop_Acoustic_Folk_Guitar,6,5,_DL_Japanese_Folk_Pop_Acoustic_Folk_Guitar,0.0633537545800209,0
54,100,0.38181818181818183,311,0,48,_DL_Japanese_Folk_Pop_Acoustic_Folk_Guitar,6,6,_DL_Japanese_Folk_Pop_Acoustic_Folk_Guitar,0.05829022079706192,0
57,100,0.2818181818181818,421,0,48,_DL_Japanese_Folk_Pop_Acoustic_Folk_Guitar,6,5,_DL_Japanese_Folk_Pop_Acoustic_Folk_Guitar,0.061362866312265396,0
57,100,0.4,488,0,48,_DL_Japanese_Folk_Pop_Acoustic_Folk_Guitar,6,6,_DL_Japanese_Folk_Pop_Acoustic_Folk_Guitar,0.07168443500995636,0
62,100,0.8227272727272728,606,0,48,_DL_Japanese_Folk_Pop_Acoustic_Folk_Guitar,6,13,_DL_Japanese_Folk_Pop_Acoustic_Folk_Guitar,0.08473895490169525,0
69,100,0.21818181818181817,791,0,48,_DL_Japanese_Folk_Pop_Acoustic_Folk_Guitar,6,3,_DL_Japanese_Folk_Pop_Acoustic_Folk_Guitar,0.1263551265001297,0
62,100,0.6,88,1,49,_DL_Japanese_Folk_Pop_Acoustic_Folk_Guitar,6,10,_DL_Japanese_Folk_Pop_Acoustic_Folk_Guitar,0.9990280866622925,1
59,100,0.1,703,1,49,_DL_Japanese_Folk_Pop_Acoustic_Folk_Guitar,6,2,_DL_Japanese_Folk_Pop_Acoustic_Folk_Guitar,0.3703381419181824,0
52,100,0.23636363636363636,810,0,49,_DL_Japanese_Folk_Pop_Acoustic_Folk_Guitar,6,4,_DL_Japanese_Folk_Pop_Acoustic_Folk_Guitar,0.456171452999115,0
52,100,0.4818181818181818,66,1,50,_DL_Japanese_Folk_Pop_Acoustic_Folk_Guitar,6,8,_DL_Japanese_Folk_Pop_Acoustic_Folk_Guitar,0.9983735084533691,1
52,100,0.2,260,0,50,_DL_Japanese_Folk_Pop_Acoustic_Folk_Guitar,6,3,_DL_Japanese_Folk_Pop_Acoustic_Folk_Guitar,0.051050130277872086,0
52,100,0.21818181818181817,308,0,50,_DL_Japanese_Folk_Pop_Acoustic_Folk_Guitar,6,3,_DL_Japanese_Folk_Pop_Acoustic_Folk_Guitar,0.04161302372813225,0
57,100,0.38181818181818183,364,0,50,_DL_Japanese_Folk_Pop_Acoustic_Folk_Guitar,6,6,_DL_Japanese_Folk_Pop_Acoustic_Folk_Guitar,0.03798097372055054,0
57,100,0.2,550,0,50,_DL_Japanese_Folk_Pop_Acoustic_Folk_Guitar,6,3,_DL_Japanese_Folk_Pop_Acoustic_Folk_Guitar,0.03926181420683861,0
56,100,0.4,593,0,50,_DL_Japanese_Folk_Pop_Acoustic_Folk_Guitar,6,6,_DL_Japanese_Folk_Pop_Acoustic_Folk_Guitar,0.046168483793735504,0
56,100,0.22272727272727272,738,0,50,_DL_Japanese_Folk_Pop_Acoustic_Folk_Guitar,6,4,_DL_Japanese_Folk_Pop_Acoustic_Folk_Guitar,0.05713425204157829,0
57,100,0.41818181818181815,810,0,50,_DL_Japanese_Folk_Pop_Acoustic_Folk_Guitar,6,7,_DL_Japanese_Folk_Pop_Acoustic_Folk_Guitar,0.09188362956047058,0
57,100,0.5772727272727273,61,1,51,_DL_Japanese_Folk_Pop_Acoustic_Folk_Guitar,6,9,_DL_Japanese_Folk_Pop_Acoustic_Folk_Guitar,0.9990094900131226,1
69,100,0.35909090909090907,193,0,51,_DL_Japanese_Folk_Pop_Acoustic_Folk_Guitar,6,6,_DL_Japanese_Folk_Pop_Acoustic_Folk_Guitar,0.23323126137256622,0
57,100,0.11818181818181818,273,0,51,_DL_Japanese_Folk_Pop_Acoustic_Folk_Guitar,6,2,_DL_Japanese_Folk_Pop_Acoustic_Folk_Guitar,0.2705843150615692,0
61,100,0.13636363636363635,413,0,51,_DL_Japanese_Folk_Pop_Acoustic_Folk_Guitar,6,2,_DL_Japanese_Folk_Pop_Acoustic_Folk_Guitar,0.3579294681549072,0
61,100,0.18181818181818182,373,1,52,_DL_Japanese_Folk_Pop_Acoustic_Folk_Guitar,6,3,_DL_Japanese_Folk_Pop_Acoustic_Folk_Guitar,0.9990094900131226,1
61,100,0.2590909090909091,518,0,52,_DL_Japanese_Folk_Pop_Acoustic_Folk_Guitar,6,4,_DL_Japanese_Folk_Pop_Acoustic_Folk_Guitar,0.23324017226696014,0
64,100,0.6227272727272727,628,0,52,_DL_Japanese_Folk_Pop_Acoustic_Folk_Guitar,6,10,_DL_Japanese_Folk_Pop_Acoustic_Folk_Guitar,0.27059295773506165,0
61,100,0.5363636363636364,831,0,52,_DL_Japanese_Folk_Pop_Acoustic_Folk_Guitar,6,9,_DL_Japanese_Folk_Pop_Acoustic_Folk_Guitar,0.35793444514274597,0
61,100,0.3,141,1,53,_DL_Japanese_Folk_Pop_Acoustic_Folk_Guitar,6,5,_DL_Japanese_Folk_Pop_Acoustic_Folk_Guitar,0.9990094900131226,1
61,100,0.11818181818181818,220,0,53,_DL_Japanese_Folk_Pop_Acoustic_Folk_Guitar,6,2,_DL_Japanese_Folk_Pop_Acoustic_Folk_Guitar,0.2332342565059662,0
62,100,0.5,268,0,53,_DL_Japanese_Folk_Pop_Acoustic_Folk_Guitar,6,8,_DL_Japanese_Folk_Pop_Acoustic_Folk_Guitar,0.27058494091033936,0
62,100,0.8,584,1,53,_DL_Japanese_Folk_Pop_Acoustic_Folk_Guitar,6,13,_DL_Japanese_Folk_Pop_Acoustic_Folk_Guitar,0.35793745517730713,0
52,100,0.38181818181818183,4,1,54,_DL_Japanese_Folk_Pop_Acoustic_Folk_Guitar,6,6,_DL_Japanese_Folk_Pop_Acoustic_Folk_Guitar,0.9990094900131226,1
52,100,0.22272727272727272,343,1,54,_DL_Japanese_Folk_Pop_Acoustic_Folk_Guitar,6,4,_DL_Japanese_Folk_Pop_Acoustic_Folk_Guitar,0.23323120176792145,0
59,100,0.21818181818181817,713,1,54,_DL_Japanese_Folk_Pop_Acoustic_Folk_Guitar,6,3,_DL_Japanese_Folk_Pop_Acoustic_Folk_Guitar,0.2705916464328766,0
61,100,0.18181818181818182,839,0,54,_DL_Japanese_Folk_Pop_Acoustic_Folk_Guitar,6,3,_DL_Japanese_Folk_Pop_Acoustic_Folk_Guitar,0.3579213321208954,0
61,100,0.35909090909090907,18,1,55,_DL_Japanese_Folk_Pop_Acoustic_Folk_Guitar,6,6,_DL_Japanese_Folk_Pop_Acoustic_Folk_Guitar,0.9990094900131226,1
54,100,0.12272727272727273,563,1,55,_DL_Japanese_Folk_Pop_Acoustic_Folk_Guitar,6,2,_DL_Japanese_Folk_Pop_Acoustic_Folk_Guitar,0.23322881758213043,0
62,100,0.16363636363636364,796,1,55,_DL_Japanese_Folk_Pop_Acoustic_Folk_Guitar,6,3,_DL_Japanese_Folk_Pop_Acoustic_Folk_Guitar,0.2705829441547394,0
59,100,0.5,853,0,55,_DL_Japanese_Folk_Pop_Acoustic_Folk_Guitar,6,8,_DL_Japanese_Folk_Pop_Acoustic_Folk_Guitar,0.35792744159698486,0
54,100,0.1590909090909091,123,1,56,_DL_Japanese_Folk_Pop_Acoustic_Folk_Guitar,6,3,_DL_Japanese_Folk_Pop_Acoustic_Folk_Guitar,0.9990094900131226,1
62,100,0.2409090909090909,509,1,56,_DL_Japanese_Folk_Pop_Acoustic_Folk_Guitar,6,4,_DL_Japanese_Folk_Pop_Acoustic_Folk_Guitar,0.23323343694210052,0
61,100,0.8363636363636363,678,0,56,_DL_Japanese_Folk_Pop_Acoustic_Folk_Guitar,6,13,_DL_Japanese_Folk_Pop_Acoustic_Folk_Guitar,0.2705771327018738,0
61,100,0.21818181818181817,866,0,56,_DL_Japanese_Folk_Pop_Acoustic_Folk_Guitar,6,3,_DL_Japanese_Folk_Pop_Acoustic_Folk_Guitar,0.3579319417476654,0
69,100,0.2409090909090909,48,1,57,_DL_Japanese_Folk_Pop_Acoustic_Folk_Guitar,6,4,_DL_Japanese_Folk_Pop_Acoustic_Folk_Guitar,0.9984879493713379,1
61,100,0.2409090909090909,110,0,57,_DL_Japanese_Folk_Pop_Acoustic_Folk_Guitar,6,4,_DL_Japanese_Folk_Pop_Acoustic_Folk_Guitar,0.06335470080375671,0
61,100,0.1590909090909091,254,0,57,_DL_Japanese_Folk_Pop_Acoustic_Folk_Guitar,6,3,_DL_Japanese_Folk_Pop_Acoustic_Folk_Guitar,0.058290913701057434,0
69,100,0.2409090909090909,373,0,57,_DL_Japanese_Folk_Pop_Acoustic_Folk_Guitar,6,4,_DL_Japanese_Folk_Pop_Acoustic_Folk_Guitar,0.061364058405160904,0
57,100,0.11818181818181818,616,1,57,_DL_Japanese_Folk_Pop_Acoustic_Folk_Guitar,6,2,_DL_Japanese_Folk_Pop_Acoustic_Folk_Guitar,0.07168315351009369,0
66,100,0.16363636363636364,641,0,57,_DL_Japanese_Folk_Pop_Acoustic_Folk_Guitar,6,3,_DL_Japanese_Folk_Pop_Acoustic_Folk_Guitar,0.08473891764879227,0
62,100,0.6181818181818182,810,0,57,_DL_Japanese_Folk_Pop_Acoustic_Folk_Guitar,6,10,_DL_Japanese_Folk_Pop_Acoustic_Folk_Guitar,0.1263521909713745,0
62,100,0.4409090909090909,251,1,58,_DL_Japanese_Folk_Pop_Acoustic_Folk_Guitar,6,7,_DL_Japanese_Folk_Pop_Acoustic_Folk_Guitar,0.9990094900131226,1
59,100,0.2590909090909091,628,1,58,_DL_Japanese_Folk_Pop_Acoustic_Folk_Guitar,6,4,_DL_Japanese_Folk_Pop_Acoustic_Folk_Guitar,0.2332325279712677,0
62,100,0.41818181818181815,703,0,58,_DL_Japanese_Folk_Pop_Acoustic_Folk_Guitar,6,7,_DL_Japanese_Folk_Pop_Acoustic_Folk_Guitar,0.27058178186416626,0
59,100,0.1409090909090909,801,0,58,_DL_Japanese_Folk_Pop_Acoustic_Folk_Guitar,6,2,_DL_Japanese_Folk_Pop_Acoustic_Folk_Guitar,0.3579328656196594,0
66,100,0.1409090909090909,21,1,59,_DL_Japanese_Folk_Pop_Acoustic_Folk_Guitar,6,2,_DL_Japanese_Folk_Pop_Acoustic_Folk_Guitar,0.9990280866622925,1
59,100,0.11818181818181818,536,1,59,_DL_Japanese_Folk_Pop_Acoustic_Folk_Guitar,6,2,_DL_Japanese_Folk_Pop_Acoustic_Folk_Guitar,0.37033510208129883,0
59,100,0.18181818181818182,571,0,59,_DL_Japanese_Folk_Pop_Acoustic_Folk_Guitar,6,3,_DL_Japanese_Folk_Pop_Acoustic_Folk_Guitar,0.45616406202316284,0
62,100,0.1,201,1,60,_DL_Japanese_Folk_Pop_Acoustic_Folk_Guitar,6,2,_DL_Japanese_Folk_Pop_Acoustic_Folk_Guitar,0.9988439083099365,1
57,100,0.1,581,1,60,_DL_Japanese_Folk_Pop_Acoustic_Folk_Guitar,6,2,_DL_Japanese_Folk_Pop_Acoustic_Folk_Guitar,0.137980118393898,0
57,100,0.3,606,0,60,_DL_Japanese_Folk_Pop_Acoustic_Folk_Guitar,6,5,_DL_Japanese_Folk_Pop_Acoustic_Folk_Guitar,0.162366583943367,0
59,100,0.2590909090909091,700,0,60,_DL_Japanese_Folk_Pop_Acoustic_Folk_Guitar,6,4,_DL_Japanese_Folk_Pop_Acoustic_Folk_Guitar,0.19106262922286987,0
64,100,0.16363636363636364,861,0,60,_DL_Japanese_Folk_Pop_Acoustic_Folk_Guitar,6,3,_DL_Japanese_Folk_Pop_Acoustic_Folk_Guitar,0.26197561621665955,0
61,100,0.5818181818181818,21,1,61,_DL_Japanese_Folk_Pop_Acoustic_Folk_Guitar,6,9,_DL_Japanese_Folk_Pop_Acoustic_Folk_Guitar,0.9990094900131226,1
59,100,0.11818181818181818,153,0,61,_DL_Japanese_Folk_Pop_Acoustic_Folk_Guitar,6,2,_DL_Japanese_Folk_Pop_Acoustic_Folk_Guitar,0.23323467373847961,0
57,100,0.2590909090909091,330,0,61,_DL_Japanese_Folk_Pop_Acoustic_Folk_Guitar,6,4,_DL_Japanese_Folk_Pop_Acoustic_Folk_Guitar,0.2705814242362976,0
59,100,0.5181818181818182,655,1,61,_DL_Japanese_Folk_Pop_Acoustic_Folk_Guitar,6,8,_DL_Japanese_Folk_Pop_Acoustic_Folk_Guitar,0.3579275608062744,0
61,100,0.12272727272727273,34,1,62,_DL_Japanese_Folk_Pop_Acoustic_Folk_Guitar,6,2,_DL_Japanese_Folk_Pop_Acoustic_Folk_Guitar,0.9988439083099365,1
57,100,0.8590909090909091,75,0,62,_DL_Japanese_Folk_Pop_Acoustic_Folk_Guitar,6,14,_DL_Japanese_Folk_Pop_Acoustic_Folk_Guitar,0.1379801332950592,0
61,100,0.8,268,0,62,_DL_Japanese_Folk_Pop_Acoustic_Folk_Guitar,6,13,_DL_Japanese_Folk_Pop_Acoustic_Folk_Guitar,0.162363201379776,0
57,100,0.17727272727272728,691,1,62,_DL_Japanese_Folk_Pop_Acoustic_Folk_Guitar,6,3,_DL_Japanese_Folk_Pop_Acoustic_Folk_Guitar,0.19105856120586395,0
59,100,0.11818181818181818,791,0,62,_DL_Japanese_Folk_Pop_Acoustic_Folk_Guitar,6,2,_DL_Japanese_Folk_Pop_Acoustic_Folk_Guitar,0.26196470856666565,0
52,100,0.2409090909090909,176,1,63,_DL_Japanese_Folk_Pop_Acoustic_Folk_Guitar,6,4,_DL_Japanese_Folk_Pop_Acoustic_Folk_Guitar,0.9983004927635193,1
56,100,0.2,246,0,63,_DL_Japanese_Folk_Pop_Acoustic_Folk_Guitar,6,3,_DL_Japanese_Folk_Pop_Acoustic_Folk_Guitar,0.04466206952929497,0
56,100,0.1590909090909091,370,0,63,_DL_Japanese_Folk_Pop_Acoustic_Folk_Guitar,6,3,_DL_Japanese_Folk_Pop_Acoustic_Folk_Guitar,0.0333733856678009,0
68,100,0.17727272727272728,471,0,63,_DL_Japanese_Folk_Pop_Acoustic_Folk_Guitar,6,3,_DL_Japanese_Folk_Pop_Acoustic_Folk_Guitar,0.02694869041442871,0
57,100,0.18181818181818182,598,0,63,_DL_Japanese_Folk_Pop_Acoustic_Folk_Guitar,6,3,_DL_Japanese_Folk_Pop_Acoustic_Folk_Guitar,0.02408534288406372,0
61,100,0.11818181818181818,681,0,63,_DL_Japanese_Folk_Pop_Acoustic_Folk_Guitar,6,2,_DL_Japanese_Folk_Pop_Acoustic_Folk_Guitar,0.024974346160888672,0
57,100,0.3,716,0,63,_DL_Japanese_Folk_Pop_Acoustic_Folk_Guitar,6,5,_DL_Japanese_Folk_Pop_Acoustic_Folk_Guitar,0.03064952790737152,0
61,100,0.3,796,0,63,_DL_Japanese_Folk_Pop_Acoustic_Folk_Guitar,6,5,_DL_Japanese_Folk_Pop_Acoustic_Folk_Guitar,0.04137170687317848,0
57,100,0.3181818181818182,866,0,63,_DL_Japanese_Folk_Pop_Acoustic_Folk_Guitar,6,5,_DL_Japanese_Folk_Pop_Acoustic_Folk_Guitar,0.07207297533750534,0
61,100,0.23636363636363636,83,1,64,_DL_Japanese_Folk_Pop_Acoustic_Folk_Guitar,6,4,_DL_Japanese_Folk_Pop_Acoustic_Folk_Guitar,0.9990094900131226,1
59,100,0.1,179,0,64,_DL_Japanese_Folk_Pop_Acoustic_Folk_Guitar,6,2,_DL_Japanese_Folk_Pop_Acoustic_Folk_Guitar,0.23323193192481995,0
61,100,0.16363636363636364,422,1,64,_DL_Japanese_Folk_Pop_Acoustic_Folk_Guitar,6,3,_DL_Japanese_Folk_Pop_Acoustic_Folk_Guitar,0.27057698369026184,0
61,100,0.7,580,0,64,_DL_Japanese_Folk_Pop_Acoustic_Folk_Guitar,6,11,_DL_Japanese_Folk_Pop_Acoustic_Folk_Guitar,0.35792258381843567,0
59,100,0.12272727272727273,123,1,65,_DL_Japanese_Folk_Pop_Acoustic_Folk_Guitar,6,2,_DL_Japanese_Folk_Pop_Acoustic_Folk_Guitar,0.9986506104469299,1
56,100,0.2,509,1,65,_DL_Japanese_Folk_Pop_Acoustic_Folk_Guitar,6,3,_DL_Japanese_Folk_Pop_Acoustic_Folk_Guitar,0.08797930926084518,0
64,100,0.13636363636363635,633,0,65,_DL_Japanese_Folk_Pop_Acoustic_Folk_Guitar,6,2,_DL_Japanese_Folk_Pop_Acoustic_Folk_Guitar,0.09298749268054962,0
59,100,0.36363636363636365,686,0,65,_DL_Japanese_Folk_Pop_Acoustic_Folk_Guitar,6,6,_DL_Japanese_Folk_Pop_Acoustic_Folk_Guitar,0.10995084047317505,0
52,100,0.18181818181818182,792,0,65,_DL_Japanese_Folk_Pop_Acoustic_Folk_Guitar,6,3,_DL_Japanese_Folk_Pop_Acoustic_Folk_Guitar,0.12867730855941772,0
57,100,0.37727272727272726,876,0,65,_DL_Japanese_Folk_Pop_Acoustic_Folk_Guitar,6,6,_DL_Japanese_Folk_Pop_Acoustic_Folk_Guitar,0.18222017586231232,0
61,100,0.740909090909091,96,1,66,_DL_Japanese_Folk_Pop_Acoustic_Folk_Guitar,6,12,_DL_Japanese_Folk_Pop_Acoustic_Folk_Guitar,0.9984879493713379,1
57,100,0.21818181818181817,260,0,66,_DL_Japanese_Folk_Pop_Acoustic_Folk_Guitar,6,3,_DL_Japanese_Folk_Pop_Acoustic_Folk_Guitar,0.0633542612195015,0
61,100,0.2409090909090909,320,0,66,_DL_Japanese_Folk_Pop_Acoustic_Folk_Guitar,6,4,_DL_Japanese_Folk_Pop_Acoustic_Folk_Guitar,0.058291755616664886,0
57,100,0.12272727272727273,409,0,66,_DL_Japanese_Folk_Pop_Acoustic_Folk_Guitar,6,2,_DL_Japanese_Folk_Pop_Acoustic_Folk_Guitar,0.061363670974969864,0
57,100,0.12272727272727273,629,0,66,_DL_Japanese_Folk_Pop_Acoustic_Folk_Guitar,6,2,_DL_Japanese_Folk_Pop_Acoustic_Folk_Guitar,0.07168824225664139,0
61,100,0.5590909090909091,690,0,66,_DL_Japanese_Folk_Pop_Acoustic_Folk_Guitar,6,9,_DL_Japanese_Folk_Pop_Acoustic_Folk_Guitar,0.0847364291548729,0
61,100,0.11818181818181818,857,0,66,_DL_Japanese_Folk_Pop_Acoustic_Folk_Guitar,6,2,_DL_Japanese_Folk_Pop_Acoustic_Folk_Guitar,0.12635712325572968,0
61,100,0.1,17,1,67,_DL_Japanese_Folk_Pop_Acoustic_Folk_Guitar,6,2,_DL_Japanese_Folk_Pop_Acoustic_Folk_Guitar,0.9988439083099365,1
61,100,0.2772727272727273,53,0,67,_DL_Japanese_Folk_Pop_Acoustic_Folk_Guitar,6,4,_DL_Japanese_Folk_Pop_Acoustic_Folk_Guitar,0.13798440992832184,0
69,100,0.1590909090909091,360,1,67,_DL_Japanese_Folk_Pop_Acoustic_Folk_Guitar,6,3,_DL_Japanese_Folk_Pop_Acoustic_Folk_Guitar,0.1623656004667282,0
62,100,0.12272727272727273,475,0,67,_DL_Japanese_Folk_Pop_Acoustic_Folk_Guitar,6,2,_DL_Japanese_Folk_Pop_Acoustic_Folk_Guitar,0.19106580317020416,0
59,100,0.5818181818181818,760,1,67,_DL_Japanese_Folk_Pop_Acoustic_Folk_Guitar,6,9,_DL_Japanese_Folk_Pop_Acoustic_Folk_Guitar,0.26197269558906555,0
59,100,0.2590909090909091,13,1,68,_DL_Japanese_Folk_Pop_Acoustic_Folk_Guitar,6,4,_DL_Japanese_Folk_Pop_Acoustic_Folk_Guitar,0.9988439083099365,1
59,100,0.2409090909090909,519,1,68,_DL_Japanese_Folk_Pop_Acoustic_Folk_Guitar,6,4,_DL_Japanese_Folk_Pop_Acoustic_Folk_Guitar,0.13798190653324127,0
61,100,0.2409090909090909,585,0,68,_DL_Japanese_Folk_Pop_Acoustic_Folk_Guitar,6,4,_DL_Japanese_Folk_Pop_Acoustic_Folk_Guitar,0.16236256062984467,0
61,100,0.13636363636363635,677,0,68,_DL_Japanese_Folk_Pop_Acoustic_Folk_Guitar,6,2,_DL_Japanese_Folk_Pop_Acoustic_Folk_Guitar,0.19105905294418335,0
57,100,0.4409090909090909,747,0,68,_DL_Japanese_Folk_Pop_Acoustic_Folk_Guitar,6,7,_DL_Japanese_Folk_Pop_Acoustic_Folk_Guitar,0.26196619868278503,0
64,100,0.11818181818181818,373,1,69,_DL_Japanese_Folk_Pop_Acoustic_Folk_Guitar,6,2,_DL_Japanese_Folk_Pop_Acoustic_Folk_Guitar,0.9990280866622925,1
57,100,0.4590909090909091,593,0,69,_DL_Japanese_Folk_Pop_Acoustic_Folk_Guitar,6,7,_DL_Japanese_Folk_Pop_Acoustic_Folk_Guitar,0.3703395128250122,0
57,100,0.22272727272727272,849,1,69,_DL_Japanese_Folk_Pop_Acoustic_Folk_Guitar,6,4,_DL_Japanese_Folk_Pop_Acoustic_Folk_Guitar,0.4561733305454254,0
64,100,0.1,210,1,70,_DL_Japanese_Folk_Pop_Acoustic_Folk_Guitar,6,2,_DL_Japanese_Folk_Pop_Acoustic_Folk_Guitar,0.9986506104469299,1
64,100,0.3181818181818182,417,0,70,_DL_Japanese_Folk_Pop_Acoustic_Folk_Guitar,6,5,_DL_Japanese_Folk_Pop_Acoustic_Folk_Guitar,0.08797844499349594,0
57,100,0.7181818181818181,502,0,70,_DL_Japanese_Folk_Pop_Acoustic_Folk_Guitar,6,11,_DL_Japanese_Folk_Pop_Acoustic_Folk_Guitar,0.09298345446586609,0
61,100,0.18181818181818182,752,1,70,_DL_Japanese_Folk_Pop_Acoustic_Folk_Guitar,6,3,_DL_Japanese_Folk_Pop_Acoustic_Folk_Guitar,0.10994940251111984,0
61,100,0.17727272727272728,810,0,70,_DL_Japanese_Folk_Pop_Acoustic_Folk_Guitar,6,3,_DL_Japanese_Folk_Pop_Acoustic_Folk_Guitar,0.128669872879982,0
61,100,0.2590909090909091,866,0,70,_DL_Japanese_Folk_Pop_Acoustic_Folk_Guitar,6,4,_DL_Japanese_Folk_Pop_Acoustic_Folk_Guitar,0.18221884965896606,0
57,100,0.2409090909090909,163,1,71,_DL_Japanese_Folk_Pop_Acoustic_Folk_Guitar,6,4,_DL_Japanese_Folk_Pop_Acoustic_Folk_Guitar,0.9988439083099365,1
57,100,0.4,263,0,71,_DL_Japanese_Folk_Pop_Acoustic_Folk_Guitar,6,6,_DL_Japanese_Folk_Pop_Acoustic_Folk_Guitar,0.13798847794532776,0
61,100,0.8227272727272728,365,0,71,_DL_Japanese_Folk_Pop_Acoustic_Folk_Guitar,6,13,_DL_Japanese_Folk_Pop_Acoustic_Folk_Guitar,0.16236576437950134,0
57,100,0.1409090909090909,553,0,71,_DL_Japanese_Folk_Pop_Acoustic_Folk_Guitar,6,2,_DL_Japanese_Folk_Pop_Acoustic_Folk_Guitar,0.19106541574001312,0
62,100,0.11818181818181818,612,0,71,_DL_Japanese_Folk_Pop_Acoustic_Folk_Guitar,6,2,_DL_Japanese_Folk_Pop_Acoustic_Folk_Guitar,0.26197269558906555,0
57,100,0.3409090909090909,26,1,72,_DL_Japanese_Folk_Pop_Acoustic_Folk_Guitar,6,5,_DL_Japanese_Folk_Pop_Acoustic_Folk_Guitar,0.9990094900131226,1
62,100,0.5227272727272727,113,0,72,_DL_Japanese_Folk_Pop_Acoustic_Folk_Guitar,6,8,_DL_Japanese_Folk_Pop_Acoustic_Folk_Guitar,0.2332313507795334,0
59,100,0.2409090909090909,462,1,72,_DL_Japanese_Folk_Pop_Acoustic_Folk_Guitar,6,4,_DL_Japanese_Folk_Pop_Acoustic_Folk_Guitar,0.2705831825733185,0
64,100,0.2409090909090909,650,0,72,_DL_Japanese_Folk_Pop_Acoustic_Folk_Guitar,6,4,_DL_Japanese_Folk_Pop_Acoustic_Folk_Guitar,0.3579350709915161,0
64,100,0.16363636363636364,179,1,73,_DL_Japanese_Folk_Pop_Acoustic_Folk_Guitar,6,3,_DL_Japanese_Folk_Pop_Acoustic_Folk_Guitar,0.9990094900131226,1
61,100,0.4818181818181818,576,1,73,_DL_Japanese_Folk_Pop_Acoustic_Folk_Guitar,6,8,_DL_Japanese_Folk_Pop_Acoustic_Folk_Guitar,0.23323026299476624,0
61,100,0.1,722,0,73,_DL_Japanese_Folk_Pop_Acoustic_Folk_Guitar,6,2,_DL_Japanese_Folk_Pop_Acoustic_Folk_Guitar,0.27058345079421997,0
61,100,0.759090909090909,747,0,73,_DL_Japanese_Folk_Pop_Acoustic_Folk_Guitar,6,12,_DL_Japanese_Folk_Pop_Acoustic_Folk_Guitar,0.3579244017601013,0
66,100,0.8,74,1,74,_DL_Japanese_Folk_Pop_Acoustic_Folk_Guitar,6,13,_DL_Japanese_Folk_Pop_Acoustic_Folk_Guitar,0.9988439083099365,1
57,100,0.6409090909090909,255,0,74,_DL_Japanese_Folk_Pop_Acoustic_Folk_Guitar,6,10,_DL_Japanese_Folk_Pop_Acoustic_Folk_Guitar,0.13797807693481445,0
59,100,0.2772727272727273,567,1,74,_DL_Japanese_Folk_Pop_Acoustic_Folk_Guitar,6,4,_DL_Japanese_Folk_Pop_Acoustic_Folk_Guitar,0.16235996782779694,0
59,100,0.1,760,0,74,_DL_Japanese_Folk_Pop_Acoustic_Folk_Guitar,6,2,_DL_Japanese_Folk_Pop_Acoustic_Folk_Guitar,0.1910506933927536,0
64,100,0.1,813,0,74,_DL_Japanese_Folk_Pop_Acoustic_Folk_Guitar,6,2,_DL_Japanese_Folk_Pop_Acoustic_Folk_Guitar,0.2619623839855194,0
59,100,0.1,3,1,75,_DL_Japanese_Folk_Pop_Acoustic_Folk_Guitar,6,2,_DL_Japanese_Folk_Pop_Acoustic_Folk_Guitar,0.998228132724762,1
61,100,0.1,30,0,75,_DL_Japanese_Folk_Pop_Acoustic_Folk_Guitar,6,2,_DL_Japanese_Folk_Pop_Acoustic_Folk_Guitar,0.03940209001302719,0
64,100,0.4772727272727273,83,0,75,_DL_Japanese_Folk_Pop_Acoustic_Folk_Guitar,6,8,_DL_Japanese_Folk_Pop_Acoustic_Folk_Guitar,0.026854578405618668,0
53,100,0.11818181818181818,193,0,75,_DL_Japanese_Folk_Pop_Acoustic_Folk_Guitar,6,2,_DL_Japanese_Folk_Pop_Acoustic_Folk_Guitar,0.01883084699511528,0
61,100,0.1590909090909091,263,0,75,_DL_Japanese_Folk_Pop_Acoustic_Folk_Guitar,6,3,_DL_Japanese_Folk_Pop_Acoustic_Folk_Guitar,0.013654536567628384,0
61,100,0.3409090909090909,312,0,75,_DL_Japanese_Folk_Pop_Acoustic_Folk_Guitar,6,5,_DL_Japanese_Folk_Pop_Acoustic_Folk_Guitar,0.010812949389219284,0
57,100,0.2590909090909091,392,0,75,_DL_Japanese_Folk_Pop_Acoustic_Folk_Guitar,6,4,_DL_Japanese_Folk_Pop_Acoustic_Folk_Guitar,0.010073420591652393,0
61,100,0.2409090909090909,509,0,75,_DL_Japanese_Folk_Pop_Acoustic_Folk_Guitar,6,4,_DL_Japanese_Folk_Pop_Acoustic_Folk_Guitar,0.011716673150658607,0
61,100,0.5818181818181818,572,0,75,_DL_Japanese_Folk_Pop_Acoustic_Folk_Guitar,6,9,_DL_Japanese_Folk_Pop_Acoustic_Folk_Guitar,0.01699252426624298,0
54,100,0.5181818181818182,722,0,75,_DL_Japanese_Folk_Pop_Acoustic_Folk_Guitar,6,8,_DL_Japanese_Folk_Pop_Acoustic_Folk_Guitar,0.027580153197050095,0
61,100,0.740909090909091,862,0,75,_DL_Japanese_Folk_Pop_Acoustic_Folk_Guitar,6,12,_DL_Japanese_Folk_Pop_Acoustic_Folk_Guitar,0.05459383875131607,0
62,100,0.2772727272727273,216,1,76,_DL_Japanese_Folk_Pop_Acoustic_Folk_Guitar,6,4,_DL_Japanese_Folk_Pop_Acoustic_Folk_Guitar,0.9986506104469299,1
59,100,0.21818181818181817,330,0,76,_DL_Japanese_Folk_Pop_Acoustic_Folk_Guitar,6,3,_DL_Japanese_Folk_Pop_Acoustic_Folk_Guitar,0.0879826694726944,0
62,100,0.6,386,0,76,_DL_Japanese_Folk_Pop_Acoustic_Folk_Guitar,6,10,_DL_Japanese_Folk_Pop_Acoustic_Folk_Guitar,0.09298953413963318,0
66,100,0.1409090909090909,682,1,76,_DL_Japanese_Folk_Pop_Acoustic_Folk_Guitar,6,2,_DL_Japanese_Folk_Pop_Acoustic_Folk_Guitar,0.10995972156524658,0
66,100,0.2,716,0,76,_DL_Japanese_Folk_Pop_Acoustic_Folk_Guitar,6,3,_DL_Japanese_Folk_Pop_Acoustic_Folk_Guitar,0.12868069112300873,0
59,100,0.1,839,0,76,_DL_Japanese_Folk_Pop_Acoustic_Folk_Guitar,6,2,_DL_Japanese_Folk_Pop_Acoustic_Folk_Guitar,0.18223294615745544,0
52,100,0.38181818181818183,22,1,77,_DL_Japanese_Folk_Pop_Acoustic_Folk_Guitar,6,6,_DL_Japanese_Folk_Pop_Acoustic_Folk_Guitar,0.9986506104469299,1
59,100,0.2409090909090909,220,0,77,_DL_Japanese_Folk_Pop_Acoustic_Folk_Guitar,6,4,_DL_Japanese_Folk_Pop_Acoustic_Folk_Guitar,0.08797862380743027,0
52,100,0.5409090909090909,299,0,77,_DL_Japanese_Folk_Pop_Acoustic_Folk_Guitar,6,9,_DL_Japanese_Folk_Pop_Acoustic_Folk_Guitar,0.09298393875360489,0
61,100,0.6590909090909091,519,0,77,_DL_Japanese_Folk_Pop_Acoustic_Folk_Guitar,6,11,_DL_Japanese_Folk_Pop_Acoustic_Folk_Guitar,0.10994783043861389,0
61,100,0.11818181818181818,756,1,77,_DL_Japanese_Folk_Pop_Acoustic_Folk_Guitar,6,2,_DL_Japanese_Folk_Pop_Acoustic_Folk_Guitar,0.12867259979248047,0
61,100,0.7,805,0,77,_DL_Japanese_Folk_Pop_Acoustic_Folk_Guitar,6,11,_DL_Japanese_Folk_Pop_Acoustic_Folk_Guitar,0.1822170466184616,0
61,100,0.1590909090909091,127,1,78,_DL_Japanese_Folk_Pop_Acoustic_Folk_Guitar,6,3,_DL_Japanese_Folk_Pop_Acoustic_Folk_Guitar,0.9988439083099365,1
61,100,0.1,166,0,78,_DL_Japanese_Folk_Pop_Acoustic_Folk_Guitar,6,2,_DL_Japanese_Folk_Pop_Acoustic_Folk_Guitar,0.13798408210277557,0
61,100,0.6181818181818182,220,0,78,_DL_Japanese_Folk_Pop_Acoustic_Folk_Guitar,6,10,_DL_Japanese_Folk_Pop_Acoustic_Folk_Guitar,0.1623660773038864,0
57,100,0.2409090909090909,396,0,78,_DL_Japanese_Folk_Pop_Acoustic_Folk_Guitar,6,4,_DL_Japanese_Folk_Pop_Acoustic_Folk_Guitar,0.19105947017669678,0
69,100,0.1409090909090909,449,0,78,_DL_Japanese_Folk_Pop_Acoustic_Folk_Guitar,6,2,_DL_Japanese_Folk_Pop_Acoustic_Folk_Guitar,0.26196640729904175,0
64,100,0.9363636363636364,565,1,0,_DL_Japanese_Folk_Pop_Acoustic_Folk_Guitar_1,6,15,_DL_Japanese_Folk_Pop_Acoustic_Folk_Guitar_1,0.9792240262031555,1
52,100,0.1318181818181818,77,1,1,_DL_Japanese_Folk_Pop_Acoustic_Folk_Guitar_1,6,2,_DL_Japanese_Folk_Pop_Acoustic_Folk_Guitar_1,0.9990094900131226,1
64,100,0.15454545454545454,171,0,1,_DL_Japanese_Folk_Pop_Acoustic_Folk_Guitar_1,6,2,_DL_Japanese_Folk_Pop_Acoustic_Folk_Guitar_1,0.23323285579681396,0
59,100,0.10909090909090909,279,0,1,_DL_Japanese_Folk_Pop_Acoustic_Folk_Guitar_1,6,2,_DL_Japanese_Folk_Pop_Acoustic_Folk_Guitar_1,0.2705836892127991,0
59,100,0.8909090909090909,672,1,1,_DL_Japanese_Folk_Pop_Acoustic_Folk_Guitar_1,6,14,_DL_Japanese_Folk_Pop_Acoustic_Folk_Guitar_1,0.3579266369342804,0
57,100,0.17727272727272728,110,1,2,_DL_Japanese_Folk_Pop_Acoustic_Folk_Guitar_1,6,3,_DL_Japanese_Folk_Pop_Acoustic_Folk_Guitar_1,0.9984880685806274,1
61,100,0.31363636363636366,247,0,2,_DL_Japanese_Folk_Pop_Acoustic_Folk_Guitar_1,6,5,_DL_Japanese_Folk_Pop_Acoustic_Folk_Guitar_1,0.06335362792015076,0
52,100,0.33636363636363636,360,0,2,_DL_Japanese_Folk_Pop_Acoustic_Folk_Guitar_1,6,5,_DL_Japanese_Folk_Pop_Acoustic_Folk_Guitar_1,0.05829011648893356,0
56,100,0.1318181818181818,449,0,2,_DL_Japanese_Folk_Pop_Acoustic_Folk_Guitar_1,6,2,_DL_Japanese_Folk_Pop_Acoustic_Folk_Guitar_1,0.061363812536001205,0
57,100,0.6909090909090909,504,0,2,_DL_Japanese_Folk_Pop_Acoustic_Folk_Guitar_1,6,11,_DL_Japanese_Folk_Pop_Acoustic_Folk_Guitar_1,0.07168471813201904,0
57,100,0.11363636363636363,660,0,2,_DL_Japanese_Folk_Pop_Acoustic_Folk_Guitar_1,6,2,_DL_Japanese_Folk_Pop_Acoustic_Folk_Guitar_1,0.0847368836402893,0
62,100,0.6454545454545455,739,0,2,_DL_Japanese_Folk_Pop_Acoustic_Folk_Guitar_1,6,10,_DL_Japanese_Folk_Pop_Acoustic_Folk_Guitar_1,0.12635138630867004,0
62,100,0.15454545454545454,6,1,3,_DL_Japanese_Folk_Pop_Acoustic_Folk_Guitar_1,6,2,_DL_Japanese_Folk_Pop_Acoustic_Folk_Guitar_1,0.9988439083099365,1
57,100,0.6681818181818182,45,0,3,_DL_Japanese_Folk_Pop_Acoustic_Folk_Guitar_1,6,11,_DL_Japanese_Folk_Pop_Acoustic_Folk_Guitar_1,0.13798458874225616,0
62,100,0.15454545454545454,351,1,3,_DL_Japanese_Folk_Pop_Acoustic_Folk_Guitar_1,6,2,_DL_Japanese_Folk_Pop_Acoustic_Folk_Guitar_1,0.16236940026283264,0
64,100,0.6045454545454545,418,0,3,_DL_Japanese_Folk_Pop_Acoustic_Folk_Guitar_1,6,10,_DL_Japanese_Folk_Pop_Acoustic_Folk_Guitar_1,0.1910681575536728,0
59,100,0.6045454545454545,639,0,3,_DL_Japanese_Folk_Pop_Acoustic_Folk_Guitar_1,6,10,_DL_Japanese_Folk_Pop_Acoustic_Folk_Guitar_1,0.26197728514671326,0
61,100,0.5545454545454546,686,1,6,_DL_Japanese_Folk_Pop_Acoustic_Folk_Guitar_1,6,9,_DL_Japanese_Folk_Pop_Acoustic_Folk_Guitar_1,0.9990280866622925,1
59,100,0.18181818181818182,808,0,6,_DL_Japanese_Folk_Pop_Acoustic_Folk_Guitar_1,6,3,_DL_Japanese_Folk_Pop_Acoustic_Folk_Guitar_1,0.3703458607196808,0
60,100,0.2,849,0,6,_DL_Japanese_Folk_Pop_Acoustic_Folk_Guitar_1,6,3,_DL_Japanese_Folk_Pop_Acoustic_Folk_Guitar_1,0.45617562532424927,0
59,100,0.2681818181818182,12,1,7,_DL_Japanese_Folk_Pop_Acoustic_Folk_Guitar_1,6,4,_DL_Japanese_Folk_Pop_Acoustic_Folk_Guitar_1,0.9983735084533691,1
57,100,0.2636363636363636,81,0,7,_DL_Japanese_Folk_Pop_Acoustic_Folk_Guitar_1,6,4,_DL_Japanese_Folk_Pop_Acoustic_Folk_Guitar_1,0.051050130277872086,0
57,100,0.1318181818181818,189,0,7,_DL_Japanese_Folk_Pop_Acoustic_Folk_Guitar_1,6,2,_DL_Japanese_Folk_Pop_Acoustic_Folk_Guitar_1,0.041613537818193436,0
56,100,0.33181818181818185,298,0,7,_DL_Japanese_Folk_Pop_Acoustic_Folk_Guitar_1,6,5,_DL_Japanese_Folk_Pop_Acoustic_Folk_Guitar_1,0.03798048570752144,0
52,100,0.37727272727272726,459,0,7,_DL_Japanese_Folk_Pop_Acoustic_Folk_Guitar_1,6,6,_DL_Japanese_Folk_Pop_Acoustic_Folk_Guitar_1,0.03926216810941696,0
52,100,0.10909090909090909,557,0,7,_DL_Japanese_Folk_Pop_Acoustic_Folk_Guitar_1,6,2,_DL_Japanese_Folk_Pop_Acoustic_Folk_Guitar_1,0.046167854219675064,0
52,100,0.17727272727272728,597,0,7,_DL_Japanese_Folk_Pop_Acoustic_Folk_Guitar_1,6,3,_DL_Japanese_Folk_Pop_Acoustic_Folk_Guitar_1,0.05713402107357979,0
57,100,0.5136363636363637,848,1,7,_DL_Japanese_Folk_Pop_Acoustic_Folk_Guitar_1,6,8,_DL_Japanese_Folk_Pop_Acoustic_Folk_Guitar_1,0.09187924861907959,0
57,100,0.5545454545454546,189,1,8,_DL_Japanese_Folk_Pop_Acoustic_Folk_Guitar_1,6,9,_DL_Japanese_Folk_Pop_Acoustic_Folk_Guitar_1,0.9990280866622925,1
57,100,0.22272727272727272,340,0,8,_DL_Japanese_Folk_Pop_Acoustic_Folk_Guitar_1,6,4,_DL_Japanese_Folk_Pop_Acoustic_Folk_Guitar_1,0.3703523874282837,0
57,100,0.37727272727272726,551,0,8,_DL_Japanese_Folk_Pop_Acoustic_Folk_Guitar_1,6,6,_DL_Japanese_Folk_Pop_Acoustic_Folk_Guitar_1,0.45617493987083435,0
57,100,0.37727272727272726,280,1,9,_DL_Japanese_Folk_Pop_Acoustic_Folk_Guitar_1,6,6,_DL_Japanese_Folk_Pop_Acoustic_Folk_Guitar_1,0.9990094900131226,1
54,100,0.42272727272727273,486,0,9,_DL_Japanese_Folk_Pop_Acoustic_Folk_Guitar_1,6,7,_DL_Japanese_Folk_Pop_Acoustic_Folk_Guitar_1,0.23323701322078705,0
69,100,0.2909090909090909,589,0,9,_DL_Japanese_Folk_Pop_Acoustic_Folk_Guitar_1,6,5,_DL_Japanese_Folk_Pop_Acoustic_Folk_Guitar_1,0.2705768942832947,0
69,100,0.10909090909090909,663,0,9,_DL_Japanese_Folk_Pop_Acoustic_Folk_Guitar_1,6,2,_DL_Japanese_Folk_Pop_Acoustic_Folk_Guitar_1,0.35792413353919983,0
57,100,0.6681818181818182,280,1,10,_DL_Japanese_Folk_Pop_Acoustic_Folk_Guitar_1,6,11,_DL_Japanese_Folk_Pop_Acoustic_Folk_Guitar_1,0.9988439083099365,1
69,100,0.11363636363636363,426,0,10,_DL_Japanese_Folk_Pop_Acoustic_Folk_Guitar_1,6,2,_DL_Japanese_Folk_Pop_Acoustic_Folk_Guitar_1,0.13798373937606812,0
56,100,0.4,491,0,10,_DL_Japanese_Folk_Pop_Acoustic_Folk_Guitar_1,6,6,_DL_Japanese_Folk_Pop_Acoustic_Folk_Guitar_1,0.16236165165901184,0
56,100,0.11363636363636363,584,0,10,_DL_Japanese_Folk_Pop_Acoustic_Folk_Guitar_1,6,2,_DL_Japanese_Folk_Pop_Acoustic_Folk_Guitar_1,0.19105783104896545,0
59,100,0.2681818181818182,697,0,10,_DL_Japanese_Folk_Pop_Acoustic_Folk_Guitar_1,6,4,_DL_Japanese_Folk_Pop_Acoustic_Folk_Guitar_1,0.2619621455669403,0
59,100,0.13636363636363635,381,1,11,_DL_Japanese_Folk_Pop_Acoustic_Folk_Guitar_1,6,2,_DL_Japanese_Folk_Pop_Acoustic_Folk_Guitar_1,0.9990094900131226,1
52,100,0.2909090909090909,613,1,11,_DL_Japanese_Folk_Pop_Acoustic_Folk_Guitar_1,6,5,_DL_Japanese_Folk_Pop_Acoustic_Folk_Guitar_1,0.23323655128479004,0
52,100,0.11363636363636363,696,0,11,_DL_Japanese_Folk_Pop_Acoustic_Folk_Guitar_1,6,2,_DL_Japanese_Folk_Pop_Acoustic_Folk_Guitar_1,0.2705974876880646,0
57,100,0.6272727272727273,749,0,11,_DL_Japanese_Folk_Pop_Acoustic_Folk_Guitar_1,6,10,_DL_Japanese_Folk_Pop_Acoustic_Folk_Guitar_1,0.35793331265449524,0
52,100,0.24545454545454545,316,1,12,_DL_Japanese_Folk_Pop_Acoustic_Folk_Guitar_1,6,4,_DL_Japanese_Folk_Pop_Acoustic_Folk_Guitar_1,0.9983232617378235,1
52,100,0.1590909090909091,376,0,12,_DL_Japanese_Folk_Pop_Acoustic_Folk_Guitar_1,6,3,_DL_Japanese_Folk_Pop_Acoustic_Folk_Guitar_1,0.546217679977417,1
57,100,0.8045454545454546,115,1,13,_DL_Japanese_Folk_Pop_Acoustic_Folk_Guitar_1,6,13,_DL_Japanese_Folk_Pop_Acoustic_Folk_Guitar_1,0.9990280866622925,1
57,100,0.11363636363636363,379,1,13,_DL_Japanese_Folk_Pop_Acoustic_Folk_Guitar_1,6,2,_DL_Japanese_Folk_Pop_Acoustic_Folk_Guitar_1,0.3703411817550659,0
64,100,0.8227272727272728,453,0,13,_DL_Japanese_Folk_Pop_Acoustic_Folk_Guitar_1,6,13,_DL_Japanese_Folk_Pop_Acoustic_Folk_Guitar_1,0.4561775028705597,0
59,100,0.6909090909090909,152,1,14,_DL_Japanese_Folk_Pop_Acoustic_Folk_Guitar_1,6,11,_DL_Japanese_Folk_Pop_Acoustic_Folk_Guitar_1,0.9990280866622925,1
62,100,0.24545454545454545,491,1,14,_DL_Japanese_Folk_Pop_Acoustic_Folk_Guitar_1,6,4,_DL_Japanese_Folk_Pop_Acoustic_Folk_Guitar_1,0.37034541368484497,0
62,100,0.7136363636363636,723,1,14,_DL_Japanese_Folk_Pop_Acoustic_Folk_Guitar_1,6,11,_DL_Japanese_Folk_Pop_Acoustic_Folk_Guitar_1,0.4561712443828583,0
57,100,0.17727272727272728,0,1,15,_DL_Japanese_Folk_Pop_Acoustic_Folk_Guitar_1,6,3,_DL_Japanese_Folk_Pop_Acoustic_Folk_Guitar_1,0.9986506104469299,1
57,100,0.31363636363636366,97,0,15,_DL_Japanese_Folk_Pop_Acoustic_Folk_Guitar_1,6,5,_DL_Japanese_Folk_Pop_Acoustic_Folk_Guitar_1,0.08798389881849289,0
57,100,0.15454545454545454,245,0,15,_DL_Japanese_Folk_Pop_Acoustic_Folk_Guitar_1,6,2,_DL_Japanese_Folk_Pop_Acoustic_Folk_Guitar_1,0.09299246966838837,0
57,100,0.2,290,0,15,_DL_Japanese_Folk_Pop_Acoustic_Folk_Guitar_1,6,3,_DL_Japanese_Folk_Pop_Acoustic_Folk_Guitar_1,0.10995812714099884,0
57,100,0.37727272727272726,775,1,15,_DL_Japanese_Folk_Pop_Acoustic_Folk_Guitar_1,6,6,_DL_Japanese_Folk_Pop_Acoustic_Folk_Guitar_1,0.12868216633796692,0
57,100,0.15454545454545454,878,0,15,_DL_Japanese_Folk_Pop_Acoustic_Folk_Guitar_1,6,2,_DL_Japanese_Folk_Pop_Acoustic_Folk_Guitar_1,0.18222221732139587,0
64,100,0.2909090909090909,381,1,16,_DL_Japanese_Folk_Pop_Acoustic_Folk_Guitar_1,6,5,_DL_Japanese_Folk_Pop_Acoustic_Folk_Guitar_1,0.9986506104469299,1
59,100,0.17727272727272728,559,0,16,_DL_Japanese_Folk_Pop_Acoustic_Folk_Guitar_1,6,3,_DL_Japanese_Folk_Pop_Acoustic_Folk_Guitar_1,0.08797843009233475,0
56,100,0.2,598,0,16,_DL_Japanese_Folk_Pop_Acoustic_Folk_Guitar_1,6,3,_DL_Japanese_Folk_Pop_Acoustic_Folk_Guitar_1,0.09298322349786758,0
59,100,0.2,677,0,16,_DL_Japanese_Folk_Pop_Acoustic_Folk_Guitar_1,6,3,_DL_Japanese_Folk_Pop_Acoustic_Folk_Guitar_1,0.10994944721460342,0
57,100,0.22272727272727272,790,0,16,_DL_Japanese_Folk_Pop_Acoustic_Folk_Guitar_1,6,4,_DL_Japanese_Folk_Pop_Acoustic_Folk_Guitar_1,0.12866908311843872,0
59,100,0.11363636363636363,873,0,16,_DL_Japanese_Folk_Pop_Acoustic_Folk_Guitar_1,6,2,_DL_Japanese_Folk_Pop_Acoustic_Folk_Guitar_1,0.18222111463546753,0
61,100,0.10909090909090909,116,1,17,_DL_Japanese_Folk_Pop_Acoustic_Folk_Guitar_1,6,2,_DL_Japanese_Folk_Pop_Acoustic_Folk_Guitar_1,0.9988439083099365,1
61,100,0.5590909090909091,169,0,17,_DL_Japanese_Folk_Pop_Acoustic_Folk_Guitar_1,6,9,_DL_Japanese_Folk_Pop_Acoustic_Folk_Guitar_1,0.13798260688781738,0
61,100,0.5136363636363637,298,0,17,_DL_Japanese_Folk_Pop_Acoustic_Folk_Guitar_1,6,8,_DL_Japanese_Folk_Pop_Acoustic_Folk_Guitar_1,0.16236929595470428,0
57,100,0.22272727272727272,494,0,17,_DL_Japanese_Folk_Pop_Acoustic_Folk_Guitar_1,6,4,_DL_Japanese_Folk_Pop_Acoustic_Folk_Guitar_1,0.191061869263649,0
61,100,0.9818181818181818,700,0,17,_DL_Japanese_Folk_Pop_Acoustic_Folk_Guitar_1,6,15,_DL_Japanese_Folk_Pop_Acoustic_Folk_Guitar_1,0.2619681656360626,0
57,100,0.24545454545454545,41,1,18,_DL_Japanese_Folk_Pop_Acoustic_Folk_Guitar_1,6,4,_DL_Japanese_Folk_Pop_Acoustic_Folk_Guitar_1,0.9986506104469299,1
61,100,0.35909090909090907,105,0,18,_DL_Japanese_Folk_Pop_Acoustic_Folk_Guitar_1,6,6,_DL_Japanese_Folk_Pop_Acoustic_Folk_Guitar_1,0.08797876536846161,0
62,100,0.15454545454545454,508,1,18,_DL_Japanese_Folk_Pop_Acoustic_Folk_Guitar_1,6,2,_DL_Japanese_Folk_Pop_Acoustic_Folk_Guitar_1,0.09298624843358994,0
62,100,0.11363636363636363,635,0,18,_DL_Japanese_Folk_Pop_Acoustic_Folk_Guitar_1,6,2,_DL_Japanese_Folk_Pop_Acoustic_Folk_Guitar_1,0.10995133966207504,0
57,100,0.31363636363636366,728,0,18,_DL_Japanese_Folk_Pop_Acoustic_Folk_Guitar_1,6,5,_DL_Japanese_Folk_Pop_Acoustic_Folk_Guitar_1,0.1286778748035431,0
56,100,0.2681818181818182,836,0,18,_DL_Japanese_Folk_Pop_Acoustic_Folk_Guitar_1,6,4,_DL_Japanese_Folk_Pop_Acoustic_Folk_Guitar_1,0.1822241097688675,0
59,100,0.24545454545454545,83,1,19,_DL_Japanese_Folk_Pop_Acoustic_Folk_Guitar_1,6,4,_DL_Japanese_Folk_Pop_Acoustic_Folk_Guitar_1,0.9990094900131226,1
56,100,0.45,255,0,19,_DL_Japanese_Folk_Pop_Acoustic_Folk_Guitar_1,6,7,_DL_Japanese_Folk_Pop_Acoustic_Folk_Guitar_1,0.23323343694210052,0
57,100,0.37727272727272726,354,0,19,_DL_Japanese_Folk_Pop_Acoustic_Folk_Guitar_1,6,6,_DL_Japanese_Folk_Pop_Acoustic_Folk_Guitar_1,0.2705879211425781,0
57,100,0.2909090909090909,643,1,19,_DL_Japanese_Folk_Pop_Acoustic_Folk_Guitar_1,6,5,_DL_Japanese_Folk_Pop_Acoustic_Folk_Guitar_1,0.3579280376434326,0
64,100,0.1318181818181818,133,1,20,_DL_Japanese_Folk_Pop_Acoustic_Folk_Guitar_1,6,2,_DL_Japanese_Folk_Pop_Acoustic_Folk_Guitar_1,0.9990280866622925,1
57,100,0.9363636363636364,539,1,20,_DL_Japanese_Folk_Pop_Acoustic_Folk_Guitar_1,6,15,_DL_Japanese_Folk_Pop_Acoustic_Folk_Guitar_1,0.3703434467315674,0
57,100,0.5590909090909091,750,0,20,_DL_Japanese_Folk_Pop_Acoustic_Folk_Guitar_1,6,9,_DL_Japanese_Folk_Pop_Acoustic_Folk_Guitar_1,0.4561667740345001,0
57,100,0.65,308,1,21,_DL_Japanese_Folk_Pop_Acoustic_Folk_Guitar_1,6,10,_DL_Japanese_Folk_Pop_Acoustic_Folk_Guitar_1,0.9990280866622925,1
56,100,0.4681818181818182,450,0,21,_DL_Japanese_Folk_Pop_Acoustic_Folk_Guitar_1,6,7,_DL_Japanese_Folk_Pop_Acoustic_Folk_Guitar_1,0.3703403174877167,0
59,100,0.33636363636363636,814,1,21,_DL_Japanese_Folk_Pop_Acoustic_Folk_Guitar_1,6,5,_DL_Japanese_Folk_Pop_Acoustic_Folk_Guitar_1,0.45617249608039856,0
59,100,0.17727272727272728,82,1,22,_DL_Japanese_Folk_Pop_Acoustic_Folk_Guitar_1,6,3,_DL_Japanese_Folk_Pop_Acoustic_Folk_Guitar_1,0.9986506104469299,1
61,100,0.7363636363636363,332,1,22,_DL_Japanese_Folk_Pop_Acoustic_Folk_Guitar_1,6,12,_DL_Japanese_Folk_Pop_Acoustic_Folk_Guitar_1,0.08797678351402283,0
59,100,0.2909090909090909,567,1,22,_DL_Japanese_Folk_Pop_Acoustic_Folk_Guitar_1,6,5,_DL_Japanese_Folk_Pop_Acoustic_Folk_Guitar_1,0.09298817813396454,0
57,100,0.2681818181818182,636,0,22,_DL_Japanese_Folk_Pop_Acoustic_Folk_Guitar_1,6,4,_DL_Japanese_Folk_Pop_Acoustic_Folk_Guitar_1,0.10994972288608551,0
64,100,0.2681818181818182,783,0,22,_DL_Japanese_Folk_Pop_Acoustic_Folk_Guitar_1,6,4,_DL_Japanese_Folk_Pop_Acoustic_Folk_Guitar_1,0.12867294251918793,0
64,100,0.22272727272727272,848,0,22,_DL_Japanese_Folk_Pop_Acoustic_Folk_Guitar_1,6,4,_DL_Japanese_Folk_Pop_Acoustic_Folk_Guitar_1,0.18222171068191528,0
57,100,0.31363636363636366,174,1,23,_DL_Japanese_Folk_Pop_Acoustic_Folk_Guitar_1,6,5,_DL_Japanese_Folk_Pop_Acoustic_Folk_Guitar_1,0.9988439083099365,1
57,100,0.17727272727272728,326,0,23,_DL_Japanese_Folk_Pop_Acoustic_Folk_Guitar_1,6,3,_DL_Japanese_Folk_Pop_Acoustic_Folk_Guitar_1,0.13799114525318146,0
57,100,0.2863636363636364,739,1,23,_DL_Japanese_Folk_Pop_Acoustic_Folk_Guitar_1,6,5,_DL_Japanese_Folk_Pop_Acoustic_Folk_Guitar_1,0.16237838566303253,0
69,100,0.13636363636363635,801,0,23,_DL_Japanese_Folk_Pop_Acoustic_Folk_Guitar_1,6,2,_DL_Japanese_Folk_Pop_Acoustic_Folk_Guitar_1,0.19106848537921906,0
57,100,0.35454545454545455,831,0,23,_DL_Japanese_Folk_Pop_Acoustic_Folk_Guitar_1,6,6,_DL_Japanese_Folk_Pop_Acoustic_Folk_Guitar_1,0.2619761824607849,0
59,100,0.1590909090909091,261,1,24,_DL_Japanese_Folk_Pop_Acoustic_Folk_Guitar_1,6,3,_DL_Japanese_Folk_Pop_Acoustic_Folk_Guitar_1,0.9986506104469299,1
52,100,0.11363636363636363,384,0,24,_DL_Japanese_Folk_Pop_Acoustic_Folk_Guitar_1,6,2,_DL_Japanese_Folk_Pop_Acoustic_Folk_Guitar_1,0.08798258006572723,0
57,100,0.15454545454545454,550,0,24,_DL_Japanese_Folk_Pop_Acoustic_Folk_Guitar_1,6,2,_DL_Japanese_Folk_Pop_Acoustic_Folk_Guitar_1,0.0929885283112526,0
57,100,0.18181818181818182,687,0,24,_DL_Japanese_Folk_Pop_Acoustic_Folk_Guitar_1,6,3,_DL_Japanese_Folk_Pop_Acoustic_Folk_Guitar_1,0.10995842516422272,0
57,100,0.15454545454545454,776,0,24,_DL_Japanese_Folk_Pop_Acoustic_Folk_Guitar_1,6,2,_DL_Japanese_Folk_Pop_Acoustic_Folk_Guitar_1,0.12867741286754608,0
57,100,0.22272727272727272,815,0,24,_DL_Japanese_Folk_Pop_Acoustic_Folk_Guitar_1,6,4,_DL_Japanese_Folk_Pop_Acoustic_Folk_Guitar_1,0.18222463130950928,0
57,100,0.4681818181818182,0,1,25,_DL_Japanese_Folk_Pop_Acoustic_Folk_Guitar_1,6,7,_DL_Japanese_Folk_Pop_Acoustic_Folk_Guitar_1,0.9984879493713379,1
57,100,0.31363636363636366,113,0,25,_DL_Japanese_Folk_Pop_Acoustic_Folk_Guitar_1,6,5,_DL_Japanese_Folk_Pop_Acoustic_Folk_Guitar_1,0.06335459649562836,0
57,100,0.2,289,0,25,_DL_Japanese_Folk_Pop_Acoustic_Folk_Guitar_1,6,3,_DL_Japanese_Folk_Pop_Acoustic_Folk_Guitar_1,0.058289650827646255,0
64,100,0.6045454545454545,412,0,25,_DL_Japanese_Folk_Pop_Acoustic_Folk_Guitar_1,6,10,_DL_Japanese_Folk_Pop_Acoustic_Folk_Guitar_1,0.06136246398091316,0
52,100,0.22272727272727272,677,1,25,_DL_Japanese_Folk_Pop_Acoustic_Folk_Guitar_1,6,4,_DL_Japanese_Folk_Pop_Acoustic_Folk_Guitar_1,0.0716855525970459,0
52,100,0.13636363636363635,760,0,25,_DL_Japanese_Folk_Pop_Acoustic_Folk_Guitar_1,6,2,_DL_Japanese_Folk_Pop_Acoustic_Folk_Guitar_1,0.08473962545394897,0
52,100,0.2,820,0,25,_DL_Japanese_Folk_Pop_Acoustic_Folk_Guitar_1,6,3,_DL_Japanese_Folk_Pop_Acoustic_Folk_Guitar_1,0.12635479867458344,0
62,100,0.5772727272727273,13,1,26,_DL_Japanese_Folk_Pop_Acoustic_Folk_Guitar_1,6,9,_DL_Japanese_Folk_Pop_Acoustic_Folk_Guitar_1,0.9983735084533691,1
62,100,0.65,215,0,26,_DL_Japanese_Folk_Pop_Acoustic_Folk_Guitar_1,6,10,_DL_Japanese_Folk_Pop_Acoustic_Folk_Guitar_1,0.05104978755116463,0
64,100,0.31363636363636366,361,0,26,_DL_Japanese_Folk_Pop_Acoustic_Folk_Guitar_1,6,5,_DL_Japanese_Folk_Pop_Acoustic_Folk_Guitar_1,0.041613318026065826,0
57,100,0.33636363636363636,436,0,26,_DL_Japanese_Folk_Pop_Acoustic_Folk_Guitar_1,6,5,_DL_Japanese_Folk_Pop_Acoustic_Folk_Guitar_1,0.037980303168296814,0
64,100,0.13636363636363635,533,0,26,_DL_Japanese_Folk_Pop_Acoustic_Folk_Guitar_1,6,2,_DL_Japanese_Folk_Pop_Acoustic_Folk_Guitar_1,0.03926180675625801,0
68,100,0.17727272727272728,574,0,26,_DL_Japanese_Folk_Pop_Acoustic_Folk_Guitar_1,6,3,_DL_Japanese_Folk_Pop_Acoustic_Folk_Guitar_1,0.04616663604974747,0
68,100,0.1318181818181818,618,0,26,_DL_Japanese_Folk_Pop_Acoustic_Folk_Guitar_1,6,2,_DL_Japanese_Folk_Pop_Acoustic_Folk_Guitar_1,0.05713391676545143,0
52,100,0.18181818181818182,862,1,26,_DL_Japanese_Folk_Pop_Acoustic_Folk_Guitar_1,6,3,_DL_Japanese_Folk_Pop_Acoustic_Folk_Guitar_1,0.0918850228190422,0
59,100,0.6045454545454545,110,1,27,_DL_Japanese_Folk_Pop_Acoustic_Folk_Guitar_1,6,10,_DL_Japanese_Folk_Pop_Acoustic_Folk_Guitar_1,0.9990094900131226,1
56,100,0.2,322,0,27,_DL_Japanese_Folk_Pop_Acoustic_Folk_Guitar_1,6,3,_DL_Japanese_Folk_Pop_Acoustic_Folk_Guitar_1,0.2332267463207245,0
64,100,0.6681818181818182,464,0,27,_DL_Japanese_Folk_Pop_Acoustic_Folk_Guitar_1,6,11,_DL_Japanese_Folk_Pop_Acoustic_Folk_Guitar_1,0.2705838084220886,0
59,100,0.2681818181818182,690,0,27,_DL_Japanese_Folk_Pop_Acoustic_Folk_Guitar_1,6,4,_DL_Japanese_Folk_Pop_Acoustic_Folk_Guitar_1,0.35792452096939087,0
61,100,0.22272727272727272,11,1,28,_DL_Japanese_Folk_Pop_Acoustic_Folk_Guitar_1,6,4,_DL_Japanese_Folk_Pop_Acoustic_Folk_Guitar_1,0.9984879493713379,1
61,100,0.6227272727272727,65,0,28,_DL_Japanese_Folk_Pop_Acoustic_Folk_Guitar_1,6,10,_DL_Japanese_Folk_Pop_Acoustic_Folk_Guitar_1,0.06335558742284775,0
57,100,0.2,213,0,28,_DL_Japanese_Folk_Pop_Acoustic_Folk_Guitar_1,6,3,_DL_Japanese_Folk_Pop_Acoustic_Folk_Guitar_1,0.058291271328926086,0
54,100,0.2,261,0,28,_DL_Japanese_Folk_Pop_Acoustic_Folk_Guitar_1,6,3,_DL_Japanese_Folk_Pop_Acoustic_Folk_Guitar_1,0.06136662885546684,0
57,100,0.6272727272727273,370,0,28,_DL_Japanese_Folk_Pop_Acoustic_Folk_Guitar_1,6,10,_DL_Japanese_Folk_Pop_Acoustic_Folk_Guitar_1,0.07168798893690109,0
57,100,0.22272727272727272,777,1,28,_DL_Japanese_Folk_Pop_Acoustic_Folk_Guitar_1,6,4,_DL_Japanese_Folk_Pop_Acoustic_Folk_Guitar_1,0.08474151045084,0
57,100,0.10909090909090909,852,0,28,_DL_Japanese_Folk_Pop_Acoustic_Folk_Guitar_1,6,2,_DL_Japanese_Folk_Pop_Acoustic_Folk_Guitar_1,0.12636028230190277,0
64,100,0.2909090909090909,0,1,29,_DL_Japanese_Folk_Pop_Acoustic_Folk_Guitar_1,6,5,_DL_Japanese_Folk_Pop_Acoustic_Folk_Guitar_1,0.9986506104469299,1
57,100,0.2636363636363636,134,0,29,_DL_Japanese_Folk_Pop_Acoustic_Folk_Guitar_1,6,4,_DL_Japanese_Folk_Pop_Acoustic_Folk_Guitar_1,0.08797968924045563,0
68,100,0.24545454545454545,202,0,29,_DL_Japanese_Folk_Pop_Acoustic_Folk_Guitar_1,6,4,_DL_Japanese_Folk_Pop_Acoustic_Folk_Guitar_1,0.09298695623874664,0
64,100,0.18181818181818182,422,0,29,_DL_Japanese_Folk_Pop_Acoustic_Folk_Guitar_1,6,3,_DL_Japanese_Folk_Pop_Acoustic_Folk_Guitar_1,0.10995309054851532,0
69,100,0.24545454545454545,560,0,29,_DL_Japanese_Folk_Pop_Acoustic_Folk_Guitar_1,6,4,_DL_Japanese_Folk_Pop_Acoustic_Folk_Guitar_1,0.12867490947246552,0
59,100,0.13636363636363635,693,0,29,_DL_Japanese_Folk_Pop_Acoustic_Folk_Guitar_1,6,2,_DL_Japanese_Folk_Pop_Acoustic_Folk_Guitar_1,0.18222476541996002,0
57,100,0.10909090909090909,14,1,30,_DL_Japanese_Folk_Pop_Acoustic_Folk_Guitar_1,6,2,_DL_Japanese_Folk_Pop_Acoustic_Folk_Guitar_1,0.9990280866622925,1
61,100,1.2045454545454546,103,0,30,_DL_Japanese_Folk_Pop_Acoustic_Folk_Guitar_1,6,15,_DL_Japanese_Folk_Pop_Acoustic_Folk_Guitar_1,0.37033402919769287,0
52,100,0.15454545454545454,849,1,30,_DL_Japanese_Folk_Pop_Acoustic_Folk_Guitar_1,6,2,_DL_Japanese_Folk_Pop_Acoustic_Folk_Guitar_1,0.45617809891700745,0
61,100,0.18181818181818182,312,1,31,_DL_Japanese_Folk_Pop_Acoustic_Folk_Guitar_1,6,3,_DL_Japanese_Folk_Pop_Acoustic_Folk_Guitar_1,0.9990094900131226,1
61,100,0.20454545454545456,361,0,31,_DL_Japanese_Folk_Pop_Acoustic_Folk_Guitar_1,6,3,_DL_Japanese_Folk_Pop_Acoustic_Folk_Guitar_1,0.23322759568691254,0
64,100,0.17727272727272728,515,0,31,_DL_Japanese_Folk_Pop_Acoustic_Folk_Guitar_1,6,3,_DL_Japanese_Folk_Pop_Acoustic_Folk_Guitar_1,0.27058711647987366,0
56,100,0.13636363636363635,701,0,31,_DL_Japanese_Folk_Pop_Acoustic_Folk_Guitar_1,6,2,_DL_Japanese_Folk_Pop_Acoustic_Folk_Guitar_1,0.3579261898994446,0
59,100,0.65,36,1,32,_DL_Japanese_Folk_Pop_Acoustic_Folk_Guitar_1,6,10,_DL_Japanese_Folk_Pop_Acoustic_Folk_Guitar_1,0.9990280866622925,1
59,100,0.2,233,0,32,_DL_Japanese_Folk_Pop_Acoustic_Folk_Guitar_1,6,3,_DL_Japanese_Folk_Pop_Acoustic_Folk_Guitar_1,0.3703415095806122,0
54,100,0.6227272727272727,385,0,32,_DL_Japanese_Folk_Pop_Acoustic_Folk_Guitar_1,6,10,_DL_Japanese_Folk_Pop_Acoustic_Folk_Guitar_1,0.45616644620895386,0
61,100,0.31363636363636366,222,1,33,_DL_Japanese_Folk_Pop_Acoustic_Folk_Guitar_1,6,5,_DL_Japanese_Folk_Pop_Acoustic_Folk_Guitar_1,0.9990094900131226,1
61,100,0.44545454545454544,330,0,33,_DL_Japanese_Folk_Pop_Acoustic_Folk_Guitar_1,6,7,_DL_Japanese_Folk_Pop_Acoustic_Folk_Guitar_1,0.2332356572151184,0
62,100,0.15454545454545454,738,1,33,_DL_Japanese_Folk_Pop_Acoustic_Folk_Guitar_1,6,2,_DL_Japanese_Folk_Pop_Acoustic_Folk_Guitar_1,0.2705864906311035,0
62,100,0.33636363636363636,777,0,33,_DL_Japanese_Folk_Pop_Acoustic_Folk_Guitar_1,6,5,_DL_Japanese_Folk_Pop_Acoustic_Folk_Guitar_1,0.357938677072525,0
62,100,0.18181818181818182,255,1,34,_DL_Japanese_Folk_Pop_Acoustic_Folk_Guitar_1,6,3,_DL_Japanese_Folk_Pop_Acoustic_Folk_Guitar_1,0.9990094900131226,1
73,100,0.2,350,0,34,_DL_Japanese_Folk_Pop_Acoustic_Folk_Guitar_1,6,3,_DL_Japanese_Folk_Pop_Acoustic_Folk_Guitar_1,0.23323826491832733,0
62,100,1.0227272727272727,462,0,34,_DL_Japanese_Folk_Pop_Acoustic_Folk_Guitar_1,6,15,_DL_Japanese_Folk_Pop_Acoustic_Folk_Guitar_1,0.27059128880500793,0
62,100,0.4681818181818182,756,1,34,_DL_Japanese_Folk_Pop_Acoustic_Folk_Guitar_1,6,7,_DL_Japanese_Folk_Pop_Acoustic_Folk_Guitar_1,0.3579471707344055,0
52,100,0.7818181818181819,363,1,35,_DL_Japanese_Folk_Pop_Acoustic_Folk_Guitar_1,6,13,_DL_Japanese_Folk_Pop_Acoustic_Folk_Guitar_1,0.9792242646217346,1
52,100,0.31363636363636366,165,1,36,_DL_Japanese_Folk_Pop_Acoustic_Folk_Guitar_1,6,5,_DL_Japanese_Folk_Pop_Acoustic_Folk_Guitar_1,0.9990094900131226,1
57,100,0.25,632,1,36,_DL_Japanese_Folk_Pop_Acoustic_Folk_Guitar_1,6,4,_DL_Japanese_Folk_Pop_Acoustic_Folk_Guitar_1,0.2332366555929184,0
69,100,0.1318181818181818,687,0,36,_DL_Japanese_Folk_Pop_Acoustic_Folk_Guitar_1,6,2,_DL_Japanese_Folk_Pop_Acoustic_Folk_Guitar_1,0.2705913782119751,0
57,100,0.13636363636363635,804,0,36,_DL_Japanese_Folk_Pop_Acoustic_Folk_Guitar_1,6,2,_DL_Japanese_Folk_Pop_Acoustic_Folk_Guitar_1,0.35793378949165344,0
52,100,0.5363636363636364,2,1,37,_DL_Japanese_Folk_Pop_Acoustic_Folk_Guitar_1,6,9,_DL_Japanese_Folk_Pop_Acoustic_Folk_Guitar_1,0.9984880685806274,1
52,100,0.22272727272727272,258,1,37,_DL_Japanese_Folk_Pop_Acoustic_Folk_Guitar_1,6,4,_DL_Japanese_Folk_Pop_Acoustic_Folk_Guitar_1,0.06335372477769852,0
59,100,0.20454545454545456,474,0,37,_DL_Japanese_Folk_Pop_Acoustic_Folk_Guitar_1,6,3,_DL_Japanese_Folk_Pop_Acoustic_Folk_Guitar_1,0.058289382606744766,0
57,100,0.22727272727272727,522,0,37,_DL_Japanese_Folk_Pop_Acoustic_Folk_Guitar_1,6,4,_DL_Japanese_Folk_Pop_Acoustic_Folk_Guitar_1,0.06136356294155121,0
57,100,0.2,655,0,37,_DL_Japanese_Folk_Pop_Acoustic_Folk_Guitar_1,6,3,_DL_Japanese_Folk_Pop_Acoustic_Folk_Guitar_1,0.07168474793434143,0
64,100,0.4,735,0,37,_DL_Japanese_Folk_Pop_Acoustic_Folk_Guitar_1,6,6,_DL_Japanese_Folk_Pop_Acoustic_Folk_Guitar_1,0.08473914861679077,0
57,100,1.0045454545454546,877,0,37,_DL_Japanese_Folk_Pop_Acoustic_Folk_Guitar_1,6,15,_DL_Japanese_Folk_Pop_Acoustic_Folk_Guitar_1,0.12634870409965515,0
57,100,0.3090909090909091,345,1,38,_DL_Japanese_Folk_Pop_Acoustic_Folk_Guitar_1,6,5,_DL_Japanese_Folk_Pop_Acoustic_Folk_Guitar_1,0.9990094900131226,1
64,100,0.5136363636363637,433,0,38,_DL_Japanese_Folk_Pop_Acoustic_Folk_Guitar_1,6,8,_DL_Japanese_Folk_Pop_Acoustic_Folk_Guitar_1,0.23324500024318695,0
57,100,0.35454545454545455,562,0,38,_DL_Japanese_Folk_Pop_Acoustic_Folk_Guitar_1,6,6,_DL_Japanese_Folk_Pop_Acoustic_Folk_Guitar_1,0.27059707045555115,0
57,100,0.18181818181818182,742,0,38,_DL_Japanese_Folk_Pop_Acoustic_Folk_Guitar_1,6,3,_DL_Japanese_Folk_Pop_Acoustic_Folk_Guitar_1,0.35794007778167725,0
57,100,0.2909090909090909,330,1,39,_DL_Japanese_Folk_Pop_Acoustic_Folk_Guitar_1,6,5,_DL_Japanese_Folk_Pop_Acoustic_Folk_Guitar_1,0.9990280866622925,1
57,100,0.18181818181818182,412,0,39,_DL_Japanese_Folk_Pop_Acoustic_Folk_Guitar_1,6,3,_DL_Japanese_Folk_Pop_Acoustic_Folk_Guitar_1,0.37033990025520325,0
59,100,0.15454545454545454,851,1,39,_DL_Japanese_Folk_Pop_Acoustic_Folk_Guitar_1,6,2,_DL_Japanese_Folk_Pop_Acoustic_Folk_Guitar_1,0.45617830753326416,0
57,100,1.1636363636363636,146,1,40,_DL_Japanese_Folk_Pop_Acoustic_Folk_Guitar_1,6,15,_DL_Japanese_Folk_Pop_Acoustic_Folk_Guitar_1,0.9986506104469299,1
57,100,0.37727272727272726,407,1,40,_DL_Japanese_Folk_Pop_Acoustic_Folk_Guitar_1,6,6,_DL_Japanese_Folk_Pop_Acoustic_Folk_Guitar_1,0.08798015117645264,0
57,100,0.38181818181818183,643,1,40,_DL_Japanese_Folk_Pop_Acoustic_Folk_Guitar_1,6,6,_DL_Japanese_Folk_Pop_Acoustic_Folk_Guitar_1,0.0929846242070198,0
57,100,0.24545454545454545,736,0,40,_DL_Japanese_Folk_Pop_Acoustic_Folk_Guitar_1,6,4,_DL_Japanese_Folk_Pop_Acoustic_Folk_Guitar_1,0.10995381325483322,0
57,100,0.2,819,0,40,_DL_Japanese_Folk_Pop_Acoustic_Folk_Guitar_1,6,3,_DL_Japanese_Folk_Pop_Acoustic_Folk_Guitar_1,0.1286686509847641,0
52,100,0.31363636363636366,864,0,40,_DL_Japanese_Folk_Pop_Acoustic_Folk_Guitar_1,6,5,_DL_Japanese_Folk_Pop_Acoustic_Folk_Guitar_1,0.18222233653068542,0
57,100,0.1318181818181818,53,1,41,_DL_Japanese_Folk_Pop_Acoustic_Folk_Guitar_1,6,2,_DL_Japanese_Folk_Pop_Acoustic_Folk_Guitar_1,0.9984879493713379,1
64,100,0.24545454545454545,131,0,41,_DL_Japanese_Folk_Pop_Acoustic_Folk_Guitar_1,6,4,_DL_Japanese_Folk_Pop_Acoustic_Folk_Guitar_1,0.06335553526878357,0
57,100,0.37727272727272726,185,0,41,_DL_Japanese_Folk_Pop_Acoustic_Folk_Guitar_1,6,6,_DL_Japanese_Folk_Pop_Acoustic_Folk_Guitar_1,0.05828985571861267,0
64,100,0.1318181818181818,343,0,41,_DL_Japanese_Folk_Pop_Acoustic_Folk_Guitar_1,6,2,_DL_Japanese_Folk_Pop_Acoustic_Folk_Guitar_1,0.06136583909392357,0
57,100,0.1318181818181818,386,0,41,_DL_Japanese_Folk_Pop_Acoustic_Folk_Guitar_1,6,2,_DL_Japanese_Folk_Pop_Acoustic_Folk_Guitar_1,0.07168741524219513,0
57,100,0.22272727272727272,543,0,41,_DL_Japanese_Folk_Pop_Acoustic_Folk_Guitar_1,6,4,_DL_Japanese_Folk_Pop_Acoustic_Folk_Guitar_1,0.08473873138427734,0
57,100,0.35909090909090907,824,1,41,_DL_Japanese_Folk_Pop_Acoustic_Folk_Guitar_1,6,6,_DL_Japanese_Folk_Pop_Acoustic_Folk_Guitar_1,0.1263590008020401,0
57,100,0.1590909090909091,47,1,42,_DL_Japanese_Folk_Pop_Acoustic_Folk_Guitar_1,6,3,_DL_Japanese_Folk_Pop_Acoustic_Folk_Guitar_1,0.9990280866622925,1
59,100,0.42272727272727273,445,1,42,_DL_Japanese_Folk_Pop_Acoustic_Folk_Guitar_1,6,7,_DL_Japanese_Folk_Pop_Acoustic_Folk_Guitar_1,0.37033969163894653,0
59,100,0.2909090909090909,591,0,42,_DL_Japanese_Folk_Pop_Acoustic_Folk_Guitar_1,6,5,_DL_Japanese_Folk_Pop_Acoustic_Folk_Guitar_1,0.45616796612739563,0
61,100,0.2681818181818182,130,1,43,_DL_Japanese_Folk_Pop_Acoustic_Folk_Guitar_1,6,4,_DL_Japanese_Folk_Pop_Acoustic_Folk_Guitar_1,0.9986506104469299,1
59,100,0.5590909090909091,203,0,43,_DL_Japanese_Folk_Pop_Acoustic_Folk_Guitar_1,6,9,_DL_Japanese_Folk_Pop_Acoustic_Folk_Guitar_1,0.08798166364431381,0
64,100,0.20454545454545456,585,1,43,_DL_Japanese_Folk_Pop_Acoustic_Folk_Guitar_1,6,3,_DL_Japanese_Folk_Pop_Acoustic_Folk_Guitar_1,0.09298844635486603,0
57,100,0.31363636363636366,699,0,43,_DL_Japanese_Folk_Pop_Acoustic_Folk_Guitar_1,6,5,_DL_Japanese_Folk_Pop_Acoustic_Folk_Guitar_1,0.10995766520500183,0
61,100,0.1590909090909091,817,0,43,_DL_Japanese_Folk_Pop_Acoustic_Folk_Guitar_1,6,3,_DL_Japanese_Folk_Pop_Acoustic_Folk_Guitar_1,0.1286800652742386,0
57,100,0.2681818181818182,856,0,43,_DL_Japanese_Folk_Pop_Acoustic_Folk_Guitar_1,6,4,_DL_Japanese_Folk_Pop_Acoustic_Folk_Guitar_1,0.18223200738430023,0
57,100,0.4,393,1,44,_DL_Japanese_Folk_Pop_Acoustic_Folk_Guitar_1,6,6,_DL_Japanese_Folk_Pop_Acoustic_Folk_Guitar_1,0.9983231425285339,1
57,100,0.2,511,0,44,_DL_Japanese_Folk_Pop_Acoustic_Folk_Guitar_1,6,3,_DL_Japanese_Folk_Pop_Acoustic_Folk_Guitar_1,0.5462276935577393,1
69,100,0.1318181818181818,501,1,45,_DL_Japanese_Folk_Pop_Acoustic_Folk_Guitar_1,6,2,_DL_Japanese_Folk_Pop_Acoustic_Folk_Guitar_1,0.9990280866622925,1
57,100,0.4909090909090909,550,0,45,_DL_Japanese_Folk_Pop_Acoustic_Folk_Guitar_1,6,8,_DL_Japanese_Folk_Pop_Acoustic_Folk_Guitar_1,0.3703426122665405,0
57,100,0.1590909090909091,696,0,45,_DL_Japanese_Folk_Pop_Acoustic_Folk_Guitar_1,6,3,_DL_Japanese_Folk_Pop_Acoustic_Folk_Guitar_1,0.4561821222305298,0
57,100,0.24545454545454545,554,1,46,_DL_Japanese_Folk_Pop_Acoustic_Folk_Guitar_1,6,4,_DL_Japanese_Folk_Pop_Acoustic_Folk_Guitar_1,0.9983231425285339,1
61,100,0.7181818181818181,744,0,46,_DL_Japanese_Folk_Pop_Acoustic_Folk_Guitar_1,6,11,_DL_Japanese_Folk_Pop_Acoustic_Folk_Guitar_1,0.5462133288383484,1
66,100,0.24545454545454545,170,1,47,_DL_Japanese_Folk_Pop_Acoustic_Folk_Guitar_1,6,4,_DL_Japanese_Folk_Pop_Acoustic_Folk_Guitar_1,0.9983231425285339,1
61,100,1.6272727272727272,789,1,47,_DL_Japanese_Folk_Pop_Acoustic_Folk_Guitar_1,6,15,_DL_Japanese_Folk_Pop_Acoustic_Folk_Guitar_1,0.5462034344673157,1
57,100,0.33636363636363636,330,1,48,_DL_Japanese_Folk_Pop_Acoustic_Folk_Guitar_1,6,5,_DL_Japanese_Folk_Pop_Acoustic_Folk_Guitar_1,0.9990094900131226,1
59,100,0.1590909090909091,645,1,48,_DL_Japanese_Folk_Pop_Acoustic_Folk_Guitar_1,6,3,_DL_Japanese_Folk_Pop_Acoustic_Folk_Guitar_1,0.23323820531368256,0
68,100,0.37727272727272726,685,0,48,_DL_Japanese_Folk_Pop_Acoustic_Folk_Guitar_1,6,6,_DL_Japanese_Folk_Pop_Acoustic_Folk_Guitar_1,0.27057668566703796,0
64,100,0.2,837,0,48,_DL_Japanese_Folk_Pop_Acoustic_Folk_Guitar_1,6,3,_DL_Japanese_Folk_Pop_Acoustic_Folk_Guitar_1,0.3579311668872833,0
52,100,0.17727272727272728,0,1,49,_DL_Japanese_Folk_Pop_Acoustic_Folk_Guitar_1,6,3,_DL_Japanese_Folk_Pop_Acoustic_Folk_Guitar_1,0.9986506104469299,1
64,100,0.11363636363636363,143,0,49,_DL_Japanese_Folk_Pop_Acoustic_Folk_Guitar_1,6,2,_DL_Japanese_Folk_Pop_Acoustic_Folk_Guitar_1,0.08798305690288544,0
64,100,0.11363636363636363,212,0,49,_DL_Japanese_Folk_Pop_Acoustic_Folk_Guitar_1,6,2,_DL_Japanese_Folk_Pop_Acoustic_Folk_Guitar_1,0.09298872202634811,0
64,100,0.15454545454545454,241,0,49,_DL_Japanese_Folk_Pop_Acoustic_Folk_Guitar_1,6,2,_DL_Japanese_Folk_Pop_Acoustic_Folk_Guitar_1,0.10995833575725555,0
64,100,0.42272727272727273,281,0,49,_DL_Japanese_Folk_Pop_Acoustic_Folk_Guitar_1,6,7,_DL_Japanese_Folk_Pop_Acoustic_Folk_Guitar_1,0.12868112325668335,0
57,100,0.20454545454545456,579,1,49,_DL_Japanese_Folk_Pop_Acoustic_Folk_Guitar_1,6,3,_DL_Japanese_Folk_Pop_Acoustic_Folk_Guitar_1,0.18223018944263458,0
64,100,0.22272727272727272,349,1,50,_DL_Japanese_Folk_Pop_Acoustic_Folk_Guitar_1,6,4,_DL_Japanese_Folk_Pop_Acoustic_Folk_Guitar_1,0.9990280866622925,1
61,100,1.6045454545454545,407,0,50,_DL_Japanese_Folk_Pop_Acoustic_Folk_Guitar_1,6,15,_DL_Japanese_Folk_Pop_Acoustic_Folk_Guitar_1,0.3703254759311676,0
59,100,0.24545454545454545,781,1,50,_DL_Japanese_Folk_Pop_Acoustic_Folk_Guitar_1,6,4,_DL_Japanese_Folk_Pop_Acoustic_Folk_Guitar_1,0.4561721384525299,0
61,100,1.5863636363636364,317,1,51,_DL_Japanese_Folk_Pop_Acoustic_Folk_Guitar_1,6,15,_DL_Japanese_Folk_Pop_Acoustic_Folk_Guitar_1,0.9983231425285339,1
62,100,0.9363636363636364,672,1,51,_DL_Japanese_Folk_Pop_Acoustic_Folk_Guitar_1,6,15,_DL_Japanese_Folk_Pop_Acoustic_Folk_Guitar_1,0.5462225675582886,1
62,100,0.42727272727272725,139,1,52,_DL_Japanese_Folk_Pop_Acoustic_Folk_Guitar_1,6,7,_DL_Japanese_Folk_Pop_Acoustic_Folk_Guitar_1,0.9990280866622925,1
62,100,0.4727272727272727,253,0,52,_DL_Japanese_Folk_Pop_Acoustic_Folk_Guitar_1,6,8,_DL_Japanese_Folk_Pop_Acoustic_Folk_Guitar_1,0.37034350633621216,0
59,100,0.33636363636363636,818,1,52,_DL_Japanese_Folk_Pop_Acoustic_Folk_Guitar_1,6,5,_DL_Japanese_Folk_Pop_Acoustic_Folk_Guitar_1,0.45617759227752686,0
57,100,0.1590909090909091,41,1,53,_DL_Japanese_Folk_Pop_Acoustic_Folk_Guitar_1,6,3,_DL_Japanese_Folk_Pop_Acoustic_Folk_Guitar_1,0.9988439083099365,1
61,100,0.4681818181818182,433,1,53,_DL_Japanese_Folk_Pop_Acoustic_Folk_Guitar_1,6,7,_DL_Japanese_Folk_Pop_Acoustic_Folk_Guitar_1,0.13798092305660248,0
54,100,0.5363636363636364,620,0,53,_DL_Japanese_Folk_Pop_Acoustic_Folk_Guitar_1,6,9,_DL_Japanese_Folk_Pop_Acoustic_Folk_Guitar_1,0.16236570477485657,0
57,100,0.31363636363636366,753,0,53,_DL_Japanese_Folk_Pop_Acoustic_Folk_Guitar_1,6,5,_DL_Japanese_Folk_Pop_Acoustic_Folk_Guitar_1,0.1910575032234192,0
54,100,0.42272727272727273,852,0,53,_DL_Japanese_Folk_Pop_Acoustic_Folk_Guitar_1,6,7,_DL_Japanese_Folk_Pop_Acoustic_Folk_Guitar_1,0.2619689106941223,0
57,100,0.31363636363636366,94,1,54,_DL_Japanese_Folk_Pop_Acoustic_Folk_Guitar_1,6,5,_DL_Japanese_Folk_Pop_Acoustic_Folk_Guitar_1,0.9988439083099365,1
57,100,0.44545454545454544,167,0,54,_DL_Japanese_Folk_Pop_Acoustic_Folk_Guitar_1,6,7,_DL_Japanese_Folk_Pop_Acoustic_Folk_Guitar_1,0.13798357546329498,0
62,100,0.9136363636363637,301,0,54,_DL_Japanese_Folk_Pop_Acoustic_Folk_Guitar_1,6,15,_DL_Japanese_Folk_Pop_Acoustic_Folk_Guitar_1,0.16237109899520874,0
69,100,0.24545454545454545,507,0,54,_DL_Japanese_Folk_Pop_Acoustic_Folk_Guitar_1,6,4,_DL_Japanese_Folk_Pop_Acoustic_Folk_Guitar_1,0.1910615861415863,0
62,100,0.6727272727272727,702,0,54,_DL_Japanese_Folk_Pop_Acoustic_Folk_Guitar_1,6,11,_DL_Japanese_Folk_Pop_Acoustic_Folk_Guitar_1,0.261970192193985,0
59,100,0.10909090909090909,510,1,55,_DL_Japanese_Folk_Pop_Acoustic_Folk_Guitar_1,6,2,_DL_Japanese_Folk_Pop_Acoustic_Folk_Guitar_1,0.9990280866622925,1
52,100,0.2636363636363636,628,0,55,_DL_Japanese_Folk_Pop_Acoustic_Folk_Guitar_1,6,4,_DL_Japanese_Folk_Pop_Acoustic_Folk_Guitar_1,0.37033772468566895,0
52,100,0.5363636363636364,781,0,55,_DL_Japanese_Folk_Pop_Acoustic_Folk_Guitar_1,6,9,_DL_Japanese_Folk_Pop_Acoustic_Folk_Guitar_1,0.45617324113845825,0
52,100,0.22272727272727272,116,1,56,_DL_Japanese_Folk_Pop_Acoustic_Folk_Guitar_1,6,4,_DL_Japanese_Folk_Pop_Acoustic_Folk_Guitar_1,0.9983735084533691,1
52,100,0.24545454545454545,171,0,56,_DL_Japanese_Folk_Pop_Acoustic_Folk_Guitar_1,6,4,_DL_Japanese_Folk_Pop_Acoustic_Folk_Guitar_1,0.051050618290901184,0
57,100,0.42272727272727273,234,0,56,_DL_Japanese_Folk_Pop_Acoustic_Folk_Guitar_1,6,7,_DL_Japanese_Folk_Pop_Acoustic_Folk_Guitar_1,0.04161382094025612,0
57,100,0.22272727272727272,440,0,56,_DL_Japanese_Folk_Pop_Acoustic_Folk_Guitar_1,6,4,_DL_Japanese_Folk_Pop_Acoustic_Folk_Guitar_1,0.037983398884534836,0
56,100,0.44545454545454544,489,0,56,_DL_Japanese_Folk_Pop_Acoustic_Folk_Guitar_1,6,7,_DL_Japanese_Folk_Pop_Acoustic_Folk_Guitar_1,0.03926403075456619,0
56,100,0.24545454545454545,652,0,56,_DL_Japanese_Folk_Pop_Acoustic_Folk_Guitar_1,6,4,_DL_Japanese_Folk_Pop_Acoustic_Folk_Guitar_1,0.04617121443152428,0
57,100,0.4681818181818182,730,0,56,_DL_Japanese_Folk_Pop_Acoustic_Folk_Guitar_1,6,7,_DL_Japanese_Folk_Pop_Acoustic_Folk_Guitar_1,0.05713760107755661,0
57,100,0.6454545454545455,878,0,56,_DL_Japanese_Folk_Pop_Acoustic_Folk_Guitar_1,6,10,_DL_Japanese_Folk_Pop_Acoustic_Folk_Guitar_1,0.09188421815633774,0
69,100,0.40454545454545454,144,1,57,_DL_Japanese_Folk_Pop_Acoustic_Folk_Guitar_1,6,6,_DL_Japanese_Folk_Pop_Acoustic_Folk_Guitar_1,0.9990280866622925,1
57,100,0.1318181818181818,233,0,57,_DL_Japanese_Folk_Pop_Acoustic_Folk_Guitar_1,6,2,_DL_Japanese_Folk_Pop_Acoustic_Folk_Guitar_1,0.37034091353416443,0
61,100,0.15454545454545454,391,0,57,_DL_Japanese_Folk_Pop_Acoustic_Folk_Guitar_1,6,2,_DL_Japanese_Folk_Pop_Acoustic_Folk_Guitar_1,0.456169456243515,0
61,100,0.2,448,1,58,_DL_Japanese_Folk_Pop_Acoustic_Folk_Guitar_1,6,3,_DL_Japanese_Folk_Pop_Acoustic_Folk_Guitar_1,0.9990280866622925,1
61,100,0.2909090909090909,611,0,58,_DL_Japanese_Folk_Pop_Acoustic_Folk_Guitar_1,6,5,_DL_Japanese_Folk_Pop_Acoustic_Folk_Guitar_1,0.3703383803367615,0
64,100,0.6909090909090909,734,0,58,_DL_Japanese_Folk_Pop_Acoustic_Folk_Guitar_1,6,11,_DL_Japanese_Folk_Pop_Acoustic_Folk_Guitar_1,0.45617640018463135,0
61,100,0.6,80,1,59,_DL_Japanese_Folk_Pop_Acoustic_Folk_Guitar_1,6,10,_DL_Japanese_Folk_Pop_Acoustic_Folk_Guitar_1,0.9988439083099365,1
61,100,0.33181818181818185,290,0,59,_DL_Japanese_Folk_Pop_Acoustic_Folk_Guitar_1,6,5,_DL_Japanese_Folk_Pop_Acoustic_Folk_Guitar_1,0.1379847675561905,0
61,100,0.13636363636363635,378,0,59,_DL_Japanese_Folk_Pop_Acoustic_Folk_Guitar_1,6,2,_DL_Japanese_Folk_Pop_Acoustic_Folk_Guitar_1,0.1623629331588745,0
62,100,0.5590909090909091,433,0,59,_DL_Japanese_Folk_Pop_Acoustic_Folk_Guitar_1,6,9,_DL_Japanese_Folk_Pop_Acoustic_Folk_Guitar_1,0.19105742871761322,0
62,100,0.8909090909090909,786,1,59,_DL_Japanese_Folk_Pop_Acoustic_Folk_Guitar_1,6,14,_DL_Japanese_Folk_Pop_Acoustic_Folk_Guitar_1,0.2619672417640686,0
52,100,0.42272727272727273,240,1,60,_DL_Japanese_Folk_Pop_Acoustic_Folk_Guitar_1,6,7,_DL_Japanese_Folk_Pop_Acoustic_Folk_Guitar_1,0.9983231425285339,1
52,100,0.24545454545454545,618,1,60,_DL_Japanese_Folk_Pop_Acoustic_Folk_Guitar_1,6,4,_DL_Japanese_Folk_Pop_Acoustic_Folk_Guitar_1,0.5462184548377991,1
59,100,0.24545454545454545,151,1,61,_DL_Japanese_Folk_Pop_Acoustic_Folk_Guitar_1,6,4,_DL_Japanese_Folk_Pop_Acoustic_Folk_Guitar_1,0.9990280866622925,1
61,100,0.2,294,0,61,_DL_Japanese_Folk_Pop_Acoustic_Folk_Guitar_1,6,3,_DL_Japanese_Folk_Pop_Acoustic_Folk_Guitar_1,0.37033167481422424,0
61,100,0.4,357,0,61,_DL_Japanese_Folk_Pop_Acoustic_Folk_Guitar_1,6,6,_DL_Japanese_Folk_Pop_Acoustic_Folk_Guitar_1,0.4561699628829956,0
54,100,0.13636363636363635,86,1,62,_DL_Japanese_Folk_Pop_Acoustic_Folk_Guitar_1,6,2,_DL_Japanese_Folk_Pop_Acoustic_Folk_Guitar_1,0.9990094900131226,1
62,100,0.17727272727272728,346,1,62,_DL_Japanese_Folk_Pop_Acoustic_Folk_Guitar_1,6,3,_DL_Japanese_Folk_Pop_Acoustic_Folk_Guitar_1,0.23322223126888275,0
59,100,0.5545454545454546,411,0,62,_DL_Japanese_Folk_Pop_Acoustic_Folk_Guitar_1,6,9,_DL_Japanese_Folk_Pop_Acoustic_Folk_Guitar_1,0.2705778181552887,0
54,100,0.17727272727272728,577,0,62,_DL_Japanese_Folk_Pop_Acoustic_Folk_Guitar_1,6,3,_DL_Japanese_Folk_Pop_Acoustic_Folk_Guitar_1,0.3579321503639221,0
62,100,0.2681818181818182,130,1,63,_DL_Japanese_Folk_Pop_Acoustic_Folk_Guitar_1,6,4,_DL_Japanese_Folk_Pop_Acoustic_Folk_Guitar_1,0.9986506104469299,1
61,100,0.9363636363636364,316,0,63,_DL_Japanese_Folk_Pop_Acoustic_Folk_Guitar_1,6,15,_DL_Japanese_Folk_Pop_Acoustic_Folk_Guitar_1,0.08798041194677353,0
61,100,0.24545454545454545,527,0,63,_DL_Japanese_Folk_Pop_Acoustic_Folk_Guitar_1,6,4,_DL_Japanese_Folk_Pop_Acoustic_Folk_Guitar_1,0.09298627823591232,0
69,100,0.2681818181818182,596,0,63,_DL_Japanese_Folk_Pop_Acoustic_Folk_Guitar_1,6,4,_DL_Japanese_Folk_Pop_Acoustic_Folk_Guitar_1,0.10995439440011978,0
61,100,0.2681818181818182,665,0,63,_DL_Japanese_Folk_Pop_Acoustic_Folk_Guitar_1,6,4,_DL_Japanese_Folk_Pop_Acoustic_Folk_Guitar_1,0.12867425382137299,0
61,100,0.17727272727272728,826,0,63,_DL_Japanese_Folk_Pop_Acoustic_Folk_Guitar_1,6,3,_DL_Japanese_Folk_Pop_Acoustic_Folk_Guitar_1,0.1822238713502884,0
69,100,0.2636363636363636,80,1,64,_DL_Japanese_Folk_Pop_Acoustic_Folk_Guitar_1,6,4,_DL_Japanese_Folk_Pop_Acoustic_Folk_Guitar_1,0.9990094900131226,1
57,100,0.1318181818181818,349,1,64,_DL_Japanese_Folk_Pop_Acoustic_Folk_Guitar_1,6,2,_DL_Japanese_Folk_Pop_Acoustic_Folk_Guitar_1,0.23324313759803772,0
66,100,0.17727272727272728,379,0,64,_DL_Japanese_Folk_Pop_Acoustic_Folk_Guitar_1,6,3,_DL_Japanese_Folk_Pop_Acoustic_Folk_Guitar_1,0.27058929204940796,0
62,100,0.6909090909090909,565,0,64,_DL_Japanese_Folk_Pop_Acoustic_Folk_Guitar_1,6,11,_DL_Japanese_Folk_Pop_Acoustic_Folk_Guitar_1,0.35793301463127136,0
62,100,0.4909090909090909,43,1,65,_DL_Japanese_Folk_Pop_Acoustic_Folk_Guitar_1,6,8,_DL_Japanese_Folk_Pop_Acoustic_Folk_Guitar_1,0.9988439083099365,1
59,100,0.2863636363636364,467,1,65,_DL_Japanese_Folk_Pop_Acoustic_Folk_Guitar_1,6,5,_DL_Japanese_Folk_Pop_Acoustic_Folk_Guitar_1,0.13798025250434875,0
62,100,0.4681818181818182,550,0,65,_DL_Japanese_Folk_Pop_Acoustic_Folk_Guitar_1,6,7,_DL_Japanese_Folk_Pop_Acoustic_Folk_Guitar_1,0.1623639166355133,0
59,100,0.15454545454545454,658,0,65,_DL_Japanese_Folk_Pop_Acoustic_Folk_Guitar_1,6,2,_DL_Japanese_Folk_Pop_Acoustic_Folk_Guitar_1,0.191067174077034,0
66,100,0.15454545454545454,770,0,65,_DL_Japanese_Folk_Pop_Acoustic_Folk_Guitar_1,6,2,_DL_Japanese_Folk_Pop_Acoustic_Folk_Guitar_1,0.26197549700737,0
59,100,0.1318181818181818,466,1,66,_DL_Japanese_Folk_Pop_Acoustic_Folk_Guitar_1,6,2,_DL_Japanese_Folk_Pop_Acoustic_Folk_Guitar_1,0.9983232617378235,1
59,100,0.2,505,0,66,_DL_Japanese_Folk_Pop_Acoustic_Folk_Guitar_1,6,3,_DL_Japanese_Folk_Pop_Acoustic_Folk_Guitar_1,0.5462111830711365,1
62,100,0.11363636363636363,193,1,67,_DL_Japanese_Folk_Pop_Acoustic_Folk_Guitar_1,6,2,_DL_Japanese_Folk_Pop_Acoustic_Folk_Guitar_1,0.9990094900131226,1
57,100,0.10909090909090909,617,1,67,_DL_Japanese_Folk_Pop_Acoustic_Folk_Guitar_1,6,2,_DL_Japanese_Folk_Pop_Acoustic_Folk_Guitar_1,0.23323483765125275,0
57,100,0.33636363636363636,646,0,67,_DL_Japanese_Folk_Pop_Acoustic_Folk_Guitar_1,6,5,_DL_Japanese_Folk_Pop_Acoustic_Folk_Guitar_1,0.2705846130847931,0
59,100,0.2909090909090909,748,0,67,_DL_Japanese_Folk_Pop_Acoustic_Folk_Guitar_1,6,5,_DL_Japanese_Folk_Pop_Acoustic_Folk_Guitar_1,0.3579380214214325,0
64,100,0.17727272727272728,51,1,68,_DL_Japanese_Folk_Pop_Acoustic_Folk_Guitar_1,6,3,_DL_Japanese_Folk_Pop_Acoustic_Folk_Guitar_1,0.9988439083099365,1
61,100,0.65,95,0,68,_DL_Japanese_Folk_Pop_Acoustic_Folk_Guitar_1,6,10,_DL_Japanese_Folk_Pop_Acoustic_Folk_Guitar_1,0.13797807693481445,0
59,100,0.1318181818181818,243,0,68,_DL_Japanese_Folk_Pop_Acoustic_Folk_Guitar_1,6,2,_DL_Japanese_Folk_Pop_Acoustic_Folk_Guitar_1,0.16236653923988342,0
57,100,0.2909090909090909,439,0,68,_DL_Japanese_Folk_Pop_Acoustic_Folk_Guitar_1,6,5,_DL_Japanese_Folk_Pop_Acoustic_Folk_Guitar_1,0.19105935096740723,0
59,100,0.5818181818181818,801,1,68,_DL_Japanese_Folk_Pop_Acoustic_Folk_Guitar_1,6,9,_DL_Japanese_Folk_Pop_Acoustic_Folk_Guitar_1,0.2619667649269104,0
61,100,0.13636363636363635,211,1,69,_DL_Japanese_Folk_Pop_Acoustic_Folk_Guitar_1,6,2,_DL_Japanese_Folk_Pop_Acoustic_Folk_Guitar_1,0.9990279674530029,1
57,100,0.9590909090909091,256,0,69,_DL_Japanese_Folk_Pop_Acoustic_Folk_Guitar_1,6,15,_DL_Japanese_Folk_Pop_Acoustic_Folk_Guitar_1,0.3703477680683136,0
61,100,0.8954545454545455,471,0,69,_DL_Japanese_Folk_Pop_Acoustic_Folk_Guitar_1,6,14,_DL_Japanese_Folk_Pop_Acoustic_Folk_Guitar_1,0.45617443323135376,0
57,100,0.2,64,1,70,_DL_Japanese_Folk_Pop_Acoustic_Folk_Guitar_1,6,3,_DL_Japanese_Folk_Pop_Acoustic_Folk_Guitar_1,0.9986507296562195,1
59,100,0.1318181818181818,177,0,70,_DL_Japanese_Folk_Pop_Acoustic_Folk_Guitar_1,6,2,_DL_Japanese_Folk_Pop_Acoustic_Folk_Guitar_1,0.0879797413945198,0
52,100,0.2681818181818182,470,1,70,_DL_Japanese_Folk_Pop_Acoustic_Folk_Guitar_1,6,4,_DL_Japanese_Folk_Pop_Acoustic_Folk_Guitar_1,0.09298784285783768,0
56,100,0.22272727272727272,550,0,70,_DL_Japanese_Folk_Pop_Acoustic_Folk_Guitar_1,6,4,_DL_Japanese_Folk_Pop_Acoustic_Folk_Guitar_1,0.10995298624038696,0
56,100,0.17727272727272728,687,0,70,_DL_Japanese_Folk_Pop_Acoustic_Folk_Guitar_1,6,3,_DL_Japanese_Folk_Pop_Acoustic_Folk_Guitar_1,0.12867696583271027,0
68,100,0.20454545454545456,799,0,70,_DL_Japanese_Folk_Pop_Acoustic_Folk_Guitar_1,6,3,_DL_Japanese_Folk_Pop_Acoustic_Folk_Guitar_1,0.1822187900543213,0
57,100,0.2,63,1,71,_DL_Japanese_Folk_Pop_Acoustic_Folk_Guitar_1,6,3,_DL_Japanese_Folk_Pop_Acoustic_Folk_Guitar_1,0.9983735084533691,1
61,100,0.13636363636363635,155,0,71,_DL_Japanese_Folk_Pop_Acoustic_Folk_Guitar_1,6,2,_DL_Japanese_Folk_Pop_Acoustic_Folk_Guitar_1,0.05104978755116463,0
57,100,0.33636363636363636,194,0,71,_DL_Japanese_Folk_Pop_Acoustic_Folk_Guitar_1,6,5,_DL_Japanese_Folk_Pop_Acoustic_Folk_Guitar_1,0.041612233966588974,0
61,100,0.33181818181818185,284,0,71,_DL_Japanese_Folk_Pop_Acoustic_Folk_Guitar_1,6,5,_DL_Japanese_Folk_Pop_Acoustic_Folk_Guitar_1,0.037980347871780396,0
57,100,0.35909090909090907,361,0,71,_DL_Japanese_Folk_Pop_Acoustic_Folk_Guitar_1,6,6,_DL_Japanese_Folk_Pop_Acoustic_Folk_Guitar_1,0.03925998881459236,0
61,100,0.2681818181818182,469,0,71,_DL_Japanese_Folk_Pop_Acoustic_Folk_Guitar_1,6,4,_DL_Japanese_Folk_Pop_Acoustic_Folk_Guitar_1,0.0461663119494915,0
59,100,0.11363636363636363,577,0,71,_DL_Japanese_Folk_Pop_Acoustic_Folk_Guitar_1,6,2,_DL_Japanese_Folk_Pop_Acoustic_Folk_Guitar_1,0.05713420733809471,0
61,100,0.17727272727272728,849,1,71,_DL_Japanese_Folk_Pop_Acoustic_Folk_Guitar_1,6,3,_DL_Japanese_Folk_Pop_Acoustic_Folk_Guitar_1,0.0918794497847557,0
61,100,0.7818181818181819,145,1,72,_DL_Japanese_Folk_Pop_Acoustic_Folk_Guitar_1,6,13,_DL_Japanese_Folk_Pop_Acoustic_Folk_Guitar_1,0.9983231425285339,1
59,100,0.1318181818181818,617,1,72,_DL_Japanese_Folk_Pop_Acoustic_Folk_Guitar_1,6,2,_DL_Japanese_Folk_Pop_Acoustic_Folk_Guitar_1,0.5462192296981812,1
56,100,0.22272727272727272,168,1,73,_DL_Japanese_Folk_Pop_Acoustic_Folk_Guitar_1,6,4,_DL_Japanese_Folk_Pop_Acoustic_Folk_Guitar_1,0.9984879493713379,1
64,100,0.1590909090909091,305,0,73,_DL_Japanese_Folk_Pop_Acoustic_Folk_Guitar_1,6,3,_DL_Japanese_Folk_Pop_Acoustic_Folk_Guitar_1,0.06335397809743881,0
59,100,0.40454545454545454,365,0,73,_DL_Japanese_Folk_Pop_Acoustic_Folk_Guitar_1,6,6,_DL_Japanese_Folk_Pop_Acoustic_Folk_Guitar_1,0.058288514614105225,0
52,100,0.2,482,0,73,_DL_Japanese_Folk_Pop_Acoustic_Folk_Guitar_1,6,3,_DL_Japanese_Folk_Pop_Acoustic_Folk_Guitar_1,0.06136273592710495,0
57,100,0.42272727272727273,577,0,73,_DL_Japanese_Folk_Pop_Acoustic_Folk_Guitar_1,6,7,_DL_Japanese_Folk_Pop_Acoustic_Folk_Guitar_1,0.07168383151292801,0
61,100,0.8272727272727273,688,0,73,_DL_Japanese_Folk_Pop_Acoustic_Folk_Guitar_1,6,13,_DL_Japanese_Folk_Pop_Acoustic_Folk_Guitar_1,0.08473710715770721,0
57,100,0.24545454545454545,870,0,73,_DL_Japanese_Folk_Pop_Acoustic_Folk_Guitar_1,6,4,_DL_Japanese_Folk_Pop_Acoustic_Folk_Guitar_1,0.12635859847068787,0
61,100,0.2681818181818182,59,1,74,_DL_Japanese_Folk_Pop_Acoustic_Folk_Guitar_1,6,4,_DL_Japanese_Folk_Pop_Acoustic_Folk_Guitar_1,0.9984879493713379,1
57,100,0.13636363636363635,157,0,74,_DL_Japanese_Folk_Pop_Acoustic_Folk_Guitar_1,6,2,_DL_Japanese_Folk_Pop_Acoustic_Folk_Guitar_1,0.06335451453924179,0
57,100,0.1318181818181818,403,1,74,_DL_Japanese_Folk_Pop_Acoustic_Folk_Guitar_1,6,2,_DL_Japanese_Folk_Pop_Acoustic_Folk_Guitar_1,0.058290302753448486,0
61,100,0.6272727272727273,471,0,74,_DL_Japanese_Folk_Pop_Acoustic_Folk_Guitar_1,6,10,_DL_Japanese_Folk_Pop_Acoustic_Folk_Guitar_1,0.061363209038972855,0
61,100,0.1318181818181818,659,0,74,_DL_Japanese_Folk_Pop_Acoustic_Folk_Guitar_1,6,2,_DL_Japanese_Folk_Pop_Acoustic_Folk_Guitar_1,0.07168646901845932,0
61,100,0.11363636363636363,702,0,74,_DL_Japanese_Folk_Pop_Acoustic_Folk_Guitar_1,6,2,_DL_Japanese_Folk_Pop_Acoustic_Folk_Guitar_1,0.08473962545394897,0
61,100,0.31363636363636366,742,0,74,_DL_Japanese_Folk_Pop_Acoustic_Folk_Guitar_1,6,5,_DL_Japanese_Folk_Pop_Acoustic_Folk_Guitar_1,0.12635517120361328,0
69,100,0.18181818181818182,206,1,75,_DL_Japanese_Folk_Pop_Acoustic_Folk_Guitar_1,6,3,_DL_Japanese_Folk_Pop_Acoustic_Folk_Guitar_1,0.9990094900131226,1
62,100,0.1318181818181818,333,0,75,_DL_Japanese_Folk_Pop_Acoustic_Folk_Guitar_1,6,2,_DL_Japanese_Folk_Pop_Acoustic_Folk_Guitar_1,0.2332274168729782,0
59,100,0.65,652,1,75,_DL_Japanese_Folk_Pop_Acoustic_Folk_Guitar_1,6,10,_DL_Japanese_Folk_Pop_Acoustic_Folk_Guitar_1,0.2705824077129364,0
59,100,0.2909090909090909,799,0,75,_DL_Japanese_Folk_Pop_Acoustic_Folk_Guitar_1,6,5,_DL_Japanese_Folk_Pop_Acoustic_Folk_Guitar_1,0.3579252362251282,0
59,100,0.2681818181818182,484,1,76,_DL_Japanese_Folk_Pop_Acoustic_Folk_Guitar_1,6,4,_DL_Japanese_Folk_Pop_Acoustic_Folk_Guitar_1,0.9990094900131226,1
61,100,0.2681818181818182,559,0,76,_DL_Japanese_Folk_Pop_Acoustic_Folk_Guitar_1,6,4,_DL_Japanese_Folk_Pop_Acoustic_Folk_Guitar_1,0.23323029279708862,0
61,100,0.15454545454545454,661,0,76,_DL_Japanese_Folk_Pop_Acoustic_Folk_Guitar_1,6,2,_DL_Japanese_Folk_Pop_Acoustic_Folk_Guitar_1,0.2705887258052826,0
57,100,0.4909090909090909,741,0,76,_DL_Japanese_Folk_Pop_Acoustic_Folk_Guitar_1,6,8,_DL_Japanese_Folk_Pop_Acoustic_Folk_Guitar_1,0.35792797803878784,0
64,100,0.13636363636363635,425,1,77,_DL_Japanese_Folk_Pop_Acoustic_Folk_Guitar_1,6,2,_DL_Japanese_Folk_Pop_Acoustic_Folk_Guitar_1,0.9983231425285339,1
57,100,0.5136363636363637,671,1,77,_DL_Japanese_Folk_Pop_Acoustic_Folk_Guitar_1,6,8,_DL_Japanese_Folk_Pop_Acoustic_Folk_Guitar_1,0.546215832233429,1
57,100,0.24545454545454545,76,1,78,_DL_Japanese_Folk_Pop_Acoustic_Folk_Guitar_1,6,4,_DL_Japanese_Folk_Pop_Acoustic_Folk_Guitar_1,0.9990094900131226,1
64,100,0.10909090909090909,345,1,78,_DL_Japanese_Folk_Pop_Acoustic_Folk_Guitar_1,6,2,_DL_Japanese_Folk_Pop_Acoustic_Folk_Guitar_1,0.23323887586593628,0
64,100,0.35454545454545455,577,1,78,_DL_Japanese_Folk_Pop_Acoustic_Folk_Guitar_1,6,6,_DL_Japanese_Folk_Pop_Acoustic_Folk_Guitar_1,0.27059346437454224,0
57,100,0.8045454545454546,670,0,78,_DL_Japanese_Folk_Pop_Acoustic_Folk_Guitar_1,6,13,_DL_Japanese_Folk_Pop_Acoustic_Folk_Guitar_1,0.3579338490962982,0
61,100,0.2,69,1,79,_DL_Japanese_Folk_Pop_Acoustic_Folk_Guitar_1,6,3,_DL_Japanese_Folk_Pop_Acoustic_Folk_Guitar_1,0.9984879493713379,1
61,100,0.2,134,0,79,_DL_Japanese_Folk_Pop_Acoustic_Folk_Guitar_1,6,3,_DL_Japanese_Folk_Pop_Acoustic_Folk_Guitar_1,0.0633532702922821,0
61,100,0.2909090909090909,196,0,79,_DL_Japanese_Folk_Pop_Acoustic_Folk_Guitar_1,6,5,_DL_Japanese_Folk_Pop_Acoustic_Folk_Guitar_1,0.05829019472002983,0
57,100,0.2681818181818182,394,0,79,_DL_Japanese_Folk_Pop_Acoustic_Folk_Guitar_1,6,4,_DL_Japanese_Folk_Pop_Acoustic_Folk_Guitar_1,0.06136389821767807,0
57,100,0.44545454545454544,507,0,79,_DL_Japanese_Folk_Pop_Acoustic_Folk_Guitar_1,6,7,_DL_Japanese_Folk_Pop_Acoustic_Folk_Guitar_1,0.07168648391962051,0
61,100,0.9136363636363637,619,0,79,_DL_Japanese_Folk_Pop_Acoustic_Folk_Guitar_1,6,15,_DL_Japanese_Folk_Pop_Acoustic_Folk_Guitar_1,0.08473647385835648,0
57,100,0.15454545454545454,830,0,79,_DL_Japanese_Folk_Pop_Acoustic_Folk_Guitar_1,6,2,_DL_Japanese_Folk_Pop_Acoustic_Folk_Guitar_1,0.12635721266269684,0
62,100,0.1318181818181818,14,1,80,_DL_Japanese_Folk_Pop_Acoustic_Folk_Guitar_1,6,2,_DL_Japanese_Folk_Pop_Acoustic_Folk_Guitar_1,0.9990094900131226,1
57,100,0.37727272727272726,343,1,80,_DL_Japanese_Folk_Pop_Acoustic_Folk_Guitar_1,6,6,_DL_Japanese_Folk_Pop_Acoustic_Folk_Guitar_1,0.23323358595371246,0
62,100,0.5818181818181818,441,0,80,_DL_Japanese_Folk_Pop_Acoustic_Folk_Guitar_1,6,9,_DL_Japanese_Folk_Pop_Acoustic_Folk_Guitar_1,0.27059057354927063,0
59,100,0.2681818181818182,829,1,80,_DL_Japanese_Folk_Pop_Acoustic_Folk_Guitar_1,6,4,_DL_Japanese_Folk_Pop_Acoustic_Folk_Guitar_1,0.35793939232826233,0
64,100,0.2681818181818182,161,1,81,_DL_Japanese_Folk_Pop_Acoustic_Folk_Guitar_1,6,4,_DL_Japanese_Folk_Pop_Acoustic_Folk_Guitar_1,0.9983231425285339,1
64,100,0.17727272727272728,618,1,81,_DL_Japanese_Folk_Pop_Acoustic_Folk_Guitar_1,6,3,_DL_Japanese_Folk_Pop_Acoustic_Folk_Guitar_1,0.546217143535614,1
61,100,0.5363636363636364,179,1,82,_DL_Japanese_Folk_Pop_Acoustic_Folk_Guitar_1,6,9,_DL_Japanese_Folk_Pop_Acoustic_Folk_Guitar_1,0.9988439083099365,1
61,100,0.10909090909090909,342,0,82,_DL_Japanese_Folk_Pop_Acoustic_Folk_Guitar_1,6,2,_DL_Japanese_Folk_Pop_Acoustic_Folk_Guitar_1,0.1379871964454651,0
61,100,0.85,371,0,82,_DL_Japanese_Folk_Pop_Acoustic_Folk_Guitar_1,6,14,_DL_Japanese_Folk_Pop_Acoustic_Folk_Guitar_1,0.16237187385559082,0
66,100,0.8909090909090909,602,1,82,_DL_Japanese_Folk_Pop_Acoustic_Folk_Guitar_1,6,14,_DL_Japanese_Folk_Pop_Acoustic_Folk_Guitar_1,0.19107137620449066,0
57,100,0.7181818181818181,802,0,82,_DL_Japanese_Folk_Pop_Acoustic_Folk_Guitar_1,6,11,_DL_Japanese_Folk_Pop_Acoustic_Folk_Guitar_1,0.2619684338569641,0
59,100,0.31363636363636366,272,1,83,_DL_Japanese_Folk_Pop_Acoustic_Folk_Guitar_1,6,5,_DL_Japanese_Folk_Pop_Acoustic_Folk_Guitar_1,0.9984879493713379,1
59,100,0.11363636363636363,487,0,83,_DL_Japanese_Folk_Pop_Acoustic_Folk_Guitar_1,6,2,_DL_Japanese_Folk_Pop_Acoustic_Folk_Guitar_1,0.06335420161485672,0
64,100,0.11363636363636363,547,0,83,_DL_Japanese_Folk_Pop_Acoustic_Folk_Guitar_1,6,2,_DL_Japanese_Folk_Pop_Acoustic_Folk_Guitar_1,0.058290064334869385,0
59,100,0.10909090909090909,626,0,83,_DL_Japanese_Folk_Pop_Acoustic_Folk_Guitar_1,6,2,_DL_Japanese_Folk_Pop_Acoustic_Folk_Guitar_1,0.06136532127857208,0
61,100,0.11363636363636363,655,0,83,_DL_Japanese_Folk_Pop_Acoustic_Folk_Guitar_1,6,2,_DL_Japanese_Folk_Pop_Acoustic_Folk_Guitar_1,0.0716853067278862,0
64,100,0.5363636363636364,714,0,83,_DL_Japanese_Folk_Pop_Acoustic_Folk_Guitar_1,6,9,_DL_Japanese_Folk_Pop_Acoustic_Folk_Guitar_1,0.08473984152078629,0
53,100,0.1318181818181818,837,0,83,_DL_Japanese_Folk_Pop_Acoustic_Folk_Guitar_1,6,2,_DL_Japanese_Folk_Pop_Acoustic_Folk_Guitar_1,0.1263544261455536,0
61,100,0.18181818181818182,35,1,84,_DL_Japanese_Folk_Pop_Acoustic_Folk_Guitar_1,6,3,_DL_Japanese_Folk_Pop_Acoustic_Folk_Guitar_1,0.9984879493713379,1
61,100,0.38181818181818183,88,0,84,_DL_Japanese_Folk_Pop_Acoustic_Folk_Guitar_1,6,6,_DL_Japanese_Folk_Pop_Acoustic_Folk_Guitar_1,0.0633542463183403,0
57,100,0.2909090909090909,178,0,84,_DL_Japanese_Folk_Pop_Acoustic_Folk_Guitar_1,6,5,_DL_Japanese_Folk_Pop_Acoustic_Folk_Guitar_1,0.05828867852687836,0
61,100,0.2681818181818182,310,0,84,_DL_Japanese_Folk_Pop_Acoustic_Folk_Guitar_1,6,4,_DL_Japanese_Folk_Pop_Acoustic_Folk_Guitar_1,0.06136460229754448,0
61,100,0.65,379,0,84,_DL_Japanese_Folk_Pop_Acoustic_Folk_Guitar_1,6,10,_DL_Japanese_Folk_Pop_Acoustic_Folk_Guitar_1,0.07168582826852798,0
54,100,0.5818181818181818,546,0,84,_DL_Japanese_Folk_Pop_Acoustic_Folk_Guitar_1,6,9,_DL_Japanese_Folk_Pop_Acoustic_Folk_Guitar_1,0.08474092185497284,0
61,100,0.8272727272727273,702,0,84,_DL_Japanese_Folk_Pop_Acoustic_Folk_Guitar_1,6,13,_DL_Japanese_Folk_Pop_Acoustic_Folk_Guitar_1,0.126352459192276,0
62,100,0.31363636363636366,82,1,85,_DL_Japanese_Folk_Pop_Acoustic_Folk_Guitar_1,6,5,_DL_Japanese_Folk_Pop_Acoustic_Folk_Guitar_1,0.9984880685806274,1
59,100,0.24545454545454545,210,0,85,_DL_Japanese_Folk_Pop_Acoustic_Folk_Guitar_1,6,4,_DL_Japanese_Folk_Pop_Acoustic_Folk_Guitar_1,0.06335470080375671,0
62,100,0.6681818181818182,275,0,85,_DL_Japanese_Folk_Pop_Acoustic_Folk_Guitar_1,6,11,_DL_Japanese_Folk_Pop_Acoustic_Folk_Guitar_1,0.058289676904678345,0
66,100,0.15454545454545454,604,1,85,_DL_Japanese_Folk_Pop_Acoustic_Folk_Guitar_1,6,2,_DL_Japanese_Folk_Pop_Acoustic_Folk_Guitar_1,0.06136579439043999,0
66,100,0.22272727272727272,643,0,85,_DL_Japanese_Folk_Pop_Acoustic_Folk_Guitar_1,6,4,_DL_Japanese_Folk_Pop_Acoustic_Folk_Guitar_1,0.07168513536453247,0
59,100,0.10909090909090909,781,0,85,_DL_Japanese_Folk_Pop_Acoustic_Folk_Guitar_1,6,2,_DL_Japanese_Folk_Pop_Acoustic_Folk_Guitar_1,0.08473799377679825,0
52,100,0.42272727272727273,850,0,85,_DL_Japanese_Folk_Pop_Acoustic_Folk_Guitar_1,6,7,_DL_Japanese_Folk_Pop_Acoustic_Folk_Guitar_1,0.1263556033372879,0
59,100,0.2636363636363636,191,1,86,_DL_Japanese_Folk_Pop_Acoustic_Folk_Guitar_1,6,4,_DL_Japanese_Folk_Pop_Acoustic_Folk_Guitar_1,0.9988439083099365,1
52,100,0.6045454545454545,278,0,86,_DL_Japanese_Folk_Pop_Acoustic_Folk_Guitar_1,6,10,_DL_Japanese_Folk_Pop_Acoustic_Folk_Guitar_1,0.13797955214977264,0
61,100,0.740909090909091,523,1,86,_DL_Japanese_Folk_Pop_Acoustic_Folk_Guitar_1,6,12,_DL_Japanese_Folk_Pop_Acoustic_Folk_Guitar_1,0.16235940158367157,0
61,100,0.1318181818181818,789,1,86,_DL_Japanese_Folk_Pop_Acoustic_Folk_Guitar_1,6,2,_DL_Japanese_Folk_Pop_Acoustic_Folk_Guitar_1,0.19105887413024902,0
61,100,0.7818181818181819,843,0,86,_DL_Japanese_Folk_Pop_Acoustic_Folk_Guitar_1,6,13,_DL_Japanese_Folk_Pop_Acoustic_Folk_Guitar_1,0.2619643211364746,0
61,100,0.17727272727272728,190,1,87,_DL_Japanese_Folk_Pop_Acoustic_Folk_Guitar_1,6,3,_DL_Japanese_Folk_Pop_Acoustic_Folk_Guitar_1,0.9988439083099365,1
61,100,0.10909090909090909,233,0,87,_DL_Japanese_Folk_Pop_Acoustic_Folk_Guitar_1,6,2,_DL_Japanese_Folk_Pop_Acoustic_Folk_Guitar_1,0.13798734545707703,0
61,100,0.6909090909090909,292,0,87,_DL_Japanese_Folk_Pop_Acoustic_Folk_Guitar_1,6,11,_DL_Japanese_Folk_Pop_Acoustic_Folk_Guitar_1,0.16236983239650726,0
57,100,0.2681818181818182,489,0,87,_DL_Japanese_Folk_Pop_Acoustic_Folk_Guitar_1,6,4,_DL_Japanese_Folk_Pop_Acoustic_Folk_Guitar_1,0.1910688877105713,0
69,100,0.15454545454545454,548,0,87,_DL_Japanese_Folk_Pop_Acoustic_Folk_Guitar_1,6,2,_DL_Japanese_Folk_Pop_Acoustic_Folk_Guitar_1,0.261977881193161,0
57,100,0.17727272727272728,492,1,0,DL_Guitar,6,3,DL_Guitar,0.9792236089706421,1
69,100,0.33636363636363636,39,1,1,DL_Guitar,6,5,DL_Guitar,0.9986506104469299,1
52,100,0.7,166,0,1,DL_Guitar,6,11,DL_Guitar,0.08798006922006607,0
52,100,0.1,351,0,1,DL_Guitar,6,2,DL_Guitar,0.09298551827669144,0
59,100,0.1409090909090909,449,0,1,DL_Guitar,6,2,DL_Guitar,0.10995161533355713,0
52,100,0.11818181818181818,638,0,1,DL_Guitar,6,2,DL_Guitar,0.12867552042007446,0
54,100,0.4409090909090909,796,0,1,DL_Guitar,6,7,DL_Guitar,0.1822231411933899,0
59,100,0.2,12,1,2,DL_Guitar,6,3,DL_Guitar,0.9990280866622925,1
54,100,0.3409090909090909,421,1,2,DL_Guitar,6,5,DL_Guitar,0.3703438341617584,0
57,100,0.33636363636363636,501,0,2,DL_Guitar,6,5,DL_Guitar,0.4561663568019867,0
57,100,0.1409090909090909,70,1,3,DL_Guitar,6,2,DL_Guitar,0.9990094900131226,1
69,100,0.2772727272727273,295,0,3,DL_Guitar,6,4,DL_Guitar,0.23322515189647675,0
59,100,0.3,550,1,3,DL_Guitar,6,5,DL_Guitar,0.27057933807373047,0
64,100,0.2818181818181818,629,0,3,DL_Guitar,6,5,DL_Guitar,0.35793161392211914,0
61,100,0.2590909090909091,255,1,4,DL_Guitar,6,4,DL_Guitar,0.9983231425285339,1
64,100,0.3,871,1,4,DL_Guitar,6,5,DL_Guitar,0.5462226867675781,1
52,100,0.3,56,1,5,DL_Guitar,6,5,DL_Guitar,0.9990094900131226,1
69,100,0.11818181818181818,514,1,5,DL_Guitar,6,2,DL_Guitar,0.23322626948356628,0
52,100,0.5772727272727273,678,0,5,DL_Guitar,6,9,DL_Guitar,0.270577073097229,0
52,100,0.2636363636363636,862,0,5,DL_Guitar,6,4,DL_Guitar,0.3579307198524475,0
64,100,0.1,79,1,6,DL_Guitar,6,2,DL_Guitar,0.9990094900131226,1
52,100,0.8,105,0,6,DL_Guitar,6,13,DL_Guitar,0.23322804272174835,0
54,100,0.43636363636363634,414,1,6,DL_Guitar,6,7,DL_Guitar,0.27058663964271545,0
59,100,0.2409090909090909,514,0,6,DL_Guitar,6,4,DL_Guitar,0.3579294681549072,0
54,100,0.1409090909090909,87,1,7,DL_Guitar,6,2,DL_Guitar,0.9990280866622925,1
57,100,0.32272727272727275,122,0,7,DL_Guitar,6,5,DL_Guitar,0.37032896280288696,0
54,100,0.1409090909090909,317,0,7,DL_Guitar,6,2,DL_Guitar,0.4561678171157837,0
59,100,0.1,34,1,8,DL_Guitar,6,2,DL_Guitar,0.9984880685806274,1
52,100,0.1,127,0,8,DL_Guitar,6,2,DL_Guitar,0.06335325539112091,0
59,100,0.37727272727272726,347,0,8,DL_Guitar,6,6,DL_Guitar,0.058289676904678345,0
54,100,0.3409090909090909,448,0,8,DL_Guitar,6,5,DL_Guitar,0.061362866312265396,0
52,100,0.38181818181818183,673,0,8,DL_Guitar,6,6,DL_Guitar,0.0716826543211937,0
57,100,0.3,766,0,8,DL_Guitar,6,5,DL_Guitar,0.08473529666662216,0
52,100,0.1,840,0,8,DL_Guitar,6,2,DL_Guitar,0.12635594606399536,0
57,100,0.21818181818181817,0,1,9,DL_Guitar,6,3,DL_Guitar,0.9984879493713379,1
61,100,0.23636363636363636,106,0,9,DL_Guitar,6,4,DL_Guitar,0.06335334479808807,0
57,100,0.2590909090909091,163,0,9,DL_Guitar,6,4,DL_Guitar,0.058288805186748505,0
61,100,0.2772727272727273,405,1,9,DL_Guitar,6,4,DL_Guitar,0.0613635890185833,0
57,100,0.11818181818181818,484,0,9,DL_Guitar,6,2,DL_Guitar,0.07168456166982651,0
57,100,0.1409090909090909,515,0,9,DL_Guitar,6,2,DL_Guitar,0.0847398117184639,0
52,100,0.23636363636363636,809,1,9,DL_Guitar,6,4,DL_Guitar,0.12635882198810577,0
52,100,0.2409090909090909,113,1,10,DL_Guitar,6,4,DL_Guitar,0.9984880685806274,1
52,100,0.2409090909090909,299,0,10,DL_Guitar,6,4,DL_Guitar,0.06335360556840897,0
64,100,0.1,400,0,10,DL_Guitar,6,2,DL_Guitar,0.05829080939292908,0
59,100,0.32272727272727275,431,0,10,DL_Guitar,6,5,DL_Guitar,0.06136263534426689,0
52,100,0.1590909090909091,611,0,10,DL_Guitar,6,3,DL_Guitar,0.07168290764093399,0
52,100,0.43636363636363634,656,0,10,DL_Guitar,6,7,DL_Guitar,0.08473759144544601,0
52,100,0.4409090909090909,795,0,10,DL_Guitar,6,7,DL_Guitar,0.12635287642478943,0
52,100,0.11818181818181818,264,1,11,DL_Guitar,6,2,DL_Guitar,0.9792242646217346,1
66,100,0.17727272727272728,185,1,12,DL_Guitar,6,3,DL_Guitar,0.9990280866622925,1
52,100,0.1,572,1,12,DL_Guitar,6,2,DL_Guitar,0.3703474998474121,0
68,100,0.2590909090909091,756,0,12,DL_Guitar,6,4,DL_Guitar,0.4561701714992523,0
54,100,0.2590909090909091,189,1,13,DL_Guitar,6,4,DL_Guitar,0.9983232617378235,1
54,100,0.1,691,1,13,DL_Guitar,6,2,DL_Guitar,0.5462161302566528,1
64,100,0.11818181818181818,457,1,14,DL_Guitar,6,2,DL_Guitar,0.9988439083099365,1
71,100,0.18181818181818182,496,0,14,DL_Guitar,6,3,DL_Guitar,0.13798001408576965,0
72,100,0.16363636363636364,553,0,14,DL_Guitar,6,3,DL_Guitar,0.16236592829227448,0
68,100,0.11818181818181818,625,0,14,DL_Guitar,6,2,DL_Guitar,0.19105300307273865,0
64,100,0.2590909090909091,871,1,14,DL_Guitar,6,4,DL_Guitar,0.26196780800819397,0
54,100,0.1,694,1,15,DL_Guitar,6,2,DL_Guitar,0.9983232617378235,1
55,100,0.1,747,0,15,DL_Guitar,6,2,DL_Guitar,0.5462098121643066,1
52,100,0.2,52,1,16,DL_Guitar,6,3,DL_Guitar,0.9990280866622925,1
52,100,0.35909090909090907,100,0,16,DL_Guitar,6,6,DL_Guitar,0.3703403174877167,0
52,100,0.1409090909090909,638,1,16,DL_Guitar,6,2,DL_Guitar,0.45617473125457764,0
52,100,0.2,193,1,17,DL_Guitar,6,3,DL_Guitar,0.9990280866622925,1
52,100,0.2409090909090909,250,0,17,DL_Guitar,6,4,DL_Guitar,0.3703380525112152,0
55,100,0.16363636363636364,443,0,17,DL_Guitar,6,3,DL_Guitar,0.45617204904556274,0
55,100,0.1,492,1,18,DL_Guitar,6,2,DL_Guitar,0.9792240262031555,1
57,100,0.2590909090909091,430,1,19,DL_Guitar,6,4,DL_Guitar,0.9990094900131226,1
52,100,0.2636363636363636,488,0,19,DL_Guitar,6,4,DL_Guitar,0.2332324981689453,0
64,100,0.1,677,0,19,DL_Guitar,6,2,DL_Guitar,0.2705819606781006,0
64,100,0.2,704,0,19,DL_Guitar,6,3,DL_Guitar,0.3579370975494385,0
54,100,1.0818181818181818,57,1,20,DL_Guitar,6,15,DL_Guitar,0.9988439083099365,1
54,100,0.17727272727272728,382,1,20,DL_Guitar,6,3,DL_Guitar,0.1379866600036621,0
54,100,0.1409090909090909,426,0,20,DL_Guitar,6,2,DL_Guitar,0.16236945986747742,0
57,100,0.2636363636363636,686,1,20,DL_Guitar,6,4,DL_Guitar,0.19105727970600128,0
57,100,0.18181818181818182,760,0,20,DL_Guitar,6,3,DL_Guitar,0.2619694173336029,0
57,100,0.23636363636363636,106,1,21,DL_Guitar,6,4,DL_Guitar,0.9988439083099365,1
57,100,0.1,179,0,21,DL_Guitar,6,2,DL_Guitar,0.13798324763774872,0
57,100,0.38181818181818183,285,0,21,DL_Guitar,6,6,DL_Guitar,0.16236655414104462,0
61,100,0.21818181818181817,505,0,21,DL_Guitar,6,3,DL_Guitar,0.19106005132198334,0
57,100,0.11818181818181818,590,0,21,DL_Guitar,6,2,DL_Guitar,0.26196882128715515,0
54,100,1.0772727272727274,326,1,22,DL_Guitar,6,15,DL_Guitar,0.9990280866622925,1
54,100,0.2818181818181818,694,1,22,DL_Guitar,6,5,DL_Guitar,0.37034568190574646,0
62,100,0.1409090909090909,791,0,22,DL_Guitar,6,2,DL_Guitar,0.4561641216278076,0
57,100,0.1,206,1,23,DL_Guitar,6,2,DL_Guitar,0.9988439083099365,1
57,100,0.35909090909090907,299,0,23,DL_Guitar,6,6,DL_Guitar,0.13798418641090393,0
57,100,0.1590909090909091,382,0,23,DL_Guitar,6,3,DL_Guitar,0.16236688196659088,0
52,100,0.6,546,0,23,DL_Guitar,6,10,DL_Guitar,0.19105859100818634,0
52,100,0.12272727272727273,717,0,23,DL_Guitar,6,2,DL_Guitar,0.26196789741516113,0
64,100,0.1409090909090909,9,1,24,DL_Guitar,6,2,DL_Guitar,0.9983735084533691,1
54,100,0.4,48,0,24,DL_Guitar,6,6,DL_Guitar,0.051050201058387756,0
54,100,0.2409090909090909,189,0,24,DL_Guitar,6,4,DL_Guitar,0.04161294922232628,0
52,100,0.2590909090909091,308,0,24,DL_Guitar,6,4,DL_Guitar,0.037980906665325165,0
68,100,0.1590909090909091,461,0,24,DL_Guitar,6,3,DL_Guitar,0.039261072874069214,0
54,100,0.1409090909090909,515,0,24,DL_Guitar,6,2,DL_Guitar,0.04616834968328476,0
54,100,0.7772727272727272,567,0,24,DL_Guitar,6,12,DL_Guitar,0.05713306739926338,0
54,100,0.21818181818181817,748,0,24,DL_Guitar,6,3,DL_Guitar,0.09188191592693329,0
54,100,0.11818181818181818,52,1,25,DL_Guitar,6,2,DL_Guitar,0.9986506104469299,1
54,100,0.11818181818181818,131,0,25,DL_Guitar,6,2,DL_Guitar,0.08797995746135712,0
62,100,0.2409090909090909,316,0,25,DL_Guitar,6,4,DL_Guitar,0.0929831862449646,0
62,100,0.2818181818181818,374,0,25,DL_Guitar,6,5,DL_Guitar,0.10995110869407654,0
57,100,0.11818181818181818,677,1,25,DL_Guitar,6,2,DL_Guitar,0.12867790460586548,0
61,100,0.1409090909090909,818,0,25,DL_Guitar,6,2,DL_Guitar,0.18222860991954803,0
57,100,0.5363636363636364,61,1,26,DL_Guitar,6,9,DL_Guitar,0.9990094900131226,1
52,100,0.35909090909090907,409,1,26,DL_Guitar,6,6,DL_Guitar,0.23322954773902893,0
52,100,0.1590909090909091,515,0,26,DL_Guitar,6,3,DL_Guitar,0.2705829441547394,0
52,100,0.5227272727272727,686,0,26,DL_Guitar,6,8,DL_Guitar,0.35793009400367737,0
54,100,0.1409090909090909,57,1,27,DL_Guitar,6,2,DL_Guitar,0.9990094900131226,1
62,100,0.1409090909090909,625,1,27,DL_Guitar,6,2,DL_Guitar,0.23323369026184082,0
62,100,0.12272727272727273,739,0,27,DL_Guitar,6,2,DL_Guitar,0.2705915868282318,0
57,100,0.2590909090909091,814,0,27,DL_Guitar,6,4,DL_Guitar,0.35793471336364746,0
52,100,0.8,52,1,28,DL_Guitar,6,13,DL_Guitar,0.9990280866622925,1
52,100,0.42272727272727273,443,1,28,DL_Guitar,6,7,DL_Guitar,0.37034860253334045,0
52,100,0.5409090909090909,686,1,28,DL_Guitar,6,9,DL_Guitar,0.4561733305454254,0
52,100,0.3,13,1,29,DL_Guitar,6,5,DL_Guitar,0.9990280866622925,1
52,100,0.1590909090909091,83,0,29,DL_Guitar,6,3,DL_Guitar,0.3703366219997406,0
64,100,0.2,119,0,29,DL_Guitar,6,3,DL_Guitar,0.456173837184906,0
57,100,0.4818181818181818,320,1,30,DL_Guitar,6,8,DL_Guitar,0.9984880685806274,1
57,100,0.38181818181818183,440,0,30,DL_Guitar,6,6,DL_Guitar,0.06335446238517761,0
69,100,0.1409090909090909,694,1,30,DL_Guitar,6,2,DL_Guitar,0.058291397988796234,0
69,100,0.11818181818181818,735,0,30,DL_Guitar,6,2,DL_Guitar,0.061364416033029556,0
57,100,0.1590909090909091,770,0,30,DL_Guitar,6,3,DL_Guitar,0.07168746739625931,0
69,100,0.1,804,0,30,DL_Guitar,6,2,DL_Guitar,0.08474013954401016,0
57,100,0.8409090909090909,866,0,30,DL_Guitar,6,13,DL_Guitar,0.12635673582553864,0
57,100,0.5181818181818182,185,1,31,DL_Guitar,6,8,DL_Guitar,0.9984879493713379,1
57,100,0.5409090909090909,308,0,31,DL_Guitar,6,9,DL_Guitar,0.06335338205099106,0
52,100,0.18181818181818182,453,0,31,DL_Guitar,6,3,DL_Guitar,0.058290399610996246,0
52,100,0.13636363636363635,523,0,31,DL_Guitar,6,2,DL_Guitar,0.06136339530348778,0
59,100,0.35909090909090907,571,0,31,DL_Guitar,6,6,DL_Guitar,0.0716865286231041,0
59,100,0.2590909090909091,700,0,31,DL_Guitar,6,4,DL_Guitar,0.08474212884902954,0
52,100,0.1,822,0,31,DL_Guitar,6,2,DL_Guitar,0.12635867297649384,0
59,100,0.5,188,1,32,DL_Guitar,6,8,DL_Guitar,0.9986506104469299,1
54,100,0.1590909090909091,426,1,32,DL_Guitar,6,3,DL_Guitar,0.08798044919967651,0
54,100,0.2636363636363636,488,0,32,DL_Guitar,6,4,DL_Guitar,0.09298502653837204,0
59,100,0.1,593,0,32,DL_Guitar,6,2,DL_Guitar,0.10994935780763626,0
54,100,0.3409090909090909,691,0,32,DL_Guitar,6,5,DL_Guitar,0.12867313623428345,0
59,100,0.4772727272727273,831,0,32,DL_Guitar,6,8,DL_Guitar,0.18221786618232727,0
57,100,0.2409090909090909,118,1,33,DL_Guitar,6,4,DL_Guitar,0.9988439083099365,1
52,100,0.5181818181818182,308,0,33,DL_Guitar,6,8,DL_Guitar,0.13798528909683228,0
52,100,0.1590909090909091,453,0,33,DL_Guitar,6,3,DL_Guitar,0.1623692810535431,0
52,100,0.2,571,0,33,DL_Guitar,6,3,DL_Guitar,0.1910664588212967,0
69,100,0.12272727272727273,818,1,33,DL_Guitar,6,2,DL_Guitar,0.2619812786579132,0
69,100,0.2,69,1,34,DL_Guitar,6,3,DL_Guitar,0.9986506104469299,1
57,100,0.2,188,0,34,DL_Guitar,6,3,DL_Guitar,0.08798374235630035,0
57,100,0.22272727272727272,254,0,34,DL_Guitar,6,4,DL_Guitar,0.09298908710479736,0
52,100,0.2,480,0,34,DL_Guitar,6,3,DL_Guitar,0.10996000468730927,0
69,100,0.3,616,0,34,DL_Guitar,6,5,DL_Guitar,0.12867842614650726,0
57,100,1.0818181818181818,818,0,34,DL_Guitar,6,15,DL_Guitar,0.18223391473293304,0
57,100,0.5590909090909091,298,1,35,DL_Guitar,6,9,DL_Guitar,0.9988439083099365,1
52,100,0.3,488,0,35,DL_Guitar,6,5,DL_Guitar,0.13798369467258453,0
52,100,0.5772727272727273,558,0,35,DL_Guitar,6,9,DL_Guitar,0.16236183047294617,0
59,100,0.3181818181818182,735,0,35,DL_Guitar,6,5,DL_Guitar,0.1910582184791565,0
52,100,0.1409090909090909,826,0,35,DL_Guitar,6,2,DL_Guitar,0.26197150349617004,0
57,100,0.22272727272727272,4,1,36,DL_Guitar,6,4,DL_Guitar,0.9983735084533691,1
53,100,0.4818181818181818,66,0,36,DL_Guitar,6,8,DL_Guitar,0.051049742847681046,0
53,100,0.5409090909090909,179,0,36,DL_Guitar,6,9,DL_Guitar,0.04161173477768898,0
59,100,0.1590909090909091,325,0,36,DL_Guitar,6,3,DL_Guitar,0.03797890245914459,0
53,100,0.37727272727272726,435,0,36,DL_Guitar,6,6,DL_Guitar,0.039258942008018494,0
54,100,0.42272727272727273,554,0,36,DL_Guitar,6,7,DL_Guitar,0.04616409167647362,0
54,100,0.1409090909090909,813,1,36,DL_Guitar,6,2,DL_Guitar,0.0571310892701149,0
54,100,0.5409090909090909,871,0,36,DL_Guitar,6,9,DL_Guitar,0.09187662601470947,0
54,100,0.5409090909090909,179,1,37,DL_Guitar,6,9,DL_Guitar,0.9986506104469299,1
54,100,0.5,311,0,37,DL_Guitar,6,8,DL_Guitar,0.08797819912433624,0
59,100,0.13636363636363635,523,0,37,DL_Guitar,6,2,DL_Guitar,0.09298243373632431,0
59,100,0.1409090909090909,584,0,37,DL_Guitar,6,2,DL_Guitar,0.10995182394981384,0
57,100,0.22272727272727272,628,0,37,DL_Guitar,6,4,DL_Guitar,0.12867183983325958,0
59,100,0.2,708,0,37,DL_Guitar,6,3,DL_Guitar,0.18222466111183167,0
59,100,0.2818181818181818,48,1,38,DL_Guitar,6,5,DL_Guitar,0.9988439083099365,1
59,100,0.2,198,0,38,DL_Guitar,6,3,DL_Guitar,0.13798734545707703,0
57,100,0.1590909090909091,260,0,38,DL_Guitar,6,3,DL_Guitar,0.16236600279808044,0
57,100,0.1590909090909091,571,1,38,DL_Guitar,6,3,DL_Guitar,0.19106346368789673,0
69,100,0.3,606,0,38,DL_Guitar,6,5,DL_Guitar,0.2619788944721222,0
62,100,0.2,461,1,39,DL_Guitar,6,3,DL_Guitar,0.9983232617378235,1
57,100,0.5590909090909091,804,1,39,DL_Guitar,6,9,DL_Guitar,0.5462210178375244,1
52,100,0.8772727272727273,75,1,40,DL_Guitar,6,14,DL_Guitar,0.9988439083099365,1
52,100,0.13636363636363635,413,1,40,DL_Guitar,6,2,DL_Guitar,0.13798508048057556,0
52,100,0.17727272727272728,448,0,40,DL_Guitar,6,3,DL_Guitar,0.16236889362335205,0
65,100,0.2772727272727273,603,0,40,DL_Guitar,6,4,DL_Guitar,0.19105897843837738,0
53,100,0.6,681,0,40,DL_Guitar,6,10,DL_Guitar,0.26197174191474915,0
53,100,0.2636363636363636,48,1,41,DL_Guitar,6,4,DL_Guitar,0.9983735084533691,1
59,100,0.18181818181818182,224,0,41,DL_Guitar,6,3,DL_Guitar,0.05105108022689819,0
54,100,0.4772727272727273,316,0,41,DL_Guitar,6,8,DL_Guitar,0.04161199554800987,0
59,100,0.2590909090909091,435,0,41,DL_Guitar,6,4,DL_Guitar,0.03797975555062294,0
54,100,0.3,501,0,41,DL_Guitar,6,5,DL_Guitar,0.039259400218725204,0
54,100,0.2409090909090909,576,0,41,DL_Guitar,6,4,DL_Guitar,0.04616560786962509,0
54,100,0.2772727272727273,678,0,41,DL_Guitar,6,4,DL_Guitar,0.05712966248393059,0
54,100,0.4590909090909091,813,0,41,DL_Guitar,6,7,DL_Guitar,0.09187972545623779,0
59,100,0.2409090909090909,66,1,42,DL_Guitar,6,4,DL_Guitar,0.9984879493713379,1
62,100,0.2,128,0,42,DL_Guitar,6,3,DL_Guitar,0.06335416436195374,0
57,100,0.2,254,0,42,DL_Guitar,6,3,DL_Guitar,0.058290641754865646,0
52,100,0.4818181818181818,321,0,42,DL_Guitar,6,8,DL_Guitar,0.06136482581496239,0
59,100,0.2818181818181818,616,1,42,DL_Guitar,6,5,DL_Guitar,0.07168494164943695,0
52,100,0.16363636363636364,708,0,42,DL_Guitar,6,3,DL_Guitar,0.08474063873291016,0
52,100,0.11818181818181818,831,0,42,DL_Guitar,6,2,DL_Guitar,0.12635484337806702,0
57,100,0.2818181818181818,48,1,43,DL_Guitar,6,5,DL_Guitar,0.9990280866622925,1
69,100,0.3181818181818182,743,1,43,DL_Guitar,6,5,DL_Guitar,0.37035077810287476,0
57,100,0.5181818181818182,813,0,43,DL_Guitar,6,8,DL_Guitar,0.45617830753326416,0
64,100,0.1590909090909091,721,1,44,DL_Guitar,6,3,DL_Guitar,0.9990280866622925,1
64,100,0.35909090909090907,788,0,44,DL_Guitar,6,6,DL_Guitar,0.3703385591506958,0
64,100,0.32272727272727275,871,0,44,DL_Guitar,6,5,DL_Guitar,0.4561750292778015,0
53,100,0.12272727272727273,211,1,45,DL_Guitar,6,2,DL_Guitar,0.9988439083099365,1
65,100,0.18181818181818182,334,0,45,DL_Guitar,6,3,DL_Guitar,0.13798277080059052,0
54,100,0.36363636363636365,686,1,45,DL_Guitar,6,6,DL_Guitar,0.16236543655395508,0
54,100,0.23636363636363636,810,0,45,DL_Guitar,6,4,DL_Guitar,0.19105589389801025,0
66,100,0.1409090909090909,866,0,45,DL_Guitar,6,2,DL_Guitar,0.2619684934616089,0
62,100,0.3181818181818182,668,1,46,DL_Guitar,6,5,DL_Guitar,0.9983231425285339,1
52,100,0.2818181818181818,826,0,46,DL_Guitar,6,5,DL_Guitar,0.5462256669998169,1
52,100,0.12272727272727273,13,1,47,DL_Guitar,6,2,DL_Guitar,0.9990094900131226,1
52,100,0.4409090909090909,43,0,47,DL_Guitar,6,7,DL_Guitar,0.23323161900043488,0
52,100,0.5818181818181818,179,0,47,DL_Guitar,6,9,DL_Guitar,0.2705879807472229,0
53,100,1.240909090909091,426,1,47,DL_Guitar,6,15,DL_Guitar,0.3579254150390625,0
54,100,0.42272727272727273,48,1,48,DL_Guitar,6,7,DL_Guitar,0.9990280866622925,1
61,100,0.2,163,0,48,DL_Guitar,6,3,DL_Guitar,0.3703402578830719,0
61,100,0.4818181818181818,440,1,48,DL_Guitar,6,8,DL_Guitar,0.45617443323135376,0
62,100,0.4,34,1,49,DL_Guitar,6,6,DL_Guitar,0.9988439083099365,1
52,100,1.3590909090909091,176,0,49,DL_Guitar,6,15,DL_Guitar,0.13798503577709198,0
52,100,0.2,480,1,49,DL_Guitar,6,3,DL_Guitar,0.1623772531747818,0
52,100,0.1590909090909091,638,0,49,DL_Guitar,6,3,DL_Guitar,0.19107280671596527,0
53,100,1.6363636363636365,678,0,49,DL_Guitar,6,15,DL_Guitar,0.26196783781051636,0
54,100,0.23636363636363636,303,1,50,DL_Guitar,6,4,DL_Guitar,0.9988439083099365,1
61,100,0.2409090909090909,440,0,50,DL_Guitar,6,4,DL_Guitar,0.13798266649246216,0
61,100,0.4818181818181818,571,0,50,DL_Guitar,6,8,DL_Guitar,0.16236229240894318,0
61,100,0.3,691,0,50,DL_Guitar,6,5,DL_Guitar,0.19106191396713257,0
57,100,0.13636363636363635,788,0,50,DL_Guitar,6,2,DL_Guitar,0.261968731880188,0
52,100,0.5,431,1,51,DL_Guitar,6,8,DL_Guitar,0.9990280866622925,1
52,100,0.1,545,0,51,DL_Guitar,6,2,DL_Guitar,0.37033677101135254,0
52,100,0.11818181818181818,691,0,51,DL_Guitar,6,2,DL_Guitar,0.4561716616153717,0
54,100,0.1590909090909091,0,1,52,DL_Guitar,6,3,DL_Guitar,0.9986506104469299,1
54,100,0.1,56,0,52,DL_Guitar,6,2,DL_Guitar,0.08798271417617798,0
61,100,0.7,91,0,52,DL_Guitar,6,11,DL_Guitar,0.09298494458198547,0
54,100,0.3,254,0,52,DL_Guitar,6,5,DL_Guitar,0.1099584549665451,0
54,100,0.1,325,0,52,DL_Guitar,6,2,DL_Guitar,0.12868031859397888,0
61,100,2.640909090909091,426,0,52,DL_Guitar,6,15,DL_Guitar,0.1822100132703781,0
57,100,1.440909090909091,158,1,53,DL_Guitar,6,15,DL_Guitar,0.9983231425285339,1
52,100,2.1,681,1,53,DL_Guitar,6,15,DL_Guitar,0.5462164878845215,1
52,100,0.11818181818181818,303,1,54,DL_Guitar,6,2,DL_Guitar,0.9792238473892212,1
57,100,0.18181818181818182,418,1,55,DL_Guitar,6,3,DL_Guitar,0.9988439083099365,1
57,100,0.1409090909090909,518,0,55,DL_Guitar,6,2,DL_Guitar,0.13798663020133972,0
57,100,0.37727272727272726,558,0,55,DL_Guitar,6,6,DL_Guitar,0.16236749291419983,0
57,100,0.21818181818181817,660,0,55,DL_Guitar,6,3,DL_Guitar,0.1910664141178131,0
57,100,0.38181818181818183,726,0,55,DL_Guitar,6,6,DL_Guitar,0.26197072863578796,0
57,100,0.2409090909090909,625,1,56,DL_Guitar,6,4,DL_Guitar,0.9983232617378235,1
57,100,0.4818181818181818,703,0,56,DL_Guitar,6,8,DL_Guitar,0.5462151169776917,1
57,100,0.22272727272727272,4,1,57,DL_Guitar,6,4,DL_Guitar,0.9984879493713379,1
57,100,0.4,91,0,57,DL_Guitar,6,6,DL_Guitar,0.06335360556840897,0
57,100,0.4818181818181818,330,1,57,DL_Guitar,6,8,DL_Guitar,0.05828885734081268,0
57,100,0.2590909090909091,453,0,57,DL_Guitar,6,4,DL_Guitar,0.06136147305369377,0
69,100,0.1409090909090909,531,0,57,DL_Guitar,6,2,DL_Guitar,0.07168348133563995,0
61,100,0.5,691,0,57,DL_Guitar,6,8,DL_Guitar,0.0847356989979744,0
59,100,0.6,810,0,57,DL_Guitar,6,10,DL_Guitar,0.12635290622711182,0
59,100,0.18181818181818182,153,1,58,DL_Guitar,6,3,DL_Guitar,0.9990094900131226,1
59,100,0.1,215,0,58,DL_Guitar,6,2,DL_Guitar,0.23322905600070953,0
52,100,0.4409090909090909,330,0,58,DL_Guitar,6,7,DL_Guitar,0.2705818712711334,0
52,100,0.11818181818181818,536,0,58,DL_Guitar,6,2,DL_Guitar,0.35793566703796387,0
61,100,0.1409090909090909,48,1,59,DL_Guitar,6,2,DL_Guitar,0.9990280866622925,1
61,100,0.3,110,0,59,DL_Guitar,6,5,DL_Guitar,0.3703441321849823,0
57,100,0.1409090909090909,770,1,59,DL_Guitar,6,2,DL_Guitar,0.4561729431152344,0
57,100,0.11818181818181818,330,1,60,DL_Guitar,6,2,DL_Guitar,0.9990280866622925,1
61,100,0.5636363636363636,421,0,60,DL_Guitar,6,9,DL_Guitar,0.3703414797782898,0
61,100,0.3181818181818182,678,1,60,DL_Guitar,6,5,DL_Guitar,0.4561668932437897,0
57,100,0.4636363636363636,444,1,61,DL_Guitar,6,7,DL_Guitar,0.9990280866622925,1
54,100,0.35909090909090907,550,0,61,DL_Guitar,6,6,DL_Guitar,0.37033799290657043,0
57,100,0.13636363636363635,633,0,61,DL_Guitar,6,2,DL_Guitar,0.45617273449897766,0
57,100,0.11818181818181818,316,1,62,DL_Guitar,6,2,DL_Guitar,0.9990094900131226,1
57,100,0.1,471,0,62,DL_Guitar,6,2,DL_Guitar,0.23323094844818115,0
57,100,0.18181818181818182,628,0,62,DL_Guitar,6,3,DL_Guitar,0.27058473229408264,0
59,100,0.4590909090909091,810,0,62,DL_Guitar,6,7,DL_Guitar,0.3579334616661072,0
61,100,0.13636363636363635,171,1,63,DL_Guitar,6,2,DL_Guitar,0.9983735084533691,1
59,100,0.35909090909090907,316,0,63,DL_Guitar,6,6,DL_Guitar,0.05105135962367058,0
57,100,0.2409090909090909,431,0,63,DL_Guitar,6,4,DL_Guitar,0.041612252593040466,0
54,100,0.1,691,1,63,DL_Guitar,6,2,DL_Guitar,0.037980400025844574,0
54,100,0.17727272727272728,721,0,63,DL_Guitar,6,3,DL_Guitar,0.039260219782590866,0
57,100,0.12272727272727273,774,0,63,DL_Guitar,6,2,DL_Guitar,0.046164847910404205,0
54,100,0.11818181818181818,813,0,63,DL_Guitar,6,2,DL_Guitar,0.057132553309202194,0
54,100,0.12272727272727273,848,0,63,DL_Guitar,6,2,DL_Guitar,0.09187860786914825,0
57,100,0.1590909090909091,0,1,64,DL_Guitar,6,3,DL_Guitar,0.9990280866622925,1
57,100,0.7181818181818181,550,1,64,DL_Guitar,6,11,DL_Guitar,0.37034448981285095,0
57,100,0.4,849,1,64,DL_Guitar,6,6,DL_Guitar,0.4561760127544403,0
57,100,0.2409090909090909,66,1,65,DL_Guitar,6,4,DL_Guitar,0.9990280866622925,1
59,100,0.8363636363636363,172,0,65,DL_Guitar,6,13,DL_Guitar,0.3703399896621704,0
61,100,0.2409090909090909,404,1,65,DL_Guitar,6,4,DL_Guitar,0.4561631679534912,0
59,100,0.8590909090909091,426,1,66,DL_Guitar,6,14,DL_Guitar,0.9990280866622925,1
69,100,0.1,796,1,66,DL_Guitar,6,2,DL_Guitar,0.37034380435943604,0
62,100,0.12272727272727273,849,0,66,DL_Guitar,6,2,DL_Guitar,0.45617061853408813,0
62,100,0.1590909090909091,0,1,67,DL_Guitar,6,3,DL_Guitar,0.9983004927635193,1
64,100,0.5181818181818182,40,0,67,DL_Guitar,6,8,DL_Guitar,0.044663287699222565,0
64,100,0.3409090909090909,176,0,67,DL_Guitar,6,5,DL_Guitar,0.03337307646870613,0
52,100,0.37727272727272726,436,1,67,DL_Guitar,6,6,DL_Guitar,0.02695021592080593,0
52,100,0.17727272727272728,546,0,67,DL_Guitar,6,3,DL_Guitar,0.02408582530915737,0
52,100,0.1590909090909091,603,0,67,DL_Guitar,6,3,DL_Guitar,0.024974722415208817,0
52,100,0.13636363636363635,656,0,67,DL_Guitar,6,2,DL_Guitar,0.030650544911623,0
52,100,0.3409090909090909,690,0,67,DL_Guitar,6,5,DL_Guitar,0.04137113690376282,0
52,100,0.38181818181818183,849,0,67,DL_Guitar,6,6,DL_Guitar,0.07207562029361725,0
52,100,0.2,233,1,68,DL_Guitar,6,3,DL_Guitar,0.9990280866622925,1
52,100,0.37727272727272726,294,0,68,DL_Guitar,6,6,DL_Guitar,0.3703308403491974,0
59,100,0.13636363636363635,457,0,68,DL_Guitar,6,2,DL_Guitar,0.456177294254303,0
57,100,0.4,189,1,69,DL_Guitar,6,6,DL_Guitar,0.9990280866622925,1
52,100,0.2,686,1,69,DL_Guitar,6,3,DL_Guitar,0.3703398108482361,0
52,100,0.1590909090909091,832,0,69,DL_Guitar,6,3,DL_Guitar,0.45617949962615967,0
52,100,0.2590909090909091,56,1,70,DL_Guitar,6,4,DL_Guitar,0.9986506104469299,1
59,100,0.1409090909090909,140,0,70,DL_Guitar,6,2,DL_Guitar,0.08798053115606308,0
53,100,0.5818181818181818,307,0,70,DL_Guitar,6,9,DL_Guitar,0.0929800420999527,0
53,100,0.1590909090909091,453,0,70,DL_Guitar,6,3,DL_Guitar,0.1099480390548706,0
53,100,0.1409090909090909,642,0,70,DL_Guitar,6,2,DL_Guitar,0.12867030501365662,0
56,100,0.11818181818181818,734,0,70,DL_Guitar,6,2,DL_Guitar,0.18221311271190643,0
61,100,0.11818181818181818,153,1,71,DL_Guitar,6,2,DL_Guitar,0.9990280866622925,1
57,100,0.1590909090909091,673,1,71,DL_Guitar,6,3,DL_Guitar,0.3703456223011017,0
57,100,0.2,823,0,71,DL_Guitar,6,3,DL_Guitar,0.4561777114868164,0
57,100,0.1590909090909091,9,1,72,DL_Guitar,6,3,DL_Guitar,0.9990094900131226,1
59,100,1.059090909090909,193,0,72,DL_Guitar,6,15,DL_Guitar,0.2332332283258438,0
69,100,0.21818181818181817,502,1,72,DL_Guitar,6,3,DL_Guitar,0.2705853283405304,0
57,100,0.33636363636363636,743,1,72,DL_Guitar,6,5,DL_Guitar,0.35793444514274597,0
61,100,0.11818181818181818,514,1,73,DL_Guitar,6,2,DL_Guitar,0.9990280866622925,1
61,100,0.42272727272727273,585,0,73,DL_Guitar,6,7,DL_Guitar,0.37034016847610474,0
57,100,0.3409090909090909,870,1,73,DL_Guitar,6,5,DL_Guitar,0.4561727046966553,0
57,100,0.21818181818181817,132,1,74,DL_Guitar,6,3,DL_Guitar,0.9986506104469299,1
57,100,0.2772727272727273,237,0,74,DL_Guitar,6,4,DL_Guitar,0.08797995746135712,0
52,100,0.2590909090909091,559,1,74,DL_Guitar,6,4,DL_Guitar,0.09298519790172577,0
52,100,0.18181818181818182,619,0,74,DL_Guitar,6,3,DL_Guitar,0.109951451420784,0
64,100,0.18181818181818182,682,0,74,DL_Guitar,6,3,DL_Guitar,0.12867489457130432,0
59,100,0.2818181818181818,726,0,74,DL_Guitar,6,5,DL_Guitar,0.18222138285636902,0
61,100,0.1,17,1,75,DL_Guitar,6,2,DL_Guitar,0.9988439083099365,1
53,100,1.1409090909090909,47,0,75,DL_Guitar,6,15,DL_Guitar,0.13797780871391296,0
61,100,0.6409090909090909,316,1,75,DL_Guitar,6,10,DL_Guitar,0.162361741065979,0
61,100,0.12272727272727273,606,1,75,DL_Guitar,6,2,DL_Guitar,0.19105596840381622,0
61,100,0.3,739,0,75,DL_Guitar,6,5,DL_Guitar,0.2619644105434418,0
59,100,0.17727272727272728,9,1,76,DL_Guitar,6,3,DL_Guitar,0.9988439083099365,1
52,100,0.18181818181818182,550,1,76,DL_Guitar,6,3,DL_Guitar,0.1379781812429428,0
52,100,0.1409090909090909,739,0,76,DL_Guitar,6,2,DL_Guitar,0.16236461699008942,0
52,100,0.16363636363636364,773,0,76,DL_Guitar,6,3,DL_Guitar,0.19105979800224304,0
59,100,0.21818181818181817,813,0,76,DL_Guitar,6,3,DL_Guitar,0.2619746923446655,0
59,100,0.3,176,1,77,DL_Guitar,6,5,DL_Guitar,0.9988439083099365,1
59,100,0.5590909090909091,307,0,77,DL_Guitar,6,9,DL_Guitar,0.1379799097776413,0
64,100,0.18181818181818182,440,0,77,DL_Guitar,6,3,DL_Guitar,0.16236832737922668,0
59,100,0.17727272727272728,502,0,77,DL_Guitar,6,3,DL_Guitar,0.19105760753154755,0
59,100,0.4409090909090909,559,0,77,DL_Guitar,6,7,DL_Guitar,0.2619662284851074,0
57,100,0.3,289,1,78,DL_Guitar,6,5,DL_Guitar,0.9792237281799316,1
65,100,0.1409090909090909,449,1,79,DL_Guitar,6,2,DL_Guitar,0.9986506104469299,1
65,100,0.18181818181818182,550,0,79,DL_Guitar,6,3,DL_Guitar,0.0879766047000885,0
65,100,0.2,597,0,79,DL_Guitar,6,3,DL_Guitar,0.09298428893089294,0
65,100,0.6636363636363637,663,0,79,DL_Guitar,6,11,DL_Guitar,0.10994571447372437,0
65,100,0.1409090909090909,813,0,79,DL_Guitar,6,2,DL_Guitar,0.1286705881357193,0
65,100,0.5227272727272727,849,0,79,DL_Guitar,6,8,DL_Guitar,0.18220920860767365,0
59,100,0.2,246,1,80,DL_Guitar,6,3,DL_Guitar,0.9990094900131226,1
59,100,0.17727272727272728,294,0,80,DL_Guitar,6,3,DL_Guitar,0.2332274615764618,0
59,100,0.2,496,0,80,DL_Guitar,6,3,DL_Guitar,0.2705768346786499,0
52,100,0.2772727272727273,722,0,80,DL_Guitar,6,4,DL_Guitar,0.35793086886405945,0
52,100,0.6227272727272727,47,1,81,DL_Guitar,6,10,DL_Guitar,0.9983231425285339,1
61,100,1.7818181818181817,263,0,81,DL_Guitar,6,15,DL_Guitar,0.5462063550949097,1
57,100,0.2590909090909091,127,1,82,DL_Guitar,6,4,DL_Guitar,0.9990094900131226,1
57,100,0.2409090909090909,263,0,82,DL_Guitar,6,4,DL_Guitar,0.23324324190616608,0
57,100,0.1,320,0,82,DL_Guitar,6,2,DL_Guitar,0.2705990970134735,0
57,100,0.759090909090909,440,0,82,DL_Guitar,6,12,DL_Guitar,0.35793638229370117,0
57,100,0.12272727272727273,13,1,83,DL_Guitar,6,2,DL_Guitar,0.9990280866622925,1
57,100,0.2,303,1,83,DL_Guitar,6,3,DL_Guitar,0.37033480405807495,0
52,100,0.1,857,1,83,DL_Guitar,6,2,DL_Guitar,0.45617228746414185,0
61,100,0.3,197,1,84,DL_Guitar,6,5,DL_Guitar,0.9990094900131226,1
61,100,1.0,347,0,84,DL_Guitar,6,15,DL_Guitar,0.23322559893131256,0
61,100,0.5227272727272727,707,1,84,DL_Guitar,6,8,DL_Guitar,0.2705821394920349,0
61,100,0.38181818181818183,836,0,84,DL_Guitar,6,6,DL_Guitar,0.3579246401786804,0
52,100,0.4818181818181818,166,1,85,DL_Guitar,6,8,DL_Guitar,0.9986506104469299,1
52,100,0.6,286,0,85,DL_Guitar,6,10,DL_Guitar,0.08798103034496307,0
52,100,0.3,422,0,85,DL_Guitar,6,5,DL_Guitar,0.0929846540093422,0
52,100,0.35909090909090907,603,0,85,DL_Guitar,6,6,DL_Guitar,0.10995060205459595,0
59,100,0.32272727272727275,729,0,85,DL_Guitar,6,5,DL_Guitar,0.1286764144897461,0
59,100,0.18181818181818182,817,0,85,DL_Guitar,6,3,DL_Guitar,0.1822235882282257,0
64,100,0.2409090909090909,113,1,86,DL_Guitar,6,4,DL_Guitar,0.9986506104469299,1
59,100,0.42272727272727273,202,0,86,DL_Guitar,6,7,DL_Guitar,0.08798056840896606,0
57,100,0.1409090909090909,493,1,86,DL_Guitar,6,2,DL_Guitar,0.09298736602067947,0
57,100,0.35909090909090907,527,0,86,DL_Guitar,6,6,DL_Guitar,0.10995303094387054,0
57,100,0.2772727272727273,624,0,86,DL_Guitar,6,4,DL_Guitar,0.12867967784404755,0
57,100,1.1590909090909092,813,0,86,DL_Guitar,6,15,DL_Guitar,0.18222646415233612,0
57,100,0.2409090909090909,250,1,87,DL_Guitar,6,4,DL_Guitar,0.9792242646217346,1
59,100,0.1409090909090909,506,1,90,DL_Guitar,6,2,DL_Guitar,0.9990280866622925,1
59,100,0.1,646,0,90,DL_Guitar,6,2,DL_Guitar,0.37033528089523315,0
59,100,0.4590909090909091,823,0,90,DL_Guitar,6,7,DL_Guitar,0.45616915822029114,0
59,100,0.5,79,1,91,DL_Guitar,6,8,DL_Guitar,0.9990280866622925,1
52,100,0.17727272727272728,316,1,91,DL_Guitar,6,3,DL_Guitar,0.37033703923225403,0
52,100,0.4,817,1,91,DL_Guitar,6,6,DL_Guitar,0.45617422461509705,0
57,100,0.22272727272727272,100,1,92,DL_Guitar,6,4,DL_Guitar,0.9984879493713379,1
66,100,0.18181818181818182,197,0,92,DL_Guitar,6,3,DL_Guitar,0.0633544847369194,0
55,100,0.11818181818181818,426,0,92,DL_Guitar,6,2,DL_Guitar,0.05828933045268059,0
55,100,0.11818181818181818,480,0,92,DL_Guitar,6,2,DL_Guitar,0.06136300042271614,0
56,100,0.1409090909090909,506,0,92,DL_Guitar,6,2,DL_Guitar,0.07168145477771759,0
52,100,0.4,572,0,92,DL_Guitar,6,6,DL_Guitar,0.08473603427410126,0
59,100,0.32272727272727275,707,0,92,DL_Guitar,6,5,DL_Guitar,0.12635034322738647,0
64,100,0.16363636363636364,3,1,93,DL_Guitar,6,3,DL_Guitar,0.9988439083099365,1
59,100,0.11818181818181818,150,0,93,DL_Guitar,6,2,DL_Guitar,0.13798680901527405,0
65,100,0.4590909090909091,320,0,93,DL_Guitar,6,7,DL_Guitar,0.16237033903598785,0
65,100,0.2772727272727273,426,0,93,DL_Guitar,6,4,DL_Guitar,0.19106443226337433,0
57,100,0.5181818181818182,844,1,93,DL_Guitar,6,8,DL_Guitar,0.26196223497390747,0
59,100,0.3181818181818182,813,1,94,DL_Guitar,6,5,DL_Guitar,0.979223906993866,1
59,100,0.32272727272727275,92,1,95,DL_Guitar,6,5,DL_Guitar,0.9983232617378235,1
59,100,0.1409090909090909,223,0,95,DL_Guitar,6,2,DL_Guitar,0.5462120771408081,1
54,100,0.1590909090909091,53,1,96,DL_Guitar,6,3,DL_Guitar,0.9983232617378235,1
57,100,0.6181818181818182,734,1,96,DL_Guitar,6,10,DL_Guitar,0.5462133288383484,1
57,100,0.21818181818181817,0,1,97,DL_Guitar,6,3,DL_Guitar,0.9990094900131226,1
59,100,0.4818181818181818,189,0,97,DL_Guitar,6,8,DL_Guitar,0.23323708772659302,0
64,100,0.11818181818181818,493,1,97,DL_Guitar,6,2,DL_Guitar,0.2705942392349243,0
57,100,0.8409090909090909,823,1,97,DL_Guitar,6,13,DL_Guitar,0.35793250799179077,0
57,100,0.12272727272727273,157,1,98,DL_Guitar,6,2,DL_Guitar,0.979223906993866,1
57,100,0.2409090909090909,443,1,100,DL_Guitar,6,4,DL_Guitar,0.9990094900131226,1
57,100,0.2409090909090909,563,0,100,DL_Guitar,6,4,DL_Guitar,0.23322243988513947,0
57,100,0.2,633,0,100,DL_Guitar,6,3,DL_Guitar,0.2705824077129364,0
59,100,0.5590909090909091,810,0,100,DL_Guitar,6,9,DL_Guitar,0.35792097449302673,0
59,100,0.11818181818181818,83,1,101,DL_Guitar,6,2,DL_Guitar,0.9986506104469299,1
59,100,0.4,153,0,101,DL_Guitar,6,6,DL_Guitar,0.08797796815633774,0
59,100,0.2,260,0,101,DL_Guitar,6,3,DL_Guitar,0.09298308938741684,0
59,100,0.5227272727272727,430,0,101,DL_Guitar,6,8,DL_Guitar,0.10994771867990494,0
53,100,0.3,677,1,101,DL_Guitar,6,5,DL_Guitar,0.12866991758346558,0
59,100,0.2,756,0,101,DL_Guitar,6,3,DL_Guitar,0.1822212189435959,0
57,100,0.4772727272727273,193,1,102,DL_Guitar,6,8,DL_Guitar,0.9990094900131226,1
57,100,0.18181818181818182,597,1,102,DL_Guitar,6,3,DL_Guitar,0.23323985934257507,0
57,100,0.4636363636363636,707,0,102,DL_Guitar,6,7,DL_Guitar,0.2705889046192169,0
57,100,0.1,839,0,102,DL_Guitar,6,2,DL_Guitar,0.3579308092594147,0
57,100,0.12272727272727273,35,1,103,DL_Guitar,6,2,DL_Guitar,0.9990094900131226,1
59,100,0.5181818181818182,184,0,103,DL_Guitar,6,8,DL_Guitar,0.23323185741901398,0
59,100,0.7227272727272728,312,0,103,DL_Guitar,6,12,DL_Guitar,0.27057698369026184,0
52,100,0.13636363636363635,502,0,103,DL_Guitar,6,2,DL_Guitar,0.3579307496547699,0
57,100,0.1,282,1,104,DL_Guitar,6,2,DL_Guitar,0.9983004927635193,1
57,100,0.18181818181818182,466,0,104,DL_Guitar,6,3,DL_Guitar,0.04466354101896286,0
57,100,0.1,514,0,104,DL_Guitar,6,2,DL_Guitar,0.03337200731039047,0
57,100,0.2590909090909091,540,0,104,DL_Guitar,6,4,DL_Guitar,0.02694859355688095,0
57,100,0.11818181818181818,616,0,104,DL_Guitar,6,2,DL_Guitar,0.02408359944820404,0
57,100,0.2409090909090909,682,0,104,DL_Guitar,6,4,DL_Guitar,0.024973606690764427,0
57,100,0.1,743,0,104,DL_Guitar,6,2,DL_Guitar,0.03064858913421631,0
57,100,0.1590909090909091,770,0,104,DL_Guitar,6,3,DL_Guitar,0.0413697212934494,0
57,100,0.1,813,0,104,DL_Guitar,6,2,DL_Guitar,0.07207144051790237,0
57,100,0.11818181818181818,9,1,105,DL_Guitar,6,2,DL_Guitar,0.9792237281799316,1
52,100,0.10454545454545454,863,1,0,DL_Guitar_1,6,2,DL_Guitar_1,0.9792240262031555,1
52,100,0.1409090909090909,29,1,1,DL_Guitar_1,6,2,DL_Guitar_1,0.9990280866622925,1
52,100,0.38181818181818183,197,0,1,DL_Guitar_1,6,6,DL_Guitar_1,0.37033358216285706,0
52,100,0.29545454545454547,862,1,1,DL_Guitar_1,6,5,DL_Guitar_1,0.45617565512657166,0
52,100,0.29545454545454547,100,1,2,DL_Guitar_1,6,5,DL_Guitar_1,0.9792245030403137,1
52,100,0.2590909090909091,73,1,4,DL_Guitar_1,6,4,DL_Guitar_1,0.9792247414588928,1
52,100,0.29545454545454547,73,1,5,DL_Guitar_1,6,5,DL_Guitar_1,0.9990280866622925,1
52,100,0.2772727272727273,179,0,5,DL_Guitar_1,6,4,DL_Guitar_1,0.3703422546386719,0
52,100,0.13636363636363635,282,0,5,DL_Guitar_1,6,2,DL_Guitar_1,0.45617154240608215,0
52,100,0.32727272727272727,60,1,6,DL_Guitar_1,6,5,DL_Guitar_1,0.9990094900131226,1
52,100,0.11818181818181818,163,0,6,DL_Guitar_1,6,2,DL_Guitar_1,0.23322637379169464,0
52,100,0.10454545454545454,201,0,6,DL_Guitar_1,6,2,DL_Guitar_1,0.27058708667755127,0
52,100,0.1590909090909091,273,0,6,DL_Guitar_1,6,3,DL_Guitar_1,0.35793396830558777,0
54,100,0.10454545454545454,563,1,11,DL_Guitar_1,6,2,DL_Guitar_1,0.9983232617378235,1
52,100,0.17727272727272728,780,0,11,DL_Guitar_1,6,3,DL_Guitar_1,0.5462146401405334,1
52,100,0.4,8,1,12,DL_Guitar_1,6,6,DL_Guitar_1,0.9990280866622925,1
54,100,0.1,111,0,12,DL_Guitar_1,6,2,DL_Guitar_1,0.3703373074531555,0
52,100,0.09090909090909091,218,0,12,DL_Guitar_1,6,1,DL_Guitar_1,0.4561692178249359,0
52,100,0.41363636363636364,771,1,13,DL_Guitar_1,6,7,DL_Guitar_1,0.9983231425285339,1
52,100,0.43636363636363634,866,0,13,DL_Guitar_1,6,7,DL_Guitar_1,0.5462177991867065,1
54,100,0.1409090909090909,111,1,14,DL_Guitar_1,6,2,DL_Guitar_1,0.9990280866622925,1
54,100,0.13636363636363635,147,0,14,DL_Guitar_1,6,2,DL_Guitar_1,0.3703380823135376,0
52,100,0.20909090909090908,204,0,14,DL_Guitar_1,6,3,DL_Guitar_1,0.45616886019706726,0
56,100,0.20909090909090908,99,1,15,DL_Guitar_1,6,3,DL_Guitar_1,0.9990280866622925,1
52,100,0.34545454545454546,759,1,15,DL_Guitar_1,6,6,DL_Guitar_1,0.3703465759754181,0
56,100,0.2409090909090909,874,0,15,DL_Guitar_1,6,4,DL_Guitar_1,0.4561660885810852,0
52,100,0.11818181818181818,185,1,16,DL_Guitar_1,6,2,DL_Guitar_1,0.9983232617378235,1
52,100,0.1590909090909091,216,0,16,DL_Guitar_1,6,3,DL_Guitar_1,0.5462173223495483,1
52,100,0.6045454545454545,722,1,17,DL_Guitar_1,6,10,DL_Guitar_1,0.9792247414588928,1
52,100,0.1590909090909091,21,1,18,DL_Guitar_1,6,3,DL_Guitar_1,0.9990094900131226,1
54,100,0.10454545454545454,147,0,18,DL_Guitar_1,6,2,DL_Guitar_1,0.23322881758213043,0
52,100,0.2590909090909091,175,0,18,DL_Guitar_1,6,4,DL_Guitar_1,0.27057692408561707,0
52,100,0.08636363636363636,506,1,18,DL_Guitar_1,6,1,DL_Guitar_1,0.357925683259964,0
52,100,0.85,735,1,19,DL_Guitar_1,6,14,DL_Guitar_1,0.9792240262031555,1
52,100,0.13636363636363635,72,1,20,DL_Guitar_1,6,2,DL_Guitar_1,0.9983232617378235,1
52,100,0.1409090909090909,164,0,20,DL_Guitar_1,6,2,DL_Guitar_1,0.546216607093811,1
56,100,0.33181818181818185,831,1,21,DL_Guitar_1,6,5,DL_Guitar_1,0.9792225360870361,1
52,100,0.22727272727272727,38,1,22,DL_Guitar_1,6,4,DL_Guitar_1,0.9792243838310242,1
57,100,0.19090909090909092,855,1,23,DL_Guitar_1,6,3,DL_Guitar_1,0.979223906993866,1
54,100,0.10454545454545454,35,1,24,DL_Guitar_1,6,2,DL_Guitar_1,0.9792248606681824,1
56,100,0.39545454545454545,30,1,25,DL_Guitar_1,6,6,DL_Guitar_1,0.9990280866622925,1
56,100,0.5045454545454545,477,1,25,DL_Guitar_1,6,8,DL_Guitar_1,0.3703475892543793,0
56,100,0.31363636363636366,691,0,25,DL_Guitar_1,6,5,DL_Guitar_1,0.45616796612739563,0
56,100,0.13636363636363635,185,1,26,DL_Guitar_1,6,2,DL_Guitar_1,0.9792232513427734,1
64,100,0.08636363636363636,677,1,27,DL_Guitar_1,6,1,DL_Guitar_1,0.9792246222496033,1
56,100,0.15454545454545454,285,1,28,DL_Guitar_1,6,2,DL_Guitar_1,0.9990094900131226,1
56,100,0.29545454545454547,354,0,28,DL_Guitar_1,6,5,DL_Guitar_1,0.23323193192481995,0
56,100,0.41818181818181815,450,0,28,DL_Guitar_1,6,7,DL_Guitar_1,0.27057787775993347,0
52,100,0.33181818181818185,781,1,28,DL_Guitar_1,6,5,DL_Guitar_1,0.3579336106777191,0
56,100,0.4863636363636364,4,1,29,DL_Guitar_1,6,8,DL_Guitar_1,0.9990280866622925,1
56,100,0.19090909090909092,116,0,29,DL_Guitar_1,6,3,DL_Guitar_1,0.37034714221954346,0
57,100,0.15454545454545454,605,1,29,DL_Guitar_1,6,2,DL_Guitar_1,0.45617300271987915,0
56,100,0.6772727272727272,821,1,30,DL_Guitar_1,6,11,DL_Guitar_1,0.9792230129241943,1
56,100,0.20909090909090908,422,1,31,DL_Guitar_1,6,3,DL_Guitar_1,0.979223370552063,1
56,100,0.19090909090909092,96,1,32,DL_Guitar_1,6,3,DL_Guitar_1,0.979223370552063,1
56,100,0.19090909090909092,597,1,37,DL_Guitar_1,6,3,DL_Guitar_1,0.9792237281799316,1
52,100,0.41363636363636364,370,1,38,DL_Guitar_1,6,7,DL_Guitar_1,0.9792243838310242,1
56,100,0.29545454545454547,555,1,44,DL_Guitar_1,6,5,DL_Guitar_1,0.9990280866622925,1
56,100,0.08636363636363636,669,0,44,DL_Guitar_1,6,1,DL_Guitar_1,0.37034913897514343,0
56,100,0.17272727272727273,772,0,44,DL_Guitar_1,6,3,DL_Guitar_1,0.45616233348846436,0
56,100,0.29545454545454547,836,1,48,DL_Guitar_1,6,5,DL_Guitar_1,0.9792238473892212,1
56,100,0.2772727272727273,829,1,50,DL_Guitar_1,6,4,DL_Guitar_1,0.9792231321334839,1
56,100,0.10454545454545454,840,1,52,DL_Guitar_1,6,2,DL_Guitar_1,0.979223906993866,1
56,100,0.13636363636363635,859,1,53,DL_Guitar_1,6,2,DL_Guitar_1,0.979223370552063,1
64,100,0.10454545454545454,282,1,55,DL_Guitar_1,6,2,DL_Guitar_1,0.9792245030403137,1
56,100,0.5,111,1,57,DL_Guitar_1,6,8,DL_Guitar_1,0.9792231321334839,1
54,100,0.10454545454545454,220,1,58,DL_Guitar_1,6,2,DL_Guitar_1,0.9986506104469299,1
58,100,0.2590909090909091,495,1,58,DL_Guitar_1,6,4,DL_Guitar_1,0.08797949552536011,0
58,100,0.24545454545454545,595,0,58,DL_Guitar_1,6,4,DL_Guitar_1,0.09298490732908249,0
54,100,0.17272727272727273,655,0,58,DL_Guitar_1,6,3,DL_Guitar_1,0.10994920134544373,0
54,100,0.13636363636363635,770,0,58,DL_Guitar_1,6,2,DL_Guitar_1,0.1286691129207611,0
64,100,0.13636363636363635,836,0,58,DL_Guitar_1,6,2,DL_Guitar_1,0.18221724033355713,0
52,100,0.13636363636363635,282,1,60,DL_Guitar_1,6,2,DL_Guitar_1,0.9990094900131226,1
52,100,0.45,432,0,60,DL_Guitar_1,6,7,DL_Guitar_1,0.23323330283164978,0
56,100,0.4681818181818182,535,0,60,DL_Guitar_1,6,7,DL_Guitar_1,0.27057790756225586,0
52,100,0.41818181818181815,648,0,60,DL_Guitar_1,6,7,DL_Guitar_1,0.3579348921775818,0
64,100,0.17272727272727273,335,1,61,DL_Guitar_1,6,3,DL_Guitar_1,0.9792246222496033,1
61,100,0.1409090909090909,713,1,63,DL_Guitar_1,6,2,DL_Guitar_1,0.9983232617378235,1
58,100,0.41818181818181815,861,0,63,DL_Guitar_1,6,7,DL_Guitar_1,0.5462167263031006,1
54,100,0.11818181818181818,85,1,64,DL_Guitar_1,6,2,DL_Guitar_1,0.9988439083099365,1
54,100,0.1590909090909091,177,0,64,DL_Guitar_1,6,3,DL_Guitar_1,0.13798072934150696,0
58,100,0.6772727272727272,219,0,64,DL_Guitar_1,6,11,DL_Guitar_1,0.16236214339733124,0
58,100,0.4,422,0,64,DL_Guitar_1,6,6,DL_Guitar_1,0.19105330109596252,0
58,100,0.2590909090909091,528,0,64,DL_Guitar_1,6,4,DL_Guitar_1,0.26195988059043884,0
69,100,0.20909090909090908,447,1,65,DL_Guitar_1,6,3,DL_Guitar_1,0.9792237281799316,1
56,100,0.5045454545454545,384,1,66,DL_Guitar_1,6,8,DL_Guitar_1,0.9792232513427734,1
83,100,0.1409090909090909,176,1,67,DL_Guitar_1,6,2,DL_Guitar_1,0.9792240262031555,1
83,100,0.08636363636363636,736,1,68,DL_Guitar_1,6,1,DL_Guitar_1,0.9792236089706421,1
59,100,0.1590909090909091,215,1,69,DL_Guitar_1,6,3,DL_Guitar_1,0.9983231425285339,1
54,100,0.4318181818181818,803,1,69,DL_Guitar_1,6,7,DL_Guitar_1,0.5462169647216797,1
58,100,0.5363636363636364,27,1,70,DL_Guitar_1,6,9,DL_Guitar_1,0.9986506104469299,1
58,100,0.41818181818181815,167,0,70,DL_Guitar_1,6,7,DL_Guitar_1,0.08797971159219742,0
58,100,0.38181818181818183,278,0,70,DL_Guitar_1,6,6,DL_Guitar_1,0.09298370033502579,0
54,100,0.4,367,0,70,DL_Guitar_1,6,6,DL_Guitar_1,0.10994739830493927,0
58,100,0.41818181818181815,477,0,70,DL_Guitar_1,6,7,DL_Guitar_1,0.12867163121700287,0
62,100,0.2772727272727273,810,1,70,DL_Guitar_1,6,4,DL_Guitar_1,0.18221473693847656,0
56,100,0.2772727272727273,808,1,71,DL_Guitar_1,6,4,DL_Guitar_1,0.9983231425285339,1
56,100,0.10454545454545454,872,0,71,DL_Guitar_1,6,2,DL_Guitar_1,0.5462121963500977,1
56,100,0.45,131,1,72,DL_Guitar_1,6,7,DL_Guitar_1,0.9988439083099365,1
56,100,0.38181818181818183,252,0,72,DL_Guitar_1,6,6,DL_Guitar_1,0.1379871368408203,0
56,100,0.9227272727272727,352,0,72,DL_Guitar_1,6,15,DL_Guitar_1,0.16236145794391632,0
56,100,0.34545454545454546,596,1,72,DL_Guitar_1,6,6,DL_Guitar_1,0.19106122851371765,0
57,100,0.15454545454545454,733,0,72,DL_Guitar_1,6,2,DL_Guitar_1,0.26196759939193726,0
69,100,0.19090909090909092,457,1,73,DL_Guitar_1,6,3,DL_Guitar_1,0.9990280866622925,1
69,100,0.12272727272727273,522,0,73,DL_Guitar_1,6,2,DL_Guitar_1,0.37034475803375244,0
56,100,0.36818181818181817,800,1,73,DL_Guitar_1,6,6,DL_Guitar_1,0.4561706483364105,0
56,100,0.4727272727272727,215,1,74,DL_Guitar_1,6,8,DL_Guitar_1,0.9990094900131226,1
56,100,0.32727272727272727,360,0,74,DL_Guitar_1,6,5,DL_Guitar_1,0.2332363873720169,0
69,100,0.2590909090909091,440,0,74,DL_Guitar_1,6,4,DL_Guitar_1,0.2706039845943451,0
56,100,0.8181818181818182,581,0,74,DL_Guitar_1,6,13,DL_Guitar_1,0.3579171895980835,0
59,100,0.08636363636363636,320,1,75,DL_Guitar_1,6,1,DL_Guitar_1,0.9988439083099365,1
59,100,0.22727272727272727,355,0,75,DL_Guitar_1,6,4,DL_Guitar_1,0.13797828555107117,0
59,100,0.12272727272727273,447,0,75,DL_Guitar_1,6,2,DL_Guitar_1,0.1623631864786148,0
59,100,0.10454545454545454,477,0,75,DL_Guitar_1,6,2,DL_Guitar_1,0.19105879962444305,0
59,100,0.24545454545454545,652,0,75,DL_Guitar_1,6,4,DL_Guitar_1,0.2619612216949463,0
56,100,0.1590909090909091,105,1,76,DL_Guitar_1,6,3,DL_Guitar_1,0.9986506104469299,1
56,100,0.36363636363636365,151,0,76,DL_Guitar_1,6,6,DL_Guitar_1,0.08798137307167053,0
56,100,0.08636363636363636,238,0,76,DL_Guitar_1,6,1,DL_Guitar_1,0.09298422187566757,0
56,100,0.29545454545454547,349,0,76,DL_Guitar_1,6,5,DL_Guitar_1,0.10994963347911835,0
56,100,0.2772727272727273,453,0,76,DL_Guitar_1,6,4,DL_Guitar_1,0.12866714596748352,0
56,100,0.10454545454545454,605,0,76,DL_Guitar_1,6,2,DL_Guitar_1,0.18221378326416016,0
69,100,0.12272727272727273,431,1,77,DL_Guitar_1,6,2,DL_Guitar_1,0.979223906993866,1
52,100,0.15454545454545454,180,1,79,DL_Guitar_1,6,2,DL_Guitar_1,0.9988439083099365,1
56,100,0.35,321,0,79,DL_Guitar_1,6,6,DL_Guitar_1,0.13798788189888,0
56,100,0.41818181818181815,410,0,79,DL_Guitar_1,6,7,DL_Guitar_1,0.16236382722854614,0
56,100,0.13636363636363635,548,0,79,DL_Guitar_1,6,2,DL_Guitar_1,0.19106346368789673,0
57,100,0.5909090909090909,781,1,79,DL_Guitar_1,6,9,DL_Guitar_1,0.26195845007896423,0
57,100,0.2590909090909091,5,1,81,DL_Guitar_1,6,4,DL_Guitar_1,0.9983231425285339,1
57,100,0.5227272727272727,719,1,81,DL_Guitar_1,6,8,DL_Guitar_1,0.5462234020233154,1
57,100,0.35,726,1,82,DL_Guitar_1,6,6,DL_Guitar_1,0.9792238473892212,1
57,100,0.45,151,1,83,DL_Guitar_1,6,7,DL_Guitar_1,0.9984879493713379,1
52,100,0.2772727272727273,282,0,83,DL_Guitar_1,6,4,DL_Guitar_1,0.06335350126028061,0
52,100,0.10454545454545454,408,0,83,DL_Guitar_1,6,2,DL_Guitar_1,0.05829094722867012,0
52,100,0.10454545454545454,435,0,83,DL_Guitar_1,6,2,DL_Guitar_1,0.06136249005794525,0
52,100,0.08636363636363636,461,0,83,DL_Guitar_1,6,1,DL_Guitar_1,0.0716838613152504,0
64,100,0.22727272727272727,507,0,83,DL_Guitar_1,6,4,DL_Guitar_1,0.08473782986402512,0
83,100,0.22727272727272727,632,0,83,DL_Guitar_1,6,4,DL_Guitar_1,0.12635329365730286,0
57,100,0.13636363636363635,608,1,84,DL_Guitar_1,6,2,DL_Guitar_1,0.979223906993866,1
54,100,0.4,689,1,86,DL_Guitar_1,6,6,DL_Guitar_1,0.9792242646217346,1
54,100,0.3090909090909091,153,1,87,DL_Guitar_1,6,5,DL_Guitar_1,0.9990280866622925,1
61,100,0.19090909090909092,352,0,87,DL_Guitar_1,6,3,DL_Guitar_1,0.37033188343048096,0
61,100,0.41363636363636364,470,0,87,DL_Guitar_1,6,7,DL_Guitar_1,0.4561651945114136,0
52,100,0.12272727272727273,114,1,1,DL_Guitar,6,2,DL_Guitar,0.9990280866622925,1
52,100,0.1590909090909091,166,0,1,DL_Guitar,6,3,DL_Guitar,0.3703421354293823,0
52,100,0.4409090909090909,360,0,1,DL_Guitar,6,7,DL_Guitar,0.4561730921268463,0
52,100,0.3409090909090909,246,1,2,DL_Guitar,6,5,DL_Guitar,0.9983232617378235,1
52,100,0.3409090909090909,382,0,2,DL_Guitar,6,5,DL_Guitar,0.5462177991867065,1
52,100,0.3,619,1,4,DL_Guitar,6,5,DL_Guitar,0.9792245030403137,1
52,100,0.3409090909090909,752,1,5,DL_Guitar,6,5,DL_Guitar,0.9983231425285339,1
52,100,0.3181818181818182,875,0,5,DL_Guitar,6,5,DL_Guitar,0.5462190508842468,1
52,100,0.16363636363636364,114,1,6,DL_Guitar,6,3,DL_Guitar,0.9983232617378235,1
52,100,0.38181818181818183,871,1,6,DL_Guitar,6,6,DL_Guitar,0.5462194681167603,1
52,100,0.1409090909090909,110,1,7,DL_Guitar,6,2,DL_Guitar,0.9990280866622925,1
52,100,0.11818181818181818,153,0,7,DL_Guitar,6,2,DL_Guitar,0.37033602595329285,0
52,100,0.17727272727272728,238,0,7,DL_Guitar,6,3,DL_Guitar,0.45616796612739563,0
54,100,0.11818181818181818,360,1,13,DL_Guitar,6,2,DL_Guitar,0.9990094900131226,1
52,100,0.2,611,1,13,DL_Guitar,6,3,DL_Guitar,0.23322518169879913,0
52,100,0.4590909090909091,735,0,13,DL_Guitar,6,7,DL_Guitar,0.2705771028995514,0
54,100,0.11818181818181818,854,0,13,DL_Guitar,6,2,DL_Guitar,0.357931911945343,0
52,100,0.1,96,1,14,DL_Guitar,6,2,DL_Guitar,0.9792245030403137,1
52,100,0.4772727272727273,866,1,15,DL_Guitar,6,8,DL_Guitar,0.9792243838310242,1
52,100,0.5,96,1,16,DL_Guitar,6,8,DL_Guitar,0.9990094900131226,1
54,100,0.1590909090909091,241,0,16,DL_Guitar,6,3,DL_Guitar,0.2332339584827423,0
54,100,0.1590909090909091,281,0,16,DL_Guitar,6,3,DL_Guitar,0.27057844400405884,0
52,100,0.23636363636363636,347,0,16,DL_Guitar,6,4,DL_Guitar,0.35792866349220276,0
56,100,0.2409090909090909,360,1,17,DL_Guitar,6,4,DL_Guitar,0.9792230129241943,1
52,100,0.4,241,1,18,DL_Guitar,6,6,DL_Guitar,0.9990094900131226,1
56,100,0.2818181818181818,374,0,18,DL_Guitar,6,5,DL_Guitar,0.23322606086730957,0
52,100,0.1409090909090909,594,0,18,DL_Guitar,6,2,DL_Guitar,0.270589143037796,0
52,100,0.18181818181818182,629,0,18,DL_Guitar,6,3,DL_Guitar,0.3579372763633728,0
52,100,0.7,466,1,20,DL_Guitar,6,11,DL_Guitar,0.9990094900131226,1
52,100,0.18181818181818182,673,0,20,DL_Guitar,6,3,DL_Guitar,0.23322878777980804,0
54,100,0.12272727272727273,818,0,20,DL_Guitar,6,2,DL_Guitar,0.27058422565460205,0
52,100,0.3,849,0,20,DL_Guitar,6,5,DL_Guitar,0.3579321801662445,0
52,100,0.1,351,1,21,DL_Guitar,6,2,DL_Guitar,0.9792240262031555,1
52,100,0.9818181818181818,748,1,22,DL_Guitar,6,15,DL_Guitar,0.9792240262031555,1
52,100,0.1590909090909091,119,1,23,DL_Guitar,6,3,DL_Guitar,0.9983232617378235,1
52,100,0.16363636363636364,223,0,23,DL_Guitar,6,3,DL_Guitar,0.5462120771408081,1
56,100,0.38181818181818183,246,1,25,DL_Guitar,6,6,DL_Guitar,0.9983231425285339,1
52,100,0.2590909090909091,347,0,25,DL_Guitar,6,4,DL_Guitar,0.5462177991867065,1
57,100,0.22272727272727272,540,1,27,DL_Guitar,6,4,DL_Guitar,0.9983232617378235,1
54,100,0.11818181818181818,611,0,27,DL_Guitar,6,2,DL_Guitar,0.5462151765823364,1
56,100,0.4590909090909091,739,1,28,DL_Guitar,6,7,DL_Guitar,0.9792238473892212,1
56,100,0.5818181818181818,374,1,29,DL_Guitar,6,9,DL_Guitar,0.9983231425285339,1
56,100,0.36363636363636365,619,1,29,DL_Guitar,6,6,DL_Guitar,0.5462155342102051,1
56,100,0.1590909090909091,171,1,30,DL_Guitar,6,3,DL_Guitar,0.9792237281799316,1
64,100,0.1,870,1,31,DL_Guitar,6,2,DL_Guitar,0.9792249798774719,1
56,100,0.18181818181818182,554,1,32,DL_Guitar,6,3,DL_Guitar,0.9990280866622925,1
56,100,0.33636363636363636,633,0,32,DL_Guitar,6,5,DL_Guitar,0.37034550309181213,0
56,100,0.4772727272727273,743,0,32,DL_Guitar,6,8,DL_Guitar,0.45616450905799866,0
52,100,0.38181818181818183,246,1,33,DL_Guitar,6,6,DL_Guitar,0.9990280866622925,1
56,100,0.5590909090909091,364,0,33,DL_Guitar,6,9,DL_Guitar,0.370341032743454,0
56,100,0.21818181818181817,493,0,33,DL_Guitar,6,3,DL_Guitar,0.45616841316223145,0
57,100,0.18181818181818182,176,1,34,DL_Guitar,6,3,DL_Guitar,0.9792240262031555,1
56,100,0.7772727272727272,558,1,35,DL_Guitar,6,12,DL_Guitar,0.9792230129241943,1
56,100,0.2409090909090909,233,1,36,DL_Guitar,6,4,DL_Guitar,0.9983231425285339,1
56,100,0.22272727272727272,871,1,36,DL_Guitar,6,4,DL_Guitar,0.5462186336517334,1
56,100,0.22272727272727272,356,1,43,DL_Guitar,6,4,DL_Guitar,0.979223370552063,1
52,100,0.4772727272727273,228,1,44,DL_Guitar,6,8,DL_Guitar,0.9792243838310242,1
56,100,0.3409090909090909,364,1,51,DL_Guitar,6,5,DL_Guitar,0.9990280866622925,1
56,100,0.1,496,0,51,DL_Guitar,6,2,DL_Guitar,0.37034451961517334,0
56,100,0.2,616,0,51,DL_Guitar,6,3,DL_Guitar,0.45615795254707336,0
56,100,0.3409090909090909,343,1,56,DL_Guitar,6,5,DL_Guitar,0.9792234897613525,1
56,100,0.3181818181818182,603,1,58,DL_Guitar,6,5,DL_Guitar,0.9792231321334839,1
56,100,0.12272727272727273,4,1,61,DL_Guitar,6,2,DL_Guitar,0.9792232513427734,1
56,100,0.16363636363636364,158,1,62,DL_Guitar,6,3,DL_Guitar,0.9792240262031555,1
64,100,0.12272727272727273,641,1,63,DL_Guitar,6,2,DL_Guitar,0.9792246222496033,1
56,100,0.5772727272727273,713,1,65,DL_Guitar,6,9,DL_Guitar,0.9792240262031555,1
54,100,0.12272727272727273,92,1,67,DL_Guitar,6,2,DL_Guitar,0.9986506104469299,1
58,100,0.3,409,1,67,DL_Guitar,6,5,DL_Guitar,0.08797838538885117,0
58,100,0.2772727272727273,523,0,67,DL_Guitar,6,4,DL_Guitar,0.09298315644264221,0
54,100,0.2,593,0,67,DL_Guitar,6,3,DL_Guitar,0.10994888097047806,0
54,100,0.1590909090909091,726,0,67,DL_Guitar,6,3,DL_Guitar,0.12866878509521484,0
64,100,0.1590909090909091,800,0,67,DL_Guitar,6,3,DL_Guitar,0.1822194755077362,0
52,100,0.1590909090909091,430,1,69,DL_Guitar,6,3,DL_Guitar,0.9990094900131226,1
52,100,0.5181818181818182,603,0,69,DL_Guitar,6,8,DL_Guitar,0.23323355615139008,0
56,100,0.5363636363636364,722,0,69,DL_Guitar,6,9,DL_Guitar,0.27058395743370056,0
52,100,0.4772727272727273,853,0,69,DL_Guitar,6,8,DL_Guitar,0.35793551802635193,0
64,100,0.2,624,1,70,DL_Guitar,6,3,DL_Guitar,0.9792246222496033,1
61,100,0.1590909090909091,449,1,73,DL_Guitar,6,3,DL_Guitar,0.9990094900131226,1
58,100,0.4818181818181818,619,0,73,DL_Guitar,6,8,DL_Guitar,0.23322923481464386,0
54,100,0.1409090909090909,739,0,73,DL_Guitar,6,2,DL_Guitar,0.2705874741077423,0
54,100,0.17727272727272728,844,0,73,DL_Guitar,6,3,DL_Guitar,0.3579249382019043,0
58,100,0.7818181818181819,13,1,74,DL_Guitar,6,13,DL_Guitar,0.9990280866622925,1
58,100,0.4636363636363636,246,1,74,DL_Guitar,6,7,DL_Guitar,0.3703323304653168,0
58,100,0.3,370,0,74,DL_Guitar,6,5,DL_Guitar,0.4561707675457001,0
69,100,0.2409090909090909,409,1,75,DL_Guitar,6,4,DL_Guitar,0.9792237281799316,1
56,100,0.5772727272727273,470,1,76,DL_Guitar,6,9,DL_Guitar,0.9792232513427734,1
83,100,0.1590909090909091,365,1,77,DL_Guitar,6,3,DL_Guitar,0.9792238473892212,1
83,100,0.1,263,1,79,DL_Guitar,6,2,DL_Guitar,0.9983232617378235,1
59,100,0.17727272727272728,677,1,79,DL_Guitar,6,3,DL_Guitar,0.5462137460708618,1
54,100,0.5,475,1,80,DL_Guitar,6,8,DL_Guitar,0.9990280866622925,1
58,100,0.6181818181818182,593,0,80,DL_Guitar,6,10,DL_Guitar,0.37033557891845703,0
58,100,0.4772727272727273,756,0,80,DL_Guitar,6,8,DL_Guitar,0.4561712443828583,0
58,100,0.4409090909090909,3,1,81,DL_Guitar,6,7,DL_Guitar,0.9990094900131226,1
54,100,0.4590909090909091,106,0,81,DL_Guitar,6,7,DL_Guitar,0.2332347333431244,0
58,100,0.4818181818181818,233,0,81,DL_Guitar,6,8,DL_Guitar,0.27058538794517517,0
62,100,0.3181818181818182,616,1,81,DL_Guitar,6,5,DL_Guitar,0.3579265773296356,0
56,100,0.3181818181818182,747,1,82,DL_Guitar,6,5,DL_Guitar,0.9983232617378235,1
56,100,0.11818181818181818,823,0,82,DL_Guitar,6,2,DL_Guitar,0.5462158918380737,1
56,100,0.5227272727272727,100,1,83,DL_Guitar,6,8,DL_Guitar,0.9988439083099365,1
56,100,0.4409090909090909,242,0,83,DL_Guitar,6,7,DL_Guitar,0.13798847794532776,0
56,100,1.0636363636363637,356,0,83,DL_Guitar,6,15,DL_Guitar,0.16236409544944763,0
56,100,0.4,637,1,83,DL_Guitar,6,6,DL_Guitar,0.19105428457260132,0
57,100,0.18181818181818182,796,0,83,DL_Guitar,6,3,DL_Guitar,0.2619587182998657,0
69,100,0.21818181818181817,612,1,84,DL_Guitar,6,3,DL_Guitar,0.9983231425285339,1
69,100,0.1409090909090909,686,0,84,DL_Guitar,6,2,DL_Guitar,0.5462203621864319,1
56,100,0.41818181818181815,127,1,85,DL_Guitar,6,7,DL_Guitar,0.9990094900131226,1
56,100,0.5409090909090909,466,1,85,DL_Guitar,6,9,DL_Guitar,0.23323701322078705,0
56,100,0.37727272727272726,633,0,85,DL_Guitar,6,6,DL_Guitar,0.27058494091033936,0
69,100,0.3,726,0,85,DL_Guitar,6,5,DL_Guitar,0.35792046785354614,0
56,100,0.9409090909090909,9,1,86,DL_Guitar,6,15,DL_Guitar,0.9990094900131226,1
59,100,0.1,722,1,86,DL_Guitar,6,2,DL_Guitar,0.23323333263397217,0
59,100,0.2590909090909091,760,0,86,DL_Guitar,6,4,DL_Guitar,0.27057817578315735,0
59,100,0.1409090909090909,866,0,86,DL_Guitar,6,2,DL_Guitar,0.3579265773296356,0
59,100,0.11818181818181818,22,1,87,DL_Guitar,6,2,DL_Guitar,0.9988439083099365,1
59,100,0.2818181818181818,223,0,87,DL_Guitar,6,5,DL_Guitar,0.13798373937606812,0
56,100,0.18181818181818182,606,1,87,DL_Guitar,6,3,DL_Guitar,0.16236793994903564,0
56,100,0.41818181818181815,660,0,87,DL_Guitar,6,7,DL_Guitar,0.1910591572523117,0
56,100,0.1,760,0,87,DL_Guitar,6,2,DL_Guitar,0.26196351647377014,0
56,100,0.3409090909090909,9,1,88,DL_Guitar,6,5,DL_Guitar,0.9990280866622925,1
56,100,0.3181818181818182,127,0,88,DL_Guitar,6,5,DL_Guitar,0.3703416883945465,0
56,100,0.11818181818181818,303,0,88,DL_Guitar,6,2,DL_Guitar,0.4561646580696106,0
69,100,0.13636363636363635,237,1,89,DL_Guitar,6,2,DL_Guitar,0.9792241454124451,1
52,100,0.17727272727272728,216,1,91,DL_Guitar,6,3,DL_Guitar,0.9990094900131226,1
56,100,0.4,377,0,91,DL_Guitar,6,6,DL_Guitar,0.23323877155780792,0
56,100,0.4772727272727273,480,0,91,DL_Guitar,6,8,DL_Guitar,0.2705918848514557,0
56,100,0.1590909090909091,637,0,91,DL_Guitar,6,3,DL_Guitar,0.35792863368988037,0
57,100,0.6818181818181818,26,1,92,DL_Guitar,6,11,DL_Guitar,0.9792234897613525,1
57,100,0.3,282,1,93,DL_Guitar,6,5,DL_Guitar,0.9792238473892212,1
57,100,0.6,223,1,94,DL_Guitar,6,10,DL_Guitar,0.9792234897613525,1
57,100,0.4,365,1,95,DL_Guitar,6,6,DL_Guitar,0.9990280866622925,1
57,100,0.5227272727272727,716,1,95,DL_Guitar,6,8,DL_Guitar,0.37033611536026,0
52,100,0.3181818181818182,866,0,95,DL_Guitar,6,5,DL_Guitar,0.4561801850795746,0
52,100,0.11818181818181818,132,1,96,DL_Guitar,6,2,DL_Guitar,0.9988439083099365,1
52,100,0.11818181818181818,163,0,96,DL_Guitar,6,2,DL_Guitar,0.13797883689403534,0
52,100,0.1,193,0,96,DL_Guitar,6,2,DL_Guitar,0.1623634397983551,0
64,100,0.2636363636363636,246,0,96,DL_Guitar,6,4,DL_Guitar,0.19105790555477142,0
83,100,0.2590909090909091,392,0,96,DL_Guitar,6,4,DL_Guitar,0.26197102665901184,0
57,100,0.1590909090909091,496,1,97,DL_Guitar,6,3,DL_Guitar,0.9792231321334839,1
54,100,0.4590909090909091,857,1,99,DL_Guitar,6,7,DL_Guitar,0.9792238473892212,1
54,100,0.35909090909090907,373,1,100,DL_Guitar,6,6,DL_Guitar,0.9990280866622925,1
61,100,0.21818181818181817,603,0,100,DL_Guitar,6,3,DL_Guitar,0.37032926082611084,0
61,100,0.4818181818181818,739,0,100,DL_Guitar,6,8,DL_Guitar,0.4561701714992523,0
53,100,0.11818181818181818,282,1,0,DL_Guitar,6,2,DL_Guitar,0.9990094900131226,1
55,100,0.4409090909090909,317,0,0,DL_Guitar,6,7,DL_Guitar,0.23322707414627075,0
58,100,0.13636363636363635,634,1,0,DL_Guitar,6,2,DL_Guitar,0.2705725133419037,0
67,100,0.22272727272727272,695,0,0,DL_Guitar,6,4,DL_Guitar,0.3579210638999939,0
58,100,0.36363636363636365,180,1,1,DL_Guitar,6,6,DL_Guitar,0.9983231425285339,1
53,100,0.3409090909090909,559,1,1,DL_Guitar,6,5,DL_Guitar,0.5462113618850708,1
70,100,0.2818181818181818,330,1,2,DL_Guitar,6,5,DL_Guitar,0.9986506104469299,1
72,100,0.2409090909090909,396,0,2,DL_Guitar,6,4,DL_Guitar,0.08797892183065414,0
70,100,0.2772727272727273,523,0,2,DL_Guitar,6,4,DL_Guitar,0.09298211336135864,0
72,100,0.2772727272727273,590,0,2,DL_Guitar,6,4,DL_Guitar,0.10994841903448105,0
53,100,0.12272727272727273,651,0,2,DL_Guitar,6,2,DL_Guitar,0.12867005169391632,0
70,100,0.8,726,0,2,DL_Guitar,6,13,DL_Guitar,0.18221257627010345,0
58,100,0.2590909090909091,21,1,3,DL_Guitar,6,4,DL_Guitar,0.9984879493713379,1
70,100,0.21818181818181817,83,0,3,DL_Guitar,6,3,DL_Guitar,0.06335236877202988,0
70,100,0.3181818181818182,140,0,3,DL_Guitar,6,5,DL_Guitar,0.05828666314482689,0
65,100,0.2772727272727273,470,1,3,DL_Guitar,6,4,DL_Guitar,0.06135871261358261,0
67,100,0.2772727272727273,537,0,3,DL_Guitar,6,4,DL_Guitar,0.0716795027256012,0
65,100,0.2818181818181818,663,0,3,DL_Guitar,6,5,DL_Guitar,0.08473148196935654,0
67,100,0.2409090909090909,730,0,3,DL_Guitar,6,4,DL_Guitar,0.12634427845478058,0
53,100,0.2409090909090909,0,1,4,DL_Guitar,6,4,DL_Guitar,0.9982556700706482,1
53,100,0.6227272727272727,79,0,4,DL_Guitar,6,10,DL_Guitar,0.04129185900092125,0
65,100,0.37727272727272726,215,0,4,DL_Guitar,6,6,DL_Guitar,0.029123933985829353,0
53,100,0.4590909090909091,299,0,4,DL_Guitar,6,7,DL_Guitar,0.02156790718436241,0
53,100,0.11818181818181818,493,0,4,DL_Guitar,6,2,DL_Guitar,0.017058106139302254,0
53,100,0.3181818181818182,527,0,4,DL_Guitar,6,5,DL_Guitar,0.015266921371221542,0
53,100,0.17727272727272728,611,0,4,DL_Guitar,6,3,DL_Guitar,0.01645481213927269,0
65,100,0.4,651,0,4,DL_Guitar,6,6,DL_Guitar,0.021835846826434135,0
53,100,0.2,739,0,4,DL_Guitar,6,3,DL_Guitar,0.03251590579748154,0
65,100,0.4590909090909091,782,0,4,DL_Guitar,6,7,DL_Guitar,0.06090851500630379,0
53,100,0.1409090909090909,493,1,5,DL_Guitar,6,2,DL_Guitar,0.9983232617378235,1
58,100,0.2,524,0,5,DL_Guitar,6,3,DL_Guitar,0.5462153553962708,1
53,100,0.3,255,1,6,DL_Guitar,6,5,DL_Guitar,0.9983231425285339,1
53,100,0.17727272727272728,647,1,6,DL_Guitar,6,3,DL_Guitar,0.5462139248847961,1
58,100,0.5181818181818182,457,1,9,DL_Guitar,6,8,DL_Guitar,0.9792245030403137,1
53,100,0.18181818181818182,783,1,10,DL_Guitar,6,3,DL_Guitar,0.9983231425285339,1
53,100,0.2590909090909091,835,0,10,DL_Guitar,6,4,DL_Guitar,0.5462165474891663,1
63,100,0.1,259,1,13,DL_Guitar,6,2,DL_Guitar,0.9792238473892212,1
53,100,0.11818181818181818,668,1,14,DL_Guitar,6,2,DL_Guitar,0.9792230129241943,1
55,100,0.5636363636363636,290,1,15,DL_Guitar,6,9,DL_Guitar,0.9990094900131226,1
53,100,0.38181818181818183,519,0,15,DL_Guitar,6,6,DL_Guitar,0.2332243025302887,0
53,100,0.18181818181818182,739,0,15,DL_Guitar,6,3,DL_Guitar,0.2705744504928589,0
53,100,0.17727272727272728,801,0,15,DL_Guitar,6,3,DL_Guitar,0.3579169511795044,0
53,100,0.22272727272727272,48,1,16,DL_Guitar,6,4,DL_Guitar,0.9988439083099365,1
53,100,0.11818181818181818,308,1,16,DL_Guitar,6,2,DL_Guitar,0.13798227906227112,0
53,100,0.12272727272727273,343,0,16,DL_Guitar,6,2,DL_Guitar,0.16236364841461182,0
53,100,0.2590909090909091,436,0,16,DL_Guitar,6,4,DL_Guitar,0.19105497002601624,0
53,100,0.2772727272727273,700,1,16,DL_Guitar,6,4,DL_Guitar,0.2619628310203552,0
53,100,0.17727272727272728,546,1,18,DL_Guitar,6,3,DL_Guitar,0.9792241454124451,1
53,100,0.2409090909090909,505,1,19,DL_Guitar,6,4,DL_Guitar,0.9983231425285339,1
53,100,0.2590909090909091,681,0,19,DL_Guitar,6,4,DL_Guitar,0.546211838722229,1
53,100,0.13636363636363635,150,1,20,DL_Guitar,6,2,DL_Guitar,0.9983232617378235,1
58,100,0.2818181818181818,461,1,20,DL_Guitar,6,5,DL_Guitar,0.546217143535614,1
53,100,0.43636363636363634,810,1,21,DL_Guitar,6,7,DL_Guitar,0.9792237281799316,1
53,100,0.2,162,1,22,DL_Guitar,6,3,DL_Guitar,0.9990280866622925,1
53,100,0.2,299,0,22,DL_Guitar,6,3,DL_Guitar,0.3703371584415436,0
53,100,0.13636363636363635,436,0,22,DL_Guitar,6,2,DL_Guitar,0.45616450905799866,0
58,100,0.11818181818181818,0,1,23,DL_Guitar,6,2,DL_Guitar,0.9990280866622925,1
63,100,0.22272727272727272,100,0,23,DL_Guitar,6,4,DL_Guitar,0.3703383207321167,0
63,100,0.18181818181818182,179,0,23,DL_Guitar,6,3,DL_Guitar,0.4561746418476105,0
53,100,0.1590909090909091,430,1,26,DL_Guitar,6,3,DL_Guitar,0.9986506104469299,1
53,100,0.4818181818181818,474,0,26,DL_Guitar,6,8,DL_Guitar,0.0879775807261467,0
53,100,0.11818181818181818,700,0,26,DL_Guitar,6,2,DL_Guitar,0.09298422187566757,0
53,100,0.1,756,0,26,DL_Guitar,6,2,DL_Guitar,0.10994883626699448,0
53,100,0.2590909090909091,801,0,26,DL_Guitar,6,4,DL_Guitar,0.12866586446762085,0
53,100,0.2818181818181818,870,0,26,DL_Guitar,6,5,DL_Guitar,0.18221567571163177,0
53,100,0.21818181818181817,131,1,27,DL_Guitar,6,3,DL_Guitar,0.9792241454124451,1
63,100,0.33636363636363636,106,1,28,DL_Guitar,6,5,DL_Guitar,0.9990280866622925,1
70,100,0.2772727272727273,260,0,28,DL_Guitar,6,4,DL_Guitar,0.3703423738479614,0
53,100,0.1,426,0,28,DL_Guitar,6,2,DL_Guitar,0.4561746418476105,0
70,100,0.1409090909090909,409,1,29,DL_Guitar,6,2,DL_Guitar,0.9792240262031555,1
53,100,0.2409090909090909,607,1,30,DL_Guitar,6,4,DL_Guitar,0.9983231425285339,1
58,100,0.8409090909090909,866,1,30,DL_Guitar,6,13,DL_Guitar,0.5462182760238647,1
58,100,0.1409090909090909,405,1,31,DL_Guitar,6,2,DL_Guitar,0.9792245030403137,1
58,100,0.11818181818181818,43,1,33,DL_Guitar,6,2,DL_Guitar,0.9988439083099365,1
58,100,1.0,118,0,33,DL_Guitar,6,15,DL_Guitar,0.13797970116138458,0
53,100,0.2,364,1,33,DL_Guitar,6,3,DL_Guitar,0.1623625010251999,0
58,100,0.21818181818181817,616,1,33,DL_Guitar,6,3,DL_Guitar,0.19105099141597748,0
58,100,0.17727272727272728,765,0,33,DL_Guitar,6,3,DL_Guitar,0.2619660496711731,0
53,100,0.2818181818181818,123,1,35,DL_Guitar,6,5,DL_Guitar,0.9792238473892212,1
55,100,0.1409090909090909,483,1,36,DL_Guitar,6,2,DL_Guitar,0.9983232617378235,1
55,100,0.2,818,1,36,DL_Guitar,6,3,DL_Guitar,0.5462145805358887,1
55,100,0.2409090909090909,34,1,37,DL_Guitar,6,4,DL_Guitar,0.9988439083099365,1
55,100,0.1409090909090909,228,0,37,DL_Guitar,6,2,DL_Guitar,0.13798017799854279,0
53,100,0.1590909090909091,616,1,37,DL_Guitar,6,3,DL_Guitar,0.1623593419790268,0
53,100,0.2,678,0,37,DL_Guitar,6,3,DL_Guitar,0.19105152785778046,0
53,100,0.2,866,0,37,DL_Guitar,6,3,DL_Guitar,0.2619588375091553,0
53,100,0.2,114,1,38,DL_Guitar,6,3,DL_Guitar,0.9990280866622925,1
53,100,0.2590909090909091,298,0,38,DL_Guitar,6,4,DL_Guitar,0.37033912539482117,0
53,100,0.32272727272727275,431,0,38,DL_Guitar,6,5,DL_Guitar,0.4561687707901001,0
53,100,0.22272727272727272,518,1,39,DL_Guitar,6,4,DL_Guitar,0.9792248606681824,1
53,100,0.3,13,1,40,DL_Guitar,6,5,DL_Guitar,0.9990280866622925,1
58,100,0.3181818181818182,338,1,40,DL_Guitar,6,5,DL_Guitar,0.3703426718711853,0
58,100,0.38181818181818183,571,1,40,DL_Guitar,6,6,DL_Guitar,0.45616772770881653,0
53,100,0.2409090909090909,813,1,41,DL_Guitar,6,4,DL_Guitar,0.9792240262031555,1
53,100,0.2,298,1,42,DL_Guitar,6,3,DL_Guitar,0.9792238473892212,1
53,100,0.4636363636363636,378,1,44,DL_Guitar,6,7,DL_Guitar,0.9983231425285339,1
53,100,0.1409090909090909,483,0,44,DL_Guitar,6,2,DL_Guitar,0.5462141633033752,1
53,100,0.17727272727272728,193,1,46,DL_Guitar,6,3,DL_Guitar,0.9983231425285339,1
53,100,0.3409090909090909,246,0,46,DL_Guitar,6,5,DL_Guitar,0.5462111830711365,1
53,100,0.4590909090909091,396,1,47,DL_Guitar,6,7,DL_Guitar,0.9990280866622925,1
53,100,0.7181818181818181,655,1,47,DL_Guitar,6,11,DL_Guitar,0.3703421950340271,0
53,100,0.6818181818181818,839,0,47,DL_Guitar,6,11,DL_Guitar,0.45615795254707336,0
58,100,0.5409090909090909,289,1,48,DL_Guitar,6,9,DL_Guitar,0.9990280866622925,1
53,100,0.17727272727272728,536,1,48,DL_Guitar,6,3,DL_Guitar,0.3703409731388092,0
57,100,0.21818181818181817,791,1,48,DL_Guitar,6,3,DL_Guitar,0.45616161823272705,0
53,100,0.21818181818181817,286,1,49,DL_Guitar,6,3,DL_Guitar,0.9990280866622925,1
54,100,0.11818181818181818,616,1,49,DL_Guitar,6,2,DL_Guitar,0.3703397214412689,0
53,100,0.2590909090909091,678,0,49,DL_Guitar,6,4,DL_Guitar,0.45616966485977173,0
53,100,0.2,128,1,50,DL_Guitar,6,3,DL_Guitar,0.9988439083099365,1
53,100,0.18181818181818182,286,0,50,DL_Guitar,6,3,DL_Guitar,0.1379791796207428,0
53,100,0.11818181818181818,330,0,50,DL_Guitar,6,2,DL_Guitar,0.1623552143573761,0
53,100,0.1590909090909091,370,0,50,DL_Guitar,6,3,DL_Guitar,0.191050186753273,0
70,100,0.11818181818181818,791,1,50,DL_Guitar,6,2,DL_Guitar,0.2619554102420807,0
58,100,0.1409090909090909,681,1,56,DL_Guitar,6,2,DL_Guitar,0.9792240262031555,1
53,100,0.11818181818181818,396,1,58,DL_Guitar,6,2,DL_Guitar,0.9990094900131226,1
53,100,0.1409090909090909,509,0,58,DL_Guitar,6,2,DL_Guitar,0.23322783410549164,0
53,100,0.37727272727272726,646,0,58,DL_Guitar,6,6,DL_Guitar,0.27057355642318726,0
58,100,0.11818181818181818,858,0,58,DL_Guitar,6,2,DL_Guitar,0.35792475938796997,0
53,100,0.4,150,1,59,DL_Guitar,6,6,DL_Guitar,0.9983232617378235,1
58,100,0.12272727272727273,276,0,59,DL_Guitar,6,2,DL_Guitar,0.5462185144424438,1
63,100,0.4409090909090909,703,1,74,DL_Guitar,6,7,DL_Guitar,0.9983231425285339,1
63,100,0.3409090909090909,826,0,74,DL_Guitar,6,5,DL_Guitar,0.5462198853492737,1
53,100,0.3409090909090909,487,1,75,DL_Guitar,6,5,DL_Guitar,0.9990280866622925,1
53,100,0.12272727272727273,805,1,75,DL_Guitar,6,2,DL_Guitar,0.37033945322036743,0
53,100,0.23636363636363636,876,0,75,DL_Guitar,6,4,DL_Guitar,0.4561685621738434,0
58,100,0.1409090909090909,770,1,86,DL_Guitar,6,2,DL_Guitar,0.9792246222496033,1
58,100,0.4590909090909091,132,1,87,DL_Guitar,6,7,DL_Guitar,0.9983232617378235,1
60,100,0.18181818181818182,487,1,87,DL_Guitar,6,3,DL_Guitar,0.5462185144424438,1
53,100,0.1590909090909091,153,1,88,DL_Guitar,6,3,DL_Guitar,0.9988439083099365,1
53,100,0.22272727272727272,202,0,88,DL_Guitar,6,4,DL_Guitar,0.13798241317272186,0
53,100,0.3,286,0,88,DL_Guitar,6,5,DL_Guitar,0.16236615180969238,0
62,100,0.33636363636363636,523,1,88,DL_Guitar,6,5,DL_Guitar,0.19105860590934753,0
53,100,0.16363636363636364,839,1,88,DL_Guitar,6,3,DL_Guitar,0.2619681656360626,0
58,100,0.5409090909090909,197,1,90,DL_Guitar,6,9,DL_Guitar,0.9990280866622925,1
58,100,0.1,509,1,90,DL_Guitar,6,2,DL_Guitar,0.3703386187553406,0
62,100,0.1590909090909091,810,1,90,DL_Guitar,6,3,DL_Guitar,0.4561682641506195,0
62,100,0.22272727272727272,246,1,91,DL_Guitar,6,4,DL_Guitar,0.9983231425285339,1
53,100,1.040909090909091,703,1,91,DL_Guitar,6,15,DL_Guitar,0.5462149381637573,1
53,100,0.18181818181818182,289,1,92,DL_Guitar,6,3,DL_Guitar,0.9983231425285339,1
53,100,0.4,430,0,92,DL_Guitar,6,6,DL_Guitar,0.54621422290802,1
60,100,0.33636363636363636,348,1,1,DL_Guitar,6,5,DL_Guitar,0.9988439083099365,1
55,100,0.1409090909090909,431,0,1,DL_Guitar,6,2,DL_Guitar,0.13798187673091888,0
60,100,0.1,487,0,1,DL_Guitar,6,2,DL_Guitar,0.16236700117588043,0
52,100,0.2,590,0,1,DL_Guitar,6,3,DL_Guitar,0.19105643033981323,0
55,100,0.38181818181818183,849,1,1,DL_Guitar,6,6,DL_Guitar,0.26196321845054626,0
53,100,0.11818181818181818,712,1,3,DL_Guitar,6,2,DL_Guitar,0.9792241454124451,1
53,100,0.1409090909090909,74,1,4,DL_Guitar,6,2,DL_Guitar,0.9990280866622925,1
55,100,0.3,114,0,4,DL_Guitar,6,5,DL_Guitar,0.3703443109989166,0
60,100,0.37727272727272726,678,1,4,DL_Guitar,6,6,DL_Guitar,0.45616891980171204,0
60,100,0.3181818181818182,220,1,5,DL_Guitar,6,5,DL_Guitar,0.9986506104469299,1
60,100,0.1409090909090909,311,0,5,DL_Guitar,6,2,DL_Guitar,0.0879833996295929,0
57,100,0.3,360,0,5,DL_Guitar,6,5,DL_Guitar,0.09298624098300934,0
55,100,0.2,431,0,5,DL_Guitar,6,3,DL_Guitar,0.10995510965585709,0
55,100,0.2409090909090909,716,1,5,DL_Guitar,6,4,DL_Guitar,0.12867286801338196,0
55,100,0.3409090909090909,774,0,5,DL_Guitar,6,5,DL_Guitar,0.18222461640834808,0
55,100,0.6227272727272727,465,1,6,DL_Guitar,6,10,DL_Guitar,0.9983232617378235,1
57,100,0.3409090909090909,606,0,6,DL_Guitar,6,5,DL_Guitar,0.5462190508842468,1
60,100,0.1,40,1,7,DL_Guitar,6,2,DL_Guitar,0.9990094900131226,1
55,100,0.2818181818181818,79,0,7,DL_Guitar,6,5,DL_Guitar,0.23323005437850952,0
59,100,0.4818181818181818,703,1,7,DL_Guitar,6,8,DL_Guitar,0.27058297395706177,0
55,100,0.2772727272727273,844,0,7,DL_Guitar,6,4,DL_Guitar,0.35791829228401184,0
55,100,0.3,333,1,8,DL_Guitar,6,5,DL_Guitar,0.9990280866622925,1
55,100,0.17727272727272728,470,0,8,DL_Guitar,6,3,DL_Guitar,0.3703344762325287,0
54,100,0.1,656,0,8,DL_Guitar,6,2,DL_Guitar,0.4561663866043091,0
60,100,0.1409090909090909,65,1,9,DL_Guitar,6,2,DL_Guitar,0.9990280866622925,1
60,100,0.2818181818181818,135,0,9,DL_Guitar,6,5,DL_Guitar,0.370344340801239,0
57,100,0.3409090909090909,211,0,9,DL_Guitar,6,5,DL_Guitar,0.4561630189418793,0
60,100,0.2,677,1,10,DL_Guitar,6,3,DL_Guitar,0.9983232617378235,1
55,100,0.4818181818181818,818,0,10,DL_Guitar,6,8,DL_Guitar,0.5462118983268738,1
54,100,0.2818181818181818,355,1,11,DL_Guitar,6,5,DL_Guitar,0.9792245030403137,1
55,100,0.3,180,1,12,DL_Guitar,6,5,DL_Guitar,0.9984880685806274,1
55,100,0.2,250,0,12,DL_Guitar,6,3,DL_Guitar,0.06335420161485672,0
52,100,0.7181818181818181,360,0,12,DL_Guitar,6,11,DL_Guitar,0.058289382606744766,0
55,100,0.2818181818181818,527,0,12,DL_Guitar,6,5,DL_Guitar,0.061362382024526596,0
57,100,0.6,594,0,12,DL_Guitar,6,10,DL_Guitar,0.07168359309434891,0
52,100,0.3,739,0,12,DL_Guitar,6,5,DL_Guitar,0.08473899215459824,0
55,100,0.9409090909090909,804,0,12,DL_Guitar,6,15,DL_Guitar,0.1263502985239029,0
52,100,0.3,140,1,13,DL_Guitar,6,5,DL_Guitar,0.9990094900131226,1
55,100,1.2818181818181817,211,0,13,DL_Guitar,6,15,DL_Guitar,0.23322944343090057,0
55,100,0.1409090909090909,505,1,13,DL_Guitar,6,2,DL_Guitar,0.2705857455730438,0
60,100,0.1590909090909091,783,1,13,DL_Guitar,6,3,DL_Guitar,0.3579254150390625,0
54,100,0.21818181818181817,175,1,14,DL_Guitar,6,3,DL_Guitar,0.9988439083099365,1
62,100,0.1,338,0,14,DL_Guitar,6,2,DL_Guitar,0.13797950744628906,0
52,100,0.4409090909090909,448,0,14,DL_Guitar,6,7,DL_Guitar,0.16236382722854614,0
52,100,0.3409090909090909,584,0,14,DL_Guitar,6,5,DL_Guitar,0.19106237590312958,0
59,100,0.6,663,0,14,DL_Guitar,6,10,DL_Guitar,0.2619680166244507,0
57,100,0.32272727272727275,409,1,15,DL_Guitar,6,5,DL_Guitar,0.9983231425285339,1
59,100,0.3181818181818182,479,0,15,DL_Guitar,6,5,DL_Guitar,0.546215832233429,1
57,100,0.3,656,1,16,DL_Guitar,6,5,DL_Guitar,0.9983232617378235,1
59,100,0.33636363636363636,721,0,16,DL_Guitar,6,5,DL_Guitar,0.5462177395820618,1
55,100,0.1409090909090909,268,1,17,DL_Guitar,6,2,DL_Guitar,0.9986506104469299,1
57,100,0.6,343,0,17,DL_Guitar,6,10,DL_Guitar,0.08797895908355713,0
59,100,0.6,480,0,17,DL_Guitar,6,10,DL_Guitar,0.09298708289861679,0
62,100,0.4,611,0,17,DL_Guitar,6,6,DL_Guitar,0.10994912683963776,0
62,100,0.1409090909090909,804,0,17,DL_Guitar,6,2,DL_Guitar,0.12867510318756104,0
62,100,0.18181818181818182,870,0,17,DL_Guitar,6,3,DL_Guitar,0.18222559988498688,0
55,100,0.1590909090909091,119,1,18,DL_Guitar,6,3,DL_Guitar,0.9988439083099365,1
62,100,0.21818181818181817,237,0,18,DL_Guitar,6,3,DL_Guitar,0.13798652589321136,0
67,100,0.11818181818181818,326,0,18,DL_Guitar,6,2,DL_Guitar,0.1623692810535431,0
55,100,0.3,356,0,18,DL_Guitar,6,5,DL_Guitar,0.19106005132198334,0
79,100,0.12272727272727273,422,0,18,DL_Guitar,6,2,DL_Guitar,0.2619636356830597,0
55,100,0.8409090909090909,540,1,19,DL_Guitar,6,13,DL_Guitar,0.979223906993866,1
62,100,0.6636363636363637,223,1,20,DL_Guitar,6,11,DL_Guitar,0.9986506104469299,1
57,100,0.2772727272727273,413,0,20,DL_Guitar,6,4,DL_Guitar,0.08798325061798096,0
62,100,0.1409090909090909,474,0,20,DL_Guitar,6,2,DL_Guitar,0.09298990666866302,0
62,100,0.1409090909090909,686,0,20,DL_Guitar,6,2,DL_Guitar,0.10995951294898987,0
55,100,0.3,725,0,20,DL_Guitar,6,5,DL_Guitar,0.12868288159370422,0
52,100,0.5409090909090909,814,0,20,DL_Guitar,6,9,DL_Guitar,0.1822332888841629,0
55,100,0.6409090909090909,57,1,21,DL_Guitar,6,10,DL_Guitar,0.9983735084533691,1
55,100,0.18181818181818182,289,1,21,DL_Guitar,6,3,DL_Guitar,0.051050737500190735,0
55,100,0.38181818181818183,333,0,21,DL_Guitar,6,6,DL_Guitar,0.041610490530729294,0
55,100,0.1409090909090909,426,0,21,DL_Guitar,6,2,DL_Guitar,0.0379786416888237,0
55,100,0.12272727272727273,466,0,21,DL_Guitar,6,2,DL_Guitar,0.03925824910402298,0
54,100,0.11818181818181818,756,1,21,DL_Guitar,6,2,DL_Guitar,0.04616262763738632,0
62,100,0.1,787,0,21,DL_Guitar,6,2,DL_Guitar,0.05712775141000748,0
54,100,0.2590909090909091,810,0,21,DL_Guitar,6,4,DL_Guitar,0.0918760597705841,0
55,100,0.3181818181818182,83,1,22,DL_Guitar,6,5,DL_Guitar,0.9990280866622925,1
55,100,0.4,440,1,22,DL_Guitar,6,6,DL_Guitar,0.3703453540802002,0
55,100,0.2818181818181818,642,0,22,DL_Guitar,6,5,DL_Guitar,0.4561674892902374,0
62,100,0.1,21,1,23,DL_Guitar,6,2,DL_Guitar,0.9986506104469299,1
62,100,0.1,237,0,23,DL_Guitar,6,2,DL_Guitar,0.08798336982727051,0
55,100,0.3409090909090909,330,0,23,DL_Guitar,6,5,DL_Guitar,0.09298884868621826,0
64,100,0.5772727272727273,426,0,23,DL_Guitar,6,9,DL_Guitar,0.10995721817016602,0
55,100,0.2409090909090909,752,1,23,DL_Guitar,6,4,DL_Guitar,0.12867297232151031,0
52,100,0.5,814,0,23,DL_Guitar,6,8,DL_Guitar,0.18222375214099884,0
62,100,0.2,220,1,24,DL_Guitar,6,3,DL_Guitar,0.9990094900131226,1
55,100,0.2772727272727273,567,1,24,DL_Guitar,6,4,DL_Guitar,0.23324289917945862,0
55,100,0.3,642,0,24,DL_Guitar,6,5,DL_Guitar,0.2705896496772766,0
62,100,0.5227272727272727,796,0,24,DL_Guitar,6,8,DL_Guitar,0.3579360246658325,0
55,100,0.6,44,1,25,DL_Guitar,6,10,DL_Guitar,0.9983232617378235,1
62,100,0.32272727272727275,179,0,25,DL_Guitar,6,5,DL_Guitar,0.5462228059768677,1
64,100,0.2818181818181818,3,1,26,DL_Guitar,6,5,DL_Guitar,0.9983735084533691,1
52,100,0.3181818181818182,75,0,26,DL_Guitar,6,5,DL_Guitar,0.051049552857875824,0
55,100,0.5590909090909091,144,0,26,DL_Guitar,6,9,DL_Guitar,0.041613612323999405,0
55,100,1.1,281,0,26,DL_Guitar,6,15,DL_Guitar,0.03797914460301399,0
54,100,0.1,540,1,26,DL_Guitar,6,2,DL_Guitar,0.039260972291231155,0
54,100,0.11818181818181818,602,0,26,DL_Guitar,6,2,DL_Guitar,0.04616400972008705,0
54,100,0.6409090909090909,691,0,26,DL_Guitar,6,10,DL_Guitar,0.05713009834289551,0
62,100,0.1409090909090909,862,0,26,DL_Guitar,6,2,DL_Guitar,0.0918787345290184,0
62,100,0.43636363636363634,17,1,27,DL_Guitar,6,7,DL_Guitar,0.9988439083099365,1
54,100,0.22272727272727272,113,0,27,DL_Guitar,6,4,DL_Guitar,0.13798831403255463,0
55,100,0.41818181818181815,162,0,27,DL_Guitar,6,7,DL_Guitar,0.16236941516399384,0
55,100,0.5181818181818182,413,1,27,DL_Guitar,6,8,DL_Guitar,0.19106313586235046,0
55,100,0.11818181818181818,756,1,27,DL_Guitar,6,2,DL_Guitar,0.2619710862636566,0
62,100,0.12272727272727273,179,1,28,DL_Guitar,6,2,DL_Guitar,0.9983232617378235,1
55,100,1.4181818181818182,418,1,28,DL_Guitar,6,15,DL_Guitar,0.5462129712104797,1
62,100,0.1,285,1,29,DL_Guitar,6,2,DL_Guitar,0.9990280866622925,1
69,100,0.42272727272727273,532,1,29,DL_Guitar,6,7,DL_Guitar,0.37034207582473755,0
69,100,0.2590909090909091,633,0,29,DL_Guitar,6,4,DL_Guitar,0.4561755061149597,0
67,100,1.2181818181818183,66,1,39,DL_Guitar,6,15,DL_Guitar,0.9988439083099365,1
67,100,0.3,356,1,39,DL_Guitar,6,5,DL_Guitar,0.13798582553863525,0
67,100,0.7363636363636363,480,0,39,DL_Guitar,6,12,DL_Guitar,0.16236916184425354,0
67,100,0.8,678,0,39,DL_Guitar,6,13,DL_Guitar,0.19105404615402222,0
67,100,0.18181818181818182,858,0,39,DL_Guitar,6,3,DL_Guitar,0.2619563639163971,0
55,100,0.6409090909090909,316,1,40,DL_Guitar,6,10,DL_Guitar,0.9792237281799316,1
62,100,0.5818181818181818,153,1,41,DL_Guitar,6,9,DL_Guitar,0.9990094900131226,1
52,100,1.2,286,0,41,DL_Guitar,6,15,DL_Guitar,0.2332349419593811,0
52,100,0.18181818181818182,619,1,41,DL_Guitar,6,3,DL_Guitar,0.270585834980011,0
52,100,0.4818181818181818,664,0,41,DL_Guitar,6,8,DL_Guitar,0.35793930292129517,0
55,100,0.35909090909090907,343,1,43,DL_Guitar,6,6,DL_Guitar,0.9990280866622925,1
55,100,0.5227272727272727,453,0,43,DL_Guitar,6,8,DL_Guitar,0.370341956615448,0
62,100,0.5409090909090909,641,0,43,DL_Guitar,6,9,DL_Guitar,0.456167072057724,0
57,100,0.1409090909090909,251,1,44,DL_Guitar,6,2,DL_Guitar,0.9990280866622925,1
69,100,0.1409090909090909,453,0,44,DL_Guitar,6,2,DL_Guitar,0.3703392744064331,0
69,100,0.1,606,0,44,DL_Guitar,6,2,DL_Guitar,0.45617353916168213,0
59,100,0.12272727272727273,254,1,45,DL_Guitar,6,2,DL_Guitar,0.9990094900131226,1
55,100,0.5181818181818182,303,0,45,DL_Guitar,6,8,DL_Guitar,0.2332291305065155,0
67,100,0.1590909090909091,440,0,45,DL_Guitar,6,3,DL_Guitar,0.2705906331539154,0
62,100,0.2409090909090909,641,0,45,DL_Guitar,6,4,DL_Guitar,0.35792508721351624,0
52,100,1.9181818181818182,383,1,46,DL_Guitar,6,15,DL_Guitar,0.979223370552063,1
62,100,0.1409090909090909,21,1,47,DL_Guitar,6,2,DL_Guitar,0.9990094900131226,1
55,100,0.17727272727272728,348,1,47,DL_Guitar,6,3,DL_Guitar,0.23323488235473633,0
55,100,1.018181818181818,391,0,47,DL_Guitar,6,15,DL_Guitar,0.27057453989982605,0
60,100,0.1590909090909091,813,1,47,DL_Guitar,6,3,DL_Guitar,0.3579309582710266,0
62,100,0.23636363636363636,238,1,48,DL_Guitar,6,4,DL_Guitar,0.9983231425285339,1
62,100,0.4,871,1,48,DL_Guitar,6,6,DL_Guitar,0.5462238192558289,1
62,100,1.6,101,1,49,DL_Guitar,6,15,DL_Guitar,0.9990280866622925,1
67,100,0.2590909090909091,453,1,49,DL_Guitar,6,4,DL_Guitar,0.3703479766845703,0
62,100,0.18181818181818182,791,1,49,DL_Guitar,6,3,DL_Guitar,0.45617324113845825,0
62,100,1.040909090909091,0,1,50,DL_Guitar,6,15,DL_Guitar,0.9983231425285339,1
74,100,0.12272727272727273,254,1,50,DL_Guitar,6,2,DL_Guitar,0.5462245345115662,1
67,100,0.7818181818181819,220,1,76,DL_Guitar,6,13,DL_Guitar,0.9990280866622925,1
67,100,0.32272727272727275,422,0,76,DL_Guitar,6,5,DL_Guitar,0.37033915519714355,0
67,100,0.4,832,1,76,DL_Guitar,6,6,DL_Guitar,0.456169456243515,0
62,100,0.1,43,1,77,DL_Guitar,6,2,DL_Guitar,0.9986506104469299,1
62,100,0.35909090909090907,150,0,77,DL_Guitar,6,6,DL_Guitar,0.08798293769359589,0
55,100,0.11818181818181818,360,0,77,DL_Guitar,6,2,DL_Guitar,0.09298692643642426,0
55,100,0.17727272727272728,392,0,77,DL_Guitar,6,3,DL_Guitar,0.10995493829250336,0
62,100,0.3409090909090909,690,1,77,DL_Guitar,6,5,DL_Guitar,0.1286768913269043,0
67,100,0.7818181818181819,770,0,77,DL_Guitar,6,13,DL_Guitar,0.18222692608833313,0
62,100,0.32272727272727275,69,1,78,DL_Guitar,6,5,DL_Guitar,0.9990094900131226,1
62,100,0.16363636363636364,422,1,78,DL_Guitar,6,3,DL_Guitar,0.23323826491832733,0
55,100,0.4590909090909091,475,0,78,DL_Guitar,6,7,DL_Guitar,0.27058809995651245,0
55,100,0.5227272727272727,597,0,78,DL_Guitar,6,8,DL_Guitar,0.35793331265449524,0
55,100,0.1590909090909091,22,1,79,DL_Guitar,6,3,DL_Guitar,0.9986506104469299,1
52,100,0.13636363636363635,62,0,79,DL_Guitar,6,2,DL_Guitar,0.08798391371965408,0
55,100,0.759090909090909,110,0,79,DL_Guitar,6,12,DL_Guitar,0.092987060546875,0
55,100,0.5,286,0,79,DL_Guitar,6,8,DL_Guitar,0.1099543496966362,0
55,100,0.2772727272727273,480,0,79,DL_Guitar,6,4,DL_Guitar,0.12867356836795807,0
55,100,0.2636363636363636,839,1,79,DL_Guitar,6,4,DL_Guitar,0.18221251666545868,0
55,100,0.16363636363636364,47,1,80,DL_Guitar,6,3,DL_Guitar,0.9986506104469299,1
62,100,0.9409090909090909,233,0,80,DL_Guitar,6,15,DL_Guitar,0.08798035979270935,0
67,100,0.3,453,0,80,DL_Guitar,6,5,DL_Guitar,0.09298606961965561,0
62,100,0.5181818181818182,523,0,80,DL_Guitar,6,8,DL_Guitar,0.10995131731033325,0
67,100,0.1409090909090909,660,0,80,DL_Guitar,6,2,DL_Guitar,0.128678560256958,0
62,100,0.13636363636363635,810,0,80,DL_Guitar,6,2,DL_Guitar,0.18222609162330627,0
55,100,0.3181818181818182,40,1,81,DL_Guitar,6,5,DL_Guitar,0.9990280866622925,1
55,100,0.2772727272727273,470,1,81,DL_Guitar,6,4,DL_Guitar,0.3703472316265106,0
55,100,1.3590909090909091,590,0,81,DL_Guitar,6,15,DL_Guitar,0.45615315437316895,0
55,100,0.3,87,1,82,DL_Guitar,6,5,DL_Guitar,0.9986506104469299,1
62,100,0.5,312,0,82,DL_Guitar,6,8,DL_Guitar,0.08798114210367203,0
62,100,0.5590909090909091,436,0,82,DL_Guitar,6,9,DL_Guitar,0.0929872989654541,0
62,100,0.2,722,1,82,DL_Guitar,6,3,DL_Guitar,0.10995688289403915,0
62,100,0.13636363636363635,810,0,82,DL_Guitar,6,2,DL_Guitar,0.12867991626262665,0
57,100,0.2409090909090909,839,0,82,DL_Guitar,6,4,DL_Guitar,0.18222807347774506,0
67,100,0.4818181818181818,13,1,83,DL_Guitar,6,8,DL_Guitar,0.9990280866622925,1
57,100,1.3227272727272728,386,1,83,DL_Guitar,6,15,DL_Guitar,0.37033501267433167,0
62,100,0.13636363636363635,787,1,83,DL_Guitar,6,2,DL_Guitar,0.45617741346359253,0
59,100,0.37727272727272726,83,1,84,DL_Guitar,6,6,DL_Guitar,0.9988439083099365,1
59,100,0.2590909090909091,303,0,84,DL_Guitar,6,4,DL_Guitar,0.13798008859157562,0
59,100,0.2772727272727273,404,0,84,DL_Guitar,6,4,DL_Guitar,0.16236445307731628,0
59,100,0.41818181818181815,502,0,84,DL_Guitar,6,7,DL_Guitar,0.1910560131072998,0
62,100,0.9,716,0,84,DL_Guitar,6,14,DL_Guitar,0.26196175813674927,0
55,100,0.17727272727272728,127,1,85,DL_Guitar,6,3,DL_Guitar,0.9990280866622925,1
57,100,0.2590909090909091,616,1,85,DL_Guitar,6,4,DL_Guitar,0.3703426718711853,0
57,100,0.17727272727272728,700,0,85,DL_Guitar,6,3,DL_Guitar,0.45617908239364624,0
55,100,0.5409090909090909,0,1,86,DL_Guitar,6,9,DL_Guitar,0.9984880685806274,1
67,100,0.2,123,0,86,DL_Guitar,6,3,DL_Guitar,0.06335411220788956,0
67,100,0.8363636363636363,172,0,86,DL_Guitar,6,13,DL_Guitar,0.0582893043756485,0
55,100,0.1409090909090909,377,0,86,DL_Guitar,6,2,DL_Guitar,0.061364416033029556,0
55,100,1.6181818181818182,449,0,86,DL_Guitar,6,15,DL_Guitar,0.07167980074882507,0
67,100,0.1590909090909091,805,1,86,DL_Guitar,6,3,DL_Guitar,0.08473780751228333,0
55,100,0.6,853,0,86,DL_Guitar,6,10,DL_Guitar,0.1263476461172104,0
67,100,0.3,242,1,87,DL_Guitar,6,5,DL_Guitar,0.9983232617378235,1
67,100,0.2590909090909091,475,1,87,DL_Guitar,6,4,DL_Guitar,0.5462126135826111,1
57,100,0.5818181818181818,220,1,88,DL_Guitar,6,9,DL_Guitar,0.9983231425285339,1
55,100,0.13636363636363635,612,1,88,DL_Guitar,6,2,DL_Guitar,0.5462168455123901,1
59,100,0.2590909090909091,106,1,89,DL_Guitar,6,4,DL_Guitar,0.9990280866622925,1
59,100,0.6,176,0,89,DL_Guitar,6,10,DL_Guitar,0.3703319728374481,0
59,100,0.1590909090909091,320,0,89,DL_Guitar,6,3,DL_Guitar,0.45617711544036865,0
55,100,0.5181818181818182,537,1,0,DL_Warm_Pop_Rock_Guitar,6,8,DL_Warm_Pop_Rock_Guitar,0.9983231425285339,1
55,100,0.6590909090909091,845,1,0,DL_Warm_Pop_Rock_Guitar,6,11,DL_Warm_Pop_Rock_Guitar,0.54620760679245,1
62,100,0.4636363636363636,576,1,1,DL_Warm_Pop_Rock_Guitar,6,7,DL_Warm_Pop_Rock_Guitar,0.9983232617378235,1
52,100,0.740909090909091,862,1,1,DL_Warm_Pop_Rock_Guitar,6,12,DL_Warm_Pop_Rock_Guitar,0.5462190508842468,1
55,100,0.1,629,1,2,DL_Warm_Pop_Rock_Guitar,6,2,DL_Warm_Pop_Rock_Guitar,0.9983232617378235,1
55,100,0.21818181818181817,660,0,2,DL_Warm_Pop_Rock_Guitar,6,3,DL_Warm_Pop_Rock_Guitar,0.5462109446525574,1
55,100,0.2,91,1,3,DL_Warm_Pop_Rock_Guitar,6,3,DL_Warm_Pop_Rock_Guitar,0.9990280866622925,1
52,100,0.6772727272727272,590,1,3,DL_Warm_Pop_Rock_Guitar,6,11,DL_Warm_Pop_Rock_Guitar,0.3703387379646301,0
52,100,0.12272727272727273,761,0,3,DL_Warm_Pop_Rock_Guitar,6,2,DL_Warm_Pop_Rock_Guitar,0.45616772770881653,0
52,100,0.740909090909091,35,1,4,DL_Warm_Pop_Rock_Guitar,6,12,DL_Warm_Pop_Rock_Guitar,0.9983232617378235,1
52,100,0.2,330,1,4,DL_Warm_Pop_Rock_Guitar,6,3,DL_Warm_Pop_Rock_Guitar,0.5462192893028259,1
64,100,0.2,8,1,5,DL_Warm_Pop_Rock_Guitar,6,3,DL_Warm_Pop_Rock_Guitar,0.9988439083099365,1
55,100,0.5636363636363636,135,0,5,DL_Warm_Pop_Rock_Guitar,6,9,DL_Warm_Pop_Rock_Guitar,0.13798627257347107,0
55,100,0.2818181818181818,330,0,5,DL_Warm_Pop_Rock_Guitar,6,5,DL_Warm_Pop_Rock_Guitar,0.16236935555934906,0
67,100,0.17727272727272728,458,0,5,DL_Warm_Pop_Rock_Guitar,6,3,DL_Warm_Pop_Rock_Guitar,0.19105857610702515,0
57,100,0.17727272727272728,823,1,5,DL_Warm_Pop_Rock_Guitar,6,3,DL_Warm_Pop_Rock_Guitar,0.26196131110191345,0
62,100,0.1409090909090909,56,1,6,DL_Warm_Pop_Rock_Guitar,6,2,DL_Warm_Pop_Rock_Guitar,0.9988439083099365,1
62,100,0.2409090909090909,132,0,6,DL_Warm_Pop_Rock_Guitar,6,4,DL_Warm_Pop_Rock_Guitar,0.1379913091659546,0
62,100,0.9818181818181818,330,0,6,DL_Warm_Pop_Rock_Guitar,6,15,DL_Warm_Pop_Rock_Guitar,0.16237467527389526,0
62,100,0.1409090909090909,581,1,6,DL_Warm_Pop_Rock_Guitar,6,2,DL_Warm_Pop_Rock_Guitar,0.19107498228549957,0
57,100,0.6409090909090909,691,0,6,DL_Warm_Pop_Rock_Guitar,6,10,DL_Warm_Pop_Rock_Guitar,0.2619832754135132,0
62,100,0.38181818181818183,606,1,7,DL_Warm_Pop_Rock_Guitar,6,6,DL_Warm_Pop_Rock_Guitar,0.9983231425285339,1
52,100,0.2818181818181818,826,0,7,DL_Warm_Pop_Rock_Guitar,6,5,DL_Warm_Pop_Rock_Guitar,0.5462214946746826,1
52,100,0.42272727272727273,245,1,8,DL_Warm_Pop_Rock_Guitar,6,7,DL_Warm_Pop_Rock_Guitar,0.9792245030403137,1
60,100,0.1590909090909091,140,1,9,DL_Warm_Pop_Rock_Guitar,6,3,DL_Warm_Pop_Rock_Guitar,0.9988439083099365,1
62,100,0.5409090909090909,185,0,9,DL_Warm_Pop_Rock_Guitar,6,9,DL_Warm_Pop_Rock_Guitar,0.13798581063747406,0
62,100,0.4,347,0,9,DL_Warm_Pop_Rock_Guitar,6,6,DL_Warm_Pop_Rock_Guitar,0.16237479448318481,0
62,100,0.11818181818181818,524,0,9,DL_Warm_Pop_Rock_Guitar,6,2,DL_Warm_Pop_Rock_Guitar,0.19107453525066376,0
62,100,0.8590909090909091,563,0,9,DL_Warm_Pop_Rock_Guitar,6,14,DL_Warm_Pop_Rock_Guitar,0.2619730532169342,0
57,100,0.17727272727272728,171,1,10,DL_Warm_Pop_Rock_Guitar,6,3,DL_Warm_Pop_Rock_Guitar,0.9792240262031555,1
55,100,0.1,211,1,11,DL_Warm_Pop_Rock_Guitar,6,2,DL_Warm_Pop_Rock_Guitar,0.9983231425285339,1
62,100,0.32272727272727275,519,1,11,DL_Warm_Pop_Rock_Guitar,6,5,DL_Warm_Pop_Rock_Guitar,0.5462211966514587,1
62,100,1.059090909090909,536,1,12,DL_Warm_Pop_Rock_Guitar,6,15,DL_Warm_Pop_Rock_Guitar,0.9792234897613525,1
55,100,0.2409090909090909,321,1,13,DL_Warm_Pop_Rock_Guitar,6,4,DL_Warm_Pop_Rock_Guitar,0.9990094900131226,1
62,100,0.1,479,0,13,DL_Warm_Pop_Rock_Guitar,6,2,DL_Warm_Pop_Rock_Guitar,0.2332354635000229,0
55,100,0.4590909090909091,694,0,13,DL_Warm_Pop_Rock_Guitar,6,7,DL_Warm_Pop_Rock_Guitar,0.2705930769443512,0
57,100,0.2590909090909091,814,0,13,DL_Warm_Pop_Rock_Guitar,6,4,DL_Warm_Pop_Rock_Guitar,0.35792818665504456,0
57,100,0.740909090909091,3,1,14,DL_Warm_Pop_Rock_Guitar,6,12,DL_Warm_Pop_Rock_Guitar,0.9988439083099365,1
57,100,0.6,194,0,14,DL_Warm_Pop_Rock_Guitar,6,10,DL_Warm_Pop_Rock_Guitar,0.13798579573631287,0
57,100,1.3,347,0,14,DL_Warm_Pop_Rock_Guitar,6,15,DL_Warm_Pop_Rock_Guitar,0.16236212849617004,0
57,100,0.5772727272727273,691,1,14,DL_Warm_Pop_Rock_Guitar,6,9,DL_Warm_Pop_Rock_Guitar,0.19106289744377136,0
57,100,0.2,862,0,14,DL_Warm_Pop_Rock_Guitar,6,3,DL_Warm_Pop_Rock_Guitar,0.2619660794734955,0
55,100,0.38181818181818183,123,1,15,DL_Warm_Pop_Rock_Guitar,6,6,DL_Warm_Pop_Rock_Guitar,0.9986506104469299,1
55,100,0.36363636363636365,268,0,15,DL_Warm_Pop_Rock_Guitar,6,6,DL_Warm_Pop_Rock_Guitar,0.08798015117645264,0
52,100,0.1,383,0,15,DL_Warm_Pop_Rock_Guitar,6,2,DL_Warm_Pop_Rock_Guitar,0.09298381954431534,0
52,100,0.2818181818181818,550,0,15,DL_Warm_Pop_Rock_Guitar,6,5,DL_Warm_Pop_Rock_Guitar,0.10994991660118103,0
55,100,0.22272727272727272,651,0,15,DL_Warm_Pop_Rock_Guitar,6,4,DL_Warm_Pop_Rock_Guitar,0.1286744624376297,0
55,100,0.1,761,0,15,DL_Warm_Pop_Rock_Guitar,6,2,DL_Warm_Pop_Rock_Guitar,0.1822165846824646,0
62,100,0.5772727272727273,391,1,16,DL_Warm_Pop_Rock_Guitar,6,9,DL_Warm_Pop_Rock_Guitar,0.9990280866622925,1
57,100,0.1,712,1,16,DL_Warm_Pop_Rock_Guitar,6,2,DL_Warm_Pop_Rock_Guitar,0.370349258184433,0
57,100,0.2772727272727273,756,0,16,DL_Warm_Pop_Rock_Guitar,6,4,DL_Warm_Pop_Rock_Guitar,0.45617809891700745,0
52,100,0.2409090909090909,96,1,17,DL_Warm_Pop_Rock_Guitar,6,4,DL_Warm_Pop_Rock_Guitar,0.9983232617378235,1
64,100,0.4,250,0,17,DL_Warm_Pop_Rock_Guitar,6,6,DL_Warm_Pop_Rock_Guitar,0.5462181568145752,1
62,100,0.18181818181818182,528,1,18,DL_Warm_Pop_Rock_Guitar,6,3,DL_Warm_Pop_Rock_Guitar,0.9990094900131226,1
62,100,0.2,660,0,18,DL_Warm_Pop_Rock_Guitar,6,3,DL_Warm_Pop_Rock_Guitar,0.2332400679588318,0
62,100,0.3,748,0,18,DL_Warm_Pop_Rock_Guitar,6,5,DL_Warm_Pop_Rock_Guitar,0.27059248089790344,0
62,100,0.5818181818181818,839,0,18,DL_Warm_Pop_Rock_Guitar,6,9,DL_Warm_Pop_Rock_Guitar,0.35794198513031006,0
62,100,0.5590909090909091,154,1,19,DL_Warm_Pop_Rock_Guitar,6,9,DL_Warm_Pop_Rock_Guitar,0.979223370552063,1
62,100,0.1590909090909091,519,1,21,DL_Warm_Pop_Rock_Guitar,6,3,DL_Warm_Pop_Rock_Guitar,0.9990094900131226,1
52,100,0.35909090909090907,567,0,21,DL_Warm_Pop_Rock_Guitar,6,6,DL_Warm_Pop_Rock_Guitar,0.23323193192481995,0
52,100,0.1,677,0,21,DL_Warm_Pop_Rock_Guitar,6,2,DL_Warm_Pop_Rock_Guitar,0.27058547735214233,0
62,100,0.5,810,0,21,DL_Warm_Pop_Rock_Guitar,6,8,DL_Warm_Pop_Rock_Guitar,0.35793593525886536,0
62,100,0.1409090909090909,57,1,22,DL_Warm_Pop_Rock_Guitar,6,2,DL_Warm_Pop_Rock_Guitar,0.9990094900131226,1
62,100,0.4818181818181818,92,0,22,DL_Warm_Pop_Rock_Guitar,6,8,DL_Warm_Pop_Rock_Guitar,0.2332419455051422,0
55,100,0.3181818181818182,360,1,22,DL_Warm_Pop_Rock_Guitar,6,5,DL_Warm_Pop_Rock_Guitar,0.27058595418930054,0
60,100,0.11818181818181818,638,1,22,DL_Warm_Pop_Rock_Guitar,6,2,DL_Warm_Pop_Rock_Guitar,0.3579404056072235,0
62,100,0.5,158,1,23,DL_Warm_Pop_Rock_Guitar,6,8,DL_Warm_Pop_Rock_Guitar,0.9988439083099365,1
62,100,0.2409090909090909,343,0,23,DL_Warm_Pop_Rock_Guitar,6,4,DL_Warm_Pop_Rock_Guitar,0.13798615336418152,0
55,100,0.1,443,0,23,DL_Warm_Pop_Rock_Guitar,6,2,DL_Warm_Pop_Rock_Guitar,0.16237418353557587,0
62,100,0.11818181818181818,501,0,23,DL_Warm_Pop_Rock_Guitar,6,2,DL_Warm_Pop_Rock_Guitar,0.19106270372867584,0
62,100,0.1409090909090909,607,0,23,DL_Warm_Pop_Rock_Guitar,6,2,DL_Warm_Pop_Rock_Guitar,0.26197725534439087,0
55,100,0.32272727272727275,92,1,24,DL_Warm_Pop_Rock_Guitar,6,5,DL_Warm_Pop_Rock_Guitar,0.9990094900131226,1
62,100,0.2818181818181818,461,1,24,DL_Warm_Pop_Rock_Guitar,6,5,DL_Warm_Pop_Rock_Guitar,0.23323623836040497,0
62,100,0.2409090909090909,704,1,24,DL_Warm_Pop_Rock_Guitar,6,4,DL_Warm_Pop_Rock_Guitar,0.27059170603752136,0
62,100,0.2,835,0,24,DL_Warm_Pop_Rock_Guitar,6,3,DL_Warm_Pop_Rock_Guitar,0.35793814063072205,0
61,100,0.11818181818181818,0,1,25,DL_Warm_Pop_Rock_Guitar,6,2,DL_Warm_Pop_Rock_Guitar,0.9990094900131226,1
55,100,0.12272727272727273,277,1,25,DL_Warm_Pop_Rock_Guitar,6,2,DL_Warm_Pop_Rock_Guitar,0.23323078453540802,0
62,100,0.3409090909090909,497,0,25,DL_Warm_Pop_Rock_Guitar,6,5,DL_Warm_Pop_Rock_Guitar,0.2705857455730438,0
62,100,0.2409090909090909,712,0,25,DL_Warm_Pop_Rock_Guitar,6,4,DL_Warm_Pop_Rock_Guitar,0.35793372988700867,0
62,100,0.2818181818181818,13,1,26,DL_Warm_Pop_Rock_Guitar,6,5,DL_Warm_Pop_Rock_Guitar,0.9990094900131226,1
62,100,0.2636363636363636,136,0,26,DL_Warm_Pop_Rock_Guitar,6,4,DL_Warm_Pop_Rock_Guitar,0.23323221504688263,0
66,100,0.1,646,1,26,DL_Warm_Pop_Rock_Guitar,6,2,DL_Warm_Pop_Rock_Guitar,0.27058711647987366,0
52,100,0.2818181818181818,708,0,26,DL_Warm_Pop_Rock_Guitar,6,5,DL_Warm_Pop_Rock_Guitar,0.35794034600257874,0
62,100,0.3409090909090909,48,1,27,DL_Warm_Pop_Rock_Guitar,6,5,DL_Warm_Pop_Rock_Guitar,0.9984879493713379,1
57,100,0.2409090909090909,158,0,27,DL_Warm_Pop_Rock_Guitar,6,4,DL_Warm_Pop_Rock_Guitar,0.06335615366697311,0
52,100,0.6,260,0,27,DL_Warm_Pop_Rock_Guitar,6,10,DL_Warm_Pop_Rock_Guitar,0.05829213187098503,0
55,100,0.23636363636363636,413,0,27,DL_Warm_Pop_Rock_Guitar,6,4,DL_Warm_Pop_Rock_Guitar,0.06136636808514595,0
55,100,0.3409090909090909,484,0,27,DL_Warm_Pop_Rock_Guitar,6,5,DL_Warm_Pop_Rock_Guitar,0.07168766856193542,0
62,100,0.2590909090909091,567,0,27,DL_Warm_Pop_Rock_Guitar,6,4,DL_Warm_Pop_Rock_Guitar,0.08474313467741013,0
67,100,0.42272727272727273,629,0,27,DL_Warm_Pop_Rock_Guitar,6,7,DL_Warm_Pop_Rock_Guitar,0.12635917961597443,0
62,100,0.21818181818181817,162,1,28,DL_Warm_Pop_Rock_Guitar,6,3,DL_Warm_Pop_Rock_Guitar,0.9988439083099365,1
54,100,0.4636363636363636,443,1,28,DL_Warm_Pop_Rock_Guitar,6,7,DL_Warm_Pop_Rock_Guitar,0.1379864364862442,0
66,100,0.21818181818181817,546,0,28,DL_Warm_Pop_Rock_Guitar,6,3,DL_Warm_Pop_Rock_Guitar,0.16236141324043274,0
66,100,0.1409090909090909,660,0,28,DL_Warm_Pop_Rock_Guitar,6,2,DL_Warm_Pop_Rock_Guitar,0.191055029630661,0
59,100,0.13636363636363635,810,0,28,DL_Warm_Pop_Rock_Guitar,6,2,DL_Warm_Pop_Rock_Guitar,0.2619608938694,0
64,100,0.23636363636363636,61,1,29,DL_Warm_Pop_Rock_Guitar,6,4,DL_Warm_Pop_Rock_Guitar,0.9986506104469299,1
52,100,0.5818181818181818,113,0,29,DL_Warm_Pop_Rock_Guitar,6,9,DL_Warm_Pop_Rock_Guitar,0.08798135817050934,0
52,100,0.3,333,0,29,DL_Warm_Pop_Rock_Guitar,6,5,DL_Warm_Pop_Rock_Guitar,0.09298543632030487,0
62,100,0.37727272727272726,625,1,29,DL_Warm_Pop_Rock_Guitar,6,6,DL_Warm_Pop_Rock_Guitar,0.10995350778102875,0
64,100,0.4,708,0,29,DL_Warm_Pop_Rock_Guitar,6,6,DL_Warm_Pop_Rock_Guitar,0.1286775767803192,0
62,100,0.11818181818181818,801,0,29,DL_Warm_Pop_Rock_Guitar,6,2,DL_Warm_Pop_Rock_Guitar,0.18222655355930328,0
62,100,0.3181818181818182,150,1,30,DL_Warm_Pop_Rock_Guitar,6,5,DL_Warm_Pop_Rock_Guitar,0.9990094900131226,1
62,100,0.2,594,1,30,DL_Warm_Pop_Rock_Guitar,6,3,DL_Warm_Pop_Rock_Guitar,0.23323988914489746,0
62,100,0.2772727272727273,646,0,30,DL_Warm_Pop_Rock_Guitar,6,4,DL_Warm_Pop_Rock_Guitar,0.2705916464328766,0
57,100,0.4,739,0,30,DL_Warm_Pop_Rock_Guitar,6,6,DL_Warm_Pop_Rock_Guitar,0.3579481840133667,0
57,100,0.36363636363636365,48,1,31,DL_Warm_Pop_Rock_Guitar,6,6,DL_Warm_Pop_Rock_Guitar,0.9984879493713379,1
62,100,0.5363636363636364,171,0,31,DL_Warm_Pop_Rock_Guitar,6,9,DL_Warm_Pop_Rock_Guitar,0.06335706263780594,0
53,100,0.11818181818181818,461,1,31,DL_Warm_Pop_Rock_Guitar,6,2,DL_Warm_Pop_Rock_Guitar,0.058292001485824585,0
62,100,0.4772727272727273,523,0,31,DL_Warm_Pop_Rock_Guitar,6,8,DL_Warm_Pop_Rock_Guitar,0.06136570870876312,0
62,100,0.11818181818181818,638,0,31,DL_Warm_Pop_Rock_Guitar,6,2,DL_Warm_Pop_Rock_Guitar,0.0716899037361145,0
62,100,0.18181818181818182,694,0,31,DL_Warm_Pop_Rock_Guitar,6,3,DL_Warm_Pop_Rock_Guitar,0.08474323898553848,0
62,100,0.33636363636363636,853,0,31,DL_Warm_Pop_Rock_Guitar,6,5,DL_Warm_Pop_Rock_Guitar,0.12635914981365204,0
62,100,0.38181818181818183,201,1,32,DL_Warm_Pop_Rock_Guitar,6,6,DL_Warm_Pop_Rock_Guitar,0.979223906993866,1
62,100,0.21818181818181817,185,1,33,DL_Warm_Pop_Rock_Guitar,6,3,DL_Warm_Pop_Rock_Guitar,0.9988439083099365,1
62,100,0.2,289,0,33,DL_Warm_Pop_Rock_Guitar,6,3,DL_Warm_Pop_Rock_Guitar,0.13798747956752777,0
57,100,0.33636363636363636,370,0,33,DL_Warm_Pop_Rock_Guitar,6,5,DL_Warm_Pop_Rock_Guitar,0.16237549483776093,0
55,100,0.1409090909090909,668,1,33,DL_Warm_Pop_Rock_Guitar,6,2,DL_Warm_Pop_Rock_Guitar,0.19106660783290863,0
62,100,0.13636363636363635,721,0,33,DL_Warm_Pop_Rock_Guitar,6,2,DL_Warm_Pop_Rock_Guitar,0.2619805634021759,0
62,100,0.8,774,1,34,DL_Warm_Pop_Rock_Guitar,6,13,DL_Warm_Pop_Rock_Guitar,0.9792245030403137,1
57,100,0.2409090909090909,571,1,35,DL_Warm_Pop_Rock_Guitar,6,4,DL_Warm_Pop_Rock_Guitar,0.9988439083099365,1
52,100,0.3,655,0,35,DL_Warm_Pop_Rock_Guitar,6,5,DL_Warm_Pop_Rock_Guitar,0.13798603415489197,0
62,100,0.11818181818181818,721,0,35,DL_Warm_Pop_Rock_Guitar,6,2,DL_Warm_Pop_Rock_Guitar,0.16236667335033417,0
62,100,0.1409090909090909,823,0,35,DL_Warm_Pop_Rock_Guitar,6,2,DL_Warm_Pop_Rock_Guitar,0.19106005132198334,0
52,100,0.21818181818181817,866,0,35,DL_Warm_Pop_Rock_Guitar,6,3,DL_Warm_Pop_Rock_Guitar,0.2619783580303192,0
52,100,0.21818181818181817,40,1,36,DL_Warm_Pop_Rock_Guitar,6,3,DL_Warm_Pop_Rock_Guitar,0.9988439083099365,1
52,100,0.17727272727272728,206,0,36,DL_Warm_Pop_Rock_Guitar,6,3,DL_Warm_Pop_Rock_Guitar,0.13798771798610687,0
62,100,1.0,321,0,36,DL_Warm_Pop_Rock_Guitar,6,15,DL_Warm_Pop_Rock_Guitar,0.16237014532089233,0
52,100,0.21818181818181817,545,0,36,DL_Warm_Pop_Rock_Guitar,6,3,DL_Warm_Pop_Rock_Guitar,0.19106847047805786,0
62,100,1.1818181818181819,716,0,36,DL_Warm_Pop_Rock_Guitar,6,15,DL_Warm_Pop_Rock_Guitar,0.26197174191474915,0
60,100,0.11818181818181818,118,1,37,DL_Warm_Pop_Rock_Guitar,6,2,DL_Warm_Pop_Rock_Guitar,0.9990094900131226,1
62,100,0.2818181818181818,201,0,37,DL_Warm_Pop_Rock_Guitar,6,5,DL_Warm_Pop_Rock_Guitar,0.23324090242385864,0
62,100,0.2,545,1,37,DL_Warm_Pop_Rock_Guitar,6,3,DL_Warm_Pop_Rock_Guitar,0.270587682723999,0
62,100,0.4,721,0,37,DL_Warm_Pop_Rock_Guitar,6,6,DL_Warm_Pop_Rock_Guitar,0.3579423129558563,0
62,100,0.8227272727272728,56,1,38,DL_Warm_Pop_Rock_Guitar,6,13,DL_Warm_Pop_Rock_Guitar,0.9986506104469299,1
57,100,0.1590909090909091,325,1,38,DL_Warm_Pop_Rock_Guitar,6,3,DL_Warm_Pop_Rock_Guitar,0.08798060566186905,0
62,100,0.1590909090909091,396,0,38,DL_Warm_Pop_Rock_Guitar,6,3,DL_Warm_Pop_Rock_Guitar,0.09298683702945709,0
62,100,0.2772727272727273,471,0,38,DL_Warm_Pop_Rock_Guitar,6,4,DL_Warm_Pop_Rock_Guitar,0.10995177924633026,0
62,100,0.13636363636363635,810,1,38,DL_Warm_Pop_Rock_Guitar,6,2,DL_Warm_Pop_Rock_Guitar,0.12867753207683563,0
52,100,0.38181818181818183,861,0,38,DL_Warm_Pop_Rock_Guitar,6,6,DL_Warm_Pop_Rock_Guitar,0.18223418295383453,0
62,100,0.32272727272727275,298,1,39,DL_Warm_Pop_Rock_Guitar,6,5,DL_Warm_Pop_Rock_Guitar,0.9990280866622925,1
55,100,0.4409090909090909,421,0,39,DL_Warm_Pop_Rock_Guitar,6,7,DL_Warm_Pop_Rock_Guitar,0.370341032743454,0
55,100,0.22272727272727272,584,0,39,DL_Warm_Pop_Rock_Guitar,6,4,DL_Warm_Pop_Rock_Guitar,0.4561753273010254,0
60,100,0.2409090909090909,48,1,40,DL_Warm_Pop_Rock_Guitar,6,4,DL_Warm_Pop_Rock_Guitar,0.9986506104469299,1
62,100,0.3,220,0,40,DL_Warm_Pop_Rock_Guitar,6,5,DL_Warm_Pop_Rock_Guitar,0.08798015117645264,0
62,100,0.1409090909090909,289,0,40,DL_Warm_Pop_Rock_Guitar,6,2,DL_Warm_Pop_Rock_Guitar,0.09298668056726456,0
62,100,0.38181818181818183,474,0,40,DL_Warm_Pop_Rock_Guitar,6,6,DL_Warm_Pop_Rock_Guitar,0.1099526509642601,0
57,100,0.2772727272727273,691,0,40,DL_Warm_Pop_Rock_Guitar,6,4,DL_Warm_Pop_Rock_Guitar,0.12867788970470428,0
52,100,0.4818181818181818,783,0,40,DL_Warm_Pop_Rock_Guitar,6,8,DL_Warm_Pop_Rock_Guitar,0.1822282373905182,0
52,100,0.4772727272727273,18,1,41,DL_Warm_Pop_Rock_Guitar,6,8,DL_Warm_Pop_Rock_Guitar,0.9986506104469299,1
52,100,0.16363636363636364,158,0,41,DL_Warm_Pop_Rock_Guitar,6,3,DL_Warm_Pop_Rock_Guitar,0.08798019587993622,0
52,100,0.22272727272727272,201,0,41,DL_Warm_Pop_Rock_Guitar,6,4,DL_Warm_Pop_Rock_Guitar,0.09298782795667648,0
52,100,0.3,260,0,41,DL_Warm_Pop_Rock_Guitar,6,5,DL_Warm_Pop_Rock_Guitar,0.10995227098464966,0
52,100,0.38181818181818183,396,0,41,DL_Warm_Pop_Rock_Guitar,6,6,DL_Warm_Pop_Rock_Guitar,0.12867717444896698,0
64,100,0.6590909090909091,496,0,41,DL_Warm_Pop_Rock_Guitar,6,11,DL_Warm_Pop_Rock_Guitar,0.18222370743751526,0
57,100,0.35909090909090907,206,1,43,DL_Warm_Pop_Rock_Guitar,6,6,DL_Warm_Pop_Rock_Guitar,0.9990280866622925,1
54,100,0.22272727272727272,421,0,43,DL_Warm_Pop_Rock_Guitar,6,4,DL_Warm_Pop_Rock_Guitar,0.3703392744064331,0
66,100,0.4,471,0,43,DL_Warm_Pop_Rock_Guitar,6,6,DL_Warm_Pop_Rock_Guitar,0.45616960525512695,0
62,100,0.21818181818181817,571,1,44,DL_Warm_Pop_Rock_Guitar,6,3,DL_Warm_Pop_Rock_Guitar,0.9990280866622925,1
52,100,0.2409090909090909,625,0,44,DL_Warm_Pop_Rock_Guitar,6,4,DL_Warm_Pop_Rock_Guitar,0.37035059928894043,0
52,100,0.2818181818181818,738,0,44,DL_Warm_Pop_Rock_Guitar,6,5,DL_Warm_Pop_Rock_Guitar,0.4561792314052582,0
62,100,0.2818181818181818,198,1,45,DL_Warm_Pop_Rock_Guitar,6,5,DL_Warm_Pop_Rock_Guitar,0.9792227745056152,1
52,100,0.1409090909090909,13,1,46,DL_Warm_Pop_Rock_Guitar,6,2,DL_Warm_Pop_Rock_Guitar,0.9988439083099365,1
52,100,0.6818181818181818,69,0,46,DL_Warm_Pop_Rock_Guitar,6,11,DL_Warm_Pop_Rock_Guitar,0.1379820704460144,0
52,100,0.1590909090909091,241,0,46,DL_Warm_Pop_Rock_Guitar,6,3,DL_Warm_Pop_Rock_Guitar,0.16236922144889832,0
52,100,0.7,471,0,46,DL_Warm_Pop_Rock_Guitar,6,11,DL_Warm_Pop_Rock_Guitar,0.1910603940486908,0
52,100,0.9772727272727273,668,0,46,DL_Warm_Pop_Rock_Guitar,6,15,DL_Warm_Pop_Rock_Guitar,0.26197338104248047,0
62,100,0.1590909090909091,276,1,47,DL_Warm_Pop_Rock_Guitar,6,3,DL_Warm_Pop_Rock_Guitar,0.9983231425285339,1
62,100,0.6818181818181818,606,1,47,DL_Warm_Pop_Rock_Guitar,6,11,DL_Warm_Pop_Rock_Guitar,0.5462210774421692,1
57,100,0.2409090909090909,871,1,56,DL_Warm_Pop_Rock_Guitar,6,4,DL_Warm_Pop_Rock_Guitar,0.9792237281799316,1
52,100,0.2409090909090909,431,1,60,DL_Warm_Pop_Rock_Guitar,6,4,DL_Warm_Pop_Rock_Guitar,0.9990094900131226,1
52,100,0.11818181818181818,493,0,60,DL_Warm_Pop_Rock_Guitar,6,2,DL_Warm_Pop_Rock_Guitar,0.2332298308610916,0
52,100,0.1,531,0,60,DL_Warm_Pop_Rock_Guitar,6,2,DL_Warm_Pop_Rock_Guitar,0.2705840468406677,0
52,100,0.42272727272727273,826,1,60,DL_Warm_Pop_Rock_Guitar,6,7,DL_Warm_Pop_Rock_Guitar,0.35793304443359375,0
62,100,0.21818181818181817,198,1,61,DL_Warm_Pop_Rock_Guitar,6,3,DL_Warm_Pop_Rock_Guitar,0.9983232617378235,1
55,100,0.17727272727272728,691,1,61,DL_Warm_Pop_Rock_Guitar,6,3,DL_Warm_Pop_Rock_Guitar,0.5462213158607483,1
62,100,0.7,9,1,66,DL_Warm_Pop_Rock_Guitar,6,11,DL_Warm_Pop_Rock_Guitar,0.9983231425285339,1
62,100,2.081818181818182,716,1,66,DL_Warm_Pop_Rock_Guitar,6,15,DL_Warm_Pop_Rock_Guitar,0.5462150573730469,1
62,100,0.2,603,1,67,DL_Warm_Pop_Rock_Guitar,6,3,DL_Warm_Pop_Rock_Guitar,0.9792234897613525,1
62,100,0.1,756,1,70,DL_Warm_Pop_Rock_Guitar,6,2,DL_Warm_Pop_Rock_Guitar,0.9792237281799316,1
62,100,0.2590909090909091,743,1,74,DL_Warm_Pop_Rock_Guitar,6,4,DL_Warm_Pop_Rock_Guitar,0.9792230129241943,1
52,100,0.6818181818181818,35,1,75,DL_Warm_Pop_Rock_Guitar,6,11,DL_Warm_Pop_Rock_Guitar,0.9986506104469299,1
64,100,0.1,330,1,75,DL_Warm_Pop_Rock_Guitar,6,2,DL_Warm_Pop_Rock_Guitar,0.08798424154520035,0
62,100,0.759090909090909,365,0,75,DL_Warm_Pop_Rock_Guitar,6,12,DL_Warm_Pop_Rock_Guitar,0.09298931062221527,0
52,100,0.21818181818181817,546,0,75,DL_Warm_Pop_Rock_Guitar,6,3,DL_Warm_Pop_Rock_Guitar,0.10995929688215256,0
62,100,0.5,734,0,75,DL_Warm_Pop_Rock_Guitar,6,8,DL_Warm_Pop_Rock_Guitar,0.12867924571037292,0
62,100,1.0,849,0,75,DL_Warm_Pop_Rock_Guitar,6,15,DL_Warm_Pop_Rock_Guitar,0.18223196268081665,0
62,100,0.35909090909090907,426,1,76,DL_Warm_Pop_Rock_Guitar,6,6,DL_Warm_Pop_Rock_Guitar,0.9983231425285339,1
62,100,0.2,590,0,76,DL_Warm_Pop_Rock_Guitar,6,3,DL_Warm_Pop_Rock_Guitar,0.5462207198143005,1
62,100,0.11818181818181818,282,1,77,DL_Warm_Pop_Rock_Guitar,6,2,DL_Warm_Pop_Rock_Guitar,0.9983231425285339,1
62,100,0.3181818181818182,572,1,77,DL_Warm_Pop_Rock_Guitar,6,5,DL_Warm_Pop_Rock_Guitar,0.5462220907211304,1
52,100,0.3,206,1,78,DL_Warm_Pop_Rock_Guitar,6,5,DL_Warm_Pop_Rock_Guitar,0.9988439083099365,1
52,100,0.2818181818181818,276,0,78,DL_Warm_Pop_Rock_Guitar,6,5,DL_Warm_Pop_Rock_Guitar,0.1379822939634323,0
67,100,0.1590909090909091,370,0,78,DL_Warm_Pop_Rock_Guitar,6,3,DL_Warm_Pop_Rock_Guitar,0.16236600279808044,0
62,100,0.18181818181818182,695,1,78,DL_Warm_Pop_Rock_Guitar,6,3,DL_Warm_Pop_Rock_Guitar,0.1910601556301117,0
62,100,0.12272727272727273,739,0,78,DL_Warm_Pop_Rock_Guitar,6,2,DL_Warm_Pop_Rock_Guitar,0.2619745135307312,0
62,100,0.3,163,1,79,DL_Warm_Pop_Rock_Guitar,6,5,DL_Warm_Pop_Rock_Guitar,0.9792232513427734,1
52,100,0.4590909090909091,193,1,80,DL_Warm_Pop_Rock_Guitar,6,7,DL_Warm_Pop_Rock_Guitar,0.9792243838310242,1
62,100,0.5181818181818182,440,1,81,DL_Warm_Pop_Rock_Guitar,6,8,DL_Warm_Pop_Rock_Guitar,0.9983232617378235,1
62,100,0.7,624,0,81,DL_Warm_Pop_Rock_Guitar,6,11,DL_Warm_Pop_Rock_Guitar,0.5462259650230408,1
52,100,0.22272727272727272,532,1,82,DL_Warm_Pop_Rock_Guitar,6,4,DL_Warm_Pop_Rock_Guitar,0.9990280866622925,1
62,100,0.1,839,1,82,DL_Warm_Pop_Rock_Guitar,6,2,DL_Warm_Pop_Rock_Guitar,0.3703419864177704,0
62,100,0.1,866,0,82,DL_Warm_Pop_Rock_Guitar,6,2,DL_Warm_Pop_Rock_Guitar,0.4561783969402313,0
62,100,0.13636363636363635,150,1,83,DL_Warm_Pop_Rock_Guitar,6,2,DL_Warm_Pop_Rock_Guitar,0.9792241454124451,1
63,100,0.1,519,1,0,DL_Guitar,6,2,DL_Guitar,0.9792237281799316,1
58,100,0.1590909090909091,704,1,1,DL_Guitar,6,3,DL_Guitar,0.9792241454124451,1
56,100,0.12272727272727273,311,1,2,DL_Guitar,6,2,DL_Guitar,0.9983232617378235,1
63,100,1.3590909090909091,537,0,2,DL_Guitar,6,15,DL_Guitar,0.5462067127227783,1
63,100,1.0,836,1,4,DL_Guitar,6,15,DL_Guitar,0.9792232513427734,1
53,100,0.7181818181818181,373,1,5,DL_Guitar,6,11,DL_Guitar,0.9983231425285339,1
56,100,0.9818181818181818,593,0,5,DL_Guitar,6,15,DL_Guitar,0.5462067723274231,1
53,100,0.7,854,1,6,DL_Guitar,6,11,DL_Guitar,0.9792238473892212,1
53,100,0.1409090909090909,158,1,7,DL_Guitar,6,2,DL_Guitar,0.9988439083099365,1
53,100,0.4,311,0,7,DL_Guitar,6,6,DL_Guitar,0.13798487186431885,0
63,100,0.2818181818181818,747,1,7,DL_Guitar,6,5,DL_Guitar,0.16236647963523865,0
63,100,0.1590909090909091,831,0,7,DL_Guitar,6,3,DL_Guitar,0.1910635083913803,0
63,100,0.1409090909090909,871,0,7,DL_Guitar,6,2,DL_Guitar,0.2619773745536804,0
53,100,0.18181818181818182,527,1,8,DL_Guitar,6,3,DL_Guitar,0.9990094900131226,1
53,100,0.4590909090909091,581,0,8,DL_Guitar,6,7,DL_Guitar,0.2332310974597931,0
53,100,0.22272727272727272,685,0,8,DL_Guitar,6,4,DL_Guitar,0.2705838084220886,0
63,100,0.8590909090909091,787,0,8,DL_Guitar,6,14,DL_Guitar,0.3579248785972595,0
63,100,0.21818181818181817,448,1,13,DL_Guitar,6,3,DL_Guitar,0.9792237281799316,1
56,100,1.740909090909091,92,1,14,DL_Guitar,6,15,DL_Guitar,0.9990094900131226,1
56,100,0.2818181818181818,519,1,14,DL_Guitar,6,5,DL_Guitar,0.23323605954647064,0
56,100,0.1409090909090909,735,0,14,DL_Guitar,6,2,DL_Guitar,0.27058228850364685,0
63,100,0.2409090909090909,783,0,14,DL_Guitar,6,4,DL_Guitar,0.35791924595832825,0
56,100,0.2409090909090909,22,1,15,DL_Guitar,6,4,DL_Guitar,0.9984879493713379,1
56,100,0.1590909090909091,96,0,15,DL_Guitar,6,3,DL_Guitar,0.06335131824016571,0
53,100,0.3,144,0,15,DL_Guitar,6,5,DL_Guitar,0.05828876793384552,0
53,100,0.2,276,0,15,DL_Guitar,6,3,DL_Guitar,0.061360761523246765,0
63,100,0.4,386,0,15,DL_Guitar,6,6,DL_Guitar,0.071680948138237,0
53,100,0.1,536,0,15,DL_Guitar,6,2,DL_Guitar,0.08473474532365799,0
55,100,0.1,778,1,15,DL_Guitar,6,2,DL_Guitar,0.12634718418121338,0
63,100,0.4818181818181818,210,1,16,DL_Guitar,6,8,DL_Guitar,0.9990094900131226,1
53,100,0.12272727272727273,356,0,16,DL_Guitar,6,2,DL_Guitar,0.23323245346546173,0
58,100,0.2,391,0,16,DL_Guitar,6,3,DL_Guitar,0.27058857679367065,0
63,100,0.3,804,1,16,DL_Guitar,6,5,DL_Guitar,0.3579259514808655,0
56,100,0.11818181818181818,461,1,17,DL_Guitar,6,2,DL_Guitar,0.9990094900131226,1
53,100,0.2590909090909091,519,0,17,DL_Guitar,6,4,DL_Guitar,0.23323555290699005,0
53,100,0.1590909090909091,646,0,17,DL_Guitar,6,3,DL_Guitar,0.2705800533294678,0
63,100,0.33636363636363636,831,0,17,DL_Guitar,6,5,DL_Guitar,0.35792720317840576,0
53,100,0.2409090909090909,44,1,18,DL_Guitar,6,4,DL_Guitar,0.9986506104469299,1
55,100,0.3181818181818182,216,0,18,DL_Guitar,6,5,DL_Guitar,0.08798209577798843,0
55,100,0.9227272727272727,356,0,18,DL_Guitar,6,15,DL_Guitar,0.09298250079154968,0
55,100,0.22272727272727272,642,1,18,DL_Guitar,6,4,DL_Guitar,0.10994955897331238,0
60,100,0.1409090909090909,748,0,18,DL_Guitar,6,2,DL_Guitar,0.12866806983947754,0
60,100,0.18181818181818182,783,0,18,DL_Guitar,6,3,DL_Guitar,0.18221519887447357,0
63,100,0.12272727272727273,79,1,19,DL_Guitar,6,2,DL_Guitar,0.9990094900131226,1
53,100,0.5227272727272727,356,1,19,DL_Guitar,6,8,DL_Guitar,0.23323330283164978,0
53,100,0.2590909090909091,492,0,19,DL_Guitar,6,4,DL_Guitar,0.2705882489681244,0
53,100,0.2590909090909091,563,0,19,DL_Guitar,6,4,DL_Guitar,0.3579232394695282,0
53,100,0.11818181818181818,17,1,20,DL_Guitar,6,2,DL_Guitar,0.9983735084533691,1
55,100,0.2590909090909091,285,1,20,DL_Guitar,6,4,DL_Guitar,0.05104969069361687,0
53,100,0.11818181818181818,351,0,20,DL_Guitar,6,2,DL_Guitar,0.04161257669329643,0
55,100,0.5818181818181818,399,0,20,DL_Guitar,6,9,DL_Guitar,0.037980686873197556,0
56,100,0.21818181818181817,567,0,20,DL_Guitar,6,3,DL_Guitar,0.03926083818078041,0
56,100,0.12272727272727273,642,0,20,DL_Guitar,6,2,DL_Guitar,0.04616641625761986,0
56,100,0.21818181818181817,691,0,20,DL_Guitar,6,3,DL_Guitar,0.05713237076997757,0
56,100,0.3,801,0,20,DL_Guitar,6,5,DL_Guitar,0.09187714010477066,0
56,100,0.17727272727272728,9,1,21,DL_Guitar,6,3,DL_Guitar,0.9990094900131226,1
63,100,0.2590909090909091,303,1,21,DL_Guitar,6,4,DL_Guitar,0.23322956264019012,0
63,100,0.4,515,0,21,DL_Guitar,6,6,DL_Guitar,0.27058669924736023,0
63,100,0.8590909090909091,743,0,21,DL_Guitar,6,14,DL_Guitar,0.35792988538742065,0
63,100,0.35909090909090907,96,1,22,DL_Guitar,6,6,DL_Guitar,0.9990280866622925,1
63,100,0.4,260,0,22,DL_Guitar,6,6,DL_Guitar,0.37034958600997925,0
63,100,0.17727272727272728,480,0,22,DL_Guitar,6,3,DL_Guitar,0.45618367195129395,0
58,100,0.12272727272727273,223,1,26,DL_Guitar,6,2,DL_Guitar,0.998228132724762,1
53,100,0.2409090909090909,254,0,26,DL_Guitar,6,4,DL_Guitar,0.03940211609005928,0
58,100,0.1590909090909091,351,0,26,DL_Guitar,6,3,DL_Guitar,0.026854049414396286,0
53,100,0.11818181818181818,395,0,26,DL_Guitar,6,2,DL_Guitar,0.018830539658665657,0
53,100,0.17727272727272728,449,0,26,DL_Guitar,6,3,DL_Guitar,0.013653740286827087,0
58,100,0.2818181818181818,519,0,26,DL_Guitar,6,5,DL_Guitar,0.010812424123287201,0
53,100,0.1590909090909091,602,0,26,DL_Guitar,6,3,DL_Guitar,0.010072593577206135,0
58,100,0.2,673,0,26,DL_Guitar,6,3,DL_Guitar,0.01171573530882597,0
53,100,0.2,725,0,26,DL_Guitar,6,3,DL_Guitar,0.01699119433760643,0
58,100,0.3,783,0,26,DL_Guitar,6,5,DL_Guitar,0.027576932683587074,0
74,100,0.11818181818181818,866,0,26,DL_Guitar,6,2,DL_Guitar,0.054592009633779526,0
63,100,0.6590909090909091,501,1,27,DL_Guitar,6,11,DL_Guitar,0.9990280866622925,1
58,100,0.11818181818181818,725,0,27,DL_Guitar,6,2,DL_Guitar,0.3703513741493225,0
58,100,1.0,827,0,27,DL_Guitar,6,15,DL_Guitar,0.4561704695224762,0
63,100,0.1409090909090909,175,1,28,DL_Guitar,6,2,DL_Guitar,0.9990094900131226,1
58,100,0.3181818181818182,360,0,28,DL_Guitar,6,5,DL_Guitar,0.23324215412139893,0
63,100,1.040909090909091,474,0,28,DL_Guitar,6,15,DL_Guitar,0.2705831825733185,0
63,100,0.2590909090909091,783,1,28,DL_Guitar,6,4,DL_Guitar,0.3579300343990326,0
55,100,0.5409090909090909,100,1,29,DL_Guitar,6,9,DL_Guitar,0.9986506104469299,1
58,100,0.18181818181818182,246,0,29,DL_Guitar,6,3,DL_Guitar,0.08797816187143326,0
55,100,0.1409090909090909,312,0,29,DL_Guitar,6,2,DL_Guitar,0.09298478811979294,0
63,100,1.040909090909091,378,0,29,DL_Guitar,6,15,DL_Guitar,0.109942726790905,0
63,100,0.32272727272727275,642,1,29,DL_Guitar,6,5,DL_Guitar,0.12867243587970734,0
63,100,0.13636363636363635,876,1,29,DL_Guitar,6,2,DL_Guitar,0.18221986293792725,0
63,100,0.1590909090909091,57,1,30,DL_Guitar,6,3,DL_Guitar,0.9983231425285339,1
63,100,0.21818181818181817,193,0,30,DL_Guitar,6,3,DL_Guitar,0.5462208390235901,1
58,100,0.41818181818181815,52,1,31,DL_Guitar,6,7,DL_Guitar,0.9990094900131226,1
58,100,0.740909090909091,272,0,31,DL_Guitar,6,12,DL_Guitar,0.23322884738445282,0
58,100,0.4818181818181818,509,1,31,DL_Guitar,6,8,DL_Guitar,0.27058035135269165,0
58,100,0.2590909090909091,660,0,31,DL_Guitar,6,4,DL_Guitar,0.3579239249229431,0
63,100,0.2,66,1,32,DL_Guitar,6,3,DL_Guitar,0.9983735084533691,1
63,100,0.17727272727272728,206,0,32,DL_Guitar,6,3,DL_Guitar,0.051050201058387756,0
58,100,0.1409090909090909,321,0,32,DL_Guitar,6,2,DL_Guitar,0.04161285236477852,0
63,100,0.11818181818181818,493,0,32,DL_Guitar,6,2,DL_Guitar,0.03797963261604309,0
63,100,0.1,606,0,32,DL_Guitar,6,2,DL_Guitar,0.039261654019355774,0
53,100,0.21818181818181817,638,0,32,DL_Guitar,6,3,DL_Guitar,0.046167559921741486,0
58,100,0.4,686,0,32,DL_Guitar,6,6,DL_Guitar,0.057134196162223816,0
58,100,0.2,796,0,32,DL_Guitar,6,3,DL_Guitar,0.09188251197338104,0
53,100,0.11818181818181818,53,1,33,DL_Guitar,6,2,DL_Guitar,0.9988439083099365,1
53,100,0.22272727272727272,114,0,33,DL_Guitar,6,4,DL_Guitar,0.13798421621322632,0
55,100,0.18181818181818182,386,1,33,DL_Guitar,6,3,DL_Guitar,0.162367582321167,0
59,100,0.4818181818181818,453,0,33,DL_Guitar,6,8,DL_Guitar,0.19106309115886688,0
55,100,0.5,563,0,33,DL_Guitar,6,8,DL_Guitar,0.2619576156139374,0
55,100,0.2,26,1,34,DL_Guitar,6,3,DL_Guitar,0.9988439083099365,1
63,100,0.11818181818181818,105,0,34,DL_Guitar,6,2,DL_Guitar,0.13798390328884125,0
55,100,0.16363636363636364,268,0,34,DL_Guitar,6,3,DL_Guitar,0.1623668074607849,0
58,100,0.1590909090909091,364,0,34,DL_Guitar,6,3,DL_Guitar,0.19105951488018036,0
56,100,0.1590909090909091,756,1,34,DL_Guitar,6,3,DL_Guitar,0.2619589567184448,0
58,100,0.3,201,1,35,DL_Guitar,6,5,DL_Guitar,0.9988439083099365,1
58,100,0.37727272727272726,458,1,35,DL_Guitar,6,6,DL_Guitar,0.13797742128372192,0
53,100,0.1,545,0,35,DL_Guitar,6,2,DL_Guitar,0.16235704720020294,0
58,100,0.2818181818181818,576,0,35,DL_Guitar,6,5,DL_Guitar,0.19105516374111176,0
58,100,0.4,729,0,35,DL_Guitar,6,6,DL_Guitar,0.2619589567184448,0
63,100,0.17727272727272728,426,1,36,DL_Guitar,6,3,DL_Guitar,0.9983231425285339,1
63,100,0.43636363636363634,655,0,36,DL_Guitar,6,7,DL_Guitar,0.5462193489074707,1
56,100,0.11818181818181818,96,1,37,DL_Guitar,6,2,DL_Guitar,0.9988439083099365,1
63,100,0.2772727272727273,370,1,37,DL_Guitar,6,4,DL_Guitar,0.13798727095127106,0
63,100,0.41818181818181815,435,0,37,DL_Guitar,6,7,DL_Guitar,0.16237154603004456,0
63,100,0.11818181818181818,655,0,37,DL_Guitar,6,2,DL_Guitar,0.19106696546077728,0
63,100,0.38181818181818183,748,0,37,DL_Guitar,6,6,DL_Guitar,0.2619726359844208,0
63,100,0.35909090909090907,88,1,38,DL_Guitar,6,6,DL_Guitar,0.9792234897613525,1
65,100,0.4818181818181818,233,1,39,DL_Guitar,6,8,DL_Guitar,0.9988439083099365,1
56,100,0.4636363636363636,421,0,39,DL_Guitar,6,7,DL_Guitar,0.13798107206821442,0
63,100,0.36363636363636365,531,0,39,DL_Guitar,6,6,DL_Guitar,0.1623663753271103,0
63,100,0.35909090909090907,748,0,39,DL_Guitar,6,6,DL_Guitar,0.19105635583400726,0
58,100,0.1409090909090909,861,0,39,DL_Guitar,6,2,DL_Guitar,0.2619776725769043,0
53,100,0.23636363636363636,18,1,40,DL_Guitar,6,4,DL_Guitar,0.9990094900131226,1
58,100,0.16363636363636364,114,0,40,DL_Guitar,6,3,DL_Guitar,0.23323224484920502,0
58,100,0.759090909090909,163,0,40,DL_Guitar,6,12,DL_Guitar,0.2705778479576111,0
58,100,0.2590909090909091,351,0,40,DL_Guitar,6,4,DL_Guitar,0.3579280376434326,0
53,100,0.3181818181818182,198,1,41,DL_Guitar,6,5,DL_Guitar,0.9988439083099365,1
58,100,0.9409090909090909,273,0,41,DL_Guitar,6,15,DL_Guitar,0.137979656457901,0
58,100,0.4818181818181818,483,0,41,DL_Guitar,6,8,DL_Guitar,0.1623649299144745,0
58,100,0.1590909090909091,593,0,41,DL_Guitar,6,3,DL_Guitar,0.1910572201013565,0
63,100,0.41818181818181815,770,0,41,DL_Guitar,6,7,DL_Guitar,0.26196160912513733,0
63,100,0.32272727272727275,34,1,42,DL_Guitar,6,5,DL_Guitar,0.9983232617378235,1
63,100,0.5,188,0,42,DL_Guitar,6,8,DL_Guitar,0.5462254285812378,1
63,100,0.11818181818181818,110,1,43,DL_Guitar,6,2,DL_Guitar,0.9990280866622925,1
58,100,0.2,263,0,43,DL_Guitar,6,3,DL_Guitar,0.37034356594085693,0
65,100,0.13636363636363635,523,1,43,DL_Guitar,6,2,DL_Guitar,0.4561675786972046,0
65,100,0.37727272727272726,105,1,44,DL_Guitar,6,6,DL_Guitar,0.9990280866622925,1
63,100,0.1590909090909091,418,1,44,DL_Guitar,6,3,DL_Guitar,0.37034159898757935,0
63,100,0.11818181818181818,681,1,44,DL_Guitar,6,2,DL_Guitar,0.456173300743103,0
63,100,0.8590909090909091,198,1,45,DL_Guitar,6,14,DL_Guitar,0.9990094900131226,1
56,100,0.2409090909090909,399,0,45,DL_Guitar,6,4,DL_Guitar,0.23323477804660797,0
56,100,0.13636363636363635,458,0,45,DL_Guitar,6,2,DL_Guitar,0.27058306336402893,0
56,100,0.16363636363636364,509,0,45,DL_Guitar,6,3,DL_Guitar,0.3579227328300476,0
62,100,0.5181818181818182,0,1,47,DL_Guitar,6,8,DL_Guitar,0.9983231425285339,1
63,100,1.8,370,1,47,DL_Guitar,6,15,DL_Guitar,0.5462155342102051,1
58,100,0.5181818181818182,308,1,48,DL_Guitar,6,8,DL_Guitar,0.9792237281799316,1
58,100,0.2,21,1,49,DL_Guitar,6,3,DL_Guitar,0.9792242646217346,1
58,100,0.16363636363636364,224,1,50,DL_Guitar,6,3,DL_Guitar,0.9983232617378235,1
56,100,0.21818181818181817,273,0,50,DL_Guitar,6,3,DL_Guitar,0.5462127923965454,1
62,100,0.16363636363636364,136,1,51,DL_Guitar,6,3,DL_Guitar,0.9792237281799316,1
63,100,0.11818181818181818,501,1,52,DL_Guitar,6,2,DL_Guitar,0.9990280866622925,1
63,100,0.1,531,0,52,DL_Guitar,6,2,DL_Guitar,0.3703465163707733,0
63,100,0.21818181818181817,558,0,52,DL_Guitar,6,3,DL_Guitar,0.45617759227752686,0
58,100,0.12272727272727273,796,1,53,DL_Guitar,6,2,DL_Guitar,0.9792242646217346,1
58,100,0.2,681,1,55,DL_Guitar,6,3,DL_Guitar,0.9792240262031555,1
58,100,0.2772727272727273,8,1,56,DL_Guitar,6,4,DL_Guitar,0.9983231425285339,1
55,100,0.5409090909090909,603,1,56,DL_Guitar,6,9,DL_Guitar,0.5462087988853455,1
55,100,0.18181818181818182,4,1,57,DL_Guitar,6,3,DL_Guitar,0.9990094900131226,1
55,100,0.11818181818181818,413,1,57,DL_Guitar,6,2,DL_Guitar,0.2332344949245453,0
63,100,0.11818181818181818,703,1,57,DL_Guitar,6,2,DL_Guitar,0.27057987451553345,0
63,100,0.3409090909090909,778,0,57,DL_Guitar,6,5,DL_Guitar,0.3579283058643341,0
58,100,0.2,153,1,58,DL_Guitar,6,3,DL_Guitar,0.9990094900131226,1
53,100,0.38181818181818183,431,1,58,DL_Guitar,6,6,DL_Guitar,0.23322412371635437,0
65,100,0.11818181818181818,528,0,58,DL_Guitar,6,2,DL_Guitar,0.2705730199813843,0
58,100,0.2409090909090909,576,0,58,DL_Guitar,6,4,DL_Guitar,0.35792484879493713,0
63,100,0.1,483,1,59,DL_Guitar,6,2,DL_Guitar,0.9792240262031555,1
58,100,0.3,801,1,60,DL_Guitar,6,5,DL_Guitar,0.9983231425285339,1
53,100,0.17727272727272728,875,0,60,DL_Guitar,6,3,DL_Guitar,0.5462131500244141,1
53,100,0.18181818181818182,298,1,63,DL_Guitar,6,3,DL_Guitar,0.9983231425285339,1
53,100,0.18181818181818182,373,0,63,DL_Guitar,6,3,DL_Guitar,0.5462142825126648,1
53,100,0.1409090909090909,163,1,64,DL_Guitar,6,2,DL_Guitar,0.9792234897613525,1
53,100,0.17727272727272728,612,1,65,DL_Guitar,6,3,DL_Guitar,0.9983231425285339,1
53,100,0.2,826,0,65,DL_Guitar,6,3,DL_Guitar,0.5462159514427185,1
53,100,0.2818181818181818,189,1,66,DL_Guitar,6,5,DL_Guitar,0.9990094900131226,1
53,100,0.2772727272727273,392,0,66,DL_Guitar,6,4,DL_Guitar,0.23322626948356628,0
53,100,0.5409090909090909,466,0,66,DL_Guitar,6,9,DL_Guitar,0.2705817222595215,0
55,100,0.11818181818181818,747,1,66,DL_Guitar,6,2,DL_Guitar,0.3579263389110565,0
53,100,0.17727272727272728,184,1,67,DL_Guitar,6,3,DL_Guitar,0.9983232617378235,1
56,100,0.2,536,1,67,DL_Guitar,6,3,DL_Guitar,0.5462131500244141,1
58,100,0.1409090909090909,629,1,69,DL_Guitar,6,2,DL_Guitar,0.9983232617378235,1
58,100,0.2818181818181818,663,0,69,DL_Guitar,6,5,DL_Guitar,0.5462111830711365,1
53,100,0.18181818181818182,422,1,70,DL_Guitar,6,3,DL_Guitar,0.9990094900131226,1
58,100,0.1590909090909091,546,0,70,DL_Guitar,6,3,DL_Guitar,0.23322854936122894,0
58,100,0.1590909090909091,585,0,70,DL_Guitar,6,3,DL_Guitar,0.2705773413181305,0
53,100,0.12272727272727273,619,0,70,DL_Guitar,6,2,DL_Guitar,0.3579159677028656,0
58,100,0.3409090909090909,462,1,71,DL_Guitar,6,5,DL_Guitar,0.9983231425285339,1
58,100,0.4772727272727273,743,1,71,DL_Guitar,6,8,DL_Guitar,0.5462168455123901,1
53,100,0.1409090909090909,0,1,72,DL_Guitar,6,2,DL_Guitar,0.9983231425285339,1
58,100,0.3,792,1,72,DL_Guitar,6,5,DL_Guitar,0.5462153553962708,1
58,100,0.1,13,1,73,DL_Guitar,6,2,DL_Guitar,0.9988439083099365,1
65,100,0.38181818181818183,330,1,73,DL_Guitar,6,6,DL_Guitar,0.13797788321971893,0
65,100,0.1,417,0,73,DL_Guitar,6,2,DL_Guitar,0.1623595654964447,0
65,100,0.12272727272727273,629,0,73,DL_Guitar,6,2,DL_Guitar,0.19105181097984314,0
65,100,0.18181818181818182,770,0,73,DL_Guitar,6,3,DL_Guitar,0.2619551122188568,0
65,100,0.13636363636363635,83,1,74,DL_Guitar,6,2,DL_Guitar,0.9990280866622925,1
63,100,0.2818181818181818,597,1,74,DL_Guitar,6,5,DL_Guitar,0.37034231424331665,0
63,100,0.3181818181818182,669,0,74,DL_Guitar,6,5,DL_Guitar,0.45617273449897766,0
58,100,0.2,263,1,75,DL_Guitar,6,3,DL_Guitar,0.9990094900131226,1
62,100,0.2,352,0,75,DL_Guitar,6,3,DL_Guitar,0.2332240492105484,0
53,100,0.2409090909090909,756,1,75,DL_Guitar,6,4,DL_Guitar,0.27058589458465576,0
53,100,0.18181818181818182,813,0,75,DL_Guitar,6,3,DL_Guitar,0.35792988538742065,0
53,100,0.1409090909090909,9,1,76,DL_Guitar,6,2,DL_Guitar,0.9990094900131226,1
53,100,0.1590909090909091,66,0,76,DL_Guitar,6,3,DL_Guitar,0.23322847485542297,0
65,100,0.1,282,0,76,DL_Guitar,6,2,DL_Guitar,0.2705772817134857,0
55,100,0.1,673,1,76,DL_Guitar,6,2,DL_Guitar,0.3579283654689789,0
58,100,0.2409090909090909,532,1,77,DL_Guitar,6,4,DL_Guitar,0.9983232617378235,1
58,100,0.21818181818181817,590,0,77,DL_Guitar,6,3,DL_Guitar,0.5462125539779663,1
58,100,0.1,83,1,78,DL_Guitar,6,2,DL_Guitar,0.9983232617378235,1
58,100,0.21818181818181817,339,1,78,DL_Guitar,6,3,DL_Guitar,0.546215295791626,1
58,100,0.13636363636363635,83,1,79,DL_Guitar,6,2,DL_Guitar,0.9983232617378235,1
60,100,0.32272727272727275,519,1,79,DL_Guitar,6,5,DL_Guitar,0.5462154150009155,1
58,100,0.1,3,1,80,DL_Guitar,6,2,DL_Guitar,0.9990280866622925,1
58,100,1.0772727272727274,40,0,80,DL_Guitar,6,15,DL_Guitar,0.3703365921974182,0
58,100,0.1409090909090909,462,1,80,DL_Guitar,6,2,DL_Guitar,0.4561712145805359,0
58,100,0.2818181818181818,839,1,82,DL_Guitar,6,5,DL_Guitar,0.979223906993866,1
58,100,1.2818181818181817,466,1,84,DL_Guitar,6,15,DL_Guitar,0.979223906993866,1
58,100,0.4409090909090909,817,1,86,DL_Guitar,6,7,DL_Guitar,0.9792242646217346,1
58,100,0.4772727272727273,62,1,87,DL_Guitar,6,8,DL_Guitar,0.9983232617378235,1
58,100,0.2818181818181818,179,0,87,DL_Guitar,6,5,DL_Guitar,0.5462188720703125,1
58,100,1.2363636363636363,853,1,89,DL_Guitar,6,15,DL_Guitar,0.9792238473892212,1
63,100,0.11818181818181818,703,1,90,DL_Guitar,6,2,DL_Guitar,0.9983231425285339,1
58,100,0.2818181818181818,739,0,90,DL_Guitar,6,5,DL_Guitar,0.5462220311164856,1
58,100,0.11818181818181818,43,1,91,DL_Guitar,6,2,DL_Guitar,0.9990094900131226,1
58,100,0.32272727272727275,123,0,91,DL_Guitar,6,5,DL_Guitar,0.23322975635528564,0
58,100,0.2409090909090909,356,1,91,DL_Guitar,6,4,DL_Guitar,0.2705806493759155,0
58,100,1.0227272727272727,650,1,91,DL_Guitar,6,15,DL_Guitar,0.3579215705394745,0
58,100,0.4818181818181818,3,1,92,DL_Guitar,6,8,DL_Guitar,0.9990094900131226,1
58,100,0.1590909090909091,373,1,92,DL_Guitar,6,3,DL_Guitar,0.2332315891981125,0
58,100,0.1,440,0,92,DL_Guitar,6,2,DL_Guitar,0.27058282494544983,0
53,100,0.18181818181818182,593,0,92,DL_Guitar,6,3,DL_Guitar,0.3579196631908417,0
53,100,0.18181818181818182,246,1,93,DL_Guitar,6,3,DL_Guitar,0.979223906993866,1
58,100,0.3409090909090909,22,1,94,DL_Guitar,6,5,DL_Guitar,0.9990094900131226,1
58,100,0.17727272727272728,250,0,94,DL_Guitar,6,3,DL_Guitar,0.23322884738445282,0
58,100,0.5181818181818182,713,1,94,DL_Guitar,6,8,DL_Guitar,0.27058079838752747,0
58,100,0.7181818181818181,853,0,94,DL_Guitar,6,11,DL_Guitar,0.35792097449302673,0
56,100,0.5409090909090909,145,1,95,DL_Guitar,6,9,DL_Guitar,0.9990280866622925,1
56,100,0.18181818181818182,267,0,95,DL_Guitar,6,3,DL_Guitar,0.37034326791763306,0
62,100,0.3181818181818182,690,1,95,DL_Guitar,6,5,DL_Guitar,0.4561733305454254,0
63,100,0.2772727272727273,787,1,96,DL_Guitar,6,4,DL_Guitar,0.979223906993866,1
63,100,0.18181818181818182,862,1,97,DL_Guitar,6,3,DL_Guitar,0.9792236089706421,1
52,100,0.37727272727272726,414,1,0,Dl_Nostalgic_2_Guitar,6,6,Dl_Nostalgic_2_Guitar,0.9990280866622925,1
54,100,0.3181818181818182,502,0,0,Dl_Nostalgic_2_Guitar,6,5,Dl_Nostalgic_2_Guitar,0.3703426718711853,0
57,100,0.2818181818181818,585,0,0,Dl_Nostalgic_2_Guitar,6,5,Dl_Nostalgic_2_Guitar,0.45617106556892395,0
61,100,0.2,157,1,1,Dl_Nostalgic_2_Guitar,6,3,Dl_Nostalgic_2_Guitar,0.9990280866622925,1
61,100,0.17727272727272728,206,0,1,Dl_Nostalgic_2_Guitar,6,3,Dl_Nostalgic_2_Guitar,0.3703390955924988,0
52,100,0.2,752,1,1,Dl_Nostalgic_2_Guitar,6,3,Dl_Nostalgic_2_Guitar,0.45617324113845825,0
61,100,0.1409090909090909,220,1,2,Dl_Nostalgic_2_Guitar,6,2,Dl_Nostalgic_2_Guitar,0.9990094900131226,1
52,100,0.12272727272727273,342,0,2,Dl_Nostalgic_2_Guitar,6,2,Dl_Nostalgic_2_Guitar,0.23323415219783783,0
61,100,0.2,440,0,2,Dl_Nostalgic_2_Guitar,6,3,Dl_Nostalgic_2_Guitar,0.270587295293808,0
54,100,1.1590909090909092,804,1,2,Dl_Nostalgic_2_Guitar,6,15,Dl_Nostalgic_2_Guitar,0.35793280601501465,0
66,100,0.1409090909090909,268,1,3,Dl_Nostalgic_2_Guitar,6,2,Dl_Nostalgic_2_Guitar,0.9990280866622925,1
54,100,0.2409090909090909,421,0,3,Dl_Nostalgic_2_Guitar,6,4,Dl_Nostalgic_2_Guitar,0.37033528089523315,0
54,100,0.21818181818181817,703,1,3,Dl_Nostalgic_2_Guitar,6,3,Dl_Nostalgic_2_Guitar,0.4561646580696106,0
54,100,0.12272727272727273,48,1,4,Dl_Nostalgic_2_Guitar,6,2,Dl_Nostalgic_2_Guitar,0.9986506104469299,1
54,100,0.4,435,1,4,Dl_Nostalgic_2_Guitar,6,6,Dl_Nostalgic_2_Guitar,0.08798060566186905,0
57,100,0.17727272727272728,524,0,4,Dl_Nostalgic_2_Guitar,6,3,Dl_Nostalgic_2_Guitar,0.0929824709892273,0
57,100,0.2409090909090909,606,0,4,Dl_Nostalgic_2_Guitar,6,4,Dl_Nostalgic_2_Guitar,0.10994987189769745,0
57,100,0.21818181818181817,691,0,4,Dl_Nostalgic_2_Guitar,6,3,Dl_Nostalgic_2_Guitar,0.12867207825183868,0
57,100,0.1409090909090909,813,0,4,Dl_Nostalgic_2_Guitar,6,2,Dl_Nostalgic_2_Guitar,0.18222057819366455,0
52,100,0.1409090909090909,8,1,5,Dl_Nostalgic_2_Guitar,6,2,Dl_Nostalgic_2_Guitar,0.9990280866622925,1
57,100,0.2409090909090909,338,1,5,Dl_Nostalgic_2_Guitar,6,4,Dl_Nostalgic_2_Guitar,0.3703424036502838,0
57,100,0.2772727272727273,810,1,5,Dl_Nostalgic_2_Guitar,6,4,Dl_Nostalgic_2_Guitar,0.45616868138313293,0
57,100,0.16363636363636364,4,1,6,Dl_Nostalgic_2_Guitar,6,3,Dl_Nostalgic_2_Guitar,0.9983232617378235,1
69,100,0.18181818181818182,431,1,6,Dl_Nostalgic_2_Guitar,6,3,Dl_Nostalgic_2_Guitar,0.5462173223495483,1
69,100,0.2590909090909091,18,1,7,Dl_Nostalgic_2_Guitar,6,4,Dl_Nostalgic_2_Guitar,0.9988439083099365,1
57,100,0.1590909090909091,74,0,7,Dl_Nostalgic_2_Guitar,6,3,Dl_Nostalgic_2_Guitar,0.1379813402891159,0
61,100,0.22272727272727272,158,0,7,Dl_Nostalgic_2_Guitar,6,4,Dl_Nostalgic_2_Guitar,0.162366583943367,0
66,100,0.17727272727272728,721,1,7,Dl_Nostalgic_2_Guitar,6,3,Dl_Nostalgic_2_Guitar,0.1910654753446579,0
54,100,0.9409090909090909,761,0,7,Dl_Nostalgic_2_Guitar,6,15,Dl_Nostalgic_2_Guitar,0.26196175813674927,0
57,100,0.2,110,1,8,Dl_Nostalgic_2_Guitar,6,3,Dl_Nostalgic_2_Guitar,0.9984880685806274,1
54,100,0.2,154,0,8,Dl_Nostalgic_2_Guitar,6,3,Dl_Nostalgic_2_Guitar,0.06335347145795822,0
66,100,0.5,211,0,8,Dl_Nostalgic_2_Guitar,6,8,Dl_Nostalgic_2_Guitar,0.05828867852687836,0
52,100,0.13636363636363635,326,0,8,Dl_Nostalgic_2_Guitar,6,2,Dl_Nostalgic_2_Guitar,0.061361901462078094,0
52,100,0.8636363636363636,378,0,8,Dl_Nostalgic_2_Guitar,6,14,Dl_Nostalgic_2_Guitar,0.0716811865568161,0
54,100,0.1590909090909091,625,1,8,Dl_Nostalgic_2_Guitar,6,3,Dl_Nostalgic_2_Guitar,0.08473622053861618,0
52,100,0.9,792,0,8,Dl_Nostalgic_2_Guitar,6,14,Dl_Nostalgic_2_Guitar,0.12634959816932678,0
64,100,0.22272727272727272,123,1,9,Dl_Nostalgic_2_Guitar,6,4,Dl_Nostalgic_2_Guitar,0.9986506104469299,1
57,100,0.1409090909090909,202,0,9,Dl_Nostalgic_2_Guitar,6,2,Dl_Nostalgic_2_Guitar,0.08797953277826309,0
52,100,0.2,259,0,9,Dl_Nostalgic_2_Guitar,6,3,Dl_Nostalgic_2_Guitar,0.09298828989267349,0
59,100,0.33636363636363636,326,0,9,Dl_Nostalgic_2_Guitar,6,5,Dl_Nostalgic_2_Guitar,0.1099526658654213,0
57,100,1.1818181818181819,400,0,9,Dl_Nostalgic_2_Guitar,6,15,Dl_Nostalgic_2_Guitar,0.128675177693367,0
57,100,0.22272727272727272,761,1,9,Dl_Nostalgic_2_Guitar,6,4,Dl_Nostalgic_2_Guitar,0.1822231411933899,0
57,100,0.12272727272727273,25,1,10,Dl_Nostalgic_2_Guitar,6,2,Dl_Nostalgic_2_Guitar,0.9988439083099365,1
69,100,0.1,254,0,10,Dl_Nostalgic_2_Guitar,6,2,Dl_Nostalgic_2_Guitar,0.13798648118972778,0
57,100,0.6409090909090909,276,0,10,Dl_Nostalgic_2_Guitar,6,10,Dl_Nostalgic_2_Guitar,0.16236761212348938,0
57,100,0.1,470,0,10,Dl_Nostalgic_2_Guitar,6,2,Dl_Nostalgic_2_Guitar,0.1910611093044281,0
57,100,0.740909090909091,735,1,10,Dl_Nostalgic_2_Guitar,6,12,Dl_Nostalgic_2_Guitar,0.2619653642177582,0
57,100,0.2590909090909091,233,1,11,Dl_Nostalgic_2_Guitar,6,4,Dl_Nostalgic_2_Guitar,0.9988439083099365,1
57,100,0.5,295,0,11,Dl_Nostalgic_2_Guitar,6,8,Dl_Nostalgic_2_Guitar,0.13798421621322632,0
57,100,0.5363636363636364,414,0,11,Dl_Nostalgic_2_Guitar,6,9,Dl_Nostalgic_2_Guitar,0.16237400472164154,0
54,100,1.240909090909091,541,0,11,Dl_Nostalgic_2_Guitar,6,15,Dl_Nostalgic_2_Guitar,0.19106517732143402,0
57,100,0.2818181818181818,818,1,11,Dl_Nostalgic_2_Guitar,6,5,Dl_Nostalgic_2_Guitar,0.26197710633277893,0
54,100,0.4,175,1,12,Dl_Nostalgic_2_Guitar,6,6,Dl_Nostalgic_2_Guitar,0.9986506104469299,1
54,100,0.1,268,0,12,Dl_Nostalgic_2_Guitar,6,2,Dl_Nostalgic_2_Guitar,0.08797900378704071,0
57,100,0.4590909090909091,414,0,12,Dl_Nostalgic_2_Guitar,6,7,Dl_Nostalgic_2_Guitar,0.09298277646303177,0
61,100,0.17727272727272728,536,0,12,Dl_Nostalgic_2_Guitar,6,3,Dl_Nostalgic_2_Guitar,0.10994907468557358,0
54,100,0.5409090909090909,660,0,12,Dl_Nostalgic_2_Guitar,6,9,Dl_Nostalgic_2_Guitar,0.12867042422294617,0
57,100,0.1,809,0,12,Dl_Nostalgic_2_Guitar,6,2,Dl_Nostalgic_2_Guitar,0.18221737444400787,0
57,100,0.1590909090909091,13,1,13,Dl_Nostalgic_2_Guitar,6,3,Dl_Nostalgic_2_Guitar,0.9988439083099365,1
69,100,0.3,79,0,13,Dl_Nostalgic_2_Guitar,6,5,Dl_Nostalgic_2_Guitar,0.13798858225345612,0
69,100,0.2409090909090909,163,0,13,Dl_Nostalgic_2_Guitar,6,4,Dl_Nostalgic_2_Guitar,0.16237549483776093,0
57,100,0.2636363636363636,290,0,13,Dl_Nostalgic_2_Guitar,6,4,Dl_Nostalgic_2_Guitar,0.19106951355934143,0
57,100,0.6818181818181818,527,1,13,Dl_Nostalgic_2_Guitar,6,11,Dl_Nostalgic_2_Guitar,0.2619689702987671,0
57,100,0.3409090909090909,96,1,14,Dl_Nostalgic_2_Guitar,6,5,Dl_Nostalgic_2_Guitar,0.9983231425285339,1
57,100,0.8363636363636363,567,1,14,Dl_Nostalgic_2_Guitar,6,13,Dl_Nostalgic_2_Guitar,0.5462209582328796,1
57,100,0.35909090909090907,171,1,15,Dl_Nostalgic_2_Guitar,6,6,Dl_Nostalgic_2_Guitar,0.9986506104469299,1
57,100,0.2590909090909091,254,0,15,Dl_Nostalgic_2_Guitar,6,4,Dl_Nostalgic_2_Guitar,0.08798393607139587,0
57,100,0.38181818181818183,321,0,15,Dl_Nostalgic_2_Guitar,6,6,Dl_Nostalgic_2_Guitar,0.09298953413963318,0
57,100,0.1409090909090909,558,1,15,Dl_Nostalgic_2_Guitar,6,2,Dl_Nostalgic_2_Guitar,0.10995719581842422,0
57,100,0.42272727272727273,651,0,15,Dl_Nostalgic_2_Guitar,6,7,Dl_Nostalgic_2_Guitar,0.12868323922157288,0
57,100,0.38181818181818183,804,0,15,Dl_Nostalgic_2_Guitar,6,6,Dl_Nostalgic_2_Guitar,0.18222902715206146,0
57,100,0.1,100,1,16,Dl_Nostalgic_2_Guitar,6,2,Dl_Nostalgic_2_Guitar,0.9986506104469299,1
57,100,0.38181818181818183,254,0,16,Dl_Nostalgic_2_Guitar,6,6,Dl_Nostalgic_2_Guitar,0.0879831314086914,0
57,100,0.21818181818181817,347,0,16,Dl_Nostalgic_2_Guitar,6,3,Dl_Nostalgic_2_Guitar,0.09298733621835709,0
57,100,0.3,426,0,16,Dl_Nostalgic_2_Guitar,6,5,Dl_Nostalgic_2_Guitar,0.10995586961507797,0
57,100,0.2818181818181818,550,0,16,Dl_Nostalgic_2_Guitar,6,5,Dl_Nostalgic_2_Guitar,0.12867534160614014,0
57,100,0.6409090909090909,729,0,16,Dl_Nostalgic_2_Guitar,6,10,Dl_Nostalgic_2_Guitar,0.1822313368320465,0
57,100,1.3818181818181818,3,1,17,Dl_Nostalgic_2_Guitar,6,15,Dl_Nostalgic_2_Guitar,0.9984879493713379,1
57,100,0.5590909090909091,326,1,17,Dl_Nostalgic_2_Guitar,6,9,Dl_Nostalgic_2_Guitar,0.06335366517305374,0
57,100,0.4590909090909091,457,0,17,Dl_Nostalgic_2_Guitar,6,7,Dl_Nostalgic_2_Guitar,0.05829073116183281,0
57,100,0.2409090909090909,594,0,17,Dl_Nostalgic_2_Guitar,6,4,Dl_Nostalgic_2_Guitar,0.0613633394241333,0
57,100,0.1409090909090909,660,0,17,Dl_Nostalgic_2_Guitar,6,2,Dl_Nostalgic_2_Guitar,0.07168586552143097,0
57,100,0.2,700,0,17,Dl_Nostalgic_2_Guitar,6,3,Dl_Nostalgic_2_Guitar,0.08474043756723404,0
57,100,0.38181818181818183,804,0,17,Dl_Nostalgic_2_Guitar,6,6,Dl_Nostalgic_2_Guitar,0.12635460495948792,0
69,100,0.2,9,1,18,Dl_Nostalgic_2_Guitar,6,3,Dl_Nostalgic_2_Guitar,0.9990094900131226,1
57,100,0.5,52,0,18,Dl_Nostalgic_2_Guitar,6,8,Dl_Nostalgic_2_Guitar,0.23323185741901398,0
52,100,0.3409090909090909,185,0,18,Dl_Nostalgic_2_Guitar,6,5,Dl_Nostalgic_2_Guitar,0.27059364318847656,0
57,100,0.3409090909090909,409,0,18,Dl_Nostalgic_2_Guitar,6,5,Dl_Nostalgic_2_Guitar,0.3579293489456177,0
59,100,0.22272727272727272,3,1,19,Dl_Nostalgic_2_Guitar,6,4,Dl_Nostalgic_2_Guitar,0.9986506104469299,1
64,100,0.2818181818181818,110,0,19,Dl_Nostalgic_2_Guitar,6,5,Dl_Nostalgic_2_Guitar,0.08797888457775116,0
61,100,0.2590909090909091,189,0,19,Dl_Nostalgic_2_Guitar,6,4,Dl_Nostalgic_2_Guitar,0.09298325330018997,0
61,100,0.2409090909090909,673,1,19,Dl_Nostalgic_2_Guitar,6,4,Dl_Nostalgic_2_Guitar,0.10995092242956161,0
59,100,0.2,752,0,19,Dl_Nostalgic_2_Guitar,6,3,Dl_Nostalgic_2_Guitar,0.12867282330989838,0
59,100,0.9,814,0,19,Dl_Nostalgic_2_Guitar,6,14,Dl_Nostalgic_2_Guitar,0.18221667408943176,0
59,100,0.1409090909090909,136,1,20,Dl_Nostalgic_2_Guitar,6,2,Dl_Nostalgic_2_Guitar,0.9983735084533691,1
59,100,0.21818181818181817,175,0,20,Dl_Nostalgic_2_Guitar,6,3,Dl_Nostalgic_2_Guitar,0.051049843430519104,0
64,100,0.1409090909090909,295,0,20,Dl_Nostalgic_2_Guitar,6,2,Dl_Nostalgic_2_Guitar,0.04161205515265465,0
61,100,0.2409090909090909,409,0,20,Dl_Nostalgic_2_Guitar,6,4,Dl_Nostalgic_2_Guitar,0.037978991866111755,0
64,100,0.18181818181818182,488,0,20,Dl_Nostalgic_2_Guitar,6,3,Dl_Nostalgic_2_Guitar,0.039261285215616226,0
61,100,0.3,638,0,20,Dl_Nostalgic_2_Guitar,6,5,Dl_Nostalgic_2_Guitar,0.04616512358188629,0
61,100,0.2590909090909091,756,0,20,Dl_Nostalgic_2_Guitar,6,4,Dl_Nostalgic_2_Guitar,0.05713336169719696,0
61,100,0.2772727272727273,866,0,20,Dl_Nostalgic_2_Guitar,6,4,Dl_Nostalgic_2_Guitar,0.09188035875558853,0
61,100,0.3181818181818182,162,1,21,Dl_Nostalgic_2_Guitar,6,5,Dl_Nostalgic_2_Guitar,0.9986506104469299,1
61,100,0.35909090909090907,330,0,21,Dl_Nostalgic_2_Guitar,6,6,Dl_Nostalgic_2_Guitar,0.08797949552536011,0
61,100,0.4818181818181818,430,0,21,Dl_Nostalgic_2_Guitar,6,8,Dl_Nostalgic_2_Guitar,0.09298450499773026,0
61,100,0.1590909090909091,611,0,21,Dl_Nostalgic_2_Guitar,6,3,Dl_Nostalgic_2_Guitar,0.10995026677846909,0
61,100,0.43636363636363634,656,0,21,Dl_Nostalgic_2_Guitar,6,7,Dl_Nostalgic_2_Guitar,0.12867438793182373,0
61,100,0.37727272727272726,810,0,21,Dl_Nostalgic_2_Guitar,6,6,Dl_Nostalgic_2_Guitar,0.18222276866436005,0
52,100,0.1409090909090909,220,1,22,Dl_Nostalgic_2_Guitar,6,2,Dl_Nostalgic_2_Guitar,0.9983231425285339,1
57,100,0.11818181818181818,748,1,22,Dl_Nostalgic_2_Guitar,6,2,Dl_Nostalgic_2_Guitar,0.5462142825126648,1
52,100,0.1,21,1,23,Dl_Nostalgic_2_Guitar,6,2,Dl_Nostalgic_2_Guitar,0.9988439083099365,1
61,100,0.759090909090909,339,1,23,Dl_Nostalgic_2_Guitar,6,12,Dl_Nostalgic_2_Guitar,0.13798092305660248,0
62,100,0.3,584,1,23,Dl_Nostalgic_2_Guitar,6,5,Dl_Nostalgic_2_Guitar,0.16236770153045654,0
62,100,0.8590909090909091,673,0,23,Dl_Nostalgic_2_Guitar,6,14,Dl_Nostalgic_2_Guitar,0.19105979800224304,0
62,100,0.1409090909090909,870,0,23,Dl_Nostalgic_2_Guitar,6,2,Dl_Nostalgic_2_Guitar,0.26197999715805054,0
62,100,0.12272727272727273,144,1,24,Dl_Nostalgic_2_Guitar,6,2,Dl_Nostalgic_2_Guitar,0.9990094900131226,1
59,100,0.1590909090909091,320,0,24,Dl_Nostalgic_2_Guitar,6,3,Dl_Nostalgic_2_Guitar,0.23323841392993927,0
59,100,0.6,436,0,24,Dl_Nostalgic_2_Guitar,6,10,Dl_Nostalgic_2_Guitar,0.27058523893356323,0
61,100,0.4,717,1,24,Dl_Nostalgic_2_Guitar,6,6,Dl_Nostalgic_2_Guitar,0.35792791843414307,0
57,100,0.4590909090909091,30,1,25,Dl_Nostalgic_2_Guitar,6,7,Dl_Nostalgic_2_Guitar,0.9990094900131226,1
58,100,0.2818181818181818,179,0,25,Dl_Nostalgic_2_Guitar,6,5,Dl_Nostalgic_2_Guitar,0.23323701322078705,0
61,100,0.21818181818181817,339,0,25,Dl_Nostalgic_2_Guitar,6,3,Dl_Nostalgic_2_Guitar,0.2705828547477722,0
62,100,0.6181818181818182,756,1,25,Dl_Nostalgic_2_Guitar,6,10,Dl_Nostalgic_2_Guitar,0.3579351007938385,0
57,100,0.12272727272727273,48,1,26,Dl_Nostalgic_2_Guitar,6,2,Dl_Nostalgic_2_Guitar,0.9986506104469299,1
62,100,0.2,100,0,26,Dl_Nostalgic_2_Guitar,6,3,Dl_Nostalgic_2_Guitar,0.08798331022262573,0
57,100,0.6181818181818182,150,0,26,Dl_Nostalgic_2_Guitar,6,10,Dl_Nostalgic_2_Guitar,0.09298816323280334,0
59,100,0.1590909090909091,656,1,26,Dl_Nostalgic_2_Guitar,6,3,Dl_Nostalgic_2_Guitar,0.10995742678642273,0
59,100,0.12272727272727273,708,0,26,Dl_Nostalgic_2_Guitar,6,2,Dl_Nostalgic_2_Guitar,0.12867987155914307,0
57,100,0.1590909090909091,822,0,26,Dl_Nostalgic_2_Guitar,6,3,Dl_Nostalgic_2_Guitar,0.1822260171175003,0
61,100,0.3409090909090909,92,1,27,Dl_Nostalgic_2_Guitar,6,5,Dl_Nostalgic_2_Guitar,0.9986506104469299,1
61,100,0.3,316,0,27,Dl_Nostalgic_2_Guitar,6,5,Dl_Nostalgic_2_Guitar,0.08797807991504669,0
52,100,0.4,488,0,27,Dl_Nostalgic_2_Guitar,6,6,Dl_Nostalgic_2_Guitar,0.09298406541347504,0
52,100,0.11818181818181818,602,0,27,Dl_Nostalgic_2_Guitar,6,2,Dl_Nostalgic_2_Guitar,0.10994776338338852,0
61,100,0.2590909090909091,700,0,27,Dl_Nostalgic_2_Guitar,6,4,Dl_Nostalgic_2_Guitar,0.12866948544979095,0
64,100,0.12272727272727273,862,0,27,Dl_Nostalgic_2_Guitar,6,2,Dl_Nostalgic_2_Guitar,0.18222498893737793,0
61,100,0.11818181818181818,9,1,28,Dl_Nostalgic_2_Guitar,6,2,Dl_Nostalgic_2_Guitar,0.9986506104469299,1
61,100,0.1409090909090909,44,0,28,Dl_Nostalgic_2_Guitar,6,2,Dl_Nostalgic_2_Guitar,0.08798135817050934,0
57,100,0.3181818181818182,281,1,28,Dl_Nostalgic_2_Guitar,6,5,Dl_Nostalgic_2_Guitar,0.09298612177371979,0
57,100,0.2409090909090909,387,0,28,Dl_Nostalgic_2_Guitar,6,4,Dl_Nostalgic_2_Guitar,0.10995294153690338,0
61,100,0.1590909090909091,691,1,28,Dl_Nostalgic_2_Guitar,6,3,Dl_Nostalgic_2_Guitar,0.1286771446466446,0
57,100,0.5409090909090909,791,0,28,Dl_Nostalgic_2_Guitar,6,9,Dl_Nostalgic_2_Guitar,0.18222148716449738,0
61,100,0.2409090909090909,123,1,29,Dl_Nostalgic_2_Guitar,6,4,Dl_Nostalgic_2_Guitar,0.9990280866622925,1
52,100,0.11818181818181818,501,1,29,Dl_Nostalgic_2_Guitar,6,2,Dl_Nostalgic_2_Guitar,0.3703487515449524,0
69,100,0.1409090909090909,827,1,29,Dl_Nostalgic_2_Guitar,6,2,Dl_Nostalgic_2_Guitar,0.4561736285686493,0
57,100,0.1409090909090909,167,1,30,Dl_Nostalgic_2_Guitar,6,2,Dl_Nostalgic_2_Guitar,0.9990094900131226,1
57,100,0.2,202,0,30,Dl_Nostalgic_2_Guitar,6,3,Dl_Nostalgic_2_Guitar,0.2332332581281662,0
69,100,0.21818181818181817,418,0,30,Dl_Nostalgic_2_Guitar,6,3,Dl_Nostalgic_2_Guitar,0.2705850601196289,0
57,100,0.1409090909090909,466,0,30,Dl_Nostalgic_2_Guitar,6,2,Dl_Nostalgic_2_Guitar,0.3579321801662445,0
57,100,0.1409090909090909,48,1,31,Dl_Nostalgic_2_Guitar,6,2,Dl_Nostalgic_2_Guitar,0.9990094900131226,1
61,100,0.1409090909090909,532,1,31,Dl_Nostalgic_2_Guitar,6,2,Dl_Nostalgic_2_Guitar,0.23323214054107666,0
61,100,0.17727272727272728,567,0,31,Dl_Nostalgic_2_Guitar,6,3,Dl_Nostalgic_2_Guitar,0.2705834209918976,0
61,100,0.1,646,0,31,Dl_Nostalgic_2_Guitar,6,2,Dl_Nostalgic_2_Guitar,0.3579251766204834,0
69,100,0.21818181818181817,105,1,32,Dl_Nostalgic_2_Guitar,6,3,Dl_Nostalgic_2_Guitar,0.9990094900131226,1
57,100,0.7227272727272728,334,0,32,Dl_Nostalgic_2_Guitar,6,12,Dl_Nostalgic_2_Guitar,0.23324054479599,0
69,100,0.1409090909090909,576,1,32,Dl_Nostalgic_2_Guitar,6,2,Dl_Nostalgic_2_Guitar,0.2706071138381958,0
57,100,1.8227272727272728,651,0,32,Dl_Nostalgic_2_Guitar,6,15,Dl_Nostalgic_2_Guitar,0.3579241931438446,0
69,100,0.18181818181818182,176,1,33,Dl_Nostalgic_2_Guitar,6,3,Dl_Nostalgic_2_Guitar,0.9988439083099365,1
57,100,0.9181818181818182,215,0,33,Dl_Nostalgic_2_Guitar,6,15,Dl_Nostalgic_2_Guitar,0.13798533380031586,0
57,100,0.6227272727272727,509,1,33,Dl_Nostalgic_2_Guitar,6,10,Dl_Nostalgic_2_Guitar,0.16237162053585052,0
57,100,0.33636363636363636,655,0,33,Dl_Nostalgic_2_Guitar,6,5,Dl_Nostalgic_2_Guitar,0.19106343388557434,0
64,100,0.2,765,0,33,Dl_Nostalgic_2_Guitar,6,3,Dl_Nostalgic_2_Guitar,0.2619779706001282,0
61,100,0.11818181818181818,0,1,34,Dl_Nostalgic_2_Guitar,6,2,Dl_Nostalgic_2_Guitar,0.9986506104469299,1
57,100,1.018181818181818,263,1,34,Dl_Nostalgic_2_Guitar,6,15,Dl_Nostalgic_2_Guitar,0.087980255484581,0
54,100,0.2409090909090909,496,1,34,Dl_Nostalgic_2_Guitar,6,4,Dl_Nostalgic_2_Guitar,0.09298587590456009,0
54,100,0.12272727272727273,619,0,34,Dl_Nostalgic_2_Guitar,6,2,Dl_Nostalgic_2_Guitar,0.10994981229305267,0
69,100,0.11818181818181818,756,0,34,Dl_Nostalgic_2_Guitar,6,2,Dl_Nostalgic_2_Guitar,0.1286710947751999,0
54,100,0.2409090909090909,804,0,34,Dl_Nostalgic_2_Guitar,6,4,Dl_Nostalgic_2_Guitar,0.18221700191497803,0
54,100,0.3409090909090909,21,1,35,Dl_Nostalgic_2_Guitar,6,5,Dl_Nostalgic_2_Guitar,0.9983735084533691,1
69,100,0.11818181818181818,348,1,35,Dl_Nostalgic_2_Guitar,6,2,Dl_Nostalgic_2_Guitar,0.051050666719675064,0
54,100,0.42272727272727273,399,0,35,Dl_Nostalgic_2_Guitar,6,7,Dl_Nostalgic_2_Guitar,0.041612908244132996,0
54,100,0.11818181818181818,506,0,35,Dl_Nostalgic_2_Guitar,6,2,Dl_Nostalgic_2_Guitar,0.03797926753759384,0
52,100,0.4,576,0,35,Dl_Nostalgic_2_Guitar,6,6,Dl_Nostalgic_2_Guitar,0.03925957903265953,0
61,100,0.16363636363636364,664,0,35,Dl_Nostalgic_2_Guitar,6,3,Dl_Nostalgic_2_Guitar,0.046163737773895264,0
52,100,0.3409090909090909,729,0,35,Dl_Nostalgic_2_Guitar,6,5,Dl_Nostalgic_2_Guitar,0.05713023617863655,0
52,100,0.2590909090909091,810,0,35,Dl_Nostalgic_2_Guitar,6,4,Dl_Nostalgic_2_Guitar,0.09187790006399155,0
52,100,0.4,8,1,36,Dl_Nostalgic_2_Guitar,6,6,Dl_Nostalgic_2_Guitar,0.9983004927635193,1
61,100,0.21818181818181817,96,0,36,Dl_Nostalgic_2_Guitar,6,3,Dl_Nostalgic_2_Guitar,0.044661566615104675,0
52,100,0.2,185,0,36,Dl_Nostalgic_2_Guitar,6,3,Dl_Nostalgic_2_Guitar,0.033372752368450165,0
52,100,0.3181818181818182,308,0,36,Dl_Nostalgic_2_Guitar,6,5,Dl_Nostalgic_2_Guitar,0.026948966085910797,0
57,100,0.1409090909090909,421,0,36,Dl_Nostalgic_2_Guitar,6,2,Dl_Nostalgic_2_Guitar,0.0240850280970335,0
52,100,0.1409090909090909,619,0,36,Dl_Nostalgic_2_Guitar,6,2,Dl_Nostalgic_2_Guitar,0.024974003434181213,0
61,100,0.13636363636363635,700,0,36,Dl_Nostalgic_2_Guitar,6,2,Dl_Nostalgic_2_Guitar,0.03064858913421631,0
52,100,0.2,778,0,36,Dl_Nostalgic_2_Guitar,6,3,Dl_Nostalgic_2_Guitar,0.04137060046195984,0
52,100,0.17727272727272728,845,0,36,Dl_Nostalgic_2_Guitar,6,3,Dl_Nostalgic_2_Guitar,0.07207096368074417,0
69,100,0.1409090909090909,21,1,37,Dl_Nostalgic_2_Guitar,6,2,Dl_Nostalgic_2_Guitar,0.9983735084533691,1
52,100,0.1409090909090909,185,0,37,Dl_Nostalgic_2_Guitar,6,2,Dl_Nostalgic_2_Guitar,0.05104957893490791,0
59,100,0.2772727272727273,238,0,37,Dl_Nostalgic_2_Guitar,6,4,Dl_Nostalgic_2_Guitar,0.041611045598983765,0
59,100,0.3,348,0,37,Dl_Nostalgic_2_Guitar,6,5,Dl_Nostalgic_2_Guitar,0.03797883540391922,0
52,100,0.2,426,0,37,Dl_Nostalgic_2_Guitar,6,3,Dl_Nostalgic_2_Guitar,0.03925905376672745,0
52,100,0.2,506,0,37,Dl_Nostalgic_2_Guitar,6,3,Dl_Nostalgic_2_Guitar,0.04616419970989227,0
61,100,0.2590909090909091,660,0,37,Dl_Nostalgic_2_Guitar,6,4,Dl_Nostalgic_2_Guitar,0.05713029205799103,0
61,100,0.3181818181818182,823,0,37,Dl_Nostalgic_2_Guitar,6,5,Dl_Nostalgic_2_Guitar,0.09187949448823929,0
61,100,0.2,179,1,38,Dl_Nostalgic_2_Guitar,6,3,Dl_Nostalgic_2_Guitar,0.9983004927635193,1
57,100,0.1,263,0,38,Dl_Nostalgic_2_Guitar,6,2,Dl_Nostalgic_2_Guitar,0.04466305673122406,0
61,100,0.1409090909090909,298,0,38,Dl_Nostalgic_2_Guitar,6,2,Dl_Nostalgic_2_Guitar,0.03337286785244942,0
56,100,0.4,338,0,38,Dl_Nostalgic_2_Guitar,6,6,Dl_Nostalgic_2_Guitar,0.026950156316161156,0
56,100,0.3,431,0,38,Dl_Nostalgic_2_Guitar,6,5,Dl_Nostalgic_2_Guitar,0.024085160344839096,0
59,100,0.11818181818181818,536,0,38,Dl_Nostalgic_2_Guitar,6,2,Dl_Nostalgic_2_Guitar,0.024974822998046875,0
64,100,0.18181818181818182,783,1,38,Dl_Nostalgic_2_Guitar,6,3,Dl_Nostalgic_2_Guitar,0.03064890392124653,0
52,100,0.11818181818181818,831,0,38,Dl_Nostalgic_2_Guitar,6,2,Dl_Nostalgic_2_Guitar,0.041371461004018784,0
57,100,0.8227272727272728,871,0,38,Dl_Nostalgic_2_Guitar,6,13,Dl_Nostalgic_2_Guitar,0.07206981629133224,0
57,100,0.2,246,1,39,Dl_Nostalgic_2_Guitar,6,3,Dl_Nostalgic_2_Guitar,0.9988439083099365,1
57,100,0.11818181818181818,295,0,39,Dl_Nostalgic_2_Guitar,6,2,Dl_Nostalgic_2_Guitar,0.13798931241035461,0
57,100,0.7818181818181819,364,0,39,Dl_Nostalgic_2_Guitar,6,13,Dl_Nostalgic_2_Guitar,0.16237452626228333,0
61,100,0.17727272727272728,611,1,39,Dl_Nostalgic_2_Guitar,6,3,Dl_Nostalgic_2_Guitar,0.19106850028038025,0
57,100,1.040909090909091,664,0,39,Dl_Nostalgic_2_Guitar,6,15,Dl_Nostalgic_2_Guitar,0.26197418570518494,0
61,100,0.21818181818181817,118,1,40,Dl_Nostalgic_2_Guitar,6,3,Dl_Nostalgic_2_Guitar,0.9986506104469299,1
61,100,0.41818181818181815,418,1,40,Dl_Nostalgic_2_Guitar,6,7,Dl_Nostalgic_2_Guitar,0.08798246830701828,0
56,100,0.6,515,0,40,Dl_Nostalgic_2_Guitar,6,10,Dl_Nostalgic_2_Guitar,0.09298589080572128,0
64,100,0.1409090909090909,686,0,40,Dl_Nostalgic_2_Guitar,6,2,Dl_Nostalgic_2_Guitar,0.10995393246412277,0
57,100,0.2,748,0,40,Dl_Nostalgic_2_Guitar,6,3,Dl_Nostalgic_2_Guitar,0.12867195904254913,0
64,100,0.5,796,0,40,Dl_Nostalgic_2_Guitar,6,8,Dl_Nostalgic_2_Guitar,0.18222931027412415,0
57,100,0.2590909090909091,131,1,41,Dl_Nostalgic_2_Guitar,6,4,Dl_Nostalgic_2_Guitar,0.9990094900131226,1
57,100,0.1590909090909091,506,1,41,Dl_Nostalgic_2_Guitar,6,3,Dl_Nostalgic_2_Guitar,0.2332354038953781,0
57,100,1.0,598,0,41,Dl_Nostalgic_2_Guitar,6,15,Dl_Nostalgic_2_Guitar,0.27058565616607666,0
61,100,0.12272727272727273,839,1,41,Dl_Nostalgic_2_Guitar,6,2,Dl_Nostalgic_2_Guitar,0.35792431235313416,0
57,100,0.23636363636363636,40,1,42,Dl_Nostalgic_2_Guitar,6,4,Dl_Nostalgic_2_Guitar,0.9988439083099365,1
62,100,0.35909090909090907,330,1,42,Dl_Nostalgic_2_Guitar,6,6,Dl_Nostalgic_2_Guitar,0.1379842311143875,0
62,100,0.38181818181818183,571,1,42,Dl_Nostalgic_2_Guitar,6,6,Dl_Nostalgic_2_Guitar,0.1623677760362625,0
59,100,0.36363636363636365,664,0,42,Dl_Nostalgic_2_Guitar,6,6,Dl_Nostalgic_2_Guitar,0.19106946885585785,0
64,100,0.11818181818181818,858,0,42,Dl_Nostalgic_2_Guitar,6,2,Dl_Nostalgic_2_Guitar,0.2619762718677521,0
57,100,0.9227272727272727,254,1,43,Dl_Nostalgic_2_Guitar,6,15,Dl_Nostalgic_2_Guitar,0.9990094900131226,1
57,100,0.2,506,1,43,Dl_Nostalgic_2_Guitar,6,3,Dl_Nostalgic_2_Guitar,0.23323389887809753,0
58,100,0.740909090909091,651,0,43,Dl_Nostalgic_2_Guitar,6,12,Dl_Nostalgic_2_Guitar,0.27058497071266174,0
58,100,0.37727272727272726,875,0,43,Dl_Nostalgic_2_Guitar,6,6,Dl_Nostalgic_2_Guitar,0.3579227924346924,0
54,100,0.12272727272727273,364,1,44,Dl_Nostalgic_2_Guitar,6,2,Dl_Nostalgic_2_Guitar,0.9990094900131226,1
57,100,0.2590909090909091,625,1,44,Dl_Nostalgic_2_Guitar,6,4,Dl_Nostalgic_2_Guitar,0.23322945833206177,0
57,100,0.2590909090909091,756,0,44,Dl_Nostalgic_2_Guitar,6,4,Dl_Nostalgic_2_Guitar,0.27058544754981995,0
59,100,0.21818181818181817,823,0,44,Dl_Nostalgic_2_Guitar,6,3,Dl_Nostalgic_2_Guitar,0.3579303026199341,0
52,100,0.35909090909090907,298,1,45,Dl_Nostalgic_2_Guitar,6,6,Dl_Nostalgic_2_Guitar,0.9990094900131226,1
61,100,1.1,418,0,45,Dl_Nostalgic_2_Guitar,6,15,Dl_Nostalgic_2_Guitar,0.23322637379169464,0
52,100,0.1409090909090909,716,1,45,Dl_Nostalgic_2_Guitar,6,2,Dl_Nostalgic_2_Guitar,0.27058351039886475,0
61,100,0.2590909090909091,813,0,45,Dl_Nostalgic_2_Guitar,6,4,Dl_Nostalgic_2_Guitar,0.35792988538742065,0
61,100,0.2409090909090909,166,1,46,Dl_Nostalgic_2_Guitar,6,4,Dl_Nostalgic_2_Guitar,0.9988439083099365,1
61,100,0.1,496,1,46,Dl_Nostalgic_2_Guitar,6,2,Dl_Nostalgic_2_Guitar,0.13797912001609802,0
61,100,0.4,523,0,46,Dl_Nostalgic_2_Guitar,6,6,Dl_Nostalgic_2_Guitar,0.16235999763011932,0
61,100,0.17727272727272728,655,0,46,Dl_Nostalgic_2_Guitar,6,3,Dl_Nostalgic_2_Guitar,0.19105394184589386,0
62,100,0.41818181818181815,813,0,46,Dl_Nostalgic_2_Guitar,6,7,Dl_Nostalgic_2_Guitar,0.26196664571762085,0
61,100,0.32272727272727275,26,1,47,Dl_Nostalgic_2_Guitar,6,5,Dl_Nostalgic_2_Guitar,0.9986506104469299,1
56,100,0.9,110,0,47,Dl_Nostalgic_2_Guitar,6,14,Dl_Nostalgic_2_Guitar,0.08798019587993622,0
52,100,0.1590909090909091,528,1,47,Dl_Nostalgic_2_Guitar,6,3,Dl_Nostalgic_2_Guitar,0.09298606961965561,0
52,100,0.11818181818181818,568,0,47,Dl_Nostalgic_2_Guitar,6,2,Dl_Nostalgic_2_Guitar,0.10995229333639145,0
57,100,0.11818181818181818,625,0,47,Dl_Nostalgic_2_Guitar,6,2,Dl_Nostalgic_2_Guitar,0.12867490947246552,0
57,100,0.4,678,0,47,Dl_Nostalgic_2_Guitar,6,6,Dl_Nostalgic_2_Guitar,0.18221938610076904,0
57,100,0.3,31,1,48,Dl_Nostalgic_2_Guitar,6,5,Dl_Nostalgic_2_Guitar,0.9988439083099365,1
57,100,0.6590909090909091,101,0,48,Dl_Nostalgic_2_Guitar,6,11,Dl_Nostalgic_2_Guitar,0.1379893571138382,0
57,100,0.8590909090909091,343,1,48,Dl_Nostalgic_2_Guitar,6,14,Dl_Nostalgic_2_Guitar,0.16237066686153412,0
61,100,1.0,646,1,48,Dl_Nostalgic_2_Guitar,6,15,Dl_Nostalgic_2_Guitar,0.19105835258960724,0
61,100,0.12272727272727273,871,0,48,Dl_Nostalgic_2_Guitar,6,2,Dl_Nostalgic_2_Guitar,0.2619730234146118,0
61,100,0.1409090909090909,53,1,49,Dl_Nostalgic_2_Guitar,6,2,Dl_Nostalgic_2_Guitar,0.9984879493713379,1
62,100,0.1409090909090909,179,0,49,Dl_Nostalgic_2_Guitar,6,2,Dl_Nostalgic_2_Guitar,0.06335526704788208,0
62,100,0.1,215,0,49,Dl_Nostalgic_2_Guitar,6,2,Dl_Nostalgic_2_Guitar,0.05829288810491562,0
56,100,0.32272727272727275,268,0,49,Dl_Nostalgic_2_Guitar,6,5,Dl_Nostalgic_2_Guitar,0.061366282403469086,0
59,100,1.1409090909090909,383,0,49,Dl_Nostalgic_2_Guitar,6,15,Dl_Nostalgic_2_Guitar,0.07168781012296677,0
52,100,0.18181818181818182,694,1,49,Dl_Nostalgic_2_Guitar,6,3,Dl_Nostalgic_2_Guitar,0.08474509418010712,0
61,100,1.1227272727272728,738,0,49,Dl_Nostalgic_2_Guitar,6,15,Dl_Nostalgic_2_Guitar,0.12635226547718048,0
57,100,0.1590909090909091,123,1,50,Dl_Nostalgic_2_Guitar,6,3,Dl_Nostalgic_2_Guitar,0.9988439083099365,1
61,100,0.2409090909090909,268,0,50,Dl_Nostalgic_2_Guitar,6,4,Dl_Nostalgic_2_Guitar,0.13798470795154572,0
57,100,0.5181818181818182,325,0,50,Dl_Nostalgic_2_Guitar,6,8,Dl_Nostalgic_2_Guitar,0.16236145794391632,0
52,100,0.17727272727272728,448,0,50,Dl_Nostalgic_2_Guitar,6,3,Dl_Nostalgic_2_Guitar,0.1910603940486908,0
52,100,0.11818181818181818,743,1,50,Dl_Nostalgic_2_Guitar,6,2,Dl_Nostalgic_2_Guitar,0.2619689702987671,0
62,100,0.3,144,1,51,Dl_Nostalgic_2_Guitar,6,5,Dl_Nostalgic_2_Guitar,0.9988439083099365,1
62,100,0.1590909090909091,316,0,51,Dl_Nostalgic_2_Guitar,6,3,Dl_Nostalgic_2_Guitar,0.1379871368408203,0
56,100,0.4,483,0,51,Dl_Nostalgic_2_Guitar,6,6,Dl_Nostalgic_2_Guitar,0.1623719483613968,0
64,100,0.12272727272727273,686,0,51,Dl_Nostalgic_2_Guitar,6,2,Dl_Nostalgic_2_Guitar,0.19107067584991455,0
61,100,0.22272727272727272,839,0,51,Dl_Nostalgic_2_Guitar,6,4,Dl_Nostalgic_2_Guitar,0.26197195053100586,0
57,100,0.11818181818181818,31,1,52,Dl_Nostalgic_2_Guitar,6,2,Dl_Nostalgic_2_Guitar,0.9986506104469299,1
57,100,0.13636363636363635,61,0,52,Dl_Nostalgic_2_Guitar,6,2,Dl_Nostalgic_2_Guitar,0.08798115700483322,0
57,100,0.5227272727272727,123,0,52,Dl_Nostalgic_2_Guitar,6,8,Dl_Nostalgic_2_Guitar,0.09298434853553772,0
61,100,0.37727272727272726,238,0,52,Dl_Nostalgic_2_Guitar,6,6,Dl_Nostalgic_2_Guitar,0.10995003581047058,0
61,100,0.36363636363636365,421,0,52,Dl_Nostalgic_2_Guitar,6,6,Dl_Nostalgic_2_Guitar,0.12867264449596405,0
61,100,0.41818181818181815,545,0,52,Dl_Nostalgic_2_Guitar,6,7,Dl_Nostalgic_2_Guitar,0.18221759796142578,0
57,100,0.1409090909090909,13,1,53,Dl_Nostalgic_2_Guitar,6,2,Dl_Nostalgic_2_Guitar,0.9983735084533691,1
61,100,0.1,43,0,53,Dl_Nostalgic_2_Guitar,6,2,Dl_Nostalgic_2_Guitar,0.051050249487161636,0
54,100,0.35909090909090907,101,0,53,Dl_Nostalgic_2_Guitar,6,6,Dl_Nostalgic_2_Guitar,0.0416126623749733,0
57,100,0.1409090909090909,220,0,53,Dl_Nostalgic_2_Guitar,6,2,Dl_Nostalgic_2_Guitar,0.03797976300120354,0
57,100,0.1,276,0,53,Dl_Nostalgic_2_Guitar,6,2,Dl_Nostalgic_2_Guitar,0.03926164656877518,0
57,100,0.1409090909090909,506,0,53,Dl_Nostalgic_2_Guitar,6,2,Dl_Nostalgic_2_Guitar,0.04616806283593178,0
56,100,0.11818181818181818,590,0,53,Dl_Nostalgic_2_Guitar,6,2,Dl_Nostalgic_2_Guitar,0.057135146111249924,0
56,100,0.8409090909090909,619,0,53,Dl_Nostalgic_2_Guitar,6,13,Dl_Nostalgic_2_Guitar,0.09188061952590942,0
61,100,0.2590909090909091,96,1,54,Dl_Nostalgic_2_Guitar,6,4,Dl_Nostalgic_2_Guitar,0.9990094900131226,1
57,100,0.5590909090909091,163,0,54,Dl_Nostalgic_2_Guitar,6,9,Dl_Nostalgic_2_Guitar,0.23323872685432434,0
57,100,0.3,480,1,54,Dl_Nostalgic_2_Guitar,6,5,Dl_Nostalgic_2_Guitar,0.2705983519554138,0
57,100,1.0,584,0,54,Dl_Nostalgic_2_Guitar,6,15,Dl_Nostalgic_2_Guitar,0.35794082283973694,0
57,100,0.21818181818181817,40,1,55,Dl_Nostalgic_2_Guitar,6,3,Dl_Nostalgic_2_Guitar,0.9983232617378235,1
52,100,0.13636363636363635,875,1,55,Dl_Nostalgic_2_Guitar,6,2,Dl_Nostalgic_2_Guitar,0.5462203621864319,1
52,100,0.6,31,1,56,Dl_Nostalgic_2_Guitar,6,10,Dl_Nostalgic_2_Guitar,0.9988439083099365,1
52,100,0.4818181818181818,188,0,56,Dl_Nostalgic_2_Guitar,6,8,Dl_Nostalgic_2_Guitar,0.13798552751541138,0
61,100,0.5363636363636364,325,0,56,Dl_Nostalgic_2_Guitar,6,9,Dl_Nostalgic_2_Guitar,0.16236275434494019,0
61,100,0.1590909090909091,448,0,56,Dl_Nostalgic_2_Guitar,6,3,Dl_Nostalgic_2_Guitar,0.1910615861415863,0
61,100,0.9590909090909091,866,1,56,Dl_Nostalgic_2_Guitar,6,15,Dl_Nostalgic_2_Guitar,0.2619670033454895,0
61,100,0.2,211,1,57,Dl_Nostalgic_2_Guitar,6,3,Dl_Nostalgic_2_Guitar,0.9990094900131226,1
64,100,0.21818181818181817,273,0,57,Dl_Nostalgic_2_Guitar,6,3,Dl_Nostalgic_2_Guitar,0.23323410749435425,0
61,100,0.2590909090909091,321,0,57,Dl_Nostalgic_2_Guitar,6,4,Dl_Nostalgic_2_Guitar,0.27058279514312744,0
62,100,0.1409090909090909,848,1,57,Dl_Nostalgic_2_Guitar,6,2,Dl_Nostalgic_2_Guitar,0.35793477296829224,0
52,100,0.32272727272727275,188,1,58,Dl_Nostalgic_2_Guitar,6,5,Dl_Nostalgic_2_Guitar,0.9990280866622925,1
52,100,0.5590909090909091,386,0,58,Dl_Nostalgic_2_Guitar,6,9,Dl_Nostalgic_2_Guitar,0.37035176157951355,0
57,100,1.540909090909091,515,0,58,Dl_Nostalgic_2_Guitar,6,15,Dl_Nostalgic_2_Guitar,0.456168532371521,0
57,100,0.3181818181818182,21,1,59,Dl_Nostalgic_2_Guitar,6,5,Dl_Nostalgic_2_Guitar,0.9990094900131226,1
61,100,0.6181818181818182,96,0,59,Dl_Nostalgic_2_Guitar,6,10,Dl_Nostalgic_2_Guitar,0.23322570323944092,0
52,100,0.1409090909090909,431,1,59,Dl_Nostalgic_2_Guitar,6,2,Dl_Nostalgic_2_Guitar,0.27058807015419006,0
61,100,0.2,506,0,59,Dl_Nostalgic_2_Guitar,6,3,Dl_Nostalgic_2_Guitar,0.3579236567020416,0
62,100,0.18181818181818182,91,1,60,Dl_Nostalgic_2_Guitar,6,3,Dl_Nostalgic_2_Guitar,0.9986506104469299,1
56,100,0.4409090909090909,166,0,60,Dl_Nostalgic_2_Guitar,6,7,Dl_Nostalgic_2_Guitar,0.0879792720079422,0
56,100,0.1409090909090909,273,0,60,Dl_Nostalgic_2_Guitar,6,2,Dl_Nostalgic_2_Guitar,0.09298675507307053,0
56,100,0.3181818181818182,308,0,60,Dl_Nostalgic_2_Guitar,6,5,Dl_Nostalgic_2_Guitar,0.10994883626699448,0
59,100,0.9409090909090909,638,1,60,Dl_Nostalgic_2_Guitar,6,15,Dl_Nostalgic_2_Guitar,0.12866981327533722,0
59,100,0.11818181818181818,866,0,60,Dl_Nostalgic_2_Guitar,6,2,Dl_Nostalgic_2_Guitar,0.1822177618741989,0
61,100,0.5,105,1,61,Dl_Nostalgic_2_Guitar,6,8,Dl_Nostalgic_2_Guitar,0.9988439083099365,1
61,100,0.3409090909090909,251,0,61,Dl_Nostalgic_2_Guitar,6,5,Dl_Nostalgic_2_Guitar,0.13798591494560242,0
61,100,0.11818181818181818,536,1,61,Dl_Nostalgic_2_Guitar,6,2,Dl_Nostalgic_2_Guitar,0.16236940026283264,0
57,100,0.12272727272727273,686,0,61,Dl_Nostalgic_2_Guitar,6,2,Dl_Nostalgic_2_Guitar,0.19106073677539825,0
62,100,1.5818181818181818,729,0,61,Dl_Nostalgic_2_Guitar,6,15,Dl_Nostalgic_2_Guitar,0.26197516918182373,0
62,100,0.4409090909090909,220,1,62,Dl_Nostalgic_2_Guitar,6,7,Dl_Nostalgic_2_Guitar,0.9990280866622925,1
52,100,1.1772727272727272,338,0,62,Dl_Nostalgic_2_Guitar,6,15,Dl_Nostalgic_2_Guitar,0.3703467845916748,0
64,100,0.42272727272727273,804,1,62,Dl_Nostalgic_2_Guitar,6,7,Dl_Nostalgic_2_Guitar,0.45617982745170593,0
59,100,0.3,96,1,63,Dl_Nostalgic_2_Guitar,6,5,Dl_Nostalgic_2_Guitar,0.9990280866622925,1
52,100,0.4409090909090909,201,0,63,Dl_Nostalgic_2_Guitar,6,7,Dl_Nostalgic_2_Guitar,0.3703436851501465,0
52,100,0.43636363636363634,303,0,63,Dl_Nostalgic_2_Guitar,6,7,Dl_Nostalgic_2_Guitar,0.45616644620895386,0
68,100,0.2,153,1,64,Dl_Nostalgic_2_Guitar,6,3,Dl_Nostalgic_2_Guitar,0.9983231425285339,1
59,100,0.21818181818181817,546,1,64,Dl_Nostalgic_2_Guitar,6,3,Dl_Nostalgic_2_Guitar,0.5462164878845215,1
61,100,0.22272727272727272,377,1,65,Dl_Nostalgic_2_Guitar,6,4,Dl_Nostalgic_2_Guitar,0.9983231425285339,1
56,100,1.0,585,0,65,Dl_Nostalgic_2_Guitar,6,15,Dl_Nostalgic_2_Guitar,0.546207070350647,1
68,100,0.35909090909090907,87,1,66,Dl_Nostalgic_2_Guitar,6,6,Dl_Nostalgic_2_Guitar,0.9983004927635193,1
61,100,0.1409090909090909,202,0,66,Dl_Nostalgic_2_Guitar,6,2,Dl_Nostalgic_2_Guitar,0.04466165974736214,0
64,100,0.41818181818181815,260,0,66,Dl_Nostalgic_2_Guitar,6,7,Dl_Nostalgic_2_Guitar,0.03337150812149048,0
61,100,0.35909090909090907,352,0,66,Dl_Nostalgic_2_Guitar,6,6,Dl_Nostalgic_2_Guitar,0.02694724127650261,0
57,100,0.12272727272727273,443,0,66,Dl_Nostalgic_2_Guitar,6,2,Dl_Nostalgic_2_Guitar,0.024084681645035744,0
61,100,0.11818181818181818,590,0,66,Dl_Nostalgic_2_Guitar,6,2,Dl_Nostalgic_2_Guitar,0.024972056970000267,0
64,100,0.1,673,0,66,Dl_Nostalgic_2_Guitar,6,2,Dl_Nostalgic_2_Guitar,0.03064803034067154,0
59,100,0.21818181818181817,722,0,66,Dl_Nostalgic_2_Guitar,6,3,Dl_Nostalgic_2_Guitar,0.04136945307254791,0
61,100,0.5409090909090909,817,0,66,Dl_Nostalgic_2_Guitar,6,9,Dl_Nostalgic_2_Guitar,0.0720670074224472,0
62,100,0.7181818181818181,567,1,67,Dl_Nostalgic_2_Guitar,6,11,Dl_Nostalgic_2_Guitar,0.9983232617378235,1
56,100,0.9590909090909091,726,0,67,Dl_Nostalgic_2_Guitar,6,15,Dl_Nostalgic_2_Guitar,0.5462121963500977,1
68,100,0.18181818181818182,92,1,68,Dl_Nostalgic_2_Guitar,6,3,Dl_Nostalgic_2_Guitar,0.9982282519340515,1
59,100,0.12272727272727273,136,0,68,Dl_Nostalgic_2_Guitar,6,2,Dl_Nostalgic_2_Guitar,0.0394030325114727,0
68,100,0.1590909090909091,197,0,68,Dl_Nostalgic_2_Guitar,6,3,Dl_Nostalgic_2_Guitar,0.026854734867811203,0
52,100,0.12272727272727273,255,0,68,Dl_Nostalgic_2_Guitar,6,2,Dl_Nostalgic_2_Guitar,0.01883169449865818,0
52,100,0.1,294,0,68,Dl_Nostalgic_2_Guitar,6,2,Dl_Nostalgic_2_Guitar,0.013654547743499279,0
64,100,0.1,316,0,68,Dl_Nostalgic_2_Guitar,6,2,Dl_Nostalgic_2_Guitar,0.010813428089022636,0
61,100,0.22272727272727272,343,0,68,Dl_Nostalgic_2_Guitar,6,4,Dl_Nostalgic_2_Guitar,0.010073564015328884,0
61,100,0.21818181818181817,457,0,68,Dl_Nostalgic_2_Guitar,6,3,Dl_Nostalgic_2_Guitar,0.011716761626303196,0
61,100,0.2409090909090909,509,0,68,Dl_Nostalgic_2_Guitar,6,4,Dl_Nostalgic_2_Guitar,0.016992174088954926,0
61,100,0.12272727272727273,576,0,68,Dl_Nostalgic_2_Guitar,6,2,Dl_Nostalgic_2_Guitar,0.02757926844060421,0
57,100,0.7,792,0,68,Dl_Nostalgic_2_Guitar,6,11,Dl_Nostalgic_2_Guitar,0.05459165573120117,0
57,100,0.13636363636363635,83,1,69,Dl_Nostalgic_2_Guitar,6,2,Dl_Nostalgic_2_Guitar,0.9990280866622925,1
57,100,0.17727272727272728,119,0,69,Dl_Nostalgic_2_Guitar,6,3,Dl_Nostalgic_2_Guitar,0.3703438639640808,0
57,100,0.2,650,1,69,Dl_Nostalgic_2_Guitar,6,3,Dl_Nostalgic_2_Guitar,0.4561721384525299,0
68,100,0.1409090909090909,267,1,70,Dl_Nostalgic_2_Guitar,6,2,Dl_Nostalgic_2_Guitar,0.9986506104469299,1
52,100,0.21818181818181817,440,0,70,Dl_Nostalgic_2_Guitar,6,3,Dl_Nostalgic_2_Guitar,0.08798282593488693,0
61,100,1.1,502,0,70,Dl_Nostalgic_2_Guitar,6,15,Dl_Nostalgic_2_Guitar,0.09298285841941833,0
61,100,0.1409090909090909,770,1,70,Dl_Nostalgic_2_Guitar,6,2,Dl_Nostalgic_2_Guitar,0.10995222628116608,0
61,100,0.1590909090909091,805,0,70,Dl_Nostalgic_2_Guitar,6,3,Dl_Nostalgic_2_Guitar,0.12867406010627747,0
61,100,0.1409090909090909,844,0,70,Dl_Nostalgic_2_Guitar,6,2,Dl_Nostalgic_2_Guitar,0.1822180598974228,0
61,100,0.4590909090909091,87,1,71,Dl_Nostalgic_2_Guitar,6,7,Dl_Nostalgic_2_Guitar,0.9988439083099365,1
57,100,0.5409090909090909,210,0,71,Dl_Nostalgic_2_Guitar,6,9,Dl_Nostalgic_2_Guitar,0.1379856914281845,0
61,100,0.7,413,0,71,Dl_Nostalgic_2_Guitar,6,11,Dl_Nostalgic_2_Guitar,0.1623646318912506,0
62,100,0.2818181818181818,619,0,71,Dl_Nostalgic_2_Guitar,6,5,Dl_Nostalgic_2_Guitar,0.19105897843837738,0
62,100,0.1,787,0,71,Dl_Nostalgic_2_Guitar,6,2,Dl_Nostalgic_2_Guitar,0.26197245717048645,0
62,100,0.12272727272727273,56,1,72,Dl_Nostalgic_2_Guitar,6,2,Dl_Nostalgic_2_Guitar,0.9988439083099365,1
52,100,0.12272727272727273,166,0,72,Dl_Nostalgic_2_Guitar,6,2,Dl_Nostalgic_2_Guitar,0.13798677921295166,0
59,100,0.3181818181818182,347,0,72,Dl_Nostalgic_2_Guitar,6,5,Dl_Nostalgic_2_Guitar,0.16237014532089233,0
56,100,0.1,483,0,72,Dl_Nostalgic_2_Guitar,6,2,Dl_Nostalgic_2_Guitar,0.19106467068195343,0
57,100,0.11818181818181818,656,0,72,Dl_Nostalgic_2_Guitar,6,2,Dl_Nostalgic_2_Guitar,0.2619746923446655,0
59,100,0.17727272727272728,216,1,73,Dl_Nostalgic_2_Guitar,6,3,Dl_Nostalgic_2_Guitar,0.9986506104469299,1
61,100,0.8772727272727273,260,0,73,Dl_Nostalgic_2_Guitar,6,14,Dl_Nostalgic_2_Guitar,0.08797980099916458,0
61,100,0.18181818181818182,466,0,73,Dl_Nostalgic_2_Guitar,6,3,Dl_Nostalgic_2_Guitar,0.09298985451459885,0
57,100,0.4818181818181818,553,0,73,Dl_Nostalgic_2_Guitar,6,8,Dl_Nostalgic_2_Guitar,0.1099538654088974,0
64,100,0.1409090909090909,703,0,73,Dl_Nostalgic_2_Guitar,6,2,Dl_Nostalgic_2_Guitar,0.12868034839630127,0
61,100,0.5590909090909091,743,0,73,Dl_Nostalgic_2_Guitar,6,9,Dl_Nostalgic_2_Guitar,0.18222635984420776,0
57,100,0.11818181818181818,119,1,74,Dl_Nostalgic_2_Guitar,6,2,Dl_Nostalgic_2_Guitar,0.9986506104469299,1
61,100,0.7181818181818181,163,0,74,Dl_Nostalgic_2_Guitar,6,11,Dl_Nostalgic_2_Guitar,0.087980717420578,0
68,100,0.42272727272727273,343,0,74,Dl_Nostalgic_2_Guitar,6,7,Dl_Nostalgic_2_Guitar,0.09298668056726456,0
68,100,0.1,580,1,74,Dl_Nostalgic_2_Guitar,6,2,Dl_Nostalgic_2_Guitar,0.10995163768529892,0
59,100,0.2409090909090909,752,0,74,Dl_Nostalgic_2_Guitar,6,4,Dl_Nostalgic_2_Guitar,0.12867122888565063,0
57,100,0.3,832,0,74,Dl_Nostalgic_2_Guitar,6,5,Dl_Nostalgic_2_Guitar,0.18221715092658997,0
61,100,0.38181818181818183,87,1,75,Dl_Nostalgic_2_Guitar,6,6,Dl_Nostalgic_2_Guitar,0.9988439083099365,1
57,100,0.2818181818181818,286,0,75,Dl_Nostalgic_2_Guitar,6,5,Dl_Nostalgic_2_Guitar,0.13798175752162933,0
59,100,0.5590909090909091,370,0,75,Dl_Nostalgic_2_Guitar,6,9,Dl_Nostalgic_2_Guitar,0.16236694157123566,0
57,100,0.2772727272727273,502,0,75,Dl_Nostalgic_2_Guitar,6,4,Dl_Nostalgic_2_Guitar,0.19105583429336548,0
59,100,0.9,677,0,75,Dl_Nostalgic_2_Guitar,6,14,Dl_Nostalgic_2_Guitar,0.26197198033332825,0
61,100,1.0636363636363637,3,1,76,Dl_Nostalgic_2_Guitar,6,15,Dl_Nostalgic_2_Guitar,0.9986506104469299,1
61,100,0.9409090909090909,276,1,76,Dl_Nostalgic_2_Guitar,6,15,Dl_Nostalgic_2_Guitar,0.08798043429851532,0
56,100,0.2590909090909091,493,0,76,Dl_Nostalgic_2_Guitar,6,4,Dl_Nostalgic_2_Guitar,0.09298490732908249,0
52,100,0.2,603,0,76,Dl_Nostalgic_2_Guitar,6,3,Dl_Nostalgic_2_Guitar,0.10995098203420639,0
52,100,0.11818181818181818,660,0,76,Dl_Nostalgic_2_Guitar,6,2,Dl_Nostalgic_2_Guitar,0.12867742776870728,0
56,100,0.6181818181818182,779,0,76,Dl_Nostalgic_2_Guitar,6,10,Dl_Nostalgic_2_Guitar,0.18221768736839294,0
61,100,0.7181818181818181,110,1,77,Dl_Nostalgic_2_Guitar,6,11,Dl_Nostalgic_2_Guitar,0.9990094900131226,1
61,100,0.4,399,1,77,Dl_Nostalgic_2_Guitar,6,6,Dl_Nostalgic_2_Guitar,0.2332351952791214,0
57,100,0.4,493,0,77,Dl_Nostalgic_2_Guitar,6,6,Dl_Nostalgic_2_Guitar,0.2705857753753662,0
57,100,0.37727272727272726,656,0,77,Dl_Nostalgic_2_Guitar,6,6,Dl_Nostalgic_2_Guitar,0.35793355107307434,0
57,100,0.41818181818181815,184,1,78,Dl_Nostalgic_2_Guitar,6,7,Dl_Nostalgic_2_Guitar,0.9990280866622925,1
57,100,0.1409090909090909,440,1,78,Dl_Nostalgic_2_Guitar,6,2,Dl_Nostalgic_2_Guitar,0.37034139037132263,0
52,100,0.1,796,1,78,Dl_Nostalgic_2_Guitar,6,2,Dl_Nostalgic_2_Guitar,0.4561787545681,0
59,100,0.16363636363636364,69,1,79,Dl_Nostalgic_2_Guitar,6,3,Dl_Nostalgic_2_Guitar,0.9984879493713379,1
56,100,0.38181818181818183,145,0,79,Dl_Nostalgic_2_Guitar,6,6,Dl_Nostalgic_2_Guitar,0.06335145980119705,0
61,100,0.759090909090909,263,0,79,Dl_Nostalgic_2_Guitar,6,12,Dl_Nostalgic_2_Guitar,0.058287762105464935,0
61,100,0.21818181818181817,436,0,79,Dl_Nostalgic_2_Guitar,6,3,Dl_Nostalgic_2_Guitar,0.06136023625731468,0
61,100,0.5409090909090909,506,0,79,Dl_Nostalgic_2_Guitar,6,9,Dl_Nostalgic_2_Guitar,0.0716794803738594,0
61,100,0.5181818181818182,633,0,79,Dl_Nostalgic_2_Guitar,6,8,Dl_Nostalgic_2_Guitar,0.08473346382379532,0
54,100,0.4818181818181818,747,0,79,Dl_Nostalgic_2_Guitar,6,8,Dl_Nostalgic_2_Guitar,0.12634767591953278,0
62,100,0.8,333,1,80,Dl_Nostalgic_2_Guitar,6,13,Dl_Nostalgic_2_Guitar,0.9988439083099365,1
62,100,0.5590909090909091,563,0,80,Dl_Nostalgic_2_Guitar,6,9,Dl_Nostalgic_2_Guitar,0.13798323273658752,0
59,100,0.1409090909090909,734,0,80,Dl_Nostalgic_2_Guitar,6,2,Dl_Nostalgic_2_Guitar,0.16236817836761475,0
59,100,0.1590909090909091,770,0,80,Dl_Nostalgic_2_Guitar,6,3,Dl_Nostalgic_2_Guitar,0.19106391072273254,0
68,100,0.4409090909090909,817,0,80,Dl_Nostalgic_2_Guitar,6,7,Dl_Nostalgic_2_Guitar,0.2619614005088806,0
68,100,0.41818181818181815,193,1,81,Dl_Nostalgic_2_Guitar,6,7,Dl_Nostalgic_2_Guitar,0.9986506104469299,1
64,100,0.2409090909090909,343,0,81,Dl_Nostalgic_2_Guitar,6,4,Dl_Nostalgic_2_Guitar,0.08797915279865265,0
61,100,0.2818181818181818,396,0,81,Dl_Nostalgic_2_Guitar,6,5,Dl_Nostalgic_2_Guitar,0.0929827094078064,0
61,100,0.33636363636363636,502,0,81,Dl_Nostalgic_2_Guitar,6,5,Dl_Nostalgic_2_Guitar,0.10994771867990494,0
57,100,0.11818181818181818,669,0,81,Dl_Nostalgic_2_Guitar,6,2,Dl_Nostalgic_2_Guitar,0.12867137789726257,0
57,100,0.41818181818181815,713,0,81,Dl_Nostalgic_2_Guitar,6,7,Dl_Nostalgic_2_Guitar,0.1822199821472168,0
57,100,0.2,202,1,82,Dl_Nostalgic_2_Guitar,6,3,Dl_Nostalgic_2_Guitar,0.9990280866622925,1
59,100,1.240909090909091,255,0,82,Dl_Nostalgic_2_Guitar,6,15,Dl_Nostalgic_2_Guitar,0.37034106254577637,0
73,100,0.1409090909090909,559,1,82,Dl_Nostalgic_2_Guitar,6,2,Dl_Nostalgic_2_Guitar,0.4561613202095032,0
58,100,0.33636363636363636,876,1,0,DL_MelancholicFolk_Guitar,6,5,DL_MelancholicFolk_Guitar,0.9792245030403137,1
58,100,0.21818181818181817,325,1,1,DL_MelancholicFolk_Guitar,6,3,DL_MelancholicFolk_Guitar,0.9983232617378235,1
65,100,0.5409090909090909,669,1,1,DL_MelancholicFolk_Guitar,6,9,DL_MelancholicFolk_Guitar,0.5462156534194946,1
58,100,0.17727272727272728,39,1,2,DL_MelancholicFolk_Guitar,6,3,DL_MelancholicFolk_Guitar,0.9983735084533691,1
60,100,0.4590909090909091,83,0,2,DL_MelancholicFolk_Guitar,6,7,DL_MelancholicFolk_Guitar,0.05104995146393776,0
60,100,0.1590909090909091,232,0,2,DL_MelancholicFolk_Guitar,6,3,DL_MelancholicFolk_Guitar,0.041611917316913605,0
60,100,0.740909090909091,382,0,2,DL_MelancholicFolk_Guitar,6,12,DL_MelancholicFolk_Guitar,0.037978265434503555,0
63,100,0.1409090909090909,550,0,2,DL_MelancholicFolk_Guitar,6,2,DL_MelancholicFolk_Guitar,0.039258137345314026,0
60,100,0.2409090909090909,638,0,2,DL_MelancholicFolk_Guitar,6,4,DL_MelancholicFolk_Guitar,0.046165648847818375,0
60,100,0.12272727272727273,773,0,2,DL_MelancholicFolk_Guitar,6,2,DL_MelancholicFolk_Guitar,0.057131294161081314,0
60,100,0.2818181818181818,818,0,2,DL_MelancholicFolk_Guitar,6,5,DL_MelancholicFolk_Guitar,0.09188060462474823,0
60,100,0.5409090909090909,30,1,3,DL_MelancholicFolk_Guitar,6,9,DL_MelancholicFolk_Guitar,0.9990094900131226,1
60,100,0.21818181818181817,216,0,3,DL_MelancholicFolk_Guitar,6,3,DL_MelancholicFolk_Guitar,0.23324128985404968,0
63,100,0.2,268,0,3,DL_MelancholicFolk_Guitar,6,3,DL_MelancholicFolk_Guitar,0.27058786153793335,0
56,100,1.3409090909090908,553,1,3,DL_MelancholicFolk_Guitar,6,15,DL_MelancholicFolk_Guitar,0.35792720317840576,0
56,100,0.1409090909090909,101,1,4,DL_MelancholicFolk_Guitar,6,2,DL_MelancholicFolk_Guitar,0.9990280866622925,1
60,100,1.5,355,1,4,DL_MelancholicFolk_Guitar,6,15,DL_MelancholicFolk_Guitar,0.3703397214412689,0
58,100,0.2772727272727273,721,1,4,DL_MelancholicFolk_Guitar,6,4,DL_MelancholicFolk_Guitar,0.45617204904556274,0
65,100,0.1,128,1,6,DL_MelancholicFolk_Guitar,6,2,DL_MelancholicFolk_Guitar,0.9983231425285339,1
65,100,0.2772727272727273,458,1,6,DL_MelancholicFolk_Guitar,6,4,DL_MelancholicFolk_Guitar,0.5462091565132141,1
58,100,0.6590909090909091,716,1,7,DL_MelancholicFolk_Guitar,6,11,DL_MelancholicFolk_Guitar,0.9792238473892212,1
58,100,0.3409090909090909,53,1,8,DL_MelancholicFolk_Guitar,6,5,DL_MelancholicFolk_Guitar,0.9792240262031555,1
58,100,1.2818181818181817,110,1,9,DL_MelancholicFolk_Guitar,6,15,DL_MelancholicFolk_Guitar,0.9983231425285339,1
58,100,0.6409090909090909,685,1,9,DL_MelancholicFolk_Guitar,6,10,DL_MelancholicFolk_Guitar,0.5462195873260498,1
58,100,1.3409090909090908,386,1,10,DL_MelancholicFolk_Guitar,6,15,DL_MelancholicFolk_Guitar,0.979223906993866,1
60,100,0.3,440,1,11,DL_MelancholicFolk_Guitar,6,5,DL_MelancholicFolk_Guitar,0.9990280866622925,1
60,100,0.6772727272727272,646,0,11,DL_MelancholicFolk_Guitar,6,11,DL_MelancholicFolk_Guitar,0.3703381419181824,0
53,100,0.22272727272727272,871,0,11,DL_MelancholicFolk_Guitar,6,4,DL_MelancholicFolk_Guitar,0.45617347955703735,0
55,100,0.6590909090909091,61,1,12,DL_MelancholicFolk_Guitar,6,11,DL_MelancholicFolk_Guitar,0.9986506104469299,1
63,100,0.1,527,1,12,DL_MelancholicFolk_Guitar,6,2,DL_MelancholicFolk_Guitar,0.08798079937696457,0
63,100,0.23636363636363636,567,0,12,DL_MelancholicFolk_Guitar,6,4,DL_MelancholicFolk_Guitar,0.09298894554376602,0
56,100,0.2772727272727273,656,0,12,DL_MelancholicFolk_Guitar,6,4,DL_MelancholicFolk_Guitar,0.10995630919933319,0
56,100,0.11818181818181818,814,0,12,DL_MelancholicFolk_Guitar,6,2,DL_MelancholicFolk_Guitar,0.1286771595478058,0
56,100,0.3,849,0,12,DL_MelancholicFolk_Guitar,6,5,DL_MelancholicFolk_Guitar,0.18222439289093018,0
63,100,0.12272727272727273,575,1,13,DL_MelancholicFolk_Guitar,6,2,DL_MelancholicFolk_Guitar,0.9792230129241943,1
55,100,0.18181818181818182,34,1,14,DL_MelancholicFolk_Guitar,6,3,DL_MelancholicFolk_Guitar,0.9986507296562195,1
60,100,0.3,216,0,14,DL_MelancholicFolk_Guitar,6,5,DL_MelancholicFolk_Guitar,0.08798239380121231,0
60,100,0.2818181818181818,343,0,14,DL_MelancholicFolk_Guitar,6,5,DL_MelancholicFolk_Guitar,0.0929860919713974,0
53,100,0.1590909090909091,524,0,14,DL_MelancholicFolk_Guitar,6,3,DL_MelancholicFolk_Guitar,0.1099499762058258,0
62,100,0.1590909090909091,778,1,14,DL_MelancholicFolk_Guitar,6,3,DL_MelancholicFolk_Guitar,0.1286727339029312,0
62,100,0.2590909090909091,826,0,14,DL_MelancholicFolk_Guitar,6,4,DL_MelancholicFolk_Guitar,0.18221932649612427,0
62,100,0.4818181818181818,34,1,15,DL_MelancholicFolk_Guitar,6,8,DL_MelancholicFolk_Guitar,0.9984880685806274,1
58,100,0.11818181818181818,175,0,15,DL_MelancholicFolk_Guitar,6,2,DL_MelancholicFolk_Guitar,0.0633532851934433,0
53,100,0.12272727272727273,268,0,15,DL_MelancholicFolk_Guitar,6,2,DL_MelancholicFolk_Guitar,0.0582873672246933,0
58,100,0.7,417,0,15,DL_MelancholicFolk_Guitar,6,11,DL_MelancholicFolk_Guitar,0.061359770596027374,0
58,100,0.3,594,0,15,DL_MelancholicFolk_Guitar,6,5,DL_MelancholicFolk_Guitar,0.07168117165565491,0
58,100,0.13636363636363635,721,0,15,DL_MelancholicFolk_Guitar,6,2,DL_MelancholicFolk_Guitar,0.08473289012908936,0
70,100,0.2,752,0,15,DL_MelancholicFolk_Guitar,6,3,DL_MelancholicFolk_Guitar,0.12634173035621643,0
55,100,0.32272727272727275,167,1,16,DL_MelancholicFolk_Guitar,6,5,DL_MelancholicFolk_Guitar,0.9988439083099365,1
55,100,0.11818181818181818,360,0,16,DL_MelancholicFolk_Guitar,6,2,DL_MelancholicFolk_Guitar,0.13798515498638153,0
63,100,0.1409090909090909,638,1,16,DL_MelancholicFolk_Guitar,6,2,DL_MelancholicFolk_Guitar,0.16236960887908936,0
56,100,0.5181818181818182,725,0,16,DL_MelancholicFolk_Guitar,6,8,DL_MelancholicFolk_Guitar,0.19105909764766693,0
56,100,1.1772727272727272,866,0,16,DL_MelancholicFolk_Guitar,6,15,DL_MelancholicFolk_Guitar,0.2619609832763672,0
56,100,0.1,382,1,17,DL_MelancholicFolk_Guitar,6,2,DL_MelancholicFolk_Guitar,0.9990280866622925,1
56,100,0.2,536,0,17,DL_MelancholicFolk_Guitar,6,3,DL_MelancholicFolk_Guitar,0.37033993005752563,0
53,100,0.2818181818181818,773,1,17,DL_MelancholicFolk_Guitar,6,5,DL_MelancholicFolk_Guitar,0.45616650581359863,0
58,100,1.459090909090909,57,1,18,DL_MelancholicFolk_Guitar,6,15,DL_MelancholicFolk_Guitar,0.9990280866622925,1
58,100,0.3409090909090909,735,1,18,DL_MelancholicFolk_Guitar,6,5,DL_MelancholicFolk_Guitar,0.3703417479991913,0
58,100,0.3181818181818182,822,0,18,DL_MelancholicFolk_Guitar,6,5,DL_MelancholicFolk_Guitar,0.4561629295349121,0
63,100,0.3,638,1,19,DL_MelancholicFolk_Guitar,6,5,DL_MelancholicFolk_Guitar,0.9792238473892212,1
62,100,0.1,21,1,20,DL_MelancholicFolk_Guitar,6,2,DL_MelancholicFolk_Guitar,0.9988439083099365,1
53,100,0.2,422,1,20,DL_MelancholicFolk_Guitar,6,3,DL_MelancholicFolk_Guitar,0.13798071444034576,0
60,100,0.2590909090909091,484,0,20,DL_MelancholicFolk_Guitar,6,4,DL_MelancholicFolk_Guitar,0.1623663455247879,0
60,100,0.1409090909090909,607,0,20,DL_MelancholicFolk_Guitar,6,2,DL_MelancholicFolk_Guitar,0.1910615861415863,0
63,100,0.21818181818181817,712,0,20,DL_MelancholicFolk_Guitar,6,3,DL_MelancholicFolk_Guitar,0.261966735124588,0
55,100,0.5590909090909091,185,1,21,DL_MelancholicFolk_Guitar,6,9,DL_MelancholicFolk_Guitar,0.9990094900131226,1
55,100,0.5,347,0,21,DL_MelancholicFolk_Guitar,6,8,DL_MelancholicFolk_Guitar,0.23323151469230652,0
65,100,0.5590909090909091,484,0,21,DL_MelancholicFolk_Guitar,6,9,DL_MelancholicFolk_Guitar,0.2705843150615692,0
56,100,0.17727272727272728,853,1,21,DL_MelancholicFolk_Guitar,6,3,DL_MelancholicFolk_Guitar,0.3579258620738983,0
56,100,0.36363636363636365,223,1,22,DL_MelancholicFolk_Guitar,6,6,DL_MelancholicFolk_Guitar,0.9990094900131226,1
55,100,0.7818181818181819,430,0,22,DL_MelancholicFolk_Guitar,6,13,DL_MelancholicFolk_Guitar,0.2332337647676468,0
55,100,0.2818181818181818,673,1,22,DL_MelancholicFolk_Guitar,6,5,DL_MelancholicFolk_Guitar,0.27058422565460205,0
58,100,0.2590909090909091,814,0,22,DL_MelancholicFolk_Guitar,6,4,DL_MelancholicFolk_Guitar,0.3579263389110565,0
58,100,0.2590909090909091,13,1,23,DL_MelancholicFolk_Guitar,6,4,DL_MelancholicFolk_Guitar,0.9986506104469299,1
56,100,0.6818181818181818,277,1,23,DL_MelancholicFolk_Guitar,6,11,DL_MelancholicFolk_Guitar,0.08797712624073029,0
56,100,0.1409090909090909,484,0,23,DL_MelancholicFolk_Guitar,6,2,DL_MelancholicFolk_Guitar,0.09298374503850937,0
56,100,0.2,519,0,23,DL_MelancholicFolk_Guitar,6,3,DL_MelancholicFolk_Guitar,0.10994849354028702,0
56,100,0.2818181818181818,576,0,23,DL_MelancholicFolk_Guitar,6,5,DL_MelancholicFolk_Guitar,0.12867075204849243,0
53,100,0.1590909090909091,691,0,23,DL_MelancholicFolk_Guitar,6,3,DL_MelancholicFolk_Guitar,0.18221251666545868,0
58,100,0.1590909090909091,83,1,24,DL_MelancholicFolk_Guitar,6,3,DL_MelancholicFolk_Guitar,0.9990280866622925,1
58,100,0.6181818181818182,250,0,24,DL_MelancholicFolk_Guitar,6,10,DL_MelancholicFolk_Guitar,0.3703354001045227,0
58,100,0.11818181818181818,550,1,24,DL_MelancholicFolk_Guitar,6,2,DL_MelancholicFolk_Guitar,0.45616263151168823,0
58,100,0.1409090909090909,119,1,25,DL_MelancholicFolk_Guitar,6,2,DL_MelancholicFolk_Guitar,0.9986506104469299,1
58,100,0.11818181818181818,285,0,25,DL_MelancholicFolk_Guitar,6,2,DL_MelancholicFolk_Guitar,0.08797949552536011,0
58,100,0.1590909090909091,343,0,25,DL_MelancholicFolk_Guitar,6,3,DL_MelancholicFolk_Guitar,0.09298490732908249,0
58,100,0.2772727272727273,391,0,25,DL_MelancholicFolk_Guitar,6,4,DL_MelancholicFolk_Guitar,0.10995060950517654,0
58,100,0.4409090909090909,505,0,25,DL_MelancholicFolk_Guitar,6,7,DL_MelancholicFolk_Guitar,0.1286696195602417,0
55,100,1.0818181818181818,717,0,25,DL_MelancholicFolk_Guitar,6,15,DL_MelancholicFolk_Guitar,0.18220992386341095,0
60,100,0.6590909090909091,83,1,26,DL_MelancholicFolk_Guitar,6,11,DL_MelancholicFolk_Guitar,0.9988439083099365,1
63,100,0.11818181818181818,326,1,26,DL_MelancholicFolk_Guitar,6,2,DL_MelancholicFolk_Guitar,0.1379789561033249,0
55,100,0.6409090909090909,509,0,26,DL_MelancholicFolk_Guitar,6,10,DL_MelancholicFolk_Guitar,0.1623643934726715,0
65,100,0.32272727272727275,717,0,26,DL_MelancholicFolk_Guitar,6,5,DL_MelancholicFolk_Guitar,0.19105257093906403,0
55,100,0.3,810,0,26,DL_MelancholicFolk_Guitar,6,5,DL_MelancholicFolk_Guitar,0.2619593143463135,0
56,100,0.8363636363636363,106,1,27,DL_MelancholicFolk_Guitar,6,13,DL_MelancholicFolk_Guitar,0.9990280866622925,1
56,100,0.759090909090909,374,1,27,DL_MelancholicFolk_Guitar,6,12,DL_MelancholicFolk_Guitar,0.37033596634864807,0
58,100,0.1,650,1,27,DL_MelancholicFolk_Guitar,6,2,DL_MelancholicFolk_Guitar,0.45617684721946716,0
65,100,0.2818181818181818,69,1,28,DL_MelancholicFolk_Guitar,6,5,DL_MelancholicFolk_Guitar,0.9990280866622925,1
58,100,0.3409090909090909,598,1,28,DL_MelancholicFolk_Guitar,6,5,DL_MelancholicFolk_Guitar,0.370344877243042,0
65,100,0.2409090909090909,673,0,28,DL_MelancholicFolk_Guitar,6,4,DL_MelancholicFolk_Guitar,0.4561631679534912,0
63,100,0.2,30,1,29,DL_MelancholicFolk_Guitar,6,3,DL_MelancholicFolk_Guitar,0.9990280866622925,1
63,100,0.8590909090909091,216,0,29,DL_MelancholicFolk_Guitar,6,14,DL_MelancholicFolk_Guitar,0.37033990025520325,0
63,100,0.12272727272727273,584,1,29,DL_MelancholicFolk_Guitar,6,2,DL_MelancholicFolk_Guitar,0.4561852514743805,0
58,100,0.41818181818181815,193,1,30,DL_MelancholicFolk_Guitar,6,7,DL_MelancholicFolk_Guitar,0.9990094900131226,1
53,100,0.6409090909090909,285,0,30,DL_MelancholicFolk_Guitar,6,10,DL_MelancholicFolk_Guitar,0.23322191834449768,0
53,100,0.16363636363636364,818,1,30,DL_MelancholicFolk_Guitar,6,3,DL_MelancholicFolk_Guitar,0.27057942748069763,0
55,100,0.22272727272727272,862,0,30,DL_MelancholicFolk_Guitar,6,4,DL_MelancholicFolk_Guitar,0.35792890191078186,0
55,100,0.1,34,1,31,DL_MelancholicFolk_Guitar,6,2,DL_MelancholicFolk_Guitar,0.9990094900131226,1
55,100,0.1590909090909091,106,0,31,DL_MelancholicFolk_Guitar,6,3,DL_MelancholicFolk_Guitar,0.2332298308610916,0
55,100,0.2409090909090909,673,1,31,DL_MelancholicFolk_Guitar,6,4,DL_MelancholicFolk_Guitar,0.27057579159736633,0
55,100,0.16363636363636364,729,0,31,DL_MelancholicFolk_Guitar,6,3,DL_MelancholicFolk_Guitar,0.35792621970176697,0
58,100,0.3409090909090909,21,1,32,DL_MelancholicFolk_Guitar,6,5,DL_MelancholicFolk_Guitar,0.9988439083099365,1
56,100,0.1590909090909091,251,0,32,DL_MelancholicFolk_Guitar,6,3,DL_MelancholicFolk_Guitar,0.13798299431800842,0
56,100,0.37727272727272726,545,1,32,DL_MelancholicFolk_Guitar,6,6,DL_MelancholicFolk_Guitar,0.16236315667629242,0
56,100,0.2409090909090909,761,0,32,DL_MelancholicFolk_Guitar,6,4,DL_MelancholicFolk_Guitar,0.19104890525341034,0
58,100,0.6818181818181818,826,0,32,DL_MelancholicFolk_Guitar,6,11,DL_MelancholicFolk_Guitar,0.2619529068470001,0
56,100,0.18181818181818182,69,1,34,DL_MelancholicFolk_Guitar,6,3,DL_MelancholicFolk_Guitar,0.9986506104469299,1
53,100,0.2590909090909091,153,0,34,DL_MelancholicFolk_Guitar,6,4,DL_MelancholicFolk_Guitar,0.08797811716794968,0
53,100,0.5181818181818182,215,0,34,DL_MelancholicFolk_Guitar,6,8,DL_MelancholicFolk_Guitar,0.09298151731491089,0
53,100,0.2772727272727273,361,0,34,DL_MelancholicFolk_Guitar,6,4,DL_MelancholicFolk_Guitar,0.10994625091552734,0
58,100,0.5818181818181818,440,0,34,DL_MelancholicFolk_Guitar,6,9,DL_MelancholicFolk_Guitar,0.12867166101932526,0
56,100,0.5181818181818182,810,1,34,DL_MelancholicFolk_Guitar,6,8,DL_MelancholicFolk_Guitar,0.18220758438110352,0
56,100,0.11818181818181818,220,1,35,DL_MelancholicFolk_Guitar,6,2,DL_MelancholicFolk_Guitar,0.9988439083099365,1
56,100,0.2590909090909091,254,0,35,DL_MelancholicFolk_Guitar,6,4,DL_MelancholicFolk_Guitar,0.13798299431800842,0
58,100,0.5818181818181818,418,0,35,DL_MelancholicFolk_Guitar,6,9,DL_MelancholicFolk_Guitar,0.1623668521642685,0
65,100,0.3409090909090909,581,0,35,DL_MelancholicFolk_Guitar,6,5,DL_MelancholicFolk_Guitar,0.1910567432641983,0
58,100,0.7,761,0,35,DL_MelancholicFolk_Guitar,6,11,DL_MelancholicFolk_Guitar,0.2619612514972687,0
53,100,0.3,40,1,36,DL_MelancholicFolk_Guitar,6,5,DL_MelancholicFolk_Guitar,0.9988439083099365,1
58,100,0.1409090909090909,110,0,36,DL_MelancholicFolk_Guitar,6,2,DL_MelancholicFolk_Guitar,0.1379839926958084,0
53,100,0.21818181818181817,176,0,36,DL_MelancholicFolk_Guitar,6,3,DL_MelancholicFolk_Guitar,0.16236452758312225,0
55,100,0.5181818181818182,351,0,36,DL_MelancholicFolk_Guitar,6,8,DL_MelancholicFolk_Guitar,0.19105887413024902,0
55,100,0.1590909090909091,783,1,36,DL_MelancholicFolk_Guitar,6,3,DL_MelancholicFolk_Guitar,0.2619616985321045,0
60,100,0.9772727272727273,8,1,37,DL_MelancholicFolk_Guitar,6,15,DL_MelancholicFolk_Guitar,0.9984879493713379,1
60,100,0.11818181818181818,228,0,37,DL_MelancholicFolk_Guitar,6,2,DL_MelancholicFolk_Guitar,0.06335318833589554,0
55,100,0.12272727272727273,321,0,37,DL_MelancholicFolk_Guitar,6,2,DL_MelancholicFolk_Guitar,0.0582883320748806,0
53,100,1.3818181818181818,440,0,37,DL_MelancholicFolk_Guitar,6,15,DL_MelancholicFolk_Guitar,0.06136032193899155,0
53,100,0.1590909090909091,765,1,37,DL_MelancholicFolk_Guitar,6,3,DL_MelancholicFolk_Guitar,0.07168111950159073,0
53,100,0.18181818181818182,804,0,37,DL_MelancholicFolk_Guitar,6,3,DL_MelancholicFolk_Guitar,0.08473318815231323,0
65,100,0.11818181818181818,875,0,37,DL_MelancholicFolk_Guitar,6,2,DL_MelancholicFolk_Guitar,0.12634745240211487,0
65,100,0.12272727272727273,101,1,38,DL_MelancholicFolk_Guitar,6,2,DL_MelancholicFolk_Guitar,0.9984879493713379,1
65,100,0.2409090909090909,201,0,38,DL_MelancholicFolk_Guitar,6,4,DL_MelancholicFolk_Guitar,0.06335281580686569,0
65,100,0.11818181818181818,273,0,38,DL_MelancholicFolk_Guitar,6,2,DL_MelancholicFolk_Guitar,0.05828674137592316,0
65,100,0.11818181818181818,303,0,38,DL_MelancholicFolk_Guitar,6,2,DL_MelancholicFolk_Guitar,0.06135884299874306,0
58,100,0.2,361,0,38,DL_MelancholicFolk_Guitar,6,3,DL_MelancholicFolk_Guitar,0.0716795027256012,0
58,100,0.17727272727272728,536,0,38,DL_MelancholicFolk_Guitar,6,3,DL_MelancholicFolk_Guitar,0.08473008126020432,0
58,100,0.17727272727272728,633,0,38,DL_MelancholicFolk_Guitar,6,3,DL_MelancholicFolk_Guitar,0.1263428032398224,0
53,100,0.21818181818181817,348,1,39,DL_MelancholicFolk_Guitar,6,3,DL_MelancholicFolk_Guitar,0.9988439083099365,1
58,100,0.2,509,0,39,DL_MelancholicFolk_Guitar,6,3,DL_MelancholicFolk_Guitar,0.13798114657402039,0
53,100,0.5409090909090909,554,0,39,DL_MelancholicFolk_Guitar,6,9,DL_MelancholicFolk_Guitar,0.16235873103141785,0
58,100,0.5,721,0,39,DL_MelancholicFolk_Guitar,6,8,DL_MelancholicFolk_Guitar,0.19105656445026398,0
58,100,0.4,853,0,39,DL_MelancholicFolk_Guitar,6,6,DL_MelancholicFolk_Guitar,0.26196056604385376,0
56,100,0.4,418,1,41,DL_MelancholicFolk_Guitar,6,6,DL_MelancholicFolk_Guitar,0.9990280866622925,1
56,100,0.3,558,0,41,DL_MelancholicFolk_Guitar,6,5,DL_MelancholicFolk_Guitar,0.37033748626708984,0
58,100,0.2,655,0,41,DL_MelancholicFolk_Guitar,6,3,DL_MelancholicFolk_Guitar,0.45617085695266724,0
60,100,0.18181818181818182,21,1,42,DL_MelancholicFolk_Guitar,6,3,DL_MelancholicFolk_Guitar,0.9986506104469299,1
65,100,0.5227272727272727,211,0,42,DL_MelancholicFolk_Guitar,6,8,DL_MelancholicFolk_Guitar,0.08797582983970642,0
65,100,0.2590909090909091,448,1,42,DL_MelancholicFolk_Guitar,6,4,DL_MelancholicFolk_Guitar,0.09298606961965561,0
65,100,0.1590909090909091,563,0,42,DL_MelancholicFolk_Guitar,6,3,DL_MelancholicFolk_Guitar,0.10994812101125717,0
56,100,0.2409090909090909,641,0,42,DL_MelancholicFolk_Guitar,6,4,DL_MelancholicFolk_Guitar,0.1286684274673462,0
63,100,0.1590909090909091,866,0,42,DL_MelancholicFolk_Guitar,6,3,DL_MelancholicFolk_Guitar,0.18221597373485565,0
58,100,0.4590909090909091,198,1,43,DL_MelancholicFolk_Guitar,6,7,DL_MelancholicFolk_Guitar,0.9988439083099365,1
65,100,0.42272727272727273,386,0,43,DL_MelancholicFolk_Guitar,6,7,DL_MelancholicFolk_Guitar,0.1379821002483368,0
58,100,0.1409090909090909,581,0,43,DL_MelancholicFolk_Guitar,6,2,DL_MelancholicFolk_Guitar,0.16236616671085358,0
58,100,0.4590909090909091,646,0,43,DL_MelancholicFolk_Guitar,6,7,DL_MelancholicFolk_Guitar,0.191053107380867,0
63,100,0.1409090909090909,866,0,43,DL_MelancholicFolk_Guitar,6,2,DL_MelancholicFolk_Guitar,0.2619645297527313,0
63,100,0.8181818181818182,150,1,44,DL_MelancholicFolk_Guitar,6,13,DL_MelancholicFolk_Guitar,0.9990094900131226,1
63,100,0.1590909090909091,461,1,44,DL_MelancholicFolk_Guitar,6,3,DL_MelancholicFolk_Guitar,0.23323509097099304,0
58,100,0.11818181818181818,528,0,44,DL_MelancholicFolk_Guitar,6,2,DL_MelancholicFolk_Guitar,0.2705926299095154,0
58,100,0.8363636363636363,875,1,44,DL_MelancholicFolk_Guitar,6,13,DL_MelancholicFolk_Guitar,0.3579280376434326,0
58,100,0.11818181818181818,228,1,45,DL_MelancholicFolk_Guitar,6,2,DL_MelancholicFolk_Guitar,0.9990094900131226,1
55,100,0.2,399,0,45,DL_MelancholicFolk_Guitar,6,3,DL_MelancholicFolk_Guitar,0.2332332283258438,0
55,100,0.2772727272727273,721,1,45,DL_MelancholicFolk_Guitar,6,4,DL_MelancholicFolk_Guitar,0.2705821394920349,0
65,100,0.2,791,0,45,DL_MelancholicFolk_Guitar,6,3,DL_MelancholicFolk_Guitar,0.35791924595832825,0
55,100,0.2590909090909091,131,1,46,DL_MelancholicFolk_Guitar,6,4,DL_MelancholicFolk_Guitar,0.9984879493713379,1
58,100,0.16363636363636364,289,0,46,DL_MelancholicFolk_Guitar,6,3,DL_MelancholicFolk_Guitar,0.06335312873125076,0
58,100,0.3409090909090909,330,0,46,DL_MelancholicFolk_Guitar,6,5,DL_MelancholicFolk_Guitar,0.05828739330172539,0
65,100,0.2772727272727273,405,0,46,DL_MelancholicFolk_Guitar,6,4,DL_MelancholicFolk_Guitar,0.06135941669344902,0
58,100,0.3,480,0,46,DL_MelancholicFolk_Guitar,6,5,DL_MelancholicFolk_Guitar,0.07168204337358475,0
70,100,0.5,581,0,46,DL_MelancholicFolk_Guitar,6,8,DL_MelancholicFolk_Guitar,0.08473093062639236,0
70,100,0.12272727272727273,694,0,46,DL_MelancholicFolk_Guitar,6,2,DL_MelancholicFolk_Guitar,0.1263490468263626,0
70,100,0.12272727272727273,179,1,47,DL_MelancholicFolk_Guitar,6,2,DL_MelancholicFolk_Guitar,0.9988439083099365,1
65,100,0.17727272727272728,303,0,47,DL_MelancholicFolk_Guitar,6,3,DL_MelancholicFolk_Guitar,0.13797588646411896,0
65,100,0.2,399,0,47,DL_MelancholicFolk_Guitar,6,3,DL_MelancholicFolk_Guitar,0.16235974431037903,0
58,100,0.32272727272727275,541,0,47,DL_MelancholicFolk_Guitar,6,5,DL_MelancholicFolk_Guitar,0.19104932248592377,0
58,100,0.21818181818181817,801,1,47,DL_MelancholicFolk_Guitar,6,3,DL_MelancholicFolk_Guitar,0.2619553208351135,0
58,100,0.11818181818181818,0,1,48,DL_MelancholicFolk_Guitar,6,2,DL_MelancholicFolk_Guitar,0.9990280866622925,1
63,100,0.3409090909090909,660,1,48,DL_MelancholicFolk_Guitar,6,5,DL_MelancholicFolk_Guitar,0.3703373074531555,0
65,100,0.6409090909090909,804,0,48,DL_MelancholicFolk_Guitar,6,10,DL_MelancholicFolk_Guitar,0.45616650581359863,0
55,100,0.11818181818181818,66,1,49,DL_MelancholicFolk_Guitar,6,2,DL_MelancholicFolk_Guitar,0.9986506104469299,1
56,100,0.5181818181818182,241,0,49,DL_MelancholicFolk_Guitar,6,8,DL_MelancholicFolk_Guitar,0.08797922730445862,0
56,100,0.4,509,1,49,DL_MelancholicFolk_Guitar,6,6,DL_MelancholicFolk_Guitar,0.0929834246635437,0
56,100,0.2409090909090909,646,0,49,DL_MelancholicFolk_Guitar,6,4,DL_MelancholicFolk_Guitar,0.10994454473257065,0
65,100,0.18181818181818182,751,0,49,DL_MelancholicFolk_Guitar,6,3,DL_MelancholicFolk_Guitar,0.1286715865135193,0
58,100,1.1636363636363636,818,0,49,DL_MelancholicFolk_Guitar,6,15,DL_MelancholicFolk_Guitar,0.1822114884853363,0
58,100,0.38181818181818183,201,1,50,DL_MelancholicFolk_Guitar,6,6,DL_MelancholicFolk_Guitar,0.9990280866622925,1
58,100,0.740909090909091,295,0,50,DL_MelancholicFolk_Guitar,6,12,DL_MelancholicFolk_Guitar,0.37032896280288696,0
65,100,0.4409090909090909,515,0,50,DL_MelancholicFolk_Guitar,6,7,DL_MelancholicFolk_Guitar,0.45616766810417175,0
53,100,0.33636363636363636,105,1,51,DL_MelancholicFolk_Guitar,6,5,DL_MelancholicFolk_Guitar,0.9983232617378235,1
55,100,0.1590909090909091,185,0,51,DL_MelancholicFolk_Guitar,6,3,DL_MelancholicFolk_Guitar,0.546211838722229,1
58,100,0.1409090909090909,405,1,52,DL_MelancholicFolk_Guitar,6,2,DL_MelancholicFolk_Guitar,0.9990280866622925,1
65,100,0.17727272727272728,721,1,52,DL_MelancholicFolk_Guitar,6,3,DL_MelancholicFolk_Guitar,0.37034371495246887,0
58,100,1.1409090909090909,761,0,52,DL_MelancholicFolk_Guitar,6,15,DL_MelancholicFolk_Guitar,0.45615676045417786,0
70,100,0.17727272727272728,435,1,53,DL_MelancholicFolk_Guitar,6,3,DL_MelancholicFolk_Guitar,0.9990280866622925,1
70,100,0.12272727272727273,774,1,53,DL_MelancholicFolk_Guitar,6,2,DL_MelancholicFolk_Guitar,0.37034010887145996,0
65,100,0.2,818,0,53,DL_MelancholicFolk_Guitar,6,3,DL_MelancholicFolk_Guitar,0.4561684727668762,0
58,100,0.21818181818181817,141,1,54,DL_MelancholicFolk_Guitar,6,3,DL_MelancholicFolk_Guitar,0.9983232617378235,1
58,100,0.4772727272727273,273,0,54,DL_MelancholicFolk_Guitar,6,8,DL_MelancholicFolk_Guitar,0.5462141633033752,1
53,100,0.18181818181818182,48,1,55,DL_MelancholicFolk_Guitar,6,3,DL_MelancholicFolk_Guitar,0.9986506104469299,1
58,100,1.3,105,0,55,DL_MelancholicFolk_Guitar,6,15,DL_MelancholicFolk_Guitar,0.0879792720079422,0
58,100,0.6818181818181818,396,1,55,DL_MelancholicFolk_Guitar,6,11,DL_MelancholicFolk_Guitar,0.09298539161682129,0
58,100,0.18181818181818182,563,0,55,DL_MelancholicFolk_Guitar,6,3,DL_MelancholicFolk_Guitar,0.10994569957256317,0
55,100,0.4590909090909091,673,0,55,DL_MelancholicFolk_Guitar,6,7,DL_MelancholicFolk_Guitar,0.12866419553756714,0
70,100,0.18181818181818182,813,0,55,DL_MelancholicFolk_Guitar,6,3,DL_MelancholicFolk_Guitar,0.1822102963924408,0
53,100,0.2590909090909091,303,1,56,DL_MelancholicFolk_Guitar,6,4,DL_MelancholicFolk_Guitar,0.9986506104469299,1
60,100,0.11818181818181818,383,0,56,DL_MelancholicFolk_Guitar,6,2,DL_MelancholicFolk_Guitar,0.08798064291477203,0
55,100,0.2,458,0,56,DL_MelancholicFolk_Guitar,6,3,DL_MelancholicFolk_Guitar,0.09298434853553772,0
55,100,0.22272727272727272,694,1,56,DL_MelancholicFolk_Guitar,6,4,DL_MelancholicFolk_Guitar,0.10995020717382431,0
65,100,0.1590909090909091,788,0,56,DL_MelancholicFolk_Guitar,6,3,DL_MelancholicFolk_Guitar,0.12866802513599396,0
53,100,0.2636363636363636,861,0,56,DL_MelancholicFolk_Guitar,6,4,DL_MelancholicFolk_Guitar,0.18221667408943176,0
65,100,0.37727272727272726,40,1,57,DL_MelancholicFolk_Guitar,6,6,DL_MelancholicFolk_Guitar,0.9984879493713379,1
65,100,0.3,128,0,57,DL_MelancholicFolk_Guitar,6,5,DL_MelancholicFolk_Guitar,0.06335229426622391,0
53,100,0.5,215,0,57,DL_MelancholicFolk_Guitar,6,8,DL_MelancholicFolk_Guitar,0.058287858963012695,0
53,100,0.8772727272727273,348,0,57,DL_MelancholicFolk_Guitar,6,14,DL_MelancholicFolk_Guitar,0.0613616444170475,0
65,100,0.7227272727272728,628,1,57,DL_MelancholicFolk_Guitar,6,12,DL_MelancholicFolk_Guitar,0.07168154418468475,0
53,100,0.21818181818181817,788,0,57,DL_MelancholicFolk_Guitar,6,3,DL_MelancholicFolk_Guitar,0.08473432064056396,0
53,100,0.21818181818181817,858,0,57,DL_MelancholicFolk_Guitar,6,3,DL_MelancholicFolk_Guitar,0.12634558975696564,0
53,100,0.1590909090909091,40,1,58,DL_MelancholicFolk_Guitar,6,3,DL_MelancholicFolk_Guitar,0.9990280866622925,1
58,100,1.0636363636363637,334,1,58,DL_MelancholicFolk_Guitar,6,15,DL_MelancholicFolk_Guitar,0.37033602595329285,0
65,100,0.1590909090909091,778,1,58,DL_MelancholicFolk_Guitar,6,3,DL_MelancholicFolk_Guitar,0.4561667740345001,0
65,100,0.7,738,1,59,DL_MelancholicFolk_Guitar,6,11,DL_MelancholicFolk_Guitar,0.9792236089706421,1
65,100,0.2,136,1,60,DL_MelancholicFolk_Guitar,6,3,DL_MelancholicFolk_Guitar,0.9988439083099365,1
58,100,0.13636363636363635,238,0,60,DL_MelancholicFolk_Guitar,6,2,DL_MelancholicFolk_Guitar,0.13798516988754272,0
63,100,0.36363636363636365,311,0,60,DL_MelancholicFolk_Guitar,6,6,DL_MelancholicFolk_Guitar,0.16236624121665955,0
63,100,0.5,458,0,60,DL_MelancholicFolk_Guitar,6,8,DL_MelancholicFolk_Guitar,0.19105738401412964,0
58,100,1.2636363636363637,861,1,60,DL_MelancholicFolk_Guitar,6,15,DL_MelancholicFolk_Guitar,0.2619684934616089,0
65,100,0.21818181818181817,263,1,61,DL_MelancholicFolk_Guitar,6,3,DL_MelancholicFolk_Guitar,0.9988439083099365,1
58,100,0.5,334,0,61,DL_MelancholicFolk_Guitar,6,8,DL_MelancholicFolk_Guitar,0.13798436522483826,0
55,100,0.2409090909090909,691,1,61,DL_MelancholicFolk_Guitar,6,4,DL_MelancholicFolk_Guitar,0.16236798465251923,0
55,100,0.11818181818181818,778,0,61,DL_MelancholicFolk_Guitar,6,2,DL_MelancholicFolk_Guitar,0.19105680286884308,0
58,100,0.5227272727272727,871,0,61,DL_MelancholicFolk_Guitar,6,8,DL_MelancholicFolk_Guitar,0.2619645595550537,0
65,100,0.12272727272727273,356,1,62,DL_MelancholicFolk_Guitar,6,2,DL_MelancholicFolk_Guitar,0.9990280866622925,1
65,100,0.4409090909090909,399,0,62,DL_MelancholicFolk_Guitar,6,7,DL_MelancholicFolk_Guitar,0.3703400492668152,0
58,100,0.6227272727272727,686,1,62,DL_MelancholicFolk_Guitar,6,10,DL_MelancholicFolk_Guitar,0.4561654031276703,0
58,100,0.2409090909090909,461,1,63,DL_MelancholicFolk_Guitar,6,4,DL_MelancholicFolk_Guitar,0.9990094900131226,1
63,100,0.2409090909090909,531,0,63,DL_MelancholicFolk_Guitar,6,4,DL_MelancholicFolk_Guitar,0.2332344949245453,0
63,100,0.1590909090909091,638,0,63,DL_MelancholicFolk_Guitar,6,3,DL_MelancholicFolk_Guitar,0.2705880105495453,0
63,100,0.5181818181818182,681,0,63,DL_MelancholicFolk_Guitar,6,8,DL_MelancholicFolk_Guitar,0.35793638229370117,0
58,100,0.3,140,1,64,DL_MelancholicFolk_Guitar,6,5,DL_MelancholicFolk_Guitar,0.9983231425285339,1
56,100,0.2772727272727273,559,1,64,DL_MelancholicFolk_Guitar,6,4,DL_MelancholicFolk_Guitar,0.5462045669555664,1
65,100,0.1,56,1,65,DL_MelancholicFolk_Guitar,6,2,DL_MelancholicFolk_Guitar,0.9986506104469299,1
58,100,0.7227272727272728,189,0,65,DL_MelancholicFolk_Guitar,6,12,DL_MelancholicFolk_Guitar,0.08798015117645264,0
65,100,0.21818181818181817,352,0,65,DL_MelancholicFolk_Guitar,6,3,DL_MelancholicFolk_Guitar,0.09298475086688995,0
56,100,0.2,580,0,65,DL_MelancholicFolk_Guitar,6,3,DL_MelancholicFolk_Guitar,0.10995203256607056,0
56,100,0.21818181818181817,633,0,65,DL_MelancholicFolk_Guitar,6,3,DL_MelancholicFolk_Guitar,0.12867596745491028,0
56,100,0.1409090909090909,686,0,65,DL_MelancholicFolk_Guitar,6,2,DL_MelancholicFolk_Guitar,0.18221460282802582,0
56,100,0.37727272727272726,30,1,66,DL_MelancholicFolk_Guitar,6,6,DL_MelancholicFolk_Guitar,0.9986506104469299,1
58,100,0.1590909090909091,276,1,66,DL_MelancholicFolk_Guitar,6,3,DL_MelancholicFolk_Guitar,0.08798003941774368,0
65,100,0.36363636363636365,312,0,66,DL_MelancholicFolk_Guitar,6,6,DL_MelancholicFolk_Guitar,0.09298313409090042,0
53,100,0.11818181818181818,483,0,66,DL_MelancholicFolk_Guitar,6,2,DL_MelancholicFolk_Guitar,0.109951451420784,0
58,100,1.0,509,0,66,DL_MelancholicFolk_Guitar,6,15,DL_MelancholicFolk_Guitar,0.12867340445518494,0
55,100,1.240909090909091,747,1,66,DL_MelancholicFolk_Guitar,6,15,DL_MelancholicFolk_Guitar,0.18221573531627655,0
55,100,0.12272727272727273,157,1,67,DL_MelancholicFolk_Guitar,6,2,DL_MelancholicFolk_Guitar,0.9988439083099365,1
55,100,0.21818181818181817,216,0,67,DL_MelancholicFolk_Guitar,6,3,DL_MelancholicFolk_Guitar,0.13798415660858154,0
55,100,0.3,326,0,67,DL_MelancholicFolk_Guitar,6,5,DL_MelancholicFolk_Guitar,0.1623602658510208,0
55,100,0.12272727272727273,409,0,67,DL_MelancholicFolk_Guitar,6,2,DL_MelancholicFolk_Guitar,0.19105264544487,0
58,100,0.2,650,1,67,DL_MelancholicFolk_Guitar,6,3,DL_MelancholicFolk_Guitar,0.2619590759277344,0
58,100,0.3,62,1,68,DL_MelancholicFolk_Guitar,6,5,DL_MelancholicFolk_Guitar,0.9983736276626587,1
56,100,0.22272727272727272,145,0,68,DL_MelancholicFolk_Guitar,6,4,DL_MelancholicFolk_Guitar,0.05104902759194374,0
56,100,0.12272727272727273,255,0,68,DL_MelancholicFolk_Guitar,6,2,DL_MelancholicFolk_Guitar,0.041612617671489716,0
56,100,0.4,320,0,68,DL_MelancholicFolk_Guitar,6,6,DL_MelancholicFolk_Guitar,0.037979722023010254,0
56,100,0.2,506,0,68,DL_MelancholicFolk_Guitar,6,3,DL_MelancholicFolk_Guitar,0.03925880417227745,0
63,100,0.1590909090909091,590,0,68,DL_MelancholicFolk_Guitar,6,3,DL_MelancholicFolk_Guitar,0.046163853257894516,0
58,100,0.22272727272727272,650,0,68,DL_MelancholicFolk_Guitar,6,4,DL_MelancholicFolk_Guitar,0.057131730020046234,0
58,100,0.7,703,0,68,DL_MelancholicFolk_Guitar,6,11,DL_MelancholicFolk_Guitar,0.09187673777341843,0
58,100,0.3181818181818182,184,1,69,DL_MelancholicFolk_Guitar,6,5,DL_MelancholicFolk_Guitar,0.9990096092224121,1
58,100,0.5772727272727273,273,0,69,DL_MelancholicFolk_Guitar,6,9,DL_MelancholicFolk_Guitar,0.2332315593957901,0
63,100,0.21818181818181817,572,1,69,DL_MelancholicFolk_Guitar,6,3,DL_MelancholicFolk_Guitar,0.270579069852829,0
58,100,0.18181818181818182,849,1,69,DL_MelancholicFolk_Guitar,6,3,DL_MelancholicFolk_Guitar,0.35793355107307434,0
63,100,0.1,83,1,70,DL_MelancholicFolk_Guitar,6,2,DL_MelancholicFolk_Guitar,0.9990280866622925,1
58,100,0.11818181818181818,140,0,70,DL_MelancholicFolk_Guitar,6,2,DL_MelancholicFolk_Guitar,0.37034180760383606,0
58,100,0.23636363636363636,237,0,70,DL_MelancholicFolk_Guitar,6,4,DL_MelancholicFolk_Guitar,0.4561712443828583,0
63,100,0.35909090909090907,206,1,71,DL_MelancholicFolk_Guitar,6,6,DL_MelancholicFolk_Guitar,0.9792234897613525,1
56,100,0.2636363636363636,422,1,76,DL_MelancholicFolk_Guitar,6,4,DL_MelancholicFolk_Guitar,0.9988439083099365,1
53,100,0.16363636363636364,509,0,76,DL_MelancholicFolk_Guitar,6,3,DL_MelancholicFolk_Guitar,0.13798145949840546,0
58,100,0.3409090909090909,553,0,76,DL_MelancholicFolk_Guitar,6,5,DL_MelancholicFolk_Guitar,0.16236503422260284,0
58,100,0.37727272727272726,669,0,76,DL_MelancholicFolk_Guitar,6,6,DL_MelancholicFolk_Guitar,0.19105751812458038,0
58,100,1.018181818181818,756,0,76,DL_MelancholicFolk_Guitar,6,15,DL_MelancholicFolk_Guitar,0.261959969997406,0
58,100,0.2409090909090909,110,1,77,DL_MelancholicFolk_Guitar,6,4,DL_MelancholicFolk_Guitar,0.9990094900131226,1
58,100,0.18181818181818182,176,0,77,DL_MelancholicFolk_Guitar,6,3,DL_MelancholicFolk_Guitar,0.2332385629415512,0
55,100,1.0636363636363637,289,0,77,DL_MelancholicFolk_Guitar,6,15,DL_MelancholicFolk_Guitar,0.2705771327018738,0
58,100,0.4772727272727273,656,1,77,DL_MelancholicFolk_Guitar,6,8,DL_MelancholicFolk_Guitar,0.3579310178756714,0
70,100,0.5818181818181818,22,1,78,DL_MelancholicFolk_Guitar,6,9,DL_MelancholicFolk_Guitar,0.9983004927635193,1
55,100,0.16363636363636364,246,0,78,DL_MelancholicFolk_Guitar,6,3,DL_MelancholicFolk_Guitar,0.04466170072555542,0
65,100,0.35909090909090907,282,0,78,DL_MelancholicFolk_Guitar,6,6,DL_MelancholicFolk_Guitar,0.03337075561285019,0
55,100,0.3409090909090909,360,0,78,DL_MelancholicFolk_Guitar,6,5,DL_MelancholicFolk_Guitar,0.02694675326347351,0
65,100,0.1409090909090909,440,0,78,DL_MelancholicFolk_Guitar,6,2,DL_MelancholicFolk_Guitar,0.02408323623239994,0
56,100,0.5227272727272727,519,0,78,DL_MelancholicFolk_Guitar,6,8,DL_MelancholicFolk_Guitar,0.02497067116200924,0
63,100,0.1590909090909091,660,0,78,DL_MelancholicFolk_Guitar,6,3,DL_MelancholicFolk_Guitar,0.030646083876490593,0
65,100,0.2818181818181818,703,0,78,DL_MelancholicFolk_Guitar,6,5,DL_MelancholicFolk_Guitar,0.0413670539855957,0
65,100,0.5363636363636364,832,0,78,DL_MelancholicFolk_Guitar,6,9,DL_MelancholicFolk_Guitar,0.0720684751868248,0
65,100,0.4772727272727273,96,1,79,DL_MelancholicFolk_Guitar,6,8,DL_MelancholicFolk_Guitar,0.9988439083099365,1
55,100,0.32272727272727275,365,1,79,DL_MelancholicFolk_Guitar,6,5,DL_MelancholicFolk_Guitar,0.13798560202121735,0
55,100,0.21818181818181817,440,0,79,DL_MelancholicFolk_Guitar,6,3,DL_MelancholicFolk_Guitar,0.16237182915210724,0
55,100,0.2,509,0,79,DL_MelancholicFolk_Guitar,6,3,DL_MelancholicFolk_Guitar,0.191057950258255,0
65,100,0.4818181818181818,673,0,79,DL_MelancholicFolk_Guitar,6,8,DL_MelancholicFolk_Guitar,0.2619610130786896,0
63,100,0.32272727272727275,26,1,80,DL_MelancholicFolk_Guitar,6,5,DL_MelancholicFolk_Guitar,0.9986506104469299,1
63,100,0.1409090909090909,153,0,80,DL_MelancholicFolk_Guitar,6,2,DL_MelancholicFolk_Guitar,0.0879809558391571,0
63,100,0.22272727272727272,365,0,80,DL_MelancholicFolk_Guitar,6,4,DL_MelancholicFolk_Guitar,0.09298554807901382,0
58,100,1.0,475,0,80,DL_MelancholicFolk_Guitar,6,15,DL_MelancholicFolk_Guitar,0.10995170474052429,0
53,100,0.2409090909090909,703,0,80,DL_MelancholicFolk_Guitar,6,4,DL_MelancholicFolk_Guitar,0.1286724954843521,0
53,100,0.8590909090909091,766,0,80,DL_MelancholicFolk_Guitar,6,14,DL_MelancholicFolk_Guitar,0.18222065269947052,0
53,100,0.18181818181818182,79,1,81,DL_MelancholicFolk_Guitar,6,3,DL_MelancholicFolk_Guitar,0.9984879493713379,1
60,100,0.11818181818181818,193,0,81,DL_MelancholicFolk_Guitar,6,2,DL_MelancholicFolk_Guitar,0.06335446238517761,0
60,100,0.5363636363636364,303,0,81,DL_MelancholicFolk_Guitar,6,9,DL_MelancholicFolk_Guitar,0.05828957259654999,0
60,100,0.13636363636363635,436,0,81,DL_MelancholicFolk_Guitar,6,2,DL_MelancholicFolk_Guitar,0.06136452406644821,0
55,100,0.4409090909090909,475,0,81,DL_MelancholicFolk_Guitar,6,7,DL_MelancholicFolk_Guitar,0.07168465852737427,0
60,100,0.4,603,0,81,DL_MelancholicFolk_Guitar,6,6,DL_MelancholicFolk_Guitar,0.08473890274763107,0
56,100,0.1,857,1,81,DL_MelancholicFolk_Guitar,6,2,DL_MelancholicFolk_Guitar,0.12635086476802826,0
58,100,0.33636363636363636,480,1,82,DL_MelancholicFolk_Guitar,6,5,DL_MelancholicFolk_Guitar,0.9990280866622925,1
58,100,0.8,590,0,82,DL_MelancholicFolk_Guitar,6,13,DL_MelancholicFolk_Guitar,0.3703335225582123,0
58,100,0.6181818181818182,832,1,82,DL_MelancholicFolk_Guitar,6,10,DL_MelancholicFolk_Guitar,0.4561721980571747,0
70,100,0.2409090909090909,87,1,83,DL_MelancholicFolk_Guitar,6,4,DL_MelancholicFolk_Guitar,0.9983736276626587,1
63,100,0.11818181818181818,140,0,83,DL_MelancholicFolk_Guitar,6,2,DL_MelancholicFolk_Guitar,0.0510496124625206,0
58,100,0.11818181818181818,307,0,83,DL_MelancholicFolk_Guitar,6,2,DL_MelancholicFolk_Guitar,0.041611503809690475,0
58,100,0.2772727272727273,339,0,83,DL_MelancholicFolk_Guitar,6,4,DL_MelancholicFolk_Guitar,0.037978995591402054,0
62,100,0.6409090909090909,426,0,83,DL_MelancholicFolk_Guitar,6,10,DL_MelancholicFolk_Guitar,0.03925786912441254,0
62,100,0.2,572,0,83,DL_MelancholicFolk_Guitar,6,3,DL_MelancholicFolk_Guitar,0.04616300389170647,0
58,100,0.2409090909090909,650,0,83,DL_MelancholicFolk_Guitar,6,4,DL_MelancholicFolk_Guitar,0.057129595428705215,0
60,100,0.11818181818181818,787,0,83,DL_MelancholicFolk_Guitar,6,2,DL_MelancholicFolk_Guitar,0.09187841415405273,0
60,100,0.37727272727272726,184,1,84,DL_MelancholicFolk_Guitar,6,6,DL_MelancholicFolk_Guitar,0.9986507296562195,1
60,100,0.3,273,0,84,DL_MelancholicFolk_Guitar,6,5,DL_MelancholicFolk_Guitar,0.08798062801361084,0
60,100,0.2,343,0,84,DL_MelancholicFolk_Guitar,6,3,DL_MelancholicFolk_Guitar,0.09298905730247498,0
63,100,0.1590909090909091,519,0,84,DL_MelancholicFolk_Guitar,6,3,DL_MelancholicFolk_Guitar,0.10995888710021973,0
56,100,0.22272727272727272,563,0,84,DL_MelancholicFolk_Guitar,6,4,DL_MelancholicFolk_Guitar,0.12867683172225952,0
56,100,1.3409090909090908,823,1,84,DL_MelancholicFolk_Guitar,6,15,DL_MelancholicFolk_Guitar,0.1822206974029541,0
56,100,0.11818181818181818,392,1,85,DL_MelancholicFolk_Guitar,6,2,DL_MelancholicFolk_Guitar,0.9988439083099365,1
56,100,0.1,576,0,85,DL_MelancholicFolk_Guitar,6,2,DL_MelancholicFolk_Guitar,0.1379825472831726,0
58,100,0.1590909090909091,616,0,85,DL_MelancholicFolk_Guitar,6,3,DL_MelancholicFolk_Guitar,0.16235946118831635,0
60,100,0.18181818181818182,773,0,85,DL_MelancholicFolk_Guitar,6,3,DL_MelancholicFolk_Guitar,0.19105593860149384,0
53,100,0.11818181818181818,823,0,85,DL_MelancholicFolk_Guitar,6,2,DL_MelancholicFolk_Guitar,0.26196229457855225,0
53,100,0.17727272727272728,30,1,86,DL_MelancholicFolk_Guitar,6,3,DL_MelancholicFolk_Guitar,0.9984879493713379,1
53,100,0.1590909090909091,189,0,86,DL_MelancholicFolk_Guitar,6,3,DL_MelancholicFolk_Guitar,0.06335274875164032,0
58,100,0.4772727272727273,229,0,86,DL_MelancholicFolk_Guitar,6,8,DL_MelancholicFolk_Guitar,0.05828885734081268,0
60,100,0.38181818181818183,409,0,86,DL_MelancholicFolk_Guitar,6,6,DL_MelancholicFolk_Guitar,0.06136172264814377,0
60,100,0.2,519,0,86,DL_MelancholicFolk_Guitar,6,3,DL_MelancholicFolk_Guitar,0.07168268412351608,0
60,100,0.1,567,0,86,DL_MelancholicFolk_Guitar,6,2,DL_MelancholicFolk_Guitar,0.08473529666662216,0
60,100,0.8,752,0,86,DL_MelancholicFolk_Guitar,6,13,DL_MelancholicFolk_Guitar,0.12634582817554474,0
56,100,0.5409090909090909,69,1,87,DL_MelancholicFolk_Guitar,6,9,DL_MelancholicFolk_Guitar,0.9983231425285339,1
58,100,1.259090909090909,637,1,87,DL_MelancholicFolk_Guitar,6,15,DL_MelancholicFolk_Guitar,0.54621422290802,1
58,100,0.1590909090909091,53,1,88,DL_MelancholicFolk_Guitar,6,3,DL_MelancholicFolk_Guitar,0.9984880685806274,1
58,100,0.7,100,0,88,DL_MelancholicFolk_Guitar,6,11,DL_MelancholicFolk_Guitar,0.06335287541151047,0
70,100,0.12272727272727273,289,0,88,DL_MelancholicFolk_Guitar,6,2,DL_MelancholicFolk_Guitar,0.05828931927680969,0
63,100,0.11818181818181818,330,0,88,DL_MelancholicFolk_Guitar,6,2,DL_MelancholicFolk_Guitar,0.061360668390989304,0
63,100,0.6,453,0,88,DL_MelancholicFolk_Guitar,6,10,DL_MelancholicFolk_Guitar,0.0716821476817131,0
62,100,0.3181818181818182,612,0,88,DL_MelancholicFolk_Guitar,6,5,DL_MelancholicFolk_Guitar,0.08473673462867737,0
62,100,0.13636363636363635,722,0,88,DL_MelancholicFolk_Guitar,6,2,DL_MelancholicFolk_Guitar,0.12635491788387299,0
60,100,0.5409090909090909,30,1,89,DL_MelancholicFolk_Guitar,6,9,DL_MelancholicFolk_Guitar,0.9983232617378235,1
60,100,0.17727272727272728,493,1,89,DL_MelancholicFolk_Guitar,6,3,DL_MelancholicFolk_Guitar,0.5462201833724976,1
70,100,0.2409090909090909,220,1,90,DL_MelancholicFolk_Guitar,6,4,DL_MelancholicFolk_Guitar,0.9990280866622925,1
58,100,1.6409090909090909,299,0,90,DL_MelancholicFolk_Guitar,6,15,DL_MelancholicFolk_Guitar,0.37032952904701233,0
58,100,0.11818181818181818,677,1,90,DL_MelancholicFolk_Guitar,6,2,DL_MelancholicFolk_Guitar,0.45617055892944336,0
62,100,0.16363636363636364,487,1,1,_Remix_Guitar,6,3,_Remix_Guitar,0.9983232617378235,1
60,100,0.1,801,1,1,_Remix_Guitar,6,2,_Remix_Guitar,0.5462237596511841,1
60,100,0.12272727272727273,122,1,2,_Remix_Guitar,6,2,_Remix_Guitar,0.9983232617378235,1
55,100,0.1409090909090909,616,1,2,_Remix_Guitar,6,2,_Remix_Guitar,0.5462077260017395,1
56,100,0.21818181818181817,229,1,3,_Remix_Guitar,6,3,_Remix_Guitar,0.9990280866622925,1
56,100,0.1409090909090909,364,0,3,_Remix_Guitar,6,2,_Remix_Guitar,0.370344877243042,0
63,100,0.2409090909090909,730,1,3,_Remix_Guitar,6,4,_Remix_Guitar,0.4561639130115509,0
62,100,0.17727272727272728,118,1,6,_Remix_Guitar,6,3,_Remix_Guitar,0.9983231425285339,1
63,100,0.11818181818181818,747,1,6,_Remix_Guitar,6,2,_Remix_Guitar,0.5462250113487244,1
56,100,0.22272727272727272,25,1,7,_Remix_Guitar,6,4,_Remix_Guitar,0.979223370552063,1
62,100,0.1409090909090909,374,1,8,_Remix_Guitar,6,2,_Remix_Guitar,0.9983232617378235,1
63,100,0.1,761,1,8,_Remix_Guitar,6,2,_Remix_Guitar,0.5462215542793274,1
56,100,0.13636363636363635,171,1,9,_Remix_Guitar,6,2,_Remix_Guitar,0.9990280866622925,1
56,100,0.12272727272727273,290,0,9,_Remix_Guitar,6,2,_Remix_Guitar,0.370342493057251,0
56,100,0.12272727272727273,804,1,9,_Remix_Guitar,6,2,_Remix_Guitar,0.45616430044174194,0
56,100,0.1409090909090909,175,1,10,_Remix_Guitar,6,2,_Remix_Guitar,0.9983231425285339,1
63,100,0.5818181818181818,792,1,10,_Remix_Guitar,6,9,_Remix_Guitar,0.5462135672569275,1
65,100,0.17727272727272728,118,1,11,_Remix_Guitar,6,3,_Remix_Guitar,0.9984879493713379,1
67,100,0.2590909090909091,163,0,11,_Remix_Guitar,6,4,_Remix_Guitar,0.06335317343473434,0
70,100,0.3409090909090909,285,0,11,_Remix_Guitar,6,5,_Remix_Guitar,0.058289460837841034,0
67,100,0.2409090909090909,360,0,11,_Remix_Guitar,6,4,_Remix_Guitar,0.06136036664247513,0
56,100,0.2409090909090909,426,0,11,_Remix_Guitar,6,4,_Remix_Guitar,0.07168088108301163,0
65,100,0.2818181818181818,795,1,11,_Remix_Guitar,6,5,_Remix_Guitar,0.08473070710897446,0
67,100,0.2409090909090909,862,0,11,_Remix_Guitar,6,4,_Remix_Guitar,0.12634843587875366,0
70,100,0.1,79,1,12,_Remix_Guitar,6,2,_Remix_Guitar,0.9982110261917114,1
70,100,0.1590909090909091,175,0,12,_Remix_Guitar,6,3,_Remix_Guitar,0.03828305006027222,0
67,100,0.17727272727272728,237,0,12,_Remix_Guitar,6,3,_Remix_Guitar,0.025583455339074135,0
65,100,0.33636363636363636,281,0,12,_Remix_Guitar,6,5,_Remix_Guitar,0.01735786721110344,0
63,100,0.2,360,0,12,_Remix_Guitar,6,3,_Remix_Guitar,0.011908242478966713,0
60,100,0.21818181818181817,414,0,12,_Remix_Guitar,6,3,_Remix_Guitar,0.00864390004426241,0
58,100,0.1,501,0,12,_Remix_Guitar,6,2,_Remix_Guitar,0.007122731301933527,0
60,100,0.36363636363636365,532,0,12,_Remix_Guitar,6,6,_Remix_Guitar,0.007161981891840696,0
63,100,0.1409090909090909,620,0,12,_Remix_Guitar,6,2,_Remix_Guitar,0.009123412892222404,0
65,100,0.3,660,0,12,_Remix_Guitar,6,5,_Remix_Guitar,0.014322865754365921,0
67,100,0.3181818181818182,787,0,12,_Remix_Guitar,6,5,_Remix_Guitar,0.024766668677330017,0
53,100,0.1,876,0,12,_Remix_Guitar,6,2,_Remix_Guitar,0.05090152099728584,0
65,100,0.38181818181818183,22,1,13,_Remix_Guitar,6,6,_Remix_Guitar,0.9982556700706482,1
63,100,0.1,135,0,13,_Remix_Guitar,6,2,_Remix_Guitar,0.04129274934530258,0
63,100,0.41818181818181815,185,0,13,_Remix_Guitar,6,7,_Remix_Guitar,0.029125068336725235,0
63,100,0.3181818181818182,281,0,13,_Remix_Guitar,6,5,_Remix_Guitar,0.021569225937128067,0
65,100,0.12272727272727273,355,0,13,_Remix_Guitar,6,2,_Remix_Guitar,0.017059113830327988,0
55,100,0.1,505,0,13,_Remix_Guitar,6,2,_Remix_Guitar,0.015268196351826191,0
70,100,0.3,532,0,13,_Remix_Guitar,6,5,_Remix_Guitar,0.016455968841910362,0
67,100,0.2,615,0,13,_Remix_Guitar,6,3,_Remix_Guitar,0.021837132051587105,0
56,100,0.3409090909090909,663,0,13,_Remix_Guitar,6,5,_Remix_Guitar,0.032516490668058395,0
72,100,0.2590909090909091,787,0,13,_Remix_Guitar,6,4,_Remix_Guitar,0.06091385707259178,0
70,100,0.2772727272727273,30,1,14,_Remix_Guitar,6,4,_Remix_Guitar,0.9983004927635193,1
65,100,0.3,163,0,14,_Remix_Guitar,6,5,_Remix_Guitar,0.04466131329536438,0
63,100,0.22272727272727272,233,0,14,_Remix_Guitar,6,4,_Remix_Guitar,0.03337175399065018,0
65,100,0.3,295,0,14,_Remix_Guitar,6,5,_Remix_Guitar,0.02694757841527462,0
65,100,0.12272727272727273,400,0,14,_Remix_Guitar,6,2,_Remix_Guitar,0.02408383972942829,0
67,100,0.18181818181818182,488,0,14,_Remix_Guitar,6,3,_Remix_Guitar,0.02497239224612713,0
67,100,0.1409090909090909,550,0,14,_Remix_Guitar,6,2,_Remix_Guitar,0.030646495521068573,0
65,100,0.3409090909090909,660,0,14,_Remix_Guitar,6,5,_Remix_Guitar,0.04136807844042778,0
65,100,0.2772727272727273,744,0,14,_Remix_Guitar,6,4,_Remix_Guitar,0.07206834852695465,0
58,100,0.22272727272727272,233,1,16,_Remix_Guitar,6,4,_Remix_Guitar,0.9792240262031555,1
58,100,0.18181818181818182,233,1,19,_Remix_Guitar,6,3,_Remix_Guitar,0.9792240262031555,1
56,100,0.16363636363636364,158,1,20,_Remix_Guitar,6,3,_Remix_Guitar,0.9990280866622925,1
56,100,0.1590909090909091,364,0,20,_Remix_Guitar,6,3,_Remix_Guitar,0.37033364176750183,0
58,100,0.1409090909090909,870,1,20,_Remix_Guitar,6,2,_Remix_Guitar,0.4561699628829956,0
58,100,0.1409090909090909,113,1,21,_Remix_Guitar,6,2,_Remix_Guitar,0.9792246222496033,1
56,100,0.2409090909090909,474,1,22,_Remix_Guitar,6,4,_Remix_Guitar,0.979223370552063,1
58,100,0.1590909090909091,229,1,23,_Remix_Guitar,6,3,_Remix_Guitar,0.9792241454124451,1
56,100,0.1590909090909091,656,1,24,_Remix_Guitar,6,3,_Remix_Guitar,0.9983232617378235,1
56,100,0.13636363636363635,876,0,24,_Remix_Guitar,6,2,_Remix_Guitar,0.5462111830711365,1
63,100,0.42272727272727273,387,1,25,_Remix_Guitar,6,7,_Remix_Guitar,0.9990280866622925,1
55,100,0.2772727272727273,721,1,25,_Remix_Guitar,6,4,_Remix_Guitar,0.3703525960445404,0
67,100,0.38181818181818183,804,0,25,_Remix_Guitar,6,6,_Remix_Guitar,0.4561689794063568,0
67,100,0.17727272727272728,40,1,26,_Remix_Guitar,6,3,_Remix_Guitar,0.9988439083099365,1
58,100,0.2409090909090909,167,0,26,_Remix_Guitar,6,4,_Remix_Guitar,0.13798092305660248,0
63,100,0.35909090909090907,370,0,26,_Remix_Guitar,6,6,_Remix_Guitar,0.16236425936222076,0
63,100,0.2818181818181818,461,0,26,_Remix_Guitar,6,5,_Remix_Guitar,0.19105517864227295,0
53,100,0.2409090909090909,791,1,26,_Remix_Guitar,6,4,_Remix_Guitar,0.2619667053222656,0
56,100,0.1590909090909091,79,1,27,_Remix_Guitar,6,3,_Remix_Guitar,0.9990094900131226,1
63,100,0.2409090909090909,198,0,27,_Remix_Guitar,6,4,_Remix_Guitar,0.23323164880275726,0
63,100,0.12272727272727273,254,0,27,_Remix_Guitar,6,2,_Remix_Guitar,0.2705830931663513,0
58,100,0.11818181818181818,735,1,27,_Remix_Guitar,6,2,_Remix_Guitar,0.3579345643520355,0
67,100,0.5590909090909091,34,1,28,_Remix_Guitar,6,9,_Remix_Guitar,0.9986507296562195,1
67,100,0.18181818181818182,202,0,28,_Remix_Guitar,6,3,_Remix_Guitar,0.08798060566186905,0
67,100,0.1409090909090909,272,0,28,_Remix_Guitar,6,2,_Remix_Guitar,0.09298470616340637,0
67,100,0.2772727272727273,347,0,28,_Remix_Guitar,6,4,_Remix_Guitar,0.10994698852300644,0
67,100,0.3,453,0,28,_Remix_Guitar,6,5,_Remix_Guitar,0.12866844236850739,0
67,100,0.5772727272727273,536,0,28,_Remix_Guitar,6,9,_Remix_Guitar,0.18221060931682587,0
58,100,0.35909090909090907,57,1,29,_Remix_Guitar,6,6,_Remix_Guitar,0.9990280866622925,1
58,100,0.11818181818181818,625,1,29,_Remix_Guitar,6,2,_Remix_Guitar,0.3703436851501465,0
53,100,0.2,770,0,29,_Remix_Guitar,6,3,_Remix_Guitar,0.45616278052330017,0
58,100,0.1409090909090909,119,1,30,_Remix_Guitar,6,2,_Remix_Guitar,0.9986506104469299,1
67,100,0.8636363636363636,289,0,30,_Remix_Guitar,6,14,_Remix_Guitar,0.08797670900821686,0
53,100,0.1590909090909091,484,0,30,_Remix_Guitar,6,3,_Remix_Guitar,0.09298218041658401,0
67,100,0.2590909090909091,536,0,30,_Remix_Guitar,6,4,_Remix_Guitar,0.10994729399681091,0
53,100,0.12272727272727273,598,0,30,_Remix_Guitar,6,2,_Remix_Guitar,0.12866875529289246,0
63,100,0.8227272727272728,796,0,30,_Remix_Guitar,6,13,_Remix_Guitar,0.18220926821231842,0
63,100,0.1,210,1,31,_Remix_Guitar,6,2,_Remix_Guitar,0.9984880685806274,1
63,100,0.2409090909090909,295,0,31,_Remix_Guitar,6,4,_Remix_Guitar,0.0633520632982254,0
53,100,0.5409090909090909,418,0,31,_Remix_Guitar,6,9,_Remix_Guitar,0.058289751410484314,0
53,100,0.2590909090909091,611,0,31,_Remix_Guitar,6,4,_Remix_Guitar,0.06136132776737213,0
53,100,0.16363636363636364,818,0,31,_Remix_Guitar,6,3,_Remix_Guitar,0.07168353348970413,0
54,100,0.1,853,0,31,_Remix_Guitar,6,2,_Remix_Guitar,0.08473826944828033,0
53,100,0.43636363636363634,876,0,31,_Remix_Guitar,6,7,_Remix_Guitar,0.1263515055179596,0
63,100,0.18181818181818182,188,1,32,_Remix_Guitar,6,3,_Remix_Guitar,0.9990280866622925,1
52,100,0.1409090909090909,421,1,32,_Remix_Guitar,6,2,_Remix_Guitar,0.37035003304481506,0
62,100,1.5772727272727274,568,0,32,_Remix_Guitar,6,15,_Remix_Guitar,0.45617353916168213,0
62,100,0.5409090909090909,69,1,33,_Remix_Guitar,6,9,_Remix_Guitar,0.9990280866622925,1
62,100,1.1227272727272728,233,0,33,_Remix_Guitar,6,15,_Remix_Guitar,0.3703482151031494,0
53,100,0.1409090909090909,619,1,33,_Remix_Guitar,6,2,_Remix_Guitar,0.45617759227752686,0
53,100,0.21818181818181817,493,1,34,_Remix_Guitar,6,3,_Remix_Guitar,0.9983231425285339,1
56,100,0.1409090909090909,646,0,34,_Remix_Guitar,6,2,_Remix_Guitar,0.546207845211029,1
53,100,0.2,611,1,35,_Remix_Guitar,6,3,_Remix_Guitar,0.9983231425285339,1
62,100,0.12272727272727273,818,0,35,_Remix_Guitar,6,2,_Remix_Guitar,0.5462199449539185,1
55,100,0.1,56,1,36,_Remix_Guitar,6,2,_Remix_Guitar,0.9990280866622925,1
55,100,0.18181818181818182,298,1,36,_Remix_Guitar,6,3,_Remix_Guitar,0.3703348934650421,0
58,100,0.3181818181818182,660,1,36,_Remix_Guitar,6,5,_Remix_Guitar,0.4561659097671509,0
56,100,0.2409090909090909,298,1,37,_Remix_Guitar,6,4,_Remix_Guitar,0.9983231425285339,1
56,100,0.12272727272727273,378,0,37,_Remix_Guitar,6,2,_Remix_Guitar,0.5462082624435425,1
53,100,0.1409090909090909,53,1,40,_Remix_Guitar,6,2,_Remix_Guitar,0.9984880685806274,1
58,100,0.18181818181818182,224,0,40,_Remix_Guitar,6,3,_Remix_Guitar,0.06335505098104477,0
58,100,0.1409090909090909,386,0,40,_Remix_Guitar,6,2,_Remix_Guitar,0.0582905039191246,0
55,100,0.5181818181818182,550,0,40,_Remix_Guitar,6,8,_Remix_Guitar,0.06136157363653183,0
58,100,0.1,703,0,40,_Remix_Guitar,6,2,_Remix_Guitar,0.07168494164943695,0
55,100,0.2818181818181818,748,0,40,_Remix_Guitar,6,5,_Remix_Guitar,0.08473407477140427,0
58,100,0.21818181818181817,858,0,40,_Remix_Guitar,6,3,_Remix_Guitar,0.12634986639022827,0
58,100,0.2,224,1,41,_Remix_Guitar,6,3,_Remix_Guitar,0.9990280866622925,1
63,100,0.2818181818181818,408,0,41,_Remix_Guitar,6,5,_Remix_Guitar,0.3703431189060211,0
53,100,0.4,664,1,41,_Remix_Guitar,6,6,_Remix_Guitar,0.4561760127544403,0
58,100,0.2,678,1,42,_Remix_Guitar,6,3,_Remix_Guitar,0.9983232617378235,1
58,100,0.13636363636363635,743,0,42,_Remix_Guitar,6,2,_Remix_Guitar,0.5462172031402588,1
62,100,0.13636363636363635,303,1,43,_Remix_Guitar,6,2,_Remix_Guitar,0.9983231425285339,1
53,100,0.1409090909090909,625,1,43,_Remix_Guitar,6,2,_Remix_Guitar,0.5462194085121155,1
56,100,0.11818181818181818,373,1,46,_Remix_Guitar,6,2,_Remix_Guitar,0.9983232617378235,1
53,100,0.12272727272727273,783,1,46,_Remix_Guitar,6,2,_Remix_Guitar,0.5462120175361633,1
55,100,0.1590909090909091,536,1,47,_Remix_Guitar,6,3,_Remix_Guitar,0.9983232617378235,1
55,100,0.18181818181818182,576,0,47,_Remix_Guitar,6,3,_Remix_Guitar,0.5462173223495483,1
56,100,0.2590909090909091,558,1,48,_Remix_Guitar,6,4,_Remix_Guitar,0.9983231425285339,1
56,100,0.3,721,0,48,_Remix_Guitar,6,5,_Remix_Guitar,0.5462166666984558,1
53,100,0.5,796,1,50,_Remix_Guitar,6,8,_Remix_Guitar,0.9792234897613525,1
56,100,0.5636363636363636,179,1,52,_Remix_Guitar,6,9,_Remix_Guitar,0.9792236089706421,1
56,100,0.11818181818181818,263,1,53,_Remix_Guitar,6,2,_Remix_Guitar,0.9983232617378235,1
58,100,0.2,823,1,53,_Remix_Guitar,6,3,_Remix_Guitar,0.5462186932563782,1
58,100,0.18181818181818182,0,1,54,_Remix_Guitar,6,3,_Remix_Guitar,0.9988439083099365,1
53,100,0.18181818181818182,91,0,54,_Remix_Guitar,6,3,_Remix_Guitar,0.13798412680625916,0
55,100,0.32272727272727275,289,0,54,_Remix_Guitar,6,5,_Remix_Guitar,0.1623672991991043,0
55,100,0.11818181818181818,506,0,54,_Remix_Guitar,6,2,_Remix_Guitar,0.19105656445026398,0
55,100,0.2772727272727273,668,0,54,_Remix_Guitar,6,4,_Remix_Guitar,0.2619546949863434,0
63,100,0.21818181818181817,96,1,55,_Remix_Guitar,6,3,_Remix_Guitar,0.9990094900131226,1
53,100,0.4772727272727273,426,1,55,_Remix_Guitar,6,8,_Remix_Guitar,0.2332356572151184,0
53,100,0.3409090909090909,584,0,55,_Remix_Guitar,6,5,_Remix_Guitar,0.2705875635147095,0
53,100,0.12272727272727273,826,1,55,_Remix_Guitar,6,2,_Remix_Guitar,0.357932448387146,0
53,100,0.2409090909090909,26,1,56,_Remix_Guitar,6,4,_Remix_Guitar,0.9990094900131226,1
65,100,0.11818181818181818,88,0,56,_Remix_Guitar,6,2,_Remix_Guitar,0.23323063552379608,0
53,100,0.1409090909090909,311,0,56,_Remix_Guitar,6,2,_Remix_Guitar,0.27058035135269165,0
63,100,0.2409090909090909,729,1,56,_Remix_Guitar,6,4,_Remix_Guitar,0.35792845487594604,0
53,100,0.11818181818181818,286,1,58,_Remix_Guitar,6,2,_Remix_Guitar,0.9983231425285339,1
58,100,0.11818181818181818,853,1,58,_Remix_Guitar,6,2,_Remix_Guitar,0.5462206602096558,1
55,100,0.2772727272727273,105,1,59,_Remix_Guitar,6,4,_Remix_Guitar,0.9792242646217346,1
53,100,0.4590909090909091,166,1,60,_Remix_Guitar,6,7,_Remix_Guitar,0.9983232617378235,1
53,100,0.1409090909090909,364,0,60,_Remix_Guitar,6,2,_Remix_Guitar,0.5462136268615723,1
53,100,0.1409090909090909,110,1,61,_Remix_Guitar,6,2,_Remix_Guitar,0.9990280866622925,1
53,100,0.33636363636363636,171,0,61,_Remix_Guitar,6,5,_Remix_Guitar,0.3703399896621704,0
63,100,0.1409090909090909,703,1,61,_Remix_Guitar,6,2,_Remix_Guitar,0.45616352558135986,0
53,100,0.3,163,1,62,_Remix_Guitar,6,5,_Remix_Guitar,0.9990094900131226,1
53,100,0.2,289,0,62,_Remix_Guitar,6,3,_Remix_Guitar,0.2332252413034439,0
53,100,0.13636363636363635,435,0,62,_Remix_Guitar,6,2,_Remix_Guitar,0.2705754339694977,0
53,100,0.22272727272727272,584,0,62,_Remix_Guitar,6,4,_Remix_Guitar,0.3579231798648834,0
63,100,0.38181818181818183,694,1,63,_Remix_Guitar,6,6,_Remix_Guitar,0.979223906993866,1
56,100,0.22272727272727272,540,1,64,_Remix_Guitar,6,4,_Remix_Guitar,0.9792236089706421,1
56,100,0.1409090909090909,30,1,65,_Remix_Guitar,6,2,_Remix_Guitar,0.9988440275192261,1
63,100,0.1,113,0,65,_Remix_Guitar,6,2,_Remix_Guitar,0.1379900425672531,0
58,100,0.7227272727272728,356,1,65,_Remix_Guitar,6,12,_Remix_Guitar,0.16237662732601166,0
56,100,0.8,536,0,65,_Remix_Guitar,6,13,_Remix_Guitar,0.19106721878051758,0
56,100,0.4,783,1,65,_Remix_Guitar,6,6,_Remix_Guitar,0.2619627118110657,0
63,100,0.1409090909090909,66,1,66,_Remix_Guitar,6,2,_Remix_Guitar,0.9983231425285339,1
56,100,0.2409090909090909,157,0,66,_Remix_Guitar,6,4,_Remix_Guitar,0.5462200045585632,1
63,100,0.1,100,1,67,_Remix_Guitar,6,2,_Remix_Guitar,0.9990280866622925,1
63,100,0.2409090909090909,136,0,67,_Remix_Guitar,6,4,_Remix_Guitar,0.37034231424331665,0
58,100,0.1409090909090909,273,0,67,_Remix_Guitar,6,2,_Remix_Guitar,0.45618027448654175,0
58,100,0.35909090909090907,176,1,68,_Remix_Guitar,6,6,_Remix_Guitar,0.9983231425285339,1
56,100,0.32272727272727275,430,1,68,_Remix_Guitar,6,5,_Remix_Guitar,0.546213686466217,1
56,100,0.16363636363636364,157,1,69,_Remix_Guitar,6,3,_Remix_Guitar,0.9990280866622925,1
60,100,0.2590909090909091,726,1,69,_Remix_Guitar,6,4,_Remix_Guitar,0.37033775448799133,0
60,100,0.2409090909090909,796,0,69,_Remix_Guitar,6,4,_Remix_Guitar,0.45617005228996277,0
60,100,0.12272727272727273,69,1,70,_Remix_Guitar,6,2,_Remix_Guitar,0.9986506104469299,1
54,100,0.11818181818181818,119,0,70,_Remix_Guitar,6,2,_Remix_Guitar,0.08798152953386307,0
60,100,0.1409090909090909,365,1,70,_Remix_Guitar,6,2,_Remix_Guitar,0.09298799932003021,0
63,100,0.5,475,0,70,_Remix_Guitar,6,8,_Remix_Guitar,0.10995382815599442,0
56,100,0.5227272727272727,663,0,70,_Remix_Guitar,6,8,_Remix_Guitar,0.1286756694316864,0
56,100,0.18181818181818182,826,0,70,_Remix_Guitar,6,3,_Remix_Guitar,0.1822224259376526,0
56,100,0.2409090909090909,475,1,71,_Remix_Guitar,6,4,_Remix_Guitar,0.9983231425285339,1
63,100,0.22272727272727272,673,0,71,_Remix_Guitar,6,4,_Remix_Guitar,0.5462175607681274,1
55,100,0.2,853,1,72,_Remix_Guitar,6,3,_Remix_Guitar,0.9792243838310242,1
55,100,0.1409090909090909,113,1,73,_Remix_Guitar,6,2,_Remix_Guitar,0.9990096092224121,1
63,100,0.18181818181818182,286,0,73,_Remix_Guitar,6,3,_Remix_Guitar,0.2332392930984497,0
55,100,0.23636363636363636,546,1,73,_Remix_Guitar,6,4,_Remix_Guitar,0.2705855965614319,0
56,100,0.11818181818181818,836,1,73,_Remix_Guitar,6,2,_Remix_Guitar,0.3579227924346924,0
53,100,0.23636363636363636,502,1,74,_Remix_Guitar,6,4,_Remix_Guitar,0.9983232617378235,1
60,100,0.1409090909090909,839,1,74,_Remix_Guitar,6,2,_Remix_Guitar,0.5462185144424438,1
55,100,0.1,123,1,75,_Remix_Guitar,6,2,_Remix_Guitar,0.9988439083099365,1
55,100,0.1409090909090909,299,0,75,_Remix_Guitar,6,2,_Remix_Guitar,0.13798320293426514,0
63,100,0.23636363636363636,392,0,75,_Remix_Guitar,6,4,_Remix_Guitar,0.16236302256584167,0
55,100,0.5,669,1,75,_Remix_Guitar,6,8,_Remix_Guitar,0.1910591870546341,0
55,100,0.2590909090909091,800,0,75,_Remix_Guitar,6,4,_Remix_Guitar,0.26196426153182983,0
60,100,0.1,250,1,76,_Remix_Guitar,6,2,_Remix_Guitar,0.9990094900131226,1
63,100,0.1590909090909091,299,0,76,_Remix_Guitar,6,3,_Remix_Guitar,0.2332308143377304,0
56,100,0.13636363636363635,743,1,76,_Remix_Guitar,6,2,_Remix_Guitar,0.2705875039100647,0
63,100,0.2409090909090909,800,0,76,_Remix_Guitar,6,4,_Remix_Guitar,0.35793209075927734,0
62,100,0.3,462,1,77,_Remix_Guitar,6,5,_Remix_Guitar,0.9990280866622925,1
62,100,0.3,590,0,77,_Remix_Guitar,6,5,_Remix_Guitar,0.37034714221954346,0
62,100,0.37727272727272726,690,0,77,_Remix_Guitar,6,6,_Remix_Guitar,0.45617586374282837,0
62,100,0.21818181818181817,119,1,78,_Remix_Guitar,6,3,_Remix_Guitar,0.9983232617378235,1
63,100,0.2409090909090909,470,1,78,_Remix_Guitar,6,4,_Remix_Guitar,0.5462144017219543,1
63,100,0.2,96,1,79,_Remix_Guitar,6,3,_Remix_Guitar,0.9983231425285339,1
63,100,0.21818181818181817,352,1,79,_Remix_Guitar,6,3,_Remix_Guitar,0.5462210178375244,1
56,100,0.1,796,1,80,_Remix_Guitar,6,2,_Remix_Guitar,0.9792236089706421,1
58,100,0.1409090909090909,286,1,81,_Remix_Guitar,6,2,_Remix_Guitar,0.9983232617378235,1
58,100,0.1409090909090909,320,0,81,_Remix_Guitar,6,2,_Remix_Guitar,0.5462208390235901,1
63,100,0.3409090909090909,330,1,82,_Remix_Guitar,6,5,_Remix_Guitar,0.9792242646217346,1
62,100,0.22272727272727272,475,1,83,_Remix_Guitar,6,4,_Remix_Guitar,0.9990094900131226,1
53,100,0.1409090909090909,619,0,83,_Remix_Guitar,6,2,_Remix_Guitar,0.23323224484920502,0
62,100,0.2409090909090909,729,0,83,_Remix_Guitar,6,4,_Remix_Guitar,0.27058738470077515,0
62,100,0.1409090909090909,817,0,83,_Remix_Guitar,6,2,_Remix_Guitar,0.35793617367744446,0
63,100,0.3181818181818182,30,1,85,_Remix_Guitar,6,5,_Remix_Guitar,0.9990280866622925,1
63,100,0.21818181818181817,294,1,85,_Remix_Guitar,6,3,_Remix_Guitar,0.3703453540802002,0
63,100,0.3,347,0,85,_Remix_Guitar,6,5,_Remix_Guitar,0.4561798870563507,0
62,100,0.11818181818181818,74,1,86,_Remix_Guitar,6,2,_Remix_Guitar,0.9990094900131226,1
55,100,0.11818181818181818,237,0,86,_Remix_Guitar,6,2,_Remix_Guitar,0.23324033617973328,0
55,100,0.22272727272727272,343,0,86,_Remix_Guitar,6,4,_Remix_Guitar,0.27058666944503784,0
58,100,0.4,800,1,86,_Remix_Guitar,6,6,_Remix_Guitar,0.357933908700943,0
63,100,0.16363636363636364,223,1,87,_Remix_Guitar,6,3,_Remix_Guitar,0.9988439083099365,1
63,100,0.4590909090909091,303,0,87,_Remix_Guitar,6,7,_Remix_Guitar,0.13798610866069794,0
56,100,0.11818181818181818,436,0,87,_Remix_Guitar,6,2,_Remix_Guitar,0.16237422823905945,0
63,100,0.18181818181818182,686,1,87,_Remix_Guitar,6,3,_Remix_Guitar,0.19106754660606384,0
63,100,0.38181818181818183,796,0,87,_Remix_Guitar,6,6,_Remix_Guitar,0.2619803547859192,0
56,100,0.12272727272727273,35,1,88,_Remix_Guitar,6,2,_Remix_Guitar,0.9983232617378235,1
56,100,0.2,83,0,88,_Remix_Guitar,6,3,_Remix_Guitar,0.5462139248847961,1
53,100,0.2409090909090909,113,1,90,_Remix_Guitar,6,4,_Remix_Guitar,0.9983232617378235,1
54,100,0.1,237,0,90,_Remix_Guitar,6,2,_Remix_Guitar,0.546218991279602,1
63,100,0.11818181818181818,62,1,91,_Remix_Guitar,6,2,_Remix_Guitar,0.9990280866622925,1
63,100,0.2409090909090909,163,0,91,_Remix_Guitar,6,4,_Remix_Guitar,0.3703477680683136,0
63,100,0.2590909090909091,726,1,91,_Remix_Guitar,6,4,_Remix_Guitar,0.4561826288700104,0
58,100,0.2,677,1,92,_Remix_Guitar,6,3,_Remix_Guitar,0.9792241454124451,1
63,100,0.5409090909090909,157,1,93,_Remix_Guitar,6,9,_Remix_Guitar,0.9983231425285339,1
56,100,0.1590909090909091,787,1,93,_Remix_Guitar,6,3,_Remix_Guitar,0.5462225079536438,1
62,100,0.2590909090909091,559,1,94,_Remix_Guitar,6,4,_Remix_Guitar,0.9983231425285339,1
55,100,0.18181818181818182,805,1,94,_Remix_Guitar,6,3,_Remix_Guitar,0.5462213754653931,1
55,100,0.2,540,1,95,_Remix_Guitar,6,3,_Remix_Guitar,0.9792242646217346,1
63,100,0.18181818181818182,110,1,96,_Remix_Guitar,6,3,_Remix_Guitar,0.9990094900131226,1
63,100,0.11818181818181818,197,0,96,_Remix_Guitar,6,2,_Remix_Guitar,0.2332330197095871,0
63,100,0.35909090909090907,263,0,96,_Remix_Guitar,6,6,_Remix_Guitar,0.27058863639831543,0
55,100,0.1409090909090909,673,1,96,_Remix_Guitar,6,2,_Remix_Guitar,0.3579372465610504,0
62,100,0.37727272727272726,193,1,97,_Remix_Guitar,6,6,_Remix_Guitar,0.9990280866622925,1
62,100,1.0636363636363637,289,0,97,_Remix_Guitar,6,15,_Remix_Guitar,0.3703444302082062,0
62,100,0.7772727272727272,800,1,97,_Remix_Guitar,6,12,_Remix_Guitar,0.45618173480033875,0
53,100,0.1590909090909091,145,1,98,_Remix_Guitar,6,3,_Remix_Guitar,0.9990094900131226,1
62,100,0.1590909090909091,193,0,98,_Remix_Guitar,6,3,_Remix_Guitar,0.23323506116867065,0
62,100,1.9772727272727273,339,0,98,_Remix_Guitar,6,15,_Remix_Guitar,0.27058079838752747,0
62,100,0.11818181818181818,779,1,98,_Remix_Guitar,6,2,_Remix_Guitar,0.3579416573047638,0
62,100,0.1409090909090909,356,1,99,_Remix_Guitar,6,2,_Remix_Guitar,0.9792236089706421,1
55,100,0.35909090909090907,540,1,100,_Remix_Guitar,6,6,_Remix_Guitar,0.9792241454124451,1
55,100,0.3,157,1,101,_Remix_Guitar,6,5,_Remix_Guitar,0.9792242646217346,1
63,100,0.1590909090909091,580,1,102,_Remix_Guitar,6,3,_Remix_Guitar,0.9792238473892212,1
56,100,0.2590909090909091,163,1,104,_Remix_Guitar,6,4,_Remix_Guitar,0.9983231425285339,1
63,100,0.3,320,0,104,_Remix_Guitar,6,5,_Remix_Guitar,0.5462243556976318,1
53,100,0.36363636363636365,157,1,105,_Remix_Guitar,6,6,_Remix_Guitar,0.9990280866622925,1
62,100,0.1,466,1,105,_Remix_Guitar,6,2,_Remix_Guitar,0.3703448176383972,0
63,100,0.2409090909090909,739,1,105,_Remix_Guitar,6,4,_Remix_Guitar,0.4561758041381836,0
60,100,0.17727272727272728,193,1,106,_Remix_Guitar,6,3,_Remix_Guitar,0.9983232617378235,1
63,100,0.1,690,1,106,_Remix_Guitar,6,2,_Remix_Guitar,0.5462062954902649,1
62,100,0.2,436,1,107,_Remix_Guitar,6,3,_Remix_Guitar,0.9990280866622925,1
62,100,0.4,509,0,107,_Remix_Guitar,6,6,_Remix_Guitar,0.3703470230102539,0
62,100,0.2590909090909091,695,0,107,_Remix_Guitar,6,4,_Remix_Guitar,0.45618557929992676,0
62,100,0.4,13,1,108,_Remix_Guitar,6,6,_Remix_Guitar,0.9990094900131226,1
62,100,0.17727272727272728,106,0,108,_Remix_Guitar,6,3,_Remix_Guitar,0.2332342118024826,0
62,100,0.2,430,1,108,_Remix_Guitar,6,3,_Remix_Guitar,0.27058759331703186,0
53,100,0.18181818181818182,862,1,108,_Remix_Guitar,6,3,_Remix_Guitar,0.3579438030719757,0
53,100,0.11818181818181818,30,1,109,_Remix_Guitar,6,2,_Remix_Guitar,0.9983231425285339,1
63,100,0.6,857,1,109,_Remix_Guitar,6,10,_Remix_Guitar,0.5462122559547424,1
63,100,0.1,113,1,110,_Remix_Guitar,6,2,_Remix_Guitar,0.9983232617378235,1
53,100,0.1,294,0,110,_Remix_Guitar,6,2,_Remix_Guitar,0.5462185144424438,1
63,100,0.3409090909090909,496,1,111,_Remix_Guitar,6,5,_Remix_Guitar,0.9983231425285339,1
63,100,0.1409090909090909,650,0,111,_Remix_Guitar,6,2,_Remix_Guitar,0.5462252497673035,1
65,100,0.3,320,1,112,_Remix_Guitar,6,5,_Remix_Guitar,0.9983232617378235,1
65,100,0.3409090909090909,399,0,112,_Remix_Guitar,6,5,_Remix_Guitar,0.5462099313735962,1
58,100,0.2,686,1,113,_Remix_Guitar,6,3,_Remix_Guitar,0.9983232617378235,1
82,100,0.5181818181818182,779,0,113,_Remix_Guitar,6,8,_Remix_Guitar,0.546217679977417,1
53,100,0.3181818181818182,677,1,115,_Remix_Guitar,6,5,_Remix_Guitar,0.9792237281799316,1
55,100,0.1590909090909091,62,1,116,_Remix_Guitar,6,3,_Remix_Guitar,0.9990280866622925,1
55,100,0.1590909090909091,360,1,116,_Remix_Guitar,6,3,_Remix_Guitar,0.3703344166278839,0
53,100,0.2,677,1,116,_Remix_Guitar,6,3,_Remix_Guitar,0.45616936683654785,0
53,100,0.1590909090909091,426,1,117,_Remix_Guitar,6,3,_Remix_Guitar,0.9792242646217346,1
53,100,0.11818181818181818,237,1,119,_Remix_Guitar,6,2,_Remix_Guitar,0.9983232617378235,1
55,100,0.1,457,0,119,_Remix_Guitar,6,2,_Remix_Guitar,0.5462180972099304,1
53,100,0.12272727272727273,210,1,121,_Remix_Guitar,6,2,_Remix_Guitar,0.9792241454124451,1
53,100,0.1409090909090909,660,1,122,_Remix_Guitar,6,2,_Remix_Guitar,0.9792237281799316,1
63,100,0.1,839,1,124,_Remix_Guitar,6,2,_Remix_Guitar,0.9792234897613525,1
53,100,0.3,40,1,127,_Remix_Guitar,6,5,_Remix_Guitar,0.9792232513427734,1
57,100,0.2,232,1,128,_Remix_Guitar,6,3,_Remix_Guitar,0.9792242646217346,1
53,100,0.1409090909090909,295,1,129,_Remix_Guitar,6,2,_Remix_Guitar,0.979223906993866,1
53,100,0.41818181818181815,413,1,130,_Remix_Guitar,6,7,_Remix_Guitar,0.9990280866622925,1
53,100,0.1,682,1,130,_Remix_Guitar,6,2,_Remix_Guitar,0.3703407645225525,0
53,100,0.38181818181818183,796,0,130,_Remix_Guitar,6,6,_Remix_Guitar,0.4561660587787628,0
53,100,0.1590909090909091,238,1,131,_Remix_Guitar,6,3,_Remix_Guitar,0.9792236089706421,1
60,100,0.1,228,1,135,_Remix_Guitar,6,2,_Remix_Guitar,0.9792243838310242,1
53,100,0.1409090909090909,79,1,136,_Remix_Guitar,6,2,_Remix_Guitar,0.9983231425285339,1
53,100,0.18181818181818182,180,0,136,_Remix_Guitar,6,3,_Remix_Guitar,0.5462137460708618,1
60,100,0.1590909090909091,185,1,142,_Remix_Guitar,6,3,_Remix_Guitar,0.9792241454124451,1
57,100,0.17727272727272728,492,1,0,DL_Guitar,6,3,DL_Guitar,0.9792236089706421,1
69,100,0.33636363636363636,39,1,1,DL_Guitar,6,5,DL_Guitar,0.9986506104469299,1
52,100,0.7,166,0,1,DL_Guitar,6,11,DL_Guitar,0.08798006922006607,0
52,100,0.1,351,0,1,DL_Guitar,6,2,DL_Guitar,0.09298551827669144,0
59,100,0.1409090909090909,449,0,1,DL_Guitar,6,2,DL_Guitar,0.10995161533355713,0
52,100,0.11818181818181818,638,0,1,DL_Guitar,6,2,DL_Guitar,0.12867552042007446,0
54,100,0.4409090909090909,796,0,1,DL_Guitar,6,7,DL_Guitar,0.1822231411933899,0
59,100,0.2,12,1,2,DL_Guitar,6,3,DL_Guitar,0.9990280866622925,1
54,100,0.3409090909090909,421,1,2,DL_Guitar,6,5,DL_Guitar,0.3703438341617584,0
57,100,0.33636363636363636,501,0,2,DL_Guitar,6,5,DL_Guitar,0.4561663568019867,0
57,100,0.1409090909090909,70,1,3,DL_Guitar,6,2,DL_Guitar,0.9990094900131226,1
69,100,0.2772727272727273,295,0,3,DL_Guitar,6,4,DL_Guitar,0.23322515189647675,0
59,100,0.3,550,1,3,DL_Guitar,6,5,DL_Guitar,0.27057933807373047,0
64,100,0.2818181818181818,629,0,3,DL_Guitar,6,5,DL_Guitar,0.35793161392211914,0
61,100,0.2590909090909091,255,1,4,DL_Guitar,6,4,DL_Guitar,0.9983231425285339,1
64,100,0.3,871,1,4,DL_Guitar,6,5,DL_Guitar,0.5462226867675781,1
52,100,0.3,56,1,5,DL_Guitar,6,5,DL_Guitar,0.9990094900131226,1
69,100,0.11818181818181818,514,1,5,DL_Guitar,6,2,DL_Guitar,0.23322626948356628,0
52,100,0.5772727272727273,678,0,5,DL_Guitar,6,9,DL_Guitar,0.270577073097229,0
52,100,0.2636363636363636,862,0,5,DL_Guitar,6,4,DL_Guitar,0.3579307198524475,0
64,100,0.1,79,1,6,DL_Guitar,6,2,DL_Guitar,0.9990094900131226,1
52,100,0.8,105,0,6,DL_Guitar,6,13,DL_Guitar,0.23322804272174835,0
54,100,0.43636363636363634,414,1,6,DL_Guitar,6,7,DL_Guitar,0.27058663964271545,0
59,100,0.2409090909090909,514,0,6,DL_Guitar,6,4,DL_Guitar,0.3579294681549072,0
54,100,0.1409090909090909,87,1,7,DL_Guitar,6,2,DL_Guitar,0.9990280866622925,1
57,100,0.32272727272727275,122,0,7,DL_Guitar,6,5,DL_Guitar,0.37032896280288696,0
54,100,0.1409090909090909,317,0,7,DL_Guitar,6,2,DL_Guitar,0.4561678171157837,0
59,100,0.1,34,1,8,DL_Guitar,6,2,DL_Guitar,0.9984880685806274,1
52,100,0.1,127,0,8,DL_Guitar,6,2,DL_Guitar,0.06335325539112091,0
59,100,0.37727272727272726,347,0,8,DL_Guitar,6,6,DL_Guitar,0.058289676904678345,0
54,100,0.3409090909090909,448,0,8,DL_Guitar,6,5,DL_Guitar,0.061362866312265396,0
52,100,0.38181818181818183,673,0,8,DL_Guitar,6,6,DL_Guitar,0.0716826543211937,0
57,100,0.3,766,0,8,DL_Guitar,6,5,DL_Guitar,0.08473529666662216,0
52,100,0.1,840,0,8,DL_Guitar,6,2,DL_Guitar,0.12635594606399536,0
57,100,0.21818181818181817,0,1,9,DL_Guitar,6,3,DL_Guitar,0.9984879493713379,1
61,100,0.23636363636363636,106,0,9,DL_Guitar,6,4,DL_Guitar,0.06335334479808807,0
57,100,0.2590909090909091,163,0,9,DL_Guitar,6,4,DL_Guitar,0.058288805186748505,0
61,100,0.2772727272727273,405,1,9,DL_Guitar,6,4,DL_Guitar,0.0613635890185833,0
57,100,0.11818181818181818,484,0,9,DL_Guitar,6,2,DL_Guitar,0.07168456166982651,0
57,100,0.1409090909090909,515,0,9,DL_Guitar,6,2,DL_Guitar,0.0847398117184639,0
52,100,0.23636363636363636,809,1,9,DL_Guitar,6,4,DL_Guitar,0.12635882198810577,0
52,100,0.2409090909090909,113,1,10,DL_Guitar,6,4,DL_Guitar,0.9984880685806274,1
52,100,0.2409090909090909,299,0,10,DL_Guitar,6,4,DL_Guitar,0.06335360556840897,0
64,100,0.1,400,0,10,DL_Guitar,6,2,DL_Guitar,0.05829080939292908,0
59,100,0.32272727272727275,431,0,10,DL_Guitar,6,5,DL_Guitar,0.06136263534426689,0
52,100,0.1590909090909091,611,0,10,DL_Guitar,6,3,DL_Guitar,0.07168290764093399,0
52,100,0.43636363636363634,656,0,10,DL_Guitar,6,7,DL_Guitar,0.08473759144544601,0
52,100,0.4409090909090909,795,0,10,DL_Guitar,6,7,DL_Guitar,0.12635287642478943,0
52,100,0.11818181818181818,264,1,11,DL_Guitar,6,2,DL_Guitar,0.9792242646217346,1
66,100,0.17727272727272728,185,1,12,DL_Guitar,6,3,DL_Guitar,0.9990280866622925,1
52,100,0.1,572,1,12,DL_Guitar,6,2,DL_Guitar,0.3703474998474121,0
68,100,0.2590909090909091,756,0,12,DL_Guitar,6,4,DL_Guitar,0.4561701714992523,0
54,100,0.2590909090909091,189,1,13,DL_Guitar,6,4,DL_Guitar,0.9983232617378235,1
54,100,0.1,691,1,13,DL_Guitar,6,2,DL_Guitar,0.5462161302566528,1
64,100,0.11818181818181818,457,1,14,DL_Guitar,6,2,DL_Guitar,0.9988439083099365,1
71,100,0.18181818181818182,496,0,14,DL_Guitar,6,3,DL_Guitar,0.13798001408576965,0
72,100,0.16363636363636364,553,0,14,DL_Guitar,6,3,DL_Guitar,0.16236592829227448,0
68,100,0.11818181818181818,625,0,14,DL_Guitar,6,2,DL_Guitar,0.19105300307273865,0
64,100,0.2590909090909091,871,1,14,DL_Guitar,6,4,DL_Guitar,0.26196780800819397,0
54,100,0.1,694,1,15,DL_Guitar,6,2,DL_Guitar,0.9983232617378235,1
55,100,0.1,747,0,15,DL_Guitar,6,2,DL_Guitar,0.5462098121643066,1
52,100,0.2,52,1,16,DL_Guitar,6,3,DL_Guitar,0.9990280866622925,1
52,100,0.35909090909090907,100,0,16,DL_Guitar,6,6,DL_Guitar,0.3703403174877167,0
52,100,0.1409090909090909,638,1,16,DL_Guitar,6,2,DL_Guitar,0.45617473125457764,0
52,100,0.2,193,1,17,DL_Guitar,6,3,DL_Guitar,0.9990280866622925,1
52,100,0.2409090909090909,250,0,17,DL_Guitar,6,4,DL_Guitar,0.3703380525112152,0
55,100,0.16363636363636364,443,0,17,DL_Guitar,6,3,DL_Guitar,0.45617204904556274,0
55,100,0.1,492,1,18,DL_Guitar,6,2,DL_Guitar,0.9792240262031555,1
57,100,0.2590909090909091,430,1,19,DL_Guitar,6,4,DL_Guitar,0.9990094900131226,1
52,100,0.2636363636363636,488,0,19,DL_Guitar,6,4,DL_Guitar,0.2332324981689453,0
64,100,0.1,677,0,19,DL_Guitar,6,2,DL_Guitar,0.2705819606781006,0
64,100,0.2,704,0,19,DL_Guitar,6,3,DL_Guitar,0.3579370975494385,0
54,100,1.0818181818181818,57,1,20,DL_Guitar,6,15,DL_Guitar,0.9988439083099365,1
54,100,0.17727272727272728,382,1,20,DL_Guitar,6,3,DL_Guitar,0.1379866600036621,0
54,100,0.1409090909090909,426,0,20,DL_Guitar,6,2,DL_Guitar,0.16236945986747742,0
57,100,0.2636363636363636,686,1,20,DL_Guitar,6,4,DL_Guitar,0.19105727970600128,0
57,100,0.18181818181818182,760,0,20,DL_Guitar,6,3,DL_Guitar,0.2619694173336029,0
57,100,0.23636363636363636,106,1,21,DL_Guitar,6,4,DL_Guitar,0.9988439083099365,1
57,100,0.1,179,0,21,DL_Guitar,6,2,DL_Guitar,0.13798324763774872,0
57,100,0.38181818181818183,285,0,21,DL_Guitar,6,6,DL_Guitar,0.16236655414104462,0
61,100,0.21818181818181817,505,0,21,DL_Guitar,6,3,DL_Guitar,0.19106005132198334,0
57,100,0.11818181818181818,590,0,21,DL_Guitar,6,2,DL_Guitar,0.26196882128715515,0
54,100,1.0772727272727274,326,1,22,DL_Guitar,6,15,DL_Guitar,0.9990280866622925,1
54,100,0.2818181818181818,694,1,22,DL_Guitar,6,5,DL_Guitar,0.37034568190574646,0
62,100,0.1409090909090909,791,0,22,DL_Guitar,6,2,DL_Guitar,0.4561641216278076,0
57,100,0.1,206,1,23,DL_Guitar,6,2,DL_Guitar,0.9988439083099365,1
57,100,0.35909090909090907,299,0,23,DL_Guitar,6,6,DL_Guitar,0.13798418641090393,0
57,100,0.1590909090909091,382,0,23,DL_Guitar,6,3,DL_Guitar,0.16236688196659088,0
52,100,0.6,546,0,23,DL_Guitar,6,10,DL_Guitar,0.19105859100818634,0
52,100,0.12272727272727273,717,0,23,DL_Guitar,6,2,DL_Guitar,0.26196789741516113,0
64,100,0.1409090909090909,9,1,24,DL_Guitar,6,2,DL_Guitar,0.9983735084533691,1
54,100,0.4,48,0,24,DL_Guitar,6,6,DL_Guitar,0.051050201058387756,0
54,100,0.2409090909090909,189,0,24,DL_Guitar,6,4,DL_Guitar,0.04161294922232628,0
52,100,0.2590909090909091,308,0,24,DL_Guitar,6,4,DL_Guitar,0.037980906665325165,0
68,100,0.1590909090909091,461,0,24,DL_Guitar,6,3,DL_Guitar,0.039261072874069214,0
54,100,0.1409090909090909,515,0,24,DL_Guitar,6,2,DL_Guitar,0.04616834968328476,0
54,100,0.7772727272727272,567,0,24,DL_Guitar,6,12,DL_Guitar,0.05713306739926338,0
54,100,0.21818181818181817,748,0,24,DL_Guitar,6,3,DL_Guitar,0.09188191592693329,0
54,100,0.11818181818181818,52,1,25,DL_Guitar,6,2,DL_Guitar,0.9986506104469299,1
54,100,0.11818181818181818,131,0,25,DL_Guitar,6,2,DL_Guitar,0.08797995746135712,0
62,100,0.2409090909090909,316,0,25,DL_Guitar,6,4,DL_Guitar,0.0929831862449646,0
62,100,0.2818181818181818,374,0,25,DL_Guitar,6,5,DL_Guitar,0.10995110869407654,0
57,100,0.11818181818181818,677,1,25,DL_Guitar,6,2,DL_Guitar,0.12867790460586548,0
61,100,0.1409090909090909,818,0,25,DL_Guitar,6,2,DL_Guitar,0.18222860991954803,0
57,100,0.5363636363636364,61,1,26,DL_Guitar,6,9,DL_Guitar,0.9990094900131226,1
52,100,0.35909090909090907,409,1,26,DL_Guitar,6,6,DL_Guitar,0.23322954773902893,0
52,100,0.1590909090909091,515,0,26,DL_Guitar,6,3,DL_Guitar,0.2705829441547394,0
52,100,0.5227272727272727,686,0,26,DL_Guitar,6,8,DL_Guitar,0.35793009400367737,0
54,100,0.1409090909090909,57,1,27,DL_Guitar,6,2,DL_Guitar,0.9990094900131226,1
62,100,0.1409090909090909,625,1,27,DL_Guitar,6,2,DL_Guitar,0.23323369026184082,0
62,100,0.12272727272727273,739,0,27,DL_Guitar,6,2,DL_Guitar,0.2705915868282318,0
57,100,0.2590909090909091,814,0,27,DL_Guitar,6,4,DL_Guitar,0.35793471336364746,0
52,100,0.8,52,1,28,DL_Guitar,6,13,DL_Guitar,0.9990280866622925,1
52,100,0.42272727272727273,443,1,28,DL_Guitar,6,7,DL_Guitar,0.37034860253334045,0
52,100,0.5409090909090909,686,1,28,DL_Guitar,6,9,DL_Guitar,0.4561733305454254,0
52,100,0.3,13,1,29,DL_Guitar,6,5,DL_Guitar,0.9990280866622925,1
52,100,0.1590909090909091,83,0,29,DL_Guitar,6,3,DL_Guitar,0.3703366219997406,0
64,100,0.2,119,0,29,DL_Guitar,6,3,DL_Guitar,0.456173837184906,0
57,100,0.4818181818181818,320,1,30,DL_Guitar,6,8,DL_Guitar,0.9984880685806274,1
57,100,0.38181818181818183,440,0,30,DL_Guitar,6,6,DL_Guitar,0.06335446238517761,0
69,100,0.1409090909090909,694,1,30,DL_Guitar,6,2,DL_Guitar,0.058291397988796234,0
69,100,0.11818181818181818,735,0,30,DL_Guitar,6,2,DL_Guitar,0.061364416033029556,0
57,100,0.1590909090909091,770,0,30,DL_Guitar,6,3,DL_Guitar,0.07168746739625931,0
69,100,0.1,804,0,30,DL_Guitar,6,2,DL_Guitar,0.08474013954401016,0
57,100,0.8409090909090909,866,0,30,DL_Guitar,6,13,DL_Guitar,0.12635673582553864,0
57,100,0.5181818181818182,185,1,31,DL_Guitar,6,8,DL_Guitar,0.9984879493713379,1
57,100,0.5409090909090909,308,0,31,DL_Guitar,6,9,DL_Guitar,0.06335338205099106,0
52,100,0.18181818181818182,453,0,31,DL_Guitar,6,3,DL_Guitar,0.058290399610996246,0
52,100,0.13636363636363635,523,0,31,DL_Guitar,6,2,DL_Guitar,0.06136339530348778,0
59,100,0.35909090909090907,571,0,31,DL_Guitar,6,6,DL_Guitar,0.0716865286231041,0
59,100,0.2590909090909091,700,0,31,DL_Guitar,6,4,DL_Guitar,0.08474212884902954,0
52,100,0.1,822,0,31,DL_Guitar,6,2,DL_Guitar,0.12635867297649384,0
59,100,0.5,188,1,32,DL_Guitar,6,8,DL_Guitar,0.9986506104469299,1
54,100,0.1590909090909091,426,1,32,DL_Guitar,6,3,DL_Guitar,0.08798044919967651,0
54,100,0.2636363636363636,488,0,32,DL_Guitar,6,4,DL_Guitar,0.09298502653837204,0
59,100,0.1,593,0,32,DL_Guitar,6,2,DL_Guitar,0.10994935780763626,0
54,100,0.3409090909090909,691,0,32,DL_Guitar,6,5,DL_Guitar,0.12867313623428345,0
59,100,0.4772727272727273,831,0,32,DL_Guitar,6,8,DL_Guitar,0.18221786618232727,0
57,100,0.2409090909090909,118,1,33,DL_Guitar,6,4,DL_Guitar,0.9988439083099365,1
52,100,0.5181818181818182,308,0,33,DL_Guitar,6,8,DL_Guitar,0.13798528909683228,0
52,100,0.1590909090909091,453,0,33,DL_Guitar,6,3,DL_Guitar,0.1623692810535431,0
52,100,0.2,571,0,33,DL_Guitar,6,3,DL_Guitar,0.1910664588212967,0
69,100,0.12272727272727273,818,1,33,DL_Guitar,6,2,DL_Guitar,0.2619812786579132,0
69,100,0.2,69,1,34,DL_Guitar,6,3,DL_Guitar,0.9986506104469299,1
57,100,0.2,188,0,34,DL_Guitar,6,3,DL_Guitar,0.08798374235630035,0
57,100,0.22272727272727272,254,0,34,DL_Guitar,6,4,DL_Guitar,0.09298908710479736,0
52,100,0.2,480,0,34,DL_Guitar,6,3,DL_Guitar,0.10996000468730927,0
69,100,0.3,616,0,34,DL_Guitar,6,5,DL_Guitar,0.12867842614650726,0
57,100,1.0818181818181818,818,0,34,DL_Guitar,6,15,DL_Guitar,0.18223391473293304,0
57,100,0.5590909090909091,298,1,35,DL_Guitar,6,9,DL_Guitar,0.9988439083099365,1
52,100,0.3,488,0,35,DL_Guitar,6,5,DL_Guitar,0.13798369467258453,0
52,100,0.5772727272727273,558,0,35,DL_Guitar,6,9,DL_Guitar,0.16236183047294617,0
59,100,0.3181818181818182,735,0,35,DL_Guitar,6,5,DL_Guitar,0.1910582184791565,0
52,100,0.1409090909090909,826,0,35,DL_Guitar,6,2,DL_Guitar,0.26197150349617004,0
57,100,0.22272727272727272,4,1,36,DL_Guitar,6,4,DL_Guitar,0.9983735084533691,1
53,100,0.4818181818181818,66,0,36,DL_Guitar,6,8,DL_Guitar,0.051049742847681046,0
53,100,0.5409090909090909,179,0,36,DL_Guitar,6,9,DL_Guitar,0.04161173477768898,0
59,100,0.1590909090909091,325,0,36,DL_Guitar,6,3,DL_Guitar,0.03797890245914459,0
53,100,0.37727272727272726,435,0,36,DL_Guitar,6,6,DL_Guitar,0.039258942008018494,0
54,100,0.42272727272727273,554,0,36,DL_Guitar,6,7,DL_Guitar,0.04616409167647362,0
54,100,0.1409090909090909,813,1,36,DL_Guitar,6,2,DL_Guitar,0.0571310892701149,0
54,100,0.5409090909090909,871,0,36,DL_Guitar,6,9,DL_Guitar,0.09187662601470947,0
54,100,0.5409090909090909,179,1,37,DL_Guitar,6,9,DL_Guitar,0.9986506104469299,1
54,100,0.5,311,0,37,DL_Guitar,6,8,DL_Guitar,0.08797819912433624,0
59,100,0.13636363636363635,523,0,37,DL_Guitar,6,2,DL_Guitar,0.09298243373632431,0
59,100,0.1409090909090909,584,0,37,DL_Guitar,6,2,DL_Guitar,0.10995182394981384,0
57,100,0.22272727272727272,628,0,37,DL_Guitar,6,4,DL_Guitar,0.12867183983325958,0
59,100,0.2,708,0,37,DL_Guitar,6,3,DL_Guitar,0.18222466111183167,0
59,100,0.2818181818181818,48,1,38,DL_Guitar,6,5,DL_Guitar,0.9988439083099365,1
59,100,0.2,198,0,38,DL_Guitar,6,3,DL_Guitar,0.13798734545707703,0
57,100,0.1590909090909091,260,0,38,DL_Guitar,6,3,DL_Guitar,0.16236600279808044,0
57,100,0.1590909090909091,571,1,38,DL_Guitar,6,3,DL_Guitar,0.19106346368789673,0
69,100,0.3,606,0,38,DL_Guitar,6,5,DL_Guitar,0.2619788944721222,0
62,100,0.2,461,1,39,DL_Guitar,6,3,DL_Guitar,0.9983232617378235,1
57,100,0.5590909090909091,804,1,39,DL_Guitar,6,9,DL_Guitar,0.5462210178375244,1
52,100,0.8772727272727273,75,1,40,DL_Guitar,6,14,DL_Guitar,0.9988439083099365,1
52,100,0.13636363636363635,413,1,40,DL_Guitar,6,2,DL_Guitar,0.13798508048057556,0
52,100,0.17727272727272728,448,0,40,DL_Guitar,6,3,DL_Guitar,0.16236889362335205,0
65,100,0.2772727272727273,603,0,40,DL_Guitar,6,4,DL_Guitar,0.19105897843837738,0
53,100,0.6,681,0,40,DL_Guitar,6,10,DL_Guitar,0.26197174191474915,0
53,100,0.2636363636363636,48,1,41,DL_Guitar,6,4,DL_Guitar,0.9983735084533691,1
59,100,0.18181818181818182,224,0,41,DL_Guitar,6,3,DL_Guitar,0.05105108022689819,0
54,100,0.4772727272727273,316,0,41,DL_Guitar,6,8,DL_Guitar,0.04161199554800987,0
59,100,0.2590909090909091,435,0,41,DL_Guitar,6,4,DL_Guitar,0.03797975555062294,0
54,100,0.3,501,0,41,DL_Guitar,6,5,DL_Guitar,0.039259400218725204,0
54,100,0.2409090909090909,576,0,41,DL_Guitar,6,4,DL_Guitar,0.04616560786962509,0
54,100,0.2772727272727273,678,0,41,DL_Guitar,6,4,DL_Guitar,0.05712966248393059,0
54,100,0.4590909090909091,813,0,41,DL_Guitar,6,7,DL_Guitar,0.09187972545623779,0
59,100,0.2409090909090909,66,1,42,DL_Guitar,6,4,DL_Guitar,0.9984879493713379,1
62,100,0.2,128,0,42,DL_Guitar,6,3,DL_Guitar,0.06335416436195374,0
57,100,0.2,254,0,42,DL_Guitar,6,3,DL_Guitar,0.058290641754865646,0
52,100,0.4818181818181818,321,0,42,DL_Guitar,6,8,DL_Guitar,0.06136482581496239,0
59,100,0.2818181818181818,616,1,42,DL_Guitar,6,5,DL_Guitar,0.07168494164943695,0
52,100,0.16363636363636364,708,0,42,DL_Guitar,6,3,DL_Guitar,0.08474063873291016,0
52,100,0.11818181818181818,831,0,42,DL_Guitar,6,2,DL_Guitar,0.12635484337806702,0
57,100,0.2818181818181818,48,1,43,DL_Guitar,6,5,DL_Guitar,0.9990280866622925,1
69,100,0.3181818181818182,743,1,43,DL_Guitar,6,5,DL_Guitar,0.37035077810287476,0
57,100,0.5181818181818182,813,0,43,DL_Guitar,6,8,DL_Guitar,0.45617830753326416,0
64,100,0.1590909090909091,721,1,44,DL_Guitar,6,3,DL_Guitar,0.9990280866622925,1
64,100,0.35909090909090907,788,0,44,DL_Guitar,6,6,DL_Guitar,0.3703385591506958,0
64,100,0.32272727272727275,871,0,44,DL_Guitar,6,5,DL_Guitar,0.4561750292778015,0
53,100,0.12272727272727273,211,1,45,DL_Guitar,6,2,DL_Guitar,0.9988439083099365,1
65,100,0.18181818181818182,334,0,45,DL_Guitar,6,3,DL_Guitar,0.13798277080059052,0
54,100,0.36363636363636365,686,1,45,DL_Guitar,6,6,DL_Guitar,0.16236543655395508,0
54,100,0.23636363636363636,810,0,45,DL_Guitar,6,4,DL_Guitar,0.19105589389801025,0
66,100,0.1409090909090909,866,0,45,DL_Guitar,6,2,DL_Guitar,0.2619684934616089,0
62,100,0.3181818181818182,668,1,46,DL_Guitar,6,5,DL_Guitar,0.9983231425285339,1
52,100,0.2818181818181818,826,0,46,DL_Guitar,6,5,DL_Guitar,0.5462256669998169,1
52,100,0.12272727272727273,13,1,47,DL_Guitar,6,2,DL_Guitar,0.9990094900131226,1
52,100,0.4409090909090909,43,0,47,DL_Guitar,6,7,DL_Guitar,0.23323161900043488,0
52,100,0.5818181818181818,179,0,47,DL_Guitar,6,9,DL_Guitar,0.2705879807472229,0
53,100,1.240909090909091,426,1,47,DL_Guitar,6,15,DL_Guitar,0.3579254150390625,0
54,100,0.42272727272727273,48,1,48,DL_Guitar,6,7,DL_Guitar,0.9990280866622925,1
61,100,0.2,163,0,48,DL_Guitar,6,3,DL_Guitar,0.3703402578830719,0
61,100,0.4818181818181818,440,1,48,DL_Guitar,6,8,DL_Guitar,0.45617443323135376,0
62,100,0.4,34,1,49,DL_Guitar,6,6,DL_Guitar,0.9988439083099365,1
52,100,1.3590909090909091,176,0,49,DL_Guitar,6,15,DL_Guitar,0.13798503577709198,0
52,100,0.2,480,1,49,DL_Guitar,6,3,DL_Guitar,0.1623772531747818,0
52,100,0.1590909090909091,638,0,49,DL_Guitar,6,3,DL_Guitar,0.19107280671596527,0
53,100,1.6363636363636365,678,0,49,DL_Guitar,6,15,DL_Guitar,0.26196783781051636,0
54,100,0.23636363636363636,303,1,50,DL_Guitar,6,4,DL_Guitar,0.9988439083099365,1
61,100,0.2409090909090909,440,0,50,DL_Guitar,6,4,DL_Guitar,0.13798266649246216,0
61,100,0.4818181818181818,571,0,50,DL_Guitar,6,8,DL_Guitar,0.16236229240894318,0
61,100,0.3,691,0,50,DL_Guitar,6,5,DL_Guitar,0.19106191396713257,0
57,100,0.13636363636363635,788,0,50,DL_Guitar,6,2,DL_Guitar,0.261968731880188,0
52,100,0.5,431,1,51,DL_Guitar,6,8,DL_Guitar,0.9990280866622925,1
52,100,0.1,545,0,51,DL_Guitar,6,2,DL_Guitar,0.37033677101135254,0
52,100,0.11818181818181818,691,0,51,DL_Guitar,6,2,DL_Guitar,0.4561716616153717,0
54,100,0.1590909090909091,0,1,52,DL_Guitar,6,3,DL_Guitar,0.9986506104469299,1
54,100,0.1,56,0,52,DL_Guitar,6,2,DL_Guitar,0.08798271417617798,0
61,100,0.7,91,0,52,DL_Guitar,6,11,DL_Guitar,0.09298494458198547,0
54,100,0.3,254,0,52,DL_Guitar,6,5,DL_Guitar,0.1099584549665451,0
54,100,0.1,325,0,52,DL_Guitar,6,2,DL_Guitar,0.12868031859397888,0
61,100,2.640909090909091,426,0,52,DL_Guitar,6,15,DL_Guitar,0.1822100132703781,0
57,100,1.440909090909091,158,1,53,DL_Guitar,6,15,DL_Guitar,0.9983231425285339,1
52,100,2.1,681,1,53,DL_Guitar,6,15,DL_Guitar,0.5462164878845215,1
52,100,0.11818181818181818,303,1,54,DL_Guitar,6,2,DL_Guitar,0.9792238473892212,1
57,100,0.18181818181818182,418,1,55,DL_Guitar,6,3,DL_Guitar,0.9988439083099365,1
57,100,0.1409090909090909,518,0,55,DL_Guitar,6,2,DL_Guitar,0.13798663020133972,0
57,100,0.37727272727272726,558,0,55,DL_Guitar,6,6,DL_Guitar,0.16236749291419983,0
57,100,0.21818181818181817,660,0,55,DL_Guitar,6,3,DL_Guitar,0.1910664141178131,0
57,100,0.38181818181818183,726,0,55,DL_Guitar,6,6,DL_Guitar,0.26197072863578796,0
57,100,0.2409090909090909,625,1,56,DL_Guitar,6,4,DL_Guitar,0.9983232617378235,1
57,100,0.4818181818181818,703,0,56,DL_Guitar,6,8,DL_Guitar,0.5462151169776917,1
57,100,0.22272727272727272,4,1,57,DL_Guitar,6,4,DL_Guitar,0.9984879493713379,1
57,100,0.4,91,0,57,DL_Guitar,6,6,DL_Guitar,0.06335360556840897,0
57,100,0.4818181818181818,330,1,57,DL_Guitar,6,8,DL_Guitar,0.05828885734081268,0
57,100,0.2590909090909091,453,0,57,DL_Guitar,6,4,DL_Guitar,0.06136147305369377,0
69,100,0.1409090909090909,531,0,57,DL_Guitar,6,2,DL_Guitar,0.07168348133563995,0
61,100,0.5,691,0,57,DL_Guitar,6,8,DL_Guitar,0.0847356989979744,0
59,100,0.6,810,0,57,DL_Guitar,6,10,DL_Guitar,0.12635290622711182,0
59,100,0.18181818181818182,153,1,58,DL_Guitar,6,3,DL_Guitar,0.9990094900131226,1
59,100,0.1,215,0,58,DL_Guitar,6,2,DL_Guitar,0.23322905600070953,0
52,100,0.4409090909090909,330,0,58,DL_Guitar,6,7,DL_Guitar,0.2705818712711334,0
52,100,0.11818181818181818,536,0,58,DL_Guitar,6,2,DL_Guitar,0.35793566703796387,0
61,100,0.1409090909090909,48,1,59,DL_Guitar,6,2,DL_Guitar,0.9990280866622925,1
61,100,0.3,110,0,59,DL_Guitar,6,5,DL_Guitar,0.3703441321849823,0
57,100,0.1409090909090909,770,1,59,DL_Guitar,6,2,DL_Guitar,0.4561729431152344,0
57,100,0.11818181818181818,330,1,60,DL_Guitar,6,2,DL_Guitar,0.9990280866622925,1
61,100,0.5636363636363636,421,0,60,DL_Guitar,6,9,DL_Guitar,0.3703414797782898,0
61,100,0.3181818181818182,678,1,60,DL_Guitar,6,5,DL_Guitar,0.4561668932437897,0
57,100,0.4636363636363636,444,1,61,DL_Guitar,6,7,DL_Guitar,0.9990280866622925,1
54,100,0.35909090909090907,550,0,61,DL_Guitar,6,6,DL_Guitar,0.37033799290657043,0
57,100,0.13636363636363635,633,0,61,DL_Guitar,6,2,DL_Guitar,0.45617273449897766,0
57,100,0.11818181818181818,316,1,62,DL_Guitar,6,2,DL_Guitar,0.9990094900131226,1
57,100,0.1,471,0,62,DL_Guitar,6,2,DL_Guitar,0.23323094844818115,0
57,100,0.18181818181818182,628,0,62,DL_Guitar,6,3,DL_Guitar,0.27058473229408264,0
59,100,0.4590909090909091,810,0,62,DL_Guitar,6,7,DL_Guitar,0.3579334616661072,0
61,100,0.13636363636363635,171,1,63,DL_Guitar,6,2,DL_Guitar,0.9983735084533691,1
59,100,0.35909090909090907,316,0,63,DL_Guitar,6,6,DL_Guitar,0.05105135962367058,0
57,100,0.2409090909090909,431,0,63,DL_Guitar,6,4,DL_Guitar,0.041612252593040466,0
54,100,0.1,691,1,63,DL_Guitar,6,2,DL_Guitar,0.037980400025844574,0
54,100,0.17727272727272728,721,0,63,DL_Guitar,6,3,DL_Guitar,0.039260219782590866,0
57,100,0.12272727272727273,774,0,63,DL_Guitar,6,2,DL_Guitar,0.046164847910404205,0
54,100,0.11818181818181818,813,0,63,DL_Guitar,6,2,DL_Guitar,0.057132553309202194,0
54,100,0.12272727272727273,848,0,63,DL_Guitar,6,2,DL_Guitar,0.09187860786914825,0
57,100,0.1590909090909091,0,1,64,DL_Guitar,6,3,DL_Guitar,0.9990280866622925,1
57,100,0.7181818181818181,550,1,64,DL_Guitar,6,11,DL_Guitar,0.37034448981285095,0
57,100,0.4,849,1,64,DL_Guitar,6,6,DL_Guitar,0.4561760127544403,0
57,100,0.2409090909090909,66,1,65,DL_Guitar,6,4,DL_Guitar,0.9990280866622925,1
59,100,0.8363636363636363,172,0,65,DL_Guitar,6,13,DL_Guitar,0.3703399896621704,0
61,100,0.2409090909090909,404,1,65,DL_Guitar,6,4,DL_Guitar,0.4561631679534912,0
59,100,0.8590909090909091,426,1,66,DL_Guitar,6,14,DL_Guitar,0.9990280866622925,1
69,100,0.1,796,1,66,DL_Guitar,6,2,DL_Guitar,0.37034380435943604,0
62,100,0.12272727272727273,849,0,66,DL_Guitar,6,2,DL_Guitar,0.45617061853408813,0
62,100,0.1590909090909091,0,1,67,DL_Guitar,6,3,DL_Guitar,0.9983004927635193,1
64,100,0.5181818181818182,40,0,67,DL_Guitar,6,8,DL_Guitar,0.044663287699222565,0
64,100,0.3409090909090909,176,0,67,DL_Guitar,6,5,DL_Guitar,0.03337307646870613,0
52,100,0.37727272727272726,436,1,67,DL_Guitar,6,6,DL_Guitar,0.02695021592080593,0
52,100,0.17727272727272728,546,0,67,DL_Guitar,6,3,DL_Guitar,0.02408582530915737,0
52,100,0.1590909090909091,603,0,67,DL_Guitar,6,3,DL_Guitar,0.024974722415208817,0
52,100,0.13636363636363635,656,0,67,DL_Guitar,6,2,DL_Guitar,0.030650544911623,0
52,100,0.3409090909090909,690,0,67,DL_Guitar,6,5,DL_Guitar,0.04137113690376282,0
52,100,0.38181818181818183,849,0,67,DL_Guitar,6,6,DL_Guitar,0.07207562029361725,0
52,100,0.2,233,1,68,DL_Guitar,6,3,DL_Guitar,0.9990280866622925,1
52,100,0.37727272727272726,294,0,68,DL_Guitar,6,6,DL_Guitar,0.3703308403491974,0
59,100,0.13636363636363635,457,0,68,DL_Guitar,6,2,DL_Guitar,0.456177294254303,0
57,100,0.4,189,1,69,DL_Guitar,6,6,DL_Guitar,0.9990280866622925,1
52,100,0.2,686,1,69,DL_Guitar,6,3,DL_Guitar,0.3703398108482361,0
52,100,0.1590909090909091,832,0,69,DL_Guitar,6,3,DL_Guitar,0.45617949962615967,0
52,100,0.2590909090909091,56,1,70,DL_Guitar,6,4,DL_Guitar,0.9986506104469299,1
59,100,0.1409090909090909,140,0,70,DL_Guitar,6,2,DL_Guitar,0.08798053115606308,0
53,100,0.5818181818181818,307,0,70,DL_Guitar,6,9,DL_Guitar,0.0929800420999527,0
53,100,0.1590909090909091,453,0,70,DL_Guitar,6,3,DL_Guitar,0.1099480390548706,0
53,100,0.1409090909090909,642,0,70,DL_Guitar,6,2,DL_Guitar,0.12867030501365662,0
56,100,0.11818181818181818,734,0,70,DL_Guitar,6,2,DL_Guitar,0.18221311271190643,0
61,100,0.11818181818181818,153,1,71,DL_Guitar,6,2,DL_Guitar,0.9990280866622925,1
57,100,0.1590909090909091,673,1,71,DL_Guitar,6,3,DL_Guitar,0.3703456223011017,0
57,100,0.2,823,0,71,DL_Guitar,6,3,DL_Guitar,0.4561777114868164,0
57,100,0.1590909090909091,9,1,72,DL_Guitar,6,3,DL_Guitar,0.9990094900131226,1
59,100,1.059090909090909,193,0,72,DL_Guitar,6,15,DL_Guitar,0.2332332283258438,0
69,100,0.21818181818181817,502,1,72,DL_Guitar,6,3,DL_Guitar,0.2705853283405304,0
57,100,0.33636363636363636,743,1,72,DL_Guitar,6,5,DL_Guitar,0.35793444514274597,0
61,100,0.11818181818181818,514,1,73,DL_Guitar,6,2,DL_Guitar,0.9990280866622925,1
61,100,0.42272727272727273,585,0,73,DL_Guitar,6,7,DL_Guitar,0.37034016847610474,0
57,100,0.3409090909090909,870,1,73,DL_Guitar,6,5,DL_Guitar,0.4561727046966553,0
57,100,0.21818181818181817,132,1,74,DL_Guitar,6,3,DL_Guitar,0.9986506104469299,1
57,100,0.2772727272727273,237,0,74,DL_Guitar,6,4,DL_Guitar,0.08797995746135712,0
52,100,0.2590909090909091,559,1,74,DL_Guitar,6,4,DL_Guitar,0.09298519790172577,0
52,100,0.18181818181818182,619,0,74,DL_Guitar,6,3,DL_Guitar,0.109951451420784,0
64,100,0.18181818181818182,682,0,74,DL_Guitar,6,3,DL_Guitar,0.12867489457130432,0
59,100,0.2818181818181818,726,0,74,DL_Guitar,6,5,DL_Guitar,0.18222138285636902,0
61,100,0.1,17,1,75,DL_Guitar,6,2,DL_Guitar,0.9988439083099365,1
53,100,1.1409090909090909,47,0,75,DL_Guitar,6,15,DL_Guitar,0.13797780871391296,0
61,100,0.6409090909090909,316,1,75,DL_Guitar,6,10,DL_Guitar,0.162361741065979,0
61,100,0.12272727272727273,606,1,75,DL_Guitar,6,2,DL_Guitar,0.19105596840381622,0
61,100,0.3,739,0,75,DL_Guitar,6,5,DL_Guitar,0.2619644105434418,0
59,100,0.17727272727272728,9,1,76,DL_Guitar,6,3,DL_Guitar,0.9988439083099365,1
52,100,0.18181818181818182,550,1,76,DL_Guitar,6,3,DL_Guitar,0.1379781812429428,0
52,100,0.1409090909090909,739,0,76,DL_Guitar,6,2,DL_Guitar,0.16236461699008942,0
52,100,0.16363636363636364,773,0,76,DL_Guitar,6,3,DL_Guitar,0.19105979800224304,0
59,100,0.21818181818181817,813,0,76,DL_Guitar,6,3,DL_Guitar,0.2619746923446655,0
59,100,0.3,176,1,77,DL_Guitar,6,5,DL_Guitar,0.9988439083099365,1
59,100,0.5590909090909091,307,0,77,DL_Guitar,6,9,DL_Guitar,0.1379799097776413,0
64,100,0.18181818181818182,440,0,77,DL_Guitar,6,3,DL_Guitar,0.16236832737922668,0
59,100,0.17727272727272728,502,0,77,DL_Guitar,6,3,DL_Guitar,0.19105760753154755,0
59,100,0.4409090909090909,559,0,77,DL_Guitar,6,7,DL_Guitar,0.2619662284851074,0
57,100,0.3,289,1,78,DL_Guitar,6,5,DL_Guitar,0.9792237281799316,1
65,100,0.1409090909090909,449,1,79,DL_Guitar,6,2,DL_Guitar,0.9986506104469299,1
65,100,0.18181818181818182,550,0,79,DL_Guitar,6,3,DL_Guitar,0.0879766047000885,0
65,100,0.2,597,0,79,DL_Guitar,6,3,DL_Guitar,0.09298428893089294,0
65,100,0.6636363636363637,663,0,79,DL_Guitar,6,11,DL_Guitar,0.10994571447372437,0
65,100,0.1409090909090909,813,0,79,DL_Guitar,6,2,DL_Guitar,0.1286705881357193,0
65,100,0.5227272727272727,849,0,79,DL_Guitar,6,8,DL_Guitar,0.18220920860767365,0
59,100,0.2,246,1,80,DL_Guitar,6,3,DL_Guitar,0.9990094900131226,1
59,100,0.17727272727272728,294,0,80,DL_Guitar,6,3,DL_Guitar,0.2332274615764618,0
59,100,0.2,496,0,80,DL_Guitar,6,3,DL_Guitar,0.2705768346786499,0
52,100,0.2772727272727273,722,0,80,DL_Guitar,6,4,DL_Guitar,0.35793086886405945,0
52,100,0.6227272727272727,47,1,81,DL_Guitar,6,10,DL_Guitar,0.9983231425285339,1
61,100,1.7818181818181817,263,0,81,DL_Guitar,6,15,DL_Guitar,0.5462063550949097,1
57,100,0.2590909090909091,127,1,82,DL_Guitar,6,4,DL_Guitar,0.9990094900131226,1
57,100,0.2409090909090909,263,0,82,DL_Guitar,6,4,DL_Guitar,0.23324324190616608,0
57,100,0.1,320,0,82,DL_Guitar,6,2,DL_Guitar,0.2705990970134735,0
57,100,0.759090909090909,440,0,82,DL_Guitar,6,12,DL_Guitar,0.35793638229370117,0
57,100,0.12272727272727273,13,1,83,DL_Guitar,6,2,DL_Guitar,0.9990280866622925,1
57,100,0.2,303,1,83,DL_Guitar,6,3,DL_Guitar,0.37033480405807495,0
52,100,0.1,857,1,83,DL_Guitar,6,2,DL_Guitar,0.45617228746414185,0
61,100,0.3,197,1,84,DL_Guitar,6,5,DL_Guitar,0.9990094900131226,1
61,100,1.0,347,0,84,DL_Guitar,6,15,DL_Guitar,0.23322559893131256,0
61,100,0.5227272727272727,707,1,84,DL_Guitar,6,8,DL_Guitar,0.2705821394920349,0
61,100,0.38181818181818183,836,0,84,DL_Guitar,6,6,DL_Guitar,0.3579246401786804,0
52,100,0.4818181818181818,166,1,85,DL_Guitar,6,8,DL_Guitar,0.9986506104469299,1
52,100,0.6,286,0,85,DL_Guitar,6,10,DL_Guitar,0.08798103034496307,0
52,100,0.3,422,0,85,DL_Guitar,6,5,DL_Guitar,0.0929846540093422,0
52,100,0.35909090909090907,603,0,85,DL_Guitar,6,6,DL_Guitar,0.10995060205459595,0
59,100,0.32272727272727275,729,0,85,DL_Guitar,6,5,DL_Guitar,0.1286764144897461,0
59,100,0.18181818181818182,817,0,85,DL_Guitar,6,3,DL_Guitar,0.1822235882282257,0
64,100,0.2409090909090909,113,1,86,DL_Guitar,6,4,DL_Guitar,0.9986506104469299,1
59,100,0.42272727272727273,202,0,86,DL_Guitar,6,7,DL_Guitar,0.08798056840896606,0
57,100,0.1409090909090909,493,1,86,DL_Guitar,6,2,DL_Guitar,0.09298736602067947,0
57,100,0.35909090909090907,527,0,86,DL_Guitar,6,6,DL_Guitar,0.10995303094387054,0
57,100,0.2772727272727273,624,0,86,DL_Guitar,6,4,DL_Guitar,0.12867967784404755,0
57,100,1.1590909090909092,813,0,86,DL_Guitar,6,15,DL_Guitar,0.18222646415233612,0
57,100,0.2409090909090909,250,1,87,DL_Guitar,6,4,DL_Guitar,0.9792242646217346,1
59,100,0.1409090909090909,506,1,90,DL_Guitar,6,2,DL_Guitar,0.9990280866622925,1
59,100,0.1,646,0,90,DL_Guitar,6,2,DL_Guitar,0.37033528089523315,0
59,100,0.4590909090909091,823,0,90,DL_Guitar,6,7,DL_Guitar,0.45616915822029114,0
59,100,0.5,79,1,91,DL_Guitar,6,8,DL_Guitar,0.9990280866622925,1
52,100,0.17727272727272728,316,1,91,DL_Guitar,6,3,DL_Guitar,0.37033703923225403,0
52,100,0.4,817,1,91,DL_Guitar,6,6,DL_Guitar,0.45617422461509705,0
57,100,0.22272727272727272,100,1,92,DL_Guitar,6,4,DL_Guitar,0.9984879493713379,1
66,100,0.18181818181818182,197,0,92,DL_Guitar,6,3,DL_Guitar,0.0633544847369194,0
55,100,0.11818181818181818,426,0,92,DL_Guitar,6,2,DL_Guitar,0.05828933045268059,0
55,100,0.11818181818181818,480,0,92,DL_Guitar,6,2,DL_Guitar,0.06136300042271614,0
56,100,0.1409090909090909,506,0,92,DL_Guitar,6,2,DL_Guitar,0.07168145477771759,0
52,100,0.4,572,0,92,DL_Guitar,6,6,DL_Guitar,0.08473603427410126,0
59,100,0.32272727272727275,707,0,92,DL_Guitar,6,5,DL_Guitar,0.12635034322738647,0
64,100,0.16363636363636364,3,1,93,DL_Guitar,6,3,DL_Guitar,0.9988439083099365,1
59,100,0.11818181818181818,150,0,93,DL_Guitar,6,2,DL_Guitar,0.13798680901527405,0
65,100,0.4590909090909091,320,0,93,DL_Guitar,6,7,DL_Guitar,0.16237033903598785,0
65,100,0.2772727272727273,426,0,93,DL_Guitar,6,4,DL_Guitar,0.19106443226337433,0
57,100,0.5181818181818182,844,1,93,DL_Guitar,6,8,DL_Guitar,0.26196223497390747,0
59,100,0.3181818181818182,813,1,94,DL_Guitar,6,5,DL_Guitar,0.979223906993866,1
59,100,0.32272727272727275,92,1,95,DL_Guitar,6,5,DL_Guitar,0.9983232617378235,1
59,100,0.1409090909090909,223,0,95,DL_Guitar,6,2,DL_Guitar,0.5462120771408081,1
54,100,0.1590909090909091,53,1,96,DL_Guitar,6,3,DL_Guitar,0.9983232617378235,1
57,100,0.6181818181818182,734,1,96,DL_Guitar,6,10,DL_Guitar,0.5462133288383484,1
57,100,0.21818181818181817,0,1,97,DL_Guitar,6,3,DL_Guitar,0.9990094900131226,1
59,100,0.4818181818181818,189,0,97,DL_Guitar,6,8,DL_Guitar,0.23323708772659302,0
64,100,0.11818181818181818,493,1,97,DL_Guitar,6,2,DL_Guitar,0.2705942392349243,0
57,100,0.8409090909090909,823,1,97,DL_Guitar,6,13,DL_Guitar,0.35793250799179077,0
57,100,0.12272727272727273,157,1,98,DL_Guitar,6,2,DL_Guitar,0.979223906993866,1
57,100,0.2409090909090909,443,1,100,DL_Guitar,6,4,DL_Guitar,0.9990094900131226,1
57,100,0.2409090909090909,563,0,100,DL_Guitar,6,4,DL_Guitar,0.23322243988513947,0
57,100,0.2,633,0,100,DL_Guitar,6,3,DL_Guitar,0.2705824077129364,0
59,100,0.5590909090909091,810,0,100,DL_Guitar,6,9,DL_Guitar,0.35792097449302673,0
59,100,0.11818181818181818,83,1,101,DL_Guitar,6,2,DL_Guitar,0.9986506104469299,1
59,100,0.4,153,0,101,DL_Guitar,6,6,DL_Guitar,0.08797796815633774,0
59,100,0.2,260,0,101,DL_Guitar,6,3,DL_Guitar,0.09298308938741684,0
59,100,0.5227272727272727,430,0,101,DL_Guitar,6,8,DL_Guitar,0.10994771867990494,0
53,100,0.3,677,1,101,DL_Guitar,6,5,DL_Guitar,0.12866991758346558,0
59,100,0.2,756,0,101,DL_Guitar,6,3,DL_Guitar,0.1822212189435959,0
57,100,0.4772727272727273,193,1,102,DL_Guitar,6,8,DL_Guitar,0.9990094900131226,1
57,100,0.18181818181818182,597,1,102,DL_Guitar,6,3,DL_Guitar,0.23323985934257507,0
57,100,0.4636363636363636,707,0,102,DL_Guitar,6,7,DL_Guitar,0.2705889046192169,0
57,100,0.1,839,0,102,DL_Guitar,6,2,DL_Guitar,0.3579308092594147,0
57,100,0.12272727272727273,35,1,103,DL_Guitar,6,2,DL_Guitar,0.9990094900131226,1
59,100,0.5181818181818182,184,0,103,DL_Guitar,6,8,DL_Guitar,0.23323185741901398,0
59,100,0.7227272727272728,312,0,103,DL_Guitar,6,12,DL_Guitar,0.27057698369026184,0
52,100,0.13636363636363635,502,0,103,DL_Guitar,6,2,DL_Guitar,0.3579307496547699,0
57,100,0.1,282,1,104,DL_Guitar,6,2,DL_Guitar,0.9983004927635193,1
57,100,0.18181818181818182,466,0,104,DL_Guitar,6,3,DL_Guitar,0.04466354101896286,0
57,100,0.1,514,0,104,DL_Guitar,6,2,DL_Guitar,0.03337200731039047,0
57,100,0.2590909090909091,540,0,104,DL_Guitar,6,4,DL_Guitar,0.02694859355688095,0
57,100,0.11818181818181818,616,0,104,DL_Guitar,6,2,DL_Guitar,0.02408359944820404,0
57,100,0.2409090909090909,682,0,104,DL_Guitar,6,4,DL_Guitar,0.024973606690764427,0
57,100,0.1,743,0,104,DL_Guitar,6,2,DL_Guitar,0.03064858913421631,0
57,100,0.1590909090909091,770,0,104,DL_Guitar,6,3,DL_Guitar,0.0413697212934494,0
57,100,0.1,813,0,104,DL_Guitar,6,2,DL_Guitar,0.07207144051790237,0
57,100,0.11818181818181818,9,1,105,DL_Guitar,6,2,DL_Guitar,0.9792237281799316,1
57,100,0.18181818181818182,356,1,0,DL_JapaneseFolk_Guitar,6,3,DL_JapaneseFolk_Guitar,0.9990094900131226,1
61,100,0.17727272727272728,524,0,0,DL_JapaneseFolk_Guitar,6,3,DL_JapaneseFolk_Guitar,0.23323042690753937,0
54,100,0.18181818181818182,717,0,0,DL_JapaneseFolk_Guitar,6,3,DL_JapaneseFolk_Guitar,0.2705822288990021,0
52,100,0.2590909090909091,849,0,0,DL_JapaneseFolk_Guitar,6,4,DL_JapaneseFolk_Guitar,0.3579281270503998,0
57,100,0.3181818181818182,30,1,1,DL_JapaneseFolk_Guitar,6,5,DL_JapaneseFolk_Guitar,0.9986506104469299,1
59,100,0.37727272727272726,149,0,1,DL_JapaneseFolk_Guitar,6,6,DL_JapaneseFolk_Guitar,0.08798175305128098,0
59,100,0.2409090909090909,290,0,1,DL_JapaneseFolk_Guitar,6,4,DL_JapaneseFolk_Guitar,0.09298587590456009,0
57,100,0.2772727272727273,479,0,1,DL_JapaneseFolk_Guitar,6,4,DL_JapaneseFolk_Guitar,0.10994959622621536,0
57,100,0.7,673,0,1,DL_JapaneseFolk_Guitar,6,11,DL_JapaneseFolk_Guitar,0.1286708563566208,0
54,100,0.3,866,0,1,DL_JapaneseFolk_Guitar,6,5,DL_JapaneseFolk_Guitar,0.18222647905349731,0
52,100,0.5590909090909091,57,1,2,DL_JapaneseFolk_Guitar,6,9,DL_JapaneseFolk_Guitar,0.9988439083099365,1
57,100,0.2818181818181818,180,0,2,DL_JapaneseFolk_Guitar,6,5,DL_JapaneseFolk_Guitar,0.13798558712005615,0
57,100,0.2590909090909091,633,1,2,DL_JapaneseFolk_Guitar,6,4,DL_JapaneseFolk_Guitar,0.16237129271030426,0
59,100,0.2590909090909091,703,0,2,DL_JapaneseFolk_Guitar,6,4,DL_JapaneseFolk_Guitar,0.1910649538040161,0
57,100,0.740909090909091,822,0,2,DL_JapaneseFolk_Guitar,6,12,DL_JapaneseFolk_Guitar,0.26196545362472534,0
54,100,0.1409090909090909,144,1,3,DL_JapaneseFolk_Guitar,6,2,DL_JapaneseFolk_Guitar,0.9988439083099365,1
57,100,0.9,201,0,3,DL_JapaneseFolk_Guitar,6,14,DL_JapaneseFolk_Guitar,0.13798148930072784,0
52,100,0.2409090909090909,466,1,3,DL_JapaneseFolk_Guitar,6,4,DL_JapaneseFolk_Guitar,0.16236740350723267,0
52,100,0.1590909090909091,611,0,3,DL_JapaneseFolk_Guitar,6,3,DL_JapaneseFolk_Guitar,0.19105693697929382,0
52,100,0.11818181818181818,788,0,3,DL_JapaneseFolk_Guitar,6,2,DL_JapaneseFolk_Guitar,0.2619733214378357,0
59,100,0.6409090909090909,91,1,4,DL_JapaneseFolk_Guitar,6,10,DL_JapaneseFolk_Guitar,0.9986506104469299,1
56,100,0.2,307,0,4,DL_JapaneseFolk_Guitar,6,3,DL_JapaneseFolk_Guitar,0.08797615021467209,0
64,100,0.21818181818181817,373,0,4,DL_JapaneseFolk_Guitar,6,3,DL_JapaneseFolk_Guitar,0.0929832011461258,0
52,100,0.22272727272727272,421,0,4,DL_JapaneseFolk_Guitar,6,4,DL_JapaneseFolk_Guitar,0.10994582623243332,0
59,100,0.1409090909090909,509,0,4,DL_JapaneseFolk_Guitar,6,2,DL_JapaneseFolk_Guitar,0.12866947054862976,0
59,100,0.6590909090909091,637,0,4,DL_JapaneseFolk_Guitar,6,11,DL_JapaneseFolk_Guitar,0.18221186101436615,0
61,100,0.1590909090909091,128,1,5,DL_JapaneseFolk_Guitar,6,3,DL_JapaneseFolk_Guitar,0.9986506104469299,1
57,100,0.740909090909091,242,0,5,DL_JapaneseFolk_Guitar,6,12,DL_JapaneseFolk_Guitar,0.08798164129257202,0
52,100,0.1590909090909091,452,0,5,DL_JapaneseFolk_Guitar,6,3,DL_JapaneseFolk_Guitar,0.09299110621213913,0
52,100,0.3409090909090909,496,0,5,DL_JapaneseFolk_Guitar,6,5,DL_JapaneseFolk_Guitar,0.1099555566906929,0
52,100,0.38181818181818183,761,1,5,DL_JapaneseFolk_Guitar,6,6,DL_JapaneseFolk_Guitar,0.1286802589893341,0
57,100,0.5181818181818182,844,0,5,DL_JapaneseFolk_Guitar,6,8,DL_JapaneseFolk_Guitar,0.18222138285636902,0
57,100,0.4,207,1,6,DL_JapaneseFolk_Guitar,6,6,DL_JapaneseFolk_Guitar,0.9990094900131226,1
52,100,0.1,307,0,6,DL_JapaneseFolk_Guitar,6,2,DL_JapaneseFolk_Guitar,0.23323555290699005,0
57,100,0.8772727272727273,391,0,6,DL_JapaneseFolk_Guitar,6,14,DL_JapaneseFolk_Guitar,0.2705763876438141,0
52,100,0.6181818181818182,593,0,6,DL_JapaneseFolk_Guitar,6,10,DL_JapaneseFolk_Guitar,0.3579312562942505,0
57,100,0.3181818181818182,40,1,7,DL_JapaneseFolk_Guitar,6,5,DL_JapaneseFolk_Guitar,0.9990280866622925,1
52,100,0.2590909090909091,110,0,7,DL_JapaneseFolk_Guitar,6,4,DL_JapaneseFolk_Guitar,0.3703511357307434,0
57,100,0.3181818181818182,545,1,7,DL_JapaneseFolk_Guitar,6,5,DL_JapaneseFolk_Guitar,0.4561684727668762,0
59,100,0.36363636363636365,180,1,8,DL_JapaneseFolk_Guitar,6,6,DL_JapaneseFolk_Guitar,0.9792232513427734,1
57,100,0.23636363636363636,17,1,9,DL_JapaneseFolk_Guitar,6,4,DL_JapaneseFolk_Guitar,0.9990280866622925,1
62,100,0.3181818181818182,646,1,9,DL_JapaneseFolk_Guitar,6,5,DL_JapaneseFolk_Guitar,0.3703468441963196,0
57,100,0.5590909090909091,876,0,9,DL_JapaneseFolk_Guitar,6,9,DL_JapaneseFolk_Guitar,0.4561758041381836,0
62,100,0.5409090909090909,233,1,10,DL_JapaneseFolk_Guitar,6,9,DL_JapaneseFolk_Guitar,0.9990094900131226,1
57,100,0.2818181818181818,355,0,10,DL_JapaneseFolk_Guitar,6,5,DL_JapaneseFolk_Guitar,0.23322927951812744,0
62,100,0.11818181818181818,470,0,10,DL_JapaneseFolk_Guitar,6,2,DL_JapaneseFolk_Guitar,0.2705867290496826,0
52,100,0.3,818,1,10,DL_JapaneseFolk_Guitar,6,5,DL_JapaneseFolk_Guitar,0.3579401969909668,0
56,100,0.7,395,1,11,DL_JapaneseFolk_Guitar,6,11,DL_JapaneseFolk_Guitar,0.9792234897613525,1
66,100,0.12272727272727273,79,1,12,DL_JapaneseFolk_Guitar,6,2,DL_JapaneseFolk_Guitar,0.9986507296562195,1
66,100,0.1409090909090909,110,0,12,DL_JapaneseFolk_Guitar,6,2,DL_JapaneseFolk_Guitar,0.08798003941774368,0
69,100,0.2636363636363636,202,0,12,DL_JapaneseFolk_Guitar,6,4,DL_JapaneseFolk_Guitar,0.09298458695411682,0
57,100,0.35909090909090907,259,0,12,DL_JapaneseFolk_Guitar,6,6,DL_JapaneseFolk_Guitar,0.10995261371135712,0
56,100,0.1409090909090909,488,0,12,DL_JapaneseFolk_Guitar,6,2,DL_JapaneseFolk_Guitar,0.12867315113544464,0
68,100,0.2409090909090909,730,1,12,DL_JapaneseFolk_Guitar,6,4,DL_JapaneseFolk_Guitar,0.18221354484558105,0
71,100,0.2818181818181818,355,1,13,DL_JapaneseFolk_Guitar,6,5,DL_JapaneseFolk_Guitar,0.9988439083099365,1
56,100,0.18181818181818182,440,0,13,DL_JapaneseFolk_Guitar,6,3,DL_JapaneseFolk_Guitar,0.1379830688238144,0
57,100,0.2590909090909091,625,0,13,DL_JapaneseFolk_Guitar,6,4,DL_JapaneseFolk_Guitar,0.1623644381761551,0
56,100,0.2,818,0,13,DL_JapaneseFolk_Guitar,6,3,DL_JapaneseFolk_Guitar,0.1910560429096222,0
64,100,0.2772727272727273,876,0,13,DL_JapaneseFolk_Guitar,6,4,DL_JapaneseFolk_Guitar,0.2619726061820984,0
56,100,0.17727272727272728,75,1,14,DL_JapaneseFolk_Guitar,6,3,DL_JapaneseFolk_Guitar,0.9988439083099365,1
57,100,0.2409090909090909,448,1,14,DL_JapaneseFolk_Guitar,6,4,DL_JapaneseFolk_Guitar,0.13798271119594574,0
62,100,0.2409090909090909,510,0,14,DL_JapaneseFolk_Guitar,6,4,DL_JapaneseFolk_Guitar,0.16236816346645355,0
57,100,0.32272727272727275,642,0,14,DL_JapaneseFolk_Guitar,6,5,DL_JapaneseFolk_Guitar,0.19105984270572662,0
52,100,0.1409090909090909,770,0,14,DL_JapaneseFolk_Guitar,6,2,DL_JapaneseFolk_Guitar,0.26197946071624756,0
71,100,0.2,140,1,15,DL_JapaneseFolk_Guitar,6,3,DL_JapaneseFolk_Guitar,0.9986506104469299,1
57,100,0.12272727272727273,189,0,15,DL_JapaneseFolk_Guitar,6,2,DL_JapaneseFolk_Guitar,0.08797968924045563,0
57,100,0.6,254,0,15,DL_JapaneseFolk_Guitar,6,10,DL_JapaneseFolk_Guitar,0.09298636019229889,0
52,100,0.6409090909090909,465,0,15,DL_JapaneseFolk_Guitar,6,10,DL_JapaneseFolk_Guitar,0.10995546728372574,0
57,100,0.1,716,1,15,DL_JapaneseFolk_Guitar,6,2,DL_JapaneseFolk_Guitar,0.12867294251918793,0
52,100,0.6363636363636364,766,0,15,DL_JapaneseFolk_Guitar,6,10,DL_JapaneseFolk_Guitar,0.18223169445991516,0
52,100,0.2,119,1,16,DL_JapaneseFolk_Guitar,6,3,DL_JapaneseFolk_Guitar,0.9988439083099365,1
64,100,0.2772727272727273,216,0,16,DL_JapaneseFolk_Guitar,6,4,DL_JapaneseFolk_Guitar,0.13798193633556366,0
52,100,0.13636363636363635,326,0,16,DL_JapaneseFolk_Guitar,6,2,DL_JapaneseFolk_Guitar,0.16236081719398499,0
64,100,0.1409090909090909,374,0,16,DL_JapaneseFolk_Guitar,6,2,DL_JapaneseFolk_Guitar,0.19105972349643707,0
52,100,0.37727272727272726,413,0,16,DL_JapaneseFolk_Guitar,6,6,DL_JapaneseFolk_Guitar,0.26197534799575806,0
52,100,0.5,299,1,17,DL_JapaneseFolk_Guitar,6,8,DL_JapaneseFolk_Guitar,0.9990280866622925,1
52,100,0.6409090909090909,430,0,17,DL_JapaneseFolk_Guitar,6,10,DL_JapaneseFolk_Guitar,0.3703388273715973,0
64,100,0.11818181818181818,625,0,17,DL_JapaneseFolk_Guitar,6,2,DL_JapaneseFolk_Guitar,0.4561781883239746,0
57,100,0.2590909090909091,198,1,18,DL_JapaneseFolk_Guitar,6,4,DL_JapaneseFolk_Guitar,0.9990094900131226,1
61,100,0.3181818181818182,326,0,18,DL_JapaneseFolk_Guitar,6,5,DL_JapaneseFolk_Guitar,0.23322570323944092,0
61,100,0.4,509,0,18,DL_JapaneseFolk_Guitar,6,6,DL_JapaneseFolk_Guitar,0.27058055996894836,0
52,100,0.5409090909090909,845,1,18,DL_JapaneseFolk_Guitar,6,9,DL_JapaneseFolk_Guitar,0.3579242527484894,0
68,100,0.4772727272727273,119,1,19,DL_JapaneseFolk_Guitar,6,8,DL_JapaneseFolk_Guitar,0.9983004927635193,1
52,100,0.1409090909090909,241,0,19,DL_JapaneseFolk_Guitar,6,2,DL_JapaneseFolk_Guitar,0.04466237127780914,0
59,100,0.2,303,0,19,DL_JapaneseFolk_Guitar,6,3,DL_JapaneseFolk_Guitar,0.03337114676833153,0
52,100,0.4,382,0,19,DL_JapaneseFolk_Guitar,6,6,DL_JapaneseFolk_Guitar,0.026947902515530586,0
59,100,0.4,480,0,19,DL_JapaneseFolk_Guitar,6,6,DL_JapaneseFolk_Guitar,0.02408408559858799,0
59,100,0.11818181818181818,581,0,19,DL_JapaneseFolk_Guitar,6,2,DL_JapaneseFolk_Guitar,0.024973032996058464,0
68,100,0.18181818181818182,619,0,19,DL_JapaneseFolk_Guitar,6,3,DL_JapaneseFolk_Guitar,0.030647391453385353,0
62,100,0.2818181818181818,673,0,19,DL_JapaneseFolk_Guitar,6,5,DL_JapaneseFolk_Guitar,0.04137036204338074,0
59,100,0.32272727272727275,796,0,19,DL_JapaneseFolk_Guitar,6,5,DL_JapaneseFolk_Guitar,0.07207158952951431,0
54,100,0.5818181818181818,113,1,20,DL_JapaneseFolk_Guitar,6,9,DL_JapaneseFolk_Guitar,0.9983736276626587,1
66,100,0.2590909090909091,260,0,20,DL_JapaneseFolk_Guitar,6,4,DL_JapaneseFolk_Guitar,0.05105032026767731,0
54,100,0.1409090909090909,316,0,20,DL_JapaneseFolk_Guitar,6,2,DL_JapaneseFolk_Guitar,0.041613101959228516,0
66,100,0.11818181818181818,347,0,20,DL_JapaneseFolk_Guitar,6,2,DL_JapaneseFolk_Guitar,0.037979867309331894,0
54,100,0.2590909090909091,374,0,20,DL_JapaneseFolk_Guitar,6,4,DL_JapaneseFolk_Guitar,0.039260901510715485,0
61,100,0.3181818181818182,436,0,20,DL_JapaneseFolk_Guitar,6,5,DL_JapaneseFolk_Guitar,0.04616617411375046,0
69,100,0.4772727272727273,646,0,20,DL_JapaneseFolk_Guitar,6,8,DL_JapaneseFolk_Guitar,0.057132575660943985,0
66,100,0.3181818181818182,845,0,20,DL_JapaneseFolk_Guitar,6,5,DL_JapaneseFolk_Guitar,0.0918840616941452,0
66,100,0.1590909090909091,65,1,21,DL_JapaneseFolk_Guitar,6,3,DL_JapaneseFolk_Guitar,0.9984879493713379,1
66,100,0.2,106,0,21,DL_JapaneseFolk_Guitar,6,3,DL_JapaneseFolk_Guitar,0.06335199624300003,0
66,100,0.2,210,0,21,DL_JapaneseFolk_Guitar,6,3,DL_JapaneseFolk_Guitar,0.05828817933797836,0
59,100,0.3409090909090909,409,0,21,DL_JapaneseFolk_Guitar,6,5,DL_JapaneseFolk_Guitar,0.06135867163538933,0
59,100,0.18181818181818182,528,0,21,DL_JapaneseFolk_Guitar,6,3,DL_JapaneseFolk_Guitar,0.07167910784482956,0
59,100,0.2590909090909091,594,0,21,DL_JapaneseFolk_Guitar,6,4,DL_JapaneseFolk_Guitar,0.0847320556640625,0
59,100,0.1,694,0,21,DL_JapaneseFolk_Guitar,6,2,DL_JapaneseFolk_Guitar,0.1263454705476761,0
68,100,0.1409090909090909,48,1,22,DL_JapaneseFolk_Guitar,6,2,DL_JapaneseFolk_Guitar,0.9988439083099365,1
59,100,0.21818181818181817,83,0,22,DL_JapaneseFolk_Guitar,6,3,DL_JapaneseFolk_Guitar,0.13798439502716064,0
59,100,0.12272727272727273,144,0,22,DL_JapaneseFolk_Guitar,6,2,DL_JapaneseFolk_Guitar,0.16236576437950134,0
59,100,0.6181818181818182,216,0,22,DL_JapaneseFolk_Guitar,6,10,DL_JapaneseFolk_Guitar,0.19105905294418335,0
69,100,0.18181818181818182,686,1,22,DL_JapaneseFolk_Guitar,6,3,DL_JapaneseFolk_Guitar,0.26196515560150146,0
52,100,0.1590909090909091,144,1,23,DL_JapaneseFolk_Guitar,6,3,DL_JapaneseFolk_Guitar,0.9983735084533691,1
59,100,0.2409090909090909,229,0,23,DL_JapaneseFolk_Guitar,6,4,DL_JapaneseFolk_Guitar,0.05104881897568703,0
52,100,0.1590909090909091,320,0,23,DL_JapaneseFolk_Guitar,6,3,DL_JapaneseFolk_Guitar,0.04161258786916733,0
62,100,0.1590909090909091,387,0,23,DL_JapaneseFolk_Guitar,6,3,DL_JapaneseFolk_Guitar,0.03797907754778862,0
52,100,0.4590909090909091,440,0,23,DL_JapaneseFolk_Guitar,6,7,DL_JapaneseFolk_Guitar,0.039261214435100555,0
53,100,0.6409090909090909,553,0,23,DL_JapaneseFolk_Guitar,6,10,DL_JapaneseFolk_Guitar,0.04616500064730644,0
65,100,0.1,694,0,23,DL_JapaneseFolk_Guitar,6,2,DL_JapaneseFolk_Guitar,0.05713362991809845,0
61,100,0.4590909090909091,779,0,23,DL_JapaneseFolk_Guitar,6,7,DL_JapaneseFolk_Guitar,0.09187962859869003,0
68,100,0.1,3,1,24,DL_JapaneseFolk_Guitar,6,2,DL_JapaneseFolk_Guitar,0.9983735084533691,1
53,100,0.1,69,0,24,DL_JapaneseFolk_Guitar,6,2,DL_JapaneseFolk_Guitar,0.05104999616742134,0
54,100,0.5818181818181818,189,0,24,DL_JapaneseFolk_Guitar,6,9,DL_JapaneseFolk_Guitar,0.04161282256245613,0
66,100,0.6772727272727272,316,0,24,DL_JapaneseFolk_Guitar,6,11,DL_JapaneseFolk_Guitar,0.03797970339655876,0
54,100,0.1590909090909091,571,1,24,DL_JapaneseFolk_Guitar,6,3,DL_JapaneseFolk_Guitar,0.03926040604710579,0
54,100,0.1,615,0,24,DL_JapaneseFolk_Guitar,6,2,DL_JapaneseFolk_Guitar,0.046165838837623596,0
54,100,0.1409090909090909,642,0,24,DL_JapaneseFolk_Guitar,6,2,DL_JapaneseFolk_Guitar,0.05713154748082161,0
66,100,0.18181818181818182,673,0,24,DL_JapaneseFolk_Guitar,6,3,DL_JapaneseFolk_Guitar,0.09188131988048553,0
54,100,0.23636363636363636,40,1,25,DL_JapaneseFolk_Guitar,6,4,DL_JapaneseFolk_Guitar,0.9986507296562195,1
57,100,0.38181818181818183,154,0,25,DL_JapaneseFolk_Guitar,6,6,DL_JapaneseFolk_Guitar,0.087977334856987,0
54,100,0.2818181818181818,550,1,25,DL_JapaneseFolk_Guitar,6,5,DL_JapaneseFolk_Guitar,0.09298539161682129,0
62,100,0.2818181818181818,619,0,25,DL_JapaneseFolk_Guitar,6,5,DL_JapaneseFolk_Guitar,0.10994799435138702,0
62,100,0.21818181818181817,756,0,25,DL_JapaneseFolk_Guitar,6,3,DL_JapaneseFolk_Guitar,0.12867197394371033,0
52,100,0.6,866,0,25,DL_JapaneseFolk_Guitar,6,10,DL_JapaneseFolk_Guitar,0.18221813440322876,0
52,100,0.3,123,1,26,DL_JapaneseFolk_Guitar,6,5,DL_JapaneseFolk_Guitar,0.9984879493713379,1
52,100,0.18181818181818182,223,0,26,DL_JapaneseFolk_Guitar,6,3,DL_JapaneseFolk_Guitar,0.06335383653640747,0
64,100,0.11818181818181818,295,0,26,DL_JapaneseFolk_Guitar,6,2,DL_JapaneseFolk_Guitar,0.05828935652971268,0
52,100,0.5818181818181818,374,0,26,DL_JapaneseFolk_Guitar,6,9,DL_JapaneseFolk_Guitar,0.06136372685432434,0
59,100,0.4590909090909091,515,0,26,DL_JapaneseFolk_Guitar,6,7,DL_JapaneseFolk_Guitar,0.0716865286231041,0
64,100,0.35909090909090907,677,0,26,DL_JapaneseFolk_Guitar,6,6,DL_JapaneseFolk_Guitar,0.08474010229110718,0
68,100,0.2,766,0,26,DL_JapaneseFolk_Guitar,6,3,DL_JapaneseFolk_Guitar,0.12635718286037445,0
52,100,0.3,17,1,27,DL_JapaneseFolk_Guitar,6,5,DL_JapaneseFolk_Guitar,0.9988439083099365,1
57,100,0.2409090909090909,136,0,27,DL_JapaneseFolk_Guitar,6,4,DL_JapaneseFolk_Guitar,0.1379854828119278,0
57,100,0.1590909090909091,260,0,27,DL_JapaneseFolk_Guitar,6,3,DL_JapaneseFolk_Guitar,0.16237270832061768,0
57,100,0.1590909090909091,528,1,27,DL_JapaneseFolk_Guitar,6,3,DL_JapaneseFolk_Guitar,0.19106733798980713,0
61,100,0.38181818181818183,835,1,27,DL_JapaneseFolk_Guitar,6,6,DL_JapaneseFolk_Guitar,0.2619726061820984,0
61,100,0.2,88,1,28,DL_JapaneseFolk_Guitar,6,3,DL_JapaneseFolk_Guitar,0.9986506104469299,1
52,100,0.5409090909090909,285,0,28,DL_JapaneseFolk_Guitar,6,9,DL_JapaneseFolk_Guitar,0.08798175305128098,0
59,100,0.3181818181818182,470,0,28,DL_JapaneseFolk_Guitar,6,5,DL_JapaneseFolk_Guitar,0.09298668056726456,0
52,100,0.2818181818181818,550,0,28,DL_JapaneseFolk_Guitar,6,5,DL_JapaneseFolk_Guitar,0.10995197296142578,0
52,100,0.4772727272727273,691,0,28,DL_JapaneseFolk_Guitar,6,8,DL_JapaneseFolk_Guitar,0.12867914140224457,0
62,100,0.2,804,0,28,DL_JapaneseFolk_Guitar,6,3,DL_JapaneseFolk_Guitar,0.1822279840707779,0
69,100,0.4590909090909091,65,1,29,DL_JapaneseFolk_Guitar,6,7,DL_JapaneseFolk_Guitar,0.9983735084533691,1
68,100,0.2,189,0,29,DL_JapaneseFolk_Guitar,6,3,DL_JapaneseFolk_Guitar,0.05104998126626015,0
59,100,0.23636363636363636,237,0,29,DL_JapaneseFolk_Guitar,6,4,DL_JapaneseFolk_Guitar,0.04161334037780762,0
52,100,0.1,382,0,29,DL_JapaneseFolk_Guitar,6,2,DL_JapaneseFolk_Guitar,0.03798076510429382,0
66,100,0.3181818181818182,457,0,29,DL_JapaneseFolk_Guitar,6,5,DL_JapaneseFolk_Guitar,0.039262231439352036,0
54,100,0.11818181818181818,528,0,29,DL_JapaneseFolk_Guitar,6,2,DL_JapaneseFolk_Guitar,0.046166591346263885,0
66,100,0.740909090909091,584,0,29,DL_JapaneseFolk_Guitar,6,12,DL_JapaneseFolk_Guitar,0.05713425204157829,0
61,100,0.36363636363636365,752,0,29,DL_JapaneseFolk_Guitar,6,6,DL_JapaneseFolk_Guitar,0.0918775349855423,0
61,100,0.1590909090909091,40,1,30,DL_JapaneseFolk_Guitar,6,3,DL_JapaneseFolk_Guitar,0.9986506104469299,1
54,100,0.35909090909090907,110,0,30,DL_JapaneseFolk_Guitar,6,6,DL_JapaneseFolk_Guitar,0.08798175305128098,0
69,100,0.2818181818181818,198,0,30,DL_JapaneseFolk_Guitar,6,5,DL_JapaneseFolk_Guitar,0.09298844635486603,0
66,100,0.1409090909090909,333,0,30,DL_JapaneseFolk_Guitar,6,2,DL_JapaneseFolk_Guitar,0.1099516823887825,0
54,100,0.3409090909090909,453,0,30,DL_JapaneseFolk_Guitar,6,5,DL_JapaneseFolk_Guitar,0.1286761462688446,0
57,100,0.22272727272727272,532,0,30,DL_JapaneseFolk_Guitar,6,4,DL_JapaneseFolk_Guitar,0.18222036957740784,0
59,100,0.2409090909090909,44,1,31,DL_JapaneseFolk_Guitar,6,4,DL_JapaneseFolk_Guitar,0.9990280866622925,1
59,100,0.42272727272727273,399,1,31,DL_JapaneseFolk_Guitar,6,7,DL_JapaneseFolk_Guitar,0.3703395128250122,0
59,100,0.6181818181818182,559,0,31,DL_JapaneseFolk_Guitar,6,10,DL_JapaneseFolk_Guitar,0.45616376399993896,0
61,100,0.3181818181818182,176,1,32,DL_JapaneseFolk_Guitar,6,5,DL_JapaneseFolk_Guitar,0.9986506104469299,1
57,100,0.2409090909090909,263,0,32,DL_JapaneseFolk_Guitar,6,4,DL_JapaneseFolk_Guitar,0.08798155188560486,0
57,100,0.2,330,0,32,DL_JapaneseFolk_Guitar,6,3,DL_JapaneseFolk_Guitar,0.09298502653837204,0
52,100,0.5590909090909091,383,0,32,DL_JapaneseFolk_Guitar,6,9,DL_JapaneseFolk_Guitar,0.10995077341794968,0
59,100,0.12272727272727273,598,0,32,DL_JapaneseFolk_Guitar,6,2,DL_JapaneseFolk_Guitar,0.12867923080921173,0
52,100,0.17727272727272728,845,1,32,DL_JapaneseFolk_Guitar,6,3,DL_JapaneseFolk_Guitar,0.18222491443157196,0
56,100,0.4818181818181818,166,1,33,DL_JapaneseFolk_Guitar,6,8,DL_JapaneseFolk_Guitar,0.9988439083099365,1
61,100,0.21818181818181817,316,0,33,DL_JapaneseFolk_Guitar,6,3,DL_JapaneseFolk_Guitar,0.13798154890537262,0
61,100,0.32272727272727275,431,0,33,DL_JapaneseFolk_Guitar,6,5,DL_JapaneseFolk_Guitar,0.16236022114753723,0
57,100,0.21818181818181817,791,1,33,DL_JapaneseFolk_Guitar,6,3,DL_JapaneseFolk_Guitar,0.1910497546195984,0
66,100,0.2590909090909091,853,0,33,DL_JapaneseFolk_Guitar,6,4,DL_JapaneseFolk_Guitar,0.2619638442993164,0
54,100,0.2772727272727273,31,1,34,DL_JapaneseFolk_Guitar,6,4,DL_JapaneseFolk_Guitar,0.9988439083099365,1
57,100,0.21818181818181817,105,0,34,DL_JapaneseFolk_Guitar,6,3,DL_JapaneseFolk_Guitar,0.13798215985298157,0
62,100,0.2636363636363636,289,0,34,DL_JapaneseFolk_Guitar,6,4,DL_JapaneseFolk_Guitar,0.16236911714076996,0
57,100,0.38181818181818183,378,0,34,DL_JapaneseFolk_Guitar,6,6,DL_JapaneseFolk_Guitar,0.19105558097362518,0
62,100,0.4590909090909091,545,0,34,DL_JapaneseFolk_Guitar,6,7,DL_JapaneseFolk_Guitar,0.26196950674057007,0
64,100,0.13636363636363635,18,1,35,DL_JapaneseFolk_Guitar,6,2,DL_JapaneseFolk_Guitar,0.9988439083099365,1
64,100,0.17727272727272728,171,0,35,DL_JapaneseFolk_Guitar,6,3,DL_JapaneseFolk_Guitar,0.13798433542251587,0
64,100,0.2,273,0,35,DL_JapaneseFolk_Guitar,6,3,DL_JapaneseFolk_Guitar,0.16237202286720276,0
57,100,0.2409090909090909,316,0,35,DL_JapaneseFolk_Guitar,6,4,DL_JapaneseFolk_Guitar,0.1910637617111206,0
61,100,1.240909090909091,444,0,35,DL_JapaneseFolk_Guitar,6,15,DL_JapaneseFolk_Guitar,0.2619714140892029,0
57,100,0.16363636363636364,334,1,36,DL_JapaneseFolk_Guitar,6,3,DL_JapaneseFolk_Guitar,0.9988439083099365,1
57,100,0.1409090909090909,444,0,36,DL_JapaneseFolk_Guitar,6,2,DL_JapaneseFolk_Guitar,0.13798809051513672,0
66,100,0.35909090909090907,651,0,36,DL_JapaneseFolk_Guitar,6,6,DL_JapaneseFolk_Guitar,0.16237419843673706,0
66,100,0.2,788,0,36,DL_JapaneseFolk_Guitar,6,3,DL_JapaneseFolk_Guitar,0.1910671591758728,0
57,100,0.5636363636363636,839,0,36,DL_JapaneseFolk_Guitar,6,9,DL_JapaneseFolk_Guitar,0.261962354183197,0
57,100,0.4409090909090909,198,1,37,DL_JapaneseFolk_Guitar,6,7,DL_JapaneseFolk_Guitar,0.9990280866622925,1
52,100,0.6,606,1,37,DL_JapaneseFolk_Guitar,6,10,DL_JapaneseFolk_Guitar,0.37035083770751953,0
68,100,0.2772727272727273,756,0,37,DL_JapaneseFolk_Guitar,6,4,DL_JapaneseFolk_Guitar,0.4561707675457001,0
54,100,0.5818181818181818,110,1,38,DL_JapaneseFolk_Guitar,6,9,DL_JapaneseFolk_Guitar,0.9984880685806274,1
54,100,0.3409090909090909,246,0,38,DL_JapaneseFolk_Guitar,6,5,DL_JapaneseFolk_Guitar,0.0633540228009224,0
57,100,0.1590909090909091,330,0,38,DL_JapaneseFolk_Guitar,6,3,DL_JapaneseFolk_Guitar,0.05828888341784477,0
64,100,0.2772727272727273,383,0,38,DL_JapaneseFolk_Guitar,6,4,DL_JapaneseFolk_Guitar,0.06136251986026764,0
54,100,0.1590909090909091,461,0,38,DL_JapaneseFolk_Guitar,6,3,DL_JapaneseFolk_Guitar,0.07168401777744293,0
54,100,0.4772727272727273,568,0,38,DL_JapaneseFolk_Guitar,6,8,DL_JapaneseFolk_Guitar,0.08473536372184753,0
54,100,0.1409090909090909,694,0,38,DL_JapaneseFolk_Guitar,6,2,DL_JapaneseFolk_Guitar,0.12635336816310883,0
66,100,0.22272727272727272,101,1,39,DL_JapaneseFolk_Guitar,6,4,DL_JapaneseFolk_Guitar,0.9990280866622925,1
66,100,0.2409090909090909,201,0,39,DL_JapaneseFolk_Guitar,6,4,DL_JapaneseFolk_Guitar,0.37035149335861206,0
69,100,0.1590909090909091,260,0,39,DL_JapaneseFolk_Guitar,6,3,DL_JapaneseFolk_Guitar,0.45616352558135986,0
52,100,0.5409090909090909,34,1,40,DL_JapaneseFolk_Guitar,6,9,DL_JapaneseFolk_Guitar,0.9986506104469299,1
59,100,0.32272727272727275,356,1,40,DL_JapaneseFolk_Guitar,6,5,DL_JapaneseFolk_Guitar,0.08797881007194519,0
52,100,0.18181818181818182,496,0,40,DL_JapaneseFolk_Guitar,6,3,DL_JapaneseFolk_Guitar,0.09298388659954071,0
59,100,0.36363636363636365,554,0,40,DL_JapaneseFolk_Guitar,6,6,DL_JapaneseFolk_Guitar,0.10994870960712433,0
59,100,0.1409090909090909,641,0,40,DL_JapaneseFolk_Guitar,6,2,DL_JapaneseFolk_Guitar,0.12867355346679688,0
68,100,0.2,748,0,40,DL_JapaneseFolk_Guitar,6,3,DL_JapaneseFolk_Guitar,0.18221379816532135,0
52,100,0.1409090909090909,141,1,41,DL_JapaneseFolk_Guitar,6,2,DL_JapaneseFolk_Guitar,0.9990280866622925,1
66,100,0.2590909090909091,386,1,41,DL_JapaneseFolk_Guitar,6,4,DL_JapaneseFolk_Guitar,0.3703371584415436,0
66,100,0.1590909090909091,518,0,41,DL_JapaneseFolk_Guitar,6,3,DL_JapaneseFolk_Guitar,0.4561770558357239,0
54,100,0.6590909090909091,703,1,42,DL_JapaneseFolk_Guitar,6,11,DL_JapaneseFolk_Guitar,0.9983231425285339,1
54,100,0.3,853,0,42,DL_JapaneseFolk_Guitar,6,5,DL_JapaneseFolk_Guitar,0.5462158918380737,1
57,100,0.13636363636363635,61,1,43,DL_JapaneseFolk_Guitar,6,2,DL_JapaneseFolk_Guitar,0.9984879493713379,1
64,100,0.3181818181818182,105,0,43,DL_JapaneseFolk_Guitar,6,5,DL_JapaneseFolk_Guitar,0.06335443258285522,0
61,100,0.2409090909090909,176,0,43,DL_JapaneseFolk_Guitar,6,4,DL_JapaneseFolk_Guitar,0.05829053744673729,0
54,100,0.3409090909090909,276,0,43,DL_JapaneseFolk_Guitar,6,5,DL_JapaneseFolk_Guitar,0.06136617064476013,0
54,100,0.16363636363636364,356,0,43,DL_JapaneseFolk_Guitar,6,3,DL_JapaneseFolk_Guitar,0.07168706506490707,0
54,100,0.1590909090909091,431,0,43,DL_JapaneseFolk_Guitar,6,3,DL_JapaneseFolk_Guitar,0.08474033325910568,0
57,100,0.2,611,0,43,DL_JapaneseFolk_Guitar,6,3,DL_JapaneseFolk_Guitar,0.12635424733161926,0
61,100,0.38181818181818183,13,1,44,DL_JapaneseFolk_Guitar,6,6,DL_JapaneseFolk_Guitar,0.9990094900131226,1
64,100,0.13636363636363635,435,1,44,DL_JapaneseFolk_Guitar,6,2,DL_JapaneseFolk_Guitar,0.23322902619838715,0
52,100,0.11818181818181818,501,0,44,DL_JapaneseFolk_Guitar,6,2,DL_JapaneseFolk_Guitar,0.270578533411026,0
52,100,0.4,531,0,44,DL_JapaneseFolk_Guitar,6,6,DL_JapaneseFolk_Guitar,0.3579353094100952,0
57,100,0.37727272727272726,426,1,46,DL_JapaneseFolk_Guitar,6,6,DL_JapaneseFolk_Guitar,0.9983231425285339,1
57,100,0.5181818181818182,743,1,46,DL_JapaneseFolk_Guitar,6,8,DL_JapaneseFolk_Guitar,0.5462198853492737,1
57,100,0.8590909090909091,348,1,47,DL_JapaneseFolk_Guitar,6,14,DL_JapaneseFolk_Guitar,0.9983232617378235,1
57,100,0.18181818181818182,571,0,47,DL_JapaneseFolk_Guitar,6,3,DL_JapaneseFolk_Guitar,0.5462208390235901,1
57,100,0.3409090909090909,13,1,48,DL_JapaneseFolk_Guitar,6,5,DL_JapaneseFolk_Guitar,0.9990094900131226,1
56,100,0.2409090909090909,408,1,48,DL_JapaneseFolk_Guitar,6,4,DL_JapaneseFolk_Guitar,0.23323704302310944,0
59,100,0.1,581,0,48,DL_JapaneseFolk_Guitar,6,2,DL_JapaneseFolk_Guitar,0.2705847918987274,0
56,100,0.18181818181818182,791,0,48,DL_JapaneseFolk_Guitar,6,3,DL_JapaneseFolk_Guitar,0.3579190671443939,0
56,100,0.18181818181818182,26,1,49,DL_JapaneseFolk_Guitar,6,3,DL_JapaneseFolk_Guitar,0.9990280866622925,1
59,100,0.1409090909090909,163,0,49,DL_JapaneseFolk_Guitar,6,2,DL_JapaneseFolk_Guitar,0.3703451156616211,0
54,100,0.4772727272727273,545,1,49,DL_JapaneseFolk_Guitar,6,8,DL_JapaneseFolk_Guitar,0.4561672806739807,0
54,100,0.21818181818181817,193,1,50,DL_JapaneseFolk_Guitar,6,3,DL_JapaneseFolk_Guitar,0.9990280866622925,1
61,100,0.2,325,0,50,DL_JapaneseFolk_Guitar,6,3,DL_JapaneseFolk_Guitar,0.3703315258026123,0
61,100,0.11818181818181818,405,0,50,DL_JapaneseFolk_Guitar,6,2,DL_JapaneseFolk_Guitar,0.45616811513900757,0
59,100,0.21818181818181817,480,1,51,DL_JapaneseFolk_Guitar,6,3,DL_JapaneseFolk_Guitar,0.9983232617378235,1
59,100,0.13636363636363635,875,1,51,DL_JapaneseFolk_Guitar,6,2,DL_JapaneseFolk_Guitar,0.5462156534194946,1
59,100,0.2772727272727273,105,1,52,DL_JapaneseFolk_Guitar,6,4,DL_JapaneseFolk_Guitar,0.9990094900131226,1
56,100,0.22272727272727272,298,0,52,DL_JapaneseFolk_Guitar,6,4,DL_JapaneseFolk_Guitar,0.23322150111198425,0
61,100,0.12272727272727273,576,1,52,DL_JapaneseFolk_Guitar,6,2,DL_JapaneseFolk_Guitar,0.2705830931663513,0
59,100,0.17727272727272728,625,0,52,DL_JapaneseFolk_Guitar,6,3,DL_JapaneseFolk_Guitar,0.3579266369342804,0
57,100,0.4409090909090909,440,1,53,DL_JapaneseFolk_Guitar,6,7,DL_JapaneseFolk_Guitar,0.9983232617378235,1
57,100,0.2590909090909091,761,1,53,DL_JapaneseFolk_Guitar,6,4,DL_JapaneseFolk_Guitar,0.5462166666984558,1
52,100,0.8181818181818182,83,1,54,DL_JapaneseFolk_Guitar,6,13,DL_JapaneseFolk_Guitar,0.9990094900131226,1
52,100,0.11818181818181818,361,1,54,DL_JapaneseFolk_Guitar,6,2,DL_JapaneseFolk_Guitar,0.23322775959968567,0
66,100,0.2,518,0,54,DL_JapaneseFolk_Guitar,6,3,DL_JapaneseFolk_Guitar,0.2705819010734558,0
52,100,0.11818181818181818,836,1,54,DL_JapaneseFolk_Guitar,6,2,DL_JapaneseFolk_Guitar,0.35793018341064453,0
66,100,0.1409090909090909,53,1,55,DL_JapaneseFolk_Guitar,6,2,DL_JapaneseFolk_Guitar,0.9792243838310242,1
66,100,0.1590909090909091,123,1,56,DL_JapaneseFolk_Guitar,6,3,DL_JapaneseFolk_Guitar,0.9990280866622925,1
57,100,0.2772727272727273,370,1,56,DL_JapaneseFolk_Guitar,6,4,DL_JapaneseFolk_Guitar,0.37034520506858826,0
57,100,0.5,694,1,56,DL_JapaneseFolk_Guitar,6,8,DL_JapaneseFolk_Guitar,0.4561731517314911,0
57,100,0.21818181818181817,0,1,57,DL_JapaneseFolk_Guitar,6,3,DL_JapaneseFolk_Guitar,0.9983231425285339,1
61,100,0.6409090909090909,330,1,57,DL_JapaneseFolk_Guitar,6,10,DL_JapaneseFolk_Guitar,0.5462130308151245,1
59,100,0.22272727272727272,364,1,58,DL_JapaneseFolk_Guitar,6,4,DL_JapaneseFolk_Guitar,0.9792241454124451,1
61,100,0.2,141,1,59,DL_JapaneseFolk_Guitar,6,3,DL_JapaneseFolk_Guitar,0.9984879493713379,1
54,100,0.11818181818181818,185,0,59,DL_JapaneseFolk_Guitar,6,2,DL_JapaneseFolk_Guitar,0.06335468590259552,0
54,100,0.1,215,0,59,DL_JapaneseFolk_Guitar,6,2,DL_JapaneseFolk_Guitar,0.058290399610996246,0
61,100,0.1409090909090909,276,0,59,DL_JapaneseFolk_Guitar,6,2,DL_JapaneseFolk_Guitar,0.0613618865609169,0
64,100,0.1590909090909091,453,0,59,DL_JapaneseFolk_Guitar,6,3,DL_JapaneseFolk_Guitar,0.07168357819318771,0
64,100,0.32272727272727275,751,1,59,DL_JapaneseFolk_Guitar,6,5,DL_JapaneseFolk_Guitar,0.08473774045705795,0
54,100,0.1,826,0,59,DL_JapaneseFolk_Guitar,6,2,DL_JapaneseFolk_Guitar,0.12635476887226105,0
62,100,0.38181818181818183,136,1,60,DL_JapaneseFolk_Guitar,6,6,DL_JapaneseFolk_Guitar,0.9990280866622925,1
62,100,0.3,788,1,60,DL_JapaneseFolk_Guitar,6,5,DL_JapaneseFolk_Guitar,0.37035343050956726,0
73,100,0.5,858,0,60,DL_JapaneseFolk_Guitar,6,8,DL_JapaneseFolk_Guitar,0.4561706483364105,0
57,100,0.1590909090909091,386,1,61,DL_JapaneseFolk_Guitar,6,3,DL_JapaneseFolk_Guitar,0.9983232617378235,1
57,100,0.21818181818181817,875,1,61,DL_JapaneseFolk_Guitar,6,3,DL_JapaneseFolk_Guitar,0.5462189316749573,1
66,100,0.32272727272727275,56,1,62,DL_JapaneseFolk_Guitar,6,5,DL_JapaneseFolk_Guitar,0.9988439083099365,1
52,100,0.4409090909090909,233,0,62,DL_JapaneseFolk_Guitar,6,7,DL_JapaneseFolk_Guitar,0.13798418641090393,0
52,100,0.2409090909090909,619,1,62,DL_JapaneseFolk_Guitar,6,4,DL_JapaneseFolk_Guitar,0.16236752271652222,0
52,100,0.11818181818181818,726,0,62,DL_JapaneseFolk_Guitar,6,2,DL_JapaneseFolk_Guitar,0.1910650134086609,0
56,100,0.1409090909090909,845,0,62,DL_JapaneseFolk_Guitar,6,2,DL_JapaneseFolk_Guitar,0.26196160912513733,0
52,100,0.1409090909090909,8,1,63,DL_JapaneseFolk_Guitar,6,2,DL_JapaneseFolk_Guitar,0.9984879493713379,1
52,100,0.11818181818181818,75,0,63,DL_JapaneseFolk_Guitar,6,2,DL_JapaneseFolk_Guitar,0.06335235387086868,0
64,100,0.18181818181818182,220,0,63,DL_JapaneseFolk_Guitar,6,3,DL_JapaneseFolk_Guitar,0.05828857421875,0
52,100,0.4,263,0,63,DL_JapaneseFolk_Guitar,6,6,DL_JapaneseFolk_Guitar,0.061362188309431076,0
69,100,0.5,584,1,63,DL_JapaneseFolk_Guitar,6,8,DL_JapaneseFolk_Guitar,0.07168363779783249,0
71,100,0.38181818181818183,791,0,63,DL_JapaneseFolk_Guitar,6,6,DL_JapaneseFolk_Guitar,0.084737628698349,0
59,100,0.1590909090909091,875,0,63,DL_JapaneseFolk_Guitar,6,3,DL_JapaneseFolk_Guitar,0.12635469436645508,0
59,100,0.6227272727272727,136,1,64,DL_JapaneseFolk_Guitar,6,10,DL_JapaneseFolk_Guitar,0.9990280866622925,1
59,100,0.5590909090909091,383,1,64,DL_JapaneseFolk_Guitar,6,9,DL_JapaneseFolk_Guitar,0.3703468441963196,0
57,100,1.1636363636363636,553,0,64,DL_JapaneseFolk_Guitar,6,15,DL_JapaneseFolk_Guitar,0.4561702609062195,0
61,100,0.3,303,1,65,DL_JapaneseFolk_Guitar,6,5,DL_JapaneseFolk_Guitar,0.9986506104469299,1
61,100,0.1590909090909091,404,0,65,DL_JapaneseFolk_Guitar,6,3,DL_JapaneseFolk_Guitar,0.08797992020845413,0
57,100,0.1590909090909091,449,0,65,DL_JapaneseFolk_Guitar,6,3,DL_JapaneseFolk_Guitar,0.0929853543639183,0
61,100,0.3,496,0,65,DL_JapaneseFolk_Guitar,6,5,DL_JapaneseFolk_Guitar,0.10994865000247955,0
57,100,0.22272727272727272,576,0,65,DL_JapaneseFolk_Guitar,6,4,DL_JapaneseFolk_Guitar,0.128675177693367,0
68,100,0.2,832,1,65,DL_JapaneseFolk_Guitar,6,3,DL_JapaneseFolk_Guitar,0.1822175681591034,0
59,100,0.1590909090909091,9,1,66,DL_JapaneseFolk_Guitar,6,3,DL_JapaneseFolk_Guitar,0.9984880685806274,1
68,100,0.21818181818181817,62,0,66,DL_JapaneseFolk_Guitar,6,3,DL_JapaneseFolk_Guitar,0.06335338205099106,0
68,100,0.1,113,0,66,DL_JapaneseFolk_Guitar,6,2,DL_JapaneseFolk_Guitar,0.058290302753448486,0
68,100,0.1590909090909091,166,0,66,DL_JapaneseFolk_Guitar,6,3,DL_JapaneseFolk_Guitar,0.06136083975434303,0
52,100,0.1590909090909091,206,0,66,DL_JapaneseFolk_Guitar,6,3,DL_JapaneseFolk_Guitar,0.0716828852891922,0
59,100,0.22272727272727272,673,1,66,DL_JapaneseFolk_Guitar,6,4,DL_JapaneseFolk_Guitar,0.08473388850688934,0
52,100,0.42272727272727273,729,0,66,DL_JapaneseFolk_Guitar,6,7,DL_JapaneseFolk_Guitar,0.12635330855846405,0
61,100,0.3,223,1,67,DL_JapaneseFolk_Guitar,6,5,DL_JapaneseFolk_Guitar,0.9988439083099365,1
57,100,0.1,523,1,67,DL_JapaneseFolk_Guitar,6,2,DL_JapaneseFolk_Guitar,0.13798215985298157,0
57,100,0.2409090909090909,550,0,67,DL_JapaneseFolk_Guitar,6,4,DL_JapaneseFolk_Guitar,0.16236765682697296,0
57,100,0.21818181818181817,810,1,67,DL_JapaneseFolk_Guitar,6,3,DL_JapaneseFolk_Guitar,0.19106461107730865,0
54,100,0.18181818181818182,862,0,67,DL_JapaneseFolk_Guitar,6,3,DL_JapaneseFolk_Guitar,0.26198357343673706,0
54,100,0.2,26,1,68,DL_JapaneseFolk_Guitar,6,3,DL_JapaneseFolk_Guitar,0.9986506104469299,1
61,100,0.1590909090909091,206,0,68,DL_JapaneseFolk_Guitar,6,3,DL_JapaneseFolk_Guitar,0.08797787129878998,0
59,100,0.3181818181818182,250,0,68,DL_JapaneseFolk_Guitar,6,5,DL_JapaneseFolk_Guitar,0.09298238158226013,0
61,100,0.12272727272727273,365,0,68,DL_JapaneseFolk_Guitar,6,2,DL_JapaneseFolk_Guitar,0.10994422435760498,0
59,100,0.2818181818181818,773,1,68,DL_JapaneseFolk_Guitar,6,5,DL_JapaneseFolk_Guitar,0.12867046892642975,0
59,100,0.22272727272727272,839,0,68,DL_JapaneseFolk_Guitar,6,4,DL_JapaneseFolk_Guitar,0.18221578001976013,0
61,100,0.22272727272727272,166,1,69,DL_JapaneseFolk_Guitar,6,4,DL_JapaneseFolk_Guitar,0.9990280866622925,1
54,100,0.1409090909090909,826,1,69,DL_JapaneseFolk_Guitar,6,2,DL_JapaneseFolk_Guitar,0.37033796310424805,0
54,100,0.12272727272727273,862,0,69,DL_JapaneseFolk_Guitar,6,2,DL_JapaneseFolk_Guitar,0.4561747908592224,0
57,100,0.3409090909090909,53,1,70,DL_JapaneseFolk_Guitar,6,5,DL_JapaneseFolk_Guitar,0.9983232617378235,1
56,100,0.1590909090909091,546,1,70,DL_JapaneseFolk_Guitar,6,3,DL_JapaneseFolk_Guitar,0.5462128520011902,1
61,100,0.1590909090909091,206,1,71,DL_JapaneseFolk_Guitar,6,3,DL_JapaneseFolk_Guitar,0.9990094900131226,1
54,100,0.1,440,1,71,DL_JapaneseFolk_Guitar,6,2,DL_JapaneseFolk_Guitar,0.23323532938957214,0
54,100,0.11818181818181818,593,0,71,DL_JapaneseFolk_Guitar,6,2,DL_JapaneseFolk_Guitar,0.2705830931663513,0
57,100,0.21818181818181817,703,0,71,DL_JapaneseFolk_Guitar,6,3,DL_JapaneseFolk_Guitar,0.357927143573761,0
52,100,0.6772727272727272,722,1,72,DL_JapaneseFolk_Guitar,6,11,DL_JapaneseFolk_Guitar,0.9792247414588928,1
52,100,0.2409090909090909,96,1,73,DL_JapaneseFolk_Guitar,6,4,DL_JapaneseFolk_Guitar,0.9984879493713379,1
59,100,0.11818181818181818,184,0,73,DL_JapaneseFolk_Guitar,6,2,DL_JapaneseFolk_Guitar,0.06335574388504028,0
52,100,0.3181818181818182,220,0,73,DL_JapaneseFolk_Guitar,6,5,DL_JapaneseFolk_Guitar,0.05828933045268059,0
52,100,0.1,294,0,73,DL_JapaneseFolk_Guitar,6,2,DL_JapaneseFolk_Guitar,0.061363037675619125,0
52,100,0.5227272727272727,356,0,73,DL_JapaneseFolk_Guitar,6,8,DL_JapaneseFolk_Guitar,0.0716845765709877,0
52,100,0.5,673,1,73,DL_JapaneseFolk_Guitar,6,8,DL_JapaneseFolk_Guitar,0.0847378820180893,0
52,100,0.22272727272727272,817,0,73,DL_JapaneseFolk_Guitar,6,4,DL_JapaneseFolk_Guitar,0.1263567954301834,0
61,100,0.35909090909090907,166,1,74,DL_JapaneseFolk_Guitar,6,6,DL_JapaneseFolk_Guitar,0.9990094900131226,1
57,100,0.35909090909090907,260,0,74,DL_JapaneseFolk_Guitar,6,6,DL_JapaneseFolk_Guitar,0.23322951793670654,0
61,100,0.32272727272727275,443,0,74,DL_JapaneseFolk_Guitar,6,5,DL_JapaneseFolk_Guitar,0.27058887481689453,0
61,100,0.2409090909090909,637,0,74,DL_JapaneseFolk_Guitar,6,4,DL_JapaneseFolk_Guitar,0.3579261600971222,0
52,100,0.2772727272727273,140,1,75,DL_JapaneseFolk_Guitar,6,4,DL_JapaneseFolk_Guitar,0.9984879493713379,1
52,100,0.1,206,0,75,DL_JapaneseFolk_Guitar,6,2,DL_JapaneseFolk_Guitar,0.0633539929986,0
52,100,0.1409090909090909,242,0,75,DL_JapaneseFolk_Guitar,6,2,DL_JapaneseFolk_Guitar,0.05828985571861267,0
52,100,0.7363636363636363,282,0,75,DL_JapaneseFolk_Guitar,6,12,DL_JapaneseFolk_Guitar,0.06136174499988556,0
52,100,0.2590909090909091,449,0,75,DL_JapaneseFolk_Guitar,6,4,DL_JapaneseFolk_Guitar,0.07168500870466232,0
52,100,0.2409090909090909,646,0,75,DL_JapaneseFolk_Guitar,6,4,DL_JapaneseFolk_Guitar,0.08473686873912811,0
52,100,0.1590909090909091,766,0,75,DL_JapaneseFolk_Guitar,6,3,DL_JapaneseFolk_Guitar,0.1263584941625595,0
52,100,0.2409090909090909,233,1,76,DL_JapaneseFolk_Guitar,6,4,DL_JapaneseFolk_Guitar,0.9990094900131226,1
54,100,0.1590909090909091,430,0,76,DL_JapaneseFolk_Guitar,6,3,DL_JapaneseFolk_Guitar,0.2332320362329483,0
66,100,0.3181818181818182,483,0,76,DL_JapaneseFolk_Guitar,6,5,DL_JapaneseFolk_Guitar,0.27058884501457214,0
66,100,0.3,612,0,76,DL_JapaneseFolk_Guitar,6,5,DL_JapaneseFolk_Guitar,0.3579308092594147,0
61,100,0.2772727272727273,119,1,77,DL_JapaneseFolk_Guitar,6,4,DL_JapaneseFolk_Guitar,0.9988439083099365,1
54,100,0.2,303,0,77,DL_JapaneseFolk_Guitar,6,3,DL_JapaneseFolk_Guitar,0.13798081874847412,0
56,100,0.5181818181818182,580,1,77,DL_JapaneseFolk_Guitar,6,8,DL_JapaneseFolk_Guitar,0.16235747933387756,0
59,100,0.2409090909090909,695,0,77,DL_JapaneseFolk_Guitar,6,4,DL_JapaneseFolk_Guitar,0.19105786085128784,0
59,100,0.35909090909090907,756,0,77,DL_JapaneseFolk_Guitar,6,6,DL_JapaneseFolk_Guitar,0.26196134090423584,0
59,100,0.12272727272727273,47,1,78,DL_JapaneseFolk_Guitar,6,2,DL_JapaneseFolk_Guitar,0.9983231425285339,1
61,100,0.2409090909090909,140,0,78,DL_JapaneseFolk_Guitar,6,4,DL_JapaneseFolk_Guitar,0.546209990978241,1
52,100,0.17727272727272728,229,1,79,DL_JapaneseFolk_Guitar,6,3,DL_JapaneseFolk_Guitar,0.9988439083099365,1
59,100,0.32272727272727275,409,0,79,DL_JapaneseFolk_Guitar,6,5,DL_JapaneseFolk_Guitar,0.13798470795154572,0
52,100,0.11818181818181818,502,0,79,DL_JapaneseFolk_Guitar,6,2,DL_JapaneseFolk_Guitar,0.16237026453018188,0
52,100,0.2636363636363636,532,0,79,DL_JapaneseFolk_Guitar,6,4,DL_JapaneseFolk_Guitar,0.19107142090797424,0
56,100,1.1181818181818182,747,0,79,DL_JapaneseFolk_Guitar,6,15,DL_JapaneseFolk_Guitar,0.2619646191596985,0
61,100,0.5363636363636364,127,1,80,DL_JapaneseFolk_Guitar,6,9,DL_JapaneseFolk_Guitar,0.9990280866622925,1
64,100,0.3,509,1,80,DL_JapaneseFolk_Guitar,6,5,DL_JapaneseFolk_Guitar,0.37034910917282104,0
54,100,0.4,629,0,80,DL_JapaneseFolk_Guitar,6,6,DL_JapaneseFolk_Guitar,0.4561731517314911,0
62,100,0.1,263,1,81,DL_JapaneseFolk_Guitar,6,2,DL_JapaneseFolk_Guitar,0.9990280866622925,1
66,100,0.11818181818181818,383,0,81,DL_JapaneseFolk_Guitar,6,2,DL_JapaneseFolk_Guitar,0.37034690380096436,0
59,100,0.5227272727272727,783,1,81,DL_JapaneseFolk_Guitar,6,8,DL_JapaneseFolk_Guitar,0.456169456243515,0
61,100,0.1,17,1,82,DL_JapaneseFolk_Guitar,6,2,DL_JapaneseFolk_Guitar,0.9990094900131226,1
66,100,0.11818181818181818,153,0,82,DL_JapaneseFolk_Guitar,6,2,DL_JapaneseFolk_Guitar,0.23323719203472137,0
52,100,0.2,506,1,82,DL_JapaneseFolk_Guitar,6,3,DL_JapaneseFolk_Guitar,0.2705931067466736,0
57,100,0.42272727272727273,716,0,82,DL_JapaneseFolk_Guitar,6,7,DL_JapaneseFolk_Guitar,0.35792794823646545,0
54,100,0.11818181818181818,339,1,83,DL_JapaneseFolk_Guitar,6,2,DL_JapaneseFolk_Guitar,0.9792246222496033,1
52,100,0.38181818181818183,453,1,84,DL_JapaneseFolk_Guitar,6,6,DL_JapaneseFolk_Guitar,0.9990280866622925,1
52,100,0.5227272727272727,597,0,84,DL_JapaneseFolk_Guitar,6,8,DL_JapaneseFolk_Guitar,0.3703407049179077,0
52,100,0.38181818181818183,849,1,84,DL_JapaneseFolk_Guitar,6,6,DL_JapaneseFolk_Guitar,0.45617324113845825,0
59,100,0.1590909090909091,193,1,85,DL_JapaneseFolk_Guitar,6,3,DL_JapaneseFolk_Guitar,0.9792236089706421,1
64,100,0.1409090909090909,220,1,86,DL_JapaneseFolk_Guitar,6,2,DL_JapaneseFolk_Guitar,0.9990280866622925,1
64,100,0.8590909090909091,307,0,86,DL_JapaneseFolk_Guitar,6,14,DL_JapaneseFolk_Guitar,0.3703382909297943,0
64,100,0.4,616,1,86,DL_JapaneseFolk_Guitar,6,6,DL_JapaneseFolk_Guitar,0.4561707675457001,0
68,100,0.2818181818181818,153,1,87,DL_JapaneseFolk_Guitar,6,5,DL_JapaneseFolk_Guitar,0.9986506104469299,1
68,100,0.5590909090909091,220,0,87,DL_JapaneseFolk_Guitar,6,9,DL_JapaneseFolk_Guitar,0.08797938376665115,0
66,100,0.1590909090909091,396,0,87,DL_JapaneseFolk_Guitar,6,3,DL_JapaneseFolk_Guitar,0.09298631548881531,0
57,100,0.5227272727272727,532,0,87,DL_JapaneseFolk_Guitar,6,8,DL_JapaneseFolk_Guitar,0.10994702577590942,0
52,100,0.6818181818181818,660,0,87,DL_JapaneseFolk_Guitar,6,11,DL_JapaneseFolk_Guitar,0.12867119908332825,0
57,100,0.17727272727272728,866,0,87,DL_JapaneseFolk_Guitar,6,3,DL_JapaneseFolk_Guitar,0.18221618235111237,0
57,100,0.5772727272727273,294,1,88,DL_JapaneseFolk_Guitar,6,9,DL_JapaneseFolk_Guitar,0.9990094900131226,1
52,100,0.6,540,1,88,DL_JapaneseFolk_Guitar,6,10,DL_JapaneseFolk_Guitar,0.23323708772659302,0
52,100,0.21818181818181817,682,0,88,DL_JapaneseFolk_Guitar,6,3,DL_JapaneseFolk_Guitar,0.2705855369567871,0
52,100,0.3181818181818182,734,0,88,DL_JapaneseFolk_Guitar,6,5,DL_JapaneseFolk_Guitar,0.3579322099685669,0
64,100,0.2409090909090909,13,1,89,DL_JapaneseFolk_Guitar,6,4,DL_JapaneseFolk_Guitar,0.9990094900131226,1
64,100,0.22272727272727272,92,0,89,DL_JapaneseFolk_Guitar,6,4,DL_JapaneseFolk_Guitar,0.23323123157024384,0
64,100,0.2590909090909091,184,0,89,DL_JapaneseFolk_Guitar,6,4,DL_JapaneseFolk_Guitar,0.27058935165405273,0
64,100,0.5590909090909091,603,1,89,DL_JapaneseFolk_Guitar,6,9,DL_JapaneseFolk_Guitar,0.3579317033290863,0
61,100,0.38181818181818183,0,1,34,DL_Nostalgic_Guitar,6,6,DL_Nostalgic_Guitar,0.9990094900131226,1
58,100,2.459090909090909,83,0,34,DL_Nostalgic_Guitar,6,15,DL_Nostalgic_Guitar,0.23323018848896027,0
58,100,0.2590909090909091,646,1,34,DL_Nostalgic_Guitar,6,4,DL_Nostalgic_Guitar,0.2705909311771393,0
58,100,1.3,708,0,34,DL_Nostalgic_Guitar,6,15,DL_Nostalgic_Guitar,0.35791778564453125,0
61,100,0.2409090909090909,114,1,35,DL_Nostalgic_Guitar,6,4,DL_Nostalgic_Guitar,0.9988439083099365,1
60,100,0.23636363636363636,260,0,35,DL_Nostalgic_Guitar,6,4,DL_Nostalgic_Guitar,0.13799315690994263,0
63,100,1.5772727272727274,413,0,35,DL_Nostalgic_Guitar,6,15,DL_Nostalgic_Guitar,0.16237322986125946,0
56,100,0.2772727272727273,765,1,35,DL_Nostalgic_Guitar,6,4,DL_Nostalgic_Guitar,0.19107718765735626,0
63,100,1.1227272727272728,826,0,35,DL_Nostalgic_Guitar,6,15,DL_Nostalgic_Guitar,0.2619752585887909,0
63,100,0.8409090909090909,241,1,36,DL_Nostalgic_Guitar,6,13,DL_Nostalgic_Guitar,0.9988439083099365,1
63,100,0.6,471,0,36,DL_Nostalgic_Guitar,6,10,DL_Nostalgic_Guitar,0.13798968493938446,0
63,100,0.3,611,0,36,DL_Nostalgic_Guitar,6,5,DL_Nostalgic_Guitar,0.1623789519071579,0
63,100,0.6590909090909091,681,0,36,DL_Nostalgic_Guitar,6,11,DL_Nostalgic_Guitar,0.19107787311077118,0
63,100,1.7818181818181817,871,0,36,DL_Nostalgic_Guitar,6,15,DL_Nostalgic_Guitar,0.26198139786720276,0
58,100,0.5409090909090909,386,1,37,DL_Nostalgic_Guitar,6,9,DL_Nostalgic_Guitar,0.9990094900131226,1
58,100,0.2409090909090909,558,0,37,DL_Nostalgic_Guitar,6,4,DL_Nostalgic_Guitar,0.2332383394241333,0
63,100,0.18181818181818182,638,0,37,DL_Nostalgic_Guitar,6,3,DL_Nostalgic_Guitar,0.2705897390842438,0
58,100,1.6590909090909092,770,0,37,DL_Nostalgic_Guitar,6,15,DL_Nostalgic_Guitar,0.35792508721351624,0
65,100,1.9,254,1,38,DL_Nostalgic_Guitar,6,15,DL_Nostalgic_Guitar,0.9990280866622925,1
58,100,0.3,796,1,38,DL_Nostalgic_Guitar,6,5,DL_Nostalgic_Guitar,0.37035953998565674,0
58,100,2.118181818181818,875,0,38,DL_Nostalgic_Guitar,6,15,DL_Nostalgic_Guitar,0.4561474919319153,0
63,100,0.9,619,1,39,DL_Nostalgic_Guitar,6,14,DL_Nostalgic_Guitar,0.9983231425285339,1
63,100,0.37727272727272726,823,0,39,DL_Nostalgic_Guitar,6,6,DL_Nostalgic_Guitar,0.5462258458137512,1
63,100,3.4,43,1,40,DL_Nostalgic_Guitar,6,15,DL_Nostalgic_Guitar,0.9990279674530029,1
65,100,0.17727272727272728,801,1,40,DL_Nostalgic_Guitar,6,3,DL_Nostalgic_Guitar,0.3703695833683014,0
63,100,1.1227272727272728,839,0,40,DL_Nostalgic_Guitar,6,15,DL_Nostalgic_Guitar,0.45615121722221375,0
63,100,0.2772727272727273,383,1,41,DL_Nostalgic_Guitar,6,4,DL_Nostalgic_Guitar,0.9990094900131226,1
63,100,0.12272727272727273,488,0,41,DL_Nostalgic_Guitar,6,2,DL_Nostalgic_Guitar,0.23324447870254517,0
63,100,0.5772727272727273,668,0,41,DL_Nostalgic_Guitar,6,9,DL_Nostalgic_Guitar,0.2705940008163452,0
63,100,1.040909090909091,848,0,41,DL_Nostalgic_Guitar,6,15,DL_Nostalgic_Guitar,0.35793524980545044,0
58,100,1.1181818181818182,198,1,42,DL_Nostalgic_Guitar,6,15,DL_Nostalgic_Guitar,0.9990280866622925,1
56,100,1.559090909090909,448,1,42,DL_Nostalgic_Guitar,6,15,DL_Nostalgic_Guitar,0.37034308910369873,0
56,100,1.2363636363636363,810,1,42,DL_Nostalgic_Guitar,6,15,DL_Nostalgic_Guitar,0.45616018772125244,0
58,100,2.922727272727273,201,1,43,DL_Nostalgic_Guitar,6,15,DL_Nostalgic_Guitar,0.9983231425285339,1
56,100,0.759090909090909,848,1,43,DL_Nostalgic_Guitar,6,12,DL_Nostalgic_Guitar,0.5462074875831604,1
53,100,0.35909090909090907,141,1,44,DL_Nostalgic_Guitar,6,6,DL_Nostalgic_Guitar,0.9988439083099365,1
56,100,0.5409090909090909,220,0,44,DL_Nostalgic_Guitar,6,9,DL_Nostalgic_Guitar,0.13798095285892487,0
53,100,0.22272727272727272,356,0,44,DL_Nostalgic_Guitar,6,4,DL_Nostalgic_Guitar,0.1623668074607849,0
56,100,0.7818181818181819,431,0,44,DL_Nostalgic_Guitar,6,13,DL_Nostalgic_Guitar,0.19104500114917755,0
58,100,0.1409090909090909,606,0,44,DL_Nostalgic_Guitar,6,2,DL_Nostalgic_Guitar,0.26196080446243286,0
63,100,0.3,26,1,45,DL_Nostalgic_Guitar,6,5,DL_Nostalgic_Guitar,0.9990094900131226,1
58,100,0.8818181818181818,131,0,45,DL_Nostalgic_Guitar,6,14,DL_Nostalgic_Guitar,0.23325669765472412,0
56,100,0.4590909090909091,383,1,45,DL_Nostalgic_Guitar,6,7,DL_Nostalgic_Guitar,0.27061131596565247,0
56,100,3.3227272727272728,606,0,45,DL_Nostalgic_Guitar,6,15,DL_Nostalgic_Guitar,0.35790252685546875,0
56,100,0.7,783,1,46,DL_Nostalgic_Guitar,6,11,DL_Nostalgic_Guitar,0.9792227745056152,1
53,100,0.3409090909090909,66,1,47,DL_Nostalgic_Guitar,6,5,DL_Nostalgic_Guitar,0.9988439083099365,1
56,100,0.38181818181818183,144,0,47,DL_Nostalgic_Guitar,6,6,DL_Nostalgic_Guitar,0.13798440992832184,0
56,100,1.1409090909090909,289,0,47,DL_Nostalgic_Guitar,6,15,DL_Nostalgic_Guitar,0.1623593419790268,0
58,100,0.9818181818181818,541,1,47,DL_Nostalgic_Guitar,6,15,DL_Nostalgic_Guitar,0.19105635583400726,0
58,100,0.4409090909090909,783,1,47,DL_Nostalgic_Guitar,6,7,DL_Nostalgic_Guitar,0.2619533836841583,0
70,100,0.1590909090909091,83,1,48,DL_Nostalgic_Guitar,6,3,DL_Nostalgic_Guitar,0.9983004927635193,1
58,100,0.17727272727272728,118,0,48,DL_Nostalgic_Guitar,6,3,DL_Nostalgic_Guitar,0.04466210678219795,0
53,100,0.23636363636363636,391,1,48,DL_Nostalgic_Guitar,6,4,DL_Nostalgic_Guitar,0.03337141498923302,0
53,100,0.4590909090909091,448,0,48,DL_Nostalgic_Guitar,6,7,DL_Nostalgic_Guitar,0.026948528364300728,0
56,100,0.3181818181818182,550,0,48,DL_Nostalgic_Guitar,6,5,DL_Nostalgic_Guitar,0.02408386394381523,0
53,100,0.2590909090909091,628,0,48,DL_Nostalgic_Guitar,6,4,DL_Nostalgic_Guitar,0.0249741580337286,0
56,100,0.5409090909090909,703,0,48,DL_Nostalgic_Guitar,6,9,DL_Nostalgic_Guitar,0.03064800053834915,0
56,100,0.1590909090909091,826,0,48,DL_Nostalgic_Guitar,6,3,DL_Nostalgic_Guitar,0.04136992618441582,0
58,100,0.35909090909090907,871,0,48,DL_Nostalgic_Guitar,6,6,DL_Nostalgic_Guitar,0.07207265496253967,0
56,100,0.2,351,1,49,DL_Nostalgic_Guitar,6,3,DL_Nostalgic_Guitar,0.9983231425285339,1
61,100,0.5,756,1,49,DL_Nostalgic_Guitar,6,8,DL_Nostalgic_Guitar,0.5462186932563782,1
56,100,0.9818181818181818,166,1,50,DL_Nostalgic_Guitar,6,15,DL_Nostalgic_Guitar,0.9988439083099365,1
58,100,0.1590909090909091,405,1,50,DL_Nostalgic_Guitar,6,3,DL_Nostalgic_Guitar,0.1379808932542801,0
70,100,0.11818181818181818,440,0,50,DL_Nostalgic_Guitar,6,2,DL_Nostalgic_Guitar,0.16236114501953125,0
58,100,0.3,729,1,50,DL_Nostalgic_Guitar,6,5,DL_Nostalgic_Guitar,0.19104944169521332,0
70,100,0.1590909090909091,813,0,50,DL_Nostalgic_Guitar,6,3,DL_Nostalgic_Guitar,0.2619585394859314,0
58,100,0.38181818181818183,4,1,51,DL_Nostalgic_Guitar,6,6,DL_Nostalgic_Guitar,0.9990094900131226,1
63,100,0.12272727272727273,136,0,51,DL_Nostalgic_Guitar,6,2,DL_Nostalgic_Guitar,0.2332363873720169,0
56,100,1.059090909090909,405,1,51,DL_Nostalgic_Guitar,6,15,DL_Nostalgic_Guitar,0.2705823481082916,0
61,100,0.4409090909090909,703,1,51,DL_Nostalgic_Guitar,6,7,DL_Nostalgic_Guitar,0.35792824625968933,0
60,100,1.1,8,1,52,DL_Nostalgic_Guitar,6,15,DL_Nostalgic_Guitar,0.9990280866622925,1
63,100,0.1409090909090909,263,1,52,DL_Nostalgic_Guitar,6,2,DL_Nostalgic_Guitar,0.37034913897514343,0
63,100,1.0772727272727274,413,0,52,DL_Nostalgic_Guitar,6,15,DL_Nostalgic_Guitar,0.4561651945114136,0
56,100,0.3409090909090909,91,1,53,DL_Nostalgic_Guitar,6,5,DL_Nostalgic_Guitar,0.9988439083099365,1
56,100,0.38181818181818183,179,0,53,DL_Nostalgic_Guitar,6,6,DL_Nostalgic_Guitar,0.1379842907190323,0
63,100,1.059090909090909,263,0,53,DL_Nostalgic_Guitar,6,15,DL_Nostalgic_Guitar,0.16236253082752228,0
58,100,0.7818181818181819,638,1,53,DL_Nostalgic_Guitar,6,13,DL_Nostalgic_Guitar,0.19105598330497742,0
63,100,0.2636363636363636,818,0,53,DL_Nostalgic_Guitar,6,4,DL_Nostalgic_Guitar,0.2619613707065582,0
63,100,0.11818181818181818,61,1,54,DL_Nostalgic_Guitar,6,2,DL_Nostalgic_Guitar,0.9990280866622925,1
56,100,0.2590909090909091,338,1,54,DL_Nostalgic_Guitar,6,4,DL_Nostalgic_Guitar,0.3703623414039612,0
63,100,0.740909090909091,563,0,54,DL_Nostalgic_Guitar,6,12,DL_Nostalgic_Guitar,0.45615944266319275,0
55,100,0.13636363636363635,150,1,55,DL_Nostalgic_Guitar,6,2,DL_Nostalgic_Guitar,0.9990280866622925,1
63,100,0.1,703,1,55,DL_Nostalgic_Guitar,6,2,DL_Nostalgic_Guitar,0.37033945322036743,0
56,100,0.36363636363636365,751,0,55,DL_Nostalgic_Guitar,6,6,DL_Nostalgic_Guitar,0.45617106556892395,0
56,100,0.9590909090909091,31,1,56,DL_Nostalgic_Guitar,6,15,DL_Nostalgic_Guitar,0.9986506104469299,1
56,100,0.12272727272727273,268,1,56,DL_Nostalgic_Guitar,6,2,DL_Nostalgic_Guitar,0.08798141032457352,0
56,100,0.7,338,0,56,DL_Nostalgic_Guitar,6,11,DL_Nostalgic_Guitar,0.09298663586378098,0
56,100,0.8590909090909091,501,0,56,DL_Nostalgic_Guitar,6,14,DL_Nostalgic_Guitar,0.10994897782802582,0
56,100,0.12272727272727273,694,0,56,DL_Nostalgic_Guitar,6,2,DL_Nostalgic_Guitar,0.1286751627922058,0
56,100,0.2590909090909091,761,0,56,DL_Nostalgic_Guitar,6,4,DL_Nostalgic_Guitar,0.18220829963684082,0
56,100,1.4,26,1,57,DL_Nostalgic_Guitar,6,15,DL_Nostalgic_Guitar,0.9983231425285339,1
56,100,0.8409090909090909,338,1,57,DL_Nostalgic_Guitar,6,13,DL_Nostalgic_Guitar,0.5462188124656677,1
58,100,0.2590909090909091,118,1,58,DL_Nostalgic_Guitar,6,4,DL_Nostalgic_Guitar,0.9990094900131226,1
58,100,0.7636363636363637,179,0,58,DL_Nostalgic_Guitar,6,12,DL_Nostalgic_Guitar,0.23323586583137512,0
58,100,0.1590909090909091,448,1,58,DL_Nostalgic_Guitar,6,3,DL_Nostalgic_Guitar,0.2705916166305542,0
56,100,0.9,681,1,58,DL_Nostalgic_Guitar,6,14,DL_Nostalgic_Guitar,0.3579208552837372,0
56,100,0.9409090909090909,26,1,59,DL_Nostalgic_Guitar,6,15,DL_Nostalgic_Guitar,0.9986506104469299,1
58,100,0.2409090909090909,298,1,59,DL_Nostalgic_Guitar,6,4,DL_Nostalgic_Guitar,0.08798225224018097,0
58,100,0.2409090909090909,378,0,59,DL_Nostalgic_Guitar,6,4,DL_Nostalgic_Guitar,0.09298289567232132,0
55,100,0.21818181818181817,448,0,59,DL_Nostalgic_Guitar,6,3,DL_Nostalgic_Guitar,0.10994856059551239,0
58,100,1.4,518,0,59,DL_Nostalgic_Guitar,6,15,DL_Nostalgic_Guitar,0.12866738438606262,0
58,100,0.2,853,1,59,DL_Nostalgic_Guitar,6,3,DL_Nostalgic_Guitar,0.18221808969974518,0
60,100,0.7227272727272728,48,1,60,DL_Nostalgic_Guitar,6,12,DL_Nostalgic_Guitar,0.9986506104469299,1
56,100,0.5590909090909091,241,0,60,DL_Nostalgic_Guitar,6,9,DL_Nostalgic_Guitar,0.08798070251941681,0
60,100,0.11818181818181818,405,0,60,DL_Nostalgic_Guitar,6,2,DL_Nostalgic_Guitar,0.09298975765705109,0
56,100,0.23636363636363636,545,0,60,DL_Nostalgic_Guitar,6,4,DL_Nostalgic_Guitar,0.10995329916477203,0
56,100,0.3181818181818182,616,0,60,DL_Nostalgic_Guitar,6,5,DL_Nostalgic_Guitar,0.12867355346679688,0
56,100,0.6,848,1,60,DL_Nostalgic_Guitar,6,10,DL_Nostalgic_Guitar,0.18221867084503174,0
56,100,0.6818181818181818,289,1,61,DL_Nostalgic_Guitar,6,11,DL_Nostalgic_Guitar,0.9990280866622925,1
56,100,0.12272727272727273,453,0,61,DL_Nostalgic_Guitar,6,2,DL_Nostalgic_Guitar,0.37034371495246887,0
56,100,0.3,700,1,61,DL_Nostalgic_Guitar,6,5,DL_Nostalgic_Guitar,0.4561678171157837,0
56,100,0.1,43,1,62,DL_Nostalgic_Guitar,6,2,DL_Nostalgic_Guitar,0.9988439083099365,1
56,100,0.5818181818181818,91,0,62,DL_Nostalgic_Guitar,6,9,DL_Nostalgic_Guitar,0.13797752559185028,0
58,100,0.2,228,0,62,DL_Nostalgic_Guitar,6,3,DL_Nostalgic_Guitar,0.16236436367034912,0
58,100,0.1,483,1,62,DL_Nostalgic_Guitar,6,2,DL_Nostalgic_Guitar,0.19105690717697144,0
58,100,1.559090909090909,518,0,62,DL_Nostalgic_Guitar,6,15,DL_Nostalgic_Guitar,0.2619602382183075,0
63,100,0.35909090909090907,677,1,64,DL_Nostalgic_Guitar,6,6,DL_Nostalgic_Guitar,0.9792236089706421,1
58,100,0.38181818181818183,817,1,1,DL_warm_Guitar,6,6,DL_warm_Guitar,0.9792242646217346,1
58,100,0.17727272727272728,259,1,2,DL_warm_Guitar,6,3,DL_warm_Guitar,0.9988439083099365,1
58,100,0.2818181818181818,330,0,2,DL_warm_Guitar,6,5,DL_warm_Guitar,0.1379818171262741,0
55,100,0.1,501,0,2,DL_warm_Guitar,6,2,DL_warm_Guitar,0.1623619794845581,0
58,100,0.18181818181818182,528,0,2,DL_warm_Guitar,6,3,DL_warm_Guitar,0.19105367362499237,0
58,100,0.759090909090909,607,0,2,DL_warm_Guitar,6,12,DL_warm_Guitar,0.26195600628852844,0
58,100,0.7227272727272728,510,1,3,DL_warm_Guitar,6,12,DL_warm_Guitar,0.9983232617378235,1
58,100,0.36363636363636365,840,1,3,DL_warm_Guitar,6,6,DL_warm_Guitar,0.5462170243263245,1
58,100,0.1409090909090909,43,1,4,DL_warm_Guitar,6,2,DL_warm_Guitar,0.9983232617378235,1
58,100,0.5818181818181818,770,1,4,DL_warm_Guitar,6,9,DL_warm_Guitar,0.5462116599082947,1
58,100,0.5,43,1,5,DL_warm_Guitar,6,8,DL_warm_Guitar,0.9990280866622925,1
58,100,0.2409090909090909,232,0,5,DL_warm_Guitar,6,4,DL_warm_Guitar,0.37033507227897644,0
58,100,0.2636363636363636,818,1,5,DL_warm_Guitar,6,4,DL_warm_Guitar,0.4561660885810852,0
58,100,0.8409090909090909,56,1,6,DL_warm_Guitar,6,13,DL_warm_Guitar,0.9988439083099365,1
58,100,0.5227272727272727,268,0,6,DL_warm_Guitar,6,8,DL_warm_Guitar,0.13798044621944427,0
58,100,0.16363636363636364,399,0,6,DL_warm_Guitar,6,3,DL_warm_Guitar,0.16236156225204468,0
58,100,0.2,440,0,6,DL_warm_Guitar,6,3,DL_warm_Guitar,0.19105510413646698,0
58,100,0.2590909090909091,770,1,6,DL_warm_Guitar,6,4,DL_warm_Guitar,0.2619556486606598,0
58,100,0.3409090909090909,69,1,7,DL_warm_Guitar,6,5,DL_warm_Guitar,0.9990094900131226,1
58,100,0.2409090909090909,299,0,7,DL_warm_Guitar,6,4,DL_warm_Guitar,0.23323218524456024,0
58,100,0.32272727272727275,355,0,7,DL_warm_Guitar,6,5,DL_warm_Guitar,0.27057763934135437,0
58,100,0.16363636363636364,444,0,7,DL_warm_Guitar,6,3,DL_warm_Guitar,0.3579271137714386,0
58,100,0.13636363636363635,171,1,8,DL_warm_Guitar,6,2,DL_warm_Guitar,0.9990280866622925,1
58,100,0.11818181818181818,646,1,8,DL_warm_Guitar,6,2,DL_warm_Guitar,0.3703427314758301,0
56,100,0.1,721,0,8,DL_warm_Guitar,6,2,DL_warm_Guitar,0.4561671316623688,0
58,100,0.1,391,1,9,DL_warm_Guitar,6,2,DL_warm_Guitar,0.9990280866622925,1
58,100,0.5409090909090909,651,1,9,DL_warm_Guitar,6,9,DL_warm_Guitar,0.3703385591506958,0
58,100,0.3,818,0,9,DL_warm_Guitar,6,5,DL_warm_Guitar,0.4561677873134613,0
58,100,0.5772727272727273,75,1,10,DL_warm_Guitar,6,9,DL_warm_Guitar,0.9792246222496033,1
58,100,0.5,53,1,11,DL_warm_Guitar,6,8,DL_warm_Guitar,0.9988439083099365,1
58,100,0.6,166,0,11,DL_warm_Guitar,6,10,DL_warm_Guitar,0.13798390328884125,0
58,100,0.5818181818181818,307,0,11,DL_warm_Guitar,6,9,DL_warm_Guitar,0.16235965490341187,0
58,100,0.32272727272727275,443,0,11,DL_warm_Guitar,6,5,DL_warm_Guitar,0.1910567432641983,0
60,100,0.740909090909091,826,1,11,DL_warm_Guitar,6,12,DL_warm_Guitar,0.26195427775382996,0
58,100,1.1590909090909092,132,1,12,DL_warm_Guitar,6,15,DL_warm_Guitar,0.9988439083099365,1
58,100,0.41818181818181815,414,1,12,DL_warm_Guitar,6,7,DL_warm_Guitar,0.13798663020133972,0
55,100,0.12272727272727273,541,0,12,DL_warm_Guitar,6,2,DL_warm_Guitar,0.1623680293560028,0
55,100,0.1409090909090909,572,0,12,DL_warm_Guitar,6,2,DL_warm_Guitar,0.19105951488018036,0
55,100,0.13636363636363635,611,0,12,DL_warm_Guitar,6,2,DL_warm_Guitar,0.26196473836898804,0
60,100,0.3,158,1,13,DL_warm_Guitar,6,5,DL_warm_Guitar,0.9983232617378235,1
58,100,0.1409090909090909,862,1,13,DL_warm_Guitar,6,2,DL_warm_Guitar,0.5462157130241394,1
58,100,0.21818181818181817,660,1,14,DL_warm_Guitar,6,3,DL_warm_Guitar,0.9983232617378235,1
58,100,0.11818181818181818,854,0,14,DL_warm_Guitar,6,2,DL_warm_Guitar,0.5462151765823364,1
58,100,0.4818181818181818,3,1,15,DL_warm_Guitar,6,8,DL_warm_Guitar,0.9990094900131226,1
67,100,0.1409090909090909,189,0,15,DL_warm_Guitar,6,2,DL_warm_Guitar,0.23322793841362,0
58,100,0.8,254,0,15,DL_warm_Guitar,6,13,DL_warm_Guitar,0.270579993724823,0
58,100,0.11818181818181818,876,1,15,DL_warm_Guitar,6,2,DL_warm_Guitar,0.3579258620738983,0
58,100,0.6818181818181818,110,1,16,DL_warm_Guitar,6,11,DL_warm_Guitar,0.9990094900131226,1
58,100,0.1409090909090909,364,1,16,DL_warm_Guitar,6,2,DL_warm_Guitar,0.23323047161102295,0
58,100,0.22272727272727272,430,0,16,DL_warm_Guitar,6,4,DL_warm_Guitar,0.2705781161785126,0
58,100,0.3409090909090909,691,1,16,DL_warm_Guitar,6,5,DL_warm_Guitar,0.3579252362251282,0
58,100,0.1409090909090909,21,1,17,DL_warm_Guitar,6,2,DL_warm_Guitar,0.9990094900131226,1
58,100,0.5409090909090909,246,0,17,DL_warm_Guitar,6,9,DL_warm_Guitar,0.2332245409488678,0
58,100,0.9590909090909091,497,1,17,DL_warm_Guitar,6,15,DL_warm_Guitar,0.2705780565738678,0
58,100,0.16363636363636364,729,1,17,DL_warm_Guitar,6,3,DL_warm_Guitar,0.35792917013168335,0
58,100,0.1590909090909091,260,1,18,DL_warm_Guitar,6,3,DL_warm_Guitar,0.9990280866622925,1
56,100,0.17727272727272728,691,1,18,DL_warm_Guitar,6,3,DL_warm_Guitar,0.3703455328941345,0
58,100,0.6409090909090909,752,0,18,DL_warm_Guitar,6,10,DL_warm_Guitar,0.45616039633750916,0
58,100,0.11818181818181818,30,1,19,DL_warm_Guitar,6,2,DL_warm_Guitar,0.9986506104469299,1
58,100,0.38181818181818183,92,0,19,DL_warm_Guitar,6,6,DL_warm_Guitar,0.08797959238290787,0
58,100,0.16363636363636364,179,0,19,DL_warm_Guitar,6,3,DL_warm_Guitar,0.09298443049192429,0
58,100,0.1590909090909091,320,0,19,DL_warm_Guitar,6,3,DL_warm_Guitar,0.10995081067085266,0
58,100,0.5818181818181818,488,0,19,DL_warm_Guitar,6,9,DL_warm_Guitar,0.12866835296154022,0
58,100,0.5772727272727273,721,1,19,DL_warm_Guitar,6,9,DL_warm_Guitar,0.18221816420555115,0
58,100,0.740909090909091,92,1,20,DL_warm_Guitar,6,12,DL_warm_Guitar,0.9988439083099365,1
58,100,0.1409090909090909,268,0,20,DL_warm_Guitar,6,2,DL_warm_Guitar,0.13798275589942932,0
58,100,0.1409090909090909,316,0,20,DL_warm_Guitar,6,2,DL_warm_Guitar,0.16236454248428345,0
58,100,0.8409090909090909,351,0,20,DL_warm_Guitar,6,13,DL_warm_Guitar,0.191053569316864,0
58,100,1.018181818181818,669,1,20,DL_warm_Guitar,6,15,DL_warm_Guitar,0.2619593143463135,0
58,100,0.2590909090909091,61,1,21,DL_warm_Guitar,6,4,DL_warm_Guitar,0.9988439083099365,1
58,100,1.3,123,0,21,DL_warm_Guitar,6,15,DL_warm_Guitar,0.13798107206821442,0
63,100,0.21818181818181817,413,1,21,DL_warm_Guitar,6,3,DL_warm_Guitar,0.1623658388853073,0
67,100,0.1409090909090909,470,0,21,DL_warm_Guitar,6,2,DL_warm_Guitar,0.1910569965839386,0
55,100,0.2,540,0,21,DL_warm_Guitar,6,3,DL_warm_Guitar,0.2619628310203552,0
60,100,0.11818181818181818,330,1,22,DL_warm_Guitar,6,2,DL_warm_Guitar,0.9983232617378235,1
60,100,0.2590909090909091,559,0,22,DL_warm_Guitar,6,4,DL_warm_Guitar,0.5462122559547424,1
67,100,0.2818181818181818,607,1,23,DL_warm_Guitar,6,5,DL_warm_Guitar,0.9792238473892212,1
58,100,0.2,61,1,24,DL_warm_Guitar,6,3,DL_warm_Guitar,0.9988439083099365,1
58,100,0.3,343,1,24,DL_warm_Guitar,6,5,DL_warm_Guitar,0.13798198103904724,0
58,100,0.1,540,0,24,DL_warm_Guitar,6,2,DL_warm_Guitar,0.1623649150133133,0
58,100,0.2,743,0,24,DL_warm_Guitar,6,3,DL_warm_Guitar,0.1910555362701416,0
58,100,0.6772727272727272,822,0,24,DL_warm_Guitar,6,11,DL_warm_Guitar,0.2619572877883911,0
58,100,0.37727272727272726,162,1,25,DL_warm_Guitar,6,6,DL_warm_Guitar,0.9986506104469299,1
58,100,0.9590909090909091,277,0,25,DL_warm_Guitar,6,15,DL_warm_Guitar,0.08797792345285416,0
62,100,0.11818181818181818,528,1,25,DL_warm_Guitar,6,2,DL_warm_Guitar,0.09298301488161087,0
58,100,0.2772727272727273,567,0,25,DL_warm_Guitar,6,4,DL_warm_Guitar,0.1099509671330452,0
62,100,0.1409090909090909,669,0,25,DL_warm_Guitar,6,2,DL_warm_Guitar,0.12867207825183868,0
58,100,0.6,770,0,25,DL_warm_Guitar,6,10,DL_warm_Guitar,0.18221916258335114,0
58,100,0.2,123,1,26,DL_warm_Guitar,6,3,DL_warm_Guitar,0.9984880685806274,1
58,100,0.3181818181818182,175,0,26,DL_warm_Guitar,6,5,DL_warm_Guitar,0.0633537694811821,0
58,100,0.5772727272727273,272,0,26,DL_warm_Guitar,6,9,DL_warm_Guitar,0.058287762105464935,0
58,100,0.11818181818181818,413,0,26,DL_warm_Guitar,6,2,DL_warm_Guitar,0.06136152893304825,0
58,100,0.5,461,0,26,DL_warm_Guitar,6,8,DL_warm_Guitar,0.07168024778366089,0
58,100,0.2636363636363636,619,0,26,DL_warm_Guitar,6,4,DL_warm_Guitar,0.08473103493452072,0
58,100,0.2590909090909091,831,0,26,DL_warm_Guitar,6,4,DL_warm_Guitar,0.1263444423675537,0
58,100,0.6227272727272727,69,1,27,DL_warm_Guitar,6,10,DL_warm_Guitar,0.9988439083099365,1
60,100,0.17727272727272728,260,0,27,DL_warm_Guitar,6,3,DL_warm_Guitar,0.13798992335796356,0
58,100,0.6227272727272727,333,0,27,DL_warm_Guitar,6,10,DL_warm_Guitar,0.1623688042163849,0
58,100,1.4636363636363636,488,0,27,DL_warm_Guitar,6,15,DL_warm_Guitar,0.1910591572523117,0
56,100,0.43636363636363634,831,1,27,DL_warm_Guitar,6,7,DL_warm_Guitar,0.2619597911834717,0
68,100,0.35909090909090907,144,1,28,DL_warm_Guitar,6,6,DL_warm_Guitar,0.9988439083099365,1
68,100,0.4772727272727273,237,0,28,DL_warm_Guitar,6,8,DL_warm_Guitar,0.13798277080059052,0
68,100,0.4590909090909091,387,0,28,DL_warm_Guitar,6,7,DL_warm_Guitar,0.162361279129982,0
58,100,0.13636363636363635,677,1,28,DL_warm_Guitar,6,2,DL_warm_Guitar,0.1910576969385147,0
56,100,0.1590909090909091,787,0,28,DL_warm_Guitar,6,3,DL_warm_Guitar,0.26195791363716125,0
68,100,0.2590909090909091,96,1,29,DL_warm_Guitar,6,4,DL_warm_Guitar,0.9990280866622925,1
58,100,0.1409090909090909,229,0,29,DL_warm_Guitar,6,2,DL_warm_Guitar,0.37034252285957336,0
58,100,0.4,804,1,29,DL_warm_Guitar,6,6,DL_warm_Guitar,0.4561694264411926,0
58,100,0.3409090909090909,57,1,30,DL_warm_Guitar,6,5,DL_warm_Guitar,0.9990094900131226,1
58,100,0.2590909090909091,254,0,30,DL_warm_Guitar,6,4,DL_warm_Guitar,0.23324131965637207,0
58,100,0.6409090909090909,387,0,30,DL_warm_Guitar,6,10,DL_warm_Guitar,0.2705894410610199,0
58,100,2.0,804,1,30,DL_warm_Guitar,6,15,DL_warm_Guitar,0.3579156696796417,0
58,100,0.7227272727272728,453,1,31,DL_warm_Guitar,6,12,DL_warm_Guitar,0.9990094900131226,1
58,100,0.5818181818181818,619,0,31,DL_warm_Guitar,6,9,DL_warm_Guitar,0.23322920501232147,0
60,100,0.17727272727272728,801,0,31,DL_warm_Guitar,6,3,DL_warm_Guitar,0.27058276534080505,0
70,100,0.2590909090909091,845,0,31,DL_warm_Guitar,6,4,DL_warm_Guitar,0.357917845249176,0
63,100,0.36363636363636365,48,1,32,DL_warm_Guitar,6,6,DL_warm_Guitar,0.9990094900131226,1
58,100,0.5590909090909091,166,0,32,DL_warm_Guitar,6,9,DL_warm_Guitar,0.23323726654052734,0
58,100,1.018181818181818,435,1,32,DL_warm_Guitar,6,15,DL_warm_Guitar,0.2705852687358856,0
58,100,0.7227272727272728,694,1,32,DL_warm_Guitar,6,12,DL_warm_Guitar,0.3579336106777191,0
68,100,0.36363636363636365,69,1,33,DL_warm_Guitar,6,6,DL_warm_Guitar,0.9988439083099365,1
68,100,0.1409090909090909,188,0,33,DL_warm_Guitar,6,2,DL_warm_Guitar,0.1379864513874054,0
60,100,0.9636363636363636,268,0,33,DL_warm_Guitar,6,15,DL_warm_Guitar,0.162366583943367,0
58,100,0.6227272727272727,673,1,33,DL_warm_Guitar,6,10,DL_warm_Guitar,0.19105874001979828,0
68,100,0.2409090909090909,823,0,33,DL_warm_Guitar,6,4,DL_warm_Guitar,0.26196202635765076,0
58,100,0.12272727272727273,201,1,34,DL_warm_Guitar,6,2,DL_warm_Guitar,0.9983232617378235,1
58,100,0.5409090909090909,581,1,34,DL_warm_Guitar,6,9,DL_warm_Guitar,0.5462096929550171,1
58,100,0.1,251,1,35,DL_warm_Guitar,6,2,DL_warm_Guitar,0.9986506104469299,1
58,100,0.7818181818181819,364,0,35,DL_warm_Guitar,6,13,DL_warm_Guitar,0.08797907829284668,0
70,100,0.3,655,1,35,DL_warm_Guitar,6,5,DL_warm_Guitar,0.09298311918973923,0
62,100,0.17727272727272728,778,0,35,DL_warm_Guitar,6,3,DL_warm_Guitar,0.1099463701248169,0
62,100,0.1590909090909091,823,0,35,DL_warm_Guitar,6,3,DL_warm_Guitar,0.12866957485675812,0
58,100,0.740909090909091,866,0,35,DL_warm_Guitar,6,12,DL_warm_Guitar,0.18221800029277802,0
70,100,0.3,193,1,36,DL_warm_Guitar,6,5,DL_warm_Guitar,0.9984880685806274,1
58,100,0.4590909090909091,260,0,36,DL_warm_Guitar,6,7,DL_warm_Guitar,0.06335372477769852,0
58,100,0.4636363636363636,378,0,36,DL_warm_Guitar,6,7,DL_warm_Guitar,0.058288443833589554,0
58,100,0.6,515,0,36,DL_warm_Guitar,6,10,DL_warm_Guitar,0.061361975967884064,0
70,100,0.11818181818181818,646,0,36,DL_warm_Guitar,6,2,DL_warm_Guitar,0.07168037444353104,0
55,100,0.2818181818181818,686,0,36,DL_warm_Guitar,6,5,DL_warm_Guitar,0.08473218977451324,0
60,100,0.11818181818181818,801,0,36,DL_warm_Guitar,6,2,DL_warm_Guitar,0.12634633481502533,0
58,100,0.3,8,1,37,DL_warm_Guitar,6,5,DL_warm_Guitar,0.9984880685806274,1
58,100,0.1590909090909091,166,0,37,DL_warm_Guitar,6,3,DL_warm_Guitar,0.06335383653640747,0
58,100,1.0227272727272727,211,0,37,DL_warm_Guitar,6,15,DL_warm_Guitar,0.05828739330172539,0
70,100,0.2,435,0,37,DL_warm_Guitar,6,3,DL_warm_Guitar,0.06136254966259003,0
58,100,0.4409090909090909,483,0,37,DL_warm_Guitar,6,7,DL_warm_Guitar,0.0716819018125534,0
55,100,0.11818181818181818,633,0,37,DL_warm_Guitar,6,2,DL_warm_Guitar,0.08473470062017441,0
58,100,0.9,703,0,37,DL_warm_Guitar,6,14,DL_warm_Guitar,0.12634477019309998,0
58,100,0.2409090909090909,34,1,38,DL_warm_Guitar,6,4,DL_warm_Guitar,0.9986507296562195,1
68,100,0.17727272727272728,141,0,38,DL_warm_Guitar,6,3,DL_warm_Guitar,0.08797731250524521,0
58,100,0.2590909090909091,281,0,38,DL_warm_Guitar,6,4,DL_warm_Guitar,0.09298396855592728,0
58,100,0.2,444,0,38,DL_warm_Guitar,6,3,DL_warm_Guitar,0.10995010286569595,0
68,100,0.16363636363636364,554,0,38,DL_warm_Guitar,6,3,DL_warm_Guitar,0.1286662220954895,0
58,100,0.5818181818181818,726,0,38,DL_warm_Guitar,6,9,DL_warm_Guitar,0.1822156310081482,0
68,100,0.6818181818181818,48,1,39,DL_warm_Guitar,6,11,DL_warm_Guitar,0.9990280866622925,1
68,100,0.17727272727272728,206,0,39,DL_warm_Guitar,6,3,DL_warm_Guitar,0.3703470528125763,0
58,100,0.6409090909090909,668,1,39,DL_warm_Guitar,6,10,DL_warm_Guitar,0.4561663866043091,0
58,100,0.4590909090909091,0,1,40,DL_warm_Guitar,6,7,DL_warm_Guitar,0.9988439083099365,1
58,100,0.3,383,1,40,DL_warm_Guitar,6,5,DL_warm_Guitar,0.13797950744628906,0
70,100,0.1590909090909091,448,0,40,DL_warm_Guitar,6,3,DL_warm_Guitar,0.16236406564712524,0
58,100,0.5,483,0,40,DL_warm_Guitar,6,8,DL_warm_Guitar,0.19105525314807892,0
70,100,0.2409090909090909,703,0,40,DL_warm_Guitar,6,4,DL_warm_Guitar,0.26196253299713135,0
58,100,0.740909090909091,31,1,41,DL_warm_Guitar,6,12,DL_warm_Guitar,0.9986506104469299,1
70,100,0.22272727272727272,246,0,41,DL_warm_Guitar,6,4,DL_warm_Guitar,0.08797954767942429,0
58,100,0.5,295,0,41,DL_warm_Guitar,6,8,DL_warm_Guitar,0.09298305958509445,0
58,100,0.6590909090909091,435,0,41,DL_warm_Guitar,6,11,DL_warm_Guitar,0.1099492609500885,0
70,100,0.2590909090909091,660,0,41,DL_warm_Guitar,6,4,DL_warm_Guitar,0.12866994738578796,0
58,100,0.8227272727272728,716,0,41,DL_warm_Guitar,6,13,DL_warm_Guitar,0.18220993876457214,0
58,100,0.4,75,1,42,DL_warm_Guitar,6,6,DL_warm_Guitar,0.9990280866622925,1
60,100,0.12272727272727273,224,0,42,DL_warm_Guitar,6,2,DL_warm_Guitar,0.3703610897064209,0
58,100,2.2772727272727273,260,0,42,DL_warm_Guitar,6,15,DL_warm_Guitar,0.4561494290828705,0
58,100,0.2818181818181818,4,1,43,DL_warm_Guitar,6,5,DL_warm_Guitar,0.9983735084533691,1
58,100,0.35909090909090907,83,0,43,DL_warm_Guitar,6,6,DL_warm_Guitar,0.05105043947696686,0
68,100,0.3409090909090909,286,0,43,DL_warm_Guitar,6,5,DL_warm_Guitar,0.041611332446336746,0
60,100,0.5,373,0,43,DL_warm_Guitar,6,8,DL_warm_Guitar,0.037979163229465485,0
58,100,0.21818181818181817,501,0,43,DL_warm_Guitar,6,3,DL_warm_Guitar,0.0392586886882782,0
68,100,0.12272727272727273,664,0,43,DL_warm_Guitar,6,2,DL_warm_Guitar,0.04616381227970123,0
60,100,0.2590909090909091,703,0,43,DL_warm_Guitar,6,4,DL_warm_Guitar,0.05713026598095894,0
58,100,0.6818181818181818,770,0,43,DL_warm_Guitar,6,11,DL_warm_Guitar,0.09187690168619156,0
68,100,0.6,40,1,44,DL_warm_Guitar,6,10,DL_warm_Guitar,0.9983231425285339,1
58,100,0.5409090909090909,716,1,44,DL_warm_Guitar,6,9,DL_warm_Guitar,0.5462182760238647,1
58,100,0.33636363636363636,40,1,45,DL_warm_Guitar,6,5,DL_warm_Guitar,0.9988439083099365,1
58,100,0.18181818181818182,131,0,45,DL_warm_Guitar,6,3,DL_warm_Guitar,0.1379832774400711,0
58,100,0.2409090909090909,276,0,45,DL_warm_Guitar,6,4,DL_warm_Guitar,0.16236506402492523,0
58,100,0.18181818181818182,483,0,45,DL_warm_Guitar,6,3,DL_warm_Guitar,0.19106094539165497,0
58,100,1.8590909090909091,545,0,45,DL_warm_Guitar,6,15,DL_warm_Guitar,0.2619515657424927,0
58,100,1.8,96,1,46,DL_warm_Guitar,6,15,DL_warm_Guitar,0.9990094900131226,1
58,100,0.8,518,1,46,DL_warm_Guitar,6,13,DL_warm_Guitar,0.23323753476142883,0
58,100,0.2,708,0,46,DL_warm_Guitar,6,3,DL_warm_Guitar,0.2705831825733185,0
58,100,0.4590909090909091,848,0,46,DL_warm_Guitar,6,7,DL_warm_Guitar,0.3579220175743103,0
60,100,0.6,171,1,47,DL_warm_Guitar,6,10,DL_warm_Guitar,0.9990094900131226,1
58,100,0.7181818181818181,383,0,47,DL_warm_Guitar,6,11,DL_warm_Guitar,0.23322425782680511,0
58,100,0.6181818181818182,593,0,47,DL_warm_Guitar,6,10,DL_warm_Guitar,0.2705758810043335,0
58,100,0.3181818181818182,813,0,47,DL_warm_Guitar,6,5,DL_warm_Guitar,0.35792651772499084,0
58,100,0.35909090909090907,118,1,48,DL_warm_Guitar,6,6,DL_warm_Guitar,0.9990280866622925,1
60,100,0.22272727272727272,343,0,48,DL_warm_Guitar,6,4,DL_warm_Guitar,0.37034326791763306,0
60,100,0.2818181818181818,708,1,48,DL_warm_Guitar,6,5,DL_warm_Guitar,0.4561745822429657,0
60,100,0.16363636363636364,641,1,49,DL_warm_Guitar,6,3,DL_warm_Guitar,0.9792243838310242,1
60,100,0.42272727272727273,69,1,50,DL_warm_Guitar,6,7,DL_warm_Guitar,0.9990280866622925,1
53,100,0.2590909090909091,176,0,50,DL_warm_Guitar,6,4,DL_warm_Guitar,0.37033501267433167,0
53,100,0.2409090909090909,241,0,50,DL_warm_Guitar,6,4,DL_warm_Guitar,0.45617324113845825,0
58,100,0.41818181818181815,831,1,51,DL_warm_Guitar,6,7,DL_warm_Guitar,0.979223370552063,1
53,100,0.5181818181818182,426,1,52,DL_warm_Guitar,6,8,DL_warm_Guitar,0.9792241454124451,1
58,100,2.340909090909091,163,1,53,DL_warm_Guitar,6,15,DL_warm_Guitar,0.9983231425285339,1
58,100,0.5590909090909091,845,1,53,DL_warm_Guitar,6,9,DL_warm_Guitar,0.546217679977417,1
58,100,0.5636363636363636,114,1,54,DL_warm_Guitar,6,9,DL_warm_Guitar,0.9983231425285339,1
58,100,5.318181818181818,295,0,54,DL_warm_Guitar,6,15,DL_warm_Guitar,0.5461369752883911,1
60,100,1.8227272727272728,641,1,55,DL_warm_Guitar,6,15,DL_warm_Guitar,0.9792236089706421,1
58,100,0.5181818181818182,171,1,56,DL_warm_Guitar,6,8,DL_warm_Guitar,0.9988439083099365,1
58,100,0.21818181818181817,396,0,56,DL_warm_Guitar,6,3,DL_warm_Guitar,0.13798245787620544,0
58,100,1.1181818181818182,448,0,56,DL_warm_Guitar,6,15,DL_warm_Guitar,0.16236217319965363,0
58,100,0.4,703,1,56,DL_warm_Guitar,6,6,DL_warm_Guitar,0.19105331599712372,0
58,100,0.4,871,0,56,DL_warm_Guitar,6,6,DL_warm_Guitar,0.261961966753006,0
58,100,0.3181818181818182,678,1,57,DL_warm_Guitar,6,5,DL_warm_Guitar,0.9983232617378235,1
58,100,0.5,810,0,57,DL_warm_Guitar,6,8,DL_warm_Guitar,0.5462122559547424,1
58,100,0.2,386,1,58,DL_warm_Guitar,6,3,DL_warm_Guitar,0.9990094900131226,1
58,100,0.7,435,0,58,DL_warm_Guitar,6,11,DL_warm_Guitar,0.2332337498664856,0
58,100,0.5181818181818182,625,0,58,DL_warm_Guitar,6,8,DL_warm_Guitar,0.2705864906311035,0
58,100,0.3,839,0,58,DL_warm_Guitar,6,5,DL_warm_Guitar,0.3579248785972595,0
58,100,1.759090909090909,31,1,59,DL_warm_Guitar,6,15,DL_warm_Guitar,0.9990094900131226,1
58,100,0.36363636363636365,444,1,59,DL_warm_Guitar,6,6,DL_warm_Guitar,0.23324546217918396,0
58,100,0.36363636363636365,531,0,59,DL_warm_Guitar,6,6,DL_warm_Guitar,0.27060115337371826,0
58,100,2.459090909090909,638,0,59,DL_warm_Guitar,6,15,DL_warm_Guitar,0.357907772064209,0
58,100,0.4590909090909091,303,1,60,DL_warm_Guitar,6,7,DL_warm_Guitar,0.9990280866622925,1
58,100,1.1,426,0,60,DL_warm_Guitar,6,15,DL_warm_Guitar,0.37034285068511963,0
60,100,1.3818181818181818,791,1,60,DL_warm_Guitar,6,15,DL_warm_Guitar,0.4561651945114136,0
60,100,0.4409090909090909,334,1,61,DL_warm_Guitar,6,7,DL_warm_Guitar,0.9990094900131226,1
58,100,0.6409090909090909,483,0,61,DL_warm_Guitar,6,10,DL_warm_Guitar,0.23323312401771545,0
58,100,0.6409090909090909,638,0,61,DL_warm_Guitar,6,10,DL_warm_Guitar,0.2705787718296051,0
58,100,0.21818181818181817,858,0,61,DL_warm_Guitar,6,3,DL_warm_Guitar,0.3579230010509491,0
60,100,0.6181818181818182,96,1,62,DL_warm_Guitar,6,10,DL_warm_Guitar,0.9984879493713379,1
58,100,0.3409090909090909,246,0,62,DL_warm_Guitar,6,5,DL_warm_Guitar,0.06335355341434479,0
58,100,0.21818181818181817,351,0,62,DL_warm_Guitar,6,3,DL_warm_Guitar,0.058288730680942535,0
58,100,0.4409090909090909,440,0,62,DL_warm_Guitar,6,7,DL_warm_Guitar,0.061362821608781815,0
60,100,0.11818181818181818,703,1,62,DL_warm_Guitar,6,2,DL_warm_Guitar,0.07168164104223251,0
60,100,0.18181818181818182,813,0,62,DL_warm_Guitar,6,3,DL_warm_Guitar,0.08473538607358932,0
58,100,0.8590909090909091,858,0,62,DL_warm_Guitar,6,14,DL_warm_Guitar,0.12634335458278656,0
58,100,0.18181818181818182,92,1,64,DL_warm_Guitar,6,3,DL_warm_Guitar,0.9988439083099365,1
58,100,0.6409090909090909,145,0,64,DL_warm_Guitar,6,10,DL_warm_Guitar,0.1379793882369995,0
58,100,0.6,487,1,64,DL_warm_Guitar,6,10,DL_warm_Guitar,0.16236373782157898,0
70,100,0.1590909090909091,743,1,64,DL_warm_Guitar,6,3,DL_warm_Guitar,0.19105570018291473,0
58,100,0.13636363636363635,787,0,64,DL_warm_Guitar,6,2,DL_warm_Guitar,0.2619650363922119,0
58,100,0.2772727272727273,30,1,65,DL_warm_Guitar,6,4,DL_warm_Guitar,0.9990280866622925,1
58,100,0.2590909090909091,100,0,65,DL_warm_Guitar,6,4,DL_warm_Guitar,0.3703344464302063,0
60,100,0.11818181818181818,787,1,65,DL_warm_Guitar,6,2,DL_warm_Guitar,0.45617374777793884,0
60,100,0.12272727272727273,26,1,66,DL_warm_Guitar,6,2,DL_warm_Guitar,0.9988439083099365,1
60,100,0.2409090909090909,123,0,66,DL_warm_Guitar,6,4,DL_warm_Guitar,0.1379828304052353,0
60,100,1.3636363636363635,179,0,66,DL_warm_Guitar,6,15,DL_warm_Guitar,0.162363663315773,0
60,100,0.23636363636363636,546,1,66,DL_warm_Guitar,6,4,DL_warm_Guitar,0.19105449318885803,0
60,100,0.7181818181818181,787,1,66,DL_warm_Guitar,6,11,DL_warm_Guitar,0.26196321845054626,0
60,100,0.9409090909090909,79,1,67,DL_warm_Guitar,6,15,DL_warm_Guitar,0.9990280866622925,1
60,100,0.4772727272727273,502,1,67,DL_warm_Guitar,6,8,DL_warm_Guitar,0.37033703923225403,0
60,100,0.3409090909090909,629,0,67,DL_warm_Guitar,6,5,DL_warm_Guitar,0.4561719000339508,0
58,100,0.22272727272727272,26,1,68,DL_warm_Guitar,6,4,DL_warm_Guitar,0.9990280866622925,1
58,100,0.2590909090909091,303,1,68,DL_warm_Guitar,6,4,DL_warm_Guitar,0.37033510208129883,0
58,100,0.22272727272727272,597,1,68,DL_warm_Guitar,6,4,DL_warm_Guitar,0.45617005228996277,0
58,100,0.2409090909090909,255,1,69,DL_warm_Guitar,6,4,DL_warm_Guitar,0.9990280866622925,1
58,100,0.6772727272727272,536,1,69,DL_warm_Guitar,6,11,DL_warm_Guitar,0.3703362047672272,0
58,100,0.5818181818181818,739,0,69,DL_warm_Guitar,6,9,DL_warm_Guitar,0.45616915822029114,0
58,100,0.38181818181818183,440,1,70,DL_warm_Guitar,6,6,DL_warm_Guitar,0.9983232617378235,1
60,100,0.6409090909090909,760,1,70,DL_warm_Guitar,6,10,DL_warm_Guitar,0.5462203025817871,1
60,100,0.17727272727272728,172,1,71,DL_warm_Guitar,6,3,DL_warm_Guitar,0.9990094900131226,1
60,100,0.18181818181818182,263,0,71,DL_warm_Guitar,6,3,DL_warm_Guitar,0.23322951793670654,0
60,100,0.9409090909090909,316,0,71,DL_warm_Guitar,6,15,DL_warm_Guitar,0.2705775499343872,0
70,100,0.43636363636363634,523,0,71,DL_warm_Guitar,6,7,DL_warm_Guitar,0.3579273521900177,0
58,100,0.2409090909090909,343,1,73,DL_warm_Guitar,6,4,DL_warm_Guitar,0.9990280866622925,1
58,100,0.7,559,0,73,DL_warm_Guitar,6,11,DL_warm_Guitar,0.3703320622444153,0
58,100,0.740909090909091,729,0,73,DL_warm_Guitar,6,12,DL_warm_Guitar,0.45617035031318665,0
58,100,0.13636363636363635,83,1,74,DL_warm_Guitar,6,2,DL_warm_Guitar,0.9988439083099365,1
58,100,1.518181818181818,140,0,74,DL_warm_Guitar,6,15,DL_warm_Guitar,0.13797976076602936,0
58,100,1.1181818181818182,502,1,74,DL_warm_Guitar,6,15,DL_warm_Guitar,0.1623612344264984,0
70,100,0.11818181818181818,792,1,74,DL_warm_Guitar,6,2,DL_warm_Guitar,0.19105742871761322,0
58,100,0.8636363636363636,817,0,74,DL_warm_Guitar,6,14,DL_warm_Guitar,0.2619536519050598,0
58,100,0.21818181818181817,132,1,75,DL_warm_Guitar,6,3,DL_warm_Guitar,0.9990094900131226,1
58,100,0.7636363636363637,487,1,75,DL_warm_Guitar,6,12,DL_warm_Guitar,0.23323597013950348,0
58,100,0.2409090909090909,660,0,75,DL_warm_Guitar,6,4,DL_warm_Guitar,0.27059224247932434,0
58,100,1.3636363636363635,752,0,75,DL_warm_Guitar,6,15,DL_warm_Guitar,0.357911080121994,0
70,100,0.17727272727272728,172,1,76,DL_warm_Guitar,6,3,DL_warm_Guitar,0.9984880685806274,1
58,100,0.41818181818181815,347,0,76,DL_warm_Guitar,6,7,DL_warm_Guitar,0.0633518248796463,0
60,100,0.37727272727272726,470,0,76,DL_warm_Guitar,6,6,DL_warm_Guitar,0.05828764662146568,0
70,100,0.11818181818181818,593,0,76,DL_warm_Guitar,6,2,DL_warm_Guitar,0.061359476298093796,0
58,100,0.33636363636363636,633,0,76,DL_warm_Guitar,6,5,DL_warm_Guitar,0.07168058305978775,0
58,100,0.2,783,0,76,DL_warm_Guitar,6,3,DL_warm_Guitar,0.08472985029220581,0
60,100,0.11818181818181818,853,0,76,DL_warm_Guitar,6,2,DL_warm_Guitar,0.1263493448495865,0
58,100,0.759090909090909,172,1,77,DL_warm_Guitar,6,12,DL_warm_Guitar,0.9988439083099365,1
58,100,0.9,386,0,77,DL_warm_Guitar,6,14,DL_warm_Guitar,0.1379813700914383,0
58,100,0.2818181818181818,593,0,77,DL_warm_Guitar,6,5,DL_warm_Guitar,0.16236230731010437,0
60,100,0.5,743,0,77,DL_warm_Guitar,6,8,DL_warm_Guitar,0.1910567730665207,0
58,100,0.6181818181818182,866,0,77,DL_warm_Guitar,6,10,DL_warm_Guitar,0.2619645595550537,0
58,100,0.5409090909090909,136,1,78,DL_warm_Guitar,6,9,DL_warm_Guitar,0.9988439083099365,1
58,100,0.11818181818181818,316,0,78,DL_warm_Guitar,6,2,DL_warm_Guitar,0.1379823237657547,0
58,100,1.018181818181818,396,0,78,DL_warm_Guitar,6,15,DL_warm_Guitar,0.16235975921154022,0
70,100,0.36363636363636365,619,0,78,DL_warm_Guitar,6,6,DL_warm_Guitar,0.1910494863986969,0
58,100,0.37727272727272726,766,0,78,DL_warm_Guitar,6,6,DL_warm_Guitar,0.26195788383483887,0
70,100,0.18181818181818182,176,1,79,DL_warm_Guitar,6,3,DL_warm_Guitar,0.9983231425285339,1
58,100,1.240909090909091,220,0,79,DL_warm_Guitar,6,15,DL_warm_Guitar,0.5462144613265991,1
58,100,0.2409090909090909,119,1,80,DL_warm_Guitar,6,4,DL_warm_Guitar,0.9990094900131226,1
58,100,0.11818181818181818,220,0,80,DL_warm_Guitar,6,2,DL_warm_Guitar,0.23323126137256622,0
58,100,0.32272727272727275,707,1,80,DL_warm_Guitar,6,5,DL_warm_Guitar,0.2705816328525543,0
58,100,0.8818181818181818,783,0,80,DL_warm_Guitar,6,14,DL_warm_Guitar,0.35791656374931335,0
70,100,0.37727272727272726,184,1,81,DL_warm_Guitar,6,6,DL_warm_Guitar,0.9986507296562195,1
58,100,0.5409090909090909,396,0,81,DL_warm_Guitar,6,9,DL_warm_Guitar,0.08797764778137207,0
60,100,0.2772727272727273,536,0,81,DL_warm_Guitar,6,4,DL_warm_Guitar,0.09298408031463623,0
70,100,0.2772727272727273,612,0,81,DL_warm_Guitar,6,4,DL_warm_Guitar,0.10994543135166168,0
58,100,0.6227272727272727,673,0,81,DL_warm_Guitar,6,10,DL_warm_Guitar,0.1286657303571701,0
60,100,0.6590909090909091,813,0,81,DL_warm_Guitar,6,11,DL_warm_Guitar,0.18221600353717804,0
58,100,0.2409090909090909,206,1,82,DL_warm_Guitar,6,4,DL_warm_Guitar,0.9990094900131226,1
63,100,0.18181818181818182,453,1,82,DL_warm_Guitar,6,3,DL_warm_Guitar,0.23323333263397217,0
63,100,0.1,496,0,82,DL_warm_Guitar,6,2,DL_warm_Guitar,0.2705857753753662,0
63,100,0.4,619,0,82,DL_warm_Guitar,6,6,DL_warm_Guitar,0.35792824625968933,0
58,100,0.11818181818181818,40,1,83,DL_warm_Guitar,6,2,DL_warm_Guitar,0.9990280866622925,1
58,100,0.11818181818181818,83,0,83,DL_warm_Guitar,6,2,DL_warm_Guitar,0.37034016847610474,0
58,100,0.5636363636363636,113,0,83,DL_warm_Guitar,6,9,DL_warm_Guitar,0.4561680853366852,0
52,100,1.290909090909091,610,1,13,DL_deepemotion_Guitar_1,6,15,DL_deepemotion_Guitar_1,0.9792241454124451,1
62,100,0.20909090909090908,764,1,15,DL_deepemotion_Guitar_1,6,3,DL_deepemotion_Guitar_1,0.9792231321334839,1
62,100,0.4772727272727273,37,1,16,DL_deepemotion_Guitar_1,6,8,DL_deepemotion_Guitar_1,0.9792241454124451,1
62,100,0.4590909090909091,715,1,17,DL_deepemotion_Guitar_1,6,7,DL_deepemotion_Guitar_1,0.9983231425285339,1
62,100,0.37727272727272726,834,0,17,DL_deepemotion_Guitar_1,6,6,DL_deepemotion_Guitar_1,0.5462228059768677,1
57,100,0.9181818181818182,270,1,19,DL_deepemotion_Guitar_1,6,15,DL_deepemotion_Guitar_1,0.9983231425285339,1
52,100,2.3363636363636364,655,1,19,DL_deepemotion_Guitar_1,6,15,DL_deepemotion_Guitar_1,0.5462121963500977,1
62,100,0.5181818181818182,288,1,20,DL_deepemotion_Guitar_1,6,8,DL_deepemotion_Guitar_1,0.9990280866622925,1
62,100,0.20909090909090908,416,0,20,DL_deepemotion_Guitar_1,6,3,DL_deepemotion_Guitar_1,0.37034422159194946,0
52,100,0.33181818181818185,540,0,20,DL_deepemotion_Guitar_1,6,5,DL_deepemotion_Guitar_1,0.4561823606491089,0
58,100,0.7318181818181818,292,1,21,DL_deepemotion_Guitar_1,6,12,DL_deepemotion_Guitar_1,0.9983232617378235,1
58,100,0.5227272727272727,536,1,21,DL_deepemotion_Guitar_1,6,8,DL_deepemotion_Guitar_1,0.5462154746055603,1
57,100,0.16818181818181818,110,1,22,DL_deepemotion_Guitar_1,6,3,DL_deepemotion_Guitar_1,0.9990280866622925,1
57,100,0.16818181818181818,361,1,22,DL_deepemotion_Guitar_1,6,3,DL_deepemotion_Guitar_1,0.3703381419181824,0
66,100,0.2681818181818182,815,1,22,DL_deepemotion_Guitar_1,6,4,DL_deepemotion_Guitar_1,0.45616698265075684,0
66,100,0.14545454545454545,9,1,23,DL_deepemotion_Guitar_1,6,2,DL_deepemotion_Guitar_1,0.9990280866622925,1
64,100,0.14545454545454545,261,1,23,DL_deepemotion_Guitar_1,6,2,DL_deepemotion_Guitar_1,0.37034350633621216,0
62,100,0.41363636363636364,797,1,23,DL_deepemotion_Guitar_1,6,7,DL_deepemotion_Guitar_1,0.4561728835105896,0
62,100,0.12272727272727273,188,1,24,DL_deepemotion_Guitar_1,6,2,DL_deepemotion_Guitar_1,0.9983232617378235,1
57,100,0.20909090909090908,361,0,24,DL_deepemotion_Guitar_1,6,3,DL_deepemotion_Guitar_1,0.5462200045585632,1
61,100,0.31363636363636366,518,1,25,DL_deepemotion_Guitar_1,6,5,DL_deepemotion_Guitar_1,0.9990280866622925,1
61,100,0.75,642,0,25,DL_deepemotion_Guitar_1,6,12,DL_deepemotion_Guitar_1,0.3703414797782898,0
61,100,0.37727272727272726,820,0,25,DL_deepemotion_Guitar_1,6,6,DL_deepemotion_Guitar_1,0.45617055892944336,0
61,100,0.2681818181818182,279,1,26,DL_deepemotion_Guitar_1,6,4,DL_deepemotion_Guitar_1,0.9983231425285339,1
61,100,1.0,536,1,26,DL_deepemotion_Guitar_1,6,15,DL_deepemotion_Guitar_1,0.5462127327919006,1
66,100,0.2727272727272727,251,1,27,DL_deepemotion_Guitar_1,6,4,DL_deepemotion_Guitar_1,0.9983232617378235,1
66,100,0.4818181818181818,435,0,27,DL_deepemotion_Guitar_1,6,8,DL_deepemotion_Guitar_1,0.546215832233429,1
57,100,0.16363636363636364,114,1,28,DL_deepemotion_Guitar_1,6,3,DL_deepemotion_Guitar_1,0.9990280866622925,1
66,100,0.4590909090909091,265,0,28,DL_deepemotion_Guitar_1,6,7,DL_deepemotion_Guitar_1,0.37034398317337036,0
57,100,0.16818181818181818,559,1,28,DL_deepemotion_Guitar_1,6,3,DL_deepemotion_Guitar_1,0.45616957545280457,0
57,100,0.25,224,1,29,DL_deepemotion_Guitar_1,6,4,DL_deepemotion_Guitar_1,0.9988439083099365,1
64,100,0.5,306,0,29,DL_deepemotion_Guitar_1,6,8,DL_deepemotion_Guitar_1,0.13798436522483826,0
64,100,0.25,444,0,29,DL_deepemotion_Guitar_1,6,4,DL_deepemotion_Guitar_1,0.16237226128578186,0
64,100,0.12272727272727273,532,0,29,DL_deepemotion_Guitar_1,6,2,DL_deepemotion_Guitar_1,0.19106942415237427,0
61,100,1.0,669,0,29,DL_deepemotion_Guitar_1,6,15,DL_deepemotion_Guitar_1,0.2619730532169342,0
57,100,0.41818181818181815,133,1,30,DL_deepemotion_Guitar_1,6,7,DL_deepemotion_Guitar_1,0.9986506104469299,1
57,100,0.12272727272727273,233,0,30,DL_deepemotion_Guitar_1,6,2,DL_deepemotion_Guitar_1,0.08798103034496307,0
64,100,0.16818181818181818,306,0,30,DL_deepemotion_Guitar_1,6,3,DL_deepemotion_Guitar_1,0.09298844635486603,0
57,100,0.16363636363636364,595,1,30,DL_deepemotion_Guitar_1,6,3,DL_deepemotion_Guitar_1,0.10995545238256454,0
61,100,0.10454545454545454,715,0,30,DL_deepemotion_Guitar_1,6,2,DL_deepemotion_Guitar_1,0.12867896258831024,0
57,100,0.39545454545454545,746,0,30,DL_deepemotion_Guitar_1,6,6,DL_deepemotion_Guitar_1,0.18223196268081665,0
62,100,0.5636363636363636,41,1,31,DL_deepemotion_Guitar_1,6,9,DL_deepemotion_Guitar_1,0.9986506104469299,1
62,100,0.14545454545454545,206,0,31,DL_deepemotion_Guitar_1,6,2,DL_deepemotion_Guitar_1,0.08798309415578842,0
62,100,1.0,243,0,31,DL_deepemotion_Guitar_1,6,15,DL_deepemotion_Guitar_1,0.0929877981543541,0
54,100,0.3090909090909091,609,1,31,DL_deepemotion_Guitar_1,6,5,DL_deepemotion_Guitar_1,0.10995679348707199,0
62,100,0.20909090909090908,715,0,31,DL_deepemotion_Guitar_1,6,3,DL_deepemotion_Guitar_1,0.12867937982082367,0
62,100,0.41818181818181815,765,0,31,DL_deepemotion_Guitar_1,6,7,DL_deepemotion_Guitar_1,0.18223316967487335,0
62,100,0.39545454545454545,256,1,32,DL_deepemotion_Guitar_1,6,6,DL_deepemotion_Guitar_1,0.9983735084533691,1
62,100,0.22727272727272727,357,0,32,DL_deepemotion_Guitar_1,6,4,DL_deepemotion_Guitar_1,0.05105112865567207,0
62,100,0.15,412,0,32,DL_deepemotion_Guitar_1,6,2,DL_deepemotion_Guitar_1,0.04161353036761284,0
62,100,0.18636363636363637,467,0,32,DL_deepemotion_Guitar_1,6,3,DL_deepemotion_Guitar_1,0.037982143461704254,0
57,100,0.43636363636363634,531,0,32,DL_deepemotion_Guitar_1,6,7,DL_deepemotion_Guitar_1,0.03926501050591469,0
62,100,0.37727272727272726,632,0,32,DL_deepemotion_Guitar_1,6,6,DL_deepemotion_Guitar_1,0.046171508729457855,0
57,100,0.20909090909090908,733,0,32,DL_deepemotion_Guitar_1,6,3,DL_deepemotion_Guitar_1,0.0571400411427021,0
62,100,0.2727272727272727,811,0,32,DL_deepemotion_Guitar_1,6,4,DL_deepemotion_Guitar_1,0.0918886810541153,0
62,100,1.1045454545454545,18,1,33,DL_deepemotion_Guitar_1,6,15,DL_deepemotion_Guitar_1,0.9990280866622925,1
62,100,0.10454545454545454,266,1,33,DL_deepemotion_Guitar_1,6,2,DL_deepemotion_Guitar_1,0.3703478276729584,0
62,100,0.8363636363636363,293,0,33,DL_deepemotion_Guitar_1,6,13,DL_deepemotion_Guitar_1,0.45618054270744324,0
62,100,0.12272727272727273,22,1,34,DL_deepemotion_Guitar_1,6,2,DL_deepemotion_Guitar_1,0.9990094900131226,1
57,100,1.3727272727272728,156,0,34,DL_deepemotion_Guitar_1,6,15,DL_deepemotion_Guitar_1,0.2332364171743393,0
57,100,0.5,544,1,34,DL_deepemotion_Guitar_1,6,8,DL_deepemotion_Guitar_1,0.2706001102924347,0
57,100,1.0227272727272727,660,0,34,DL_deepemotion_Guitar_1,6,15,DL_deepemotion_Guitar_1,0.35793107748031616,0
57,100,0.2681818181818182,27,1,35,DL_deepemotion_Guitar_1,6,4,DL_deepemotion_Guitar_1,0.9990280866622925,1
62,100,0.7090909090909091,288,1,35,DL_deepemotion_Guitar_1,6,11,DL_deepemotion_Guitar_1,0.3703504502773285,0
62,100,0.20909090909090908,448,0,35,DL_deepemotion_Guitar_1,6,3,DL_deepemotion_Guitar_1,0.4561832547187805,0
57,100,0.22727272727272727,385,1,36,DL_deepemotion_Guitar_1,6,4,DL_deepemotion_Guitar_1,0.9990280866622925,1
62,100,0.2318181818181818,544,0,36,DL_deepemotion_Guitar_1,6,4,DL_deepemotion_Guitar_1,0.37034907937049866,0
62,100,0.29545454545454547,852,1,36,DL_deepemotion_Guitar_1,6,5,DL_deepemotion_Guitar_1,0.4561801850795746,0
62,100,0.12272727272727273,55,1,37,DL_deepemotion_Guitar_1,6,2,DL_deepemotion_Guitar_1,0.9982556700706482,1
62,100,0.14545454545454545,87,0,37,DL_deepemotion_Guitar_1,6,2,DL_deepemotion_Guitar_1,0.04129302129149437,0
64,100,0.14545454545454545,266,0,37,DL_deepemotion_Guitar_1,6,2,DL_deepemotion_Guitar_1,0.02912689745426178,0
57,100,0.31363636363636366,352,0,37,DL_deepemotion_Guitar_1,6,5,DL_deepemotion_Guitar_1,0.021569980308413506,0
57,100,0.25,558,0,37,DL_deepemotion_Guitar_1,6,4,DL_deepemotion_Guitar_1,0.017060671001672745,0
57,100,0.16818181818181818,623,0,37,DL_deepemotion_Guitar_1,6,3,DL_deepemotion_Guitar_1,0.01526965107768774,0
57,100,0.2318181818181818,668,0,37,DL_deepemotion_Guitar_1,6,4,DL_deepemotion_Guitar_1,0.016457490622997284,0
57,100,0.2318181818181818,733,0,37,DL_deepemotion_Guitar_1,6,4,DL_deepemotion_Guitar_1,0.021839600056409836,0
64,100,0.12727272727272726,788,0,37,DL_deepemotion_Guitar_1,6,2,DL_deepemotion_Guitar_1,0.03252016752958298,0
57,100,1.290909090909091,866,0,37,DL_deepemotion_Guitar_1,6,15,DL_deepemotion_Guitar_1,0.060911938548088074,0
64,100,0.5636363636363636,269,1,38,DL_deepemotion_Guitar_1,6,9,DL_deepemotion_Guitar_1,0.9983231425285339,1
64,100,0.4772727272727273,706,1,38,DL_deepemotion_Guitar_1,6,8,DL_deepemotion_Guitar_1,0.5462155342102051,1
62,100,0.14545454545454545,8,1,39,DL_deepemotion_Guitar_1,6,2,DL_deepemotion_Guitar_1,0.9990094900131226,1
59,100,0.20909090909090908,311,1,39,DL_deepemotion_Guitar_1,6,3,DL_deepemotion_Guitar_1,0.23323726654052734,0
62,100,0.8318181818181818,495,0,39,DL_deepemotion_Guitar_1,6,13,DL_deepemotion_Guitar_1,0.2705881595611572,0
57,100,0.31363636363636366,833,1,39,DL_deepemotion_Guitar_1,6,5,DL_deepemotion_Guitar_1,0.357939213514328,0
62,100,0.2681818181818182,101,1,40,DL_deepemotion_Guitar_1,6,4,DL_deepemotion_Guitar_1,0.9986506104469299,1
57,100,0.16818181818181818,165,0,40,DL_deepemotion_Guitar_1,6,3,DL_deepemotion_Guitar_1,0.08798263967037201,0
62,100,0.8136363636363636,293,0,40,DL_deepemotion_Guitar_1,6,13,DL_deepemotion_Guitar_1,0.0929892286658287,0
57,100,0.5818181818181818,476,0,40,DL_deepemotion_Guitar_1,6,9,DL_deepemotion_Guitar_1,0.10995448380708694,0
57,100,0.25,627,0,40,DL_deepemotion_Guitar_1,6,4,DL_deepemotion_Guitar_1,0.12868258357048035,0
57,100,0.2727272727272727,733,0,40,DL_deepemotion_Guitar_1,6,4,DL_deepemotion_Guitar_1,0.18223540484905243,0
57,100,0.31363636363636366,41,1,41,DL_deepemotion_Guitar_1,6,5,DL_deepemotion_Guitar_1,0.9986506104469299,1
57,100,0.2727272727272727,118,0,41,DL_deepemotion_Guitar_1,6,4,DL_deepemotion_Guitar_1,0.08798108249902725,0
59,100,1.3772727272727272,197,0,41,DL_deepemotion_Guitar_1,6,15,DL_deepemotion_Guitar_1,0.09298636019229889,0
59,100,0.33181818181818185,627,1,41,DL_deepemotion_Guitar_1,6,5,DL_deepemotion_Guitar_1,0.10995341092348099,0
64,100,0.2909090909090909,723,0,41,DL_deepemotion_Guitar_1,6,5,DL_deepemotion_Guitar_1,0.12867403030395508,0
64,100,0.2909090909090909,806,0,41,DL_deepemotion_Guitar_1,6,5,DL_deepemotion_Guitar_1,0.18223023414611816,0
59,100,0.12727272727272726,18,1,42,DL_deepemotion_Guitar_1,6,2,DL_deepemotion_Guitar_1,0.9983735084533691,1
52,100,0.2909090909090909,63,0,42,DL_deepemotion_Guitar_1,6,5,DL_deepemotion_Guitar_1,0.05104926601052284,0
62,100,0.12727272727272726,159,0,42,DL_deepemotion_Guitar_1,6,2,DL_deepemotion_Guitar_1,0.04161342605948448,0
57,100,0.2727272727272727,220,0,42,DL_deepemotion_Guitar_1,6,4,DL_deepemotion_Guitar_1,0.03798127546906471,0
57,100,0.6681818181818182,283,0,42,DL_deepemotion_Guitar_1,6,11,DL_deepemotion_Guitar_1,0.03926190733909607,0
57,100,0.43636363636363634,582,1,42,DL_deepemotion_Guitar_1,6,7,DL_deepemotion_Guitar_1,0.046168986707925797,0
57,100,0.39545454545454545,706,0,42,DL_deepemotion_Guitar_1,6,6,DL_deepemotion_Guitar_1,0.05713658779859543,0
57,100,0.25,838,0,42,DL_deepemotion_Guitar_1,6,4,DL_deepemotion_Guitar_1,0.09188486635684967,0
57,100,0.18636363636363637,101,1,43,DL_deepemotion_Guitar_1,6,3,DL_deepemotion_Guitar_1,0.9983232617378235,1
66,100,0.41818181818181815,214,0,43,DL_deepemotion_Guitar_1,6,7,DL_deepemotion_Guitar_1,0.5462154746055603,1
62,100,0.12727272727272726,214,1,44,DL_deepemotion_Guitar_1,6,2,DL_deepemotion_Guitar_1,0.9988439083099365,1
57,100,0.4772727272727273,242,0,44,DL_deepemotion_Guitar_1,6,8,DL_deepemotion_Guitar_1,0.13798420131206512,0
62,100,0.1,500,1,44,DL_deepemotion_Guitar_1,6,2,DL_deepemotion_Guitar_1,0.1623729020357132,0
62,100,0.10454545454545454,527,0,44,DL_deepemotion_Guitar_1,6,2,DL_deepemotion_Guitar_1,0.1910618394613266,0
62,100,0.25,816,1,44,DL_deepemotion_Guitar_1,6,4,DL_deepemotion_Guitar_1,0.2619820535182953,0
62,100,0.12272727272727273,146,1,45,DL_deepemotion_Guitar_1,6,2,DL_deepemotion_Guitar_1,0.9984880685806274,1
57,100,0.25,178,0,45,DL_deepemotion_Guitar_1,6,4,DL_deepemotion_Guitar_1,0.06335493922233582,0
62,100,0.9818181818181818,238,0,45,DL_deepemotion_Guitar_1,6,15,DL_deepemotion_Guitar_1,0.05829161778092384,0
66,100,0.20909090909090908,558,1,45,DL_deepemotion_Guitar_1,6,3,DL_deepemotion_Guitar_1,0.06136559322476387,0
66,100,0.20909090909090908,637,0,45,DL_deepemotion_Guitar_1,6,3,DL_deepemotion_Guitar_1,0.07168595492839813,0
66,100,0.16818181818181818,733,0,45,DL_deepemotion_Guitar_1,6,3,DL_deepemotion_Guitar_1,0.08474139869213104,0
62,100,0.5636363636363636,816,0,45,DL_deepemotion_Guitar_1,6,9,DL_deepemotion_Guitar_1,0.12635433673858643,0
57,100,0.35454545454545455,142,1,46,DL_deepemotion_Guitar_1,6,6,DL_deepemotion_Guitar_1,0.9988439083099365,1
57,100,0.25,269,0,46,DL_deepemotion_Guitar_1,6,4,DL_deepemotion_Guitar_1,0.13798879086971283,0
59,100,0.29545454545454547,434,0,46,DL_deepemotion_Guitar_1,6,5,DL_deepemotion_Guitar_1,0.16237026453018188,0
57,100,0.33636363636363636,503,0,46,DL_deepemotion_Guitar_1,6,5,DL_deepemotion_Guitar_1,0.19106778502464294,0
57,100,0.7318181818181818,723,0,46,DL_deepemotion_Guitar_1,6,12,DL_deepemotion_Guitar_1,0.2619684934616089,0
59,100,0.14545454545454545,701,1,47,DL_deepemotion_Guitar_1,6,2,DL_deepemotion_Guitar_1,0.9983232617378235,1
52,100,0.20909090909090908,747,0,47,DL_deepemotion_Guitar_1,6,3,DL_deepemotion_Guitar_1,0.5462150573730469,1
62,100,0.33181818181818185,220,1,48,DL_deepemotion_Guitar_1,6,5,DL_deepemotion_Guitar_1,0.9990280866622925,1
57,100,0.33181818181818185,531,1,48,DL_deepemotion_Guitar_1,6,5,DL_deepemotion_Guitar_1,0.37034744024276733,0
66,100,0.4590909090909091,756,0,48,DL_deepemotion_Guitar_1,6,7,DL_deepemotion_Guitar_1,0.45618221163749695,0
57,100,0.20454545454545456,555,1,49,DL_deepemotion_Guitar_1,6,3,DL_deepemotion_Guitar_1,0.9983232617378235,1
59,100,0.16363636363636364,861,1,49,DL_deepemotion_Guitar_1,6,3,DL_deepemotion_Guitar_1,0.5462185144424438,1
57,100,1.9136363636363636,115,1,50,DL_deepemotion_Guitar_1,6,15,DL_deepemotion_Guitar_1,0.9983231425285339,1
52,100,0.9772727272727273,792,1,50,DL_deepemotion_Guitar_1,6,15,DL_deepemotion_Guitar_1,0.5462232232093811,1
66,100,0.22727272727272727,357,1,51,DL_deepemotion_Guitar_1,6,4,DL_deepemotion_Guitar_1,0.9792247414588928,1
57,100,0.10454545454545454,362,1,52,DL_deepemotion_Guitar_1,6,2,DL_deepemotion_Guitar_1,0.9990280866622925,1
62,100,0.5454545454545454,489,0,52,DL_deepemotion_Guitar_1,6,9,DL_deepemotion_Guitar_1,0.3703438341617584,0
62,100,0.35454545454545455,737,1,52,DL_deepemotion_Guitar_1,6,6,DL_deepemotion_Guitar_1,0.45618167519569397,0
62,100,0.16818181818181818,128,1,53,DL_deepemotion_Guitar_1,6,3,DL_deepemotion_Guitar_1,0.9984879493713379,1
62,100,0.12272727272727273,288,0,53,DL_deepemotion_Guitar_1,6,2,DL_deepemotion_Guitar_1,0.06335484236478806,0
62,100,0.2727272727272727,330,0,53,DL_deepemotion_Guitar_1,6,4,DL_deepemotion_Guitar_1,0.05829177424311638,0
54,100,0.39545454545454545,407,0,53,DL_deepemotion_Guitar_1,6,6,DL_deepemotion_Guitar_1,0.06136595457792282,0
54,100,0.1,500,0,53,DL_deepemotion_Guitar_1,6,2,DL_deepemotion_Guitar_1,0.0716886892914772,0
66,100,0.20909090909090908,701,0,53,DL_deepemotion_Guitar_1,6,3,DL_deepemotion_Guitar_1,0.08473976701498032,0
69,100,0.29545454545454547,764,0,53,DL_deepemotion_Guitar_1,6,5,DL_deepemotion_Guitar_1,0.12635540962219238,0
57,100,0.18636363636363637,187,1,54,DL_deepemotion_Guitar_1,6,3,DL_deepemotion_Guitar_1,0.9990094900131226,1
62,100,0.18636363636363637,673,1,54,DL_deepemotion_Guitar_1,6,3,DL_deepemotion_Guitar_1,0.23324064910411835,0
57,100,0.25,783,0,54,DL_deepemotion_Guitar_1,6,4,DL_deepemotion_Guitar_1,0.27059242129325867,0
57,100,1.0,852,0,54,DL_deepemotion_Guitar_1,6,15,DL_deepemotion_Guitar_1,0.35793888568878174,0
57,100,0.9545454545454546,201,1,55,DL_deepemotion_Guitar_1,6,15,DL_deepemotion_Guitar_1,0.9990280866622925,1
57,100,0.14545454545454545,421,0,55,DL_deepemotion_Guitar_1,6,2,DL_deepemotion_Guitar_1,0.3703429400920868,0
57,100,0.18636363636363637,462,0,55,DL_deepemotion_Guitar_1,6,3,DL_deepemotion_Guitar_1,0.45617204904556274,0
69,100,0.2727272727272727,489,1,57,DL_deepemotion_Guitar_1,6,4,DL_deepemotion_Guitar_1,0.9990280866622925,1
59,100,0.33181818181818185,618,0,57,DL_deepemotion_Guitar_1,6,5,DL_deepemotion_Guitar_1,0.3703467845916748,0
62,100,0.2681818181818182,783,0,57,DL_deepemotion_Guitar_1,6,4,DL_deepemotion_Guitar_1,0.45617130398750305,0
62,100,0.14545454545454545,641,1,58,DL_deepemotion_Guitar_1,6,2,DL_deepemotion_Guitar_1,0.9990280866622925,1
62,100,0.20909090909090908,728,0,58,DL_deepemotion_Guitar_1,6,3,DL_deepemotion_Guitar_1,0.37034377455711365,0
62,100,0.20909090909090908,843,0,58,DL_deepemotion_Guitar_1,6,3,DL_deepemotion_Guitar_1,0.4561783969402313,0
62,100,0.2681818181818182,115,1,59,DL_deepemotion_Guitar_1,6,4,DL_deepemotion_Guitar_1,0.9983231425285339,1
62,100,0.2727272727272727,183,0,59,DL_deepemotion_Guitar_1,6,4,DL_deepemotion_Guitar_1,0.5462238192558289,1
57,100,0.8954545454545455,555,1,63,DL_deepemotion_Guitar_1,6,14,DL_deepemotion_Guitar_1,0.9990280866622925,1
57,100,0.16818181818181818,764,0,63,DL_deepemotion_Guitar_1,6,3,DL_deepemotion_Guitar_1,0.370359867811203,0
57,100,0.5454545454545454,819,0,63,DL_deepemotion_Guitar_1,6,9,DL_deepemotion_Guitar_1,0.4561580717563629,0
57,100,0.20909090909090908,100,1,64,DL_deepemotion_Guitar_1,6,3,DL_deepemotion_Guitar_1,0.9986506104469299,1
57,100,1.209090909090909,151,0,64,DL_deepemotion_Guitar_1,6,15,DL_deepemotion_Guitar_1,0.08797942101955414,0
57,100,0.35454545454545455,550,1,64,DL_deepemotion_Guitar_1,6,6,DL_deepemotion_Guitar_1,0.09298498928546906,0
57,100,0.2727272727272727,655,0,64,DL_deepemotion_Guitar_1,6,4,DL_deepemotion_Guitar_1,0.10995138436555862,0
57,100,0.31363636363636366,732,0,64,DL_deepemotion_Guitar_1,6,5,DL_deepemotion_Guitar_1,0.12867027521133423,0
57,100,0.4590909090909091,834,0,64,DL_deepemotion_Guitar_1,6,7,DL_deepemotion_Guitar_1,0.18221856653690338,0
62,100,0.39545454545454545,68,1,65,DL_deepemotion_Guitar_1,6,6,DL_deepemotion_Guitar_1,0.9984879493713379,1
57,100,0.6227272727272727,210,0,65,DL_deepemotion_Guitar_1,6,10,DL_deepemotion_Guitar_1,0.06335607171058655,0
57,100,0.20909090909090908,375,0,65,DL_deepemotion_Guitar_1,6,3,DL_deepemotion_Guitar_1,0.058291640132665634,0
52,100,0.18636363636363637,440,0,65,DL_deepemotion_Guitar_1,6,3,DL_deepemotion_Guitar_1,0.06136782094836235,0
52,100,0.20909090909090908,485,0,65,DL_deepemotion_Guitar_1,6,3,DL_deepemotion_Guitar_1,0.07168865948915482,0
57,100,0.20909090909090908,600,0,65,DL_deepemotion_Guitar_1,6,3,DL_deepemotion_Guitar_1,0.08474432677030563,0
57,100,0.75,724,0,65,DL_deepemotion_Guitar_1,6,12,DL_deepemotion_Guitar_1,0.12636063992977142,0
57,100,1.25,13,1,66,DL_deepemotion_Guitar_1,6,15,DL_deepemotion_Guitar_1,0.9990280866622925,1
62,100,0.45454545454545453,499,1,66,DL_deepemotion_Guitar_1,6,7,DL_deepemotion_Guitar_1,0.3703521490097046,0
57,100,0.8136363636363636,618,0,66,DL_deepemotion_Guitar_1,6,13,DL_deepemotion_Guitar_1,0.45617106556892395,0
62,100,0.5227272727272727,9,1,67,DL_deepemotion_Guitar_1,6,8,DL_deepemotion_Guitar_1,0.9986506104469299,1
57,100,0.14545454545454545,174,0,67,DL_deepemotion_Guitar_1,6,2,DL_deepemotion_Guitar_1,0.08798321336507797,0
62,100,0.5409090909090909,210,0,67,DL_deepemotion_Guitar_1,6,9,DL_deepemotion_Guitar_1,0.09299464523792267,0
57,100,0.33636363636363636,347,0,67,DL_deepemotion_Guitar_1,6,5,DL_deepemotion_Guitar_1,0.10995915532112122,0
57,100,0.5636363636363636,471,0,67,DL_deepemotion_Guitar_1,6,9,DL_deepemotion_Guitar_1,0.12868677079677582,0
57,100,1.790909090909091,618,0,67,DL_deepemotion_Guitar_1,6,15,DL_deepemotion_Guitar_1,0.18223130702972412,0
62,100,0.7090909090909091,408,1,68,DL_deepemotion_Guitar_1,6,11,DL_deepemotion_Guitar_1,0.9990094900131226,1
57,100,1.0227272727272727,567,0,68,DL_deepemotion_Guitar_1,6,15,DL_deepemotion_Guitar_1,0.23323379456996918,0
57,100,0.12272727272727273,797,0,68,DL_deepemotion_Guitar_1,6,2,DL_deepemotion_Guitar_1,0.2705910801887512,0
57,100,0.6863636363636364,862,0,68,DL_deepemotion_Guitar_1,6,11,DL_deepemotion_Guitar_1,0.357937216758728,0
62,100,0.39545454545454545,141,1,69,DL_deepemotion_Guitar_1,6,6,DL_deepemotion_Guitar_1,0.9988439083099365,1
62,100,0.9772727272727273,233,0,69,DL_deepemotion_Guitar_1,6,15,DL_deepemotion_Guitar_1,0.1379861980676651,0
62,100,0.20909090909090908,453,0,69,DL_deepemotion_Guitar_1,6,3,DL_deepemotion_Guitar_1,0.16237297654151917,0
57,100,0.10454545454545454,701,1,69,DL_deepemotion_Guitar_1,6,2,DL_deepemotion_Guitar_1,0.19107016921043396,0
62,100,0.7272727272727273,825,0,69,DL_deepemotion_Guitar_1,6,12,DL_deepemotion_Guitar_1,0.26198068261146545,0
62,100,0.12272727272727273,165,1,70,DL_deepemotion_Guitar_1,6,2,DL_deepemotion_Guitar_1,0.9990280866622925,1
62,100,0.33181818181818185,306,0,70,DL_deepemotion_Guitar_1,6,5,DL_deepemotion_Guitar_1,0.3703524172306061,0
62,100,0.9409090909090909,467,0,70,DL_deepemotion_Guitar_1,6,15,DL_deepemotion_Guitar_1,0.4561804234981537,0
59,100,0.5818181818181818,37,1,71,DL_deepemotion_Guitar_1,6,9,DL_deepemotion_Guitar_1,0.9990094900131226,1
62,100,0.7318181818181818,316,1,71,DL_deepemotion_Guitar_1,6,12,DL_deepemotion_Guitar_1,0.23324152827262878,0
62,100,0.31363636363636366,481,0,71,DL_deepemotion_Guitar_1,6,5,DL_deepemotion_Guitar_1,0.27060937881469727,0
62,100,2.331818181818182,783,1,71,DL_deepemotion_Guitar_1,6,15,DL_deepemotion_Guitar_1,0.35792866349220276,0
62,100,0.31363636363636366,430,1,72,DL_deepemotion_Guitar_1,6,5,DL_deepemotion_Guitar_1,0.9990094900131226,1
62,100,0.5227272727272727,522,0,72,DL_deepemotion_Guitar_1,6,8,DL_deepemotion_Guitar_1,0.23324647545814514,0
57,100,0.18636363636363637,636,0,72,DL_deepemotion_Guitar_1,6,3,DL_deepemotion_Guitar_1,0.27060145139694214,0
57,100,0.5818181818181818,697,0,72,DL_deepemotion_Guitar_1,6,9,DL_deepemotion_Guitar_1,0.3579407036304474,0
57,100,0.35454545454545455,41,1,73,DL_deepemotion_Guitar_1,6,6,DL_deepemotion_Guitar_1,0.9986506104469299,1
62,100,0.37272727272727274,422,1,73,DL_deepemotion_Guitar_1,6,6,DL_deepemotion_Guitar_1,0.08798156678676605,0
62,100,0.16818181818181818,526,0,73,DL_deepemotion_Guitar_1,6,3,DL_deepemotion_Guitar_1,0.09299017488956451,0
57,100,0.37272727272727274,573,0,73,DL_deepemotion_Guitar_1,6,6,DL_deepemotion_Guitar_1,0.10995510965585709,0
55,100,0.12272727272727273,719,0,73,DL_deepemotion_Guitar_1,6,2,DL_deepemotion_Guitar_1,0.12867876887321472,0
59,100,0.35454545454545455,815,0,73,DL_deepemotion_Guitar_1,6,6,DL_deepemotion_Guitar_1,0.18222260475158691,0
59,100,0.2909090909090909,68,1,74,DL_deepemotion_Guitar_1,6,5,DL_deepemotion_Guitar_1,0.9988439083099365,1
62,100,0.6454545454545455,292,0,74,DL_deepemotion_Guitar_1,6,10,DL_deepemotion_Guitar_1,0.1379808783531189,0
59,100,0.6681818181818182,435,0,74,DL_deepemotion_Guitar_1,6,11,DL_deepemotion_Guitar_1,0.16236761212348938,0
71,100,0.14545454545454545,614,0,74,DL_deepemotion_Guitar_1,6,2,DL_deepemotion_Guitar_1,0.19106240570545197,0
61,100,0.37727272727272726,655,0,74,DL_deepemotion_Guitar_1,6,6,DL_deepemotion_Guitar_1,0.26196563243865967,0
62,100,0.6681818181818182,86,1,75,DL_deepemotion_Guitar_1,6,11,DL_deepemotion_Guitar_1,0.9990094900131226,1
62,100,1.3545454545454545,302,0,75,DL_deepemotion_Guitar_1,6,15,DL_deepemotion_Guitar_1,0.23323635756969452,0
62,100,0.5181818181818182,642,1,75,DL_deepemotion_Guitar_1,6,8,DL_deepemotion_Guitar_1,0.2706020772457123,0
57,100,0.7954545454545454,765,0,75,DL_deepemotion_Guitar_1,6,13,DL_deepemotion_Guitar_1,0.35794466733932495,0
62,100,1.1863636363636363,64,1,76,DL_deepemotion_Guitar_1,6,15,DL_deepemotion_Guitar_1,0.9990094900131226,1
57,100,0.6272727272727273,325,1,76,DL_deepemotion_Guitar_1,6,10,DL_deepemotion_Guitar_1,0.23323462903499603,0
62,100,0.8954545454545455,554,0,76,DL_deepemotion_Guitar_1,6,14,DL_deepemotion_Guitar_1,0.27059584856033325,0
57,100,1.0,765,0,76,DL_deepemotion_Guitar_1,6,15,DL_deepemotion_Guitar_1,0.3579365313053131,0
62,100,0.14545454545454545,110,1,77,DL_deepemotion_Guitar_1,6,2,DL_deepemotion_Guitar_1,0.9984880685806274,1
57,100,0.4818181818181818,160,0,77,DL_deepemotion_Guitar_1,6,8,DL_deepemotion_Guitar_1,0.0633537545800209,0
62,100,0.10454545454545454,265,0,77,DL_deepemotion_Guitar_1,6,2,DL_deepemotion_Guitar_1,0.05829176306724548,0
57,100,0.18636363636363637,361,0,77,DL_deepemotion_Guitar_1,6,3,DL_deepemotion_Guitar_1,0.0613643154501915,0
62,100,0.5818181818181818,416,0,77,DL_deepemotion_Guitar_1,6,9,DL_deepemotion_Guitar_1,0.07168705761432648,0
57,100,0.37727272727272726,559,0,77,DL_deepemotion_Guitar_1,6,6,DL_deepemotion_Guitar_1,0.08473839610815048,0
54,100,0.12272727272727273,797,1,77,DL_deepemotion_Guitar_1,6,2,DL_deepemotion_Guitar_1,0.12635977566242218,0
62,100,0.6045454545454545,147,1,78,DL_deepemotion_Guitar_1,6,10,DL_deepemotion_Guitar_1,0.9990094900131226,1
62,100,0.8318181818181818,389,1,78,DL_deepemotion_Guitar_1,6,13,DL_deepemotion_Guitar_1,0.2332451045513153,0
57,100,0.29545454545454547,742,1,78,DL_deepemotion_Guitar_1,6,5,DL_deepemotion_Guitar_1,0.2705947458744049,0
62,100,1.8545454545454545,852,0,78,DL_deepemotion_Guitar_1,6,15,DL_deepemotion_Guitar_1,0.35793638229370117,0
62,100,0.8363636363636363,402,1,79,DL_deepemotion_Guitar_1,6,13,DL_deepemotion_Guitar_1,0.9990094900131226,1
59,100,0.14545454545454545,669,1,79,DL_deepemotion_Guitar_1,6,2,DL_deepemotion_Guitar_1,0.23323918879032135,0
62,100,0.5227272727272727,710,0,79,DL_deepemotion_Guitar_1,6,8,DL_deepemotion_Guitar_1,0.27059394121170044,0
52,100,1.309090909090909,829,0,79,DL_deepemotion_Guitar_1,6,15,DL_deepemotion_Guitar_1,0.3579377233982086,0
62,100,0.6681818181818182,237,1,80,DL_deepemotion_Guitar_1,6,11,DL_deepemotion_Guitar_1,0.9990094900131226,1
57,100,0.2909090909090909,614,1,80,DL_deepemotion_Guitar_1,6,5,DL_deepemotion_Guitar_1,0.23323877155780792,0
57,100,0.12727272727272726,724,0,80,DL_deepemotion_Guitar_1,6,2,DL_deepemotion_Guitar_1,0.2705964744091034,0
57,100,0.18636363636363637,793,0,80,DL_deepemotion_Guitar_1,6,3,DL_deepemotion_Guitar_1,0.35793930292129517,0
57,100,0.35454545454545455,192,1,81,DL_deepemotion_Guitar_1,6,6,DL_deepemotion_Guitar_1,0.9983232617378235,1
57,100,0.22727272727272727,275,0,81,DL_deepemotion_Guitar_1,6,4,DL_deepemotion_Guitar_1,0.5462203621864319,1
57,100,0.14545454545454545,563,1,83,DL_deepemotion_Guitar_1,6,2,DL_deepemotion_Guitar_1,0.9990280866622925,1
57,100,0.20454545454545456,664,0,83,DL_deepemotion_Guitar_1,6,3,DL_deepemotion_Guitar_1,0.3703508973121643,0
57,100,0.10454545454545454,728,0,83,DL_deepemotion_Guitar_1,6,2,DL_deepemotion_Guitar_1,0.4561684727668762,0
64,100,0.6454545454545455,169,1,84,DL_deepemotion_Guitar_1,6,10,DL_deepemotion_Guitar_1,0.9990094900131226,1
57,100,0.33181818181818185,389,0,84,DL_deepemotion_Guitar_1,6,5,DL_deepemotion_Guitar_1,0.2332354635000229,0
64,100,0.6045454545454545,567,0,84,DL_deepemotion_Guitar_1,6,10,DL_deepemotion_Guitar_1,0.2705910801887512,0
57,100,0.33636363636363636,701,0,84,DL_deepemotion_Guitar_1,6,5,DL_deepemotion_Guitar_1,0.35793256759643555,0
54,100,0.1,27,1,85,DL_deepemotion_Guitar_1,6,2,DL_deepemotion_Guitar_1,0.9988439083099365,1
62,100,0.18636363636363637,247,0,85,DL_deepemotion_Guitar_1,6,3,DL_deepemotion_Guitar_1,0.137987419962883,0
62,100,0.12272727272727273,298,0,85,DL_deepemotion_Guitar_1,6,2,DL_deepemotion_Guitar_1,0.1623774766921997,0
62,100,2.331818181818182,334,0,85,DL_deepemotion_Guitar_1,6,15,DL_deepemotion_Guitar_1,0.19106508791446686,0
57,100,0.2727272727272727,848,1,85,DL_deepemotion_Guitar_1,6,4,DL_deepemotion_Guitar_1,0.2619822323322296,0
62,100,0.14545454545454545,68,1,86,DL_deepemotion_Guitar_1,6,2,DL_deepemotion_Guitar_1,0.9990094900131226,1
62,100,1.5,105,0,86,DL_deepemotion_Guitar_1,6,15,DL_deepemotion_Guitar_1,0.23323789238929749,0
62,100,1.2727272727272727,440,1,86,DL_deepemotion_Guitar_1,6,15,DL_deepemotion_Guitar_1,0.2705986201763153,0
62,100,0.2909090909090909,756,1,86,DL_deepemotion_Guitar_1,6,5,DL_deepemotion_Guitar_1,0.3579478859901428,0
62,100,0.12727272727272726,31,1,87,DL_deepemotion_Guitar_1,6,2,DL_deepemotion_Guitar_1,0.9988439083099365,1
52,100,0.8545454545454545,72,0,87,DL_deepemotion_Guitar_1,6,14,DL_deepemotion_Guitar_1,0.1379898339509964,0
62,100,1.5636363636363637,306,1,87,DL_deepemotion_Guitar_1,6,15,DL_deepemotion_Guitar_1,0.16237092018127441,0
62,100,0.5636363636363636,746,1,87,DL_deepemotion_Guitar_1,6,9,DL_deepemotion_Guitar_1,0.1910778135061264,0
57,100,0.2727272727272727,875,0,87,DL_deepemotion_Guitar_1,6,4,DL_deepemotion_Guitar_1,0.2619837820529938,0
62,100,0.12272727272727273,78,1,88,DL_deepemotion_Guitar_1,6,2,DL_deepemotion_Guitar_1,0.9988439083099365,1
57,100,0.22727272727272727,243,0,88,DL_deepemotion_Guitar_1,6,4,DL_deepemotion_Guitar_1,0.13798615336418152,0
57,100,0.22727272727272727,312,0,88,DL_deepemotion_Guitar_1,6,4,DL_deepemotion_Guitar_1,0.1623702347278595,0
62,100,0.20454545454545456,367,0,88,DL_deepemotion_Guitar_1,6,3,DL_deepemotion_Guitar_1,0.1910639852285385,0
62,100,0.31363636363636366,467,0,88,DL_deepemotion_Guitar_1,6,5,DL_deepemotion_Guitar_1,0.26197507977485657,0
62,100,0.25,45,1,89,DL_deepemotion_Guitar_1,6,4,DL_deepemotion_Guitar_1,0.9983004927635193,1
59,100,0.12272727272727273,224,0,89,DL_deepemotion_Guitar_1,6,2,DL_deepemotion_Guitar_1,0.044663380831480026,0
59,100,0.5181818181818182,257,0,89,DL_deepemotion_Guitar_1,6,8,DL_deepemotion_Guitar_1,0.03337249159812927,0
62,100,0.12727272727272726,380,0,89,DL_deepemotion_Guitar_1,6,2,DL_deepemotion_Guitar_1,0.026949604973196983,0
62,100,1.1272727272727272,449,0,89,DL_deepemotion_Guitar_1,6,15,DL_deepemotion_Guitar_1,0.0240851491689682,0
62,100,0.10454545454545454,701,1,89,DL_deepemotion_Guitar_1,6,2,DL_deepemotion_Guitar_1,0.024974754080176353,0
62,100,0.20909090909090908,728,0,89,DL_deepemotion_Guitar_1,6,3,DL_deepemotion_Guitar_1,0.03065023384988308,0
62,100,0.16818181818181818,801,0,89,DL_deepemotion_Guitar_1,6,3,DL_deepemotion_Guitar_1,0.041371461004018784,0
59,100,0.4590909090909091,838,0,89,DL_deepemotion_Guitar_1,6,7,DL_deepemotion_Guitar_1,0.07207297533750534,0
57,100,0.19090909090909092,105,1,90,DL_deepemotion_Guitar_1,6,3,DL_deepemotion_Guitar_1,0.9986506104469299,1
64,100,0.2681818181818182,202,0,90,DL_deepemotion_Guitar_1,6,4,DL_deepemotion_Guitar_1,0.08798209577798843,0
57,100,0.37727272727272726,325,0,90,DL_deepemotion_Guitar_1,6,6,DL_deepemotion_Guitar_1,0.09298547357320786,0
64,100,1.018181818181818,563,1,90,DL_deepemotion_Guitar_1,6,15,DL_deepemotion_Guitar_1,0.10995040088891983,0
57,100,0.37727272727272726,787,0,90,DL_deepemotion_Guitar_1,6,6,DL_deepemotion_Guitar_1,0.12867364287376404,0
64,100,0.2727272727272727,875,0,90,DL_deepemotion_Guitar_1,6,4,DL_deepemotion_Guitar_1,0.18222160637378693,0
57,100,0.1,59,1,91,DL_deepemotion_Guitar_1,6,2,DL_deepemotion_Guitar_1,0.9990094900131226,1
62,100,0.16818181818181818,416,1,91,DL_deepemotion_Guitar_1,6,3,DL_deepemotion_Guitar_1,0.2332397848367691,0
62,100,0.20909090909090908,618,0,91,DL_deepemotion_Guitar_1,6,3,DL_deepemotion_Guitar_1,0.27059388160705566,0
62,100,0.18636363636363637,669,0,91,DL_deepemotion_Guitar_1,6,3,DL_deepemotion_Guitar_1,0.35794469714164734,0
57,100,0.20909090909090908,23,1,92,DL_deepemotion_Guitar_1,6,3,DL_deepemotion_Guitar_1,0.9983735084533691,1
64,100,1.0863636363636364,151,0,92,DL_deepemotion_Guitar_1,6,15,DL_deepemotion_Guitar_1,0.05105036869645119,0
64,100,0.10454545454545454,394,1,92,DL_deepemotion_Guitar_1,6,2,DL_deepemotion_Guitar_1,0.04161328449845314,0
64,100,0.12727272727272726,426,0,92,DL_deepemotion_Guitar_1,6,2,DL_deepemotion_Guitar_1,0.03798163682222366,0
57,100,0.10454545454545454,526,0,92,DL_deepemotion_Guitar_1,6,2,DL_deepemotion_Guitar_1,0.03926241770386696,0
64,100,0.14545454545454545,614,0,92,DL_deepemotion_Guitar_1,6,2,DL_deepemotion_Guitar_1,0.04616938531398773,0
64,100,0.7909090909090909,650,0,92,DL_deepemotion_Guitar_1,6,13,DL_deepemotion_Guitar_1,0.05713704600930214,0
57,100,0.5409090909090909,825,0,92,DL_deepemotion_Guitar_1,6,9,DL_deepemotion_Guitar_1,0.09188440442085266,0
62,100,1.040909090909091,114,1,93,DL_deepemotion_Guitar_1,6,15,DL_deepemotion_Guitar_1,0.9983231425285339,1
59,100,1.0636363636363637,375,1,93,DL_deepemotion_Guitar_1,6,15,DL_deepemotion_Guitar_1,0.5462237596511841,1
62,100,0.7045454545454546,4,1,94,DL_deepemotion_Guitar_1,6,11,DL_deepemotion_Guitar_1,0.9990094900131226,1
55,100,0.18636363636363637,196,0,94,DL_deepemotion_Guitar_1,6,3,DL_deepemotion_Guitar_1,0.23323529958724976,0
59,100,0.2318181818181818,316,0,94,DL_deepemotion_Guitar_1,6,4,DL_deepemotion_Guitar_1,0.2705851197242737,0
59,100,0.43636363636363634,532,0,94,DL_deepemotion_Guitar_1,6,7,DL_deepemotion_Guitar_1,0.3579278886318207,0
64,100,0.33636363636363636,50,1,95,DL_deepemotion_Guitar_1,6,5,DL_deepemotion_Guitar_1,0.9990280866622925,1
66,100,0.12272727272727273,312,1,95,DL_deepemotion_Guitar_1,6,2,DL_deepemotion_Guitar_1,0.370341032743454,0
62,100,0.20909090909090908,495,0,95,DL_deepemotion_Guitar_1,6,3,DL_deepemotion_Guitar_1,0.4561740458011627,0
66,100,0.41818181818181815,408,1,97,DL_deepemotion_Guitar_1,6,7,DL_deepemotion_Guitar_1,0.9983232617378235,1
66,100,0.8363636363636363,504,0,97,DL_deepemotion_Guitar_1,6,13,DL_deepemotion_Guitar_1,0.5462127327919006,1
66,100,0.35,27,1,98,DL_deepemotion_Guitar_1,6,6,DL_deepemotion_Guitar_1,0.9988439083099365,1
62,100,0.22727272727272727,196,0,98,DL_deepemotion_Guitar_1,6,4,DL_deepemotion_Guitar_1,0.13798782229423523,0
62,100,0.14545454545454545,292,0,98,DL_deepemotion_Guitar_1,6,2,DL_deepemotion_Guitar_1,0.1623736321926117,0
55,100,0.2909090909090909,536,1,98,DL_deepemotion_Guitar_1,6,5,DL_deepemotion_Guitar_1,0.19106994569301605,0
55,100,1.0818181818181818,605,0,98,DL_deepemotion_Guitar_1,6,15,DL_deepemotion_Guitar_1,0.26197367906570435,0
62,100,0.16818181818181818,100,1,99,DL_deepemotion_Guitar_1,6,3,DL_deepemotion_Guitar_1,0.9990094900131226,1
62,100,0.5818181818181818,141,0,99,DL_deepemotion_Guitar_1,6,9,DL_deepemotion_Guitar_1,0.23323245346546173,0
66,100,0.8545454545454545,375,1,99,DL_deepemotion_Guitar_1,6,14,DL_deepemotion_Guitar_1,0.270588219165802,0
66,100,0.18636363636363637,609,1,99,DL_deepemotion_Guitar_1,6,3,DL_deepemotion_Guitar_1,0.357937753200531,0
62,100,0.19090909090909092,347,1,100,DL_deepemotion_Guitar_1,6,3,DL_deepemotion_Guitar_1,0.9988439083099365,1
62,100,0.6863636363636364,408,0,100,DL_deepemotion_Guitar_1,6,11,DL_deepemotion_Guitar_1,0.13798610866069794,0
62,100,0.12272727272727273,587,0,100,DL_deepemotion_Guitar_1,6,2,DL_deepemotion_Guitar_1,0.16236503422260284,0
62,100,0.19090909090909092,677,0,100,DL_deepemotion_Guitar_1,6,3,DL_deepemotion_Guitar_1,0.19106453657150269,0
64,100,0.2727272727272727,724,0,100,DL_deepemotion_Guitar_1,6,4,DL_deepemotion_Guitar_1,0.2619827687740326,0
64,100,0.25,92,1,101,DL_deepemotion_Guitar_1,6,4,DL_deepemotion_Guitar_1,0.9988439083099365,1
52,100,0.18636363636363637,224,0,101,DL_deepemotion_Guitar_1,6,3,DL_deepemotion_Guitar_1,0.13798275589942932,0
54,100,0.9181818181818182,298,0,101,DL_deepemotion_Guitar_1,6,15,DL_deepemotion_Guitar_1,0.1623629480600357,0
66,100,0.10454545454545454,614,1,101,DL_deepemotion_Guitar_1,6,2,DL_deepemotion_Guitar_1,0.19106201827526093,0
54,100,0.43636363636363634,801,0,101,DL_deepemotion_Guitar_1,6,7,DL_deepemotion_Guitar_1,0.26196548342704773,0
62,100,0.5227272727272727,165,1,102,DL_deepemotion_Guitar_1,6,8,DL_deepemotion_Guitar_1,0.9983231425285339,1
55,100,1.7727272727272727,306,0,102,DL_deepemotion_Guitar_1,6,15,DL_deepemotion_Guitar_1,0.5462125539779663,1
62,100,0.22727272727272727,45,1,103,DL_deepemotion_Guitar_1,6,4,DL_deepemotion_Guitar_1,0.9990094900131226,1
62,100,0.10454545454545454,302,1,103,DL_deepemotion_Guitar_1,6,2,DL_deepemotion_Guitar_1,0.23324406147003174,0
62,100,0.6909090909090909,622,1,103,DL_deepemotion_Guitar_1,6,11,DL_deepemotion_Guitar_1,0.2706007957458496,0
57,100,0.16363636363636364,783,0,103,DL_deepemotion_Guitar_1,6,3,DL_deepemotion_Guitar_1,0.35794147849082947,0
62,100,0.5818181818181818,210,1,104,DL_deepemotion_Guitar_1,6,9,DL_deepemotion_Guitar_1,0.9990280866622925,1
62,100,1.1681818181818182,526,1,104,DL_deepemotion_Guitar_1,6,15,DL_deepemotion_Guitar_1,0.3703458309173584,0
62,100,0.35454545454545455,866,1,104,DL_deepemotion_Guitar_1,6,6,DL_deepemotion_Guitar_1,0.45618218183517456,0
64,100,0.2727272727272727,96,1,105,DL_deepemotion_Guitar_1,6,4,DL_deepemotion_Guitar_1,0.9986506104469299,1
62,100,0.6909090909090909,206,0,105,DL_deepemotion_Guitar_1,6,11,DL_deepemotion_Guitar_1,0.08798187226057053,0
62,100,0.19090909090909092,380,0,105,DL_deepemotion_Guitar_1,6,3,DL_deepemotion_Guitar_1,0.0929890125989914,0
62,100,1.040909090909091,426,0,105,DL_deepemotion_Guitar_1,6,15,DL_deepemotion_Guitar_1,0.1099553033709526,0
66,100,0.22727272727272727,660,1,105,DL_deepemotion_Guitar_1,6,4,DL_deepemotion_Guitar_1,0.12868082523345947,0
66,100,0.41818181818181815,715,0,105,DL_deepemotion_Guitar_1,6,7,DL_deepemotion_Guitar_1,0.18222875893115997,0
66,100,0.20909090909090908,320,1,106,DL_deepemotion_Guitar_1,6,3,DL_deepemotion_Guitar_1,0.9990280866622925,1
62,100,0.22727272727272727,697,1,106,DL_deepemotion_Guitar_1,6,4,DL_deepemotion_Guitar_1,0.37033528089523315,0
62,100,0.12727272727272726,811,0,106,DL_deepemotion_Guitar_1,6,2,DL_deepemotion_Guitar_1,0.45617562532424927,0
62,100,0.6454545454545455,265,1,108,DL_deepemotion_Guitar_1,6,10,DL_deepemotion_Guitar_1,0.9792230129241943,1
52,100,1.2363636363636363,127,1,13,DL_deepemotion_Guitar,6,15,DL_deepemotion_Guitar,0.9792238473892212,1
62,100,0.2,206,1,15,DL_deepemotion_Guitar,6,3,DL_deepemotion_Guitar,0.9983231425285339,1
62,100,0.4590909090909091,352,0,15,DL_deepemotion_Guitar,6,7,DL_deepemotion_Guitar,0.5462177991867065,1
62,100,0.4409090909090909,88,1,17,DL_deepemotion_Guitar,6,7,DL_deepemotion_Guitar,0.9983231425285339,1
62,100,0.36363636363636365,202,0,17,DL_deepemotion_Guitar,6,6,DL_deepemotion_Guitar,0.5462212562561035,1
57,100,0.8772727272727273,470,1,18,DL_deepemotion_Guitar,6,14,DL_deepemotion_Guitar,0.9983231425285339,1
52,100,2.2409090909090907,839,1,18,DL_deepemotion_Guitar,6,15,DL_deepemotion_Guitar,0.5462111234664917,1
62,100,0.5,453,1,19,DL_deepemotion_Guitar,6,8,DL_deepemotion_Guitar,0.9990280866622925,1
62,100,0.2,576,0,19,DL_deepemotion_Guitar,6,3,DL_deepemotion_Guitar,0.3703462481498718,0
52,100,0.32272727272727275,694,0,19,DL_deepemotion_Guitar,6,5,DL_deepemotion_Guitar,0.4561798870563507,0
58,100,0.7,422,1,20,DL_deepemotion_Guitar,6,11,DL_deepemotion_Guitar,0.9983232617378235,1
58,100,0.5,656,1,20,DL_deepemotion_Guitar,6,8,DL_deepemotion_Guitar,0.546216607093811,1
57,100,0.1590909090909091,210,1,21,DL_deepemotion_Guitar,6,3,DL_deepemotion_Guitar,0.9983232617378235,1
57,100,0.1590909090909091,453,1,21,DL_deepemotion_Guitar,6,3,DL_deepemotion_Guitar,0.5462155342102051,1
66,100,0.2590909090909091,9,1,22,DL_deepemotion_Guitar,6,4,DL_deepemotion_Guitar,0.9990094900131226,1
66,100,0.1409090909090909,79,0,22,DL_deepemotion_Guitar,6,2,DL_deepemotion_Guitar,0.23323442041873932,0
64,100,0.1409090909090909,320,1,22,DL_deepemotion_Guitar,6,2,DL_deepemotion_Guitar,0.2705904245376587,0
62,100,0.4,835,1,22,DL_deepemotion_Guitar,6,6,DL_deepemotion_Guitar,0.35792768001556396,0
62,100,0.11818181818181818,216,1,23,DL_deepemotion_Guitar,6,2,DL_deepemotion_Guitar,0.9983231425285339,1
57,100,0.2,382,0,23,DL_deepemotion_Guitar,6,3,DL_deepemotion_Guitar,0.5462214350700378,1
61,100,0.3,497,1,24,DL_deepemotion_Guitar,6,5,DL_deepemotion_Guitar,0.9990280866622925,1
61,100,0.7181818181818181,615,0,24,DL_deepemotion_Guitar,6,11,DL_deepemotion_Guitar,0.3703347444534302,0
61,100,0.35909090909090907,787,0,24,DL_deepemotion_Guitar,6,6,DL_deepemotion_Guitar,0.45617368817329407,0
61,100,0.2590909090909091,233,1,25,DL_deepemotion_Guitar,6,4,DL_deepemotion_Guitar,0.9983231425285339,1
61,100,0.9590909090909091,480,1,25,DL_deepemotion_Guitar,6,15,DL_deepemotion_Guitar,0.5462148189544678,1
66,100,0.2590909090909091,171,1,26,DL_deepemotion_Guitar,6,4,DL_deepemotion_Guitar,0.9983232617378235,1
66,100,0.4590909090909091,347,0,26,DL_deepemotion_Guitar,6,7,DL_deepemotion_Guitar,0.5462108254432678,1
57,100,0.16363636363636364,3,1,27,DL_deepemotion_Guitar,6,3,DL_deepemotion_Guitar,0.9990280866622925,1
66,100,0.43636363636363634,150,0,27,DL_deepemotion_Guitar,6,7,DL_deepemotion_Guitar,0.37035033106803894,0
57,100,0.1590909090909091,430,1,27,DL_deepemotion_Guitar,6,3,DL_deepemotion_Guitar,0.45616742968559265,0
57,100,0.2409090909090909,75,1,28,DL_deepemotion_Guitar,6,4,DL_deepemotion_Guitar,0.9986506104469299,1
64,100,0.4818181818181818,154,0,28,DL_deepemotion_Guitar,6,8,DL_deepemotion_Guitar,0.08798271417617798,0
64,100,0.2409090909090909,285,0,28,DL_deepemotion_Guitar,6,4,DL_deepemotion_Guitar,0.09298921376466751,0
64,100,0.11818181818181818,370,0,28,DL_deepemotion_Guitar,6,2,DL_deepemotion_Guitar,0.10995917022228241,0
61,100,0.9590909090909091,501,0,28,DL_deepemotion_Guitar,6,15,DL_deepemotion_Guitar,0.12867681682109833,0
57,100,0.4,831,1,28,DL_deepemotion_Guitar,6,6,DL_deepemotion_Guitar,0.18223001062870026,0
57,100,0.12272727272727273,48,1,29,DL_deepemotion_Guitar,6,2,DL_deepemotion_Guitar,0.9984879493713379,1
64,100,0.1590909090909091,119,0,29,DL_deepemotion_Guitar,6,3,DL_deepemotion_Guitar,0.06335580348968506,0
57,100,0.1590909090909091,395,1,29,DL_deepemotion_Guitar,6,3,DL_deepemotion_Guitar,0.058291397988796234,0
61,100,0.1,509,0,29,DL_deepemotion_Guitar,6,2,DL_deepemotion_Guitar,0.06136496365070343,0
57,100,0.38181818181818183,540,0,29,DL_deepemotion_Guitar,6,6,DL_deepemotion_Guitar,0.07168695330619812,0
62,100,0.5409090909090909,708,0,29,DL_deepemotion_Guitar,6,9,DL_deepemotion_Guitar,0.08473895490169525,0
62,100,0.1409090909090909,866,0,29,DL_deepemotion_Guitar,6,2,DL_deepemotion_Guitar,0.12635736167430878,0
62,100,0.9590909090909091,21,1,30,DL_deepemotion_Guitar,6,15,DL_deepemotion_Guitar,0.9990094900131226,1
54,100,0.3,374,1,30,DL_deepemotion_Guitar,6,5,DL_deepemotion_Guitar,0.2332356572151184,0
62,100,0.2,474,0,30,DL_deepemotion_Guitar,6,3,DL_deepemotion_Guitar,0.2705861032009125,0
62,100,0.4,523,0,30,DL_deepemotion_Guitar,6,6,DL_deepemotion_Guitar,0.3579404056072235,0
62,100,0.38181818181818183,0,1,31,DL_deepemotion_Guitar,6,6,DL_deepemotion_Guitar,0.9982556700706482,1
62,100,0.21818181818181817,96,0,31,DL_deepemotion_Guitar,6,3,DL_deepemotion_Guitar,0.041293080896139145,0
62,100,0.13636363636363635,150,0,31,DL_deepemotion_Guitar,6,2,DL_deepemotion_Guitar,0.029127212241292,0
62,100,0.18181818181818182,202,0,31,DL_deepemotion_Guitar,6,3,DL_deepemotion_Guitar,0.021571284160017967,0
57,100,0.41818181818181815,264,0,31,DL_deepemotion_Guitar,6,7,DL_deepemotion_Guitar,0.017060551792383194,0
62,100,0.35909090909090907,360,0,31,DL_deepemotion_Guitar,6,6,DL_deepemotion_Guitar,0.01526989508420229,0
57,100,0.2,457,0,31,DL_deepemotion_Guitar,6,3,DL_deepemotion_Guitar,0.01645805314183235,0
62,100,0.2636363636363636,532,0,31,DL_deepemotion_Guitar,6,4,DL_deepemotion_Guitar,0.02183886244893074,0
62,100,1.059090909090909,615,0,31,DL_deepemotion_Guitar,6,15,DL_deepemotion_Guitar,0.032519418746232986,0
62,100,0.1,853,1,31,DL_deepemotion_Guitar,6,2,DL_deepemotion_Guitar,0.06091538444161415,0
62,100,0.8,0,1,32,DL_deepemotion_Guitar,6,13,DL_deepemotion_Guitar,0.9990280866622925,1
62,100,0.12272727272727273,584,1,32,DL_deepemotion_Guitar,6,2,DL_deepemotion_Guitar,0.37035220861434937,0
57,100,1.3181818181818181,713,0,32,DL_deepemotion_Guitar,6,15,DL_deepemotion_Guitar,0.4561767578125,0
57,100,0.4772727272727273,206,1,33,DL_deepemotion_Guitar,6,8,DL_deepemotion_Guitar,0.9990094900131226,1
57,100,0.9772727272727273,316,0,33,DL_deepemotion_Guitar,6,15,DL_deepemotion_Guitar,0.23323185741901398,0
57,100,0.2636363636363636,554,1,33,DL_deepemotion_Guitar,6,4,DL_deepemotion_Guitar,0.27058830857276917,0
62,100,0.6818181818181818,804,1,33,DL_deepemotion_Guitar,6,11,DL_deepemotion_Guitar,0.3579333424568176,0
62,100,0.2,78,1,34,DL_deepemotion_Guitar,6,3,DL_deepemotion_Guitar,0.9983232617378235,1
57,100,0.22272727272727272,861,1,34,DL_deepemotion_Guitar,6,4,DL_deepemotion_Guitar,0.5462208986282349,1
62,100,0.22272727272727272,136,1,35,DL_deepemotion_Guitar,6,4,DL_deepemotion_Guitar,0.9986506104469299,1
62,100,0.2818181818181818,431,1,35,DL_deepemotion_Guitar,6,5,DL_deepemotion_Guitar,0.08798342198133469,0
62,100,0.12272727272727273,509,0,35,DL_deepemotion_Guitar,6,2,DL_deepemotion_Guitar,0.0929892510175705,0
62,100,0.1409090909090909,541,0,35,DL_deepemotion_Guitar,6,2,DL_deepemotion_Guitar,0.10995650291442871,0
64,100,0.1409090909090909,713,0,35,DL_deepemotion_Guitar,6,2,DL_deepemotion_Guitar,0.1286861151456833,0
57,100,0.3,796,0,35,DL_deepemotion_Guitar,6,5,DL_deepemotion_Guitar,0.18223045766353607,0
57,100,0.2409090909090909,114,1,36,DL_deepemotion_Guitar,6,4,DL_deepemotion_Guitar,0.9984879493713379,1
57,100,0.1590909090909091,176,0,36,DL_deepemotion_Guitar,6,3,DL_deepemotion_Guitar,0.06335525214672089,0
57,100,0.21818181818181817,220,0,36,DL_deepemotion_Guitar,6,3,DL_deepemotion_Guitar,0.058293286710977554,0
57,100,0.21818181818181817,281,0,36,DL_deepemotion_Guitar,6,3,DL_deepemotion_Guitar,0.06136658415198326,0
64,100,0.12272727272727273,334,0,36,DL_deepemotion_Guitar,6,2,DL_deepemotion_Guitar,0.07169024646282196,0
57,100,1.240909090909091,408,0,36,DL_deepemotion_Guitar,6,15,DL_deepemotion_Guitar,0.08474139869213104,0
64,100,0.5409090909090909,681,1,36,DL_deepemotion_Guitar,6,9,DL_deepemotion_Guitar,0.12636196613311768,0
64,100,0.4590909090909091,220,1,37,DL_deepemotion_Guitar,6,7,DL_deepemotion_Guitar,0.9990094900131226,1
62,100,0.1409090909090909,396,0,37,DL_deepemotion_Guitar,6,2,DL_deepemotion_Guitar,0.23323634266853333,0
59,100,0.2,686,1,37,DL_deepemotion_Guitar,6,3,DL_deepemotion_Guitar,0.27058953046798706,0
62,100,0.8,861,0,37,DL_deepemotion_Guitar,6,13,DL_deepemotion_Guitar,0.3579367399215698,0
57,100,0.3,308,1,38,DL_deepemotion_Guitar,6,5,DL_deepemotion_Guitar,0.9988439083099365,1
62,100,0.2590909090909091,448,0,38,DL_deepemotion_Guitar,6,4,DL_deepemotion_Guitar,0.1379869282245636,0
57,100,0.16363636363636364,509,0,38,DL_deepemotion_Guitar,6,3,DL_deepemotion_Guitar,0.16237011551856995,0
62,100,0.7772727272727272,633,0,38,DL_deepemotion_Guitar,6,12,DL_deepemotion_Guitar,0.19106870889663696,0
57,100,0.5590909090909091,810,0,38,DL_deepemotion_Guitar,6,9,DL_deepemotion_Guitar,0.261974036693573,0
57,100,0.2409090909090909,75,1,39,DL_deepemotion_Guitar,6,4,DL_deepemotion_Guitar,0.9988439083099365,1
57,100,0.2590909090909091,176,0,39,DL_deepemotion_Guitar,6,4,DL_deepemotion_Guitar,0.13798761367797852,0
57,100,0.3,356,0,39,DL_deepemotion_Guitar,6,5,DL_deepemotion_Guitar,0.16237418353557587,0
57,100,0.2590909090909091,431,0,39,DL_deepemotion_Guitar,6,4,DL_deepemotion_Guitar,0.19106654822826385,0
59,100,1.3181818181818181,506,0,39,DL_deepemotion_Guitar,6,15,DL_deepemotion_Guitar,0.2619684338569641,0
59,100,0.3181818181818182,40,1,40,DL_deepemotion_Guitar,6,5,DL_deepemotion_Guitar,0.9983004927635193,1
64,100,0.2818181818181818,131,0,40,DL_deepemotion_Guitar,6,5,DL_deepemotion_Guitar,0.0446619875729084,0
64,100,0.2818181818181818,211,0,40,DL_deepemotion_Guitar,6,5,DL_deepemotion_Guitar,0.033371567726135254,0
59,100,0.12272727272727273,298,0,40,DL_deepemotion_Guitar,6,2,DL_deepemotion_Guitar,0.026949290186166763,0
52,100,0.2818181818181818,343,0,40,DL_deepemotion_Guitar,6,5,DL_deepemotion_Guitar,0.024085288867354393,0
62,100,0.11818181818181818,435,0,40,DL_deepemotion_Guitar,6,2,DL_deepemotion_Guitar,0.024974891915917397,0
57,100,0.2590909090909091,493,0,40,DL_deepemotion_Guitar,6,4,DL_deepemotion_Guitar,0.030650746077299118,0
57,100,0.6409090909090909,554,0,40,DL_deepemotion_Guitar,6,10,DL_deepemotion_Guitar,0.04137333109974861,0
57,100,0.42272727272727273,839,1,40,DL_deepemotion_Guitar,6,7,DL_deepemotion_Guitar,0.07207539677619934,0
57,100,0.38181818181818183,78,1,41,DL_deepemotion_Guitar,6,6,DL_deepemotion_Guitar,0.9990094900131226,1
57,100,0.2409090909090909,206,0,41,DL_deepemotion_Guitar,6,4,DL_deepemotion_Guitar,0.2332349419593811,0
57,100,0.18181818181818182,343,0,41,DL_deepemotion_Guitar,6,3,DL_deepemotion_Guitar,0.2705810070037842,0
66,100,0.4,453,0,41,DL_deepemotion_Guitar,6,6,DL_deepemotion_Guitar,0.35793203115463257,0
62,100,0.11818181818181818,418,1,42,DL_deepemotion_Guitar,6,2,DL_deepemotion_Guitar,0.9990094900131226,1
57,100,0.4636363636363636,444,0,42,DL_deepemotion_Guitar,6,7,DL_deepemotion_Guitar,0.2332373559474945,0
62,100,0.1,691,1,42,DL_deepemotion_Guitar,6,2,DL_deepemotion_Guitar,0.2705940008163452,0
62,100,0.1,716,0,42,DL_deepemotion_Guitar,6,2,DL_deepemotion_Guitar,0.3579408526420593,0
62,100,0.2409090909090909,114,1,43,DL_deepemotion_Guitar,6,4,DL_deepemotion_Guitar,0.9986506104469299,1
62,100,0.11818181818181818,316,0,43,DL_deepemotion_Guitar,6,2,DL_deepemotion_Guitar,0.08798248320817947,0
57,100,0.23636363636363636,348,0,43,DL_deepemotion_Guitar,6,4,DL_deepemotion_Guitar,0.09299013763666153,0
62,100,0.9409090909090909,405,0,43,DL_deepemotion_Guitar,6,15,DL_deepemotion_Guitar,0.10995644330978394,0
66,100,0.2,713,1,43,DL_deepemotion_Guitar,6,3,DL_deepemotion_Guitar,0.1286865621805191,0
66,100,0.2,788,0,43,DL_deepemotion_Guitar,6,3,DL_deepemotion_Guitar,0.18223245441913605,0
66,100,0.1590909090909091,0,1,44,DL_deepemotion_Guitar,6,3,DL_deepemotion_Guitar,0.9984879493713379,1
62,100,0.5409090909090909,78,0,44,DL_deepemotion_Guitar,6,9,DL_deepemotion_Guitar,0.0633530467748642,0
57,100,0.3409090909090909,276,0,44,DL_deepemotion_Guitar,6,5,DL_deepemotion_Guitar,0.058290425688028336,0
57,100,0.2409090909090909,399,0,44,DL_deepemotion_Guitar,6,4,DL_deepemotion_Guitar,0.06136315315961838,0
59,100,0.2772727272727273,558,0,44,DL_deepemotion_Guitar,6,4,DL_deepemotion_Guitar,0.07168437540531158,0
57,100,0.3181818181818182,625,0,44,DL_deepemotion_Guitar,6,5,DL_deepemotion_Guitar,0.08473845571279526,0
57,100,0.7,836,0,44,DL_deepemotion_Guitar,6,11,DL_deepemotion_Guitar,0.1263526976108551,0
59,100,0.1409090909090909,778,1,45,DL_deepemotion_Guitar,6,2,DL_deepemotion_Guitar,0.9983232617378235,1
52,100,0.2,823,0,45,DL_deepemotion_Guitar,6,3,DL_deepemotion_Guitar,0.5462190508842468,1
62,100,0.3181818181818182,281,1,46,DL_deepemotion_Guitar,6,5,DL_deepemotion_Guitar,0.9990280866622925,1
57,100,0.3181818181818182,581,1,46,DL_deepemotion_Guitar,6,5,DL_deepemotion_Guitar,0.37034180760383606,0
66,100,0.4409090909090909,796,0,46,DL_deepemotion_Guitar,6,7,DL_deepemotion_Guitar,0.45617640018463135,0
57,100,0.2,568,1,47,DL_deepemotion_Guitar,6,3,DL_deepemotion_Guitar,0.9983231425285339,1
59,100,0.16363636363636364,861,1,47,DL_deepemotion_Guitar,6,3,DL_deepemotion_Guitar,0.5462188124656677,1
57,100,1.8409090909090908,110,1,48,DL_deepemotion_Guitar,6,15,DL_deepemotion_Guitar,0.9983231425285339,1
52,100,0.9409090909090909,761,1,48,DL_deepemotion_Guitar,6,15,DL_deepemotion_Guitar,0.5462217926979065,1
66,100,0.21818181818181817,308,1,49,DL_deepemotion_Guitar,6,3,DL_deepemotion_Guitar,0.9792241454124451,1
57,100,0.1,276,1,50,DL_deepemotion_Guitar,6,2,DL_deepemotion_Guitar,0.9990280866622925,1
62,100,0.5227272727272727,399,0,50,DL_deepemotion_Guitar,6,8,DL_deepemotion_Guitar,0.3703456223011017,0
62,100,0.3409090909090909,638,1,50,DL_deepemotion_Guitar,6,5,DL_deepemotion_Guitar,0.45617344975471497,0
62,100,0.1590909090909091,18,1,51,DL_deepemotion_Guitar,6,3,DL_deepemotion_Guitar,0.9984879493713379,1
62,100,0.11818181818181818,171,0,51,DL_deepemotion_Guitar,6,2,DL_deepemotion_Guitar,0.06335468590259552,0
62,100,0.2590909090909091,211,0,51,DL_deepemotion_Guitar,6,4,DL_deepemotion_Guitar,0.05829096585512161,0
54,100,0.38181818181818183,286,0,51,DL_deepemotion_Guitar,6,6,DL_deepemotion_Guitar,0.061368368566036224,0
54,100,0.1,373,0,51,DL_deepemotion_Guitar,6,2,DL_deepemotion_Guitar,0.07168827205896378,0
66,100,0.2,568,0,51,DL_deepemotion_Guitar,6,3,DL_deepemotion_Guitar,0.08474117517471313,0
69,100,0.2818181818181818,628,0,51,DL_deepemotion_Guitar,6,5,DL_deepemotion_Guitar,0.1263575255870819,0
57,100,0.17727272727272728,40,1,52,DL_deepemotion_Guitar,6,3,DL_deepemotion_Guitar,0.9990094900131226,1
62,100,0.18181818181818182,506,1,52,DL_deepemotion_Guitar,6,3,DL_deepemotion_Guitar,0.23324556648731232,0
57,100,0.23636363636363636,611,0,52,DL_deepemotion_Guitar,6,4,DL_deepemotion_Guitar,0.27059581875801086,0
57,100,0.9590909090909091,678,0,52,DL_deepemotion_Guitar,6,15,DL_deepemotion_Guitar,0.35793089866638184,0
57,100,0.9181818181818182,18,1,53,DL_deepemotion_Guitar,6,15,DL_deepemotion_Guitar,0.9990280866622925,1
57,100,0.1409090909090909,228,0,53,DL_deepemotion_Guitar,6,2,DL_deepemotion_Guitar,0.3703465163707733,0
57,100,0.18181818181818182,268,0,53,DL_deepemotion_Guitar,6,3,DL_deepemotion_Guitar,0.45617374777793884,0
69,100,0.2636363636363636,224,1,55,DL_deepemotion_Guitar,6,4,DL_deepemotion_Guitar,0.9990280866622925,1
59,100,0.3181818181818182,348,0,55,DL_deepemotion_Guitar,6,5,DL_deepemotion_Guitar,0.37034502625465393,0
62,100,0.2590909090909091,506,0,55,DL_deepemotion_Guitar,6,4,DL_deepemotion_Guitar,0.45617204904556274,0
62,100,0.1409090909090909,334,1,56,DL_deepemotion_Guitar,6,2,DL_deepemotion_Guitar,0.9988439083099365,1
62,100,0.2,418,0,56,DL_deepemotion_Guitar,6,3,DL_deepemotion_Guitar,0.1379878669977188,0
62,100,0.2,528,0,56,DL_deepemotion_Guitar,6,3,DL_deepemotion_Guitar,0.16237139701843262,0
62,100,0.2590909090909091,673,0,56,DL_deepemotion_Guitar,6,4,DL_deepemotion_Guitar,0.1910696029663086,0
62,100,0.2590909090909091,738,0,56,DL_deepemotion_Guitar,6,4,DL_deepemotion_Guitar,0.2619836926460266,0
57,100,0.8590909090909091,75,1,61,DL_deepemotion_Guitar,6,14,DL_deepemotion_Guitar,0.9988439083099365,1
57,100,0.1590909090909091,276,0,61,DL_deepemotion_Guitar,6,3,DL_deepemotion_Guitar,0.1379891186952591,0
57,100,0.5181818181818182,330,0,61,DL_deepemotion_Guitar,6,8,DL_deepemotion_Guitar,0.16236747801303864,0
57,100,0.2,483,0,61,DL_deepemotion_Guitar,6,3,DL_deepemotion_Guitar,0.1910659521818161,0
57,100,1.1636363636363636,531,0,61,DL_deepemotion_Guitar,6,15,DL_deepemotion_Guitar,0.2619694769382477,0
57,100,0.3409090909090909,34,1,62,DL_deepemotion_Guitar,6,5,DL_deepemotion_Guitar,0.9983004927635193,1
57,100,0.2636363636363636,136,0,62,DL_deepemotion_Guitar,6,4,DL_deepemotion_Guitar,0.04466259852051735,0
57,100,0.3,211,0,62,DL_deepemotion_Guitar,6,5,DL_deepemotion_Guitar,0.03337283059954643,0
57,100,0.4409090909090909,308,0,62,DL_deepemotion_Guitar,6,7,DL_deepemotion_Guitar,0.02694966457784176,0
62,100,0.38181818181818183,418,0,62,DL_deepemotion_Guitar,6,6,DL_deepemotion_Guitar,0.024086015298962593,0
57,100,0.6,554,0,62,DL_deepemotion_Guitar,6,10,DL_deepemotion_Guitar,0.024974334985017776,0
57,100,0.2,713,0,62,DL_deepemotion_Guitar,6,3,DL_deepemotion_Guitar,0.030650300905108452,0
52,100,0.18181818181818182,774,0,62,DL_deepemotion_Guitar,6,3,DL_deepemotion_Guitar,0.04137076064944267,0
52,100,0.2,818,0,62,DL_deepemotion_Guitar,6,3,DL_deepemotion_Guitar,0.0720721110701561,0
57,100,0.2,48,1,63,DL_deepemotion_Guitar,6,3,DL_deepemotion_Guitar,0.9990094900131226,1
57,100,0.7227272727272728,166,0,63,DL_deepemotion_Guitar,6,12,DL_deepemotion_Guitar,0.23324339091777802,0
57,100,1.2,330,0,63,DL_deepemotion_Guitar,6,15,DL_deepemotion_Guitar,0.2705857753753662,0
62,100,0.4409090909090909,796,1,63,DL_deepemotion_Guitar,6,7,DL_deepemotion_Guitar,0.3579382002353668,0
57,100,0.7772727272727272,30,1,64,DL_deepemotion_Guitar,6,12,DL_deepemotion_Guitar,0.9984880685806274,1
62,100,0.5,289,1,64,DL_deepemotion_Guitar,6,8,DL_deepemotion_Guitar,0.0633549839258194,0
57,100,0.1409090909090909,449,0,64,DL_deepemotion_Guitar,6,2,DL_deepemotion_Guitar,0.05829129368066788,0
62,100,0.5181818181818182,483,0,64,DL_deepemotion_Guitar,6,8,DL_deepemotion_Guitar,0.061367668211460114,0
57,100,0.3181818181818182,616,0,64,DL_deepemotion_Guitar,6,5,DL_deepemotion_Guitar,0.0716901496052742,0
57,100,0.5409090909090909,734,0,64,DL_deepemotion_Guitar,6,9,DL_deepemotion_Guitar,0.08474801480770111,0
57,100,1.7181818181818183,876,0,64,DL_deepemotion_Guitar,6,15,DL_deepemotion_Guitar,0.1263613998889923,0
62,100,0.6818181818181818,637,1,65,DL_deepemotion_Guitar,6,11,DL_deepemotion_Guitar,0.9983231425285339,1
57,100,0.9818181818181818,792,0,65,DL_deepemotion_Guitar,6,15,DL_deepemotion_Guitar,0.5462225079536438,1
57,100,0.11818181818181818,132,1,66,DL_deepemotion_Guitar,6,2,DL_deepemotion_Guitar,0.9988439083099365,1
57,100,0.6590909090909091,193,0,66,DL_deepemotion_Guitar,6,11,DL_deepemotion_Guitar,0.13798455893993378,0
62,100,0.37727272727272726,347,0,66,DL_deepemotion_Guitar,6,6,DL_deepemotion_Guitar,0.16236954927444458,0
62,100,0.9363636363636364,436,0,66,DL_deepemotion_Guitar,6,15,DL_deepemotion_Guitar,0.19106416404247284,0
62,100,0.2,646,0,66,DL_deepemotion_Guitar,6,3,DL_deepemotion_Guitar,0.2619743049144745,0
57,100,0.1,3,1,67,DL_deepemotion_Guitar,6,2,DL_deepemotion_Guitar,0.9988439083099365,1
62,100,0.7,123,0,67,DL_deepemotion_Guitar,6,11,DL_deepemotion_Guitar,0.13798484206199646,0
62,100,0.12272727272727273,333,0,67,DL_deepemotion_Guitar,6,2,DL_deepemotion_Guitar,0.16237059235572815,0
62,100,0.3181818181818182,470,0,67,DL_deepemotion_Guitar,6,5,DL_deepemotion_Guitar,0.1910664588212967,0
62,100,0.9,624,0,67,DL_deepemotion_Guitar,6,14,DL_deepemotion_Guitar,0.26197752356529236,0
59,100,0.5590909090909091,176,1,68,DL_deepemotion_Guitar,6,9,DL_deepemotion_Guitar,0.9990280866622925,1
62,100,0.7,443,1,68,DL_deepemotion_Guitar,6,11,DL_deepemotion_Guitar,0.3703499138355255,0
62,100,0.3,603,0,68,DL_deepemotion_Guitar,6,5,DL_deepemotion_Guitar,0.4561793804168701,0
62,100,2.2409090909090907,13,1,69,DL_deepemotion_Guitar,6,15,DL_deepemotion_Guitar,0.9988439083099365,1
62,100,0.3,519,1,69,DL_deepemotion_Guitar,6,5,DL_deepemotion_Guitar,0.13798917829990387,0
62,100,0.5,606,0,69,DL_deepemotion_Guitar,6,8,DL_deepemotion_Guitar,0.16237406432628632,0
57,100,0.18181818181818182,716,0,69,DL_deepemotion_Guitar,6,3,DL_deepemotion_Guitar,0.19106832146644592,0
57,100,0.5636363636363636,773,0,69,DL_deepemotion_Guitar,6,9,DL_deepemotion_Guitar,0.2619835436344147,0
57,100,0.3409090909090909,110,1,70,DL_deepemotion_Guitar,6,5,DL_deepemotion_Guitar,0.9986506104469299,1
62,100,0.35909090909090907,475,1,70,DL_deepemotion_Guitar,6,6,DL_deepemotion_Guitar,0.08797978609800339,0
62,100,0.16363636363636364,576,0,70,DL_deepemotion_Guitar,6,3,DL_deepemotion_Guitar,0.09298965334892273,0
57,100,0.36363636363636365,619,0,70,DL_deepemotion_Guitar,6,6,DL_deepemotion_Guitar,0.10995205491781235,0
55,100,0.12272727272727273,760,0,70,DL_deepemotion_Guitar,6,2,DL_deepemotion_Guitar,0.1286771446466446,0
59,100,0.33636363636363636,853,0,70,DL_deepemotion_Guitar,6,5,DL_deepemotion_Guitar,0.18222114443778992,0
59,100,0.2818181818181818,100,1,71,DL_deepemotion_Guitar,6,5,DL_deepemotion_Guitar,0.9988439083099365,1
62,100,0.6181818181818182,316,0,71,DL_deepemotion_Guitar,6,10,DL_deepemotion_Guitar,0.13797934353351593,0
59,100,0.6409090909090909,453,0,71,DL_deepemotion_Guitar,6,10,DL_deepemotion_Guitar,0.16236479580402374,0
71,100,0.1409090909090909,624,0,71,DL_deepemotion_Guitar,6,2,DL_deepemotion_Guitar,0.191060408949852,0
61,100,0.36363636363636365,663,0,71,DL_deepemotion_Guitar,6,6,DL_deepemotion_Guitar,0.26196447014808655,0
62,100,0.6363636363636364,83,1,72,DL_deepemotion_Guitar,6,10,DL_deepemotion_Guitar,0.9990094900131226,1
62,100,1.3,289,0,72,DL_deepemotion_Guitar,6,15,DL_deepemotion_Guitar,0.23323994874954224,0
62,100,0.5,616,1,72,DL_deepemotion_Guitar,6,8,DL_deepemotion_Guitar,0.27059629559516907,0
57,100,0.759090909090909,734,0,72,DL_deepemotion_Guitar,6,12,DL_deepemotion_Guitar,0.35793977975845337,0
62,100,1.1409090909090909,26,1,73,DL_deepemotion_Guitar,6,15,DL_deepemotion_Guitar,0.9990094900131226,1
57,100,0.6,276,1,73,DL_deepemotion_Guitar,6,10,DL_deepemotion_Guitar,0.2332463264465332,0
62,100,0.8590909090909091,496,0,73,DL_deepemotion_Guitar,6,14,DL_deepemotion_Guitar,0.2705918848514557,0
57,100,0.9590909090909091,700,0,73,DL_deepemotion_Guitar,6,15,DL_deepemotion_Guitar,0.35793453454971313,0
62,100,0.1409090909090909,35,1,74,DL_deepemotion_Guitar,6,2,DL_deepemotion_Guitar,0.9984879493713379,1
57,100,0.4590909090909091,83,0,74,DL_deepemotion_Guitar,6,7,DL_deepemotion_Guitar,0.06335318833589554,0
62,100,0.1,184,0,74,DL_deepemotion_Guitar,6,2,DL_deepemotion_Guitar,0.05829116702079773,0
57,100,0.18181818181818182,276,0,74,DL_deepemotion_Guitar,6,3,DL_deepemotion_Guitar,0.061363354325294495,0
62,100,0.5590909090909091,330,0,74,DL_deepemotion_Guitar,6,9,DL_deepemotion_Guitar,0.07168538868427277,0
57,100,0.36363636363636365,466,0,74,DL_deepemotion_Guitar,6,6,DL_deepemotion_Guitar,0.08473973721265793,0
54,100,0.12272727272727273,695,0,74,DL_deepemotion_Guitar,6,2,DL_deepemotion_Guitar,0.1263594627380371,0
62,100,0.5818181818181818,35,1,75,DL_deepemotion_Guitar,6,9,DL_deepemotion_Guitar,0.9990094900131226,1
62,100,0.8,267,1,75,DL_deepemotion_Guitar,6,13,DL_deepemotion_Guitar,0.23323467373847961,0
57,100,0.2818181818181818,606,1,75,DL_deepemotion_Guitar,6,5,DL_deepemotion_Guitar,0.27059778571128845,0
62,100,1.7772727272727273,713,0,75,DL_deepemotion_Guitar,6,15,DL_deepemotion_Guitar,0.35794565081596375,0
62,100,0.8,246,1,76,DL_deepemotion_Guitar,6,13,DL_deepemotion_Guitar,0.9990094900131226,1
59,100,0.13636363636363635,502,1,76,DL_deepemotion_Guitar,6,2,DL_deepemotion_Guitar,0.23323607444763184,0
62,100,0.5,540,0,76,DL_deepemotion_Guitar,6,8,DL_deepemotion_Guitar,0.2705872058868408,0
52,100,1.259090909090909,656,0,76,DL_deepemotion_Guitar,6,15,DL_deepemotion_Guitar,0.3579367399215698,0
62,100,0.6409090909090909,53,1,77,DL_deepemotion_Guitar,6,10,DL_deepemotion_Guitar,0.9988439083099365,1
57,100,0.2772727272727273,413,1,77,DL_deepemotion_Guitar,6,4,DL_deepemotion_Guitar,0.13798759877681732,0
57,100,0.12272727272727273,519,0,77,DL_deepemotion_Guitar,6,2,DL_deepemotion_Guitar,0.16237272322177887,0
57,100,0.18181818181818182,585,0,77,DL_deepemotion_Guitar,6,3,DL_deepemotion_Guitar,0.19106630980968475,0
57,100,0.33636363636363636,853,1,77,DL_deepemotion_Guitar,6,5,DL_deepemotion_Guitar,0.2619783580303192,0
57,100,0.21818181818181817,53,1,78,DL_deepemotion_Guitar,6,3,DL_deepemotion_Guitar,0.9792236089706421,1
57,100,0.13636363636363635,260,1,80,DL_deepemotion_Guitar,6,2,DL_deepemotion_Guitar,0.9990094900131226,1
57,100,0.2,356,0,80,DL_deepemotion_Guitar,6,3,DL_deepemotion_Guitar,0.2332315891981125,0
57,100,0.1,417,0,80,DL_deepemotion_Guitar,6,2,DL_deepemotion_Guitar,0.27058225870132446,0
64,100,0.6181818181818182,726,1,80,DL_deepemotion_Guitar,6,10,DL_deepemotion_Guitar,0.357932448387146,0
57,100,0.32272727272727275,56,1,81,DL_deepemotion_Guitar,6,5,DL_deepemotion_Guitar,0.9984880685806274,1
64,100,0.5772727272727273,229,0,81,DL_deepemotion_Guitar,6,9,DL_deepemotion_Guitar,0.06335613131523132,0
57,100,0.32272727272727275,356,0,81,DL_deepemotion_Guitar,6,5,DL_deepemotion_Guitar,0.05829176306724548,0
54,100,0.1,553,0,81,DL_deepemotion_Guitar,6,2,DL_deepemotion_Guitar,0.06136687099933624,0
62,100,0.17727272727272728,766,0,81,DL_deepemotion_Guitar,6,3,DL_deepemotion_Guitar,0.0716879591345787,0
62,100,0.11818181818181818,813,0,81,DL_deepemotion_Guitar,6,2,DL_deepemotion_Guitar,0.08474376052618027,0
62,100,2.2409090909090907,849,0,81,DL_deepemotion_Guitar,6,15,DL_deepemotion_Guitar,0.12635394930839539,0
57,100,0.2590909090909091,462,1,82,DL_deepemotion_Guitar,6,4,DL_deepemotion_Guitar,0.9990280866622925,1
62,100,0.1409090909090909,559,0,82,DL_deepemotion_Guitar,6,2,DL_deepemotion_Guitar,0.3703477680683136,0
62,100,1.440909090909091,593,0,82,DL_deepemotion_Guitar,6,15,DL_deepemotion_Guitar,0.45617225766181946,0
62,100,1.2227272727272727,35,1,83,DL_deepemotion_Guitar,6,15,DL_deepemotion_Guitar,0.9988439083099365,1
62,100,0.2772727272727273,339,1,83,DL_deepemotion_Guitar,6,4,DL_deepemotion_Guitar,0.13799089193344116,0
62,100,0.12272727272727273,487,0,83,DL_deepemotion_Guitar,6,2,DL_deepemotion_Guitar,0.16237862408161163,0
52,100,0.8181818181818182,527,0,83,DL_deepemotion_Guitar,6,13,DL_deepemotion_Guitar,0.1910742223262787,0
62,100,1.5,752,0,83,DL_deepemotion_Guitar,6,15,DL_deepemotion_Guitar,0.26197683811187744,0
62,100,0.5409090909090909,294,1,84,DL_deepemotion_Guitar,6,9,DL_deepemotion_Guitar,0.9984879493713379,1
57,100,0.2590909090909091,417,0,84,DL_deepemotion_Guitar,6,4,DL_deepemotion_Guitar,0.06335528194904327,0
62,100,0.12272727272727273,496,0,84,DL_deepemotion_Guitar,6,2,DL_deepemotion_Guitar,0.05829095095396042,0
57,100,0.21818181818181817,656,0,84,DL_deepemotion_Guitar,6,3,DL_deepemotion_Guitar,0.06136476248502731,0
57,100,0.21818181818181817,722,0,84,DL_deepemotion_Guitar,6,3,DL_deepemotion_Guitar,0.07168690860271454,0
62,100,0.2,773,0,84,DL_deepemotion_Guitar,6,3,DL_deepemotion_Guitar,0.08473999798297882,0
62,100,0.3,870,0,84,DL_deepemotion_Guitar,6,5,DL_deepemotion_Guitar,0.1263601928949356,0
62,100,0.2409090909090909,430,1,85,DL_deepemotion_Guitar,6,4,DL_deepemotion_Guitar,0.9988439083099365,1
59,100,0.11818181818181818,603,0,85,DL_deepemotion_Guitar,6,2,DL_deepemotion_Guitar,0.13798755407333374,0
59,100,0.5,633,0,85,DL_deepemotion_Guitar,6,8,DL_deepemotion_Guitar,0.16237278282642365,0
62,100,0.12272727272727273,752,0,85,DL_deepemotion_Guitar,6,2,DL_deepemotion_Guitar,0.19106148183345795,0
62,100,1.0818181818181818,817,0,85,DL_deepemotion_Guitar,6,15,DL_deepemotion_Guitar,0.2619728147983551,0
62,100,0.1,179,1,86,DL_deepemotion_Guitar,6,2,DL_deepemotion_Guitar,0.9984879493713379,1
62,100,0.2,206,0,86,DL_deepemotion_Guitar,6,3,DL_deepemotion_Guitar,0.06335457414388657,0
62,100,0.1590909090909091,276,0,86,DL_deepemotion_Guitar,6,3,DL_deepemotion_Guitar,0.05829121172428131,0
59,100,0.4409090909090909,312,0,86,DL_deepemotion_Guitar,6,7,DL_deepemotion_Guitar,0.061365220695734024,0
57,100,0.18181818181818182,453,0,86,DL_deepemotion_Guitar,6,3,DL_deepemotion_Guitar,0.07168696820735931,0
64,100,0.2590909090909091,546,0,86,DL_deepemotion_Guitar,6,4,DL_deepemotion_Guitar,0.08474269509315491,0
57,100,0.36363636363636365,663,0,86,DL_deepemotion_Guitar,6,6,DL_deepemotion_Guitar,0.12635573744773865,0
64,100,0.9818181818181818,13,1,87,DL_deepemotion_Guitar,6,15,DL_deepemotion_Guitar,0.9988439083099365,1
57,100,0.35909090909090907,229,0,87,DL_deepemotion_Guitar,6,6,DL_deepemotion_Guitar,0.13798223435878754,0
64,100,0.2636363636363636,312,0,87,DL_deepemotion_Guitar,6,4,DL_deepemotion_Guitar,0.16237163543701172,0
57,100,0.1,373,0,87,DL_deepemotion_Guitar,6,2,DL_deepemotion_Guitar,0.19106170535087585,0
62,100,0.1590909090909091,716,1,87,DL_deepemotion_Guitar,6,3,DL_deepemotion_Guitar,0.26197004318237305,0
62,100,0.2,30,1,88,DL_deepemotion_Guitar,6,3,DL_deepemotion_Guitar,0.9983735084533691,1
62,100,0.18181818181818182,79,0,88,DL_deepemotion_Guitar,6,3,DL_deepemotion_Guitar,0.0510510578751564,0
57,100,0.2,303,0,88,DL_deepemotion_Guitar,6,3,DL_deepemotion_Guitar,0.041612930595874786,0
64,100,1.040909090909091,426,0,88,DL_deepemotion_Guitar,6,15,DL_deepemotion_Guitar,0.03798101097345352,0
64,100,0.1,660,1,88,DL_deepemotion_Guitar,6,2,DL_deepemotion_Guitar,0.039261594414711,0
64,100,0.11818181818181818,690,0,88,DL_deepemotion_Guitar,6,2,DL_deepemotion_Guitar,0.04616623744368553,0
57,100,0.1,787,0,88,DL_deepemotion_Guitar,6,2,DL_deepemotion_Guitar,0.057134680449962616,0
64,100,0.1409090909090909,870,0,88,DL_deepemotion_Guitar,6,2,DL_deepemotion_Guitar,0.09188632667064667,0
64,100,0.7636363636363637,26,1,89,DL_deepemotion_Guitar,6,12,DL_deepemotion_Guitar,0.9990094900131226,1
57,100,0.5181818181818182,193,0,89,DL_deepemotion_Guitar,6,8,DL_deepemotion_Guitar,0.23323281109333038,0
62,100,1.0,356,0,89,DL_deepemotion_Guitar,6,15,DL_deepemotion_Guitar,0.27058249711990356,0
59,100,1.0227272727272727,606,1,89,DL_deepemotion_Guitar,6,15,DL_deepemotion_Guitar,0.3579331338405609,0
62,100,0.6772727272727272,216,1,90,DL_deepemotion_Guitar,6,11,DL_deepemotion_Guitar,0.9990094900131226,1
55,100,0.18181818181818182,399,0,90,DL_deepemotion_Guitar,6,3,DL_deepemotion_Guitar,0.23323358595371246,0
59,100,0.21818181818181817,514,0,90,DL_deepemotion_Guitar,6,3,DL_deepemotion_Guitar,0.2705840468406677,0
59,100,0.41818181818181815,722,0,90,DL_deepemotion_Guitar,6,7,DL_deepemotion_Guitar,0.3579314649105072,0
64,100,0.32272727272727275,223,1,91,DL_deepemotion_Guitar,6,5,DL_deepemotion_Guitar,0.9990280866622925,1
66,100,0.12272727272727273,475,1,91,DL_deepemotion_Guitar,6,2,DL_deepemotion_Guitar,0.37033724784851074,0
62,100,0.2,650,0,91,DL_deepemotion_Guitar,6,3,DL_deepemotion_Guitar,0.4561702609062195,0
66,100,0.4,496,1,93,DL_deepemotion_Guitar,6,6,DL_deepemotion_Guitar,0.9983231425285339,1
66,100,0.8,590,0,93,DL_deepemotion_Guitar,6,13,DL_deepemotion_Guitar,0.5462129712104797,1
66,100,0.3409090909090909,96,1,94,DL_deepemotion_Guitar,6,5,DL_deepemotion_Guitar,0.9988439083099365,1
62,100,0.21818181818181817,260,0,94,DL_deepemotion_Guitar,6,3,DL_deepemotion_Guitar,0.13798478245735168,0
62,100,0.1409090909090909,352,0,94,DL_deepemotion_Guitar,6,2,DL_deepemotion_Guitar,0.1623704582452774,0
55,100,0.2818181818181818,585,1,94,DL_deepemotion_Guitar,6,5,DL_deepemotion_Guitar,0.19107037782669067,0
55,100,1.040909090909091,650,0,94,DL_deepemotion_Guitar,6,15,DL_deepemotion_Guitar,0.26197370886802673,0
62,100,0.1590909090909091,132,1,95,DL_deepemotion_Guitar,6,3,DL_deepemotion_Guitar,0.9990094900131226,1
62,100,0.5590909090909091,172,0,95,DL_deepemotion_Guitar,6,9,DL_deepemotion_Guitar,0.23323358595371246,0
66,100,0.8181818181818182,396,0,95,DL_deepemotion_Guitar,6,13,DL_deepemotion_Guitar,0.27058374881744385,0
66,100,0.18181818181818182,619,0,95,DL_deepemotion_Guitar,6,3,DL_deepemotion_Guitar,0.357931524515152,0
62,100,0.18181818181818182,333,1,96,DL_deepemotion_Guitar,6,3,DL_deepemotion_Guitar,0.9988439083099365,1
62,100,0.6590909090909091,392,0,96,DL_deepemotion_Guitar,6,11,DL_deepemotion_Guitar,0.1379830241203308,0
62,100,0.12272727272727273,563,0,96,DL_deepemotion_Guitar,6,2,DL_deepemotion_Guitar,0.1623660922050476,0
62,100,0.18181818181818182,650,0,96,DL_deepemotion_Guitar,6,3,DL_deepemotion_Guitar,0.19106145203113556,0
64,100,0.2590909090909091,695,0,96,DL_deepemotion_Guitar,6,4,DL_deepemotion_Guitar,0.26197972893714905,0
64,100,0.2409090909090909,53,1,97,DL_deepemotion_Guitar,6,4,DL_deepemotion_Guitar,0.9988439083099365,1
52,100,0.18181818181818182,179,0,97,DL_deepemotion_Guitar,6,3,DL_deepemotion_Guitar,0.13798512518405914,0
54,100,0.8772727272727273,250,0,97,DL_deepemotion_Guitar,6,14,DL_deepemotion_Guitar,0.16236388683319092,0
66,100,0.1,553,1,97,DL_deepemotion_Guitar,6,2,DL_deepemotion_Guitar,0.19106055796146393,0
54,100,0.41818181818181815,734,0,97,DL_deepemotion_Guitar,6,7,DL_deepemotion_Guitar,0.2619640529155731,0
62,100,0.5,87,1,98,DL_deepemotion_Guitar,6,8,DL_deepemotion_Guitar,0.9990280866622925,1
55,100,1.7,223,0,98,DL_deepemotion_Guitar,6,15,DL_deepemotion_Guitar,0.3703376352787018,0
62,100,0.22272727272727272,817,1,98,DL_deepemotion_Guitar,6,4,DL_deepemotion_Guitar,0.4561775028705597,0
62,100,0.1,184,1,99,DL_deepemotion_Guitar,6,2,DL_deepemotion_Guitar,0.9990280866622925,1
62,100,0.6590909090909091,493,1,99,DL_deepemotion_Guitar,6,11,DL_deepemotion_Guitar,0.3703533113002777,0
57,100,0.1590909090909091,646,0,99,DL_deepemotion_Guitar,6,3,DL_deepemotion_Guitar,0.45617735385894775,0
62,100,0.5590909090909091,62,1,100,DL_deepemotion_Guitar,6,9,DL_deepemotion_Guitar,0.9990094900131226,1
62,100,1.1227272727272728,365,1,100,DL_deepemotion_Guitar,6,15,DL_deepemotion_Guitar,0.23323176801204681,0
62,100,0.3409090909090909,690,1,100,DL_deepemotion_Guitar,6,5,DL_deepemotion_Guitar,0.2705879211425781,0
64,100,0.2636363636363636,796,0,100,DL_deepemotion_Guitar,6,4,DL_deepemotion_Guitar,0.35794681310653687,0
62,100,0.6590909090909091,22,1,101,DL_deepemotion_Guitar,6,11,DL_deepemotion_Guitar,0.9988439083099365,1
62,100,0.18181818181818182,189,0,101,DL_deepemotion_Guitar,6,3,DL_deepemotion_Guitar,0.1379842311143875,0
62,100,1.0,233,0,101,DL_deepemotion_Guitar,6,15,DL_deepemotion_Guitar,0.16236770153045654,0
66,100,0.21818181818181817,457,0,101,DL_deepemotion_Guitar,6,3,DL_deepemotion_Guitar,0.19107112288475037,0
66,100,0.4,509,0,101,DL_deepemotion_Guitar,6,6,DL_deepemotion_Guitar,0.26197585463523865,0
66,100,0.2,96,1,102,DL_deepemotion_Guitar,6,3,DL_deepemotion_Guitar,0.9990280866622925,1
62,100,0.21818181818181817,457,1,102,DL_deepemotion_Guitar,6,3,DL_deepemotion_Guitar,0.37034574151039124,0
62,100,0.11818181818181818,567,0,102,DL_deepemotion_Guitar,6,2,DL_deepemotion_Guitar,0.45617449283599854,0
62,100,0.6181818181818182,853,1,103,DL_deepemotion_Guitar,6,10,DL_deepemotion_Guitar,0.979223370552063,1
53,100,0.2818181818181818,510,1,0,DL_heartfullpop_2_Guitar,6,5,DL_heartfullpop_2_Guitar,0.9988439083099365,1
60,100,0.1409090909090909,673,0,0,DL_heartfullpop_2_Guitar,6,2,DL_heartfullpop_2_Guitar,0.13798193633556366,0
60,100,0.16363636363636364,708,0,0,DL_heartfullpop_2_Guitar,6,3,DL_heartfullpop_2_Guitar,0.1623636931180954,0
60,100,0.2,748,0,0,DL_heartfullpop_2_Guitar,6,3,DL_heartfullpop_2_Guitar,0.19105264544487,0
60,100,0.1,801,0,0,DL_heartfullpop_2_Guitar,6,2,DL_heartfullpop_2_Guitar,0.2619659900665283,0
60,100,0.1590909090909091,343,1,1,DL_heartfullpop_2_Guitar,6,3,DL_heartfullpop_2_Guitar,0.9990280866622925,1
60,100,0.3,695,1,1,DL_heartfullpop_2_Guitar,6,5,DL_heartfullpop_2_Guitar,0.37034058570861816,0
53,100,0.16363636363636364,796,0,1,DL_heartfullpop_2_Guitar,6,3,DL_heartfullpop_2_Guitar,0.45616480708122253,0
60,100,0.21818181818181817,106,1,2,DL_heartfullpop_2_Guitar,6,3,DL_heartfullpop_2_Guitar,0.9990094900131226,1
60,100,0.3409090909090909,616,1,2,DL_heartfullpop_2_Guitar,6,5,DL_heartfullpop_2_Guitar,0.23322515189647675,0
53,100,0.12272727272727273,694,0,2,DL_heartfullpop_2_Guitar,6,2,DL_heartfullpop_2_Guitar,0.27058273553848267,0
60,100,0.3,761,0,2,DL_heartfullpop_2_Guitar,6,5,DL_heartfullpop_2_Guitar,0.35792574286460876,0
65,100,0.21818181818181817,43,1,4,DL_heartfullpop_2_Guitar,6,3,DL_heartfullpop_2_Guitar,0.9983231425285339,1
53,100,0.13636363636363635,875,1,4,DL_heartfullpop_2_Guitar,6,2,DL_heartfullpop_2_Guitar,0.5462111234664917,1
65,100,0.21818181818181817,40,1,5,DL_heartfullpop_2_Guitar,6,3,DL_heartfullpop_2_Guitar,0.9988439083099365,1
65,100,0.2409090909090909,189,0,5,DL_heartfullpop_2_Guitar,6,4,DL_heartfullpop_2_Guitar,0.1379786729812622,0
58,100,0.2,391,0,5,DL_heartfullpop_2_Guitar,6,3,DL_heartfullpop_2_Guitar,0.16236194968223572,0
53,100,0.1590909090909091,721,1,5,DL_heartfullpop_2_Guitar,6,3,DL_heartfullpop_2_Guitar,0.191054105758667,0
53,100,0.4409090909090909,770,0,5,DL_heartfullpop_2_Guitar,6,7,DL_heartfullpop_2_Guitar,0.26195546984672546,0
53,100,0.1590909090909091,150,1,6,DL_heartfullpop_2_Guitar,6,3,DL_heartfullpop_2_Guitar,0.9986506104469299,1
53,100,0.17727272727272728,545,1,6,DL_heartfullpop_2_Guitar,6,3,DL_heartfullpop_2_Guitar,0.08797627687454224,0
53,100,0.12272727272727273,598,0,6,DL_heartfullpop_2_Guitar,6,2,DL_heartfullpop_2_Guitar,0.09298161417245865,0
53,100,0.11818181818181818,721,0,6,DL_heartfullpop_2_Guitar,6,2,DL_heartfullpop_2_Guitar,0.10994529724121094,0
65,100,0.1,774,0,6,DL_heartfullpop_2_Guitar,6,2,DL_heartfullpop_2_Guitar,0.1286664754152298,0
53,100,0.11818181818181818,801,0,6,DL_heartfullpop_2_Guitar,6,2,DL_heartfullpop_2_Guitar,0.18221226334571838,0
53,100,0.38181818181818183,506,1,7,DL_heartfullpop_2_Guitar,6,6,DL_heartfullpop_2_Guitar,0.9792240262031555,1
65,100,0.1,0,1,8,DL_heartfullpop_2_Guitar,6,2,DL_heartfullpop_2_Guitar,0.979223906993866,1
65,100,0.21818181818181817,171,1,9,DL_heartfullpop_2_Guitar,6,3,DL_heartfullpop_2_Guitar,0.9792237281799316,1
53,100,0.3409090909090909,13,1,10,DL_heartfullpop_2_Guitar,6,5,DL_heartfullpop_2_Guitar,0.9984879493713379,1
53,100,0.4,118,0,10,DL_heartfullpop_2_Guitar,6,6,DL_heartfullpop_2_Guitar,0.06335251033306122,0
60,100,0.4772727272727273,216,0,10,DL_heartfullpop_2_Guitar,6,8,DL_heartfullpop_2_Guitar,0.05828986316919327,0
60,100,0.5590909090909091,391,0,10,DL_heartfullpop_2_Guitar,6,9,DL_heartfullpop_2_Guitar,0.0613616444170475,0
53,100,0.23636363636363636,524,0,10,DL_heartfullpop_2_Guitar,6,4,DL_heartfullpop_2_Guitar,0.07168170809745789,0
60,100,0.5409090909090909,584,0,10,DL_heartfullpop_2_Guitar,6,9,DL_heartfullpop_2_Guitar,0.08473725616931915,0
53,100,0.3,756,0,10,DL_heartfullpop_2_Guitar,6,5,DL_heartfullpop_2_Guitar,0.12635096907615662,0
53,100,0.2772727272727273,17,1,11,DL_heartfullpop_2_Guitar,6,4,DL_heartfullpop_2_Guitar,0.9986506104469299,1
65,100,0.1590909090909091,79,0,11,DL_heartfullpop_2_Guitar,6,3,DL_heartfullpop_2_Guitar,0.08797792345285416,0
53,100,0.12272727272727273,113,0,11,DL_heartfullpop_2_Guitar,6,2,DL_heartfullpop_2_Guitar,0.0929826945066452,0
53,100,0.3181818181818182,149,0,11,DL_heartfullpop_2_Guitar,6,5,DL_heartfullpop_2_Guitar,0.10994719713926315,0
60,100,0.5363636363636364,281,0,11,DL_heartfullpop_2_Guitar,6,9,DL_heartfullpop_2_Guitar,0.12866954505443573,0
60,100,0.1,422,0,11,DL_heartfullpop_2_Guitar,6,2,DL_heartfullpop_2_Guitar,0.18221767246723175,0
57,100,0.5,61,1,12,DL_heartfullpop_2_Guitar,6,8,DL_heartfullpop_2_Guitar,0.9988439083099365,1
62,100,0.2,206,0,12,DL_heartfullpop_2_Guitar,6,3,DL_heartfullpop_2_Guitar,0.13798169791698456,0
61,100,0.1409090909090909,250,0,12,DL_heartfullpop_2_Guitar,6,2,DL_heartfullpop_2_Guitar,0.16236309707164764,0
53,100,0.3181818181818182,307,0,12,DL_heartfullpop_2_Guitar,6,5,DL_heartfullpop_2_Guitar,0.1910480409860611,0
58,100,0.5181818181818182,594,1,12,DL_heartfullpop_2_Guitar,6,8,DL_heartfullpop_2_Guitar,0.26196223497390747,0
58,100,0.2409090909090909,233,1,13,DL_heartfullpop_2_Guitar,6,4,DL_heartfullpop_2_Guitar,0.9983232617378235,1
53,100,0.21818181818181817,589,1,13,DL_heartfullpop_2_Guitar,6,3,DL_heartfullpop_2_Guitar,0.5462083220481873,1
53,100,0.22272727272727272,708,1,14,DL_heartfullpop_2_Guitar,6,4,DL_heartfullpop_2_Guitar,0.9990280866622925,1
60,100,0.2409090909090909,773,0,14,DL_heartfullpop_2_Guitar,6,4,DL_heartfullpop_2_Guitar,0.37034398317337036,0
60,100,0.23636363636363636,831,0,14,DL_heartfullpop_2_Guitar,6,4,DL_heartfullpop_2_Guitar,0.4561713635921478,0
53,100,0.2409090909090909,70,1,15,DL_heartfullpop_2_Guitar,6,4,DL_heartfullpop_2_Guitar,0.9983735084533691,1
53,100,0.42272727272727273,158,0,15,DL_heartfullpop_2_Guitar,6,7,DL_heartfullpop_2_Guitar,0.05104951187968254,0
53,100,0.35909090909090907,254,0,15,DL_heartfullpop_2_Guitar,6,6,DL_heartfullpop_2_Guitar,0.0416114367544651,0
53,100,0.35909090909090907,391,0,15,DL_heartfullpop_2_Guitar,6,6,DL_heartfullpop_2_Guitar,0.037977997213602066,0
60,100,0.33636363636363636,656,1,15,DL_heartfullpop_2_Guitar,6,5,DL_heartfullpop_2_Guitar,0.03925914689898491,0
60,100,0.11818181818181818,756,0,15,DL_heartfullpop_2_Guitar,6,2,DL_heartfullpop_2_Guitar,0.04616384208202362,0
60,100,0.1,840,0,15,DL_heartfullpop_2_Guitar,6,2,DL_heartfullpop_2_Guitar,0.05712895467877388,0
60,100,0.1409090909090909,866,0,15,DL_heartfullpop_2_Guitar,6,2,DL_heartfullpop_2_Guitar,0.0918770581483841,0
53,100,0.22272727272727272,26,1,16,DL_heartfullpop_2_Guitar,6,4,DL_heartfullpop_2_Guitar,0.9983004927635193,1
60,100,0.12272727272727273,92,0,16,DL_heartfullpop_2_Guitar,6,2,DL_heartfullpop_2_Guitar,0.044662922620773315,0
60,100,0.2590909090909091,220,0,16,DL_heartfullpop_2_Guitar,6,4,DL_heartfullpop_2_Guitar,0.03337112441658974,0
60,100,0.18181818181818182,308,0,16,DL_heartfullpop_2_Guitar,6,3,DL_heartfullpop_2_Guitar,0.026947416365146637,0
53,100,0.21818181818181817,347,0,16,DL_heartfullpop_2_Guitar,6,3,DL_heartfullpop_2_Guitar,0.0240828525274992,0
60,100,0.17727272727272728,501,0,16,DL_heartfullpop_2_Guitar,6,3,DL_heartfullpop_2_Guitar,0.02497246488928795,0
53,100,0.35909090909090907,540,0,16,DL_heartfullpop_2_Guitar,6,6,DL_heartfullpop_2_Guitar,0.030646607279777527,0
53,100,0.4,669,0,16,DL_heartfullpop_2_Guitar,6,6,DL_heartfullpop_2_Guitar,0.04136771336197853,0
65,100,0.2409090909090909,756,0,16,DL_heartfullpop_2_Guitar,6,4,DL_heartfullpop_2_Guitar,0.07206834852695465,0
53,100,0.11818181818181818,9,1,17,DL_heartfullpop_2_Guitar,6,2,DL_heartfullpop_2_Guitar,0.9983004927635193,1
53,100,0.4590909090909091,57,0,17,DL_heartfullpop_2_Guitar,6,7,DL_heartfullpop_2_Guitar,0.044661711901426315,0
62,100,0.1409090909090909,175,0,17,DL_heartfullpop_2_Guitar,6,2,DL_heartfullpop_2_Guitar,0.033371783792972565,0
62,100,0.11818181818181818,216,0,17,DL_heartfullpop_2_Guitar,6,2,DL_heartfullpop_2_Guitar,0.026947928592562675,0
65,100,0.12272727272727273,488,1,17,DL_heartfullpop_2_Guitar,6,2,DL_heartfullpop_2_Guitar,0.024083806201815605,0
57,100,0.32272727272727275,576,0,17,DL_heartfullpop_2_Guitar,6,5,DL_heartfullpop_2_Guitar,0.024973126128315926,0
62,100,0.18181818181818182,663,0,17,DL_heartfullpop_2_Guitar,6,3,DL_heartfullpop_2_Guitar,0.03064781054854393,0
62,100,0.1409090909090909,783,0,17,DL_heartfullpop_2_Guitar,6,2,DL_heartfullpop_2_Guitar,0.04136958718299866,0
65,100,0.35909090909090907,858,0,17,DL_heartfullpop_2_Guitar,6,6,DL_heartfullpop_2_Guitar,0.07207019627094269,0
57,100,0.11818181818181818,295,1,18,DL_heartfullpop_2_Guitar,6,2,DL_heartfullpop_2_Guitar,0.9990094900131226,1
62,100,0.2818181818181818,443,0,18,DL_heartfullpop_2_Guitar,6,5,DL_heartfullpop_2_Guitar,0.23324225842952728,0
53,100,0.3,607,0,18,DL_heartfullpop_2_Guitar,6,5,DL_heartfullpop_2_Guitar,0.2705868184566498,0
62,100,0.21818181818181817,858,1,18,DL_heartfullpop_2_Guitar,6,3,DL_heartfullpop_2_Guitar,0.35793715715408325,0
65,100,0.2409090909090909,57,1,19,DL_heartfullpop_2_Guitar,6,4,DL_heartfullpop_2_Guitar,0.9986506104469299,1
65,100,0.4590909090909091,131,0,19,DL_heartfullpop_2_Guitar,6,7,DL_heartfullpop_2_Guitar,0.08797746896743774,0
60,100,0.2409090909090909,405,1,19,DL_heartfullpop_2_Guitar,6,4,DL_heartfullpop_2_Guitar,0.09298277646303177,0
53,100,0.2636363636363636,488,0,19,DL_heartfullpop_2_Guitar,6,4,DL_heartfullpop_2_Guitar,0.10994506627321243,0
53,100,0.35909090909090907,681,0,19,DL_heartfullpop_2_Guitar,6,6,DL_heartfullpop_2_Guitar,0.1286652535200119,0
62,100,0.11818181818181818,810,0,19,DL_heartfullpop_2_Guitar,6,2,DL_heartfullpop_2_Guitar,0.1822158247232437,0
53,100,0.9409090909090909,9,1,20,DL_heartfullpop_2_Guitar,6,15,DL_heartfullpop_2_Guitar,0.9982556700706482,1
65,100,0.17727272727272728,216,0,20,DL_heartfullpop_2_Guitar,6,3,DL_heartfullpop_2_Guitar,0.04129263386130333,0
53,100,0.2,254,0,20,DL_heartfullpop_2_Guitar,6,3,DL_heartfullpop_2_Guitar,0.029124049469828606,0
62,100,0.2590909090909091,320,0,20,DL_heartfullpop_2_Guitar,6,4,DL_heartfullpop_2_Guitar,0.021568747237324715,0
53,100,0.2,391,0,20,DL_heartfullpop_2_Guitar,6,3,DL_heartfullpop_2_Guitar,0.01705838367342949,0
65,100,0.1409090909090909,449,0,20,DL_heartfullpop_2_Guitar,6,2,DL_heartfullpop_2_Guitar,0.015267666429281235,0
53,100,0.36363636363636365,509,0,20,DL_heartfullpop_2_Guitar,6,6,DL_heartfullpop_2_Guitar,0.01645542122423649,0
62,100,0.1409090909090909,602,0,20,DL_heartfullpop_2_Guitar,6,2,DL_heartfullpop_2_Guitar,0.021836532279849052,0
53,100,0.740909090909091,642,0,20,DL_heartfullpop_2_Guitar,6,12,DL_heartfullpop_2_Guitar,0.032516688108444214,0
65,100,0.18181818181818182,818,0,20,DL_heartfullpop_2_Guitar,6,3,DL_heartfullpop_2_Guitar,0.060912251472473145,0
65,100,0.4409090909090909,52,1,21,DL_heartfullpop_2_Guitar,6,7,DL_heartfullpop_2_Guitar,0.9982556700706482,1
53,100,0.33636363636363636,150,0,21,DL_heartfullpop_2_Guitar,6,5,DL_heartfullpop_2_Guitar,0.041292496025562286,0
62,100,0.11818181818181818,241,0,21,DL_heartfullpop_2_Guitar,6,2,DL_heartfullpop_2_Guitar,0.02912471629679203,0
62,100,0.18181818181818182,299,0,21,DL_heartfullpop_2_Guitar,6,3,DL_heartfullpop_2_Guitar,0.021568750962615013,0
65,100,0.3,356,0,21,DL_heartfullpop_2_Guitar,6,5,DL_heartfullpop_2_Guitar,0.017058664932847023,0
53,100,0.2,422,0,21,DL_heartfullpop_2_Guitar,6,3,DL_heartfullpop_2_Guitar,0.01526762917637825,0
65,100,0.11818181818181818,550,0,21,DL_heartfullpop_2_Guitar,6,2,DL_heartfullpop_2_Guitar,0.016455188393592834,0
65,100,0.12272727272727273,642,0,21,DL_heartfullpop_2_Guitar,6,2,DL_heartfullpop_2_Guitar,0.021836744621396065,0
53,100,0.4,669,0,21,DL_heartfullpop_2_Guitar,6,6,DL_heartfullpop_2_Guitar,0.032516732811927795,0
53,100,0.1409090909090909,804,0,21,DL_heartfullpop_2_Guitar,6,2,DL_heartfullpop_2_Guitar,0.060910098254680634,0
55,100,0.3,30,1,22,DL_heartfullpop_2_Guitar,6,5,DL_heartfullpop_2_Guitar,0.9984880685806274,1
62,100,0.5590909090909091,171,0,22,DL_heartfullpop_2_Guitar,6,9,DL_heartfullpop_2_Guitar,0.06335414946079254,0
53,100,0.2409090909090909,316,0,22,DL_heartfullpop_2_Guitar,6,4,DL_heartfullpop_2_Guitar,0.05828992277383804,0
62,100,0.18181818181818182,528,0,22,DL_heartfullpop_2_Guitar,6,3,DL_heartfullpop_2_Guitar,0.06136278063058853,0
62,100,0.4590909090909091,594,0,22,DL_heartfullpop_2_Guitar,6,7,DL_heartfullpop_2_Guitar,0.07168544828891754,0
62,100,0.12272727272727273,729,0,22,DL_heartfullpop_2_Guitar,6,2,DL_heartfullpop_2_Guitar,0.08473984152078629,0
53,100,0.1409090909090909,801,0,22,DL_heartfullpop_2_Guitar,6,2,DL_heartfullpop_2_Guitar,0.12635429203510284,0
53,100,0.21818181818181817,0,1,23,DL_heartfullpop_2_Guitar,6,3,DL_heartfullpop_2_Guitar,0.9983735084533691,1
53,100,0.22272727272727272,79,0,23,DL_heartfullpop_2_Guitar,6,4,DL_heartfullpop_2_Guitar,0.051048655062913895,0
60,100,0.1590909090909091,150,0,23,DL_heartfullpop_2_Guitar,6,3,DL_heartfullpop_2_Guitar,0.04161146655678749,0
65,100,0.18181818181818182,356,0,23,DL_heartfullpop_2_Guitar,6,3,DL_heartfullpop_2_Guitar,0.037976812571287155,0
53,100,0.4590909090909091,453,0,23,DL_heartfullpop_2_Guitar,6,7,DL_heartfullpop_2_Guitar,0.03925756365060806,0
53,100,0.2772727272727273,590,0,23,DL_heartfullpop_2_Guitar,6,4,DL_heartfullpop_2_Guitar,0.046162016689777374,0
60,100,0.3,779,0,23,DL_heartfullpop_2_Guitar,6,5,DL_heartfullpop_2_Guitar,0.05712926387786865,0
53,100,0.2,862,0,23,DL_heartfullpop_2_Guitar,6,3,DL_heartfullpop_2_Guitar,0.09187730401754379,0
53,100,0.7181818181818181,119,1,24,DL_heartfullpop_2_Guitar,6,11,DL_heartfullpop_2_Guitar,0.9988439083099365,1
60,100,0.4590909090909091,347,0,24,DL_heartfullpop_2_Guitar,6,7,DL_heartfullpop_2_Guitar,0.137979656457901,0
53,100,0.13636363636363635,567,0,24,DL_heartfullpop_2_Guitar,6,2,DL_heartfullpop_2_Guitar,0.1623598039150238,0
53,100,0.11818181818181818,656,0,24,DL_heartfullpop_2_Guitar,6,2,DL_heartfullpop_2_Guitar,0.19105081260204315,0
53,100,0.37727272727272726,735,0,24,DL_heartfullpop_2_Guitar,6,6,DL_heartfullpop_2_Guitar,0.2619569003582001,0
60,100,0.13636363636363635,61,1,25,DL_heartfullpop_2_Guitar,6,2,DL_heartfullpop_2_Guitar,0.9983735084533691,1
53,100,0.1409090909090909,144,0,25,DL_heartfullpop_2_Guitar,6,2,DL_heartfullpop_2_Guitar,0.05104893073439598,0
53,100,0.4409090909090909,206,0,25,DL_heartfullpop_2_Guitar,6,7,DL_heartfullpop_2_Guitar,0.04161085560917854,0
60,100,0.4590909090909091,440,1,25,DL_heartfullpop_2_Guitar,6,7,DL_heartfullpop_2_Guitar,0.037979722023010254,0
60,100,0.1409090909090909,563,0,25,DL_heartfullpop_2_Guitar,6,2,DL_heartfullpop_2_Guitar,0.039258211851119995,0
60,100,0.16363636363636364,729,0,25,DL_heartfullpop_2_Guitar,6,3,DL_heartfullpop_2_Guitar,0.04616451635956764,0
53,100,0.23636363636363636,766,0,25,DL_heartfullpop_2_Guitar,6,4,DL_heartfullpop_2_Guitar,0.05712928995490074,0
60,100,0.1,839,0,25,DL_heartfullpop_2_Guitar,6,2,DL_heartfullpop_2_Guitar,0.09187785536050797,0
53,100,0.6227272727272727,26,1,26,DL_heartfullpop_2_Guitar,6,10,DL_heartfullpop_2_Guitar,0.9988439083099365,1
53,100,0.1590909090909091,175,0,26,DL_heartfullpop_2_Guitar,6,3,DL_heartfullpop_2_Guitar,0.13797900080680847,0
60,100,0.13636363636363635,216,0,26,DL_heartfullpop_2_Guitar,6,2,DL_heartfullpop_2_Guitar,0.1623595952987671,0
53,100,0.7,370,0,26,DL_heartfullpop_2_Guitar,6,11,DL_heartfullpop_2_Guitar,0.19104766845703125,0
60,100,0.4772727272727273,779,1,26,DL_heartfullpop_2_Guitar,6,8,DL_heartfullpop_2_Guitar,0.2619612216949463,0
65,100,0.3409090909090909,162,1,27,DL_heartfullpop_2_Guitar,6,5,DL_heartfullpop_2_Guitar,0.9792238473892212,1
65,100,0.2,113,1,28,DL_heartfullpop_2_Guitar,6,3,DL_heartfullpop_2_Guitar,0.9990094900131226,1
57,100,0.18181818181818182,356,1,28,DL_heartfullpop_2_Guitar,6,3,DL_heartfullpop_2_Guitar,0.23322825133800507,0
62,100,0.4,584,0,28,DL_heartfullpop_2_Guitar,6,6,DL_heartfullpop_2_Guitar,0.2705874443054199,0
53,100,0.5,796,0,28,DL_heartfullpop_2_Guitar,6,8,DL_heartfullpop_2_Guitar,0.3579303026199341,0
60,100,1.2818181818181817,88,1,29,DL_heartfullpop_2_Guitar,6,15,DL_heartfullpop_2_Guitar,0.9988439083099365,1
53,100,0.3409090909090909,492,1,29,DL_heartfullpop_2_Guitar,6,5,DL_heartfullpop_2_Guitar,0.1379793882369995,0
65,100,0.2,567,0,29,DL_heartfullpop_2_Guitar,6,3,DL_heartfullpop_2_Guitar,0.16236326098442078,0
53,100,0.32272727272727275,629,0,29,DL_heartfullpop_2_Guitar,6,5,DL_heartfullpop_2_Guitar,0.19105328619480133,0
65,100,0.18181818181818182,708,0,29,DL_heartfullpop_2_Guitar,6,3,DL_heartfullpop_2_Guitar,0.26195913553237915,0
60,100,0.2818181818181818,3,1,30,DL_heartfullpop_2_Guitar,6,5,DL_heartfullpop_2_Guitar,0.9984879493713379,1
53,100,0.4409090909090909,131,0,30,DL_heartfullpop_2_Guitar,6,7,DL_heartfullpop_2_Guitar,0.06335171312093735,0
65,100,0.4409090909090909,229,0,30,DL_heartfullpop_2_Guitar,6,7,DL_heartfullpop_2_Guitar,0.05828706547617912,0
53,100,0.2590909090909091,326,0,30,DL_heartfullpop_2_Guitar,6,4,DL_heartfullpop_2_Guitar,0.061359159648418427,0
65,100,0.33636363636363636,413,0,30,DL_heartfullpop_2_Guitar,6,5,DL_heartfullpop_2_Guitar,0.07167937606573105,0
60,100,0.2,650,1,30,DL_heartfullpop_2_Guitar,6,3,DL_heartfullpop_2_Guitar,0.0847323015332222,0
60,100,0.2636363636363636,708,0,30,DL_heartfullpop_2_Guitar,6,4,DL_heartfullpop_2_Guitar,0.12634646892547607,0
62,100,0.35909090909090907,21,1,31,DL_heartfullpop_2_Guitar,6,6,DL_heartfullpop_2_Guitar,0.9990094900131226,1
60,100,0.33636363636363636,150,0,31,DL_heartfullpop_2_Guitar,6,5,DL_heartfullpop_2_Guitar,0.23323515057563782,0
53,100,0.22272727272727272,223,0,31,DL_heartfullpop_2_Guitar,6,4,DL_heartfullpop_2_Guitar,0.2705773413181305,0
62,100,0.1590909090909091,501,1,31,DL_heartfullpop_2_Guitar,6,3,DL_heartfullpop_2_Guitar,0.3579312562942505,0
53,100,0.3,748,1,32,DL_heartfullpop_2_Guitar,6,5,DL_heartfullpop_2_Guitar,0.9983231425285339,1
60,100,0.43636363636363634,875,0,32,DL_heartfullpop_2_Guitar,6,7,DL_heartfullpop_2_Guitar,0.5462197661399841,1
53,100,0.2,330,1,33,DL_heartfullpop_2_Guitar,6,3,DL_heartfullpop_2_Guitar,0.9792245030403137,1
53,100,0.1,91,1,34,DL_heartfullpop_2_Guitar,6,2,DL_heartfullpop_2_Guitar,0.9983735084533691,1
65,100,0.2,114,0,34,DL_heartfullpop_2_Guitar,6,3,DL_heartfullpop_2_Guitar,0.05105074495077133,0
62,100,0.2590909090909091,228,0,34,DL_heartfullpop_2_Guitar,6,4,DL_heartfullpop_2_Guitar,0.041612349450588226,0
62,100,0.21818181818181817,295,0,34,DL_heartfullpop_2_Guitar,6,3,DL_heartfullpop_2_Guitar,0.03798125311732292,0
53,100,0.2636363636363636,356,0,34,DL_heartfullpop_2_Guitar,6,4,DL_heartfullpop_2_Guitar,0.03926189988851547,0
62,100,0.3,418,0,34,DL_heartfullpop_2_Guitar,6,5,DL_heartfullpop_2_Guitar,0.04616774991154671,0
53,100,0.12272727272727273,628,0,34,DL_heartfullpop_2_Guitar,6,2,DL_heartfullpop_2_Guitar,0.0571335032582283,0
58,100,0.13636363636363635,700,0,34,DL_heartfullpop_2_Guitar,6,2,DL_heartfullpop_2_Guitar,0.09188367426395416,0
62,100,0.17727272727272728,8,1,35,DL_heartfullpop_2_Guitar,6,3,DL_heartfullpop_2_Guitar,0.9983004927635193,1
53,100,0.3,78,0,35,DL_heartfullpop_2_Guitar,6,5,DL_heartfullpop_2_Guitar,0.04466168209910393,0
65,100,0.1590909090909091,144,0,35,DL_heartfullpop_2_Guitar,6,3,DL_heartfullpop_2_Guitar,0.033371832221746445,0
62,100,0.9,251,0,35,DL_heartfullpop_2_Guitar,6,14,DL_heartfullpop_2_Guitar,0.026947416365146637,0
62,100,0.1409090909090909,471,0,35,DL_heartfullpop_2_Guitar,6,2,DL_heartfullpop_2_Guitar,0.024083571508526802,0
53,100,0.2590909090909091,528,0,35,DL_heartfullpop_2_Guitar,6,4,DL_heartfullpop_2_Guitar,0.024972498416900635,0
69,100,0.1409090909090909,593,0,35,DL_heartfullpop_2_Guitar,6,2,DL_heartfullpop_2_Guitar,0.030647514387965202,0
62,100,0.6590909090909091,691,0,35,DL_heartfullpop_2_Guitar,6,11,DL_heartfullpop_2_Guitar,0.04136945307254791,0
65,100,0.1409090909090909,836,0,35,DL_heartfullpop_2_Guitar,6,2,DL_heartfullpop_2_Guitar,0.07206974923610687,0
64,100,0.8,13,1,36,DL_heartfullpop_2_Guitar,6,13,DL_heartfullpop_2_Guitar,0.9984879493713379,1
60,100,0.21818181818181817,228,0,36,DL_heartfullpop_2_Guitar,6,3,DL_heartfullpop_2_Guitar,0.06335468590259552,0
60,100,0.4636363636363636,289,0,36,DL_heartfullpop_2_Guitar,6,7,DL_heartfullpop_2_Guitar,0.058290064334869385,0
64,100,0.35909090909090907,453,0,36,DL_heartfullpop_2_Guitar,6,6,DL_heartfullpop_2_Guitar,0.06136331707239151,0
60,100,0.2409090909090909,554,0,36,DL_heartfullpop_2_Guitar,6,4,DL_heartfullpop_2_Guitar,0.07168659567832947,0
57,100,0.2590909090909091,611,0,36,DL_heartfullpop_2_Guitar,6,4,DL_heartfullpop_2_Guitar,0.08473912626504898,0
60,100,0.5181818181818182,748,0,36,DL_heartfullpop_2_Guitar,6,8,DL_heartfullpop_2_Guitar,0.12635912001132965,0
57,100,0.1409090909090909,4,1,37,DL_heartfullpop_2_Guitar,6,2,DL_heartfullpop_2_Guitar,0.9990280866622925,1
69,100,0.21818181818181817,110,0,37,DL_heartfullpop_2_Guitar,6,3,DL_heartfullpop_2_Guitar,0.3703450858592987,0
62,100,0.13636363636363635,655,1,37,DL_heartfullpop_2_Guitar,6,2,DL_heartfullpop_2_Guitar,0.4561750292778015,0
62,100,0.1590909090909091,43,1,38,DL_heartfullpop_2_Guitar,6,3,DL_heartfullpop_2_Guitar,0.9984879493713379,1
64,100,0.11818181818181818,241,0,38,DL_heartfullpop_2_Guitar,6,2,DL_heartfullpop_2_Guitar,0.06335432827472687,0
65,100,0.22272727272727272,268,0,38,DL_heartfullpop_2_Guitar,6,4,DL_heartfullpop_2_Guitar,0.05828835815191269,0
53,100,0.11818181818181818,330,0,38,DL_heartfullpop_2_Guitar,6,2,DL_heartfullpop_2_Guitar,0.061361271888017654,0
53,100,0.22272727272727272,541,0,38,DL_heartfullpop_2_Guitar,6,4,DL_heartfullpop_2_Guitar,0.07168097048997879,0
53,100,0.1409090909090909,713,0,38,DL_heartfullpop_2_Guitar,6,2,DL_heartfullpop_2_Guitar,0.08473517745733261,0
62,100,0.11818181818181818,756,0,38,DL_heartfullpop_2_Guitar,6,2,DL_heartfullpop_2_Guitar,0.12634792923927307,0
65,100,0.3181818181818182,31,1,39,DL_heartfullpop_2_Guitar,6,5,DL_heartfullpop_2_Guitar,0.9988439083099365,1
53,100,0.37727272727272726,105,0,39,DL_heartfullpop_2_Guitar,6,6,DL_heartfullpop_2_Guitar,0.1379789113998413,0
58,100,0.1409090909090909,276,0,39,DL_heartfullpop_2_Guitar,6,2,DL_heartfullpop_2_Guitar,0.16236087679862976,0
65,100,0.2409090909090909,364,0,39,DL_heartfullpop_2_Guitar,6,4,DL_heartfullpop_2_Guitar,0.19104725122451782,0
60,100,0.4409090909090909,861,1,39,DL_heartfullpop_2_Guitar,6,7,DL_heartfullpop_2_Guitar,0.2619582414627075,0
60,100,0.5636363636363636,268,1,40,DL_heartfullpop_2_Guitar,6,9,DL_heartfullpop_2_Guitar,0.9986506104469299,1
60,100,0.1,421,0,40,DL_heartfullpop_2_Guitar,6,2,DL_heartfullpop_2_Guitar,0.08797892183065414,0
65,100,0.12272727272727273,606,0,40,DL_heartfullpop_2_Guitar,6,2,DL_heartfullpop_2_Guitar,0.09298297762870789,0
53,100,0.3181818181818182,638,0,40,DL_heartfullpop_2_Guitar,6,5,DL_heartfullpop_2_Guitar,0.10994748771190643,0
53,100,0.2590909090909091,765,0,40,DL_heartfullpop_2_Guitar,6,4,DL_heartfullpop_2_Guitar,0.1286706030368805,0
53,100,0.3,839,0,40,DL_heartfullpop_2_Guitar,6,5,DL_heartfullpop_2_Guitar,0.1822119653224945,0
62,100,0.4,61,1,41,DL_heartfullpop_2_Guitar,6,6,DL_heartfullpop_2_Guitar,0.9990094900131226,1
62,100,0.4409090909090909,440,1,41,DL_heartfullpop_2_Guitar,6,7,DL_heartfullpop_2_Guitar,0.23324048519134521,0
62,100,0.2818181818181818,563,0,41,DL_heartfullpop_2_Guitar,6,5,DL_heartfullpop_2_Guitar,0.27058637142181396,0
60,100,0.5590909090909091,668,0,41,DL_heartfullpop_2_Guitar,6,9,DL_heartfullpop_2_Guitar,0.35793617367744446,0
53,100,0.17727272727272728,75,1,43,DL_heartfullpop_2_Guitar,6,3,DL_heartfullpop_2_Guitar,0.9983004927635193,1
57,100,0.33636363636363636,193,0,43,DL_heartfullpop_2_Guitar,6,5,DL_heartfullpop_2_Guitar,0.04466190189123154,0
65,100,0.12272727272727273,356,0,43,DL_heartfullpop_2_Guitar,6,2,DL_heartfullpop_2_Guitar,0.03337078541517258,0
53,100,0.2772727272727273,383,0,43,DL_heartfullpop_2_Guitar,6,4,DL_heartfullpop_2_Guitar,0.026946360245347023,0
53,100,0.32272727272727275,453,0,43,DL_heartfullpop_2_Guitar,6,5,DL_heartfullpop_2_Guitar,0.024082651361823082,0
57,100,0.17727272727272728,545,0,43,DL_heartfullpop_2_Guitar,6,3,DL_heartfullpop_2_Guitar,0.02497103065252304,0
53,100,0.22272727272727272,598,0,43,DL_heartfullpop_2_Guitar,6,4,DL_heartfullpop_2_Guitar,0.03064640238881111,0
53,100,0.32272727272727275,716,0,43,DL_heartfullpop_2_Guitar,6,5,DL_heartfullpop_2_Guitar,0.04136597365140915,0
53,100,0.23636363636363636,853,0,43,DL_heartfullpop_2_Guitar,6,4,DL_heartfullpop_2_Guitar,0.07206845283508301,0
57,100,0.32272727272727275,144,1,44,DL_heartfullpop_2_Guitar,6,5,DL_heartfullpop_2_Guitar,0.9983004927635193,1
53,100,0.3409090909090909,228,0,44,DL_heartfullpop_2_Guitar,6,5,DL_heartfullpop_2_Guitar,0.044662024825811386,0
57,100,0.18181818181818182,378,0,44,DL_heartfullpop_2_Guitar,6,3,DL_heartfullpop_2_Guitar,0.0333709642291069,0
53,100,0.2,493,0,44,DL_heartfullpop_2_Guitar,6,3,DL_heartfullpop_2_Guitar,0.026947518810629845,0
53,100,0.6590909090909091,545,0,44,DL_heartfullpop_2_Guitar,6,11,DL_heartfullpop_2_Guitar,0.024082450196146965,0
53,100,0.18181818181818182,751,0,44,DL_heartfullpop_2_Guitar,6,3,DL_heartfullpop_2_Guitar,0.02497185952961445,0
65,100,0.1409090909090909,791,0,44,DL_heartfullpop_2_Guitar,6,2,DL_heartfullpop_2_Guitar,0.03064623847603798,0
53,100,0.1409090909090909,823,0,44,DL_heartfullpop_2_Guitar,6,2,DL_heartfullpop_2_Guitar,0.04136853665113449,0
53,100,0.8181818181818182,875,0,44,DL_heartfullpop_2_Guitar,6,13,DL_heartfullpop_2_Guitar,0.07206608355045319,0
53,100,0.4409090909090909,211,1,45,DL_heartfullpop_2_Guitar,6,7,DL_heartfullpop_2_Guitar,0.9990280866622925,1
62,100,0.2590909090909091,496,1,45,DL_heartfullpop_2_Guitar,6,4,DL_heartfullpop_2_Guitar,0.37034618854522705,0
62,100,0.1590909090909091,558,0,45,DL_heartfullpop_2_Guitar,6,3,DL_heartfullpop_2_Guitar,0.4561753273010254,0
62,100,0.37727272727272726,348,1,46,DL_heartfullpop_2_Guitar,6,6,DL_heartfullpop_2_Guitar,0.9988439083099365,1
62,100,0.2409090909090909,474,0,46,DL_heartfullpop_2_Guitar,6,4,DL_heartfullpop_2_Guitar,0.1379873901605606,0
65,100,0.22272727272727272,619,0,46,DL_heartfullpop_2_Guitar,6,4,DL_heartfullpop_2_Guitar,0.16236905753612518,0
62,100,0.4,694,0,46,DL_heartfullpop_2_Guitar,6,6,DL_heartfullpop_2_Guitar,0.1910635530948639,0
62,100,0.1409090909090909,861,0,46,DL_heartfullpop_2_Guitar,6,2,DL_heartfullpop_2_Guitar,0.2619737684726715,0
62,100,0.13636363636363635,61,1,47,DL_heartfullpop_2_Guitar,6,2,DL_heartfullpop_2_Guitar,0.9990280866622925,1
62,100,0.3,496,1,47,DL_heartfullpop_2_Guitar,6,5,DL_heartfullpop_2_Guitar,0.37034574151039124,0
53,100,0.3,638,0,47,DL_heartfullpop_2_Guitar,6,5,DL_heartfullpop_2_Guitar,0.456171452999115,0
53,100,0.12272727272727273,201,1,48,DL_heartfullpop_2_Guitar,6,2,DL_heartfullpop_2_Guitar,0.9988439083099365,1
53,100,0.22272727272727272,453,1,48,DL_heartfullpop_2_Guitar,6,4,DL_heartfullpop_2_Guitar,0.13797812163829803,0
53,100,0.1590909090909091,506,0,48,DL_heartfullpop_2_Guitar,6,3,DL_heartfullpop_2_Guitar,0.16236065328121185,0
53,100,0.41818181818181815,655,0,48,DL_heartfullpop_2_Guitar,6,7,DL_heartfullpop_2_Guitar,0.1910482943058014,0
53,100,0.2590909090909091,853,0,48,DL_heartfullpop_2_Guitar,6,4,DL_heartfullpop_2_Guitar,0.26195651292800903,0
53,100,0.2818181818181818,179,1,49,DL_heartfullpop_2_Guitar,6,5,DL_heartfullpop_2_Guitar,0.9986506104469299,1
62,100,0.11818181818181818,458,1,49,DL_heartfullpop_2_Guitar,6,2,DL_heartfullpop_2_Guitar,0.08797911554574966,0
60,100,0.1409090909090909,515,0,49,DL_heartfullpop_2_Guitar,6,2,DL_heartfullpop_2_Guitar,0.09298606961965561,0
53,100,0.17727272727272728,558,0,49,DL_heartfullpop_2_Guitar,6,3,DL_heartfullpop_2_Guitar,0.10994759947061539,0
53,100,0.5590909090909091,738,0,49,DL_heartfullpop_2_Guitar,6,9,DL_heartfullpop_2_Guitar,0.12866927683353424,0
53,100,0.1590909090909091,871,0,49,DL_heartfullpop_2_Guitar,6,3,DL_heartfullpop_2_Guitar,0.18222011625766754,0
65,100,0.18181818181818182,26,1,50,DL_heartfullpop_2_Guitar,6,3,DL_heartfullpop_2_Guitar,0.9988439083099365,1
53,100,0.1409090909090909,66,0,50,DL_heartfullpop_2_Guitar,6,2,DL_heartfullpop_2_Guitar,0.1379796713590622,0
62,100,0.4409090909090909,185,0,50,DL_heartfullpop_2_Guitar,6,7,DL_heartfullpop_2_Guitar,0.16236022114753723,0
60,100,0.3,396,0,50,DL_heartfullpop_2_Guitar,6,5,DL_heartfullpop_2_Guitar,0.19105781614780426,0
60,100,0.12272727272727273,474,0,50,DL_heartfullpop_2_Guitar,6,2,DL_heartfullpop_2_Guitar,0.2619644105434418,0
62,100,0.4,114,1,51,DL_heartfullpop_2_Guitar,6,6,DL_heartfullpop_2_Guitar,0.9990280866622925,1
60,100,0.1409090909090909,211,0,51,DL_heartfullpop_2_Guitar,6,2,DL_heartfullpop_2_Guitar,0.3703480362892151,0
65,100,0.38181818181818183,330,0,51,DL_heartfullpop_2_Guitar,6,6,DL_heartfullpop_2_Guitar,0.45617830753326416,0
58,100,0.1590909090909091,651,1,52,DL_heartfullpop_2_Guitar,6,3,DL_heartfullpop_2_Guitar,0.9983232617378235,1
53,100,0.1,691,0,52,DL_heartfullpop_2_Guitar,6,2,DL_heartfullpop_2_Guitar,0.5462138652801514,1
58,100,0.3409090909090909,66,1,53,DL_heartfullpop_2_Guitar,6,5,DL_heartfullpop_2_Guitar,0.9990280866622925,1
53,100,0.12272727272727273,408,1,53,DL_heartfullpop_2_Guitar,6,2,DL_heartfullpop_2_Guitar,0.37034767866134644,0
62,100,0.4,616,0,53,DL_heartfullpop_2_Guitar,6,6,DL_heartfullpop_2_Guitar,0.4561653137207031,0
62,100,0.4590909090909091,853,1,54,DL_heartfullpop_2_Guitar,6,7,DL_heartfullpop_2_Guitar,0.979223370552063,1
62,100,0.1409090909090909,166,1,55,DL_heartfullpop_2_Guitar,6,2,DL_heartfullpop_2_Guitar,0.9986506104469299,1
62,100,0.759090909090909,286,0,55,DL_heartfullpop_2_Guitar,6,12,DL_heartfullpop_2_Guitar,0.0879819244146347,0
55,100,0.5590909090909091,518,1,55,DL_heartfullpop_2_Guitar,6,9,DL_heartfullpop_2_Guitar,0.09298884868621826,0
55,100,0.43636363636363634,655,0,55,DL_heartfullpop_2_Guitar,6,7,DL_heartfullpop_2_Guitar,0.109952412545681,0
53,100,0.11818181818181818,765,0,55,DL_heartfullpop_2_Guitar,6,2,DL_heartfullpop_2_Guitar,0.12867462635040283,0
55,100,0.1409090909090909,804,0,55,DL_heartfullpop_2_Guitar,6,2,DL_heartfullpop_2_Guitar,0.18222235143184662,0
55,100,0.12272727272727273,48,1,56,DL_heartfullpop_2_Guitar,6,2,DL_heartfullpop_2_Guitar,0.9990280866622925,1
60,100,0.7,351,1,56,DL_heartfullpop_2_Guitar,6,11,DL_heartfullpop_2_Guitar,0.3703443109989166,0
60,100,1.040909090909091,571,0,56,DL_heartfullpop_2_Guitar,6,15,DL_heartfullpop_2_Guitar,0.45617181062698364,0
53,100,0.11818181818181818,153,1,57,DL_heartfullpop_2_Guitar,6,2,DL_heartfullpop_2_Guitar,0.9792236089706421,1
65,100,0.18181818181818182,56,1,58,DL_heartfullpop_2_Guitar,6,3,DL_heartfullpop_2_Guitar,0.9990280866622925,1
65,100,0.3409090909090909,233,0,58,DL_heartfullpop_2_Guitar,6,5,DL_heartfullpop_2_Guitar,0.3703334629535675,0
60,100,0.4636363636363636,774,1,58,DL_heartfullpop_2_Guitar,6,7,DL_heartfullpop_2_Guitar,0.45617640018463135,0
60,100,0.18181818181818182,136,1,59,DL_heartfullpop_2_Guitar,6,3,DL_heartfullpop_2_Guitar,0.9983735084533691,1
60,100,0.2636363636363636,179,0,59,DL_heartfullpop_2_Guitar,6,4,DL_heartfullpop_2_Guitar,0.0510498583316803,0
60,100,0.1409090909090909,311,0,59,DL_heartfullpop_2_Guitar,6,2,DL_heartfullpop_2_Guitar,0.04161207005381584,0
53,100,0.5409090909090909,474,0,59,DL_heartfullpop_2_Guitar,6,9,DL_heartfullpop_2_Guitar,0.03797794505953789,0
53,100,0.3,606,0,59,DL_heartfullpop_2_Guitar,6,5,DL_heartfullpop_2_Guitar,0.03925959765911102,0
65,100,0.12272727272727273,673,0,59,DL_heartfullpop_2_Guitar,6,2,DL_heartfullpop_2_Guitar,0.04616426303982735,0
53,100,0.5363636363636364,743,0,59,DL_heartfullpop_2_Guitar,6,9,DL_heartfullpop_2_Guitar,0.05713034048676491,0
53,100,0.2818181818181818,871,0,59,DL_heartfullpop_2_Guitar,6,5,DL_heartfullpop_2_Guitar,0.09187833219766617,0
53,100,0.35909090909090907,128,1,60,DL_heartfullpop_2_Guitar,6,6,DL_heartfullpop_2_Guitar,0.9982556700706482,1
53,100,0.18181818181818182,276,0,60,DL_heartfullpop_2_Guitar,6,3,DL_heartfullpop_2_Guitar,0.041291821748018265,0
60,100,0.2,330,0,60,DL_heartfullpop_2_Guitar,6,3,DL_heartfullpop_2_Guitar,0.029123961925506592,0
53,100,0.2409090909090909,386,0,60,DL_heartfullpop_2_Guitar,6,4,DL_heartfullpop_2_Guitar,0.021567773073911667,0
65,100,0.11818181818181818,440,0,60,DL_heartfullpop_2_Guitar,6,2,DL_heartfullpop_2_Guitar,0.017058096826076508,0
53,100,0.16363636363636364,466,0,60,DL_heartfullpop_2_Guitar,6,3,DL_heartfullpop_2_Guitar,0.015267019160091877,0
53,100,0.16363636363636364,509,0,60,DL_heartfullpop_2_Guitar,6,3,DL_heartfullpop_2_Guitar,0.016454502940177917,0
60,100,0.1,606,0,60,DL_heartfullpop_2_Guitar,6,2,DL_heartfullpop_2_Guitar,0.02183595485985279,0
53,100,0.33636363636363636,633,0,60,DL_heartfullpop_2_Guitar,6,5,DL_heartfullpop_2_Guitar,0.032515935599803925,0
53,100,0.1590909090909091,716,0,60,DL_heartfullpop_2_Guitar,6,3,DL_heartfullpop_2_Guitar,0.060908131301403046,0
53,100,0.2590909090909091,18,1,61,DL_heartfullpop_2_Guitar,6,4,DL_heartfullpop_2_Guitar,0.998228132724762,1
53,100,0.2590909090909091,78,0,61,DL_heartfullpop_2_Guitar,6,4,DL_heartfullpop_2_Guitar,0.03940153494477272,0
53,100,0.2,153,0,61,DL_heartfullpop_2_Guitar,6,3,DL_heartfullpop_2_Guitar,0.026853926479816437,0
53,100,0.2818181818181818,289,0,61,DL_heartfullpop_2_Guitar,6,5,DL_heartfullpop_2_Guitar,0.01883004605770111,0
65,100,0.2409090909090909,351,0,61,DL_heartfullpop_2_Guitar,6,4,DL_heartfullpop_2_Guitar,0.013653515838086605,0
53,100,0.3,405,0,61,DL_heartfullpop_2_Guitar,6,5,DL_heartfullpop_2_Guitar,0.010812195017933846,0
53,100,0.23636363636363636,545,0,61,DL_heartfullpop_2_Guitar,6,4,DL_heartfullpop_2_Guitar,0.010072526521980762,0
53,100,0.11818181818181818,625,0,61,DL_heartfullpop_2_Guitar,6,2,DL_heartfullpop_2_Guitar,0.011715496890246868,0
53,100,0.16363636363636364,664,0,61,DL_heartfullpop_2_Guitar,6,3,DL_heartfullpop_2_Guitar,0.016991186887025833,0
53,100,0.17727272727272728,713,0,61,DL_heartfullpop_2_Guitar,6,3,DL_heartfullpop_2_Guitar,0.027576763182878494,0
62,100,1.1636363636363636,796,0,61,DL_heartfullpop_2_Guitar,6,15,DL_heartfullpop_2_Guitar,0.05458815023303032,0
65,100,0.18181818181818182,188,1,62,DL_heartfullpop_2_Guitar,6,3,DL_heartfullpop_2_Guitar,0.9986506104469299,1
65,100,0.1,263,0,62,DL_heartfullpop_2_Guitar,6,2,DL_heartfullpop_2_Guitar,0.08798003941774368,0
62,100,0.2,361,0,62,DL_heartfullpop_2_Guitar,6,3,DL_heartfullpop_2_Guitar,0.09298370033502579,0
62,100,0.21818181818181817,506,0,62,DL_heartfullpop_2_Guitar,6,3,DL_heartfullpop_2_Guitar,0.10995010286569595,0
62,100,0.5590909090909091,568,0,62,DL_heartfullpop_2_Guitar,6,9,DL_heartfullpop_2_Guitar,0.1286730170249939,0
65,100,0.22272727272727272,761,0,62,DL_heartfullpop_2_Guitar,6,4,DL_heartfullpop_2_Guitar,0.18222098052501678,0
62,100,0.22272727272727272,13,1,63,DL_heartfullpop_2_Guitar,6,4,DL_heartfullpop_2_Guitar,0.9988439083099365,1
62,100,0.3181818181818182,198,0,63,DL_heartfullpop_2_Guitar,6,5,DL_heartfullpop_2_Guitar,0.13798952102661133,0
65,100,0.3,268,0,63,DL_heartfullpop_2_Guitar,6,5,DL_heartfullpop_2_Guitar,0.16237029433250427,0
62,100,0.11818181818181818,603,1,63,DL_heartfullpop_2_Guitar,6,2,DL_heartfullpop_2_Guitar,0.19106465578079224,0
65,100,0.22272727272727272,664,0,63,DL_heartfullpop_2_Guitar,6,4,DL_heartfullpop_2_Guitar,0.2619801461696625,0
65,100,0.17727272727272728,62,1,64,DL_heartfullpop_2_Guitar,6,3,DL_heartfullpop_2_Guitar,0.998228132724762,1
62,100,0.1590909090909091,176,0,64,DL_heartfullpop_2_Guitar,6,3,DL_heartfullpop_2_Guitar,0.03940204530954361,0
53,100,0.3,237,0,64,DL_heartfullpop_2_Guitar,6,5,DL_heartfullpop_2_Guitar,0.026854798197746277,0
62,100,0.5,316,0,64,DL_heartfullpop_2_Guitar,6,8,DL_heartfullpop_2_Guitar,0.01883102022111416,0
65,100,0.2590909090909091,430,0,64,DL_heartfullpop_2_Guitar,6,4,DL_heartfullpop_2_Guitar,0.013654503971338272,0
58,100,0.2,519,0,64,DL_heartfullpop_2_Guitar,6,3,DL_heartfullpop_2_Guitar,0.010812959633767605,0
53,100,0.3,619,0,64,DL_heartfullpop_2_Guitar,6,5,DL_heartfullpop_2_Guitar,0.010072988457977772,0
65,100,0.3,686,0,64,DL_heartfullpop_2_Guitar,6,5,DL_heartfullpop_2_Guitar,0.011716065928339958,0
53,100,0.32272727272727275,752,0,64,DL_heartfullpop_2_Guitar,6,5,DL_heartfullpop_2_Guitar,0.016991617158055305,0
65,100,0.21818181818181817,823,0,64,DL_heartfullpop_2_Guitar,6,3,DL_heartfullpop_2_Guitar,0.027578286826610565,0
53,100,0.35909090909090907,876,0,64,DL_heartfullpop_2_Guitar,6,6,DL_heartfullpop_2_Guitar,0.05459221825003624,0
65,100,0.4636363636363636,113,1,65,DL_heartfullpop_2_Guitar,6,7,DL_heartfullpop_2_Guitar,0.9983735084533691,1
53,100,0.5181818181818182,250,0,65,DL_heartfullpop_2_Guitar,6,8,DL_heartfullpop_2_Guitar,0.05104796215891838,0
53,100,0.32272727272727275,377,0,65,DL_heartfullpop_2_Guitar,6,5,DL_heartfullpop_2_Guitar,0.04161032661795616,0
58,100,0.3409090909090909,475,0,65,DL_heartfullpop_2_Guitar,6,5,DL_heartfullpop_2_Guitar,0.03797684609889984,0
65,100,0.11818181818181818,580,0,65,DL_heartfullpop_2_Guitar,6,2,DL_heartfullpop_2_Guitar,0.03925666585564613,0
53,100,0.42272727272727273,642,0,65,DL_heartfullpop_2_Guitar,6,7,DL_heartfullpop_2_Guitar,0.04616222530603409,0
53,100,0.2,773,0,65,DL_heartfullpop_2_Guitar,6,3,DL_heartfullpop_2_Guitar,0.05712839215993881,0
62,100,0.3,823,0,65,DL_heartfullpop_2_Guitar,6,5,DL_heartfullpop_2_Guitar,0.09187718480825424,0
53,100,0.11818181818181818,150,1,66,DL_heartfullpop_2_Guitar,6,2,DL_heartfullpop_2_Guitar,0.9986506104469299,1
60,100,0.35909090909090907,193,0,66,DL_heartfullpop_2_Guitar,6,6,DL_heartfullpop_2_Guitar,0.08797822892665863,0
53,100,0.4409090909090909,396,0,66,DL_heartfullpop_2_Guitar,6,7,DL_heartfullpop_2_Guitar,0.09298151731491089,0
53,100,0.1590909090909091,496,0,66,DL_heartfullpop_2_Guitar,6,3,DL_heartfullpop_2_Guitar,0.10994407534599304,0
53,100,0.1409090909090909,540,0,66,DL_heartfullpop_2_Guitar,6,2,DL_heartfullpop_2_Guitar,0.12866543233394623,0
60,100,0.8181818181818182,572,0,66,DL_heartfullpop_2_Guitar,6,13,DL_heartfullpop_2_Guitar,0.18220703303813934,0
53,100,0.1,56,1,67,DL_heartfullpop_2_Guitar,6,2,DL_heartfullpop_2_Guitar,0.9983735084533691,1
65,100,0.3409090909090909,100,0,67,DL_heartfullpop_2_Guitar,6,5,DL_heartfullpop_2_Guitar,0.05104875937104225,0
60,100,0.32272727272727275,179,0,67,DL_heartfullpop_2_Guitar,6,5,DL_heartfullpop_2_Guitar,0.041611772030591965,0
65,100,0.17727272727272728,260,0,67,DL_heartfullpop_2_Guitar,6,3,DL_heartfullpop_2_Guitar,0.0379776656627655,0
60,100,0.2,365,0,67,DL_heartfullpop_2_Guitar,6,3,DL_heartfullpop_2_Guitar,0.03925883024930954,0
60,100,0.7,413,0,67,DL_heartfullpop_2_Guitar,6,11,DL_heartfullpop_2_Guitar,0.046163566410541534,0
60,100,0.3,612,0,67,DL_heartfullpop_2_Guitar,6,5,DL_heartfullpop_2_Guitar,0.057129207998514175,0
65,100,0.3,832,0,67,DL_heartfullpop_2_Guitar,6,5,DL_heartfullpop_2_Guitar,0.09187772125005722,0
60,100,0.21818181818181817,30,1,68,DL_heartfullpop_2_Guitar,6,3,DL_heartfullpop_2_Guitar,0.9983736276626587,1
65,100,0.38181818181818183,113,0,68,DL_heartfullpop_2_Guitar,6,6,DL_heartfullpop_2_Guitar,0.05104902759194374,0
53,100,0.12272727272727273,202,0,68,DL_heartfullpop_2_Guitar,6,2,DL_heartfullpop_2_Guitar,0.04161171242594719,0
65,100,0.4,242,0,68,DL_heartfullpop_2_Guitar,6,6,DL_heartfullpop_2_Guitar,0.03797886520624161,0
60,100,0.5409090909090909,330,0,68,DL_heartfullpop_2_Guitar,6,9,DL_heartfullpop_2_Guitar,0.03925977647304535,0
65,100,0.3181818181818182,457,0,68,DL_heartfullpop_2_Guitar,6,5,DL_heartfullpop_2_Guitar,0.04616529121994972,0
60,100,0.7818181818181819,593,0,68,DL_heartfullpop_2_Guitar,6,13,DL_heartfullpop_2_Guitar,0.0571310892701149,0
53,100,0.9409090909090909,839,1,68,DL_heartfullpop_2_Guitar,6,15,DL_heartfullpop_2_Guitar,0.09187642484903336,0
65,100,0.2818181818181818,166,1,69,DL_heartfullpop_2_Guitar,6,5,DL_heartfullpop_2_Guitar,0.9986506104469299,1
53,100,0.11818181818181818,263,0,69,DL_heartfullpop_2_Guitar,6,2,DL_heartfullpop_2_Guitar,0.08797798305749893,0
53,100,0.1590909090909091,294,0,69,DL_heartfullpop_2_Guitar,6,3,DL_heartfullpop_2_Guitar,0.09298120439052582,0
53,100,0.2590909090909091,352,0,69,DL_heartfullpop_2_Guitar,6,4,DL_heartfullpop_2_Guitar,0.10994799435138702,0
53,100,0.3,496,0,69,DL_heartfullpop_2_Guitar,6,5,DL_heartfullpop_2_Guitar,0.1286693960428238,0
65,100,0.22272727272727272,563,0,69,DL_heartfullpop_2_Guitar,6,4,DL_heartfullpop_2_Guitar,0.182207852602005,0
60,100,0.1590909090909091,40,1,70,DL_heartfullpop_2_Guitar,6,3,DL_heartfullpop_2_Guitar,0.9982556700706482,1
60,100,0.11818181818181818,87,0,70,DL_heartfullpop_2_Guitar,6,2,DL_heartfullpop_2_Guitar,0.041292332112789154,0
53,100,0.2818181818181818,123,0,70,DL_heartfullpop_2_Guitar,6,5,DL_heartfullpop_2_Guitar,0.029123865067958832,0
65,100,0.3,330,0,70,DL_heartfullpop_2_Guitar,6,5,DL_heartfullpop_2_Guitar,0.02156822755932808,0
53,100,0.2818181818181818,396,0,70,DL_heartfullpop_2_Guitar,6,5,DL_heartfullpop_2_Guitar,0.0170578733086586,0
53,100,0.11818181818181818,470,0,70,DL_heartfullpop_2_Guitar,6,2,DL_heartfullpop_2_Guitar,0.01526680402457714,0
53,100,0.36363636363636365,509,0,70,DL_heartfullpop_2_Guitar,6,6,DL_heartfullpop_2_Guitar,0.01645440235733986,0
60,100,0.2409090909090909,597,0,70,DL_heartfullpop_2_Guitar,6,4,DL_heartfullpop_2_Guitar,0.021835561841726303,0
53,100,0.4772727272727273,656,0,70,DL_heartfullpop_2_Guitar,6,8,DL_heartfullpop_2_Guitar,0.0325150303542614,0
53,100,0.5772727272727273,766,0,70,DL_heartfullpop_2_Guitar,6,9,DL_heartfullpop_2_Guitar,0.060909003019332886,0
60,100,0.21818181818181817,40,1,71,DL_heartfullpop_2_Guitar,6,3,DL_heartfullpop_2_Guitar,0.9983004927635193,1
53,100,0.11818181818181818,106,0,71,DL_heartfullpop_2_Guitar,6,2,DL_heartfullpop_2_Guitar,0.04466190189123154,0
53,100,0.1409090909090909,157,0,71,DL_heartfullpop_2_Guitar,6,2,DL_heartfullpop_2_Guitar,0.03337157890200615,0
60,100,0.21818181818181817,197,0,71,DL_heartfullpop_2_Guitar,6,3,DL_heartfullpop_2_Guitar,0.026948565617203712,0
62,100,0.2590909090909091,276,0,71,DL_heartfullpop_2_Guitar,6,4,DL_heartfullpop_2_Guitar,0.024084394797682762,0
62,100,0.6181818181818182,339,0,71,DL_heartfullpop_2_Guitar,6,10,DL_heartfullpop_2_Guitar,0.024973556399345398,0
62,100,0.2590909090909091,480,0,71,DL_heartfullpop_2_Guitar,6,4,DL_heartfullpop_2_Guitar,0.03064907342195511,0
62,100,0.2409090909090909,603,0,71,DL_heartfullpop_2_Guitar,6,4,DL_heartfullpop_2_Guitar,0.04137004166841507,0
65,100,0.2590909090909091,870,1,71,DL_heartfullpop_2_Guitar,6,4,DL_heartfullpop_2_Guitar,0.07207300513982773,0
65,100,0.4409090909090909,69,1,72,DL_heartfullpop_2_Guitar,6,7,DL_heartfullpop_2_Guitar,0.9983735084533691,1
62,100,0.3,233,0,72,DL_heartfullpop_2_Guitar,6,5,DL_heartfullpop_2_Guitar,0.051050011068582535,0
65,100,0.17727272727272728,370,0,72,DL_heartfullpop_2_Guitar,6,3,DL_heartfullpop_2_Guitar,0.041612833738327026,0
62,100,0.36363636363636365,553,0,72,DL_heartfullpop_2_Guitar,6,6,DL_heartfullpop_2_Guitar,0.03798028081655502,0
65,100,0.3181818181818182,633,0,72,DL_heartfullpop_2_Guitar,6,5,DL_heartfullpop_2_Guitar,0.03926180675625801,0
53,100,0.2,716,0,72,DL_heartfullpop_2_Guitar,6,3,DL_heartfullpop_2_Guitar,0.04616624861955643,0
62,100,0.11818181818181818,823,0,72,DL_heartfullpop_2_Guitar,6,2,DL_heartfullpop_2_Guitar,0.05713357776403427,0
62,100,0.4,866,0,72,DL_heartfullpop_2_Guitar,6,6,DL_heartfullpop_2_Guitar,0.0918816551566124,0
57,100,0.1590909090909091,79,1,73,DL_heartfullpop_2_Guitar,6,3,DL_heartfullpop_2_Guitar,0.9986506104469299,1
65,100,0.1590909090909091,145,0,73,DL_heartfullpop_2_Guitar,6,3,DL_heartfullpop_2_Guitar,0.08797894418239594,0
57,100,0.13636363636363635,216,0,73,DL_heartfullpop_2_Guitar,6,2,DL_heartfullpop_2_Guitar,0.09298547357320786,0
65,100,0.2818181818181818,386,0,73,DL_heartfullpop_2_Guitar,6,5,DL_heartfullpop_2_Guitar,0.10994981229305267,0
62,100,0.12272727272727273,453,0,73,DL_heartfullpop_2_Guitar,6,2,DL_heartfullpop_2_Guitar,0.1286724954843521,0
53,100,0.18181818181818182,593,0,73,DL_heartfullpop_2_Guitar,6,3,DL_heartfullpop_2_Guitar,0.18222248554229736,0
60,100,0.32272727272727275,13,1,74,DL_heartfullpop_2_Guitar,6,5,DL_heartfullpop_2_Guitar,0.9983004927635193,1
53,100,0.2590909090909091,100,0,74,DL_heartfullpop_2_Guitar,6,4,DL_heartfullpop_2_Guitar,0.044660843908786774,0
53,100,0.35909090909090907,352,1,74,DL_heartfullpop_2_Guitar,6,6,DL_heartfullpop_2_Guitar,0.03336969390511513,0
53,100,0.2,436,0,74,DL_heartfullpop_2_Guitar,6,3,DL_heartfullpop_2_Guitar,0.02694658935070038,0
65,100,0.1,502,0,74,DL_heartfullpop_2_Guitar,6,2,DL_heartfullpop_2_Guitar,0.02408197894692421,0
65,100,0.1,536,0,74,DL_heartfullpop_2_Guitar,6,2,DL_heartfullpop_2_Guitar,0.02497124671936035,0
53,100,0.1409090909090909,619,0,74,DL_heartfullpop_2_Guitar,6,2,DL_heartfullpop_2_Guitar,0.030645105987787247,0
53,100,0.2,747,0,74,DL_heartfullpop_2_Guitar,6,3,DL_heartfullpop_2_Guitar,0.04136604815721512,0
60,100,0.2,849,0,74,DL_heartfullpop_2_Guitar,6,3,DL_heartfullpop_2_Guitar,0.07206613570451736,0
65,100,0.2,22,1,75,DL_heartfullpop_2_Guitar,6,3,DL_heartfullpop_2_Guitar,0.9983004927635193,1
53,100,0.2409090909090909,69,0,75,DL_heartfullpop_2_Guitar,6,4,DL_heartfullpop_2_Guitar,0.04466155543923378,0
60,100,0.41818181818181815,150,0,75,DL_heartfullpop_2_Guitar,6,7,DL_heartfullpop_2_Guitar,0.03337172418832779,0
60,100,0.4818181818181818,286,0,75,DL_heartfullpop_2_Guitar,6,8,DL_heartfullpop_2_Guitar,0.02694743126630783,0
65,100,0.3,392,0,75,DL_heartfullpop_2_Guitar,6,5,DL_heartfullpop_2_Guitar,0.02408262901008129,0
60,100,0.12272727272727273,466,0,75,DL_heartfullpop_2_Guitar,6,2,DL_heartfullpop_2_Guitar,0.024972867220640182,0
53,100,0.16363636363636364,509,0,75,DL_heartfullpop_2_Guitar,6,3,DL_heartfullpop_2_Guitar,0.030646417289972305,0
65,100,0.4409090909090909,597,0,75,DL_heartfullpop_2_Guitar,6,7,DL_heartfullpop_2_Guitar,0.04136856645345688,0
53,100,0.4409090909090909,844,1,75,DL_heartfullpop_2_Guitar,6,7,DL_heartfullpop_2_Guitar,0.07206714153289795,0
53,100,0.2590909090909091,83,1,76,DL_heartfullpop_2_Guitar,6,4,DL_heartfullpop_2_Guitar,0.9988439083099365,1
53,100,0.18181818181818182,176,0,76,DL_heartfullpop_2_Guitar,6,3,DL_heartfullpop_2_Guitar,0.1379782259464264,0
53,100,1.1,229,0,76,DL_heartfullpop_2_Guitar,6,15,DL_heartfullpop_2_Guitar,0.16235528886318207,0
60,100,0.1409090909090909,713,1,76,DL_heartfullpop_2_Guitar,6,2,DL_heartfullpop_2_Guitar,0.19106030464172363,0
53,100,0.23636363636363636,876,0,76,DL_heartfullpop_2_Guitar,6,4,DL_heartfullpop_2_Guitar,0.2619567811489105,0
53,100,0.5590909090909091,127,1,77,DL_heartfullpop_2_Guitar,6,9,DL_heartfullpop_2_Guitar,0.9986506104469299,1
60,100,0.1,413,1,77,DL_heartfullpop_2_Guitar,6,2,DL_heartfullpop_2_Guitar,0.08798062801361084,0
53,100,0.5,440,0,77,DL_heartfullpop_2_Guitar,6,8,DL_heartfullpop_2_Guitar,0.09298494458198547,0
53,100,0.18181818181818182,563,0,77,DL_heartfullpop_2_Guitar,6,3,DL_heartfullpop_2_Guitar,0.10994497686624527,0
65,100,0.11818181818181818,656,0,77,DL_heartfullpop_2_Guitar,6,2,DL_heartfullpop_2_Guitar,0.12866999208927155,0
60,100,0.3181818181818182,734,0,77,DL_heartfullpop_2_Guitar,6,5,DL_heartfullpop_2_Guitar,0.18221482634544373,0
53,100,0.12272727272727273,69,1,78,DL_heartfullpop_2_Guitar,6,2,DL_heartfullpop_2_Guitar,0.9983735084533691,1
60,100,0.11818181818181818,119,0,78,DL_heartfullpop_2_Guitar,6,2,DL_heartfullpop_2_Guitar,0.05104983225464821,0
53,100,0.8772727272727273,273,0,78,DL_heartfullpop_2_Guitar,6,14,DL_heartfullpop_2_Guitar,0.0416102297604084,0
65,100,0.22272727272727272,532,1,78,DL_heartfullpop_2_Guitar,6,4,DL_heartfullpop_2_Guitar,0.03797827661037445,0
65,100,0.36363636363636365,597,0,78,DL_heartfullpop_2_Guitar,6,6,DL_heartfullpop_2_Guitar,0.03925824910402298,0
65,100,0.18181818181818182,682,0,78,DL_heartfullpop_2_Guitar,6,3,DL_heartfullpop_2_Guitar,0.046162962913513184,0
53,100,0.1,722,0,78,DL_heartfullpop_2_Guitar,6,2,DL_heartfullpop_2_Guitar,0.05712876468896866,0
65,100,0.3,743,0,78,DL_heartfullpop_2_Guitar,6,5,DL_heartfullpop_2_Guitar,0.09187428653240204,0
53,100,0.1,110,1,79,DL_heartfullpop_2_Guitar,6,2,DL_heartfullpop_2_Guitar,0.9990280866622925,1
55,100,0.21818181818181817,457,1,79,DL_heartfullpop_2_Guitar,6,3,DL_heartfullpop_2_Guitar,0.3703518211841583,0
55,100,1.3,673,0,79,DL_heartfullpop_2_Guitar,6,15,DL_heartfullpop_2_Guitar,0.4561566114425659,0
55,100,0.42272727272727273,453,1,80,DL_heartfullpop_2_Guitar,6,7,DL_heartfullpop_2_Guitar,0.9990280866622925,1
53,100,0.1409090909090909,637,0,80,DL_heartfullpop_2_Guitar,6,2,DL_heartfullpop_2_Guitar,0.3703388273715973,0
65,100,0.38181818181818183,673,0,80,DL_heartfullpop_2_Guitar,6,6,DL_heartfullpop_2_Guitar,0.4561684727668762,0
53,100,0.11818181818181818,153,1,81,DL_heartfullpop_2_Guitar,6,2,DL_heartfullpop_2_Guitar,0.9990280866622925,1
65,100,0.12272727272727273,532,1,81,DL_heartfullpop_2_Guitar,6,2,DL_heartfullpop_2_Guitar,0.37033677101135254,0
62,100,0.1,743,0,81,DL_heartfullpop_2_Guitar,6,2,DL_heartfullpop_2_Guitar,0.4561697542667389,0
53,100,0.13636363636363635,303,1,82,DL_heartfullpop_2_Guitar,6,2,DL_heartfullpop_2_Guitar,0.9792227745056152,1
55,100,0.1,197,1,84,DL_heartfullpop_2_Guitar,6,2,DL_heartfullpop_2_Guitar,0.9990280866622925,1
60,100,0.1409090909090909,426,0,84,DL_heartfullpop_2_Guitar,6,2,DL_heartfullpop_2_Guitar,0.3703482151031494,0
60,100,1.8772727272727272,480,0,84,DL_heartfullpop_2_Guitar,6,15,DL_heartfullpop_2_Guitar,0.45616331696510315,0
53,100,0.1,330,1,85,DL_heartfullpop_2_Guitar,6,2,DL_heartfullpop_2_Guitar,0.9986506104469299,1
53,100,0.2772727272727273,392,0,85,DL_heartfullpop_2_Guitar,6,4,DL_heartfullpop_2_Guitar,0.08797862380743027,0
53,100,0.3,462,0,85,DL_heartfullpop_2_Guitar,6,5,DL_heartfullpop_2_Guitar,0.09298434853553772,0
53,100,0.2772727272727273,567,0,85,DL_heartfullpop_2_Guitar,6,4,DL_heartfullpop_2_Guitar,0.1099487692117691,0
53,100,0.2409090909090909,800,1,85,DL_heartfullpop_2_Guitar,6,4,DL_heartfullpop_2_Guitar,0.12866893410682678,0
57,100,0.1,866,0,85,DL_heartfullpop_2_Guitar,6,2,DL_heartfullpop_2_Guitar,0.18221744894981384,0
60,100,0.17727272727272728,273,1,86,DL_heartfullpop_2_Guitar,6,3,DL_heartfullpop_2_Guitar,0.9986506104469299,1
60,100,0.18181818181818182,320,0,86,DL_heartfullpop_2_Guitar,6,3,DL_heartfullpop_2_Guitar,0.08798114210367203,0
60,100,0.4,392,0,86,DL_heartfullpop_2_Guitar,6,6,DL_heartfullpop_2_Guitar,0.09298378229141235,0
53,100,0.3181818181818182,480,0,86,DL_heartfullpop_2_Guitar,6,5,DL_heartfullpop_2_Guitar,0.10995084047317505,0
60,100,0.2409090909090909,559,0,86,DL_heartfullpop_2_Guitar,6,4,DL_heartfullpop_2_Guitar,0.1286722868680954,0
60,100,0.2772727272727273,844,1,86,DL_heartfullpop_2_Guitar,6,4,DL_heartfullpop_2_Guitar,0.1822192668914795,0
60,100,0.2,30,1,87,DL_heartfullpop_2_Guitar,6,3,DL_heartfullpop_2_Guitar,0.9990094900131226,1
60,100,0.11818181818181818,87,0,87,DL_heartfullpop_2_Guitar,6,2,DL_heartfullpop_2_Guitar,0.23322927951812744,0
60,100,0.11818181818181818,197,0,87,DL_heartfullpop_2_Guitar,6,2,DL_heartfullpop_2_Guitar,0.2705843448638916,0
53,100,0.8590909090909091,703,1,87,DL_heartfullpop_2_Guitar,6,14,DL_heartfullpop_2_Guitar,0.35792261362075806,0
65,100,0.42272727272727273,13,1,88,DL_heartfullpop_2_Guitar,6,7,DL_heartfullpop_2_Guitar,0.9983735084533691,1
53,100,0.21818181818181817,140,0,88,DL_heartfullpop_2_Guitar,6,3,DL_heartfullpop_2_Guitar,0.0510491207242012,0
53,100,0.1409090909090909,202,0,88,DL_heartfullpop_2_Guitar,6,2,DL_heartfullpop_2_Guitar,0.041610781103372574,0
65,100,0.1590909090909091,260,0,88,DL_heartfullpop_2_Guitar,6,3,DL_heartfullpop_2_Guitar,0.03797776997089386,0
65,100,0.17727272727272728,413,0,88,DL_heartfullpop_2_Guitar,6,3,DL_heartfullpop_2_Guitar,0.03925811126828194,0
53,100,0.21818181818181817,480,0,88,DL_heartfullpop_2_Guitar,6,3,DL_heartfullpop_2_Guitar,0.04616273194551468,0
62,100,0.11818181818181818,580,0,88,DL_heartfullpop_2_Guitar,6,2,DL_heartfullpop_2_Guitar,0.0571274533867836,0
65,100,0.18181818181818182,673,0,88,DL_heartfullpop_2_Guitar,6,3,DL_heartfullpop_2_Guitar,0.09187431633472443,0
60,100,0.2409090909090909,35,1,89,DL_heartfullpop_2_Guitar,6,4,DL_heartfullpop_2_Guitar,0.9983004927635193,1
65,100,0.6818181818181818,87,0,89,DL_heartfullpop_2_Guitar,6,11,DL_heartfullpop_2_Guitar,0.04466165974736214,0
53,100,0.13636363636363635,282,0,89,DL_heartfullpop_2_Guitar,6,2,DL_heartfullpop_2_Guitar,0.03337103873491287,0
60,100,0.6590909090909091,370,0,89,DL_heartfullpop_2_Guitar,6,11,DL_heartfullpop_2_Guitar,0.02694820426404476,0
60,100,0.35909090909090907,536,0,89,DL_heartfullpop_2_Guitar,6,6,DL_heartfullpop_2_Guitar,0.024083346128463745,0
65,100,0.4636363636363636,619,0,89,DL_heartfullpop_2_Guitar,6,7,DL_heartfullpop_2_Guitar,0.024971047416329384,0
60,100,0.11818181818181818,792,0,89,DL_heartfullpop_2_Guitar,6,2,DL_heartfullpop_2_Guitar,0.030646495521068573,0
65,100,0.1,832,0,89,DL_heartfullpop_2_Guitar,6,2,DL_heartfullpop_2_Guitar,0.041366469115018845,0
53,100,0.1590909090909091,866,0,89,DL_heartfullpop_2_Guitar,6,3,DL_heartfullpop_2_Guitar,0.07206467539072037,0
60,100,1.2227272727272727,123,1,90,DL_heartfullpop_2_Guitar,6,15,DL_heartfullpop_2_Guitar,0.9990280866622925,1
60,100,1.1818181818181819,506,1,90,DL_heartfullpop_2_Guitar,6,15,DL_heartfullpop_2_Guitar,0.37034153938293457,0
65,100,0.41818181818181815,792,1,90,DL_heartfullpop_2_Guitar,6,7,DL_heartfullpop_2_Guitar,0.45616525411605835,0
65,100,0.1590909090909091,56,1,91,DL_heartfullpop_2_Guitar,6,3,DL_heartfullpop_2_Guitar,0.9982556700706482,1
60,100,0.1409090909090909,100,0,91,DL_heartfullpop_2_Guitar,6,2,DL_heartfullpop_2_Guitar,0.04129176586866379,0
65,100,0.18181818181818182,179,0,91,DL_heartfullpop_2_Guitar,6,3,DL_heartfullpop_2_Guitar,0.029123099520802498,0
53,100,0.11818181818181818,220,0,91,DL_heartfullpop_2_Guitar,6,2,DL_heartfullpop_2_Guitar,0.021567203104496002,0
53,100,0.6181818181818182,273,0,91,DL_heartfullpop_2_Guitar,6,10,DL_heartfullpop_2_Guitar,0.017057329416275024,0
53,100,0.2590909090909091,426,0,91,DL_heartfullpop_2_Guitar,6,4,DL_heartfullpop_2_Guitar,0.015266654081642628,0
53,100,0.38181818181818183,519,0,91,DL_heartfullpop_2_Guitar,6,6,DL_heartfullpop_2_Guitar,0.016454055905342102,0
53,100,0.23636363636363636,633,0,91,DL_heartfullpop_2_Guitar,6,4,DL_heartfullpop_2_Guitar,0.021835077553987503,0
53,100,0.3409090909090909,695,0,91,DL_heartfullpop_2_Guitar,6,5,DL_heartfullpop_2_Guitar,0.03251536563038826,0
53,100,0.32272727272727275,870,0,91,DL_heartfullpop_2_Guitar,6,5,DL_heartfullpop_2_Guitar,0.06090805307030678,0
53,100,0.1409090909090909,92,1,92,DL_heartfullpop_2_Guitar,6,2,DL_heartfullpop_2_Guitar,0.9986506104469299,1
53,100,0.759090909090909,172,0,92,DL_heartfullpop_2_Guitar,6,12,DL_heartfullpop_2_Guitar,0.08797846734523773,0
53,100,0.16363636363636364,399,0,92,DL_heartfullpop_2_Guitar,6,3,DL_heartfullpop_2_Guitar,0.0929826945066452,0
53,100,0.38181818181818183,440,0,92,DL_heartfullpop_2_Guitar,6,6,DL_heartfullpop_2_Guitar,0.1099470853805542,0
53,100,0.12272727272727273,629,0,92,DL_heartfullpop_2_Guitar,6,2,DL_heartfullpop_2_Guitar,0.1286650002002716,0
53,100,0.6,826,0,92,DL_heartfullpop_2_Guitar,6,10,DL_heartfullpop_2_Guitar,0.18220637738704681,0
53,100,0.3,399,1,93,DL_heartfullpop_2_Guitar,6,5,DL_heartfullpop_2_Guitar,0.979223370552063,1
53,100,0.09090909090909091,469,1,0,_Heartfelt_folk-pop-rock_Guitar_1,6,1,_Heartfelt_folk-pop-rock_Guitar_1,0.9990280866622925,1
57,100,0.2409090909090909,562,0,0,_Heartfelt_folk-pop-rock_Guitar_1,6,4,_Heartfelt_folk-pop-rock_Guitar_1,0.37034299969673157,0
53,100,0.4409090909090909,704,0,0,_Heartfelt_folk-pop-rock_Guitar_1,6,7,_Heartfelt_folk-pop-rock_Guitar_1,0.4561767578125,0
53,100,0.5681818181818182,114,1,1,_Heartfelt_folk-pop-rock_Guitar_1,6,9,_Heartfelt_folk-pop-rock_Guitar_1,0.9990094900131226,1
53,100,0.20454545454545456,259,0,1,_Heartfelt_folk-pop-rock_Guitar_1,6,3,_Heartfelt_folk-pop-rock_Guitar_1,0.23322637379169464,0
53,100,0.5318181818181819,398,0,1,_Heartfelt_folk-pop-rock_Guitar_1,6,9,_Heartfelt_folk-pop-rock_Guitar_1,0.2705792784690857,0
55,100,0.2590909090909091,539,0,1,_Heartfelt_folk-pop-rock_Guitar_1,6,4,_Heartfelt_folk-pop-rock_Guitar_1,0.3579220175743103,0
53,100,0.31363636363636366,79,1,2,_Heartfelt_folk-pop-rock_Guitar_1,6,5,_Heartfelt_folk-pop-rock_Guitar_1,0.9988439083099365,1
55,100,0.2,234,0,2,_Heartfelt_folk-pop-rock_Guitar_1,6,3,_Heartfelt_folk-pop-rock_Guitar_1,0.13798223435878754,0
53,100,0.20454545454545456,375,0,2,_Heartfelt_folk-pop-rock_Guitar_1,6,3,_Heartfelt_folk-pop-rock_Guitar_1,0.16236335039138794,0
53,100,0.16363636363636364,424,0,2,_Heartfelt_folk-pop-rock_Guitar_1,6,3,_Heartfelt_folk-pop-rock_Guitar_1,0.19105754792690277,0
53,100,0.29545454545454547,657,1,2,_Heartfelt_folk-pop-rock_Guitar_1,6,5,_Heartfelt_folk-pop-rock_Guitar_1,0.26196223497390747,0
57,100,0.23636363636363636,171,1,3,_Heartfelt_folk-pop-rock_Guitar_1,6,4,_Heartfelt_folk-pop-rock_Guitar_1,0.9988439083099365,1
57,100,0.5681818181818182,376,0,3,_Heartfelt_folk-pop-rock_Guitar_1,6,9,_Heartfelt_folk-pop-rock_Guitar_1,0.13798312842845917,0
55,100,0.22272727272727272,513,0,3,_Heartfelt_folk-pop-rock_Guitar_1,6,4,_Heartfelt_folk-pop-rock_Guitar_1,0.1623685359954834,0
53,100,0.31363636363636366,567,0,3,_Heartfelt_folk-pop-rock_Guitar_1,6,5,_Heartfelt_folk-pop-rock_Guitar_1,0.1910599172115326,0
55,100,0.31363636363636366,651,0,3,_Heartfelt_folk-pop-rock_Guitar_1,6,5,_Heartfelt_folk-pop-rock_Guitar_1,0.26196759939193726,0
55,100,0.22272727272727272,67,1,4,_Heartfelt_folk-pop-rock_Guitar_1,6,4,_Heartfelt_folk-pop-rock_Guitar_1,0.9984879493713379,1
55,100,0.2909090909090909,208,0,4,_Heartfelt_folk-pop-rock_Guitar_1,6,5,_Heartfelt_folk-pop-rock_Guitar_1,0.06335287541151047,0
53,100,0.10909090909090909,407,0,4,_Heartfelt_folk-pop-rock_Guitar_1,6,2,_Heartfelt_folk-pop-rock_Guitar_1,0.058287907391786575,0
60,100,0.10909090909090909,495,0,4,_Heartfelt_folk-pop-rock_Guitar_1,6,2,_Heartfelt_folk-pop-rock_Guitar_1,0.0613621324300766,0
57,100,0.10909090909090909,597,0,4,_Heartfelt_folk-pop-rock_Guitar_1,6,2,_Heartfelt_folk-pop-rock_Guitar_1,0.07168318331241608,0
57,100,0.38636363636363635,682,0,4,_Heartfelt_folk-pop-rock_Guitar_1,6,6,_Heartfelt_folk-pop-rock_Guitar_1,0.0847356989979744,0
55,100,0.33181818181818185,856,0,4,_Heartfelt_folk-pop-rock_Guitar_1,6,5,_Heartfelt_folk-pop-rock_Guitar_1,0.12635280191898346,0
55,100,0.4409090909090909,85,1,5,_Heartfelt_folk-pop-rock_Guitar_1,6,7,_Heartfelt_folk-pop-rock_Guitar_1,0.9983004927635193,1
53,100,0.6954545454545454,258,0,5,_Heartfelt_folk-pop-rock_Guitar_1,6,11,_Heartfelt_folk-pop-rock_Guitar_1,0.044661082327365875,0
53,100,0.16818181818181818,481,0,5,_Heartfelt_folk-pop-rock_Guitar_1,6,3,_Heartfelt_folk-pop-rock_Guitar_1,0.033370863646268845,0
53,100,0.10909090909090909,521,0,5,_Heartfelt_folk-pop-rock_Guitar_1,6,2,_Heartfelt_folk-pop-rock_Guitar_1,0.026946740224957466,0
53,100,0.14545454545454545,557,0,5,_Heartfelt_folk-pop-rock_Guitar_1,6,2,_Heartfelt_folk-pop-rock_Guitar_1,0.024082988500595093,0
53,100,0.38636363636363635,611,0,5,_Heartfelt_folk-pop-rock_Guitar_1,6,6,_Heartfelt_folk-pop-rock_Guitar_1,0.024970833212137222,0
53,100,0.2727272727272727,700,0,5,_Heartfelt_folk-pop-rock_Guitar_1,6,4,_Heartfelt_folk-pop-rock_Guitar_1,0.03064630925655365,0
53,100,0.15,768,0,5,_Heartfelt_folk-pop-rock_Guitar_1,6,2,_Heartfelt_folk-pop-rock_Guitar_1,0.04136665537953377,0
53,100,0.18181818181818182,805,0,5,_Heartfelt_folk-pop-rock_Guitar_1,6,3,_Heartfelt_folk-pop-rock_Guitar_1,0.07206790149211884,0
53,100,0.2772727272727273,73,1,6,_Heartfelt_folk-pop-rock_Guitar_1,6,4,_Heartfelt_folk-pop-rock_Guitar_1,0.9990094900131226,1
53,100,0.10909090909090909,236,0,6,_Heartfelt_folk-pop-rock_Guitar_1,6,2,_Heartfelt_folk-pop-rock_Guitar_1,0.23322685062885284,0
57,100,0.6045454545454545,312,0,6,_Heartfelt_folk-pop-rock_Guitar_1,6,10,_Heartfelt_folk-pop-rock_Guitar_1,0.2705767750740051,0
53,100,0.42727272727272725,813,1,6,_Heartfelt_folk-pop-rock_Guitar_1,6,7,_Heartfelt_folk-pop-rock_Guitar_1,0.35792824625968933,0
53,100,0.2,72,1,7,_Heartfelt_folk-pop-rock_Guitar_1,6,3,_Heartfelt_folk-pop-rock_Guitar_1,0.9984879493713379,1
53,100,0.4409090909090909,136,0,7,_Heartfelt_folk-pop-rock_Guitar_1,6,7,_Heartfelt_folk-pop-rock_Guitar_1,0.06335239112377167,0
53,100,0.14545454545454545,330,0,7,_Heartfelt_folk-pop-rock_Guitar_1,6,2,_Heartfelt_folk-pop-rock_Guitar_1,0.05828848108649254,0
60,100,0.23636363636363636,501,0,7,_Heartfelt_folk-pop-rock_Guitar_1,6,4,_Heartfelt_folk-pop-rock_Guitar_1,0.06136142089962959,0
55,100,0.16363636363636364,602,0,7,_Heartfelt_folk-pop-rock_Guitar_1,6,3,_Heartfelt_folk-pop-rock_Guitar_1,0.07168015092611313,0
65,100,0.15,734,0,7,_Heartfelt_folk-pop-rock_Guitar_1,6,2,_Heartfelt_folk-pop-rock_Guitar_1,0.08473129570484161,0
55,100,0.09090909090909091,771,0,7,_Heartfelt_folk-pop-rock_Guitar_1,6,1,_Heartfelt_folk-pop-rock_Guitar_1,0.12634916603565216,0
53,100,0.14545454545454545,8,1,8,_Heartfelt_folk-pop-rock_Guitar_1,6,2,_Heartfelt_folk-pop-rock_Guitar_1,0.9984879493713379,1
53,100,0.2409090909090909,194,0,8,_Heartfelt_folk-pop-rock_Guitar_1,6,4,_Heartfelt_folk-pop-rock_Guitar_1,0.06335248053073883,0
53,100,0.2727272727272727,259,0,8,_Heartfelt_folk-pop-rock_Guitar_1,6,4,_Heartfelt_folk-pop-rock_Guitar_1,0.05828762799501419,0
60,100,0.31363636363636366,331,0,8,_Heartfelt_folk-pop-rock_Guitar_1,6,5,_Heartfelt_folk-pop-rock_Guitar_1,0.06135930120944977,0
63,100,0.21818181818181817,438,0,8,_Heartfelt_folk-pop-rock_Guitar_1,6,3,_Heartfelt_folk-pop-rock_Guitar_1,0.0716804787516594,0
53,100,0.09090909090909091,575,0,8,_Heartfelt_folk-pop-rock_Guitar_1,6,1,_Heartfelt_folk-pop-rock_Guitar_1,0.08473314344882965,0
55,100,0.16363636363636364,620,0,8,_Heartfelt_folk-pop-rock_Guitar_1,6,3,_Heartfelt_folk-pop-rock_Guitar_1,0.12635023891925812,0
53,100,0.12727272727272726,221,1,9,_Heartfelt_folk-pop-rock_Guitar_1,6,2,_Heartfelt_folk-pop-rock_Guitar_1,0.9990094900131226,1
53,100,0.09090909090909091,252,0,9,_Heartfelt_folk-pop-rock_Guitar_1,6,1,_Heartfelt_folk-pop-rock_Guitar_1,0.23322373628616333,0
53,100,0.2,605,1,9,_Heartfelt_folk-pop-rock_Guitar_1,6,3,_Heartfelt_folk-pop-rock_Guitar_1,0.2705742418766022,0
60,100,0.09545454545454546,737,0,9,_Heartfelt_folk-pop-rock_Guitar_1,6,2,_Heartfelt_folk-pop-rock_Guitar_1,0.3579271137714386,0
53,100,0.10909090909090909,453,1,10,_Heartfelt_folk-pop-rock_Guitar_1,6,2,_Heartfelt_folk-pop-rock_Guitar_1,0.9986506104469299,1
53,100,0.10909090909090909,513,0,10,_Heartfelt_folk-pop-rock_Guitar_1,6,2,_Heartfelt_folk-pop-rock_Guitar_1,0.08797800540924072,0
53,100,0.1318181818181818,570,0,10,_Heartfelt_folk-pop-rock_Guitar_1,6,2,_Heartfelt_folk-pop-rock_Guitar_1,0.09298337996006012,0
58,100,0.10909090909090909,622,0,10,_Heartfelt_folk-pop-rock_Guitar_1,6,2,_Heartfelt_folk-pop-rock_Guitar_1,0.10994816571474075,0
60,100,0.09090909090909091,728,0,10,_Heartfelt_folk-pop-rock_Guitar_1,6,1,_Heartfelt_folk-pop-rock_Guitar_1,0.12866900861263275,0
60,100,0.2545454545454545,780,0,10,_Heartfelt_folk-pop-rock_Guitar_1,6,4,_Heartfelt_folk-pop-rock_Guitar_1,0.18221285939216614,0
55,100,0.16363636363636364,41,1,11,_Heartfelt_folk-pop-rock_Guitar_1,6,3,_Heartfelt_folk-pop-rock_Guitar_1,0.9983231425285339,1
65,100,0.5909090909090909,77,0,11,_Heartfelt_folk-pop-rock_Guitar_1,6,9,_Heartfelt_folk-pop-rock_Guitar_1,0.5462071299552917,1
60,100,0.16363636363636364,56,1,12,_Heartfelt_folk-pop-rock_Guitar_1,6,3,_Heartfelt_folk-pop-rock_Guitar_1,0.9984879493713379,1
60,100,0.21818181818181817,335,1,12,_Heartfelt_folk-pop-rock_Guitar_1,6,3,_Heartfelt_folk-pop-rock_Guitar_1,0.06335306912660599,0
60,100,0.42272727272727273,386,0,12,_Heartfelt_folk-pop-rock_Guitar_1,6,7,_Heartfelt_folk-pop-rock_Guitar_1,0.05828898772597313,0
60,100,0.4954545454545455,512,0,12,_Heartfelt_folk-pop-rock_Guitar_1,6,8,_Heartfelt_folk-pop-rock_Guitar_1,0.06136205419898033,0
55,100,0.16818181818181818,637,0,12,_Heartfelt_folk-pop-rock_Guitar_1,6,3,_Heartfelt_folk-pop-rock_Guitar_1,0.07168172299861908,0
53,100,0.6409090909090909,691,0,12,_Heartfelt_folk-pop-rock_Guitar_1,6,10,_Heartfelt_folk-pop-rock_Guitar_1,0.08473573625087738,0
53,100,0.20454545454545456,852,0,12,_Heartfelt_folk-pop-rock_Guitar_1,6,3,_Heartfelt_folk-pop-rock_Guitar_1,0.12635232508182526,0
53,100,0.09090909090909091,29,1,13,_Heartfelt_folk-pop-rock_Guitar_1,6,1,_Heartfelt_folk-pop-rock_Guitar_1,0.9984879493713379,1
60,100,0.36818181818181817,110,0,13,_Heartfelt_folk-pop-rock_Guitar_1,6,6,_Heartfelt_folk-pop-rock_Guitar_1,0.06335488706827164,0
57,100,0.14545454545454545,280,0,13,_Heartfelt_folk-pop-rock_Guitar_1,6,2,_Heartfelt_folk-pop-rock_Guitar_1,0.05828922986984253,0
62,100,0.31363636363636366,316,0,13,_Heartfelt_folk-pop-rock_Guitar_1,6,5,_Heartfelt_folk-pop-rock_Guitar_1,0.061362504959106445,0
53,100,0.10909090909090909,539,0,13,_Heartfelt_folk-pop-rock_Guitar_1,6,2,_Heartfelt_folk-pop-rock_Guitar_1,0.07168332487344742,0
60,100,0.6454545454545455,599,0,13,_Heartfelt_folk-pop-rock_Guitar_1,6,10,_Heartfelt_folk-pop-rock_Guitar_1,0.08473733067512512,0
57,100,0.6454545454545455,749,0,13,_Heartfelt_folk-pop-rock_Guitar_1,6,10,_Heartfelt_folk-pop-rock_Guitar_1,0.12634864449501038,0
55,100,0.36818181818181817,228,1,14,_Heartfelt_folk-pop-rock_Guitar_1,6,6,_Heartfelt_folk-pop-rock_Guitar_1,0.9988439083099365,1
55,100,0.2545454545454545,314,0,14,_Heartfelt_folk-pop-rock_Guitar_1,6,4,_Heartfelt_folk-pop-rock_Guitar_1,0.1379859447479248,0
60,100,0.2772727272727273,410,0,14,_Heartfelt_folk-pop-rock_Guitar_1,6,4,_Heartfelt_folk-pop-rock_Guitar_1,0.16236582398414612,0
64,100,0.2590909090909091,737,1,14,_Heartfelt_folk-pop-rock_Guitar_1,6,4,_Heartfelt_folk-pop-rock_Guitar_1,0.19106289744377136,0
55,100,0.2727272727272727,835,0,14,_Heartfelt_folk-pop-rock_Guitar_1,6,4,_Heartfelt_folk-pop-rock_Guitar_1,0.26196351647377014,0
53,100,0.12727272727272726,77,1,15,_Heartfelt_folk-pop-rock_Guitar_1,6,2,_Heartfelt_folk-pop-rock_Guitar_1,0.9983004927635193,1
55,100,0.21818181818181817,149,0,15,_Heartfelt_folk-pop-rock_Guitar_1,6,3,_Heartfelt_folk-pop-rock_Guitar_1,0.04466235265135765,0
53,100,0.20454545454545456,206,0,15,_Heartfelt_folk-pop-rock_Guitar_1,6,3,_Heartfelt_folk-pop-rock_Guitar_1,0.033371198922395706,0
62,100,0.09090909090909091,278,0,15,_Heartfelt_folk-pop-rock_Guitar_1,6,1,_Heartfelt_folk-pop-rock_Guitar_1,0.02694743126630783,0
62,100,0.2772727272727273,371,0,15,_Heartfelt_folk-pop-rock_Guitar_1,6,4,_Heartfelt_folk-pop-rock_Guitar_1,0.02408401481807232,0
57,100,0.6272727272727273,489,0,15,_Heartfelt_folk-pop-rock_Guitar_1,6,10,_Heartfelt_folk-pop-rock_Guitar_1,0.024973081424832344,0
65,100,0.12727272727272726,651,0,15,_Heartfelt_folk-pop-rock_Guitar_1,6,2,_Heartfelt_folk-pop-rock_Guitar_1,0.030648624524474144,0
65,100,0.14545454545454545,711,0,15,_Heartfelt_folk-pop-rock_Guitar_1,6,2,_Heartfelt_folk-pop-rock_Guitar_1,0.04136962816119194,0
60,100,0.12727272727272726,837,0,15,_Heartfelt_folk-pop-rock_Guitar_1,6,2,_Heartfelt_folk-pop-rock_Guitar_1,0.07207005470991135,0
53,100,0.14545454545454545,305,1,16,_Heartfelt_folk-pop-rock_Guitar_1,6,2,_Heartfelt_folk-pop-rock_Guitar_1,0.9983232617378235,1
53,100,0.14545454545454545,632,1,16,_Heartfelt_folk-pop-rock_Guitar_1,6,2,_Heartfelt_folk-pop-rock_Guitar_1,0.5462141633033752,1
53,100,0.14545454545454545,718,1,17,_Heartfelt_folk-pop-rock_Guitar_1,6,2,_Heartfelt_folk-pop-rock_Guitar_1,0.9990280866622925,1
65,100,0.2409090909090909,750,0,17,_Heartfelt_folk-pop-rock_Guitar_1,6,4,_Heartfelt_folk-pop-rock_Guitar_1,0.3703344464302063,0
55,100,0.31363636363636366,828,0,17,_Heartfelt_folk-pop-rock_Guitar_1,6,5,_Heartfelt_folk-pop-rock_Guitar_1,0.45616158843040466,0
53,100,0.12727272727272726,20,1,18,_Heartfelt_folk-pop-rock_Guitar_1,6,2,_Heartfelt_folk-pop-rock_Guitar_1,0.9990280866622925,1
53,100,0.2772727272727273,57,0,18,_Heartfelt_folk-pop-rock_Guitar_1,6,4,_Heartfelt_folk-pop-rock_Guitar_1,0.37033337354660034,0
53,100,0.20454545454545456,388,1,18,_Heartfelt_folk-pop-rock_Guitar_1,6,3,_Heartfelt_folk-pop-rock_Guitar_1,0.4561694264411926,0
53,100,0.10909090909090909,512,1,22,_Heartfelt_folk-pop-rock_Guitar_1,6,2,_Heartfelt_folk-pop-rock_Guitar_1,0.9990280866622925,1
53,100,0.4409090909090909,649,0,22,_Heartfelt_folk-pop-rock_Guitar_1,6,7,_Heartfelt_folk-pop-rock_Guitar_1,0.37033048272132874,0
53,100,0.2590909090909091,759,0,22,_Heartfelt_folk-pop-rock_Guitar_1,6,4,_Heartfelt_folk-pop-rock_Guitar_1,0.4561687707901001,0
53,100,0.2590909090909091,130,1,23,_Heartfelt_folk-pop-rock_Guitar_1,6,4,_Heartfelt_folk-pop-rock_Guitar_1,0.9986507296562195,1
55,100,0.29545454545454547,219,0,23,_Heartfelt_folk-pop-rock_Guitar_1,6,5,_Heartfelt_folk-pop-rock_Guitar_1,0.0879829004406929,0
55,100,0.2,437,0,23,_Heartfelt_folk-pop-rock_Guitar_1,6,3,_Heartfelt_folk-pop-rock_Guitar_1,0.09298695623874664,0
55,100,0.18181818181818182,636,0,23,_Heartfelt_folk-pop-rock_Guitar_1,6,3,_Heartfelt_folk-pop-rock_Guitar_1,0.10995502769947052,0
55,100,0.23636363636363636,717,0,23,_Heartfelt_folk-pop-rock_Guitar_1,6,4,_Heartfelt_folk-pop-rock_Guitar_1,0.1286725103855133,0
57,100,0.18181818181818182,805,0,23,_Heartfelt_folk-pop-rock_Guitar_1,6,3,_Heartfelt_folk-pop-rock_Guitar_1,0.18221788108348846,0
57,100,0.18636363636363637,264,1,24,_Heartfelt_folk-pop-rock_Guitar_1,6,3,_Heartfelt_folk-pop-rock_Guitar_1,0.9984879493713379,1
57,100,0.31363636363636366,337,0,24,_Heartfelt_folk-pop-rock_Guitar_1,6,5,_Heartfelt_folk-pop-rock_Guitar_1,0.0633535385131836,0
57,100,0.14545454545454545,415,0,24,_Heartfelt_folk-pop-rock_Guitar_1,6,2,_Heartfelt_folk-pop-rock_Guitar_1,0.05828920379281044,0
53,100,0.6818181818181818,528,0,24,_Heartfelt_folk-pop-rock_Guitar_1,6,11,_Heartfelt_folk-pop-rock_Guitar_1,0.061359748244285583,0
53,100,0.12727272727272726,755,0,24,_Heartfelt_folk-pop-rock_Guitar_1,6,2,_Heartfelt_folk-pop-rock_Guitar_1,0.07168202847242355,0
53,100,0.15,822,0,24,_Heartfelt_folk-pop-rock_Guitar_1,6,2,_Heartfelt_folk-pop-rock_Guitar_1,0.08473321050405502,0
53,100,0.38636363636363635,859,0,24,_Heartfelt_folk-pop-rock_Guitar_1,6,6,_Heartfelt_folk-pop-rock_Guitar_1,0.12634694576263428,0
53,100,0.5863636363636363,174,1,25,_Heartfelt_folk-pop-rock_Guitar_1,6,9,_Heartfelt_folk-pop-rock_Guitar_1,0.9986506104469299,1
53,100,0.4818181818181818,310,0,25,_Heartfelt_folk-pop-rock_Guitar_1,6,8,_Heartfelt_folk-pop-rock_Guitar_1,0.08797942101955414,0
53,100,0.2727272727272727,429,0,25,_Heartfelt_folk-pop-rock_Guitar_1,6,4,_Heartfelt_folk-pop-rock_Guitar_1,0.09298434853553772,0
53,100,0.12727272727272726,526,0,25,_Heartfelt_folk-pop-rock_Guitar_1,6,2,_Heartfelt_folk-pop-rock_Guitar_1,0.10995019972324371,0
53,100,0.18636363636363637,683,0,25,_Heartfelt_folk-pop-rock_Guitar_1,6,3,_Heartfelt_folk-pop-rock_Guitar_1,0.12867163121700287,0
55,100,0.2590909090909091,752,0,25,_Heartfelt_folk-pop-rock_Guitar_1,6,4,_Heartfelt_folk-pop-rock_Guitar_1,0.18221306800842285,0
60,100,0.14545454545454545,30,1,26,_Heartfelt_folk-pop-rock_Guitar_1,6,2,_Heartfelt_folk-pop-rock_Guitar_1,0.9986507296562195,1
60,100,0.2590909090909091,154,0,26,_Heartfelt_folk-pop-rock_Guitar_1,6,4,_Heartfelt_folk-pop-rock_Guitar_1,0.08798019587993622,0
55,100,0.33181818181818185,288,0,26,_Heartfelt_folk-pop-rock_Guitar_1,6,5,_Heartfelt_folk-pop-rock_Guitar_1,0.09298660606145859,0
55,100,0.3090909090909091,365,0,26,_Heartfelt_folk-pop-rock_Guitar_1,6,5,_Heartfelt_folk-pop-rock_Guitar_1,0.10994900017976761,0
62,100,0.20454545454545456,591,0,26,_Heartfelt_folk-pop-rock_Guitar_1,6,3,_Heartfelt_folk-pop-rock_Guitar_1,0.1286715865135193,0
65,100,0.09090909090909091,669,0,26,_Heartfelt_folk-pop-rock_Guitar_1,6,1,_Heartfelt_folk-pop-rock_Guitar_1,0.1822178214788437,0
53,100,0.3090909090909091,129,1,27,_Heartfelt_folk-pop-rock_Guitar_1,6,5,_Heartfelt_folk-pop-rock_Guitar_1,0.9986506104469299,1
53,100,0.14545454545454545,222,0,27,_Heartfelt_folk-pop-rock_Guitar_1,6,2,_Heartfelt_folk-pop-rock_Guitar_1,0.08797720074653625,0
53,100,0.2590909090909091,281,0,27,_Heartfelt_folk-pop-rock_Guitar_1,6,4,_Heartfelt_folk-pop-rock_Guitar_1,0.09298112243413925,0
53,100,0.32727272727272727,404,0,27,_Heartfelt_folk-pop-rock_Guitar_1,6,5,_Heartfelt_folk-pop-rock_Guitar_1,0.10994485765695572,0
53,100,0.32727272727272727,497,0,27,_Heartfelt_folk-pop-rock_Guitar_1,6,5,_Heartfelt_folk-pop-rock_Guitar_1,0.1286662071943283,0
55,100,0.09090909090909091,670,0,27,_Heartfelt_folk-pop-rock_Guitar_1,6,1,_Heartfelt_folk-pop-rock_Guitar_1,0.18221275508403778,0
53,100,0.23636363636363636,353,1,28,_Heartfelt_folk-pop-rock_Guitar_1,6,4,_Heartfelt_folk-pop-rock_Guitar_1,0.9988439083099365,1
53,100,0.2909090909090909,437,0,28,_Heartfelt_folk-pop-rock_Guitar_1,6,5,_Heartfelt_folk-pop-rock_Guitar_1,0.1379801332950592,0
53,100,0.2772727272727273,505,0,28,_Heartfelt_folk-pop-rock_Guitar_1,6,4,_Heartfelt_folk-pop-rock_Guitar_1,0.16236275434494019,0
53,100,0.2,615,0,28,_Heartfelt_folk-pop-rock_Guitar_1,6,3,_Heartfelt_folk-pop-rock_Guitar_1,0.19105711579322815,0
53,100,0.7,752,0,28,_Heartfelt_folk-pop-rock_Guitar_1,6,11,_Heartfelt_folk-pop-rock_Guitar_1,0.26194941997528076,0
55,100,0.16363636363636364,608,1,29,_Heartfelt_folk-pop-rock_Guitar_1,6,3,_Heartfelt_folk-pop-rock_Guitar_1,0.9792241454124451,1
53,100,0.4590909090909091,10,1,31,_Heartfelt_folk-pop-rock_Guitar_1,6,7,_Heartfelt_folk-pop-rock_Guitar_1,0.9988439083099365,1
53,100,0.12727272727272726,305,1,31,_Heartfelt_folk-pop-rock_Guitar_1,6,2,_Heartfelt_folk-pop-rock_Guitar_1,0.137979656457901,0
53,100,0.31363636363636366,413,0,31,_Heartfelt_folk-pop-rock_Guitar_1,6,5,_Heartfelt_folk-pop-rock_Guitar_1,0.16235941648483276,0
53,100,0.22272727272727272,519,0,31,_Heartfelt_folk-pop-rock_Guitar_1,6,4,_Heartfelt_folk-pop-rock_Guitar_1,0.19105041027069092,0
55,100,0.10909090909090909,576,0,31,_Heartfelt_folk-pop-rock_Guitar_1,6,2,_Heartfelt_folk-pop-rock_Guitar_1,0.26196131110191345,0
53,100,0.6818181818181818,533,1,32,_Heartfelt_folk-pop-rock_Guitar_1,6,11,_Heartfelt_folk-pop-rock_Guitar_1,0.9792236089706421,1
55,100,0.20454545454545456,36,1,33,_Heartfelt_folk-pop-rock_Guitar_1,6,3,_Heartfelt_folk-pop-rock_Guitar_1,0.9988439083099365,1
57,100,0.2409090909090909,385,1,33,_Heartfelt_folk-pop-rock_Guitar_1,6,4,_Heartfelt_folk-pop-rock_Guitar_1,0.1379796415567398,0
53,100,0.2545454545454545,543,0,33,_Heartfelt_folk-pop-rock_Guitar_1,6,4,_Heartfelt_folk-pop-rock_Guitar_1,0.1623597890138626,0
60,100,0.2727272727272727,619,0,33,_Heartfelt_folk-pop-rock_Guitar_1,6,4,_Heartfelt_folk-pop-rock_Guitar_1,0.19105669856071472,0
69,100,0.16363636363636364,813,0,33,_Heartfelt_folk-pop-rock_Guitar_1,6,3,_Heartfelt_folk-pop-rock_Guitar_1,0.26196208596229553,0
53,100,0.5727272727272728,1,1,34,_Heartfelt_folk-pop-rock_Guitar_1,6,9,_Heartfelt_folk-pop-rock_Guitar_1,0.9983735084533691,1
60,100,0.22272727272727272,176,0,34,_Heartfelt_folk-pop-rock_Guitar_1,6,4,_Heartfelt_folk-pop-rock_Guitar_1,0.051051635295152664,0
55,100,0.33181818181818185,268,0,34,_Heartfelt_folk-pop-rock_Guitar_1,6,5,_Heartfelt_folk-pop-rock_Guitar_1,0.04161260649561882,0
55,100,0.36818181818181817,439,0,34,_Heartfelt_folk-pop-rock_Guitar_1,6,6,_Heartfelt_folk-pop-rock_Guitar_1,0.03798060864210129,0
55,100,0.40454545454545454,648,0,34,_Heartfelt_folk-pop-rock_Guitar_1,6,6,_Heartfelt_folk-pop-rock_Guitar_1,0.03926010802388191,0
55,100,0.14545454545454545,758,0,34,_Heartfelt_folk-pop-rock_Guitar_1,6,2,_Heartfelt_folk-pop-rock_Guitar_1,0.046165987849235535,0
55,100,0.12727272727272726,795,0,34,_Heartfelt_folk-pop-rock_Guitar_1,6,2,_Heartfelt_folk-pop-rock_Guitar_1,0.057131193578243256,0
53,100,0.14545454545454545,867,0,34,_Heartfelt_folk-pop-rock_Guitar_1,6,2,_Heartfelt_folk-pop-rock_Guitar_1,0.09187892824411392,0
53,100,0.2545454545454545,165,1,35,_Heartfelt_folk-pop-rock_Guitar_1,6,4,_Heartfelt_folk-pop-rock_Guitar_1,0.9990094900131226,1
53,100,0.55,275,0,35,_Heartfelt_folk-pop-rock_Guitar_1,6,9,_Heartfelt_folk-pop-rock_Guitar_1,0.23322927951812744,0
60,100,0.55,425,0,35,_Heartfelt_folk-pop-rock_Guitar_1,6,9,_Heartfelt_folk-pop-rock_Guitar_1,0.2705863416194916,0
55,100,0.1318181818181818,573,0,35,_Heartfelt_folk-pop-rock_Guitar_1,6,2,_Heartfelt_folk-pop-rock_Guitar_1,0.35792768001556396,0
57,100,0.29545454545454547,118,1,36,_Heartfelt_folk-pop-rock_Guitar_1,6,5,_Heartfelt_folk-pop-rock_Guitar_1,0.9983004927635193,1
53,100,0.2727272727272727,192,0,36,_Heartfelt_folk-pop-rock_Guitar_1,6,4,_Heartfelt_folk-pop-rock_Guitar_1,0.04466302692890167,0
53,100,0.16818181818181818,260,0,36,_Heartfelt_folk-pop-rock_Guitar_1,6,3,_Heartfelt_folk-pop-rock_Guitar_1,0.0333714485168457,0
53,100,0.11363636363636363,446,0,36,_Heartfelt_folk-pop-rock_Guitar_1,6,2,_Heartfelt_folk-pop-rock_Guitar_1,0.026947878301143646,0
53,100,0.1318181818181818,527,0,36,_Heartfelt_folk-pop-rock_Guitar_1,6,2,_Heartfelt_folk-pop-rock_Guitar_1,0.024083156138658524,0
60,100,0.18181818181818182,571,0,36,_Heartfelt_folk-pop-rock_Guitar_1,6,3,_Heartfelt_folk-pop-rock_Guitar_1,0.02497292309999466,0
69,100,0.2590909090909091,616,0,36,_Heartfelt_folk-pop-rock_Guitar_1,6,4,_Heartfelt_folk-pop-rock_Guitar_1,0.030646665021777153,0
53,100,0.31363636363636366,676,0,36,_Heartfelt_folk-pop-rock_Guitar_1,6,5,_Heartfelt_folk-pop-rock_Guitar_1,0.04136968404054642,0
55,100,0.2545454545454545,757,0,36,_Heartfelt_folk-pop-rock_Guitar_1,6,4,_Heartfelt_folk-pop-rock_Guitar_1,0.07207013666629791,0
55,100,0.21818181818181817,43,1,37,_Heartfelt_folk-pop-rock_Guitar_1,6,3,_Heartfelt_folk-pop-rock_Guitar_1,0.9984880685806274,1
55,100,0.29545454545454547,96,0,37,_Heartfelt_folk-pop-rock_Guitar_1,6,5,_Heartfelt_folk-pop-rock_Guitar_1,0.06335315853357315,0
55,100,0.5909090909090909,180,0,37,_Heartfelt_folk-pop-rock_Guitar_1,6,9,_Heartfelt_folk-pop-rock_Guitar_1,0.05828912556171417,0
55,100,0.10909090909090909,327,0,37,_Heartfelt_folk-pop-rock_Guitar_1,6,2,_Heartfelt_folk-pop-rock_Guitar_1,0.06136029213666916,0
55,100,0.4409090909090909,435,0,37,_Heartfelt_folk-pop-rock_Guitar_1,6,7,_Heartfelt_folk-pop-rock_Guitar_1,0.07167955487966537,0
53,100,0.09090909090909091,552,0,37,_Heartfelt_folk-pop-rock_Guitar_1,6,1,_Heartfelt_folk-pop-rock_Guitar_1,0.08473070710897446,0
55,100,0.10909090909090909,613,0,37,_Heartfelt_folk-pop-rock_Guitar_1,6,2,_Heartfelt_folk-pop-rock_Guitar_1,0.1263456493616104,0
58,100,0.16363636363636364,116,1,44,_Heartfelt_folk-pop-rock_Guitar_1,6,3,_Heartfelt_folk-pop-rock_Guitar_1,0.9990094900131226,1
53,100,0.11363636363636363,192,0,44,_Heartfelt_folk-pop-rock_Guitar_1,6,2,_Heartfelt_folk-pop-rock_Guitar_1,0.23322755098342896,0
53,100,0.11363636363636363,536,1,44,_Heartfelt_folk-pop-rock_Guitar_1,6,2,_Heartfelt_folk-pop-rock_Guitar_1,0.2705792784690857,0
53,100,0.10909090909090909,686,0,44,_Heartfelt_folk-pop-rock_Guitar_1,6,2,_Heartfelt_folk-pop-rock_Guitar_1,0.3579208552837372,0
53,100,0.15,129,1,45,_Heartfelt_folk-pop-rock_Guitar_1,6,2,_Heartfelt_folk-pop-rock_Guitar_1,0.9990094900131226,1
53,100,0.12727272727272726,165,0,45,_Heartfelt_folk-pop-rock_Guitar_1,6,2,_Heartfelt_folk-pop-rock_Guitar_1,0.23322425782680511,0
60,100,0.21818181818181817,428,1,45,_Heartfelt_folk-pop-rock_Guitar_1,6,3,_Heartfelt_folk-pop-rock_Guitar_1,0.27057895064353943,0
64,100,0.2545454545454545,611,0,45,_Heartfelt_folk-pop-rock_Guitar_1,6,4,_Heartfelt_folk-pop-rock_Guitar_1,0.3579231798648834,0
60,100,0.2,357,1,46,_Heartfelt_folk-pop-rock_Guitar_1,6,3,_Heartfelt_folk-pop-rock_Guitar_1,0.9990280866622925,1
59,100,0.16818181818181818,421,0,46,_Heartfelt_folk-pop-rock_Guitar_1,6,3,_Heartfelt_folk-pop-rock_Guitar_1,0.3703356683254242,0
53,100,0.10909090909090909,866,1,46,_Heartfelt_folk-pop-rock_Guitar_1,6,2,_Heartfelt_folk-pop-rock_Guitar_1,0.45616722106933594,0
58,100,0.15,11,1,47,_Heartfelt_folk-pop-rock_Guitar_1,6,2,_Heartfelt_folk-pop-rock_Guitar_1,0.9990280866622925,1
53,100,0.20454545454545456,261,1,47,_Heartfelt_folk-pop-rock_Guitar_1,6,3,_Heartfelt_folk-pop-rock_Guitar_1,0.370340496301651,0
53,100,0.20454545454545456,444,0,47,_Heartfelt_folk-pop-rock_Guitar_1,6,3,_Heartfelt_folk-pop-rock_Guitar_1,0.4561731815338135,0
55,100,0.29545454545454547,598,1,48,_Heartfelt_folk-pop-rock_Guitar_1,6,5,_Heartfelt_folk-pop-rock_Guitar_1,0.9792246222496033,1
55,100,0.09545454545454546,1,1,49,_Heartfelt_folk-pop-rock_Guitar_1,6,2,_Heartfelt_folk-pop-rock_Guitar_1,0.9792243838310242,1
53,100,0.10909090909090909,270,1,50,_Heartfelt_folk-pop-rock_Guitar_1,6,2,_Heartfelt_folk-pop-rock_Guitar_1,0.9990094900131226,1
53,100,0.10909090909090909,376,0,50,_Heartfelt_folk-pop-rock_Guitar_1,6,2,_Heartfelt_folk-pop-rock_Guitar_1,0.2332228571176529,0
53,100,0.5,593,0,50,_Heartfelt_folk-pop-rock_Guitar_1,6,8,_Heartfelt_folk-pop-rock_Guitar_1,0.27057284116744995,0
65,100,0.11363636363636363,771,0,50,_Heartfelt_folk-pop-rock_Guitar_1,6,2,_Heartfelt_folk-pop-rock_Guitar_1,0.35792720317840576,0
60,100,0.5863636363636363,21,1,51,_Heartfelt_folk-pop-rock_Guitar_1,6,9,_Heartfelt_folk-pop-rock_Guitar_1,0.9988439083099365,1
60,100,0.1318181818181818,155,0,51,_Heartfelt_folk-pop-rock_Guitar_1,6,2,_Heartfelt_folk-pop-rock_Guitar_1,0.13798071444034576,0
60,100,0.6590909090909091,548,1,51,_Heartfelt_folk-pop-rock_Guitar_1,6,11,_Heartfelt_folk-pop-rock_Guitar_1,0.16236278414726257,0
62,100,0.20454545454545456,721,0,51,_Heartfelt_folk-pop-rock_Guitar_1,6,3,_Heartfelt_folk-pop-rock_Guitar_1,0.19105876982212067,0
55,100,0.23636363636363636,846,0,51,_Heartfelt_folk-pop-rock_Guitar_1,6,4,_Heartfelt_folk-pop-rock_Guitar_1,0.2619629502296448,0
55,100,0.4409090909090909,68,1,52,_Heartfelt_folk-pop-rock_Guitar_1,6,7,_Heartfelt_folk-pop-rock_Guitar_1,0.9792242646217346,1
55,100,0.33181818181818185,33,1,53,_Heartfelt_folk-pop-rock_Guitar_1,6,5,_Heartfelt_folk-pop-rock_Guitar_1,0.9990280866622925,1
55,100,0.31363636363636366,114,0,53,_Heartfelt_folk-pop-rock_Guitar_1,6,5,_Heartfelt_folk-pop-rock_Guitar_1,0.37034469842910767,0
57,100,0.14545454545454545,199,0,53,_Heartfelt_folk-pop-rock_Guitar_1,6,2,_Heartfelt_folk-pop-rock_Guitar_1,0.4561709463596344,0
53,100,0.7,511,1,54,_Heartfelt_folk-pop-rock_Guitar_1,6,11,_Heartfelt_folk-pop-rock_Guitar_1,0.9792234897613525,1
74,100,0.9727272727272728,627,1,58,_Heartfelt_folk-pop-rock_Guitar_1,6,15,_Heartfelt_folk-pop-rock_Guitar_1,0.9983231425285339,1
72,100,1.5454545454545454,841,0,58,_Heartfelt_folk-pop-rock_Guitar_1,6,15,_Heartfelt_folk-pop-rock_Guitar_1,0.5462220311164856,1
53,100,0.12727272727272726,689,1,59,_Heartfelt_folk-pop-rock_Guitar_1,6,2,_Heartfelt_folk-pop-rock_Guitar_1,0.9983231425285339,1
53,100,0.1318181818181818,826,0,59,_Heartfelt_folk-pop-rock_Guitar_1,6,2,_Heartfelt_folk-pop-rock_Guitar_1,0.5462164282798767,1
53,100,0.22272727272727272,20,1,60,_Heartfelt_folk-pop-rock_Guitar_1,6,4,_Heartfelt_folk-pop-rock_Guitar_1,0.9990094900131226,1
53,100,0.6227272727272727,239,0,60,_Heartfelt_folk-pop-rock_Guitar_1,6,10,_Heartfelt_folk-pop-rock_Guitar_1,0.23323605954647064,0
55,100,0.12727272727272726,611,1,60,_Heartfelt_folk-pop-rock_Guitar_1,6,2,_Heartfelt_folk-pop-rock_Guitar_1,0.2705881893634796,0
55,100,0.12727272727272726,748,0,60,_Heartfelt_folk-pop-rock_Guitar_1,6,2,_Heartfelt_folk-pop-rock_Guitar_1,0.35792914032936096,0
53,100,0.2909090909090909,1,1,61,_Heartfelt_folk-pop-rock_Guitar_1,6,5,_Heartfelt_folk-pop-rock_Guitar_1,0.9986506104469299,1
62,100,0.29545454545454547,215,0,61,_Heartfelt_folk-pop-rock_Guitar_1,6,5,_Heartfelt_folk-pop-rock_Guitar_1,0.0879775807261467,0
53,100,0.10909090909090909,502,1,61,_Heartfelt_folk-pop-rock_Guitar_1,6,2,_Heartfelt_folk-pop-rock_Guitar_1,0.09298297762870789,0
53,100,0.2,657,0,61,_Heartfelt_folk-pop-rock_Guitar_1,6,3,_Heartfelt_folk-pop-rock_Guitar_1,0.10994765162467957,0
53,100,0.2409090909090909,785,0,61,_Heartfelt_folk-pop-rock_Guitar_1,6,4,_Heartfelt_folk-pop-rock_Guitar_1,0.12867112457752228,0
53,100,0.16818181818181818,874,0,61,_Heartfelt_folk-pop-rock_Guitar_1,6,3,_Heartfelt_folk-pop-rock_Guitar_1,0.1822190135717392,0
53,100,0.1318181818181818,200,1,62,_Heartfelt_folk-pop-rock_Guitar_1,6,2,_Heartfelt_folk-pop-rock_Guitar_1,0.9984879493713379,1
60,100,0.12727272727272726,238,0,62,_Heartfelt_folk-pop-rock_Guitar_1,6,2,_Heartfelt_folk-pop-rock_Guitar_1,0.06335261464118958,0
53,100,0.14545454545454545,269,0,62,_Heartfelt_folk-pop-rock_Guitar_1,6,2,_Heartfelt_folk-pop-rock_Guitar_1,0.058286454528570175,0
53,100,0.16363636363636364,350,0,62,_Heartfelt_folk-pop-rock_Guitar_1,6,3,_Heartfelt_folk-pop-rock_Guitar_1,0.061359114944934845,0
53,100,0.1318181818181818,480,0,62,_Heartfelt_folk-pop-rock_Guitar_1,6,2,_Heartfelt_folk-pop-rock_Guitar_1,0.07168015092611313,0
53,100,0.3090909090909091,763,1,62,_Heartfelt_folk-pop-rock_Guitar_1,6,5,_Heartfelt_folk-pop-rock_Guitar_1,0.0847306028008461,0
53,100,0.29545454545454547,847,0,62,_Heartfelt_folk-pop-rock_Guitar_1,6,5,_Heartfelt_folk-pop-rock_Guitar_1,0.12634503841400146,0
55,100,0.2,69,1,63,_Heartfelt_folk-pop-rock_Guitar_1,6,3,_Heartfelt_folk-pop-rock_Guitar_1,0.9990094900131226,1
55,100,0.16363636363636364,178,0,63,_Heartfelt_folk-pop-rock_Guitar_1,6,3,_Heartfelt_folk-pop-rock_Guitar_1,0.23322626948356628,0
53,100,0.18181818181818182,538,1,63,_Heartfelt_folk-pop-rock_Guitar_1,6,3,_Heartfelt_folk-pop-rock_Guitar_1,0.2705734372138977,0
60,100,0.5318181818181819,841,1,63,_Heartfelt_folk-pop-rock_Guitar_1,6,9,_Heartfelt_folk-pop-rock_Guitar_1,0.3579249083995819,0
54,100,0.09090909090909091,302,1,64,_Heartfelt_folk-pop-rock_Guitar_1,6,1,_Heartfelt_folk-pop-rock_Guitar_1,0.9984879493713379,1
53,100,0.10909090909090909,321,0,64,_Heartfelt_folk-pop-rock_Guitar_1,6,2,_Heartfelt_folk-pop-rock_Guitar_1,0.06335147470235825,0
53,100,0.11363636363636363,454,0,64,_Heartfelt_folk-pop-rock_Guitar_1,6,2,_Heartfelt_folk-pop-rock_Guitar_1,0.058288153260946274,0
53,100,0.14545454545454545,516,0,64,_Heartfelt_folk-pop-rock_Guitar_1,6,2,_Heartfelt_folk-pop-rock_Guitar_1,0.06135939061641693,0
65,100,0.1318181818181818,548,0,64,_Heartfelt_folk-pop-rock_Guitar_1,6,2,_Heartfelt_folk-pop-rock_Guitar_1,0.07168068736791611,0
53,100,0.2,661,0,64,_Heartfelt_folk-pop-rock_Guitar_1,6,3,_Heartfelt_folk-pop-rock_Guitar_1,0.08473306149244308,0
53,100,0.11363636363636363,738,0,64,_Heartfelt_folk-pop-rock_Guitar_1,6,2,_Heartfelt_folk-pop-rock_Guitar_1,0.12634630501270294,0
53,100,0.09090909090909091,0,1,65,_Heartfelt_folk-pop-rock_Guitar_1,6,1,_Heartfelt_folk-pop-rock_Guitar_1,0.9986506104469299,1
53,100,0.40454545454545454,234,1,65,_Heartfelt_folk-pop-rock_Guitar_1,6,6,_Heartfelt_folk-pop-rock_Guitar_1,0.08797960728406906,0
53,100,0.5318181818181819,363,0,65,_Heartfelt_folk-pop-rock_Guitar_1,6,9,_Heartfelt_folk-pop-rock_Guitar_1,0.09298181533813477,0
60,100,0.16818181818181818,484,0,65,_Heartfelt_folk-pop-rock_Guitar_1,6,3,_Heartfelt_folk-pop-rock_Guitar_1,0.10994907468557358,0
53,100,0.10909090909090909,537,0,65,_Heartfelt_folk-pop-rock_Guitar_1,6,2,_Heartfelt_folk-pop-rock_Guitar_1,0.12866778671741486,0
53,100,0.16363636363636364,797,1,65,_Heartfelt_folk-pop-rock_Guitar_1,6,3,_Heartfelt_folk-pop-rock_Guitar_1,0.18221715092658997,0
53,100,0.15,154,1,66,_Heartfelt_folk-pop-rock_Guitar_1,6,2,_Heartfelt_folk-pop-rock_Guitar_1,0.9990280866622925,1
62,100,0.5681818181818182,316,0,66,_Heartfelt_folk-pop-rock_Guitar_1,6,9,_Heartfelt_folk-pop-rock_Guitar_1,0.3703412115573883,0
53,100,0.21818181818181817,851,1,66,_Heartfelt_folk-pop-rock_Guitar_1,6,3,_Heartfelt_folk-pop-rock_Guitar_1,0.45617303252220154,0
53,100,0.11363636363636363,96,1,67,_Heartfelt_folk-pop-rock_Guitar_1,6,2,_Heartfelt_folk-pop-rock_Guitar_1,0.9984879493713379,1
53,100,0.20454545454545456,189,0,67,_Heartfelt_folk-pop-rock_Guitar_1,6,3,_Heartfelt_folk-pop-rock_Guitar_1,0.06335404515266418,0
53,100,0.12727272727272726,334,0,67,_Heartfelt_folk-pop-rock_Guitar_1,6,2,_Heartfelt_folk-pop-rock_Guitar_1,0.05828828364610672,0
60,100,0.10909090909090909,455,0,67,_Heartfelt_folk-pop-rock_Guitar_1,6,2,_Heartfelt_folk-pop-rock_Guitar_1,0.0613633394241333,0
60,100,0.18181818181818182,489,0,67,_Heartfelt_folk-pop-rock_Guitar_1,6,3,_Heartfelt_folk-pop-rock_Guitar_1,0.07168234139680862,0
53,100,0.09090909090909091,683,0,67,_Heartfelt_folk-pop-rock_Guitar_1,6,1,_Heartfelt_folk-pop-rock_Guitar_1,0.08473281562328339,0
53,100,0.2409090909090909,746,0,67,_Heartfelt_folk-pop-rock_Guitar_1,6,4,_Heartfelt_folk-pop-rock_Guitar_1,0.12634749710559845,0
53,100,0.09090909090909091,113,1,68,_Heartfelt_folk-pop-rock_Guitar_1,6,1,_Heartfelt_folk-pop-rock_Guitar_1,0.9983232617378235,1
53,100,0.2,163,0,68,_Heartfelt_folk-pop-rock_Guitar_1,6,3,_Heartfelt_folk-pop-rock_Guitar_1,0.5462144613265991,1
60,100,0.11363636363636363,269,1,69,_Heartfelt_folk-pop-rock_Guitar_1,6,2,_Heartfelt_folk-pop-rock_Guitar_1,0.9990280866622925,1
53,100,0.15,439,0,69,_Heartfelt_folk-pop-rock_Guitar_1,6,2,_Heartfelt_folk-pop-rock_Guitar_1,0.37033453583717346,0
58,100,0.10909090909090909,523,0,69,_Heartfelt_folk-pop-rock_Guitar_1,6,2,_Heartfelt_folk-pop-rock_Guitar_1,0.45616766810417175,0
53,100,0.1,510,1,0,_Heartfelt_folk-pop-rock_Guitar,6,2,_Heartfelt_folk-pop-rock_Guitar,0.9990280866622925,1
57,100,0.2590909090909091,612,0,0,_Heartfelt_folk-pop-rock_Guitar,6,4,_Heartfelt_folk-pop-rock_Guitar,0.37033337354660034,0
53,100,0.4772727272727273,766,0,0,_Heartfelt_folk-pop-rock_Guitar,6,8,_Heartfelt_folk-pop-rock_Guitar,0.4561719000339508,0
53,100,0.6227272727272727,201,1,1,_Heartfelt_folk-pop-rock_Guitar,6,10,_Heartfelt_folk-pop-rock_Guitar,0.9990094900131226,1
53,100,0.21818181818181817,360,0,1,_Heartfelt_folk-pop-rock_Guitar,6,3,_Heartfelt_folk-pop-rock_Guitar,0.2332267463207245,0
53,100,0.5818181818181818,510,0,1,_Heartfelt_folk-pop-rock_Guitar,6,9,_Heartfelt_folk-pop-rock_Guitar,0.2705845236778259,0
55,100,0.2818181818181818,664,0,1,_Heartfelt_folk-pop-rock_Guitar,6,5,_Heartfelt_folk-pop-rock_Guitar,0.35792985558509827,0
53,100,0.3409090909090909,241,1,2,_Heartfelt_folk-pop-rock_Guitar,6,5,_Heartfelt_folk-pop-rock_Guitar,0.9988439083099365,1
55,100,0.22272727272727272,409,0,2,_Heartfelt_folk-pop-rock_Guitar,6,4,_Heartfelt_folk-pop-rock_Guitar,0.13798050582408905,0
53,100,0.22272727272727272,562,0,2,_Heartfelt_folk-pop-rock_Guitar,6,4,_Heartfelt_folk-pop-rock_Guitar,0.1623639166355133,0
53,100,0.18181818181818182,616,0,2,_Heartfelt_folk-pop-rock_Guitar,6,3,_Heartfelt_folk-pop-rock_Guitar,0.19105185568332672,0
53,100,0.32272727272727275,871,1,2,_Heartfelt_folk-pop-rock_Guitar,6,5,_Heartfelt_folk-pop-rock_Guitar,0.2619662284851074,0
57,100,0.2590909090909091,418,1,3,_Heartfelt_folk-pop-rock_Guitar,6,4,_Heartfelt_folk-pop-rock_Guitar,0.9990094900131226,1
57,100,0.6227272727272727,642,0,3,_Heartfelt_folk-pop-rock_Guitar,6,10,_Heartfelt_folk-pop-rock_Guitar,0.2332368642091751,0
55,100,0.2409090909090909,791,0,3,_Heartfelt_folk-pop-rock_Guitar,6,4,_Heartfelt_folk-pop-rock_Guitar,0.270587682723999,0
53,100,0.3409090909090909,849,0,3,_Heartfelt_folk-pop-rock_Guitar,6,5,_Heartfelt_folk-pop-rock_Guitar,0.3579291105270386,0
55,100,0.33636363636363636,61,1,4,_Heartfelt_folk-pop-rock_Guitar,6,5,_Heartfelt_folk-pop-rock_Guitar,0.9988439083099365,1
55,100,0.2409090909090909,383,1,4,_Heartfelt_folk-pop-rock_Guitar,6,4,_Heartfelt_folk-pop-rock_Guitar,0.1379823535680771,0
55,100,0.3181818181818182,537,0,4,_Heartfelt_folk-pop-rock_Guitar,6,5,_Heartfelt_folk-pop-rock_Guitar,0.16236330568790436,0
53,100,0.12272727272727273,752,0,4,_Heartfelt_folk-pop-rock_Guitar,6,2,_Heartfelt_folk-pop-rock_Guitar,0.19104863703250885,0
60,100,0.12272727272727273,849,0,4,_Heartfelt_folk-pop-rock_Guitar,6,2,_Heartfelt_folk-pop-rock_Guitar,0.2619571387767792,0
57,100,0.12272727272727273,79,1,5,_Heartfelt_folk-pop-rock_Guitar,6,2,_Heartfelt_folk-pop-rock_Guitar,0.9988439083099365,1
57,100,0.41818181818181815,171,0,5,_Heartfelt_folk-pop-rock_Guitar,6,7,_Heartfelt_folk-pop-rock_Guitar,0.13799025118350983,0
55,100,0.35909090909090907,360,0,5,_Heartfelt_folk-pop-rock_Guitar,6,6,_Heartfelt_folk-pop-rock_Guitar,0.162372425198555,0
55,100,0.4772727272727273,480,0,5,_Heartfelt_folk-pop-rock_Guitar,6,8,_Heartfelt_folk-pop-rock_Guitar,0.19106745719909668,0
53,100,0.759090909090909,668,0,5,_Heartfelt_folk-pop-rock_Guitar,6,12,_Heartfelt_folk-pop-rock_Guitar,0.2619626820087433,0
53,100,0.17727272727272728,30,1,6,_Heartfelt_folk-pop-rock_Guitar,6,3,_Heartfelt_folk-pop-rock_Guitar,0.9982556700706482,1
53,100,0.11818181818181818,74,0,6,_Heartfelt_folk-pop-rock_Guitar,6,2,_Heartfelt_folk-pop-rock_Guitar,0.041291557252407074,0
53,100,0.16363636363636364,114,0,6,_Heartfelt_folk-pop-rock_Guitar,6,3,_Heartfelt_folk-pop-rock_Guitar,0.029124606400728226,0
53,100,0.41818181818181815,171,0,6,_Heartfelt_folk-pop-rock_Guitar,6,7,_Heartfelt_folk-pop-rock_Guitar,0.021568188443779945,0
53,100,0.3,268,0,6,_Heartfelt_folk-pop-rock_Guitar,6,5,_Heartfelt_folk-pop-rock_Guitar,0.017057953402400017,0
53,100,0.1590909090909091,342,0,6,_Heartfelt_folk-pop-rock_Guitar,6,3,_Heartfelt_folk-pop-rock_Guitar,0.015267148613929749,0
53,100,0.2,383,0,6,_Heartfelt_folk-pop-rock_Guitar,6,3,_Heartfelt_folk-pop-rock_Guitar,0.01645434834063053,0
53,100,0.3,545,0,6,_Heartfelt_folk-pop-rock_Guitar,6,5,_Heartfelt_folk-pop-rock_Guitar,0.021835612133145332,0
53,100,0.11818181818181818,721,0,6,_Heartfelt_folk-pop-rock_Guitar,6,2,_Heartfelt_folk-pop-rock_Guitar,0.03251663222908974,0
57,100,0.6590909090909091,805,0,6,_Heartfelt_folk-pop-rock_Guitar,6,11,_Heartfelt_folk-pop-rock_Guitar,0.060908541083335876,0
53,100,0.4590909090909091,470,1,7,_Heartfelt_folk-pop-rock_Guitar,6,7,_Heartfelt_folk-pop-rock_Guitar,0.9990280866622925,1
53,100,0.22272727272727272,619,0,7,_Heartfelt_folk-pop-rock_Guitar,6,4,_Heartfelt_folk-pop-rock_Guitar,0.3703371584415436,0
53,100,0.4772727272727273,691,0,7,_Heartfelt_folk-pop-rock_Guitar,6,8,_Heartfelt_folk-pop-rock_Guitar,0.45616480708122253,0
53,100,0.1590909090909091,22,1,8,_Heartfelt_folk-pop-rock_Guitar,6,3,_Heartfelt_folk-pop-rock_Guitar,0.9984879493713379,1
60,100,0.2590909090909091,206,0,8,_Heartfelt_folk-pop-rock_Guitar,6,4,_Heartfelt_folk-pop-rock_Guitar,0.06335516273975372,0
55,100,0.17727272727272728,316,0,8,_Heartfelt_folk-pop-rock_Guitar,6,3,_Heartfelt_folk-pop-rock_Guitar,0.05828850716352463,0
65,100,0.1590909090909091,462,0,8,_Heartfelt_folk-pop-rock_Guitar,6,3,_Heartfelt_folk-pop-rock_Guitar,0.06136169284582138,0
55,100,0.1,501,0,8,_Heartfelt_folk-pop-rock_Guitar,6,2,_Heartfelt_folk-pop-rock_Guitar,0.07168164104223251,0
53,100,0.1590909090909091,629,0,8,_Heartfelt_folk-pop-rock_Guitar,6,3,_Heartfelt_folk-pop-rock_Guitar,0.08473274856805801,0
53,100,0.2590909090909091,831,0,8,_Heartfelt_folk-pop-rock_Guitar,6,4,_Heartfelt_folk-pop-rock_Guitar,0.1263452023267746,0
53,100,0.3,22,1,9,_Heartfelt_folk-pop-rock_Guitar,6,5,_Heartfelt_folk-pop-rock_Guitar,0.9988439083099365,1
60,100,0.3409090909090909,101,0,9,_Heartfelt_folk-pop-rock_Guitar,6,5,_Heartfelt_folk-pop-rock_Guitar,0.13798056542873383,0
63,100,0.23636363636363636,216,0,9,_Heartfelt_folk-pop-rock_Guitar,6,4,_Heartfelt_folk-pop-rock_Guitar,0.16235899925231934,0
53,100,0.1,364,0,9,_Heartfelt_folk-pop-rock_Guitar,6,2,_Heartfelt_folk-pop-rock_Guitar,0.19105175137519836,0
55,100,0.17727272727272728,414,0,9,_Heartfelt_folk-pop-rock_Guitar,6,3,_Heartfelt_folk-pop-rock_Guitar,0.26196223497390747,0
53,100,0.1409090909090909,56,1,10,_Heartfelt_folk-pop-rock_Guitar,6,2,_Heartfelt_folk-pop-rock_Guitar,0.9990094900131226,1
53,100,0.1,92,0,10,_Heartfelt_folk-pop-rock_Guitar,6,2,_Heartfelt_folk-pop-rock_Guitar,0.23322658240795135,0
53,100,0.22272727272727272,474,1,10,_Heartfelt_folk-pop-rock_Guitar,6,4,_Heartfelt_folk-pop-rock_Guitar,0.27057257294654846,0
60,100,0.1,620,0,10,_Heartfelt_folk-pop-rock_Guitar,6,2,_Heartfelt_folk-pop-rock_Guitar,0.35792797803878784,0
53,100,0.12272727272727273,386,1,11,_Heartfelt_folk-pop-rock_Guitar,6,2,_Heartfelt_folk-pop-rock_Guitar,0.9986506104469299,1
53,100,0.12272727272727273,453,0,11,_Heartfelt_folk-pop-rock_Guitar,6,2,_Heartfelt_folk-pop-rock_Guitar,0.08797740936279297,0
53,100,0.1409090909090909,515,0,11,_Heartfelt_folk-pop-rock_Guitar,6,2,_Heartfelt_folk-pop-rock_Guitar,0.09298261255025864,0
58,100,0.11818181818181818,572,0,11,_Heartfelt_folk-pop-rock_Guitar,6,2,_Heartfelt_folk-pop-rock_Guitar,0.1099458634853363,0
60,100,0.1,685,0,11,_Heartfelt_folk-pop-rock_Guitar,6,2,_Heartfelt_folk-pop-rock_Guitar,0.12866784632205963,0
60,100,0.2772727272727273,744,0,11,_Heartfelt_folk-pop-rock_Guitar,6,4,_Heartfelt_folk-pop-rock_Guitar,0.1822156012058258,0
55,100,0.17727272727272728,17,1,12,_Heartfelt_folk-pop-rock_Guitar,6,3,_Heartfelt_folk-pop-rock_Guitar,0.9983231425285339,1
65,100,0.6409090909090909,56,0,12,_Heartfelt_folk-pop-rock_Guitar,6,10,_Heartfelt_folk-pop-rock_Guitar,0.5462114810943604,1
60,100,0.18181818181818182,110,1,13,_Heartfelt_folk-pop-rock_Guitar,6,3,_Heartfelt_folk-pop-rock_Guitar,0.9986506104469299,1
60,100,0.23636363636363636,414,1,13,_Heartfelt_folk-pop-rock_Guitar,6,4,_Heartfelt_folk-pop-rock_Guitar,0.08798031508922577,0
60,100,0.4590909090909091,470,0,13,_Heartfelt_folk-pop-rock_Guitar,6,7,_Heartfelt_folk-pop-rock_Guitar,0.09298450499773026,0
60,100,0.5409090909090909,606,0,13,_Heartfelt_folk-pop-rock_Guitar,6,9,_Heartfelt_folk-pop-rock_Guitar,0.10995201766490936,0
55,100,0.17727272727272728,744,0,13,_Heartfelt_folk-pop-rock_Guitar,6,3,_Heartfelt_folk-pop-rock_Guitar,0.1286727786064148,0
53,100,0.7,801,0,13,_Heartfelt_folk-pop-rock_Guitar,6,11,_Heartfelt_folk-pop-rock_Guitar,0.1822163611650467,0
53,100,0.21818181818181817,96,1,14,_Heartfelt_folk-pop-rock_Guitar,6,3,_Heartfelt_folk-pop-rock_Guitar,0.9984879493713379,1
53,100,0.1,158,0,14,_Heartfelt_folk-pop-rock_Guitar,6,2,_Heartfelt_folk-pop-rock_Guitar,0.06335408985614777,0
60,100,0.4,245,0,14,_Heartfelt_folk-pop-rock_Guitar,6,6,_Heartfelt_folk-pop-rock_Guitar,0.05828993394970894,0
57,100,0.1590909090909091,431,0,14,_Heartfelt_folk-pop-rock_Guitar,6,3,_Heartfelt_folk-pop-rock_Guitar,0.0613606832921505,0
62,100,0.3409090909090909,470,0,14,_Heartfelt_folk-pop-rock_Guitar,6,5,_Heartfelt_folk-pop-rock_Guitar,0.07168140262365341,0
53,100,0.11818181818181818,713,1,14,_Heartfelt_folk-pop-rock_Guitar,6,2,_Heartfelt_folk-pop-rock_Guitar,0.08473554998636246,0
60,100,0.7,778,0,14,_Heartfelt_folk-pop-rock_Guitar,6,11,_Heartfelt_folk-pop-rock_Guitar,0.12634846568107605,0
57,100,0.7,61,1,15,_Heartfelt_folk-pop-rock_Guitar,6,11,_Heartfelt_folk-pop-rock_Guitar,0.9990094900131226,1
55,100,0.4,453,1,15,_Heartfelt_folk-pop-rock_Guitar,6,6,_Heartfelt_folk-pop-rock_Guitar,0.2332397848367691,0
55,100,0.2772727272727273,546,0,15,_Heartfelt_folk-pop-rock_Guitar,6,4,_Heartfelt_folk-pop-rock_Guitar,0.27058038115501404,0
60,100,0.3,651,0,15,_Heartfelt_folk-pop-rock_Guitar,6,5,_Heartfelt_folk-pop-rock_Guitar,0.35792845487594604,0
64,100,0.2772727272727273,127,1,16,_Heartfelt_folk-pop-rock_Guitar,6,4,_Heartfelt_folk-pop-rock_Guitar,0.9983735084533691,1
55,100,0.3,233,0,16,_Heartfelt_folk-pop-rock_Guitar,6,5,_Heartfelt_folk-pop-rock_Guitar,0.05105045810341835,0
53,100,0.1409090909090909,364,0,16,_Heartfelt_folk-pop-rock_Guitar,6,2,_Heartfelt_folk-pop-rock_Guitar,0.041612185537815094,0
55,100,0.2409090909090909,443,0,16,_Heartfelt_folk-pop-rock_Guitar,6,4,_Heartfelt_folk-pop-rock_Guitar,0.03798036277294159,0
53,100,0.21818181818181817,505,0,16,_Heartfelt_folk-pop-rock_Guitar,6,3,_Heartfelt_folk-pop-rock_Guitar,0.03925884887576103,0
62,100,0.1,584,0,16,_Heartfelt_folk-pop-rock_Guitar,6,2,_Heartfelt_folk-pop-rock_Guitar,0.04616621509194374,0
62,100,0.3,686,0,16,_Heartfelt_folk-pop-rock_Guitar,6,5,_Heartfelt_folk-pop-rock_Guitar,0.057132817804813385,0
57,100,0.6818181818181818,814,0,16,_Heartfelt_folk-pop-rock_Guitar,6,11,_Heartfelt_folk-pop-rock_Guitar,0.09188032150268555,0
65,100,0.1409090909090909,110,1,17,_Heartfelt_folk-pop-rock_Guitar,6,2,_Heartfelt_folk-pop-rock_Guitar,0.9990094900131226,1
65,100,0.1590909090909091,175,0,17,_Heartfelt_folk-pop-rock_Guitar,6,3,_Heartfelt_folk-pop-rock_Guitar,0.23322440683841705,0
60,100,0.1409090909090909,312,0,17,_Heartfelt_folk-pop-rock_Guitar,6,2,_Heartfelt_folk-pop-rock_Guitar,0.2705782949924469,0
53,100,0.1590909090909091,691,1,17,_Heartfelt_folk-pop-rock_Guitar,6,3,_Heartfelt_folk-pop-rock_Guitar,0.3579182028770447,0
53,100,0.1590909090909091,167,1,18,_Heartfelt_folk-pop-rock_Guitar,6,3,_Heartfelt_folk-pop-rock_Guitar,0.9792234897613525,1
53,100,0.1590909090909091,339,1,19,_Heartfelt_folk-pop-rock_Guitar,6,3,_Heartfelt_folk-pop-rock_Guitar,0.9988439083099365,1
65,100,0.2590909090909091,374,0,19,_Heartfelt_folk-pop-rock_Guitar,6,4,_Heartfelt_folk-pop-rock_Guitar,0.13798129558563232,0
55,100,0.33636363636363636,457,0,19,_Heartfelt_folk-pop-rock_Guitar,6,5,_Heartfelt_folk-pop-rock_Guitar,0.1623673290014267,0
53,100,0.1409090909090909,536,0,19,_Heartfelt_folk-pop-rock_Guitar,6,2,_Heartfelt_folk-pop-rock_Guitar,0.1910538375377655,0
53,100,0.3,576,0,19,_Heartfelt_folk-pop-rock_Guitar,6,5,_Heartfelt_folk-pop-rock_Guitar,0.26196545362472534,0
53,100,0.22272727272727272,57,1,20,_Heartfelt_folk-pop-rock_Guitar,6,4,_Heartfelt_folk-pop-rock_Guitar,0.9792236089706421,1
53,100,0.11818181818181818,501,1,24,_Heartfelt_folk-pop-rock_Guitar,6,2,_Heartfelt_folk-pop-rock_Guitar,0.9990280866622925,1
53,100,0.4818181818181818,650,0,24,_Heartfelt_folk-pop-rock_Guitar,6,8,_Heartfelt_folk-pop-rock_Guitar,0.3703349530696869,0
53,100,0.2818181818181818,770,0,24,_Heartfelt_folk-pop-rock_Guitar,6,5,_Heartfelt_folk-pop-rock_Guitar,0.4561663568019867,0
53,100,0.2772727272727273,162,1,25,_Heartfelt_folk-pop-rock_Guitar,6,4,_Heartfelt_folk-pop-rock_Guitar,0.9988439083099365,1
55,100,0.3181818181818182,260,0,25,_Heartfelt_folk-pop-rock_Guitar,6,5,_Heartfelt_folk-pop-rock_Guitar,0.13798443973064423,0
55,100,0.22272727272727272,497,1,25,_Heartfelt_folk-pop-rock_Guitar,6,4,_Heartfelt_folk-pop-rock_Guitar,0.16237054765224457,0
55,100,0.2,712,0,25,_Heartfelt_folk-pop-rock_Guitar,6,3,_Heartfelt_folk-pop-rock_Guitar,0.19105710089206696,0
55,100,0.2590909090909091,801,0,25,_Heartfelt_folk-pop-rock_Guitar,6,4,_Heartfelt_folk-pop-rock_Guitar,0.2619611918926239,0
57,100,0.2,17,1,26,_Heartfelt_folk-pop-rock_Guitar,6,3,_Heartfelt_folk-pop-rock_Guitar,0.9988439083099365,1
57,100,0.2,387,1,26,_Heartfelt_folk-pop-rock_Guitar,6,3,_Heartfelt_folk-pop-rock_Guitar,0.13798601925373077,0
57,100,0.3409090909090909,466,0,26,_Heartfelt_folk-pop-rock_Guitar,6,5,_Heartfelt_folk-pop-rock_Guitar,0.16237235069274902,0
57,100,0.1590909090909091,550,0,26,_Heartfelt_folk-pop-rock_Guitar,6,3,_Heartfelt_folk-pop-rock_Guitar,0.19106018543243408,0
53,100,0.740909090909091,673,0,26,_Heartfelt_folk-pop-rock_Guitar,6,12,_Heartfelt_folk-pop-rock_Guitar,0.26197338104248047,0
53,100,0.13636363636363635,40,1,27,_Heartfelt_folk-pop-rock_Guitar,6,2,_Heartfelt_folk-pop-rock_Guitar,0.9984879493713379,1
53,100,0.16363636363636364,113,0,27,_Heartfelt_folk-pop-rock_Guitar,6,3,_Heartfelt_folk-pop-rock_Guitar,0.06335287541151047,0
53,100,0.41818181818181815,154,0,27,_Heartfelt_folk-pop-rock_Guitar,6,7,_Heartfelt_folk-pop-rock_Guitar,0.05828563868999481,0
53,100,0.6409090909090909,364,0,27,_Heartfelt_folk-pop-rock_Guitar,6,10,_Heartfelt_folk-pop-rock_Guitar,0.06135925278067589,0
53,100,0.5181818181818182,515,0,27,_Heartfelt_folk-pop-rock_Guitar,6,8,_Heartfelt_folk-pop-rock_Guitar,0.07167847454547882,0
53,100,0.3,642,0,27,_Heartfelt_folk-pop-rock_Guitar,6,5,_Heartfelt_folk-pop-rock_Guitar,0.08473052829504013,0
53,100,0.1409090909090909,748,0,27,_Heartfelt_folk-pop-rock_Guitar,6,2,_Heartfelt_folk-pop-rock_Guitar,0.1263439953327179,0
53,100,0.2,40,1,28,_Heartfelt_folk-pop-rock_Guitar,6,3,_Heartfelt_folk-pop-rock_Guitar,0.9986506104469299,1
55,100,0.2818181818181818,113,0,28,_Heartfelt_folk-pop-rock_Guitar,6,5,_Heartfelt_folk-pop-rock_Guitar,0.08797945827245712,0
60,100,0.1590909090909091,285,0,28,_Heartfelt_folk-pop-rock_Guitar,6,3,_Heartfelt_folk-pop-rock_Guitar,0.09298551827669144,0
60,100,0.2818181818181818,422,0,28,_Heartfelt_folk-pop-rock_Guitar,6,5,_Heartfelt_folk-pop-rock_Guitar,0.10995084047317505,0
55,100,0.35909090909090907,567,0,28,_Heartfelt_folk-pop-rock_Guitar,6,6,_Heartfelt_folk-pop-rock_Guitar,0.12867195904254913,0
55,100,0.3409090909090909,650,0,28,_Heartfelt_folk-pop-rock_Guitar,6,5,_Heartfelt_folk-pop-rock_Guitar,0.18221916258335114,0
62,100,0.21818181818181817,17,1,29,_Heartfelt_folk-pop-rock_Guitar,6,3,_Heartfelt_folk-pop-rock_Guitar,0.9984879493713379,1
65,100,0.1,100,0,29,_Heartfelt_folk-pop-rock_Guitar,6,2,_Heartfelt_folk-pop-rock_Guitar,0.0633523240685463,0
53,100,0.3409090909090909,470,1,29,_Heartfelt_folk-pop-rock_Guitar,6,5,_Heartfelt_folk-pop-rock_Guitar,0.0582868829369545,0
53,100,0.1590909090909091,571,0,29,_Heartfelt_folk-pop-rock_Guitar,6,3,_Heartfelt_folk-pop-rock_Guitar,0.061360105872154236,0
53,100,0.2818181818181818,638,0,29,_Heartfelt_folk-pop-rock_Guitar,6,5,_Heartfelt_folk-pop-rock_Guitar,0.07168145477771759,0
53,100,0.35909090909090907,770,0,29,_Heartfelt_folk-pop-rock_Guitar,6,6,_Heartfelt_folk-pop-rock_Guitar,0.08473377674818039,0
53,100,0.35909090909090907,870,0,29,_Heartfelt_folk-pop-rock_Guitar,6,6,_Heartfelt_folk-pop-rock_Guitar,0.1263483613729477,0
55,100,0.1,179,1,30,_Heartfelt_folk-pop-rock_Guitar,6,2,_Heartfelt_folk-pop-rock_Guitar,0.9983232617378235,1
53,100,0.2590909090909091,791,1,30,_Heartfelt_folk-pop-rock_Guitar,6,4,_Heartfelt_folk-pop-rock_Guitar,0.5462098717689514,1
53,100,0.32272727272727275,3,1,31,_Heartfelt_folk-pop-rock_Guitar,6,5,_Heartfelt_folk-pop-rock_Guitar,0.9990094900131226,1
53,100,0.3,79,0,31,_Heartfelt_folk-pop-rock_Guitar,6,5,_Heartfelt_folk-pop-rock_Guitar,0.23322899639606476,0
53,100,0.21818181818181817,198,0,31,_Heartfelt_folk-pop-rock_Guitar,6,3,_Heartfelt_folk-pop-rock_Guitar,0.27058666944503784,0
53,100,0.759090909090909,347,0,31,_Heartfelt_folk-pop-rock_Guitar,6,12,_Heartfelt_folk-pop-rock_Guitar,0.3579166829586029,0
55,100,0.18181818181818182,268,1,32,_Heartfelt_folk-pop-rock_Guitar,6,3,_Heartfelt_folk-pop-rock_Guitar,0.9792245030403137,1
53,100,0.5,651,1,33,_Heartfelt_folk-pop-rock_Guitar,6,8,_Heartfelt_folk-pop-rock_Guitar,0.9792240262031555,1
53,100,0.1409090909090909,91,1,34,_Heartfelt_folk-pop-rock_Guitar,6,2,_Heartfelt_folk-pop-rock_Guitar,0.9990094900131226,1
53,100,0.3409090909090909,211,0,34,_Heartfelt_folk-pop-rock_Guitar,6,5,_Heartfelt_folk-pop-rock_Guitar,0.233228862285614,0
53,100,0.23636363636363636,325,0,34,_Heartfelt_folk-pop-rock_Guitar,6,4,_Heartfelt_folk-pop-rock_Guitar,0.2705834209918976,0
55,100,0.12272727272727273,386,0,34,_Heartfelt_folk-pop-rock_Guitar,6,2,_Heartfelt_folk-pop-rock_Guitar,0.3579312264919281,0
53,100,0.740909090909091,418,1,35,_Heartfelt_folk-pop-rock_Guitar,6,12,_Heartfelt_folk-pop-rock_Guitar,0.9983231425285339,1
55,100,0.21818181818181817,836,1,35,_Heartfelt_folk-pop-rock_Guitar,6,3,_Heartfelt_folk-pop-rock_Guitar,0.5462146401405334,1
57,100,0.2636363636363636,334,1,36,_Heartfelt_folk-pop-rock_Guitar,6,4,_Heartfelt_folk-pop-rock_Guitar,0.9988439083099365,1
53,100,0.2818181818181818,506,0,36,_Heartfelt_folk-pop-rock_Guitar,6,5,_Heartfelt_folk-pop-rock_Guitar,0.13798311352729797,0
60,100,0.3,590,0,36,_Heartfelt_folk-pop-rock_Guitar,6,5,_Heartfelt_folk-pop-rock_Guitar,0.1623648703098297,0
69,100,0.17727272727272728,801,0,36,_Heartfelt_folk-pop-rock_Guitar,6,3,_Heartfelt_folk-pop-rock_Guitar,0.1910531371831894,0
53,100,0.6181818181818182,875,0,36,_Heartfelt_folk-pop-rock_Guitar,6,10,_Heartfelt_folk-pop-rock_Guitar,0.2619584798812866,0
60,100,0.2409090909090909,185,1,37,_Heartfelt_folk-pop-rock_Guitar,6,4,_Heartfelt_folk-pop-rock_Guitar,0.9986506104469299,1
55,100,0.35909090909090907,286,0,37,_Heartfelt_folk-pop-rock_Guitar,6,6,_Heartfelt_folk-pop-rock_Guitar,0.08798234909772873,0
55,100,0.4,471,0,37,_Heartfelt_folk-pop-rock_Guitar,6,6,_Heartfelt_folk-pop-rock_Guitar,0.09298677742481232,0
55,100,0.43636363636363634,700,0,37,_Heartfelt_folk-pop-rock_Guitar,6,7,_Heartfelt_folk-pop-rock_Guitar,0.10995402187108994,0
55,100,0.16363636363636364,818,0,37,_Heartfelt_folk-pop-rock_Guitar,6,3,_Heartfelt_folk-pop-rock_Guitar,0.1286756694316864,0
55,100,0.1409090909090909,858,0,37,_Heartfelt_folk-pop-rock_Guitar,6,2,_Heartfelt_folk-pop-rock_Guitar,0.18222057819366455,0
53,100,0.1590909090909091,56,1,38,_Heartfelt_folk-pop-rock_Guitar,6,3,_Heartfelt_folk-pop-rock_Guitar,0.9988439083099365,1
53,100,0.2772727272727273,251,0,38,_Heartfelt_folk-pop-rock_Guitar,6,4,_Heartfelt_folk-pop-rock_Guitar,0.1379789263010025,0
53,100,0.6,370,0,38,_Heartfelt_folk-pop-rock_Guitar,6,10,_Heartfelt_folk-pop-rock_Guitar,0.16236022114753723,0
60,100,0.6,531,0,38,_Heartfelt_folk-pop-rock_Guitar,6,10,_Heartfelt_folk-pop-rock_Guitar,0.19105428457260132,0
55,100,0.1409090909090909,694,0,38,_Heartfelt_folk-pop-rock_Guitar,6,2,_Heartfelt_folk-pop-rock_Guitar,0.2619650959968567,0
57,100,0.32272727272727275,276,1,39,_Heartfelt_folk-pop-rock_Guitar,6,5,_Heartfelt_folk-pop-rock_Guitar,0.9984879493713379,1
53,100,0.3,356,0,39,_Heartfelt_folk-pop-rock_Guitar,6,5,_Heartfelt_folk-pop-rock_Guitar,0.06335242092609406,0
53,100,0.18181818181818182,431,0,39,_Heartfelt_folk-pop-rock_Guitar,6,3,_Heartfelt_folk-pop-rock_Guitar,0.05828674137592316,0
53,100,0.11818181818181818,633,0,39,_Heartfelt_folk-pop-rock_Guitar,6,2,_Heartfelt_folk-pop-rock_Guitar,0.06135931611061096,0
53,100,0.13636363636363635,721,0,39,_Heartfelt_folk-pop-rock_Guitar,6,2,_Heartfelt_folk-pop-rock_Guitar,0.07167919725179672,0
60,100,0.2,770,0,39,_Heartfelt_folk-pop-rock_Guitar,6,3,_Heartfelt_folk-pop-rock_Guitar,0.08473137021064758,0
69,100,0.2818181818181818,818,0,39,_Heartfelt_folk-pop-rock_Guitar,6,5,_Heartfelt_folk-pop-rock_Guitar,0.12634341418743134,0
53,100,0.3409090909090909,4,1,40,_Heartfelt_folk-pop-rock_Guitar,6,5,_Heartfelt_folk-pop-rock_Guitar,0.9983735084533691,1
55,100,0.2818181818181818,91,0,40,_Heartfelt_folk-pop-rock_Guitar,6,5,_Heartfelt_folk-pop-rock_Guitar,0.05105021595954895,0
55,100,0.2409090909090909,273,0,40,_Heartfelt_folk-pop-rock_Guitar,6,4,_Heartfelt_folk-pop-rock_Guitar,0.04161324352025986,0
55,100,0.3181818181818182,330,0,40,_Heartfelt_folk-pop-rock_Guitar,6,5,_Heartfelt_folk-pop-rock_Guitar,0.037980034947395325,0
55,100,0.6409090909090909,421,0,40,_Heartfelt_folk-pop-rock_Guitar,6,10,_Heartfelt_folk-pop-rock_Guitar,0.03926049545407295,0
55,100,0.11818181818181818,581,0,40,_Heartfelt_folk-pop-rock_Guitar,6,2,_Heartfelt_folk-pop-rock_Guitar,0.04616529121994972,0
55,100,0.4772727272727273,700,0,40,_Heartfelt_folk-pop-rock_Guitar,6,8,_Heartfelt_folk-pop-rock_Guitar,0.05713139474391937,0
53,100,0.1,826,0,40,_Heartfelt_folk-pop-rock_Guitar,6,2,_Heartfelt_folk-pop-rock_Guitar,0.09187765419483185,0
55,100,0.12272727272727273,13,1,41,_Heartfelt_folk-pop-rock_Guitar,6,2,_Heartfelt_folk-pop-rock_Guitar,0.9792243838310242,1
58,100,0.18181818181818182,13,1,48,_Heartfelt_folk-pop-rock_Guitar,6,3,_Heartfelt_folk-pop-rock_Guitar,0.9990094900131226,1
53,100,0.11818181818181818,96,0,48,_Heartfelt_folk-pop-rock_Guitar,6,2,_Heartfelt_folk-pop-rock_Guitar,0.2332186996936798,0
53,100,0.11818181818181818,471,1,48,_Heartfelt_folk-pop-rock_Guitar,6,2,_Heartfelt_folk-pop-rock_Guitar,0.27057453989982605,0
53,100,0.11818181818181818,633,0,48,_Heartfelt_folk-pop-rock_Guitar,6,2,_Heartfelt_folk-pop-rock_Guitar,0.35792604088783264,0
53,100,0.1590909090909091,105,1,49,_Heartfelt_folk-pop-rock_Guitar,6,3,_Heartfelt_folk-pop-rock_Guitar,0.9990094900131226,1
53,100,0.1409090909090909,144,0,49,_Heartfelt_folk-pop-rock_Guitar,6,2,_Heartfelt_folk-pop-rock_Guitar,0.23322664201259613,0
60,100,0.2409090909090909,431,1,49,_Heartfelt_folk-pop-rock_Guitar,6,4,_Heartfelt_folk-pop-rock_Guitar,0.2705775797367096,0
64,100,0.2818181818181818,628,0,49,_Heartfelt_folk-pop-rock_Guitar,6,5,_Heartfelt_folk-pop-rock_Guitar,0.35792484879493713,0
60,100,0.22272727272727272,431,1,50,_Heartfelt_folk-pop-rock_Guitar,6,4,_Heartfelt_folk-pop-rock_Guitar,0.9983232617378235,1
59,100,0.17727272727272728,501,0,50,_Heartfelt_folk-pop-rock_Guitar,6,3,_Heartfelt_folk-pop-rock_Guitar,0.5462124347686768,1
53,100,0.11818181818181818,105,1,51,_Heartfelt_folk-pop-rock_Guitar,6,2,_Heartfelt_folk-pop-rock_Guitar,0.9990094900131226,1
58,100,0.1590909090909091,131,0,51,_Heartfelt_folk-pop-rock_Guitar,6,3,_Heartfelt_folk-pop-rock_Guitar,0.23323088884353638,0
53,100,0.21818181818181817,405,1,51,_Heartfelt_folk-pop-rock_Guitar,6,3,_Heartfelt_folk-pop-rock_Guitar,0.27057865262031555,0
53,100,0.21818181818181817,603,0,51,_Heartfelt_folk-pop-rock_Guitar,6,3,_Heartfelt_folk-pop-rock_Guitar,0.3579193651676178,0
55,100,0.32272727272727275,848,1,52,_Heartfelt_folk-pop-rock_Guitar,6,5,_Heartfelt_folk-pop-rock_Guitar,0.9792240262031555,1
55,100,0.1,276,1,53,_Heartfelt_folk-pop-rock_Guitar,6,2,_Heartfelt_folk-pop-rock_Guitar,0.9792241454124451,1
53,100,0.11818181818181818,646,1,54,_Heartfelt_folk-pop-rock_Guitar,6,2,_Heartfelt_folk-pop-rock_Guitar,0.9983231425285339,1
53,100,0.12272727272727273,761,0,54,_Heartfelt_folk-pop-rock_Guitar,6,2,_Heartfelt_folk-pop-rock_Guitar,0.5462117195129395,1
53,100,0.5409090909090909,118,1,55,_Heartfelt_folk-pop-rock_Guitar,6,9,_Heartfelt_folk-pop-rock_Guitar,0.9990094900131226,1
65,100,0.12272727272727273,311,0,55,_Heartfelt_folk-pop-rock_Guitar,6,2,_Heartfelt_folk-pop-rock_Guitar,0.23322783410549164,0
60,100,0.6409090909090909,453,0,55,_Heartfelt_folk-pop-rock_Guitar,6,10,_Heartfelt_folk-pop-rock_Guitar,0.2705758810043335,0
60,100,0.1409090909090909,598,0,55,_Heartfelt_folk-pop-rock_Guitar,6,2,_Heartfelt_folk-pop-rock_Guitar,0.35793164372444153,0
60,100,0.7227272727272728,144,1,56,_Heartfelt_folk-pop-rock_Guitar,6,12,_Heartfelt_folk-pop-rock_Guitar,0.9990094900131226,1
62,100,0.22272727272727272,334,0,56,_Heartfelt_folk-pop-rock_Guitar,6,4,_Heartfelt_folk-pop-rock_Guitar,0.23323245346546173,0
55,100,0.2590909090909091,471,0,56,_Heartfelt_folk-pop-rock_Guitar,6,4,_Heartfelt_folk-pop-rock_Guitar,0.27059081196784973,0
55,100,0.4772727272727273,581,0,56,_Heartfelt_folk-pop-rock_Guitar,6,8,_Heartfelt_folk-pop-rock_Guitar,0.3579264283180237,0
55,100,0.36363636363636365,619,1,57,_Heartfelt_folk-pop-rock_Guitar,6,6,_Heartfelt_folk-pop-rock_Guitar,0.9990280866622925,1
55,100,0.3409090909090909,708,0,57,_Heartfelt_folk-pop-rock_Guitar,6,5,_Heartfelt_folk-pop-rock_Guitar,0.37034541368484497,0
57,100,0.1590909090909091,801,0,57,_Heartfelt_folk-pop-rock_Guitar,6,3,_Heartfelt_folk-pop-rock_Guitar,0.4561634659767151,0
53,100,0.759090909090909,338,1,59,_Heartfelt_folk-pop-rock_Guitar,6,12,_Heartfelt_folk-pop-rock_Guitar,0.9792238473892212,1
74,100,1.0636363636363637,774,1,63,_Heartfelt_folk-pop-rock_Guitar,6,15,_Heartfelt_folk-pop-rock_Guitar,0.9792243838310242,1
72,100,1.6772727272727272,127,1,64,_Heartfelt_folk-pop-rock_Guitar,6,15,_Heartfelt_folk-pop-rock_Guitar,0.9792234897613525,1
53,100,0.13636363636363635,40,1,65,_Heartfelt_folk-pop-rock_Guitar,6,2,_Heartfelt_folk-pop-rock_Guitar,0.9990094900131226,1
53,100,0.1409090909090909,189,0,65,_Heartfelt_folk-pop-rock_Guitar,6,2,_Heartfelt_folk-pop-rock_Guitar,0.23322793841362,0
53,100,0.2409090909090909,267,0,65,_Heartfelt_folk-pop-rock_Guitar,6,4,_Heartfelt_folk-pop-rock_Guitar,0.270579993724823,0
53,100,0.6818181818181818,506,1,65,_Heartfelt_folk-pop-rock_Guitar,6,11,_Heartfelt_folk-pop-rock_Guitar,0.35792574286460876,0
55,100,0.1409090909090909,30,1,66,_Heartfelt_folk-pop-rock_Guitar,6,2,_Heartfelt_folk-pop-rock_Guitar,0.9988439083099365,1
55,100,0.1409090909090909,179,0,66,_Heartfelt_folk-pop-rock_Guitar,6,2,_Heartfelt_folk-pop-rock_Guitar,0.1379825323820114,0
53,100,0.3181818181818182,326,0,66,_Heartfelt_folk-pop-rock_Guitar,6,5,_Heartfelt_folk-pop-rock_Guitar,0.16235873103141785,0
62,100,0.3181818181818182,559,1,66,_Heartfelt_folk-pop-rock_Guitar,6,5,_Heartfelt_folk-pop-rock_Guitar,0.19105345010757446,0
53,100,0.12272727272727273,870,1,66,_Heartfelt_folk-pop-rock_Guitar,6,2,_Heartfelt_folk-pop-rock_Guitar,0.26196473836898804,0
53,100,0.22272727272727272,157,1,67,_Heartfelt_folk-pop-rock_Guitar,6,4,_Heartfelt_folk-pop-rock_Guitar,0.9984879493713379,1
53,100,0.2590909090909091,299,0,67,_Heartfelt_folk-pop-rock_Guitar,6,4,_Heartfelt_folk-pop-rock_Guitar,0.06335202604532242,0
53,100,0.18181818181818182,396,0,67,_Heartfelt_folk-pop-rock_Guitar,6,3,_Heartfelt_folk-pop-rock_Guitar,0.05828649178147316,0
53,100,0.1409090909090909,619,0,67,_Heartfelt_folk-pop-rock_Guitar,6,2,_Heartfelt_folk-pop-rock_Guitar,0.06135737895965576,0
60,100,0.1409090909090909,660,0,67,_Heartfelt_folk-pop-rock_Guitar,6,2,_Heartfelt_folk-pop-rock_Guitar,0.07167797535657883,0
53,100,0.1590909090909091,695,0,67,_Heartfelt_folk-pop-rock_Guitar,6,3,_Heartfelt_folk-pop-rock_Guitar,0.08472885936498642,0
53,100,0.18181818181818182,783,0,67,_Heartfelt_folk-pop-rock_Guitar,6,3,_Heartfelt_folk-pop-rock_Guitar,0.12633974850177765,0
53,100,0.1409090909090909,43,1,68,_Heartfelt_folk-pop-rock_Guitar,6,2,_Heartfelt_folk-pop-rock_Guitar,0.9988439083099365,1
53,100,0.3409090909090909,352,1,68,_Heartfelt_folk-pop-rock_Guitar,6,5,_Heartfelt_folk-pop-rock_Guitar,0.13798052072525024,0
53,100,0.32272727272727275,443,0,68,_Heartfelt_folk-pop-rock_Guitar,6,5,_Heartfelt_folk-pop-rock_Guitar,0.16237014532089233,0
55,100,0.22272727272727272,553,0,68,_Heartfelt_folk-pop-rock_Guitar,6,4,_Heartfelt_folk-pop-rock_Guitar,0.19105887413024902,0
55,100,0.18181818181818182,673,0,68,_Heartfelt_folk-pop-rock_Guitar,6,3,_Heartfelt_folk-pop-rock_Guitar,0.2619653046131134,0
53,100,0.2,184,1,69,_Heartfelt_folk-pop-rock_Guitar,6,3,_Heartfelt_folk-pop-rock_Guitar,0.9983232617378235,1
60,100,0.5772727272727273,514,1,69,_Heartfelt_folk-pop-rock_Guitar,6,9,_Heartfelt_folk-pop-rock_Guitar,0.5462183952331543,1
54,100,0.1,3,1,70,_Heartfelt_folk-pop-rock_Guitar,6,2,_Heartfelt_folk-pop-rock_Guitar,0.9983735084533691,1
53,100,0.12272727272727273,26,0,70,_Heartfelt_folk-pop-rock_Guitar,6,2,_Heartfelt_folk-pop-rock_Guitar,0.051047272980213165,0
53,100,0.11818181818181818,172,0,70,_Heartfelt_folk-pop-rock_Guitar,6,2,_Heartfelt_folk-pop-rock_Guitar,0.041610490530729294,0
53,100,0.1590909090909091,237,0,70,_Heartfelt_folk-pop-rock_Guitar,6,3,_Heartfelt_folk-pop-rock_Guitar,0.03797703608870506,0
65,100,0.1409090909090909,273,0,70,_Heartfelt_folk-pop-rock_Guitar,6,2,_Heartfelt_folk-pop-rock_Guitar,0.03925754874944687,0
53,100,0.21818181818181817,396,0,70,_Heartfelt_folk-pop-rock_Guitar,6,3,_Heartfelt_folk-pop-rock_Guitar,0.04616197571158409,0
53,100,0.11818181818181818,480,0,70,_Heartfelt_folk-pop-rock_Guitar,6,2,_Heartfelt_folk-pop-rock_Guitar,0.05712772160768509,0
53,100,0.1,633,0,70,_Heartfelt_folk-pop-rock_Guitar,6,2,_Heartfelt_folk-pop-rock_Guitar,0.09187459945678711,0
53,100,0.4409090909090909,9,1,71,_Heartfelt_folk-pop-rock_Guitar,6,7,_Heartfelt_folk-pop-rock_Guitar,0.9988439083099365,1
53,100,0.5772727272727273,150,0,71,_Heartfelt_folk-pop-rock_Guitar,6,9,_Heartfelt_folk-pop-rock_Guitar,0.13798242807388306,0
60,100,0.17727272727272728,282,0,71,_Heartfelt_folk-pop-rock_Guitar,6,3,_Heartfelt_folk-pop-rock_Guitar,0.16236324608325958,0
53,100,0.11818181818181818,339,0,71,_Heartfelt_folk-pop-rock_Guitar,6,2,_Heartfelt_folk-pop-rock_Guitar,0.19105662405490875,0
53,100,0.18181818181818182,619,1,71,_Heartfelt_folk-pop-rock_Guitar,6,3,_Heartfelt_folk-pop-rock_Guitar,0.2619618773460388,0
53,100,0.1590909090909091,0,1,72,_Heartfelt_folk-pop-rock_Guitar,6,3,_Heartfelt_folk-pop-rock_Guitar,0.9990280866622925,1
62,100,0.6181818181818182,176,0,72,_Heartfelt_folk-pop-rock_Guitar,6,10,_Heartfelt_folk-pop-rock_Guitar,0.3703421354293823,0
53,100,0.2409090909090909,756,1,72,_Heartfelt_folk-pop-rock_Guitar,6,4,_Heartfelt_folk-pop-rock_Guitar,0.45618143677711487,0
53,100,0.12272727272727273,13,1,73,_Heartfelt_folk-pop-rock_Guitar,6,2,_Heartfelt_folk-pop-rock_Guitar,0.9984879493713379,1
53,100,0.22272727272727272,113,0,73,_Heartfelt_folk-pop-rock_Guitar,6,4,_Heartfelt_folk-pop-rock_Guitar,0.06335122138261795,0
53,100,0.1409090909090909,273,0,73,_Heartfelt_folk-pop-rock_Guitar,6,2,_Heartfelt_folk-pop-rock_Guitar,0.05828608572483063,0
60,100,0.11818181818181818,404,0,73,_Heartfelt_folk-pop-rock_Guitar,6,2,_Heartfelt_folk-pop-rock_Guitar,0.061359331011772156,0
60,100,0.2,440,0,73,_Heartfelt_folk-pop-rock_Guitar,6,3,_Heartfelt_folk-pop-rock_Guitar,0.07168002426624298,0
53,100,0.1,650,0,73,_Heartfelt_folk-pop-rock_Guitar,6,2,_Heartfelt_folk-pop-rock_Guitar,0.08472958207130432,0
53,100,0.2590909090909091,722,0,73,_Heartfelt_folk-pop-rock_Guitar,6,4,_Heartfelt_folk-pop-rock_Guitar,0.12634707987308502,0
53,100,0.1,110,1,74,_Heartfelt_folk-pop-rock_Guitar,6,2,_Heartfelt_folk-pop-rock_Guitar,0.9983231425285339,1
53,100,0.21818181818181817,163,0,74,_Heartfelt_folk-pop-rock_Guitar,6,3,_Heartfelt_folk-pop-rock_Guitar,0.54621422290802,1
60,100,0.12272727272727273,356,1,75,_Heartfelt_folk-pop-rock_Guitar,6,2,_Heartfelt_folk-pop-rock_Guitar,0.9990280866622925,1
53,100,0.1590909090909091,540,0,75,_Heartfelt_folk-pop-rock_Guitar,6,3,_Heartfelt_folk-pop-rock_Guitar,0.3703305423259735,0
58,100,0.11818181818181818,633,0,75,_Heartfelt_folk-pop-rock_Guitar,6,2,_Heartfelt_folk-pop-rock_Guitar,0.45616623759269714,0
52,100,0.2409090909090909,528,1,0,DL_Guitar,6,4,DL_Guitar,0.9990280866622925,1
52,100,0.3,660,0,0,DL_Guitar,6,5,DL_Guitar,0.3703376054763794,0
52,100,0.42272727272727273,761,0,0,DL_Guitar,6,7,DL_Guitar,0.4561671316623688,0
64,100,0.16363636363636364,4,1,1,DL_Guitar,6,3,DL_Guitar,0.9792243838310242,1
52,100,0.17727272727272728,229,1,2,DL_Guitar,6,3,DL_Guitar,0.9983231425285339,1
52,100,0.38181818181818183,409,0,2,DL_Guitar,6,6,DL_Guitar,0.5462160706520081,1
56,100,0.2,488,1,3,DL_Guitar,6,3,DL_Guitar,0.9983231425285339,1
56,100,0.1590909090909091,546,0,3,DL_Guitar,6,3,DL_Guitar,0.5462083220481873,1
52,100,0.17727272727272728,184,1,4,DL_Guitar,6,3,DL_Guitar,0.9990280866622925,1
52,100,0.17727272727272728,317,0,4,DL_Guitar,6,3,DL_Guitar,0.37033557891845703,0
52,100,0.1590909090909091,458,0,4,DL_Guitar,6,3,DL_Guitar,0.45617154240608215,0
52,100,0.2772727272727273,700,1,5,DL_Guitar,6,4,DL_Guitar,0.9792246222496033,1
64,100,0.2,757,1,6,DL_Guitar,6,3,DL_Guitar,0.9983232617378235,1
64,100,0.12272727272727273,839,0,6,DL_Guitar,6,2,DL_Guitar,0.5462156534194946,1
57,100,0.13636363636363635,238,1,7,DL_Guitar,6,2,DL_Guitar,0.9990280866622925,1
52,100,0.12272727272727273,629,1,7,DL_Guitar,6,2,DL_Guitar,0.3703404366970062,0
52,100,0.17727272727272728,757,0,7,DL_Guitar,6,3,DL_Guitar,0.45616674423217773,0
64,100,0.1,8,1,8,DL_Guitar,6,2,DL_Guitar,0.9983735084533691,1
52,100,0.1,92,0,8,DL_Guitar,6,2,DL_Guitar,0.051050685346126556,0
52,100,0.2772727272727273,127,0,8,DL_Guitar,6,4,DL_Guitar,0.041612472385168076,0
52,100,0.11818181818181818,237,0,8,DL_Guitar,6,2,DL_Guitar,0.037981897592544556,0
57,100,0.2590909090909091,285,0,8,DL_Guitar,6,4,DL_Guitar,0.03926243633031845,0
57,100,1.0,369,0,8,DL_Guitar,6,15,DL_Guitar,0.04616842046380043,0
52,100,0.2,708,1,8,DL_Guitar,6,3,DL_Guitar,0.05713647976517677,0
52,100,0.2590909090909091,857,0,8,DL_Guitar,6,4,DL_Guitar,0.09188438206911087,0
57,100,0.1590909090909091,34,1,9,DL_Guitar,6,3,DL_Guitar,0.9983232617378235,1
56,100,0.2590909090909091,835,1,9,DL_Guitar,6,4,DL_Guitar,0.546213686466217,1
52,100,0.2,48,1,10,DL_Guitar,6,3,DL_Guitar,0.9988439083099365,1
52,100,0.1,118,0,10,DL_Guitar,6,2,DL_Guitar,0.1379823237657547,0
52,100,0.1,144,0,10,DL_Guitar,6,2,DL_Guitar,0.1623692363500595,0
54,100,0.1,330,0,10,DL_Guitar,6,2,DL_Guitar,0.19106082618236542,0
54,100,0.1590909090909091,854,1,10,DL_Guitar,6,3,DL_Guitar,0.261976033449173,0
54,100,0.2,30,1,11,DL_Guitar,6,3,DL_Guitar,0.9983232617378235,1
64,100,0.1,770,1,11,DL_Guitar,6,2,DL_Guitar,0.5462167859077454,1
52,100,0.22272727272727272,826,1,12,DL_Guitar,6,4,DL_Guitar,0.9792242646217346,1
52,100,0.5,598,1,13,DL_Guitar,6,8,DL_Guitar,0.9990280866622925,1
52,100,0.42272727272727273,730,0,13,DL_Guitar,6,7,DL_Guitar,0.37033775448799133,0
52,100,0.18181818181818182,835,0,13,DL_Guitar,6,3,DL_Guitar,0.456173837184906,0
52,100,0.21818181818181817,22,1,14,DL_Guitar,6,3,DL_Guitar,0.9983232617378235,1
64,100,0.1409090909090909,835,1,14,DL_Guitar,6,2,DL_Guitar,0.5462176203727722,1
71,100,0.12272727272727273,233,1,15,DL_Guitar,6,2,DL_Guitar,0.9990280866622925,1
54,100,0.13636363636363635,766,1,15,DL_Guitar,6,2,DL_Guitar,0.3703402578830719,0
54,100,0.11818181818181818,809,0,15,DL_Guitar,6,2,DL_Guitar,0.45617303252220154,0
56,100,0.2,663,1,17,DL_Guitar,6,3,DL_Guitar,0.979223370552063,1
60,100,0.37727272727272726,96,1,19,DL_Guitar,6,6,DL_Guitar,0.9792242646217346,1
66,100,0.2772727272727273,40,1,20,DL_Guitar,6,4,DL_Guitar,0.9988439083099365,1
54,100,0.4409090909090909,140,0,20,DL_Guitar,6,7,DL_Guitar,0.13798455893993378,0
54,100,0.4,272,0,20,DL_Guitar,6,6,DL_Guitar,0.16236825287342072,0
56,100,0.2818181818181818,550,1,20,DL_Guitar,6,5,DL_Guitar,0.19105590879917145,0
56,100,0.37727272727272726,756,0,20,DL_Guitar,6,6,DL_Guitar,0.2619657516479492,0
52,100,0.16363636363636364,3,1,21,DL_Guitar,6,3,DL_Guitar,0.9983004927635193,1
59,100,0.1,241,1,21,DL_Guitar,6,2,DL_Guitar,0.044662993401288986,0
52,100,0.3,339,0,21,DL_Guitar,6,5,DL_Guitar,0.03337278217077255,0
57,100,0.17727272727272728,413,0,21,DL_Guitar,6,3,DL_Guitar,0.02694881707429886,0
52,100,0.3,453,0,21,DL_Guitar,6,5,DL_Guitar,0.024085160344839096,0
52,100,0.21818181818181817,523,0,21,DL_Guitar,6,3,DL_Guitar,0.02497420832514763,0
52,100,0.11818181818181818,712,0,21,DL_Guitar,6,2,DL_Guitar,0.03064965270459652,0
64,100,0.2,787,0,21,DL_Guitar,6,3,DL_Guitar,0.04137100651860237,0
52,100,0.13636363636363635,831,0,21,DL_Guitar,6,2,DL_Guitar,0.07207131385803223,0
52,100,0.21818181818181817,0,1,22,DL_Guitar,6,3,DL_Guitar,0.9988439083099365,1
52,100,0.1,52,0,22,DL_Guitar,6,2,DL_Guitar,0.13798558712005615,0
57,100,0.17727272727272728,75,0,22,DL_Guitar,6,3,DL_Guitar,0.16237086057662964,0
57,100,0.38181818181818183,175,0,22,DL_Guitar,6,6,DL_Guitar,0.19106519222259521,0
57,100,0.1,567,1,22,DL_Guitar,6,2,DL_Guitar,0.26197609305381775,0
54,100,0.1409090909090909,308,1,23,DL_Guitar,6,2,DL_Guitar,0.9983232617378235,1
54,100,0.1409090909090909,550,1,23,DL_Guitar,6,2,DL_Guitar,0.5462133884429932,1
59,100,0.16363636363636364,466,1,24,DL_Guitar,6,3,DL_Guitar,0.9990280866622925,1
54,100,0.1409090909090909,571,0,24,DL_Guitar,6,2,DL_Guitar,0.37033697962760925,0
55,100,0.1409090909090909,691,0,24,DL_Guitar,6,2,DL_Guitar,0.4561702609062195,0
64,100,0.3,167,1,25,DL_Guitar,6,5,DL_Guitar,0.9990280866622925,1
52,100,0.22272727272727272,320,0,25,DL_Guitar,6,4,DL_Guitar,0.3703470230102539,0
59,100,0.11818181818181818,831,1,25,DL_Guitar,6,2,DL_Guitar,0.4561687111854553,0
52,100,0.22272727272727272,57,1,26,DL_Guitar,6,4,DL_Guitar,0.9983232617378235,1
52,100,0.6,206,0,26,DL_Guitar,6,10,DL_Guitar,0.5462182760238647,1
52,100,0.16363636363636364,3,1,27,DL_Guitar,6,3,DL_Guitar,0.9990094900131226,1
52,100,0.2636363636363636,48,0,27,DL_Guitar,6,4,DL_Guitar,0.23322570323944092,0
59,100,0.2636363636363636,223,0,27,DL_Guitar,6,4,DL_Guitar,0.2705787718296051,0
52,100,0.12272727272727273,299,0,27,DL_Guitar,6,2,DL_Guitar,0.357931911945343,0
56,100,0.1409090909090909,246,1,29,DL_Guitar,6,2,DL_Guitar,0.9983232617378235,1
52,100,0.2409090909090909,607,1,29,DL_Guitar,6,4,DL_Guitar,0.5462179780006409,1
62,100,0.32272727272727275,752,1,30,DL_Guitar,6,5,DL_Guitar,0.9792227745056152,1
54,100,0.2,215,1,32,DL_Guitar,6,3,DL_Guitar,0.9792243838310242,1
66,100,0.1409090909090909,311,1,33,DL_Guitar,6,2,DL_Guitar,0.9990280866622925,1
66,100,0.22272727272727272,488,0,33,DL_Guitar,6,4,DL_Guitar,0.37033435702323914,0
54,100,0.1,801,1,33,DL_Guitar,6,2,DL_Guitar,0.4561659097671509,0
52,100,0.18181818181818182,69,1,34,DL_Guitar,6,3,DL_Guitar,0.9986506104469299,1
64,100,0.2590909090909091,123,0,34,DL_Guitar,6,4,DL_Guitar,0.08798261731863022,0
59,100,0.12272727272727273,254,0,34,DL_Guitar,6,2,DL_Guitar,0.0929906815290451,0
59,100,0.2,373,0,34,DL_Guitar,6,3,DL_Guitar,0.10995637625455856,0
52,100,0.22272727272727272,716,1,34,DL_Guitar,6,4,DL_Guitar,0.1286771148443222,0
56,100,0.1590909090909091,831,0,34,DL_Guitar,6,3,DL_Guitar,0.18222390115261078,0
52,100,0.1590909090909091,13,1,35,DL_Guitar,6,3,DL_Guitar,0.9983735084533691,1
64,100,0.11818181818181818,105,0,35,DL_Guitar,6,2,DL_Guitar,0.05104951187968254,0
52,100,0.11818181818181818,150,0,35,DL_Guitar,6,2,DL_Guitar,0.04161308333277702,0
52,100,0.22272727272727272,378,0,35,DL_Guitar,6,4,DL_Guitar,0.037979792803525925,0
57,100,0.21818181818181817,483,0,35,DL_Guitar,6,3,DL_Guitar,0.03926056623458862,0
52,100,0.1409090909090909,584,0,35,DL_Guitar,6,2,DL_Guitar,0.0461668036878109,0
64,100,0.1,655,0,35,DL_Guitar,6,2,DL_Guitar,0.05713232234120369,0
52,100,0.21818181818181817,735,0,35,DL_Guitar,6,3,DL_Guitar,0.09188177436590195,0
52,100,0.2590909090909091,56,1,36,DL_Guitar,6,4,DL_Guitar,0.9986506104469299,1
64,100,0.1409090909090909,251,0,36,DL_Guitar,6,2,DL_Guitar,0.08797852694988251,0
64,100,0.2818181818181818,576,1,36,DL_Guitar,6,5,DL_Guitar,0.09298458695411682,0
61,100,0.21818181818181817,660,0,36,DL_Guitar,6,3,DL_Guitar,0.1099478080868721,0
61,100,0.1,716,0,36,DL_Guitar,6,2,DL_Guitar,0.12866906821727753,0
64,100,0.32272727272727275,738,0,36,DL_Guitar,6,5,DL_Guitar,0.18222545087337494,0
64,100,0.18181818181818182,34,1,37,DL_Guitar,6,3,DL_Guitar,0.9983232617378235,1
64,100,0.1,105,0,37,DL_Guitar,6,2,DL_Guitar,0.5462162494659424,1
54,100,0.13636363636363635,193,1,38,DL_Guitar,6,2,DL_Guitar,0.9990094900131226,1
52,100,0.12272727272727273,311,0,38,DL_Guitar,6,2,DL_Guitar,0.23322951793670654,0
64,100,0.1590909090909091,735,1,38,DL_Guitar,6,3,DL_Guitar,0.2705811560153961,0
61,100,0.12272727272727273,861,0,38,DL_Guitar,6,2,DL_Guitar,0.3579308092594147,0
61,100,0.3181818181818182,110,1,39,DL_Guitar,6,5,DL_Guitar,0.9983231425285339,1
56,100,0.1590909090909091,351,1,39,DL_Guitar,6,3,DL_Guitar,0.5462136268615723,1
64,100,0.12272727272727273,91,1,40,DL_Guitar,6,2,DL_Guitar,0.9983232617378235,1
52,100,0.13636363636363635,150,0,40,DL_Guitar,6,2,DL_Guitar,0.5462232828140259,1
54,100,0.5,220,1,41,DL_Guitar,6,8,DL_Guitar,0.9983232617378235,1
54,100,0.1409090909090909,418,0,41,DL_Guitar,6,2,DL_Guitar,0.5462169051170349,1
66,100,0.12272727272727273,4,1,42,DL_Guitar,6,2,DL_Guitar,0.9990280866622925,1
59,100,0.13636363636363635,171,0,42,DL_Guitar,6,2,DL_Guitar,0.3703415095806122,0
54,100,0.5772727272727273,391,0,42,DL_Guitar,6,9,DL_Guitar,0.45616525411605835,0
52,100,0.2590909090909091,171,1,43,DL_Guitar,6,4,DL_Guitar,0.9990094900131226,1
52,100,0.2,260,0,43,DL_Guitar,6,3,DL_Guitar,0.23323364555835724,0
52,100,0.4772727272727273,480,0,43,DL_Guitar,6,8,DL_Guitar,0.27058690786361694,0
52,100,0.3409090909090909,593,0,43,DL_Guitar,6,5,DL_Guitar,0.3579365313053131,0
62,100,0.9181818181818182,31,1,44,DL_Guitar,6,15,DL_Guitar,0.9990280866622925,1
61,100,0.1590909090909091,448,1,44,DL_Guitar,6,3,DL_Guitar,0.3703414797782898,0
64,100,0.5590909090909091,493,0,44,DL_Guitar,6,9,DL_Guitar,0.45617809891700745,0
54,100,0.4409090909090909,26,1,45,DL_Guitar,6,7,DL_Guitar,0.9988439083099365,1
54,100,0.2,131,0,45,DL_Guitar,6,3,DL_Guitar,0.1379813700914383,0
52,100,0.13636363636363635,545,1,45,DL_Guitar,6,2,DL_Guitar,0.1623600721359253,0
59,100,0.12272727272727273,651,0,45,DL_Guitar,6,2,DL_Guitar,0.1910528987646103,0
52,100,0.33636363636363636,721,0,45,DL_Guitar,6,5,DL_Guitar,0.261962354183197,0
54,100,0.2818181818181818,211,1,46,DL_Guitar,6,5,DL_Guitar,0.9990094900131226,1
52,100,0.1409090909090909,571,1,46,DL_Guitar,6,2,DL_Guitar,0.2332313507795334,0
52,100,0.1409090909090909,756,0,46,DL_Guitar,6,2,DL_Guitar,0.2705889344215393,0
52,100,0.11818181818181818,875,0,46,DL_Guitar,6,2,DL_Guitar,0.3579344153404236,0
57,100,0.2772727272727273,40,1,47,DL_Guitar,6,4,DL_Guitar,0.9990094900131226,1
52,100,0.2,101,0,47,DL_Guitar,6,3,DL_Guitar,0.233229860663414,0
52,100,0.11818181818181818,523,1,47,DL_Guitar,6,2,DL_Guitar,0.2705807387828827,0
52,100,0.2590909090909091,584,0,47,DL_Guitar,6,4,DL_Guitar,0.357940137386322,0
52,100,0.42272727272727273,26,1,48,DL_Guitar,6,7,DL_Guitar,0.9983232617378235,1
57,100,0.1,361,1,48,DL_Guitar,6,2,DL_Guitar,0.5462170243263245,1
59,100,0.2772727272727273,251,1,49,DL_Guitar,6,4,DL_Guitar,0.9988439083099365,1
52,100,0.1,545,1,49,DL_Guitar,6,2,DL_Guitar,0.13798192143440247,0
56,100,0.11818181818181818,721,0,49,DL_Guitar,6,2,DL_Guitar,0.16236168146133423,0
52,100,0.2,804,0,49,DL_Guitar,6,3,DL_Guitar,0.1910543143749237,0
52,100,0.11818181818181818,866,0,49,DL_Guitar,6,2,DL_Guitar,0.2619675397872925,0
52,100,0.1409090909090909,69,1,50,DL_Guitar,6,2,DL_Guitar,0.9988439083099365,1
64,100,0.12272727272727273,123,0,50,DL_Guitar,6,2,DL_Guitar,0.13798412680625916,0
52,100,0.1,166,0,50,DL_Guitar,6,2,DL_Guitar,0.162369966506958,0
56,100,0.1590909090909091,506,1,50,DL_Guitar,6,3,DL_Guitar,0.1910591423511505,0
56,100,0.12272727272727273,554,0,50,DL_Guitar,6,2,DL_Guitar,0.2619650661945343,0
54,100,0.6,136,1,52,DL_Guitar,6,10,DL_Guitar,0.9986506104469299,1
57,100,0.3,325,0,52,DL_Guitar,6,5,DL_Guitar,0.08797800540924072,0
59,100,0.1590909090909091,515,0,52,DL_Guitar,6,3,DL_Guitar,0.0929858386516571,0
59,100,0.1590909090909091,568,0,52,DL_Guitar,6,3,DL_Guitar,0.10994955152273178,0
54,100,0.4590909090909091,703,0,52,DL_Guitar,6,7,DL_Guitar,0.12866981327533722,0
54,100,0.3409090909090909,826,0,52,DL_Guitar,6,5,DL_Guitar,0.1822195053100586,0
54,100,0.18181818181818182,408,1,53,DL_Guitar,6,3,DL_Guitar,0.9990094900131226,1
61,100,0.22272727272727272,651,1,53,DL_Guitar,6,4,DL_Guitar,0.23322264850139618,0
61,100,0.1590909090909091,721,0,53,DL_Guitar,6,3,DL_Guitar,0.2705758810043335,0
61,100,0.1,765,0,53,DL_Guitar,6,2,DL_Guitar,0.35792076587677,0
59,100,0.2,0,1,54,DL_Guitar,6,3,DL_Guitar,0.9990280866622925,1
61,100,0.4,206,0,54,DL_Guitar,6,6,DL_Guitar,0.37033846974372864,0
57,100,0.17727272727272728,743,1,54,DL_Guitar,6,3,DL_Guitar,0.45617324113845825,0
57,100,0.1,215,1,55,DL_Guitar,6,2,DL_Guitar,0.9990280866622925,1
52,100,0.5,678,1,55,DL_Guitar,6,8,DL_Guitar,0.3703409731388092,0
52,100,0.6181818181818182,791,0,55,DL_Guitar,6,10,DL_Guitar,0.45617175102233887,0
52,100,0.18181818181818182,136,1,56,DL_Guitar,6,3,DL_Guitar,0.9984879493713379,1
64,100,0.16363636363636364,179,0,56,DL_Guitar,6,3,DL_Guitar,0.06335476785898209,0
52,100,0.6363636363636364,391,0,56,DL_Guitar,6,10,DL_Guitar,0.05828927829861641,0
52,100,0.11818181818181818,568,0,56,DL_Guitar,6,2,DL_Guitar,0.0613633394241333,0
52,100,0.16363636363636364,598,0,56,DL_Guitar,6,3,DL_Guitar,0.0716853216290474,0
52,100,0.5590909090909091,700,0,56,DL_Guitar,6,9,DL_Guitar,0.08473895490169525,0
52,100,0.5818181818181818,839,0,56,DL_Guitar,6,9,DL_Guitar,0.1263563632965088,0
52,100,1.059090909090909,286,1,57,DL_Guitar,6,15,DL_Guitar,0.9990280866622925,1
52,100,0.4409090909090909,541,1,57,DL_Guitar,6,7,DL_Guitar,0.37033867835998535,0
52,100,0.18181818181818182,770,0,57,DL_Guitar,6,3,DL_Guitar,0.4561760127544403,0
52,100,0.12272727272727273,114,1,58,DL_Guitar,6,2,DL_Guitar,0.9990280866622925,1
52,100,0.2,603,1,58,DL_Guitar,6,3,DL_Guitar,0.3703404366970062,0
52,100,0.3,678,0,58,DL_Guitar,6,5,DL_Guitar,0.45617786049842834,0
52,100,0.11818181818181818,523,1,59,DL_Guitar,6,2,DL_Guitar,0.9983232617378235,1
56,100,0.22272727272727272,606,0,59,DL_Guitar,6,4,DL_Guitar,0.5462172031402588,1
57,100,0.3,185,1,60,DL_Guitar,6,5,DL_Guitar,0.9988439083099365,1
52,100,0.18181818181818182,444,1,60,DL_Guitar,6,3,DL_Guitar,0.13798290491104126,0
52,100,0.18181818181818182,488,0,60,DL_Guitar,6,3,DL_Guitar,0.16236452758312225,0
52,100,0.4590909090909091,660,0,60,DL_Guitar,6,7,DL_Guitar,0.19105735421180725,0
52,100,0.11818181818181818,810,0,60,DL_Guitar,6,2,DL_Guitar,0.26197171211242676,0
52,100,0.2,176,1,61,DL_Guitar,6,3,DL_Guitar,0.9988439083099365,1
52,100,0.37727272727272726,361,0,61,DL_Guitar,6,6,DL_Guitar,0.13798312842845917,0
52,100,0.2590909090909091,458,0,61,DL_Guitar,6,4,DL_Guitar,0.16236872971057892,0
64,100,0.42272727272727273,563,0,61,DL_Guitar,6,7,DL_Guitar,0.19105887413024902,0
52,100,0.11818181818181818,655,0,61,DL_Guitar,6,2,DL_Guitar,0.26197350025177,0
64,100,0.2409090909090909,603,1,62,DL_Guitar,6,4,DL_Guitar,0.9990280866622925,1
64,100,0.11818181818181818,660,0,62,DL_Guitar,6,2,DL_Guitar,0.37033703923225403,0
52,100,0.18181818181818182,751,0,62,DL_Guitar,6,3,DL_Guitar,0.4561697542667389,0
52,100,0.11818181818181818,75,1,63,DL_Guitar,6,2,DL_Guitar,0.9990280866622925,1
57,100,0.3409090909090909,246,0,63,DL_Guitar,6,5,DL_Guitar,0.3703441321849823,0
56,100,0.1590909090909091,673,1,63,DL_Guitar,6,3,DL_Guitar,0.45617109537124634,0
54,100,0.21818181818181817,260,1,64,DL_Guitar,6,3,DL_Guitar,0.9988439083099365,1
66,100,0.1409090909090909,462,0,64,DL_Guitar,6,2,DL_Guitar,0.1379835456609726,0
54,100,0.4,563,0,64,DL_Guitar,6,6,DL_Guitar,0.16235792636871338,0
66,100,0.2409090909090909,695,0,64,DL_Guitar,6,4,DL_Guitar,0.19105640053749084,0
54,100,0.1409090909090909,756,0,64,DL_Guitar,6,2,DL_Guitar,0.26196029782295227,0
52,100,0.1,373,1,65,DL_Guitar,6,2,DL_Guitar,0.9983232617378235,1
52,100,0.3181818181818182,770,1,65,DL_Guitar,6,5,DL_Guitar,0.5462141036987305,1
52,100,0.16363636363636364,92,1,66,DL_Guitar,6,3,DL_Guitar,0.9984880685806274,1
52,100,0.2772727272727273,184,0,66,DL_Guitar,6,4,DL_Guitar,0.06335454434156418,0
52,100,0.2409090909090909,273,0,66,DL_Guitar,6,4,DL_Guitar,0.058289896696805954,0
52,100,0.2409090909090909,356,0,66,DL_Guitar,6,4,DL_Guitar,0.06136315315961838,0
52,100,0.13636363636363635,413,0,66,DL_Guitar,6,2,DL_Guitar,0.07168464362621307,0
64,100,0.12272727272727273,509,0,66,DL_Guitar,6,2,DL_Guitar,0.08473710715770721,0
54,100,0.3409090909090909,576,0,66,DL_Guitar,6,5,DL_Guitar,0.12635508179664612,0
52,100,0.3409090909090909,563,1,67,DL_Guitar,6,5,DL_Guitar,0.9990280866622925,1
52,100,0.2818181818181818,686,0,67,DL_Guitar,6,5,DL_Guitar,0.3703383207321167,0
52,100,0.4590909090909091,766,0,67,DL_Guitar,6,7,DL_Guitar,0.45617592334747314,0
59,100,0.18181818181818182,79,1,68,DL_Guitar,6,3,DL_Guitar,0.9983232617378235,1
52,100,0.17727272727272728,523,1,68,DL_Guitar,6,3,DL_Guitar,0.5462145805358887,1
56,100,0.11818181818181818,74,1,69,DL_Guitar,6,2,DL_Guitar,0.9990094900131226,1
59,100,0.4590909090909091,189,0,69,DL_Guitar,6,7,DL_Guitar,0.2332371175289154,0
56,100,0.4409090909090909,430,1,69,DL_Guitar,6,7,DL_Guitar,0.2705792784690857,0
52,100,0.13636363636363635,612,0,69,DL_Guitar,6,2,DL_Guitar,0.3579350709915161,0
52,100,0.1409090909090909,35,1,70,DL_Guitar,6,2,DL_Guitar,0.9990094900131226,1
54,100,0.3,140,0,70,DL_Guitar,6,5,DL_Guitar,0.23323257267475128,0
54,100,0.2409090909090909,399,1,70,DL_Guitar,6,4,DL_Guitar,0.27058497071266174,0
54,100,1.3409090909090908,747,1,70,DL_Guitar,6,15,DL_Guitar,0.35791879892349243,0
54,100,0.2409090909090909,220,1,71,DL_Guitar,6,4,DL_Guitar,0.9988439083099365,1
54,100,0.18181818181818182,286,0,71,DL_Guitar,6,3,DL_Guitar,0.1379818171262741,0
54,100,0.1,453,0,71,DL_Guitar,6,2,DL_Guitar,0.1623617708683014,0
54,100,0.1590909090909091,580,0,71,DL_Guitar,6,3,DL_Guitar,0.1910538673400879,0
61,100,0.1,796,0,71,DL_Guitar,6,2,DL_Guitar,0.2619612216949463,0
61,100,0.42272727272727273,540,1,72,DL_Guitar,6,7,DL_Guitar,0.9792228937149048,1
57,100,0.21818181818181817,242,1,73,DL_Guitar,6,3,DL_Guitar,0.9792242646217346,1
52,100,0.11818181818181818,66,1,74,DL_Guitar,6,2,DL_Guitar,0.9983735084533691,1
52,100,0.2772727272727273,150,0,74,DL_Guitar,6,4,DL_Guitar,0.05105094611644745,0
52,100,0.12272727272727273,289,0,74,DL_Guitar,6,2,DL_Guitar,0.04161285236477852,0
64,100,0.1409090909090909,320,0,74,DL_Guitar,6,2,DL_Guitar,0.037981513887643814,0
52,100,0.12272727272727273,386,0,74,DL_Guitar,6,2,DL_Guitar,0.0392618365585804,0
64,100,0.13636363636363635,413,0,74,DL_Guitar,6,2,DL_Guitar,0.04616720229387283,0
52,100,0.1409090909090909,603,0,74,DL_Guitar,6,2,DL_Guitar,0.05713262781500816,0
52,100,0.2590909090909091,787,0,74,DL_Guitar,6,4,DL_Guitar,0.09188448637723923,0
52,100,0.2590909090909091,79,1,75,DL_Guitar,6,4,DL_Guitar,0.9984879493713379,1
52,100,0.11818181818181818,184,0,75,DL_Guitar,6,2,DL_Guitar,0.06335437297821045,0
52,100,0.1,223,0,75,DL_Guitar,6,2,DL_Guitar,0.058289144188165665,0
52,100,0.12272727272727273,267,0,75,DL_Guitar,6,2,DL_Guitar,0.06136279180645943,0
64,100,0.11818181818181818,316,0,75,DL_Guitar,6,2,DL_Guitar,0.07168560475111008,0
52,100,0.2818181818181818,409,0,75,DL_Guitar,6,5,DL_Guitar,0.08473792672157288,0
52,100,0.22272727272727272,540,0,75,DL_Guitar,6,4,DL_Guitar,0.126357302069664,0
52,100,0.3409090909090909,462,1,76,DL_Guitar,6,5,DL_Guitar,0.9990280866622925,1
52,100,0.12272727272727273,650,0,76,DL_Guitar,6,2,DL_Guitar,0.37033697962760925,0
53,100,0.1,677,0,76,DL_Guitar,6,2,DL_Guitar,0.45616966485977173,0
64,100,0.1,576,1,77,DL_Guitar,6,2,DL_Guitar,0.9792247414588928,1
54,100,0.2,360,1,78,DL_Guitar,6,3,DL_Guitar,0.9792241454124451,1
54,100,0.3,443,1,79,DL_Guitar,6,5,DL_Guitar,0.9983232617378235,1
54,100,0.3409090909090909,682,1,79,DL_Guitar,6,5,DL_Guitar,0.5462145805358887,1
69,100,0.2590909090909091,22,1,80,DL_Guitar,6,4,DL_Guitar,0.9990094900131226,1
54,100,0.12272727272727273,166,0,80,DL_Guitar,6,2,DL_Guitar,0.23322917520999908,0
54,100,0.4590909090909091,519,1,80,DL_Guitar,6,7,DL_Guitar,0.2705767750740051,0
54,100,0.1,633,0,80,DL_Guitar,6,2,DL_Guitar,0.35792475938796997,0
52,100,0.2,106,1,81,DL_Guitar,6,3,DL_Guitar,0.9990094900131226,1
56,100,0.2590909090909091,220,0,81,DL_Guitar,6,4,DL_Guitar,0.23322966694831848,0
52,100,0.8818181818181818,333,0,81,DL_Guitar,6,14,DL_Guitar,0.27058249711990356,0
61,100,0.2590909090909091,760,1,81,DL_Guitar,6,4,DL_Guitar,0.35792818665504456,0
57,100,0.1409090909090909,136,1,82,DL_Guitar,6,2,DL_Guitar,0.9983004927635193,1
61,100,0.18181818181818182,246,0,82,DL_Guitar,6,3,DL_Guitar,0.044663816690444946,0
61,100,0.2772727272727273,347,0,82,DL_Guitar,6,4,DL_Guitar,0.03337303176522255,0
54,100,0.1409090909090909,553,0,82,DL_Guitar,6,2,DL_Guitar,0.026950253173708916,0
54,100,0.3,646,0,82,DL_Guitar,6,5,DL_Guitar,0.024085072800517082,0
54,100,0.1590909090909091,716,0,82,DL_Guitar,6,3,DL_Guitar,0.024974826723337173,0
57,100,0.18181818181818182,752,0,82,DL_Guitar,6,3,DL_Guitar,0.03064858913421631,0
62,100,0.1,826,0,82,DL_Guitar,6,2,DL_Guitar,0.041370704770088196,0
62,100,0.1,853,0,82,DL_Guitar,6,2,DL_Guitar,0.07207264006137848,0
54,100,0.32272727272727275,136,1,83,DL_Guitar,6,5,DL_Guitar,0.9990280866622925,1
57,100,0.4,233,0,83,DL_Guitar,6,6,DL_Guitar,0.3703387975692749,0
52,100,0.1,839,1,83,DL_Guitar,6,2,DL_Guitar,0.45617660880088806,0
52,100,0.43636363636363634,83,1,84,DL_Guitar,6,7,DL_Guitar,0.9988439083099365,1
59,100,0.1409090909090909,210,0,84,DL_Guitar,6,2,DL_Guitar,0.13798117637634277,0
64,100,0.1590909090909091,713,1,84,DL_Guitar,6,3,DL_Guitar,0.1623636931180954,0
54,100,0.1,787,0,84,DL_Guitar,6,2,DL_Guitar,0.19105874001979828,0
63,100,0.1409090909090909,836,0,84,DL_Guitar,6,2,DL_Guitar,0.2619655728340149,0
63,100,0.1,26,1,85,DL_Guitar,6,2,DL_Guitar,0.9986506104469299,1
54,100,0.1,87,0,85,DL_Guitar,6,2,DL_Guitar,0.08798187226057053,0
54,100,0.2409090909090909,163,0,85,DL_Guitar,6,4,DL_Guitar,0.09298527240753174,0
66,100,0.11818181818181818,242,0,85,DL_Guitar,6,2,DL_Guitar,0.10995054244995117,0
54,100,0.1409090909090909,299,0,85,DL_Guitar,6,2,DL_Guitar,0.12867119908332825,0
54,100,0.2,729,1,85,DL_Guitar,6,3,DL_Guitar,0.1822231411933899,0
63,100,0.2818181818181818,35,1,86,DL_Guitar,6,5,DL_Guitar,0.9986506104469299,1
63,100,0.23636363636363636,106,0,86,DL_Guitar,6,4,DL_Guitar,0.08798003941774368,0
59,100,0.1409090909090909,267,0,86,DL_Guitar,6,2,DL_Guitar,0.09298708289861679,0
66,100,0.1,619,1,86,DL_Guitar,6,2,DL_Guitar,0.10995537042617798,0
54,100,0.3,690,0,86,DL_Guitar,6,5,DL_Guitar,0.12867456674575806,0
66,100,0.18181818181818182,770,0,86,DL_Guitar,6,3,DL_Guitar,0.18222792446613312,0
52,100,0.4590909090909091,163,1,87,DL_Guitar,6,7,DL_Guitar,0.9983232617378235,1
52,100,0.1409090909090909,470,1,87,DL_Guitar,6,2,DL_Guitar,0.5462197661399841,1
61,100,0.12272727272727273,26,1,88,DL_Guitar,6,2,DL_Guitar,0.9983231425285339,1
66,100,0.1590909090909091,506,1,88,DL_Guitar,6,3,DL_Guitar,0.5462205410003662,1
54,100,0.21818181818181817,30,1,89,DL_Guitar,6,3,DL_Guitar,0.9984880685806274,1
64,100,0.11818181818181818,176,0,89,DL_Guitar,6,2,DL_Guitar,0.06335391849279404,0
64,100,0.21818181818181817,237,0,89,DL_Guitar,6,3,DL_Guitar,0.05829131603240967,0
64,100,0.11818181818181818,330,0,89,DL_Guitar,6,2,DL_Guitar,0.06136512756347656,0
52,100,0.5590909090909091,417,0,89,DL_Guitar,6,9,DL_Guitar,0.07168641686439514,0
64,100,0.1,593,0,89,DL_Guitar,6,2,DL_Guitar,0.08474169671535492,0
54,100,0.2,857,1,89,DL_Guitar,6,3,DL_Guitar,0.12635944783687592,0
63,100,0.2409090909090909,307,1,90,DL_Guitar,6,4,DL_Guitar,0.9990280866622925,1
63,100,0.37727272727272726,404,0,90,DL_Guitar,6,6,DL_Guitar,0.37033843994140625,0
59,100,0.3181818181818182,726,1,90,DL_Guitar,6,5,DL_Guitar,0.4561692774295807,0
63,100,0.1,233,1,91,DL_Guitar,6,2,DL_Guitar,0.9983736276626587,1
54,100,0.1,276,0,91,DL_Guitar,6,2,DL_Guitar,0.051051706075668335,0
64,100,0.2818181818181818,333,0,91,DL_Guitar,6,5,DL_Guitar,0.04161245375871658,0
64,100,0.12272727272727273,443,0,91,DL_Guitar,6,2,DL_Guitar,0.037981584668159485,0
52,100,0.2590909090909091,502,0,91,DL_Guitar,6,4,DL_Guitar,0.03926090896129608,0
52,100,0.2409090909090909,572,0,91,DL_Guitar,6,4,DL_Guitar,0.04616791754961014,0
52,100,0.21818181818181817,747,0,91,DL_Guitar,6,3,DL_Guitar,0.057134710252285004,0
52,100,0.2,870,0,91,DL_Guitar,6,3,DL_Guitar,0.09188526123762131,0
64,100,0.1409090909090909,206,1,92,DL_Guitar,6,2,DL_Guitar,0.9988439083099365,1
59,100,0.1590909090909091,276,0,92,DL_Guitar,6,3,DL_Guitar,0.13798312842845917,0
54,100,0.3181818181818182,436,0,92,DL_Guitar,6,5,DL_Guitar,0.16236566007137299,0
54,100,0.2409090909090909,572,0,92,DL_Guitar,6,4,DL_Guitar,0.1910560131072998,0
52,100,0.5,700,0,92,DL_Guitar,6,8,DL_Guitar,0.2619692087173462,0
54,100,0.2636363636363636,47,1,93,DL_Guitar,6,4,DL_Guitar,0.9983232617378235,1
54,100,0.18181818181818182,132,0,93,DL_Guitar,6,3,DL_Guitar,0.546217143535614,1
54,100,0.1409090909090909,110,1,94,DL_Guitar,6,2,DL_Guitar,0.9990094900131226,1
54,100,0.41818181818181815,307,0,94,DL_Guitar,6,7,DL_Guitar,0.2332274168729782,0
63,100,0.11818181818181818,612,1,94,DL_Guitar,6,2,DL_Guitar,0.2705748975276947,0
59,100,0.42272727272727273,796,0,94,DL_Guitar,6,7,DL_Guitar,0.357923299074173,0
63,100,0.1590909090909091,206,1,95,DL_Guitar,6,3,DL_Guitar,0.9986506104469299,1
54,100,0.23636363636363636,392,0,95,DL_Guitar,6,4,DL_Guitar,0.08798160403966904,0
54,100,0.2409090909090909,475,0,95,DL_Guitar,6,4,DL_Guitar,0.09298575669527054,0
52,100,0.2590909090909091,606,0,95,DL_Guitar,6,4,DL_Guitar,0.10995186865329742,0
52,100,0.2409090909090909,716,0,95,DL_Guitar,6,4,DL_Guitar,0.1286735236644745,0
52,100,0.9181818181818182,813,0,95,DL_Guitar,6,15,DL_Guitar,0.18222831189632416,0
54,100,0.11818181818181818,176,1,96,DL_Guitar,6,2,DL_Guitar,0.9990280866622925,1
54,100,0.1409090909090909,404,0,96,DL_Guitar,6,2,DL_Guitar,0.37033769488334656,0
54,100,0.12272727272727273,629,0,96,DL_Guitar,6,2,DL_Guitar,0.45616936683654785,0
54,100,0.11818181818181818,132,1,97,DL_Guitar,6,2,DL_Guitar,0.9990094900131226,1
54,100,0.1590909090909091,453,1,97,DL_Guitar,6,3,DL_Guitar,0.23322699964046478,0
54,100,0.4818181818181818,509,0,97,DL_Guitar,6,8,DL_Guitar,0.2705775201320648,0
52,100,0.4,805,1,97,DL_Guitar,6,6,DL_Guitar,0.35793086886405945,0
52,100,0.3181818181818182,153,1,98,DL_Guitar,6,5,DL_Guitar,0.9990094900131226,1
54,100,0.22272727272727272,475,1,98,DL_Guitar,6,4,DL_Guitar,0.23322954773902893,0
61,100,0.2409090909090909,650,0,98,DL_Guitar,6,4,DL_Guitar,0.270579993724823,0
63,100,0.35909090909090907,779,0,98,DL_Guitar,6,6,DL_Guitar,0.357928603887558,0
56,100,0.2409090909090909,9,1,99,DL_Guitar,6,4,DL_Guitar,0.9986506104469299,1
63,100,0.1409090909090909,74,0,99,DL_Guitar,6,2,DL_Guitar,0.0879792720079422,0
59,100,0.1590909090909091,119,0,99,DL_Guitar,6,3,DL_Guitar,0.09298776835203171,0
63,100,0.5818181818181818,176,0,99,DL_Guitar,6,9,DL_Guitar,0.10995297133922577,0
63,100,0.6181818181818182,527,1,99,DL_Guitar,6,10,DL_Guitar,0.12867853045463562,0
63,100,0.41818181818181815,722,0,99,DL_Guitar,6,7,DL_Guitar,0.18223583698272705,0
52,100,0.3409090909090909,849,1,100,DL_Guitar,6,5,DL_Guitar,0.9792241454124451,1
61,100,0.3,136,1,101,DL_Guitar,6,5,DL_Guitar,0.9990094900131226,1
54,100,0.23636363636363636,282,0,101,DL_Guitar,6,4,DL_Guitar,0.23323120176792145,0
54,100,0.4590909090909091,624,1,101,DL_Guitar,6,7,DL_Guitar,0.27058470249176025,0
54,100,0.5590909090909091,787,0,101,DL_Guitar,6,9,DL_Guitar,0.35793453454971313,0
54,100,0.1,153,1,102,DL_Guitar,6,2,DL_Guitar,0.9792243838310242,1
54,100,0.1409090909090909,92,1,103,DL_Guitar,6,2,DL_Guitar,0.9988439083099365,1
66,100,0.2409090909090909,307,0,103,DL_Guitar,6,4,DL_Guitar,0.13797959685325623,0
63,100,0.38181818181818183,386,0,103,DL_Guitar,6,6,DL_Guitar,0.16236142814159393,0
54,100,0.21818181818181817,527,0,103,DL_Guitar,6,3,DL_Guitar,0.19105245172977448,0
54,100,0.11818181818181818,832,1,103,DL_Guitar,6,2,DL_Guitar,0.2619650661945343,0
59,100,0.12272727272727273,267,1,104,DL_Guitar,6,2,DL_Guitar,0.9990280866622925,1
59,100,0.7227272727272728,343,0,104,DL_Guitar,6,12,DL_Guitar,0.3703388273715973,0
54,100,0.1409090909090909,550,0,104,DL_Guitar,6,2,DL_Guitar,0.4561709463596344,0
54,100,0.3,100,1,105,DL_Guitar,6,5,DL_Guitar,0.9990094900131226,1
54,100,0.2772727272727273,172,0,105,DL_Guitar,6,4,DL_Guitar,0.2332303524017334,0
66,100,0.2,487,1,105,DL_Guitar,6,3,DL_Guitar,0.2705833911895752,0
63,100,0.2818181818181818,739,1,105,DL_Guitar,6,5,DL_Guitar,0.3579292595386505,0
64,100,0.3409090909090909,110,1,106,DL_Guitar,6,5,DL_Guitar,0.9984879493713379,1
64,100,0.11818181818181818,250,0,106,DL_Guitar,6,2,DL_Guitar,0.06335267424583435,0
64,100,0.11818181818181818,303,0,106,DL_Guitar,6,2,DL_Guitar,0.0582878403365612,0
64,100,0.12272727272727273,365,0,106,DL_Guitar,6,2,DL_Guitar,0.061362024396657944,0
66,100,0.1,567,0,106,DL_Guitar,6,2,DL_Guitar,0.07168398797512054,0
66,100,0.4,593,0,106,DL_Guitar,6,6,DL_Guitar,0.0847354456782341,0
66,100,0.1409090909090909,747,0,106,DL_Guitar,6,2,DL_Guitar,0.126353919506073,0
66,100,0.1,330,1,107,DL_Guitar,6,2,DL_Guitar,0.9990094900131226,1
64,100,0.2818181818181818,386,0,107,DL_Guitar,6,5,DL_Guitar,0.2332308441400528,0
63,100,0.1,633,1,107,DL_Guitar,6,2,DL_Guitar,0.2705844044685364,0
54,100,0.4818181818181818,760,0,107,DL_Guitar,6,8,DL_Guitar,0.3579317033290863,0
54,100,0.12272727272727273,3,1,108,DL_Guitar,6,2,DL_Guitar,0.9988439083099365,1
54,100,0.759090909090909,123,0,108,DL_Guitar,6,12,DL_Guitar,0.13797903060913086,0
64,100,0.2409090909090909,726,1,108,DL_Guitar,6,4,DL_Guitar,0.1623612642288208,0
64,100,0.1409090909090909,792,0,108,DL_Guitar,6,2,DL_Guitar,0.19105449318885803,0
66,100,0.13636363636363635,832,0,108,DL_Guitar,6,2,DL_Guitar,0.261966735124588,0
66,100,0.11818181818181818,216,1,109,DL_Guitar,6,2,DL_Guitar,0.9984880685806274,1
56,100,0.4,316,0,109,DL_Guitar,6,6,DL_Guitar,0.06335140019655228,0
66,100,0.2,449,0,109,DL_Guitar,6,3,DL_Guitar,0.05828951299190521,0
66,100,0.18181818181818182,509,0,109,DL_Guitar,6,3,DL_Guitar,0.06136207655072212,0
63,100,0.3181818181818182,593,0,109,DL_Guitar,6,5,DL_Guitar,0.07168173789978027,0
63,100,0.13636363636363635,677,0,109,DL_Guitar,6,2,DL_Guitar,0.08473839610815048,0
54,100,0.11818181818181818,770,0,109,DL_Guitar,6,2,DL_Guitar,0.12635751068592072,0
63,100,0.1409090909090909,87,1,110,DL_Guitar,6,2,DL_Guitar,0.9986506104469299,1
63,100,0.18181818181818182,153,0,110,DL_Guitar,6,3,DL_Guitar,0.08797884732484818,0
54,100,0.12272727272727273,320,0,110,DL_Guitar,6,2,DL_Guitar,0.09299013763666153,0
63,100,0.1409090909090909,383,0,110,DL_Guitar,6,2,DL_Guitar,0.10995256900787354,0
59,100,0.1590909090909091,563,0,110,DL_Guitar,6,3,DL_Guitar,0.12868134677410126,0
63,100,0.12272727272727273,752,0,110,DL_Guitar,6,2,DL_Guitar,0.1822233349084854,0
54,100,0.2590909090909091,83,1,111,DL_Guitar,6,4,DL_Guitar,0.9990094900131226,1
54,100,0.5590909090909091,220,0,111,DL_Guitar,6,9,DL_Guitar,0.23322685062885284,0
61,100,0.38181818181818183,475,1,111,DL_Guitar,6,6,DL_Guitar,0.27057355642318726,0
54,100,0.18181818181818182,637,0,111,DL_Guitar,6,3,DL_Guitar,0.35792261362075806,0
66,100,0.1409090909090909,140,1,112,DL_Guitar,6,2,DL_Guitar,0.9990280866622925,1
66,100,0.1,282,0,112,DL_Guitar,6,2,DL_Guitar,0.3703361451625824,0
54,100,0.32272727272727275,422,0,112,DL_Guitar,6,5,DL_Guitar,0.45616668462753296,0
54,100,0.18181818181818182,255,1,113,DL_Guitar,6,3,DL_Guitar,0.9986507296562195,1
54,100,0.18181818181818182,299,0,113,DL_Guitar,6,3,DL_Guitar,0.08797934651374817,0
66,100,0.21818181818181817,352,0,113,DL_Guitar,6,3,DL_Guitar,0.09298337996006012,0
54,100,0.22272727272727272,409,0,113,DL_Guitar,6,4,DL_Guitar,0.1099487692117691,0
66,100,0.11818181818181818,457,0,113,DL_Guitar,6,2,DL_Guitar,0.12867391109466553,0
59,100,0.12272727272727273,496,0,113,DL_Guitar,6,2,DL_Guitar,0.18221215903759003,0
54,100,0.2,0,1,21,_Remix_Guitar,6,3,_Remix_Guitar,0.9990280866622925,1
54,100,0.1,712,1,21,_Remix_Guitar,6,2,_Remix_Guitar,0.3703397512435913,0
54,100,0.22272727272727272,752,0,21,_Remix_Guitar,6,4,_Remix_Guitar,0.45616063475608826,0
53,100,0.6,814,1,23,_Remix_Guitar,6,10,_Remix_Guitar,0.979223370552063,1
53,100,0.18181818181818182,113,1,24,_Remix_Guitar,6,3,_Remix_Guitar,0.9990280866622925,1
53,100,0.8,272,0,24,_Remix_Guitar,6,13,_Remix_Guitar,0.370334267616272,0
53,100,0.12272727272727273,509,1,24,_Remix_Guitar,6,2,_Remix_Guitar,0.4561693072319031,0
54,100,0.8818181818181818,113,1,25,_Remix_Guitar,6,14,_Remix_Guitar,0.9792245030403137,1
54,100,0.1409090909090909,13,1,27,_Remix_Guitar,6,2,_Remix_Guitar,0.9990094900131226,1
54,100,0.2,347,1,27,_Remix_Guitar,6,3,_Remix_Guitar,0.23322933912277222,0
54,100,0.17727272727272728,801,1,27,_Remix_Guitar,6,3,_Remix_Guitar,0.2705800235271454,0
54,100,0.3,849,0,27,_Remix_Guitar,6,5,_Remix_Guitar,0.3579246997833252,0
54,100,0.2409090909090909,373,1,89,_Remix_Guitar,6,4,_Remix_Guitar,0.9990094900131226,1
54,100,0.2590909090909091,475,0,89,_Remix_Guitar,6,4,_Remix_Guitar,0.2332295924425125,0
54,100,0.2818181818181818,663,0,89,_Remix_Guitar,6,5,_Remix_Guitar,0.27058008313179016,0
54,100,0.2,857,0,89,_Remix_Guitar,6,3,_Remix_Guitar,0.35792243480682373,0
54,100,0.1590909090909091,184,1,90,_Remix_Guitar,6,3,_Remix_Guitar,0.9988440275192261,1
54,100,0.3409090909090909,267,0,90,_Remix_Guitar,6,5,_Remix_Guitar,0.13797937333583832,0
54,100,0.1,392,0,90,_Remix_Guitar,6,2,_Remix_Guitar,0.1623649150133133,0
54,100,0.21818181818181817,462,0,90,_Remix_Guitar,6,3,_Remix_Guitar,0.19105783104896545,0
54,100,0.37727272727272726,523,0,90,_Remix_Guitar,6,6,_Remix_Guitar,0.2619676887989044,0
54,100,0.2,356,1,91,_Remix_Guitar,6,3,_Remix_Guitar,0.9983232617378235,1
56,100,0.1409090909090909,616,1,91,_Remix_Guitar,6,2,_Remix_Guitar,0.5462090969085693,1
56,100,0.13636363636363635,216,1,92,_Remix_Guitar,6,2,_Remix_Guitar,0.9792232513427734,1
53,100,0.2409090909090909,580,1,93,_Remix_Guitar,6,4,_Remix_Guitar,0.9792240262031555,1
54,100,0.11818181818181818,140,1,94,_Remix_Guitar,6,2,_Remix_Guitar,0.9990094900131226,1
54,100,0.3,466,1,94,_Remix_Guitar,6,5,_Remix_Guitar,0.23323176801204681,0
55,100,0.1,826,1,94,_Remix_Guitar,6,2,_Remix_Guitar,0.2705787420272827,0
54,100,0.1590909090909091,870,0,94,_Remix_Guitar,6,3,_Remix_Guitar,0.35793158411979675,0
56,100,0.1590909090909091,263,1,95,_Remix_Guitar,6,3,_Remix_Guitar,0.9988439083099365,1
54,100,0.11818181818181818,396,0,95,_Remix_Guitar,6,2,_Remix_Guitar,0.13798418641090393,0
54,100,0.1409090909090909,716,1,95,_Remix_Guitar,6,2,_Remix_Guitar,0.16236461699008942,0
54,100,0.1409090909090909,760,0,95,_Remix_Guitar,6,2,_Remix_Guitar,0.19105879962444305,0
56,100,0.17727272727272728,832,0,95,_Remix_Guitar,6,3,_Remix_Guitar,0.26196226477622986,0
61,100,0.41818181818181815,39,1,15,DL_deepemotion_Guitar,6,7,DL_deepemotion_Guitar,0.979223370552063,1
54,100,0.2,712,1,17,DL_deepemotion_Guitar,6,3,DL_deepemotion_Guitar,0.9983232617378235,1
56,100,0.7,801,0,17,DL_deepemotion_Guitar,6,11,DL_deepemotion_Guitar,0.546204149723053,1
56,100,0.2,83,1,18,DL_deepemotion_Guitar,6,3,DL_deepemotion_Guitar,0.9792238473892212,1
54,100,0.4818181818181818,34,1,20,DL_deepemotion_Guitar,6,8,DL_deepemotion_Guitar,0.9983232617378235,1
54,100,0.22272727272727272,179,0,20,DL_deepemotion_Guitar,6,4,DL_deepemotion_Guitar,0.5462180376052856,1
54,100,0.32272727272727275,409,1,21,DL_deepemotion_Guitar,6,5,DL_deepemotion_Guitar,0.9792242646217346,1
54,100,0.11818181818181818,326,1,22,DL_deepemotion_Guitar,6,2,DL_deepemotion_Guitar,0.9792245030403137,1
63,100,0.2818181818181818,189,1,23,DL_deepemotion_Guitar,6,5,DL_deepemotion_Guitar,0.9983231425285339,1
61,100,0.1409090909090909,866,1,23,DL_deepemotion_Guitar,6,2,DL_deepemotion_Guitar,0.5462210178375244,1
54,100,0.11818181818181818,326,1,24,DL_deepemotion_Guitar,6,2,DL_deepemotion_Guitar,0.9792245030403137,1
59,100,0.740909090909091,65,1,25,DL_deepemotion_Guitar,6,12,DL_deepemotion_Guitar,0.9990094900131226,1
59,100,0.11818181818181818,295,0,25,DL_deepemotion_Guitar,6,2,DL_deepemotion_Guitar,0.23323068022727966,0
56,100,0.11818181818181818,656,1,25,DL_deepemotion_Guitar,6,2,DL_deepemotion_Guitar,0.2705857753753662,0
56,100,0.2818181818181818,818,0,25,DL_deepemotion_Guitar,6,5,DL_deepemotion_Guitar,0.3579268157482147,0
56,100,0.37727272727272726,61,1,26,DL_deepemotion_Guitar,6,6,DL_deepemotion_Guitar,0.9983231425285339,1
56,100,0.2409090909090909,223,0,26,DL_deepemotion_Guitar,6,4,DL_deepemotion_Guitar,0.5462116003036499,1
62,100,0.18181818181818182,202,1,27,DL_deepemotion_Guitar,6,3,DL_deepemotion_Guitar,0.9792236089706421,1
63,100,0.23636363636363636,810,1,28,DL_deepemotion_Guitar,6,4,DL_deepemotion_Guitar,0.9792237281799316,1
52,100,0.11818181818181818,382,1,29,DL_deepemotion_Guitar,6,2,DL_deepemotion_Guitar,0.9990094900131226,1
54,100,0.12272727272727273,422,0,29,DL_deepemotion_Guitar,6,2,DL_deepemotion_Guitar,0.23322643339633942,0
66,100,0.12272727272727273,453,0,29,DL_deepemotion_Guitar,6,2,DL_deepemotion_Guitar,0.2705790400505066,0
54,100,0.2,567,0,29,DL_deepemotion_Guitar,6,3,DL_deepemotion_Guitar,0.357927531003952,0
53,100,0.12272727272727273,400,1,0,_Guitar,6,2,_Guitar,0.9990280866622925,1
60,100,0.1,686,1,0,_Guitar,6,2,_Guitar,0.3703371584415436,0
60,100,0.6772727272727272,713,0,0,_Guitar,6,11,_Guitar,0.45617392659187317,0
53,100,0.12272727272727273,597,1,1,_Guitar,6,2,_Guitar,0.9983232617378235,1
60,100,0.2,651,0,1,_Guitar,6,3,_Guitar,0.5462204813957214,1
60,100,0.12272727272727273,254,1,3,_Guitar,6,2,_Guitar,0.9990094900131226,1
62,100,0.1590909090909091,387,0,3,_Guitar,6,3,_Guitar,0.2332332581281662,0
55,100,0.4409090909090909,660,1,3,_Guitar,6,7,_Guitar,0.2705853581428528,0
55,100,0.1409090909090909,773,0,3,_Guitar,6,2,_Guitar,0.3579304814338684,0
60,100,1.7772727272727273,228,1,4,_Guitar,6,15,_Guitar,0.9983231425285339,1
60,100,2.081818181818182,672,1,4,_Guitar,6,15,_Guitar,0.5462169051170349,1
53,100,0.2636363636363636,289,1,5,_Guitar,6,4,_Guitar,0.9988439083099365,1
65,100,0.11818181818181818,527,1,5,_Guitar,6,2,_Guitar,0.1379789412021637,0
58,100,0.38181818181818183,585,0,5,_Guitar,6,6,_Guitar,0.16236229240894318,0
53,100,0.17727272727272728,744,0,5,_Guitar,6,3,_Guitar,0.19105194509029388,0
53,100,0.2590909090909091,788,0,5,_Guitar,6,4,_Guitar,0.2619570195674896,0
60,100,0.2409090909090909,554,1,6,_Guitar,6,4,_Guitar,0.9990280866622925,1
53,100,0.1409090909090909,682,0,6,_Guitar,6,2,_Guitar,0.3703378140926361,0
53,100,0.7,805,0,6,_Guitar,6,11,_Guitar,0.45616817474365234,0
53,100,0.3181818181818182,150,1,7,_Guitar,6,5,_Guitar,0.9988439083099365,1
65,100,0.2818181818181818,224,0,7,_Guitar,6,5,_Guitar,0.13798204064369202,0
57,100,0.2590909090909091,307,0,7,_Guitar,6,4,_Guitar,0.16235582530498505,0
60,100,0.1409090909090909,452,0,7,_Guitar,6,2,_Guitar,0.19105486571788788,0
53,100,0.2,713,1,7,_Guitar,6,3,_Guitar,0.2619575560092926,0
53,100,0.11818181818181818,8,1,8,_Guitar,6,2,_Guitar,0.9986506104469299,1
60,100,0.1590909090909091,118,0,8,_Guitar,6,3,_Guitar,0.08797921240329742,0
58,100,0.17727272727272728,194,0,8,_Guitar,6,3,_Guitar,0.09298250079154968,0
53,100,0.12272727272727273,312,0,8,_Guitar,6,2,_Guitar,0.10994607210159302,0
60,100,0.2409090909090909,713,1,8,_Guitar,6,4,_Guitar,0.1286720633506775,0
55,100,0.2590909090909091,787,0,8,_Guitar,6,4,_Guitar,0.18221646547317505,0
60,100,0.35909090909090907,211,1,9,_Guitar,6,6,_Guitar,0.9988439083099365,1
60,100,0.12272727272727273,333,0,9,_Guitar,6,2,_Guitar,0.137983500957489,0
53,100,0.1590909090909091,558,0,9,_Guitar,6,3,_Guitar,0.16236411035060883,0
53,100,0.1590909090909091,603,0,9,_Guitar,6,3,_Guitar,0.19105535745620728,0
60,100,0.3181818181818182,756,0,9,_Guitar,6,5,_Guitar,0.26197272539138794,0
53,100,0.5590909090909091,84,1,10,_Guitar,6,9,_Guitar,0.9988439083099365,1
53,100,0.3,276,0,10,_Guitar,6,5,_Guitar,0.13798464834690094,0
53,100,0.1,479,0,10,_Guitar,6,2,_Guitar,0.16236835718154907,0
69,100,0.2,668,0,10,_Guitar,6,3,_Guitar,0.19106023013591766,0
69,100,0.6409090909090909,756,0,10,_Guitar,6,10,_Guitar,0.26197052001953125,0
69,100,0.16363636363636364,202,1,11,_Guitar,6,3,_Guitar,0.9988439083099365,1
53,100,0.16363636363636364,443,1,11,_Guitar,6,3,_Guitar,0.13798336684703827,0
60,100,0.2818181818181818,527,0,11,_Guitar,6,5,_Guitar,0.1623614877462387,0
53,100,0.3181818181818182,594,0,11,_Guitar,6,5,_Guitar,0.19105635583400726,0
60,100,1.4772727272727273,721,0,11,_Guitar,6,15,_Guitar,0.26196029782295227,0
53,100,0.18181818181818182,180,1,12,_Guitar,6,3,_Guitar,0.9990280866622925,1
72,100,0.3,536,1,12,_Guitar,6,5,_Guitar,0.3703432083129883,0
65,100,0.11818181818181818,634,0,12,_Guitar,6,2,_Guitar,0.45616212487220764,0
53,100,0.22272727272727272,13,1,13,_Guitar,6,4,_Guitar,0.9986506104469299,1
53,100,0.12272727272727273,79,0,13,_Guitar,6,2,_Guitar,0.08798041194677353,0
60,100,0.6,154,0,13,_Guitar,6,10,_Guitar,0.09298115968704224,0
65,100,0.12272727272727273,453,1,13,_Guitar,6,2,_Guitar,0.10994603484869003,0
60,100,0.11818181818181818,615,0,13,_Guitar,6,2,_Guitar,0.12866850197315216,0
53,100,0.13636363636363635,831,0,13,_Guitar,6,2,_Guitar,0.18220998346805573,0
53,100,0.4590909090909091,166,1,14,_Guitar,6,7,_Guitar,0.9988439083099365,1
60,100,0.12272727272727273,290,0,14,_Guitar,6,2,_Guitar,0.13797955214977264,0
60,100,0.1,567,1,14,_Guitar,6,2,_Guitar,0.16235847771167755,0
60,100,0.11818181818181818,699,0,14,_Guitar,6,2,_Guitar,0.19105252623558044,0
60,100,0.11818181818181818,766,0,14,_Guitar,6,2,_Guitar,0.2619628608226776,0
60,100,0.2409090909090909,312,1,15,_Guitar,6,4,_Guitar,0.9986506104469299,1
60,100,0.1409090909090909,400,0,15,_Guitar,6,2,_Guitar,0.0879812240600586,0
60,100,0.12272727272727273,496,0,15,_Guitar,6,2,_Guitar,0.09298410266637802,0
60,100,0.5590909090909091,615,0,15,_Guitar,6,9,_Guitar,0.10994919389486313,0
53,100,0.1409090909090909,792,0,15,_Guitar,6,2,_Guitar,0.12867014110088348,0
53,100,0.2590909090909091,857,0,15,_Guitar,6,4,_Guitar,0.18221262097358704,0
60,100,0.22272727272727272,100,1,16,_Guitar,6,4,_Guitar,0.9983735084533691,1
60,100,0.18181818181818182,233,0,16,_Guitar,6,3,_Guitar,0.051050666719675064,0
53,100,0.21818181818181817,281,0,16,_Guitar,6,3,_Guitar,0.04161154106259346,0
60,100,0.2590909090909091,351,0,16,_Guitar,6,4,_Guitar,0.03797972947359085,0
60,100,0.41818181818181815,550,0,16,_Guitar,6,7,_Guitar,0.039259959012269974,0
60,100,0.1409090909090909,673,0,16,_Guitar,6,2,_Guitar,0.046166446059942245,0
57,100,0.11818181818181818,721,0,16,_Guitar,6,2,_Guitar,0.05713140591979027,0
60,100,0.35909090909090907,831,0,16,_Guitar,6,6,_Guitar,0.09187904745340347,0
60,100,0.2409090909090909,119,1,17,_Guitar,6,4,_Guitar,0.9984879493713379,1
65,100,0.18181818181818182,198,0,17,_Guitar,6,3,_Guitar,0.06335383653640747,0
65,100,0.11818181818181818,264,0,17,_Guitar,6,2,_Guitar,0.0582890547811985,0
57,100,1.1772727272727272,316,0,17,_Guitar,6,15,_Guitar,0.06136032193899155,0
57,100,0.2409090909090909,650,1,17,_Guitar,6,4,_Guitar,0.0716833770275116,0
57,100,0.4409090909090909,739,0,17,_Guitar,6,7,_Guitar,0.08473513275384903,0
53,100,0.2,858,0,17,_Guitar,6,3,_Guitar,0.12634731829166412,0
53,100,0.21818181818181817,30,1,18,_Guitar,6,3,_Guitar,0.9988439083099365,1
58,100,0.4,175,0,18,_Guitar,6,6,_Guitar,0.137983500957489,0
58,100,0.38181818181818183,268,0,18,_Guitar,6,6,_Guitar,0.16236288845539093,0
60,100,0.5409090909090909,615,1,18,_Guitar,6,9,_Guitar,0.19105517864227295,0
60,100,0.21818181818181817,756,0,18,_Guitar,6,3,_Guitar,0.26196593046188354,0
60,100,0.22272727272727272,233,1,19,_Guitar,6,4,_Guitar,0.9983232617378235,1
55,100,0.18181818181818182,299,0,19,_Guitar,6,3,_Guitar,0.546211302280426,1
55,100,0.11818181818181818,281,1,20,_Guitar,6,2,_Guitar,0.9988439083099365,1
60,100,0.2,378,0,20,_Guitar,6,3,_Guitar,0.13798217475414276,0
60,100,0.3,430,0,20,_Guitar,6,5,_Guitar,0.1623649001121521,0
53,100,0.11818181818181818,581,0,20,_Guitar,6,2,_Guitar,0.19105535745620728,0
58,100,0.7818181818181819,619,0,20,_Guitar,6,13,_Guitar,0.2619597315788269,0
53,100,0.2409090909090909,44,1,21,_Guitar,6,4,_Guitar,0.9986506104469299,1
53,100,0.17727272727272728,119,0,21,_Guitar,6,3,_Guitar,0.0879792720079422,0
60,100,0.6,206,0,21,_Guitar,6,10,_Guitar,0.09298519790172577,0
58,100,0.3409090909090909,399,0,21,_Guitar,6,5,_Guitar,0.10994963347911835,0
53,100,0.1590909090909091,546,0,21,_Guitar,6,3,_Guitar,0.12866584956645966,0
60,100,0.1,646,0,21,_Guitar,6,2,_Guitar,0.18221236765384674,0
53,100,0.12272727272727273,13,1,22,_Guitar,6,2,_Guitar,0.9983735084533691,1
60,100,0.41818181818181815,119,0,22,_Guitar,6,7,_Guitar,0.051049523055553436,0
65,100,0.1590909090909091,241,0,22,_Guitar,6,3,_Guitar,0.041611362248659134,0
60,100,0.12272727272727273,378,0,22,_Guitar,6,2,_Guitar,0.037978559732437134,0
60,100,0.2818181818181818,474,0,22,_Guitar,6,5,_Guitar,0.03925856575369835,0
65,100,0.18181818181818182,650,0,22,_Guitar,6,3,_Guitar,0.046163685619831085,0
53,100,0.2590909090909091,691,0,22,_Guitar,6,4,_Guitar,0.0571308508515358,0
53,100,0.4409090909090909,752,0,22,_Guitar,6,7,_Guitar,0.09187484532594681,0
53,100,0.17727272727272728,96,1,23,_Guitar,6,3,_Guitar,0.9990280866622925,1
60,100,0.7181818181818181,602,1,23,_Guitar,6,11,_Guitar,0.37034377455711365,0
57,100,0.2590909090909091,791,0,23,_Guitar,6,4,_Guitar,0.4561648964881897,0
57,100,0.21818181818181817,9,1,24,_Guitar,6,3,_Guitar,0.9986506104469299,1
57,100,0.11818181818181818,131,0,24,_Guitar,6,2,_Guitar,0.08798234909772873,0
57,100,0.2,343,0,24,_Guitar,6,3,_Guitar,0.09298679232597351,0
60,100,0.11818181818181818,492,0,24,_Guitar,6,2,_Guitar,0.10995452851057053,0
57,100,0.3,598,0,24,_Guitar,6,5,_Guitar,0.1286775767803192,0
57,100,0.8636363636363636,796,0,24,_Guitar,6,14,_Guitar,0.18222148716449738,0
57,100,0.11818181818181818,110,1,25,_Guitar,6,2,_Guitar,0.9986506104469299,1
62,100,0.2,422,1,25,_Guitar,6,3,_Guitar,0.08798003941774368,0
53,100,0.2409090909090909,563,0,25,_Guitar,6,4,_Guitar,0.09298231452703476,0
60,100,0.2818181818181818,663,0,25,_Guitar,6,5,_Guitar,0.10994897782802582,0
60,100,0.2,787,0,25,_Guitar,6,3,_Guitar,0.12867048382759094,0
53,100,0.18181818181818182,839,0,25,_Guitar,6,3,_Guitar,0.18220986425876617,0
53,100,0.22272727272727272,34,1,26,_Guitar,6,4,_Guitar,0.9988439083099365,1
58,100,0.7181818181818181,229,0,26,_Guitar,6,11,_Guitar,0.1379777491092682,0
58,100,0.2818181818181818,395,0,26,_Guitar,6,5,_Guitar,0.1623617559671402,0
58,100,0.1409090909090909,466,0,26,_Guitar,6,2,_Guitar,0.19105181097984314,0
58,100,0.1,567,0,26,_Guitar,6,2,_Guitar,0.26195797324180603,0
58,100,0.11818181818181818,0,1,27,_Guitar,6,2,_Guitar,0.9990280866622925,1
58,100,0.6818181818181818,34,0,27,_Guitar,6,11,_Guitar,0.3703376352787018,0
58,100,0.7,413,1,27,_Guitar,6,11,_Guitar,0.4561665952205658,0
55,100,0.37727272727272726,480,1,28,_Guitar,6,6,_Guitar,0.9983232617378235,1
55,100,0.9,625,0,28,_Guitar,6,14,_Guitar,0.5462164878845215,1
55,100,0.41818181818181815,154,1,29,_Guitar,6,7,_Guitar,0.9990094900131226,1
60,100,0.11818181818181818,264,0,29,_Guitar,6,2,_Guitar,0.23323047161102295,0
65,100,0.13636363636363635,523,1,29,_Guitar,6,2,_Guitar,0.27057352662086487,0
60,100,0.3409090909090909,773,1,29,_Guitar,6,5,_Guitar,0.35793012380599976,0
60,100,0.4409090909090909,92,1,30,_Guitar,6,7,_Guitar,0.9990280866622925,1
60,100,0.33636363636363636,546,1,30,_Guitar,6,5,_Guitar,0.3703402578830719,0
53,100,0.2590909090909091,673,0,30,_Guitar,6,4,_Guitar,0.4561643600463867,0
60,100,0.37727272727272726,326,1,31,_Guitar,6,6,_Guitar,0.9990280866622925,1
60,100,0.759090909090909,449,0,31,_Guitar,6,12,_Guitar,0.37033823132514954,0
53,100,0.18181818181818182,858,1,31,_Guitar,6,3,_Guitar,0.45616137981414795,0
58,100,0.2818181818181818,254,1,32,_Guitar,6,5,_Guitar,0.9984880685806274,1
60,100,0.38181818181818183,334,0,32,_Guitar,6,6,_Guitar,0.06335237622261047,0
58,100,0.17727272727272728,448,0,32,_Guitar,6,3,_Guitar,0.05828888341784477,0
58,100,0.1409090909090909,493,0,32,_Guitar,6,2,_Guitar,0.06136167421936989,0
53,100,0.2818181818181818,716,0,32,_Guitar,6,5,_Guitar,0.07168084383010864,0
60,100,0.1409090909090909,823,0,32,_Guitar,6,2,_Guitar,0.08473647385835648,0
53,100,0.22272727272727272,871,0,32,_Guitar,6,4,_Guitar,0.12634846568107605,0
60,100,0.1409090909090909,188,1,33,_Guitar,6,2,_Guitar,0.9983232617378235,1
60,100,0.2590909090909091,826,1,33,_Guitar,6,4,_Guitar,0.5462179780006409,1
55,100,0.21818181818181817,215,1,34,_Guitar,6,3,_Guitar,0.9990280866622925,1
60,100,0.6227272727272727,563,1,34,_Guitar,6,10,_Guitar,0.3703373372554779,0
53,100,0.17727272727272728,721,0,34,_Guitar,6,3,_Guitar,0.45616570115089417,0
60,100,0.11818181818181818,153,1,35,_Guitar,6,2,_Guitar,0.9983232617378235,1
60,100,0.1590909090909091,810,1,35,_Guitar,6,3,_Guitar,0.5462133884429932,1
60,100,0.4818181818181818,298,1,36,_Guitar,6,8,_Guitar,0.9988439083099365,1
53,100,0.1590909090909091,474,0,36,_Guitar,6,3,_Guitar,0.1379781812429428,0
60,100,0.5227272727272727,554,0,36,_Guitar,6,8,_Guitar,0.1623626947402954,0
69,100,0.1,703,0,36,_Guitar,6,2,_Guitar,0.19105131924152374,0
60,100,0.3181818181818182,823,0,36,_Guitar,6,5,_Guitar,0.2619670331478119,0
60,100,0.17727272727272728,18,1,37,_Guitar,6,3,_Guitar,0.9990094900131226,1
53,100,0.2409090909090909,286,1,37,_Guitar,6,4,_Guitar,0.23322762548923492,0
53,100,0.1590909090909091,493,0,37,_Guitar,6,3,_Guitar,0.2705783247947693,0
60,100,0.1409090909090909,668,0,37,_Guitar,6,2,_Guitar,0.357925683259964,0
53,100,0.1590909090909091,21,1,38,_Guitar,6,3,_Guitar,0.9988439083099365,1
65,100,0.18181818181818182,78,0,38,_Guitar,6,3,_Guitar,0.13797840476036072,0
53,100,0.1409090909090909,444,1,38,_Guitar,6,2,_Guitar,0.16236278414726257,0
53,100,0.2590909090909091,716,1,38,_Guitar,6,4,_Guitar,0.19104979932308197,0
53,100,0.16363636363636364,861,0,38,_Guitar,6,3,_Guitar,0.2619626820087433,0
53,100,0.2818181818181818,34,1,39,_Guitar,6,5,_Guitar,0.9990280866622925,1
60,100,0.21818181818181817,131,0,39,_Guitar,6,3,_Guitar,0.37034186720848083,0
60,100,0.22272727272727272,431,1,39,_Guitar,6,4,_Guitar,0.4561658501625061,0
60,100,0.3,69,1,40,_Guitar,6,5,_Guitar,0.9990280866622925,1
58,100,0.1409090909090909,356,1,40,_Guitar,6,2,_Guitar,0.3703412115573883,0
53,100,0.2409090909090909,708,1,40,_Guitar,6,4,_Guitar,0.4561660885810852,0
58,100,0.36363636363636365,26,1,41,_Guitar,6,6,_Guitar,0.9988439083099365,1
58,100,0.35909090909090907,303,1,41,_Guitar,6,6,_Guitar,0.13798178732395172,0
53,100,0.3181818181818182,506,0,41,_Guitar,6,5,_Guitar,0.1623615026473999,0
60,100,0.11818181818181818,581,0,41,_Guitar,6,2,_Guitar,0.19105522334575653,0
57,100,0.2409090909090909,735,0,41,_Guitar,6,4,_Guitar,0.26195481419563293,0
53,100,0.1409090909090909,351,1,43,_Guitar,6,2,_Guitar,0.9990094900131226,1
53,100,0.17727272727272728,611,1,43,_Guitar,6,3,_Guitar,0.23322845995426178,0
53,100,0.11818181818181818,770,0,43,_Guitar,6,2,_Guitar,0.2705802917480469,0
60,100,0.1,826,0,43,_Guitar,6,2,_Guitar,0.35792645812034607,0
53,100,0.3181818181818182,96,1,44,_Guitar,6,5,_Guitar,0.9990280866622925,1
60,100,0.3409090909090909,166,0,44,_Guitar,6,5,_Guitar,0.3703419864177704,0
60,100,0.3409090909090909,444,1,44,_Guitar,6,5,_Guitar,0.4561731517314911,0
53,100,0.11818181818181818,480,1,45,_Guitar,6,2,_Guitar,0.9792234897613525,1
53,100,0.3181818181818182,88,1,46,_Guitar,6,5,_Guitar,0.9983231425285339,1
62,100,0.18181818181818182,373,1,46,_Guitar,6,3,_Guitar,0.5462195873260498,1
60,100,0.8,166,1,47,_Guitar,6,13,_Guitar,0.9792240262031555,1
60,100,0.18181818181818182,254,1,48,_Guitar,6,3,_Guitar,0.9990094900131226,1
58,100,0.2,418,0,48,_Guitar,6,3,_Guitar,0.23323091864585876,0
58,100,0.18181818181818182,509,0,48,_Guitar,6,3,_Guitar,0.2705810070037842,0
65,100,0.4,694,0,48,_Guitar,6,6,_Guitar,0.35792675614356995,0
60,100,0.3409090909090909,53,1,49,_Guitar,6,5,_Guitar,0.9983232617378235,1
57,100,0.9590909090909091,633,1,49,_Guitar,6,15,_Guitar,0.5462126135826111,1
60,100,0.3409090909090909,91,1,50,_Guitar,6,5,_Guitar,0.9986506104469299,1
57,100,1.1818181818181819,188,0,50,_Guitar,6,15,_Guitar,0.08798003941774368,0
57,100,0.2818181818181818,453,1,50,_Guitar,6,5,_Guitar,0.09298695623874664,0
57,100,0.18181818181818182,528,0,50,_Guitar,6,3,_Guitar,0.10995309799909592,0
57,100,0.5772727272727273,590,0,50,_Guitar,6,9,_Guitar,0.12867406010627747,0
60,100,0.6,721,0,50,_Guitar,6,10,_Guitar,0.18222762644290924,0
60,100,0.1409090909090909,246,1,51,_Guitar,6,2,_Guitar,0.9986506104469299,1
60,100,0.2409090909090909,334,0,51,_Guitar,6,4,_Guitar,0.087980717420578,0
53,100,0.4590909090909091,396,0,51,_Guitar,6,7,_Guitar,0.09298519790172577,0
65,100,0.1409090909090909,496,0,51,_Guitar,6,2,_Guitar,0.10994883626699448,0
60,100,1.2636363636363637,531,0,51,_Guitar,6,15,_Guitar,0.12867207825183868,0
57,100,0.8,853,1,51,_Guitar,6,13,_Guitar,0.18221423029899597,0
65,100,0.7181818181818181,458,1,52,_Guitar,6,11,_Guitar,0.9983231425285339,1
62,100,0.7818181818181819,651,0,52,_Guitar,6,13,_Guitar,0.5462176203727722,1
57,100,0.16363636363636364,48,1,53,_Guitar,6,3,_Guitar,0.9990094900131226,1
60,100,0.5,268,0,53,_Guitar,6,8,_Guitar,0.2332368791103363,0
60,100,0.2590909090909091,523,1,53,_Guitar,6,4,_Guitar,0.27058717608451843,0
53,100,0.1590909090909091,655,0,53,_Guitar,6,3,_Guitar,0.3579319715499878,0
53,100,0.1590909090909091,43,1,54,_Guitar,6,3,_Guitar,0.9990280866622925,1
58,100,0.6,179,0,54,_Guitar,6,10,_Guitar,0.37033611536026,0
53,100,0.2,515,1,54,_Guitar,6,3,_Guitar,0.4561641216278076,0
53,100,0.1409090909090909,75,1,55,_Guitar,6,2,_Guitar,0.9984879493713379,1
53,100,0.35909090909090907,110,0,55,_Guitar,6,6,_Guitar,0.06335372477769852,0
53,100,0.3181818181818182,206,0,55,_Guitar,6,5,_Guitar,0.058288704603910446,0
60,100,0.3181818181818182,281,0,55,_Guitar,6,5,_Guitar,0.06136085465550423,0
60,100,0.5181818181818182,506,0,55,_Guitar,6,8,_Guitar,0.07167946547269821,0
60,100,0.3181818181818182,713,0,55,_Guitar,6,5,_Guitar,0.08473196625709534,0
60,100,0.3181818181818182,831,0,55,_Guitar,6,5,_Guitar,0.12634092569351196,0
62,100,0.21818181818181817,176,1,56,_Guitar,6,3,_Guitar,0.9986506104469299,1
60,100,0.6772727272727272,281,0,56,_Guitar,6,11,_Guitar,0.08798244595527649,0
53,100,0.21818181818181817,448,0,56,_Guitar,6,3,_Guitar,0.0929875448346138,0
65,100,0.22272727272727272,509,0,56,_Guitar,6,4,_Guitar,0.10995471477508545,0
57,100,0.2772727272727273,590,0,56,_Guitar,6,4,_Guitar,0.12867571413516998,0
60,100,0.9818181818181818,703,0,56,_Guitar,6,15,_Guitar,0.18222598731517792,0
60,100,0.6,118,1,57,_Guitar,6,10,_Guitar,0.9988439083099365,1
65,100,0.5590909090909091,471,1,57,_Guitar,6,9,_Guitar,0.1379803717136383,0
58,100,0.33636363636363636,655,0,57,_Guitar,6,5,_Guitar,0.16236430406570435,0
60,100,0.1590909090909091,765,0,57,_Guitar,6,3,_Guitar,0.19105593860149384,0
53,100,0.3181818181818182,810,0,57,_Guitar,6,5,_Guitar,0.2619595229625702,0
60,100,0.2818181818181818,4,1,58,_Guitar,6,5,_Guitar,0.9988439083099365,1
53,100,0.4818181818181818,78,0,58,_Guitar,6,8,_Guitar,0.13797533512115479,0
53,100,0.13636363636363635,215,0,58,_Guitar,6,2,_Guitar,0.16235795617103577,0
53,100,0.12272727272727273,298,0,58,_Guitar,6,2,_Guitar,0.19105008244514465,0
60,100,0.18181818181818182,378,0,58,_Guitar,6,3,_Guitar,0.26196175813674927,0
60,100,0.9181818181818182,105,1,59,_Guitar,6,15,_Guitar,0.9988439083099365,1
55,100,0.1,361,1,59,_Guitar,6,2,_Guitar,0.13798165321350098,0
60,100,0.22272727272727272,619,1,59,_Guitar,6,4,_Guitar,0.16236205399036407,0
60,100,0.1409090909090909,694,0,59,_Guitar,6,2,_Guitar,0.19105543196201324,0
60,100,0.8,748,0,59,_Guitar,6,13,_Guitar,0.26195499300956726,0
53,100,0.2,43,1,60,_Guitar,6,3,_Guitar,0.9990094900131226,1
60,100,0.5409090909090909,141,0,60,_Guitar,6,9,_Guitar,0.2332315593957901,0
60,100,1.3590909090909091,308,0,60,_Guitar,6,15,_Guitar,0.2705751359462738,0
60,100,0.4409090909090909,726,1,60,_Guitar,6,7,_Guitar,0.3579273521900177,0
60,100,0.35909090909090907,263,1,61,_Guitar,6,6,_Guitar,0.9990280866622925,1
62,100,0.35909090909090907,351,0,61,_Guitar,6,6,_Guitar,0.37033775448799133,0
60,100,0.6590909090909091,703,1,61,_Guitar,6,11,_Guitar,0.4561758041381836,0
60,100,0.6181818181818182,171,1,62,_Guitar,6,10,_Guitar,0.9988439083099365,1
58,100,0.1590909090909091,405,1,62,_Guitar,6,3,_Guitar,0.1379822939634323,0
60,100,0.5,461,0,62,_Guitar,6,8,_Guitar,0.16236254572868347,0
58,100,0.13636363636363635,678,0,62,_Guitar,6,2,_Guitar,0.19105443358421326,0
60,100,1.0227272727272727,774,0,62,_Guitar,6,15,_Guitar,0.26196613907814026,0
60,100,0.2818181818181818,289,1,63,_Guitar,6,5,_Guitar,0.9990094900131226,1
60,100,0.22272727272727272,444,0,63,_Guitar,6,4,_Guitar,0.23323576152324677,0
58,100,0.5409090909090909,563,0,63,_Guitar,6,9,_Guitar,0.2705729603767395,0
60,100,0.5,818,1,63,_Guitar,6,8,_Guitar,0.35792848467826843,0
58,100,0.5227272727272727,430,1,64,_Guitar,6,8,_Guitar,0.9990280866622925,1
60,100,0.36363636363636365,553,0,64,_Guitar,6,6,_Guitar,0.37034109234809875,0
60,100,0.1,870,1,64,_Guitar,6,2,_Guitar,0.4561741352081299,0
57,100,0.3181818181818182,163,1,65,_Guitar,6,5,_Guitar,0.9990280866622925,1
60,100,0.5227272727272727,629,1,65,_Guitar,6,8,_Guitar,0.3703494071960449,0
53,100,0.12272727272727273,870,1,65,_Guitar,6,2,_Guitar,0.4561687707901001,0
60,100,0.1590909090909091,79,1,66,_Guitar,6,3,_Guitar,0.9988439083099365,1
58,100,0.8,136,0,66,_Guitar,6,13,_Guitar,0.13798072934150696,0
58,100,0.2409090909090909,316,0,66,_Guitar,6,4,_Guitar,0.16236445307731628,0
58,100,0.12272727272727273,650,1,66,_Guitar,6,2,_Guitar,0.19105719029903412,0
65,100,0.2818181818181818,849,0,66,_Guitar,6,5,_Guitar,0.26196035742759705,0
58,100,0.2,157,1,67,_Guitar,6,3,_Guitar,0.9984879493713379,1
53,100,0.1409090909090909,286,0,67,_Guitar,6,2,_Guitar,0.06335344165563583,0
57,100,0.33636363636363636,392,0,67,_Guitar,6,5,_Guitar,0.05828750506043434,0
53,100,0.3181818181818182,493,0,67,_Guitar,6,5,_Guitar,0.06136227771639824,0
53,100,0.18181818181818182,585,0,67,_Guitar,6,3,_Guitar,0.0716828852891922,0
60,100,0.5,650,0,67,_Guitar,6,8,_Guitar,0.08473706990480423,0
60,100,1.1409090909090909,770,0,67,_Guitar,6,15,_Guitar,0.12635040283203125,0
60,100,0.1409090909090909,233,1,68,_Guitar,6,2,_Guitar,0.9990280866622925,1
60,100,0.4772727272727273,392,0,68,_Guitar,6,8,_Guitar,0.3703404664993286,0
65,100,0.35909090909090907,624,1,68,_Guitar,6,6,_Guitar,0.4561692774295807,0
60,100,0.35909090909090907,233,1,69,_Guitar,6,6,_Guitar,0.9983736276626587,1
53,100,0.2409090909090909,399,0,69,_Guitar,6,4,_Guitar,0.051049601286649704,0
60,100,0.18181818181818182,487,0,69,_Guitar,6,3,_Guitar,0.041612397879362106,0
60,100,0.12272727272727273,673,0,69,_Guitar,6,2,_Guitar,0.03797972947359085,0
60,100,0.1590909090909091,713,0,69,_Guitar,6,3,_Guitar,0.039261072874069214,0
53,100,0.1590909090909091,756,0,69,_Guitar,6,3,_Guitar,0.046165551990270615,0
53,100,0.12272727272727273,826,0,69,_Guitar,6,2,_Guitar,0.057131681591272354,0
57,100,0.37727272727272726,853,0,69,_Guitar,6,6,_Guitar,0.09188159555196762,0
60,100,0.2,166,1,70,_Guitar,6,3,_Guitar,0.9984879493713379,1
60,100,0.21818181818181817,273,0,70,_Guitar,6,3,_Guitar,0.06335309892892838,0
53,100,0.12272727272727273,356,0,70,_Guitar,6,2,_Guitar,0.0582873672246933,0
57,100,0.1,550,0,70,_Guitar,6,2,_Guitar,0.06135914474725723,0
53,100,0.1,633,0,70,_Guitar,6,2,_Guitar,0.0716826394200325,0
53,100,0.16363636363636364,663,0,70,_Guitar,6,3,_Guitar,0.08473141491413116,0
60,100,0.2,826,0,70,_Guitar,6,3,_Guitar,0.12634867429733276,0
53,100,0.2409090909090909,35,1,71,_Guitar,6,4,_Guitar,0.9986506104469299,1
58,100,0.1,184,0,71,_Guitar,6,2,_Guitar,0.08798233419656754,0
58,100,1.0227272727272727,210,0,71,_Guitar,6,15,_Guitar,0.09298434853553772,0
60,100,0.2590909090909091,519,1,71,_Guitar,6,4,_Guitar,0.10994991660118103,0
60,100,0.3,734,0,71,_Guitar,6,5,_Guitar,0.128670796751976,0
60,100,0.8181818181818182,844,0,71,_Guitar,6,13,_Guitar,0.182216614484787,0
60,100,0.12272727272727273,157,1,72,_Guitar,6,2,_Guitar,0.9990094900131226,1
53,100,0.12272727272727273,276,0,72,_Guitar,6,2,_Guitar,0.23322664201259613,0
53,100,0.12272727272727273,399,0,72,_Guitar,6,2,_Guitar,0.2705773413181305,0
65,100,0.3,426,0,72,_Guitar,6,5,_Guitar,0.3579219579696655,0
53,100,0.2590909090909091,210,1,73,_Guitar,6,4,_Guitar,0.9990094900131226,1
60,100,0.21818181818181817,303,0,73,_Guitar,6,3,_Guitar,0.23322486877441406,0
53,100,0.18181818181818182,487,0,73,_Guitar,6,3,_Guitar,0.27057740092277527,0
55,100,0.37727272727272726,832,1,73,_Guitar,6,6,_Guitar,0.35792937874794006,0
60,100,0.4590909090909091,56,1,74,_Guitar,6,7,_Guitar,0.9983232617378235,1
64,100,0.17727272727272728,392,1,74,_Guitar,6,3,_Guitar,0.5462135672569275,1
60,100,0.4772727272727273,40,1,75,_Guitar,6,8,_Guitar,0.9990094900131226,1
60,100,0.9590909090909091,299,1,75,_Guitar,6,15,_Guitar,0.23322954773902893,0
53,100,0.1409090909090909,550,1,75,_Guitar,6,2,_Guitar,0.2705775201320648,0
60,100,1.6409090909090909,682,0,75,_Guitar,6,15,_Guitar,0.35792502760887146,0
65,100,0.21818181818181817,787,1,76,_Guitar,6,3,_Guitar,0.979223906993866,1
60,100,0.8590909090909091,96,1,77,_Guitar,6,14,_Guitar,0.9990094900131226,1
53,100,0.12272727272727273,443,1,77,_Guitar,6,2,_Guitar,0.23324216902256012,0
58,100,0.13636363636363635,480,0,77,_Guitar,6,2,_Guitar,0.2705990672111511,0
58,100,1.3590909090909091,563,0,77,_Guitar,6,15,_Guitar,0.3579128384590149,0
58,100,0.1409090909090909,22,1,78,_Guitar,6,2,_Guitar,0.9988439083099365,1
55,100,0.1,263,1,78,_Guitar,6,2,_Guitar,0.13798324763774872,0
55,100,0.1,289,0,78,_Guitar,6,2,_Guitar,0.16236324608325958,0
60,100,0.5590909090909091,493,0,78,_Guitar,6,9,_Guitar,0.19105860590934753,0
60,100,2.2590909090909093,677,0,78,_Guitar,6,15,_Guitar,0.26195645332336426,0
60,100,0.8636363636363636,356,1,79,_Guitar,6,14,_Guitar,0.9792240262031555,1
60,100,0.1,123,1,80,_Guitar,6,2,_Guitar,0.9792246222496033,1
60,100,0.38181818181818183,386,1,81,_Guitar,6,6,_Guitar,0.9990280866622925,1
60,100,0.5227272727272727,519,0,81,_Guitar,6,8,_Guitar,0.3703416883945465,0
60,100,0.6772727272727272,669,0,81,_Guitar,6,11,_Guitar,0.4561699628829956,0
60,100,0.9409090909090909,3,1,82,_Guitar,6,15,_Guitar,0.9988439083099365,1
65,100,0.11818181818181818,373,1,82,_Guitar,6,2,_Guitar,0.137982577085495,0
65,100,0.17727272727272728,413,0,82,_Guitar,6,3,_Guitar,0.1623625010251999,0
62,100,0.5,493,0,82,_Guitar,6,8,_Guitar,0.19105777144432068,0
60,100,1.1818181818181819,637,0,82,_Guitar,6,15,_Guitar,0.26196298003196716,0
53,100,0.2,26,1,83,_Guitar,6,3,_Guitar,0.9988439083099365,1
60,100,0.8409090909090909,229,0,83,_Guitar,6,13,_Guitar,0.13798239827156067,0
53,100,0.1,466,1,83,_Guitar,6,2,_Guitar,0.1623661369085312,0
53,100,0.22272727272727272,716,1,83,_Guitar,6,4,_Guitar,0.19105292856693268,0
60,100,0.35909090909090907,783,0,83,_Guitar,6,6,_Guitar,0.2619668245315552,0
58,100,0.13636363636363635,40,1,84,_Guitar,6,2,_Guitar,0.9988439083099365,1
60,100,0.2409090909090909,189,0,84,_Guitar,6,4,_Guitar,0.13798034191131592,0
53,100,0.11818181818181818,326,0,84,_Guitar,6,2,_Guitar,0.16235925257205963,0
60,100,0.9409090909090909,466,0,84,_Guitar,6,15,_Guitar,0.19105690717697144,0
60,100,0.6,677,0,84,_Guitar,6,10,_Guitar,0.2619641125202179,0
65,100,0.1,3,1,85,_Guitar,6,2,_Guitar,0.9983735084533691,1
65,100,0.17727272727272728,30,0,85,_Guitar,6,3,_Guitar,0.05104980245232582,0
58,100,0.1,184,0,85,_Guitar,6,2,_Guitar,0.041612185537815094,0
62,100,0.2409090909090909,220,0,85,_Guitar,6,4,_Guitar,0.03797827661037445,0
58,100,0.6181818181818182,370,0,85,_Guitar,6,10,_Guitar,0.03926071152091026,0
58,100,0.5636363636363636,509,0,85,_Guitar,6,9,_Guitar,0.04616464301943779,0
64,100,0.22272727272727272,642,0,85,_Guitar,6,4,_Guitar,0.05713135749101639,0
60,100,0.5818181818181818,695,0,85,_Guitar,6,9,_Guitar,0.09188128262758255,0
65,100,0.21818181818181817,176,1,86,_Guitar,6,3,_Guitar,0.9990094900131226,1
53,100,0.35909090909090907,237,0,86,_Guitar,6,6,_Guitar,0.23323333263397217,0
60,100,0.6181818181818182,373,0,86,_Guitar,6,10,_Guitar,0.2705886662006378,0
60,100,0.18181818181818182,839,1,86,_Guitar,6,3,_Guitar,0.35792964696884155,0
64,100,0.35909090909090907,386,1,87,_Guitar,6,6,_Guitar,0.9990094900131226,1
60,100,0.17727272727272728,493,0,87,_Guitar,6,3,_Guitar,0.2332368642091751,0
57,100,0.1590909090909091,612,0,87,_Guitar,6,3,_Guitar,0.27058103680610657,0
60,100,0.2818181818181818,686,0,87,_Guitar,6,5,_Guitar,0.3579372465610504,0
53,100,0.2,66,1,88,_Guitar,6,3,_Guitar,0.9984879493713379,1
65,100,0.2,189,0,88,_Guitar,6,3,_Guitar,0.06335318833589554,0
53,100,0.37727272727272726,347,0,88,_Guitar,6,6,_Guitar,0.05828758329153061,0
65,100,0.1409090909090909,430,0,88,_Guitar,6,2,_Guitar,0.06136108934879303,0
65,100,0.3,637,0,88,_Guitar,6,5,_Guitar,0.07167935371398926,0
60,100,0.21818181818181817,703,0,88,_Guitar,6,3,_Guitar,0.08473304659128189,0
53,100,0.11818181818181818,766,0,88,_Guitar,6,2,_Guitar,0.1263454556465149,0
60,100,0.17727272727272728,40,1,89,_Guitar,6,3,_Guitar,0.9986506104469299,1
65,100,0.4,92,0,89,_Guitar,6,6,_Guitar,0.08797796815633774,0
60,100,0.4772727272727273,193,0,89,_Guitar,6,8,_Guitar,0.09298227727413177,0
58,100,0.1590909090909091,303,0,89,_Guitar,6,3,_Guitar,0.10994502902030945,0
60,100,0.2409090909090909,409,0,89,_Guitar,6,4,_Guitar,0.12866604328155518,0
64,100,0.11818181818181818,677,1,89,_Guitar,6,2,_Guitar,0.1822148859500885,0
65,100,0.22272727272727272,56,1,90,_Guitar,6,4,_Guitar,0.9983004927635193,1
53,100,0.5,294,1,90,_Guitar,6,8,_Guitar,0.04466146603226662,0
65,100,0.3181818181818182,404,0,90,_Guitar,6,5,_Guitar,0.0333714634180069,0
65,100,0.2409090909090909,483,0,90,_Guitar,6,4,_Guitar,0.02694760449230671,0
77,100,0.11818181818181818,550,0,90,_Guitar,6,2,_Guitar,0.02408294379711151,0
60,100,0.2409090909090909,593,0,90,_Guitar,6,4,_Guitar,0.02497248910367489,0
60,100,0.1,686,0,90,_Guitar,6,2,_Guitar,0.030646592378616333,0
55,100,0.2,743,0,90,_Guitar,6,3,_Guitar,0.04136661812663078,0
60,100,0.18181818181818182,813,0,90,_Guitar,6,3,_Guitar,0.07206691056489944,0
84,100,0.2409090909090909,9,1,91,_Guitar,6,4,_Guitar,0.9983735084533691,1
60,100,0.42272727272727273,113,0,91,_Guitar,6,7,_Guitar,0.05104948952794075,0
77,100,0.21818181818181817,220,0,91,_Guitar,6,3,_Guitar,0.04161132127046585,0
55,100,0.2818181818181818,276,0,91,_Guitar,6,5,_Guitar,0.03797909617424011,0
58,100,0.2590909090909091,360,0,91,_Guitar,6,4,_Guitar,0.03925878927111626,0
81,100,0.1,426,0,91,_Guitar,6,2,_Guitar,0.04616419970989227,0
65,100,0.2409090909090909,650,0,91,_Guitar,6,4,_Guitar,0.057129867374897,0
76,100,0.2636363636363636,752,0,91,_Guitar,6,4,_Guitar,0.0918784961104393,0
72,100,0.17727272727272728,106,1,92,_Guitar,6,3,_Guitar,0.9982556700706482,1
72,100,0.3,229,0,92,_Guitar,6,5,_Guitar,0.04129231348633766,0
53,100,0.1590909090909091,409,0,92,_Guitar,6,3,_Guitar,0.029124541208148003,0
77,100,0.1590909090909091,457,0,92,_Guitar,6,3,_Guitar,0.02156919613480568,0
81,100,0.1,553,0,92,_Guitar,6,2,_Guitar,0.017058776691555977,0
60,100,0.1409090909090909,616,0,92,_Guitar,6,2,_Guitar,0.015268010087311268,0
79,100,0.16363636363636364,663,0,92,_Guitar,6,3,_Guitar,0.016455646604299545,0
84,100,0.1590909090909091,716,0,92,_Guitar,6,3,_Guitar,0.021836765110492706,0
53,100,0.38181818181818183,760,0,92,_Guitar,6,6,_Guitar,0.03251684829592705,0
65,100,0.2409090909090909,870,0,92,_Guitar,6,4,_Guitar,0.06091064214706421,0
77,100,0.2,69,1,93,_Guitar,6,3,_Guitar,0.9983004927635193,1
53,100,0.18181818181818182,136,0,93,_Guitar,6,3,_Guitar,0.044661302119493484,0
60,100,0.32272727272727275,179,0,93,_Guitar,6,5,_Guitar,0.03337140753865242,0
60,100,0.2409090909090909,267,0,93,_Guitar,6,4,_Guitar,0.026947254315018654,0
60,100,0.3181818181818182,396,0,93,_Guitar,6,5,_Guitar,0.024083547294139862,0
84,100,0.2,466,0,93,_Guitar,6,3,_Guitar,0.024972593411803246,0
60,100,0.6409090909090909,532,0,93,_Guitar,6,10,_Guitar,0.030646538361907005,0
60,100,0.1409090909090909,726,0,93,_Guitar,6,2,_Guitar,0.041368141770362854,0
55,100,0.21818181818181817,756,0,93,_Guitar,6,3,_Guitar,0.0720687285065651,0
60,100,0.11818181818181818,22,1,94,_Guitar,6,2,_Guitar,0.9983004927635193,1
58,100,0.4,113,0,94,_Guitar,6,6,_Guitar,0.044662173837423325,0
65,100,0.1409090909090909,210,0,94,_Guitar,6,2,_Guitar,0.03337176889181137,0
77,100,0.1,282,0,94,_Guitar,6,2,_Guitar,0.026947254315018654,0
76,100,0.1,356,0,94,_Guitar,6,2,_Guitar,0.02408408559858799,0
57,100,0.2,436,0,94,_Guitar,6,3,_Guitar,0.02497231401503086,0
57,100,0.13636363636363635,656,0,94,_Guitar,6,2,_Guitar,0.030647527426481247,0
72,100,0.2590909090909091,695,0,94,_Guitar,6,4,_Guitar,0.041369833052158356,0
76,100,0.1,844,0,94,_Guitar,6,2,_Guitar,0.07206924259662628,0
79,100,0.1,113,1,95,_Guitar,6,2,_Guitar,0.9983004927635193,1
81,100,0.1,140,0,95,_Guitar,6,2,_Guitar,0.044661376625299454,0
84,100,0.1590909090909091,294,0,95,_Guitar,6,3,_Guitar,0.03337100148200989,0
53,100,0.18181818181818182,462,0,95,_Guitar,6,3,_Guitar,0.02694724127650261,0
77,100,0.21818181818181817,536,0,95,_Guitar,6,3,_Guitar,0.024082932621240616,0
53,100,0.22272727272727272,585,0,95,_Guitar,6,4,_Guitar,0.024971570819616318,0
60,100,0.21818181818181817,660,0,95,_Guitar,6,3,_Guitar,0.030646804720163345,0
86,100,0.12272727272727273,752,0,95,_Guitar,6,2,_Guitar,0.04136628657579422,0
60,100,0.6181818181818182,787,0,95,_Guitar,6,10,_Guitar,0.07206819206476212,0
84,100,0.2636363636363636,47,1,96,_Guitar,6,4,_Guitar,0.9984879493713379,1
81,100,0.2,106,0,96,_Guitar,6,3,_Guitar,0.06335368007421494,0
60,100,0.4,172,0,96,_Guitar,6,6,_Guitar,0.05829060077667236,0
76,100,0.12272727272727273,343,0,96,_Guitar,6,2,_Guitar,0.06136361137032509,0
53,100,0.12272727272727273,409,0,96,_Guitar,6,2,_Guitar,0.07168526202440262,0
65,100,0.2409090909090909,449,0,96,_Guitar,6,4,_Guitar,0.08473973721265793,0
57,100,1.5818181818181818,673,0,96,_Guitar,6,15,_Guitar,0.12634998559951782,0
53,100,0.5590909090909091,343,1,97,_Guitar,6,9,_Guitar,0.9983231425285339,1
57,100,0.2409090909090909,739,1,97,_Guitar,6,4,_Guitar,0.5462177991867065,1
57,100,0.33636363636363636,347,1,98,_Guitar,6,5,_Guitar,0.9792237281799316,1
52,100,0.7227272727272728,48,1,0,_tunecore_Remastered_Guitar,6,12,_tunecore_Remastered_Guitar,0.9988439083099365,1
59,100,0.2,370,1,0,_tunecore_Remastered_Guitar,6,3,_tunecore_Remastered_Guitar,0.13798324763774872,0
59,100,0.1,559,0,0,_tunecore_Remastered_Guitar,6,2,_tunecore_Remastered_Guitar,0.16236194968223572,0
59,100,0.2,713,0,0,_tunecore_Remastered_Guitar,6,3,_tunecore_Remastered_Guitar,0.19106242060661316,0
61,100,0.4,801,0,0,_tunecore_Remastered_Guitar,6,6,_tunecore_Remastered_Guitar,0.26196014881134033,0
64,100,0.6181818181818182,18,1,1,_tunecore_Remastered_Guitar,6,10,_tunecore_Remastered_Guitar,0.9983004927635193,1
61,100,0.1590909090909091,241,0,1,_tunecore_Remastered_Guitar,6,3,_tunecore_Remastered_Guitar,0.0446619875729084,0
66,100,0.2409090909090909,299,0,1,_tunecore_Remastered_Guitar,6,4,_tunecore_Remastered_Guitar,0.03337209299206734,0
68,100,0.3181818181818182,369,0,1,_tunecore_Remastered_Guitar,6,5,_tunecore_Remastered_Guitar,0.0269477479159832,0
66,100,0.4818181818181818,475,0,1,_tunecore_Remastered_Guitar,6,8,_tunecore_Remastered_Guitar,0.024083806201815605,0
66,100,0.1590909090909091,669,0,1,_tunecore_Remastered_Guitar,6,3,_tunecore_Remastered_Guitar,0.024972662329673767,0
59,100,0.1590909090909091,744,0,1,_tunecore_Remastered_Guitar,6,3,_tunecore_Remastered_Guitar,0.030647628009319305,0
61,100,0.3181818181818182,791,0,1,_tunecore_Remastered_Guitar,6,5,_tunecore_Remastered_Guitar,0.04136815294623375,0
59,100,0.759090909090909,871,0,1,_tunecore_Remastered_Guitar,6,12,_tunecore_Remastered_Guitar,0.07207094132900238,0
59,100,0.6772727272727272,193,1,2,_tunecore_Remastered_Guitar,6,11,_tunecore_Remastered_Guitar,0.9984879493713379,1
64,100,0.21818181818181817,348,0,2,_tunecore_Remastered_Guitar,6,3,_tunecore_Remastered_Guitar,0.06335455924272537,0
59,100,0.2409090909090909,427,0,2,_tunecore_Remastered_Guitar,6,4,_tunecore_Remastered_Guitar,0.058290064334869385,0
64,100,0.2409090909090909,488,0,2,_tunecore_Remastered_Guitar,6,4,_tunecore_Remastered_Guitar,0.06136364862322807,0
52,100,0.6409090909090909,541,0,2,_tunecore_Remastered_Guitar,6,10,_tunecore_Remastered_Guitar,0.07168357819318771,0
64,100,0.1,779,1,2,_tunecore_Remastered_Guitar,6,2,_tunecore_Remastered_Guitar,0.08473841845989227,0
64,100,0.1,849,0,2,_tunecore_Remastered_Guitar,6,2,_tunecore_Remastered_Guitar,0.1263572722673416,0
59,100,0.2,34,1,3,_tunecore_Remastered_Guitar,6,3,_tunecore_Remastered_Guitar,0.9982282519340515,1
61,100,0.2818181818181818,100,0,3,_tunecore_Remastered_Guitar,6,5,_tunecore_Remastered_Guitar,0.03940176963806152,0
64,100,0.3181818181818182,176,0,3,_tunecore_Remastered_Guitar,6,5,_tunecore_Remastered_Guitar,0.026855075731873512,0
61,100,0.35909090909090907,369,0,3,_tunecore_Remastered_Guitar,6,6,_tunecore_Remastered_Guitar,0.018831314519047737,0
64,100,0.2,458,0,3,_tunecore_Remastered_Guitar,6,3,_tunecore_Remastered_Guitar,0.013655242510139942,0
68,100,0.17727272727272728,537,0,3,_tunecore_Remastered_Guitar,6,3,_tunecore_Remastered_Guitar,0.010813173837959766,0
66,100,0.2590909090909091,593,0,3,_tunecore_Remastered_Guitar,6,4,_tunecore_Remastered_Guitar,0.010073849000036716,0
64,100,0.23636363636363636,656,0,3,_tunecore_Remastered_Guitar,6,4,_tunecore_Remastered_Guitar,0.0117167504504323,0
61,100,0.2636363636363636,708,0,3,_tunecore_Remastered_Guitar,6,4,_tunecore_Remastered_Guitar,0.01699233241379261,0
57,100,0.13636363636363635,810,0,3,_tunecore_Remastered_Guitar,6,2,_tunecore_Remastered_Guitar,0.027579311281442642,0
66,100,0.8181818181818182,853,0,3,_tunecore_Remastered_Guitar,6,13,_tunecore_Remastered_Guitar,0.054595720022916794,0
66,100,0.7,158,1,4,_tunecore_Remastered_Guitar,6,11,_tunecore_Remastered_Guitar,0.9990280866622925,1
64,100,1.2636363636363637,334,0,4,_tunecore_Remastered_Guitar,6,15,_tunecore_Remastered_Guitar,0.3703385889530182,0
63,100,0.1409090909090909,836,1,4,_tunecore_Remastered_Guitar,6,2,_tunecore_Remastered_Guitar,0.45616915822029114,0
64,100,0.12272727272727273,135,1,5,_tunecore_Remastered_Guitar,6,2,_tunecore_Remastered_Guitar,0.9990280866622925,1
52,100,0.740909090909091,163,0,5,_tunecore_Remastered_Guitar,6,12,_tunecore_Remastered_Guitar,0.37033867835998535,0
61,100,0.4590909090909091,854,1,5,_tunecore_Remastered_Guitar,6,7,_tunecore_Remastered_Guitar,0.456173837184906,0
64,100,0.1409090909090909,74,1,6,_tunecore_Remastered_Guitar,6,2,_tunecore_Remastered_Guitar,0.9984879493713379,1
64,100,0.42272727272727273,145,0,6,_tunecore_Remastered_Guitar,6,7,_tunecore_Remastered_Guitar,0.06335253268480301,0
61,100,0.1,550,1,6,_tunecore_Remastered_Guitar,6,2,_tunecore_Remastered_Guitar,0.05828817933797836,0
61,100,0.1,598,0,6,_tunecore_Remastered_Guitar,6,2,_tunecore_Remastered_Guitar,0.06136356294155121,0
61,100,0.2,721,0,6,_tunecore_Remastered_Guitar,6,3,_tunecore_Remastered_Guitar,0.0716845765709877,0
57,100,0.1409090909090909,826,0,6,_tunecore_Remastered_Guitar,6,2,_tunecore_Remastered_Guitar,0.08473706990480423,0
61,100,0.3409090909090909,871,0,6,_tunecore_Remastered_Guitar,6,5,_tunecore_Remastered_Guitar,0.12635602056980133,0
63,100,0.4,220,1,7,_tunecore_Remastered_Guitar,6,6,_tunecore_Remastered_Guitar,0.9990280866622925,1
52,100,0.6363636363636364,634,1,7,_tunecore_Remastered_Guitar,6,10,_tunecore_Remastered_Guitar,0.37033993005752563,0
52,100,0.22272727272727272,818,0,7,_tunecore_Remastered_Guitar,6,4,_tunecore_Remastered_Guitar,0.4561780095100403,0
68,100,0.2409090909090909,110,1,8,_tunecore_Remastered_Guitar,6,4,_tunecore_Remastered_Guitar,0.9990280866622925,1
64,100,0.2590909090909091,462,1,8,_tunecore_Remastered_Guitar,6,4,_tunecore_Remastered_Guitar,0.37033939361572266,0
64,100,0.1590909090909091,558,0,8,_tunecore_Remastered_Guitar,6,3,_tunecore_Remastered_Guitar,0.4561671316623688,0
61,100,0.1590909090909091,194,1,9,_tunecore_Remastered_Guitar,6,3,_tunecore_Remastered_Guitar,0.9990094900131226,1
64,100,0.1,369,0,9,_tunecore_Remastered_Guitar,6,2,_tunecore_Remastered_Guitar,0.2332330197095871,0
59,100,0.11818181818181818,527,0,9,_tunecore_Remastered_Guitar,6,2,_tunecore_Remastered_Guitar,0.270581990480423,0
63,100,0.2590909090909091,677,0,9,_tunecore_Remastered_Guitar,6,4,_tunecore_Remastered_Guitar,0.3579326868057251,0
52,100,0.5818181818181818,245,1,10,_tunecore_Remastered_Guitar,6,9,_tunecore_Remastered_Guitar,0.9792243838310242,1
61,100,0.5,65,1,11,_tunecore_Remastered_Guitar,6,8,_tunecore_Remastered_Guitar,0.9990094900131226,1
61,100,0.42272727272727273,343,1,11,_tunecore_Remastered_Guitar,6,7,_tunecore_Remastered_Guitar,0.23323389887809753,0
61,100,0.36363636363636365,663,1,11,_tunecore_Remastered_Guitar,6,6,_tunecore_Remastered_Guitar,0.2705865800380707,0
57,100,0.2,849,0,11,_tunecore_Remastered_Guitar,6,3,_tunecore_Remastered_Guitar,0.3579292595386505,0
57,100,0.1409090909090909,48,1,12,_tunecore_Remastered_Guitar,6,2,_tunecore_Remastered_Guitar,0.9988439083099365,1
61,100,0.12272727272727273,135,0,12,_tunecore_Remastered_Guitar,6,2,_tunecore_Remastered_Guitar,0.1379835456609726,0
59,100,0.11818181818181818,307,0,12,_tunecore_Remastered_Guitar,6,2,_tunecore_Remastered_Guitar,0.16236567497253418,0
63,100,0.2,378,0,12,_tunecore_Remastered_Guitar,6,3,_tunecore_Remastered_Guitar,0.1910516917705536,0
52,100,0.6,730,1,12,_tunecore_Remastered_Guitar,6,10,_tunecore_Remastered_Guitar,0.26196739077568054,0
52,100,0.12272727272727273,48,1,13,_tunecore_Remastered_Guitar,6,2,_tunecore_Remastered_Guitar,0.9986506104469299,1
52,100,0.1409090909090909,285,1,13,_tunecore_Remastered_Guitar,6,2,_tunecore_Remastered_Guitar,0.08797965198755264,0
61,100,0.18181818181818182,615,1,13,_tunecore_Remastered_Guitar,6,3,_tunecore_Remastered_Guitar,0.09298476576805115,0
64,100,0.2818181818181818,716,0,13,_tunecore_Remastered_Guitar,6,5,_tunecore_Remastered_Guitar,0.10995033383369446,0
61,100,0.1,787,0,13,_tunecore_Remastered_Guitar,6,2,_tunecore_Remastered_Guitar,0.1286735087633133,0
61,100,0.12272727272727273,840,0,13,_tunecore_Remastered_Guitar,6,2,_tunecore_Remastered_Guitar,0.1822250783443451,0
61,100,0.3181818181818182,295,1,14,_tunecore_Remastered_Guitar,6,5,_tunecore_Remastered_Guitar,0.9988439083099365,1
61,100,0.3409090909090909,395,0,14,_tunecore_Remastered_Guitar,6,5,_tunecore_Remastered_Guitar,0.13798263669013977,0
64,100,0.1,470,0,14,_tunecore_Remastered_Guitar,6,2,_tunecore_Remastered_Guitar,0.16236579418182373,0
57,100,0.2590909090909091,519,0,14,_tunecore_Remastered_Guitar,6,4,_tunecore_Remastered_Guitar,0.1910579353570938,0
63,100,0.32272727272727275,840,1,14,_tunecore_Remastered_Guitar,6,5,_tunecore_Remastered_Guitar,0.26197218894958496,0
59,100,0.18181818181818182,276,1,15,_tunecore_Remastered_Guitar,6,3,_tunecore_Remastered_Guitar,0.9986506104469299,1
57,100,0.2,426,0,15,_tunecore_Remastered_Guitar,6,3,_tunecore_Remastered_Guitar,0.08797850459814072,0
61,100,0.4409090909090909,510,0,15,_tunecore_Remastered_Guitar,6,7,_tunecore_Remastered_Guitar,0.09298398345708847,0
61,100,0.2,656,0,15,_tunecore_Remastered_Guitar,6,3,_tunecore_Remastered_Guitar,0.10995147377252579,0
57,100,0.16363636363636364,773,0,15,_tunecore_Remastered_Guitar,6,3,_tunecore_Remastered_Guitar,0.1286749690771103,0
61,100,0.21818181818181817,823,0,15,_tunecore_Remastered_Guitar,6,3,_tunecore_Remastered_Guitar,0.18222779035568237,0
59,100,0.1409090909090909,3,1,16,_tunecore_Remastered_Guitar,6,2,_tunecore_Remastered_Guitar,0.9986506104469299,1
63,100,0.6772727272727272,61,0,16,_tunecore_Remastered_Guitar,6,11,_tunecore_Remastered_Guitar,0.08797778189182281,0
64,100,0.3181818181818182,505,1,16,_tunecore_Remastered_Guitar,6,5,_tunecore_Remastered_Guitar,0.0929863378405571,0
57,100,0.5818181818181818,584,0,16,_tunecore_Remastered_Guitar,6,9,_tunecore_Remastered_Guitar,0.10995224863290787,0
57,100,0.2,721,0,16,_tunecore_Remastered_Guitar,6,3,_tunecore_Remastered_Guitar,0.12867774069309235,0
61,100,0.35909090909090907,783,0,16,_tunecore_Remastered_Guitar,6,6,_tunecore_Remastered_Guitar,0.18222039937973022,0
57,100,0.6,0,1,17,_tunecore_Remastered_Guitar,6,10,_tunecore_Remastered_Guitar,0.9990094900131226,1
61,100,0.41818181818181815,405,1,17,_tunecore_Remastered_Guitar,6,7,_tunecore_Remastered_Guitar,0.2332327514886856,0
61,100,0.2,686,1,17,_tunecore_Remastered_Guitar,6,3,_tunecore_Remastered_Guitar,0.27058276534080505,0
52,100,0.6181818181818182,831,0,17,_tunecore_Remastered_Guitar,6,10,_tunecore_Remastered_Guitar,0.35793545842170715,0
52,100,0.32272727272727275,233,1,18,_tunecore_Remastered_Guitar,6,5,_tunecore_Remastered_Guitar,0.9990280866622925,1
52,100,0.21818181818181817,316,0,18,_tunecore_Remastered_Guitar,6,3,_tunecore_Remastered_Guitar,0.3703380823135376,0
52,100,0.1409090909090909,440,0,18,_tunecore_Remastered_Guitar,6,2,_tunecore_Remastered_Guitar,0.45617958903312683,0
59,100,0.22272727272727272,69,1,19,_tunecore_Remastered_Guitar,6,4,_tunecore_Remastered_Guitar,0.9988439083099365,1
57,100,0.21818181818181817,193,0,19,_tunecore_Remastered_Guitar,6,3,_tunecore_Remastered_Guitar,0.1379818171262741,0
57,100,0.35909090909090907,382,0,19,_tunecore_Remastered_Guitar,6,6,_tunecore_Remastered_Guitar,0.16236361861228943,0
57,100,0.6,470,0,19,_tunecore_Remastered_Guitar,6,10,_tunecore_Remastered_Guitar,0.1910528987646103,0
61,100,0.2590909090909091,677,0,19,_tunecore_Remastered_Guitar,6,4,_tunecore_Remastered_Guitar,0.2619646191596985,0
61,100,0.5,9,1,20,_tunecore_Remastered_Guitar,6,8,_tunecore_Remastered_Guitar,0.9988439083099365,1
61,100,0.13636363636363635,150,0,20,_tunecore_Remastered_Guitar,6,2,_tunecore_Remastered_Guitar,0.13798218965530396,0
52,100,0.6590909090909091,449,1,20,_tunecore_Remastered_Guitar,6,11,_tunecore_Remastered_Guitar,0.16236218810081482,0
52,100,0.1409090909090909,814,1,20,_tunecore_Remastered_Guitar,6,2,_tunecore_Remastered_Guitar,0.19105887413024902,0
52,100,0.42272727272727273,862,0,20,_tunecore_Remastered_Guitar,6,7,_tunecore_Remastered_Guitar,0.2619762420654297,0
59,100,0.1,113,1,21,_tunecore_Remastered_Guitar,6,2,_tunecore_Remastered_Guitar,0.9990094900131226,1
63,100,0.22272727272727272,584,1,21,_tunecore_Remastered_Guitar,6,4,_tunecore_Remastered_Guitar,0.2332383543252945,0
57,100,0.5818181818181818,681,0,21,_tunecore_Remastered_Guitar,6,9,_tunecore_Remastered_Guitar,0.2705904245376587,0
61,100,0.3181818181818182,831,0,21,_tunecore_Remastered_Guitar,6,5,_tunecore_Remastered_Guitar,0.3579384982585907,0
57,100,0.32272727272727275,69,1,22,_tunecore_Remastered_Guitar,6,5,_tunecore_Remastered_Guitar,0.9990280866622925,1
57,100,0.6818181818181818,144,0,22,_tunecore_Remastered_Guitar,6,11,_tunecore_Remastered_Guitar,0.37034332752227783,0
61,100,0.2409090909090909,509,1,22,_tunecore_Remastered_Guitar,6,4,_tunecore_Remastered_Guitar,0.45617032051086426,0
59,100,0.1409090909090909,110,1,23,_tunecore_Remastered_Guitar,6,2,_tunecore_Remastered_Guitar,0.9988439083099365,1
63,100,0.13636363636363635,237,0,23,_tunecore_Remastered_Guitar,6,2,_tunecore_Remastered_Guitar,0.137981578707695,0
59,100,0.2772727272727273,405,0,23,_tunecore_Remastered_Guitar,6,4,_tunecore_Remastered_Guitar,0.16237224638462067,0
63,100,0.5181818181818182,546,0,23,_tunecore_Remastered_Guitar,6,8,_tunecore_Remastered_Guitar,0.19105440378189087,0
59,100,0.11818181818181818,866,1,23,_tunecore_Remastered_Guitar,6,2,_tunecore_Remastered_Guitar,0.2619727551937103,0
61,100,0.21818181818181817,480,1,24,_tunecore_Remastered_Guitar,6,3,_tunecore_Remastered_Guitar,0.9990280866622925,1
57,100,0.22272727272727272,576,0,24,_tunecore_Remastered_Guitar,6,4,_tunecore_Remastered_Guitar,0.37033790349960327,0
64,100,0.2,862,1,24,_tunecore_Remastered_Guitar,6,3,_tunecore_Remastered_Guitar,0.45617562532424927,0
61,100,0.17727272727272728,52,1,25,_tunecore_Remastered_Guitar,6,3,_tunecore_Remastered_Guitar,0.9983735084533691,1
64,100,0.4409090909090909,100,0,25,_tunecore_Remastered_Guitar,6,7,_tunecore_Remastered_Guitar,0.051050685346126556,0
61,100,0.3,220,0,25,_tunecore_Remastered_Guitar,6,5,_tunecore_Remastered_Guitar,0.0416124127805233,0
61,100,0.4,289,0,25,_tunecore_Remastered_Guitar,6,6,_tunecore_Remastered_Guitar,0.0379796139895916,0
61,100,0.16363636363636364,488,0,25,_tunecore_Remastered_Guitar,6,3,_tunecore_Remastered_Guitar,0.039260134100914,0
52,100,0.17727272727272728,633,0,25,_tunecore_Remastered_Guitar,6,3,_tunecore_Remastered_Guitar,0.0461660698056221,0
52,100,0.1590909090909091,760,0,25,_tunecore_Remastered_Guitar,6,3,_tunecore_Remastered_Guitar,0.05713222175836563,0
59,100,0.17727272727272728,801,0,25,_tunecore_Remastered_Guitar,6,3,_tunecore_Remastered_Guitar,0.09187917411327362,0
52,100,0.1,34,1,26,_tunecore_Remastered_Guitar,6,2,_tunecore_Remastered_Guitar,0.9990096092224121,1
63,100,0.2818181818181818,285,1,26,_tunecore_Remastered_Guitar,6,5,_tunecore_Remastered_Guitar,0.23323477804660797,0
63,100,0.3409090909090909,694,1,26,_tunecore_Remastered_Guitar,6,5,_tunecore_Remastered_Guitar,0.2705982029438019,0
57,100,0.21818181818181817,858,0,26,_tunecore_Remastered_Guitar,6,3,_tunecore_Remastered_Guitar,0.35793307423591614,0
57,100,0.2,30,1,27,_tunecore_Remastered_Guitar,6,3,_tunecore_Remastered_Guitar,0.9983004927635193,1
57,100,0.1590909090909091,79,0,27,_tunecore_Remastered_Guitar,6,3,_tunecore_Remastered_Guitar,0.044662415981292725,0
57,100,0.1,127,0,27,_tunecore_Remastered_Guitar,6,2,_tunecore_Remastered_Guitar,0.033371906727552414,0
57,100,0.4590909090909091,198,0,27,_tunecore_Remastered_Guitar,6,7,_tunecore_Remastered_Guitar,0.026949424296617508,0
64,100,0.5181818181818182,461,1,27,_tunecore_Remastered_Guitar,6,8,_tunecore_Remastered_Guitar,0.024084260687232018,0
64,100,0.2,598,0,27,_tunecore_Remastered_Guitar,6,3,_tunecore_Remastered_Guitar,0.024973738938570023,0
64,100,0.11818181818181818,677,0,27,_tunecore_Remastered_Guitar,6,2,_tunecore_Remastered_Guitar,0.030648745596408844,0
61,100,0.38181818181818183,704,0,27,_tunecore_Remastered_Guitar,6,6,_tunecore_Remastered_Guitar,0.04137036204338074,0
61,100,0.38181818181818183,791,0,27,_tunecore_Remastered_Guitar,6,6,_tunecore_Remastered_Guitar,0.07207166403532028,0
52,100,0.2,154,1,28,_tunecore_Remastered_Guitar,6,3,_tunecore_Remastered_Guitar,0.9984879493713379,1
52,100,0.3,206,0,28,_tunecore_Remastered_Guitar,6,5,_tunecore_Remastered_Guitar,0.06335406005382538,0
52,100,0.11818181818181818,281,0,28,_tunecore_Remastered_Guitar,6,2,_tunecore_Remastered_Guitar,0.05828941613435745,0
52,100,0.5409090909090909,430,0,28,_tunecore_Remastered_Guitar,6,9,_tunecore_Remastered_Guitar,0.06136287748813629,0
59,100,0.12272727272727273,553,0,28,_tunecore_Remastered_Guitar,6,2,_tunecore_Remastered_Guitar,0.07168605178594589,0
59,100,0.11818181818181818,646,0,28,_tunecore_Remastered_Guitar,6,2,_tunecore_Remastered_Guitar,0.08473742753267288,0
59,100,0.11818181818181818,835,0,28,_tunecore_Remastered_Guitar,6,2,_tunecore_Remastered_Guitar,0.12635521590709686,0
59,100,0.1,210,1,29,_tunecore_Remastered_Guitar,6,2,_tunecore_Remastered_Guitar,0.9990094900131226,1
52,100,0.7227272727272728,364,0,29,_tunecore_Remastered_Guitar,6,12,_tunecore_Remastered_Guitar,0.23322296142578125,0
52,100,0.5818181818181818,576,0,29,_tunecore_Remastered_Guitar,6,9,_tunecore_Remastered_Guitar,0.2705821692943573,0
52,100,0.2636363636363636,818,1,29,_tunecore_Remastered_Guitar,6,4,_tunecore_Remastered_Guitar,0.35793033242225647,0
64,100,0.23636363636363636,281,1,30,_tunecore_Remastered_Guitar,6,4,_tunecore_Remastered_Guitar,0.9990280866622925,1
61,100,0.37727272727272726,515,1,30,_tunecore_Remastered_Guitar,6,6,_tunecore_Remastered_Guitar,0.37033677101135254,0
61,100,0.1,822,1,30,_tunecore_Remastered_Guitar,6,2,_tunecore_Remastered_Guitar,0.4561641216278076,0
71,100,0.11818181818181818,30,1,31,_tunecore_Remastered_Guitar,6,2,_tunecore_Remastered_Guitar,0.9983735084533691,1
52,100,0.22272727272727272,179,0,31,_tunecore_Remastered_Guitar,6,4,_tunecore_Remastered_Guitar,0.05104970932006836,0
52,100,0.1590909090909091,260,0,31,_tunecore_Remastered_Guitar,6,3,_tunecore_Remastered_Guitar,0.04161231964826584,0
59,100,0.12272727272727273,453,0,31,_tunecore_Remastered_Guitar,6,2,_tunecore_Remastered_Guitar,0.037980817258358,0
63,100,0.2590909090909091,646,0,31,_tunecore_Remastered_Guitar,6,4,_tunecore_Remastered_Guitar,0.03926006332039833,0
54,100,0.12272727272727273,739,0,31,_tunecore_Remastered_Guitar,6,2,_tunecore_Remastered_Guitar,0.04616880044341087,0
59,100,0.16363636363636364,818,0,31,_tunecore_Remastered_Guitar,6,3,_tunecore_Remastered_Guitar,0.05713355541229248,0
52,100,0.8409090909090909,862,0,31,_tunecore_Remastered_Guitar,6,13,_tunecore_Remastered_Guitar,0.09188428521156311,0
68,100,0.13636363636363635,281,1,32,_tunecore_Remastered_Guitar,6,2,_tunecore_Remastered_Guitar,0.9990094900131226,1
59,100,0.16363636363636364,421,0,32,_tunecore_Remastered_Guitar,6,3,_tunecore_Remastered_Guitar,0.23322689533233643,0
59,100,0.11818181818181818,506,0,32,_tunecore_Remastered_Guitar,6,2,_tunecore_Remastered_Guitar,0.2705736756324768,0
64,100,0.2,778,1,32,_tunecore_Remastered_Guitar,6,3,_tunecore_Remastered_Guitar,0.3579222559928894,0
61,100,0.4772727272727273,105,1,33,_tunecore_Remastered_Guitar,6,8,_tunecore_Remastered_Guitar,0.9986506104469299,1
64,100,0.1590909090909091,211,0,33,_tunecore_Remastered_Guitar,6,3,_tunecore_Remastered_Guitar,0.08798089623451233,0
64,100,0.3409090909090909,268,0,33,_tunecore_Remastered_Guitar,6,5,_tunecore_Remastered_Guitar,0.09298910945653915,0
61,100,0.1409090909090909,351,0,33,_tunecore_Remastered_Guitar,6,2,_tunecore_Remastered_Guitar,0.1099540963768959,0
68,100,0.17727272727272728,448,0,33,_tunecore_Remastered_Guitar,6,3,_tunecore_Remastered_Guitar,0.1286815106868744,0
68,100,0.5,509,0,33,_tunecore_Remastered_Guitar,6,8,_tunecore_Remastered_Guitar,0.1822269856929779,0
52,100,0.6590909090909091,461,1,34,_tunecore_Remastered_Guitar,6,11,_tunecore_Remastered_Guitar,0.9792242646217346,1
61,100,0.12272727272727273,364,1,35,_tunecore_Remastered_Guitar,6,2,_tunecore_Remastered_Guitar,0.9988439083099365,1
64,100,0.16363636363636364,399,0,35,_tunecore_Remastered_Guitar,6,3,_tunecore_Remastered_Guitar,0.1379825472831726,0
64,100,0.1409090909090909,474,0,35,_tunecore_Remastered_Guitar,6,2,_tunecore_Remastered_Guitar,0.1623626947402954,0
61,100,0.2,641,0,35,_tunecore_Remastered_Guitar,6,3,_tunecore_Remastered_Guitar,0.19105373322963715,0
52,100,0.2590909090909091,866,0,35,_tunecore_Remastered_Guitar,6,4,_tunecore_Remastered_Guitar,0.2619751989841461,0
52,100,0.5227272727272727,268,1,36,_tunecore_Remastered_Guitar,6,8,_tunecore_Remastered_Guitar,0.9990280866622925,1
59,100,0.1590909090909091,545,1,36,_tunecore_Remastered_Guitar,6,3,_tunecore_Remastered_Guitar,0.37033534049987793,0
59,100,0.32272727272727275,606,0,36,_tunecore_Remastered_Guitar,6,5,_tunecore_Remastered_Guitar,0.4561689794063568,0
52,100,0.6181818181818182,75,1,37,_tunecore_Remastered_Guitar,6,10,_tunecore_Remastered_Guitar,0.9990280866622925,1
61,100,0.1409090909090909,708,1,37,_tunecore_Remastered_Guitar,6,2,_tunecore_Remastered_Guitar,0.3703371584415436,0
61,100,0.2590909090909091,791,0,37,_tunecore_Remastered_Guitar,6,4,_tunecore_Remastered_Guitar,0.4561648964881897,0
64,100,0.1409090909090909,0,1,38,_tunecore_Remastered_Guitar,6,2,_tunecore_Remastered_Guitar,0.9983004927635193,1
61,100,0.18181818181818182,56,0,38,_tunecore_Remastered_Guitar,6,3,_tunecore_Remastered_Guitar,0.04466189444065094,0
64,100,0.12272727272727273,123,0,38,_tunecore_Remastered_Guitar,6,2,_tunecore_Remastered_Guitar,0.03337191790342331,0
61,100,0.3,215,0,38,_tunecore_Remastered_Guitar,6,5,_tunecore_Remastered_Guitar,0.02694820426404476,0
64,100,0.17727272727272728,281,0,38,_tunecore_Remastered_Guitar,6,3,_tunecore_Remastered_Guitar,0.02408510632812977,0
57,100,0.3,330,0,38,_tunecore_Remastered_Guitar,6,5,_tunecore_Remastered_Guitar,0.024973822757601738,0
57,100,0.1,471,0,38,_tunecore_Remastered_Guitar,6,2,_tunecore_Remastered_Guitar,0.03064952790737152,0
61,100,0.23636363636363636,765,1,38,_tunecore_Remastered_Guitar,6,4,_tunecore_Remastered_Guitar,0.04137082025408745,0
52,100,0.17727272727272728,831,0,38,_tunecore_Remastered_Guitar,6,3,_tunecore_Remastered_Guitar,0.07207287102937698,0
59,100,0.5818181818181818,136,1,39,_tunecore_Remastered_Guitar,6,9,_tunecore_Remastered_Guitar,0.9984879493713379,1
59,100,0.13636363636363635,281,0,39,_tunecore_Remastered_Guitar,6,2,_tunecore_Remastered_Guitar,0.06335467100143433,0
63,100,0.1590909090909091,321,0,39,_tunecore_Remastered_Guitar,6,3,_tunecore_Remastered_Guitar,0.058290090411901474,0
57,100,0.17727272727272728,700,1,39,_tunecore_Remastered_Guitar,6,3,_tunecore_Remastered_Guitar,0.06136487424373627,0
57,100,0.12272727272727273,751,0,39,_tunecore_Remastered_Guitar,6,2,_tunecore_Remastered_Guitar,0.07168672233819962,0
52,100,0.2409090909090909,778,0,39,_tunecore_Remastered_Guitar,6,4,_tunecore_Remastered_Guitar,0.08474186062812805,0
64,100,0.6818181818181818,839,0,39,_tunecore_Remastered_Guitar,6,11,_tunecore_Remastered_Guitar,0.126356840133667,0
52,100,0.11818181818181818,150,1,40,_tunecore_Remastered_Guitar,6,2,_tunecore_Remastered_Guitar,0.9984879493713379,1
64,100,0.9,188,0,40,_tunecore_Remastered_Guitar,6,14,_tunecore_Remastered_Guitar,0.06335233896970749,0
61,100,0.11818181818181818,391,0,40,_tunecore_Remastered_Guitar,6,2,_tunecore_Remastered_Guitar,0.05828894302248955,0
61,100,0.3,431,0,40,_tunecore_Remastered_Guitar,6,5,_tunecore_Remastered_Guitar,0.06136161461472511,0
61,100,0.5227272727272727,541,0,40,_tunecore_Remastered_Guitar,6,8,_tunecore_Remastered_Guitar,0.07168243825435638,0
61,100,0.5772727272727273,668,0,40,_tunecore_Remastered_Guitar,6,9,_tunecore_Remastered_Guitar,0.08473449945449829,0
52,100,0.7,801,0,40,_tunecore_Remastered_Guitar,6,11,_tunecore_Remastered_Guitar,0.12635491788387299,0
64,100,0.6227272727272727,201,1,41,_tunecore_Remastered_Guitar,6,10,_tunecore_Remastered_Guitar,0.9990094900131226,1
64,100,0.13636363636363635,458,1,41,_tunecore_Remastered_Guitar,6,2,_tunecore_Remastered_Guitar,0.2332337647676468,0
63,100,1.040909090909091,628,0,41,_tunecore_Remastered_Guitar,6,15,_tunecore_Remastered_Guitar,0.27057626843452454,0
64,100,0.1590909090909091,858,0,41,_tunecore_Remastered_Guitar,6,3,_tunecore_Remastered_Guitar,0.3579358756542206,0
59,100,0.2409090909090909,26,1,42,_tunecore_Remastered_Guitar,6,4,_tunecore_Remastered_Guitar,0.9990094900131226,1
59,100,0.4818181818181818,91,0,42,_tunecore_Remastered_Guitar,6,8,_tunecore_Remastered_Guitar,0.23322482407093048,0
61,100,0.2,370,1,42,_tunecore_Remastered_Guitar,6,3,_tunecore_Remastered_Guitar,0.2705792486667633,0
64,100,0.32272727272727275,796,1,42,_tunecore_Remastered_Guitar,6,5,_tunecore_Remastered_Guitar,0.35792845487594604,0
66,100,0.37727272727272726,413,1,43,_tunecore_Remastered_Guitar,6,6,_tunecore_Remastered_Guitar,0.9990094900131226,1
68,100,0.4590909090909091,584,0,43,_tunecore_Remastered_Guitar,6,7,_tunecore_Remastered_Guitar,0.2332264631986618,0
59,100,0.1,801,0,43,_tunecore_Remastered_Guitar,6,2,_tunecore_Remastered_Guitar,0.270579993724823,0
52,100,0.6181818181818182,836,0,43,_tunecore_Remastered_Guitar,6,10,_tunecore_Remastered_Guitar,0.35792815685272217,0
59,100,0.3,171,1,44,_tunecore_Remastered_Guitar,6,5,_tunecore_Remastered_Guitar,0.9988439083099365,1
61,100,0.5590909090909091,241,0,44,_tunecore_Remastered_Guitar,6,9,_tunecore_Remastered_Guitar,0.13798263669013977,0
64,100,0.4818181818181818,373,0,44,_tunecore_Remastered_Guitar,6,8,_tunecore_Remastered_Guitar,0.1623678058385849,0
66,100,0.4818181818181818,509,0,44,_tunecore_Remastered_Guitar,6,8,_tunecore_Remastered_Guitar,0.19105969369411469,0
66,100,0.9636363636363636,664,0,44,_tunecore_Remastered_Guitar,6,15,_tunecore_Remastered_Guitar,0.2619697153568268,0
64,100,0.4772727272727273,185,1,45,_tunecore_Remastered_Guitar,6,8,_tunecore_Remastered_Guitar,0.9983735084533691,1
61,100,0.17727272727272728,295,0,45,_tunecore_Remastered_Guitar,6,3,_tunecore_Remastered_Guitar,0.051049184054136276,0
59,100,0.16363636363636364,334,0,45,_tunecore_Remastered_Guitar,6,3,_tunecore_Remastered_Guitar,0.041612207889556885,0
59,100,0.1409090909090909,373,0,45,_tunecore_Remastered_Guitar,6,2,_tunecore_Remastered_Guitar,0.03797989711165428,0
59,100,1.2818181818181817,418,0,45,_tunecore_Remastered_Guitar,6,15,_tunecore_Remastered_Guitar,0.03925848379731178,0
64,100,0.2590909090909091,700,1,45,_tunecore_Remastered_Guitar,6,4,_tunecore_Remastered_Guitar,0.046165596693754196,0
61,100,0.23636363636363636,765,0,45,_tunecore_Remastered_Guitar,6,4,_tunecore_Remastered_Guitar,0.05713026598095894,0
64,100,0.2590909090909091,836,0,45,_tunecore_Remastered_Guitar,6,4,_tunecore_Remastered_Guitar,0.09188183397054672,0
59,100,0.3181818181818182,370,1,46,_tunecore_Remastered_Guitar,6,5,_tunecore_Remastered_Guitar,0.9990094900131226,1
61,100,0.3,440,0,46,_tunecore_Remastered_Guitar,6,5,_tunecore_Remastered_Guitar,0.23323586583137512,0
64,100,0.21818181818181817,528,0,46,_tunecore_Remastered_Guitar,6,3,_tunecore_Remastered_Guitar,0.270592600107193,0
61,100,0.42272727272727273,716,0,46,_tunecore_Remastered_Guitar,6,7,_tunecore_Remastered_Guitar,0.35793209075927734,0
68,100,0.18181818181818182,4,1,47,_tunecore_Remastered_Guitar,6,3,_tunecore_Remastered_Guitar,0.9986506104469299,1
66,100,0.2590909090909091,56,0,47,_tunecore_Remastered_Guitar,6,4,_tunecore_Remastered_Guitar,0.0879824087023735,0
64,100,0.7772727272727272,141,0,47,_tunecore_Remastered_Guitar,6,12,_tunecore_Remastered_Guitar,0.09298752248287201,0
66,100,1.6,316,0,47,_tunecore_Remastered_Guitar,6,15,_tunecore_Remastered_Guitar,0.10995010286569595,0
64,100,0.6409090909090909,673,1,47,_tunecore_Remastered_Guitar,6,10,_tunecore_Remastered_Guitar,0.12867793440818787,0
63,100,0.22272727272727272,839,0,47,_tunecore_Remastered_Guitar,6,4,_tunecore_Remastered_Guitar,0.18221831321716309,0
64,100,1.9,75,1,48,_tunecore_Remastered_Guitar,6,15,_tunecore_Remastered_Guitar,0.9983231425285339,1
52,100,0.740909090909091,493,1,48,_tunecore_Remastered_Guitar,6,12,_tunecore_Remastered_Guitar,0.5462214350700378,1
52,100,0.21818181818181817,96,1,49,_tunecore_Remastered_Guitar,6,3,_tunecore_Remastered_Guitar,0.9990094900131226,1
61,100,0.1590909090909091,351,1,49,_tunecore_Remastered_Guitar,6,3,_tunecore_Remastered_Guitar,0.23322804272174835,0
61,100,0.11818181818181818,506,0,49,_tunecore_Remastered_Guitar,6,2,_tunecore_Remastered_Guitar,0.2705811560153961,0
61,100,0.5227272727272727,598,0,49,_tunecore_Remastered_Guitar,6,8,_tunecore_Remastered_Guitar,0.3579280376434326,0
64,100,0.2,185,1,50,_tunecore_Remastered_Guitar,6,3,_tunecore_Remastered_Guitar,0.9990094900131226,1
52,100,0.13636363636363635,348,0,50,_tunecore_Remastered_Guitar,6,2,_tunecore_Remastered_Guitar,0.233229860663414,0
59,100,0.1,421,0,50,_tunecore_Remastered_Guitar,6,2,_tunecore_Remastered_Guitar,0.27058348059654236,0
59,100,0.11818181818181818,558,0,50,_tunecore_Remastered_Guitar,6,2,_tunecore_Remastered_Guitar,0.3579300343990326,0
52,100,0.740909090909091,110,1,51,_tunecore_Remastered_Guitar,6,12,_tunecore_Remastered_Guitar,0.9983231425285339,1
52,100,0.2772727272727273,458,1,51,_tunecore_Remastered_Guitar,6,4,_tunecore_Remastered_Guitar,0.5462169647216797,1
61,100,0.41818181818181815,198,1,52,_tunecore_Remastered_Guitar,6,7,_tunecore_Remastered_Guitar,0.9988439083099365,1
57,100,0.33636363636363636,370,0,52,_tunecore_Remastered_Guitar,6,5,_tunecore_Remastered_Guitar,0.13798461854457855,0
52,100,0.1590909090909091,448,0,52,_tunecore_Remastered_Guitar,6,3,_tunecore_Remastered_Guitar,0.16237056255340576,0
52,100,0.21818181818181817,581,0,52,_tunecore_Remastered_Guitar,6,3,_tunecore_Remastered_Guitar,0.19106484949588776,0
59,100,0.2,651,0,52,_tunecore_Remastered_Guitar,6,3,_tunecore_Remastered_Guitar,0.261977881193161,0
59,100,0.1409090909090909,176,1,53,_tunecore_Remastered_Guitar,6,2,_tunecore_Remastered_Guitar,0.9990094900131226,1
59,100,0.35909090909090907,238,0,53,_tunecore_Remastered_Guitar,6,6,_tunecore_Remastered_Guitar,0.233226478099823,0
59,100,0.16363636363636364,554,1,53,_tunecore_Remastered_Guitar,6,3,_tunecore_Remastered_Guitar,0.27058008313179016,0
52,100,0.3,818,1,53,_tunecore_Remastered_Guitar,6,5,_tunecore_Remastered_Guitar,0.3579341173171997,0
52,100,0.2,88,1,54,_tunecore_Remastered_Guitar,6,3,_tunecore_Remastered_Guitar,0.9988439083099365,1
61,100,0.17727272727272728,141,0,54,_tunecore_Remastered_Guitar,6,3,_tunecore_Remastered_Guitar,0.1379791647195816,0
52,100,0.22272727272727272,201,0,54,_tunecore_Remastered_Guitar,6,4,_tunecore_Remastered_Guitar,0.16236896812915802,0
54,100,0.4,276,0,54,_tunecore_Remastered_Guitar,6,6,_tunecore_Remastered_Guitar,0.19105938076972961,0
54,100,0.2409090909090909,761,1,54,_tunecore_Remastered_Guitar,6,4,_tunecore_Remastered_Guitar,0.26196858286857605,0
52,100,0.12272727272727273,56,1,55,_tunecore_Remastered_Guitar,6,2,_tunecore_Remastered_Guitar,0.9983231425285339,1
57,100,0.1409090909090909,628,1,55,_tunecore_Remastered_Guitar,6,2,_tunecore_Remastered_Guitar,0.5462149381637573,1
54,100,0.2,158,1,56,_tunecore_Remastered_Guitar,6,3,_tunecore_Remastered_Guitar,0.9792248606681824,1
57,100,0.3,593,1,57,_tunecore_Remastered_Guitar,6,5,_tunecore_Remastered_Guitar,0.9983231425285339,1
54,100,0.23636363636363636,875,1,57,_tunecore_Remastered_Guitar,6,4,_tunecore_Remastered_Guitar,0.5462201833724976,1
61,100,0.4590909090909091,823,1,58,_tunecore_Remastered_Guitar,6,7,_tunecore_Remastered_Guitar,0.9792237281799316,1
68,100,0.1409090909090909,118,1,59,_tunecore_Remastered_Guitar,6,2,_tunecore_Remastered_Guitar,0.9983735084533691,1
66,100,0.21818181818181817,171,0,59,_tunecore_Remastered_Guitar,6,3,_tunecore_Remastered_Guitar,0.05105169117450714,0
64,100,0.23636363636363636,238,0,59,_tunecore_Remastered_Guitar,6,4,_tunecore_Remastered_Guitar,0.041612908244132996,0
66,100,0.3,303,0,59,_tunecore_Remastered_Guitar,6,5,_tunecore_Remastered_Guitar,0.03797987848520279,0
64,100,0.32272727272727275,444,0,59,_tunecore_Remastered_Guitar,6,5,_tunecore_Remastered_Guitar,0.039261285215616226,0
59,100,0.1409090909090909,681,1,59,_tunecore_Remastered_Guitar,6,2,_tunecore_Remastered_Guitar,0.04616705700755119,0
63,100,0.12272727272727273,804,0,59,_tunecore_Remastered_Guitar,6,2,_tunecore_Remastered_Guitar,0.05713370814919472,0
63,100,0.1,861,0,59,_tunecore_Remastered_Guitar,6,2,_tunecore_Remastered_Guitar,0.09188632667064667,0
57,100,0.1409090909090909,48,1,60,_tunecore_Remastered_Guitar,6,2,_tunecore_Remastered_Guitar,0.9990280866622925,1
56,100,0.12272727272727273,606,1,60,_tunecore_Remastered_Guitar,6,2,_tunecore_Remastered_Guitar,0.37035298347473145,0
63,100,0.11818181818181818,831,0,60,_tunecore_Remastered_Guitar,6,2,_tunecore_Remastered_Guitar,0.45617592334747314,0
57,100,0.12272727272727273,224,1,61,_tunecore_Remastered_Guitar,6,2,_tunecore_Remastered_Guitar,0.9988439083099365,1
66,100,0.13636363636363635,413,0,61,_tunecore_Remastered_Guitar,6,2,_tunecore_Remastered_Guitar,0.13798685371875763,0
66,100,0.2,756,1,61,_tunecore_Remastered_Guitar,6,3,_tunecore_Remastered_Guitar,0.16237130761146545,0
66,100,0.1,826,0,61,_tunecore_Remastered_Guitar,6,2,_tunecore_Remastered_Guitar,0.1910620778799057,0
63,100,0.1409090909090909,858,0,61,_tunecore_Remastered_Guitar,6,2,_tunecore_Remastered_Guitar,0.2619677484035492,0
63,100,0.9590909090909091,13,1,62,_tunecore_Remastered_Guitar,6,15,_tunecore_Remastered_Guitar,0.9990280866622925,1
63,100,0.1,386,1,62,_tunecore_Remastered_Guitar,6,2,_tunecore_Remastered_Guitar,0.37034815549850464,0
63,100,0.3,448,0,62,_tunecore_Remastered_Guitar,6,5,_tunecore_Remastered_Guitar,0.45618101954460144,0
61,100,0.12272727272727273,13,1,63,_tunecore_Remastered_Guitar,6,2,_tunecore_Remastered_Guitar,0.9988439083099365,1
54,100,0.9,325,1,63,_tunecore_Remastered_Guitar,6,14,_tunecore_Remastered_Guitar,0.13798148930072784,0
54,100,0.32272727272727275,554,0,63,_tunecore_Remastered_Guitar,6,5,_tunecore_Remastered_Guitar,0.16236667335033417,0
56,100,0.22272727272727272,641,0,63,_tunecore_Remastered_Guitar,6,4,_tunecore_Remastered_Guitar,0.19105373322963715,0
54,100,0.18181818181818182,726,0,63,_tunecore_Remastered_Guitar,6,3,_tunecore_Remastered_Guitar,0.26196593046188354,0
59,100,0.1590909090909091,832,1,64,_tunecore_Remastered_Guitar,6,3,_tunecore_Remastered_Guitar,0.9792240262031555,1
64,100,0.35909090909090907,475,1,65,_tunecore_Remastered_Guitar,6,6,_tunecore_Remastered_Guitar,0.9983232617378235,1
52,100,0.38181818181818183,572,0,65,_tunecore_Remastered_Guitar,6,6,_tunecore_Remastered_Guitar,0.546215832233429,1
59,100,0.5772727272727273,119,1,66,_tunecore_Remastered_Guitar,6,9,_tunecore_Remastered_Guitar,0.9990094900131226,1
54,100,0.2772727272727273,260,0,66,_tunecore_Remastered_Guitar,6,4,_tunecore_Remastered_Guitar,0.2332245111465454,0
61,100,0.18181818181818182,532,1,66,_tunecore_Remastered_Guitar,6,3,_tunecore_Remastered_Guitar,0.27057141065597534,0
52,100,0.21818181818181817,836,1,66,_tunecore_Remastered_Guitar,6,3,_tunecore_Remastered_Guitar,0.35792431235313416,0
61,100,0.2409090909090909,220,1,67,_tunecore_Remastered_Guitar,6,4,_tunecore_Remastered_Guitar,0.9983231425285339,1
68,100,0.1,593,1,67,_tunecore_Remastered_Guitar,6,2,_tunecore_Remastered_Guitar,0.5462133288383484,1
56,100,0.1409090909090909,43,1,68,_tunecore_Remastered_Guitar,6,2,_tunecore_Remastered_Guitar,0.9990280866622925,1
61,100,0.4409090909090909,316,1,68,_tunecore_Remastered_Guitar,6,7,_tunecore_Remastered_Guitar,0.3703327476978302,0
59,100,0.18181818181818182,796,1,68,_tunecore_Remastered_Guitar,6,3,_tunecore_Remastered_Guitar,0.4561695158481598,0
52,100,0.21818181818181817,74,1,69,_tunecore_Remastered_Guitar,6,3,_tunecore_Remastered_Guitar,0.9990280866622925,1
52,100,0.3,197,0,69,_tunecore_Remastered_Guitar,6,5,_tunecore_Remastered_Guitar,0.37033557891845703,0
52,100,0.4,426,0,69,_tunecore_Remastered_Guitar,6,6,_tunecore_Remastered_Guitar,0.4561745226383209,0
56,100,0.3409090909090909,13,1,70,_tunecore_Remastered_Guitar,6,5,_tunecore_Remastered_Guitar,0.9984879493713379,1
52,100,0.12272727272727273,267,1,70,_tunecore_Remastered_Guitar,6,2,_tunecore_Remastered_Guitar,0.06335420161485672,0
52,100,0.18181818181818182,333,0,70,_tunecore_Remastered_Guitar,6,3,_tunecore_Remastered_Guitar,0.058289382606744766,0
52,100,0.3409090909090909,443,0,70,_tunecore_Remastered_Guitar,6,5,_tunecore_Remastered_Guitar,0.06136387586593628,0
52,100,0.17727272727272728,559,0,70,_tunecore_Remastered_Guitar,6,3,_tunecore_Remastered_Guitar,0.0716821476817131,0
52,100,0.1409090909090909,713,0,70,_tunecore_Remastered_Guitar,6,2,_tunecore_Remastered_Guitar,0.08473943918943405,0
52,100,0.18181818181818182,760,0,70,_tunecore_Remastered_Guitar,6,3,_tunecore_Remastered_Guitar,0.1263544261455536,0
63,100,0.1409090909090909,396,1,71,_tunecore_Remastered_Guitar,6,2,_tunecore_Remastered_Guitar,0.9990280866622925,1
57,100,0.12272727272727273,576,0,71,_tunecore_Remastered_Guitar,6,2,_tunecore_Remastered_Guitar,0.3703421354293823,0
52,100,0.21818181818181817,703,0,71,_tunecore_Remastered_Guitar,6,3,_tunecore_Remastered_Guitar,0.45617255568504333,0
52,100,0.4409090909090909,53,1,72,_tunecore_Remastered_Guitar,6,7,_tunecore_Remastered_Guitar,0.9983232617378235,1
57,100,0.21818181818181817,747,1,72,_tunecore_Remastered_Guitar,6,3,_tunecore_Remastered_Guitar,0.5462169647216797,1
59,100,0.12272727272727273,686,1,73,_tunecore_Remastered_Guitar,6,2,_tunecore_Remastered_Guitar,0.9983232617378235,1
59,100,0.4,743,0,73,_tunecore_Remastered_Guitar,6,6,_tunecore_Remastered_Guitar,0.5462204813957214,1
57,100,0.1,179,1,74,_tunecore_Remastered_Guitar,6,2,_tunecore_Remastered_Guitar,0.9990280866622925,1
59,100,0.2409090909090909,383,0,74,_tunecore_Remastered_Guitar,6,4,_tunecore_Remastered_Guitar,0.37034332752227783,0
57,100,0.37727272727272726,523,0,74,_tunecore_Remastered_Guitar,6,6,_tunecore_Remastered_Guitar,0.4561709463596344,0
57,100,0.11818181818181818,127,1,75,_tunecore_Remastered_Guitar,6,2,_tunecore_Remastered_Guitar,0.9990094900131226,1
59,100,0.12272727272727273,532,1,75,_tunecore_Remastered_Guitar,6,2,_tunecore_Remastered_Guitar,0.2332313060760498,0
54,100,0.4,606,0,75,_tunecore_Remastered_Guitar,6,6,_tunecore_Remastered_Guitar,0.2705797255039215,0
52,100,0.3,810,0,75,_tunecore_Remastered_Guitar,6,5,_tunecore_Remastered_Guitar,0.357928603887558,0
59,100,0.4,53,1,76,_tunecore_Remastered_Guitar,6,6,_tunecore_Remastered_Guitar,0.9988439083099365,1
59,100,0.7363636363636363,172,0,76,_tunecore_Remastered_Guitar,6,12,_tunecore_Remastered_Guitar,0.13798044621944427,0
59,100,0.2409090909090909,360,0,76,_tunecore_Remastered_Guitar,6,4,_tunecore_Remastered_Guitar,0.16235916316509247,0
59,100,0.41818181818181815,426,0,76,_tunecore_Remastered_Guitar,6,7,_tunecore_Remastered_Guitar,0.19105474650859833,0
52,100,0.18181818181818182,682,1,76,_tunecore_Remastered_Guitar,6,3,_tunecore_Remastered_Guitar,0.26196569204330444,0
52,100,0.2409090909090909,53,1,77,_tunecore_Remastered_Guitar,6,4,_tunecore_Remastered_Guitar,0.9982556700706482,1
52,100,0.17727272727272728,119,0,77,_tunecore_Remastered_Guitar,6,3,_tunecore_Remastered_Guitar,0.04129274934530258,0
52,100,0.37727272727272726,163,0,77,_tunecore_Remastered_Guitar,6,6,_tunecore_Remastered_Guitar,0.029125062748789787,0
64,100,0.1409090909090909,299,0,77,_tunecore_Remastered_Guitar,6,2,_tunecore_Remastered_Guitar,0.021569738164544106,0
64,100,0.3181818181818182,370,0,77,_tunecore_Remastered_Guitar,6,5,_tunecore_Remastered_Guitar,0.017059767618775368,0
61,100,0.1590909090909091,462,0,77,_tunecore_Remastered_Guitar,6,3,_tunecore_Remastered_Guitar,0.015268497169017792,0
64,100,0.11818181818181818,502,0,77,_tunecore_Remastered_Guitar,6,2,_tunecore_Remastered_Guitar,0.016456501558423042,0
61,100,0.35909090909090907,673,0,77,_tunecore_Remastered_Guitar,6,6,_tunecore_Remastered_Guitar,0.021837452426552773,0
52,100,0.1409090909090909,770,0,77,_tunecore_Remastered_Guitar,6,2,_tunecore_Remastered_Guitar,0.03251926600933075,0
52,100,0.12272727272727273,849,0,77,_tunecore_Remastered_Guitar,6,2,_tunecore_Remastered_Guitar,0.060913149267435074,0
52,100,0.38181818181818183,145,1,78,_tunecore_Remastered_Guitar,6,6,_tunecore_Remastered_Guitar,0.9983231425285339,1
54,100,0.5818181818181818,783,1,78,_tunecore_Remastered_Guitar,6,9,_tunecore_Remastered_Guitar,0.5462143421173096,1
52,100,0.2590909090909091,282,1,79,_tunecore_Remastered_Guitar,6,4,_tunecore_Remastered_Guitar,0.9990280866622925,1
52,100,0.2636363636363636,377,0,79,_tunecore_Remastered_Guitar,6,4,_tunecore_Remastered_Guitar,0.37034139037132263,0
52,100,0.2,700,1,79,_tunecore_Remastered_Guitar,6,3,_tunecore_Remastered_Guitar,0.45617353916168213,0
52,100,0.2636363636363636,289,1,80,_tunecore_Remastered_Guitar,6,4,_tunecore_Remastered_Guitar,0.9988439083099365,1
52,100,0.17727272727272728,567,1,80,_tunecore_Remastered_Guitar,6,3,_tunecore_Remastered_Guitar,0.13798220455646515,0
52,100,0.22272727272727272,650,0,80,_tunecore_Remastered_Guitar,6,4,_tunecore_Remastered_Guitar,0.16236406564712524,0
52,100,0.1,716,0,80,_tunecore_Remastered_Guitar,6,2,_tunecore_Remastered_Guitar,0.19105802476406097,0
52,100,0.17727272727272728,832,0,80,_tunecore_Remastered_Guitar,6,3,_tunecore_Remastered_Guitar,0.26197823882102966,0
54,100,0.18181818181818182,386,1,81,_tunecore_Remastered_Guitar,6,3,_tunecore_Remastered_Guitar,0.9990094900131226,1
59,100,0.18181818181818182,430,0,81,_tunecore_Remastered_Guitar,6,3,_tunecore_Remastered_Guitar,0.23322829604148865,0
52,100,0.1590909090909091,673,1,81,_tunecore_Remastered_Guitar,6,3,_tunecore_Remastered_Guitar,0.27058109641075134,0
52,100,0.3,739,0,81,_tunecore_Remastered_Guitar,6,5,_tunecore_Remastered_Guitar,0.3579369783401489,0
52,100,0.22272727272727272,3,1,82,_tunecore_Remastered_Guitar,6,4,_tunecore_Remastered_Guitar,0.9990280866622925,1
52,100,0.33636363636363636,127,0,82,_tunecore_Remastered_Guitar,6,5,_tunecore_Remastered_Guitar,0.3703470528125763,0
56,100,0.2590909090909091,229,0,82,_tunecore_Remastered_Guitar,6,4,_tunecore_Remastered_Guitar,0.45616668462753296,0
52,100,0.21818181818181817,307,1,83,_tunecore_Remastered_Guitar,6,3,_tunecore_Remastered_Guitar,0.9990094900131226,1
52,100,0.4,392,0,83,_tunecore_Remastered_Guitar,6,6,_tunecore_Remastered_Guitar,0.23322689533233643,0
52,100,0.1590909090909091,483,0,83,_tunecore_Remastered_Guitar,6,3,_tunecore_Remastered_Guitar,0.27058663964271545,0
54,100,0.5590909090909091,590,0,83,_tunecore_Remastered_Guitar,6,9,_tunecore_Remastered_Guitar,0.3579290807247162,0
54,100,0.32272727272727275,145,1,84,_tunecore_Remastered_Guitar,6,5,_tunecore_Remastered_Guitar,0.9990094900131226,1
52,100,0.12272727272727273,343,0,84,_tunecore_Remastered_Guitar,6,2,_tunecore_Remastered_Guitar,0.23322713375091553,0
52,100,0.3409090909090909,470,0,84,_tunecore_Remastered_Guitar,6,5,_tunecore_Remastered_Guitar,0.27057909965515137,0
52,100,0.4818181818181818,707,1,84,_tunecore_Remastered_Guitar,6,8,_tunecore_Remastered_Guitar,0.35792842507362366,0
61,100,0.12272727272727273,157,1,85,_tunecore_Remastered_Guitar,6,2,_tunecore_Remastered_Guitar,0.9792232513427734,1
54,100,0.1409090909090909,189,1,86,_tunecore_Remastered_Guitar,6,2,_tunecore_Remastered_Guitar,0.9990094900131226,1
63,100,0.35909090909090907,373,0,86,_tunecore_Remastered_Guitar,6,6,_tunecore_Remastered_Guitar,0.23322175443172455,0
59,100,0.1,663,1,86,_tunecore_Remastered_Guitar,6,2,_tunecore_Remastered_Guitar,0.2705763280391693,0
52,100,0.17727272727272728,787,0,86,_tunecore_Remastered_Guitar,6,3,_tunecore_Remastered_Guitar,0.35792621970176697,0
57,100,0.5409090909090909,210,1,87,_tunecore_Remastered_Guitar,6,9,_tunecore_Remastered_Guitar,0.9983232617378235,1
52,100,0.1590909090909091,383,0,87,_tunecore_Remastered_Guitar,6,3,_tunecore_Remastered_Guitar,0.5462177991867065,1
52,100,0.3181818181818182,30,1,88,_tunecore_Remastered_Guitar,6,5,_tunecore_Remastered_Guitar,0.9983231425285339,1
59,100,0.2590909090909091,857,1,88,_tunecore_Remastered_Guitar,6,4,_tunecore_Remastered_Guitar,0.5462169051170349,1
59,100,0.1409090909090909,176,1,89,_tunecore_Remastered_Guitar,6,2,_tunecore_Remastered_Guitar,0.9990094900131226,1
52,100,1.0,352,0,89,_tunecore_Remastered_Guitar,6,15,_tunecore_Remastered_Guitar,0.23322808742523193,0
64,100,0.11818181818181818,800,1,89,_tunecore_Remastered_Guitar,6,2,_tunecore_Remastered_Guitar,0.27058976888656616,0
64,100,0.21818181818181817,832,0,89,_tunecore_Remastered_Guitar,6,3,_tunecore_Remastered_Guitar,0.35794469714164734,0
64,100,0.4,480,1,90,_tunecore_Remastered_Guitar,6,6,_tunecore_Remastered_Guitar,0.9990094900131226,1
59,100,0.1590909090909091,603,0,90,_tunecore_Remastered_Guitar,6,3,_tunecore_Remastered_Guitar,0.2332281917333603,0
52,100,0.7227272727272728,673,0,90,_tunecore_Remastered_Guitar,6,12,_tunecore_Remastered_Guitar,0.2705807685852051,0
59,100,0.22272727272727272,862,0,90,_tunecore_Remastered_Guitar,6,4,_tunecore_Remastered_Guitar,0.3579343259334564,0
59,100,0.12272727272727273,35,1,91,_tunecore_Remastered_Guitar,6,2,_tunecore_Remastered_Guitar,0.9988439083099365,1
59,100,0.6,113,0,91,_tunecore_Remastered_Guitar,6,10,_tunecore_Remastered_Guitar,0.13798081874847412,0
54,100,0.12272727272727273,289,0,91,_tunecore_Remastered_Guitar,6,2,_tunecore_Remastered_Guitar,0.16236194968223572,0
59,100,0.1590909090909091,787,1,91,_tunecore_Remastered_Guitar,6,3,_tunecore_Remastered_Guitar,0.19105710089206696,0
52,100,0.21818181818181817,844,0,91,_tunecore_Remastered_Guitar,6,3,_tunecore_Remastered_Guitar,0.2619650363922119,0
59,100,0.4,22,1,92,_tunecore_Remastered_Guitar,6,6,_tunecore_Remastered_Guitar,0.9990094900131226,1
52,100,0.2,250,0,92,_tunecore_Remastered_Guitar,6,3,_tunecore_Remastered_Guitar,0.23323000967502594,0
52,100,0.3409090909090909,386,0,92,_tunecore_Remastered_Guitar,6,5,_tunecore_Remastered_Guitar,0.2705807089805603,0
52,100,0.35909090909090907,480,0,92,_tunecore_Remastered_Guitar,6,6,_tunecore_Remastered_Guitar,0.3579338788986206,0
52,100,0.2,74,1,93,_tunecore_Remastered_Guitar,6,3,_tunecore_Remastered_Guitar,0.9986506104469299,1
52,100,1.1181818181818182,193,0,93,_tunecore_Remastered_Guitar,6,15,_tunecore_Remastered_Guitar,0.0879783108830452,0
52,100,0.21818181818181817,493,1,93,_tunecore_Remastered_Guitar,6,3,_tunecore_Remastered_Guitar,0.09298557043075562,0
52,100,0.1,646,0,93,_tunecore_Remastered_Guitar,6,2,_tunecore_Remastered_Guitar,0.10995004326105118,0
54,100,0.11818181818181818,779,0,93,_tunecore_Remastered_Guitar,6,2,_tunecore_Remastered_Guitar,0.1286763846874237,0
54,100,0.11818181818181818,823,0,93,_tunecore_Remastered_Guitar,6,2,_tunecore_Remastered_Guitar,0.1822277158498764,0
54,100,0.11818181818181818,330,1,94,_tunecore_Remastered_Guitar,6,2,_tunecore_Remastered_Guitar,0.9990280866622925,1
52,100,0.2,462,0,94,_tunecore_Remastered_Guitar,6,3,_tunecore_Remastered_Guitar,0.37033504247665405,0
52,100,0.1590909090909091,739,1,94,_tunecore_Remastered_Guitar,6,3,_tunecore_Remastered_Guitar,0.4561719596385956,0
52,100,0.7181818181818181,0,1,95,_tunecore_Remastered_Guitar,6,11,_tunecore_Remastered_Guitar,0.9990280866622925,1
52,100,0.18181818181818182,563,1,95,_tunecore_Remastered_Guitar,6,3,_tunecore_Remastered_Guitar,0.37033677101135254,0
52,100,1.0227272727272727,695,0,95,_tunecore_Remastered_Guitar,6,15,_tunecore_Remastered_Guitar,0.45617106556892395,0
52,100,0.1,100,1,96,_tunecore_Remastered_Guitar,6,2,_tunecore_Remastered_Guitar,0.9988439083099365,1
52,100,0.3,242,0,96,_tunecore_Remastered_Guitar,6,5,_tunecore_Remastered_Guitar,0.1379818171262741,0
53,100,0.11818181818181818,326,0,96,_tunecore_Remastered_Guitar,6,2,_tunecore_Remastered_Guitar,0.1623625010251999,0
54,100,0.2818181818181818,352,0,96,_tunecore_Remastered_Guitar,6,5,_tunecore_Remastered_Guitar,0.1910567283630371,0
54,100,0.2409090909090909,800,1,96,_tunecore_Remastered_Guitar,6,4,_tunecore_Remastered_Guitar,0.26196813583374023,0
52,100,0.5636363636363636,47,1,97,_tunecore_Remastered_Guitar,6,9,_tunecore_Remastered_Guitar,0.9990280866622925,1
52,100,0.22272727272727272,210,0,97,_tunecore_Remastered_Guitar,6,4,_tunecore_Remastered_Guitar,0.3703414797782898,0
52,100,0.1590909090909091,343,0,97,_tunecore_Remastered_Guitar,6,3,_tunecore_Remastered_Guitar,0.45617055892944336,0
54,100,0.38181818181818183,26,1,98,_tunecore_Remastered_Guitar,6,6,_tunecore_Remastered_Guitar,0.9984879493713379,1
54,100,0.1409090909090909,119,0,98,_tunecore_Remastered_Guitar,6,2,_tunecore_Remastered_Guitar,0.06335306912660599,0
59,100,0.4,202,0,98,_tunecore_Remastered_Guitar,6,6,_tunecore_Remastered_Guitar,0.05828706547617912,0
52,100,0.759090909090909,299,0,98,_tunecore_Remastered_Guitar,6,12,_tunecore_Remastered_Guitar,0.06135983392596245,0
59,100,0.35909090909090907,502,0,98,_tunecore_Remastered_Guitar,6,6,_tunecore_Remastered_Guitar,0.07168110460042953,0
54,100,0.35909090909090907,593,0,98,_tunecore_Remastered_Guitar,6,6,_tunecore_Remastered_Guitar,0.08473435789346695,0
54,100,0.1,870,1,98,_tunecore_Remastered_Guitar,6,2,_tunecore_Remastered_Guitar,0.12635305523872375,0
54,100,0.2,176,1,99,_tunecore_Remastered_Guitar,6,3,_tunecore_Remastered_Guitar,0.9990094900131226,1
52,100,0.21818181818181817,550,1,99,_tunecore_Remastered_Guitar,6,3,_tunecore_Remastered_Guitar,0.233226016163826,0
52,100,0.4,673,0,99,_tunecore_Remastered_Guitar,6,6,_tunecore_Remastered_Guitar,0.2705843150615692,0
52,100,0.2590909090909091,836,0,99,_tunecore_Remastered_Guitar,6,4,_tunecore_Remastered_Guitar,0.357937216758728,0
52,100,0.11818181818181818,197,1,100,_tunecore_Remastered_Guitar,6,2,_tunecore_Remastered_Guitar,0.9986506104469299,1
52,100,0.2,303,0,100,_tunecore_Remastered_Guitar,6,3,_tunecore_Remastered_Guitar,0.0879783108830452,0
61,100,0.11818181818181818,396,0,100,_tunecore_Remastered_Guitar,6,2,_tunecore_Remastered_Guitar,0.0929826945066452,0
52,100,0.17727272727272728,580,0,100,_tunecore_Remastered_Guitar,6,3,_tunecore_Remastered_Guitar,0.10994928330183029,0
61,100,0.4,646,0,100,_tunecore_Remastered_Guitar,6,6,_tunecore_Remastered_Guitar,0.1286669820547104,0
64,100,0.12272727272727273,783,0,100,_tunecore_Remastered_Guitar,6,2,_tunecore_Remastered_Guitar,0.18222399055957794,0
64,100,0.11818181818181818,127,1,101,_tunecore_Remastered_Guitar,6,2,_tunecore_Remastered_Guitar,0.9986506104469299,1
64,100,0.1,172,0,101,_tunecore_Remastered_Guitar,6,2,_tunecore_Remastered_Guitar,0.08798196166753769,0
64,100,0.3409090909090909,206,0,101,_tunecore_Remastered_Guitar,6,5,_tunecore_Remastered_Guitar,0.09298638999462128,0
52,100,0.16363636363636364,356,0,101,_tunecore_Remastered_Guitar,6,3,_tunecore_Remastered_Guitar,0.10995205491781235,0
52,100,0.1409090909090909,426,0,101,_tunecore_Remastered_Guitar,6,2,_tunecore_Remastered_Guitar,0.12867602705955505,0
53,100,0.11818181818181818,462,0,101,_tunecore_Remastered_Guitar,6,2,_tunecore_Remastered_Guitar,0.18222203850746155,0
52,100,0.11818181818181818,303,1,102,_tunecore_Remastered_Guitar,6,2,_tunecore_Remastered_Guitar,0.9990094900131226,1
52,100,0.6,590,1,102,_tunecore_Remastered_Guitar,6,10,_tunecore_Remastered_Guitar,0.23323218524456024,0
59,100,0.2409090909090909,800,0,102,_tunecore_Remastered_Guitar,6,4,_tunecore_Remastered_Guitar,0.2705896198749542,0
61,100,0.1,857,0,102,_tunecore_Remastered_Guitar,6,2,_tunecore_Remastered_Guitar,0.35792574286460876,0
64,100,0.32272727272727275,123,1,103,_tunecore_Remastered_Guitar,6,5,_tunecore_Remastered_Guitar,0.9984879493713379,1
66,100,0.1590909090909091,396,1,103,_tunecore_Remastered_Guitar,6,3,_tunecore_Remastered_Guitar,0.06335457414388657,0
68,100,0.37727272727272726,449,0,103,_tunecore_Remastered_Guitar,6,6,_tunecore_Remastered_Guitar,0.058287523686885834,0
66,100,0.37727272727272726,559,0,103,_tunecore_Remastered_Guitar,6,6,_tunecore_Remastered_Guitar,0.061360783874988556,0
66,100,0.17727272727272728,677,0,103,_tunecore_Remastered_Guitar,6,3,_tunecore_Remastered_Guitar,0.07168103754520416,0
64,100,0.1,800,0,103,_tunecore_Remastered_Guitar,6,2,_tunecore_Remastered_Guitar,0.08473196625709534,0
64,100,0.18181818181818182,862,0,103,_tunecore_Remastered_Guitar,6,3,_tunecore_Remastered_Guitar,0.12634994089603424,0
61,100,0.18181818181818182,26,1,104,_tunecore_Remastered_Guitar,6,3,_tunecore_Remastered_Guitar,0.9988439083099365,1
59,100,0.7,69,0,104,_tunecore_Remastered_Guitar,6,11,_tunecore_Remastered_Guitar,0.13798290491104126,0
59,100,0.2590909090909091,255,0,104,_tunecore_Remastered_Guitar,6,4,_tunecore_Remastered_Guitar,0.16236624121665955,0
64,100,0.2590909090909091,440,0,104,_tunecore_Remastered_Guitar,6,4,_tunecore_Remastered_Guitar,0.19105905294418335,0
64,100,0.3,593,0,104,_tunecore_Remastered_Guitar,6,5,_tunecore_Remastered_Guitar,0.26196691393852234,0
59,100,0.2,123,1,105,_tunecore_Remastered_Guitar,6,3,_tunecore_Remastered_Guitar,0.9983735084533691,1
61,100,0.37727272727272726,172,0,105,_tunecore_Remastered_Guitar,6,6,_tunecore_Remastered_Guitar,0.05104953423142433,0
64,100,0.2636363636363636,267,0,105,_tunecore_Remastered_Guitar,6,4,_tunecore_Remastered_Guitar,0.04161226376891136,0
59,100,0.1590909090909091,550,1,105,_tunecore_Remastered_Guitar,6,3,_tunecore_Remastered_Guitar,0.037980519235134125,0
66,100,0.1,593,0,105,_tunecore_Remastered_Guitar,6,2,_tunecore_Remastered_Guitar,0.03926251083612442,0
68,100,0.1409090909090909,637,0,105,_tunecore_Remastered_Guitar,6,2,_tunecore_Remastered_Guitar,0.04616642743349075,0
66,100,0.2,690,0,105,_tunecore_Remastered_Guitar,6,3,_tunecore_Remastered_Guitar,0.0571342371404171,0
64,100,0.42272727272727273,739,0,105,_tunecore_Remastered_Guitar,6,7,_tunecore_Remastered_Guitar,0.09188597649335861,0
64,100,0.2409090909090909,0,1,106,_tunecore_Remastered_Guitar,6,4,_tunecore_Remastered_Guitar,0.9986506104469299,1
54,100,0.6,66,0,106,_tunecore_Remastered_Guitar,6,10,_tunecore_Remastered_Guitar,0.08798068761825562,0
66,100,0.6181818181818182,263,0,106,_tunecore_Remastered_Guitar,6,10,_tunecore_Remastered_Guitar,0.09298530966043472,0
52,100,0.38181818181818183,422,0,106,_tunecore_Remastered_Guitar,6,6,_tunecore_Remastered_Guitar,0.10994942486286163,0
59,100,0.11818181818181818,792,1,106,_tunecore_Remastered_Guitar,6,2,_tunecore_Remastered_Guitar,0.1286744326353073,0
59,100,0.5227272727272727,839,0,106,_tunecore_Remastered_Guitar,6,8,_tunecore_Remastered_Guitar,0.18221533298492432,0
60,100,0.2,188,1,45,DL_Guitar,6,3,DL_Guitar,0.9983232617378235,1
71,100,0.2,584,1,45,DL_Guitar,6,3,DL_Guitar,0.5462169051170349,1
52,100,0.1409090909090909,136,1,46,DL_Guitar,6,2,DL_Guitar,0.9986506104469299,1
52,100,0.1590909090909091,185,0,46,DL_Guitar,6,3,DL_Guitar,0.0879809558391571,0
52,100,0.16363636363636364,311,0,46,DL_Guitar,6,3,DL_Guitar,0.09298814833164215,0
52,100,0.2409090909090909,373,0,46,DL_Guitar,6,4,DL_Guitar,0.10995406657457352,0
52,100,0.2818181818181818,681,1,46,DL_Guitar,6,5,DL_Guitar,0.12867732346057892,0
52,100,1.1590909090909092,756,0,46,DL_Guitar,6,15,DL_Guitar,0.18222865462303162,0
52,100,0.38181818181818183,136,1,47,DL_Guitar,6,6,DL_Guitar,0.9990280866622925,1
69,100,0.2772727272727273,536,1,47,DL_Guitar,6,4,DL_Guitar,0.37033960223197937,0
52,100,0.21818181818181817,845,1,47,DL_Guitar,6,3,DL_Guitar,0.4561699628829956,0
52,100,0.4590909090909091,18,1,48,DL_Guitar,6,7,DL_Guitar,0.9990094900131226,1
52,100,0.1409090909090909,136,0,48,DL_Guitar,6,2,DL_Guitar,0.23322440683841705,0
52,100,0.6409090909090909,188,0,48,DL_Guitar,6,10,DL_Guitar,0.2705811560153961,0
52,100,0.1409090909090909,338,0,48,DL_Guitar,6,2,DL_Guitar,0.35793671011924744,0
71,100,0.3,228,1,49,DL_Guitar,6,5,DL_Guitar,0.9792237281799316,1
55,100,0.2590909090909091,75,1,50,DL_Guitar,6,4,DL_Guitar,0.9990280866622925,1
71,100,0.16363636363636364,421,1,50,DL_Guitar,6,3,DL_Guitar,0.3703349232673645,0
52,100,0.18181818181818182,796,1,50,DL_Guitar,6,3,DL_Guitar,0.45616841316223145,0
52,100,0.11818181818181818,96,1,51,DL_Guitar,6,2,DL_Guitar,0.9988439083099365,1
52,100,0.37727272727272726,171,0,51,DL_Guitar,6,6,DL_Guitar,0.137985497713089,0
60,100,0.16363636363636364,268,0,51,DL_Guitar,6,3,DL_Guitar,0.1623685508966446,0
52,100,0.1,545,1,51,DL_Guitar,6,2,DL_Guitar,0.19106025993824005,0
52,100,1.2181818181818183,590,0,51,DL_Guitar,6,15,DL_Guitar,0.261966347694397,0
69,100,0.2,171,1,52,DL_Guitar,6,3,DL_Guitar,0.9986506104469299,1
69,100,0.22272727272727272,224,0,52,DL_Guitar,6,4,DL_Guitar,0.08798248320817947,0
69,100,0.1590909090909091,361,0,52,DL_Guitar,6,3,DL_Guitar,0.09298522770404816,0
52,100,0.5227272727272727,641,1,52,DL_Guitar,6,8,DL_Guitar,0.10995284467935562,0
64,100,0.11818181818181818,791,0,52,DL_Guitar,6,2,DL_Guitar,0.12867608666419983,0
52,100,0.8227272727272728,839,0,52,DL_Guitar,6,13,DL_Guitar,0.18222282826900482,0
71,100,0.1590909090909091,56,1,54,DL_Guitar,6,3,DL_Guitar,0.9792236089706421,1
64,100,0.1409090909090909,598,1,60,DL_Guitar,6,2,DL_Guitar,0.9792247414588928,1
62,100,0.2,246,1,61,DL_Guitar,6,3,DL_Guitar,0.9983232617378235,1
52,100,0.1590909090909091,845,1,61,DL_Guitar,6,3,DL_Guitar,0.5462183952331543,1
52,100,0.12272727272727273,158,1,62,DL_Guitar,6,2,DL_Guitar,0.9988439083099365,1
52,100,0.1409090909090909,418,1,62,DL_Guitar,6,2,DL_Guitar,0.1379842758178711,0
52,100,0.35909090909090907,536,0,62,DL_Guitar,6,6,DL_Guitar,0.16236825287342072,0
52,100,0.2818181818181818,729,0,62,DL_Guitar,6,5,DL_Guitar,0.1910649538040161,0
53,100,0.1409090909090909,804,0,62,DL_Guitar,6,2,DL_Guitar,0.2619725465774536,0
60,100,0.2,8,1,63,DL_Guitar,6,3,DL_Guitar,0.9990094900131226,1
60,100,0.2409090909090909,56,0,63,DL_Guitar,6,4,DL_Guitar,0.23322591185569763,0
53,100,0.22272727272727272,136,0,63,DL_Guitar,6,4,DL_Guitar,0.27057084441185,0
52,100,0.5409090909090909,466,1,63,DL_Guitar,6,9,DL_Guitar,0.35792872309684753,0
52,100,0.18181818181818182,13,1,64,DL_Guitar,6,3,DL_Guitar,0.9990094900131226,1
62,100,0.2,229,0,64,DL_Guitar,6,3,DL_Guitar,0.23323291540145874,0
62,100,0.5772727272727273,559,1,64,DL_Guitar,6,9,DL_Guitar,0.27058684825897217,0
62,100,0.1409090909090909,792,1,64,DL_Guitar,6,2,DL_Guitar,0.357943058013916,0
62,100,0.11818181818181818,106,1,65,DL_Guitar,6,2,DL_Guitar,0.9983232617378235,1
55,100,0.35909090909090907,413,1,65,DL_Guitar,6,6,DL_Guitar,0.5462179780006409,1
62,100,0.8409090909090909,462,1,66,DL_Guitar,6,13,DL_Guitar,0.9983231425285339,1
62,100,0.9409090909090909,713,1,66,DL_Guitar,6,15,DL_Guitar,0.5462241768836975,1
52,100,0.3,106,1,67,DL_Guitar,6,5,DL_Guitar,0.9988439083099365,1
60,100,0.1590909090909091,250,0,67,DL_Guitar,6,3,DL_Guitar,0.13798187673091888,0
52,100,0.4818181818181818,320,0,67,DL_Guitar,6,8,DL_Guitar,0.16236519813537598,0
65,100,0.2,700,1,67,DL_Guitar,6,3,DL_Guitar,0.19105714559555054,0
53,100,0.36363636363636365,817,0,67,DL_Guitar,6,6,DL_Guitar,0.26196837425231934,0
53,100,0.4590909090909091,22,1,68,DL_Guitar,6,7,DL_Guitar,0.9982556700706482,1
53,100,0.13636363636363635,216,0,68,DL_Guitar,6,2,DL_Guitar,0.041293445974588394,0
52,100,0.2772727272727273,282,0,68,DL_Guitar,6,4,DL_Guitar,0.029124703258275986,0
52,100,0.2,417,0,68,DL_Guitar,6,3,DL_Guitar,0.02156960964202881,0
52,100,0.37727272727272726,493,0,68,DL_Guitar,6,6,DL_Guitar,0.01705954410135746,0
52,100,0.1,580,0,68,DL_Guitar,6,2,DL_Guitar,0.015268655493855476,0
52,100,0.1,606,0,68,DL_Guitar,6,2,DL_Guitar,0.016456695273518562,0
52,100,0.13636363636363635,633,0,68,DL_Guitar,6,2,DL_Guitar,0.021838190034031868,0
62,100,0.12272727272727273,817,0,68,DL_Guitar,6,2,DL_Guitar,0.032519012689590454,0
62,100,0.3409090909090909,849,0,68,DL_Guitar,6,5,DL_Guitar,0.0609128512442112,0
62,100,0.36363636363636365,69,1,69,DL_Guitar,6,6,DL_Guitar,0.9983735084533691,1
62,100,0.11818181818181818,172,0,69,DL_Guitar,6,2,DL_Guitar,0.05105108022689819,0
62,100,0.2636363636363636,202,0,69,DL_Guitar,6,4,DL_Guitar,0.041613005101680756,0
62,100,0.1409090909090909,383,0,69,DL_Guitar,6,2,DL_Guitar,0.03798056021332741,0
52,100,0.2818181818181818,593,0,69,DL_Guitar,6,5,DL_Guitar,0.03926245868206024,0
52,100,0.1590909090909091,673,0,69,DL_Guitar,6,3,DL_Guitar,0.04616840183734894,0
52,100,0.5363636363636364,722,0,69,DL_Guitar,6,9,DL_Guitar,0.05713563412427902,0
60,100,0.1409090909090909,870,0,69,DL_Guitar,6,2,DL_Guitar,0.09188593178987503,0
53,100,0.38181818181818183,307,1,70,DL_Guitar,6,6,DL_Guitar,0.9986506104469299,1
53,100,0.3,396,0,70,DL_Guitar,6,5,DL_Guitar,0.08797988295555115,0
60,100,0.2818181818181818,506,0,70,DL_Guitar,6,5,DL_Guitar,0.09298430383205414,0
52,100,0.5636363636363636,642,0,70,DL_Guitar,6,9,DL_Guitar,0.1099482849240303,0
52,100,0.18181818181818182,770,0,70,DL_Guitar,6,3,DL_Guitar,0.12867161631584167,0
52,100,0.8,839,0,70,DL_Guitar,6,13,DL_Guitar,0.18221434950828552,0
62,100,0.1,417,1,71,DL_Guitar,6,2,DL_Guitar,0.9990094900131226,1
62,100,0.21818181818181817,493,0,71,DL_Guitar,6,3,DL_Guitar,0.2332395762205124,0
62,100,0.6409090909090909,650,0,71,DL_Guitar,6,10,DL_Guitar,0.2705933749675751,0
62,100,0.1590909090909091,823,0,71,DL_Guitar,6,3,DL_Guitar,0.3579504191875458,0
52,100,0.2,399,1,72,DL_Guitar,6,3,DL_Guitar,0.9988439083099365,1
53,100,0.33636363636363636,457,0,72,DL_Guitar,6,5,DL_Guitar,0.13797862827777863,0
53,100,0.16363636363636364,576,0,72,DL_Guitar,6,3,DL_Guitar,0.16236047446727753,0
53,100,0.1590909090909091,660,0,72,DL_Guitar,6,3,DL_Guitar,0.19104920327663422,0
60,100,0.1,734,0,72,DL_Guitar,6,2,DL_Guitar,0.2619609236717224,0
53,100,0.2,30,1,73,DL_Guitar,6,3,DL_Guitar,0.9990094900131226,1
55,100,0.6181818181818182,413,1,73,DL_Guitar,6,10,DL_Guitar,0.23323655128479004,0
55,100,0.35909090909090907,590,0,73,DL_Guitar,6,6,DL_Guitar,0.27058497071266174,0
55,100,0.5,722,0,73,DL_Guitar,6,8,DL_Guitar,0.35793086886405945,0
53,100,0.42272727272727273,796,1,74,DL_Guitar,6,7,DL_Guitar,0.9792236089706421,1
53,100,0.4590909090909091,62,1,75,DL_Guitar,6,7,DL_Guitar,0.9988439083099365,1
60,100,0.17727272727272728,250,0,75,DL_Guitar,6,3,DL_Guitar,0.1379835456609726,0
53,100,0.1,303,0,75,DL_Guitar,6,2,DL_Guitar,0.16235993802547455,0
53,100,0.12272727272727273,356,0,75,DL_Guitar,6,2,DL_Guitar,0.19105269014835358,0
53,100,0.1590909090909091,417,0,75,DL_Guitar,6,3,DL_Guitar,0.2619606554508209,0
52,100,0.2818181818181818,92,1,76,DL_Guitar,6,5,DL_Guitar,0.9983735084533691,1
52,100,0.1,263,0,76,DL_Guitar,6,2,DL_Guitar,0.05104997009038925,0
52,100,0.2,352,0,76,DL_Guitar,6,3,DL_Guitar,0.04161197692155838,0
52,100,0.2636363636363636,399,0,76,DL_Guitar,6,4,DL_Guitar,0.03798071667551994,0
52,100,0.17727272727272728,480,0,76,DL_Guitar,6,3,DL_Guitar,0.03926139324903488,0
52,100,0.1409090909090909,563,0,76,DL_Guitar,6,2,DL_Guitar,0.04616586118936539,0
52,100,0.2,624,0,76,DL_Guitar,6,3,DL_Guitar,0.05713280662894249,0
53,100,0.12272727272727273,729,0,76,DL_Guitar,6,2,DL_Guitar,0.09188254922628403,0
52,100,0.2,157,1,77,DL_Guitar,6,3,DL_Guitar,0.9984879493713379,1
53,100,0.35909090909090907,263,0,77,DL_Guitar,6,6,DL_Guitar,0.06335185468196869,0
53,100,0.1590909090909091,417,0,77,DL_Guitar,6,3,DL_Guitar,0.058286894112825394,0
53,100,0.11818181818181818,457,0,77,DL_Guitar,6,2,DL_Guitar,0.06136048957705498,0
53,100,0.6,523,0,77,DL_Guitar,6,10,DL_Guitar,0.0716782808303833,0
53,100,0.16363636363636364,663,0,77,DL_Guitar,6,3,DL_Guitar,0.08473281562328339,0
60,100,0.11818181818181818,713,0,77,DL_Guitar,6,2,DL_Guitar,0.12635059654712677,0
53,100,0.12272727272727273,35,1,78,DL_Guitar,6,2,DL_Guitar,0.9990094900131226,1
64,100,0.13636363636363635,260,0,78,DL_Guitar,6,2,DL_Guitar,0.2332356572151184,0
52,100,0.1409090909090909,316,0,78,DL_Guitar,6,2,DL_Guitar,0.27058982849121094,0
57,100,0.42272727272727273,466,0,78,DL_Guitar,6,7,DL_Guitar,0.3579358160495758,0
52,100,0.7181818181818181,810,1,80,DL_Guitar,6,11,DL_Guitar,0.9792242646217346,1
52,100,0.1409090909090909,189,1,81,DL_Guitar,6,2,DL_Guitar,0.9986506104469299,1
52,100,0.7181818181818181,263,0,81,DL_Guitar,6,11,DL_Guitar,0.08798115700483322,0
52,100,0.6363636363636364,436,0,81,DL_Guitar,6,10,DL_Guitar,0.09298675507307053,0
52,100,0.6,656,0,81,DL_Guitar,6,10,DL_Guitar,0.10995357483625412,0
52,100,0.1,800,0,81,DL_Guitar,6,2,DL_Guitar,0.12867718935012817,0
52,100,0.5,849,0,81,DL_Guitar,6,8,DL_Guitar,0.18222805857658386,0
53,100,0.35909090909090907,140,1,82,DL_Guitar,6,6,DL_Guitar,0.9986506104469299,1
53,100,0.1590909090909091,326,0,82,DL_Guitar,6,3,DL_Guitar,0.08797840774059296,0
53,100,0.3181818181818182,383,0,82,DL_Guitar,6,5,DL_Guitar,0.09298277646303177,0
53,100,0.2409090909090909,527,0,82,DL_Guitar,6,4,DL_Guitar,0.10994770377874374,0
52,100,0.9,629,0,82,DL_Guitar,6,14,DL_Guitar,0.12867064774036407,0
52,100,0.7636363636363637,839,0,82,DL_Guitar,6,12,DL_Guitar,0.18221275508403778,0
52,100,0.4772727272727273,150,1,83,DL_Guitar,6,8,DL_Guitar,0.9792249798774719,1
52,100,0.7636363636363637,466,1,84,DL_Guitar,6,12,DL_Guitar,0.9990280866622925,1
52,100,0.4590909090909091,682,0,84,DL_Guitar,6,7,DL_Guitar,0.37033867835998535,0
52,100,0.6181818181818182,810,0,84,DL_Guitar,6,10,DL_Guitar,0.4561687707901001,0
52,100,0.2590909090909091,229,1,85,DL_Guitar,6,4,DL_Guitar,0.9990280866622925,1
52,100,0.8,316,0,85,DL_Guitar,6,13,DL_Guitar,0.37033790349960327,0
52,100,0.1409090909090909,514,0,85,DL_Guitar,6,2,DL_Guitar,0.4561777114868164,0
55,100,0.1409090909090909,417,1,86,DL_Guitar,6,2,DL_Guitar,0.9792240262031555,1
65,100,0.3409090909090909,286,1,89,DL_Guitar,6,5,DL_Guitar,0.9792238473892212,1
55,100,0.6818181818181818,572,1,93,DL_Guitar,6,11,DL_Guitar,0.9983231425285339,1
55,100,0.18181818181818182,849,1,93,DL_Guitar,6,3,DL_Guitar,0.5462155938148499,1
78,100,0.17727272727272728,250,1,94,DL_Guitar,6,3,DL_Guitar,0.9990094900131226,1
53,100,0.21818181818181817,360,0,94,DL_Guitar,6,3,DL_Guitar,0.23322276771068573,0
53,100,0.1590909090909091,493,0,94,DL_Guitar,6,3,DL_Guitar,0.2705801725387573,0
61,100,0.2,779,1,94,DL_Guitar,6,3,DL_Guitar,0.35792261362075806,0
53,100,0.12272727272727273,3,1,96,DL_Guitar,6,2,DL_Guitar,0.9986506104469299,1
53,100,0.1590909090909091,140,0,96,DL_Guitar,6,3,DL_Guitar,0.08797789365053177,0
53,100,0.1409090909090909,320,0,96,DL_Guitar,6,2,DL_Guitar,0.092984139919281,0
53,100,0.2,373,0,96,DL_Guitar,6,3,DL_Guitar,0.10994788259267807,0
56,100,0.1,619,1,96,DL_Guitar,6,2,DL_Guitar,0.1286638379096985,0
61,100,0.1590909090909091,866,1,96,DL_Guitar,6,3,DL_Guitar,0.18221250176429749,0
61,100,0.16363636363636364,47,1,97,DL_Guitar,6,3,DL_Guitar,0.9990094900131226,1
54,100,0.17727272727272728,163,0,97,DL_Guitar,6,3,DL_Guitar,0.23323291540145874,0
54,100,0.3,242,0,97,DL_Guitar,6,5,DL_Guitar,0.2705862820148468,0
53,100,0.1,330,0,97,DL_Guitar,6,2,DL_Guitar,0.3579290211200714,0
61,100,0.12272727272727273,92,1,98,DL_Guitar,6,2,DL_Guitar,0.9990094900131226,1
61,100,0.32272727272727275,202,0,98,DL_Guitar,6,5,DL_Guitar,0.23323039710521698,0
61,100,0.13636363636363635,303,0,98,DL_Guitar,6,2,DL_Guitar,0.27057915925979614,0
61,100,0.2,440,0,98,DL_Guitar,6,3,DL_Guitar,0.35793063044548035,0
53,100,0.17727272727272728,370,1,100,DL_Guitar,6,3,DL_Guitar,0.9988439083099365,1
53,100,0.1,502,0,100,DL_Guitar,6,2,DL_Guitar,0.1379801332950592,0
53,100,0.1409090909090909,637,0,100,DL_Guitar,6,2,DL_Guitar,0.1623624563217163,0
53,100,0.21818181818181817,779,0,100,DL_Guitar,6,3,DL_Guitar,0.1910577118396759,0
53,100,0.2590909090909091,870,0,100,DL_Guitar,6,4,DL_Guitar,0.261970579624176,0
53,100,0.11818181818181818,150,1,101,DL_Guitar,6,2,DL_Guitar,0.9990094900131226,1
53,100,0.1,307,0,101,DL_Guitar,6,2,DL_Guitar,0.2332245409488678,0
53,100,0.2818181818181818,409,0,101,DL_Guitar,6,5,DL_Guitar,0.27057501673698425,0
54,100,0.1,734,1,101,DL_Guitar,6,2,DL_Guitar,0.35792186856269836,0
54,100,0.1590909090909091,9,1,102,DL_Guitar,6,3,DL_Guitar,0.9990280866622925,1
53,100,0.1409090909090909,43,0,102,DL_Guitar,6,2,DL_Guitar,0.3703290522098541,0
53,100,0.17727272727272728,633,1,102,DL_Guitar,6,3,DL_Guitar,0.45616450905799866,0
58,100,1.481818181818182,343,1,1,DL_MelancholicFolk_Guitar,6,15,DL_MelancholicFolk_Guitar,0.9983231425285339,1
58,100,2.7181818181818183,681,1,1,DL_MelancholicFolk_Guitar,6,15,DL_MelancholicFolk_Guitar,0.5462042689323425,1
70,100,0.21818181818181817,413,1,2,DL_MelancholicFolk_Guitar,6,3,DL_MelancholicFolk_Guitar,0.9990280866622925,1
58,100,1.2818181818181817,461,0,2,DL_MelancholicFolk_Guitar,6,15,DL_MelancholicFolk_Guitar,0.3703456223011017,0
53,100,0.7227272727272728,752,1,2,DL_MelancholicFolk_Guitar,6,12,DL_MelancholicFolk_Guitar,0.45616018772125244,0
60,100,0.8409090909090909,34,1,3,DL_MelancholicFolk_Guitar,6,13,DL_MelancholicFolk_Guitar,0.9990280866622925,1
60,100,2.6227272727272726,223,0,3,DL_MelancholicFolk_Guitar,6,15,DL_MelancholicFolk_Guitar,0.3703279495239258,0
60,100,0.2,827,1,3,DL_MelancholicFolk_Guitar,6,3,DL_MelancholicFolk_Guitar,0.45617422461509705,0
60,100,0.3181818181818182,194,1,4,DL_MelancholicFolk_Guitar,6,5,DL_MelancholicFolk_Guitar,0.9988439083099365,1
55,100,0.8227272727272728,276,0,4,DL_MelancholicFolk_Guitar,6,13,DL_MelancholicFolk_Guitar,0.13798056542873383,0
62,100,0.7,462,0,4,DL_MelancholicFolk_Guitar,6,11,DL_MelancholicFolk_Guitar,0.16236399114131927,0
65,100,0.1409090909090909,619,0,4,DL_MelancholicFolk_Guitar,6,2,DL_MelancholicFolk_Guitar,0.1910533607006073,0
62,100,0.21818181818181817,682,0,4,DL_MelancholicFolk_Guitar,6,3,DL_MelancholicFolk_Guitar,0.2619645297527313,0
65,100,0.12272727272727273,48,1,5,DL_MelancholicFolk_Guitar,6,2,DL_MelancholicFolk_Guitar,0.9983231425285339,1
62,100,0.5409090909090909,558,1,5,DL_MelancholicFolk_Guitar,6,9,DL_MelancholicFolk_Guitar,0.5462165474891663,1
58,100,0.11818181818181818,128,1,6,DL_MelancholicFolk_Guitar,6,2,DL_MelancholicFolk_Guitar,0.9983232617378235,1
58,100,0.2409090909090909,184,0,6,DL_MelancholicFolk_Guitar,6,4,DL_MelancholicFolk_Guitar,0.5462182760238647,1
58,100,0.1590909090909091,541,1,7,DL_MelancholicFolk_Guitar,6,3,DL_MelancholicFolk_Guitar,0.9792242646217346,1
53,100,0.8227272727272728,620,1,8,DL_MelancholicFolk_Guitar,6,13,DL_MelancholicFolk_Guitar,0.9792238473892212,1
60,100,0.8409090909090909,206,1,9,DL_MelancholicFolk_Guitar,6,13,DL_MelancholicFolk_Guitar,0.9792240262031555,1
60,100,0.4409090909090909,25,1,10,DL_MelancholicFolk_Guitar,6,7,DL_MelancholicFolk_Guitar,0.9792242646217346,1
58,100,0.1,56,1,13,DL_MelancholicFolk_Guitar,6,2,DL_MelancholicFolk_Guitar,0.9990094900131226,1
65,100,0.2409090909090909,409,1,13,DL_MelancholicFolk_Guitar,6,4,DL_MelancholicFolk_Guitar,0.2332254946231842,0
62,100,0.11818181818181818,831,1,13,DL_MelancholicFolk_Guitar,6,2,DL_MelancholicFolk_Guitar,0.2705816626548767,0
62,100,0.12272727272727273,862,0,13,DL_MelancholicFolk_Guitar,6,2,DL_MelancholicFolk_Guitar,0.35793760418891907,0
65,100,0.8590909090909091,166,1,14,DL_MelancholicFolk_Guitar,6,14,DL_MelancholicFolk_Guitar,0.9988439083099365,1
58,100,0.1409090909090909,355,0,14,DL_MelancholicFolk_Guitar,6,2,DL_MelancholicFolk_Guitar,0.1379796266555786,0
58,100,0.1,391,0,14,DL_MelancholicFolk_Guitar,6,2,DL_MelancholicFolk_Guitar,0.16235953569412231,0
65,100,0.1,465,0,14,DL_MelancholicFolk_Guitar,6,2,DL_MelancholicFolk_Guitar,0.19104984402656555,0
58,100,0.4636363636363636,795,1,14,DL_MelancholicFolk_Guitar,6,7,DL_MelancholicFolk_Guitar,0.26194900274276733,0
65,100,0.2,44,1,15,DL_MelancholicFolk_Guitar,6,3,DL_MelancholicFolk_Guitar,0.9990094900131226,1
58,100,0.7,106,0,15,DL_MelancholicFolk_Guitar,6,11,DL_MelancholicFolk_Guitar,0.2332368642091751,0
58,100,0.4818181818181818,422,1,15,DL_MelancholicFolk_Guitar,6,8,DL_MelancholicFolk_Guitar,0.2705874443054199,0
65,100,0.8409090909090909,716,1,15,DL_MelancholicFolk_Guitar,6,13,DL_MelancholicFolk_Guitar,0.35792097449302673,0
65,100,0.2,113,1,17,DL_MelancholicFolk_Guitar,6,3,DL_MelancholicFolk_Guitar,0.9983232617378235,1
65,100,0.18181818181818182,223,0,17,DL_MelancholicFolk_Guitar,6,3,DL_MelancholicFolk_Guitar,0.546212375164032,1
65,100,1.459090909090909,515,1,18,DL_MelancholicFolk_Guitar,6,15,DL_MelancholicFolk_Guitar,0.9792231321334839,1
58,100,0.6181818181818182,457,1,19,DL_MelancholicFolk_Guitar,6,10,DL_MelancholicFolk_Guitar,0.9990280866622925,1
53,100,0.8409090909090909,598,0,19,DL_MelancholicFolk_Guitar,6,13,DL_MelancholicFolk_Guitar,0.3703362047672272,0
53,100,0.18181818181818182,858,1,19,DL_MelancholicFolk_Guitar,6,3,DL_MelancholicFolk_Guitar,0.45616182684898376,0
65,100,0.12272727272727273,48,1,20,DL_MelancholicFolk_Guitar,6,2,DL_MelancholicFolk_Guitar,0.9990094900131226,1
53,100,0.4,75,0,20,DL_MelancholicFolk_Guitar,6,6,DL_MelancholicFolk_Guitar,0.23322995007038116,0
65,100,0.23636363636363636,171,0,20,DL_MelancholicFolk_Guitar,6,4,DL_MelancholicFolk_Guitar,0.27058425545692444,0
65,100,0.3409090909090909,691,1,20,DL_MelancholicFolk_Guitar,6,5,DL_MelancholicFolk_Guitar,0.35792744159698486,0
70,100,0.740909090909091,581,1,21,DL_MelancholicFolk_Guitar,6,12,DL_MelancholicFolk_Guitar,0.9792237281799316,1
58,100,0.35909090909090907,52,1,22,DL_MelancholicFolk_Guitar,6,6,DL_MelancholicFolk_Guitar,0.9986506104469299,1
65,100,0.8590909090909091,229,0,22,DL_MelancholicFolk_Guitar,6,14,DL_MelancholicFolk_Guitar,0.08797843009233475,0
63,100,0.12272727272727273,422,0,22,DL_MelancholicFolk_Guitar,6,2,DL_MelancholicFolk_Guitar,0.09298417717218399,0
53,100,0.3181818181818182,461,0,22,DL_MelancholicFolk_Guitar,6,5,DL_MelancholicFolk_Guitar,0.10994816571474075,0
53,100,0.1,540,0,22,DL_MelancholicFolk_Guitar,6,2,DL_MelancholicFolk_Guitar,0.12866969406604767,0
60,100,0.1,835,1,22,DL_MelancholicFolk_Guitar,6,2,DL_MelancholicFolk_Guitar,0.18221476674079895,0
65,100,0.33636363636363636,193,1,23,DL_MelancholicFolk_Guitar,6,5,DL_MelancholicFolk_Guitar,0.9988439083099365,1
55,100,0.6,370,0,23,DL_MelancholicFolk_Guitar,6,10,DL_MelancholicFolk_Guitar,0.13798610866069794,0
55,100,0.11818181818181818,546,0,23,DL_MelancholicFolk_Guitar,6,2,DL_MelancholicFolk_Guitar,0.16236454248428345,0
53,100,0.1590909090909091,625,0,23,DL_MelancholicFolk_Guitar,6,3,DL_MelancholicFolk_Guitar,0.19105814397335052,0
65,100,1.240909090909091,663,0,23,DL_MelancholicFolk_Guitar,6,15,DL_MelancholicFolk_Guitar,0.2619498074054718,0
53,100,0.1,65,1,24,DL_MelancholicFolk_Guitar,6,2,DL_MelancholicFolk_Guitar,0.9990280866622925,1
65,100,1.1,395,1,24,DL_MelancholicFolk_Guitar,6,15,DL_MelancholicFolk_Guitar,0.3703327476978302,0
65,100,0.21818181818181817,656,1,24,DL_MelancholicFolk_Guitar,6,3,DL_MelancholicFolk_Guitar,0.4561667740345001,0
58,100,0.2590909090909091,83,1,25,DL_MelancholicFolk_Guitar,6,4,DL_MelancholicFolk_Guitar,0.9990094900131226,1
65,100,0.43636363636363634,171,0,25,DL_MelancholicFolk_Guitar,6,7,DL_MelancholicFolk_Guitar,0.23322583734989166,0
53,100,0.2409090909090909,409,1,25,DL_MelancholicFolk_Guitar,6,4,DL_MelancholicFolk_Guitar,0.2705745995044708,0
60,100,0.2409090909090909,712,1,25,DL_MelancholicFolk_Guitar,6,4,DL_MelancholicFolk_Guitar,0.35792407393455505,0
69,100,0.2636363636363636,48,1,26,DL_MelancholicFolk_Guitar,6,4,DL_MelancholicFolk_Guitar,0.9984879493713379,1
53,100,0.2818181818181818,241,0,26,DL_MelancholicFolk_Guitar,6,5,DL_MelancholicFolk_Guitar,0.06335403025150299,0
53,100,0.35909090909090907,480,1,26,DL_MelancholicFolk_Guitar,6,6,DL_MelancholicFolk_Guitar,0.058289021253585815,0
58,100,0.5,590,0,26,DL_MelancholicFolk_Guitar,6,8,DL_MelancholicFolk_Guitar,0.06136038154363632,0
53,100,0.2818181818181818,729,0,26,DL_MelancholicFolk_Guitar,6,5,DL_MelancholicFolk_Guitar,0.07168151438236237,0
65,100,0.11818181818181818,791,0,26,DL_MelancholicFolk_Guitar,6,2,DL_MelancholicFolk_Guitar,0.08473145961761475,0
53,100,0.16363636363636364,818,0,26,DL_MelancholicFolk_Guitar,6,3,DL_MelancholicFolk_Guitar,0.12634776532649994,0
65,100,1.1409090909090909,88,1,28,DL_MelancholicFolk_Guitar,6,15,DL_MelancholicFolk_Guitar,0.9983231425285339,1
53,100,0.1409090909090909,339,1,28,DL_MelancholicFolk_Guitar,6,2,DL_MelancholicFolk_Guitar,0.5462181568145752,1
55,100,1.059090909090909,254,1,29,DL_MelancholicFolk_Guitar,6,15,DL_MelancholicFolk_Guitar,0.9990280866622925,1
58,100,0.5,523,1,29,DL_MelancholicFolk_Guitar,6,8,DL_MelancholicFolk_Guitar,0.3703397214412689,0
65,100,0.5,694,0,29,DL_MelancholicFolk_Guitar,6,8,DL_MelancholicFolk_Guitar,0.45617035031318665,0
65,100,0.17727272727272728,391,1,30,DL_MelancholicFolk_Guitar,6,3,DL_MelancholicFolk_Guitar,0.9990094900131226,1
53,100,0.18181818181818182,430,0,30,DL_MelancholicFolk_Guitar,6,3,DL_MelancholicFolk_Guitar,0.23322798311710358,0
65,100,0.1409090909090909,470,0,30,DL_MelancholicFolk_Guitar,6,2,DL_MelancholicFolk_Guitar,0.27057722210884094,0
53,100,0.2590909090909091,501,0,30,DL_MelancholicFolk_Guitar,6,4,DL_MelancholicFolk_Guitar,0.35792428255081177,0
58,100,0.6363636363636364,40,1,31,DL_MelancholicFolk_Guitar,6,10,DL_MelancholicFolk_Guitar,0.9988439083099365,1
65,100,0.1,254,0,31,DL_MelancholicFolk_Guitar,6,2,DL_MelancholicFolk_Guitar,0.1379786729812622,0
53,100,0.13636363636363635,303,0,31,DL_MelancholicFolk_Guitar,6,2,DL_MelancholicFolk_Guitar,0.16235652565956116,0
60,100,0.1590909090909091,791,1,31,DL_MelancholicFolk_Guitar,6,3,DL_MelancholicFolk_Guitar,0.1910538375377655,0
65,100,0.1,870,0,31,DL_MelancholicFolk_Guitar,6,2,DL_MelancholicFolk_Guitar,0.26196128129959106,0
65,100,0.22272727272727272,641,1,32,DL_MelancholicFolk_Guitar,6,4,DL_MelancholicFolk_Guitar,0.9990280866622925,1
58,100,0.1590909090909091,765,0,32,DL_MelancholicFolk_Guitar,6,3,DL_MelancholicFolk_Guitar,0.3703460097312927,0
55,100,1.1409090909090909,818,0,32,DL_MelancholicFolk_Guitar,6,15,DL_MelancholicFolk_Guitar,0.45616161823272705,0
53,100,0.11818181818181818,193,1,33,DL_MelancholicFolk_Guitar,6,2,DL_MelancholicFolk_Guitar,0.9990094900131226,1
53,100,0.1409090909090909,361,0,33,DL_MelancholicFolk_Guitar,6,2,DL_MelancholicFolk_Guitar,0.23322342336177826,0
53,100,0.1409090909090909,453,0,33,DL_MelancholicFolk_Guitar,6,2,DL_MelancholicFolk_Guitar,0.2705775201320648,0
63,100,0.2772727272727273,765,1,33,DL_MelancholicFolk_Guitar,6,4,DL_MelancholicFolk_Guitar,0.3579234480857849,0
55,100,0.32272727272727275,48,1,34,DL_MelancholicFolk_Guitar,6,5,DL_MelancholicFolk_Guitar,0.9984879493713379,1
55,100,0.6,136,0,34,DL_MelancholicFolk_Guitar,6,10,DL_MelancholicFolk_Guitar,0.06335309892892838,0
62,100,0.4818181818181818,298,0,34,DL_MelancholicFolk_Guitar,6,8,DL_MelancholicFolk_Guitar,0.058289460837841034,0
60,100,0.6409090909090909,616,1,34,DL_MelancholicFolk_Guitar,6,10,DL_MelancholicFolk_Guitar,0.06136265769600868,0
53,100,0.1590909090909091,765,0,34,DL_MelancholicFolk_Guitar,6,3,DL_MelancholicFolk_Guitar,0.0716836228966713,0
65,100,0.17727272727272728,801,0,34,DL_MelancholicFolk_Guitar,6,3,DL_MelancholicFolk_Guitar,0.08473437279462814,0
53,100,0.2,861,0,34,DL_MelancholicFolk_Guitar,6,3,DL_MelancholicFolk_Guitar,0.126351997256279,0
65,100,0.6227272727272727,56,1,35,DL_MelancholicFolk_Guitar,6,10,DL_MelancholicFolk_Guitar,0.9986506104469299,1
65,100,0.1409090909090909,211,0,35,DL_MelancholicFolk_Guitar,6,2,DL_MelancholicFolk_Guitar,0.08797827363014221,0
65,100,0.6818181818181818,378,0,35,DL_MelancholicFolk_Guitar,6,11,DL_MelancholicFolk_Guitar,0.0929814875125885,0
65,100,0.2,584,0,35,DL_MelancholicFolk_Guitar,6,3,DL_MelancholicFolk_Guitar,0.109949491918087,0
53,100,0.2409090909090909,628,0,35,DL_MelancholicFolk_Guitar,6,4,DL_MelancholicFolk_Guitar,0.12866869568824768,0
53,100,0.8363636363636363,765,0,35,DL_MelancholicFolk_Guitar,6,13,DL_MelancholicFolk_Guitar,0.18221363425254822,0
53,100,0.1590909090909091,118,1,36,DL_MelancholicFolk_Guitar,6,3,DL_MelancholicFolk_Guitar,0.9990280866622925,1
53,100,0.22272727272727272,311,0,36,DL_MelancholicFolk_Guitar,6,4,DL_MelancholicFolk_Guitar,0.37035050988197327,0
53,100,0.9409090909090909,474,0,36,DL_MelancholicFolk_Guitar,6,15,DL_MelancholicFolk_Guitar,0.4561634063720703,0
53,100,0.17727272727272728,523,1,37,DL_MelancholicFolk_Guitar,6,3,DL_MelancholicFolk_Guitar,0.9983231425285339,1
60,100,0.11818181818181818,611,0,37,DL_MelancholicFolk_Guitar,6,2,DL_MelancholicFolk_Guitar,0.5462213158607483,1
65,100,0.2,0,1,38,DL_MelancholicFolk_Guitar,6,3,DL_MelancholicFolk_Guitar,0.9984879493713379,1
58,100,0.4636363636363636,69,0,38,DL_MelancholicFolk_Guitar,6,7,DL_MelancholicFolk_Guitar,0.06335284560918808,0
65,100,0.18181818181818182,268,0,38,DL_MelancholicFolk_Guitar,6,3,DL_MelancholicFolk_Guitar,0.05828678980469704,0
65,100,0.3181818181818182,625,1,38,DL_MelancholicFolk_Guitar,6,5,DL_MelancholicFolk_Guitar,0.06135936081409454,0
65,100,0.2,756,0,38,DL_MelancholicFolk_Guitar,6,3,DL_MelancholicFolk_Guitar,0.07168024778366089,0
65,100,0.11818181818181818,813,0,38,DL_MelancholicFolk_Guitar,6,2,DL_MelancholicFolk_Guitar,0.08473185449838638,0
65,100,0.2,845,0,38,DL_MelancholicFolk_Guitar,6,3,DL_MelancholicFolk_Guitar,0.1263405680656433,0
65,100,1.518181818181818,53,1,39,DL_MelancholicFolk_Guitar,6,15,DL_MelancholicFolk_Guitar,0.9988439083099365,1
53,100,0.4,444,1,39,DL_MelancholicFolk_Guitar,6,6,DL_MelancholicFolk_Guitar,0.13798308372497559,0
65,100,0.4,531,0,39,DL_MelancholicFolk_Guitar,6,6,DL_MelancholicFolk_Guitar,0.1623615175485611,0
60,100,0.22272727272727272,694,0,39,DL_MelancholicFolk_Guitar,6,4,DL_MelancholicFolk_Guitar,0.19105881452560425,0
60,100,0.21818181818181817,748,0,39,DL_MelancholicFolk_Guitar,6,3,DL_MelancholicFolk_Guitar,0.2619619071483612,0
65,100,0.2,61,1,40,DL_MelancholicFolk_Guitar,6,3,DL_MelancholicFolk_Guitar,0.9988439083099365,1
65,100,0.11818181818181818,206,0,40,DL_MelancholicFolk_Guitar,6,2,DL_MelancholicFolk_Guitar,0.1379808932542801,0
53,100,0.22272727272727272,651,1,40,DL_MelancholicFolk_Guitar,6,4,DL_MelancholicFolk_Guitar,0.16236165165901184,0
65,100,0.37727272727272726,700,0,40,DL_MelancholicFolk_Guitar,6,6,DL_MelancholicFolk_Guitar,0.1910548210144043,0
55,100,1.3409090909090908,813,0,40,DL_MelancholicFolk_Guitar,6,15,DL_MelancholicFolk_Guitar,0.2619578540325165,0
58,100,0.7227272727272728,246,1,41,DL_MelancholicFolk_Guitar,6,12,DL_MelancholicFolk_Guitar,0.9990280866622925,1
58,100,0.4,550,1,41,DL_MelancholicFolk_Guitar,6,6,DL_MelancholicFolk_Guitar,0.3703371584415436,0
55,100,0.6590909090909091,735,0,41,DL_MelancholicFolk_Guitar,6,11,DL_MelancholicFolk_Guitar,0.4561651051044464,0
65,100,0.11818181818181818,131,1,42,DL_MelancholicFolk_Guitar,6,2,DL_MelancholicFolk_Guitar,0.9988439083099365,1
58,100,0.18181818181818182,179,0,42,DL_MelancholicFolk_Guitar,6,3,DL_MelancholicFolk_Guitar,0.13798360526561737,0
65,100,0.35909090909090907,228,0,42,DL_MelancholicFolk_Guitar,6,6,DL_MelancholicFolk_Guitar,0.16236227750778198,0
63,100,0.2818181818181818,334,0,42,DL_MelancholicFolk_Guitar,6,5,DL_MelancholicFolk_Guitar,0.19105470180511475,0
58,100,0.13636363636363635,545,0,42,DL_MelancholicFolk_Guitar,6,2,DL_MelancholicFolk_Guitar,0.2619679272174835,0
63,100,0.11818181818181818,241,1,43,DL_MelancholicFolk_Guitar,6,2,DL_MelancholicFolk_Guitar,0.9990094900131226,1
58,100,0.35909090909090907,581,1,43,DL_MelancholicFolk_Guitar,6,6,DL_MelancholicFolk_Guitar,0.2332351952791214,0
65,100,0.12272727272727273,694,0,43,DL_MelancholicFolk_Guitar,6,2,DL_MelancholicFolk_Guitar,0.27059316635131836,0
55,100,1.040909090909091,756,0,43,DL_MelancholicFolk_Guitar,6,15,DL_MelancholicFolk_Guitar,0.35792654752731323,0
55,100,0.4,364,1,44,DL_MelancholicFolk_Guitar,6,6,DL_MelancholicFolk_Guitar,0.9990280866622925,1
58,100,0.2409090909090909,606,1,44,DL_MelancholicFolk_Guitar,6,4,DL_MelancholicFolk_Guitar,0.3703402578830719,0
58,100,0.6181818181818182,836,0,44,DL_MelancholicFolk_Guitar,6,10,DL_MelancholicFolk_Guitar,0.4561620354652405,0
53,100,0.1590909090909091,101,1,45,DL_MelancholicFolk_Guitar,6,3,DL_MelancholicFolk_Guitar,0.9984879493713379,1
65,100,0.3,136,0,45,DL_MelancholicFolk_Guitar,6,5,DL_MelancholicFolk_Guitar,0.06335103511810303,0
58,100,0.1409090909090909,220,0,45,DL_MelancholicFolk_Guitar,6,2,DL_MelancholicFolk_Guitar,0.05828750506043434,0
65,100,0.740909090909091,298,0,45,DL_MelancholicFolk_Guitar,6,12,DL_MelancholicFolk_Guitar,0.06135779619216919,0
65,100,0.5227272727272727,466,0,45,DL_MelancholicFolk_Guitar,6,8,DL_MelancholicFolk_Guitar,0.07168010622262955,0
53,100,0.1590909090909091,584,0,45,DL_MelancholicFolk_Guitar,6,3,DL_MelancholicFolk_Guitar,0.0847320556640625,0
65,100,0.4818181818181818,628,0,45,DL_MelancholicFolk_Guitar,6,8,DL_MelancholicFolk_Guitar,0.12634478509426117,0
60,100,0.8772727272727273,8,1,46,DL_MelancholicFolk_Guitar,6,14,DL_MelancholicFolk_Guitar,0.9990280866622925,1
60,100,0.5818181818181818,373,1,46,DL_MelancholicFolk_Guitar,6,9,DL_MelancholicFolk_Guitar,0.37033993005752563,0
53,100,0.4,515,0,46,DL_MelancholicFolk_Guitar,6,6,DL_MelancholicFolk_Guitar,0.4561603367328644,0
58,100,0.12272727272727273,276,1,47,DL_MelancholicFolk_Guitar,6,2,DL_MelancholicFolk_Guitar,0.9983232617378235,1
65,100,0.16363636363636364,774,1,47,DL_MelancholicFolk_Guitar,6,3,DL_MelancholicFolk_Guitar,0.5462173223495483,1
58,100,0.6227272727272727,48,1,48,DL_MelancholicFolk_Guitar,6,10,DL_MelancholicFolk_Guitar,0.9986506104469299,1
53,100,0.4,188,0,48,DL_MelancholicFolk_Guitar,6,6,DL_MelancholicFolk_Guitar,0.08798030018806458,0
60,100,0.5,413,0,48,DL_MelancholicFolk_Guitar,6,8,DL_MelancholicFolk_Guitar,0.09298638999462128,0
53,100,0.2772727272727273,603,0,48,DL_MelancholicFolk_Guitar,6,4,DL_MelancholicFolk_Guitar,0.10994932800531387,0
53,100,0.2,668,0,48,DL_MelancholicFolk_Guitar,6,3,DL_MelancholicFolk_Guitar,0.12867261469364166,0
65,100,0.12272727272727273,716,0,48,DL_MelancholicFolk_Guitar,6,2,DL_MelancholicFolk_Guitar,0.1822185069322586,0
65,100,0.21818181818181817,40,1,49,DL_MelancholicFolk_Guitar,6,3,DL_MelancholicFolk_Guitar,0.9983735084533691,1
53,100,0.8181818181818182,96,0,49,DL_MelancholicFolk_Guitar,6,13,DL_MelancholicFolk_Guitar,0.05104810371994972,0
65,100,0.11818181818181818,281,0,49,DL_MelancholicFolk_Guitar,6,2,DL_MelancholicFolk_Guitar,0.04161173477768898,0
53,100,0.4409090909090909,351,0,49,DL_MelancholicFolk_Guitar,6,7,DL_MelancholicFolk_Guitar,0.03797808289527893,0
53,100,0.23636363636363636,458,0,49,DL_MelancholicFolk_Guitar,6,4,DL_MelancholicFolk_Guitar,0.03925873339176178,0
65,100,0.12272727272727273,509,0,49,DL_MelancholicFolk_Guitar,6,2,DL_MelancholicFolk_Guitar,0.04616319015622139,0
58,100,0.35909090909090907,651,0,49,DL_MelancholicFolk_Guitar,6,6,DL_MelancholicFolk_Guitar,0.05712856724858284,0
65,100,0.1409090909090909,791,0,49,DL_MelancholicFolk_Guitar,6,2,DL_MelancholicFolk_Guitar,0.0918726846575737,0
58,100,0.5409090909090909,716,1,50,DL_MelancholicFolk_Guitar,6,9,DL_MelancholicFolk_Guitar,0.9983231425285339,1
53,100,0.1409090909090909,858,0,50,DL_MelancholicFolk_Guitar,6,2,DL_MelancholicFolk_Guitar,0.5462137460708618,1
58,100,0.17727272727272728,8,1,51,DL_MelancholicFolk_Guitar,6,3,DL_MelancholicFolk_Guitar,0.9986506104469299,1
53,100,0.2,48,0,51,DL_MelancholicFolk_Guitar,6,3,DL_MelancholicFolk_Guitar,0.08797778189182281,0
58,100,0.11818181818181818,96,0,51,DL_MelancholicFolk_Guitar,6,2,DL_MelancholicFolk_Guitar,0.09298181533813477,0
53,100,0.21818181818181817,448,1,51,DL_MelancholicFolk_Guitar,6,3,DL_MelancholicFolk_Guitar,0.10994723439216614,0
53,100,0.17727272727272728,523,0,51,DL_MelancholicFolk_Guitar,6,3,DL_MelancholicFolk_Guitar,0.12866751849651337,0
53,100,0.35909090909090907,568,0,51,DL_MelancholicFolk_Guitar,6,6,DL_MelancholicFolk_Guitar,0.1822170615196228,0
62,100,0.1590909090909091,153,1,52,DL_MelancholicFolk_Guitar,6,3,DL_MelancholicFolk_Guitar,0.9990094900131226,1
60,100,0.12272727272727273,268,0,52,DL_MelancholicFolk_Guitar,6,2,DL_MelancholicFolk_Guitar,0.23323309421539307,0
62,100,0.18181818181818182,466,0,52,DL_MelancholicFolk_Guitar,6,3,DL_MelancholicFolk_Guitar,0.2705835700035095,0
60,100,0.5409090909090909,598,0,52,DL_MelancholicFolk_Guitar,6,9,DL_MelancholicFolk_Guitar,0.3579378128051758,0
65,100,0.21818181818181817,96,1,53,DL_MelancholicFolk_Guitar,6,3,DL_MelancholicFolk_Guitar,0.9986506104469299,1
53,100,0.18181818181818182,224,0,53,DL_MelancholicFolk_Guitar,6,3,DL_MelancholicFolk_Guitar,0.08797957003116608,0
65,100,0.1,263,0,53,DL_MelancholicFolk_Guitar,6,2,DL_MelancholicFolk_Guitar,0.09298277646303177,0
65,100,0.2,399,0,53,DL_MelancholicFolk_Guitar,6,3,DL_MelancholicFolk_Guitar,0.10994655638933182,0
65,100,0.21818181818181817,515,0,53,DL_MelancholicFolk_Guitar,6,3,DL_MelancholicFolk_Guitar,0.12866738438606262,0
65,100,0.8227272727272728,619,0,53,DL_MelancholicFolk_Guitar,6,13,DL_MelancholicFolk_Guitar,0.18220733106136322,0
65,100,0.2818181818181818,0,1,54,DL_MelancholicFolk_Guitar,6,5,DL_MelancholicFolk_Guitar,0.9983004927635193,1
53,100,0.16363636363636364,69,0,54,DL_MelancholicFolk_Guitar,6,3,DL_MelancholicFolk_Guitar,0.04466109350323677,0
65,100,0.21818181818181817,141,0,54,DL_MelancholicFolk_Guitar,6,3,DL_MelancholicFolk_Guitar,0.03337061032652855,0
53,100,0.7181818181818181,215,0,54,DL_MelancholicFolk_Guitar,6,11,DL_MelancholicFolk_Guitar,0.026946695521473885,0
53,100,0.37727272727272726,391,0,54,DL_MelancholicFolk_Guitar,6,6,DL_MelancholicFolk_Guitar,0.024082696065306664,0
53,100,0.2590909090909091,501,0,54,DL_MelancholicFolk_Guitar,6,4,DL_MelancholicFolk_Guitar,0.024971336126327515,0
60,100,0.1409090909090909,606,0,54,DL_MelancholicFolk_Guitar,6,2,DL_MelancholicFolk_Guitar,0.03064665012061596,0
55,100,0.1409090909090909,735,0,54,DL_MelancholicFolk_Guitar,6,2,DL_MelancholicFolk_Guitar,0.0413668267428875,0
65,100,0.11818181818181818,823,0,54,DL_MelancholicFolk_Guitar,6,2,DL_MelancholicFolk_Guitar,0.07206738740205765,0
65,100,0.6772727272727272,171,1,55,DL_MelancholicFolk_Guitar,6,11,DL_MelancholicFolk_Guitar,0.9990280866622925,1
55,100,0.2590909090909091,338,0,55,DL_MelancholicFolk_Guitar,6,4,DL_MelancholicFolk_Guitar,0.3703445494174957,0
55,100,0.21818181818181817,413,0,55,DL_MelancholicFolk_Guitar,6,3,DL_MelancholicFolk_Guitar,0.4561682641506195,0
53,100,0.17727272727272728,75,1,56,DL_MelancholicFolk_Guitar,6,3,DL_MelancholicFolk_Guitar,0.9986506104469299,1
58,100,0.2,114,0,56,DL_MelancholicFolk_Guitar,6,3,DL_MelancholicFolk_Guitar,0.08798125386238098,0
58,100,0.18181818181818182,179,0,56,DL_MelancholicFolk_Guitar,6,3,DL_MelancholicFolk_Guitar,0.09298406541347504,0
58,100,0.18181818181818182,483,1,56,DL_MelancholicFolk_Guitar,6,3,DL_MelancholicFolk_Guitar,0.10994988679885864,0
65,100,0.21818181818181817,616,0,56,DL_MelancholicFolk_Guitar,6,3,DL_MelancholicFolk_Guitar,0.12866754829883575,0
65,100,0.1409090909090909,845,0,56,DL_MelancholicFolk_Guitar,6,2,DL_MelancholicFolk_Guitar,0.18221691250801086,0
60,100,0.41818181818181815,8,1,57,DL_MelancholicFolk_Guitar,6,7,DL_MelancholicFolk_Guitar,0.9990094900131226,1
65,100,0.12272727272727273,334,1,57,DL_MelancholicFolk_Guitar,6,2,DL_MelancholicFolk_Guitar,0.2332245111465454,0
53,100,0.3,488,0,57,DL_MelancholicFolk_Guitar,6,5,DL_MelancholicFolk_Guitar,0.27057504653930664,0
60,100,0.1409090909090909,593,0,57,DL_MelancholicFolk_Guitar,6,2,DL_MelancholicFolk_Guitar,0.35792335867881775,0
65,100,0.2409090909090909,91,1,58,DL_MelancholicFolk_Guitar,6,4,DL_MelancholicFolk_Guitar,0.9990094900131226,1
65,100,0.11818181818181818,163,0,58,DL_MelancholicFolk_Guitar,6,2,DL_MelancholicFolk_Guitar,0.2332340031862259,0
62,100,0.21818181818181817,325,0,58,DL_MelancholicFolk_Guitar,6,3,DL_MelancholicFolk_Guitar,0.2705884873867035,0
60,100,1.440909090909091,418,0,58,DL_MelancholicFolk_Guitar,6,15,DL_MelancholicFolk_Guitar,0.35793355107307434,0
65,100,0.18181818181818182,123,1,59,DL_MelancholicFolk_Guitar,6,3,DL_MelancholicFolk_Guitar,0.9983231425285339,1
58,100,0.2818181818181818,751,1,59,DL_MelancholicFolk_Guitar,6,5,DL_MelancholicFolk_Guitar,0.5462209582328796,1
60,100,0.11818181818181818,21,1,60,DL_MelancholicFolk_Guitar,6,2,DL_MelancholicFolk_Guitar,0.9983735084533691,1
53,100,0.1,91,0,60,DL_MelancholicFolk_Guitar,6,2,DL_MelancholicFolk_Guitar,0.05104820802807808,0
53,100,0.1409090909090909,131,0,60,DL_MelancholicFolk_Guitar,6,2,DL_MelancholicFolk_Guitar,0.04161040857434273,0
60,100,0.4,176,0,60,DL_MelancholicFolk_Guitar,6,6,DL_MelancholicFolk_Guitar,0.037977855652570724,0
53,100,0.1590909090909091,263,0,60,DL_MelancholicFolk_Guitar,6,3,DL_MelancholicFolk_Guitar,0.03925801441073418,0
53,100,0.21818181818181817,330,0,60,DL_MelancholicFolk_Guitar,6,3,DL_MelancholicFolk_Guitar,0.04616277292370796,0
53,100,0.1590909090909091,426,0,60,DL_MelancholicFolk_Guitar,6,3,DL_MelancholicFolk_Guitar,0.05712942034006119,0
55,100,0.41818181818181815,646,0,60,DL_MelancholicFolk_Guitar,6,7,DL_MelancholicFolk_Guitar,0.0918738842010498,0
58,100,0.12272727272727273,246,1,61,DL_MelancholicFolk_Guitar,6,2,DL_MelancholicFolk_Guitar,0.9990094900131226,1
60,100,0.5409090909090909,541,1,61,DL_MelancholicFolk_Guitar,6,9,DL_MelancholicFolk_Guitar,0.23323467373847961,0
60,100,0.7636363636363637,664,0,61,DL_MelancholicFolk_Guitar,6,12,DL_MelancholicFolk_Guitar,0.2705923616886139,0
53,100,0.16363636363636364,839,0,61,DL_MelancholicFolk_Guitar,6,3,DL_MelancholicFolk_Guitar,0.35792413353919983,0
57,100,0.17727272727272728,61,1,62,DL_MelancholicFolk_Guitar,6,3,DL_MelancholicFolk_Guitar,0.9990280866622925,1
58,100,0.11818181818181818,418,1,62,DL_MelancholicFolk_Guitar,6,2,DL_MelancholicFolk_Guitar,0.3703419864177704,0
58,100,0.2,853,1,62,DL_MelancholicFolk_Guitar,6,3,DL_MelancholicFolk_Guitar,0.4561709463596344,0
65,100,0.18181818181818182,408,1,63,DL_MelancholicFolk_Guitar,6,3,DL_MelancholicFolk_Guitar,0.9983231425285339,1
53,100,0.16363636363636364,509,0,63,DL_MelancholicFolk_Guitar,6,3,DL_MelancholicFolk_Guitar,0.5462132692337036,1
53,100,0.1590909090909091,286,1,64,DL_MelancholicFolk_Guitar,6,3,DL_MelancholicFolk_Guitar,0.9984879493713379,1
65,100,0.11818181818181818,370,0,64,DL_MelancholicFolk_Guitar,6,2,DL_MelancholicFolk_Guitar,0.0633532702922821,0
65,100,0.11818181818181818,413,0,64,DL_MelancholicFolk_Guitar,6,2,DL_MelancholicFolk_Guitar,0.05828831344842911,0
53,100,0.1409090909090909,440,0,64,DL_MelancholicFolk_Guitar,6,2,DL_MelancholicFolk_Guitar,0.06136270612478256,0
60,100,0.4,502,0,64,DL_MelancholicFolk_Guitar,6,6,DL_MelancholicFolk_Guitar,0.07168316841125488,0
53,100,0.35909090909090907,760,1,64,DL_MelancholicFolk_Guitar,6,6,DL_MelancholicFolk_Guitar,0.0847364068031311,0
65,100,0.18181818181818182,839,0,64,DL_MelancholicFolk_Guitar,6,3,DL_MelancholicFolk_Guitar,0.12634925544261932,0
58,100,0.35909090909090907,760,1,65,DL_MelancholicFolk_Guitar,6,6,DL_MelancholicFolk_Guitar,0.9983232617378235,1
58,100,0.16363636363636364,862,0,65,DL_MelancholicFolk_Guitar,6,3,DL_MelancholicFolk_Guitar,0.5462173819541931,1
58,100,0.7,106,1,66,DL_MelancholicFolk_Guitar,6,11,DL_MelancholicFolk_Guitar,0.9990094900131226,1
63,100,0.18181818181818182,333,0,66,DL_MelancholicFolk_Guitar,6,3,DL_MelancholicFolk_Guitar,0.23322170972824097,0
53,100,0.17727272727272728,436,0,66,DL_MelancholicFolk_Guitar,6,3,DL_MelancholicFolk_Guitar,0.2705824673175812,0
53,100,0.2590909090909091,519,0,66,DL_MelancholicFolk_Guitar,6,4,DL_MelancholicFolk_Guitar,0.3579234182834625,0
53,100,0.2,127,1,67,DL_MelancholicFolk_Guitar,6,3,DL_MelancholicFolk_Guitar,0.9990094900131226,1
65,100,0.13636363636363635,172,0,67,DL_MelancholicFolk_Guitar,6,2,DL_MelancholicFolk_Guitar,0.2332288920879364,0
53,100,0.12272727272727273,202,0,67,DL_MelancholicFolk_Guitar,6,2,DL_MelancholicFolk_Guitar,0.27057579159736633,0
53,100,0.8409090909090909,862,1,67,DL_MelancholicFolk_Guitar,6,13,DL_MelancholicFolk_Guitar,0.3579213321208954,0
65,100,0.11818181818181818,193,1,68,DL_MelancholicFolk_Guitar,6,2,DL_MelancholicFolk_Guitar,0.9988439083099365,1
65,100,0.2636363636363636,223,0,68,DL_MelancholicFolk_Guitar,6,4,DL_MelancholicFolk_Guitar,0.1379798948764801,0
65,100,0.2,286,0,68,DL_MelancholicFolk_Guitar,6,3,DL_MelancholicFolk_Guitar,0.16236451268196106,0
65,100,0.1,399,0,68,DL_MelancholicFolk_Guitar,6,2,DL_MelancholicFolk_Guitar,0.1910536289215088,0
65,100,1.2227272727272727,487,0,68,DL_MelancholicFolk_Guitar,6,15,DL_MelancholicFolk_Guitar,0.2619551718235016,0
65,100,1.0772727272727274,140,1,69,DL_MelancholicFolk_Guitar,6,15,DL_MelancholicFolk_Guitar,0.9983231425285339,1
58,100,0.1590909090909091,493,1,69,DL_MelancholicFolk_Guitar,6,3,DL_MelancholicFolk_Guitar,0.5462191104888916,1
65,100,0.12272727272727273,320,1,70,DL_MelancholicFolk_Guitar,6,2,DL_MelancholicFolk_Guitar,0.9988439083099365,1
65,100,0.1590909090909091,352,0,70,DL_MelancholicFolk_Guitar,6,3,DL_MelancholicFolk_Guitar,0.1379784345626831,0
65,100,0.2818181818181818,409,0,70,DL_MelancholicFolk_Guitar,6,5,DL_MelancholicFolk_Guitar,0.16236568987369537,0
58,100,1.3772727272727272,470,0,70,DL_MelancholicFolk_Guitar,6,15,DL_MelancholicFolk_Guitar,0.19105149805545807,0
60,100,1.518181818181818,787,1,70,DL_MelancholicFolk_Guitar,6,15,DL_MelancholicFolk_Guitar,0.26196303963661194,0
65,100,0.6,276,1,71,DL_MelancholicFolk_Guitar,6,10,DL_MelancholicFolk_Guitar,0.9990280866622925,1
65,100,0.6,430,0,71,DL_MelancholicFolk_Guitar,6,10,DL_MelancholicFolk_Guitar,0.3703405261039734,0
65,100,1.3636363636363635,576,0,71,DL_MelancholicFolk_Guitar,6,15,DL_MelancholicFolk_Guitar,0.45617061853408813,0
60,100,1.3,0,1,72,DL_MelancholicFolk_Guitar,6,15,DL_MelancholicFolk_Guitar,0.9990280866622925,1
58,100,1.2227272727272727,333,1,72,DL_MelancholicFolk_Guitar,6,15,DL_MelancholicFolk_Guitar,0.37032896280288696,0
55,100,0.1,663,1,72,DL_MelancholicFolk_Guitar,6,2,DL_MelancholicFolk_Guitar,0.45616427063941956,0
62,100,1.518181818181818,83,1,73,DL_MelancholicFolk_Guitar,6,15,DL_MelancholicFolk_Guitar,0.9990094900131226,1
55,100,0.7,426,1,73,DL_MelancholicFolk_Guitar,6,11,DL_MelancholicFolk_Guitar,0.23323635756969452,0
65,100,0.2,663,1,73,DL_MelancholicFolk_Guitar,6,3,DL_MelancholicFolk_Guitar,0.27058371901512146,0
53,100,1.518181818181818,722,0,73,DL_MelancholicFolk_Guitar,6,15,DL_MelancholicFolk_Guitar,0.35792097449302673,0
60,100,0.759090909090909,286,1,74,DL_MelancholicFolk_Guitar,6,12,DL_MelancholicFolk_Guitar,0.9988439083099365,1
69,100,0.1590909090909091,496,0,74,DL_MelancholicFolk_Guitar,6,3,DL_MelancholicFolk_Guitar,0.13798204064369202,0
57,100,0.5181818181818182,546,0,74,DL_MelancholicFolk_Guitar,6,8,DL_MelancholicFolk_Guitar,0.16235989332199097,0
57,100,0.5227272727272727,695,0,74,DL_MelancholicFolk_Guitar,6,8,DL_MelancholicFolk_Guitar,0.19105564057826996,0
65,100,0.759090909090909,813,0,74,DL_MelancholicFolk_Guitar,6,12,DL_MelancholicFolk_Guitar,0.2619587481021881,0
65,100,0.18181818181818182,220,1,75,DL_MelancholicFolk_Guitar,6,3,DL_MelancholicFolk_Guitar,0.9983231425285339,1
65,100,1.018181818181818,580,1,75,DL_MelancholicFolk_Guitar,6,15,DL_MelancholicFolk_Guitar,0.546209990978241,1
53,100,0.759090909090909,30,1,76,DL_MelancholicFolk_Guitar,6,12,DL_MelancholicFolk_Guitar,0.9988439083099365,1
60,100,0.1409090909090909,316,1,76,DL_MelancholicFolk_Guitar,6,2,DL_MelancholicFolk_Guitar,0.13798151910305023,0
65,100,0.2590909090909091,392,0,76,DL_MelancholicFolk_Guitar,6,4,DL_MelancholicFolk_Guitar,0.16235974431037903,0
65,100,0.1409090909090909,453,0,76,DL_MelancholicFolk_Guitar,6,2,DL_MelancholicFolk_Guitar,0.19105663895606995,0
58,100,0.8181818181818182,514,0,76,DL_MelancholicFolk_Guitar,6,13,DL_MelancholicFolk_Guitar,0.26196348667144775,0
60,100,0.2,119,1,77,DL_MelancholicFolk_Guitar,6,3,DL_MelancholicFolk_Guitar,0.9988439083099365,1
60,100,0.17727272727272728,229,0,77,DL_MelancholicFolk_Guitar,6,3,DL_MelancholicFolk_Guitar,0.1379861831665039,0
60,100,0.5590909090909091,307,0,77,DL_MelancholicFolk_Guitar,6,9,DL_MelancholicFolk_Guitar,0.16236957907676697,0
55,100,1.3590909090909091,449,0,77,DL_MelancholicFolk_Guitar,6,15,DL_MelancholicFolk_Guitar,0.19105443358421326,0
65,100,0.6818181818181818,760,1,77,DL_MelancholicFolk_Guitar,6,11,DL_MelancholicFolk_Guitar,0.26196223497390747,0
65,100,0.7,35,1,78,DL_MelancholicFolk_Guitar,6,11,DL_MelancholicFolk_Guitar,0.9990094900131226,1
65,100,0.7363636363636363,523,1,78,DL_MelancholicFolk_Guitar,6,12,DL_MelancholicFolk_Guitar,0.23323337733745575,0
58,100,0.38181818181818183,752,0,78,DL_MelancholicFolk_Guitar,6,6,DL_MelancholicFolk_Guitar,0.27058619260787964,0
53,100,0.759090909090909,849,0,78,DL_MelancholicFolk_Guitar,6,12,DL_MelancholicFolk_Guitar,0.35792291164398193,0
65,100,0.4,282,1,79,DL_MelancholicFolk_Guitar,6,6,DL_MelancholicFolk_Guitar,0.9990094900131226,1
60,100,0.2818181818181818,386,0,79,DL_MelancholicFolk_Guitar,6,5,DL_MelancholicFolk_Guitar,0.2332361340522766,0
58,100,0.4,509,0,79,DL_MelancholicFolk_Guitar,6,6,DL_MelancholicFolk_Guitar,0.27058035135269165,0
65,100,0.18181818181818182,597,0,79,DL_MelancholicFolk_Guitar,6,3,DL_MelancholicFolk_Guitar,0.3579277992248535,0
65,100,0.21818181818181817,163,1,80,DL_MelancholicFolk_Guitar,6,3,DL_MelancholicFolk_Guitar,0.9990094900131226,1
58,100,0.2,440,1,80,DL_MelancholicFolk_Guitar,6,3,DL_MelancholicFolk_Guitar,0.23323789238929749,0
58,100,0.18181818181818182,519,0,80,DL_MelancholicFolk_Guitar,6,3,DL_MelancholicFolk_Guitar,0.27058282494544983,0
60,100,1.1409090909090909,703,0,80,DL_MelancholicFolk_Guitar,6,15,DL_MelancholicFolk_Guitar,0.35792243480682373,0
63,100,0.11818181818181818,660,1,81,DL_MelancholicFolk_Guitar,6,2,DL_MelancholicFolk_Guitar,0.9990094900131226,1
63,100,0.1,690,0,81,DL_MelancholicFolk_Guitar,6,2,DL_MelancholicFolk_Guitar,0.2332247644662857,0
53,100,0.35909090909090907,770,0,81,DL_MelancholicFolk_Guitar,6,6,DL_MelancholicFolk_Guitar,0.27058327198028564,0
53,100,0.12272727272727273,862,0,81,DL_MelancholicFolk_Guitar,6,2,DL_MelancholicFolk_Guitar,0.35792842507362366,0
53,100,0.5772727272727273,30,1,82,DL_MelancholicFolk_Guitar,6,9,DL_MelancholicFolk_Guitar,0.9983735084533691,1
53,100,0.21818181818181817,163,0,82,DL_MelancholicFolk_Guitar,6,3,DL_MelancholicFolk_Guitar,0.051049474626779556,0
60,100,0.5227272727272727,299,0,82,DL_MelancholicFolk_Guitar,6,8,DL_MelancholicFolk_Guitar,0.041612815111875534,0
60,100,0.36363636363636365,443,0,82,DL_MelancholicFolk_Guitar,6,6,DL_MelancholicFolk_Guitar,0.03798067569732666,0
53,100,0.2409090909090909,540,0,82,DL_MelancholicFolk_Guitar,6,4,DL_MelancholicFolk_Guitar,0.039260029792785645,0
58,100,0.2590909090909091,743,0,82,DL_MelancholicFolk_Guitar,6,4,DL_MelancholicFolk_Guitar,0.046166278421878815,0
58,100,0.18181818181818182,805,0,82,DL_MelancholicFolk_Guitar,6,3,DL_MelancholicFolk_Guitar,0.05713338032364845,0
53,100,0.7,857,0,82,DL_MelancholicFolk_Guitar,6,11,DL_MelancholicFolk_Guitar,0.09187745302915573,0
58,100,0.1,193,1,83,DL_MelancholicFolk_Guitar,6,2,DL_MelancholicFolk_Guitar,0.9990094900131226,1
65,100,0.759090909090909,453,1,83,DL_MelancholicFolk_Guitar,6,12,DL_MelancholicFolk_Guitar,0.2332281917333603,0
62,100,0.1409090909090909,800,1,83,DL_MelancholicFolk_Guitar,6,2,DL_MelancholicFolk_Guitar,0.27058741450309753,0
65,100,0.38181818181818183,849,0,83,DL_MelancholicFolk_Guitar,6,6,DL_MelancholicFolk_Guitar,0.35793179273605347,0
58,100,0.3,330,1,84,DL_MelancholicFolk_Guitar,6,5,DL_MelancholicFolk_Guitar,0.9990094900131226,1
58,100,0.5181818181818182,502,0,84,DL_MelancholicFolk_Guitar,6,8,DL_MelancholicFolk_Guitar,0.23323047161102295,0
58,100,0.2590909090909091,637,0,84,DL_MelancholicFolk_Guitar,6,4,DL_MelancholicFolk_Guitar,0.2705807387828827,0
53,100,0.5818181818181818,726,0,84,DL_MelancholicFolk_Guitar,6,9,DL_MelancholicFolk_Guitar,0.3579208254814148,0
60,100,0.2590909090909091,30,1,85,DL_MelancholicFolk_Guitar,6,4,DL_MelancholicFolk_Guitar,0.9984880685806274,1
60,100,0.12272727272727273,100,0,85,DL_MelancholicFolk_Guitar,6,2,DL_MelancholicFolk_Guitar,0.06335385143756866,0
57,100,0.4818181818181818,166,0,85,DL_MelancholicFolk_Guitar,6,8,DL_MelancholicFolk_Guitar,0.05828770622611046,0
53,100,0.37727272727272726,316,0,85,DL_MelancholicFolk_Guitar,6,6,DL_MelancholicFolk_Guitar,0.06136106327176094,0
60,100,0.1590909090909091,417,0,85,DL_MelancholicFolk_Guitar,6,3,DL_MelancholicFolk_Guitar,0.07168310135602951,0
53,100,0.2409090909090909,470,0,85,DL_MelancholicFolk_Guitar,6,4,DL_MelancholicFolk_Guitar,0.08473337441682816,0
58,100,0.8818181818181818,817,1,85,DL_MelancholicFolk_Guitar,6,14,DL_MelancholicFolk_Guitar,0.12635040283203125,0
53,100,0.32272727272727275,136,1,86,DL_MelancholicFolk_Guitar,6,5,DL_MelancholicFolk_Guitar,0.9982556700706482,1
55,100,0.3181818181818182,220,0,86,DL_MelancholicFolk_Guitar,6,5,DL_MelancholicFolk_Guitar,0.04129261523485184,0
58,100,0.2409090909090909,339,0,86,DL_MelancholicFolk_Guitar,6,4,DL_MelancholicFolk_Guitar,0.02912498451769352,0
65,100,0.18181818181818182,509,0,86,DL_MelancholicFolk_Guitar,6,3,DL_MelancholicFolk_Guitar,0.021568110212683678,0
53,100,0.1409090909090909,550,0,86,DL_MelancholicFolk_Guitar,6,2,DL_MelancholicFolk_Guitar,0.017058152705430984,0
58,100,0.4590909090909091,612,0,86,DL_MelancholicFolk_Guitar,6,7,DL_MelancholicFolk_Guitar,0.01526743546128273,0
65,100,0.3181818181818182,713,0,86,DL_MelancholicFolk_Guitar,6,5,DL_MelancholicFolk_Guitar,0.016455020755529404,0
58,100,0.13636363636363635,810,0,86,DL_MelancholicFolk_Guitar,6,2,DL_MelancholicFolk_Guitar,0.02183554135262966,0
58,100,0.1,844,0,86,DL_MelancholicFolk_Guitar,6,2,DL_MelancholicFolk_Guitar,0.0325155146420002,0
65,100,0.11818181818181818,866,0,86,DL_MelancholicFolk_Guitar,6,2,DL_MelancholicFolk_Guitar,0.06091023236513138,0
58,100,0.6409090909090909,119,1,87,DL_MelancholicFolk_Guitar,6,10,DL_MelancholicFolk_Guitar,0.9990280866622925,1
53,100,0.759090909090909,633,1,87,DL_MelancholicFolk_Guitar,6,12,DL_MelancholicFolk_Guitar,0.37033212184906006,0
60,100,0.6772727272727272,810,0,87,DL_MelancholicFolk_Guitar,6,11,DL_MelancholicFolk_Guitar,0.4561648666858673,0
57,100,0.2,87,1,88,DL_MelancholicFolk_Guitar,6,3,DL_MelancholicFolk_Guitar,0.9984879493713379,1
57,100,0.37727272727272726,140,0,88,DL_MelancholicFolk_Guitar,6,6,DL_MelancholicFolk_Guitar,0.06335210800170898,0
60,100,0.12272727272727273,223,0,88,DL_MelancholicFolk_Guitar,6,2,DL_MelancholicFolk_Guitar,0.05828828364610672,0
60,100,0.5772727272727273,273,0,88,DL_MelancholicFolk_Guitar,6,9,DL_MelancholicFolk_Guitar,0.06136131286621094,0
53,100,0.7227272727272728,399,0,88,DL_MelancholicFolk_Guitar,6,12,DL_MelancholicFolk_Guitar,0.07168059796094894,0
53,100,0.759090909090909,624,0,88,DL_MelancholicFolk_Guitar,6,12,DL_MelancholicFolk_Guitar,0.08473222702741623,0
58,100,0.2772727272727273,832,0,88,DL_MelancholicFolk_Guitar,6,4,DL_MelancholicFolk_Guitar,0.12635089457035065,0
53,100,0.38181818181818183,22,1,89,DL_MelancholicFolk_Guitar,6,6,DL_MelancholicFolk_Guitar,0.9983735084533691,1
58,100,0.2409090909090909,140,0,89,DL_MelancholicFolk_Guitar,6,4,DL_MelancholicFolk_Guitar,0.05105038732290268,0
60,100,0.4,250,0,89,DL_MelancholicFolk_Guitar,6,6,DL_MelancholicFolk_Guitar,0.041612062603235245,0
58,100,0.18181818181818182,343,0,89,DL_MelancholicFolk_Guitar,6,3,DL_MelancholicFolk_Guitar,0.037978921085596085,0
58,100,0.5,386,0,89,DL_MelancholicFolk_Guitar,6,8,DL_MelancholicFolk_Guitar,0.03925914689898491,0
60,100,0.1409090909090909,559,0,89,DL_MelancholicFolk_Guitar,6,2,DL_MelancholicFolk_Guitar,0.04616367444396019,0
60,100,0.9818181818181818,637,0,89,DL_MelancholicFolk_Guitar,6,15,DL_MelancholicFolk_Guitar,0.05712852254509926,0
60,100,0.5590909090909091,866,0,89,DL_MelancholicFolk_Guitar,6,9,DL_MelancholicFolk_Guitar,0.09187965095043182,0
53,100,0.33636363636363636,260,1,90,DL_MelancholicFolk_Guitar,6,5,DL_MelancholicFolk_Guitar,0.9984879493713379,1
57,100,0.6181818181818182,436,0,90,DL_MelancholicFolk_Guitar,6,10,DL_MelancholicFolk_Guitar,0.06335163116455078,0
53,100,0.22272727272727272,585,0,90,DL_MelancholicFolk_Guitar,6,4,DL_MelancholicFolk_Guitar,0.058286964893341064,0
53,100,0.3,660,0,90,DL_MelancholicFolk_Guitar,6,5,DL_MelancholicFolk_Guitar,0.06135845556855202,0
60,100,0.11818181818181818,726,0,90,DL_MelancholicFolk_Guitar,6,2,DL_MelancholicFolk_Guitar,0.07167872041463852,0
53,100,0.1,770,0,90,DL_MelancholicFolk_Guitar,6,2,DL_MelancholicFolk_Guitar,0.08472930639982224,0
60,100,0.16363636363636364,862,0,90,DL_MelancholicFolk_Guitar,6,3,DL_MelancholicFolk_Guitar,0.12634649872779846,0
60,100,0.5636363636363636,26,1,91,DL_MelancholicFolk_Guitar,6,9,DL_MelancholicFolk_Guitar,0.9983735084533691,1
60,100,0.1,153,0,91,DL_MelancholicFolk_Guitar,6,2,DL_MelancholicFolk_Guitar,0.05104915052652359,0
53,100,0.1409090909090909,286,0,91,DL_MelancholicFolk_Guitar,6,2,DL_MelancholicFolk_Guitar,0.04161081835627556,0
58,100,0.5181818181818182,396,0,91,DL_MelancholicFolk_Guitar,6,8,DL_MelancholicFolk_Guitar,0.03797707334160805,0
58,100,0.12272727272727273,576,0,91,DL_MelancholicFolk_Guitar,6,2,DL_MelancholicFolk_Guitar,0.03925783559679985,0
58,100,0.32272727272727275,606,0,91,DL_MelancholicFolk_Guitar,6,5,DL_MelancholicFolk_Guitar,0.0461612194776535,0
53,100,0.13636363636363635,677,0,91,DL_MelancholicFolk_Guitar,6,2,DL_MelancholicFolk_Guitar,0.057127222418785095,0
58,100,0.2,707,0,91,DL_MelancholicFolk_Guitar,6,3,DL_MelancholicFolk_Guitar,0.0918751135468483,0
58,100,0.2590909090909091,96,1,92,DL_MelancholicFolk_Guitar,6,4,DL_MelancholicFolk_Guitar,0.9984879493713379,1
58,100,0.2,202,0,92,DL_MelancholicFolk_Guitar,6,3,DL_MelancholicFolk_Guitar,0.06335309892892838,0
53,100,0.1,440,1,92,DL_MelancholicFolk_Guitar,6,2,DL_MelancholicFolk_Guitar,0.058288611471652985,0
65,100,0.3181818181818182,462,0,92,DL_MelancholicFolk_Guitar,6,5,DL_MelancholicFolk_Guitar,0.06136009469628334,0
53,100,0.1,593,0,92,DL_MelancholicFolk_Guitar,6,2,DL_MelancholicFolk_Guitar,0.07168121635913849,0
65,100,0.17727272727272728,624,0,92,DL_MelancholicFolk_Guitar,6,3,DL_MelancholicFolk_Guitar,0.08473531901836395,0
57,100,0.3,783,0,92,DL_MelancholicFolk_Guitar,6,5,DL_MelancholicFolk_Guitar,0.12634706497192383,0
53,100,0.6,179,1,93,DL_MelancholicFolk_Guitar,6,10,DL_MelancholicFolk_Guitar,0.9988439083099365,1
65,100,0.4409090909090909,312,0,93,DL_MelancholicFolk_Guitar,6,7,DL_MelancholicFolk_Guitar,0.13797950744628906,0
57,100,0.3409090909090909,453,0,93,DL_MelancholicFolk_Guitar,6,5,DL_MelancholicFolk_Guitar,0.16236135363578796,0
57,100,0.3409090909090909,559,0,93,DL_MelancholicFolk_Guitar,6,5,DL_MelancholicFolk_Guitar,0.19105061888694763,0
60,100,0.9181818181818182,633,0,93,DL_MelancholicFolk_Guitar,6,15,DL_MelancholicFolk_Guitar,0.26196715235710144,0
53,100,0.18181818181818182,113,1,94,DL_MelancholicFolk_Guitar,6,3,DL_MelancholicFolk_Guitar,0.9988439083099365,1
65,100,0.2772727272727273,163,0,94,DL_MelancholicFolk_Guitar,6,4,DL_MelancholicFolk_Guitar,0.13797937333583832,0
65,100,0.11818181818181818,237,0,94,DL_MelancholicFolk_Guitar,6,2,DL_MelancholicFolk_Guitar,0.16236461699008942,0
53,100,0.11818181818181818,603,1,94,DL_MelancholicFolk_Guitar,6,2,DL_MelancholicFolk_Guitar,0.1910516917705536,0
65,100,0.2590909090909091,633,0,94,DL_MelancholicFolk_Guitar,6,4,DL_MelancholicFolk_Guitar,0.26196688413619995,0
65,100,0.3,440,1,95,DL_MelancholicFolk_Guitar,6,5,DL_MelancholicFolk_Guitar,0.9990094900131226,1
53,100,0.38181818181818183,540,0,95,DL_MelancholicFolk_Guitar,6,6,DL_MelancholicFolk_Guitar,0.23322749137878418,0
53,100,0.2,663,0,95,DL_MelancholicFolk_Guitar,6,3,DL_MelancholicFolk_Guitar,0.2705751061439514,0
60,100,0.9636363636363636,796,0,95,DL_MelancholicFolk_Guitar,6,15,DL_MelancholicFolk_Guitar,0.3579231798648834,0
53,100,0.9,166,1,96,DL_MelancholicFolk_Guitar,6,14,DL_MelancholicFolk_Guitar,0.9990280866622925,1
60,100,0.2772727272727273,404,1,96,DL_MelancholicFolk_Guitar,6,4,DL_MelancholicFolk_Guitar,0.37034326791763306,0
60,100,1.3590909090909091,470,0,96,DL_MelancholicFolk_Guitar,6,15,DL_MelancholicFolk_Guitar,0.4561573565006256,0
53,100,0.7,40,1,97,DL_MelancholicFolk_Guitar,6,11,DL_MelancholicFolk_Guitar,0.9990094900131226,1
65,100,0.1,193,0,97,DL_MelancholicFolk_Guitar,6,2,DL_MelancholicFolk_Guitar,0.23323141038417816,0
63,100,0.2,783,1,97,DL_MelancholicFolk_Guitar,6,3,DL_MelancholicFolk_Guitar,0.27057603001594543,0
53,100,0.1590909090909091,849,0,97,DL_MelancholicFolk_Guitar,6,3,DL_MelancholicFolk_Guitar,0.3579297661781311,0
57,100,0.1409090909090909,74,1,98,DL_MelancholicFolk_Guitar,6,2,DL_MelancholicFolk_Guitar,0.9984879493713379,1
53,100,0.1409090909090909,145,0,98,DL_MelancholicFolk_Guitar,6,2,DL_MelancholicFolk_Guitar,0.06335112452507019,0
60,100,0.35909090909090907,216,0,98,DL_MelancholicFolk_Guitar,6,6,DL_MelancholicFolk_Guitar,0.05828758329153061,0
60,100,0.11818181818181818,404,0,98,DL_MelancholicFolk_Guitar,6,2,DL_MelancholicFolk_Guitar,0.06135900318622589,0
53,100,0.4590909090909091,470,0,98,DL_MelancholicFolk_Guitar,6,7,DL_MelancholicFolk_Guitar,0.07167750597000122,0
53,100,0.5,629,0,98,DL_MelancholicFolk_Guitar,6,8,DL_MelancholicFolk_Guitar,0.08473145216703415,0
65,100,0.2,810,0,98,DL_MelancholicFolk_Guitar,6,3,DL_MelancholicFolk_Guitar,0.12634585797786713,0
53,100,0.2,74,1,99,DL_MelancholicFolk_Guitar,6,3,DL_MelancholicFolk_Guitar,0.9990094900131226,1
65,100,0.3181818181818182,119,0,99,DL_MelancholicFolk_Guitar,6,5,DL_MelancholicFolk_Guitar,0.23323176801204681,0
58,100,0.33636363636363636,237,0,99,DL_MelancholicFolk_Guitar,6,5,DL_MelancholicFolk_Guitar,0.2705848515033722,0
62,100,0.9590909090909091,506,1,99,DL_MelancholicFolk_Guitar,6,15,DL_MelancholicFolk_Guitar,0.3579258322715759,0
53,100,0.1590909090909091,0,1,100,DL_MelancholicFolk_Guitar,6,3,DL_MelancholicFolk_Guitar,0.9990094900131226,1
58,100,0.12272727272727273,35,0,100,DL_MelancholicFolk_Guitar,6,2,DL_MelancholicFolk_Guitar,0.23323218524456024,0
58,100,0.2,716,1,100,DL_MelancholicFolk_Guitar,6,3,DL_MelancholicFolk_Guitar,0.2705759108066559,0
53,100,0.35909090909090907,810,0,100,DL_MelancholicFolk_Guitar,6,6,DL_MelancholicFolk_Guitar,0.35792502760887146,0
60,100,0.3,176,1,101,DL_MelancholicFolk_Guitar,6,5,DL_MelancholicFolk_Guitar,0.9986506104469299,1
53,100,0.2772727272727273,250,0,101,DL_MelancholicFolk_Guitar,6,4,DL_MelancholicFolk_Guitar,0.08797907829284668,0
60,100,0.12272727272727273,333,0,101,DL_MelancholicFolk_Guitar,6,2,DL_MelancholicFolk_Guitar,0.09298305958509445,0
53,100,0.4409090909090909,386,0,101,DL_MelancholicFolk_Guitar,6,7,DL_MelancholicFolk_Guitar,0.10994736105203629,0
53,100,0.16363636363636364,576,0,101,DL_MelancholicFolk_Guitar,6,3,DL_MelancholicFolk_Guitar,0.12867307662963867,0
58,100,0.5181818181818182,770,0,101,DL_MelancholicFolk_Guitar,6,8,DL_MelancholicFolk_Guitar,0.18221500515937805,0
58,100,0.2,43,1,102,DL_MelancholicFolk_Guitar,6,3,DL_MelancholicFolk_Guitar,0.9982556700706482,1
58,100,0.2409090909090909,123,0,102,DL_MelancholicFolk_Guitar,6,4,DL_MelancholicFolk_Guitar,0.04129204899072647,0
53,100,0.12272727272727273,255,0,102,DL_MelancholicFolk_Guitar,6,2,DL_MelancholicFolk_Guitar,0.02912447415292263,0
58,100,0.5409090909090909,286,0,102,DL_MelancholicFolk_Guitar,6,9,DL_MelancholicFolk_Guitar,0.02156810462474823,0
53,100,0.2590909090909091,417,0,102,DL_MelancholicFolk_Guitar,6,4,DL_MelancholicFolk_Guitar,0.0170577522367239,0
58,100,0.23636363636363636,502,0,102,DL_MelancholicFolk_Guitar,6,4,DL_MelancholicFolk_Guitar,0.015267200767993927,0
65,100,0.17727272727272728,590,0,102,DL_MelancholicFolk_Guitar,6,3,DL_MelancholicFolk_Guitar,0.01645471900701523,0
53,100,0.3409090909090909,629,0,102,DL_MelancholicFolk_Guitar,6,5,DL_MelancholicFolk_Guitar,0.021836234256625175,0
58,100,0.3,716,0,102,DL_MelancholicFolk_Guitar,6,5,DL_MelancholicFolk_Guitar,0.03251683712005615,0
65,100,0.17727272727272728,800,0,102,DL_MelancholicFolk_Guitar,6,3,DL_MelancholicFolk_Guitar,0.06091184541583061,0
65,100,0.16363636363636364,686,1,103,DL_MelancholicFolk_Guitar,6,3,DL_MelancholicFolk_Guitar,0.9983232617378235,1
53,100,0.2409090909090909,726,0,103,DL_MelancholicFolk_Guitar,6,4,DL_MelancholicFolk_Guitar,0.5462151169776917,1
60,100,0.2590909090909091,110,1,104,DL_MelancholicFolk_Guitar,6,4,DL_MelancholicFolk_Guitar,0.9983004927635193,1
53,100,0.1,172,0,104,DL_MelancholicFolk_Guitar,6,2,DL_MelancholicFolk_Guitar,0.04466121271252632,0
65,100,0.32272727272727275,255,0,104,DL_MelancholicFolk_Guitar,6,5,DL_MelancholicFolk_Guitar,0.03337112441658974,0
53,100,0.2818181818181818,343,0,104,DL_MelancholicFolk_Guitar,6,5,DL_MelancholicFolk_Guitar,0.026946717873215675,0
65,100,0.1409090909090909,409,0,104,DL_MelancholicFolk_Guitar,6,2,DL_MelancholicFolk_Guitar,0.02408245950937271,0
65,100,0.18181818181818182,443,0,104,DL_MelancholicFolk_Guitar,6,3,DL_MelancholicFolk_Guitar,0.024971960112452507,0
62,100,0.42272727272727273,563,0,104,DL_MelancholicFolk_Guitar,6,7,DL_MelancholicFolk_Guitar,0.03064504824578762,0
62,100,0.1590909090909091,660,0,104,DL_MelancholicFolk_Guitar,6,3,DL_MelancholicFolk_Guitar,0.04136722534894943,0
65,100,1.440909090909091,713,0,104,DL_MelancholicFolk_Guitar,6,15,DL_MelancholicFolk_Guitar,0.07206522673368454,0
65,100,0.9409090909090909,163,1,105,DL_MelancholicFolk_Guitar,6,15,DL_MelancholicFolk_Guitar,0.9990280866622925,1
62,100,0.1409090909090909,713,1,105,DL_MelancholicFolk_Guitar,6,2,DL_MelancholicFolk_Guitar,0.3703537881374359,0
53,100,0.6590909090909091,747,0,105,DL_MelancholicFolk_Guitar,6,11,DL_MelancholicFolk_Guitar,0.45616811513900757,0
53,100,0.18181818181818182,673,1,106,DL_MelancholicFolk_Guitar,6,3,DL_MelancholicFolk_Guitar,0.9990280866622925,1
57,100,0.18181818181818182,726,0,106,DL_MelancholicFolk_Guitar,6,3,DL_MelancholicFolk_Guitar,0.37033969163894653,0
60,100,0.6409090909090909,844,0,106,DL_MelancholicFolk_Guitar,6,10,DL_MelancholicFolk_Guitar,0.45616912841796875,0
53,100,0.11818181818181818,119,1,107,DL_MelancholicFolk_Guitar,6,2,DL_MelancholicFolk_Guitar,0.9986506104469299,1
60,100,0.7772727272727272,250,0,107,DL_MelancholicFolk_Guitar,6,12,DL_MelancholicFolk_Guitar,0.08797869086265564,0
53,100,0.2590909090909091,430,0,107,DL_MelancholicFolk_Guitar,6,4,DL_MelancholicFolk_Guitar,0.09298084676265717,0
65,100,0.1409090909090909,487,0,107,DL_MelancholicFolk_Guitar,6,2,DL_MelancholicFolk_Guitar,0.10994664579629898,0
58,100,0.1590909090909091,677,0,107,DL_MelancholicFolk_Guitar,6,3,DL_MelancholicFolk_Guitar,0.1286691278219223,0
53,100,0.2590909090909091,747,0,107,DL_MelancholicFolk_Guitar,6,4,DL_MelancholicFolk_Guitar,0.18221329152584076,0
65,100,0.36363636363636365,113,1,108,DL_MelancholicFolk_Guitar,6,6,DL_MelancholicFolk_Guitar,0.9988439083099365,1
58,100,0.12272727272727273,386,1,108,DL_MelancholicFolk_Guitar,6,2,DL_MelancholicFolk_Guitar,0.13798631727695465,0
53,100,0.16363636363636364,686,1,108,DL_MelancholicFolk_Guitar,6,3,DL_MelancholicFolk_Guitar,0.162364661693573,0
65,100,0.2772727272727273,766,0,108,DL_MelancholicFolk_Guitar,6,4,DL_MelancholicFolk_Guitar,0.191060870885849,0
65,100,0.1409090909090909,857,0,108,DL_MelancholicFolk_Guitar,6,2,DL_MelancholicFolk_Guitar,0.26196348667144775,0
65,100,0.1409090909090909,396,1,109,DL_MelancholicFolk_Guitar,6,2,DL_MelancholicFolk_Guitar,0.9984879493713379,1
65,100,0.2590909090909091,475,0,109,DL_MelancholicFolk_Guitar,6,4,DL_MelancholicFolk_Guitar,0.0633518248796463,0
65,100,0.2,553,0,109,DL_MelancholicFolk_Guitar,6,3,DL_MelancholicFolk_Guitar,0.05828791856765747,0
53,100,0.2,597,0,109,DL_MelancholicFolk_Guitar,6,3,DL_MelancholicFolk_Guitar,0.061360809952020645,0
60,100,0.4590909090909091,650,0,109,DL_MelancholicFolk_Guitar,6,7,DL_MelancholicFolk_Guitar,0.07168195396661758,0
53,100,0.3409090909090909,779,0,109,DL_MelancholicFolk_Guitar,6,5,DL_MelancholicFolk_Guitar,0.0847335234284401,0
53,100,0.1590909090909091,857,0,109,DL_MelancholicFolk_Guitar,6,3,DL_MelancholicFolk_Guitar,0.12634901702404022,0
53,100,0.5181818181818182,43,1,110,DL_MelancholicFolk_Guitar,6,8,DL_MelancholicFolk_Guitar,0.9988439083099365,1
53,100,0.6636363636363637,179,0,110,DL_MelancholicFolk_Guitar,6,11,DL_MelancholicFolk_Guitar,0.13797807693481445,0
53,100,0.2772727272727273,370,0,110,DL_MelancholicFolk_Guitar,6,4,DL_MelancholicFolk_Guitar,0.16236096620559692,0
58,100,0.6818181818181818,443,0,110,DL_MelancholicFolk_Guitar,6,11,DL_MelancholicFolk_Guitar,0.1910543143749237,0
58,100,0.2,853,1,110,DL_MelancholicFolk_Guitar,6,3,DL_MelancholicFolk_Guitar,0.26196348667144775,0
65,100,0.17727272727272728,40,1,111,DL_MelancholicFolk_Guitar,6,3,DL_MelancholicFolk_Guitar,0.9983004927635193,1
65,100,0.11818181818181818,83,0,111,DL_MelancholicFolk_Guitar,6,2,DL_MelancholicFolk_Guitar,0.044661641120910645,0
65,100,0.4590909090909091,193,0,111,DL_MelancholicFolk_Guitar,6,7,DL_MelancholicFolk_Guitar,0.033370185643434525,0
58,100,0.1590909090909091,409,0,111,DL_MelancholicFolk_Guitar,6,3,DL_MelancholicFolk_Guitar,0.026946689933538437,0
58,100,0.6,493,0,111,DL_MelancholicFolk_Guitar,6,10,DL_MelancholicFolk_Guitar,0.024082103744149208,0
53,100,0.1409090909090909,624,0,111,DL_MelancholicFolk_Guitar,6,2,DL_MelancholicFolk_Guitar,0.024970583617687225,0
58,100,0.1590909090909091,656,0,111,DL_MelancholicFolk_Guitar,6,3,DL_MelancholicFolk_Guitar,0.03064623847603798,0
65,100,0.1590909090909091,690,0,111,DL_MelancholicFolk_Guitar,6,3,DL_MelancholicFolk_Guitar,0.041365522891283035,0
58,100,0.1590909090909091,726,0,111,DL_MelancholicFolk_Guitar,6,3,DL_MelancholicFolk_Guitar,0.07206892222166061,0
65,100,0.11818181818181818,263,1,112,DL_MelancholicFolk_Guitar,6,2,DL_MelancholicFolk_Guitar,0.9988439083099365,1
53,100,0.16363636363636364,532,1,112,DL_MelancholicFolk_Guitar,6,3,DL_MelancholicFolk_Guitar,0.13798044621944427,0
53,100,0.5590909090909091,593,0,112,DL_MelancholicFolk_Guitar,6,9,DL_MelancholicFolk_Guitar,0.1623610556125641,0
65,100,0.12272727272727273,817,0,112,DL_MelancholicFolk_Guitar,6,2,DL_MelancholicFolk_Guitar,0.1910572201013565,0
65,100,0.1409090909090909,849,0,112,DL_MelancholicFolk_Guitar,6,2,DL_MelancholicFolk_Guitar,0.2619612514972687,0
53,100,0.2590909090909091,0,1,113,DL_MelancholicFolk_Guitar,6,4,DL_MelancholicFolk_Guitar,0.9983004927635193,1
65,100,0.2409090909090909,56,0,113,DL_MelancholicFolk_Guitar,6,4,DL_MelancholicFolk_Guitar,0.04466170072555542,0
53,100,0.41818181818181815,110,0,113,DL_MelancholicFolk_Guitar,6,7,DL_MelancholicFolk_Guitar,0.03337007761001587,0
65,100,0.17727272727272728,206,0,113,DL_MelancholicFolk_Guitar,6,3,DL_MelancholicFolk_Guitar,0.026946842670440674,0
65,100,0.18181818181818182,307,0,113,DL_MelancholicFolk_Guitar,6,3,DL_MelancholicFolk_Guitar,0.02408171072602272,0
65,100,0.21818181818181817,352,0,113,DL_MelancholicFolk_Guitar,6,3,DL_MelancholicFolk_Guitar,0.024970678612589836,0
58,100,0.5227272727272727,399,0,113,DL_MelancholicFolk_Guitar,6,8,DL_MelancholicFolk_Guitar,0.03064597025513649,0
53,100,0.2409090909090909,624,0,113,DL_MelancholicFolk_Guitar,6,4,DL_MelancholicFolk_Guitar,0.0413665808737278,0
65,100,0.6227272727272727,783,0,113,DL_MelancholicFolk_Guitar,6,10,DL_MelancholicFolk_Guitar,0.07206425070762634,0
58,100,0.2,145,1,114,DL_MelancholicFolk_Guitar,6,3,DL_MelancholicFolk_Guitar,0.9986506104469299,1
58,100,0.8,220,0,114,DL_MelancholicFolk_Guitar,6,13,DL_MelancholicFolk_Guitar,0.08797889947891235,0
58,100,0.6227272727272727,409,0,114,DL_MelancholicFolk_Guitar,6,10,DL_MelancholicFolk_Guitar,0.09298120439052582,0
53,100,0.1,553,0,114,DL_MelancholicFolk_Guitar,6,2,DL_MelancholicFolk_Guitar,0.10994523018598557,0
65,100,0.1,673,0,114,DL_MelancholicFolk_Guitar,6,2,DL_MelancholicFolk_Guitar,0.1286655068397522,0
65,100,0.2636363636363636,729,0,114,DL_MelancholicFolk_Guitar,6,4,DL_MelancholicFolk_Guitar,0.18221643567085266,0
60,100,0.2636363636363636,487,1,115,DL_MelancholicFolk_Guitar,6,4,DL_MelancholicFolk_Guitar,0.9983232617378235,1
60,100,0.23636363636363636,787,1,115,DL_MelancholicFolk_Guitar,6,4,DL_MelancholicFolk_Guitar,0.5462186932563782,1
60,100,0.23636363636363636,656,1,116,DL_MelancholicFolk_Guitar,6,4,DL_MelancholicFolk_Guitar,0.9983232617378235,1
60,100,2.7,734,0,116,DL_MelancholicFolk_Guitar,6,15,DL_MelancholicFolk_Guitar,0.546202540397644,1
65,100,0.2409090909090909,92,1,118,DL_MelancholicFolk_Guitar,6,4,DL_MelancholicFolk_Guitar,0.9990280866622925,1
65,100,0.35909090909090907,176,0,118,DL_MelancholicFolk_Guitar,6,6,DL_MelancholicFolk_Guitar,0.37033769488334656,0
65,100,0.11818181818181818,734,1,118,DL_MelancholicFolk_Guitar,6,2,DL_MelancholicFolk_Guitar,0.4561704695224762,0
65,100,0.5,210,1,119,DL_MelancholicFolk_Guitar,6,8,DL_MelancholicFolk_Guitar,0.9983232617378235,1
65,100,0.2409090909090909,483,1,119,DL_MelancholicFolk_Guitar,6,4,DL_MelancholicFolk_Guitar,0.5462151765823364,1
65,100,2.7181818181818183,426,1,120,DL_MelancholicFolk_Guitar,6,15,DL_MelancholicFolk_Guitar,0.9792221188545227,1
55,100,0.42272727272727273,354,1,0,DL_Guitar_1,6,7,DL_Guitar_1,0.9792242646217346,1
53,100,0.6227272727272727,730,1,1,DL_Guitar_1,6,10,DL_Guitar_1,0.9792234897613525,1
53,100,0.2681818181818182,76,1,2,DL_Guitar_1,6,4,DL_Guitar_1,0.9988439083099365,1
70,100,0.24545454545454545,581,1,2,DL_Guitar_1,6,4,DL_Guitar_1,0.13798145949840546,0
72,100,0.24545454545454545,645,0,2,DL_Guitar_1,6,4,DL_Guitar_1,0.16236433386802673,0
70,100,0.2863636363636364,794,0,2,DL_Guitar_1,6,5,DL_Guitar_1,0.19104883074760437,0
72,100,0.31363636363636366,862,0,2,DL_Guitar_1,6,5,DL_Guitar_1,0.26196736097335815,0
70,100,0.33636363636363636,256,1,3,DL_Guitar_1,6,5,DL_Guitar_1,0.9988439083099365,1
58,100,0.22272727272727272,336,0,3,DL_Guitar_1,6,4,DL_Guitar_1,0.13797956705093384,0
70,100,0.6227272727272727,400,0,3,DL_Guitar_1,6,10,DL_Guitar_1,0.16236421465873718,0
58,100,0.18181818181818182,537,0,3,DL_Guitar_1,6,3,DL_Guitar_1,0.1910538226366043,0
65,100,0.22272727272727272,842,1,3,DL_Guitar_1,6,4,DL_Guitar_1,0.26196062564849854,0
67,100,0.15454545454545454,55,1,4,DL_Guitar_1,6,2,DL_Guitar_1,0.9983004927635193,1
65,100,0.2,183,0,4,DL_Guitar_1,6,3,DL_Guitar_1,0.044661395251750946,0
67,100,0.24545454545454545,246,0,4,DL_Guitar_1,6,4,DL_Guitar_1,0.0333704836666584,0
53,100,0.5590909090909091,368,0,4,DL_Guitar_1,6,9,DL_Guitar_1,0.02694684825837612,0
65,100,0.24545454545454545,492,0,4,DL_Guitar_1,6,4,DL_Guitar_1,0.024082552641630173,0
53,100,0.24545454545454545,594,0,4,DL_Guitar_1,6,4,DL_Guitar_1,0.024971477687358856,0
65,100,0.42272727272727273,648,0,4,DL_Guitar_1,6,7,DL_Guitar_1,0.03064538538455963,0
53,100,0.22727272727272727,741,0,4,DL_Guitar_1,6,4,DL_Guitar_1,0.041366636753082275,0
53,100,0.24545454545454545,806,0,4,DL_Guitar_1,6,4,DL_Guitar_1,0.07206697762012482,0
65,100,0.13636363636363635,108,1,5,DL_Guitar_1,6,2,DL_Guitar_1,0.9990094900131226,1
53,100,0.2,220,0,5,DL_Guitar_1,6,3,DL_Guitar_1,0.23322436213493347,0
65,100,0.31363636363636366,280,0,5,DL_Guitar_1,6,5,DL_Guitar_1,0.2705744504928589,0
53,100,0.1318181818181818,392,0,5,DL_Guitar_1,6,2,DL_Guitar_1,0.35791832208633423,0
58,100,0.11363636363636363,205,1,6,DL_Guitar_1,6,2,DL_Guitar_1,0.9792241454124451,1
58,100,0.10909090909090909,118,1,10,DL_Guitar_1,6,2,DL_Guitar_1,0.9990094900131226,1
58,100,0.33636363636363636,544,1,10,DL_Guitar_1,6,5,DL_Guitar_1,0.23323172330856323,0
58,100,0.22272727272727272,653,0,10,DL_Guitar_1,6,4,DL_Guitar_1,0.27058181166648865,0
58,100,0.13636363636363635,706,0,10,DL_Guitar_1,6,2,DL_Guitar_1,0.3579276204109192,0
58,100,0.17727272727272728,338,1,11,DL_Guitar_1,6,3,DL_Guitar_1,0.9792243838310242,1
53,100,0.4909090909090909,194,1,12,DL_Guitar_1,6,8,DL_Guitar_1,0.9990094900131226,1
53,100,0.4,352,0,12,DL_Guitar_1,6,6,DL_Guitar_1,0.23322324454784393,0
53,100,0.15454545454545454,632,1,12,DL_Guitar_1,6,2,DL_Guitar_1,0.2705765664577484,0
60,100,0.37727272727272726,768,0,12,DL_Guitar_1,6,6,DL_Guitar_1,0.35793063044548035,0
53,100,0.22272727272727272,183,1,13,DL_Guitar_1,6,4,DL_Guitar_1,0.9990094900131226,1
60,100,0.13636363636363635,316,0,13,DL_Guitar_1,6,2,DL_Guitar_1,0.23323385417461395,0
55,100,0.10909090909090909,458,0,13,DL_Guitar_1,6,2,DL_Guitar_1,0.27058038115501404,0
65,100,0.11363636363636363,591,0,13,DL_Guitar_1,6,2,DL_Guitar_1,0.35792413353919983,0
55,100,0.37727272727272726,462,1,14,DL_Guitar_1,6,6,DL_Guitar_1,0.9792240262031555,1
53,100,0.1590909090909091,145,1,16,DL_Guitar_1,6,3,DL_Guitar_1,0.9792237281799316,1
57,100,0.42727272727272725,425,1,17,DL_Guitar_1,6,7,DL_Guitar_1,0.9983231425285339,1
53,100,0.22272727272727272,807,1,17,DL_Guitar_1,6,4,DL_Guitar_1,0.5462157130241394,1
53,100,0.2,148,1,18,DL_Guitar_1,6,3,DL_Guitar_1,0.9990094900131226,1
53,100,0.22272727272727272,227,0,18,DL_Guitar_1,6,4,DL_Guitar_1,0.23323164880275726,0
53,100,0.1318181818181818,356,0,18,DL_Guitar_1,6,2,DL_Guitar_1,0.2705811858177185,0
57,100,0.33636363636363636,433,0,18,DL_Guitar_1,6,5,DL_Guitar_1,0.357925146818161,0
58,100,0.40454545454545454,588,1,20,DL_Guitar_1,6,6,DL_Guitar_1,0.9792241454124451,1
58,100,0.17727272727272728,52,1,21,DL_Guitar_1,6,3,DL_Guitar_1,0.9990280866622925,1
58,100,0.24545454545454545,161,0,21,DL_Guitar_1,6,4,DL_Guitar_1,0.3703397512435913,0
57,100,0.22272727272727272,515,1,21,DL_Guitar_1,6,4,DL_Guitar_1,0.45616966485977173,0
53,100,0.15454545454545454,169,1,22,DL_Guitar_1,6,2,DL_Guitar_1,0.9990094900131226,1
53,100,0.2909090909090909,302,0,22,DL_Guitar_1,6,5,DL_Guitar_1,0.23322735726833344,0
53,100,0.31363636363636366,587,1,22,DL_Guitar_1,6,5,DL_Guitar_1,0.2705816924571991,0
58,100,0.1318181818181818,686,0,22,DL_Guitar_1,6,2,DL_Guitar_1,0.35793042182922363,0
58,100,0.2681818181818182,45,1,23,DL_Guitar_1,6,4,DL_Guitar_1,0.9983232617378235,1
53,100,0.2,336,1,23,DL_Guitar_1,6,3,DL_Guitar_1,0.5462062954902649,1
57,100,0.6454545454545455,388,1,24,DL_Guitar_1,6,10,DL_Guitar_1,0.9983232617378235,1
57,100,0.2,536,0,24,DL_Guitar_1,6,3,DL_Guitar_1,0.5462173819541931,1
58,100,0.24545454545454545,185,1,26,DL_Guitar_1,6,4,DL_Guitar_1,0.9990094900131226,1
58,100,0.11363636363636363,436,1,26,DL_Guitar_1,6,2,DL_Guitar_1,0.23323126137256622,0
53,100,0.1590909090909091,705,1,26,DL_Guitar_1,6,3,DL_Guitar_1,0.27057650685310364,0
57,100,0.22272727272727272,774,0,26,DL_Guitar_1,6,4,DL_Guitar_1,0.3579326868057251,0
57,100,0.6909090909090909,61,1,27,DL_Guitar_1,6,11,DL_Guitar_1,0.9990280866622925,1
53,100,0.1318181818181818,278,0,27,DL_Guitar_1,6,2,DL_Guitar_1,0.37033510208129883,0
60,100,0.15454545454545454,547,1,27,DL_Guitar_1,6,2,DL_Guitar_1,0.4561706483364105,0
55,100,0.35454545454545455,846,1,28,DL_Guitar_1,6,6,DL_Guitar_1,0.9792242646217346,1
53,100,0.2,123,1,29,DL_Guitar_1,6,3,DL_Guitar_1,0.9988439083099365,1
53,100,0.2681818181818182,172,0,29,DL_Guitar_1,6,4,DL_Guitar_1,0.13797925412654877,0
53,100,0.1590909090909091,358,0,29,DL_Guitar_1,6,3,DL_Guitar_1,0.1623593419790268,0
53,100,0.18181818181818182,584,0,29,DL_Guitar_1,6,3,DL_Guitar_1,0.19105647504329681,0
53,100,0.2909090909090909,772,0,29,DL_Guitar_1,6,5,DL_Guitar_1,0.2619594931602478,0
63,100,0.24545454545454545,436,1,30,DL_Guitar_1,6,4,DL_Guitar_1,0.9990280866622925,1
63,100,0.22272727272727272,521,0,30,DL_Guitar_1,6,4,DL_Guitar_1,0.37034836411476135,0
63,100,0.5818181818181818,721,0,30,DL_Guitar_1,6,9,DL_Guitar_1,0.4561835527420044,0
63,100,0.35909090909090907,268,1,31,DL_Guitar_1,6,6,DL_Guitar_1,0.9990280866622925,1
63,100,0.5136363636363637,470,0,31,DL_Guitar_1,6,8,DL_Guitar_1,0.37033650279045105,0
53,100,0.22272727272727272,587,0,31,DL_Guitar_1,6,4,DL_Guitar_1,0.4561745226383209,0
53,100,0.24545454545454545,685,1,33,DL_Guitar_1,6,4,DL_Guitar_1,0.9792237281799316,1
53,100,0.22272727272727272,241,1,34,DL_Guitar_1,6,4,DL_Guitar_1,0.9983232617378235,1
53,100,0.13636363636363635,315,0,34,DL_Guitar_1,6,2,DL_Guitar_1,0.5462155342102051,1
53,100,0.10909090909090909,397,1,36,DL_Guitar_1,6,2,DL_Guitar_1,0.9990280866622925,1
53,100,0.2681818181818182,744,1,36,DL_Guitar_1,6,4,DL_Guitar_1,0.3703346848487854,0
53,100,0.4681818181818182,809,0,36,DL_Guitar_1,6,7,DL_Guitar_1,0.4561643600463867,0
53,100,0.24545454545454545,174,1,37,DL_Guitar_1,6,4,DL_Guitar_1,0.9986506104469299,1
53,100,0.2,243,0,37,DL_Guitar_1,6,3,DL_Guitar_1,0.08798079937696457,0
53,100,0.2909090909090909,307,0,37,DL_Guitar_1,6,5,DL_Guitar_1,0.09298282116651535,0
53,100,0.6045454545454545,380,0,37,DL_Guitar_1,6,10,DL_Guitar_1,0.10994816571474075,0
53,100,0.2681818181818182,602,0,37,DL_Guitar_1,6,4,DL_Guitar_1,0.1286657452583313,0
53,100,0.2681818181818182,680,0,37,DL_Guitar_1,6,4,DL_Guitar_1,0.1822112649679184,0
53,100,0.1590909090909091,860,1,38,DL_Guitar_1,6,3,DL_Guitar_1,0.9792243838310242,1
55,100,0.2909090909090909,383,1,40,DL_Guitar_1,6,5,DL_Guitar_1,0.9983231425285339,1
60,100,0.5136363636363637,830,1,40,DL_Guitar_1,6,8,DL_Guitar_1,0.5462198257446289,1
60,100,0.6227272727272727,352,1,41,DL_Guitar_1,6,10,DL_Guitar_1,0.9792241454124451,1
53,100,0.35909090909090907,56,1,42,DL_Guitar_1,6,6,DL_Guitar_1,0.9990094900131226,1
53,100,0.45,414,1,42,DL_Guitar_1,6,7,DL_Guitar_1,0.23322847485542297,0
53,100,0.33181818181818185,632,0,42,DL_Guitar_1,6,5,DL_Guitar_1,0.27057474851608276,0
53,100,0.24545454545454545,832,0,42,DL_Guitar_1,6,4,DL_Guitar_1,0.35792964696884155,0
60,100,0.22272727272727272,458,1,44,DL_Guitar_1,6,4,DL_Guitar_1,0.9983231425285339,1
53,100,0.22272727272727272,576,0,44,DL_Guitar_1,6,4,DL_Guitar_1,0.5462114810943604,1
53,100,0.2909090909090909,0,1,45,DL_Guitar_1,6,5,DL_Guitar_1,0.9988439083099365,1
53,100,0.1590909090909091,206,0,45,DL_Guitar_1,6,3,DL_Guitar_1,0.13798287510871887,0
58,100,0.4909090909090909,300,0,45,DL_Guitar_1,6,8,DL_Guitar_1,0.1623653769493103,0
53,100,0.17727272727272728,432,0,45,DL_Guitar_1,6,3,DL_Guitar_1,0.19105668365955353,0
53,100,0.5590909090909091,638,0,45,DL_Guitar_1,6,9,DL_Guitar_1,0.2619628608226776,0
53,100,0.2909090909090909,691,1,46,DL_Guitar_1,6,5,DL_Guitar_1,0.979223906993866,1
53,100,0.3090909090909091,22,1,47,DL_Guitar_1,6,5,DL_Guitar_1,0.9792241454124451,1
60,100,0.6909090909090909,522,1,49,DL_Guitar_1,6,11,DL_Guitar_1,0.9792243838310242,1
53,100,0.13636363636363635,361,1,52,DL_Guitar_1,6,2,DL_Guitar_1,0.979223906993866,1
55,100,0.2681818181818182,831,1,53,DL_Guitar_1,6,4,DL_Guitar_1,0.9792236089706421,1
57,100,0.7818181818181819,545,1,54,DL_Guitar_1,6,13,DL_Guitar_1,0.9983231425285339,1
57,100,0.20454545454545456,805,1,54,DL_Guitar_1,6,3,DL_Guitar_1,0.5462228655815125,1
55,100,0.2909090909090909,343,1,55,DL_Guitar_1,6,5,DL_Guitar_1,0.9983232617378235,1
53,100,0.3090909090909091,845,1,55,DL_Guitar_1,6,5,DL_Guitar_1,0.5462081432342529,1
53,100,0.31363636363636366,111,1,56,DL_Guitar_1,6,5,DL_Guitar_1,0.9990280866622925,1
53,100,0.13636363636363635,248,0,56,DL_Guitar_1,6,2,DL_Guitar_1,0.37036776542663574,0
55,100,3.036363636363636,386,0,56,DL_Guitar_1,6,15,DL_Guitar_1,0.4561392068862915,0
53,100,0.10909090909090909,58,1,65,DL_Guitar_1,6,2,DL_Guitar_1,0.979223370552063,1
55,100,0.37727272727272726,317,1,0,DL_Guitar,6,6,DL_Guitar,0.9792238473892212,1
53,100,0.5590909090909091,563,1,1,DL_Guitar,6,9,DL_Guitar,0.9983231425285339,1
53,100,0.23636363636363636,765,0,1,DL_Guitar,6,4,DL_Guitar,0.5462155342102051,1
70,100,0.21818181818181817,339,1,2,DL_Guitar,6,3,DL_Guitar,0.9988439083099365,1
72,100,0.21818181818181817,396,0,2,DL_Guitar,6,3,DL_Guitar,0.13797958195209503,0
70,100,0.2590909090909091,528,0,2,DL_Guitar,6,4,DL_Guitar,0.16235868632793427,0
72,100,0.2772727272727273,590,0,2,DL_Guitar,6,4,DL_Guitar,0.19105164706707,0
70,100,0.3,836,1,2,DL_Guitar,6,5,DL_Guitar,0.26195791363716125,0
58,100,0.2,26,1,3,DL_Guitar,6,3,DL_Guitar,0.9983735084533691,1
70,100,0.5590909090909091,83,0,3,DL_Guitar,6,9,DL_Guitar,0.05105026811361313,0
58,100,0.1590909090909091,207,0,3,DL_Guitar,6,3,DL_Guitar,0.04161142557859421,0
65,100,0.2,479,1,3,DL_Guitar,6,3,DL_Guitar,0.03797806426882744,0
67,100,0.1409090909090909,562,0,3,DL_Guitar,6,2,DL_Guitar,0.039259206503629684,0
65,100,0.17727272727272728,678,0,3,DL_Guitar,6,3,DL_Guitar,0.04616408422589302,0
67,100,0.21818181818181817,735,0,3,DL_Guitar,6,3,DL_Guitar,0.05713152512907982,0
53,100,0.5,845,0,3,DL_Guitar,6,8,DL_Guitar,0.09187554568052292,0
65,100,0.21818181818181817,74,1,4,DL_Guitar,6,3,DL_Guitar,0.9983004927635193,1
53,100,0.22272727272727272,166,0,4,DL_Guitar,6,4,DL_Guitar,0.044661153107881546,0
65,100,0.37727272727272726,215,0,4,DL_Guitar,6,6,DL_Guitar,0.03337043151259422,0
53,100,0.2,299,0,4,DL_Guitar,6,3,DL_Guitar,0.026946665719151497,0
53,100,0.22272727272727272,355,0,4,DL_Guitar,6,4,DL_Guitar,0.024081716313958168,0
65,100,0.12272727272727273,519,0,4,DL_Guitar,6,2,DL_Guitar,0.02497071586549282,0
53,100,0.18181818181818182,619,0,4,DL_Guitar,6,3,DL_Guitar,0.030644185841083527,0
65,100,0.2818181818181818,672,0,4,DL_Guitar,6,5,DL_Guitar,0.04136461764574051,0
53,100,0.12272727272727273,774,0,4,DL_Guitar,6,2,DL_Guitar,0.07206573337316513,0
58,100,0.1,514,1,5,DL_Guitar,6,2,DL_Guitar,0.9792246222496033,1
58,100,0.1,70,1,9,DL_Guitar,6,2,DL_Guitar,0.9990094900131226,1
58,100,0.3,453,1,9,DL_Guitar,6,5,DL_Guitar,0.23322440683841705,0
58,100,0.2,550,0,9,DL_Guitar,6,3,DL_Guitar,0.2705695331096649,0
58,100,0.12272727272727273,598,0,9,DL_Guitar,6,2,DL_Guitar,0.35792645812034607,0
58,100,0.1590909090909091,175,1,10,DL_Guitar,6,3,DL_Guitar,0.9983232617378235,1
53,100,0.4409090909090909,835,1,10,DL_Guitar,6,7,DL_Guitar,0.5462110042572021,1
53,100,0.35909090909090907,96,1,11,DL_Guitar,6,6,DL_Guitar,0.9988439083099365,1
53,100,0.13636363636363635,347,1,11,DL_Guitar,6,2,DL_Guitar,0.1379777491092682,0
60,100,0.3409090909090909,470,0,11,DL_Guitar,6,5,DL_Guitar,0.16235925257205963,0
53,100,0.2,735,1,11,DL_Guitar,6,3,DL_Guitar,0.19104553759098053,0
60,100,0.11818181818181818,854,0,11,DL_Guitar,6,2,DL_Guitar,0.26196080446243286,0
55,100,0.1,101,1,12,DL_Guitar,6,2,DL_Guitar,0.9983231425285339,1
65,100,0.1,220,0,12,DL_Guitar,6,2,DL_Guitar,0.5462146401405334,1
55,100,0.3409090909090909,13,1,13,DL_Guitar,6,5,DL_Guitar,0.9792242646217346,1
53,100,0.1409090909090909,426,1,14,DL_Guitar,6,2,DL_Guitar,0.9792242646217346,1
57,100,0.38181818181818183,584,1,15,DL_Guitar,6,6,DL_Guitar,0.9792241454124451,1
53,100,0.2,48,1,16,DL_Guitar,6,3,DL_Guitar,0.9988439083099365,1
53,100,0.18181818181818182,246,0,16,DL_Guitar,6,3,DL_Guitar,0.137983500957489,0
53,100,0.2,316,0,16,DL_Guitar,6,3,DL_Guitar,0.162367045879364,0
53,100,0.12272727272727273,430,0,16,DL_Guitar,6,2,DL_Guitar,0.191060408949852,0
57,100,0.3,501,0,16,DL_Guitar,6,5,DL_Guitar,0.2619653046131134,0
58,100,0.35909090909090907,457,1,18,DL_Guitar,6,6,DL_Guitar,0.9990280866622925,1
58,100,0.1590909090909091,766,1,18,DL_Guitar,6,3,DL_Guitar,0.37033629417419434,0
58,100,0.22272727272727272,862,0,18,DL_Guitar,6,4,DL_Guitar,0.456169068813324,0
57,100,0.2,299,1,19,DL_Guitar,6,3,DL_Guitar,0.9983232617378235,1
53,100,0.1409090909090909,779,1,19,DL_Guitar,6,2,DL_Guitar,0.5462138652801514,1
53,100,0.2590909090909091,17,1,20,DL_Guitar,6,4,DL_Guitar,0.9988439083099365,1
53,100,0.2772727272727273,272,1,20,DL_Guitar,6,4,DL_Guitar,0.137981578707695,0
58,100,0.11818181818181818,360,0,20,DL_Guitar,6,2,DL_Guitar,0.16236424446105957,0
58,100,0.2409090909090909,576,0,20,DL_Guitar,6,4,DL_Guitar,0.19106219708919525,0
53,100,0.18181818181818182,835,1,20,DL_Guitar,6,3,DL_Guitar,0.2619583308696747,0
57,100,0.5818181818181818,791,1,21,DL_Guitar,6,9,DL_Guitar,0.9792238473892212,1
57,100,0.18181818181818182,44,1,22,DL_Guitar,6,3,DL_Guitar,0.9792243838310242,1
58,100,0.21818181818181817,426,1,23,DL_Guitar,6,3,DL_Guitar,0.9983232617378235,1
58,100,0.1,650,0,23,DL_Guitar,6,2,DL_Guitar,0.5462167859077454,1
53,100,0.1409090909090909,13,1,24,DL_Guitar,6,2,DL_Guitar,0.9988439083099365,1
57,100,0.2,75,0,24,DL_Guitar,6,3,DL_Guitar,0.13797840476036072,0
57,100,0.6227272727272727,223,0,24,DL_Guitar,6,10,DL_Guitar,0.1623605638742447,0
53,100,0.11818181818181818,418,0,24,DL_Guitar,6,2,DL_Guitar,0.19105564057826996,0
60,100,0.1409090909090909,660,1,24,DL_Guitar,6,2,DL_Guitar,0.2619668245315552,0
55,100,0.3181818181818182,835,1,25,DL_Guitar,6,5,DL_Guitar,0.979223906993866,1
53,100,0.17727272727272728,96,1,26,DL_Guitar,6,3,DL_Guitar,0.9988439083099365,1
53,100,0.2409090909090909,140,0,26,DL_Guitar,6,4,DL_Guitar,0.13797959685325623,0
53,100,0.1409090909090909,308,0,26,DL_Guitar,6,2,DL_Guitar,0.1623581498861313,0
53,100,0.16363636363636364,509,0,26,DL_Guitar,6,3,DL_Guitar,0.19105122983455658,0
53,100,0.2590909090909091,677,0,26,DL_Guitar,6,4,DL_Guitar,0.2619573771953583,0
63,100,0.21818181818181817,285,1,27,DL_Guitar,6,3,DL_Guitar,0.9990280866622925,1
63,100,0.2,360,0,27,DL_Guitar,6,3,DL_Guitar,0.370344340801239,0
63,100,0.5227272727272727,540,0,27,DL_Guitar,6,8,DL_Guitar,0.45618340373039246,0
63,100,0.3181818181818182,44,1,28,DL_Guitar,6,5,DL_Guitar,0.9990280866622925,1
63,100,0.4636363636363636,223,0,28,DL_Guitar,6,7,DL_Guitar,0.37034153938293457,0
53,100,0.2,330,0,28,DL_Guitar,6,3,DL_Guitar,0.4561784863471985,0
53,100,0.22272727272727272,233,1,30,DL_Guitar,6,4,DL_Guitar,0.9990280866622925,1
53,100,0.2,625,1,30,DL_Guitar,6,3,DL_Guitar,0.370338499546051,0
53,100,0.11818181818181818,691,0,30,DL_Guitar,6,2,DL_Guitar,0.45616886019706726,0
53,100,0.1,581,1,32,DL_Guitar,6,2,DL_Guitar,0.9792236089706421,1
53,100,0.2409090909090909,13,1,33,DL_Guitar,6,4,DL_Guitar,0.9983735084533691,1
53,100,0.42272727272727273,69,0,33,DL_Guitar,6,7,DL_Guitar,0.051048941910266876,0
53,100,0.22272727272727272,289,0,33,DL_Guitar,6,4,DL_Guitar,0.04161108285188675,0
53,100,0.18181818181818182,351,0,33,DL_Guitar,6,3,DL_Guitar,0.03797795996069908,0
53,100,0.2590909090909091,408,0,33,DL_Guitar,6,4,DL_Guitar,0.03925970569252968,0
53,100,0.5409090909090909,474,0,33,DL_Guitar,6,9,DL_Guitar,0.04616206884384155,0
53,100,0.2409090909090909,673,0,33,DL_Guitar,6,4,DL_Guitar,0.05712903290987015,0
53,100,0.23636363636363636,743,0,33,DL_Guitar,6,4,DL_Guitar,0.09187620878219604,0
53,100,0.1409090909090909,813,1,34,DL_Guitar,6,2,DL_Guitar,0.9792240262031555,1
55,100,0.2636363636363636,201,1,36,DL_Guitar,6,4,DL_Guitar,0.9983232617378235,1
60,100,0.4590909090909091,603,1,36,DL_Guitar,6,7,DL_Guitar,0.546212911605835,1
60,100,0.5590909090909091,83,1,37,DL_Guitar,6,9,DL_Guitar,0.9983232617378235,1
53,100,0.32272727272727275,606,1,37,DL_Guitar,6,5,DL_Guitar,0.5462127923965454,1
53,100,0.4,48,1,38,DL_Guitar,6,6,DL_Guitar,0.9990280866622925,1
53,100,0.3,241,0,38,DL_Guitar,6,5,DL_Guitar,0.3703370690345764,0
53,100,0.22272727272727272,421,0,38,DL_Guitar,6,4,DL_Guitar,0.45616787672042847,0
60,100,0.2,783,1,39,DL_Guitar,6,3,DL_Guitar,0.9792243838310242,1
53,100,0.2,8,1,40,DL_Guitar,6,3,DL_Guitar,0.9986506104469299,1
53,100,0.2590909090909091,281,1,40,DL_Guitar,6,4,DL_Guitar,0.08797712624073029,0
53,100,0.1409090909090909,466,0,40,DL_Guitar,6,2,DL_Guitar,0.0929824560880661,0
58,100,0.4409090909090909,550,0,40,DL_Guitar,6,7,DL_Guitar,0.10994375497102737,0
53,100,0.1590909090909091,668,0,40,DL_Guitar,6,3,DL_Guitar,0.12866522371768951,0
53,100,0.5,853,0,40,DL_Guitar,6,8,DL_Guitar,0.18221205472946167,0
53,100,0.2590909090909091,810,1,41,DL_Guitar,6,4,DL_Guitar,0.9792237281799316,1
53,100,0.2772727272727273,118,1,42,DL_Guitar,6,4,DL_Guitar,0.9792238473892212,1
60,100,0.6181818181818182,383,1,44,DL_Guitar,6,10,DL_Guitar,0.9792240262031555,1
53,100,0.11818181818181818,845,1,46,DL_Guitar,6,2,DL_Guitar,0.9792234897613525,1
55,100,0.2409090909090909,295,1,48,DL_Guitar,6,4,DL_Guitar,0.9983231425285339,1
57,100,0.7,826,1,48,DL_Guitar,6,11,DL_Guitar,0.5462166666984558,1
57,100,0.18181818181818182,179,1,49,DL_Guitar,6,3,DL_Guitar,0.9983232617378235,1
55,100,0.2636363636363636,554,1,49,DL_Guitar,6,4,DL_Guitar,0.5462125539779663,1
53,100,0.2818181818181818,123,1,50,DL_Guitar,6,5,DL_Guitar,0.9990094900131226,1
53,100,0.2818181818181818,254,0,50,DL_Guitar,6,5,DL_Guitar,0.2332410365343094,0
53,100,0.12272727272727273,378,0,50,DL_Guitar,6,2,DL_Guitar,0.2705923914909363,0
55,100,2.7181818181818183,501,0,50,DL_Guitar,6,15,DL_Guitar,0.35790571570396423,0
53,100,0.1,263,1,58,DL_Guitar,6,2,DL_Guitar,0.9792238473892212,1
